<?xml version="1.0" encoding="utf-8" standalone="no"?>
<!DOCTYPE svg PUBLIC "-//W3C//DTD SVG 1.1//EN"
  "http://www.w3.org/Graphics/SVG/1.1/DTD/svg11.dtd">
<svg xmlns:xlink="http://www.w3.org/1999/xlink" width="720pt" height="576pt" viewBox="0 0 720 576" xmlns="http://www.w3.org/2000/svg" version="1.1">
 <metadata>
  <rdf:RDF xmlns:dc="http://purl.org/dc/elements/1.1/" xmlns:cc="http://creativecommons.org/ns#" xmlns:rdf="http://www.w3.org/1999/02/22-rdf-syntax-ns#">
   <cc:Work>
    <dc:type rdf:resource="http://purl.org/dc/dcmitype/StillImage"/>
    <dc:date>2024-11-22T21:55:31.497655</dc:date>
    <dc:format>image/svg+xml</dc:format>
    <dc:creator>
     <cc:Agent>
      <dc:title>Matplotlib v3.8.4, https://matplotlib.org/</dc:title>
     </cc:Agent>
    </dc:creator>
   </cc:Work>
  </rdf:RDF>
 </metadata>
 <defs>
  <style type="text/css">*{stroke-linejoin: round; stroke-linecap: butt}</style>
 </defs>
 <g id="figure_1">
  <g id="patch_1">
   <path d="M 0 576 
L 720 576 
L 720 0 
L 0 0 
z
" style="fill: #ffffff"/>
  </g>
  <g id="axes_1">
   <g id="patch_2">
    <path d="M 47.81 534.04 
L 709.2 534.04 
L 709.2 25.44 
L 47.81 25.44 
z
" style="fill: #ffffff"/>
   </g>
   <g id="QuadContourSet_1">
    <path d="M 73.323405 527.879542 
L 74.312273 528.29676 
L 75.30114 528.385312 
L 76.290008 528.31118 
L 77.278876 528.037873 
L 77.955765 527.640436 
L 78.267744 527.484572 
L 79.144227 526.794965 
L 79.256611 526.703177 
L 80.115605 525.949494 
L 80.245479 525.814001 
L 81.079057 525.104024 
L 81.234347 524.936417 
L 82.037537 524.258553 
L 82.223214 524.053656 
L 82.879726 523.413082 
L 83.212082 522.975985 
L 83.573833 522.567611 
L 84.124853 521.72214 
L 84.20095 521.558829 
L 84.625371 520.876669 
L 84.948538 520.031198 
L 85.124209 519.185727 
L 85.189817 518.5191 
L 85.212775 518.340257 
L 85.246836 517.494786 
L 85.228469 516.649315 
L 85.189817 515.962346 
L 85.184485 515.803844 
L 85.162476 514.958373 
L 85.163163 514.112902 
L 85.184166 513.267431 
L 85.189817 513.097284 
L 85.241554 512.42196 
L 85.278474 511.576489 
L 85.258923 510.731019 
L 85.189817 510.055239 
L 85.181836 509.885548 
L 85.121091 509.040077 
L 85.060714 508.194606 
L 85.027964 507.349135 
L 85.039221 506.503664 
L 85.092185 505.658193 
L 85.170487 504.812722 
L 85.189817 504.607851 
L 85.300756 503.967252 
L 85.400908 503.121781 
L 85.435872 502.27631 
L 85.38792 501.430839 
L 85.241614 500.585368 
L 85.189817 500.394378 
L 85.090389 499.739897 
L 84.933478 498.894426 
L 84.758209 498.048955 
L 84.565261 497.203485 
L 84.349192 496.358014 
L 84.20095 495.793281 
L 84.136307 495.512543 
L 83.975468 494.667072 
L 83.880808 493.821601 
L 83.874 492.97613 
L 83.922611 492.130659 
L 83.945861 491.285188 
L 83.799901 490.439718 
L 83.212082 489.594247 
L 83.212082 489.594247 
L 82.433213 488.748776 
L 82.223214 488.567681 
L 81.705621 487.903305 
L 81.234347 487.127005 
L 81.199741 487.057834 
L 80.890726 486.212363 
L 80.5301 485.366892 
L 80.245479 484.948256 
L 79.256611 484.737062 
L 78.267744 485.145 
L 77.93968 485.366892 
L 77.278876 485.824835 
L 76.794138 486.212363 
L 76.290008 486.620779 
L 75.801212 487.057834 
L 75.30114 487.498956 
L 74.949275 487.903305 
L 74.312273 488.662893 
L 74.25724 488.748776 
L 73.766899 489.594247 
L 73.345939 490.439718 
L 73.323405 490.487054 
L 73.000857 491.285188 
L 72.714658 492.130659 
L 72.466083 492.97613 
L 72.334537 493.461039 
L 72.218373 493.821601 
L 71.965294 494.667072 
L 71.751012 495.512543 
L 71.585017 496.358014 
L 71.471981 497.203485 
L 71.396512 498.048955 
L 71.34567 498.676528 
L 71.31541 498.894426 
L 71.161294 499.739897 
L 70.993035 500.585368 
L 70.829727 501.430839 
L 70.683272 502.27631 
L 70.558551 503.121781 
L 70.456842 503.967252 
L 70.377223 504.812722 
L 70.356802 505.08304 
L 70.27436 505.658193 
L 70.16989 506.503664 
L 70.068511 507.349135 
L 69.966389 508.194606 
L 69.868942 509.040077 
L 69.783843 509.885548 
L 69.716156 510.731019 
L 69.667096 511.576489 
L 69.634743 512.42196 
L 69.61515 513.267431 
L 69.604324 514.112902 
L 69.601475 514.958373 
L 69.610994 515.803844 
L 69.639929 516.649315 
L 69.691251 517.494786 
L 69.758926 518.340257 
L 69.833458 519.185727 
L 69.914898 520.031198 
L 70.019378 520.876669 
L 70.176583 521.72214 
L 70.356802 522.368548 
L 70.386681 522.567611 
L 70.556876 523.413082 
L 70.809533 524.258553 
L 71.188514 525.104024 
L 71.34567 525.384067 
L 71.592789 525.949494 
L 72.194422 526.794965 
L 72.334537 526.955141 
L 73.031637 527.640436 
z
M 74.292513 525.104024 
L 73.429155 524.258553 
L 73.323405 524.119777 
L 72.862472 523.413082 
L 72.489249 522.567611 
L 72.334537 522.087402 
L 72.181714 521.72214 
L 71.910871 520.876669 
L 71.739218 520.031198 
L 71.638847 519.185727 
L 71.585955 518.340257 
L 71.562014 517.494786 
L 71.554463 516.649315 
L 71.556412 515.803844 
L 71.565545 514.958373 
L 71.582241 514.112902 
L 71.607929 513.267431 
L 71.644951 512.42196 
L 71.697349 511.576489 
L 71.770938 510.731019 
L 71.872514 509.885548 
L 72.009136 509.040077 
L 72.187172 508.194606 
L 72.334537 507.607617 
L 72.376761 507.349135 
L 72.524986 506.503664 
L 72.694474 505.658193 
L 72.880745 504.812722 
L 73.074257 503.967252 
L 73.265005 503.121781 
L 73.323405 502.848927 
L 73.438832 502.27631 
L 73.638606 501.430839 
L 73.880262 500.585368 
L 74.167724 499.739897 
L 74.312273 499.370666 
L 74.584007 498.894426 
L 75.131013 498.048955 
L 75.30114 497.80523 
L 76.257477 497.203485 
L 76.290008 497.18176 
L 77.278876 497.066415 
L 77.683883 497.203485 
L 78.267744 497.375928 
L 79.091348 498.048955 
L 79.256611 498.156466 
L 80.013335 498.894426 
L 80.245479 499.104276 
L 80.727956 499.739897 
L 81.174758 500.585368 
L 81.234347 500.739047 
L 81.480629 501.430839 
L 81.697154 502.27631 
L 81.853556 503.121781 
L 81.972693 503.967252 
L 82.068998 504.812722 
L 82.151089 505.658193 
L 82.223214 506.503664 
L 82.223214 506.503664 
L 82.333618 507.349135 
L 82.429747 508.194606 
L 82.510248 509.040077 
L 82.573774 509.885548 
L 82.619041 510.731019 
L 82.644604 511.576489 
L 82.648524 512.42196 
L 82.628188 513.267431 
L 82.580422 514.112902 
L 82.501385 514.958373 
L 82.385336 515.803844 
L 82.223214 516.643434 
L 82.222613 516.649315 
L 82.11705 517.494786 
L 81.971587 518.340257 
L 81.760346 519.185727 
L 81.438183 520.031198 
L 81.234347 520.426916 
L 81.079699 520.876669 
L 80.672691 521.72214 
L 80.245479 522.32981 
L 80.10849 522.567611 
L 79.492873 523.413082 
L 79.256611 523.679148 
L 78.71232 524.258553 
L 78.267744 524.671767 
L 77.57579 525.104024 
L 77.278876 525.298472 
L 76.290008 525.608667 
L 75.30114 525.575498 
L 74.312273 525.12054 
z
" clip-path="url(#pa20135e71b)" style="fill: #e8e8f3"/>
    <path d="M 74.312273 525.12054 
L 75.30114 525.575498 
L 76.290008 525.608667 
L 77.278876 525.298472 
L 77.57579 525.104024 
L 78.267744 524.671767 
L 78.71232 524.258553 
L 79.256611 523.679148 
L 79.492873 523.413082 
L 80.10849 522.567611 
L 80.245479 522.32981 
L 80.672691 521.72214 
L 81.079699 520.876669 
L 81.234347 520.426916 
L 81.438183 520.031198 
L 81.760346 519.185727 
L 81.971587 518.340257 
L 82.11705 517.494786 
L 82.222613 516.649315 
L 82.223214 516.643434 
L 82.385336 515.803844 
L 82.501385 514.958373 
L 82.580422 514.112902 
L 82.628188 513.267431 
L 82.648524 512.42196 
L 82.644604 511.576489 
L 82.619041 510.731019 
L 82.573774 509.885548 
L 82.510248 509.040077 
L 82.429747 508.194606 
L 82.333618 507.349135 
L 82.223214 506.503664 
L 82.223214 506.503664 
L 82.151089 505.658193 
L 82.068998 504.812722 
L 81.972693 503.967252 
L 81.853556 503.121781 
L 81.697154 502.27631 
L 81.480629 501.430839 
L 81.234347 500.739047 
L 81.174758 500.585368 
L 80.727956 499.739897 
L 80.245479 499.104276 
L 80.013335 498.894426 
L 79.256611 498.156466 
L 79.091348 498.048955 
L 78.267744 497.375928 
L 77.683883 497.203485 
L 77.278876 497.066415 
L 76.290008 497.18176 
L 76.257477 497.203485 
L 75.30114 497.80523 
L 75.131013 498.048955 
L 74.584007 498.894426 
L 74.312273 499.370666 
L 74.167724 499.739897 
L 73.880262 500.585368 
L 73.638606 501.430839 
L 73.438832 502.27631 
L 73.323405 502.848927 
L 73.265005 503.121781 
L 73.074257 503.967252 
L 72.880745 504.812722 
L 72.694474 505.658193 
L 72.524986 506.503664 
L 72.376761 507.349135 
L 72.334537 507.607617 
L 72.187172 508.194606 
L 72.009136 509.040077 
L 71.872514 509.885548 
L 71.770938 510.731019 
L 71.697349 511.576489 
L 71.644951 512.42196 
L 71.607929 513.267431 
L 71.582241 514.112902 
L 71.565545 514.958373 
L 71.556412 515.803844 
L 71.554463 516.649315 
L 71.562014 517.494786 
L 71.585955 518.340257 
L 71.638847 519.185727 
L 71.739218 520.031198 
L 71.910871 520.876669 
L 72.181714 521.72214 
L 72.334537 522.087402 
L 72.489249 522.567611 
L 72.862472 523.413082 
L 73.323405 524.119777 
L 73.429155 524.258553 
L 74.292513 525.104024 
z
M 74.470051 523.413082 
L 74.312273 523.283538 
L 73.769202 522.567611 
L 73.342488 521.72214 
L 73.323405 521.674687 
L 72.984731 520.876669 
L 72.743303 520.031198 
L 72.593214 519.185727 
L 72.511477 518.340257 
L 72.47823 517.494786 
L 72.47699 516.649315 
L 72.495466 515.803844 
L 72.525706 514.958373 
L 72.56379 514.112902 
L 72.609274 513.267431 
L 72.664442 512.42196 
L 72.733681 511.576489 
L 72.823312 510.731019 
L 72.941662 509.885548 
L 73.099205 509.040077 
L 73.308773 508.194606 
L 73.323405 508.143864 
L 73.509985 507.349135 
L 73.756544 506.503664 
L 74.061357 505.658193 
L 74.312273 505.054096 
L 74.420775 504.812722 
L 74.819461 503.967252 
L 75.30114 503.121781 
L 75.30114 503.121781 
L 76.014554 502.27631 
L 76.290008 501.98729 
L 77.278876 501.526542 
L 78.267744 501.500525 
L 79.256611 501.918483 
L 79.561172 502.27631 
L 80.102513 503.121781 
L 80.245479 503.427714 
L 80.436971 503.967252 
L 80.676852 504.812722 
L 80.866458 505.658193 
L 81.024128 506.503664 
L 81.159275 507.349135 
L 81.234347 507.880643 
L 81.291941 508.194606 
L 81.426699 509.040077 
L 81.529487 509.885548 
L 81.600614 510.731019 
L 81.641623 511.576489 
L 81.654269 512.42196 
L 81.639369 513.267431 
L 81.59594 514.112902 
L 81.520655 514.958373 
L 81.407135 515.803844 
L 81.244169 516.649315 
L 81.234347 516.689521 
L 81.109895 517.494786 
L 80.930673 518.340257 
L 80.67728 519.185727 
L 80.306425 520.031198 
L 80.245479 520.146013 
L 79.934255 520.876669 
L 79.416948 521.72214 
L 79.256611 521.939879 
L 78.777925 522.567611 
L 78.267744 523.110247 
L 77.855869 523.413082 
L 77.278876 523.827937 
L 76.290008 524.114787 
L 75.30114 523.985393 
z
" clip-path="url(#pa20135e71b)" style="fill: #d4d4f4"/>
    <path d="M 75.30114 523.985393 
L 76.290008 524.114787 
L 77.278876 523.827937 
L 77.855869 523.413082 
L 78.267744 523.110247 
L 78.777925 522.567611 
L 79.256611 521.939879 
L 79.416948 521.72214 
L 79.934255 520.876669 
L 80.245479 520.146013 
L 80.306425 520.031198 
L 80.67728 519.185727 
L 80.930673 518.340257 
L 81.109895 517.494786 
L 81.234347 516.689521 
L 81.244169 516.649315 
L 81.407135 515.803844 
L 81.520655 514.958373 
L 81.59594 514.112902 
L 81.639369 513.267431 
L 81.654269 512.42196 
L 81.641623 511.576489 
L 81.600614 510.731019 
L 81.529487 509.885548 
L 81.426699 509.040077 
L 81.291941 508.194606 
L 81.234347 507.880643 
L 81.159275 507.349135 
L 81.024128 506.503664 
L 80.866458 505.658193 
L 80.676852 504.812722 
L 80.436971 503.967252 
L 80.245479 503.427714 
L 80.102513 503.121781 
L 79.561172 502.27631 
L 79.256611 501.918483 
L 78.267744 501.500525 
L 77.278876 501.526542 
L 76.290008 501.98729 
L 76.014554 502.27631 
L 75.30114 503.121781 
L 75.30114 503.121781 
L 74.819461 503.967252 
L 74.420775 504.812722 
L 74.312273 505.054096 
L 74.061357 505.658193 
L 73.756544 506.503664 
L 73.509985 507.349135 
L 73.323405 508.143864 
L 73.308773 508.194606 
L 73.099205 509.040077 
L 72.941662 509.885548 
L 72.823312 510.731019 
L 72.733681 511.576489 
L 72.664442 512.42196 
L 72.609274 513.267431 
L 72.56379 514.112902 
L 72.525706 514.958373 
L 72.495466 515.803844 
L 72.47699 516.649315 
L 72.47823 517.494786 
L 72.511477 518.340257 
L 72.593214 519.185727 
L 72.743303 520.031198 
L 72.984731 520.876669 
L 73.323405 521.674687 
L 73.342488 521.72214 
L 73.769202 522.567611 
L 74.312273 523.283538 
L 74.470051 523.413082 
z
M 75.24657 522.567611 
L 74.4159 521.72214 
L 74.312273 521.580509 
L 73.927004 520.876669 
L 73.607542 520.031198 
L 73.402089 519.185727 
L 73.323405 518.647356 
L 73.269547 518.340257 
L 73.19623 517.494786 
L 73.185796 516.649315 
L 73.220663 515.803844 
L 73.28611 514.958373 
L 73.323405 514.570861 
L 73.355408 514.112902 
L 73.421939 513.267431 
L 73.498841 512.42196 
L 73.590281 511.576489 
L 73.702562 510.731019 
L 73.844324 509.885548 
L 74.026887 509.040077 
L 74.264683 508.194606 
L 74.312273 508.052544 
L 74.557882 507.349135 
L 74.928999 506.503664 
L 75.30114 505.814125 
L 75.416955 505.658193 
L 76.110842 504.812722 
L 76.290008 504.610737 
L 77.278876 504.025257 
L 78.267744 503.967252 
L 79.256611 504.781733 
L 79.272924 504.812722 
L 79.656632 505.658193 
L 79.943185 506.503664 
L 80.169812 507.349135 
L 80.245479 507.669215 
L 80.370829 508.194606 
L 80.54617 509.040077 
L 80.685742 509.885548 
L 80.788023 510.731019 
L 80.853329 511.576489 
L 80.88388 512.42196 
L 80.882483 513.267431 
L 80.850751 514.112902 
L 80.787707 514.958373 
L 80.688997 515.803844 
L 80.546023 516.649315 
L 80.343864 517.494786 
L 80.245479 517.810313 
L 80.116867 518.340257 
L 79.845596 519.185727 
L 79.463436 520.031198 
L 79.256611 520.391253 
L 78.973074 520.876669 
L 78.330617 521.72214 
L 78.267744 521.795122 
L 77.309192 522.567611 
L 77.278876 522.590698 
L 76.290008 522.891136 
L 75.30114 522.612952 
z
" clip-path="url(#pa20135e71b)" style="fill: #babaf6"/>
    <path d="M 75.30114 522.612952 
L 76.290008 522.891136 
L 77.278876 522.590698 
L 77.309192 522.567611 
L 78.267744 521.795122 
L 78.330617 521.72214 
L 78.973074 520.876669 
L 79.256611 520.391253 
L 79.463436 520.031198 
L 79.845596 519.185727 
L 80.116867 518.340257 
L 80.245479 517.810313 
L 80.343864 517.494786 
L 80.546023 516.649315 
L 80.688997 515.803844 
L 80.787707 514.958373 
L 80.850751 514.112902 
L 80.882483 513.267431 
L 80.88388 512.42196 
L 80.853329 511.576489 
L 80.788023 510.731019 
L 80.685742 509.885548 
L 80.54617 509.040077 
L 80.370829 508.194606 
L 80.245479 507.669215 
L 80.169812 507.349135 
L 79.943185 506.503664 
L 79.656632 505.658193 
L 79.272924 504.812722 
L 79.256611 504.781733 
L 78.267744 503.967252 
L 77.278876 504.025257 
L 76.290008 504.610737 
L 76.110842 504.812722 
L 75.416955 505.658193 
L 75.30114 505.814125 
L 74.928999 506.503664 
L 74.557882 507.349135 
L 74.312273 508.052544 
L 74.264683 508.194606 
L 74.026887 509.040077 
L 73.844324 509.885548 
L 73.702562 510.731019 
L 73.590281 511.576489 
L 73.498841 512.42196 
L 73.421939 513.267431 
L 73.355408 514.112902 
L 73.323405 514.570861 
L 73.28611 514.958373 
L 73.220663 515.803844 
L 73.185796 516.649315 
L 73.19623 517.494786 
L 73.269547 518.340257 
L 73.323405 518.647356 
L 73.402089 519.185727 
L 73.607542 520.031198 
L 73.927004 520.876669 
L 74.312273 521.580509 
L 74.4159 521.72214 
L 75.24657 522.567611 
z
M 75.715891 521.72214 
L 75.30114 521.537477 
L 74.755966 520.876669 
L 74.312273 520.088369 
L 74.286535 520.031198 
L 73.992394 519.185727 
L 73.812812 518.340257 
L 73.721558 517.494786 
L 73.697574 516.649315 
L 73.723213 515.803844 
L 73.784521 514.958373 
L 73.871322 514.112902 
L 73.976947 513.267431 
L 74.098423 512.42196 
L 74.23713 511.576489 
L 74.312273 511.168417 
L 74.390507 510.731019 
L 74.571374 509.885548 
L 74.802582 509.040077 
L 75.100653 508.194606 
L 75.30114 507.731056 
L 75.522774 507.349135 
L 76.115608 506.503664 
L 76.290008 506.285213 
L 77.278876 505.658193 
L 78.267744 505.7485 
L 78.881182 506.503664 
L 79.256611 507.138215 
L 79.333151 507.349135 
L 79.604999 508.194606 
L 79.829106 509.040077 
L 80.011521 509.885548 
L 80.151536 510.731019 
L 80.245479 511.564653 
L 80.246885 511.576489 
L 80.306051 512.42196 
L 80.319242 513.267431 
L 80.288027 514.112902 
L 80.245479 514.588647 
L 80.219833 514.958373 
L 80.127708 515.803844 
L 79.99624 516.649315 
L 79.81336 517.494786 
L 79.559755 518.340257 
L 79.256611 519.075711 
L 79.210928 519.185727 
L 78.78303 520.031198 
L 78.267744 520.78553 
L 78.176882 520.876669 
L 77.278876 521.672538 
L 77.088704 521.72214 
L 76.290008 521.947057 
z
" clip-path="url(#pa20135e71b)" style="fill: #9e9ef7"/>
    <path d="M 76.290008 521.947057 
L 77.088704 521.72214 
L 77.278876 521.672538 
L 78.176882 520.876669 
L 78.267744 520.78553 
L 78.78303 520.031198 
L 79.210928 519.185727 
L 79.256611 519.075711 
L 79.559755 518.340257 
L 79.81336 517.494786 
L 79.99624 516.649315 
L 80.127708 515.803844 
L 80.219833 514.958373 
L 80.245479 514.588647 
L 80.288027 514.112902 
L 80.319242 513.267431 
L 80.306051 512.42196 
L 80.246885 511.576489 
L 80.245479 511.564653 
L 80.151536 510.731019 
L 80.011521 509.885548 
L 79.829106 509.040077 
L 79.604999 508.194606 
L 79.333151 507.349135 
L 79.256611 507.138215 
L 78.881182 506.503664 
L 78.267744 505.7485 
L 77.278876 505.658193 
L 76.290008 506.285213 
L 76.115608 506.503664 
L 75.522774 507.349135 
L 75.30114 507.731056 
L 75.100653 508.194606 
L 74.802582 509.040077 
L 74.571374 509.885548 
L 74.390507 510.731019 
L 74.312273 511.168417 
L 74.23713 511.576489 
L 74.098423 512.42196 
L 73.976947 513.267431 
L 73.871322 514.112902 
L 73.784521 514.958373 
L 73.723213 515.803844 
L 73.697574 516.649315 
L 73.721558 517.494786 
L 73.812812 518.340257 
L 73.992394 519.185727 
L 74.286535 520.031198 
L 74.312273 520.088369 
L 74.755966 520.876669 
L 75.30114 521.537477 
L 75.715891 521.72214 
z
M 76.026862 520.876669 
L 75.30114 520.415849 
L 75.043294 520.031198 
L 74.636253 519.185727 
L 74.386958 518.340257 
L 74.312273 517.879205 
L 74.254316 517.494786 
L 74.209749 516.649315 
L 74.234263 515.803844 
L 74.312273 514.958373 
L 74.312273 514.958373 
L 74.416825 514.112902 
L 74.544849 513.267431 
L 74.694085 512.42196 
L 74.867393 511.576489 
L 75.071863 510.731019 
L 75.30114 509.940435 
L 75.321567 509.885548 
L 75.682092 509.040077 
L 76.144402 508.194606 
L 76.290008 507.968023 
L 77.13503 507.349135 
L 77.278876 507.250754 
L 77.628263 507.349135 
L 78.267744 507.554684 
L 78.646696 508.194606 
L 79.041025 509.040077 
L 79.256611 509.608839 
L 79.332121 509.885548 
L 79.527651 510.731019 
L 79.67233 511.576489 
L 79.764737 512.42196 
L 79.805989 513.267431 
L 79.799175 514.112902 
L 79.746541 514.958373 
L 79.646625 515.803844 
L 79.49246 516.649315 
L 79.270082 517.494786 
L 79.256611 517.534868 
L 78.984383 518.340257 
L 78.602296 519.185727 
L 78.267744 519.754719 
L 78.027204 520.031198 
L 77.278876 520.766242 
L 76.826201 520.876669 
L 76.290008 521.012737 
z
" clip-path="url(#pa20135e71b)" style="fill: #8282f8"/>
    <path d="M 76.290008 521.012737 
L 76.826201 520.876669 
L 77.278876 520.766242 
L 78.027204 520.031198 
L 78.267744 519.754719 
L 78.602296 519.185727 
L 78.984383 518.340257 
L 79.256611 517.534868 
L 79.270082 517.494786 
L 79.49246 516.649315 
L 79.646625 515.803844 
L 79.746541 514.958373 
L 79.799175 514.112902 
L 79.805989 513.267431 
L 79.764737 512.42196 
L 79.67233 511.576489 
L 79.527651 510.731019 
L 79.332121 509.885548 
L 79.256611 509.608839 
L 79.041025 509.040077 
L 78.646696 508.194606 
L 78.267744 507.554684 
L 77.628263 507.349135 
L 77.278876 507.250754 
L 77.13503 507.349135 
L 76.290008 507.968023 
L 76.144402 508.194606 
L 75.682092 509.040077 
L 75.321567 509.885548 
L 75.30114 509.940435 
L 75.071863 510.731019 
L 74.867393 511.576489 
L 74.694085 512.42196 
L 74.544849 513.267431 
L 74.416825 514.112902 
L 74.312273 514.958373 
L 74.312273 514.958373 
L 74.234263 515.803844 
L 74.209749 516.649315 
L 74.254316 517.494786 
L 74.312273 517.879205 
L 74.386958 518.340257 
L 74.636253 519.185727 
L 75.043294 520.031198 
L 75.30114 520.415849 
L 76.026862 520.876669 
z
M 76.23166 520.031198 
L 75.30114 519.185727 
L 75.30114 519.185727 
L 74.974697 518.340257 
L 74.79123 517.494786 
L 74.717409 516.649315 
L 74.727693 515.803844 
L 74.801507 514.958373 
L 74.923546 514.112902 
L 75.084064 513.267431 
L 75.278232 512.42196 
L 75.30114 512.329789 
L 75.540093 511.576489 
L 75.848226 510.731019 
L 76.219315 509.885548 
L 76.290008 509.743711 
L 77.077782 509.040077 
L 77.278876 508.876632 
L 77.605763 509.040077 
L 78.267744 509.427583 
L 78.476518 509.885548 
L 78.797123 510.731019 
L 79.042568 511.576489 
L 79.210461 512.42196 
L 79.256611 512.843597 
L 79.292765 513.267431 
L 79.30659 514.112902 
L 79.260591 514.958373 
L 79.256611 514.990047 
L 79.151577 515.803844 
L 78.984101 516.649315 
L 78.748144 517.494786 
L 78.423381 518.340257 
L 78.267744 518.656343 
L 77.875606 519.185727 
L 77.278876 519.851608 
L 76.4682 520.031198 
L 76.290008 520.070667 
z
" clip-path="url(#pa20135e71b)" style="fill: #6565fa"/>
    <path d="M 76.290008 520.070667 
L 76.4682 520.031198 
L 77.278876 519.851608 
L 77.875606 519.185727 
L 78.267744 518.656343 
L 78.423381 518.340257 
L 78.748144 517.494786 
L 78.984101 516.649315 
L 79.151577 515.803844 
L 79.256611 514.990047 
L 79.260591 514.958373 
L 79.30659 514.112902 
L 79.292765 513.267431 
L 79.256611 512.843597 
L 79.210461 512.42196 
L 79.042568 511.576489 
L 78.797123 510.731019 
L 78.476518 509.885548 
L 78.267744 509.427583 
L 77.605763 509.040077 
L 77.278876 508.876632 
L 77.077782 509.040077 
L 76.290008 509.743711 
L 76.219315 509.885548 
L 75.848226 510.731019 
L 75.540093 511.576489 
L 75.30114 512.329789 
L 75.278232 512.42196 
L 75.084064 513.267431 
L 74.923546 514.112902 
L 74.801507 514.958373 
L 74.727693 515.803844 
L 74.717409 516.649315 
L 74.79123 517.494786 
L 74.974697 518.340257 
L 75.30114 519.185727 
L 75.30114 519.185727 
L 76.23166 520.031198 
z
M 75.672421 518.340257 
L 75.30114 517.494786 
L 75.30114 517.494786 
L 75.196414 516.649315 
L 75.192152 515.803844 
L 75.267173 514.958373 
L 75.30114 514.745755 
L 75.434137 514.112902 
L 75.662858 513.267431 
L 75.933789 512.42196 
L 76.249704 511.576489 
L 76.290008 511.477774 
L 77.021659 510.731019 
L 77.278876 510.483775 
L 77.608761 510.731019 
L 78.267744 511.332737 
L 78.352137 511.576489 
L 78.583645 512.42196 
L 78.729296 513.267431 
L 78.789541 514.112902 
L 78.770158 514.958373 
L 78.676454 515.803844 
L 78.507327 516.649315 
L 78.267744 517.44513 
L 78.244165 517.494786 
L 77.728228 518.340257 
L 77.278876 518.929119 
L 76.290008 519.10732 
z
" clip-path="url(#pa20135e71b)" style="fill: #4848fb"/>
    <path d="M 76.290008 519.10732 
L 77.278876 518.929119 
L 77.728228 518.340257 
L 78.244165 517.494786 
L 78.267744 517.44513 
L 78.507327 516.649315 
L 78.676454 515.803844 
L 78.770158 514.958373 
L 78.789541 514.112902 
L 78.729296 513.267431 
L 78.583645 512.42196 
L 78.352137 511.576489 
L 78.267744 511.332737 
L 77.608761 510.731019 
L 77.278876 510.483775 
L 77.021659 510.731019 
L 76.290008 511.477774 
L 76.249704 511.576489 
L 75.933789 512.42196 
L 75.662858 513.267431 
L 75.434137 514.112902 
L 75.30114 514.745755 
L 75.267173 514.958373 
L 75.192152 515.803844 
L 75.196414 516.649315 
L 75.30114 517.494786 
L 75.30114 517.494786 
L 75.672421 518.340257 
z
M 76.075978 517.494786 
L 75.845055 516.649315 
L 75.795356 515.803844 
L 75.874699 514.958373 
L 76.047001 514.112902 
L 76.290008 513.267431 
L 76.290008 513.267431 
L 77.060085 512.42196 
L 77.278876 512.190533 
L 77.485153 512.42196 
L 78.016463 513.267431 
L 78.265071 514.112902 
L 78.267744 514.19153 
L 78.279243 514.958373 
L 78.267744 515.079415 
L 78.149673 515.803844 
L 77.880734 516.649315 
L 77.491798 517.494786 
L 77.278876 517.83997 
L 76.290008 517.89481 
z
" clip-path="url(#pa20135e71b)" style="fill: #2b2bfd"/>
    <path d="M 76.290008 517.89481 
L 77.278876 517.83997 
L 77.491798 517.494786 
L 77.880734 516.649315 
L 78.149673 515.803844 
L 78.267744 515.079415 
L 78.279243 514.958373 
L 78.267744 514.19153 
L 78.265071 514.112902 
L 78.016463 513.267431 
L 77.485153 512.42196 
L 77.278876 512.190533 
L 77.060085 512.42196 
L 76.290008 513.267431 
L 76.290008 513.267431 
L 76.047001 514.112902 
L 75.874699 514.958373 
L 75.795356 515.803844 
L 75.845055 516.649315 
L 76.075978 517.494786 
z
" clip-path="url(#pa20135e71b)" style="fill: #0e0efe"/>
   </g>
   <g id="QuadContourSet_2">
    <path d="M 23.81121 564.204382 
L 29.371667 564.535436 
L 34.932124 563.438573 
L 36.364211 562.844434 
L 40.492581 561.941323 
L 46.053038 559.948177 
L 50.167025 557.471763 
L 51.613495 556.960092 
L 57.173952 554.26167 
L 60.144723 552.099093 
L 62.734409 550.868544 
L 68.190489 546.726423 
L 68.294866 546.670888 
L 73.855323 543.355337 
L 76.254044 541.353753 
L 79.41578 539.320833 
L 83.316289 535.981083 
L 84.976237 534.812984 
L 89.775242 530.608413 
L 90.536694 530.025957 
L 95.900718 525.235742 
L 96.097151 525.073978 
L 101.657608 520.331686 
L 102.189782 519.863072 
L 107.218065 515.720039 
L 108.63533 514.490402 
L 112.778522 511.083952 
L 115.102258 509.117732 
L 118.338979 506.528684 
L 121.735959 503.745062 
L 123.899436 502.090615 
L 128.584423 498.372391 
L 129.459893 497.73368 
L 135.02035 493.801378 
L 136.148524 492.999721 
L 140.580807 490.291413 
L 144.295773 487.627051 
L 146.141264 486.467087 
L 151.701721 482.615275 
L 152.318284 482.254381 
L 157.262178 479.712561 
L 162.213389 476.881711 
L 162.822635 476.568112 
L 168.383092 474.801371 
L 173.943549 473.20862 
L 179.27134 471.509041 
L 179.504006 471.447571 
L 185.064463 469.245571 
L 190.62492 466.480233 
L 191.182477 466.13637 
L 196.185377 463.483353 
L 200.467046 460.7637 
L 201.745834 460.036426 
L 207.306291 456.484057 
L 208.847912 455.39103 
L 212.866748 452.743387 
L 216.629467 450.01836 
L 218.427205 448.767823 
L 223.987662 444.708276 
L 224.076831 444.64569 
L 229.548119 440.973414 
L 232.021314 439.273019 
L 235.108576 437.215914 
L 240.044324 433.900349 
L 240.669033 433.489245 
L 246.22949 430.062325 
L 248.574327 428.527679 
L 251.789947 426.515424 
L 256.703033 423.155009 
L 257.350404 422.718457 
L 262.910861 418.788715 
L 264.24689 417.782339 
L 268.471318 414.498035 
L 271.029188 412.409669 
L 274.031775 409.729641 
L 277.021264 407.036998 
L 279.592232 404.342404 
L 282.235764 401.664328 
L 285.152689 397.996864 
L 286.619766 396.291658 
L 290.261434 390.918988 
L 290.713146 390.164591 
L 293.765303 385.546318 
L 296.273603 380.905436 
L 296.727348 380.173648 
L 299.95705 374.800977 
L 301.834059 371.441447 
L 303.154512 369.428307 
L 306.482469 364.055637 
L 307.394516 362.495769 
L 310.119237 358.682967 
L 312.954973 354.61537 
L 314.05264 353.310297 
L 318.51543 347.937626 
L 318.51543 347.937626 
L 323.191426 342.564956 
L 324.075887 341.550652 
L 328.125498 337.192286 
L 329.636344 335.514979 
L 332.888178 331.819616 
L 335.196801 328.987545 
L 337.206535 326.446946 
L 340.757258 321.36574 
L 340.964572 321.074276 
L 342.738551 315.701605 
L 343.892529 310.328935 
L 346.317715 306.509734 
L 346.838405 304.956265 
L 351.189368 299.583595 
L 351.878172 298.961911 
L 355.968675 294.210925 
L 357.438629 292.644865 
L 360.696441 288.838255 
L 362.999086 285.817987 
L 364.891168 283.465584 
L 368.101659 278.092914 
L 368.559543 277.232423 
L 371.245058 272.720244 
L 373.436465 267.347574 
L 374.12 265.838134 
L 376.07343 261.974904 
L 378.357923 256.602233 
L 379.680457 253.624971 
L 380.841736 251.229563 
L 383.112174 245.856893 
L 385.240914 241.310458 
L 385.646186 240.484223 
L 387.338407 235.111553 
L 385.240914 230.422925 
L 379.680457 233.122215 
L 376.455921 235.111553 
L 374.12 236.302351 
L 368.559543 239.069782 
L 364.381911 240.484223 
L 362.999086 240.923374 
L 362.103914 240.484223 
L 361.093962 235.111553 
L 362.999086 230.790325 
L 363.580192 229.738883 
L 367.673064 224.366212 
L 368.559543 223.257601 
L 372.677703 218.993542 
L 374.12 217.392911 
L 378.455854 213.620872 
L 379.680457 212.39655 
L 385.240914 208.534406 
L 385.902341 208.248202 
L 390.801371 206.05185 
L 396.361828 205.331834 
L 401.922285 206.2305 
L 407.482742 206.517783 
L 413.043199 203.725546 
L 414.007753 202.875532 
L 418.603656 199.334887 
L 420.276925 197.502862 
L 424.164113 193.142754 
L 424.85761 192.130191 
L 428.108974 186.757521 
L 429.72457 183.582129 
L 430.641543 181.384851 
L 432.393838 176.012181 
L 433.236036 170.639511 
L 429.994585 165.26684 
L 429.72457 165.183429 
L 429.469618 165.26684 
L 424.164113 167.000246 
L 418.603656 169.766216 
L 417.211386 170.639511 
L 413.043199 173.476527 
L 409.150825 176.012181 
L 407.482742 177.314447 
L 401.922285 181.006848 
L 401.214507 181.384851 
L 396.361828 184.654661 
L 391.418153 186.757521 
L 390.801371 187.129606 
L 385.240914 188.257246 
L 379.680457 187.547694 
L 376.723936 186.757521 
L 374.12 185.971299 
L 368.559543 185.700732 
L 362.999086 186.058294 
L 357.438629 186.547137 
L 356.300232 186.757521 
L 351.878172 187.45035 
L 346.317715 188.994847 
L 340.757258 191.436481 
L 339.627385 192.130191 
L 335.196801 194.393232 
L 330.453128 197.502862 
L 329.636344 197.972816 
L 324.075887 201.528751 
L 322.016201 202.875532 
L 318.51543 205.052495 
L 313.084335 208.248202 
L 312.954973 208.325121 
L 307.394516 209.781742 
L 303.625927 208.248202 
L 301.834059 206.059396 
L 300.602262 202.875532 
L 298.552069 197.502862 
L 296.273603 193.995449 
L 293.489256 192.130191 
L 290.713146 190.90363 
L 285.152689 189.905877 
L 279.592232 189.659304 
L 274.031775 190.133245 
L 268.471318 191.371335 
L 266.45674 192.130191 
L 262.910861 193.433528 
L 257.350404 196.048793 
L 254.842641 197.502862 
L 251.789947 199.257965 
L 246.494672 202.875532 
L 246.22949 203.054061 
L 240.669033 207.266331 
L 239.487549 208.248202 
L 235.108576 211.892359 
L 233.176409 213.620872 
L 229.548119 216.798864 
L 227.142451 218.993542 
L 223.987662 221.793922 
L 221.095268 224.366212 
L 218.427205 226.723141 
L 214.853618 229.738883 
L 212.866748 231.487918 
L 208.303536 235.111553 
L 207.306291 236.003091 
L 201.745834 240.186056 
L 201.299648 240.484223 
L 196.185377 244.330111 
L 193.796709 245.856893 
L 190.62492 248.369914 
L 186.154617 251.229563 
L 185.064463 252.195648 
L 179.504006 256.243959 
L 179.046468 256.602233 
L 173.943549 261.087044 
L 172.912051 261.974904 
L 168.383092 266.163916 
L 167.108429 267.347574 
L 162.822635 271.263686 
L 161.300585 272.720244 
L 157.262178 276.189972 
L 155.249882 278.092914 
L 151.701721 280.949764 
L 148.971417 283.465584 
L 146.141264 285.671153 
L 142.642322 288.838255 
L 140.580807 290.455462 
L 136.413729 294.210925 
L 135.02035 295.343257 
L 130.339827 299.583595 
L 129.459893 300.3356 
L 124.409711 304.956265 
L 123.899436 305.417162 
L 118.595643 310.328935 
L 118.338979 310.573836 
L 112.885356 315.701605 
L 112.778522 315.809067 
L 107.299998 321.074276 
L 107.218065 321.161079 
L 101.899689 326.446946 
L 101.657608 326.717681 
L 96.771116 331.819616 
L 96.097151 332.620496 
L 91.997523 337.192286 
L 90.536694 339.058185 
L 87.635208 342.564956 
L 84.976237 346.279345 
L 83.726936 347.937626 
L 80.10796 353.310297 
L 79.41578 354.33942 
L 76.48932 358.682967 
L 73.855323 363.064161 
L 73.242642 364.055637 
L 69.849032 369.428307 
L 68.294866 372.084306 
L 66.624344 374.800977 
L 63.502431 380.173648 
L 62.734409 381.512627 
L 60.211669 385.546318 
L 57.285775 390.918988 
L 57.173952 391.132299 
L 54.084942 396.291658 
L 51.613495 401.381323 
L 51.453376 401.664328 
L 48.908397 407.036998 
L 47.06144 412.409669 
L 46.053038 417.230628 
L 45.909374 417.782339 
L 45.260866 423.155009 
L 44.551627 428.527679 
L 43.270844 433.900349 
L 41.757003 439.273019 
L 40.492581 443.822319 
L 40.157388 444.64569 
L 37.618498 450.01836 
L 35.700718 455.39103 
L 34.932124 457.812567 
L 33.483212 460.7637 
L 31.223416 466.13637 
L 29.58521 471.509041 
L 29.371667 472.249599 
L 27.177937 476.881711 
L 25.288123 482.254381 
L 23.935284 487.627051 
L 23.81121 488.190175 
L 21.937273 492.999721 
L 20.434683 498.372391 
L 19.329749 503.745062 
L 18.471442 509.117732 
L 18.250753 510.619671 
L 17.178073 514.490402 
L 15.87571 519.863072 
L 14.814365 525.235742 
L 13.983955 530.608413 
L 13.372687 535.981083 
L 12.983076 541.353753 
L 12.873526 546.726423 
L 13.26272 552.099093 
L 14.858319 557.471763 
L 18.250753 561.601357 
L 20.549167 562.844434 
z
M 34.69549 552.099093 
L 29.371667 550.02985 
L 26.534798 546.726423 
L 24.812534 541.353753 
L 24.477177 535.981083 
L 24.729874 530.608413 
L 25.335812 525.235742 
L 26.237286 519.863072 
L 27.433612 514.490402 
L 28.932198 509.117732 
L 29.371667 507.638583 
L 30.077604 503.745062 
L 31.188104 498.372391 
L 32.548896 492.999721 
L 34.304389 487.627051 
L 34.932124 486.020441 
L 35.880212 482.254381 
L 37.616644 476.881711 
L 40.036725 471.509041 
L 40.492581 470.602987 
L 42.040749 466.13637 
L 44.486301 460.7637 
L 46.053038 457.876703 
L 47.038928 455.39103 
L 49.542606 450.01836 
L 51.613495 446.418999 
L 52.399149 444.64569 
L 55.073033 439.273019 
L 57.173952 435.813551 
L 58.112767 433.900349 
L 61.054931 428.527679 
L 62.734409 425.839408 
L 64.147505 423.155009 
L 67.386138 417.782339 
L 68.294866 416.314477 
L 70.400044 412.409669 
L 73.855323 407.112575 
L 73.90028 407.036998 
L 76.801378 401.664328 
L 79.41578 397.592212 
L 80.201186 396.291658 
L 83.487492 390.918988 
L 84.976237 388.656303 
L 86.972176 385.546318 
L 90.536694 380.711298 
L 90.940198 380.173648 
L 95.213525 374.800977 
L 96.097151 373.787272 
L 100.078887 369.428307 
L 101.657608 367.830125 
L 105.666327 364.055637 
L 107.218065 362.652591 
L 112.002608 358.682967 
L 112.778522 358.043087 
L 118.338979 353.76396 
L 118.974209 353.310297 
L 123.899436 349.632593 
L 126.358835 347.937626 
L 129.459893 345.671228 
L 133.99906 342.564956 
L 135.02035 341.819562 
L 140.580807 337.924305 
L 141.699952 337.192286 
L 146.141264 334.043622 
L 149.579551 331.819616 
L 151.701721 330.340378 
L 157.262178 326.82281 
L 157.920167 326.446946 
L 162.822635 323.408843 
L 167.134371 321.074276 
L 168.383092 320.336768 
L 173.943549 317.364819 
L 177.475941 315.701605 
L 179.504006 314.639569 
L 185.064463 312.075924 
L 189.502718 310.328935 
L 190.62492 309.82497 
L 196.185377 307.744318 
L 201.745834 305.999774 
L 205.175554 304.956265 
L 207.306291 304.249411 
L 212.866748 302.428809 
L 218.427205 300.594754 
L 221.59853 299.583595 
L 223.987662 298.782458 
L 229.548119 297.625611 
L 235.108576 297.667775 
L 240.669033 299.17989 
L 242.444364 299.583595 
L 246.22949 300.623303 
L 251.789947 304.956265 
L 249.632326 310.328935 
L 246.883984 315.701605 
L 246.22949 316.742888 
L 243.6534 321.074276 
L 240.669033 326.30539 
L 240.592573 326.446946 
L 237.831588 331.819616 
L 235.430055 337.192286 
L 235.108576 338.111041 
L 233.708203 342.564956 
L 232.571711 347.937626 
L 231.981092 353.310297 
L 231.964819 358.682967 
L 232.400976 364.055637 
L 232.715522 369.428307 
L 232.204898 374.800977 
L 230.734575 380.173648 
L 229.548119 382.955762 
L 228.64912 385.546318 
L 226.08581 390.918988 
L 223.987662 394.235613 
L 222.914508 396.291658 
L 219.229534 401.664328 
L 218.427205 402.624084 
L 215.298854 407.036998 
L 212.866748 409.746294 
L 210.840928 412.409669 
L 207.306291 416.143211 
L 205.983999 417.782339 
L 201.745834 422.070855 
L 200.824391 423.155009 
L 196.185377 427.682841 
L 195.432275 428.527679 
L 190.62492 433.081419 
L 189.862136 433.900349 
L 185.064463 438.33702 
L 184.15617 439.273019 
L 179.504006 443.493284 
L 178.340538 444.64569 
L 173.943549 448.568628 
L 172.41957 450.01836 
L 168.383092 453.559361 
L 166.372998 455.39103 
L 162.822635 458.445769 
L 160.159658 460.7637 
L 157.262178 463.201087 
L 153.731305 466.13637 
L 151.701721 467.803149 
L 147.062022 471.509041 
L 146.141264 472.249331 
L 140.580807 476.657472 
L 140.324667 476.881711 
L 135.02035 481.31104 
L 133.989597 482.254381 
L 129.459893 486.146423 
L 127.93027 487.627051 
L 123.899436 491.221025 
L 122.147993 492.999721 
L 118.338979 496.510894 
L 116.549984 498.372391 
L 112.778522 501.923753 
L 111.017972 503.745062 
L 107.218065 507.347533 
L 105.447249 509.117732 
L 101.657608 512.687955 
L 99.748196 514.490402 
L 96.097151 517.87393 
L 93.827288 519.863072 
L 90.536694 522.840775 
L 87.556742 525.235742 
L 84.976237 527.504017 
L 80.72804 530.608413 
L 79.41578 531.724648 
L 73.855323 535.671781 
L 73.337704 535.981083 
L 68.294866 539.83246 
L 65.410487 541.353753 
L 62.734409 543.28858 
L 57.173952 546.137019 
L 55.597503 546.726423 
L 51.613495 548.993694 
L 46.053038 550.920539 
L 40.492581 551.998003 
L 36.508357 552.099093 
L 34.932124 552.169397 
z
M 401.922285 262.455882 
L 402.89544 261.974904 
L 407.482742 259.706996 
L 413.043199 256.860922 
L 413.394655 256.602233 
L 418.603656 252.82944 
L 420.654215 251.229563 
L 424.164113 248.391246 
L 427.095003 245.856893 
L 429.72457 243.339394 
L 432.577282 240.484223 
L 435.285027 237.215656 
L 437.021432 235.111553 
L 439.949333 229.738883 
L 435.285027 224.972345 
L 429.72457 228.23095 
L 427.7755 229.738883 
L 424.164113 232.584732 
L 421.259893 235.111553 
L 418.603656 237.608312 
L 415.605041 240.484223 
L 413.043199 243.26169 
L 410.521492 245.856893 
L 407.482742 249.525502 
L 405.882182 251.229563 
L 401.922285 256.376619 
L 401.707443 256.602233 
L 400.550199 261.974904 
z
" clip-path="url(#pa20135e71b)" style="fill: #e8f2e8; fill-opacity: 0.5"/>
    <path d="M 34.932124 552.169397 
L 36.508357 552.099093 
L 40.492581 551.998003 
L 46.053038 550.920539 
L 51.613495 548.993694 
L 55.597503 546.726423 
L 57.173952 546.137019 
L 62.734409 543.28858 
L 65.410487 541.353753 
L 68.294866 539.83246 
L 73.337704 535.981083 
L 73.855323 535.671781 
L 79.41578 531.724648 
L 80.72804 530.608413 
L 84.976237 527.504017 
L 87.556742 525.235742 
L 90.536694 522.840775 
L 93.827288 519.863072 
L 96.097151 517.87393 
L 99.748196 514.490402 
L 101.657608 512.687955 
L 105.447249 509.117732 
L 107.218065 507.347533 
L 111.017972 503.745062 
L 112.778522 501.923753 
L 116.549984 498.372391 
L 118.338979 496.510894 
L 122.147993 492.999721 
L 123.899436 491.221025 
L 127.93027 487.627051 
L 129.459893 486.146423 
L 133.989597 482.254381 
L 135.02035 481.31104 
L 140.324667 476.881711 
L 140.580807 476.657472 
L 146.141264 472.249331 
L 147.062022 471.509041 
L 151.701721 467.803149 
L 153.731305 466.13637 
L 157.262178 463.201087 
L 160.159658 460.7637 
L 162.822635 458.445769 
L 166.372998 455.39103 
L 168.383092 453.559361 
L 172.41957 450.01836 
L 173.943549 448.568628 
L 178.340538 444.64569 
L 179.504006 443.493284 
L 184.15617 439.273019 
L 185.064463 438.33702 
L 189.862136 433.900349 
L 190.62492 433.081419 
L 195.432275 428.527679 
L 196.185377 427.682841 
L 200.824391 423.155009 
L 201.745834 422.070855 
L 205.983999 417.782339 
L 207.306291 416.143211 
L 210.840928 412.409669 
L 212.866748 409.746294 
L 215.298854 407.036998 
L 218.427205 402.624084 
L 219.229534 401.664328 
L 222.914508 396.291658 
L 223.987662 394.235613 
L 226.08581 390.918988 
L 228.64912 385.546318 
L 229.548119 382.955762 
L 230.734575 380.173648 
L 232.204898 374.800977 
L 232.715522 369.428307 
L 232.400976 364.055637 
L 231.964819 358.682967 
L 231.981092 353.310297 
L 232.571711 347.937626 
L 233.708203 342.564956 
L 235.108576 338.111041 
L 235.430055 337.192286 
L 237.831588 331.819616 
L 240.592573 326.446946 
L 240.669033 326.30539 
L 243.6534 321.074276 
L 246.22949 316.742888 
L 246.883984 315.701605 
L 249.632326 310.328935 
L 251.789947 304.956265 
L 246.22949 300.623303 
L 242.444364 299.583595 
L 240.669033 299.17989 
L 235.108576 297.667775 
L 229.548119 297.625611 
L 223.987662 298.782458 
L 221.59853 299.583595 
L 218.427205 300.594754 
L 212.866748 302.428809 
L 207.306291 304.249411 
L 205.175554 304.956265 
L 201.745834 305.999774 
L 196.185377 307.744318 
L 190.62492 309.82497 
L 189.502718 310.328935 
L 185.064463 312.075924 
L 179.504006 314.639569 
L 177.475941 315.701605 
L 173.943549 317.364819 
L 168.383092 320.336768 
L 167.134371 321.074276 
L 162.822635 323.408843 
L 157.920167 326.446946 
L 157.262178 326.82281 
L 151.701721 330.340378 
L 149.579551 331.819616 
L 146.141264 334.043622 
L 141.699952 337.192286 
L 140.580807 337.924305 
L 135.02035 341.819562 
L 133.99906 342.564956 
L 129.459893 345.671228 
L 126.358835 347.937626 
L 123.899436 349.632593 
L 118.974209 353.310297 
L 118.338979 353.76396 
L 112.778522 358.043087 
L 112.002608 358.682967 
L 107.218065 362.652591 
L 105.666327 364.055637 
L 101.657608 367.830125 
L 100.078887 369.428307 
L 96.097151 373.787272 
L 95.213525 374.800977 
L 90.940198 380.173648 
L 90.536694 380.711298 
L 86.972176 385.546318 
L 84.976237 388.656303 
L 83.487492 390.918988 
L 80.201186 396.291658 
L 79.41578 397.592212 
L 76.801378 401.664328 
L 73.90028 407.036998 
L 73.855323 407.112575 
L 70.400044 412.409669 
L 68.294866 416.314477 
L 67.386138 417.782339 
L 64.147505 423.155009 
L 62.734409 425.839408 
L 61.054931 428.527679 
L 58.112767 433.900349 
L 57.173952 435.813551 
L 55.073033 439.273019 
L 52.399149 444.64569 
L 51.613495 446.418999 
L 49.542606 450.01836 
L 47.038928 455.39103 
L 46.053038 457.876703 
L 44.486301 460.7637 
L 42.040749 466.13637 
L 40.492581 470.602987 
L 40.036725 471.509041 
L 37.616644 476.881711 
L 35.880212 482.254381 
L 34.932124 486.020441 
L 34.304389 487.627051 
L 32.548896 492.999721 
L 31.188104 498.372391 
L 30.077604 503.745062 
L 29.371667 507.638583 
L 28.932198 509.117732 
L 27.433612 514.490402 
L 26.237286 519.863072 
L 25.335812 525.235742 
L 24.729874 530.608413 
L 24.477177 535.981083 
L 24.812534 541.353753 
L 26.534798 546.726423 
L 29.371667 550.02985 
L 34.69549 552.099093 
z
M 39.516106 541.353753 
L 34.954043 535.981083 
L 34.932124 535.883944 
L 33.887196 530.608413 
L 33.997321 525.235742 
L 34.826661 519.863072 
L 34.932124 519.426455 
L 35.712128 514.490402 
L 36.806119 509.117732 
L 38.163259 503.745062 
L 39.79824 498.372391 
L 40.492581 496.244433 
L 41.235771 492.999721 
L 42.616724 487.627051 
L 44.319615 482.254381 
L 46.053038 477.90202 
L 46.353372 476.881711 
L 48.182516 471.509041 
L 50.609153 466.13637 
L 51.613495 464.243351 
L 53.056356 460.7637 
L 55.792544 455.39103 
L 57.173952 453.047062 
L 58.649288 450.01836 
L 61.76766 444.64569 
L 62.734409 443.119118 
L 64.846864 439.273019 
L 68.294866 434.131774 
L 68.437023 433.900349 
L 71.757122 428.527679 
L 73.855323 425.578329 
L 75.499629 423.155009 
L 79.41578 417.963158 
L 79.552704 417.782339 
L 83.529394 412.409669 
L 84.976237 410.561419 
L 87.84087 407.036998 
L 90.536694 403.804869 
L 92.480167 401.664328 
L 96.097151 397.63649 
L 97.472454 396.291658 
L 101.657608 392.017541 
L 102.93366 390.918988 
L 107.218065 386.959324 
L 109.091992 385.546318 
L 112.778522 382.495743 
L 116.284325 380.173648 
L 118.338979 378.656167 
L 123.899436 375.343783 
L 125.035629 374.800977 
L 129.459893 372.358756 
L 135.02035 369.851211 
L 136.177102 369.428307 
L 140.580807 367.546463 
L 146.141264 365.586995 
L 151.503477 364.055637 
L 151.701721 363.989813 
L 157.262178 362.554675 
L 162.822635 361.390046 
L 168.383092 360.559004 
L 173.943549 360.226172 
L 179.504006 360.703124 
L 185.064463 362.583064 
L 187.075015 364.055637 
L 190.62492 368.733741 
L 190.948316 369.428307 
L 192.660584 374.800977 
L 193.685291 380.173648 
L 193.901068 385.546318 
L 193.244877 390.918988 
L 191.799702 396.291658 
L 190.62492 399.155994 
L 189.725251 401.664328 
L 187.211389 407.036998 
L 185.064463 410.690924 
L 184.151108 412.409669 
L 180.729364 417.782339 
L 179.504006 419.43792 
L 176.938161 423.155009 
L 173.943549 426.912001 
L 172.725464 428.527679 
L 168.383092 433.629631 
L 168.16409 433.900349 
L 163.403462 439.273019 
L 162.822635 439.879816 
L 158.432137 444.64569 
L 157.262178 445.817948 
L 153.294687 450.01836 
L 151.701721 451.56569 
L 148.092803 455.39103 
L 146.141264 457.260924 
L 142.935271 460.7637 
L 140.580807 463.03861 
L 137.895503 466.13637 
L 135.02035 468.993805 
L 132.974946 471.509041 
L 129.459893 475.136847 
L 128.116046 476.881711 
L 123.899436 481.383265 
L 123.247767 482.254381 
L 118.338979 487.598608 
L 118.317618 487.627051 
L 113.747291 492.999721 
L 112.778522 493.973729 
L 108.960034 498.372391 
L 107.218065 500.115747 
L 103.903229 503.745062 
L 101.657608 505.952063 
L 98.548659 509.117732 
L 96.097151 511.459526 
L 92.844814 514.490402 
L 90.536694 516.617403 
L 86.686786 519.863072 
L 84.976237 521.37546 
L 79.871519 525.235742 
L 79.41578 525.620741 
L 73.855323 529.834953 
L 72.550761 530.608413 
L 68.294866 533.712078 
L 63.861833 535.981083 
L 62.734409 536.742267 
L 57.173952 539.584383 
L 51.613495 541.353753 
L 51.613495 541.353753 
L 46.053038 542.578965 
L 40.492581 541.90026 
z
" clip-path="url(#pa20135e71b)" style="fill: #deedde; fill-opacity: 0.5"/>
    <path d="M 40.492581 541.90026 
L 46.053038 542.578965 
L 51.613495 541.353753 
L 51.613495 541.353753 
L 57.173952 539.584383 
L 62.734409 536.742267 
L 63.861833 535.981083 
L 68.294866 533.712078 
L 72.550761 530.608413 
L 73.855323 529.834953 
L 79.41578 525.620741 
L 79.871519 525.235742 
L 84.976237 521.37546 
L 86.686786 519.863072 
L 90.536694 516.617403 
L 92.844814 514.490402 
L 96.097151 511.459526 
L 98.548659 509.117732 
L 101.657608 505.952063 
L 103.903229 503.745062 
L 107.218065 500.115747 
L 108.960034 498.372391 
L 112.778522 493.973729 
L 113.747291 492.999721 
L 118.317618 487.627051 
L 118.338979 487.598608 
L 123.247767 482.254381 
L 123.899436 481.383265 
L 128.116046 476.881711 
L 129.459893 475.136847 
L 132.974946 471.509041 
L 135.02035 468.993805 
L 137.895503 466.13637 
L 140.580807 463.03861 
L 142.935271 460.7637 
L 146.141264 457.260924 
L 148.092803 455.39103 
L 151.701721 451.56569 
L 153.294687 450.01836 
L 157.262178 445.817948 
L 158.432137 444.64569 
L 162.822635 439.879816 
L 163.403462 439.273019 
L 168.16409 433.900349 
L 168.383092 433.629631 
L 172.725464 428.527679 
L 173.943549 426.912001 
L 176.938161 423.155009 
L 179.504006 419.43792 
L 180.729364 417.782339 
L 184.151108 412.409669 
L 185.064463 410.690924 
L 187.211389 407.036998 
L 189.725251 401.664328 
L 190.62492 399.155994 
L 191.799702 396.291658 
L 193.244877 390.918988 
L 193.901068 385.546318 
L 193.685291 380.173648 
L 192.660584 374.800977 
L 190.948316 369.428307 
L 190.62492 368.733741 
L 187.075015 364.055637 
L 185.064463 362.583064 
L 179.504006 360.703124 
L 173.943549 360.226172 
L 168.383092 360.559004 
L 162.822635 361.390046 
L 157.262178 362.554675 
L 151.701721 363.989813 
L 151.503477 364.055637 
L 146.141264 365.586995 
L 140.580807 367.546463 
L 136.177102 369.428307 
L 135.02035 369.851211 
L 129.459893 372.358756 
L 125.035629 374.800977 
L 123.899436 375.343783 
L 118.338979 378.656167 
L 116.284325 380.173648 
L 112.778522 382.495743 
L 109.091992 385.546318 
L 107.218065 386.959324 
L 102.93366 390.918988 
L 101.657608 392.017541 
L 97.472454 396.291658 
L 96.097151 397.63649 
L 92.480167 401.664328 
L 90.536694 403.804869 
L 87.84087 407.036998 
L 84.976237 410.561419 
L 83.529394 412.409669 
L 79.552704 417.782339 
L 79.41578 417.963158 
L 75.499629 423.155009 
L 73.855323 425.578329 
L 71.757122 428.527679 
L 68.437023 433.900349 
L 68.294866 434.131774 
L 64.846864 439.273019 
L 62.734409 443.119118 
L 61.76766 444.64569 
L 58.649288 450.01836 
L 57.173952 453.047062 
L 55.792544 455.39103 
L 53.056356 460.7637 
L 51.613495 464.243351 
L 50.609153 466.13637 
L 48.182516 471.509041 
L 46.353372 476.881711 
L 46.053038 477.90202 
L 44.319615 482.254381 
L 42.616724 487.627051 
L 41.235771 492.999721 
L 40.492581 496.244433 
L 39.79824 498.372391 
L 38.163259 503.745062 
L 36.806119 509.117732 
L 35.712128 514.490402 
L 34.932124 519.426455 
L 34.826661 519.863072 
L 33.997321 525.235742 
L 33.887196 530.608413 
L 34.932124 535.883944 
L 34.954043 535.981083 
L 39.516106 541.353753 
z
M 42.234171 530.608413 
L 40.87473 525.235742 
L 40.955053 519.863072 
L 41.623831 514.490402 
L 42.673388 509.117732 
L 44.068347 503.745062 
L 45.814247 498.372391 
L 46.053038 497.673077 
L 47.263929 492.999721 
L 48.845799 487.627051 
L 50.702733 482.254381 
L 51.613495 479.907809 
L 52.551943 476.881711 
L 54.507107 471.509041 
L 57.007088 466.13637 
L 57.173952 465.81732 
L 59.385752 460.7637 
L 62.362608 455.39103 
L 62.734409 454.775053 
L 65.272395 450.01836 
L 68.294866 445.347585 
L 68.721144 444.64569 
L 72.131705 439.273019 
L 73.855323 436.843494 
L 75.90261 433.900349 
L 79.41578 429.298067 
L 80.024983 428.527679 
L 84.348563 423.155009 
L 84.976237 422.38852 
L 89.026367 417.782339 
L 90.536694 416.080747 
L 94.222614 412.409669 
L 96.097151 410.481702 
L 100.085309 407.036998 
L 101.657608 405.580024 
L 106.942188 401.664328 
L 107.218065 401.437467 
L 112.778522 397.828504 
L 116.089219 396.291658 
L 118.338979 395.058829 
L 123.899436 392.966222 
L 129.459893 391.600359 
L 133.777988 390.918988 
L 135.02035 390.68158 
L 140.580807 389.971489 
L 146.141264 389.552482 
L 151.701721 389.665562 
L 157.262178 390.840587 
L 157.443931 390.918988 
L 162.822635 394.142627 
L 164.940968 396.291658 
L 167.747671 401.664328 
L 167.794445 407.036998 
L 166.196422 412.409669 
L 163.636937 417.782339 
L 162.822635 419.037156 
L 160.43621 423.155009 
L 157.262178 427.649783 
L 156.713878 428.527679 
L 152.811592 433.900349 
L 151.701721 435.250514 
L 148.80422 439.273019 
L 146.141264 442.541081 
L 144.684353 444.64569 
L 140.580807 449.888697 
L 140.497329 450.01836 
L 136.745882 455.39103 
L 135.02035 457.514042 
L 132.93155 460.7637 
L 129.459893 465.275487 
L 128.942698 466.13637 
L 125.204988 471.509041 
L 123.899436 473.068993 
L 121.391606 476.881711 
L 118.338979 480.587192 
L 117.232805 482.254381 
L 112.778522 487.627051 
L 112.778522 487.627051 
L 108.592762 492.999721 
L 107.218065 494.473559 
L 103.976743 498.372391 
L 101.657608 500.78236 
L 98.970386 503.745062 
L 96.097151 506.606535 
L 93.570332 509.117732 
L 90.536694 511.98862 
L 87.708864 514.490402 
L 84.976237 516.931675 
L 81.218123 519.863072 
L 79.41578 521.374994 
L 73.855323 525.186631 
L 73.769862 525.235742 
L 68.294866 528.966885 
L 64.863526 530.608413 
L 62.734409 531.903116 
L 57.173952 534.137706 
L 51.613495 535.23454 
L 46.053038 534.428779 
z
" clip-path="url(#pa20135e71b)" style="fill: #cce4cc; fill-opacity: 0.5"/>
    <path d="M 46.053038 534.428779 
L 51.613495 535.23454 
L 57.173952 534.137706 
L 62.734409 531.903116 
L 64.863526 530.608413 
L 68.294866 528.966885 
L 73.769862 525.235742 
L 73.855323 525.186631 
L 79.41578 521.374994 
L 81.218123 519.863072 
L 84.976237 516.931675 
L 87.708864 514.490402 
L 90.536694 511.98862 
L 93.570332 509.117732 
L 96.097151 506.606535 
L 98.970386 503.745062 
L 101.657608 500.78236 
L 103.976743 498.372391 
L 107.218065 494.473559 
L 108.592762 492.999721 
L 112.778522 487.627051 
L 112.778522 487.627051 
L 117.232805 482.254381 
L 118.338979 480.587192 
L 121.391606 476.881711 
L 123.899436 473.068993 
L 125.204988 471.509041 
L 128.942698 466.13637 
L 129.459893 465.275487 
L 132.93155 460.7637 
L 135.02035 457.514042 
L 136.745882 455.39103 
L 140.497329 450.01836 
L 140.580807 449.888697 
L 144.684353 444.64569 
L 146.141264 442.541081 
L 148.80422 439.273019 
L 151.701721 435.250514 
L 152.811592 433.900349 
L 156.713878 428.527679 
L 157.262178 427.649783 
L 160.43621 423.155009 
L 162.822635 419.037156 
L 163.636937 417.782339 
L 166.196422 412.409669 
L 167.794445 407.036998 
L 167.747671 401.664328 
L 164.940968 396.291658 
L 162.822635 394.142627 
L 157.443931 390.918988 
L 157.262178 390.840587 
L 151.701721 389.665562 
L 146.141264 389.552482 
L 140.580807 389.971489 
L 135.02035 390.68158 
L 133.777988 390.918988 
L 129.459893 391.600359 
L 123.899436 392.966222 
L 118.338979 395.058829 
L 116.089219 396.291658 
L 112.778522 397.828504 
L 107.218065 401.437467 
L 106.942188 401.664328 
L 101.657608 405.580024 
L 100.085309 407.036998 
L 96.097151 410.481702 
L 94.222614 412.409669 
L 90.536694 416.080747 
L 89.026367 417.782339 
L 84.976237 422.38852 
L 84.348563 423.155009 
L 80.024983 428.527679 
L 79.41578 429.298067 
L 75.90261 433.900349 
L 73.855323 436.843494 
L 72.131705 439.273019 
L 68.721144 444.64569 
L 68.294866 445.347585 
L 65.272395 450.01836 
L 62.734409 454.775053 
L 62.362608 455.39103 
L 59.385752 460.7637 
L 57.173952 465.81732 
L 57.007088 466.13637 
L 54.507107 471.509041 
L 52.551943 476.881711 
L 51.613495 479.907809 
L 50.702733 482.254381 
L 48.845799 487.627051 
L 47.263929 492.999721 
L 46.053038 497.673077 
L 45.814247 498.372391 
L 44.068347 503.745062 
L 42.673388 509.117732 
L 41.623831 514.490402 
L 40.955053 519.863072 
L 40.87473 525.235742 
L 42.234171 530.608413 
z
M 47.774198 525.235742 
L 46.433201 519.863072 
L 46.660481 514.490402 
L 47.506793 509.117732 
L 48.759806 503.745062 
L 50.388068 498.372391 
L 51.613495 494.924986 
L 52.176082 492.999721 
L 53.845564 487.627051 
L 55.760293 482.254381 
L 57.173952 478.680764 
L 57.792749 476.881711 
L 59.805392 471.509041 
L 62.243948 466.13637 
L 62.734409 465.182521 
L 64.785313 460.7637 
L 67.770382 455.39103 
L 68.294866 454.537917 
L 70.934632 450.01836 
L 73.855323 445.673417 
L 74.553902 444.64569 
L 78.396929 439.273019 
L 79.41578 437.928736 
L 82.636447 433.900349 
L 84.976237 431.087969 
L 87.355996 428.527679 
L 90.536694 425.091215 
L 92.656742 423.155009 
L 96.097151 419.869884 
L 98.835435 417.782339 
L 101.657608 415.449107 
L 106.530086 412.409669 
L 107.218065 411.92874 
L 112.778522 409.187225 
L 118.338979 407.434024 
L 120.843129 407.036998 
L 123.899436 406.471576 
L 129.459893 406.306614 
L 135.02035 407.036998 
L 135.02035 407.036998 
L 140.580807 409.537093 
L 143.803511 412.409669 
L 146.110861 417.782339 
L 145.729225 423.155009 
L 143.910147 428.527679 
L 141.334371 433.900349 
L 140.580807 435.115024 
L 138.433004 439.273019 
L 135.298653 444.64569 
L 135.02035 445.065043 
L 132.337938 450.01836 
L 129.459893 454.788174 
L 129.165868 455.39103 
L 126.262737 460.7637 
L 123.899436 464.465384 
L 123.051213 466.13637 
L 119.873214 471.509041 
L 118.338979 473.635124 
L 116.455509 476.881711 
L 112.778522 481.939769 
L 112.587614 482.254381 
L 108.819661 487.627051 
L 107.218065 489.506606 
L 104.602283 492.999721 
L 101.657608 496.30274 
L 99.942028 498.372391 
L 96.097151 502.436592 
L 94.872482 503.745062 
L 90.536694 508.015773 
L 89.353803 509.117732 
L 84.976237 513.098644 
L 83.240684 514.490402 
L 79.41578 517.675509 
L 76.210726 519.863072 
L 73.855323 521.644916 
L 68.294866 524.875626 
L 67.423597 525.235742 
L 62.734409 527.612346 
L 57.173952 529.11217 
L 51.613495 528.731383 
z
" clip-path="url(#pa20135e71b)" style="fill: #b7dab7; fill-opacity: 0.5"/>
    <path d="M 51.613495 528.731383 
L 57.173952 529.11217 
L 62.734409 527.612346 
L 67.423597 525.235742 
L 68.294866 524.875626 
L 73.855323 521.644916 
L 76.210726 519.863072 
L 79.41578 517.675509 
L 83.240684 514.490402 
L 84.976237 513.098644 
L 89.353803 509.117732 
L 90.536694 508.015773 
L 94.872482 503.745062 
L 96.097151 502.436592 
L 99.942028 498.372391 
L 101.657608 496.30274 
L 104.602283 492.999721 
L 107.218065 489.506606 
L 108.819661 487.627051 
L 112.587614 482.254381 
L 112.778522 481.939769 
L 116.455509 476.881711 
L 118.338979 473.635124 
L 119.873214 471.509041 
L 123.051213 466.13637 
L 123.899436 464.465384 
L 126.262737 460.7637 
L 129.165868 455.39103 
L 129.459893 454.788174 
L 132.337938 450.01836 
L 135.02035 445.065043 
L 135.298653 444.64569 
L 138.433004 439.273019 
L 140.580807 435.115024 
L 141.334371 433.900349 
L 143.910147 428.527679 
L 145.729225 423.155009 
L 146.110861 417.782339 
L 143.803511 412.409669 
L 140.580807 409.537093 
L 135.02035 407.036998 
L 135.02035 407.036998 
L 129.459893 406.306614 
L 123.899436 406.471576 
L 120.843129 407.036998 
L 118.338979 407.434024 
L 112.778522 409.187225 
L 107.218065 411.92874 
L 106.530086 412.409669 
L 101.657608 415.449107 
L 98.835435 417.782339 
L 96.097151 419.869884 
L 92.656742 423.155009 
L 90.536694 425.091215 
L 87.355996 428.527679 
L 84.976237 431.087969 
L 82.636447 433.900349 
L 79.41578 437.928736 
L 78.396929 439.273019 
L 74.553902 444.64569 
L 73.855323 445.673417 
L 70.934632 450.01836 
L 68.294866 454.537917 
L 67.770382 455.39103 
L 64.785313 460.7637 
L 62.734409 465.182521 
L 62.243948 466.13637 
L 59.805392 471.509041 
L 57.792749 476.881711 
L 57.173952 478.680764 
L 55.760293 482.254381 
L 53.845564 487.627051 
L 52.176082 492.999721 
L 51.613495 494.924986 
L 50.388068 498.372391 
L 48.759806 503.745062 
L 47.506793 509.117732 
L 46.660481 514.490402 
L 46.433201 519.863072 
L 47.774198 525.235742 
z
M 52.945712 519.863072 
L 51.744681 514.490402 
L 52.203722 509.117732 
L 53.278219 503.745062 
L 54.765353 498.372391 
L 56.643852 492.999721 
L 57.173952 491.620398 
L 58.538849 487.627051 
L 60.55062 482.254381 
L 62.734409 477.07954 
L 62.813925 476.881711 
L 64.991524 471.509041 
L 67.49082 466.13637 
L 68.294866 464.576092 
L 70.229196 460.7637 
L 73.315087 455.39103 
L 73.855323 454.534989 
L 76.792856 450.01836 
L 79.41578 446.327591 
L 80.732234 444.64569 
L 84.976237 439.42638 
L 85.1231 439.273019 
L 90.217979 433.900349 
L 90.536694 433.561313 
L 96.097151 428.698454 
L 96.361052 428.527679 
L 101.657608 424.814917 
L 105.095226 423.155009 
L 107.218065 422.015233 
L 112.778522 420.416339 
L 118.338979 420.171993 
L 123.899436 421.804145 
L 125.794811 423.155009 
L 129.113684 428.527679 
L 129.459893 433.900349 
L 128.430883 439.273019 
L 126.771594 444.64569 
L 124.768212 450.01836 
L 123.899436 451.918809 
L 122.579054 455.39103 
L 120.294106 460.7637 
L 118.338979 464.648687 
L 117.717535 466.13637 
L 115.059795 471.509041 
L 112.778522 475.248561 
L 111.938914 476.881711 
L 108.628201 482.254381 
L 107.218065 484.127311 
L 104.908978 487.627051 
L 101.657608 491.696263 
L 100.691298 492.999721 
L 96.097151 498.30832 
L 96.042319 498.372391 
L 91.001906 503.745062 
L 90.536694 504.203292 
L 85.261316 509.117732 
L 84.976237 509.37698 
L 79.41578 513.931201 
L 78.579154 514.490402 
L 73.855323 517.873241 
L 70.118066 519.863072 
L 68.294866 520.974531 
L 62.734409 523.002273 
L 57.173952 523.226395 
z
" clip-path="url(#pa20135e71b)" style="fill: #9dcd9d; fill-opacity: 0.5"/>
    <path d="M 57.173952 523.226395 
L 62.734409 523.002273 
L 68.294866 520.974531 
L 70.118066 519.863072 
L 73.855323 517.873241 
L 78.579154 514.490402 
L 79.41578 513.931201 
L 84.976237 509.37698 
L 85.261316 509.117732 
L 90.536694 504.203292 
L 91.001906 503.745062 
L 96.042319 498.372391 
L 96.097151 498.30832 
L 100.691298 492.999721 
L 101.657608 491.696263 
L 104.908978 487.627051 
L 107.218065 484.127311 
L 108.628201 482.254381 
L 111.938914 476.881711 
L 112.778522 475.248561 
L 115.059795 471.509041 
L 117.717535 466.13637 
L 118.338979 464.648687 
L 120.294106 460.7637 
L 122.579054 455.39103 
L 123.899436 451.918809 
L 124.768212 450.01836 
L 126.771594 444.64569 
L 128.430883 439.273019 
L 129.459893 433.900349 
L 129.113684 428.527679 
L 125.794811 423.155009 
L 123.899436 421.804145 
L 118.338979 420.171993 
L 112.778522 420.416339 
L 107.218065 422.015233 
L 105.095226 423.155009 
L 101.657608 424.814917 
L 96.361052 428.527679 
L 96.097151 428.698454 
L 90.536694 433.561313 
L 90.217979 433.900349 
L 85.1231 439.273019 
L 84.976237 439.42638 
L 80.732234 444.64569 
L 79.41578 446.327591 
L 76.792856 450.01836 
L 73.855323 454.534989 
L 73.315087 455.39103 
L 70.229196 460.7637 
L 68.294866 464.576092 
L 67.49082 466.13637 
L 64.991524 471.509041 
L 62.813925 476.881711 
L 62.734409 477.07954 
L 60.55062 482.254381 
L 58.538849 487.627051 
L 57.173952 491.620398 
L 56.643852 492.999721 
L 54.765353 498.372391 
L 53.278219 503.745062 
L 52.203722 509.117732 
L 51.744681 514.490402 
L 52.945712 519.863072 
z
M 57.949306 514.490402 
L 57.173952 510.765851 
L 56.996579 509.117732 
L 57.173952 507.928882 
L 57.743483 503.745062 
L 59.105068 498.372391 
L 60.873931 492.999721 
L 62.734409 488.340168 
L 63.01245 487.627051 
L 65.209582 482.254381 
L 67.638968 476.881711 
L 68.294866 475.471345 
L 70.199379 471.509041 
L 72.947449 466.13637 
L 73.855323 464.458218 
L 76.037568 460.7637 
L 79.41578 455.39103 
L 79.41578 455.39103 
L 83.499907 450.01836 
L 84.976237 448.141482 
L 88.350513 444.64569 
L 90.536694 442.35799 
L 94.457775 439.273019 
L 96.097151 437.920153 
L 101.657608 434.914538 
L 105.961771 433.900349 
L 107.218065 433.572394 
L 109.146313 433.900349 
L 112.778522 434.946165 
L 116.107781 439.273019 
L 117.183893 444.64569 
L 116.829032 450.01836 
L 115.810119 455.39103 
L 114.387607 460.7637 
L 112.778522 465.377131 
L 112.542697 466.13637 
L 110.342485 471.509041 
L 107.703718 476.881711 
L 107.218065 477.651222 
L 104.646581 482.254381 
L 101.657608 486.665963 
L 101.045993 487.627051 
L 97.040468 492.999721 
L 96.097151 494.089737 
L 92.432101 498.372391 
L 90.536694 500.360172 
L 87.116189 503.745062 
L 84.976237 505.751234 
L 80.877434 509.117732 
L 79.41578 510.324797 
L 73.855323 514.011294 
L 72.770566 514.490402 
L 68.294866 516.676492 
L 62.734409 517.597424 
z
" clip-path="url(#pa20135e71b)" style="fill: #7fbe7f; fill-opacity: 0.5"/>
    <path d="M 62.734409 517.597424 
L 68.294866 516.676492 
L 72.770566 514.490402 
L 73.855323 514.011294 
L 79.41578 510.324797 
L 80.877434 509.117732 
L 84.976237 505.751234 
L 87.116189 503.745062 
L 90.536694 500.360172 
L 92.432101 498.372391 
L 96.097151 494.089737 
L 97.040468 492.999721 
L 101.045993 487.627051 
L 101.657608 486.665963 
L 104.646581 482.254381 
L 107.218065 477.651222 
L 107.703718 476.881711 
L 110.342485 471.509041 
L 112.542697 466.13637 
L 112.778522 465.377131 
L 114.387607 460.7637 
L 115.810119 455.39103 
L 116.829032 450.01836 
L 117.183893 444.64569 
L 116.107781 439.273019 
L 112.778522 434.946165 
L 109.146313 433.900349 
L 107.218065 433.572394 
L 105.961771 433.900349 
L 101.657608 434.914538 
L 96.097151 437.920153 
L 94.457775 439.273019 
L 90.536694 442.35799 
L 88.350513 444.64569 
L 84.976237 448.141482 
L 83.499907 450.01836 
L 79.41578 455.39103 
L 79.41578 455.39103 
L 76.037568 460.7637 
L 73.855323 464.458218 
L 72.947449 466.13637 
L 70.199379 471.509041 
L 68.294866 475.471345 
L 67.638968 476.881711 
L 65.209582 482.254381 
L 63.01245 487.627051 
L 62.734409 488.340168 
L 60.873931 492.999721 
L 59.105068 498.372391 
L 57.743483 503.745062 
L 57.173952 507.928882 
L 56.996579 509.117732 
L 57.173952 510.765851 
L 57.949306 514.490402 
z
M 62.734409 509.117732 
L 62.734409 509.117732 
L 62.289516 503.745062 
L 62.734409 501.493753 
L 63.35792 498.372391 
L 65.089432 492.999721 
L 67.20729 487.627051 
L 68.294866 485.213376 
L 69.726017 482.254381 
L 72.439399 476.881711 
L 73.855323 474.185546 
L 75.48928 471.509041 
L 78.758419 466.13637 
L 79.41578 465.059421 
L 82.681521 460.7637 
L 84.976237 457.686286 
L 87.378296 455.39103 
L 90.536694 452.176263 
L 94.051999 450.01836 
L 96.097151 448.634161 
L 101.657608 447.64271 
L 105.445721 450.01836 
L 107.218065 452.674368 
L 107.878237 455.39103 
L 107.985006 460.7637 
L 107.218065 466.104486 
L 107.213484 466.13637 
L 105.573702 471.509041 
L 103.473174 476.881711 
L 101.657608 480.369881 
L 100.707041 482.254381 
L 97.385575 487.627051 
L 96.097151 489.340891 
L 93.331352 492.999721 
L 90.536694 496.252167 
L 88.558988 498.372391 
L 84.976237 501.918231 
L 82.792518 503.745062 
L 79.41578 506.501464 
L 75.232467 509.117732 
L 73.855323 510.010704 
L 68.294866 511.704999 
z
" clip-path="url(#pa20135e71b)" style="fill: #5fae5f; fill-opacity: 0.5"/>
    <path d="M 68.294866 511.704999 
L 73.855323 510.010704 
L 75.232467 509.117732 
L 79.41578 506.501464 
L 82.792518 503.745062 
L 84.976237 501.918231 
L 88.558988 498.372391 
L 90.536694 496.252167 
L 93.331352 492.999721 
L 96.097151 489.340891 
L 97.385575 487.627051 
L 100.707041 482.254381 
L 101.657608 480.369881 
L 103.473174 476.881711 
L 105.573702 471.509041 
L 107.213484 466.13637 
L 107.218065 466.104486 
L 107.985006 460.7637 
L 107.878237 455.39103 
L 107.218065 452.674368 
L 105.445721 450.01836 
L 101.657608 447.64271 
L 96.097151 448.634161 
L 94.051999 450.01836 
L 90.536694 452.176263 
L 87.378296 455.39103 
L 84.976237 457.686286 
L 82.681521 460.7637 
L 79.41578 465.059421 
L 78.758419 466.13637 
L 75.48928 471.509041 
L 73.855323 474.185546 
L 72.439399 476.881711 
L 69.726017 482.254381 
L 68.294866 485.213376 
L 67.20729 487.627051 
L 65.089432 492.999721 
L 63.35792 498.372391 
L 62.734409 501.493753 
L 62.289516 503.745062 
L 62.734409 509.117732 
L 62.734409 509.117732 
z
M 69.746762 503.745062 
L 68.294866 498.372391 
L 69.882473 492.999721 
L 72.011914 487.627051 
L 73.855323 483.759303 
L 74.748832 482.254381 
L 78.045819 476.881711 
L 79.41578 474.679672 
L 82.129591 471.509041 
L 84.976237 467.939207 
L 87.430659 466.13637 
L 90.536694 463.512935 
L 96.097151 462.411742 
L 98.967858 466.13637 
L 99.471551 471.509041 
L 98.335116 476.881711 
L 96.324598 482.254381 
L 96.097151 482.639374 
L 93.004931 487.627051 
L 90.536694 491.101332 
L 88.977171 492.999721 
L 84.976237 497.404204 
L 83.824821 498.372391 
L 79.41578 501.885955 
L 75.760849 503.745062 
L 73.855323 504.715746 
z
" clip-path="url(#pa20135e71b)" style="fill: #3c9d3c; fill-opacity: 0.5"/>
    <path d="M 73.855323 504.715746 
L 75.760849 503.745062 
L 79.41578 501.885955 
L 83.824821 498.372391 
L 84.976237 497.404204 
L 88.977171 492.999721 
L 90.536694 491.101332 
L 93.004931 487.627051 
L 96.097151 482.639374 
L 96.324598 482.254381 
L 98.335116 476.881711 
L 99.471551 471.509041 
L 98.967858 466.13637 
L 96.097151 462.411742 
L 90.536694 463.512935 
L 87.430659 466.13637 
L 84.976237 467.939207 
L 82.129591 471.509041 
L 79.41578 474.679672 
L 78.045819 476.881711 
L 74.748832 482.254381 
L 73.855323 483.759303 
L 72.011914 487.627051 
L 69.882473 492.999721 
L 68.294866 498.372391 
L 69.746762 503.745062 
z
" clip-path="url(#pa20135e71b)" style="fill: #158a15; fill-opacity: 0.5"/>
   </g>
   <g id="matplotlib.axis_1">
    <g id="xtick_1">
     <g id="line2d_1">
      <defs>
       <path id="m52592d865a" d="M 0 0 
L 0 3.5 
" style="stroke: #000000; stroke-width: 0.8"/>
      </defs>
      <g>
       <use xlink:href="#m52592d865a" x="130.598202" y="534.04" style="stroke: #000000; stroke-width: 0.8"/>
      </g>
     </g>
     <g id="text_1">
      <!-- 0.5 -->
      <g transform="translate(122.64664 548.638438) scale(0.1 -0.1)">
       <defs>
        <path id="DejaVuSans-30" d="M 2034 4250 
Q 1547 4250 1301 3770 
Q 1056 3291 1056 2328 
Q 1056 1369 1301 889 
Q 1547 409 2034 409 
Q 2525 409 2770 889 
Q 3016 1369 3016 2328 
Q 3016 3291 2770 3770 
Q 2525 4250 2034 4250 
z
M 2034 4750 
Q 2819 4750 3233 4129 
Q 3647 3509 3647 2328 
Q 3647 1150 3233 529 
Q 2819 -91 2034 -91 
Q 1250 -91 836 529 
Q 422 1150 422 2328 
Q 422 3509 836 4129 
Q 1250 4750 2034 4750 
z
" transform="scale(0.015625)"/>
        <path id="DejaVuSans-2e" d="M 684 794 
L 1344 794 
L 1344 0 
L 684 0 
L 684 794 
z
" transform="scale(0.015625)"/>
        <path id="DejaVuSans-35" d="M 691 4666 
L 3169 4666 
L 3169 4134 
L 1269 4134 
L 1269 2991 
Q 1406 3038 1543 3061 
Q 1681 3084 1819 3084 
Q 2600 3084 3056 2656 
Q 3513 2228 3513 1497 
Q 3513 744 3044 326 
Q 2575 -91 1722 -91 
Q 1428 -91 1123 -41 
Q 819 9 494 109 
L 494 744 
Q 775 591 1075 516 
Q 1375 441 1709 441 
Q 2250 441 2565 725 
Q 2881 1009 2881 1497 
Q 2881 1984 2565 2268 
Q 2250 2553 1709 2553 
Q 1456 2553 1204 2497 
Q 953 2441 691 2322 
L 691 4666 
z
" transform="scale(0.015625)"/>
       </defs>
       <use xlink:href="#DejaVuSans-30"/>
       <use xlink:href="#DejaVuSans-2e" x="63.623047"/>
       <use xlink:href="#DejaVuSans-35" x="95.410156"/>
      </g>
     </g>
    </g>
    <g id="xtick_2">
     <g id="line2d_2">
      <g>
       <use xlink:href="#m52592d865a" x="223.081716" y="534.04" style="stroke: #000000; stroke-width: 0.8"/>
      </g>
     </g>
     <g id="text_2">
      <!-- 1.0 -->
      <g transform="translate(215.130153 548.638438) scale(0.1 -0.1)">
       <defs>
        <path id="DejaVuSans-31" d="M 794 531 
L 1825 531 
L 1825 4091 
L 703 3866 
L 703 4441 
L 1819 4666 
L 2450 4666 
L 2450 531 
L 3481 531 
L 3481 0 
L 794 0 
L 794 531 
z
" transform="scale(0.015625)"/>
       </defs>
       <use xlink:href="#DejaVuSans-31"/>
       <use xlink:href="#DejaVuSans-2e" x="63.623047"/>
       <use xlink:href="#DejaVuSans-30" x="95.410156"/>
      </g>
     </g>
    </g>
    <g id="xtick_3">
     <g id="line2d_3">
      <g>
       <use xlink:href="#m52592d865a" x="315.565229" y="534.04" style="stroke: #000000; stroke-width: 0.8"/>
      </g>
     </g>
     <g id="text_3">
      <!-- 1.5 -->
      <g transform="translate(307.613667 548.638438) scale(0.1 -0.1)">
       <use xlink:href="#DejaVuSans-31"/>
       <use xlink:href="#DejaVuSans-2e" x="63.623047"/>
       <use xlink:href="#DejaVuSans-35" x="95.410156"/>
      </g>
     </g>
    </g>
    <g id="xtick_4">
     <g id="line2d_4">
      <g>
       <use xlink:href="#m52592d865a" x="408.048743" y="534.04" style="stroke: #000000; stroke-width: 0.8"/>
      </g>
     </g>
     <g id="text_4">
      <!-- 2.0 -->
      <g transform="translate(400.09718 548.638438) scale(0.1 -0.1)">
       <defs>
        <path id="DejaVuSans-32" d="M 1228 531 
L 3431 531 
L 3431 0 
L 469 0 
L 469 531 
Q 828 903 1448 1529 
Q 2069 2156 2228 2338 
Q 2531 2678 2651 2914 
Q 2772 3150 2772 3378 
Q 2772 3750 2511 3984 
Q 2250 4219 1831 4219 
Q 1534 4219 1204 4116 
Q 875 4013 500 3803 
L 500 4441 
Q 881 4594 1212 4672 
Q 1544 4750 1819 4750 
Q 2544 4750 2975 4387 
Q 3406 4025 3406 3419 
Q 3406 3131 3298 2873 
Q 3191 2616 2906 2266 
Q 2828 2175 2409 1742 
Q 1991 1309 1228 531 
z
" transform="scale(0.015625)"/>
       </defs>
       <use xlink:href="#DejaVuSans-32"/>
       <use xlink:href="#DejaVuSans-2e" x="63.623047"/>
       <use xlink:href="#DejaVuSans-30" x="95.410156"/>
      </g>
     </g>
    </g>
    <g id="xtick_5">
     <g id="line2d_5">
      <g>
       <use xlink:href="#m52592d865a" x="500.532256" y="534.04" style="stroke: #000000; stroke-width: 0.8"/>
      </g>
     </g>
     <g id="text_5">
      <!-- 2.5 -->
      <g transform="translate(492.580694 548.638438) scale(0.1 -0.1)">
       <use xlink:href="#DejaVuSans-32"/>
       <use xlink:href="#DejaVuSans-2e" x="63.623047"/>
       <use xlink:href="#DejaVuSans-35" x="95.410156"/>
      </g>
     </g>
    </g>
    <g id="xtick_6">
     <g id="line2d_6">
      <g>
       <use xlink:href="#m52592d865a" x="593.01577" y="534.04" style="stroke: #000000; stroke-width: 0.8"/>
      </g>
     </g>
     <g id="text_6">
      <!-- 3.0 -->
      <g transform="translate(585.064207 548.638438) scale(0.1 -0.1)">
       <defs>
        <path id="DejaVuSans-33" d="M 2597 2516 
Q 3050 2419 3304 2112 
Q 3559 1806 3559 1356 
Q 3559 666 3084 287 
Q 2609 -91 1734 -91 
Q 1441 -91 1130 -33 
Q 819 25 488 141 
L 488 750 
Q 750 597 1062 519 
Q 1375 441 1716 441 
Q 2309 441 2620 675 
Q 2931 909 2931 1356 
Q 2931 1769 2642 2001 
Q 2353 2234 1838 2234 
L 1294 2234 
L 1294 2753 
L 1863 2753 
Q 2328 2753 2575 2939 
Q 2822 3125 2822 3475 
Q 2822 3834 2567 4026 
Q 2313 4219 1838 4219 
Q 1578 4219 1281 4162 
Q 984 4106 628 3988 
L 628 4550 
Q 988 4650 1302 4700 
Q 1616 4750 1894 4750 
Q 2613 4750 3031 4423 
Q 3450 4097 3450 3541 
Q 3450 3153 3228 2886 
Q 3006 2619 2597 2516 
z
" transform="scale(0.015625)"/>
       </defs>
       <use xlink:href="#DejaVuSans-33"/>
       <use xlink:href="#DejaVuSans-2e" x="63.623047"/>
       <use xlink:href="#DejaVuSans-30" x="95.410156"/>
      </g>
     </g>
    </g>
    <g id="xtick_7">
     <g id="line2d_7">
      <g>
       <use xlink:href="#m52592d865a" x="685.499283" y="534.04" style="stroke: #000000; stroke-width: 0.8"/>
      </g>
     </g>
     <g id="text_7">
      <!-- 3.5 -->
      <g transform="translate(677.547721 548.638438) scale(0.1 -0.1)">
       <use xlink:href="#DejaVuSans-33"/>
       <use xlink:href="#DejaVuSans-2e" x="63.623047"/>
       <use xlink:href="#DejaVuSans-35" x="95.410156"/>
      </g>
     </g>
    </g>
    <g id="text_8">
     <!-- Energy Uncertainties -->
     <g transform="translate(326.087813 562.316563) scale(0.1 -0.1)">
      <defs>
       <path id="DejaVuSans-45" d="M 628 4666 
L 3578 4666 
L 3578 4134 
L 1259 4134 
L 1259 2753 
L 3481 2753 
L 3481 2222 
L 1259 2222 
L 1259 531 
L 3634 531 
L 3634 0 
L 628 0 
L 628 4666 
z
" transform="scale(0.015625)"/>
       <path id="DejaVuSans-6e" d="M 3513 2113 
L 3513 0 
L 2938 0 
L 2938 2094 
Q 2938 2591 2744 2837 
Q 2550 3084 2163 3084 
Q 1697 3084 1428 2787 
Q 1159 2491 1159 1978 
L 1159 0 
L 581 0 
L 581 3500 
L 1159 3500 
L 1159 2956 
Q 1366 3272 1645 3428 
Q 1925 3584 2291 3584 
Q 2894 3584 3203 3211 
Q 3513 2838 3513 2113 
z
" transform="scale(0.015625)"/>
       <path id="DejaVuSans-65" d="M 3597 1894 
L 3597 1613 
L 953 1613 
Q 991 1019 1311 708 
Q 1631 397 2203 397 
Q 2534 397 2845 478 
Q 3156 559 3463 722 
L 3463 178 
Q 3153 47 2828 -22 
Q 2503 -91 2169 -91 
Q 1331 -91 842 396 
Q 353 884 353 1716 
Q 353 2575 817 3079 
Q 1281 3584 2069 3584 
Q 2775 3584 3186 3129 
Q 3597 2675 3597 1894 
z
M 3022 2063 
Q 3016 2534 2758 2815 
Q 2500 3097 2075 3097 
Q 1594 3097 1305 2825 
Q 1016 2553 972 2059 
L 3022 2063 
z
" transform="scale(0.015625)"/>
       <path id="DejaVuSans-72" d="M 2631 2963 
Q 2534 3019 2420 3045 
Q 2306 3072 2169 3072 
Q 1681 3072 1420 2755 
Q 1159 2438 1159 1844 
L 1159 0 
L 581 0 
L 581 3500 
L 1159 3500 
L 1159 2956 
Q 1341 3275 1631 3429 
Q 1922 3584 2338 3584 
Q 2397 3584 2469 3576 
Q 2541 3569 2628 3553 
L 2631 2963 
z
" transform="scale(0.015625)"/>
       <path id="DejaVuSans-67" d="M 2906 1791 
Q 2906 2416 2648 2759 
Q 2391 3103 1925 3103 
Q 1463 3103 1205 2759 
Q 947 2416 947 1791 
Q 947 1169 1205 825 
Q 1463 481 1925 481 
Q 2391 481 2648 825 
Q 2906 1169 2906 1791 
z
M 3481 434 
Q 3481 -459 3084 -895 
Q 2688 -1331 1869 -1331 
Q 1566 -1331 1297 -1286 
Q 1028 -1241 775 -1147 
L 775 -588 
Q 1028 -725 1275 -790 
Q 1522 -856 1778 -856 
Q 2344 -856 2625 -561 
Q 2906 -266 2906 331 
L 2906 616 
Q 2728 306 2450 153 
Q 2172 0 1784 0 
Q 1141 0 747 490 
Q 353 981 353 1791 
Q 353 2603 747 3093 
Q 1141 3584 1784 3584 
Q 2172 3584 2450 3431 
Q 2728 3278 2906 2969 
L 2906 3500 
L 3481 3500 
L 3481 434 
z
" transform="scale(0.015625)"/>
       <path id="DejaVuSans-79" d="M 2059 -325 
Q 1816 -950 1584 -1140 
Q 1353 -1331 966 -1331 
L 506 -1331 
L 506 -850 
L 844 -850 
Q 1081 -850 1212 -737 
Q 1344 -625 1503 -206 
L 1606 56 
L 191 3500 
L 800 3500 
L 1894 763 
L 2988 3500 
L 3597 3500 
L 2059 -325 
z
" transform="scale(0.015625)"/>
       <path id="DejaVuSans-20" transform="scale(0.015625)"/>
       <path id="DejaVuSans-55" d="M 556 4666 
L 1191 4666 
L 1191 1831 
Q 1191 1081 1462 751 
Q 1734 422 2344 422 
Q 2950 422 3222 751 
Q 3494 1081 3494 1831 
L 3494 4666 
L 4128 4666 
L 4128 1753 
Q 4128 841 3676 375 
Q 3225 -91 2344 -91 
Q 1459 -91 1007 375 
Q 556 841 556 1753 
L 556 4666 
z
" transform="scale(0.015625)"/>
       <path id="DejaVuSans-63" d="M 3122 3366 
L 3122 2828 
Q 2878 2963 2633 3030 
Q 2388 3097 2138 3097 
Q 1578 3097 1268 2742 
Q 959 2388 959 1747 
Q 959 1106 1268 751 
Q 1578 397 2138 397 
Q 2388 397 2633 464 
Q 2878 531 3122 666 
L 3122 134 
Q 2881 22 2623 -34 
Q 2366 -91 2075 -91 
Q 1284 -91 818 406 
Q 353 903 353 1747 
Q 353 2603 823 3093 
Q 1294 3584 2113 3584 
Q 2378 3584 2631 3529 
Q 2884 3475 3122 3366 
z
" transform="scale(0.015625)"/>
       <path id="DejaVuSans-74" d="M 1172 4494 
L 1172 3500 
L 2356 3500 
L 2356 3053 
L 1172 3053 
L 1172 1153 
Q 1172 725 1289 603 
Q 1406 481 1766 481 
L 2356 481 
L 2356 0 
L 1766 0 
Q 1100 0 847 248 
Q 594 497 594 1153 
L 594 3053 
L 172 3053 
L 172 3500 
L 594 3500 
L 594 4494 
L 1172 4494 
z
" transform="scale(0.015625)"/>
       <path id="DejaVuSans-61" d="M 2194 1759 
Q 1497 1759 1228 1600 
Q 959 1441 959 1056 
Q 959 750 1161 570 
Q 1363 391 1709 391 
Q 2188 391 2477 730 
Q 2766 1069 2766 1631 
L 2766 1759 
L 2194 1759 
z
M 3341 1997 
L 3341 0 
L 2766 0 
L 2766 531 
Q 2569 213 2275 61 
Q 1981 -91 1556 -91 
Q 1019 -91 701 211 
Q 384 513 384 1019 
Q 384 1609 779 1909 
Q 1175 2209 1959 2209 
L 2766 2209 
L 2766 2266 
Q 2766 2663 2505 2880 
Q 2244 3097 1772 3097 
Q 1472 3097 1187 3025 
Q 903 2953 641 2809 
L 641 3341 
Q 956 3463 1253 3523 
Q 1550 3584 1831 3584 
Q 2591 3584 2966 3190 
Q 3341 2797 3341 1997 
z
" transform="scale(0.015625)"/>
       <path id="DejaVuSans-69" d="M 603 3500 
L 1178 3500 
L 1178 0 
L 603 0 
L 603 3500 
z
M 603 4863 
L 1178 4863 
L 1178 4134 
L 603 4134 
L 603 4863 
z
" transform="scale(0.015625)"/>
       <path id="DejaVuSans-73" d="M 2834 3397 
L 2834 2853 
Q 2591 2978 2328 3040 
Q 2066 3103 1784 3103 
Q 1356 3103 1142 2972 
Q 928 2841 928 2578 
Q 928 2378 1081 2264 
Q 1234 2150 1697 2047 
L 1894 2003 
Q 2506 1872 2764 1633 
Q 3022 1394 3022 966 
Q 3022 478 2636 193 
Q 2250 -91 1575 -91 
Q 1294 -91 989 -36 
Q 684 19 347 128 
L 347 722 
Q 666 556 975 473 
Q 1284 391 1588 391 
Q 1994 391 2212 530 
Q 2431 669 2431 922 
Q 2431 1156 2273 1281 
Q 2116 1406 1581 1522 
L 1381 1569 
Q 847 1681 609 1914 
Q 372 2147 372 2553 
Q 372 3047 722 3315 
Q 1072 3584 1716 3584 
Q 2034 3584 2315 3537 
Q 2597 3491 2834 3397 
z
" transform="scale(0.015625)"/>
      </defs>
      <use xlink:href="#DejaVuSans-45"/>
      <use xlink:href="#DejaVuSans-6e" x="63.183594"/>
      <use xlink:href="#DejaVuSans-65" x="126.5625"/>
      <use xlink:href="#DejaVuSans-72" x="188.085938"/>
      <use xlink:href="#DejaVuSans-67" x="227.449219"/>
      <use xlink:href="#DejaVuSans-79" x="290.925781"/>
      <use xlink:href="#DejaVuSans-20" x="350.105469"/>
      <use xlink:href="#DejaVuSans-55" x="381.892578"/>
      <use xlink:href="#DejaVuSans-6e" x="455.085938"/>
      <use xlink:href="#DejaVuSans-63" x="518.464844"/>
      <use xlink:href="#DejaVuSans-65" x="573.445312"/>
      <use xlink:href="#DejaVuSans-72" x="634.96875"/>
      <use xlink:href="#DejaVuSans-74" x="676.082031"/>
      <use xlink:href="#DejaVuSans-61" x="715.291016"/>
      <use xlink:href="#DejaVuSans-69" x="776.570312"/>
      <use xlink:href="#DejaVuSans-6e" x="804.353516"/>
      <use xlink:href="#DejaVuSans-74" x="867.732422"/>
      <use xlink:href="#DejaVuSans-69" x="906.941406"/>
      <use xlink:href="#DejaVuSans-65" x="934.724609"/>
      <use xlink:href="#DejaVuSans-73" x="996.248047"/>
     </g>
    </g>
   </g>
   <g id="matplotlib.axis_2">
    <g id="ytick_1">
     <g id="line2d_8">
      <defs>
       <path id="ma9ffc1e9b1" d="M 0 0 
L -3.5 0 
" style="stroke: #000000; stroke-width: 0.8"/>
      </defs>
      <g>
       <use xlink:href="#ma9ffc1e9b1" x="47.81" y="470.376988" style="stroke: #000000; stroke-width: 0.8"/>
      </g>
     </g>
     <g id="text_9">
      <!-- 0.5 -->
      <g transform="translate(24.906875 474.176206) scale(0.1 -0.1)">
       <use xlink:href="#DejaVuSans-30"/>
       <use xlink:href="#DejaVuSans-2e" x="63.623047"/>
       <use xlink:href="#DejaVuSans-35" x="95.410156"/>
      </g>
     </g>
    </g>
    <g id="ytick_2">
     <g id="line2d_9">
      <g>
       <use xlink:href="#ma9ffc1e9b1" x="47.81" y="399.258412" style="stroke: #000000; stroke-width: 0.8"/>
      </g>
     </g>
     <g id="text_10">
      <!-- 1.0 -->
      <g transform="translate(24.906875 403.05763) scale(0.1 -0.1)">
       <use xlink:href="#DejaVuSans-31"/>
       <use xlink:href="#DejaVuSans-2e" x="63.623047"/>
       <use xlink:href="#DejaVuSans-30" x="95.410156"/>
      </g>
     </g>
    </g>
    <g id="ytick_3">
     <g id="line2d_10">
      <g>
       <use xlink:href="#ma9ffc1e9b1" x="47.81" y="328.139836" style="stroke: #000000; stroke-width: 0.8"/>
      </g>
     </g>
     <g id="text_11">
      <!-- 1.5 -->
      <g transform="translate(24.906875 331.939054) scale(0.1 -0.1)">
       <use xlink:href="#DejaVuSans-31"/>
       <use xlink:href="#DejaVuSans-2e" x="63.623047"/>
       <use xlink:href="#DejaVuSans-35" x="95.410156"/>
      </g>
     </g>
    </g>
    <g id="ytick_4">
     <g id="line2d_11">
      <g>
       <use xlink:href="#ma9ffc1e9b1" x="47.81" y="257.02126" style="stroke: #000000; stroke-width: 0.8"/>
      </g>
     </g>
     <g id="text_12">
      <!-- 2.0 -->
      <g transform="translate(24.906875 260.820479) scale(0.1 -0.1)">
       <use xlink:href="#DejaVuSans-32"/>
       <use xlink:href="#DejaVuSans-2e" x="63.623047"/>
       <use xlink:href="#DejaVuSans-30" x="95.410156"/>
      </g>
     </g>
    </g>
    <g id="ytick_5">
     <g id="line2d_12">
      <g>
       <use xlink:href="#ma9ffc1e9b1" x="47.81" y="185.902684" style="stroke: #000000; stroke-width: 0.8"/>
      </g>
     </g>
     <g id="text_13">
      <!-- 2.5 -->
      <g transform="translate(24.906875 189.701903) scale(0.1 -0.1)">
       <use xlink:href="#DejaVuSans-32"/>
       <use xlink:href="#DejaVuSans-2e" x="63.623047"/>
       <use xlink:href="#DejaVuSans-35" x="95.410156"/>
      </g>
     </g>
    </g>
    <g id="ytick_6">
     <g id="line2d_13">
      <g>
       <use xlink:href="#ma9ffc1e9b1" x="47.81" y="114.784108" style="stroke: #000000; stroke-width: 0.8"/>
      </g>
     </g>
     <g id="text_14">
      <!-- 3.0 -->
      <g transform="translate(24.906875 118.583327) scale(0.1 -0.1)">
       <use xlink:href="#DejaVuSans-33"/>
       <use xlink:href="#DejaVuSans-2e" x="63.623047"/>
       <use xlink:href="#DejaVuSans-30" x="95.410156"/>
      </g>
     </g>
    </g>
    <g id="ytick_7">
     <g id="line2d_14">
      <g>
       <use xlink:href="#ma9ffc1e9b1" x="47.81" y="43.665532" style="stroke: #000000; stroke-width: 0.8"/>
      </g>
     </g>
     <g id="text_15">
      <!-- 3.5 -->
      <g transform="translate(24.906875 47.464751) scale(0.1 -0.1)">
       <use xlink:href="#DejaVuSans-33"/>
       <use xlink:href="#DejaVuSans-2e" x="63.623047"/>
       <use xlink:href="#DejaVuSans-35" x="95.410156"/>
      </g>
     </g>
    </g>
    <g id="text_16">
     <!-- Force Errors -->
     <g transform="translate(18.827187 309.641563) rotate(-90) scale(0.1 -0.1)">
      <defs>
       <path id="DejaVuSans-46" d="M 628 4666 
L 3309 4666 
L 3309 4134 
L 1259 4134 
L 1259 2759 
L 3109 2759 
L 3109 2228 
L 1259 2228 
L 1259 0 
L 628 0 
L 628 4666 
z
" transform="scale(0.015625)"/>
       <path id="DejaVuSans-6f" d="M 1959 3097 
Q 1497 3097 1228 2736 
Q 959 2375 959 1747 
Q 959 1119 1226 758 
Q 1494 397 1959 397 
Q 2419 397 2687 759 
Q 2956 1122 2956 1747 
Q 2956 2369 2687 2733 
Q 2419 3097 1959 3097 
z
M 1959 3584 
Q 2709 3584 3137 3096 
Q 3566 2609 3566 1747 
Q 3566 888 3137 398 
Q 2709 -91 1959 -91 
Q 1206 -91 779 398 
Q 353 888 353 1747 
Q 353 2609 779 3096 
Q 1206 3584 1959 3584 
z
" transform="scale(0.015625)"/>
      </defs>
      <use xlink:href="#DejaVuSans-46"/>
      <use xlink:href="#DejaVuSans-6f" x="53.894531"/>
      <use xlink:href="#DejaVuSans-72" x="115.076172"/>
      <use xlink:href="#DejaVuSans-63" x="153.939453"/>
      <use xlink:href="#DejaVuSans-65" x="208.919922"/>
      <use xlink:href="#DejaVuSans-20" x="270.443359"/>
      <use xlink:href="#DejaVuSans-45" x="302.230469"/>
      <use xlink:href="#DejaVuSans-72" x="365.414062"/>
      <use xlink:href="#DejaVuSans-72" x="404.777344"/>
      <use xlink:href="#DejaVuSans-6f" x="443.640625"/>
      <use xlink:href="#DejaVuSans-72" x="504.822266"/>
      <use xlink:href="#DejaVuSans-73" x="545.935547"/>
     </g>
    </g>
   </g>
   <g id="line2d_15">
    <path d="M 47.81 534.04 
L 709.2 25.44 
" clip-path="url(#pa20135e71b)" style="fill: none; stroke-dasharray: 5.55,2.4; stroke-dashoffset: 0; stroke: #ff0000; stroke-width: 1.5"/>
   </g>
   <g id="patch_3">
    <path d="M 47.81 534.04 
L 47.81 25.44 
" style="fill: none; stroke: #000000; stroke-width: 0.8; stroke-linejoin: miter; stroke-linecap: square"/>
   </g>
   <g id="patch_4">
    <path d="M 709.2 534.04 
L 709.2 25.44 
" style="fill: none; stroke: #000000; stroke-width: 0.8; stroke-linejoin: miter; stroke-linecap: square"/>
   </g>
   <g id="patch_5">
    <path d="M 47.81 534.04 
L 709.2 534.04 
" style="fill: none; stroke: #000000; stroke-width: 0.8; stroke-linejoin: miter; stroke-linecap: square"/>
   </g>
   <g id="patch_6">
    <path d="M 47.81 25.44 
L 709.2 25.44 
" style="fill: none; stroke: #000000; stroke-width: 0.8; stroke-linejoin: miter; stroke-linecap: square"/>
   </g>
   <g id="text_17">
    <!-- Correlation in: 0.4693985512265624 -->
    <g transform="translate(113.949 65.102187) scale(0.1 -0.1)">
     <defs>
      <path id="DejaVuSans-43" d="M 4122 4306 
L 4122 3641 
Q 3803 3938 3442 4084 
Q 3081 4231 2675 4231 
Q 1875 4231 1450 3742 
Q 1025 3253 1025 2328 
Q 1025 1406 1450 917 
Q 1875 428 2675 428 
Q 3081 428 3442 575 
Q 3803 722 4122 1019 
L 4122 359 
Q 3791 134 3420 21 
Q 3050 -91 2638 -91 
Q 1578 -91 968 557 
Q 359 1206 359 2328 
Q 359 3453 968 4101 
Q 1578 4750 2638 4750 
Q 3056 4750 3426 4639 
Q 3797 4528 4122 4306 
z
" transform="scale(0.015625)"/>
      <path id="DejaVuSans-6c" d="M 603 4863 
L 1178 4863 
L 1178 0 
L 603 0 
L 603 4863 
z
" transform="scale(0.015625)"/>
      <path id="DejaVuSans-3a" d="M 750 794 
L 1409 794 
L 1409 0 
L 750 0 
L 750 794 
z
M 750 3309 
L 1409 3309 
L 1409 2516 
L 750 2516 
L 750 3309 
z
" transform="scale(0.015625)"/>
      <path id="DejaVuSans-34" d="M 2419 4116 
L 825 1625 
L 2419 1625 
L 2419 4116 
z
M 2253 4666 
L 3047 4666 
L 3047 1625 
L 3713 1625 
L 3713 1100 
L 3047 1100 
L 3047 0 
L 2419 0 
L 2419 1100 
L 313 1100 
L 313 1709 
L 2253 4666 
z
" transform="scale(0.015625)"/>
      <path id="DejaVuSans-36" d="M 2113 2584 
Q 1688 2584 1439 2293 
Q 1191 2003 1191 1497 
Q 1191 994 1439 701 
Q 1688 409 2113 409 
Q 2538 409 2786 701 
Q 3034 994 3034 1497 
Q 3034 2003 2786 2293 
Q 2538 2584 2113 2584 
z
M 3366 4563 
L 3366 3988 
Q 3128 4100 2886 4159 
Q 2644 4219 2406 4219 
Q 1781 4219 1451 3797 
Q 1122 3375 1075 2522 
Q 1259 2794 1537 2939 
Q 1816 3084 2150 3084 
Q 2853 3084 3261 2657 
Q 3669 2231 3669 1497 
Q 3669 778 3244 343 
Q 2819 -91 2113 -91 
Q 1303 -91 875 529 
Q 447 1150 447 2328 
Q 447 3434 972 4092 
Q 1497 4750 2381 4750 
Q 2619 4750 2861 4703 
Q 3103 4656 3366 4563 
z
" transform="scale(0.015625)"/>
      <path id="DejaVuSans-39" d="M 703 97 
L 703 672 
Q 941 559 1184 500 
Q 1428 441 1663 441 
Q 2288 441 2617 861 
Q 2947 1281 2994 2138 
Q 2813 1869 2534 1725 
Q 2256 1581 1919 1581 
Q 1219 1581 811 2004 
Q 403 2428 403 3163 
Q 403 3881 828 4315 
Q 1253 4750 1959 4750 
Q 2769 4750 3195 4129 
Q 3622 3509 3622 2328 
Q 3622 1225 3098 567 
Q 2575 -91 1691 -91 
Q 1453 -91 1209 -44 
Q 966 3 703 97 
z
M 1959 2075 
Q 2384 2075 2632 2365 
Q 2881 2656 2881 3163 
Q 2881 3666 2632 3958 
Q 2384 4250 1959 4250 
Q 1534 4250 1286 3958 
Q 1038 3666 1038 3163 
Q 1038 2656 1286 2365 
Q 1534 2075 1959 2075 
z
" transform="scale(0.015625)"/>
      <path id="DejaVuSans-38" d="M 2034 2216 
Q 1584 2216 1326 1975 
Q 1069 1734 1069 1313 
Q 1069 891 1326 650 
Q 1584 409 2034 409 
Q 2484 409 2743 651 
Q 3003 894 3003 1313 
Q 3003 1734 2745 1975 
Q 2488 2216 2034 2216 
z
M 1403 2484 
Q 997 2584 770 2862 
Q 544 3141 544 3541 
Q 544 4100 942 4425 
Q 1341 4750 2034 4750 
Q 2731 4750 3128 4425 
Q 3525 4100 3525 3541 
Q 3525 3141 3298 2862 
Q 3072 2584 2669 2484 
Q 3125 2378 3379 2068 
Q 3634 1759 3634 1313 
Q 3634 634 3220 271 
Q 2806 -91 2034 -91 
Q 1263 -91 848 271 
Q 434 634 434 1313 
Q 434 1759 690 2068 
Q 947 2378 1403 2484 
z
M 1172 3481 
Q 1172 3119 1398 2916 
Q 1625 2713 2034 2713 
Q 2441 2713 2670 2916 
Q 2900 3119 2900 3481 
Q 2900 3844 2670 4047 
Q 2441 4250 2034 4250 
Q 1625 4250 1398 4047 
Q 1172 3844 1172 3481 
z
" transform="scale(0.015625)"/>
     </defs>
     <use xlink:href="#DejaVuSans-43"/>
     <use xlink:href="#DejaVuSans-6f" x="69.824219"/>
     <use xlink:href="#DejaVuSans-72" x="131.005859"/>
     <use xlink:href="#DejaVuSans-72" x="170.369141"/>
     <use xlink:href="#DejaVuSans-65" x="209.232422"/>
     <use xlink:href="#DejaVuSans-6c" x="270.755859"/>
     <use xlink:href="#DejaVuSans-61" x="298.539062"/>
     <use xlink:href="#DejaVuSans-74" x="359.818359"/>
     <use xlink:href="#DejaVuSans-69" x="399.027344"/>
     <use xlink:href="#DejaVuSans-6f" x="426.810547"/>
     <use xlink:href="#DejaVuSans-6e" x="487.992188"/>
     <use xlink:href="#DejaVuSans-20" x="551.371094"/>
     <use xlink:href="#DejaVuSans-69" x="583.158203"/>
     <use xlink:href="#DejaVuSans-6e" x="610.941406"/>
     <use xlink:href="#DejaVuSans-3a" x="674.320312"/>
     <use xlink:href="#DejaVuSans-20" x="708.011719"/>
     <use xlink:href="#DejaVuSans-30" x="739.798828"/>
     <use xlink:href="#DejaVuSans-2e" x="803.421875"/>
     <use xlink:href="#DejaVuSans-34" x="835.208984"/>
     <use xlink:href="#DejaVuSans-36" x="898.832031"/>
     <use xlink:href="#DejaVuSans-39" x="962.455078"/>
     <use xlink:href="#DejaVuSans-33" x="1026.078125"/>
     <use xlink:href="#DejaVuSans-39" x="1089.701172"/>
     <use xlink:href="#DejaVuSans-38" x="1153.324219"/>
     <use xlink:href="#DejaVuSans-35" x="1216.947266"/>
     <use xlink:href="#DejaVuSans-35" x="1280.570312"/>
     <use xlink:href="#DejaVuSans-31" x="1344.193359"/>
     <use xlink:href="#DejaVuSans-32" x="1407.816406"/>
     <use xlink:href="#DejaVuSans-32" x="1471.439453"/>
     <use xlink:href="#DejaVuSans-36" x="1535.0625"/>
     <use xlink:href="#DejaVuSans-35" x="1598.685547"/>
     <use xlink:href="#DejaVuSans-36" x="1662.308594"/>
     <use xlink:href="#DejaVuSans-32" x="1725.931641"/>
     <use xlink:href="#DejaVuSans-34" x="1789.554688"/>
    </g>
    <!-- Correlation Out: 0.849075643439548 -->
    <g transform="translate(113.949 76.3) scale(0.1 -0.1)">
     <defs>
      <path id="DejaVuSans-4f" d="M 2522 4238 
Q 1834 4238 1429 3725 
Q 1025 3213 1025 2328 
Q 1025 1447 1429 934 
Q 1834 422 2522 422 
Q 3209 422 3611 934 
Q 4013 1447 4013 2328 
Q 4013 3213 3611 3725 
Q 3209 4238 2522 4238 
z
M 2522 4750 
Q 3503 4750 4090 4092 
Q 4678 3434 4678 2328 
Q 4678 1225 4090 567 
Q 3503 -91 2522 -91 
Q 1538 -91 948 565 
Q 359 1222 359 2328 
Q 359 3434 948 4092 
Q 1538 4750 2522 4750 
z
" transform="scale(0.015625)"/>
      <path id="DejaVuSans-75" d="M 544 1381 
L 544 3500 
L 1119 3500 
L 1119 1403 
Q 1119 906 1312 657 
Q 1506 409 1894 409 
Q 2359 409 2629 706 
Q 2900 1003 2900 1516 
L 2900 3500 
L 3475 3500 
L 3475 0 
L 2900 0 
L 2900 538 
Q 2691 219 2414 64 
Q 2138 -91 1772 -91 
Q 1169 -91 856 284 
Q 544 659 544 1381 
z
M 1991 3584 
L 1991 3584 
z
" transform="scale(0.015625)"/>
      <path id="DejaVuSans-37" d="M 525 4666 
L 3525 4666 
L 3525 4397 
L 1831 0 
L 1172 0 
L 2766 4134 
L 525 4134 
L 525 4666 
z
" transform="scale(0.015625)"/>
     </defs>
     <use xlink:href="#DejaVuSans-43"/>
     <use xlink:href="#DejaVuSans-6f" x="69.824219"/>
     <use xlink:href="#DejaVuSans-72" x="131.005859"/>
     <use xlink:href="#DejaVuSans-72" x="170.369141"/>
     <use xlink:href="#DejaVuSans-65" x="209.232422"/>
     <use xlink:href="#DejaVuSans-6c" x="270.755859"/>
     <use xlink:href="#DejaVuSans-61" x="298.539062"/>
     <use xlink:href="#DejaVuSans-74" x="359.818359"/>
     <use xlink:href="#DejaVuSans-69" x="399.027344"/>
     <use xlink:href="#DejaVuSans-6f" x="426.810547"/>
     <use xlink:href="#DejaVuSans-6e" x="487.992188"/>
     <use xlink:href="#DejaVuSans-20" x="551.371094"/>
     <use xlink:href="#DejaVuSans-4f" x="583.158203"/>
     <use xlink:href="#DejaVuSans-75" x="661.869141"/>
     <use xlink:href="#DejaVuSans-74" x="725.248047"/>
     <use xlink:href="#DejaVuSans-3a" x="764.457031"/>
     <use xlink:href="#DejaVuSans-20" x="798.148438"/>
     <use xlink:href="#DejaVuSans-30" x="829.935547"/>
     <use xlink:href="#DejaVuSans-2e" x="893.558594"/>
     <use xlink:href="#DejaVuSans-38" x="925.345703"/>
     <use xlink:href="#DejaVuSans-34" x="988.96875"/>
     <use xlink:href="#DejaVuSans-39" x="1052.591797"/>
     <use xlink:href="#DejaVuSans-30" x="1116.214844"/>
     <use xlink:href="#DejaVuSans-37" x="1179.837891"/>
     <use xlink:href="#DejaVuSans-35" x="1243.460938"/>
     <use xlink:href="#DejaVuSans-36" x="1307.083984"/>
     <use xlink:href="#DejaVuSans-34" x="1370.707031"/>
     <use xlink:href="#DejaVuSans-33" x="1434.330078"/>
     <use xlink:href="#DejaVuSans-34" x="1497.953125"/>
     <use xlink:href="#DejaVuSans-33" x="1561.576172"/>
     <use xlink:href="#DejaVuSans-39" x="1625.199219"/>
     <use xlink:href="#DejaVuSans-35" x="1688.822266"/>
     <use xlink:href="#DejaVuSans-34" x="1752.445312"/>
     <use xlink:href="#DejaVuSans-38" x="1816.068359"/>
    </g>
   </g>
   <g id="text_18">
    <!-- MVE -->
    <g transform="translate(365.4325 19.44) scale(0.12 -0.12)">
     <defs>
      <path id="DejaVuSans-4d" d="M 628 4666 
L 1569 4666 
L 2759 1491 
L 3956 4666 
L 4897 4666 
L 4897 0 
L 4281 0 
L 4281 4097 
L 3078 897 
L 2444 897 
L 1241 4097 
L 1241 0 
L 628 0 
L 628 4666 
z
" transform="scale(0.015625)"/>
      <path id="DejaVuSans-56" d="M 1831 0 
L 50 4666 
L 709 4666 
L 2188 738 
L 3669 4666 
L 4325 4666 
L 2547 0 
L 1831 0 
z
" transform="scale(0.015625)"/>
     </defs>
     <use xlink:href="#DejaVuSans-4d"/>
     <use xlink:href="#DejaVuSans-56" x="86.279297"/>
     <use xlink:href="#DejaVuSans-45" x="154.6875"/>
    </g>
   </g>
   <g id="legend_1">
    <g id="patch_7">
     <path d="M 577.7375 62.79625 
L 702.2 62.79625 
Q 704.2 62.79625 704.2 60.79625 
L 704.2 32.44 
Q 704.2 30.44 702.2 30.44 
L 577.7375 30.44 
Q 575.7375 30.44 575.7375 32.44 
L 575.7375 60.79625 
Q 575.7375 62.79625 577.7375 62.79625 
z
" style="fill: #ffffff; opacity: 0.8; stroke: #cccccc; stroke-linejoin: miter"/>
    </g>
    <g id="line2d_16">
     <defs>
      <path id="m8d5bf9799b" d="M 0 2.5 
C 0.663008 2.5 1.29895 2.236584 1.767767 1.767767 
C 2.236584 1.29895 2.5 0.663008 2.5 0 
C 2.5 -0.663008 2.236584 -1.29895 1.767767 -1.767767 
C 1.29895 -2.236584 0.663008 -2.5 0 -2.5 
C -0.663008 -2.5 -1.29895 -2.236584 -1.767767 -1.767767 
C -2.236584 -1.29895 -2.5 -0.663008 -2.5 0 
C -2.5 0.663008 -2.236584 1.29895 -1.767767 1.767767 
C -1.29895 2.236584 -0.663008 2.5 0 2.5 
z
" style="stroke: #ffffff"/>
     </defs>
     <g>
      <use xlink:href="#m8d5bf9799b" x="589.7375" y="38.538437" style="fill: #0000ff; stroke: #ffffff"/>
     </g>
    </g>
    <g id="text_19">
     <!-- In Distribution -->
     <g transform="translate(607.7375 42.038437) scale(0.1 -0.1)">
      <defs>
       <path id="DejaVuSans-49" d="M 628 4666 
L 1259 4666 
L 1259 0 
L 628 0 
L 628 4666 
z
" transform="scale(0.015625)"/>
       <path id="DejaVuSans-44" d="M 1259 4147 
L 1259 519 
L 2022 519 
Q 2988 519 3436 956 
Q 3884 1394 3884 2338 
Q 3884 3275 3436 3711 
Q 2988 4147 2022 4147 
L 1259 4147 
z
M 628 4666 
L 1925 4666 
Q 3281 4666 3915 4102 
Q 4550 3538 4550 2338 
Q 4550 1131 3912 565 
Q 3275 0 1925 0 
L 628 0 
L 628 4666 
z
" transform="scale(0.015625)"/>
       <path id="DejaVuSans-62" d="M 3116 1747 
Q 3116 2381 2855 2742 
Q 2594 3103 2138 3103 
Q 1681 3103 1420 2742 
Q 1159 2381 1159 1747 
Q 1159 1113 1420 752 
Q 1681 391 2138 391 
Q 2594 391 2855 752 
Q 3116 1113 3116 1747 
z
M 1159 2969 
Q 1341 3281 1617 3432 
Q 1894 3584 2278 3584 
Q 2916 3584 3314 3078 
Q 3713 2572 3713 1747 
Q 3713 922 3314 415 
Q 2916 -91 2278 -91 
Q 1894 -91 1617 61 
Q 1341 213 1159 525 
L 1159 0 
L 581 0 
L 581 4863 
L 1159 4863 
L 1159 2969 
z
" transform="scale(0.015625)"/>
      </defs>
      <use xlink:href="#DejaVuSans-49"/>
      <use xlink:href="#DejaVuSans-6e" x="29.492188"/>
      <use xlink:href="#DejaVuSans-20" x="92.871094"/>
      <use xlink:href="#DejaVuSans-44" x="124.658203"/>
      <use xlink:href="#DejaVuSans-69" x="201.660156"/>
      <use xlink:href="#DejaVuSans-73" x="229.443359"/>
      <use xlink:href="#DejaVuSans-74" x="281.542969"/>
      <use xlink:href="#DejaVuSans-72" x="320.751953"/>
      <use xlink:href="#DejaVuSans-69" x="361.865234"/>
      <use xlink:href="#DejaVuSans-62" x="389.648438"/>
      <use xlink:href="#DejaVuSans-75" x="453.125"/>
      <use xlink:href="#DejaVuSans-74" x="516.503906"/>
      <use xlink:href="#DejaVuSans-69" x="555.712891"/>
      <use xlink:href="#DejaVuSans-6f" x="583.496094"/>
      <use xlink:href="#DejaVuSans-6e" x="644.677734"/>
     </g>
    </g>
    <g id="line2d_17">
     <defs>
      <path id="m6b57095885" d="M 0 2.5 
C 0.663008 2.5 1.29895 2.236584 1.767767 1.767767 
C 2.236584 1.29895 2.5 0.663008 2.5 0 
C 2.5 -0.663008 2.236584 -1.29895 1.767767 -1.767767 
C 1.29895 -2.236584 0.663008 -2.5 0 -2.5 
C -0.663008 -2.5 -1.29895 -2.236584 -1.767767 -1.767767 
C -2.236584 -1.29895 -2.5 -0.663008 -2.5 0 
C -2.5 0.663008 -2.236584 1.29895 -1.767767 1.767767 
C -1.29895 2.236584 -0.663008 2.5 0 2.5 
z
" style="stroke: #ffffff"/>
     </defs>
     <g>
      <use xlink:href="#m6b57095885" x="589.7375" y="53.216563" style="fill: #008000; stroke: #ffffff"/>
     </g>
    </g>
    <g id="text_20">
     <!-- Out of Distribution -->
     <g transform="translate(607.7375 56.716563) scale(0.1 -0.1)">
      <defs>
       <path id="DejaVuSans-66" d="M 2375 4863 
L 2375 4384 
L 1825 4384 
Q 1516 4384 1395 4259 
Q 1275 4134 1275 3809 
L 1275 3500 
L 2222 3500 
L 2222 3053 
L 1275 3053 
L 1275 0 
L 697 0 
L 697 3053 
L 147 3053 
L 147 3500 
L 697 3500 
L 697 3744 
Q 697 4328 969 4595 
Q 1241 4863 1831 4863 
L 2375 4863 
z
" transform="scale(0.015625)"/>
      </defs>
      <use xlink:href="#DejaVuSans-4f"/>
      <use xlink:href="#DejaVuSans-75" x="78.710938"/>
      <use xlink:href="#DejaVuSans-74" x="142.089844"/>
      <use xlink:href="#DejaVuSans-20" x="181.298828"/>
      <use xlink:href="#DejaVuSans-6f" x="213.085938"/>
      <use xlink:href="#DejaVuSans-66" x="274.267578"/>
      <use xlink:href="#DejaVuSans-20" x="309.472656"/>
      <use xlink:href="#DejaVuSans-44" x="341.259766"/>
      <use xlink:href="#DejaVuSans-69" x="418.261719"/>
      <use xlink:href="#DejaVuSans-73" x="446.044922"/>
      <use xlink:href="#DejaVuSans-74" x="498.144531"/>
      <use xlink:href="#DejaVuSans-72" x="537.353516"/>
      <use xlink:href="#DejaVuSans-69" x="578.466797"/>
      <use xlink:href="#DejaVuSans-62" x="606.25"/>
      <use xlink:href="#DejaVuSans-75" x="669.726562"/>
      <use xlink:href="#DejaVuSans-74" x="733.105469"/>
      <use xlink:href="#DejaVuSans-69" x="772.314453"/>
      <use xlink:href="#DejaVuSans-6f" x="800.097656"/>
      <use xlink:href="#DejaVuSans-6e" x="861.279297"/>
     </g>
    </g>
   </g>
  </g>
 </g>
 <defs>
  <clipPath id="pa20135e71b">
   <rect x="47.81" y="25.44" width="661.39" height="508.6"/>
  </clipPath>
 </defs>
</svg>
