<?xml version="1.0" encoding="utf-8" standalone="no"?>
<!DOCTYPE svg PUBLIC "-//W3C//DTD SVG 1.1//EN"
  "http://www.w3.org/Graphics/SVG/1.1/DTD/svg11.dtd">
<svg xmlns:xlink="http://www.w3.org/1999/xlink" width="720pt" height="576pt" viewBox="0 0 720 576" xmlns="http://www.w3.org/2000/svg" version="1.1">
 <metadata>
  <rdf:RDF xmlns:dc="http://purl.org/dc/elements/1.1/" xmlns:cc="http://creativecommons.org/ns#" xmlns:rdf="http://www.w3.org/1999/02/22-rdf-syntax-ns#">
   <cc:Work>
    <dc:type rdf:resource="http://purl.org/dc/dcmitype/StillImage"/>
    <dc:date>2024-12-08T20:46:23.953088</dc:date>
    <dc:format>image/svg+xml</dc:format>
    <dc:creator>
     <cc:Agent>
      <dc:title>Matplotlib v3.8.4, https://matplotlib.org/</dc:title>
     </cc:Agent>
    </dc:creator>
   </cc:Work>
  </rdf:RDF>
 </metadata>
 <defs>
  <style type="text/css">*{stroke-linejoin: round; stroke-linecap: butt}</style>
 </defs>
 <g id="figure_1">
  <g id="patch_1">
   <path d="M 0 576 
L 720 576 
L 720 0 
L 0 0 
z
" style="fill: #ffffff"/>
  </g>
  <g id="axes_1">
   <g id="patch_2">
    <path d="M 83.72 499.48 
L 696.24 499.48 
L 696.24 23.76 
L 83.72 23.76 
z
" style="fill: #ffffff"/>
   </g>
   <g id="PathCollection_1">
    <defs>
     <path id="m2a85ca5f07" d="M 0 3 
C 0.795609 3 1.55874 2.683901 2.12132 2.12132 
C 2.683901 1.55874 3 0.795609 3 0 
C 3 -0.795609 2.683901 -1.55874 2.12132 -2.12132 
C 1.55874 -2.683901 0.795609 -3 0 -3 
C -0.795609 -3 -1.55874 -2.683901 -2.12132 -2.12132 
C -2.683901 -1.55874 -3 -0.795609 -3 0 
C -3 0.795609 -2.683901 1.55874 -2.12132 2.12132 
C -1.55874 2.683901 -0.795609 3 0 3 
z
" style="stroke: #1f77b4"/>
    </defs>
    <g clip-path="url(#pe967beb9ba)">
     <use xlink:href="#m2a85ca5f07" x="610.376361" y="401.742815" style="fill: #1f77b4; stroke: #1f77b4"/>
     <use xlink:href="#m2a85ca5f07" x="589.592701" y="456.830407" style="fill: #1f77b4; stroke: #1f77b4"/>
     <use xlink:href="#m2a85ca5f07" x="610.15504" y="370.158725" style="fill: #1f77b4; stroke: #1f77b4"/>
     <use xlink:href="#m2a85ca5f07" x="571.506282" y="420.448499" style="fill: #1f77b4; stroke: #1f77b4"/>
     <use xlink:href="#m2a85ca5f07" x="612.914186" y="404.855549" style="fill: #1f77b4; stroke: #1f77b4"/>
     <use xlink:href="#m2a85ca5f07" x="577.398487" y="452.11247" style="fill: #1f77b4; stroke: #1f77b4"/>
     <use xlink:href="#m2a85ca5f07" x="589.739472" y="446.092894" style="fill: #1f77b4; stroke: #1f77b4"/>
     <use xlink:href="#m2a85ca5f07" x="551.68358" y="417.804155" style="fill: #1f77b4; stroke: #1f77b4"/>
     <use xlink:href="#m2a85ca5f07" x="596.857393" y="414.70913" style="fill: #1f77b4; stroke: #1f77b4"/>
     <use xlink:href="#m2a85ca5f07" x="574.255713" y="439.753012" style="fill: #1f77b4; stroke: #1f77b4"/>
     <use xlink:href="#m2a85ca5f07" x="554.253079" y="452.357555" style="fill: #1f77b4; stroke: #1f77b4"/>
     <use xlink:href="#m2a85ca5f07" x="595.475994" y="383.9514" style="fill: #1f77b4; stroke: #1f77b4"/>
     <use xlink:href="#m2a85ca5f07" x="634.133182" y="370.581547" style="fill: #1f77b4; stroke: #1f77b4"/>
     <use xlink:href="#m2a85ca5f07" x="626.572539" y="428.218277" style="fill: #1f77b4; stroke: #1f77b4"/>
     <use xlink:href="#m2a85ca5f07" x="564.265837" y="480.317758" style="fill: #1f77b4; stroke: #1f77b4"/>
     <use xlink:href="#m2a85ca5f07" x="583.791866" y="448.688123" style="fill: #1f77b4; stroke: #1f77b4"/>
     <use xlink:href="#m2a85ca5f07" x="575.145132" y="432.237439" style="fill: #1f77b4; stroke: #1f77b4"/>
     <use xlink:href="#m2a85ca5f07" x="601.41276" y="466.424257" style="fill: #1f77b4; stroke: #1f77b4"/>
     <use xlink:href="#m2a85ca5f07" x="541.605987" y="441.341019" style="fill: #1f77b4; stroke: #1f77b4"/>
     <use xlink:href="#m2a85ca5f07" x="585.032235" y="424.235064" style="fill: #1f77b4; stroke: #1f77b4"/>
     <use xlink:href="#m2a85ca5f07" x="598.838764" y="441.321111" style="fill: #1f77b4; stroke: #1f77b4"/>
     <use xlink:href="#m2a85ca5f07" x="585.941767" y="455.459743" style="fill: #1f77b4; stroke: #1f77b4"/>
     <use xlink:href="#m2a85ca5f07" x="583.986531" y="422.23373" style="fill: #1f77b4; stroke: #1f77b4"/>
     <use xlink:href="#m2a85ca5f07" x="574.242545" y="455.185584" style="fill: #1f77b4; stroke: #1f77b4"/>
     <use xlink:href="#m2a85ca5f07" x="559.827775" y="462.906215" style="fill: #1f77b4; stroke: #1f77b4"/>
     <use xlink:href="#m2a85ca5f07" x="570.145999" y="439.865164" style="fill: #1f77b4; stroke: #1f77b4"/>
     <use xlink:href="#m2a85ca5f07" x="623.575251" y="352.648859" style="fill: #1f77b4; stroke: #1f77b4"/>
     <use xlink:href="#m2a85ca5f07" x="581.132602" y="451.699922" style="fill: #1f77b4; stroke: #1f77b4"/>
     <use xlink:href="#m2a85ca5f07" x="579.507641" y="439.596461" style="fill: #1f77b4; stroke: #1f77b4"/>
     <use xlink:href="#m2a85ca5f07" x="585.059615" y="405.993218" style="fill: #1f77b4; stroke: #1f77b4"/>
     <use xlink:href="#m2a85ca5f07" x="559.53347" y="442.844841" style="fill: #1f77b4; stroke: #1f77b4"/>
     <use xlink:href="#m2a85ca5f07" x="696.24" y="415.908051" style="fill: #1f77b4; stroke: #1f77b4"/>
     <use xlink:href="#m2a85ca5f07" x="550.323698" y="456.934951" style="fill: #1f77b4; stroke: #1f77b4"/>
     <use xlink:href="#m2a85ca5f07" x="569.124823" y="430.103546" style="fill: #1f77b4; stroke: #1f77b4"/>
     <use xlink:href="#m2a85ca5f07" x="564.023039" y="442.161142" style="fill: #1f77b4; stroke: #1f77b4"/>
     <use xlink:href="#m2a85ca5f07" x="580.358119" y="448.098796" style="fill: #1f77b4; stroke: #1f77b4"/>
     <use xlink:href="#m2a85ca5f07" x="560.706797" y="446.51199" style="fill: #1f77b4; stroke: #1f77b4"/>
     <use xlink:href="#m2a85ca5f07" x="546.383919" y="499.48" style="fill: #1f77b4; stroke: #1f77b4"/>
     <use xlink:href="#m2a85ca5f07" x="555.24796" y="420.133121" style="fill: #1f77b4; stroke: #1f77b4"/>
     <use xlink:href="#m2a85ca5f07" x="582.535118" y="447.378212" style="fill: #1f77b4; stroke: #1f77b4"/>
     <use xlink:href="#m2a85ca5f07" x="588.665465" y="432.521966" style="fill: #1f77b4; stroke: #1f77b4"/>
     <use xlink:href="#m2a85ca5f07" x="578.842112" y="460.944229" style="fill: #1f77b4; stroke: #1f77b4"/>
     <use xlink:href="#m2a85ca5f07" x="545.11886" y="473.565772" style="fill: #1f77b4; stroke: #1f77b4"/>
     <use xlink:href="#m2a85ca5f07" x="546.258826" y="444.016963" style="fill: #1f77b4; stroke: #1f77b4"/>
     <use xlink:href="#m2a85ca5f07" x="577.808531" y="421.332338" style="fill: #1f77b4; stroke: #1f77b4"/>
     <use xlink:href="#m2a85ca5f07" x="596.13815" y="424.035564" style="fill: #1f77b4; stroke: #1f77b4"/>
     <use xlink:href="#m2a85ca5f07" x="587.526262" y="421.697571" style="fill: #1f77b4; stroke: #1f77b4"/>
     <use xlink:href="#m2a85ca5f07" x="581.570547" y="425.681564" style="fill: #1f77b4; stroke: #1f77b4"/>
     <use xlink:href="#m2a85ca5f07" x="584.428932" y="445.282966" style="fill: #1f77b4; stroke: #1f77b4"/>
     <use xlink:href="#m2a85ca5f07" x="595.272136" y="430.203569" style="fill: #1f77b4; stroke: #1f77b4"/>
     <use xlink:href="#m2a85ca5f07" x="561.412792" y="428.301744" style="fill: #1f77b4; stroke: #1f77b4"/>
     <use xlink:href="#m2a85ca5f07" x="619.715522" y="379.644344" style="fill: #1f77b4; stroke: #1f77b4"/>
     <use xlink:href="#m2a85ca5f07" x="631.838638" y="409.35244" style="fill: #1f77b4; stroke: #1f77b4"/>
     <use xlink:href="#m2a85ca5f07" x="564.775562" y="450.23788" style="fill: #1f77b4; stroke: #1f77b4"/>
     <use xlink:href="#m2a85ca5f07" x="547.75468" y="464.553642" style="fill: #1f77b4; stroke: #1f77b4"/>
     <use xlink:href="#m2a85ca5f07" x="554.67605" y="451.957525" style="fill: #1f77b4; stroke: #1f77b4"/>
     <use xlink:href="#m2a85ca5f07" x="571.963296" y="460.432203" style="fill: #1f77b4; stroke: #1f77b4"/>
     <use xlink:href="#m2a85ca5f07" x="577.326788" y="481.896792" style="fill: #1f77b4; stroke: #1f77b4"/>
     <use xlink:href="#m2a85ca5f07" x="578.99338" y="466.219354" style="fill: #1f77b4; stroke: #1f77b4"/>
     <use xlink:href="#m2a85ca5f07" x="547.998121" y="459.850157" style="fill: #1f77b4; stroke: #1f77b4"/>
     <use xlink:href="#m2a85ca5f07" x="582.522552" y="422.501887" style="fill: #1f77b4; stroke: #1f77b4"/>
     <use xlink:href="#m2a85ca5f07" x="557.234991" y="458.052369" style="fill: #1f77b4; stroke: #1f77b4"/>
     <use xlink:href="#m2a85ca5f07" x="574.331628" y="449.706827" style="fill: #1f77b4; stroke: #1f77b4"/>
     <use xlink:href="#m2a85ca5f07" x="568.467966" y="452.104208" style="fill: #1f77b4; stroke: #1f77b4"/>
     <use xlink:href="#m2a85ca5f07" x="565.625719" y="495.116962" style="fill: #1f77b4; stroke: #1f77b4"/>
     <use xlink:href="#m2a85ca5f07" x="586.712436" y="457.896137" style="fill: #1f77b4; stroke: #1f77b4"/>
     <use xlink:href="#m2a85ca5f07" x="602.415871" y="475.337393" style="fill: #1f77b4; stroke: #1f77b4"/>
     <use xlink:href="#m2a85ca5f07" x="589.263188" y="402.118229" style="fill: #1f77b4; stroke: #1f77b4"/>
     <use xlink:href="#m2a85ca5f07" x="574.06707" y="456.697108" style="fill: #1f77b4; stroke: #1f77b4"/>
     <use xlink:href="#m2a85ca5f07" x="567.487738" y="468.762709" style="fill: #1f77b4; stroke: #1f77b4"/>
     <use xlink:href="#m2a85ca5f07" x="561.430937" y="423.113765" style="fill: #1f77b4; stroke: #1f77b4"/>
     <use xlink:href="#m2a85ca5f07" x="590.944714" y="404.909505" style="fill: #1f77b4; stroke: #1f77b4"/>
     <use xlink:href="#m2a85ca5f07" x="619.430651" y="380.556618" style="fill: #1f77b4; stroke: #1f77b4"/>
     <use xlink:href="#m2a85ca5f07" x="591.629593" y="403.868492" style="fill: #1f77b4; stroke: #1f77b4"/>
     <use xlink:href="#m2a85ca5f07" x="612.051102" y="444.911823" style="fill: #1f77b4; stroke: #1f77b4"/>
     <use xlink:href="#m2a85ca5f07" x="577.157455" y="459.893403" style="fill: #1f77b4; stroke: #1f77b4"/>
     <use xlink:href="#m2a85ca5f07" x="585.184707" y="364.399386" style="fill: #1f77b4; stroke: #1f77b4"/>
     <use xlink:href="#m2a85ca5f07" x="547.983348" y="437.945426" style="fill: #1f77b4; stroke: #1f77b4"/>
     <use xlink:href="#m2a85ca5f07" x="563.579875" y="429.219864" style="fill: #1f77b4; stroke: #1f77b4"/>
     <use xlink:href="#m2a85ca5f07" x="582.163934" y="448.003559" style="fill: #1f77b4; stroke: #1f77b4"/>
     <use xlink:href="#m2a85ca5f07" x="599.092964" y="408.562763" style="fill: #1f77b4; stroke: #1f77b4"/>
     <use xlink:href="#m2a85ca5f07" x="586.846963" y="469.556891" style="fill: #1f77b4; stroke: #1f77b4"/>
     <use xlink:href="#m2a85ca5f07" x="583.709488" y="455.053633" style="fill: #1f77b4; stroke: #1f77b4"/>
     <use xlink:href="#m2a85ca5f07" x="576.357279" y="389.664812" style="fill: #1f77b4; stroke: #1f77b4"/>
     <use xlink:href="#m2a85ca5f07" x="564.612532" y="410.392689" style="fill: #1f77b4; stroke: #1f77b4"/>
     <use xlink:href="#m2a85ca5f07" x="570.114927" y="440.602164" style="fill: #1f77b4; stroke: #1f77b4"/>
     <use xlink:href="#m2a85ca5f07" x="618.796475" y="380.500838" style="fill: #1f77b4; stroke: #1f77b4"/>
     <use xlink:href="#m2a85ca5f07" x="608.458741" y="406.658942" style="fill: #1f77b4; stroke: #1f77b4"/>
     <use xlink:href="#m2a85ca5f07" x="577.539839" y="408.482071" style="fill: #1f77b4; stroke: #1f77b4"/>
     <use xlink:href="#m2a85ca5f07" x="555.280799" y="445.030928" style="fill: #1f77b4; stroke: #1f77b4"/>
     <use xlink:href="#m2a85ca5f07" x="581.731329" y="464.376091" style="fill: #1f77b4; stroke: #1f77b4"/>
     <use xlink:href="#m2a85ca5f07" x="569.095798" y="456.291076" style="fill: #1f77b4; stroke: #1f77b4"/>
     <use xlink:href="#m2a85ca5f07" x="561.576303" y="441.978432" style="fill: #1f77b4; stroke: #1f77b4"/>
     <use xlink:href="#m2a85ca5f07" x="629.486766" y="412.696743" style="fill: #1f77b4; stroke: #1f77b4"/>
     <use xlink:href="#m2a85ca5f07" x="599.092964" y="418.994829" style="fill: #1f77b4; stroke: #1f77b4"/>
     <use xlink:href="#m2a85ca5f07" x="584.16301" y="427.44221" style="fill: #1f77b4; stroke: #1f77b4"/>
     <use xlink:href="#m2a85ca5f07" x="556.216144" y="427.302994" style="fill: #1f77b4; stroke: #1f77b4"/>
     <use xlink:href="#m2a85ca5f07" x="546.679308" y="482.186307" style="fill: #1f77b4; stroke: #1f77b4"/>
     <use xlink:href="#m2a85ca5f07" x="583.58564" y="400.979188" style="fill: #1f77b4; stroke: #1f77b4"/>
     <use xlink:href="#m2a85ca5f07" x="590.96017" y="392.741566" style="fill: #1f77b4; stroke: #1f77b4"/>
     <use xlink:href="#m2a85ca5f07" x="599.524366" y="412.539522" style="fill: #1f77b4; stroke: #1f77b4"/>
     <use xlink:href="#m2a85ca5f07" x="592.283439" y="415.055438" style="fill: #1f77b4; stroke: #1f77b4"/>
     <use xlink:href="#m2a85ca5f07" x="546.562244" y="490.384948" style="fill: #1f77b4; stroke: #1f77b4"/>
     <use xlink:href="#m2a85ca5f07" x="591.395827" y="423.083271" style="fill: #1f77b4; stroke: #1f77b4"/>
     <use xlink:href="#m2a85ca5f07" x="587.757378" y="386.684387" style="fill: #1f77b4; stroke: #1f77b4"/>
     <use xlink:href="#m2a85ca5f07" x="616.267563" y="375.781343" style="fill: #1f77b4; stroke: #1f77b4"/>
     <use xlink:href="#m2a85ca5f07" x="550.115866" y="452.878903" style="fill: #1f77b4; stroke: #1f77b4"/>
     <use xlink:href="#m2a85ca5f07" x="573.555699" y="456.940017" style="fill: #1f77b4; stroke: #1f77b4"/>
     <use xlink:href="#m2a85ca5f07" x="561.388263" y="404.921758" style="fill: #1f77b4; stroke: #1f77b4"/>
     <use xlink:href="#m2a85ca5f07" x="574.844404" y="370.573113" style="fill: #1f77b4; stroke: #1f77b4"/>
     <use xlink:href="#m2a85ca5f07" x="646.011332" y="401.523812" style="fill: #1f77b4; stroke: #1f77b4"/>
     <use xlink:href="#m2a85ca5f07" x="563.385491" y="424.31083" style="fill: #1f77b4; stroke: #1f77b4"/>
     <use xlink:href="#m2a85ca5f07" x="583.553203" y="464.793784" style="fill: #1f77b4; stroke: #1f77b4"/>
     <use xlink:href="#m2a85ca5f07" x="606.601901" y="333.702782" style="fill: #1f77b4; stroke: #1f77b4"/>
     <use xlink:href="#m2a85ca5f07" x="563.974784" y="464.679146" style="fill: #1f77b4; stroke: #1f77b4"/>
     <use xlink:href="#m2a85ca5f07" x="596.908538" y="439.616884" style="fill: #1f77b4; stroke: #1f77b4"/>
     <use xlink:href="#m2a85ca5f07" x="583.199844" y="468.060061" style="fill: #1f77b4; stroke: #1f77b4"/>
     <use xlink:href="#m2a85ca5f07" x="555.677434" y="467.302615" style="fill: #1f77b4; stroke: #1f77b4"/>
     <use xlink:href="#m2a85ca5f07" x="591.881264" y="416.851535" style="fill: #1f77b4; stroke: #1f77b4"/>
     <use xlink:href="#m2a85ca5f07" x="559.478591" y="493.099523" style="fill: #1f77b4; stroke: #1f77b4"/>
     <use xlink:href="#m2a85ca5f07" x="583.495795" y="394.463097" style="fill: #1f77b4; stroke: #1f77b4"/>
     <use xlink:href="#m2a85ca5f07" x="612.588768" y="406.04892" style="fill: #1f77b4; stroke: #1f77b4"/>
     <use xlink:href="#m2a85ca5f07" x="565.586136" y="428.35729" style="fill: #1f77b4; stroke: #1f77b4"/>
     <use xlink:href="#m2a85ca5f07" x="573.403187" y="479.020482" style="fill: #1f77b4; stroke: #1f77b4"/>
     <use xlink:href="#m2a85ca5f07" x="565.070389" y="463.855772" style="fill: #1f77b4; stroke: #1f77b4"/>
     <use xlink:href="#m2a85ca5f07" x="580.357196" y="462.426164" style="fill: #1f77b4; stroke: #1f77b4"/>
     <use xlink:href="#m2a85ca5f07" x="592.675097" y="447.8862" style="fill: #1f77b4; stroke: #1f77b4"/>
     <use xlink:href="#m2a85ca5f07" x="589.276195" y="455.189824" style="fill: #1f77b4; stroke: #1f77b4"/>
     <use xlink:href="#m2a85ca5f07" x="581.669906" y="449.475531" style="fill: #1f77b4; stroke: #1f77b4"/>
     <use xlink:href="#m2a85ca5f07" x="611.894696" y="366.75264" style="fill: #1f77b4; stroke: #1f77b4"/>
     <use xlink:href="#m2a85ca5f07" x="601.890248" y="405.141915" style="fill: #1f77b4; stroke: #1f77b4"/>
     <use xlink:href="#m2a85ca5f07" x="575.593354" y="437.797574" style="fill: #1f77b4; stroke: #1f77b4"/>
     <use xlink:href="#m2a85ca5f07" x="566.89138" y="413.13595" style="fill: #1f77b4; stroke: #1f77b4"/>
     <use xlink:href="#m2a85ca5f07" x="582.788314" y="432.726657" style="fill: #1f77b4; stroke: #1f77b4"/>
     <use xlink:href="#m2a85ca5f07" x="622.119221" y="392.899083" style="fill: #1f77b4; stroke: #1f77b4"/>
     <use xlink:href="#m2a85ca5f07" x="576.965039" y="444.635388" style="fill: #1f77b4; stroke: #1f77b4"/>
     <use xlink:href="#m2a85ca5f07" x="561.884659" y="478.651717" style="fill: #1f77b4; stroke: #1f77b4"/>
     <use xlink:href="#m2a85ca5f07" x="565.581559" y="466.457689" style="fill: #1f77b4; stroke: #1f77b4"/>
     <use xlink:href="#m2a85ca5f07" x="535.689213" y="472.675277" style="fill: #1f77b4; stroke: #1f77b4"/>
     <use xlink:href="#m2a85ca5f07" x="593.636617" y="434.802401" style="fill: #1f77b4; stroke: #1f77b4"/>
     <use xlink:href="#m2a85ca5f07" x="577.801988" y="448.115445" style="fill: #1f77b4; stroke: #1f77b4"/>
     <use xlink:href="#m2a85ca5f07" x="625.269342" y="197.86738" style="fill: #1f77b4; stroke: #1f77b4"/>
     <use xlink:href="#m2a85ca5f07" x="548.403187" y="423.000038" style="fill: #1f77b4; stroke: #1f77b4"/>
     <use xlink:href="#m2a85ca5f07" x="571.667987" y="441.94889" style="fill: #1f77b4; stroke: #1f77b4"/>
     <use xlink:href="#m2a85ca5f07" x="590.333823" y="474.573603" style="fill: #1f77b4; stroke: #1f77b4"/>
     <use xlink:href="#m2a85ca5f07" x="567.927771" y="436.944759" style="fill: #1f77b4; stroke: #1f77b4"/>
     <use xlink:href="#m2a85ca5f07" x="570.050252" y="445.42413" style="fill: #1f77b4; stroke: #1f77b4"/>
     <use xlink:href="#m2a85ca5f07" x="609.713442" y="442.704722" style="fill: #1f77b4; stroke: #1f77b4"/>
     <use xlink:href="#m2a85ca5f07" x="581.976938" y="428.922928" style="fill: #1f77b4; stroke: #1f77b4"/>
     <use xlink:href="#m2a85ca5f07" x="591.304215" y="455.770998" style="fill: #1f77b4; stroke: #1f77b4"/>
     <use xlink:href="#m2a85ca5f07" x="572.712086" y="430.045709" style="fill: #1f77b4; stroke: #1f77b4"/>
     <use xlink:href="#m2a85ca5f07" x="618.478966" y="401.201325" style="fill: #1f77b4; stroke: #1f77b4"/>
     <use xlink:href="#m2a85ca5f07" x="568.090078" y="461.212223" style="fill: #1f77b4; stroke: #1f77b4"/>
     <use xlink:href="#m2a85ca5f07" x="548.338754" y="434.171208" style="fill: #1f77b4; stroke: #1f77b4"/>
     <use xlink:href="#m2a85ca5f07" x="619.205757" y="340.595518" style="fill: #1f77b4; stroke: #1f77b4"/>
     <use xlink:href="#m2a85ca5f07" x="575.605879" y="433.59447" style="fill: #1f77b4; stroke: #1f77b4"/>
     <use xlink:href="#m2a85ca5f07" x="571.971566" y="451.100618" style="fill: #1f77b4; stroke: #1f77b4"/>
     <use xlink:href="#m2a85ca5f07" x="558.904474" y="484.949515" style="fill: #1f77b4; stroke: #1f77b4"/>
     <use xlink:href="#m2a85ca5f07" x="529.96357" y="469.684126" style="fill: #1f77b4; stroke: #1f77b4"/>
     <use xlink:href="#m2a85ca5f07" x="578.85544" y="439.734336" style="fill: #1f77b4; stroke: #1f77b4"/>
     <use xlink:href="#m2a85ca5f07" x="566.643443" y="458.463685" style="fill: #1f77b4; stroke: #1f77b4"/>
     <use xlink:href="#m2a85ca5f07" x="581.488088" y="446.57321" style="fill: #1f77b4; stroke: #1f77b4"/>
     <use xlink:href="#m2a85ca5f07" x="611.094199" y="355.564213" style="fill: #1f77b4; stroke: #1f77b4"/>
     <use xlink:href="#m2a85ca5f07" x="577.228673" y="477.715537" style="fill: #1f77b4; stroke: #1f77b4"/>
     <use xlink:href="#m2a85ca5f07" x="561.104275" y="381.138407" style="fill: #1f77b4; stroke: #1f77b4"/>
     <use xlink:href="#m2a85ca5f07" x="574.756124" y="478.000734" style="fill: #1f77b4; stroke: #1f77b4"/>
     <use xlink:href="#m2a85ca5f07" x="567.302508" y="475.10821" style="fill: #1f77b4; stroke: #1f77b4"/>
     <use xlink:href="#m2a85ca5f07" x="580.478033" y="464.69472" style="fill: #1f77b4; stroke: #1f77b4"/>
     <use xlink:href="#m2a85ca5f07" x="586.594289" y="472.820658" style="fill: #1f77b4; stroke: #1f77b4"/>
     <use xlink:href="#m2a85ca5f07" x="567.482198" y="460.528664" style="fill: #1f77b4; stroke: #1f77b4"/>
     <use xlink:href="#m2a85ca5f07" x="592.024663" y="469.042925" style="fill: #1f77b4; stroke: #1f77b4"/>
     <use xlink:href="#m2a85ca5f07" x="584.045063" y="406.495937" style="fill: #1f77b4; stroke: #1f77b4"/>
     <use xlink:href="#m2a85ca5f07" x="635.8347" y="392.904883" style="fill: #1f77b4; stroke: #1f77b4"/>
     <use xlink:href="#m2a85ca5f07" x="567.988952" y="483.335965" style="fill: #1f77b4; stroke: #1f77b4"/>
     <use xlink:href="#m2a85ca5f07" x="623.768711" y="370.108495" style="fill: #1f77b4; stroke: #1f77b4"/>
     <use xlink:href="#m2a85ca5f07" x="561.855113" y="423.931176" style="fill: #1f77b4; stroke: #1f77b4"/>
     <use xlink:href="#m2a85ca5f07" x="555.645519" y="452.11042" style="fill: #1f77b4; stroke: #1f77b4"/>
     <use xlink:href="#m2a85ca5f07" x="619.146382" y="407.240669" style="fill: #1f77b4; stroke: #1f77b4"/>
     <use xlink:href="#m2a85ca5f07" x="575.435142" y="437.428147" style="fill: #1f77b4; stroke: #1f77b4"/>
     <use xlink:href="#m2a85ca5f07" x="575.088607" y="394.26963" style="fill: #1f77b4; stroke: #1f77b4"/>
     <use xlink:href="#m2a85ca5f07" x="591.962718" y="438.959313" style="fill: #1f77b4; stroke: #1f77b4"/>
     <use xlink:href="#m2a85ca5f07" x="557.88683" y="441.05604" style="fill: #1f77b4; stroke: #1f77b4"/>
     <use xlink:href="#m2a85ca5f07" x="605.982941" y="436.173415" style="fill: #1f77b4; stroke: #1f77b4"/>
     <use xlink:href="#m2a85ca5f07" x="575.14726" y="450.625742" style="fill: #1f77b4; stroke: #1f77b4"/>
     <use xlink:href="#m2a85ca5f07" x="597.054868" y="466.723352" style="fill: #1f77b4; stroke: #1f77b4"/>
     <use xlink:href="#m2a85ca5f07" x="606.838276" y="464.558155" style="fill: #1f77b4; stroke: #1f77b4"/>
     <use xlink:href="#m2a85ca5f07" x="558.233806" y="440.822367" style="fill: #1f77b4; stroke: #1f77b4"/>
     <use xlink:href="#m2a85ca5f07" x="568.964764" y="485.089751" style="fill: #1f77b4; stroke: #1f77b4"/>
     <use xlink:href="#m2a85ca5f07" x="577.317715" y="453.360366" style="fill: #1f77b4; stroke: #1f77b4"/>
     <use xlink:href="#m2a85ca5f07" x="575.758151" y="440.215868" style="fill: #1f77b4; stroke: #1f77b4"/>
     <use xlink:href="#m2a85ca5f07" x="574.741953" y="447.164291" style="fill: #1f77b4; stroke: #1f77b4"/>
     <use xlink:href="#m2a85ca5f07" x="587.130349" y="459.971491" style="fill: #1f77b4; stroke: #1f77b4"/>
     <use xlink:href="#m2a85ca5f07" x="613.698585" y="381.440472" style="fill: #1f77b4; stroke: #1f77b4"/>
     <use xlink:href="#m2a85ca5f07" x="571.129117" y="454.841583" style="fill: #1f77b4; stroke: #1f77b4"/>
     <use xlink:href="#m2a85ca5f07" x="591.898927" y="452.148389" style="fill: #1f77b4; stroke: #1f77b4"/>
     <use xlink:href="#m2a85ca5f07" x="560.029305" y="452.188111" style="fill: #1f77b4; stroke: #1f77b4"/>
     <use xlink:href="#m2a85ca5f07" x="558.891266" y="439.873988" style="fill: #1f77b4; stroke: #1f77b4"/>
     <use xlink:href="#m2a85ca5f07" x="604.949962" y="442.32513" style="fill: #1f77b4; stroke: #1f77b4"/>
     <use xlink:href="#m2a85ca5f07" x="546.403751" y="457.408127" style="fill: #1f77b4; stroke: #1f77b4"/>
     <use xlink:href="#m2a85ca5f07" x="591.992827" y="429.198568" style="fill: #1f77b4; stroke: #1f77b4"/>
    </g>
   </g>
   <g id="matplotlib.axis_1">
    <g id="xtick_1">
     <g id="line2d_1">
      <defs>
       <path id="m4cfe4448fc" d="M 0 0 
L 0 3.5 
" style="stroke: #000000; stroke-width: 0.8"/>
      </defs>
      <g>
       <use xlink:href="#m4cfe4448fc" x="149.825369" y="499.48" style="stroke: #000000; stroke-width: 0.8"/>
      </g>
     </g>
     <g id="text_1">
      <!-- 4 -->
      <g transform="translate(142.826619 523.196563) scale(0.22 -0.22)">
       <defs>
        <path id="DejaVuSans-34" d="M 2419 4116 
L 825 1625 
L 2419 1625 
L 2419 4116 
z
M 2253 4666 
L 3047 4666 
L 3047 1625 
L 3713 1625 
L 3713 1100 
L 3047 1100 
L 3047 0 
L 2419 0 
L 2419 1100 
L 313 1100 
L 313 1709 
L 2253 4666 
z
" transform="scale(0.015625)"/>
       </defs>
       <use xlink:href="#DejaVuSans-34"/>
      </g>
     </g>
    </g>
    <g id="xtick_2">
     <g id="line2d_2">
      <g>
       <use xlink:href="#m4cfe4448fc" x="234.016154" y="499.48" style="stroke: #000000; stroke-width: 0.8"/>
      </g>
     </g>
     <g id="text_2">
      <!-- 6 -->
      <g transform="translate(227.017404 523.196563) scale(0.22 -0.22)">
       <defs>
        <path id="DejaVuSans-36" d="M 2113 2584 
Q 1688 2584 1439 2293 
Q 1191 2003 1191 1497 
Q 1191 994 1439 701 
Q 1688 409 2113 409 
Q 2538 409 2786 701 
Q 3034 994 3034 1497 
Q 3034 2003 2786 2293 
Q 2538 2584 2113 2584 
z
M 3366 4563 
L 3366 3988 
Q 3128 4100 2886 4159 
Q 2644 4219 2406 4219 
Q 1781 4219 1451 3797 
Q 1122 3375 1075 2522 
Q 1259 2794 1537 2939 
Q 1816 3084 2150 3084 
Q 2853 3084 3261 2657 
Q 3669 2231 3669 1497 
Q 3669 778 3244 343 
Q 2819 -91 2113 -91 
Q 1303 -91 875 529 
Q 447 1150 447 2328 
Q 447 3434 972 4092 
Q 1497 4750 2381 4750 
Q 2619 4750 2861 4703 
Q 3103 4656 3366 4563 
z
" transform="scale(0.015625)"/>
       </defs>
       <use xlink:href="#DejaVuSans-36"/>
      </g>
     </g>
    </g>
    <g id="xtick_3">
     <g id="line2d_3">
      <g>
       <use xlink:href="#m4cfe4448fc" x="318.206938" y="499.48" style="stroke: #000000; stroke-width: 0.8"/>
      </g>
     </g>
     <g id="text_3">
      <!-- 8 -->
      <g transform="translate(311.208188 523.196563) scale(0.22 -0.22)">
       <defs>
        <path id="DejaVuSans-38" d="M 2034 2216 
Q 1584 2216 1326 1975 
Q 1069 1734 1069 1313 
Q 1069 891 1326 650 
Q 1584 409 2034 409 
Q 2484 409 2743 651 
Q 3003 894 3003 1313 
Q 3003 1734 2745 1975 
Q 2488 2216 2034 2216 
z
M 1403 2484 
Q 997 2584 770 2862 
Q 544 3141 544 3541 
Q 544 4100 942 4425 
Q 1341 4750 2034 4750 
Q 2731 4750 3128 4425 
Q 3525 4100 3525 3541 
Q 3525 3141 3298 2862 
Q 3072 2584 2669 2484 
Q 3125 2378 3379 2068 
Q 3634 1759 3634 1313 
Q 3634 634 3220 271 
Q 2806 -91 2034 -91 
Q 1263 -91 848 271 
Q 434 634 434 1313 
Q 434 1759 690 2068 
Q 947 2378 1403 2484 
z
M 1172 3481 
Q 1172 3119 1398 2916 
Q 1625 2713 2034 2713 
Q 2441 2713 2670 2916 
Q 2900 3119 2900 3481 
Q 2900 3844 2670 4047 
Q 2441 4250 2034 4250 
Q 1625 4250 1398 4047 
Q 1172 3844 1172 3481 
z
" transform="scale(0.015625)"/>
       </defs>
       <use xlink:href="#DejaVuSans-38"/>
      </g>
     </g>
    </g>
    <g id="xtick_4">
     <g id="line2d_4">
      <g>
       <use xlink:href="#m4cfe4448fc" x="402.397722" y="499.48" style="stroke: #000000; stroke-width: 0.8"/>
      </g>
     </g>
     <g id="text_4">
      <!-- 10 -->
      <g transform="translate(388.400222 523.196563) scale(0.22 -0.22)">
       <defs>
        <path id="DejaVuSans-31" d="M 794 531 
L 1825 531 
L 1825 4091 
L 703 3866 
L 703 4441 
L 1819 4666 
L 2450 4666 
L 2450 531 
L 3481 531 
L 3481 0 
L 794 0 
L 794 531 
z
" transform="scale(0.015625)"/>
        <path id="DejaVuSans-30" d="M 2034 4250 
Q 1547 4250 1301 3770 
Q 1056 3291 1056 2328 
Q 1056 1369 1301 889 
Q 1547 409 2034 409 
Q 2525 409 2770 889 
Q 3016 1369 3016 2328 
Q 3016 3291 2770 3770 
Q 2525 4250 2034 4250 
z
M 2034 4750 
Q 2819 4750 3233 4129 
Q 3647 3509 3647 2328 
Q 3647 1150 3233 529 
Q 2819 -91 2034 -91 
Q 1250 -91 836 529 
Q 422 1150 422 2328 
Q 422 3509 836 4129 
Q 1250 4750 2034 4750 
z
" transform="scale(0.015625)"/>
       </defs>
       <use xlink:href="#DejaVuSans-31"/>
       <use xlink:href="#DejaVuSans-30" x="63.623047"/>
      </g>
     </g>
    </g>
    <g id="xtick_5">
     <g id="line2d_5">
      <g>
       <use xlink:href="#m4cfe4448fc" x="486.588507" y="499.48" style="stroke: #000000; stroke-width: 0.8"/>
      </g>
     </g>
     <g id="text_5">
      <!-- 12 -->
      <g transform="translate(472.591007 523.196563) scale(0.22 -0.22)">
       <defs>
        <path id="DejaVuSans-32" d="M 1228 531 
L 3431 531 
L 3431 0 
L 469 0 
L 469 531 
Q 828 903 1448 1529 
Q 2069 2156 2228 2338 
Q 2531 2678 2651 2914 
Q 2772 3150 2772 3378 
Q 2772 3750 2511 3984 
Q 2250 4219 1831 4219 
Q 1534 4219 1204 4116 
Q 875 4013 500 3803 
L 500 4441 
Q 881 4594 1212 4672 
Q 1544 4750 1819 4750 
Q 2544 4750 2975 4387 
Q 3406 4025 3406 3419 
Q 3406 3131 3298 2873 
Q 3191 2616 2906 2266 
Q 2828 2175 2409 1742 
Q 1991 1309 1228 531 
z
" transform="scale(0.015625)"/>
       </defs>
       <use xlink:href="#DejaVuSans-31"/>
       <use xlink:href="#DejaVuSans-32" x="63.623047"/>
      </g>
     </g>
    </g>
    <g id="xtick_6">
     <g id="line2d_6">
      <g>
       <use xlink:href="#m4cfe4448fc" x="570.779291" y="499.48" style="stroke: #000000; stroke-width: 0.8"/>
      </g>
     </g>
     <g id="text_6">
      <!-- 14 -->
      <g transform="translate(556.781791 523.196563) scale(0.22 -0.22)">
       <use xlink:href="#DejaVuSans-31"/>
       <use xlink:href="#DejaVuSans-34" x="63.623047"/>
      </g>
     </g>
    </g>
    <g id="xtick_7">
     <g id="line2d_7">
      <g>
       <use xlink:href="#m4cfe4448fc" x="654.970075" y="499.48" style="stroke: #000000; stroke-width: 0.8"/>
      </g>
     </g>
     <g id="text_7">
      <!-- 16 -->
      <g transform="translate(640.972575 523.196563) scale(0.22 -0.22)">
       <use xlink:href="#DejaVuSans-31"/>
       <use xlink:href="#DejaVuSans-36" x="63.623047"/>
      </g>
     </g>
    </g>
    <g id="text_8">
     <!-- Uncertainties -->
     <g transform="translate(316.671875 548.488438) scale(0.22 -0.22)">
      <defs>
       <path id="DejaVuSans-55" d="M 556 4666 
L 1191 4666 
L 1191 1831 
Q 1191 1081 1462 751 
Q 1734 422 2344 422 
Q 2950 422 3222 751 
Q 3494 1081 3494 1831 
L 3494 4666 
L 4128 4666 
L 4128 1753 
Q 4128 841 3676 375 
Q 3225 -91 2344 -91 
Q 1459 -91 1007 375 
Q 556 841 556 1753 
L 556 4666 
z
" transform="scale(0.015625)"/>
       <path id="DejaVuSans-6e" d="M 3513 2113 
L 3513 0 
L 2938 0 
L 2938 2094 
Q 2938 2591 2744 2837 
Q 2550 3084 2163 3084 
Q 1697 3084 1428 2787 
Q 1159 2491 1159 1978 
L 1159 0 
L 581 0 
L 581 3500 
L 1159 3500 
L 1159 2956 
Q 1366 3272 1645 3428 
Q 1925 3584 2291 3584 
Q 2894 3584 3203 3211 
Q 3513 2838 3513 2113 
z
" transform="scale(0.015625)"/>
       <path id="DejaVuSans-63" d="M 3122 3366 
L 3122 2828 
Q 2878 2963 2633 3030 
Q 2388 3097 2138 3097 
Q 1578 3097 1268 2742 
Q 959 2388 959 1747 
Q 959 1106 1268 751 
Q 1578 397 2138 397 
Q 2388 397 2633 464 
Q 2878 531 3122 666 
L 3122 134 
Q 2881 22 2623 -34 
Q 2366 -91 2075 -91 
Q 1284 -91 818 406 
Q 353 903 353 1747 
Q 353 2603 823 3093 
Q 1294 3584 2113 3584 
Q 2378 3584 2631 3529 
Q 2884 3475 3122 3366 
z
" transform="scale(0.015625)"/>
       <path id="DejaVuSans-65" d="M 3597 1894 
L 3597 1613 
L 953 1613 
Q 991 1019 1311 708 
Q 1631 397 2203 397 
Q 2534 397 2845 478 
Q 3156 559 3463 722 
L 3463 178 
Q 3153 47 2828 -22 
Q 2503 -91 2169 -91 
Q 1331 -91 842 396 
Q 353 884 353 1716 
Q 353 2575 817 3079 
Q 1281 3584 2069 3584 
Q 2775 3584 3186 3129 
Q 3597 2675 3597 1894 
z
M 3022 2063 
Q 3016 2534 2758 2815 
Q 2500 3097 2075 3097 
Q 1594 3097 1305 2825 
Q 1016 2553 972 2059 
L 3022 2063 
z
" transform="scale(0.015625)"/>
       <path id="DejaVuSans-72" d="M 2631 2963 
Q 2534 3019 2420 3045 
Q 2306 3072 2169 3072 
Q 1681 3072 1420 2755 
Q 1159 2438 1159 1844 
L 1159 0 
L 581 0 
L 581 3500 
L 1159 3500 
L 1159 2956 
Q 1341 3275 1631 3429 
Q 1922 3584 2338 3584 
Q 2397 3584 2469 3576 
Q 2541 3569 2628 3553 
L 2631 2963 
z
" transform="scale(0.015625)"/>
       <path id="DejaVuSans-74" d="M 1172 4494 
L 1172 3500 
L 2356 3500 
L 2356 3053 
L 1172 3053 
L 1172 1153 
Q 1172 725 1289 603 
Q 1406 481 1766 481 
L 2356 481 
L 2356 0 
L 1766 0 
Q 1100 0 847 248 
Q 594 497 594 1153 
L 594 3053 
L 172 3053 
L 172 3500 
L 594 3500 
L 594 4494 
L 1172 4494 
z
" transform="scale(0.015625)"/>
       <path id="DejaVuSans-61" d="M 2194 1759 
Q 1497 1759 1228 1600 
Q 959 1441 959 1056 
Q 959 750 1161 570 
Q 1363 391 1709 391 
Q 2188 391 2477 730 
Q 2766 1069 2766 1631 
L 2766 1759 
L 2194 1759 
z
M 3341 1997 
L 3341 0 
L 2766 0 
L 2766 531 
Q 2569 213 2275 61 
Q 1981 -91 1556 -91 
Q 1019 -91 701 211 
Q 384 513 384 1019 
Q 384 1609 779 1909 
Q 1175 2209 1959 2209 
L 2766 2209 
L 2766 2266 
Q 2766 2663 2505 2880 
Q 2244 3097 1772 3097 
Q 1472 3097 1187 3025 
Q 903 2953 641 2809 
L 641 3341 
Q 956 3463 1253 3523 
Q 1550 3584 1831 3584 
Q 2591 3584 2966 3190 
Q 3341 2797 3341 1997 
z
" transform="scale(0.015625)"/>
       <path id="DejaVuSans-69" d="M 603 3500 
L 1178 3500 
L 1178 0 
L 603 0 
L 603 3500 
z
M 603 4863 
L 1178 4863 
L 1178 4134 
L 603 4134 
L 603 4863 
z
" transform="scale(0.015625)"/>
       <path id="DejaVuSans-73" d="M 2834 3397 
L 2834 2853 
Q 2591 2978 2328 3040 
Q 2066 3103 1784 3103 
Q 1356 3103 1142 2972 
Q 928 2841 928 2578 
Q 928 2378 1081 2264 
Q 1234 2150 1697 2047 
L 1894 2003 
Q 2506 1872 2764 1633 
Q 3022 1394 3022 966 
Q 3022 478 2636 193 
Q 2250 -91 1575 -91 
Q 1294 -91 989 -36 
Q 684 19 347 128 
L 347 722 
Q 666 556 975 473 
Q 1284 391 1588 391 
Q 1994 391 2212 530 
Q 2431 669 2431 922 
Q 2431 1156 2273 1281 
Q 2116 1406 1581 1522 
L 1381 1569 
Q 847 1681 609 1914 
Q 372 2147 372 2553 
Q 372 3047 722 3315 
Q 1072 3584 1716 3584 
Q 2034 3584 2315 3537 
Q 2597 3491 2834 3397 
z
" transform="scale(0.015625)"/>
      </defs>
      <use xlink:href="#DejaVuSans-55"/>
      <use xlink:href="#DejaVuSans-6e" x="73.193359"/>
      <use xlink:href="#DejaVuSans-63" x="136.572266"/>
      <use xlink:href="#DejaVuSans-65" x="191.552734"/>
      <use xlink:href="#DejaVuSans-72" x="253.076172"/>
      <use xlink:href="#DejaVuSans-74" x="294.189453"/>
      <use xlink:href="#DejaVuSans-61" x="333.398438"/>
      <use xlink:href="#DejaVuSans-69" x="394.677734"/>
      <use xlink:href="#DejaVuSans-6e" x="422.460938"/>
      <use xlink:href="#DejaVuSans-74" x="485.839844"/>
      <use xlink:href="#DejaVuSans-69" x="525.048828"/>
      <use xlink:href="#DejaVuSans-65" x="552.832031"/>
      <use xlink:href="#DejaVuSans-73" x="614.355469"/>
     </g>
    </g>
   </g>
   <g id="matplotlib.axis_2">
    <g id="ytick_1">
     <g id="line2d_8">
      <defs>
       <path id="m35ab5e08aa" d="M 0 0 
L -3.5 0 
" style="stroke: #000000; stroke-width: 0.8"/>
      </defs>
      <g>
       <use xlink:href="#m35ab5e08aa" x="83.72" y="448.13858" style="stroke: #000000; stroke-width: 0.8"/>
      </g>
     </g>
     <g id="text_9">
      <!-- 4 -->
      <g transform="translate(62.7225 456.496862) scale(0.22 -0.22)">
       <use xlink:href="#DejaVuSans-34"/>
      </g>
     </g>
    </g>
    <g id="ytick_2">
     <g id="line2d_9">
      <g>
       <use xlink:href="#m35ab5e08aa" x="83.72" y="382.750936" style="stroke: #000000; stroke-width: 0.8"/>
      </g>
     </g>
     <g id="text_10">
      <!-- 6 -->
      <g transform="translate(62.7225 391.109217) scale(0.22 -0.22)">
       <use xlink:href="#DejaVuSans-36"/>
      </g>
     </g>
    </g>
    <g id="ytick_3">
     <g id="line2d_10">
      <g>
       <use xlink:href="#m35ab5e08aa" x="83.72" y="317.363292" style="stroke: #000000; stroke-width: 0.8"/>
      </g>
     </g>
     <g id="text_11">
      <!-- 8 -->
      <g transform="translate(62.7225 325.721573) scale(0.22 -0.22)">
       <use xlink:href="#DejaVuSans-38"/>
      </g>
     </g>
    </g>
    <g id="ytick_4">
     <g id="line2d_11">
      <g>
       <use xlink:href="#m35ab5e08aa" x="83.72" y="251.975647" style="stroke: #000000; stroke-width: 0.8"/>
      </g>
     </g>
     <g id="text_12">
      <!-- 10 -->
      <g transform="translate(48.725 260.333929) scale(0.22 -0.22)">
       <use xlink:href="#DejaVuSans-31"/>
       <use xlink:href="#DejaVuSans-30" x="63.623047"/>
      </g>
     </g>
    </g>
    <g id="ytick_5">
     <g id="line2d_12">
      <g>
       <use xlink:href="#m35ab5e08aa" x="83.72" y="186.588003" style="stroke: #000000; stroke-width: 0.8"/>
      </g>
     </g>
     <g id="text_13">
      <!-- 12 -->
      <g transform="translate(48.725 194.946284) scale(0.22 -0.22)">
       <use xlink:href="#DejaVuSans-31"/>
       <use xlink:href="#DejaVuSans-32" x="63.623047"/>
      </g>
     </g>
    </g>
    <g id="ytick_6">
     <g id="line2d_13">
      <g>
       <use xlink:href="#m35ab5e08aa" x="83.72" y="121.200359" style="stroke: #000000; stroke-width: 0.8"/>
      </g>
     </g>
     <g id="text_14">
      <!-- 14 -->
      <g transform="translate(48.725 129.55864) scale(0.22 -0.22)">
       <use xlink:href="#DejaVuSans-31"/>
       <use xlink:href="#DejaVuSans-34" x="63.623047"/>
      </g>
     </g>
    </g>
    <g id="ytick_7">
     <g id="line2d_14">
      <g>
       <use xlink:href="#m35ab5e08aa" x="83.72" y="55.812714" style="stroke: #000000; stroke-width: 0.8"/>
      </g>
     </g>
     <g id="text_15">
      <!-- 16 -->
      <g transform="translate(48.725 64.170996) scale(0.22 -0.22)">
       <use xlink:href="#DejaVuSans-31"/>
       <use xlink:href="#DejaVuSans-36" x="63.623047"/>
      </g>
     </g>
    </g>
    <g id="text_16">
     <!-- Force Errors [kJ/(mol*A)] -->
     <g transform="translate(40.149688 394.9125) rotate(-90) scale(0.22 -0.22)">
      <defs>
       <path id="DejaVuSans-46" d="M 628 4666 
L 3309 4666 
L 3309 4134 
L 1259 4134 
L 1259 2759 
L 3109 2759 
L 3109 2228 
L 1259 2228 
L 1259 0 
L 628 0 
L 628 4666 
z
" transform="scale(0.015625)"/>
       <path id="DejaVuSans-6f" d="M 1959 3097 
Q 1497 3097 1228 2736 
Q 959 2375 959 1747 
Q 959 1119 1226 758 
Q 1494 397 1959 397 
Q 2419 397 2687 759 
Q 2956 1122 2956 1747 
Q 2956 2369 2687 2733 
Q 2419 3097 1959 3097 
z
M 1959 3584 
Q 2709 3584 3137 3096 
Q 3566 2609 3566 1747 
Q 3566 888 3137 398 
Q 2709 -91 1959 -91 
Q 1206 -91 779 398 
Q 353 888 353 1747 
Q 353 2609 779 3096 
Q 1206 3584 1959 3584 
z
" transform="scale(0.015625)"/>
       <path id="DejaVuSans-20" transform="scale(0.015625)"/>
       <path id="DejaVuSans-45" d="M 628 4666 
L 3578 4666 
L 3578 4134 
L 1259 4134 
L 1259 2753 
L 3481 2753 
L 3481 2222 
L 1259 2222 
L 1259 531 
L 3634 531 
L 3634 0 
L 628 0 
L 628 4666 
z
" transform="scale(0.015625)"/>
       <path id="DejaVuSans-5b" d="M 550 4863 
L 1875 4863 
L 1875 4416 
L 1125 4416 
L 1125 -397 
L 1875 -397 
L 1875 -844 
L 550 -844 
L 550 4863 
z
" transform="scale(0.015625)"/>
       <path id="DejaVuSans-6b" d="M 581 4863 
L 1159 4863 
L 1159 1991 
L 2875 3500 
L 3609 3500 
L 1753 1863 
L 3688 0 
L 2938 0 
L 1159 1709 
L 1159 0 
L 581 0 
L 581 4863 
z
" transform="scale(0.015625)"/>
       <path id="DejaVuSans-4a" d="M 628 4666 
L 1259 4666 
L 1259 325 
Q 1259 -519 939 -900 
Q 619 -1281 -91 -1281 
L -331 -1281 
L -331 -750 
L -134 -750 
Q 284 -750 456 -515 
Q 628 -281 628 325 
L 628 4666 
z
" transform="scale(0.015625)"/>
       <path id="DejaVuSans-2f" d="M 1625 4666 
L 2156 4666 
L 531 -594 
L 0 -594 
L 1625 4666 
z
" transform="scale(0.015625)"/>
       <path id="DejaVuSans-28" d="M 1984 4856 
Q 1566 4138 1362 3434 
Q 1159 2731 1159 2009 
Q 1159 1288 1364 580 
Q 1569 -128 1984 -844 
L 1484 -844 
Q 1016 -109 783 600 
Q 550 1309 550 2009 
Q 550 2706 781 3412 
Q 1013 4119 1484 4856 
L 1984 4856 
z
" transform="scale(0.015625)"/>
       <path id="DejaVuSans-6d" d="M 3328 2828 
Q 3544 3216 3844 3400 
Q 4144 3584 4550 3584 
Q 5097 3584 5394 3201 
Q 5691 2819 5691 2113 
L 5691 0 
L 5113 0 
L 5113 2094 
Q 5113 2597 4934 2840 
Q 4756 3084 4391 3084 
Q 3944 3084 3684 2787 
Q 3425 2491 3425 1978 
L 3425 0 
L 2847 0 
L 2847 2094 
Q 2847 2600 2669 2842 
Q 2491 3084 2119 3084 
Q 1678 3084 1418 2786 
Q 1159 2488 1159 1978 
L 1159 0 
L 581 0 
L 581 3500 
L 1159 3500 
L 1159 2956 
Q 1356 3278 1631 3431 
Q 1906 3584 2284 3584 
Q 2666 3584 2933 3390 
Q 3200 3197 3328 2828 
z
" transform="scale(0.015625)"/>
       <path id="DejaVuSans-6c" d="M 603 4863 
L 1178 4863 
L 1178 0 
L 603 0 
L 603 4863 
z
" transform="scale(0.015625)"/>
       <path id="DejaVuSans-2a" d="M 3009 3897 
L 1888 3291 
L 3009 2681 
L 2828 2375 
L 1778 3009 
L 1778 1831 
L 1422 1831 
L 1422 3009 
L 372 2375 
L 191 2681 
L 1313 3291 
L 191 3897 
L 372 4206 
L 1422 3572 
L 1422 4750 
L 1778 4750 
L 1778 3572 
L 2828 4206 
L 3009 3897 
z
" transform="scale(0.015625)"/>
       <path id="DejaVuSans-41" d="M 2188 4044 
L 1331 1722 
L 3047 1722 
L 2188 4044 
z
M 1831 4666 
L 2547 4666 
L 4325 0 
L 3669 0 
L 3244 1197 
L 1141 1197 
L 716 0 
L 50 0 
L 1831 4666 
z
" transform="scale(0.015625)"/>
       <path id="DejaVuSans-29" d="M 513 4856 
L 1013 4856 
Q 1481 4119 1714 3412 
Q 1947 2706 1947 2009 
Q 1947 1309 1714 600 
Q 1481 -109 1013 -844 
L 513 -844 
Q 928 -128 1133 580 
Q 1338 1288 1338 2009 
Q 1338 2731 1133 3434 
Q 928 4138 513 4856 
z
" transform="scale(0.015625)"/>
       <path id="DejaVuSans-5d" d="M 1947 4863 
L 1947 -844 
L 622 -844 
L 622 -397 
L 1369 -397 
L 1369 4416 
L 622 4416 
L 622 4863 
L 1947 4863 
z
" transform="scale(0.015625)"/>
      </defs>
      <use xlink:href="#DejaVuSans-46"/>
      <use xlink:href="#DejaVuSans-6f" x="53.894531"/>
      <use xlink:href="#DejaVuSans-72" x="115.076172"/>
      <use xlink:href="#DejaVuSans-63" x="153.939453"/>
      <use xlink:href="#DejaVuSans-65" x="208.919922"/>
      <use xlink:href="#DejaVuSans-20" x="270.443359"/>
      <use xlink:href="#DejaVuSans-45" x="302.230469"/>
      <use xlink:href="#DejaVuSans-72" x="365.414062"/>
      <use xlink:href="#DejaVuSans-72" x="404.777344"/>
      <use xlink:href="#DejaVuSans-6f" x="443.640625"/>
      <use xlink:href="#DejaVuSans-72" x="504.822266"/>
      <use xlink:href="#DejaVuSans-73" x="545.935547"/>
      <use xlink:href="#DejaVuSans-20" x="598.035156"/>
      <use xlink:href="#DejaVuSans-5b" x="629.822266"/>
      <use xlink:href="#DejaVuSans-6b" x="668.835938"/>
      <use xlink:href="#DejaVuSans-4a" x="726.746094"/>
      <use xlink:href="#DejaVuSans-2f" x="756.238281"/>
      <use xlink:href="#DejaVuSans-28" x="789.929688"/>
      <use xlink:href="#DejaVuSans-6d" x="828.943359"/>
      <use xlink:href="#DejaVuSans-6f" x="926.355469"/>
      <use xlink:href="#DejaVuSans-6c" x="987.537109"/>
      <use xlink:href="#DejaVuSans-2a" x="1015.320312"/>
      <use xlink:href="#DejaVuSans-41" x="1065.320312"/>
      <use xlink:href="#DejaVuSans-29" x="1133.728516"/>
      <use xlink:href="#DejaVuSans-5d" x="1172.742188"/>
     </g>
    </g>
   </g>
   <g id="line2d_15">
    <path d="M 610.376361 410.795401 
L 529.96357 476.717208 
L 696.24 340.405013 
L 591.992827 425.866082 
" clip-path="url(#pe967beb9ba)" style="fill: none; stroke: #ff0000; stroke-width: 1.5; stroke-linecap: square"/>
   </g>
   <g id="patch_3">
    <path d="M 83.72 499.48 
L 83.72 23.76 
" style="fill: none; stroke: #000000; stroke-width: 0.8; stroke-linejoin: miter; stroke-linecap: square"/>
   </g>
   <g id="patch_4">
    <path d="M 696.24 499.48 
L 696.24 23.76 
" style="fill: none; stroke: #000000; stroke-width: 0.8; stroke-linejoin: miter; stroke-linecap: square"/>
   </g>
   <g id="patch_5">
    <path d="M 83.72 499.48 
L 696.24 499.48 
" style="fill: none; stroke: #000000; stroke-width: 0.8; stroke-linejoin: miter; stroke-linecap: square"/>
   </g>
   <g id="patch_6">
    <path d="M 83.72 23.76 
L 696.24 23.76 
" style="fill: none; stroke: #000000; stroke-width: 0.8; stroke-linejoin: miter; stroke-linecap: square"/>
   </g>
   <g id="legend_1">
    <g id="patch_7">
     <path d="M 400.855625 105.94375 
L 680.84 105.94375 
Q 685.24 105.94375 685.24 101.54375 
L 685.24 39.16 
Q 685.24 34.76 680.84 34.76 
L 400.855625 34.76 
Q 396.455625 34.76 396.455625 39.16 
L 396.455625 101.54375 
Q 396.455625 105.94375 400.855625 105.94375 
z
" style="fill: #ffffff; opacity: 0.8; stroke: #cccccc; stroke-linejoin: miter"/>
    </g>
    <g id="PathCollection_2">
     <g>
      <use xlink:href="#m2a85ca5f07" x="427.255625" y="54.501562" style="fill: #1f77b4; stroke: #1f77b4"/>
     </g>
    </g>
    <g id="text_17">
     <!-- Validation Samples -->
     <g transform="translate(466.855625 60.276562) scale(0.22 -0.22)">
      <defs>
       <path id="DejaVuSans-56" d="M 1831 0 
L 50 4666 
L 709 4666 
L 2188 738 
L 3669 4666 
L 4325 4666 
L 2547 0 
L 1831 0 
z
" transform="scale(0.015625)"/>
       <path id="DejaVuSans-64" d="M 2906 2969 
L 2906 4863 
L 3481 4863 
L 3481 0 
L 2906 0 
L 2906 525 
Q 2725 213 2448 61 
Q 2172 -91 1784 -91 
Q 1150 -91 751 415 
Q 353 922 353 1747 
Q 353 2572 751 3078 
Q 1150 3584 1784 3584 
Q 2172 3584 2448 3432 
Q 2725 3281 2906 2969 
z
M 947 1747 
Q 947 1113 1208 752 
Q 1469 391 1925 391 
Q 2381 391 2643 752 
Q 2906 1113 2906 1747 
Q 2906 2381 2643 2742 
Q 2381 3103 1925 3103 
Q 1469 3103 1208 2742 
Q 947 2381 947 1747 
z
" transform="scale(0.015625)"/>
       <path id="DejaVuSans-53" d="M 3425 4513 
L 3425 3897 
Q 3066 4069 2747 4153 
Q 2428 4238 2131 4238 
Q 1616 4238 1336 4038 
Q 1056 3838 1056 3469 
Q 1056 3159 1242 3001 
Q 1428 2844 1947 2747 
L 2328 2669 
Q 3034 2534 3370 2195 
Q 3706 1856 3706 1288 
Q 3706 609 3251 259 
Q 2797 -91 1919 -91 
Q 1588 -91 1214 -16 
Q 841 59 441 206 
L 441 856 
Q 825 641 1194 531 
Q 1563 422 1919 422 
Q 2459 422 2753 634 
Q 3047 847 3047 1241 
Q 3047 1584 2836 1778 
Q 2625 1972 2144 2069 
L 1759 2144 
Q 1053 2284 737 2584 
Q 422 2884 422 3419 
Q 422 4038 858 4394 
Q 1294 4750 2059 4750 
Q 2388 4750 2728 4690 
Q 3069 4631 3425 4513 
z
" transform="scale(0.015625)"/>
       <path id="DejaVuSans-70" d="M 1159 525 
L 1159 -1331 
L 581 -1331 
L 581 3500 
L 1159 3500 
L 1159 2969 
Q 1341 3281 1617 3432 
Q 1894 3584 2278 3584 
Q 2916 3584 3314 3078 
Q 3713 2572 3713 1747 
Q 3713 922 3314 415 
Q 2916 -91 2278 -91 
Q 1894 -91 1617 61 
Q 1341 213 1159 525 
z
M 3116 1747 
Q 3116 2381 2855 2742 
Q 2594 3103 2138 3103 
Q 1681 3103 1420 2742 
Q 1159 2381 1159 1747 
Q 1159 1113 1420 752 
Q 1681 391 2138 391 
Q 2594 391 2855 752 
Q 3116 1113 3116 1747 
z
" transform="scale(0.015625)"/>
      </defs>
      <use xlink:href="#DejaVuSans-56"/>
      <use xlink:href="#DejaVuSans-61" x="60.658203"/>
      <use xlink:href="#DejaVuSans-6c" x="121.9375"/>
      <use xlink:href="#DejaVuSans-69" x="149.720703"/>
      <use xlink:href="#DejaVuSans-64" x="177.503906"/>
      <use xlink:href="#DejaVuSans-61" x="240.980469"/>
      <use xlink:href="#DejaVuSans-74" x="302.259766"/>
      <use xlink:href="#DejaVuSans-69" x="341.46875"/>
      <use xlink:href="#DejaVuSans-6f" x="369.251953"/>
      <use xlink:href="#DejaVuSans-6e" x="430.433594"/>
      <use xlink:href="#DejaVuSans-20" x="493.8125"/>
      <use xlink:href="#DejaVuSans-53" x="525.599609"/>
      <use xlink:href="#DejaVuSans-61" x="589.076172"/>
      <use xlink:href="#DejaVuSans-6d" x="650.355469"/>
      <use xlink:href="#DejaVuSans-70" x="747.767578"/>
      <use xlink:href="#DejaVuSans-6c" x="811.244141"/>
      <use xlink:href="#DejaVuSans-65" x="839.027344"/>
      <use xlink:href="#DejaVuSans-73" x="900.550781"/>
     </g>
    </g>
    <g id="line2d_16">
     <path d="M 405.255625 84.868437 
L 427.255625 84.868437 
L 449.255625 84.868437 
" style="fill: none; stroke: #ff0000; stroke-width: 1.5; stroke-linecap: square"/>
    </g>
    <g id="text_18">
     <!-- Regression Line -->
     <g transform="translate(466.855625 92.568437) scale(0.22 -0.22)">
      <defs>
       <path id="DejaVuSans-52" d="M 2841 2188 
Q 3044 2119 3236 1894 
Q 3428 1669 3622 1275 
L 4263 0 
L 3584 0 
L 2988 1197 
Q 2756 1666 2539 1819 
Q 2322 1972 1947 1972 
L 1259 1972 
L 1259 0 
L 628 0 
L 628 4666 
L 2053 4666 
Q 2853 4666 3247 4331 
Q 3641 3997 3641 3322 
Q 3641 2881 3436 2590 
Q 3231 2300 2841 2188 
z
M 1259 4147 
L 1259 2491 
L 2053 2491 
Q 2509 2491 2742 2702 
Q 2975 2913 2975 3322 
Q 2975 3731 2742 3939 
Q 2509 4147 2053 4147 
L 1259 4147 
z
" transform="scale(0.015625)"/>
       <path id="DejaVuSans-67" d="M 2906 1791 
Q 2906 2416 2648 2759 
Q 2391 3103 1925 3103 
Q 1463 3103 1205 2759 
Q 947 2416 947 1791 
Q 947 1169 1205 825 
Q 1463 481 1925 481 
Q 2391 481 2648 825 
Q 2906 1169 2906 1791 
z
M 3481 434 
Q 3481 -459 3084 -895 
Q 2688 -1331 1869 -1331 
Q 1566 -1331 1297 -1286 
Q 1028 -1241 775 -1147 
L 775 -588 
Q 1028 -725 1275 -790 
Q 1522 -856 1778 -856 
Q 2344 -856 2625 -561 
Q 2906 -266 2906 331 
L 2906 616 
Q 2728 306 2450 153 
Q 2172 0 1784 0 
Q 1141 0 747 490 
Q 353 981 353 1791 
Q 353 2603 747 3093 
Q 1141 3584 1784 3584 
Q 2172 3584 2450 3431 
Q 2728 3278 2906 2969 
L 2906 3500 
L 3481 3500 
L 3481 434 
z
" transform="scale(0.015625)"/>
       <path id="DejaVuSans-4c" d="M 628 4666 
L 1259 4666 
L 1259 531 
L 3531 531 
L 3531 0 
L 628 0 
L 628 4666 
z
" transform="scale(0.015625)"/>
      </defs>
      <use xlink:href="#DejaVuSans-52"/>
      <use xlink:href="#DejaVuSans-65" x="64.982422"/>
      <use xlink:href="#DejaVuSans-67" x="126.505859"/>
      <use xlink:href="#DejaVuSans-72" x="189.982422"/>
      <use xlink:href="#DejaVuSans-65" x="228.845703"/>
      <use xlink:href="#DejaVuSans-73" x="290.369141"/>
      <use xlink:href="#DejaVuSans-73" x="342.46875"/>
      <use xlink:href="#DejaVuSans-69" x="394.568359"/>
      <use xlink:href="#DejaVuSans-6f" x="422.351562"/>
      <use xlink:href="#DejaVuSans-6e" x="483.533203"/>
      <use xlink:href="#DejaVuSans-20" x="546.912109"/>
      <use xlink:href="#DejaVuSans-4c" x="578.699219"/>
      <use xlink:href="#DejaVuSans-69" x="634.412109"/>
      <use xlink:href="#DejaVuSans-6e" x="662.195312"/>
      <use xlink:href="#DejaVuSans-65" x="725.574219"/>
     </g>
    </g>
   </g>
  </g>
 </g>
 <defs>
  <clipPath id="pe967beb9ba">
   <rect x="83.72" y="23.76" width="612.52" height="475.72"/>
  </clipPath>
 </defs>
</svg>
