<?xml version="1.0" encoding="utf-8" standalone="no"?>
<!DOCTYPE svg PUBLIC "-//W3C//DTD SVG 1.1//EN"
  "http://www.w3.org/Graphics/SVG/1.1/DTD/svg11.dtd">
<svg xmlns:xlink="http://www.w3.org/1999/xlink" width="720pt" height="576pt" viewBox="0 0 720 576" xmlns="http://www.w3.org/2000/svg" version="1.1">
 <metadata>
  <rdf:RDF xmlns:dc="http://purl.org/dc/elements/1.1/" xmlns:cc="http://creativecommons.org/ns#" xmlns:rdf="http://www.w3.org/1999/02/22-rdf-syntax-ns#">
   <cc:Work>
    <dc:type rdf:resource="http://purl.org/dc/dcmitype/StillImage"/>
    <dc:date>2024-12-08T20:44:43.806591</dc:date>
    <dc:format>image/svg+xml</dc:format>
    <dc:creator>
     <cc:Agent>
      <dc:title>Matplotlib v3.8.4, https://matplotlib.org/</dc:title>
     </cc:Agent>
    </dc:creator>
   </cc:Work>
  </rdf:RDF>
 </metadata>
 <defs>
  <style type="text/css">*{stroke-linejoin: round; stroke-linecap: butt}</style>
 </defs>
 <g id="figure_1">
  <g id="patch_1">
   <path d="M 0 576 
L 720 576 
L 720 0 
L 0 0 
z
" style="fill: #ffffff"/>
  </g>
  <g id="axes_1">
   <g id="patch_2">
    <path d="M 69.68 499.48 
L 696.24 499.48 
L 696.24 23.76 
L 69.68 23.76 
z
" style="fill: #ffffff"/>
   </g>
   <g id="QuadContourSet_1">
    <path d="M 163.070713 480.639122 
L 168.8492 480.893604 
L 174.627686 480.153549 
L 176.940029 479.649888 
L 180.406172 479.078596 
L 186.184658 478.097632 
L 191.963145 477.371544 
L 197.741631 477.0822 
L 203.520117 477.273271 
L 209.298604 477.840354 
L 215.07709 478.604716 
L 220.855576 479.398179 
L 222.891801 479.649888 
L 226.634062 480.239133 
L 232.412549 480.908437 
L 238.191035 481.26277 
L 243.969521 481.306956 
L 249.748008 481.095094 
L 255.526494 480.701735 
L 261.30498 480.197088 
L 266.938434 479.649888 
L 267.083466 479.639693 
L 272.861953 479.236817 
L 278.640439 478.840142 
L 284.418925 478.442343 
L 290.197411 478.015902 
L 295.975898 477.516581 
L 301.754384 476.896521 
L 307.53287 476.119474 
L 313.311357 475.170638 
L 319.089843 474.061194 
L 323.019339 473.250945 
L 324.868329 472.95071 
L 330.646815 471.995257 
L 336.425302 470.9581 
L 342.203788 469.837103 
L 347.982274 468.617106 
L 353.760761 467.252462 
L 355.233757 466.852003 
L 359.539247 465.870721 
L 365.317733 464.253987 
L 371.096219 462.175085 
L 374.798478 460.45306 
L 376.874706 459.61357 
L 382.653192 456.676149 
L 386.6894 454.054117 
L 388.431678 453.001764 
L 394.210165 448.786363 
L 395.562867 447.655175 
L 399.988651 443.957264 
L 402.825974 441.256232 
L 405.767137 438.3734 
L 409.107194 434.85729 
L 411.545623 432.196395 
L 414.917796 428.458347 
L 417.32411 425.728016 
L 420.652873 422.059405 
L 423.102596 419.33283 
L 426.595149 415.660462 
L 428.881082 413.217662 
L 432.838509 409.261519 
L 434.659568 407.34759 
L 439.211881 402.862577 
L 440.438055 401.519404 
L 445.336667 396.463634 
L 446.216541 395.384592 
L 450.809544 390.064692 
L 451.995027 388.32624 
L 455.364536 383.665749 
L 457.773514 379.243864 
L 458.920967 377.266806 
L 462.06941 370.867864 
L 463.552 367.36206 
L 464.875188 364.468921 
L 467.645811 358.069979 
L 469.330486 353.799832 
L 470.259659 351.671036 
L 472.970492 345.272093 
L 475.108972 339.289343 
L 475.283655 338.873151 
L 477.7712 332.474208 
L 479.693218 326.075266 
L 480.887459 320.672947 
L 481.178381 319.676323 
L 482.447765 313.277381 
L 483.203854 306.878438 
L 483.689733 300.479495 
L 484.228195 294.080553 
L 485.157029 287.68161 
L 486.665945 281.282668 
L 486.665945 281.282668 
L 489.239843 274.883725 
L 491.54318 268.484782 
L 492.444431 262.951721 
L 492.624839 262.08584 
L 492.444431 260.674158 
L 491.968804 255.686897 
L 489.984968 249.287955 
L 487.124529 242.889012 
L 486.665945 242.002268 
L 484.523522 236.49007 
L 481.970416 230.091127 
L 480.887459 226.737863 
L 480.06079 223.692184 
L 479.174318 217.293242 
L 479.340326 210.894299 
L 480.377807 204.495357 
L 480.887459 202.433106 
L 482.060726 198.096414 
L 483.94791 191.697471 
L 485.642117 185.298529 
L 486.665945 179.884515 
L 486.884596 178.899586 
L 487.352319 172.500644 
L 486.665945 167.191995 
L 486.530187 166.101701 
L 484.380822 159.702758 
L 480.923098 153.303816 
L 480.887459 153.247446 
L 476.661728 146.904873 
L 475.108972 144.81393 
L 471.109925 140.505931 
L 469.330486 138.752256 
L 463.552 134.627046 
L 462.636104 134.106988 
L 457.773514 131.303593 
L 451.995027 128.247134 
L 450.989787 127.708046 
L 446.216541 125.204423 
L 440.438055 122.469718 
L 437.691823 121.309103 
L 434.659568 119.97969 
L 428.881082 117.466227 
L 423.284618 114.91016 
L 423.102596 114.790704 
L 417.32411 110.939202 
L 413.18085 108.511218 
L 411.545623 107.111354 
L 405.767137 104.90328 
L 399.988651 104.762507 
L 394.210165 105.174716 
L 388.431678 105.361096 
L 382.653192 105.259618 
L 376.874706 105.210019 
L 371.096219 105.624288 
L 365.317733 106.724394 
L 359.539247 108.463157 
L 359.41143 108.511218 
L 353.760761 110.142344 
L 347.982274 111.781293 
L 342.203788 113.11893 
L 336.425302 113.924961 
L 330.646815 114.04963 
L 324.868329 113.459478 
L 319.089843 112.301185 
L 313.311357 111.00249 
L 307.53287 110.231762 
L 301.754384 110.501174 
L 295.975898 111.783577 
L 290.197411 113.660497 
L 286.631022 114.91016 
L 284.418925 115.618086 
L 278.640439 117.37059 
L 272.861953 118.965199 
L 267.083466 120.573987 
L 264.943968 121.309103 
L 261.30498 122.696048 
L 255.526494 126.118675 
L 253.646147 127.708046 
L 249.748008 131.417617 
L 247.513445 134.106988 
L 243.969521 138.603678 
L 242.641677 140.505931 
L 238.191035 146.789711 
L 238.114387 146.904873 
L 233.677432 153.303816 
L 232.412549 155.017756 
L 229.202647 159.702758 
L 226.634062 163.155327 
L 224.606568 166.101701 
L 220.855576 170.879176 
L 219.658167 172.500644 
L 215.07709 177.645424 
L 214.001041 178.899586 
L 209.298604 183.37202 
L 207.332227 185.298529 
L 203.520117 188.453655 
L 199.788618 191.697471 
L 197.741631 193.304342 
L 192.104822 198.096414 
L 191.963145 198.213889 
L 186.184658 203.252087 
L 184.911885 204.495357 
L 180.406172 209.124492 
L 178.84151 210.894299 
L 174.627686 216.232816 
L 173.833597 217.293242 
L 169.718199 223.692184 
L 168.8492 225.453209 
L 166.476716 230.091127 
L 164.240126 236.49007 
L 163.070713 242.383588 
L 162.958291 242.889012 
L 162.235499 249.287955 
L 161.866913 255.686897 
L 161.395392 262.08584 
L 160.458316 268.484782 
L 158.868461 274.883725 
L 157.292227 279.341209 
L 156.503731 281.282668 
L 153.304178 287.68161 
L 151.513741 291.082231 
L 149.766408 294.080553 
L 146.22391 300.479495 
L 145.735255 301.441854 
L 142.636507 306.878438 
L 139.956768 312.722078 
L 139.661925 313.277381 
L 136.653926 319.676323 
L 134.318187 326.075266 
L 134.178282 326.474392 
L 131.692934 332.474208 
L 129.410983 338.873151 
L 128.399796 341.812668 
L 127.000372 345.272093 
L 124.55455 351.671036 
L 122.621309 357.619535 
L 122.445651 358.069979 
L 120.089651 364.468921 
L 118.259768 370.867864 
L 116.862202 377.266806 
L 116.842823 377.390049 
L 115.550209 383.665749 
L 114.764308 390.064692 
L 114.482659 396.463634 
L 114.705971 402.862577 
L 115.424699 409.261519 
L 116.623641 415.660462 
L 116.842823 416.518783 
L 118.15571 422.059405 
L 120.445049 428.458347 
L 122.621309 432.543901 
L 123.901053 434.85729 
L 128.399796 440.797582 
L 128.738691 441.256232 
L 134.011481 447.655175 
L 134.178282 447.856439 
L 138.391571 454.054117 
L 139.956768 456.488117 
L 142.169695 460.45306 
L 145.735255 466.568603 
L 145.908923 466.852003 
L 150.421033 473.250945 
L 151.513741 474.518325 
L 157.292227 478.817303 
L 159.863916 479.649888 
z
M 254.39382 454.054117 
L 249.748008 453.620908 
L 243.969521 452.863762 
L 238.191035 451.932981 
L 232.412549 450.918021 
L 226.634062 449.921824 
L 220.855576 449.036843 
L 215.07709 448.337807 
L 209.298604 447.873274 
L 204.000074 447.655175 
L 203.520117 447.637292 
L 197.741631 447.534127 
L 191.963145 447.346951 
L 186.184658 446.750154 
L 180.406172 445.233686 
L 174.627686 442.020974 
L 173.742128 441.256232 
L 168.8492 435.822119 
L 168.18537 434.85729 
L 164.581086 428.458347 
L 163.070713 425.114603 
L 161.684441 422.059405 
L 159.031773 415.660462 
L 157.292227 411.351443 
L 156.355283 409.261519 
L 153.432446 402.862577 
L 151.513741 398.568092 
L 150.558627 396.463634 
L 147.998788 390.064692 
L 146.207273 383.665749 
L 145.735255 380.351192 
L 145.304665 377.266806 
L 145.371058 370.867864 
L 145.735255 368.591289 
L 146.314062 364.468921 
L 147.944802 358.069979 
L 150.178502 351.671036 
L 151.513741 348.512002 
L 152.775515 345.272093 
L 155.564371 338.873151 
L 157.292227 335.250251 
L 158.535225 332.474208 
L 161.595845 326.075266 
L 163.070713 323.242037 
L 164.828679 319.676323 
L 168.337416 313.277381 
L 168.8492 312.408348 
L 171.915952 306.878438 
L 174.627686 302.458161 
L 175.759673 300.479495 
L 179.552446 294.080553 
L 180.406172 292.616215 
L 183.061181 287.68161 
L 186.184658 281.795055 
L 186.440706 281.282668 
L 189.205145 274.883725 
L 191.807134 268.484782 
L 191.963145 268.017017 
L 193.936582 262.08584 
L 196.016616 255.686897 
L 197.741631 250.609716 
L 198.22302 249.287955 
L 200.811255 242.889012 
L 203.520117 237.570927 
L 204.146961 236.49007 
L 208.615282 230.091127 
L 209.298604 229.269402 
L 214.749977 223.692184 
L 215.07709 223.395554 
L 220.855576 218.989259 
L 223.536662 217.293242 
L 226.634062 215.405925 
L 232.412549 212.282909 
L 235.098802 210.894299 
L 238.191035 209.265143 
L 243.969521 206.080067 
L 246.646833 204.495357 
L 249.748008 202.580503 
L 255.526494 198.85083 
L 256.731906 198.096414 
L 261.30498 195.099443 
L 267.083466 191.76594 
L 267.230658 191.697471 
L 272.861953 188.922779 
L 278.640439 186.784798 
L 283.866437 185.298529 
L 284.418925 185.129102 
L 290.197411 183.450065 
L 295.975898 181.648297 
L 301.754384 179.623942 
L 303.628997 178.899586 
L 307.53287 177.285929 
L 313.311357 174.897863 
L 319.089843 172.679228 
L 319.628407 172.500644 
L 324.868329 170.700413 
L 330.646815 169.152208 
L 336.425302 168.148891 
L 342.203788 167.920228 
L 347.982274 168.841223 
L 353.760761 171.300331 
L 355.571049 172.500644 
L 359.539247 175.229734 
L 364.787572 178.899586 
L 365.317733 179.188626 
L 371.096219 181.542375 
L 376.874706 182.854881 
L 382.653192 183.591894 
L 388.431678 184.257624 
L 394.089782 185.298529 
L 394.210165 185.320907 
L 399.988651 187.210556 
L 405.767137 190.584251 
L 407.171196 191.697471 
L 411.545623 196.808336 
L 412.480217 198.096414 
L 415.502584 204.495357 
L 417.32411 210.270385 
L 417.535888 210.894299 
L 419.738399 217.293242 
L 422.274341 223.692184 
L 423.102596 225.468383 
L 425.112343 230.091127 
L 427.987487 236.49007 
L 428.881082 238.401501 
L 430.980507 242.889012 
L 434.139171 249.287955 
L 434.659568 250.395606 
L 437.203905 255.686897 
L 439.325881 262.08584 
L 440.277399 268.484782 
L 440.438055 274.883725 
L 440.382341 281.282668 
L 440.438055 282.792019 
L 440.626813 287.68161 
L 441.522887 294.080553 
L 443.031055 300.479495 
L 444.680294 306.878438 
L 445.869678 313.277381 
L 446.216541 319.40373 
L 446.231206 319.676323 
L 446.216541 319.842185 
L 445.690654 326.075266 
L 444.330738 332.474208 
L 442.270623 338.873151 
L 440.438055 343.290646 
L 439.638135 345.272093 
L 436.641762 351.671036 
L 434.659568 355.483235 
L 433.347922 358.069979 
L 429.864901 364.468921 
L 428.881082 366.150639 
L 426.18425 370.867864 
L 423.102596 375.791923 
L 422.195117 377.266806 
L 417.866449 383.665749 
L 417.32411 384.398447 
L 413.144134 390.064692 
L 411.545623 392.059791 
L 407.950882 396.463634 
L 405.767137 399.000044 
L 402.253466 402.862577 
L 399.988651 405.30061 
L 395.899582 409.261519 
L 394.210165 410.908895 
L 388.459117 415.660462 
L 388.431678 415.683698 
L 382.653192 419.72954 
L 378.333344 422.059405 
L 376.874706 422.875237 
L 371.096219 425.554667 
L 365.317733 427.8735 
L 363.945199 428.458347 
L 359.539247 430.377098 
L 353.760761 433.055325 
L 350.136304 434.85729 
L 347.982274 435.94683 
L 342.203788 439.055928 
L 337.888811 441.256232 
L 336.425302 442.028396 
L 330.646815 444.964084 
L 324.868329 447.371778 
L 324.071894 447.655175 
L 319.089843 449.602768 
L 313.311357 451.289998 
L 307.53287 452.467513 
L 301.754384 453.238962 
L 295.975898 453.717275 
L 290.197411 454.016126 
L 289.136688 454.054117 
L 284.418925 454.257238 
L 278.640439 454.450271 
L 272.861953 454.584919 
L 267.083466 454.617882 
L 261.30498 454.493276 
L 255.526494 454.161578 
z
" clip-path="url(#p761afd24c3)" style="fill: #ebf3fb"/>
    <path d="M 255.526494 454.161578 
L 261.30498 454.493276 
L 267.083466 454.617882 
L 272.861953 454.584919 
L 278.640439 454.450271 
L 284.418925 454.257238 
L 289.136688 454.054117 
L 290.197411 454.016126 
L 295.975898 453.717275 
L 301.754384 453.238962 
L 307.53287 452.467513 
L 313.311357 451.289998 
L 319.089843 449.602768 
L 324.071894 447.655175 
L 324.868329 447.371778 
L 330.646815 444.964084 
L 336.425302 442.028396 
L 337.888811 441.256232 
L 342.203788 439.055928 
L 347.982274 435.94683 
L 350.136304 434.85729 
L 353.760761 433.055325 
L 359.539247 430.377098 
L 363.945199 428.458347 
L 365.317733 427.8735 
L 371.096219 425.554667 
L 376.874706 422.875237 
L 378.333344 422.059405 
L 382.653192 419.72954 
L 388.431678 415.683698 
L 388.459117 415.660462 
L 394.210165 410.908895 
L 395.899582 409.261519 
L 399.988651 405.30061 
L 402.253466 402.862577 
L 405.767137 399.000044 
L 407.950882 396.463634 
L 411.545623 392.059791 
L 413.144134 390.064692 
L 417.32411 384.398447 
L 417.866449 383.665749 
L 422.195117 377.266806 
L 423.102596 375.791923 
L 426.18425 370.867864 
L 428.881082 366.150639 
L 429.864901 364.468921 
L 433.347922 358.069979 
L 434.659568 355.483235 
L 436.641762 351.671036 
L 439.638135 345.272093 
L 440.438055 343.290646 
L 442.270623 338.873151 
L 444.330738 332.474208 
L 445.690654 326.075266 
L 446.216541 319.842185 
L 446.231206 319.676323 
L 446.216541 319.40373 
L 445.869678 313.277381 
L 444.680294 306.878438 
L 443.031055 300.479495 
L 441.522887 294.080553 
L 440.626813 287.68161 
L 440.438055 282.792019 
L 440.382341 281.282668 
L 440.438055 274.883725 
L 440.277399 268.484782 
L 439.325881 262.08584 
L 437.203905 255.686897 
L 434.659568 250.395606 
L 434.139171 249.287955 
L 430.980507 242.889012 
L 428.881082 238.401501 
L 427.987487 236.49007 
L 425.112343 230.091127 
L 423.102596 225.468383 
L 422.274341 223.692184 
L 419.738399 217.293242 
L 417.535888 210.894299 
L 417.32411 210.270385 
L 415.502584 204.495357 
L 412.480217 198.096414 
L 411.545623 196.808336 
L 407.171196 191.697471 
L 405.767137 190.584251 
L 399.988651 187.210556 
L 394.210165 185.320907 
L 394.089782 185.298529 
L 388.431678 184.257624 
L 382.653192 183.591894 
L 376.874706 182.854881 
L 371.096219 181.542375 
L 365.317733 179.188626 
L 364.787572 178.899586 
L 359.539247 175.229734 
L 355.571049 172.500644 
L 353.760761 171.300331 
L 347.982274 168.841223 
L 342.203788 167.920228 
L 336.425302 168.148891 
L 330.646815 169.152208 
L 324.868329 170.700413 
L 319.628407 172.500644 
L 319.089843 172.679228 
L 313.311357 174.897863 
L 307.53287 177.285929 
L 303.628997 178.899586 
L 301.754384 179.623942 
L 295.975898 181.648297 
L 290.197411 183.450065 
L 284.418925 185.129102 
L 283.866437 185.298529 
L 278.640439 186.784798 
L 272.861953 188.922779 
L 267.230658 191.697471 
L 267.083466 191.76594 
L 261.30498 195.099443 
L 256.731906 198.096414 
L 255.526494 198.85083 
L 249.748008 202.580503 
L 246.646833 204.495357 
L 243.969521 206.080067 
L 238.191035 209.265143 
L 235.098802 210.894299 
L 232.412549 212.282909 
L 226.634062 215.405925 
L 223.536662 217.293242 
L 220.855576 218.989259 
L 215.07709 223.395554 
L 214.749977 223.692184 
L 209.298604 229.269402 
L 208.615282 230.091127 
L 204.146961 236.49007 
L 203.520117 237.570927 
L 200.811255 242.889012 
L 198.22302 249.287955 
L 197.741631 250.609716 
L 196.016616 255.686897 
L 193.936582 262.08584 
L 191.963145 268.017017 
L 191.807134 268.484782 
L 189.205145 274.883725 
L 186.440706 281.282668 
L 186.184658 281.795055 
L 183.061181 287.68161 
L 180.406172 292.616215 
L 179.552446 294.080553 
L 175.759673 300.479495 
L 174.627686 302.458161 
L 171.915952 306.878438 
L 168.8492 312.408348 
L 168.337416 313.277381 
L 164.828679 319.676323 
L 163.070713 323.242037 
L 161.595845 326.075266 
L 158.535225 332.474208 
L 157.292227 335.250251 
L 155.564371 338.873151 
L 152.775515 345.272093 
L 151.513741 348.512002 
L 150.178502 351.671036 
L 147.944802 358.069979 
L 146.314062 364.468921 
L 145.735255 368.591289 
L 145.371058 370.867864 
L 145.304665 377.266806 
L 145.735255 380.351192 
L 146.207273 383.665749 
L 147.998788 390.064692 
L 150.558627 396.463634 
L 151.513741 398.568092 
L 153.432446 402.862577 
L 156.355283 409.261519 
L 157.292227 411.351443 
L 159.031773 415.660462 
L 161.684441 422.059405 
L 163.070713 425.114603 
L 164.581086 428.458347 
L 168.18537 434.85729 
L 168.8492 435.822119 
L 173.742128 441.256232 
L 174.627686 442.020974 
L 180.406172 445.233686 
L 186.184658 446.750154 
L 191.963145 447.346951 
L 197.741631 447.534127 
L 203.520117 447.637292 
L 204.000074 447.655175 
L 209.298604 447.873274 
L 215.07709 448.337807 
L 220.855576 449.036843 
L 226.634062 449.921824 
L 232.412549 450.918021 
L 238.191035 451.932981 
L 243.969521 452.863762 
L 249.748008 453.620908 
L 254.39382 454.054117 
z
M 247.645528 434.85729 
L 243.969521 434.124558 
L 238.191035 433.096604 
L 232.412549 432.217329 
L 226.634062 431.491977 
L 220.855576 430.913116 
L 215.07709 430.454559 
L 209.298604 430.04033 
L 203.520117 429.505121 
L 197.741631 428.557982 
L 197.391558 428.458347 
L 191.963145 426.703439 
L 186.184658 423.10163 
L 185.089811 422.059405 
L 180.406172 416.127231 
L 180.121626 415.660462 
L 176.9265 409.261519 
L 174.627686 403.645299 
L 174.307141 402.862577 
L 171.643747 396.463634 
L 168.8492 390.064692 
L 168.8492 390.064692 
L 165.955265 383.665749 
L 163.694512 377.266806 
L 163.070713 374.138308 
L 162.456211 370.867864 
L 162.363759 364.468921 
L 163.070713 359.65661 
L 163.288985 358.069979 
L 164.986485 351.671036 
L 167.244208 345.272093 
L 168.8492 341.430465 
L 169.882916 338.873151 
L 172.744256 332.474208 
L 174.627686 328.58534 
L 175.810657 326.075266 
L 179.013384 319.676323 
L 180.406172 317.089069 
L 182.370708 313.277381 
L 185.875682 306.878438 
L 186.184658 306.344854 
L 189.395276 300.479495 
L 191.963145 296.000438 
L 193.022636 294.080553 
L 196.62659 287.68161 
L 197.741631 285.704017 
L 200.263567 281.282668 
L 203.520117 275.66976 
L 204.008982 274.883725 
L 207.90879 268.484782 
L 209.298604 266.207122 
L 212.247975 262.08584 
L 215.07709 258.20724 
L 217.382281 255.686897 
L 220.855576 251.903143 
L 224.028706 249.287955 
L 226.634062 247.090668 
L 232.412549 243.379003 
L 233.309166 242.889012 
L 238.191035 240.012764 
L 243.969521 236.995609 
L 244.913083 236.49007 
L 249.748008 233.628318 
L 255.526494 230.239066 
L 255.773213 230.091127 
L 261.30498 226.467992 
L 265.958917 223.692184 
L 267.083466 222.977366 
L 272.861953 219.747103 
L 278.300057 217.293242 
L 278.640439 217.132337 
L 284.418925 214.890158 
L 290.197411 213.027988 
L 295.975898 211.336804 
L 297.572924 210.894299 
L 301.754384 209.669421 
L 307.53287 208.129739 
L 313.311357 206.905945 
L 319.089843 206.183295 
L 324.868329 206.067543 
L 330.646815 206.529616 
L 336.425302 207.405815 
L 342.203788 208.433936 
L 347.982274 209.320336 
L 353.760761 209.851058 
L 359.539247 210.002409 
L 365.317733 209.965907 
L 371.096219 210.103878 
L 376.56049 210.894299 
L 376.874706 210.947342 
L 382.653192 213.618501 
L 386.364097 217.293242 
L 388.431678 220.444835 
L 390.005019 223.692184 
L 392.609095 230.091127 
L 394.210165 233.746655 
L 395.483578 236.49007 
L 399.169907 242.889012 
L 399.988651 244.125472 
L 403.451628 249.287955 
L 405.767137 252.979 
L 407.351322 255.686897 
L 410.48058 262.08584 
L 411.545623 264.80187 
L 412.975812 268.484782 
L 414.889245 274.883725 
L 416.20846 281.282668 
L 417.074662 287.68161 
L 417.32411 290.246538 
L 417.742072 294.080553 
L 418.389426 300.479495 
L 419.119485 306.878438 
L 419.914216 313.277381 
L 420.553408 319.676323 
L 420.698029 326.075266 
L 420.093107 332.474208 
L 418.698751 338.873151 
L 417.32411 343.135309 
L 416.689406 345.272093 
L 414.257299 351.671036 
L 411.545623 357.801954 
L 411.434815 358.069979 
L 408.400879 364.468921 
L 405.767137 369.331333 
L 404.956965 370.867864 
L 401.02908 377.266806 
L 399.988651 378.736708 
L 396.364218 383.665749 
L 394.210165 386.206958 
L 390.632132 390.064692 
L 388.431678 392.184644 
L 383.352151 396.463634 
L 382.653192 397.011427 
L 376.874706 401.057183 
L 374.059397 402.862577 
L 371.096219 404.685885 
L 365.317733 408.183008 
L 363.663068 409.261519 
L 359.539247 411.859362 
L 353.780803 415.660462 
L 353.760761 415.673342 
L 347.982274 419.779874 
L 344.796162 422.059405 
L 342.203788 423.859422 
L 336.425302 427.747205 
L 335.303367 428.458347 
L 330.646815 431.37095 
L 324.868329 434.403011 
L 323.81915 434.85729 
L 319.089843 436.95529 
L 313.311357 438.828859 
L 307.53287 440.070296 
L 301.754384 440.778887 
L 295.975898 441.065149 
L 290.197411 441.039515 
L 284.418925 440.786846 
L 278.640439 440.344658 
L 272.861953 439.706795 
L 267.083466 438.854969 
L 261.30498 437.796721 
L 255.526494 436.584004 
L 249.748008 435.304819 
z
" clip-path="url(#p761afd24c3)" style="fill: #d5e5f4"/>
    <path d="M 249.748008 435.304819 
L 255.526494 436.584004 
L 261.30498 437.796721 
L 267.083466 438.854969 
L 272.861953 439.706795 
L 278.640439 440.344658 
L 284.418925 440.786846 
L 290.197411 441.039515 
L 295.975898 441.065149 
L 301.754384 440.778887 
L 307.53287 440.070296 
L 313.311357 438.828859 
L 319.089843 436.95529 
L 323.81915 434.85729 
L 324.868329 434.403011 
L 330.646815 431.37095 
L 335.303367 428.458347 
L 336.425302 427.747205 
L 342.203788 423.859422 
L 344.796162 422.059405 
L 347.982274 419.779874 
L 353.760761 415.673342 
L 353.780803 415.660462 
L 359.539247 411.859362 
L 363.663068 409.261519 
L 365.317733 408.183008 
L 371.096219 404.685885 
L 374.059397 402.862577 
L 376.874706 401.057183 
L 382.653192 397.011427 
L 383.352151 396.463634 
L 388.431678 392.184644 
L 390.632132 390.064692 
L 394.210165 386.206958 
L 396.364218 383.665749 
L 399.988651 378.736708 
L 401.02908 377.266806 
L 404.956965 370.867864 
L 405.767137 369.331333 
L 408.400879 364.468921 
L 411.434815 358.069979 
L 411.545623 357.801954 
L 414.257299 351.671036 
L 416.689406 345.272093 
L 417.32411 343.135309 
L 418.698751 338.873151 
L 420.093107 332.474208 
L 420.698029 326.075266 
L 420.553408 319.676323 
L 419.914216 313.277381 
L 419.119485 306.878438 
L 418.389426 300.479495 
L 417.742072 294.080553 
L 417.32411 290.246538 
L 417.074662 287.68161 
L 416.20846 281.282668 
L 414.889245 274.883725 
L 412.975812 268.484782 
L 411.545623 264.80187 
L 410.48058 262.08584 
L 407.351322 255.686897 
L 405.767137 252.979 
L 403.451628 249.287955 
L 399.988651 244.125472 
L 399.169907 242.889012 
L 395.483578 236.49007 
L 394.210165 233.746655 
L 392.609095 230.091127 
L 390.005019 223.692184 
L 388.431678 220.444835 
L 386.364097 217.293242 
L 382.653192 213.618501 
L 376.874706 210.947342 
L 376.56049 210.894299 
L 371.096219 210.103878 
L 365.317733 209.965907 
L 359.539247 210.002409 
L 353.760761 209.851058 
L 347.982274 209.320336 
L 342.203788 208.433936 
L 336.425302 207.405815 
L 330.646815 206.529616 
L 324.868329 206.067543 
L 319.089843 206.183295 
L 313.311357 206.905945 
L 307.53287 208.129739 
L 301.754384 209.669421 
L 297.572924 210.894299 
L 295.975898 211.336804 
L 290.197411 213.027988 
L 284.418925 214.890158 
L 278.640439 217.132337 
L 278.300057 217.293242 
L 272.861953 219.747103 
L 267.083466 222.977366 
L 265.958917 223.692184 
L 261.30498 226.467992 
L 255.773213 230.091127 
L 255.526494 230.239066 
L 249.748008 233.628318 
L 244.913083 236.49007 
L 243.969521 236.995609 
L 238.191035 240.012764 
L 233.309166 242.889012 
L 232.412549 243.379003 
L 226.634062 247.090668 
L 224.028706 249.287955 
L 220.855576 251.903143 
L 217.382281 255.686897 
L 215.07709 258.20724 
L 212.247975 262.08584 
L 209.298604 266.207122 
L 207.90879 268.484782 
L 204.008982 274.883725 
L 203.520117 275.66976 
L 200.263567 281.282668 
L 197.741631 285.704017 
L 196.62659 287.68161 
L 193.022636 294.080553 
L 191.963145 296.000438 
L 189.395276 300.479495 
L 186.184658 306.344854 
L 185.875682 306.878438 
L 182.370708 313.277381 
L 180.406172 317.089069 
L 179.013384 319.676323 
L 175.810657 326.075266 
L 174.627686 328.58534 
L 172.744256 332.474208 
L 169.882916 338.873151 
L 168.8492 341.430465 
L 167.244208 345.272093 
L 164.986485 351.671036 
L 163.288985 358.069979 
L 163.070713 359.65661 
L 162.363759 364.468921 
L 162.456211 370.867864 
L 163.070713 374.138308 
L 163.694512 377.266806 
L 165.955265 383.665749 
L 168.8492 390.064692 
L 168.8492 390.064692 
L 171.643747 396.463634 
L 174.307141 402.862577 
L 174.627686 403.645299 
L 176.9265 409.261519 
L 180.121626 415.660462 
L 180.406172 416.127231 
L 185.089811 422.059405 
L 186.184658 423.10163 
L 191.963145 426.703439 
L 197.391558 428.458347 
L 197.741631 428.557982 
L 203.520117 429.505121 
L 209.298604 430.04033 
L 215.07709 430.454559 
L 220.855576 430.913116 
L 226.634062 431.491977 
L 232.412549 432.217329 
L 238.191035 433.096604 
L 243.969521 434.124558 
L 247.645528 434.85729 
z
M 288.41593 428.458347 
L 284.418925 427.782379 
L 278.640439 426.586042 
L 272.861953 425.229966 
L 267.083466 423.769072 
L 261.30498 422.265507 
L 260.481195 422.059405 
L 255.526494 420.924589 
L 249.748008 419.713432 
L 243.969521 418.662016 
L 238.191035 417.789017 
L 232.412549 417.075616 
L 226.634062 416.474001 
L 220.855576 415.905778 
L 218.695872 415.660462 
L 215.07709 415.259742 
L 209.298604 414.27248 
L 203.520117 412.496515 
L 197.799298 409.261519 
L 197.741631 409.219388 
L 192.100972 402.862577 
L 191.963145 402.63923 
L 188.777737 396.463634 
L 186.219787 390.064692 
L 186.184658 389.96824 
L 183.754921 383.665749 
L 181.393153 377.266806 
L 180.406172 374.030536 
L 179.421288 370.867864 
L 178.344352 364.468921 
L 178.37778 358.069979 
L 179.410776 351.671036 
L 180.406172 348.185423 
L 181.223187 345.272093 
L 183.58611 338.873151 
L 186.184658 332.659786 
L 186.26308 332.474208 
L 189.175298 326.075266 
L 191.963145 320.012247 
L 192.118943 319.676323 
L 195.166616 313.277381 
L 197.741631 307.90779 
L 198.233259 306.878438 
L 201.484149 300.479495 
L 203.520117 296.693338 
L 204.953107 294.080553 
L 208.732288 287.68161 
L 209.298604 286.78225 
L 213.064872 281.282668 
L 215.07709 278.518708 
L 218.116099 274.883725 
L 220.855576 271.778146 
L 224.353949 268.484782 
L 226.634062 266.410263 
L 232.412549 262.15783 
L 232.526752 262.08584 
L 238.191035 258.537377 
L 243.430747 255.686897 
L 243.969521 255.383849 
L 249.748008 252.298941 
L 255.526494 249.345062 
L 255.644049 249.287955 
L 261.30498 246.31991 
L 267.083466 243.564941 
L 268.760574 242.889012 
L 272.861953 241.061786 
L 278.640439 238.985154 
L 284.418925 237.302506 
L 287.580097 236.49007 
L 290.197411 235.75769 
L 295.975898 234.143249 
L 301.754384 232.494929 
L 307.53287 230.928577 
L 311.223315 230.091127 
L 313.311357 229.598188 
L 319.089843 228.67675 
L 324.868329 228.285271 
L 330.646815 228.357904 
L 336.425302 228.747466 
L 342.203788 229.291778 
L 347.982274 229.893264 
L 349.657253 230.091127 
L 353.760761 230.59205 
L 359.539247 231.702324 
L 365.317733 233.886577 
L 368.990198 236.49007 
L 371.096219 238.486617 
L 374.344661 242.889012 
L 376.874706 246.809157 
L 378.362591 249.287955 
L 382.653192 255.686897 
L 382.653192 255.686897 
L 387.585429 262.08584 
L 388.431678 263.163317 
L 392.222851 268.484782 
L 394.210165 271.695158 
L 395.901992 274.883725 
L 398.608614 281.282668 
L 399.988651 285.684065 
L 400.555406 287.68161 
L 401.852967 294.080553 
L 402.631278 300.479495 
L 402.992172 306.878438 
L 403.013944 313.277381 
L 402.723849 319.676323 
L 402.087479 326.075266 
L 401.027849 332.474208 
L 399.988651 336.83012 
L 399.535216 338.873151 
L 397.688208 345.272093 
L 395.329449 351.671036 
L 394.210165 354.262919 
L 392.567146 358.069979 
L 389.275761 364.468921 
L 388.431678 365.889522 
L 385.292602 370.867864 
L 382.653192 374.376683 
L 380.302478 377.266806 
L 376.874706 380.864037 
L 374.056252 383.665749 
L 371.096219 386.240457 
L 366.717201 390.064692 
L 365.317733 391.161668 
L 359.539247 396.005028 
L 359.045002 396.463634 
L 353.760761 400.943931 
L 351.650813 402.862577 
L 347.982274 405.956007 
L 344.171549 409.261519 
L 342.203788 410.86866 
L 336.425302 415.472678 
L 336.173318 415.660462 
L 330.646815 419.62563 
L 326.650524 422.059405 
L 324.868329 423.122422 
L 319.089843 425.876481 
L 313.311357 427.833263 
L 310.249023 428.458347 
L 307.53287 429.020799 
L 301.754384 429.484999 
L 295.975898 429.346999 
L 290.197411 428.74178 
z
" clip-path="url(#p761afd24c3)" style="fill: #bad6eb"/>
    <path d="M 290.197411 428.74178 
L 295.975898 429.346999 
L 301.754384 429.484999 
L 307.53287 429.020799 
L 310.249023 428.458347 
L 313.311357 427.833263 
L 319.089843 425.876481 
L 324.868329 423.122422 
L 326.650524 422.059405 
L 330.646815 419.62563 
L 336.173318 415.660462 
L 336.425302 415.472678 
L 342.203788 410.86866 
L 344.171549 409.261519 
L 347.982274 405.956007 
L 351.650813 402.862577 
L 353.760761 400.943931 
L 359.045002 396.463634 
L 359.539247 396.005028 
L 365.317733 391.161668 
L 366.717201 390.064692 
L 371.096219 386.240457 
L 374.056252 383.665749 
L 376.874706 380.864037 
L 380.302478 377.266806 
L 382.653192 374.376683 
L 385.292602 370.867864 
L 388.431678 365.889522 
L 389.275761 364.468921 
L 392.567146 358.069979 
L 394.210165 354.262919 
L 395.329449 351.671036 
L 397.688208 345.272093 
L 399.535216 338.873151 
L 399.988651 336.83012 
L 401.027849 332.474208 
L 402.087479 326.075266 
L 402.723849 319.676323 
L 403.013944 313.277381 
L 402.992172 306.878438 
L 402.631278 300.479495 
L 401.852967 294.080553 
L 400.555406 287.68161 
L 399.988651 285.684065 
L 398.608614 281.282668 
L 395.901992 274.883725 
L 394.210165 271.695158 
L 392.222851 268.484782 
L 388.431678 263.163317 
L 387.585429 262.08584 
L 382.653192 255.686897 
L 382.653192 255.686897 
L 378.362591 249.287955 
L 376.874706 246.809157 
L 374.344661 242.889012 
L 371.096219 238.486617 
L 368.990198 236.49007 
L 365.317733 233.886577 
L 359.539247 231.702324 
L 353.760761 230.59205 
L 349.657253 230.091127 
L 347.982274 229.893264 
L 342.203788 229.291778 
L 336.425302 228.747466 
L 330.646815 228.357904 
L 324.868329 228.285271 
L 319.089843 228.67675 
L 313.311357 229.598188 
L 311.223315 230.091127 
L 307.53287 230.928577 
L 301.754384 232.494929 
L 295.975898 234.143249 
L 290.197411 235.75769 
L 287.580097 236.49007 
L 284.418925 237.302506 
L 278.640439 238.985154 
L 272.861953 241.061786 
L 268.760574 242.889012 
L 267.083466 243.564941 
L 261.30498 246.31991 
L 255.644049 249.287955 
L 255.526494 249.345062 
L 249.748008 252.298941 
L 243.969521 255.383849 
L 243.430747 255.686897 
L 238.191035 258.537377 
L 232.526752 262.08584 
L 232.412549 262.15783 
L 226.634062 266.410263 
L 224.353949 268.484782 
L 220.855576 271.778146 
L 218.116099 274.883725 
L 215.07709 278.518708 
L 213.064872 281.282668 
L 209.298604 286.78225 
L 208.732288 287.68161 
L 204.953107 294.080553 
L 203.520117 296.693338 
L 201.484149 300.479495 
L 198.233259 306.878438 
L 197.741631 307.90779 
L 195.166616 313.277381 
L 192.118943 319.676323 
L 191.963145 320.012247 
L 189.175298 326.075266 
L 186.26308 332.474208 
L 186.184658 332.659786 
L 183.58611 338.873151 
L 181.223187 345.272093 
L 180.406172 348.185423 
L 179.410776 351.671036 
L 178.37778 358.069979 
L 178.344352 364.468921 
L 179.421288 370.867864 
L 180.406172 374.030536 
L 181.393153 377.266806 
L 183.754921 383.665749 
L 186.184658 389.96824 
L 186.219787 390.064692 
L 188.777737 396.463634 
L 191.963145 402.63923 
L 192.100972 402.862577 
L 197.741631 409.219388 
L 197.799298 409.261519 
L 203.520117 412.496515 
L 209.298604 414.27248 
L 215.07709 415.259742 
L 218.695872 415.660462 
L 220.855576 415.905778 
L 226.634062 416.474001 
L 232.412549 417.075616 
L 238.191035 417.789017 
L 243.969521 418.662016 
L 249.748008 419.713432 
L 255.526494 420.924589 
L 260.481195 422.059405 
L 261.30498 422.265507 
L 267.083466 423.769072 
L 272.861953 425.229966 
L 278.640439 426.586042 
L 284.418925 427.782379 
L 288.41593 428.458347 
z
M 287.649815 415.660462 
L 284.418925 414.976013 
L 278.640439 413.71387 
L 272.861953 412.420799 
L 267.083466 411.073598 
L 261.30498 409.68691 
L 259.475848 409.261519 
L 255.526494 408.403671 
L 249.748008 407.275888 
L 243.969521 406.332664 
L 238.191035 405.563745 
L 232.412549 404.891527 
L 226.634062 404.184854 
L 220.855576 403.246417 
L 219.265205 402.862577 
L 215.07709 401.720925 
L 209.298604 398.940594 
L 206.181637 396.463634 
L 203.520117 393.35821 
L 201.423844 390.064692 
L 198.682916 383.665749 
L 197.741631 380.62342 
L 196.681685 377.266806 
L 195.04682 370.867864 
L 193.907881 364.468921 
L 193.538646 358.069979 
L 194.131448 351.671036 
L 195.661165 345.272093 
L 197.741631 339.370486 
L 197.919182 338.873151 
L 200.678522 332.474208 
L 203.520117 326.239212 
L 203.597392 326.075266 
L 206.526469 319.676323 
L 209.246651 313.277381 
L 209.298604 313.154612 
L 212.052202 306.878438 
L 214.965641 300.479495 
L 215.07709 300.269266 
L 218.604459 294.080553 
L 220.855576 290.684673 
L 223.079753 287.68161 
L 226.634062 283.602769 
L 228.96154 281.282668 
L 232.412549 278.288029 
L 236.959813 274.883725 
L 238.191035 274.048099 
L 243.969521 270.597101 
L 247.833014 268.484782 
L 249.748008 267.490182 
L 255.526494 264.687751 
L 261.30498 262.08584 
L 261.30498 262.08584 
L 267.083466 259.767461 
L 272.861953 257.78323 
L 278.640439 256.147159 
L 280.534724 255.686897 
L 284.418925 254.688747 
L 290.197411 253.321472 
L 295.975898 251.975124 
L 301.754384 250.589744 
L 307.084014 249.287955 
L 307.53287 249.171262 
L 313.311357 247.812752 
L 319.089843 246.706771 
L 324.868329 245.969009 
L 330.646815 245.666433 
L 336.425302 245.83261 
L 342.203788 246.540387 
L 347.982274 247.999689 
L 350.950268 249.287955 
L 353.760761 250.806227 
L 359.376466 255.686897 
L 359.539247 255.858482 
L 364.412462 262.08584 
L 365.317733 263.255821 
L 369.331118 268.484782 
L 371.096219 270.634905 
L 374.668271 274.883725 
L 376.874706 277.560176 
L 379.758648 281.282668 
L 382.653192 285.59725 
L 383.856722 287.68161 
L 386.796589 294.080553 
L 388.431678 299.18124 
L 388.78219 300.479495 
L 389.855923 306.878438 
L 390.242077 313.277381 
L 390.022148 319.676323 
L 389.243556 326.075266 
L 388.431678 329.989576 
L 387.923296 332.474208 
L 386.095739 338.873151 
L 383.674181 345.272093 
L 382.653192 347.492196 
L 380.674142 351.671036 
L 376.980823 358.069979 
L 376.874706 358.234111 
L 372.669374 364.468921 
L 371.096219 366.500628 
L 367.691258 370.867864 
L 365.317733 373.579678 
L 362.222556 377.266806 
L 359.539247 380.150295 
L 356.491294 383.665749 
L 353.760761 386.523229 
L 350.583788 390.064692 
L 347.982274 392.71075 
L 344.382799 396.463634 
L 342.203788 398.560196 
L 337.590531 402.862577 
L 336.425302 403.883012 
L 330.646815 408.503916 
L 329.518254 409.261519 
L 324.868329 412.289854 
L 319.089843 415.168313 
L 317.580631 415.660462 
L 313.311357 417.040464 
L 307.53287 417.937113 
L 301.754384 417.964553 
L 295.975898 417.310599 
L 290.197411 416.226827 
z
" clip-path="url(#p761afd24c3)" style="fill: #92c4de"/>
    <path d="M 290.197411 416.226827 
L 295.975898 417.310599 
L 301.754384 417.964553 
L 307.53287 417.937113 
L 313.311357 417.040464 
L 317.580631 415.660462 
L 319.089843 415.168313 
L 324.868329 412.289854 
L 329.518254 409.261519 
L 330.646815 408.503916 
L 336.425302 403.883012 
L 337.590531 402.862577 
L 342.203788 398.560196 
L 344.382799 396.463634 
L 347.982274 392.71075 
L 350.583788 390.064692 
L 353.760761 386.523229 
L 356.491294 383.665749 
L 359.539247 380.150295 
L 362.222556 377.266806 
L 365.317733 373.579678 
L 367.691258 370.867864 
L 371.096219 366.500628 
L 372.669374 364.468921 
L 376.874706 358.234111 
L 376.980823 358.069979 
L 380.674142 351.671036 
L 382.653192 347.492196 
L 383.674181 345.272093 
L 386.095739 338.873151 
L 387.923296 332.474208 
L 388.431678 329.989576 
L 389.243556 326.075266 
L 390.022148 319.676323 
L 390.242077 313.277381 
L 389.855923 306.878438 
L 388.78219 300.479495 
L 388.431678 299.18124 
L 386.796589 294.080553 
L 383.856722 287.68161 
L 382.653192 285.59725 
L 379.758648 281.282668 
L 376.874706 277.560176 
L 374.668271 274.883725 
L 371.096219 270.634905 
L 369.331118 268.484782 
L 365.317733 263.255821 
L 364.412462 262.08584 
L 359.539247 255.858482 
L 359.376466 255.686897 
L 353.760761 250.806227 
L 350.950268 249.287955 
L 347.982274 247.999689 
L 342.203788 246.540387 
L 336.425302 245.83261 
L 330.646815 245.666433 
L 324.868329 245.969009 
L 319.089843 246.706771 
L 313.311357 247.812752 
L 307.53287 249.171262 
L 307.084014 249.287955 
L 301.754384 250.589744 
L 295.975898 251.975124 
L 290.197411 253.321472 
L 284.418925 254.688747 
L 280.534724 255.686897 
L 278.640439 256.147159 
L 272.861953 257.78323 
L 267.083466 259.767461 
L 261.30498 262.08584 
L 261.30498 262.08584 
L 255.526494 264.687751 
L 249.748008 267.490182 
L 247.833014 268.484782 
L 243.969521 270.597101 
L 238.191035 274.048099 
L 236.959813 274.883725 
L 232.412549 278.288029 
L 228.96154 281.282668 
L 226.634062 283.602769 
L 223.079753 287.68161 
L 220.855576 290.684673 
L 218.604459 294.080553 
L 215.07709 300.269266 
L 214.965641 300.479495 
L 212.052202 306.878438 
L 209.298604 313.154612 
L 209.246651 313.277381 
L 206.526469 319.676323 
L 203.597392 326.075266 
L 203.520117 326.239212 
L 200.678522 332.474208 
L 197.919182 338.873151 
L 197.741631 339.370486 
L 195.661165 345.272093 
L 194.131448 351.671036 
L 193.538646 358.069979 
L 193.907881 364.468921 
L 195.04682 370.867864 
L 196.681685 377.266806 
L 197.741631 380.62342 
L 198.682916 383.665749 
L 201.423844 390.064692 
L 203.520117 393.35821 
L 206.181637 396.463634 
L 209.298604 398.940594 
L 215.07709 401.720925 
L 219.265205 402.862577 
L 220.855576 403.246417 
L 226.634062 404.184854 
L 232.412549 404.891527 
L 238.191035 405.563745 
L 243.969521 406.332664 
L 249.748008 407.275888 
L 255.526494 408.403671 
L 259.475848 409.261519 
L 261.30498 409.68691 
L 267.083466 411.073598 
L 272.861953 412.420799 
L 278.640439 413.71387 
L 284.418925 414.976013 
L 287.649815 415.660462 
z
M 277.154318 402.862577 
L 272.861953 402.067216 
L 267.083466 400.81926 
L 261.30498 399.468129 
L 255.526494 398.161813 
L 249.748008 397.031909 
L 246.181042 396.463634 
L 243.969521 396.115237 
L 238.191035 395.319416 
L 232.412549 394.447305 
L 226.634062 393.217135 
L 220.855576 391.186618 
L 218.835245 390.064692 
L 215.07709 387.050866 
L 212.327 383.665749 
L 209.343742 377.266806 
L 209.298604 377.096186 
L 207.756003 370.867864 
L 206.928531 364.468921 
L 206.831335 358.069979 
L 207.593222 351.671036 
L 209.298604 345.272093 
L 209.298604 345.272093 
L 211.789256 338.873151 
L 214.913405 332.474208 
L 215.07709 332.15484 
L 218.261179 326.075266 
L 220.855576 321.114644 
L 221.636965 319.676323 
L 224.907724 313.277381 
L 226.634062 309.82846 
L 228.243195 306.878438 
L 232.034633 300.479495 
L 232.412549 299.92683 
L 236.97235 294.080553 
L 238.191035 292.801599 
L 243.782026 287.68161 
L 243.969521 287.537467 
L 249.748008 283.469663 
L 253.166233 281.282668 
L 255.526494 279.938368 
L 261.30498 276.839224 
L 265.341471 274.883725 
L 267.083466 274.097747 
L 272.861953 271.772224 
L 278.640439 269.863365 
L 283.925666 268.484782 
L 284.418925 268.356794 
L 290.197411 267.222882 
L 295.975898 266.387875 
L 301.754384 265.727673 
L 307.53287 265.083368 
L 313.311357 264.328084 
L 319.089843 263.481828 
L 324.868329 262.756232 
L 330.646815 262.489883 
L 336.425302 263.087161 
L 342.203788 265.017597 
L 347.566655 268.484782 
L 347.982274 268.771678 
L 353.760761 274.363198 
L 354.212612 274.883725 
L 359.539247 280.878709 
L 359.879556 281.282668 
L 365.096597 287.68161 
L 365.317733 287.983929 
L 369.658543 294.080553 
L 371.096219 296.509694 
L 373.31973 300.479495 
L 376.0164 306.878438 
L 376.874706 310.048332 
L 377.626398 313.277381 
L 378.196134 319.676323 
L 377.857253 326.075266 
L 376.874706 331.405756 
L 376.678606 332.474208 
L 374.698154 338.873151 
L 371.970245 345.272093 
L 371.096219 346.903068 
L 368.535257 351.671036 
L 365.317733 356.68175 
L 364.442108 358.069979 
L 359.891157 364.468921 
L 359.539247 364.921067 
L 355.111801 370.867864 
L 353.760761 372.546199 
L 350.110673 377.266806 
L 347.982274 379.831761 
L 344.820689 383.665749 
L 342.203788 386.625551 
L 339.005135 390.064692 
L 336.425302 392.665177 
L 332.170212 396.463634 
L 330.646815 397.756422 
L 324.868329 401.753915 
L 322.63616 402.862577 
L 319.089843 404.589029 
L 313.311357 406.25429 
L 307.53287 406.848659 
L 301.754384 406.609317 
L 295.975898 405.905836 
L 290.197411 405.042899 
L 284.418925 404.13651 
L 278.640439 403.154492 
z
" clip-path="url(#p761afd24c3)" style="fill: #65aad4"/>
    <path d="M 278.640439 403.154492 
L 284.418925 404.13651 
L 290.197411 405.042899 
L 295.975898 405.905836 
L 301.754384 406.609317 
L 307.53287 406.848659 
L 313.311357 406.25429 
L 319.089843 404.589029 
L 322.63616 402.862577 
L 324.868329 401.753915 
L 330.646815 397.756422 
L 332.170212 396.463634 
L 336.425302 392.665177 
L 339.005135 390.064692 
L 342.203788 386.625551 
L 344.820689 383.665749 
L 347.982274 379.831761 
L 350.110673 377.266806 
L 353.760761 372.546199 
L 355.111801 370.867864 
L 359.539247 364.921067 
L 359.891157 364.468921 
L 364.442108 358.069979 
L 365.317733 356.68175 
L 368.535257 351.671036 
L 371.096219 346.903068 
L 371.970245 345.272093 
L 374.698154 338.873151 
L 376.678606 332.474208 
L 376.874706 331.405756 
L 377.857253 326.075266 
L 378.196134 319.676323 
L 377.626398 313.277381 
L 376.874706 310.048332 
L 376.0164 306.878438 
L 373.31973 300.479495 
L 371.096219 296.509694 
L 369.658543 294.080553 
L 365.317733 287.983929 
L 365.096597 287.68161 
L 359.879556 281.282668 
L 359.539247 280.878709 
L 354.212612 274.883725 
L 353.760761 274.363198 
L 347.982274 268.771678 
L 347.566655 268.484782 
L 342.203788 265.017597 
L 336.425302 263.087161 
L 330.646815 262.489883 
L 324.868329 262.756232 
L 319.089843 263.481828 
L 313.311357 264.328084 
L 307.53287 265.083368 
L 301.754384 265.727673 
L 295.975898 266.387875 
L 290.197411 267.222882 
L 284.418925 268.356794 
L 283.925666 268.484782 
L 278.640439 269.863365 
L 272.861953 271.772224 
L 267.083466 274.097747 
L 265.341471 274.883725 
L 261.30498 276.839224 
L 255.526494 279.938368 
L 253.166233 281.282668 
L 249.748008 283.469663 
L 243.969521 287.537467 
L 243.782026 287.68161 
L 238.191035 292.801599 
L 236.97235 294.080553 
L 232.412549 299.92683 
L 232.034633 300.479495 
L 228.243195 306.878438 
L 226.634062 309.82846 
L 224.907724 313.277381 
L 221.636965 319.676323 
L 220.855576 321.114644 
L 218.261179 326.075266 
L 215.07709 332.15484 
L 214.913405 332.474208 
L 211.789256 338.873151 
L 209.298604 345.272093 
L 209.298604 345.272093 
L 207.593222 351.671036 
L 206.831335 358.069979 
L 206.928531 364.468921 
L 207.756003 370.867864 
L 209.298604 377.096186 
L 209.343742 377.266806 
L 212.327 383.665749 
L 215.07709 387.050866 
L 218.835245 390.064692 
L 220.855576 391.186618 
L 226.634062 393.217135 
L 232.412549 394.447305 
L 238.191035 395.319416 
L 243.969521 396.115237 
L 246.181042 396.463634 
L 249.748008 397.031909 
L 255.526494 398.161813 
L 261.30498 399.468129 
L 267.083466 400.81926 
L 272.861953 402.067216 
L 277.154318 402.862577 
z
M 262.161456 390.064692 
L 261.30498 389.835928 
L 255.526494 388.440663 
L 249.748008 387.280901 
L 243.969521 386.266689 
L 238.191035 385.166047 
L 232.548568 383.665749 
L 232.412549 383.618867 
L 226.634062 380.439115 
L 223.245911 377.266806 
L 220.855576 373.027677 
L 219.947059 370.867864 
L 218.781546 364.468921 
L 218.786793 358.069979 
L 219.798434 351.671036 
L 220.855576 348.222202 
L 221.78603 345.272093 
L 224.625874 338.873151 
L 226.634062 335.141477 
L 228.124743 332.474208 
L 232.019706 326.075266 
L 232.412549 325.435084 
L 236.195818 319.676323 
L 238.191035 316.670621 
L 240.6665 313.277381 
L 243.969521 308.912197 
L 245.685321 306.878438 
L 249.748008 302.397137 
L 251.684248 300.479495 
L 255.526494 297.015681 
L 259.14263 294.080553 
L 261.30498 292.491601 
L 267.083466 288.693856 
L 268.897106 287.68161 
L 272.861953 285.638172 
L 278.640439 283.344461 
L 284.418925 281.814323 
L 288.610819 281.282668 
L 290.197411 281.087571 
L 295.975898 281.027105 
L 301.754384 281.282668 
L 301.754384 281.282668 
L 307.53287 281.414624 
L 310.235013 281.282668 
L 313.311357 281.129887 
L 319.089843 280.513771 
L 324.868329 279.986535 
L 330.646815 280.096588 
L 335.976291 281.282668 
L 336.425302 281.378788 
L 342.203788 284.101501 
L 346.84878 287.68161 
L 347.982274 288.615087 
L 353.008072 294.080553 
L 353.760761 295.061672 
L 357.455245 300.479495 
L 359.539247 304.353388 
L 360.874103 306.878438 
L 363.485664 313.277381 
L 365.180888 319.676323 
L 365.317733 321.076426 
L 365.760173 326.075266 
L 365.317733 331.074705 
L 365.196402 332.474208 
L 363.530872 338.873151 
L 360.962949 345.272093 
L 359.539247 347.956242 
L 357.607774 351.671036 
L 353.760761 357.947533 
L 353.686802 358.069979 
L 349.353324 364.468921 
L 347.982274 366.348873 
L 344.663328 370.867864 
L 342.203788 374.028163 
L 339.523953 377.266806 
L 336.425302 380.804529 
L 333.548978 383.665749 
L 330.646815 386.39425 
L 325.712731 390.064692 
L 324.868329 390.664092 
L 319.089843 393.492774 
L 313.311357 395.095021 
L 307.53287 395.696795 
L 301.754384 395.703782 
L 295.975898 395.458383 
L 290.197411 395.093256 
L 284.418925 394.569557 
L 278.640439 393.786054 
L 272.861953 392.681629 
L 267.083466 391.309342 
z
" clip-path="url(#p761afd24c3)" style="fill: #4292c6"/>
    <path d="M 267.083466 391.309342 
L 272.861953 392.681629 
L 278.640439 393.786054 
L 284.418925 394.569557 
L 290.197411 395.093256 
L 295.975898 395.458383 
L 301.754384 395.703782 
L 307.53287 395.696795 
L 313.311357 395.095021 
L 319.089843 393.492774 
L 324.868329 390.664092 
L 325.712731 390.064692 
L 330.646815 386.39425 
L 333.548978 383.665749 
L 336.425302 380.804529 
L 339.523953 377.266806 
L 342.203788 374.028163 
L 344.663328 370.867864 
L 347.982274 366.348873 
L 349.353324 364.468921 
L 353.686802 358.069979 
L 353.760761 357.947533 
L 357.607774 351.671036 
L 359.539247 347.956242 
L 360.962949 345.272093 
L 363.530872 338.873151 
L 365.196402 332.474208 
L 365.317733 331.074705 
L 365.760173 326.075266 
L 365.317733 321.076426 
L 365.180888 319.676323 
L 363.485664 313.277381 
L 360.874103 306.878438 
L 359.539247 304.353388 
L 357.455245 300.479495 
L 353.760761 295.061672 
L 353.008072 294.080553 
L 347.982274 288.615087 
L 346.84878 287.68161 
L 342.203788 284.101501 
L 336.425302 281.378788 
L 335.976291 281.282668 
L 330.646815 280.096588 
L 324.868329 279.986535 
L 319.089843 280.513771 
L 313.311357 281.129887 
L 310.235013 281.282668 
L 307.53287 281.414624 
L 301.754384 281.282668 
L 301.754384 281.282668 
L 295.975898 281.027105 
L 290.197411 281.087571 
L 288.610819 281.282668 
L 284.418925 281.814323 
L 278.640439 283.344461 
L 272.861953 285.638172 
L 268.897106 287.68161 
L 267.083466 288.693856 
L 261.30498 292.491601 
L 259.14263 294.080553 
L 255.526494 297.015681 
L 251.684248 300.479495 
L 249.748008 302.397137 
L 245.685321 306.878438 
L 243.969521 308.912197 
L 240.6665 313.277381 
L 238.191035 316.670621 
L 236.195818 319.676323 
L 232.412549 325.435084 
L 232.019706 326.075266 
L 228.124743 332.474208 
L 226.634062 335.141477 
L 224.625874 338.873151 
L 221.78603 345.272093 
L 220.855576 348.222202 
L 219.798434 351.671036 
L 218.786793 358.069979 
L 218.781546 364.468921 
L 219.947059 370.867864 
L 220.855576 373.027677 
L 223.245911 377.266806 
L 226.634062 380.439115 
L 232.412549 383.618867 
L 232.548568 383.665749 
L 238.191035 385.166047 
L 243.969521 386.266689 
L 249.748008 387.280901 
L 255.526494 388.440663 
L 261.30498 389.835928 
L 262.161456 390.064692 
z
M 280.62828 383.665749 
L 278.640439 383.339816 
L 272.861953 381.875647 
L 267.083466 380.122555 
L 261.30498 378.404118 
L 256.910679 377.266806 
L 255.526494 376.842902 
L 249.748008 375.222367 
L 243.969521 373.336336 
L 238.8836 370.867864 
L 238.191035 370.280664 
L 233.960331 364.468921 
L 232.801714 358.069979 
L 233.651336 351.671036 
L 235.805805 345.272093 
L 238.191035 340.388277 
L 238.979442 338.873151 
L 243.033271 332.474208 
L 243.969521 331.13751 
L 247.803893 326.075266 
L 249.748008 323.633281 
L 253.215485 319.676323 
L 255.526494 317.11892 
L 259.428872 313.277381 
L 261.30498 311.485889 
L 266.910848 306.878438 
L 267.083466 306.742375 
L 272.861953 303.136498 
L 278.640439 300.607999 
L 279.241018 300.479495 
L 284.418925 299.433875 
L 290.197411 299.24807 
L 295.975898 299.469937 
L 301.754384 299.423603 
L 307.53287 298.817063 
L 313.311357 297.815674 
L 319.089843 296.813528 
L 324.868329 296.285321 
L 330.646815 296.768706 
L 336.425302 298.867302 
L 338.732138 300.479495 
L 342.203788 303.649798 
L 344.65494 306.878438 
L 347.982274 313.277381 
L 347.982274 313.277381 
L 350.007836 319.676323 
L 351.142857 326.075266 
L 351.27719 332.474208 
L 350.301414 338.873151 
L 348.308037 345.272093 
L 347.982274 345.972877 
L 345.280836 351.671036 
L 342.203788 357.084607 
L 341.613363 358.069979 
L 337.16901 364.468921 
L 336.425302 365.439722 
L 331.727041 370.867864 
L 330.646815 372.010994 
L 324.868329 376.932137 
L 324.334981 377.266806 
L 319.089843 380.181812 
L 313.311357 382.246361 
L 307.53287 383.46593 
L 305.989492 383.665749 
L 301.754384 384.152831 
L 295.975898 384.516611 
L 290.197411 384.567309 
L 284.418925 384.214741 
z
" clip-path="url(#p761afd24c3)" style="fill: #2474b7"/>
    <path d="M 284.418925 384.214741 
L 290.197411 384.567309 
L 295.975898 384.516611 
L 301.754384 384.152831 
L 305.989492 383.665749 
L 307.53287 383.46593 
L 313.311357 382.246361 
L 319.089843 380.181812 
L 324.334981 377.266806 
L 324.868329 376.932137 
L 330.646815 372.010994 
L 331.727041 370.867864 
L 336.425302 365.439722 
L 337.16901 364.468921 
L 341.613363 358.069979 
L 342.203788 357.084607 
L 345.280836 351.671036 
L 347.982274 345.972877 
L 348.308037 345.272093 
L 350.301414 338.873151 
L 351.27719 332.474208 
L 351.142857 326.075266 
L 350.007836 319.676323 
L 347.982274 313.277381 
L 347.982274 313.277381 
L 344.65494 306.878438 
L 342.203788 303.649798 
L 338.732138 300.479495 
L 336.425302 298.867302 
L 330.646815 296.768706 
L 324.868329 296.285321 
L 319.089843 296.813528 
L 313.311357 297.815674 
L 307.53287 298.817063 
L 301.754384 299.423603 
L 295.975898 299.469937 
L 290.197411 299.24807 
L 284.418925 299.433875 
L 279.241018 300.479495 
L 278.640439 300.607999 
L 272.861953 303.136498 
L 267.083466 306.742375 
L 266.910848 306.878438 
L 261.30498 311.485889 
L 259.428872 313.277381 
L 255.526494 317.11892 
L 253.215485 319.676323 
L 249.748008 323.633281 
L 247.803893 326.075266 
L 243.969521 331.13751 
L 243.033271 332.474208 
L 238.979442 338.873151 
L 238.191035 340.388277 
L 235.805805 345.272093 
L 233.651336 351.671036 
L 232.801714 358.069979 
L 233.960331 364.468921 
L 238.191035 370.280664 
L 238.8836 370.867864 
L 243.969521 373.336336 
L 249.748008 375.222367 
L 255.526494 376.842902 
L 256.910679 377.266806 
L 261.30498 378.404118 
L 267.083466 380.122555 
L 272.861953 381.875647 
L 278.640439 383.339816 
L 280.62828 383.665749 
z
M 277.118066 370.867864 
L 272.861953 369.001082 
L 267.083466 366.339056 
L 262.700054 364.468921 
L 261.30498 363.586802 
L 255.526494 359.749632 
L 253.592099 358.069979 
L 251.365152 351.671036 
L 252.702693 345.272093 
L 255.526494 339.716388 
L 256.006867 338.873151 
L 261.161455 332.474208 
L 261.30498 332.32147 
L 267.083466 327.270815 
L 268.853096 326.075266 
L 272.861953 323.628434 
L 278.640439 321.246705 
L 284.418925 319.78923 
L 284.989072 319.676323 
L 290.197411 318.768377 
L 295.975898 317.624788 
L 301.754384 316.156199 
L 307.53287 314.411974 
L 311.29339 313.277381 
L 313.311357 312.742909 
L 319.089843 311.778661 
L 324.868329 312.048472 
L 327.903135 313.277381 
L 330.646815 315.174823 
L 333.742714 319.676323 
L 335.686112 326.075266 
L 336.076249 332.474208 
L 335.304242 338.873151 
L 333.461939 345.272093 
L 330.646815 351.671036 
L 330.646815 351.671036 
L 326.209769 358.069979 
L 324.868329 359.598981 
L 319.687295 364.468921 
L 319.089843 364.915746 
L 313.311357 368.244071 
L 307.53287 370.725172 
L 307.083627 370.867864 
L 301.754384 372.193999 
L 295.975898 373.060397 
L 290.197411 373.275108 
L 284.418925 372.716477 
L 278.640439 371.368763 
z
" clip-path="url(#p761afd24c3)" style="fill: #0e58a2"/>
    <path d="M 278.640439 371.368763 
L 284.418925 372.716477 
L 290.197411 373.275108 
L 295.975898 373.060397 
L 301.754384 372.193999 
L 307.083627 370.867864 
L 307.53287 370.725172 
L 313.311357 368.244071 
L 319.089843 364.915746 
L 319.687295 364.468921 
L 324.868329 359.598981 
L 326.209769 358.069979 
L 330.646815 351.671036 
L 330.646815 351.671036 
L 333.461939 345.272093 
L 335.304242 338.873151 
L 336.076249 332.474208 
L 335.686112 326.075266 
L 333.742714 319.676323 
L 330.646815 315.174823 
L 327.903135 313.277381 
L 324.868329 312.048472 
L 319.089843 311.778661 
L 313.311357 312.742909 
L 311.29339 313.277381 
L 307.53287 314.411974 
L 301.754384 316.156199 
L 295.975898 317.624788 
L 290.197411 318.768377 
L 284.989072 319.676323 
L 284.418925 319.78923 
L 278.640439 321.246705 
L 272.861953 323.628434 
L 268.853096 326.075266 
L 267.083466 327.270815 
L 261.30498 332.32147 
L 261.161455 332.474208 
L 256.006867 338.873151 
L 255.526494 339.716388 
L 252.702693 345.272093 
L 251.365152 351.671036 
L 253.592099 358.069979 
L 255.526494 359.749632 
L 261.30498 363.586802 
L 262.700054 364.468921 
L 267.083466 366.339056 
L 272.861953 369.001082 
L 277.118066 370.867864 
z
" clip-path="url(#p761afd24c3)" style="fill: #083c7d"/>
   </g>
   <g id="matplotlib.axis_1">
    <g id="xtick_1">
     <g id="line2d_1">
      <defs>
       <path id="mf4ea45234e" d="M 0 0 
L 0 3.5 
" style="stroke: #000000; stroke-width: 0.8"/>
      </defs>
      <g>
       <use xlink:href="#mf4ea45234e" x="103.234412" y="499.48" style="stroke: #000000; stroke-width: 0.8"/>
      </g>
     </g>
     <g id="text_1">
      <!-- 3 -->
      <g transform="translate(96.235662 523.196563) scale(0.22 -0.22)">
       <defs>
        <path id="DejaVuSans-33" d="M 2597 2516 
Q 3050 2419 3304 2112 
Q 3559 1806 3559 1356 
Q 3559 666 3084 287 
Q 2609 -91 1734 -91 
Q 1441 -91 1130 -33 
Q 819 25 488 141 
L 488 750 
Q 750 597 1062 519 
Q 1375 441 1716 441 
Q 2309 441 2620 675 
Q 2931 909 2931 1356 
Q 2931 1769 2642 2001 
Q 2353 2234 1838 2234 
L 1294 2234 
L 1294 2753 
L 1863 2753 
Q 2328 2753 2575 2939 
Q 2822 3125 2822 3475 
Q 2822 3834 2567 4026 
Q 2313 4219 1838 4219 
Q 1578 4219 1281 4162 
Q 984 4106 628 3988 
L 628 4550 
Q 988 4650 1302 4700 
Q 1616 4750 1894 4750 
Q 2613 4750 3031 4423 
Q 3450 4097 3450 3541 
Q 3450 3153 3228 2886 
Q 3006 2619 2597 2516 
z
" transform="scale(0.015625)"/>
       </defs>
       <use xlink:href="#DejaVuSans-33"/>
      </g>
     </g>
    </g>
    <g id="xtick_2">
     <g id="line2d_2">
      <g>
       <use xlink:href="#mf4ea45234e" x="211.171886" y="499.48" style="stroke: #000000; stroke-width: 0.8"/>
      </g>
     </g>
     <g id="text_2">
      <!-- 4 -->
      <g transform="translate(204.173136 523.196563) scale(0.22 -0.22)">
       <defs>
        <path id="DejaVuSans-34" d="M 2419 4116 
L 825 1625 
L 2419 1625 
L 2419 4116 
z
M 2253 4666 
L 3047 4666 
L 3047 1625 
L 3713 1625 
L 3713 1100 
L 3047 1100 
L 3047 0 
L 2419 0 
L 2419 1100 
L 313 1100 
L 313 1709 
L 2253 4666 
z
" transform="scale(0.015625)"/>
       </defs>
       <use xlink:href="#DejaVuSans-34"/>
      </g>
     </g>
    </g>
    <g id="xtick_3">
     <g id="line2d_3">
      <g>
       <use xlink:href="#mf4ea45234e" x="319.10936" y="499.48" style="stroke: #000000; stroke-width: 0.8"/>
      </g>
     </g>
     <g id="text_3">
      <!-- 5 -->
      <g transform="translate(312.11061 523.196563) scale(0.22 -0.22)">
       <defs>
        <path id="DejaVuSans-35" d="M 691 4666 
L 3169 4666 
L 3169 4134 
L 1269 4134 
L 1269 2991 
Q 1406 3038 1543 3061 
Q 1681 3084 1819 3084 
Q 2600 3084 3056 2656 
Q 3513 2228 3513 1497 
Q 3513 744 3044 326 
Q 2575 -91 1722 -91 
Q 1428 -91 1123 -41 
Q 819 9 494 109 
L 494 744 
Q 775 591 1075 516 
Q 1375 441 1709 441 
Q 2250 441 2565 725 
Q 2881 1009 2881 1497 
Q 2881 1984 2565 2268 
Q 2250 2553 1709 2553 
Q 1456 2553 1204 2497 
Q 953 2441 691 2322 
L 691 4666 
z
" transform="scale(0.015625)"/>
       </defs>
       <use xlink:href="#DejaVuSans-35"/>
      </g>
     </g>
    </g>
    <g id="xtick_4">
     <g id="line2d_4">
      <g>
       <use xlink:href="#mf4ea45234e" x="427.046833" y="499.48" style="stroke: #000000; stroke-width: 0.8"/>
      </g>
     </g>
     <g id="text_4">
      <!-- 6 -->
      <g transform="translate(420.048083 523.196563) scale(0.22 -0.22)">
       <defs>
        <path id="DejaVuSans-36" d="M 2113 2584 
Q 1688 2584 1439 2293 
Q 1191 2003 1191 1497 
Q 1191 994 1439 701 
Q 1688 409 2113 409 
Q 2538 409 2786 701 
Q 3034 994 3034 1497 
Q 3034 2003 2786 2293 
Q 2538 2584 2113 2584 
z
M 3366 4563 
L 3366 3988 
Q 3128 4100 2886 4159 
Q 2644 4219 2406 4219 
Q 1781 4219 1451 3797 
Q 1122 3375 1075 2522 
Q 1259 2794 1537 2939 
Q 1816 3084 2150 3084 
Q 2853 3084 3261 2657 
Q 3669 2231 3669 1497 
Q 3669 778 3244 343 
Q 2819 -91 2113 -91 
Q 1303 -91 875 529 
Q 447 1150 447 2328 
Q 447 3434 972 4092 
Q 1497 4750 2381 4750 
Q 2619 4750 2861 4703 
Q 3103 4656 3366 4563 
z
" transform="scale(0.015625)"/>
       </defs>
       <use xlink:href="#DejaVuSans-36"/>
      </g>
     </g>
    </g>
    <g id="xtick_5">
     <g id="line2d_5">
      <g>
       <use xlink:href="#mf4ea45234e" x="534.984307" y="499.48" style="stroke: #000000; stroke-width: 0.8"/>
      </g>
     </g>
     <g id="text_5">
      <!-- 7 -->
      <g transform="translate(527.985557 523.196563) scale(0.22 -0.22)">
       <defs>
        <path id="DejaVuSans-37" d="M 525 4666 
L 3525 4666 
L 3525 4397 
L 1831 0 
L 1172 0 
L 2766 4134 
L 525 4134 
L 525 4666 
z
" transform="scale(0.015625)"/>
       </defs>
       <use xlink:href="#DejaVuSans-37"/>
      </g>
     </g>
    </g>
    <g id="xtick_6">
     <g id="line2d_6">
      <g>
       <use xlink:href="#mf4ea45234e" x="642.921781" y="499.48" style="stroke: #000000; stroke-width: 0.8"/>
      </g>
     </g>
     <g id="text_6">
      <!-- 8 -->
      <g transform="translate(635.923031 523.196563) scale(0.22 -0.22)">
       <defs>
        <path id="DejaVuSans-38" d="M 2034 2216 
Q 1584 2216 1326 1975 
Q 1069 1734 1069 1313 
Q 1069 891 1326 650 
Q 1584 409 2034 409 
Q 2484 409 2743 651 
Q 3003 894 3003 1313 
Q 3003 1734 2745 1975 
Q 2488 2216 2034 2216 
z
M 1403 2484 
Q 997 2584 770 2862 
Q 544 3141 544 3541 
Q 544 4100 942 4425 
Q 1341 4750 2034 4750 
Q 2731 4750 3128 4425 
Q 3525 4100 3525 3541 
Q 3525 3141 3298 2862 
Q 3072 2584 2669 2484 
Q 3125 2378 3379 2068 
Q 3634 1759 3634 1313 
Q 3634 634 3220 271 
Q 2806 -91 2034 -91 
Q 1263 -91 848 271 
Q 434 634 434 1313 
Q 434 1759 690 2068 
Q 947 2378 1403 2484 
z
M 1172 3481 
Q 1172 3119 1398 2916 
Q 1625 2713 2034 2713 
Q 2441 2713 2670 2916 
Q 2900 3119 2900 3481 
Q 2900 3844 2670 4047 
Q 2441 4250 2034 4250 
Q 1625 4250 1398 4047 
Q 1172 3844 1172 3481 
z
" transform="scale(0.015625)"/>
       </defs>
       <use xlink:href="#DejaVuSans-38"/>
      </g>
     </g>
    </g>
    <g id="text_7">
     <!-- Force Uncertainties -->
     <g transform="translate(276.406094 548.488438) scale(0.22 -0.22)">
      <defs>
       <path id="DejaVuSans-46" d="M 628 4666 
L 3309 4666 
L 3309 4134 
L 1259 4134 
L 1259 2759 
L 3109 2759 
L 3109 2228 
L 1259 2228 
L 1259 0 
L 628 0 
L 628 4666 
z
" transform="scale(0.015625)"/>
       <path id="DejaVuSans-6f" d="M 1959 3097 
Q 1497 3097 1228 2736 
Q 959 2375 959 1747 
Q 959 1119 1226 758 
Q 1494 397 1959 397 
Q 2419 397 2687 759 
Q 2956 1122 2956 1747 
Q 2956 2369 2687 2733 
Q 2419 3097 1959 3097 
z
M 1959 3584 
Q 2709 3584 3137 3096 
Q 3566 2609 3566 1747 
Q 3566 888 3137 398 
Q 2709 -91 1959 -91 
Q 1206 -91 779 398 
Q 353 888 353 1747 
Q 353 2609 779 3096 
Q 1206 3584 1959 3584 
z
" transform="scale(0.015625)"/>
       <path id="DejaVuSans-72" d="M 2631 2963 
Q 2534 3019 2420 3045 
Q 2306 3072 2169 3072 
Q 1681 3072 1420 2755 
Q 1159 2438 1159 1844 
L 1159 0 
L 581 0 
L 581 3500 
L 1159 3500 
L 1159 2956 
Q 1341 3275 1631 3429 
Q 1922 3584 2338 3584 
Q 2397 3584 2469 3576 
Q 2541 3569 2628 3553 
L 2631 2963 
z
" transform="scale(0.015625)"/>
       <path id="DejaVuSans-63" d="M 3122 3366 
L 3122 2828 
Q 2878 2963 2633 3030 
Q 2388 3097 2138 3097 
Q 1578 3097 1268 2742 
Q 959 2388 959 1747 
Q 959 1106 1268 751 
Q 1578 397 2138 397 
Q 2388 397 2633 464 
Q 2878 531 3122 666 
L 3122 134 
Q 2881 22 2623 -34 
Q 2366 -91 2075 -91 
Q 1284 -91 818 406 
Q 353 903 353 1747 
Q 353 2603 823 3093 
Q 1294 3584 2113 3584 
Q 2378 3584 2631 3529 
Q 2884 3475 3122 3366 
z
" transform="scale(0.015625)"/>
       <path id="DejaVuSans-65" d="M 3597 1894 
L 3597 1613 
L 953 1613 
Q 991 1019 1311 708 
Q 1631 397 2203 397 
Q 2534 397 2845 478 
Q 3156 559 3463 722 
L 3463 178 
Q 3153 47 2828 -22 
Q 2503 -91 2169 -91 
Q 1331 -91 842 396 
Q 353 884 353 1716 
Q 353 2575 817 3079 
Q 1281 3584 2069 3584 
Q 2775 3584 3186 3129 
Q 3597 2675 3597 1894 
z
M 3022 2063 
Q 3016 2534 2758 2815 
Q 2500 3097 2075 3097 
Q 1594 3097 1305 2825 
Q 1016 2553 972 2059 
L 3022 2063 
z
" transform="scale(0.015625)"/>
       <path id="DejaVuSans-20" transform="scale(0.015625)"/>
       <path id="DejaVuSans-55" d="M 556 4666 
L 1191 4666 
L 1191 1831 
Q 1191 1081 1462 751 
Q 1734 422 2344 422 
Q 2950 422 3222 751 
Q 3494 1081 3494 1831 
L 3494 4666 
L 4128 4666 
L 4128 1753 
Q 4128 841 3676 375 
Q 3225 -91 2344 -91 
Q 1459 -91 1007 375 
Q 556 841 556 1753 
L 556 4666 
z
" transform="scale(0.015625)"/>
       <path id="DejaVuSans-6e" d="M 3513 2113 
L 3513 0 
L 2938 0 
L 2938 2094 
Q 2938 2591 2744 2837 
Q 2550 3084 2163 3084 
Q 1697 3084 1428 2787 
Q 1159 2491 1159 1978 
L 1159 0 
L 581 0 
L 581 3500 
L 1159 3500 
L 1159 2956 
Q 1366 3272 1645 3428 
Q 1925 3584 2291 3584 
Q 2894 3584 3203 3211 
Q 3513 2838 3513 2113 
z
" transform="scale(0.015625)"/>
       <path id="DejaVuSans-74" d="M 1172 4494 
L 1172 3500 
L 2356 3500 
L 2356 3053 
L 1172 3053 
L 1172 1153 
Q 1172 725 1289 603 
Q 1406 481 1766 481 
L 2356 481 
L 2356 0 
L 1766 0 
Q 1100 0 847 248 
Q 594 497 594 1153 
L 594 3053 
L 172 3053 
L 172 3500 
L 594 3500 
L 594 4494 
L 1172 4494 
z
" transform="scale(0.015625)"/>
       <path id="DejaVuSans-61" d="M 2194 1759 
Q 1497 1759 1228 1600 
Q 959 1441 959 1056 
Q 959 750 1161 570 
Q 1363 391 1709 391 
Q 2188 391 2477 730 
Q 2766 1069 2766 1631 
L 2766 1759 
L 2194 1759 
z
M 3341 1997 
L 3341 0 
L 2766 0 
L 2766 531 
Q 2569 213 2275 61 
Q 1981 -91 1556 -91 
Q 1019 -91 701 211 
Q 384 513 384 1019 
Q 384 1609 779 1909 
Q 1175 2209 1959 2209 
L 2766 2209 
L 2766 2266 
Q 2766 2663 2505 2880 
Q 2244 3097 1772 3097 
Q 1472 3097 1187 3025 
Q 903 2953 641 2809 
L 641 3341 
Q 956 3463 1253 3523 
Q 1550 3584 1831 3584 
Q 2591 3584 2966 3190 
Q 3341 2797 3341 1997 
z
" transform="scale(0.015625)"/>
       <path id="DejaVuSans-69" d="M 603 3500 
L 1178 3500 
L 1178 0 
L 603 0 
L 603 3500 
z
M 603 4863 
L 1178 4863 
L 1178 4134 
L 603 4134 
L 603 4863 
z
" transform="scale(0.015625)"/>
       <path id="DejaVuSans-73" d="M 2834 3397 
L 2834 2853 
Q 2591 2978 2328 3040 
Q 2066 3103 1784 3103 
Q 1356 3103 1142 2972 
Q 928 2841 928 2578 
Q 928 2378 1081 2264 
Q 1234 2150 1697 2047 
L 1894 2003 
Q 2506 1872 2764 1633 
Q 3022 1394 3022 966 
Q 3022 478 2636 193 
Q 2250 -91 1575 -91 
Q 1294 -91 989 -36 
Q 684 19 347 128 
L 347 722 
Q 666 556 975 473 
Q 1284 391 1588 391 
Q 1994 391 2212 530 
Q 2431 669 2431 922 
Q 2431 1156 2273 1281 
Q 2116 1406 1581 1522 
L 1381 1569 
Q 847 1681 609 1914 
Q 372 2147 372 2553 
Q 372 3047 722 3315 
Q 1072 3584 1716 3584 
Q 2034 3584 2315 3537 
Q 2597 3491 2834 3397 
z
" transform="scale(0.015625)"/>
      </defs>
      <use xlink:href="#DejaVuSans-46"/>
      <use xlink:href="#DejaVuSans-6f" x="53.894531"/>
      <use xlink:href="#DejaVuSans-72" x="115.076172"/>
      <use xlink:href="#DejaVuSans-63" x="153.939453"/>
      <use xlink:href="#DejaVuSans-65" x="208.919922"/>
      <use xlink:href="#DejaVuSans-20" x="270.443359"/>
      <use xlink:href="#DejaVuSans-55" x="302.230469"/>
      <use xlink:href="#DejaVuSans-6e" x="375.423828"/>
      <use xlink:href="#DejaVuSans-63" x="438.802734"/>
      <use xlink:href="#DejaVuSans-65" x="493.783203"/>
      <use xlink:href="#DejaVuSans-72" x="555.306641"/>
      <use xlink:href="#DejaVuSans-74" x="596.419922"/>
      <use xlink:href="#DejaVuSans-61" x="635.628906"/>
      <use xlink:href="#DejaVuSans-69" x="696.908203"/>
      <use xlink:href="#DejaVuSans-6e" x="724.691406"/>
      <use xlink:href="#DejaVuSans-74" x="788.070312"/>
      <use xlink:href="#DejaVuSans-69" x="827.279297"/>
      <use xlink:href="#DejaVuSans-65" x="855.0625"/>
      <use xlink:href="#DejaVuSans-73" x="916.585938"/>
     </g>
    </g>
   </g>
   <g id="matplotlib.axis_2">
    <g id="ytick_1">
     <g id="line2d_7">
      <defs>
       <path id="mfb357e983f" d="M 0 0 
L -3.5 0 
" style="stroke: #000000; stroke-width: 0.8"/>
      </defs>
      <g>
       <use xlink:href="#mfb357e983f" x="69.68" y="490.496213" style="stroke: #000000; stroke-width: 0.8"/>
      </g>
     </g>
     <g id="text_8">
      <!-- 2 -->
      <g transform="translate(48.6825 498.854495) scale(0.22 -0.22)">
       <defs>
        <path id="DejaVuSans-32" d="M 1228 531 
L 3431 531 
L 3431 0 
L 469 0 
L 469 531 
Q 828 903 1448 1529 
Q 2069 2156 2228 2338 
Q 2531 2678 2651 2914 
Q 2772 3150 2772 3378 
Q 2772 3750 2511 3984 
Q 2250 4219 1831 4219 
Q 1534 4219 1204 4116 
Q 875 4013 500 3803 
L 500 4441 
Q 881 4594 1212 4672 
Q 1544 4750 1819 4750 
Q 2544 4750 2975 4387 
Q 3406 4025 3406 3419 
Q 3406 3131 3298 2873 
Q 3191 2616 2906 2266 
Q 2828 2175 2409 1742 
Q 1991 1309 1228 531 
z
" transform="scale(0.015625)"/>
       </defs>
       <use xlink:href="#DejaVuSans-32"/>
      </g>
     </g>
    </g>
    <g id="ytick_2">
     <g id="line2d_8">
      <g>
       <use xlink:href="#mfb357e983f" x="69.68" y="418.624002" style="stroke: #000000; stroke-width: 0.8"/>
      </g>
     </g>
     <g id="text_9">
      <!-- 3 -->
      <g transform="translate(48.6825 426.982284) scale(0.22 -0.22)">
       <use xlink:href="#DejaVuSans-33"/>
      </g>
     </g>
    </g>
    <g id="ytick_3">
     <g id="line2d_9">
      <g>
       <use xlink:href="#mfb357e983f" x="69.68" y="346.751791" style="stroke: #000000; stroke-width: 0.8"/>
      </g>
     </g>
     <g id="text_10">
      <!-- 4 -->
      <g transform="translate(48.6825 355.110072) scale(0.22 -0.22)">
       <use xlink:href="#DejaVuSans-34"/>
      </g>
     </g>
    </g>
    <g id="ytick_4">
     <g id="line2d_10">
      <g>
       <use xlink:href="#mfb357e983f" x="69.68" y="274.87958" style="stroke: #000000; stroke-width: 0.8"/>
      </g>
     </g>
     <g id="text_11">
      <!-- 5 -->
      <g transform="translate(48.6825 283.237861) scale(0.22 -0.22)">
       <use xlink:href="#DejaVuSans-35"/>
      </g>
     </g>
    </g>
    <g id="ytick_5">
     <g id="line2d_11">
      <g>
       <use xlink:href="#mfb357e983f" x="69.68" y="203.007369" style="stroke: #000000; stroke-width: 0.8"/>
      </g>
     </g>
     <g id="text_12">
      <!-- 6 -->
      <g transform="translate(48.6825 211.36565) scale(0.22 -0.22)">
       <use xlink:href="#DejaVuSans-36"/>
      </g>
     </g>
    </g>
    <g id="ytick_6">
     <g id="line2d_12">
      <g>
       <use xlink:href="#mfb357e983f" x="69.68" y="131.135157" style="stroke: #000000; stroke-width: 0.8"/>
      </g>
     </g>
     <g id="text_13">
      <!-- 7 -->
      <g transform="translate(48.6825 139.493439) scale(0.22 -0.22)">
       <use xlink:href="#DejaVuSans-37"/>
      </g>
     </g>
    </g>
    <g id="ytick_7">
     <g id="line2d_13">
      <g>
       <use xlink:href="#mfb357e983f" x="69.68" y="59.262946" style="stroke: #000000; stroke-width: 0.8"/>
      </g>
     </g>
     <g id="text_14">
      <!-- 8 -->
      <g transform="translate(48.6825 67.621227) scale(0.22 -0.22)">
       <use xlink:href="#DejaVuSans-38"/>
      </g>
     </g>
    </g>
    <g id="text_15">
     <!-- Force Errors [kJ/(mol*A)] -->
     <g transform="translate(40.107187 394.9125) rotate(-90) scale(0.22 -0.22)">
      <defs>
       <path id="DejaVuSans-45" d="M 628 4666 
L 3578 4666 
L 3578 4134 
L 1259 4134 
L 1259 2753 
L 3481 2753 
L 3481 2222 
L 1259 2222 
L 1259 531 
L 3634 531 
L 3634 0 
L 628 0 
L 628 4666 
z
" transform="scale(0.015625)"/>
       <path id="DejaVuSans-5b" d="M 550 4863 
L 1875 4863 
L 1875 4416 
L 1125 4416 
L 1125 -397 
L 1875 -397 
L 1875 -844 
L 550 -844 
L 550 4863 
z
" transform="scale(0.015625)"/>
       <path id="DejaVuSans-6b" d="M 581 4863 
L 1159 4863 
L 1159 1991 
L 2875 3500 
L 3609 3500 
L 1753 1863 
L 3688 0 
L 2938 0 
L 1159 1709 
L 1159 0 
L 581 0 
L 581 4863 
z
" transform="scale(0.015625)"/>
       <path id="DejaVuSans-4a" d="M 628 4666 
L 1259 4666 
L 1259 325 
Q 1259 -519 939 -900 
Q 619 -1281 -91 -1281 
L -331 -1281 
L -331 -750 
L -134 -750 
Q 284 -750 456 -515 
Q 628 -281 628 325 
L 628 4666 
z
" transform="scale(0.015625)"/>
       <path id="DejaVuSans-2f" d="M 1625 4666 
L 2156 4666 
L 531 -594 
L 0 -594 
L 1625 4666 
z
" transform="scale(0.015625)"/>
       <path id="DejaVuSans-28" d="M 1984 4856 
Q 1566 4138 1362 3434 
Q 1159 2731 1159 2009 
Q 1159 1288 1364 580 
Q 1569 -128 1984 -844 
L 1484 -844 
Q 1016 -109 783 600 
Q 550 1309 550 2009 
Q 550 2706 781 3412 
Q 1013 4119 1484 4856 
L 1984 4856 
z
" transform="scale(0.015625)"/>
       <path id="DejaVuSans-6d" d="M 3328 2828 
Q 3544 3216 3844 3400 
Q 4144 3584 4550 3584 
Q 5097 3584 5394 3201 
Q 5691 2819 5691 2113 
L 5691 0 
L 5113 0 
L 5113 2094 
Q 5113 2597 4934 2840 
Q 4756 3084 4391 3084 
Q 3944 3084 3684 2787 
Q 3425 2491 3425 1978 
L 3425 0 
L 2847 0 
L 2847 2094 
Q 2847 2600 2669 2842 
Q 2491 3084 2119 3084 
Q 1678 3084 1418 2786 
Q 1159 2488 1159 1978 
L 1159 0 
L 581 0 
L 581 3500 
L 1159 3500 
L 1159 2956 
Q 1356 3278 1631 3431 
Q 1906 3584 2284 3584 
Q 2666 3584 2933 3390 
Q 3200 3197 3328 2828 
z
" transform="scale(0.015625)"/>
       <path id="DejaVuSans-6c" d="M 603 4863 
L 1178 4863 
L 1178 0 
L 603 0 
L 603 4863 
z
" transform="scale(0.015625)"/>
       <path id="DejaVuSans-2a" d="M 3009 3897 
L 1888 3291 
L 3009 2681 
L 2828 2375 
L 1778 3009 
L 1778 1831 
L 1422 1831 
L 1422 3009 
L 372 2375 
L 191 2681 
L 1313 3291 
L 191 3897 
L 372 4206 
L 1422 3572 
L 1422 4750 
L 1778 4750 
L 1778 3572 
L 2828 4206 
L 3009 3897 
z
" transform="scale(0.015625)"/>
       <path id="DejaVuSans-41" d="M 2188 4044 
L 1331 1722 
L 3047 1722 
L 2188 4044 
z
M 1831 4666 
L 2547 4666 
L 4325 0 
L 3669 0 
L 3244 1197 
L 1141 1197 
L 716 0 
L 50 0 
L 1831 4666 
z
" transform="scale(0.015625)"/>
       <path id="DejaVuSans-29" d="M 513 4856 
L 1013 4856 
Q 1481 4119 1714 3412 
Q 1947 2706 1947 2009 
Q 1947 1309 1714 600 
Q 1481 -109 1013 -844 
L 513 -844 
Q 928 -128 1133 580 
Q 1338 1288 1338 2009 
Q 1338 2731 1133 3434 
Q 928 4138 513 4856 
z
" transform="scale(0.015625)"/>
       <path id="DejaVuSans-5d" d="M 1947 4863 
L 1947 -844 
L 622 -844 
L 622 -397 
L 1369 -397 
L 1369 4416 
L 622 4416 
L 622 4863 
L 1947 4863 
z
" transform="scale(0.015625)"/>
      </defs>
      <use xlink:href="#DejaVuSans-46"/>
      <use xlink:href="#DejaVuSans-6f" x="53.894531"/>
      <use xlink:href="#DejaVuSans-72" x="115.076172"/>
      <use xlink:href="#DejaVuSans-63" x="153.939453"/>
      <use xlink:href="#DejaVuSans-65" x="208.919922"/>
      <use xlink:href="#DejaVuSans-20" x="270.443359"/>
      <use xlink:href="#DejaVuSans-45" x="302.230469"/>
      <use xlink:href="#DejaVuSans-72" x="365.414062"/>
      <use xlink:href="#DejaVuSans-72" x="404.777344"/>
      <use xlink:href="#DejaVuSans-6f" x="443.640625"/>
      <use xlink:href="#DejaVuSans-72" x="504.822266"/>
      <use xlink:href="#DejaVuSans-73" x="545.935547"/>
      <use xlink:href="#DejaVuSans-20" x="598.035156"/>
      <use xlink:href="#DejaVuSans-5b" x="629.822266"/>
      <use xlink:href="#DejaVuSans-6b" x="668.835938"/>
      <use xlink:href="#DejaVuSans-4a" x="726.746094"/>
      <use xlink:href="#DejaVuSans-2f" x="756.238281"/>
      <use xlink:href="#DejaVuSans-28" x="789.929688"/>
      <use xlink:href="#DejaVuSans-6d" x="828.943359"/>
      <use xlink:href="#DejaVuSans-6f" x="926.355469"/>
      <use xlink:href="#DejaVuSans-6c" x="987.537109"/>
      <use xlink:href="#DejaVuSans-2a" x="1015.320312"/>
      <use xlink:href="#DejaVuSans-41" x="1065.320312"/>
      <use xlink:href="#DejaVuSans-29" x="1133.728516"/>
      <use xlink:href="#DejaVuSans-5d" x="1172.742188"/>
     </g>
    </g>
   </g>
   <g id="line2d_14">
    <path d="M 69.68 499.48 
L 696.24 23.76 
" clip-path="url(#p761afd24c3)" style="fill: none; stroke-dasharray: 5.55,2.4; stroke-dashoffset: 0; stroke: #ff0000; stroke-width: 1.5"/>
   </g>
   <g id="patch_3">
    <path d="M 69.68 499.48 
L 69.68 23.76 
" style="fill: none; stroke: #000000; stroke-width: 0.8; stroke-linejoin: miter; stroke-linecap: square"/>
   </g>
   <g id="patch_4">
    <path d="M 696.24 499.48 
L 696.24 23.76 
" style="fill: none; stroke: #000000; stroke-width: 0.8; stroke-linejoin: miter; stroke-linecap: square"/>
   </g>
   <g id="patch_5">
    <path d="M 69.68 499.48 
L 696.24 499.48 
" style="fill: none; stroke: #000000; stroke-width: 0.8; stroke-linejoin: miter; stroke-linecap: square"/>
   </g>
   <g id="patch_6">
    <path d="M 69.68 23.76 
L 696.24 23.76 
" style="fill: none; stroke: #000000; stroke-width: 0.8; stroke-linejoin: miter; stroke-linecap: square"/>
   </g>
   <g id="text_16">
    <!-- Correlation in: 0.397 -->
    <g transform="translate(132.336 71.332) scale(0.22 -0.22)">
     <defs>
      <path id="DejaVuSans-43" d="M 4122 4306 
L 4122 3641 
Q 3803 3938 3442 4084 
Q 3081 4231 2675 4231 
Q 1875 4231 1450 3742 
Q 1025 3253 1025 2328 
Q 1025 1406 1450 917 
Q 1875 428 2675 428 
Q 3081 428 3442 575 
Q 3803 722 4122 1019 
L 4122 359 
Q 3791 134 3420 21 
Q 3050 -91 2638 -91 
Q 1578 -91 968 557 
Q 359 1206 359 2328 
Q 359 3453 968 4101 
Q 1578 4750 2638 4750 
Q 3056 4750 3426 4639 
Q 3797 4528 4122 4306 
z
" transform="scale(0.015625)"/>
      <path id="DejaVuSans-3a" d="M 750 794 
L 1409 794 
L 1409 0 
L 750 0 
L 750 794 
z
M 750 3309 
L 1409 3309 
L 1409 2516 
L 750 2516 
L 750 3309 
z
" transform="scale(0.015625)"/>
      <path id="DejaVuSans-30" d="M 2034 4250 
Q 1547 4250 1301 3770 
Q 1056 3291 1056 2328 
Q 1056 1369 1301 889 
Q 1547 409 2034 409 
Q 2525 409 2770 889 
Q 3016 1369 3016 2328 
Q 3016 3291 2770 3770 
Q 2525 4250 2034 4250 
z
M 2034 4750 
Q 2819 4750 3233 4129 
Q 3647 3509 3647 2328 
Q 3647 1150 3233 529 
Q 2819 -91 2034 -91 
Q 1250 -91 836 529 
Q 422 1150 422 2328 
Q 422 3509 836 4129 
Q 1250 4750 2034 4750 
z
" transform="scale(0.015625)"/>
      <path id="DejaVuSans-2e" d="M 684 794 
L 1344 794 
L 1344 0 
L 684 0 
L 684 794 
z
" transform="scale(0.015625)"/>
      <path id="DejaVuSans-39" d="M 703 97 
L 703 672 
Q 941 559 1184 500 
Q 1428 441 1663 441 
Q 2288 441 2617 861 
Q 2947 1281 2994 2138 
Q 2813 1869 2534 1725 
Q 2256 1581 1919 1581 
Q 1219 1581 811 2004 
Q 403 2428 403 3163 
Q 403 3881 828 4315 
Q 1253 4750 1959 4750 
Q 2769 4750 3195 4129 
Q 3622 3509 3622 2328 
Q 3622 1225 3098 567 
Q 2575 -91 1691 -91 
Q 1453 -91 1209 -44 
Q 966 3 703 97 
z
M 1959 2075 
Q 2384 2075 2632 2365 
Q 2881 2656 2881 3163 
Q 2881 3666 2632 3958 
Q 2384 4250 1959 4250 
Q 1534 4250 1286 3958 
Q 1038 3666 1038 3163 
Q 1038 2656 1286 2365 
Q 1534 2075 1959 2075 
z
" transform="scale(0.015625)"/>
     </defs>
     <use xlink:href="#DejaVuSans-43"/>
     <use xlink:href="#DejaVuSans-6f" x="69.824219"/>
     <use xlink:href="#DejaVuSans-72" x="131.005859"/>
     <use xlink:href="#DejaVuSans-72" x="170.369141"/>
     <use xlink:href="#DejaVuSans-65" x="209.232422"/>
     <use xlink:href="#DejaVuSans-6c" x="270.755859"/>
     <use xlink:href="#DejaVuSans-61" x="298.539062"/>
     <use xlink:href="#DejaVuSans-74" x="359.818359"/>
     <use xlink:href="#DejaVuSans-69" x="399.027344"/>
     <use xlink:href="#DejaVuSans-6f" x="426.810547"/>
     <use xlink:href="#DejaVuSans-6e" x="487.992188"/>
     <use xlink:href="#DejaVuSans-20" x="551.371094"/>
     <use xlink:href="#DejaVuSans-69" x="583.158203"/>
     <use xlink:href="#DejaVuSans-6e" x="610.941406"/>
     <use xlink:href="#DejaVuSans-3a" x="674.320312"/>
     <use xlink:href="#DejaVuSans-20" x="708.011719"/>
     <use xlink:href="#DejaVuSans-30" x="739.798828"/>
     <use xlink:href="#DejaVuSans-2e" x="803.421875"/>
     <use xlink:href="#DejaVuSans-33" x="835.208984"/>
     <use xlink:href="#DejaVuSans-39" x="898.832031"/>
     <use xlink:href="#DejaVuSans-37" x="962.455078"/>
    </g>
   </g>
  </g>
 </g>
 <defs>
  <clipPath id="p761afd24c3">
   <rect x="69.68" y="23.76" width="626.56" height="475.72"/>
  </clipPath>
 </defs>
</svg>
