<?xml version="1.0" encoding="utf-8" standalone="no"?>
<!DOCTYPE svg PUBLIC "-//W3C//DTD SVG 1.1//EN"
  "http://www.w3.org/Graphics/SVG/1.1/DTD/svg11.dtd">
<svg xmlns:xlink="http://www.w3.org/1999/xlink" width="720pt" height="576pt" viewBox="0 0 720 576" xmlns="http://www.w3.org/2000/svg" version="1.1">
 <metadata>
  <rdf:RDF xmlns:dc="http://purl.org/dc/elements/1.1/" xmlns:cc="http://creativecommons.org/ns#" xmlns:rdf="http://www.w3.org/1999/02/22-rdf-syntax-ns#">
   <cc:Work>
    <dc:type rdf:resource="http://purl.org/dc/dcmitype/StillImage"/>
    <dc:date>2024-12-07T10:29:26.647226</dc:date>
    <dc:format>image/svg+xml</dc:format>
    <dc:creator>
     <cc:Agent>
      <dc:title>Matplotlib v3.8.4, https://matplotlib.org/</dc:title>
     </cc:Agent>
    </dc:creator>
   </cc:Work>
  </rdf:RDF>
 </metadata>
 <defs>
  <style type="text/css">*{stroke-linejoin: round; stroke-linecap: butt}</style>
 </defs>
 <g id="figure_1">
  <g id="patch_1">
   <path d="M 0 576 
L 720 576 
L 720 0 
L 0 0 
z
" style="fill: #ffffff"/>
  </g>
  <g id="axes_1">
   <g id="patch_2">
    <path d="M 83.72 499.48 
L 696.24 499.48 
L 696.24 23.76 
L 83.72 23.76 
z
" style="fill: #ffffff"/>
   </g>
   <g id="QuadContourSet_1">
    <path d="M 158.819464 498.564888 
L 161.762268 498.696873 
L 164.705072 498.644692 
L 167.647877 498.472326 
L 169.348304 498.359764 
L 170.590681 498.287284 
L 173.533486 498.136474 
L 175.76233 498.011543 
L 176.47629 497.975124 
L 179.419094 497.792266 
L 181.443271 497.663321 
L 182.361899 497.610197 
L 185.304703 497.482555 
L 188.247508 497.331847 
L 188.438611 497.3151 
L 191.190312 497.058831 
L 191.838673 496.966879 
L 193.93735 496.618657 
L 194.133116 496.581109 
L 195.733554 496.270436 
L 197.075921 495.946075 
L 197.192604 495.922215 
L 198.783978 495.573993 
L 200.018725 495.270559 
L 200.231384 495.225772 
L 201.834952 494.87755 
L 202.961529 494.623667 
L 203.390679 494.529329 
L 204.832139 494.181108 
L 205.904334 493.886994 
L 206.102935 493.832886 
L 207.199949 493.484665 
L 208.099429 493.136443 
L 208.847138 492.788901 
L 208.84862 492.788222 
L 209.448224 492.440001 
L 209.859571 492.091779 
L 210.089204 491.743558 
L 210.149004 491.395336 
L 210.067014 491.047115 
L 209.892044 490.698894 
L 209.689843 490.350672 
L 209.531337 490.002451 
L 209.476629 489.654229 
L 209.559736 489.306008 
L 209.777847 488.957787 
L 210.088463 488.609565 
L 210.420365 488.261344 
L 210.701963 487.913122 
L 210.893165 487.564901 
L 210.993694 487.21668 
L 211.022802 486.868458 
L 210.994739 486.520237 
L 210.908915 486.172015 
L 210.753118 485.823794 
L 210.511425 485.475573 
L 210.171723 485.127351 
L 209.730717 484.77913 
L 209.194878 484.430908 
L 208.847138 484.230857 
L 208.656628 484.082687 
L 208.159389 483.734466 
L 207.601532 483.386244 
L 207.000149 483.038023 
L 206.389702 482.689801 
L 205.904334 482.394653 
L 205.845453 482.34158 
L 205.516682 481.993359 
L 205.235602 481.645137 
L 204.978071 481.296916 
L 204.703979 480.948695 
L 204.354202 480.600473 
L 203.844212 480.252252 
L 203.058091 479.90403 
L 202.961529 479.871164 
L 202.220015 479.555809 
L 201.07329 479.207588 
L 200.018725 478.951183 
L 199.785602 478.859366 
L 198.911867 478.511145 
L 198.016852 478.162923 
L 197.094297 477.814702 
L 197.075921 477.807593 
L 196.402569 477.466481 
L 195.680702 477.118259 
L 194.933097 476.770038 
L 194.183256 476.421816 
L 194.133116 476.396019 
L 193.561494 476.073595 
L 193.052963 475.725374 
L 192.642526 475.377152 
L 192.306547 475.028931 
L 192.011097 474.680709 
L 191.715078 474.332488 
L 191.372649 473.984267 
L 191.190312 473.830115 
L 190.885952 473.636045 
L 190.144502 473.287824 
L 189.123359 472.939602 
L 188.247508 472.692238 
L 187.608522 472.591381 
L 185.351471 472.24316 
L 185.304703 472.235939 
L 182.910391 471.894938 
L 182.361899 471.82639 
L 180.669294 471.546717 
L 179.419094 471.369627 
L 178.078274 471.198495 
L 176.47629 470.99446 
L 173.533486 470.850274 
L 170.590681 471.125834 
L 170.164644 471.198495 
L 167.751779 471.546717 
L 167.647877 471.558673 
L 164.705072 471.738253 
L 162.485605 471.894938 
L 161.762268 471.93718 
L 159.822677 472.24316 
L 158.819464 472.415497 
L 158.236263 472.591381 
L 157.299578 472.939602 
L 156.566202 473.287824 
L 155.97303 473.636045 
L 155.876659 473.699092 
L 155.468152 473.984267 
L 154.966618 474.332488 
L 154.420159 474.680709 
L 153.811832 475.028931 
L 153.152782 475.377152 
L 152.933855 475.484335 
L 152.344571 475.725374 
L 151.51771 476.073595 
L 150.776953 476.421816 
L 150.132993 476.770038 
L 149.99105 476.85269 
L 149.503682 477.118259 
L 148.938212 477.466481 
L 148.443968 477.814702 
L 148.004799 478.162923 
L 147.607017 478.511145 
L 147.238866 478.859366 
L 147.048246 479.045024 
L 146.832398 479.207588 
L 146.373278 479.555809 
L 145.914322 479.90403 
L 145.438655 480.252252 
L 144.935874 480.600473 
L 144.406442 480.948695 
L 144.105442 481.135176 
L 143.769728 481.296916 
L 143.042787 481.645137 
L 142.376085 481.993359 
L 141.793036 482.34158 
L 141.307815 482.689801 
L 141.162637 482.8142 
L 140.833381 483.038023 
L 140.422592 483.386244 
L 140.098323 483.734466 
L 139.828212 484.082687 
L 139.58239 484.430908 
L 139.338192 484.77913 
L 139.08416 485.127351 
L 138.820928 485.475573 
L 138.558116 485.823794 
L 138.308864 486.172015 
L 138.219833 486.304973 
L 138.007447 486.520237 
L 137.707321 486.868458 
L 137.460021 487.21668 
L 137.260347 487.564901 
L 137.100828 487.913122 
L 136.973696 488.261344 
L 136.872219 488.609565 
L 136.791386 488.957787 
L 136.727953 489.306008 
L 136.679922 489.654229 
L 136.645782 490.002451 
L 136.624077 490.350672 
L 136.613844 490.698894 
L 136.616042 491.047115 
L 136.635341 491.395336 
L 136.681207 491.743558 
L 136.767714 492.091779 
L 136.912362 492.440001 
L 137.134677 492.788222 
L 137.454964 493.136443 
L 137.893369 493.484665 
L 138.219833 493.691095 
L 138.383124 493.832886 
L 138.85605 494.181108 
L 139.43355 494.529329 
L 140.138383 494.87755 
L 141.016339 495.225772 
L 141.162637 495.277818 
L 141.847659 495.573993 
L 142.886215 495.922215 
L 144.105442 496.23179 
L 144.241865 496.270436 
L 145.627663 496.618657 
L 147.048246 496.900525 
L 147.381136 496.966879 
L 149.259133 497.3151 
L 149.99105 497.439394 
L 151.398991 497.663321 
L 152.933855 497.886668 
L 153.871027 498.011543 
L 155.876659 498.265221 
L 156.818429 498.359764 
z
M 161.029521 496.966879 
L 158.819464 496.835005 
L 156.882388 496.618657 
L 155.876659 496.504334 
L 154.225179 496.270436 
L 152.933855 496.073624 
L 152.024264 495.922215 
L 150.204452 495.573993 
L 149.99105 495.527658 
L 148.704922 495.225772 
L 147.550769 494.87755 
L 147.048246 494.693059 
L 146.568691 494.529329 
L 145.691081 494.181108 
L 144.95887 493.832886 
L 144.33641 493.484665 
L 144.105442 493.337342 
L 143.728813 493.136443 
L 143.193429 492.788222 
L 142.789277 492.440001 
L 142.499385 492.091779 
L 142.300857 491.743558 
L 142.16877 491.395336 
L 142.080881 491.047115 
L 142.021398 490.698894 
L 141.982784 490.350672 
L 141.965171 490.002451 
L 141.973876 489.654229 
L 142.016334 489.306008 
L 142.09979 488.957787 
L 142.230286 488.609565 
L 142.412494 488.261344 
L 142.649539 487.913122 
L 142.94223 487.564901 
L 143.287822 487.21668 
L 143.679178 486.868458 
L 144.105442 486.520237 
L 144.105442 486.520237 
L 144.419395 486.172015 
L 144.7372 485.823794 
L 145.057016 485.475573 
L 145.38356 485.127351 
L 145.728148 484.77913 
L 146.10812 484.430908 
L 146.546075 484.082687 
L 147.048246 483.74697 
L 147.063319 483.734466 
L 147.526671 483.386244 
L 148.073201 483.038023 
L 148.714163 482.689801 
L 149.456221 482.34158 
L 149.99105 482.113556 
L 150.225806 481.993359 
L 150.924851 481.645137 
L 151.676687 481.296916 
L 152.484555 480.948695 
L 152.933855 480.758324 
L 153.294106 480.600473 
L 154.104401 480.252252 
L 154.988819 479.90403 
L 155.876659 479.579175 
L 155.952709 479.555809 
L 157.057292 479.207588 
L 158.24496 478.859366 
L 158.819464 478.685601 
L 159.708474 478.511145 
L 161.465791 478.162923 
L 161.762268 478.100996 
L 164.705072 477.918914 
L 167.647877 477.951661 
L 170.590681 477.918525 
L 171.901194 477.814702 
L 173.533486 477.665332 
L 175.068925 477.466481 
L 176.47629 477.254748 
L 179.419094 477.119307 
L 180.946482 477.466481 
L 182.166739 477.814702 
L 182.361899 477.868298 
L 183.148691 478.162923 
L 184.388418 478.511145 
L 185.304703 478.702879 
L 186.226931 478.859366 
L 188.247508 479.168368 
L 188.456638 479.207588 
L 190.200782 479.555809 
L 191.190312 479.794764 
L 191.549431 479.90403 
L 192.616221 480.252252 
L 193.555718 480.600473 
L 194.133116 480.845602 
L 194.378121 480.948695 
L 195.06531 481.296916 
L 195.573062 481.645137 
L 195.920248 481.993359 
L 196.147849 482.34158 
L 196.312045 482.689801 
L 196.474288 483.038023 
L 196.688176 483.386244 
L 196.984342 483.734466 
L 197.075921 483.817305 
L 197.440678 484.082687 
L 197.985921 484.430908 
L 198.519208 484.77913 
L 198.974926 485.127351 
L 199.317002 485.475573 
L 199.538938 485.823794 
L 199.655104 486.172015 
L 199.691679 486.520237 
L 199.679451 486.868458 
L 199.647338 487.21668 
L 199.615775 487.564901 
L 199.591627 487.913122 
L 199.567893 488.261344 
L 199.529269 488.609565 
L 199.460034 488.957787 
L 199.349172 489.306008 
L 199.190699 489.654229 
L 198.980656 490.002451 
L 198.713025 490.350672 
L 198.375868 490.698894 
L 197.948028 491.047115 
L 197.396523 491.395336 
L 197.075921 491.56127 
L 196.836128 491.743558 
L 196.296112 492.091779 
L 195.629568 492.440001 
L 194.812925 492.788222 
L 194.133116 493.038719 
L 193.9281 493.136443 
L 193.146927 493.484665 
L 192.225576 493.832886 
L 191.190312 494.165249 
L 191.14231 494.181108 
L 190.010518 494.529329 
L 188.536522 494.87755 
L 188.247508 494.938167 
L 186.65413 495.225772 
L 185.304703 495.416156 
L 184.075422 495.573993 
L 182.361899 495.758777 
L 180.834405 495.922215 
L 179.419094 496.059144 
L 177.182893 496.270436 
L 176.47629 496.334164 
L 173.533486 496.573199 
L 172.839595 496.618657 
L 170.590681 496.773798 
L 167.647877 496.92699 
L 166.376227 496.966879 
L 164.705072 497.029379 
L 161.762268 497.012547 
z
" clip-path="url(#pcfec986bfd)" style="fill: #eff6fc"/>
    <path d="M 161.762268 497.012547 
L 164.705072 497.029379 
L 166.376227 496.966879 
L 167.647877 496.92699 
L 170.590681 496.773798 
L 172.839595 496.618657 
L 173.533486 496.573199 
L 176.47629 496.334164 
L 177.182893 496.270436 
L 179.419094 496.059144 
L 180.834405 495.922215 
L 182.361899 495.758777 
L 184.075422 495.573993 
L 185.304703 495.416156 
L 186.65413 495.225772 
L 188.247508 494.938167 
L 188.536522 494.87755 
L 190.010518 494.529329 
L 191.14231 494.181108 
L 191.190312 494.165249 
L 192.225576 493.832886 
L 193.146927 493.484665 
L 193.9281 493.136443 
L 194.133116 493.038719 
L 194.812925 492.788222 
L 195.629568 492.440001 
L 196.296112 492.091779 
L 196.836128 491.743558 
L 197.075921 491.56127 
L 197.396523 491.395336 
L 197.948028 491.047115 
L 198.375868 490.698894 
L 198.713025 490.350672 
L 198.980656 490.002451 
L 199.190699 489.654229 
L 199.349172 489.306008 
L 199.460034 488.957787 
L 199.529269 488.609565 
L 199.567893 488.261344 
L 199.591627 487.913122 
L 199.615775 487.564901 
L 199.647338 487.21668 
L 199.679451 486.868458 
L 199.691679 486.520237 
L 199.655104 486.172015 
L 199.538938 485.823794 
L 199.317002 485.475573 
L 198.974926 485.127351 
L 198.519208 484.77913 
L 197.985921 484.430908 
L 197.440678 484.082687 
L 197.075921 483.817305 
L 196.984342 483.734466 
L 196.688176 483.386244 
L 196.474288 483.038023 
L 196.312045 482.689801 
L 196.147849 482.34158 
L 195.920248 481.993359 
L 195.573062 481.645137 
L 195.06531 481.296916 
L 194.378121 480.948695 
L 194.133116 480.845602 
L 193.555718 480.600473 
L 192.616221 480.252252 
L 191.549431 479.90403 
L 191.190312 479.794764 
L 190.200782 479.555809 
L 188.456638 479.207588 
L 188.247508 479.168368 
L 186.226931 478.859366 
L 185.304703 478.702879 
L 184.388418 478.511145 
L 183.148691 478.162923 
L 182.361899 477.868298 
L 182.166739 477.814702 
L 180.946482 477.466481 
L 179.419094 477.119307 
L 176.47629 477.254748 
L 175.068925 477.466481 
L 173.533486 477.665332 
L 171.901194 477.814702 
L 170.590681 477.918525 
L 167.647877 477.951661 
L 164.705072 477.918914 
L 161.762268 478.100996 
L 161.465791 478.162923 
L 159.708474 478.511145 
L 158.819464 478.685601 
L 158.24496 478.859366 
L 157.057292 479.207588 
L 155.952709 479.555809 
L 155.876659 479.579175 
L 154.988819 479.90403 
L 154.104401 480.252252 
L 153.294106 480.600473 
L 152.933855 480.758324 
L 152.484555 480.948695 
L 151.676687 481.296916 
L 150.924851 481.645137 
L 150.225806 481.993359 
L 149.99105 482.113556 
L 149.456221 482.34158 
L 148.714163 482.689801 
L 148.073201 483.038023 
L 147.526671 483.386244 
L 147.063319 483.734466 
L 147.048246 483.74697 
L 146.546075 484.082687 
L 146.10812 484.430908 
L 145.728148 484.77913 
L 145.38356 485.127351 
L 145.057016 485.475573 
L 144.7372 485.823794 
L 144.419395 486.172015 
L 144.105442 486.520237 
L 144.105442 486.520237 
L 143.679178 486.868458 
L 143.287822 487.21668 
L 142.94223 487.564901 
L 142.649539 487.913122 
L 142.412494 488.261344 
L 142.230286 488.609565 
L 142.09979 488.957787 
L 142.016334 489.306008 
L 141.973876 489.654229 
L 141.965171 490.002451 
L 141.982784 490.350672 
L 142.021398 490.698894 
L 142.080881 491.047115 
L 142.16877 491.395336 
L 142.300857 491.743558 
L 142.499385 492.091779 
L 142.789277 492.440001 
L 143.193429 492.788222 
L 143.728813 493.136443 
L 144.105442 493.337342 
L 144.33641 493.484665 
L 144.95887 493.832886 
L 145.691081 494.181108 
L 146.568691 494.529329 
L 147.048246 494.693059 
L 147.550769 494.87755 
L 148.704922 495.225772 
L 149.99105 495.527658 
L 150.204452 495.573993 
L 152.024264 495.922215 
L 152.933855 496.073624 
L 154.225179 496.270436 
L 155.876659 496.504334 
L 156.882388 496.618657 
L 158.819464 496.835005 
L 161.029521 496.966879 
z
M 163.421945 495.922215 
L 161.762268 495.879835 
L 158.819464 495.656757 
L 158.148539 495.573993 
L 155.876659 495.269815 
L 155.61012 495.225772 
L 153.728617 494.87755 
L 152.933855 494.699054 
L 152.244406 494.529329 
L 151.073223 494.181108 
L 150.131315 493.832886 
L 149.99105 493.77395 
L 149.301052 493.484665 
L 148.577583 493.136443 
L 147.949385 492.788222 
L 147.416118 492.440001 
L 147.048246 492.14595 
L 146.976438 492.091779 
L 146.606964 491.743558 
L 146.335937 491.395336 
L 146.142744 491.047115 
L 146.009097 490.698894 
L 145.92306 490.350672 
L 145.880592 490.002451 
L 145.884559 489.654229 
L 145.942004 489.306008 
L 146.060991 488.957787 
L 146.248116 488.609565 
L 146.506915 488.261344 
L 146.836634 487.913122 
L 147.048246 487.722391 
L 147.18597 487.564901 
L 147.514829 487.21668 
L 147.86444 486.868458 
L 148.229286 486.520237 
L 148.606886 486.172015 
L 148.998911 485.823794 
L 149.411635 485.475573 
L 149.855519 485.127351 
L 149.99105 485.026964 
L 150.31998 484.77913 
L 150.830545 484.430908 
L 151.394357 484.082687 
L 152.00764 483.734466 
L 152.671963 483.386244 
L 152.933855 483.257273 
L 153.407769 483.038023 
L 154.18351 482.689801 
L 154.998394 482.34158 
L 155.876659 481.993359 
L 155.876659 481.993359 
L 156.911748 481.645137 
L 158.043317 481.296916 
L 158.819464 481.079972 
L 159.434327 480.948695 
L 161.249433 480.600473 
L 161.762268 480.510429 
L 164.340366 480.252252 
L 164.705072 480.217342 
L 167.647877 480.091498 
L 170.590681 480.04376 
L 173.533486 480.045222 
L 176.47629 480.140955 
L 178.059133 480.252252 
L 179.419094 480.34435 
L 182.16209 480.600473 
L 182.361899 480.619397 
L 184.521805 480.948695 
L 185.304703 481.101556 
L 186.006623 481.296916 
L 186.982768 481.645137 
L 187.71263 481.993359 
L 188.247508 482.325538 
L 188.273273 482.34158 
L 188.787532 482.689801 
L 189.264937 483.038023 
L 189.74286 483.386244 
L 190.246177 483.734466 
L 190.78282 484.082687 
L 191.190312 484.331914 
L 191.368553 484.430908 
L 192.015896 484.77913 
L 192.602766 485.127351 
L 193.086947 485.475573 
L 193.447262 485.823794 
L 193.686342 486.172015 
L 193.825528 486.520237 
L 193.896314 486.868458 
L 193.932061 487.21668 
L 193.961374 487.564901 
L 194.003014 487.913122 
L 194.062309 488.261344 
L 194.130141 488.609565 
L 194.133116 488.627994 
L 194.204506 488.957787 
L 194.22767 489.306008 
L 194.170985 489.654229 
L 194.133116 489.738072 
L 194.042228 490.002451 
L 193.834269 490.350672 
L 193.530016 490.698894 
L 193.120834 491.047115 
L 192.595131 491.395336 
L 191.937256 491.743558 
L 191.190312 492.066745 
L 191.137961 492.091779 
L 190.32952 492.440001 
L 189.363891 492.788222 
L 188.247508 493.124451 
L 188.208466 493.136443 
L 186.990027 493.484665 
L 185.486426 493.832886 
L 185.304703 493.871565 
L 183.821163 494.181108 
L 182.361899 494.434267 
L 181.803592 494.529329 
L 179.448265 494.87755 
L 179.419094 494.881493 
L 176.758377 495.225772 
L 176.47629 495.258991 
L 173.533486 495.560337 
L 173.349489 495.573993 
L 170.590681 495.783101 
L 167.647877 495.91241 
L 166.899059 495.922215 
L 164.705072 495.955604 
z
" clip-path="url(#pcfec986bfd)" style="fill: #dce9f6"/>
    <path d="M 164.705072 495.955604 
L 166.899059 495.922215 
L 167.647877 495.91241 
L 170.590681 495.783101 
L 173.349489 495.573993 
L 173.533486 495.560337 
L 176.47629 495.258991 
L 176.758377 495.225772 
L 179.419094 494.881493 
L 179.448265 494.87755 
L 181.803592 494.529329 
L 182.361899 494.434267 
L 183.821163 494.181108 
L 185.304703 493.871565 
L 185.486426 493.832886 
L 186.990027 493.484665 
L 188.208466 493.136443 
L 188.247508 493.124451 
L 189.363891 492.788222 
L 190.32952 492.440001 
L 191.137961 492.091779 
L 191.190312 492.066745 
L 191.937256 491.743558 
L 192.595131 491.395336 
L 193.120834 491.047115 
L 193.530016 490.698894 
L 193.834269 490.350672 
L 194.042228 490.002451 
L 194.133116 489.738072 
L 194.170985 489.654229 
L 194.22767 489.306008 
L 194.204506 488.957787 
L 194.133116 488.627994 
L 194.130141 488.609565 
L 194.062309 488.261344 
L 194.003014 487.913122 
L 193.961374 487.564901 
L 193.932061 487.21668 
L 193.896314 486.868458 
L 193.825528 486.520237 
L 193.686342 486.172015 
L 193.447262 485.823794 
L 193.086947 485.475573 
L 192.602766 485.127351 
L 192.015896 484.77913 
L 191.368553 484.430908 
L 191.190312 484.331914 
L 190.78282 484.082687 
L 190.246177 483.734466 
L 189.74286 483.386244 
L 189.264937 483.038023 
L 188.787532 482.689801 
L 188.273273 482.34158 
L 188.247508 482.325538 
L 187.71263 481.993359 
L 186.982768 481.645137 
L 186.006623 481.296916 
L 185.304703 481.101556 
L 184.521805 480.948695 
L 182.361899 480.619397 
L 182.16209 480.600473 
L 179.419094 480.34435 
L 178.059133 480.252252 
L 176.47629 480.140955 
L 173.533486 480.045222 
L 170.590681 480.04376 
L 167.647877 480.091498 
L 164.705072 480.217342 
L 164.340366 480.252252 
L 161.762268 480.510429 
L 161.249433 480.600473 
L 159.434327 480.948695 
L 158.819464 481.079972 
L 158.043317 481.296916 
L 156.911748 481.645137 
L 155.876659 481.993359 
L 155.876659 481.993359 
L 154.998394 482.34158 
L 154.18351 482.689801 
L 153.407769 483.038023 
L 152.933855 483.257273 
L 152.671963 483.386244 
L 152.00764 483.734466 
L 151.394357 484.082687 
L 150.830545 484.430908 
L 150.31998 484.77913 
L 149.99105 485.026964 
L 149.855519 485.127351 
L 149.411635 485.475573 
L 148.998911 485.823794 
L 148.606886 486.172015 
L 148.229286 486.520237 
L 147.86444 486.868458 
L 147.514829 487.21668 
L 147.18597 487.564901 
L 147.048246 487.722391 
L 146.836634 487.913122 
L 146.506915 488.261344 
L 146.248116 488.609565 
L 146.060991 488.957787 
L 145.942004 489.306008 
L 145.884559 489.654229 
L 145.880592 490.002451 
L 145.92306 490.350672 
L 146.009097 490.698894 
L 146.142744 491.047115 
L 146.335937 491.395336 
L 146.606964 491.743558 
L 146.976438 492.091779 
L 147.048246 492.14595 
L 147.416118 492.440001 
L 147.949385 492.788222 
L 148.577583 493.136443 
L 149.301052 493.484665 
L 149.99105 493.77395 
L 150.131315 493.832886 
L 151.073223 494.181108 
L 152.244406 494.529329 
L 152.933855 494.699054 
L 153.728617 494.87755 
L 155.61012 495.225772 
L 155.876659 495.269815 
L 158.148539 495.573993 
L 158.819464 495.656757 
L 161.762268 495.879835 
L 163.421945 495.922215 
z
M 160.207773 494.87755 
L 158.819464 494.72711 
L 157.60162 494.529329 
L 155.876659 494.184434 
L 155.862572 494.181108 
L 154.591361 493.832886 
L 153.567391 493.484665 
L 152.933855 493.23096 
L 152.701905 493.136443 
L 151.922314 492.788222 
L 151.228973 492.440001 
L 150.626408 492.091779 
L 150.126613 491.743558 
L 149.99105 491.627305 
L 149.722041 491.395336 
L 149.414019 491.047115 
L 149.193953 490.698894 
L 149.046993 490.350672 
L 148.962785 490.002451 
L 148.937257 489.654229 
L 148.971731 489.306008 
L 149.070276 488.957787 
L 149.236732 488.609565 
L 149.472642 488.261344 
L 149.776407 487.913122 
L 149.99105 487.707485 
L 150.124078 487.564901 
L 150.487151 487.21668 
L 150.886715 486.868458 
L 151.324569 486.520237 
L 151.806712 486.172015 
L 152.341069 485.823794 
L 152.933684 485.475573 
L 152.933855 485.475474 
L 153.624104 485.127351 
L 154.394524 484.77913 
L 155.219925 484.430908 
L 155.876659 484.156248 
L 156.076609 484.082687 
L 156.994733 483.734466 
L 157.912099 483.386244 
L 158.819464 483.038023 
L 158.819464 483.038023 
L 159.868021 482.689801 
L 161.036981 482.34158 
L 161.762268 482.145834 
L 162.601554 481.993359 
L 164.705072 481.66995 
L 165.126448 481.645137 
L 167.647877 481.50969 
L 170.590681 481.52925 
L 173.533486 481.64309 
L 173.571233 481.645137 
L 176.47629 481.790352 
L 179.03965 481.993359 
L 179.419094 482.024815 
L 181.389295 482.34158 
L 182.361899 482.54441 
L 182.830498 482.689801 
L 183.805656 483.038023 
L 184.617667 483.386244 
L 185.304703 483.719021 
L 185.337097 483.734466 
L 186.08656 484.082687 
L 186.816455 484.430908 
L 187.52937 484.77913 
L 188.21228 485.127351 
L 188.247508 485.146182 
L 188.894022 485.475573 
L 189.45786 485.823794 
L 189.887949 486.172015 
L 190.191671 486.520237 
L 190.3921 486.868458 
L 190.520432 487.21668 
L 190.608013 487.564901 
L 190.680118 487.913122 
L 190.751772 488.261344 
L 190.825359 488.609565 
L 190.890239 488.957787 
L 190.925062 489.306008 
L 190.902766 489.654229 
L 190.796625 490.002451 
L 190.584684 490.350672 
L 190.25082 490.698894 
L 189.782711 491.047115 
L 189.168326 491.395336 
L 188.3924 491.743558 
L 188.247508 491.799803 
L 187.527229 492.091779 
L 186.502896 492.440001 
L 185.304703 492.778176 
L 185.269563 492.788222 
L 183.935668 493.136443 
L 182.361899 493.475418 
L 182.318743 493.484665 
L 180.561597 493.832886 
L 179.419094 494.028621 
L 178.483935 494.181108 
L 176.47629 494.47523 
L 176.03286 494.529329 
L 173.533486 494.819568 
L 172.788789 494.87755 
L 170.590681 495.051139 
L 167.647877 495.162815 
L 164.705072 495.158326 
L 161.762268 495.026296 
z
" clip-path="url(#pcfec986bfd)" style="fill: #c7dbef"/>
    <path d="M 161.762268 495.026296 
L 164.705072 495.158326 
L 167.647877 495.162815 
L 170.590681 495.051139 
L 172.788789 494.87755 
L 173.533486 494.819568 
L 176.03286 494.529329 
L 176.47629 494.47523 
L 178.483935 494.181108 
L 179.419094 494.028621 
L 180.561597 493.832886 
L 182.318743 493.484665 
L 182.361899 493.475418 
L 183.935668 493.136443 
L 185.269563 492.788222 
L 185.304703 492.778176 
L 186.502896 492.440001 
L 187.527229 492.091779 
L 188.247508 491.799803 
L 188.3924 491.743558 
L 189.168326 491.395336 
L 189.782711 491.047115 
L 190.25082 490.698894 
L 190.584684 490.350672 
L 190.796625 490.002451 
L 190.902766 489.654229 
L 190.925062 489.306008 
L 190.890239 488.957787 
L 190.825359 488.609565 
L 190.751772 488.261344 
L 190.680118 487.913122 
L 190.608013 487.564901 
L 190.520432 487.21668 
L 190.3921 486.868458 
L 190.191671 486.520237 
L 189.887949 486.172015 
L 189.45786 485.823794 
L 188.894022 485.475573 
L 188.247508 485.146182 
L 188.21228 485.127351 
L 187.52937 484.77913 
L 186.816455 484.430908 
L 186.08656 484.082687 
L 185.337097 483.734466 
L 185.304703 483.719021 
L 184.617667 483.386244 
L 183.805656 483.038023 
L 182.830498 482.689801 
L 182.361899 482.54441 
L 181.389295 482.34158 
L 179.419094 482.024815 
L 179.03965 481.993359 
L 176.47629 481.790352 
L 173.571233 481.645137 
L 173.533486 481.64309 
L 170.590681 481.52925 
L 167.647877 481.50969 
L 165.126448 481.645137 
L 164.705072 481.66995 
L 162.601554 481.993359 
L 161.762268 482.145834 
L 161.036981 482.34158 
L 159.868021 482.689801 
L 158.819464 483.038023 
L 158.819464 483.038023 
L 157.912099 483.386244 
L 156.994733 483.734466 
L 156.076609 484.082687 
L 155.876659 484.156248 
L 155.219925 484.430908 
L 154.394524 484.77913 
L 153.624104 485.127351 
L 152.933855 485.475474 
L 152.933684 485.475573 
L 152.341069 485.823794 
L 151.806712 486.172015 
L 151.324569 486.520237 
L 150.886715 486.868458 
L 150.487151 487.21668 
L 150.124078 487.564901 
L 149.99105 487.707485 
L 149.776407 487.913122 
L 149.472642 488.261344 
L 149.236732 488.609565 
L 149.070276 488.957787 
L 148.971731 489.306008 
L 148.937257 489.654229 
L 148.962785 490.002451 
L 149.046993 490.350672 
L 149.193953 490.698894 
L 149.414019 491.047115 
L 149.722041 491.395336 
L 149.99105 491.627305 
L 150.126613 491.743558 
L 150.626408 492.091779 
L 151.228973 492.440001 
L 151.922314 492.788222 
L 152.701905 493.136443 
L 152.933855 493.23096 
L 153.567391 493.484665 
L 154.591361 493.832886 
L 155.862572 494.181108 
L 155.876659 494.184434 
L 157.60162 494.529329 
L 158.819464 494.72711 
L 160.207773 494.87755 
z
M 161.505832 494.181108 
L 159.262988 493.832886 
L 158.819464 493.745926 
L 157.791519 493.484665 
L 156.665855 493.136443 
L 155.876659 492.849603 
L 155.717496 492.788222 
L 154.874283 492.440001 
L 154.120984 492.091779 
L 153.469164 491.743558 
L 152.933855 491.395336 
L 152.933855 491.395336 
L 152.492356 491.047115 
L 152.168739 490.698894 
L 151.946725 490.350672 
L 151.80913 490.002451 
L 151.743037 489.654229 
L 151.741978 489.306008 
L 151.805237 488.957787 
L 151.935201 488.609565 
L 152.134478 488.261344 
L 152.404397 487.913122 
L 152.745363 487.564901 
L 152.933855 487.404336 
L 153.157466 487.21668 
L 153.64568 486.868458 
L 154.21894 486.520237 
L 154.890905 486.172015 
L 155.678107 485.823794 
L 155.876659 485.742788 
L 156.61436 485.475573 
L 157.679746 485.127351 
L 158.819464 484.788662 
L 158.851237 484.77913 
L 159.989716 484.430908 
L 161.201497 484.082687 
L 161.762268 483.92229 
L 162.487491 483.734466 
L 163.956853 483.386244 
L 164.705072 483.224577 
L 166.142398 483.038023 
L 167.647877 482.868616 
L 170.590681 482.762684 
L 173.533486 482.79062 
L 176.47629 482.939831 
L 177.341444 483.038023 
L 179.419094 483.315613 
L 179.721983 483.386244 
L 181.022874 483.734466 
L 182.080019 484.082687 
L 182.361899 484.185764 
L 182.955245 484.430908 
L 183.74909 484.77913 
L 184.496979 485.127351 
L 185.196499 485.475573 
L 185.304703 485.533153 
L 185.882918 485.823794 
L 186.475985 486.172015 
L 186.950707 486.520237 
L 187.309047 486.868458 
L 187.567537 487.21668 
L 187.750903 487.564901 
L 187.884256 487.913122 
L 187.986848 488.261344 
L 188.068113 488.609565 
L 188.125703 488.957787 
L 188.145559 489.306008 
L 188.104529 489.654229 
L 187.975467 490.002451 
L 187.733043 490.350672 
L 187.357325 490.698894 
L 186.83323 491.047115 
L 186.146545 491.395336 
L 185.304703 491.733723 
L 185.281016 491.743558 
L 184.306429 492.091779 
L 183.126624 492.440001 
L 182.361899 492.633909 
L 181.754341 492.788222 
L 180.191736 493.136443 
L 179.419094 493.288649 
L 178.360146 493.484665 
L 176.47629 493.797317 
L 176.2072 493.832886 
L 173.533486 494.171523 
L 173.410602 494.181108 
L 170.590681 494.404969 
L 167.647877 494.491868 
L 164.705072 494.433753 
L 161.762268 494.214086 
z
" clip-path="url(#pcfec986bfd)" style="fill: #a5cde3"/>
    <path d="M 161.762268 494.214086 
L 164.705072 494.433753 
L 167.647877 494.491868 
L 170.590681 494.404969 
L 173.410602 494.181108 
L 173.533486 494.171523 
L 176.2072 493.832886 
L 176.47629 493.797317 
L 178.360146 493.484665 
L 179.419094 493.288649 
L 180.191736 493.136443 
L 181.754341 492.788222 
L 182.361899 492.633909 
L 183.126624 492.440001 
L 184.306429 492.091779 
L 185.281016 491.743558 
L 185.304703 491.733723 
L 186.146545 491.395336 
L 186.83323 491.047115 
L 187.357325 490.698894 
L 187.733043 490.350672 
L 187.975467 490.002451 
L 188.104529 489.654229 
L 188.145559 489.306008 
L 188.125703 488.957787 
L 188.068113 488.609565 
L 187.986848 488.261344 
L 187.884256 487.913122 
L 187.750903 487.564901 
L 187.567537 487.21668 
L 187.309047 486.868458 
L 186.950707 486.520237 
L 186.475985 486.172015 
L 185.882918 485.823794 
L 185.304703 485.533153 
L 185.196499 485.475573 
L 184.496979 485.127351 
L 183.74909 484.77913 
L 182.955245 484.430908 
L 182.361899 484.185764 
L 182.080019 484.082687 
L 181.022874 483.734466 
L 179.721983 483.386244 
L 179.419094 483.315613 
L 177.341444 483.038023 
L 176.47629 482.939831 
L 173.533486 482.79062 
L 170.590681 482.762684 
L 167.647877 482.868616 
L 166.142398 483.038023 
L 164.705072 483.224577 
L 163.956853 483.386244 
L 162.487491 483.734466 
L 161.762268 483.92229 
L 161.201497 484.082687 
L 159.989716 484.430908 
L 158.851237 484.77913 
L 158.819464 484.788662 
L 157.679746 485.127351 
L 156.61436 485.475573 
L 155.876659 485.742788 
L 155.678107 485.823794 
L 154.890905 486.172015 
L 154.21894 486.520237 
L 153.64568 486.868458 
L 153.157466 487.21668 
L 152.933855 487.404336 
L 152.745363 487.564901 
L 152.404397 487.913122 
L 152.134478 488.261344 
L 151.935201 488.609565 
L 151.805237 488.957787 
L 151.741978 489.306008 
L 151.743037 489.654229 
L 151.80913 490.002451 
L 151.946725 490.350672 
L 152.168739 490.698894 
L 152.492356 491.047115 
L 152.933855 491.395336 
L 152.933855 491.395336 
L 153.469164 491.743558 
L 154.120984 492.091779 
L 154.874283 492.440001 
L 155.717496 492.788222 
L 155.876659 492.849603 
L 156.665855 493.136443 
L 157.791519 493.484665 
L 158.819464 493.745926 
L 159.262988 493.832886 
L 161.505832 494.181108 
z
M 163.568012 493.484665 
L 161.762268 493.218671 
L 161.378711 493.136443 
L 159.989629 492.788222 
L 158.819464 492.44022 
L 158.818829 492.440001 
L 157.862481 492.091779 
L 157.015067 491.743558 
L 156.293668 491.395336 
L 155.876659 491.147292 
L 155.714803 491.047115 
L 155.277711 490.698894 
L 154.973414 490.350672 
L 154.780694 490.002451 
L 154.678814 489.654229 
L 154.652974 489.306008 
L 154.696779 488.957787 
L 154.811669 488.609565 
L 155.004124 488.261344 
L 155.282515 487.913122 
L 155.655602 487.564901 
L 155.876659 487.401809 
L 156.143999 487.21668 
L 156.770781 486.868458 
L 157.539929 486.520237 
L 158.46407 486.172015 
L 158.819464 486.053336 
L 159.518275 485.823794 
L 160.686145 485.475573 
L 161.762268 485.183474 
L 161.97121 485.127351 
L 163.319689 484.77913 
L 164.705072 484.457177 
L 164.856885 484.430908 
L 166.981236 484.082687 
L 167.647877 483.983013 
L 170.590681 483.781534 
L 173.533486 483.794517 
L 176.47629 484.040396 
L 176.718711 484.082687 
L 178.440406 484.430908 
L 179.419094 484.673369 
L 179.729235 484.77913 
L 180.674198 485.127351 
L 181.522107 485.475573 
L 182.278396 485.823794 
L 182.361899 485.865654 
L 182.970532 486.172015 
L 183.573278 486.520237 
L 184.071344 486.868458 
L 184.464454 487.21668 
L 184.763039 487.564901 
L 184.983226 487.913122 
L 185.140993 488.261344 
L 185.247299 488.609565 
L 185.304703 488.957787 
L 185.304703 488.957787 
L 185.305793 489.306008 
L 185.304703 489.311172 
L 185.233864 489.654229 
L 185.067029 490.002451 
L 184.783033 490.350672 
L 184.362922 490.698894 
L 183.790299 491.047115 
L 183.047003 491.395336 
L 182.361899 491.65234 
L 182.118663 491.743558 
L 181.023859 492.091779 
L 179.709039 492.440001 
L 179.419094 492.507755 
L 178.109233 492.788222 
L 176.47629 493.098399 
L 176.207877 493.136443 
L 173.65254 493.484665 
L 173.533486 493.500302 
L 170.590681 493.722238 
L 167.647877 493.766545 
L 164.705072 493.617756 
z
" clip-path="url(#pcfec986bfd)" style="fill: #79b5d9"/>
    <path d="M 164.705072 493.617756 
L 167.647877 493.766545 
L 170.590681 493.722238 
L 173.533486 493.500302 
L 173.65254 493.484665 
L 176.207877 493.136443 
L 176.47629 493.098399 
L 178.109233 492.788222 
L 179.419094 492.507755 
L 179.709039 492.440001 
L 181.023859 492.091779 
L 182.118663 491.743558 
L 182.361899 491.65234 
L 183.047003 491.395336 
L 183.790299 491.047115 
L 184.362922 490.698894 
L 184.783033 490.350672 
L 185.067029 490.002451 
L 185.233864 489.654229 
L 185.304703 489.311172 
L 185.305793 489.306008 
L 185.304703 488.957787 
L 185.304703 488.957787 
L 185.247299 488.609565 
L 185.140993 488.261344 
L 184.983226 487.913122 
L 184.763039 487.564901 
L 184.464454 487.21668 
L 184.071344 486.868458 
L 183.573278 486.520237 
L 182.970532 486.172015 
L 182.361899 485.865654 
L 182.278396 485.823794 
L 181.522107 485.475573 
L 180.674198 485.127351 
L 179.729235 484.77913 
L 179.419094 484.673369 
L 178.440406 484.430908 
L 176.718711 484.082687 
L 176.47629 484.040396 
L 173.533486 483.794517 
L 170.590681 483.781534 
L 167.647877 483.983013 
L 166.981236 484.082687 
L 164.856885 484.430908 
L 164.705072 484.457177 
L 163.319689 484.77913 
L 161.97121 485.127351 
L 161.762268 485.183474 
L 160.686145 485.475573 
L 159.518275 485.823794 
L 158.819464 486.053336 
L 158.46407 486.172015 
L 157.539929 486.520237 
L 156.770781 486.868458 
L 156.143999 487.21668 
L 155.876659 487.401809 
L 155.655602 487.564901 
L 155.282515 487.913122 
L 155.004124 488.261344 
L 154.811669 488.609565 
L 154.696779 488.957787 
L 154.652974 489.306008 
L 154.678814 489.654229 
L 154.780694 490.002451 
L 154.973414 490.350672 
L 155.277711 490.698894 
L 155.714803 491.047115 
L 155.876659 491.147292 
L 156.293668 491.395336 
L 157.015067 491.743558 
L 157.862481 492.091779 
L 158.818829 492.440001 
L 158.819464 492.44022 
L 159.989629 492.788222 
L 161.378711 493.136443 
L 161.762268 493.218671 
L 163.568012 493.484665 
z
M 165.779578 492.788222 
L 164.705072 492.665133 
L 163.557367 492.440001 
L 162.021485 492.091779 
L 161.762268 492.028485 
L 160.847324 491.743558 
L 159.844448 491.395336 
L 158.990121 491.047115 
L 158.819464 490.961824 
L 158.380997 490.698894 
L 157.961108 490.350672 
L 157.690704 490.002451 
L 157.545381 489.654229 
L 157.503864 489.306008 
L 157.55356 488.957787 
L 157.692354 488.609565 
L 157.927245 488.261344 
L 158.271086 487.913122 
L 158.739188 487.564901 
L 158.819464 487.517491 
L 159.354653 487.21668 
L 160.114848 486.868458 
L 161.024482 486.520237 
L 161.762268 486.276001 
L 162.082587 486.172015 
L 163.257938 485.823794 
L 164.571529 485.475573 
L 164.705072 485.442329 
L 166.362027 485.127351 
L 167.647877 484.90332 
L 169.333051 484.77913 
L 170.590681 484.68578 
L 173.533486 484.770914 
L 173.600933 484.77913 
L 176.061842 485.127351 
L 176.47629 485.196512 
L 177.522648 485.475573 
L 178.653604 485.823794 
L 179.419094 486.095861 
L 179.598345 486.172015 
L 180.3421 486.520237 
L 180.965147 486.868458 
L 181.467677 487.21668 
L 181.856908 487.564901 
L 182.144321 487.913122 
L 182.342302 488.261344 
L 182.361899 488.319372 
L 182.461466 488.609565 
L 182.504412 488.957787 
L 182.473231 489.306008 
L 182.361899 489.654229 
L 182.361899 489.654229 
L 182.149552 490.002451 
L 181.821438 490.350672 
L 181.359991 490.698894 
L 180.747354 491.047115 
L 179.962479 491.395336 
L 179.419094 491.589387 
L 178.92449 491.743558 
L 177.615411 492.091779 
L 176.47629 492.354303 
L 175.93581 492.440001 
L 173.599732 492.788222 
L 173.533486 492.797603 
L 170.590681 492.99369 
L 167.647877 492.963322 
z
" clip-path="url(#pcfec986bfd)" style="fill: #4d99ca"/>
    <path d="M 167.647877 492.963322 
L 170.590681 492.99369 
L 173.533486 492.797603 
L 173.599732 492.788222 
L 175.93581 492.440001 
L 176.47629 492.354303 
L 177.615411 492.091779 
L 178.92449 491.743558 
L 179.419094 491.589387 
L 179.962479 491.395336 
L 180.747354 491.047115 
L 181.359991 490.698894 
L 181.821438 490.350672 
L 182.149552 490.002451 
L 182.361899 489.654229 
L 182.361899 489.654229 
L 182.473231 489.306008 
L 182.504412 488.957787 
L 182.461466 488.609565 
L 182.361899 488.319372 
L 182.342302 488.261344 
L 182.144321 487.913122 
L 181.856908 487.564901 
L 181.467677 487.21668 
L 180.965147 486.868458 
L 180.3421 486.520237 
L 179.598345 486.172015 
L 179.419094 486.095861 
L 178.653604 485.823794 
L 177.522648 485.475573 
L 176.47629 485.196512 
L 176.061842 485.127351 
L 173.600933 484.77913 
L 173.533486 484.770914 
L 170.590681 484.68578 
L 169.333051 484.77913 
L 167.647877 484.90332 
L 166.362027 485.127351 
L 164.705072 485.442329 
L 164.571529 485.475573 
L 163.257938 485.823794 
L 162.082587 486.172015 
L 161.762268 486.276001 
L 161.024482 486.520237 
L 160.114848 486.868458 
L 159.354653 487.21668 
L 158.819464 487.517491 
L 158.739188 487.564901 
L 158.271086 487.913122 
L 157.927245 488.261344 
L 157.692354 488.609565 
L 157.55356 488.957787 
L 157.503864 489.306008 
L 157.545381 489.654229 
L 157.690704 490.002451 
L 157.961108 490.350672 
L 158.380997 490.698894 
L 158.819464 490.961824 
L 158.990121 491.047115 
L 159.844448 491.395336 
L 160.847324 491.743558 
L 161.762268 492.028485 
L 162.021485 492.091779 
L 163.557367 492.440001 
L 164.705072 492.665133 
L 165.779578 492.788222 
z
M 169.443656 492.091779 
L 167.647877 491.991185 
L 166.058294 491.743558 
L 164.705072 491.511811 
L 164.249988 491.395336 
L 162.988028 491.047115 
L 161.864228 490.698894 
L 161.762268 490.660759 
L 161.194789 490.350672 
L 160.755844 490.002451 
L 160.501485 489.654229 
L 160.406542 489.306008 
L 160.449178 488.957787 
L 160.616879 488.609565 
L 160.907191 488.261344 
L 161.325193 487.913122 
L 161.762268 487.637447 
L 161.892647 487.564901 
L 162.634902 487.21668 
L 163.490214 486.868458 
L 164.471205 486.520237 
L 164.705072 486.446717 
L 165.842079 486.172015 
L 167.451926 485.823794 
L 167.647877 485.785055 
L 170.590681 485.5653 
L 173.533486 485.746199 
L 173.97052 485.823794 
L 175.710767 486.172015 
L 176.47629 486.348152 
L 176.97682 486.520237 
L 177.837766 486.868458 
L 178.523964 487.21668 
L 179.046081 487.564901 
L 179.41539 487.913122 
L 179.419094 487.918813 
L 179.61668 488.261344 
L 179.703171 488.609565 
L 179.691082 488.957787 
L 179.593834 489.306008 
L 179.419094 489.654229 
L 179.419094 489.654229 
L 179.114617 490.002451 
L 178.696637 490.350672 
L 178.142612 490.698894 
L 177.428277 491.047115 
L 176.531274 491.395336 
L 176.47629 491.412628 
L 174.822009 491.743558 
L 173.533486 491.973179 
L 171.520026 492.091779 
L 170.590681 492.143928 
z
" clip-path="url(#pcfec986bfd)" style="fill: #2b7bba"/>
    <path d="M 170.590681 492.143928 
L 171.520026 492.091779 
L 173.533486 491.973179 
L 174.822009 491.743558 
L 176.47629 491.412628 
L 176.531274 491.395336 
L 177.428277 491.047115 
L 178.142612 490.698894 
L 178.696637 490.350672 
L 179.114617 490.002451 
L 179.419094 489.654229 
L 179.419094 489.654229 
L 179.593834 489.306008 
L 179.691082 488.957787 
L 179.703171 488.609565 
L 179.61668 488.261344 
L 179.419094 487.918813 
L 179.41539 487.913122 
L 179.046081 487.564901 
L 178.523964 487.21668 
L 177.837766 486.868458 
L 176.97682 486.520237 
L 176.47629 486.348152 
L 175.710767 486.172015 
L 173.97052 485.823794 
L 173.533486 485.746199 
L 170.590681 485.5653 
L 167.647877 485.785055 
L 167.451926 485.823794 
L 165.842079 486.172015 
L 164.705072 486.446717 
L 164.471205 486.520237 
L 163.490214 486.868458 
L 162.634902 487.21668 
L 161.892647 487.564901 
L 161.762268 487.637447 
L 161.325193 487.913122 
L 160.907191 488.261344 
L 160.616879 488.609565 
L 160.449178 488.957787 
L 160.406542 489.306008 
L 160.501485 489.654229 
L 160.755844 490.002451 
L 161.194789 490.350672 
L 161.762268 490.660759 
L 161.864228 490.698894 
L 162.988028 491.047115 
L 164.249988 491.395336 
L 164.705072 491.511811 
L 166.058294 491.743558 
L 167.647877 491.991185 
L 169.443656 492.091779 
z
M 167.980508 490.698894 
L 167.647877 490.66884 
L 166.166656 490.350672 
L 164.743687 490.002451 
L 164.705072 489.989814 
L 164.176185 489.654229 
L 163.880974 489.306008 
L 163.813469 488.957787 
L 163.938397 488.609565 
L 164.225637 488.261344 
L 164.655583 487.913122 
L 164.705072 487.883162 
L 165.426084 487.564901 
L 166.350148 487.21668 
L 167.424358 486.868458 
L 167.647877 486.806816 
L 170.462745 486.520237 
L 170.590681 486.50905 
L 170.728316 486.520237 
L 173.533486 486.777051 
L 173.894697 486.868458 
L 175.027341 487.21668 
L 175.88995 487.564901 
L 176.47629 487.913122 
L 176.47629 487.913122 
L 176.675657 488.261344 
L 176.708857 488.609565 
L 176.600931 488.957787 
L 176.47629 489.157573 
L 176.32601 489.306008 
L 175.840332 489.654229 
L 175.227291 490.002451 
L 174.472031 490.350672 
L 173.542054 490.698894 
L 173.533486 490.701505 
L 170.590681 490.925927 
z
" clip-path="url(#pcfec986bfd)" style="fill: #105ba4"/>
    <path d="M 170.590681 490.925927 
L 173.533486 490.701505 
L 173.542054 490.698894 
L 174.472031 490.350672 
L 175.227291 490.002451 
L 175.840332 489.654229 
L 176.32601 489.306008 
L 176.47629 489.157573 
L 176.600931 488.957787 
L 176.708857 488.609565 
L 176.675657 488.261344 
L 176.47629 487.913122 
L 176.47629 487.913122 
L 175.88995 487.564901 
L 175.027341 487.21668 
L 173.894697 486.868458 
L 173.533486 486.777051 
L 170.728316 486.520237 
L 170.590681 486.50905 
L 170.462745 486.520237 
L 167.647877 486.806816 
L 167.424358 486.868458 
L 166.350148 487.21668 
L 165.426084 487.564901 
L 164.705072 487.883162 
L 164.655583 487.913122 
L 164.225637 488.261344 
L 163.938397 488.609565 
L 163.813469 488.957787 
L 163.880974 489.306008 
L 164.176185 489.654229 
L 164.705072 489.989814 
L 164.743687 490.002451 
L 166.166656 490.350672 
L 167.647877 490.66884 
L 167.980508 490.698894 
z
" clip-path="url(#pcfec986bfd)" style="fill: #083d7f"/>
   </g>
   <g id="matplotlib.axis_1">
    <g id="xtick_1">
     <g id="line2d_1">
      <defs>
       <path id="m2c0c7823bc" d="M 0 0 
L 0 3.5 
" style="stroke: #000000; stroke-width: 0.8"/>
      </defs>
      <g>
       <use xlink:href="#m2c0c7823bc" x="150.845204" y="499.48" style="stroke: #000000; stroke-width: 0.8"/>
      </g>
     </g>
     <g id="text_1">
      <!-- 10 -->
      <g transform="translate(136.847704 523.196563) scale(0.22 -0.22)">
       <defs>
        <path id="DejaVuSans-31" d="M 794 531 
L 1825 531 
L 1825 4091 
L 703 3866 
L 703 4441 
L 1819 4666 
L 2450 4666 
L 2450 531 
L 3481 531 
L 3481 0 
L 794 0 
L 794 531 
z
" transform="scale(0.015625)"/>
        <path id="DejaVuSans-30" d="M 2034 4250 
Q 1547 4250 1301 3770 
Q 1056 3291 1056 2328 
Q 1056 1369 1301 889 
Q 1547 409 2034 409 
Q 2525 409 2770 889 
Q 3016 1369 3016 2328 
Q 3016 3291 2770 3770 
Q 2525 4250 2034 4250 
z
M 2034 4750 
Q 2819 4750 3233 4129 
Q 3647 3509 3647 2328 
Q 3647 1150 3233 529 
Q 2819 -91 2034 -91 
Q 1250 -91 836 529 
Q 422 1150 422 2328 
Q 422 3509 836 4129 
Q 1250 4750 2034 4750 
z
" transform="scale(0.015625)"/>
       </defs>
       <use xlink:href="#DejaVuSans-31"/>
       <use xlink:href="#DejaVuSans-30" x="63.623047"/>
      </g>
     </g>
    </g>
    <g id="xtick_2">
     <g id="line2d_2">
      <g>
       <use xlink:href="#m2c0c7823bc" x="232.475623" y="499.48" style="stroke: #000000; stroke-width: 0.8"/>
      </g>
     </g>
     <g id="text_2">
      <!-- 20 -->
      <g transform="translate(218.478123 523.196563) scale(0.22 -0.22)">
       <defs>
        <path id="DejaVuSans-32" d="M 1228 531 
L 3431 531 
L 3431 0 
L 469 0 
L 469 531 
Q 828 903 1448 1529 
Q 2069 2156 2228 2338 
Q 2531 2678 2651 2914 
Q 2772 3150 2772 3378 
Q 2772 3750 2511 3984 
Q 2250 4219 1831 4219 
Q 1534 4219 1204 4116 
Q 875 4013 500 3803 
L 500 4441 
Q 881 4594 1212 4672 
Q 1544 4750 1819 4750 
Q 2544 4750 2975 4387 
Q 3406 4025 3406 3419 
Q 3406 3131 3298 2873 
Q 3191 2616 2906 2266 
Q 2828 2175 2409 1742 
Q 1991 1309 1228 531 
z
" transform="scale(0.015625)"/>
       </defs>
       <use xlink:href="#DejaVuSans-32"/>
       <use xlink:href="#DejaVuSans-30" x="63.623047"/>
      </g>
     </g>
    </g>
    <g id="xtick_3">
     <g id="line2d_3">
      <g>
       <use xlink:href="#m2c0c7823bc" x="314.106043" y="499.48" style="stroke: #000000; stroke-width: 0.8"/>
      </g>
     </g>
     <g id="text_3">
      <!-- 30 -->
      <g transform="translate(300.108543 523.196563) scale(0.22 -0.22)">
       <defs>
        <path id="DejaVuSans-33" d="M 2597 2516 
Q 3050 2419 3304 2112 
Q 3559 1806 3559 1356 
Q 3559 666 3084 287 
Q 2609 -91 1734 -91 
Q 1441 -91 1130 -33 
Q 819 25 488 141 
L 488 750 
Q 750 597 1062 519 
Q 1375 441 1716 441 
Q 2309 441 2620 675 
Q 2931 909 2931 1356 
Q 2931 1769 2642 2001 
Q 2353 2234 1838 2234 
L 1294 2234 
L 1294 2753 
L 1863 2753 
Q 2328 2753 2575 2939 
Q 2822 3125 2822 3475 
Q 2822 3834 2567 4026 
Q 2313 4219 1838 4219 
Q 1578 4219 1281 4162 
Q 984 4106 628 3988 
L 628 4550 
Q 988 4650 1302 4700 
Q 1616 4750 1894 4750 
Q 2613 4750 3031 4423 
Q 3450 4097 3450 3541 
Q 3450 3153 3228 2886 
Q 3006 2619 2597 2516 
z
" transform="scale(0.015625)"/>
       </defs>
       <use xlink:href="#DejaVuSans-33"/>
       <use xlink:href="#DejaVuSans-30" x="63.623047"/>
      </g>
     </g>
    </g>
    <g id="xtick_4">
     <g id="line2d_4">
      <g>
       <use xlink:href="#m2c0c7823bc" x="395.736462" y="499.48" style="stroke: #000000; stroke-width: 0.8"/>
      </g>
     </g>
     <g id="text_4">
      <!-- 40 -->
      <g transform="translate(381.738962 523.196563) scale(0.22 -0.22)">
       <defs>
        <path id="DejaVuSans-34" d="M 2419 4116 
L 825 1625 
L 2419 1625 
L 2419 4116 
z
M 2253 4666 
L 3047 4666 
L 3047 1625 
L 3713 1625 
L 3713 1100 
L 3047 1100 
L 3047 0 
L 2419 0 
L 2419 1100 
L 313 1100 
L 313 1709 
L 2253 4666 
z
" transform="scale(0.015625)"/>
       </defs>
       <use xlink:href="#DejaVuSans-34"/>
       <use xlink:href="#DejaVuSans-30" x="63.623047"/>
      </g>
     </g>
    </g>
    <g id="xtick_5">
     <g id="line2d_5">
      <g>
       <use xlink:href="#m2c0c7823bc" x="477.366881" y="499.48" style="stroke: #000000; stroke-width: 0.8"/>
      </g>
     </g>
     <g id="text_5">
      <!-- 50 -->
      <g transform="translate(463.369381 523.196563) scale(0.22 -0.22)">
       <defs>
        <path id="DejaVuSans-35" d="M 691 4666 
L 3169 4666 
L 3169 4134 
L 1269 4134 
L 1269 2991 
Q 1406 3038 1543 3061 
Q 1681 3084 1819 3084 
Q 2600 3084 3056 2656 
Q 3513 2228 3513 1497 
Q 3513 744 3044 326 
Q 2575 -91 1722 -91 
Q 1428 -91 1123 -41 
Q 819 9 494 109 
L 494 744 
Q 775 591 1075 516 
Q 1375 441 1709 441 
Q 2250 441 2565 725 
Q 2881 1009 2881 1497 
Q 2881 1984 2565 2268 
Q 2250 2553 1709 2553 
Q 1456 2553 1204 2497 
Q 953 2441 691 2322 
L 691 4666 
z
" transform="scale(0.015625)"/>
       </defs>
       <use xlink:href="#DejaVuSans-35"/>
       <use xlink:href="#DejaVuSans-30" x="63.623047"/>
      </g>
     </g>
    </g>
    <g id="xtick_6">
     <g id="line2d_6">
      <g>
       <use xlink:href="#m2c0c7823bc" x="558.997301" y="499.48" style="stroke: #000000; stroke-width: 0.8"/>
      </g>
     </g>
     <g id="text_6">
      <!-- 60 -->
      <g transform="translate(544.999801 523.196563) scale(0.22 -0.22)">
       <defs>
        <path id="DejaVuSans-36" d="M 2113 2584 
Q 1688 2584 1439 2293 
Q 1191 2003 1191 1497 
Q 1191 994 1439 701 
Q 1688 409 2113 409 
Q 2538 409 2786 701 
Q 3034 994 3034 1497 
Q 3034 2003 2786 2293 
Q 2538 2584 2113 2584 
z
M 3366 4563 
L 3366 3988 
Q 3128 4100 2886 4159 
Q 2644 4219 2406 4219 
Q 1781 4219 1451 3797 
Q 1122 3375 1075 2522 
Q 1259 2794 1537 2939 
Q 1816 3084 2150 3084 
Q 2853 3084 3261 2657 
Q 3669 2231 3669 1497 
Q 3669 778 3244 343 
Q 2819 -91 2113 -91 
Q 1303 -91 875 529 
Q 447 1150 447 2328 
Q 447 3434 972 4092 
Q 1497 4750 2381 4750 
Q 2619 4750 2861 4703 
Q 3103 4656 3366 4563 
z
" transform="scale(0.015625)"/>
       </defs>
       <use xlink:href="#DejaVuSans-36"/>
       <use xlink:href="#DejaVuSans-30" x="63.623047"/>
      </g>
     </g>
    </g>
    <g id="xtick_7">
     <g id="line2d_7">
      <g>
       <use xlink:href="#m2c0c7823bc" x="640.62772" y="499.48" style="stroke: #000000; stroke-width: 0.8"/>
      </g>
     </g>
     <g id="text_7">
      <!-- 70 -->
      <g transform="translate(626.63022 523.196563) scale(0.22 -0.22)">
       <defs>
        <path id="DejaVuSans-37" d="M 525 4666 
L 3525 4666 
L 3525 4397 
L 1831 0 
L 1172 0 
L 2766 4134 
L 525 4134 
L 525 4666 
z
" transform="scale(0.015625)"/>
       </defs>
       <use xlink:href="#DejaVuSans-37"/>
       <use xlink:href="#DejaVuSans-30" x="63.623047"/>
      </g>
     </g>
    </g>
    <g id="text_8">
     <!-- Force Uncertainties -->
     <g transform="translate(283.426094 548.488438) scale(0.22 -0.22)">
      <defs>
       <path id="DejaVuSans-46" d="M 628 4666 
L 3309 4666 
L 3309 4134 
L 1259 4134 
L 1259 2759 
L 3109 2759 
L 3109 2228 
L 1259 2228 
L 1259 0 
L 628 0 
L 628 4666 
z
" transform="scale(0.015625)"/>
       <path id="DejaVuSans-6f" d="M 1959 3097 
Q 1497 3097 1228 2736 
Q 959 2375 959 1747 
Q 959 1119 1226 758 
Q 1494 397 1959 397 
Q 2419 397 2687 759 
Q 2956 1122 2956 1747 
Q 2956 2369 2687 2733 
Q 2419 3097 1959 3097 
z
M 1959 3584 
Q 2709 3584 3137 3096 
Q 3566 2609 3566 1747 
Q 3566 888 3137 398 
Q 2709 -91 1959 -91 
Q 1206 -91 779 398 
Q 353 888 353 1747 
Q 353 2609 779 3096 
Q 1206 3584 1959 3584 
z
" transform="scale(0.015625)"/>
       <path id="DejaVuSans-72" d="M 2631 2963 
Q 2534 3019 2420 3045 
Q 2306 3072 2169 3072 
Q 1681 3072 1420 2755 
Q 1159 2438 1159 1844 
L 1159 0 
L 581 0 
L 581 3500 
L 1159 3500 
L 1159 2956 
Q 1341 3275 1631 3429 
Q 1922 3584 2338 3584 
Q 2397 3584 2469 3576 
Q 2541 3569 2628 3553 
L 2631 2963 
z
" transform="scale(0.015625)"/>
       <path id="DejaVuSans-63" d="M 3122 3366 
L 3122 2828 
Q 2878 2963 2633 3030 
Q 2388 3097 2138 3097 
Q 1578 3097 1268 2742 
Q 959 2388 959 1747 
Q 959 1106 1268 751 
Q 1578 397 2138 397 
Q 2388 397 2633 464 
Q 2878 531 3122 666 
L 3122 134 
Q 2881 22 2623 -34 
Q 2366 -91 2075 -91 
Q 1284 -91 818 406 
Q 353 903 353 1747 
Q 353 2603 823 3093 
Q 1294 3584 2113 3584 
Q 2378 3584 2631 3529 
Q 2884 3475 3122 3366 
z
" transform="scale(0.015625)"/>
       <path id="DejaVuSans-65" d="M 3597 1894 
L 3597 1613 
L 953 1613 
Q 991 1019 1311 708 
Q 1631 397 2203 397 
Q 2534 397 2845 478 
Q 3156 559 3463 722 
L 3463 178 
Q 3153 47 2828 -22 
Q 2503 -91 2169 -91 
Q 1331 -91 842 396 
Q 353 884 353 1716 
Q 353 2575 817 3079 
Q 1281 3584 2069 3584 
Q 2775 3584 3186 3129 
Q 3597 2675 3597 1894 
z
M 3022 2063 
Q 3016 2534 2758 2815 
Q 2500 3097 2075 3097 
Q 1594 3097 1305 2825 
Q 1016 2553 972 2059 
L 3022 2063 
z
" transform="scale(0.015625)"/>
       <path id="DejaVuSans-20" transform="scale(0.015625)"/>
       <path id="DejaVuSans-55" d="M 556 4666 
L 1191 4666 
L 1191 1831 
Q 1191 1081 1462 751 
Q 1734 422 2344 422 
Q 2950 422 3222 751 
Q 3494 1081 3494 1831 
L 3494 4666 
L 4128 4666 
L 4128 1753 
Q 4128 841 3676 375 
Q 3225 -91 2344 -91 
Q 1459 -91 1007 375 
Q 556 841 556 1753 
L 556 4666 
z
" transform="scale(0.015625)"/>
       <path id="DejaVuSans-6e" d="M 3513 2113 
L 3513 0 
L 2938 0 
L 2938 2094 
Q 2938 2591 2744 2837 
Q 2550 3084 2163 3084 
Q 1697 3084 1428 2787 
Q 1159 2491 1159 1978 
L 1159 0 
L 581 0 
L 581 3500 
L 1159 3500 
L 1159 2956 
Q 1366 3272 1645 3428 
Q 1925 3584 2291 3584 
Q 2894 3584 3203 3211 
Q 3513 2838 3513 2113 
z
" transform="scale(0.015625)"/>
       <path id="DejaVuSans-74" d="M 1172 4494 
L 1172 3500 
L 2356 3500 
L 2356 3053 
L 1172 3053 
L 1172 1153 
Q 1172 725 1289 603 
Q 1406 481 1766 481 
L 2356 481 
L 2356 0 
L 1766 0 
Q 1100 0 847 248 
Q 594 497 594 1153 
L 594 3053 
L 172 3053 
L 172 3500 
L 594 3500 
L 594 4494 
L 1172 4494 
z
" transform="scale(0.015625)"/>
       <path id="DejaVuSans-61" d="M 2194 1759 
Q 1497 1759 1228 1600 
Q 959 1441 959 1056 
Q 959 750 1161 570 
Q 1363 391 1709 391 
Q 2188 391 2477 730 
Q 2766 1069 2766 1631 
L 2766 1759 
L 2194 1759 
z
M 3341 1997 
L 3341 0 
L 2766 0 
L 2766 531 
Q 2569 213 2275 61 
Q 1981 -91 1556 -91 
Q 1019 -91 701 211 
Q 384 513 384 1019 
Q 384 1609 779 1909 
Q 1175 2209 1959 2209 
L 2766 2209 
L 2766 2266 
Q 2766 2663 2505 2880 
Q 2244 3097 1772 3097 
Q 1472 3097 1187 3025 
Q 903 2953 641 2809 
L 641 3341 
Q 956 3463 1253 3523 
Q 1550 3584 1831 3584 
Q 2591 3584 2966 3190 
Q 3341 2797 3341 1997 
z
" transform="scale(0.015625)"/>
       <path id="DejaVuSans-69" d="M 603 3500 
L 1178 3500 
L 1178 0 
L 603 0 
L 603 3500 
z
M 603 4863 
L 1178 4863 
L 1178 4134 
L 603 4134 
L 603 4863 
z
" transform="scale(0.015625)"/>
       <path id="DejaVuSans-73" d="M 2834 3397 
L 2834 2853 
Q 2591 2978 2328 3040 
Q 2066 3103 1784 3103 
Q 1356 3103 1142 2972 
Q 928 2841 928 2578 
Q 928 2378 1081 2264 
Q 1234 2150 1697 2047 
L 1894 2003 
Q 2506 1872 2764 1633 
Q 3022 1394 3022 966 
Q 3022 478 2636 193 
Q 2250 -91 1575 -91 
Q 1294 -91 989 -36 
Q 684 19 347 128 
L 347 722 
Q 666 556 975 473 
Q 1284 391 1588 391 
Q 1994 391 2212 530 
Q 2431 669 2431 922 
Q 2431 1156 2273 1281 
Q 2116 1406 1581 1522 
L 1381 1569 
Q 847 1681 609 1914 
Q 372 2147 372 2553 
Q 372 3047 722 3315 
Q 1072 3584 1716 3584 
Q 2034 3584 2315 3537 
Q 2597 3491 2834 3397 
z
" transform="scale(0.015625)"/>
      </defs>
      <use xlink:href="#DejaVuSans-46"/>
      <use xlink:href="#DejaVuSans-6f" x="53.894531"/>
      <use xlink:href="#DejaVuSans-72" x="115.076172"/>
      <use xlink:href="#DejaVuSans-63" x="153.939453"/>
      <use xlink:href="#DejaVuSans-65" x="208.919922"/>
      <use xlink:href="#DejaVuSans-20" x="270.443359"/>
      <use xlink:href="#DejaVuSans-55" x="302.230469"/>
      <use xlink:href="#DejaVuSans-6e" x="375.423828"/>
      <use xlink:href="#DejaVuSans-63" x="438.802734"/>
      <use xlink:href="#DejaVuSans-65" x="493.783203"/>
      <use xlink:href="#DejaVuSans-72" x="555.306641"/>
      <use xlink:href="#DejaVuSans-74" x="596.419922"/>
      <use xlink:href="#DejaVuSans-61" x="635.628906"/>
      <use xlink:href="#DejaVuSans-69" x="696.908203"/>
      <use xlink:href="#DejaVuSans-6e" x="724.691406"/>
      <use xlink:href="#DejaVuSans-74" x="788.070312"/>
      <use xlink:href="#DejaVuSans-69" x="827.279297"/>
      <use xlink:href="#DejaVuSans-65" x="855.0625"/>
      <use xlink:href="#DejaVuSans-73" x="916.585938"/>
     </g>
    </g>
   </g>
   <g id="matplotlib.axis_2">
    <g id="ytick_1">
     <g id="line2d_8">
      <defs>
       <path id="me1a678aaa8" d="M 0 0 
L -3.5 0 
" style="stroke: #000000; stroke-width: 0.8"/>
      </defs>
      <g>
       <use xlink:href="#me1a678aaa8" x="83.72" y="447.346515" style="stroke: #000000; stroke-width: 0.8"/>
      </g>
     </g>
     <g id="text_9">
      <!-- 10 -->
      <g transform="translate(48.725 455.704796) scale(0.22 -0.22)">
       <use xlink:href="#DejaVuSans-31"/>
       <use xlink:href="#DejaVuSans-30" x="63.623047"/>
      </g>
     </g>
    </g>
    <g id="ytick_2">
     <g id="line2d_9">
      <g>
       <use xlink:href="#me1a678aaa8" x="83.72" y="383.947405" style="stroke: #000000; stroke-width: 0.8"/>
      </g>
     </g>
     <g id="text_10">
      <!-- 20 -->
      <g transform="translate(48.725 392.305686) scale(0.22 -0.22)">
       <use xlink:href="#DejaVuSans-32"/>
       <use xlink:href="#DejaVuSans-30" x="63.623047"/>
      </g>
     </g>
    </g>
    <g id="ytick_3">
     <g id="line2d_10">
      <g>
       <use xlink:href="#me1a678aaa8" x="83.72" y="320.548295" style="stroke: #000000; stroke-width: 0.8"/>
      </g>
     </g>
     <g id="text_11">
      <!-- 30 -->
      <g transform="translate(48.725 328.906576) scale(0.22 -0.22)">
       <use xlink:href="#DejaVuSans-33"/>
       <use xlink:href="#DejaVuSans-30" x="63.623047"/>
      </g>
     </g>
    </g>
    <g id="ytick_4">
     <g id="line2d_11">
      <g>
       <use xlink:href="#me1a678aaa8" x="83.72" y="257.149184" style="stroke: #000000; stroke-width: 0.8"/>
      </g>
     </g>
     <g id="text_12">
      <!-- 40 -->
      <g transform="translate(48.725 265.507465) scale(0.22 -0.22)">
       <use xlink:href="#DejaVuSans-34"/>
       <use xlink:href="#DejaVuSans-30" x="63.623047"/>
      </g>
     </g>
    </g>
    <g id="ytick_5">
     <g id="line2d_12">
      <g>
       <use xlink:href="#me1a678aaa8" x="83.72" y="193.750074" style="stroke: #000000; stroke-width: 0.8"/>
      </g>
     </g>
     <g id="text_13">
      <!-- 50 -->
      <g transform="translate(48.725 202.108355) scale(0.22 -0.22)">
       <use xlink:href="#DejaVuSans-35"/>
       <use xlink:href="#DejaVuSans-30" x="63.623047"/>
      </g>
     </g>
    </g>
    <g id="ytick_6">
     <g id="line2d_13">
      <g>
       <use xlink:href="#me1a678aaa8" x="83.72" y="130.350964" style="stroke: #000000; stroke-width: 0.8"/>
      </g>
     </g>
     <g id="text_14">
      <!-- 60 -->
      <g transform="translate(48.725 138.709245) scale(0.22 -0.22)">
       <use xlink:href="#DejaVuSans-36"/>
       <use xlink:href="#DejaVuSans-30" x="63.623047"/>
      </g>
     </g>
    </g>
    <g id="ytick_7">
     <g id="line2d_14">
      <g>
       <use xlink:href="#me1a678aaa8" x="83.72" y="66.951853" style="stroke: #000000; stroke-width: 0.8"/>
      </g>
     </g>
     <g id="text_15">
      <!-- 70 -->
      <g transform="translate(48.725 75.310134) scale(0.22 -0.22)">
       <use xlink:href="#DejaVuSans-37"/>
       <use xlink:href="#DejaVuSans-30" x="63.623047"/>
      </g>
     </g>
    </g>
    <g id="text_16">
     <!-- Force Errors [kJ/(mol*A)] -->
     <g transform="translate(40.149688 394.9125) rotate(-90) scale(0.22 -0.22)">
      <defs>
       <path id="DejaVuSans-45" d="M 628 4666 
L 3578 4666 
L 3578 4134 
L 1259 4134 
L 1259 2753 
L 3481 2753 
L 3481 2222 
L 1259 2222 
L 1259 531 
L 3634 531 
L 3634 0 
L 628 0 
L 628 4666 
z
" transform="scale(0.015625)"/>
       <path id="DejaVuSans-5b" d="M 550 4863 
L 1875 4863 
L 1875 4416 
L 1125 4416 
L 1125 -397 
L 1875 -397 
L 1875 -844 
L 550 -844 
L 550 4863 
z
" transform="scale(0.015625)"/>
       <path id="DejaVuSans-6b" d="M 581 4863 
L 1159 4863 
L 1159 1991 
L 2875 3500 
L 3609 3500 
L 1753 1863 
L 3688 0 
L 2938 0 
L 1159 1709 
L 1159 0 
L 581 0 
L 581 4863 
z
" transform="scale(0.015625)"/>
       <path id="DejaVuSans-4a" d="M 628 4666 
L 1259 4666 
L 1259 325 
Q 1259 -519 939 -900 
Q 619 -1281 -91 -1281 
L -331 -1281 
L -331 -750 
L -134 -750 
Q 284 -750 456 -515 
Q 628 -281 628 325 
L 628 4666 
z
" transform="scale(0.015625)"/>
       <path id="DejaVuSans-2f" d="M 1625 4666 
L 2156 4666 
L 531 -594 
L 0 -594 
L 1625 4666 
z
" transform="scale(0.015625)"/>
       <path id="DejaVuSans-28" d="M 1984 4856 
Q 1566 4138 1362 3434 
Q 1159 2731 1159 2009 
Q 1159 1288 1364 580 
Q 1569 -128 1984 -844 
L 1484 -844 
Q 1016 -109 783 600 
Q 550 1309 550 2009 
Q 550 2706 781 3412 
Q 1013 4119 1484 4856 
L 1984 4856 
z
" transform="scale(0.015625)"/>
       <path id="DejaVuSans-6d" d="M 3328 2828 
Q 3544 3216 3844 3400 
Q 4144 3584 4550 3584 
Q 5097 3584 5394 3201 
Q 5691 2819 5691 2113 
L 5691 0 
L 5113 0 
L 5113 2094 
Q 5113 2597 4934 2840 
Q 4756 3084 4391 3084 
Q 3944 3084 3684 2787 
Q 3425 2491 3425 1978 
L 3425 0 
L 2847 0 
L 2847 2094 
Q 2847 2600 2669 2842 
Q 2491 3084 2119 3084 
Q 1678 3084 1418 2786 
Q 1159 2488 1159 1978 
L 1159 0 
L 581 0 
L 581 3500 
L 1159 3500 
L 1159 2956 
Q 1356 3278 1631 3431 
Q 1906 3584 2284 3584 
Q 2666 3584 2933 3390 
Q 3200 3197 3328 2828 
z
" transform="scale(0.015625)"/>
       <path id="DejaVuSans-6c" d="M 603 4863 
L 1178 4863 
L 1178 0 
L 603 0 
L 603 4863 
z
" transform="scale(0.015625)"/>
       <path id="DejaVuSans-2a" d="M 3009 3897 
L 1888 3291 
L 3009 2681 
L 2828 2375 
L 1778 3009 
L 1778 1831 
L 1422 1831 
L 1422 3009 
L 372 2375 
L 191 2681 
L 1313 3291 
L 191 3897 
L 372 4206 
L 1422 3572 
L 1422 4750 
L 1778 4750 
L 1778 3572 
L 2828 4206 
L 3009 3897 
z
" transform="scale(0.015625)"/>
       <path id="DejaVuSans-41" d="M 2188 4044 
L 1331 1722 
L 3047 1722 
L 2188 4044 
z
M 1831 4666 
L 2547 4666 
L 4325 0 
L 3669 0 
L 3244 1197 
L 1141 1197 
L 716 0 
L 50 0 
L 1831 4666 
z
" transform="scale(0.015625)"/>
       <path id="DejaVuSans-29" d="M 513 4856 
L 1013 4856 
Q 1481 4119 1714 3412 
Q 1947 2706 1947 2009 
Q 1947 1309 1714 600 
Q 1481 -109 1013 -844 
L 513 -844 
Q 928 -128 1133 580 
Q 1338 1288 1338 2009 
Q 1338 2731 1133 3434 
Q 928 4138 513 4856 
z
" transform="scale(0.015625)"/>
       <path id="DejaVuSans-5d" d="M 1947 4863 
L 1947 -844 
L 622 -844 
L 622 -397 
L 1369 -397 
L 1369 4416 
L 622 4416 
L 622 4863 
L 1947 4863 
z
" transform="scale(0.015625)"/>
      </defs>
      <use xlink:href="#DejaVuSans-46"/>
      <use xlink:href="#DejaVuSans-6f" x="53.894531"/>
      <use xlink:href="#DejaVuSans-72" x="115.076172"/>
      <use xlink:href="#DejaVuSans-63" x="153.939453"/>
      <use xlink:href="#DejaVuSans-65" x="208.919922"/>
      <use xlink:href="#DejaVuSans-20" x="270.443359"/>
      <use xlink:href="#DejaVuSans-45" x="302.230469"/>
      <use xlink:href="#DejaVuSans-72" x="365.414062"/>
      <use xlink:href="#DejaVuSans-72" x="404.777344"/>
      <use xlink:href="#DejaVuSans-6f" x="443.640625"/>
      <use xlink:href="#DejaVuSans-72" x="504.822266"/>
      <use xlink:href="#DejaVuSans-73" x="545.935547"/>
      <use xlink:href="#DejaVuSans-20" x="598.035156"/>
      <use xlink:href="#DejaVuSans-5b" x="629.822266"/>
      <use xlink:href="#DejaVuSans-6b" x="668.835938"/>
      <use xlink:href="#DejaVuSans-4a" x="726.746094"/>
      <use xlink:href="#DejaVuSans-2f" x="756.238281"/>
      <use xlink:href="#DejaVuSans-28" x="789.929688"/>
      <use xlink:href="#DejaVuSans-6d" x="828.943359"/>
      <use xlink:href="#DejaVuSans-6f" x="926.355469"/>
      <use xlink:href="#DejaVuSans-6c" x="987.537109"/>
      <use xlink:href="#DejaVuSans-2a" x="1015.320312"/>
      <use xlink:href="#DejaVuSans-41" x="1065.320312"/>
      <use xlink:href="#DejaVuSans-29" x="1133.728516"/>
      <use xlink:href="#DejaVuSans-5d" x="1172.742188"/>
     </g>
    </g>
   </g>
   <g id="line2d_15">
    <path d="M 83.72 499.48 
L 696.24 23.76 
" clip-path="url(#pcfec986bfd)" style="fill: none; stroke-dasharray: 5.55,2.4; stroke-dashoffset: 0; stroke: #ff0000; stroke-width: 1.5"/>
   </g>
   <g id="patch_3">
    <path d="M 83.72 499.48 
L 83.72 23.76 
" style="fill: none; stroke: #000000; stroke-width: 0.8; stroke-linejoin: miter; stroke-linecap: square"/>
   </g>
   <g id="patch_4">
    <path d="M 696.24 499.48 
L 696.24 23.76 
" style="fill: none; stroke: #000000; stroke-width: 0.8; stroke-linejoin: miter; stroke-linecap: square"/>
   </g>
   <g id="patch_5">
    <path d="M 83.72 499.48 
L 696.24 499.48 
" style="fill: none; stroke: #000000; stroke-width: 0.8; stroke-linejoin: miter; stroke-linecap: square"/>
   </g>
   <g id="patch_6">
    <path d="M 83.72 23.76 
L 696.24 23.76 
" style="fill: none; stroke: #000000; stroke-width: 0.8; stroke-linejoin: miter; stroke-linecap: square"/>
   </g>
   <g id="text_17">
    <!-- Correlation in: 0.122 -->
    <g transform="translate(144.972 71.332) scale(0.22 -0.22)">
     <defs>
      <path id="DejaVuSans-43" d="M 4122 4306 
L 4122 3641 
Q 3803 3938 3442 4084 
Q 3081 4231 2675 4231 
Q 1875 4231 1450 3742 
Q 1025 3253 1025 2328 
Q 1025 1406 1450 917 
Q 1875 428 2675 428 
Q 3081 428 3442 575 
Q 3803 722 4122 1019 
L 4122 359 
Q 3791 134 3420 21 
Q 3050 -91 2638 -91 
Q 1578 -91 968 557 
Q 359 1206 359 2328 
Q 359 3453 968 4101 
Q 1578 4750 2638 4750 
Q 3056 4750 3426 4639 
Q 3797 4528 4122 4306 
z
" transform="scale(0.015625)"/>
      <path id="DejaVuSans-3a" d="M 750 794 
L 1409 794 
L 1409 0 
L 750 0 
L 750 794 
z
M 750 3309 
L 1409 3309 
L 1409 2516 
L 750 2516 
L 750 3309 
z
" transform="scale(0.015625)"/>
      <path id="DejaVuSans-2e" d="M 684 794 
L 1344 794 
L 1344 0 
L 684 0 
L 684 794 
z
" transform="scale(0.015625)"/>
     </defs>
     <use xlink:href="#DejaVuSans-43"/>
     <use xlink:href="#DejaVuSans-6f" x="69.824219"/>
     <use xlink:href="#DejaVuSans-72" x="131.005859"/>
     <use xlink:href="#DejaVuSans-72" x="170.369141"/>
     <use xlink:href="#DejaVuSans-65" x="209.232422"/>
     <use xlink:href="#DejaVuSans-6c" x="270.755859"/>
     <use xlink:href="#DejaVuSans-61" x="298.539062"/>
     <use xlink:href="#DejaVuSans-74" x="359.818359"/>
     <use xlink:href="#DejaVuSans-69" x="399.027344"/>
     <use xlink:href="#DejaVuSans-6f" x="426.810547"/>
     <use xlink:href="#DejaVuSans-6e" x="487.992188"/>
     <use xlink:href="#DejaVuSans-20" x="551.371094"/>
     <use xlink:href="#DejaVuSans-69" x="583.158203"/>
     <use xlink:href="#DejaVuSans-6e" x="610.941406"/>
     <use xlink:href="#DejaVuSans-3a" x="674.320312"/>
     <use xlink:href="#DejaVuSans-20" x="708.011719"/>
     <use xlink:href="#DejaVuSans-30" x="739.798828"/>
     <use xlink:href="#DejaVuSans-2e" x="803.421875"/>
     <use xlink:href="#DejaVuSans-31" x="835.208984"/>
     <use xlink:href="#DejaVuSans-32" x="898.832031"/>
     <use xlink:href="#DejaVuSans-32" x="962.455078"/>
    </g>
   </g>
  </g>
 </g>
 <defs>
  <clipPath id="pcfec986bfd">
   <rect x="83.72" y="23.76" width="612.52" height="475.72"/>
  </clipPath>
 </defs>
</svg>
