<?xml version="1.0" encoding="utf-8" standalone="no"?>
<!DOCTYPE svg PUBLIC "-//W3C//DTD SVG 1.1//EN"
  "http://www.w3.org/Graphics/SVG/1.1/DTD/svg11.dtd">
<svg xmlns:xlink="http://www.w3.org/1999/xlink" width="720pt" height="576pt" viewBox="0 0 720 576" xmlns="http://www.w3.org/2000/svg" version="1.1">
 <metadata>
  <rdf:RDF xmlns:dc="http://purl.org/dc/elements/1.1/" xmlns:cc="http://creativecommons.org/ns#" xmlns:rdf="http://www.w3.org/1999/02/22-rdf-syntax-ns#">
   <cc:Work>
    <dc:type rdf:resource="http://purl.org/dc/dcmitype/StillImage"/>
    <dc:date>2024-12-06T23:14:24.960433</dc:date>
    <dc:format>image/svg+xml</dc:format>
    <dc:creator>
     <cc:Agent>
      <dc:title>Matplotlib v3.8.4, https://matplotlib.org/</dc:title>
     </cc:Agent>
    </dc:creator>
   </cc:Work>
  </rdf:RDF>
 </metadata>
 <defs>
  <style type="text/css">*{stroke-linejoin: round; stroke-linecap: butt}</style>
 </defs>
 <g id="figure_1">
  <g id="patch_1">
   <path d="M 0 576 
L 720 576 
L 720 0 
L 0 0 
z
" style="fill: #ffffff"/>
  </g>
  <g id="axes_1">
   <g id="patch_2">
    <path d="M 104.69 499.48 
L 696.24 499.48 
L 696.24 23.76 
L 104.69 23.76 
z
" style="fill: #ffffff"/>
   </g>
   <g id="PathCollection_1">
    <defs>
     <path id="me788db2da7" d="M 0 3 
C 0.795609 3 1.55874 2.683901 2.12132 2.12132 
C 2.683901 1.55874 3 0.795609 3 0 
C 3 -0.795609 2.683901 -1.55874 2.12132 -2.12132 
C 1.55874 -2.683901 0.795609 -3 0 -3 
C -0.795609 -3 -1.55874 -2.683901 -2.12132 -2.12132 
C -2.683901 -1.55874 -3 -0.795609 -3 0 
C -3 0.795609 -2.683901 1.55874 -2.12132 2.12132 
C -1.55874 2.683901 -0.795609 3 0 3 
z
" style="stroke: #1f77b4"/>
    </defs>
    <g clip-path="url(#p24c58a5ded)">
     <use xlink:href="#me788db2da7" x="361.114618" y="347.083108" style="fill: #1f77b4; stroke: #1f77b4"/>
     <use xlink:href="#me788db2da7" x="669.351364" y="384.427388" style="fill: #1f77b4; stroke: #1f77b4"/>
     <use xlink:href="#me788db2da7" x="320.533737" y="365.818149" style="fill: #1f77b4; stroke: #1f77b4"/>
     <use xlink:href="#me788db2da7" x="305.869118" y="389.89071" style="fill: #1f77b4; stroke: #1f77b4"/>
     <use xlink:href="#me788db2da7" x="342.732478" y="445.816737" style="fill: #1f77b4; stroke: #1f77b4"/>
     <use xlink:href="#me788db2da7" x="311.679323" y="194.379261" style="fill: #1f77b4; stroke: #1f77b4"/>
     <use xlink:href="#me788db2da7" x="270.387006" y="352.960227" style="fill: #1f77b4; stroke: #1f77b4"/>
     <use xlink:href="#me788db2da7" x="331.549324" y="477.527707" style="fill: #1f77b4; stroke: #1f77b4"/>
     <use xlink:href="#me788db2da7" x="274.774718" y="382.249183" style="fill: #1f77b4; stroke: #1f77b4"/>
     <use xlink:href="#me788db2da7" x="520.495293" y="327.120367" style="fill: #1f77b4; stroke: #1f77b4"/>
     <use xlink:href="#me788db2da7" x="426.344658" y="305.7535" style="fill: #1f77b4; stroke: #1f77b4"/>
     <use xlink:href="#me788db2da7" x="297.72127" y="418.796546" style="fill: #1f77b4; stroke: #1f77b4"/>
     <use xlink:href="#me788db2da7" x="409.8037" y="394.901562" style="fill: #1f77b4; stroke: #1f77b4"/>
     <use xlink:href="#me788db2da7" x="406.207174" y="446.660504" style="fill: #1f77b4; stroke: #1f77b4"/>
     <use xlink:href="#me788db2da7" x="305.197404" y="219.641008" style="fill: #1f77b4; stroke: #1f77b4"/>
     <use xlink:href="#me788db2da7" x="315.909818" y="215.707658" style="fill: #1f77b4; stroke: #1f77b4"/>
     <use xlink:href="#me788db2da7" x="352.233645" y="284.029694" style="fill: #1f77b4; stroke: #1f77b4"/>
     <use xlink:href="#me788db2da7" x="399.216314" y="403.301896" style="fill: #1f77b4; stroke: #1f77b4"/>
     <use xlink:href="#me788db2da7" x="434.999468" y="326.748451" style="fill: #1f77b4; stroke: #1f77b4"/>
     <use xlink:href="#me788db2da7" x="406.863744" y="258.955261" style="fill: #1f77b4; stroke: #1f77b4"/>
     <use xlink:href="#me788db2da7" x="233.363156" y="425.949482" style="fill: #1f77b4; stroke: #1f77b4"/>
     <use xlink:href="#me788db2da7" x="297.486128" y="286.208599" style="fill: #1f77b4; stroke: #1f77b4"/>
     <use xlink:href="#me788db2da7" x="232.087684" y="346.759353" style="fill: #1f77b4; stroke: #1f77b4"/>
     <use xlink:href="#me788db2da7" x="131.578636" y="448.944089" style="fill: #1f77b4; stroke: #1f77b4"/>
     <use xlink:href="#me788db2da7" x="289.546559" y="377.935966" style="fill: #1f77b4; stroke: #1f77b4"/>
     <use xlink:href="#me788db2da7" x="347.077043" y="226.495422" style="fill: #1f77b4; stroke: #1f77b4"/>
     <use xlink:href="#me788db2da7" x="298.906034" y="447.674101" style="fill: #1f77b4; stroke: #1f77b4"/>
     <use xlink:href="#me788db2da7" x="286.265535" y="323.175225" style="fill: #1f77b4; stroke: #1f77b4"/>
     <use xlink:href="#me788db2da7" x="330.391499" y="210.727415" style="fill: #1f77b4; stroke: #1f77b4"/>
     <use xlink:href="#me788db2da7" x="251.246705" y="368.590166" style="fill: #1f77b4; stroke: #1f77b4"/>
     <use xlink:href="#me788db2da7" x="419.652786" y="387.874405" style="fill: #1f77b4; stroke: #1f77b4"/>
     <use xlink:href="#me788db2da7" x="319.061781" y="314.255149" style="fill: #1f77b4; stroke: #1f77b4"/>
     <use xlink:href="#me788db2da7" x="178.935553" y="400.647752" style="fill: #1f77b4; stroke: #1f77b4"/>
     <use xlink:href="#me788db2da7" x="262.93294" y="377.622038" style="fill: #1f77b4; stroke: #1f77b4"/>
     <use xlink:href="#me788db2da7" x="256.755487" y="393.907167" style="fill: #1f77b4; stroke: #1f77b4"/>
     <use xlink:href="#me788db2da7" x="201.582737" y="373.48929" style="fill: #1f77b4; stroke: #1f77b4"/>
     <use xlink:href="#me788db2da7" x="298.685122" y="165.927905" style="fill: #1f77b4; stroke: #1f77b4"/>
     <use xlink:href="#me788db2da7" x="529.513013" y="72.882795" style="fill: #1f77b4; stroke: #1f77b4"/>
     <use xlink:href="#me788db2da7" x="461.605935" y="359.373849" style="fill: #1f77b4; stroke: #1f77b4"/>
     <use xlink:href="#me788db2da7" x="323.286797" y="386.668368" style="fill: #1f77b4; stroke: #1f77b4"/>
     <use xlink:href="#me788db2da7" x="280.899892" y="421.93883" style="fill: #1f77b4; stroke: #1f77b4"/>
     <use xlink:href="#me788db2da7" x="283.741148" y="441.150489" style="fill: #1f77b4; stroke: #1f77b4"/>
     <use xlink:href="#me788db2da7" x="324.520491" y="368.643794" style="fill: #1f77b4; stroke: #1f77b4"/>
     <use xlink:href="#me788db2da7" x="308.935091" y="440.502167" style="fill: #1f77b4; stroke: #1f77b4"/>
     <use xlink:href="#me788db2da7" x="352.936255" y="321.420328" style="fill: #1f77b4; stroke: #1f77b4"/>
     <use xlink:href="#me788db2da7" x="346.05977" y="219.022143" style="fill: #1f77b4; stroke: #1f77b4"/>
     <use xlink:href="#me788db2da7" x="321.051125" y="343.206458" style="fill: #1f77b4; stroke: #1f77b4"/>
     <use xlink:href="#me788db2da7" x="483.606973" y="232.15882" style="fill: #1f77b4; stroke: #1f77b4"/>
     <use xlink:href="#me788db2da7" x="267.53228" y="406.026543" style="fill: #1f77b4; stroke: #1f77b4"/>
     <use xlink:href="#me788db2da7" x="285.482794" y="238.956534" style="fill: #1f77b4; stroke: #1f77b4"/>
     <use xlink:href="#me788db2da7" x="402.344383" y="390.518295" style="fill: #1f77b4; stroke: #1f77b4"/>
     <use xlink:href="#me788db2da7" x="220.147055" y="445.417646" style="fill: #1f77b4; stroke: #1f77b4"/>
     <use xlink:href="#me788db2da7" x="244.547527" y="377.365443" style="fill: #1f77b4; stroke: #1f77b4"/>
     <use xlink:href="#me788db2da7" x="285.402435" y="308.204428" style="fill: #1f77b4; stroke: #1f77b4"/>
     <use xlink:href="#me788db2da7" x="401.996617" y="246.416982" style="fill: #1f77b4; stroke: #1f77b4"/>
     <use xlink:href="#me788db2da7" x="336.144859" y="394.95388" style="fill: #1f77b4; stroke: #1f77b4"/>
     <use xlink:href="#me788db2da7" x="356.558273" y="368.126017" style="fill: #1f77b4; stroke: #1f77b4"/>
     <use xlink:href="#me788db2da7" x="359.867682" y="318.682737" style="fill: #1f77b4; stroke: #1f77b4"/>
     <use xlink:href="#me788db2da7" x="365.236445" y="347.882396" style="fill: #1f77b4; stroke: #1f77b4"/>
     <use xlink:href="#me788db2da7" x="232.387128" y="431.896335" style="fill: #1f77b4; stroke: #1f77b4"/>
     <use xlink:href="#me788db2da7" x="467.799748" y="404.135476" style="fill: #1f77b4; stroke: #1f77b4"/>
     <use xlink:href="#me788db2da7" x="340.126134" y="383.248322" style="fill: #1f77b4; stroke: #1f77b4"/>
     <use xlink:href="#me788db2da7" x="309.559167" y="421.680021" style="fill: #1f77b4; stroke: #1f77b4"/>
     <use xlink:href="#me788db2da7" x="317.560756" y="428.304134" style="fill: #1f77b4; stroke: #1f77b4"/>
     <use xlink:href="#me788db2da7" x="249.074955" y="336.228502" style="fill: #1f77b4; stroke: #1f77b4"/>
     <use xlink:href="#me788db2da7" x="368.512752" y="276.85627" style="fill: #1f77b4; stroke: #1f77b4"/>
     <use xlink:href="#me788db2da7" x="210.823879" y="85.379418" style="fill: #1f77b4; stroke: #1f77b4"/>
     <use xlink:href="#me788db2da7" x="306.51823" y="447.42304" style="fill: #1f77b4; stroke: #1f77b4"/>
     <use xlink:href="#me788db2da7" x="275.558676" y="345.058604" style="fill: #1f77b4; stroke: #1f77b4"/>
     <use xlink:href="#me788db2da7" x="429.028393" y="302.719126" style="fill: #1f77b4; stroke: #1f77b4"/>
     <use xlink:href="#me788db2da7" x="409.136476" y="317.903734" style="fill: #1f77b4; stroke: #1f77b4"/>
     <use xlink:href="#me788db2da7" x="325.670403" y="342.978371" style="fill: #1f77b4; stroke: #1f77b4"/>
     <use xlink:href="#me788db2da7" x="521.417292" y="64.375679" style="fill: #1f77b4; stroke: #1f77b4"/>
     <use xlink:href="#me788db2da7" x="414.015779" y="388.522456" style="fill: #1f77b4; stroke: #1f77b4"/>
     <use xlink:href="#me788db2da7" x="280.189064" y="337.656414" style="fill: #1f77b4; stroke: #1f77b4"/>
     <use xlink:href="#me788db2da7" x="278.370483" y="229.897961" style="fill: #1f77b4; stroke: #1f77b4"/>
     <use xlink:href="#me788db2da7" x="206.960327" y="370.488372" style="fill: #1f77b4; stroke: #1f77b4"/>
     <use xlink:href="#me788db2da7" x="307.298535" y="431.92412" style="fill: #1f77b4; stroke: #1f77b4"/>
     <use xlink:href="#me788db2da7" x="242.978851" y="433.541831" style="fill: #1f77b4; stroke: #1f77b4"/>
     <use xlink:href="#me788db2da7" x="314.964838" y="410.615625" style="fill: #1f77b4; stroke: #1f77b4"/>
     <use xlink:href="#me788db2da7" x="209.427944" y="347.36532" style="fill: #1f77b4; stroke: #1f77b4"/>
     <use xlink:href="#me788db2da7" x="216.322236" y="278.967541" style="fill: #1f77b4; stroke: #1f77b4"/>
     <use xlink:href="#me788db2da7" x="221.914194" y="394.064142" style="fill: #1f77b4; stroke: #1f77b4"/>
     <use xlink:href="#me788db2da7" x="400.697402" y="285.413625" style="fill: #1f77b4; stroke: #1f77b4"/>
     <use xlink:href="#me788db2da7" x="377.535647" y="302.461153" style="fill: #1f77b4; stroke: #1f77b4"/>
     <use xlink:href="#me788db2da7" x="325.195782" y="444.742849" style="fill: #1f77b4; stroke: #1f77b4"/>
     <use xlink:href="#me788db2da7" x="398.483266" y="408.667383" style="fill: #1f77b4; stroke: #1f77b4"/>
     <use xlink:href="#me788db2da7" x="399.774871" y="304.838033" style="fill: #1f77b4; stroke: #1f77b4"/>
     <use xlink:href="#me788db2da7" x="267.173556" y="262.161541" style="fill: #1f77b4; stroke: #1f77b4"/>
     <use xlink:href="#me788db2da7" x="263.576497" y="271.183429" style="fill: #1f77b4; stroke: #1f77b4"/>
     <use xlink:href="#me788db2da7" x="340.210603" y="413.437859" style="fill: #1f77b4; stroke: #1f77b4"/>
     <use xlink:href="#me788db2da7" x="305.62416" y="232.548085" style="fill: #1f77b4; stroke: #1f77b4"/>
     <use xlink:href="#me788db2da7" x="424.74775" y="401.993844" style="fill: #1f77b4; stroke: #1f77b4"/>
     <use xlink:href="#me788db2da7" x="321.333752" y="216.773707" style="fill: #1f77b4; stroke: #1f77b4"/>
     <use xlink:href="#me788db2da7" x="511.953488" y="312.120294" style="fill: #1f77b4; stroke: #1f77b4"/>
     <use xlink:href="#me788db2da7" x="377.968946" y="424.300394" style="fill: #1f77b4; stroke: #1f77b4"/>
     <use xlink:href="#me788db2da7" x="268.44157" y="326.574714" style="fill: #1f77b4; stroke: #1f77b4"/>
     <use xlink:href="#me788db2da7" x="349.938237" y="71.520279" style="fill: #1f77b4; stroke: #1f77b4"/>
     <use xlink:href="#me788db2da7" x="306.264521" y="395.174377" style="fill: #1f77b4; stroke: #1f77b4"/>
     <use xlink:href="#me788db2da7" x="324.417531" y="353.901604" style="fill: #1f77b4; stroke: #1f77b4"/>
     <use xlink:href="#me788db2da7" x="387.625962" y="183.342153" style="fill: #1f77b4; stroke: #1f77b4"/>
     <use xlink:href="#me788db2da7" x="369.688612" y="311.062106" style="fill: #1f77b4; stroke: #1f77b4"/>
     <use xlink:href="#me788db2da7" x="376.802826" y="314.272814" style="fill: #1f77b4; stroke: #1f77b4"/>
     <use xlink:href="#me788db2da7" x="424.42677" y="297.437628" style="fill: #1f77b4; stroke: #1f77b4"/>
     <use xlink:href="#me788db2da7" x="151.660189" y="383.496627" style="fill: #1f77b4; stroke: #1f77b4"/>
     <use xlink:href="#me788db2da7" x="279.442622" y="418.199593" style="fill: #1f77b4; stroke: #1f77b4"/>
     <use xlink:href="#me788db2da7" x="170.909842" y="411.237472" style="fill: #1f77b4; stroke: #1f77b4"/>
     <use xlink:href="#me788db2da7" x="322.164129" y="337.368509" style="fill: #1f77b4; stroke: #1f77b4"/>
     <use xlink:href="#me788db2da7" x="360.899262" y="354.298097" style="fill: #1f77b4; stroke: #1f77b4"/>
     <use xlink:href="#me788db2da7" x="548.24505" y="286.816033" style="fill: #1f77b4; stroke: #1f77b4"/>
     <use xlink:href="#me788db2da7" x="242.43696" y="422.769315" style="fill: #1f77b4; stroke: #1f77b4"/>
     <use xlink:href="#me788db2da7" x="397.651899" y="314.972143" style="fill: #1f77b4; stroke: #1f77b4"/>
     <use xlink:href="#me788db2da7" x="373.942089" y="384.945593" style="fill: #1f77b4; stroke: #1f77b4"/>
     <use xlink:href="#me788db2da7" x="383.224096" y="316.28338" style="fill: #1f77b4; stroke: #1f77b4"/>
     <use xlink:href="#me788db2da7" x="330.473836" y="454.215874" style="fill: #1f77b4; stroke: #1f77b4"/>
     <use xlink:href="#me788db2da7" x="402.812916" y="319.312174" style="fill: #1f77b4; stroke: #1f77b4"/>
     <use xlink:href="#me788db2da7" x="341.181532" y="253.86862" style="fill: #1f77b4; stroke: #1f77b4"/>
     <use xlink:href="#me788db2da7" x="365.501037" y="316.144251" style="fill: #1f77b4; stroke: #1f77b4"/>
     <use xlink:href="#me788db2da7" x="369.964923" y="162.051572" style="fill: #1f77b4; stroke: #1f77b4"/>
     <use xlink:href="#me788db2da7" x="246.173201" y="384.345387" style="fill: #1f77b4; stroke: #1f77b4"/>
     <use xlink:href="#me788db2da7" x="319.461141" y="323.242294" style="fill: #1f77b4; stroke: #1f77b4"/>
     <use xlink:href="#me788db2da7" x="177.390543" y="348.582449" style="fill: #1f77b4; stroke: #1f77b4"/>
     <use xlink:href="#me788db2da7" x="261.167551" y="327.079976" style="fill: #1f77b4; stroke: #1f77b4"/>
     <use xlink:href="#me788db2da7" x="225.812446" y="247.438756" style="fill: #1f77b4; stroke: #1f77b4"/>
     <use xlink:href="#me788db2da7" x="135.398356" y="450.425313" style="fill: #1f77b4; stroke: #1f77b4"/>
     <use xlink:href="#me788db2da7" x="266.484568" y="355.394643" style="fill: #1f77b4; stroke: #1f77b4"/>
     <use xlink:href="#me788db2da7" x="316.61783" y="360.812944" style="fill: #1f77b4; stroke: #1f77b4"/>
     <use xlink:href="#me788db2da7" x="319.558546" y="353.426499" style="fill: #1f77b4; stroke: #1f77b4"/>
     <use xlink:href="#me788db2da7" x="314.938584" y="204.578068" style="fill: #1f77b4; stroke: #1f77b4"/>
     <use xlink:href="#me788db2da7" x="342.099498" y="350.411237" style="fill: #1f77b4; stroke: #1f77b4"/>
     <use xlink:href="#me788db2da7" x="379.575748" y="271.407699" style="fill: #1f77b4; stroke: #1f77b4"/>
     <use xlink:href="#me788db2da7" x="314.925343" y="422.266425" style="fill: #1f77b4; stroke: #1f77b4"/>
     <use xlink:href="#me788db2da7" x="316.261465" y="230.432024" style="fill: #1f77b4; stroke: #1f77b4"/>
     <use xlink:href="#me788db2da7" x="278.317823" y="407.338345" style="fill: #1f77b4; stroke: #1f77b4"/>
     <use xlink:href="#me788db2da7" x="300.696839" y="405.935304" style="fill: #1f77b4; stroke: #1f77b4"/>
     <use xlink:href="#me788db2da7" x="414.655912" y="237.487531" style="fill: #1f77b4; stroke: #1f77b4"/>
     <use xlink:href="#me788db2da7" x="413.353197" y="450.686268" style="fill: #1f77b4; stroke: #1f77b4"/>
     <use xlink:href="#me788db2da7" x="431.863029" y="364.191877" style="fill: #1f77b4; stroke: #1f77b4"/>
     <use xlink:href="#me788db2da7" x="469.125901" y="314.608721" style="fill: #1f77b4; stroke: #1f77b4"/>
     <use xlink:href="#me788db2da7" x="252.593633" y="290.752862" style="fill: #1f77b4; stroke: #1f77b4"/>
     <use xlink:href="#me788db2da7" x="337.654484" y="325.127804" style="fill: #1f77b4; stroke: #1f77b4"/>
     <use xlink:href="#me788db2da7" x="270.089845" y="350.88589" style="fill: #1f77b4; stroke: #1f77b4"/>
     <use xlink:href="#me788db2da7" x="254.751381" y="391.050709" style="fill: #1f77b4; stroke: #1f77b4"/>
     <use xlink:href="#me788db2da7" x="259.801599" y="477.856364" style="fill: #1f77b4; stroke: #1f77b4"/>
     <use xlink:href="#me788db2da7" x="332.494837" y="390.85113" style="fill: #1f77b4; stroke: #1f77b4"/>
     <use xlink:href="#me788db2da7" x="295.745623" y="371.112659" style="fill: #1f77b4; stroke: #1f77b4"/>
     <use xlink:href="#me788db2da7" x="340.31166" y="387.050314" style="fill: #1f77b4; stroke: #1f77b4"/>
     <use xlink:href="#me788db2da7" x="382.669724" y="433.8795" style="fill: #1f77b4; stroke: #1f77b4"/>
     <use xlink:href="#me788db2da7" x="383.351864" y="348.343067" style="fill: #1f77b4; stroke: #1f77b4"/>
     <use xlink:href="#me788db2da7" x="317.052271" y="423.737755" style="fill: #1f77b4; stroke: #1f77b4"/>
     <use xlink:href="#me788db2da7" x="293.025819" y="338.50409" style="fill: #1f77b4; stroke: #1f77b4"/>
     <use xlink:href="#me788db2da7" x="363.67652" y="331.558843" style="fill: #1f77b4; stroke: #1f77b4"/>
     <use xlink:href="#me788db2da7" x="407.963659" y="351.585513" style="fill: #1f77b4; stroke: #1f77b4"/>
     <use xlink:href="#me788db2da7" x="474.361569" y="210.476399" style="fill: #1f77b4; stroke: #1f77b4"/>
     <use xlink:href="#me788db2da7" x="488.45911" y="338.865817" style="fill: #1f77b4; stroke: #1f77b4"/>
     <use xlink:href="#me788db2da7" x="319.671399" y="264.776787" style="fill: #1f77b4; stroke: #1f77b4"/>
     <use xlink:href="#me788db2da7" x="218.335475" y="370.763039" style="fill: #1f77b4; stroke: #1f77b4"/>
     <use xlink:href="#me788db2da7" x="376.758538" y="431.612361" style="fill: #1f77b4; stroke: #1f77b4"/>
     <use xlink:href="#me788db2da7" x="281.341943" y="468.577496" style="fill: #1f77b4; stroke: #1f77b4"/>
     <use xlink:href="#me788db2da7" x="361.887922" y="394.44428" style="fill: #1f77b4; stroke: #1f77b4"/>
     <use xlink:href="#me788db2da7" x="328.377347" y="197.851828" style="fill: #1f77b4; stroke: #1f77b4"/>
     <use xlink:href="#me788db2da7" x="172.918591" y="367.341773" style="fill: #1f77b4; stroke: #1f77b4"/>
     <use xlink:href="#me788db2da7" x="306.132948" y="300.56882" style="fill: #1f77b4; stroke: #1f77b4"/>
     <use xlink:href="#me788db2da7" x="457.911624" y="365.906135" style="fill: #1f77b4; stroke: #1f77b4"/>
     <use xlink:href="#me788db2da7" x="284.513615" y="393.993663" style="fill: #1f77b4; stroke: #1f77b4"/>
     <use xlink:href="#me788db2da7" x="435.931892" y="429.288499" style="fill: #1f77b4; stroke: #1f77b4"/>
     <use xlink:href="#me788db2da7" x="249.346395" y="437.274494" style="fill: #1f77b4; stroke: #1f77b4"/>
     <use xlink:href="#me788db2da7" x="245.7953" y="401.614587" style="fill: #1f77b4; stroke: #1f77b4"/>
     <use xlink:href="#me788db2da7" x="333.515306" y="418.107811" style="fill: #1f77b4; stroke: #1f77b4"/>
     <use xlink:href="#me788db2da7" x="421.775072" y="226.735549" style="fill: #1f77b4; stroke: #1f77b4"/>
     <use xlink:href="#me788db2da7" x="213.224531" y="428.262704" style="fill: #1f77b4; stroke: #1f77b4"/>
     <use xlink:href="#me788db2da7" x="450.653661" y="149.935493" style="fill: #1f77b4; stroke: #1f77b4"/>
     <use xlink:href="#me788db2da7" x="370.412377" y="351.944891" style="fill: #1f77b4; stroke: #1f77b4"/>
     <use xlink:href="#me788db2da7" x="156.042803" y="205.706194" style="fill: #1f77b4; stroke: #1f77b4"/>
     <use xlink:href="#me788db2da7" x="441.755415" y="191.287465" style="fill: #1f77b4; stroke: #1f77b4"/>
     <use xlink:href="#me788db2da7" x="142.546205" y="385.872129" style="fill: #1f77b4; stroke: #1f77b4"/>
     <use xlink:href="#me788db2da7" x="293.75803" y="420.423202" style="fill: #1f77b4; stroke: #1f77b4"/>
     <use xlink:href="#me788db2da7" x="264.77298" y="339.614302" style="fill: #1f77b4; stroke: #1f77b4"/>
     <use xlink:href="#me788db2da7" x="320.469283" y="469.673206" style="fill: #1f77b4; stroke: #1f77b4"/>
     <use xlink:href="#me788db2da7" x="288.596176" y="465.560065" style="fill: #1f77b4; stroke: #1f77b4"/>
     <use xlink:href="#me788db2da7" x="363.662442" y="342.849248" style="fill: #1f77b4; stroke: #1f77b4"/>
     <use xlink:href="#me788db2da7" x="422.791432" y="385.395917" style="fill: #1f77b4; stroke: #1f77b4"/>
     <use xlink:href="#me788db2da7" x="454.631588" y="306.762488" style="fill: #1f77b4; stroke: #1f77b4"/>
     <use xlink:href="#me788db2da7" x="540.798442" y="289.997465" style="fill: #1f77b4; stroke: #1f77b4"/>
     <use xlink:href="#me788db2da7" x="392.14266" y="209.257824" style="fill: #1f77b4; stroke: #1f77b4"/>
     <use xlink:href="#me788db2da7" x="349.363852" y="123.756156" style="fill: #1f77b4; stroke: #1f77b4"/>
     <use xlink:href="#me788db2da7" x="395.272251" y="166.221796" style="fill: #1f77b4; stroke: #1f77b4"/>
     <use xlink:href="#me788db2da7" x="343.466743" y="366.641834" style="fill: #1f77b4; stroke: #1f77b4"/>
     <use xlink:href="#me788db2da7" x="321.941619" y="465.447885" style="fill: #1f77b4; stroke: #1f77b4"/>
     <use xlink:href="#me788db2da7" x="394.158943" y="305.110825" style="fill: #1f77b4; stroke: #1f77b4"/>
     <use xlink:href="#me788db2da7" x="289.994546" y="45.383636" style="fill: #1f77b4; stroke: #1f77b4"/>
     <use xlink:href="#me788db2da7" x="277.832701" y="470.195681" style="fill: #1f77b4; stroke: #1f77b4"/>
     <use xlink:href="#me788db2da7" x="315.294112" y="390.932837" style="fill: #1f77b4; stroke: #1f77b4"/>
     <use xlink:href="#me788db2da7" x="291.229382" y="337.707128" style="fill: #1f77b4; stroke: #1f77b4"/>
     <use xlink:href="#me788db2da7" x="145.36897" y="319.36212" style="fill: #1f77b4; stroke: #1f77b4"/>
     <use xlink:href="#me788db2da7" x="395.177357" y="273.643981" style="fill: #1f77b4; stroke: #1f77b4"/>
     <use xlink:href="#me788db2da7" x="327.809811" y="292.680163" style="fill: #1f77b4; stroke: #1f77b4"/>
     <use xlink:href="#me788db2da7" x="246.733584" y="403.058877" style="fill: #1f77b4; stroke: #1f77b4"/>
     <use xlink:href="#me788db2da7" x="299.72804" y="325.140974" style="fill: #1f77b4; stroke: #1f77b4"/>
     <use xlink:href="#me788db2da7" x="244.942778" y="297.789845" style="fill: #1f77b4; stroke: #1f77b4"/>
     <use xlink:href="#me788db2da7" x="287.089748" y="438.944477" style="fill: #1f77b4; stroke: #1f77b4"/>
     <use xlink:href="#me788db2da7" x="176.125268" y="391.514248" style="fill: #1f77b4; stroke: #1f77b4"/>
     <use xlink:href="#me788db2da7" x="343.795713" y="405.775031" style="fill: #1f77b4; stroke: #1f77b4"/>
     <use xlink:href="#me788db2da7" x="392.704337" y="377.504685" style="fill: #1f77b4; stroke: #1f77b4"/>
     <use xlink:href="#me788db2da7" x="194.548577" y="461.137356" style="fill: #1f77b4; stroke: #1f77b4"/>
    </g>
   </g>
   <g id="matplotlib.axis_1">
    <g id="xtick_1">
     <g id="line2d_1">
      <defs>
       <path id="mac1f5b9289" d="M 0 0 
L 0 3.5 
" style="stroke: #000000; stroke-width: 0.8"/>
      </defs>
      <g>
       <use xlink:href="#mac1f5b9289" x="123.506165" y="499.48" style="stroke: #000000; stroke-width: 0.8"/>
      </g>
     </g>
     <g id="text_1">
      <!-- 0.09 -->
      <g transform="translate(99.013977 523.196563) scale(0.22 -0.22)">
       <defs>
        <path id="DejaVuSans-30" d="M 2034 4250 
Q 1547 4250 1301 3770 
Q 1056 3291 1056 2328 
Q 1056 1369 1301 889 
Q 1547 409 2034 409 
Q 2525 409 2770 889 
Q 3016 1369 3016 2328 
Q 3016 3291 2770 3770 
Q 2525 4250 2034 4250 
z
M 2034 4750 
Q 2819 4750 3233 4129 
Q 3647 3509 3647 2328 
Q 3647 1150 3233 529 
Q 2819 -91 2034 -91 
Q 1250 -91 836 529 
Q 422 1150 422 2328 
Q 422 3509 836 4129 
Q 1250 4750 2034 4750 
z
" transform="scale(0.015625)"/>
        <path id="DejaVuSans-2e" d="M 684 794 
L 1344 794 
L 1344 0 
L 684 0 
L 684 794 
z
" transform="scale(0.015625)"/>
        <path id="DejaVuSans-39" d="M 703 97 
L 703 672 
Q 941 559 1184 500 
Q 1428 441 1663 441 
Q 2288 441 2617 861 
Q 2947 1281 2994 2138 
Q 2813 1869 2534 1725 
Q 2256 1581 1919 1581 
Q 1219 1581 811 2004 
Q 403 2428 403 3163 
Q 403 3881 828 4315 
Q 1253 4750 1959 4750 
Q 2769 4750 3195 4129 
Q 3622 3509 3622 2328 
Q 3622 1225 3098 567 
Q 2575 -91 1691 -91 
Q 1453 -91 1209 -44 
Q 966 3 703 97 
z
M 1959 2075 
Q 2384 2075 2632 2365 
Q 2881 2656 2881 3163 
Q 2881 3666 2632 3958 
Q 2384 4250 1959 4250 
Q 1534 4250 1286 3958 
Q 1038 3666 1038 3163 
Q 1038 2656 1286 2365 
Q 1534 2075 1959 2075 
z
" transform="scale(0.015625)"/>
       </defs>
       <use xlink:href="#DejaVuSans-30"/>
       <use xlink:href="#DejaVuSans-2e" x="63.623047"/>
       <use xlink:href="#DejaVuSans-30" x="95.410156"/>
       <use xlink:href="#DejaVuSans-39" x="159.033203"/>
      </g>
     </g>
    </g>
    <g id="xtick_2">
     <g id="line2d_2">
      <g>
       <use xlink:href="#mac1f5b9289" x="225.642657" y="499.48" style="stroke: #000000; stroke-width: 0.8"/>
      </g>
     </g>
     <g id="text_2">
      <!-- 0.10 -->
      <g transform="translate(201.15047 523.196563) scale(0.22 -0.22)">
       <defs>
        <path id="DejaVuSans-31" d="M 794 531 
L 1825 531 
L 1825 4091 
L 703 3866 
L 703 4441 
L 1819 4666 
L 2450 4666 
L 2450 531 
L 3481 531 
L 3481 0 
L 794 0 
L 794 531 
z
" transform="scale(0.015625)"/>
       </defs>
       <use xlink:href="#DejaVuSans-30"/>
       <use xlink:href="#DejaVuSans-2e" x="63.623047"/>
       <use xlink:href="#DejaVuSans-31" x="95.410156"/>
       <use xlink:href="#DejaVuSans-30" x="159.033203"/>
      </g>
     </g>
    </g>
    <g id="xtick_3">
     <g id="line2d_3">
      <g>
       <use xlink:href="#mac1f5b9289" x="327.77915" y="499.48" style="stroke: #000000; stroke-width: 0.8"/>
      </g>
     </g>
     <g id="text_3">
      <!-- 0.11 -->
      <g transform="translate(303.286962 523.196563) scale(0.22 -0.22)">
       <use xlink:href="#DejaVuSans-30"/>
       <use xlink:href="#DejaVuSans-2e" x="63.623047"/>
       <use xlink:href="#DejaVuSans-31" x="95.410156"/>
       <use xlink:href="#DejaVuSans-31" x="159.033203"/>
      </g>
     </g>
    </g>
    <g id="xtick_4">
     <g id="line2d_4">
      <g>
       <use xlink:href="#mac1f5b9289" x="429.915642" y="499.48" style="stroke: #000000; stroke-width: 0.8"/>
      </g>
     </g>
     <g id="text_4">
      <!-- 0.12 -->
      <g transform="translate(405.423455 523.196563) scale(0.22 -0.22)">
       <defs>
        <path id="DejaVuSans-32" d="M 1228 531 
L 3431 531 
L 3431 0 
L 469 0 
L 469 531 
Q 828 903 1448 1529 
Q 2069 2156 2228 2338 
Q 2531 2678 2651 2914 
Q 2772 3150 2772 3378 
Q 2772 3750 2511 3984 
Q 2250 4219 1831 4219 
Q 1534 4219 1204 4116 
Q 875 4013 500 3803 
L 500 4441 
Q 881 4594 1212 4672 
Q 1544 4750 1819 4750 
Q 2544 4750 2975 4387 
Q 3406 4025 3406 3419 
Q 3406 3131 3298 2873 
Q 3191 2616 2906 2266 
Q 2828 2175 2409 1742 
Q 1991 1309 1228 531 
z
" transform="scale(0.015625)"/>
       </defs>
       <use xlink:href="#DejaVuSans-30"/>
       <use xlink:href="#DejaVuSans-2e" x="63.623047"/>
       <use xlink:href="#DejaVuSans-31" x="95.410156"/>
       <use xlink:href="#DejaVuSans-32" x="159.033203"/>
      </g>
     </g>
    </g>
    <g id="xtick_5">
     <g id="line2d_5">
      <g>
       <use xlink:href="#mac1f5b9289" x="532.052135" y="499.48" style="stroke: #000000; stroke-width: 0.8"/>
      </g>
     </g>
     <g id="text_5">
      <!-- 0.13 -->
      <g transform="translate(507.559947 523.196563) scale(0.22 -0.22)">
       <defs>
        <path id="DejaVuSans-33" d="M 2597 2516 
Q 3050 2419 3304 2112 
Q 3559 1806 3559 1356 
Q 3559 666 3084 287 
Q 2609 -91 1734 -91 
Q 1441 -91 1130 -33 
Q 819 25 488 141 
L 488 750 
Q 750 597 1062 519 
Q 1375 441 1716 441 
Q 2309 441 2620 675 
Q 2931 909 2931 1356 
Q 2931 1769 2642 2001 
Q 2353 2234 1838 2234 
L 1294 2234 
L 1294 2753 
L 1863 2753 
Q 2328 2753 2575 2939 
Q 2822 3125 2822 3475 
Q 2822 3834 2567 4026 
Q 2313 4219 1838 4219 
Q 1578 4219 1281 4162 
Q 984 4106 628 3988 
L 628 4550 
Q 988 4650 1302 4700 
Q 1616 4750 1894 4750 
Q 2613 4750 3031 4423 
Q 3450 4097 3450 3541 
Q 3450 3153 3228 2886 
Q 3006 2619 2597 2516 
z
" transform="scale(0.015625)"/>
       </defs>
       <use xlink:href="#DejaVuSans-30"/>
       <use xlink:href="#DejaVuSans-2e" x="63.623047"/>
       <use xlink:href="#DejaVuSans-31" x="95.410156"/>
       <use xlink:href="#DejaVuSans-33" x="159.033203"/>
      </g>
     </g>
    </g>
    <g id="xtick_6">
     <g id="line2d_6">
      <g>
       <use xlink:href="#mac1f5b9289" x="634.188627" y="499.48" style="stroke: #000000; stroke-width: 0.8"/>
      </g>
     </g>
     <g id="text_6">
      <!-- 0.14 -->
      <g transform="translate(609.69644 523.196563) scale(0.22 -0.22)">
       <defs>
        <path id="DejaVuSans-34" d="M 2419 4116 
L 825 1625 
L 2419 1625 
L 2419 4116 
z
M 2253 4666 
L 3047 4666 
L 3047 1625 
L 3713 1625 
L 3713 1100 
L 3047 1100 
L 3047 0 
L 2419 0 
L 2419 1100 
L 313 1100 
L 313 1709 
L 2253 4666 
z
" transform="scale(0.015625)"/>
       </defs>
       <use xlink:href="#DejaVuSans-30"/>
       <use xlink:href="#DejaVuSans-2e" x="63.623047"/>
       <use xlink:href="#DejaVuSans-31" x="95.410156"/>
       <use xlink:href="#DejaVuSans-34" x="159.033203"/>
      </g>
     </g>
    </g>
    <g id="text_7">
     <!-- Uncertainties -->
     <g transform="translate(327.156875 548.488438) scale(0.22 -0.22)">
      <defs>
       <path id="DejaVuSans-55" d="M 556 4666 
L 1191 4666 
L 1191 1831 
Q 1191 1081 1462 751 
Q 1734 422 2344 422 
Q 2950 422 3222 751 
Q 3494 1081 3494 1831 
L 3494 4666 
L 4128 4666 
L 4128 1753 
Q 4128 841 3676 375 
Q 3225 -91 2344 -91 
Q 1459 -91 1007 375 
Q 556 841 556 1753 
L 556 4666 
z
" transform="scale(0.015625)"/>
       <path id="DejaVuSans-6e" d="M 3513 2113 
L 3513 0 
L 2938 0 
L 2938 2094 
Q 2938 2591 2744 2837 
Q 2550 3084 2163 3084 
Q 1697 3084 1428 2787 
Q 1159 2491 1159 1978 
L 1159 0 
L 581 0 
L 581 3500 
L 1159 3500 
L 1159 2956 
Q 1366 3272 1645 3428 
Q 1925 3584 2291 3584 
Q 2894 3584 3203 3211 
Q 3513 2838 3513 2113 
z
" transform="scale(0.015625)"/>
       <path id="DejaVuSans-63" d="M 3122 3366 
L 3122 2828 
Q 2878 2963 2633 3030 
Q 2388 3097 2138 3097 
Q 1578 3097 1268 2742 
Q 959 2388 959 1747 
Q 959 1106 1268 751 
Q 1578 397 2138 397 
Q 2388 397 2633 464 
Q 2878 531 3122 666 
L 3122 134 
Q 2881 22 2623 -34 
Q 2366 -91 2075 -91 
Q 1284 -91 818 406 
Q 353 903 353 1747 
Q 353 2603 823 3093 
Q 1294 3584 2113 3584 
Q 2378 3584 2631 3529 
Q 2884 3475 3122 3366 
z
" transform="scale(0.015625)"/>
       <path id="DejaVuSans-65" d="M 3597 1894 
L 3597 1613 
L 953 1613 
Q 991 1019 1311 708 
Q 1631 397 2203 397 
Q 2534 397 2845 478 
Q 3156 559 3463 722 
L 3463 178 
Q 3153 47 2828 -22 
Q 2503 -91 2169 -91 
Q 1331 -91 842 396 
Q 353 884 353 1716 
Q 353 2575 817 3079 
Q 1281 3584 2069 3584 
Q 2775 3584 3186 3129 
Q 3597 2675 3597 1894 
z
M 3022 2063 
Q 3016 2534 2758 2815 
Q 2500 3097 2075 3097 
Q 1594 3097 1305 2825 
Q 1016 2553 972 2059 
L 3022 2063 
z
" transform="scale(0.015625)"/>
       <path id="DejaVuSans-72" d="M 2631 2963 
Q 2534 3019 2420 3045 
Q 2306 3072 2169 3072 
Q 1681 3072 1420 2755 
Q 1159 2438 1159 1844 
L 1159 0 
L 581 0 
L 581 3500 
L 1159 3500 
L 1159 2956 
Q 1341 3275 1631 3429 
Q 1922 3584 2338 3584 
Q 2397 3584 2469 3576 
Q 2541 3569 2628 3553 
L 2631 2963 
z
" transform="scale(0.015625)"/>
       <path id="DejaVuSans-74" d="M 1172 4494 
L 1172 3500 
L 2356 3500 
L 2356 3053 
L 1172 3053 
L 1172 1153 
Q 1172 725 1289 603 
Q 1406 481 1766 481 
L 2356 481 
L 2356 0 
L 1766 0 
Q 1100 0 847 248 
Q 594 497 594 1153 
L 594 3053 
L 172 3053 
L 172 3500 
L 594 3500 
L 594 4494 
L 1172 4494 
z
" transform="scale(0.015625)"/>
       <path id="DejaVuSans-61" d="M 2194 1759 
Q 1497 1759 1228 1600 
Q 959 1441 959 1056 
Q 959 750 1161 570 
Q 1363 391 1709 391 
Q 2188 391 2477 730 
Q 2766 1069 2766 1631 
L 2766 1759 
L 2194 1759 
z
M 3341 1997 
L 3341 0 
L 2766 0 
L 2766 531 
Q 2569 213 2275 61 
Q 1981 -91 1556 -91 
Q 1019 -91 701 211 
Q 384 513 384 1019 
Q 384 1609 779 1909 
Q 1175 2209 1959 2209 
L 2766 2209 
L 2766 2266 
Q 2766 2663 2505 2880 
Q 2244 3097 1772 3097 
Q 1472 3097 1187 3025 
Q 903 2953 641 2809 
L 641 3341 
Q 956 3463 1253 3523 
Q 1550 3584 1831 3584 
Q 2591 3584 2966 3190 
Q 3341 2797 3341 1997 
z
" transform="scale(0.015625)"/>
       <path id="DejaVuSans-69" d="M 603 3500 
L 1178 3500 
L 1178 0 
L 603 0 
L 603 3500 
z
M 603 4863 
L 1178 4863 
L 1178 4134 
L 603 4134 
L 603 4863 
z
" transform="scale(0.015625)"/>
       <path id="DejaVuSans-73" d="M 2834 3397 
L 2834 2853 
Q 2591 2978 2328 3040 
Q 2066 3103 1784 3103 
Q 1356 3103 1142 2972 
Q 928 2841 928 2578 
Q 928 2378 1081 2264 
Q 1234 2150 1697 2047 
L 1894 2003 
Q 2506 1872 2764 1633 
Q 3022 1394 3022 966 
Q 3022 478 2636 193 
Q 2250 -91 1575 -91 
Q 1294 -91 989 -36 
Q 684 19 347 128 
L 347 722 
Q 666 556 975 473 
Q 1284 391 1588 391 
Q 1994 391 2212 530 
Q 2431 669 2431 922 
Q 2431 1156 2273 1281 
Q 2116 1406 1581 1522 
L 1381 1569 
Q 847 1681 609 1914 
Q 372 2147 372 2553 
Q 372 3047 722 3315 
Q 1072 3584 1716 3584 
Q 2034 3584 2315 3537 
Q 2597 3491 2834 3397 
z
" transform="scale(0.015625)"/>
      </defs>
      <use xlink:href="#DejaVuSans-55"/>
      <use xlink:href="#DejaVuSans-6e" x="73.193359"/>
      <use xlink:href="#DejaVuSans-63" x="136.572266"/>
      <use xlink:href="#DejaVuSans-65" x="191.552734"/>
      <use xlink:href="#DejaVuSans-72" x="253.076172"/>
      <use xlink:href="#DejaVuSans-74" x="294.189453"/>
      <use xlink:href="#DejaVuSans-61" x="333.398438"/>
      <use xlink:href="#DejaVuSans-69" x="394.677734"/>
      <use xlink:href="#DejaVuSans-6e" x="422.460938"/>
      <use xlink:href="#DejaVuSans-74" x="485.839844"/>
      <use xlink:href="#DejaVuSans-69" x="525.048828"/>
      <use xlink:href="#DejaVuSans-65" x="552.832031"/>
      <use xlink:href="#DejaVuSans-73" x="614.355469"/>
     </g>
    </g>
   </g>
   <g id="matplotlib.axis_2">
    <g id="ytick_1">
     <g id="line2d_7">
      <defs>
       <path id="m89214e9790" d="M 0 0 
L -3.5 0 
" style="stroke: #000000; stroke-width: 0.8"/>
      </defs>
      <g>
       <use xlink:href="#m89214e9790" x="104.69" y="464.645014" style="stroke: #000000; stroke-width: 0.8"/>
      </g>
     </g>
     <g id="text_8">
      <!-- 0.15 -->
      <g transform="translate(48.705625 473.003295) scale(0.22 -0.22)">
       <defs>
        <path id="DejaVuSans-35" d="M 691 4666 
L 3169 4666 
L 3169 4134 
L 1269 4134 
L 1269 2991 
Q 1406 3038 1543 3061 
Q 1681 3084 1819 3084 
Q 2600 3084 3056 2656 
Q 3513 2228 3513 1497 
Q 3513 744 3044 326 
Q 2575 -91 1722 -91 
Q 1428 -91 1123 -41 
Q 819 9 494 109 
L 494 744 
Q 775 591 1075 516 
Q 1375 441 1709 441 
Q 2250 441 2565 725 
Q 2881 1009 2881 1497 
Q 2881 1984 2565 2268 
Q 2250 2553 1709 2553 
Q 1456 2553 1204 2497 
Q 953 2441 691 2322 
L 691 4666 
z
" transform="scale(0.015625)"/>
       </defs>
       <use xlink:href="#DejaVuSans-30"/>
       <use xlink:href="#DejaVuSans-2e" x="63.623047"/>
       <use xlink:href="#DejaVuSans-31" x="95.410156"/>
       <use xlink:href="#DejaVuSans-35" x="159.033203"/>
      </g>
     </g>
    </g>
    <g id="ytick_2">
     <g id="line2d_8">
      <g>
       <use xlink:href="#m89214e9790" x="104.69" y="388.846825" style="stroke: #000000; stroke-width: 0.8"/>
      </g>
     </g>
     <g id="text_9">
      <!-- 0.20 -->
      <g transform="translate(48.705625 397.205107) scale(0.22 -0.22)">
       <use xlink:href="#DejaVuSans-30"/>
       <use xlink:href="#DejaVuSans-2e" x="63.623047"/>
       <use xlink:href="#DejaVuSans-32" x="95.410156"/>
       <use xlink:href="#DejaVuSans-30" x="159.033203"/>
      </g>
     </g>
    </g>
    <g id="ytick_3">
     <g id="line2d_9">
      <g>
       <use xlink:href="#m89214e9790" x="104.69" y="313.048637" style="stroke: #000000; stroke-width: 0.8"/>
      </g>
     </g>
     <g id="text_10">
      <!-- 0.25 -->
      <g transform="translate(48.705625 321.406918) scale(0.22 -0.22)">
       <use xlink:href="#DejaVuSans-30"/>
       <use xlink:href="#DejaVuSans-2e" x="63.623047"/>
       <use xlink:href="#DejaVuSans-32" x="95.410156"/>
       <use xlink:href="#DejaVuSans-35" x="159.033203"/>
      </g>
     </g>
    </g>
    <g id="ytick_4">
     <g id="line2d_10">
      <g>
       <use xlink:href="#m89214e9790" x="104.69" y="237.250448" style="stroke: #000000; stroke-width: 0.8"/>
      </g>
     </g>
     <g id="text_11">
      <!-- 0.30 -->
      <g transform="translate(48.705625 245.60873) scale(0.22 -0.22)">
       <use xlink:href="#DejaVuSans-30"/>
       <use xlink:href="#DejaVuSans-2e" x="63.623047"/>
       <use xlink:href="#DejaVuSans-33" x="95.410156"/>
       <use xlink:href="#DejaVuSans-30" x="159.033203"/>
      </g>
     </g>
    </g>
    <g id="ytick_5">
     <g id="line2d_11">
      <g>
       <use xlink:href="#m89214e9790" x="104.69" y="161.45226" style="stroke: #000000; stroke-width: 0.8"/>
      </g>
     </g>
     <g id="text_12">
      <!-- 0.35 -->
      <g transform="translate(48.705625 169.810541) scale(0.22 -0.22)">
       <use xlink:href="#DejaVuSans-30"/>
       <use xlink:href="#DejaVuSans-2e" x="63.623047"/>
       <use xlink:href="#DejaVuSans-33" x="95.410156"/>
       <use xlink:href="#DejaVuSans-35" x="159.033203"/>
      </g>
     </g>
    </g>
    <g id="ytick_6">
     <g id="line2d_12">
      <g>
       <use xlink:href="#m89214e9790" x="104.69" y="85.654071" style="stroke: #000000; stroke-width: 0.8"/>
      </g>
     </g>
     <g id="text_13">
      <!-- 0.40 -->
      <g transform="translate(48.705625 94.012353) scale(0.22 -0.22)">
       <use xlink:href="#DejaVuSans-30"/>
       <use xlink:href="#DejaVuSans-2e" x="63.623047"/>
       <use xlink:href="#DejaVuSans-34" x="95.410156"/>
       <use xlink:href="#DejaVuSans-30" x="159.033203"/>
      </g>
     </g>
    </g>
    <g id="text_14">
     <!-- Force Errors [kJ/(mol*A)] -->
     <g transform="translate(40.130313 394.9125) rotate(-90) scale(0.22 -0.22)">
      <defs>
       <path id="DejaVuSans-46" d="M 628 4666 
L 3309 4666 
L 3309 4134 
L 1259 4134 
L 1259 2759 
L 3109 2759 
L 3109 2228 
L 1259 2228 
L 1259 0 
L 628 0 
L 628 4666 
z
" transform="scale(0.015625)"/>
       <path id="DejaVuSans-6f" d="M 1959 3097 
Q 1497 3097 1228 2736 
Q 959 2375 959 1747 
Q 959 1119 1226 758 
Q 1494 397 1959 397 
Q 2419 397 2687 759 
Q 2956 1122 2956 1747 
Q 2956 2369 2687 2733 
Q 2419 3097 1959 3097 
z
M 1959 3584 
Q 2709 3584 3137 3096 
Q 3566 2609 3566 1747 
Q 3566 888 3137 398 
Q 2709 -91 1959 -91 
Q 1206 -91 779 398 
Q 353 888 353 1747 
Q 353 2609 779 3096 
Q 1206 3584 1959 3584 
z
" transform="scale(0.015625)"/>
       <path id="DejaVuSans-20" transform="scale(0.015625)"/>
       <path id="DejaVuSans-45" d="M 628 4666 
L 3578 4666 
L 3578 4134 
L 1259 4134 
L 1259 2753 
L 3481 2753 
L 3481 2222 
L 1259 2222 
L 1259 531 
L 3634 531 
L 3634 0 
L 628 0 
L 628 4666 
z
" transform="scale(0.015625)"/>
       <path id="DejaVuSans-5b" d="M 550 4863 
L 1875 4863 
L 1875 4416 
L 1125 4416 
L 1125 -397 
L 1875 -397 
L 1875 -844 
L 550 -844 
L 550 4863 
z
" transform="scale(0.015625)"/>
       <path id="DejaVuSans-6b" d="M 581 4863 
L 1159 4863 
L 1159 1991 
L 2875 3500 
L 3609 3500 
L 1753 1863 
L 3688 0 
L 2938 0 
L 1159 1709 
L 1159 0 
L 581 0 
L 581 4863 
z
" transform="scale(0.015625)"/>
       <path id="DejaVuSans-4a" d="M 628 4666 
L 1259 4666 
L 1259 325 
Q 1259 -519 939 -900 
Q 619 -1281 -91 -1281 
L -331 -1281 
L -331 -750 
L -134 -750 
Q 284 -750 456 -515 
Q 628 -281 628 325 
L 628 4666 
z
" transform="scale(0.015625)"/>
       <path id="DejaVuSans-2f" d="M 1625 4666 
L 2156 4666 
L 531 -594 
L 0 -594 
L 1625 4666 
z
" transform="scale(0.015625)"/>
       <path id="DejaVuSans-28" d="M 1984 4856 
Q 1566 4138 1362 3434 
Q 1159 2731 1159 2009 
Q 1159 1288 1364 580 
Q 1569 -128 1984 -844 
L 1484 -844 
Q 1016 -109 783 600 
Q 550 1309 550 2009 
Q 550 2706 781 3412 
Q 1013 4119 1484 4856 
L 1984 4856 
z
" transform="scale(0.015625)"/>
       <path id="DejaVuSans-6d" d="M 3328 2828 
Q 3544 3216 3844 3400 
Q 4144 3584 4550 3584 
Q 5097 3584 5394 3201 
Q 5691 2819 5691 2113 
L 5691 0 
L 5113 0 
L 5113 2094 
Q 5113 2597 4934 2840 
Q 4756 3084 4391 3084 
Q 3944 3084 3684 2787 
Q 3425 2491 3425 1978 
L 3425 0 
L 2847 0 
L 2847 2094 
Q 2847 2600 2669 2842 
Q 2491 3084 2119 3084 
Q 1678 3084 1418 2786 
Q 1159 2488 1159 1978 
L 1159 0 
L 581 0 
L 581 3500 
L 1159 3500 
L 1159 2956 
Q 1356 3278 1631 3431 
Q 1906 3584 2284 3584 
Q 2666 3584 2933 3390 
Q 3200 3197 3328 2828 
z
" transform="scale(0.015625)"/>
       <path id="DejaVuSans-6c" d="M 603 4863 
L 1178 4863 
L 1178 0 
L 603 0 
L 603 4863 
z
" transform="scale(0.015625)"/>
       <path id="DejaVuSans-2a" d="M 3009 3897 
L 1888 3291 
L 3009 2681 
L 2828 2375 
L 1778 3009 
L 1778 1831 
L 1422 1831 
L 1422 3009 
L 372 2375 
L 191 2681 
L 1313 3291 
L 191 3897 
L 372 4206 
L 1422 3572 
L 1422 4750 
L 1778 4750 
L 1778 3572 
L 2828 4206 
L 3009 3897 
z
" transform="scale(0.015625)"/>
       <path id="DejaVuSans-41" d="M 2188 4044 
L 1331 1722 
L 3047 1722 
L 2188 4044 
z
M 1831 4666 
L 2547 4666 
L 4325 0 
L 3669 0 
L 3244 1197 
L 1141 1197 
L 716 0 
L 50 0 
L 1831 4666 
z
" transform="scale(0.015625)"/>
       <path id="DejaVuSans-29" d="M 513 4856 
L 1013 4856 
Q 1481 4119 1714 3412 
Q 1947 2706 1947 2009 
Q 1947 1309 1714 600 
Q 1481 -109 1013 -844 
L 513 -844 
Q 928 -128 1133 580 
Q 1338 1288 1338 2009 
Q 1338 2731 1133 3434 
Q 928 4138 513 4856 
z
" transform="scale(0.015625)"/>
       <path id="DejaVuSans-5d" d="M 1947 4863 
L 1947 -844 
L 622 -844 
L 622 -397 
L 1369 -397 
L 1369 4416 
L 622 4416 
L 622 4863 
L 1947 4863 
z
" transform="scale(0.015625)"/>
      </defs>
      <use xlink:href="#DejaVuSans-46"/>
      <use xlink:href="#DejaVuSans-6f" x="53.894531"/>
      <use xlink:href="#DejaVuSans-72" x="115.076172"/>
      <use xlink:href="#DejaVuSans-63" x="153.939453"/>
      <use xlink:href="#DejaVuSans-65" x="208.919922"/>
      <use xlink:href="#DejaVuSans-20" x="270.443359"/>
      <use xlink:href="#DejaVuSans-45" x="302.230469"/>
      <use xlink:href="#DejaVuSans-72" x="365.414062"/>
      <use xlink:href="#DejaVuSans-72" x="404.777344"/>
      <use xlink:href="#DejaVuSans-6f" x="443.640625"/>
      <use xlink:href="#DejaVuSans-72" x="504.822266"/>
      <use xlink:href="#DejaVuSans-73" x="545.935547"/>
      <use xlink:href="#DejaVuSans-20" x="598.035156"/>
      <use xlink:href="#DejaVuSans-5b" x="629.822266"/>
      <use xlink:href="#DejaVuSans-6b" x="668.835938"/>
      <use xlink:href="#DejaVuSans-4a" x="726.746094"/>
      <use xlink:href="#DejaVuSans-2f" x="756.238281"/>
      <use xlink:href="#DejaVuSans-28" x="789.929688"/>
      <use xlink:href="#DejaVuSans-6d" x="828.943359"/>
      <use xlink:href="#DejaVuSans-6f" x="926.355469"/>
      <use xlink:href="#DejaVuSans-6c" x="987.537109"/>
      <use xlink:href="#DejaVuSans-2a" x="1015.320312"/>
      <use xlink:href="#DejaVuSans-41" x="1065.320312"/>
      <use xlink:href="#DejaVuSans-29" x="1133.728516"/>
      <use xlink:href="#DejaVuSans-5d" x="1172.742188"/>
     </g>
    </g>
   </g>
   <g id="line2d_13">
    <path d="M 361.114618 331.738408 
L 669.351364 250.057209 
L 131.578636 392.564282 
L 194.548577 375.8776 
" clip-path="url(#p24c58a5ded)" style="fill: none; stroke: #ff0000; stroke-width: 1.5; stroke-linecap: square"/>
   </g>
   <g id="patch_3">
    <path d="M 104.69 499.48 
L 104.69 23.76 
" style="fill: none; stroke: #000000; stroke-width: 0.8; stroke-linejoin: miter; stroke-linecap: square"/>
   </g>
   <g id="patch_4">
    <path d="M 696.24 499.48 
L 696.24 23.76 
" style="fill: none; stroke: #000000; stroke-width: 0.8; stroke-linejoin: miter; stroke-linecap: square"/>
   </g>
   <g id="patch_5">
    <path d="M 104.69 499.48 
L 696.24 499.48 
" style="fill: none; stroke: #000000; stroke-width: 0.8; stroke-linejoin: miter; stroke-linecap: square"/>
   </g>
   <g id="patch_6">
    <path d="M 104.69 23.76 
L 696.24 23.76 
" style="fill: none; stroke: #000000; stroke-width: 0.8; stroke-linejoin: miter; stroke-linecap: square"/>
   </g>
   <g id="legend_1">
    <g id="patch_7">
     <path d="M 437.275937 488.48 
L 680.84 488.48 
Q 685.24 488.48 685.24 484.08 
L 685.24 421.69625 
Q 685.24 417.29625 680.84 417.29625 
L 437.275937 417.29625 
Q 432.875937 417.29625 432.875937 421.69625 
L 432.875937 484.08 
Q 432.875937 488.48 437.275937 488.48 
z
" style="fill: #ffffff; opacity: 0.8; stroke: #cccccc; stroke-linejoin: miter"/>
    </g>
    <g id="PathCollection_2">
     <g>
      <use xlink:href="#me788db2da7" x="463.675937" y="437.037812" style="fill: #1f77b4; stroke: #1f77b4"/>
     </g>
    </g>
    <g id="text_15">
     <!-- Data -->
     <g transform="translate(503.275937 442.812812) scale(0.22 -0.22)">
      <defs>
       <path id="DejaVuSans-44" d="M 1259 4147 
L 1259 519 
L 2022 519 
Q 2988 519 3436 956 
Q 3884 1394 3884 2338 
Q 3884 3275 3436 3711 
Q 2988 4147 2022 4147 
L 1259 4147 
z
M 628 4666 
L 1925 4666 
Q 3281 4666 3915 4102 
Q 4550 3538 4550 2338 
Q 4550 1131 3912 565 
Q 3275 0 1925 0 
L 628 0 
L 628 4666 
z
" transform="scale(0.015625)"/>
      </defs>
      <use xlink:href="#DejaVuSans-44"/>
      <use xlink:href="#DejaVuSans-61" x="77.001953"/>
      <use xlink:href="#DejaVuSans-74" x="138.28125"/>
      <use xlink:href="#DejaVuSans-61" x="177.490234"/>
     </g>
    </g>
    <g id="line2d_14">
     <path d="M 441.675937 467.404687 
L 463.675937 467.404687 
L 485.675937 467.404687 
" style="fill: none; stroke: #ff0000; stroke-width: 1.5; stroke-linecap: square"/>
    </g>
    <g id="text_16">
     <!-- Regression Line -->
     <g transform="translate(503.275937 475.104687) scale(0.22 -0.22)">
      <defs>
       <path id="DejaVuSans-52" d="M 2841 2188 
Q 3044 2119 3236 1894 
Q 3428 1669 3622 1275 
L 4263 0 
L 3584 0 
L 2988 1197 
Q 2756 1666 2539 1819 
Q 2322 1972 1947 1972 
L 1259 1972 
L 1259 0 
L 628 0 
L 628 4666 
L 2053 4666 
Q 2853 4666 3247 4331 
Q 3641 3997 3641 3322 
Q 3641 2881 3436 2590 
Q 3231 2300 2841 2188 
z
M 1259 4147 
L 1259 2491 
L 2053 2491 
Q 2509 2491 2742 2702 
Q 2975 2913 2975 3322 
Q 2975 3731 2742 3939 
Q 2509 4147 2053 4147 
L 1259 4147 
z
" transform="scale(0.015625)"/>
       <path id="DejaVuSans-67" d="M 2906 1791 
Q 2906 2416 2648 2759 
Q 2391 3103 1925 3103 
Q 1463 3103 1205 2759 
Q 947 2416 947 1791 
Q 947 1169 1205 825 
Q 1463 481 1925 481 
Q 2391 481 2648 825 
Q 2906 1169 2906 1791 
z
M 3481 434 
Q 3481 -459 3084 -895 
Q 2688 -1331 1869 -1331 
Q 1566 -1331 1297 -1286 
Q 1028 -1241 775 -1147 
L 775 -588 
Q 1028 -725 1275 -790 
Q 1522 -856 1778 -856 
Q 2344 -856 2625 -561 
Q 2906 -266 2906 331 
L 2906 616 
Q 2728 306 2450 153 
Q 2172 0 1784 0 
Q 1141 0 747 490 
Q 353 981 353 1791 
Q 353 2603 747 3093 
Q 1141 3584 1784 3584 
Q 2172 3584 2450 3431 
Q 2728 3278 2906 2969 
L 2906 3500 
L 3481 3500 
L 3481 434 
z
" transform="scale(0.015625)"/>
       <path id="DejaVuSans-4c" d="M 628 4666 
L 1259 4666 
L 1259 531 
L 3531 531 
L 3531 0 
L 628 0 
L 628 4666 
z
" transform="scale(0.015625)"/>
      </defs>
      <use xlink:href="#DejaVuSans-52"/>
      <use xlink:href="#DejaVuSans-65" x="64.982422"/>
      <use xlink:href="#DejaVuSans-67" x="126.505859"/>
      <use xlink:href="#DejaVuSans-72" x="189.982422"/>
      <use xlink:href="#DejaVuSans-65" x="228.845703"/>
      <use xlink:href="#DejaVuSans-73" x="290.369141"/>
      <use xlink:href="#DejaVuSans-73" x="342.46875"/>
      <use xlink:href="#DejaVuSans-69" x="394.568359"/>
      <use xlink:href="#DejaVuSans-6f" x="422.351562"/>
      <use xlink:href="#DejaVuSans-6e" x="483.533203"/>
      <use xlink:href="#DejaVuSans-20" x="546.912109"/>
      <use xlink:href="#DejaVuSans-4c" x="578.699219"/>
      <use xlink:href="#DejaVuSans-69" x="634.412109"/>
      <use xlink:href="#DejaVuSans-6e" x="662.195312"/>
      <use xlink:href="#DejaVuSans-65" x="725.574219"/>
     </g>
    </g>
   </g>
  </g>
 </g>
 <defs>
  <clipPath id="p24c58a5ded">
   <rect x="104.69" y="23.76" width="591.55" height="475.72"/>
  </clipPath>
 </defs>
</svg>
