<?xml version="1.0" encoding="utf-8" standalone="no"?>
<!DOCTYPE svg PUBLIC "-//W3C//DTD SVG 1.1//EN"
  "http://www.w3.org/Graphics/SVG/1.1/DTD/svg11.dtd">
<svg xmlns:xlink="http://www.w3.org/1999/xlink" width="720pt" height="576pt" viewBox="0 0 720 576" xmlns="http://www.w3.org/2000/svg" version="1.1">
 <metadata>
  <rdf:RDF xmlns:dc="http://purl.org/dc/elements/1.1/" xmlns:cc="http://creativecommons.org/ns#" xmlns:rdf="http://www.w3.org/1999/02/22-rdf-syntax-ns#">
   <cc:Work>
    <dc:type rdf:resource="http://purl.org/dc/dcmitype/StillImage"/>
    <dc:date>2024-12-08T14:45:43.804320</dc:date>
    <dc:format>image/svg+xml</dc:format>
    <dc:creator>
     <cc:Agent>
      <dc:title>Matplotlib v3.8.4, https://matplotlib.org/</dc:title>
     </cc:Agent>
    </dc:creator>
   </cc:Work>
  </rdf:RDF>
 </metadata>
 <defs>
  <style type="text/css">*{stroke-linejoin: round; stroke-linecap: butt}</style>
 </defs>
 <g id="figure_1">
  <g id="patch_1">
   <path d="M 0 576 
L 720 576 
L 720 0 
L 0 0 
z
" style="fill: #ffffff"/>
  </g>
  <g id="axes_1">
   <g id="patch_2">
    <path d="M 83.72 499.48 
L 696.24 499.48 
L 696.24 23.76 
L 83.72 23.76 
z
" style="fill: #ffffff"/>
   </g>
   <g id="QuadContourSet_1">
    <path d="M 88.41168 484.805357 
L 90.03933 485.045577 
L 91.666979 485.03553 
L 93.294628 484.832831 
L 94.776308 484.455824 
L 94.922277 484.422058 
L 96.549926 483.880524 
L 96.689004 483.825259 
L 98.177575 483.201186 
L 98.192493 483.194694 
L 99.582822 482.56413 
L 99.805224 482.450615 
L 100.944524 481.933565 
L 101.432874 481.676056 
L 102.370513 481.303 
L 103.060523 480.984519 
L 104.154258 480.672435 
L 104.688172 480.50283 
L 106.315821 480.254824 
L 107.908668 480.041871 
L 107.94347 480.037335 
L 109.571119 479.645322 
L 110.141274 479.411306 
L 111.198768 478.944678 
L 111.487591 478.780741 
L 112.480685 478.150176 
L 112.826418 477.904041 
L 113.381166 477.519612 
L 114.199532 476.889047 
L 114.454067 476.689285 
L 115.228414 476.258482 
L 116.081716 475.776146 
L 116.728789 475.627917 
L 117.709365 475.395065 
L 119.307546 475.627917 
L 119.337014 475.634377 
L 120.281613 476.258482 
L 120.964663 476.889047 
L 120.964663 476.889047 
L 121.720309 477.519612 
L 122.592312 478.065714 
L 123.230437 478.150176 
L 124.219962 478.244951 
L 124.695923 478.150176 
L 125.847611 477.929275 
L 127.014576 477.519612 
L 127.47526 477.349079 
L 128.456685 476.889047 
L 129.102909 476.542937 
L 129.593447 476.258482 
L 130.495812 475.627917 
L 130.730558 475.42087 
L 131.222603 474.997353 
L 131.770446 474.366788 
L 132.144513 473.736223 
L 132.325586 473.105658 
L 132.278708 472.475094 
L 131.965422 471.844529 
L 131.355582 471.213964 
L 130.730558 470.763255 
L 130.549599 470.583399 
L 129.941417 469.952835 
L 129.402113 469.32227 
L 129.102909 468.86127 
L 129.038894 468.691705 
L 128.92633 468.06114 
L 128.938383 467.430576 
L 129.050142 466.800011 
L 129.102909 466.609574 
L 129.361557 466.169446 
L 129.732257 465.538882 
L 129.972412 464.908317 
L 130.018335 464.277752 
L 129.852811 463.647187 
L 129.474149 463.016623 
L 129.102909 462.624504 
L 128.950332 462.386058 
L 128.34813 461.755493 
L 127.502831 461.124928 
L 127.47526 461.107208 
L 126.348629 460.494364 
L 125.847611 460.262523 
L 124.688572 459.863799 
L 124.219962 459.705907 
L 122.592312 459.274577 
L 122.392703 459.233234 
L 120.964663 458.905253 
L 119.337014 458.613695 
L 119.278162 458.602669 
L 117.709365 458.309761 
L 116.304168 457.972105 
L 116.081716 457.9203 
L 114.603478 457.34154 
L 114.454067 457.28187 
L 113.761576 456.710975 
L 113.043145 456.08041 
L 112.826418 455.864406 
L 112.63135 455.449846 
L 112.381093 454.819281 
L 112.181672 454.188716 
L 112.039933 453.558151 
L 111.954455 452.927587 
L 111.912106 452.297022 
L 111.890208 451.666457 
L 111.863063 451.035892 
L 111.808534 450.405328 
L 111.711752 449.774763 
L 111.566126 449.144198 
L 111.373172 448.513634 
L 111.198768 448.035737 
L 111.167875 447.883069 
L 111.03126 447.252504 
L 110.897273 446.621939 
L 110.77791 445.991375 
L 110.681857 445.36081 
L 110.612801 444.730245 
L 110.568522 444.09968 
L 110.540963 443.469116 
L 110.517355 442.838551 
L 110.48212 442.207986 
L 110.418925 441.577421 
L 110.31219 440.946857 
L 110.147747 440.316292 
L 109.912821 439.685727 
L 109.595954 439.055162 
L 109.571119 439.012753 
L 109.329188 438.424598 
L 109.014768 437.794033 
L 108.650767 437.163468 
L 108.248957 436.532903 
L 107.94347 436.068773 
L 107.856388 435.902339 
L 107.538206 435.271774 
L 107.202786 434.641209 
L 106.8374 434.010644 
L 106.425364 433.38008 
L 106.315821 433.219144 
L 106.010769 432.749515 
L 105.57505 432.11895 
L 105.12927 431.488386 
L 104.714927 430.857821 
L 104.688172 430.806745 
L 104.426881 430.227256 
L 104.217786 429.596691 
L 104.065043 428.966127 
L 103.939422 428.335562 
L 103.80983 427.704997 
L 103.650481 427.074432 
L 103.445095 426.443868 
L 103.188127 425.813303 
L 103.060523 425.544365 
L 102.880127 425.182738 
L 102.53208 424.552173 
L 102.153744 423.921609 
L 101.74157 423.291044 
L 101.432874 422.860977 
L 101.2062 422.660479 
L 100.384093 422.029914 
L 99.805224 421.662153 
L 98.177575 421.457804 
L 96.549926 421.80685 
L 95.994397 422.029914 
L 94.922277 422.506317 
L 94.661127 422.660479 
L 93.706784 423.291044 
L 93.294628 423.58754 
L 92.933737 423.921609 
L 92.276136 424.552173 
L 91.666979 425.154845 
L 91.643735 425.182738 
L 91.092374 425.813303 
L 90.560921 426.443868 
L 90.04891 427.074432 
L 90.03933 427.08569 
L 89.571332 427.704997 
L 89.131209 428.335562 
L 88.729502 428.966127 
L 88.41168 429.513527 
L 88.361173 429.596691 
L 87.992256 430.227256 
L 87.675707 430.857821 
L 87.407681 431.488386 
L 87.18196 432.11895 
L 86.990513 432.749515 
L 86.824594 433.38008 
L 86.784031 433.54096 
L 86.619748 434.010644 
L 86.408299 434.641209 
L 86.208048 435.271774 
L 86.020043 435.902339 
L 85.84731 436.532903 
L 85.692856 437.163468 
L 85.558239 437.794033 
L 85.442894 438.424598 
L 85.344026 439.055162 
L 85.256909 439.685727 
L 85.175527 440.316292 
L 85.156382 440.457502 
L 85.036072 440.946857 
L 84.869921 441.577421 
L 84.690635 442.207986 
L 84.499955 442.838551 
L 84.304338 443.469116 
L 84.112264 444.09968 
L 83.931477 444.730245 
L 83.767298 445.36081 
L 83.622225 445.991375 
L 83.528733 446.447815 
L 83.458442 446.621939 
L 83.224687 447.252504 
L 83.024457 447.883069 
L 82.850667 448.513634 
L 82.697256 449.144198 
L 82.559508 449.774763 
L 82.434085 450.405328 
L 82.318855 451.035892 
L 82.212582 451.666457 
L 82.114592 452.297022 
L 82.024469 452.927587 
L 81.94186 453.558151 
L 81.901084 453.886171 
L 81.810349 454.188716 
L 81.630986 454.819281 
L 81.468292 455.449846 
L 81.321045 456.08041 
L 81.188518 456.710975 
L 81.070421 457.34154 
L 80.966645 457.972105 
L 80.876946 458.602669 
L 80.80068 459.233234 
L 80.736669 459.863799 
L 80.683226 460.494364 
L 80.638343 461.124928 
L 80.599994 461.755493 
L 80.566468 462.386058 
L 80.536644 463.016623 
L 80.510088 463.647187 
L 80.486978 464.277752 
L 80.467897 464.908317 
L 80.453599 465.538882 
L 80.444828 466.169446 
L 80.44221 466.800011 
L 80.446209 467.430576 
L 80.45713 468.06114 
L 80.475144 468.691705 
L 80.500339 469.32227 
L 80.532815 469.952835 
L 80.572816 470.583399 
L 80.620905 471.213964 
L 80.678136 471.844529 
L 80.746179 472.475094 
L 80.827348 473.105658 
L 80.924536 473.736223 
L 81.041064 474.366788 
L 81.180534 474.997353 
L 81.3468 475.627917 
L 81.54424 476.258482 
L 81.778503 476.889047 
L 81.901084 477.184783 
L 81.965574 477.519612 
L 82.106079 478.150176 
L 82.281734 478.780741 
L 82.506089 479.411306 
L 82.798732 480.041871 
L 83.187663 480.672435 
L 83.528733 481.110785 
L 83.629498 481.303 
L 84.026728 481.933565 
L 84.58463 482.56413 
L 85.156382 483.051026 
L 85.317533 483.194694 
L 86.162593 483.825259 
L 86.784031 484.184815 
L 87.454455 484.455824 
z
M 89.827448 480.672435 
L 88.41168 480.108149 
L 88.31273 480.041871 
L 87.467696 479.411306 
L 86.840377 478.780741 
L 86.784031 478.71674 
L 86.306729 478.150176 
L 85.881413 477.519612 
L 85.542212 476.889047 
L 85.268555 476.258482 
L 85.156382 475.960895 
L 84.984819 475.627917 
L 84.699615 474.997353 
L 84.464009 474.366788 
L 84.269829 473.736223 
L 84.110065 473.105658 
L 83.978602 472.475094 
L 83.870187 471.844529 
L 83.780492 471.213964 
L 83.706174 470.583399 
L 83.64487 469.952835 
L 83.5951 469.32227 
L 83.556094 468.691705 
L 83.528733 468.087741 
L 83.526305 468.06114 
L 83.488699 467.430576 
L 83.472503 466.800011 
L 83.477658 466.169446 
L 83.503717 465.538882 
L 83.528733 465.19302 
L 83.538658 464.908317 
L 83.568933 464.277752 
L 83.606622 463.647187 
L 83.650703 463.016623 
L 83.700424 462.386058 
L 83.755589 461.755493 
L 83.816776 461.124928 
L 83.8854 460.494364 
L 83.963563 459.863799 
L 84.053751 459.233234 
L 84.158438 458.602669 
L 84.279718 457.972105 
L 84.419028 457.34154 
L 84.577047 456.710975 
L 84.753797 456.08041 
L 84.948988 455.449846 
L 85.156382 454.836051 
L 85.159872 454.819281 
L 85.292123 454.188716 
L 85.435862 453.558151 
L 85.592551 452.927587 
L 85.764115 452.297022 
L 85.952751 451.666457 
L 86.160747 451.035892 
L 86.39041 450.405328 
L 86.644166 449.774763 
L 86.784031 449.446613 
L 86.883338 449.144198 
L 87.102371 448.513634 
L 87.345129 447.883069 
L 87.614682 447.252504 
L 87.913908 446.621939 
L 88.244611 445.991375 
L 88.41168 445.686455 
L 88.579517 445.36081 
L 88.912252 444.730245 
L 89.258603 444.09968 
L 89.609633 443.469116 
L 89.955566 442.838551 
L 90.03933 442.67236 
L 90.310092 442.207986 
L 90.659071 441.577421 
L 90.999344 440.946857 
L 91.340352 440.316292 
L 91.666979 439.73546 
L 91.715735 439.685727 
L 92.372717 439.055162 
L 93.135519 438.424598 
L 93.294628 438.304434 
L 94.922277 438.121137 
L 95.973838 438.424598 
L 96.549926 438.574053 
L 97.786064 439.055162 
L 98.177575 439.189385 
L 99.385401 439.685727 
L 99.805224 439.849411 
L 100.672418 440.316292 
L 101.432874 440.757104 
L 101.665825 440.946857 
L 102.357529 441.577421 
L 102.913984 442.207986 
L 103.060523 442.405686 
L 103.324186 442.838551 
L 103.640921 443.469116 
L 103.896719 444.09968 
L 104.107057 444.730245 
L 104.284016 445.36081 
L 104.436215 445.991375 
L 104.569516 446.621939 
L 104.688172 447.252504 
L 104.688172 447.252504 
L 104.818056 447.883069 
L 104.942987 448.513634 
L 105.06713 449.144198 
L 105.193881 449.774763 
L 105.324707 450.405328 
L 105.458617 451.035892 
L 105.592718 451.666457 
L 105.723607 452.297022 
L 105.84876 452.927587 
L 105.967234 453.558151 
L 106.079508 454.188716 
L 106.186718 454.819281 
L 106.289681 455.449846 
L 106.315821 455.613464 
L 106.42473 456.08041 
L 106.563991 456.710975 
L 106.68922 457.34154 
L 106.794767 457.972105 
L 106.875794 458.602669 
L 106.929331 459.233234 
L 106.954776 459.863799 
L 106.953859 460.494364 
L 106.930273 461.124928 
L 106.889176 461.755493 
L 106.836644 462.386058 
L 106.779028 463.016623 
L 106.72208 463.647187 
L 106.669813 464.277752 
L 106.623312 464.908317 
L 106.57998 465.538882 
L 106.533559 466.169446 
L 106.474809 466.800011 
L 106.39232 467.430576 
L 106.315821 467.841306 
L 106.289073 468.06114 
L 106.181049 468.691705 
L 106.027806 469.32227 
L 105.817 469.952835 
L 105.534853 470.583399 
L 105.165679 471.213964 
L 104.690678 471.844529 
L 104.688172 471.847469 
L 104.319723 472.475094 
L 103.862555 473.105658 
L 103.295918 473.736223 
L 103.060523 473.966023 
L 102.769143 474.366788 
L 102.227619 474.997353 
L 101.549194 475.627917 
L 101.432874 475.726488 
L 100.943537 476.258482 
L 100.228461 476.889047 
L 99.805224 477.210835 
L 99.452756 477.519612 
L 98.613152 478.150176 
L 98.177575 478.435253 
L 97.664223 478.780741 
L 96.554864 479.411306 
L 96.549926 479.413974 
L 95.23922 480.041871 
L 94.922277 480.180735 
L 93.317629 480.672435 
L 93.294628 480.679505 
L 91.666979 480.904805 
L 90.03933 480.748323 
z
" clip-path="url(#pf0090998c0)" style="fill: #e9e9f3"/>
    <path d="M 90.03933 480.748323 
L 91.666979 480.904805 
L 93.294628 480.679505 
L 93.317629 480.672435 
L 94.922277 480.180735 
L 95.23922 480.041871 
L 96.549926 479.413974 
L 96.554864 479.411306 
L 97.664223 478.780741 
L 98.177575 478.435253 
L 98.613152 478.150176 
L 99.452756 477.519612 
L 99.805224 477.210835 
L 100.228461 476.889047 
L 100.943537 476.258482 
L 101.432874 475.726488 
L 101.549194 475.627917 
L 102.227619 474.997353 
L 102.769143 474.366788 
L 103.060523 473.966023 
L 103.295918 473.736223 
L 103.862555 473.105658 
L 104.319723 472.475094 
L 104.688172 471.847469 
L 104.690678 471.844529 
L 105.165679 471.213964 
L 105.534853 470.583399 
L 105.817 469.952835 
L 106.027806 469.32227 
L 106.181049 468.691705 
L 106.289073 468.06114 
L 106.315821 467.841306 
L 106.39232 467.430576 
L 106.474809 466.800011 
L 106.533559 466.169446 
L 106.57998 465.538882 
L 106.623312 464.908317 
L 106.669813 464.277752 
L 106.72208 463.647187 
L 106.779028 463.016623 
L 106.836644 462.386058 
L 106.889176 461.755493 
L 106.930273 461.124928 
L 106.953859 460.494364 
L 106.954776 459.863799 
L 106.929331 459.233234 
L 106.875794 458.602669 
L 106.794767 457.972105 
L 106.68922 457.34154 
L 106.563991 456.710975 
L 106.42473 456.08041 
L 106.315821 455.613464 
L 106.289681 455.449846 
L 106.186718 454.819281 
L 106.079508 454.188716 
L 105.967234 453.558151 
L 105.84876 452.927587 
L 105.723607 452.297022 
L 105.592718 451.666457 
L 105.458617 451.035892 
L 105.324707 450.405328 
L 105.193881 449.774763 
L 105.06713 449.144198 
L 104.942987 448.513634 
L 104.818056 447.883069 
L 104.688172 447.252504 
L 104.688172 447.252504 
L 104.569516 446.621939 
L 104.436215 445.991375 
L 104.284016 445.36081 
L 104.107057 444.730245 
L 103.896719 444.09968 
L 103.640921 443.469116 
L 103.324186 442.838551 
L 103.060523 442.405686 
L 102.913984 442.207986 
L 102.357529 441.577421 
L 101.665825 440.946857 
L 101.432874 440.757104 
L 100.672418 440.316292 
L 99.805224 439.849411 
L 99.385401 439.685727 
L 98.177575 439.189385 
L 97.786064 439.055162 
L 96.549926 438.574053 
L 95.973838 438.424598 
L 94.922277 438.121137 
L 93.294628 438.304434 
L 93.135519 438.424598 
L 92.372717 439.055162 
L 91.715735 439.685727 
L 91.666979 439.73546 
L 91.340352 440.316292 
L 90.999344 440.946857 
L 90.659071 441.577421 
L 90.310092 442.207986 
L 90.03933 442.67236 
L 89.955566 442.838551 
L 89.609633 443.469116 
L 89.258603 444.09968 
L 88.912252 444.730245 
L 88.579517 445.36081 
L 88.41168 445.686455 
L 88.244611 445.991375 
L 87.913908 446.621939 
L 87.614682 447.252504 
L 87.345129 447.883069 
L 87.102371 448.513634 
L 86.883338 449.144198 
L 86.784031 449.446613 
L 86.644166 449.774763 
L 86.39041 450.405328 
L 86.160747 451.035892 
L 85.952751 451.666457 
L 85.764115 452.297022 
L 85.592551 452.927587 
L 85.435862 453.558151 
L 85.292123 454.188716 
L 85.159872 454.819281 
L 85.156382 454.836051 
L 84.948988 455.449846 
L 84.753797 456.08041 
L 84.577047 456.710975 
L 84.419028 457.34154 
L 84.279718 457.972105 
L 84.158438 458.602669 
L 84.053751 459.233234 
L 83.963563 459.863799 
L 83.8854 460.494364 
L 83.816776 461.124928 
L 83.755589 461.755493 
L 83.700424 462.386058 
L 83.650703 463.016623 
L 83.606622 463.647187 
L 83.568933 464.277752 
L 83.538658 464.908317 
L 83.528733 465.19302 
L 83.503717 465.538882 
L 83.477658 466.169446 
L 83.472503 466.800011 
L 83.488699 467.430576 
L 83.526305 468.06114 
L 83.528733 468.087741 
L 83.556094 468.691705 
L 83.5951 469.32227 
L 83.64487 469.952835 
L 83.706174 470.583399 
L 83.780492 471.213964 
L 83.870187 471.844529 
L 83.978602 472.475094 
L 84.110065 473.105658 
L 84.269829 473.736223 
L 84.464009 474.366788 
L 84.699615 474.997353 
L 84.984819 475.627917 
L 85.156382 475.960895 
L 85.268555 476.258482 
L 85.542212 476.889047 
L 85.881413 477.519612 
L 86.306729 478.150176 
L 86.784031 478.71674 
L 86.840377 478.780741 
L 87.467696 479.411306 
L 88.31273 480.041871 
L 88.41168 480.108149 
L 89.827448 480.672435 
z
M 89.830835 478.150176 
L 88.767653 477.519612 
L 88.41168 477.268271 
L 88.030637 476.889047 
L 87.492528 476.258482 
L 87.061292 475.627917 
L 86.784031 475.138249 
L 86.699291 474.997353 
L 86.357529 474.366788 
L 86.077719 473.736223 
L 85.848846 473.105658 
L 85.661633 472.475094 
L 85.508259 471.844529 
L 85.382281 471.213964 
L 85.278614 470.583399 
L 85.193505 469.952835 
L 85.156382 469.620723 
L 85.104351 469.32227 
L 85.015208 468.691705 
L 84.948216 468.06114 
L 84.903045 467.430576 
L 84.879666 466.800011 
L 84.878002 466.169446 
L 84.897667 465.538882 
L 84.937797 464.908317 
L 84.996997 464.277752 
L 85.073457 463.647187 
L 85.156382 463.075811 
L 85.161572 463.016623 
L 85.222995 462.386058 
L 85.291525 461.755493 
L 85.367775 461.124928 
L 85.453349 460.494364 
L 85.55069 459.863799 
L 85.66273 459.233234 
L 85.792439 458.602669 
L 85.942368 457.972105 
L 86.114295 457.34154 
L 86.309053 456.710975 
L 86.526613 456.08041 
L 86.766471 455.449846 
L 86.784031 455.404368 
L 86.957397 454.819281 
L 87.158744 454.188716 
L 87.377091 453.558151 
L 87.614953 452.927587 
L 87.87565 452.297022 
L 88.162921 451.666457 
L 88.41168 451.163899 
L 88.473461 451.035892 
L 88.788088 450.405328 
L 89.134116 449.774763 
L 89.513456 449.144198 
L 89.92829 448.513634 
L 90.03933 448.349152 
L 90.426679 447.883069 
L 90.975432 447.252504 
L 91.560754 446.621939 
L 91.666979 446.508116 
L 92.411456 445.991375 
L 93.294628 445.3877 
L 93.382862 445.36081 
L 94.922277 444.864654 
L 96.549926 444.860298 
L 98.136396 445.36081 
L 98.177575 445.375673 
L 99.031002 445.991375 
L 99.719043 446.621939 
L 99.805224 446.712028 
L 100.182247 447.252504 
L 100.564379 447.883069 
L 100.90098 448.513634 
L 101.206461 449.144198 
L 101.432874 449.635611 
L 101.492993 449.774763 
L 101.776353 450.405328 
L 102.056716 451.035892 
L 102.330268 451.666457 
L 102.59076 452.297022 
L 102.831742 452.927587 
L 103.048519 453.558151 
L 103.060523 453.595597 
L 103.271373 454.188716 
L 103.468795 454.819281 
L 103.64149 455.449846 
L 103.79249 456.08041 
L 103.923864 456.710975 
L 104.036142 457.34154 
L 104.128377 457.972105 
L 104.198722 458.602669 
L 104.245261 459.233234 
L 104.266801 459.863799 
L 104.26341 460.494364 
L 104.236606 461.124928 
L 104.189209 461.755493 
L 104.124944 462.386058 
L 104.047865 463.016623 
L 103.961658 463.647187 
L 103.86887 464.277752 
L 103.770197 464.908317 
L 103.663958 465.538882 
L 103.54592 466.169446 
L 103.409506 466.800011 
L 103.246273 467.430576 
L 103.060523 468.019165 
L 103.050957 468.06114 
L 102.884035 468.691705 
L 102.680311 469.32227 
L 102.432892 469.952835 
L 102.134248 470.583399 
L 101.775217 471.213964 
L 101.432874 471.722717 
L 101.370744 471.844529 
L 101.011413 472.475094 
L 100.580681 473.105658 
L 100.058793 473.736223 
L 99.805224 474.004819 
L 99.516667 474.366788 
L 98.931053 474.997353 
L 98.208568 475.627917 
L 98.177575 475.653126 
L 97.46337 476.258482 
L 96.549926 476.889047 
L 96.549926 476.889047 
L 95.468644 477.519612 
L 94.922277 477.804246 
L 93.944346 478.150176 
L 93.294628 478.376881 
L 91.666979 478.564565 
L 90.03933 478.25988 
z
" clip-path="url(#pf0090998c0)" style="fill: #d5d5f4"/>
    <path d="M 90.03933 478.25988 
L 91.666979 478.564565 
L 93.294628 478.376881 
L 93.944346 478.150176 
L 94.922277 477.804246 
L 95.468644 477.519612 
L 96.549926 476.889047 
L 96.549926 476.889047 
L 97.46337 476.258482 
L 98.177575 475.653126 
L 98.208568 475.627917 
L 98.931053 474.997353 
L 99.516667 474.366788 
L 99.805224 474.004819 
L 100.058793 473.736223 
L 100.580681 473.105658 
L 101.011413 472.475094 
L 101.370744 471.844529 
L 101.432874 471.722717 
L 101.775217 471.213964 
L 102.134248 470.583399 
L 102.432892 469.952835 
L 102.680311 469.32227 
L 102.884035 468.691705 
L 103.050957 468.06114 
L 103.060523 468.019165 
L 103.246273 467.430576 
L 103.409506 466.800011 
L 103.54592 466.169446 
L 103.663958 465.538882 
L 103.770197 464.908317 
L 103.86887 464.277752 
L 103.961658 463.647187 
L 104.047865 463.016623 
L 104.124944 462.386058 
L 104.189209 461.755493 
L 104.236606 461.124928 
L 104.26341 460.494364 
L 104.266801 459.863799 
L 104.245261 459.233234 
L 104.198722 458.602669 
L 104.128377 457.972105 
L 104.036142 457.34154 
L 103.923864 456.710975 
L 103.79249 456.08041 
L 103.64149 455.449846 
L 103.468795 454.819281 
L 103.271373 454.188716 
L 103.060523 453.595597 
L 103.048519 453.558151 
L 102.831742 452.927587 
L 102.59076 452.297022 
L 102.330268 451.666457 
L 102.056716 451.035892 
L 101.776353 450.405328 
L 101.492993 449.774763 
L 101.432874 449.635611 
L 101.206461 449.144198 
L 100.90098 448.513634 
L 100.564379 447.883069 
L 100.182247 447.252504 
L 99.805224 446.712028 
L 99.719043 446.621939 
L 99.031002 445.991375 
L 98.177575 445.375673 
L 98.136396 445.36081 
L 96.549926 444.860298 
L 94.922277 444.864654 
L 93.382862 445.36081 
L 93.294628 445.3877 
L 92.411456 445.991375 
L 91.666979 446.508116 
L 91.560754 446.621939 
L 90.975432 447.252504 
L 90.426679 447.883069 
L 90.03933 448.349152 
L 89.92829 448.513634 
L 89.513456 449.144198 
L 89.134116 449.774763 
L 88.788088 450.405328 
L 88.473461 451.035892 
L 88.41168 451.163899 
L 88.162921 451.666457 
L 87.87565 452.297022 
L 87.614953 452.927587 
L 87.377091 453.558151 
L 87.158744 454.188716 
L 86.957397 454.819281 
L 86.784031 455.404368 
L 86.766471 455.449846 
L 86.526613 456.08041 
L 86.309053 456.710975 
L 86.114295 457.34154 
L 85.942368 457.972105 
L 85.792439 458.602669 
L 85.66273 459.233234 
L 85.55069 459.863799 
L 85.453349 460.494364 
L 85.367775 461.124928 
L 85.291525 461.755493 
L 85.222995 462.386058 
L 85.161572 463.016623 
L 85.156382 463.075811 
L 85.073457 463.647187 
L 84.996997 464.277752 
L 84.937797 464.908317 
L 84.897667 465.538882 
L 84.878002 466.169446 
L 84.879666 466.800011 
L 84.903045 467.430576 
L 84.948216 468.06114 
L 85.015208 468.691705 
L 85.104351 469.32227 
L 85.156382 469.620723 
L 85.193505 469.952835 
L 85.278614 470.583399 
L 85.382281 471.213964 
L 85.508259 471.844529 
L 85.661633 472.475094 
L 85.848846 473.105658 
L 86.077719 473.736223 
L 86.357529 474.366788 
L 86.699291 474.997353 
L 86.784031 475.138249 
L 87.061292 475.627917 
L 87.492528 476.258482 
L 88.030637 476.889047 
L 88.41168 477.268271 
L 88.767653 477.519612 
L 89.830835 478.150176 
z
M 89.959091 476.258482 
L 89.109219 475.627917 
L 88.438144 474.997353 
L 88.41168 474.969641 
L 87.961833 474.366788 
L 87.577953 473.736223 
L 87.266397 473.105658 
L 87.013427 472.475094 
L 86.807753 471.844529 
L 86.784031 471.760532 
L 86.604296 471.213964 
L 86.431978 470.583399 
L 86.29032 469.952835 
L 86.174902 469.32227 
L 86.0829 468.691705 
L 86.012741 468.06114 
L 85.963697 467.430576 
L 85.935462 466.800011 
L 85.92778 466.169446 
L 85.94015 465.538882 
L 85.971658 464.908317 
L 86.020938 464.277752 
L 86.086302 463.647187 
L 86.166041 463.016623 
L 86.258864 462.386058 
L 86.364401 461.755493 
L 86.483586 461.124928 
L 86.618812 460.494364 
L 86.773741 459.863799 
L 86.784031 459.825702 
L 86.906156 459.233234 
L 87.05552 458.602669 
L 87.227411 457.972105 
L 87.423732 457.34154 
L 87.645372 456.710975 
L 87.892326 456.08041 
L 88.164135 455.449846 
L 88.41168 454.9168 
L 88.455961 454.819281 
L 88.746529 454.188716 
L 89.060992 453.558151 
L 89.403361 452.927587 
L 89.778526 452.297022 
L 90.03933 451.887247 
L 90.220049 451.666457 
L 90.757936 451.035892 
L 91.344365 450.405328 
L 91.666979 450.072761 
L 92.191695 449.774763 
L 93.294628 449.146202 
L 93.309457 449.144198 
L 94.922277 448.896162 
L 95.965116 449.144198 
L 96.549926 449.290426 
L 97.32062 449.774763 
L 98.177575 450.390514 
L 98.191667 450.405328 
L 98.78659 451.035892 
L 99.321362 451.666457 
L 99.800217 452.297022 
L 99.805224 452.303863 
L 100.213892 452.927587 
L 100.581979 453.558151 
L 100.903558 454.188716 
L 101.17996 454.819281 
L 101.414597 455.449846 
L 101.432874 455.505417 
L 101.63126 456.08041 
L 101.816843 456.710975 
L 101.972879 457.34154 
L 102.101169 457.972105 
L 102.202184 458.602669 
L 102.275645 459.233234 
L 102.321234 459.863799 
L 102.339212 460.494364 
L 102.330808 461.124928 
L 102.298281 461.755493 
L 102.244683 462.386058 
L 102.173348 463.016623 
L 102.087214 463.647187 
L 101.988095 464.277752 
L 101.876083 464.908317 
L 101.749194 465.538882 
L 101.603379 466.169446 
L 101.432874 466.800011 
L 101.432874 466.800011 
L 101.283778 467.430576 
L 101.10903 468.06114 
L 100.903349 468.691705 
L 100.661364 469.32227 
L 100.377207 469.952835 
L 100.043717 470.583399 
L 99.805224 470.977067 
L 99.686899 471.213964 
L 99.331718 471.844529 
L 98.910582 472.475094 
L 98.406003 473.105658 
L 98.177575 473.356722 
L 97.852702 473.736223 
L 97.224054 474.366788 
L 96.549926 474.929809 
L 96.459069 474.997353 
L 95.535007 475.627917 
L 94.922277 475.99448 
L 94.25033 476.258482 
L 93.294628 476.620207 
L 91.666979 476.768052 
L 90.03933 476.312676 
z
" clip-path="url(#pf0090998c0)" style="fill: #bdbdf5"/>
    <path d="M 90.03933 476.312676 
L 91.666979 476.768052 
L 93.294628 476.620207 
L 94.25033 476.258482 
L 94.922277 475.99448 
L 95.535007 475.627917 
L 96.459069 474.997353 
L 96.549926 474.929809 
L 97.224054 474.366788 
L 97.852702 473.736223 
L 98.177575 473.356722 
L 98.406003 473.105658 
L 98.910582 472.475094 
L 99.331718 471.844529 
L 99.686899 471.213964 
L 99.805224 470.977067 
L 100.043717 470.583399 
L 100.377207 469.952835 
L 100.661364 469.32227 
L 100.903349 468.691705 
L 101.10903 468.06114 
L 101.283778 467.430576 
L 101.432874 466.800011 
L 101.432874 466.800011 
L 101.603379 466.169446 
L 101.749194 465.538882 
L 101.876083 464.908317 
L 101.988095 464.277752 
L 102.087214 463.647187 
L 102.173348 463.016623 
L 102.244683 462.386058 
L 102.298281 461.755493 
L 102.330808 461.124928 
L 102.339212 460.494364 
L 102.321234 459.863799 
L 102.275645 459.233234 
L 102.202184 458.602669 
L 102.101169 457.972105 
L 101.972879 457.34154 
L 101.816843 456.710975 
L 101.63126 456.08041 
L 101.432874 455.505417 
L 101.414597 455.449846 
L 101.17996 454.819281 
L 100.903558 454.188716 
L 100.581979 453.558151 
L 100.213892 452.927587 
L 99.805224 452.303863 
L 99.800217 452.297022 
L 99.321362 451.666457 
L 98.78659 451.035892 
L 98.191667 450.405328 
L 98.177575 450.390514 
L 97.32062 449.774763 
L 96.549926 449.290426 
L 95.965116 449.144198 
L 94.922277 448.896162 
L 93.309457 449.144198 
L 93.294628 449.146202 
L 92.191695 449.774763 
L 91.666979 450.072761 
L 91.344365 450.405328 
L 90.757936 451.035892 
L 90.220049 451.666457 
L 90.03933 451.887247 
L 89.778526 452.297022 
L 89.403361 452.927587 
L 89.060992 453.558151 
L 88.746529 454.188716 
L 88.455961 454.819281 
L 88.41168 454.9168 
L 88.164135 455.449846 
L 87.892326 456.08041 
L 87.645372 456.710975 
L 87.423732 457.34154 
L 87.227411 457.972105 
L 87.05552 458.602669 
L 86.906156 459.233234 
L 86.784031 459.825702 
L 86.773741 459.863799 
L 86.618812 460.494364 
L 86.483586 461.124928 
L 86.364401 461.755493 
L 86.258864 462.386058 
L 86.166041 463.016623 
L 86.086302 463.647187 
L 86.020938 464.277752 
L 85.971658 464.908317 
L 85.94015 465.538882 
L 85.92778 466.169446 
L 85.935462 466.800011 
L 85.963697 467.430576 
L 86.012741 468.06114 
L 86.0829 468.691705 
L 86.174902 469.32227 
L 86.29032 469.952835 
L 86.431978 470.583399 
L 86.604296 471.213964 
L 86.784031 471.760532 
L 86.807753 471.844529 
L 87.013427 472.475094 
L 87.266397 473.105658 
L 87.577953 473.736223 
L 87.961833 474.366788 
L 88.41168 474.969641 
L 88.438144 474.997353 
L 89.109219 475.627917 
L 89.959091 476.258482 
z
M 90.817416 474.997353 
L 90.03933 474.689854 
L 89.667655 474.366788 
L 89.048607 473.736223 
L 88.552145 473.105658 
L 88.41168 472.897098 
L 88.177124 472.475094 
L 87.882564 471.844529 
L 87.641966 471.213964 
L 87.445154 470.583399 
L 87.284303 469.952835 
L 87.153734 469.32227 
L 87.049659 468.691705 
L 86.969814 468.06114 
L 86.913013 467.430576 
L 86.878646 466.800011 
L 86.866214 466.169446 
L 86.874963 465.538882 
L 86.903675 464.908317 
L 86.950653 464.277752 
L 87.013906 463.647187 
L 87.091509 463.016623 
L 87.182072 462.386058 
L 87.285213 461.755493 
L 87.401888 461.124928 
L 87.534457 460.494364 
L 87.686454 459.863799 
L 87.862095 459.233234 
L 88.065647 458.602669 
L 88.300792 457.972105 
L 88.41168 457.702386 
L 88.558244 457.34154 
L 88.837399 456.710975 
L 89.145857 456.08041 
L 89.48342 455.449846 
L 89.850459 454.819281 
L 90.03933 454.508481 
L 90.291717 454.188716 
L 90.80938 453.558151 
L 91.370762 452.927587 
L 91.666979 452.611053 
L 92.235758 452.297022 
L 93.294628 451.728529 
L 94.390652 451.666457 
L 94.922277 451.633357 
L 95.018724 451.666457 
L 96.549926 452.227499 
L 96.645341 452.297022 
L 97.458429 452.927587 
L 98.147012 453.558151 
L 98.177575 453.588783 
L 98.649668 454.188716 
L 99.074462 454.819281 
L 99.432385 455.449846 
L 99.730845 456.08041 
L 99.805224 456.26252 
L 99.984521 456.710975 
L 100.199148 457.34154 
L 100.376687 457.972105 
L 100.519822 458.602669 
L 100.630188 459.233234 
L 100.708939 459.863799 
L 100.757307 460.494364 
L 100.77701 461.124928 
L 100.770413 461.755493 
L 100.740401 462.386058 
L 100.689968 463.016623 
L 100.621645 463.647187 
L 100.536878 464.277752 
L 100.435555 464.908317 
L 100.315801 465.538882 
L 100.174106 466.169446 
L 100.005727 466.800011 
L 99.805224 467.430576 
L 99.805224 467.430576 
L 99.616049 468.06114 
L 99.395988 468.691705 
L 99.140416 469.32227 
L 98.843756 469.952835 
L 98.498701 470.583399 
L 98.177575 471.091894 
L 98.106679 471.213964 
L 97.698437 471.844529 
L 97.214803 472.475094 
L 96.636245 473.105658 
L 96.549926 473.190571 
L 95.931523 473.736223 
L 95.083466 474.366788 
L 94.922277 474.475999 
L 93.73199 474.997353 
L 93.294628 475.176687 
L 91.666979 475.297872 
z
" clip-path="url(#pf0090998c0)" style="fill: #a3a3f7"/>
    <path d="M 91.666979 475.297872 
L 93.294628 475.176687 
L 93.73199 474.997353 
L 94.922277 474.475999 
L 95.083466 474.366788 
L 95.931523 473.736223 
L 96.549926 473.190571 
L 96.636245 473.105658 
L 97.214803 472.475094 
L 97.698437 471.844529 
L 98.106679 471.213964 
L 98.177575 471.091894 
L 98.498701 470.583399 
L 98.843756 469.952835 
L 99.140416 469.32227 
L 99.395988 468.691705 
L 99.616049 468.06114 
L 99.805224 467.430576 
L 99.805224 467.430576 
L 100.005727 466.800011 
L 100.174106 466.169446 
L 100.315801 465.538882 
L 100.435555 464.908317 
L 100.536878 464.277752 
L 100.621645 463.647187 
L 100.689968 463.016623 
L 100.740401 462.386058 
L 100.770413 461.755493 
L 100.77701 461.124928 
L 100.757307 460.494364 
L 100.708939 459.863799 
L 100.630188 459.233234 
L 100.519822 458.602669 
L 100.376687 457.972105 
L 100.199148 457.34154 
L 99.984521 456.710975 
L 99.805224 456.26252 
L 99.730845 456.08041 
L 99.432385 455.449846 
L 99.074462 454.819281 
L 98.649668 454.188716 
L 98.177575 453.588783 
L 98.147012 453.558151 
L 97.458429 452.927587 
L 96.645341 452.297022 
L 96.549926 452.227499 
L 95.018724 451.666457 
L 94.922277 451.633357 
L 94.390652 451.666457 
L 93.294628 451.728529 
L 92.235758 452.297022 
L 91.666979 452.611053 
L 91.370762 452.927587 
L 90.80938 453.558151 
L 90.291717 454.188716 
L 90.03933 454.508481 
L 89.850459 454.819281 
L 89.48342 455.449846 
L 89.145857 456.08041 
L 88.837399 456.710975 
L 88.558244 457.34154 
L 88.41168 457.702386 
L 88.300792 457.972105 
L 88.065647 458.602669 
L 87.862095 459.233234 
L 87.686454 459.863799 
L 87.534457 460.494364 
L 87.401888 461.124928 
L 87.285213 461.755493 
L 87.182072 462.386058 
L 87.091509 463.016623 
L 87.013906 463.647187 
L 86.950653 464.277752 
L 86.903675 464.908317 
L 86.874963 465.538882 
L 86.866214 466.169446 
L 86.878646 466.800011 
L 86.913013 467.430576 
L 86.969814 468.06114 
L 87.049659 468.691705 
L 87.153734 469.32227 
L 87.284303 469.952835 
L 87.445154 470.583399 
L 87.641966 471.213964 
L 87.882564 471.844529 
L 88.177124 472.475094 
L 88.41168 472.897098 
L 88.552145 473.105658 
L 89.048607 473.736223 
L 89.667655 474.366788 
L 90.03933 474.689854 
L 90.817416 474.997353 
z
M 91.622478 473.736223 
L 90.349716 473.105658 
L 90.03933 472.923862 
L 89.658882 472.475094 
L 89.214441 471.844529 
L 88.854723 471.213964 
L 88.563197 470.583399 
L 88.41168 470.187394 
L 88.333044 469.952835 
L 88.155065 469.32227 
L 88.012406 468.691705 
L 87.901614 468.06114 
L 87.8207 467.430576 
L 87.768558 466.800011 
L 87.744405 466.169446 
L 87.747319 465.538882 
L 87.775944 464.908317 
L 87.828428 464.277752 
L 87.902598 463.647187 
L 87.996354 463.016623 
L 88.108225 462.386058 
L 88.23793 461.755493 
L 88.38679 461.124928 
L 88.41168 461.030122 
L 88.551961 460.494364 
L 88.739127 459.863799 
L 88.953782 459.233234 
L 89.200512 458.602669 
L 89.483121 457.972105 
L 89.804208 457.34154 
L 90.03933 456.921699 
L 90.19756 456.710975 
L 90.693028 456.08041 
L 91.226266 455.449846 
L 91.666979 454.958627 
L 91.924831 454.819281 
L 93.087328 454.188716 
L 93.294628 454.076643 
L 94.922277 454.085487 
L 95.140649 454.188716 
L 96.323263 454.819281 
L 96.549926 454.960374 
L 97.019233 455.449846 
L 97.527213 456.08041 
L 97.940826 456.710975 
L 98.177575 457.148385 
L 98.27013 457.34154 
L 98.530989 457.972105 
L 98.744065 458.602669 
L 98.913918 459.233234 
L 99.044136 459.863799 
L 99.13781 460.494364 
L 99.19792 461.124928 
L 99.227547 461.755493 
L 99.229849 462.386058 
L 99.207793 463.016623 
L 99.16373 463.647187 
L 99.098937 464.277752 
L 99.013287 464.908317 
L 98.905159 465.538882 
L 98.77162 466.169446 
L 98.6088 466.800011 
L 98.412317 467.430576 
L 98.177575 468.06114 
L 98.177575 468.06114 
L 97.933147 468.691705 
L 97.650001 469.32227 
L 97.32216 469.952835 
L 96.941278 470.583399 
L 96.549926 471.141547 
L 96.494401 471.213964 
L 95.957064 471.844529 
L 95.321927 472.475094 
L 94.922277 472.821079 
L 94.409325 473.105658 
L 93.294628 473.658904 
L 91.990518 473.736223 
L 91.666979 473.755808 
z
" clip-path="url(#pf0090998c0)" style="fill: #8787f8"/>
    <path d="M 91.666979 473.755808 
L 91.990518 473.736223 
L 93.294628 473.658904 
L 94.409325 473.105658 
L 94.922277 472.821079 
L 95.321927 472.475094 
L 95.957064 471.844529 
L 96.494401 471.213964 
L 96.549926 471.141547 
L 96.941278 470.583399 
L 97.32216 469.952835 
L 97.650001 469.32227 
L 97.933147 468.691705 
L 98.177575 468.06114 
L 98.177575 468.06114 
L 98.412317 467.430576 
L 98.6088 466.800011 
L 98.77162 466.169446 
L 98.905159 465.538882 
L 99.013287 464.908317 
L 99.098937 464.277752 
L 99.16373 463.647187 
L 99.207793 463.016623 
L 99.229849 462.386058 
L 99.227547 461.755493 
L 99.19792 461.124928 
L 99.13781 460.494364 
L 99.044136 459.863799 
L 98.913918 459.233234 
L 98.744065 458.602669 
L 98.530989 457.972105 
L 98.27013 457.34154 
L 98.177575 457.148385 
L 97.940826 456.710975 
L 97.527213 456.08041 
L 97.019233 455.449846 
L 96.549926 454.960374 
L 96.323263 454.819281 
L 95.140649 454.188716 
L 94.922277 454.085487 
L 93.294628 454.076643 
L 93.087328 454.188716 
L 91.924831 454.819281 
L 91.666979 454.958627 
L 91.226266 455.449846 
L 90.693028 456.08041 
L 90.19756 456.710975 
L 90.03933 456.921699 
L 89.804208 457.34154 
L 89.483121 457.972105 
L 89.200512 458.602669 
L 88.953782 459.233234 
L 88.739127 459.863799 
L 88.551961 460.494364 
L 88.41168 461.030122 
L 88.38679 461.124928 
L 88.23793 461.755493 
L 88.108225 462.386058 
L 87.996354 463.016623 
L 87.902598 463.647187 
L 87.828428 464.277752 
L 87.775944 464.908317 
L 87.747319 465.538882 
L 87.744405 466.169446 
L 87.768558 466.800011 
L 87.8207 467.430576 
L 87.901614 468.06114 
L 88.012406 468.691705 
L 88.155065 469.32227 
L 88.333044 469.952835 
L 88.41168 470.187394 
L 88.563197 470.583399 
L 88.854723 471.213964 
L 89.214441 471.844529 
L 89.658882 472.475094 
L 90.03933 472.923862 
L 90.349716 473.105658 
L 91.622478 473.736223 
z
M 91.523466 472.475094 
L 90.536429 471.844529 
L 90.03933 471.456446 
L 89.877701 471.213964 
L 89.519644 470.583399 
L 89.228926 469.952835 
L 88.993931 469.32227 
L 88.806371 468.691705 
L 88.660748 468.06114 
L 88.553693 467.430576 
L 88.483179 466.800011 
L 88.447708 466.169446 
L 88.445621 465.538882 
L 88.474667 464.908317 
L 88.531943 464.277752 
L 88.614192 463.647187 
L 88.718378 463.016623 
L 88.842382 462.386058 
L 88.985622 461.755493 
L 89.149401 461.124928 
L 89.336877 460.494364 
L 89.552644 459.863799 
L 89.802031 459.233234 
L 90.03933 458.709823 
L 90.106553 458.602669 
L 90.535855 457.972105 
L 91.010927 457.34154 
L 91.532553 456.710975 
L 91.666979 456.555807 
L 92.572836 456.08041 
L 93.294628 455.698826 
L 94.922277 455.848336 
L 95.278273 456.08041 
L 96.09389 456.710975 
L 96.549926 457.154956 
L 96.679105 457.34154 
L 97.055066 457.972105 
L 97.35845 458.602669 
L 97.599682 459.233234 
L 97.787172 459.863799 
L 97.927715 460.494364 
L 98.026947 461.124928 
L 98.08971 461.755493 
L 98.120221 462.386058 
L 98.122001 463.016623 
L 98.097643 463.647187 
L 98.04853 464.277752 
L 97.974668 464.908317 
L 97.874734 465.538882 
L 97.746335 466.169446 
L 97.586387 466.800011 
L 97.391433 467.430576 
L 97.157748 468.06114 
L 96.88112 468.691705 
L 96.556323 469.32227 
L 96.549926 469.333382 
L 96.161698 469.952835 
L 95.704676 470.583399 
L 95.171523 471.213964 
L 94.922277 471.474392 
L 94.368824 471.844529 
L 93.294628 472.475094 
L 93.294628 472.475094 
L 91.666979 472.554898 
z
" clip-path="url(#pf0090998c0)" style="fill: #6b6bfa"/>
    <path d="M 91.666979 472.554898 
L 93.294628 472.475094 
L 93.294628 472.475094 
L 94.368824 471.844529 
L 94.922277 471.474392 
L 95.171523 471.213964 
L 95.704676 470.583399 
L 96.161698 469.952835 
L 96.549926 469.333382 
L 96.556323 469.32227 
L 96.88112 468.691705 
L 97.157748 468.06114 
L 97.391433 467.430576 
L 97.586387 466.800011 
L 97.746335 466.169446 
L 97.874734 465.538882 
L 97.974668 464.908317 
L 98.04853 464.277752 
L 98.097643 463.647187 
L 98.122001 463.016623 
L 98.120221 462.386058 
L 98.08971 461.755493 
L 98.026947 461.124928 
L 97.927715 460.494364 
L 97.787172 459.863799 
L 97.599682 459.233234 
L 97.35845 458.602669 
L 97.055066 457.972105 
L 96.679105 457.34154 
L 96.549926 457.154956 
L 96.09389 456.710975 
L 95.278273 456.08041 
L 94.922277 455.848336 
L 93.294628 455.698826 
L 92.572836 456.08041 
L 91.666979 456.555807 
L 91.532553 456.710975 
L 91.010927 457.34154 
L 90.535855 457.972105 
L 90.106553 458.602669 
L 90.03933 458.709823 
L 89.802031 459.233234 
L 89.552644 459.863799 
L 89.336877 460.494364 
L 89.149401 461.124928 
L 88.985622 461.755493 
L 88.842382 462.386058 
L 88.718378 463.016623 
L 88.614192 463.647187 
L 88.531943 464.277752 
L 88.474667 464.908317 
L 88.445621 465.538882 
L 88.447708 466.169446 
L 88.483179 466.800011 
L 88.553693 467.430576 
L 88.660748 468.06114 
L 88.806371 468.691705 
L 88.993931 469.32227 
L 89.228926 469.952835 
L 89.519644 470.583399 
L 89.877701 471.213964 
L 90.03933 471.456446 
L 90.536429 471.844529 
L 91.523466 472.475094 
z
M 91.56115 470.583399 
L 90.90764 469.952835 
L 90.388381 469.32227 
L 90.03933 468.787445 
L 90.004075 468.691705 
L 89.814938 468.06114 
L 89.672758 467.430576 
L 89.574412 466.800011 
L 89.517665 466.169446 
L 89.500404 465.538882 
L 89.520129 464.908317 
L 89.57382 464.277752 
L 89.658185 463.647187 
L 89.77023 463.016623 
L 89.907976 462.386058 
L 90.03933 461.876526 
L 90.084804 461.755493 
L 90.35174 461.124928 
L 90.652868 460.494364 
L 90.993921 459.863799 
L 91.381089 459.233234 
L 91.666979 458.817879 
L 92.065452 458.602669 
L 93.252045 457.972105 
L 93.294628 457.949808 
L 93.376746 457.972105 
L 94.922277 458.49632 
L 95.017346 458.602669 
L 95.490862 459.233234 
L 95.856055 459.863799 
L 96.133676 460.494364 
L 96.339391 461.124928 
L 96.485053 461.755493 
L 96.549926 462.18197 
L 96.576006 462.386058 
L 96.620717 463.016623 
L 96.630609 463.647187 
L 96.607072 464.277752 
L 96.549926 464.908317 
L 96.549926 464.908317 
L 96.44861 465.538882 
L 96.307245 466.169446 
L 96.122942 466.800011 
L 95.89255 467.430576 
L 95.612628 468.06114 
L 95.278927 468.691705 
L 94.922277 469.264935 
L 94.865859 469.32227 
L 94.167695 469.952835 
L 93.366061 470.583399 
L 93.294628 470.633999 
L 91.666979 470.670687 
z
" clip-path="url(#pf0090998c0)" style="fill: #4c4cfb"/>
    <path d="M 91.666979 470.670687 
L 93.294628 470.633999 
L 93.366061 470.583399 
L 94.167695 469.952835 
L 94.865859 469.32227 
L 94.922277 469.264935 
L 95.278927 468.691705 
L 95.612628 468.06114 
L 95.89255 467.430576 
L 96.122942 466.800011 
L 96.307245 466.169446 
L 96.44861 465.538882 
L 96.549926 464.908317 
L 96.549926 464.908317 
L 96.607072 464.277752 
L 96.630609 463.647187 
L 96.620717 463.016623 
L 96.576006 462.386058 
L 96.549926 462.18197 
L 96.485053 461.755493 
L 96.339391 461.124928 
L 96.133676 460.494364 
L 95.856055 459.863799 
L 95.490862 459.233234 
L 95.017346 458.602669 
L 94.922277 458.49632 
L 93.376746 457.972105 
L 93.294628 457.949808 
L 93.252045 457.972105 
L 92.065452 458.602669 
L 91.666979 458.817879 
L 91.381089 459.233234 
L 90.993921 459.863799 
L 90.652868 460.494364 
L 90.35174 461.124928 
L 90.084804 461.755493 
L 90.03933 461.876526 
L 89.907976 462.386058 
L 89.77023 463.016623 
L 89.658185 463.647187 
L 89.57382 464.277752 
L 89.520129 464.908317 
L 89.500404 465.538882 
L 89.517665 466.169446 
L 89.574412 466.800011 
L 89.672758 467.430576 
L 89.814938 468.06114 
L 90.004075 468.691705 
L 90.03933 468.787445 
L 90.388381 469.32227 
L 90.90764 469.952835 
L 91.56115 470.583399 
z
M 91.768929 468.691705 
L 91.666979 468.686491 
L 91.27861 468.06114 
L 90.983535 467.430576 
L 90.775307 466.800011 
L 90.6466 466.169446 
L 90.590871 465.538882 
L 90.601159 464.908317 
L 90.669756 464.277752 
L 90.788765 463.647187 
L 90.951235 463.016623 
L 91.15239 462.386058 
L 91.390479 461.755493 
L 91.666979 461.124928 
L 91.666979 461.124928 
L 92.686453 460.494364 
L 93.294628 460.127915 
L 93.825343 460.494364 
L 94.49595 461.124928 
L 94.922277 461.704285 
L 94.939688 461.755493 
L 95.099974 462.386058 
L 95.204496 463.016623 
L 95.258851 463.647187 
L 95.266178 464.277752 
L 95.227466 464.908317 
L 95.141961 465.538882 
L 95.00765 466.169446 
L 94.922277 466.459176 
L 94.759216 466.800011 
L 94.376264 467.430576 
L 93.910782 468.06114 
L 93.358312 468.691705 
L 93.294628 468.754712 
z
" clip-path="url(#pf0090998c0)" style="fill: #2b2bfd"/>
    <path d="M 93.294628 468.754712 
L 93.358312 468.691705 
L 93.910782 468.06114 
L 94.376264 467.430576 
L 94.759216 466.800011 
L 94.922277 466.459176 
L 95.00765 466.169446 
L 95.141961 465.538882 
L 95.227466 464.908317 
L 95.266178 464.277752 
L 95.258851 463.647187 
L 95.204496 463.016623 
L 95.099974 462.386058 
L 94.939688 461.755493 
L 94.922277 461.704285 
L 94.49595 461.124928 
L 93.825343 460.494364 
L 93.294628 460.127915 
L 92.686453 460.494364 
L 91.666979 461.124928 
L 91.666979 461.124928 
L 91.390479 461.755493 
L 91.15239 462.386058 
L 90.951235 463.016623 
L 90.788765 463.647187 
L 90.669756 464.277752 
L 90.601159 464.908317 
L 90.590871 465.538882 
L 90.6466 466.169446 
L 90.775307 466.800011 
L 90.983535 467.430576 
L 91.27861 468.06114 
L 91.666979 468.686491 
L 91.768929 468.691705 
z
" clip-path="url(#pf0090998c0)" style="fill: #0e0efe"/>
   </g>
   <g id="QuadContourSet_2">
    <path d="M 64.887222 516.665826 
L 84.699583 516.817742 
L 104.511944 514.354187 
L 109.307506 513.28947 
L 124.324305 511.253075 
L 144.136666 506.210897 
L 146.20839 505.682414 
L 163.949027 502.233846 
L 180.500389 498.075358 
L 183.761388 497.407615 
L 203.573749 493.151054 
L 213.341305 490.468302 
L 223.38611 487.976867 
L 240.141755 482.861246 
L 243.198471 481.898159 
L 263.010832 475.322371 
L 263.232879 475.25419 
L 282.823193 468.821187 
L 286.546759 467.647134 
L 302.635554 462.253959 
L 309.149364 460.040078 
L 322.447915 455.216432 
L 329.33701 452.433022 
L 342.260276 446.748471 
L 346.170746 444.825966 
L 360.322571 437.21891 
L 362.072638 436.234734 
L 373.176469 429.611854 
L 381.884999 423.656399 
L 384.488049 422.004797 
L 395.725998 414.397741 
L 401.69736 410.143138 
L 407.772393 406.790685 
L 420.836843 399.183629 
L 421.509721 398.803909 
L 441.276606 391.576573 
L 441.322082 391.558163 
L 461.134443 387.834118 
L 480.946804 385.599678 
L 494.815065 383.969517 
L 500.759165 383.029909 
L 520.571526 378.938961 
L 529.479617 376.362461 
L 540.383887 371.238161 
L 544.773435 368.755405 
L 552.267273 361.148349 
L 554.176183 353.541293 
L 551.970671 345.934237 
L 546.123983 338.327181 
L 540.383887 333.098401 
L 537.230245 330.720125 
L 530.833542 323.113069 
L 529.478368 315.506013 
L 528.674466 307.898957 
L 521.807474 300.291901 
L 520.571526 299.834091 
L 500.759165 298.896187 
L 480.946804 300.135834 
L 461.134443 299.859636 
L 441.322082 297.029657 
L 421.509721 294.338389 
L 401.69736 294.809763 
L 381.884999 298.309921 
L 372.062157 300.291901 
L 362.072638 302.049798 
L 342.260276 303.009802 
L 332.059485 300.291901 
L 322.447915 296.201753 
L 317.41342 292.684845 
L 303.609528 285.077789 
L 302.635554 284.642201 
L 282.823193 277.814745 
L 281.748424 277.470733 
L 263.010832 271.664393 
L 255.876103 269.863676 
L 243.198471 266.589594 
L 223.38611 263.844076 
L 203.573749 262.25662 
L 203.573749 262.25662 
L 183.761388 259.408358 
L 169.227822 254.649564 
L 163.949027 252.684583 
L 155.305508 247.042508 
L 144.136666 239.667741 
L 143.8118 239.435452 
L 134.289307 231.828396 
L 125.199205 224.22134 
L 124.324305 223.264378 
L 114.308576 216.614284 
L 107.160803 209.007228 
L 104.511944 203.247404 
L 95.890232 209.007228 
L 84.699583 213.349524 
L 83.089143 216.614284 
L 77.512295 224.22134 
L 71.014277 231.828396 
L 64.887222 238.922234 
L 64.516772 239.435452 
L 58.669331 247.042508 
L 53.885226 254.649564 
L 50.239695 262.25662 
L 47.552522 269.863676 
L 45.499965 277.470733 
L 45.07486 279.079756 
L 42.619342 285.077789 
L 39.196958 292.684845 
L 35.518836 300.291901 
L 31.960125 307.898957 
L 28.870657 315.506013 
L 26.360091 323.113069 
L 25.262499 326.905003 
L 22.773593 330.720125 
L 18.366786 338.327181 
L 14.790852 345.934237 
L 11.84095 353.541293 
L 9.405485 361.148349 
L 7.423115 368.755405 
L 5.842357 376.362461 
L 5.450138 378.409933 
L 1.936749 383.969517 
L -2.055402 391.576573 
L -5.16281 399.183629 
L -7.604233 406.790685 
L -9.529083 414.397741 
L -11.026809 422.004797 
L -12.152318 429.611854 
L -12.944185 437.21891 
L -13.425617 444.825966 
L -13.591301 452.433022 
L -13.382616 460.040078 
L -12.641786 467.647134 
L -11.013662 475.25419 
L -7.71386 482.861246 
L -0.941935 490.468302 
L 5.450138 494.896074 
L 8.413304 498.075358 
L 21.524267 505.682414 
L 25.262499 507.351 
L 45.07486 513.208417 
L 45.789617 513.28947 
z
M 62.366887 498.075358 
L 45.07486 494.079353 
L 37.066054 490.468302 
L 26.371116 482.861246 
L 25.262499 481.604859 
L 17.809202 475.25419 
L 12.983313 467.647134 
L 10.62276 460.040078 
L 9.661812 452.433022 
L 9.618291 444.825966 
L 10.291727 437.21891 
L 11.629037 429.611854 
L 13.65651 422.004797 
L 16.441721 414.397741 
L 20.082386 406.790685 
L 24.732159 399.183629 
L 25.262499 398.359057 
L 27.177258 391.576573 
L 29.865179 383.969517 
L 33.335007 376.362461 
L 37.815864 368.755405 
L 43.524524 361.148349 
L 45.07486 359.165388 
L 48.038157 353.541293 
L 52.69218 345.934237 
L 58.336602 338.327181 
L 64.887222 330.979596 
L 65.137198 330.720125 
L 72.462983 323.113069 
L 81.530351 315.506013 
L 84.699583 313.021994 
L 99.42294 307.898957 
L 104.511944 306.068413 
L 118.77006 307.898957 
L 124.324305 308.52001 
L 140.816064 315.506013 
L 144.136666 316.958326 
L 157.461691 323.113069 
L 163.949027 326.469753 
L 175.46981 330.720125 
L 183.761388 334.578814 
L 194.854678 338.327181 
L 203.573749 342.412931 
L 211.613922 345.934237 
L 223.38611 352.775982 
L 224.480638 353.541293 
L 234.532313 361.148349 
L 242.529879 368.755405 
L 243.198471 369.565367 
L 248.399019 376.362461 
L 251.696418 383.969517 
L 252.711158 391.576573 
L 252.394428 399.183629 
L 251.677515 406.790685 
L 250.983755 414.397741 
L 249.999565 422.004797 
L 247.805464 429.611854 
L 243.198471 437.21891 
L 243.198471 437.21891 
L 237.310926 444.825966 
L 227.555618 452.433022 
L 223.38611 454.746001 
L 215.071243 460.040078 
L 203.573749 465.162672 
L 198.698866 467.647134 
L 183.761388 473.329013 
L 179.552336 475.25419 
L 163.949027 480.844509 
L 158.991638 482.861246 
L 144.136666 488.002792 
L 136.057112 490.468302 
L 124.324305 494.098246 
L 104.511944 497.787391 
L 100.520471 498.075358 
L 84.699583 499.991248 
L 64.887222 498.697723 
z
M 104.511944 182.62629 
L 105.521968 178.579004 
L 107.443484 170.971948 
L 108.176784 163.364892 
L 105.915239 155.757836 
L 104.511944 154.341615 
L 102.38469 155.757836 
L 97.86648 163.364892 
L 98.349462 170.971948 
L 102.056672 178.579004 
z
" clip-path="url(#pf0090998c0)" style="fill: #e7f1e7; fill-opacity: 0.5"/>
    <path d="M 64.887222 498.697723 
L 84.699583 499.991248 
L 100.520471 498.075358 
L 104.511944 497.787391 
L 124.324305 494.098246 
L 136.057112 490.468302 
L 144.136666 488.002792 
L 158.991638 482.861246 
L 163.949027 480.844509 
L 179.552336 475.25419 
L 183.761388 473.329013 
L 198.698866 467.647134 
L 203.573749 465.162672 
L 215.071243 460.040078 
L 223.38611 454.746001 
L 227.555618 452.433022 
L 237.310926 444.825966 
L 243.198471 437.21891 
L 243.198471 437.21891 
L 247.805464 429.611854 
L 249.999565 422.004797 
L 250.983755 414.397741 
L 251.677515 406.790685 
L 252.394428 399.183629 
L 252.711158 391.576573 
L 251.696418 383.969517 
L 248.399019 376.362461 
L 243.198471 369.565367 
L 242.529879 368.755405 
L 234.532313 361.148349 
L 224.480638 353.541293 
L 223.38611 352.775982 
L 211.613922 345.934237 
L 203.573749 342.412931 
L 194.854678 338.327181 
L 183.761388 334.578814 
L 175.46981 330.720125 
L 163.949027 326.469753 
L 157.461691 323.113069 
L 144.136666 316.958326 
L 140.816064 315.506013 
L 124.324305 308.52001 
L 118.77006 307.898957 
L 104.511944 306.068413 
L 99.42294 307.898957 
L 84.699583 313.021994 
L 81.530351 315.506013 
L 72.462983 323.113069 
L 65.137198 330.720125 
L 64.887222 330.979596 
L 58.336602 338.327181 
L 52.69218 345.934237 
L 48.038157 353.541293 
L 45.07486 359.165388 
L 43.524524 361.148349 
L 37.815864 368.755405 
L 33.335007 376.362461 
L 29.865179 383.969517 
L 27.177258 391.576573 
L 25.262499 398.359057 
L 24.732159 399.183629 
L 20.082386 406.790685 
L 16.441721 414.397741 
L 13.65651 422.004797 
L 11.629037 429.611854 
L 10.291727 437.21891 
L 9.618291 444.825966 
L 9.661812 452.433022 
L 10.62276 460.040078 
L 12.983313 467.647134 
L 17.809202 475.25419 
L 25.262499 481.604859 
L 26.371116 482.861246 
L 37.066054 490.468302 
L 45.07486 494.079353 
L 62.366887 498.075358 
z
M 47.931765 482.861246 
L 45.07486 481.439698 
L 35.664388 475.25419 
L 29.518341 467.647134 
L 26.595315 460.040078 
L 25.379132 452.433022 
L 25.262499 447.973489 
L 25.067965 444.825966 
L 25.262499 443.703422 
L 25.713064 437.21891 
L 26.853897 429.611854 
L 28.60361 422.004797 
L 31.015185 414.397741 
L 34.177419 406.790685 
L 38.223297 399.183629 
L 43.370908 391.576573 
L 45.07486 389.281941 
L 47.697735 383.969517 
L 52.244053 376.362461 
L 58.120686 368.755405 
L 64.887222 361.787507 
L 65.561703 361.148349 
L 73.734996 353.541293 
L 83.888798 345.934237 
L 84.699583 345.3199 
L 104.511944 338.668457 
L 124.324305 340.76108 
L 136.246803 345.934237 
L 144.136666 349.78457 
L 150.279587 353.541293 
L 159.912055 361.148349 
L 163.949027 365.511863 
L 167.8971 368.755405 
L 175.409466 376.362461 
L 180.75141 383.969517 
L 183.761388 389.744478 
L 185.473641 391.576573 
L 191.393992 399.183629 
L 195.567295 406.790685 
L 198.390387 414.397741 
L 200.00482 422.004797 
L 200.274735 429.611854 
L 198.753166 437.21891 
L 194.562759 444.825966 
L 186.086877 452.433022 
L 183.761388 453.832693 
L 177.179328 460.040078 
L 163.949027 466.99015 
L 163.053103 467.647134 
L 148.348527 475.25419 
L 144.136666 476.922487 
L 128.425848 482.861246 
L 124.324305 484.254725 
L 104.511944 489.025632 
L 84.699583 490.468302 
L 64.887222 488.912461 
z
" clip-path="url(#pf0090998c0)" style="fill: #dbebdb; fill-opacity: 0.5"/>
    <path d="M 64.887222 488.912461 
L 84.699583 490.468302 
L 104.511944 489.025632 
L 124.324305 484.254725 
L 128.425848 482.861246 
L 144.136666 476.922487 
L 148.348527 475.25419 
L 163.053103 467.647134 
L 163.949027 466.99015 
L 177.179328 460.040078 
L 183.761388 453.832693 
L 186.086877 452.433022 
L 194.562759 444.825966 
L 198.753166 437.21891 
L 200.274735 429.611854 
L 200.00482 422.004797 
L 198.390387 414.397741 
L 195.567295 406.790685 
L 191.393992 399.183629 
L 185.473641 391.576573 
L 183.761388 389.744478 
L 180.75141 383.969517 
L 175.409466 376.362461 
L 167.8971 368.755405 
L 163.949027 365.511863 
L 159.912055 361.148349 
L 150.279587 353.541293 
L 144.136666 349.78457 
L 136.246803 345.934237 
L 124.324305 340.76108 
L 104.511944 338.668457 
L 84.699583 345.3199 
L 83.888798 345.934237 
L 73.734996 353.541293 
L 65.561703 361.148349 
L 64.887222 361.787507 
L 58.120686 368.755405 
L 52.244053 376.362461 
L 47.697735 383.969517 
L 45.07486 389.281941 
L 43.370908 391.576573 
L 38.223297 399.183629 
L 34.177419 406.790685 
L 31.015185 414.397741 
L 28.60361 422.004797 
L 26.853897 429.611854 
L 25.713064 437.21891 
L 25.262499 443.703422 
L 25.067965 444.825966 
L 25.262499 447.973489 
L 25.379132 452.433022 
L 26.595315 460.040078 
L 29.518341 467.647134 
L 35.664388 475.25419 
L 45.07486 481.439698 
L 47.931765 482.861246 
z
M 55.173985 475.25419 
L 45.215122 467.647134 
L 45.07486 467.467664 
L 38.865871 460.040078 
L 35.907997 452.433022 
L 35.046864 444.825966 
L 35.689262 437.21891 
L 37.621118 429.611854 
L 40.830644 422.004797 
L 45.07486 414.879474 
L 45.261796 414.397741 
L 48.598073 406.790685 
L 52.837315 399.183629 
L 58.201083 391.576573 
L 64.887222 384.105525 
L 65.019304 383.969517 
L 72.691679 376.362461 
L 82.511053 368.755405 
L 84.699583 367.164955 
L 103.89567 361.148349 
L 104.511944 360.946379 
L 105.870824 361.148349 
L 124.324305 363.723108 
L 133.58263 368.755405 
L 144.136666 376.362461 
L 144.136666 376.362461 
L 152.424879 383.969517 
L 158.484462 391.576573 
L 162.919066 399.183629 
L 163.949027 401.367577 
L 167.870664 406.790685 
L 171.849474 414.397741 
L 174.190241 422.004797 
L 174.872019 429.611854 
L 173.600717 437.21891 
L 169.630833 444.825966 
L 163.949027 450.381236 
L 162.67857 452.433022 
L 154.98734 460.040078 
L 144.136666 466.198398 
L 141.8101 467.647134 
L 124.547106 475.25419 
L 124.324305 475.338979 
L 104.511944 480.943891 
L 84.699583 482.379403 
L 64.887222 479.561271 
z
" clip-path="url(#pf0090998c0)" style="fill: #c9e2c8; fill-opacity: 0.5"/>
    <path d="M 64.887222 479.561271 
L 84.699583 482.379403 
L 104.511944 480.943891 
L 124.324305 475.338979 
L 124.547106 475.25419 
L 141.8101 467.647134 
L 144.136666 466.198398 
L 154.98734 460.040078 
L 162.67857 452.433022 
L 163.949027 450.381236 
L 169.630833 444.825966 
L 173.600717 437.21891 
L 174.872019 429.611854 
L 174.190241 422.004797 
L 171.849474 414.397741 
L 167.870664 406.790685 
L 163.949027 401.367577 
L 162.919066 399.183629 
L 158.484462 391.576573 
L 152.424879 383.969517 
L 144.136666 376.362461 
L 144.136666 376.362461 
L 133.58263 368.755405 
L 124.324305 363.723108 
L 105.870824 361.148349 
L 104.511944 360.946379 
L 103.89567 361.148349 
L 84.699583 367.164955 
L 82.511053 368.755405 
L 72.691679 376.362461 
L 65.019304 383.969517 
L 64.887222 384.105525 
L 58.201083 391.576573 
L 52.837315 399.183629 
L 48.598073 406.790685 
L 45.261796 414.397741 
L 45.07486 414.879474 
L 40.830644 422.004797 
L 37.621118 429.611854 
L 35.689262 437.21891 
L 35.046864 444.825966 
L 35.907997 452.433022 
L 38.865871 460.040078 
L 45.07486 467.467664 
L 45.215122 467.647134 
L 55.173985 475.25419 
z
M 79.169192 475.25419 
L 64.887222 472.019017 
L 57.261912 467.647134 
L 49.66586 460.040078 
L 46.308229 452.433022 
L 45.279011 444.825966 
L 45.727595 437.21891 
L 47.305196 429.611854 
L 49.921492 422.004797 
L 53.626446 414.397741 
L 58.549597 406.790685 
L 64.887222 399.183629 
L 64.887222 399.183629 
L 72.048897 391.576573 
L 81.022572 383.969517 
L 84.699583 381.157104 
L 99.944421 376.362461 
L 104.511944 374.885331 
L 111.798182 376.362461 
L 124.324305 378.925678 
L 132.029026 383.969517 
L 141.169643 391.576573 
L 144.136666 394.599845 
L 148.381234 399.183629 
L 153.942187 406.790685 
L 157.73482 414.397741 
L 159.957603 422.004797 
L 160.671506 429.611854 
L 159.742909 437.21891 
L 156.711879 444.825966 
L 150.508944 452.433022 
L 144.136666 457.105215 
L 140.701362 460.040078 
L 127.073031 467.647134 
L 124.324305 468.852704 
L 104.511944 474.802946 
L 97.743576 475.25419 
L 84.699583 476.348126 
z
" clip-path="url(#pf0090998c0)" style="fill: #b1d7b1; fill-opacity: 0.5"/>
    <path d="M 84.699583 476.348126 
L 97.743576 475.25419 
L 104.511944 474.802946 
L 124.324305 468.852704 
L 127.073031 467.647134 
L 140.701362 460.040078 
L 144.136666 457.105215 
L 150.508944 452.433022 
L 156.711879 444.825966 
L 159.742909 437.21891 
L 160.671506 429.611854 
L 159.957603 422.004797 
L 157.73482 414.397741 
L 153.942187 406.790685 
L 148.381234 399.183629 
L 144.136666 394.599845 
L 141.169643 391.576573 
L 132.029026 383.969517 
L 124.324305 378.925678 
L 111.798182 376.362461 
L 104.511944 374.885331 
L 99.944421 376.362461 
L 84.699583 381.157104 
L 81.022572 383.969517 
L 72.048897 391.576573 
L 64.887222 399.183629 
L 64.887222 399.183629 
L 58.549597 406.790685 
L 53.626446 414.397741 
L 49.921492 422.004797 
L 47.305196 429.611854 
L 45.727595 437.21891 
L 45.279011 444.825966 
L 46.308229 452.433022 
L 49.66586 460.040078 
L 57.261912 467.647134 
L 64.887222 472.019017 
L 79.169192 475.25419 
z
M 80.135427 467.647134 
L 64.887222 461.620621 
L 62.889928 460.040078 
L 57.078915 452.433022 
L 54.909676 444.825966 
L 55.086257 437.21891 
L 57.073317 429.611854 
L 60.726569 422.004797 
L 64.887222 415.940728 
L 66.028323 414.397741 
L 72.657513 406.790685 
L 81.05109 399.183629 
L 84.699583 396.216771 
L 99.451757 391.576573 
L 104.511944 389.940576 
L 110.68677 391.576573 
L 124.324305 395.390332 
L 129.248006 399.183629 
L 137.181652 406.790685 
L 142.492317 414.397741 
L 144.136666 418.251181 
L 145.90494 422.004797 
L 147.292118 429.611854 
L 146.101615 437.21891 
L 144.136666 440.766426 
L 142.389344 444.825966 
L 136.183673 452.433022 
L 125.11357 460.040078 
L 124.324305 460.456183 
L 104.511944 467.647134 
L 104.511944 467.647134 
L 84.699583 468.894963 
z
" clip-path="url(#pf0090998c0)" style="fill: #91c791; fill-opacity: 0.5"/>
    <path d="M 84.699583 468.894963 
L 104.511944 467.647134 
L 104.511944 467.647134 
L 124.324305 460.456183 
L 125.11357 460.040078 
L 136.183673 452.433022 
L 142.389344 444.825966 
L 144.136666 440.766426 
L 146.101615 437.21891 
L 147.292118 429.611854 
L 145.90494 422.004797 
L 144.136666 418.251181 
L 142.492317 414.397741 
L 137.181652 406.790685 
L 129.248006 399.183629 
L 124.324305 395.390332 
L 110.68677 391.576573 
L 104.511944 389.940576 
L 99.451757 391.576573 
L 84.699583 396.216771 
L 81.05109 399.183629 
L 72.657513 406.790685 
L 66.028323 414.397741 
L 64.887222 415.940728 
L 60.726569 422.004797 
L 57.073317 429.611854 
L 55.086257 437.21891 
L 54.909676 444.825966 
L 57.078915 452.433022 
L 62.889928 460.040078 
L 64.887222 461.620621 
L 80.135427 467.647134 
z
M 76.270488 460.040078 
L 65.867793 452.433022 
L 64.887222 450.599354 
L 62.613624 444.825966 
L 62.57262 437.21891 
L 64.887222 429.611854 
L 64.887222 429.611854 
L 69.201856 422.004797 
L 75.344757 414.397741 
L 83.499785 406.790685 
L 84.699583 405.774629 
L 104.511944 399.448316 
L 124.324305 406.157265 
L 125.059243 406.790685 
L 132.309652 414.397741 
L 136.649269 422.004797 
L 138.379201 429.611854 
L 137.571794 437.21891 
L 133.909615 444.825966 
L 126.383393 452.433022 
L 124.324305 453.826699 
L 111.289673 460.040078 
L 104.511944 462.531653 
L 84.699583 463.338806 
z
" clip-path="url(#pf0090998c0)" style="fill: #71b771; fill-opacity: 0.5"/>
    <path d="M 84.699583 463.338806 
L 104.511944 462.531653 
L 111.289673 460.040078 
L 124.324305 453.826699 
L 126.383393 452.433022 
L 133.909615 444.825966 
L 137.571794 437.21891 
L 138.379201 429.611854 
L 136.649269 422.004797 
L 132.309652 414.397741 
L 125.059243 406.790685 
L 124.324305 406.157265 
L 104.511944 399.448316 
L 84.699583 405.774629 
L 83.499785 406.790685 
L 75.344757 414.397741 
L 69.201856 422.004797 
L 64.887222 429.611854 
L 64.887222 429.611854 
L 62.57262 437.21891 
L 62.613624 444.825966 
L 64.887222 450.599354 
L 65.867793 452.433022 
L 76.270488 460.040078 
z
M 76.372292 452.433022 
L 71.039129 444.825966 
L 70.387254 437.21891 
L 72.759411 429.611854 
L 77.555386 422.004797 
L 84.699583 414.397741 
L 84.699583 414.397741 
L 104.511944 407.759799 
L 120.168027 414.397741 
L 124.324305 417.172221 
L 127.727627 422.004797 
L 130.180933 429.611854 
L 129.532185 437.21891 
L 125.394942 444.825966 
L 124.324305 445.869627 
L 114.880774 452.433022 
L 104.511944 457.208087 
L 84.699583 457.481362 
z
" clip-path="url(#pf0090998c0)" style="fill: #54a954; fill-opacity: 0.5"/>
    <path d="M 84.699583 457.481362 
L 104.511944 457.208087 
L 114.880774 452.433022 
L 124.324305 445.869627 
L 125.394942 444.825966 
L 129.532185 437.21891 
L 130.180933 429.611854 
L 127.727627 422.004797 
L 124.324305 417.172221 
L 120.168027 414.397741 
L 104.511944 407.759799 
L 84.699583 414.397741 
L 84.699583 414.397741 
L 77.555386 422.004797 
L 72.759411 429.611854 
L 70.387254 437.21891 
L 71.039129 444.825966 
L 76.372292 452.433022 
z
M 84.254056 444.825966 
L 82.440826 437.21891 
L 84.699583 429.611854 
L 84.699583 429.611854 
L 100.686223 422.004797 
L 104.511944 420.588177 
L 106.93654 422.004797 
L 113.949054 429.611854 
L 114.230976 437.21891 
L 108.653482 444.825966 
L 104.511944 447.578072 
L 84.699583 445.327791 
z
" clip-path="url(#pf0090998c0)" style="fill: #2e972e; fill-opacity: 0.5"/>
    <path d="M 84.699583 445.327791 
L 104.511944 447.578072 
L 108.653482 444.825966 
L 114.230976 437.21891 
L 113.949054 429.611854 
L 106.93654 422.004797 
L 104.511944 420.588177 
L 100.686223 422.004797 
L 84.699583 429.611854 
L 84.699583 429.611854 
L 82.440826 437.21891 
L 84.254056 444.825966 
z
" clip-path="url(#pf0090998c0)" style="fill: #0c860c; fill-opacity: 0.5"/>
   </g>
   <g id="matplotlib.axis_1">
    <g id="xtick_1">
     <g id="line2d_1">
      <defs>
       <path id="m0cb2b02aa6" d="M 0 0 
L 0 3.5 
" style="stroke: #000000; stroke-width: 0.8"/>
      </defs>
      <g>
       <use xlink:href="#m0cb2b02aa6" x="147.251505" y="499.48" style="stroke: #000000; stroke-width: 0.8"/>
      </g>
     </g>
     <g id="text_1">
      <!-- 5 -->
      <g transform="translate(140.252755 523.196563) scale(0.22 -0.22)">
       <defs>
        <path id="DejaVuSans-35" d="M 691 4666 
L 3169 4666 
L 3169 4134 
L 1269 4134 
L 1269 2991 
Q 1406 3038 1543 3061 
Q 1681 3084 1819 3084 
Q 2600 3084 3056 2656 
Q 3513 2228 3513 1497 
Q 3513 744 3044 326 
Q 2575 -91 1722 -91 
Q 1428 -91 1123 -41 
Q 819 9 494 109 
L 494 744 
Q 775 591 1075 516 
Q 1375 441 1709 441 
Q 2250 441 2565 725 
Q 2881 1009 2881 1497 
Q 2881 1984 2565 2268 
Q 2250 2553 1709 2553 
Q 1456 2553 1204 2497 
Q 953 2441 691 2322 
L 691 4666 
z
" transform="scale(0.015625)"/>
       </defs>
       <use xlink:href="#DejaVuSans-35"/>
      </g>
     </g>
    </g>
    <g id="xtick_2">
     <g id="line2d_2">
      <g>
       <use xlink:href="#m0cb2b02aa6" x="220.282075" y="499.48" style="stroke: #000000; stroke-width: 0.8"/>
      </g>
     </g>
     <g id="text_2">
      <!-- 10 -->
      <g transform="translate(206.284575 523.196563) scale(0.22 -0.22)">
       <defs>
        <path id="DejaVuSans-31" d="M 794 531 
L 1825 531 
L 1825 4091 
L 703 3866 
L 703 4441 
L 1819 4666 
L 2450 4666 
L 2450 531 
L 3481 531 
L 3481 0 
L 794 0 
L 794 531 
z
" transform="scale(0.015625)"/>
        <path id="DejaVuSans-30" d="M 2034 4250 
Q 1547 4250 1301 3770 
Q 1056 3291 1056 2328 
Q 1056 1369 1301 889 
Q 1547 409 2034 409 
Q 2525 409 2770 889 
Q 3016 1369 3016 2328 
Q 3016 3291 2770 3770 
Q 2525 4250 2034 4250 
z
M 2034 4750 
Q 2819 4750 3233 4129 
Q 3647 3509 3647 2328 
Q 3647 1150 3233 529 
Q 2819 -91 2034 -91 
Q 1250 -91 836 529 
Q 422 1150 422 2328 
Q 422 3509 836 4129 
Q 1250 4750 2034 4750 
z
" transform="scale(0.015625)"/>
       </defs>
       <use xlink:href="#DejaVuSans-31"/>
       <use xlink:href="#DejaVuSans-30" x="63.623047"/>
      </g>
     </g>
    </g>
    <g id="xtick_3">
     <g id="line2d_3">
      <g>
       <use xlink:href="#m0cb2b02aa6" x="293.312646" y="499.48" style="stroke: #000000; stroke-width: 0.8"/>
      </g>
     </g>
     <g id="text_3">
      <!-- 15 -->
      <g transform="translate(279.315146 523.196563) scale(0.22 -0.22)">
       <use xlink:href="#DejaVuSans-31"/>
       <use xlink:href="#DejaVuSans-35" x="63.623047"/>
      </g>
     </g>
    </g>
    <g id="xtick_4">
     <g id="line2d_4">
      <g>
       <use xlink:href="#m0cb2b02aa6" x="366.343216" y="499.48" style="stroke: #000000; stroke-width: 0.8"/>
      </g>
     </g>
     <g id="text_4">
      <!-- 20 -->
      <g transform="translate(352.345716 523.196563) scale(0.22 -0.22)">
       <defs>
        <path id="DejaVuSans-32" d="M 1228 531 
L 3431 531 
L 3431 0 
L 469 0 
L 469 531 
Q 828 903 1448 1529 
Q 2069 2156 2228 2338 
Q 2531 2678 2651 2914 
Q 2772 3150 2772 3378 
Q 2772 3750 2511 3984 
Q 2250 4219 1831 4219 
Q 1534 4219 1204 4116 
Q 875 4013 500 3803 
L 500 4441 
Q 881 4594 1212 4672 
Q 1544 4750 1819 4750 
Q 2544 4750 2975 4387 
Q 3406 4025 3406 3419 
Q 3406 3131 3298 2873 
Q 3191 2616 2906 2266 
Q 2828 2175 2409 1742 
Q 1991 1309 1228 531 
z
" transform="scale(0.015625)"/>
       </defs>
       <use xlink:href="#DejaVuSans-32"/>
       <use xlink:href="#DejaVuSans-30" x="63.623047"/>
      </g>
     </g>
    </g>
    <g id="xtick_5">
     <g id="line2d_5">
      <g>
       <use xlink:href="#m0cb2b02aa6" x="439.373786" y="499.48" style="stroke: #000000; stroke-width: 0.8"/>
      </g>
     </g>
     <g id="text_5">
      <!-- 25 -->
      <g transform="translate(425.376286 523.196563) scale(0.22 -0.22)">
       <use xlink:href="#DejaVuSans-32"/>
       <use xlink:href="#DejaVuSans-35" x="63.623047"/>
      </g>
     </g>
    </g>
    <g id="xtick_6">
     <g id="line2d_6">
      <g>
       <use xlink:href="#m0cb2b02aa6" x="512.404356" y="499.48" style="stroke: #000000; stroke-width: 0.8"/>
      </g>
     </g>
     <g id="text_6">
      <!-- 30 -->
      <g transform="translate(498.406856 523.196563) scale(0.22 -0.22)">
       <defs>
        <path id="DejaVuSans-33" d="M 2597 2516 
Q 3050 2419 3304 2112 
Q 3559 1806 3559 1356 
Q 3559 666 3084 287 
Q 2609 -91 1734 -91 
Q 1441 -91 1130 -33 
Q 819 25 488 141 
L 488 750 
Q 750 597 1062 519 
Q 1375 441 1716 441 
Q 2309 441 2620 675 
Q 2931 909 2931 1356 
Q 2931 1769 2642 2001 
Q 2353 2234 1838 2234 
L 1294 2234 
L 1294 2753 
L 1863 2753 
Q 2328 2753 2575 2939 
Q 2822 3125 2822 3475 
Q 2822 3834 2567 4026 
Q 2313 4219 1838 4219 
Q 1578 4219 1281 4162 
Q 984 4106 628 3988 
L 628 4550 
Q 988 4650 1302 4700 
Q 1616 4750 1894 4750 
Q 2613 4750 3031 4423 
Q 3450 4097 3450 3541 
Q 3450 3153 3228 2886 
Q 3006 2619 2597 2516 
z
" transform="scale(0.015625)"/>
       </defs>
       <use xlink:href="#DejaVuSans-33"/>
       <use xlink:href="#DejaVuSans-30" x="63.623047"/>
      </g>
     </g>
    </g>
    <g id="xtick_7">
     <g id="line2d_7">
      <g>
       <use xlink:href="#m0cb2b02aa6" x="585.434927" y="499.48" style="stroke: #000000; stroke-width: 0.8"/>
      </g>
     </g>
     <g id="text_7">
      <!-- 35 -->
      <g transform="translate(571.437427 523.196563) scale(0.22 -0.22)">
       <use xlink:href="#DejaVuSans-33"/>
       <use xlink:href="#DejaVuSans-35" x="63.623047"/>
      </g>
     </g>
    </g>
    <g id="xtick_8">
     <g id="line2d_8">
      <g>
       <use xlink:href="#m0cb2b02aa6" x="658.465497" y="499.48" style="stroke: #000000; stroke-width: 0.8"/>
      </g>
     </g>
     <g id="text_8">
      <!-- 40 -->
      <g transform="translate(644.467997 523.196563) scale(0.22 -0.22)">
       <defs>
        <path id="DejaVuSans-34" d="M 2419 4116 
L 825 1625 
L 2419 1625 
L 2419 4116 
z
M 2253 4666 
L 3047 4666 
L 3047 1625 
L 3713 1625 
L 3713 1100 
L 3047 1100 
L 3047 0 
L 2419 0 
L 2419 1100 
L 313 1100 
L 313 1709 
L 2253 4666 
z
" transform="scale(0.015625)"/>
       </defs>
       <use xlink:href="#DejaVuSans-34"/>
       <use xlink:href="#DejaVuSans-30" x="63.623047"/>
      </g>
     </g>
    </g>
    <g id="text_9">
     <!-- Energy Uncertainties -->
     <g transform="translate(274.662188 548.488438) scale(0.22 -0.22)">
      <defs>
       <path id="DejaVuSans-45" d="M 628 4666 
L 3578 4666 
L 3578 4134 
L 1259 4134 
L 1259 2753 
L 3481 2753 
L 3481 2222 
L 1259 2222 
L 1259 531 
L 3634 531 
L 3634 0 
L 628 0 
L 628 4666 
z
" transform="scale(0.015625)"/>
       <path id="DejaVuSans-6e" d="M 3513 2113 
L 3513 0 
L 2938 0 
L 2938 2094 
Q 2938 2591 2744 2837 
Q 2550 3084 2163 3084 
Q 1697 3084 1428 2787 
Q 1159 2491 1159 1978 
L 1159 0 
L 581 0 
L 581 3500 
L 1159 3500 
L 1159 2956 
Q 1366 3272 1645 3428 
Q 1925 3584 2291 3584 
Q 2894 3584 3203 3211 
Q 3513 2838 3513 2113 
z
" transform="scale(0.015625)"/>
       <path id="DejaVuSans-65" d="M 3597 1894 
L 3597 1613 
L 953 1613 
Q 991 1019 1311 708 
Q 1631 397 2203 397 
Q 2534 397 2845 478 
Q 3156 559 3463 722 
L 3463 178 
Q 3153 47 2828 -22 
Q 2503 -91 2169 -91 
Q 1331 -91 842 396 
Q 353 884 353 1716 
Q 353 2575 817 3079 
Q 1281 3584 2069 3584 
Q 2775 3584 3186 3129 
Q 3597 2675 3597 1894 
z
M 3022 2063 
Q 3016 2534 2758 2815 
Q 2500 3097 2075 3097 
Q 1594 3097 1305 2825 
Q 1016 2553 972 2059 
L 3022 2063 
z
" transform="scale(0.015625)"/>
       <path id="DejaVuSans-72" d="M 2631 2963 
Q 2534 3019 2420 3045 
Q 2306 3072 2169 3072 
Q 1681 3072 1420 2755 
Q 1159 2438 1159 1844 
L 1159 0 
L 581 0 
L 581 3500 
L 1159 3500 
L 1159 2956 
Q 1341 3275 1631 3429 
Q 1922 3584 2338 3584 
Q 2397 3584 2469 3576 
Q 2541 3569 2628 3553 
L 2631 2963 
z
" transform="scale(0.015625)"/>
       <path id="DejaVuSans-67" d="M 2906 1791 
Q 2906 2416 2648 2759 
Q 2391 3103 1925 3103 
Q 1463 3103 1205 2759 
Q 947 2416 947 1791 
Q 947 1169 1205 825 
Q 1463 481 1925 481 
Q 2391 481 2648 825 
Q 2906 1169 2906 1791 
z
M 3481 434 
Q 3481 -459 3084 -895 
Q 2688 -1331 1869 -1331 
Q 1566 -1331 1297 -1286 
Q 1028 -1241 775 -1147 
L 775 -588 
Q 1028 -725 1275 -790 
Q 1522 -856 1778 -856 
Q 2344 -856 2625 -561 
Q 2906 -266 2906 331 
L 2906 616 
Q 2728 306 2450 153 
Q 2172 0 1784 0 
Q 1141 0 747 490 
Q 353 981 353 1791 
Q 353 2603 747 3093 
Q 1141 3584 1784 3584 
Q 2172 3584 2450 3431 
Q 2728 3278 2906 2969 
L 2906 3500 
L 3481 3500 
L 3481 434 
z
" transform="scale(0.015625)"/>
       <path id="DejaVuSans-79" d="M 2059 -325 
Q 1816 -950 1584 -1140 
Q 1353 -1331 966 -1331 
L 506 -1331 
L 506 -850 
L 844 -850 
Q 1081 -850 1212 -737 
Q 1344 -625 1503 -206 
L 1606 56 
L 191 3500 
L 800 3500 
L 1894 763 
L 2988 3500 
L 3597 3500 
L 2059 -325 
z
" transform="scale(0.015625)"/>
       <path id="DejaVuSans-20" transform="scale(0.015625)"/>
       <path id="DejaVuSans-55" d="M 556 4666 
L 1191 4666 
L 1191 1831 
Q 1191 1081 1462 751 
Q 1734 422 2344 422 
Q 2950 422 3222 751 
Q 3494 1081 3494 1831 
L 3494 4666 
L 4128 4666 
L 4128 1753 
Q 4128 841 3676 375 
Q 3225 -91 2344 -91 
Q 1459 -91 1007 375 
Q 556 841 556 1753 
L 556 4666 
z
" transform="scale(0.015625)"/>
       <path id="DejaVuSans-63" d="M 3122 3366 
L 3122 2828 
Q 2878 2963 2633 3030 
Q 2388 3097 2138 3097 
Q 1578 3097 1268 2742 
Q 959 2388 959 1747 
Q 959 1106 1268 751 
Q 1578 397 2138 397 
Q 2388 397 2633 464 
Q 2878 531 3122 666 
L 3122 134 
Q 2881 22 2623 -34 
Q 2366 -91 2075 -91 
Q 1284 -91 818 406 
Q 353 903 353 1747 
Q 353 2603 823 3093 
Q 1294 3584 2113 3584 
Q 2378 3584 2631 3529 
Q 2884 3475 3122 3366 
z
" transform="scale(0.015625)"/>
       <path id="DejaVuSans-74" d="M 1172 4494 
L 1172 3500 
L 2356 3500 
L 2356 3053 
L 1172 3053 
L 1172 1153 
Q 1172 725 1289 603 
Q 1406 481 1766 481 
L 2356 481 
L 2356 0 
L 1766 0 
Q 1100 0 847 248 
Q 594 497 594 1153 
L 594 3053 
L 172 3053 
L 172 3500 
L 594 3500 
L 594 4494 
L 1172 4494 
z
" transform="scale(0.015625)"/>
       <path id="DejaVuSans-61" d="M 2194 1759 
Q 1497 1759 1228 1600 
Q 959 1441 959 1056 
Q 959 750 1161 570 
Q 1363 391 1709 391 
Q 2188 391 2477 730 
Q 2766 1069 2766 1631 
L 2766 1759 
L 2194 1759 
z
M 3341 1997 
L 3341 0 
L 2766 0 
L 2766 531 
Q 2569 213 2275 61 
Q 1981 -91 1556 -91 
Q 1019 -91 701 211 
Q 384 513 384 1019 
Q 384 1609 779 1909 
Q 1175 2209 1959 2209 
L 2766 2209 
L 2766 2266 
Q 2766 2663 2505 2880 
Q 2244 3097 1772 3097 
Q 1472 3097 1187 3025 
Q 903 2953 641 2809 
L 641 3341 
Q 956 3463 1253 3523 
Q 1550 3584 1831 3584 
Q 2591 3584 2966 3190 
Q 3341 2797 3341 1997 
z
" transform="scale(0.015625)"/>
       <path id="DejaVuSans-69" d="M 603 3500 
L 1178 3500 
L 1178 0 
L 603 0 
L 603 3500 
z
M 603 4863 
L 1178 4863 
L 1178 4134 
L 603 4134 
L 603 4863 
z
" transform="scale(0.015625)"/>
       <path id="DejaVuSans-73" d="M 2834 3397 
L 2834 2853 
Q 2591 2978 2328 3040 
Q 2066 3103 1784 3103 
Q 1356 3103 1142 2972 
Q 928 2841 928 2578 
Q 928 2378 1081 2264 
Q 1234 2150 1697 2047 
L 1894 2003 
Q 2506 1872 2764 1633 
Q 3022 1394 3022 966 
Q 3022 478 2636 193 
Q 2250 -91 1575 -91 
Q 1294 -91 989 -36 
Q 684 19 347 128 
L 347 722 
Q 666 556 975 473 
Q 1284 391 1588 391 
Q 1994 391 2212 530 
Q 2431 669 2431 922 
Q 2431 1156 2273 1281 
Q 2116 1406 1581 1522 
L 1381 1569 
Q 847 1681 609 1914 
Q 372 2147 372 2553 
Q 372 3047 722 3315 
Q 1072 3584 1716 3584 
Q 2034 3584 2315 3537 
Q 2597 3491 2834 3397 
z
" transform="scale(0.015625)"/>
      </defs>
      <use xlink:href="#DejaVuSans-45"/>
      <use xlink:href="#DejaVuSans-6e" x="63.183594"/>
      <use xlink:href="#DejaVuSans-65" x="126.5625"/>
      <use xlink:href="#DejaVuSans-72" x="188.085938"/>
      <use xlink:href="#DejaVuSans-67" x="227.449219"/>
      <use xlink:href="#DejaVuSans-79" x="290.925781"/>
      <use xlink:href="#DejaVuSans-20" x="350.105469"/>
      <use xlink:href="#DejaVuSans-55" x="381.892578"/>
      <use xlink:href="#DejaVuSans-6e" x="455.085938"/>
      <use xlink:href="#DejaVuSans-63" x="518.464844"/>
      <use xlink:href="#DejaVuSans-65" x="573.445312"/>
      <use xlink:href="#DejaVuSans-72" x="634.96875"/>
      <use xlink:href="#DejaVuSans-74" x="676.082031"/>
      <use xlink:href="#DejaVuSans-61" x="715.291016"/>
      <use xlink:href="#DejaVuSans-69" x="776.570312"/>
      <use xlink:href="#DejaVuSans-6e" x="804.353516"/>
      <use xlink:href="#DejaVuSans-74" x="867.732422"/>
      <use xlink:href="#DejaVuSans-69" x="906.941406"/>
      <use xlink:href="#DejaVuSans-65" x="934.724609"/>
      <use xlink:href="#DejaVuSans-73" x="996.248047"/>
     </g>
    </g>
   </g>
   <g id="matplotlib.axis_2">
    <g id="ytick_1">
     <g id="line2d_9">
      <defs>
       <path id="m9d321c4fa8" d="M 0 0 
L -3.5 0 
" style="stroke: #000000; stroke-width: 0.8"/>
      </defs>
      <g>
       <use xlink:href="#m9d321c4fa8" x="83.72" y="450.137599" style="stroke: #000000; stroke-width: 0.8"/>
      </g>
     </g>
     <g id="text_10">
      <!-- 5 -->
      <g transform="translate(62.7225 458.49588) scale(0.22 -0.22)">
       <use xlink:href="#DejaVuSans-35"/>
      </g>
     </g>
    </g>
    <g id="ytick_2">
     <g id="line2d_10">
      <g>
       <use xlink:href="#m9d321c4fa8" x="83.72" y="393.41765" style="stroke: #000000; stroke-width: 0.8"/>
      </g>
     </g>
     <g id="text_11">
      <!-- 10 -->
      <g transform="translate(48.725 401.775931) scale(0.22 -0.22)">
       <use xlink:href="#DejaVuSans-31"/>
       <use xlink:href="#DejaVuSans-30" x="63.623047"/>
      </g>
     </g>
    </g>
    <g id="ytick_3">
     <g id="line2d_11">
      <g>
       <use xlink:href="#m9d321c4fa8" x="83.72" y="336.697702" style="stroke: #000000; stroke-width: 0.8"/>
      </g>
     </g>
     <g id="text_12">
      <!-- 15 -->
      <g transform="translate(48.725 345.055983) scale(0.22 -0.22)">
       <use xlink:href="#DejaVuSans-31"/>
       <use xlink:href="#DejaVuSans-35" x="63.623047"/>
      </g>
     </g>
    </g>
    <g id="ytick_4">
     <g id="line2d_12">
      <g>
       <use xlink:href="#m9d321c4fa8" x="83.72" y="279.977753" style="stroke: #000000; stroke-width: 0.8"/>
      </g>
     </g>
     <g id="text_13">
      <!-- 20 -->
      <g transform="translate(48.725 288.336034) scale(0.22 -0.22)">
       <use xlink:href="#DejaVuSans-32"/>
       <use xlink:href="#DejaVuSans-30" x="63.623047"/>
      </g>
     </g>
    </g>
    <g id="ytick_5">
     <g id="line2d_13">
      <g>
       <use xlink:href="#m9d321c4fa8" x="83.72" y="223.257805" style="stroke: #000000; stroke-width: 0.8"/>
      </g>
     </g>
     <g id="text_14">
      <!-- 25 -->
      <g transform="translate(48.725 231.616086) scale(0.22 -0.22)">
       <use xlink:href="#DejaVuSans-32"/>
       <use xlink:href="#DejaVuSans-35" x="63.623047"/>
      </g>
     </g>
    </g>
    <g id="ytick_6">
     <g id="line2d_14">
      <g>
       <use xlink:href="#m9d321c4fa8" x="83.72" y="166.537856" style="stroke: #000000; stroke-width: 0.8"/>
      </g>
     </g>
     <g id="text_15">
      <!-- 30 -->
      <g transform="translate(48.725 174.896137) scale(0.22 -0.22)">
       <use xlink:href="#DejaVuSans-33"/>
       <use xlink:href="#DejaVuSans-30" x="63.623047"/>
      </g>
     </g>
    </g>
    <g id="ytick_7">
     <g id="line2d_15">
      <g>
       <use xlink:href="#m9d321c4fa8" x="83.72" y="109.817907" style="stroke: #000000; stroke-width: 0.8"/>
      </g>
     </g>
     <g id="text_16">
      <!-- 35 -->
      <g transform="translate(48.725 118.176189) scale(0.22 -0.22)">
       <use xlink:href="#DejaVuSans-33"/>
       <use xlink:href="#DejaVuSans-35" x="63.623047"/>
      </g>
     </g>
    </g>
    <g id="ytick_8">
     <g id="line2d_16">
      <g>
       <use xlink:href="#m9d321c4fa8" x="83.72" y="53.097959" style="stroke: #000000; stroke-width: 0.8"/>
      </g>
     </g>
     <g id="text_17">
      <!-- 40 -->
      <g transform="translate(48.725 61.45624) scale(0.22 -0.22)">
       <use xlink:href="#DejaVuSans-34"/>
       <use xlink:href="#DejaVuSans-30" x="63.623047"/>
      </g>
     </g>
    </g>
    <g id="text_18">
     <!-- Force Errors [kJ/(mol*A)] -->
     <g transform="translate(40.149688 394.9125) rotate(-90) scale(0.22 -0.22)">
      <defs>
       <path id="DejaVuSans-46" d="M 628 4666 
L 3309 4666 
L 3309 4134 
L 1259 4134 
L 1259 2759 
L 3109 2759 
L 3109 2228 
L 1259 2228 
L 1259 0 
L 628 0 
L 628 4666 
z
" transform="scale(0.015625)"/>
       <path id="DejaVuSans-6f" d="M 1959 3097 
Q 1497 3097 1228 2736 
Q 959 2375 959 1747 
Q 959 1119 1226 758 
Q 1494 397 1959 397 
Q 2419 397 2687 759 
Q 2956 1122 2956 1747 
Q 2956 2369 2687 2733 
Q 2419 3097 1959 3097 
z
M 1959 3584 
Q 2709 3584 3137 3096 
Q 3566 2609 3566 1747 
Q 3566 888 3137 398 
Q 2709 -91 1959 -91 
Q 1206 -91 779 398 
Q 353 888 353 1747 
Q 353 2609 779 3096 
Q 1206 3584 1959 3584 
z
" transform="scale(0.015625)"/>
       <path id="DejaVuSans-5b" d="M 550 4863 
L 1875 4863 
L 1875 4416 
L 1125 4416 
L 1125 -397 
L 1875 -397 
L 1875 -844 
L 550 -844 
L 550 4863 
z
" transform="scale(0.015625)"/>
       <path id="DejaVuSans-6b" d="M 581 4863 
L 1159 4863 
L 1159 1991 
L 2875 3500 
L 3609 3500 
L 1753 1863 
L 3688 0 
L 2938 0 
L 1159 1709 
L 1159 0 
L 581 0 
L 581 4863 
z
" transform="scale(0.015625)"/>
       <path id="DejaVuSans-4a" d="M 628 4666 
L 1259 4666 
L 1259 325 
Q 1259 -519 939 -900 
Q 619 -1281 -91 -1281 
L -331 -1281 
L -331 -750 
L -134 -750 
Q 284 -750 456 -515 
Q 628 -281 628 325 
L 628 4666 
z
" transform="scale(0.015625)"/>
       <path id="DejaVuSans-2f" d="M 1625 4666 
L 2156 4666 
L 531 -594 
L 0 -594 
L 1625 4666 
z
" transform="scale(0.015625)"/>
       <path id="DejaVuSans-28" d="M 1984 4856 
Q 1566 4138 1362 3434 
Q 1159 2731 1159 2009 
Q 1159 1288 1364 580 
Q 1569 -128 1984 -844 
L 1484 -844 
Q 1016 -109 783 600 
Q 550 1309 550 2009 
Q 550 2706 781 3412 
Q 1013 4119 1484 4856 
L 1984 4856 
z
" transform="scale(0.015625)"/>
       <path id="DejaVuSans-6d" d="M 3328 2828 
Q 3544 3216 3844 3400 
Q 4144 3584 4550 3584 
Q 5097 3584 5394 3201 
Q 5691 2819 5691 2113 
L 5691 0 
L 5113 0 
L 5113 2094 
Q 5113 2597 4934 2840 
Q 4756 3084 4391 3084 
Q 3944 3084 3684 2787 
Q 3425 2491 3425 1978 
L 3425 0 
L 2847 0 
L 2847 2094 
Q 2847 2600 2669 2842 
Q 2491 3084 2119 3084 
Q 1678 3084 1418 2786 
Q 1159 2488 1159 1978 
L 1159 0 
L 581 0 
L 581 3500 
L 1159 3500 
L 1159 2956 
Q 1356 3278 1631 3431 
Q 1906 3584 2284 3584 
Q 2666 3584 2933 3390 
Q 3200 3197 3328 2828 
z
" transform="scale(0.015625)"/>
       <path id="DejaVuSans-6c" d="M 603 4863 
L 1178 4863 
L 1178 0 
L 603 0 
L 603 4863 
z
" transform="scale(0.015625)"/>
       <path id="DejaVuSans-2a" d="M 3009 3897 
L 1888 3291 
L 3009 2681 
L 2828 2375 
L 1778 3009 
L 1778 1831 
L 1422 1831 
L 1422 3009 
L 372 2375 
L 191 2681 
L 1313 3291 
L 191 3897 
L 372 4206 
L 1422 3572 
L 1422 4750 
L 1778 4750 
L 1778 3572 
L 2828 4206 
L 3009 3897 
z
" transform="scale(0.015625)"/>
       <path id="DejaVuSans-41" d="M 2188 4044 
L 1331 1722 
L 3047 1722 
L 2188 4044 
z
M 1831 4666 
L 2547 4666 
L 4325 0 
L 3669 0 
L 3244 1197 
L 1141 1197 
L 716 0 
L 50 0 
L 1831 4666 
z
" transform="scale(0.015625)"/>
       <path id="DejaVuSans-29" d="M 513 4856 
L 1013 4856 
Q 1481 4119 1714 3412 
Q 1947 2706 1947 2009 
Q 1947 1309 1714 600 
Q 1481 -109 1013 -844 
L 513 -844 
Q 928 -128 1133 580 
Q 1338 1288 1338 2009 
Q 1338 2731 1133 3434 
Q 928 4138 513 4856 
z
" transform="scale(0.015625)"/>
       <path id="DejaVuSans-5d" d="M 1947 4863 
L 1947 -844 
L 622 -844 
L 622 -397 
L 1369 -397 
L 1369 4416 
L 622 4416 
L 622 4863 
L 1947 4863 
z
" transform="scale(0.015625)"/>
      </defs>
      <use xlink:href="#DejaVuSans-46"/>
      <use xlink:href="#DejaVuSans-6f" x="53.894531"/>
      <use xlink:href="#DejaVuSans-72" x="115.076172"/>
      <use xlink:href="#DejaVuSans-63" x="153.939453"/>
      <use xlink:href="#DejaVuSans-65" x="208.919922"/>
      <use xlink:href="#DejaVuSans-20" x="270.443359"/>
      <use xlink:href="#DejaVuSans-45" x="302.230469"/>
      <use xlink:href="#DejaVuSans-72" x="365.414062"/>
      <use xlink:href="#DejaVuSans-72" x="404.777344"/>
      <use xlink:href="#DejaVuSans-6f" x="443.640625"/>
      <use xlink:href="#DejaVuSans-72" x="504.822266"/>
      <use xlink:href="#DejaVuSans-73" x="545.935547"/>
      <use xlink:href="#DejaVuSans-20" x="598.035156"/>
      <use xlink:href="#DejaVuSans-5b" x="629.822266"/>
      <use xlink:href="#DejaVuSans-6b" x="668.835938"/>
      <use xlink:href="#DejaVuSans-4a" x="726.746094"/>
      <use xlink:href="#DejaVuSans-2f" x="756.238281"/>
      <use xlink:href="#DejaVuSans-28" x="789.929688"/>
      <use xlink:href="#DejaVuSans-6d" x="828.943359"/>
      <use xlink:href="#DejaVuSans-6f" x="926.355469"/>
      <use xlink:href="#DejaVuSans-6c" x="987.537109"/>
      <use xlink:href="#DejaVuSans-2a" x="1015.320312"/>
      <use xlink:href="#DejaVuSans-41" x="1065.320312"/>
      <use xlink:href="#DejaVuSans-29" x="1133.728516"/>
      <use xlink:href="#DejaVuSans-5d" x="1172.742188"/>
     </g>
    </g>
   </g>
   <g id="line2d_17">
    <path d="M 83.72 499.48 
L 696.24 23.76 
" clip-path="url(#pf0090998c0)" style="fill: none; stroke-dasharray: 5.55,2.4; stroke-dashoffset: 0; stroke: #ff0000; stroke-width: 1.5"/>
   </g>
   <g id="patch_3">
    <path d="M 83.72 499.48 
L 83.72 23.76 
" style="fill: none; stroke: #000000; stroke-width: 0.8; stroke-linejoin: miter; stroke-linecap: square"/>
   </g>
   <g id="patch_4">
    <path d="M 696.24 499.48 
L 696.24 23.76 
" style="fill: none; stroke: #000000; stroke-width: 0.8; stroke-linejoin: miter; stroke-linecap: square"/>
   </g>
   <g id="patch_5">
    <path d="M 83.72 499.48 
L 696.24 499.48 
" style="fill: none; stroke: #000000; stroke-width: 0.8; stroke-linejoin: miter; stroke-linecap: square"/>
   </g>
   <g id="patch_6">
    <path d="M 83.72 23.76 
L 696.24 23.76 
" style="fill: none; stroke: #000000; stroke-width: 0.8; stroke-linejoin: miter; stroke-linecap: square"/>
   </g>
   <g id="text_19">
    <!-- Correlation in: 0.138 -->
    <g transform="translate(132.7216 46.696812) scale(0.22 -0.22)">
     <defs>
      <path id="DejaVuSans-43" d="M 4122 4306 
L 4122 3641 
Q 3803 3938 3442 4084 
Q 3081 4231 2675 4231 
Q 1875 4231 1450 3742 
Q 1025 3253 1025 2328 
Q 1025 1406 1450 917 
Q 1875 428 2675 428 
Q 3081 428 3442 575 
Q 3803 722 4122 1019 
L 4122 359 
Q 3791 134 3420 21 
Q 3050 -91 2638 -91 
Q 1578 -91 968 557 
Q 359 1206 359 2328 
Q 359 3453 968 4101 
Q 1578 4750 2638 4750 
Q 3056 4750 3426 4639 
Q 3797 4528 4122 4306 
z
" transform="scale(0.015625)"/>
      <path id="DejaVuSans-3a" d="M 750 794 
L 1409 794 
L 1409 0 
L 750 0 
L 750 794 
z
M 750 3309 
L 1409 3309 
L 1409 2516 
L 750 2516 
L 750 3309 
z
" transform="scale(0.015625)"/>
      <path id="DejaVuSans-2e" d="M 684 794 
L 1344 794 
L 1344 0 
L 684 0 
L 684 794 
z
" transform="scale(0.015625)"/>
      <path id="DejaVuSans-38" d="M 2034 2216 
Q 1584 2216 1326 1975 
Q 1069 1734 1069 1313 
Q 1069 891 1326 650 
Q 1584 409 2034 409 
Q 2484 409 2743 651 
Q 3003 894 3003 1313 
Q 3003 1734 2745 1975 
Q 2488 2216 2034 2216 
z
M 1403 2484 
Q 997 2584 770 2862 
Q 544 3141 544 3541 
Q 544 4100 942 4425 
Q 1341 4750 2034 4750 
Q 2731 4750 3128 4425 
Q 3525 4100 3525 3541 
Q 3525 3141 3298 2862 
Q 3072 2584 2669 2484 
Q 3125 2378 3379 2068 
Q 3634 1759 3634 1313 
Q 3634 634 3220 271 
Q 2806 -91 2034 -91 
Q 1263 -91 848 271 
Q 434 634 434 1313 
Q 434 1759 690 2068 
Q 947 2378 1403 2484 
z
M 1172 3481 
Q 1172 3119 1398 2916 
Q 1625 2713 2034 2713 
Q 2441 2713 2670 2916 
Q 2900 3119 2900 3481 
Q 2900 3844 2670 4047 
Q 2441 4250 2034 4250 
Q 1625 4250 1398 4047 
Q 1172 3844 1172 3481 
z
" transform="scale(0.015625)"/>
     </defs>
     <use xlink:href="#DejaVuSans-43"/>
     <use xlink:href="#DejaVuSans-6f" x="69.824219"/>
     <use xlink:href="#DejaVuSans-72" x="131.005859"/>
     <use xlink:href="#DejaVuSans-72" x="170.369141"/>
     <use xlink:href="#DejaVuSans-65" x="209.232422"/>
     <use xlink:href="#DejaVuSans-6c" x="270.755859"/>
     <use xlink:href="#DejaVuSans-61" x="298.539062"/>
     <use xlink:href="#DejaVuSans-74" x="359.818359"/>
     <use xlink:href="#DejaVuSans-69" x="399.027344"/>
     <use xlink:href="#DejaVuSans-6f" x="426.810547"/>
     <use xlink:href="#DejaVuSans-6e" x="487.992188"/>
     <use xlink:href="#DejaVuSans-20" x="551.371094"/>
     <use xlink:href="#DejaVuSans-69" x="583.158203"/>
     <use xlink:href="#DejaVuSans-6e" x="610.941406"/>
     <use xlink:href="#DejaVuSans-3a" x="674.320312"/>
     <use xlink:href="#DejaVuSans-20" x="708.011719"/>
     <use xlink:href="#DejaVuSans-30" x="739.798828"/>
     <use xlink:href="#DejaVuSans-2e" x="803.421875"/>
     <use xlink:href="#DejaVuSans-31" x="835.208984"/>
     <use xlink:href="#DejaVuSans-33" x="898.832031"/>
     <use xlink:href="#DejaVuSans-38" x="962.455078"/>
    </g>
    <!-- Correlation Out: 0.247 -->
    <g transform="translate(132.7216 71.332) scale(0.22 -0.22)">
     <defs>
      <path id="DejaVuSans-4f" d="M 2522 4238 
Q 1834 4238 1429 3725 
Q 1025 3213 1025 2328 
Q 1025 1447 1429 934 
Q 1834 422 2522 422 
Q 3209 422 3611 934 
Q 4013 1447 4013 2328 
Q 4013 3213 3611 3725 
Q 3209 4238 2522 4238 
z
M 2522 4750 
Q 3503 4750 4090 4092 
Q 4678 3434 4678 2328 
Q 4678 1225 4090 567 
Q 3503 -91 2522 -91 
Q 1538 -91 948 565 
Q 359 1222 359 2328 
Q 359 3434 948 4092 
Q 1538 4750 2522 4750 
z
" transform="scale(0.015625)"/>
      <path id="DejaVuSans-75" d="M 544 1381 
L 544 3500 
L 1119 3500 
L 1119 1403 
Q 1119 906 1312 657 
Q 1506 409 1894 409 
Q 2359 409 2629 706 
Q 2900 1003 2900 1516 
L 2900 3500 
L 3475 3500 
L 3475 0 
L 2900 0 
L 2900 538 
Q 2691 219 2414 64 
Q 2138 -91 1772 -91 
Q 1169 -91 856 284 
Q 544 659 544 1381 
z
M 1991 3584 
L 1991 3584 
z
" transform="scale(0.015625)"/>
      <path id="DejaVuSans-37" d="M 525 4666 
L 3525 4666 
L 3525 4397 
L 1831 0 
L 1172 0 
L 2766 4134 
L 525 4134 
L 525 4666 
z
" transform="scale(0.015625)"/>
     </defs>
     <use xlink:href="#DejaVuSans-43"/>
     <use xlink:href="#DejaVuSans-6f" x="69.824219"/>
     <use xlink:href="#DejaVuSans-72" x="131.005859"/>
     <use xlink:href="#DejaVuSans-72" x="170.369141"/>
     <use xlink:href="#DejaVuSans-65" x="209.232422"/>
     <use xlink:href="#DejaVuSans-6c" x="270.755859"/>
     <use xlink:href="#DejaVuSans-61" x="298.539062"/>
     <use xlink:href="#DejaVuSans-74" x="359.818359"/>
     <use xlink:href="#DejaVuSans-69" x="399.027344"/>
     <use xlink:href="#DejaVuSans-6f" x="426.810547"/>
     <use xlink:href="#DejaVuSans-6e" x="487.992188"/>
     <use xlink:href="#DejaVuSans-20" x="551.371094"/>
     <use xlink:href="#DejaVuSans-4f" x="583.158203"/>
     <use xlink:href="#DejaVuSans-75" x="661.869141"/>
     <use xlink:href="#DejaVuSans-74" x="725.248047"/>
     <use xlink:href="#DejaVuSans-3a" x="764.457031"/>
     <use xlink:href="#DejaVuSans-20" x="798.148438"/>
     <use xlink:href="#DejaVuSans-30" x="829.935547"/>
     <use xlink:href="#DejaVuSans-2e" x="893.558594"/>
     <use xlink:href="#DejaVuSans-32" x="925.345703"/>
     <use xlink:href="#DejaVuSans-34" x="988.96875"/>
     <use xlink:href="#DejaVuSans-37" x="1052.591797"/>
    </g>
   </g>
   <g id="legend_1">
    <g id="patch_7">
     <path d="M 407.0225 105.94375 
L 680.84 105.94375 
Q 685.24 105.94375 685.24 101.54375 
L 685.24 39.16 
Q 685.24 34.76 680.84 34.76 
L 407.0225 34.76 
Q 402.6225 34.76 402.6225 39.16 
L 402.6225 101.54375 
Q 402.6225 105.94375 407.0225 105.94375 
z
" style="fill: #ffffff; opacity: 0.8; stroke: #cccccc; stroke-linejoin: miter"/>
    </g>
    <g id="line2d_18">
     <defs>
      <path id="m04abc09bf4" d="M 0 2.5 
C 0.663008 2.5 1.29895 2.236584 1.767767 1.767767 
C 2.236584 1.29895 2.5 0.663008 2.5 0 
C 2.5 -0.663008 2.236584 -1.29895 1.767767 -1.767767 
C 1.29895 -2.236584 0.663008 -2.5 0 -2.5 
C -0.663008 -2.5 -1.29895 -2.236584 -1.767767 -1.767767 
C -2.236584 -1.29895 -2.5 -0.663008 -2.5 0 
C -2.5 0.663008 -2.236584 1.29895 -1.767767 1.767767 
C -1.29895 2.236584 -0.663008 2.5 0 2.5 
z
" style="stroke: #ffffff"/>
     </defs>
     <g>
      <use xlink:href="#m04abc09bf4" x="433.4225" y="52.576562" style="fill: #0000ff; stroke: #ffffff"/>
     </g>
    </g>
    <g id="text_20">
     <!-- In Distribution -->
     <g transform="translate(473.0225 60.276562) scale(0.22 -0.22)">
      <defs>
       <path id="DejaVuSans-49" d="M 628 4666 
L 1259 4666 
L 1259 0 
L 628 0 
L 628 4666 
z
" transform="scale(0.015625)"/>
       <path id="DejaVuSans-44" d="M 1259 4147 
L 1259 519 
L 2022 519 
Q 2988 519 3436 956 
Q 3884 1394 3884 2338 
Q 3884 3275 3436 3711 
Q 2988 4147 2022 4147 
L 1259 4147 
z
M 628 4666 
L 1925 4666 
Q 3281 4666 3915 4102 
Q 4550 3538 4550 2338 
Q 4550 1131 3912 565 
Q 3275 0 1925 0 
L 628 0 
L 628 4666 
z
" transform="scale(0.015625)"/>
       <path id="DejaVuSans-62" d="M 3116 1747 
Q 3116 2381 2855 2742 
Q 2594 3103 2138 3103 
Q 1681 3103 1420 2742 
Q 1159 2381 1159 1747 
Q 1159 1113 1420 752 
Q 1681 391 2138 391 
Q 2594 391 2855 752 
Q 3116 1113 3116 1747 
z
M 1159 2969 
Q 1341 3281 1617 3432 
Q 1894 3584 2278 3584 
Q 2916 3584 3314 3078 
Q 3713 2572 3713 1747 
Q 3713 922 3314 415 
Q 2916 -91 2278 -91 
Q 1894 -91 1617 61 
Q 1341 213 1159 525 
L 1159 0 
L 581 0 
L 581 4863 
L 1159 4863 
L 1159 2969 
z
" transform="scale(0.015625)"/>
      </defs>
      <use xlink:href="#DejaVuSans-49"/>
      <use xlink:href="#DejaVuSans-6e" x="29.492188"/>
      <use xlink:href="#DejaVuSans-20" x="92.871094"/>
      <use xlink:href="#DejaVuSans-44" x="124.658203"/>
      <use xlink:href="#DejaVuSans-69" x="201.660156"/>
      <use xlink:href="#DejaVuSans-73" x="229.443359"/>
      <use xlink:href="#DejaVuSans-74" x="281.542969"/>
      <use xlink:href="#DejaVuSans-72" x="320.751953"/>
      <use xlink:href="#DejaVuSans-69" x="361.865234"/>
      <use xlink:href="#DejaVuSans-62" x="389.648438"/>
      <use xlink:href="#DejaVuSans-75" x="453.125"/>
      <use xlink:href="#DejaVuSans-74" x="516.503906"/>
      <use xlink:href="#DejaVuSans-69" x="555.712891"/>
      <use xlink:href="#DejaVuSans-6f" x="583.496094"/>
      <use xlink:href="#DejaVuSans-6e" x="644.677734"/>
     </g>
    </g>
    <g id="line2d_19">
     <defs>
      <path id="m5722adc482" d="M 0 2.5 
C 0.663008 2.5 1.29895 2.236584 1.767767 1.767767 
C 2.236584 1.29895 2.5 0.663008 2.5 0 
C 2.5 -0.663008 2.236584 -1.29895 1.767767 -1.767767 
C 1.29895 -2.236584 0.663008 -2.5 0 -2.5 
C -0.663008 -2.5 -1.29895 -2.236584 -1.767767 -1.767767 
C -2.236584 -1.29895 -2.5 -0.663008 -2.5 0 
C -2.5 0.663008 -2.236584 1.29895 -1.767767 1.767767 
C -1.29895 2.236584 -0.663008 2.5 0 2.5 
z
" style="stroke: #ffffff"/>
     </defs>
     <g>
      <use xlink:href="#m5722adc482" x="433.4225" y="84.868437" style="fill: #008000; stroke: #ffffff"/>
     </g>
    </g>
    <g id="text_21">
     <!-- Out of Distribution -->
     <g transform="translate(473.0225 92.568437) scale(0.22 -0.22)">
      <defs>
       <path id="DejaVuSans-66" d="M 2375 4863 
L 2375 4384 
L 1825 4384 
Q 1516 4384 1395 4259 
Q 1275 4134 1275 3809 
L 1275 3500 
L 2222 3500 
L 2222 3053 
L 1275 3053 
L 1275 0 
L 697 0 
L 697 3053 
L 147 3053 
L 147 3500 
L 697 3500 
L 697 3744 
Q 697 4328 969 4595 
Q 1241 4863 1831 4863 
L 2375 4863 
z
" transform="scale(0.015625)"/>
      </defs>
      <use xlink:href="#DejaVuSans-4f"/>
      <use xlink:href="#DejaVuSans-75" x="78.710938"/>
      <use xlink:href="#DejaVuSans-74" x="142.089844"/>
      <use xlink:href="#DejaVuSans-20" x="181.298828"/>
      <use xlink:href="#DejaVuSans-6f" x="213.085938"/>
      <use xlink:href="#DejaVuSans-66" x="274.267578"/>
      <use xlink:href="#DejaVuSans-20" x="309.472656"/>
      <use xlink:href="#DejaVuSans-44" x="341.259766"/>
      <use xlink:href="#DejaVuSans-69" x="418.261719"/>
      <use xlink:href="#DejaVuSans-73" x="446.044922"/>
      <use xlink:href="#DejaVuSans-74" x="498.144531"/>
      <use xlink:href="#DejaVuSans-72" x="537.353516"/>
      <use xlink:href="#DejaVuSans-69" x="578.466797"/>
      <use xlink:href="#DejaVuSans-62" x="606.25"/>
      <use xlink:href="#DejaVuSans-75" x="669.726562"/>
      <use xlink:href="#DejaVuSans-74" x="733.105469"/>
      <use xlink:href="#DejaVuSans-69" x="772.314453"/>
      <use xlink:href="#DejaVuSans-6f" x="800.097656"/>
      <use xlink:href="#DejaVuSans-6e" x="861.279297"/>
     </g>
    </g>
   </g>
  </g>
 </g>
 <defs>
  <clipPath id="pf0090998c0">
   <rect x="83.72" y="23.76" width="612.52" height="475.72"/>
  </clipPath>
 </defs>
</svg>
