<?xml version="1.0" encoding="utf-8" standalone="no"?>
<!DOCTYPE svg PUBLIC "-//W3C//DTD SVG 1.1//EN"
  "http://www.w3.org/Graphics/SVG/1.1/DTD/svg11.dtd">
<svg xmlns:xlink="http://www.w3.org/1999/xlink" width="720pt" height="576pt" viewBox="0 0 720 576" xmlns="http://www.w3.org/2000/svg" version="1.1">
 <metadata>
  <rdf:RDF xmlns:dc="http://purl.org/dc/elements/1.1/" xmlns:cc="http://creativecommons.org/ns#" xmlns:rdf="http://www.w3.org/1999/02/22-rdf-syntax-ns#">
   <cc:Work>
    <dc:type rdf:resource="http://purl.org/dc/dcmitype/StillImage"/>
    <dc:date>2024-12-08T14:47:28.762320</dc:date>
    <dc:format>image/svg+xml</dc:format>
    <dc:creator>
     <cc:Agent>
      <dc:title>Matplotlib v3.8.4, https://matplotlib.org/</dc:title>
     </cc:Agent>
    </dc:creator>
   </cc:Work>
  </rdf:RDF>
 </metadata>
 <defs>
  <style type="text/css">*{stroke-linejoin: round; stroke-linecap: butt}</style>
 </defs>
 <g id="figure_1">
  <g id="patch_1">
   <path d="M 0 576 
L 720 576 
L 720 0 
L 0 0 
z
" style="fill: #ffffff"/>
  </g>
  <g id="axes_1">
   <g id="patch_2">
    <path d="M 69.68 499.48 
L 696.24 499.48 
L 696.24 25.857209 
L 69.68 25.857209 
z
" style="fill: #ffffff"/>
   </g>
   <g id="QuadContourSet_1">
    <path d="M 78.285476 403.976754 
L 78.637981 407.824022 
L 78.990486 410.653866 
L 79.342992 412.820151 
L 79.695497 414.521044 
L 80.048003 415.853057 
L 80.400508 416.866365 
L 80.753014 417.603326 
L 81.105519 418.114097 
L 81.458024 418.454104 
L 81.81053 418.671556 
L 82.163035 418.794334 
L 82.515541 418.825225 
L 82.868046 418.749113 
L 83.220552 418.547407 
L 83.573057 418.211444 
L 83.925562 417.749708 
L 84.278068 417.187466 
L 84.630573 416.558319 
L 84.983079 415.888159 
L 85.335584 415.176531 
L 85.68809 414.384809 
L 86.040595 413.43748 
L 86.3931 412.232723 
L 86.745606 410.651709 
L 87.098111 408.558577 
L 87.450617 405.791102 
L 87.724272 403.075264 
L 87.803122 402.76863 
L 88.155628 401.271093 
L 88.508133 399.503775 
L 88.860639 397.497767 
L 89.213144 395.359564 
L 89.565649 393.261746 
L 89.918155 391.363212 
L 90.27066 389.693358 
L 90.623166 388.088482 
L 90.924569 386.512299 
L 90.975671 386.38128 
L 91.328177 385.183027 
L 91.680682 383.253348 
L 92.033187 380.196377 
L 92.385693 375.644923 
L 92.717402 369.949334 
L 92.738198 369.705004 
L 93.090704 365.82966 
L 93.443209 361.96268 
L 93.795715 358.376221 
L 94.14822 354.995781 
L 94.321775 353.386369 
L 94.500725 352.078543 
L 94.853231 349.479021 
L 95.205736 346.762661 
L 95.558242 344.065982 
L 95.910747 341.459652 
L 96.263253 338.830477 
L 96.509542 336.823404 
L 96.615758 336.095832 
L 96.968263 333.397687 
L 97.320769 330.169255 
L 97.673274 326.164169 
L 98.02578 320.997598 
L 98.071734 320.26044 
L 98.378285 308.081888 
L 98.472816 303.697475 
L 98.378285 296.208917 
L 98.268621 287.13451 
L 98.059297 270.571545 
L 98.36436 254.00858 
L 98.378285 253.129717 
L 98.651525 237.445615 
L 98.378285 222.243426 
L 98.356281 220.88265 
L 98.02578 213.524743 
L 97.673274 205.816968 
L 97.600855 204.319685 
L 97.320769 198.533169 
L 96.968263 193.122969 
L 96.615758 189.699328 
L 96.267512 187.75672 
L 96.263253 187.723125 
L 95.910747 186.121745 
L 95.558242 185.149681 
L 95.205736 184.186911 
L 94.853231 182.86577 
L 94.500725 180.935776 
L 94.14822 178.157296 
L 93.795715 174.274703 
L 93.584396 171.193755 
L 93.443209 164.510961 
L 93.274658 154.63079 
L 93.090704 140.391233 
L 93.052295 138.067825 
L 92.738198 129.746747 
L 92.385693 123.834881 
L 92.16194 121.504861 
L 92.033187 120.042935 
L 91.680682 117.547732 
L 91.328177 116.150893 
L 90.975671 115.084647 
L 90.623166 113.762137 
L 90.27066 111.931407 
L 89.918155 109.603065 
L 89.565649 106.896114 
L 89.333786 104.941896 
L 89.213144 103.64816 
L 88.860639 99.627135 
L 88.508133 95.643859 
L 88.155628 92.121035 
L 87.803122 89.424217 
L 87.604204 88.378931 
L 87.450617 87.098185 
L 87.098111 84.908626 
L 86.745606 82.638484 
L 86.3931 79.510417 
L 86.040595 75.022687 
L 85.853329 71.815966 
L 85.68809 68.809518 
L 85.335584 61.696873 
L 84.983079 55.253001 
L 84.983079 55.253001 
L 84.630573 49.829696 
L 84.278068 46.364936 
L 83.925562 45.341536 
L 83.573057 47.017208 
L 83.220552 51.400754 
L 83.009826 55.253001 
L 82.868046 56.851704 
L 82.515541 60.978776 
L 82.163035 64.865098 
L 81.81053 68.532196 
L 81.508209 71.815966 
L 81.458024 72.179407 
L 81.105519 75.079523 
L 80.753014 79.050002 
L 80.400508 84.509256 
L 80.183876 88.378931 
L 80.048003 90.303255 
L 79.695497 94.814466 
L 79.342992 98.667495 
L 78.990486 101.727233 
L 78.637981 104.531234 
L 78.593476 104.941896 
L 78.285476 109.458431 
L 77.93297 120.607292 
L 77.91424 121.504861 
L 77.580465 133.361911 
L 77.474822 138.067825 
L 77.227959 142.830241 
L 76.875454 151.619647 
L 76.774762 154.63079 
L 76.522948 160.455148 
L 76.191374 171.193755 
L 76.170443 172.15113 
L 75.857974 187.75672 
L 75.817938 189.625036 
L 75.472528 204.319685 
L 75.465432 204.497996 
L 75.112927 213.034761 
L 74.827174 220.88265 
L 74.760421 224.031463 
L 74.517565 237.445615 
L 74.677642 254.00858 
L 74.760421 257.948442 
L 74.992645 270.571545 
L 75.112927 285.216571 
L 75.124653 287.13451 
L 75.112927 291.208691 
L 75.068031 303.697475 
L 74.991454 320.26044 
L 74.971712 336.823404 
L 75.112927 351.43515 
L 75.133618 353.386369 
L 75.465432 363.278629 
L 75.810259 369.949334 
L 75.817938 370.07259 
L 76.170443 375.601661 
L 76.522948 380.510038 
L 76.875454 385.042658 
L 76.989251 386.512299 
L 77.227959 390.8185 
L 77.580465 396.322364 
L 77.93297 400.531506 
L 78.216959 403.075264 
z
M 79.979445 386.512299 
L 79.695497 384.348261 
L 79.342992 380.894503 
L 78.990486 376.396695 
L 78.637981 370.638226 
L 78.59803 369.949334 
L 78.285476 365.001873 
L 77.93297 358.187056 
L 77.714332 353.386369 
L 77.580465 349.60277 
L 77.227959 338.160625 
L 77.189712 336.823404 
L 76.983962 320.26044 
L 76.971378 303.697475 
L 77.053881 287.13451 
L 77.163514 270.571545 
L 77.227959 262.962644 
L 77.310329 254.00858 
L 77.580465 241.600067 
L 77.682059 237.445615 
L 77.93297 229.465372 
L 78.222394 220.88265 
L 78.285476 218.377196 
L 78.637981 205.342381 
L 78.669009 204.319685 
L 78.990486 193.583567 
L 79.231937 187.75672 
L 79.342992 185.727246 
L 79.695497 180.353148 
L 80.048003 176.350955 
L 80.400508 173.265089 
L 80.68836 171.193755 
L 80.753014 170.619981 
L 81.105519 167.600923 
L 81.458024 164.765291 
L 81.81053 162.044476 
L 82.163035 159.419575 
L 82.515541 156.92412 
L 82.868046 154.63079 
L 82.868046 154.63079 
L 83.220552 151.471589 
L 83.573057 149.269926 
L 83.925562 147.939347 
L 84.278068 147.485191 
L 84.630573 147.983033 
L 84.983079 149.536368 
L 85.335584 152.222737 
L 85.566767 154.63079 
L 85.68809 155.618408 
L 86.040595 158.812623 
L 86.3931 162.076027 
L 86.745606 165.039359 
L 87.098111 167.49227 
L 87.450617 169.489237 
L 87.774932 171.193755 
L 87.803122 171.320521 
L 88.155628 173.128057 
L 88.508133 175.736745 
L 88.860639 179.535604 
L 89.213144 184.803924 
L 89.374424 187.75672 
L 89.565649 190.20705 
L 89.918155 195.218928 
L 90.27066 200.649897 
L 90.510837 204.319685 
L 90.623166 205.434918 
L 90.975671 208.717953 
L 91.328177 212.101951 
L 91.680682 215.941576 
L 92.033187 220.726155 
L 92.04326 220.88265 
L 92.385693 227.39917 
L 92.738198 236.479756 
L 92.772905 237.445615 
L 93.090704 248.069161 
L 93.263226 254.00858 
L 93.443209 261.595243 
L 93.640958 270.571545 
L 93.711799 287.13451 
L 93.443209 301.828931 
L 93.411273 303.697475 
L 93.090704 313.03955 
L 92.845957 320.26044 
L 92.738198 322.866901 
L 92.385693 331.868719 
L 92.191413 336.823404 
L 92.033187 340.300974 
L 91.680682 347.324853 
L 91.328177 352.750105 
L 91.279899 353.386369 
L 90.975671 357.535969 
L 90.623166 361.11166 
L 90.27066 363.851734 
L 89.918155 366.157124 
L 89.565649 368.289905 
L 89.291492 369.949334 
L 89.213144 370.670331 
L 88.860639 374.065302 
L 88.508133 377.148131 
L 88.155628 379.837357 
L 87.803122 382.114804 
L 87.450617 384.011176 
L 87.098111 385.577783 
L 86.847982 386.512299 
L 86.745606 387.249761 
L 86.3931 389.392724 
L 86.040595 391.092588 
L 85.68809 392.470647 
L 85.335584 393.631023 
L 84.983079 394.65077 
L 84.630573 395.568614 
L 84.278068 396.382233 
L 83.925562 397.05863 
L 83.573057 397.553215 
L 83.220552 397.828652 
L 82.868046 397.866575 
L 82.515541 397.668946 
L 82.163035 397.247778 
L 81.81053 396.604662 
L 81.458024 395.707321 
L 81.105519 394.474194 
L 80.753014 392.773167 
L 80.400508 390.430636 
L 80.048003 387.24263 
z
" clip-path="url(#p2ecd692583)" style="fill: #f0f6fd"/>
    <path d="M 80.048003 387.24263 
L 80.400508 390.430636 
L 80.753014 392.773167 
L 81.105519 394.474194 
L 81.458024 395.707321 
L 81.81053 396.604662 
L 82.163035 397.247778 
L 82.515541 397.668946 
L 82.868046 397.866575 
L 83.220552 397.828652 
L 83.573057 397.553215 
L 83.925562 397.05863 
L 84.278068 396.382233 
L 84.630573 395.568614 
L 84.983079 394.65077 
L 85.335584 393.631023 
L 85.68809 392.470647 
L 86.040595 391.092588 
L 86.3931 389.392724 
L 86.745606 387.249761 
L 86.847982 386.512299 
L 87.098111 385.577783 
L 87.450617 384.011176 
L 87.803122 382.114804 
L 88.155628 379.837357 
L 88.508133 377.148131 
L 88.860639 374.065302 
L 89.213144 370.670331 
L 89.291492 369.949334 
L 89.565649 368.289905 
L 89.918155 366.157124 
L 90.27066 363.851734 
L 90.623166 361.11166 
L 90.975671 357.535969 
L 91.279899 353.386369 
L 91.328177 352.750105 
L 91.680682 347.324853 
L 92.033187 340.300974 
L 92.191413 336.823404 
L 92.385693 331.868719 
L 92.738198 322.866901 
L 92.845957 320.26044 
L 93.090704 313.03955 
L 93.411273 303.697475 
L 93.443209 301.828931 
L 93.711799 287.13451 
L 93.640958 270.571545 
L 93.443209 261.595243 
L 93.263226 254.00858 
L 93.090704 248.069161 
L 92.772905 237.445615 
L 92.738198 236.479756 
L 92.385693 227.39917 
L 92.04326 220.88265 
L 92.033187 220.726155 
L 91.680682 215.941576 
L 91.328177 212.101951 
L 90.975671 208.717953 
L 90.623166 205.434918 
L 90.510837 204.319685 
L 90.27066 200.649897 
L 89.918155 195.218928 
L 89.565649 190.20705 
L 89.374424 187.75672 
L 89.213144 184.803924 
L 88.860639 179.535604 
L 88.508133 175.736745 
L 88.155628 173.128057 
L 87.803122 171.320521 
L 87.774932 171.193755 
L 87.450617 169.489237 
L 87.098111 167.49227 
L 86.745606 165.039359 
L 86.3931 162.076027 
L 86.040595 158.812623 
L 85.68809 155.618408 
L 85.566767 154.63079 
L 85.335584 152.222737 
L 84.983079 149.536368 
L 84.630573 147.983033 
L 84.278068 147.485191 
L 83.925562 147.939347 
L 83.573057 149.269926 
L 83.220552 151.471589 
L 82.868046 154.63079 
L 82.868046 154.63079 
L 82.515541 156.92412 
L 82.163035 159.419575 
L 81.81053 162.044476 
L 81.458024 164.765291 
L 81.105519 167.600923 
L 80.753014 170.619981 
L 80.68836 171.193755 
L 80.400508 173.265089 
L 80.048003 176.350955 
L 79.695497 180.353148 
L 79.342992 185.727246 
L 79.231937 187.75672 
L 78.990486 193.583567 
L 78.669009 204.319685 
L 78.637981 205.342381 
L 78.285476 218.377196 
L 78.222394 220.88265 
L 77.93297 229.465372 
L 77.682059 237.445615 
L 77.580465 241.600067 
L 77.310329 254.00858 
L 77.227959 262.962644 
L 77.163514 270.571545 
L 77.053881 287.13451 
L 76.971378 303.697475 
L 76.983962 320.26044 
L 77.189712 336.823404 
L 77.227959 338.160625 
L 77.580465 349.60277 
L 77.714332 353.386369 
L 77.93297 358.187056 
L 78.285476 365.001873 
L 78.59803 369.949334 
L 78.637981 370.638226 
L 78.990486 376.396695 
L 79.342992 380.894503 
L 79.695497 384.348261 
L 79.979445 386.512299 
z
M 80.18372 369.949334 
L 80.048003 368.553901 
L 79.695497 364.110663 
L 79.342992 358.308567 
L 79.096537 353.386369 
L 78.990486 350.803856 
L 78.637981 341.280165 
L 78.490189 336.823404 
L 78.285476 323.480171 
L 78.235169 320.26044 
L 78.236084 303.697475 
L 78.285476 298.155136 
L 78.378133 287.13451 
L 78.583586 270.571545 
L 78.637981 267.285202 
L 78.862274 254.00858 
L 78.990486 249.100684 
L 79.328518 237.445615 
L 79.342992 237.005287 
L 79.695497 227.115145 
L 79.978942 220.88265 
L 80.048003 219.106029 
L 80.400508 211.41381 
L 80.753014 205.690107 
L 80.85415 204.319685 
L 81.105519 200.642795 
L 81.458024 196.437528 
L 81.81053 193.042476 
L 82.163035 190.207785 
L 82.515541 187.75672 
L 82.515541 187.75672 
L 82.868046 185.043175 
L 83.220552 182.765333 
L 83.573057 181.075731 
L 83.925562 180.168549 
L 84.278068 180.250141 
L 84.630573 181.477134 
L 84.983079 183.869024 
L 85.335584 187.250913 
L 85.381496 187.75672 
L 85.68809 190.719706 
L 86.040595 194.187698 
L 86.3931 197.561037 
L 86.745606 200.857002 
L 87.098111 204.201679 
L 87.110573 204.319685 
L 87.450617 206.865315 
L 87.803122 209.72513 
L 88.155628 212.904598 
L 88.508133 216.471767 
L 88.860639 220.471954 
L 88.894638 220.88265 
L 89.213144 224.085976 
L 89.565649 228.033198 
L 89.918155 232.360074 
L 90.27066 237.102733 
L 90.29522 237.445615 
L 90.623166 242.736141 
L 90.975671 249.811337 
L 91.150552 254.00858 
L 91.328177 259.258245 
L 91.661342 270.571545 
L 91.680682 271.822453 
L 91.898728 287.13451 
L 91.757028 303.697475 
L 91.680682 306.821471 
L 91.377324 320.26044 
L 91.328177 321.652753 
L 90.975671 330.996377 
L 90.715751 336.823404 
L 90.623166 338.322633 
L 90.27066 343.277019 
L 89.918155 347.365661 
L 89.565649 351.006735 
L 89.330372 353.386369 
L 89.213144 354.620198 
L 88.860639 358.366216 
L 88.508133 361.789539 
L 88.155628 364.818947 
L 87.803122 367.422605 
L 87.450617 369.615498 
L 87.389914 369.949334 
L 87.098111 372.223358 
L 86.745606 374.468682 
L 86.3931 376.276287 
L 86.040595 377.738777 
L 85.68809 378.940116 
L 85.335584 379.956042 
L 84.983079 380.845757 
L 84.630573 381.639461 
L 84.278068 382.330738 
L 83.925562 382.881091 
L 83.573057 383.23644 
L 83.220552 383.347842 
L 82.868046 383.186847 
L 82.515541 382.748856 
L 82.163035 382.041492 
L 81.81053 381.059667 
L 81.458024 379.756175 
L 81.105519 378.020895 
L 80.753014 375.675489 
L 80.400508 372.478798 
z
" clip-path="url(#p2ecd692583)" style="fill: #deebf7"/>
    <path d="M 80.400508 372.478798 
L 80.753014 375.675489 
L 81.105519 378.020895 
L 81.458024 379.756175 
L 81.81053 381.059667 
L 82.163035 382.041492 
L 82.515541 382.748856 
L 82.868046 383.186847 
L 83.220552 383.347842 
L 83.573057 383.23644 
L 83.925562 382.881091 
L 84.278068 382.330738 
L 84.630573 381.639461 
L 84.983079 380.845757 
L 85.335584 379.956042 
L 85.68809 378.940116 
L 86.040595 377.738777 
L 86.3931 376.276287 
L 86.745606 374.468682 
L 87.098111 372.223358 
L 87.389914 369.949334 
L 87.450617 369.615498 
L 87.803122 367.422605 
L 88.155628 364.818947 
L 88.508133 361.789539 
L 88.860639 358.366216 
L 89.213144 354.620198 
L 89.330372 353.386369 
L 89.565649 351.006735 
L 89.918155 347.365661 
L 90.27066 343.277019 
L 90.623166 338.322633 
L 90.715751 336.823404 
L 90.975671 330.996377 
L 91.328177 321.652753 
L 91.377324 320.26044 
L 91.680682 306.821471 
L 91.757028 303.697475 
L 91.898728 287.13451 
L 91.680682 271.822453 
L 91.661342 270.571545 
L 91.328177 259.258245 
L 91.150552 254.00858 
L 90.975671 249.811337 
L 90.623166 242.736141 
L 90.29522 237.445615 
L 90.27066 237.102733 
L 89.918155 232.360074 
L 89.565649 228.033198 
L 89.213144 224.085976 
L 88.894638 220.88265 
L 88.860639 220.471954 
L 88.508133 216.471767 
L 88.155628 212.904598 
L 87.803122 209.72513 
L 87.450617 206.865315 
L 87.110573 204.319685 
L 87.098111 204.201679 
L 86.745606 200.857002 
L 86.3931 197.561037 
L 86.040595 194.187698 
L 85.68809 190.719706 
L 85.381496 187.75672 
L 85.335584 187.250913 
L 84.983079 183.869024 
L 84.630573 181.477134 
L 84.278068 180.250141 
L 83.925562 180.168549 
L 83.573057 181.075731 
L 83.220552 182.765333 
L 82.868046 185.043175 
L 82.515541 187.75672 
L 82.515541 187.75672 
L 82.163035 190.207785 
L 81.81053 193.042476 
L 81.458024 196.437528 
L 81.105519 200.642795 
L 80.85415 204.319685 
L 80.753014 205.690107 
L 80.400508 211.41381 
L 80.048003 219.106029 
L 79.978942 220.88265 
L 79.695497 227.115145 
L 79.342992 237.005287 
L 79.328518 237.445615 
L 78.990486 249.100684 
L 78.862274 254.00858 
L 78.637981 267.285202 
L 78.583586 270.571545 
L 78.378133 287.13451 
L 78.285476 298.155136 
L 78.236084 303.697475 
L 78.235169 320.26044 
L 78.285476 323.480171 
L 78.490189 336.823404 
L 78.637981 341.280165 
L 78.990486 350.803856 
L 79.096537 353.386369 
L 79.342992 358.308567 
L 79.695497 364.110663 
L 80.048003 368.553901 
L 80.18372 369.949334 
z
M 81.936328 369.949334 
L 81.81053 369.484532 
L 81.458024 367.856949 
L 81.105519 365.728021 
L 80.753014 362.888935 
L 80.400508 359.066981 
L 80.048003 353.935703 
L 80.015418 353.386369 
L 79.695497 346.825266 
L 79.342992 337.740158 
L 79.310124 336.823404 
L 79.028014 320.26044 
L 79.039597 303.697475 
L 79.206747 287.13451 
L 79.342992 277.831626 
L 79.451559 270.571545 
L 79.695497 258.767868 
L 79.806665 254.00858 
L 80.048003 246.503854 
L 80.400508 237.709463 
L 80.412706 237.445615 
L 80.753014 230.470392 
L 81.105519 224.689246 
L 81.383376 220.88265 
L 81.458024 219.710965 
L 81.81053 214.881495 
L 82.163035 211.011987 
L 82.515541 207.945817 
L 82.868046 205.613031 
L 83.155465 204.319685 
L 83.220552 203.973391 
L 83.573057 203.081638 
L 83.925562 203.282017 
L 84.194461 204.319685 
L 84.278068 204.608952 
L 84.630573 206.682022 
L 84.983079 209.371216 
L 85.335584 212.316473 
L 85.68809 215.261528 
L 86.040595 218.14798 
L 86.369708 220.88265 
L 86.3931 221.022365 
L 86.745606 223.273673 
L 87.098111 225.834628 
L 87.450617 228.803132 
L 87.803122 232.23797 
L 88.155628 236.154832 
L 88.265592 237.445615 
L 88.508133 240.077416 
L 88.860639 244.404392 
L 89.213144 249.411551 
L 89.499522 254.00858 
L 89.565649 255.264727 
L 89.918155 262.559609 
L 90.240946 270.571545 
L 90.27066 271.712883 
L 90.623166 287.13451 
L 90.623166 287.13451 
L 90.632876 303.697475 
L 90.623166 304.169867 
L 90.297597 320.26044 
L 90.27066 320.885709 
L 89.918155 328.535066 
L 89.565649 335.366179 
L 89.491371 336.823404 
L 89.213144 340.587552 
L 88.860639 345.162105 
L 88.508133 349.458426 
L 88.157791 353.386369 
L 88.155628 353.41014 
L 87.803122 357.060366 
L 87.450617 360.095198 
L 87.098111 362.589105 
L 86.745606 364.626173 
L 86.3931 366.284865 
L 86.040595 367.636327 
L 85.68809 368.74836 
L 85.335584 369.686028 
L 85.222801 369.949334 
L 84.983079 370.728276 
L 84.630573 371.71731 
L 84.278068 372.536204 
L 83.925562 373.137571 
L 83.573057 373.451587 
L 83.220552 373.413809 
L 82.868046 372.986861 
L 82.515541 372.16556 
L 82.163035 370.959832 
z
" clip-path="url(#p2ecd692583)" style="fill: #caddf0"/>
    <path d="M 82.163035 370.959832 
L 82.515541 372.16556 
L 82.868046 372.986861 
L 83.220552 373.413809 
L 83.573057 373.451587 
L 83.925562 373.137571 
L 84.278068 372.536204 
L 84.630573 371.71731 
L 84.983079 370.728276 
L 85.222801 369.949334 
L 85.335584 369.686028 
L 85.68809 368.74836 
L 86.040595 367.636327 
L 86.3931 366.284865 
L 86.745606 364.626173 
L 87.098111 362.589105 
L 87.450617 360.095198 
L 87.803122 357.060366 
L 88.155628 353.41014 
L 88.157791 353.386369 
L 88.508133 349.458426 
L 88.860639 345.162105 
L 89.213144 340.587552 
L 89.491371 336.823404 
L 89.565649 335.366179 
L 89.918155 328.535066 
L 90.27066 320.885709 
L 90.297597 320.26044 
L 90.623166 304.169867 
L 90.632876 303.697475 
L 90.623166 287.13451 
L 90.623166 287.13451 
L 90.27066 271.712883 
L 90.240946 270.571545 
L 89.918155 262.559609 
L 89.565649 255.264727 
L 89.499522 254.00858 
L 89.213144 249.411551 
L 88.860639 244.404392 
L 88.508133 240.077416 
L 88.265592 237.445615 
L 88.155628 236.154832 
L 87.803122 232.23797 
L 87.450617 228.803132 
L 87.098111 225.834628 
L 86.745606 223.273673 
L 86.3931 221.022365 
L 86.369708 220.88265 
L 86.040595 218.14798 
L 85.68809 215.261528 
L 85.335584 212.316473 
L 84.983079 209.371216 
L 84.630573 206.682022 
L 84.278068 204.608952 
L 84.194461 204.319685 
L 83.925562 203.282017 
L 83.573057 203.081638 
L 83.220552 203.973391 
L 83.155465 204.319685 
L 82.868046 205.613031 
L 82.515541 207.945817 
L 82.163035 211.011987 
L 81.81053 214.881495 
L 81.458024 219.710965 
L 81.383376 220.88265 
L 81.105519 224.689246 
L 80.753014 230.470392 
L 80.412706 237.445615 
L 80.400508 237.709463 
L 80.048003 246.503854 
L 79.806665 254.00858 
L 79.695497 258.767868 
L 79.451559 270.571545 
L 79.342992 277.831626 
L 79.206747 287.13451 
L 79.039597 303.697475 
L 79.028014 320.26044 
L 79.310124 336.823404 
L 79.342992 337.740158 
L 79.695497 346.825266 
L 80.015418 353.386369 
L 80.048003 353.935703 
L 80.400508 359.066981 
L 80.753014 362.888935 
L 81.105519 365.728021 
L 81.458024 367.856949 
L 81.81053 369.484532 
L 81.936328 369.949334 
z
M 80.970712 353.386369 
L 80.753014 350.723072 
L 80.400508 345.150992 
L 80.048003 337.818959 
L 80.006267 336.823404 
L 79.695497 320.839544 
L 79.684973 320.26044 
L 79.695497 309.448899 
L 79.700819 303.697475 
L 79.882834 287.13451 
L 80.048003 277.395824 
L 80.172399 270.571545 
L 80.400508 261.785873 
L 80.646406 254.00858 
L 80.753014 251.374719 
L 81.105519 243.927909 
L 81.458024 238.00742 
L 81.496709 237.445615 
L 81.81053 232.803218 
L 82.163035 228.556923 
L 82.515541 225.285803 
L 82.868046 223.01856 
L 83.220552 221.800416 
L 83.573057 221.644098 
L 83.925562 222.475417 
L 84.278068 224.093139 
L 84.630573 226.186335 
L 84.983079 228.430465 
L 85.335584 230.613221 
L 85.68809 232.702984 
L 86.040595 234.824901 
L 86.3931 237.185112 
L 86.426765 237.445615 
L 86.745606 239.392679 
L 87.098111 242.094887 
L 87.450617 245.485523 
L 87.803122 249.657613 
L 88.113647 254.00858 
L 88.155628 254.699507 
L 88.508133 260.88361 
L 88.860639 267.948699 
L 88.984787 270.571545 
L 89.213144 277.815563 
L 89.488027 287.13451 
L 89.565649 297.340896 
L 89.610465 303.697475 
L 89.565649 306.018088 
L 89.309507 320.26044 
L 89.213144 322.312385 
L 88.860639 329.936469 
L 88.545793 336.823404 
L 88.508133 337.354842 
L 88.155628 342.229971 
L 87.803122 346.548041 
L 87.450617 350.266608 
L 87.098111 353.386369 
L 87.098111 353.386369 
L 86.745606 355.968456 
L 86.3931 358.048572 
L 86.040595 359.716063 
L 85.68809 361.051282 
L 85.335584 362.129108 
L 84.983079 363.013494 
L 84.630573 363.743893 
L 84.278068 364.321349 
L 83.925562 364.704961 
L 83.573057 364.825539 
L 83.220552 364.612931 
L 82.868046 364.022825 
L 82.515541 363.045865 
L 82.163035 361.689175 
L 81.81053 359.934966 
L 81.458024 357.695247 
L 81.105519 354.784332 
z
" clip-path="url(#p2ecd692583)" style="fill: #aacfe5"/>
    <path d="M 81.105519 354.784332 
L 81.458024 357.695247 
L 81.81053 359.934966 
L 82.163035 361.689175 
L 82.515541 363.045865 
L 82.868046 364.022825 
L 83.220552 364.612931 
L 83.573057 364.825539 
L 83.925562 364.704961 
L 84.278068 364.321349 
L 84.630573 363.743893 
L 84.983079 363.013494 
L 85.335584 362.129108 
L 85.68809 361.051282 
L 86.040595 359.716063 
L 86.3931 358.048572 
L 86.745606 355.968456 
L 87.098111 353.386369 
L 87.098111 353.386369 
L 87.450617 350.266608 
L 87.803122 346.548041 
L 88.155628 342.229971 
L 88.508133 337.354842 
L 88.545793 336.823404 
L 88.860639 329.936469 
L 89.213144 322.312385 
L 89.309507 320.26044 
L 89.565649 306.018088 
L 89.610465 303.697475 
L 89.565649 297.340896 
L 89.488027 287.13451 
L 89.213144 277.815563 
L 88.984787 270.571545 
L 88.860639 267.948699 
L 88.508133 260.88361 
L 88.155628 254.699507 
L 88.113647 254.00858 
L 87.803122 249.657613 
L 87.450617 245.485523 
L 87.098111 242.094887 
L 86.745606 239.392679 
L 86.426765 237.445615 
L 86.3931 237.185112 
L 86.040595 234.824901 
L 85.68809 232.702984 
L 85.335584 230.613221 
L 84.983079 228.430465 
L 84.630573 226.186335 
L 84.278068 224.093139 
L 83.925562 222.475417 
L 83.573057 221.644098 
L 83.220552 221.800416 
L 82.868046 223.01856 
L 82.515541 225.285803 
L 82.163035 228.556923 
L 81.81053 232.803218 
L 81.496709 237.445615 
L 81.458024 238.00742 
L 81.105519 243.927909 
L 80.753014 251.374719 
L 80.646406 254.00858 
L 80.400508 261.785873 
L 80.172399 270.571545 
L 80.048003 277.395824 
L 79.882834 287.13451 
L 79.700819 303.697475 
L 79.695497 309.448899 
L 79.684973 320.26044 
L 79.695497 320.839544 
L 80.006267 336.823404 
L 80.048003 337.818959 
L 80.400508 345.150992 
L 80.753014 350.723072 
L 80.970712 353.386369 
z
M 82.403218 353.386369 
L 82.163035 352.071026 
L 81.81053 349.639303 
L 81.458024 346.530711 
L 81.105519 342.478248 
L 80.753014 337.121545 
L 80.736593 336.823404 
L 80.400508 323.934327 
L 80.319887 320.26044 
L 80.325411 303.697475 
L 80.400508 297.335179 
L 80.521934 287.13451 
L 80.753014 275.881099 
L 80.875795 270.571545 
L 81.105519 263.781342 
L 81.458024 255.47073 
L 81.533 254.00858 
L 81.81053 249.265281 
L 82.163035 244.458882 
L 82.515541 240.893269 
L 82.868046 238.562323 
L 83.220552 237.449194 
L 83.573057 237.445615 
L 83.925562 238.31791 
L 84.278068 239.741465 
L 84.630573 241.389971 
L 84.983079 243.033352 
L 85.335584 244.595788 
L 85.68809 246.153957 
L 86.040595 247.891102 
L 86.3931 250.038744 
L 86.745606 252.830475 
L 86.864845 254.00858 
L 87.098111 256.514505 
L 87.450617 261.380749 
L 87.803122 267.547604 
L 87.955949 270.571545 
L 88.155628 277.06168 
L 88.453861 287.13451 
L 88.508133 291.96318 
L 88.643245 303.697475 
L 88.508133 313.984016 
L 88.435767 320.26044 
L 88.155628 326.812479 
L 87.803122 334.856243 
L 87.712106 336.823404 
L 87.450617 340.063687 
L 87.098111 343.810481 
L 86.745606 346.90053 
L 86.3931 349.40047 
L 86.040595 351.387657 
L 85.68809 352.945909 
L 85.561833 353.386369 
L 85.335584 354.167734 
L 84.983079 355.122003 
L 84.630573 355.85398 
L 84.278068 356.372716 
L 83.925562 356.641997 
L 83.573057 356.593054 
L 83.220552 356.152756 
L 82.868046 355.272485 
L 82.515541 353.938319 
z
" clip-path="url(#p2ecd692583)" style="fill: #7fb9da"/>
    <path d="M 82.515541 353.938319 
L 82.868046 355.272485 
L 83.220552 356.152756 
L 83.573057 356.593054 
L 83.925562 356.641997 
L 84.278068 356.372716 
L 84.630573 355.85398 
L 84.983079 355.122003 
L 85.335584 354.167734 
L 85.561833 353.386369 
L 85.68809 352.945909 
L 86.040595 351.387657 
L 86.3931 349.40047 
L 86.745606 346.90053 
L 87.098111 343.810481 
L 87.450617 340.063687 
L 87.712106 336.823404 
L 87.803122 334.856243 
L 88.155628 326.812479 
L 88.435767 320.26044 
L 88.508133 313.984016 
L 88.643245 303.697475 
L 88.508133 291.96318 
L 88.453861 287.13451 
L 88.155628 277.06168 
L 87.955949 270.571545 
L 87.803122 267.547604 
L 87.450617 261.380749 
L 87.098111 256.514505 
L 86.864845 254.00858 
L 86.745606 252.830475 
L 86.3931 250.038744 
L 86.040595 247.891102 
L 85.68809 246.153957 
L 85.335584 244.595788 
L 84.983079 243.033352 
L 84.630573 241.389971 
L 84.278068 239.741465 
L 83.925562 238.31791 
L 83.573057 237.445615 
L 83.220552 237.449194 
L 82.868046 238.562323 
L 82.515541 240.893269 
L 82.163035 244.458882 
L 81.81053 249.265281 
L 81.533 254.00858 
L 81.458024 255.47073 
L 81.105519 263.781342 
L 80.875795 270.571545 
L 80.753014 275.881099 
L 80.521934 287.13451 
L 80.400508 297.335179 
L 80.325411 303.697475 
L 80.319887 320.26044 
L 80.400508 323.934327 
L 80.736593 336.823404 
L 80.753014 337.121545 
L 81.105519 342.478248 
L 81.458024 346.530711 
L 81.81053 349.639303 
L 82.163035 352.071026 
L 82.403218 353.386369 
z
M 81.729374 336.823404 
L 81.458024 331.544298 
L 81.105519 322.156894 
L 81.04814 320.26044 
L 81.004391 303.697475 
L 81.105519 295.462056 
L 81.209948 287.13451 
L 81.458024 277.533573 
L 81.672658 270.571545 
L 81.81053 267.519245 
L 82.163035 261.249946 
L 82.515541 256.721575 
L 82.839418 254.00858 
L 82.868046 253.777735 
L 83.220552 252.216068 
L 83.573057 251.875147 
L 83.925562 252.476863 
L 84.278068 253.670152 
L 84.359305 254.00858 
L 84.630573 255.014592 
L 84.983079 256.375481 
L 85.335584 257.775652 
L 85.68809 259.347727 
L 86.040595 261.329501 
L 86.3931 264.020288 
L 86.745606 267.739764 
L 86.950889 270.571545 
L 87.098111 273.876671 
L 87.450617 283.868992 
L 87.551431 287.13451 
L 87.74366 303.697475 
L 87.586207 320.26044 
L 87.450617 323.363526 
L 87.098111 330.721315 
L 86.745606 336.823404 
L 86.745606 336.823404 
L 86.3931 339.805111 
L 86.040595 342.166037 
L 85.68809 343.987952 
L 85.335584 345.355581 
L 84.983079 346.348886 
L 84.630573 347.027546 
L 84.278068 347.41273 
L 83.925562 347.47682 
L 83.573057 347.152175 
L 83.220552 346.36084 
L 82.868046 345.048299 
L 82.515541 343.19153 
L 82.163035 340.765242 
L 81.81053 337.683193 
z
" clip-path="url(#p2ecd692583)" style="fill: #539ecd"/>
    <path d="M 81.81053 337.683193 
L 82.163035 340.765242 
L 82.515541 343.19153 
L 82.868046 345.048299 
L 83.220552 346.36084 
L 83.573057 347.152175 
L 83.925562 347.47682 
L 84.278068 347.41273 
L 84.630573 347.027546 
L 84.983079 346.348886 
L 85.335584 345.355581 
L 85.68809 343.987952 
L 86.040595 342.166037 
L 86.3931 339.805111 
L 86.745606 336.823404 
L 86.745606 336.823404 
L 87.098111 330.721315 
L 87.450617 323.363526 
L 87.586207 320.26044 
L 87.74366 303.697475 
L 87.551431 287.13451 
L 87.450617 283.868992 
L 87.098111 273.876671 
L 86.950889 270.571545 
L 86.745606 267.739764 
L 86.3931 264.020288 
L 86.040595 261.329501 
L 85.68809 259.347727 
L 85.335584 257.775652 
L 84.983079 256.375481 
L 84.630573 255.014592 
L 84.359305 254.00858 
L 84.278068 253.670152 
L 83.925562 252.476863 
L 83.573057 251.875147 
L 83.220552 252.216068 
L 82.868046 253.777735 
L 82.839418 254.00858 
L 82.515541 256.721575 
L 82.163035 261.249946 
L 81.81053 267.519245 
L 81.672658 270.571545 
L 81.458024 277.533573 
L 81.209948 287.13451 
L 81.105519 295.462056 
L 81.004391 303.697475 
L 81.04814 320.26044 
L 81.105519 322.156894 
L 81.458024 331.544298 
L 81.729374 336.823404 
z
M 83.249734 336.823404 
L 83.220552 336.677231 
L 82.868046 334.103221 
L 82.515541 330.515804 
L 82.163035 325.682459 
L 81.865316 320.26044 
L 81.81053 315.758745 
L 81.698851 303.697475 
L 81.81053 294.899893 
L 81.915982 287.13451 
L 82.163035 280.114604 
L 82.515541 272.538117 
L 82.646106 270.571545 
L 82.868046 268.225171 
L 83.220552 266.008619 
L 83.573057 265.117293 
L 83.925562 265.21294 
L 84.278068 265.943983 
L 84.630573 267.027458 
L 84.983079 268.310309 
L 85.335584 269.794057 
L 85.486982 270.571545 
L 85.68809 271.957557 
L 86.040595 275.33277 
L 86.3931 280.293221 
L 86.730642 287.13451 
L 86.745606 288.005404 
L 86.970828 303.697475 
L 86.773611 320.26044 
L 86.745606 320.799276 
L 86.3931 326.625351 
L 86.040595 331.125271 
L 85.68809 334.462458 
L 85.335584 336.823404 
L 85.335584 336.823404 
L 84.983079 337.853355 
L 84.630573 338.461905 
L 84.278068 338.679725 
L 83.925562 338.496002 
L 83.573057 337.864497 
z
" clip-path="url(#p2ecd692583)" style="fill: #2e7ebc"/>
    <path d="M 83.573057 337.864497 
L 83.925562 338.496002 
L 84.278068 338.679725 
L 84.630573 338.461905 
L 84.983079 337.853355 
L 85.335584 336.823404 
L 85.335584 336.823404 
L 85.68809 334.462458 
L 86.040595 331.125271 
L 86.3931 326.625351 
L 86.745606 320.799276 
L 86.773611 320.26044 
L 86.970828 303.697475 
L 86.745606 288.005404 
L 86.730642 287.13451 
L 86.3931 280.293221 
L 86.040595 275.33277 
L 85.68809 271.957557 
L 85.486982 270.571545 
L 85.335584 269.794057 
L 84.983079 268.310309 
L 84.630573 267.027458 
L 84.278068 265.943983 
L 83.925562 265.21294 
L 83.573057 265.117293 
L 83.220552 266.008619 
L 82.868046 268.225171 
L 82.646106 270.571545 
L 82.515541 272.538117 
L 82.163035 280.114604 
L 81.915982 287.13451 
L 81.81053 294.899893 
L 81.698851 303.697475 
L 81.81053 315.758745 
L 81.865316 320.26044 
L 82.163035 325.682459 
L 82.515541 330.515804 
L 82.868046 334.103221 
L 83.220552 336.677231 
L 83.249734 336.823404 
z
M 83.047921 320.26044 
L 82.868046 315.412654 
L 82.564535 303.697475 
L 82.868046 287.13451 
L 82.868046 287.13451 
L 83.220552 282.974692 
L 83.573057 280.776371 
L 83.925562 280.064817 
L 84.278068 280.38606 
L 84.630573 281.41813 
L 84.983079 283.029535 
L 85.335584 285.29605 
L 85.542325 287.13451 
L 85.68809 290.34856 
L 86.040595 301.705488 
L 86.085903 303.697475 
L 86.040595 306.24626 
L 85.717875 320.26044 
L 85.68809 320.584001 
L 85.335584 323.396021 
L 84.983079 325.197637 
L 84.630573 326.126971 
L 84.278068 326.267745 
L 83.925562 325.638514 
L 83.573057 324.197531 
L 83.220552 321.860173 
z
" clip-path="url(#p2ecd692583)" style="fill: #125da6"/>
    <path d="M 83.220552 321.860173 
L 83.573057 324.197531 
L 83.925562 325.638514 
L 84.278068 326.267745 
L 84.630573 326.126971 
L 84.983079 325.197637 
L 85.335584 323.396021 
L 85.68809 320.584001 
L 85.717875 320.26044 
L 86.040595 306.24626 
L 86.085903 303.697475 
L 86.040595 301.705488 
L 85.68809 290.34856 
L 85.542325 287.13451 
L 85.335584 285.29605 
L 84.983079 283.029535 
L 84.630573 281.41813 
L 84.278068 280.38606 
L 83.925562 280.064817 
L 83.573057 280.776371 
L 83.220552 282.974692 
L 82.868046 287.13451 
L 82.868046 287.13451 
L 82.564535 303.697475 
L 82.868046 315.412654 
L 83.047921 320.26044 
z
" clip-path="url(#p2ecd692583)" style="fill: #083e81"/>
   </g>
   <g id="matplotlib.axis_1">
    <g id="xtick_1">
     <g id="line2d_1">
      <defs>
       <path id="m5bd0b19607" d="M 0 0 
L 0 3.5 
" style="stroke: #000000; stroke-width: 0.8"/>
      </defs>
      <g>
       <use xlink:href="#m5bd0b19607" x="135.122926" y="499.48" style="stroke: #000000; stroke-width: 0.8"/>
      </g>
     </g>
     <g id="text_1">
      <!-- 1 -->
      <g transform="translate(128.124176 523.196563) scale(0.22 -0.22)">
       <defs>
        <path id="DejaVuSans-31" d="M 794 531 
L 1825 531 
L 1825 4091 
L 703 3866 
L 703 4441 
L 1819 4666 
L 2450 4666 
L 2450 531 
L 3481 531 
L 3481 0 
L 794 0 
L 794 531 
z
" transform="scale(0.015625)"/>
       </defs>
       <use xlink:href="#DejaVuSans-31"/>
      </g>
     </g>
    </g>
    <g id="xtick_2">
     <g id="line2d_2">
      <g>
       <use xlink:href="#m5bd0b19607" x="227.186702" y="499.48" style="stroke: #000000; stroke-width: 0.8"/>
      </g>
     </g>
     <g id="text_2">
      <!-- 2 -->
      <g transform="translate(220.187952 523.196563) scale(0.22 -0.22)">
       <defs>
        <path id="DejaVuSans-32" d="M 1228 531 
L 3431 531 
L 3431 0 
L 469 0 
L 469 531 
Q 828 903 1448 1529 
Q 2069 2156 2228 2338 
Q 2531 2678 2651 2914 
Q 2772 3150 2772 3378 
Q 2772 3750 2511 3984 
Q 2250 4219 1831 4219 
Q 1534 4219 1204 4116 
Q 875 4013 500 3803 
L 500 4441 
Q 881 4594 1212 4672 
Q 1544 4750 1819 4750 
Q 2544 4750 2975 4387 
Q 3406 4025 3406 3419 
Q 3406 3131 3298 2873 
Q 3191 2616 2906 2266 
Q 2828 2175 2409 1742 
Q 1991 1309 1228 531 
z
" transform="scale(0.015625)"/>
       </defs>
       <use xlink:href="#DejaVuSans-32"/>
      </g>
     </g>
    </g>
    <g id="xtick_3">
     <g id="line2d_3">
      <g>
       <use xlink:href="#m5bd0b19607" x="319.250478" y="499.48" style="stroke: #000000; stroke-width: 0.8"/>
      </g>
     </g>
     <g id="text_3">
      <!-- 3 -->
      <g transform="translate(312.251728 523.196563) scale(0.22 -0.22)">
       <defs>
        <path id="DejaVuSans-33" d="M 2597 2516 
Q 3050 2419 3304 2112 
Q 3559 1806 3559 1356 
Q 3559 666 3084 287 
Q 2609 -91 1734 -91 
Q 1441 -91 1130 -33 
Q 819 25 488 141 
L 488 750 
Q 750 597 1062 519 
Q 1375 441 1716 441 
Q 2309 441 2620 675 
Q 2931 909 2931 1356 
Q 2931 1769 2642 2001 
Q 2353 2234 1838 2234 
L 1294 2234 
L 1294 2753 
L 1863 2753 
Q 2328 2753 2575 2939 
Q 2822 3125 2822 3475 
Q 2822 3834 2567 4026 
Q 2313 4219 1838 4219 
Q 1578 4219 1281 4162 
Q 984 4106 628 3988 
L 628 4550 
Q 988 4650 1302 4700 
Q 1616 4750 1894 4750 
Q 2613 4750 3031 4423 
Q 3450 4097 3450 3541 
Q 3450 3153 3228 2886 
Q 3006 2619 2597 2516 
z
" transform="scale(0.015625)"/>
       </defs>
       <use xlink:href="#DejaVuSans-33"/>
      </g>
     </g>
    </g>
    <g id="xtick_4">
     <g id="line2d_4">
      <g>
       <use xlink:href="#m5bd0b19607" x="411.314253" y="499.48" style="stroke: #000000; stroke-width: 0.8"/>
      </g>
     </g>
     <g id="text_4">
      <!-- 4 -->
      <g transform="translate(404.315503 523.196563) scale(0.22 -0.22)">
       <defs>
        <path id="DejaVuSans-34" d="M 2419 4116 
L 825 1625 
L 2419 1625 
L 2419 4116 
z
M 2253 4666 
L 3047 4666 
L 3047 1625 
L 3713 1625 
L 3713 1100 
L 3047 1100 
L 3047 0 
L 2419 0 
L 2419 1100 
L 313 1100 
L 313 1709 
L 2253 4666 
z
" transform="scale(0.015625)"/>
       </defs>
       <use xlink:href="#DejaVuSans-34"/>
      </g>
     </g>
    </g>
    <g id="xtick_5">
     <g id="line2d_5">
      <g>
       <use xlink:href="#m5bd0b19607" x="503.378029" y="499.48" style="stroke: #000000; stroke-width: 0.8"/>
      </g>
     </g>
     <g id="text_5">
      <!-- 5 -->
      <g transform="translate(496.379279 523.196563) scale(0.22 -0.22)">
       <defs>
        <path id="DejaVuSans-35" d="M 691 4666 
L 3169 4666 
L 3169 4134 
L 1269 4134 
L 1269 2991 
Q 1406 3038 1543 3061 
Q 1681 3084 1819 3084 
Q 2600 3084 3056 2656 
Q 3513 2228 3513 1497 
Q 3513 744 3044 326 
Q 2575 -91 1722 -91 
Q 1428 -91 1123 -41 
Q 819 9 494 109 
L 494 744 
Q 775 591 1075 516 
Q 1375 441 1709 441 
Q 2250 441 2565 725 
Q 2881 1009 2881 1497 
Q 2881 1984 2565 2268 
Q 2250 2553 1709 2553 
Q 1456 2553 1204 2497 
Q 953 2441 691 2322 
L 691 4666 
z
" transform="scale(0.015625)"/>
       </defs>
       <use xlink:href="#DejaVuSans-35"/>
      </g>
     </g>
    </g>
    <g id="xtick_6">
     <g id="line2d_6">
      <g>
       <use xlink:href="#m5bd0b19607" x="595.441805" y="499.48" style="stroke: #000000; stroke-width: 0.8"/>
      </g>
     </g>
     <g id="text_6">
      <!-- 6 -->
      <g transform="translate(588.443055 523.196563) scale(0.22 -0.22)">
       <defs>
        <path id="DejaVuSans-36" d="M 2113 2584 
Q 1688 2584 1439 2293 
Q 1191 2003 1191 1497 
Q 1191 994 1439 701 
Q 1688 409 2113 409 
Q 2538 409 2786 701 
Q 3034 994 3034 1497 
Q 3034 2003 2786 2293 
Q 2538 2584 2113 2584 
z
M 3366 4563 
L 3366 3988 
Q 3128 4100 2886 4159 
Q 2644 4219 2406 4219 
Q 1781 4219 1451 3797 
Q 1122 3375 1075 2522 
Q 1259 2794 1537 2939 
Q 1816 3084 2150 3084 
Q 2853 3084 3261 2657 
Q 3669 2231 3669 1497 
Q 3669 778 3244 343 
Q 2819 -91 2113 -91 
Q 1303 -91 875 529 
Q 447 1150 447 2328 
Q 447 3434 972 4092 
Q 1497 4750 2381 4750 
Q 2619 4750 2861 4703 
Q 3103 4656 3366 4563 
z
" transform="scale(0.015625)"/>
       </defs>
       <use xlink:href="#DejaVuSans-36"/>
      </g>
     </g>
    </g>
    <g id="xtick_7">
     <g id="line2d_7">
      <g>
       <use xlink:href="#m5bd0b19607" x="687.505581" y="499.48" style="stroke: #000000; stroke-width: 0.8"/>
      </g>
     </g>
     <g id="text_7">
      <!-- 7 -->
      <g transform="translate(680.506831 523.196563) scale(0.22 -0.22)">
       <defs>
        <path id="DejaVuSans-37" d="M 525 4666 
L 3525 4666 
L 3525 4397 
L 1831 0 
L 1172 0 
L 2766 4134 
L 525 4134 
L 525 4666 
z
" transform="scale(0.015625)"/>
       </defs>
       <use xlink:href="#DejaVuSans-37"/>
      </g>
     </g>
    </g>
    <g id="text_8">
     <!-- Force Uncertainties -->
     <g transform="translate(276.406094 548.488438) scale(0.22 -0.22)">
      <defs>
       <path id="DejaVuSans-46" d="M 628 4666 
L 3309 4666 
L 3309 4134 
L 1259 4134 
L 1259 2759 
L 3109 2759 
L 3109 2228 
L 1259 2228 
L 1259 0 
L 628 0 
L 628 4666 
z
" transform="scale(0.015625)"/>
       <path id="DejaVuSans-6f" d="M 1959 3097 
Q 1497 3097 1228 2736 
Q 959 2375 959 1747 
Q 959 1119 1226 758 
Q 1494 397 1959 397 
Q 2419 397 2687 759 
Q 2956 1122 2956 1747 
Q 2956 2369 2687 2733 
Q 2419 3097 1959 3097 
z
M 1959 3584 
Q 2709 3584 3137 3096 
Q 3566 2609 3566 1747 
Q 3566 888 3137 398 
Q 2709 -91 1959 -91 
Q 1206 -91 779 398 
Q 353 888 353 1747 
Q 353 2609 779 3096 
Q 1206 3584 1959 3584 
z
" transform="scale(0.015625)"/>
       <path id="DejaVuSans-72" d="M 2631 2963 
Q 2534 3019 2420 3045 
Q 2306 3072 2169 3072 
Q 1681 3072 1420 2755 
Q 1159 2438 1159 1844 
L 1159 0 
L 581 0 
L 581 3500 
L 1159 3500 
L 1159 2956 
Q 1341 3275 1631 3429 
Q 1922 3584 2338 3584 
Q 2397 3584 2469 3576 
Q 2541 3569 2628 3553 
L 2631 2963 
z
" transform="scale(0.015625)"/>
       <path id="DejaVuSans-63" d="M 3122 3366 
L 3122 2828 
Q 2878 2963 2633 3030 
Q 2388 3097 2138 3097 
Q 1578 3097 1268 2742 
Q 959 2388 959 1747 
Q 959 1106 1268 751 
Q 1578 397 2138 397 
Q 2388 397 2633 464 
Q 2878 531 3122 666 
L 3122 134 
Q 2881 22 2623 -34 
Q 2366 -91 2075 -91 
Q 1284 -91 818 406 
Q 353 903 353 1747 
Q 353 2603 823 3093 
Q 1294 3584 2113 3584 
Q 2378 3584 2631 3529 
Q 2884 3475 3122 3366 
z
" transform="scale(0.015625)"/>
       <path id="DejaVuSans-65" d="M 3597 1894 
L 3597 1613 
L 953 1613 
Q 991 1019 1311 708 
Q 1631 397 2203 397 
Q 2534 397 2845 478 
Q 3156 559 3463 722 
L 3463 178 
Q 3153 47 2828 -22 
Q 2503 -91 2169 -91 
Q 1331 -91 842 396 
Q 353 884 353 1716 
Q 353 2575 817 3079 
Q 1281 3584 2069 3584 
Q 2775 3584 3186 3129 
Q 3597 2675 3597 1894 
z
M 3022 2063 
Q 3016 2534 2758 2815 
Q 2500 3097 2075 3097 
Q 1594 3097 1305 2825 
Q 1016 2553 972 2059 
L 3022 2063 
z
" transform="scale(0.015625)"/>
       <path id="DejaVuSans-20" transform="scale(0.015625)"/>
       <path id="DejaVuSans-55" d="M 556 4666 
L 1191 4666 
L 1191 1831 
Q 1191 1081 1462 751 
Q 1734 422 2344 422 
Q 2950 422 3222 751 
Q 3494 1081 3494 1831 
L 3494 4666 
L 4128 4666 
L 4128 1753 
Q 4128 841 3676 375 
Q 3225 -91 2344 -91 
Q 1459 -91 1007 375 
Q 556 841 556 1753 
L 556 4666 
z
" transform="scale(0.015625)"/>
       <path id="DejaVuSans-6e" d="M 3513 2113 
L 3513 0 
L 2938 0 
L 2938 2094 
Q 2938 2591 2744 2837 
Q 2550 3084 2163 3084 
Q 1697 3084 1428 2787 
Q 1159 2491 1159 1978 
L 1159 0 
L 581 0 
L 581 3500 
L 1159 3500 
L 1159 2956 
Q 1366 3272 1645 3428 
Q 1925 3584 2291 3584 
Q 2894 3584 3203 3211 
Q 3513 2838 3513 2113 
z
" transform="scale(0.015625)"/>
       <path id="DejaVuSans-74" d="M 1172 4494 
L 1172 3500 
L 2356 3500 
L 2356 3053 
L 1172 3053 
L 1172 1153 
Q 1172 725 1289 603 
Q 1406 481 1766 481 
L 2356 481 
L 2356 0 
L 1766 0 
Q 1100 0 847 248 
Q 594 497 594 1153 
L 594 3053 
L 172 3053 
L 172 3500 
L 594 3500 
L 594 4494 
L 1172 4494 
z
" transform="scale(0.015625)"/>
       <path id="DejaVuSans-61" d="M 2194 1759 
Q 1497 1759 1228 1600 
Q 959 1441 959 1056 
Q 959 750 1161 570 
Q 1363 391 1709 391 
Q 2188 391 2477 730 
Q 2766 1069 2766 1631 
L 2766 1759 
L 2194 1759 
z
M 3341 1997 
L 3341 0 
L 2766 0 
L 2766 531 
Q 2569 213 2275 61 
Q 1981 -91 1556 -91 
Q 1019 -91 701 211 
Q 384 513 384 1019 
Q 384 1609 779 1909 
Q 1175 2209 1959 2209 
L 2766 2209 
L 2766 2266 
Q 2766 2663 2505 2880 
Q 2244 3097 1772 3097 
Q 1472 3097 1187 3025 
Q 903 2953 641 2809 
L 641 3341 
Q 956 3463 1253 3523 
Q 1550 3584 1831 3584 
Q 2591 3584 2966 3190 
Q 3341 2797 3341 1997 
z
" transform="scale(0.015625)"/>
       <path id="DejaVuSans-69" d="M 603 3500 
L 1178 3500 
L 1178 0 
L 603 0 
L 603 3500 
z
M 603 4863 
L 1178 4863 
L 1178 4134 
L 603 4134 
L 603 4863 
z
" transform="scale(0.015625)"/>
       <path id="DejaVuSans-73" d="M 2834 3397 
L 2834 2853 
Q 2591 2978 2328 3040 
Q 2066 3103 1784 3103 
Q 1356 3103 1142 2972 
Q 928 2841 928 2578 
Q 928 2378 1081 2264 
Q 1234 2150 1697 2047 
L 1894 2003 
Q 2506 1872 2764 1633 
Q 3022 1394 3022 966 
Q 3022 478 2636 193 
Q 2250 -91 1575 -91 
Q 1294 -91 989 -36 
Q 684 19 347 128 
L 347 722 
Q 666 556 975 473 
Q 1284 391 1588 391 
Q 1994 391 2212 530 
Q 2431 669 2431 922 
Q 2431 1156 2273 1281 
Q 2116 1406 1581 1522 
L 1381 1569 
Q 847 1681 609 1914 
Q 372 2147 372 2553 
Q 372 3047 722 3315 
Q 1072 3584 1716 3584 
Q 2034 3584 2315 3537 
Q 2597 3491 2834 3397 
z
" transform="scale(0.015625)"/>
      </defs>
      <use xlink:href="#DejaVuSans-46"/>
      <use xlink:href="#DejaVuSans-6f" x="53.894531"/>
      <use xlink:href="#DejaVuSans-72" x="115.076172"/>
      <use xlink:href="#DejaVuSans-63" x="153.939453"/>
      <use xlink:href="#DejaVuSans-65" x="208.919922"/>
      <use xlink:href="#DejaVuSans-20" x="270.443359"/>
      <use xlink:href="#DejaVuSans-55" x="302.230469"/>
      <use xlink:href="#DejaVuSans-6e" x="375.423828"/>
      <use xlink:href="#DejaVuSans-63" x="438.802734"/>
      <use xlink:href="#DejaVuSans-65" x="493.783203"/>
      <use xlink:href="#DejaVuSans-72" x="555.306641"/>
      <use xlink:href="#DejaVuSans-74" x="596.419922"/>
      <use xlink:href="#DejaVuSans-61" x="635.628906"/>
      <use xlink:href="#DejaVuSans-69" x="696.908203"/>
      <use xlink:href="#DejaVuSans-6e" x="724.691406"/>
      <use xlink:href="#DejaVuSans-74" x="788.070312"/>
      <use xlink:href="#DejaVuSans-69" x="827.279297"/>
      <use xlink:href="#DejaVuSans-65" x="855.0625"/>
      <use xlink:href="#DejaVuSans-73" x="916.585938"/>
     </g>
    </g>
   </g>
   <g id="matplotlib.axis_2">
    <g id="ytick_1">
     <g id="line2d_8">
      <defs>
       <path id="m33835d664e" d="M 0 0 
L -3.5 0 
" style="stroke: #000000; stroke-width: 0.8"/>
      </defs>
      <g>
       <use xlink:href="#m33835d664e" x="69.68" y="450.011056" style="stroke: #000000; stroke-width: 0.8"/>
      </g>
     </g>
     <g id="text_9">
      <!-- 1 -->
      <g transform="translate(48.6825 458.369338) scale(0.22 -0.22)">
       <use xlink:href="#DejaVuSans-31"/>
      </g>
     </g>
    </g>
    <g id="ytick_2">
     <g id="line2d_9">
      <g>
       <use xlink:href="#m33835d664e" x="69.68" y="380.419154" style="stroke: #000000; stroke-width: 0.8"/>
      </g>
     </g>
     <g id="text_10">
      <!-- 2 -->
      <g transform="translate(48.6825 388.777435) scale(0.22 -0.22)">
       <use xlink:href="#DejaVuSans-32"/>
      </g>
     </g>
    </g>
    <g id="ytick_3">
     <g id="line2d_10">
      <g>
       <use xlink:href="#m33835d664e" x="69.68" y="310.827251" style="stroke: #000000; stroke-width: 0.8"/>
      </g>
     </g>
     <g id="text_11">
      <!-- 3 -->
      <g transform="translate(48.6825 319.185533) scale(0.22 -0.22)">
       <use xlink:href="#DejaVuSans-33"/>
      </g>
     </g>
    </g>
    <g id="ytick_4">
     <g id="line2d_11">
      <g>
       <use xlink:href="#m33835d664e" x="69.68" y="241.235349" style="stroke: #000000; stroke-width: 0.8"/>
      </g>
     </g>
     <g id="text_12">
      <!-- 4 -->
      <g transform="translate(48.6825 249.59363) scale(0.22 -0.22)">
       <use xlink:href="#DejaVuSans-34"/>
      </g>
     </g>
    </g>
    <g id="ytick_5">
     <g id="line2d_12">
      <g>
       <use xlink:href="#m33835d664e" x="69.68" y="171.643446" style="stroke: #000000; stroke-width: 0.8"/>
      </g>
     </g>
     <g id="text_13">
      <!-- 5 -->
      <g transform="translate(48.6825 180.001728) scale(0.22 -0.22)">
       <use xlink:href="#DejaVuSans-35"/>
      </g>
     </g>
    </g>
    <g id="ytick_6">
     <g id="line2d_13">
      <g>
       <use xlink:href="#m33835d664e" x="69.68" y="102.051544" style="stroke: #000000; stroke-width: 0.8"/>
      </g>
     </g>
     <g id="text_14">
      <!-- 6 -->
      <g transform="translate(48.6825 110.409825) scale(0.22 -0.22)">
       <use xlink:href="#DejaVuSans-36"/>
      </g>
     </g>
    </g>
    <g id="ytick_7">
     <g id="line2d_14">
      <g>
       <use xlink:href="#m33835d664e" x="69.68" y="32.459641" style="stroke: #000000; stroke-width: 0.8"/>
      </g>
     </g>
     <g id="text_15">
      <!-- 7 -->
      <g transform="translate(48.6825 40.817922) scale(0.22 -0.22)">
       <use xlink:href="#DejaVuSans-37"/>
      </g>
     </g>
    </g>
    <g id="text_16">
     <!-- Force Errors [kJ/(mol*A)] -->
     <g transform="translate(40.107187 395.961104) rotate(-90) scale(0.22 -0.22)">
      <defs>
       <path id="DejaVuSans-45" d="M 628 4666 
L 3578 4666 
L 3578 4134 
L 1259 4134 
L 1259 2753 
L 3481 2753 
L 3481 2222 
L 1259 2222 
L 1259 531 
L 3634 531 
L 3634 0 
L 628 0 
L 628 4666 
z
" transform="scale(0.015625)"/>
       <path id="DejaVuSans-5b" d="M 550 4863 
L 1875 4863 
L 1875 4416 
L 1125 4416 
L 1125 -397 
L 1875 -397 
L 1875 -844 
L 550 -844 
L 550 4863 
z
" transform="scale(0.015625)"/>
       <path id="DejaVuSans-6b" d="M 581 4863 
L 1159 4863 
L 1159 1991 
L 2875 3500 
L 3609 3500 
L 1753 1863 
L 3688 0 
L 2938 0 
L 1159 1709 
L 1159 0 
L 581 0 
L 581 4863 
z
" transform="scale(0.015625)"/>
       <path id="DejaVuSans-4a" d="M 628 4666 
L 1259 4666 
L 1259 325 
Q 1259 -519 939 -900 
Q 619 -1281 -91 -1281 
L -331 -1281 
L -331 -750 
L -134 -750 
Q 284 -750 456 -515 
Q 628 -281 628 325 
L 628 4666 
z
" transform="scale(0.015625)"/>
       <path id="DejaVuSans-2f" d="M 1625 4666 
L 2156 4666 
L 531 -594 
L 0 -594 
L 1625 4666 
z
" transform="scale(0.015625)"/>
       <path id="DejaVuSans-28" d="M 1984 4856 
Q 1566 4138 1362 3434 
Q 1159 2731 1159 2009 
Q 1159 1288 1364 580 
Q 1569 -128 1984 -844 
L 1484 -844 
Q 1016 -109 783 600 
Q 550 1309 550 2009 
Q 550 2706 781 3412 
Q 1013 4119 1484 4856 
L 1984 4856 
z
" transform="scale(0.015625)"/>
       <path id="DejaVuSans-6d" d="M 3328 2828 
Q 3544 3216 3844 3400 
Q 4144 3584 4550 3584 
Q 5097 3584 5394 3201 
Q 5691 2819 5691 2113 
L 5691 0 
L 5113 0 
L 5113 2094 
Q 5113 2597 4934 2840 
Q 4756 3084 4391 3084 
Q 3944 3084 3684 2787 
Q 3425 2491 3425 1978 
L 3425 0 
L 2847 0 
L 2847 2094 
Q 2847 2600 2669 2842 
Q 2491 3084 2119 3084 
Q 1678 3084 1418 2786 
Q 1159 2488 1159 1978 
L 1159 0 
L 581 0 
L 581 3500 
L 1159 3500 
L 1159 2956 
Q 1356 3278 1631 3431 
Q 1906 3584 2284 3584 
Q 2666 3584 2933 3390 
Q 3200 3197 3328 2828 
z
" transform="scale(0.015625)"/>
       <path id="DejaVuSans-6c" d="M 603 4863 
L 1178 4863 
L 1178 0 
L 603 0 
L 603 4863 
z
" transform="scale(0.015625)"/>
       <path id="DejaVuSans-2a" d="M 3009 3897 
L 1888 3291 
L 3009 2681 
L 2828 2375 
L 1778 3009 
L 1778 1831 
L 1422 1831 
L 1422 3009 
L 372 2375 
L 191 2681 
L 1313 3291 
L 191 3897 
L 372 4206 
L 1422 3572 
L 1422 4750 
L 1778 4750 
L 1778 3572 
L 2828 4206 
L 3009 3897 
z
" transform="scale(0.015625)"/>
       <path id="DejaVuSans-41" d="M 2188 4044 
L 1331 1722 
L 3047 1722 
L 2188 4044 
z
M 1831 4666 
L 2547 4666 
L 4325 0 
L 3669 0 
L 3244 1197 
L 1141 1197 
L 716 0 
L 50 0 
L 1831 4666 
z
" transform="scale(0.015625)"/>
       <path id="DejaVuSans-29" d="M 513 4856 
L 1013 4856 
Q 1481 4119 1714 3412 
Q 1947 2706 1947 2009 
Q 1947 1309 1714 600 
Q 1481 -109 1013 -844 
L 513 -844 
Q 928 -128 1133 580 
Q 1338 1288 1338 2009 
Q 1338 2731 1133 3434 
Q 928 4138 513 4856 
z
" transform="scale(0.015625)"/>
       <path id="DejaVuSans-5d" d="M 1947 4863 
L 1947 -844 
L 622 -844 
L 622 -397 
L 1369 -397 
L 1369 4416 
L 622 4416 
L 622 4863 
L 1947 4863 
z
" transform="scale(0.015625)"/>
      </defs>
      <use xlink:href="#DejaVuSans-46"/>
      <use xlink:href="#DejaVuSans-6f" x="53.894531"/>
      <use xlink:href="#DejaVuSans-72" x="115.076172"/>
      <use xlink:href="#DejaVuSans-63" x="153.939453"/>
      <use xlink:href="#DejaVuSans-65" x="208.919922"/>
      <use xlink:href="#DejaVuSans-20" x="270.443359"/>
      <use xlink:href="#DejaVuSans-45" x="302.230469"/>
      <use xlink:href="#DejaVuSans-72" x="365.414062"/>
      <use xlink:href="#DejaVuSans-72" x="404.777344"/>
      <use xlink:href="#DejaVuSans-6f" x="443.640625"/>
      <use xlink:href="#DejaVuSans-72" x="504.822266"/>
      <use xlink:href="#DejaVuSans-73" x="545.935547"/>
      <use xlink:href="#DejaVuSans-20" x="598.035156"/>
      <use xlink:href="#DejaVuSans-5b" x="629.822266"/>
      <use xlink:href="#DejaVuSans-6b" x="668.835938"/>
      <use xlink:href="#DejaVuSans-4a" x="726.746094"/>
      <use xlink:href="#DejaVuSans-2f" x="756.238281"/>
      <use xlink:href="#DejaVuSans-28" x="789.929688"/>
      <use xlink:href="#DejaVuSans-6d" x="828.943359"/>
      <use xlink:href="#DejaVuSans-6f" x="926.355469"/>
      <use xlink:href="#DejaVuSans-6c" x="987.537109"/>
      <use xlink:href="#DejaVuSans-2a" x="1015.320312"/>
      <use xlink:href="#DejaVuSans-41" x="1065.320312"/>
      <use xlink:href="#DejaVuSans-29" x="1133.728516"/>
      <use xlink:href="#DejaVuSans-5d" x="1172.742188"/>
     </g>
    </g>
   </g>
   <g id="line2d_15">
    <path d="M 69.68 499.48 
L 696.24 25.857209 
" clip-path="url(#p2ecd692583)" style="fill: none; stroke-dasharray: 5.55,2.4; stroke-dashoffset: 0; stroke: #ff0000; stroke-width: 1.5"/>
   </g>
   <g id="patch_3">
    <path d="M 69.68 499.48 
L 69.68 25.857209 
" style="fill: none; stroke: #000000; stroke-width: 0.8; stroke-linejoin: miter; stroke-linecap: square"/>
   </g>
   <g id="patch_4">
    <path d="M 696.24 499.48 
L 696.24 25.857209 
" style="fill: none; stroke: #000000; stroke-width: 0.8; stroke-linejoin: miter; stroke-linecap: square"/>
   </g>
   <g id="patch_5">
    <path d="M 69.68 499.48 
L 696.24 499.48 
" style="fill: none; stroke: #000000; stroke-width: 0.8; stroke-linejoin: miter; stroke-linecap: square"/>
   </g>
   <g id="patch_6">
    <path d="M 69.68 25.857209 
L 696.24 25.857209 
" style="fill: none; stroke: #000000; stroke-width: 0.8; stroke-linejoin: miter; stroke-linecap: square"/>
   </g>
   <g id="text_17">
    <!-- Correlation in: 0.062 -->
    <g transform="translate(132.336 73.219488) scale(0.22 -0.22)">
     <defs>
      <path id="DejaVuSans-43" d="M 4122 4306 
L 4122 3641 
Q 3803 3938 3442 4084 
Q 3081 4231 2675 4231 
Q 1875 4231 1450 3742 
Q 1025 3253 1025 2328 
Q 1025 1406 1450 917 
Q 1875 428 2675 428 
Q 3081 428 3442 575 
Q 3803 722 4122 1019 
L 4122 359 
Q 3791 134 3420 21 
Q 3050 -91 2638 -91 
Q 1578 -91 968 557 
Q 359 1206 359 2328 
Q 359 3453 968 4101 
Q 1578 4750 2638 4750 
Q 3056 4750 3426 4639 
Q 3797 4528 4122 4306 
z
" transform="scale(0.015625)"/>
      <path id="DejaVuSans-3a" d="M 750 794 
L 1409 794 
L 1409 0 
L 750 0 
L 750 794 
z
M 750 3309 
L 1409 3309 
L 1409 2516 
L 750 2516 
L 750 3309 
z
" transform="scale(0.015625)"/>
      <path id="DejaVuSans-30" d="M 2034 4250 
Q 1547 4250 1301 3770 
Q 1056 3291 1056 2328 
Q 1056 1369 1301 889 
Q 1547 409 2034 409 
Q 2525 409 2770 889 
Q 3016 1369 3016 2328 
Q 3016 3291 2770 3770 
Q 2525 4250 2034 4250 
z
M 2034 4750 
Q 2819 4750 3233 4129 
Q 3647 3509 3647 2328 
Q 3647 1150 3233 529 
Q 2819 -91 2034 -91 
Q 1250 -91 836 529 
Q 422 1150 422 2328 
Q 422 3509 836 4129 
Q 1250 4750 2034 4750 
z
" transform="scale(0.015625)"/>
      <path id="DejaVuSans-2e" d="M 684 794 
L 1344 794 
L 1344 0 
L 684 0 
L 684 794 
z
" transform="scale(0.015625)"/>
     </defs>
     <use xlink:href="#DejaVuSans-43"/>
     <use xlink:href="#DejaVuSans-6f" x="69.824219"/>
     <use xlink:href="#DejaVuSans-72" x="131.005859"/>
     <use xlink:href="#DejaVuSans-72" x="170.369141"/>
     <use xlink:href="#DejaVuSans-65" x="209.232422"/>
     <use xlink:href="#DejaVuSans-6c" x="270.755859"/>
     <use xlink:href="#DejaVuSans-61" x="298.539062"/>
     <use xlink:href="#DejaVuSans-74" x="359.818359"/>
     <use xlink:href="#DejaVuSans-69" x="399.027344"/>
     <use xlink:href="#DejaVuSans-6f" x="426.810547"/>
     <use xlink:href="#DejaVuSans-6e" x="487.992188"/>
     <use xlink:href="#DejaVuSans-20" x="551.371094"/>
     <use xlink:href="#DejaVuSans-69" x="583.158203"/>
     <use xlink:href="#DejaVuSans-6e" x="610.941406"/>
     <use xlink:href="#DejaVuSans-3a" x="674.320312"/>
     <use xlink:href="#DejaVuSans-20" x="708.011719"/>
     <use xlink:href="#DejaVuSans-30" x="739.798828"/>
     <use xlink:href="#DejaVuSans-2e" x="803.421875"/>
     <use xlink:href="#DejaVuSans-30" x="835.208984"/>
     <use xlink:href="#DejaVuSans-36" x="898.832031"/>
     <use xlink:href="#DejaVuSans-32" x="962.455078"/>
    </g>
   </g>
  </g>
 </g>
 <defs>
  <clipPath id="p2ecd692583">
   <rect x="69.68" y="25.857209" width="626.56" height="473.622791"/>
  </clipPath>
 </defs>
</svg>
