<?xml version="1.0" encoding="utf-8" standalone="no"?>
<!DOCTYPE svg PUBLIC "-//W3C//DTD SVG 1.1//EN"
  "http://www.w3.org/Graphics/SVG/1.1/DTD/svg11.dtd">
<svg xmlns:xlink="http://www.w3.org/1999/xlink" width="720pt" height="576pt" viewBox="0 0 720 576" xmlns="http://www.w3.org/2000/svg" version="1.1">
 <metadata>
  <rdf:RDF xmlns:dc="http://purl.org/dc/elements/1.1/" xmlns:cc="http://creativecommons.org/ns#" xmlns:rdf="http://www.w3.org/1999/02/22-rdf-syntax-ns#">
   <cc:Work>
    <dc:type rdf:resource="http://purl.org/dc/dcmitype/StillImage"/>
    <dc:date>2024-12-08T13:24:02.959174</dc:date>
    <dc:format>image/svg+xml</dc:format>
    <dc:creator>
     <cc:Agent>
      <dc:title>Matplotlib v3.8.4, https://matplotlib.org/</dc:title>
     </cc:Agent>
    </dc:creator>
   </cc:Work>
  </rdf:RDF>
 </metadata>
 <defs>
  <style type="text/css">*{stroke-linejoin: round; stroke-linecap: butt}</style>
 </defs>
 <g id="figure_1">
  <g id="patch_1">
   <path d="M 0 576 
L 720 576 
L 720 0 
L 0 0 
z
" style="fill: #ffffff"/>
  </g>
  <g id="axes_1">
   <g id="patch_2">
    <path d="M 116.21 499.48 
L 696.24 499.48 
L 696.24 23.76 
L 116.21 23.76 
z
" style="fill: #ffffff"/>
   </g>
   <g id="QuadContourSet_1">
    <path d="M 657.033784 59.370271 
L 657.071918 59.377725 
L 657.100323 59.355399 
L 657.110052 59.349774 
L 657.148186 59.288032 
L 657.152102 59.278821 
L 657.17994 59.202242 
L 657.186321 59.17685 
L 657.201135 59.125664 
L 657.215778 59.049085 
L 657.224248 58.972507 
L 657.224455 58.970104 
L 657.236747 58.895929 
L 657.244651 58.81935 
L 657.249573 58.742772 
L 657.252602 58.666193 
L 657.254392 58.589615 
L 657.255365 58.513037 
L 657.255823 58.436458 
L 657.255995 58.35988 
L 657.256056 58.283301 
L 657.25612 58.206723 
L 657.256234 58.130144 
L 657.256383 58.053566 
L 657.256508 57.976988 
L 657.256542 57.900409 
L 657.256429 57.823831 
L 657.256149 57.747252 
L 657.255704 57.670674 
L 657.255108 57.594095 
L 657.254367 57.517517 
L 657.253469 57.440939 
L 657.252388 57.36436 
L 657.251095 57.287782 
L 657.249565 57.211203 
L 657.247777 57.134625 
L 657.245717 57.058047 
L 657.243375 56.981468 
L 657.24076 56.90489 
L 657.237919 56.828311 
L 657.234974 56.751733 
L 657.232133 56.675154 
L 657.229661 56.598576 
L 657.227777 56.521998 
L 657.226527 56.445419 
L 657.225722 56.368841 
L 657.224991 56.292262 
L 657.224455 56.254345 
L 657.224228 56.215684 
L 657.223451 56.139106 
L 657.222202 56.062527 
L 657.22041 55.985949 
L 657.218075 55.90937 
L 657.215243 55.832792 
L 657.211966 55.756213 
L 657.208261 55.679635 
L 657.204104 55.603057 
L 657.199456 55.526478 
L 657.194308 55.4499 
L 657.188709 55.373321 
L 657.186321 55.340982 
L 657.184492 55.296743 
L 657.181256 55.220164 
L 657.177726 55.143586 
L 657.173712 55.067008 
L 657.168979 54.990429 
L 657.163335 54.913851 
L 657.15672 54.837272 
L 657.14927 54.760694 
L 657.148186 54.749196 
L 657.142879 54.684116 
L 657.136427 54.607537 
L 657.129649 54.530959 
L 657.122167 54.45438 
L 657.113213 54.377802 
L 657.110052 54.354001 
L 657.098332 54.301223 
L 657.078012 54.224645 
L 657.071918 54.203286 
L 657.033784 54.190561 
L 657.023364 54.224645 
L 657.004644 54.301223 
L 656.995649 54.350868 
L 656.992467 54.377802 
L 656.983626 54.45438 
L 656.974331 54.530959 
L 656.964121 54.607537 
L 656.957515 54.654199 
L 656.952573 54.684116 
L 656.94085 54.760694 
L 656.931958 54.837272 
L 656.925647 54.913851 
L 656.921061 54.990429 
L 656.919381 55.022532 
L 656.916376 55.067008 
L 656.910986 55.143586 
L 656.9053 55.220164 
L 656.899286 55.296743 
L 656.893131 55.373321 
L 656.887185 55.4499 
L 656.881854 55.526478 
L 656.881247 55.536391 
L 656.874096 55.603057 
L 656.867616 55.679635 
L 656.862355 55.756213 
L 656.857497 55.832792 
L 656.852417 55.90937 
L 656.846961 55.985949 
L 656.843112 56.037532 
L 656.84026 56.062527 
L 656.831578 56.139106 
L 656.824539 56.215684 
L 656.819488 56.292262 
L 656.816226 56.368841 
L 656.814234 56.445419 
L 656.812875 56.521998 
L 656.811525 56.598576 
L 656.809669 56.675154 
L 656.806974 56.751733 
L 656.804978 56.793712 
L 656.801897 56.828311 
L 656.793761 56.90489 
L 656.785148 56.981468 
L 656.776704 57.058047 
L 656.768807 57.134625 
L 656.766844 57.154848 
L 656.758532 57.211203 
L 656.748955 57.287782 
L 656.74124 57.36436 
L 656.735035 57.440939 
L 656.729709 57.517517 
L 656.72871 57.532053 
L 656.723479 57.594095 
L 656.716785 57.670674 
L 656.709533 57.747252 
L 656.701963 57.823831 
L 656.694851 57.900409 
L 656.690575 57.958919 
L 656.688974 57.976988 
L 656.685244 58.053566 
L 656.685147 58.130144 
L 656.689109 58.206723 
L 656.690575 58.221075 
L 656.696125 58.283301 
L 656.706252 58.35988 
L 656.71979 58.436458 
L 656.72871 58.477958 
L 656.734658 58.513037 
L 656.74945 58.589615 
L 656.766844 58.664563 
L 656.767135 58.666193 
L 656.783031 58.742772 
L 656.804978 58.81935 
L 656.804978 58.81935 
L 656.827157 58.895929 
L 656.843112 58.935159 
L 656.853112 58.972507 
L 656.881247 59.04476 
L 656.882256 59.049085 
L 656.904409 59.125664 
L 656.919381 59.162998 
L 656.931798 59.202242 
L 656.957515 59.262773 
L 656.965623 59.278821 
L 656.995649 59.333986 
L 657.020297 59.355399 
z
M 657.015659 59.125664 
L 656.995649 59.097995 
L 656.975667 59.049085 
L 656.957515 58.988792 
L 656.952563 58.972507 
L 656.933767 58.895929 
L 656.921852 58.81935 
L 656.919381 58.798148 
L 656.908956 58.742772 
L 656.898724 58.666193 
L 656.891622 58.589615 
L 656.886533 58.513037 
L 656.882795 58.436458 
L 656.881247 58.394744 
L 656.878629 58.35988 
L 656.874315 58.283301 
L 656.871298 58.206723 
L 656.869334 58.130144 
L 656.868213 58.053566 
L 656.867755 57.976988 
L 656.867814 57.900409 
L 656.868284 57.823831 
L 656.869101 57.747252 
L 656.870241 57.670674 
L 656.871723 57.594095 
L 656.873605 57.517517 
L 656.875967 57.440939 
L 656.878893 57.36436 
L 656.881247 57.313008 
L 656.881814 57.287782 
L 656.883831 57.211203 
L 656.886187 57.134625 
L 656.888829 57.058047 
L 656.89165 56.981468 
L 656.894494 56.90489 
L 656.89721 56.828311 
L 656.899737 56.751733 
L 656.902172 56.675154 
L 656.904787 56.598576 
L 656.907971 56.521998 
L 656.91216 56.445419 
L 656.917773 56.368841 
L 656.919381 56.350993 
L 656.922881 56.292262 
L 656.928447 56.215684 
L 656.935059 56.139106 
L 656.942582 56.062527 
L 656.950786 55.985949 
L 656.957515 55.924825 
L 656.958945 55.90937 
L 656.965494 55.832792 
L 656.971949 55.756213 
L 656.978505 55.679635 
L 656.985513 55.603057 
L 656.993384 55.526478 
L 656.995649 55.506126 
L 657.004453 55.4499 
L 657.018099 55.373321 
L 657.033784 55.296743 
L 657.071918 55.299948 
L 657.084865 55.373321 
L 657.097137 55.4499 
L 657.108295 55.526478 
L 657.110052 55.539022 
L 657.116512 55.603057 
L 657.123445 55.679635 
L 657.129638 55.756213 
L 657.135263 55.832792 
L 657.140419 55.90937 
L 657.145094 55.985949 
L 657.148186 56.042416 
L 657.149534 56.062527 
L 657.15417 56.139106 
L 657.15801 56.215684 
L 657.161171 56.292262 
L 657.163861 56.368841 
L 657.166318 56.445419 
L 657.168752 56.521998 
L 657.171291 56.598576 
L 657.173965 56.675154 
L 657.176725 56.751733 
L 657.179473 56.828311 
L 657.182099 56.90489 
L 657.184516 56.981468 
L 657.186321 57.044874 
L 657.187058 57.058047 
L 657.191029 57.134625 
L 657.194373 57.211203 
L 657.197115 57.287782 
L 657.199299 57.36436 
L 657.200987 57.440939 
L 657.202252 57.517517 
L 657.203175 57.594095 
L 657.203836 57.670674 
L 657.204303 57.747252 
L 657.204624 57.823831 
L 657.204833 57.900409 
L 657.20495 57.976988 
L 657.20499 58.053566 
L 657.204961 58.130144 
L 657.204849 58.206723 
L 657.204599 58.283301 
L 657.204102 58.35988 
L 657.203171 58.436458 
L 657.201535 58.513037 
L 657.198809 58.589615 
L 657.194441 58.666193 
L 657.187597 58.742772 
L 657.186321 58.753433 
L 657.181348 58.81935 
L 657.172405 58.895929 
L 657.157981 58.972507 
L 657.148186 59.010155 
L 657.136858 59.049085 
L 657.110052 59.114621 
L 657.099957 59.125664 
L 657.071918 59.15724 
L 657.033784 59.150739 
z
" clip-path="url(#p481eeeee15)" style="fill: #e6e6f3"/>
    <path d="M 657.033784 59.150739 
L 657.071918 59.15724 
L 657.099957 59.125664 
L 657.110052 59.114621 
L 657.136858 59.049085 
L 657.148186 59.010155 
L 657.157981 58.972507 
L 657.172405 58.895929 
L 657.181348 58.81935 
L 657.186321 58.753433 
L 657.187597 58.742772 
L 657.194441 58.666193 
L 657.198809 58.589615 
L 657.201535 58.513037 
L 657.203171 58.436458 
L 657.204102 58.35988 
L 657.204599 58.283301 
L 657.204849 58.206723 
L 657.204961 58.130144 
L 657.20499 58.053566 
L 657.20495 57.976988 
L 657.204833 57.900409 
L 657.204624 57.823831 
L 657.204303 57.747252 
L 657.203836 57.670674 
L 657.203175 57.594095 
L 657.202252 57.517517 
L 657.200987 57.440939 
L 657.199299 57.36436 
L 657.197115 57.287782 
L 657.194373 57.211203 
L 657.191029 57.134625 
L 657.187058 57.058047 
L 657.186321 57.044874 
L 657.184516 56.981468 
L 657.182099 56.90489 
L 657.179473 56.828311 
L 657.176725 56.751733 
L 657.173965 56.675154 
L 657.171291 56.598576 
L 657.168752 56.521998 
L 657.166318 56.445419 
L 657.163861 56.368841 
L 657.161171 56.292262 
L 657.15801 56.215684 
L 657.15417 56.139106 
L 657.149534 56.062527 
L 657.148186 56.042416 
L 657.145094 55.985949 
L 657.140419 55.90937 
L 657.135263 55.832792 
L 657.129638 55.756213 
L 657.123445 55.679635 
L 657.116512 55.603057 
L 657.110052 55.539022 
L 657.108295 55.526478 
L 657.097137 55.4499 
L 657.084865 55.373321 
L 657.071918 55.299948 
L 657.033784 55.296743 
L 657.018099 55.373321 
L 657.004453 55.4499 
L 656.995649 55.506126 
L 656.993384 55.526478 
L 656.985513 55.603057 
L 656.978505 55.679635 
L 656.971949 55.756213 
L 656.965494 55.832792 
L 656.958945 55.90937 
L 656.957515 55.924825 
L 656.950786 55.985949 
L 656.942582 56.062527 
L 656.935059 56.139106 
L 656.928447 56.215684 
L 656.922881 56.292262 
L 656.919381 56.350993 
L 656.917773 56.368841 
L 656.91216 56.445419 
L 656.907971 56.521998 
L 656.904787 56.598576 
L 656.902172 56.675154 
L 656.899737 56.751733 
L 656.89721 56.828311 
L 656.894494 56.90489 
L 656.89165 56.981468 
L 656.888829 57.058047 
L 656.886187 57.134625 
L 656.883831 57.211203 
L 656.881814 57.287782 
L 656.881247 57.313008 
L 656.878893 57.36436 
L 656.875967 57.440939 
L 656.873605 57.517517 
L 656.871723 57.594095 
L 656.870241 57.670674 
L 656.869101 57.747252 
L 656.868284 57.823831 
L 656.867814 57.900409 
L 656.867755 57.976988 
L 656.868213 58.053566 
L 656.869334 58.130144 
L 656.871298 58.206723 
L 656.874315 58.283301 
L 656.878629 58.35988 
L 656.881247 58.394744 
L 656.882795 58.436458 
L 656.886533 58.513037 
L 656.891622 58.589615 
L 656.898724 58.666193 
L 656.908956 58.742772 
L 656.919381 58.798148 
L 656.921852 58.81935 
L 656.933767 58.895929 
L 656.952563 58.972507 
L 656.957515 58.988792 
L 656.975667 59.049085 
L 656.995649 59.097995 
L 657.015659 59.125664 
z
M 656.998558 58.972507 
L 656.995649 58.966559 
L 656.973915 58.895929 
L 656.958652 58.81935 
L 656.957515 58.811919 
L 656.945031 58.742772 
L 656.935592 58.666193 
L 656.92909 58.589615 
L 656.924466 58.513037 
L 656.92105 58.436458 
L 656.919381 58.388694 
L 656.917582 58.35988 
L 656.913738 58.283301 
L 656.910732 58.206723 
L 656.908424 58.130144 
L 656.906747 58.053566 
L 656.905672 57.976988 
L 656.905192 57.900409 
L 656.9053 57.823831 
L 656.905974 57.747252 
L 656.907177 57.670674 
L 656.908851 57.594095 
L 656.910935 57.517517 
L 656.913381 57.440939 
L 656.916183 57.36436 
L 656.919381 57.287782 
L 656.919381 57.287782 
L 656.921346 57.211203 
L 656.923645 57.134625 
L 656.926304 57.058047 
L 656.929284 56.981468 
L 656.932477 56.90489 
L 656.935747 56.828311 
L 656.939009 56.751733 
L 656.942307 56.675154 
L 656.945853 56.598576 
L 656.949983 56.521998 
L 656.955078 56.445419 
L 656.957515 56.415023 
L 656.960837 56.368841 
L 656.967464 56.292262 
L 656.97535 56.215684 
L 656.984381 56.139106 
L 656.994357 56.062527 
L 656.995649 56.052567 
L 657.008499 55.985949 
L 657.023035 55.90937 
L 657.033784 55.850936 
L 657.071918 55.85801 
L 657.079967 55.90937 
L 657.091498 55.985949 
L 657.10192 56.062527 
L 657.110052 56.13066 
L 657.110784 56.139106 
L 657.116978 56.215684 
L 657.122269 56.292262 
L 657.126843 56.368841 
L 657.13094 56.445419 
L 657.134785 56.521998 
L 657.138539 56.598576 
L 657.142282 56.675154 
L 657.146017 56.751733 
L 657.148186 56.7955 
L 657.150339 56.828311 
L 657.155357 56.90489 
L 657.159966 56.981468 
L 657.164052 57.058047 
L 657.167556 57.134625 
L 657.170474 57.211203 
L 657.172834 57.287782 
L 657.174688 57.36436 
L 657.176097 57.440939 
L 657.17713 57.517517 
L 657.177859 57.594095 
L 657.178356 57.670674 
L 657.178684 57.747252 
L 657.178894 57.823831 
L 657.179018 57.900409 
L 657.179072 57.976988 
L 657.17906 58.053566 
L 657.178974 58.130144 
L 657.17878 58.206723 
L 657.178414 58.283301 
L 657.177765 58.35988 
L 657.176659 58.436458 
L 657.174838 58.513037 
L 657.171932 58.589615 
L 657.167394 58.666193 
L 657.160381 58.742772 
L 657.149536 58.81935 
L 657.148186 58.826826 
L 657.135962 58.895929 
L 657.114335 58.972507 
L 657.110052 58.984682 
L 657.071918 59.040112 
L 657.033784 59.034199 
z
" clip-path="url(#p481eeeee15)" style="fill: #cecef4"/>
    <path d="M 657.033784 59.034199 
L 657.071918 59.040112 
L 657.110052 58.984682 
L 657.114335 58.972507 
L 657.135962 58.895929 
L 657.148186 58.826826 
L 657.149536 58.81935 
L 657.160381 58.742772 
L 657.167394 58.666193 
L 657.171932 58.589615 
L 657.174838 58.513037 
L 657.176659 58.436458 
L 657.177765 58.35988 
L 657.178414 58.283301 
L 657.17878 58.206723 
L 657.178974 58.130144 
L 657.17906 58.053566 
L 657.179072 57.976988 
L 657.179018 57.900409 
L 657.178894 57.823831 
L 657.178684 57.747252 
L 657.178356 57.670674 
L 657.177859 57.594095 
L 657.17713 57.517517 
L 657.176097 57.440939 
L 657.174688 57.36436 
L 657.172834 57.287782 
L 657.170474 57.211203 
L 657.167556 57.134625 
L 657.164052 57.058047 
L 657.159966 56.981468 
L 657.155357 56.90489 
L 657.150339 56.828311 
L 657.148186 56.7955 
L 657.146017 56.751733 
L 657.142282 56.675154 
L 657.138539 56.598576 
L 657.134785 56.521998 
L 657.13094 56.445419 
L 657.126843 56.368841 
L 657.122269 56.292262 
L 657.116978 56.215684 
L 657.110784 56.139106 
L 657.110052 56.13066 
L 657.10192 56.062527 
L 657.091498 55.985949 
L 657.079967 55.90937 
L 657.071918 55.85801 
L 657.033784 55.850936 
L 657.023035 55.90937 
L 657.008499 55.985949 
L 656.995649 56.052567 
L 656.994357 56.062527 
L 656.984381 56.139106 
L 656.97535 56.215684 
L 656.967464 56.292262 
L 656.960837 56.368841 
L 656.957515 56.415023 
L 656.955078 56.445419 
L 656.949983 56.521998 
L 656.945853 56.598576 
L 656.942307 56.675154 
L 656.939009 56.751733 
L 656.935747 56.828311 
L 656.932477 56.90489 
L 656.929284 56.981468 
L 656.926304 57.058047 
L 656.923645 57.134625 
L 656.921346 57.211203 
L 656.919381 57.287782 
L 656.919381 57.287782 
L 656.916183 57.36436 
L 656.913381 57.440939 
L 656.910935 57.517517 
L 656.908851 57.594095 
L 656.907177 57.670674 
L 656.905974 57.747252 
L 656.9053 57.823831 
L 656.905192 57.900409 
L 656.905672 57.976988 
L 656.906747 58.053566 
L 656.908424 58.130144 
L 656.910732 58.206723 
L 656.913738 58.283301 
L 656.917582 58.35988 
L 656.919381 58.388694 
L 656.92105 58.436458 
L 656.924466 58.513037 
L 656.92909 58.589615 
L 656.935592 58.666193 
L 656.945031 58.742772 
L 656.957515 58.811919 
L 656.958652 58.81935 
L 656.973915 58.895929 
L 656.995649 58.966559 
L 656.998558 58.972507 
z
M 657.018644 58.895929 
L 656.995649 58.837006 
L 656.991096 58.81935 
L 656.975718 58.742772 
L 656.965491 58.666193 
L 656.958523 58.589615 
L 656.957515 58.5748 
L 656.95202 58.513037 
L 656.947006 58.436458 
L 656.943221 58.35988 
L 656.940242 58.283301 
L 656.937818 58.206723 
L 656.935831 58.130144 
L 656.934256 58.053566 
L 656.933123 57.976988 
L 656.932485 57.900409 
L 656.932379 57.823831 
L 656.932808 57.747252 
L 656.933738 57.670674 
L 656.935103 57.594095 
L 656.936836 57.517517 
L 656.938891 57.440939 
L 656.941271 57.36436 
L 656.944032 57.287782 
L 656.947274 57.211203 
L 656.951099 57.134625 
L 656.955561 57.058047 
L 656.957515 57.027185 
L 656.959829 56.981468 
L 656.964019 56.90489 
L 656.968522 56.828311 
L 656.973245 56.751733 
L 656.97821 56.675154 
L 656.983594 56.598576 
L 656.989693 56.521998 
L 656.995649 56.457379 
L 656.997444 56.445419 
L 657.010268 56.368841 
L 657.025104 56.292262 
L 657.033784 56.250964 
L 657.071918 56.292262 
L 657.071918 56.292262 
L 657.081899 56.368841 
L 657.090635 56.445419 
L 657.09857 56.521998 
L 657.10607 56.598576 
L 657.110052 56.638888 
L 657.112844 56.675154 
L 657.11885 56.751733 
L 657.124667 56.828311 
L 657.130182 56.90489 
L 657.135251 56.981468 
L 657.13975 57.058047 
L 657.14361 57.134625 
L 657.146818 57.211203 
L 657.148186 57.25073 
L 657.149911 57.287782 
L 657.152764 57.36436 
L 657.15491 57.440939 
L 657.156461 57.517517 
L 657.157534 57.594095 
L 657.158237 57.670674 
L 657.158666 57.747252 
L 657.158899 57.823831 
L 657.158989 57.900409 
L 657.158965 57.976988 
L 657.158831 58.053566 
L 657.158564 58.130144 
L 657.158104 58.206723 
L 657.157342 58.283301 
L 657.156101 58.35988 
L 657.154113 58.436458 
L 657.150989 58.513037 
L 657.148186 58.558932 
L 657.146656 58.589615 
L 657.141024 58.666193 
L 657.132326 58.742772 
L 657.118811 58.81935 
L 657.110052 58.85523 
L 657.092384 58.895929 
L 657.071918 58.933326 
L 657.033784 58.926751 
z
" clip-path="url(#p481eeeee15)" style="fill: #b3b3f6"/>
    <path d="M 657.033784 58.926751 
L 657.071918 58.933326 
L 657.092384 58.895929 
L 657.110052 58.85523 
L 657.118811 58.81935 
L 657.132326 58.742772 
L 657.141024 58.666193 
L 657.146656 58.589615 
L 657.148186 58.558932 
L 657.150989 58.513037 
L 657.154113 58.436458 
L 657.156101 58.35988 
L 657.157342 58.283301 
L 657.158104 58.206723 
L 657.158564 58.130144 
L 657.158831 58.053566 
L 657.158965 57.976988 
L 657.158989 57.900409 
L 657.158899 57.823831 
L 657.158666 57.747252 
L 657.158237 57.670674 
L 657.157534 57.594095 
L 657.156461 57.517517 
L 657.15491 57.440939 
L 657.152764 57.36436 
L 657.149911 57.287782 
L 657.148186 57.25073 
L 657.146818 57.211203 
L 657.14361 57.134625 
L 657.13975 57.058047 
L 657.135251 56.981468 
L 657.130182 56.90489 
L 657.124667 56.828311 
L 657.11885 56.751733 
L 657.112844 56.675154 
L 657.110052 56.638888 
L 657.10607 56.598576 
L 657.09857 56.521998 
L 657.090635 56.445419 
L 657.081899 56.368841 
L 657.071918 56.292262 
L 657.071918 56.292262 
L 657.033784 56.250964 
L 657.025104 56.292262 
L 657.010268 56.368841 
L 656.997444 56.445419 
L 656.995649 56.457379 
L 656.989693 56.521998 
L 656.983594 56.598576 
L 656.97821 56.675154 
L 656.973245 56.751733 
L 656.968522 56.828311 
L 656.964019 56.90489 
L 656.959829 56.981468 
L 656.957515 57.027185 
L 656.955561 57.058047 
L 656.951099 57.134625 
L 656.947274 57.211203 
L 656.944032 57.287782 
L 656.941271 57.36436 
L 656.938891 57.440939 
L 656.936836 57.517517 
L 656.935103 57.594095 
L 656.933738 57.670674 
L 656.932808 57.747252 
L 656.932379 57.823831 
L 656.932485 57.900409 
L 656.933123 57.976988 
L 656.934256 58.053566 
L 656.935831 58.130144 
L 656.937818 58.206723 
L 656.940242 58.283301 
L 656.943221 58.35988 
L 656.947006 58.436458 
L 656.95202 58.513037 
L 656.957515 58.5748 
L 656.958523 58.589615 
L 656.965491 58.666193 
L 656.975718 58.742772 
L 656.991096 58.81935 
L 656.995649 58.837006 
L 657.018644 58.895929 
z
M 657.022228 58.81935 
L 656.998336 58.742772 
L 656.995649 58.731275 
L 656.984717 58.666193 
L 656.975804 58.589615 
L 656.969622 58.513037 
L 656.965191 58.436458 
L 656.961865 58.35988 
L 656.959225 58.283301 
L 656.957515 58.224055 
L 656.956848 58.206723 
L 656.95434 58.130144 
L 656.952301 58.053566 
L 656.950773 57.976988 
L 656.949833 57.900409 
L 656.949552 57.823831 
L 656.949956 57.747252 
L 656.951023 57.670674 
L 656.952686 57.594095 
L 656.954869 57.517517 
L 656.957515 57.440939 
L 656.957515 57.440927 
L 656.959758 57.36436 
L 656.962386 57.287782 
L 656.965519 57.211203 
L 656.969286 57.134625 
L 656.973781 57.058047 
L 656.979016 56.981468 
L 656.984906 56.90489 
L 656.991297 56.828311 
L 656.995649 56.777513 
L 656.998998 56.751733 
L 657.009221 56.675154 
L 657.020693 56.598576 
L 657.033784 56.521998 
L 657.071918 56.573064 
L 657.075072 56.598576 
L 657.084593 56.675154 
L 657.093863 56.751733 
L 657.102907 56.828311 
L 657.110052 56.890476 
L 657.111312 56.90489 
L 657.11789 56.981468 
L 657.123719 57.058047 
L 657.128704 57.134625 
L 657.132833 57.211203 
L 657.136148 57.287782 
L 657.138729 57.36436 
L 657.140669 57.440939 
L 657.142068 57.517517 
L 657.143025 57.594095 
L 657.143636 57.670674 
L 657.143985 57.747252 
L 657.144143 57.823831 
L 657.14416 57.900409 
L 657.144064 57.976988 
L 657.143861 58.053566 
L 657.143526 58.130144 
L 657.142999 58.206723 
L 657.142168 58.283301 
L 657.140855 58.35988 
L 657.138795 58.436458 
L 657.135596 58.513037 
L 657.130675 58.589615 
L 657.12315 58.666193 
L 657.111634 58.742772 
L 657.110052 58.750841 
L 657.087586 58.81935 
L 657.071918 58.85431 
L 657.033784 58.847382 
z
" clip-path="url(#p481eeeee15)" style="fill: #9898f7"/>
    <path d="M 657.033784 58.847382 
L 657.071918 58.85431 
L 657.087586 58.81935 
L 657.110052 58.750841 
L 657.111634 58.742772 
L 657.12315 58.666193 
L 657.130675 58.589615 
L 657.135596 58.513037 
L 657.138795 58.436458 
L 657.140855 58.35988 
L 657.142168 58.283301 
L 657.142999 58.206723 
L 657.143526 58.130144 
L 657.143861 58.053566 
L 657.144064 57.976988 
L 657.14416 57.900409 
L 657.144143 57.823831 
L 657.143985 57.747252 
L 657.143636 57.670674 
L 657.143025 57.594095 
L 657.142068 57.517517 
L 657.140669 57.440939 
L 657.138729 57.36436 
L 657.136148 57.287782 
L 657.132833 57.211203 
L 657.128704 57.134625 
L 657.123719 57.058047 
L 657.11789 56.981468 
L 657.111312 56.90489 
L 657.110052 56.890476 
L 657.102907 56.828311 
L 657.093863 56.751733 
L 657.084593 56.675154 
L 657.075072 56.598576 
L 657.071918 56.573064 
L 657.033784 56.521998 
L 657.020693 56.598576 
L 657.009221 56.675154 
L 656.998998 56.751733 
L 656.995649 56.777513 
L 656.991297 56.828311 
L 656.984906 56.90489 
L 656.979016 56.981468 
L 656.973781 57.058047 
L 656.969286 57.134625 
L 656.965519 57.211203 
L 656.962386 57.287782 
L 656.959758 57.36436 
L 656.957515 57.440927 
L 656.957515 57.440939 
L 656.954869 57.517517 
L 656.952686 57.594095 
L 656.951023 57.670674 
L 656.949956 57.747252 
L 656.949552 57.823831 
L 656.949833 57.900409 
L 656.950773 57.976988 
L 656.952301 58.053566 
L 656.95434 58.130144 
L 656.956848 58.206723 
L 656.957515 58.224055 
L 656.959225 58.283301 
L 656.961865 58.35988 
L 656.965191 58.436458 
L 656.969622 58.513037 
L 656.975804 58.589615 
L 656.984717 58.666193 
L 656.995649 58.731275 
L 656.998336 58.742772 
L 657.022228 58.81935 
z
M 657.015454 58.666193 
L 657.001352 58.589615 
L 656.995649 58.546021 
L 656.99235 58.513037 
L 656.986725 58.436458 
L 656.982632 58.35988 
L 656.979501 58.283301 
L 656.976961 58.206723 
L 656.974802 58.130144 
L 656.972958 58.053566 
L 656.971473 57.976988 
L 656.970452 57.900409 
L 656.969999 57.823831 
L 656.970174 57.747252 
L 656.970977 57.670674 
L 656.972363 57.594095 
L 656.974275 57.517517 
L 656.976682 57.440939 
L 656.97961 57.36436 
L 656.983151 57.287782 
L 656.987451 57.211203 
L 656.992673 57.134625 
L 656.995649 57.096867 
L 656.999921 57.058047 
L 657.009624 56.981468 
L 657.020938 56.90489 
L 657.03377 56.828311 
L 657.033784 56.82823 
L 657.033881 56.828311 
L 657.071918 56.856048 
L 657.078898 56.90489 
L 657.089361 56.981468 
L 657.098756 57.058047 
L 657.106895 57.134625 
L 657.110052 57.169025 
L 657.11296 57.211203 
L 657.117315 57.287782 
L 657.120702 57.36436 
L 657.123251 57.440939 
L 657.12509 57.517517 
L 657.126338 57.594095 
L 657.127104 57.670674 
L 657.12749 57.747252 
L 657.127584 57.823831 
L 657.127458 57.900409 
L 657.127163 57.976988 
L 657.126722 58.053566 
L 657.126111 58.130144 
L 657.125251 58.206723 
L 657.123988 58.283301 
L 657.122077 58.35988 
L 657.119161 58.436458 
L 657.114714 58.513037 
L 657.110052 58.567303 
L 657.107244 58.589615 
L 657.093357 58.666193 
L 657.071918 58.742772 
L 657.033784 58.734511 
z
" clip-path="url(#p481eeeee15)" style="fill: #7a7af9"/>
    <path d="M 657.033784 58.734511 
L 657.071918 58.742772 
L 657.093357 58.666193 
L 657.107244 58.589615 
L 657.110052 58.567303 
L 657.114714 58.513037 
L 657.119161 58.436458 
L 657.122077 58.35988 
L 657.123988 58.283301 
L 657.125251 58.206723 
L 657.126111 58.130144 
L 657.126722 58.053566 
L 657.127163 57.976988 
L 657.127458 57.900409 
L 657.127584 57.823831 
L 657.12749 57.747252 
L 657.127104 57.670674 
L 657.126338 57.594095 
L 657.12509 57.517517 
L 657.123251 57.440939 
L 657.120702 57.36436 
L 657.117315 57.287782 
L 657.11296 57.211203 
L 657.110052 57.169025 
L 657.106895 57.134625 
L 657.098756 57.058047 
L 657.089361 56.981468 
L 657.078898 56.90489 
L 657.071918 56.856048 
L 657.033881 56.828311 
L 657.033784 56.82823 
L 657.03377 56.828311 
L 657.020938 56.90489 
L 657.009624 56.981468 
L 656.999921 57.058047 
L 656.995649 57.096867 
L 656.992673 57.134625 
L 656.987451 57.211203 
L 656.983151 57.287782 
L 656.97961 57.36436 
L 656.976682 57.440939 
L 656.974275 57.517517 
L 656.972363 57.594095 
L 656.970977 57.670674 
L 656.970174 57.747252 
L 656.969999 57.823831 
L 656.970452 57.900409 
L 656.971473 57.976988 
L 656.972958 58.053566 
L 656.974802 58.130144 
L 656.976961 58.206723 
L 656.979501 58.283301 
L 656.982632 58.35988 
L 656.986725 58.436458 
L 656.99235 58.513037 
L 656.995649 58.546021 
L 657.001352 58.589615 
L 657.015454 58.666193 
z
M 657.028765 58.589615 
L 657.017081 58.513037 
L 657.008971 58.436458 
L 657.003168 58.35988 
L 656.9988 58.283301 
L 656.995649 58.214983 
L 656.995346 58.206723 
L 656.992931 58.130144 
L 656.990833 58.053566 
L 656.989078 57.976988 
L 656.987782 57.900409 
L 656.987088 57.823831 
L 656.987098 57.747252 
L 656.987852 57.670674 
L 656.989335 57.594095 
L 656.991509 57.517517 
L 656.994358 57.440939 
L 656.995649 57.412528 
L 656.998524 57.36436 
L 657.004086 57.287782 
L 657.010976 57.211203 
L 657.019525 57.134625 
L 657.030031 57.058047 
L 657.033784 57.033805 
L 657.071918 57.052261 
L 657.072718 57.058047 
L 657.082504 57.134625 
L 657.090685 57.211203 
L 657.097314 57.287782 
L 657.102514 57.36436 
L 657.106443 57.440939 
L 657.109274 57.517517 
L 657.110052 57.548483 
L 657.110949 57.594095 
L 657.111859 57.670674 
L 657.112279 57.747252 
L 657.112313 57.823831 
L 657.112055 57.900409 
L 657.111578 57.976988 
L 657.110917 58.053566 
L 657.110052 58.130144 
L 657.110052 58.130144 
L 657.10851 58.206723 
L 657.106299 58.283301 
L 657.103013 58.35988 
L 657.098047 58.436458 
L 657.090504 58.513037 
L 657.079037 58.589615 
L 657.071918 58.623051 
L 657.033784 58.61374 
z
" clip-path="url(#p481eeeee15)" style="fill: #5858fb"/>
    <path d="M 657.033784 58.61374 
L 657.071918 58.623051 
L 657.079037 58.589615 
L 657.090504 58.513037 
L 657.098047 58.436458 
L 657.103013 58.35988 
L 657.106299 58.283301 
L 657.10851 58.206723 
L 657.110052 58.130144 
L 657.110052 58.130144 
L 657.110917 58.053566 
L 657.111578 57.976988 
L 657.112055 57.900409 
L 657.112313 57.823831 
L 657.112279 57.747252 
L 657.111859 57.670674 
L 657.110949 57.594095 
L 657.110052 57.548483 
L 657.109274 57.517517 
L 657.106443 57.440939 
L 657.102514 57.36436 
L 657.097314 57.287782 
L 657.090685 57.211203 
L 657.082504 57.134625 
L 657.072718 57.058047 
L 657.071918 57.052261 
L 657.033784 57.033805 
L 657.030031 57.058047 
L 657.019525 57.134625 
L 657.010976 57.211203 
L 657.004086 57.287782 
L 656.998524 57.36436 
L 656.995649 57.412528 
L 656.994358 57.440939 
L 656.991509 57.517517 
L 656.989335 57.594095 
L 656.987852 57.670674 
L 656.987098 57.747252 
L 656.987088 57.823831 
L 656.987782 57.900409 
L 656.989078 57.976988 
L 656.990833 58.053566 
L 656.992931 58.130144 
L 656.995346 58.206723 
L 656.995649 58.214983 
L 656.9988 58.283301 
L 657.003168 58.35988 
L 657.008971 58.436458 
L 657.017081 58.513037 
L 657.028765 58.589615 
z
M 657.029933 58.513037 
L 657.021197 58.436458 
L 657.015029 58.35988 
L 657.010473 58.283301 
L 657.006863 58.206723 
L 657.003778 58.130144 
L 657.001029 58.053566 
L 656.998642 57.976988 
L 656.996803 57.900409 
L 656.995745 57.823831 
L 656.995649 57.747252 
L 656.996591 57.670674 
L 656.99855 57.594095 
L 657.001475 57.517517 
L 657.005348 57.440939 
L 657.010245 57.36436 
L 657.016361 57.287782 
L 657.024 57.211203 
L 657.03352 57.134625 
L 657.033784 57.132755 
L 657.038282 57.134625 
L 657.071918 57.148934 
L 657.079054 57.211203 
L 657.086251 57.287782 
L 657.091914 57.36436 
L 657.096216 57.440939 
L 657.099329 57.517517 
L 657.101423 57.594095 
L 657.102659 57.670674 
L 657.103189 57.747252 
L 657.103153 57.823831 
L 657.102678 57.900409 
L 657.101868 57.976988 
L 657.100781 58.053566 
L 657.099397 58.130144 
L 657.097584 58.206723 
L 657.095061 58.283301 
L 657.091373 58.35988 
L 657.08584 58.436458 
L 657.077471 58.513037 
L 657.071918 58.548251 
L 657.033784 58.537513 
z
" clip-path="url(#p481eeeee15)" style="fill: #4040fc"/>
    <path d="M 657.033784 58.537513 
L 657.071918 58.548251 
L 657.077471 58.513037 
L 657.08584 58.436458 
L 657.091373 58.35988 
L 657.095061 58.283301 
L 657.097584 58.206723 
L 657.099397 58.130144 
L 657.100781 58.053566 
L 657.101868 57.976988 
L 657.102678 57.900409 
L 657.103153 57.823831 
L 657.103189 57.747252 
L 657.102659 57.670674 
L 657.101423 57.594095 
L 657.099329 57.517517 
L 657.096216 57.440939 
L 657.091914 57.36436 
L 657.086251 57.287782 
L 657.079054 57.211203 
L 657.071918 57.148934 
L 657.038282 57.134625 
L 657.033784 57.132755 
L 657.03352 57.134625 
L 657.024 57.211203 
L 657.016361 57.287782 
L 657.010245 57.36436 
L 657.005348 57.440939 
L 657.001475 57.517517 
L 656.99855 57.594095 
L 656.996591 57.670674 
L 656.995649 57.747252 
L 656.995745 57.823831 
L 656.996803 57.900409 
L 656.998642 57.976988 
L 657.001029 58.053566 
L 657.003778 58.130144 
L 657.006863 58.206723 
L 657.010473 58.283301 
L 657.015029 58.35988 
L 657.021197 58.436458 
L 657.029933 58.513037 
z
M 657.033585 58.130144 
L 657.030747 58.053566 
L 657.028191 57.976988 
L 657.026078 57.900409 
L 657.024681 57.823831 
L 657.024259 57.747252 
L 657.024983 57.670674 
L 657.026928 57.594095 
L 657.030116 57.517517 
L 657.033784 57.454486 
L 657.071918 57.481841 
L 657.073682 57.517517 
L 657.07627 57.594095 
L 657.077749 57.670674 
L 657.078267 57.747252 
L 657.077983 57.823831 
L 657.077069 57.900409 
L 657.075688 57.976988 
L 657.073964 58.053566 
L 657.071918 58.130144 
L 657.071918 58.130144 
L 657.033784 58.134941 
z
" clip-path="url(#p481eeeee15)" style="fill: #2323fd"/>
    <path d="M 657.033784 58.134941 
L 657.071918 58.130144 
L 657.071918 58.130144 
L 657.073964 58.053566 
L 657.075688 57.976988 
L 657.077069 57.900409 
L 657.077983 57.823831 
L 657.078267 57.747252 
L 657.077749 57.670674 
L 657.07627 57.594095 
L 657.073682 57.517517 
L 657.071918 57.481841 
L 657.033784 57.454486 
L 657.030116 57.517517 
L 657.026928 57.594095 
L 657.024983 57.670674 
L 657.024259 57.747252 
L 657.024681 57.823831 
L 657.026078 57.900409 
L 657.028191 57.976988 
L 657.030747 58.053566 
L 657.033585 58.130144 
z
" clip-path="url(#p481eeeee15)" style="fill: #0707ff"/>
   </g>
   <g id="QuadContourSet_2">
    <path d="M 656.857513 64.390568 
L 658.661005 64.217328 
L 659.656436 64.151404 
L 661.390008 63.583768 
L 662.324811 62.950209 
L 662.45536 62.82564 
L 663.498838 62.316649 
L 664.262726 61.683089 
L 664.674945 61.04953 
L 664.90757 60.41597 
L 665.043527 59.78241 
L 665.1247 59.148851 
L 665.173154 58.515291 
L 665.200935 57.881732 
L 665.2148 57.248172 
L 665.218588 56.614612 
L 665.214467 55.981053 
L 665.203628 55.347493 
L 665.186682 54.713933 
L 665.163932 54.080374 
L 665.135556 53.446814 
L 665.101757 52.813254 
L 665.062837 52.179695 
L 665.019186 51.546135 
L 664.971139 50.912575 
L 664.918738 50.279016 
L 664.861527 49.645456 
L 664.798499 49.011897 
L 664.728301 48.378337 
L 664.649614 47.744777 
L 664.561516 47.111218 
L 664.463527 46.477658 
L 664.355114 45.844098 
L 664.234742 45.210539 
L 664.099003 44.576979 
L 663.942533 43.943419 
L 663.759179 43.30986 
L 663.544372 42.6763 
L 663.298198 42.04274 
L 663.027844 41.409181 
L 662.747069 40.775621 
L 662.47086 40.142062 
L 662.45536 40.101699 
L 662.40591 39.508502 
L 662.354239 38.874942 
L 662.300554 38.241383 
L 662.240898 37.607823 
L 662.171334 36.974263 
L 662.088733 36.340704 
L 661.99125 35.707144 
L 661.878685 35.073584 
L 661.752782 34.440025 
L 661.617314 33.806465 
L 661.47763 33.172905 
L 661.339422 32.539346 
L 661.206825 31.905786 
L 661.080531 31.272227 
L 660.956788 30.638667 
L 660.827887 30.005107 
L 660.683981 29.371548 
L 660.515641 28.737988 
L 660.316677 28.104428 
L 660.087064 27.470869 
L 659.835616 26.837309 
L 659.656436 26.381186 
L 659.592795 26.203749 
L 659.389306 25.57019 
L 659.212898 24.93663 
L 659.077415 24.30307 
L 658.982779 23.669511 
L 658.910917 23.035951 
L 658.830982 22.402392 
L 658.7094 21.768832 
L 658.517734 21.135272 
L 658.236431 20.501713 
L 657.857316 19.868153 
L 657.387908 19.234593 
L 656.857513 18.601034 
L 655.861564 19.234593 
L 655.005875 19.868153 
L 654.337058 20.501713 
L 654.058589 20.85691 
L 653.916143 21.135272 
L 653.684966 21.768832 
L 653.526637 22.402392 
L 653.400894 23.035951 
L 653.265424 23.669511 
L 653.08948 24.30307 
L 652.864797 24.93663 
L 652.603767 25.57019 
L 652.327071 26.203749 
L 652.051592 26.837309 
L 651.784936 27.470869 
L 651.525901 28.104428 
L 651.26825 28.737988 
L 651.259666 28.758026 
L 650.740603 29.371548 
L 650.235976 30.005107 
L 649.769252 30.638667 
L 649.342665 31.272227 
L 648.95428 31.905786 
L 648.600164 32.539346 
L 648.460742 32.806188 
L 648.134835 33.172905 
L 647.616799 33.806465 
L 647.14622 34.440025 
L 646.719284 35.073584 
L 646.330915 35.707144 
L 645.969638 36.340704 
L 645.661819 36.89294 
L 645.601796 36.974263 
L 645.116522 37.607823 
L 644.647544 38.241383 
L 644.199421 38.874942 
L 643.786597 39.508502 
L 643.426881 40.142062 
L 643.134582 40.775621 
L 642.916328 41.409181 
L 642.862895 41.632523 
L 642.66034 42.04274 
L 642.46918 42.6763 
L 642.387569 43.30986 
L 642.384584 43.943419 
L 642.415891 44.576979 
L 642.436231 45.210539 
L 642.415489 45.844098 
L 642.347333 46.477658 
L 642.245584 47.111218 
L 642.133124 47.744777 
L 642.031233 48.378337 
L 641.953438 49.011897 
L 641.903288 49.645456 
L 641.87388 50.279016 
L 641.848852 50.912575 
L 641.809938 51.546135 
L 641.761472 52.179695 
L 641.761478 52.813254 
L 641.89547 53.446814 
L 642.193153 54.080374 
L 642.61983 54.713933 
L 642.862895 54.995288 
L 642.937565 55.347493 
L 643.137245 55.981053 
L 643.429925 56.614612 
L 643.859818 57.248172 
L 644.505938 57.881732 
L 645.506999 58.515291 
L 645.661819 58.593251 
L 646.058207 59.148851 
L 646.825287 59.78241 
L 648.211525 60.41597 
L 648.460742 60.509192 
L 648.828039 61.04953 
L 649.587502 61.683089 
L 651.09355 62.316649 
L 651.259666 62.377935 
L 651.920815 62.950209 
L 653.425178 63.583768 
L 654.058589 63.79049 
L 656.042435 64.217328 
z
M 655.57705 62.316649 
L 654.058589 61.876667 
L 653.578967 61.683089 
L 652.334905 61.04953 
L 651.644459 60.41597 
L 651.259666 59.832979 
L 651.168411 59.78241 
L 650.201279 59.148851 
L 649.605285 58.515291 
L 649.223855 57.881732 
L 648.972267 57.248172 
L 648.803158 56.614612 
L 648.689425 55.981053 
L 648.615338 55.347493 
L 648.571587 54.713933 
L 648.552279 54.080374 
L 648.552977 53.446814 
L 648.569476 52.813254 
L 648.597325 52.179695 
L 648.632151 51.546135 
L 648.670696 50.912575 
L 648.712116 50.279016 
L 648.75879 49.645456 
L 648.815835 49.011897 
L 648.889232 48.378337 
L 648.983354 47.744777 
L 649.099368 47.111218 
L 649.235535 46.477658 
L 649.389427 45.844098 
L 649.561165 45.210539 
L 649.756489 44.576979 
L 649.988727 43.943419 
L 650.279097 43.30986 
L 650.654975 42.6763 
L 651.145656 42.04274 
L 651.259666 41.91477 
L 651.520057 41.409181 
L 651.907277 40.775621 
L 652.349455 40.142062 
L 652.823203 39.508502 
L 653.307882 38.874942 
L 653.797713 38.241383 
L 654.058589 37.902249 
L 654.638634 37.607823 
L 655.876887 36.974263 
L 656.857513 36.508067 
L 657.212811 36.974263 
L 657.638168 37.607823 
L 658.012326 38.241383 
L 658.356472 38.874942 
L 658.688589 39.508502 
L 659.017997 40.142062 
L 659.343471 40.775621 
L 659.656436 41.409181 
L 659.656436 41.409181 
L 660.041798 42.04274 
L 660.385235 42.6763 
L 660.681456 43.30986 
L 660.933728 43.943419 
L 661.150018 44.576979 
L 661.339097 45.210539 
L 661.507882 45.844098 
L 661.660449 46.477658 
L 661.798568 47.111218 
L 661.923002 47.744777 
L 662.034637 48.378337 
L 662.134933 49.011897 
L 662.225721 49.645456 
L 662.308713 50.279016 
L 662.38506 50.912575 
L 662.45521 51.546135 
L 662.45536 51.547474 
L 662.768552 52.179695 
L 663.046764 52.813254 
L 663.285888 53.446814 
L 663.483407 54.080374 
L 663.637728 54.713933 
L 663.747516 55.347493 
L 663.810606 55.981053 
L 663.82259 56.614612 
L 663.774905 57.248172 
L 663.651915 57.881732 
L 663.42596 58.515291 
L 663.048374 59.148851 
L 662.45536 59.763456 
L 662.44962 59.78241 
L 662.189122 60.41597 
L 661.727552 61.04953 
L 660.882375 61.683089 
L 659.656436 62.215985 
L 658.961523 62.316649 
L 656.857513 62.629202 
z
" clip-path="url(#p481eeeee15)" style="fill: #e5f0e5; fill-opacity: 0.5"/>
    <path d="M 656.857513 62.629202 
L 658.961523 62.316649 
L 659.656436 62.215985 
L 660.882375 61.683089 
L 661.727552 61.04953 
L 662.189122 60.41597 
L 662.44962 59.78241 
L 662.45536 59.763456 
L 663.048374 59.148851 
L 663.42596 58.515291 
L 663.651915 57.881732 
L 663.774905 57.248172 
L 663.82259 56.614612 
L 663.810606 55.981053 
L 663.747516 55.347493 
L 663.637728 54.713933 
L 663.483407 54.080374 
L 663.285888 53.446814 
L 663.046764 52.813254 
L 662.768552 52.179695 
L 662.45536 51.547474 
L 662.45521 51.546135 
L 662.38506 50.912575 
L 662.308713 50.279016 
L 662.225721 49.645456 
L 662.134933 49.011897 
L 662.034637 48.378337 
L 661.923002 47.744777 
L 661.798568 47.111218 
L 661.660449 46.477658 
L 661.507882 45.844098 
L 661.339097 45.210539 
L 661.150018 44.576979 
L 660.933728 43.943419 
L 660.681456 43.30986 
L 660.385235 42.6763 
L 660.041798 42.04274 
L 659.656436 41.409181 
L 659.656436 41.409181 
L 659.343471 40.775621 
L 659.017997 40.142062 
L 658.688589 39.508502 
L 658.356472 38.874942 
L 658.012326 38.241383 
L 657.638168 37.607823 
L 657.212811 36.974263 
L 656.857513 36.508067 
L 655.876887 36.974263 
L 654.638634 37.607823 
L 654.058589 37.902249 
L 653.797713 38.241383 
L 653.307882 38.874942 
L 652.823203 39.508502 
L 652.349455 40.142062 
L 651.907277 40.775621 
L 651.520057 41.409181 
L 651.259666 41.91477 
L 651.145656 42.04274 
L 650.654975 42.6763 
L 650.279097 43.30986 
L 649.988727 43.943419 
L 649.756489 44.576979 
L 649.561165 45.210539 
L 649.389427 45.844098 
L 649.235535 46.477658 
L 649.099368 47.111218 
L 648.983354 47.744777 
L 648.889232 48.378337 
L 648.815835 49.011897 
L 648.75879 49.645456 
L 648.712116 50.279016 
L 648.670696 50.912575 
L 648.632151 51.546135 
L 648.597325 52.179695 
L 648.569476 52.813254 
L 648.552977 53.446814 
L 648.552279 54.080374 
L 648.571587 54.713933 
L 648.615338 55.347493 
L 648.689425 55.981053 
L 648.803158 56.614612 
L 648.972267 57.248172 
L 649.223855 57.881732 
L 649.605285 58.515291 
L 650.201279 59.148851 
L 651.168411 59.78241 
L 651.259666 59.832979 
L 651.644459 60.41597 
L 652.334905 61.04953 
L 653.578967 61.683089 
L 654.058589 61.876667 
L 655.57705 62.316649 
z
M 654.861605 61.04953 
L 654.058589 60.751877 
L 653.378717 60.41597 
L 652.452971 59.78241 
L 651.888529 59.148851 
L 651.528367 58.515291 
L 651.289538 57.881732 
L 651.259666 57.777025 
L 650.802934 57.248172 
L 650.44188 56.614612 
L 650.217391 55.981053 
L 650.091269 55.347493 
L 650.040655 54.713933 
L 650.051481 54.080374 
L 650.114434 53.446814 
L 650.222383 52.813254 
L 650.368859 52.179695 
L 650.547503 51.546135 
L 650.752442 50.912575 
L 650.979329 50.279016 
L 651.226463 49.645456 
L 651.259666 49.561361 
L 651.35917 49.011897 
L 651.488672 48.378337 
L 651.637945 47.744777 
L 651.810842 47.111218 
L 652.01122 46.477658 
L 652.243277 45.844098 
L 652.512862 45.210539 
L 652.829592 44.576979 
L 653.208869 43.943419 
L 653.672345 43.30986 
L 654.058589 42.865848 
L 654.632211 42.6763 
L 656.857513 42.04274 
L 657.461719 42.6763 
L 657.979491 43.30986 
L 658.422448 43.943419 
L 658.806493 44.576979 
L 659.147032 45.210539 
L 659.455883 45.844098 
L 659.656436 46.27859 
L 659.761486 46.477658 
L 660.086182 47.111218 
L 660.378081 47.744777 
L 660.639596 48.378337 
L 660.874629 49.011897 
L 661.087839 49.645456 
L 661.283261 50.279016 
L 661.463233 50.912575 
L 661.628151 51.546135 
L 661.777029 52.179695 
L 661.908372 52.813254 
L 662.020866 53.446814 
L 662.113605 54.080374 
L 662.185921 54.713933 
L 662.236943 55.347493 
L 662.264998 55.981053 
L 662.266815 56.614612 
L 662.236351 57.248172 
L 662.16289 57.881732 
L 662.027676 58.515291 
L 661.797651 59.148851 
L 661.413292 59.78241 
L 660.763931 60.41597 
L 659.656436 61.041511 
L 659.624512 61.04953 
L 656.857513 61.611601 
z
" clip-path="url(#p481eeeee15)" style="fill: #d6e9d6; fill-opacity: 0.5"/>
    <path d="M 656.857513 61.611601 
L 659.624512 61.04953 
L 659.656436 61.041511 
L 660.763931 60.41597 
L 661.413292 59.78241 
L 661.797651 59.148851 
L 662.027676 58.515291 
L 662.16289 57.881732 
L 662.236351 57.248172 
L 662.266815 56.614612 
L 662.264998 55.981053 
L 662.236943 55.347493 
L 662.185921 54.713933 
L 662.113605 54.080374 
L 662.020866 53.446814 
L 661.908372 52.813254 
L 661.777029 52.179695 
L 661.628151 51.546135 
L 661.463233 50.912575 
L 661.283261 50.279016 
L 661.087839 49.645456 
L 660.874629 49.011897 
L 660.639596 48.378337 
L 660.378081 47.744777 
L 660.086182 47.111218 
L 659.761486 46.477658 
L 659.656436 46.27859 
L 659.455883 45.844098 
L 659.147032 45.210539 
L 658.806493 44.576979 
L 658.422448 43.943419 
L 657.979491 43.30986 
L 657.461719 42.6763 
L 656.857513 42.04274 
L 654.632211 42.6763 
L 654.058589 42.865848 
L 653.672345 43.30986 
L 653.208869 43.943419 
L 652.829592 44.576979 
L 652.512862 45.210539 
L 652.243277 45.844098 
L 652.01122 46.477658 
L 651.810842 47.111218 
L 651.637945 47.744777 
L 651.488672 48.378337 
L 651.35917 49.011897 
L 651.259666 49.561361 
L 651.226463 49.645456 
L 650.979329 50.279016 
L 650.752442 50.912575 
L 650.547503 51.546135 
L 650.368859 52.179695 
L 650.222383 52.813254 
L 650.114434 53.446814 
L 650.051481 54.080374 
L 650.040655 54.713933 
L 650.091269 55.347493 
L 650.217391 55.981053 
L 650.44188 56.614612 
L 650.802934 57.248172 
L 651.259666 57.777025 
L 651.289538 57.881732 
L 651.528367 58.515291 
L 651.888529 59.148851 
L 652.452971 59.78241 
L 653.378717 60.41597 
L 654.058589 60.751877 
L 654.861605 61.04953 
z
M 655.360645 60.41597 
L 654.058589 59.858076 
L 653.923798 59.78241 
L 652.987703 59.148851 
L 652.400234 58.515291 
L 652.020582 57.881732 
L 651.771557 57.248172 
L 651.609559 56.614612 
L 651.509502 55.981053 
L 651.45694 55.347493 
L 651.443778 54.713933 
L 651.46577 54.080374 
L 651.520899 53.446814 
L 651.608172 52.813254 
L 651.726687 52.179695 
L 651.875008 51.546135 
L 652.05103 50.912575 
L 652.252453 50.279016 
L 652.477777 49.645456 
L 652.72741 49.011897 
L 653.004318 48.378337 
L 653.31384 47.744777 
L 653.662791 47.111218 
L 654.058589 46.477658 
L 654.058589 46.477658 
L 655.187982 45.844098 
L 656.603859 45.210539 
L 656.857513 45.10705 
L 656.942101 45.210539 
L 657.447988 45.844098 
L 657.909721 46.477658 
L 658.332775 47.111218 
L 658.720223 47.744777 
L 659.075155 48.378337 
L 659.40149 49.011897 
L 659.656436 49.53867 
L 659.712317 49.645456 
L 660.043651 50.279016 
L 660.348888 50.912575 
L 660.628367 51.546135 
L 660.880038 52.179695 
L 661.101058 52.813254 
L 661.288996 53.446814 
L 661.442223 54.080374 
L 661.559579 54.713933 
L 661.639592 55.347493 
L 661.679427 55.981053 
L 661.67352 56.614612 
L 661.611595 57.248172 
L 661.475426 57.881732 
L 661.233131 58.515291 
L 660.828544 59.148851 
L 660.160533 59.78241 
L 659.656436 60.118051 
L 658.774857 60.41597 
L 656.857513 60.879149 
z
" clip-path="url(#p481eeeee15)" style="fill: #c2dfc2; fill-opacity: 0.5"/>
    <path d="M 656.857513 60.879149 
L 658.774857 60.41597 
L 659.656436 60.118051 
L 660.160533 59.78241 
L 660.828544 59.148851 
L 661.233131 58.515291 
L 661.475426 57.881732 
L 661.611595 57.248172 
L 661.67352 56.614612 
L 661.679427 55.981053 
L 661.639592 55.347493 
L 661.559579 54.713933 
L 661.442223 54.080374 
L 661.288996 53.446814 
L 661.101058 52.813254 
L 660.880038 52.179695 
L 660.628367 51.546135 
L 660.348888 50.912575 
L 660.043651 50.279016 
L 659.712317 49.645456 
L 659.656436 49.53867 
L 659.40149 49.011897 
L 659.075155 48.378337 
L 658.720223 47.744777 
L 658.332775 47.111218 
L 657.909721 46.477658 
L 657.447988 45.844098 
L 656.942101 45.210539 
L 656.857513 45.10705 
L 656.603859 45.210539 
L 655.187982 45.844098 
L 654.058589 46.477658 
L 654.058589 46.477658 
L 653.662791 47.111218 
L 653.31384 47.744777 
L 653.004318 48.378337 
L 652.72741 49.011897 
L 652.477777 49.645456 
L 652.252453 50.279016 
L 652.05103 50.912575 
L 651.875008 51.546135 
L 651.726687 52.179695 
L 651.608172 52.813254 
L 651.520899 53.446814 
L 651.46577 54.080374 
L 651.443778 54.713933 
L 651.45694 55.347493 
L 651.509502 55.981053 
L 651.609559 56.614612 
L 651.771557 57.248172 
L 652.020582 57.881732 
L 652.400234 58.515291 
L 652.987703 59.148851 
L 653.923798 59.78241 
L 654.058589 59.858076 
L 655.360645 60.41597 
z
M 655.662702 59.78241 
L 654.333768 59.148851 
L 654.058589 58.980493 
L 653.464621 58.515291 
L 652.913051 57.881732 
L 652.558998 57.248172 
L 652.337031 56.614612 
L 652.20951 55.981053 
L 652.154749 55.347493 
L 652.160574 54.713933 
L 652.220596 54.080374 
L 652.331829 53.446814 
L 652.492953 52.813254 
L 652.702919 52.179695 
L 652.959928 51.546135 
L 653.261023 50.912575 
L 653.60256 50.279016 
L 653.981604 49.645456 
L 654.058589 49.517892 
L 654.734333 49.011897 
L 655.700542 48.378337 
L 656.857513 47.744777 
L 657.373398 48.378337 
L 657.848407 49.011897 
L 658.28948 49.645456 
L 658.701391 50.279016 
L 659.085895 50.912575 
L 659.442238 51.546135 
L 659.656436 51.948071 
L 659.784978 52.179695 
L 660.115476 52.813254 
L 660.395518 53.446814 
L 660.62259 54.080374 
L 660.794933 54.713933 
L 660.910338 55.347493 
L 660.964553 55.981053 
L 660.949217 56.614612 
L 660.848883 57.248172 
L 660.636159 57.881732 
L 660.26314 58.515291 
L 659.656436 59.139577 
L 659.642466 59.148851 
L 658.276058 59.78241 
L 656.857513 60.197064 
z
" clip-path="url(#p481eeeee15)" style="fill: #a9d3a9; fill-opacity: 0.5"/>
    <path d="M 656.857513 60.197064 
L 658.276058 59.78241 
L 659.642466 59.148851 
L 659.656436 59.139577 
L 660.26314 58.515291 
L 660.636159 57.881732 
L 660.848883 57.248172 
L 660.949217 56.614612 
L 660.964553 55.981053 
L 660.910338 55.347493 
L 660.794933 54.713933 
L 660.62259 54.080374 
L 660.395518 53.446814 
L 660.115476 52.813254 
L 659.784978 52.179695 
L 659.656436 51.948071 
L 659.442238 51.546135 
L 659.085895 50.912575 
L 658.701391 50.279016 
L 658.28948 49.645456 
L 657.848407 49.011897 
L 657.373398 48.378337 
L 656.857513 47.744777 
L 655.700542 48.378337 
L 654.734333 49.011897 
L 654.058589 49.517892 
L 653.981604 49.645456 
L 653.60256 50.279016 
L 653.261023 50.912575 
L 652.959928 51.546135 
L 652.702919 52.179695 
L 652.492953 52.813254 
L 652.331829 53.446814 
L 652.220596 54.080374 
L 652.160574 54.713933 
L 652.154749 55.347493 
L 652.20951 55.981053 
L 652.337031 56.614612 
L 652.558998 57.248172 
L 652.913051 57.881732 
L 653.464621 58.515291 
L 654.058589 58.980493 
L 654.333768 59.148851 
L 655.662702 59.78241 
z
M 655.924375 59.148851 
L 654.751171 58.515291 
L 654.058589 57.983208 
L 653.954879 57.881732 
L 653.478221 57.248172 
L 653.186249 56.614612 
L 653.026668 55.981053 
L 652.96934 55.347493 
L 652.99733 54.713933 
L 653.101746 54.080374 
L 653.278474 53.446814 
L 653.525807 52.813254 
L 653.842527 52.179695 
L 654.058589 51.806778 
L 654.358152 51.546135 
L 655.1888 50.912575 
L 656.171554 50.279016 
L 656.857513 49.876564 
L 657.203165 50.279016 
L 657.72942 50.912575 
L 658.214689 51.546135 
L 658.65449 52.179695 
L 659.044725 52.813254 
L 659.382393 53.446814 
L 659.656436 54.059815 
L 659.665787 54.080374 
L 659.902319 54.713933 
L 660.05904 55.347493 
L 660.130041 55.981053 
L 660.103698 56.614612 
L 659.958527 57.248172 
L 659.656436 57.881732 
L 659.656436 57.881732 
L 659.023163 58.515291 
L 657.887231 59.148851 
L 656.857513 59.52184 
z
" clip-path="url(#p481eeeee15)" style="fill: #8bc48b; fill-opacity: 0.5"/>
    <path d="M 656.857513 59.52184 
L 657.887231 59.148851 
L 659.023163 58.515291 
L 659.656436 57.881732 
L 659.656436 57.881732 
L 659.958527 57.248172 
L 660.103698 56.614612 
L 660.130041 55.981053 
L 660.05904 55.347493 
L 659.902319 54.713933 
L 659.665787 54.080374 
L 659.656436 54.059815 
L 659.382393 53.446814 
L 659.044725 52.813254 
L 658.65449 52.179695 
L 658.214689 51.546135 
L 657.72942 50.912575 
L 657.203165 50.279016 
L 656.857513 49.876564 
L 656.171554 50.279016 
L 655.1888 50.912575 
L 654.358152 51.546135 
L 654.058589 51.806778 
L 653.842527 52.179695 
L 653.525807 52.813254 
L 653.278474 53.446814 
L 653.101746 54.080374 
L 652.99733 54.713933 
L 652.96934 55.347493 
L 653.026668 55.981053 
L 653.186249 56.614612 
L 653.478221 57.248172 
L 653.954879 57.881732 
L 654.058589 57.983208 
L 654.751171 58.515291 
L 655.924375 59.148851 
z
M 656.827082 59.148851 
L 655.504205 58.515291 
L 654.606276 57.881732 
L 654.058589 57.324231 
L 653.999901 57.248172 
L 653.6682 56.614612 
L 653.490424 55.981053 
L 653.431639 55.347493 
L 653.472208 54.713933 
L 653.601819 54.080374 
L 653.815716 53.446814 
L 654.058589 52.919491 
L 654.147174 52.813254 
L 654.80166 52.179695 
L 655.641117 51.546135 
L 656.662152 50.912575 
L 656.857513 50.796875 
L 656.959589 50.912575 
L 657.518027 51.546135 
L 658.022291 52.179695 
L 658.467101 52.813254 
L 658.848659 53.446814 
L 659.16398 54.080374 
L 659.40927 54.713933 
L 659.577701 55.347493 
L 659.656436 55.981053 
L 659.62218 56.614612 
L 659.433745 57.248172 
L 659.018788 57.881732 
L 658.248926 58.515291 
L 656.891094 59.148851 
L 656.857513 59.161015 
z
" clip-path="url(#p481eeeee15)" style="fill: #72b872; fill-opacity: 0.5"/>
    <path d="M 656.857513 59.161015 
L 656.891094 59.148851 
L 658.248926 58.515291 
L 659.018788 57.881732 
L 659.433745 57.248172 
L 659.62218 56.614612 
L 659.656436 55.981053 
L 659.577701 55.347493 
L 659.40927 54.713933 
L 659.16398 54.080374 
L 658.848659 53.446814 
L 658.467101 52.813254 
L 658.022291 52.179695 
L 657.518027 51.546135 
L 656.959589 50.912575 
L 656.857513 50.796875 
L 656.662152 50.912575 
L 655.641117 51.546135 
L 654.80166 52.179695 
L 654.147174 52.813254 
L 654.058589 52.919491 
L 653.815716 53.446814 
L 653.601819 54.080374 
L 653.472208 54.713933 
L 653.431639 55.347493 
L 653.490424 55.981053 
L 653.6682 56.614612 
L 653.999901 57.248172 
L 654.058589 57.324231 
L 654.606276 57.881732 
L 655.504205 58.515291 
L 656.827082 59.148851 
z
M 656.434053 58.515291 
L 655.426419 57.881732 
L 654.750514 57.248172 
L 654.313122 56.614612 
L 654.06445 55.981053 
L 654.058589 55.934323 
L 654.002487 55.347493 
L 654.058589 54.713933 
L 654.058589 54.713933 
L 654.302403 54.080374 
L 654.726816 53.446814 
L 655.348195 52.813254 
L 656.179504 52.179695 
L 656.857513 51.749236 
L 657.24165 52.179695 
L 657.753851 52.813254 
L 658.189604 53.446814 
L 658.545238 54.080374 
L 658.81621 54.713933 
L 658.99441 55.347493 
L 659.064633 55.981053 
L 658.999343 56.614612 
L 658.749977 57.248172 
L 658.231419 57.881732 
L 657.292896 58.515291 
L 656.857513 58.717327 
z
" clip-path="url(#p481eeeee15)" style="fill: #5eae5e; fill-opacity: 0.5"/>
    <path d="M 656.857513 58.717327 
L 657.292896 58.515291 
L 658.231419 57.881732 
L 658.749977 57.248172 
L 658.999343 56.614612 
L 659.064633 55.981053 
L 658.99441 55.347493 
L 658.81621 54.713933 
L 658.545238 54.080374 
L 658.189604 53.446814 
L 657.753851 52.813254 
L 657.24165 52.179695 
L 656.857513 51.749236 
L 656.179504 52.179695 
L 655.348195 52.813254 
L 654.726816 53.446814 
L 654.302403 54.080374 
L 654.058589 54.713933 
L 654.058589 54.713933 
L 654.002487 55.347493 
L 654.058589 55.934323 
L 654.06445 55.981053 
L 654.313122 56.614612 
L 654.750514 57.248172 
L 655.426419 57.881732 
L 656.434053 58.515291 
z
M 656.827043 57.248172 
L 656.331327 56.614612 
L 656.107244 55.981053 
L 656.12282 55.347493 
L 656.3702 54.713933 
L 656.857513 54.080374 
L 657.198536 54.713933 
L 657.403382 55.347493 
L 657.450386 55.981053 
L 657.300448 56.614612 
L 656.88488 57.248172 
L 656.857513 57.272965 
z
" clip-path="url(#p481eeeee15)" style="fill: #349a34; fill-opacity: 0.5"/>
    <path d="M 656.857513 57.272965 
L 656.88488 57.248172 
L 657.300448 56.614612 
L 657.450386 55.981053 
L 657.403382 55.347493 
L 657.198536 54.713933 
L 656.857513 54.080374 
L 656.3702 54.713933 
L 656.12282 55.347493 
L 656.107244 55.981053 
L 656.331327 56.614612 
L 656.827043 57.248172 
z
" clip-path="url(#p481eeeee15)" style="fill: #0b850b; fill-opacity: 0.5"/>
   </g>
   <g id="matplotlib.axis_1">
    <g id="xtick_1">
     <g id="line2d_1">
      <defs>
       <path id="m858bad5ead" d="M 0 0 
L 0 3.5 
" style="stroke: #000000; stroke-width: 0.8"/>
      </defs>
      <g>
       <use xlink:href="#m858bad5ead" x="210.786029" y="499.48" style="stroke: #000000; stroke-width: 0.8"/>
      </g>
     </g>
     <g id="text_1">
      <!-- 400 -->
      <g transform="translate(180.572123 523.196563) scale(0.22 -0.22)">
       <defs>
        <path id="DejaVuSans-2212" d="M 678 2272 
L 4684 2272 
L 4684 1741 
L 678 1741 
L 678 2272 
z
" transform="scale(0.015625)"/>
        <path id="DejaVuSans-34" d="M 2419 4116 
L 825 1625 
L 2419 1625 
L 2419 4116 
z
M 2253 4666 
L 3047 4666 
L 3047 1625 
L 3713 1625 
L 3713 1100 
L 3047 1100 
L 3047 0 
L 2419 0 
L 2419 1100 
L 313 1100 
L 313 1709 
L 2253 4666 
z
" transform="scale(0.015625)"/>
        <path id="DejaVuSans-30" d="M 2034 4250 
Q 1547 4250 1301 3770 
Q 1056 3291 1056 2328 
Q 1056 1369 1301 889 
Q 1547 409 2034 409 
Q 2525 409 2770 889 
Q 3016 1369 3016 2328 
Q 3016 3291 2770 3770 
Q 2525 4250 2034 4250 
z
M 2034 4750 
Q 2819 4750 3233 4129 
Q 3647 3509 3647 2328 
Q 3647 1150 3233 529 
Q 2819 -91 2034 -91 
Q 1250 -91 836 529 
Q 422 1150 422 2328 
Q 422 3509 836 4129 
Q 1250 4750 2034 4750 
z
" transform="scale(0.015625)"/>
       </defs>
       <use xlink:href="#DejaVuSans-2212"/>
       <use xlink:href="#DejaVuSans-34" x="83.789062"/>
       <use xlink:href="#DejaVuSans-30" x="147.412109"/>
       <use xlink:href="#DejaVuSans-30" x="211.035156"/>
      </g>
     </g>
    </g>
    <g id="xtick_2">
     <g id="line2d_2">
      <g>
       <use xlink:href="#m858bad5ead" x="321.439065" y="499.48" style="stroke: #000000; stroke-width: 0.8"/>
      </g>
     </g>
     <g id="text_2">
      <!-- 300 -->
      <g transform="translate(291.225158 523.196563) scale(0.22 -0.22)">
       <defs>
        <path id="DejaVuSans-33" d="M 2597 2516 
Q 3050 2419 3304 2112 
Q 3559 1806 3559 1356 
Q 3559 666 3084 287 
Q 2609 -91 1734 -91 
Q 1441 -91 1130 -33 
Q 819 25 488 141 
L 488 750 
Q 750 597 1062 519 
Q 1375 441 1716 441 
Q 2309 441 2620 675 
Q 2931 909 2931 1356 
Q 2931 1769 2642 2001 
Q 2353 2234 1838 2234 
L 1294 2234 
L 1294 2753 
L 1863 2753 
Q 2328 2753 2575 2939 
Q 2822 3125 2822 3475 
Q 2822 3834 2567 4026 
Q 2313 4219 1838 4219 
Q 1578 4219 1281 4162 
Q 984 4106 628 3988 
L 628 4550 
Q 988 4650 1302 4700 
Q 1616 4750 1894 4750 
Q 2613 4750 3031 4423 
Q 3450 4097 3450 3541 
Q 3450 3153 3228 2886 
Q 3006 2619 2597 2516 
z
" transform="scale(0.015625)"/>
       </defs>
       <use xlink:href="#DejaVuSans-2212"/>
       <use xlink:href="#DejaVuSans-33" x="83.789062"/>
       <use xlink:href="#DejaVuSans-30" x="147.412109"/>
       <use xlink:href="#DejaVuSans-30" x="211.035156"/>
      </g>
     </g>
    </g>
    <g id="xtick_3">
     <g id="line2d_3">
      <g>
       <use xlink:href="#m858bad5ead" x="432.0921" y="499.48" style="stroke: #000000; stroke-width: 0.8"/>
      </g>
     </g>
     <g id="text_3">
      <!-- 200 -->
      <g transform="translate(401.878194 523.196563) scale(0.22 -0.22)">
       <defs>
        <path id="DejaVuSans-32" d="M 1228 531 
L 3431 531 
L 3431 0 
L 469 0 
L 469 531 
Q 828 903 1448 1529 
Q 2069 2156 2228 2338 
Q 2531 2678 2651 2914 
Q 2772 3150 2772 3378 
Q 2772 3750 2511 3984 
Q 2250 4219 1831 4219 
Q 1534 4219 1204 4116 
Q 875 4013 500 3803 
L 500 4441 
Q 881 4594 1212 4672 
Q 1544 4750 1819 4750 
Q 2544 4750 2975 4387 
Q 3406 4025 3406 3419 
Q 3406 3131 3298 2873 
Q 3191 2616 2906 2266 
Q 2828 2175 2409 1742 
Q 1991 1309 1228 531 
z
" transform="scale(0.015625)"/>
       </defs>
       <use xlink:href="#DejaVuSans-2212"/>
       <use xlink:href="#DejaVuSans-32" x="83.789062"/>
       <use xlink:href="#DejaVuSans-30" x="147.412109"/>
       <use xlink:href="#DejaVuSans-30" x="211.035156"/>
      </g>
     </g>
    </g>
    <g id="xtick_4">
     <g id="line2d_4">
      <g>
       <use xlink:href="#m858bad5ead" x="542.745136" y="499.48" style="stroke: #000000; stroke-width: 0.8"/>
      </g>
     </g>
     <g id="text_4">
      <!-- 100 -->
      <g transform="translate(512.53123 523.196563) scale(0.22 -0.22)">
       <defs>
        <path id="DejaVuSans-31" d="M 794 531 
L 1825 531 
L 1825 4091 
L 703 3866 
L 703 4441 
L 1819 4666 
L 2450 4666 
L 2450 531 
L 3481 531 
L 3481 0 
L 794 0 
L 794 531 
z
" transform="scale(0.015625)"/>
       </defs>
       <use xlink:href="#DejaVuSans-2212"/>
       <use xlink:href="#DejaVuSans-31" x="83.789062"/>
       <use xlink:href="#DejaVuSans-30" x="147.412109"/>
       <use xlink:href="#DejaVuSans-30" x="211.035156"/>
      </g>
     </g>
    </g>
    <g id="xtick_5">
     <g id="line2d_5">
      <g>
       <use xlink:href="#m858bad5ead" x="653.398172" y="499.48" style="stroke: #000000; stroke-width: 0.8"/>
      </g>
     </g>
     <g id="text_5">
      <!-- 0 -->
      <g transform="translate(646.399422 523.196563) scale(0.22 -0.22)">
       <use xlink:href="#DejaVuSans-30"/>
      </g>
     </g>
    </g>
    <g id="text_6">
     <!-- Energy Uncertainties -->
     <g transform="translate(290.907188 548.488438) scale(0.22 -0.22)">
      <defs>
       <path id="DejaVuSans-45" d="M 628 4666 
L 3578 4666 
L 3578 4134 
L 1259 4134 
L 1259 2753 
L 3481 2753 
L 3481 2222 
L 1259 2222 
L 1259 531 
L 3634 531 
L 3634 0 
L 628 0 
L 628 4666 
z
" transform="scale(0.015625)"/>
       <path id="DejaVuSans-6e" d="M 3513 2113 
L 3513 0 
L 2938 0 
L 2938 2094 
Q 2938 2591 2744 2837 
Q 2550 3084 2163 3084 
Q 1697 3084 1428 2787 
Q 1159 2491 1159 1978 
L 1159 0 
L 581 0 
L 581 3500 
L 1159 3500 
L 1159 2956 
Q 1366 3272 1645 3428 
Q 1925 3584 2291 3584 
Q 2894 3584 3203 3211 
Q 3513 2838 3513 2113 
z
" transform="scale(0.015625)"/>
       <path id="DejaVuSans-65" d="M 3597 1894 
L 3597 1613 
L 953 1613 
Q 991 1019 1311 708 
Q 1631 397 2203 397 
Q 2534 397 2845 478 
Q 3156 559 3463 722 
L 3463 178 
Q 3153 47 2828 -22 
Q 2503 -91 2169 -91 
Q 1331 -91 842 396 
Q 353 884 353 1716 
Q 353 2575 817 3079 
Q 1281 3584 2069 3584 
Q 2775 3584 3186 3129 
Q 3597 2675 3597 1894 
z
M 3022 2063 
Q 3016 2534 2758 2815 
Q 2500 3097 2075 3097 
Q 1594 3097 1305 2825 
Q 1016 2553 972 2059 
L 3022 2063 
z
" transform="scale(0.015625)"/>
       <path id="DejaVuSans-72" d="M 2631 2963 
Q 2534 3019 2420 3045 
Q 2306 3072 2169 3072 
Q 1681 3072 1420 2755 
Q 1159 2438 1159 1844 
L 1159 0 
L 581 0 
L 581 3500 
L 1159 3500 
L 1159 2956 
Q 1341 3275 1631 3429 
Q 1922 3584 2338 3584 
Q 2397 3584 2469 3576 
Q 2541 3569 2628 3553 
L 2631 2963 
z
" transform="scale(0.015625)"/>
       <path id="DejaVuSans-67" d="M 2906 1791 
Q 2906 2416 2648 2759 
Q 2391 3103 1925 3103 
Q 1463 3103 1205 2759 
Q 947 2416 947 1791 
Q 947 1169 1205 825 
Q 1463 481 1925 481 
Q 2391 481 2648 825 
Q 2906 1169 2906 1791 
z
M 3481 434 
Q 3481 -459 3084 -895 
Q 2688 -1331 1869 -1331 
Q 1566 -1331 1297 -1286 
Q 1028 -1241 775 -1147 
L 775 -588 
Q 1028 -725 1275 -790 
Q 1522 -856 1778 -856 
Q 2344 -856 2625 -561 
Q 2906 -266 2906 331 
L 2906 616 
Q 2728 306 2450 153 
Q 2172 0 1784 0 
Q 1141 0 747 490 
Q 353 981 353 1791 
Q 353 2603 747 3093 
Q 1141 3584 1784 3584 
Q 2172 3584 2450 3431 
Q 2728 3278 2906 2969 
L 2906 3500 
L 3481 3500 
L 3481 434 
z
" transform="scale(0.015625)"/>
       <path id="DejaVuSans-79" d="M 2059 -325 
Q 1816 -950 1584 -1140 
Q 1353 -1331 966 -1331 
L 506 -1331 
L 506 -850 
L 844 -850 
Q 1081 -850 1212 -737 
Q 1344 -625 1503 -206 
L 1606 56 
L 191 3500 
L 800 3500 
L 1894 763 
L 2988 3500 
L 3597 3500 
L 2059 -325 
z
" transform="scale(0.015625)"/>
       <path id="DejaVuSans-20" transform="scale(0.015625)"/>
       <path id="DejaVuSans-55" d="M 556 4666 
L 1191 4666 
L 1191 1831 
Q 1191 1081 1462 751 
Q 1734 422 2344 422 
Q 2950 422 3222 751 
Q 3494 1081 3494 1831 
L 3494 4666 
L 4128 4666 
L 4128 1753 
Q 4128 841 3676 375 
Q 3225 -91 2344 -91 
Q 1459 -91 1007 375 
Q 556 841 556 1753 
L 556 4666 
z
" transform="scale(0.015625)"/>
       <path id="DejaVuSans-63" d="M 3122 3366 
L 3122 2828 
Q 2878 2963 2633 3030 
Q 2388 3097 2138 3097 
Q 1578 3097 1268 2742 
Q 959 2388 959 1747 
Q 959 1106 1268 751 
Q 1578 397 2138 397 
Q 2388 397 2633 464 
Q 2878 531 3122 666 
L 3122 134 
Q 2881 22 2623 -34 
Q 2366 -91 2075 -91 
Q 1284 -91 818 406 
Q 353 903 353 1747 
Q 353 2603 823 3093 
Q 1294 3584 2113 3584 
Q 2378 3584 2631 3529 
Q 2884 3475 3122 3366 
z
" transform="scale(0.015625)"/>
       <path id="DejaVuSans-74" d="M 1172 4494 
L 1172 3500 
L 2356 3500 
L 2356 3053 
L 1172 3053 
L 1172 1153 
Q 1172 725 1289 603 
Q 1406 481 1766 481 
L 2356 481 
L 2356 0 
L 1766 0 
Q 1100 0 847 248 
Q 594 497 594 1153 
L 594 3053 
L 172 3053 
L 172 3500 
L 594 3500 
L 594 4494 
L 1172 4494 
z
" transform="scale(0.015625)"/>
       <path id="DejaVuSans-61" d="M 2194 1759 
Q 1497 1759 1228 1600 
Q 959 1441 959 1056 
Q 959 750 1161 570 
Q 1363 391 1709 391 
Q 2188 391 2477 730 
Q 2766 1069 2766 1631 
L 2766 1759 
L 2194 1759 
z
M 3341 1997 
L 3341 0 
L 2766 0 
L 2766 531 
Q 2569 213 2275 61 
Q 1981 -91 1556 -91 
Q 1019 -91 701 211 
Q 384 513 384 1019 
Q 384 1609 779 1909 
Q 1175 2209 1959 2209 
L 2766 2209 
L 2766 2266 
Q 2766 2663 2505 2880 
Q 2244 3097 1772 3097 
Q 1472 3097 1187 3025 
Q 903 2953 641 2809 
L 641 3341 
Q 956 3463 1253 3523 
Q 1550 3584 1831 3584 
Q 2591 3584 2966 3190 
Q 3341 2797 3341 1997 
z
" transform="scale(0.015625)"/>
       <path id="DejaVuSans-69" d="M 603 3500 
L 1178 3500 
L 1178 0 
L 603 0 
L 603 3500 
z
M 603 4863 
L 1178 4863 
L 1178 4134 
L 603 4134 
L 603 4863 
z
" transform="scale(0.015625)"/>
       <path id="DejaVuSans-73" d="M 2834 3397 
L 2834 2853 
Q 2591 2978 2328 3040 
Q 2066 3103 1784 3103 
Q 1356 3103 1142 2972 
Q 928 2841 928 2578 
Q 928 2378 1081 2264 
Q 1234 2150 1697 2047 
L 1894 2003 
Q 2506 1872 2764 1633 
Q 3022 1394 3022 966 
Q 3022 478 2636 193 
Q 2250 -91 1575 -91 
Q 1294 -91 989 -36 
Q 684 19 347 128 
L 347 722 
Q 666 556 975 473 
Q 1284 391 1588 391 
Q 1994 391 2212 530 
Q 2431 669 2431 922 
Q 2431 1156 2273 1281 
Q 2116 1406 1581 1522 
L 1381 1569 
Q 847 1681 609 1914 
Q 372 2147 372 2553 
Q 372 3047 722 3315 
Q 1072 3584 1716 3584 
Q 2034 3584 2315 3537 
Q 2597 3491 2834 3397 
z
" transform="scale(0.015625)"/>
      </defs>
      <use xlink:href="#DejaVuSans-45"/>
      <use xlink:href="#DejaVuSans-6e" x="63.183594"/>
      <use xlink:href="#DejaVuSans-65" x="126.5625"/>
      <use xlink:href="#DejaVuSans-72" x="188.085938"/>
      <use xlink:href="#DejaVuSans-67" x="227.449219"/>
      <use xlink:href="#DejaVuSans-79" x="290.925781"/>
      <use xlink:href="#DejaVuSans-20" x="350.105469"/>
      <use xlink:href="#DejaVuSans-55" x="381.892578"/>
      <use xlink:href="#DejaVuSans-6e" x="455.085938"/>
      <use xlink:href="#DejaVuSans-63" x="518.464844"/>
      <use xlink:href="#DejaVuSans-65" x="573.445312"/>
      <use xlink:href="#DejaVuSans-72" x="634.96875"/>
      <use xlink:href="#DejaVuSans-74" x="676.082031"/>
      <use xlink:href="#DejaVuSans-61" x="715.291016"/>
      <use xlink:href="#DejaVuSans-69" x="776.570312"/>
      <use xlink:href="#DejaVuSans-6e" x="804.353516"/>
      <use xlink:href="#DejaVuSans-74" x="867.732422"/>
      <use xlink:href="#DejaVuSans-69" x="906.941406"/>
      <use xlink:href="#DejaVuSans-65" x="934.724609"/>
      <use xlink:href="#DejaVuSans-73" x="996.248047"/>
     </g>
    </g>
   </g>
   <g id="matplotlib.axis_2">
    <g id="ytick_1">
     <g id="line2d_6">
      <defs>
       <path id="m842473b69a" d="M 0 0 
L -3.5 0 
" style="stroke: #000000; stroke-width: 0.8"/>
      </defs>
      <g>
       <use xlink:href="#m842473b69a" x="116.21" y="421.912101" style="stroke: #000000; stroke-width: 0.8"/>
      </g>
     </g>
     <g id="text_7">
      <!-- 400 -->
      <g transform="translate(48.782188 430.270382) scale(0.22 -0.22)">
       <use xlink:href="#DejaVuSans-2212"/>
       <use xlink:href="#DejaVuSans-34" x="83.789062"/>
       <use xlink:href="#DejaVuSans-30" x="147.412109"/>
       <use xlink:href="#DejaVuSans-30" x="211.035156"/>
      </g>
     </g>
    </g>
    <g id="ytick_2">
     <g id="line2d_7">
      <g>
       <use xlink:href="#m842473b69a" x="116.21" y="331.158412" style="stroke: #000000; stroke-width: 0.8"/>
      </g>
     </g>
     <g id="text_8">
      <!-- 300 -->
      <g transform="translate(48.782188 339.516693) scale(0.22 -0.22)">
       <use xlink:href="#DejaVuSans-2212"/>
       <use xlink:href="#DejaVuSans-33" x="83.789062"/>
       <use xlink:href="#DejaVuSans-30" x="147.412109"/>
       <use xlink:href="#DejaVuSans-30" x="211.035156"/>
      </g>
     </g>
    </g>
    <g id="ytick_3">
     <g id="line2d_8">
      <g>
       <use xlink:href="#m842473b69a" x="116.21" y="240.404723" style="stroke: #000000; stroke-width: 0.8"/>
      </g>
     </g>
     <g id="text_9">
      <!-- 200 -->
      <g transform="translate(48.782188 248.763005) scale(0.22 -0.22)">
       <use xlink:href="#DejaVuSans-2212"/>
       <use xlink:href="#DejaVuSans-32" x="83.789062"/>
       <use xlink:href="#DejaVuSans-30" x="147.412109"/>
       <use xlink:href="#DejaVuSans-30" x="211.035156"/>
      </g>
     </g>
    </g>
    <g id="ytick_4">
     <g id="line2d_9">
      <g>
       <use xlink:href="#m842473b69a" x="116.21" y="149.651034" style="stroke: #000000; stroke-width: 0.8"/>
      </g>
     </g>
     <g id="text_10">
      <!-- 100 -->
      <g transform="translate(48.782188 158.009316) scale(0.22 -0.22)">
       <use xlink:href="#DejaVuSans-2212"/>
       <use xlink:href="#DejaVuSans-31" x="83.789062"/>
       <use xlink:href="#DejaVuSans-30" x="147.412109"/>
       <use xlink:href="#DejaVuSans-30" x="211.035156"/>
      </g>
     </g>
    </g>
    <g id="ytick_5">
     <g id="line2d_10">
      <g>
       <use xlink:href="#m842473b69a" x="116.21" y="58.897346" style="stroke: #000000; stroke-width: 0.8"/>
      </g>
     </g>
     <g id="text_11">
      <!-- 0 -->
      <g transform="translate(95.2125 67.255627) scale(0.22 -0.22)">
       <use xlink:href="#DejaVuSans-30"/>
      </g>
     </g>
    </g>
    <g id="text_12">
     <!-- Energy Errors [kJ/mol] -->
     <g transform="translate(40.206875 382.068281) rotate(-90) scale(0.22 -0.22)">
      <defs>
       <path id="DejaVuSans-6f" d="M 1959 3097 
Q 1497 3097 1228 2736 
Q 959 2375 959 1747 
Q 959 1119 1226 758 
Q 1494 397 1959 397 
Q 2419 397 2687 759 
Q 2956 1122 2956 1747 
Q 2956 2369 2687 2733 
Q 2419 3097 1959 3097 
z
M 1959 3584 
Q 2709 3584 3137 3096 
Q 3566 2609 3566 1747 
Q 3566 888 3137 398 
Q 2709 -91 1959 -91 
Q 1206 -91 779 398 
Q 353 888 353 1747 
Q 353 2609 779 3096 
Q 1206 3584 1959 3584 
z
" transform="scale(0.015625)"/>
       <path id="DejaVuSans-5b" d="M 550 4863 
L 1875 4863 
L 1875 4416 
L 1125 4416 
L 1125 -397 
L 1875 -397 
L 1875 -844 
L 550 -844 
L 550 4863 
z
" transform="scale(0.015625)"/>
       <path id="DejaVuSans-6b" d="M 581 4863 
L 1159 4863 
L 1159 1991 
L 2875 3500 
L 3609 3500 
L 1753 1863 
L 3688 0 
L 2938 0 
L 1159 1709 
L 1159 0 
L 581 0 
L 581 4863 
z
" transform="scale(0.015625)"/>
       <path id="DejaVuSans-4a" d="M 628 4666 
L 1259 4666 
L 1259 325 
Q 1259 -519 939 -900 
Q 619 -1281 -91 -1281 
L -331 -1281 
L -331 -750 
L -134 -750 
Q 284 -750 456 -515 
Q 628 -281 628 325 
L 628 4666 
z
" transform="scale(0.015625)"/>
       <path id="DejaVuSans-2f" d="M 1625 4666 
L 2156 4666 
L 531 -594 
L 0 -594 
L 1625 4666 
z
" transform="scale(0.015625)"/>
       <path id="DejaVuSans-6d" d="M 3328 2828 
Q 3544 3216 3844 3400 
Q 4144 3584 4550 3584 
Q 5097 3584 5394 3201 
Q 5691 2819 5691 2113 
L 5691 0 
L 5113 0 
L 5113 2094 
Q 5113 2597 4934 2840 
Q 4756 3084 4391 3084 
Q 3944 3084 3684 2787 
Q 3425 2491 3425 1978 
L 3425 0 
L 2847 0 
L 2847 2094 
Q 2847 2600 2669 2842 
Q 2491 3084 2119 3084 
Q 1678 3084 1418 2786 
Q 1159 2488 1159 1978 
L 1159 0 
L 581 0 
L 581 3500 
L 1159 3500 
L 1159 2956 
Q 1356 3278 1631 3431 
Q 1906 3584 2284 3584 
Q 2666 3584 2933 3390 
Q 3200 3197 3328 2828 
z
" transform="scale(0.015625)"/>
       <path id="DejaVuSans-6c" d="M 603 4863 
L 1178 4863 
L 1178 0 
L 603 0 
L 603 4863 
z
" transform="scale(0.015625)"/>
       <path id="DejaVuSans-5d" d="M 1947 4863 
L 1947 -844 
L 622 -844 
L 622 -397 
L 1369 -397 
L 1369 4416 
L 622 4416 
L 622 4863 
L 1947 4863 
z
" transform="scale(0.015625)"/>
      </defs>
      <use xlink:href="#DejaVuSans-45"/>
      <use xlink:href="#DejaVuSans-6e" x="63.183594"/>
      <use xlink:href="#DejaVuSans-65" x="126.5625"/>
      <use xlink:href="#DejaVuSans-72" x="188.085938"/>
      <use xlink:href="#DejaVuSans-67" x="227.449219"/>
      <use xlink:href="#DejaVuSans-79" x="290.925781"/>
      <use xlink:href="#DejaVuSans-20" x="350.105469"/>
      <use xlink:href="#DejaVuSans-45" x="381.892578"/>
      <use xlink:href="#DejaVuSans-72" x="445.076172"/>
      <use xlink:href="#DejaVuSans-72" x="484.439453"/>
      <use xlink:href="#DejaVuSans-6f" x="523.302734"/>
      <use xlink:href="#DejaVuSans-72" x="584.484375"/>
      <use xlink:href="#DejaVuSans-73" x="625.597656"/>
      <use xlink:href="#DejaVuSans-20" x="677.697266"/>
      <use xlink:href="#DejaVuSans-5b" x="709.484375"/>
      <use xlink:href="#DejaVuSans-6b" x="748.498047"/>
      <use xlink:href="#DejaVuSans-4a" x="806.408203"/>
      <use xlink:href="#DejaVuSans-2f" x="835.900391"/>
      <use xlink:href="#DejaVuSans-6d" x="869.591797"/>
      <use xlink:href="#DejaVuSans-6f" x="967.003906"/>
      <use xlink:href="#DejaVuSans-6c" x="1028.185547"/>
      <use xlink:href="#DejaVuSans-5d" x="1055.96875"/>
     </g>
    </g>
   </g>
   <g id="line2d_11">
    <path d="M 116.21 499.48 
L 696.24 23.76 
" clip-path="url(#p481eeeee15)" style="fill: none; stroke-dasharray: 5.55,2.4; stroke-dashoffset: 0; stroke: #ff0000; stroke-width: 1.5"/>
   </g>
   <g id="patch_3">
    <path d="M 116.21 499.48 
L 116.21 23.76 
" style="fill: none; stroke: #000000; stroke-width: 0.8; stroke-linejoin: miter; stroke-linecap: square"/>
   </g>
   <g id="patch_4">
    <path d="M 696.24 499.48 
L 696.24 23.76 
" style="fill: none; stroke: #000000; stroke-width: 0.8; stroke-linejoin: miter; stroke-linecap: square"/>
   </g>
   <g id="patch_5">
    <path d="M 116.21 499.48 
L 696.24 499.48 
" style="fill: none; stroke: #000000; stroke-width: 0.8; stroke-linejoin: miter; stroke-linecap: square"/>
   </g>
   <g id="patch_6">
    <path d="M 116.21 23.76 
L 696.24 23.76 
" style="fill: none; stroke: #000000; stroke-width: 0.8; stroke-linejoin: miter; stroke-linecap: square"/>
   </g>
   <g id="text_13">
    <!-- Correlation in: -0.056 -->
    <g transform="translate(162.6124 46.696813) scale(0.22 -0.22)">
     <defs>
      <path id="DejaVuSans-43" d="M 4122 4306 
L 4122 3641 
Q 3803 3938 3442 4084 
Q 3081 4231 2675 4231 
Q 1875 4231 1450 3742 
Q 1025 3253 1025 2328 
Q 1025 1406 1450 917 
Q 1875 428 2675 428 
Q 3081 428 3442 575 
Q 3803 722 4122 1019 
L 4122 359 
Q 3791 134 3420 21 
Q 3050 -91 2638 -91 
Q 1578 -91 968 557 
Q 359 1206 359 2328 
Q 359 3453 968 4101 
Q 1578 4750 2638 4750 
Q 3056 4750 3426 4639 
Q 3797 4528 4122 4306 
z
" transform="scale(0.015625)"/>
      <path id="DejaVuSans-3a" d="M 750 794 
L 1409 794 
L 1409 0 
L 750 0 
L 750 794 
z
M 750 3309 
L 1409 3309 
L 1409 2516 
L 750 2516 
L 750 3309 
z
" transform="scale(0.015625)"/>
      <path id="DejaVuSans-2d" d="M 313 2009 
L 1997 2009 
L 1997 1497 
L 313 1497 
L 313 2009 
z
" transform="scale(0.015625)"/>
      <path id="DejaVuSans-2e" d="M 684 794 
L 1344 794 
L 1344 0 
L 684 0 
L 684 794 
z
" transform="scale(0.015625)"/>
      <path id="DejaVuSans-35" d="M 691 4666 
L 3169 4666 
L 3169 4134 
L 1269 4134 
L 1269 2991 
Q 1406 3038 1543 3061 
Q 1681 3084 1819 3084 
Q 2600 3084 3056 2656 
Q 3513 2228 3513 1497 
Q 3513 744 3044 326 
Q 2575 -91 1722 -91 
Q 1428 -91 1123 -41 
Q 819 9 494 109 
L 494 744 
Q 775 591 1075 516 
Q 1375 441 1709 441 
Q 2250 441 2565 725 
Q 2881 1009 2881 1497 
Q 2881 1984 2565 2268 
Q 2250 2553 1709 2553 
Q 1456 2553 1204 2497 
Q 953 2441 691 2322 
L 691 4666 
z
" transform="scale(0.015625)"/>
      <path id="DejaVuSans-36" d="M 2113 2584 
Q 1688 2584 1439 2293 
Q 1191 2003 1191 1497 
Q 1191 994 1439 701 
Q 1688 409 2113 409 
Q 2538 409 2786 701 
Q 3034 994 3034 1497 
Q 3034 2003 2786 2293 
Q 2538 2584 2113 2584 
z
M 3366 4563 
L 3366 3988 
Q 3128 4100 2886 4159 
Q 2644 4219 2406 4219 
Q 1781 4219 1451 3797 
Q 1122 3375 1075 2522 
Q 1259 2794 1537 2939 
Q 1816 3084 2150 3084 
Q 2853 3084 3261 2657 
Q 3669 2231 3669 1497 
Q 3669 778 3244 343 
Q 2819 -91 2113 -91 
Q 1303 -91 875 529 
Q 447 1150 447 2328 
Q 447 3434 972 4092 
Q 1497 4750 2381 4750 
Q 2619 4750 2861 4703 
Q 3103 4656 3366 4563 
z
" transform="scale(0.015625)"/>
     </defs>
     <use xlink:href="#DejaVuSans-43"/>
     <use xlink:href="#DejaVuSans-6f" x="69.824219"/>
     <use xlink:href="#DejaVuSans-72" x="131.005859"/>
     <use xlink:href="#DejaVuSans-72" x="170.369141"/>
     <use xlink:href="#DejaVuSans-65" x="209.232422"/>
     <use xlink:href="#DejaVuSans-6c" x="270.755859"/>
     <use xlink:href="#DejaVuSans-61" x="298.539062"/>
     <use xlink:href="#DejaVuSans-74" x="359.818359"/>
     <use xlink:href="#DejaVuSans-69" x="399.027344"/>
     <use xlink:href="#DejaVuSans-6f" x="426.810547"/>
     <use xlink:href="#DejaVuSans-6e" x="487.992188"/>
     <use xlink:href="#DejaVuSans-20" x="551.371094"/>
     <use xlink:href="#DejaVuSans-69" x="583.158203"/>
     <use xlink:href="#DejaVuSans-6e" x="610.941406"/>
     <use xlink:href="#DejaVuSans-3a" x="674.320312"/>
     <use xlink:href="#DejaVuSans-20" x="708.011719"/>
     <use xlink:href="#DejaVuSans-2d" x="739.798828"/>
     <use xlink:href="#DejaVuSans-30" x="775.882812"/>
     <use xlink:href="#DejaVuSans-2e" x="839.505859"/>
     <use xlink:href="#DejaVuSans-30" x="871.292969"/>
     <use xlink:href="#DejaVuSans-35" x="934.916016"/>
     <use xlink:href="#DejaVuSans-36" x="998.539062"/>
    </g>
    <!-- Correlation Out: -0.102 -->
    <g transform="translate(162.6124 71.332) scale(0.22 -0.22)">
     <defs>
      <path id="DejaVuSans-4f" d="M 2522 4238 
Q 1834 4238 1429 3725 
Q 1025 3213 1025 2328 
Q 1025 1447 1429 934 
Q 1834 422 2522 422 
Q 3209 422 3611 934 
Q 4013 1447 4013 2328 
Q 4013 3213 3611 3725 
Q 3209 4238 2522 4238 
z
M 2522 4750 
Q 3503 4750 4090 4092 
Q 4678 3434 4678 2328 
Q 4678 1225 4090 567 
Q 3503 -91 2522 -91 
Q 1538 -91 948 565 
Q 359 1222 359 2328 
Q 359 3434 948 4092 
Q 1538 4750 2522 4750 
z
" transform="scale(0.015625)"/>
      <path id="DejaVuSans-75" d="M 544 1381 
L 544 3500 
L 1119 3500 
L 1119 1403 
Q 1119 906 1312 657 
Q 1506 409 1894 409 
Q 2359 409 2629 706 
Q 2900 1003 2900 1516 
L 2900 3500 
L 3475 3500 
L 3475 0 
L 2900 0 
L 2900 538 
Q 2691 219 2414 64 
Q 2138 -91 1772 -91 
Q 1169 -91 856 284 
Q 544 659 544 1381 
z
M 1991 3584 
L 1991 3584 
z
" transform="scale(0.015625)"/>
     </defs>
     <use xlink:href="#DejaVuSans-43"/>
     <use xlink:href="#DejaVuSans-6f" x="69.824219"/>
     <use xlink:href="#DejaVuSans-72" x="131.005859"/>
     <use xlink:href="#DejaVuSans-72" x="170.369141"/>
     <use xlink:href="#DejaVuSans-65" x="209.232422"/>
     <use xlink:href="#DejaVuSans-6c" x="270.755859"/>
     <use xlink:href="#DejaVuSans-61" x="298.539062"/>
     <use xlink:href="#DejaVuSans-74" x="359.818359"/>
     <use xlink:href="#DejaVuSans-69" x="399.027344"/>
     <use xlink:href="#DejaVuSans-6f" x="426.810547"/>
     <use xlink:href="#DejaVuSans-6e" x="487.992188"/>
     <use xlink:href="#DejaVuSans-20" x="551.371094"/>
     <use xlink:href="#DejaVuSans-4f" x="583.158203"/>
     <use xlink:href="#DejaVuSans-75" x="661.869141"/>
     <use xlink:href="#DejaVuSans-74" x="725.248047"/>
     <use xlink:href="#DejaVuSans-3a" x="764.457031"/>
     <use xlink:href="#DejaVuSans-20" x="798.148438"/>
     <use xlink:href="#DejaVuSans-2d" x="829.935547"/>
     <use xlink:href="#DejaVuSans-30" x="866.019531"/>
     <use xlink:href="#DejaVuSans-2e" x="929.642578"/>
     <use xlink:href="#DejaVuSans-31" x="961.429688"/>
     <use xlink:href="#DejaVuSans-30" x="1025.052734"/>
     <use xlink:href="#DejaVuSans-32" x="1088.675781"/>
    </g>
   </g>
   <g id="legend_1">
    <g id="patch_7">
     <path d="M 407.0225 105.94375 
L 680.84 105.94375 
Q 685.24 105.94375 685.24 101.54375 
L 685.24 39.16 
Q 685.24 34.76 680.84 34.76 
L 407.0225 34.76 
Q 402.6225 34.76 402.6225 39.16 
L 402.6225 101.54375 
Q 402.6225 105.94375 407.0225 105.94375 
z
" style="fill: #ffffff; opacity: 0.8; stroke: #cccccc; stroke-linejoin: miter"/>
    </g>
    <g id="line2d_12">
     <defs>
      <path id="m49a25a41fe" d="M 0 2.5 
C 0.663008 2.5 1.29895 2.236584 1.767767 1.767767 
C 2.236584 1.29895 2.5 0.663008 2.5 0 
C 2.5 -0.663008 2.236584 -1.29895 1.767767 -1.767767 
C 1.29895 -2.236584 0.663008 -2.5 0 -2.5 
C -0.663008 -2.5 -1.29895 -2.236584 -1.767767 -1.767767 
C -2.236584 -1.29895 -2.5 -0.663008 -2.5 0 
C -2.5 0.663008 -2.236584 1.29895 -1.767767 1.767767 
C -1.29895 2.236584 -0.663008 2.5 0 2.5 
z
" style="stroke: #ffffff"/>
     </defs>
     <g>
      <use xlink:href="#m49a25a41fe" x="433.4225" y="52.576563" style="fill: #0000ff; stroke: #ffffff"/>
     </g>
    </g>
    <g id="text_14">
     <!-- In Distribution -->
     <g transform="translate(473.0225 60.276563) scale(0.22 -0.22)">
      <defs>
       <path id="DejaVuSans-49" d="M 628 4666 
L 1259 4666 
L 1259 0 
L 628 0 
L 628 4666 
z
" transform="scale(0.015625)"/>
       <path id="DejaVuSans-44" d="M 1259 4147 
L 1259 519 
L 2022 519 
Q 2988 519 3436 956 
Q 3884 1394 3884 2338 
Q 3884 3275 3436 3711 
Q 2988 4147 2022 4147 
L 1259 4147 
z
M 628 4666 
L 1925 4666 
Q 3281 4666 3915 4102 
Q 4550 3538 4550 2338 
Q 4550 1131 3912 565 
Q 3275 0 1925 0 
L 628 0 
L 628 4666 
z
" transform="scale(0.015625)"/>
       <path id="DejaVuSans-62" d="M 3116 1747 
Q 3116 2381 2855 2742 
Q 2594 3103 2138 3103 
Q 1681 3103 1420 2742 
Q 1159 2381 1159 1747 
Q 1159 1113 1420 752 
Q 1681 391 2138 391 
Q 2594 391 2855 752 
Q 3116 1113 3116 1747 
z
M 1159 2969 
Q 1341 3281 1617 3432 
Q 1894 3584 2278 3584 
Q 2916 3584 3314 3078 
Q 3713 2572 3713 1747 
Q 3713 922 3314 415 
Q 2916 -91 2278 -91 
Q 1894 -91 1617 61 
Q 1341 213 1159 525 
L 1159 0 
L 581 0 
L 581 4863 
L 1159 4863 
L 1159 2969 
z
" transform="scale(0.015625)"/>
      </defs>
      <use xlink:href="#DejaVuSans-49"/>
      <use xlink:href="#DejaVuSans-6e" x="29.492188"/>
      <use xlink:href="#DejaVuSans-20" x="92.871094"/>
      <use xlink:href="#DejaVuSans-44" x="124.658203"/>
      <use xlink:href="#DejaVuSans-69" x="201.660156"/>
      <use xlink:href="#DejaVuSans-73" x="229.443359"/>
      <use xlink:href="#DejaVuSans-74" x="281.542969"/>
      <use xlink:href="#DejaVuSans-72" x="320.751953"/>
      <use xlink:href="#DejaVuSans-69" x="361.865234"/>
      <use xlink:href="#DejaVuSans-62" x="389.648438"/>
      <use xlink:href="#DejaVuSans-75" x="453.125"/>
      <use xlink:href="#DejaVuSans-74" x="516.503906"/>
      <use xlink:href="#DejaVuSans-69" x="555.712891"/>
      <use xlink:href="#DejaVuSans-6f" x="583.496094"/>
      <use xlink:href="#DejaVuSans-6e" x="644.677734"/>
     </g>
    </g>
    <g id="line2d_13">
     <defs>
      <path id="m6ed7d7effc" d="M 0 2.5 
C 0.663008 2.5 1.29895 2.236584 1.767767 1.767767 
C 2.236584 1.29895 2.5 0.663008 2.5 0 
C 2.5 -0.663008 2.236584 -1.29895 1.767767 -1.767767 
C 1.29895 -2.236584 0.663008 -2.5 0 -2.5 
C -0.663008 -2.5 -1.29895 -2.236584 -1.767767 -1.767767 
C -2.236584 -1.29895 -2.5 -0.663008 -2.5 0 
C -2.5 0.663008 -2.236584 1.29895 -1.767767 1.767767 
C -1.29895 2.236584 -0.663008 2.5 0 2.5 
z
" style="stroke: #ffffff"/>
     </defs>
     <g>
      <use xlink:href="#m6ed7d7effc" x="433.4225" y="84.868438" style="fill: #008000; stroke: #ffffff"/>
     </g>
    </g>
    <g id="text_15">
     <!-- Out of Distribution -->
     <g transform="translate(473.0225 92.568438) scale(0.22 -0.22)">
      <defs>
       <path id="DejaVuSans-66" d="M 2375 4863 
L 2375 4384 
L 1825 4384 
Q 1516 4384 1395 4259 
Q 1275 4134 1275 3809 
L 1275 3500 
L 2222 3500 
L 2222 3053 
L 1275 3053 
L 1275 0 
L 697 0 
L 697 3053 
L 147 3053 
L 147 3500 
L 697 3500 
L 697 3744 
Q 697 4328 969 4595 
Q 1241 4863 1831 4863 
L 2375 4863 
z
" transform="scale(0.015625)"/>
      </defs>
      <use xlink:href="#DejaVuSans-4f"/>
      <use xlink:href="#DejaVuSans-75" x="78.710938"/>
      <use xlink:href="#DejaVuSans-74" x="142.089844"/>
      <use xlink:href="#DejaVuSans-20" x="181.298828"/>
      <use xlink:href="#DejaVuSans-6f" x="213.085938"/>
      <use xlink:href="#DejaVuSans-66" x="274.267578"/>
      <use xlink:href="#DejaVuSans-20" x="309.472656"/>
      <use xlink:href="#DejaVuSans-44" x="341.259766"/>
      <use xlink:href="#DejaVuSans-69" x="418.261719"/>
      <use xlink:href="#DejaVuSans-73" x="446.044922"/>
      <use xlink:href="#DejaVuSans-74" x="498.144531"/>
      <use xlink:href="#DejaVuSans-72" x="537.353516"/>
      <use xlink:href="#DejaVuSans-69" x="578.466797"/>
      <use xlink:href="#DejaVuSans-62" x="606.25"/>
      <use xlink:href="#DejaVuSans-75" x="669.726562"/>
      <use xlink:href="#DejaVuSans-74" x="733.105469"/>
      <use xlink:href="#DejaVuSans-69" x="772.314453"/>
      <use xlink:href="#DejaVuSans-6f" x="800.097656"/>
      <use xlink:href="#DejaVuSans-6e" x="861.279297"/>
     </g>
    </g>
   </g>
  </g>
 </g>
 <defs>
  <clipPath id="p481eeeee15">
   <rect x="116.21" y="23.76" width="580.03" height="475.72"/>
  </clipPath>
 </defs>
</svg>
