<?xml version="1.0" encoding="utf-8" standalone="no"?>
<!DOCTYPE svg PUBLIC "-//W3C//DTD SVG 1.1//EN"
  "http://www.w3.org/Graphics/SVG/1.1/DTD/svg11.dtd">
<svg xmlns:xlink="http://www.w3.org/1999/xlink" width="720pt" height="576pt" viewBox="0 0 720 576" xmlns="http://www.w3.org/2000/svg" version="1.1">
 <metadata>
  <rdf:RDF xmlns:dc="http://purl.org/dc/elements/1.1/" xmlns:cc="http://creativecommons.org/ns#" xmlns:rdf="http://www.w3.org/1999/02/22-rdf-syntax-ns#">
   <cc:Work>
    <dc:type rdf:resource="http://purl.org/dc/dcmitype/StillImage"/>
    <dc:date>2024-11-27T14:46:39.143313</dc:date>
    <dc:format>image/svg+xml</dc:format>
    <dc:creator>
     <cc:Agent>
      <dc:title>Matplotlib v3.8.4, https://matplotlib.org/</dc:title>
     </cc:Agent>
    </dc:creator>
   </cc:Work>
  </rdf:RDF>
 </metadata>
 <defs>
  <style type="text/css">*{stroke-linejoin: round; stroke-linecap: butt}</style>
 </defs>
 <g id="figure_1">
  <g id="patch_1">
   <path d="M 0 576 
L 720 576 
L 720 0 
L 0 0 
z
" style="fill: #ffffff"/>
  </g>
  <g id="axes_1">
   <g id="patch_2">
    <path d="M 44.66 534.04 
L 709.2 534.04 
L 709.2 25.44 
L 44.66 25.44 
z
" style="fill: #ffffff"/>
   </g>
   <g id="PathCollection_1">
    <defs>
     <path id="m6383eaa2db" d="M 0 3 
C 0.795609 3 1.55874 2.683901 2.12132 2.12132 
C 2.683901 1.55874 3 0.795609 3 0 
C 3 -0.795609 2.683901 -1.55874 2.12132 -2.12132 
C 1.55874 -2.683901 0.795609 -3 0 -3 
C -0.795609 -3 -1.55874 -2.683901 -2.12132 -2.12132 
C -2.683901 -1.55874 -3 -0.795609 -3 0 
C -3 0.795609 -2.683901 1.55874 -2.12132 2.12132 
C -1.55874 2.683901 -0.795609 3 0 3 
z
" style="stroke: #1f77b4"/>
    </defs>
    <g clip-path="url(#pdc4a703938)">
     <use xlink:href="#m6383eaa2db" x="201.166564" y="426.978097" style="fill: #1f77b4; stroke: #1f77b4"/>
     <use xlink:href="#m6383eaa2db" x="226.705061" y="468.247846" style="fill: #1f77b4; stroke: #1f77b4"/>
     <use xlink:href="#m6383eaa2db" x="203.254991" y="395.841552" style="fill: #1f77b4; stroke: #1f77b4"/>
     <use xlink:href="#m6383eaa2db" x="251.997217" y="340.6819" style="fill: #1f77b4; stroke: #1f77b4"/>
     <use xlink:href="#m6383eaa2db" x="144.862594" y="451.551354" style="fill: #1f77b4; stroke: #1f77b4"/>
     <use xlink:href="#m6383eaa2db" x="202.396518" y="399.069209" style="fill: #1f77b4; stroke: #1f77b4"/>
     <use xlink:href="#m6383eaa2db" x="195.622948" y="440.012391" style="fill: #1f77b4; stroke: #1f77b4"/>
     <use xlink:href="#m6383eaa2db" x="157.928137" y="448.690305" style="fill: #1f77b4; stroke: #1f77b4"/>
     <use xlink:href="#m6383eaa2db" x="243.27509" y="452.083796" style="fill: #1f77b4; stroke: #1f77b4"/>
     <use xlink:href="#m6383eaa2db" x="181.928791" y="382.468902" style="fill: #1f77b4; stroke: #1f77b4"/>
     <use xlink:href="#m6383eaa2db" x="191.023857" y="381.873889" style="fill: #1f77b4; stroke: #1f77b4"/>
     <use xlink:href="#m6383eaa2db" x="245.802235" y="321.210845" style="fill: #1f77b4; stroke: #1f77b4"/>
     <use xlink:href="#m6383eaa2db" x="331.608761" y="415.288639" style="fill: #1f77b4; stroke: #1f77b4"/>
     <use xlink:href="#m6383eaa2db" x="288.354874" y="471.410828" style="fill: #1f77b4; stroke: #1f77b4"/>
     <use xlink:href="#m6383eaa2db" x="201.769071" y="482.21551" style="fill: #1f77b4; stroke: #1f77b4"/>
     <use xlink:href="#m6383eaa2db" x="207.816161" y="457.79301" style="fill: #1f77b4; stroke: #1f77b4"/>
     <use xlink:href="#m6383eaa2db" x="166.11339" y="386.851159" style="fill: #1f77b4; stroke: #1f77b4"/>
     <use xlink:href="#m6383eaa2db" x="253.124638" y="402.399118" style="fill: #1f77b4; stroke: #1f77b4"/>
     <use xlink:href="#m6383eaa2db" x="278.33366" y="411.968123" style="fill: #1f77b4; stroke: #1f77b4"/>
     <use xlink:href="#m6383eaa2db" x="200.863342" y="398.329221" style="fill: #1f77b4; stroke: #1f77b4"/>
     <use xlink:href="#m6383eaa2db" x="159.21541" y="464.647222" style="fill: #1f77b4; stroke: #1f77b4"/>
     <use xlink:href="#m6383eaa2db" x="209.309229" y="428.72037" style="fill: #1f77b4; stroke: #1f77b4"/>
     <use xlink:href="#m6383eaa2db" x="197.178585" y="397.572396" style="fill: #1f77b4; stroke: #1f77b4"/>
     <use xlink:href="#m6383eaa2db" x="167.914055" y="442.636578" style="fill: #1f77b4; stroke: #1f77b4"/>
     <use xlink:href="#m6383eaa2db" x="154.591379" y="437.978026" style="fill: #1f77b4; stroke: #1f77b4"/>
     <use xlink:href="#m6383eaa2db" x="196.754161" y="449.744488" style="fill: #1f77b4; stroke: #1f77b4"/>
     <use xlink:href="#m6383eaa2db" x="277.57874" y="423.657071" style="fill: #1f77b4; stroke: #1f77b4"/>
     <use xlink:href="#m6383eaa2db" x="136.152427" y="460.523464" style="fill: #1f77b4; stroke: #1f77b4"/>
     <use xlink:href="#m6383eaa2db" x="373.309636" y="406.716138" style="fill: #1f77b4; stroke: #1f77b4"/>
     <use xlink:href="#m6383eaa2db" x="254.714988" y="438.188305" style="fill: #1f77b4; stroke: #1f77b4"/>
     <use xlink:href="#m6383eaa2db" x="114.846791" y="412.616404" style="fill: #1f77b4; stroke: #1f77b4"/>
     <use xlink:href="#m6383eaa2db" x="249.949044" y="466.118629" style="fill: #1f77b4; stroke: #1f77b4"/>
     <use xlink:href="#m6383eaa2db" x="232.517916" y="456.724724" style="fill: #1f77b4; stroke: #1f77b4"/>
     <use xlink:href="#m6383eaa2db" x="535.029677" y="391.394703" style="fill: #1f77b4; stroke: #1f77b4"/>
     <use xlink:href="#m6383eaa2db" x="245.058107" y="434.200108" style="fill: #1f77b4; stroke: #1f77b4"/>
     <use xlink:href="#m6383eaa2db" x="212.289821" y="458.523531" style="fill: #1f77b4; stroke: #1f77b4"/>
     <use xlink:href="#m6383eaa2db" x="247.16112" y="437.671921" style="fill: #1f77b4; stroke: #1f77b4"/>
     <use xlink:href="#m6383eaa2db" x="281.058577" y="452.130002" style="fill: #1f77b4; stroke: #1f77b4"/>
     <use xlink:href="#m6383eaa2db" x="265.58607" y="452.529461" style="fill: #1f77b4; stroke: #1f77b4"/>
     <use xlink:href="#m6383eaa2db" x="268.091629" y="443.120688" style="fill: #1f77b4; stroke: #1f77b4"/>
     <use xlink:href="#m6383eaa2db" x="284.440841" y="439.357907" style="fill: #1f77b4; stroke: #1f77b4"/>
     <use xlink:href="#m6383eaa2db" x="148.382686" y="471.921512" style="fill: #1f77b4; stroke: #1f77b4"/>
     <use xlink:href="#m6383eaa2db" x="107.639609" y="503.835682" style="fill: #1f77b4; stroke: #1f77b4"/>
     <use xlink:href="#m6383eaa2db" x="283.989143" y="447.933068" style="fill: #1f77b4; stroke: #1f77b4"/>
     <use xlink:href="#m6383eaa2db" x="189.280948" y="448.235188" style="fill: #1f77b4; stroke: #1f77b4"/>
     <use xlink:href="#m6383eaa2db" x="216.487533" y="442.956966" style="fill: #1f77b4; stroke: #1f77b4"/>
     <use xlink:href="#m6383eaa2db" x="250.860607" y="466.902823" style="fill: #1f77b4; stroke: #1f77b4"/>
     <use xlink:href="#m6383eaa2db" x="74.866364" y="366.955531" style="fill: #1f77b4; stroke: #1f77b4"/>
     <use xlink:href="#m6383eaa2db" x="120.844584" y="463.678686" style="fill: #1f77b4; stroke: #1f77b4"/>
     <use xlink:href="#m6383eaa2db" x="215.245473" y="429.445318" style="fill: #1f77b4; stroke: #1f77b4"/>
     <use xlink:href="#m6383eaa2db" x="310.019593" y="414.43494" style="fill: #1f77b4; stroke: #1f77b4"/>
     <use xlink:href="#m6383eaa2db" x="219.760263" y="452.5693" style="fill: #1f77b4; stroke: #1f77b4"/>
     <use xlink:href="#m6383eaa2db" x="223.868131" y="434.107608" style="fill: #1f77b4; stroke: #1f77b4"/>
     <use xlink:href="#m6383eaa2db" x="277.097143" y="391.784628" style="fill: #1f77b4; stroke: #1f77b4"/>
     <use xlink:href="#m6383eaa2db" x="222.644157" y="459.628922" style="fill: #1f77b4; stroke: #1f77b4"/>
     <use xlink:href="#m6383eaa2db" x="194.029681" y="414.6428" style="fill: #1f77b4; stroke: #1f77b4"/>
     <use xlink:href="#m6383eaa2db" x="617.26346" y="328.037704" style="fill: #1f77b4; stroke: #1f77b4"/>
     <use xlink:href="#m6383eaa2db" x="308.686377" y="399.06497" style="fill: #1f77b4; stroke: #1f77b4"/>
     <use xlink:href="#m6383eaa2db" x="297.509884" y="340.409133" style="fill: #1f77b4; stroke: #1f77b4"/>
     <use xlink:href="#m6383eaa2db" x="132.761266" y="380.524042" style="fill: #1f77b4; stroke: #1f77b4"/>
     <use xlink:href="#m6383eaa2db" x="318.438789" y="365.485996" style="fill: #1f77b4; stroke: #1f77b4"/>
     <use xlink:href="#m6383eaa2db" x="253.268447" y="416.827561" style="fill: #1f77b4; stroke: #1f77b4"/>
     <use xlink:href="#m6383eaa2db" x="243.813714" y="428.024288" style="fill: #1f77b4; stroke: #1f77b4"/>
     <use xlink:href="#m6383eaa2db" x="301.012474" y="381.13092" style="fill: #1f77b4; stroke: #1f77b4"/>
     <use xlink:href="#m6383eaa2db" x="190.51134" y="388.927751" style="fill: #1f77b4; stroke: #1f77b4"/>
     <use xlink:href="#m6383eaa2db" x="186.893528" y="397.608542" style="fill: #1f77b4; stroke: #1f77b4"/>
     <use xlink:href="#m6383eaa2db" x="336.55658" y="432.374158" style="fill: #1f77b4; stroke: #1f77b4"/>
     <use xlink:href="#m6383eaa2db" x="170.446596" y="412.086119" style="fill: #1f77b4; stroke: #1f77b4"/>
     <use xlink:href="#m6383eaa2db" x="678.993636" y="312.263519" style="fill: #1f77b4; stroke: #1f77b4"/>
     <use xlink:href="#m6383eaa2db" x="256.344717" y="404.664637" style="fill: #1f77b4; stroke: #1f77b4"/>
     <use xlink:href="#m6383eaa2db" x="267.498894" y="370.561668" style="fill: #1f77b4; stroke: #1f77b4"/>
     <use xlink:href="#m6383eaa2db" x="240.275099" y="384.553344" style="fill: #1f77b4; stroke: #1f77b4"/>
     <use xlink:href="#m6383eaa2db" x="284.368062" y="448.93509" style="fill: #1f77b4; stroke: #1f77b4"/>
     <use xlink:href="#m6383eaa2db" x="199.900002" y="419.369098" style="fill: #1f77b4; stroke: #1f77b4"/>
     <use xlink:href="#m6383eaa2db" x="229.45171" y="457.64808" style="fill: #1f77b4; stroke: #1f77b4"/>
     <use xlink:href="#m6383eaa2db" x="235.194995" y="447.322663" style="fill: #1f77b4; stroke: #1f77b4"/>
     <use xlink:href="#m6383eaa2db" x="151.134148" y="386.380882" style="fill: #1f77b4; stroke: #1f77b4"/>
     <use xlink:href="#m6383eaa2db" x="243.750415" y="435.623962" style="fill: #1f77b4; stroke: #1f77b4"/>
     <use xlink:href="#m6383eaa2db" x="301.359014" y="429.093413" style="fill: #1f77b4; stroke: #1f77b4"/>
     <use xlink:href="#m6383eaa2db" x="398.356764" y="309.626456" style="fill: #1f77b4; stroke: #1f77b4"/>
     <use xlink:href="#m6383eaa2db" x="333.188755" y="411.052811" style="fill: #1f77b4; stroke: #1f77b4"/>
     <use xlink:href="#m6383eaa2db" x="238.754321" y="443.894044" style="fill: #1f77b4; stroke: #1f77b4"/>
     <use xlink:href="#m6383eaa2db" x="141.217509" y="434.241213" style="fill: #1f77b4; stroke: #1f77b4"/>
     <use xlink:href="#m6383eaa2db" x="362.300288" y="282.626918" style="fill: #1f77b4; stroke: #1f77b4"/>
     <use xlink:href="#m6383eaa2db" x="221.189594" y="460.614167" style="fill: #1f77b4; stroke: #1f77b4"/>
     <use xlink:href="#m6383eaa2db" x="164.708125" y="482.846048" style="fill: #1f77b4; stroke: #1f77b4"/>
     <use xlink:href="#m6383eaa2db" x="239.728016" y="442.884546" style="fill: #1f77b4; stroke: #1f77b4"/>
     <use xlink:href="#m6383eaa2db" x="364.804971" y="452.021016" style="fill: #1f77b4; stroke: #1f77b4"/>
     <use xlink:href="#m6383eaa2db" x="248.580095" y="432.75463" style="fill: #1f77b4; stroke: #1f77b4"/>
     <use xlink:href="#m6383eaa2db" x="162.990886" y="468.256332" style="fill: #1f77b4; stroke: #1f77b4"/>
     <use xlink:href="#m6383eaa2db" x="327.028631" y="452.127335" style="fill: #1f77b4; stroke: #1f77b4"/>
     <use xlink:href="#m6383eaa2db" x="242.077223" y="459.98297" style="fill: #1f77b4; stroke: #1f77b4"/>
     <use xlink:href="#m6383eaa2db" x="218.177644" y="449.777204" style="fill: #1f77b4; stroke: #1f77b4"/>
     <use xlink:href="#m6383eaa2db" x="170.654579" y="458.201967" style="fill: #1f77b4; stroke: #1f77b4"/>
     <use xlink:href="#m6383eaa2db" x="110.846852" y="444.251238" style="fill: #1f77b4; stroke: #1f77b4"/>
     <use xlink:href="#m6383eaa2db" x="262.116734" y="441.435017" style="fill: #1f77b4; stroke: #1f77b4"/>
     <use xlink:href="#m6383eaa2db" x="420.56915" y="421.065173" style="fill: #1f77b4; stroke: #1f77b4"/>
     <use xlink:href="#m6383eaa2db" x="247.397251" y="438.541867" style="fill: #1f77b4; stroke: #1f77b4"/>
     <use xlink:href="#m6383eaa2db" x="213.477333" y="430.383714" style="fill: #1f77b4; stroke: #1f77b4"/>
     <use xlink:href="#m6383eaa2db" x="227.003324" y="441.133563" style="fill: #1f77b4; stroke: #1f77b4"/>
     <use xlink:href="#m6383eaa2db" x="220.137869" y="443.659168" style="fill: #1f77b4; stroke: #1f77b4"/>
     <use xlink:href="#m6383eaa2db" x="164.264594" y="486.234835" style="fill: #1f77b4; stroke: #1f77b4"/>
     <use xlink:href="#m6383eaa2db" x="211.932926" y="422.888307" style="fill: #1f77b4; stroke: #1f77b4"/>
     <use xlink:href="#m6383eaa2db" x="132.976687" y="451.956865" style="fill: #1f77b4; stroke: #1f77b4"/>
     <use xlink:href="#m6383eaa2db" x="218.972381" y="455.383147" style="fill: #1f77b4; stroke: #1f77b4"/>
     <use xlink:href="#m6383eaa2db" x="282.35781" y="416.678557" style="fill: #1f77b4; stroke: #1f77b4"/>
     <use xlink:href="#m6383eaa2db" x="295.667652" y="438.976506" style="fill: #1f77b4; stroke: #1f77b4"/>
     <use xlink:href="#m6383eaa2db" x="219.932366" y="325.061693" style="fill: #1f77b4; stroke: #1f77b4"/>
     <use xlink:href="#m6383eaa2db" x="185.010749" y="395.982812" style="fill: #1f77b4; stroke: #1f77b4"/>
     <use xlink:href="#m6383eaa2db" x="288.486431" y="409.2681" style="fill: #1f77b4; stroke: #1f77b4"/>
     <use xlink:href="#m6383eaa2db" x="193.194106" y="453.530937" style="fill: #1f77b4; stroke: #1f77b4"/>
     <use xlink:href="#m6383eaa2db" x="317.110678" y="358.95403" style="fill: #1f77b4; stroke: #1f77b4"/>
     <use xlink:href="#m6383eaa2db" x="282.585774" y="456.203516" style="fill: #1f77b4; stroke: #1f77b4"/>
     <use xlink:href="#m6383eaa2db" x="196.249374" y="463.977661" style="fill: #1f77b4; stroke: #1f77b4"/>
     <use xlink:href="#m6383eaa2db" x="367.000015" y="382.720488" style="fill: #1f77b4; stroke: #1f77b4"/>
     <use xlink:href="#m6383eaa2db" x="182.676273" y="341.85094" style="fill: #1f77b4; stroke: #1f77b4"/>
     <use xlink:href="#m6383eaa2db" x="239.284777" y="455.646177" style="fill: #1f77b4; stroke: #1f77b4"/>
     <use xlink:href="#m6383eaa2db" x="229.798541" y="415.782974" style="fill: #1f77b4; stroke: #1f77b4"/>
     <use xlink:href="#m6383eaa2db" x="192.167759" y="472.695302" style="fill: #1f77b4; stroke: #1f77b4"/>
     <use xlink:href="#m6383eaa2db" x="260.821877" y="369.39068" style="fill: #1f77b4; stroke: #1f77b4"/>
     <use xlink:href="#m6383eaa2db" x="133.683039" y="449.959096" style="fill: #1f77b4; stroke: #1f77b4"/>
     <use xlink:href="#m6383eaa2db" x="209.987869" y="438.532639" style="fill: #1f77b4; stroke: #1f77b4"/>
     <use xlink:href="#m6383eaa2db" x="231.899512" y="396.963032" style="fill: #1f77b4; stroke: #1f77b4"/>
     <use xlink:href="#m6383eaa2db" x="158.485285" y="444.903639" style="fill: #1f77b4; stroke: #1f77b4"/>
     <use xlink:href="#m6383eaa2db" x="310.172152" y="456.132212" style="fill: #1f77b4; stroke: #1f77b4"/>
     <use xlink:href="#m6383eaa2db" x="276.34689" y="396.008443" style="fill: #1f77b4; stroke: #1f77b4"/>
     <use xlink:href="#m6383eaa2db" x="181.780899" y="426.856326" style="fill: #1f77b4; stroke: #1f77b4"/>
     <use xlink:href="#m6383eaa2db" x="266.77504" y="319.703756" style="fill: #1f77b4; stroke: #1f77b4"/>
     <use xlink:href="#m6383eaa2db" x="177.300676" y="456.746475" style="fill: #1f77b4; stroke: #1f77b4"/>
     <use xlink:href="#m6383eaa2db" x="227.309755" y="426.008588" style="fill: #1f77b4; stroke: #1f77b4"/>
     <use xlink:href="#m6383eaa2db" x="213.858001" y="391.46716" style="fill: #1f77b4; stroke: #1f77b4"/>
     <use xlink:href="#m6383eaa2db" x="258.260458" y="385.775203" style="fill: #1f77b4; stroke: #1f77b4"/>
     <use xlink:href="#m6383eaa2db" x="268.673863" y="441.132701" style="fill: #1f77b4; stroke: #1f77b4"/>
     <use xlink:href="#m6383eaa2db" x="237.469819" y="428.637202" style="fill: #1f77b4; stroke: #1f77b4"/>
     <use xlink:href="#m6383eaa2db" x="231.916285" y="439.610055" style="fill: #1f77b4; stroke: #1f77b4"/>
     <use xlink:href="#m6383eaa2db" x="407.446434" y="383.397112" style="fill: #1f77b4; stroke: #1f77b4"/>
     <use xlink:href="#m6383eaa2db" x="211.786638" y="455.571353" style="fill: #1f77b4; stroke: #1f77b4"/>
     <use xlink:href="#m6383eaa2db" x="218.249548" y="457.673164" style="fill: #1f77b4; stroke: #1f77b4"/>
     <use xlink:href="#m6383eaa2db" x="217.364384" y="403.637635" style="fill: #1f77b4; stroke: #1f77b4"/>
     <use xlink:href="#m6383eaa2db" x="243.160452" y="422.971969" style="fill: #1f77b4; stroke: #1f77b4"/>
     <use xlink:href="#m6383eaa2db" x="176.982577" y="483.13208" style="fill: #1f77b4; stroke: #1f77b4"/>
     <use xlink:href="#m6383eaa2db" x="129.806781" y="420.583527" style="fill: #1f77b4; stroke: #1f77b4"/>
     <use xlink:href="#m6383eaa2db" x="323.067488" y="408.534029" style="fill: #1f77b4; stroke: #1f77b4"/>
     <use xlink:href="#m6383eaa2db" x="158.032566" y="460.605599" style="fill: #1f77b4; stroke: #1f77b4"/>
     <use xlink:href="#m6383eaa2db" x="287.201929" y="461.855927" style="fill: #1f77b4; stroke: #1f77b4"/>
     <use xlink:href="#m6383eaa2db" x="205.766822" y="459.975083" style="fill: #1f77b4; stroke: #1f77b4"/>
     <use xlink:href="#m6383eaa2db" x="264.417082" y="409.354998" style="fill: #1f77b4; stroke: #1f77b4"/>
     <use xlink:href="#m6383eaa2db" x="197.594695" y="462.812628" style="fill: #1f77b4; stroke: #1f77b4"/>
     <use xlink:href="#m6383eaa2db" x="137.596051" y="435.647451" style="fill: #1f77b4; stroke: #1f77b4"/>
     <use xlink:href="#m6383eaa2db" x="214.425504" y="448.887507" style="fill: #1f77b4; stroke: #1f77b4"/>
     <use xlink:href="#m6383eaa2db" x="349.198136" y="439.492419" style="fill: #1f77b4; stroke: #1f77b4"/>
     <use xlink:href="#m6383eaa2db" x="273.890337" y="254.793843" style="fill: #1f77b4; stroke: #1f77b4"/>
     <use xlink:href="#m6383eaa2db" x="171.981523" y="407.830022" style="fill: #1f77b4; stroke: #1f77b4"/>
     <use xlink:href="#m6383eaa2db" x="177.608565" y="441.675608" style="fill: #1f77b4; stroke: #1f77b4"/>
     <use xlink:href="#m6383eaa2db" x="137.339209" y="475.400193" style="fill: #1f77b4; stroke: #1f77b4"/>
     <use xlink:href="#m6383eaa2db" x="235.805523" y="433.078554" style="fill: #1f77b4; stroke: #1f77b4"/>
     <use xlink:href="#m6383eaa2db" x="176.802014" y="510.921818" style="fill: #1f77b4; stroke: #1f77b4"/>
     <use xlink:href="#m6383eaa2db" x="294.547232" y="406.092153" style="fill: #1f77b4; stroke: #1f77b4"/>
     <use xlink:href="#m6383eaa2db" x="328.56837" y="452.849864" style="fill: #1f77b4; stroke: #1f77b4"/>
     <use xlink:href="#m6383eaa2db" x="252.5039" y="430.440293" style="fill: #1f77b4; stroke: #1f77b4"/>
     <use xlink:href="#m6383eaa2db" x="207.264119" y="432.059552" style="fill: #1f77b4; stroke: #1f77b4"/>
     <use xlink:href="#m6383eaa2db" x="169.947935" y="454.075551" style="fill: #1f77b4; stroke: #1f77b4"/>
     <use xlink:href="#m6383eaa2db" x="275.110373" y="445.819453" style="fill: #1f77b4; stroke: #1f77b4"/>
     <use xlink:href="#m6383eaa2db" x="141.811848" y="410.289289" style="fill: #1f77b4; stroke: #1f77b4"/>
     <use xlink:href="#m6383eaa2db" x="442.775993" y="449.657402" style="fill: #1f77b4; stroke: #1f77b4"/>
     <use xlink:href="#m6383eaa2db" x="201.483204" y="404.619338" style="fill: #1f77b4; stroke: #1f77b4"/>
     <use xlink:href="#m6383eaa2db" x="419.560742" y="397.375022" style="fill: #1f77b4; stroke: #1f77b4"/>
     <use xlink:href="#m6383eaa2db" x="207.016903" y="485.774018" style="fill: #1f77b4; stroke: #1f77b4"/>
     <use xlink:href="#m6383eaa2db" x="374.355965" y="451.75842" style="fill: #1f77b4; stroke: #1f77b4"/>
     <use xlink:href="#m6383eaa2db" x="213.643018" y="424.409987" style="fill: #1f77b4; stroke: #1f77b4"/>
     <use xlink:href="#m6383eaa2db" x="165.818336" y="440.697448" style="fill: #1f77b4; stroke: #1f77b4"/>
     <use xlink:href="#m6383eaa2db" x="122.697318" y="461.252173" style="fill: #1f77b4; stroke: #1f77b4"/>
     <use xlink:href="#m6383eaa2db" x="188.636437" y="433.16671" style="fill: #1f77b4; stroke: #1f77b4"/>
     <use xlink:href="#m6383eaa2db" x="241.441317" y="408.598592" style="fill: #1f77b4; stroke: #1f77b4"/>
     <use xlink:href="#m6383eaa2db" x="334.45663" y="344.786416" style="fill: #1f77b4; stroke: #1f77b4"/>
     <use xlink:href="#m6383eaa2db" x="295.014389" y="414.642425" style="fill: #1f77b4; stroke: #1f77b4"/>
     <use xlink:href="#m6383eaa2db" x="254.71878" y="427.163787" style="fill: #1f77b4; stroke: #1f77b4"/>
     <use xlink:href="#m6383eaa2db" x="209.628932" y="457.910744" style="fill: #1f77b4; stroke: #1f77b4"/>
     <use xlink:href="#m6383eaa2db" x="290.153935" y="472.468305" style="fill: #1f77b4; stroke: #1f77b4"/>
     <use xlink:href="#m6383eaa2db" x="178.258182" y="459.273998" style="fill: #1f77b4; stroke: #1f77b4"/>
     <use xlink:href="#m6383eaa2db" x="190.332965" y="470.480004" style="fill: #1f77b4; stroke: #1f77b4"/>
     <use xlink:href="#m6383eaa2db" x="213.283206" y="484.958547" style="fill: #1f77b4; stroke: #1f77b4"/>
     <use xlink:href="#m6383eaa2db" x="145.63487" y="446.954616" style="fill: #1f77b4; stroke: #1f77b4"/>
     <use xlink:href="#m6383eaa2db" x="220.486305" y="401.767839" style="fill: #1f77b4; stroke: #1f77b4"/>
     <use xlink:href="#m6383eaa2db" x="156.878162" y="480.517435" style="fill: #1f77b4; stroke: #1f77b4"/>
     <use xlink:href="#m6383eaa2db" x="317.832345" y="408.995692" style="fill: #1f77b4; stroke: #1f77b4"/>
     <use xlink:href="#m6383eaa2db" x="198.733493" y="396.49653" style="fill: #1f77b4; stroke: #1f77b4"/>
     <use xlink:href="#m6383eaa2db" x="197.35798" y="450.943532" style="fill: #1f77b4; stroke: #1f77b4"/>
     <use xlink:href="#m6383eaa2db" x="186.96339" y="375.850174" style="fill: #1f77b4; stroke: #1f77b4"/>
     <use xlink:href="#m6383eaa2db" x="350.281948" y="337.313433" style="fill: #1f77b4; stroke: #1f77b4"/>
     <use xlink:href="#m6383eaa2db" x="275.618952" y="455.034341" style="fill: #1f77b4; stroke: #1f77b4"/>
     <use xlink:href="#m6383eaa2db" x="266.328156" y="414.83162" style="fill: #1f77b4; stroke: #1f77b4"/>
     <use xlink:href="#m6383eaa2db" x="290.933941" y="463.467688" style="fill: #1f77b4; stroke: #1f77b4"/>
     <use xlink:href="#m6383eaa2db" x="86.781004" y="471.115328" style="fill: #1f77b4; stroke: #1f77b4"/>
     <use xlink:href="#m6383eaa2db" x="183.190102" y="437.296489" style="fill: #1f77b4; stroke: #1f77b4"/>
     <use xlink:href="#m6383eaa2db" x="196.280732" y="426.578525" style="fill: #1f77b4; stroke: #1f77b4"/>
     <use xlink:href="#m6383eaa2db" x="115.025457" y="420.145891" style="fill: #1f77b4; stroke: #1f77b4"/>
     <use xlink:href="#m6383eaa2db" x="249.134763" y="429.283761" style="fill: #1f77b4; stroke: #1f77b4"/>
     <use xlink:href="#m6383eaa2db" x="222.313369" y="441.305823" style="fill: #1f77b4; stroke: #1f77b4"/>
     <use xlink:href="#m6383eaa2db" x="155.174633" y="437.208386" style="fill: #1f77b4; stroke: #1f77b4"/>
    </g>
   </g>
   <g id="matplotlib.axis_1">
    <g id="xtick_1">
     <g id="line2d_1">
      <defs>
       <path id="m9856152cb2" d="M 0 0 
L 0 3.5 
" style="stroke: #000000; stroke-width: 0.8"/>
      </defs>
      <g>
       <use xlink:href="#m9856152cb2" x="66.859631" y="534.04" style="stroke: #000000; stroke-width: 0.8"/>
      </g>
     </g>
     <g id="text_1">
      <!-- 14.0 -->
      <g transform="translate(55.726819 548.638438) scale(0.1 -0.1)">
       <defs>
        <path id="DejaVuSans-31" d="M 794 531 
L 1825 531 
L 1825 4091 
L 703 3866 
L 703 4441 
L 1819 4666 
L 2450 4666 
L 2450 531 
L 3481 531 
L 3481 0 
L 794 0 
L 794 531 
z
" transform="scale(0.015625)"/>
        <path id="DejaVuSans-34" d="M 2419 4116 
L 825 1625 
L 2419 1625 
L 2419 4116 
z
M 2253 4666 
L 3047 4666 
L 3047 1625 
L 3713 1625 
L 3713 1100 
L 3047 1100 
L 3047 0 
L 2419 0 
L 2419 1100 
L 313 1100 
L 313 1709 
L 2253 4666 
z
" transform="scale(0.015625)"/>
        <path id="DejaVuSans-2e" d="M 684 794 
L 1344 794 
L 1344 0 
L 684 0 
L 684 794 
z
" transform="scale(0.015625)"/>
        <path id="DejaVuSans-30" d="M 2034 4250 
Q 1547 4250 1301 3770 
Q 1056 3291 1056 2328 
Q 1056 1369 1301 889 
Q 1547 409 2034 409 
Q 2525 409 2770 889 
Q 3016 1369 3016 2328 
Q 3016 3291 2770 3770 
Q 2525 4250 2034 4250 
z
M 2034 4750 
Q 2819 4750 3233 4129 
Q 3647 3509 3647 2328 
Q 3647 1150 3233 529 
Q 2819 -91 2034 -91 
Q 1250 -91 836 529 
Q 422 1150 422 2328 
Q 422 3509 836 4129 
Q 1250 4750 2034 4750 
z
" transform="scale(0.015625)"/>
       </defs>
       <use xlink:href="#DejaVuSans-31"/>
       <use xlink:href="#DejaVuSans-34" x="63.623047"/>
       <use xlink:href="#DejaVuSans-2e" x="127.246094"/>
       <use xlink:href="#DejaVuSans-30" x="159.033203"/>
      </g>
     </g>
    </g>
    <g id="xtick_2">
     <g id="line2d_2">
      <g>
       <use xlink:href="#m9856152cb2" x="143.327084" y="534.04" style="stroke: #000000; stroke-width: 0.8"/>
      </g>
     </g>
     <g id="text_2">
      <!-- 14.5 -->
      <g transform="translate(132.194272 548.638438) scale(0.1 -0.1)">
       <defs>
        <path id="DejaVuSans-35" d="M 691 4666 
L 3169 4666 
L 3169 4134 
L 1269 4134 
L 1269 2991 
Q 1406 3038 1543 3061 
Q 1681 3084 1819 3084 
Q 2600 3084 3056 2656 
Q 3513 2228 3513 1497 
Q 3513 744 3044 326 
Q 2575 -91 1722 -91 
Q 1428 -91 1123 -41 
Q 819 9 494 109 
L 494 744 
Q 775 591 1075 516 
Q 1375 441 1709 441 
Q 2250 441 2565 725 
Q 2881 1009 2881 1497 
Q 2881 1984 2565 2268 
Q 2250 2553 1709 2553 
Q 1456 2553 1204 2497 
Q 953 2441 691 2322 
L 691 4666 
z
" transform="scale(0.015625)"/>
       </defs>
       <use xlink:href="#DejaVuSans-31"/>
       <use xlink:href="#DejaVuSans-34" x="63.623047"/>
       <use xlink:href="#DejaVuSans-2e" x="127.246094"/>
       <use xlink:href="#DejaVuSans-35" x="159.033203"/>
      </g>
     </g>
    </g>
    <g id="xtick_3">
     <g id="line2d_3">
      <g>
       <use xlink:href="#m9856152cb2" x="219.794538" y="534.04" style="stroke: #000000; stroke-width: 0.8"/>
      </g>
     </g>
     <g id="text_3">
      <!-- 15.0 -->
      <g transform="translate(208.661725 548.638438) scale(0.1 -0.1)">
       <use xlink:href="#DejaVuSans-31"/>
       <use xlink:href="#DejaVuSans-35" x="63.623047"/>
       <use xlink:href="#DejaVuSans-2e" x="127.246094"/>
       <use xlink:href="#DejaVuSans-30" x="159.033203"/>
      </g>
     </g>
    </g>
    <g id="xtick_4">
     <g id="line2d_4">
      <g>
       <use xlink:href="#m9856152cb2" x="296.261991" y="534.04" style="stroke: #000000; stroke-width: 0.8"/>
      </g>
     </g>
     <g id="text_4">
      <!-- 15.5 -->
      <g transform="translate(285.129179 548.638438) scale(0.1 -0.1)">
       <use xlink:href="#DejaVuSans-31"/>
       <use xlink:href="#DejaVuSans-35" x="63.623047"/>
       <use xlink:href="#DejaVuSans-2e" x="127.246094"/>
       <use xlink:href="#DejaVuSans-35" x="159.033203"/>
      </g>
     </g>
    </g>
    <g id="xtick_5">
     <g id="line2d_5">
      <g>
       <use xlink:href="#m9856152cb2" x="372.729444" y="534.04" style="stroke: #000000; stroke-width: 0.8"/>
      </g>
     </g>
     <g id="text_5">
      <!-- 16.0 -->
      <g transform="translate(361.596632 548.638438) scale(0.1 -0.1)">
       <defs>
        <path id="DejaVuSans-36" d="M 2113 2584 
Q 1688 2584 1439 2293 
Q 1191 2003 1191 1497 
Q 1191 994 1439 701 
Q 1688 409 2113 409 
Q 2538 409 2786 701 
Q 3034 994 3034 1497 
Q 3034 2003 2786 2293 
Q 2538 2584 2113 2584 
z
M 3366 4563 
L 3366 3988 
Q 3128 4100 2886 4159 
Q 2644 4219 2406 4219 
Q 1781 4219 1451 3797 
Q 1122 3375 1075 2522 
Q 1259 2794 1537 2939 
Q 1816 3084 2150 3084 
Q 2853 3084 3261 2657 
Q 3669 2231 3669 1497 
Q 3669 778 3244 343 
Q 2819 -91 2113 -91 
Q 1303 -91 875 529 
Q 447 1150 447 2328 
Q 447 3434 972 4092 
Q 1497 4750 2381 4750 
Q 2619 4750 2861 4703 
Q 3103 4656 3366 4563 
z
" transform="scale(0.015625)"/>
       </defs>
       <use xlink:href="#DejaVuSans-31"/>
       <use xlink:href="#DejaVuSans-36" x="63.623047"/>
       <use xlink:href="#DejaVuSans-2e" x="127.246094"/>
       <use xlink:href="#DejaVuSans-30" x="159.033203"/>
      </g>
     </g>
    </g>
    <g id="xtick_6">
     <g id="line2d_6">
      <g>
       <use xlink:href="#m9856152cb2" x="449.196898" y="534.04" style="stroke: #000000; stroke-width: 0.8"/>
      </g>
     </g>
     <g id="text_6">
      <!-- 16.5 -->
      <g transform="translate(438.064085 548.638438) scale(0.1 -0.1)">
       <use xlink:href="#DejaVuSans-31"/>
       <use xlink:href="#DejaVuSans-36" x="63.623047"/>
       <use xlink:href="#DejaVuSans-2e" x="127.246094"/>
       <use xlink:href="#DejaVuSans-35" x="159.033203"/>
      </g>
     </g>
    </g>
    <g id="xtick_7">
     <g id="line2d_7">
      <g>
       <use xlink:href="#m9856152cb2" x="525.664351" y="534.04" style="stroke: #000000; stroke-width: 0.8"/>
      </g>
     </g>
     <g id="text_7">
      <!-- 17.0 -->
      <g transform="translate(514.531539 548.638438) scale(0.1 -0.1)">
       <defs>
        <path id="DejaVuSans-37" d="M 525 4666 
L 3525 4666 
L 3525 4397 
L 1831 0 
L 1172 0 
L 2766 4134 
L 525 4134 
L 525 4666 
z
" transform="scale(0.015625)"/>
       </defs>
       <use xlink:href="#DejaVuSans-31"/>
       <use xlink:href="#DejaVuSans-37" x="63.623047"/>
       <use xlink:href="#DejaVuSans-2e" x="127.246094"/>
       <use xlink:href="#DejaVuSans-30" x="159.033203"/>
      </g>
     </g>
    </g>
    <g id="xtick_8">
     <g id="line2d_8">
      <g>
       <use xlink:href="#m9856152cb2" x="602.131804" y="534.04" style="stroke: #000000; stroke-width: 0.8"/>
      </g>
     </g>
     <g id="text_8">
      <!-- 17.5 -->
      <g transform="translate(590.998992 548.638438) scale(0.1 -0.1)">
       <use xlink:href="#DejaVuSans-31"/>
       <use xlink:href="#DejaVuSans-37" x="63.623047"/>
       <use xlink:href="#DejaVuSans-2e" x="127.246094"/>
       <use xlink:href="#DejaVuSans-35" x="159.033203"/>
      </g>
     </g>
    </g>
    <g id="xtick_9">
     <g id="line2d_9">
      <g>
       <use xlink:href="#m9856152cb2" x="678.599258" y="534.04" style="stroke: #000000; stroke-width: 0.8"/>
      </g>
     </g>
     <g id="text_9">
      <!-- 18.0 -->
      <g transform="translate(667.466445 548.638438) scale(0.1 -0.1)">
       <defs>
        <path id="DejaVuSans-38" d="M 2034 2216 
Q 1584 2216 1326 1975 
Q 1069 1734 1069 1313 
Q 1069 891 1326 650 
Q 1584 409 2034 409 
Q 2484 409 2743 651 
Q 3003 894 3003 1313 
Q 3003 1734 2745 1975 
Q 2488 2216 2034 2216 
z
M 1403 2484 
Q 997 2584 770 2862 
Q 544 3141 544 3541 
Q 544 4100 942 4425 
Q 1341 4750 2034 4750 
Q 2731 4750 3128 4425 
Q 3525 4100 3525 3541 
Q 3525 3141 3298 2862 
Q 3072 2584 2669 2484 
Q 3125 2378 3379 2068 
Q 3634 1759 3634 1313 
Q 3634 634 3220 271 
Q 2806 -91 2034 -91 
Q 1263 -91 848 271 
Q 434 634 434 1313 
Q 434 1759 690 2068 
Q 947 2378 1403 2484 
z
M 1172 3481 
Q 1172 3119 1398 2916 
Q 1625 2713 2034 2713 
Q 2441 2713 2670 2916 
Q 2900 3119 2900 3481 
Q 2900 3844 2670 4047 
Q 2441 4250 2034 4250 
Q 1625 4250 1398 4047 
Q 1172 3844 1172 3481 
z
" transform="scale(0.015625)"/>
       </defs>
       <use xlink:href="#DejaVuSans-31"/>
       <use xlink:href="#DejaVuSans-38" x="63.623047"/>
       <use xlink:href="#DejaVuSans-2e" x="127.246094"/>
       <use xlink:href="#DejaVuSans-30" x="159.033203"/>
      </g>
     </g>
    </g>
    <g id="text_10">
     <!-- Uncertainties -->
     <g transform="translate(343.608125 562.316563) scale(0.1 -0.1)">
      <defs>
       <path id="DejaVuSans-55" d="M 556 4666 
L 1191 4666 
L 1191 1831 
Q 1191 1081 1462 751 
Q 1734 422 2344 422 
Q 2950 422 3222 751 
Q 3494 1081 3494 1831 
L 3494 4666 
L 4128 4666 
L 4128 1753 
Q 4128 841 3676 375 
Q 3225 -91 2344 -91 
Q 1459 -91 1007 375 
Q 556 841 556 1753 
L 556 4666 
z
" transform="scale(0.015625)"/>
       <path id="DejaVuSans-6e" d="M 3513 2113 
L 3513 0 
L 2938 0 
L 2938 2094 
Q 2938 2591 2744 2837 
Q 2550 3084 2163 3084 
Q 1697 3084 1428 2787 
Q 1159 2491 1159 1978 
L 1159 0 
L 581 0 
L 581 3500 
L 1159 3500 
L 1159 2956 
Q 1366 3272 1645 3428 
Q 1925 3584 2291 3584 
Q 2894 3584 3203 3211 
Q 3513 2838 3513 2113 
z
" transform="scale(0.015625)"/>
       <path id="DejaVuSans-63" d="M 3122 3366 
L 3122 2828 
Q 2878 2963 2633 3030 
Q 2388 3097 2138 3097 
Q 1578 3097 1268 2742 
Q 959 2388 959 1747 
Q 959 1106 1268 751 
Q 1578 397 2138 397 
Q 2388 397 2633 464 
Q 2878 531 3122 666 
L 3122 134 
Q 2881 22 2623 -34 
Q 2366 -91 2075 -91 
Q 1284 -91 818 406 
Q 353 903 353 1747 
Q 353 2603 823 3093 
Q 1294 3584 2113 3584 
Q 2378 3584 2631 3529 
Q 2884 3475 3122 3366 
z
" transform="scale(0.015625)"/>
       <path id="DejaVuSans-65" d="M 3597 1894 
L 3597 1613 
L 953 1613 
Q 991 1019 1311 708 
Q 1631 397 2203 397 
Q 2534 397 2845 478 
Q 3156 559 3463 722 
L 3463 178 
Q 3153 47 2828 -22 
Q 2503 -91 2169 -91 
Q 1331 -91 842 396 
Q 353 884 353 1716 
Q 353 2575 817 3079 
Q 1281 3584 2069 3584 
Q 2775 3584 3186 3129 
Q 3597 2675 3597 1894 
z
M 3022 2063 
Q 3016 2534 2758 2815 
Q 2500 3097 2075 3097 
Q 1594 3097 1305 2825 
Q 1016 2553 972 2059 
L 3022 2063 
z
" transform="scale(0.015625)"/>
       <path id="DejaVuSans-72" d="M 2631 2963 
Q 2534 3019 2420 3045 
Q 2306 3072 2169 3072 
Q 1681 3072 1420 2755 
Q 1159 2438 1159 1844 
L 1159 0 
L 581 0 
L 581 3500 
L 1159 3500 
L 1159 2956 
Q 1341 3275 1631 3429 
Q 1922 3584 2338 3584 
Q 2397 3584 2469 3576 
Q 2541 3569 2628 3553 
L 2631 2963 
z
" transform="scale(0.015625)"/>
       <path id="DejaVuSans-74" d="M 1172 4494 
L 1172 3500 
L 2356 3500 
L 2356 3053 
L 1172 3053 
L 1172 1153 
Q 1172 725 1289 603 
Q 1406 481 1766 481 
L 2356 481 
L 2356 0 
L 1766 0 
Q 1100 0 847 248 
Q 594 497 594 1153 
L 594 3053 
L 172 3053 
L 172 3500 
L 594 3500 
L 594 4494 
L 1172 4494 
z
" transform="scale(0.015625)"/>
       <path id="DejaVuSans-61" d="M 2194 1759 
Q 1497 1759 1228 1600 
Q 959 1441 959 1056 
Q 959 750 1161 570 
Q 1363 391 1709 391 
Q 2188 391 2477 730 
Q 2766 1069 2766 1631 
L 2766 1759 
L 2194 1759 
z
M 3341 1997 
L 3341 0 
L 2766 0 
L 2766 531 
Q 2569 213 2275 61 
Q 1981 -91 1556 -91 
Q 1019 -91 701 211 
Q 384 513 384 1019 
Q 384 1609 779 1909 
Q 1175 2209 1959 2209 
L 2766 2209 
L 2766 2266 
Q 2766 2663 2505 2880 
Q 2244 3097 1772 3097 
Q 1472 3097 1187 3025 
Q 903 2953 641 2809 
L 641 3341 
Q 956 3463 1253 3523 
Q 1550 3584 1831 3584 
Q 2591 3584 2966 3190 
Q 3341 2797 3341 1997 
z
" transform="scale(0.015625)"/>
       <path id="DejaVuSans-69" d="M 603 3500 
L 1178 3500 
L 1178 0 
L 603 0 
L 603 3500 
z
M 603 4863 
L 1178 4863 
L 1178 4134 
L 603 4134 
L 603 4863 
z
" transform="scale(0.015625)"/>
       <path id="DejaVuSans-73" d="M 2834 3397 
L 2834 2853 
Q 2591 2978 2328 3040 
Q 2066 3103 1784 3103 
Q 1356 3103 1142 2972 
Q 928 2841 928 2578 
Q 928 2378 1081 2264 
Q 1234 2150 1697 2047 
L 1894 2003 
Q 2506 1872 2764 1633 
Q 3022 1394 3022 966 
Q 3022 478 2636 193 
Q 2250 -91 1575 -91 
Q 1294 -91 989 -36 
Q 684 19 347 128 
L 347 722 
Q 666 556 975 473 
Q 1284 391 1588 391 
Q 1994 391 2212 530 
Q 2431 669 2431 922 
Q 2431 1156 2273 1281 
Q 2116 1406 1581 1522 
L 1381 1569 
Q 847 1681 609 1914 
Q 372 2147 372 2553 
Q 372 3047 722 3315 
Q 1072 3584 1716 3584 
Q 2034 3584 2315 3537 
Q 2597 3491 2834 3397 
z
" transform="scale(0.015625)"/>
      </defs>
      <use xlink:href="#DejaVuSans-55"/>
      <use xlink:href="#DejaVuSans-6e" x="73.193359"/>
      <use xlink:href="#DejaVuSans-63" x="136.572266"/>
      <use xlink:href="#DejaVuSans-65" x="191.552734"/>
      <use xlink:href="#DejaVuSans-72" x="253.076172"/>
      <use xlink:href="#DejaVuSans-74" x="294.189453"/>
      <use xlink:href="#DejaVuSans-61" x="333.398438"/>
      <use xlink:href="#DejaVuSans-69" x="394.677734"/>
      <use xlink:href="#DejaVuSans-6e" x="422.460938"/>
      <use xlink:href="#DejaVuSans-74" x="485.839844"/>
      <use xlink:href="#DejaVuSans-69" x="525.048828"/>
      <use xlink:href="#DejaVuSans-65" x="552.832031"/>
      <use xlink:href="#DejaVuSans-73" x="614.355469"/>
     </g>
    </g>
   </g>
   <g id="matplotlib.axis_2">
    <g id="ytick_1">
     <g id="line2d_10">
      <defs>
       <path id="mcd58392cd7" d="M 0 0 
L -3.5 0 
" style="stroke: #000000; stroke-width: 0.8"/>
      </defs>
      <g>
       <use xlink:href="#mcd58392cd7" x="44.66" y="497.933071" style="stroke: #000000; stroke-width: 0.8"/>
      </g>
     </g>
     <g id="text_11">
      <!-- 2 -->
      <g transform="translate(31.2975 501.73229) scale(0.1 -0.1)">
       <defs>
        <path id="DejaVuSans-32" d="M 1228 531 
L 3431 531 
L 3431 0 
L 469 0 
L 469 531 
Q 828 903 1448 1529 
Q 2069 2156 2228 2338 
Q 2531 2678 2651 2914 
Q 2772 3150 2772 3378 
Q 2772 3750 2511 3984 
Q 2250 4219 1831 4219 
Q 1534 4219 1204 4116 
Q 875 4013 500 3803 
L 500 4441 
Q 881 4594 1212 4672 
Q 1544 4750 1819 4750 
Q 2544 4750 2975 4387 
Q 3406 4025 3406 3419 
Q 3406 3131 3298 2873 
Q 3191 2616 2906 2266 
Q 2828 2175 2409 1742 
Q 1991 1309 1228 531 
z
" transform="scale(0.015625)"/>
       </defs>
       <use xlink:href="#DejaVuSans-32"/>
      </g>
     </g>
    </g>
    <g id="ytick_2">
     <g id="line2d_11">
      <g>
       <use xlink:href="#mcd58392cd7" x="44.66" y="435.103152" style="stroke: #000000; stroke-width: 0.8"/>
      </g>
     </g>
     <g id="text_12">
      <!-- 4 -->
      <g transform="translate(31.2975 438.90237) scale(0.1 -0.1)">
       <use xlink:href="#DejaVuSans-34"/>
      </g>
     </g>
    </g>
    <g id="ytick_3">
     <g id="line2d_12">
      <g>
       <use xlink:href="#mcd58392cd7" x="44.66" y="372.273232" style="stroke: #000000; stroke-width: 0.8"/>
      </g>
     </g>
     <g id="text_13">
      <!-- 6 -->
      <g transform="translate(31.2975 376.072451) scale(0.1 -0.1)">
       <use xlink:href="#DejaVuSans-36"/>
      </g>
     </g>
    </g>
    <g id="ytick_4">
     <g id="line2d_13">
      <g>
       <use xlink:href="#mcd58392cd7" x="44.66" y="309.443313" style="stroke: #000000; stroke-width: 0.8"/>
      </g>
     </g>
     <g id="text_14">
      <!-- 8 -->
      <g transform="translate(31.2975 313.242532) scale(0.1 -0.1)">
       <use xlink:href="#DejaVuSans-38"/>
      </g>
     </g>
    </g>
    <g id="ytick_5">
     <g id="line2d_14">
      <g>
       <use xlink:href="#mcd58392cd7" x="44.66" y="246.613394" style="stroke: #000000; stroke-width: 0.8"/>
      </g>
     </g>
     <g id="text_15">
      <!-- 10 -->
      <g transform="translate(24.935 250.412612) scale(0.1 -0.1)">
       <use xlink:href="#DejaVuSans-31"/>
       <use xlink:href="#DejaVuSans-30" x="63.623047"/>
      </g>
     </g>
    </g>
    <g id="ytick_6">
     <g id="line2d_15">
      <g>
       <use xlink:href="#mcd58392cd7" x="44.66" y="183.783474" style="stroke: #000000; stroke-width: 0.8"/>
      </g>
     </g>
     <g id="text_16">
      <!-- 12 -->
      <g transform="translate(24.935 187.582693) scale(0.1 -0.1)">
       <use xlink:href="#DejaVuSans-31"/>
       <use xlink:href="#DejaVuSans-32" x="63.623047"/>
      </g>
     </g>
    </g>
    <g id="ytick_7">
     <g id="line2d_16">
      <g>
       <use xlink:href="#mcd58392cd7" x="44.66" y="120.953555" style="stroke: #000000; stroke-width: 0.8"/>
      </g>
     </g>
     <g id="text_17">
      <!-- 14 -->
      <g transform="translate(24.935 124.752774) scale(0.1 -0.1)">
       <use xlink:href="#DejaVuSans-31"/>
       <use xlink:href="#DejaVuSans-34" x="63.623047"/>
      </g>
     </g>
    </g>
    <g id="ytick_8">
     <g id="line2d_17">
      <g>
       <use xlink:href="#mcd58392cd7" x="44.66" y="58.123636" style="stroke: #000000; stroke-width: 0.8"/>
      </g>
     </g>
     <g id="text_18">
      <!-- 16 -->
      <g transform="translate(24.935 61.922855) scale(0.1 -0.1)">
       <use xlink:href="#DejaVuSans-31"/>
       <use xlink:href="#DejaVuSans-36" x="63.623047"/>
      </g>
     </g>
    </g>
    <g id="text_19">
     <!-- Force Errors -->
     <g transform="translate(18.855313 309.641563) rotate(-90) scale(0.1 -0.1)">
      <defs>
       <path id="DejaVuSans-46" d="M 628 4666 
L 3309 4666 
L 3309 4134 
L 1259 4134 
L 1259 2759 
L 3109 2759 
L 3109 2228 
L 1259 2228 
L 1259 0 
L 628 0 
L 628 4666 
z
" transform="scale(0.015625)"/>
       <path id="DejaVuSans-6f" d="M 1959 3097 
Q 1497 3097 1228 2736 
Q 959 2375 959 1747 
Q 959 1119 1226 758 
Q 1494 397 1959 397 
Q 2419 397 2687 759 
Q 2956 1122 2956 1747 
Q 2956 2369 2687 2733 
Q 2419 3097 1959 3097 
z
M 1959 3584 
Q 2709 3584 3137 3096 
Q 3566 2609 3566 1747 
Q 3566 888 3137 398 
Q 2709 -91 1959 -91 
Q 1206 -91 779 398 
Q 353 888 353 1747 
Q 353 2609 779 3096 
Q 1206 3584 1959 3584 
z
" transform="scale(0.015625)"/>
       <path id="DejaVuSans-20" transform="scale(0.015625)"/>
       <path id="DejaVuSans-45" d="M 628 4666 
L 3578 4666 
L 3578 4134 
L 1259 4134 
L 1259 2753 
L 3481 2753 
L 3481 2222 
L 1259 2222 
L 1259 531 
L 3634 531 
L 3634 0 
L 628 0 
L 628 4666 
z
" transform="scale(0.015625)"/>
      </defs>
      <use xlink:href="#DejaVuSans-46"/>
      <use xlink:href="#DejaVuSans-6f" x="53.894531"/>
      <use xlink:href="#DejaVuSans-72" x="115.076172"/>
      <use xlink:href="#DejaVuSans-63" x="153.939453"/>
      <use xlink:href="#DejaVuSans-65" x="208.919922"/>
      <use xlink:href="#DejaVuSans-20" x="270.443359"/>
      <use xlink:href="#DejaVuSans-45" x="302.230469"/>
      <use xlink:href="#DejaVuSans-72" x="365.414062"/>
      <use xlink:href="#DejaVuSans-72" x="404.777344"/>
      <use xlink:href="#DejaVuSans-6f" x="443.640625"/>
      <use xlink:href="#DejaVuSans-72" x="504.822266"/>
      <use xlink:href="#DejaVuSans-73" x="545.935547"/>
     </g>
    </g>
   </g>
   <g id="line2d_18">
    <path d="M 201.166564 141.085385 
L 678.993636 48.558182 
L 74.866364 165.542368 
L 155.174633 149.991337 
" clip-path="url(#pdc4a703938)" style="fill: none; stroke: #ff0000; stroke-width: 1.5; stroke-linecap: square"/>
   </g>
   <g id="patch_3">
    <path d="M 44.66 534.04 
L 44.66 25.44 
" style="fill: none; stroke: #000000; stroke-width: 0.8; stroke-linejoin: miter; stroke-linecap: square"/>
   </g>
   <g id="patch_4">
    <path d="M 709.2 534.04 
L 709.2 25.44 
" style="fill: none; stroke: #000000; stroke-width: 0.8; stroke-linejoin: miter; stroke-linecap: square"/>
   </g>
   <g id="patch_5">
    <path d="M 44.66 534.04 
L 709.2 534.04 
" style="fill: none; stroke: #000000; stroke-width: 0.8; stroke-linejoin: miter; stroke-linecap: square"/>
   </g>
   <g id="patch_6">
    <path d="M 44.66 25.44 
L 709.2 25.44 
" style="fill: none; stroke: #000000; stroke-width: 0.8; stroke-linejoin: miter; stroke-linecap: square"/>
   </g>
   <g id="text_20">
    <!-- Uncertainty Calibration -->
    <g transform="translate(307.324375 19.44) scale(0.12 -0.12)">
     <defs>
      <path id="DejaVuSans-79" d="M 2059 -325 
Q 1816 -950 1584 -1140 
Q 1353 -1331 966 -1331 
L 506 -1331 
L 506 -850 
L 844 -850 
Q 1081 -850 1212 -737 
Q 1344 -625 1503 -206 
L 1606 56 
L 191 3500 
L 800 3500 
L 1894 763 
L 2988 3500 
L 3597 3500 
L 2059 -325 
z
" transform="scale(0.015625)"/>
      <path id="DejaVuSans-43" d="M 4122 4306 
L 4122 3641 
Q 3803 3938 3442 4084 
Q 3081 4231 2675 4231 
Q 1875 4231 1450 3742 
Q 1025 3253 1025 2328 
Q 1025 1406 1450 917 
Q 1875 428 2675 428 
Q 3081 428 3442 575 
Q 3803 722 4122 1019 
L 4122 359 
Q 3791 134 3420 21 
Q 3050 -91 2638 -91 
Q 1578 -91 968 557 
Q 359 1206 359 2328 
Q 359 3453 968 4101 
Q 1578 4750 2638 4750 
Q 3056 4750 3426 4639 
Q 3797 4528 4122 4306 
z
" transform="scale(0.015625)"/>
      <path id="DejaVuSans-6c" d="M 603 4863 
L 1178 4863 
L 1178 0 
L 603 0 
L 603 4863 
z
" transform="scale(0.015625)"/>
      <path id="DejaVuSans-62" d="M 3116 1747 
Q 3116 2381 2855 2742 
Q 2594 3103 2138 3103 
Q 1681 3103 1420 2742 
Q 1159 2381 1159 1747 
Q 1159 1113 1420 752 
Q 1681 391 2138 391 
Q 2594 391 2855 752 
Q 3116 1113 3116 1747 
z
M 1159 2969 
Q 1341 3281 1617 3432 
Q 1894 3584 2278 3584 
Q 2916 3584 3314 3078 
Q 3713 2572 3713 1747 
Q 3713 922 3314 415 
Q 2916 -91 2278 -91 
Q 1894 -91 1617 61 
Q 1341 213 1159 525 
L 1159 0 
L 581 0 
L 581 4863 
L 1159 4863 
L 1159 2969 
z
" transform="scale(0.015625)"/>
     </defs>
     <use xlink:href="#DejaVuSans-55"/>
     <use xlink:href="#DejaVuSans-6e" x="73.193359"/>
     <use xlink:href="#DejaVuSans-63" x="136.572266"/>
     <use xlink:href="#DejaVuSans-65" x="191.552734"/>
     <use xlink:href="#DejaVuSans-72" x="253.076172"/>
     <use xlink:href="#DejaVuSans-74" x="294.189453"/>
     <use xlink:href="#DejaVuSans-61" x="333.398438"/>
     <use xlink:href="#DejaVuSans-69" x="394.677734"/>
     <use xlink:href="#DejaVuSans-6e" x="422.460938"/>
     <use xlink:href="#DejaVuSans-74" x="485.839844"/>
     <use xlink:href="#DejaVuSans-79" x="525.048828"/>
     <use xlink:href="#DejaVuSans-20" x="584.228516"/>
     <use xlink:href="#DejaVuSans-43" x="616.015625"/>
     <use xlink:href="#DejaVuSans-61" x="685.839844"/>
     <use xlink:href="#DejaVuSans-6c" x="747.119141"/>
     <use xlink:href="#DejaVuSans-69" x="774.902344"/>
     <use xlink:href="#DejaVuSans-62" x="802.685547"/>
     <use xlink:href="#DejaVuSans-72" x="866.162109"/>
     <use xlink:href="#DejaVuSans-61" x="907.275391"/>
     <use xlink:href="#DejaVuSans-74" x="968.554688"/>
     <use xlink:href="#DejaVuSans-69" x="1007.763672"/>
     <use xlink:href="#DejaVuSans-6f" x="1035.546875"/>
     <use xlink:href="#DejaVuSans-6e" x="1096.728516"/>
    </g>
   </g>
   <g id="legend_1">
    <g id="patch_7">
     <path d="M 51.66 62.79625 
L 162.370937 62.79625 
Q 164.370937 62.79625 164.370937 60.79625 
L 164.370937 32.44 
Q 164.370937 30.44 162.370937 30.44 
L 51.66 30.44 
Q 49.66 30.44 49.66 32.44 
L 49.66 60.79625 
Q 49.66 62.79625 51.66 62.79625 
z
" style="fill: #ffffff; opacity: 0.8; stroke: #cccccc; stroke-linejoin: miter"/>
    </g>
    <g id="PathCollection_2">
     <g>
      <use xlink:href="#m6383eaa2db" x="63.66" y="39.413437" style="fill: #1f77b4; stroke: #1f77b4"/>
     </g>
    </g>
    <g id="text_21">
     <!-- Data -->
     <g transform="translate(81.66 42.038437) scale(0.1 -0.1)">
      <defs>
       <path id="DejaVuSans-44" d="M 1259 4147 
L 1259 519 
L 2022 519 
Q 2988 519 3436 956 
Q 3884 1394 3884 2338 
Q 3884 3275 3436 3711 
Q 2988 4147 2022 4147 
L 1259 4147 
z
M 628 4666 
L 1925 4666 
Q 3281 4666 3915 4102 
Q 4550 3538 4550 2338 
Q 4550 1131 3912 565 
Q 3275 0 1925 0 
L 628 0 
L 628 4666 
z
" transform="scale(0.015625)"/>
      </defs>
      <use xlink:href="#DejaVuSans-44"/>
      <use xlink:href="#DejaVuSans-61" x="77.001953"/>
      <use xlink:href="#DejaVuSans-74" x="138.28125"/>
      <use xlink:href="#DejaVuSans-61" x="177.490234"/>
     </g>
    </g>
    <g id="line2d_19">
     <path d="M 53.66 53.216563 
L 63.66 53.216563 
L 73.66 53.216563 
" style="fill: none; stroke: #ff0000; stroke-width: 1.5; stroke-linecap: square"/>
    </g>
    <g id="text_22">
     <!-- Regression Line -->
     <g transform="translate(81.66 56.716563) scale(0.1 -0.1)">
      <defs>
       <path id="DejaVuSans-52" d="M 2841 2188 
Q 3044 2119 3236 1894 
Q 3428 1669 3622 1275 
L 4263 0 
L 3584 0 
L 2988 1197 
Q 2756 1666 2539 1819 
Q 2322 1972 1947 1972 
L 1259 1972 
L 1259 0 
L 628 0 
L 628 4666 
L 2053 4666 
Q 2853 4666 3247 4331 
Q 3641 3997 3641 3322 
Q 3641 2881 3436 2590 
Q 3231 2300 2841 2188 
z
M 1259 4147 
L 1259 2491 
L 2053 2491 
Q 2509 2491 2742 2702 
Q 2975 2913 2975 3322 
Q 2975 3731 2742 3939 
Q 2509 4147 2053 4147 
L 1259 4147 
z
" transform="scale(0.015625)"/>
       <path id="DejaVuSans-67" d="M 2906 1791 
Q 2906 2416 2648 2759 
Q 2391 3103 1925 3103 
Q 1463 3103 1205 2759 
Q 947 2416 947 1791 
Q 947 1169 1205 825 
Q 1463 481 1925 481 
Q 2391 481 2648 825 
Q 2906 1169 2906 1791 
z
M 3481 434 
Q 3481 -459 3084 -895 
Q 2688 -1331 1869 -1331 
Q 1566 -1331 1297 -1286 
Q 1028 -1241 775 -1147 
L 775 -588 
Q 1028 -725 1275 -790 
Q 1522 -856 1778 -856 
Q 2344 -856 2625 -561 
Q 2906 -266 2906 331 
L 2906 616 
Q 2728 306 2450 153 
Q 2172 0 1784 0 
Q 1141 0 747 490 
Q 353 981 353 1791 
Q 353 2603 747 3093 
Q 1141 3584 1784 3584 
Q 2172 3584 2450 3431 
Q 2728 3278 2906 2969 
L 2906 3500 
L 3481 3500 
L 3481 434 
z
" transform="scale(0.015625)"/>
       <path id="DejaVuSans-4c" d="M 628 4666 
L 1259 4666 
L 1259 531 
L 3531 531 
L 3531 0 
L 628 0 
L 628 4666 
z
" transform="scale(0.015625)"/>
      </defs>
      <use xlink:href="#DejaVuSans-52"/>
      <use xlink:href="#DejaVuSans-65" x="64.982422"/>
      <use xlink:href="#DejaVuSans-67" x="126.505859"/>
      <use xlink:href="#DejaVuSans-72" x="189.982422"/>
      <use xlink:href="#DejaVuSans-65" x="228.845703"/>
      <use xlink:href="#DejaVuSans-73" x="290.369141"/>
      <use xlink:href="#DejaVuSans-73" x="342.46875"/>
      <use xlink:href="#DejaVuSans-69" x="394.568359"/>
      <use xlink:href="#DejaVuSans-6f" x="422.351562"/>
      <use xlink:href="#DejaVuSans-6e" x="483.533203"/>
      <use xlink:href="#DejaVuSans-20" x="546.912109"/>
      <use xlink:href="#DejaVuSans-4c" x="578.699219"/>
      <use xlink:href="#DejaVuSans-69" x="634.412109"/>
      <use xlink:href="#DejaVuSans-6e" x="662.195312"/>
      <use xlink:href="#DejaVuSans-65" x="725.574219"/>
     </g>
    </g>
   </g>
  </g>
 </g>
 <defs>
  <clipPath id="pdc4a703938">
   <rect x="44.66" y="25.44" width="664.54" height="508.6"/>
  </clipPath>
 </defs>
</svg>
