<?xml version="1.0" encoding="utf-8" standalone="no"?>
<!DOCTYPE svg PUBLIC "-//W3C//DTD SVG 1.1//EN"
  "http://www.w3.org/Graphics/SVG/1.1/DTD/svg11.dtd">
<svg xmlns:xlink="http://www.w3.org/1999/xlink" width="720pt" height="576pt" viewBox="0 0 720 576" xmlns="http://www.w3.org/2000/svg" version="1.1">
 <metadata>
  <rdf:RDF xmlns:dc="http://purl.org/dc/elements/1.1/" xmlns:cc="http://creativecommons.org/ns#" xmlns:rdf="http://www.w3.org/1999/02/22-rdf-syntax-ns#">
   <cc:Work>
    <dc:type rdf:resource="http://purl.org/dc/dcmitype/StillImage"/>
    <dc:date>2024-11-29T16:36:53.150896</dc:date>
    <dc:format>image/svg+xml</dc:format>
    <dc:creator>
     <cc:Agent>
      <dc:title>Matplotlib v3.8.4, https://matplotlib.org/</dc:title>
     </cc:Agent>
    </dc:creator>
   </cc:Work>
  </rdf:RDF>
 </metadata>
 <defs>
  <style type="text/css">*{stroke-linejoin: round; stroke-linecap: butt}</style>
 </defs>
 <g id="figure_1">
  <g id="patch_1">
   <path d="M 0 576 
L 720 576 
L 720 0 
L 0 0 
z
" style="fill: #ffffff"/>
  </g>
  <g id="axes_1">
   <g id="patch_2">
    <path d="M 90 512.64 
L 648 512.64 
L 648 69.12 
L 90 69.12 
z
" style="fill: #ffffff"/>
   </g>
   <g id="QuadContourSet_1">
    <path d="M 112.432161 494.940482 
L 112.596743 494.81005 
L 112.432161 494.679382 
L 112.26801 494.81005 
z
M 115.236181 493.399845 
L 116.270416 492.581307 
L 115.236181 491.762281 
L 114.207148 492.581307 
z
M 118.040201 491.604705 
L 119.624989 490.352563 
L 120.844221 489.659164 
L 122.791407 488.123819 
L 123.648241 487.62214 
L 125.843581 485.895075 
L 126.452261 485.528273 
L 128.824684 483.666332 
L 129.256281 483.398601 
L 131.760621 481.437588 
L 132.060302 481.246195 
L 134.667165 479.208844 
L 134.864322 479.079214 
L 137.553911 476.980101 
L 137.668342 476.902668 
L 140.426617 474.751357 
L 140.472362 474.719517 
L 143.276382 472.643264 
L 143.428944 472.522613 
L 146.080402 470.828631 
L 146.756991 470.293869 
L 148.884422 468.878099 
L 149.913329 468.065126 
L 151.688442 466.842784 
L 152.962014 465.836382 
L 154.492462 464.753273 
L 155.941286 463.607638 
L 157.296482 462.627879 
L 158.874091 461.378894 
L 160.100503 460.477077 
L 161.773781 459.150151 
L 162.904523 458.306217 
L 164.647562 456.921407 
L 165.708543 456.117482 
L 167.49882 454.692663 
L 168.512563 453.911308 
L 170.328705 452.46392 
L 171.316583 451.687191 
L 173.136965 450.235176 
L 174.120603 449.443918 
L 175.922166 448.006432 
L 176.924623 447.179361 
L 178.681488 445.777688 
L 179.728643 444.890081 
L 181.410321 443.548945 
L 182.532663 442.570864 
L 184.101795 441.320201 
L 185.336683 440.214318 
L 186.74634 439.091457 
L 188.140704 437.810565 
L 189.331339 436.862714 
L 190.944724 435.347088 
L 191.840939 434.63397 
L 193.748744 432.808609 
L 194.255889 432.405226 
L 196.552764 430.176482 
L 196.552764 430.176482 
L 198.325259 427.947739 
L 196.552764 427.399963 
L 195.862808 427.947739 
L 193.748744 429.168412 
L 192.478343 430.176482 
L 190.944724 431.082295 
L 189.27642 432.405226 
L 188.140704 433.090781 
L 186.193158 434.63397 
L 185.336683 435.16211 
L 183.188772 436.862714 
L 182.532663 437.275901 
L 180.237903 439.091457 
L 179.728643 439.418851 
L 177.324177 441.320201 
L 176.924623 441.582266 
L 174.437038 443.548945 
L 174.120603 443.76055 
L 171.569758 445.777688 
L 171.316583 445.950214 
L 168.718085 448.006432 
L 168.512563 448.149137 
L 165.879238 450.235176 
L 165.708543 450.355997 
L 163.051182 452.46392 
L 162.904523 452.56984 
L 160.232186 454.692663 
L 160.100503 454.789823 
L 157.420621 456.921407 
L 157.296482 457.015096 
L 154.61497 459.150151 
L 154.492462 459.244824 
L 151.813929 461.378894 
L 151.688442 461.478264 
L 149.016528 463.607638 
L 148.884422 463.71488 
L 146.222236 465.836382 
L 146.080402 465.954452 
L 143.431029 468.065126 
L 143.276382 468.19719 
L 140.643464 470.293869 
L 140.472362 470.443857 
L 137.860772 472.522613 
L 137.668342 472.695919 
L 135.085009 474.751357 
L 134.864322 474.955774 
L 132.319326 476.980101 
L 132.060302 477.227113 
L 129.568427 479.208844 
L 129.256281 479.515534 
L 126.839341 481.437588 
L 126.452261 481.829563 
L 124.142729 483.666332 
L 123.648241 484.182419 
L 121.495105 485.895075 
L 120.844221 486.595121 
L 118.922756 488.123819 
L 118.040201 489.102169 
L 116.468888 490.352563 
z
M 120.290305 488.123819 
L 120.844221 487.683129 
L 121.405552 488.123819 
L 120.844221 488.566426 
z
M 122.506707 485.895075 
L 123.648241 484.987071 
L 124.812151 485.895075 
L 123.648241 486.810718 
z
M 124.913706 483.666332 
L 126.452261 482.44272 
L 127.44484 481.437588 
L 129.256281 479.997053 
L 130.058509 479.208844 
L 132.060302 477.616865 
L 132.72803 476.980101 
L 134.864322 475.280863 
L 135.435974 474.751357 
L 137.668342 472.975165 
L 138.170833 472.522613 
L 140.472362 470.690657 
L 140.925007 470.293869 
L 143.276382 468.421393 
L 143.693567 468.065126 
L 146.080402 466.163608 
L 146.473488 465.836382 
L 148.884422 463.915104 
L 149.263174 463.607638 
L 151.688442 461.674828 
L 152.062154 461.378894 
L 154.492462 459.442593 
L 154.870883 459.150151 
L 157.296482 457.218858 
L 157.690605 456.921407 
L 160.100503 455.004569 
L 160.523237 454.692663 
L 162.904523 452.801043 
L 163.371308 452.46392 
L 165.708543 450.609933 
L 166.237998 450.235176 
L 168.512563 448.433336 
L 169.127386 448.006432 
L 171.316583 446.274098 
L 172.045047 445.777688 
L 174.120603 444.136396 
L 174.999077 443.548945 
L 176.924623 442.026613 
L 178.001647 441.320201 
L 179.728643 439.954566 
L 181.071205 439.091457 
L 182.532663 437.935188 
L 184.235669 436.862714 
L 185.336683 435.990988 
L 187.211574 436.862714 
L 185.336683 438.539916 
L 184.87482 439.091457 
L 182.532663 441.111334 
L 182.346428 441.320201 
L 179.728643 443.513906 
L 179.69571 443.548945 
L 177.032127 445.777688 
L 176.924623 445.863457 
L 174.327215 448.006432 
L 174.120603 448.17129 
L 171.554922 450.235176 
L 171.316583 450.425285 
L 168.723756 452.46392 
L 168.512563 452.632232 
L 165.839327 454.692663 
L 165.708543 454.79675 
L 162.904523 456.921407 
L 162.904523 456.921407 
L 160.100503 459.125905 
L 160.071757 459.150151 
L 157.296482 461.330229 
L 157.237169 461.378894 
L 154.492462 463.533094 
L 154.399067 463.607638 
L 151.688442 465.732689 
L 151.554911 465.836382 
L 148.884422 467.927039 
L 148.701685 468.065126 
L 146.080402 470.114197 
L 145.836078 470.293869 
L 143.276382 472.292189 
L 142.954368 472.522613 
L 140.472362 474.458689 
L 140.051885 474.751357 
L 137.668342 476.610397 
L 137.121986 476.980101 
L 134.864322 478.742114 
L 134.154467 479.208844 
L 132.060302 480.845504 
L 131.133227 481.437588 
L 129.256281 482.907323 
L 128.032713 483.666332 
L 126.452261 484.906713 
z
M 187.53733 434.63397 
L 188.140704 434.155872 
L 189.241324 434.63397 
L 188.140704 435.665284 
z
" clip-path="url(#p29ceb93852)" style="fill: #eef5fc"/>
    <path d="M 120.844221 488.566426 
L 121.405552 488.123819 
L 120.844221 487.683129 
L 120.290305 488.123819 
z
M 123.648241 486.810718 
L 124.812151 485.895075 
L 123.648241 484.987071 
L 122.506707 485.895075 
z
M 126.452261 484.906713 
L 128.032713 483.666332 
L 129.256281 482.907323 
L 131.133227 481.437588 
L 132.060302 480.845504 
L 134.154467 479.208844 
L 134.864322 478.742114 
L 137.121986 476.980101 
L 137.668342 476.610397 
L 140.051885 474.751357 
L 140.472362 474.458689 
L 142.954368 472.522613 
L 143.276382 472.292189 
L 145.836078 470.293869 
L 146.080402 470.114197 
L 148.701685 468.065126 
L 148.884422 467.927039 
L 151.554911 465.836382 
L 151.688442 465.732689 
L 154.399067 463.607638 
L 154.492462 463.533094 
L 157.237169 461.378894 
L 157.296482 461.330229 
L 160.071757 459.150151 
L 160.100503 459.125905 
L 162.904523 456.921407 
L 162.904523 456.921407 
L 165.708543 454.79675 
L 165.839327 454.692663 
L 168.512563 452.632232 
L 168.723756 452.46392 
L 171.316583 450.425285 
L 171.554922 450.235176 
L 174.120603 448.17129 
L 174.327215 448.006432 
L 176.924623 445.863457 
L 177.032127 445.777688 
L 179.69571 443.548945 
L 179.728643 443.513906 
L 182.346428 441.320201 
L 182.532663 441.111334 
L 184.87482 439.091457 
L 185.336683 438.539916 
L 187.211574 436.862714 
L 185.336683 435.990988 
L 184.235669 436.862714 
L 182.532663 437.935188 
L 181.071205 439.091457 
L 179.728643 439.954566 
L 178.001647 441.320201 
L 176.924623 442.026613 
L 174.999077 443.548945 
L 174.120603 444.136396 
L 172.045047 445.777688 
L 171.316583 446.274098 
L 169.127386 448.006432 
L 168.512563 448.433336 
L 166.237998 450.235176 
L 165.708543 450.609933 
L 163.371308 452.46392 
L 162.904523 452.801043 
L 160.523237 454.692663 
L 160.100503 455.004569 
L 157.690605 456.921407 
L 157.296482 457.218858 
L 154.870883 459.150151 
L 154.492462 459.442593 
L 152.062154 461.378894 
L 151.688442 461.674828 
L 149.263174 463.607638 
L 148.884422 463.915104 
L 146.473488 465.836382 
L 146.080402 466.163608 
L 143.693567 468.065126 
L 143.276382 468.421393 
L 140.925007 470.293869 
L 140.472362 470.690657 
L 138.170833 472.522613 
L 137.668342 472.975165 
L 135.435974 474.751357 
L 134.864322 475.280863 
L 132.72803 476.980101 
L 132.060302 477.616865 
L 130.058509 479.208844 
L 129.256281 479.997053 
L 127.44484 481.437588 
L 126.452261 482.44272 
L 124.913706 483.666332 
z
M 128.653169 481.437588 
L 129.256281 480.957968 
L 129.881203 481.437588 
L 129.256281 481.92693 
z
M 131.036515 479.208844 
L 132.060302 478.394651 
L 133.131331 479.208844 
L 132.060302 480.045889 
z
M 133.543637 476.980101 
L 134.864322 475.929609 
L 136.136356 474.751357 
L 137.668342 473.532427 
L 138.789588 472.522613 
L 140.472362 471.18317 
L 141.486853 470.293869 
L 143.276382 468.868809 
L 144.217487 468.065126 
L 146.080402 466.580999 
L 146.974886 465.836382 
L 148.884422 464.314669 
L 149.755379 463.607638 
L 151.688442 462.067089 
L 152.55751 461.378894 
L 154.492462 459.837258 
L 155.381583 459.150151 
L 157.296482 457.625483 
L 158.229384 456.921407 
L 160.100503 455.433115 
L 161.104057 454.692663 
L 162.904523 453.262429 
L 164.01015 452.46392 
L 165.708543 451.116688 
L 166.953938 450.235176 
L 168.512563 449.000481 
L 169.944185 448.006432 
L 171.316583 446.920439 
L 172.993531 445.777688 
L 174.120603 444.886431 
L 175.666318 445.777688 
L 174.120603 447.024944 
L 173.118042 448.006432 
L 171.316583 449.444117 
L 170.480761 450.235176 
L 168.512563 451.794772 
L 167.783532 452.46392 
L 165.708543 454.101148 
L 165.045233 454.692663 
L 162.904523 456.377793 
L 162.27763 456.921407 
L 160.100503 458.633047 
L 159.487435 459.150151 
L 157.296482 460.871223 
L 156.677731 461.378894 
L 154.492462 463.094016 
L 153.848949 463.607638 
L 151.688442 465.301412 
L 150.999534 465.836382 
L 148.884422 467.492249 
L 148.126302 468.065126 
L 146.080402 469.664417 
L 145.224456 470.293869 
L 143.276382 471.814703 
L 142.287092 472.522613 
L 140.472362 473.938184 
L 139.304073 474.751357 
L 137.668342 476.027142 
L 136.26004 476.980101 
L 134.864322 478.069401 
z
M 176.120681 443.548945 
L 176.924623 442.91335 
L 178.081591 443.548945 
L 176.924623 444.497523 
z
M 179.353601 441.320201 
L 179.728643 441.023634 
L 180.297133 441.320201 
L 179.728643 441.796595 
z
M 188.140704 435.665284 
L 189.241324 434.63397 
L 188.140704 434.155872 
L 187.53733 434.63397 
z
" clip-path="url(#p29ceb93852)" style="fill: #d3e3f3"/>
    <path d="M 129.256281 481.92693 
L 129.881203 481.437588 
L 129.256281 480.957968 
L 128.653169 481.437588 
z
M 132.060302 480.045889 
L 133.131331 479.208844 
L 132.060302 478.394651 
L 131.036515 479.208844 
z
M 134.864322 478.069401 
L 136.26004 476.980101 
L 137.668342 476.027142 
L 139.304073 474.751357 
L 140.472362 473.938184 
L 142.287092 472.522613 
L 143.276382 471.814703 
L 145.224456 470.293869 
L 146.080402 469.664417 
L 148.126302 468.065126 
L 148.884422 467.492249 
L 150.999534 465.836382 
L 151.688442 465.301412 
L 153.848949 463.607638 
L 154.492462 463.094016 
L 156.677731 461.378894 
L 157.296482 460.871223 
L 159.487435 459.150151 
L 160.100503 458.633047 
L 162.27763 456.921407 
L 162.904523 456.377793 
L 165.045233 454.692663 
L 165.708543 454.101148 
L 167.783532 452.46392 
L 168.512563 451.794772 
L 170.480761 450.235176 
L 171.316583 449.444117 
L 173.118042 448.006432 
L 174.120603 447.024944 
L 175.666318 445.777688 
L 174.120603 444.886431 
L 172.993531 445.777688 
L 171.316583 446.920439 
L 169.944185 448.006432 
L 168.512563 449.000481 
L 166.953938 450.235176 
L 165.708543 451.116688 
L 164.01015 452.46392 
L 162.904523 453.262429 
L 161.104057 454.692663 
L 160.100503 455.433115 
L 158.229384 456.921407 
L 157.296482 457.625483 
L 155.381583 459.150151 
L 154.492462 459.837258 
L 152.55751 461.378894 
L 151.688442 462.067089 
L 149.755379 463.607638 
L 148.884422 464.314669 
L 146.974886 465.836382 
L 146.080402 466.580999 
L 144.217487 468.065126 
L 143.276382 468.868809 
L 141.486853 470.293869 
L 140.472362 471.18317 
L 138.789588 472.522613 
L 137.668342 473.532427 
L 136.136356 474.751357 
L 134.864322 475.929609 
L 133.543637 476.980101 
z
M 134.512814 476.980101 
L 134.864322 476.700506 
L 135.235801 476.980101 
L 134.864322 477.270024 
z
M 136.968613 474.751357 
L 137.668342 474.194615 
L 138.415456 474.751357 
L 137.668342 475.334067 
z
M 139.524848 472.522613 
L 140.472362 471.768418 
L 141.494176 472.522613 
L 140.472362 473.319674 
z
M 142.154488 470.293869 
L 143.276382 469.400468 
L 144.497671 470.293869 
L 143.276382 471.247313 
z
M 144.840055 468.065126 
L 146.080402 467.07698 
L 147.442582 468.065126 
L 146.080402 469.129949 
z
M 147.570691 465.836382 
L 148.884422 464.789467 
L 150.339586 465.836382 
L 148.884422 466.975592 
z
M 150.34026 463.607638 
L 151.688442 462.533209 
L 153.146136 461.378894 
L 154.492462 460.306235 
L 155.988441 459.150151 
L 157.296482 458.108672 
L 158.793092 459.150151 
L 157.296482 460.325791 
L 156.012956 461.378894 
L 154.492462 462.572263 
L 153.195251 463.607638 
L 151.688442 464.788932 
z
M 158.869609 456.921407 
L 160.100503 455.942352 
L 161.5327 456.921407 
L 160.100503 458.047389 
z
M 161.79424 454.692663 
L 162.904523 453.810688 
L 164.224623 454.692663 
L 162.904523 455.731823 
z
M 164.769279 452.46392 
L 165.708543 451.718858 
L 166.856077 452.46392 
L 165.708543 453.369358 
z
M 167.804681 450.235176 
L 168.512563 449.674414 
L 169.406461 450.235176 
L 168.512563 450.943499 
z
M 170.914776 448.006432 
L 171.316583 447.688478 
L 171.844009 448.006432 
L 171.316583 448.427353 
z
M 176.924623 444.497523 
L 178.081591 443.548945 
L 176.924623 442.91335 
L 176.120681 443.548945 
z
M 179.728643 441.796595 
L 180.297133 441.320201 
L 179.728643 441.023634 
L 179.353601 441.320201 
z
" clip-path="url(#p29ceb93852)" style="fill: #9ac8e0"/>
    <path d="M 134.864322 477.270024 
L 135.235801 476.980101 
L 134.864322 476.700506 
L 134.512814 476.980101 
z
M 137.668342 475.334067 
L 138.415456 474.751357 
L 137.668342 474.194615 
L 136.968613 474.751357 
z
M 137.661113 474.751357 
L 137.668342 474.745606 
L 137.67606 474.751357 
L 137.668342 474.757376 
z
M 140.472362 473.319674 
L 141.494176 472.522613 
L 140.472362 471.768418 
L 139.524848 472.522613 
z
M 140.13664 472.522613 
L 140.472362 472.255387 
L 140.83441 472.522613 
L 140.472362 472.805027 
z
M 143.276382 471.247313 
L 144.497671 470.293869 
L 143.276382 469.400468 
L 142.154488 470.293869 
z
M 142.71001 470.293869 
L 143.276382 469.842849 
L 143.892932 470.293869 
L 143.276382 470.775201 
z
M 146.080402 469.129949 
L 147.442582 468.065126 
L 146.080402 467.07698 
L 144.840055 468.065126 
z
M 145.358079 468.065126 
L 146.080402 467.489673 
L 146.873675 468.065126 
L 146.080402 468.685232 
z
M 148.884422 466.975592 
L 150.339586 465.836382 
L 148.884422 464.789467 
L 147.570691 465.836382 
z
M 148.066446 465.836382 
L 148.884422 465.184535 
L 149.790459 465.836382 
L 148.884422 466.545695 
z
M 151.688442 464.788932 
L 153.195251 463.607638 
L 154.492462 462.572263 
L 156.012956 461.378894 
L 157.296482 460.325791 
L 158.793092 459.150151 
L 157.296482 458.108672 
L 155.988441 459.150151 
L 154.492462 460.306235 
L 153.146136 461.378894 
L 151.688442 462.533209 
L 150.34026 463.607638 
z
M 150.826926 463.607638 
L 151.688442 462.921055 
L 152.651325 463.607638 
L 151.688442 464.36251 
z
M 153.635918 461.378894 
L 154.492462 460.696459 
L 155.459814 461.378894 
L 154.492462 462.138126 
z
M 156.493393 459.150151 
L 157.296482 458.510721 
L 158.215346 459.150151 
L 157.296482 459.871951 
z
M 160.100503 458.047389 
L 161.5327 456.921407 
L 160.100503 455.942352 
L 158.869609 456.921407 
z
M 159.402324 456.921407 
L 160.100503 456.366075 
L 160.912863 456.921407 
L 160.100503 457.560078 
z
M 162.904523 455.731823 
L 164.224623 454.692663 
L 162.904523 453.810688 
L 161.79424 454.692663 
z
M 162.368523 454.692663 
L 162.904523 454.266882 
L 163.541814 454.692663 
L 162.904523 455.194327 
z
M 165.708543 453.369358 
L 166.856077 452.46392 
L 165.708543 451.718858 
L 164.769279 452.46392 
z
M 165.400931 452.46392 
L 165.708543 452.21991 
L 166.084364 452.46392 
L 165.708543 452.760454 
z
M 168.512563 450.943499 
L 169.406461 450.235176 
L 168.512563 449.674414 
L 167.804681 450.235176 
z
M 171.316583 448.427353 
L 171.844009 448.006432 
L 171.316583 447.688478 
L 170.914776 448.006432 
z
" clip-path="url(#p29ceb93852)" style="fill: #4e9acb"/>
    <path d="M 137.668342 474.757376 
L 137.67606 474.751357 
L 137.668342 474.745606 
L 137.661113 474.751357 
z
M 140.472362 472.805027 
L 140.83441 472.522613 
L 140.472362 472.255387 
L 140.13664 472.522613 
z
M 143.276382 470.775201 
L 143.892932 470.293869 
L 143.276382 469.842849 
L 142.71001 470.293869 
z
M 143.014854 470.293869 
L 143.276382 470.085606 
L 143.56108 470.293869 
L 143.276382 470.516129 
z
M 146.080402 468.685232 
L 146.873675 468.065126 
L 146.080402 467.489673 
L 145.358079 468.065126 
z
M 145.642346 468.065126 
L 146.080402 467.71614 
L 146.561487 468.065126 
L 146.080402 468.441192 
z
M 148.884422 466.545695 
L 149.790459 465.836382 
L 148.884422 465.184535 
L 148.066446 465.836382 
z
M 148.338493 465.836382 
L 148.884422 465.40133 
L 149.489125 465.836382 
L 148.884422 466.309788 
z
M 151.688442 464.36251 
L 152.651325 463.607638 
L 151.688442 462.921055 
L 150.826926 463.607638 
z
M 151.093984 463.607638 
L 151.688442 463.133887 
L 152.352844 463.607638 
L 151.688442 464.12851 
z
M 154.492462 462.138126 
L 155.459814 461.378894 
L 154.492462 460.696459 
L 153.635918 461.378894 
z
M 153.904687 461.378894 
L 154.492462 460.910595 
L 155.156276 461.378894 
L 154.492462 461.899893 
z
M 157.296482 459.871951 
L 158.215346 459.150151 
L 157.296482 458.510721 
L 156.493393 459.150151 
z
M 156.770486 459.150151 
L 157.296482 458.731346 
L 157.898307 459.150151 
L 157.296482 459.622905 
z
M 160.100503 457.560078 
L 160.912863 456.921407 
L 160.100503 456.366075 
L 159.402324 456.921407 
z
M 159.694653 456.921407 
L 160.100503 456.598593 
L 160.572726 456.921407 
L 160.100503 457.292665 
z
M 162.904523 455.194327 
L 163.541814 454.692663 
L 162.904523 454.266882 
L 162.368523 454.692663 
z
M 162.683662 454.692663 
L 162.904523 454.517219 
L 163.16712 454.692663 
L 162.904523 454.899376 
z
M 165.708543 452.760454 
L 166.084364 452.46392 
L 165.708543 452.21991 
L 165.400931 452.46392 
z
" clip-path="url(#p29ceb93852)" style="fill: #2676b8"/>
    <path d="M 143.276382 470.516129 
L 143.56108 470.293869 
L 143.276382 470.085606 
L 143.014854 470.293869 
z
M 146.080402 468.441192 
L 146.561487 468.065126 
L 146.080402 467.71614 
L 145.642346 468.065126 
z
M 145.88622 468.065126 
L 146.080402 467.910427 
L 146.293658 468.065126 
L 146.080402 468.231829 
z
M 148.884422 466.309788 
L 149.489125 465.836382 
L 148.884422 465.40133 
L 148.338493 465.836382 
z
M 148.571884 465.836382 
L 148.884422 465.587319 
L 149.230608 465.836382 
L 148.884422 466.107402 
z
M 151.688442 464.12851 
L 152.352844 463.607638 
L 151.688442 463.133887 
L 151.093984 463.607638 
z
M 151.323096 463.607638 
L 151.688442 463.316477 
L 152.096775 463.607638 
L 151.688442 463.927759 
z
M 154.492462 461.899893 
L 155.156276 461.378894 
L 154.492462 460.910595 
L 153.904687 461.378894 
z
M 154.135265 461.378894 
L 154.492462 461.094304 
L 154.895869 461.378894 
L 154.492462 461.69551 
z
M 157.296482 459.622905 
L 157.898307 459.150151 
L 157.296482 458.731346 
L 156.770486 459.150151 
z
M 157.008207 459.150151 
L 157.296482 458.920622 
L 157.626316 459.150151 
L 157.296482 459.409247 
z
M 160.100503 457.292665 
L 160.572726 456.921407 
L 160.100503 456.598593 
L 159.694653 456.921407 
z
M 159.945444 456.921407 
L 160.100503 456.798073 
L 160.28092 456.921407 
L 160.100503 457.06325 
z
M 162.904523 454.899376 
L 163.16712 454.692663 
L 162.904523 454.517219 
L 162.683662 454.692663 
z
" clip-path="url(#p29ceb93852)" style="fill: #125ea6"/>
    <path d="M 146.080402 468.231829 
L 146.293658 468.065126 
L 146.080402 467.910427 
L 145.88622 468.065126 
z
M 148.884422 466.107402 
L 149.230608 465.836382 
L 148.884422 465.587319 
L 148.571884 465.836382 
z
M 148.757718 465.836382 
L 148.884422 465.735411 
L 149.024767 465.836382 
L 148.884422 465.946254 
z
M 151.688442 463.927759 
L 152.096775 463.607638 
L 151.688442 463.316477 
L 151.323096 463.607638 
z
M 151.505523 463.607638 
L 151.688442 463.461861 
L 151.892883 463.607638 
L 151.688442 463.767914 
z
M 154.492462 461.69551 
L 154.895869 461.378894 
L 154.492462 461.094304 
L 154.135265 461.378894 
z
M 154.31886 461.378894 
L 154.492462 461.24058 
L 154.688522 461.378894 
L 154.492462 461.532773 
z
M 157.296482 459.409247 
L 157.626316 459.150151 
L 157.296482 458.920622 
L 157.008207 459.150151 
z
M 157.197489 459.150151 
L 157.296482 459.071331 
L 157.409747 459.150151 
L 157.296482 459.239124 
z
M 160.100503 457.06325 
L 160.28092 456.921407 
L 160.100503 456.798073 
L 159.945444 456.921407 
z
" clip-path="url(#p29ceb93852)" style="fill: #084b93"/>
    <path d="M 148.884422 465.946254 
L 149.024767 465.836382 
L 148.884422 465.735411 
L 148.757718 465.836382 
z
M 151.688442 463.767914 
L 151.892883 463.607638 
L 151.688442 463.461861 
L 151.505523 463.607638 
z
M 151.629904 463.607638 
L 151.688442 463.560986 
L 151.753868 463.607638 
L 151.688442 463.65893 
z
M 154.492462 461.532773 
L 154.688522 461.378894 
L 154.492462 461.24058 
L 154.31886 461.378894 
z
M 154.444038 461.378894 
L 154.492462 461.340313 
L 154.547151 461.378894 
L 154.492462 461.421818 
z
M 157.296482 459.239124 
L 157.409747 459.150151 
L 157.296482 459.071331 
L 157.197489 459.150151 
z
" clip-path="url(#p29ceb93852)" style="fill: #083b7c"/>
    <path d="M 151.688442 463.65893 
L 151.753868 463.607638 
L 151.688442 463.560986 
L 151.629904 463.607638 
z
M 154.492462 461.421818 
L 154.547151 461.378894 
L 154.492462 461.340313 
L 154.444038 461.378894 
z
" clip-path="url(#p29ceb93852)" style="fill: #08326e"/>
   </g>
   <g id="matplotlib.axis_1">
    <g id="xtick_1">
     <g id="line2d_1">
      <defs>
       <path id="mee88be40a4" d="M 0 0 
L 0 3.5 
" style="stroke: #000000; stroke-width: 0.8"/>
      </defs>
      <g>
       <use xlink:href="#mee88be40a4" x="153.871555" y="512.64" style="stroke: #000000; stroke-width: 0.8"/>
      </g>
     </g>
     <g id="text_1">
      <!-- 0 -->
      <g transform="translate(150.690305 527.238438) scale(0.1 -0.1)">
       <defs>
        <path id="DejaVuSans-30" d="M 2034 4250 
Q 1547 4250 1301 3770 
Q 1056 3291 1056 2328 
Q 1056 1369 1301 889 
Q 1547 409 2034 409 
Q 2525 409 2770 889 
Q 3016 1369 3016 2328 
Q 3016 3291 2770 3770 
Q 2525 4250 2034 4250 
z
M 2034 4750 
Q 2819 4750 3233 4129 
Q 3647 3509 3647 2328 
Q 3647 1150 3233 529 
Q 2819 -91 2034 -91 
Q 1250 -91 836 529 
Q 422 1150 422 2328 
Q 422 3509 836 4129 
Q 1250 4750 2034 4750 
z
" transform="scale(0.015625)"/>
       </defs>
       <use xlink:href="#DejaVuSans-30"/>
      </g>
     </g>
    </g>
    <g id="xtick_2">
     <g id="line2d_2">
      <g>
       <use xlink:href="#mee88be40a4" x="235.836904" y="512.64" style="stroke: #000000; stroke-width: 0.8"/>
      </g>
     </g>
     <g id="text_2">
      <!-- 100 -->
      <g transform="translate(226.293154 527.238438) scale(0.1 -0.1)">
       <defs>
        <path id="DejaVuSans-31" d="M 794 531 
L 1825 531 
L 1825 4091 
L 703 3866 
L 703 4441 
L 1819 4666 
L 2450 4666 
L 2450 531 
L 3481 531 
L 3481 0 
L 794 0 
L 794 531 
z
" transform="scale(0.015625)"/>
       </defs>
       <use xlink:href="#DejaVuSans-31"/>
       <use xlink:href="#DejaVuSans-30" x="63.623047"/>
       <use xlink:href="#DejaVuSans-30" x="127.246094"/>
      </g>
     </g>
    </g>
    <g id="xtick_3">
     <g id="line2d_3">
      <g>
       <use xlink:href="#mee88be40a4" x="317.802253" y="512.64" style="stroke: #000000; stroke-width: 0.8"/>
      </g>
     </g>
     <g id="text_3">
      <!-- 200 -->
      <g transform="translate(308.258503 527.238438) scale(0.1 -0.1)">
       <defs>
        <path id="DejaVuSans-32" d="M 1228 531 
L 3431 531 
L 3431 0 
L 469 0 
L 469 531 
Q 828 903 1448 1529 
Q 2069 2156 2228 2338 
Q 2531 2678 2651 2914 
Q 2772 3150 2772 3378 
Q 2772 3750 2511 3984 
Q 2250 4219 1831 4219 
Q 1534 4219 1204 4116 
Q 875 4013 500 3803 
L 500 4441 
Q 881 4594 1212 4672 
Q 1544 4750 1819 4750 
Q 2544 4750 2975 4387 
Q 3406 4025 3406 3419 
Q 3406 3131 3298 2873 
Q 3191 2616 2906 2266 
Q 2828 2175 2409 1742 
Q 1991 1309 1228 531 
z
" transform="scale(0.015625)"/>
       </defs>
       <use xlink:href="#DejaVuSans-32"/>
       <use xlink:href="#DejaVuSans-30" x="63.623047"/>
       <use xlink:href="#DejaVuSans-30" x="127.246094"/>
      </g>
     </g>
    </g>
    <g id="xtick_4">
     <g id="line2d_4">
      <g>
       <use xlink:href="#mee88be40a4" x="399.767603" y="512.64" style="stroke: #000000; stroke-width: 0.8"/>
      </g>
     </g>
     <g id="text_4">
      <!-- 300 -->
      <g transform="translate(390.223853 527.238438) scale(0.1 -0.1)">
       <defs>
        <path id="DejaVuSans-33" d="M 2597 2516 
Q 3050 2419 3304 2112 
Q 3559 1806 3559 1356 
Q 3559 666 3084 287 
Q 2609 -91 1734 -91 
Q 1441 -91 1130 -33 
Q 819 25 488 141 
L 488 750 
Q 750 597 1062 519 
Q 1375 441 1716 441 
Q 2309 441 2620 675 
Q 2931 909 2931 1356 
Q 2931 1769 2642 2001 
Q 2353 2234 1838 2234 
L 1294 2234 
L 1294 2753 
L 1863 2753 
Q 2328 2753 2575 2939 
Q 2822 3125 2822 3475 
Q 2822 3834 2567 4026 
Q 2313 4219 1838 4219 
Q 1578 4219 1281 4162 
Q 984 4106 628 3988 
L 628 4550 
Q 988 4650 1302 4700 
Q 1616 4750 1894 4750 
Q 2613 4750 3031 4423 
Q 3450 4097 3450 3541 
Q 3450 3153 3228 2886 
Q 3006 2619 2597 2516 
z
" transform="scale(0.015625)"/>
       </defs>
       <use xlink:href="#DejaVuSans-33"/>
       <use xlink:href="#DejaVuSans-30" x="63.623047"/>
       <use xlink:href="#DejaVuSans-30" x="127.246094"/>
      </g>
     </g>
    </g>
    <g id="xtick_5">
     <g id="line2d_5">
      <g>
       <use xlink:href="#mee88be40a4" x="481.732952" y="512.64" style="stroke: #000000; stroke-width: 0.8"/>
      </g>
     </g>
     <g id="text_5">
      <!-- 400 -->
      <g transform="translate(472.189202 527.238438) scale(0.1 -0.1)">
       <defs>
        <path id="DejaVuSans-34" d="M 2419 4116 
L 825 1625 
L 2419 1625 
L 2419 4116 
z
M 2253 4666 
L 3047 4666 
L 3047 1625 
L 3713 1625 
L 3713 1100 
L 3047 1100 
L 3047 0 
L 2419 0 
L 2419 1100 
L 313 1100 
L 313 1709 
L 2253 4666 
z
" transform="scale(0.015625)"/>
       </defs>
       <use xlink:href="#DejaVuSans-34"/>
       <use xlink:href="#DejaVuSans-30" x="63.623047"/>
       <use xlink:href="#DejaVuSans-30" x="127.246094"/>
      </g>
     </g>
    </g>
    <g id="xtick_6">
     <g id="line2d_6">
      <g>
       <use xlink:href="#mee88be40a4" x="563.698301" y="512.64" style="stroke: #000000; stroke-width: 0.8"/>
      </g>
     </g>
     <g id="text_6">
      <!-- 500 -->
      <g transform="translate(554.154551 527.238438) scale(0.1 -0.1)">
       <defs>
        <path id="DejaVuSans-35" d="M 691 4666 
L 3169 4666 
L 3169 4134 
L 1269 4134 
L 1269 2991 
Q 1406 3038 1543 3061 
Q 1681 3084 1819 3084 
Q 2600 3084 3056 2656 
Q 3513 2228 3513 1497 
Q 3513 744 3044 326 
Q 2575 -91 1722 -91 
Q 1428 -91 1123 -41 
Q 819 9 494 109 
L 494 744 
Q 775 591 1075 516 
Q 1375 441 1709 441 
Q 2250 441 2565 725 
Q 2881 1009 2881 1497 
Q 2881 1984 2565 2268 
Q 2250 2553 1709 2553 
Q 1456 2553 1204 2497 
Q 953 2441 691 2322 
L 691 4666 
z
" transform="scale(0.015625)"/>
       </defs>
       <use xlink:href="#DejaVuSans-35"/>
       <use xlink:href="#DejaVuSans-30" x="63.623047"/>
       <use xlink:href="#DejaVuSans-30" x="127.246094"/>
      </g>
     </g>
    </g>
    <g id="xtick_7">
     <g id="line2d_7">
      <g>
       <use xlink:href="#mee88be40a4" x="645.66365" y="512.64" style="stroke: #000000; stroke-width: 0.8"/>
      </g>
     </g>
     <g id="text_7">
      <!-- 600 -->
      <g transform="translate(636.1199 527.238438) scale(0.1 -0.1)">
       <defs>
        <path id="DejaVuSans-36" d="M 2113 2584 
Q 1688 2584 1439 2293 
Q 1191 2003 1191 1497 
Q 1191 994 1439 701 
Q 1688 409 2113 409 
Q 2538 409 2786 701 
Q 3034 994 3034 1497 
Q 3034 2003 2786 2293 
Q 2538 2584 2113 2584 
z
M 3366 4563 
L 3366 3988 
Q 3128 4100 2886 4159 
Q 2644 4219 2406 4219 
Q 1781 4219 1451 3797 
Q 1122 3375 1075 2522 
Q 1259 2794 1537 2939 
Q 1816 3084 2150 3084 
Q 2853 3084 3261 2657 
Q 3669 2231 3669 1497 
Q 3669 778 3244 343 
Q 2819 -91 2113 -91 
Q 1303 -91 875 529 
Q 447 1150 447 2328 
Q 447 3434 972 4092 
Q 1497 4750 2381 4750 
Q 2619 4750 2861 4703 
Q 3103 4656 3366 4563 
z
" transform="scale(0.015625)"/>
       </defs>
       <use xlink:href="#DejaVuSans-36"/>
       <use xlink:href="#DejaVuSans-30" x="63.623047"/>
       <use xlink:href="#DejaVuSans-30" x="127.246094"/>
      </g>
     </g>
    </g>
    <g id="text_8">
     <!-- Ground Truth Energy -->
     <g transform="translate(317.257812 540.916563) scale(0.1 -0.1)">
      <defs>
       <path id="DejaVuSans-47" d="M 3809 666 
L 3809 1919 
L 2778 1919 
L 2778 2438 
L 4434 2438 
L 4434 434 
Q 4069 175 3628 42 
Q 3188 -91 2688 -91 
Q 1594 -91 976 548 
Q 359 1188 359 2328 
Q 359 3472 976 4111 
Q 1594 4750 2688 4750 
Q 3144 4750 3555 4637 
Q 3966 4525 4313 4306 
L 4313 3634 
Q 3963 3931 3569 4081 
Q 3175 4231 2741 4231 
Q 1884 4231 1454 3753 
Q 1025 3275 1025 2328 
Q 1025 1384 1454 906 
Q 1884 428 2741 428 
Q 3075 428 3337 486 
Q 3600 544 3809 666 
z
" transform="scale(0.015625)"/>
       <path id="DejaVuSans-72" d="M 2631 2963 
Q 2534 3019 2420 3045 
Q 2306 3072 2169 3072 
Q 1681 3072 1420 2755 
Q 1159 2438 1159 1844 
L 1159 0 
L 581 0 
L 581 3500 
L 1159 3500 
L 1159 2956 
Q 1341 3275 1631 3429 
Q 1922 3584 2338 3584 
Q 2397 3584 2469 3576 
Q 2541 3569 2628 3553 
L 2631 2963 
z
" transform="scale(0.015625)"/>
       <path id="DejaVuSans-6f" d="M 1959 3097 
Q 1497 3097 1228 2736 
Q 959 2375 959 1747 
Q 959 1119 1226 758 
Q 1494 397 1959 397 
Q 2419 397 2687 759 
Q 2956 1122 2956 1747 
Q 2956 2369 2687 2733 
Q 2419 3097 1959 3097 
z
M 1959 3584 
Q 2709 3584 3137 3096 
Q 3566 2609 3566 1747 
Q 3566 888 3137 398 
Q 2709 -91 1959 -91 
Q 1206 -91 779 398 
Q 353 888 353 1747 
Q 353 2609 779 3096 
Q 1206 3584 1959 3584 
z
" transform="scale(0.015625)"/>
       <path id="DejaVuSans-75" d="M 544 1381 
L 544 3500 
L 1119 3500 
L 1119 1403 
Q 1119 906 1312 657 
Q 1506 409 1894 409 
Q 2359 409 2629 706 
Q 2900 1003 2900 1516 
L 2900 3500 
L 3475 3500 
L 3475 0 
L 2900 0 
L 2900 538 
Q 2691 219 2414 64 
Q 2138 -91 1772 -91 
Q 1169 -91 856 284 
Q 544 659 544 1381 
z
M 1991 3584 
L 1991 3584 
z
" transform="scale(0.015625)"/>
       <path id="DejaVuSans-6e" d="M 3513 2113 
L 3513 0 
L 2938 0 
L 2938 2094 
Q 2938 2591 2744 2837 
Q 2550 3084 2163 3084 
Q 1697 3084 1428 2787 
Q 1159 2491 1159 1978 
L 1159 0 
L 581 0 
L 581 3500 
L 1159 3500 
L 1159 2956 
Q 1366 3272 1645 3428 
Q 1925 3584 2291 3584 
Q 2894 3584 3203 3211 
Q 3513 2838 3513 2113 
z
" transform="scale(0.015625)"/>
       <path id="DejaVuSans-64" d="M 2906 2969 
L 2906 4863 
L 3481 4863 
L 3481 0 
L 2906 0 
L 2906 525 
Q 2725 213 2448 61 
Q 2172 -91 1784 -91 
Q 1150 -91 751 415 
Q 353 922 353 1747 
Q 353 2572 751 3078 
Q 1150 3584 1784 3584 
Q 2172 3584 2448 3432 
Q 2725 3281 2906 2969 
z
M 947 1747 
Q 947 1113 1208 752 
Q 1469 391 1925 391 
Q 2381 391 2643 752 
Q 2906 1113 2906 1747 
Q 2906 2381 2643 2742 
Q 2381 3103 1925 3103 
Q 1469 3103 1208 2742 
Q 947 2381 947 1747 
z
" transform="scale(0.015625)"/>
       <path id="DejaVuSans-20" transform="scale(0.015625)"/>
       <path id="DejaVuSans-54" d="M -19 4666 
L 3928 4666 
L 3928 4134 
L 2272 4134 
L 2272 0 
L 1638 0 
L 1638 4134 
L -19 4134 
L -19 4666 
z
" transform="scale(0.015625)"/>
       <path id="DejaVuSans-74" d="M 1172 4494 
L 1172 3500 
L 2356 3500 
L 2356 3053 
L 1172 3053 
L 1172 1153 
Q 1172 725 1289 603 
Q 1406 481 1766 481 
L 2356 481 
L 2356 0 
L 1766 0 
Q 1100 0 847 248 
Q 594 497 594 1153 
L 594 3053 
L 172 3053 
L 172 3500 
L 594 3500 
L 594 4494 
L 1172 4494 
z
" transform="scale(0.015625)"/>
       <path id="DejaVuSans-68" d="M 3513 2113 
L 3513 0 
L 2938 0 
L 2938 2094 
Q 2938 2591 2744 2837 
Q 2550 3084 2163 3084 
Q 1697 3084 1428 2787 
Q 1159 2491 1159 1978 
L 1159 0 
L 581 0 
L 581 4863 
L 1159 4863 
L 1159 2956 
Q 1366 3272 1645 3428 
Q 1925 3584 2291 3584 
Q 2894 3584 3203 3211 
Q 3513 2838 3513 2113 
z
" transform="scale(0.015625)"/>
       <path id="DejaVuSans-45" d="M 628 4666 
L 3578 4666 
L 3578 4134 
L 1259 4134 
L 1259 2753 
L 3481 2753 
L 3481 2222 
L 1259 2222 
L 1259 531 
L 3634 531 
L 3634 0 
L 628 0 
L 628 4666 
z
" transform="scale(0.015625)"/>
       <path id="DejaVuSans-65" d="M 3597 1894 
L 3597 1613 
L 953 1613 
Q 991 1019 1311 708 
Q 1631 397 2203 397 
Q 2534 397 2845 478 
Q 3156 559 3463 722 
L 3463 178 
Q 3153 47 2828 -22 
Q 2503 -91 2169 -91 
Q 1331 -91 842 396 
Q 353 884 353 1716 
Q 353 2575 817 3079 
Q 1281 3584 2069 3584 
Q 2775 3584 3186 3129 
Q 3597 2675 3597 1894 
z
M 3022 2063 
Q 3016 2534 2758 2815 
Q 2500 3097 2075 3097 
Q 1594 3097 1305 2825 
Q 1016 2553 972 2059 
L 3022 2063 
z
" transform="scale(0.015625)"/>
       <path id="DejaVuSans-67" d="M 2906 1791 
Q 2906 2416 2648 2759 
Q 2391 3103 1925 3103 
Q 1463 3103 1205 2759 
Q 947 2416 947 1791 
Q 947 1169 1205 825 
Q 1463 481 1925 481 
Q 2391 481 2648 825 
Q 2906 1169 2906 1791 
z
M 3481 434 
Q 3481 -459 3084 -895 
Q 2688 -1331 1869 -1331 
Q 1566 -1331 1297 -1286 
Q 1028 -1241 775 -1147 
L 775 -588 
Q 1028 -725 1275 -790 
Q 1522 -856 1778 -856 
Q 2344 -856 2625 -561 
Q 2906 -266 2906 331 
L 2906 616 
Q 2728 306 2450 153 
Q 2172 0 1784 0 
Q 1141 0 747 490 
Q 353 981 353 1791 
Q 353 2603 747 3093 
Q 1141 3584 1784 3584 
Q 2172 3584 2450 3431 
Q 2728 3278 2906 2969 
L 2906 3500 
L 3481 3500 
L 3481 434 
z
" transform="scale(0.015625)"/>
       <path id="DejaVuSans-79" d="M 2059 -325 
Q 1816 -950 1584 -1140 
Q 1353 -1331 966 -1331 
L 506 -1331 
L 506 -850 
L 844 -850 
Q 1081 -850 1212 -737 
Q 1344 -625 1503 -206 
L 1606 56 
L 191 3500 
L 800 3500 
L 1894 763 
L 2988 3500 
L 3597 3500 
L 2059 -325 
z
" transform="scale(0.015625)"/>
      </defs>
      <use xlink:href="#DejaVuSans-47"/>
      <use xlink:href="#DejaVuSans-72" x="77.490234"/>
      <use xlink:href="#DejaVuSans-6f" x="116.353516"/>
      <use xlink:href="#DejaVuSans-75" x="177.535156"/>
      <use xlink:href="#DejaVuSans-6e" x="240.914062"/>
      <use xlink:href="#DejaVuSans-64" x="304.292969"/>
      <use xlink:href="#DejaVuSans-20" x="367.769531"/>
      <use xlink:href="#DejaVuSans-54" x="399.556641"/>
      <use xlink:href="#DejaVuSans-72" x="445.890625"/>
      <use xlink:href="#DejaVuSans-75" x="487.003906"/>
      <use xlink:href="#DejaVuSans-74" x="550.382812"/>
      <use xlink:href="#DejaVuSans-68" x="589.591797"/>
      <use xlink:href="#DejaVuSans-20" x="652.970703"/>
      <use xlink:href="#DejaVuSans-45" x="684.757812"/>
      <use xlink:href="#DejaVuSans-6e" x="747.941406"/>
      <use xlink:href="#DejaVuSans-65" x="811.320312"/>
      <use xlink:href="#DejaVuSans-72" x="872.84375"/>
      <use xlink:href="#DejaVuSans-67" x="912.207031"/>
      <use xlink:href="#DejaVuSans-79" x="975.683594"/>
     </g>
    </g>
   </g>
   <g id="matplotlib.axis_2">
    <g id="ytick_1">
     <g id="line2d_8">
      <defs>
       <path id="m6200c6b29a" d="M 0 0 
L -3.5 0 
" style="stroke: #000000; stroke-width: 0.8"/>
      </defs>
      <g>
       <use xlink:href="#m6200c6b29a" x="90" y="462.873022" style="stroke: #000000; stroke-width: 0.8"/>
      </g>
     </g>
     <g id="text_9">
      <!-- 0 -->
      <g transform="translate(76.6375 466.672241) scale(0.1 -0.1)">
       <use xlink:href="#DejaVuSans-30"/>
      </g>
     </g>
    </g>
    <g id="ytick_2">
     <g id="line2d_9">
      <g>
       <use xlink:href="#m6200c6b29a" x="90" y="398.484617" style="stroke: #000000; stroke-width: 0.8"/>
      </g>
     </g>
     <g id="text_10">
      <!-- 100 -->
      <g transform="translate(63.9125 402.283835) scale(0.1 -0.1)">
       <use xlink:href="#DejaVuSans-31"/>
       <use xlink:href="#DejaVuSans-30" x="63.623047"/>
       <use xlink:href="#DejaVuSans-30" x="127.246094"/>
      </g>
     </g>
    </g>
    <g id="ytick_3">
     <g id="line2d_10">
      <g>
       <use xlink:href="#m6200c6b29a" x="90" y="334.096211" style="stroke: #000000; stroke-width: 0.8"/>
      </g>
     </g>
     <g id="text_11">
      <!-- 200 -->
      <g transform="translate(63.9125 337.89543) scale(0.1 -0.1)">
       <use xlink:href="#DejaVuSans-32"/>
       <use xlink:href="#DejaVuSans-30" x="63.623047"/>
       <use xlink:href="#DejaVuSans-30" x="127.246094"/>
      </g>
     </g>
    </g>
    <g id="ytick_4">
     <g id="line2d_11">
      <g>
       <use xlink:href="#m6200c6b29a" x="90" y="269.707806" style="stroke: #000000; stroke-width: 0.8"/>
      </g>
     </g>
     <g id="text_12">
      <!-- 300 -->
      <g transform="translate(63.9125 273.507025) scale(0.1 -0.1)">
       <use xlink:href="#DejaVuSans-33"/>
       <use xlink:href="#DejaVuSans-30" x="63.623047"/>
       <use xlink:href="#DejaVuSans-30" x="127.246094"/>
      </g>
     </g>
    </g>
    <g id="ytick_5">
     <g id="line2d_12">
      <g>
       <use xlink:href="#m6200c6b29a" x="90" y="205.3194" style="stroke: #000000; stroke-width: 0.8"/>
      </g>
     </g>
     <g id="text_13">
      <!-- 400 -->
      <g transform="translate(63.9125 209.118619) scale(0.1 -0.1)">
       <use xlink:href="#DejaVuSans-34"/>
       <use xlink:href="#DejaVuSans-30" x="63.623047"/>
       <use xlink:href="#DejaVuSans-30" x="127.246094"/>
      </g>
     </g>
    </g>
    <g id="ytick_6">
     <g id="line2d_13">
      <g>
       <use xlink:href="#m6200c6b29a" x="90" y="140.930995" style="stroke: #000000; stroke-width: 0.8"/>
      </g>
     </g>
     <g id="text_14">
      <!-- 500 -->
      <g transform="translate(63.9125 144.730214) scale(0.1 -0.1)">
       <use xlink:href="#DejaVuSans-35"/>
       <use xlink:href="#DejaVuSans-30" x="63.623047"/>
       <use xlink:href="#DejaVuSans-30" x="127.246094"/>
      </g>
     </g>
    </g>
    <g id="ytick_7">
     <g id="line2d_14">
      <g>
       <use xlink:href="#m6200c6b29a" x="90" y="76.54259" style="stroke: #000000; stroke-width: 0.8"/>
      </g>
     </g>
     <g id="text_15">
      <!-- 600 -->
      <g transform="translate(63.9125 80.341808) scale(0.1 -0.1)">
       <use xlink:href="#DejaVuSans-36"/>
       <use xlink:href="#DejaVuSans-30" x="63.623047"/>
       <use xlink:href="#DejaVuSans-30" x="127.246094"/>
      </g>
     </g>
    </g>
    <g id="text_16">
     <!-- Predicted Energy -->
     <g transform="translate(57.832812 333.445625) rotate(-90) scale(0.1 -0.1)">
      <defs>
       <path id="DejaVuSans-50" d="M 1259 4147 
L 1259 2394 
L 2053 2394 
Q 2494 2394 2734 2622 
Q 2975 2850 2975 3272 
Q 2975 3691 2734 3919 
Q 2494 4147 2053 4147 
L 1259 4147 
z
M 628 4666 
L 2053 4666 
Q 2838 4666 3239 4311 
Q 3641 3956 3641 3272 
Q 3641 2581 3239 2228 
Q 2838 1875 2053 1875 
L 1259 1875 
L 1259 0 
L 628 0 
L 628 4666 
z
" transform="scale(0.015625)"/>
       <path id="DejaVuSans-69" d="M 603 3500 
L 1178 3500 
L 1178 0 
L 603 0 
L 603 3500 
z
M 603 4863 
L 1178 4863 
L 1178 4134 
L 603 4134 
L 603 4863 
z
" transform="scale(0.015625)"/>
       <path id="DejaVuSans-63" d="M 3122 3366 
L 3122 2828 
Q 2878 2963 2633 3030 
Q 2388 3097 2138 3097 
Q 1578 3097 1268 2742 
Q 959 2388 959 1747 
Q 959 1106 1268 751 
Q 1578 397 2138 397 
Q 2388 397 2633 464 
Q 2878 531 3122 666 
L 3122 134 
Q 2881 22 2623 -34 
Q 2366 -91 2075 -91 
Q 1284 -91 818 406 
Q 353 903 353 1747 
Q 353 2603 823 3093 
Q 1294 3584 2113 3584 
Q 2378 3584 2631 3529 
Q 2884 3475 3122 3366 
z
" transform="scale(0.015625)"/>
      </defs>
      <use xlink:href="#DejaVuSans-50"/>
      <use xlink:href="#DejaVuSans-72" x="58.552734"/>
      <use xlink:href="#DejaVuSans-65" x="97.416016"/>
      <use xlink:href="#DejaVuSans-64" x="158.939453"/>
      <use xlink:href="#DejaVuSans-69" x="222.416016"/>
      <use xlink:href="#DejaVuSans-63" x="250.199219"/>
      <use xlink:href="#DejaVuSans-74" x="305.179688"/>
      <use xlink:href="#DejaVuSans-65" x="344.388672"/>
      <use xlink:href="#DejaVuSans-64" x="405.912109"/>
      <use xlink:href="#DejaVuSans-20" x="469.388672"/>
      <use xlink:href="#DejaVuSans-45" x="501.175781"/>
      <use xlink:href="#DejaVuSans-6e" x="564.359375"/>
      <use xlink:href="#DejaVuSans-65" x="627.738281"/>
      <use xlink:href="#DejaVuSans-72" x="689.261719"/>
      <use xlink:href="#DejaVuSans-67" x="728.625"/>
      <use xlink:href="#DejaVuSans-79" x="792.101562"/>
     </g>
    </g>
   </g>
   <g id="line2d_15">
    <path d="M 122.672384 487.381731 
L 615.327616 100.373256 
" clip-path="url(#p29ceb93852)" style="fill: none; stroke-dasharray: 5.55,2.4; stroke-dashoffset: 0; stroke: #ff0000; stroke-width: 1.5"/>
   </g>
   <g id="patch_3">
    <path d="M 90 512.64 
L 90 69.12 
" style="fill: none; stroke: #000000; stroke-width: 0.8; stroke-linejoin: miter; stroke-linecap: square"/>
   </g>
   <g id="patch_4">
    <path d="M 648 512.64 
L 648 69.12 
" style="fill: none; stroke: #000000; stroke-width: 0.8; stroke-linejoin: miter; stroke-linecap: square"/>
   </g>
   <g id="patch_5">
    <path d="M 90 512.64 
L 648 512.64 
" style="fill: none; stroke: #000000; stroke-width: 0.8; stroke-linejoin: miter; stroke-linecap: square"/>
   </g>
   <g id="patch_6">
    <path d="M 90 69.12 
L 648 69.12 
" style="fill: none; stroke: #000000; stroke-width: 0.8; stroke-linejoin: miter; stroke-linecap: square"/>
   </g>
   <g id="text_17">
    <!-- Energy R2 Score: 0.998730322726455 -->
    <g transform="translate(145.8 113.472) scale(0.1 -0.1)">
     <defs>
      <path id="DejaVuSans-52" d="M 2841 2188 
Q 3044 2119 3236 1894 
Q 3428 1669 3622 1275 
L 4263 0 
L 3584 0 
L 2988 1197 
Q 2756 1666 2539 1819 
Q 2322 1972 1947 1972 
L 1259 1972 
L 1259 0 
L 628 0 
L 628 4666 
L 2053 4666 
Q 2853 4666 3247 4331 
Q 3641 3997 3641 3322 
Q 3641 2881 3436 2590 
Q 3231 2300 2841 2188 
z
M 1259 4147 
L 1259 2491 
L 2053 2491 
Q 2509 2491 2742 2702 
Q 2975 2913 2975 3322 
Q 2975 3731 2742 3939 
Q 2509 4147 2053 4147 
L 1259 4147 
z
" transform="scale(0.015625)"/>
      <path id="DejaVuSans-53" d="M 3425 4513 
L 3425 3897 
Q 3066 4069 2747 4153 
Q 2428 4238 2131 4238 
Q 1616 4238 1336 4038 
Q 1056 3838 1056 3469 
Q 1056 3159 1242 3001 
Q 1428 2844 1947 2747 
L 2328 2669 
Q 3034 2534 3370 2195 
Q 3706 1856 3706 1288 
Q 3706 609 3251 259 
Q 2797 -91 1919 -91 
Q 1588 -91 1214 -16 
Q 841 59 441 206 
L 441 856 
Q 825 641 1194 531 
Q 1563 422 1919 422 
Q 2459 422 2753 634 
Q 3047 847 3047 1241 
Q 3047 1584 2836 1778 
Q 2625 1972 2144 2069 
L 1759 2144 
Q 1053 2284 737 2584 
Q 422 2884 422 3419 
Q 422 4038 858 4394 
Q 1294 4750 2059 4750 
Q 2388 4750 2728 4690 
Q 3069 4631 3425 4513 
z
" transform="scale(0.015625)"/>
      <path id="DejaVuSans-3a" d="M 750 794 
L 1409 794 
L 1409 0 
L 750 0 
L 750 794 
z
M 750 3309 
L 1409 3309 
L 1409 2516 
L 750 2516 
L 750 3309 
z
" transform="scale(0.015625)"/>
      <path id="DejaVuSans-2e" d="M 684 794 
L 1344 794 
L 1344 0 
L 684 0 
L 684 794 
z
" transform="scale(0.015625)"/>
      <path id="DejaVuSans-39" d="M 703 97 
L 703 672 
Q 941 559 1184 500 
Q 1428 441 1663 441 
Q 2288 441 2617 861 
Q 2947 1281 2994 2138 
Q 2813 1869 2534 1725 
Q 2256 1581 1919 1581 
Q 1219 1581 811 2004 
Q 403 2428 403 3163 
Q 403 3881 828 4315 
Q 1253 4750 1959 4750 
Q 2769 4750 3195 4129 
Q 3622 3509 3622 2328 
Q 3622 1225 3098 567 
Q 2575 -91 1691 -91 
Q 1453 -91 1209 -44 
Q 966 3 703 97 
z
M 1959 2075 
Q 2384 2075 2632 2365 
Q 2881 2656 2881 3163 
Q 2881 3666 2632 3958 
Q 2384 4250 1959 4250 
Q 1534 4250 1286 3958 
Q 1038 3666 1038 3163 
Q 1038 2656 1286 2365 
Q 1534 2075 1959 2075 
z
" transform="scale(0.015625)"/>
      <path id="DejaVuSans-38" d="M 2034 2216 
Q 1584 2216 1326 1975 
Q 1069 1734 1069 1313 
Q 1069 891 1326 650 
Q 1584 409 2034 409 
Q 2484 409 2743 651 
Q 3003 894 3003 1313 
Q 3003 1734 2745 1975 
Q 2488 2216 2034 2216 
z
M 1403 2484 
Q 997 2584 770 2862 
Q 544 3141 544 3541 
Q 544 4100 942 4425 
Q 1341 4750 2034 4750 
Q 2731 4750 3128 4425 
Q 3525 4100 3525 3541 
Q 3525 3141 3298 2862 
Q 3072 2584 2669 2484 
Q 3125 2378 3379 2068 
Q 3634 1759 3634 1313 
Q 3634 634 3220 271 
Q 2806 -91 2034 -91 
Q 1263 -91 848 271 
Q 434 634 434 1313 
Q 434 1759 690 2068 
Q 947 2378 1403 2484 
z
M 1172 3481 
Q 1172 3119 1398 2916 
Q 1625 2713 2034 2713 
Q 2441 2713 2670 2916 
Q 2900 3119 2900 3481 
Q 2900 3844 2670 4047 
Q 2441 4250 2034 4250 
Q 1625 4250 1398 4047 
Q 1172 3844 1172 3481 
z
" transform="scale(0.015625)"/>
      <path id="DejaVuSans-37" d="M 525 4666 
L 3525 4666 
L 3525 4397 
L 1831 0 
L 1172 0 
L 2766 4134 
L 525 4134 
L 525 4666 
z
" transform="scale(0.015625)"/>
     </defs>
     <use xlink:href="#DejaVuSans-45"/>
     <use xlink:href="#DejaVuSans-6e" x="63.183594"/>
     <use xlink:href="#DejaVuSans-65" x="126.5625"/>
     <use xlink:href="#DejaVuSans-72" x="188.085938"/>
     <use xlink:href="#DejaVuSans-67" x="227.449219"/>
     <use xlink:href="#DejaVuSans-79" x="290.925781"/>
     <use xlink:href="#DejaVuSans-20" x="350.105469"/>
     <use xlink:href="#DejaVuSans-52" x="381.892578"/>
     <use xlink:href="#DejaVuSans-32" x="451.375"/>
     <use xlink:href="#DejaVuSans-20" x="514.998047"/>
     <use xlink:href="#DejaVuSans-53" x="546.785156"/>
     <use xlink:href="#DejaVuSans-63" x="610.261719"/>
     <use xlink:href="#DejaVuSans-6f" x="665.242188"/>
     <use xlink:href="#DejaVuSans-72" x="726.423828"/>
     <use xlink:href="#DejaVuSans-65" x="765.287109"/>
     <use xlink:href="#DejaVuSans-3a" x="826.810547"/>
     <use xlink:href="#DejaVuSans-20" x="860.501953"/>
     <use xlink:href="#DejaVuSans-30" x="892.289062"/>
     <use xlink:href="#DejaVuSans-2e" x="955.912109"/>
     <use xlink:href="#DejaVuSans-39" x="987.699219"/>
     <use xlink:href="#DejaVuSans-39" x="1051.322266"/>
     <use xlink:href="#DejaVuSans-38" x="1114.945312"/>
     <use xlink:href="#DejaVuSans-37" x="1178.568359"/>
     <use xlink:href="#DejaVuSans-33" x="1242.191406"/>
     <use xlink:href="#DejaVuSans-30" x="1305.814453"/>
     <use xlink:href="#DejaVuSans-33" x="1369.4375"/>
     <use xlink:href="#DejaVuSans-32" x="1433.060547"/>
     <use xlink:href="#DejaVuSans-32" x="1496.683594"/>
     <use xlink:href="#DejaVuSans-37" x="1560.306641"/>
     <use xlink:href="#DejaVuSans-32" x="1623.929688"/>
     <use xlink:href="#DejaVuSans-36" x="1687.552734"/>
     <use xlink:href="#DejaVuSans-34" x="1751.175781"/>
     <use xlink:href="#DejaVuSans-35" x="1814.798828"/>
     <use xlink:href="#DejaVuSans-35" x="1878.421875"/>
    </g>
   </g>
   <g id="text_18">
    <!-- MVE In Distribution -->
    <g transform="translate(311.53875 63.12) scale(0.12 -0.12)">
     <defs>
      <path id="DejaVuSans-4d" d="M 628 4666 
L 1569 4666 
L 2759 1491 
L 3956 4666 
L 4897 4666 
L 4897 0 
L 4281 0 
L 4281 4097 
L 3078 897 
L 2444 897 
L 1241 4097 
L 1241 0 
L 628 0 
L 628 4666 
z
" transform="scale(0.015625)"/>
      <path id="DejaVuSans-56" d="M 1831 0 
L 50 4666 
L 709 4666 
L 2188 738 
L 3669 4666 
L 4325 4666 
L 2547 0 
L 1831 0 
z
" transform="scale(0.015625)"/>
      <path id="DejaVuSans-49" d="M 628 4666 
L 1259 4666 
L 1259 0 
L 628 0 
L 628 4666 
z
" transform="scale(0.015625)"/>
      <path id="DejaVuSans-44" d="M 1259 4147 
L 1259 519 
L 2022 519 
Q 2988 519 3436 956 
Q 3884 1394 3884 2338 
Q 3884 3275 3436 3711 
Q 2988 4147 2022 4147 
L 1259 4147 
z
M 628 4666 
L 1925 4666 
Q 3281 4666 3915 4102 
Q 4550 3538 4550 2338 
Q 4550 1131 3912 565 
Q 3275 0 1925 0 
L 628 0 
L 628 4666 
z
" transform="scale(0.015625)"/>
      <path id="DejaVuSans-73" d="M 2834 3397 
L 2834 2853 
Q 2591 2978 2328 3040 
Q 2066 3103 1784 3103 
Q 1356 3103 1142 2972 
Q 928 2841 928 2578 
Q 928 2378 1081 2264 
Q 1234 2150 1697 2047 
L 1894 2003 
Q 2506 1872 2764 1633 
Q 3022 1394 3022 966 
Q 3022 478 2636 193 
Q 2250 -91 1575 -91 
Q 1294 -91 989 -36 
Q 684 19 347 128 
L 347 722 
Q 666 556 975 473 
Q 1284 391 1588 391 
Q 1994 391 2212 530 
Q 2431 669 2431 922 
Q 2431 1156 2273 1281 
Q 2116 1406 1581 1522 
L 1381 1569 
Q 847 1681 609 1914 
Q 372 2147 372 2553 
Q 372 3047 722 3315 
Q 1072 3584 1716 3584 
Q 2034 3584 2315 3537 
Q 2597 3491 2834 3397 
z
" transform="scale(0.015625)"/>
      <path id="DejaVuSans-62" d="M 3116 1747 
Q 3116 2381 2855 2742 
Q 2594 3103 2138 3103 
Q 1681 3103 1420 2742 
Q 1159 2381 1159 1747 
Q 1159 1113 1420 752 
Q 1681 391 2138 391 
Q 2594 391 2855 752 
Q 3116 1113 3116 1747 
z
M 1159 2969 
Q 1341 3281 1617 3432 
Q 1894 3584 2278 3584 
Q 2916 3584 3314 3078 
Q 3713 2572 3713 1747 
Q 3713 922 3314 415 
Q 2916 -91 2278 -91 
Q 1894 -91 1617 61 
Q 1341 213 1159 525 
L 1159 0 
L 581 0 
L 581 4863 
L 1159 4863 
L 1159 2969 
z
" transform="scale(0.015625)"/>
     </defs>
     <use xlink:href="#DejaVuSans-4d"/>
     <use xlink:href="#DejaVuSans-56" x="86.279297"/>
     <use xlink:href="#DejaVuSans-45" x="154.6875"/>
     <use xlink:href="#DejaVuSans-20" x="217.871094"/>
     <use xlink:href="#DejaVuSans-49" x="249.658203"/>
     <use xlink:href="#DejaVuSans-6e" x="279.150391"/>
     <use xlink:href="#DejaVuSans-20" x="342.529297"/>
     <use xlink:href="#DejaVuSans-44" x="374.316406"/>
     <use xlink:href="#DejaVuSans-69" x="451.318359"/>
     <use xlink:href="#DejaVuSans-73" x="479.101562"/>
     <use xlink:href="#DejaVuSans-74" x="531.201172"/>
     <use xlink:href="#DejaVuSans-72" x="570.410156"/>
     <use xlink:href="#DejaVuSans-69" x="611.523438"/>
     <use xlink:href="#DejaVuSans-62" x="639.306641"/>
     <use xlink:href="#DejaVuSans-75" x="702.783203"/>
     <use xlink:href="#DejaVuSans-74" x="766.162109"/>
     <use xlink:href="#DejaVuSans-69" x="805.371094"/>
     <use xlink:href="#DejaVuSans-6f" x="833.154297"/>
     <use xlink:href="#DejaVuSans-6e" x="894.335938"/>
    </g>
   </g>
  </g>
 </g>
 <defs>
  <clipPath id="p29ceb93852">
   <rect x="90" y="69.12" width="558" height="443.52"/>
  </clipPath>
 </defs>
</svg>
