<?xml version="1.0" encoding="utf-8" standalone="no"?>
<!DOCTYPE svg PUBLIC "-//W3C//DTD SVG 1.1//EN"
  "http://www.w3.org/Graphics/SVG/1.1/DTD/svg11.dtd">
<svg xmlns:xlink="http://www.w3.org/1999/xlink" width="720pt" height="576pt" viewBox="0 0 720 576" xmlns="http://www.w3.org/2000/svg" version="1.1">
 <metadata>
  <rdf:RDF xmlns:dc="http://purl.org/dc/elements/1.1/" xmlns:cc="http://creativecommons.org/ns#" xmlns:rdf="http://www.w3.org/1999/02/22-rdf-syntax-ns#">
   <cc:Work>
    <dc:type rdf:resource="http://purl.org/dc/dcmitype/StillImage"/>
    <dc:date>2024-11-29T15:21:03.822980</dc:date>
    <dc:format>image/svg+xml</dc:format>
    <dc:creator>
     <cc:Agent>
      <dc:title>Matplotlib v3.8.4, https://matplotlib.org/</dc:title>
     </cc:Agent>
    </dc:creator>
   </cc:Work>
  </rdf:RDF>
 </metadata>
 <defs>
  <style type="text/css">*{stroke-linejoin: round; stroke-linecap: butt}</style>
 </defs>
 <g id="figure_1">
  <g id="patch_1">
   <path d="M 0 576 
L 720 576 
L 720 0 
L 0 0 
z
" style="fill: #ffffff"/>
  </g>
  <g id="axes_1">
   <g id="patch_2">
    <path d="M 90 512.64 
L 648 512.64 
L 648 69.12 
L 90 69.12 
z
" style="fill: #ffffff"/>
   </g>
   <g id="QuadContourSet_1">
    <path d="M 115.236181 493.327593 
L 116.17721 492.581307 
L 115.236181 491.836275 
L 114.298846 492.581307 
z
M 118.040201 491.562544 
L 119.567383 490.352563 
L 120.844221 489.631525 
L 122.749423 488.123819 
L 123.648241 487.600082 
L 125.805709 485.895075 
L 126.452261 485.506403 
L 128.784079 483.666332 
L 129.256281 483.37345 
L 131.713102 481.437588 
L 132.060302 481.21538 
L 134.610173 479.208844 
L 134.864322 479.041038 
L 137.485963 476.980101 
L 137.668342 476.855932 
L 140.346994 474.751357 
L 140.472362 474.663418 
L 143.197229 472.522613 
L 143.276382 472.465472 
L 146.03917 470.293869 
L 146.080402 470.26327 
L 148.874661 468.065126 
L 148.884422 468.057687 
L 151.688442 466.032134 
L 151.936371 465.836382 
L 154.492462 464.034149 
L 155.03217 463.607638 
L 157.296482 461.982699 
L 158.059367 461.378894 
L 160.100503 459.899426 
L 161.045314 459.150151 
L 162.904523 457.794864 
L 164.00364 456.921407 
L 165.708543 455.671678 
L 166.938283 454.692663 
L 168.512563 453.528342 
L 169.847927 452.46392 
L 171.316583 451.362219 
L 172.729644 450.235176 
L 174.120603 449.171038 
L 175.580665 448.006432 
L 176.924623 446.952894 
L 178.398442 445.777688 
L 179.728643 444.705545 
L 181.179893 443.548945 
L 182.532663 442.425629 
L 183.920528 441.320201 
L 185.336683 440.108074 
L 186.613771 439.091457 
L 188.140704 437.745802 
L 189.250595 436.862714 
L 190.944724 435.329745 
L 191.819537 434.63397 
L 193.748744 432.849161 
L 194.307075 432.405226 
L 196.552764 430.291865 
L 196.697908 430.176482 
L 198.674106 427.947739 
L 196.552764 427.341665 
L 195.789575 427.947739 
L 193.748744 429.163509 
L 192.472752 430.176482 
L 190.944724 431.102124 
L 189.302693 432.405226 
L 188.140704 433.120167 
L 186.232551 434.63397 
L 185.336683 435.193642 
L 183.232309 436.862714 
L 182.532663 437.306672 
L 180.282179 439.091457 
L 179.728643 439.448487 
L 177.368745 441.320201 
L 176.924623 441.611637 
L 174.482682 443.548945 
L 174.120603 443.790884 
L 171.61734 445.777688 
L 171.316583 445.982481 
L 168.767851 448.006432 
L 168.512563 448.183691 
L 165.930562 450.235176 
L 165.708543 450.392458 
L 163.102676 452.46392 
L 162.904523 452.607206 
L 160.282042 454.692663 
L 160.100503 454.826717 
L 157.467042 456.921407 
L 157.296482 457.050076 
L 154.65652 459.150151 
L 154.492462 459.276653 
L 151.849743 461.378894 
L 151.688442 461.5061 
L 149.046366 463.607638 
L 148.884422 463.738358 
L 146.246419 465.836382 
L 146.080402 465.973679 
L 143.450301 468.065126 
L 143.276382 468.212669 
L 140.658834 470.293869 
L 140.472362 470.456369 
L 137.873355 472.522613 
L 137.668342 472.706405 
L 135.095917 474.751357 
L 134.864322 474.965243 
L 132.329616 476.980101 
L 132.060302 477.236616 
L 129.579135 479.208844 
L 129.256281 479.526228 
L 126.851637 481.437588 
L 126.452261 481.842936 
L 124.158252 483.666332 
L 123.648241 484.200759 
L 121.51661 485.895075 
L 120.844221 486.622429 
L 118.955305 488.123819 
L 118.040201 489.145851 
L 116.522019 490.352563 
z
M 117.923238 490.352563 
L 118.040201 490.259596 
L 118.157857 490.352563 
L 118.040201 490.445781 
z
M 119.952527 488.123819 
L 120.844221 487.415064 
L 121.743603 488.123819 
L 120.844221 488.835556 
z
M 122.249346 485.895075 
L 123.648241 484.78317 
L 124.714054 483.666332 
L 126.452261 482.284716 
L 127.286908 481.437588 
L 129.256281 479.872209 
L 129.931077 479.208844 
L 132.060302 477.516368 
L 132.623325 476.980101 
L 134.864322 475.198715 
L 135.348719 474.751357 
L 137.668342 472.90737 
L 138.097524 472.522613 
L 140.472362 470.634586 
L 140.863342 470.293869 
L 143.276382 468.375272 
L 143.641974 468.065126 
L 146.080402 466.126096 
L 146.430718 465.836382 
L 148.884422 463.884933 
L 149.227954 463.607638 
L 151.688442 461.650537 
L 152.032893 461.378894 
L 154.492462 459.422346 
L 154.845466 459.150151 
L 157.296482 457.200381 
L 157.666282 456.921407 
L 160.100503 454.985195 
L 160.496658 454.692663 
L 162.904523 452.777874 
L 163.338695 452.46392 
L 165.708543 450.580075 
L 166.195402 450.235176 
L 168.512563 448.394114 
L 169.070904 448.006432 
L 171.316583 446.223136 
L 171.970764 445.777688 
L 174.120603 444.071392 
L 174.902482 443.548945 
L 176.924623 441.944685 
L 177.876279 441.320201 
L 179.728643 439.851029 
L 180.906275 439.091457 
L 182.532663 437.801622 
L 184.012316 436.862714 
L 185.336683 435.812299 
L 187.222836 434.63397 
L 188.140704 433.905794 
L 189.860298 434.63397 
L 188.140704 436.190519 
L 187.605777 436.862714 
L 185.336683 438.81982 
L 185.104144 439.091457 
L 182.532663 441.232401 
L 182.452892 441.320201 
L 179.728643 443.532971 
L 179.713389 443.548945 
L 176.924623 445.777688 
L 176.924623 445.777688 
L 174.120603 447.996916 
L 174.110768 448.006432 
L 171.316583 450.206683 
L 171.286163 450.235176 
L 168.512563 452.414966 
L 168.458744 452.46392 
L 165.708543 454.625197 
L 165.632336 454.692663 
L 162.904523 456.83822 
L 162.80812 456.921407 
L 160.100503 459.053391 
L 159.985558 459.150151 
L 157.296482 461.269246 
L 157.163004 461.378894 
L 154.492462 463.483945 
L 154.338152 463.607638 
L 151.688442 465.695607 
L 151.50839 465.836382 
L 148.884422 467.902499 
L 148.671026 468.065126 
L 146.080402 470.103077 
L 145.823315 470.293869 
L 143.276382 472.295805 
L 142.962204 472.522613 
L 140.472362 474.47877 
L 140.083752 474.751357 
L 137.668342 476.649107 
L 137.18218 476.980101 
L 134.864322 478.802226 
L 134.248485 479.208844 
L 132.060302 480.930762 
L 131.268386 481.437588 
L 129.256281 483.023035 
L 128.219116 483.666332 
L 126.452261 485.060582 
L 125.064092 485.895075 
L 123.648241 487.013996 
z
M 190.579567 432.405226 
L 190.944724 432.115441 
L 191.702596 432.405226 
L 190.944724 433.137423 
z
M 199.356784 425.893855 
L 199.458129 425.718995 
L 199.356784 425.696433 
L 199.32838 425.718995 
z
" clip-path="url(#p5f7b4afb20)" style="fill: #f1f7fd"/>
    <path d="M 118.040201 490.445781 
L 118.157857 490.352563 
L 118.040201 490.259596 
L 117.923238 490.352563 
z
M 120.844221 488.835556 
L 121.743603 488.123819 
L 120.844221 487.415064 
L 119.952527 488.123819 
z
M 123.648241 487.013996 
L 125.064092 485.895075 
L 126.452261 485.060582 
L 128.219116 483.666332 
L 129.256281 483.023035 
L 131.268386 481.437588 
L 132.060302 480.930762 
L 134.248485 479.208844 
L 134.864322 478.802226 
L 137.18218 476.980101 
L 137.668342 476.649107 
L 140.083752 474.751357 
L 140.472362 474.47877 
L 142.962204 472.522613 
L 143.276382 472.295805 
L 145.823315 470.293869 
L 146.080402 470.103077 
L 148.671026 468.065126 
L 148.884422 467.902499 
L 151.50839 465.836382 
L 151.688442 465.695607 
L 154.338152 463.607638 
L 154.492462 463.483945 
L 157.163004 461.378894 
L 157.296482 461.269246 
L 159.985558 459.150151 
L 160.100503 459.053391 
L 162.80812 456.921407 
L 162.904523 456.83822 
L 165.632336 454.692663 
L 165.708543 454.625197 
L 168.458744 452.46392 
L 168.512563 452.414966 
L 171.286163 450.235176 
L 171.316583 450.206683 
L 174.110768 448.006432 
L 174.120603 447.996916 
L 176.924623 445.777688 
L 176.924623 445.777688 
L 179.713389 443.548945 
L 179.728643 443.532971 
L 182.452892 441.320201 
L 182.532663 441.232401 
L 185.104144 439.091457 
L 185.336683 438.81982 
L 187.605777 436.862714 
L 188.140704 436.190519 
L 189.860298 434.63397 
L 188.140704 433.905794 
L 187.222836 434.63397 
L 185.336683 435.812299 
L 184.012316 436.862714 
L 182.532663 437.801622 
L 180.906275 439.091457 
L 179.728643 439.851029 
L 177.876279 441.320201 
L 176.924623 441.944685 
L 174.902482 443.548945 
L 174.120603 444.071392 
L 171.970764 445.777688 
L 171.316583 446.223136 
L 169.070904 448.006432 
L 168.512563 448.394114 
L 166.195402 450.235176 
L 165.708543 450.580075 
L 163.338695 452.46392 
L 162.904523 452.777874 
L 160.496658 454.692663 
L 160.100503 454.985195 
L 157.666282 456.921407 
L 157.296482 457.200381 
L 154.845466 459.150151 
L 154.492462 459.422346 
L 152.032893 461.378894 
L 151.688442 461.650537 
L 149.227954 463.607638 
L 148.884422 463.884933 
L 146.430718 465.836382 
L 146.080402 466.126096 
L 143.641974 468.065126 
L 143.276382 468.375272 
L 140.863342 470.293869 
L 140.472362 470.634586 
L 138.097524 472.522613 
L 137.668342 472.90737 
L 135.348719 474.751357 
L 134.864322 475.198715 
L 132.623325 476.980101 
L 132.060302 477.516368 
L 129.931077 479.208844 
L 129.256281 479.872209 
L 127.286908 481.437588 
L 126.452261 482.284716 
L 124.714054 483.666332 
L 123.648241 484.78317 
L 122.249346 485.895075 
z
M 128.875535 481.437588 
L 129.256281 481.134947 
L 129.645289 481.437588 
L 129.256281 481.744108 
z
M 131.215574 479.208844 
L 132.060302 478.537388 
L 132.92842 479.208844 
L 132.060302 479.891981 
z
M 133.695288 476.980101 
L 134.864322 476.050826 
L 136.073451 476.980101 
L 134.864322 477.930627 
z
M 136.27138 474.751357 
L 137.668342 473.640841 
L 138.915682 472.522613 
L 140.472362 471.285032 
L 141.609744 470.293869 
L 143.276382 468.968733 
L 144.341528 468.065126 
L 146.080402 466.682379 
L 147.103365 465.836382 
L 148.884422 464.419894 
L 149.890701 463.607638 
L 151.688442 462.177693 
L 152.701344 461.378894 
L 154.492462 459.954089 
L 155.535068 459.150151 
L 157.296482 457.748956 
L 158.393456 456.921407 
L 160.100503 455.563599 
L 161.279952 454.692663 
L 162.904523 453.400767 
L 164.200103 452.46392 
L 165.708543 451.264828 
L 167.161997 450.235176 
L 168.512563 449.162107 
L 170.129165 450.235176 
L 168.512563 451.505674 
L 167.459082 452.46392 
L 165.708543 453.839601 
L 164.74496 454.692663 
L 162.904523 456.140256 
L 161.999274 456.921407 
L 160.100503 458.416504 
L 159.228977 459.150151 
L 157.296482 460.673031 
L 156.437216 461.378894 
L 154.492462 462.911844 
L 153.624437 463.607638 
L 151.688442 465.1332 
L 150.789068 465.836382 
L 148.884422 467.336104 
L 147.927809 468.065126 
L 146.080402 469.518415 
L 145.035497 470.293869 
L 143.276382 471.676566 
L 142.104426 472.522613 
L 140.472362 473.804852 
L 139.12299 474.751357 
L 137.668342 475.894251 
z
M 170.17697 448.006432 
L 171.316583 447.101464 
L 172.734546 448.006432 
L 171.316583 449.122992 
z
M 173.260671 445.777688 
L 174.120603 445.095173 
L 175.242206 445.777688 
L 174.120603 446.665376 
z
M 176.434644 443.548945 
L 176.924623 443.160221 
L 177.600361 443.548945 
L 176.924623 444.088985 
z
M 190.944724 433.137423 
L 191.702596 432.405226 
L 190.944724 432.115441 
L 190.579567 432.405226 
z
" clip-path="url(#p5f7b4afb20)" style="fill: #d1e2f3"/>
    <path d="M 129.256281 481.744108 
L 129.645289 481.437588 
L 129.256281 481.134947 
L 128.875535 481.437588 
z
M 132.060302 479.891981 
L 132.92842 479.208844 
L 132.060302 478.537388 
L 131.215574 479.208844 
z
M 134.864322 477.930627 
L 136.073451 476.980101 
L 134.864322 476.050826 
L 133.695288 476.980101 
z
M 134.409924 476.980101 
L 134.864322 476.618896 
L 135.334304 476.980101 
L 134.864322 477.349565 
z
M 137.668342 475.894251 
L 139.12299 474.751357 
L 140.472362 473.804852 
L 142.104426 472.522613 
L 143.276382 471.676566 
L 145.035497 470.293869 
L 146.080402 469.518415 
L 147.927809 468.065126 
L 148.884422 467.336104 
L 150.789068 465.836382 
L 151.688442 465.1332 
L 153.624437 463.607638 
L 154.492462 462.911844 
L 156.437216 461.378894 
L 157.296482 460.673031 
L 159.228977 459.150151 
L 160.100503 458.416504 
L 161.999274 456.921407 
L 162.904523 456.140256 
L 164.74496 454.692663 
L 165.708543 453.839601 
L 167.459082 452.46392 
L 168.512563 451.505674 
L 170.129165 450.235176 
L 168.512563 449.162107 
L 167.161997 450.235176 
L 165.708543 451.264828 
L 164.200103 452.46392 
L 162.904523 453.400767 
L 161.279952 454.692663 
L 160.100503 455.563599 
L 158.393456 456.921407 
L 157.296482 457.748956 
L 155.535068 459.150151 
L 154.492462 459.954089 
L 152.701344 461.378894 
L 151.688442 462.177693 
L 149.890701 463.607638 
L 148.884422 464.419894 
L 147.103365 465.836382 
L 146.080402 466.682379 
L 144.341528 468.065126 
L 143.276382 468.968733 
L 141.609744 470.293869 
L 140.472362 471.285032 
L 138.915682 472.522613 
L 137.668342 473.640841 
L 136.27138 474.751357 
z
M 136.886483 474.751357 
L 137.668342 474.129817 
L 138.482487 474.751357 
L 137.668342 475.391018 
z
M 139.461117 472.522613 
L 140.472362 471.71866 
L 141.532578 472.522613 
L 140.472362 473.355577 
z
M 142.107341 470.293869 
L 143.276382 469.36437 
L 144.510289 470.293869 
L 143.276382 471.263743 
z
M 144.807894 468.065126 
L 146.080402 467.053231 
L 147.432334 468.065126 
L 146.080402 469.128643 
z
M 147.551793 465.836382 
L 148.884422 464.776532 
L 150.309523 465.836382 
L 148.884422 466.958509 
z
M 150.332529 463.607638 
L 151.688442 462.529129 
L 153.148631 463.607638 
L 151.688442 464.758265 
z
M 153.146975 461.378894 
L 154.492462 460.308581 
L 155.953361 461.378894 
L 154.492462 462.530446 
z
M 155.994799 459.150151 
L 157.296482 458.114669 
L 158.724594 459.150151 
L 157.296482 460.275557 
z
M 158.878234 456.921407 
L 160.100503 455.949198 
L 161.460048 456.921407 
L 160.100503 457.991916 
z
M 161.802144 454.692663 
L 162.904523 453.816027 
L 164.153381 454.692663 
L 162.904523 455.674951 
z
M 164.774372 452.46392 
L 165.708543 451.721326 
L 166.792645 452.46392 
L 165.708543 453.315874 
z
M 167.806389 450.235176 
L 168.512563 449.674098 
L 169.35784 450.235176 
L 168.512563 450.899484 
z
M 171.316583 449.122992 
L 172.734546 448.006432 
L 171.316583 447.101464 
L 170.17697 448.006432 
z
M 170.914341 448.006432 
L 171.316583 447.687012 
L 171.817072 448.006432 
L 171.316583 448.400537 
z
M 174.120603 446.665376 
L 175.242206 445.777688 
L 174.120603 445.095173 
L 173.260671 445.777688 
z
M 176.924623 444.088985 
L 177.600361 443.548945 
L 176.924623 443.160221 
L 176.434644 443.548945 
z
" clip-path="url(#p5f7b4afb20)" style="fill: #92c4de"/>
    <path d="M 134.864322 477.349565 
L 135.334304 476.980101 
L 134.864322 476.618896 
L 134.409924 476.980101 
z
M 137.668342 475.391018 
L 138.482487 474.751357 
L 137.668342 474.129817 
L 136.886483 474.751357 
z
M 137.560559 474.751357 
L 137.668342 474.665675 
L 137.780575 474.751357 
L 137.668342 474.839537 
z
M 140.472362 473.355577 
L 141.532578 472.522613 
L 140.472362 471.71866 
L 139.461117 472.522613 
z
M 140.058845 472.522613 
L 140.472362 472.193862 
L 140.905904 472.522613 
L 140.472362 472.863227 
z
M 143.276382 471.263743 
L 144.510289 470.293869 
L 143.276382 469.36437 
L 142.107341 470.293869 
z
M 142.652646 470.293869 
L 143.276382 469.79794 
L 143.934727 470.293869 
L 143.276382 470.811341 
z
M 146.080402 469.128643 
L 147.432334 468.065126 
L 146.080402 467.053231 
L 144.807894 468.065126 
z
M 145.318972 468.065126 
L 146.080402 467.459639 
L 146.889357 468.065126 
L 146.080402 468.701501 
z
M 148.884422 466.958509 
L 150.309523 465.836382 
L 148.884422 464.776532 
L 147.551793 465.836382 
z
M 148.043214 465.836382 
L 148.884422 465.167363 
L 149.784002 465.836382 
L 148.884422 466.544713 
z
M 151.688442 464.758265 
L 153.148631 463.607638 
L 151.688442 462.529129 
L 150.332529 463.607638 
z
M 150.816717 463.607638 
L 151.688442 462.914258 
L 152.627207 463.607638 
L 151.688442 464.347384 
z
M 154.492462 462.530446 
L 155.953361 461.378894 
L 154.492462 460.308581 
L 153.146975 461.378894 
z
M 153.63533 461.378894 
L 154.492462 460.69706 
L 155.423116 461.378894 
L 154.492462 462.112481 
z
M 157.296482 460.275557 
L 158.724594 459.150151 
L 157.296482 458.114669 
L 155.994799 459.150151 
z
M 156.498608 459.150151 
L 157.296482 458.515446 
L 158.171852 459.150151 
L 157.296482 459.839976 
z
M 160.100503 457.991916 
L 161.460048 456.921407 
L 160.100503 455.949198 
L 158.878234 456.921407 
z
M 159.409492 456.921407 
L 160.100503 456.371768 
L 160.869124 456.921407 
L 160.100503 457.526621 
z
M 162.904523 455.674951 
L 164.153381 454.692663 
L 162.904523 453.816027 
L 161.802144 454.692663 
z
M 162.374402 454.692663 
L 162.904523 454.271099 
L 163.505084 454.692663 
L 162.904523 455.165034 
z
M 165.708543 453.315874 
L 166.792645 452.46392 
L 165.708543 451.721326 
L 164.774372 452.46392 
z
M 165.403698 452.46392 
L 165.708543 452.221592 
L 166.062314 452.46392 
L 165.708543 452.741935 
z
M 168.512563 450.899484 
L 169.35784 450.235176 
L 168.512563 449.674098 
L 167.806389 450.235176 
z
M 171.316583 448.400537 
L 171.817072 448.006432 
L 171.316583 447.687012 
L 170.914341 448.006432 
z
" clip-path="url(#p5f7b4afb20)" style="fill: #519ccc"/>
    <path d="M 137.668342 474.839537 
L 137.780575 474.751357 
L 137.668342 474.665675 
L 137.560559 474.751357 
z
M 140.472362 472.863227 
L 140.905904 472.522613 
L 140.472362 472.193862 
L 140.058845 472.522613 
z
M 143.276382 470.811341 
L 143.934727 470.293869 
L 143.276382 469.79794 
L 142.652646 470.293869 
z
M 143.029895 470.293869 
L 143.276382 470.097889 
L 143.536545 470.293869 
L 143.276382 470.498363 
z
M 146.080402 468.701501 
L 146.889357 468.065126 
L 146.080402 467.459639 
L 145.318972 468.065126 
z
M 145.672544 468.065126 
L 146.080402 467.740798 
L 146.513717 468.065126 
L 146.080402 468.405999 
z
M 148.884422 466.544713 
L 149.784002 465.836382 
L 148.884422 465.167363 
L 148.043214 465.836382 
z
M 148.383186 465.836382 
L 148.884422 465.437745 
L 149.42044 465.836382 
L 148.884422 466.258443 
z
M 151.688442 464.347384 
L 152.627207 463.607638 
L 151.688442 462.914258 
L 150.816717 463.607638 
z
M 151.151685 463.607638 
L 151.688442 463.180695 
L 152.266478 463.607638 
L 151.688442 464.06313 
z
M 154.492462 462.112481 
L 155.423116 461.378894 
L 154.492462 460.69706 
L 153.63533 461.378894 
z
M 153.973182 461.378894 
L 154.492462 460.965815 
L 155.056285 461.378894 
L 154.492462 461.823327 
z
M 157.296482 459.839976 
L 158.171852 459.150151 
L 157.296482 458.515446 
L 156.498608 459.150151 
z
M 156.847149 459.150151 
L 157.296482 458.792709 
L 157.789458 459.150151 
L 157.296482 459.538634 
z
M 160.100503 457.526621 
L 160.869124 456.921407 
L 160.100503 456.371768 
L 159.409492 456.921407 
z
M 159.777023 456.921407 
L 160.100503 456.664107 
L 160.460314 456.921407 
L 160.100503 457.204723 
z
M 162.904523 455.165034 
L 163.505084 454.692663 
L 162.904523 454.271099 
L 162.374402 454.692663 
z
M 162.770297 454.692663 
L 162.904523 454.585924 
L 163.056583 454.692663 
L 162.904523 454.812266 
z
M 165.708543 452.741935 
L 166.062314 452.46392 
L 165.708543 452.221592 
L 165.403698 452.46392 
z
" clip-path="url(#p5f7b4afb20)" style="fill: #2575b7"/>
    <path d="M 143.276382 470.498363 
L 143.536545 470.293869 
L 143.276382 470.097889 
L 143.029895 470.293869 
z
M 146.080402 468.405999 
L 146.513717 468.065126 
L 146.080402 467.740798 
L 145.672544 468.065126 
z
M 145.90356 468.065126 
L 146.080402 467.924501 
L 146.268282 468.065126 
L 146.080402 468.212924 
z
M 148.884422 466.258443 
L 149.42044 465.836382 
L 148.884422 465.437745 
L 148.383186 465.836382 
z
M 148.605316 465.836382 
L 148.884422 465.614407 
L 149.182896 465.836382 
L 148.884422 466.0714 
z
M 151.688442 464.06313 
L 152.266478 463.607638 
L 151.688442 463.180695 
L 151.151685 463.607638 
z
M 151.370546 463.607638 
L 151.688442 463.35478 
L 152.030786 463.607638 
L 151.688442 463.877405 
z
M 154.492462 461.823327 
L 155.056285 461.378894 
L 154.492462 460.965815 
L 153.973182 461.378894 
z
M 154.193926 461.378894 
L 154.492462 461.141414 
L 154.816605 461.378894 
L 154.492462 461.6344 
z
M 157.296482 459.538634 
L 157.789458 459.150151 
L 157.296482 458.792709 
L 156.847149 459.150151 
z
M 157.074879 459.150151 
L 157.296482 458.973866 
L 157.53961 459.150151 
L 157.296482 459.341744 
z
M 160.100503 457.204723 
L 160.460314 456.921407 
L 160.100503 456.664107 
L 159.777023 456.921407 
z
M 160.01716 456.921407 
L 160.100503 456.855115 
L 160.193206 456.921407 
L 160.100503 456.994402 
z
M 162.904523 454.812266 
L 163.056583 454.692663 
L 162.904523 454.585924 
L 162.770297 454.692663 
z
" clip-path="url(#p5f7b4afb20)" style="fill: #0f5aa3"/>
    <path d="M 146.080402 468.212924 
L 146.268282 468.065126 
L 146.080402 467.924501 
L 145.90356 468.065126 
z
M 148.884422 466.0714 
L 149.182896 465.836382 
L 148.884422 465.614407 
L 148.605316 465.836382 
z
M 148.775356 465.836382 
L 148.884422 465.749641 
L 149.001056 465.836382 
L 148.884422 465.92822 
z
M 151.688442 463.877405 
L 152.030786 463.607638 
L 151.688442 463.35478 
L 151.370546 463.607638 
z
M 151.538084 463.607638 
L 151.688442 463.488041 
L 151.850364 463.607638 
L 151.688442 463.735232 
z
M 154.492462 461.6344 
L 154.816605 461.378894 
L 154.492462 461.141414 
L 154.193926 461.378894 
z
M 154.362906 461.378894 
L 154.492462 461.275834 
L 154.633132 461.378894 
L 154.492462 461.489777 
z
M 157.296482 459.341744 
L 157.53961 459.150151 
L 157.296482 458.973866 
L 157.074879 459.150151 
z
M 157.249205 459.150151 
L 157.296482 459.112542 
L 157.348352 459.150151 
L 157.296482 459.191026 
z
M 160.100503 456.994402 
L 160.193206 456.921407 
L 160.100503 456.855115 
L 160.01716 456.921407 
z
" clip-path="url(#p5f7b4afb20)" style="fill: #08478d"/>
    <path d="M 148.884422 465.92822 
L 149.001056 465.836382 
L 148.884422 465.749641 
L 148.775356 465.836382 
z
M 151.688442 463.735232 
L 151.850364 463.607638 
L 151.688442 463.488041 
L 151.538084 463.607638 
z
M 151.666534 463.607638 
L 151.688442 463.590213 
L 151.712035 463.607638 
L 151.688442 463.626229 
z
M 154.492462 461.489777 
L 154.633132 461.378894 
L 154.492462 461.275834 
L 154.362906 461.378894 
z
M 157.296482 459.191026 
L 157.348352 459.150151 
L 157.296482 459.112542 
L 157.249205 459.150151 
z
" clip-path="url(#p5f7b4afb20)" style="fill: #083877"/>
    <path d="M 151.688442 463.626229 
L 151.712035 463.607638 
L 151.688442 463.590213 
L 151.666534 463.607638 
z
" clip-path="url(#p5f7b4afb20)" style="fill: #08316d"/>
   </g>
   <g id="matplotlib.axis_1">
    <g id="xtick_1">
     <g id="line2d_1">
      <defs>
       <path id="mdeeaa67f0f" d="M 0 0 
L 0 3.5 
" style="stroke: #000000; stroke-width: 0.8"/>
      </defs>
      <g>
       <use xlink:href="#mdeeaa67f0f" x="154.077972" y="512.64" style="stroke: #000000; stroke-width: 0.8"/>
      </g>
     </g>
     <g id="text_1">
      <!-- 0 -->
      <g transform="translate(150.896722 527.238438) scale(0.1 -0.1)">
       <defs>
        <path id="DejaVuSans-30" d="M 2034 4250 
Q 1547 4250 1301 3770 
Q 1056 3291 1056 2328 
Q 1056 1369 1301 889 
Q 1547 409 2034 409 
Q 2525 409 2770 889 
Q 3016 1369 3016 2328 
Q 3016 3291 2770 3770 
Q 2525 4250 2034 4250 
z
M 2034 4750 
Q 2819 4750 3233 4129 
Q 3647 3509 3647 2328 
Q 3647 1150 3233 529 
Q 2819 -91 2034 -91 
Q 1250 -91 836 529 
Q 422 1150 422 2328 
Q 422 3509 836 4129 
Q 1250 4750 2034 4750 
z
" transform="scale(0.015625)"/>
       </defs>
       <use xlink:href="#DejaVuSans-30"/>
      </g>
     </g>
    </g>
    <g id="xtick_2">
     <g id="line2d_2">
      <g>
       <use xlink:href="#mdeeaa67f0f" x="235.964675" y="512.64" style="stroke: #000000; stroke-width: 0.8"/>
      </g>
     </g>
     <g id="text_2">
      <!-- 100 -->
      <g transform="translate(226.420925 527.238438) scale(0.1 -0.1)">
       <defs>
        <path id="DejaVuSans-31" d="M 794 531 
L 1825 531 
L 1825 4091 
L 703 3866 
L 703 4441 
L 1819 4666 
L 2450 4666 
L 2450 531 
L 3481 531 
L 3481 0 
L 794 0 
L 794 531 
z
" transform="scale(0.015625)"/>
       </defs>
       <use xlink:href="#DejaVuSans-31"/>
       <use xlink:href="#DejaVuSans-30" x="63.623047"/>
       <use xlink:href="#DejaVuSans-30" x="127.246094"/>
      </g>
     </g>
    </g>
    <g id="xtick_3">
     <g id="line2d_3">
      <g>
       <use xlink:href="#mdeeaa67f0f" x="317.851378" y="512.64" style="stroke: #000000; stroke-width: 0.8"/>
      </g>
     </g>
     <g id="text_3">
      <!-- 200 -->
      <g transform="translate(308.307628 527.238438) scale(0.1 -0.1)">
       <defs>
        <path id="DejaVuSans-32" d="M 1228 531 
L 3431 531 
L 3431 0 
L 469 0 
L 469 531 
Q 828 903 1448 1529 
Q 2069 2156 2228 2338 
Q 2531 2678 2651 2914 
Q 2772 3150 2772 3378 
Q 2772 3750 2511 3984 
Q 2250 4219 1831 4219 
Q 1534 4219 1204 4116 
Q 875 4013 500 3803 
L 500 4441 
Q 881 4594 1212 4672 
Q 1544 4750 1819 4750 
Q 2544 4750 2975 4387 
Q 3406 4025 3406 3419 
Q 3406 3131 3298 2873 
Q 3191 2616 2906 2266 
Q 2828 2175 2409 1742 
Q 1991 1309 1228 531 
z
" transform="scale(0.015625)"/>
       </defs>
       <use xlink:href="#DejaVuSans-32"/>
       <use xlink:href="#DejaVuSans-30" x="63.623047"/>
       <use xlink:href="#DejaVuSans-30" x="127.246094"/>
      </g>
     </g>
    </g>
    <g id="xtick_4">
     <g id="line2d_4">
      <g>
       <use xlink:href="#mdeeaa67f0f" x="399.738081" y="512.64" style="stroke: #000000; stroke-width: 0.8"/>
      </g>
     </g>
     <g id="text_4">
      <!-- 300 -->
      <g transform="translate(390.194331 527.238438) scale(0.1 -0.1)">
       <defs>
        <path id="DejaVuSans-33" d="M 2597 2516 
Q 3050 2419 3304 2112 
Q 3559 1806 3559 1356 
Q 3559 666 3084 287 
Q 2609 -91 1734 -91 
Q 1441 -91 1130 -33 
Q 819 25 488 141 
L 488 750 
Q 750 597 1062 519 
Q 1375 441 1716 441 
Q 2309 441 2620 675 
Q 2931 909 2931 1356 
Q 2931 1769 2642 2001 
Q 2353 2234 1838 2234 
L 1294 2234 
L 1294 2753 
L 1863 2753 
Q 2328 2753 2575 2939 
Q 2822 3125 2822 3475 
Q 2822 3834 2567 4026 
Q 2313 4219 1838 4219 
Q 1578 4219 1281 4162 
Q 984 4106 628 3988 
L 628 4550 
Q 988 4650 1302 4700 
Q 1616 4750 1894 4750 
Q 2613 4750 3031 4423 
Q 3450 4097 3450 3541 
Q 3450 3153 3228 2886 
Q 3006 2619 2597 2516 
z
" transform="scale(0.015625)"/>
       </defs>
       <use xlink:href="#DejaVuSans-33"/>
       <use xlink:href="#DejaVuSans-30" x="63.623047"/>
       <use xlink:href="#DejaVuSans-30" x="127.246094"/>
      </g>
     </g>
    </g>
    <g id="xtick_5">
     <g id="line2d_5">
      <g>
       <use xlink:href="#mdeeaa67f0f" x="481.624784" y="512.64" style="stroke: #000000; stroke-width: 0.8"/>
      </g>
     </g>
     <g id="text_5">
      <!-- 400 -->
      <g transform="translate(472.081034 527.238438) scale(0.1 -0.1)">
       <defs>
        <path id="DejaVuSans-34" d="M 2419 4116 
L 825 1625 
L 2419 1625 
L 2419 4116 
z
M 2253 4666 
L 3047 4666 
L 3047 1625 
L 3713 1625 
L 3713 1100 
L 3047 1100 
L 3047 0 
L 2419 0 
L 2419 1100 
L 313 1100 
L 313 1709 
L 2253 4666 
z
" transform="scale(0.015625)"/>
       </defs>
       <use xlink:href="#DejaVuSans-34"/>
       <use xlink:href="#DejaVuSans-30" x="63.623047"/>
       <use xlink:href="#DejaVuSans-30" x="127.246094"/>
      </g>
     </g>
    </g>
    <g id="xtick_6">
     <g id="line2d_6">
      <g>
       <use xlink:href="#mdeeaa67f0f" x="563.511487" y="512.64" style="stroke: #000000; stroke-width: 0.8"/>
      </g>
     </g>
     <g id="text_6">
      <!-- 500 -->
      <g transform="translate(553.967737 527.238438) scale(0.1 -0.1)">
       <defs>
        <path id="DejaVuSans-35" d="M 691 4666 
L 3169 4666 
L 3169 4134 
L 1269 4134 
L 1269 2991 
Q 1406 3038 1543 3061 
Q 1681 3084 1819 3084 
Q 2600 3084 3056 2656 
Q 3513 2228 3513 1497 
Q 3513 744 3044 326 
Q 2575 -91 1722 -91 
Q 1428 -91 1123 -41 
Q 819 9 494 109 
L 494 744 
Q 775 591 1075 516 
Q 1375 441 1709 441 
Q 2250 441 2565 725 
Q 2881 1009 2881 1497 
Q 2881 1984 2565 2268 
Q 2250 2553 1709 2553 
Q 1456 2553 1204 2497 
Q 953 2441 691 2322 
L 691 4666 
z
" transform="scale(0.015625)"/>
       </defs>
       <use xlink:href="#DejaVuSans-35"/>
       <use xlink:href="#DejaVuSans-30" x="63.623047"/>
       <use xlink:href="#DejaVuSans-30" x="127.246094"/>
      </g>
     </g>
    </g>
    <g id="xtick_7">
     <g id="line2d_7">
      <g>
       <use xlink:href="#mdeeaa67f0f" x="645.39819" y="512.64" style="stroke: #000000; stroke-width: 0.8"/>
      </g>
     </g>
     <g id="text_7">
      <!-- 600 -->
      <g transform="translate(635.85444 527.238438) scale(0.1 -0.1)">
       <defs>
        <path id="DejaVuSans-36" d="M 2113 2584 
Q 1688 2584 1439 2293 
Q 1191 2003 1191 1497 
Q 1191 994 1439 701 
Q 1688 409 2113 409 
Q 2538 409 2786 701 
Q 3034 994 3034 1497 
Q 3034 2003 2786 2293 
Q 2538 2584 2113 2584 
z
M 3366 4563 
L 3366 3988 
Q 3128 4100 2886 4159 
Q 2644 4219 2406 4219 
Q 1781 4219 1451 3797 
Q 1122 3375 1075 2522 
Q 1259 2794 1537 2939 
Q 1816 3084 2150 3084 
Q 2853 3084 3261 2657 
Q 3669 2231 3669 1497 
Q 3669 778 3244 343 
Q 2819 -91 2113 -91 
Q 1303 -91 875 529 
Q 447 1150 447 2328 
Q 447 3434 972 4092 
Q 1497 4750 2381 4750 
Q 2619 4750 2861 4703 
Q 3103 4656 3366 4563 
z
" transform="scale(0.015625)"/>
       </defs>
       <use xlink:href="#DejaVuSans-36"/>
       <use xlink:href="#DejaVuSans-30" x="63.623047"/>
       <use xlink:href="#DejaVuSans-30" x="127.246094"/>
      </g>
     </g>
    </g>
    <g id="text_8">
     <!-- Ground Truth Energy -->
     <g transform="translate(317.257812 540.916563) scale(0.1 -0.1)">
      <defs>
       <path id="DejaVuSans-47" d="M 3809 666 
L 3809 1919 
L 2778 1919 
L 2778 2438 
L 4434 2438 
L 4434 434 
Q 4069 175 3628 42 
Q 3188 -91 2688 -91 
Q 1594 -91 976 548 
Q 359 1188 359 2328 
Q 359 3472 976 4111 
Q 1594 4750 2688 4750 
Q 3144 4750 3555 4637 
Q 3966 4525 4313 4306 
L 4313 3634 
Q 3963 3931 3569 4081 
Q 3175 4231 2741 4231 
Q 1884 4231 1454 3753 
Q 1025 3275 1025 2328 
Q 1025 1384 1454 906 
Q 1884 428 2741 428 
Q 3075 428 3337 486 
Q 3600 544 3809 666 
z
" transform="scale(0.015625)"/>
       <path id="DejaVuSans-72" d="M 2631 2963 
Q 2534 3019 2420 3045 
Q 2306 3072 2169 3072 
Q 1681 3072 1420 2755 
Q 1159 2438 1159 1844 
L 1159 0 
L 581 0 
L 581 3500 
L 1159 3500 
L 1159 2956 
Q 1341 3275 1631 3429 
Q 1922 3584 2338 3584 
Q 2397 3584 2469 3576 
Q 2541 3569 2628 3553 
L 2631 2963 
z
" transform="scale(0.015625)"/>
       <path id="DejaVuSans-6f" d="M 1959 3097 
Q 1497 3097 1228 2736 
Q 959 2375 959 1747 
Q 959 1119 1226 758 
Q 1494 397 1959 397 
Q 2419 397 2687 759 
Q 2956 1122 2956 1747 
Q 2956 2369 2687 2733 
Q 2419 3097 1959 3097 
z
M 1959 3584 
Q 2709 3584 3137 3096 
Q 3566 2609 3566 1747 
Q 3566 888 3137 398 
Q 2709 -91 1959 -91 
Q 1206 -91 779 398 
Q 353 888 353 1747 
Q 353 2609 779 3096 
Q 1206 3584 1959 3584 
z
" transform="scale(0.015625)"/>
       <path id="DejaVuSans-75" d="M 544 1381 
L 544 3500 
L 1119 3500 
L 1119 1403 
Q 1119 906 1312 657 
Q 1506 409 1894 409 
Q 2359 409 2629 706 
Q 2900 1003 2900 1516 
L 2900 3500 
L 3475 3500 
L 3475 0 
L 2900 0 
L 2900 538 
Q 2691 219 2414 64 
Q 2138 -91 1772 -91 
Q 1169 -91 856 284 
Q 544 659 544 1381 
z
M 1991 3584 
L 1991 3584 
z
" transform="scale(0.015625)"/>
       <path id="DejaVuSans-6e" d="M 3513 2113 
L 3513 0 
L 2938 0 
L 2938 2094 
Q 2938 2591 2744 2837 
Q 2550 3084 2163 3084 
Q 1697 3084 1428 2787 
Q 1159 2491 1159 1978 
L 1159 0 
L 581 0 
L 581 3500 
L 1159 3500 
L 1159 2956 
Q 1366 3272 1645 3428 
Q 1925 3584 2291 3584 
Q 2894 3584 3203 3211 
Q 3513 2838 3513 2113 
z
" transform="scale(0.015625)"/>
       <path id="DejaVuSans-64" d="M 2906 2969 
L 2906 4863 
L 3481 4863 
L 3481 0 
L 2906 0 
L 2906 525 
Q 2725 213 2448 61 
Q 2172 -91 1784 -91 
Q 1150 -91 751 415 
Q 353 922 353 1747 
Q 353 2572 751 3078 
Q 1150 3584 1784 3584 
Q 2172 3584 2448 3432 
Q 2725 3281 2906 2969 
z
M 947 1747 
Q 947 1113 1208 752 
Q 1469 391 1925 391 
Q 2381 391 2643 752 
Q 2906 1113 2906 1747 
Q 2906 2381 2643 2742 
Q 2381 3103 1925 3103 
Q 1469 3103 1208 2742 
Q 947 2381 947 1747 
z
" transform="scale(0.015625)"/>
       <path id="DejaVuSans-20" transform="scale(0.015625)"/>
       <path id="DejaVuSans-54" d="M -19 4666 
L 3928 4666 
L 3928 4134 
L 2272 4134 
L 2272 0 
L 1638 0 
L 1638 4134 
L -19 4134 
L -19 4666 
z
" transform="scale(0.015625)"/>
       <path id="DejaVuSans-74" d="M 1172 4494 
L 1172 3500 
L 2356 3500 
L 2356 3053 
L 1172 3053 
L 1172 1153 
Q 1172 725 1289 603 
Q 1406 481 1766 481 
L 2356 481 
L 2356 0 
L 1766 0 
Q 1100 0 847 248 
Q 594 497 594 1153 
L 594 3053 
L 172 3053 
L 172 3500 
L 594 3500 
L 594 4494 
L 1172 4494 
z
" transform="scale(0.015625)"/>
       <path id="DejaVuSans-68" d="M 3513 2113 
L 3513 0 
L 2938 0 
L 2938 2094 
Q 2938 2591 2744 2837 
Q 2550 3084 2163 3084 
Q 1697 3084 1428 2787 
Q 1159 2491 1159 1978 
L 1159 0 
L 581 0 
L 581 4863 
L 1159 4863 
L 1159 2956 
Q 1366 3272 1645 3428 
Q 1925 3584 2291 3584 
Q 2894 3584 3203 3211 
Q 3513 2838 3513 2113 
z
" transform="scale(0.015625)"/>
       <path id="DejaVuSans-45" d="M 628 4666 
L 3578 4666 
L 3578 4134 
L 1259 4134 
L 1259 2753 
L 3481 2753 
L 3481 2222 
L 1259 2222 
L 1259 531 
L 3634 531 
L 3634 0 
L 628 0 
L 628 4666 
z
" transform="scale(0.015625)"/>
       <path id="DejaVuSans-65" d="M 3597 1894 
L 3597 1613 
L 953 1613 
Q 991 1019 1311 708 
Q 1631 397 2203 397 
Q 2534 397 2845 478 
Q 3156 559 3463 722 
L 3463 178 
Q 3153 47 2828 -22 
Q 2503 -91 2169 -91 
Q 1331 -91 842 396 
Q 353 884 353 1716 
Q 353 2575 817 3079 
Q 1281 3584 2069 3584 
Q 2775 3584 3186 3129 
Q 3597 2675 3597 1894 
z
M 3022 2063 
Q 3016 2534 2758 2815 
Q 2500 3097 2075 3097 
Q 1594 3097 1305 2825 
Q 1016 2553 972 2059 
L 3022 2063 
z
" transform="scale(0.015625)"/>
       <path id="DejaVuSans-67" d="M 2906 1791 
Q 2906 2416 2648 2759 
Q 2391 3103 1925 3103 
Q 1463 3103 1205 2759 
Q 947 2416 947 1791 
Q 947 1169 1205 825 
Q 1463 481 1925 481 
Q 2391 481 2648 825 
Q 2906 1169 2906 1791 
z
M 3481 434 
Q 3481 -459 3084 -895 
Q 2688 -1331 1869 -1331 
Q 1566 -1331 1297 -1286 
Q 1028 -1241 775 -1147 
L 775 -588 
Q 1028 -725 1275 -790 
Q 1522 -856 1778 -856 
Q 2344 -856 2625 -561 
Q 2906 -266 2906 331 
L 2906 616 
Q 2728 306 2450 153 
Q 2172 0 1784 0 
Q 1141 0 747 490 
Q 353 981 353 1791 
Q 353 2603 747 3093 
Q 1141 3584 1784 3584 
Q 2172 3584 2450 3431 
Q 2728 3278 2906 2969 
L 2906 3500 
L 3481 3500 
L 3481 434 
z
" transform="scale(0.015625)"/>
       <path id="DejaVuSans-79" d="M 2059 -325 
Q 1816 -950 1584 -1140 
Q 1353 -1331 966 -1331 
L 506 -1331 
L 506 -850 
L 844 -850 
Q 1081 -850 1212 -737 
Q 1344 -625 1503 -206 
L 1606 56 
L 191 3500 
L 800 3500 
L 1894 763 
L 2988 3500 
L 3597 3500 
L 2059 -325 
z
" transform="scale(0.015625)"/>
      </defs>
      <use xlink:href="#DejaVuSans-47"/>
      <use xlink:href="#DejaVuSans-72" x="77.490234"/>
      <use xlink:href="#DejaVuSans-6f" x="116.353516"/>
      <use xlink:href="#DejaVuSans-75" x="177.535156"/>
      <use xlink:href="#DejaVuSans-6e" x="240.914062"/>
      <use xlink:href="#DejaVuSans-64" x="304.292969"/>
      <use xlink:href="#DejaVuSans-20" x="367.769531"/>
      <use xlink:href="#DejaVuSans-54" x="399.556641"/>
      <use xlink:href="#DejaVuSans-72" x="445.890625"/>
      <use xlink:href="#DejaVuSans-75" x="487.003906"/>
      <use xlink:href="#DejaVuSans-74" x="550.382812"/>
      <use xlink:href="#DejaVuSans-68" x="589.591797"/>
      <use xlink:href="#DejaVuSans-20" x="652.970703"/>
      <use xlink:href="#DejaVuSans-45" x="684.757812"/>
      <use xlink:href="#DejaVuSans-6e" x="747.941406"/>
      <use xlink:href="#DejaVuSans-65" x="811.320312"/>
      <use xlink:href="#DejaVuSans-72" x="872.84375"/>
      <use xlink:href="#DejaVuSans-67" x="912.207031"/>
      <use xlink:href="#DejaVuSans-79" x="975.683594"/>
     </g>
    </g>
   </g>
   <g id="matplotlib.axis_2">
    <g id="ytick_1">
     <g id="line2d_8">
      <defs>
       <path id="m50a33f66b6" d="M 0 0 
L -3.5 0 
" style="stroke: #000000; stroke-width: 0.8"/>
      </defs>
      <g>
       <use xlink:href="#m50a33f66b6" x="90" y="462.8711" style="stroke: #000000; stroke-width: 0.8"/>
      </g>
     </g>
     <g id="text_9">
      <!-- 0 -->
      <g transform="translate(76.6375 466.670318) scale(0.1 -0.1)">
       <use xlink:href="#DejaVuSans-30"/>
      </g>
     </g>
    </g>
    <g id="ytick_2">
     <g id="line2d_9">
      <g>
       <use xlink:href="#m50a33f66b6" x="90" y="398.31531" style="stroke: #000000; stroke-width: 0.8"/>
      </g>
     </g>
     <g id="text_10">
      <!-- 100 -->
      <g transform="translate(63.9125 402.114528) scale(0.1 -0.1)">
       <use xlink:href="#DejaVuSans-31"/>
       <use xlink:href="#DejaVuSans-30" x="63.623047"/>
       <use xlink:href="#DejaVuSans-30" x="127.246094"/>
      </g>
     </g>
    </g>
    <g id="ytick_3">
     <g id="line2d_10">
      <g>
       <use xlink:href="#m50a33f66b6" x="90" y="333.75952" style="stroke: #000000; stroke-width: 0.8"/>
      </g>
     </g>
     <g id="text_11">
      <!-- 200 -->
      <g transform="translate(63.9125 337.558738) scale(0.1 -0.1)">
       <use xlink:href="#DejaVuSans-32"/>
       <use xlink:href="#DejaVuSans-30" x="63.623047"/>
       <use xlink:href="#DejaVuSans-30" x="127.246094"/>
      </g>
     </g>
    </g>
    <g id="ytick_4">
     <g id="line2d_11">
      <g>
       <use xlink:href="#m50a33f66b6" x="90" y="269.20373" style="stroke: #000000; stroke-width: 0.8"/>
      </g>
     </g>
     <g id="text_12">
      <!-- 300 -->
      <g transform="translate(63.9125 273.002948) scale(0.1 -0.1)">
       <use xlink:href="#DejaVuSans-33"/>
       <use xlink:href="#DejaVuSans-30" x="63.623047"/>
       <use xlink:href="#DejaVuSans-30" x="127.246094"/>
      </g>
     </g>
    </g>
    <g id="ytick_5">
     <g id="line2d_12">
      <g>
       <use xlink:href="#m50a33f66b6" x="90" y="204.647939" style="stroke: #000000; stroke-width: 0.8"/>
      </g>
     </g>
     <g id="text_13">
      <!-- 400 -->
      <g transform="translate(63.9125 208.447158) scale(0.1 -0.1)">
       <use xlink:href="#DejaVuSans-34"/>
       <use xlink:href="#DejaVuSans-30" x="63.623047"/>
       <use xlink:href="#DejaVuSans-30" x="127.246094"/>
      </g>
     </g>
    </g>
    <g id="ytick_6">
     <g id="line2d_13">
      <g>
       <use xlink:href="#m50a33f66b6" x="90" y="140.092149" style="stroke: #000000; stroke-width: 0.8"/>
      </g>
     </g>
     <g id="text_14">
      <!-- 500 -->
      <g transform="translate(63.9125 143.891368) scale(0.1 -0.1)">
       <use xlink:href="#DejaVuSans-35"/>
       <use xlink:href="#DejaVuSans-30" x="63.623047"/>
       <use xlink:href="#DejaVuSans-30" x="127.246094"/>
      </g>
     </g>
    </g>
    <g id="ytick_7">
     <g id="line2d_14">
      <g>
       <use xlink:href="#m50a33f66b6" x="90" y="75.536359" style="stroke: #000000; stroke-width: 0.8"/>
      </g>
     </g>
     <g id="text_15">
      <!-- 600 -->
      <g transform="translate(63.9125 79.335578) scale(0.1 -0.1)">
       <use xlink:href="#DejaVuSans-36"/>
       <use xlink:href="#DejaVuSans-30" x="63.623047"/>
       <use xlink:href="#DejaVuSans-30" x="127.246094"/>
      </g>
     </g>
    </g>
    <g id="text_16">
     <!-- Predicted Energy -->
     <g transform="translate(57.832812 333.445625) rotate(-90) scale(0.1 -0.1)">
      <defs>
       <path id="DejaVuSans-50" d="M 1259 4147 
L 1259 2394 
L 2053 2394 
Q 2494 2394 2734 2622 
Q 2975 2850 2975 3272 
Q 2975 3691 2734 3919 
Q 2494 4147 2053 4147 
L 1259 4147 
z
M 628 4666 
L 2053 4666 
Q 2838 4666 3239 4311 
Q 3641 3956 3641 3272 
Q 3641 2581 3239 2228 
Q 2838 1875 2053 1875 
L 1259 1875 
L 1259 0 
L 628 0 
L 628 4666 
z
" transform="scale(0.015625)"/>
       <path id="DejaVuSans-69" d="M 603 3500 
L 1178 3500 
L 1178 0 
L 603 0 
L 603 3500 
z
M 603 4863 
L 1178 4863 
L 1178 4134 
L 603 4134 
L 603 4863 
z
" transform="scale(0.015625)"/>
       <path id="DejaVuSans-63" d="M 3122 3366 
L 3122 2828 
Q 2878 2963 2633 3030 
Q 2388 3097 2138 3097 
Q 1578 3097 1268 2742 
Q 959 2388 959 1747 
Q 959 1106 1268 751 
Q 1578 397 2138 397 
Q 2388 397 2633 464 
Q 2878 531 3122 666 
L 3122 134 
Q 2881 22 2623 -34 
Q 2366 -91 2075 -91 
Q 1284 -91 818 406 
Q 353 903 353 1747 
Q 353 2603 823 3093 
Q 1294 3584 2113 3584 
Q 2378 3584 2631 3529 
Q 2884 3475 3122 3366 
z
" transform="scale(0.015625)"/>
      </defs>
      <use xlink:href="#DejaVuSans-50"/>
      <use xlink:href="#DejaVuSans-72" x="58.552734"/>
      <use xlink:href="#DejaVuSans-65" x="97.416016"/>
      <use xlink:href="#DejaVuSans-64" x="158.939453"/>
      <use xlink:href="#DejaVuSans-69" x="222.416016"/>
      <use xlink:href="#DejaVuSans-63" x="250.199219"/>
      <use xlink:href="#DejaVuSans-74" x="305.179688"/>
      <use xlink:href="#DejaVuSans-65" x="344.388672"/>
      <use xlink:href="#DejaVuSans-64" x="405.912109"/>
      <use xlink:href="#DejaVuSans-20" x="469.388672"/>
      <use xlink:href="#DejaVuSans-45" x="501.175781"/>
      <use xlink:href="#DejaVuSans-6e" x="564.359375"/>
      <use xlink:href="#DejaVuSans-65" x="627.738281"/>
      <use xlink:href="#DejaVuSans-72" x="689.261719"/>
      <use xlink:href="#DejaVuSans-67" x="728.625"/>
      <use xlink:href="#DejaVuSans-79" x="792.101562"/>
     </g>
    </g>
   </g>
   <g id="line2d_15">
    <path d="M 122.908736 487.443521 
L 615.091264 99.428976 
" clip-path="url(#p5f7b4afb20)" style="fill: none; stroke-dasharray: 5.55,2.4; stroke-dashoffset: 0; stroke: #ff0000; stroke-width: 1.5"/>
   </g>
   <g id="patch_3">
    <path d="M 90 512.64 
L 90 69.12 
" style="fill: none; stroke: #000000; stroke-width: 0.8; stroke-linejoin: miter; stroke-linecap: square"/>
   </g>
   <g id="patch_4">
    <path d="M 648 512.64 
L 648 69.12 
" style="fill: none; stroke: #000000; stroke-width: 0.8; stroke-linejoin: miter; stroke-linecap: square"/>
   </g>
   <g id="patch_5">
    <path d="M 90 512.64 
L 648 512.64 
" style="fill: none; stroke: #000000; stroke-width: 0.8; stroke-linejoin: miter; stroke-linecap: square"/>
   </g>
   <g id="patch_6">
    <path d="M 90 69.12 
L 648 69.12 
" style="fill: none; stroke: #000000; stroke-width: 0.8; stroke-linejoin: miter; stroke-linecap: square"/>
   </g>
   <g id="text_17">
    <!-- Energy R2 Score: 0.9984660138953951 -->
    <g transform="translate(145.8 113.472) scale(0.1 -0.1)">
     <defs>
      <path id="DejaVuSans-52" d="M 2841 2188 
Q 3044 2119 3236 1894 
Q 3428 1669 3622 1275 
L 4263 0 
L 3584 0 
L 2988 1197 
Q 2756 1666 2539 1819 
Q 2322 1972 1947 1972 
L 1259 1972 
L 1259 0 
L 628 0 
L 628 4666 
L 2053 4666 
Q 2853 4666 3247 4331 
Q 3641 3997 3641 3322 
Q 3641 2881 3436 2590 
Q 3231 2300 2841 2188 
z
M 1259 4147 
L 1259 2491 
L 2053 2491 
Q 2509 2491 2742 2702 
Q 2975 2913 2975 3322 
Q 2975 3731 2742 3939 
Q 2509 4147 2053 4147 
L 1259 4147 
z
" transform="scale(0.015625)"/>
      <path id="DejaVuSans-53" d="M 3425 4513 
L 3425 3897 
Q 3066 4069 2747 4153 
Q 2428 4238 2131 4238 
Q 1616 4238 1336 4038 
Q 1056 3838 1056 3469 
Q 1056 3159 1242 3001 
Q 1428 2844 1947 2747 
L 2328 2669 
Q 3034 2534 3370 2195 
Q 3706 1856 3706 1288 
Q 3706 609 3251 259 
Q 2797 -91 1919 -91 
Q 1588 -91 1214 -16 
Q 841 59 441 206 
L 441 856 
Q 825 641 1194 531 
Q 1563 422 1919 422 
Q 2459 422 2753 634 
Q 3047 847 3047 1241 
Q 3047 1584 2836 1778 
Q 2625 1972 2144 2069 
L 1759 2144 
Q 1053 2284 737 2584 
Q 422 2884 422 3419 
Q 422 4038 858 4394 
Q 1294 4750 2059 4750 
Q 2388 4750 2728 4690 
Q 3069 4631 3425 4513 
z
" transform="scale(0.015625)"/>
      <path id="DejaVuSans-3a" d="M 750 794 
L 1409 794 
L 1409 0 
L 750 0 
L 750 794 
z
M 750 3309 
L 1409 3309 
L 1409 2516 
L 750 2516 
L 750 3309 
z
" transform="scale(0.015625)"/>
      <path id="DejaVuSans-2e" d="M 684 794 
L 1344 794 
L 1344 0 
L 684 0 
L 684 794 
z
" transform="scale(0.015625)"/>
      <path id="DejaVuSans-39" d="M 703 97 
L 703 672 
Q 941 559 1184 500 
Q 1428 441 1663 441 
Q 2288 441 2617 861 
Q 2947 1281 2994 2138 
Q 2813 1869 2534 1725 
Q 2256 1581 1919 1581 
Q 1219 1581 811 2004 
Q 403 2428 403 3163 
Q 403 3881 828 4315 
Q 1253 4750 1959 4750 
Q 2769 4750 3195 4129 
Q 3622 3509 3622 2328 
Q 3622 1225 3098 567 
Q 2575 -91 1691 -91 
Q 1453 -91 1209 -44 
Q 966 3 703 97 
z
M 1959 2075 
Q 2384 2075 2632 2365 
Q 2881 2656 2881 3163 
Q 2881 3666 2632 3958 
Q 2384 4250 1959 4250 
Q 1534 4250 1286 3958 
Q 1038 3666 1038 3163 
Q 1038 2656 1286 2365 
Q 1534 2075 1959 2075 
z
" transform="scale(0.015625)"/>
      <path id="DejaVuSans-38" d="M 2034 2216 
Q 1584 2216 1326 1975 
Q 1069 1734 1069 1313 
Q 1069 891 1326 650 
Q 1584 409 2034 409 
Q 2484 409 2743 651 
Q 3003 894 3003 1313 
Q 3003 1734 2745 1975 
Q 2488 2216 2034 2216 
z
M 1403 2484 
Q 997 2584 770 2862 
Q 544 3141 544 3541 
Q 544 4100 942 4425 
Q 1341 4750 2034 4750 
Q 2731 4750 3128 4425 
Q 3525 4100 3525 3541 
Q 3525 3141 3298 2862 
Q 3072 2584 2669 2484 
Q 3125 2378 3379 2068 
Q 3634 1759 3634 1313 
Q 3634 634 3220 271 
Q 2806 -91 2034 -91 
Q 1263 -91 848 271 
Q 434 634 434 1313 
Q 434 1759 690 2068 
Q 947 2378 1403 2484 
z
M 1172 3481 
Q 1172 3119 1398 2916 
Q 1625 2713 2034 2713 
Q 2441 2713 2670 2916 
Q 2900 3119 2900 3481 
Q 2900 3844 2670 4047 
Q 2441 4250 2034 4250 
Q 1625 4250 1398 4047 
Q 1172 3844 1172 3481 
z
" transform="scale(0.015625)"/>
     </defs>
     <use xlink:href="#DejaVuSans-45"/>
     <use xlink:href="#DejaVuSans-6e" x="63.183594"/>
     <use xlink:href="#DejaVuSans-65" x="126.5625"/>
     <use xlink:href="#DejaVuSans-72" x="188.085938"/>
     <use xlink:href="#DejaVuSans-67" x="227.449219"/>
     <use xlink:href="#DejaVuSans-79" x="290.925781"/>
     <use xlink:href="#DejaVuSans-20" x="350.105469"/>
     <use xlink:href="#DejaVuSans-52" x="381.892578"/>
     <use xlink:href="#DejaVuSans-32" x="451.375"/>
     <use xlink:href="#DejaVuSans-20" x="514.998047"/>
     <use xlink:href="#DejaVuSans-53" x="546.785156"/>
     <use xlink:href="#DejaVuSans-63" x="610.261719"/>
     <use xlink:href="#DejaVuSans-6f" x="665.242188"/>
     <use xlink:href="#DejaVuSans-72" x="726.423828"/>
     <use xlink:href="#DejaVuSans-65" x="765.287109"/>
     <use xlink:href="#DejaVuSans-3a" x="826.810547"/>
     <use xlink:href="#DejaVuSans-20" x="860.501953"/>
     <use xlink:href="#DejaVuSans-30" x="892.289062"/>
     <use xlink:href="#DejaVuSans-2e" x="955.912109"/>
     <use xlink:href="#DejaVuSans-39" x="987.699219"/>
     <use xlink:href="#DejaVuSans-39" x="1051.322266"/>
     <use xlink:href="#DejaVuSans-38" x="1114.945312"/>
     <use xlink:href="#DejaVuSans-34" x="1178.568359"/>
     <use xlink:href="#DejaVuSans-36" x="1242.191406"/>
     <use xlink:href="#DejaVuSans-36" x="1305.814453"/>
     <use xlink:href="#DejaVuSans-30" x="1369.4375"/>
     <use xlink:href="#DejaVuSans-31" x="1433.060547"/>
     <use xlink:href="#DejaVuSans-33" x="1496.683594"/>
     <use xlink:href="#DejaVuSans-38" x="1560.306641"/>
     <use xlink:href="#DejaVuSans-39" x="1623.929688"/>
     <use xlink:href="#DejaVuSans-35" x="1687.552734"/>
     <use xlink:href="#DejaVuSans-33" x="1751.175781"/>
     <use xlink:href="#DejaVuSans-39" x="1814.798828"/>
     <use xlink:href="#DejaVuSans-35" x="1878.421875"/>
     <use xlink:href="#DejaVuSans-31" x="1942.044922"/>
    </g>
   </g>
   <g id="text_18">
    <!-- MVE In Distribution -->
    <g transform="translate(311.53875 63.12) scale(0.12 -0.12)">
     <defs>
      <path id="DejaVuSans-4d" d="M 628 4666 
L 1569 4666 
L 2759 1491 
L 3956 4666 
L 4897 4666 
L 4897 0 
L 4281 0 
L 4281 4097 
L 3078 897 
L 2444 897 
L 1241 4097 
L 1241 0 
L 628 0 
L 628 4666 
z
" transform="scale(0.015625)"/>
      <path id="DejaVuSans-56" d="M 1831 0 
L 50 4666 
L 709 4666 
L 2188 738 
L 3669 4666 
L 4325 4666 
L 2547 0 
L 1831 0 
z
" transform="scale(0.015625)"/>
      <path id="DejaVuSans-49" d="M 628 4666 
L 1259 4666 
L 1259 0 
L 628 0 
L 628 4666 
z
" transform="scale(0.015625)"/>
      <path id="DejaVuSans-44" d="M 1259 4147 
L 1259 519 
L 2022 519 
Q 2988 519 3436 956 
Q 3884 1394 3884 2338 
Q 3884 3275 3436 3711 
Q 2988 4147 2022 4147 
L 1259 4147 
z
M 628 4666 
L 1925 4666 
Q 3281 4666 3915 4102 
Q 4550 3538 4550 2338 
Q 4550 1131 3912 565 
Q 3275 0 1925 0 
L 628 0 
L 628 4666 
z
" transform="scale(0.015625)"/>
      <path id="DejaVuSans-73" d="M 2834 3397 
L 2834 2853 
Q 2591 2978 2328 3040 
Q 2066 3103 1784 3103 
Q 1356 3103 1142 2972 
Q 928 2841 928 2578 
Q 928 2378 1081 2264 
Q 1234 2150 1697 2047 
L 1894 2003 
Q 2506 1872 2764 1633 
Q 3022 1394 3022 966 
Q 3022 478 2636 193 
Q 2250 -91 1575 -91 
Q 1294 -91 989 -36 
Q 684 19 347 128 
L 347 722 
Q 666 556 975 473 
Q 1284 391 1588 391 
Q 1994 391 2212 530 
Q 2431 669 2431 922 
Q 2431 1156 2273 1281 
Q 2116 1406 1581 1522 
L 1381 1569 
Q 847 1681 609 1914 
Q 372 2147 372 2553 
Q 372 3047 722 3315 
Q 1072 3584 1716 3584 
Q 2034 3584 2315 3537 
Q 2597 3491 2834 3397 
z
" transform="scale(0.015625)"/>
      <path id="DejaVuSans-62" d="M 3116 1747 
Q 3116 2381 2855 2742 
Q 2594 3103 2138 3103 
Q 1681 3103 1420 2742 
Q 1159 2381 1159 1747 
Q 1159 1113 1420 752 
Q 1681 391 2138 391 
Q 2594 391 2855 752 
Q 3116 1113 3116 1747 
z
M 1159 2969 
Q 1341 3281 1617 3432 
Q 1894 3584 2278 3584 
Q 2916 3584 3314 3078 
Q 3713 2572 3713 1747 
Q 3713 922 3314 415 
Q 2916 -91 2278 -91 
Q 1894 -91 1617 61 
Q 1341 213 1159 525 
L 1159 0 
L 581 0 
L 581 4863 
L 1159 4863 
L 1159 2969 
z
" transform="scale(0.015625)"/>
     </defs>
     <use xlink:href="#DejaVuSans-4d"/>
     <use xlink:href="#DejaVuSans-56" x="86.279297"/>
     <use xlink:href="#DejaVuSans-45" x="154.6875"/>
     <use xlink:href="#DejaVuSans-20" x="217.871094"/>
     <use xlink:href="#DejaVuSans-49" x="249.658203"/>
     <use xlink:href="#DejaVuSans-6e" x="279.150391"/>
     <use xlink:href="#DejaVuSans-20" x="342.529297"/>
     <use xlink:href="#DejaVuSans-44" x="374.316406"/>
     <use xlink:href="#DejaVuSans-69" x="451.318359"/>
     <use xlink:href="#DejaVuSans-73" x="479.101562"/>
     <use xlink:href="#DejaVuSans-74" x="531.201172"/>
     <use xlink:href="#DejaVuSans-72" x="570.410156"/>
     <use xlink:href="#DejaVuSans-69" x="611.523438"/>
     <use xlink:href="#DejaVuSans-62" x="639.306641"/>
     <use xlink:href="#DejaVuSans-75" x="702.783203"/>
     <use xlink:href="#DejaVuSans-74" x="766.162109"/>
     <use xlink:href="#DejaVuSans-69" x="805.371094"/>
     <use xlink:href="#DejaVuSans-6f" x="833.154297"/>
     <use xlink:href="#DejaVuSans-6e" x="894.335938"/>
    </g>
   </g>
  </g>
 </g>
 <defs>
  <clipPath id="p5f7b4afb20">
   <rect x="90" y="69.12" width="558" height="443.52"/>
  </clipPath>
 </defs>
</svg>
