<?xml version="1.0" encoding="utf-8" standalone="no"?>
<!DOCTYPE svg PUBLIC "-//W3C//DTD SVG 1.1//EN"
  "http://www.w3.org/Graphics/SVG/1.1/DTD/svg11.dtd">
<svg xmlns:xlink="http://www.w3.org/1999/xlink" width="720pt" height="576pt" viewBox="0 0 720 576" xmlns="http://www.w3.org/2000/svg" version="1.1">
 <metadata>
  <rdf:RDF xmlns:dc="http://purl.org/dc/elements/1.1/" xmlns:cc="http://creativecommons.org/ns#" xmlns:rdf="http://www.w3.org/1999/02/22-rdf-syntax-ns#">
   <cc:Work>
    <dc:type rdf:resource="http://purl.org/dc/dcmitype/StillImage"/>
    <dc:date>2024-11-28T19:13:37.165216</dc:date>
    <dc:format>image/svg+xml</dc:format>
    <dc:creator>
     <cc:Agent>
      <dc:title>Matplotlib v3.8.4, https://matplotlib.org/</dc:title>
     </cc:Agent>
    </dc:creator>
   </cc:Work>
  </rdf:RDF>
 </metadata>
 <defs>
  <style type="text/css">*{stroke-linejoin: round; stroke-linecap: butt}</style>
 </defs>
 <g id="figure_1">
  <g id="patch_1">
   <path d="M 0 576 
L 720 576 
L 720 0 
L 0 0 
z
" style="fill: #ffffff"/>
  </g>
  <g id="axes_1">
   <g id="patch_2">
    <path d="M 90 512.64 
L 648 512.64 
L 648 69.12 
L 90 69.12 
z
" style="fill: #ffffff"/>
   </g>
   <g id="QuadContourSet_1">
    <path d="M 112.432161 495.063025 
L 112.751746 494.81005 
L 112.432161 494.55809 
L 112.115278 494.81005 
z
M 115.236181 493.518474 
L 116.420618 492.581307 
L 118.040201 491.715454 
L 119.763343 490.352563 
L 120.844221 489.75861 
L 122.911783 488.123819 
L 123.648241 487.708 
L 125.941611 485.895075 
L 126.452261 485.598892 
L 128.897268 483.666332 
L 129.256281 483.452454 
L 131.805429 481.437588 
L 132.060302 481.281646 
L 134.682442 479.208844 
L 134.864322 479.094562 
L 137.53853 476.980101 
L 137.668342 476.89634 
L 140.380217 474.751357 
L 140.472362 474.690308 
L 143.211753 472.522613 
L 143.276382 472.478653 
L 146.035969 470.293869 
L 146.080402 470.262847 
L 148.854799 468.065126 
L 148.884422 468.043903 
L 151.669599 465.836382 
L 151.688442 465.822534 
L 154.481344 463.607638 
L 154.492462 463.59926 
L 157.29075 461.378894 
L 157.296482 461.374467 
L 160.098347 459.150151 
L 160.100503 459.148446 
L 162.904523 456.921407 
L 162.904523 456.921407 
L 165.708543 454.72569 
L 165.750782 454.692663 
L 168.512563 452.496683 
L 168.554225 452.46392 
L 171.316583 450.238716 
L 171.321053 450.235176 
L 174.118849 448.006432 
L 174.120603 448.004882 
L 176.919881 445.777688 
L 176.924623 445.773408 
L 179.719485 443.548945 
L 179.728643 443.540508 
L 182.517137 441.320201 
L 182.532663 441.305603 
L 185.311975 439.091457 
L 185.336683 439.067741 
L 188.102594 436.862714 
L 188.140704 436.825357 
L 190.886712 434.63397 
L 190.944724 434.575863 
L 193.660644 432.405226 
L 193.748744 432.314999 
L 196.418499 430.176482 
L 196.552764 430.035797 
L 199.150976 427.947739 
L 199.356784 427.726985 
L 201.843629 425.718995 
L 202.160804 425.370618 
L 204.474449 423.490251 
L 204.964824 422.938707 
L 207.010668 421.261508 
L 207.768844 420.388692 
L 209.404753 419.032764 
L 207.768844 417.903991 
L 206.335435 419.032764 
L 204.964824 419.824071 
L 203.142086 421.261508 
L 202.160804 421.83563 
L 200.065838 423.490251 
L 199.356784 423.911409 
L 197.071496 425.718995 
L 196.552764 426.032265 
L 194.134295 427.947739 
L 193.748744 428.184745 
L 191.236847 430.176482 
L 190.944724 430.359405 
L 188.366991 432.405226 
L 188.140704 432.549626 
L 185.516269 434.63397 
L 185.336683 434.750775 
L 182.678826 436.862714 
L 182.532663 436.959617 
L 179.850631 439.091457 
L 179.728643 439.173901 
L 177.028932 441.320201 
L 176.924623 441.39207 
L 174.211865 443.548945 
L 174.120603 443.613064 
L 171.398185 445.777688 
L 171.316583 445.836173 
L 168.587076 448.006432 
L 168.512563 448.060935 
L 165.778016 450.235176 
L 165.708543 450.287069 
L 162.970688 452.46392 
L 162.904523 452.514421 
L 160.164917 454.692663 
L 160.100503 454.742935 
L 157.360637 456.921407 
L 157.296482 456.972635 
L 154.557874 459.150151 
L 154.492462 459.203625 
L 151.756747 461.378894 
L 151.688442 461.436094 
L 148.957483 463.607638 
L 148.884422 463.670342 
L 146.16045 465.836382 
L 146.080402 465.906822 
L 143.366211 468.065126 
L 143.276382 468.146204 
L 140.575606 470.293869 
L 140.472362 470.389482 
L 137.789882 472.522613 
L 137.668342 472.63813 
L 135.010895 474.751357 
L 134.864322 474.894363 
L 132.241431 476.980101 
L 132.060302 477.161543 
L 129.485726 479.208844 
L 129.256281 479.444862 
L 126.75031 481.437588 
L 126.452261 481.75246 
L 124.045423 483.666332 
L 123.648241 484.097344 
L 121.387428 485.895075 
L 120.844221 486.500713 
L 118.802984 488.123819 
L 118.040201 488.997843 
L 116.336465 490.352563 
L 115.236181 491.648773 
L 114.063381 492.581307 
z
M 131.628495 479.208844 
L 132.060302 478.865472 
L 132.500086 479.208844 
L 132.060302 479.556494 
z
M 133.942422 476.980101 
L 134.864322 476.247 
L 135.804259 476.980101 
L 134.864322 477.723296 
z
M 136.397273 474.751357 
L 137.668342 473.740591 
L 138.949821 472.522613 
L 140.472362 471.311876 
L 141.571619 470.293869 
L 143.276382 468.938237 
L 144.243722 468.065126 
L 146.080402 466.604612 
L 146.953418 465.836382 
L 148.884422 464.300892 
L 149.692181 463.607638 
L 151.688442 462.020295 
L 152.454369 461.378894 
L 154.492462 459.758331 
L 155.23641 459.150151 
L 157.296482 457.512151 
L 158.036293 456.921407 
L 160.100503 455.28015 
L 160.853278 454.692663 
L 162.904523 453.061732 
L 163.687768 452.46392 
L 165.708543 450.857214 
L 166.541321 450.235176 
L 168.512563 448.667839 
L 169.416797 448.006432 
L 171.316583 446.495893 
L 172.318676 445.777688 
L 174.120603 444.344957 
L 175.253568 443.548945 
L 176.924623 442.220313 
L 178.231017 441.320201 
L 179.728643 440.129572 
L 181.264693 439.091457 
L 182.532663 438.083598 
L 183.846624 439.091457 
L 182.532663 440.138227 
L 181.27552 441.320201 
L 179.728643 442.551885 
L 178.646254 443.548945 
L 176.924623 444.919211 
L 175.973402 445.777688 
L 174.120603 447.251834 
L 173.26701 448.006432 
L 171.316583 449.557747 
L 170.533969 450.235176 
L 168.512563 451.842425 
L 167.778907 452.46392 
L 165.708543 454.10954 
L 165.004749 454.692663 
L 162.904523 456.361407 
L 162.213046 456.921407 
L 160.100503 458.599254 
L 159.404138 459.150151 
L 157.296482 460.823356 
L 156.577172 461.378894 
L 154.492462 463.033055 
L 153.729982 463.607638 
L 151.688442 465.22667 
L 150.858814 465.836382 
L 148.884422 467.401277 
L 147.957824 468.065126 
L 146.080402 469.552314 
L 145.018267 470.293869 
L 143.276382 471.672932 
L 142.027205 472.522613 
L 140.472362 473.752968 
L 138.965444 474.751357 
L 137.668342 475.777312 
z
M 184.374153 436.862714 
L 185.336683 436.097885 
L 186.338345 436.862714 
L 185.336683 437.661254 
z
M 187.587416 434.63397 
L 188.140704 434.194545 
L 188.719621 434.63397 
L 188.140704 435.095961 
z
M 210.572864 417.657772 
L 211.589508 416.80402 
L 210.572864 416.114414 
L 209.696046 416.80402 
z
M 213.376884 414.656037 
L 213.471664 414.575276 
L 213.376884 414.511899 
L 213.296226 414.575276 
z
" clip-path="url(#pe6281ea505)" style="fill: #dfebf7"/>
    <path d="M 132.060302 479.556494 
L 132.500086 479.208844 
L 132.060302 478.865472 
L 131.628495 479.208844 
z
M 134.864322 477.723296 
L 135.804259 476.980101 
L 134.864322 476.247 
L 133.942422 476.980101 
z
M 137.668342 475.777312 
L 138.965444 474.751357 
L 140.472362 473.752968 
L 142.027205 472.522613 
L 143.276382 471.672932 
L 145.018267 470.293869 
L 146.080402 469.552314 
L 147.957824 468.065126 
L 148.884422 467.401277 
L 150.858814 465.836382 
L 151.688442 465.22667 
L 153.729982 463.607638 
L 154.492462 463.033055 
L 156.577172 461.378894 
L 157.296482 460.823356 
L 159.404138 459.150151 
L 160.100503 458.599254 
L 162.213046 456.921407 
L 162.904523 456.361407 
L 165.004749 454.692663 
L 165.708543 454.10954 
L 167.778907 452.46392 
L 168.512563 451.842425 
L 170.533969 450.235176 
L 171.316583 449.557747 
L 173.26701 448.006432 
L 174.120603 447.251834 
L 175.973402 445.777688 
L 176.924623 444.919211 
L 178.646254 443.548945 
L 179.728643 442.551885 
L 181.27552 441.320201 
L 182.532663 440.138227 
L 183.846624 439.091457 
L 182.532663 438.083598 
L 181.264693 439.091457 
L 179.728643 440.129572 
L 178.231017 441.320201 
L 176.924623 442.220313 
L 175.253568 443.548945 
L 174.120603 444.344957 
L 172.318676 445.777688 
L 171.316583 446.495893 
L 169.416797 448.006432 
L 168.512563 448.667839 
L 166.541321 450.235176 
L 165.708543 450.857214 
L 163.687768 452.46392 
L 162.904523 453.061732 
L 160.853278 454.692663 
L 160.100503 455.28015 
L 158.036293 456.921407 
L 157.296482 457.512151 
L 155.23641 459.150151 
L 154.492462 459.758331 
L 152.454369 461.378894 
L 151.688442 462.020295 
L 149.692181 463.607638 
L 148.884422 464.300892 
L 146.953418 465.836382 
L 146.080402 466.604612 
L 144.243722 468.065126 
L 143.276382 468.938237 
L 141.571619 470.293869 
L 140.472362 471.311876 
L 138.949821 472.522613 
L 137.668342 473.740591 
L 136.397273 474.751357 
z
M 137.64042 474.751357 
L 137.668342 474.729153 
L 137.696835 474.751357 
L 137.668342 474.773894 
z
M 139.989923 472.522613 
L 140.472362 472.138974 
L 140.965036 472.522613 
L 140.472362 472.912469 
z
M 142.46473 470.293869 
L 143.276382 469.648442 
L 144.105708 470.293869 
L 143.276382 470.950452 
z
M 145.030574 468.065126 
L 146.080402 467.230311 
L 147.153517 468.065126 
L 146.080402 468.915187 
z
M 147.664463 465.836382 
L 148.884422 464.866298 
L 150.131793 465.836382 
L 148.884422 466.825043 
z
M 150.350975 463.607638 
L 151.688442 462.544141 
L 153.056245 463.607638 
L 151.688442 464.692367 
z
M 153.079918 461.378894 
L 154.492462 460.255728 
L 155.844844 459.150151 
L 157.296482 457.995928 
L 158.642145 456.921407 
L 160.100503 455.761864 
L 161.470522 454.692663 
L 162.904523 453.552498 
L 164.330764 452.46392 
L 165.708543 451.368457 
L 167.120132 452.46392 
L 165.708543 453.585915 
L 164.372766 454.692663 
L 162.904523 455.859262 
L 161.593008 456.921407 
L 160.100503 458.106801 
L 158.781651 459.150151 
L 157.296482 460.329181 
L 155.937315 461.378894 
L 154.492462 462.525346 
z
M 167.225766 450.235176 
L 168.512563 449.212042 
L 169.832106 450.235176 
L 168.512563 451.284364 
z
M 170.160798 448.006432 
L 171.316583 447.087455 
L 172.503177 448.006432 
L 171.316583 448.950216 
z
M 173.144068 445.777688 
L 174.120603 445.001235 
L 175.124708 445.777688 
L 174.120603 446.576586 
z
M 176.187649 443.548945 
L 176.924623 442.962988 
L 177.683902 443.548945 
L 176.924623 444.153264 
z
M 179.30891 441.320201 
L 179.728643 440.986509 
L 180.162179 441.320201 
L 179.728643 441.665399 
z
M 185.336683 437.661254 
L 186.338345 436.862714 
L 185.336683 436.097885 
L 184.374153 436.862714 
z
M 188.140704 435.095961 
L 188.719621 434.63397 
L 188.140704 434.194545 
L 187.587416 434.63397 
z
" clip-path="url(#pe6281ea505)" style="fill: #a4cce3"/>
    <path d="M 137.668342 474.773894 
L 137.696835 474.751357 
L 137.668342 474.729153 
L 137.64042 474.751357 
z
M 140.472362 472.912469 
L 140.965036 472.522613 
L 140.472362 472.138974 
L 139.989923 472.522613 
z
M 143.276382 470.950452 
L 144.105708 470.293869 
L 143.276382 469.648442 
L 142.46473 470.293869 
z
M 143.16938 470.293869 
L 143.276382 470.208781 
L 143.385714 470.293869 
L 143.276382 470.380428 
z
M 146.080402 468.915187 
L 147.153517 468.065126 
L 146.080402 467.230311 
L 145.030574 468.065126 
z
M 145.651387 468.065126 
L 146.080402 467.723976 
L 146.518934 468.065126 
L 146.080402 468.412506 
z
M 148.884422 466.825043 
L 150.131793 465.836382 
L 148.884422 464.866298 
L 147.664463 465.836382 
z
M 148.225465 465.836382 
L 148.884422 465.312394 
L 149.558186 465.836382 
L 148.884422 466.370404 
z
M 151.688442 464.692367 
L 153.056245 463.607638 
L 151.688442 462.544141 
L 150.350975 463.607638 
z
M 150.870753 463.607638 
L 151.688442 462.957446 
L 152.524678 463.607638 
L 151.688442 464.270811 
z
M 154.492462 462.525346 
L 155.937315 461.378894 
L 157.296482 460.329181 
L 158.781651 459.150151 
L 160.100503 458.106801 
L 161.593008 456.921407 
L 162.904523 455.859262 
L 164.372766 454.692663 
L 165.708543 453.585915 
L 167.120132 452.46392 
L 165.708543 451.368457 
L 164.330764 452.46392 
L 162.904523 453.552498 
L 161.470522 454.692663 
L 160.100503 455.761864 
L 158.642145 456.921407 
L 157.296482 457.995928 
L 155.844844 459.150151 
L 154.492462 460.255728 
L 153.079918 461.378894 
z
M 153.573465 461.378894 
L 154.492462 460.648165 
L 155.432479 461.378894 
L 154.492462 462.124773 
z
M 156.324888 459.150151 
L 157.296482 458.377619 
L 158.290518 459.150151 
L 157.296482 459.939286 
z
M 159.120151 456.921407 
L 160.100503 456.141927 
L 161.103809 456.921407 
L 160.100503 457.718264 
z
M 161.957517 454.692663 
L 162.904523 453.939705 
L 163.874142 454.692663 
L 162.904523 455.463079 
z
M 164.838077 452.46392 
L 165.708543 451.771818 
L 166.60037 452.46392 
L 165.708543 453.172785 
z
M 168.512563 451.284364 
L 169.832106 450.235176 
L 168.512563 449.212042 
L 167.225766 450.235176 
z
M 167.765781 450.235176 
L 168.512563 449.641409 
L 169.278349 450.235176 
L 168.512563 450.844063 
z
M 171.316583 448.950216 
L 172.503177 448.006432 
L 171.316583 447.087455 
L 170.160798 448.006432 
z
M 170.747801 448.006432 
L 171.316583 447.554188 
L 171.900527 448.006432 
L 171.316583 448.470884 
z
M 174.120603 446.576586 
L 175.124708 445.777688 
L 174.120603 445.001235 
L 173.144068 445.777688 
z
M 173.795288 445.777688 
L 174.120603 445.519027 
L 174.455102 445.777688 
L 174.120603 446.043826 
z
M 176.924623 444.153264 
L 177.683902 443.548945 
L 176.924623 442.962988 
L 176.187649 443.548945 
z
M 179.728643 441.665399 
L 180.162179 441.320201 
L 179.728643 440.986509 
L 179.30891 441.320201 
z
" clip-path="url(#pe6281ea505)" style="fill: #58a1cf"/>
    <path d="M 143.276382 470.380428 
L 143.385714 470.293869 
L 143.276382 470.208781 
L 143.16938 470.293869 
z
M 146.080402 468.412506 
L 146.518934 468.065126 
L 146.080402 467.723976 
L 145.651387 468.065126 
z
M 145.961512 468.065126 
L 146.080402 467.970585 
L 146.201929 468.065126 
L 146.080402 468.161393 
z
M 148.884422 466.370404 
L 149.558186 465.836382 
L 148.884422 465.312394 
L 148.225465 465.836382 
z
M 148.505711 465.836382 
L 148.884422 465.53524 
L 149.271642 465.836382 
L 148.884422 466.143291 
z
M 151.688442 464.270811 
L 152.524678 463.607638 
L 151.688442 462.957446 
L 150.870753 463.607638 
z
M 151.130406 463.607638 
L 151.688442 463.163911 
L 152.259136 463.607638 
L 151.688442 464.060224 
z
M 154.492462 462.124773 
L 155.432479 461.378894 
L 154.492462 460.648165 
L 153.573465 461.378894 
z
M 153.820015 461.378894 
L 154.492462 460.844206 
L 155.18029 461.378894 
L 154.492462 461.924667 
z
M 157.296482 459.939286 
L 158.290518 459.150151 
L 157.296482 458.377619 
L 156.324888 459.150151 
z
M 156.564693 459.150151 
L 157.296482 458.568292 
L 158.045175 459.150151 
L 157.296482 459.744515 
z
M 160.100503 457.718264 
L 161.103809 456.921407 
L 160.100503 456.141927 
L 159.120151 456.921407 
z
M 159.358937 456.921407 
L 160.100503 456.331787 
L 160.859432 456.921407 
L 160.100503 457.524172 
z
M 162.904523 455.463079 
L 163.874142 454.692663 
L 162.904523 453.939705 
L 161.957517 454.692663 
z
M 162.200793 454.692663 
L 162.904523 454.133133 
L 163.625056 454.692663 
L 162.904523 455.265166 
z
M 165.708543 453.172785 
L 166.60037 452.46392 
L 165.708543 451.771818 
L 164.838077 452.46392 
z
M 165.091503 452.46392 
L 165.708543 451.973315 
L 166.340724 452.46392 
L 165.708543 452.966406 
z
M 168.512563 450.844063 
L 169.278349 450.235176 
L 168.512563 449.641409 
L 167.765781 450.235176 
z
M 168.035544 450.235176 
L 168.512563 449.855897 
L 169.001721 450.235176 
L 168.512563 450.624113 
z
M 171.316583 448.470884 
L 171.900527 448.006432 
L 171.316583 447.554188 
L 170.747801 448.006432 
z
M 171.041037 448.006432 
L 171.316583 447.787342 
L 171.599474 448.006432 
L 171.316583 448.231436 
z
M 174.120603 446.043826 
L 174.455102 445.777688 
L 174.120603 445.519027 
L 173.795288 445.777688 
z
" clip-path="url(#pe6281ea505)" style="fill: #3282be"/>
    <path d="M 146.080402 468.161393 
L 146.201929 468.065126 
L 146.080402 467.970585 
L 145.961512 468.065126 
z
M 148.884422 466.143291 
L 149.271642 465.836382 
L 148.884422 465.53524 
L 148.505711 465.836382 
z
M 151.688442 464.060224 
L 152.259136 463.607638 
L 151.688442 463.163911 
L 151.130406 463.607638 
z
M 151.481288 463.607638 
L 151.688442 463.442918 
L 151.900295 463.607638 
L 151.688442 463.775647 
z
M 154.492462 461.924667 
L 155.18029 461.378894 
L 154.492462 460.844206 
L 153.820015 461.378894 
z
M 154.15319 461.378894 
L 154.492462 461.109126 
L 154.839495 461.378894 
L 154.492462 461.654255 
z
M 157.296482 459.744515 
L 158.045175 459.150151 
L 157.296482 458.568292 
L 156.564693 459.150151 
z
M 156.888752 459.150151 
L 157.296482 458.825957 
L 157.71363 459.150151 
L 157.296482 459.481312 
z
M 160.100503 457.524172 
L 160.859432 456.921407 
L 160.100503 456.331787 
L 159.358937 456.921407 
z
M 159.681621 456.921407 
L 160.100503 456.588354 
L 160.529192 456.921407 
L 160.100503 457.261885 
z
M 162.904523 455.265166 
L 163.625056 454.692663 
L 162.904523 454.133133 
L 162.200793 454.692663 
z
M 162.529545 454.692663 
L 162.904523 454.394521 
L 163.288454 454.692663 
L 162.904523 454.997718 
z
M 165.708543 452.966406 
L 166.340724 452.46392 
L 165.708543 451.973315 
L 165.091503 452.46392 
z
M 165.433971 452.46392 
L 165.708543 452.245609 
L 165.989852 452.46392 
L 165.708543 452.687517 
z
M 168.512563 450.624113 
L 169.001721 450.235176 
L 168.512563 449.855897 
L 168.035544 450.235176 
z
M 168.400087 450.235176 
L 168.512563 450.145747 
L 168.6279 450.235176 
L 168.512563 450.326882 
z
M 171.316583 448.231436 
L 171.599474 448.006432 
L 171.316583 447.787342 
L 171.041037 448.006432 
z
" clip-path="url(#pe6281ea505)" style="fill: #1967ad"/>
    <path d="M 151.688442 463.775647 
L 151.900295 463.607638 
L 151.688442 463.442918 
L 151.481288 463.607638 
z
M 154.492462 461.654255 
L 154.839495 461.378894 
L 154.492462 461.109126 
L 154.15319 461.378894 
z
M 154.34989 461.378894 
L 154.492462 461.26553 
L 154.638295 461.378894 
L 154.492462 461.494609 
z
M 157.296482 459.481312 
L 157.71363 459.150151 
L 157.296482 458.825957 
L 156.888752 459.150151 
z
M 157.080071 459.150151 
L 157.296482 458.978078 
L 157.517892 459.150151 
L 157.296482 459.325921 
z
M 160.100503 457.261885 
L 160.529192 456.921407 
L 160.100503 456.588354 
L 159.681621 456.921407 
z
M 159.872128 456.921407 
L 160.100503 456.739826 
L 160.334224 456.921407 
L 160.100503 457.107036 
z
M 162.904523 454.997718 
L 163.288454 454.692663 
L 162.904523 454.394521 
L 162.529545 454.692663 
z
M 162.723634 454.692663 
L 162.904523 454.54884 
L 163.089731 454.692663 
L 162.904523 454.839821 
z
M 165.708543 452.687517 
L 165.989852 452.46392 
L 165.708543 452.245609 
L 165.433971 452.46392 
z
M 165.636158 452.46392 
L 165.708543 452.406367 
L 165.782704 452.46392 
L 165.708543 452.522866 
z
M 168.512563 450.326882 
L 168.6279 450.235176 
L 168.512563 450.145747 
L 168.400087 450.235176 
z
" clip-path="url(#pe6281ea505)" style="fill: #084f99"/>
    <path d="M 154.492462 461.494609 
L 154.638295 461.378894 
L 154.492462 461.26553 
L 154.34989 461.378894 
z
M 157.296482 459.325921 
L 157.517892 459.150151 
L 157.296482 458.978078 
L 157.080071 459.150151 
z
M 157.218743 459.150151 
L 157.296482 459.088339 
L 157.376018 459.150151 
L 157.296482 459.213292 
z
M 160.100503 457.107036 
L 160.334224 456.921407 
L 160.100503 456.739826 
L 159.872128 456.921407 
z
M 160.010211 456.921407 
L 160.100503 456.849616 
L 160.192908 456.921407 
L 160.100503 456.994798 
z
M 162.904523 454.839821 
L 163.089731 454.692663 
L 162.904523 454.54884 
L 162.723634 454.692663 
z
M 162.864313 454.692663 
L 162.904523 454.660693 
L 162.945692 454.692663 
L 162.904523 454.725375 
z
M 165.708543 452.522866 
L 165.782704 452.46392 
L 165.708543 452.406367 
L 165.636158 452.46392 
z
" clip-path="url(#pe6281ea505)" style="fill: #083e81"/>
    <path d="M 157.296482 459.213292 
L 157.376018 459.150151 
L 157.296482 459.088339 
L 157.218743 459.150151 
z
M 160.100503 456.994798 
L 160.192908 456.921407 
L 160.100503 456.849616 
L 160.010211 456.921407 
z
M 160.087621 456.921407 
L 160.100503 456.911165 
L 160.113686 456.921407 
L 160.100503 456.931878 
z
M 162.904523 454.725375 
L 162.945692 454.692663 
L 162.904523 454.660693 
L 162.864313 454.692663 
z
" clip-path="url(#pe6281ea505)" style="fill: #083471"/>
    <path d="M 160.100503 456.931878 
L 160.113686 456.921407 
L 160.100503 456.911165 
L 160.087621 456.921407 
z
" clip-path="url(#pe6281ea505)" style="fill: #08306b"/>
   </g>
   <g id="matplotlib.axis_1">
    <g id="xtick_1">
     <g id="line2d_1">
      <defs>
       <path id="m2e3bfa905e" d="M 0 0 
L 0 3.5 
" style="stroke: #000000; stroke-width: 0.8"/>
      </defs>
      <g>
       <use xlink:href="#m2e3bfa905e" x="160.357421" y="512.64" style="stroke: #000000; stroke-width: 0.8"/>
      </g>
     </g>
     <g id="text_1">
      <!-- 0 -->
      <g transform="translate(157.176171 527.238438) scale(0.1 -0.1)">
       <defs>
        <path id="DejaVuSans-30" d="M 2034 4250 
Q 1547 4250 1301 3770 
Q 1056 3291 1056 2328 
Q 1056 1369 1301 889 
Q 1547 409 2034 409 
Q 2525 409 2770 889 
Q 3016 1369 3016 2328 
Q 3016 3291 2770 3770 
Q 2525 4250 2034 4250 
z
M 2034 4750 
Q 2819 4750 3233 4129 
Q 3647 3509 3647 2328 
Q 3647 1150 3233 529 
Q 2819 -91 2034 -91 
Q 1250 -91 836 529 
Q 422 1150 422 2328 
Q 422 3509 836 4129 
Q 1250 4750 2034 4750 
z
" transform="scale(0.015625)"/>
       </defs>
       <use xlink:href="#DejaVuSans-30"/>
      </g>
     </g>
    </g>
    <g id="xtick_2">
     <g id="line2d_2">
      <g>
       <use xlink:href="#m2e3bfa905e" x="239.851613" y="512.64" style="stroke: #000000; stroke-width: 0.8"/>
      </g>
     </g>
     <g id="text_2">
      <!-- 100 -->
      <g transform="translate(230.307863 527.238438) scale(0.1 -0.1)">
       <defs>
        <path id="DejaVuSans-31" d="M 794 531 
L 1825 531 
L 1825 4091 
L 703 3866 
L 703 4441 
L 1819 4666 
L 2450 4666 
L 2450 531 
L 3481 531 
L 3481 0 
L 794 0 
L 794 531 
z
" transform="scale(0.015625)"/>
       </defs>
       <use xlink:href="#DejaVuSans-31"/>
       <use xlink:href="#DejaVuSans-30" x="63.623047"/>
       <use xlink:href="#DejaVuSans-30" x="127.246094"/>
      </g>
     </g>
    </g>
    <g id="xtick_3">
     <g id="line2d_3">
      <g>
       <use xlink:href="#m2e3bfa905e" x="319.345804" y="512.64" style="stroke: #000000; stroke-width: 0.8"/>
      </g>
     </g>
     <g id="text_3">
      <!-- 200 -->
      <g transform="translate(309.802054 527.238438) scale(0.1 -0.1)">
       <defs>
        <path id="DejaVuSans-32" d="M 1228 531 
L 3431 531 
L 3431 0 
L 469 0 
L 469 531 
Q 828 903 1448 1529 
Q 2069 2156 2228 2338 
Q 2531 2678 2651 2914 
Q 2772 3150 2772 3378 
Q 2772 3750 2511 3984 
Q 2250 4219 1831 4219 
Q 1534 4219 1204 4116 
Q 875 4013 500 3803 
L 500 4441 
Q 881 4594 1212 4672 
Q 1544 4750 1819 4750 
Q 2544 4750 2975 4387 
Q 3406 4025 3406 3419 
Q 3406 3131 3298 2873 
Q 3191 2616 2906 2266 
Q 2828 2175 2409 1742 
Q 1991 1309 1228 531 
z
" transform="scale(0.015625)"/>
       </defs>
       <use xlink:href="#DejaVuSans-32"/>
       <use xlink:href="#DejaVuSans-30" x="63.623047"/>
       <use xlink:href="#DejaVuSans-30" x="127.246094"/>
      </g>
     </g>
    </g>
    <g id="xtick_4">
     <g id="line2d_4">
      <g>
       <use xlink:href="#m2e3bfa905e" x="398.839996" y="512.64" style="stroke: #000000; stroke-width: 0.8"/>
      </g>
     </g>
     <g id="text_4">
      <!-- 300 -->
      <g transform="translate(389.296246 527.238438) scale(0.1 -0.1)">
       <defs>
        <path id="DejaVuSans-33" d="M 2597 2516 
Q 3050 2419 3304 2112 
Q 3559 1806 3559 1356 
Q 3559 666 3084 287 
Q 2609 -91 1734 -91 
Q 1441 -91 1130 -33 
Q 819 25 488 141 
L 488 750 
Q 750 597 1062 519 
Q 1375 441 1716 441 
Q 2309 441 2620 675 
Q 2931 909 2931 1356 
Q 2931 1769 2642 2001 
Q 2353 2234 1838 2234 
L 1294 2234 
L 1294 2753 
L 1863 2753 
Q 2328 2753 2575 2939 
Q 2822 3125 2822 3475 
Q 2822 3834 2567 4026 
Q 2313 4219 1838 4219 
Q 1578 4219 1281 4162 
Q 984 4106 628 3988 
L 628 4550 
Q 988 4650 1302 4700 
Q 1616 4750 1894 4750 
Q 2613 4750 3031 4423 
Q 3450 4097 3450 3541 
Q 3450 3153 3228 2886 
Q 3006 2619 2597 2516 
z
" transform="scale(0.015625)"/>
       </defs>
       <use xlink:href="#DejaVuSans-33"/>
       <use xlink:href="#DejaVuSans-30" x="63.623047"/>
       <use xlink:href="#DejaVuSans-30" x="127.246094"/>
      </g>
     </g>
    </g>
    <g id="xtick_5">
     <g id="line2d_5">
      <g>
       <use xlink:href="#m2e3bfa905e" x="478.334188" y="512.64" style="stroke: #000000; stroke-width: 0.8"/>
      </g>
     </g>
     <g id="text_5">
      <!-- 400 -->
      <g transform="translate(468.790438 527.238438) scale(0.1 -0.1)">
       <defs>
        <path id="DejaVuSans-34" d="M 2419 4116 
L 825 1625 
L 2419 1625 
L 2419 4116 
z
M 2253 4666 
L 3047 4666 
L 3047 1625 
L 3713 1625 
L 3713 1100 
L 3047 1100 
L 3047 0 
L 2419 0 
L 2419 1100 
L 313 1100 
L 313 1709 
L 2253 4666 
z
" transform="scale(0.015625)"/>
       </defs>
       <use xlink:href="#DejaVuSans-34"/>
       <use xlink:href="#DejaVuSans-30" x="63.623047"/>
       <use xlink:href="#DejaVuSans-30" x="127.246094"/>
      </g>
     </g>
    </g>
    <g id="xtick_6">
     <g id="line2d_6">
      <g>
       <use xlink:href="#m2e3bfa905e" x="557.828379" y="512.64" style="stroke: #000000; stroke-width: 0.8"/>
      </g>
     </g>
     <g id="text_6">
      <!-- 500 -->
      <g transform="translate(548.284629 527.238438) scale(0.1 -0.1)">
       <defs>
        <path id="DejaVuSans-35" d="M 691 4666 
L 3169 4666 
L 3169 4134 
L 1269 4134 
L 1269 2991 
Q 1406 3038 1543 3061 
Q 1681 3084 1819 3084 
Q 2600 3084 3056 2656 
Q 3513 2228 3513 1497 
Q 3513 744 3044 326 
Q 2575 -91 1722 -91 
Q 1428 -91 1123 -41 
Q 819 9 494 109 
L 494 744 
Q 775 591 1075 516 
Q 1375 441 1709 441 
Q 2250 441 2565 725 
Q 2881 1009 2881 1497 
Q 2881 1984 2565 2268 
Q 2250 2553 1709 2553 
Q 1456 2553 1204 2497 
Q 953 2441 691 2322 
L 691 4666 
z
" transform="scale(0.015625)"/>
       </defs>
       <use xlink:href="#DejaVuSans-35"/>
       <use xlink:href="#DejaVuSans-30" x="63.623047"/>
       <use xlink:href="#DejaVuSans-30" x="127.246094"/>
      </g>
     </g>
    </g>
    <g id="xtick_7">
     <g id="line2d_7">
      <g>
       <use xlink:href="#m2e3bfa905e" x="637.322571" y="512.64" style="stroke: #000000; stroke-width: 0.8"/>
      </g>
     </g>
     <g id="text_7">
      <!-- 600 -->
      <g transform="translate(627.778821 527.238438) scale(0.1 -0.1)">
       <defs>
        <path id="DejaVuSans-36" d="M 2113 2584 
Q 1688 2584 1439 2293 
Q 1191 2003 1191 1497 
Q 1191 994 1439 701 
Q 1688 409 2113 409 
Q 2538 409 2786 701 
Q 3034 994 3034 1497 
Q 3034 2003 2786 2293 
Q 2538 2584 2113 2584 
z
M 3366 4563 
L 3366 3988 
Q 3128 4100 2886 4159 
Q 2644 4219 2406 4219 
Q 1781 4219 1451 3797 
Q 1122 3375 1075 2522 
Q 1259 2794 1537 2939 
Q 1816 3084 2150 3084 
Q 2853 3084 3261 2657 
Q 3669 2231 3669 1497 
Q 3669 778 3244 343 
Q 2819 -91 2113 -91 
Q 1303 -91 875 529 
Q 447 1150 447 2328 
Q 447 3434 972 4092 
Q 1497 4750 2381 4750 
Q 2619 4750 2861 4703 
Q 3103 4656 3366 4563 
z
" transform="scale(0.015625)"/>
       </defs>
       <use xlink:href="#DejaVuSans-36"/>
       <use xlink:href="#DejaVuSans-30" x="63.623047"/>
       <use xlink:href="#DejaVuSans-30" x="127.246094"/>
      </g>
     </g>
    </g>
    <g id="text_8">
     <!-- Ground Truth Energy -->
     <g transform="translate(317.257812 540.916563) scale(0.1 -0.1)">
      <defs>
       <path id="DejaVuSans-47" d="M 3809 666 
L 3809 1919 
L 2778 1919 
L 2778 2438 
L 4434 2438 
L 4434 434 
Q 4069 175 3628 42 
Q 3188 -91 2688 -91 
Q 1594 -91 976 548 
Q 359 1188 359 2328 
Q 359 3472 976 4111 
Q 1594 4750 2688 4750 
Q 3144 4750 3555 4637 
Q 3966 4525 4313 4306 
L 4313 3634 
Q 3963 3931 3569 4081 
Q 3175 4231 2741 4231 
Q 1884 4231 1454 3753 
Q 1025 3275 1025 2328 
Q 1025 1384 1454 906 
Q 1884 428 2741 428 
Q 3075 428 3337 486 
Q 3600 544 3809 666 
z
" transform="scale(0.015625)"/>
       <path id="DejaVuSans-72" d="M 2631 2963 
Q 2534 3019 2420 3045 
Q 2306 3072 2169 3072 
Q 1681 3072 1420 2755 
Q 1159 2438 1159 1844 
L 1159 0 
L 581 0 
L 581 3500 
L 1159 3500 
L 1159 2956 
Q 1341 3275 1631 3429 
Q 1922 3584 2338 3584 
Q 2397 3584 2469 3576 
Q 2541 3569 2628 3553 
L 2631 2963 
z
" transform="scale(0.015625)"/>
       <path id="DejaVuSans-6f" d="M 1959 3097 
Q 1497 3097 1228 2736 
Q 959 2375 959 1747 
Q 959 1119 1226 758 
Q 1494 397 1959 397 
Q 2419 397 2687 759 
Q 2956 1122 2956 1747 
Q 2956 2369 2687 2733 
Q 2419 3097 1959 3097 
z
M 1959 3584 
Q 2709 3584 3137 3096 
Q 3566 2609 3566 1747 
Q 3566 888 3137 398 
Q 2709 -91 1959 -91 
Q 1206 -91 779 398 
Q 353 888 353 1747 
Q 353 2609 779 3096 
Q 1206 3584 1959 3584 
z
" transform="scale(0.015625)"/>
       <path id="DejaVuSans-75" d="M 544 1381 
L 544 3500 
L 1119 3500 
L 1119 1403 
Q 1119 906 1312 657 
Q 1506 409 1894 409 
Q 2359 409 2629 706 
Q 2900 1003 2900 1516 
L 2900 3500 
L 3475 3500 
L 3475 0 
L 2900 0 
L 2900 538 
Q 2691 219 2414 64 
Q 2138 -91 1772 -91 
Q 1169 -91 856 284 
Q 544 659 544 1381 
z
M 1991 3584 
L 1991 3584 
z
" transform="scale(0.015625)"/>
       <path id="DejaVuSans-6e" d="M 3513 2113 
L 3513 0 
L 2938 0 
L 2938 2094 
Q 2938 2591 2744 2837 
Q 2550 3084 2163 3084 
Q 1697 3084 1428 2787 
Q 1159 2491 1159 1978 
L 1159 0 
L 581 0 
L 581 3500 
L 1159 3500 
L 1159 2956 
Q 1366 3272 1645 3428 
Q 1925 3584 2291 3584 
Q 2894 3584 3203 3211 
Q 3513 2838 3513 2113 
z
" transform="scale(0.015625)"/>
       <path id="DejaVuSans-64" d="M 2906 2969 
L 2906 4863 
L 3481 4863 
L 3481 0 
L 2906 0 
L 2906 525 
Q 2725 213 2448 61 
Q 2172 -91 1784 -91 
Q 1150 -91 751 415 
Q 353 922 353 1747 
Q 353 2572 751 3078 
Q 1150 3584 1784 3584 
Q 2172 3584 2448 3432 
Q 2725 3281 2906 2969 
z
M 947 1747 
Q 947 1113 1208 752 
Q 1469 391 1925 391 
Q 2381 391 2643 752 
Q 2906 1113 2906 1747 
Q 2906 2381 2643 2742 
Q 2381 3103 1925 3103 
Q 1469 3103 1208 2742 
Q 947 2381 947 1747 
z
" transform="scale(0.015625)"/>
       <path id="DejaVuSans-20" transform="scale(0.015625)"/>
       <path id="DejaVuSans-54" d="M -19 4666 
L 3928 4666 
L 3928 4134 
L 2272 4134 
L 2272 0 
L 1638 0 
L 1638 4134 
L -19 4134 
L -19 4666 
z
" transform="scale(0.015625)"/>
       <path id="DejaVuSans-74" d="M 1172 4494 
L 1172 3500 
L 2356 3500 
L 2356 3053 
L 1172 3053 
L 1172 1153 
Q 1172 725 1289 603 
Q 1406 481 1766 481 
L 2356 481 
L 2356 0 
L 1766 0 
Q 1100 0 847 248 
Q 594 497 594 1153 
L 594 3053 
L 172 3053 
L 172 3500 
L 594 3500 
L 594 4494 
L 1172 4494 
z
" transform="scale(0.015625)"/>
       <path id="DejaVuSans-68" d="M 3513 2113 
L 3513 0 
L 2938 0 
L 2938 2094 
Q 2938 2591 2744 2837 
Q 2550 3084 2163 3084 
Q 1697 3084 1428 2787 
Q 1159 2491 1159 1978 
L 1159 0 
L 581 0 
L 581 4863 
L 1159 4863 
L 1159 2956 
Q 1366 3272 1645 3428 
Q 1925 3584 2291 3584 
Q 2894 3584 3203 3211 
Q 3513 2838 3513 2113 
z
" transform="scale(0.015625)"/>
       <path id="DejaVuSans-45" d="M 628 4666 
L 3578 4666 
L 3578 4134 
L 1259 4134 
L 1259 2753 
L 3481 2753 
L 3481 2222 
L 1259 2222 
L 1259 531 
L 3634 531 
L 3634 0 
L 628 0 
L 628 4666 
z
" transform="scale(0.015625)"/>
       <path id="DejaVuSans-65" d="M 3597 1894 
L 3597 1613 
L 953 1613 
Q 991 1019 1311 708 
Q 1631 397 2203 397 
Q 2534 397 2845 478 
Q 3156 559 3463 722 
L 3463 178 
Q 3153 47 2828 -22 
Q 2503 -91 2169 -91 
Q 1331 -91 842 396 
Q 353 884 353 1716 
Q 353 2575 817 3079 
Q 1281 3584 2069 3584 
Q 2775 3584 3186 3129 
Q 3597 2675 3597 1894 
z
M 3022 2063 
Q 3016 2534 2758 2815 
Q 2500 3097 2075 3097 
Q 1594 3097 1305 2825 
Q 1016 2553 972 2059 
L 3022 2063 
z
" transform="scale(0.015625)"/>
       <path id="DejaVuSans-67" d="M 2906 1791 
Q 2906 2416 2648 2759 
Q 2391 3103 1925 3103 
Q 1463 3103 1205 2759 
Q 947 2416 947 1791 
Q 947 1169 1205 825 
Q 1463 481 1925 481 
Q 2391 481 2648 825 
Q 2906 1169 2906 1791 
z
M 3481 434 
Q 3481 -459 3084 -895 
Q 2688 -1331 1869 -1331 
Q 1566 -1331 1297 -1286 
Q 1028 -1241 775 -1147 
L 775 -588 
Q 1028 -725 1275 -790 
Q 1522 -856 1778 -856 
Q 2344 -856 2625 -561 
Q 2906 -266 2906 331 
L 2906 616 
Q 2728 306 2450 153 
Q 2172 0 1784 0 
Q 1141 0 747 490 
Q 353 981 353 1791 
Q 353 2603 747 3093 
Q 1141 3584 1784 3584 
Q 2172 3584 2450 3431 
Q 2728 3278 2906 2969 
L 2906 3500 
L 3481 3500 
L 3481 434 
z
" transform="scale(0.015625)"/>
       <path id="DejaVuSans-79" d="M 2059 -325 
Q 1816 -950 1584 -1140 
Q 1353 -1331 966 -1331 
L 506 -1331 
L 506 -850 
L 844 -850 
Q 1081 -850 1212 -737 
Q 1344 -625 1503 -206 
L 1606 56 
L 191 3500 
L 800 3500 
L 1894 763 
L 2988 3500 
L 3597 3500 
L 2059 -325 
z
" transform="scale(0.015625)"/>
      </defs>
      <use xlink:href="#DejaVuSans-47"/>
      <use xlink:href="#DejaVuSans-72" x="77.490234"/>
      <use xlink:href="#DejaVuSans-6f" x="116.353516"/>
      <use xlink:href="#DejaVuSans-75" x="177.535156"/>
      <use xlink:href="#DejaVuSans-6e" x="240.914062"/>
      <use xlink:href="#DejaVuSans-64" x="304.292969"/>
      <use xlink:href="#DejaVuSans-20" x="367.769531"/>
      <use xlink:href="#DejaVuSans-54" x="399.556641"/>
      <use xlink:href="#DejaVuSans-72" x="445.890625"/>
      <use xlink:href="#DejaVuSans-75" x="487.003906"/>
      <use xlink:href="#DejaVuSans-74" x="550.382812"/>
      <use xlink:href="#DejaVuSans-68" x="589.591797"/>
      <use xlink:href="#DejaVuSans-20" x="652.970703"/>
      <use xlink:href="#DejaVuSans-45" x="684.757812"/>
      <use xlink:href="#DejaVuSans-6e" x="747.941406"/>
      <use xlink:href="#DejaVuSans-65" x="811.320312"/>
      <use xlink:href="#DejaVuSans-72" x="872.84375"/>
      <use xlink:href="#DejaVuSans-67" x="912.207031"/>
      <use xlink:href="#DejaVuSans-79" x="975.683594"/>
     </g>
    </g>
   </g>
   <g id="matplotlib.axis_2">
    <g id="ytick_1">
     <g id="line2d_8">
      <defs>
       <path id="m8678272c4f" d="M 0 0 
L -3.5 0 
" style="stroke: #000000; stroke-width: 0.8"/>
      </defs>
      <g>
       <use xlink:href="#m8678272c4f" x="90" y="457.72555" style="stroke: #000000; stroke-width: 0.8"/>
      </g>
     </g>
     <g id="text_9">
      <!-- 0 -->
      <g transform="translate(76.6375 461.524768) scale(0.1 -0.1)">
       <use xlink:href="#DejaVuSans-30"/>
      </g>
     </g>
    </g>
    <g id="ytick_2">
     <g id="line2d_9">
      <g>
       <use xlink:href="#m8678272c4f" x="90" y="393.992184" style="stroke: #000000; stroke-width: 0.8"/>
      </g>
     </g>
     <g id="text_10">
      <!-- 100 -->
      <g transform="translate(63.9125 397.791402) scale(0.1 -0.1)">
       <use xlink:href="#DejaVuSans-31"/>
       <use xlink:href="#DejaVuSans-30" x="63.623047"/>
       <use xlink:href="#DejaVuSans-30" x="127.246094"/>
      </g>
     </g>
    </g>
    <g id="ytick_3">
     <g id="line2d_10">
      <g>
       <use xlink:href="#m8678272c4f" x="90" y="330.258817" style="stroke: #000000; stroke-width: 0.8"/>
      </g>
     </g>
     <g id="text_11">
      <!-- 200 -->
      <g transform="translate(63.9125 334.058036) scale(0.1 -0.1)">
       <use xlink:href="#DejaVuSans-32"/>
       <use xlink:href="#DejaVuSans-30" x="63.623047"/>
       <use xlink:href="#DejaVuSans-30" x="127.246094"/>
      </g>
     </g>
    </g>
    <g id="ytick_4">
     <g id="line2d_11">
      <g>
       <use xlink:href="#m8678272c4f" x="90" y="266.525451" style="stroke: #000000; stroke-width: 0.8"/>
      </g>
     </g>
     <g id="text_12">
      <!-- 300 -->
      <g transform="translate(63.9125 270.32467) scale(0.1 -0.1)">
       <use xlink:href="#DejaVuSans-33"/>
       <use xlink:href="#DejaVuSans-30" x="63.623047"/>
       <use xlink:href="#DejaVuSans-30" x="127.246094"/>
      </g>
     </g>
    </g>
    <g id="ytick_5">
     <g id="line2d_12">
      <g>
       <use xlink:href="#m8678272c4f" x="90" y="202.792085" style="stroke: #000000; stroke-width: 0.8"/>
      </g>
     </g>
     <g id="text_13">
      <!-- 400 -->
      <g transform="translate(63.9125 206.591304) scale(0.1 -0.1)">
       <use xlink:href="#DejaVuSans-34"/>
       <use xlink:href="#DejaVuSans-30" x="63.623047"/>
       <use xlink:href="#DejaVuSans-30" x="127.246094"/>
      </g>
     </g>
    </g>
    <g id="ytick_6">
     <g id="line2d_13">
      <g>
       <use xlink:href="#m8678272c4f" x="90" y="139.058719" style="stroke: #000000; stroke-width: 0.8"/>
      </g>
     </g>
     <g id="text_14">
      <!-- 500 -->
      <g transform="translate(63.9125 142.857938) scale(0.1 -0.1)">
       <use xlink:href="#DejaVuSans-35"/>
       <use xlink:href="#DejaVuSans-30" x="63.623047"/>
       <use xlink:href="#DejaVuSans-30" x="127.246094"/>
      </g>
     </g>
    </g>
    <g id="ytick_7">
     <g id="line2d_14">
      <g>
       <use xlink:href="#m8678272c4f" x="90" y="75.325353" style="stroke: #000000; stroke-width: 0.8"/>
      </g>
     </g>
     <g id="text_15">
      <!-- 600 -->
      <g transform="translate(63.9125 79.124572) scale(0.1 -0.1)">
       <use xlink:href="#DejaVuSans-36"/>
       <use xlink:href="#DejaVuSans-30" x="63.623047"/>
       <use xlink:href="#DejaVuSans-30" x="127.246094"/>
      </g>
     </g>
    </g>
    <g id="text_16">
     <!-- Predicted Energy -->
     <g transform="translate(57.832812 333.445625) rotate(-90) scale(0.1 -0.1)">
      <defs>
       <path id="DejaVuSans-50" d="M 1259 4147 
L 1259 2394 
L 2053 2394 
Q 2494 2394 2734 2622 
Q 2975 2850 2975 3272 
Q 2975 3691 2734 3919 
Q 2494 4147 2053 4147 
L 1259 4147 
z
M 628 4666 
L 2053 4666 
Q 2838 4666 3239 4311 
Q 3641 3956 3641 3272 
Q 3641 2581 3239 2228 
Q 2838 1875 2053 1875 
L 1259 1875 
L 1259 0 
L 628 0 
L 628 4666 
z
" transform="scale(0.015625)"/>
       <path id="DejaVuSans-69" d="M 603 3500 
L 1178 3500 
L 1178 0 
L 603 0 
L 603 3500 
z
M 603 4863 
L 1178 4863 
L 1178 4134 
L 603 4134 
L 603 4863 
z
" transform="scale(0.015625)"/>
       <path id="DejaVuSans-63" d="M 3122 3366 
L 3122 2828 
Q 2878 2963 2633 3030 
Q 2388 3097 2138 3097 
Q 1578 3097 1268 2742 
Q 959 2388 959 1747 
Q 959 1106 1268 751 
Q 1578 397 2138 397 
Q 2388 397 2633 464 
Q 2878 531 3122 666 
L 3122 134 
Q 2881 22 2623 -34 
Q 2366 -91 2075 -91 
Q 1284 -91 818 406 
Q 353 903 353 1747 
Q 353 2603 823 3093 
Q 1294 3584 2113 3584 
Q 2378 3584 2631 3529 
Q 2884 3475 3122 3366 
z
" transform="scale(0.015625)"/>
      </defs>
      <use xlink:href="#DejaVuSans-50"/>
      <use xlink:href="#DejaVuSans-72" x="58.552734"/>
      <use xlink:href="#DejaVuSans-65" x="97.416016"/>
      <use xlink:href="#DejaVuSans-64" x="158.939453"/>
      <use xlink:href="#DejaVuSans-69" x="222.416016"/>
      <use xlink:href="#DejaVuSans-63" x="250.199219"/>
      <use xlink:href="#DejaVuSans-74" x="305.179688"/>
      <use xlink:href="#DejaVuSans-65" x="344.388672"/>
      <use xlink:href="#DejaVuSans-64" x="405.912109"/>
      <use xlink:href="#DejaVuSans-20" x="469.388672"/>
      <use xlink:href="#DejaVuSans-45" x="501.175781"/>
      <use xlink:href="#DejaVuSans-6e" x="564.359375"/>
      <use xlink:href="#DejaVuSans-65" x="627.738281"/>
      <use xlink:href="#DejaVuSans-72" x="689.261719"/>
      <use xlink:href="#DejaVuSans-67" x="728.625"/>
      <use xlink:href="#DejaVuSans-79" x="792.101562"/>
     </g>
    </g>
   </g>
   <g id="line2d_15">
    <path d="M 130.098868 481.984925 
L 607.901132 98.913584 
" clip-path="url(#pe6281ea505)" style="fill: none; stroke-dasharray: 5.55,2.4; stroke-dashoffset: 0; stroke: #ff0000; stroke-width: 1.5"/>
   </g>
   <g id="patch_3">
    <path d="M 90 512.64 
L 90 69.12 
" style="fill: none; stroke: #000000; stroke-width: 0.8; stroke-linejoin: miter; stroke-linecap: square"/>
   </g>
   <g id="patch_4">
    <path d="M 648 512.64 
L 648 69.12 
" style="fill: none; stroke: #000000; stroke-width: 0.8; stroke-linejoin: miter; stroke-linecap: square"/>
   </g>
   <g id="patch_5">
    <path d="M 90 512.64 
L 648 512.64 
" style="fill: none; stroke: #000000; stroke-width: 0.8; stroke-linejoin: miter; stroke-linecap: square"/>
   </g>
   <g id="patch_6">
    <path d="M 90 69.12 
L 648 69.12 
" style="fill: none; stroke: #000000; stroke-width: 0.8; stroke-linejoin: miter; stroke-linecap: square"/>
   </g>
   <g id="text_17">
    <!-- Energy R2 Score: 0.9974120586047422 -->
    <g transform="translate(145.8 113.472) scale(0.1 -0.1)">
     <defs>
      <path id="DejaVuSans-52" d="M 2841 2188 
Q 3044 2119 3236 1894 
Q 3428 1669 3622 1275 
L 4263 0 
L 3584 0 
L 2988 1197 
Q 2756 1666 2539 1819 
Q 2322 1972 1947 1972 
L 1259 1972 
L 1259 0 
L 628 0 
L 628 4666 
L 2053 4666 
Q 2853 4666 3247 4331 
Q 3641 3997 3641 3322 
Q 3641 2881 3436 2590 
Q 3231 2300 2841 2188 
z
M 1259 4147 
L 1259 2491 
L 2053 2491 
Q 2509 2491 2742 2702 
Q 2975 2913 2975 3322 
Q 2975 3731 2742 3939 
Q 2509 4147 2053 4147 
L 1259 4147 
z
" transform="scale(0.015625)"/>
      <path id="DejaVuSans-53" d="M 3425 4513 
L 3425 3897 
Q 3066 4069 2747 4153 
Q 2428 4238 2131 4238 
Q 1616 4238 1336 4038 
Q 1056 3838 1056 3469 
Q 1056 3159 1242 3001 
Q 1428 2844 1947 2747 
L 2328 2669 
Q 3034 2534 3370 2195 
Q 3706 1856 3706 1288 
Q 3706 609 3251 259 
Q 2797 -91 1919 -91 
Q 1588 -91 1214 -16 
Q 841 59 441 206 
L 441 856 
Q 825 641 1194 531 
Q 1563 422 1919 422 
Q 2459 422 2753 634 
Q 3047 847 3047 1241 
Q 3047 1584 2836 1778 
Q 2625 1972 2144 2069 
L 1759 2144 
Q 1053 2284 737 2584 
Q 422 2884 422 3419 
Q 422 4038 858 4394 
Q 1294 4750 2059 4750 
Q 2388 4750 2728 4690 
Q 3069 4631 3425 4513 
z
" transform="scale(0.015625)"/>
      <path id="DejaVuSans-3a" d="M 750 794 
L 1409 794 
L 1409 0 
L 750 0 
L 750 794 
z
M 750 3309 
L 1409 3309 
L 1409 2516 
L 750 2516 
L 750 3309 
z
" transform="scale(0.015625)"/>
      <path id="DejaVuSans-2e" d="M 684 794 
L 1344 794 
L 1344 0 
L 684 0 
L 684 794 
z
" transform="scale(0.015625)"/>
      <path id="DejaVuSans-39" d="M 703 97 
L 703 672 
Q 941 559 1184 500 
Q 1428 441 1663 441 
Q 2288 441 2617 861 
Q 2947 1281 2994 2138 
Q 2813 1869 2534 1725 
Q 2256 1581 1919 1581 
Q 1219 1581 811 2004 
Q 403 2428 403 3163 
Q 403 3881 828 4315 
Q 1253 4750 1959 4750 
Q 2769 4750 3195 4129 
Q 3622 3509 3622 2328 
Q 3622 1225 3098 567 
Q 2575 -91 1691 -91 
Q 1453 -91 1209 -44 
Q 966 3 703 97 
z
M 1959 2075 
Q 2384 2075 2632 2365 
Q 2881 2656 2881 3163 
Q 2881 3666 2632 3958 
Q 2384 4250 1959 4250 
Q 1534 4250 1286 3958 
Q 1038 3666 1038 3163 
Q 1038 2656 1286 2365 
Q 1534 2075 1959 2075 
z
" transform="scale(0.015625)"/>
      <path id="DejaVuSans-37" d="M 525 4666 
L 3525 4666 
L 3525 4397 
L 1831 0 
L 1172 0 
L 2766 4134 
L 525 4134 
L 525 4666 
z
" transform="scale(0.015625)"/>
      <path id="DejaVuSans-38" d="M 2034 2216 
Q 1584 2216 1326 1975 
Q 1069 1734 1069 1313 
Q 1069 891 1326 650 
Q 1584 409 2034 409 
Q 2484 409 2743 651 
Q 3003 894 3003 1313 
Q 3003 1734 2745 1975 
Q 2488 2216 2034 2216 
z
M 1403 2484 
Q 997 2584 770 2862 
Q 544 3141 544 3541 
Q 544 4100 942 4425 
Q 1341 4750 2034 4750 
Q 2731 4750 3128 4425 
Q 3525 4100 3525 3541 
Q 3525 3141 3298 2862 
Q 3072 2584 2669 2484 
Q 3125 2378 3379 2068 
Q 3634 1759 3634 1313 
Q 3634 634 3220 271 
Q 2806 -91 2034 -91 
Q 1263 -91 848 271 
Q 434 634 434 1313 
Q 434 1759 690 2068 
Q 947 2378 1403 2484 
z
M 1172 3481 
Q 1172 3119 1398 2916 
Q 1625 2713 2034 2713 
Q 2441 2713 2670 2916 
Q 2900 3119 2900 3481 
Q 2900 3844 2670 4047 
Q 2441 4250 2034 4250 
Q 1625 4250 1398 4047 
Q 1172 3844 1172 3481 
z
" transform="scale(0.015625)"/>
     </defs>
     <use xlink:href="#DejaVuSans-45"/>
     <use xlink:href="#DejaVuSans-6e" x="63.183594"/>
     <use xlink:href="#DejaVuSans-65" x="126.5625"/>
     <use xlink:href="#DejaVuSans-72" x="188.085938"/>
     <use xlink:href="#DejaVuSans-67" x="227.449219"/>
     <use xlink:href="#DejaVuSans-79" x="290.925781"/>
     <use xlink:href="#DejaVuSans-20" x="350.105469"/>
     <use xlink:href="#DejaVuSans-52" x="381.892578"/>
     <use xlink:href="#DejaVuSans-32" x="451.375"/>
     <use xlink:href="#DejaVuSans-20" x="514.998047"/>
     <use xlink:href="#DejaVuSans-53" x="546.785156"/>
     <use xlink:href="#DejaVuSans-63" x="610.261719"/>
     <use xlink:href="#DejaVuSans-6f" x="665.242188"/>
     <use xlink:href="#DejaVuSans-72" x="726.423828"/>
     <use xlink:href="#DejaVuSans-65" x="765.287109"/>
     <use xlink:href="#DejaVuSans-3a" x="826.810547"/>
     <use xlink:href="#DejaVuSans-20" x="860.501953"/>
     <use xlink:href="#DejaVuSans-30" x="892.289062"/>
     <use xlink:href="#DejaVuSans-2e" x="955.912109"/>
     <use xlink:href="#DejaVuSans-39" x="987.699219"/>
     <use xlink:href="#DejaVuSans-39" x="1051.322266"/>
     <use xlink:href="#DejaVuSans-37" x="1114.945312"/>
     <use xlink:href="#DejaVuSans-34" x="1178.568359"/>
     <use xlink:href="#DejaVuSans-31" x="1242.191406"/>
     <use xlink:href="#DejaVuSans-32" x="1305.814453"/>
     <use xlink:href="#DejaVuSans-30" x="1369.4375"/>
     <use xlink:href="#DejaVuSans-35" x="1433.060547"/>
     <use xlink:href="#DejaVuSans-38" x="1496.683594"/>
     <use xlink:href="#DejaVuSans-36" x="1560.306641"/>
     <use xlink:href="#DejaVuSans-30" x="1623.929688"/>
     <use xlink:href="#DejaVuSans-34" x="1687.552734"/>
     <use xlink:href="#DejaVuSans-37" x="1751.175781"/>
     <use xlink:href="#DejaVuSans-34" x="1814.798828"/>
     <use xlink:href="#DejaVuSans-32" x="1878.421875"/>
     <use xlink:href="#DejaVuSans-32" x="1942.044922"/>
    </g>
   </g>
   <g id="text_18">
    <!-- MVE In Distribution -->
    <g transform="translate(311.53875 63.12) scale(0.12 -0.12)">
     <defs>
      <path id="DejaVuSans-4d" d="M 628 4666 
L 1569 4666 
L 2759 1491 
L 3956 4666 
L 4897 4666 
L 4897 0 
L 4281 0 
L 4281 4097 
L 3078 897 
L 2444 897 
L 1241 4097 
L 1241 0 
L 628 0 
L 628 4666 
z
" transform="scale(0.015625)"/>
      <path id="DejaVuSans-56" d="M 1831 0 
L 50 4666 
L 709 4666 
L 2188 738 
L 3669 4666 
L 4325 4666 
L 2547 0 
L 1831 0 
z
" transform="scale(0.015625)"/>
      <path id="DejaVuSans-49" d="M 628 4666 
L 1259 4666 
L 1259 0 
L 628 0 
L 628 4666 
z
" transform="scale(0.015625)"/>
      <path id="DejaVuSans-44" d="M 1259 4147 
L 1259 519 
L 2022 519 
Q 2988 519 3436 956 
Q 3884 1394 3884 2338 
Q 3884 3275 3436 3711 
Q 2988 4147 2022 4147 
L 1259 4147 
z
M 628 4666 
L 1925 4666 
Q 3281 4666 3915 4102 
Q 4550 3538 4550 2338 
Q 4550 1131 3912 565 
Q 3275 0 1925 0 
L 628 0 
L 628 4666 
z
" transform="scale(0.015625)"/>
      <path id="DejaVuSans-73" d="M 2834 3397 
L 2834 2853 
Q 2591 2978 2328 3040 
Q 2066 3103 1784 3103 
Q 1356 3103 1142 2972 
Q 928 2841 928 2578 
Q 928 2378 1081 2264 
Q 1234 2150 1697 2047 
L 1894 2003 
Q 2506 1872 2764 1633 
Q 3022 1394 3022 966 
Q 3022 478 2636 193 
Q 2250 -91 1575 -91 
Q 1294 -91 989 -36 
Q 684 19 347 128 
L 347 722 
Q 666 556 975 473 
Q 1284 391 1588 391 
Q 1994 391 2212 530 
Q 2431 669 2431 922 
Q 2431 1156 2273 1281 
Q 2116 1406 1581 1522 
L 1381 1569 
Q 847 1681 609 1914 
Q 372 2147 372 2553 
Q 372 3047 722 3315 
Q 1072 3584 1716 3584 
Q 2034 3584 2315 3537 
Q 2597 3491 2834 3397 
z
" transform="scale(0.015625)"/>
      <path id="DejaVuSans-62" d="M 3116 1747 
Q 3116 2381 2855 2742 
Q 2594 3103 2138 3103 
Q 1681 3103 1420 2742 
Q 1159 2381 1159 1747 
Q 1159 1113 1420 752 
Q 1681 391 2138 391 
Q 2594 391 2855 752 
Q 3116 1113 3116 1747 
z
M 1159 2969 
Q 1341 3281 1617 3432 
Q 1894 3584 2278 3584 
Q 2916 3584 3314 3078 
Q 3713 2572 3713 1747 
Q 3713 922 3314 415 
Q 2916 -91 2278 -91 
Q 1894 -91 1617 61 
Q 1341 213 1159 525 
L 1159 0 
L 581 0 
L 581 4863 
L 1159 4863 
L 1159 2969 
z
" transform="scale(0.015625)"/>
     </defs>
     <use xlink:href="#DejaVuSans-4d"/>
     <use xlink:href="#DejaVuSans-56" x="86.279297"/>
     <use xlink:href="#DejaVuSans-45" x="154.6875"/>
     <use xlink:href="#DejaVuSans-20" x="217.871094"/>
     <use xlink:href="#DejaVuSans-49" x="249.658203"/>
     <use xlink:href="#DejaVuSans-6e" x="279.150391"/>
     <use xlink:href="#DejaVuSans-20" x="342.529297"/>
     <use xlink:href="#DejaVuSans-44" x="374.316406"/>
     <use xlink:href="#DejaVuSans-69" x="451.318359"/>
     <use xlink:href="#DejaVuSans-73" x="479.101562"/>
     <use xlink:href="#DejaVuSans-74" x="531.201172"/>
     <use xlink:href="#DejaVuSans-72" x="570.410156"/>
     <use xlink:href="#DejaVuSans-69" x="611.523438"/>
     <use xlink:href="#DejaVuSans-62" x="639.306641"/>
     <use xlink:href="#DejaVuSans-75" x="702.783203"/>
     <use xlink:href="#DejaVuSans-74" x="766.162109"/>
     <use xlink:href="#DejaVuSans-69" x="805.371094"/>
     <use xlink:href="#DejaVuSans-6f" x="833.154297"/>
     <use xlink:href="#DejaVuSans-6e" x="894.335938"/>
    </g>
   </g>
  </g>
 </g>
 <defs>
  <clipPath id="pe6281ea505">
   <rect x="90" y="69.12" width="558" height="443.52"/>
  </clipPath>
 </defs>
</svg>
