<?xml version="1.0" encoding="utf-8" standalone="no"?>
<!DOCTYPE svg PUBLIC "-//W3C//DTD SVG 1.1//EN"
  "http://www.w3.org/Graphics/SVG/1.1/DTD/svg11.dtd">
<svg xmlns:xlink="http://www.w3.org/1999/xlink" width="720pt" height="576pt" viewBox="0 0 720 576" xmlns="http://www.w3.org/2000/svg" version="1.1">
 <metadata>
  <rdf:RDF xmlns:dc="http://purl.org/dc/elements/1.1/" xmlns:cc="http://creativecommons.org/ns#" xmlns:rdf="http://www.w3.org/1999/02/22-rdf-syntax-ns#">
   <cc:Work>
    <dc:type rdf:resource="http://purl.org/dc/dcmitype/StillImage"/>
    <dc:date>2024-11-29T05:03:28.727926</dc:date>
    <dc:format>image/svg+xml</dc:format>
    <dc:creator>
     <cc:Agent>
      <dc:title>Matplotlib v3.8.4, https://matplotlib.org/</dc:title>
     </cc:Agent>
    </dc:creator>
   </cc:Work>
  </rdf:RDF>
 </metadata>
 <defs>
  <style type="text/css">*{stroke-linejoin: round; stroke-linecap: butt}</style>
 </defs>
 <g id="figure_1">
  <g id="patch_1">
   <path d="M 0 576 
L 720 576 
L 720 0 
L 0 0 
z
" style="fill: #ffffff"/>
  </g>
  <g id="axes_1">
   <g id="patch_2">
    <path d="M 90 512.64 
L 648 512.64 
L 648 69.12 
L 90 69.12 
z
" style="fill: #ffffff"/>
   </g>
   <g id="QuadContourSet_1">
    <path d="M 112.432161 495.154285 
L 112.86567 494.81005 
L 112.432161 494.466008 
L 111.999383 494.81005 
z
M 115.236181 493.5595 
L 116.468428 492.581307 
L 118.040201 491.724207 
L 119.768685 490.352563 
L 120.844221 489.747094 
L 122.890604 488.123819 
L 123.648241 487.683957 
L 125.904364 485.895075 
L 126.452261 485.567283 
L 128.850808 483.666332 
L 129.256281 483.416518 
L 131.754365 481.437588 
L 132.060302 481.243602 
L 134.630022 479.208844 
L 134.864322 479.056043 
L 137.487194 476.980101 
L 137.668342 476.858669 
L 140.331941 474.751357 
L 140.472362 474.654663 
L 143.168265 472.522613 
L 143.276382 472.446181 
L 145.998884 470.293869 
L 146.080402 470.234738 
L 148.82571 468.065126 
L 148.884422 468.021448 
L 151.650121 465.836382 
L 151.688442 465.807158 
L 154.473115 463.607638 
L 154.492462 463.592522 
L 157.295381 461.378894 
L 157.296482 461.378013 
L 160.100503 459.448233 
L 160.481304 459.150151 
L 162.904523 457.44966 
L 163.575453 456.921407 
L 165.708543 455.377973 
L 166.573703 454.692663 
L 168.512563 453.244873 
L 169.492875 452.46392 
L 171.316583 451.058201 
L 172.344716 450.235176 
L 174.120603 448.822811 
L 175.136701 448.006432 
L 176.924623 446.540786 
L 177.872185 445.777688 
L 179.728643 444.211169 
L 180.550097 443.548945 
L 182.532663 441.829228 
L 183.164155 441.320201 
L 185.336683 439.385244 
L 185.701515 439.091457 
L 188.140704 436.862714 
L 188.140704 436.862714 
L 190.869955 434.63397 
L 190.944724 434.555713 
L 193.561091 432.405226 
L 193.748744 432.2041 
L 196.199025 430.176482 
L 196.552764 429.789267 
L 198.763612 427.947739 
L 199.356784 427.287187 
L 201.228624 425.718995 
L 202.160804 424.667851 
L 203.560146 423.490251 
L 202.160804 422.554947 
L 200.981955 423.490251 
L 199.356784 424.459208 
L 197.768855 425.718995 
L 196.552764 426.449734 
L 194.664667 427.947739 
L 193.748744 428.504587 
L 191.641805 430.176482 
L 190.944724 430.606727 
L 188.678759 432.405226 
L 188.140704 432.743215 
L 185.759129 434.63397 
L 185.336683 434.904459 
L 182.870708 436.862714 
L 182.532663 437.083477 
L 180.004588 439.091457 
L 179.728643 439.275242 
L 177.15436 441.320201 
L 176.924623 441.476161 
L 174.315471 443.548945 
L 174.120603 443.683689 
L 171.484739 445.777688 
L 171.316583 445.896048 
L 168.659996 448.006432 
L 168.512563 448.112039 
L 165.839828 450.235176 
L 165.708543 450.330896 
L 163.023366 452.46392 
L 162.904523 452.552174 
L 160.210122 454.692663 
L 160.100503 454.775662 
L 157.399859 456.921407 
L 157.296482 457.001307 
L 154.592494 459.150151 
L 154.492462 459.229168 
L 151.788046 461.378894 
L 151.688442 461.459393 
L 148.986618 463.607638 
L 148.884422 463.692216 
L 146.188416 465.836382 
L 146.080402 465.927989 
L 143.393805 468.065126 
L 143.276382 468.167241 
L 140.603398 470.293869 
L 140.472362 470.410786 
L 137.818191 472.522613 
L 137.668342 472.659873 
L 135.039765 474.751357 
L 134.864322 474.916443 
L 132.270588 476.980101 
L 132.060302 477.183504 
L 129.514488 479.208844 
L 129.256281 479.465752 
L 126.777423 481.437588 
L 126.452261 481.770595 
L 124.068755 483.666332 
L 123.648241 484.109894 
L 121.403446 485.895075 
L 120.844221 486.503034 
L 118.805907 488.123819 
L 118.040201 488.982451 
L 116.316961 490.352563 
L 115.236181 491.603893 
L 114.006751 492.581307 
z
M 126.359524 483.666332 
L 126.452261 483.592572 
L 126.545584 483.666332 
L 126.452261 483.740294 
z
M 128.556476 481.437588 
L 129.256281 480.88092 
L 129.961514 481.437588 
L 129.256281 481.996259 
z
M 130.936809 479.208844 
L 132.060302 478.315042 
L 133.194344 479.208844 
L 132.060302 480.106803 
z
M 133.440416 476.980101 
L 134.864322 475.847196 
L 136.028915 474.751357 
L 137.668342 473.446911 
L 138.677417 472.522613 
L 140.472362 471.094441 
L 141.36962 470.293869 
L 143.276382 468.776848 
L 144.094794 468.065126 
L 146.080402 466.485612 
L 146.845913 465.836382 
L 148.884422 464.215131 
L 149.61846 463.607638 
L 151.688442 461.961776 
L 152.409664 461.378894 
L 154.492462 459.723289 
L 155.218022 459.150151 
L 157.296482 457.49841 
L 158.043023 456.921407 
L 160.100503 455.286676 
L 160.885035 454.692663 
L 162.904523 453.08834 
L 163.745361 452.46392 
L 165.708543 450.904427 
L 166.62646 450.235176 
L 168.512563 448.736915 
L 169.532363 448.006432 
L 171.316583 446.589053 
L 172.469309 445.777688 
L 174.120603 444.465857 
L 175.446652 443.548945 
L 176.924623 442.374803 
L 178.478102 441.320201 
L 179.728643 440.326796 
L 181.127604 441.320201 
L 179.728643 442.444297 
L 178.563895 443.548945 
L 176.924623 444.860623 
L 175.935897 445.777688 
L 174.120603 447.224977 
L 173.260083 448.006432 
L 171.316583 449.55128 
L 170.547965 450.235176 
L 168.512563 451.849208 
L 167.807618 452.46392 
L 165.708543 454.125484 
L 165.044676 454.692663 
L 162.904523 456.3847 
L 162.262943 456.921407 
L 160.100503 458.629843 
L 159.464744 459.150151 
L 157.296482 460.86263 
L 156.651122 461.378894 
L 154.492462 463.083714 
L 153.821899 463.607638 
L 151.688442 465.292784 
L 150.975627 465.836382 
L 148.884422 467.488558 
L 148.109403 468.065126 
L 146.080402 469.668641 
L 145.218468 470.293869 
L 143.276382 471.829212 
L 142.295529 472.522613 
L 140.472362 473.964462 
L 139.329612 474.751357 
L 137.668342 476.065675 
L 136.304223 476.980101 
L 134.864322 478.119749 
z
M 181.583454 439.091457 
L 182.532663 438.337526 
L 183.603358 439.091457 
L 182.532663 439.955909 
z
M 184.790979 436.862714 
L 185.336683 436.429364 
L 185.957195 436.862714 
L 185.336683 437.366406 
z
M 204.964824 421.89329 
L 205.713321 421.261508 
L 204.964824 420.765087 
L 204.339249 421.261508 
z
" clip-path="url(#pb060d71e05)" style="fill: #e0ecf8"/>
    <path d="M 126.452261 483.740294 
L 126.545584 483.666332 
L 126.452261 483.592572 
L 126.359524 483.666332 
z
M 129.256281 481.996259 
L 129.961514 481.437588 
L 129.256281 480.88092 
L 128.556476 481.437588 
z
M 132.060302 480.106803 
L 133.194344 479.208844 
L 132.060302 478.315042 
L 130.936809 479.208844 
z
M 134.864322 478.119749 
L 136.304223 476.980101 
L 137.668342 476.065675 
L 139.329612 474.751357 
L 140.472362 473.964462 
L 142.295529 472.522613 
L 143.276382 471.829212 
L 145.218468 470.293869 
L 146.080402 469.668641 
L 148.109403 468.065126 
L 148.884422 467.488558 
L 150.975627 465.836382 
L 151.688442 465.292784 
L 153.821899 463.607638 
L 154.492462 463.083714 
L 156.651122 461.378894 
L 157.296482 460.86263 
L 159.464744 459.150151 
L 160.100503 458.629843 
L 162.262943 456.921407 
L 162.904523 456.3847 
L 165.044676 454.692663 
L 165.708543 454.125484 
L 167.807618 452.46392 
L 168.512563 451.849208 
L 170.547965 450.235176 
L 171.316583 449.55128 
L 173.260083 448.006432 
L 174.120603 447.224977 
L 175.935897 445.777688 
L 176.924623 444.860623 
L 178.563895 443.548945 
L 179.728643 442.444297 
L 181.127604 441.320201 
L 179.728643 440.326796 
L 178.478102 441.320201 
L 176.924623 442.374803 
L 175.446652 443.548945 
L 174.120603 444.465857 
L 172.469309 445.777688 
L 171.316583 446.589053 
L 169.532363 448.006432 
L 168.512563 448.736915 
L 166.62646 450.235176 
L 165.708543 450.904427 
L 163.745361 452.46392 
L 162.904523 453.08834 
L 160.885035 454.692663 
L 160.100503 455.286676 
L 158.043023 456.921407 
L 157.296482 457.49841 
L 155.218022 459.150151 
L 154.492462 459.723289 
L 152.409664 461.378894 
L 151.688442 461.961776 
L 149.61846 463.607638 
L 148.884422 464.215131 
L 146.845913 465.836382 
L 146.080402 466.485612 
L 144.094794 468.065126 
L 143.276382 468.776848 
L 141.36962 470.293869 
L 140.472362 471.094441 
L 138.677417 472.522613 
L 137.668342 473.446911 
L 136.028915 474.751357 
L 134.864322 475.847196 
L 133.440416 476.980101 
z
M 134.364465 476.980101 
L 134.864322 476.582398 
L 135.369794 476.980101 
L 134.864322 477.38017 
z
M 136.810244 474.751357 
L 137.668342 474.068593 
L 138.537872 474.751357 
L 137.668342 475.439288 
z
M 139.35612 472.522613 
L 140.472362 471.63446 
L 141.606154 472.522613 
L 140.472362 473.419271 
z
M 141.974859 470.293869 
L 143.276382 469.258377 
L 144.602017 470.293869 
L 143.276382 471.341868 
z
M 144.648506 468.065126 
L 146.080402 466.926079 
L 147.365271 465.836382 
L 148.884422 464.628182 
L 150.117552 463.607638 
L 151.688442 462.358609 
L 152.90068 461.378894 
L 154.492462 460.113595 
L 155.712127 459.150151 
L 157.296482 457.891073 
L 158.551058 456.921407 
L 160.100503 455.690326 
L 161.418149 454.692663 
L 162.904523 453.511857 
L 164.315666 452.46392 
L 165.708543 451.35746 
L 167.197836 452.46392 
L 165.708543 453.642799 
L 164.479708 454.692663 
L 162.904523 455.938028 
L 161.72899 456.921407 
L 160.100503 458.207994 
L 158.949291 459.150151 
L 157.296482 460.455529 
L 156.142222 461.378894 
L 154.492462 462.681806 
L 153.307502 463.607638 
L 151.688442 464.886479 
L 150.442844 465.836382 
L 148.884422 467.067628 
L 147.54359 468.065126 
L 146.080402 469.221481 
z
M 167.247821 450.235176 
L 168.512563 449.230505 
L 169.877418 450.235176 
L 168.512563 451.317478 
z
M 170.221445 448.006432 
L 171.316583 447.136458 
L 172.509485 448.006432 
L 171.316583 448.954645 
z
M 173.247022 445.777688 
L 174.120603 445.083692 
L 175.080945 445.777688 
L 174.120603 446.543345 
z
M 176.340173 443.548945 
L 176.924623 443.084641 
L 177.572859 443.548945 
L 176.924623 444.067636 
z
M 179.523727 441.320201 
L 179.728643 441.15742 
L 179.957879 441.320201 
L 179.728643 441.504397 
z
M 182.532663 439.955909 
L 183.603358 439.091457 
L 182.532663 438.337526 
L 181.583454 439.091457 
z
M 185.336683 437.366406 
L 185.957195 436.862714 
L 185.336683 436.429364 
L 184.790979 436.862714 
z
" clip-path="url(#pb060d71e05)" style="fill: #afd1e7"/>
    <path d="M 134.864322 477.38017 
L 135.369794 476.980101 
L 134.864322 476.582398 
L 134.364465 476.980101 
z
M 137.668342 475.439288 
L 138.537872 474.751357 
L 137.668342 474.068593 
L 136.810244 474.751357 
z
M 140.472362 473.419271 
L 141.606154 472.522613 
L 140.472362 471.63446 
L 139.35612 472.522613 
z
M 140.101508 472.522613 
L 140.472362 472.227538 
L 140.849047 472.522613 
L 140.472362 472.820514 
z
M 143.276382 471.341868 
L 144.602017 470.293869 
L 143.276382 469.258377 
L 141.974859 470.293869 
z
M 142.639564 470.293869 
L 143.276382 469.787217 
L 143.924997 470.293869 
L 143.276382 470.806641 
z
M 146.080402 469.221481 
L 147.54359 468.065126 
L 148.884422 467.067628 
L 150.442844 465.836382 
L 151.688442 464.886479 
L 153.307502 463.607638 
L 154.492462 462.681806 
L 156.142222 461.378894 
L 157.296482 460.455529 
L 158.949291 459.150151 
L 160.100503 458.207994 
L 161.72899 456.921407 
L 162.904523 455.938028 
L 164.479708 454.692663 
L 165.708543 453.642799 
L 167.197836 452.46392 
L 165.708543 451.35746 
L 164.315666 452.46392 
L 162.904523 453.511857 
L 161.418149 454.692663 
L 160.100503 455.690326 
L 158.551058 456.921407 
L 157.296482 457.891073 
L 155.712127 459.150151 
L 154.492462 460.113595 
L 152.90068 461.378894 
L 151.688442 462.358609 
L 150.117552 463.607638 
L 148.884422 464.628182 
L 147.365271 465.836382 
L 146.080402 466.926079 
L 144.648506 468.065126 
z
M 145.256621 468.065126 
L 146.080402 467.409823 
L 146.922185 468.065126 
L 146.080402 468.730386 
z
M 147.935656 465.836382 
L 148.884422 465.081817 
L 149.857714 465.836382 
L 148.884422 466.60534 
z
M 150.665681 463.607638 
L 151.688442 462.794432 
L 152.742565 463.607638 
L 151.688442 464.440254 
z
M 153.439939 461.378894 
L 154.492462 460.54225 
L 155.583321 461.378894 
L 154.492462 462.240409 
z
M 156.254779 459.150151 
L 157.296482 458.322315 
L 158.383193 459.150151 
L 157.296482 460.008428 
z
M 159.10901 456.921407 
L 160.100503 456.133635 
L 161.142575 456.921407 
L 160.100503 457.744697 
z
M 162.003643 454.692663 
L 162.904523 453.976986 
L 163.85923 454.692663 
L 162.904523 455.447469 
z
M 164.942005 452.46392 
L 165.708543 451.855005 
L 166.528142 452.46392 
L 165.708543 453.112689 
z
M 168.512563 451.317478 
L 169.877418 450.235176 
L 168.512563 449.230505 
L 167.247821 450.235176 
z
M 167.930233 450.235176 
L 168.512563 449.772591 
L 169.140989 450.235176 
L 168.512563 450.733505 
z
M 171.316583 448.954645 
L 172.509485 448.006432 
L 171.316583 447.136458 
L 170.221445 448.006432 
z
M 170.978232 448.006432 
L 171.316583 447.737647 
L 171.685139 448.006432 
L 171.316583 448.29939 
z
M 174.120603 446.543345 
L 175.080945 445.777688 
L 174.120603 445.083692 
L 173.247022 445.777688 
z
M 174.101147 445.777688 
L 174.120603 445.762232 
L 174.141992 445.777688 
L 174.120603 445.794741 
z
M 176.924623 444.067636 
L 177.572859 443.548945 
L 176.924623 443.084641 
L 176.340173 443.548945 
z
M 179.728643 441.504397 
L 179.957879 441.320201 
L 179.728643 441.15742 
L 179.523727 441.320201 
z
" clip-path="url(#pb060d71e05)" style="fill: #68acd5"/>
    <path d="M 140.472362 472.820514 
L 140.849047 472.522613 
L 140.472362 472.227538 
L 140.101508 472.522613 
z
M 143.276382 470.806641 
L 143.924997 470.293869 
L 143.276382 469.787217 
L 142.639564 470.293869 
z
M 142.970276 470.293869 
L 143.276382 470.050331 
L 143.588159 470.293869 
L 143.276382 470.540349 
z
M 146.080402 468.730386 
L 146.922185 468.065126 
L 146.080402 467.409823 
L 145.256621 468.065126 
z
M 145.559178 468.065126 
L 146.080402 467.650501 
L 146.613017 468.065126 
L 146.080402 468.48605 
z
M 148.884422 466.60534 
L 149.857714 465.836382 
L 148.884422 465.081817 
L 147.935656 465.836382 
z
M 148.219441 465.836382 
L 148.884422 465.307514 
L 149.566593 465.836382 
L 148.884422 466.375337 
z
M 151.688442 464.440254 
L 152.742565 463.607638 
L 151.688442 462.794432 
L 150.665681 463.607638 
z
M 150.938393 463.607638 
L 151.688442 463.011267 
L 152.461491 463.607638 
L 151.688442 464.218243 
z
M 154.492462 462.240409 
L 155.583321 461.378894 
L 154.492462 460.54225 
L 153.439939 461.378894 
z
M 153.708238 461.378894 
L 154.492462 460.755519 
L 155.30525 461.378894 
L 154.492462 462.0208 
z
M 157.296482 460.008428 
L 158.383193 459.150151 
L 157.296482 458.322315 
L 156.254779 459.150151 
z
M 156.524766 459.150151 
L 157.296482 458.536872 
L 158.101542 459.150151 
L 157.296482 459.785982 
z
M 160.100503 457.744697 
L 161.142575 456.921407 
L 160.100503 456.133635 
L 159.10901 456.921407 
z
M 159.386608 456.921407 
L 160.100503 456.354196 
L 160.850816 456.921407 
L 160.100503 457.514192 
z
M 162.904523 455.447469 
L 163.85923 454.692663 
L 162.904523 453.976986 
L 162.003643 454.692663 
z
M 162.294945 454.692663 
L 162.904523 454.208402 
L 163.550523 454.692663 
L 162.904523 455.203401 
z
M 165.708543 453.112689 
L 166.528142 452.46392 
L 165.708543 451.855005 
L 164.942005 452.46392 
z
M 165.253628 452.46392 
L 165.708543 452.102549 
L 166.194948 452.46392 
L 165.708543 452.848943 
z
M 168.512563 450.733505 
L 169.140989 450.235176 
L 168.512563 449.772591 
L 167.930233 450.235176 
z
M 168.269754 450.235176 
L 168.512563 450.042296 
L 168.774592 450.235176 
L 168.512563 450.442959 
z
M 171.316583 448.29939 
L 171.685139 448.006432 
L 171.316583 447.737647 
L 170.978232 448.006432 
z
M 174.120603 445.794741 
L 174.141992 445.777688 
L 174.120603 445.762232 
L 174.101147 445.777688 
z
" clip-path="url(#pb060d71e05)" style="fill: #3888c1"/>
    <path d="M 143.276382 470.540349 
L 143.588159 470.293869 
L 143.276382 470.050331 
L 142.970276 470.293869 
z
M 146.080402 468.48605 
L 146.613017 468.065126 
L 146.080402 467.650501 
L 145.559178 468.065126 
z
M 145.839223 468.065126 
L 146.080402 467.873272 
L 146.326852 468.065126 
L 146.080402 468.259895 
z
M 148.884422 466.375337 
L 149.566593 465.836382 
L 148.884422 465.307514 
L 148.219441 465.836382 
z
M 148.482111 465.836382 
L 148.884422 465.516419 
L 149.297133 465.836382 
L 148.884422 466.162448 
z
M 151.688442 464.218243 
L 152.461491 463.607638 
L 151.688442 463.011267 
L 150.938393 463.607638 
z
M 151.190814 463.607638 
L 151.688442 463.211969 
L 152.20133 463.607638 
L 151.688442 464.012751 
z
M 154.492462 462.0208 
L 155.30525 461.378894 
L 154.492462 460.755519 
L 153.708238 461.378894 
z
M 153.956574 461.378894 
L 154.492462 460.95292 
L 155.047869 461.378894 
L 154.492462 461.817531 
z
M 157.296482 459.785982 
L 158.101542 459.150151 
L 157.296482 458.536872 
L 156.524766 459.150151 
z
M 156.774664 459.150151 
L 157.296482 458.735465 
L 157.840846 459.150151 
L 157.296482 459.580086 
z
M 160.100503 457.514192 
L 160.850816 456.921407 
L 160.100503 456.354196 
L 159.386608 456.921407 
z
M 159.643552 456.921407 
L 160.100503 456.558346 
L 160.580764 456.921407 
L 160.100503 457.300838 
z
M 162.904523 455.203401 
L 163.550523 454.692663 
L 162.904523 454.208402 
L 162.294945 454.692663 
z
M 162.564573 454.692663 
L 162.904523 454.4226 
L 163.264785 454.692663 
L 162.904523 454.977492 
z
M 165.708543 452.848943 
L 166.194948 452.46392 
L 165.708543 452.102549 
L 165.253628 452.46392 
z
M 165.542065 452.46392 
L 165.708543 452.331675 
L 165.886544 452.46392 
L 165.708543 452.60482 
z
M 168.512563 450.442959 
L 168.774592 450.235176 
L 168.512563 450.042296 
L 168.269754 450.235176 
z
" clip-path="url(#pb060d71e05)" style="fill: #206fb4"/>
    <path d="M 146.080402 468.259895 
L 146.326852 468.065126 
L 146.080402 467.873272 
L 145.839223 468.065126 
z
M 148.884422 466.162448 
L 149.297133 465.836382 
L 148.884422 465.516419 
L 148.482111 465.836382 
z
M 148.813289 465.836382 
L 148.884422 465.779809 
L 148.957394 465.836382 
L 148.884422 465.894034 
z
M 151.688442 464.012751 
L 152.20133 463.607638 
L 151.688442 463.211969 
L 151.190814 463.607638 
z
M 151.509069 463.607638 
L 151.688442 463.465017 
L 151.873316 463.607638 
L 151.688442 463.753664 
z
M 154.492462 461.817531 
L 155.047869 461.378894 
L 154.492462 460.95292 
L 153.956574 461.378894 
z
M 154.269679 461.378894 
L 154.492462 461.201806 
L 154.72336 461.378894 
L 154.492462 461.561247 
z
M 157.296482 459.580086 
L 157.840846 459.150151 
L 157.296482 458.735465 
L 156.774664 459.150151 
z
M 157.089739 459.150151 
L 157.296482 458.985853 
L 157.512158 459.150151 
L 157.296482 459.32049 
z
M 160.100503 457.300838 
L 160.580764 456.921407 
L 160.100503 456.558346 
L 159.643552 456.921407 
z
M 159.96751 456.921407 
L 160.100503 456.81574 
L 160.240279 456.921407 
L 160.100503 457.031838 
z
M 162.904523 454.977492 
L 163.264785 454.692663 
L 162.904523 454.4226 
L 162.564573 454.692663 
z
M 165.708543 452.60482 
L 165.886544 452.46392 
L 165.708543 452.331675 
L 165.542065 452.46392 
z
" clip-path="url(#pb060d71e05)" style="fill: #0a549e"/>
    <path d="M 148.884422 465.894034 
L 148.957394 465.836382 
L 148.884422 465.779809 
L 148.813289 465.836382 
z
M 151.688442 463.753664 
L 151.873316 463.607638 
L 151.688442 463.465017 
L 151.509069 463.607638 
z
M 151.63972 463.607638 
L 151.688442 463.568899 
L 151.738658 463.607638 
L 151.688442 463.647302 
z
M 154.492462 461.561247 
L 154.72336 461.378894 
L 154.492462 461.201806 
L 154.269679 461.378894 
z
M 154.398217 461.378894 
L 154.492462 461.303979 
L 154.590141 461.378894 
L 154.492462 461.456037 
z
M 157.296482 459.32049 
L 157.512158 459.150151 
L 157.296482 458.985853 
L 157.089739 459.150151 
z
M 157.219085 459.150151 
L 157.296482 459.088643 
L 157.377224 459.150151 
L 157.296482 459.21392 
z
M 160.100503 457.031838 
L 160.240279 456.921407 
L 160.100503 456.81574 
L 159.96751 456.921407 
z
" clip-path="url(#pb060d71e05)" style="fill: #084082"/>
    <path d="M 151.688442 463.647302 
L 151.738658 463.607638 
L 151.688442 463.568899 
L 151.63972 463.607638 
z
M 154.492462 461.456037 
L 154.590141 461.378894 
L 154.492462 461.303979 
L 154.398217 461.378894 
z
M 154.47513 461.378894 
L 154.492462 461.365117 
L 154.510425 461.378894 
L 154.492462 461.393081 
z
M 157.296482 459.21392 
L 157.377224 459.150151 
L 157.296482 459.088643 
L 157.219085 459.150151 
z
" clip-path="url(#pb060d71e05)" style="fill: #083573"/>
    <path d="M 154.492462 461.393081 
L 154.510425 461.378894 
L 154.492462 461.365117 
L 154.47513 461.378894 
z
" clip-path="url(#pb060d71e05)" style="fill: #08306b"/>
   </g>
   <g id="matplotlib.axis_1">
    <g id="xtick_1">
     <g id="line2d_1">
      <defs>
       <path id="m2b256c8167" d="M 0 0 
L 0 3.5 
" style="stroke: #000000; stroke-width: 0.8"/>
      </defs>
      <g>
       <use xlink:href="#m2b256c8167" x="156.155068" y="512.64" style="stroke: #000000; stroke-width: 0.8"/>
      </g>
     </g>
     <g id="text_1">
      <!-- 0 -->
      <g transform="translate(152.973818 527.238438) scale(0.1 -0.1)">
       <defs>
        <path id="DejaVuSans-30" d="M 2034 4250 
Q 1547 4250 1301 3770 
Q 1056 3291 1056 2328 
Q 1056 1369 1301 889 
Q 1547 409 2034 409 
Q 2525 409 2770 889 
Q 3016 1369 3016 2328 
Q 3016 3291 2770 3770 
Q 2525 4250 2034 4250 
z
M 2034 4750 
Q 2819 4750 3233 4129 
Q 3647 3509 3647 2328 
Q 3647 1150 3233 529 
Q 2819 -91 2034 -91 
Q 1250 -91 836 529 
Q 422 1150 422 2328 
Q 422 3509 836 4129 
Q 1250 4750 2034 4750 
z
" transform="scale(0.015625)"/>
       </defs>
       <use xlink:href="#DejaVuSans-30"/>
      </g>
     </g>
    </g>
    <g id="xtick_2">
     <g id="line2d_2">
      <g>
       <use xlink:href="#m2b256c8167" x="237.250384" y="512.64" style="stroke: #000000; stroke-width: 0.8"/>
      </g>
     </g>
     <g id="text_2">
      <!-- 100 -->
      <g transform="translate(227.706634 527.238438) scale(0.1 -0.1)">
       <defs>
        <path id="DejaVuSans-31" d="M 794 531 
L 1825 531 
L 1825 4091 
L 703 3866 
L 703 4441 
L 1819 4666 
L 2450 4666 
L 2450 531 
L 3481 531 
L 3481 0 
L 794 0 
L 794 531 
z
" transform="scale(0.015625)"/>
       </defs>
       <use xlink:href="#DejaVuSans-31"/>
       <use xlink:href="#DejaVuSans-30" x="63.623047"/>
       <use xlink:href="#DejaVuSans-30" x="127.246094"/>
      </g>
     </g>
    </g>
    <g id="xtick_3">
     <g id="line2d_3">
      <g>
       <use xlink:href="#m2b256c8167" x="318.345699" y="512.64" style="stroke: #000000; stroke-width: 0.8"/>
      </g>
     </g>
     <g id="text_3">
      <!-- 200 -->
      <g transform="translate(308.801949 527.238438) scale(0.1 -0.1)">
       <defs>
        <path id="DejaVuSans-32" d="M 1228 531 
L 3431 531 
L 3431 0 
L 469 0 
L 469 531 
Q 828 903 1448 1529 
Q 2069 2156 2228 2338 
Q 2531 2678 2651 2914 
Q 2772 3150 2772 3378 
Q 2772 3750 2511 3984 
Q 2250 4219 1831 4219 
Q 1534 4219 1204 4116 
Q 875 4013 500 3803 
L 500 4441 
Q 881 4594 1212 4672 
Q 1544 4750 1819 4750 
Q 2544 4750 2975 4387 
Q 3406 4025 3406 3419 
Q 3406 3131 3298 2873 
Q 3191 2616 2906 2266 
Q 2828 2175 2409 1742 
Q 1991 1309 1228 531 
z
" transform="scale(0.015625)"/>
       </defs>
       <use xlink:href="#DejaVuSans-32"/>
       <use xlink:href="#DejaVuSans-30" x="63.623047"/>
       <use xlink:href="#DejaVuSans-30" x="127.246094"/>
      </g>
     </g>
    </g>
    <g id="xtick_4">
     <g id="line2d_4">
      <g>
       <use xlink:href="#m2b256c8167" x="399.441015" y="512.64" style="stroke: #000000; stroke-width: 0.8"/>
      </g>
     </g>
     <g id="text_4">
      <!-- 300 -->
      <g transform="translate(389.897265 527.238438) scale(0.1 -0.1)">
       <defs>
        <path id="DejaVuSans-33" d="M 2597 2516 
Q 3050 2419 3304 2112 
Q 3559 1806 3559 1356 
Q 3559 666 3084 287 
Q 2609 -91 1734 -91 
Q 1441 -91 1130 -33 
Q 819 25 488 141 
L 488 750 
Q 750 597 1062 519 
Q 1375 441 1716 441 
Q 2309 441 2620 675 
Q 2931 909 2931 1356 
Q 2931 1769 2642 2001 
Q 2353 2234 1838 2234 
L 1294 2234 
L 1294 2753 
L 1863 2753 
Q 2328 2753 2575 2939 
Q 2822 3125 2822 3475 
Q 2822 3834 2567 4026 
Q 2313 4219 1838 4219 
Q 1578 4219 1281 4162 
Q 984 4106 628 3988 
L 628 4550 
Q 988 4650 1302 4700 
Q 1616 4750 1894 4750 
Q 2613 4750 3031 4423 
Q 3450 4097 3450 3541 
Q 3450 3153 3228 2886 
Q 3006 2619 2597 2516 
z
" transform="scale(0.015625)"/>
       </defs>
       <use xlink:href="#DejaVuSans-33"/>
       <use xlink:href="#DejaVuSans-30" x="63.623047"/>
       <use xlink:href="#DejaVuSans-30" x="127.246094"/>
      </g>
     </g>
    </g>
    <g id="xtick_5">
     <g id="line2d_5">
      <g>
       <use xlink:href="#m2b256c8167" x="480.536331" y="512.64" style="stroke: #000000; stroke-width: 0.8"/>
      </g>
     </g>
     <g id="text_5">
      <!-- 400 -->
      <g transform="translate(470.992581 527.238438) scale(0.1 -0.1)">
       <defs>
        <path id="DejaVuSans-34" d="M 2419 4116 
L 825 1625 
L 2419 1625 
L 2419 4116 
z
M 2253 4666 
L 3047 4666 
L 3047 1625 
L 3713 1625 
L 3713 1100 
L 3047 1100 
L 3047 0 
L 2419 0 
L 2419 1100 
L 313 1100 
L 313 1709 
L 2253 4666 
z
" transform="scale(0.015625)"/>
       </defs>
       <use xlink:href="#DejaVuSans-34"/>
       <use xlink:href="#DejaVuSans-30" x="63.623047"/>
       <use xlink:href="#DejaVuSans-30" x="127.246094"/>
      </g>
     </g>
    </g>
    <g id="xtick_6">
     <g id="line2d_6">
      <g>
       <use xlink:href="#m2b256c8167" x="561.631647" y="512.64" style="stroke: #000000; stroke-width: 0.8"/>
      </g>
     </g>
     <g id="text_6">
      <!-- 500 -->
      <g transform="translate(552.087897 527.238438) scale(0.1 -0.1)">
       <defs>
        <path id="DejaVuSans-35" d="M 691 4666 
L 3169 4666 
L 3169 4134 
L 1269 4134 
L 1269 2991 
Q 1406 3038 1543 3061 
Q 1681 3084 1819 3084 
Q 2600 3084 3056 2656 
Q 3513 2228 3513 1497 
Q 3513 744 3044 326 
Q 2575 -91 1722 -91 
Q 1428 -91 1123 -41 
Q 819 9 494 109 
L 494 744 
Q 775 591 1075 516 
Q 1375 441 1709 441 
Q 2250 441 2565 725 
Q 2881 1009 2881 1497 
Q 2881 1984 2565 2268 
Q 2250 2553 1709 2553 
Q 1456 2553 1204 2497 
Q 953 2441 691 2322 
L 691 4666 
z
" transform="scale(0.015625)"/>
       </defs>
       <use xlink:href="#DejaVuSans-35"/>
       <use xlink:href="#DejaVuSans-30" x="63.623047"/>
       <use xlink:href="#DejaVuSans-30" x="127.246094"/>
      </g>
     </g>
    </g>
    <g id="xtick_7">
     <g id="line2d_7">
      <g>
       <use xlink:href="#m2b256c8167" x="642.726963" y="512.64" style="stroke: #000000; stroke-width: 0.8"/>
      </g>
     </g>
     <g id="text_7">
      <!-- 600 -->
      <g transform="translate(633.183213 527.238438) scale(0.1 -0.1)">
       <defs>
        <path id="DejaVuSans-36" d="M 2113 2584 
Q 1688 2584 1439 2293 
Q 1191 2003 1191 1497 
Q 1191 994 1439 701 
Q 1688 409 2113 409 
Q 2538 409 2786 701 
Q 3034 994 3034 1497 
Q 3034 2003 2786 2293 
Q 2538 2584 2113 2584 
z
M 3366 4563 
L 3366 3988 
Q 3128 4100 2886 4159 
Q 2644 4219 2406 4219 
Q 1781 4219 1451 3797 
Q 1122 3375 1075 2522 
Q 1259 2794 1537 2939 
Q 1816 3084 2150 3084 
Q 2853 3084 3261 2657 
Q 3669 2231 3669 1497 
Q 3669 778 3244 343 
Q 2819 -91 2113 -91 
Q 1303 -91 875 529 
Q 447 1150 447 2328 
Q 447 3434 972 4092 
Q 1497 4750 2381 4750 
Q 2619 4750 2861 4703 
Q 3103 4656 3366 4563 
z
" transform="scale(0.015625)"/>
       </defs>
       <use xlink:href="#DejaVuSans-36"/>
       <use xlink:href="#DejaVuSans-30" x="63.623047"/>
       <use xlink:href="#DejaVuSans-30" x="127.246094"/>
      </g>
     </g>
    </g>
    <g id="text_8">
     <!-- Ground Truth Energy -->
     <g transform="translate(317.257812 540.916563) scale(0.1 -0.1)">
      <defs>
       <path id="DejaVuSans-47" d="M 3809 666 
L 3809 1919 
L 2778 1919 
L 2778 2438 
L 4434 2438 
L 4434 434 
Q 4069 175 3628 42 
Q 3188 -91 2688 -91 
Q 1594 -91 976 548 
Q 359 1188 359 2328 
Q 359 3472 976 4111 
Q 1594 4750 2688 4750 
Q 3144 4750 3555 4637 
Q 3966 4525 4313 4306 
L 4313 3634 
Q 3963 3931 3569 4081 
Q 3175 4231 2741 4231 
Q 1884 4231 1454 3753 
Q 1025 3275 1025 2328 
Q 1025 1384 1454 906 
Q 1884 428 2741 428 
Q 3075 428 3337 486 
Q 3600 544 3809 666 
z
" transform="scale(0.015625)"/>
       <path id="DejaVuSans-72" d="M 2631 2963 
Q 2534 3019 2420 3045 
Q 2306 3072 2169 3072 
Q 1681 3072 1420 2755 
Q 1159 2438 1159 1844 
L 1159 0 
L 581 0 
L 581 3500 
L 1159 3500 
L 1159 2956 
Q 1341 3275 1631 3429 
Q 1922 3584 2338 3584 
Q 2397 3584 2469 3576 
Q 2541 3569 2628 3553 
L 2631 2963 
z
" transform="scale(0.015625)"/>
       <path id="DejaVuSans-6f" d="M 1959 3097 
Q 1497 3097 1228 2736 
Q 959 2375 959 1747 
Q 959 1119 1226 758 
Q 1494 397 1959 397 
Q 2419 397 2687 759 
Q 2956 1122 2956 1747 
Q 2956 2369 2687 2733 
Q 2419 3097 1959 3097 
z
M 1959 3584 
Q 2709 3584 3137 3096 
Q 3566 2609 3566 1747 
Q 3566 888 3137 398 
Q 2709 -91 1959 -91 
Q 1206 -91 779 398 
Q 353 888 353 1747 
Q 353 2609 779 3096 
Q 1206 3584 1959 3584 
z
" transform="scale(0.015625)"/>
       <path id="DejaVuSans-75" d="M 544 1381 
L 544 3500 
L 1119 3500 
L 1119 1403 
Q 1119 906 1312 657 
Q 1506 409 1894 409 
Q 2359 409 2629 706 
Q 2900 1003 2900 1516 
L 2900 3500 
L 3475 3500 
L 3475 0 
L 2900 0 
L 2900 538 
Q 2691 219 2414 64 
Q 2138 -91 1772 -91 
Q 1169 -91 856 284 
Q 544 659 544 1381 
z
M 1991 3584 
L 1991 3584 
z
" transform="scale(0.015625)"/>
       <path id="DejaVuSans-6e" d="M 3513 2113 
L 3513 0 
L 2938 0 
L 2938 2094 
Q 2938 2591 2744 2837 
Q 2550 3084 2163 3084 
Q 1697 3084 1428 2787 
Q 1159 2491 1159 1978 
L 1159 0 
L 581 0 
L 581 3500 
L 1159 3500 
L 1159 2956 
Q 1366 3272 1645 3428 
Q 1925 3584 2291 3584 
Q 2894 3584 3203 3211 
Q 3513 2838 3513 2113 
z
" transform="scale(0.015625)"/>
       <path id="DejaVuSans-64" d="M 2906 2969 
L 2906 4863 
L 3481 4863 
L 3481 0 
L 2906 0 
L 2906 525 
Q 2725 213 2448 61 
Q 2172 -91 1784 -91 
Q 1150 -91 751 415 
Q 353 922 353 1747 
Q 353 2572 751 3078 
Q 1150 3584 1784 3584 
Q 2172 3584 2448 3432 
Q 2725 3281 2906 2969 
z
M 947 1747 
Q 947 1113 1208 752 
Q 1469 391 1925 391 
Q 2381 391 2643 752 
Q 2906 1113 2906 1747 
Q 2906 2381 2643 2742 
Q 2381 3103 1925 3103 
Q 1469 3103 1208 2742 
Q 947 2381 947 1747 
z
" transform="scale(0.015625)"/>
       <path id="DejaVuSans-20" transform="scale(0.015625)"/>
       <path id="DejaVuSans-54" d="M -19 4666 
L 3928 4666 
L 3928 4134 
L 2272 4134 
L 2272 0 
L 1638 0 
L 1638 4134 
L -19 4134 
L -19 4666 
z
" transform="scale(0.015625)"/>
       <path id="DejaVuSans-74" d="M 1172 4494 
L 1172 3500 
L 2356 3500 
L 2356 3053 
L 1172 3053 
L 1172 1153 
Q 1172 725 1289 603 
Q 1406 481 1766 481 
L 2356 481 
L 2356 0 
L 1766 0 
Q 1100 0 847 248 
Q 594 497 594 1153 
L 594 3053 
L 172 3053 
L 172 3500 
L 594 3500 
L 594 4494 
L 1172 4494 
z
" transform="scale(0.015625)"/>
       <path id="DejaVuSans-68" d="M 3513 2113 
L 3513 0 
L 2938 0 
L 2938 2094 
Q 2938 2591 2744 2837 
Q 2550 3084 2163 3084 
Q 1697 3084 1428 2787 
Q 1159 2491 1159 1978 
L 1159 0 
L 581 0 
L 581 4863 
L 1159 4863 
L 1159 2956 
Q 1366 3272 1645 3428 
Q 1925 3584 2291 3584 
Q 2894 3584 3203 3211 
Q 3513 2838 3513 2113 
z
" transform="scale(0.015625)"/>
       <path id="DejaVuSans-45" d="M 628 4666 
L 3578 4666 
L 3578 4134 
L 1259 4134 
L 1259 2753 
L 3481 2753 
L 3481 2222 
L 1259 2222 
L 1259 531 
L 3634 531 
L 3634 0 
L 628 0 
L 628 4666 
z
" transform="scale(0.015625)"/>
       <path id="DejaVuSans-65" d="M 3597 1894 
L 3597 1613 
L 953 1613 
Q 991 1019 1311 708 
Q 1631 397 2203 397 
Q 2534 397 2845 478 
Q 3156 559 3463 722 
L 3463 178 
Q 3153 47 2828 -22 
Q 2503 -91 2169 -91 
Q 1331 -91 842 396 
Q 353 884 353 1716 
Q 353 2575 817 3079 
Q 1281 3584 2069 3584 
Q 2775 3584 3186 3129 
Q 3597 2675 3597 1894 
z
M 3022 2063 
Q 3016 2534 2758 2815 
Q 2500 3097 2075 3097 
Q 1594 3097 1305 2825 
Q 1016 2553 972 2059 
L 3022 2063 
z
" transform="scale(0.015625)"/>
       <path id="DejaVuSans-67" d="M 2906 1791 
Q 2906 2416 2648 2759 
Q 2391 3103 1925 3103 
Q 1463 3103 1205 2759 
Q 947 2416 947 1791 
Q 947 1169 1205 825 
Q 1463 481 1925 481 
Q 2391 481 2648 825 
Q 2906 1169 2906 1791 
z
M 3481 434 
Q 3481 -459 3084 -895 
Q 2688 -1331 1869 -1331 
Q 1566 -1331 1297 -1286 
Q 1028 -1241 775 -1147 
L 775 -588 
Q 1028 -725 1275 -790 
Q 1522 -856 1778 -856 
Q 2344 -856 2625 -561 
Q 2906 -266 2906 331 
L 2906 616 
Q 2728 306 2450 153 
Q 2172 0 1784 0 
Q 1141 0 747 490 
Q 353 981 353 1791 
Q 353 2603 747 3093 
Q 1141 3584 1784 3584 
Q 2172 3584 2450 3431 
Q 2728 3278 2906 2969 
L 2906 3500 
L 3481 3500 
L 3481 434 
z
" transform="scale(0.015625)"/>
       <path id="DejaVuSans-79" d="M 2059 -325 
Q 1816 -950 1584 -1140 
Q 1353 -1331 966 -1331 
L 506 -1331 
L 506 -850 
L 844 -850 
Q 1081 -850 1212 -737 
Q 1344 -625 1503 -206 
L 1606 56 
L 191 3500 
L 800 3500 
L 1894 763 
L 2988 3500 
L 3597 3500 
L 2059 -325 
z
" transform="scale(0.015625)"/>
      </defs>
      <use xlink:href="#DejaVuSans-47"/>
      <use xlink:href="#DejaVuSans-72" x="77.490234"/>
      <use xlink:href="#DejaVuSans-6f" x="116.353516"/>
      <use xlink:href="#DejaVuSans-75" x="177.535156"/>
      <use xlink:href="#DejaVuSans-6e" x="240.914062"/>
      <use xlink:href="#DejaVuSans-64" x="304.292969"/>
      <use xlink:href="#DejaVuSans-20" x="367.769531"/>
      <use xlink:href="#DejaVuSans-54" x="399.556641"/>
      <use xlink:href="#DejaVuSans-72" x="445.890625"/>
      <use xlink:href="#DejaVuSans-75" x="487.003906"/>
      <use xlink:href="#DejaVuSans-74" x="550.382812"/>
      <use xlink:href="#DejaVuSans-68" x="589.591797"/>
      <use xlink:href="#DejaVuSans-20" x="652.970703"/>
      <use xlink:href="#DejaVuSans-45" x="684.757812"/>
      <use xlink:href="#DejaVuSans-6e" x="747.941406"/>
      <use xlink:href="#DejaVuSans-65" x="811.320312"/>
      <use xlink:href="#DejaVuSans-72" x="872.84375"/>
      <use xlink:href="#DejaVuSans-67" x="912.207031"/>
      <use xlink:href="#DejaVuSans-79" x="975.683594"/>
     </g>
    </g>
   </g>
   <g id="matplotlib.axis_2">
    <g id="ytick_1">
     <g id="line2d_8">
      <defs>
       <path id="m96a4a1da8f" d="M 0 0 
L -3.5 0 
" style="stroke: #000000; stroke-width: 0.8"/>
      </defs>
      <g>
       <use xlink:href="#m96a4a1da8f" x="90" y="461.745833" style="stroke: #000000; stroke-width: 0.8"/>
      </g>
     </g>
     <g id="text_9">
      <!-- 0 -->
      <g transform="translate(76.6375 465.545052) scale(0.1 -0.1)">
       <use xlink:href="#DejaVuSans-30"/>
      </g>
     </g>
    </g>
    <g id="ytick_2">
     <g id="line2d_9">
      <g>
       <use xlink:href="#m96a4a1da8f" x="90" y="397.688651" style="stroke: #000000; stroke-width: 0.8"/>
      </g>
     </g>
     <g id="text_10">
      <!-- 100 -->
      <g transform="translate(63.9125 401.48787) scale(0.1 -0.1)">
       <use xlink:href="#DejaVuSans-31"/>
       <use xlink:href="#DejaVuSans-30" x="63.623047"/>
       <use xlink:href="#DejaVuSans-30" x="127.246094"/>
      </g>
     </g>
    </g>
    <g id="ytick_3">
     <g id="line2d_10">
      <g>
       <use xlink:href="#m96a4a1da8f" x="90" y="333.631469" style="stroke: #000000; stroke-width: 0.8"/>
      </g>
     </g>
     <g id="text_11">
      <!-- 200 -->
      <g transform="translate(63.9125 337.430688) scale(0.1 -0.1)">
       <use xlink:href="#DejaVuSans-32"/>
       <use xlink:href="#DejaVuSans-30" x="63.623047"/>
       <use xlink:href="#DejaVuSans-30" x="127.246094"/>
      </g>
     </g>
    </g>
    <g id="ytick_4">
     <g id="line2d_11">
      <g>
       <use xlink:href="#m96a4a1da8f" x="90" y="269.574287" style="stroke: #000000; stroke-width: 0.8"/>
      </g>
     </g>
     <g id="text_12">
      <!-- 300 -->
      <g transform="translate(63.9125 273.373505) scale(0.1 -0.1)">
       <use xlink:href="#DejaVuSans-33"/>
       <use xlink:href="#DejaVuSans-30" x="63.623047"/>
       <use xlink:href="#DejaVuSans-30" x="127.246094"/>
      </g>
     </g>
    </g>
    <g id="ytick_5">
     <g id="line2d_12">
      <g>
       <use xlink:href="#m96a4a1da8f" x="90" y="205.517104" style="stroke: #000000; stroke-width: 0.8"/>
      </g>
     </g>
     <g id="text_13">
      <!-- 400 -->
      <g transform="translate(63.9125 209.316323) scale(0.1 -0.1)">
       <use xlink:href="#DejaVuSans-34"/>
       <use xlink:href="#DejaVuSans-30" x="63.623047"/>
       <use xlink:href="#DejaVuSans-30" x="127.246094"/>
      </g>
     </g>
    </g>
    <g id="ytick_6">
     <g id="line2d_13">
      <g>
       <use xlink:href="#m96a4a1da8f" x="90" y="141.459922" style="stroke: #000000; stroke-width: 0.8"/>
      </g>
     </g>
     <g id="text_14">
      <!-- 500 -->
      <g transform="translate(63.9125 145.259141) scale(0.1 -0.1)">
       <use xlink:href="#DejaVuSans-35"/>
       <use xlink:href="#DejaVuSans-30" x="63.623047"/>
       <use xlink:href="#DejaVuSans-30" x="127.246094"/>
      </g>
     </g>
    </g>
    <g id="ytick_7">
     <g id="line2d_14">
      <g>
       <use xlink:href="#m96a4a1da8f" x="90" y="77.40274" style="stroke: #000000; stroke-width: 0.8"/>
      </g>
     </g>
     <g id="text_15">
      <!-- 600 -->
      <g transform="translate(63.9125 81.201958) scale(0.1 -0.1)">
       <use xlink:href="#DejaVuSans-36"/>
       <use xlink:href="#DejaVuSans-30" x="63.623047"/>
       <use xlink:href="#DejaVuSans-30" x="127.246094"/>
      </g>
     </g>
    </g>
    <g id="text_16">
     <!-- Predicted Energy -->
     <g transform="translate(57.832812 333.445625) rotate(-90) scale(0.1 -0.1)">
      <defs>
       <path id="DejaVuSans-50" d="M 1259 4147 
L 1259 2394 
L 2053 2394 
Q 2494 2394 2734 2622 
Q 2975 2850 2975 3272 
Q 2975 3691 2734 3919 
Q 2494 4147 2053 4147 
L 1259 4147 
z
M 628 4666 
L 2053 4666 
Q 2838 4666 3239 4311 
Q 3641 3956 3641 3272 
Q 3641 2581 3239 2228 
Q 2838 1875 2053 1875 
L 1259 1875 
L 1259 0 
L 628 0 
L 628 4666 
z
" transform="scale(0.015625)"/>
       <path id="DejaVuSans-69" d="M 603 3500 
L 1178 3500 
L 1178 0 
L 603 0 
L 603 3500 
z
M 603 4863 
L 1178 4863 
L 1178 4134 
L 603 4134 
L 603 4863 
z
" transform="scale(0.015625)"/>
       <path id="DejaVuSans-63" d="M 3122 3366 
L 3122 2828 
Q 2878 2963 2633 3030 
Q 2388 3097 2138 3097 
Q 1578 3097 1268 2742 
Q 959 2388 959 1747 
Q 959 1106 1268 751 
Q 1578 397 2138 397 
Q 2388 397 2633 464 
Q 2878 531 3122 666 
L 3122 134 
Q 2881 22 2623 -34 
Q 2366 -91 2075 -91 
Q 1284 -91 818 406 
Q 353 903 353 1747 
Q 353 2603 823 3093 
Q 1294 3584 2113 3584 
Q 2378 3584 2631 3529 
Q 2884 3475 3122 3366 
z
" transform="scale(0.015625)"/>
      </defs>
      <use xlink:href="#DejaVuSans-50"/>
      <use xlink:href="#DejaVuSans-72" x="58.552734"/>
      <use xlink:href="#DejaVuSans-65" x="97.416016"/>
      <use xlink:href="#DejaVuSans-64" x="158.939453"/>
      <use xlink:href="#DejaVuSans-69" x="222.416016"/>
      <use xlink:href="#DejaVuSans-63" x="250.199219"/>
      <use xlink:href="#DejaVuSans-74" x="305.179688"/>
      <use xlink:href="#DejaVuSans-65" x="344.388672"/>
      <use xlink:href="#DejaVuSans-64" x="405.912109"/>
      <use xlink:href="#DejaVuSans-20" x="469.388672"/>
      <use xlink:href="#DejaVuSans-45" x="501.175781"/>
      <use xlink:href="#DejaVuSans-6e" x="564.359375"/>
      <use xlink:href="#DejaVuSans-65" x="627.738281"/>
      <use xlink:href="#DejaVuSans-72" x="689.261719"/>
      <use xlink:href="#DejaVuSans-67" x="728.625"/>
      <use xlink:href="#DejaVuSans-79" x="792.101562"/>
     </g>
    </g>
   </g>
   <g id="line2d_15">
    <path d="M 125.287065 486.128466 
L 612.712935 101.110817 
" clip-path="url(#pb060d71e05)" style="fill: none; stroke-dasharray: 5.55,2.4; stroke-dashoffset: 0; stroke: #ff0000; stroke-width: 1.5"/>
   </g>
   <g id="patch_3">
    <path d="M 90 512.64 
L 90 69.12 
" style="fill: none; stroke: #000000; stroke-width: 0.8; stroke-linejoin: miter; stroke-linecap: square"/>
   </g>
   <g id="patch_4">
    <path d="M 648 512.64 
L 648 69.12 
" style="fill: none; stroke: #000000; stroke-width: 0.8; stroke-linejoin: miter; stroke-linecap: square"/>
   </g>
   <g id="patch_5">
    <path d="M 90 512.64 
L 648 512.64 
" style="fill: none; stroke: #000000; stroke-width: 0.8; stroke-linejoin: miter; stroke-linecap: square"/>
   </g>
   <g id="patch_6">
    <path d="M 90 69.12 
L 648 69.12 
" style="fill: none; stroke: #000000; stroke-width: 0.8; stroke-linejoin: miter; stroke-linecap: square"/>
   </g>
   <g id="text_17">
    <!-- Energy R2 Score: 0.9970704103319155 -->
    <g transform="translate(145.8 113.472) scale(0.1 -0.1)">
     <defs>
      <path id="DejaVuSans-52" d="M 2841 2188 
Q 3044 2119 3236 1894 
Q 3428 1669 3622 1275 
L 4263 0 
L 3584 0 
L 2988 1197 
Q 2756 1666 2539 1819 
Q 2322 1972 1947 1972 
L 1259 1972 
L 1259 0 
L 628 0 
L 628 4666 
L 2053 4666 
Q 2853 4666 3247 4331 
Q 3641 3997 3641 3322 
Q 3641 2881 3436 2590 
Q 3231 2300 2841 2188 
z
M 1259 4147 
L 1259 2491 
L 2053 2491 
Q 2509 2491 2742 2702 
Q 2975 2913 2975 3322 
Q 2975 3731 2742 3939 
Q 2509 4147 2053 4147 
L 1259 4147 
z
" transform="scale(0.015625)"/>
      <path id="DejaVuSans-53" d="M 3425 4513 
L 3425 3897 
Q 3066 4069 2747 4153 
Q 2428 4238 2131 4238 
Q 1616 4238 1336 4038 
Q 1056 3838 1056 3469 
Q 1056 3159 1242 3001 
Q 1428 2844 1947 2747 
L 2328 2669 
Q 3034 2534 3370 2195 
Q 3706 1856 3706 1288 
Q 3706 609 3251 259 
Q 2797 -91 1919 -91 
Q 1588 -91 1214 -16 
Q 841 59 441 206 
L 441 856 
Q 825 641 1194 531 
Q 1563 422 1919 422 
Q 2459 422 2753 634 
Q 3047 847 3047 1241 
Q 3047 1584 2836 1778 
Q 2625 1972 2144 2069 
L 1759 2144 
Q 1053 2284 737 2584 
Q 422 2884 422 3419 
Q 422 4038 858 4394 
Q 1294 4750 2059 4750 
Q 2388 4750 2728 4690 
Q 3069 4631 3425 4513 
z
" transform="scale(0.015625)"/>
      <path id="DejaVuSans-3a" d="M 750 794 
L 1409 794 
L 1409 0 
L 750 0 
L 750 794 
z
M 750 3309 
L 1409 3309 
L 1409 2516 
L 750 2516 
L 750 3309 
z
" transform="scale(0.015625)"/>
      <path id="DejaVuSans-2e" d="M 684 794 
L 1344 794 
L 1344 0 
L 684 0 
L 684 794 
z
" transform="scale(0.015625)"/>
      <path id="DejaVuSans-39" d="M 703 97 
L 703 672 
Q 941 559 1184 500 
Q 1428 441 1663 441 
Q 2288 441 2617 861 
Q 2947 1281 2994 2138 
Q 2813 1869 2534 1725 
Q 2256 1581 1919 1581 
Q 1219 1581 811 2004 
Q 403 2428 403 3163 
Q 403 3881 828 4315 
Q 1253 4750 1959 4750 
Q 2769 4750 3195 4129 
Q 3622 3509 3622 2328 
Q 3622 1225 3098 567 
Q 2575 -91 1691 -91 
Q 1453 -91 1209 -44 
Q 966 3 703 97 
z
M 1959 2075 
Q 2384 2075 2632 2365 
Q 2881 2656 2881 3163 
Q 2881 3666 2632 3958 
Q 2384 4250 1959 4250 
Q 1534 4250 1286 3958 
Q 1038 3666 1038 3163 
Q 1038 2656 1286 2365 
Q 1534 2075 1959 2075 
z
" transform="scale(0.015625)"/>
      <path id="DejaVuSans-37" d="M 525 4666 
L 3525 4666 
L 3525 4397 
L 1831 0 
L 1172 0 
L 2766 4134 
L 525 4134 
L 525 4666 
z
" transform="scale(0.015625)"/>
     </defs>
     <use xlink:href="#DejaVuSans-45"/>
     <use xlink:href="#DejaVuSans-6e" x="63.183594"/>
     <use xlink:href="#DejaVuSans-65" x="126.5625"/>
     <use xlink:href="#DejaVuSans-72" x="188.085938"/>
     <use xlink:href="#DejaVuSans-67" x="227.449219"/>
     <use xlink:href="#DejaVuSans-79" x="290.925781"/>
     <use xlink:href="#DejaVuSans-20" x="350.105469"/>
     <use xlink:href="#DejaVuSans-52" x="381.892578"/>
     <use xlink:href="#DejaVuSans-32" x="451.375"/>
     <use xlink:href="#DejaVuSans-20" x="514.998047"/>
     <use xlink:href="#DejaVuSans-53" x="546.785156"/>
     <use xlink:href="#DejaVuSans-63" x="610.261719"/>
     <use xlink:href="#DejaVuSans-6f" x="665.242188"/>
     <use xlink:href="#DejaVuSans-72" x="726.423828"/>
     <use xlink:href="#DejaVuSans-65" x="765.287109"/>
     <use xlink:href="#DejaVuSans-3a" x="826.810547"/>
     <use xlink:href="#DejaVuSans-20" x="860.501953"/>
     <use xlink:href="#DejaVuSans-30" x="892.289062"/>
     <use xlink:href="#DejaVuSans-2e" x="955.912109"/>
     <use xlink:href="#DejaVuSans-39" x="987.699219"/>
     <use xlink:href="#DejaVuSans-39" x="1051.322266"/>
     <use xlink:href="#DejaVuSans-37" x="1114.945312"/>
     <use xlink:href="#DejaVuSans-30" x="1178.568359"/>
     <use xlink:href="#DejaVuSans-37" x="1242.191406"/>
     <use xlink:href="#DejaVuSans-30" x="1305.814453"/>
     <use xlink:href="#DejaVuSans-34" x="1369.4375"/>
     <use xlink:href="#DejaVuSans-31" x="1433.060547"/>
     <use xlink:href="#DejaVuSans-30" x="1496.683594"/>
     <use xlink:href="#DejaVuSans-33" x="1560.306641"/>
     <use xlink:href="#DejaVuSans-33" x="1623.929688"/>
     <use xlink:href="#DejaVuSans-31" x="1687.552734"/>
     <use xlink:href="#DejaVuSans-39" x="1751.175781"/>
     <use xlink:href="#DejaVuSans-31" x="1814.798828"/>
     <use xlink:href="#DejaVuSans-35" x="1878.421875"/>
     <use xlink:href="#DejaVuSans-35" x="1942.044922"/>
    </g>
   </g>
   <g id="text_18">
    <!-- MVE In Distribution -->
    <g transform="translate(311.53875 63.12) scale(0.12 -0.12)">
     <defs>
      <path id="DejaVuSans-4d" d="M 628 4666 
L 1569 4666 
L 2759 1491 
L 3956 4666 
L 4897 4666 
L 4897 0 
L 4281 0 
L 4281 4097 
L 3078 897 
L 2444 897 
L 1241 4097 
L 1241 0 
L 628 0 
L 628 4666 
z
" transform="scale(0.015625)"/>
      <path id="DejaVuSans-56" d="M 1831 0 
L 50 4666 
L 709 4666 
L 2188 738 
L 3669 4666 
L 4325 4666 
L 2547 0 
L 1831 0 
z
" transform="scale(0.015625)"/>
      <path id="DejaVuSans-49" d="M 628 4666 
L 1259 4666 
L 1259 0 
L 628 0 
L 628 4666 
z
" transform="scale(0.015625)"/>
      <path id="DejaVuSans-44" d="M 1259 4147 
L 1259 519 
L 2022 519 
Q 2988 519 3436 956 
Q 3884 1394 3884 2338 
Q 3884 3275 3436 3711 
Q 2988 4147 2022 4147 
L 1259 4147 
z
M 628 4666 
L 1925 4666 
Q 3281 4666 3915 4102 
Q 4550 3538 4550 2338 
Q 4550 1131 3912 565 
Q 3275 0 1925 0 
L 628 0 
L 628 4666 
z
" transform="scale(0.015625)"/>
      <path id="DejaVuSans-73" d="M 2834 3397 
L 2834 2853 
Q 2591 2978 2328 3040 
Q 2066 3103 1784 3103 
Q 1356 3103 1142 2972 
Q 928 2841 928 2578 
Q 928 2378 1081 2264 
Q 1234 2150 1697 2047 
L 1894 2003 
Q 2506 1872 2764 1633 
Q 3022 1394 3022 966 
Q 3022 478 2636 193 
Q 2250 -91 1575 -91 
Q 1294 -91 989 -36 
Q 684 19 347 128 
L 347 722 
Q 666 556 975 473 
Q 1284 391 1588 391 
Q 1994 391 2212 530 
Q 2431 669 2431 922 
Q 2431 1156 2273 1281 
Q 2116 1406 1581 1522 
L 1381 1569 
Q 847 1681 609 1914 
Q 372 2147 372 2553 
Q 372 3047 722 3315 
Q 1072 3584 1716 3584 
Q 2034 3584 2315 3537 
Q 2597 3491 2834 3397 
z
" transform="scale(0.015625)"/>
      <path id="DejaVuSans-62" d="M 3116 1747 
Q 3116 2381 2855 2742 
Q 2594 3103 2138 3103 
Q 1681 3103 1420 2742 
Q 1159 2381 1159 1747 
Q 1159 1113 1420 752 
Q 1681 391 2138 391 
Q 2594 391 2855 752 
Q 3116 1113 3116 1747 
z
M 1159 2969 
Q 1341 3281 1617 3432 
Q 1894 3584 2278 3584 
Q 2916 3584 3314 3078 
Q 3713 2572 3713 1747 
Q 3713 922 3314 415 
Q 2916 -91 2278 -91 
Q 1894 -91 1617 61 
Q 1341 213 1159 525 
L 1159 0 
L 581 0 
L 581 4863 
L 1159 4863 
L 1159 2969 
z
" transform="scale(0.015625)"/>
     </defs>
     <use xlink:href="#DejaVuSans-4d"/>
     <use xlink:href="#DejaVuSans-56" x="86.279297"/>
     <use xlink:href="#DejaVuSans-45" x="154.6875"/>
     <use xlink:href="#DejaVuSans-20" x="217.871094"/>
     <use xlink:href="#DejaVuSans-49" x="249.658203"/>
     <use xlink:href="#DejaVuSans-6e" x="279.150391"/>
     <use xlink:href="#DejaVuSans-20" x="342.529297"/>
     <use xlink:href="#DejaVuSans-44" x="374.316406"/>
     <use xlink:href="#DejaVuSans-69" x="451.318359"/>
     <use xlink:href="#DejaVuSans-73" x="479.101562"/>
     <use xlink:href="#DejaVuSans-74" x="531.201172"/>
     <use xlink:href="#DejaVuSans-72" x="570.410156"/>
     <use xlink:href="#DejaVuSans-69" x="611.523438"/>
     <use xlink:href="#DejaVuSans-62" x="639.306641"/>
     <use xlink:href="#DejaVuSans-75" x="702.783203"/>
     <use xlink:href="#DejaVuSans-74" x="766.162109"/>
     <use xlink:href="#DejaVuSans-69" x="805.371094"/>
     <use xlink:href="#DejaVuSans-6f" x="833.154297"/>
     <use xlink:href="#DejaVuSans-6e" x="894.335938"/>
    </g>
   </g>
  </g>
 </g>
 <defs>
  <clipPath id="pb060d71e05">
   <rect x="90" y="69.12" width="558" height="443.52"/>
  </clipPath>
 </defs>
</svg>
