<?xml version="1.0" encoding="utf-8" standalone="no"?>
<!DOCTYPE svg PUBLIC "-//W3C//DTD SVG 1.1//EN"
  "http://www.w3.org/Graphics/SVG/1.1/DTD/svg11.dtd">
<svg xmlns:xlink="http://www.w3.org/1999/xlink" width="720pt" height="576pt" viewBox="0 0 720 576" xmlns="http://www.w3.org/2000/svg" version="1.1">
 <metadata>
  <rdf:RDF xmlns:dc="http://purl.org/dc/elements/1.1/" xmlns:cc="http://creativecommons.org/ns#" xmlns:rdf="http://www.w3.org/1999/02/22-rdf-syntax-ns#">
   <cc:Work>
    <dc:type rdf:resource="http://purl.org/dc/dcmitype/StillImage"/>
    <dc:date>2024-11-27T14:47:32.201193</dc:date>
    <dc:format>image/svg+xml</dc:format>
    <dc:creator>
     <cc:Agent>
      <dc:title>Matplotlib v3.8.4, https://matplotlib.org/</dc:title>
     </cc:Agent>
    </dc:creator>
   </cc:Work>
  </rdf:RDF>
 </metadata>
 <defs>
  <style type="text/css">*{stroke-linejoin: round; stroke-linecap: butt}</style>
 </defs>
 <g id="figure_1">
  <g id="patch_1">
   <path d="M 0 576 
L 720 576 
L 720 0 
L 0 0 
z
" style="fill: #ffffff"/>
  </g>
  <g id="axes_1">
   <g id="patch_2">
    <path d="M 90 512.64 
L 648 512.64 
L 648 69.12 
L 90 69.12 
z
" style="fill: #ffffff"/>
   </g>
   <g id="QuadContourSet_1">
    <path d="M 171.316583 76.121097 
L 174.120603 76.463545 
L 176.924623 76.734057 
L 179.728643 76.949108 
L 182.532663 77.121402 
L 185.336683 77.260475 
L 188.140704 77.373405 
L 190.944724 77.465482 
L 193.748744 77.540762 
L 196.552764 77.602468 
L 199.356784 77.65324 
L 202.160804 77.695275 
L 204.964824 77.730397 
L 207.768844 77.760093 
L 210.572864 77.78555 
L 213.376884 77.807683 
L 216.180905 77.827172 
L 218.984925 77.844502 
L 221.788945 77.860003 
L 224.592965 77.873893 
L 227.396985 77.886319 
L 230.201005 77.897398 
L 233.005025 77.907237 
L 235.809045 77.915953 
L 238.613065 77.923668 
L 241.417085 77.930501 
L 244.221106 77.936562 
L 247.025126 77.941946 
L 249.829146 77.946736 
L 252.633166 77.951002 
L 255.437186 77.954805 
L 258.241206 77.9582 
L 261.045226 77.961229 
L 263.849246 77.963921 
L 266.653266 77.966292 
L 269.457286 77.968346 
L 272.261307 77.970083 
L 275.065327 77.971508 
L 277.869347 77.97264 
L 280.673367 77.973519 
L 283.477387 77.974207 
L 286.281407 77.974777 
L 289.085427 77.975301 
L 291.889447 77.975829 
L 294.693467 77.976378 
L 297.497487 77.97693 
L 300.301508 77.977434 
L 303.105528 77.97783 
L 305.909548 77.978063 
L 308.713568 77.978096 
L 311.517588 77.977916 
L 314.321608 77.977527 
L 317.125628 77.976945 
L 319.929648 77.976191 
L 322.733668 77.975284 
L 325.537688 77.97424 
L 328.341709 77.97307 
L 331.145729 77.971788 
L 333.949749 77.970408 
L 336.753769 77.968949 
L 339.557789 77.967431 
L 342.361809 77.96587 
L 345.165829 77.964269 
L 347.969849 77.962616 
L 350.773869 77.960883 
L 353.577889 77.959032 
L 356.38191 77.95702 
L 359.18593 77.954806 
L 361.98995 77.952353 
L 364.79397 77.949627 
L 367.59799 77.946596 
L 370.40201 77.943232 
L 373.20603 77.939505 
L 376.01005 77.935386 
L 378.81407 77.930837 
L 381.61809 77.925801 
L 384.422111 77.920198 
L 387.226131 77.913915 
L 390.030151 77.906816 
L 392.834171 77.898754 
L 395.638191 77.889596 
L 398.442211 77.879247 
L 401.246231 77.867665 
L 404.050251 77.854871 
L 406.854271 77.840941 
L 409.658291 77.825978 
L 412.462312 77.810081 
L 415.266332 77.7933 
L 418.070352 77.775603 
L 420.874372 77.756863 
L 423.678392 77.736867 
L 426.482412 77.715345 
L 429.286432 77.691997 
L 432.090452 77.666505 
L 434.894472 77.638514 
L 437.698492 77.607595 
L 440.502513 77.57321 
L 443.306533 77.534707 
L 446.110553 77.491371 
L 448.914573 77.442511 
L 451.718593 77.38756 
L 454.522613 77.326114 
L 457.326633 77.257864 
L 460.130653 77.182403 
L 462.934673 77.098973 
L 465.738693 77.006273 
L 468.542714 76.902457 
L 471.346734 76.785356 
L 474.150754 76.652831 
L 476.954774 76.503083 
L 479.758794 76.334702 
L 482.562814 76.146365 
L 485.366834 75.936277 
L 486.992387 75.806231 
L 485.366834 75.618925 
L 482.562814 75.328091 
L 479.758794 75.07983 
L 476.954774 74.867663 
L 474.150754 74.686312 
L 471.346734 74.531199 
L 468.542714 74.398285 
L 465.738693 74.284094 
L 462.934673 74.185778 
L 460.130653 74.101112 
L 457.326633 74.028382 
L 454.522613 73.9662 
L 451.718593 73.913322 
L 448.914573 73.86853 
L 446.110553 73.83061 
L 443.306533 73.798388 
L 440.502513 73.770796 
L 437.698492 73.746909 
L 434.894472 73.72597 
L 432.090452 73.707366 
L 429.286432 73.690602 
L 426.482412 73.675281 
L 423.678392 73.661102 
L 420.874372 73.647866 
L 418.070352 73.635495 
L 415.266332 73.624028 
L 412.462312 73.613603 
L 409.658291 73.604402 
L 406.854271 73.596599 
L 404.050251 73.5903 
L 401.246231 73.585504 
L 398.442211 73.5821 
L 395.638191 73.579876 
L 392.834171 73.578563 
L 390.030151 73.577881 
L 387.226131 73.577583 
L 384.422111 73.577487 
L 384.422111 73.577487 
L 381.61809 73.577403 
L 381.282732 73.577487 
L 378.81407 73.577521 
L 376.01005 73.577596 
L 373.20603 73.57772 
L 370.40201 73.577901 
L 367.59799 73.578135 
L 364.79397 73.578401 
L 361.98995 73.578668 
L 359.18593 73.578903 
L 356.38191 73.579081 
L 353.577889 73.579195 
L 350.773869 73.579258 
L 347.969849 73.57931 
L 345.165829 73.579406 
L 342.361809 73.579615 
L 339.557789 73.580005 
L 336.753769 73.580626 
L 333.949749 73.5815 
L 331.145729 73.582608 
L 328.341709 73.583893 
L 325.537688 73.585274 
L 322.733668 73.586664 
L 319.929648 73.587996 
L 317.125628 73.589234 
L 314.321608 73.590384 
L 311.517588 73.591486 
L 308.713568 73.592598 
L 305.909548 73.593786 
L 303.105528 73.595102 
L 300.301508 73.596577 
L 297.497487 73.598218 
L 294.693467 73.600012 
L 291.889447 73.601934 
L 289.085427 73.603961 
L 286.281407 73.606074 
L 283.477387 73.608266 
L 280.673367 73.610535 
L 277.869347 73.612885 
L 275.065327 73.615319 
L 272.261307 73.61785 
L 269.457286 73.620499 
L 266.653266 73.623302 
L 263.849246 73.62631 
L 261.045226 73.629583 
L 258.241206 73.633176 
L 255.437186 73.637134 
L 252.633166 73.641486 
L 249.829146 73.646248 
L 247.025126 73.651439 
L 244.221106 73.657095 
L 241.417085 73.663289 
L 238.613065 73.670142 
L 235.809045 73.677819 
L 233.005025 73.686514 
L 230.201005 73.696425 
L 227.396985 73.707737 
L 224.592965 73.720609 
L 221.788945 73.735187 
L 218.984925 73.751636 
L 216.180905 73.770173 
L 213.376884 73.791111 
L 210.572864 73.814901 
L 207.768844 73.842175 
L 204.964824 73.873778 
L 202.160804 73.910814 
L 199.356784 73.954684 
L 196.552764 74.007118 
L 193.748744 74.070226 
L 190.944724 74.146579 
L 188.140704 74.239359 
L 185.336683 74.352622 
L 182.532663 74.491708 
L 179.728643 74.663794 
L 176.924623 74.878549 
L 174.120603 75.148818 
L 171.316583 75.491212 
L 169.178294 75.806231 
z
M 216.180905 75.806231 
L 218.984925 75.621905 
L 221.788945 75.459668 
L 224.592965 75.316638 
L 227.396985 75.190566 
L 230.201005 75.079566 
L 233.005025 74.981924 
L 235.809045 74.896004 
L 238.613065 74.82025 
L 241.417085 74.753234 
L 244.221106 74.693712 
L 247.025126 74.640646 
L 249.829146 74.593182 
L 252.633166 74.550602 
L 255.437186 74.512275 
L 258.241206 74.477639 
L 261.045226 74.446206 
L 263.849246 74.417585 
L 266.653266 74.391509 
L 269.457286 74.367828 
L 272.261307 74.34649 
L 275.065327 74.327492 
L 277.869347 74.310829 
L 280.673367 74.296451 
L 283.477387 74.284235 
L 286.281407 74.273999 
L 289.085427 74.265517 
L 291.889447 74.258568 
L 294.693467 74.252966 
L 297.497487 74.248588 
L 300.301508 74.245382 
L 303.105528 74.243355 
L 305.909548 74.242564 
L 308.713568 74.243085 
L 311.517588 74.244987 
L 314.321608 74.248302 
L 317.125628 74.253004 
L 319.929648 74.259007 
L 322.733668 74.266189 
L 325.537688 74.274427 
L 328.341709 74.283636 
L 331.145729 74.293803 
L 333.949749 74.304982 
L 336.753769 74.317283 
L 339.557789 74.330846 
L 342.361809 74.345824 
L 345.165829 74.362376 
L 347.969849 74.380658 
L 350.773869 74.400812 
L 353.577889 74.422954 
L 356.38191 74.447162 
L 359.18593 74.473478 
L 361.98995 74.50194 
L 364.79397 74.532623 
L 367.59799 74.565698 
L 370.40201 74.601474 
L 373.20603 74.640433 
L 376.01005 74.683228 
L 378.81407 74.730665 
L 381.61809 74.783664 
L 384.422111 74.843229 
L 387.226131 74.910412 
L 390.030151 74.986311 
L 392.834171 75.072074 
L 395.638191 75.168906 
L 398.442211 75.278044 
L 401.246231 75.40067 
L 404.050251 75.53777 
L 406.854271 75.689974 
L 408.843481 75.806231 
L 406.854271 75.913285 
L 404.050251 76.054425 
L 401.246231 76.182701 
L 398.442211 76.298532 
L 395.638191 76.402623 
L 392.834171 76.495849 
L 390.030151 76.57914 
L 387.226131 76.653428 
L 384.422111 76.719641 
L 381.61809 76.778706 
L 378.81407 76.831557 
L 376.01005 76.879106 
L 373.20603 76.922208 
L 370.40201 76.96161 
L 367.59799 76.997919 
L 364.79397 77.031569 
L 361.98995 77.062836 
L 359.18593 77.091861 
L 356.38191 77.118702 
L 353.577889 77.143398 
L 350.773869 77.166009 
L 347.969849 77.18665 
L 345.165829 77.205485 
L 342.361809 77.222709 
L 339.557789 77.238522 
L 336.753769 77.253107 
L 333.949749 77.266618 
L 331.145729 77.279164 
L 328.341709 77.290802 
L 325.537688 77.301517 
L 322.733668 77.311224 
L 319.929648 77.319783 
L 317.125628 77.327033 
L 314.321608 77.332837 
L 311.517588 77.337121 
L 308.713568 77.339884 
L 305.909548 77.341195 
L 303.105528 77.341166 
L 300.301508 77.339919 
L 297.497487 77.33755 
L 294.693467 77.3341 
L 291.889447 77.329532 
L 289.085427 77.323718 
L 286.281407 77.316449 
L 283.477387 77.30746 
L 280.673367 77.296478 
L 277.869347 77.283267 
L 275.065327 77.267668 
L 272.261307 77.249611 
L 269.457286 77.229092 
L 266.653266 77.206133 
L 263.849246 77.180715 
L 261.045226 77.152728 
L 258.241206 77.12193 
L 255.437186 77.087944 
L 252.633166 77.050274 
L 249.829146 77.008341 
L 247.025126 76.961497 
L 244.221106 76.909016 
L 241.417085 76.850053 
L 238.613065 76.783602 
L 235.809045 76.708465 
L 233.005025 76.623262 
L 230.201005 76.526477 
L 227.396985 76.416497 
L 224.592965 76.291608 
L 221.788945 76.149904 
L 218.984925 75.989093 
z
" clip-path="url(#p39ad5dc904)" style="fill: #dae8f6"/>
    <path d="M 218.984925 75.989093 
L 221.788945 76.149904 
L 224.592965 76.291608 
L 227.396985 76.416497 
L 230.201005 76.526477 
L 233.005025 76.623262 
L 235.809045 76.708465 
L 238.613065 76.783602 
L 241.417085 76.850053 
L 244.221106 76.909016 
L 247.025126 76.961497 
L 249.829146 77.008341 
L 252.633166 77.050274 
L 255.437186 77.087944 
L 258.241206 77.12193 
L 261.045226 77.152728 
L 263.849246 77.180715 
L 266.653266 77.206133 
L 269.457286 77.229092 
L 272.261307 77.249611 
L 275.065327 77.267668 
L 277.869347 77.283267 
L 280.673367 77.296478 
L 283.477387 77.30746 
L 286.281407 77.316449 
L 289.085427 77.323718 
L 291.889447 77.329532 
L 294.693467 77.3341 
L 297.497487 77.33755 
L 300.301508 77.339919 
L 303.105528 77.341166 
L 305.909548 77.341195 
L 308.713568 77.339884 
L 311.517588 77.337121 
L 314.321608 77.332837 
L 317.125628 77.327033 
L 319.929648 77.319783 
L 322.733668 77.311224 
L 325.537688 77.301517 
L 328.341709 77.290802 
L 331.145729 77.279164 
L 333.949749 77.266618 
L 336.753769 77.253107 
L 339.557789 77.238522 
L 342.361809 77.222709 
L 345.165829 77.205485 
L 347.969849 77.18665 
L 350.773869 77.166009 
L 353.577889 77.143398 
L 356.38191 77.118702 
L 359.18593 77.091861 
L 361.98995 77.062836 
L 364.79397 77.031569 
L 367.59799 76.997919 
L 370.40201 76.96161 
L 373.20603 76.922208 
L 376.01005 76.879106 
L 378.81407 76.831557 
L 381.61809 76.778706 
L 384.422111 76.719641 
L 387.226131 76.653428 
L 390.030151 76.57914 
L 392.834171 76.495849 
L 395.638191 76.402623 
L 398.442211 76.298532 
L 401.246231 76.182701 
L 404.050251 76.054425 
L 406.854271 75.913285 
L 408.843481 75.806231 
L 406.854271 75.689974 
L 404.050251 75.53777 
L 401.246231 75.40067 
L 398.442211 75.278044 
L 395.638191 75.168906 
L 392.834171 75.072074 
L 390.030151 74.986311 
L 387.226131 74.910412 
L 384.422111 74.843229 
L 381.61809 74.783664 
L 378.81407 74.730665 
L 376.01005 74.683228 
L 373.20603 74.640433 
L 370.40201 74.601474 
L 367.59799 74.565698 
L 364.79397 74.532623 
L 361.98995 74.50194 
L 359.18593 74.473478 
L 356.38191 74.447162 
L 353.577889 74.422954 
L 350.773869 74.400812 
L 347.969849 74.380658 
L 345.165829 74.362376 
L 342.361809 74.345824 
L 339.557789 74.330846 
L 336.753769 74.317283 
L 333.949749 74.304982 
L 331.145729 74.293803 
L 328.341709 74.283636 
L 325.537688 74.274427 
L 322.733668 74.266189 
L 319.929648 74.259007 
L 317.125628 74.253004 
L 314.321608 74.248302 
L 311.517588 74.244987 
L 308.713568 74.243085 
L 305.909548 74.242564 
L 303.105528 74.243355 
L 300.301508 74.245382 
L 297.497487 74.248588 
L 294.693467 74.252966 
L 291.889447 74.258568 
L 289.085427 74.265517 
L 286.281407 74.273999 
L 283.477387 74.284235 
L 280.673367 74.296451 
L 277.869347 74.310829 
L 275.065327 74.327492 
L 272.261307 74.34649 
L 269.457286 74.367828 
L 266.653266 74.391509 
L 263.849246 74.417585 
L 261.045226 74.446206 
L 258.241206 74.477639 
L 255.437186 74.512275 
L 252.633166 74.550602 
L 249.829146 74.593182 
L 247.025126 74.640646 
L 244.221106 74.693712 
L 241.417085 74.753234 
L 238.613065 74.82025 
L 235.809045 74.896004 
L 233.005025 74.981924 
L 230.201005 75.079566 
L 227.396985 75.190566 
L 224.592965 75.316638 
L 221.788945 75.459668 
L 218.984925 75.621905 
L 216.180905 75.806231 
z
M 235.809045 75.806231 
L 238.613065 75.67961 
L 241.417085 75.56764 
L 244.221106 75.468271 
L 247.025126 75.37978 
L 249.829146 75.30073 
L 252.633166 75.229893 
L 255.437186 75.16618 
L 258.241206 75.108622 
L 261.045226 75.056386 
L 263.849246 75.008826 
L 266.653266 74.965513 
L 269.457286 74.926232 
L 272.261307 74.890929 
L 275.065327 74.859627 
L 277.869347 74.832333 
L 280.673367 74.808966 
L 283.477387 74.789319 
L 286.281407 74.773072 
L 289.085427 74.759831 
L 291.889447 74.749204 
L 294.693467 74.740853 
L 297.497487 74.734545 
L 300.301508 74.730168 
L 303.105528 74.727729 
L 305.909548 74.72733 
L 308.713568 74.729128 
L 311.517588 74.733282 
L 314.321608 74.739897 
L 317.125628 74.748972 
L 319.929648 74.760387 
L 322.733668 74.77393 
L 325.537688 74.789361 
L 328.341709 74.806484 
L 331.145729 74.825208 
L 333.949749 74.845568 
L 336.753769 74.867713 
L 339.557789 74.891874 
L 342.361809 74.918335 
L 345.165829 74.947411 
L 347.969849 74.979425 
L 350.773869 75.014677 
L 353.577889 75.053411 
L 356.38191 75.095791 
L 359.18593 75.141904 
L 361.98995 75.191808 
L 364.79397 75.245617 
L 367.59799 75.303604 
L 370.40201 75.366287 
L 373.20603 75.434492 
L 376.01005 75.509356 
L 378.81407 75.592292 
L 381.61809 75.684922 
L 384.422111 75.788989 
L 384.852723 75.806231 
L 384.422111 75.822585 
L 381.61809 75.921598 
L 378.81407 76.010177 
L 376.01005 76.089855 
L 373.20603 76.162084 
L 370.40201 76.228144 
L 367.59799 76.289068 
L 364.79397 76.345598 
L 361.98995 76.39819 
L 359.18593 76.447069 
L 356.38191 76.492312 
L 353.577889 76.533957 
L 350.773869 76.57208 
L 347.969849 76.606849 
L 345.165829 76.638522 
L 342.361809 76.667419 
L 339.557789 76.693881 
L 336.753769 76.718231 
L 333.949749 76.740746 
L 331.145729 76.761637 
L 328.341709 76.781012 
L 325.537688 76.798859 
L 322.733668 76.815039 
L 319.929648 76.829315 
L 317.125628 76.841419 
L 314.321608 76.851126 
L 311.517588 76.858319 
L 308.713568 76.863012 
L 305.909548 76.865328 
L 303.105528 76.865452 
L 300.301508 76.863569 
L 297.497487 76.859807 
L 294.693467 76.85419 
L 291.889447 76.846619 
L 289.085427 76.836856 
L 286.281407 76.824547 
L 283.477387 76.809268 
L 280.673367 76.790594 
L 277.869347 76.768168 
L 275.065327 76.74176 
L 272.261307 76.711274 
L 269.457286 76.676722 
L 266.653266 76.638142 
L 263.849246 76.595505 
L 261.045226 76.548618 
L 258.241206 76.497071 
L 255.437186 76.440226 
L 252.633166 76.377251 
L 249.829146 76.307174 
L 247.025126 76.228907 
L 244.221106 76.141234 
L 241.417085 76.042744 
L 238.613065 75.931747 
z
" clip-path="url(#p39ad5dc904)" style="fill: #92c4de"/>
    <path d="M 238.613065 75.931747 
L 241.417085 76.042744 
L 244.221106 76.141234 
L 247.025126 76.228907 
L 249.829146 76.307174 
L 252.633166 76.377251 
L 255.437186 76.440226 
L 258.241206 76.497071 
L 261.045226 76.548618 
L 263.849246 76.595505 
L 266.653266 76.638142 
L 269.457286 76.676722 
L 272.261307 76.711274 
L 275.065327 76.74176 
L 277.869347 76.768168 
L 280.673367 76.790594 
L 283.477387 76.809268 
L 286.281407 76.824547 
L 289.085427 76.836856 
L 291.889447 76.846619 
L 294.693467 76.85419 
L 297.497487 76.859807 
L 300.301508 76.863569 
L 303.105528 76.865452 
L 305.909548 76.865328 
L 308.713568 76.863012 
L 311.517588 76.858319 
L 314.321608 76.851126 
L 317.125628 76.841419 
L 319.929648 76.829315 
L 322.733668 76.815039 
L 325.537688 76.798859 
L 328.341709 76.781012 
L 331.145729 76.761637 
L 333.949749 76.740746 
L 336.753769 76.718231 
L 339.557789 76.693881 
L 342.361809 76.667419 
L 345.165829 76.638522 
L 347.969849 76.606849 
L 350.773869 76.57208 
L 353.577889 76.533957 
L 356.38191 76.492312 
L 359.18593 76.447069 
L 361.98995 76.39819 
L 364.79397 76.345598 
L 367.59799 76.289068 
L 370.40201 76.228144 
L 373.20603 76.162084 
L 376.01005 76.089855 
L 378.81407 76.010177 
L 381.61809 75.921598 
L 384.422111 75.822585 
L 384.852723 75.806231 
L 384.422111 75.788989 
L 381.61809 75.684922 
L 378.81407 75.592292 
L 376.01005 75.509356 
L 373.20603 75.434492 
L 370.40201 75.366287 
L 367.59799 75.303604 
L 364.79397 75.245617 
L 361.98995 75.191808 
L 359.18593 75.141904 
L 356.38191 75.095791 
L 353.577889 75.053411 
L 350.773869 75.014677 
L 347.969849 74.979425 
L 345.165829 74.947411 
L 342.361809 74.918335 
L 339.557789 74.891874 
L 336.753769 74.867713 
L 333.949749 74.845568 
L 331.145729 74.825208 
L 328.341709 74.806484 
L 325.537688 74.789361 
L 322.733668 74.77393 
L 319.929648 74.760387 
L 317.125628 74.748972 
L 314.321608 74.739897 
L 311.517588 74.733282 
L 308.713568 74.729128 
L 305.909548 74.72733 
L 303.105528 74.727729 
L 300.301508 74.730168 
L 297.497487 74.734545 
L 294.693467 74.740853 
L 291.889447 74.749204 
L 289.085427 74.759831 
L 286.281407 74.773072 
L 283.477387 74.789319 
L 280.673367 74.808966 
L 277.869347 74.832333 
L 275.065327 74.859627 
L 272.261307 74.890929 
L 269.457286 74.926232 
L 266.653266 74.965513 
L 263.849246 75.008826 
L 261.045226 75.056386 
L 258.241206 75.108622 
L 255.437186 75.16618 
L 252.633166 75.229893 
L 249.829146 75.30073 
L 247.025126 75.37978 
L 244.221106 75.468271 
L 241.417085 75.56764 
L 238.613065 75.67961 
L 235.809045 75.806231 
z
M 249.150243 75.806231 
L 249.829146 75.782679 
L 252.633166 75.692594 
L 255.437186 75.61159 
L 258.241206 75.538418 
L 261.045226 75.472013 
L 263.849246 75.411551 
L 266.653266 75.356498 
L 269.457286 75.30659 
L 272.261307 75.261775 
L 275.065327 75.222092 
L 277.869347 75.187557 
L 280.673367 75.158068 
L 283.477387 75.133359 
L 286.281407 75.113017 
L 289.085427 75.096535 
L 291.889447 75.083403 
L 294.693467 75.073179 
L 297.497487 75.065556 
L 300.301508 75.060382 
L 303.105528 75.057662 
L 305.909548 75.05753 
L 308.713568 75.060198 
L 311.517588 75.065887 
L 314.321608 75.074749 
L 317.125628 75.086802 
L 319.929648 75.101903 
L 322.733668 75.11978 
L 325.537688 75.14011 
L 328.341709 75.162623 
L 331.145729 75.187176 
L 333.949749 75.213789 
L 336.753769 75.24264 
L 339.557789 75.27402 
L 342.361809 75.308303 
L 345.165829 75.34591 
L 347.969849 75.387277 
L 350.773869 75.432813 
L 353.577889 75.482849 
L 356.38191 75.537608 
L 359.18593 75.597205 
L 361.98995 75.661714 
L 364.79397 75.731276 
L 367.59799 75.806231 
L 364.79397 75.878346 
L 361.98995 75.945464 
L 359.18593 76.007867 
L 356.38191 76.065645 
L 353.577889 76.118834 
L 350.773869 76.167523 
L 347.969849 76.211915 
L 345.165829 76.252333 
L 342.361809 76.289182 
L 339.557789 76.322897 
L 336.753769 76.353897 
L 333.949749 76.382547 
L 331.145729 76.409121 
L 328.341709 76.433766 
L 325.537688 76.456471 
L 322.733668 76.47706 
L 319.929648 76.495231 
L 317.125628 76.510641 
L 314.321608 76.523006 
L 311.517588 76.532181 
L 308.713568 76.538188 
L 305.909548 76.541189 
L 303.105528 76.541417 
L 300.301508 76.539101 
L 297.497487 76.53439 
L 294.693467 76.527298 
L 291.889447 76.517681 
L 289.085427 76.505228 
L 286.281407 76.489486 
L 283.477387 76.469922 
L 280.673367 76.446009 
L 277.869347 76.417307 
L 275.065327 76.383535 
L 272.261307 76.344584 
L 269.457286 76.300473 
L 266.653266 76.251253 
L 263.849246 76.196886 
L 261.045226 76.137125 
L 258.241206 76.071445 
L 255.437186 75.99903 
L 252.633166 75.918819 
L 249.829146 75.82957 
z
" clip-path="url(#p39ad5dc904)" style="fill: #4e9acb"/>
    <path d="M 249.829146 75.82957 
L 252.633166 75.918819 
L 255.437186 75.99903 
L 258.241206 76.071445 
L 261.045226 76.137125 
L 263.849246 76.196886 
L 266.653266 76.251253 
L 269.457286 76.300473 
L 272.261307 76.344584 
L 275.065327 76.383535 
L 277.869347 76.417307 
L 280.673367 76.446009 
L 283.477387 76.469922 
L 286.281407 76.489486 
L 289.085427 76.505228 
L 291.889447 76.517681 
L 294.693467 76.527298 
L 297.497487 76.53439 
L 300.301508 76.539101 
L 303.105528 76.541417 
L 305.909548 76.541189 
L 308.713568 76.538188 
L 311.517588 76.532181 
L 314.321608 76.523006 
L 317.125628 76.510641 
L 319.929648 76.495231 
L 322.733668 76.47706 
L 325.537688 76.456471 
L 328.341709 76.433766 
L 331.145729 76.409121 
L 333.949749 76.382547 
L 336.753769 76.353897 
L 339.557789 76.322897 
L 342.361809 76.289182 
L 345.165829 76.252333 
L 347.969849 76.211915 
L 350.773869 76.167523 
L 353.577889 76.118834 
L 356.38191 76.065645 
L 359.18593 76.007867 
L 361.98995 75.945464 
L 364.79397 75.878346 
L 367.59799 75.806231 
L 364.79397 75.731276 
L 361.98995 75.661714 
L 359.18593 75.597205 
L 356.38191 75.537608 
L 353.577889 75.482849 
L 350.773869 75.432813 
L 347.969849 75.387277 
L 345.165829 75.34591 
L 342.361809 75.308303 
L 339.557789 75.27402 
L 336.753769 75.24264 
L 333.949749 75.213789 
L 331.145729 75.187176 
L 328.341709 75.162623 
L 325.537688 75.14011 
L 322.733668 75.11978 
L 319.929648 75.101903 
L 317.125628 75.086802 
L 314.321608 75.074749 
L 311.517588 75.065887 
L 308.713568 75.060198 
L 305.909548 75.05753 
L 303.105528 75.057662 
L 300.301508 75.060382 
L 297.497487 75.065556 
L 294.693467 75.073179 
L 291.889447 75.083403 
L 289.085427 75.096535 
L 286.281407 75.113017 
L 283.477387 75.133359 
L 280.673367 75.158068 
L 277.869347 75.187557 
L 275.065327 75.222092 
L 272.261307 75.261775 
L 269.457286 75.30659 
L 266.653266 75.356498 
L 263.849246 75.411551 
L 261.045226 75.472013 
L 258.241206 75.538418 
L 255.437186 75.61159 
L 252.633166 75.692594 
L 249.829146 75.782679 
L 249.150243 75.806231 
z
M 258.241206 75.806231 
L 261.045226 75.730996 
L 263.849246 75.662496 
L 266.653266 75.600127 
L 269.457286 75.543598 
L 272.261307 75.492856 
L 275.065327 75.44795 
L 277.869347 75.408903 
L 280.673367 75.375599 
L 283.477387 75.347736 
L 286.281407 75.324842 
L 289.085427 75.306341 
L 291.889447 75.291647 
L 294.693467 75.280257 
L 297.497487 75.271814 
L 300.301508 75.266144 
L 303.105528 75.263249 
L 305.909548 75.263283 
L 308.713568 75.266493 
L 311.517588 75.273138 
L 314.321608 75.283401 
L 317.125628 75.29731 
L 319.929648 75.314707 
L 322.733668 75.335284 
L 325.537688 75.358668 
L 328.341709 75.38454 
L 331.145729 75.412724 
L 333.949749 75.443234 
L 336.753769 75.476263 
L 339.557789 75.512141 
L 342.361809 75.551298 
L 345.165829 75.594221 
L 347.969849 75.641416 
L 350.773869 75.69336 
L 353.577889 75.750439 
L 356.089638 75.806231 
L 353.577889 75.860164 
L 350.773869 75.915437 
L 347.969849 75.965826 
L 345.165829 76.011692 
L 342.361809 76.053496 
L 339.557789 76.091731 
L 336.753769 76.126876 
L 333.949749 76.159348 
L 331.145729 76.189463 
L 328.341709 76.217392 
L 325.537688 76.243124 
L 322.733668 76.26646 
L 319.929648 76.287058 
L 317.125628 76.304528 
L 314.321608 76.31855 
L 311.517588 76.32896 
L 308.713568 76.335786 
L 305.909548 76.339213 
L 303.105528 76.339506 
L 300.301508 76.33692 
L 297.497487 76.331617 
L 294.693467 76.323606 
L 291.889447 76.312715 
L 289.085427 76.298585 
L 286.281407 76.280704 
L 283.477387 76.258471 
L 280.673367 76.231292 
L 277.869347 76.198679 
L 275.065327 76.16032 
L 272.261307 76.116094 
L 269.457286 76.066026 
L 266.653266 76.010177 
L 263.849246 75.9485 
L 261.045226 75.880718 
z
" clip-path="url(#p39ad5dc904)" style="fill: #2c7cba"/>
    <path d="M 261.045226 75.880718 
L 263.849246 75.9485 
L 266.653266 76.010177 
L 269.457286 76.066026 
L 272.261307 76.116094 
L 275.065327 76.16032 
L 277.869347 76.198679 
L 280.673367 76.231292 
L 283.477387 76.258471 
L 286.281407 76.280704 
L 289.085427 76.298585 
L 291.889447 76.312715 
L 294.693467 76.323606 
L 297.497487 76.331617 
L 300.301508 76.33692 
L 303.105528 76.339506 
L 305.909548 76.339213 
L 308.713568 76.335786 
L 311.517588 76.32896 
L 314.321608 76.31855 
L 317.125628 76.304528 
L 319.929648 76.287058 
L 322.733668 76.26646 
L 325.537688 76.243124 
L 328.341709 76.217392 
L 331.145729 76.189463 
L 333.949749 76.159348 
L 336.753769 76.126876 
L 339.557789 76.091731 
L 342.361809 76.053496 
L 345.165829 76.011692 
L 347.969849 75.965826 
L 350.773869 75.915437 
L 353.577889 75.860164 
L 356.089638 75.806231 
L 353.577889 75.750439 
L 350.773869 75.69336 
L 347.969849 75.641416 
L 345.165829 75.594221 
L 342.361809 75.551298 
L 339.557789 75.512141 
L 336.753769 75.476263 
L 333.949749 75.443234 
L 331.145729 75.412724 
L 328.341709 75.38454 
L 325.537688 75.358668 
L 322.733668 75.335284 
L 319.929648 75.314707 
L 317.125628 75.29731 
L 314.321608 75.283401 
L 311.517588 75.273138 
L 308.713568 75.266493 
L 305.909548 75.263283 
L 303.105528 75.263249 
L 300.301508 75.266144 
L 297.497487 75.271814 
L 294.693467 75.280257 
L 291.889447 75.291647 
L 289.085427 75.306341 
L 286.281407 75.324842 
L 283.477387 75.347736 
L 280.673367 75.375599 
L 277.869347 75.408903 
L 275.065327 75.44795 
L 272.261307 75.492856 
L 269.457286 75.543598 
L 266.653266 75.600127 
L 263.849246 75.662496 
L 261.045226 75.730996 
L 258.241206 75.806231 
z
M 268.826269 75.806231 
L 269.457286 75.792249 
L 272.261307 75.735289 
L 275.065327 75.684904 
L 277.869347 75.641123 
L 280.673367 75.603816 
L 283.477387 75.572644 
L 286.281407 75.547074 
L 289.085427 75.526454 
L 291.889447 75.510122 
L 294.693467 75.497507 
L 297.497487 75.488205 
L 300.301508 75.482014 
L 303.105528 75.478935 
L 305.909548 75.479144 
L 308.713568 75.482922 
L 311.517588 75.490571 
L 314.321608 75.502303 
L 317.125628 75.518159 
L 319.929648 75.537966 
L 322.733668 75.561376 
L 325.537688 75.587963 
L 328.341709 75.617358 
L 331.145729 75.649353 
L 333.949749 75.683951 
L 336.753769 75.721363 
L 339.557789 75.761961 
L 342.361809 75.806231 
L 339.557789 75.849208 
L 336.753769 75.888701 
L 333.949749 75.925183 
L 331.145729 75.959013 
L 328.341709 75.990388 
L 325.537688 76.019296 
L 322.733668 76.045514 
L 319.929648 76.068658 
L 317.125628 76.088289 
L 314.321608 76.104049 
L 311.517588 76.115754 
L 308.713568 76.12344 
L 305.909548 76.127314 
L 303.105528 76.127675 
L 300.301508 76.124807 
L 297.497487 76.118883 
L 294.693467 76.109907 
L 291.889447 76.097679 
L 289.085427 76.08179 
L 286.281407 76.061665 
L 283.477387 76.036631 
L 280.673367 76.006027 
L 277.869347 75.969311 
L 275.065327 75.926138 
L 272.261307 75.876378 
L 269.457286 75.820062 
z
" clip-path="url(#p39ad5dc904)" style="fill: #1663aa"/>
    <path d="M 269.457286 75.820062 
L 272.261307 75.876378 
L 275.065327 75.926138 
L 277.869347 75.969311 
L 280.673367 76.006027 
L 283.477387 76.036631 
L 286.281407 76.061665 
L 289.085427 76.08179 
L 291.889447 76.097679 
L 294.693467 76.109907 
L 297.497487 76.118883 
L 300.301508 76.124807 
L 303.105528 76.127675 
L 305.909548 76.127314 
L 308.713568 76.12344 
L 311.517588 76.115754 
L 314.321608 76.104049 
L 317.125628 76.088289 
L 319.929648 76.068658 
L 322.733668 76.045514 
L 325.537688 76.019296 
L 328.341709 75.990388 
L 331.145729 75.959013 
L 333.949749 75.925183 
L 336.753769 75.888701 
L 339.557789 75.849208 
L 342.361809 75.806231 
L 339.557789 75.761961 
L 336.753769 75.721363 
L 333.949749 75.683951 
L 331.145729 75.649353 
L 328.341709 75.617358 
L 325.537688 75.587963 
L 322.733668 75.561376 
L 319.929648 75.537966 
L 317.125628 75.518159 
L 314.321608 75.502303 
L 311.517588 75.490571 
L 308.713568 75.482922 
L 305.909548 75.479144 
L 303.105528 75.478935 
L 300.301508 75.482014 
L 297.497487 75.488205 
L 294.693467 75.497507 
L 291.889447 75.510122 
L 289.085427 75.526454 
L 286.281407 75.547074 
L 283.477387 75.572644 
L 280.673367 75.603816 
L 277.869347 75.641123 
L 275.065327 75.684904 
L 272.261307 75.735289 
L 269.457286 75.792249 
L 268.826269 75.806231 
z
M 277.192552 75.806231 
L 277.869347 75.795079 
L 280.673367 75.755119 
L 283.477387 75.721753 
L 286.281407 75.694408 
L 289.085427 75.672383 
L 291.889447 75.654965 
L 294.693467 75.641539 
L 297.497487 75.631666 
L 300.301508 75.62513 
L 303.105528 75.62193 
L 305.909548 75.622254 
L 308.713568 75.626409 
L 311.517588 75.634723 
L 314.321608 75.647429 
L 317.125628 75.664576 
L 319.929648 75.685981 
L 322.733668 75.711268 
L 325.537688 75.739979 
L 328.341709 75.77171 
L 331.145729 75.806231 
L 328.341709 75.83989 
L 325.537688 75.870904 
L 322.733668 75.899033 
L 319.929648 75.923864 
L 317.125628 75.944929 
L 314.321608 75.96184 
L 311.517588 75.974405 
L 308.713568 75.98266 
L 305.909548 75.986831 
L 303.105528 75.987237 
L 300.301508 75.984181 
L 297.497487 75.977846 
L 294.693467 75.968231 
L 291.889447 75.955116 
L 289.085427 75.938061 
L 286.281407 75.916448 
L 283.477387 75.889557 
L 280.673367 75.856682 
L 277.869347 75.817247 
z
" clip-path="url(#p39ad5dc904)" style="fill: #084e98"/>
    <path d="M 277.869347 75.817247 
L 280.673367 75.856682 
L 283.477387 75.889557 
L 286.281407 75.916448 
L 289.085427 75.938061 
L 291.889447 75.955116 
L 294.693467 75.968231 
L 297.497487 75.977846 
L 300.301508 75.984181 
L 303.105528 75.987237 
L 305.909548 75.986831 
L 308.713568 75.98266 
L 311.517588 75.974405 
L 314.321608 75.96184 
L 317.125628 75.944929 
L 319.929648 75.923864 
L 322.733668 75.899033 
L 325.537688 75.870904 
L 328.341709 75.83989 
L 331.145729 75.806231 
L 328.341709 75.77171 
L 325.537688 75.739979 
L 322.733668 75.711268 
L 319.929648 75.685981 
L 317.125628 75.664576 
L 314.321608 75.647429 
L 311.517588 75.634723 
L 308.713568 75.626409 
L 305.909548 75.622254 
L 303.105528 75.62193 
L 300.301508 75.62513 
L 297.497487 75.631666 
L 294.693467 75.641539 
L 291.889447 75.654965 
L 289.085427 75.672383 
L 286.281407 75.694408 
L 283.477387 75.721753 
L 280.673367 75.755119 
L 277.869347 75.795079 
L 277.192552 75.806231 
z
M 286.281407 75.806231 
L 289.085427 75.78314 
L 291.889447 75.764898 
L 294.693467 75.750856 
L 297.497487 75.740551 
L 300.301508 75.733752 
L 303.105528 75.73046 
L 305.909548 75.730872 
L 308.713568 75.735313 
L 311.517588 75.744131 
L 314.321608 75.757577 
L 317.125628 75.775704 
L 319.929648 75.798321 
L 320.767348 75.806231 
L 319.929648 75.813969 
L 317.125628 75.836121 
L 314.321608 75.853907 
L 311.517588 75.867124 
L 308.713568 75.875811 
L 305.909548 75.880207 
L 303.105528 75.880648 
L 300.301508 75.877449 
L 297.497487 75.870801 
L 294.693467 75.860701 
L 291.889447 75.846913 
L 289.085427 75.828974 
z
" clip-path="url(#p39ad5dc904)" style="fill: #084082"/>
    <path d="M 289.085427 75.828974 
L 291.889447 75.846913 
L 294.693467 75.860701 
L 297.497487 75.870801 
L 300.301508 75.877449 
L 303.105528 75.880648 
L 305.909548 75.880207 
L 308.713568 75.875811 
L 311.517588 75.867124 
L 314.321608 75.853907 
L 317.125628 75.836121 
L 319.929648 75.813969 
L 320.767348 75.806231 
L 319.929648 75.798321 
L 317.125628 75.775704 
L 314.321608 75.757577 
L 311.517588 75.744131 
L 308.713568 75.735313 
L 305.909548 75.730872 
L 303.105528 75.73046 
L 300.301508 75.733752 
L 297.497487 75.740551 
L 294.693467 75.750856 
L 291.889447 75.764898 
L 289.085427 75.78314 
L 286.281407 75.806231 
z
M 294.693467 75.806231 
L 297.497487 75.795707 
L 300.301508 75.788776 
L 303.105528 75.785437 
L 305.909548 75.785893 
L 308.713568 75.790479 
L 311.517588 75.799553 
L 312.8772 75.806231 
L 311.517588 75.812779 
L 308.713568 75.821686 
L 305.909548 75.826196 
L 303.105528 75.826654 
L 300.301508 75.823383 
L 297.497487 75.816577 
z
" clip-path="url(#p39ad5dc904)" style="fill: #083573"/>
    <path d="M 297.497487 75.816577 
L 300.301508 75.823383 
L 303.105528 75.826654 
L 305.909548 75.826196 
L 308.713568 75.821686 
L 311.517588 75.812779 
L 312.8772 75.806231 
L 311.517588 75.799553 
L 308.713568 75.790479 
L 305.909548 75.785893 
L 303.105528 75.785437 
L 300.301508 75.788776 
L 297.497487 75.795707 
L 294.693467 75.806231 
z
" clip-path="url(#p39ad5dc904)" style="fill: #08316d"/>
   </g>
   <g id="matplotlib.axis_1">
    <g id="xtick_1">
     <g id="line2d_1">
      <defs>
       <path id="m4c1cb533a8" d="M 0 0 
L 0 3.5 
" style="stroke: #000000; stroke-width: 0.8"/>
      </defs>
      <g>
       <use xlink:href="#m4c1cb533a8" x="150.630425" y="512.64" style="stroke: #000000; stroke-width: 0.8"/>
      </g>
     </g>
     <g id="text_1">
      <!-- −40 -->
      <g transform="translate(140.078081 527.238438) scale(0.1 -0.1)">
       <defs>
        <path id="DejaVuSans-2212" d="M 678 2272 
L 4684 2272 
L 4684 1741 
L 678 1741 
L 678 2272 
z
" transform="scale(0.015625)"/>
        <path id="DejaVuSans-34" d="M 2419 4116 
L 825 1625 
L 2419 1625 
L 2419 4116 
z
M 2253 4666 
L 3047 4666 
L 3047 1625 
L 3713 1625 
L 3713 1100 
L 3047 1100 
L 3047 0 
L 2419 0 
L 2419 1100 
L 313 1100 
L 313 1709 
L 2253 4666 
z
" transform="scale(0.015625)"/>
        <path id="DejaVuSans-30" d="M 2034 4250 
Q 1547 4250 1301 3770 
Q 1056 3291 1056 2328 
Q 1056 1369 1301 889 
Q 1547 409 2034 409 
Q 2525 409 2770 889 
Q 3016 1369 3016 2328 
Q 3016 3291 2770 3770 
Q 2525 4250 2034 4250 
z
M 2034 4750 
Q 2819 4750 3233 4129 
Q 3647 3509 3647 2328 
Q 3647 1150 3233 529 
Q 2819 -91 2034 -91 
Q 1250 -91 836 529 
Q 422 1150 422 2328 
Q 422 3509 836 4129 
Q 1250 4750 2034 4750 
z
" transform="scale(0.015625)"/>
       </defs>
       <use xlink:href="#DejaVuSans-2212"/>
       <use xlink:href="#DejaVuSans-34" x="83.789062"/>
       <use xlink:href="#DejaVuSans-30" x="147.412109"/>
      </g>
     </g>
    </g>
    <g id="xtick_2">
     <g id="line2d_2">
      <g>
       <use xlink:href="#m4c1cb533a8" x="213.945022" y="512.64" style="stroke: #000000; stroke-width: 0.8"/>
      </g>
     </g>
     <g id="text_2">
      <!-- −20 -->
      <g transform="translate(203.392678 527.238438) scale(0.1 -0.1)">
       <defs>
        <path id="DejaVuSans-32" d="M 1228 531 
L 3431 531 
L 3431 0 
L 469 0 
L 469 531 
Q 828 903 1448 1529 
Q 2069 2156 2228 2338 
Q 2531 2678 2651 2914 
Q 2772 3150 2772 3378 
Q 2772 3750 2511 3984 
Q 2250 4219 1831 4219 
Q 1534 4219 1204 4116 
Q 875 4013 500 3803 
L 500 4441 
Q 881 4594 1212 4672 
Q 1544 4750 1819 4750 
Q 2544 4750 2975 4387 
Q 3406 4025 3406 3419 
Q 3406 3131 3298 2873 
Q 3191 2616 2906 2266 
Q 2828 2175 2409 1742 
Q 1991 1309 1228 531 
z
" transform="scale(0.015625)"/>
       </defs>
       <use xlink:href="#DejaVuSans-2212"/>
       <use xlink:href="#DejaVuSans-32" x="83.789062"/>
       <use xlink:href="#DejaVuSans-30" x="147.412109"/>
      </g>
     </g>
    </g>
    <g id="xtick_3">
     <g id="line2d_3">
      <g>
       <use xlink:href="#m4c1cb533a8" x="277.259619" y="512.64" style="stroke: #000000; stroke-width: 0.8"/>
      </g>
     </g>
     <g id="text_3">
      <!-- 0 -->
      <g transform="translate(274.078369 527.238438) scale(0.1 -0.1)">
       <use xlink:href="#DejaVuSans-30"/>
      </g>
     </g>
    </g>
    <g id="xtick_4">
     <g id="line2d_4">
      <g>
       <use xlink:href="#m4c1cb533a8" x="340.574217" y="512.64" style="stroke: #000000; stroke-width: 0.8"/>
      </g>
     </g>
     <g id="text_4">
      <!-- 20 -->
      <g transform="translate(334.211717 527.238438) scale(0.1 -0.1)">
       <use xlink:href="#DejaVuSans-32"/>
       <use xlink:href="#DejaVuSans-30" x="63.623047"/>
      </g>
     </g>
    </g>
    <g id="xtick_5">
     <g id="line2d_5">
      <g>
       <use xlink:href="#m4c1cb533a8" x="403.888814" y="512.64" style="stroke: #000000; stroke-width: 0.8"/>
      </g>
     </g>
     <g id="text_5">
      <!-- 40 -->
      <g transform="translate(397.526314 527.238438) scale(0.1 -0.1)">
       <use xlink:href="#DejaVuSans-34"/>
       <use xlink:href="#DejaVuSans-30" x="63.623047"/>
      </g>
     </g>
    </g>
    <g id="xtick_6">
     <g id="line2d_6">
      <g>
       <use xlink:href="#m4c1cb533a8" x="467.203412" y="512.64" style="stroke: #000000; stroke-width: 0.8"/>
      </g>
     </g>
     <g id="text_6">
      <!-- 60 -->
      <g transform="translate(460.840912 527.238438) scale(0.1 -0.1)">
       <defs>
        <path id="DejaVuSans-36" d="M 2113 2584 
Q 1688 2584 1439 2293 
Q 1191 2003 1191 1497 
Q 1191 994 1439 701 
Q 1688 409 2113 409 
Q 2538 409 2786 701 
Q 3034 994 3034 1497 
Q 3034 2003 2786 2293 
Q 2538 2584 2113 2584 
z
M 3366 4563 
L 3366 3988 
Q 3128 4100 2886 4159 
Q 2644 4219 2406 4219 
Q 1781 4219 1451 3797 
Q 1122 3375 1075 2522 
Q 1259 2794 1537 2939 
Q 1816 3084 2150 3084 
Q 2853 3084 3261 2657 
Q 3669 2231 3669 1497 
Q 3669 778 3244 343 
Q 2819 -91 2113 -91 
Q 1303 -91 875 529 
Q 447 1150 447 2328 
Q 447 3434 972 4092 
Q 1497 4750 2381 4750 
Q 2619 4750 2861 4703 
Q 3103 4656 3366 4563 
z
" transform="scale(0.015625)"/>
       </defs>
       <use xlink:href="#DejaVuSans-36"/>
       <use xlink:href="#DejaVuSans-30" x="63.623047"/>
      </g>
     </g>
    </g>
    <g id="xtick_7">
     <g id="line2d_7">
      <g>
       <use xlink:href="#m4c1cb533a8" x="530.518009" y="512.64" style="stroke: #000000; stroke-width: 0.8"/>
      </g>
     </g>
     <g id="text_7">
      <!-- 80 -->
      <g transform="translate(524.155509 527.238438) scale(0.1 -0.1)">
       <defs>
        <path id="DejaVuSans-38" d="M 2034 2216 
Q 1584 2216 1326 1975 
Q 1069 1734 1069 1313 
Q 1069 891 1326 650 
Q 1584 409 2034 409 
Q 2484 409 2743 651 
Q 3003 894 3003 1313 
Q 3003 1734 2745 1975 
Q 2488 2216 2034 2216 
z
M 1403 2484 
Q 997 2584 770 2862 
Q 544 3141 544 3541 
Q 544 4100 942 4425 
Q 1341 4750 2034 4750 
Q 2731 4750 3128 4425 
Q 3525 4100 3525 3541 
Q 3525 3141 3298 2862 
Q 3072 2584 2669 2484 
Q 3125 2378 3379 2068 
Q 3634 1759 3634 1313 
Q 3634 634 3220 271 
Q 2806 -91 2034 -91 
Q 1263 -91 848 271 
Q 434 634 434 1313 
Q 434 1759 690 2068 
Q 947 2378 1403 2484 
z
M 1172 3481 
Q 1172 3119 1398 2916 
Q 1625 2713 2034 2713 
Q 2441 2713 2670 2916 
Q 2900 3119 2900 3481 
Q 2900 3844 2670 4047 
Q 2441 4250 2034 4250 
Q 1625 4250 1398 4047 
Q 1172 3844 1172 3481 
z
" transform="scale(0.015625)"/>
       </defs>
       <use xlink:href="#DejaVuSans-38"/>
       <use xlink:href="#DejaVuSans-30" x="63.623047"/>
      </g>
     </g>
    </g>
    <g id="xtick_8">
     <g id="line2d_8">
      <g>
       <use xlink:href="#m4c1cb533a8" x="593.832607" y="512.64" style="stroke: #000000; stroke-width: 0.8"/>
      </g>
     </g>
     <g id="text_8">
      <!-- 100 -->
      <g transform="translate(584.288857 527.238438) scale(0.1 -0.1)">
       <defs>
        <path id="DejaVuSans-31" d="M 794 531 
L 1825 531 
L 1825 4091 
L 703 3866 
L 703 4441 
L 1819 4666 
L 2450 4666 
L 2450 531 
L 3481 531 
L 3481 0 
L 794 0 
L 794 531 
z
" transform="scale(0.015625)"/>
       </defs>
       <use xlink:href="#DejaVuSans-31"/>
       <use xlink:href="#DejaVuSans-30" x="63.623047"/>
       <use xlink:href="#DejaVuSans-30" x="127.246094"/>
      </g>
     </g>
    </g>
    <g id="text_9">
     <!-- Ground Truth Energy -->
     <g transform="translate(317.257812 540.916563) scale(0.1 -0.1)">
      <defs>
       <path id="DejaVuSans-47" d="M 3809 666 
L 3809 1919 
L 2778 1919 
L 2778 2438 
L 4434 2438 
L 4434 434 
Q 4069 175 3628 42 
Q 3188 -91 2688 -91 
Q 1594 -91 976 548 
Q 359 1188 359 2328 
Q 359 3472 976 4111 
Q 1594 4750 2688 4750 
Q 3144 4750 3555 4637 
Q 3966 4525 4313 4306 
L 4313 3634 
Q 3963 3931 3569 4081 
Q 3175 4231 2741 4231 
Q 1884 4231 1454 3753 
Q 1025 3275 1025 2328 
Q 1025 1384 1454 906 
Q 1884 428 2741 428 
Q 3075 428 3337 486 
Q 3600 544 3809 666 
z
" transform="scale(0.015625)"/>
       <path id="DejaVuSans-72" d="M 2631 2963 
Q 2534 3019 2420 3045 
Q 2306 3072 2169 3072 
Q 1681 3072 1420 2755 
Q 1159 2438 1159 1844 
L 1159 0 
L 581 0 
L 581 3500 
L 1159 3500 
L 1159 2956 
Q 1341 3275 1631 3429 
Q 1922 3584 2338 3584 
Q 2397 3584 2469 3576 
Q 2541 3569 2628 3553 
L 2631 2963 
z
" transform="scale(0.015625)"/>
       <path id="DejaVuSans-6f" d="M 1959 3097 
Q 1497 3097 1228 2736 
Q 959 2375 959 1747 
Q 959 1119 1226 758 
Q 1494 397 1959 397 
Q 2419 397 2687 759 
Q 2956 1122 2956 1747 
Q 2956 2369 2687 2733 
Q 2419 3097 1959 3097 
z
M 1959 3584 
Q 2709 3584 3137 3096 
Q 3566 2609 3566 1747 
Q 3566 888 3137 398 
Q 2709 -91 1959 -91 
Q 1206 -91 779 398 
Q 353 888 353 1747 
Q 353 2609 779 3096 
Q 1206 3584 1959 3584 
z
" transform="scale(0.015625)"/>
       <path id="DejaVuSans-75" d="M 544 1381 
L 544 3500 
L 1119 3500 
L 1119 1403 
Q 1119 906 1312 657 
Q 1506 409 1894 409 
Q 2359 409 2629 706 
Q 2900 1003 2900 1516 
L 2900 3500 
L 3475 3500 
L 3475 0 
L 2900 0 
L 2900 538 
Q 2691 219 2414 64 
Q 2138 -91 1772 -91 
Q 1169 -91 856 284 
Q 544 659 544 1381 
z
M 1991 3584 
L 1991 3584 
z
" transform="scale(0.015625)"/>
       <path id="DejaVuSans-6e" d="M 3513 2113 
L 3513 0 
L 2938 0 
L 2938 2094 
Q 2938 2591 2744 2837 
Q 2550 3084 2163 3084 
Q 1697 3084 1428 2787 
Q 1159 2491 1159 1978 
L 1159 0 
L 581 0 
L 581 3500 
L 1159 3500 
L 1159 2956 
Q 1366 3272 1645 3428 
Q 1925 3584 2291 3584 
Q 2894 3584 3203 3211 
Q 3513 2838 3513 2113 
z
" transform="scale(0.015625)"/>
       <path id="DejaVuSans-64" d="M 2906 2969 
L 2906 4863 
L 3481 4863 
L 3481 0 
L 2906 0 
L 2906 525 
Q 2725 213 2448 61 
Q 2172 -91 1784 -91 
Q 1150 -91 751 415 
Q 353 922 353 1747 
Q 353 2572 751 3078 
Q 1150 3584 1784 3584 
Q 2172 3584 2448 3432 
Q 2725 3281 2906 2969 
z
M 947 1747 
Q 947 1113 1208 752 
Q 1469 391 1925 391 
Q 2381 391 2643 752 
Q 2906 1113 2906 1747 
Q 2906 2381 2643 2742 
Q 2381 3103 1925 3103 
Q 1469 3103 1208 2742 
Q 947 2381 947 1747 
z
" transform="scale(0.015625)"/>
       <path id="DejaVuSans-20" transform="scale(0.015625)"/>
       <path id="DejaVuSans-54" d="M -19 4666 
L 3928 4666 
L 3928 4134 
L 2272 4134 
L 2272 0 
L 1638 0 
L 1638 4134 
L -19 4134 
L -19 4666 
z
" transform="scale(0.015625)"/>
       <path id="DejaVuSans-74" d="M 1172 4494 
L 1172 3500 
L 2356 3500 
L 2356 3053 
L 1172 3053 
L 1172 1153 
Q 1172 725 1289 603 
Q 1406 481 1766 481 
L 2356 481 
L 2356 0 
L 1766 0 
Q 1100 0 847 248 
Q 594 497 594 1153 
L 594 3053 
L 172 3053 
L 172 3500 
L 594 3500 
L 594 4494 
L 1172 4494 
z
" transform="scale(0.015625)"/>
       <path id="DejaVuSans-68" d="M 3513 2113 
L 3513 0 
L 2938 0 
L 2938 2094 
Q 2938 2591 2744 2837 
Q 2550 3084 2163 3084 
Q 1697 3084 1428 2787 
Q 1159 2491 1159 1978 
L 1159 0 
L 581 0 
L 581 4863 
L 1159 4863 
L 1159 2956 
Q 1366 3272 1645 3428 
Q 1925 3584 2291 3584 
Q 2894 3584 3203 3211 
Q 3513 2838 3513 2113 
z
" transform="scale(0.015625)"/>
       <path id="DejaVuSans-45" d="M 628 4666 
L 3578 4666 
L 3578 4134 
L 1259 4134 
L 1259 2753 
L 3481 2753 
L 3481 2222 
L 1259 2222 
L 1259 531 
L 3634 531 
L 3634 0 
L 628 0 
L 628 4666 
z
" transform="scale(0.015625)"/>
       <path id="DejaVuSans-65" d="M 3597 1894 
L 3597 1613 
L 953 1613 
Q 991 1019 1311 708 
Q 1631 397 2203 397 
Q 2534 397 2845 478 
Q 3156 559 3463 722 
L 3463 178 
Q 3153 47 2828 -22 
Q 2503 -91 2169 -91 
Q 1331 -91 842 396 
Q 353 884 353 1716 
Q 353 2575 817 3079 
Q 1281 3584 2069 3584 
Q 2775 3584 3186 3129 
Q 3597 2675 3597 1894 
z
M 3022 2063 
Q 3016 2534 2758 2815 
Q 2500 3097 2075 3097 
Q 1594 3097 1305 2825 
Q 1016 2553 972 2059 
L 3022 2063 
z
" transform="scale(0.015625)"/>
       <path id="DejaVuSans-67" d="M 2906 1791 
Q 2906 2416 2648 2759 
Q 2391 3103 1925 3103 
Q 1463 3103 1205 2759 
Q 947 2416 947 1791 
Q 947 1169 1205 825 
Q 1463 481 1925 481 
Q 2391 481 2648 825 
Q 2906 1169 2906 1791 
z
M 3481 434 
Q 3481 -459 3084 -895 
Q 2688 -1331 1869 -1331 
Q 1566 -1331 1297 -1286 
Q 1028 -1241 775 -1147 
L 775 -588 
Q 1028 -725 1275 -790 
Q 1522 -856 1778 -856 
Q 2344 -856 2625 -561 
Q 2906 -266 2906 331 
L 2906 616 
Q 2728 306 2450 153 
Q 2172 0 1784 0 
Q 1141 0 747 490 
Q 353 981 353 1791 
Q 353 2603 747 3093 
Q 1141 3584 1784 3584 
Q 2172 3584 2450 3431 
Q 2728 3278 2906 2969 
L 2906 3500 
L 3481 3500 
L 3481 434 
z
" transform="scale(0.015625)"/>
       <path id="DejaVuSans-79" d="M 2059 -325 
Q 1816 -950 1584 -1140 
Q 1353 -1331 966 -1331 
L 506 -1331 
L 506 -850 
L 844 -850 
Q 1081 -850 1212 -737 
Q 1344 -625 1503 -206 
L 1606 56 
L 191 3500 
L 800 3500 
L 1894 763 
L 2988 3500 
L 3597 3500 
L 2059 -325 
z
" transform="scale(0.015625)"/>
      </defs>
      <use xlink:href="#DejaVuSans-47"/>
      <use xlink:href="#DejaVuSans-72" x="77.490234"/>
      <use xlink:href="#DejaVuSans-6f" x="116.353516"/>
      <use xlink:href="#DejaVuSans-75" x="177.535156"/>
      <use xlink:href="#DejaVuSans-6e" x="240.914062"/>
      <use xlink:href="#DejaVuSans-64" x="304.292969"/>
      <use xlink:href="#DejaVuSans-20" x="367.769531"/>
      <use xlink:href="#DejaVuSans-54" x="399.556641"/>
      <use xlink:href="#DejaVuSans-72" x="445.890625"/>
      <use xlink:href="#DejaVuSans-75" x="487.003906"/>
      <use xlink:href="#DejaVuSans-74" x="550.382812"/>
      <use xlink:href="#DejaVuSans-68" x="589.591797"/>
      <use xlink:href="#DejaVuSans-20" x="652.970703"/>
      <use xlink:href="#DejaVuSans-45" x="684.757812"/>
      <use xlink:href="#DejaVuSans-6e" x="747.941406"/>
      <use xlink:href="#DejaVuSans-65" x="811.320312"/>
      <use xlink:href="#DejaVuSans-72" x="872.84375"/>
      <use xlink:href="#DejaVuSans-67" x="912.207031"/>
      <use xlink:href="#DejaVuSans-79" x="975.683594"/>
     </g>
    </g>
   </g>
   <g id="matplotlib.axis_2">
    <g id="ytick_1">
     <g id="line2d_9">
      <defs>
       <path id="m83265d9752" d="M 0 0 
L -3.5 0 
" style="stroke: #000000; stroke-width: 0.8"/>
      </defs>
      <g>
       <use xlink:href="#m83265d9752" x="90" y="504.0091" style="stroke: #000000; stroke-width: 0.8"/>
      </g>
     </g>
     <g id="text_10">
      <!-- −35000 -->
      <g transform="translate(42.807812 507.808319) scale(0.1 -0.1)">
       <defs>
        <path id="DejaVuSans-33" d="M 2597 2516 
Q 3050 2419 3304 2112 
Q 3559 1806 3559 1356 
Q 3559 666 3084 287 
Q 2609 -91 1734 -91 
Q 1441 -91 1130 -33 
Q 819 25 488 141 
L 488 750 
Q 750 597 1062 519 
Q 1375 441 1716 441 
Q 2309 441 2620 675 
Q 2931 909 2931 1356 
Q 2931 1769 2642 2001 
Q 2353 2234 1838 2234 
L 1294 2234 
L 1294 2753 
L 1863 2753 
Q 2328 2753 2575 2939 
Q 2822 3125 2822 3475 
Q 2822 3834 2567 4026 
Q 2313 4219 1838 4219 
Q 1578 4219 1281 4162 
Q 984 4106 628 3988 
L 628 4550 
Q 988 4650 1302 4700 
Q 1616 4750 1894 4750 
Q 2613 4750 3031 4423 
Q 3450 4097 3450 3541 
Q 3450 3153 3228 2886 
Q 3006 2619 2597 2516 
z
" transform="scale(0.015625)"/>
        <path id="DejaVuSans-35" d="M 691 4666 
L 3169 4666 
L 3169 4134 
L 1269 4134 
L 1269 2991 
Q 1406 3038 1543 3061 
Q 1681 3084 1819 3084 
Q 2600 3084 3056 2656 
Q 3513 2228 3513 1497 
Q 3513 744 3044 326 
Q 2575 -91 1722 -91 
Q 1428 -91 1123 -41 
Q 819 9 494 109 
L 494 744 
Q 775 591 1075 516 
Q 1375 441 1709 441 
Q 2250 441 2565 725 
Q 2881 1009 2881 1497 
Q 2881 1984 2565 2268 
Q 2250 2553 1709 2553 
Q 1456 2553 1204 2497 
Q 953 2441 691 2322 
L 691 4666 
z
" transform="scale(0.015625)"/>
       </defs>
       <use xlink:href="#DejaVuSans-2212"/>
       <use xlink:href="#DejaVuSans-33" x="83.789062"/>
       <use xlink:href="#DejaVuSans-35" x="147.412109"/>
       <use xlink:href="#DejaVuSans-30" x="211.035156"/>
       <use xlink:href="#DejaVuSans-30" x="274.658203"/>
       <use xlink:href="#DejaVuSans-30" x="338.28125"/>
      </g>
     </g>
    </g>
    <g id="ytick_2">
     <g id="line2d_10">
      <g>
       <use xlink:href="#m83265d9752" x="90" y="442.767693" style="stroke: #000000; stroke-width: 0.8"/>
      </g>
     </g>
     <g id="text_11">
      <!-- −30000 -->
      <g transform="translate(42.807812 446.566912) scale(0.1 -0.1)">
       <use xlink:href="#DejaVuSans-2212"/>
       <use xlink:href="#DejaVuSans-33" x="83.789062"/>
       <use xlink:href="#DejaVuSans-30" x="147.412109"/>
       <use xlink:href="#DejaVuSans-30" x="211.035156"/>
       <use xlink:href="#DejaVuSans-30" x="274.658203"/>
       <use xlink:href="#DejaVuSans-30" x="338.28125"/>
      </g>
     </g>
    </g>
    <g id="ytick_3">
     <g id="line2d_11">
      <g>
       <use xlink:href="#m83265d9752" x="90" y="381.526287" style="stroke: #000000; stroke-width: 0.8"/>
      </g>
     </g>
     <g id="text_12">
      <!-- −25000 -->
      <g transform="translate(42.807812 385.325505) scale(0.1 -0.1)">
       <use xlink:href="#DejaVuSans-2212"/>
       <use xlink:href="#DejaVuSans-32" x="83.789062"/>
       <use xlink:href="#DejaVuSans-35" x="147.412109"/>
       <use xlink:href="#DejaVuSans-30" x="211.035156"/>
       <use xlink:href="#DejaVuSans-30" x="274.658203"/>
       <use xlink:href="#DejaVuSans-30" x="338.28125"/>
      </g>
     </g>
    </g>
    <g id="ytick_4">
     <g id="line2d_12">
      <g>
       <use xlink:href="#m83265d9752" x="90" y="320.28488" style="stroke: #000000; stroke-width: 0.8"/>
      </g>
     </g>
     <g id="text_13">
      <!-- −20000 -->
      <g transform="translate(42.807812 324.084099) scale(0.1 -0.1)">
       <use xlink:href="#DejaVuSans-2212"/>
       <use xlink:href="#DejaVuSans-32" x="83.789062"/>
       <use xlink:href="#DejaVuSans-30" x="147.412109"/>
       <use xlink:href="#DejaVuSans-30" x="211.035156"/>
       <use xlink:href="#DejaVuSans-30" x="274.658203"/>
       <use xlink:href="#DejaVuSans-30" x="338.28125"/>
      </g>
     </g>
    </g>
    <g id="ytick_5">
     <g id="line2d_13">
      <g>
       <use xlink:href="#m83265d9752" x="90" y="259.043473" style="stroke: #000000; stroke-width: 0.8"/>
      </g>
     </g>
     <g id="text_14">
      <!-- −15000 -->
      <g transform="translate(42.807812 262.842692) scale(0.1 -0.1)">
       <use xlink:href="#DejaVuSans-2212"/>
       <use xlink:href="#DejaVuSans-31" x="83.789062"/>
       <use xlink:href="#DejaVuSans-35" x="147.412109"/>
       <use xlink:href="#DejaVuSans-30" x="211.035156"/>
       <use xlink:href="#DejaVuSans-30" x="274.658203"/>
       <use xlink:href="#DejaVuSans-30" x="338.28125"/>
      </g>
     </g>
    </g>
    <g id="ytick_6">
     <g id="line2d_14">
      <g>
       <use xlink:href="#m83265d9752" x="90" y="197.802066" style="stroke: #000000; stroke-width: 0.8"/>
      </g>
     </g>
     <g id="text_15">
      <!-- −10000 -->
      <g transform="translate(42.807812 201.601285) scale(0.1 -0.1)">
       <use xlink:href="#DejaVuSans-2212"/>
       <use xlink:href="#DejaVuSans-31" x="83.789062"/>
       <use xlink:href="#DejaVuSans-30" x="147.412109"/>
       <use xlink:href="#DejaVuSans-30" x="211.035156"/>
       <use xlink:href="#DejaVuSans-30" x="274.658203"/>
       <use xlink:href="#DejaVuSans-30" x="338.28125"/>
      </g>
     </g>
    </g>
    <g id="ytick_7">
     <g id="line2d_15">
      <g>
       <use xlink:href="#m83265d9752" x="90" y="136.560659" style="stroke: #000000; stroke-width: 0.8"/>
      </g>
     </g>
     <g id="text_16">
      <!-- −5000 -->
      <g transform="translate(49.170313 140.359878) scale(0.1 -0.1)">
       <use xlink:href="#DejaVuSans-2212"/>
       <use xlink:href="#DejaVuSans-35" x="83.789062"/>
       <use xlink:href="#DejaVuSans-30" x="147.412109"/>
       <use xlink:href="#DejaVuSans-30" x="211.035156"/>
       <use xlink:href="#DejaVuSans-30" x="274.658203"/>
      </g>
     </g>
    </g>
    <g id="ytick_8">
     <g id="line2d_16">
      <g>
       <use xlink:href="#m83265d9752" x="90" y="75.319253" style="stroke: #000000; stroke-width: 0.8"/>
      </g>
     </g>
     <g id="text_17">
      <!-- 0 -->
      <g transform="translate(76.6375 79.118471) scale(0.1 -0.1)">
       <use xlink:href="#DejaVuSans-30"/>
      </g>
     </g>
    </g>
    <g id="text_18">
     <!-- Predicted Energy -->
     <g transform="translate(36.728125 333.445625) rotate(-90) scale(0.1 -0.1)">
      <defs>
       <path id="DejaVuSans-50" d="M 1259 4147 
L 1259 2394 
L 2053 2394 
Q 2494 2394 2734 2622 
Q 2975 2850 2975 3272 
Q 2975 3691 2734 3919 
Q 2494 4147 2053 4147 
L 1259 4147 
z
M 628 4666 
L 2053 4666 
Q 2838 4666 3239 4311 
Q 3641 3956 3641 3272 
Q 3641 2581 3239 2228 
Q 2838 1875 2053 1875 
L 1259 1875 
L 1259 0 
L 628 0 
L 628 4666 
z
" transform="scale(0.015625)"/>
       <path id="DejaVuSans-69" d="M 603 3500 
L 1178 3500 
L 1178 0 
L 603 0 
L 603 3500 
z
M 603 4863 
L 1178 4863 
L 1178 4134 
L 603 4134 
L 603 4863 
z
" transform="scale(0.015625)"/>
       <path id="DejaVuSans-63" d="M 3122 3366 
L 3122 2828 
Q 2878 2963 2633 3030 
Q 2388 3097 2138 3097 
Q 1578 3097 1268 2742 
Q 959 2388 959 1747 
Q 959 1106 1268 751 
Q 1578 397 2138 397 
Q 2388 397 2633 464 
Q 2878 531 3122 666 
L 3122 134 
Q 2881 22 2623 -34 
Q 2366 -91 2075 -91 
Q 1284 -91 818 406 
Q 353 903 353 1747 
Q 353 2603 823 3093 
Q 1294 3584 2113 3584 
Q 2378 3584 2631 3529 
Q 2884 3475 3122 3366 
z
" transform="scale(0.015625)"/>
      </defs>
      <use xlink:href="#DejaVuSans-50"/>
      <use xlink:href="#DejaVuSans-72" x="58.552734"/>
      <use xlink:href="#DejaVuSans-65" x="97.416016"/>
      <use xlink:href="#DejaVuSans-64" x="158.939453"/>
      <use xlink:href="#DejaVuSans-69" x="222.416016"/>
      <use xlink:href="#DejaVuSans-63" x="250.199219"/>
      <use xlink:href="#DejaVuSans-74" x="305.179688"/>
      <use xlink:href="#DejaVuSans-65" x="344.388672"/>
      <use xlink:href="#DejaVuSans-64" x="405.912109"/>
      <use xlink:href="#DejaVuSans-20" x="469.388672"/>
      <use xlink:href="#DejaVuSans-45" x="501.175781"/>
      <use xlink:href="#DejaVuSans-6e" x="564.359375"/>
      <use xlink:href="#DejaVuSans-65" x="627.738281"/>
      <use xlink:href="#DejaVuSans-72" x="689.261719"/>
      <use xlink:href="#DejaVuSans-67" x="728.625"/>
      <use xlink:href="#DejaVuSans-79" x="792.101562"/>
     </g>
    </g>
   </g>
   <g id="line2d_17">
    <path d="M 122.069163 75.919688 
L 615.930837 74.008926 
" clip-path="url(#p39ad5dc904)" style="fill: none; stroke-dasharray: 5.55,2.4; stroke-dashoffset: 0; stroke: #ff0000; stroke-width: 1.5"/>
   </g>
   <g id="patch_3">
    <path d="M 90 512.64 
L 90 69.12 
" style="fill: none; stroke: #000000; stroke-width: 0.8; stroke-linejoin: miter; stroke-linecap: square"/>
   </g>
   <g id="patch_4">
    <path d="M 648 512.64 
L 648 69.12 
" style="fill: none; stroke: #000000; stroke-width: 0.8; stroke-linejoin: miter; stroke-linecap: square"/>
   </g>
   <g id="patch_5">
    <path d="M 90 512.64 
L 648 512.64 
" style="fill: none; stroke: #000000; stroke-width: 0.8; stroke-linejoin: miter; stroke-linecap: square"/>
   </g>
   <g id="patch_6">
    <path d="M 90 69.12 
L 648 69.12 
" style="fill: none; stroke: #000000; stroke-width: 0.8; stroke-linejoin: miter; stroke-linecap: square"/>
   </g>
   <g id="text_19">
    <!-- Energy R2 Score: -155.18158089546452 -->
    <g transform="translate(145.8 113.472) scale(0.1 -0.1)">
     <defs>
      <path id="DejaVuSans-52" d="M 2841 2188 
Q 3044 2119 3236 1894 
Q 3428 1669 3622 1275 
L 4263 0 
L 3584 0 
L 2988 1197 
Q 2756 1666 2539 1819 
Q 2322 1972 1947 1972 
L 1259 1972 
L 1259 0 
L 628 0 
L 628 4666 
L 2053 4666 
Q 2853 4666 3247 4331 
Q 3641 3997 3641 3322 
Q 3641 2881 3436 2590 
Q 3231 2300 2841 2188 
z
M 1259 4147 
L 1259 2491 
L 2053 2491 
Q 2509 2491 2742 2702 
Q 2975 2913 2975 3322 
Q 2975 3731 2742 3939 
Q 2509 4147 2053 4147 
L 1259 4147 
z
" transform="scale(0.015625)"/>
      <path id="DejaVuSans-53" d="M 3425 4513 
L 3425 3897 
Q 3066 4069 2747 4153 
Q 2428 4238 2131 4238 
Q 1616 4238 1336 4038 
Q 1056 3838 1056 3469 
Q 1056 3159 1242 3001 
Q 1428 2844 1947 2747 
L 2328 2669 
Q 3034 2534 3370 2195 
Q 3706 1856 3706 1288 
Q 3706 609 3251 259 
Q 2797 -91 1919 -91 
Q 1588 -91 1214 -16 
Q 841 59 441 206 
L 441 856 
Q 825 641 1194 531 
Q 1563 422 1919 422 
Q 2459 422 2753 634 
Q 3047 847 3047 1241 
Q 3047 1584 2836 1778 
Q 2625 1972 2144 2069 
L 1759 2144 
Q 1053 2284 737 2584 
Q 422 2884 422 3419 
Q 422 4038 858 4394 
Q 1294 4750 2059 4750 
Q 2388 4750 2728 4690 
Q 3069 4631 3425 4513 
z
" transform="scale(0.015625)"/>
      <path id="DejaVuSans-3a" d="M 750 794 
L 1409 794 
L 1409 0 
L 750 0 
L 750 794 
z
M 750 3309 
L 1409 3309 
L 1409 2516 
L 750 2516 
L 750 3309 
z
" transform="scale(0.015625)"/>
      <path id="DejaVuSans-2d" d="M 313 2009 
L 1997 2009 
L 1997 1497 
L 313 1497 
L 313 2009 
z
" transform="scale(0.015625)"/>
      <path id="DejaVuSans-2e" d="M 684 794 
L 1344 794 
L 1344 0 
L 684 0 
L 684 794 
z
" transform="scale(0.015625)"/>
      <path id="DejaVuSans-39" d="M 703 97 
L 703 672 
Q 941 559 1184 500 
Q 1428 441 1663 441 
Q 2288 441 2617 861 
Q 2947 1281 2994 2138 
Q 2813 1869 2534 1725 
Q 2256 1581 1919 1581 
Q 1219 1581 811 2004 
Q 403 2428 403 3163 
Q 403 3881 828 4315 
Q 1253 4750 1959 4750 
Q 2769 4750 3195 4129 
Q 3622 3509 3622 2328 
Q 3622 1225 3098 567 
Q 2575 -91 1691 -91 
Q 1453 -91 1209 -44 
Q 966 3 703 97 
z
M 1959 2075 
Q 2384 2075 2632 2365 
Q 2881 2656 2881 3163 
Q 2881 3666 2632 3958 
Q 2384 4250 1959 4250 
Q 1534 4250 1286 3958 
Q 1038 3666 1038 3163 
Q 1038 2656 1286 2365 
Q 1534 2075 1959 2075 
z
" transform="scale(0.015625)"/>
     </defs>
     <use xlink:href="#DejaVuSans-45"/>
     <use xlink:href="#DejaVuSans-6e" x="63.183594"/>
     <use xlink:href="#DejaVuSans-65" x="126.5625"/>
     <use xlink:href="#DejaVuSans-72" x="188.085938"/>
     <use xlink:href="#DejaVuSans-67" x="227.449219"/>
     <use xlink:href="#DejaVuSans-79" x="290.925781"/>
     <use xlink:href="#DejaVuSans-20" x="350.105469"/>
     <use xlink:href="#DejaVuSans-52" x="381.892578"/>
     <use xlink:href="#DejaVuSans-32" x="451.375"/>
     <use xlink:href="#DejaVuSans-20" x="514.998047"/>
     <use xlink:href="#DejaVuSans-53" x="546.785156"/>
     <use xlink:href="#DejaVuSans-63" x="610.261719"/>
     <use xlink:href="#DejaVuSans-6f" x="665.242188"/>
     <use xlink:href="#DejaVuSans-72" x="726.423828"/>
     <use xlink:href="#DejaVuSans-65" x="765.287109"/>
     <use xlink:href="#DejaVuSans-3a" x="826.810547"/>
     <use xlink:href="#DejaVuSans-20" x="860.501953"/>
     <use xlink:href="#DejaVuSans-2d" x="892.289062"/>
     <use xlink:href="#DejaVuSans-31" x="928.373047"/>
     <use xlink:href="#DejaVuSans-35" x="991.996094"/>
     <use xlink:href="#DejaVuSans-35" x="1055.619141"/>
     <use xlink:href="#DejaVuSans-2e" x="1119.242188"/>
     <use xlink:href="#DejaVuSans-31" x="1151.029297"/>
     <use xlink:href="#DejaVuSans-38" x="1214.652344"/>
     <use xlink:href="#DejaVuSans-31" x="1278.275391"/>
     <use xlink:href="#DejaVuSans-35" x="1341.898438"/>
     <use xlink:href="#DejaVuSans-38" x="1405.521484"/>
     <use xlink:href="#DejaVuSans-30" x="1469.144531"/>
     <use xlink:href="#DejaVuSans-38" x="1532.767578"/>
     <use xlink:href="#DejaVuSans-39" x="1596.390625"/>
     <use xlink:href="#DejaVuSans-35" x="1660.013672"/>
     <use xlink:href="#DejaVuSans-34" x="1723.636719"/>
     <use xlink:href="#DejaVuSans-36" x="1787.259766"/>
     <use xlink:href="#DejaVuSans-34" x="1850.882812"/>
     <use xlink:href="#DejaVuSans-35" x="1914.505859"/>
     <use xlink:href="#DejaVuSans-32" x="1978.128906"/>
    </g>
   </g>
   <g id="text_20">
    <!-- MVE Out Distribution -->
    <g transform="translate(306.233437 63.12) scale(0.12 -0.12)">
     <defs>
      <path id="DejaVuSans-4d" d="M 628 4666 
L 1569 4666 
L 2759 1491 
L 3956 4666 
L 4897 4666 
L 4897 0 
L 4281 0 
L 4281 4097 
L 3078 897 
L 2444 897 
L 1241 4097 
L 1241 0 
L 628 0 
L 628 4666 
z
" transform="scale(0.015625)"/>
      <path id="DejaVuSans-56" d="M 1831 0 
L 50 4666 
L 709 4666 
L 2188 738 
L 3669 4666 
L 4325 4666 
L 2547 0 
L 1831 0 
z
" transform="scale(0.015625)"/>
      <path id="DejaVuSans-4f" d="M 2522 4238 
Q 1834 4238 1429 3725 
Q 1025 3213 1025 2328 
Q 1025 1447 1429 934 
Q 1834 422 2522 422 
Q 3209 422 3611 934 
Q 4013 1447 4013 2328 
Q 4013 3213 3611 3725 
Q 3209 4238 2522 4238 
z
M 2522 4750 
Q 3503 4750 4090 4092 
Q 4678 3434 4678 2328 
Q 4678 1225 4090 567 
Q 3503 -91 2522 -91 
Q 1538 -91 948 565 
Q 359 1222 359 2328 
Q 359 3434 948 4092 
Q 1538 4750 2522 4750 
z
" transform="scale(0.015625)"/>
      <path id="DejaVuSans-44" d="M 1259 4147 
L 1259 519 
L 2022 519 
Q 2988 519 3436 956 
Q 3884 1394 3884 2338 
Q 3884 3275 3436 3711 
Q 2988 4147 2022 4147 
L 1259 4147 
z
M 628 4666 
L 1925 4666 
Q 3281 4666 3915 4102 
Q 4550 3538 4550 2338 
Q 4550 1131 3912 565 
Q 3275 0 1925 0 
L 628 0 
L 628 4666 
z
" transform="scale(0.015625)"/>
      <path id="DejaVuSans-73" d="M 2834 3397 
L 2834 2853 
Q 2591 2978 2328 3040 
Q 2066 3103 1784 3103 
Q 1356 3103 1142 2972 
Q 928 2841 928 2578 
Q 928 2378 1081 2264 
Q 1234 2150 1697 2047 
L 1894 2003 
Q 2506 1872 2764 1633 
Q 3022 1394 3022 966 
Q 3022 478 2636 193 
Q 2250 -91 1575 -91 
Q 1294 -91 989 -36 
Q 684 19 347 128 
L 347 722 
Q 666 556 975 473 
Q 1284 391 1588 391 
Q 1994 391 2212 530 
Q 2431 669 2431 922 
Q 2431 1156 2273 1281 
Q 2116 1406 1581 1522 
L 1381 1569 
Q 847 1681 609 1914 
Q 372 2147 372 2553 
Q 372 3047 722 3315 
Q 1072 3584 1716 3584 
Q 2034 3584 2315 3537 
Q 2597 3491 2834 3397 
z
" transform="scale(0.015625)"/>
      <path id="DejaVuSans-62" d="M 3116 1747 
Q 3116 2381 2855 2742 
Q 2594 3103 2138 3103 
Q 1681 3103 1420 2742 
Q 1159 2381 1159 1747 
Q 1159 1113 1420 752 
Q 1681 391 2138 391 
Q 2594 391 2855 752 
Q 3116 1113 3116 1747 
z
M 1159 2969 
Q 1341 3281 1617 3432 
Q 1894 3584 2278 3584 
Q 2916 3584 3314 3078 
Q 3713 2572 3713 1747 
Q 3713 922 3314 415 
Q 2916 -91 2278 -91 
Q 1894 -91 1617 61 
Q 1341 213 1159 525 
L 1159 0 
L 581 0 
L 581 4863 
L 1159 4863 
L 1159 2969 
z
" transform="scale(0.015625)"/>
     </defs>
     <use xlink:href="#DejaVuSans-4d"/>
     <use xlink:href="#DejaVuSans-56" x="86.279297"/>
     <use xlink:href="#DejaVuSans-45" x="154.6875"/>
     <use xlink:href="#DejaVuSans-20" x="217.871094"/>
     <use xlink:href="#DejaVuSans-4f" x="249.658203"/>
     <use xlink:href="#DejaVuSans-75" x="328.369141"/>
     <use xlink:href="#DejaVuSans-74" x="391.748047"/>
     <use xlink:href="#DejaVuSans-20" x="430.957031"/>
     <use xlink:href="#DejaVuSans-44" x="462.744141"/>
     <use xlink:href="#DejaVuSans-69" x="539.746094"/>
     <use xlink:href="#DejaVuSans-73" x="567.529297"/>
     <use xlink:href="#DejaVuSans-74" x="619.628906"/>
     <use xlink:href="#DejaVuSans-72" x="658.837891"/>
     <use xlink:href="#DejaVuSans-69" x="699.951172"/>
     <use xlink:href="#DejaVuSans-62" x="727.734375"/>
     <use xlink:href="#DejaVuSans-75" x="791.210938"/>
     <use xlink:href="#DejaVuSans-74" x="854.589844"/>
     <use xlink:href="#DejaVuSans-69" x="893.798828"/>
     <use xlink:href="#DejaVuSans-6f" x="921.582031"/>
     <use xlink:href="#DejaVuSans-6e" x="982.763672"/>
    </g>
   </g>
  </g>
 </g>
 <defs>
  <clipPath id="p39ad5dc904">
   <rect x="90" y="69.12" width="558" height="443.52"/>
  </clipPath>
 </defs>
</svg>
