<?xml version="1.0" encoding="utf-8" standalone="no"?>
<!DOCTYPE svg PUBLIC "-//W3C//DTD SVG 1.1//EN"
  "http://www.w3.org/Graphics/SVG/1.1/DTD/svg11.dtd">
<svg xmlns:xlink="http://www.w3.org/1999/xlink" width="720pt" height="576pt" viewBox="0 0 720 576" xmlns="http://www.w3.org/2000/svg" version="1.1">
 <metadata>
  <rdf:RDF xmlns:dc="http://purl.org/dc/elements/1.1/" xmlns:cc="http://creativecommons.org/ns#" xmlns:rdf="http://www.w3.org/1999/02/22-rdf-syntax-ns#">
   <cc:Work>
    <dc:type rdf:resource="http://purl.org/dc/dcmitype/StillImage"/>
    <dc:date>2024-11-29T20:18:33.594630</dc:date>
    <dc:format>image/svg+xml</dc:format>
    <dc:creator>
     <cc:Agent>
      <dc:title>Matplotlib v3.8.4, https://matplotlib.org/</dc:title>
     </cc:Agent>
    </dc:creator>
   </cc:Work>
  </rdf:RDF>
 </metadata>
 <defs>
  <style type="text/css">*{stroke-linejoin: round; stroke-linecap: butt}</style>
 </defs>
 <g id="figure_1">
  <g id="patch_1">
   <path d="M 0 576 
L 720 576 
L 720 0 
L 0 0 
z
" style="fill: #ffffff"/>
  </g>
  <g id="axes_1">
   <g id="patch_2">
    <path d="M 90 512.64 
L 648 512.64 
L 648 69.12 
L 90 69.12 
z
" style="fill: #ffffff"/>
   </g>
   <g id="QuadContourSet_1">
    <path d="M 112.432161 495.118917 
L 112.820872 494.81005 
L 112.432161 494.50123 
L 112.043638 494.81005 
z
M 115.236181 493.543287 
L 116.447058 492.581307 
L 118.040201 491.71444 
L 119.75488 490.352563 
L 120.844221 489.73866 
L 122.878103 488.123819 
L 123.648241 487.674754 
L 125.890746 485.895075 
L 126.452261 485.556482 
L 128.835292 483.666332 
L 129.256281 483.403909 
L 131.736962 481.437588 
L 132.060302 481.229341 
L 134.611175 479.208844 
L 134.864322 479.040534 
L 137.467592 476.980101 
L 137.668342 476.842481 
L 140.312375 474.751357 
L 140.472362 474.638445 
L 143.149504 472.522613 
L 143.276382 472.430576 
L 145.981584 470.293869 
L 146.080402 470.220304 
L 148.810368 468.065126 
L 148.884422 468.008623 
L 151.637121 465.836382 
L 151.688442 465.79629 
L 154.462865 463.607638 
L 154.492462 463.583983 
L 157.288535 461.378894 
L 157.296482 461.372399 
L 160.100503 459.350875 
L 160.354584 459.150151 
L 162.904523 457.368378 
L 163.467644 456.921407 
L 165.708543 455.321282 
L 166.497356 454.692663 
L 168.512563 453.223007 
L 169.462424 452.46392 
L 171.316583 451.082457 
L 172.375241 450.235176 
L 174.120603 448.905231 
L 175.243307 448.006432 
L 176.924623 446.693971 
L 178.069816 445.777688 
L 179.728643 444.448269 
L 180.853826 443.548945 
L 182.532663 442.164349 
L 183.590096 441.320201 
L 185.336683 439.83446 
L 186.268488 439.091457 
L 188.140704 437.445836 
L 188.872712 436.862714 
L 190.944724 434.979012 
L 191.37819 434.63397 
L 193.748744 432.405226 
L 193.748744 432.405226 
L 196.134156 430.176482 
L 196.552764 429.611018 
L 198.246656 427.947739 
L 196.552764 427.171943 
L 195.576035 427.947739 
L 193.748744 429.042659 
L 192.321 430.176482 
L 190.944724 430.999805 
L 189.174604 432.405226 
L 188.140704 433.028105 
L 186.117628 434.63397 
L 185.336683 435.11129 
L 183.129614 436.862714 
L 182.532663 437.234807 
L 180.192304 439.091457 
L 179.728643 439.387085 
L 177.291233 441.320201 
L 176.924623 441.559587 
L 174.415806 443.548945 
L 174.120603 443.746335 
L 171.558664 445.777688 
L 171.316583 445.943307 
L 168.714892 448.006432 
L 168.512563 448.147901 
L 165.881291 450.235176 
L 165.708543 450.358494 
L 163.055783 452.46392 
L 162.904523 452.574091 
L 160.236956 454.692663 
L 160.100503 454.794049 
L 157.423755 456.921407 
L 157.296482 457.017895 
L 154.615312 459.150151 
L 154.492462 459.245228 
L 151.810894 461.378894 
L 151.688442 461.475708 
L 149.009936 463.607638 
L 148.884422 463.709096 
L 146.21212 465.836382 
L 146.080402 465.945345 
L 143.417454 468.065126 
L 143.276382 468.184701 
L 140.626379 470.293869 
L 140.472362 470.427824 
L 137.839866 472.522613 
L 137.668342 472.675942 
L 135.059588 474.751357 
L 134.864322 474.931069 
L 132.288165 476.980101 
L 132.060302 477.196355 
L 129.529611 479.208844 
L 129.256281 479.476683 
L 126.790087 481.437588 
L 126.452261 481.779686 
L 124.079194 483.666332 
L 123.648241 484.117545 
L 121.41224 485.895075 
L 120.844221 486.510204 
L 118.8143 488.123819 
L 118.040201 488.991312 
L 116.32769 490.352563 
L 115.236181 491.619585 
L 114.026266 492.581307 
z
M 122.902278 485.895075 
L 123.648241 485.302065 
L 124.396374 485.895075 
L 123.648241 486.488803 
z
M 125.210523 483.666332 
L 126.452261 482.67912 
L 127.678289 481.437588 
L 129.256281 480.182904 
L 130.250312 479.208844 
L 132.060302 477.76948 
L 132.892055 476.980101 
L 134.864322 475.411393 
L 135.581485 474.751357 
L 137.668342 473.091141 
L 138.304339 472.522613 
L 140.472362 470.797425 
L 141.051335 470.293869 
L 143.276382 468.522929 
L 143.81649 468.065126 
L 146.080402 466.262988 
L 146.596095 465.836382 
L 148.884422 464.014759 
L 149.388075 463.607638 
L 151.688442 461.776684 
L 152.191575 461.378894 
L 154.492462 459.548128 
L 155.006688 459.150151 
L 157.296482 457.329145 
L 157.834311 456.921407 
L 160.100503 455.12034 
L 160.676105 454.692663 
L 162.904523 452.922862 
L 163.534629 452.46392 
L 165.708543 450.738542 
L 166.413675 450.235176 
L 168.512563 448.570218 
L 169.318894 448.006432 
L 171.316583 446.422277 
L 172.258764 445.777688 
L 174.120603 444.301442 
L 175.245982 443.548945 
L 176.924623 442.217872 
L 178.299367 441.320201 
L 179.728643 440.186639 
L 181.44632 439.091457 
L 182.532663 438.229641 
L 183.980561 439.091457 
L 182.532663 440.270218 
L 181.544388 441.320201 
L 179.728643 442.77853 
L 178.970745 443.548945 
L 176.924623 445.178311 
L 176.311763 445.777688 
L 174.120603 447.513619 
L 173.599492 448.006432 
L 171.316583 449.809828 
L 170.853403 450.235176 
L 168.512563 452.081602 
L 168.085216 452.46392 
L 165.708543 454.337433 
L 165.301869 454.692663 
L 162.904523 456.582197 
L 162.507317 456.921407 
L 160.100503 458.818601 
L 159.703622 459.150151 
L 157.296482 461.048013 
L 156.891599 461.378894 
L 154.492462 463.270944 
L 154.071185 463.607638 
L 151.688442 465.487306 
L 151.241594 465.836382 
L 148.884422 467.6965 
L 148.40129 468.065126 
L 146.080402 469.897357 
L 145.547775 470.293869 
L 143.276382 472.087932 
L 142.677154 472.522613 
L 140.472362 474.265132 
L 139.783421 474.751357 
L 137.668342 476.424139 
L 136.857346 476.980101 
L 134.864322 478.557537 
L 133.884727 479.208844 
L 132.060302 480.653936 
L 130.843543 481.437588 
L 129.256281 482.695737 
L 127.699213 483.666332 
L 126.452261 484.655377 
z
M 184.725627 436.862714 
L 185.336683 436.377809 
L 186.196511 436.862714 
L 185.336683 437.577228 
z
M 199.356784 426.440521 
L 200.063098 425.718995 
L 199.356784 425.399384 
L 198.954458 425.718995 
z
" clip-path="url(#p36bdc0f5e6)" style="fill: #e9f2fa"/>
    <path d="M 123.648241 486.488803 
L 124.396374 485.895075 
L 123.648241 485.302065 
L 122.902278 485.895075 
z
M 126.452261 484.655377 
L 127.699213 483.666332 
L 129.256281 482.695737 
L 130.843543 481.437588 
L 132.060302 480.653936 
L 133.884727 479.208844 
L 134.864322 478.557537 
L 136.857346 476.980101 
L 137.668342 476.424139 
L 139.783421 474.751357 
L 140.472362 474.265132 
L 142.677154 472.522613 
L 143.276382 472.087932 
L 145.547775 470.293869 
L 146.080402 469.897357 
L 148.40129 468.065126 
L 148.884422 467.6965 
L 151.241594 465.836382 
L 151.688442 465.487306 
L 154.071185 463.607638 
L 154.492462 463.270944 
L 156.891599 461.378894 
L 157.296482 461.048013 
L 159.703622 459.150151 
L 160.100503 458.818601 
L 162.507317 456.921407 
L 162.904523 456.582197 
L 165.301869 454.692663 
L 165.708543 454.337433 
L 168.085216 452.46392 
L 168.512563 452.081602 
L 170.853403 450.235176 
L 171.316583 449.809828 
L 173.599492 448.006432 
L 174.120603 447.513619 
L 176.311763 445.777688 
L 176.924623 445.178311 
L 178.970745 443.548945 
L 179.728643 442.77853 
L 181.544388 441.320201 
L 182.532663 440.270218 
L 183.980561 439.091457 
L 182.532663 438.229641 
L 181.44632 439.091457 
L 179.728643 440.186639 
L 178.299367 441.320201 
L 176.924623 442.217872 
L 175.245982 443.548945 
L 174.120603 444.301442 
L 172.258764 445.777688 
L 171.316583 446.422277 
L 169.318894 448.006432 
L 168.512563 448.570218 
L 166.413675 450.235176 
L 165.708543 450.738542 
L 163.534629 452.46392 
L 162.904523 452.922862 
L 160.676105 454.692663 
L 160.100503 455.12034 
L 157.834311 456.921407 
L 157.296482 457.329145 
L 155.006688 459.150151 
L 154.492462 459.548128 
L 152.191575 461.378894 
L 151.688442 461.776684 
L 149.388075 463.607638 
L 148.884422 464.014759 
L 146.596095 465.836382 
L 146.080402 466.262988 
L 143.81649 468.065126 
L 143.276382 468.522929 
L 141.051335 470.293869 
L 140.472362 470.797425 
L 138.304339 472.522613 
L 137.668342 473.091141 
L 135.581485 474.751357 
L 134.864322 475.411393 
L 132.892055 476.980101 
L 132.060302 477.76948 
L 130.250312 479.208844 
L 129.256281 480.182904 
L 127.678289 481.437588 
L 126.452261 482.67912 
L 125.210523 483.666332 
z
M 131.53072 479.208844 
L 132.060302 478.787703 
L 132.594107 479.208844 
L 132.060302 479.631661 
z
M 133.964935 476.980101 
L 134.864322 476.264744 
L 135.773174 476.980101 
L 134.864322 477.699438 
z
M 136.508695 474.751357 
L 137.668342 473.82879 
L 138.843671 474.751357 
L 137.668342 475.680906 
z
M 139.129529 472.522613 
L 140.472362 471.454063 
L 141.806319 470.293869 
L 143.276382 469.123829 
L 144.525422 468.065126 
L 146.080402 466.827318 
L 147.278271 465.836382 
L 148.884422 464.557806 
L 150.059883 463.607638 
L 151.688442 462.311402 
L 152.867898 461.378894 
L 154.492462 460.086264 
L 155.702013 459.150151 
L 157.296482 457.882116 
L 158.56371 456.921407 
L 160.100503 455.700034 
L 161.456305 454.692663 
L 162.904523 453.542494 
L 164.385355 452.46392 
L 165.708543 451.413741 
L 167.155143 452.46392 
L 165.708543 453.604264 
L 164.462525 454.692663 
L 162.904523 455.920645 
L 161.732657 456.921407 
L 160.100503 458.207968 
L 158.972664 459.150151 
L 157.296482 460.471704 
L 156.186396 461.378894 
L 154.492462 462.714795 
L 153.37532 463.607638 
L 151.688442 464.938361 
L 150.538894 465.836382 
L 148.884422 467.141978 
L 147.674517 468.065126 
L 146.080402 469.323604 
L 144.777065 470.293869 
L 143.276382 471.479186 
L 141.837969 472.522613 
L 140.472362 473.601897 
z
M 167.359517 450.235176 
L 168.512563 449.320514 
L 169.798528 450.235176 
L 168.512563 451.249529 
z
M 170.391974 448.006432 
L 171.316583 447.273223 
L 172.373203 448.006432 
L 171.316583 448.841115 
z
M 173.502573 445.777688 
L 174.120603 445.287654 
L 174.84795 445.777688 
L 174.120603 446.353924 
z
M 176.720885 443.548945 
L 176.924623 443.387391 
L 177.172962 443.548945 
L 176.924623 443.746702 
z
M 185.336683 437.577228 
L 186.196511 436.862714 
L 185.336683 436.377809 
L 184.725627 436.862714 
z
" clip-path="url(#p36bdc0f5e6)" style="fill: #c1d9ed"/>
    <path d="M 132.060302 479.631661 
L 132.594107 479.208844 
L 132.060302 478.787703 
L 131.53072 479.208844 
z
M 134.864322 477.699438 
L 135.773174 476.980101 
L 134.864322 476.264744 
L 133.964935 476.980101 
z
M 137.668342 475.680906 
L 138.843671 474.751357 
L 137.668342 473.82879 
L 136.508695 474.751357 
z
M 137.285966 474.751357 
L 137.668342 474.447155 
L 138.055888 474.751357 
L 137.668342 475.057861 
z
M 140.472362 473.601897 
L 141.837969 472.522613 
L 143.276382 471.479186 
L 144.777065 470.293869 
L 146.080402 469.323604 
L 147.674517 468.065126 
L 148.884422 467.141978 
L 150.538894 465.836382 
L 151.688442 464.938361 
L 153.37532 463.607638 
L 154.492462 462.714795 
L 156.186396 461.378894 
L 157.296482 460.471704 
L 158.972664 459.150151 
L 160.100503 458.207968 
L 161.732657 456.921407 
L 162.904523 455.920645 
L 164.462525 454.692663 
L 165.708543 453.604264 
L 167.155143 452.46392 
L 165.708543 451.413741 
L 164.385355 452.46392 
L 162.904523 453.542494 
L 161.456305 454.692663 
L 160.100503 455.700034 
L 158.56371 456.921407 
L 157.296482 457.882116 
L 155.702013 459.150151 
L 154.492462 460.086264 
L 152.867898 461.378894 
L 151.688442 462.311402 
L 150.059883 463.607638 
L 148.884422 464.557806 
L 147.278271 465.836382 
L 146.080402 466.827318 
L 144.525422 468.065126 
L 143.276382 469.123829 
L 141.806319 470.293869 
L 140.472362 471.454063 
L 139.129529 472.522613 
z
M 139.821277 472.522613 
L 140.472362 472.004517 
L 141.134489 472.522613 
L 140.472362 473.045913 
z
M 142.439216 470.293869 
L 143.276382 469.627559 
L 144.130986 470.293869 
L 143.276382 470.968879 
z
M 145.119713 468.065126 
L 146.080402 467.30039 
L 147.065269 468.065126 
L 146.080402 468.842631 
z
M 147.850133 465.836382 
L 148.884422 465.013037 
L 149.949827 465.836382 
L 148.884422 466.677127 
z
M 150.623053 463.607638 
L 151.688442 462.759652 
L 152.791983 463.607638 
L 151.688442 464.478186 
z
M 153.434854 461.378894 
L 154.492462 460.537378 
L 155.595231 461.378894 
L 154.492462 462.24858 
z
M 156.284897 459.150151 
L 157.296482 458.345667 
L 158.359908 459.150151 
L 157.296482 459.988588 
z
M 159.175159 456.921407 
L 160.100503 456.185986 
L 161.083266 456.921407 
L 160.100503 457.69608 
z
M 162.11034 454.692663 
L 162.904523 454.061926 
L 163.75891 454.692663 
L 162.904523 455.366072 
z
M 165.098511 452.46392 
L 165.708543 451.979754 
L 166.375472 452.46392 
L 165.708543 452.989654 
z
M 168.512563 451.249529 
L 169.798528 450.235176 
L 168.512563 449.320514 
L 167.359517 450.235176 
z
M 168.152408 450.235176 
L 168.512563 449.94948 
L 168.914235 450.235176 
L 168.512563 450.55201 
z
M 171.316583 448.841115 
L 172.373203 448.006432 
L 171.316583 447.273223 
L 170.391974 448.006432 
z
M 171.291527 448.006432 
L 171.316583 447.986563 
L 171.345217 448.006432 
L 171.316583 448.029052 
z
M 174.120603 446.353924 
L 174.84795 445.777688 
L 174.120603 445.287654 
L 173.502573 445.777688 
z
M 176.924623 443.746702 
L 177.172962 443.548945 
L 176.924623 443.387391 
L 176.720885 443.548945 
z
" clip-path="url(#p36bdc0f5e6)" style="fill: #6caed6"/>
    <path d="M 137.668342 475.057861 
L 138.055888 474.751357 
L 137.668342 474.447155 
L 137.285966 474.751357 
z
M 140.472362 473.045913 
L 141.134489 472.522613 
L 140.472362 472.004517 
L 139.821277 472.522613 
z
M 140.16158 472.522613 
L 140.472362 472.275311 
L 140.788414 472.522613 
L 140.472362 472.7724 
z
M 143.276382 470.968879 
L 144.130986 470.293869 
L 143.276382 469.627559 
L 142.439216 470.293869 
z
M 142.750567 470.293869 
L 143.276382 469.875367 
L 143.81315 470.293869 
L 143.276382 470.717836 
z
M 146.080402 468.842631 
L 147.065269 468.065126 
L 146.080402 467.30039 
L 145.119713 468.065126 
z
M 145.412072 468.065126 
L 146.080402 467.533116 
L 146.765552 468.065126 
L 146.080402 468.606019 
z
M 148.884422 466.677127 
L 149.949827 465.836382 
L 148.884422 465.013037 
L 147.850133 465.836382 
z
M 148.131458 465.836382 
L 148.884422 465.236985 
L 149.660039 465.836382 
L 148.884422 466.448445 
z
M 151.688442 464.478186 
L 152.791983 463.607638 
L 151.688442 462.759652 
L 150.623053 463.607638 
z
M 150.900102 463.607638 
L 151.688442 462.980166 
L 152.505013 463.607638 
L 151.688442 464.251805 
z
M 154.492462 462.24858 
L 155.595231 461.378894 
L 154.492462 460.537378 
L 153.434854 461.378894 
z
M 153.713765 461.378894 
L 154.492462 460.759302 
L 155.30441 461.378894 
L 154.492462 462.019227 
z
M 157.296482 459.988588 
L 158.359908 459.150151 
L 157.296482 458.345667 
L 156.284897 459.150151 
z
M 156.571644 459.150151 
L 157.296482 458.573708 
L 158.058466 459.150151 
L 157.296482 459.750922 
z
M 160.100503 457.69608 
L 161.083266 456.921407 
L 160.100503 456.185986 
L 159.175159 456.921407 
z
M 159.475958 456.921407 
L 160.100503 456.425047 
L 160.763801 456.921407 
L 160.100503 457.444258 
z
M 162.904523 455.366072 
L 163.75891 454.692663 
L 162.904523 454.061926 
L 162.11034 454.692663 
z
M 162.432089 454.692663 
L 162.904523 454.317458 
L 163.41277 454.692663 
L 162.904523 455.093252 
z
M 165.708543 452.989654 
L 166.375472 452.46392 
L 165.708543 451.979754 
L 165.098511 452.46392 
z
M 165.449345 452.46392 
L 165.708543 452.258201 
L 165.991915 452.46392 
L 165.708543 452.6873 
z
M 168.512563 450.55201 
L 168.914235 450.235176 
L 168.512563 449.94948 
L 168.152408 450.235176 
z
M 171.316583 448.029052 
L 171.345217 448.006432 
L 171.316583 447.986563 
L 171.291527 448.006432 
z
" clip-path="url(#p36bdc0f5e6)" style="fill: #3a8ac2"/>
    <path d="M 140.472362 472.7724 
L 140.788414 472.522613 
L 140.472362 472.275311 
L 140.16158 472.522613 
z
M 143.276382 470.717836 
L 143.81315 470.293869 
L 143.276382 469.875367 
L 142.750567 470.293869 
z
M 143.034908 470.293869 
L 143.276382 470.101677 
L 143.522886 470.293869 
L 143.276382 470.488571 
z
M 146.080402 468.606019 
L 146.765552 468.065126 
L 146.080402 467.533116 
L 145.412072 468.065126 
z
M 145.679069 468.065126 
L 146.080402 467.745653 
L 146.491836 468.065126 
L 146.080402 468.389933 
z
M 148.884422 466.448445 
L 149.660039 465.836382 
L 148.884422 465.236985 
L 148.131458 465.836382 
z
M 148.388379 465.836382 
L 148.884422 465.441507 
L 149.395389 465.836382 
L 148.884422 466.239602 
z
M 151.688442 464.251805 
L 152.505013 463.607638 
L 151.688442 462.980166 
L 150.900102 463.607638 
z
M 151.153117 463.607638 
L 151.688442 463.181551 
L 152.242938 463.607638 
L 151.688442 464.045062 
z
M 154.492462 462.019227 
L 155.30441 461.378894 
L 154.492462 460.759302 
L 153.713765 461.378894 
z
M 153.968481 461.378894 
L 154.492462 460.961974 
L 155.038818 461.378894 
L 154.492462 461.809771 
z
M 157.296482 459.750922 
L 158.058466 459.150151 
L 157.296482 458.573708 
L 156.571644 459.150151 
z
M 156.833517 459.150151 
L 157.296482 458.781968 
L 157.783174 459.150151 
L 157.296482 459.533873 
z
M 160.100503 457.444258 
L 160.763801 456.921407 
L 160.100503 456.425047 
L 159.475958 456.921407 
z
M 159.750664 456.921407 
L 160.100503 456.643371 
L 160.47205 456.921407 
L 160.100503 457.214283 
z
M 162.904523 455.093252 
L 163.41277 454.692663 
L 162.904523 454.317458 
L 162.432089 454.692663 
z
M 162.725927 454.692663 
L 162.904523 454.550823 
L 163.096657 454.692663 
L 162.904523 454.844099 
z
M 165.708543 452.6873 
L 165.991915 452.46392 
L 165.708543 452.258201 
L 165.449345 452.46392 
z
" clip-path="url(#p36bdc0f5e6)" style="fill: #2070b4"/>
    <path d="M 143.276382 470.488571 
L 143.522886 470.293869 
L 143.276382 470.101677 
L 143.034908 470.293869 
z
M 146.080402 468.389933 
L 146.491836 468.065126 
L 146.080402 467.745653 
L 145.679069 468.065126 
z
M 146.019091 468.065126 
L 146.080402 468.01632 
L 146.143256 468.065126 
L 146.080402 468.114746 
z
M 148.884422 466.239602 
L 149.395389 465.836382 
L 148.884422 465.441507 
L 148.388379 465.836382 
z
M 148.715568 465.836382 
L 148.884422 465.701966 
L 149.058356 465.836382 
L 148.884422 465.973639 
z
M 151.688442 464.045062 
L 152.242938 463.607638 
L 151.688442 463.181551 
L 151.153117 463.607638 
z
M 151.475333 463.607638 
L 151.688442 463.438016 
L 151.909183 463.607638 
L 151.688442 463.781773 
z
M 154.492462 461.809771 
L 155.038818 461.378894 
L 154.492462 460.961974 
L 153.968481 461.378894 
z
M 154.292863 461.378894 
L 154.492462 461.220078 
L 154.700584 461.378894 
L 154.492462 461.543027 
z
M 157.296482 459.533873 
L 157.783174 459.150151 
L 157.296482 458.781968 
L 156.833517 459.150151 
z
M 157.167012 459.150151 
L 157.296482 459.047187 
L 157.432587 459.150151 
L 157.296482 459.25746 
z
M 160.100503 457.214283 
L 160.47205 456.921407 
L 160.100503 456.643371 
L 159.750664 456.921407 
z
M 162.904523 454.844099 
L 163.096657 454.692663 
L 162.904523 454.550823 
L 162.725927 454.692663 
z
" clip-path="url(#p36bdc0f5e6)" style="fill: #0a549e"/>
    <path d="M 146.080402 468.114746 
L 146.143256 468.065126 
L 146.080402 468.01632 
L 146.019091 468.065126 
z
M 148.884422 465.973639 
L 149.058356 465.836382 
L 148.884422 465.701966 
L 148.715568 465.836382 
z
M 148.84259 465.836382 
L 148.884422 465.803081 
L 148.927513 465.836382 
L 148.884422 465.870386 
z
M 151.688442 463.781773 
L 151.909183 463.607638 
L 151.688442 463.438016 
L 151.475333 463.607638 
z
M 151.600424 463.607638 
L 151.688442 463.537581 
L 151.779612 463.607638 
L 151.688442 463.679559 
z
M 154.492462 461.543027 
L 154.700584 461.378894 
L 154.492462 461.220078 
L 154.292863 461.378894 
z
M 154.418795 461.378894 
L 154.492462 461.320279 
L 154.569275 461.378894 
L 154.492462 461.439472 
z
M 157.296482 459.25746 
L 157.432587 459.150151 
L 157.296482 459.047187 
L 157.167012 459.150151 
z
" clip-path="url(#p36bdc0f5e6)" style="fill: #083e81"/>
    <path d="M 148.884422 465.870386 
L 148.927513 465.836382 
L 148.884422 465.803081 
L 148.84259 465.836382 
z
M 151.688442 463.679559 
L 151.779612 463.607638 
L 151.688442 463.537581 
L 151.600424 463.607638 
z
M 151.673599 463.607638 
L 151.688442 463.595824 
L 151.703817 463.607638 
L 151.688442 463.619767 
z
M 154.492462 461.439472 
L 154.569275 461.378894 
L 154.492462 461.320279 
L 154.418795 461.378894 
z
" clip-path="url(#p36bdc0f5e6)" style="fill: #083471"/>
    <path d="M 151.688442 463.619767 
L 151.703817 463.607638 
L 151.688442 463.595824 
L 151.673599 463.607638 
z
" clip-path="url(#p36bdc0f5e6)" style="fill: #08306b"/>
   </g>
   <g id="matplotlib.axis_1">
    <g id="xtick_1">
     <g id="line2d_1">
      <defs>
       <path id="m40f4e10fae" d="M 0 0 
L 0 3.5 
" style="stroke: #000000; stroke-width: 0.8"/>
      </defs>
      <g>
       <use xlink:href="#m40f4e10fae" x="153.459251" y="512.64" style="stroke: #000000; stroke-width: 0.8"/>
      </g>
     </g>
     <g id="text_1">
      <!-- 0 -->
      <g transform="translate(150.278001 527.238438) scale(0.1 -0.1)">
       <defs>
        <path id="DejaVuSans-30" d="M 2034 4250 
Q 1547 4250 1301 3770 
Q 1056 3291 1056 2328 
Q 1056 1369 1301 889 
Q 1547 409 2034 409 
Q 2525 409 2770 889 
Q 3016 1369 3016 2328 
Q 3016 3291 2770 3770 
Q 2525 4250 2034 4250 
z
M 2034 4750 
Q 2819 4750 3233 4129 
Q 3647 3509 3647 2328 
Q 3647 1150 3233 529 
Q 2819 -91 2034 -91 
Q 1250 -91 836 529 
Q 422 1150 422 2328 
Q 422 3509 836 4129 
Q 1250 4750 2034 4750 
z
" transform="scale(0.015625)"/>
       </defs>
       <use xlink:href="#DejaVuSans-30"/>
      </g>
     </g>
    </g>
    <g id="xtick_2">
     <g id="line2d_2">
      <g>
       <use xlink:href="#m40f4e10fae" x="235.581691" y="512.64" style="stroke: #000000; stroke-width: 0.8"/>
      </g>
     </g>
     <g id="text_2">
      <!-- 100 -->
      <g transform="translate(226.037941 527.238438) scale(0.1 -0.1)">
       <defs>
        <path id="DejaVuSans-31" d="M 794 531 
L 1825 531 
L 1825 4091 
L 703 3866 
L 703 4441 
L 1819 4666 
L 2450 4666 
L 2450 531 
L 3481 531 
L 3481 0 
L 794 0 
L 794 531 
z
" transform="scale(0.015625)"/>
       </defs>
       <use xlink:href="#DejaVuSans-31"/>
       <use xlink:href="#DejaVuSans-30" x="63.623047"/>
       <use xlink:href="#DejaVuSans-30" x="127.246094"/>
      </g>
     </g>
    </g>
    <g id="xtick_3">
     <g id="line2d_3">
      <g>
       <use xlink:href="#m40f4e10fae" x="317.704131" y="512.64" style="stroke: #000000; stroke-width: 0.8"/>
      </g>
     </g>
     <g id="text_3">
      <!-- 200 -->
      <g transform="translate(308.160381 527.238438) scale(0.1 -0.1)">
       <defs>
        <path id="DejaVuSans-32" d="M 1228 531 
L 3431 531 
L 3431 0 
L 469 0 
L 469 531 
Q 828 903 1448 1529 
Q 2069 2156 2228 2338 
Q 2531 2678 2651 2914 
Q 2772 3150 2772 3378 
Q 2772 3750 2511 3984 
Q 2250 4219 1831 4219 
Q 1534 4219 1204 4116 
Q 875 4013 500 3803 
L 500 4441 
Q 881 4594 1212 4672 
Q 1544 4750 1819 4750 
Q 2544 4750 2975 4387 
Q 3406 4025 3406 3419 
Q 3406 3131 3298 2873 
Q 3191 2616 2906 2266 
Q 2828 2175 2409 1742 
Q 1991 1309 1228 531 
z
" transform="scale(0.015625)"/>
       </defs>
       <use xlink:href="#DejaVuSans-32"/>
       <use xlink:href="#DejaVuSans-30" x="63.623047"/>
       <use xlink:href="#DejaVuSans-30" x="127.246094"/>
      </g>
     </g>
    </g>
    <g id="xtick_4">
     <g id="line2d_4">
      <g>
       <use xlink:href="#m40f4e10fae" x="399.82657" y="512.64" style="stroke: #000000; stroke-width: 0.8"/>
      </g>
     </g>
     <g id="text_4">
      <!-- 300 -->
      <g transform="translate(390.28282 527.238438) scale(0.1 -0.1)">
       <defs>
        <path id="DejaVuSans-33" d="M 2597 2516 
Q 3050 2419 3304 2112 
Q 3559 1806 3559 1356 
Q 3559 666 3084 287 
Q 2609 -91 1734 -91 
Q 1441 -91 1130 -33 
Q 819 25 488 141 
L 488 750 
Q 750 597 1062 519 
Q 1375 441 1716 441 
Q 2309 441 2620 675 
Q 2931 909 2931 1356 
Q 2931 1769 2642 2001 
Q 2353 2234 1838 2234 
L 1294 2234 
L 1294 2753 
L 1863 2753 
Q 2328 2753 2575 2939 
Q 2822 3125 2822 3475 
Q 2822 3834 2567 4026 
Q 2313 4219 1838 4219 
Q 1578 4219 1281 4162 
Q 984 4106 628 3988 
L 628 4550 
Q 988 4650 1302 4700 
Q 1616 4750 1894 4750 
Q 2613 4750 3031 4423 
Q 3450 4097 3450 3541 
Q 3450 3153 3228 2886 
Q 3006 2619 2597 2516 
z
" transform="scale(0.015625)"/>
       </defs>
       <use xlink:href="#DejaVuSans-33"/>
       <use xlink:href="#DejaVuSans-30" x="63.623047"/>
       <use xlink:href="#DejaVuSans-30" x="127.246094"/>
      </g>
     </g>
    </g>
    <g id="xtick_5">
     <g id="line2d_5">
      <g>
       <use xlink:href="#m40f4e10fae" x="481.94901" y="512.64" style="stroke: #000000; stroke-width: 0.8"/>
      </g>
     </g>
     <g id="text_5">
      <!-- 400 -->
      <g transform="translate(472.40526 527.238438) scale(0.1 -0.1)">
       <defs>
        <path id="DejaVuSans-34" d="M 2419 4116 
L 825 1625 
L 2419 1625 
L 2419 4116 
z
M 2253 4666 
L 3047 4666 
L 3047 1625 
L 3713 1625 
L 3713 1100 
L 3047 1100 
L 3047 0 
L 2419 0 
L 2419 1100 
L 313 1100 
L 313 1709 
L 2253 4666 
z
" transform="scale(0.015625)"/>
       </defs>
       <use xlink:href="#DejaVuSans-34"/>
       <use xlink:href="#DejaVuSans-30" x="63.623047"/>
       <use xlink:href="#DejaVuSans-30" x="127.246094"/>
      </g>
     </g>
    </g>
    <g id="xtick_6">
     <g id="line2d_6">
      <g>
       <use xlink:href="#m40f4e10fae" x="564.071449" y="512.64" style="stroke: #000000; stroke-width: 0.8"/>
      </g>
     </g>
     <g id="text_6">
      <!-- 500 -->
      <g transform="translate(554.527699 527.238438) scale(0.1 -0.1)">
       <defs>
        <path id="DejaVuSans-35" d="M 691 4666 
L 3169 4666 
L 3169 4134 
L 1269 4134 
L 1269 2991 
Q 1406 3038 1543 3061 
Q 1681 3084 1819 3084 
Q 2600 3084 3056 2656 
Q 3513 2228 3513 1497 
Q 3513 744 3044 326 
Q 2575 -91 1722 -91 
Q 1428 -91 1123 -41 
Q 819 9 494 109 
L 494 744 
Q 775 591 1075 516 
Q 1375 441 1709 441 
Q 2250 441 2565 725 
Q 2881 1009 2881 1497 
Q 2881 1984 2565 2268 
Q 2250 2553 1709 2553 
Q 1456 2553 1204 2497 
Q 953 2441 691 2322 
L 691 4666 
z
" transform="scale(0.015625)"/>
       </defs>
       <use xlink:href="#DejaVuSans-35"/>
       <use xlink:href="#DejaVuSans-30" x="63.623047"/>
       <use xlink:href="#DejaVuSans-30" x="127.246094"/>
      </g>
     </g>
    </g>
    <g id="xtick_7">
     <g id="line2d_7">
      <g>
       <use xlink:href="#m40f4e10fae" x="646.193889" y="512.64" style="stroke: #000000; stroke-width: 0.8"/>
      </g>
     </g>
     <g id="text_7">
      <!-- 600 -->
      <g transform="translate(636.650139 527.238438) scale(0.1 -0.1)">
       <defs>
        <path id="DejaVuSans-36" d="M 2113 2584 
Q 1688 2584 1439 2293 
Q 1191 2003 1191 1497 
Q 1191 994 1439 701 
Q 1688 409 2113 409 
Q 2538 409 2786 701 
Q 3034 994 3034 1497 
Q 3034 2003 2786 2293 
Q 2538 2584 2113 2584 
z
M 3366 4563 
L 3366 3988 
Q 3128 4100 2886 4159 
Q 2644 4219 2406 4219 
Q 1781 4219 1451 3797 
Q 1122 3375 1075 2522 
Q 1259 2794 1537 2939 
Q 1816 3084 2150 3084 
Q 2853 3084 3261 2657 
Q 3669 2231 3669 1497 
Q 3669 778 3244 343 
Q 2819 -91 2113 -91 
Q 1303 -91 875 529 
Q 447 1150 447 2328 
Q 447 3434 972 4092 
Q 1497 4750 2381 4750 
Q 2619 4750 2861 4703 
Q 3103 4656 3366 4563 
z
" transform="scale(0.015625)"/>
       </defs>
       <use xlink:href="#DejaVuSans-36"/>
       <use xlink:href="#DejaVuSans-30" x="63.623047"/>
       <use xlink:href="#DejaVuSans-30" x="127.246094"/>
      </g>
     </g>
    </g>
    <g id="text_8">
     <!-- Ground Truth Energy -->
     <g transform="translate(317.257812 540.916563) scale(0.1 -0.1)">
      <defs>
       <path id="DejaVuSans-47" d="M 3809 666 
L 3809 1919 
L 2778 1919 
L 2778 2438 
L 4434 2438 
L 4434 434 
Q 4069 175 3628 42 
Q 3188 -91 2688 -91 
Q 1594 -91 976 548 
Q 359 1188 359 2328 
Q 359 3472 976 4111 
Q 1594 4750 2688 4750 
Q 3144 4750 3555 4637 
Q 3966 4525 4313 4306 
L 4313 3634 
Q 3963 3931 3569 4081 
Q 3175 4231 2741 4231 
Q 1884 4231 1454 3753 
Q 1025 3275 1025 2328 
Q 1025 1384 1454 906 
Q 1884 428 2741 428 
Q 3075 428 3337 486 
Q 3600 544 3809 666 
z
" transform="scale(0.015625)"/>
       <path id="DejaVuSans-72" d="M 2631 2963 
Q 2534 3019 2420 3045 
Q 2306 3072 2169 3072 
Q 1681 3072 1420 2755 
Q 1159 2438 1159 1844 
L 1159 0 
L 581 0 
L 581 3500 
L 1159 3500 
L 1159 2956 
Q 1341 3275 1631 3429 
Q 1922 3584 2338 3584 
Q 2397 3584 2469 3576 
Q 2541 3569 2628 3553 
L 2631 2963 
z
" transform="scale(0.015625)"/>
       <path id="DejaVuSans-6f" d="M 1959 3097 
Q 1497 3097 1228 2736 
Q 959 2375 959 1747 
Q 959 1119 1226 758 
Q 1494 397 1959 397 
Q 2419 397 2687 759 
Q 2956 1122 2956 1747 
Q 2956 2369 2687 2733 
Q 2419 3097 1959 3097 
z
M 1959 3584 
Q 2709 3584 3137 3096 
Q 3566 2609 3566 1747 
Q 3566 888 3137 398 
Q 2709 -91 1959 -91 
Q 1206 -91 779 398 
Q 353 888 353 1747 
Q 353 2609 779 3096 
Q 1206 3584 1959 3584 
z
" transform="scale(0.015625)"/>
       <path id="DejaVuSans-75" d="M 544 1381 
L 544 3500 
L 1119 3500 
L 1119 1403 
Q 1119 906 1312 657 
Q 1506 409 1894 409 
Q 2359 409 2629 706 
Q 2900 1003 2900 1516 
L 2900 3500 
L 3475 3500 
L 3475 0 
L 2900 0 
L 2900 538 
Q 2691 219 2414 64 
Q 2138 -91 1772 -91 
Q 1169 -91 856 284 
Q 544 659 544 1381 
z
M 1991 3584 
L 1991 3584 
z
" transform="scale(0.015625)"/>
       <path id="DejaVuSans-6e" d="M 3513 2113 
L 3513 0 
L 2938 0 
L 2938 2094 
Q 2938 2591 2744 2837 
Q 2550 3084 2163 3084 
Q 1697 3084 1428 2787 
Q 1159 2491 1159 1978 
L 1159 0 
L 581 0 
L 581 3500 
L 1159 3500 
L 1159 2956 
Q 1366 3272 1645 3428 
Q 1925 3584 2291 3584 
Q 2894 3584 3203 3211 
Q 3513 2838 3513 2113 
z
" transform="scale(0.015625)"/>
       <path id="DejaVuSans-64" d="M 2906 2969 
L 2906 4863 
L 3481 4863 
L 3481 0 
L 2906 0 
L 2906 525 
Q 2725 213 2448 61 
Q 2172 -91 1784 -91 
Q 1150 -91 751 415 
Q 353 922 353 1747 
Q 353 2572 751 3078 
Q 1150 3584 1784 3584 
Q 2172 3584 2448 3432 
Q 2725 3281 2906 2969 
z
M 947 1747 
Q 947 1113 1208 752 
Q 1469 391 1925 391 
Q 2381 391 2643 752 
Q 2906 1113 2906 1747 
Q 2906 2381 2643 2742 
Q 2381 3103 1925 3103 
Q 1469 3103 1208 2742 
Q 947 2381 947 1747 
z
" transform="scale(0.015625)"/>
       <path id="DejaVuSans-20" transform="scale(0.015625)"/>
       <path id="DejaVuSans-54" d="M -19 4666 
L 3928 4666 
L 3928 4134 
L 2272 4134 
L 2272 0 
L 1638 0 
L 1638 4134 
L -19 4134 
L -19 4666 
z
" transform="scale(0.015625)"/>
       <path id="DejaVuSans-74" d="M 1172 4494 
L 1172 3500 
L 2356 3500 
L 2356 3053 
L 1172 3053 
L 1172 1153 
Q 1172 725 1289 603 
Q 1406 481 1766 481 
L 2356 481 
L 2356 0 
L 1766 0 
Q 1100 0 847 248 
Q 594 497 594 1153 
L 594 3053 
L 172 3053 
L 172 3500 
L 594 3500 
L 594 4494 
L 1172 4494 
z
" transform="scale(0.015625)"/>
       <path id="DejaVuSans-68" d="M 3513 2113 
L 3513 0 
L 2938 0 
L 2938 2094 
Q 2938 2591 2744 2837 
Q 2550 3084 2163 3084 
Q 1697 3084 1428 2787 
Q 1159 2491 1159 1978 
L 1159 0 
L 581 0 
L 581 4863 
L 1159 4863 
L 1159 2956 
Q 1366 3272 1645 3428 
Q 1925 3584 2291 3584 
Q 2894 3584 3203 3211 
Q 3513 2838 3513 2113 
z
" transform="scale(0.015625)"/>
       <path id="DejaVuSans-45" d="M 628 4666 
L 3578 4666 
L 3578 4134 
L 1259 4134 
L 1259 2753 
L 3481 2753 
L 3481 2222 
L 1259 2222 
L 1259 531 
L 3634 531 
L 3634 0 
L 628 0 
L 628 4666 
z
" transform="scale(0.015625)"/>
       <path id="DejaVuSans-65" d="M 3597 1894 
L 3597 1613 
L 953 1613 
Q 991 1019 1311 708 
Q 1631 397 2203 397 
Q 2534 397 2845 478 
Q 3156 559 3463 722 
L 3463 178 
Q 3153 47 2828 -22 
Q 2503 -91 2169 -91 
Q 1331 -91 842 396 
Q 353 884 353 1716 
Q 353 2575 817 3079 
Q 1281 3584 2069 3584 
Q 2775 3584 3186 3129 
Q 3597 2675 3597 1894 
z
M 3022 2063 
Q 3016 2534 2758 2815 
Q 2500 3097 2075 3097 
Q 1594 3097 1305 2825 
Q 1016 2553 972 2059 
L 3022 2063 
z
" transform="scale(0.015625)"/>
       <path id="DejaVuSans-67" d="M 2906 1791 
Q 2906 2416 2648 2759 
Q 2391 3103 1925 3103 
Q 1463 3103 1205 2759 
Q 947 2416 947 1791 
Q 947 1169 1205 825 
Q 1463 481 1925 481 
Q 2391 481 2648 825 
Q 2906 1169 2906 1791 
z
M 3481 434 
Q 3481 -459 3084 -895 
Q 2688 -1331 1869 -1331 
Q 1566 -1331 1297 -1286 
Q 1028 -1241 775 -1147 
L 775 -588 
Q 1028 -725 1275 -790 
Q 1522 -856 1778 -856 
Q 2344 -856 2625 -561 
Q 2906 -266 2906 331 
L 2906 616 
Q 2728 306 2450 153 
Q 2172 0 1784 0 
Q 1141 0 747 490 
Q 353 981 353 1791 
Q 353 2603 747 3093 
Q 1141 3584 1784 3584 
Q 2172 3584 2450 3431 
Q 2728 3278 2906 2969 
L 2906 3500 
L 3481 3500 
L 3481 434 
z
" transform="scale(0.015625)"/>
       <path id="DejaVuSans-79" d="M 2059 -325 
Q 1816 -950 1584 -1140 
Q 1353 -1331 966 -1331 
L 506 -1331 
L 506 -850 
L 844 -850 
Q 1081 -850 1212 -737 
Q 1344 -625 1503 -206 
L 1606 56 
L 191 3500 
L 800 3500 
L 1894 763 
L 2988 3500 
L 3597 3500 
L 2059 -325 
z
" transform="scale(0.015625)"/>
      </defs>
      <use xlink:href="#DejaVuSans-47"/>
      <use xlink:href="#DejaVuSans-72" x="77.490234"/>
      <use xlink:href="#DejaVuSans-6f" x="116.353516"/>
      <use xlink:href="#DejaVuSans-75" x="177.535156"/>
      <use xlink:href="#DejaVuSans-6e" x="240.914062"/>
      <use xlink:href="#DejaVuSans-64" x="304.292969"/>
      <use xlink:href="#DejaVuSans-20" x="367.769531"/>
      <use xlink:href="#DejaVuSans-54" x="399.556641"/>
      <use xlink:href="#DejaVuSans-72" x="445.890625"/>
      <use xlink:href="#DejaVuSans-75" x="487.003906"/>
      <use xlink:href="#DejaVuSans-74" x="550.382812"/>
      <use xlink:href="#DejaVuSans-68" x="589.591797"/>
      <use xlink:href="#DejaVuSans-20" x="652.970703"/>
      <use xlink:href="#DejaVuSans-45" x="684.757812"/>
      <use xlink:href="#DejaVuSans-6e" x="747.941406"/>
      <use xlink:href="#DejaVuSans-65" x="811.320312"/>
      <use xlink:href="#DejaVuSans-72" x="872.84375"/>
      <use xlink:href="#DejaVuSans-67" x="912.207031"/>
      <use xlink:href="#DejaVuSans-79" x="975.683594"/>
     </g>
    </g>
   </g>
   <g id="matplotlib.axis_2">
    <g id="ytick_1">
     <g id="line2d_8">
      <defs>
       <path id="m9aede158f7" d="M 0 0 
L -3.5 0 
" style="stroke: #000000; stroke-width: 0.8"/>
      </defs>
      <g>
       <use xlink:href="#m9aede158f7" x="90" y="461.561432" style="stroke: #000000; stroke-width: 0.8"/>
      </g>
     </g>
     <g id="text_9">
      <!-- 0 -->
      <g transform="translate(76.6375 465.360651) scale(0.1 -0.1)">
       <use xlink:href="#DejaVuSans-30"/>
      </g>
     </g>
    </g>
    <g id="ytick_2">
     <g id="line2d_9">
      <g>
       <use xlink:href="#m9aede158f7" x="90" y="396.835358" style="stroke: #000000; stroke-width: 0.8"/>
      </g>
     </g>
     <g id="text_10">
      <!-- 100 -->
      <g transform="translate(63.9125 400.634577) scale(0.1 -0.1)">
       <use xlink:href="#DejaVuSans-31"/>
       <use xlink:href="#DejaVuSans-30" x="63.623047"/>
       <use xlink:href="#DejaVuSans-30" x="127.246094"/>
      </g>
     </g>
    </g>
    <g id="ytick_3">
     <g id="line2d_10">
      <g>
       <use xlink:href="#m9aede158f7" x="90" y="332.109285" style="stroke: #000000; stroke-width: 0.8"/>
      </g>
     </g>
     <g id="text_11">
      <!-- 200 -->
      <g transform="translate(63.9125 335.908503) scale(0.1 -0.1)">
       <use xlink:href="#DejaVuSans-32"/>
       <use xlink:href="#DejaVuSans-30" x="63.623047"/>
       <use xlink:href="#DejaVuSans-30" x="127.246094"/>
      </g>
     </g>
    </g>
    <g id="ytick_4">
     <g id="line2d_11">
      <g>
       <use xlink:href="#m9aede158f7" x="90" y="267.383211" style="stroke: #000000; stroke-width: 0.8"/>
      </g>
     </g>
     <g id="text_12">
      <!-- 300 -->
      <g transform="translate(63.9125 271.18243) scale(0.1 -0.1)">
       <use xlink:href="#DejaVuSans-33"/>
       <use xlink:href="#DejaVuSans-30" x="63.623047"/>
       <use xlink:href="#DejaVuSans-30" x="127.246094"/>
      </g>
     </g>
    </g>
    <g id="ytick_5">
     <g id="line2d_12">
      <g>
       <use xlink:href="#m9aede158f7" x="90" y="202.657137" style="stroke: #000000; stroke-width: 0.8"/>
      </g>
     </g>
     <g id="text_13">
      <!-- 400 -->
      <g transform="translate(63.9125 206.456356) scale(0.1 -0.1)">
       <use xlink:href="#DejaVuSans-34"/>
       <use xlink:href="#DejaVuSans-30" x="63.623047"/>
       <use xlink:href="#DejaVuSans-30" x="127.246094"/>
      </g>
     </g>
    </g>
    <g id="ytick_6">
     <g id="line2d_13">
      <g>
       <use xlink:href="#m9aede158f7" x="90" y="137.931064" style="stroke: #000000; stroke-width: 0.8"/>
      </g>
     </g>
     <g id="text_14">
      <!-- 500 -->
      <g transform="translate(63.9125 141.730282) scale(0.1 -0.1)">
       <use xlink:href="#DejaVuSans-35"/>
       <use xlink:href="#DejaVuSans-30" x="63.623047"/>
       <use xlink:href="#DejaVuSans-30" x="127.246094"/>
      </g>
     </g>
    </g>
    <g id="ytick_7">
     <g id="line2d_14">
      <g>
       <use xlink:href="#m9aede158f7" x="90" y="73.20499" style="stroke: #000000; stroke-width: 0.8"/>
      </g>
     </g>
     <g id="text_15">
      <!-- 600 -->
      <g transform="translate(63.9125 77.004209) scale(0.1 -0.1)">
       <use xlink:href="#DejaVuSans-36"/>
       <use xlink:href="#DejaVuSans-30" x="63.623047"/>
       <use xlink:href="#DejaVuSans-30" x="127.246094"/>
      </g>
     </g>
    </g>
    <g id="text_16">
     <!-- Predicted Energy -->
     <g transform="translate(57.832812 333.445625) rotate(-90) scale(0.1 -0.1)">
      <defs>
       <path id="DejaVuSans-50" d="M 1259 4147 
L 1259 2394 
L 2053 2394 
Q 2494 2394 2734 2622 
Q 2975 2850 2975 3272 
Q 2975 3691 2734 3919 
Q 2494 4147 2053 4147 
L 1259 4147 
z
M 628 4666 
L 2053 4666 
Q 2838 4666 3239 4311 
Q 3641 3956 3641 3272 
Q 3641 2581 3239 2228 
Q 2838 1875 2053 1875 
L 1259 1875 
L 1259 0 
L 628 0 
L 628 4666 
z
" transform="scale(0.015625)"/>
       <path id="DejaVuSans-69" d="M 603 3500 
L 1178 3500 
L 1178 0 
L 603 0 
L 603 3500 
z
M 603 4863 
L 1178 4863 
L 1178 4134 
L 603 4134 
L 603 4863 
z
" transform="scale(0.015625)"/>
       <path id="DejaVuSans-63" d="M 3122 3366 
L 3122 2828 
Q 2878 2963 2633 3030 
Q 2388 3097 2138 3097 
Q 1578 3097 1268 2742 
Q 959 2388 959 1747 
Q 959 1106 1268 751 
Q 1578 397 2138 397 
Q 2388 397 2633 464 
Q 2878 531 3122 666 
L 3122 134 
Q 2881 22 2623 -34 
Q 2366 -91 2075 -91 
Q 1284 -91 818 406 
Q 353 903 353 1747 
Q 353 2603 823 3093 
Q 1294 3584 2113 3584 
Q 2378 3584 2631 3529 
Q 2884 3475 3122 3366 
z
" transform="scale(0.015625)"/>
      </defs>
      <use xlink:href="#DejaVuSans-50"/>
      <use xlink:href="#DejaVuSans-72" x="58.552734"/>
      <use xlink:href="#DejaVuSans-65" x="97.416016"/>
      <use xlink:href="#DejaVuSans-64" x="158.939453"/>
      <use xlink:href="#DejaVuSans-69" x="222.416016"/>
      <use xlink:href="#DejaVuSans-63" x="250.199219"/>
      <use xlink:href="#DejaVuSans-74" x="305.179688"/>
      <use xlink:href="#DejaVuSans-65" x="344.388672"/>
      <use xlink:href="#DejaVuSans-64" x="405.912109"/>
      <use xlink:href="#DejaVuSans-20" x="469.388672"/>
      <use xlink:href="#DejaVuSans-45" x="501.175781"/>
      <use xlink:href="#DejaVuSans-6e" x="564.359375"/>
      <use xlink:href="#DejaVuSans-65" x="627.738281"/>
      <use xlink:href="#DejaVuSans-72" x="689.261719"/>
      <use xlink:href="#DejaVuSans-67" x="728.625"/>
      <use xlink:href="#DejaVuSans-79" x="792.101562"/>
     </g>
    </g>
   </g>
   <g id="line2d_15">
    <path d="M 122.200286 486.19867 
L 615.799714 97.16063 
" clip-path="url(#p36bdc0f5e6)" style="fill: none; stroke-dasharray: 5.55,2.4; stroke-dashoffset: 0; stroke: #ff0000; stroke-width: 1.5"/>
   </g>
   <g id="patch_3">
    <path d="M 90 512.64 
L 90 69.12 
" style="fill: none; stroke: #000000; stroke-width: 0.8; stroke-linejoin: miter; stroke-linecap: square"/>
   </g>
   <g id="patch_4">
    <path d="M 648 512.64 
L 648 69.12 
" style="fill: none; stroke: #000000; stroke-width: 0.8; stroke-linejoin: miter; stroke-linecap: square"/>
   </g>
   <g id="patch_5">
    <path d="M 90 512.64 
L 648 512.64 
" style="fill: none; stroke: #000000; stroke-width: 0.8; stroke-linejoin: miter; stroke-linecap: square"/>
   </g>
   <g id="patch_6">
    <path d="M 90 69.12 
L 648 69.12 
" style="fill: none; stroke: #000000; stroke-width: 0.8; stroke-linejoin: miter; stroke-linecap: square"/>
   </g>
   <g id="text_17">
    <!-- Energy R2 Score: 0.9970487663667897 -->
    <g transform="translate(145.8 113.472) scale(0.1 -0.1)">
     <defs>
      <path id="DejaVuSans-52" d="M 2841 2188 
Q 3044 2119 3236 1894 
Q 3428 1669 3622 1275 
L 4263 0 
L 3584 0 
L 2988 1197 
Q 2756 1666 2539 1819 
Q 2322 1972 1947 1972 
L 1259 1972 
L 1259 0 
L 628 0 
L 628 4666 
L 2053 4666 
Q 2853 4666 3247 4331 
Q 3641 3997 3641 3322 
Q 3641 2881 3436 2590 
Q 3231 2300 2841 2188 
z
M 1259 4147 
L 1259 2491 
L 2053 2491 
Q 2509 2491 2742 2702 
Q 2975 2913 2975 3322 
Q 2975 3731 2742 3939 
Q 2509 4147 2053 4147 
L 1259 4147 
z
" transform="scale(0.015625)"/>
      <path id="DejaVuSans-53" d="M 3425 4513 
L 3425 3897 
Q 3066 4069 2747 4153 
Q 2428 4238 2131 4238 
Q 1616 4238 1336 4038 
Q 1056 3838 1056 3469 
Q 1056 3159 1242 3001 
Q 1428 2844 1947 2747 
L 2328 2669 
Q 3034 2534 3370 2195 
Q 3706 1856 3706 1288 
Q 3706 609 3251 259 
Q 2797 -91 1919 -91 
Q 1588 -91 1214 -16 
Q 841 59 441 206 
L 441 856 
Q 825 641 1194 531 
Q 1563 422 1919 422 
Q 2459 422 2753 634 
Q 3047 847 3047 1241 
Q 3047 1584 2836 1778 
Q 2625 1972 2144 2069 
L 1759 2144 
Q 1053 2284 737 2584 
Q 422 2884 422 3419 
Q 422 4038 858 4394 
Q 1294 4750 2059 4750 
Q 2388 4750 2728 4690 
Q 3069 4631 3425 4513 
z
" transform="scale(0.015625)"/>
      <path id="DejaVuSans-3a" d="M 750 794 
L 1409 794 
L 1409 0 
L 750 0 
L 750 794 
z
M 750 3309 
L 1409 3309 
L 1409 2516 
L 750 2516 
L 750 3309 
z
" transform="scale(0.015625)"/>
      <path id="DejaVuSans-2e" d="M 684 794 
L 1344 794 
L 1344 0 
L 684 0 
L 684 794 
z
" transform="scale(0.015625)"/>
      <path id="DejaVuSans-39" d="M 703 97 
L 703 672 
Q 941 559 1184 500 
Q 1428 441 1663 441 
Q 2288 441 2617 861 
Q 2947 1281 2994 2138 
Q 2813 1869 2534 1725 
Q 2256 1581 1919 1581 
Q 1219 1581 811 2004 
Q 403 2428 403 3163 
Q 403 3881 828 4315 
Q 1253 4750 1959 4750 
Q 2769 4750 3195 4129 
Q 3622 3509 3622 2328 
Q 3622 1225 3098 567 
Q 2575 -91 1691 -91 
Q 1453 -91 1209 -44 
Q 966 3 703 97 
z
M 1959 2075 
Q 2384 2075 2632 2365 
Q 2881 2656 2881 3163 
Q 2881 3666 2632 3958 
Q 2384 4250 1959 4250 
Q 1534 4250 1286 3958 
Q 1038 3666 1038 3163 
Q 1038 2656 1286 2365 
Q 1534 2075 1959 2075 
z
" transform="scale(0.015625)"/>
      <path id="DejaVuSans-37" d="M 525 4666 
L 3525 4666 
L 3525 4397 
L 1831 0 
L 1172 0 
L 2766 4134 
L 525 4134 
L 525 4666 
z
" transform="scale(0.015625)"/>
      <path id="DejaVuSans-38" d="M 2034 2216 
Q 1584 2216 1326 1975 
Q 1069 1734 1069 1313 
Q 1069 891 1326 650 
Q 1584 409 2034 409 
Q 2484 409 2743 651 
Q 3003 894 3003 1313 
Q 3003 1734 2745 1975 
Q 2488 2216 2034 2216 
z
M 1403 2484 
Q 997 2584 770 2862 
Q 544 3141 544 3541 
Q 544 4100 942 4425 
Q 1341 4750 2034 4750 
Q 2731 4750 3128 4425 
Q 3525 4100 3525 3541 
Q 3525 3141 3298 2862 
Q 3072 2584 2669 2484 
Q 3125 2378 3379 2068 
Q 3634 1759 3634 1313 
Q 3634 634 3220 271 
Q 2806 -91 2034 -91 
Q 1263 -91 848 271 
Q 434 634 434 1313 
Q 434 1759 690 2068 
Q 947 2378 1403 2484 
z
M 1172 3481 
Q 1172 3119 1398 2916 
Q 1625 2713 2034 2713 
Q 2441 2713 2670 2916 
Q 2900 3119 2900 3481 
Q 2900 3844 2670 4047 
Q 2441 4250 2034 4250 
Q 1625 4250 1398 4047 
Q 1172 3844 1172 3481 
z
" transform="scale(0.015625)"/>
     </defs>
     <use xlink:href="#DejaVuSans-45"/>
     <use xlink:href="#DejaVuSans-6e" x="63.183594"/>
     <use xlink:href="#DejaVuSans-65" x="126.5625"/>
     <use xlink:href="#DejaVuSans-72" x="188.085938"/>
     <use xlink:href="#DejaVuSans-67" x="227.449219"/>
     <use xlink:href="#DejaVuSans-79" x="290.925781"/>
     <use xlink:href="#DejaVuSans-20" x="350.105469"/>
     <use xlink:href="#DejaVuSans-52" x="381.892578"/>
     <use xlink:href="#DejaVuSans-32" x="451.375"/>
     <use xlink:href="#DejaVuSans-20" x="514.998047"/>
     <use xlink:href="#DejaVuSans-53" x="546.785156"/>
     <use xlink:href="#DejaVuSans-63" x="610.261719"/>
     <use xlink:href="#DejaVuSans-6f" x="665.242188"/>
     <use xlink:href="#DejaVuSans-72" x="726.423828"/>
     <use xlink:href="#DejaVuSans-65" x="765.287109"/>
     <use xlink:href="#DejaVuSans-3a" x="826.810547"/>
     <use xlink:href="#DejaVuSans-20" x="860.501953"/>
     <use xlink:href="#DejaVuSans-30" x="892.289062"/>
     <use xlink:href="#DejaVuSans-2e" x="955.912109"/>
     <use xlink:href="#DejaVuSans-39" x="987.699219"/>
     <use xlink:href="#DejaVuSans-39" x="1051.322266"/>
     <use xlink:href="#DejaVuSans-37" x="1114.945312"/>
     <use xlink:href="#DejaVuSans-30" x="1178.568359"/>
     <use xlink:href="#DejaVuSans-34" x="1242.191406"/>
     <use xlink:href="#DejaVuSans-38" x="1305.814453"/>
     <use xlink:href="#DejaVuSans-37" x="1369.4375"/>
     <use xlink:href="#DejaVuSans-36" x="1433.060547"/>
     <use xlink:href="#DejaVuSans-36" x="1496.683594"/>
     <use xlink:href="#DejaVuSans-33" x="1560.306641"/>
     <use xlink:href="#DejaVuSans-36" x="1623.929688"/>
     <use xlink:href="#DejaVuSans-36" x="1687.552734"/>
     <use xlink:href="#DejaVuSans-37" x="1751.175781"/>
     <use xlink:href="#DejaVuSans-38" x="1814.798828"/>
     <use xlink:href="#DejaVuSans-39" x="1878.421875"/>
     <use xlink:href="#DejaVuSans-37" x="1942.044922"/>
    </g>
   </g>
   <g id="text_18">
    <!-- MVE In Distribution -->
    <g transform="translate(311.53875 63.12) scale(0.12 -0.12)">
     <defs>
      <path id="DejaVuSans-4d" d="M 628 4666 
L 1569 4666 
L 2759 1491 
L 3956 4666 
L 4897 4666 
L 4897 0 
L 4281 0 
L 4281 4097 
L 3078 897 
L 2444 897 
L 1241 4097 
L 1241 0 
L 628 0 
L 628 4666 
z
" transform="scale(0.015625)"/>
      <path id="DejaVuSans-56" d="M 1831 0 
L 50 4666 
L 709 4666 
L 2188 738 
L 3669 4666 
L 4325 4666 
L 2547 0 
L 1831 0 
z
" transform="scale(0.015625)"/>
      <path id="DejaVuSans-49" d="M 628 4666 
L 1259 4666 
L 1259 0 
L 628 0 
L 628 4666 
z
" transform="scale(0.015625)"/>
      <path id="DejaVuSans-44" d="M 1259 4147 
L 1259 519 
L 2022 519 
Q 2988 519 3436 956 
Q 3884 1394 3884 2338 
Q 3884 3275 3436 3711 
Q 2988 4147 2022 4147 
L 1259 4147 
z
M 628 4666 
L 1925 4666 
Q 3281 4666 3915 4102 
Q 4550 3538 4550 2338 
Q 4550 1131 3912 565 
Q 3275 0 1925 0 
L 628 0 
L 628 4666 
z
" transform="scale(0.015625)"/>
      <path id="DejaVuSans-73" d="M 2834 3397 
L 2834 2853 
Q 2591 2978 2328 3040 
Q 2066 3103 1784 3103 
Q 1356 3103 1142 2972 
Q 928 2841 928 2578 
Q 928 2378 1081 2264 
Q 1234 2150 1697 2047 
L 1894 2003 
Q 2506 1872 2764 1633 
Q 3022 1394 3022 966 
Q 3022 478 2636 193 
Q 2250 -91 1575 -91 
Q 1294 -91 989 -36 
Q 684 19 347 128 
L 347 722 
Q 666 556 975 473 
Q 1284 391 1588 391 
Q 1994 391 2212 530 
Q 2431 669 2431 922 
Q 2431 1156 2273 1281 
Q 2116 1406 1581 1522 
L 1381 1569 
Q 847 1681 609 1914 
Q 372 2147 372 2553 
Q 372 3047 722 3315 
Q 1072 3584 1716 3584 
Q 2034 3584 2315 3537 
Q 2597 3491 2834 3397 
z
" transform="scale(0.015625)"/>
      <path id="DejaVuSans-62" d="M 3116 1747 
Q 3116 2381 2855 2742 
Q 2594 3103 2138 3103 
Q 1681 3103 1420 2742 
Q 1159 2381 1159 1747 
Q 1159 1113 1420 752 
Q 1681 391 2138 391 
Q 2594 391 2855 752 
Q 3116 1113 3116 1747 
z
M 1159 2969 
Q 1341 3281 1617 3432 
Q 1894 3584 2278 3584 
Q 2916 3584 3314 3078 
Q 3713 2572 3713 1747 
Q 3713 922 3314 415 
Q 2916 -91 2278 -91 
Q 1894 -91 1617 61 
Q 1341 213 1159 525 
L 1159 0 
L 581 0 
L 581 4863 
L 1159 4863 
L 1159 2969 
z
" transform="scale(0.015625)"/>
     </defs>
     <use xlink:href="#DejaVuSans-4d"/>
     <use xlink:href="#DejaVuSans-56" x="86.279297"/>
     <use xlink:href="#DejaVuSans-45" x="154.6875"/>
     <use xlink:href="#DejaVuSans-20" x="217.871094"/>
     <use xlink:href="#DejaVuSans-49" x="249.658203"/>
     <use xlink:href="#DejaVuSans-6e" x="279.150391"/>
     <use xlink:href="#DejaVuSans-20" x="342.529297"/>
     <use xlink:href="#DejaVuSans-44" x="374.316406"/>
     <use xlink:href="#DejaVuSans-69" x="451.318359"/>
     <use xlink:href="#DejaVuSans-73" x="479.101562"/>
     <use xlink:href="#DejaVuSans-74" x="531.201172"/>
     <use xlink:href="#DejaVuSans-72" x="570.410156"/>
     <use xlink:href="#DejaVuSans-69" x="611.523438"/>
     <use xlink:href="#DejaVuSans-62" x="639.306641"/>
     <use xlink:href="#DejaVuSans-75" x="702.783203"/>
     <use xlink:href="#DejaVuSans-74" x="766.162109"/>
     <use xlink:href="#DejaVuSans-69" x="805.371094"/>
     <use xlink:href="#DejaVuSans-6f" x="833.154297"/>
     <use xlink:href="#DejaVuSans-6e" x="894.335938"/>
    </g>
   </g>
  </g>
 </g>
 <defs>
  <clipPath id="p36bdc0f5e6">
   <rect x="90" y="69.12" width="558" height="443.52"/>
  </clipPath>
 </defs>
</svg>
