<?xml version="1.0" encoding="utf-8" standalone="no"?>
<!DOCTYPE svg PUBLIC "-//W3C//DTD SVG 1.1//EN"
  "http://www.w3.org/Graphics/SVG/1.1/DTD/svg11.dtd">
<svg xmlns:xlink="http://www.w3.org/1999/xlink" width="720pt" height="576pt" viewBox="0 0 720 576" xmlns="http://www.w3.org/2000/svg" version="1.1">
 <metadata>
  <rdf:RDF xmlns:dc="http://purl.org/dc/elements/1.1/" xmlns:cc="http://creativecommons.org/ns#" xmlns:rdf="http://www.w3.org/1999/02/22-rdf-syntax-ns#">
   <cc:Work>
    <dc:type rdf:resource="http://purl.org/dc/dcmitype/StillImage"/>
    <dc:date>2024-11-29T19:42:20.748280</dc:date>
    <dc:format>image/svg+xml</dc:format>
    <dc:creator>
     <cc:Agent>
      <dc:title>Matplotlib v3.8.4, https://matplotlib.org/</dc:title>
     </cc:Agent>
    </dc:creator>
   </cc:Work>
  </rdf:RDF>
 </metadata>
 <defs>
  <style type="text/css">*{stroke-linejoin: round; stroke-linecap: butt}</style>
 </defs>
 <g id="figure_1">
  <g id="patch_1">
   <path d="M 0 576 
L 720 576 
L 720 0 
L 0 0 
z
" style="fill: #ffffff"/>
  </g>
  <g id="axes_1">
   <g id="patch_2">
    <path d="M 90 512.64 
L 648 512.64 
L 648 69.12 
L 90 69.12 
z
" style="fill: #ffffff"/>
   </g>
   <g id="QuadContourSet_1">
    <path d="M 112.432161 495.560623 
L 113.378524 494.81005 
L 112.432161 494.060552 
L 111.489221 494.81005 
z
M 115.236181 493.794992 
L 116.768195 492.581307 
L 118.040201 491.857208 
L 119.942458 490.352563 
L 120.844221 489.818988 
L 122.991771 488.123819 
L 123.648241 487.720848 
L 125.967267 485.895075 
L 126.452261 485.586773 
L 128.899155 483.666332 
L 129.256281 483.431678 
L 131.806081 481.437588 
L 132.060302 481.265303 
L 134.700022 479.208844 
L 134.864322 479.094281 
L 137.588918 476.980101 
L 137.668342 476.923264 
L 140.472362 474.799156 
L 140.532566 474.751357 
L 143.276382 473.132877 
L 144.045006 472.522613 
L 146.080402 471.271874 
L 147.312086 470.293869 
L 148.884422 469.292882 
L 150.430393 468.065126 
L 151.688442 467.239499 
L 153.454838 465.836382 
L 154.492462 465.137168 
L 156.417512 463.607638 
L 157.296482 463.001111 
L 159.337673 461.378894 
L 160.100503 460.84071 
L 162.227233 459.150151 
L 162.904523 458.661956 
L 165.093819 456.921407 
L 165.708543 456.468768 
L 167.942416 454.692663 
L 168.512563 454.263647 
L 170.776196 452.46392 
L 171.316583 452.047956 
L 173.596884 450.235176 
L 174.120603 449.822013 
L 176.404893 448.006432 
L 176.924623 447.585089 
L 179.199334 445.777688 
L 179.728643 445.33531 
L 181.977896 443.548945 
L 182.532663 443.069411 
L 184.736503 441.320201 
L 185.336683 440.782235 
L 187.468621 439.091457 
L 188.140704 438.465839 
L 190.164044 436.862714 
L 190.944724 436.108051 
L 192.806963 434.63397 
L 193.748744 433.690261 
L 195.373149 432.405226 
L 196.552764 431.184245 
L 197.826263 430.176482 
L 199.356784 428.547822 
L 200.11352 427.947739 
L 199.356784 426.763549 
L 196.552764 427.932232 
L 196.533252 427.947739 
L 193.748744 429.55356 
L 192.964895 430.176482 
L 190.944724 431.389882 
L 189.66689 432.405226 
L 188.140704 433.353573 
L 186.528918 434.63397 
L 185.336683 435.395059 
L 183.488524 436.862714 
L 182.532663 437.485441 
L 180.509288 439.091457 
L 179.728643 439.607554 
L 177.569634 441.320201 
L 176.924623 441.751168 
L 174.656836 443.548945 
L 174.120603 443.910265 
L 171.763614 445.777688 
L 171.316583 446.081402 
L 168.88602 448.006432 
L 168.512563 448.262661 
L 166.021999 450.235176 
L 165.708543 450.452958 
L 163.170396 452.46392 
L 162.904523 452.651596 
L 160.330303 454.692663 
L 160.100503 454.857988 
L 157.500711 456.921407 
L 157.296482 457.071518 
L 154.680413 459.150151 
L 154.492462 459.291485 
L 151.868054 461.378894 
L 151.688442 461.517111 
L 149.062255 463.607638 
L 148.884422 463.747597 
L 146.261766 465.836382 
L 146.080402 465.982219 
L 143.46563 468.065126 
L 143.276382 468.220485 
L 140.673347 470.293869 
L 140.472362 470.462309 
L 137.88504 472.522613 
L 137.668342 472.7082 
L 135.101615 474.751357 
L 134.864322 474.95945 
L 132.324915 476.980101 
L 132.060302 477.218341 
L 129.557954 479.208844 
L 129.256281 479.488484 
L 126.805337 481.437588 
L 126.452261 481.77544 
L 124.074065 483.666332 
L 123.648241 484.087877 
L 121.375016 485.895075 
L 120.844221 486.439704 
L 118.725645 488.123819 
L 118.040201 488.854014 
L 116.15497 490.352563 
L 115.236181 491.370587 
L 113.713005 492.581307 
z
M 120.132352 488.123819 
L 120.844221 487.557934 
L 121.565826 488.123819 
L 120.844221 488.693418 
z
M 122.464843 485.895075 
L 123.648241 484.954282 
L 124.855482 485.895075 
L 123.648241 486.845538 
z
M 124.949264 483.666332 
L 126.452261 482.471305 
L 127.53256 481.437588 
L 129.256281 480.066805 
L 130.18184 479.208844 
L 132.060302 477.714614 
L 132.876124 476.980101 
L 134.864322 475.398057 
L 135.601766 474.751357 
L 137.668342 473.106329 
L 138.34991 472.522613 
L 140.472362 470.832488 
L 141.115051 470.293869 
L 143.276382 468.572314 
L 143.894204 468.065126 
L 146.080402 466.323618 
L 146.686331 465.836382 
L 148.884422 464.085736 
L 149.491899 463.607638 
L 151.688442 461.859121 
L 152.312494 461.378894 
L 154.492462 459.644985 
L 155.150509 459.150151 
L 157.296482 457.445039 
L 158.008892 456.921407 
L 160.100503 455.261324 
L 160.890936 454.692663 
L 162.904523 453.096115 
L 163.800129 452.46392 
L 165.708543 450.951893 
L 166.74012 450.235176 
L 168.512563 448.83141 
L 169.714978 448.006432 
L 171.316583 446.737946 
L 172.729969 445.777688 
L 174.120603 444.6759 
L 175.793107 443.548945 
L 176.924623 442.651941 
L 178.917784 441.320201 
L 179.728643 440.676983 
L 182.126899 439.091457 
L 182.532663 438.769389 
L 185.336683 437.107965 
L 186.050455 439.091457 
L 185.336683 439.657529 
L 183.481726 441.320201 
L 182.532663 442.073482 
L 180.825717 443.548945 
L 179.728643 444.420245 
L 178.104453 445.777688 
L 176.924623 446.715137 
L 175.331799 448.006432 
L 174.120603 448.969106 
L 172.51575 450.235176 
L 171.316583 451.188482 
L 169.659636 452.46392 
L 168.512563 453.375913 
L 166.762649 454.692663 
L 165.708543 455.530761 
L 163.81992 456.921407 
L 162.904523 457.649172 
L 160.822163 459.150151 
L 160.100503 459.723806 
L 157.754559 461.378894 
L 157.296482 461.742947 
L 154.594201 463.607638 
L 154.492462 463.688474 
L 151.688442 465.761248 
L 151.595059 465.836382 
L 148.884422 467.903103 
L 148.677758 468.065126 
L 146.080402 470.052145 
L 145.764815 470.293869 
L 143.276382 472.20381 
L 142.850889 472.522613 
L 140.472362 474.354423 
L 139.930672 474.751357 
L 137.668342 476.500047 
L 136.997512 476.980101 
L 134.864322 478.635372 
L 134.041886 479.208844 
L 132.060302 480.752586 
L 131.049527 481.437588 
L 129.256281 482.840009 
L 127.998675 483.666332 
L 126.452261 484.880033 
z
M 185.967534 436.862714 
L 188.140704 436.004828 
L 188.49789 436.862714 
L 188.140704 437.145718 
z
" clip-path="url(#peffa7e91f6)" style="fill: #e7f1fa"/>
    <path d="M 120.844221 488.693418 
L 121.565826 488.123819 
L 120.844221 487.557934 
L 120.132352 488.123819 
z
M 123.648241 486.845538 
L 124.855482 485.895075 
L 123.648241 484.954282 
L 122.464843 485.895075 
z
M 123.24797 485.895075 
L 123.648241 485.576862 
L 124.056577 485.895075 
L 123.648241 486.216559 
z
M 126.452261 484.880033 
L 127.998675 483.666332 
L 129.256281 482.840009 
L 131.049527 481.437588 
L 132.060302 480.752586 
L 134.041886 479.208844 
L 134.864322 478.635372 
L 136.997512 476.980101 
L 137.668342 476.500047 
L 139.930672 474.751357 
L 140.472362 474.354423 
L 142.850889 472.522613 
L 143.276382 472.20381 
L 145.764815 470.293869 
L 146.080402 470.052145 
L 148.677758 468.065126 
L 148.884422 467.903103 
L 151.595059 465.836382 
L 151.688442 465.761248 
L 154.492462 463.688474 
L 154.594201 463.607638 
L 157.296482 461.742947 
L 157.754559 461.378894 
L 160.100503 459.723806 
L 160.822163 459.150151 
L 162.904523 457.649172 
L 163.81992 456.921407 
L 165.708543 455.530761 
L 166.762649 454.692663 
L 168.512563 453.375913 
L 169.659636 452.46392 
L 171.316583 451.188482 
L 172.51575 450.235176 
L 174.120603 448.969106 
L 175.331799 448.006432 
L 176.924623 446.715137 
L 178.104453 445.777688 
L 179.728643 444.420245 
L 180.825717 443.548945 
L 182.532663 442.073482 
L 183.481726 441.320201 
L 185.336683 439.657529 
L 186.050455 439.091457 
L 185.336683 437.107965 
L 182.532663 438.769389 
L 182.126899 439.091457 
L 179.728643 440.676983 
L 178.917784 441.320201 
L 176.924623 442.651941 
L 175.793107 443.548945 
L 174.120603 444.6759 
L 172.729969 445.777688 
L 171.316583 446.737946 
L 169.714978 448.006432 
L 168.512563 448.83141 
L 166.74012 450.235176 
L 165.708543 450.951893 
L 163.800129 452.46392 
L 162.904523 453.096115 
L 160.890936 454.692663 
L 160.100503 455.261324 
L 158.008892 456.921407 
L 157.296482 457.445039 
L 155.150509 459.150151 
L 154.492462 459.644985 
L 152.312494 461.378894 
L 151.688442 461.859121 
L 149.491899 463.607638 
L 148.884422 464.085736 
L 146.686331 465.836382 
L 146.080402 466.323618 
L 143.894204 468.065126 
L 143.276382 468.572314 
L 141.115051 470.293869 
L 140.472362 470.832488 
L 138.34991 472.522613 
L 137.668342 473.106329 
L 135.601766 474.751357 
L 134.864322 475.398057 
L 132.876124 476.980101 
L 132.060302 477.714614 
L 130.18184 479.208844 
L 129.256281 480.066805 
L 127.53256 481.437588 
L 126.452261 482.471305 
L 124.949264 483.666332 
z
M 125.578163 483.666332 
L 126.452261 482.97134 
L 127.351609 483.666332 
L 126.452261 484.372184 
z
M 128.055127 481.437588 
L 129.256281 480.482375 
L 130.505883 481.437588 
L 129.256281 482.414848 
z
M 130.630152 479.208844 
L 132.060302 478.071226 
L 133.272211 476.980101 
L 134.864322 475.71323 
L 135.961165 474.751357 
L 137.668342 473.392416 
L 138.683956 472.522613 
L 140.472362 471.098491 
L 141.432451 470.293869 
L 143.276382 468.825132 
L 144.202168 468.065126 
L 146.080402 466.568939 
L 146.991414 465.836382 
L 148.884422 464.328717 
L 149.800632 463.607638 
L 151.688442 462.104882 
L 152.631859 461.378894 
L 154.492462 459.899002 
L 155.48831 459.150151 
L 157.296482 457.713443 
L 158.37406 456.921407 
L 160.100503 455.551153 
L 161.293796 454.692663 
L 162.904523 453.415538 
L 164.252642 452.46392 
L 165.708543 451.310417 
L 167.256147 450.235176 
L 168.512563 449.240101 
L 170.310651 448.006432 
L 171.316583 447.209724 
L 173.424372 445.777688 
L 174.120603 445.22607 
L 176.609608 443.548945 
L 176.924623 443.299219 
L 179.728643 442.064481 
L 179.997785 443.548945 
L 179.728643 443.762698 
L 177.317694 445.777688 
L 176.924623 446.090007 
L 174.560696 448.006432 
L 174.120603 448.356224 
L 171.738869 450.235176 
L 171.316583 450.570882 
L 168.857299 452.46392 
L 168.512563 452.738006 
L 165.914893 454.692663 
L 165.708543 454.856728 
L 162.904523 456.921407 
L 162.904523 456.921407 
L 160.100503 459.023336 
L 159.958641 459.150151 
L 157.296482 461.155152 
L 157.035724 461.378894 
L 154.492462 463.303016 
L 154.124938 463.607638 
L 151.688442 465.458549 
L 151.218837 465.836382 
L 148.884422 467.616253 
L 148.311875 468.065126 
L 146.080402 469.772239 
L 145.399379 470.293869 
L 143.276382 471.923328 
L 142.47654 472.522613 
L 140.472362 474.06612 
L 139.53723 474.751357 
L 137.668342 476.195932 
L 136.572539 476.980101 
L 134.864322 478.30561 
L 133.568962 479.208844 
L 132.060302 480.384158 
z
M 181.848745 441.320201 
L 182.532663 441.153631 
L 182.58007 441.320201 
L 182.532663 441.357828 
z
M 188.140704 437.145718 
L 188.49789 436.862714 
L 188.140704 436.004828 
L 185.967534 436.862714 
z
" clip-path="url(#peffa7e91f6)" style="fill: #ccdff1"/>
    <path d="M 123.648241 486.216559 
L 124.056577 485.895075 
L 123.648241 485.576862 
L 123.24797 485.895075 
z
M 126.452261 484.372184 
L 127.351609 483.666332 
L 126.452261 482.97134 
L 125.578163 483.666332 
z
M 125.899606 483.666332 
L 126.452261 483.226918 
L 127.020881 483.666332 
L 126.452261 484.112612 
z
M 129.256281 482.414848 
L 130.505883 481.437588 
L 129.256281 480.482375 
L 128.055127 481.437588 
z
M 128.322221 481.437588 
L 129.256281 480.69478 
L 130.228016 481.437588 
L 129.256281 482.19754 
z
M 132.060302 480.384158 
L 133.568962 479.208844 
L 134.864322 478.30561 
L 136.572539 476.980101 
L 137.668342 476.195932 
L 139.53723 474.751357 
L 140.472362 474.06612 
L 142.47654 472.522613 
L 143.276382 471.923328 
L 145.399379 470.293869 
L 146.080402 469.772239 
L 148.311875 468.065126 
L 148.884422 467.616253 
L 151.218837 465.836382 
L 151.688442 465.458549 
L 154.124938 463.607638 
L 154.492462 463.303016 
L 157.035724 461.378894 
L 157.296482 461.155152 
L 159.958641 459.150151 
L 160.100503 459.023336 
L 162.904523 456.921407 
L 162.904523 456.921407 
L 165.708543 454.856728 
L 165.914893 454.692663 
L 168.512563 452.738006 
L 168.857299 452.46392 
L 171.316583 450.570882 
L 171.738869 450.235176 
L 174.120603 448.356224 
L 174.560696 448.006432 
L 176.924623 446.090007 
L 177.317694 445.777688 
L 179.728643 443.762698 
L 179.997785 443.548945 
L 179.728643 442.064481 
L 176.924623 443.299219 
L 176.609608 443.548945 
L 174.120603 445.22607 
L 173.424372 445.777688 
L 171.316583 447.209724 
L 170.310651 448.006432 
L 168.512563 449.240101 
L 167.256147 450.235176 
L 165.708543 451.310417 
L 164.252642 452.46392 
L 162.904523 453.415538 
L 161.293796 454.692663 
L 160.100503 455.551153 
L 158.37406 456.921407 
L 157.296482 457.713443 
L 155.48831 459.150151 
L 154.492462 459.899002 
L 152.631859 461.378894 
L 151.688442 462.104882 
L 149.800632 463.607638 
L 148.884422 464.328717 
L 146.991414 465.836382 
L 146.080402 466.568939 
L 144.202168 468.065126 
L 143.276382 468.825132 
L 141.432451 470.293869 
L 140.472362 471.098491 
L 138.683956 472.522613 
L 137.668342 473.392416 
L 135.961165 474.751357 
L 134.864322 475.71323 
L 133.272211 476.980101 
L 132.060302 478.071226 
L 130.630152 479.208844 
z
M 130.859293 479.208844 
L 132.060302 478.253497 
L 133.327242 479.208844 
L 132.060302 480.195847 
z
M 133.474659 476.980101 
L 134.864322 475.874322 
L 136.14486 474.751357 
L 137.668342 473.538641 
L 138.854693 472.522613 
L 140.472362 471.234451 
L 141.594681 470.293869 
L 143.276382 468.954351 
L 144.359574 468.065126 
L 146.080402 466.694328 
L 147.147348 465.836382 
L 148.884422 464.452909 
L 149.958431 463.607638 
L 151.688442 462.230496 
L 152.795093 461.378894 
L 154.492462 460.028836 
L 155.660967 459.150151 
L 157.296482 457.85063 
L 158.560705 456.921407 
L 160.100503 455.699291 
L 161.499706 454.692663 
L 162.904523 453.578801 
L 164.483931 452.46392 
L 165.708543 451.493665 
L 167.519898 450.235176 
L 168.512563 449.44899 
L 170.61511 448.006432 
L 171.316583 447.450859 
L 173.779294 445.777688 
L 174.120603 445.507272 
L 176.860448 445.777688 
L 174.166571 448.006432 
L 174.120603 448.042968 
L 171.34179 450.235176 
L 171.316583 450.255215 
L 168.512563 452.37338 
L 168.430631 452.46392 
L 165.708543 454.492034 
L 165.508621 454.692663 
L 162.904523 456.636492 
L 162.601382 456.921407 
L 160.100503 458.796098 
L 159.704439 459.150151 
L 157.296482 460.963701 
L 156.8126 461.378894 
L 154.492462 463.13421 
L 153.921275 463.607638 
L 151.688442 465.303834 
L 151.026543 465.836382 
L 148.884422 467.469638 
L 148.124865 468.065126 
L 146.080402 469.629173 
L 145.212597 470.293869 
L 143.276382 471.779968 
L 142.285203 472.522613 
L 140.472362 473.918763 
L 139.336134 474.751357 
L 137.668342 476.040493 
L 136.355328 476.980101 
L 134.864322 478.137063 
z
M 182.532663 441.357828 
L 182.58007 441.320201 
L 182.532663 441.153631 
L 181.848745 441.320201 
z
" clip-path="url(#peffa7e91f6)" style="fill: #b4d3e9"/>
    <path d="M 126.452261 484.112612 
L 127.020881 483.666332 
L 126.452261 483.226918 
L 125.899606 483.666332 
z
M 129.256281 482.19754 
L 130.228016 481.437588 
L 129.256281 480.69478 
L 128.322221 481.437588 
z
M 132.060302 480.195847 
L 133.327242 479.208844 
L 132.060302 478.253497 
L 130.859293 479.208844 
z
M 131.660626 479.208844 
L 132.060302 478.890921 
L 132.481918 479.208844 
L 132.060302 479.537302 
z
M 134.864322 478.137063 
L 136.355328 476.980101 
L 137.668342 476.040493 
L 139.336134 474.751357 
L 140.472362 473.918763 
L 142.285203 472.522613 
L 143.276382 471.779968 
L 145.212597 470.293869 
L 146.080402 469.629173 
L 148.124865 468.065126 
L 148.884422 467.469638 
L 151.026543 465.836382 
L 151.688442 465.303834 
L 153.921275 463.607638 
L 154.492462 463.13421 
L 156.8126 461.378894 
L 157.296482 460.963701 
L 159.704439 459.150151 
L 160.100503 458.796098 
L 162.601382 456.921407 
L 162.904523 456.636492 
L 165.508621 454.692663 
L 165.708543 454.492034 
L 168.430631 452.46392 
L 168.512563 452.37338 
L 171.316583 450.255215 
L 171.34179 450.235176 
L 174.120603 448.042968 
L 174.166571 448.006432 
L 176.860448 445.777688 
L 174.120603 445.507272 
L 173.779294 445.777688 
L 171.316583 447.450859 
L 170.61511 448.006432 
L 168.512563 449.44899 
L 167.519898 450.235176 
L 165.708543 451.493665 
L 164.483931 452.46392 
L 162.904523 453.578801 
L 161.499706 454.692663 
L 160.100503 455.699291 
L 158.560705 456.921407 
L 157.296482 457.85063 
L 155.660967 459.150151 
L 154.492462 460.028836 
L 152.795093 461.378894 
L 151.688442 462.230496 
L 149.958431 463.607638 
L 148.884422 464.452909 
L 147.147348 465.836382 
L 146.080402 466.694328 
L 144.359574 468.065126 
L 143.276382 468.954351 
L 141.594681 470.293869 
L 140.472362 471.234451 
L 138.854693 472.522613 
L 137.668342 473.538641 
L 136.14486 474.751357 
L 134.864322 475.874322 
L 133.474659 476.980101 
z
M 134.182643 476.980101 
L 134.864322 476.437677 
L 135.595713 476.980101 
L 134.864322 477.547631 
z
M 136.787265 474.751357 
L 137.668342 474.050005 
L 138.632878 474.751357 
L 137.668342 475.496904 
z
M 139.451781 472.522613 
L 140.472362 471.709917 
L 141.616076 472.522613 
L 140.472362 473.403438 
z
M 142.162016 470.293869 
L 143.276382 469.406248 
L 144.5594 470.293869 
L 143.276382 471.278621 
z
M 144.910043 468.065126 
L 146.080402 467.132827 
L 147.47087 468.065126 
L 146.080402 469.128856 
z
M 147.692668 465.836382 
L 148.884422 464.887222 
L 150.354067 465.836382 
L 148.884422 466.95691 
z
M 150.510275 463.607638 
L 151.688442 462.66978 
L 153.20904 463.607638 
L 151.688442 464.762777 
z
M 153.36594 461.378894 
L 154.492462 460.482878 
L 156.032307 461.378894 
L 154.492462 462.543874 
z
M 156.264768 459.150151 
L 157.296482 458.330388 
L 158.815468 459.150151 
L 157.296482 460.294173 
z
M 159.213423 456.921407 
L 160.100503 456.217344 
L 161.541262 456.921407 
L 160.100503 458.001419 
z
M 162.219795 454.692663 
L 162.904523 454.149751 
L 164.173796 454.692663 
L 162.904523 455.640113 
z
M 165.292773 452.46392 
L 165.708543 452.134507 
L 166.632722 452.46392 
L 165.708543 453.152487 
z
M 168.442268 450.235176 
L 168.512563 450.179503 
L 168.714533 450.235176 
L 168.512563 450.386591 
z
" clip-path="url(#peffa7e91f6)" style="fill: #82bbdb"/>
    <path d="M 132.060302 479.537302 
L 132.481918 479.208844 
L 132.060302 478.890921 
L 131.660626 479.208844 
z
M 134.864322 477.547631 
L 135.595713 476.980101 
L 134.864322 476.437677 
L 134.182643 476.980101 
z
M 134.546568 476.980101 
L 134.864322 476.727259 
L 135.205248 476.980101 
L 134.864322 477.244646 
z
M 137.668342 475.496904 
L 138.632878 474.751357 
L 137.668342 474.050005 
L 136.787265 474.751357 
z
M 137.117481 474.751357 
L 137.668342 474.312862 
L 138.271383 474.751357 
L 137.668342 475.217483 
z
M 140.472362 473.403438 
L 141.616076 472.522613 
L 140.472362 471.709917 
L 139.451781 472.522613 
z
M 139.758703 472.522613 
L 140.472362 471.954321 
L 141.272124 472.522613 
L 140.472362 473.138546 
z
M 143.276382 471.278621 
L 144.5594 470.293869 
L 143.276382 469.406248 
L 142.162016 470.293869 
z
M 142.453643 470.293869 
L 143.276382 469.638537 
L 144.223637 470.293869 
L 143.276382 471.020913 
z
M 146.080402 469.128856 
L 147.47087 468.065126 
L 146.080402 467.132827 
L 144.910043 468.065126 
z
M 145.193001 468.065126 
L 146.080402 467.358229 
L 147.134696 468.065126 
L 146.080402 468.871678 
z
M 148.884422 466.95691 
L 150.354067 465.836382 
L 148.884422 464.887222 
L 147.692668 465.836382 
z
M 147.972979 465.836382 
L 148.884422 465.110473 
L 150.008394 465.836382 
L 148.884422 466.693352 
z
M 151.688442 464.762777 
L 153.20904 463.607638 
L 151.688442 462.66978 
L 150.510275 463.607638 
z
M 150.793939 463.607638 
L 151.688442 462.895586 
L 152.842929 463.607638 
L 151.688442 464.484657 
z
M 154.492462 462.543874 
L 156.032307 461.378894 
L 154.492462 460.482878 
L 153.36594 461.378894 
z
M 153.659373 461.378894 
L 154.492462 460.71627 
L 155.631213 461.378894 
L 154.492462 462.240424 
z
M 157.296482 460.294173 
L 158.815468 459.150151 
L 157.296482 458.330388 
L 156.264768 459.150151 
z
M 156.57514 459.150151 
L 157.296482 458.576998 
L 158.35851 459.150151 
L 157.296482 459.950016 
z
M 160.100503 458.001419 
L 161.541262 456.921407 
L 160.100503 456.217344 
L 159.213423 456.921407 
z
M 159.54894 456.921407 
L 160.100503 456.483639 
L 160.996329 456.921407 
L 160.100503 457.59293 
z
M 162.904523 455.640113 
L 164.173796 454.692663 
L 162.904523 454.149751 
L 162.219795 454.692663 
z
M 162.589943 454.692663 
L 162.904523 454.443237 
L 163.487656 454.692663 
L 162.904523 455.127943 
z
M 165.708543 453.152487 
L 166.632722 452.46392 
L 165.708543 452.134507 
L 165.292773 452.46392 
z
M 168.512563 450.386591 
L 168.714533 450.235176 
L 168.512563 450.179503 
L 168.442268 450.235176 
z
" clip-path="url(#peffa7e91f6)" style="fill: #4a98c9"/>
    <path d="M 134.864322 477.244646 
L 135.205248 476.980101 
L 134.864322 476.727259 
L 134.546568 476.980101 
z
M 137.668342 475.217483 
L 138.271383 474.751357 
L 137.668342 474.312862 
L 137.117481 474.751357 
z
M 140.472362 473.138546 
L 141.272124 472.522613 
L 140.472362 471.954321 
L 139.758703 472.522613 
z
M 140.270705 472.522613 
L 140.472362 472.362032 
L 140.698348 472.522613 
L 140.472362 472.696655 
z
M 143.276382 471.020913 
L 144.223637 470.293869 
L 143.276382 469.638537 
L 142.453643 470.293869 
z
M 142.940132 470.293869 
L 143.276382 470.026038 
L 143.663521 470.293869 
L 143.276382 470.591009 
z
M 146.080402 468.871678 
L 147.134696 468.065126 
L 146.080402 467.358229 
L 145.193001 468.065126 
z
M 145.665027 468.065126 
L 146.080402 467.734241 
L 146.573896 468.065126 
L 146.080402 468.442657 
z
M 148.884422 466.693352 
L 150.008394 465.836382 
L 148.884422 465.110473 
L 147.972979 465.836382 
z
M 148.440589 465.836382 
L 148.884422 465.482896 
L 149.431747 465.836382 
L 148.884422 466.253689 
z
M 151.688442 464.484657 
L 152.842929 463.607638 
L 151.688442 462.895586 
L 150.793939 463.607638 
z
M 151.267144 463.607638 
L 151.688442 463.272272 
L 152.232189 463.607638 
L 151.688442 464.020702 
z
M 154.492462 462.240424 
L 155.631213 461.378894 
L 154.492462 460.71627 
L 153.659373 461.378894 
z
M 154.148874 461.378894 
L 154.492462 461.10561 
L 154.962114 461.378894 
L 154.492462 461.734213 
z
M 157.296482 459.950016 
L 158.35851 459.150151 
L 157.296482 458.576998 
L 156.57514 459.150151 
z
M 157.092897 459.150151 
L 157.296482 458.98839 
L 157.596219 459.150151 
L 157.296482 459.375897 
z
M 160.100503 457.59293 
L 160.996329 456.921407 
L 160.100503 456.483639 
L 159.54894 456.921407 
z
M 162.904523 455.127943 
L 163.487656 454.692663 
L 162.904523 454.443237 
L 162.589943 454.692663 
z
" clip-path="url(#peffa7e91f6)" style="fill: #2373b6"/>
    <path d="M 140.472362 472.696655 
L 140.698348 472.522613 
L 140.472362 472.362032 
L 140.270705 472.522613 
z
M 143.276382 470.591009 
L 143.663521 470.293869 
L 143.276382 470.026038 
L 142.940132 470.293869 
z
M 143.13174 470.293869 
L 143.276382 470.178658 
L 143.442915 470.293869 
L 143.276382 470.421688 
z
M 146.080402 468.442657 
L 146.573896 468.065126 
L 146.080402 467.734241 
L 145.665027 468.065126 
z
M 145.850939 468.065126 
L 146.080402 467.882337 
L 146.35302 468.065126 
L 146.080402 468.273683 
z
M 148.884422 466.253689 
L 149.431747 465.836382 
L 148.884422 465.482896 
L 148.440589 465.836382 
z
M 148.624762 465.836382 
L 148.884422 465.629578 
L 149.204629 465.836382 
L 148.884422 466.080523 
z
M 151.688442 464.020702 
L 152.232189 463.607638 
L 151.688442 463.272272 
L 151.267144 463.607638 
z
M 151.45352 463.607638 
L 151.688442 463.420633 
L 151.991644 463.607638 
L 151.688442 463.837969 
z
M 154.492462 461.734213 
L 154.962114 461.378894 
L 154.492462 461.10561 
L 154.148874 461.378894 
z
M 154.341668 461.378894 
L 154.492462 461.258955 
L 154.698583 461.378894 
L 154.492462 461.534837 
z
M 157.296482 459.375897 
L 157.596219 459.150151 
L 157.296482 458.98839 
L 157.092897 459.150151 
z
" clip-path="url(#peffa7e91f6)" style="fill: #0a539e"/>
    <path d="M 143.276382 470.421688 
L 143.442915 470.293869 
L 143.276382 470.178658 
L 143.13174 470.293869 
z
M 146.080402 468.273683 
L 146.35302 468.065126 
L 146.080402 467.882337 
L 145.850939 468.065126 
z
M 148.884422 466.080523 
L 149.204629 465.836382 
L 148.884422 465.629578 
L 148.624762 465.836382 
z
M 148.852079 465.836382 
L 148.884422 465.810622 
L 148.924307 465.836382 
L 148.884422 465.866792 
z
M 151.688442 463.837969 
L 151.991644 463.607638 
L 151.688442 463.420633 
L 151.45352 463.607638 
z
M 151.683556 463.607638 
L 151.688442 463.603749 
L 151.694748 463.607638 
L 151.688442 463.612429 
z
M 154.492462 461.534837 
L 154.698583 461.378894 
L 154.492462 461.258955 
L 154.341668 461.378894 
z
" clip-path="url(#peffa7e91f6)" style="fill: #083e81"/>
    <path d="M 148.884422 465.866792 
L 148.924307 465.836382 
L 148.884422 465.810622 
L 148.852079 465.836382 
z
M 151.688442 463.612429 
L 151.694748 463.607638 
L 151.688442 463.603749 
L 151.683556 463.607638 
z
" clip-path="url(#peffa7e91f6)" style="fill: #08316d"/>
   </g>
   <g id="matplotlib.axis_1">
    <g id="xtick_1">
     <g id="line2d_1">
      <defs>
       <path id="m5457b32c19" d="M 0 0 
L 0 3.5 
" style="stroke: #000000; stroke-width: 0.8"/>
      </defs>
      <g>
       <use xlink:href="#m5457b32c19" x="153.545742" y="512.64" style="stroke: #000000; stroke-width: 0.8"/>
      </g>
     </g>
     <g id="text_1">
      <!-- 0 -->
      <g transform="translate(150.364492 527.238438) scale(0.1 -0.1)">
       <defs>
        <path id="DejaVuSans-30" d="M 2034 4250 
Q 1547 4250 1301 3770 
Q 1056 3291 1056 2328 
Q 1056 1369 1301 889 
Q 1547 409 2034 409 
Q 2525 409 2770 889 
Q 3016 1369 3016 2328 
Q 3016 3291 2770 3770 
Q 2525 4250 2034 4250 
z
M 2034 4750 
Q 2819 4750 3233 4129 
Q 3647 3509 3647 2328 
Q 3647 1150 3233 529 
Q 2819 -91 2034 -91 
Q 1250 -91 836 529 
Q 422 1150 422 2328 
Q 422 3509 836 4129 
Q 1250 4750 2034 4750 
z
" transform="scale(0.015625)"/>
       </defs>
       <use xlink:href="#DejaVuSans-30"/>
      </g>
     </g>
    </g>
    <g id="xtick_2">
     <g id="line2d_2">
      <g>
       <use xlink:href="#m5457b32c19" x="235.635228" y="512.64" style="stroke: #000000; stroke-width: 0.8"/>
      </g>
     </g>
     <g id="text_2">
      <!-- 100 -->
      <g transform="translate(226.091478 527.238438) scale(0.1 -0.1)">
       <defs>
        <path id="DejaVuSans-31" d="M 794 531 
L 1825 531 
L 1825 4091 
L 703 3866 
L 703 4441 
L 1819 4666 
L 2450 4666 
L 2450 531 
L 3481 531 
L 3481 0 
L 794 0 
L 794 531 
z
" transform="scale(0.015625)"/>
       </defs>
       <use xlink:href="#DejaVuSans-31"/>
       <use xlink:href="#DejaVuSans-30" x="63.623047"/>
       <use xlink:href="#DejaVuSans-30" x="127.246094"/>
      </g>
     </g>
    </g>
    <g id="xtick_3">
     <g id="line2d_3">
      <g>
       <use xlink:href="#m5457b32c19" x="317.724714" y="512.64" style="stroke: #000000; stroke-width: 0.8"/>
      </g>
     </g>
     <g id="text_3">
      <!-- 200 -->
      <g transform="translate(308.180964 527.238438) scale(0.1 -0.1)">
       <defs>
        <path id="DejaVuSans-32" d="M 1228 531 
L 3431 531 
L 3431 0 
L 469 0 
L 469 531 
Q 828 903 1448 1529 
Q 2069 2156 2228 2338 
Q 2531 2678 2651 2914 
Q 2772 3150 2772 3378 
Q 2772 3750 2511 3984 
Q 2250 4219 1831 4219 
Q 1534 4219 1204 4116 
Q 875 4013 500 3803 
L 500 4441 
Q 881 4594 1212 4672 
Q 1544 4750 1819 4750 
Q 2544 4750 2975 4387 
Q 3406 4025 3406 3419 
Q 3406 3131 3298 2873 
Q 3191 2616 2906 2266 
Q 2828 2175 2409 1742 
Q 1991 1309 1228 531 
z
" transform="scale(0.015625)"/>
       </defs>
       <use xlink:href="#DejaVuSans-32"/>
       <use xlink:href="#DejaVuSans-30" x="63.623047"/>
       <use xlink:href="#DejaVuSans-30" x="127.246094"/>
      </g>
     </g>
    </g>
    <g id="xtick_4">
     <g id="line2d_4">
      <g>
       <use xlink:href="#m5457b32c19" x="399.8142" y="512.64" style="stroke: #000000; stroke-width: 0.8"/>
      </g>
     </g>
     <g id="text_4">
      <!-- 300 -->
      <g transform="translate(390.27045 527.238438) scale(0.1 -0.1)">
       <defs>
        <path id="DejaVuSans-33" d="M 2597 2516 
Q 3050 2419 3304 2112 
Q 3559 1806 3559 1356 
Q 3559 666 3084 287 
Q 2609 -91 1734 -91 
Q 1441 -91 1130 -33 
Q 819 25 488 141 
L 488 750 
Q 750 597 1062 519 
Q 1375 441 1716 441 
Q 2309 441 2620 675 
Q 2931 909 2931 1356 
Q 2931 1769 2642 2001 
Q 2353 2234 1838 2234 
L 1294 2234 
L 1294 2753 
L 1863 2753 
Q 2328 2753 2575 2939 
Q 2822 3125 2822 3475 
Q 2822 3834 2567 4026 
Q 2313 4219 1838 4219 
Q 1578 4219 1281 4162 
Q 984 4106 628 3988 
L 628 4550 
Q 988 4650 1302 4700 
Q 1616 4750 1894 4750 
Q 2613 4750 3031 4423 
Q 3450 4097 3450 3541 
Q 3450 3153 3228 2886 
Q 3006 2619 2597 2516 
z
" transform="scale(0.015625)"/>
       </defs>
       <use xlink:href="#DejaVuSans-33"/>
       <use xlink:href="#DejaVuSans-30" x="63.623047"/>
       <use xlink:href="#DejaVuSans-30" x="127.246094"/>
      </g>
     </g>
    </g>
    <g id="xtick_5">
     <g id="line2d_5">
      <g>
       <use xlink:href="#m5457b32c19" x="481.903687" y="512.64" style="stroke: #000000; stroke-width: 0.8"/>
      </g>
     </g>
     <g id="text_5">
      <!-- 400 -->
      <g transform="translate(472.359937 527.238438) scale(0.1 -0.1)">
       <defs>
        <path id="DejaVuSans-34" d="M 2419 4116 
L 825 1625 
L 2419 1625 
L 2419 4116 
z
M 2253 4666 
L 3047 4666 
L 3047 1625 
L 3713 1625 
L 3713 1100 
L 3047 1100 
L 3047 0 
L 2419 0 
L 2419 1100 
L 313 1100 
L 313 1709 
L 2253 4666 
z
" transform="scale(0.015625)"/>
       </defs>
       <use xlink:href="#DejaVuSans-34"/>
       <use xlink:href="#DejaVuSans-30" x="63.623047"/>
       <use xlink:href="#DejaVuSans-30" x="127.246094"/>
      </g>
     </g>
    </g>
    <g id="xtick_6">
     <g id="line2d_6">
      <g>
       <use xlink:href="#m5457b32c19" x="563.993173" y="512.64" style="stroke: #000000; stroke-width: 0.8"/>
      </g>
     </g>
     <g id="text_6">
      <!-- 500 -->
      <g transform="translate(554.449423 527.238438) scale(0.1 -0.1)">
       <defs>
        <path id="DejaVuSans-35" d="M 691 4666 
L 3169 4666 
L 3169 4134 
L 1269 4134 
L 1269 2991 
Q 1406 3038 1543 3061 
Q 1681 3084 1819 3084 
Q 2600 3084 3056 2656 
Q 3513 2228 3513 1497 
Q 3513 744 3044 326 
Q 2575 -91 1722 -91 
Q 1428 -91 1123 -41 
Q 819 9 494 109 
L 494 744 
Q 775 591 1075 516 
Q 1375 441 1709 441 
Q 2250 441 2565 725 
Q 2881 1009 2881 1497 
Q 2881 1984 2565 2268 
Q 2250 2553 1709 2553 
Q 1456 2553 1204 2497 
Q 953 2441 691 2322 
L 691 4666 
z
" transform="scale(0.015625)"/>
       </defs>
       <use xlink:href="#DejaVuSans-35"/>
       <use xlink:href="#DejaVuSans-30" x="63.623047"/>
       <use xlink:href="#DejaVuSans-30" x="127.246094"/>
      </g>
     </g>
    </g>
    <g id="xtick_7">
     <g id="line2d_7">
      <g>
       <use xlink:href="#m5457b32c19" x="646.082659" y="512.64" style="stroke: #000000; stroke-width: 0.8"/>
      </g>
     </g>
     <g id="text_7">
      <!-- 600 -->
      <g transform="translate(636.538909 527.238438) scale(0.1 -0.1)">
       <defs>
        <path id="DejaVuSans-36" d="M 2113 2584 
Q 1688 2584 1439 2293 
Q 1191 2003 1191 1497 
Q 1191 994 1439 701 
Q 1688 409 2113 409 
Q 2538 409 2786 701 
Q 3034 994 3034 1497 
Q 3034 2003 2786 2293 
Q 2538 2584 2113 2584 
z
M 3366 4563 
L 3366 3988 
Q 3128 4100 2886 4159 
Q 2644 4219 2406 4219 
Q 1781 4219 1451 3797 
Q 1122 3375 1075 2522 
Q 1259 2794 1537 2939 
Q 1816 3084 2150 3084 
Q 2853 3084 3261 2657 
Q 3669 2231 3669 1497 
Q 3669 778 3244 343 
Q 2819 -91 2113 -91 
Q 1303 -91 875 529 
Q 447 1150 447 2328 
Q 447 3434 972 4092 
Q 1497 4750 2381 4750 
Q 2619 4750 2861 4703 
Q 3103 4656 3366 4563 
z
" transform="scale(0.015625)"/>
       </defs>
       <use xlink:href="#DejaVuSans-36"/>
       <use xlink:href="#DejaVuSans-30" x="63.623047"/>
       <use xlink:href="#DejaVuSans-30" x="127.246094"/>
      </g>
     </g>
    </g>
    <g id="text_8">
     <!-- Ground Truth Energy -->
     <g transform="translate(317.257812 540.916563) scale(0.1 -0.1)">
      <defs>
       <path id="DejaVuSans-47" d="M 3809 666 
L 3809 1919 
L 2778 1919 
L 2778 2438 
L 4434 2438 
L 4434 434 
Q 4069 175 3628 42 
Q 3188 -91 2688 -91 
Q 1594 -91 976 548 
Q 359 1188 359 2328 
Q 359 3472 976 4111 
Q 1594 4750 2688 4750 
Q 3144 4750 3555 4637 
Q 3966 4525 4313 4306 
L 4313 3634 
Q 3963 3931 3569 4081 
Q 3175 4231 2741 4231 
Q 1884 4231 1454 3753 
Q 1025 3275 1025 2328 
Q 1025 1384 1454 906 
Q 1884 428 2741 428 
Q 3075 428 3337 486 
Q 3600 544 3809 666 
z
" transform="scale(0.015625)"/>
       <path id="DejaVuSans-72" d="M 2631 2963 
Q 2534 3019 2420 3045 
Q 2306 3072 2169 3072 
Q 1681 3072 1420 2755 
Q 1159 2438 1159 1844 
L 1159 0 
L 581 0 
L 581 3500 
L 1159 3500 
L 1159 2956 
Q 1341 3275 1631 3429 
Q 1922 3584 2338 3584 
Q 2397 3584 2469 3576 
Q 2541 3569 2628 3553 
L 2631 2963 
z
" transform="scale(0.015625)"/>
       <path id="DejaVuSans-6f" d="M 1959 3097 
Q 1497 3097 1228 2736 
Q 959 2375 959 1747 
Q 959 1119 1226 758 
Q 1494 397 1959 397 
Q 2419 397 2687 759 
Q 2956 1122 2956 1747 
Q 2956 2369 2687 2733 
Q 2419 3097 1959 3097 
z
M 1959 3584 
Q 2709 3584 3137 3096 
Q 3566 2609 3566 1747 
Q 3566 888 3137 398 
Q 2709 -91 1959 -91 
Q 1206 -91 779 398 
Q 353 888 353 1747 
Q 353 2609 779 3096 
Q 1206 3584 1959 3584 
z
" transform="scale(0.015625)"/>
       <path id="DejaVuSans-75" d="M 544 1381 
L 544 3500 
L 1119 3500 
L 1119 1403 
Q 1119 906 1312 657 
Q 1506 409 1894 409 
Q 2359 409 2629 706 
Q 2900 1003 2900 1516 
L 2900 3500 
L 3475 3500 
L 3475 0 
L 2900 0 
L 2900 538 
Q 2691 219 2414 64 
Q 2138 -91 1772 -91 
Q 1169 -91 856 284 
Q 544 659 544 1381 
z
M 1991 3584 
L 1991 3584 
z
" transform="scale(0.015625)"/>
       <path id="DejaVuSans-6e" d="M 3513 2113 
L 3513 0 
L 2938 0 
L 2938 2094 
Q 2938 2591 2744 2837 
Q 2550 3084 2163 3084 
Q 1697 3084 1428 2787 
Q 1159 2491 1159 1978 
L 1159 0 
L 581 0 
L 581 3500 
L 1159 3500 
L 1159 2956 
Q 1366 3272 1645 3428 
Q 1925 3584 2291 3584 
Q 2894 3584 3203 3211 
Q 3513 2838 3513 2113 
z
" transform="scale(0.015625)"/>
       <path id="DejaVuSans-64" d="M 2906 2969 
L 2906 4863 
L 3481 4863 
L 3481 0 
L 2906 0 
L 2906 525 
Q 2725 213 2448 61 
Q 2172 -91 1784 -91 
Q 1150 -91 751 415 
Q 353 922 353 1747 
Q 353 2572 751 3078 
Q 1150 3584 1784 3584 
Q 2172 3584 2448 3432 
Q 2725 3281 2906 2969 
z
M 947 1747 
Q 947 1113 1208 752 
Q 1469 391 1925 391 
Q 2381 391 2643 752 
Q 2906 1113 2906 1747 
Q 2906 2381 2643 2742 
Q 2381 3103 1925 3103 
Q 1469 3103 1208 2742 
Q 947 2381 947 1747 
z
" transform="scale(0.015625)"/>
       <path id="DejaVuSans-20" transform="scale(0.015625)"/>
       <path id="DejaVuSans-54" d="M -19 4666 
L 3928 4666 
L 3928 4134 
L 2272 4134 
L 2272 0 
L 1638 0 
L 1638 4134 
L -19 4134 
L -19 4666 
z
" transform="scale(0.015625)"/>
       <path id="DejaVuSans-74" d="M 1172 4494 
L 1172 3500 
L 2356 3500 
L 2356 3053 
L 1172 3053 
L 1172 1153 
Q 1172 725 1289 603 
Q 1406 481 1766 481 
L 2356 481 
L 2356 0 
L 1766 0 
Q 1100 0 847 248 
Q 594 497 594 1153 
L 594 3053 
L 172 3053 
L 172 3500 
L 594 3500 
L 594 4494 
L 1172 4494 
z
" transform="scale(0.015625)"/>
       <path id="DejaVuSans-68" d="M 3513 2113 
L 3513 0 
L 2938 0 
L 2938 2094 
Q 2938 2591 2744 2837 
Q 2550 3084 2163 3084 
Q 1697 3084 1428 2787 
Q 1159 2491 1159 1978 
L 1159 0 
L 581 0 
L 581 4863 
L 1159 4863 
L 1159 2956 
Q 1366 3272 1645 3428 
Q 1925 3584 2291 3584 
Q 2894 3584 3203 3211 
Q 3513 2838 3513 2113 
z
" transform="scale(0.015625)"/>
       <path id="DejaVuSans-45" d="M 628 4666 
L 3578 4666 
L 3578 4134 
L 1259 4134 
L 1259 2753 
L 3481 2753 
L 3481 2222 
L 1259 2222 
L 1259 531 
L 3634 531 
L 3634 0 
L 628 0 
L 628 4666 
z
" transform="scale(0.015625)"/>
       <path id="DejaVuSans-65" d="M 3597 1894 
L 3597 1613 
L 953 1613 
Q 991 1019 1311 708 
Q 1631 397 2203 397 
Q 2534 397 2845 478 
Q 3156 559 3463 722 
L 3463 178 
Q 3153 47 2828 -22 
Q 2503 -91 2169 -91 
Q 1331 -91 842 396 
Q 353 884 353 1716 
Q 353 2575 817 3079 
Q 1281 3584 2069 3584 
Q 2775 3584 3186 3129 
Q 3597 2675 3597 1894 
z
M 3022 2063 
Q 3016 2534 2758 2815 
Q 2500 3097 2075 3097 
Q 1594 3097 1305 2825 
Q 1016 2553 972 2059 
L 3022 2063 
z
" transform="scale(0.015625)"/>
       <path id="DejaVuSans-67" d="M 2906 1791 
Q 2906 2416 2648 2759 
Q 2391 3103 1925 3103 
Q 1463 3103 1205 2759 
Q 947 2416 947 1791 
Q 947 1169 1205 825 
Q 1463 481 1925 481 
Q 2391 481 2648 825 
Q 2906 1169 2906 1791 
z
M 3481 434 
Q 3481 -459 3084 -895 
Q 2688 -1331 1869 -1331 
Q 1566 -1331 1297 -1286 
Q 1028 -1241 775 -1147 
L 775 -588 
Q 1028 -725 1275 -790 
Q 1522 -856 1778 -856 
Q 2344 -856 2625 -561 
Q 2906 -266 2906 331 
L 2906 616 
Q 2728 306 2450 153 
Q 2172 0 1784 0 
Q 1141 0 747 490 
Q 353 981 353 1791 
Q 353 2603 747 3093 
Q 1141 3584 1784 3584 
Q 2172 3584 2450 3431 
Q 2728 3278 2906 2969 
L 2906 3500 
L 3481 3500 
L 3481 434 
z
" transform="scale(0.015625)"/>
       <path id="DejaVuSans-79" d="M 2059 -325 
Q 1816 -950 1584 -1140 
Q 1353 -1331 966 -1331 
L 506 -1331 
L 506 -850 
L 844 -850 
Q 1081 -850 1212 -737 
Q 1344 -625 1503 -206 
L 1606 56 
L 191 3500 
L 800 3500 
L 1894 763 
L 2988 3500 
L 3597 3500 
L 2059 -325 
z
" transform="scale(0.015625)"/>
      </defs>
      <use xlink:href="#DejaVuSans-47"/>
      <use xlink:href="#DejaVuSans-72" x="77.490234"/>
      <use xlink:href="#DejaVuSans-6f" x="116.353516"/>
      <use xlink:href="#DejaVuSans-75" x="177.535156"/>
      <use xlink:href="#DejaVuSans-6e" x="240.914062"/>
      <use xlink:href="#DejaVuSans-64" x="304.292969"/>
      <use xlink:href="#DejaVuSans-20" x="367.769531"/>
      <use xlink:href="#DejaVuSans-54" x="399.556641"/>
      <use xlink:href="#DejaVuSans-72" x="445.890625"/>
      <use xlink:href="#DejaVuSans-75" x="487.003906"/>
      <use xlink:href="#DejaVuSans-74" x="550.382812"/>
      <use xlink:href="#DejaVuSans-68" x="589.591797"/>
      <use xlink:href="#DejaVuSans-20" x="652.970703"/>
      <use xlink:href="#DejaVuSans-45" x="684.757812"/>
      <use xlink:href="#DejaVuSans-6e" x="747.941406"/>
      <use xlink:href="#DejaVuSans-65" x="811.320312"/>
      <use xlink:href="#DejaVuSans-72" x="872.84375"/>
      <use xlink:href="#DejaVuSans-67" x="912.207031"/>
      <use xlink:href="#DejaVuSans-79" x="975.683594"/>
     </g>
    </g>
   </g>
   <g id="matplotlib.axis_2">
    <g id="ytick_1">
     <g id="line2d_8">
      <defs>
       <path id="m33500e42b6" d="M 0 0 
L -3.5 0 
" style="stroke: #000000; stroke-width: 0.8"/>
      </defs>
      <g>
       <use xlink:href="#m33500e42b6" x="90" y="463.64741" style="stroke: #000000; stroke-width: 0.8"/>
      </g>
     </g>
     <g id="text_9">
      <!-- 0 -->
      <g transform="translate(76.6375 467.446629) scale(0.1 -0.1)">
       <use xlink:href="#DejaVuSans-30"/>
      </g>
     </g>
    </g>
    <g id="ytick_2">
     <g id="line2d_9">
      <g>
       <use xlink:href="#m33500e42b6" x="90" y="399.486815" style="stroke: #000000; stroke-width: 0.8"/>
      </g>
     </g>
     <g id="text_10">
      <!-- 100 -->
      <g transform="translate(63.9125 403.286034) scale(0.1 -0.1)">
       <use xlink:href="#DejaVuSans-31"/>
       <use xlink:href="#DejaVuSans-30" x="63.623047"/>
       <use xlink:href="#DejaVuSans-30" x="127.246094"/>
      </g>
     </g>
    </g>
    <g id="ytick_3">
     <g id="line2d_10">
      <g>
       <use xlink:href="#m33500e42b6" x="90" y="335.32622" style="stroke: #000000; stroke-width: 0.8"/>
      </g>
     </g>
     <g id="text_11">
      <!-- 200 -->
      <g transform="translate(63.9125 339.125439) scale(0.1 -0.1)">
       <use xlink:href="#DejaVuSans-32"/>
       <use xlink:href="#DejaVuSans-30" x="63.623047"/>
       <use xlink:href="#DejaVuSans-30" x="127.246094"/>
      </g>
     </g>
    </g>
    <g id="ytick_4">
     <g id="line2d_11">
      <g>
       <use xlink:href="#m33500e42b6" x="90" y="271.165625" style="stroke: #000000; stroke-width: 0.8"/>
      </g>
     </g>
     <g id="text_12">
      <!-- 300 -->
      <g transform="translate(63.9125 274.964844) scale(0.1 -0.1)">
       <use xlink:href="#DejaVuSans-33"/>
       <use xlink:href="#DejaVuSans-30" x="63.623047"/>
       <use xlink:href="#DejaVuSans-30" x="127.246094"/>
      </g>
     </g>
    </g>
    <g id="ytick_5">
     <g id="line2d_12">
      <g>
       <use xlink:href="#m33500e42b6" x="90" y="207.00503" style="stroke: #000000; stroke-width: 0.8"/>
      </g>
     </g>
     <g id="text_13">
      <!-- 400 -->
      <g transform="translate(63.9125 210.804249) scale(0.1 -0.1)">
       <use xlink:href="#DejaVuSans-34"/>
       <use xlink:href="#DejaVuSans-30" x="63.623047"/>
       <use xlink:href="#DejaVuSans-30" x="127.246094"/>
      </g>
     </g>
    </g>
    <g id="ytick_6">
     <g id="line2d_13">
      <g>
       <use xlink:href="#m33500e42b6" x="90" y="142.844435" style="stroke: #000000; stroke-width: 0.8"/>
      </g>
     </g>
     <g id="text_14">
      <!-- 500 -->
      <g transform="translate(63.9125 146.643654) scale(0.1 -0.1)">
       <use xlink:href="#DejaVuSans-35"/>
       <use xlink:href="#DejaVuSans-30" x="63.623047"/>
       <use xlink:href="#DejaVuSans-30" x="127.246094"/>
      </g>
     </g>
    </g>
    <g id="ytick_7">
     <g id="line2d_14">
      <g>
       <use xlink:href="#m33500e42b6" x="90" y="78.68384" style="stroke: #000000; stroke-width: 0.8"/>
      </g>
     </g>
     <g id="text_15">
      <!-- 600 -->
      <g transform="translate(63.9125 82.483059) scale(0.1 -0.1)">
       <use xlink:href="#DejaVuSans-36"/>
       <use xlink:href="#DejaVuSans-30" x="63.623047"/>
       <use xlink:href="#DejaVuSans-30" x="127.246094"/>
      </g>
     </g>
    </g>
    <g id="text_16">
     <!-- Predicted Energy -->
     <g transform="translate(57.832812 333.445625) rotate(-90) scale(0.1 -0.1)">
      <defs>
       <path id="DejaVuSans-50" d="M 1259 4147 
L 1259 2394 
L 2053 2394 
Q 2494 2394 2734 2622 
Q 2975 2850 2975 3272 
Q 2975 3691 2734 3919 
Q 2494 4147 2053 4147 
L 1259 4147 
z
M 628 4666 
L 2053 4666 
Q 2838 4666 3239 4311 
Q 3641 3956 3641 3272 
Q 3641 2581 3239 2228 
Q 2838 1875 2053 1875 
L 1259 1875 
L 1259 0 
L 628 0 
L 628 4666 
z
" transform="scale(0.015625)"/>
       <path id="DejaVuSans-69" d="M 603 3500 
L 1178 3500 
L 1178 0 
L 603 0 
L 603 3500 
z
M 603 4863 
L 1178 4863 
L 1178 4134 
L 603 4134 
L 603 4863 
z
" transform="scale(0.015625)"/>
       <path id="DejaVuSans-63" d="M 3122 3366 
L 3122 2828 
Q 2878 2963 2633 3030 
Q 2388 3097 2138 3097 
Q 1578 3097 1268 2742 
Q 959 2388 959 1747 
Q 959 1106 1268 751 
Q 1578 397 2138 397 
Q 2388 397 2633 464 
Q 2878 531 3122 666 
L 3122 134 
Q 2881 22 2623 -34 
Q 2366 -91 2075 -91 
Q 1284 -91 818 406 
Q 353 903 353 1747 
Q 353 2603 823 3093 
Q 1294 3584 2113 3584 
Q 2378 3584 2631 3529 
Q 2884 3475 3122 3366 
z
" transform="scale(0.015625)"/>
      </defs>
      <use xlink:href="#DejaVuSans-50"/>
      <use xlink:href="#DejaVuSans-72" x="58.552734"/>
      <use xlink:href="#DejaVuSans-65" x="97.416016"/>
      <use xlink:href="#DejaVuSans-64" x="158.939453"/>
      <use xlink:href="#DejaVuSans-69" x="222.416016"/>
      <use xlink:href="#DejaVuSans-63" x="250.199219"/>
      <use xlink:href="#DejaVuSans-74" x="305.179688"/>
      <use xlink:href="#DejaVuSans-65" x="344.388672"/>
      <use xlink:href="#DejaVuSans-64" x="405.912109"/>
      <use xlink:href="#DejaVuSans-20" x="469.388672"/>
      <use xlink:href="#DejaVuSans-45" x="501.175781"/>
      <use xlink:href="#DejaVuSans-6e" x="564.359375"/>
      <use xlink:href="#DejaVuSans-65" x="627.738281"/>
      <use xlink:href="#DejaVuSans-72" x="689.261719"/>
      <use xlink:href="#DejaVuSans-67" x="728.625"/>
      <use xlink:href="#DejaVuSans-79" x="792.101562"/>
     </g>
    </g>
   </g>
   <g id="line2d_15">
    <path d="M 122.299319 488.069406 
L 615.700681 102.430192 
" clip-path="url(#peffa7e91f6)" style="fill: none; stroke-dasharray: 5.55,2.4; stroke-dashoffset: 0; stroke: #ff0000; stroke-width: 1.5"/>
   </g>
   <g id="patch_3">
    <path d="M 90 512.64 
L 90 69.12 
" style="fill: none; stroke: #000000; stroke-width: 0.8; stroke-linejoin: miter; stroke-linecap: square"/>
   </g>
   <g id="patch_4">
    <path d="M 648 512.64 
L 648 69.12 
" style="fill: none; stroke: #000000; stroke-width: 0.8; stroke-linejoin: miter; stroke-linecap: square"/>
   </g>
   <g id="patch_5">
    <path d="M 90 512.64 
L 648 512.64 
" style="fill: none; stroke: #000000; stroke-width: 0.8; stroke-linejoin: miter; stroke-linecap: square"/>
   </g>
   <g id="patch_6">
    <path d="M 90 69.12 
L 648 69.12 
" style="fill: none; stroke: #000000; stroke-width: 0.8; stroke-linejoin: miter; stroke-linecap: square"/>
   </g>
   <g id="text_17">
    <!-- Energy R2 Score: 0.9982308490093353 -->
    <g transform="translate(145.8 113.472) scale(0.1 -0.1)">
     <defs>
      <path id="DejaVuSans-52" d="M 2841 2188 
Q 3044 2119 3236 1894 
Q 3428 1669 3622 1275 
L 4263 0 
L 3584 0 
L 2988 1197 
Q 2756 1666 2539 1819 
Q 2322 1972 1947 1972 
L 1259 1972 
L 1259 0 
L 628 0 
L 628 4666 
L 2053 4666 
Q 2853 4666 3247 4331 
Q 3641 3997 3641 3322 
Q 3641 2881 3436 2590 
Q 3231 2300 2841 2188 
z
M 1259 4147 
L 1259 2491 
L 2053 2491 
Q 2509 2491 2742 2702 
Q 2975 2913 2975 3322 
Q 2975 3731 2742 3939 
Q 2509 4147 2053 4147 
L 1259 4147 
z
" transform="scale(0.015625)"/>
      <path id="DejaVuSans-53" d="M 3425 4513 
L 3425 3897 
Q 3066 4069 2747 4153 
Q 2428 4238 2131 4238 
Q 1616 4238 1336 4038 
Q 1056 3838 1056 3469 
Q 1056 3159 1242 3001 
Q 1428 2844 1947 2747 
L 2328 2669 
Q 3034 2534 3370 2195 
Q 3706 1856 3706 1288 
Q 3706 609 3251 259 
Q 2797 -91 1919 -91 
Q 1588 -91 1214 -16 
Q 841 59 441 206 
L 441 856 
Q 825 641 1194 531 
Q 1563 422 1919 422 
Q 2459 422 2753 634 
Q 3047 847 3047 1241 
Q 3047 1584 2836 1778 
Q 2625 1972 2144 2069 
L 1759 2144 
Q 1053 2284 737 2584 
Q 422 2884 422 3419 
Q 422 4038 858 4394 
Q 1294 4750 2059 4750 
Q 2388 4750 2728 4690 
Q 3069 4631 3425 4513 
z
" transform="scale(0.015625)"/>
      <path id="DejaVuSans-3a" d="M 750 794 
L 1409 794 
L 1409 0 
L 750 0 
L 750 794 
z
M 750 3309 
L 1409 3309 
L 1409 2516 
L 750 2516 
L 750 3309 
z
" transform="scale(0.015625)"/>
      <path id="DejaVuSans-2e" d="M 684 794 
L 1344 794 
L 1344 0 
L 684 0 
L 684 794 
z
" transform="scale(0.015625)"/>
      <path id="DejaVuSans-39" d="M 703 97 
L 703 672 
Q 941 559 1184 500 
Q 1428 441 1663 441 
Q 2288 441 2617 861 
Q 2947 1281 2994 2138 
Q 2813 1869 2534 1725 
Q 2256 1581 1919 1581 
Q 1219 1581 811 2004 
Q 403 2428 403 3163 
Q 403 3881 828 4315 
Q 1253 4750 1959 4750 
Q 2769 4750 3195 4129 
Q 3622 3509 3622 2328 
Q 3622 1225 3098 567 
Q 2575 -91 1691 -91 
Q 1453 -91 1209 -44 
Q 966 3 703 97 
z
M 1959 2075 
Q 2384 2075 2632 2365 
Q 2881 2656 2881 3163 
Q 2881 3666 2632 3958 
Q 2384 4250 1959 4250 
Q 1534 4250 1286 3958 
Q 1038 3666 1038 3163 
Q 1038 2656 1286 2365 
Q 1534 2075 1959 2075 
z
" transform="scale(0.015625)"/>
      <path id="DejaVuSans-38" d="M 2034 2216 
Q 1584 2216 1326 1975 
Q 1069 1734 1069 1313 
Q 1069 891 1326 650 
Q 1584 409 2034 409 
Q 2484 409 2743 651 
Q 3003 894 3003 1313 
Q 3003 1734 2745 1975 
Q 2488 2216 2034 2216 
z
M 1403 2484 
Q 997 2584 770 2862 
Q 544 3141 544 3541 
Q 544 4100 942 4425 
Q 1341 4750 2034 4750 
Q 2731 4750 3128 4425 
Q 3525 4100 3525 3541 
Q 3525 3141 3298 2862 
Q 3072 2584 2669 2484 
Q 3125 2378 3379 2068 
Q 3634 1759 3634 1313 
Q 3634 634 3220 271 
Q 2806 -91 2034 -91 
Q 1263 -91 848 271 
Q 434 634 434 1313 
Q 434 1759 690 2068 
Q 947 2378 1403 2484 
z
M 1172 3481 
Q 1172 3119 1398 2916 
Q 1625 2713 2034 2713 
Q 2441 2713 2670 2916 
Q 2900 3119 2900 3481 
Q 2900 3844 2670 4047 
Q 2441 4250 2034 4250 
Q 1625 4250 1398 4047 
Q 1172 3844 1172 3481 
z
" transform="scale(0.015625)"/>
     </defs>
     <use xlink:href="#DejaVuSans-45"/>
     <use xlink:href="#DejaVuSans-6e" x="63.183594"/>
     <use xlink:href="#DejaVuSans-65" x="126.5625"/>
     <use xlink:href="#DejaVuSans-72" x="188.085938"/>
     <use xlink:href="#DejaVuSans-67" x="227.449219"/>
     <use xlink:href="#DejaVuSans-79" x="290.925781"/>
     <use xlink:href="#DejaVuSans-20" x="350.105469"/>
     <use xlink:href="#DejaVuSans-52" x="381.892578"/>
     <use xlink:href="#DejaVuSans-32" x="451.375"/>
     <use xlink:href="#DejaVuSans-20" x="514.998047"/>
     <use xlink:href="#DejaVuSans-53" x="546.785156"/>
     <use xlink:href="#DejaVuSans-63" x="610.261719"/>
     <use xlink:href="#DejaVuSans-6f" x="665.242188"/>
     <use xlink:href="#DejaVuSans-72" x="726.423828"/>
     <use xlink:href="#DejaVuSans-65" x="765.287109"/>
     <use xlink:href="#DejaVuSans-3a" x="826.810547"/>
     <use xlink:href="#DejaVuSans-20" x="860.501953"/>
     <use xlink:href="#DejaVuSans-30" x="892.289062"/>
     <use xlink:href="#DejaVuSans-2e" x="955.912109"/>
     <use xlink:href="#DejaVuSans-39" x="987.699219"/>
     <use xlink:href="#DejaVuSans-39" x="1051.322266"/>
     <use xlink:href="#DejaVuSans-38" x="1114.945312"/>
     <use xlink:href="#DejaVuSans-32" x="1178.568359"/>
     <use xlink:href="#DejaVuSans-33" x="1242.191406"/>
     <use xlink:href="#DejaVuSans-30" x="1305.814453"/>
     <use xlink:href="#DejaVuSans-38" x="1369.4375"/>
     <use xlink:href="#DejaVuSans-34" x="1433.060547"/>
     <use xlink:href="#DejaVuSans-39" x="1496.683594"/>
     <use xlink:href="#DejaVuSans-30" x="1560.306641"/>
     <use xlink:href="#DejaVuSans-30" x="1623.929688"/>
     <use xlink:href="#DejaVuSans-39" x="1687.552734"/>
     <use xlink:href="#DejaVuSans-33" x="1751.175781"/>
     <use xlink:href="#DejaVuSans-33" x="1814.798828"/>
     <use xlink:href="#DejaVuSans-35" x="1878.421875"/>
     <use xlink:href="#DejaVuSans-33" x="1942.044922"/>
    </g>
   </g>
   <g id="text_18">
    <!-- MVE In Distribution -->
    <g transform="translate(311.53875 63.12) scale(0.12 -0.12)">
     <defs>
      <path id="DejaVuSans-4d" d="M 628 4666 
L 1569 4666 
L 2759 1491 
L 3956 4666 
L 4897 4666 
L 4897 0 
L 4281 0 
L 4281 4097 
L 3078 897 
L 2444 897 
L 1241 4097 
L 1241 0 
L 628 0 
L 628 4666 
z
" transform="scale(0.015625)"/>
      <path id="DejaVuSans-56" d="M 1831 0 
L 50 4666 
L 709 4666 
L 2188 738 
L 3669 4666 
L 4325 4666 
L 2547 0 
L 1831 0 
z
" transform="scale(0.015625)"/>
      <path id="DejaVuSans-49" d="M 628 4666 
L 1259 4666 
L 1259 0 
L 628 0 
L 628 4666 
z
" transform="scale(0.015625)"/>
      <path id="DejaVuSans-44" d="M 1259 4147 
L 1259 519 
L 2022 519 
Q 2988 519 3436 956 
Q 3884 1394 3884 2338 
Q 3884 3275 3436 3711 
Q 2988 4147 2022 4147 
L 1259 4147 
z
M 628 4666 
L 1925 4666 
Q 3281 4666 3915 4102 
Q 4550 3538 4550 2338 
Q 4550 1131 3912 565 
Q 3275 0 1925 0 
L 628 0 
L 628 4666 
z
" transform="scale(0.015625)"/>
      <path id="DejaVuSans-73" d="M 2834 3397 
L 2834 2853 
Q 2591 2978 2328 3040 
Q 2066 3103 1784 3103 
Q 1356 3103 1142 2972 
Q 928 2841 928 2578 
Q 928 2378 1081 2264 
Q 1234 2150 1697 2047 
L 1894 2003 
Q 2506 1872 2764 1633 
Q 3022 1394 3022 966 
Q 3022 478 2636 193 
Q 2250 -91 1575 -91 
Q 1294 -91 989 -36 
Q 684 19 347 128 
L 347 722 
Q 666 556 975 473 
Q 1284 391 1588 391 
Q 1994 391 2212 530 
Q 2431 669 2431 922 
Q 2431 1156 2273 1281 
Q 2116 1406 1581 1522 
L 1381 1569 
Q 847 1681 609 1914 
Q 372 2147 372 2553 
Q 372 3047 722 3315 
Q 1072 3584 1716 3584 
Q 2034 3584 2315 3537 
Q 2597 3491 2834 3397 
z
" transform="scale(0.015625)"/>
      <path id="DejaVuSans-62" d="M 3116 1747 
Q 3116 2381 2855 2742 
Q 2594 3103 2138 3103 
Q 1681 3103 1420 2742 
Q 1159 2381 1159 1747 
Q 1159 1113 1420 752 
Q 1681 391 2138 391 
Q 2594 391 2855 752 
Q 3116 1113 3116 1747 
z
M 1159 2969 
Q 1341 3281 1617 3432 
Q 1894 3584 2278 3584 
Q 2916 3584 3314 3078 
Q 3713 2572 3713 1747 
Q 3713 922 3314 415 
Q 2916 -91 2278 -91 
Q 1894 -91 1617 61 
Q 1341 213 1159 525 
L 1159 0 
L 581 0 
L 581 4863 
L 1159 4863 
L 1159 2969 
z
" transform="scale(0.015625)"/>
     </defs>
     <use xlink:href="#DejaVuSans-4d"/>
     <use xlink:href="#DejaVuSans-56" x="86.279297"/>
     <use xlink:href="#DejaVuSans-45" x="154.6875"/>
     <use xlink:href="#DejaVuSans-20" x="217.871094"/>
     <use xlink:href="#DejaVuSans-49" x="249.658203"/>
     <use xlink:href="#DejaVuSans-6e" x="279.150391"/>
     <use xlink:href="#DejaVuSans-20" x="342.529297"/>
     <use xlink:href="#DejaVuSans-44" x="374.316406"/>
     <use xlink:href="#DejaVuSans-69" x="451.318359"/>
     <use xlink:href="#DejaVuSans-73" x="479.101562"/>
     <use xlink:href="#DejaVuSans-74" x="531.201172"/>
     <use xlink:href="#DejaVuSans-72" x="570.410156"/>
     <use xlink:href="#DejaVuSans-69" x="611.523438"/>
     <use xlink:href="#DejaVuSans-62" x="639.306641"/>
     <use xlink:href="#DejaVuSans-75" x="702.783203"/>
     <use xlink:href="#DejaVuSans-74" x="766.162109"/>
     <use xlink:href="#DejaVuSans-69" x="805.371094"/>
     <use xlink:href="#DejaVuSans-6f" x="833.154297"/>
     <use xlink:href="#DejaVuSans-6e" x="894.335938"/>
    </g>
   </g>
  </g>
 </g>
 <defs>
  <clipPath id="peffa7e91f6">
   <rect x="90" y="69.12" width="558" height="443.52"/>
  </clipPath>
 </defs>
</svg>
