<?xml version="1.0" encoding="utf-8" standalone="no"?>
<!DOCTYPE svg PUBLIC "-//W3C//DTD SVG 1.1//EN"
  "http://www.w3.org/Graphics/SVG/1.1/DTD/svg11.dtd">
<svg xmlns:xlink="http://www.w3.org/1999/xlink" width="720pt" height="576pt" viewBox="0 0 720 576" xmlns="http://www.w3.org/2000/svg" version="1.1">
 <metadata>
  <rdf:RDF xmlns:dc="http://purl.org/dc/elements/1.1/" xmlns:cc="http://creativecommons.org/ns#" xmlns:rdf="http://www.w3.org/1999/02/22-rdf-syntax-ns#">
   <cc:Work>
    <dc:type rdf:resource="http://purl.org/dc/dcmitype/StillImage"/>
    <dc:date>2024-11-28T21:00:28.438479</dc:date>
    <dc:format>image/svg+xml</dc:format>
    <dc:creator>
     <cc:Agent>
      <dc:title>Matplotlib v3.8.4, https://matplotlib.org/</dc:title>
     </cc:Agent>
    </dc:creator>
   </cc:Work>
  </rdf:RDF>
 </metadata>
 <defs>
  <style type="text/css">*{stroke-linejoin: round; stroke-linecap: butt}</style>
 </defs>
 <g id="figure_1">
  <g id="patch_1">
   <path d="M 0 576 
L 720 576 
L 720 0 
L 0 0 
z
" style="fill: #ffffff"/>
  </g>
  <g id="axes_1">
   <g id="patch_2">
    <path d="M 90 512.64 
L 648 512.64 
L 648 69.12 
L 90 69.12 
z
" style="fill: #ffffff"/>
   </g>
   <g id="QuadContourSet_1">
    <path d="M 112.432161 495.5711 
L 113.390057 494.81005 
L 112.432161 494.041878 
L 111.469496 494.81005 
z
M 115.236181 493.854458 
L 116.838757 492.581307 
L 118.040201 491.940934 
L 120.039717 490.352563 
L 120.844221 489.911277 
L 123.094536 488.123819 
L 123.648241 487.811378 
L 126.060954 485.895075 
L 126.452261 485.667978 
L 128.972615 483.666332 
L 129.256281 483.497028 
L 131.849585 481.437588 
L 132.060302 481.308255 
L 134.704102 479.208844 
L 134.864322 479.107717 
L 137.543789 476.980101 
L 137.668342 476.899262 
L 140.373483 474.751357 
L 140.472362 474.685375 
L 143.196312 472.522613 
L 143.276382 472.46769 
L 146.014325 470.293869 
L 146.080402 470.247295 
L 148.828882 468.065126 
L 148.884422 468.024917 
L 151.640885 465.836382 
L 151.688442 465.801037 
L 154.450921 463.607638 
L 154.492462 463.575964 
L 157.259356 461.378894 
L 157.296482 461.349872 
L 160.066389 459.150151 
L 160.100503 459.122832 
L 162.872093 456.921407 
L 162.904523 456.894823 
L 165.676439 454.692663 
L 165.708543 454.665746 
L 168.479317 452.46392 
L 168.512563 452.435431 
L 171.280558 450.235176 
L 171.316583 450.203651 
L 174.079947 448.006432 
L 174.120603 447.970122 
L 176.877224 445.777688 
L 176.924623 445.734508 
L 179.672075 443.548945 
L 179.728643 443.496399 
L 182.464083 441.320201 
L 182.532663 441.255264 
L 185.252631 439.091457 
L 185.336683 439.010346 
L 188.036731 436.862714 
L 188.140704 436.760478 
L 190.814742 434.63397 
L 190.944724 434.503789 
L 193.583951 432.405226 
L 193.748744 432.237231 
L 196.339962 430.176482 
L 196.552764 429.955912 
L 199.075893 427.947739 
L 199.356784 427.652194 
L 201.781405 425.718995 
L 202.160804 425.314614 
L 204.441728 423.490251 
L 204.964824 422.926768 
L 207.036885 421.261508 
L 207.768844 420.46629 
L 209.541148 419.032764 
L 210.572864 417.903688 
L 211.922037 416.80402 
L 210.572864 415.789277 
L 209.264214 416.80402 
L 207.768844 417.68026 
L 206.025791 419.032764 
L 204.964824 419.655333 
L 202.898245 421.261508 
L 202.160804 421.695556 
L 199.857193 423.490251 
L 199.356784 423.786589 
L 196.88347 425.718995 
L 196.552764 425.916748 
L 193.961044 427.947739 
L 193.748744 428.076365 
L 191.076549 430.176482 
L 190.944724 430.25763 
L 188.219266 432.405226 
L 188.140704 432.454456 
L 185.380992 434.63397 
L 185.336683 434.662268 
L 182.555707 436.862714 
L 182.532663 436.877722 
L 179.739135 439.091457 
L 179.728643 439.098428 
L 176.928316 441.320201 
L 176.924623 441.322704 
L 174.121243 443.548945 
L 174.120603 443.549388 
L 171.316583 445.777688 
L 171.316583 445.777688 
L 168.513469 448.006432 
L 168.512563 448.007086 
L 165.711359 450.235176 
L 165.708543 450.23725 
L 162.90993 452.46392 
L 162.904523 452.467992 
L 160.109018 454.692663 
L 160.100503 454.699224 
L 157.308569 456.921407 
L 157.296482 456.930941 
L 154.50862 459.150151 
L 154.492462 459.163211 
L 151.709291 461.378894 
L 151.688442 461.396174 
L 148.910792 463.607638 
L 148.884422 463.630065 
L 146.113442 465.836382 
L 146.080402 465.865233 
L 143.317711 468.065126 
L 143.276382 468.1022 
L 140.524277 470.293869 
L 140.472362 470.341733 
L 137.734123 472.522613 
L 137.668342 472.584967 
L 134.948691 474.751357 
L 134.864322 474.8336 
L 132.170112 476.980101 
L 132.060302 477.090199 
L 129.4016 479.208844 
L 129.256281 479.358714 
L 126.648087 481.437588 
L 126.452261 481.645331 
L 123.917291 483.666332 
L 123.648241 483.959934 
L 121.221555 485.895075 
L 120.844221 486.318675 
L 118.581066 488.123819 
L 118.040201 488.748558 
L 116.029609 490.352563 
L 115.236181 491.295852 
L 113.625122 492.581307 
z
M 131.68101 479.208844 
L 132.060302 478.906598 
L 132.437467 479.208844 
L 132.060302 479.508347 
z
M 133.981751 476.980101 
L 134.864322 476.276949 
L 135.742063 476.980101 
L 134.864322 477.677066 
z
M 136.429347 474.751357 
L 137.668342 473.764412 
L 138.900726 474.751357 
L 137.668342 475.729881 
z
M 138.978401 472.522613 
L 140.472362 471.332743 
L 141.599175 470.293869 
L 143.276382 468.958207 
L 144.271964 468.065126 
L 146.080402 466.625092 
L 146.983644 465.836382 
L 148.884422 464.322939 
L 149.725507 463.607638 
L 151.688442 462.044821 
L 152.491912 461.378894 
L 154.492462 459.786256 
L 155.279445 459.150151 
L 157.296482 457.544538 
L 158.086409 456.921407 
L 160.100503 455.318331 
L 160.912567 454.692663 
L 162.904523 453.107459 
L 163.759058 452.46392 
L 165.708543 450.912844 
L 166.628494 450.235176 
L 168.512563 448.736579 
L 169.525233 448.006432 
L 171.316583 446.582137 
L 172.455869 445.777688 
L 174.120603 444.454757 
L 175.430017 443.548945 
L 176.924623 442.362037 
L 178.389412 443.548945 
L 176.924623 444.714165 
L 175.757196 445.777688 
L 174.120603 447.079326 
L 173.082531 448.006432 
L 171.316583 449.410581 
L 170.374296 450.235176 
L 168.512563 451.715051 
L 167.638636 452.46392 
L 165.708543 453.997689 
L 164.87967 454.692663 
L 162.904523 456.261827 
L 162.099921 456.921407 
L 160.100503 458.509509 
L 159.300529 459.150151 
L 157.296482 460.741664 
L 156.481312 461.378894 
L 154.492462 462.958153 
L 153.640656 463.607638 
L 151.688442 465.15769 
L 150.775242 465.836382 
L 148.884422 467.337627 
L 147.879538 468.065126 
L 146.080402 469.493558 
L 144.944958 470.293869 
L 143.276382 471.618654 
L 141.958526 472.522613 
L 140.472362 473.702598 
z
M 178.461469 441.320201 
L 179.728643 440.314829 
L 180.966455 441.320201 
L 179.728643 442.304951 
z
M 181.56989 439.091457 
L 182.532663 438.328506 
L 183.470085 439.091457 
L 182.532663 439.837201 
z
M 184.78318 436.862714 
L 185.336683 436.424755 
L 185.874079 436.862714 
L 185.336683 437.290161 
z
M 213.376884 415.199962 
L 214.137087 414.575276 
L 213.376884 414.010177 
L 212.648352 414.575276 
z
" clip-path="url(#pacdb1c543d)" style="fill: #dce9f6"/>
    <path d="M 132.060302 479.508347 
L 132.437467 479.208844 
L 132.060302 478.906598 
L 131.68101 479.208844 
z
M 134.864322 477.677066 
L 135.742063 476.980101 
L 134.864322 476.276949 
L 133.981751 476.980101 
z
M 137.668342 475.729881 
L 138.900726 474.751357 
L 137.668342 473.764412 
L 136.429347 474.751357 
z
M 137.653131 474.751357 
L 137.668342 474.73924 
L 137.683471 474.751357 
L 137.668342 474.76337 
z
M 140.472362 473.702598 
L 141.958526 472.522613 
L 143.276382 471.618654 
L 144.944958 470.293869 
L 146.080402 469.493558 
L 147.879538 468.065126 
L 148.884422 467.337627 
L 150.775242 465.836382 
L 151.688442 465.15769 
L 153.640656 463.607638 
L 154.492462 462.958153 
L 156.481312 461.378894 
L 157.296482 460.741664 
L 159.300529 459.150151 
L 160.100503 458.509509 
L 162.099921 456.921407 
L 162.904523 456.261827 
L 164.87967 454.692663 
L 165.708543 453.997689 
L 167.638636 452.46392 
L 168.512563 451.715051 
L 170.374296 450.235176 
L 171.316583 449.410581 
L 173.082531 448.006432 
L 174.120603 447.079326 
L 175.757196 445.777688 
L 176.924623 444.714165 
L 178.389412 443.548945 
L 176.924623 442.362037 
L 175.430017 443.548945 
L 174.120603 444.454757 
L 172.455869 445.777688 
L 171.316583 446.582137 
L 169.525233 448.006432 
L 168.512563 448.736579 
L 166.628494 450.235176 
L 165.708543 450.912844 
L 163.759058 452.46392 
L 162.904523 453.107459 
L 160.912567 454.692663 
L 160.100503 455.318331 
L 158.086409 456.921407 
L 157.296482 457.544538 
L 155.279445 459.150151 
L 154.492462 459.786256 
L 152.491912 461.378894 
L 151.688442 462.044821 
L 149.725507 463.607638 
L 148.884422 464.322939 
L 146.983644 465.836382 
L 146.080402 466.625092 
L 144.271964 468.065126 
L 143.276382 468.958207 
L 141.599175 470.293869 
L 140.472362 471.332743 
L 138.978401 472.522613 
z
M 140.006815 472.522613 
L 140.472362 472.151827 
L 140.935479 472.522613 
L 140.472362 472.890319 
z
M 142.487594 470.293869 
L 143.276382 469.665709 
L 144.061111 470.293869 
L 143.276382 470.916914 
z
M 145.060669 468.065126 
L 146.080402 467.253126 
L 147.09489 468.065126 
L 146.080402 468.870584 
z
M 147.702878 465.836382 
L 148.884422 464.89561 
L 150.059776 465.836382 
L 148.884422 466.769572 
z
M 150.39888 463.607638 
L 151.688442 462.580936 
L 152.97096 463.607638 
L 151.688442 464.625953 
z
M 153.13876 461.378894 
L 154.492462 460.301212 
L 155.838247 461.378894 
L 154.492462 462.447523 
z
M 155.916543 459.150151 
L 157.296482 458.051684 
L 158.667534 459.150151 
L 157.296482 460.238971 
z
M 158.729306 456.921407 
L 160.100503 455.830031 
L 161.461709 456.921407 
L 160.100503 458.002589 
z
M 161.576712 454.692663 
L 162.904523 453.635987 
L 164.22113 454.692663 
L 162.904523 455.738647 
z
M 164.460874 452.46392 
L 165.708543 451.471233 
L 166.943801 452.46392 
L 165.708543 453.445531 
z
M 167.386519 450.235176 
L 168.512563 449.339516 
L 169.625257 450.235176 
L 168.512563 451.119647 
z
M 170.361469 448.006432 
L 171.316583 447.247026 
L 172.258152 448.006432 
L 171.316583 448.755097 
z
M 173.397506 445.777688 
L 174.120603 445.203057 
L 174.831477 445.777688 
L 174.120603 446.34307 
z
M 176.511737 443.548945 
L 176.924623 443.221061 
L 177.329272 443.548945 
L 176.924623 443.870838 
z
M 179.728643 442.304951 
L 180.966455 441.320201 
L 179.728643 440.314829 
L 178.461469 441.320201 
z
M 182.532663 439.837201 
L 183.470085 439.091457 
L 182.532663 438.328506 
L 181.56989 439.091457 
z
M 185.336683 437.290161 
L 185.874079 436.862714 
L 185.336683 436.424755 
L 184.78318 436.862714 
z
" clip-path="url(#pacdb1c543d)" style="fill: #97c6df"/>
    <path d="M 137.668342 474.76337 
L 137.683471 474.751357 
L 137.668342 474.73924 
L 137.653131 474.751357 
z
M 140.472362 472.890319 
L 140.935479 472.522613 
L 140.472362 472.151827 
L 140.006815 472.522613 
z
M 143.276382 470.916914 
L 144.061111 470.293869 
L 143.276382 469.665709 
L 142.487594 470.293869 
z
M 142.889767 470.293869 
L 143.276382 469.985984 
L 143.661007 470.293869 
L 143.276382 470.599247 
z
M 146.080402 468.870584 
L 147.09489 468.065126 
L 146.080402 467.253126 
L 145.060669 468.065126 
z
M 145.417702 468.065126 
L 146.080402 467.537427 
L 146.739693 468.065126 
L 146.080402 468.588573 
z
M 148.884422 466.769572 
L 150.059776 465.836382 
L 148.884422 464.89561 
L 147.702878 465.836382 
z
M 148.028464 465.836382 
L 148.884422 465.154849 
L 149.735896 465.836382 
L 148.884422 466.512422 
z
M 151.688442 464.625953 
L 152.97096 463.607638 
L 151.688442 462.580936 
L 150.39888 463.607638 
z
M 150.703706 463.607638 
L 151.688442 462.823627 
L 152.6678 463.607638 
L 151.688442 464.385245 
z
M 154.492462 462.447523 
L 155.838247 461.378894 
L 154.492462 460.301212 
L 153.13876 461.378894 
z
M 153.431578 461.378894 
L 154.492462 460.534324 
L 155.547142 461.378894 
L 154.492462 462.21637 
z
M 157.296482 460.238971 
L 158.667534 459.150151 
L 157.296482 458.051684 
L 155.916543 459.150151 
z
M 156.204947 459.150151 
L 157.296482 458.281261 
L 158.380988 459.150151 
L 157.296482 460.011411 
z
M 160.100503 458.002589 
L 161.461709 456.921407 
L 160.100503 455.830031 
L 158.729306 456.921407 
z
M 159.020335 456.921407 
L 160.100503 456.061669 
L 161.1728 456.921407 
L 160.100503 457.773114 
z
M 162.904523 455.738647 
L 164.22113 454.692663 
L 162.904523 453.635987 
L 161.576712 454.692663 
z
M 161.877359 454.692663 
L 162.904523 453.875244 
L 163.923019 454.692663 
L 162.904523 455.501812 
z
M 165.708543 453.445531 
L 166.943801 452.46392 
L 165.708543 451.471233 
L 164.460874 452.46392 
z
M 164.778575 452.46392 
L 165.708543 451.724006 
L 166.62926 452.46392 
L 165.708543 453.195578 
z
M 168.512563 451.119647 
L 169.625257 450.235176 
L 168.512563 449.339516 
L 167.386519 450.235176 
z
M 167.729665 450.235176 
L 168.512563 449.612456 
L 169.286179 450.235176 
L 168.512563 450.850117 
z
M 171.316583 448.755097 
L 172.258152 448.006432 
L 171.316583 447.247026 
L 170.361469 448.006432 
z
M 170.740021 448.006432 
L 171.316583 447.54801 
L 171.884969 448.006432 
L 171.316583 448.45837 
z
M 174.120603 446.34307 
L 174.831477 445.777688 
L 174.120603 445.203057 
L 173.397506 445.777688 
z
M 173.82377 445.777688 
L 174.120603 445.541801 
L 174.412418 445.777688 
L 174.120603 446.009779 
z
M 176.924623 443.870838 
L 177.329272 443.548945 
L 176.924623 443.221061 
L 176.511737 443.548945 
z
" clip-path="url(#pacdb1c543d)" style="fill: #58a1cf"/>
    <path d="M 143.276382 470.599247 
L 143.661007 470.293869 
L 143.276382 469.985984 
L 142.889767 470.293869 
z
M 146.080402 468.588573 
L 146.739693 468.065126 
L 146.080402 467.537427 
L 145.417702 468.065126 
z
M 145.961492 468.065126 
L 146.080402 467.970439 
L 146.1987 468.065126 
L 146.080402 468.159049 
z
M 148.884422 466.512422 
L 149.735896 465.836382 
L 148.884422 465.154849 
L 148.028464 465.836382 
z
M 148.524356 465.836382 
L 148.884422 465.549689 
L 149.242602 465.836382 
L 148.884422 466.120764 
z
M 151.688442 464.385245 
L 152.6678 463.607638 
L 151.688442 462.823627 
L 150.703706 463.607638 
z
M 151.167978 463.607638 
L 151.688442 463.193264 
L 152.206063 463.607638 
L 151.688442 464.018628 
z
M 154.492462 462.21637 
L 155.547142 461.378894 
L 154.492462 460.534324 
L 153.431578 461.378894 
z
M 153.877561 461.378894 
L 154.492462 460.889372 
L 155.103767 461.378894 
L 154.492462 461.864305 
z
M 157.296482 460.011411 
L 158.380988 459.150151 
L 157.296482 458.281261 
L 156.204947 459.150151 
z
M 156.644208 459.150151 
L 157.296482 458.630924 
L 157.944555 459.150151 
L 157.296482 459.664818 
z
M 160.100503 457.773114 
L 161.1728 456.921407 
L 160.100503 456.061669 
L 159.020335 456.921407 
z
M 159.463594 456.921407 
L 160.100503 456.414473 
L 160.732771 456.921407 
L 160.100503 457.423606 
z
M 162.904523 455.501812 
L 163.923019 454.692663 
L 162.904523 453.875244 
L 161.877359 454.692663 
z
M 162.335269 454.692663 
L 162.904523 454.239649 
L 163.468973 454.692663 
L 162.904523 455.141093 
z
M 165.708543 453.195578 
L 166.62926 452.46392 
L 165.708543 451.724006 
L 164.778575 452.46392 
z
M 165.262458 452.46392 
L 165.708543 452.109 
L 166.15019 452.46392 
L 165.708543 452.81488 
z
M 168.512563 450.850117 
L 169.286179 450.235176 
L 168.512563 449.612456 
L 167.729665 450.235176 
z
M 168.252303 450.235176 
L 168.512563 450.028164 
L 168.769737 450.235176 
L 168.512563 450.439602 
z
M 171.316583 448.45837 
L 171.884969 448.006432 
L 171.316583 447.54801 
L 170.740021 448.006432 
z
M 174.120603 446.009779 
L 174.412418 445.777688 
L 174.120603 445.541801 
L 173.82377 445.777688 
z
" clip-path="url(#pacdb1c543d)" style="fill: #3282be"/>
    <path d="M 146.080402 468.159049 
L 146.1987 468.065126 
L 146.080402 467.970439 
L 145.961492 468.065126 
z
M 148.884422 466.120764 
L 149.242602 465.836382 
L 148.884422 465.549689 
L 148.524356 465.836382 
z
M 148.771298 465.836382 
L 148.884422 465.74631 
L 148.996954 465.836382 
L 148.884422 465.925728 
z
M 151.688442 464.018628 
L 152.206063 463.607638 
L 151.688442 463.193264 
L 151.167978 463.607638 
z
M 151.399174 463.607638 
L 151.688442 463.377333 
L 151.976131 463.607638 
L 151.688442 463.836062 
z
M 154.492462 461.864305 
L 155.103767 461.378894 
L 154.492462 460.889372 
L 153.877561 461.378894 
z
M 154.09965 461.378894 
L 154.492462 461.066176 
L 154.882978 461.378894 
L 154.492462 461.688986 
z
M 157.296482 459.664818 
L 157.944555 459.150151 
L 157.296482 458.630924 
L 156.644208 459.150151 
z
M 156.862949 459.150151 
L 157.296482 458.805047 
L 157.727224 459.150151 
L 157.296482 459.492224 
z
M 160.100503 457.423606 
L 160.732771 456.921407 
L 160.100503 456.414473 
L 159.463594 456.921407 
z
M 159.684325 456.921407 
L 160.100503 456.590159 
L 160.513647 456.921407 
L 160.100503 457.24956 
z
M 162.904523 455.141093 
L 163.468973 454.692663 
L 162.904523 454.239649 
L 162.335269 454.692663 
z
M 162.563296 454.692663 
L 162.904523 454.421114 
L 163.24287 454.692663 
L 162.904523 454.961465 
z
M 165.708543 452.81488 
L 166.15019 452.46392 
L 165.708543 452.109 
L 165.262458 452.46392 
z
M 165.503419 452.46392 
L 165.708543 452.300716 
L 165.911626 452.46392 
L 165.708543 452.625302 
z
M 168.512563 450.439602 
L 168.769737 450.235176 
L 168.512563 450.028164 
L 168.252303 450.235176 
z
" clip-path="url(#pacdb1c543d)" style="fill: #1562a9"/>
    <path d="M 148.884422 465.925728 
L 148.996954 465.836382 
L 148.884422 465.74631 
L 148.771298 465.836382 
z
M 151.688442 463.836062 
L 151.976131 463.607638 
L 151.688442 463.377333 
L 151.399174 463.607638 
z
M 151.595985 463.607638 
L 151.688442 463.534027 
L 151.780395 463.607638 
L 151.688442 463.680648 
z
M 154.492462 461.688986 
L 154.882978 461.378894 
L 154.492462 461.066176 
L 154.09965 461.378894 
z
M 154.288708 461.378894 
L 154.492462 461.216685 
L 154.695025 461.378894 
L 154.492462 461.539741 
z
M 157.296482 459.492224 
L 157.727224 459.150151 
L 157.296482 458.805047 
L 156.862949 459.150151 
z
M 157.049157 459.150151 
L 157.296482 458.953274 
L 157.542214 459.150151 
L 157.296482 459.345299 
z
M 160.100503 457.24956 
L 160.513647 456.921407 
L 160.100503 456.590159 
L 159.684325 456.921407 
z
M 159.872229 456.921407 
L 160.100503 456.739717 
L 160.327113 456.921407 
L 160.100503 457.1014 
z
M 162.904523 454.961465 
L 163.24287 454.692663 
L 162.904523 454.421114 
L 162.563296 454.692663 
z
M 162.757409 454.692663 
L 162.904523 454.57559 
L 163.050395 454.692663 
L 162.904523 454.808552 
z
M 165.708543 452.625302 
L 165.911626 452.46392 
L 165.708543 452.300716 
L 165.503419 452.46392 
z
" clip-path="url(#pacdb1c543d)" style="fill: #08509b"/>
    <path d="M 151.688442 463.680648 
L 151.780395 463.607638 
L 151.688442 463.534027 
L 151.595985 463.607638 
z
M 154.492462 461.539741 
L 154.695025 461.378894 
L 154.492462 461.216685 
L 154.288708 461.378894 
z
M 154.43199 461.378894 
L 154.492462 461.330752 
L 154.552581 461.378894 
L 154.492462 461.426632 
z
M 157.296482 459.345299 
L 157.542214 459.150151 
L 157.296482 458.953274 
L 157.049157 459.150151 
z
M 157.19028 459.150151 
L 157.296482 459.065611 
L 157.402001 459.150151 
L 157.296482 459.233948 
z
M 160.100503 457.1014 
L 160.327113 456.921407 
L 160.100503 456.739717 
L 159.872229 456.921407 
z
M 160.014635 456.921407 
L 160.100503 456.853063 
L 160.185744 456.921407 
L 160.100503 456.989113 
z
M 162.904523 454.808552 
L 163.050395 454.692663 
L 162.904523 454.57559 
L 162.757409 454.692663 
z
" clip-path="url(#pacdb1c543d)" style="fill: #084184"/>
    <path d="M 154.492462 461.426632 
L 154.552581 461.378894 
L 154.492462 461.330752 
L 154.43199 461.378894 
z
M 157.296482 459.233948 
L 157.402001 459.150151 
L 157.296482 459.065611 
L 157.19028 459.150151 
z
M 157.275373 459.150151 
L 157.296482 459.133347 
L 157.317456 459.150151 
L 157.296482 459.166807 
z
M 160.100503 456.989113 
L 160.185744 456.921407 
L 160.100503 456.853063 
L 160.014635 456.921407 
z
" clip-path="url(#pacdb1c543d)" style="fill: #083573"/>
    <path d="M 157.296482 459.166807 
L 157.317456 459.150151 
L 157.296482 459.133347 
L 157.275373 459.150151 
z
" clip-path="url(#pacdb1c543d)" style="fill: #08306b"/>
   </g>
   <g id="matplotlib.axis_1">
    <g id="xtick_1">
     <g id="line2d_1">
      <defs>
       <path id="m553f4fc6af" d="M 0 0 
L 0 3.5 
" style="stroke: #000000; stroke-width: 0.8"/>
      </defs>
      <g>
       <use xlink:href="#m553f4fc6af" x="159.150455" y="512.64" style="stroke: #000000; stroke-width: 0.8"/>
      </g>
     </g>
     <g id="text_1">
      <!-- 0 -->
      <g transform="translate(155.969205 527.238438) scale(0.1 -0.1)">
       <defs>
        <path id="DejaVuSans-30" d="M 2034 4250 
Q 1547 4250 1301 3770 
Q 1056 3291 1056 2328 
Q 1056 1369 1301 889 
Q 1547 409 2034 409 
Q 2525 409 2770 889 
Q 3016 1369 3016 2328 
Q 3016 3291 2770 3770 
Q 2525 4250 2034 4250 
z
M 2034 4750 
Q 2819 4750 3233 4129 
Q 3647 3509 3647 2328 
Q 3647 1150 3233 529 
Q 2819 -91 2034 -91 
Q 1250 -91 836 529 
Q 422 1150 422 2328 
Q 422 3509 836 4129 
Q 1250 4750 2034 4750 
z
" transform="scale(0.015625)"/>
       </defs>
       <use xlink:href="#DejaVuSans-30"/>
      </g>
     </g>
    </g>
    <g id="xtick_2">
     <g id="line2d_2">
      <g>
       <use xlink:href="#m553f4fc6af" x="239.104509" y="512.64" style="stroke: #000000; stroke-width: 0.8"/>
      </g>
     </g>
     <g id="text_2">
      <!-- 100 -->
      <g transform="translate(229.560759 527.238438) scale(0.1 -0.1)">
       <defs>
        <path id="DejaVuSans-31" d="M 794 531 
L 1825 531 
L 1825 4091 
L 703 3866 
L 703 4441 
L 1819 4666 
L 2450 4666 
L 2450 531 
L 3481 531 
L 3481 0 
L 794 0 
L 794 531 
z
" transform="scale(0.015625)"/>
       </defs>
       <use xlink:href="#DejaVuSans-31"/>
       <use xlink:href="#DejaVuSans-30" x="63.623047"/>
       <use xlink:href="#DejaVuSans-30" x="127.246094"/>
      </g>
     </g>
    </g>
    <g id="xtick_3">
     <g id="line2d_3">
      <g>
       <use xlink:href="#m553f4fc6af" x="319.058562" y="512.64" style="stroke: #000000; stroke-width: 0.8"/>
      </g>
     </g>
     <g id="text_3">
      <!-- 200 -->
      <g transform="translate(309.514812 527.238438) scale(0.1 -0.1)">
       <defs>
        <path id="DejaVuSans-32" d="M 1228 531 
L 3431 531 
L 3431 0 
L 469 0 
L 469 531 
Q 828 903 1448 1529 
Q 2069 2156 2228 2338 
Q 2531 2678 2651 2914 
Q 2772 3150 2772 3378 
Q 2772 3750 2511 3984 
Q 2250 4219 1831 4219 
Q 1534 4219 1204 4116 
Q 875 4013 500 3803 
L 500 4441 
Q 881 4594 1212 4672 
Q 1544 4750 1819 4750 
Q 2544 4750 2975 4387 
Q 3406 4025 3406 3419 
Q 3406 3131 3298 2873 
Q 3191 2616 2906 2266 
Q 2828 2175 2409 1742 
Q 1991 1309 1228 531 
z
" transform="scale(0.015625)"/>
       </defs>
       <use xlink:href="#DejaVuSans-32"/>
       <use xlink:href="#DejaVuSans-30" x="63.623047"/>
       <use xlink:href="#DejaVuSans-30" x="127.246094"/>
      </g>
     </g>
    </g>
    <g id="xtick_4">
     <g id="line2d_4">
      <g>
       <use xlink:href="#m553f4fc6af" x="399.012616" y="512.64" style="stroke: #000000; stroke-width: 0.8"/>
      </g>
     </g>
     <g id="text_4">
      <!-- 300 -->
      <g transform="translate(389.468866 527.238438) scale(0.1 -0.1)">
       <defs>
        <path id="DejaVuSans-33" d="M 2597 2516 
Q 3050 2419 3304 2112 
Q 3559 1806 3559 1356 
Q 3559 666 3084 287 
Q 2609 -91 1734 -91 
Q 1441 -91 1130 -33 
Q 819 25 488 141 
L 488 750 
Q 750 597 1062 519 
Q 1375 441 1716 441 
Q 2309 441 2620 675 
Q 2931 909 2931 1356 
Q 2931 1769 2642 2001 
Q 2353 2234 1838 2234 
L 1294 2234 
L 1294 2753 
L 1863 2753 
Q 2328 2753 2575 2939 
Q 2822 3125 2822 3475 
Q 2822 3834 2567 4026 
Q 2313 4219 1838 4219 
Q 1578 4219 1281 4162 
Q 984 4106 628 3988 
L 628 4550 
Q 988 4650 1302 4700 
Q 1616 4750 1894 4750 
Q 2613 4750 3031 4423 
Q 3450 4097 3450 3541 
Q 3450 3153 3228 2886 
Q 3006 2619 2597 2516 
z
" transform="scale(0.015625)"/>
       </defs>
       <use xlink:href="#DejaVuSans-33"/>
       <use xlink:href="#DejaVuSans-30" x="63.623047"/>
       <use xlink:href="#DejaVuSans-30" x="127.246094"/>
      </g>
     </g>
    </g>
    <g id="xtick_5">
     <g id="line2d_5">
      <g>
       <use xlink:href="#m553f4fc6af" x="478.966669" y="512.64" style="stroke: #000000; stroke-width: 0.8"/>
      </g>
     </g>
     <g id="text_5">
      <!-- 400 -->
      <g transform="translate(469.422919 527.238438) scale(0.1 -0.1)">
       <defs>
        <path id="DejaVuSans-34" d="M 2419 4116 
L 825 1625 
L 2419 1625 
L 2419 4116 
z
M 2253 4666 
L 3047 4666 
L 3047 1625 
L 3713 1625 
L 3713 1100 
L 3047 1100 
L 3047 0 
L 2419 0 
L 2419 1100 
L 313 1100 
L 313 1709 
L 2253 4666 
z
" transform="scale(0.015625)"/>
       </defs>
       <use xlink:href="#DejaVuSans-34"/>
       <use xlink:href="#DejaVuSans-30" x="63.623047"/>
       <use xlink:href="#DejaVuSans-30" x="127.246094"/>
      </g>
     </g>
    </g>
    <g id="xtick_6">
     <g id="line2d_6">
      <g>
       <use xlink:href="#m553f4fc6af" x="558.920723" y="512.64" style="stroke: #000000; stroke-width: 0.8"/>
      </g>
     </g>
     <g id="text_6">
      <!-- 500 -->
      <g transform="translate(549.376973 527.238438) scale(0.1 -0.1)">
       <defs>
        <path id="DejaVuSans-35" d="M 691 4666 
L 3169 4666 
L 3169 4134 
L 1269 4134 
L 1269 2991 
Q 1406 3038 1543 3061 
Q 1681 3084 1819 3084 
Q 2600 3084 3056 2656 
Q 3513 2228 3513 1497 
Q 3513 744 3044 326 
Q 2575 -91 1722 -91 
Q 1428 -91 1123 -41 
Q 819 9 494 109 
L 494 744 
Q 775 591 1075 516 
Q 1375 441 1709 441 
Q 2250 441 2565 725 
Q 2881 1009 2881 1497 
Q 2881 1984 2565 2268 
Q 2250 2553 1709 2553 
Q 1456 2553 1204 2497 
Q 953 2441 691 2322 
L 691 4666 
z
" transform="scale(0.015625)"/>
       </defs>
       <use xlink:href="#DejaVuSans-35"/>
       <use xlink:href="#DejaVuSans-30" x="63.623047"/>
       <use xlink:href="#DejaVuSans-30" x="127.246094"/>
      </g>
     </g>
    </g>
    <g id="xtick_7">
     <g id="line2d_7">
      <g>
       <use xlink:href="#m553f4fc6af" x="638.874777" y="512.64" style="stroke: #000000; stroke-width: 0.8"/>
      </g>
     </g>
     <g id="text_7">
      <!-- 600 -->
      <g transform="translate(629.331027 527.238438) scale(0.1 -0.1)">
       <defs>
        <path id="DejaVuSans-36" d="M 2113 2584 
Q 1688 2584 1439 2293 
Q 1191 2003 1191 1497 
Q 1191 994 1439 701 
Q 1688 409 2113 409 
Q 2538 409 2786 701 
Q 3034 994 3034 1497 
Q 3034 2003 2786 2293 
Q 2538 2584 2113 2584 
z
M 3366 4563 
L 3366 3988 
Q 3128 4100 2886 4159 
Q 2644 4219 2406 4219 
Q 1781 4219 1451 3797 
Q 1122 3375 1075 2522 
Q 1259 2794 1537 2939 
Q 1816 3084 2150 3084 
Q 2853 3084 3261 2657 
Q 3669 2231 3669 1497 
Q 3669 778 3244 343 
Q 2819 -91 2113 -91 
Q 1303 -91 875 529 
Q 447 1150 447 2328 
Q 447 3434 972 4092 
Q 1497 4750 2381 4750 
Q 2619 4750 2861 4703 
Q 3103 4656 3366 4563 
z
" transform="scale(0.015625)"/>
       </defs>
       <use xlink:href="#DejaVuSans-36"/>
       <use xlink:href="#DejaVuSans-30" x="63.623047"/>
       <use xlink:href="#DejaVuSans-30" x="127.246094"/>
      </g>
     </g>
    </g>
    <g id="text_8">
     <!-- Ground Truth Energy -->
     <g transform="translate(317.257812 540.916563) scale(0.1 -0.1)">
      <defs>
       <path id="DejaVuSans-47" d="M 3809 666 
L 3809 1919 
L 2778 1919 
L 2778 2438 
L 4434 2438 
L 4434 434 
Q 4069 175 3628 42 
Q 3188 -91 2688 -91 
Q 1594 -91 976 548 
Q 359 1188 359 2328 
Q 359 3472 976 4111 
Q 1594 4750 2688 4750 
Q 3144 4750 3555 4637 
Q 3966 4525 4313 4306 
L 4313 3634 
Q 3963 3931 3569 4081 
Q 3175 4231 2741 4231 
Q 1884 4231 1454 3753 
Q 1025 3275 1025 2328 
Q 1025 1384 1454 906 
Q 1884 428 2741 428 
Q 3075 428 3337 486 
Q 3600 544 3809 666 
z
" transform="scale(0.015625)"/>
       <path id="DejaVuSans-72" d="M 2631 2963 
Q 2534 3019 2420 3045 
Q 2306 3072 2169 3072 
Q 1681 3072 1420 2755 
Q 1159 2438 1159 1844 
L 1159 0 
L 581 0 
L 581 3500 
L 1159 3500 
L 1159 2956 
Q 1341 3275 1631 3429 
Q 1922 3584 2338 3584 
Q 2397 3584 2469 3576 
Q 2541 3569 2628 3553 
L 2631 2963 
z
" transform="scale(0.015625)"/>
       <path id="DejaVuSans-6f" d="M 1959 3097 
Q 1497 3097 1228 2736 
Q 959 2375 959 1747 
Q 959 1119 1226 758 
Q 1494 397 1959 397 
Q 2419 397 2687 759 
Q 2956 1122 2956 1747 
Q 2956 2369 2687 2733 
Q 2419 3097 1959 3097 
z
M 1959 3584 
Q 2709 3584 3137 3096 
Q 3566 2609 3566 1747 
Q 3566 888 3137 398 
Q 2709 -91 1959 -91 
Q 1206 -91 779 398 
Q 353 888 353 1747 
Q 353 2609 779 3096 
Q 1206 3584 1959 3584 
z
" transform="scale(0.015625)"/>
       <path id="DejaVuSans-75" d="M 544 1381 
L 544 3500 
L 1119 3500 
L 1119 1403 
Q 1119 906 1312 657 
Q 1506 409 1894 409 
Q 2359 409 2629 706 
Q 2900 1003 2900 1516 
L 2900 3500 
L 3475 3500 
L 3475 0 
L 2900 0 
L 2900 538 
Q 2691 219 2414 64 
Q 2138 -91 1772 -91 
Q 1169 -91 856 284 
Q 544 659 544 1381 
z
M 1991 3584 
L 1991 3584 
z
" transform="scale(0.015625)"/>
       <path id="DejaVuSans-6e" d="M 3513 2113 
L 3513 0 
L 2938 0 
L 2938 2094 
Q 2938 2591 2744 2837 
Q 2550 3084 2163 3084 
Q 1697 3084 1428 2787 
Q 1159 2491 1159 1978 
L 1159 0 
L 581 0 
L 581 3500 
L 1159 3500 
L 1159 2956 
Q 1366 3272 1645 3428 
Q 1925 3584 2291 3584 
Q 2894 3584 3203 3211 
Q 3513 2838 3513 2113 
z
" transform="scale(0.015625)"/>
       <path id="DejaVuSans-64" d="M 2906 2969 
L 2906 4863 
L 3481 4863 
L 3481 0 
L 2906 0 
L 2906 525 
Q 2725 213 2448 61 
Q 2172 -91 1784 -91 
Q 1150 -91 751 415 
Q 353 922 353 1747 
Q 353 2572 751 3078 
Q 1150 3584 1784 3584 
Q 2172 3584 2448 3432 
Q 2725 3281 2906 2969 
z
M 947 1747 
Q 947 1113 1208 752 
Q 1469 391 1925 391 
Q 2381 391 2643 752 
Q 2906 1113 2906 1747 
Q 2906 2381 2643 2742 
Q 2381 3103 1925 3103 
Q 1469 3103 1208 2742 
Q 947 2381 947 1747 
z
" transform="scale(0.015625)"/>
       <path id="DejaVuSans-20" transform="scale(0.015625)"/>
       <path id="DejaVuSans-54" d="M -19 4666 
L 3928 4666 
L 3928 4134 
L 2272 4134 
L 2272 0 
L 1638 0 
L 1638 4134 
L -19 4134 
L -19 4666 
z
" transform="scale(0.015625)"/>
       <path id="DejaVuSans-74" d="M 1172 4494 
L 1172 3500 
L 2356 3500 
L 2356 3053 
L 1172 3053 
L 1172 1153 
Q 1172 725 1289 603 
Q 1406 481 1766 481 
L 2356 481 
L 2356 0 
L 1766 0 
Q 1100 0 847 248 
Q 594 497 594 1153 
L 594 3053 
L 172 3053 
L 172 3500 
L 594 3500 
L 594 4494 
L 1172 4494 
z
" transform="scale(0.015625)"/>
       <path id="DejaVuSans-68" d="M 3513 2113 
L 3513 0 
L 2938 0 
L 2938 2094 
Q 2938 2591 2744 2837 
Q 2550 3084 2163 3084 
Q 1697 3084 1428 2787 
Q 1159 2491 1159 1978 
L 1159 0 
L 581 0 
L 581 4863 
L 1159 4863 
L 1159 2956 
Q 1366 3272 1645 3428 
Q 1925 3584 2291 3584 
Q 2894 3584 3203 3211 
Q 3513 2838 3513 2113 
z
" transform="scale(0.015625)"/>
       <path id="DejaVuSans-45" d="M 628 4666 
L 3578 4666 
L 3578 4134 
L 1259 4134 
L 1259 2753 
L 3481 2753 
L 3481 2222 
L 1259 2222 
L 1259 531 
L 3634 531 
L 3634 0 
L 628 0 
L 628 4666 
z
" transform="scale(0.015625)"/>
       <path id="DejaVuSans-65" d="M 3597 1894 
L 3597 1613 
L 953 1613 
Q 991 1019 1311 708 
Q 1631 397 2203 397 
Q 2534 397 2845 478 
Q 3156 559 3463 722 
L 3463 178 
Q 3153 47 2828 -22 
Q 2503 -91 2169 -91 
Q 1331 -91 842 396 
Q 353 884 353 1716 
Q 353 2575 817 3079 
Q 1281 3584 2069 3584 
Q 2775 3584 3186 3129 
Q 3597 2675 3597 1894 
z
M 3022 2063 
Q 3016 2534 2758 2815 
Q 2500 3097 2075 3097 
Q 1594 3097 1305 2825 
Q 1016 2553 972 2059 
L 3022 2063 
z
" transform="scale(0.015625)"/>
       <path id="DejaVuSans-67" d="M 2906 1791 
Q 2906 2416 2648 2759 
Q 2391 3103 1925 3103 
Q 1463 3103 1205 2759 
Q 947 2416 947 1791 
Q 947 1169 1205 825 
Q 1463 481 1925 481 
Q 2391 481 2648 825 
Q 2906 1169 2906 1791 
z
M 3481 434 
Q 3481 -459 3084 -895 
Q 2688 -1331 1869 -1331 
Q 1566 -1331 1297 -1286 
Q 1028 -1241 775 -1147 
L 775 -588 
Q 1028 -725 1275 -790 
Q 1522 -856 1778 -856 
Q 2344 -856 2625 -561 
Q 2906 -266 2906 331 
L 2906 616 
Q 2728 306 2450 153 
Q 2172 0 1784 0 
Q 1141 0 747 490 
Q 353 981 353 1791 
Q 353 2603 747 3093 
Q 1141 3584 1784 3584 
Q 2172 3584 2450 3431 
Q 2728 3278 2906 2969 
L 2906 3500 
L 3481 3500 
L 3481 434 
z
" transform="scale(0.015625)"/>
       <path id="DejaVuSans-79" d="M 2059 -325 
Q 1816 -950 1584 -1140 
Q 1353 -1331 966 -1331 
L 506 -1331 
L 506 -850 
L 844 -850 
Q 1081 -850 1212 -737 
Q 1344 -625 1503 -206 
L 1606 56 
L 191 3500 
L 800 3500 
L 1894 763 
L 2988 3500 
L 3597 3500 
L 2059 -325 
z
" transform="scale(0.015625)"/>
      </defs>
      <use xlink:href="#DejaVuSans-47"/>
      <use xlink:href="#DejaVuSans-72" x="77.490234"/>
      <use xlink:href="#DejaVuSans-6f" x="116.353516"/>
      <use xlink:href="#DejaVuSans-75" x="177.535156"/>
      <use xlink:href="#DejaVuSans-6e" x="240.914062"/>
      <use xlink:href="#DejaVuSans-64" x="304.292969"/>
      <use xlink:href="#DejaVuSans-20" x="367.769531"/>
      <use xlink:href="#DejaVuSans-54" x="399.556641"/>
      <use xlink:href="#DejaVuSans-72" x="445.890625"/>
      <use xlink:href="#DejaVuSans-75" x="487.003906"/>
      <use xlink:href="#DejaVuSans-74" x="550.382812"/>
      <use xlink:href="#DejaVuSans-68" x="589.591797"/>
      <use xlink:href="#DejaVuSans-20" x="652.970703"/>
      <use xlink:href="#DejaVuSans-45" x="684.757812"/>
      <use xlink:href="#DejaVuSans-6e" x="747.941406"/>
      <use xlink:href="#DejaVuSans-65" x="811.320312"/>
      <use xlink:href="#DejaVuSans-72" x="872.84375"/>
      <use xlink:href="#DejaVuSans-67" x="912.207031"/>
      <use xlink:href="#DejaVuSans-79" x="975.683594"/>
     </g>
    </g>
   </g>
   <g id="matplotlib.axis_2">
    <g id="ytick_1">
     <g id="line2d_8">
      <defs>
       <path id="mb46d15309f" d="M 0 0 
L -3.5 0 
" style="stroke: #000000; stroke-width: 0.8"/>
      </defs>
      <g>
       <use xlink:href="#mb46d15309f" x="90" y="455.701252" style="stroke: #000000; stroke-width: 0.8"/>
      </g>
     </g>
     <g id="text_9">
      <!-- 0 -->
      <g transform="translate(76.6375 459.500471) scale(0.1 -0.1)">
       <use xlink:href="#DejaVuSans-30"/>
      </g>
     </g>
    </g>
    <g id="ytick_2">
     <g id="line2d_9">
      <g>
       <use xlink:href="#mb46d15309f" x="90" y="391.779326" style="stroke: #000000; stroke-width: 0.8"/>
      </g>
     </g>
     <g id="text_10">
      <!-- 100 -->
      <g transform="translate(63.9125 395.578545) scale(0.1 -0.1)">
       <use xlink:href="#DejaVuSans-31"/>
       <use xlink:href="#DejaVuSans-30" x="63.623047"/>
       <use xlink:href="#DejaVuSans-30" x="127.246094"/>
      </g>
     </g>
    </g>
    <g id="ytick_3">
     <g id="line2d_10">
      <g>
       <use xlink:href="#mb46d15309f" x="90" y="327.8574" style="stroke: #000000; stroke-width: 0.8"/>
      </g>
     </g>
     <g id="text_11">
      <!-- 200 -->
      <g transform="translate(63.9125 331.656619) scale(0.1 -0.1)">
       <use xlink:href="#DejaVuSans-32"/>
       <use xlink:href="#DejaVuSans-30" x="63.623047"/>
       <use xlink:href="#DejaVuSans-30" x="127.246094"/>
      </g>
     </g>
    </g>
    <g id="ytick_4">
     <g id="line2d_11">
      <g>
       <use xlink:href="#mb46d15309f" x="90" y="263.935475" style="stroke: #000000; stroke-width: 0.8"/>
      </g>
     </g>
     <g id="text_12">
      <!-- 300 -->
      <g transform="translate(63.9125 267.734693) scale(0.1 -0.1)">
       <use xlink:href="#DejaVuSans-33"/>
       <use xlink:href="#DejaVuSans-30" x="63.623047"/>
       <use xlink:href="#DejaVuSans-30" x="127.246094"/>
      </g>
     </g>
    </g>
    <g id="ytick_5">
     <g id="line2d_12">
      <g>
       <use xlink:href="#mb46d15309f" x="90" y="200.013549" style="stroke: #000000; stroke-width: 0.8"/>
      </g>
     </g>
     <g id="text_13">
      <!-- 400 -->
      <g transform="translate(63.9125 203.812768) scale(0.1 -0.1)">
       <use xlink:href="#DejaVuSans-34"/>
       <use xlink:href="#DejaVuSans-30" x="63.623047"/>
       <use xlink:href="#DejaVuSans-30" x="127.246094"/>
      </g>
     </g>
    </g>
    <g id="ytick_6">
     <g id="line2d_13">
      <g>
       <use xlink:href="#mb46d15309f" x="90" y="136.091623" style="stroke: #000000; stroke-width: 0.8"/>
      </g>
     </g>
     <g id="text_14">
      <!-- 500 -->
      <g transform="translate(63.9125 139.890842) scale(0.1 -0.1)">
       <use xlink:href="#DejaVuSans-35"/>
       <use xlink:href="#DejaVuSans-30" x="63.623047"/>
       <use xlink:href="#DejaVuSans-30" x="127.246094"/>
      </g>
     </g>
    </g>
    <g id="ytick_7">
     <g id="line2d_14">
      <g>
       <use xlink:href="#mb46d15309f" x="90" y="72.169698" style="stroke: #000000; stroke-width: 0.8"/>
      </g>
     </g>
     <g id="text_15">
      <!-- 600 -->
      <g transform="translate(63.9125 75.968916) scale(0.1 -0.1)">
       <use xlink:href="#DejaVuSans-36"/>
       <use xlink:href="#DejaVuSans-30" x="63.623047"/>
       <use xlink:href="#DejaVuSans-30" x="127.246094"/>
      </g>
     </g>
    </g>
    <g id="text_16">
     <!-- Predicted Energy -->
     <g transform="translate(57.832812 333.445625) rotate(-90) scale(0.1 -0.1)">
      <defs>
       <path id="DejaVuSans-50" d="M 1259 4147 
L 1259 2394 
L 2053 2394 
Q 2494 2394 2734 2622 
Q 2975 2850 2975 3272 
Q 2975 3691 2734 3919 
Q 2494 4147 2053 4147 
L 1259 4147 
z
M 628 4666 
L 2053 4666 
Q 2838 4666 3239 4311 
Q 3641 3956 3641 3272 
Q 3641 2581 3239 2228 
Q 2838 1875 2053 1875 
L 1259 1875 
L 1259 0 
L 628 0 
L 628 4666 
z
" transform="scale(0.015625)"/>
       <path id="DejaVuSans-69" d="M 603 3500 
L 1178 3500 
L 1178 0 
L 603 0 
L 603 3500 
z
M 603 4863 
L 1178 4863 
L 1178 4134 
L 603 4134 
L 603 4863 
z
" transform="scale(0.015625)"/>
       <path id="DejaVuSans-63" d="M 3122 3366 
L 3122 2828 
Q 2878 2963 2633 3030 
Q 2388 3097 2138 3097 
Q 1578 3097 1268 2742 
Q 959 2388 959 1747 
Q 959 1106 1268 751 
Q 1578 397 2138 397 
Q 2388 397 2633 464 
Q 2878 531 3122 666 
L 3122 134 
Q 2881 22 2623 -34 
Q 2366 -91 2075 -91 
Q 1284 -91 818 406 
Q 353 903 353 1747 
Q 353 2603 823 3093 
Q 1294 3584 2113 3584 
Q 2378 3584 2631 3529 
Q 2884 3475 3122 3366 
z
" transform="scale(0.015625)"/>
      </defs>
      <use xlink:href="#DejaVuSans-50"/>
      <use xlink:href="#DejaVuSans-72" x="58.552734"/>
      <use xlink:href="#DejaVuSans-65" x="97.416016"/>
      <use xlink:href="#DejaVuSans-64" x="158.939453"/>
      <use xlink:href="#DejaVuSans-69" x="222.416016"/>
      <use xlink:href="#DejaVuSans-63" x="250.199219"/>
      <use xlink:href="#DejaVuSans-74" x="305.179688"/>
      <use xlink:href="#DejaVuSans-65" x="344.388672"/>
      <use xlink:href="#DejaVuSans-64" x="405.912109"/>
      <use xlink:href="#DejaVuSans-20" x="469.388672"/>
      <use xlink:href="#DejaVuSans-45" x="501.175781"/>
      <use xlink:href="#DejaVuSans-6e" x="564.359375"/>
      <use xlink:href="#DejaVuSans-65" x="627.738281"/>
      <use xlink:href="#DejaVuSans-72" x="689.261719"/>
      <use xlink:href="#DejaVuSans-67" x="728.625"/>
      <use xlink:href="#DejaVuSans-79" x="792.101562"/>
     </g>
    </g>
   </g>
   <g id="line2d_15">
    <path d="M 128.716861 480.032401 
L 609.283139 95.827716 
" clip-path="url(#pacdb1c543d)" style="fill: none; stroke-dasharray: 5.55,2.4; stroke-dashoffset: 0; stroke: #ff0000; stroke-width: 1.5"/>
   </g>
   <g id="patch_3">
    <path d="M 90 512.64 
L 90 69.12 
" style="fill: none; stroke: #000000; stroke-width: 0.8; stroke-linejoin: miter; stroke-linecap: square"/>
   </g>
   <g id="patch_4">
    <path d="M 648 512.64 
L 648 69.12 
" style="fill: none; stroke: #000000; stroke-width: 0.8; stroke-linejoin: miter; stroke-linecap: square"/>
   </g>
   <g id="patch_5">
    <path d="M 90 512.64 
L 648 512.64 
" style="fill: none; stroke: #000000; stroke-width: 0.8; stroke-linejoin: miter; stroke-linecap: square"/>
   </g>
   <g id="patch_6">
    <path d="M 90 69.12 
L 648 69.12 
" style="fill: none; stroke: #000000; stroke-width: 0.8; stroke-linejoin: miter; stroke-linecap: square"/>
   </g>
   <g id="text_17">
    <!-- Energy R2 Score: 0.9940881791109413 -->
    <g transform="translate(145.8 113.472) scale(0.1 -0.1)">
     <defs>
      <path id="DejaVuSans-52" d="M 2841 2188 
Q 3044 2119 3236 1894 
Q 3428 1669 3622 1275 
L 4263 0 
L 3584 0 
L 2988 1197 
Q 2756 1666 2539 1819 
Q 2322 1972 1947 1972 
L 1259 1972 
L 1259 0 
L 628 0 
L 628 4666 
L 2053 4666 
Q 2853 4666 3247 4331 
Q 3641 3997 3641 3322 
Q 3641 2881 3436 2590 
Q 3231 2300 2841 2188 
z
M 1259 4147 
L 1259 2491 
L 2053 2491 
Q 2509 2491 2742 2702 
Q 2975 2913 2975 3322 
Q 2975 3731 2742 3939 
Q 2509 4147 2053 4147 
L 1259 4147 
z
" transform="scale(0.015625)"/>
      <path id="DejaVuSans-53" d="M 3425 4513 
L 3425 3897 
Q 3066 4069 2747 4153 
Q 2428 4238 2131 4238 
Q 1616 4238 1336 4038 
Q 1056 3838 1056 3469 
Q 1056 3159 1242 3001 
Q 1428 2844 1947 2747 
L 2328 2669 
Q 3034 2534 3370 2195 
Q 3706 1856 3706 1288 
Q 3706 609 3251 259 
Q 2797 -91 1919 -91 
Q 1588 -91 1214 -16 
Q 841 59 441 206 
L 441 856 
Q 825 641 1194 531 
Q 1563 422 1919 422 
Q 2459 422 2753 634 
Q 3047 847 3047 1241 
Q 3047 1584 2836 1778 
Q 2625 1972 2144 2069 
L 1759 2144 
Q 1053 2284 737 2584 
Q 422 2884 422 3419 
Q 422 4038 858 4394 
Q 1294 4750 2059 4750 
Q 2388 4750 2728 4690 
Q 3069 4631 3425 4513 
z
" transform="scale(0.015625)"/>
      <path id="DejaVuSans-3a" d="M 750 794 
L 1409 794 
L 1409 0 
L 750 0 
L 750 794 
z
M 750 3309 
L 1409 3309 
L 1409 2516 
L 750 2516 
L 750 3309 
z
" transform="scale(0.015625)"/>
      <path id="DejaVuSans-2e" d="M 684 794 
L 1344 794 
L 1344 0 
L 684 0 
L 684 794 
z
" transform="scale(0.015625)"/>
      <path id="DejaVuSans-39" d="M 703 97 
L 703 672 
Q 941 559 1184 500 
Q 1428 441 1663 441 
Q 2288 441 2617 861 
Q 2947 1281 2994 2138 
Q 2813 1869 2534 1725 
Q 2256 1581 1919 1581 
Q 1219 1581 811 2004 
Q 403 2428 403 3163 
Q 403 3881 828 4315 
Q 1253 4750 1959 4750 
Q 2769 4750 3195 4129 
Q 3622 3509 3622 2328 
Q 3622 1225 3098 567 
Q 2575 -91 1691 -91 
Q 1453 -91 1209 -44 
Q 966 3 703 97 
z
M 1959 2075 
Q 2384 2075 2632 2365 
Q 2881 2656 2881 3163 
Q 2881 3666 2632 3958 
Q 2384 4250 1959 4250 
Q 1534 4250 1286 3958 
Q 1038 3666 1038 3163 
Q 1038 2656 1286 2365 
Q 1534 2075 1959 2075 
z
" transform="scale(0.015625)"/>
      <path id="DejaVuSans-38" d="M 2034 2216 
Q 1584 2216 1326 1975 
Q 1069 1734 1069 1313 
Q 1069 891 1326 650 
Q 1584 409 2034 409 
Q 2484 409 2743 651 
Q 3003 894 3003 1313 
Q 3003 1734 2745 1975 
Q 2488 2216 2034 2216 
z
M 1403 2484 
Q 997 2584 770 2862 
Q 544 3141 544 3541 
Q 544 4100 942 4425 
Q 1341 4750 2034 4750 
Q 2731 4750 3128 4425 
Q 3525 4100 3525 3541 
Q 3525 3141 3298 2862 
Q 3072 2584 2669 2484 
Q 3125 2378 3379 2068 
Q 3634 1759 3634 1313 
Q 3634 634 3220 271 
Q 2806 -91 2034 -91 
Q 1263 -91 848 271 
Q 434 634 434 1313 
Q 434 1759 690 2068 
Q 947 2378 1403 2484 
z
M 1172 3481 
Q 1172 3119 1398 2916 
Q 1625 2713 2034 2713 
Q 2441 2713 2670 2916 
Q 2900 3119 2900 3481 
Q 2900 3844 2670 4047 
Q 2441 4250 2034 4250 
Q 1625 4250 1398 4047 
Q 1172 3844 1172 3481 
z
" transform="scale(0.015625)"/>
      <path id="DejaVuSans-37" d="M 525 4666 
L 3525 4666 
L 3525 4397 
L 1831 0 
L 1172 0 
L 2766 4134 
L 525 4134 
L 525 4666 
z
" transform="scale(0.015625)"/>
     </defs>
     <use xlink:href="#DejaVuSans-45"/>
     <use xlink:href="#DejaVuSans-6e" x="63.183594"/>
     <use xlink:href="#DejaVuSans-65" x="126.5625"/>
     <use xlink:href="#DejaVuSans-72" x="188.085938"/>
     <use xlink:href="#DejaVuSans-67" x="227.449219"/>
     <use xlink:href="#DejaVuSans-79" x="290.925781"/>
     <use xlink:href="#DejaVuSans-20" x="350.105469"/>
     <use xlink:href="#DejaVuSans-52" x="381.892578"/>
     <use xlink:href="#DejaVuSans-32" x="451.375"/>
     <use xlink:href="#DejaVuSans-20" x="514.998047"/>
     <use xlink:href="#DejaVuSans-53" x="546.785156"/>
     <use xlink:href="#DejaVuSans-63" x="610.261719"/>
     <use xlink:href="#DejaVuSans-6f" x="665.242188"/>
     <use xlink:href="#DejaVuSans-72" x="726.423828"/>
     <use xlink:href="#DejaVuSans-65" x="765.287109"/>
     <use xlink:href="#DejaVuSans-3a" x="826.810547"/>
     <use xlink:href="#DejaVuSans-20" x="860.501953"/>
     <use xlink:href="#DejaVuSans-30" x="892.289062"/>
     <use xlink:href="#DejaVuSans-2e" x="955.912109"/>
     <use xlink:href="#DejaVuSans-39" x="987.699219"/>
     <use xlink:href="#DejaVuSans-39" x="1051.322266"/>
     <use xlink:href="#DejaVuSans-34" x="1114.945312"/>
     <use xlink:href="#DejaVuSans-30" x="1178.568359"/>
     <use xlink:href="#DejaVuSans-38" x="1242.191406"/>
     <use xlink:href="#DejaVuSans-38" x="1305.814453"/>
     <use xlink:href="#DejaVuSans-31" x="1369.4375"/>
     <use xlink:href="#DejaVuSans-37" x="1433.060547"/>
     <use xlink:href="#DejaVuSans-39" x="1496.683594"/>
     <use xlink:href="#DejaVuSans-31" x="1560.306641"/>
     <use xlink:href="#DejaVuSans-31" x="1623.929688"/>
     <use xlink:href="#DejaVuSans-30" x="1687.552734"/>
     <use xlink:href="#DejaVuSans-39" x="1751.175781"/>
     <use xlink:href="#DejaVuSans-34" x="1814.798828"/>
     <use xlink:href="#DejaVuSans-31" x="1878.421875"/>
     <use xlink:href="#DejaVuSans-33" x="1942.044922"/>
    </g>
   </g>
   <g id="text_18">
    <!-- MVE In Distribution -->
    <g transform="translate(311.53875 63.12) scale(0.12 -0.12)">
     <defs>
      <path id="DejaVuSans-4d" d="M 628 4666 
L 1569 4666 
L 2759 1491 
L 3956 4666 
L 4897 4666 
L 4897 0 
L 4281 0 
L 4281 4097 
L 3078 897 
L 2444 897 
L 1241 4097 
L 1241 0 
L 628 0 
L 628 4666 
z
" transform="scale(0.015625)"/>
      <path id="DejaVuSans-56" d="M 1831 0 
L 50 4666 
L 709 4666 
L 2188 738 
L 3669 4666 
L 4325 4666 
L 2547 0 
L 1831 0 
z
" transform="scale(0.015625)"/>
      <path id="DejaVuSans-49" d="M 628 4666 
L 1259 4666 
L 1259 0 
L 628 0 
L 628 4666 
z
" transform="scale(0.015625)"/>
      <path id="DejaVuSans-44" d="M 1259 4147 
L 1259 519 
L 2022 519 
Q 2988 519 3436 956 
Q 3884 1394 3884 2338 
Q 3884 3275 3436 3711 
Q 2988 4147 2022 4147 
L 1259 4147 
z
M 628 4666 
L 1925 4666 
Q 3281 4666 3915 4102 
Q 4550 3538 4550 2338 
Q 4550 1131 3912 565 
Q 3275 0 1925 0 
L 628 0 
L 628 4666 
z
" transform="scale(0.015625)"/>
      <path id="DejaVuSans-73" d="M 2834 3397 
L 2834 2853 
Q 2591 2978 2328 3040 
Q 2066 3103 1784 3103 
Q 1356 3103 1142 2972 
Q 928 2841 928 2578 
Q 928 2378 1081 2264 
Q 1234 2150 1697 2047 
L 1894 2003 
Q 2506 1872 2764 1633 
Q 3022 1394 3022 966 
Q 3022 478 2636 193 
Q 2250 -91 1575 -91 
Q 1294 -91 989 -36 
Q 684 19 347 128 
L 347 722 
Q 666 556 975 473 
Q 1284 391 1588 391 
Q 1994 391 2212 530 
Q 2431 669 2431 922 
Q 2431 1156 2273 1281 
Q 2116 1406 1581 1522 
L 1381 1569 
Q 847 1681 609 1914 
Q 372 2147 372 2553 
Q 372 3047 722 3315 
Q 1072 3584 1716 3584 
Q 2034 3584 2315 3537 
Q 2597 3491 2834 3397 
z
" transform="scale(0.015625)"/>
      <path id="DejaVuSans-62" d="M 3116 1747 
Q 3116 2381 2855 2742 
Q 2594 3103 2138 3103 
Q 1681 3103 1420 2742 
Q 1159 2381 1159 1747 
Q 1159 1113 1420 752 
Q 1681 391 2138 391 
Q 2594 391 2855 752 
Q 3116 1113 3116 1747 
z
M 1159 2969 
Q 1341 3281 1617 3432 
Q 1894 3584 2278 3584 
Q 2916 3584 3314 3078 
Q 3713 2572 3713 1747 
Q 3713 922 3314 415 
Q 2916 -91 2278 -91 
Q 1894 -91 1617 61 
Q 1341 213 1159 525 
L 1159 0 
L 581 0 
L 581 4863 
L 1159 4863 
L 1159 2969 
z
" transform="scale(0.015625)"/>
     </defs>
     <use xlink:href="#DejaVuSans-4d"/>
     <use xlink:href="#DejaVuSans-56" x="86.279297"/>
     <use xlink:href="#DejaVuSans-45" x="154.6875"/>
     <use xlink:href="#DejaVuSans-20" x="217.871094"/>
     <use xlink:href="#DejaVuSans-49" x="249.658203"/>
     <use xlink:href="#DejaVuSans-6e" x="279.150391"/>
     <use xlink:href="#DejaVuSans-20" x="342.529297"/>
     <use xlink:href="#DejaVuSans-44" x="374.316406"/>
     <use xlink:href="#DejaVuSans-69" x="451.318359"/>
     <use xlink:href="#DejaVuSans-73" x="479.101562"/>
     <use xlink:href="#DejaVuSans-74" x="531.201172"/>
     <use xlink:href="#DejaVuSans-72" x="570.410156"/>
     <use xlink:href="#DejaVuSans-69" x="611.523438"/>
     <use xlink:href="#DejaVuSans-62" x="639.306641"/>
     <use xlink:href="#DejaVuSans-75" x="702.783203"/>
     <use xlink:href="#DejaVuSans-74" x="766.162109"/>
     <use xlink:href="#DejaVuSans-69" x="805.371094"/>
     <use xlink:href="#DejaVuSans-6f" x="833.154297"/>
     <use xlink:href="#DejaVuSans-6e" x="894.335938"/>
    </g>
   </g>
  </g>
 </g>
 <defs>
  <clipPath id="pacdb1c543d">
   <rect x="90" y="69.12" width="558" height="443.52"/>
  </clipPath>
 </defs>
</svg>
