<?xml version="1.0" encoding="utf-8" standalone="no"?>
<!DOCTYPE svg PUBLIC "-//W3C//DTD SVG 1.1//EN"
  "http://www.w3.org/Graphics/SVG/1.1/DTD/svg11.dtd">
<svg xmlns:xlink="http://www.w3.org/1999/xlink" width="720pt" height="576pt" viewBox="0 0 720 576" xmlns="http://www.w3.org/2000/svg" version="1.1">
 <metadata>
  <rdf:RDF xmlns:dc="http://purl.org/dc/elements/1.1/" xmlns:cc="http://creativecommons.org/ns#" xmlns:rdf="http://www.w3.org/1999/02/22-rdf-syntax-ns#">
   <cc:Work>
    <dc:type rdf:resource="http://purl.org/dc/dcmitype/StillImage"/>
    <dc:date>2024-11-28T16:15:34.715961</dc:date>
    <dc:format>image/svg+xml</dc:format>
    <dc:creator>
     <cc:Agent>
      <dc:title>Matplotlib v3.8.4, https://matplotlib.org/</dc:title>
     </cc:Agent>
    </dc:creator>
   </cc:Work>
  </rdf:RDF>
 </metadata>
 <defs>
  <style type="text/css">*{stroke-linejoin: round; stroke-linecap: butt}</style>
 </defs>
 <g id="figure_1">
  <g id="patch_1">
   <path d="M 0 576 
L 720 576 
L 720 0 
L 0 0 
z
" style="fill: #ffffff"/>
  </g>
  <g id="axes_1">
   <g id="patch_2">
    <path d="M 90 512.64 
L 648 512.64 
L 648 69.12 
L 90 69.12 
z
" style="fill: #ffffff"/>
   </g>
   <g id="QuadContourSet_1">
    <path d="M 112.432161 495.252946 
L 112.990951 494.81005 
L 112.432161 494.356858 
L 111.867564 494.81005 
z
M 115.236181 493.602856 
L 116.525464 492.581307 
L 118.040201 491.747166 
L 119.80092 490.352563 
L 120.844221 489.764347 
L 122.916175 488.123819 
L 123.648241 487.701374 
L 125.930413 485.895075 
L 126.452261 485.586932 
L 128.879775 483.666332 
L 129.256281 483.438879 
L 131.786758 481.437588 
L 132.060302 481.268542 
L 134.665631 479.208844 
L 134.864322 479.083245 
L 137.525611 476.980101 
L 137.668342 476.887811 
L 140.372768 474.751357 
L 140.472362 474.685485 
L 143.211171 472.522613 
L 143.276382 472.478493 
L 146.043608 470.293869 
L 146.080402 470.268402 
L 148.872026 468.065126 
L 148.884422 468.056347 
L 151.688442 466.043773 
L 151.949365 465.836382 
L 154.492462 464.187955 
L 155.22257 463.607638 
L 157.296482 462.23161 
L 158.3693 461.378894 
L 160.100503 460.203354 
L 161.425558 459.150151 
L 162.904523 458.122517 
L 164.415662 456.921407 
L 165.708543 456.002264 
L 167.356177 454.692663 
L 168.512563 453.851583 
L 170.258409 452.46392 
L 171.316583 451.676553 
L 173.130008 450.235176 
L 174.120603 449.481156 
L 175.975981 448.006432 
L 176.924623 447.267781 
L 178.799337 445.777688 
L 179.728643 445.037522 
L 181.601451 443.548945 
L 182.532663 442.790314 
L 184.382241 441.320201 
L 185.336683 440.524936 
L 187.140171 439.091457 
L 188.140704 438.238885 
L 189.872091 436.862714 
L 190.944724 435.928096 
L 192.572888 434.63397 
L 193.748744 433.586479 
L 195.234899 432.405226 
L 196.552764 431.205182 
L 197.846987 430.176482 
L 199.356784 428.771473 
L 200.393136 427.947739 
L 202.160804 426.267038 
L 202.850303 425.718995 
L 204.964824 423.665379 
L 205.185154 423.490251 
L 207.65429 421.261508 
L 207.768844 421.128536 
L 210.197498 419.032764 
L 210.572864 418.584051 
L 212.608645 416.80402 
L 213.376884 415.856644 
L 214.821693 414.575276 
L 213.376884 413.671027 
L 212.222143 414.575276 
L 210.572864 415.514982 
L 208.928841 416.80402 
L 207.768844 417.477042 
L 205.787353 419.032764 
L 204.964824 419.51849 
L 202.747746 421.261508 
L 202.160804 421.614129 
L 199.777472 423.490251 
L 199.356784 423.747281 
L 196.854958 425.718995 
L 196.552764 425.90671 
L 193.965687 427.947739 
L 193.748744 428.084728 
L 191.099755 430.176482 
L 190.944724 430.276 
L 188.250336 432.405226 
L 188.140704 432.476782 
L 185.412693 434.63397 
L 185.336683 434.68443 
L 182.583523 436.862714 
L 182.532663 436.897073 
L 179.76053 439.091457 
L 179.728643 439.113393 
L 176.942121 441.320201 
L 176.924623 441.332466 
L 174.127198 443.548945 
L 174.120603 443.553659 
L 171.316583 445.702907 
L 171.224664 445.777688 
L 168.512563 447.672642 
L 168.111252 448.006432 
L 165.708543 449.756653 
L 165.140364 450.235176 
L 162.904523 451.925713 
L 162.268998 452.46392 
L 160.100503 454.159526 
L 159.471437 454.692663 
L 157.296482 456.446235 
L 156.734489 456.921407 
L 154.492462 458.781153 
L 154.054179 459.150151 
L 151.688442 461.165797 
L 151.433983 461.378894 
L 148.884422 463.607638 
L 148.884422 463.607638 
L 146.089507 465.836382 
L 146.080402 465.844506 
L 143.29775 468.065126 
L 143.276382 468.084641 
L 140.510041 470.293869 
L 140.472362 470.329093 
L 137.727658 472.522613 
L 137.668342 472.579371 
L 134.952457 474.751357 
L 134.864322 474.837677 
L 132.187153 476.980101 
L 132.060302 477.107264 
L 129.43577 479.208844 
L 129.256281 479.393011 
L 126.704354 481.437588 
L 126.452261 481.702352 
L 124.002141 483.666332 
L 123.648241 484.046816 
L 121.343465 485.895075 
L 120.844221 486.444594 
L 118.750966 488.123819 
L 118.040201 488.924922 
L 116.26105 490.352563 
L 115.236181 491.535686 
L 113.933365 492.581307 
z
M 125.800589 483.666332 
L 126.452261 483.143961 
L 127.097921 483.666332 
L 126.452261 484.177165 
z
M 128.07697 481.437588 
L 129.256281 480.492736 
L 130.42568 481.437588 
L 129.256281 482.362436 
z
M 130.50756 479.208844 
L 132.060302 477.965495 
L 133.043279 476.980101 
L 134.864322 475.522798 
L 135.651986 474.751357 
L 137.668342 473.138808 
L 138.312313 472.522613 
L 140.472362 470.796339 
L 141.009862 470.293869 
L 143.276382 468.483803 
L 143.734813 468.065126 
L 146.080402 466.193292 
L 146.48042 465.836382 
L 148.884422 463.919363 
L 149.24203 463.607638 
L 151.688442 461.658259 
L 152.016454 461.378894 
L 154.492462 459.407396 
L 154.801563 459.150151 
L 157.296482 457.165041 
L 157.596013 456.921407 
L 160.100503 454.930092 
L 160.399094 454.692663 
L 162.904523 452.701952 
L 163.210632 452.46392 
L 165.708543 450.480456 
L 166.03096 450.235176 
L 168.512563 448.265848 
L 168.860937 448.006432 
L 171.316583 446.058794 
L 171.702025 445.777688 
L 174.120603 443.860448 
L 174.556426 443.548945 
L 176.924623 441.672555 
L 177.427296 441.320201 
L 179.728643 439.497631 
L 180.319079 439.091457 
L 182.532663 437.339214 
L 183.237981 436.862714 
L 185.336683 435.202233 
L 186.192671 434.63397 
L 188.140704 433.093553 
L 189.195313 432.405226 
L 190.944724 431.022763 
L 192.263085 430.176482 
L 193.748744 429.003343 
L 195.420451 427.947739 
L 196.552764 427.05442 
L 197.88177 427.947739 
L 196.552764 429.046165 
L 195.47199 430.176482 
L 193.748744 431.588875 
L 192.94943 432.405226 
L 190.944724 434.036229 
L 190.345723 434.63397 
L 188.140704 436.416513 
L 187.683232 436.862714 
L 185.336683 438.749379 
L 184.977933 439.091457 
L 182.532663 441.048588 
L 182.241311 441.320201 
L 179.728643 443.32381 
L 179.481633 443.548945 
L 176.924623 445.581838 
L 176.704821 445.777688 
L 174.120603 447.827409 
L 173.915063 448.006432 
L 171.316583 450.063773 
L 171.115242 450.235176 
L 168.512563 452.293097 
L 168.307245 452.46392 
L 165.708543 454.516734 
L 165.492162 454.692663 
L 162.904523 456.735415 
L 162.670426 456.921407 
L 160.100503 458.949356 
L 159.841872 459.150151 
L 157.296482 461.158321 
L 157.005744 461.378894 
L 154.492462 463.361622 
L 154.160631 463.607638 
L 151.688442 465.558068 
L 151.30432 465.836382 
L 148.884422 467.74585 
L 148.433554 468.065126 
L 146.080402 469.92234 
L 145.543627 470.293869 
L 143.276382 472.083776 
L 142.627771 472.522613 
L 140.472362 474.224767 
L 139.676191 474.751357 
L 137.668342 476.337526 
L 136.674564 476.980101 
L 134.864322 478.410685 
L 133.601682 479.208844 
L 132.060302 480.427415 
z
M 198.702611 425.718995 
L 199.356784 425.203435 
L 200.133402 425.718995 
L 199.356784 426.366905 
z
M 216.180905 412.842805 
L 216.731949 412.346533 
L 216.180905 412.005723 
L 215.745185 412.346533 
z
" clip-path="url(#pbd1b6133ca)" style="fill: #ecf4fb"/>
    <path d="M 126.452261 484.177165 
L 127.097921 483.666332 
L 126.452261 483.143961 
L 125.800589 483.666332 
z
M 129.256281 482.362436 
L 130.42568 481.437588 
L 129.256281 480.492736 
L 128.07697 481.437588 
z
M 132.060302 480.427415 
L 133.601682 479.208844 
L 134.864322 478.410685 
L 136.674564 476.980101 
L 137.668342 476.337526 
L 139.676191 474.751357 
L 140.472362 474.224767 
L 142.627771 472.522613 
L 143.276382 472.083776 
L 145.543627 470.293869 
L 146.080402 469.92234 
L 148.433554 468.065126 
L 148.884422 467.74585 
L 151.30432 465.836382 
L 151.688442 465.558068 
L 154.160631 463.607638 
L 154.492462 463.361622 
L 157.005744 461.378894 
L 157.296482 461.158321 
L 159.841872 459.150151 
L 160.100503 458.949356 
L 162.670426 456.921407 
L 162.904523 456.735415 
L 165.492162 454.692663 
L 165.708543 454.516734 
L 168.307245 452.46392 
L 168.512563 452.293097 
L 171.115242 450.235176 
L 171.316583 450.063773 
L 173.915063 448.006432 
L 174.120603 447.827409 
L 176.704821 445.777688 
L 176.924623 445.581838 
L 179.481633 443.548945 
L 179.728643 443.32381 
L 182.241311 441.320201 
L 182.532663 441.048588 
L 184.977933 439.091457 
L 185.336683 438.749379 
L 187.683232 436.862714 
L 188.140704 436.416513 
L 190.345723 434.63397 
L 190.944724 434.036229 
L 192.94943 432.405226 
L 193.748744 431.588875 
L 195.47199 430.176482 
L 196.552764 429.046165 
L 197.88177 427.947739 
L 196.552764 427.05442 
L 195.420451 427.947739 
L 193.748744 429.003343 
L 192.263085 430.176482 
L 190.944724 431.022763 
L 189.195313 432.405226 
L 188.140704 433.093553 
L 186.192671 434.63397 
L 185.336683 435.202233 
L 183.237981 436.862714 
L 182.532663 437.339214 
L 180.319079 439.091457 
L 179.728643 439.497631 
L 177.427296 441.320201 
L 176.924623 441.672555 
L 174.556426 443.548945 
L 174.120603 443.860448 
L 171.702025 445.777688 
L 171.316583 446.058794 
L 168.860937 448.006432 
L 168.512563 448.265848 
L 166.03096 450.235176 
L 165.708543 450.480456 
L 163.210632 452.46392 
L 162.904523 452.701952 
L 160.399094 454.692663 
L 160.100503 454.930092 
L 157.596013 456.921407 
L 157.296482 457.165041 
L 154.801563 459.150151 
L 154.492462 459.407396 
L 152.016454 461.378894 
L 151.688442 461.658259 
L 149.24203 463.607638 
L 148.884422 463.919363 
L 146.48042 465.836382 
L 146.080402 466.193292 
L 143.734813 468.065126 
L 143.276382 468.483803 
L 141.009862 470.293869 
L 140.472362 470.796339 
L 138.312313 472.522613 
L 137.668342 473.138808 
L 135.651986 474.751357 
L 134.864322 475.522798 
L 133.043279 476.980101 
L 132.060302 477.965495 
L 130.50756 479.208844 
z
M 137.139935 474.751357 
L 137.668342 474.328772 
L 138.194519 474.751357 
L 137.668342 475.167028 
z
M 139.555919 472.522613 
L 140.472362 471.790208 
L 141.386836 472.522613 
L 140.472362 473.244785 
z
M 142.073018 470.293869 
L 143.276382 469.332851 
L 144.480131 470.293869 
L 143.276382 471.244185 
z
M 144.664479 468.065126 
L 146.080402 466.935186 
L 147.311921 465.836382 
L 148.884422 464.582426 
L 150.002687 463.607638 
L 151.688442 462.264375 
L 152.728119 461.378894 
L 154.492462 459.974053 
L 155.482443 459.150151 
L 157.296482 457.706791 
L 158.262057 456.921407 
L 160.100503 455.459662 
L 161.065088 454.692663 
L 162.904523 453.231123 
L 163.891147 452.46392 
L 165.708543 451.020819 
L 166.741257 450.235176 
L 168.512563 448.829519 
L 169.617899 448.006432 
L 171.316583 446.659161 
L 172.525226 445.777688 
L 174.120603 444.51301 
L 175.469424 443.548945 
L 176.924623 442.395949 
L 178.459302 441.320201 
L 179.728643 440.314936 
L 181.114542 441.320201 
L 179.728643 442.425321 
L 178.495843 443.548945 
L 176.924623 444.798108 
L 175.825242 445.777688 
L 174.120603 447.129754 
L 173.114071 448.006432 
L 171.316583 449.42959 
L 170.37029 450.235176 
L 168.512563 451.704068 
L 167.599271 452.46392 
L 165.708543 453.957478 
L 164.804316 454.692663 
L 162.904523 456.192411 
L 161.98698 456.921407 
L 160.100503 458.410043 
L 159.147218 459.150151 
L 157.296482 460.610278 
L 156.283366 461.378894 
L 154.492462 462.791738 
L 153.391958 463.607638 
L 151.688442 464.951625 
L 150.467321 465.836382 
L 148.884422 467.085399 
L 147.500891 468.065126 
L 146.080402 469.18624 
z
M 181.507157 439.091457 
L 182.532663 438.27968 
L 183.665505 439.091457 
L 182.532663 439.998154 
z
M 184.630062 436.862714 
L 185.336683 436.303639 
L 186.126753 436.862714 
L 185.336683 437.497944 
z
M 187.851742 434.63397 
L 188.140704 434.405472 
L 188.467785 434.63397 
L 188.140704 434.898383 
z
M 199.356784 426.366905 
L 200.133402 425.718995 
L 199.356784 425.203435 
L 198.702611 425.718995 
z
" clip-path="url(#pbd1b6133ca)" style="fill: #cadef0"/>
    <path d="M 137.668342 475.167028 
L 138.194519 474.751357 
L 137.668342 474.328772 
L 137.139935 474.751357 
z
M 140.472362 473.244785 
L 141.386836 472.522613 
L 140.472362 471.790208 
L 139.555919 472.522613 
z
M 143.276382 471.244185 
L 144.480131 470.293869 
L 143.276382 469.332851 
L 142.073018 470.293869 
z
M 142.990698 470.293869 
L 143.276382 470.065719 
L 143.562158 470.293869 
L 143.276382 470.519479 
z
M 146.080402 469.18624 
L 147.500891 468.065126 
L 148.884422 467.085399 
L 150.467321 465.836382 
L 151.688442 464.951625 
L 153.391958 463.607638 
L 154.492462 462.791738 
L 156.283366 461.378894 
L 157.296482 460.610278 
L 159.147218 459.150151 
L 160.100503 458.410043 
L 161.98698 456.921407 
L 162.904523 456.192411 
L 164.804316 454.692663 
L 165.708543 453.957478 
L 167.599271 452.46392 
L 168.512563 451.704068 
L 170.37029 450.235176 
L 171.316583 449.42959 
L 173.114071 448.006432 
L 174.120603 447.129754 
L 175.825242 445.777688 
L 176.924623 444.798108 
L 178.495843 443.548945 
L 179.728643 442.425321 
L 181.114542 441.320201 
L 179.728643 440.314936 
L 178.459302 441.320201 
L 176.924623 442.395949 
L 175.469424 443.548945 
L 174.120603 444.51301 
L 172.525226 445.777688 
L 171.316583 446.659161 
L 169.617899 448.006432 
L 168.512563 448.829519 
L 166.741257 450.235176 
L 165.708543 451.020819 
L 163.891147 452.46392 
L 162.904523 453.231123 
L 161.065088 454.692663 
L 160.100503 455.459662 
L 158.262057 456.921407 
L 157.296482 457.706791 
L 155.482443 459.150151 
L 154.492462 459.974053 
L 152.728119 461.378894 
L 151.688442 462.264375 
L 150.002687 463.607638 
L 148.884422 464.582426 
L 147.311921 465.836382 
L 146.080402 466.935186 
L 144.664479 468.065126 
z
M 145.466933 468.065126 
L 146.080402 467.575563 
L 146.695849 468.065126 
L 146.080402 468.550864 
z
M 148.029644 465.836382 
L 148.884422 465.154758 
L 149.744852 465.836382 
L 148.884422 466.515321 
z
M 150.659261 463.607638 
L 151.688442 462.787554 
L 152.728467 463.607638 
L 151.688442 464.428165 
z
M 153.342403 461.378894 
L 154.492462 460.46317 
L 155.659835 461.378894 
L 154.492462 462.299835 
z
M 156.070156 459.150151 
L 157.296482 458.174411 
L 158.547617 459.150151 
L 157.296482 460.137226 
z
M 158.836963 456.921407 
L 160.100503 455.916769 
L 161.397054 456.921407 
L 160.100503 457.944527 
z
M 161.639949 454.692663 
L 162.904523 453.687885 
L 164.210591 454.692663 
L 162.904523 455.723708 
z
M 164.478544 452.46392 
L 165.708543 451.487241 
L 166.988172 452.46392 
L 165.708543 453.474748 
z
M 167.35436 450.235176 
L 168.512563 449.31606 
L 169.727273 450.235176 
L 168.512563 451.195639 
z
M 170.271283 448.006432 
L 171.316583 447.177377 
L 172.422683 448.006432 
L 171.316583 448.882185 
z
M 173.235784 445.777688 
L 174.120603 445.07628 
L 175.06602 445.777688 
L 174.120603 446.527564 
z
M 176.257492 443.548945 
L 176.924623 443.020358 
L 177.644943 443.548945 
L 176.924623 444.121619 
z
M 179.350092 441.320201 
L 179.728643 441.020405 
L 180.141955 441.320201 
L 179.728643 441.649777 
z
M 182.532663 439.998154 
L 183.665505 439.091457 
L 182.532663 438.27968 
L 181.507157 439.091457 
z
M 185.336683 437.497944 
L 186.126753 436.862714 
L 185.336683 436.303639 
L 184.630062 436.862714 
z
M 188.140704 434.898383 
L 188.467785 434.63397 
L 188.140704 434.405472 
L 187.851742 434.63397 
z
" clip-path="url(#pbd1b6133ca)" style="fill: #7fb9da"/>
    <path d="M 143.276382 470.519479 
L 143.562158 470.293869 
L 143.276382 470.065719 
L 142.990698 470.293869 
z
M 146.080402 468.550864 
L 146.695849 468.065126 
L 146.080402 467.575563 
L 145.466933 468.065126 
z
M 148.884422 466.515321 
L 149.744852 465.836382 
L 148.884422 465.154758 
L 148.029644 465.836382 
z
M 148.578336 465.836382 
L 148.884422 465.592301 
L 149.192532 465.836382 
L 148.884422 466.079502 
z
M 151.688442 464.428165 
L 152.728467 463.607638 
L 151.688442 462.787554 
L 150.659261 463.607638 
z
M 151.161205 463.607638 
L 151.688442 463.187519 
L 152.221235 463.607638 
L 151.688442 464.027984 
z
M 154.492462 462.299835 
L 155.659835 461.378894 
L 154.492462 460.46317 
L 153.342403 461.378894 
z
M 153.812017 461.378894 
L 154.492462 460.837096 
L 155.183151 461.378894 
L 154.492462 461.923779 
z
M 157.296482 460.137226 
L 158.547617 459.150151 
L 157.296482 458.174411 
L 156.070156 459.150151 
z
M 156.519456 459.150151 
L 157.296482 458.531901 
L 158.089227 459.150151 
L 157.296482 459.775582 
z
M 160.100503 457.944527 
L 161.397054 456.921407 
L 160.100503 455.916769 
L 158.836963 456.921407 
z
M 159.276474 456.921407 
L 160.100503 456.266223 
L 160.946061 456.921407 
L 160.100503 457.588644 
z
M 162.904523 455.723708 
L 164.210591 454.692663 
L 162.904523 453.687885 
L 161.639949 454.692663 
z
M 162.079426 454.692663 
L 162.904523 454.037075 
L 163.756693 454.692663 
L 162.904523 455.36539 
z
M 165.708543 453.474748 
L 166.988172 452.46392 
L 165.708543 451.487241 
L 164.478544 452.46392 
z
M 164.927604 452.46392 
L 165.708543 451.843816 
L 166.520993 452.46392 
L 165.708543 453.105705 
z
M 168.512563 451.195639 
L 169.727273 450.235176 
L 168.512563 449.31606 
L 167.35436 450.235176 
z
M 167.823072 450.235176 
L 168.512563 449.688016 
L 169.235693 450.235176 
L 168.512563 450.80695 
z
M 171.316583 448.882185 
L 172.422683 448.006432 
L 171.316583 447.177377 
L 170.271283 448.006432 
z
M 170.770788 448.006432 
L 171.316583 447.573548 
L 171.894124 448.006432 
L 171.316583 448.463699 
z
M 174.120603 446.527564 
L 175.06602 445.777688 
L 174.120603 445.07628 
L 173.235784 445.777688 
z
M 173.778999 445.777688 
L 174.120603 445.506894 
L 174.485602 445.777688 
L 174.120603 446.067195 
z
M 176.924623 444.121619 
L 177.644943 443.548945 
L 176.924623 443.020358 
L 176.257492 443.548945 
z
M 176.859963 443.548945 
L 176.924623 443.497713 
L 176.994438 443.548945 
L 176.924623 443.60445 
z
M 179.728643 441.649777 
L 180.141955 441.320201 
L 179.728643 441.020405 
L 179.350092 441.320201 
z
" clip-path="url(#pbd1b6133ca)" style="fill: #4090c5"/>
    <path d="M 148.884422 466.079502 
L 149.192532 465.836382 
L 148.884422 465.592301 
L 148.578336 465.836382 
z
M 151.688442 464.027984 
L 152.221235 463.607638 
L 151.688442 463.187519 
L 151.161205 463.607638 
z
M 151.476855 463.607638 
L 151.688442 463.439039 
L 151.902258 463.607638 
L 151.688442 463.776328 
z
M 154.492462 461.923779 
L 155.183151 461.378894 
L 154.492462 460.837096 
L 153.812017 461.378894 
z
M 154.107337 461.378894 
L 154.492462 461.072242 
L 154.883385 461.378894 
L 154.492462 461.687294 
z
M 157.296482 459.775582 
L 158.089227 459.150151 
L 157.296482 458.531901 
L 156.519456 459.150151 
z
M 156.802002 459.150151 
L 157.296482 458.756712 
L 157.800966 459.150151 
L 157.296482 459.54816 
z
M 160.100503 457.588644 
L 160.946061 456.921407 
L 160.100503 456.266223 
L 159.276474 456.921407 
z
M 159.552862 456.921407 
L 160.100503 456.485979 
L 160.662451 456.921407 
L 160.100503 457.364845 
z
M 162.904523 455.36539 
L 163.756693 454.692663 
L 162.904523 454.037075 
L 162.079426 454.692663 
z
M 162.355794 454.692663 
L 162.904523 454.256665 
L 163.471257 454.692663 
L 162.904523 455.140059 
z
M 165.708543 453.105705 
L 166.520993 452.46392 
L 165.708543 451.843816 
L 164.927604 452.46392 
z
M 165.209998 452.46392 
L 165.708543 452.06805 
L 166.227204 452.46392 
L 165.708543 452.87363 
z
M 168.512563 450.80695 
L 169.235693 450.235176 
L 168.512563 449.688016 
L 167.823072 450.235176 
z
M 168.117825 450.235176 
L 168.512563 449.921923 
L 168.92656 450.235176 
L 168.512563 450.562521 
z
M 171.316583 448.463699 
L 171.894124 448.006432 
L 171.316583 447.573548 
L 170.770788 448.006432 
z
M 171.084906 448.006432 
L 171.316583 447.822683 
L 171.561736 448.006432 
L 171.316583 448.200531 
z
M 174.120603 446.067195 
L 174.485602 445.777688 
L 174.120603 445.506894 
L 173.778999 445.777688 
z
M 176.924623 443.60445 
L 176.994438 443.548945 
L 176.924623 443.497713 
L 176.859963 443.548945 
z
" clip-path="url(#pbd1b6133ca)" style="fill: #206fb4"/>
    <path d="M 151.688442 463.776328 
L 151.902258 463.607638 
L 151.688442 463.439039 
L 151.476855 463.607638 
z
M 154.492462 461.687294 
L 154.883385 461.378894 
L 154.492462 461.072242 
L 154.107337 461.378894 
z
M 154.32515 461.378894 
L 154.492462 461.245674 
L 154.662293 461.378894 
L 154.492462 461.512874 
z
M 157.296482 459.54816 
L 157.800966 459.150151 
L 157.296482 458.756712 
L 156.802002 459.150151 
z
M 157.010393 459.150151 
L 157.296482 458.922521 
L 157.588359 459.150151 
L 157.296482 459.380425 
z
M 160.100503 457.364845 
L 160.662451 456.921407 
L 160.100503 456.485979 
L 159.552862 456.921407 
z
M 159.756713 456.921407 
L 160.100503 456.64806 
L 160.453274 456.921407 
L 160.100503 457.199782 
z
M 162.904523 455.140059 
L 163.471257 454.692663 
L 162.904523 454.256665 
L 162.355794 454.692663 
z
M 162.559628 454.692663 
L 162.904523 454.418624 
L 163.260734 454.692663 
L 162.904523 454.973866 
z
M 165.708543 452.87363 
L 166.227204 452.46392 
L 165.708543 452.06805 
L 165.209998 452.46392 
z
M 165.418277 452.46392 
L 165.708543 452.233434 
L 166.010521 452.46392 
L 165.708543 452.702464 
z
M 168.512563 450.562521 
L 168.92656 450.235176 
L 168.512563 449.921923 
L 168.117825 450.235176 
z
M 168.335219 450.235176 
L 168.512563 450.094441 
L 168.698559 450.235176 
L 168.512563 450.382242 
z
M 171.316583 448.200531 
L 171.561736 448.006432 
L 171.316583 447.822683 
L 171.084906 448.006432 
z
" clip-path="url(#pbd1b6133ca)" style="fill: #0e59a2"/>
    <path d="M 154.492462 461.512874 
L 154.662293 461.378894 
L 154.492462 461.245674 
L 154.32515 461.378894 
z
M 157.296482 459.380425 
L 157.588359 459.150151 
L 157.296482 458.922521 
L 157.010393 459.150151 
z
M 157.180392 459.150151 
L 157.296482 459.057782 
L 157.414921 459.150151 
L 157.296482 459.243593 
z
M 160.100503 457.199782 
L 160.453274 456.921407 
L 160.100503 456.64806 
L 159.756713 456.921407 
z
M 159.923007 456.921407 
L 160.100503 456.780281 
L 160.282635 456.921407 
L 160.100503 457.065129 
z
M 162.904523 454.973866 
L 163.260734 454.692663 
L 162.904523 454.418624 
L 162.559628 454.692663 
z
M 162.72591 454.692663 
L 162.904523 454.550745 
L 163.088996 454.692663 
L 162.904523 454.838292 
z
M 165.708543 452.702464 
L 166.010521 452.46392 
L 165.708543 452.233434 
L 165.418277 452.46392 
z
M 165.588185 452.46392 
L 165.708543 452.368349 
L 165.833757 452.46392 
L 165.708543 452.562831 
z
M 168.512563 450.382242 
L 168.698559 450.235176 
L 168.512563 450.094441 
L 168.335219 450.235176 
z
" clip-path="url(#pbd1b6133ca)" style="fill: #08488e"/>
    <path d="M 157.296482 459.243593 
L 157.414921 459.150151 
L 157.296482 459.057782 
L 157.180392 459.150151 
z
M 160.100503 457.065129 
L 160.282635 456.921407 
L 160.100503 456.780281 
L 159.923007 456.921407 
z
M 160.040806 456.921407 
L 160.100503 456.873942 
L 160.161759 456.921407 
L 160.100503 456.969745 
z
M 162.904523 454.838292 
L 163.088996 454.692663 
L 162.904523 454.550745 
L 162.72591 454.692663 
z
M 162.8437 454.692663 
L 162.904523 454.644336 
L 162.967341 454.692663 
L 162.904523 454.742254 
z
M 165.708543 452.562831 
L 165.833757 452.46392 
L 165.708543 452.368349 
L 165.588185 452.46392 
z
" clip-path="url(#pbd1b6133ca)" style="fill: #083a7a"/>
    <path d="M 160.100503 456.969745 
L 160.161759 456.921407 
L 160.100503 456.873942 
L 160.040806 456.921407 
z
M 162.904523 454.742254 
L 162.967341 454.692663 
L 162.904523 454.644336 
L 162.8437 454.692663 
z
" clip-path="url(#pbd1b6133ca)" style="fill: #08326e"/>
   </g>
   <g id="matplotlib.axis_1">
    <g id="xtick_1">
     <g id="line2d_1">
      <defs>
       <path id="mb07ac65e0a" d="M 0 0 
L 0 3.5 
" style="stroke: #000000; stroke-width: 0.8"/>
      </defs>
      <g>
       <use xlink:href="#mb07ac65e0a" x="166.255647" y="512.64" style="stroke: #000000; stroke-width: 0.8"/>
      </g>
     </g>
     <g id="text_1">
      <!-- 0 -->
      <g transform="translate(163.074397 527.238438) scale(0.1 -0.1)">
       <defs>
        <path id="DejaVuSans-30" d="M 2034 4250 
Q 1547 4250 1301 3770 
Q 1056 3291 1056 2328 
Q 1056 1369 1301 889 
Q 1547 409 2034 409 
Q 2525 409 2770 889 
Q 3016 1369 3016 2328 
Q 3016 3291 2770 3770 
Q 2525 4250 2034 4250 
z
M 2034 4750 
Q 2819 4750 3233 4129 
Q 3647 3509 3647 2328 
Q 3647 1150 3233 529 
Q 2819 -91 2034 -91 
Q 1250 -91 836 529 
Q 422 1150 422 2328 
Q 422 3509 836 4129 
Q 1250 4750 2034 4750 
z
" transform="scale(0.015625)"/>
       </defs>
       <use xlink:href="#DejaVuSans-30"/>
      </g>
     </g>
    </g>
    <g id="xtick_2">
     <g id="line2d_2">
      <g>
       <use xlink:href="#mb07ac65e0a" x="243.502576" y="512.64" style="stroke: #000000; stroke-width: 0.8"/>
      </g>
     </g>
     <g id="text_2">
      <!-- 100 -->
      <g transform="translate(233.958826 527.238438) scale(0.1 -0.1)">
       <defs>
        <path id="DejaVuSans-31" d="M 794 531 
L 1825 531 
L 1825 4091 
L 703 3866 
L 703 4441 
L 1819 4666 
L 2450 4666 
L 2450 531 
L 3481 531 
L 3481 0 
L 794 0 
L 794 531 
z
" transform="scale(0.015625)"/>
       </defs>
       <use xlink:href="#DejaVuSans-31"/>
       <use xlink:href="#DejaVuSans-30" x="63.623047"/>
       <use xlink:href="#DejaVuSans-30" x="127.246094"/>
      </g>
     </g>
    </g>
    <g id="xtick_3">
     <g id="line2d_3">
      <g>
       <use xlink:href="#mb07ac65e0a" x="320.749505" y="512.64" style="stroke: #000000; stroke-width: 0.8"/>
      </g>
     </g>
     <g id="text_3">
      <!-- 200 -->
      <g transform="translate(311.205755 527.238438) scale(0.1 -0.1)">
       <defs>
        <path id="DejaVuSans-32" d="M 1228 531 
L 3431 531 
L 3431 0 
L 469 0 
L 469 531 
Q 828 903 1448 1529 
Q 2069 2156 2228 2338 
Q 2531 2678 2651 2914 
Q 2772 3150 2772 3378 
Q 2772 3750 2511 3984 
Q 2250 4219 1831 4219 
Q 1534 4219 1204 4116 
Q 875 4013 500 3803 
L 500 4441 
Q 881 4594 1212 4672 
Q 1544 4750 1819 4750 
Q 2544 4750 2975 4387 
Q 3406 4025 3406 3419 
Q 3406 3131 3298 2873 
Q 3191 2616 2906 2266 
Q 2828 2175 2409 1742 
Q 1991 1309 1228 531 
z
" transform="scale(0.015625)"/>
       </defs>
       <use xlink:href="#DejaVuSans-32"/>
       <use xlink:href="#DejaVuSans-30" x="63.623047"/>
       <use xlink:href="#DejaVuSans-30" x="127.246094"/>
      </g>
     </g>
    </g>
    <g id="xtick_4">
     <g id="line2d_4">
      <g>
       <use xlink:href="#mb07ac65e0a" x="397.996434" y="512.64" style="stroke: #000000; stroke-width: 0.8"/>
      </g>
     </g>
     <g id="text_4">
      <!-- 300 -->
      <g transform="translate(388.452684 527.238438) scale(0.1 -0.1)">
       <defs>
        <path id="DejaVuSans-33" d="M 2597 2516 
Q 3050 2419 3304 2112 
Q 3559 1806 3559 1356 
Q 3559 666 3084 287 
Q 2609 -91 1734 -91 
Q 1441 -91 1130 -33 
Q 819 25 488 141 
L 488 750 
Q 750 597 1062 519 
Q 1375 441 1716 441 
Q 2309 441 2620 675 
Q 2931 909 2931 1356 
Q 2931 1769 2642 2001 
Q 2353 2234 1838 2234 
L 1294 2234 
L 1294 2753 
L 1863 2753 
Q 2328 2753 2575 2939 
Q 2822 3125 2822 3475 
Q 2822 3834 2567 4026 
Q 2313 4219 1838 4219 
Q 1578 4219 1281 4162 
Q 984 4106 628 3988 
L 628 4550 
Q 988 4650 1302 4700 
Q 1616 4750 1894 4750 
Q 2613 4750 3031 4423 
Q 3450 4097 3450 3541 
Q 3450 3153 3228 2886 
Q 3006 2619 2597 2516 
z
" transform="scale(0.015625)"/>
       </defs>
       <use xlink:href="#DejaVuSans-33"/>
       <use xlink:href="#DejaVuSans-30" x="63.623047"/>
       <use xlink:href="#DejaVuSans-30" x="127.246094"/>
      </g>
     </g>
    </g>
    <g id="xtick_5">
     <g id="line2d_5">
      <g>
       <use xlink:href="#mb07ac65e0a" x="475.243362" y="512.64" style="stroke: #000000; stroke-width: 0.8"/>
      </g>
     </g>
     <g id="text_5">
      <!-- 400 -->
      <g transform="translate(465.699612 527.238438) scale(0.1 -0.1)">
       <defs>
        <path id="DejaVuSans-34" d="M 2419 4116 
L 825 1625 
L 2419 1625 
L 2419 4116 
z
M 2253 4666 
L 3047 4666 
L 3047 1625 
L 3713 1625 
L 3713 1100 
L 3047 1100 
L 3047 0 
L 2419 0 
L 2419 1100 
L 313 1100 
L 313 1709 
L 2253 4666 
z
" transform="scale(0.015625)"/>
       </defs>
       <use xlink:href="#DejaVuSans-34"/>
       <use xlink:href="#DejaVuSans-30" x="63.623047"/>
       <use xlink:href="#DejaVuSans-30" x="127.246094"/>
      </g>
     </g>
    </g>
    <g id="xtick_6">
     <g id="line2d_6">
      <g>
       <use xlink:href="#mb07ac65e0a" x="552.490291" y="512.64" style="stroke: #000000; stroke-width: 0.8"/>
      </g>
     </g>
     <g id="text_6">
      <!-- 500 -->
      <g transform="translate(542.946541 527.238438) scale(0.1 -0.1)">
       <defs>
        <path id="DejaVuSans-35" d="M 691 4666 
L 3169 4666 
L 3169 4134 
L 1269 4134 
L 1269 2991 
Q 1406 3038 1543 3061 
Q 1681 3084 1819 3084 
Q 2600 3084 3056 2656 
Q 3513 2228 3513 1497 
Q 3513 744 3044 326 
Q 2575 -91 1722 -91 
Q 1428 -91 1123 -41 
Q 819 9 494 109 
L 494 744 
Q 775 591 1075 516 
Q 1375 441 1709 441 
Q 2250 441 2565 725 
Q 2881 1009 2881 1497 
Q 2881 1984 2565 2268 
Q 2250 2553 1709 2553 
Q 1456 2553 1204 2497 
Q 953 2441 691 2322 
L 691 4666 
z
" transform="scale(0.015625)"/>
       </defs>
       <use xlink:href="#DejaVuSans-35"/>
       <use xlink:href="#DejaVuSans-30" x="63.623047"/>
       <use xlink:href="#DejaVuSans-30" x="127.246094"/>
      </g>
     </g>
    </g>
    <g id="xtick_7">
     <g id="line2d_7">
      <g>
       <use xlink:href="#mb07ac65e0a" x="629.73722" y="512.64" style="stroke: #000000; stroke-width: 0.8"/>
      </g>
     </g>
     <g id="text_7">
      <!-- 600 -->
      <g transform="translate(620.19347 527.238438) scale(0.1 -0.1)">
       <defs>
        <path id="DejaVuSans-36" d="M 2113 2584 
Q 1688 2584 1439 2293 
Q 1191 2003 1191 1497 
Q 1191 994 1439 701 
Q 1688 409 2113 409 
Q 2538 409 2786 701 
Q 3034 994 3034 1497 
Q 3034 2003 2786 2293 
Q 2538 2584 2113 2584 
z
M 3366 4563 
L 3366 3988 
Q 3128 4100 2886 4159 
Q 2644 4219 2406 4219 
Q 1781 4219 1451 3797 
Q 1122 3375 1075 2522 
Q 1259 2794 1537 2939 
Q 1816 3084 2150 3084 
Q 2853 3084 3261 2657 
Q 3669 2231 3669 1497 
Q 3669 778 3244 343 
Q 2819 -91 2113 -91 
Q 1303 -91 875 529 
Q 447 1150 447 2328 
Q 447 3434 972 4092 
Q 1497 4750 2381 4750 
Q 2619 4750 2861 4703 
Q 3103 4656 3366 4563 
z
" transform="scale(0.015625)"/>
       </defs>
       <use xlink:href="#DejaVuSans-36"/>
       <use xlink:href="#DejaVuSans-30" x="63.623047"/>
       <use xlink:href="#DejaVuSans-30" x="127.246094"/>
      </g>
     </g>
    </g>
    <g id="text_8">
     <!-- Ground Truth Energy -->
     <g transform="translate(317.257812 540.916563) scale(0.1 -0.1)">
      <defs>
       <path id="DejaVuSans-47" d="M 3809 666 
L 3809 1919 
L 2778 1919 
L 2778 2438 
L 4434 2438 
L 4434 434 
Q 4069 175 3628 42 
Q 3188 -91 2688 -91 
Q 1594 -91 976 548 
Q 359 1188 359 2328 
Q 359 3472 976 4111 
Q 1594 4750 2688 4750 
Q 3144 4750 3555 4637 
Q 3966 4525 4313 4306 
L 4313 3634 
Q 3963 3931 3569 4081 
Q 3175 4231 2741 4231 
Q 1884 4231 1454 3753 
Q 1025 3275 1025 2328 
Q 1025 1384 1454 906 
Q 1884 428 2741 428 
Q 3075 428 3337 486 
Q 3600 544 3809 666 
z
" transform="scale(0.015625)"/>
       <path id="DejaVuSans-72" d="M 2631 2963 
Q 2534 3019 2420 3045 
Q 2306 3072 2169 3072 
Q 1681 3072 1420 2755 
Q 1159 2438 1159 1844 
L 1159 0 
L 581 0 
L 581 3500 
L 1159 3500 
L 1159 2956 
Q 1341 3275 1631 3429 
Q 1922 3584 2338 3584 
Q 2397 3584 2469 3576 
Q 2541 3569 2628 3553 
L 2631 2963 
z
" transform="scale(0.015625)"/>
       <path id="DejaVuSans-6f" d="M 1959 3097 
Q 1497 3097 1228 2736 
Q 959 2375 959 1747 
Q 959 1119 1226 758 
Q 1494 397 1959 397 
Q 2419 397 2687 759 
Q 2956 1122 2956 1747 
Q 2956 2369 2687 2733 
Q 2419 3097 1959 3097 
z
M 1959 3584 
Q 2709 3584 3137 3096 
Q 3566 2609 3566 1747 
Q 3566 888 3137 398 
Q 2709 -91 1959 -91 
Q 1206 -91 779 398 
Q 353 888 353 1747 
Q 353 2609 779 3096 
Q 1206 3584 1959 3584 
z
" transform="scale(0.015625)"/>
       <path id="DejaVuSans-75" d="M 544 1381 
L 544 3500 
L 1119 3500 
L 1119 1403 
Q 1119 906 1312 657 
Q 1506 409 1894 409 
Q 2359 409 2629 706 
Q 2900 1003 2900 1516 
L 2900 3500 
L 3475 3500 
L 3475 0 
L 2900 0 
L 2900 538 
Q 2691 219 2414 64 
Q 2138 -91 1772 -91 
Q 1169 -91 856 284 
Q 544 659 544 1381 
z
M 1991 3584 
L 1991 3584 
z
" transform="scale(0.015625)"/>
       <path id="DejaVuSans-6e" d="M 3513 2113 
L 3513 0 
L 2938 0 
L 2938 2094 
Q 2938 2591 2744 2837 
Q 2550 3084 2163 3084 
Q 1697 3084 1428 2787 
Q 1159 2491 1159 1978 
L 1159 0 
L 581 0 
L 581 3500 
L 1159 3500 
L 1159 2956 
Q 1366 3272 1645 3428 
Q 1925 3584 2291 3584 
Q 2894 3584 3203 3211 
Q 3513 2838 3513 2113 
z
" transform="scale(0.015625)"/>
       <path id="DejaVuSans-64" d="M 2906 2969 
L 2906 4863 
L 3481 4863 
L 3481 0 
L 2906 0 
L 2906 525 
Q 2725 213 2448 61 
Q 2172 -91 1784 -91 
Q 1150 -91 751 415 
Q 353 922 353 1747 
Q 353 2572 751 3078 
Q 1150 3584 1784 3584 
Q 2172 3584 2448 3432 
Q 2725 3281 2906 2969 
z
M 947 1747 
Q 947 1113 1208 752 
Q 1469 391 1925 391 
Q 2381 391 2643 752 
Q 2906 1113 2906 1747 
Q 2906 2381 2643 2742 
Q 2381 3103 1925 3103 
Q 1469 3103 1208 2742 
Q 947 2381 947 1747 
z
" transform="scale(0.015625)"/>
       <path id="DejaVuSans-20" transform="scale(0.015625)"/>
       <path id="DejaVuSans-54" d="M -19 4666 
L 3928 4666 
L 3928 4134 
L 2272 4134 
L 2272 0 
L 1638 0 
L 1638 4134 
L -19 4134 
L -19 4666 
z
" transform="scale(0.015625)"/>
       <path id="DejaVuSans-74" d="M 1172 4494 
L 1172 3500 
L 2356 3500 
L 2356 3053 
L 1172 3053 
L 1172 1153 
Q 1172 725 1289 603 
Q 1406 481 1766 481 
L 2356 481 
L 2356 0 
L 1766 0 
Q 1100 0 847 248 
Q 594 497 594 1153 
L 594 3053 
L 172 3053 
L 172 3500 
L 594 3500 
L 594 4494 
L 1172 4494 
z
" transform="scale(0.015625)"/>
       <path id="DejaVuSans-68" d="M 3513 2113 
L 3513 0 
L 2938 0 
L 2938 2094 
Q 2938 2591 2744 2837 
Q 2550 3084 2163 3084 
Q 1697 3084 1428 2787 
Q 1159 2491 1159 1978 
L 1159 0 
L 581 0 
L 581 4863 
L 1159 4863 
L 1159 2956 
Q 1366 3272 1645 3428 
Q 1925 3584 2291 3584 
Q 2894 3584 3203 3211 
Q 3513 2838 3513 2113 
z
" transform="scale(0.015625)"/>
       <path id="DejaVuSans-45" d="M 628 4666 
L 3578 4666 
L 3578 4134 
L 1259 4134 
L 1259 2753 
L 3481 2753 
L 3481 2222 
L 1259 2222 
L 1259 531 
L 3634 531 
L 3634 0 
L 628 0 
L 628 4666 
z
" transform="scale(0.015625)"/>
       <path id="DejaVuSans-65" d="M 3597 1894 
L 3597 1613 
L 953 1613 
Q 991 1019 1311 708 
Q 1631 397 2203 397 
Q 2534 397 2845 478 
Q 3156 559 3463 722 
L 3463 178 
Q 3153 47 2828 -22 
Q 2503 -91 2169 -91 
Q 1331 -91 842 396 
Q 353 884 353 1716 
Q 353 2575 817 3079 
Q 1281 3584 2069 3584 
Q 2775 3584 3186 3129 
Q 3597 2675 3597 1894 
z
M 3022 2063 
Q 3016 2534 2758 2815 
Q 2500 3097 2075 3097 
Q 1594 3097 1305 2825 
Q 1016 2553 972 2059 
L 3022 2063 
z
" transform="scale(0.015625)"/>
       <path id="DejaVuSans-67" d="M 2906 1791 
Q 2906 2416 2648 2759 
Q 2391 3103 1925 3103 
Q 1463 3103 1205 2759 
Q 947 2416 947 1791 
Q 947 1169 1205 825 
Q 1463 481 1925 481 
Q 2391 481 2648 825 
Q 2906 1169 2906 1791 
z
M 3481 434 
Q 3481 -459 3084 -895 
Q 2688 -1331 1869 -1331 
Q 1566 -1331 1297 -1286 
Q 1028 -1241 775 -1147 
L 775 -588 
Q 1028 -725 1275 -790 
Q 1522 -856 1778 -856 
Q 2344 -856 2625 -561 
Q 2906 -266 2906 331 
L 2906 616 
Q 2728 306 2450 153 
Q 2172 0 1784 0 
Q 1141 0 747 490 
Q 353 981 353 1791 
Q 353 2603 747 3093 
Q 1141 3584 1784 3584 
Q 2172 3584 2450 3431 
Q 2728 3278 2906 2969 
L 2906 3500 
L 3481 3500 
L 3481 434 
z
" transform="scale(0.015625)"/>
       <path id="DejaVuSans-79" d="M 2059 -325 
Q 1816 -950 1584 -1140 
Q 1353 -1331 966 -1331 
L 506 -1331 
L 506 -850 
L 844 -850 
Q 1081 -850 1212 -737 
Q 1344 -625 1503 -206 
L 1606 56 
L 191 3500 
L 800 3500 
L 1894 763 
L 2988 3500 
L 3597 3500 
L 2059 -325 
z
" transform="scale(0.015625)"/>
      </defs>
      <use xlink:href="#DejaVuSans-47"/>
      <use xlink:href="#DejaVuSans-72" x="77.490234"/>
      <use xlink:href="#DejaVuSans-6f" x="116.353516"/>
      <use xlink:href="#DejaVuSans-75" x="177.535156"/>
      <use xlink:href="#DejaVuSans-6e" x="240.914062"/>
      <use xlink:href="#DejaVuSans-64" x="304.292969"/>
      <use xlink:href="#DejaVuSans-20" x="367.769531"/>
      <use xlink:href="#DejaVuSans-54" x="399.556641"/>
      <use xlink:href="#DejaVuSans-72" x="445.890625"/>
      <use xlink:href="#DejaVuSans-75" x="487.003906"/>
      <use xlink:href="#DejaVuSans-74" x="550.382812"/>
      <use xlink:href="#DejaVuSans-68" x="589.591797"/>
      <use xlink:href="#DejaVuSans-20" x="652.970703"/>
      <use xlink:href="#DejaVuSans-45" x="684.757812"/>
      <use xlink:href="#DejaVuSans-6e" x="747.941406"/>
      <use xlink:href="#DejaVuSans-65" x="811.320312"/>
      <use xlink:href="#DejaVuSans-72" x="872.84375"/>
      <use xlink:href="#DejaVuSans-67" x="912.207031"/>
      <use xlink:href="#DejaVuSans-79" x="975.683594"/>
     </g>
    </g>
   </g>
   <g id="matplotlib.axis_2">
    <g id="ytick_1">
     <g id="line2d_8">
      <defs>
       <path id="mfc82bbb595" d="M 0 0 
L -3.5 0 
" style="stroke: #000000; stroke-width: 0.8"/>
      </defs>
      <g>
       <use xlink:href="#mfc82bbb595" x="90" y="511.646882" style="stroke: #000000; stroke-width: 0.8"/>
      </g>
     </g>
     <g id="text_9">
      <!-- −100 -->
      <g transform="translate(55.532812 515.446101) scale(0.1 -0.1)">
       <defs>
        <path id="DejaVuSans-2212" d="M 678 2272 
L 4684 2272 
L 4684 1741 
L 678 1741 
L 678 2272 
z
" transform="scale(0.015625)"/>
       </defs>
       <use xlink:href="#DejaVuSans-2212"/>
       <use xlink:href="#DejaVuSans-31" x="83.789062"/>
       <use xlink:href="#DejaVuSans-30" x="147.412109"/>
       <use xlink:href="#DejaVuSans-30" x="211.035156"/>
      </g>
     </g>
    </g>
    <g id="ytick_2">
     <g id="line2d_9">
      <g>
       <use xlink:href="#mfc82bbb595" x="90" y="450.193761" style="stroke: #000000; stroke-width: 0.8"/>
      </g>
     </g>
     <g id="text_10">
      <!-- 0 -->
      <g transform="translate(76.6375 453.99298) scale(0.1 -0.1)">
       <use xlink:href="#DejaVuSans-30"/>
      </g>
     </g>
    </g>
    <g id="ytick_3">
     <g id="line2d_10">
      <g>
       <use xlink:href="#mfc82bbb595" x="90" y="388.74064" style="stroke: #000000; stroke-width: 0.8"/>
      </g>
     </g>
     <g id="text_11">
      <!-- 100 -->
      <g transform="translate(63.9125 392.539859) scale(0.1 -0.1)">
       <use xlink:href="#DejaVuSans-31"/>
       <use xlink:href="#DejaVuSans-30" x="63.623047"/>
       <use xlink:href="#DejaVuSans-30" x="127.246094"/>
      </g>
     </g>
    </g>
    <g id="ytick_4">
     <g id="line2d_11">
      <g>
       <use xlink:href="#mfc82bbb595" x="90" y="327.28752" style="stroke: #000000; stroke-width: 0.8"/>
      </g>
     </g>
     <g id="text_12">
      <!-- 200 -->
      <g transform="translate(63.9125 331.086739) scale(0.1 -0.1)">
       <use xlink:href="#DejaVuSans-32"/>
       <use xlink:href="#DejaVuSans-30" x="63.623047"/>
       <use xlink:href="#DejaVuSans-30" x="127.246094"/>
      </g>
     </g>
    </g>
    <g id="ytick_5">
     <g id="line2d_12">
      <g>
       <use xlink:href="#mfc82bbb595" x="90" y="265.834399" style="stroke: #000000; stroke-width: 0.8"/>
      </g>
     </g>
     <g id="text_13">
      <!-- 300 -->
      <g transform="translate(63.9125 269.633618) scale(0.1 -0.1)">
       <use xlink:href="#DejaVuSans-33"/>
       <use xlink:href="#DejaVuSans-30" x="63.623047"/>
       <use xlink:href="#DejaVuSans-30" x="127.246094"/>
      </g>
     </g>
    </g>
    <g id="ytick_6">
     <g id="line2d_13">
      <g>
       <use xlink:href="#mfc82bbb595" x="90" y="204.381278" style="stroke: #000000; stroke-width: 0.8"/>
      </g>
     </g>
     <g id="text_14">
      <!-- 400 -->
      <g transform="translate(63.9125 208.180497) scale(0.1 -0.1)">
       <use xlink:href="#DejaVuSans-34"/>
       <use xlink:href="#DejaVuSans-30" x="63.623047"/>
       <use xlink:href="#DejaVuSans-30" x="127.246094"/>
      </g>
     </g>
    </g>
    <g id="ytick_7">
     <g id="line2d_14">
      <g>
       <use xlink:href="#mfc82bbb595" x="90" y="142.928158" style="stroke: #000000; stroke-width: 0.8"/>
      </g>
     </g>
     <g id="text_15">
      <!-- 500 -->
      <g transform="translate(63.9125 146.727376) scale(0.1 -0.1)">
       <use xlink:href="#DejaVuSans-35"/>
       <use xlink:href="#DejaVuSans-30" x="63.623047"/>
       <use xlink:href="#DejaVuSans-30" x="127.246094"/>
      </g>
     </g>
    </g>
    <g id="ytick_8">
     <g id="line2d_15">
      <g>
       <use xlink:href="#mfc82bbb595" x="90" y="81.475037" style="stroke: #000000; stroke-width: 0.8"/>
      </g>
     </g>
     <g id="text_16">
      <!-- 600 -->
      <g transform="translate(63.9125 85.274256) scale(0.1 -0.1)">
       <use xlink:href="#DejaVuSans-36"/>
       <use xlink:href="#DejaVuSans-30" x="63.623047"/>
       <use xlink:href="#DejaVuSans-30" x="127.246094"/>
      </g>
     </g>
    </g>
    <g id="text_17">
     <!-- Predicted Energy -->
     <g transform="translate(49.453125 333.445625) rotate(-90) scale(0.1 -0.1)">
      <defs>
       <path id="DejaVuSans-50" d="M 1259 4147 
L 1259 2394 
L 2053 2394 
Q 2494 2394 2734 2622 
Q 2975 2850 2975 3272 
Q 2975 3691 2734 3919 
Q 2494 4147 2053 4147 
L 1259 4147 
z
M 628 4666 
L 2053 4666 
Q 2838 4666 3239 4311 
Q 3641 3956 3641 3272 
Q 3641 2581 3239 2228 
Q 2838 1875 2053 1875 
L 1259 1875 
L 1259 0 
L 628 0 
L 628 4666 
z
" transform="scale(0.015625)"/>
       <path id="DejaVuSans-69" d="M 603 3500 
L 1178 3500 
L 1178 0 
L 603 0 
L 603 3500 
z
M 603 4863 
L 1178 4863 
L 1178 4134 
L 603 4134 
L 603 4863 
z
" transform="scale(0.015625)"/>
       <path id="DejaVuSans-63" d="M 3122 3366 
L 3122 2828 
Q 2878 2963 2633 3030 
Q 2388 3097 2138 3097 
Q 1578 3097 1268 2742 
Q 959 2388 959 1747 
Q 959 1106 1268 751 
Q 1578 397 2138 397 
Q 2388 397 2633 464 
Q 2878 531 3122 666 
L 3122 134 
Q 2881 22 2623 -34 
Q 2366 -91 2075 -91 
Q 1284 -91 818 406 
Q 353 903 353 1747 
Q 353 2603 823 3093 
Q 1294 3584 2113 3584 
Q 2378 3584 2631 3529 
Q 2884 3475 3122 3366 
z
" transform="scale(0.015625)"/>
      </defs>
      <use xlink:href="#DejaVuSans-50"/>
      <use xlink:href="#DejaVuSans-72" x="58.552734"/>
      <use xlink:href="#DejaVuSans-65" x="97.416016"/>
      <use xlink:href="#DejaVuSans-64" x="158.939453"/>
      <use xlink:href="#DejaVuSans-69" x="222.416016"/>
      <use xlink:href="#DejaVuSans-63" x="250.199219"/>
      <use xlink:href="#DejaVuSans-74" x="305.179688"/>
      <use xlink:href="#DejaVuSans-65" x="344.388672"/>
      <use xlink:href="#DejaVuSans-64" x="405.912109"/>
      <use xlink:href="#DejaVuSans-20" x="469.388672"/>
      <use xlink:href="#DejaVuSans-45" x="501.175781"/>
      <use xlink:href="#DejaVuSans-6e" x="564.359375"/>
      <use xlink:href="#DejaVuSans-65" x="627.738281"/>
      <use xlink:href="#DejaVuSans-72" x="689.261719"/>
      <use xlink:href="#DejaVuSans-67" x="728.625"/>
      <use xlink:href="#DejaVuSans-79" x="792.101562"/>
     </g>
    </g>
   </g>
   <g id="line2d_16">
    <path d="M 136.852489 473.585187 
L 601.147511 104.219331 
" clip-path="url(#pbd1b6133ca)" style="fill: none; stroke-dasharray: 5.55,2.4; stroke-dashoffset: 0; stroke: #ff0000; stroke-width: 1.5"/>
   </g>
   <g id="patch_3">
    <path d="M 90 512.64 
L 90 69.12 
" style="fill: none; stroke: #000000; stroke-width: 0.8; stroke-linejoin: miter; stroke-linecap: square"/>
   </g>
   <g id="patch_4">
    <path d="M 648 512.64 
L 648 69.12 
" style="fill: none; stroke: #000000; stroke-width: 0.8; stroke-linejoin: miter; stroke-linecap: square"/>
   </g>
   <g id="patch_5">
    <path d="M 90 512.64 
L 648 512.64 
" style="fill: none; stroke: #000000; stroke-width: 0.8; stroke-linejoin: miter; stroke-linecap: square"/>
   </g>
   <g id="patch_6">
    <path d="M 90 69.12 
L 648 69.12 
" style="fill: none; stroke: #000000; stroke-width: 0.8; stroke-linejoin: miter; stroke-linecap: square"/>
   </g>
   <g id="text_18">
    <!-- Energy R2 Score: 0.9928173453101545 -->
    <g transform="translate(145.8 113.472) scale(0.1 -0.1)">
     <defs>
      <path id="DejaVuSans-52" d="M 2841 2188 
Q 3044 2119 3236 1894 
Q 3428 1669 3622 1275 
L 4263 0 
L 3584 0 
L 2988 1197 
Q 2756 1666 2539 1819 
Q 2322 1972 1947 1972 
L 1259 1972 
L 1259 0 
L 628 0 
L 628 4666 
L 2053 4666 
Q 2853 4666 3247 4331 
Q 3641 3997 3641 3322 
Q 3641 2881 3436 2590 
Q 3231 2300 2841 2188 
z
M 1259 4147 
L 1259 2491 
L 2053 2491 
Q 2509 2491 2742 2702 
Q 2975 2913 2975 3322 
Q 2975 3731 2742 3939 
Q 2509 4147 2053 4147 
L 1259 4147 
z
" transform="scale(0.015625)"/>
      <path id="DejaVuSans-53" d="M 3425 4513 
L 3425 3897 
Q 3066 4069 2747 4153 
Q 2428 4238 2131 4238 
Q 1616 4238 1336 4038 
Q 1056 3838 1056 3469 
Q 1056 3159 1242 3001 
Q 1428 2844 1947 2747 
L 2328 2669 
Q 3034 2534 3370 2195 
Q 3706 1856 3706 1288 
Q 3706 609 3251 259 
Q 2797 -91 1919 -91 
Q 1588 -91 1214 -16 
Q 841 59 441 206 
L 441 856 
Q 825 641 1194 531 
Q 1563 422 1919 422 
Q 2459 422 2753 634 
Q 3047 847 3047 1241 
Q 3047 1584 2836 1778 
Q 2625 1972 2144 2069 
L 1759 2144 
Q 1053 2284 737 2584 
Q 422 2884 422 3419 
Q 422 4038 858 4394 
Q 1294 4750 2059 4750 
Q 2388 4750 2728 4690 
Q 3069 4631 3425 4513 
z
" transform="scale(0.015625)"/>
      <path id="DejaVuSans-3a" d="M 750 794 
L 1409 794 
L 1409 0 
L 750 0 
L 750 794 
z
M 750 3309 
L 1409 3309 
L 1409 2516 
L 750 2516 
L 750 3309 
z
" transform="scale(0.015625)"/>
      <path id="DejaVuSans-2e" d="M 684 794 
L 1344 794 
L 1344 0 
L 684 0 
L 684 794 
z
" transform="scale(0.015625)"/>
      <path id="DejaVuSans-39" d="M 703 97 
L 703 672 
Q 941 559 1184 500 
Q 1428 441 1663 441 
Q 2288 441 2617 861 
Q 2947 1281 2994 2138 
Q 2813 1869 2534 1725 
Q 2256 1581 1919 1581 
Q 1219 1581 811 2004 
Q 403 2428 403 3163 
Q 403 3881 828 4315 
Q 1253 4750 1959 4750 
Q 2769 4750 3195 4129 
Q 3622 3509 3622 2328 
Q 3622 1225 3098 567 
Q 2575 -91 1691 -91 
Q 1453 -91 1209 -44 
Q 966 3 703 97 
z
M 1959 2075 
Q 2384 2075 2632 2365 
Q 2881 2656 2881 3163 
Q 2881 3666 2632 3958 
Q 2384 4250 1959 4250 
Q 1534 4250 1286 3958 
Q 1038 3666 1038 3163 
Q 1038 2656 1286 2365 
Q 1534 2075 1959 2075 
z
" transform="scale(0.015625)"/>
      <path id="DejaVuSans-38" d="M 2034 2216 
Q 1584 2216 1326 1975 
Q 1069 1734 1069 1313 
Q 1069 891 1326 650 
Q 1584 409 2034 409 
Q 2484 409 2743 651 
Q 3003 894 3003 1313 
Q 3003 1734 2745 1975 
Q 2488 2216 2034 2216 
z
M 1403 2484 
Q 997 2584 770 2862 
Q 544 3141 544 3541 
Q 544 4100 942 4425 
Q 1341 4750 2034 4750 
Q 2731 4750 3128 4425 
Q 3525 4100 3525 3541 
Q 3525 3141 3298 2862 
Q 3072 2584 2669 2484 
Q 3125 2378 3379 2068 
Q 3634 1759 3634 1313 
Q 3634 634 3220 271 
Q 2806 -91 2034 -91 
Q 1263 -91 848 271 
Q 434 634 434 1313 
Q 434 1759 690 2068 
Q 947 2378 1403 2484 
z
M 1172 3481 
Q 1172 3119 1398 2916 
Q 1625 2713 2034 2713 
Q 2441 2713 2670 2916 
Q 2900 3119 2900 3481 
Q 2900 3844 2670 4047 
Q 2441 4250 2034 4250 
Q 1625 4250 1398 4047 
Q 1172 3844 1172 3481 
z
" transform="scale(0.015625)"/>
      <path id="DejaVuSans-37" d="M 525 4666 
L 3525 4666 
L 3525 4397 
L 1831 0 
L 1172 0 
L 2766 4134 
L 525 4134 
L 525 4666 
z
" transform="scale(0.015625)"/>
     </defs>
     <use xlink:href="#DejaVuSans-45"/>
     <use xlink:href="#DejaVuSans-6e" x="63.183594"/>
     <use xlink:href="#DejaVuSans-65" x="126.5625"/>
     <use xlink:href="#DejaVuSans-72" x="188.085938"/>
     <use xlink:href="#DejaVuSans-67" x="227.449219"/>
     <use xlink:href="#DejaVuSans-79" x="290.925781"/>
     <use xlink:href="#DejaVuSans-20" x="350.105469"/>
     <use xlink:href="#DejaVuSans-52" x="381.892578"/>
     <use xlink:href="#DejaVuSans-32" x="451.375"/>
     <use xlink:href="#DejaVuSans-20" x="514.998047"/>
     <use xlink:href="#DejaVuSans-53" x="546.785156"/>
     <use xlink:href="#DejaVuSans-63" x="610.261719"/>
     <use xlink:href="#DejaVuSans-6f" x="665.242188"/>
     <use xlink:href="#DejaVuSans-72" x="726.423828"/>
     <use xlink:href="#DejaVuSans-65" x="765.287109"/>
     <use xlink:href="#DejaVuSans-3a" x="826.810547"/>
     <use xlink:href="#DejaVuSans-20" x="860.501953"/>
     <use xlink:href="#DejaVuSans-30" x="892.289062"/>
     <use xlink:href="#DejaVuSans-2e" x="955.912109"/>
     <use xlink:href="#DejaVuSans-39" x="987.699219"/>
     <use xlink:href="#DejaVuSans-39" x="1051.322266"/>
     <use xlink:href="#DejaVuSans-32" x="1114.945312"/>
     <use xlink:href="#DejaVuSans-38" x="1178.568359"/>
     <use xlink:href="#DejaVuSans-31" x="1242.191406"/>
     <use xlink:href="#DejaVuSans-37" x="1305.814453"/>
     <use xlink:href="#DejaVuSans-33" x="1369.4375"/>
     <use xlink:href="#DejaVuSans-34" x="1433.060547"/>
     <use xlink:href="#DejaVuSans-35" x="1496.683594"/>
     <use xlink:href="#DejaVuSans-33" x="1560.306641"/>
     <use xlink:href="#DejaVuSans-31" x="1623.929688"/>
     <use xlink:href="#DejaVuSans-30" x="1687.552734"/>
     <use xlink:href="#DejaVuSans-31" x="1751.175781"/>
     <use xlink:href="#DejaVuSans-35" x="1814.798828"/>
     <use xlink:href="#DejaVuSans-34" x="1878.421875"/>
     <use xlink:href="#DejaVuSans-35" x="1942.044922"/>
    </g>
   </g>
   <g id="text_19">
    <!-- MVE In Distribution -->
    <g transform="translate(311.53875 63.12) scale(0.12 -0.12)">
     <defs>
      <path id="DejaVuSans-4d" d="M 628 4666 
L 1569 4666 
L 2759 1491 
L 3956 4666 
L 4897 4666 
L 4897 0 
L 4281 0 
L 4281 4097 
L 3078 897 
L 2444 897 
L 1241 4097 
L 1241 0 
L 628 0 
L 628 4666 
z
" transform="scale(0.015625)"/>
      <path id="DejaVuSans-56" d="M 1831 0 
L 50 4666 
L 709 4666 
L 2188 738 
L 3669 4666 
L 4325 4666 
L 2547 0 
L 1831 0 
z
" transform="scale(0.015625)"/>
      <path id="DejaVuSans-49" d="M 628 4666 
L 1259 4666 
L 1259 0 
L 628 0 
L 628 4666 
z
" transform="scale(0.015625)"/>
      <path id="DejaVuSans-44" d="M 1259 4147 
L 1259 519 
L 2022 519 
Q 2988 519 3436 956 
Q 3884 1394 3884 2338 
Q 3884 3275 3436 3711 
Q 2988 4147 2022 4147 
L 1259 4147 
z
M 628 4666 
L 1925 4666 
Q 3281 4666 3915 4102 
Q 4550 3538 4550 2338 
Q 4550 1131 3912 565 
Q 3275 0 1925 0 
L 628 0 
L 628 4666 
z
" transform="scale(0.015625)"/>
      <path id="DejaVuSans-73" d="M 2834 3397 
L 2834 2853 
Q 2591 2978 2328 3040 
Q 2066 3103 1784 3103 
Q 1356 3103 1142 2972 
Q 928 2841 928 2578 
Q 928 2378 1081 2264 
Q 1234 2150 1697 2047 
L 1894 2003 
Q 2506 1872 2764 1633 
Q 3022 1394 3022 966 
Q 3022 478 2636 193 
Q 2250 -91 1575 -91 
Q 1294 -91 989 -36 
Q 684 19 347 128 
L 347 722 
Q 666 556 975 473 
Q 1284 391 1588 391 
Q 1994 391 2212 530 
Q 2431 669 2431 922 
Q 2431 1156 2273 1281 
Q 2116 1406 1581 1522 
L 1381 1569 
Q 847 1681 609 1914 
Q 372 2147 372 2553 
Q 372 3047 722 3315 
Q 1072 3584 1716 3584 
Q 2034 3584 2315 3537 
Q 2597 3491 2834 3397 
z
" transform="scale(0.015625)"/>
      <path id="DejaVuSans-62" d="M 3116 1747 
Q 3116 2381 2855 2742 
Q 2594 3103 2138 3103 
Q 1681 3103 1420 2742 
Q 1159 2381 1159 1747 
Q 1159 1113 1420 752 
Q 1681 391 2138 391 
Q 2594 391 2855 752 
Q 3116 1113 3116 1747 
z
M 1159 2969 
Q 1341 3281 1617 3432 
Q 1894 3584 2278 3584 
Q 2916 3584 3314 3078 
Q 3713 2572 3713 1747 
Q 3713 922 3314 415 
Q 2916 -91 2278 -91 
Q 1894 -91 1617 61 
Q 1341 213 1159 525 
L 1159 0 
L 581 0 
L 581 4863 
L 1159 4863 
L 1159 2969 
z
" transform="scale(0.015625)"/>
     </defs>
     <use xlink:href="#DejaVuSans-4d"/>
     <use xlink:href="#DejaVuSans-56" x="86.279297"/>
     <use xlink:href="#DejaVuSans-45" x="154.6875"/>
     <use xlink:href="#DejaVuSans-20" x="217.871094"/>
     <use xlink:href="#DejaVuSans-49" x="249.658203"/>
     <use xlink:href="#DejaVuSans-6e" x="279.150391"/>
     <use xlink:href="#DejaVuSans-20" x="342.529297"/>
     <use xlink:href="#DejaVuSans-44" x="374.316406"/>
     <use xlink:href="#DejaVuSans-69" x="451.318359"/>
     <use xlink:href="#DejaVuSans-73" x="479.101562"/>
     <use xlink:href="#DejaVuSans-74" x="531.201172"/>
     <use xlink:href="#DejaVuSans-72" x="570.410156"/>
     <use xlink:href="#DejaVuSans-69" x="611.523438"/>
     <use xlink:href="#DejaVuSans-62" x="639.306641"/>
     <use xlink:href="#DejaVuSans-75" x="702.783203"/>
     <use xlink:href="#DejaVuSans-74" x="766.162109"/>
     <use xlink:href="#DejaVuSans-69" x="805.371094"/>
     <use xlink:href="#DejaVuSans-6f" x="833.154297"/>
     <use xlink:href="#DejaVuSans-6e" x="894.335938"/>
    </g>
   </g>
  </g>
 </g>
 <defs>
  <clipPath id="pbd1b6133ca">
   <rect x="90" y="69.12" width="558" height="443.52"/>
  </clipPath>
 </defs>
</svg>
