<?xml version="1.0" encoding="utf-8" standalone="no"?>
<!DOCTYPE svg PUBLIC "-//W3C//DTD SVG 1.1//EN"
  "http://www.w3.org/Graphics/SVG/1.1/DTD/svg11.dtd">
<svg xmlns:xlink="http://www.w3.org/1999/xlink" width="720pt" height="576pt" viewBox="0 0 720 576" xmlns="http://www.w3.org/2000/svg" version="1.1">
 <metadata>
  <rdf:RDF xmlns:dc="http://purl.org/dc/elements/1.1/" xmlns:cc="http://creativecommons.org/ns#" xmlns:rdf="http://www.w3.org/1999/02/22-rdf-syntax-ns#">
   <cc:Work>
    <dc:type rdf:resource="http://purl.org/dc/dcmitype/StillImage"/>
    <dc:date>2024-11-29T22:45:04.137802</dc:date>
    <dc:format>image/svg+xml</dc:format>
    <dc:creator>
     <cc:Agent>
      <dc:title>Matplotlib v3.8.4, https://matplotlib.org/</dc:title>
     </cc:Agent>
    </dc:creator>
   </cc:Work>
  </rdf:RDF>
 </metadata>
 <defs>
  <style type="text/css">*{stroke-linejoin: round; stroke-linecap: butt}</style>
 </defs>
 <g id="figure_1">
  <g id="patch_1">
   <path d="M 0 576 
L 720 576 
L 720 0 
L 0 0 
z
" style="fill: #ffffff"/>
  </g>
  <g id="axes_1">
   <g id="patch_2">
    <path d="M 90 512.64 
L 648 512.64 
L 648 69.12 
L 90 69.12 
z
" style="fill: #ffffff"/>
   </g>
   <g id="QuadContourSet_1">
    <path d="M 112.432161 495.251259 
L 112.987466 494.81005 
L 112.432161 494.368791 
L 111.877091 494.81005 
z
M 115.236181 493.596646 
L 116.514414 492.581307 
L 118.040201 491.728485 
L 119.77305 490.352563 
L 120.844221 489.733463 
L 122.872549 488.123819 
L 123.648241 487.660544 
L 125.874615 485.895075 
L 126.452261 485.538599 
L 128.815655 483.666332 
L 129.256281 483.385382 
L 131.71805 481.437588 
L 132.060302 481.212242 
L 134.596087 479.208844 
L 134.864322 479.026703 
L 137.459204 476.980101 
L 137.668342 476.833921 
L 140.313846 474.751357 
L 140.472362 474.637555 
L 143.164609 472.522613 
L 143.276382 472.440349 
L 146.015033 470.293869 
L 146.080402 470.244604 
L 148.868239 468.065126 
L 148.884422 468.052639 
L 151.688442 466.211818 
L 152.160926 465.836382 
L 154.492462 464.381879 
L 155.466691 463.607638 
L 157.296482 462.435211 
L 158.625482 461.378894 
L 160.100503 460.408879 
L 161.684029 459.150151 
L 162.904523 458.326081 
L 164.671568 456.921407 
L 165.708543 456.201839 
L 167.607017 454.692663 
L 168.512563 454.046048 
L 170.502821 452.46392 
L 171.316583 451.865121 
L 173.367036 450.235176 
L 174.120603 449.662896 
L 176.204472 448.006432 
L 176.924623 447.441121 
L 179.01732 445.777688 
L 179.728643 445.199673 
L 181.80542 443.548945 
L 182.532663 442.936553 
L 184.566258 441.320201 
L 185.336683 440.647682 
L 187.294702 439.091457 
L 188.140704 438.326517 
L 189.982521 436.862714 
L 190.944724 435.963541 
L 192.617728 434.63397 
L 193.748744 433.545699 
L 195.183875 432.405226 
L 196.552764 431.055819 
L 197.659323 430.176482 
L 196.552764 427.947739 
L 193.748744 429.615523 
L 193.042985 430.176482 
L 190.944724 431.435219 
L 189.724319 432.405226 
L 188.140704 433.365324 
L 186.544545 434.63397 
L 185.336683 435.375659 
L 183.465686 436.862714 
L 182.532663 437.444189 
L 180.460013 439.091457 
L 179.728643 439.554821 
L 177.507275 441.320201 
L 176.924623 441.695871 
L 174.592772 443.548945 
L 174.120603 443.858953 
L 171.705968 445.777688 
L 171.316583 446.038135 
L 168.839423 448.006432 
L 168.512563 448.229279 
L 165.987964 450.235176 
L 165.708543 450.429526 
L 163.148028 452.46392 
L 162.904523 452.636907 
L 160.317165 454.692663 
L 160.100503 454.850063 
L 157.493678 456.921407 
L 157.296482 457.068055 
L 154.676371 459.150151 
L 154.492462 459.290233 
L 151.864396 461.378894 
L 151.688442 461.516167 
L 149.057166 463.607638 
L 148.884422 463.745618 
L 146.254332 465.836382 
L 146.080402 465.978549 
L 143.455811 468.065126 
L 143.276382 468.215187 
L 140.66187 470.293869 
L 140.472362 470.456128 
L 137.873263 472.522613 
L 137.668342 472.702496 
L 135.09142 474.751357 
L 134.864322 474.95616 
L 132.318718 476.980101 
L 132.060302 477.220063 
L 129.558881 479.208844 
L 129.256281 479.49874 
L 126.817626 481.437588 
L 126.452261 481.799171 
L 124.103737 483.666332 
L 123.648241 484.132242 
L 121.430908 485.895075 
L 120.844221 486.515325 
L 118.820987 488.123819 
L 118.040201 488.976991 
L 116.309915 490.352563 
L 115.236181 491.565972 
L 113.958999 492.581307 
z
M 120.388194 488.123819 
L 120.844221 487.761272 
L 121.301397 488.123819 
L 120.844221 488.486625 
z
M 122.609435 485.895075 
L 123.648241 485.069199 
L 124.691283 485.895075 
L 123.648241 486.722186 
z
M 125.019752 483.666332 
L 126.452261 482.527435 
L 127.553509 481.437588 
L 129.256281 480.083802 
L 130.169582 479.208844 
L 132.060302 477.705608 
L 132.841603 476.980101 
L 134.864322 475.371891 
L 135.55241 474.751357 
L 137.668342 473.06902 
L 138.290805 472.522613 
L 140.472362 470.788106 
L 141.049601 470.293869 
L 143.276382 468.523454 
L 143.824408 468.065126 
L 146.080402 466.271587 
L 146.612841 465.836382 
L 148.884422 464.030611 
L 149.413964 463.607638 
L 151.688442 461.799768 
L 152.227912 461.378894 
L 154.492462 459.579138 
L 155.055666 459.150151 
L 157.296482 457.369465 
L 157.898982 456.921407 
L 160.100503 455.172111 
L 160.760468 454.692663 
L 162.904523 452.989128 
L 163.643831 452.46392 
L 165.708543 450.823454 
L 166.554322 450.235176 
L 168.512563 448.679274 
L 169.49945 448.006432 
L 171.316583 446.562578 
L 172.490045 445.777688 
L 174.120603 444.482002 
L 175.54173 443.548945 
L 176.924623 442.449988 
L 178.676886 441.320201 
L 179.728643 440.484342 
L 181.927161 439.091457 
L 182.532663 438.610226 
L 185.336683 436.862714 
L 185.597642 439.091457 
L 185.336683 439.298866 
L 183.02108 441.320201 
L 182.532663 441.708407 
L 180.346941 443.548945 
L 179.728643 444.040399 
L 177.590682 445.777688 
L 176.924623 446.307122 
L 174.759869 448.006432 
L 174.120603 448.514583 
L 171.854961 450.235176 
L 171.316583 450.663143 
L 168.869345 452.46392 
L 168.512563 452.747538 
L 165.788533 454.692663 
L 165.708543 454.756251 
L 162.904523 456.853591 
L 162.828298 456.921407 
L 160.100503 459.013653 
L 159.941827 459.150151 
L 157.296482 461.188537 
L 157.068353 461.378894 
L 154.492462 463.372406 
L 154.202553 463.607638 
L 151.688442 465.560878 
L 151.339982 465.836382 
L 148.884422 467.750539 
L 148.476716 468.065126 
L 146.080402 469.938518 
L 145.608893 470.293869 
L 143.276382 472.122028 
L 142.732103 472.522613 
L 140.472362 474.297792 
L 139.840587 474.751357 
L 137.668342 476.461367 
L 136.926197 476.980101 
L 134.864322 478.606316 
L 133.976996 479.208844 
L 132.060302 480.723129 
L 130.975193 481.437588 
L 129.256281 482.797621 
L 127.893841 483.666332 
L 126.452261 484.808343 
z
M 199.356784 428.471761 
L 200.016204 427.947739 
L 199.356784 426.734666 
L 196.552764 427.947739 
z
M 202.160804 425.764336 
L 202.217855 425.718995 
L 202.160804 425.62109 
L 201.951506 425.718995 
z
" clip-path="url(#p825f7a0272)" style="fill: #eaf2fb"/>
    <path d="M 120.844221 488.486625 
L 121.301397 488.123819 
L 120.844221 487.761272 
L 120.388194 488.123819 
z
M 123.648241 486.722186 
L 124.691283 485.895075 
L 123.648241 485.069199 
L 122.609435 485.895075 
z
M 123.130956 485.895075 
L 123.648241 485.483821 
L 124.167635 485.895075 
L 123.648241 486.306944 
z
M 126.452261 484.808343 
L 127.893841 483.666332 
L 129.256281 482.797621 
L 130.975193 481.437588 
L 132.060302 480.723129 
L 133.976996 479.208844 
L 134.864322 478.606316 
L 136.926197 476.980101 
L 137.668342 476.461367 
L 139.840587 474.751357 
L 140.472362 474.297792 
L 142.732103 472.522613 
L 143.276382 472.122028 
L 145.608893 470.293869 
L 146.080402 469.938518 
L 148.476716 468.065126 
L 148.884422 467.750539 
L 151.339982 465.836382 
L 151.688442 465.560878 
L 154.202553 463.607638 
L 154.492462 463.372406 
L 157.068353 461.378894 
L 157.296482 461.188537 
L 159.941827 459.150151 
L 160.100503 459.013653 
L 162.828298 456.921407 
L 162.904523 456.853591 
L 165.708543 454.756251 
L 165.788533 454.692663 
L 168.512563 452.747538 
L 168.869345 452.46392 
L 171.316583 450.663143 
L 171.854961 450.235176 
L 174.120603 448.514583 
L 174.759869 448.006432 
L 176.924623 446.307122 
L 177.590682 445.777688 
L 179.728643 444.040399 
L 180.346941 443.548945 
L 182.532663 441.708407 
L 183.02108 441.320201 
L 185.336683 439.298866 
L 185.597642 439.091457 
L 185.336683 436.862714 
L 182.532663 438.610226 
L 181.927161 439.091457 
L 179.728643 440.484342 
L 178.676886 441.320201 
L 176.924623 442.449988 
L 175.54173 443.548945 
L 174.120603 444.482002 
L 172.490045 445.777688 
L 171.316583 446.562578 
L 169.49945 448.006432 
L 168.512563 448.679274 
L 166.554322 450.235176 
L 165.708543 450.823454 
L 163.643831 452.46392 
L 162.904523 452.989128 
L 160.760468 454.692663 
L 160.100503 455.172111 
L 157.898982 456.921407 
L 157.296482 457.369465 
L 155.055666 459.150151 
L 154.492462 459.579138 
L 152.227912 461.378894 
L 151.688442 461.799768 
L 149.413964 463.607638 
L 148.884422 464.030611 
L 146.612841 465.836382 
L 146.080402 466.271587 
L 143.824408 468.065126 
L 143.276382 468.523454 
L 141.049601 470.293869 
L 140.472362 470.788106 
L 138.290805 472.522613 
L 137.668342 473.06902 
L 135.55241 474.751357 
L 134.864322 475.371891 
L 132.841603 476.980101 
L 132.060302 477.705608 
L 130.169582 479.208844 
L 129.256281 480.083802 
L 127.553509 481.437588 
L 126.452261 482.527435 
L 125.019752 483.666332 
z
M 125.425106 483.666332 
L 126.452261 482.849706 
L 127.48592 483.666332 
L 126.452261 484.48519 
z
M 127.879152 481.437588 
L 129.256281 480.342704 
L 130.43983 479.208844 
L 132.060302 477.920471 
L 133.07299 476.980101 
L 134.864322 475.555861 
L 135.756407 474.751357 
L 137.668342 473.231214 
L 138.475576 472.522613 
L 140.472362 470.935013 
L 141.221179 470.293869 
L 143.276382 468.659868 
L 143.987519 468.065126 
L 146.080402 466.401262 
L 146.771489 465.836382 
L 148.884422 464.156727 
L 149.571855 463.607638 
L 151.688442 461.925268 
L 152.388776 461.378894 
L 154.492462 459.706985 
L 155.223512 459.150151 
L 157.296482 457.502845 
L 158.078336 456.921407 
L 160.100503 455.314624 
L 160.956638 454.692663 
L 162.904523 453.144993 
L 163.863234 452.46392 
L 165.708543 450.997775 
L 166.804946 450.235176 
L 168.512563 448.878405 
L 169.791525 448.006432 
L 171.316583 446.794655 
L 172.837014 445.777688 
L 174.120603 444.757714 
L 175.961663 443.548945 
L 176.924623 442.7837 
L 179.678206 443.548945 
L 176.959366 445.777688 
L 176.924623 445.805305 
L 174.120603 448.006432 
L 174.120603 448.006432 
L 171.316583 450.15478 
L 171.23841 450.235176 
L 168.512563 452.309725 
L 168.353315 452.46392 
L 165.708543 454.477095 
L 165.47537 454.692663 
L 162.904523 456.655877 
L 162.606069 456.921407 
L 160.100503 458.843201 
L 159.743681 459.150151 
L 157.296482 461.035855 
L 156.885373 461.378894 
L 154.492462 463.230796 
L 154.028027 463.607638 
L 151.688442 465.425287 
L 151.168485 465.836382 
L 148.884422 467.616854 
L 148.303459 468.065126 
L 146.080402 469.80307 
L 145.429168 470.293869 
L 143.276382 471.981164 
L 142.540711 472.522613 
L 140.472362 474.14744 
L 139.631161 474.751357 
L 137.668342 476.296505 
L 136.690331 476.980101 
L 134.864322 478.420287 
L 133.703036 479.208844 
L 132.060302 480.506687 
L 130.646464 481.437588 
L 129.256281 482.537524 
z
M 179.194462 441.320201 
L 179.728643 440.895673 
L 181.924737 441.320201 
L 179.728643 443.461787 
z
" clip-path="url(#p825f7a0272)" style="fill: #d6e6f4"/>
    <path d="M 123.648241 486.306944 
L 124.167635 485.895075 
L 123.648241 485.483821 
L 123.130956 485.895075 
z
M 126.452261 484.48519 
L 127.48592 483.666332 
L 126.452261 482.849706 
L 125.425106 483.666332 
z
M 129.256281 482.537524 
L 130.646464 481.437588 
L 132.060302 480.506687 
L 133.703036 479.208844 
L 134.864322 478.420287 
L 136.690331 476.980101 
L 137.668342 476.296505 
L 139.631161 474.751357 
L 140.472362 474.14744 
L 142.540711 472.522613 
L 143.276382 471.981164 
L 145.429168 470.293869 
L 146.080402 469.80307 
L 148.303459 468.065126 
L 148.884422 467.616854 
L 151.168485 465.836382 
L 151.688442 465.425287 
L 154.028027 463.607638 
L 154.492462 463.230796 
L 156.885373 461.378894 
L 157.296482 461.035855 
L 159.743681 459.150151 
L 160.100503 458.843201 
L 162.606069 456.921407 
L 162.904523 456.655877 
L 165.47537 454.692663 
L 165.708543 454.477095 
L 168.353315 452.46392 
L 168.512563 452.309725 
L 171.23841 450.235176 
L 171.316583 450.15478 
L 174.120603 448.006432 
L 174.120603 448.006432 
L 176.924623 445.805305 
L 176.959366 445.777688 
L 179.678206 443.548945 
L 176.924623 442.7837 
L 175.961663 443.548945 
L 174.120603 444.757714 
L 172.837014 445.777688 
L 171.316583 446.794655 
L 169.791525 448.006432 
L 168.512563 448.878405 
L 166.804946 450.235176 
L 165.708543 450.997775 
L 163.863234 452.46392 
L 162.904523 453.144993 
L 160.956638 454.692663 
L 160.100503 455.314624 
L 158.078336 456.921407 
L 157.296482 457.502845 
L 155.223512 459.150151 
L 154.492462 459.706985 
L 152.388776 461.378894 
L 151.688442 461.925268 
L 149.571855 463.607638 
L 148.884422 464.156727 
L 146.771489 465.836382 
L 146.080402 466.401262 
L 143.987519 468.065126 
L 143.276382 468.659868 
L 141.221179 470.293869 
L 140.472362 470.935013 
L 138.475576 472.522613 
L 137.668342 473.231214 
L 135.756407 474.751357 
L 134.864322 475.555861 
L 133.07299 476.980101 
L 132.060302 477.920471 
L 130.43983 479.208844 
L 129.256281 480.342704 
L 127.879152 481.437588 
z
M 131.582696 479.208844 
L 132.060302 478.829119 
L 132.544469 479.208844 
L 132.060302 479.591361 
z
M 134.051516 476.980101 
L 134.864322 476.333861 
L 135.692862 476.980101 
L 134.864322 477.633576 
z
M 136.619103 474.751357 
L 137.668342 473.917127 
L 138.745505 474.751357 
L 137.668342 475.599309 
z
M 139.256963 472.522613 
L 140.472362 471.556277 
L 141.731319 472.522613 
L 140.472362 473.511609 
z
M 141.946777 470.293869 
L 143.276382 469.236759 
L 144.669117 470.293869 
L 143.276382 471.385458 
z
M 144.677312 468.065126 
L 146.080402 466.949654 
L 147.442403 465.836382 
L 148.884422 464.690063 
L 150.239568 463.607638 
L 151.688442 462.456 
L 153.06906 461.378894 
L 154.492462 460.247642 
L 155.933323 459.150151 
L 157.296482 458.066904 
L 158.83682 456.921407 
L 160.100503 455.917304 
L 161.666269 456.921407 
L 160.100503 458.122365 
L 158.905729 459.150151 
L 157.296482 460.390165 
L 156.111561 461.378894 
L 154.492462 462.631933 
L 153.289966 463.607638 
L 151.688442 464.85188 
L 150.443232 465.836382 
L 148.884422 467.051505 
L 147.570762 468.065126 
L 146.080402 469.230261 
z
M 161.786234 454.692663 
L 162.904523 453.804139 
L 164.380457 454.692663 
L 162.904523 455.819753 
z
M 164.79108 452.46392 
L 165.708543 451.734972 
L 167.023489 452.46392 
L 165.708543 453.464844 
z
M 167.864828 450.235176 
L 168.512563 449.720525 
L 169.546533 450.235176 
L 168.512563 451.022096 
z
M 171.0267 448.006432 
L 171.316583 447.776097 
L 171.849572 448.006432 
L 171.316583 448.414791 
z
M 179.728643 443.461787 
L 181.924737 441.320201 
L 179.728643 440.895673 
L 179.194462 441.320201 
z
" clip-path="url(#p825f7a0272)" style="fill: #afd1e7"/>
    <path d="M 132.060302 479.591361 
L 132.544469 479.208844 
L 132.060302 478.829119 
L 131.582696 479.208844 
z
M 134.864322 477.633576 
L 135.692862 476.980101 
L 134.864322 476.333861 
L 134.051516 476.980101 
z
M 134.649531 476.980101 
L 134.864322 476.809326 
L 135.08327 476.980101 
L 134.864322 477.152787 
z
M 137.668342 475.599309 
L 138.745505 474.751357 
L 137.668342 473.917127 
L 136.619103 474.751357 
z
M 137.14633 474.751357 
L 137.668342 474.336315 
L 138.204247 474.751357 
L 137.668342 475.173226 
z
M 140.472362 473.511609 
L 141.731319 472.522613 
L 140.472362 471.556277 
L 139.256963 472.522613 
z
M 139.734499 472.522613 
L 140.472362 471.935955 
L 141.236669 472.522613 
L 140.472362 473.123028 
z
M 143.276382 471.385458 
L 144.669117 470.293869 
L 143.276382 469.236759 
L 141.946777 470.293869 
z
M 142.390218 470.293869 
L 143.276382 469.589319 
L 144.204622 470.293869 
L 143.276382 471.021399 
z
M 146.080402 469.230261 
L 147.570762 468.065126 
L 148.884422 467.051505 
L 150.443232 465.836382 
L 151.688442 464.85188 
L 153.289966 463.607638 
L 154.492462 462.631933 
L 156.111561 461.378894 
L 157.296482 460.390165 
L 158.905729 459.150151 
L 160.100503 458.122365 
L 161.666269 456.921407 
L 160.100503 455.917304 
L 158.83682 456.921407 
L 157.296482 458.066904 
L 155.933323 459.150151 
L 154.492462 460.247642 
L 153.06906 461.378894 
L 151.688442 462.456 
L 150.239568 463.607638 
L 148.884422 464.690063 
L 147.442403 465.836382 
L 146.080402 466.949654 
L 144.677312 468.065126 
z
M 145.09887 468.065126 
L 146.080402 467.284798 
L 147.122984 468.065126 
L 146.080402 468.880196 
z
M 147.852425 465.836382 
L 148.884422 465.016006 
L 150.000003 465.836382 
L 148.884422 466.705999 
z
M 150.647632 463.607638 
L 151.688442 462.78035 
L 152.838909 463.607638 
L 151.688442 464.501448 
z
M 153.484807 461.378894 
L 154.492462 460.578058 
L 155.638654 461.378894 
L 154.492462 462.265945 
z
M 156.367116 459.150151 
L 157.296482 458.411621 
L 158.393624 459.150151 
L 157.296482 459.99556 
z
M 159.300359 456.921407 
L 160.100503 456.285625 
L 161.091921 456.921407 
L 160.100503 457.681835 
z
M 162.904523 455.819753 
L 164.380457 454.692663 
L 162.904523 453.804139 
L 161.786234 454.692663 
z
M 162.293231 454.692663 
L 162.904523 454.206968 
L 163.711314 454.692663 
L 162.904523 455.308765 
z
M 165.708543 453.464844 
L 167.023489 452.46392 
L 165.708543 451.734972 
L 164.79108 452.46392 
z
M 165.358122 452.46392 
L 165.708543 452.185501 
L 166.210781 452.46392 
L 165.708543 452.846218 
z
M 168.512563 451.022096 
L 169.546533 450.235176 
L 168.512563 449.720525 
L 167.864828 450.235176 
z
M 171.316583 448.414791 
L 171.849572 448.006432 
L 171.316583 447.776097 
L 171.0267 448.006432 
z
" clip-path="url(#p825f7a0272)" style="fill: #63a8d3"/>
    <path d="M 134.864322 477.152787 
L 135.08327 476.980101 
L 134.864322 476.809326 
L 134.649531 476.980101 
z
M 137.668342 475.173226 
L 138.204247 474.751357 
L 137.668342 474.336315 
L 137.14633 474.751357 
z
M 140.472362 473.123028 
L 141.236669 472.522613 
L 140.472362 471.935955 
L 139.734499 472.522613 
z
M 140.207312 472.522613 
L 140.472362 472.311878 
L 140.746911 472.522613 
L 140.472362 472.73829 
z
M 143.276382 471.021399 
L 144.204622 470.293869 
L 143.276382 469.589319 
L 142.390218 470.293869 
z
M 142.829273 470.293869 
L 143.276382 469.938393 
L 143.74472 470.293869 
L 143.276382 470.66094 
z
M 146.080402 468.880196 
L 147.122984 468.065126 
L 146.080402 467.284798 
L 145.09887 468.065126 
z
M 145.516259 468.065126 
L 146.080402 467.616626 
L 146.679634 468.065126 
L 146.080402 468.533594 
z
M 148.884422 466.705999 
L 150.000003 465.836382 
L 148.884422 465.016006 
L 147.852425 465.836382 
z
M 148.258391 465.836382 
L 148.884422 465.338724 
L 149.561157 465.836382 
L 148.884422 466.36391 
z
M 151.688442 464.501448 
L 152.838909 463.607638 
L 151.688442 462.78035 
L 150.647632 463.607638 
z
M 151.051661 463.607638 
L 151.688442 463.101492 
L 152.392313 463.607638 
L 151.688442 464.154483 
z
M 154.492462 462.265945 
L 155.638654 461.378894 
L 154.492462 460.578058 
L 153.484807 461.378894 
z
M 153.896443 461.378894 
L 154.492462 460.905207 
L 155.170425 461.378894 
L 154.492462 461.903578 
z
M 157.296482 459.99556 
L 158.393624 459.150151 
L 157.296482 458.411621 
L 156.367116 459.150151 
z
M 156.796619 459.150151 
L 157.296482 458.75293 
L 157.886585 459.150151 
L 157.296482 459.604858 
z
M 160.100503 457.681835 
L 161.091921 456.921407 
L 160.100503 456.285625 
L 159.300359 456.921407 
z
M 159.759313 456.921407 
L 160.100503 456.650303 
L 160.523254 456.921407 
L 160.100503 457.245661 
z
M 162.904523 455.308765 
L 163.711314 454.692663 
L 162.904523 454.206968 
L 162.293231 454.692663 
z
M 162.795214 454.692663 
L 162.904523 454.605814 
L 163.048789 454.692663 
L 162.904523 454.802832 
z
M 165.708543 452.846218 
L 166.210781 452.46392 
L 165.708543 452.185501 
L 165.358122 452.46392 
z
" clip-path="url(#p825f7a0272)" style="fill: #3383be"/>
    <path d="M 140.472362 472.73829 
L 140.746911 472.522613 
L 140.472362 472.311878 
L 140.207312 472.522613 
z
M 143.276382 470.66094 
L 143.74472 470.293869 
L 143.276382 469.938393 
L 142.829273 470.293869 
z
M 143.155669 470.293869 
L 143.276382 470.197896 
L 143.402826 470.293869 
L 143.276382 470.392973 
z
M 146.080402 468.533594 
L 146.679634 468.065126 
L 146.080402 467.616626 
L 145.516259 468.065126 
z
M 145.826549 468.065126 
L 146.080402 467.86331 
L 146.350044 468.065126 
L 146.080402 468.275927 
z
M 148.884422 466.36391 
L 149.561157 465.836382 
L 148.884422 465.338724 
L 148.258391 465.836382 
z
M 148.560189 465.836382 
L 148.884422 465.578636 
L 149.234915 465.836382 
L 148.884422 466.109598 
z
M 151.688442 464.154483 
L 152.392313 463.607638 
L 151.688442 463.101492 
L 151.051661 463.607638 
z
M 151.352019 463.607638 
L 151.688442 463.340232 
L 152.06031 463.607638 
L 151.688442 463.896546 
z
M 154.492462 461.903578 
L 155.170425 461.378894 
L 154.492462 460.905207 
L 153.896443 461.378894 
z
M 154.202456 461.378894 
L 154.492462 461.148411 
L 154.82234 461.378894 
L 154.492462 461.634191 
z
M 157.296482 459.604858 
L 157.886585 459.150151 
L 157.296482 458.75293 
L 156.796619 459.150151 
z
M 157.115915 459.150151 
L 157.296482 459.006661 
L 157.509648 459.150151 
L 157.296482 459.314407 
z
M 160.100503 457.245661 
L 160.523254 456.921407 
L 160.100503 456.650303 
L 159.759313 456.921407 
z
M 162.904523 454.802832 
L 163.048789 454.692663 
L 162.904523 454.605814 
L 162.795214 454.692663 
z
" clip-path="url(#p825f7a0272)" style="fill: #1460a8"/>
    <path d="M 143.276382 470.392973 
L 143.402826 470.293869 
L 143.276382 470.197896 
L 143.155669 470.293869 
z
M 146.080402 468.275927 
L 146.350044 468.065126 
L 146.080402 467.86331 
L 145.826549 468.065126 
z
M 146.002024 468.065126 
L 146.080402 468.002815 
L 146.163655 468.065126 
L 146.080402 468.130211 
z
M 148.884422 466.109598 
L 149.234915 465.836382 
L 148.884422 465.578636 
L 148.560189 465.836382 
z
M 148.730862 465.836382 
L 148.884422 465.714311 
L 149.05042 465.836382 
L 148.884422 465.96578 
z
M 151.688442 463.896546 
L 152.06031 463.607638 
L 151.688442 463.340232 
L 151.352019 463.607638 
z
M 151.521877 463.607638 
L 151.688442 463.475244 
L 151.872556 463.607638 
L 151.688442 463.750678 
z
M 154.492462 461.634191 
L 154.82234 461.378894 
L 154.492462 461.148411 
L 154.202456 461.378894 
z
M 154.375512 461.378894 
L 154.492462 461.285948 
L 154.625491 461.378894 
L 154.492462 461.481847 
z
M 157.296482 459.314407 
L 157.509648 459.150151 
L 157.296482 459.006661 
L 157.115915 459.150151 
z
" clip-path="url(#p825f7a0272)" style="fill: #084990"/>
    <path d="M 146.080402 468.130211 
L 146.163655 468.065126 
L 146.080402 468.002815 
L 146.002024 468.065126 
z
M 148.884422 465.96578 
L 149.05042 465.836382 
L 148.884422 465.714311 
L 148.730862 465.836382 
z
M 148.846201 465.836382 
L 148.884422 465.805998 
L 148.925739 465.836382 
L 148.884422 465.868589 
z
M 151.688442 463.750678 
L 151.872556 463.607638 
L 151.688442 463.475244 
L 151.521877 463.607638 
z
M 151.636666 463.607638 
L 151.688442 463.566484 
L 151.745673 463.607638 
L 151.688442 463.652102 
z
M 154.492462 461.481847 
L 154.625491 461.378894 
L 154.492462 461.285948 
L 154.375512 461.378894 
z
" clip-path="url(#p825f7a0272)" style="fill: #083a7a"/>
    <path d="M 148.884422 465.868589 
L 148.925739 465.836382 
L 148.884422 465.805998 
L 148.846201 465.836382 
z
M 151.688442 463.652102 
L 151.745673 463.607638 
L 151.688442 463.566484 
L 151.636666 463.607638 
z
" clip-path="url(#p825f7a0272)" style="fill: #08326e"/>
   </g>
   <g id="matplotlib.axis_1">
    <g id="xtick_1">
     <g id="line2d_1">
      <defs>
       <path id="m366544eb26" d="M 0 0 
L 0 3.5 
" style="stroke: #000000; stroke-width: 0.8"/>
      </defs>
      <g>
       <use xlink:href="#m366544eb26" x="153.067795" y="512.64" style="stroke: #000000; stroke-width: 0.8"/>
      </g>
     </g>
     <g id="text_1">
      <!-- 0 -->
      <g transform="translate(149.886545 527.238438) scale(0.1 -0.1)">
       <defs>
        <path id="DejaVuSans-30" d="M 2034 4250 
Q 1547 4250 1301 3770 
Q 1056 3291 1056 2328 
Q 1056 1369 1301 889 
Q 1547 409 2034 409 
Q 2525 409 2770 889 
Q 3016 1369 3016 2328 
Q 3016 3291 2770 3770 
Q 2525 4250 2034 4250 
z
M 2034 4750 
Q 2819 4750 3233 4129 
Q 3647 3509 3647 2328 
Q 3647 1150 3233 529 
Q 2819 -91 2034 -91 
Q 1250 -91 836 529 
Q 422 1150 422 2328 
Q 422 3509 836 4129 
Q 1250 4750 2034 4750 
z
" transform="scale(0.015625)"/>
       </defs>
       <use xlink:href="#DejaVuSans-30"/>
      </g>
     </g>
    </g>
    <g id="xtick_2">
     <g id="line2d_2">
      <g>
       <use xlink:href="#m366544eb26" x="235.339382" y="512.64" style="stroke: #000000; stroke-width: 0.8"/>
      </g>
     </g>
     <g id="text_2">
      <!-- 100 -->
      <g transform="translate(225.795632 527.238438) scale(0.1 -0.1)">
       <defs>
        <path id="DejaVuSans-31" d="M 794 531 
L 1825 531 
L 1825 4091 
L 703 3866 
L 703 4441 
L 1819 4666 
L 2450 4666 
L 2450 531 
L 3481 531 
L 3481 0 
L 794 0 
L 794 531 
z
" transform="scale(0.015625)"/>
       </defs>
       <use xlink:href="#DejaVuSans-31"/>
       <use xlink:href="#DejaVuSans-30" x="63.623047"/>
       <use xlink:href="#DejaVuSans-30" x="127.246094"/>
      </g>
     </g>
    </g>
    <g id="xtick_3">
     <g id="line2d_3">
      <g>
       <use xlink:href="#m366544eb26" x="317.610969" y="512.64" style="stroke: #000000; stroke-width: 0.8"/>
      </g>
     </g>
     <g id="text_3">
      <!-- 200 -->
      <g transform="translate(308.067219 527.238438) scale(0.1 -0.1)">
       <defs>
        <path id="DejaVuSans-32" d="M 1228 531 
L 3431 531 
L 3431 0 
L 469 0 
L 469 531 
Q 828 903 1448 1529 
Q 2069 2156 2228 2338 
Q 2531 2678 2651 2914 
Q 2772 3150 2772 3378 
Q 2772 3750 2511 3984 
Q 2250 4219 1831 4219 
Q 1534 4219 1204 4116 
Q 875 4013 500 3803 
L 500 4441 
Q 881 4594 1212 4672 
Q 1544 4750 1819 4750 
Q 2544 4750 2975 4387 
Q 3406 4025 3406 3419 
Q 3406 3131 3298 2873 
Q 3191 2616 2906 2266 
Q 2828 2175 2409 1742 
Q 1991 1309 1228 531 
z
" transform="scale(0.015625)"/>
       </defs>
       <use xlink:href="#DejaVuSans-32"/>
       <use xlink:href="#DejaVuSans-30" x="63.623047"/>
       <use xlink:href="#DejaVuSans-30" x="127.246094"/>
      </g>
     </g>
    </g>
    <g id="xtick_4">
     <g id="line2d_4">
      <g>
       <use xlink:href="#m366544eb26" x="399.882556" y="512.64" style="stroke: #000000; stroke-width: 0.8"/>
      </g>
     </g>
     <g id="text_4">
      <!-- 300 -->
      <g transform="translate(390.338806 527.238438) scale(0.1 -0.1)">
       <defs>
        <path id="DejaVuSans-33" d="M 2597 2516 
Q 3050 2419 3304 2112 
Q 3559 1806 3559 1356 
Q 3559 666 3084 287 
Q 2609 -91 1734 -91 
Q 1441 -91 1130 -33 
Q 819 25 488 141 
L 488 750 
Q 750 597 1062 519 
Q 1375 441 1716 441 
Q 2309 441 2620 675 
Q 2931 909 2931 1356 
Q 2931 1769 2642 2001 
Q 2353 2234 1838 2234 
L 1294 2234 
L 1294 2753 
L 1863 2753 
Q 2328 2753 2575 2939 
Q 2822 3125 2822 3475 
Q 2822 3834 2567 4026 
Q 2313 4219 1838 4219 
Q 1578 4219 1281 4162 
Q 984 4106 628 3988 
L 628 4550 
Q 988 4650 1302 4700 
Q 1616 4750 1894 4750 
Q 2613 4750 3031 4423 
Q 3450 4097 3450 3541 
Q 3450 3153 3228 2886 
Q 3006 2619 2597 2516 
z
" transform="scale(0.015625)"/>
       </defs>
       <use xlink:href="#DejaVuSans-33"/>
       <use xlink:href="#DejaVuSans-30" x="63.623047"/>
       <use xlink:href="#DejaVuSans-30" x="127.246094"/>
      </g>
     </g>
    </g>
    <g id="xtick_5">
     <g id="line2d_5">
      <g>
       <use xlink:href="#m366544eb26" x="482.154143" y="512.64" style="stroke: #000000; stroke-width: 0.8"/>
      </g>
     </g>
     <g id="text_5">
      <!-- 400 -->
      <g transform="translate(472.610393 527.238438) scale(0.1 -0.1)">
       <defs>
        <path id="DejaVuSans-34" d="M 2419 4116 
L 825 1625 
L 2419 1625 
L 2419 4116 
z
M 2253 4666 
L 3047 4666 
L 3047 1625 
L 3713 1625 
L 3713 1100 
L 3047 1100 
L 3047 0 
L 2419 0 
L 2419 1100 
L 313 1100 
L 313 1709 
L 2253 4666 
z
" transform="scale(0.015625)"/>
       </defs>
       <use xlink:href="#DejaVuSans-34"/>
       <use xlink:href="#DejaVuSans-30" x="63.623047"/>
       <use xlink:href="#DejaVuSans-30" x="127.246094"/>
      </g>
     </g>
    </g>
    <g id="xtick_6">
     <g id="line2d_6">
      <g>
       <use xlink:href="#m366544eb26" x="564.42573" y="512.64" style="stroke: #000000; stroke-width: 0.8"/>
      </g>
     </g>
     <g id="text_6">
      <!-- 500 -->
      <g transform="translate(554.88198 527.238438) scale(0.1 -0.1)">
       <defs>
        <path id="DejaVuSans-35" d="M 691 4666 
L 3169 4666 
L 3169 4134 
L 1269 4134 
L 1269 2991 
Q 1406 3038 1543 3061 
Q 1681 3084 1819 3084 
Q 2600 3084 3056 2656 
Q 3513 2228 3513 1497 
Q 3513 744 3044 326 
Q 2575 -91 1722 -91 
Q 1428 -91 1123 -41 
Q 819 9 494 109 
L 494 744 
Q 775 591 1075 516 
Q 1375 441 1709 441 
Q 2250 441 2565 725 
Q 2881 1009 2881 1497 
Q 2881 1984 2565 2268 
Q 2250 2553 1709 2553 
Q 1456 2553 1204 2497 
Q 953 2441 691 2322 
L 691 4666 
z
" transform="scale(0.015625)"/>
       </defs>
       <use xlink:href="#DejaVuSans-35"/>
       <use xlink:href="#DejaVuSans-30" x="63.623047"/>
       <use xlink:href="#DejaVuSans-30" x="127.246094"/>
      </g>
     </g>
    </g>
    <g id="xtick_7">
     <g id="line2d_7">
      <g>
       <use xlink:href="#m366544eb26" x="646.697317" y="512.64" style="stroke: #000000; stroke-width: 0.8"/>
      </g>
     </g>
     <g id="text_7">
      <!-- 600 -->
      <g transform="translate(637.153567 527.238438) scale(0.1 -0.1)">
       <defs>
        <path id="DejaVuSans-36" d="M 2113 2584 
Q 1688 2584 1439 2293 
Q 1191 2003 1191 1497 
Q 1191 994 1439 701 
Q 1688 409 2113 409 
Q 2538 409 2786 701 
Q 3034 994 3034 1497 
Q 3034 2003 2786 2293 
Q 2538 2584 2113 2584 
z
M 3366 4563 
L 3366 3988 
Q 3128 4100 2886 4159 
Q 2644 4219 2406 4219 
Q 1781 4219 1451 3797 
Q 1122 3375 1075 2522 
Q 1259 2794 1537 2939 
Q 1816 3084 2150 3084 
Q 2853 3084 3261 2657 
Q 3669 2231 3669 1497 
Q 3669 778 3244 343 
Q 2819 -91 2113 -91 
Q 1303 -91 875 529 
Q 447 1150 447 2328 
Q 447 3434 972 4092 
Q 1497 4750 2381 4750 
Q 2619 4750 2861 4703 
Q 3103 4656 3366 4563 
z
" transform="scale(0.015625)"/>
       </defs>
       <use xlink:href="#DejaVuSans-36"/>
       <use xlink:href="#DejaVuSans-30" x="63.623047"/>
       <use xlink:href="#DejaVuSans-30" x="127.246094"/>
      </g>
     </g>
    </g>
    <g id="text_8">
     <!-- Ground Truth Energy -->
     <g transform="translate(317.257812 540.916563) scale(0.1 -0.1)">
      <defs>
       <path id="DejaVuSans-47" d="M 3809 666 
L 3809 1919 
L 2778 1919 
L 2778 2438 
L 4434 2438 
L 4434 434 
Q 4069 175 3628 42 
Q 3188 -91 2688 -91 
Q 1594 -91 976 548 
Q 359 1188 359 2328 
Q 359 3472 976 4111 
Q 1594 4750 2688 4750 
Q 3144 4750 3555 4637 
Q 3966 4525 4313 4306 
L 4313 3634 
Q 3963 3931 3569 4081 
Q 3175 4231 2741 4231 
Q 1884 4231 1454 3753 
Q 1025 3275 1025 2328 
Q 1025 1384 1454 906 
Q 1884 428 2741 428 
Q 3075 428 3337 486 
Q 3600 544 3809 666 
z
" transform="scale(0.015625)"/>
       <path id="DejaVuSans-72" d="M 2631 2963 
Q 2534 3019 2420 3045 
Q 2306 3072 2169 3072 
Q 1681 3072 1420 2755 
Q 1159 2438 1159 1844 
L 1159 0 
L 581 0 
L 581 3500 
L 1159 3500 
L 1159 2956 
Q 1341 3275 1631 3429 
Q 1922 3584 2338 3584 
Q 2397 3584 2469 3576 
Q 2541 3569 2628 3553 
L 2631 2963 
z
" transform="scale(0.015625)"/>
       <path id="DejaVuSans-6f" d="M 1959 3097 
Q 1497 3097 1228 2736 
Q 959 2375 959 1747 
Q 959 1119 1226 758 
Q 1494 397 1959 397 
Q 2419 397 2687 759 
Q 2956 1122 2956 1747 
Q 2956 2369 2687 2733 
Q 2419 3097 1959 3097 
z
M 1959 3584 
Q 2709 3584 3137 3096 
Q 3566 2609 3566 1747 
Q 3566 888 3137 398 
Q 2709 -91 1959 -91 
Q 1206 -91 779 398 
Q 353 888 353 1747 
Q 353 2609 779 3096 
Q 1206 3584 1959 3584 
z
" transform="scale(0.015625)"/>
       <path id="DejaVuSans-75" d="M 544 1381 
L 544 3500 
L 1119 3500 
L 1119 1403 
Q 1119 906 1312 657 
Q 1506 409 1894 409 
Q 2359 409 2629 706 
Q 2900 1003 2900 1516 
L 2900 3500 
L 3475 3500 
L 3475 0 
L 2900 0 
L 2900 538 
Q 2691 219 2414 64 
Q 2138 -91 1772 -91 
Q 1169 -91 856 284 
Q 544 659 544 1381 
z
M 1991 3584 
L 1991 3584 
z
" transform="scale(0.015625)"/>
       <path id="DejaVuSans-6e" d="M 3513 2113 
L 3513 0 
L 2938 0 
L 2938 2094 
Q 2938 2591 2744 2837 
Q 2550 3084 2163 3084 
Q 1697 3084 1428 2787 
Q 1159 2491 1159 1978 
L 1159 0 
L 581 0 
L 581 3500 
L 1159 3500 
L 1159 2956 
Q 1366 3272 1645 3428 
Q 1925 3584 2291 3584 
Q 2894 3584 3203 3211 
Q 3513 2838 3513 2113 
z
" transform="scale(0.015625)"/>
       <path id="DejaVuSans-64" d="M 2906 2969 
L 2906 4863 
L 3481 4863 
L 3481 0 
L 2906 0 
L 2906 525 
Q 2725 213 2448 61 
Q 2172 -91 1784 -91 
Q 1150 -91 751 415 
Q 353 922 353 1747 
Q 353 2572 751 3078 
Q 1150 3584 1784 3584 
Q 2172 3584 2448 3432 
Q 2725 3281 2906 2969 
z
M 947 1747 
Q 947 1113 1208 752 
Q 1469 391 1925 391 
Q 2381 391 2643 752 
Q 2906 1113 2906 1747 
Q 2906 2381 2643 2742 
Q 2381 3103 1925 3103 
Q 1469 3103 1208 2742 
Q 947 2381 947 1747 
z
" transform="scale(0.015625)"/>
       <path id="DejaVuSans-20" transform="scale(0.015625)"/>
       <path id="DejaVuSans-54" d="M -19 4666 
L 3928 4666 
L 3928 4134 
L 2272 4134 
L 2272 0 
L 1638 0 
L 1638 4134 
L -19 4134 
L -19 4666 
z
" transform="scale(0.015625)"/>
       <path id="DejaVuSans-74" d="M 1172 4494 
L 1172 3500 
L 2356 3500 
L 2356 3053 
L 1172 3053 
L 1172 1153 
Q 1172 725 1289 603 
Q 1406 481 1766 481 
L 2356 481 
L 2356 0 
L 1766 0 
Q 1100 0 847 248 
Q 594 497 594 1153 
L 594 3053 
L 172 3053 
L 172 3500 
L 594 3500 
L 594 4494 
L 1172 4494 
z
" transform="scale(0.015625)"/>
       <path id="DejaVuSans-68" d="M 3513 2113 
L 3513 0 
L 2938 0 
L 2938 2094 
Q 2938 2591 2744 2837 
Q 2550 3084 2163 3084 
Q 1697 3084 1428 2787 
Q 1159 2491 1159 1978 
L 1159 0 
L 581 0 
L 581 4863 
L 1159 4863 
L 1159 2956 
Q 1366 3272 1645 3428 
Q 1925 3584 2291 3584 
Q 2894 3584 3203 3211 
Q 3513 2838 3513 2113 
z
" transform="scale(0.015625)"/>
       <path id="DejaVuSans-45" d="M 628 4666 
L 3578 4666 
L 3578 4134 
L 1259 4134 
L 1259 2753 
L 3481 2753 
L 3481 2222 
L 1259 2222 
L 1259 531 
L 3634 531 
L 3634 0 
L 628 0 
L 628 4666 
z
" transform="scale(0.015625)"/>
       <path id="DejaVuSans-65" d="M 3597 1894 
L 3597 1613 
L 953 1613 
Q 991 1019 1311 708 
Q 1631 397 2203 397 
Q 2534 397 2845 478 
Q 3156 559 3463 722 
L 3463 178 
Q 3153 47 2828 -22 
Q 2503 -91 2169 -91 
Q 1331 -91 842 396 
Q 353 884 353 1716 
Q 353 2575 817 3079 
Q 1281 3584 2069 3584 
Q 2775 3584 3186 3129 
Q 3597 2675 3597 1894 
z
M 3022 2063 
Q 3016 2534 2758 2815 
Q 2500 3097 2075 3097 
Q 1594 3097 1305 2825 
Q 1016 2553 972 2059 
L 3022 2063 
z
" transform="scale(0.015625)"/>
       <path id="DejaVuSans-67" d="M 2906 1791 
Q 2906 2416 2648 2759 
Q 2391 3103 1925 3103 
Q 1463 3103 1205 2759 
Q 947 2416 947 1791 
Q 947 1169 1205 825 
Q 1463 481 1925 481 
Q 2391 481 2648 825 
Q 2906 1169 2906 1791 
z
M 3481 434 
Q 3481 -459 3084 -895 
Q 2688 -1331 1869 -1331 
Q 1566 -1331 1297 -1286 
Q 1028 -1241 775 -1147 
L 775 -588 
Q 1028 -725 1275 -790 
Q 1522 -856 1778 -856 
Q 2344 -856 2625 -561 
Q 2906 -266 2906 331 
L 2906 616 
Q 2728 306 2450 153 
Q 2172 0 1784 0 
Q 1141 0 747 490 
Q 353 981 353 1791 
Q 353 2603 747 3093 
Q 1141 3584 1784 3584 
Q 2172 3584 2450 3431 
Q 2728 3278 2906 2969 
L 2906 3500 
L 3481 3500 
L 3481 434 
z
" transform="scale(0.015625)"/>
       <path id="DejaVuSans-79" d="M 2059 -325 
Q 1816 -950 1584 -1140 
Q 1353 -1331 966 -1331 
L 506 -1331 
L 506 -850 
L 844 -850 
Q 1081 -850 1212 -737 
Q 1344 -625 1503 -206 
L 1606 56 
L 191 3500 
L 800 3500 
L 1894 763 
L 2988 3500 
L 3597 3500 
L 2059 -325 
z
" transform="scale(0.015625)"/>
      </defs>
      <use xlink:href="#DejaVuSans-47"/>
      <use xlink:href="#DejaVuSans-72" x="77.490234"/>
      <use xlink:href="#DejaVuSans-6f" x="116.353516"/>
      <use xlink:href="#DejaVuSans-75" x="177.535156"/>
      <use xlink:href="#DejaVuSans-6e" x="240.914062"/>
      <use xlink:href="#DejaVuSans-64" x="304.292969"/>
      <use xlink:href="#DejaVuSans-20" x="367.769531"/>
      <use xlink:href="#DejaVuSans-54" x="399.556641"/>
      <use xlink:href="#DejaVuSans-72" x="445.890625"/>
      <use xlink:href="#DejaVuSans-75" x="487.003906"/>
      <use xlink:href="#DejaVuSans-74" x="550.382812"/>
      <use xlink:href="#DejaVuSans-68" x="589.591797"/>
      <use xlink:href="#DejaVuSans-20" x="652.970703"/>
      <use xlink:href="#DejaVuSans-45" x="684.757812"/>
      <use xlink:href="#DejaVuSans-6e" x="747.941406"/>
      <use xlink:href="#DejaVuSans-65" x="811.320312"/>
      <use xlink:href="#DejaVuSans-72" x="872.84375"/>
      <use xlink:href="#DejaVuSans-67" x="912.207031"/>
      <use xlink:href="#DejaVuSans-79" x="975.683594"/>
     </g>
    </g>
   </g>
   <g id="matplotlib.axis_2">
    <g id="ytick_1">
     <g id="line2d_8">
      <defs>
       <path id="meaff043f6f" d="M 0 0 
L -3.5 0 
" style="stroke: #000000; stroke-width: 0.8"/>
      </defs>
      <g>
       <use xlink:href="#meaff043f6f" x="90" y="463.222793" style="stroke: #000000; stroke-width: 0.8"/>
      </g>
     </g>
     <g id="text_9">
      <!-- 0 -->
      <g transform="translate(76.6375 467.022012) scale(0.1 -0.1)">
       <use xlink:href="#DejaVuSans-30"/>
      </g>
     </g>
    </g>
    <g id="ytick_2">
     <g id="line2d_9">
      <g>
       <use xlink:href="#meaff043f6f" x="90" y="398.682191" style="stroke: #000000; stroke-width: 0.8"/>
      </g>
     </g>
     <g id="text_10">
      <!-- 100 -->
      <g transform="translate(63.9125 402.48141) scale(0.1 -0.1)">
       <use xlink:href="#DejaVuSans-31"/>
       <use xlink:href="#DejaVuSans-30" x="63.623047"/>
       <use xlink:href="#DejaVuSans-30" x="127.246094"/>
      </g>
     </g>
    </g>
    <g id="ytick_3">
     <g id="line2d_10">
      <g>
       <use xlink:href="#meaff043f6f" x="90" y="334.141588" style="stroke: #000000; stroke-width: 0.8"/>
      </g>
     </g>
     <g id="text_11">
      <!-- 200 -->
      <g transform="translate(63.9125 337.940807) scale(0.1 -0.1)">
       <use xlink:href="#DejaVuSans-32"/>
       <use xlink:href="#DejaVuSans-30" x="63.623047"/>
       <use xlink:href="#DejaVuSans-30" x="127.246094"/>
      </g>
     </g>
    </g>
    <g id="ytick_4">
     <g id="line2d_11">
      <g>
       <use xlink:href="#meaff043f6f" x="90" y="269.600986" style="stroke: #000000; stroke-width: 0.8"/>
      </g>
     </g>
     <g id="text_12">
      <!-- 300 -->
      <g transform="translate(63.9125 273.400205) scale(0.1 -0.1)">
       <use xlink:href="#DejaVuSans-33"/>
       <use xlink:href="#DejaVuSans-30" x="63.623047"/>
       <use xlink:href="#DejaVuSans-30" x="127.246094"/>
      </g>
     </g>
    </g>
    <g id="ytick_5">
     <g id="line2d_12">
      <g>
       <use xlink:href="#meaff043f6f" x="90" y="205.060384" style="stroke: #000000; stroke-width: 0.8"/>
      </g>
     </g>
     <g id="text_13">
      <!-- 400 -->
      <g transform="translate(63.9125 208.859602) scale(0.1 -0.1)">
       <use xlink:href="#DejaVuSans-34"/>
       <use xlink:href="#DejaVuSans-30" x="63.623047"/>
       <use xlink:href="#DejaVuSans-30" x="127.246094"/>
      </g>
     </g>
    </g>
    <g id="ytick_6">
     <g id="line2d_13">
      <g>
       <use xlink:href="#meaff043f6f" x="90" y="140.519781" style="stroke: #000000; stroke-width: 0.8"/>
      </g>
     </g>
     <g id="text_14">
      <!-- 500 -->
      <g transform="translate(63.9125 144.319) scale(0.1 -0.1)">
       <use xlink:href="#DejaVuSans-35"/>
       <use xlink:href="#DejaVuSans-30" x="63.623047"/>
       <use xlink:href="#DejaVuSans-30" x="127.246094"/>
      </g>
     </g>
    </g>
    <g id="ytick_7">
     <g id="line2d_14">
      <g>
       <use xlink:href="#meaff043f6f" x="90" y="75.979179" style="stroke: #000000; stroke-width: 0.8"/>
      </g>
     </g>
     <g id="text_15">
      <!-- 600 -->
      <g transform="translate(63.9125 79.778397) scale(0.1 -0.1)">
       <use xlink:href="#DejaVuSans-36"/>
       <use xlink:href="#DejaVuSans-30" x="63.623047"/>
       <use xlink:href="#DejaVuSans-30" x="127.246094"/>
      </g>
     </g>
    </g>
    <g id="text_16">
     <!-- Predicted Energy -->
     <g transform="translate(57.832812 333.445625) rotate(-90) scale(0.1 -0.1)">
      <defs>
       <path id="DejaVuSans-50" d="M 1259 4147 
L 1259 2394 
L 2053 2394 
Q 2494 2394 2734 2622 
Q 2975 2850 2975 3272 
Q 2975 3691 2734 3919 
Q 2494 4147 2053 4147 
L 1259 4147 
z
M 628 4666 
L 2053 4666 
Q 2838 4666 3239 4311 
Q 3641 3956 3641 3272 
Q 3641 2581 3239 2228 
Q 2838 1875 2053 1875 
L 1259 1875 
L 1259 0 
L 628 0 
L 628 4666 
z
" transform="scale(0.015625)"/>
       <path id="DejaVuSans-69" d="M 603 3500 
L 1178 3500 
L 1178 0 
L 603 0 
L 603 3500 
z
M 603 4863 
L 1178 4863 
L 1178 4134 
L 603 4134 
L 603 4863 
z
" transform="scale(0.015625)"/>
       <path id="DejaVuSans-63" d="M 3122 3366 
L 3122 2828 
Q 2878 2963 2633 3030 
Q 2388 3097 2138 3097 
Q 1578 3097 1268 2742 
Q 959 2388 959 1747 
Q 959 1106 1268 751 
Q 1578 397 2138 397 
Q 2388 397 2633 464 
Q 2878 531 3122 666 
L 3122 134 
Q 2881 22 2623 -34 
Q 2366 -91 2075 -91 
Q 1284 -91 818 406 
Q 353 903 353 1747 
Q 353 2603 823 3093 
Q 1294 3584 2113 3584 
Q 2378 3584 2631 3529 
Q 2884 3475 3122 3366 
z
" transform="scale(0.015625)"/>
      </defs>
      <use xlink:href="#DejaVuSans-50"/>
      <use xlink:href="#DejaVuSans-72" x="58.552734"/>
      <use xlink:href="#DejaVuSans-65" x="97.416016"/>
      <use xlink:href="#DejaVuSans-64" x="158.939453"/>
      <use xlink:href="#DejaVuSans-69" x="222.416016"/>
      <use xlink:href="#DejaVuSans-63" x="250.199219"/>
      <use xlink:href="#DejaVuSans-74" x="305.179688"/>
      <use xlink:href="#DejaVuSans-65" x="344.388672"/>
      <use xlink:href="#DejaVuSans-64" x="405.912109"/>
      <use xlink:href="#DejaVuSans-20" x="469.388672"/>
      <use xlink:href="#DejaVuSans-45" x="501.175781"/>
      <use xlink:href="#DejaVuSans-6e" x="564.359375"/>
      <use xlink:href="#DejaVuSans-65" x="627.738281"/>
      <use xlink:href="#DejaVuSans-72" x="689.261719"/>
      <use xlink:href="#DejaVuSans-67" x="728.625"/>
      <use xlink:href="#DejaVuSans-79" x="792.101562"/>
     </g>
    </g>
   </g>
   <g id="line2d_15">
    <path d="M 121.752058 487.789434 
L 616.247942 99.866174 
" clip-path="url(#p825f7a0272)" style="fill: none; stroke-dasharray: 5.55,2.4; stroke-dashoffset: 0; stroke: #ff0000; stroke-width: 1.5"/>
   </g>
   <g id="patch_3">
    <path d="M 90 512.64 
L 90 69.12 
" style="fill: none; stroke: #000000; stroke-width: 0.8; stroke-linejoin: miter; stroke-linecap: square"/>
   </g>
   <g id="patch_4">
    <path d="M 648 512.64 
L 648 69.12 
" style="fill: none; stroke: #000000; stroke-width: 0.8; stroke-linejoin: miter; stroke-linecap: square"/>
   </g>
   <g id="patch_5">
    <path d="M 90 512.64 
L 648 512.64 
" style="fill: none; stroke: #000000; stroke-width: 0.8; stroke-linejoin: miter; stroke-linecap: square"/>
   </g>
   <g id="patch_6">
    <path d="M 90 69.12 
L 648 69.12 
" style="fill: none; stroke: #000000; stroke-width: 0.8; stroke-linejoin: miter; stroke-linecap: square"/>
   </g>
   <g id="text_17">
    <!-- Energy R2 Score: 0.9990170683875318 -->
    <g transform="translate(145.8 113.472) scale(0.1 -0.1)">
     <defs>
      <path id="DejaVuSans-52" d="M 2841 2188 
Q 3044 2119 3236 1894 
Q 3428 1669 3622 1275 
L 4263 0 
L 3584 0 
L 2988 1197 
Q 2756 1666 2539 1819 
Q 2322 1972 1947 1972 
L 1259 1972 
L 1259 0 
L 628 0 
L 628 4666 
L 2053 4666 
Q 2853 4666 3247 4331 
Q 3641 3997 3641 3322 
Q 3641 2881 3436 2590 
Q 3231 2300 2841 2188 
z
M 1259 4147 
L 1259 2491 
L 2053 2491 
Q 2509 2491 2742 2702 
Q 2975 2913 2975 3322 
Q 2975 3731 2742 3939 
Q 2509 4147 2053 4147 
L 1259 4147 
z
" transform="scale(0.015625)"/>
      <path id="DejaVuSans-53" d="M 3425 4513 
L 3425 3897 
Q 3066 4069 2747 4153 
Q 2428 4238 2131 4238 
Q 1616 4238 1336 4038 
Q 1056 3838 1056 3469 
Q 1056 3159 1242 3001 
Q 1428 2844 1947 2747 
L 2328 2669 
Q 3034 2534 3370 2195 
Q 3706 1856 3706 1288 
Q 3706 609 3251 259 
Q 2797 -91 1919 -91 
Q 1588 -91 1214 -16 
Q 841 59 441 206 
L 441 856 
Q 825 641 1194 531 
Q 1563 422 1919 422 
Q 2459 422 2753 634 
Q 3047 847 3047 1241 
Q 3047 1584 2836 1778 
Q 2625 1972 2144 2069 
L 1759 2144 
Q 1053 2284 737 2584 
Q 422 2884 422 3419 
Q 422 4038 858 4394 
Q 1294 4750 2059 4750 
Q 2388 4750 2728 4690 
Q 3069 4631 3425 4513 
z
" transform="scale(0.015625)"/>
      <path id="DejaVuSans-3a" d="M 750 794 
L 1409 794 
L 1409 0 
L 750 0 
L 750 794 
z
M 750 3309 
L 1409 3309 
L 1409 2516 
L 750 2516 
L 750 3309 
z
" transform="scale(0.015625)"/>
      <path id="DejaVuSans-2e" d="M 684 794 
L 1344 794 
L 1344 0 
L 684 0 
L 684 794 
z
" transform="scale(0.015625)"/>
      <path id="DejaVuSans-39" d="M 703 97 
L 703 672 
Q 941 559 1184 500 
Q 1428 441 1663 441 
Q 2288 441 2617 861 
Q 2947 1281 2994 2138 
Q 2813 1869 2534 1725 
Q 2256 1581 1919 1581 
Q 1219 1581 811 2004 
Q 403 2428 403 3163 
Q 403 3881 828 4315 
Q 1253 4750 1959 4750 
Q 2769 4750 3195 4129 
Q 3622 3509 3622 2328 
Q 3622 1225 3098 567 
Q 2575 -91 1691 -91 
Q 1453 -91 1209 -44 
Q 966 3 703 97 
z
M 1959 2075 
Q 2384 2075 2632 2365 
Q 2881 2656 2881 3163 
Q 2881 3666 2632 3958 
Q 2384 4250 1959 4250 
Q 1534 4250 1286 3958 
Q 1038 3666 1038 3163 
Q 1038 2656 1286 2365 
Q 1534 2075 1959 2075 
z
" transform="scale(0.015625)"/>
      <path id="DejaVuSans-37" d="M 525 4666 
L 3525 4666 
L 3525 4397 
L 1831 0 
L 1172 0 
L 2766 4134 
L 525 4134 
L 525 4666 
z
" transform="scale(0.015625)"/>
      <path id="DejaVuSans-38" d="M 2034 2216 
Q 1584 2216 1326 1975 
Q 1069 1734 1069 1313 
Q 1069 891 1326 650 
Q 1584 409 2034 409 
Q 2484 409 2743 651 
Q 3003 894 3003 1313 
Q 3003 1734 2745 1975 
Q 2488 2216 2034 2216 
z
M 1403 2484 
Q 997 2584 770 2862 
Q 544 3141 544 3541 
Q 544 4100 942 4425 
Q 1341 4750 2034 4750 
Q 2731 4750 3128 4425 
Q 3525 4100 3525 3541 
Q 3525 3141 3298 2862 
Q 3072 2584 2669 2484 
Q 3125 2378 3379 2068 
Q 3634 1759 3634 1313 
Q 3634 634 3220 271 
Q 2806 -91 2034 -91 
Q 1263 -91 848 271 
Q 434 634 434 1313 
Q 434 1759 690 2068 
Q 947 2378 1403 2484 
z
M 1172 3481 
Q 1172 3119 1398 2916 
Q 1625 2713 2034 2713 
Q 2441 2713 2670 2916 
Q 2900 3119 2900 3481 
Q 2900 3844 2670 4047 
Q 2441 4250 2034 4250 
Q 1625 4250 1398 4047 
Q 1172 3844 1172 3481 
z
" transform="scale(0.015625)"/>
     </defs>
     <use xlink:href="#DejaVuSans-45"/>
     <use xlink:href="#DejaVuSans-6e" x="63.183594"/>
     <use xlink:href="#DejaVuSans-65" x="126.5625"/>
     <use xlink:href="#DejaVuSans-72" x="188.085938"/>
     <use xlink:href="#DejaVuSans-67" x="227.449219"/>
     <use xlink:href="#DejaVuSans-79" x="290.925781"/>
     <use xlink:href="#DejaVuSans-20" x="350.105469"/>
     <use xlink:href="#DejaVuSans-52" x="381.892578"/>
     <use xlink:href="#DejaVuSans-32" x="451.375"/>
     <use xlink:href="#DejaVuSans-20" x="514.998047"/>
     <use xlink:href="#DejaVuSans-53" x="546.785156"/>
     <use xlink:href="#DejaVuSans-63" x="610.261719"/>
     <use xlink:href="#DejaVuSans-6f" x="665.242188"/>
     <use xlink:href="#DejaVuSans-72" x="726.423828"/>
     <use xlink:href="#DejaVuSans-65" x="765.287109"/>
     <use xlink:href="#DejaVuSans-3a" x="826.810547"/>
     <use xlink:href="#DejaVuSans-20" x="860.501953"/>
     <use xlink:href="#DejaVuSans-30" x="892.289062"/>
     <use xlink:href="#DejaVuSans-2e" x="955.912109"/>
     <use xlink:href="#DejaVuSans-39" x="987.699219"/>
     <use xlink:href="#DejaVuSans-39" x="1051.322266"/>
     <use xlink:href="#DejaVuSans-39" x="1114.945312"/>
     <use xlink:href="#DejaVuSans-30" x="1178.568359"/>
     <use xlink:href="#DejaVuSans-31" x="1242.191406"/>
     <use xlink:href="#DejaVuSans-37" x="1305.814453"/>
     <use xlink:href="#DejaVuSans-30" x="1369.4375"/>
     <use xlink:href="#DejaVuSans-36" x="1433.060547"/>
     <use xlink:href="#DejaVuSans-38" x="1496.683594"/>
     <use xlink:href="#DejaVuSans-33" x="1560.306641"/>
     <use xlink:href="#DejaVuSans-38" x="1623.929688"/>
     <use xlink:href="#DejaVuSans-37" x="1687.552734"/>
     <use xlink:href="#DejaVuSans-35" x="1751.175781"/>
     <use xlink:href="#DejaVuSans-33" x="1814.798828"/>
     <use xlink:href="#DejaVuSans-31" x="1878.421875"/>
     <use xlink:href="#DejaVuSans-38" x="1942.044922"/>
    </g>
   </g>
   <g id="text_18">
    <!-- MVE In Distribution -->
    <g transform="translate(311.53875 63.12) scale(0.12 -0.12)">
     <defs>
      <path id="DejaVuSans-4d" d="M 628 4666 
L 1569 4666 
L 2759 1491 
L 3956 4666 
L 4897 4666 
L 4897 0 
L 4281 0 
L 4281 4097 
L 3078 897 
L 2444 897 
L 1241 4097 
L 1241 0 
L 628 0 
L 628 4666 
z
" transform="scale(0.015625)"/>
      <path id="DejaVuSans-56" d="M 1831 0 
L 50 4666 
L 709 4666 
L 2188 738 
L 3669 4666 
L 4325 4666 
L 2547 0 
L 1831 0 
z
" transform="scale(0.015625)"/>
      <path id="DejaVuSans-49" d="M 628 4666 
L 1259 4666 
L 1259 0 
L 628 0 
L 628 4666 
z
" transform="scale(0.015625)"/>
      <path id="DejaVuSans-44" d="M 1259 4147 
L 1259 519 
L 2022 519 
Q 2988 519 3436 956 
Q 3884 1394 3884 2338 
Q 3884 3275 3436 3711 
Q 2988 4147 2022 4147 
L 1259 4147 
z
M 628 4666 
L 1925 4666 
Q 3281 4666 3915 4102 
Q 4550 3538 4550 2338 
Q 4550 1131 3912 565 
Q 3275 0 1925 0 
L 628 0 
L 628 4666 
z
" transform="scale(0.015625)"/>
      <path id="DejaVuSans-73" d="M 2834 3397 
L 2834 2853 
Q 2591 2978 2328 3040 
Q 2066 3103 1784 3103 
Q 1356 3103 1142 2972 
Q 928 2841 928 2578 
Q 928 2378 1081 2264 
Q 1234 2150 1697 2047 
L 1894 2003 
Q 2506 1872 2764 1633 
Q 3022 1394 3022 966 
Q 3022 478 2636 193 
Q 2250 -91 1575 -91 
Q 1294 -91 989 -36 
Q 684 19 347 128 
L 347 722 
Q 666 556 975 473 
Q 1284 391 1588 391 
Q 1994 391 2212 530 
Q 2431 669 2431 922 
Q 2431 1156 2273 1281 
Q 2116 1406 1581 1522 
L 1381 1569 
Q 847 1681 609 1914 
Q 372 2147 372 2553 
Q 372 3047 722 3315 
Q 1072 3584 1716 3584 
Q 2034 3584 2315 3537 
Q 2597 3491 2834 3397 
z
" transform="scale(0.015625)"/>
      <path id="DejaVuSans-62" d="M 3116 1747 
Q 3116 2381 2855 2742 
Q 2594 3103 2138 3103 
Q 1681 3103 1420 2742 
Q 1159 2381 1159 1747 
Q 1159 1113 1420 752 
Q 1681 391 2138 391 
Q 2594 391 2855 752 
Q 3116 1113 3116 1747 
z
M 1159 2969 
Q 1341 3281 1617 3432 
Q 1894 3584 2278 3584 
Q 2916 3584 3314 3078 
Q 3713 2572 3713 1747 
Q 3713 922 3314 415 
Q 2916 -91 2278 -91 
Q 1894 -91 1617 61 
Q 1341 213 1159 525 
L 1159 0 
L 581 0 
L 581 4863 
L 1159 4863 
L 1159 2969 
z
" transform="scale(0.015625)"/>
     </defs>
     <use xlink:href="#DejaVuSans-4d"/>
     <use xlink:href="#DejaVuSans-56" x="86.279297"/>
     <use xlink:href="#DejaVuSans-45" x="154.6875"/>
     <use xlink:href="#DejaVuSans-20" x="217.871094"/>
     <use xlink:href="#DejaVuSans-49" x="249.658203"/>
     <use xlink:href="#DejaVuSans-6e" x="279.150391"/>
     <use xlink:href="#DejaVuSans-20" x="342.529297"/>
     <use xlink:href="#DejaVuSans-44" x="374.316406"/>
     <use xlink:href="#DejaVuSans-69" x="451.318359"/>
     <use xlink:href="#DejaVuSans-73" x="479.101562"/>
     <use xlink:href="#DejaVuSans-74" x="531.201172"/>
     <use xlink:href="#DejaVuSans-72" x="570.410156"/>
     <use xlink:href="#DejaVuSans-69" x="611.523438"/>
     <use xlink:href="#DejaVuSans-62" x="639.306641"/>
     <use xlink:href="#DejaVuSans-75" x="702.783203"/>
     <use xlink:href="#DejaVuSans-74" x="766.162109"/>
     <use xlink:href="#DejaVuSans-69" x="805.371094"/>
     <use xlink:href="#DejaVuSans-6f" x="833.154297"/>
     <use xlink:href="#DejaVuSans-6e" x="894.335938"/>
    </g>
   </g>
  </g>
 </g>
 <defs>
  <clipPath id="p825f7a0272">
   <rect x="90" y="69.12" width="558" height="443.52"/>
  </clipPath>
 </defs>
</svg>
