<?xml version="1.0" encoding="utf-8" standalone="no"?>
<!DOCTYPE svg PUBLIC "-//W3C//DTD SVG 1.1//EN"
  "http://www.w3.org/Graphics/SVG/1.1/DTD/svg11.dtd">
<svg xmlns:xlink="http://www.w3.org/1999/xlink" width="720pt" height="576pt" viewBox="0 0 720 576" xmlns="http://www.w3.org/2000/svg" version="1.1">
 <metadata>
  <rdf:RDF xmlns:dc="http://purl.org/dc/elements/1.1/" xmlns:cc="http://creativecommons.org/ns#" xmlns:rdf="http://www.w3.org/1999/02/22-rdf-syntax-ns#">
   <cc:Work>
    <dc:type rdf:resource="http://purl.org/dc/dcmitype/StillImage"/>
    <dc:date>2024-11-28T16:29:47.743741</dc:date>
    <dc:format>image/svg+xml</dc:format>
    <dc:creator>
     <cc:Agent>
      <dc:title>Matplotlib v3.8.4, https://matplotlib.org/</dc:title>
     </cc:Agent>
    </dc:creator>
   </cc:Work>
  </rdf:RDF>
 </metadata>
 <defs>
  <style type="text/css">*{stroke-linejoin: round; stroke-linecap: butt}</style>
 </defs>
 <g id="figure_1">
  <g id="patch_1">
   <path d="M 0 576 
L 720 576 
L 720 0 
L 0 0 
z
" style="fill: #ffffff"/>
  </g>
  <g id="axes_1">
   <g id="patch_2">
    <path d="M 90 512.64 
L 648 512.64 
L 648 69.12 
L 90 69.12 
z
" style="fill: #ffffff"/>
   </g>
   <g id="QuadContourSet_1">
    <path d="M 112.432161 495.537665 
L 113.35235 494.81005 
L 112.432161 494.071685 
L 111.510632 494.81005 
z
M 115.236181 493.798033 
L 116.77568 492.581307 
L 118.040201 491.885755 
L 119.981042 490.352563 
L 120.844221 489.866641 
L 123.051434 488.123819 
L 123.648241 487.780101 
L 126.036552 485.895075 
L 126.452261 485.650201 
L 128.966747 483.666332 
L 129.256281 483.491926 
L 131.860906 481.437588 
L 132.060302 481.314774 
L 134.731002 479.208844 
L 134.864322 479.12488 
L 137.584759 476.980101 
L 137.668342 476.926272 
L 140.427258 474.751357 
L 140.472362 474.721649 
L 143.261896 472.522613 
L 143.276382 472.512854 
L 146.080402 470.511329 
L 146.353997 470.293869 
L 148.884422 468.668016 
L 149.642944 468.065126 
L 151.688442 466.718615 
L 152.798414 465.836382 
L 154.492462 464.694676 
L 155.860104 463.607638 
L 157.296482 462.617218 
L 158.854458 461.378894 
L 160.100503 460.500418 
L 161.799313 459.150151 
L 162.904523 458.353917 
L 164.7068 456.921407 
L 165.708543 456.184277 
L 167.585173 454.692663 
L 168.512563 453.995905 
L 170.439981 452.46392 
L 171.316583 451.791643 
L 173.274796 450.235176 
L 174.120603 449.573123 
L 176.091675 448.006432 
L 176.924623 447.340975 
L 178.891409 445.777688 
L 179.728643 445.094901 
L 181.673623 443.548945 
L 182.532663 442.83365 
L 184.436743 441.320201 
L 185.336683 440.554876 
L 187.177818 439.091457 
L 188.140704 438.254863 
L 189.892173 436.862714 
L 190.944724 435.928071 
L 192.572839 434.63397 
L 193.748744 433.566426 
L 195.209655 432.405226 
L 196.552764 431.158215 
L 197.787886 430.176482 
L 199.356784 428.686393 
L 200.286088 427.947739 
L 202.160804 426.125947 
L 202.672792 425.718995 
L 204.953351 423.490251 
L 204.964824 423.477568 
L 207.607524 421.261508 
L 207.768844 421.079148 
L 210.191677 419.032764 
L 210.572864 418.591938 
L 212.674593 416.80402 
L 213.376884 415.972757 
L 215.008197 414.575276 
L 213.376884 413.453899 
L 211.948027 414.575276 
L 210.572864 415.357391 
L 208.731907 416.80402 
L 207.768844 417.36181 
L 205.645201 419.032764 
L 204.964824 419.433869 
L 202.645051 421.261508 
L 202.160804 421.551968 
L 199.703598 423.490251 
L 199.356784 423.701835 
L 196.802419 425.718995 
L 196.552764 425.873874 
L 193.929135 427.947739 
L 193.748744 428.061527 
L 191.075318 430.176482 
L 190.944724 430.260247 
L 188.235168 432.405226 
L 188.140704 432.466851 
L 185.404668 434.63397 
L 185.336683 434.679095 
L 182.581031 436.862714 
L 182.532663 436.895395 
L 179.762325 439.091457 
L 179.728643 439.114639 
L 176.947218 441.320201 
L 176.924623 441.336052 
L 174.134802 443.548945 
L 174.120603 443.559105 
L 171.324463 445.777688 
L 171.316583 445.783443 
L 168.515796 448.006432 
L 168.512563 448.008844 
L 165.708543 450.235176 
L 165.708543 450.235176 
L 162.904523 452.337617 
L 162.757062 452.46392 
L 160.100503 454.530002 
L 159.911662 454.692663 
L 157.296482 456.794212 
L 157.148832 456.921407 
L 154.492462 459.120232 
L 154.457611 459.150151 
L 151.691032 461.378894 
L 151.688442 461.381105 
L 148.891877 463.607638 
L 148.884422 463.614151 
L 146.094796 465.836382 
L 146.080402 465.849252 
L 143.300335 468.065126 
L 143.276382 468.087042 
L 140.50927 470.293869 
L 140.472362 470.328426 
L 137.72271 472.522613 
L 137.668342 472.574697 
L 134.942247 474.751357 
L 134.864322 474.827733 
L 132.170195 476.980101 
L 132.060302 477.090292 
L 129.409963 479.208844 
L 129.256281 479.366492 
L 126.666654 481.437588 
L 126.452261 481.662585 
L 123.948032 483.666332 
L 123.648241 483.988236 
L 121.26612 485.895075 
L 120.844221 486.358663 
L 118.639874 488.123819 
L 118.040201 488.798286 
L 116.099742 490.352563 
L 115.236181 491.34706 
L 113.695576 492.581307 
z
M 128.575963 481.437588 
L 129.256281 480.893493 
L 129.940539 481.437588 
L 129.256281 481.977281 
z
M 130.898547 479.208844 
L 132.060302 478.280194 
L 133.230982 479.208844 
L 132.060302 480.131962 
z
M 133.35687 476.980101 
L 134.864322 475.775781 
L 135.909517 474.751357 
L 137.668342 473.347017 
L 138.528898 472.522613 
L 140.472362 470.971754 
L 141.196383 470.293869 
L 143.276382 468.635029 
L 143.899242 468.065126 
L 146.080402 466.326615 
L 146.6287 465.836382 
L 148.884422 464.039462 
L 149.378694 463.607638 
L 151.688442 461.768693 
L 152.145054 461.378894 
L 154.492462 459.510955 
L 154.924978 459.150151 
L 157.296482 457.26399 
L 157.716694 456.921407 
L 160.100503 455.026364 
L 160.519242 454.692663 
L 162.904523 452.797296 
L 163.332365 452.46392 
L 165.708543 450.576566 
L 166.156458 450.235176 
L 168.512563 448.364479 
L 168.992603 448.006432 
L 171.316583 446.161886 
L 171.842654 445.777688 
L 174.120603 443.97026 
L 174.709419 443.548945 
L 176.924623 441.791839 
L 177.596937 441.320201 
L 179.728643 439.62984 
L 180.510896 439.091457 
L 182.532663 437.488791 
L 183.459249 436.862714 
L 185.336683 435.375008 
L 186.453126 434.63397 
L 188.140704 433.297298 
L 189.508158 432.405226 
L 190.944724 431.26799 
L 192.546137 432.405226 
L 190.944724 433.705483 
L 190.009241 434.63397 
L 188.140704 436.143647 
L 187.400555 436.862714 
L 185.336683 438.523042 
L 184.738852 439.091457 
L 182.532663 440.859731 
L 182.03769 441.320201 
L 179.728643 443.165149 
L 179.306878 443.548945 
L 176.924623 445.447438 
L 176.553484 445.777688 
L 174.120603 447.712357 
L 173.782537 448.006432 
L 171.316583 449.963932 
L 170.997525 450.235176 
L 168.512563 452.2049 
L 168.200741 452.46392 
L 165.708543 454.437024 
L 165.393522 454.692663 
L 162.904523 456.661301 
L 162.576391 456.921407 
L 160.100503 458.878089 
L 159.749127 459.150151 
L 157.296482 461.087168 
L 156.910754 461.378894 
L 154.492462 463.287734 
L 154.059453 463.607638 
L 151.688442 465.478329 
L 151.192368 465.836382 
L 148.884422 467.656685 
L 148.30528 468.065126 
L 146.080402 469.819464 
L 145.39209 470.293869 
L 143.276382 471.961849 
L 142.444014 472.522613 
L 140.472362 474.0769 
L 139.448342 474.751357 
L 137.668342 476.154571 
L 136.386495 476.980101 
L 134.864322 478.180174 
z
M 192.646461 430.176482 
L 193.748744 429.304463 
L 194.98509 430.176482 
L 193.748744 431.185907 
z
M 195.899604 427.947739 
L 196.552764 427.431444 
L 197.289288 427.947739 
L 196.552764 428.552759 
z
M 199.313121 425.718995 
L 199.356784 425.684515 
L 199.406237 425.718995 
L 199.356784 425.759886 
z
M 216.180905 413.153847 
L 217.116954 412.346533 
L 216.180905 411.703567 
L 215.360686 412.346533 
z
" clip-path="url(#p6be76d3c98)" style="fill: #e8f1fa"/>
    <path d="M 129.256281 481.977281 
L 129.940539 481.437588 
L 129.256281 480.893493 
L 128.575963 481.437588 
z
M 132.060302 480.131962 
L 133.230982 479.208844 
L 132.060302 478.280194 
L 130.898547 479.208844 
z
M 134.864322 478.180174 
L 136.386495 476.980101 
L 137.668342 476.154571 
L 139.448342 474.751357 
L 140.472362 474.0769 
L 142.444014 472.522613 
L 143.276382 471.961849 
L 145.39209 470.293869 
L 146.080402 469.819464 
L 148.30528 468.065126 
L 148.884422 467.656685 
L 151.192368 465.836382 
L 151.688442 465.478329 
L 154.059453 463.607638 
L 154.492462 463.287734 
L 156.910754 461.378894 
L 157.296482 461.087168 
L 159.749127 459.150151 
L 160.100503 458.878089 
L 162.576391 456.921407 
L 162.904523 456.661301 
L 165.393522 454.692663 
L 165.708543 454.437024 
L 168.200741 452.46392 
L 168.512563 452.2049 
L 170.997525 450.235176 
L 171.316583 449.963932 
L 173.782537 448.006432 
L 174.120603 447.712357 
L 176.553484 445.777688 
L 176.924623 445.447438 
L 179.306878 443.548945 
L 179.728643 443.165149 
L 182.03769 441.320201 
L 182.532663 440.859731 
L 184.738852 439.091457 
L 185.336683 438.523042 
L 187.400555 436.862714 
L 188.140704 436.143647 
L 190.009241 434.63397 
L 190.944724 433.705483 
L 192.546137 432.405226 
L 190.944724 431.26799 
L 189.508158 432.405226 
L 188.140704 433.297298 
L 186.453126 434.63397 
L 185.336683 435.375008 
L 183.459249 436.862714 
L 182.532663 437.488791 
L 180.510896 439.091457 
L 179.728643 439.62984 
L 177.596937 441.320201 
L 176.924623 441.791839 
L 174.709419 443.548945 
L 174.120603 443.97026 
L 171.842654 445.777688 
L 171.316583 446.161886 
L 168.992603 448.006432 
L 168.512563 448.364479 
L 166.156458 450.235176 
L 165.708543 450.576566 
L 163.332365 452.46392 
L 162.904523 452.797296 
L 160.519242 454.692663 
L 160.100503 455.026364 
L 157.716694 456.921407 
L 157.296482 457.26399 
L 154.924978 459.150151 
L 154.492462 459.510955 
L 152.145054 461.378894 
L 151.688442 461.768693 
L 149.378694 463.607638 
L 148.884422 464.039462 
L 146.6287 465.836382 
L 146.080402 466.326615 
L 143.899242 468.065126 
L 143.276382 468.635029 
L 141.196383 470.293869 
L 140.472362 470.971754 
L 138.528898 472.522613 
L 137.668342 473.347017 
L 135.909517 474.751357 
L 134.864322 475.775781 
L 133.35687 476.980101 
z
M 137.466416 474.751357 
L 137.668342 474.590129 
L 137.872698 474.751357 
L 137.668342 474.912456 
z
M 139.826524 472.522613 
L 140.472362 472.007242 
L 141.127568 472.522613 
L 140.472362 473.039123 
z
M 142.302347 470.293869 
L 143.276382 469.517057 
L 144.267139 470.293869 
L 143.276382 471.074961 
z
M 144.86323 468.065126 
L 146.080402 467.094969 
L 147.32197 468.065126 
L 146.080402 469.044115 
z
M 147.488062 465.836382 
L 148.884422 464.724034 
L 150.162265 463.607638 
L 151.688442 462.392547 
L 152.875838 461.378894 
L 154.492462 460.092473 
L 155.622077 459.150151 
L 157.296482 457.818423 
L 158.396761 456.921407 
L 160.100503 455.566993 
L 161.197645 454.692663 
L 162.904523 453.336362 
L 164.024179 452.46392 
L 165.708543 451.126062 
L 166.877414 450.235176 
L 168.512563 448.936903 
L 169.760061 448.006432 
L 171.316583 446.771019 
L 172.676723 445.777688 
L 174.120603 444.632049 
L 175.634312 443.548945 
L 176.924623 442.525466 
L 178.312239 443.548945 
L 176.924623 444.654778 
L 175.662686 445.777688 
L 174.120603 447.003979 
L 172.968193 448.006432 
L 171.316583 449.317498 
L 170.237139 450.235176 
L 168.512563 451.602175 
L 167.475148 452.46392 
L 165.708543 453.862563 
L 164.685621 454.692663 
L 162.904523 456.101397 
L 161.870055 456.921407 
L 160.100503 458.319875 
L 159.028177 459.150151 
L 157.296482 460.517786 
L 156.157903 461.378894 
L 154.492462 462.693483 
L 153.255099 463.607638 
L 151.688442 464.843706 
L 150.313111 465.836382 
L 148.884422 466.963205 
z
M 178.642712 441.320201 
L 179.728643 440.4591 
L 180.904915 441.320201 
L 179.728643 442.260052 
z
M 181.715781 439.091457 
L 182.532663 438.44391 
L 183.42406 439.091457 
L 182.532663 439.805917 
z
M 184.872813 436.862714 
L 185.336683 436.495136 
L 185.846619 436.862714 
L 185.336683 437.272942 
z
M 193.748744 431.185907 
L 194.98509 430.176482 
L 193.748744 429.304463 
L 192.646461 430.176482 
z
M 196.552764 428.552759 
L 197.289288 427.947739 
L 196.552764 427.431444 
L 195.899604 427.947739 
z
M 199.356784 425.759886 
L 199.406237 425.718995 
L 199.356784 425.684515 
L 199.313121 425.718995 
z
" clip-path="url(#p6be76d3c98)" style="fill: #bfd8ed"/>
    <path d="M 137.668342 474.912456 
L 137.872698 474.751357 
L 137.668342 474.590129 
L 137.466416 474.751357 
z
M 140.472362 473.039123 
L 141.127568 472.522613 
L 140.472362 472.007242 
L 139.826524 472.522613 
z
M 143.276382 471.074961 
L 144.267139 470.293869 
L 143.276382 469.517057 
L 142.302347 470.293869 
z
M 143.052164 470.293869 
L 143.276382 470.115051 
L 143.504449 470.293869 
L 143.276382 470.473673 
z
M 146.080402 469.044115 
L 147.32197 468.065126 
L 146.080402 467.094969 
L 144.86323 468.065126 
z
M 145.51679 468.065126 
L 146.080402 467.615894 
L 146.65531 468.065126 
L 146.080402 468.518447 
z
M 148.884422 466.963205 
L 150.313111 465.836382 
L 151.688442 464.843706 
L 153.255099 463.607638 
L 154.492462 462.693483 
L 156.157903 461.378894 
L 157.296482 460.517786 
L 159.028177 459.150151 
L 160.100503 458.319875 
L 161.870055 456.921407 
L 162.904523 456.101397 
L 164.685621 454.692663 
L 165.708543 453.862563 
L 167.475148 452.46392 
L 168.512563 451.602175 
L 170.237139 450.235176 
L 171.316583 449.317498 
L 172.968193 448.006432 
L 174.120603 447.003979 
L 175.662686 445.777688 
L 176.924623 444.654778 
L 178.312239 443.548945 
L 176.924623 442.525466 
L 175.634312 443.548945 
L 174.120603 444.632049 
L 172.676723 445.777688 
L 171.316583 446.771019 
L 169.760061 448.006432 
L 168.512563 448.936903 
L 166.877414 450.235176 
L 165.708543 451.126062 
L 164.024179 452.46392 
L 162.904523 453.336362 
L 161.197645 454.692663 
L 160.100503 455.566993 
L 158.396761 456.921407 
L 157.296482 457.818423 
L 155.622077 459.150151 
L 154.492462 460.092473 
L 152.875838 461.378894 
L 151.688442 462.392547 
L 150.162265 463.607638 
L 148.884422 464.724034 
L 147.488062 465.836382 
z
M 148.070688 465.836382 
L 148.884422 465.188157 
L 149.716996 465.836382 
L 148.884422 466.493042 
z
M 150.693508 463.607638 
L 151.688442 462.815504 
L 152.709766 463.607638 
L 151.688442 464.413447 
z
M 153.371292 461.378894 
L 154.492462 460.486729 
L 155.647488 461.378894 
L 154.492462 462.290595 
z
M 156.094693 459.150151 
L 157.296482 458.194315 
L 158.539391 459.150151 
L 157.296482 460.131759 
z
M 158.85783 456.921407 
L 160.100503 455.933527 
L 161.391176 456.921407 
L 160.100503 457.94142 
z
M 161.657585 454.692663 
L 162.904523 453.701835 
L 164.205681 454.692663 
L 162.904523 455.721795 
z
M 164.493213 452.46392 
L 165.708543 451.498606 
L 166.983213 452.46392 
L 165.708543 453.473092 
z
M 167.366205 450.235176 
L 168.512563 449.324992 
L 169.721616 450.235176 
L 168.512563 451.193541 
z
M 170.28038 448.006432 
L 171.316583 447.183996 
L 172.416088 448.006432 
L 171.316583 448.879231 
z
M 173.242202 445.777688 
L 174.120603 445.080725 
L 175.058747 445.777688 
L 174.120603 446.523717 
z
M 176.261366 443.548945 
L 176.924623 443.022848 
L 177.637897 443.548945 
L 176.924623 444.117375 
z
M 179.728643 442.260052 
L 180.904915 441.320201 
L 179.728643 440.4591 
L 178.642712 441.320201 
z
M 179.351722 441.320201 
L 179.728643 441.021317 
L 180.136921 441.320201 
L 179.728643 441.646419 
z
M 182.532663 439.805917 
L 183.42406 439.091457 
L 182.532663 438.44391 
L 181.715781 439.091457 
z
M 185.336683 437.272942 
L 185.846619 436.862714 
L 185.336683 436.495136 
L 184.872813 436.862714 
z
" clip-path="url(#p6be76d3c98)" style="fill: #75b4d8"/>
    <path d="M 143.276382 470.473673 
L 143.504449 470.293869 
L 143.276382 470.115051 
L 143.052164 470.293869 
z
M 146.080402 468.518447 
L 146.65531 468.065126 
L 146.080402 467.615894 
L 145.51679 468.065126 
z
M 148.884422 466.493042 
L 149.716996 465.836382 
L 148.884422 465.188157 
L 148.070688 465.836382 
z
M 148.573128 465.836382 
L 148.884422 465.588403 
L 149.202924 465.836382 
L 148.884422 466.087588 
z
M 151.688442 464.413447 
L 152.709766 463.607638 
L 151.688442 462.815504 
L 150.693508 463.607638 
z
M 151.151636 463.607638 
L 151.688442 463.180251 
L 152.239486 463.607638 
L 151.688442 464.042403 
z
M 154.492462 462.290595 
L 155.647488 461.378894 
L 154.492462 460.486729 
L 153.371292 461.378894 
z
M 153.798558 461.378894 
L 154.492462 460.826723 
L 155.20732 461.378894 
L 154.492462 461.943156 
z
M 157.296482 460.131759 
L 158.539391 459.150151 
L 157.296482 458.194315 
L 156.094693 459.150151 
z
M 156.502263 459.150151 
L 157.296482 458.518474 
L 158.117875 459.150151 
L 157.296482 459.79886 
z
M 160.100503 457.94142 
L 161.391176 456.921407 
L 160.100503 455.933527 
L 158.85783 456.921407 
z
M 159.255443 456.921407 
L 160.100503 456.249615 
L 160.978204 456.921407 
L 160.100503 457.61505 
z
M 162.904523 455.721795 
L 164.205681 454.692663 
L 162.904523 453.701835 
L 161.657585 454.692663 
z
M 162.054225 454.692663 
L 162.904523 454.017008 
L 163.791794 454.692663 
L 162.904523 455.394438 
z
M 165.708543 453.473092 
L 166.983213 452.46392 
L 165.708543 451.498606 
L 164.493213 452.46392 
z
M 164.897694 452.46392 
L 165.708543 451.819878 
L 166.558982 452.46392 
L 165.708543 453.137223 
z
M 168.512563 451.193541 
L 169.721616 450.235176 
L 168.512563 449.324992 
L 167.366205 450.235176 
z
M 167.787724 450.235176 
L 168.512563 449.659669 
L 169.277044 450.235176 
L 168.512563 450.841148 
z
M 171.316583 448.879231 
L 172.416088 448.006432 
L 171.316583 447.183996 
L 170.28038 448.006432 
z
M 170.729088 448.006432 
L 171.316583 447.540136 
L 171.939969 448.006432 
L 171.316583 448.501282 
z
M 174.120603 446.523717 
L 175.058747 445.777688 
L 174.120603 445.080725 
L 173.242202 445.777688 
z
M 173.729855 445.777688 
L 174.120603 445.467651 
L 174.537927 445.777688 
L 174.120603 446.109552 
z
M 176.924623 444.117375 
L 177.637897 443.548945 
L 176.924623 443.022848 
L 176.261366 443.548945 
z
M 176.80212 443.548945 
L 176.924623 443.451775 
L 177.056364 443.548945 
L 176.924623 443.653933 
z
M 179.728643 441.646419 
L 180.136921 441.320201 
L 179.728643 441.021317 
L 179.351722 441.320201 
z
" clip-path="url(#p6be76d3c98)" style="fill: #4191c6"/>
    <path d="M 148.884422 466.087588 
L 149.202924 465.836382 
L 148.884422 465.588403 
L 148.573128 465.836382 
z
M 151.688442 464.042403 
L 152.239486 463.607638 
L 151.688442 463.180251 
L 151.151636 463.607638 
z
M 151.518727 463.607638 
L 151.688442 463.472516 
L 151.862659 463.607638 
L 151.688442 463.745093 
z
M 154.492462 461.943156 
L 155.20732 461.378894 
L 154.492462 460.826723 
L 153.798558 461.378894 
z
M 154.140918 461.378894 
L 154.492462 461.099155 
L 154.854622 461.378894 
L 154.492462 461.664759 
z
M 157.296482 459.79886 
L 158.117875 459.150151 
L 157.296482 458.518474 
L 156.502263 459.150151 
z
M 156.828843 459.150151 
L 157.296482 458.778217 
L 157.780122 459.150151 
L 157.296482 459.532113 
z
M 160.100503 457.61505 
L 160.978204 456.921407 
L 160.100503 456.249615 
L 159.255443 456.921407 
z
M 159.574044 456.921407 
L 160.100503 456.502891 
L 160.647297 456.921407 
L 160.100503 457.353536 
z
M 162.904523 455.394438 
L 163.791794 454.692663 
L 162.904523 454.017008 
L 162.054225 454.692663 
z
M 162.372046 454.692663 
L 162.904523 454.269552 
L 163.460153 454.692663 
L 162.904523 455.132131 
z
M 165.708543 453.137223 
L 166.558982 452.46392 
L 165.708543 451.819878 
L 164.897694 452.46392 
z
M 165.221798 452.46392 
L 165.708543 452.077308 
L 166.219053 452.46392 
L 165.708543 452.868097 
z
M 168.512563 450.841148 
L 169.277044 450.235176 
L 168.512563 449.659669 
L 167.787724 450.235176 
z
M 168.12548 450.235176 
L 168.512563 449.927841 
L 168.920815 450.235176 
L 168.512563 450.55878 
z
M 171.316583 448.501282 
L 171.939969 448.006432 
L 171.316583 447.540136 
L 170.729088 448.006432 
z
M 171.08863 448.006432 
L 171.316583 447.825505 
L 171.558462 448.006432 
L 171.316583 448.198438 
z
M 174.120603 446.109552 
L 174.537927 445.777688 
L 174.120603 445.467651 
L 173.729855 445.777688 
z
M 176.924623 443.653933 
L 177.056364 443.548945 
L 176.924623 443.451775 
L 176.80212 443.548945 
z
" clip-path="url(#p6be76d3c98)" style="fill: #2070b4"/>
    <path d="M 151.688442 463.745093 
L 151.862659 463.607638 
L 151.688442 463.472516 
L 151.518727 463.607638 
z
M 154.492462 461.664759 
L 154.854622 461.378894 
L 154.492462 461.099155 
L 154.140918 461.378894 
z
M 154.357978 461.378894 
L 154.492462 461.27188 
L 154.631007 461.378894 
L 154.492462 461.488253 
z
M 157.296482 459.532113 
L 157.780122 459.150151 
L 157.296482 458.778217 
L 156.828843 459.150151 
z
M 157.035898 459.150151 
L 157.296482 458.942896 
L 157.565983 459.150151 
L 157.296482 459.362993 
z
M 160.100503 457.353536 
L 160.647297 456.921407 
L 160.100503 456.502891 
L 159.574044 456.921407 
z
M 159.776039 456.921407 
L 160.100503 456.66347 
L 160.437499 456.921407 
L 160.100503 457.187733 
z
M 162.904523 455.132131 
L 163.460153 454.692663 
L 162.904523 454.269552 
L 162.372046 454.692663 
z
M 162.573547 454.692663 
L 162.904523 454.429667 
L 163.24989 454.692663 
L 162.904523 454.965827 
z
M 165.708543 452.868097 
L 166.219053 452.46392 
L 165.708543 452.077308 
L 165.221798 452.46392 
z
M 165.427283 452.46392 
L 165.708543 452.24052 
L 166.003535 452.46392 
L 165.708543 452.697469 
z
M 168.512563 450.55878 
L 168.920815 450.235176 
L 168.512563 449.927841 
L 168.12548 450.235176 
z
M 168.339621 450.235176 
L 168.512563 450.097864 
L 168.694963 450.235176 
L 168.512563 450.379757 
z
M 171.316583 448.198438 
L 171.558462 448.006432 
L 171.316583 447.825505 
L 171.08863 448.006432 
z
" clip-path="url(#p6be76d3c98)" style="fill: #0e58a2"/>
    <path d="M 154.492462 461.488253 
L 154.631007 461.378894 
L 154.492462 461.27188 
L 154.357978 461.378894 
z
M 157.296482 459.362993 
L 157.565983 459.150151 
L 157.296482 458.942896 
L 157.035898 459.150151 
z
M 157.203116 459.150151 
L 157.296482 459.075893 
L 157.393043 459.150151 
L 157.296482 459.226411 
z
M 160.100503 457.187733 
L 160.437499 456.921407 
L 160.100503 456.66347 
L 159.776039 456.921407 
z
M 159.939173 456.921407 
L 160.100503 456.793156 
L 160.268064 456.921407 
L 160.100503 457.05383 
z
M 162.904523 454.965827 
L 163.24989 454.692663 
L 162.904523 454.429667 
L 162.573547 454.692663 
z
M 162.736281 454.692663 
L 162.904523 454.558977 
L 163.08008 454.692663 
L 162.904523 454.831518 
z
M 165.708543 452.697469 
L 166.003535 452.46392 
L 165.708543 452.24052 
L 165.427283 452.46392 
z
M 165.593235 452.46392 
L 165.708543 452.372333 
L 165.829481 452.46392 
L 165.708543 452.559668 
z
M 168.512563 450.379757 
L 168.694963 450.235176 
L 168.512563 450.097864 
L 168.339621 450.235176 
z
" clip-path="url(#p6be76d3c98)" style="fill: #08478d"/>
    <path d="M 157.296482 459.226411 
L 157.393043 459.150151 
L 157.296482 459.075893 
L 157.203116 459.150151 
z
M 160.100503 457.05383 
L 160.268064 456.921407 
L 160.100503 456.793156 
L 159.939173 456.921407 
z
M 160.052523 456.921407 
L 160.100503 456.883265 
L 160.150335 456.921407 
L 160.100503 456.96079 
z
M 162.904523 454.831518 
L 163.08008 454.692663 
L 162.904523 454.558977 
L 162.736281 454.692663 
z
M 162.849354 454.692663 
L 162.904523 454.648825 
L 162.962091 454.692663 
L 162.904523 454.738196 
z
M 165.708543 452.559668 
L 165.829481 452.46392 
L 165.708543 452.372333 
L 165.593235 452.46392 
z
" clip-path="url(#p6be76d3c98)" style="fill: #083a7a"/>
    <path d="M 160.100503 456.96079 
L 160.150335 456.921407 
L 160.100503 456.883265 
L 160.052523 456.921407 
z
M 162.904523 454.738196 
L 162.962091 454.692663 
L 162.904523 454.648825 
L 162.849354 454.692663 
z
" clip-path="url(#p6be76d3c98)" style="fill: #08326e"/>
   </g>
   <g id="matplotlib.axis_1">
    <g id="xtick_1">
     <g id="line2d_1">
      <defs>
       <path id="m57dc99cc9e" d="M 0 0 
L 0 3.5 
" style="stroke: #000000; stroke-width: 0.8"/>
      </defs>
      <g>
       <use xlink:href="#m57dc99cc9e" x="165.570823" y="512.64" style="stroke: #000000; stroke-width: 0.8"/>
      </g>
     </g>
     <g id="text_1">
      <!-- 0 -->
      <g transform="translate(162.389573 527.238438) scale(0.1 -0.1)">
       <defs>
        <path id="DejaVuSans-30" d="M 2034 4250 
Q 1547 4250 1301 3770 
Q 1056 3291 1056 2328 
Q 1056 1369 1301 889 
Q 1547 409 2034 409 
Q 2525 409 2770 889 
Q 3016 1369 3016 2328 
Q 3016 3291 2770 3770 
Q 2525 4250 2034 4250 
z
M 2034 4750 
Q 2819 4750 3233 4129 
Q 3647 3509 3647 2328 
Q 3647 1150 3233 529 
Q 2819 -91 2034 -91 
Q 1250 -91 836 529 
Q 422 1150 422 2328 
Q 422 3509 836 4129 
Q 1250 4750 2034 4750 
z
" transform="scale(0.015625)"/>
       </defs>
       <use xlink:href="#DejaVuSans-30"/>
      </g>
     </g>
    </g>
    <g id="xtick_2">
     <g id="line2d_2">
      <g>
       <use xlink:href="#m57dc99cc9e" x="243.078674" y="512.64" style="stroke: #000000; stroke-width: 0.8"/>
      </g>
     </g>
     <g id="text_2">
      <!-- 100 -->
      <g transform="translate(233.534924 527.238438) scale(0.1 -0.1)">
       <defs>
        <path id="DejaVuSans-31" d="M 794 531 
L 1825 531 
L 1825 4091 
L 703 3866 
L 703 4441 
L 1819 4666 
L 2450 4666 
L 2450 531 
L 3481 531 
L 3481 0 
L 794 0 
L 794 531 
z
" transform="scale(0.015625)"/>
       </defs>
       <use xlink:href="#DejaVuSans-31"/>
       <use xlink:href="#DejaVuSans-30" x="63.623047"/>
       <use xlink:href="#DejaVuSans-30" x="127.246094"/>
      </g>
     </g>
    </g>
    <g id="xtick_3">
     <g id="line2d_3">
      <g>
       <use xlink:href="#m57dc99cc9e" x="320.586526" y="512.64" style="stroke: #000000; stroke-width: 0.8"/>
      </g>
     </g>
     <g id="text_3">
      <!-- 200 -->
      <g transform="translate(311.042776 527.238438) scale(0.1 -0.1)">
       <defs>
        <path id="DejaVuSans-32" d="M 1228 531 
L 3431 531 
L 3431 0 
L 469 0 
L 469 531 
Q 828 903 1448 1529 
Q 2069 2156 2228 2338 
Q 2531 2678 2651 2914 
Q 2772 3150 2772 3378 
Q 2772 3750 2511 3984 
Q 2250 4219 1831 4219 
Q 1534 4219 1204 4116 
Q 875 4013 500 3803 
L 500 4441 
Q 881 4594 1212 4672 
Q 1544 4750 1819 4750 
Q 2544 4750 2975 4387 
Q 3406 4025 3406 3419 
Q 3406 3131 3298 2873 
Q 3191 2616 2906 2266 
Q 2828 2175 2409 1742 
Q 1991 1309 1228 531 
z
" transform="scale(0.015625)"/>
       </defs>
       <use xlink:href="#DejaVuSans-32"/>
       <use xlink:href="#DejaVuSans-30" x="63.623047"/>
       <use xlink:href="#DejaVuSans-30" x="127.246094"/>
      </g>
     </g>
    </g>
    <g id="xtick_4">
     <g id="line2d_4">
      <g>
       <use xlink:href="#m57dc99cc9e" x="398.094377" y="512.64" style="stroke: #000000; stroke-width: 0.8"/>
      </g>
     </g>
     <g id="text_4">
      <!-- 300 -->
      <g transform="translate(388.550627 527.238438) scale(0.1 -0.1)">
       <defs>
        <path id="DejaVuSans-33" d="M 2597 2516 
Q 3050 2419 3304 2112 
Q 3559 1806 3559 1356 
Q 3559 666 3084 287 
Q 2609 -91 1734 -91 
Q 1441 -91 1130 -33 
Q 819 25 488 141 
L 488 750 
Q 750 597 1062 519 
Q 1375 441 1716 441 
Q 2309 441 2620 675 
Q 2931 909 2931 1356 
Q 2931 1769 2642 2001 
Q 2353 2234 1838 2234 
L 1294 2234 
L 1294 2753 
L 1863 2753 
Q 2328 2753 2575 2939 
Q 2822 3125 2822 3475 
Q 2822 3834 2567 4026 
Q 2313 4219 1838 4219 
Q 1578 4219 1281 4162 
Q 984 4106 628 3988 
L 628 4550 
Q 988 4650 1302 4700 
Q 1616 4750 1894 4750 
Q 2613 4750 3031 4423 
Q 3450 4097 3450 3541 
Q 3450 3153 3228 2886 
Q 3006 2619 2597 2516 
z
" transform="scale(0.015625)"/>
       </defs>
       <use xlink:href="#DejaVuSans-33"/>
       <use xlink:href="#DejaVuSans-30" x="63.623047"/>
       <use xlink:href="#DejaVuSans-30" x="127.246094"/>
      </g>
     </g>
    </g>
    <g id="xtick_5">
     <g id="line2d_5">
      <g>
       <use xlink:href="#m57dc99cc9e" x="475.602228" y="512.64" style="stroke: #000000; stroke-width: 0.8"/>
      </g>
     </g>
     <g id="text_5">
      <!-- 400 -->
      <g transform="translate(466.058478 527.238438) scale(0.1 -0.1)">
       <defs>
        <path id="DejaVuSans-34" d="M 2419 4116 
L 825 1625 
L 2419 1625 
L 2419 4116 
z
M 2253 4666 
L 3047 4666 
L 3047 1625 
L 3713 1625 
L 3713 1100 
L 3047 1100 
L 3047 0 
L 2419 0 
L 2419 1100 
L 313 1100 
L 313 1709 
L 2253 4666 
z
" transform="scale(0.015625)"/>
       </defs>
       <use xlink:href="#DejaVuSans-34"/>
       <use xlink:href="#DejaVuSans-30" x="63.623047"/>
       <use xlink:href="#DejaVuSans-30" x="127.246094"/>
      </g>
     </g>
    </g>
    <g id="xtick_6">
     <g id="line2d_6">
      <g>
       <use xlink:href="#m57dc99cc9e" x="553.11008" y="512.64" style="stroke: #000000; stroke-width: 0.8"/>
      </g>
     </g>
     <g id="text_6">
      <!-- 500 -->
      <g transform="translate(543.56633 527.238438) scale(0.1 -0.1)">
       <defs>
        <path id="DejaVuSans-35" d="M 691 4666 
L 3169 4666 
L 3169 4134 
L 1269 4134 
L 1269 2991 
Q 1406 3038 1543 3061 
Q 1681 3084 1819 3084 
Q 2600 3084 3056 2656 
Q 3513 2228 3513 1497 
Q 3513 744 3044 326 
Q 2575 -91 1722 -91 
Q 1428 -91 1123 -41 
Q 819 9 494 109 
L 494 744 
Q 775 591 1075 516 
Q 1375 441 1709 441 
Q 2250 441 2565 725 
Q 2881 1009 2881 1497 
Q 2881 1984 2565 2268 
Q 2250 2553 1709 2553 
Q 1456 2553 1204 2497 
Q 953 2441 691 2322 
L 691 4666 
z
" transform="scale(0.015625)"/>
       </defs>
       <use xlink:href="#DejaVuSans-35"/>
       <use xlink:href="#DejaVuSans-30" x="63.623047"/>
       <use xlink:href="#DejaVuSans-30" x="127.246094"/>
      </g>
     </g>
    </g>
    <g id="xtick_7">
     <g id="line2d_7">
      <g>
       <use xlink:href="#m57dc99cc9e" x="630.617931" y="512.64" style="stroke: #000000; stroke-width: 0.8"/>
      </g>
     </g>
     <g id="text_7">
      <!-- 600 -->
      <g transform="translate(621.074181 527.238438) scale(0.1 -0.1)">
       <defs>
        <path id="DejaVuSans-36" d="M 2113 2584 
Q 1688 2584 1439 2293 
Q 1191 2003 1191 1497 
Q 1191 994 1439 701 
Q 1688 409 2113 409 
Q 2538 409 2786 701 
Q 3034 994 3034 1497 
Q 3034 2003 2786 2293 
Q 2538 2584 2113 2584 
z
M 3366 4563 
L 3366 3988 
Q 3128 4100 2886 4159 
Q 2644 4219 2406 4219 
Q 1781 4219 1451 3797 
Q 1122 3375 1075 2522 
Q 1259 2794 1537 2939 
Q 1816 3084 2150 3084 
Q 2853 3084 3261 2657 
Q 3669 2231 3669 1497 
Q 3669 778 3244 343 
Q 2819 -91 2113 -91 
Q 1303 -91 875 529 
Q 447 1150 447 2328 
Q 447 3434 972 4092 
Q 1497 4750 2381 4750 
Q 2619 4750 2861 4703 
Q 3103 4656 3366 4563 
z
" transform="scale(0.015625)"/>
       </defs>
       <use xlink:href="#DejaVuSans-36"/>
       <use xlink:href="#DejaVuSans-30" x="63.623047"/>
       <use xlink:href="#DejaVuSans-30" x="127.246094"/>
      </g>
     </g>
    </g>
    <g id="text_8">
     <!-- Ground Truth Energy -->
     <g transform="translate(317.257812 540.916563) scale(0.1 -0.1)">
      <defs>
       <path id="DejaVuSans-47" d="M 3809 666 
L 3809 1919 
L 2778 1919 
L 2778 2438 
L 4434 2438 
L 4434 434 
Q 4069 175 3628 42 
Q 3188 -91 2688 -91 
Q 1594 -91 976 548 
Q 359 1188 359 2328 
Q 359 3472 976 4111 
Q 1594 4750 2688 4750 
Q 3144 4750 3555 4637 
Q 3966 4525 4313 4306 
L 4313 3634 
Q 3963 3931 3569 4081 
Q 3175 4231 2741 4231 
Q 1884 4231 1454 3753 
Q 1025 3275 1025 2328 
Q 1025 1384 1454 906 
Q 1884 428 2741 428 
Q 3075 428 3337 486 
Q 3600 544 3809 666 
z
" transform="scale(0.015625)"/>
       <path id="DejaVuSans-72" d="M 2631 2963 
Q 2534 3019 2420 3045 
Q 2306 3072 2169 3072 
Q 1681 3072 1420 2755 
Q 1159 2438 1159 1844 
L 1159 0 
L 581 0 
L 581 3500 
L 1159 3500 
L 1159 2956 
Q 1341 3275 1631 3429 
Q 1922 3584 2338 3584 
Q 2397 3584 2469 3576 
Q 2541 3569 2628 3553 
L 2631 2963 
z
" transform="scale(0.015625)"/>
       <path id="DejaVuSans-6f" d="M 1959 3097 
Q 1497 3097 1228 2736 
Q 959 2375 959 1747 
Q 959 1119 1226 758 
Q 1494 397 1959 397 
Q 2419 397 2687 759 
Q 2956 1122 2956 1747 
Q 2956 2369 2687 2733 
Q 2419 3097 1959 3097 
z
M 1959 3584 
Q 2709 3584 3137 3096 
Q 3566 2609 3566 1747 
Q 3566 888 3137 398 
Q 2709 -91 1959 -91 
Q 1206 -91 779 398 
Q 353 888 353 1747 
Q 353 2609 779 3096 
Q 1206 3584 1959 3584 
z
" transform="scale(0.015625)"/>
       <path id="DejaVuSans-75" d="M 544 1381 
L 544 3500 
L 1119 3500 
L 1119 1403 
Q 1119 906 1312 657 
Q 1506 409 1894 409 
Q 2359 409 2629 706 
Q 2900 1003 2900 1516 
L 2900 3500 
L 3475 3500 
L 3475 0 
L 2900 0 
L 2900 538 
Q 2691 219 2414 64 
Q 2138 -91 1772 -91 
Q 1169 -91 856 284 
Q 544 659 544 1381 
z
M 1991 3584 
L 1991 3584 
z
" transform="scale(0.015625)"/>
       <path id="DejaVuSans-6e" d="M 3513 2113 
L 3513 0 
L 2938 0 
L 2938 2094 
Q 2938 2591 2744 2837 
Q 2550 3084 2163 3084 
Q 1697 3084 1428 2787 
Q 1159 2491 1159 1978 
L 1159 0 
L 581 0 
L 581 3500 
L 1159 3500 
L 1159 2956 
Q 1366 3272 1645 3428 
Q 1925 3584 2291 3584 
Q 2894 3584 3203 3211 
Q 3513 2838 3513 2113 
z
" transform="scale(0.015625)"/>
       <path id="DejaVuSans-64" d="M 2906 2969 
L 2906 4863 
L 3481 4863 
L 3481 0 
L 2906 0 
L 2906 525 
Q 2725 213 2448 61 
Q 2172 -91 1784 -91 
Q 1150 -91 751 415 
Q 353 922 353 1747 
Q 353 2572 751 3078 
Q 1150 3584 1784 3584 
Q 2172 3584 2448 3432 
Q 2725 3281 2906 2969 
z
M 947 1747 
Q 947 1113 1208 752 
Q 1469 391 1925 391 
Q 2381 391 2643 752 
Q 2906 1113 2906 1747 
Q 2906 2381 2643 2742 
Q 2381 3103 1925 3103 
Q 1469 3103 1208 2742 
Q 947 2381 947 1747 
z
" transform="scale(0.015625)"/>
       <path id="DejaVuSans-20" transform="scale(0.015625)"/>
       <path id="DejaVuSans-54" d="M -19 4666 
L 3928 4666 
L 3928 4134 
L 2272 4134 
L 2272 0 
L 1638 0 
L 1638 4134 
L -19 4134 
L -19 4666 
z
" transform="scale(0.015625)"/>
       <path id="DejaVuSans-74" d="M 1172 4494 
L 1172 3500 
L 2356 3500 
L 2356 3053 
L 1172 3053 
L 1172 1153 
Q 1172 725 1289 603 
Q 1406 481 1766 481 
L 2356 481 
L 2356 0 
L 1766 0 
Q 1100 0 847 248 
Q 594 497 594 1153 
L 594 3053 
L 172 3053 
L 172 3500 
L 594 3500 
L 594 4494 
L 1172 4494 
z
" transform="scale(0.015625)"/>
       <path id="DejaVuSans-68" d="M 3513 2113 
L 3513 0 
L 2938 0 
L 2938 2094 
Q 2938 2591 2744 2837 
Q 2550 3084 2163 3084 
Q 1697 3084 1428 2787 
Q 1159 2491 1159 1978 
L 1159 0 
L 581 0 
L 581 4863 
L 1159 4863 
L 1159 2956 
Q 1366 3272 1645 3428 
Q 1925 3584 2291 3584 
Q 2894 3584 3203 3211 
Q 3513 2838 3513 2113 
z
" transform="scale(0.015625)"/>
       <path id="DejaVuSans-45" d="M 628 4666 
L 3578 4666 
L 3578 4134 
L 1259 4134 
L 1259 2753 
L 3481 2753 
L 3481 2222 
L 1259 2222 
L 1259 531 
L 3634 531 
L 3634 0 
L 628 0 
L 628 4666 
z
" transform="scale(0.015625)"/>
       <path id="DejaVuSans-65" d="M 3597 1894 
L 3597 1613 
L 953 1613 
Q 991 1019 1311 708 
Q 1631 397 2203 397 
Q 2534 397 2845 478 
Q 3156 559 3463 722 
L 3463 178 
Q 3153 47 2828 -22 
Q 2503 -91 2169 -91 
Q 1331 -91 842 396 
Q 353 884 353 1716 
Q 353 2575 817 3079 
Q 1281 3584 2069 3584 
Q 2775 3584 3186 3129 
Q 3597 2675 3597 1894 
z
M 3022 2063 
Q 3016 2534 2758 2815 
Q 2500 3097 2075 3097 
Q 1594 3097 1305 2825 
Q 1016 2553 972 2059 
L 3022 2063 
z
" transform="scale(0.015625)"/>
       <path id="DejaVuSans-67" d="M 2906 1791 
Q 2906 2416 2648 2759 
Q 2391 3103 1925 3103 
Q 1463 3103 1205 2759 
Q 947 2416 947 1791 
Q 947 1169 1205 825 
Q 1463 481 1925 481 
Q 2391 481 2648 825 
Q 2906 1169 2906 1791 
z
M 3481 434 
Q 3481 -459 3084 -895 
Q 2688 -1331 1869 -1331 
Q 1566 -1331 1297 -1286 
Q 1028 -1241 775 -1147 
L 775 -588 
Q 1028 -725 1275 -790 
Q 1522 -856 1778 -856 
Q 2344 -856 2625 -561 
Q 2906 -266 2906 331 
L 2906 616 
Q 2728 306 2450 153 
Q 2172 0 1784 0 
Q 1141 0 747 490 
Q 353 981 353 1791 
Q 353 2603 747 3093 
Q 1141 3584 1784 3584 
Q 2172 3584 2450 3431 
Q 2728 3278 2906 2969 
L 2906 3500 
L 3481 3500 
L 3481 434 
z
" transform="scale(0.015625)"/>
       <path id="DejaVuSans-79" d="M 2059 -325 
Q 1816 -950 1584 -1140 
Q 1353 -1331 966 -1331 
L 506 -1331 
L 506 -850 
L 844 -850 
Q 1081 -850 1212 -737 
Q 1344 -625 1503 -206 
L 1606 56 
L 191 3500 
L 800 3500 
L 1894 763 
L 2988 3500 
L 3597 3500 
L 2059 -325 
z
" transform="scale(0.015625)"/>
      </defs>
      <use xlink:href="#DejaVuSans-47"/>
      <use xlink:href="#DejaVuSans-72" x="77.490234"/>
      <use xlink:href="#DejaVuSans-6f" x="116.353516"/>
      <use xlink:href="#DejaVuSans-75" x="177.535156"/>
      <use xlink:href="#DejaVuSans-6e" x="240.914062"/>
      <use xlink:href="#DejaVuSans-64" x="304.292969"/>
      <use xlink:href="#DejaVuSans-20" x="367.769531"/>
      <use xlink:href="#DejaVuSans-54" x="399.556641"/>
      <use xlink:href="#DejaVuSans-72" x="445.890625"/>
      <use xlink:href="#DejaVuSans-75" x="487.003906"/>
      <use xlink:href="#DejaVuSans-74" x="550.382812"/>
      <use xlink:href="#DejaVuSans-68" x="589.591797"/>
      <use xlink:href="#DejaVuSans-20" x="652.970703"/>
      <use xlink:href="#DejaVuSans-45" x="684.757812"/>
      <use xlink:href="#DejaVuSans-6e" x="747.941406"/>
      <use xlink:href="#DejaVuSans-65" x="811.320312"/>
      <use xlink:href="#DejaVuSans-72" x="872.84375"/>
      <use xlink:href="#DejaVuSans-67" x="912.207031"/>
      <use xlink:href="#DejaVuSans-79" x="975.683594"/>
     </g>
    </g>
   </g>
   <g id="matplotlib.axis_2">
    <g id="ytick_1">
     <g id="line2d_8">
      <defs>
       <path id="m363d6ffddb" d="M 0 0 
L -3.5 0 
" style="stroke: #000000; stroke-width: 0.8"/>
      </defs>
      <g>
       <use xlink:href="#m363d6ffddb" x="90" y="454.998426" style="stroke: #000000; stroke-width: 0.8"/>
      </g>
     </g>
     <g id="text_9">
      <!-- 0 -->
      <g transform="translate(76.6375 458.797645) scale(0.1 -0.1)">
       <use xlink:href="#DejaVuSans-30"/>
      </g>
     </g>
    </g>
    <g id="ytick_2">
     <g id="line2d_9">
      <g>
       <use xlink:href="#m363d6ffddb" x="90" y="393.243848" style="stroke: #000000; stroke-width: 0.8"/>
      </g>
     </g>
     <g id="text_10">
      <!-- 100 -->
      <g transform="translate(63.9125 397.043067) scale(0.1 -0.1)">
       <use xlink:href="#DejaVuSans-31"/>
       <use xlink:href="#DejaVuSans-30" x="63.623047"/>
       <use xlink:href="#DejaVuSans-30" x="127.246094"/>
      </g>
     </g>
    </g>
    <g id="ytick_3">
     <g id="line2d_10">
      <g>
       <use xlink:href="#m363d6ffddb" x="90" y="331.489271" style="stroke: #000000; stroke-width: 0.8"/>
      </g>
     </g>
     <g id="text_11">
      <!-- 200 -->
      <g transform="translate(63.9125 335.28849) scale(0.1 -0.1)">
       <use xlink:href="#DejaVuSans-32"/>
       <use xlink:href="#DejaVuSans-30" x="63.623047"/>
       <use xlink:href="#DejaVuSans-30" x="127.246094"/>
      </g>
     </g>
    </g>
    <g id="ytick_4">
     <g id="line2d_11">
      <g>
       <use xlink:href="#m363d6ffddb" x="90" y="269.734693" style="stroke: #000000; stroke-width: 0.8"/>
      </g>
     </g>
     <g id="text_12">
      <!-- 300 -->
      <g transform="translate(63.9125 273.533912) scale(0.1 -0.1)">
       <use xlink:href="#DejaVuSans-33"/>
       <use xlink:href="#DejaVuSans-30" x="63.623047"/>
       <use xlink:href="#DejaVuSans-30" x="127.246094"/>
      </g>
     </g>
    </g>
    <g id="ytick_5">
     <g id="line2d_12">
      <g>
       <use xlink:href="#m363d6ffddb" x="90" y="207.980116" style="stroke: #000000; stroke-width: 0.8"/>
      </g>
     </g>
     <g id="text_13">
      <!-- 400 -->
      <g transform="translate(63.9125 211.779335) scale(0.1 -0.1)">
       <use xlink:href="#DejaVuSans-34"/>
       <use xlink:href="#DejaVuSans-30" x="63.623047"/>
       <use xlink:href="#DejaVuSans-30" x="127.246094"/>
      </g>
     </g>
    </g>
    <g id="ytick_6">
     <g id="line2d_13">
      <g>
       <use xlink:href="#m363d6ffddb" x="90" y="146.225538" style="stroke: #000000; stroke-width: 0.8"/>
      </g>
     </g>
     <g id="text_14">
      <!-- 500 -->
      <g transform="translate(63.9125 150.024757) scale(0.1 -0.1)">
       <use xlink:href="#DejaVuSans-35"/>
       <use xlink:href="#DejaVuSans-30" x="63.623047"/>
       <use xlink:href="#DejaVuSans-30" x="127.246094"/>
      </g>
     </g>
    </g>
    <g id="ytick_7">
     <g id="line2d_14">
      <g>
       <use xlink:href="#m363d6ffddb" x="90" y="84.470961" style="stroke: #000000; stroke-width: 0.8"/>
      </g>
     </g>
     <g id="text_15">
      <!-- 600 -->
      <g transform="translate(63.9125 88.27018) scale(0.1 -0.1)">
       <use xlink:href="#DejaVuSans-36"/>
       <use xlink:href="#DejaVuSans-30" x="63.623047"/>
       <use xlink:href="#DejaVuSans-30" x="127.246094"/>
      </g>
     </g>
    </g>
    <g id="text_16">
     <!-- Predicted Energy -->
     <g transform="translate(57.832812 333.445625) rotate(-90) scale(0.1 -0.1)">
      <defs>
       <path id="DejaVuSans-50" d="M 1259 4147 
L 1259 2394 
L 2053 2394 
Q 2494 2394 2734 2622 
Q 2975 2850 2975 3272 
Q 2975 3691 2734 3919 
Q 2494 4147 2053 4147 
L 1259 4147 
z
M 628 4666 
L 2053 4666 
Q 2838 4666 3239 4311 
Q 3641 3956 3641 3272 
Q 3641 2581 3239 2228 
Q 2838 1875 2053 1875 
L 1259 1875 
L 1259 0 
L 628 0 
L 628 4666 
z
" transform="scale(0.015625)"/>
       <path id="DejaVuSans-69" d="M 603 3500 
L 1178 3500 
L 1178 0 
L 603 0 
L 603 3500 
z
M 603 4863 
L 1178 4863 
L 1178 4134 
L 603 4134 
L 603 4863 
z
" transform="scale(0.015625)"/>
       <path id="DejaVuSans-63" d="M 3122 3366 
L 3122 2828 
Q 2878 2963 2633 3030 
Q 2388 3097 2138 3097 
Q 1578 3097 1268 2742 
Q 959 2388 959 1747 
Q 959 1106 1268 751 
Q 1578 397 2138 397 
Q 2388 397 2633 464 
Q 2878 531 3122 666 
L 3122 134 
Q 2881 22 2623 -34 
Q 2366 -91 2075 -91 
Q 1284 -91 818 406 
Q 353 903 353 1747 
Q 353 2603 823 3093 
Q 1294 3584 2113 3584 
Q 2378 3584 2631 3529 
Q 2884 3475 3122 3366 
z
" transform="scale(0.015625)"/>
      </defs>
      <use xlink:href="#DejaVuSans-50"/>
      <use xlink:href="#DejaVuSans-72" x="58.552734"/>
      <use xlink:href="#DejaVuSans-65" x="97.416016"/>
      <use xlink:href="#DejaVuSans-64" x="158.939453"/>
      <use xlink:href="#DejaVuSans-69" x="222.416016"/>
      <use xlink:href="#DejaVuSans-63" x="250.199219"/>
      <use xlink:href="#DejaVuSans-74" x="305.179688"/>
      <use xlink:href="#DejaVuSans-65" x="344.388672"/>
      <use xlink:href="#DejaVuSans-64" x="405.912109"/>
      <use xlink:href="#DejaVuSans-20" x="469.388672"/>
      <use xlink:href="#DejaVuSans-45" x="501.175781"/>
      <use xlink:href="#DejaVuSans-6e" x="564.359375"/>
      <use xlink:href="#DejaVuSans-65" x="627.738281"/>
      <use xlink:href="#DejaVuSans-72" x="689.261719"/>
      <use xlink:href="#DejaVuSans-67" x="728.625"/>
      <use xlink:href="#DejaVuSans-79" x="792.101562"/>
     </g>
    </g>
   </g>
   <g id="line2d_15">
    <path d="M 136.068347 478.504598 
L 601.931653 107.326826 
" clip-path="url(#p6be76d3c98)" style="fill: none; stroke-dasharray: 5.55,2.4; stroke-dashoffset: 0; stroke: #ff0000; stroke-width: 1.5"/>
   </g>
   <g id="patch_3">
    <path d="M 90 512.64 
L 90 69.12 
" style="fill: none; stroke: #000000; stroke-width: 0.8; stroke-linejoin: miter; stroke-linecap: square"/>
   </g>
   <g id="patch_4">
    <path d="M 648 512.64 
L 648 69.12 
" style="fill: none; stroke: #000000; stroke-width: 0.8; stroke-linejoin: miter; stroke-linecap: square"/>
   </g>
   <g id="patch_5">
    <path d="M 90 512.64 
L 648 512.64 
" style="fill: none; stroke: #000000; stroke-width: 0.8; stroke-linejoin: miter; stroke-linecap: square"/>
   </g>
   <g id="patch_6">
    <path d="M 90 69.12 
L 648 69.12 
" style="fill: none; stroke: #000000; stroke-width: 0.8; stroke-linejoin: miter; stroke-linecap: square"/>
   </g>
   <g id="text_17">
    <!-- Energy R2 Score: 0.9937117929579163 -->
    <g transform="translate(145.8 113.472) scale(0.1 -0.1)">
     <defs>
      <path id="DejaVuSans-52" d="M 2841 2188 
Q 3044 2119 3236 1894 
Q 3428 1669 3622 1275 
L 4263 0 
L 3584 0 
L 2988 1197 
Q 2756 1666 2539 1819 
Q 2322 1972 1947 1972 
L 1259 1972 
L 1259 0 
L 628 0 
L 628 4666 
L 2053 4666 
Q 2853 4666 3247 4331 
Q 3641 3997 3641 3322 
Q 3641 2881 3436 2590 
Q 3231 2300 2841 2188 
z
M 1259 4147 
L 1259 2491 
L 2053 2491 
Q 2509 2491 2742 2702 
Q 2975 2913 2975 3322 
Q 2975 3731 2742 3939 
Q 2509 4147 2053 4147 
L 1259 4147 
z
" transform="scale(0.015625)"/>
      <path id="DejaVuSans-53" d="M 3425 4513 
L 3425 3897 
Q 3066 4069 2747 4153 
Q 2428 4238 2131 4238 
Q 1616 4238 1336 4038 
Q 1056 3838 1056 3469 
Q 1056 3159 1242 3001 
Q 1428 2844 1947 2747 
L 2328 2669 
Q 3034 2534 3370 2195 
Q 3706 1856 3706 1288 
Q 3706 609 3251 259 
Q 2797 -91 1919 -91 
Q 1588 -91 1214 -16 
Q 841 59 441 206 
L 441 856 
Q 825 641 1194 531 
Q 1563 422 1919 422 
Q 2459 422 2753 634 
Q 3047 847 3047 1241 
Q 3047 1584 2836 1778 
Q 2625 1972 2144 2069 
L 1759 2144 
Q 1053 2284 737 2584 
Q 422 2884 422 3419 
Q 422 4038 858 4394 
Q 1294 4750 2059 4750 
Q 2388 4750 2728 4690 
Q 3069 4631 3425 4513 
z
" transform="scale(0.015625)"/>
      <path id="DejaVuSans-3a" d="M 750 794 
L 1409 794 
L 1409 0 
L 750 0 
L 750 794 
z
M 750 3309 
L 1409 3309 
L 1409 2516 
L 750 2516 
L 750 3309 
z
" transform="scale(0.015625)"/>
      <path id="DejaVuSans-2e" d="M 684 794 
L 1344 794 
L 1344 0 
L 684 0 
L 684 794 
z
" transform="scale(0.015625)"/>
      <path id="DejaVuSans-39" d="M 703 97 
L 703 672 
Q 941 559 1184 500 
Q 1428 441 1663 441 
Q 2288 441 2617 861 
Q 2947 1281 2994 2138 
Q 2813 1869 2534 1725 
Q 2256 1581 1919 1581 
Q 1219 1581 811 2004 
Q 403 2428 403 3163 
Q 403 3881 828 4315 
Q 1253 4750 1959 4750 
Q 2769 4750 3195 4129 
Q 3622 3509 3622 2328 
Q 3622 1225 3098 567 
Q 2575 -91 1691 -91 
Q 1453 -91 1209 -44 
Q 966 3 703 97 
z
M 1959 2075 
Q 2384 2075 2632 2365 
Q 2881 2656 2881 3163 
Q 2881 3666 2632 3958 
Q 2384 4250 1959 4250 
Q 1534 4250 1286 3958 
Q 1038 3666 1038 3163 
Q 1038 2656 1286 2365 
Q 1534 2075 1959 2075 
z
" transform="scale(0.015625)"/>
      <path id="DejaVuSans-37" d="M 525 4666 
L 3525 4666 
L 3525 4397 
L 1831 0 
L 1172 0 
L 2766 4134 
L 525 4134 
L 525 4666 
z
" transform="scale(0.015625)"/>
     </defs>
     <use xlink:href="#DejaVuSans-45"/>
     <use xlink:href="#DejaVuSans-6e" x="63.183594"/>
     <use xlink:href="#DejaVuSans-65" x="126.5625"/>
     <use xlink:href="#DejaVuSans-72" x="188.085938"/>
     <use xlink:href="#DejaVuSans-67" x="227.449219"/>
     <use xlink:href="#DejaVuSans-79" x="290.925781"/>
     <use xlink:href="#DejaVuSans-20" x="350.105469"/>
     <use xlink:href="#DejaVuSans-52" x="381.892578"/>
     <use xlink:href="#DejaVuSans-32" x="451.375"/>
     <use xlink:href="#DejaVuSans-20" x="514.998047"/>
     <use xlink:href="#DejaVuSans-53" x="546.785156"/>
     <use xlink:href="#DejaVuSans-63" x="610.261719"/>
     <use xlink:href="#DejaVuSans-6f" x="665.242188"/>
     <use xlink:href="#DejaVuSans-72" x="726.423828"/>
     <use xlink:href="#DejaVuSans-65" x="765.287109"/>
     <use xlink:href="#DejaVuSans-3a" x="826.810547"/>
     <use xlink:href="#DejaVuSans-20" x="860.501953"/>
     <use xlink:href="#DejaVuSans-30" x="892.289062"/>
     <use xlink:href="#DejaVuSans-2e" x="955.912109"/>
     <use xlink:href="#DejaVuSans-39" x="987.699219"/>
     <use xlink:href="#DejaVuSans-39" x="1051.322266"/>
     <use xlink:href="#DejaVuSans-33" x="1114.945312"/>
     <use xlink:href="#DejaVuSans-37" x="1178.568359"/>
     <use xlink:href="#DejaVuSans-31" x="1242.191406"/>
     <use xlink:href="#DejaVuSans-31" x="1305.814453"/>
     <use xlink:href="#DejaVuSans-37" x="1369.4375"/>
     <use xlink:href="#DejaVuSans-39" x="1433.060547"/>
     <use xlink:href="#DejaVuSans-32" x="1496.683594"/>
     <use xlink:href="#DejaVuSans-39" x="1560.306641"/>
     <use xlink:href="#DejaVuSans-35" x="1623.929688"/>
     <use xlink:href="#DejaVuSans-37" x="1687.552734"/>
     <use xlink:href="#DejaVuSans-39" x="1751.175781"/>
     <use xlink:href="#DejaVuSans-31" x="1814.798828"/>
     <use xlink:href="#DejaVuSans-36" x="1878.421875"/>
     <use xlink:href="#DejaVuSans-33" x="1942.044922"/>
    </g>
   </g>
   <g id="text_18">
    <!-- MVE In Distribution -->
    <g transform="translate(311.53875 63.12) scale(0.12 -0.12)">
     <defs>
      <path id="DejaVuSans-4d" d="M 628 4666 
L 1569 4666 
L 2759 1491 
L 3956 4666 
L 4897 4666 
L 4897 0 
L 4281 0 
L 4281 4097 
L 3078 897 
L 2444 897 
L 1241 4097 
L 1241 0 
L 628 0 
L 628 4666 
z
" transform="scale(0.015625)"/>
      <path id="DejaVuSans-56" d="M 1831 0 
L 50 4666 
L 709 4666 
L 2188 738 
L 3669 4666 
L 4325 4666 
L 2547 0 
L 1831 0 
z
" transform="scale(0.015625)"/>
      <path id="DejaVuSans-49" d="M 628 4666 
L 1259 4666 
L 1259 0 
L 628 0 
L 628 4666 
z
" transform="scale(0.015625)"/>
      <path id="DejaVuSans-44" d="M 1259 4147 
L 1259 519 
L 2022 519 
Q 2988 519 3436 956 
Q 3884 1394 3884 2338 
Q 3884 3275 3436 3711 
Q 2988 4147 2022 4147 
L 1259 4147 
z
M 628 4666 
L 1925 4666 
Q 3281 4666 3915 4102 
Q 4550 3538 4550 2338 
Q 4550 1131 3912 565 
Q 3275 0 1925 0 
L 628 0 
L 628 4666 
z
" transform="scale(0.015625)"/>
      <path id="DejaVuSans-73" d="M 2834 3397 
L 2834 2853 
Q 2591 2978 2328 3040 
Q 2066 3103 1784 3103 
Q 1356 3103 1142 2972 
Q 928 2841 928 2578 
Q 928 2378 1081 2264 
Q 1234 2150 1697 2047 
L 1894 2003 
Q 2506 1872 2764 1633 
Q 3022 1394 3022 966 
Q 3022 478 2636 193 
Q 2250 -91 1575 -91 
Q 1294 -91 989 -36 
Q 684 19 347 128 
L 347 722 
Q 666 556 975 473 
Q 1284 391 1588 391 
Q 1994 391 2212 530 
Q 2431 669 2431 922 
Q 2431 1156 2273 1281 
Q 2116 1406 1581 1522 
L 1381 1569 
Q 847 1681 609 1914 
Q 372 2147 372 2553 
Q 372 3047 722 3315 
Q 1072 3584 1716 3584 
Q 2034 3584 2315 3537 
Q 2597 3491 2834 3397 
z
" transform="scale(0.015625)"/>
      <path id="DejaVuSans-62" d="M 3116 1747 
Q 3116 2381 2855 2742 
Q 2594 3103 2138 3103 
Q 1681 3103 1420 2742 
Q 1159 2381 1159 1747 
Q 1159 1113 1420 752 
Q 1681 391 2138 391 
Q 2594 391 2855 752 
Q 3116 1113 3116 1747 
z
M 1159 2969 
Q 1341 3281 1617 3432 
Q 1894 3584 2278 3584 
Q 2916 3584 3314 3078 
Q 3713 2572 3713 1747 
Q 3713 922 3314 415 
Q 2916 -91 2278 -91 
Q 1894 -91 1617 61 
Q 1341 213 1159 525 
L 1159 0 
L 581 0 
L 581 4863 
L 1159 4863 
L 1159 2969 
z
" transform="scale(0.015625)"/>
     </defs>
     <use xlink:href="#DejaVuSans-4d"/>
     <use xlink:href="#DejaVuSans-56" x="86.279297"/>
     <use xlink:href="#DejaVuSans-45" x="154.6875"/>
     <use xlink:href="#DejaVuSans-20" x="217.871094"/>
     <use xlink:href="#DejaVuSans-49" x="249.658203"/>
     <use xlink:href="#DejaVuSans-6e" x="279.150391"/>
     <use xlink:href="#DejaVuSans-20" x="342.529297"/>
     <use xlink:href="#DejaVuSans-44" x="374.316406"/>
     <use xlink:href="#DejaVuSans-69" x="451.318359"/>
     <use xlink:href="#DejaVuSans-73" x="479.101562"/>
     <use xlink:href="#DejaVuSans-74" x="531.201172"/>
     <use xlink:href="#DejaVuSans-72" x="570.410156"/>
     <use xlink:href="#DejaVuSans-69" x="611.523438"/>
     <use xlink:href="#DejaVuSans-62" x="639.306641"/>
     <use xlink:href="#DejaVuSans-75" x="702.783203"/>
     <use xlink:href="#DejaVuSans-74" x="766.162109"/>
     <use xlink:href="#DejaVuSans-69" x="805.371094"/>
     <use xlink:href="#DejaVuSans-6f" x="833.154297"/>
     <use xlink:href="#DejaVuSans-6e" x="894.335938"/>
    </g>
   </g>
  </g>
 </g>
 <defs>
  <clipPath id="p6be76d3c98">
   <rect x="90" y="69.12" width="558" height="443.52"/>
  </clipPath>
 </defs>
</svg>
