<?xml version="1.0" encoding="utf-8" standalone="no"?>
<!DOCTYPE svg PUBLIC "-//W3C//DTD SVG 1.1//EN"
  "http://www.w3.org/Graphics/SVG/1.1/DTD/svg11.dtd">
<svg xmlns:xlink="http://www.w3.org/1999/xlink" width="720pt" height="576pt" viewBox="0 0 720 576" xmlns="http://www.w3.org/2000/svg" version="1.1">
 <metadata>
  <rdf:RDF xmlns:dc="http://purl.org/dc/elements/1.1/" xmlns:cc="http://creativecommons.org/ns#" xmlns:rdf="http://www.w3.org/1999/02/22-rdf-syntax-ns#">
   <cc:Work>
    <dc:type rdf:resource="http://purl.org/dc/dcmitype/StillImage"/>
    <dc:date>2024-11-28T18:06:04.741565</dc:date>
    <dc:format>image/svg+xml</dc:format>
    <dc:creator>
     <cc:Agent>
      <dc:title>Matplotlib v3.8.4, https://matplotlib.org/</dc:title>
     </cc:Agent>
    </dc:creator>
   </cc:Work>
  </rdf:RDF>
 </metadata>
 <defs>
  <style type="text/css">*{stroke-linejoin: round; stroke-linecap: butt}</style>
 </defs>
 <g id="figure_1">
  <g id="patch_1">
   <path d="M 0 576 
L 720 576 
L 720 0 
L 0 0 
z
" style="fill: #ffffff"/>
  </g>
  <g id="axes_1">
   <g id="patch_2">
    <path d="M 90 512.64 
L 648 512.64 
L 648 69.12 
L 90 69.12 
z
" style="fill: #ffffff"/>
   </g>
   <g id="QuadContourSet_1">
    <path d="M 112.432161 494.895099 
L 112.539599 494.81005 
L 112.432161 494.724762 
L 112.325159 494.81005 
z
M 115.236181 493.38267 
L 116.249112 492.581307 
L 115.236181 491.778462 
L 114.228825 492.581307 
z
M 118.040201 491.607438 
L 119.627323 490.352563 
L 120.844221 489.673311 
L 122.805086 488.123819 
L 123.648241 487.640889 
L 125.858699 485.895075 
L 126.452261 485.546324 
L 128.833656 483.666332 
L 129.256281 483.411642 
L 131.757662 481.437588 
L 132.060302 481.250532 
L 134.647929 479.208844 
L 134.864322 479.071663 
L 137.515357 476.980101 
L 137.668342 476.880618 
L 140.366979 474.751357 
L 140.472362 474.681056 
L 143.20743 472.522613 
L 143.276382 472.475421 
L 146.039825 470.293869 
L 146.080402 470.265377 
L 148.86632 468.065126 
L 148.884422 468.052085 
L 151.688442 465.836382 
L 151.688442 465.836382 
L 154.492462 463.891511 
L 154.852412 463.607638 
L 157.296482 461.869653 
L 157.918413 461.378894 
L 160.100503 459.79089 
L 160.911729 459.150151 
L 162.904523 457.668305 
L 163.84889 456.921407 
L 165.708543 455.510222 
L 166.740533 454.692663 
L 168.512563 453.321635 
L 169.593199 452.46392 
L 171.316583 451.105122 
L 172.410464 450.235176 
L 174.120603 448.861411 
L 175.193612 448.006432 
L 176.924623 446.589688 
L 177.941964 445.777688 
L 179.728643 444.287675 
L 180.652921 443.548945 
L 182.532663 441.951469 
L 183.32173 441.320201 
L 185.336683 439.575133 
L 185.940948 439.091457 
L 188.140704 437.149953 
L 188.499522 436.862714 
L 190.944724 434.663245 
L 190.981304 434.63397 
L 193.698318 432.405226 
L 193.748744 432.352505 
L 196.417653 430.176482 
L 196.552764 430.031365 
L 199.09208 427.947739 
L 199.356784 427.655039 
L 201.698071 425.718995 
L 202.160804 425.190903 
L 204.198208 423.490251 
L 204.964824 422.584733 
L 206.532103 421.261508 
L 204.964824 420.218777 
L 203.647681 421.261508 
L 202.160804 422.115076 
L 200.424657 423.490251 
L 199.356784 424.117293 
L 197.335784 425.718995 
L 196.552764 426.188865 
L 194.334686 427.947739 
L 193.748744 428.306755 
L 191.392108 430.176482 
L 190.944724 430.456153 
L 188.489227 432.405226 
L 188.140704 432.627354 
L 185.613702 434.63397 
L 185.336683 434.813874 
L 182.757298 436.862714 
L 182.532663 437.011311 
L 179.914438 439.091457 
L 179.728643 439.21663 
L 177.081306 441.320201 
L 176.924623 441.427718 
L 174.255269 443.548945 
L 174.120603 443.643097 
L 171.434507 445.777688 
L 171.316583 445.861735 
L 168.61777 448.006432 
L 168.512563 448.082921 
L 165.804209 450.235176 
L 165.708543 450.306179 
L 162.993264 452.46392 
L 162.904523 452.531211 
L 160.184592 454.692663 
L 160.100503 454.757859 
L 157.378013 456.921407 
L 157.296482 456.986087 
L 154.573491 459.150151 
L 154.492462 459.215969 
L 151.771126 461.378894 
L 151.688442 461.447699 
L 148.971163 463.607638 
L 148.884422 463.681618 
L 146.174025 465.836382 
L 146.080402 465.918251 
L 143.380366 468.065126 
L 143.276382 468.158378 
L 140.59116 470.293869 
L 140.472362 470.403149 
L 137.807841 472.522613 
L 137.668342 472.65425 
L 135.032517 474.751357 
L 134.864322 474.914182 
L 132.268309 476.980101 
L 132.060302 477.186687 
L 129.519898 479.208844 
L 129.256281 479.477453 
L 126.794398 481.437588 
L 126.452261 481.795266 
L 124.102809 483.666332 
L 123.648241 484.153956 
L 121.462454 485.895075 
L 120.844221 486.575716 
L 118.901144 488.123819 
L 118.040201 489.096913 
L 116.464471 490.352563 
z
M 128.584161 481.437588 
L 129.256281 480.90245 
L 129.939185 481.437588 
L 129.256281 481.976526 
z
M 130.918411 479.208844 
L 132.060302 478.299901 
L 133.223419 479.208844 
L 132.060302 480.126566 
z
M 133.389178 476.980101 
L 134.864322 475.806175 
L 135.953924 474.751357 
L 137.668342 473.387338 
L 138.584713 472.522613 
L 140.472362 471.021103 
L 141.262943 470.293869 
L 143.276382 468.692631 
L 143.976101 468.065126 
L 146.080402 466.391937 
L 146.71572 465.836382 
L 148.884422 464.112265 
L 149.476093 463.607638 
L 151.688442 461.849063 
L 152.25345 461.378894 
L 154.492462 459.599321 
L 155.045439 459.150151 
L 157.296482 457.361162 
L 157.8508 456.921407 
L 160.100503 455.133581 
L 160.669193 454.692663 
L 162.904523 452.91631 
L 163.501124 452.46392 
L 165.708543 450.709757 
L 166.347972 450.235176 
L 168.512563 448.515035 
L 169.212123 448.006432 
L 171.316583 446.334057 
L 172.097208 445.777688 
L 174.120603 444.169734 
L 175.008512 443.548945 
L 176.924623 442.02629 
L 177.953594 441.320201 
L 179.728643 439.909749 
L 180.943239 439.091457 
L 182.532663 437.82868 
L 183.99291 436.862714 
L 185.336683 435.795337 
L 186.817777 436.862714 
L 185.336683 438.054123 
L 184.271155 439.091457 
L 182.532663 440.485545 
L 181.65641 441.320201 
L 179.728643 442.862013 
L 178.991862 443.548945 
L 176.924623 445.198694 
L 176.290224 445.777688 
L 174.120603 447.506016 
L 173.560386 448.006432 
L 171.316583 449.791193 
L 170.808555 450.235176 
L 168.512563 452.059198 
L 168.038988 452.46392 
L 165.708543 454.313395 
L 165.254457 454.692663 
L 162.904523 456.55594 
L 162.456549 456.921407 
L 160.100503 458.788045 
L 159.645836 459.150151 
L 157.296482 461.010128 
L 156.82194 461.378894 
L 154.492462 463.221878 
L 153.983502 463.607638 
L 151.688442 465.422233 
L 151.128036 465.836382 
L 148.884422 467.609258 
L 148.251636 468.065126 
L 146.080402 469.779914 
L 145.348473 470.293869 
L 143.276382 471.929645 
L 142.409989 472.522613 
L 140.472362 474.051737 
L 139.423614 474.751357 
L 137.668342 476.13629 
L 136.370731 476.980101 
L 134.864322 478.168598 
z
M 187.124969 434.63397 
L 188.140704 433.827406 
L 189.269538 434.63397 
L 188.140704 435.54541 
z
M 190.372137 432.405226 
L 190.944724 431.950731 
L 191.586822 432.405226 
L 190.944724 432.925973 
z
M 207.768844 419.744818 
L 208.600701 419.032764 
L 207.768844 418.487641 
L 207.079932 419.032764 
z
" clip-path="url(#p63c1ba44b7)" style="fill: #e6f0f9"/>
    <path d="M 129.256281 481.976526 
L 129.939185 481.437588 
L 129.256281 480.90245 
L 128.584161 481.437588 
z
M 132.060302 480.126566 
L 133.223419 479.208844 
L 132.060302 478.299901 
L 130.918411 479.208844 
z
M 134.864322 478.168598 
L 136.370731 476.980101 
L 137.668342 476.13629 
L 139.423614 474.751357 
L 140.472362 474.051737 
L 142.409989 472.522613 
L 143.276382 471.929645 
L 145.348473 470.293869 
L 146.080402 469.779914 
L 148.251636 468.065126 
L 148.884422 467.609258 
L 151.128036 465.836382 
L 151.688442 465.422233 
L 153.983502 463.607638 
L 154.492462 463.221878 
L 156.82194 461.378894 
L 157.296482 461.010128 
L 159.645836 459.150151 
L 160.100503 458.788045 
L 162.456549 456.921407 
L 162.904523 456.55594 
L 165.254457 454.692663 
L 165.708543 454.313395 
L 168.038988 452.46392 
L 168.512563 452.059198 
L 170.808555 450.235176 
L 171.316583 449.791193 
L 173.560386 448.006432 
L 174.120603 447.506016 
L 176.290224 445.777688 
L 176.924623 445.198694 
L 178.991862 443.548945 
L 179.728643 442.862013 
L 181.65641 441.320201 
L 182.532663 440.485545 
L 184.271155 439.091457 
L 185.336683 438.054123 
L 186.817777 436.862714 
L 185.336683 435.795337 
L 183.99291 436.862714 
L 182.532663 437.82868 
L 180.943239 439.091457 
L 179.728643 439.909749 
L 177.953594 441.320201 
L 176.924623 442.02629 
L 175.008512 443.548945 
L 174.120603 444.169734 
L 172.097208 445.777688 
L 171.316583 446.334057 
L 169.212123 448.006432 
L 168.512563 448.515035 
L 166.347972 450.235176 
L 165.708543 450.709757 
L 163.501124 452.46392 
L 162.904523 452.91631 
L 160.669193 454.692663 
L 160.100503 455.133581 
L 157.8508 456.921407 
L 157.296482 457.361162 
L 155.045439 459.150151 
L 154.492462 459.599321 
L 152.25345 461.378894 
L 151.688442 461.849063 
L 149.476093 463.607638 
L 148.884422 464.112265 
L 146.71572 465.836382 
L 146.080402 466.391937 
L 143.976101 468.065126 
L 143.276382 468.692631 
L 141.262943 470.293869 
L 140.472362 471.021103 
L 138.584713 472.522613 
L 137.668342 473.387338 
L 135.953924 474.751357 
L 134.864322 475.806175 
L 133.389178 476.980101 
z
M 137.166562 474.751357 
L 137.668342 474.352132 
L 138.182079 474.751357 
L 137.668342 475.156703 
z
M 139.60713 472.522613 
L 140.472362 471.834374 
L 141.360501 472.522613 
L 140.472362 473.223509 
z
M 142.147058 470.293869 
L 143.276382 469.395745 
L 144.438604 470.293869 
L 143.276382 471.211365 
z
M 144.760131 468.065126 
L 146.080402 467.015341 
L 147.428629 465.836382 
L 148.884422 464.679027 
L 150.140615 463.607638 
L 151.688442 462.377286 
L 152.888223 461.378894 
L 154.492462 460.10384 
L 155.666555 459.150151 
L 157.296482 457.854786 
L 158.473022 456.921407 
L 160.100503 455.628058 
L 161.306963 454.692663 
L 162.904523 453.423128 
L 164.169502 452.46392 
L 165.708543 451.240895 
L 167.063603 450.235176 
L 168.512563 449.083727 
L 169.994334 448.006432 
L 171.316583 446.955665 
L 172.726382 448.006432 
L 171.316583 449.127812 
L 170.049482 450.235176 
L 168.512563 451.456162 
L 167.333359 452.46392 
L 165.708543 453.753398 
L 164.583988 454.692663 
L 162.904523 456.024322 
L 161.804915 456.921407 
L 160.100503 458.271771 
L 158.997594 459.150151 
L 157.296482 460.496916 
L 156.16152 461.378894 
L 154.492462 462.699382 
L 153.294136 463.607638 
L 151.688442 464.877184 
L 150.390502 465.836382 
L 148.884422 467.026468 
L 147.442668 468.065126 
L 146.080402 469.14101 
z
M 172.969371 445.777688 
L 174.120603 444.862825 
L 175.355033 445.777688 
L 174.120603 446.761039 
z
M 175.999834 443.548945 
L 176.924623 442.814053 
L 177.922353 443.548945 
L 176.924623 444.345178 
z
M 179.101586 441.320201 
L 179.728643 440.821942 
L 180.40965 441.320201 
L 179.728643 441.864865 
z
M 182.297214 439.091457 
L 182.532663 438.904395 
L 182.790195 439.091457 
L 182.532663 439.297971 
z
M 188.140704 435.54541 
L 189.269538 434.63397 
L 188.140704 433.827406 
L 187.124969 434.63397 
z
M 190.944724 432.925973 
L 191.586822 432.405226 
L 190.944724 431.950731 
L 190.372137 432.405226 
z
" clip-path="url(#p63c1ba44b7)" style="fill: #bad6eb"/>
    <path d="M 137.668342 475.156703 
L 138.182079 474.751357 
L 137.668342 474.352132 
L 137.166562 474.751357 
z
M 140.472362 473.223509 
L 141.360501 472.522613 
L 140.472362 471.834374 
L 139.60713 472.522613 
z
M 143.276382 471.211365 
L 144.438604 470.293869 
L 143.276382 469.395745 
L 142.147058 470.293869 
z
M 142.895248 470.293869 
L 143.276382 469.990763 
L 143.668618 470.293869 
L 143.276382 470.603513 
z
M 146.080402 469.14101 
L 147.442668 468.065126 
L 148.884422 467.026468 
L 150.390502 465.836382 
L 151.688442 464.877184 
L 153.294136 463.607638 
L 154.492462 462.699382 
L 156.16152 461.378894 
L 157.296482 460.496916 
L 158.997594 459.150151 
L 160.100503 458.271771 
L 161.804915 456.921407 
L 162.904523 456.024322 
L 164.583988 454.692663 
L 165.708543 453.753398 
L 167.333359 452.46392 
L 168.512563 451.456162 
L 170.049482 450.235176 
L 171.316583 449.127812 
L 172.726382 448.006432 
L 171.316583 446.955665 
L 169.994334 448.006432 
L 168.512563 449.083727 
L 167.063603 450.235176 
L 165.708543 451.240895 
L 164.169502 452.46392 
L 162.904523 453.423128 
L 161.306963 454.692663 
L 160.100503 455.628058 
L 158.473022 456.921407 
L 157.296482 457.854786 
L 155.666555 459.150151 
L 154.492462 460.10384 
L 152.888223 461.378894 
L 151.688442 462.377286 
L 150.140615 463.607638 
L 148.884422 464.679027 
L 147.428629 465.836382 
L 146.080402 467.015341 
L 144.760131 468.065126 
z
M 145.423624 468.065126 
L 146.080402 467.542903 
L 146.75807 468.065126 
L 146.080402 468.600332 
z
M 148.031935 465.836382 
L 148.884422 465.158655 
L 149.766356 465.836382 
L 148.884422 466.533276 
z
M 150.702975 463.607638 
L 151.688442 462.824299 
L 152.710752 463.607638 
L 151.688442 464.41593 
z
M 153.425405 461.378894 
L 154.492462 460.530794 
L 155.602633 461.378894 
L 154.492462 462.257214 
z
M 156.192181 459.150151 
L 157.296482 458.272521 
L 158.449012 459.150151 
L 157.296482 460.062605 
z
M 158.999584 456.921407 
L 160.100503 456.046513 
L 161.253462 456.921407 
L 160.100503 457.834868 
z
M 161.846683 454.692663 
L 162.904523 453.852028 
L 164.016598 454.692663 
L 162.904523 455.574435 
z
M 164.735124 452.46392 
L 165.708543 451.690376 
L 166.736213 452.46392 
L 165.708543 453.279494 
z
M 167.669213 450.235176 
L 168.512563 449.564989 
L 169.407108 450.235176 
L 168.512563 450.945836 
z
M 170.656288 448.006432 
L 171.316583 447.481708 
L 172.020598 448.006432 
L 171.316583 448.566418 
z
M 174.120603 446.761039 
L 175.355033 445.777688 
L 174.120603 444.862825 
L 172.969371 445.777688 
z
M 173.707447 445.777688 
L 174.120603 445.449361 
L 174.563617 445.777688 
L 174.120603 446.130595 
z
M 176.924623 444.345178 
L 177.922353 443.548945 
L 176.924623 442.814053 
L 175.999834 443.548945 
z
M 176.83875 443.548945 
L 176.924623 443.480705 
L 177.017269 443.548945 
L 176.924623 443.62288 
z
M 179.728643 441.864865 
L 180.40965 441.320201 
L 179.728643 440.821942 
L 179.101586 441.320201 
z
M 182.532663 439.297971 
L 182.790195 439.091457 
L 182.532663 438.904395 
L 182.297214 439.091457 
z
" clip-path="url(#p63c1ba44b7)" style="fill: #6caed6"/>
    <path d="M 143.276382 470.603513 
L 143.668618 470.293869 
L 143.276382 469.990763 
L 142.895248 470.293869 
z
M 146.080402 468.600332 
L 146.75807 468.065126 
L 146.080402 467.542903 
L 145.423624 468.065126 
z
M 145.795031 468.065126 
L 146.080402 467.838219 
L 146.37485 468.065126 
L 146.080402 468.297673 
z
M 148.884422 466.533276 
L 149.766356 465.836382 
L 148.884422 465.158655 
L 148.031935 465.836382 
z
M 148.36965 465.836382 
L 148.884422 465.427139 
L 149.416975 465.836382 
L 148.884422 466.257199 
z
M 151.688442 464.41593 
L 152.710752 463.607638 
L 151.688442 462.824299 
L 150.702975 463.607638 
z
M 151.017769 463.607638 
L 151.688442 463.074527 
L 152.384189 463.607638 
L 151.688442 464.157732 
z
M 154.492462 462.257214 
L 155.602633 461.378894 
L 154.492462 460.530794 
L 153.425405 461.378894 
z
M 153.726106 461.378894 
L 154.492462 460.769793 
L 155.289782 461.378894 
L 154.492462 462.0097 
z
M 157.296482 460.062605 
L 158.449012 459.150151 
L 157.296482 458.272521 
L 156.192181 459.150151 
z
M 156.486414 459.150151 
L 157.296482 458.506359 
L 158.14193 459.150151 
L 157.296482 459.819489 
z
M 160.100503 457.834868 
L 161.253462 456.921407 
L 160.100503 456.046513 
L 158.999584 456.921407 
z
M 159.29434 456.921407 
L 160.100503 456.280754 
L 160.944773 456.921407 
L 160.100503 457.590302 
z
M 162.904523 455.574435 
L 164.016598 454.692663 
L 162.904523 453.852028 
L 161.846683 454.692663 
z
M 162.148804 454.692663 
L 162.904523 454.092115 
L 163.698987 454.692663 
L 162.904523 455.322599 
z
M 165.708543 453.279494 
L 166.736213 452.46392 
L 165.708543 451.690376 
L 164.735124 452.46392 
z
M 165.051745 452.46392 
L 165.708543 451.941984 
L 166.401946 452.46392 
L 165.708543 453.014214 
z
M 168.512563 450.945836 
L 169.407108 450.235176 
L 168.512563 449.564989 
L 167.669213 450.235176 
z
M 168.008219 450.235176 
L 168.512563 449.834387 
L 169.047523 450.235176 
L 168.512563 450.660169 
z
M 171.316583 448.566418 
L 172.020598 448.006432 
L 171.316583 447.481708 
L 170.656288 448.006432 
z
M 171.026833 448.006432 
L 171.316583 447.776173 
L 171.625518 448.006432 
L 171.316583 448.252165 
z
M 174.120603 446.130595 
L 174.563617 445.777688 
L 174.120603 445.449361 
L 173.707447 445.777688 
z
M 176.924623 443.62288 
L 177.017269 443.548945 
L 176.924623 443.480705 
L 176.83875 443.548945 
z
" clip-path="url(#p63c1ba44b7)" style="fill: #3b8bc2"/>
    <path d="M 146.080402 468.297673 
L 146.37485 468.065126 
L 146.080402 467.838219 
L 145.795031 468.065126 
z
M 148.884422 466.257199 
L 149.416975 465.836382 
L 148.884422 465.427139 
L 148.36965 465.836382 
z
M 148.633729 465.836382 
L 148.884422 465.637081 
L 149.143774 465.836382 
L 148.884422 466.041319 
z
M 151.688442 464.157732 
L 152.384189 463.607638 
L 151.688442 463.074527 
L 151.017769 463.607638 
z
M 151.263925 463.607638 
L 151.688442 463.270193 
L 152.128831 463.607638 
L 151.688442 463.955833 
z
M 154.492462 462.0097 
L 155.289782 461.378894 
L 154.492462 460.769793 
L 153.726106 461.378894 
z
M 153.961242 461.378894 
L 154.492462 460.956679 
L 155.045146 461.378894 
L 154.492462 461.816155 
z
M 157.296482 459.819489 
L 158.14193 459.150151 
L 157.296482 458.506359 
L 156.486414 459.150151 
z
M 156.71649 459.150151 
L 157.296482 458.689209 
L 157.901805 459.150151 
L 157.296482 459.629383 
z
M 160.100503 457.590302 
L 160.944773 456.921407 
L 160.100503 456.280754 
L 159.29434 456.921407 
z
M 159.524826 456.921407 
L 160.100503 456.46392 
L 160.703391 456.921407 
L 160.100503 457.399061 
z
M 162.904523 455.322599 
L 163.698987 454.692663 
L 162.904523 454.092115 
L 162.148804 454.692663 
z
M 162.385049 454.692663 
L 162.904523 454.279853 
L 163.450629 454.692663 
L 162.904523 455.125674 
z
M 165.708543 453.014214 
L 166.401946 452.46392 
L 165.708543 451.941984 
L 165.051745 452.46392 
z
M 165.299329 452.46392 
L 165.708543 452.138731 
L 166.140563 452.46392 
L 165.708543 452.806777 
z
M 168.512563 450.660169 
L 169.047523 450.235176 
L 168.512563 449.834387 
L 168.008219 450.235176 
z
M 168.273306 450.235176 
L 168.512563 450.045045 
L 168.766344 450.235176 
L 168.512563 450.436789 
z
M 171.316583 448.252165 
L 171.625518 448.006432 
L 171.316583 447.776173 
L 171.026833 448.006432 
z
" clip-path="url(#p63c1ba44b7)" style="fill: #2272b6"/>
    <path d="M 148.884422 466.041319 
L 149.143774 465.836382 
L 148.884422 465.637081 
L 148.633729 465.836382 
z
M 151.688442 463.955833 
L 152.128831 463.607638 
L 151.688442 463.270193 
L 151.263925 463.607638 
z
M 151.670778 463.607638 
L 151.688442 463.593597 
L 151.706767 463.607638 
L 151.688442 463.622127 
z
M 154.492462 461.816155 
L 155.045146 461.378894 
L 154.492462 460.956679 
L 153.961242 461.378894 
z
M 154.34988 461.378894 
L 154.492462 461.26557 
L 154.640805 461.378894 
L 154.492462 461.496257 
z
M 157.296482 459.629383 
L 157.901805 459.150151 
L 157.296482 458.689209 
L 156.71649 459.150151 
z
M 157.096768 459.150151 
L 157.296482 458.99143 
L 157.504919 459.150151 
L 157.296482 459.315169 
z
M 160.100503 457.399061 
L 160.703391 456.921407 
L 160.100503 456.46392 
L 159.524826 456.921407 
z
M 159.905781 456.921407 
L 160.100503 456.766663 
L 160.304429 456.921407 
L 160.100503 457.082973 
z
M 162.904523 455.125674 
L 163.450629 454.692663 
L 162.904523 454.279853 
L 162.385049 454.692663 
z
M 162.775523 454.692663 
L 162.904523 454.590151 
L 163.040136 454.692663 
L 162.904523 454.800192 
z
M 165.708543 452.806777 
L 166.140563 452.46392 
L 165.708543 452.138731 
L 165.299329 452.46392 
z
M 168.512563 450.436789 
L 168.766344 450.235176 
L 168.512563 450.045045 
L 168.273306 450.235176 
z
" clip-path="url(#p63c1ba44b7)" style="fill: #0b559f"/>
    <path d="M 151.688442 463.622127 
L 151.706767 463.607638 
L 151.688442 463.593597 
L 151.670778 463.607638 
z
M 154.492462 461.496257 
L 154.640805 461.378894 
L 154.492462 461.26557 
L 154.34988 461.378894 
z
M 154.478273 461.378894 
L 154.492462 461.367617 
L 154.507224 461.378894 
L 154.492462 461.390574 
z
M 157.296482 459.315169 
L 157.504919 459.150151 
L 157.296482 458.99143 
L 157.096768 459.150151 
z
M 157.222399 459.150151 
L 157.296482 459.091274 
L 157.373801 459.150151 
L 157.296482 459.211364 
z
M 160.100503 457.082973 
L 160.304429 456.921407 
L 160.100503 456.766663 
L 159.905781 456.921407 
z
M 160.031635 456.921407 
L 160.100503 456.866679 
L 160.172625 456.921407 
L 160.100503 456.978548 
z
M 162.904523 454.800192 
L 163.040136 454.692663 
L 162.904523 454.590151 
L 162.775523 454.692663 
z
" clip-path="url(#p63c1ba44b7)" style="fill: #083c7d"/>
    <path d="M 154.492462 461.390574 
L 154.507224 461.378894 
L 154.492462 461.367617 
L 154.478273 461.378894 
z
M 157.296482 459.211364 
L 157.373801 459.150151 
L 157.296482 459.091274 
L 157.222399 459.150151 
z
M 157.291144 459.150151 
L 157.296482 459.145908 
L 157.302054 459.150151 
L 157.296482 459.154562 
z
M 160.100503 456.978548 
L 160.172625 456.921407 
L 160.100503 456.866679 
L 160.031635 456.921407 
z
" clip-path="url(#p63c1ba44b7)" style="fill: #083370"/>
    <path d="M 157.296482 459.154562 
L 157.302054 459.150151 
L 157.296482 459.145908 
L 157.291144 459.150151 
z
" clip-path="url(#p63c1ba44b7)" style="fill: #08306b"/>
   </g>
   <g id="matplotlib.axis_1">
    <g id="xtick_1">
     <g id="line2d_1">
      <defs>
       <path id="mcff02dfdb3" d="M 0 0 
L 0 3.5 
" style="stroke: #000000; stroke-width: 0.8"/>
      </defs>
      <g>
       <use xlink:href="#mcff02dfdb3" x="161.554217" y="512.64" style="stroke: #000000; stroke-width: 0.8"/>
      </g>
     </g>
     <g id="text_1">
      <!-- 0 -->
      <g transform="translate(158.372967 527.238438) scale(0.1 -0.1)">
       <defs>
        <path id="DejaVuSans-30" d="M 2034 4250 
Q 1547 4250 1301 3770 
Q 1056 3291 1056 2328 
Q 1056 1369 1301 889 
Q 1547 409 2034 409 
Q 2525 409 2770 889 
Q 3016 1369 3016 2328 
Q 3016 3291 2770 3770 
Q 2525 4250 2034 4250 
z
M 2034 4750 
Q 2819 4750 3233 4129 
Q 3647 3509 3647 2328 
Q 3647 1150 3233 529 
Q 2819 -91 2034 -91 
Q 1250 -91 836 529 
Q 422 1150 422 2328 
Q 422 3509 836 4129 
Q 1250 4750 2034 4750 
z
" transform="scale(0.015625)"/>
       </defs>
       <use xlink:href="#DejaVuSans-30"/>
      </g>
     </g>
    </g>
    <g id="xtick_2">
     <g id="line2d_2">
      <g>
       <use xlink:href="#mcff02dfdb3" x="240.592422" y="512.64" style="stroke: #000000; stroke-width: 0.8"/>
      </g>
     </g>
     <g id="text_2">
      <!-- 100 -->
      <g transform="translate(231.048672 527.238438) scale(0.1 -0.1)">
       <defs>
        <path id="DejaVuSans-31" d="M 794 531 
L 1825 531 
L 1825 4091 
L 703 3866 
L 703 4441 
L 1819 4666 
L 2450 4666 
L 2450 531 
L 3481 531 
L 3481 0 
L 794 0 
L 794 531 
z
" transform="scale(0.015625)"/>
       </defs>
       <use xlink:href="#DejaVuSans-31"/>
       <use xlink:href="#DejaVuSans-30" x="63.623047"/>
       <use xlink:href="#DejaVuSans-30" x="127.246094"/>
      </g>
     </g>
    </g>
    <g id="xtick_3">
     <g id="line2d_3">
      <g>
       <use xlink:href="#mcff02dfdb3" x="319.630626" y="512.64" style="stroke: #000000; stroke-width: 0.8"/>
      </g>
     </g>
     <g id="text_3">
      <!-- 200 -->
      <g transform="translate(310.086876 527.238438) scale(0.1 -0.1)">
       <defs>
        <path id="DejaVuSans-32" d="M 1228 531 
L 3431 531 
L 3431 0 
L 469 0 
L 469 531 
Q 828 903 1448 1529 
Q 2069 2156 2228 2338 
Q 2531 2678 2651 2914 
Q 2772 3150 2772 3378 
Q 2772 3750 2511 3984 
Q 2250 4219 1831 4219 
Q 1534 4219 1204 4116 
Q 875 4013 500 3803 
L 500 4441 
Q 881 4594 1212 4672 
Q 1544 4750 1819 4750 
Q 2544 4750 2975 4387 
Q 3406 4025 3406 3419 
Q 3406 3131 3298 2873 
Q 3191 2616 2906 2266 
Q 2828 2175 2409 1742 
Q 1991 1309 1228 531 
z
" transform="scale(0.015625)"/>
       </defs>
       <use xlink:href="#DejaVuSans-32"/>
       <use xlink:href="#DejaVuSans-30" x="63.623047"/>
       <use xlink:href="#DejaVuSans-30" x="127.246094"/>
      </g>
     </g>
    </g>
    <g id="xtick_4">
     <g id="line2d_4">
      <g>
       <use xlink:href="#mcff02dfdb3" x="398.668831" y="512.64" style="stroke: #000000; stroke-width: 0.8"/>
      </g>
     </g>
     <g id="text_4">
      <!-- 300 -->
      <g transform="translate(389.125081 527.238438) scale(0.1 -0.1)">
       <defs>
        <path id="DejaVuSans-33" d="M 2597 2516 
Q 3050 2419 3304 2112 
Q 3559 1806 3559 1356 
Q 3559 666 3084 287 
Q 2609 -91 1734 -91 
Q 1441 -91 1130 -33 
Q 819 25 488 141 
L 488 750 
Q 750 597 1062 519 
Q 1375 441 1716 441 
Q 2309 441 2620 675 
Q 2931 909 2931 1356 
Q 2931 1769 2642 2001 
Q 2353 2234 1838 2234 
L 1294 2234 
L 1294 2753 
L 1863 2753 
Q 2328 2753 2575 2939 
Q 2822 3125 2822 3475 
Q 2822 3834 2567 4026 
Q 2313 4219 1838 4219 
Q 1578 4219 1281 4162 
Q 984 4106 628 3988 
L 628 4550 
Q 988 4650 1302 4700 
Q 1616 4750 1894 4750 
Q 2613 4750 3031 4423 
Q 3450 4097 3450 3541 
Q 3450 3153 3228 2886 
Q 3006 2619 2597 2516 
z
" transform="scale(0.015625)"/>
       </defs>
       <use xlink:href="#DejaVuSans-33"/>
       <use xlink:href="#DejaVuSans-30" x="63.623047"/>
       <use xlink:href="#DejaVuSans-30" x="127.246094"/>
      </g>
     </g>
    </g>
    <g id="xtick_5">
     <g id="line2d_5">
      <g>
       <use xlink:href="#mcff02dfdb3" x="477.707035" y="512.64" style="stroke: #000000; stroke-width: 0.8"/>
      </g>
     </g>
     <g id="text_5">
      <!-- 400 -->
      <g transform="translate(468.163285 527.238438) scale(0.1 -0.1)">
       <defs>
        <path id="DejaVuSans-34" d="M 2419 4116 
L 825 1625 
L 2419 1625 
L 2419 4116 
z
M 2253 4666 
L 3047 4666 
L 3047 1625 
L 3713 1625 
L 3713 1100 
L 3047 1100 
L 3047 0 
L 2419 0 
L 2419 1100 
L 313 1100 
L 313 1709 
L 2253 4666 
z
" transform="scale(0.015625)"/>
       </defs>
       <use xlink:href="#DejaVuSans-34"/>
       <use xlink:href="#DejaVuSans-30" x="63.623047"/>
       <use xlink:href="#DejaVuSans-30" x="127.246094"/>
      </g>
     </g>
    </g>
    <g id="xtick_6">
     <g id="line2d_6">
      <g>
       <use xlink:href="#mcff02dfdb3" x="556.745239" y="512.64" style="stroke: #000000; stroke-width: 0.8"/>
      </g>
     </g>
     <g id="text_6">
      <!-- 500 -->
      <g transform="translate(547.201489 527.238438) scale(0.1 -0.1)">
       <defs>
        <path id="DejaVuSans-35" d="M 691 4666 
L 3169 4666 
L 3169 4134 
L 1269 4134 
L 1269 2991 
Q 1406 3038 1543 3061 
Q 1681 3084 1819 3084 
Q 2600 3084 3056 2656 
Q 3513 2228 3513 1497 
Q 3513 744 3044 326 
Q 2575 -91 1722 -91 
Q 1428 -91 1123 -41 
Q 819 9 494 109 
L 494 744 
Q 775 591 1075 516 
Q 1375 441 1709 441 
Q 2250 441 2565 725 
Q 2881 1009 2881 1497 
Q 2881 1984 2565 2268 
Q 2250 2553 1709 2553 
Q 1456 2553 1204 2497 
Q 953 2441 691 2322 
L 691 4666 
z
" transform="scale(0.015625)"/>
       </defs>
       <use xlink:href="#DejaVuSans-35"/>
       <use xlink:href="#DejaVuSans-30" x="63.623047"/>
       <use xlink:href="#DejaVuSans-30" x="127.246094"/>
      </g>
     </g>
    </g>
    <g id="xtick_7">
     <g id="line2d_7">
      <g>
       <use xlink:href="#mcff02dfdb3" x="635.783444" y="512.64" style="stroke: #000000; stroke-width: 0.8"/>
      </g>
     </g>
     <g id="text_7">
      <!-- 600 -->
      <g transform="translate(626.239694 527.238438) scale(0.1 -0.1)">
       <defs>
        <path id="DejaVuSans-36" d="M 2113 2584 
Q 1688 2584 1439 2293 
Q 1191 2003 1191 1497 
Q 1191 994 1439 701 
Q 1688 409 2113 409 
Q 2538 409 2786 701 
Q 3034 994 3034 1497 
Q 3034 2003 2786 2293 
Q 2538 2584 2113 2584 
z
M 3366 4563 
L 3366 3988 
Q 3128 4100 2886 4159 
Q 2644 4219 2406 4219 
Q 1781 4219 1451 3797 
Q 1122 3375 1075 2522 
Q 1259 2794 1537 2939 
Q 1816 3084 2150 3084 
Q 2853 3084 3261 2657 
Q 3669 2231 3669 1497 
Q 3669 778 3244 343 
Q 2819 -91 2113 -91 
Q 1303 -91 875 529 
Q 447 1150 447 2328 
Q 447 3434 972 4092 
Q 1497 4750 2381 4750 
Q 2619 4750 2861 4703 
Q 3103 4656 3366 4563 
z
" transform="scale(0.015625)"/>
       </defs>
       <use xlink:href="#DejaVuSans-36"/>
       <use xlink:href="#DejaVuSans-30" x="63.623047"/>
       <use xlink:href="#DejaVuSans-30" x="127.246094"/>
      </g>
     </g>
    </g>
    <g id="text_8">
     <!-- Ground Truth Energy -->
     <g transform="translate(317.257812 540.916563) scale(0.1 -0.1)">
      <defs>
       <path id="DejaVuSans-47" d="M 3809 666 
L 3809 1919 
L 2778 1919 
L 2778 2438 
L 4434 2438 
L 4434 434 
Q 4069 175 3628 42 
Q 3188 -91 2688 -91 
Q 1594 -91 976 548 
Q 359 1188 359 2328 
Q 359 3472 976 4111 
Q 1594 4750 2688 4750 
Q 3144 4750 3555 4637 
Q 3966 4525 4313 4306 
L 4313 3634 
Q 3963 3931 3569 4081 
Q 3175 4231 2741 4231 
Q 1884 4231 1454 3753 
Q 1025 3275 1025 2328 
Q 1025 1384 1454 906 
Q 1884 428 2741 428 
Q 3075 428 3337 486 
Q 3600 544 3809 666 
z
" transform="scale(0.015625)"/>
       <path id="DejaVuSans-72" d="M 2631 2963 
Q 2534 3019 2420 3045 
Q 2306 3072 2169 3072 
Q 1681 3072 1420 2755 
Q 1159 2438 1159 1844 
L 1159 0 
L 581 0 
L 581 3500 
L 1159 3500 
L 1159 2956 
Q 1341 3275 1631 3429 
Q 1922 3584 2338 3584 
Q 2397 3584 2469 3576 
Q 2541 3569 2628 3553 
L 2631 2963 
z
" transform="scale(0.015625)"/>
       <path id="DejaVuSans-6f" d="M 1959 3097 
Q 1497 3097 1228 2736 
Q 959 2375 959 1747 
Q 959 1119 1226 758 
Q 1494 397 1959 397 
Q 2419 397 2687 759 
Q 2956 1122 2956 1747 
Q 2956 2369 2687 2733 
Q 2419 3097 1959 3097 
z
M 1959 3584 
Q 2709 3584 3137 3096 
Q 3566 2609 3566 1747 
Q 3566 888 3137 398 
Q 2709 -91 1959 -91 
Q 1206 -91 779 398 
Q 353 888 353 1747 
Q 353 2609 779 3096 
Q 1206 3584 1959 3584 
z
" transform="scale(0.015625)"/>
       <path id="DejaVuSans-75" d="M 544 1381 
L 544 3500 
L 1119 3500 
L 1119 1403 
Q 1119 906 1312 657 
Q 1506 409 1894 409 
Q 2359 409 2629 706 
Q 2900 1003 2900 1516 
L 2900 3500 
L 3475 3500 
L 3475 0 
L 2900 0 
L 2900 538 
Q 2691 219 2414 64 
Q 2138 -91 1772 -91 
Q 1169 -91 856 284 
Q 544 659 544 1381 
z
M 1991 3584 
L 1991 3584 
z
" transform="scale(0.015625)"/>
       <path id="DejaVuSans-6e" d="M 3513 2113 
L 3513 0 
L 2938 0 
L 2938 2094 
Q 2938 2591 2744 2837 
Q 2550 3084 2163 3084 
Q 1697 3084 1428 2787 
Q 1159 2491 1159 1978 
L 1159 0 
L 581 0 
L 581 3500 
L 1159 3500 
L 1159 2956 
Q 1366 3272 1645 3428 
Q 1925 3584 2291 3584 
Q 2894 3584 3203 3211 
Q 3513 2838 3513 2113 
z
" transform="scale(0.015625)"/>
       <path id="DejaVuSans-64" d="M 2906 2969 
L 2906 4863 
L 3481 4863 
L 3481 0 
L 2906 0 
L 2906 525 
Q 2725 213 2448 61 
Q 2172 -91 1784 -91 
Q 1150 -91 751 415 
Q 353 922 353 1747 
Q 353 2572 751 3078 
Q 1150 3584 1784 3584 
Q 2172 3584 2448 3432 
Q 2725 3281 2906 2969 
z
M 947 1747 
Q 947 1113 1208 752 
Q 1469 391 1925 391 
Q 2381 391 2643 752 
Q 2906 1113 2906 1747 
Q 2906 2381 2643 2742 
Q 2381 3103 1925 3103 
Q 1469 3103 1208 2742 
Q 947 2381 947 1747 
z
" transform="scale(0.015625)"/>
       <path id="DejaVuSans-20" transform="scale(0.015625)"/>
       <path id="DejaVuSans-54" d="M -19 4666 
L 3928 4666 
L 3928 4134 
L 2272 4134 
L 2272 0 
L 1638 0 
L 1638 4134 
L -19 4134 
L -19 4666 
z
" transform="scale(0.015625)"/>
       <path id="DejaVuSans-74" d="M 1172 4494 
L 1172 3500 
L 2356 3500 
L 2356 3053 
L 1172 3053 
L 1172 1153 
Q 1172 725 1289 603 
Q 1406 481 1766 481 
L 2356 481 
L 2356 0 
L 1766 0 
Q 1100 0 847 248 
Q 594 497 594 1153 
L 594 3053 
L 172 3053 
L 172 3500 
L 594 3500 
L 594 4494 
L 1172 4494 
z
" transform="scale(0.015625)"/>
       <path id="DejaVuSans-68" d="M 3513 2113 
L 3513 0 
L 2938 0 
L 2938 2094 
Q 2938 2591 2744 2837 
Q 2550 3084 2163 3084 
Q 1697 3084 1428 2787 
Q 1159 2491 1159 1978 
L 1159 0 
L 581 0 
L 581 4863 
L 1159 4863 
L 1159 2956 
Q 1366 3272 1645 3428 
Q 1925 3584 2291 3584 
Q 2894 3584 3203 3211 
Q 3513 2838 3513 2113 
z
" transform="scale(0.015625)"/>
       <path id="DejaVuSans-45" d="M 628 4666 
L 3578 4666 
L 3578 4134 
L 1259 4134 
L 1259 2753 
L 3481 2753 
L 3481 2222 
L 1259 2222 
L 1259 531 
L 3634 531 
L 3634 0 
L 628 0 
L 628 4666 
z
" transform="scale(0.015625)"/>
       <path id="DejaVuSans-65" d="M 3597 1894 
L 3597 1613 
L 953 1613 
Q 991 1019 1311 708 
Q 1631 397 2203 397 
Q 2534 397 2845 478 
Q 3156 559 3463 722 
L 3463 178 
Q 3153 47 2828 -22 
Q 2503 -91 2169 -91 
Q 1331 -91 842 396 
Q 353 884 353 1716 
Q 353 2575 817 3079 
Q 1281 3584 2069 3584 
Q 2775 3584 3186 3129 
Q 3597 2675 3597 1894 
z
M 3022 2063 
Q 3016 2534 2758 2815 
Q 2500 3097 2075 3097 
Q 1594 3097 1305 2825 
Q 1016 2553 972 2059 
L 3022 2063 
z
" transform="scale(0.015625)"/>
       <path id="DejaVuSans-67" d="M 2906 1791 
Q 2906 2416 2648 2759 
Q 2391 3103 1925 3103 
Q 1463 3103 1205 2759 
Q 947 2416 947 1791 
Q 947 1169 1205 825 
Q 1463 481 1925 481 
Q 2391 481 2648 825 
Q 2906 1169 2906 1791 
z
M 3481 434 
Q 3481 -459 3084 -895 
Q 2688 -1331 1869 -1331 
Q 1566 -1331 1297 -1286 
Q 1028 -1241 775 -1147 
L 775 -588 
Q 1028 -725 1275 -790 
Q 1522 -856 1778 -856 
Q 2344 -856 2625 -561 
Q 2906 -266 2906 331 
L 2906 616 
Q 2728 306 2450 153 
Q 2172 0 1784 0 
Q 1141 0 747 490 
Q 353 981 353 1791 
Q 353 2603 747 3093 
Q 1141 3584 1784 3584 
Q 2172 3584 2450 3431 
Q 2728 3278 2906 2969 
L 2906 3500 
L 3481 3500 
L 3481 434 
z
" transform="scale(0.015625)"/>
       <path id="DejaVuSans-79" d="M 2059 -325 
Q 1816 -950 1584 -1140 
Q 1353 -1331 966 -1331 
L 506 -1331 
L 506 -850 
L 844 -850 
Q 1081 -850 1212 -737 
Q 1344 -625 1503 -206 
L 1606 56 
L 191 3500 
L 800 3500 
L 1894 763 
L 2988 3500 
L 3597 3500 
L 2059 -325 
z
" transform="scale(0.015625)"/>
      </defs>
      <use xlink:href="#DejaVuSans-47"/>
      <use xlink:href="#DejaVuSans-72" x="77.490234"/>
      <use xlink:href="#DejaVuSans-6f" x="116.353516"/>
      <use xlink:href="#DejaVuSans-75" x="177.535156"/>
      <use xlink:href="#DejaVuSans-6e" x="240.914062"/>
      <use xlink:href="#DejaVuSans-64" x="304.292969"/>
      <use xlink:href="#DejaVuSans-20" x="367.769531"/>
      <use xlink:href="#DejaVuSans-54" x="399.556641"/>
      <use xlink:href="#DejaVuSans-72" x="445.890625"/>
      <use xlink:href="#DejaVuSans-75" x="487.003906"/>
      <use xlink:href="#DejaVuSans-74" x="550.382812"/>
      <use xlink:href="#DejaVuSans-68" x="589.591797"/>
      <use xlink:href="#DejaVuSans-20" x="652.970703"/>
      <use xlink:href="#DejaVuSans-45" x="684.757812"/>
      <use xlink:href="#DejaVuSans-6e" x="747.941406"/>
      <use xlink:href="#DejaVuSans-65" x="811.320312"/>
      <use xlink:href="#DejaVuSans-72" x="872.84375"/>
      <use xlink:href="#DejaVuSans-67" x="912.207031"/>
      <use xlink:href="#DejaVuSans-79" x="975.683594"/>
     </g>
    </g>
   </g>
   <g id="matplotlib.axis_2">
    <g id="ytick_1">
     <g id="line2d_8">
      <defs>
       <path id="m2f37c2446c" d="M 0 0 
L -3.5 0 
" style="stroke: #000000; stroke-width: 0.8"/>
      </defs>
      <g>
       <use xlink:href="#m2f37c2446c" x="90" y="455.79158" style="stroke: #000000; stroke-width: 0.8"/>
      </g>
     </g>
     <g id="text_9">
      <!-- 0 -->
      <g transform="translate(76.6375 459.590798) scale(0.1 -0.1)">
       <use xlink:href="#DejaVuSans-30"/>
      </g>
     </g>
    </g>
    <g id="ytick_2">
     <g id="line2d_9">
      <g>
       <use xlink:href="#m2f37c2446c" x="90" y="393.218257" style="stroke: #000000; stroke-width: 0.8"/>
      </g>
     </g>
     <g id="text_10">
      <!-- 100 -->
      <g transform="translate(63.9125 397.017476) scale(0.1 -0.1)">
       <use xlink:href="#DejaVuSans-31"/>
       <use xlink:href="#DejaVuSans-30" x="63.623047"/>
       <use xlink:href="#DejaVuSans-30" x="127.246094"/>
      </g>
     </g>
    </g>
    <g id="ytick_3">
     <g id="line2d_10">
      <g>
       <use xlink:href="#m2f37c2446c" x="90" y="330.644934" style="stroke: #000000; stroke-width: 0.8"/>
      </g>
     </g>
     <g id="text_11">
      <!-- 200 -->
      <g transform="translate(63.9125 334.444153) scale(0.1 -0.1)">
       <use xlink:href="#DejaVuSans-32"/>
       <use xlink:href="#DejaVuSans-30" x="63.623047"/>
       <use xlink:href="#DejaVuSans-30" x="127.246094"/>
      </g>
     </g>
    </g>
    <g id="ytick_4">
     <g id="line2d_11">
      <g>
       <use xlink:href="#m2f37c2446c" x="90" y="268.071612" style="stroke: #000000; stroke-width: 0.8"/>
      </g>
     </g>
     <g id="text_12">
      <!-- 300 -->
      <g transform="translate(63.9125 271.87083) scale(0.1 -0.1)">
       <use xlink:href="#DejaVuSans-33"/>
       <use xlink:href="#DejaVuSans-30" x="63.623047"/>
       <use xlink:href="#DejaVuSans-30" x="127.246094"/>
      </g>
     </g>
    </g>
    <g id="ytick_5">
     <g id="line2d_12">
      <g>
       <use xlink:href="#m2f37c2446c" x="90" y="205.498289" style="stroke: #000000; stroke-width: 0.8"/>
      </g>
     </g>
     <g id="text_13">
      <!-- 400 -->
      <g transform="translate(63.9125 209.297508) scale(0.1 -0.1)">
       <use xlink:href="#DejaVuSans-34"/>
       <use xlink:href="#DejaVuSans-30" x="63.623047"/>
       <use xlink:href="#DejaVuSans-30" x="127.246094"/>
      </g>
     </g>
    </g>
    <g id="ytick_6">
     <g id="line2d_13">
      <g>
       <use xlink:href="#m2f37c2446c" x="90" y="142.924966" style="stroke: #000000; stroke-width: 0.8"/>
      </g>
     </g>
     <g id="text_14">
      <!-- 500 -->
      <g transform="translate(63.9125 146.724185) scale(0.1 -0.1)">
       <use xlink:href="#DejaVuSans-35"/>
       <use xlink:href="#DejaVuSans-30" x="63.623047"/>
       <use xlink:href="#DejaVuSans-30" x="127.246094"/>
      </g>
     </g>
    </g>
    <g id="ytick_7">
     <g id="line2d_14">
      <g>
       <use xlink:href="#m2f37c2446c" x="90" y="80.351644" style="stroke: #000000; stroke-width: 0.8"/>
      </g>
     </g>
     <g id="text_15">
      <!-- 600 -->
      <g transform="translate(63.9125 84.150863) scale(0.1 -0.1)">
       <use xlink:href="#DejaVuSans-36"/>
       <use xlink:href="#DejaVuSans-30" x="63.623047"/>
       <use xlink:href="#DejaVuSans-30" x="127.246094"/>
      </g>
     </g>
    </g>
    <g id="text_16">
     <!-- Predicted Energy -->
     <g transform="translate(57.832812 333.445625) rotate(-90) scale(0.1 -0.1)">
      <defs>
       <path id="DejaVuSans-50" d="M 1259 4147 
L 1259 2394 
L 2053 2394 
Q 2494 2394 2734 2622 
Q 2975 2850 2975 3272 
Q 2975 3691 2734 3919 
Q 2494 4147 2053 4147 
L 1259 4147 
z
M 628 4666 
L 2053 4666 
Q 2838 4666 3239 4311 
Q 3641 3956 3641 3272 
Q 3641 2581 3239 2228 
Q 2838 1875 2053 1875 
L 1259 1875 
L 1259 0 
L 628 0 
L 628 4666 
z
" transform="scale(0.015625)"/>
       <path id="DejaVuSans-69" d="M 603 3500 
L 1178 3500 
L 1178 0 
L 603 0 
L 603 3500 
z
M 603 4863 
L 1178 4863 
L 1178 4134 
L 603 4134 
L 603 4863 
z
" transform="scale(0.015625)"/>
       <path id="DejaVuSans-63" d="M 3122 3366 
L 3122 2828 
Q 2878 2963 2633 3030 
Q 2388 3097 2138 3097 
Q 1578 3097 1268 2742 
Q 959 2388 959 1747 
Q 959 1106 1268 751 
Q 1578 397 2138 397 
Q 2388 397 2633 464 
Q 2878 531 3122 666 
L 3122 134 
Q 2881 22 2623 -34 
Q 2366 -91 2075 -91 
Q 1284 -91 818 406 
Q 353 903 353 1747 
Q 353 2603 823 3093 
Q 1294 3584 2113 3584 
Q 2378 3584 2631 3529 
Q 2884 3475 3122 3366 
z
" transform="scale(0.015625)"/>
      </defs>
      <use xlink:href="#DejaVuSans-50"/>
      <use xlink:href="#DejaVuSans-72" x="58.552734"/>
      <use xlink:href="#DejaVuSans-65" x="97.416016"/>
      <use xlink:href="#DejaVuSans-64" x="158.939453"/>
      <use xlink:href="#DejaVuSans-69" x="222.416016"/>
      <use xlink:href="#DejaVuSans-63" x="250.199219"/>
      <use xlink:href="#DejaVuSans-74" x="305.179688"/>
      <use xlink:href="#DejaVuSans-65" x="344.388672"/>
      <use xlink:href="#DejaVuSans-64" x="405.912109"/>
      <use xlink:href="#DejaVuSans-20" x="469.388672"/>
      <use xlink:href="#DejaVuSans-45" x="501.175781"/>
      <use xlink:href="#DejaVuSans-6e" x="564.359375"/>
      <use xlink:href="#DejaVuSans-65" x="627.738281"/>
      <use xlink:href="#DejaVuSans-72" x="689.261719"/>
      <use xlink:href="#DejaVuSans-67" x="728.625"/>
      <use xlink:href="#DejaVuSans-79" x="792.101562"/>
     </g>
    </g>
   </g>
   <g id="line2d_15">
    <path d="M 131.469231 479.609398 
L 606.530769 103.510533 
" clip-path="url(#p63c1ba44b7)" style="fill: none; stroke-dasharray: 5.55,2.4; stroke-dashoffset: 0; stroke: #ff0000; stroke-width: 1.5"/>
   </g>
   <g id="patch_3">
    <path d="M 90 512.64 
L 90 69.12 
" style="fill: none; stroke: #000000; stroke-width: 0.8; stroke-linejoin: miter; stroke-linecap: square"/>
   </g>
   <g id="patch_4">
    <path d="M 648 512.64 
L 648 69.12 
" style="fill: none; stroke: #000000; stroke-width: 0.8; stroke-linejoin: miter; stroke-linecap: square"/>
   </g>
   <g id="patch_5">
    <path d="M 90 512.64 
L 648 512.64 
" style="fill: none; stroke: #000000; stroke-width: 0.8; stroke-linejoin: miter; stroke-linecap: square"/>
   </g>
   <g id="patch_6">
    <path d="M 90 69.12 
L 648 69.12 
" style="fill: none; stroke: #000000; stroke-width: 0.8; stroke-linejoin: miter; stroke-linecap: square"/>
   </g>
   <g id="text_17">
    <!-- Energy R2 Score: 0.9980890958755033 -->
    <g transform="translate(145.8 113.472) scale(0.1 -0.1)">
     <defs>
      <path id="DejaVuSans-52" d="M 2841 2188 
Q 3044 2119 3236 1894 
Q 3428 1669 3622 1275 
L 4263 0 
L 3584 0 
L 2988 1197 
Q 2756 1666 2539 1819 
Q 2322 1972 1947 1972 
L 1259 1972 
L 1259 0 
L 628 0 
L 628 4666 
L 2053 4666 
Q 2853 4666 3247 4331 
Q 3641 3997 3641 3322 
Q 3641 2881 3436 2590 
Q 3231 2300 2841 2188 
z
M 1259 4147 
L 1259 2491 
L 2053 2491 
Q 2509 2491 2742 2702 
Q 2975 2913 2975 3322 
Q 2975 3731 2742 3939 
Q 2509 4147 2053 4147 
L 1259 4147 
z
" transform="scale(0.015625)"/>
      <path id="DejaVuSans-53" d="M 3425 4513 
L 3425 3897 
Q 3066 4069 2747 4153 
Q 2428 4238 2131 4238 
Q 1616 4238 1336 4038 
Q 1056 3838 1056 3469 
Q 1056 3159 1242 3001 
Q 1428 2844 1947 2747 
L 2328 2669 
Q 3034 2534 3370 2195 
Q 3706 1856 3706 1288 
Q 3706 609 3251 259 
Q 2797 -91 1919 -91 
Q 1588 -91 1214 -16 
Q 841 59 441 206 
L 441 856 
Q 825 641 1194 531 
Q 1563 422 1919 422 
Q 2459 422 2753 634 
Q 3047 847 3047 1241 
Q 3047 1584 2836 1778 
Q 2625 1972 2144 2069 
L 1759 2144 
Q 1053 2284 737 2584 
Q 422 2884 422 3419 
Q 422 4038 858 4394 
Q 1294 4750 2059 4750 
Q 2388 4750 2728 4690 
Q 3069 4631 3425 4513 
z
" transform="scale(0.015625)"/>
      <path id="DejaVuSans-3a" d="M 750 794 
L 1409 794 
L 1409 0 
L 750 0 
L 750 794 
z
M 750 3309 
L 1409 3309 
L 1409 2516 
L 750 2516 
L 750 3309 
z
" transform="scale(0.015625)"/>
      <path id="DejaVuSans-2e" d="M 684 794 
L 1344 794 
L 1344 0 
L 684 0 
L 684 794 
z
" transform="scale(0.015625)"/>
      <path id="DejaVuSans-39" d="M 703 97 
L 703 672 
Q 941 559 1184 500 
Q 1428 441 1663 441 
Q 2288 441 2617 861 
Q 2947 1281 2994 2138 
Q 2813 1869 2534 1725 
Q 2256 1581 1919 1581 
Q 1219 1581 811 2004 
Q 403 2428 403 3163 
Q 403 3881 828 4315 
Q 1253 4750 1959 4750 
Q 2769 4750 3195 4129 
Q 3622 3509 3622 2328 
Q 3622 1225 3098 567 
Q 2575 -91 1691 -91 
Q 1453 -91 1209 -44 
Q 966 3 703 97 
z
M 1959 2075 
Q 2384 2075 2632 2365 
Q 2881 2656 2881 3163 
Q 2881 3666 2632 3958 
Q 2384 4250 1959 4250 
Q 1534 4250 1286 3958 
Q 1038 3666 1038 3163 
Q 1038 2656 1286 2365 
Q 1534 2075 1959 2075 
z
" transform="scale(0.015625)"/>
      <path id="DejaVuSans-38" d="M 2034 2216 
Q 1584 2216 1326 1975 
Q 1069 1734 1069 1313 
Q 1069 891 1326 650 
Q 1584 409 2034 409 
Q 2484 409 2743 651 
Q 3003 894 3003 1313 
Q 3003 1734 2745 1975 
Q 2488 2216 2034 2216 
z
M 1403 2484 
Q 997 2584 770 2862 
Q 544 3141 544 3541 
Q 544 4100 942 4425 
Q 1341 4750 2034 4750 
Q 2731 4750 3128 4425 
Q 3525 4100 3525 3541 
Q 3525 3141 3298 2862 
Q 3072 2584 2669 2484 
Q 3125 2378 3379 2068 
Q 3634 1759 3634 1313 
Q 3634 634 3220 271 
Q 2806 -91 2034 -91 
Q 1263 -91 848 271 
Q 434 634 434 1313 
Q 434 1759 690 2068 
Q 947 2378 1403 2484 
z
M 1172 3481 
Q 1172 3119 1398 2916 
Q 1625 2713 2034 2713 
Q 2441 2713 2670 2916 
Q 2900 3119 2900 3481 
Q 2900 3844 2670 4047 
Q 2441 4250 2034 4250 
Q 1625 4250 1398 4047 
Q 1172 3844 1172 3481 
z
" transform="scale(0.015625)"/>
      <path id="DejaVuSans-37" d="M 525 4666 
L 3525 4666 
L 3525 4397 
L 1831 0 
L 1172 0 
L 2766 4134 
L 525 4134 
L 525 4666 
z
" transform="scale(0.015625)"/>
     </defs>
     <use xlink:href="#DejaVuSans-45"/>
     <use xlink:href="#DejaVuSans-6e" x="63.183594"/>
     <use xlink:href="#DejaVuSans-65" x="126.5625"/>
     <use xlink:href="#DejaVuSans-72" x="188.085938"/>
     <use xlink:href="#DejaVuSans-67" x="227.449219"/>
     <use xlink:href="#DejaVuSans-79" x="290.925781"/>
     <use xlink:href="#DejaVuSans-20" x="350.105469"/>
     <use xlink:href="#DejaVuSans-52" x="381.892578"/>
     <use xlink:href="#DejaVuSans-32" x="451.375"/>
     <use xlink:href="#DejaVuSans-20" x="514.998047"/>
     <use xlink:href="#DejaVuSans-53" x="546.785156"/>
     <use xlink:href="#DejaVuSans-63" x="610.261719"/>
     <use xlink:href="#DejaVuSans-6f" x="665.242188"/>
     <use xlink:href="#DejaVuSans-72" x="726.423828"/>
     <use xlink:href="#DejaVuSans-65" x="765.287109"/>
     <use xlink:href="#DejaVuSans-3a" x="826.810547"/>
     <use xlink:href="#DejaVuSans-20" x="860.501953"/>
     <use xlink:href="#DejaVuSans-30" x="892.289062"/>
     <use xlink:href="#DejaVuSans-2e" x="955.912109"/>
     <use xlink:href="#DejaVuSans-39" x="987.699219"/>
     <use xlink:href="#DejaVuSans-39" x="1051.322266"/>
     <use xlink:href="#DejaVuSans-38" x="1114.945312"/>
     <use xlink:href="#DejaVuSans-30" x="1178.568359"/>
     <use xlink:href="#DejaVuSans-38" x="1242.191406"/>
     <use xlink:href="#DejaVuSans-39" x="1305.814453"/>
     <use xlink:href="#DejaVuSans-30" x="1369.4375"/>
     <use xlink:href="#DejaVuSans-39" x="1433.060547"/>
     <use xlink:href="#DejaVuSans-35" x="1496.683594"/>
     <use xlink:href="#DejaVuSans-38" x="1560.306641"/>
     <use xlink:href="#DejaVuSans-37" x="1623.929688"/>
     <use xlink:href="#DejaVuSans-35" x="1687.552734"/>
     <use xlink:href="#DejaVuSans-35" x="1751.175781"/>
     <use xlink:href="#DejaVuSans-30" x="1814.798828"/>
     <use xlink:href="#DejaVuSans-33" x="1878.421875"/>
     <use xlink:href="#DejaVuSans-33" x="1942.044922"/>
    </g>
   </g>
   <g id="text_18">
    <!-- MVE In Distribution -->
    <g transform="translate(311.53875 63.12) scale(0.12 -0.12)">
     <defs>
      <path id="DejaVuSans-4d" d="M 628 4666 
L 1569 4666 
L 2759 1491 
L 3956 4666 
L 4897 4666 
L 4897 0 
L 4281 0 
L 4281 4097 
L 3078 897 
L 2444 897 
L 1241 4097 
L 1241 0 
L 628 0 
L 628 4666 
z
" transform="scale(0.015625)"/>
      <path id="DejaVuSans-56" d="M 1831 0 
L 50 4666 
L 709 4666 
L 2188 738 
L 3669 4666 
L 4325 4666 
L 2547 0 
L 1831 0 
z
" transform="scale(0.015625)"/>
      <path id="DejaVuSans-49" d="M 628 4666 
L 1259 4666 
L 1259 0 
L 628 0 
L 628 4666 
z
" transform="scale(0.015625)"/>
      <path id="DejaVuSans-44" d="M 1259 4147 
L 1259 519 
L 2022 519 
Q 2988 519 3436 956 
Q 3884 1394 3884 2338 
Q 3884 3275 3436 3711 
Q 2988 4147 2022 4147 
L 1259 4147 
z
M 628 4666 
L 1925 4666 
Q 3281 4666 3915 4102 
Q 4550 3538 4550 2338 
Q 4550 1131 3912 565 
Q 3275 0 1925 0 
L 628 0 
L 628 4666 
z
" transform="scale(0.015625)"/>
      <path id="DejaVuSans-73" d="M 2834 3397 
L 2834 2853 
Q 2591 2978 2328 3040 
Q 2066 3103 1784 3103 
Q 1356 3103 1142 2972 
Q 928 2841 928 2578 
Q 928 2378 1081 2264 
Q 1234 2150 1697 2047 
L 1894 2003 
Q 2506 1872 2764 1633 
Q 3022 1394 3022 966 
Q 3022 478 2636 193 
Q 2250 -91 1575 -91 
Q 1294 -91 989 -36 
Q 684 19 347 128 
L 347 722 
Q 666 556 975 473 
Q 1284 391 1588 391 
Q 1994 391 2212 530 
Q 2431 669 2431 922 
Q 2431 1156 2273 1281 
Q 2116 1406 1581 1522 
L 1381 1569 
Q 847 1681 609 1914 
Q 372 2147 372 2553 
Q 372 3047 722 3315 
Q 1072 3584 1716 3584 
Q 2034 3584 2315 3537 
Q 2597 3491 2834 3397 
z
" transform="scale(0.015625)"/>
      <path id="DejaVuSans-62" d="M 3116 1747 
Q 3116 2381 2855 2742 
Q 2594 3103 2138 3103 
Q 1681 3103 1420 2742 
Q 1159 2381 1159 1747 
Q 1159 1113 1420 752 
Q 1681 391 2138 391 
Q 2594 391 2855 752 
Q 3116 1113 3116 1747 
z
M 1159 2969 
Q 1341 3281 1617 3432 
Q 1894 3584 2278 3584 
Q 2916 3584 3314 3078 
Q 3713 2572 3713 1747 
Q 3713 922 3314 415 
Q 2916 -91 2278 -91 
Q 1894 -91 1617 61 
Q 1341 213 1159 525 
L 1159 0 
L 581 0 
L 581 4863 
L 1159 4863 
L 1159 2969 
z
" transform="scale(0.015625)"/>
     </defs>
     <use xlink:href="#DejaVuSans-4d"/>
     <use xlink:href="#DejaVuSans-56" x="86.279297"/>
     <use xlink:href="#DejaVuSans-45" x="154.6875"/>
     <use xlink:href="#DejaVuSans-20" x="217.871094"/>
     <use xlink:href="#DejaVuSans-49" x="249.658203"/>
     <use xlink:href="#DejaVuSans-6e" x="279.150391"/>
     <use xlink:href="#DejaVuSans-20" x="342.529297"/>
     <use xlink:href="#DejaVuSans-44" x="374.316406"/>
     <use xlink:href="#DejaVuSans-69" x="451.318359"/>
     <use xlink:href="#DejaVuSans-73" x="479.101562"/>
     <use xlink:href="#DejaVuSans-74" x="531.201172"/>
     <use xlink:href="#DejaVuSans-72" x="570.410156"/>
     <use xlink:href="#DejaVuSans-69" x="611.523438"/>
     <use xlink:href="#DejaVuSans-62" x="639.306641"/>
     <use xlink:href="#DejaVuSans-75" x="702.783203"/>
     <use xlink:href="#DejaVuSans-74" x="766.162109"/>
     <use xlink:href="#DejaVuSans-69" x="805.371094"/>
     <use xlink:href="#DejaVuSans-6f" x="833.154297"/>
     <use xlink:href="#DejaVuSans-6e" x="894.335938"/>
    </g>
   </g>
  </g>
 </g>
 <defs>
  <clipPath id="p63c1ba44b7">
   <rect x="90" y="69.12" width="558" height="443.52"/>
  </clipPath>
 </defs>
</svg>
