<?xml version="1.0" encoding="utf-8" standalone="no"?>
<!DOCTYPE svg PUBLIC "-//W3C//DTD SVG 1.1//EN"
  "http://www.w3.org/Graphics/SVG/1.1/DTD/svg11.dtd">
<svg xmlns:xlink="http://www.w3.org/1999/xlink" width="720pt" height="576pt" viewBox="0 0 720 576" xmlns="http://www.w3.org/2000/svg" version="1.1">
 <metadata>
  <rdf:RDF xmlns:dc="http://purl.org/dc/elements/1.1/" xmlns:cc="http://creativecommons.org/ns#" xmlns:rdf="http://www.w3.org/1999/02/22-rdf-syntax-ns#">
   <cc:Work>
    <dc:type rdf:resource="http://purl.org/dc/dcmitype/StillImage"/>
    <dc:date>2024-11-28T15:37:56.291879</dc:date>
    <dc:format>image/svg+xml</dc:format>
    <dc:creator>
     <cc:Agent>
      <dc:title>Matplotlib v3.8.4, https://matplotlib.org/</dc:title>
     </cc:Agent>
    </dc:creator>
   </cc:Work>
  </rdf:RDF>
 </metadata>
 <defs>
  <style type="text/css">*{stroke-linejoin: round; stroke-linecap: butt}</style>
 </defs>
 <g id="figure_1">
  <g id="patch_1">
   <path d="M 0 576 
L 720 576 
L 720 0 
L 0 0 
z
" style="fill: #ffffff"/>
  </g>
  <g id="axes_1">
   <g id="patch_2">
    <path d="M 90 512.64 
L 648 512.64 
L 648 69.12 
L 90 69.12 
z
" style="fill: #ffffff"/>
   </g>
   <g id="QuadContourSet_1">
    <path d="M 115.236181 493.07234 
L 115.993556 492.581307 
L 115.236181 492.189383 
L 114.749657 492.581307 
z
M 118.040201 491.590505 
L 119.994086 490.352563 
L 120.844221 489.939125 
L 123.648241 488.253796 
L 123.813284 488.123819 
L 126.452261 486.707545 
L 127.483829 485.895075 
L 129.256281 484.922513 
L 130.850962 483.666332 
L 132.060302 482.987966 
L 134.028022 481.437588 
L 134.864322 480.958055 
L 137.08381 479.208844 
L 137.668342 478.866238 
L 140.060864 476.980101 
L 140.472362 476.733557 
L 142.985962 474.751357 
L 143.276382 474.573483 
L 145.87626 472.522613 
L 146.080402 472.39479 
L 148.742944 470.293869 
L 148.884422 470.203299 
L 151.593435 468.065126 
L 151.688442 468.002938 
L 154.432737 465.836382 
L 154.492462 465.796407 
L 157.264282 463.607638 
L 157.296482 463.585599 
L 160.090455 461.378894 
L 160.100503 461.371862 
L 162.904523 459.323322 
L 163.123008 459.150151 
L 165.708543 457.395671 
L 166.306633 456.921407 
L 168.512563 455.399929 
L 169.404059 454.692663 
L 171.316583 453.351306 
L 172.434582 452.46392 
L 174.120603 451.260802 
L 175.41218 450.235176 
L 176.924623 449.136416 
L 178.347033 448.006432 
L 179.728643 446.98394 
L 181.246511 445.777688 
L 182.532663 444.807469 
L 184.115829 443.548945 
L 185.336683 442.609727 
L 186.958452 441.320201 
L 188.140704 440.392265 
L 189.776346 439.091457 
L 190.944724 438.155539 
L 192.570091 436.862714 
L 193.748744 435.898913 
L 195.338876 434.63397 
L 196.552764 433.620549 
L 198.080381 432.405226 
L 199.356784 431.317198 
L 200.790507 430.176482 
L 202.160804 428.98384 
L 203.462933 427.947739 
L 204.964824 426.613129 
L 206.088427 425.718995 
L 207.768844 424.194555 
L 208.653795 423.490251 
L 210.572864 421.713204 
L 211.140333 421.261508 
L 213.376884 419.147895 
L 213.521498 419.032764 
L 216.109462 416.80402 
L 216.180905 416.726356 
L 218.771911 414.575276 
L 218.984925 414.338664 
L 221.366997 412.346533 
L 221.788945 411.867497 
L 223.864958 410.117789 
L 224.592965 409.2727 
L 226.221294 407.889045 
L 227.396985 406.492745 
L 228.368287 405.660302 
L 227.396985 404.884034 
L 226.313027 405.660302 
L 224.592965 406.564824 
L 222.748381 407.889045 
L 221.788945 408.401576 
L 219.406332 410.117789 
L 218.984925 410.346642 
L 216.219475 412.346533 
L 216.180905 412.367843 
L 213.376884 414.065134 
L 212.719886 414.575276 
L 210.572864 415.863497 
L 209.361401 416.80402 
L 207.768844 417.774064 
L 206.148058 419.032764 
L 204.964824 419.763549 
L 203.037526 421.261508 
L 202.160804 421.810021 
L 200.001821 423.490251 
L 199.356784 423.898787 
L 197.022033 425.718995 
L 196.552764 426.019774 
L 194.084996 427.947739 
L 193.748744 428.165851 
L 191.181187 430.176482 
L 190.944724 430.331761 
L 188.303416 432.405226 
L 188.140704 432.513458 
L 185.446045 434.63397 
L 185.336683 434.707712 
L 182.604542 436.862714 
L 182.532663 436.911889 
L 179.775232 439.091457 
L 179.728643 439.123827 
L 176.955156 441.320201 
L 176.924623 441.341764 
L 174.141968 443.548945 
L 174.120603 443.564295 
L 171.333858 445.777688 
L 171.316583 445.790327 
L 168.529473 448.006432 
L 168.512563 448.019038 
L 165.727846 450.235176 
L 165.708543 450.249847 
L 162.928329 452.46392 
L 162.904523 452.482379 
L 160.130544 454.692663 
L 160.100503 454.716439 
L 157.33434 456.921407 
L 157.296482 456.952001 
L 154.539775 459.150151 
L 154.492462 459.189207 
L 151.747103 461.378894 
L 151.688442 461.428372 
L 148.956799 463.607638 
L 148.884422 463.670027 
L 146.16959 465.836382 
L 146.080402 465.914968 
L 143.386535 468.065126 
L 143.276382 468.16435 
L 140.609133 470.293869 
L 140.472362 470.419832 
L 137.839507 472.522613 
L 137.668342 472.683793 
L 135.080671 474.751357 
L 134.864322 474.959669 
L 132.336942 476.980101 
L 132.060302 477.252464 
L 129.61458 479.208844 
L 129.256281 479.569558 
L 126.922774 481.437588 
L 126.452261 481.921969 
L 124.275199 483.666332 
L 123.648241 484.326386 
L 121.692504 485.895075 
L 120.844221 486.808462 
L 119.206347 488.123819 
L 118.040201 489.408257 
L 116.866037 490.352563 
z
M 134.32404 476.980101 
L 134.864322 476.54819 
L 136.817363 476.980101 
L 134.864322 477.892872 
z
M 136.73048 474.751357 
L 137.668342 474.002 
L 139.239382 472.522613 
L 140.472362 471.537869 
L 141.823112 470.293869 
L 143.276382 469.133585 
L 144.462522 468.065126 
L 146.080402 466.773786 
L 147.144273 465.836382 
L 148.884422 464.447795 
L 149.859073 463.607638 
L 151.688442 462.148194 
L 152.600526 461.378894 
L 154.492462 459.869893 
L 155.364363 459.150151 
L 157.296482 457.609514 
L 158.147958 456.921407 
L 160.100503 455.364991 
L 160.95002 454.692663 
L 162.904523 453.135331 
L 163.770432 452.46392 
L 165.708543 450.920471 
L 166.610198 450.235176 
L 168.512563 448.721233 
L 169.471474 448.006432 
L 171.316583 446.539337 
L 172.357692 445.777688 
L 174.120603 444.377483 
L 175.273749 443.548945 
L 176.924623 442.239484 
L 178.226287 441.320201 
L 179.728643 440.130458 
L 181.224067 439.091457 
L 182.532663 438.057098 
L 184.278457 436.862714 
L 185.336683 436.028028 
L 187.404107 434.63397 
L 188.140704 434.054319 
L 190.619911 432.405226 
L 190.944724 432.150243 
L 193.748744 430.226875 
L 193.826349 430.176482 
L 196.552764 428.154642 
L 196.878573 427.947739 
L 199.356784 426.112499 
L 199.989983 425.718995 
L 202.160804 424.114471 
L 203.186632 423.490251 
L 204.964824 422.179214 
L 206.418627 423.490251 
L 204.964824 424.668767 
L 203.912269 425.718995 
L 202.160804 427.132434 
L 201.325875 427.947739 
L 199.356784 429.530581 
L 198.68084 430.176482 
L 196.552764 431.881361 
L 195.992454 432.405226 
L 193.748744 434.197604 
L 193.271687 434.63397 
L 190.944724 436.488403 
L 190.526406 436.862714 
L 188.140704 438.7602 
L 187.76223 439.091457 
L 185.336683 441.017531 
L 184.983119 441.320201 
L 182.532663 443.263545 
L 182.191776 443.548945 
L 179.728643 445.500355 
L 179.389923 445.777688 
L 176.924623 447.729271 
L 176.578466 448.006432 
L 174.120603 449.950949 
L 173.757589 450.235176 
L 171.316583 452.16547 
L 170.926767 452.46392 
L 168.512563 454.372353 
L 168.084708 454.692663 
L 165.708543 456.570518 
L 165.22921 456.921407 
L 162.904523 458.758174 
L 162.356917 459.150151 
L 160.100503 460.932626 
L 159.462917 461.378894 
L 157.296482 463.089964 
L 156.540134 463.607638 
L 154.492462 465.224584 
L 153.578395 465.836382 
L 151.688442 467.328455 
L 150.562997 468.065126 
L 148.884422 469.389993 
L 147.472494 470.293869 
L 146.080402 471.392321 
L 144.275244 472.522613 
L 143.276382 473.310549 
L 140.923936 474.751357 
L 140.472362 475.107464 
L 137.668342 476.595729 
z
M 206.504217 421.261508 
L 207.768844 420.331992 
L 208.814844 421.261508 
L 207.768844 422.11377 
z
M 209.992137 419.032764 
L 210.572864 418.607469 
L 211.058253 419.032764 
L 210.572864 419.430505 
z
" clip-path="url(#pf9da7eae1c)" style="fill: #e9f2fa"/>
    <path d="M 134.864322 477.892872 
L 136.817363 476.980101 
L 134.864322 476.54819 
L 134.32404 476.980101 
z
M 137.668342 476.595729 
L 140.472362 475.107464 
L 140.923936 474.751357 
L 143.276382 473.310549 
L 144.275244 472.522613 
L 146.080402 471.392321 
L 147.472494 470.293869 
L 148.884422 469.389993 
L 150.562997 468.065126 
L 151.688442 467.328455 
L 153.578395 465.836382 
L 154.492462 465.224584 
L 156.540134 463.607638 
L 157.296482 463.089964 
L 159.462917 461.378894 
L 160.100503 460.932626 
L 162.356917 459.150151 
L 162.904523 458.758174 
L 165.22921 456.921407 
L 165.708543 456.570518 
L 168.084708 454.692663 
L 168.512563 454.372353 
L 170.926767 452.46392 
L 171.316583 452.16547 
L 173.757589 450.235176 
L 174.120603 449.950949 
L 176.578466 448.006432 
L 176.924623 447.729271 
L 179.389923 445.777688 
L 179.728643 445.500355 
L 182.191776 443.548945 
L 182.532663 443.263545 
L 184.983119 441.320201 
L 185.336683 441.017531 
L 187.76223 439.091457 
L 188.140704 438.7602 
L 190.526406 436.862714 
L 190.944724 436.488403 
L 193.271687 434.63397 
L 193.748744 434.197604 
L 195.992454 432.405226 
L 196.552764 431.881361 
L 198.68084 430.176482 
L 199.356784 429.530581 
L 201.325875 427.947739 
L 202.160804 427.132434 
L 203.912269 425.718995 
L 204.964824 424.668767 
L 206.418627 423.490251 
L 204.964824 422.179214 
L 203.186632 423.490251 
L 202.160804 424.114471 
L 199.989983 425.718995 
L 199.356784 426.112499 
L 196.878573 427.947739 
L 196.552764 428.154642 
L 193.826349 430.176482 
L 193.748744 430.226875 
L 190.944724 432.150243 
L 190.619911 432.405226 
L 188.140704 434.054319 
L 187.404107 434.63397 
L 185.336683 436.028028 
L 184.278457 436.862714 
L 182.532663 438.057098 
L 181.224067 439.091457 
L 179.728643 440.130458 
L 178.226287 441.320201 
L 176.924623 442.239484 
L 175.273749 443.548945 
L 174.120603 444.377483 
L 172.357692 445.777688 
L 171.316583 446.539337 
L 169.471474 448.006432 
L 168.512563 448.721233 
L 166.610198 450.235176 
L 165.708543 450.920471 
L 163.770432 452.46392 
L 162.904523 453.135331 
L 160.95002 454.692663 
L 160.100503 455.364991 
L 158.147958 456.921407 
L 157.296482 457.609514 
L 155.364363 459.150151 
L 154.492462 459.869893 
L 152.600526 461.378894 
L 151.688442 462.148194 
L 149.859073 463.607638 
L 148.884422 464.447795 
L 147.144273 465.836382 
L 146.080402 466.773786 
L 144.462522 468.065126 
L 143.276382 469.133585 
L 141.823112 470.293869 
L 140.472362 471.537869 
L 139.239382 472.522613 
L 137.668342 474.002 
L 136.73048 474.751357 
z
M 143.021716 470.293869 
L 143.276382 470.090545 
L 145.524883 468.065126 
L 146.080402 467.621729 
L 148.106612 465.836382 
L 148.884422 465.215713 
L 150.749921 463.607638 
L 151.688442 462.8589 
L 153.44314 461.378894 
L 154.492462 460.541959 
L 156.178509 459.150151 
L 157.296482 458.258698 
L 158.951272 456.921407 
L 160.100503 456.00533 
L 161.759118 454.692663 
L 162.904523 453.780014 
L 164.601871 452.46392 
L 165.708543 451.582602 
L 167.481375 450.235176 
L 168.512563 449.414534 
L 170.401545 448.006432 
L 171.316583 447.278861 
L 173.36856 445.777688 
L 174.120603 445.180372 
L 176.391196 443.548945 
L 176.924623 443.125835 
L 179.48132 441.320201 
L 179.728643 441.124341 
L 182.532663 439.134647 
L 182.592962 439.091457 
L 185.336683 437.051931 
L 185.607899 436.862714 
L 188.140704 434.980754 
L 188.65032 434.63397 
L 190.944724 432.929871 
L 191.734331 432.405226 
L 193.748744 430.909989 
L 194.878366 430.176482 
L 196.552764 428.934791 
L 197.859699 430.176482 
L 196.552764 431.223515 
L 195.288844 432.405226 
L 193.748744 433.635528 
L 192.657197 434.63397 
L 190.944724 435.998696 
L 189.979123 436.862714 
L 188.140704 438.324915 
L 187.264901 439.091457 
L 185.336683 440.622613 
L 184.521796 441.320201 
L 182.532663 442.897691 
L 181.754793 443.548945 
L 179.728643 445.154156 
L 178.967094 445.777688 
L 176.924623 447.394551 
L 176.160421 448.006432 
L 174.120603 449.620217 
L 173.335178 450.235176 
L 171.316583 451.831436 
L 170.490474 452.46392 
L 168.512563 454.027462 
L 167.624019 454.692663 
L 165.708543 456.206441 
L 164.731862 456.921407 
L 162.904523 458.365213 
L 161.807936 459.150151 
L 160.100503 460.498953 
L 158.843326 461.378894 
L 157.296482 462.600606 
L 155.825158 463.607638 
L 154.492462 464.660002 
L 152.734873 465.836382 
L 151.688442 466.662514 
L 149.545608 468.065126 
L 148.884422 468.586988 
L 146.218134 470.293869 
L 146.080402 470.402549 
L 143.276382 471.109509 
z
M 198.107069 427.947739 
L 199.356784 427.022262 
L 200.349759 427.947739 
L 199.356784 428.745936 
z
M 201.453909 425.718995 
L 202.160804 425.196506 
L 202.731142 425.718995 
L 202.160804 426.17926 
z
M 207.768844 422.11377 
L 208.814844 421.261508 
L 207.768844 420.331992 
L 206.504217 421.261508 
z
M 210.572864 419.430505 
L 211.058253 419.032764 
L 210.572864 418.607469 
L 209.992137 419.032764 
z
" clip-path="url(#pf9da7eae1c)" style="fill: #ccdff1"/>
    <path d="M 143.276382 471.109509 
L 146.080402 470.402549 
L 146.218134 470.293869 
L 148.884422 468.586988 
L 149.545608 468.065126 
L 151.688442 466.662514 
L 152.734873 465.836382 
L 154.492462 464.660002 
L 155.825158 463.607638 
L 157.296482 462.600606 
L 158.843326 461.378894 
L 160.100503 460.498953 
L 161.807936 459.150151 
L 162.904523 458.365213 
L 164.731862 456.921407 
L 165.708543 456.206441 
L 167.624019 454.692663 
L 168.512563 454.027462 
L 170.490474 452.46392 
L 171.316583 451.831436 
L 173.335178 450.235176 
L 174.120603 449.620217 
L 176.160421 448.006432 
L 176.924623 447.394551 
L 178.967094 445.777688 
L 179.728643 445.154156 
L 181.754793 443.548945 
L 182.532663 442.897691 
L 184.521796 441.320201 
L 185.336683 440.622613 
L 187.264901 439.091457 
L 188.140704 438.324915 
L 189.979123 436.862714 
L 190.944724 435.998696 
L 192.657197 434.63397 
L 193.748744 433.635528 
L 195.288844 432.405226 
L 196.552764 431.223515 
L 197.859699 430.176482 
L 196.552764 428.934791 
L 194.878366 430.176482 
L 193.748744 430.909989 
L 191.734331 432.405226 
L 190.944724 432.929871 
L 188.65032 434.63397 
L 188.140704 434.980754 
L 185.607899 436.862714 
L 185.336683 437.051931 
L 182.592962 439.091457 
L 182.532663 439.134647 
L 179.728643 441.124341 
L 179.48132 441.320201 
L 176.924623 443.125835 
L 176.391196 443.548945 
L 174.120603 445.180372 
L 173.36856 445.777688 
L 171.316583 447.278861 
L 170.401545 448.006432 
L 168.512563 449.414534 
L 167.481375 450.235176 
L 165.708543 451.582602 
L 164.601871 452.46392 
L 162.904523 453.780014 
L 161.759118 454.692663 
L 160.100503 456.00533 
L 158.951272 456.921407 
L 157.296482 458.258698 
L 156.178509 459.150151 
L 154.492462 460.541959 
L 153.44314 461.378894 
L 151.688442 462.8589 
L 150.749921 463.607638 
L 148.884422 465.215713 
L 148.106612 465.836382 
L 146.080402 467.621729 
L 145.524883 468.065126 
L 143.276382 470.090545 
L 143.021716 470.293869 
z
M 148.884422 465.836382 
L 151.469949 463.607638 
L 151.688442 463.433327 
L 154.124183 461.378894 
L 154.492462 461.085156 
L 156.836541 459.150151 
L 157.296482 458.783402 
L 159.60055 456.921407 
L 160.100503 456.522884 
L 162.413071 454.692663 
L 162.904523 454.301078 
L 165.27388 452.46392 
L 165.708543 452.117769 
L 168.185504 450.235176 
L 168.512563 449.974895 
L 171.153275 448.006432 
L 171.316583 447.876582 
L 174.120603 445.812337 
L 174.164717 445.777688 
L 176.924623 443.718355 
L 177.147693 443.548945 
L 179.728643 441.627024 
L 180.14514 441.320201 
L 182.532663 439.544331 
L 183.164932 439.091457 
L 185.336683 437.477101 
L 186.217315 436.862714 
L 188.140704 435.433571 
L 189.315756 434.63397 
L 190.944724 433.424103 
L 192.160535 434.63397 
L 190.944724 435.60289 
L 189.536782 436.862714 
L 188.140704 437.973095 
L 186.862936 439.091457 
L 185.336683 440.303421 
L 184.148931 441.320201 
L 182.532663 442.601989 
L 181.401602 443.548945 
L 179.728643 444.874341 
L 178.625343 445.777688 
L 176.924623 447.124014 
L 175.822536 448.006432 
L 174.120603 449.352902 
L 172.993763 450.235176 
L 171.316583 451.561453 
L 170.137839 452.46392 
L 168.512563 453.748704 
L 167.251667 454.692663 
L 165.708543 455.912176 
L 164.329881 456.921407 
L 162.904523 458.047602 
L 161.364221 459.150151 
L 160.100503 460.148437 
L 158.342543 461.378894 
L 157.296482 462.205082 
L 155.247278 463.607638 
L 154.492462 464.203679 
L 152.053096 465.836382 
L 151.688442 466.124267 
z
M 192.478168 432.405226 
L 193.748744 431.462116 
L 194.72015 432.405226 
L 193.748744 433.18123 
z
M 195.728658 430.176482 
L 196.552764 429.565346 
L 197.196012 430.176482 
L 196.552764 430.691811 
z
M 199.356784 428.745936 
L 200.349759 427.947739 
L 199.356784 427.022262 
L 198.107069 427.947739 
z
M 199.100001 427.947739 
L 199.356784 427.757578 
L 199.560814 427.947739 
L 199.356784 428.111747 
z
M 202.160804 426.17926 
L 202.731142 425.718995 
L 202.160804 425.196506 
L 201.453909 425.718995 
z
" clip-path="url(#pf9da7eae1c)" style="fill: #a6cee4"/>
    <path d="M 151.688442 466.124267 
L 152.053096 465.836382 
L 154.492462 464.203679 
L 155.247278 463.607638 
L 157.296482 462.205082 
L 158.342543 461.378894 
L 160.100503 460.148437 
L 161.364221 459.150151 
L 162.904523 458.047602 
L 164.329881 456.921407 
L 165.708543 455.912176 
L 167.251667 454.692663 
L 168.512563 453.748704 
L 170.137839 452.46392 
L 171.316583 451.561453 
L 172.993763 450.235176 
L 174.120603 449.352902 
L 175.822536 448.006432 
L 176.924623 447.124014 
L 178.625343 445.777688 
L 179.728643 444.874341 
L 181.401602 443.548945 
L 182.532663 442.601989 
L 184.148931 441.320201 
L 185.336683 440.303421 
L 186.862936 439.091457 
L 188.140704 437.973095 
L 189.536782 436.862714 
L 190.944724 435.60289 
L 192.160535 434.63397 
L 190.944724 433.424103 
L 189.315756 434.63397 
L 188.140704 435.433571 
L 186.217315 436.862714 
L 185.336683 437.477101 
L 183.164932 439.091457 
L 182.532663 439.544331 
L 180.14514 441.320201 
L 179.728643 441.627024 
L 177.147693 443.548945 
L 176.924623 443.718355 
L 174.164717 445.777688 
L 174.120603 445.812337 
L 171.316583 447.876582 
L 171.153275 448.006432 
L 168.512563 449.974895 
L 168.185504 450.235176 
L 165.708543 452.117769 
L 165.27388 452.46392 
L 162.904523 454.301078 
L 162.413071 454.692663 
L 160.100503 456.522884 
L 159.60055 456.921407 
L 157.296482 458.783402 
L 156.836541 459.150151 
L 154.492462 461.085156 
L 154.124183 461.378894 
L 151.688442 463.433327 
L 151.469949 463.607638 
L 148.884422 465.836382 
z
M 152.352042 463.607638 
L 154.492462 461.378894 
L 154.934785 463.607638 
L 154.492462 463.956919 
z
M 154.492462 461.378894 
L 157.192378 459.150151 
L 157.296482 459.06714 
L 159.951652 456.921407 
L 160.100503 456.802755 
L 162.766701 454.692663 
L 162.904523 454.582849 
L 165.637275 452.46392 
L 165.708543 452.407165 
L 168.512563 450.276191 
L 168.560644 450.235176 
L 171.316583 448.16 
L 171.504795 448.006432 
L 174.120603 446.047888 
L 174.464616 445.777688 
L 176.924623 443.942128 
L 177.442344 443.548945 
L 179.728643 441.846438 
L 180.442984 441.320201 
L 182.532663 439.765871 
L 183.474229 439.091457 
L 185.336683 437.707015 
L 186.546862 436.862714 
L 188.140704 435.678436 
L 189.297583 436.862714 
L 188.140704 437.782846 
L 186.645569 439.091457 
L 185.336683 440.130815 
L 183.947302 441.320201 
L 182.532663 442.442086 
L 181.21061 443.548945 
L 179.728643 444.723029 
L 178.440538 445.777688 
L 176.924623 446.977718 
L 175.639823 448.006432 
L 174.120603 449.20835 
L 172.809141 450.235176 
L 171.316583 451.415458 
L 169.947149 452.46392 
L 168.512563 453.597963 
L 167.050315 454.692663 
L 165.708543 455.75305 
L 164.112506 456.921407 
L 162.904523 457.875851 
L 161.124279 459.150151 
L 160.100503 459.958892 
L 158.07174 461.378894 
L 157.296482 461.9912 
z
M 189.675597 434.63397 
L 190.944724 433.691364 
L 191.891961 434.63397 
L 190.944724 435.388855 
z
M 193.748744 433.18123 
L 194.72015 432.405226 
L 193.748744 431.462116 
L 192.478168 432.405226 
z
M 192.880404 432.405226 
L 193.748744 431.760684 
L 194.412625 432.405226 
L 193.748744 432.935565 
z
M 196.552764 430.691811 
L 197.196012 430.176482 
L 196.552764 429.565346 
L 195.728658 430.176482 
z
M 196.18846 430.176482 
L 196.552764 429.906324 
L 196.837117 430.176482 
L 196.552764 430.404288 
z
M 199.356784 428.111747 
L 199.560814 427.947739 
L 199.356784 427.757578 
L 199.100001 427.947739 
z
" clip-path="url(#pf9da7eae1c)" style="fill: #84bcdb"/>
    <path d="M 154.492462 463.956919 
L 154.934785 463.607638 
L 154.492462 461.378894 
L 152.352042 463.607638 
z
M 157.296482 461.9912 
L 158.07174 461.378894 
L 160.100503 459.958892 
L 161.124279 459.150151 
L 162.904523 457.875851 
L 164.112506 456.921407 
L 165.708543 455.75305 
L 167.050315 454.692663 
L 168.512563 453.597963 
L 169.947149 452.46392 
L 171.316583 451.415458 
L 172.809141 450.235176 
L 174.120603 449.20835 
L 175.639823 448.006432 
L 176.924623 446.977718 
L 178.440538 445.777688 
L 179.728643 444.723029 
L 181.21061 443.548945 
L 182.532663 442.442086 
L 183.947302 441.320201 
L 185.336683 440.130815 
L 186.645569 439.091457 
L 188.140704 437.782846 
L 189.297583 436.862714 
L 188.140704 435.678436 
L 186.546862 436.862714 
L 185.336683 437.707015 
L 183.474229 439.091457 
L 182.532663 439.765871 
L 180.442984 441.320201 
L 179.728643 441.846438 
L 177.442344 443.548945 
L 176.924623 443.942128 
L 174.464616 445.777688 
L 174.120603 446.047888 
L 171.504795 448.006432 
L 171.316583 448.16 
L 168.560644 450.235176 
L 168.512563 450.276191 
L 165.708543 452.407165 
L 165.637275 452.46392 
L 162.904523 454.582849 
L 162.766701 454.692663 
L 160.100503 456.802755 
L 159.951652 456.921407 
L 157.296482 459.06714 
L 157.192378 459.150151 
L 154.492462 461.378894 
z
M 155.878859 461.378894 
L 157.296482 460.123855 
L 157.688428 461.378894 
L 157.296482 461.688456 
z
M 158.088752 459.150151 
L 160.100503 457.496462 
L 160.78465 459.150151 
L 160.100503 459.690599 
z
M 160.642119 456.921407 
L 162.904523 455.135069 
L 163.80482 456.921407 
L 162.904523 457.632744 
z
M 163.362945 454.692663 
L 165.708543 452.884103 
L 166.175182 452.46392 
L 168.512563 450.687808 
L 169.043172 450.235176 
L 171.316583 448.523335 
L 171.950099 448.006432 
L 174.120603 446.381302 
L 174.889112 445.777688 
L 176.924623 444.25887 
L 177.859412 443.548945 
L 179.728643 442.15701 
L 180.940269 443.548945 
L 179.728643 444.508852 
L 178.178953 445.777688 
L 176.924623 446.770642 
L 175.381198 448.006432 
L 174.120603 449.003741 
L 172.547814 450.235176 
L 171.316583 451.208807 
L 169.677235 452.46392 
L 168.512563 453.384595 
L 166.765308 454.692663 
L 165.708543 455.527812 
z
M 180.864571 441.320201 
L 182.532663 440.079453 
L 183.661903 441.320201 
L 182.532663 442.215749 
z
M 183.912029 439.091457 
L 185.336683 438.03245 
L 186.337895 439.091457 
L 185.336683 439.886497 
z
M 187.013324 436.862714 
L 188.140704 436.025033 
L 188.959004 436.862714 
L 188.140704 437.513555 
z
M 190.944724 435.388855 
L 191.891961 434.63397 
L 190.944724 433.691364 
L 189.675597 434.63397 
z
M 190.184938 434.63397 
L 190.944724 434.069662 
L 191.511805 434.63397 
L 190.944724 435.085896 
z
M 193.748744 432.935565 
L 194.412625 432.405226 
L 193.748744 431.760684 
L 192.880404 432.405226 
z
M 193.449754 432.405226 
L 193.748744 432.183295 
L 193.977333 432.405226 
L 193.748744 432.587834 
z
M 196.552764 430.404288 
L 196.837117 430.176482 
L 196.552764 429.906324 
L 196.18846 430.176482 
z
" clip-path="url(#pf9da7eae1c)" style="fill: #65aad4"/>
    <path d="M 157.296482 461.688456 
L 157.688428 461.378894 
L 157.296482 460.123855 
L 155.878859 461.378894 
z
M 160.100503 459.690599 
L 160.78465 459.150151 
L 160.100503 457.496462 
L 158.088752 459.150151 
z
M 162.904523 457.632744 
L 163.80482 456.921407 
L 162.904523 455.135069 
L 160.642119 456.921407 
z
M 162.510847 456.921407 
L 162.904523 456.610571 
L 163.061181 456.921407 
L 162.904523 457.045185 
z
M 165.708543 455.527812 
L 166.765308 454.692663 
L 168.512563 453.384595 
L 169.677235 452.46392 
L 171.316583 451.208807 
L 172.547814 450.235176 
L 174.120603 449.003741 
L 175.381198 448.006432 
L 176.924623 446.770642 
L 178.178953 445.777688 
L 179.728643 444.508852 
L 180.940269 443.548945 
L 179.728643 442.15701 
L 177.859412 443.548945 
L 176.924623 444.25887 
L 174.889112 445.777688 
L 174.120603 446.381302 
L 171.950099 448.006432 
L 171.316583 448.523335 
L 169.043172 450.235176 
L 168.512563 450.687808 
L 166.175182 452.46392 
L 165.708543 452.884103 
L 163.362945 454.692663 
z
M 164.891863 454.692663 
L 165.708543 454.062967 
L 166.076482 454.692663 
L 165.708543 454.983442 
z
M 167.484382 452.46392 
L 168.512563 451.682633 
L 169.024885 452.46392 
L 168.512563 452.868912 
z
M 170.209378 450.235176 
L 171.316583 449.401469 
L 171.916222 450.235176 
L 171.316583 450.709357 
z
M 173.026339 448.006432 
L 174.120603 447.18712 
L 174.756134 448.006432 
L 174.120603 448.509227 
z
M 175.915065 445.777688 
L 176.924623 445.024396 
L 177.546737 445.777688 
L 176.924623 446.270167 
z
M 178.867413 443.548945 
L 179.728643 442.907624 
L 180.286888 443.548945 
L 179.728643 443.991213 
z
M 182.532663 442.215749 
L 183.661903 441.320201 
L 182.532663 440.079453 
L 180.864571 441.320201 
z
M 181.883493 441.320201 
L 182.532663 440.83734 
L 182.972129 441.320201 
L 182.532663 441.668721 
z
M 185.336683 439.886497 
L 186.337895 439.091457 
L 185.336683 438.03245 
L 183.912029 439.091457 
z
M 184.970134 439.091457 
L 185.336683 438.818985 
L 185.594285 439.091457 
L 185.336683 439.296013 
z
M 188.140704 437.513555 
L 188.959004 436.862714 
L 188.140704 436.025033 
L 187.013324 436.862714 
z
M 190.944724 435.085896 
L 191.511805 434.63397 
L 190.944724 434.069662 
L 190.184938 434.63397 
z
M 193.748744 432.587834 
L 193.977333 432.405226 
L 193.748744 432.183295 
L 193.449754 432.405226 
z
" clip-path="url(#pf9da7eae1c)" style="fill: #3686c0"/>
    <path d="M 162.904523 457.045185 
L 163.061181 456.921407 
L 162.904523 456.610571 
L 162.510847 456.921407 
z
M 165.708543 454.983442 
L 166.076482 454.692663 
L 165.708543 454.062967 
L 164.891863 454.692663 
z
M 168.512563 452.868912 
L 169.024885 452.46392 
L 168.512563 451.682633 
L 167.484382 452.46392 
z
M 168.183698 452.46392 
L 168.512563 452.214025 
L 168.67643 452.46392 
L 168.512563 452.593457 
z
M 171.316583 450.709357 
L 171.916222 450.235176 
L 171.316583 449.401469 
L 170.209378 450.235176 
z
M 170.832313 450.235176 
L 171.316583 449.870529 
L 171.578853 450.235176 
L 171.316583 450.442573 
z
M 174.120603 448.509227 
L 174.756134 448.006432 
L 174.120603 447.18712 
L 173.026339 448.006432 
z
M 173.601219 448.006432 
L 174.120603 447.617552 
L 174.422253 448.006432 
L 174.120603 448.24508 
z
M 176.924623 446.270167 
L 177.546737 445.777688 
L 176.924623 445.024396 
L 175.915065 445.777688 
z
M 176.463083 445.777688 
L 176.924623 445.433305 
L 177.209035 445.777688 
L 176.924623 446.002835 
z
M 179.728643 443.991213 
L 180.286888 443.548945 
L 179.728643 442.907624 
L 178.867413 443.548945 
z
M 179.405841 443.548945 
L 179.728643 443.308568 
L 179.937882 443.548945 
L 179.728643 443.714713 
z
M 182.532663 441.668721 
L 182.972129 441.320201 
L 182.532663 440.83734 
L 181.883493 441.320201 
z
M 182.427755 441.320201 
L 182.532663 441.242169 
L 182.603682 441.320201 
L 182.532663 441.376523 
z
M 185.336683 439.296013 
L 185.594285 439.091457 
L 185.336683 438.818985 
L 184.970134 439.091457 
z
" clip-path="url(#pf9da7eae1c)" style="fill: #0f5aa3"/>
    <path d="M 168.512563 452.593457 
L 168.67643 452.46392 
L 168.512563 452.214025 
L 168.183698 452.46392 
z
M 171.316583 450.442573 
L 171.578853 450.235176 
L 171.316583 449.870529 
L 170.832313 450.235176 
z
M 171.205779 450.235176 
L 171.316583 450.151742 
L 171.376592 450.235176 
L 171.316583 450.28263 
z
M 174.120603 448.24508 
L 174.422253 448.006432 
L 174.120603 447.617552 
L 173.601219 448.006432 
z
M 173.945874 448.006432 
L 174.120603 447.875606 
L 174.222083 448.006432 
L 174.120603 448.086717 
z
M 176.924623 446.002835 
L 177.209035 445.777688 
L 176.924623 445.433305 
L 176.463083 445.777688 
z
M 176.791634 445.777688 
L 176.924623 445.678457 
L 177.006574 445.777688 
L 176.924623 445.842563 
z
M 179.728643 443.714713 
L 179.937882 443.548945 
L 179.728643 443.308568 
L 179.405841 443.548945 
z
M 182.532663 441.376523 
L 182.603682 441.320201 
L 182.532663 441.242169 
L 182.427755 441.320201 
z
" clip-path="url(#pf9da7eae1c)" style="fill: #084285"/>
    <path d="M 171.316583 450.28263 
L 171.376592 450.235176 
L 171.316583 450.151742 
L 171.205779 450.235176 
z
M 174.120603 448.086717 
L 174.222083 448.006432 
L 174.120603 447.875606 
L 173.945874 448.006432 
z
M 176.924623 445.842563 
L 177.006574 445.777688 
L 176.924623 445.678457 
L 176.791634 445.777688 
z
" clip-path="url(#pf9da7eae1c)" style="fill: #083471"/>
   </g>
   <g id="matplotlib.axis_1">
    <g id="xtick_1">
     <g id="line2d_1">
      <defs>
       <path id="m85293335ac" d="M 0 0 
L 0 3.5 
" style="stroke: #000000; stroke-width: 0.8"/>
      </defs>
      <g>
       <use xlink:href="#m85293335ac" x="95.314303" y="512.64" style="stroke: #000000; stroke-width: 0.8"/>
      </g>
     </g>
     <g id="text_1">
      <!-- −100 -->
      <g transform="translate(81.580709 527.238438) scale(0.1 -0.1)">
       <defs>
        <path id="DejaVuSans-2212" d="M 678 2272 
L 4684 2272 
L 4684 1741 
L 678 1741 
L 678 2272 
z
" transform="scale(0.015625)"/>
        <path id="DejaVuSans-31" d="M 794 531 
L 1825 531 
L 1825 4091 
L 703 3866 
L 703 4441 
L 1819 4666 
L 2450 4666 
L 2450 531 
L 3481 531 
L 3481 0 
L 794 0 
L 794 531 
z
" transform="scale(0.015625)"/>
        <path id="DejaVuSans-30" d="M 2034 4250 
Q 1547 4250 1301 3770 
Q 1056 3291 1056 2328 
Q 1056 1369 1301 889 
Q 1547 409 2034 409 
Q 2525 409 2770 889 
Q 3016 1369 3016 2328 
Q 3016 3291 2770 3770 
Q 2525 4250 2034 4250 
z
M 2034 4750 
Q 2819 4750 3233 4129 
Q 3647 3509 3647 2328 
Q 3647 1150 3233 529 
Q 2819 -91 2034 -91 
Q 1250 -91 836 529 
Q 422 1150 422 2328 
Q 422 3509 836 4129 
Q 1250 4750 2034 4750 
z
" transform="scale(0.015625)"/>
       </defs>
       <use xlink:href="#DejaVuSans-2212"/>
       <use xlink:href="#DejaVuSans-31" x="83.789062"/>
       <use xlink:href="#DejaVuSans-30" x="147.412109"/>
       <use xlink:href="#DejaVuSans-30" x="211.035156"/>
      </g>
     </g>
    </g>
    <g id="xtick_2">
     <g id="line2d_2">
      <g>
       <use xlink:href="#m85293335ac" x="170.821581" y="512.64" style="stroke: #000000; stroke-width: 0.8"/>
      </g>
     </g>
     <g id="text_2">
      <!-- 0 -->
      <g transform="translate(167.640331 527.238438) scale(0.1 -0.1)">
       <use xlink:href="#DejaVuSans-30"/>
      </g>
     </g>
    </g>
    <g id="xtick_3">
     <g id="line2d_3">
      <g>
       <use xlink:href="#m85293335ac" x="246.328859" y="512.64" style="stroke: #000000; stroke-width: 0.8"/>
      </g>
     </g>
     <g id="text_3">
      <!-- 100 -->
      <g transform="translate(236.785109 527.238438) scale(0.1 -0.1)">
       <use xlink:href="#DejaVuSans-31"/>
       <use xlink:href="#DejaVuSans-30" x="63.623047"/>
       <use xlink:href="#DejaVuSans-30" x="127.246094"/>
      </g>
     </g>
    </g>
    <g id="xtick_4">
     <g id="line2d_4">
      <g>
       <use xlink:href="#m85293335ac" x="321.836137" y="512.64" style="stroke: #000000; stroke-width: 0.8"/>
      </g>
     </g>
     <g id="text_4">
      <!-- 200 -->
      <g transform="translate(312.292387 527.238438) scale(0.1 -0.1)">
       <defs>
        <path id="DejaVuSans-32" d="M 1228 531 
L 3431 531 
L 3431 0 
L 469 0 
L 469 531 
Q 828 903 1448 1529 
Q 2069 2156 2228 2338 
Q 2531 2678 2651 2914 
Q 2772 3150 2772 3378 
Q 2772 3750 2511 3984 
Q 2250 4219 1831 4219 
Q 1534 4219 1204 4116 
Q 875 4013 500 3803 
L 500 4441 
Q 881 4594 1212 4672 
Q 1544 4750 1819 4750 
Q 2544 4750 2975 4387 
Q 3406 4025 3406 3419 
Q 3406 3131 3298 2873 
Q 3191 2616 2906 2266 
Q 2828 2175 2409 1742 
Q 1991 1309 1228 531 
z
" transform="scale(0.015625)"/>
       </defs>
       <use xlink:href="#DejaVuSans-32"/>
       <use xlink:href="#DejaVuSans-30" x="63.623047"/>
       <use xlink:href="#DejaVuSans-30" x="127.246094"/>
      </g>
     </g>
    </g>
    <g id="xtick_5">
     <g id="line2d_5">
      <g>
       <use xlink:href="#m85293335ac" x="397.343415" y="512.64" style="stroke: #000000; stroke-width: 0.8"/>
      </g>
     </g>
     <g id="text_5">
      <!-- 300 -->
      <g transform="translate(387.799665 527.238438) scale(0.1 -0.1)">
       <defs>
        <path id="DejaVuSans-33" d="M 2597 2516 
Q 3050 2419 3304 2112 
Q 3559 1806 3559 1356 
Q 3559 666 3084 287 
Q 2609 -91 1734 -91 
Q 1441 -91 1130 -33 
Q 819 25 488 141 
L 488 750 
Q 750 597 1062 519 
Q 1375 441 1716 441 
Q 2309 441 2620 675 
Q 2931 909 2931 1356 
Q 2931 1769 2642 2001 
Q 2353 2234 1838 2234 
L 1294 2234 
L 1294 2753 
L 1863 2753 
Q 2328 2753 2575 2939 
Q 2822 3125 2822 3475 
Q 2822 3834 2567 4026 
Q 2313 4219 1838 4219 
Q 1578 4219 1281 4162 
Q 984 4106 628 3988 
L 628 4550 
Q 988 4650 1302 4700 
Q 1616 4750 1894 4750 
Q 2613 4750 3031 4423 
Q 3450 4097 3450 3541 
Q 3450 3153 3228 2886 
Q 3006 2619 2597 2516 
z
" transform="scale(0.015625)"/>
       </defs>
       <use xlink:href="#DejaVuSans-33"/>
       <use xlink:href="#DejaVuSans-30" x="63.623047"/>
       <use xlink:href="#DejaVuSans-30" x="127.246094"/>
      </g>
     </g>
    </g>
    <g id="xtick_6">
     <g id="line2d_6">
      <g>
       <use xlink:href="#m85293335ac" x="472.850693" y="512.64" style="stroke: #000000; stroke-width: 0.8"/>
      </g>
     </g>
     <g id="text_6">
      <!-- 400 -->
      <g transform="translate(463.306943 527.238438) scale(0.1 -0.1)">
       <defs>
        <path id="DejaVuSans-34" d="M 2419 4116 
L 825 1625 
L 2419 1625 
L 2419 4116 
z
M 2253 4666 
L 3047 4666 
L 3047 1625 
L 3713 1625 
L 3713 1100 
L 3047 1100 
L 3047 0 
L 2419 0 
L 2419 1100 
L 313 1100 
L 313 1709 
L 2253 4666 
z
" transform="scale(0.015625)"/>
       </defs>
       <use xlink:href="#DejaVuSans-34"/>
       <use xlink:href="#DejaVuSans-30" x="63.623047"/>
       <use xlink:href="#DejaVuSans-30" x="127.246094"/>
      </g>
     </g>
    </g>
    <g id="xtick_7">
     <g id="line2d_7">
      <g>
       <use xlink:href="#m85293335ac" x="548.357971" y="512.64" style="stroke: #000000; stroke-width: 0.8"/>
      </g>
     </g>
     <g id="text_7">
      <!-- 500 -->
      <g transform="translate(538.814221 527.238438) scale(0.1 -0.1)">
       <defs>
        <path id="DejaVuSans-35" d="M 691 4666 
L 3169 4666 
L 3169 4134 
L 1269 4134 
L 1269 2991 
Q 1406 3038 1543 3061 
Q 1681 3084 1819 3084 
Q 2600 3084 3056 2656 
Q 3513 2228 3513 1497 
Q 3513 744 3044 326 
Q 2575 -91 1722 -91 
Q 1428 -91 1123 -41 
Q 819 9 494 109 
L 494 744 
Q 775 591 1075 516 
Q 1375 441 1709 441 
Q 2250 441 2565 725 
Q 2881 1009 2881 1497 
Q 2881 1984 2565 2268 
Q 2250 2553 1709 2553 
Q 1456 2553 1204 2497 
Q 953 2441 691 2322 
L 691 4666 
z
" transform="scale(0.015625)"/>
       </defs>
       <use xlink:href="#DejaVuSans-35"/>
       <use xlink:href="#DejaVuSans-30" x="63.623047"/>
       <use xlink:href="#DejaVuSans-30" x="127.246094"/>
      </g>
     </g>
    </g>
    <g id="xtick_8">
     <g id="line2d_8">
      <g>
       <use xlink:href="#m85293335ac" x="623.865249" y="512.64" style="stroke: #000000; stroke-width: 0.8"/>
      </g>
     </g>
     <g id="text_8">
      <!-- 600 -->
      <g transform="translate(614.321499 527.238438) scale(0.1 -0.1)">
       <defs>
        <path id="DejaVuSans-36" d="M 2113 2584 
Q 1688 2584 1439 2293 
Q 1191 2003 1191 1497 
Q 1191 994 1439 701 
Q 1688 409 2113 409 
Q 2538 409 2786 701 
Q 3034 994 3034 1497 
Q 3034 2003 2786 2293 
Q 2538 2584 2113 2584 
z
M 3366 4563 
L 3366 3988 
Q 3128 4100 2886 4159 
Q 2644 4219 2406 4219 
Q 1781 4219 1451 3797 
Q 1122 3375 1075 2522 
Q 1259 2794 1537 2939 
Q 1816 3084 2150 3084 
Q 2853 3084 3261 2657 
Q 3669 2231 3669 1497 
Q 3669 778 3244 343 
Q 2819 -91 2113 -91 
Q 1303 -91 875 529 
Q 447 1150 447 2328 
Q 447 3434 972 4092 
Q 1497 4750 2381 4750 
Q 2619 4750 2861 4703 
Q 3103 4656 3366 4563 
z
" transform="scale(0.015625)"/>
       </defs>
       <use xlink:href="#DejaVuSans-36"/>
       <use xlink:href="#DejaVuSans-30" x="63.623047"/>
       <use xlink:href="#DejaVuSans-30" x="127.246094"/>
      </g>
     </g>
    </g>
    <g id="text_9">
     <!-- Ground Truth Energy -->
     <g transform="translate(317.257812 540.916563) scale(0.1 -0.1)">
      <defs>
       <path id="DejaVuSans-47" d="M 3809 666 
L 3809 1919 
L 2778 1919 
L 2778 2438 
L 4434 2438 
L 4434 434 
Q 4069 175 3628 42 
Q 3188 -91 2688 -91 
Q 1594 -91 976 548 
Q 359 1188 359 2328 
Q 359 3472 976 4111 
Q 1594 4750 2688 4750 
Q 3144 4750 3555 4637 
Q 3966 4525 4313 4306 
L 4313 3634 
Q 3963 3931 3569 4081 
Q 3175 4231 2741 4231 
Q 1884 4231 1454 3753 
Q 1025 3275 1025 2328 
Q 1025 1384 1454 906 
Q 1884 428 2741 428 
Q 3075 428 3337 486 
Q 3600 544 3809 666 
z
" transform="scale(0.015625)"/>
       <path id="DejaVuSans-72" d="M 2631 2963 
Q 2534 3019 2420 3045 
Q 2306 3072 2169 3072 
Q 1681 3072 1420 2755 
Q 1159 2438 1159 1844 
L 1159 0 
L 581 0 
L 581 3500 
L 1159 3500 
L 1159 2956 
Q 1341 3275 1631 3429 
Q 1922 3584 2338 3584 
Q 2397 3584 2469 3576 
Q 2541 3569 2628 3553 
L 2631 2963 
z
" transform="scale(0.015625)"/>
       <path id="DejaVuSans-6f" d="M 1959 3097 
Q 1497 3097 1228 2736 
Q 959 2375 959 1747 
Q 959 1119 1226 758 
Q 1494 397 1959 397 
Q 2419 397 2687 759 
Q 2956 1122 2956 1747 
Q 2956 2369 2687 2733 
Q 2419 3097 1959 3097 
z
M 1959 3584 
Q 2709 3584 3137 3096 
Q 3566 2609 3566 1747 
Q 3566 888 3137 398 
Q 2709 -91 1959 -91 
Q 1206 -91 779 398 
Q 353 888 353 1747 
Q 353 2609 779 3096 
Q 1206 3584 1959 3584 
z
" transform="scale(0.015625)"/>
       <path id="DejaVuSans-75" d="M 544 1381 
L 544 3500 
L 1119 3500 
L 1119 1403 
Q 1119 906 1312 657 
Q 1506 409 1894 409 
Q 2359 409 2629 706 
Q 2900 1003 2900 1516 
L 2900 3500 
L 3475 3500 
L 3475 0 
L 2900 0 
L 2900 538 
Q 2691 219 2414 64 
Q 2138 -91 1772 -91 
Q 1169 -91 856 284 
Q 544 659 544 1381 
z
M 1991 3584 
L 1991 3584 
z
" transform="scale(0.015625)"/>
       <path id="DejaVuSans-6e" d="M 3513 2113 
L 3513 0 
L 2938 0 
L 2938 2094 
Q 2938 2591 2744 2837 
Q 2550 3084 2163 3084 
Q 1697 3084 1428 2787 
Q 1159 2491 1159 1978 
L 1159 0 
L 581 0 
L 581 3500 
L 1159 3500 
L 1159 2956 
Q 1366 3272 1645 3428 
Q 1925 3584 2291 3584 
Q 2894 3584 3203 3211 
Q 3513 2838 3513 2113 
z
" transform="scale(0.015625)"/>
       <path id="DejaVuSans-64" d="M 2906 2969 
L 2906 4863 
L 3481 4863 
L 3481 0 
L 2906 0 
L 2906 525 
Q 2725 213 2448 61 
Q 2172 -91 1784 -91 
Q 1150 -91 751 415 
Q 353 922 353 1747 
Q 353 2572 751 3078 
Q 1150 3584 1784 3584 
Q 2172 3584 2448 3432 
Q 2725 3281 2906 2969 
z
M 947 1747 
Q 947 1113 1208 752 
Q 1469 391 1925 391 
Q 2381 391 2643 752 
Q 2906 1113 2906 1747 
Q 2906 2381 2643 2742 
Q 2381 3103 1925 3103 
Q 1469 3103 1208 2742 
Q 947 2381 947 1747 
z
" transform="scale(0.015625)"/>
       <path id="DejaVuSans-20" transform="scale(0.015625)"/>
       <path id="DejaVuSans-54" d="M -19 4666 
L 3928 4666 
L 3928 4134 
L 2272 4134 
L 2272 0 
L 1638 0 
L 1638 4134 
L -19 4134 
L -19 4666 
z
" transform="scale(0.015625)"/>
       <path id="DejaVuSans-74" d="M 1172 4494 
L 1172 3500 
L 2356 3500 
L 2356 3053 
L 1172 3053 
L 1172 1153 
Q 1172 725 1289 603 
Q 1406 481 1766 481 
L 2356 481 
L 2356 0 
L 1766 0 
Q 1100 0 847 248 
Q 594 497 594 1153 
L 594 3053 
L 172 3053 
L 172 3500 
L 594 3500 
L 594 4494 
L 1172 4494 
z
" transform="scale(0.015625)"/>
       <path id="DejaVuSans-68" d="M 3513 2113 
L 3513 0 
L 2938 0 
L 2938 2094 
Q 2938 2591 2744 2837 
Q 2550 3084 2163 3084 
Q 1697 3084 1428 2787 
Q 1159 2491 1159 1978 
L 1159 0 
L 581 0 
L 581 4863 
L 1159 4863 
L 1159 2956 
Q 1366 3272 1645 3428 
Q 1925 3584 2291 3584 
Q 2894 3584 3203 3211 
Q 3513 2838 3513 2113 
z
" transform="scale(0.015625)"/>
       <path id="DejaVuSans-45" d="M 628 4666 
L 3578 4666 
L 3578 4134 
L 1259 4134 
L 1259 2753 
L 3481 2753 
L 3481 2222 
L 1259 2222 
L 1259 531 
L 3634 531 
L 3634 0 
L 628 0 
L 628 4666 
z
" transform="scale(0.015625)"/>
       <path id="DejaVuSans-65" d="M 3597 1894 
L 3597 1613 
L 953 1613 
Q 991 1019 1311 708 
Q 1631 397 2203 397 
Q 2534 397 2845 478 
Q 3156 559 3463 722 
L 3463 178 
Q 3153 47 2828 -22 
Q 2503 -91 2169 -91 
Q 1331 -91 842 396 
Q 353 884 353 1716 
Q 353 2575 817 3079 
Q 1281 3584 2069 3584 
Q 2775 3584 3186 3129 
Q 3597 2675 3597 1894 
z
M 3022 2063 
Q 3016 2534 2758 2815 
Q 2500 3097 2075 3097 
Q 1594 3097 1305 2825 
Q 1016 2553 972 2059 
L 3022 2063 
z
" transform="scale(0.015625)"/>
       <path id="DejaVuSans-67" d="M 2906 1791 
Q 2906 2416 2648 2759 
Q 2391 3103 1925 3103 
Q 1463 3103 1205 2759 
Q 947 2416 947 1791 
Q 947 1169 1205 825 
Q 1463 481 1925 481 
Q 2391 481 2648 825 
Q 2906 1169 2906 1791 
z
M 3481 434 
Q 3481 -459 3084 -895 
Q 2688 -1331 1869 -1331 
Q 1566 -1331 1297 -1286 
Q 1028 -1241 775 -1147 
L 775 -588 
Q 1028 -725 1275 -790 
Q 1522 -856 1778 -856 
Q 2344 -856 2625 -561 
Q 2906 -266 2906 331 
L 2906 616 
Q 2728 306 2450 153 
Q 2172 0 1784 0 
Q 1141 0 747 490 
Q 353 981 353 1791 
Q 353 2603 747 3093 
Q 1141 3584 1784 3584 
Q 2172 3584 2450 3431 
Q 2728 3278 2906 2969 
L 2906 3500 
L 3481 3500 
L 3481 434 
z
" transform="scale(0.015625)"/>
       <path id="DejaVuSans-79" d="M 2059 -325 
Q 1816 -950 1584 -1140 
Q 1353 -1331 966 -1331 
L 506 -1331 
L 506 -850 
L 844 -850 
Q 1081 -850 1212 -737 
Q 1344 -625 1503 -206 
L 1606 56 
L 191 3500 
L 800 3500 
L 1894 763 
L 2988 3500 
L 3597 3500 
L 2059 -325 
z
" transform="scale(0.015625)"/>
      </defs>
      <use xlink:href="#DejaVuSans-47"/>
      <use xlink:href="#DejaVuSans-72" x="77.490234"/>
      <use xlink:href="#DejaVuSans-6f" x="116.353516"/>
      <use xlink:href="#DejaVuSans-75" x="177.535156"/>
      <use xlink:href="#DejaVuSans-6e" x="240.914062"/>
      <use xlink:href="#DejaVuSans-64" x="304.292969"/>
      <use xlink:href="#DejaVuSans-20" x="367.769531"/>
      <use xlink:href="#DejaVuSans-54" x="399.556641"/>
      <use xlink:href="#DejaVuSans-72" x="445.890625"/>
      <use xlink:href="#DejaVuSans-75" x="487.003906"/>
      <use xlink:href="#DejaVuSans-74" x="550.382812"/>
      <use xlink:href="#DejaVuSans-68" x="589.591797"/>
      <use xlink:href="#DejaVuSans-20" x="652.970703"/>
      <use xlink:href="#DejaVuSans-45" x="684.757812"/>
      <use xlink:href="#DejaVuSans-6e" x="747.941406"/>
      <use xlink:href="#DejaVuSans-65" x="811.320312"/>
      <use xlink:href="#DejaVuSans-72" x="872.84375"/>
      <use xlink:href="#DejaVuSans-67" x="912.207031"/>
      <use xlink:href="#DejaVuSans-79" x="975.683594"/>
     </g>
    </g>
   </g>
   <g id="matplotlib.axis_2">
    <g id="ytick_1">
     <g id="line2d_9">
      <defs>
       <path id="mf4bccd089d" d="M 0 0 
L -3.5 0 
" style="stroke: #000000; stroke-width: 0.8"/>
      </defs>
      <g>
       <use xlink:href="#mf4bccd089d" x="90" y="511.821564" style="stroke: #000000; stroke-width: 0.8"/>
      </g>
     </g>
     <g id="text_10">
      <!-- −100 -->
      <g transform="translate(55.532812 515.620782) scale(0.1 -0.1)">
       <use xlink:href="#DejaVuSans-2212"/>
       <use xlink:href="#DejaVuSans-31" x="83.789062"/>
       <use xlink:href="#DejaVuSans-30" x="147.412109"/>
       <use xlink:href="#DejaVuSans-30" x="211.035156"/>
      </g>
     </g>
    </g>
    <g id="ytick_2">
     <g id="line2d_10">
      <g>
       <use xlink:href="#mf4bccd089d" x="90" y="451.462991" style="stroke: #000000; stroke-width: 0.8"/>
      </g>
     </g>
     <g id="text_11">
      <!-- 0 -->
      <g transform="translate(76.6375 455.26221) scale(0.1 -0.1)">
       <use xlink:href="#DejaVuSans-30"/>
      </g>
     </g>
    </g>
    <g id="ytick_3">
     <g id="line2d_11">
      <g>
       <use xlink:href="#mf4bccd089d" x="90" y="391.104419" style="stroke: #000000; stroke-width: 0.8"/>
      </g>
     </g>
     <g id="text_12">
      <!-- 100 -->
      <g transform="translate(63.9125 394.903638) scale(0.1 -0.1)">
       <use xlink:href="#DejaVuSans-31"/>
       <use xlink:href="#DejaVuSans-30" x="63.623047"/>
       <use xlink:href="#DejaVuSans-30" x="127.246094"/>
      </g>
     </g>
    </g>
    <g id="ytick_4">
     <g id="line2d_12">
      <g>
       <use xlink:href="#mf4bccd089d" x="90" y="330.745847" style="stroke: #000000; stroke-width: 0.8"/>
      </g>
     </g>
     <g id="text_13">
      <!-- 200 -->
      <g transform="translate(63.9125 334.545065) scale(0.1 -0.1)">
       <use xlink:href="#DejaVuSans-32"/>
       <use xlink:href="#DejaVuSans-30" x="63.623047"/>
       <use xlink:href="#DejaVuSans-30" x="127.246094"/>
      </g>
     </g>
    </g>
    <g id="ytick_5">
     <g id="line2d_13">
      <g>
       <use xlink:href="#mf4bccd089d" x="90" y="270.387274" style="stroke: #000000; stroke-width: 0.8"/>
      </g>
     </g>
     <g id="text_14">
      <!-- 300 -->
      <g transform="translate(63.9125 274.186493) scale(0.1 -0.1)">
       <use xlink:href="#DejaVuSans-33"/>
       <use xlink:href="#DejaVuSans-30" x="63.623047"/>
       <use xlink:href="#DejaVuSans-30" x="127.246094"/>
      </g>
     </g>
    </g>
    <g id="ytick_6">
     <g id="line2d_14">
      <g>
       <use xlink:href="#mf4bccd089d" x="90" y="210.028702" style="stroke: #000000; stroke-width: 0.8"/>
      </g>
     </g>
     <g id="text_15">
      <!-- 400 -->
      <g transform="translate(63.9125 213.827921) scale(0.1 -0.1)">
       <use xlink:href="#DejaVuSans-34"/>
       <use xlink:href="#DejaVuSans-30" x="63.623047"/>
       <use xlink:href="#DejaVuSans-30" x="127.246094"/>
      </g>
     </g>
    </g>
    <g id="ytick_7">
     <g id="line2d_15">
      <g>
       <use xlink:href="#mf4bccd089d" x="90" y="149.670129" style="stroke: #000000; stroke-width: 0.8"/>
      </g>
     </g>
     <g id="text_16">
      <!-- 500 -->
      <g transform="translate(63.9125 153.469348) scale(0.1 -0.1)">
       <use xlink:href="#DejaVuSans-35"/>
       <use xlink:href="#DejaVuSans-30" x="63.623047"/>
       <use xlink:href="#DejaVuSans-30" x="127.246094"/>
      </g>
     </g>
    </g>
    <g id="ytick_8">
     <g id="line2d_16">
      <g>
       <use xlink:href="#mf4bccd089d" x="90" y="89.311557" style="stroke: #000000; stroke-width: 0.8"/>
      </g>
     </g>
     <g id="text_17">
      <!-- 600 -->
      <g transform="translate(63.9125 93.110776) scale(0.1 -0.1)">
       <use xlink:href="#DejaVuSans-36"/>
       <use xlink:href="#DejaVuSans-30" x="63.623047"/>
       <use xlink:href="#DejaVuSans-30" x="127.246094"/>
      </g>
     </g>
    </g>
    <g id="text_18">
     <!-- Predicted Energy -->
     <g transform="translate(49.453125 333.445625) rotate(-90) scale(0.1 -0.1)">
      <defs>
       <path id="DejaVuSans-50" d="M 1259 4147 
L 1259 2394 
L 2053 2394 
Q 2494 2394 2734 2622 
Q 2975 2850 2975 3272 
Q 2975 3691 2734 3919 
Q 2494 4147 2053 4147 
L 1259 4147 
z
M 628 4666 
L 2053 4666 
Q 2838 4666 3239 4311 
Q 3641 3956 3641 3272 
Q 3641 2581 3239 2228 
Q 2838 1875 2053 1875 
L 1259 1875 
L 1259 0 
L 628 0 
L 628 4666 
z
" transform="scale(0.015625)"/>
       <path id="DejaVuSans-69" d="M 603 3500 
L 1178 3500 
L 1178 0 
L 603 0 
L 603 3500 
z
M 603 4863 
L 1178 4863 
L 1178 4134 
L 603 4134 
L 603 4863 
z
" transform="scale(0.015625)"/>
       <path id="DejaVuSans-63" d="M 3122 3366 
L 3122 2828 
Q 2878 2963 2633 3030 
Q 2388 3097 2138 3097 
Q 1578 3097 1268 2742 
Q 959 2388 959 1747 
Q 959 1106 1268 751 
Q 1578 397 2138 397 
Q 2388 397 2633 464 
Q 2878 531 3122 666 
L 3122 134 
Q 2881 22 2623 -34 
Q 2366 -91 2075 -91 
Q 1284 -91 818 406 
Q 353 903 353 1747 
Q 353 2603 823 3093 
Q 1294 3584 2113 3584 
Q 2378 3584 2631 3529 
Q 2884 3475 3122 3366 
z
" transform="scale(0.015625)"/>
      </defs>
      <use xlink:href="#DejaVuSans-50"/>
      <use xlink:href="#DejaVuSans-72" x="58.552734"/>
      <use xlink:href="#DejaVuSans-65" x="97.416016"/>
      <use xlink:href="#DejaVuSans-64" x="158.939453"/>
      <use xlink:href="#DejaVuSans-69" x="222.416016"/>
      <use xlink:href="#DejaVuSans-63" x="250.199219"/>
      <use xlink:href="#DejaVuSans-74" x="305.179688"/>
      <use xlink:href="#DejaVuSans-65" x="344.388672"/>
      <use xlink:href="#DejaVuSans-64" x="405.912109"/>
      <use xlink:href="#DejaVuSans-20" x="469.388672"/>
      <use xlink:href="#DejaVuSans-45" x="501.175781"/>
      <use xlink:href="#DejaVuSans-6e" x="564.359375"/>
      <use xlink:href="#DejaVuSans-65" x="627.738281"/>
      <use xlink:href="#DejaVuSans-72" x="689.261719"/>
      <use xlink:href="#DejaVuSans-67" x="728.625"/>
      <use xlink:href="#DejaVuSans-79" x="792.101562"/>
     </g>
    </g>
   </g>
   <g id="line2d_17">
    <path d="M 142.080601 474.43779 
L 595.919399 111.650749 
" clip-path="url(#pf9da7eae1c)" style="fill: none; stroke-dasharray: 5.55,2.4; stroke-dashoffset: 0; stroke: #ff0000; stroke-width: 1.5"/>
   </g>
   <g id="patch_3">
    <path d="M 90 512.64 
L 90 69.12 
" style="fill: none; stroke: #000000; stroke-width: 0.8; stroke-linejoin: miter; stroke-linecap: square"/>
   </g>
   <g id="patch_4">
    <path d="M 648 512.64 
L 648 69.12 
" style="fill: none; stroke: #000000; stroke-width: 0.8; stroke-linejoin: miter; stroke-linecap: square"/>
   </g>
   <g id="patch_5">
    <path d="M 90 512.64 
L 648 512.64 
" style="fill: none; stroke: #000000; stroke-width: 0.8; stroke-linejoin: miter; stroke-linecap: square"/>
   </g>
   <g id="patch_6">
    <path d="M 90 69.12 
L 648 69.12 
" style="fill: none; stroke: #000000; stroke-width: 0.8; stroke-linejoin: miter; stroke-linecap: square"/>
   </g>
   <g id="text_19">
    <!-- Energy R2 Score: 0.9923391022039795 -->
    <g transform="translate(145.8 113.472) scale(0.1 -0.1)">
     <defs>
      <path id="DejaVuSans-52" d="M 2841 2188 
Q 3044 2119 3236 1894 
Q 3428 1669 3622 1275 
L 4263 0 
L 3584 0 
L 2988 1197 
Q 2756 1666 2539 1819 
Q 2322 1972 1947 1972 
L 1259 1972 
L 1259 0 
L 628 0 
L 628 4666 
L 2053 4666 
Q 2853 4666 3247 4331 
Q 3641 3997 3641 3322 
Q 3641 2881 3436 2590 
Q 3231 2300 2841 2188 
z
M 1259 4147 
L 1259 2491 
L 2053 2491 
Q 2509 2491 2742 2702 
Q 2975 2913 2975 3322 
Q 2975 3731 2742 3939 
Q 2509 4147 2053 4147 
L 1259 4147 
z
" transform="scale(0.015625)"/>
      <path id="DejaVuSans-53" d="M 3425 4513 
L 3425 3897 
Q 3066 4069 2747 4153 
Q 2428 4238 2131 4238 
Q 1616 4238 1336 4038 
Q 1056 3838 1056 3469 
Q 1056 3159 1242 3001 
Q 1428 2844 1947 2747 
L 2328 2669 
Q 3034 2534 3370 2195 
Q 3706 1856 3706 1288 
Q 3706 609 3251 259 
Q 2797 -91 1919 -91 
Q 1588 -91 1214 -16 
Q 841 59 441 206 
L 441 856 
Q 825 641 1194 531 
Q 1563 422 1919 422 
Q 2459 422 2753 634 
Q 3047 847 3047 1241 
Q 3047 1584 2836 1778 
Q 2625 1972 2144 2069 
L 1759 2144 
Q 1053 2284 737 2584 
Q 422 2884 422 3419 
Q 422 4038 858 4394 
Q 1294 4750 2059 4750 
Q 2388 4750 2728 4690 
Q 3069 4631 3425 4513 
z
" transform="scale(0.015625)"/>
      <path id="DejaVuSans-3a" d="M 750 794 
L 1409 794 
L 1409 0 
L 750 0 
L 750 794 
z
M 750 3309 
L 1409 3309 
L 1409 2516 
L 750 2516 
L 750 3309 
z
" transform="scale(0.015625)"/>
      <path id="DejaVuSans-2e" d="M 684 794 
L 1344 794 
L 1344 0 
L 684 0 
L 684 794 
z
" transform="scale(0.015625)"/>
      <path id="DejaVuSans-39" d="M 703 97 
L 703 672 
Q 941 559 1184 500 
Q 1428 441 1663 441 
Q 2288 441 2617 861 
Q 2947 1281 2994 2138 
Q 2813 1869 2534 1725 
Q 2256 1581 1919 1581 
Q 1219 1581 811 2004 
Q 403 2428 403 3163 
Q 403 3881 828 4315 
Q 1253 4750 1959 4750 
Q 2769 4750 3195 4129 
Q 3622 3509 3622 2328 
Q 3622 1225 3098 567 
Q 2575 -91 1691 -91 
Q 1453 -91 1209 -44 
Q 966 3 703 97 
z
M 1959 2075 
Q 2384 2075 2632 2365 
Q 2881 2656 2881 3163 
Q 2881 3666 2632 3958 
Q 2384 4250 1959 4250 
Q 1534 4250 1286 3958 
Q 1038 3666 1038 3163 
Q 1038 2656 1286 2365 
Q 1534 2075 1959 2075 
z
" transform="scale(0.015625)"/>
      <path id="DejaVuSans-37" d="M 525 4666 
L 3525 4666 
L 3525 4397 
L 1831 0 
L 1172 0 
L 2766 4134 
L 525 4134 
L 525 4666 
z
" transform="scale(0.015625)"/>
     </defs>
     <use xlink:href="#DejaVuSans-45"/>
     <use xlink:href="#DejaVuSans-6e" x="63.183594"/>
     <use xlink:href="#DejaVuSans-65" x="126.5625"/>
     <use xlink:href="#DejaVuSans-72" x="188.085938"/>
     <use xlink:href="#DejaVuSans-67" x="227.449219"/>
     <use xlink:href="#DejaVuSans-79" x="290.925781"/>
     <use xlink:href="#DejaVuSans-20" x="350.105469"/>
     <use xlink:href="#DejaVuSans-52" x="381.892578"/>
     <use xlink:href="#DejaVuSans-32" x="451.375"/>
     <use xlink:href="#DejaVuSans-20" x="514.998047"/>
     <use xlink:href="#DejaVuSans-53" x="546.785156"/>
     <use xlink:href="#DejaVuSans-63" x="610.261719"/>
     <use xlink:href="#DejaVuSans-6f" x="665.242188"/>
     <use xlink:href="#DejaVuSans-72" x="726.423828"/>
     <use xlink:href="#DejaVuSans-65" x="765.287109"/>
     <use xlink:href="#DejaVuSans-3a" x="826.810547"/>
     <use xlink:href="#DejaVuSans-20" x="860.501953"/>
     <use xlink:href="#DejaVuSans-30" x="892.289062"/>
     <use xlink:href="#DejaVuSans-2e" x="955.912109"/>
     <use xlink:href="#DejaVuSans-39" x="987.699219"/>
     <use xlink:href="#DejaVuSans-39" x="1051.322266"/>
     <use xlink:href="#DejaVuSans-32" x="1114.945312"/>
     <use xlink:href="#DejaVuSans-33" x="1178.568359"/>
     <use xlink:href="#DejaVuSans-33" x="1242.191406"/>
     <use xlink:href="#DejaVuSans-39" x="1305.814453"/>
     <use xlink:href="#DejaVuSans-31" x="1369.4375"/>
     <use xlink:href="#DejaVuSans-30" x="1433.060547"/>
     <use xlink:href="#DejaVuSans-32" x="1496.683594"/>
     <use xlink:href="#DejaVuSans-32" x="1560.306641"/>
     <use xlink:href="#DejaVuSans-30" x="1623.929688"/>
     <use xlink:href="#DejaVuSans-33" x="1687.552734"/>
     <use xlink:href="#DejaVuSans-39" x="1751.175781"/>
     <use xlink:href="#DejaVuSans-37" x="1814.798828"/>
     <use xlink:href="#DejaVuSans-39" x="1878.421875"/>
     <use xlink:href="#DejaVuSans-35" x="1942.044922"/>
    </g>
   </g>
   <g id="text_20">
    <!-- MVE In Distribution -->
    <g transform="translate(311.53875 63.12) scale(0.12 -0.12)">
     <defs>
      <path id="DejaVuSans-4d" d="M 628 4666 
L 1569 4666 
L 2759 1491 
L 3956 4666 
L 4897 4666 
L 4897 0 
L 4281 0 
L 4281 4097 
L 3078 897 
L 2444 897 
L 1241 4097 
L 1241 0 
L 628 0 
L 628 4666 
z
" transform="scale(0.015625)"/>
      <path id="DejaVuSans-56" d="M 1831 0 
L 50 4666 
L 709 4666 
L 2188 738 
L 3669 4666 
L 4325 4666 
L 2547 0 
L 1831 0 
z
" transform="scale(0.015625)"/>
      <path id="DejaVuSans-49" d="M 628 4666 
L 1259 4666 
L 1259 0 
L 628 0 
L 628 4666 
z
" transform="scale(0.015625)"/>
      <path id="DejaVuSans-44" d="M 1259 4147 
L 1259 519 
L 2022 519 
Q 2988 519 3436 956 
Q 3884 1394 3884 2338 
Q 3884 3275 3436 3711 
Q 2988 4147 2022 4147 
L 1259 4147 
z
M 628 4666 
L 1925 4666 
Q 3281 4666 3915 4102 
Q 4550 3538 4550 2338 
Q 4550 1131 3912 565 
Q 3275 0 1925 0 
L 628 0 
L 628 4666 
z
" transform="scale(0.015625)"/>
      <path id="DejaVuSans-73" d="M 2834 3397 
L 2834 2853 
Q 2591 2978 2328 3040 
Q 2066 3103 1784 3103 
Q 1356 3103 1142 2972 
Q 928 2841 928 2578 
Q 928 2378 1081 2264 
Q 1234 2150 1697 2047 
L 1894 2003 
Q 2506 1872 2764 1633 
Q 3022 1394 3022 966 
Q 3022 478 2636 193 
Q 2250 -91 1575 -91 
Q 1294 -91 989 -36 
Q 684 19 347 128 
L 347 722 
Q 666 556 975 473 
Q 1284 391 1588 391 
Q 1994 391 2212 530 
Q 2431 669 2431 922 
Q 2431 1156 2273 1281 
Q 2116 1406 1581 1522 
L 1381 1569 
Q 847 1681 609 1914 
Q 372 2147 372 2553 
Q 372 3047 722 3315 
Q 1072 3584 1716 3584 
Q 2034 3584 2315 3537 
Q 2597 3491 2834 3397 
z
" transform="scale(0.015625)"/>
      <path id="DejaVuSans-62" d="M 3116 1747 
Q 3116 2381 2855 2742 
Q 2594 3103 2138 3103 
Q 1681 3103 1420 2742 
Q 1159 2381 1159 1747 
Q 1159 1113 1420 752 
Q 1681 391 2138 391 
Q 2594 391 2855 752 
Q 3116 1113 3116 1747 
z
M 1159 2969 
Q 1341 3281 1617 3432 
Q 1894 3584 2278 3584 
Q 2916 3584 3314 3078 
Q 3713 2572 3713 1747 
Q 3713 922 3314 415 
Q 2916 -91 2278 -91 
Q 1894 -91 1617 61 
Q 1341 213 1159 525 
L 1159 0 
L 581 0 
L 581 4863 
L 1159 4863 
L 1159 2969 
z
" transform="scale(0.015625)"/>
     </defs>
     <use xlink:href="#DejaVuSans-4d"/>
     <use xlink:href="#DejaVuSans-56" x="86.279297"/>
     <use xlink:href="#DejaVuSans-45" x="154.6875"/>
     <use xlink:href="#DejaVuSans-20" x="217.871094"/>
     <use xlink:href="#DejaVuSans-49" x="249.658203"/>
     <use xlink:href="#DejaVuSans-6e" x="279.150391"/>
     <use xlink:href="#DejaVuSans-20" x="342.529297"/>
     <use xlink:href="#DejaVuSans-44" x="374.316406"/>
     <use xlink:href="#DejaVuSans-69" x="451.318359"/>
     <use xlink:href="#DejaVuSans-73" x="479.101562"/>
     <use xlink:href="#DejaVuSans-74" x="531.201172"/>
     <use xlink:href="#DejaVuSans-72" x="570.410156"/>
     <use xlink:href="#DejaVuSans-69" x="611.523438"/>
     <use xlink:href="#DejaVuSans-62" x="639.306641"/>
     <use xlink:href="#DejaVuSans-75" x="702.783203"/>
     <use xlink:href="#DejaVuSans-74" x="766.162109"/>
     <use xlink:href="#DejaVuSans-69" x="805.371094"/>
     <use xlink:href="#DejaVuSans-6f" x="833.154297"/>
     <use xlink:href="#DejaVuSans-6e" x="894.335938"/>
    </g>
   </g>
  </g>
 </g>
 <defs>
  <clipPath id="pf9da7eae1c">
   <rect x="90" y="69.12" width="558" height="443.52"/>
  </clipPath>
 </defs>
</svg>
