<?xml version="1.0" encoding="utf-8" standalone="no"?>
<!DOCTYPE svg PUBLIC "-//W3C//DTD SVG 1.1//EN"
  "http://www.w3.org/Graphics/SVG/1.1/DTD/svg11.dtd">
<svg xmlns:xlink="http://www.w3.org/1999/xlink" width="720pt" height="576pt" viewBox="0 0 720 576" xmlns="http://www.w3.org/2000/svg" version="1.1">
 <metadata>
  <rdf:RDF xmlns:dc="http://purl.org/dc/elements/1.1/" xmlns:cc="http://creativecommons.org/ns#" xmlns:rdf="http://www.w3.org/1999/02/22-rdf-syntax-ns#">
   <cc:Work>
    <dc:type rdf:resource="http://purl.org/dc/dcmitype/StillImage"/>
    <dc:date>2024-12-07T09:45:15.543635</dc:date>
    <dc:format>image/svg+xml</dc:format>
    <dc:creator>
     <cc:Agent>
      <dc:title>Matplotlib v3.8.4, https://matplotlib.org/</dc:title>
     </cc:Agent>
    </dc:creator>
   </cc:Work>
  </rdf:RDF>
 </metadata>
 <defs>
  <style type="text/css">*{stroke-linejoin: round; stroke-linecap: butt}</style>
 </defs>
 <g id="figure_1">
  <g id="patch_1">
   <path d="M 0 576 
L 720 576 
L 720 0 
L 0 0 
z
" style="fill: #ffffff"/>
  </g>
  <g id="axes_1">
   <g id="patch_2">
    <path d="M 83.72 499.48 
L 696.24 499.48 
L 696.24 23.76 
L 83.72 23.76 
z
" style="fill: #ffffff"/>
   </g>
   <g id="QuadContourSet_1">
    <path d="M 185.879259 488.337909 
L 187.526118 488.967138 
L 189.172976 489.484616 
L 190.819835 489.880876 
L 192.466694 490.160359 
L 194.113552 490.334767 
L 195.760411 490.418809 
L 197.407269 490.427633 
L 199.054128 490.37527 
L 200.700987 490.273764 
L 202.347845 490.133051 
L 203.994704 489.961741 
L 205.641562 489.768752 
L 207.288421 489.565237 
L 208.93528 489.365887 
L 210.582138 489.18878 
L 212.228997 489.053586 
L 213.875855 488.978836 
L 215.522714 488.979394 
L 217.169573 489.064751 
L 218.816431 489.237393 
L 220.46329 489.489667 
L 222.110148 489.79898 
L 223.757007 490.124528 
L 225.403866 490.410295 
L 227.050724 490.594865 
L 228.697583 490.621786 
L 230.344441 490.443491 
L 231.9913 490.018072 
L 233.638159 489.303845 
L 235.285017 488.257428 
L 235.55037 488.044741 
L 236.931876 486.995903 
L 238.578735 485.445513 
L 238.68977 485.333068 
L 240.225593 483.889675 
L 241.52961 482.621394 
L 241.872452 482.323627 
L 243.51931 481.031513 
L 245.153993 479.909721 
L 245.166169 479.90256 
L 246.813028 479.136689 
L 248.459886 478.504357 
L 250.106745 477.930496 
L 251.753603 477.312425 
L 252.008379 477.198047 
L 253.400462 476.630334 
L 255.047321 475.713824 
L 256.628986 474.486374 
L 256.694179 474.436661 
L 258.341038 472.86326 
L 259.243849 471.7747 
L 259.987896 470.831193 
L 261.197031 469.063026 
L 261.634755 468.369191 
L 262.840003 466.351353 
L 263.281614 465.539954 
L 264.337924 463.639679 
L 264.928472 462.476583 
L 265.778506 460.928006 
L 266.575331 459.349928 
L 267.213059 458.216332 
L 268.222189 456.267831 
L 268.662828 455.504659 
L 269.869048 453.217121 
L 270.113816 452.792985 
L 271.515907 450.112302 
L 271.53336 450.081312 
L 272.960656 447.369638 
L 273.162765 446.9558 
L 274.387179 444.657965 
L 274.809624 443.831043 
L 275.873105 441.946291 
L 276.456482 440.902475 
L 277.477599 439.234617 
L 278.103341 438.208295 
L 279.179241 436.522944 
L 279.7502 435.597019 
L 280.825733 433.81127 
L 281.397058 432.769616 
L 282.243502 431.099597 
L 283.043917 429.228419 
L 283.37119 428.387923 
L 284.261105 425.67625 
L 284.690775 424.022144 
L 284.9527 422.964576 
L 285.499838 420.252903 
L 285.906847 417.541229 
L 286.204191 414.829555 
L 286.337634 413.145842 
L 286.423946 412.117882 
L 286.587401 409.406208 
L 286.704442 406.694535 
L 286.786364 403.982861 
L 286.831189 401.271188 
L 286.824394 398.559514 
L 286.744565 395.847841 
L 286.573741 393.136167 
L 286.337634 390.694266 
L 286.31358 390.424494 
L 286.026339 387.71282 
L 285.712294 385.001146 
L 285.405808 382.289473 
L 285.134146 379.577799 
L 284.908427 376.866126 
L 284.71836 374.154452 
L 284.690775 373.737522 
L 284.541257 371.442779 
L 284.313065 368.731105 
L 283.968434 366.019432 
L 283.440462 363.307758 
L 283.043917 361.87007 
L 282.685133 360.596085 
L 281.687409 357.884411 
L 281.397058 357.234725 
L 280.568239 355.172737 
L 279.7502 353.388306 
L 279.402516 352.461064 
L 278.261797 349.74939 
L 278.103341 349.408272 
L 277.182484 347.037717 
L 276.456482 345.384457 
L 276.043982 344.326043 
L 274.881184 341.61437 
L 274.809624 341.448914 
L 273.771434 338.902696 
L 273.162765 337.398343 
L 272.684403 336.191023 
L 271.647726 333.479349 
L 271.515907 333.123829 
L 270.636012 330.767675 
L 269.869048 328.796786 
L 269.57356 328.056002 
L 268.45348 325.344328 
L 268.222189 324.792345 
L 267.327351 322.632655 
L 266.575331 320.70014 
L 266.286885 319.920981 
L 265.44511 317.209308 
L 264.928472 314.992662 
L 264.820604 314.497634 
L 264.449905 311.785961 
L 264.291479 309.074287 
L 264.323158 306.362614 
L 264.499832 303.65094 
L 264.746913 300.939266 
L 264.928472 298.568437 
L 264.957354 298.227593 
L 264.989848 295.515919 
L 264.928472 294.913138 
L 264.679088 292.804246 
L 263.805425 290.092572 
L 263.281614 289.171293 
L 261.634755 287.522581 
L 261.185386 287.380899 
L 259.987896 287.101807 
L 258.341038 287.325348 
L 258.197492 287.380899 
L 256.694179 287.946005 
L 255.047321 288.726055 
L 253.400462 289.537778 
L 252.228971 290.092572 
L 251.753603 290.320468 
L 250.106745 291.023679 
L 248.459886 291.610069 
L 246.813028 292.069004 
L 245.166169 292.383693 
L 243.51931 292.532461 
L 241.872452 292.501899 
L 240.225593 292.31792 
L 238.578735 292.08921 
L 236.931876 292.018181 
L 235.285017 292.303135 
L 234.017709 292.804246 
L 233.638159 292.937129 
L 231.9913 293.631894 
L 230.344441 294.12172 
L 228.697583 294.122009 
L 227.050724 293.515637 
L 226.067187 292.804246 
L 225.403866 292.317846 
L 223.757007 290.615373 
L 223.323176 290.092572 
L 222.110148 288.548478 
L 221.241785 287.380899 
L 220.46329 286.290362 
L 219.280031 284.669225 
L 218.816431 284.047062 
L 217.169573 282.069022 
L 217.052343 281.957552 
L 215.522714 280.635434 
L 213.875855 279.670793 
L 212.228997 279.245878 
L 210.582138 279.424962 
L 208.93528 280.209371 
L 207.288421 281.522091 
L 206.866031 281.957552 
L 205.641562 283.654769 
L 204.985468 284.669225 
L 203.994704 286.541929 
L 203.553348 287.380899 
L 202.347845 289.532858 
L 202.019264 290.092572 
L 200.700987 291.785162 
L 199.880622 292.804246 
L 199.054128 293.551983 
L 197.407269 295.167931 
L 197.098528 295.515919 
L 195.760411 296.766452 
L 194.449362 298.227593 
L 194.113552 298.570273 
L 192.466694 300.632666 
L 192.258496 300.939266 
L 190.819835 303.158255 
L 190.543656 303.65094 
L 189.212886 306.362614 
L 189.172976 306.461406 
L 188.207378 309.074287 
L 187.526118 311.534745 
L 187.459159 311.785961 
L 186.915214 314.497634 
L 186.494236 317.209308 
L 186.084344 319.920981 
L 185.879259 320.950167 
L 185.53288 322.632655 
L 184.690062 325.344328 
L 184.232401 326.34367 
L 183.417297 328.056002 
L 182.585542 329.336345 
L 181.614302 330.767675 
L 180.938683 331.558632 
L 179.291825 333.396011 
L 179.21149 333.479349 
L 177.644966 334.877596 
L 176.1417 336.191023 
L 175.998108 336.305813 
L 174.351249 337.611844 
L 172.872405 338.902696 
L 172.70439 339.044748 
L 171.057532 340.595162 
L 170.147443 341.61437 
L 169.410673 342.447984 
L 168.010673 344.326043 
L 167.763815 344.664555 
L 166.252705 347.037717 
L 166.116956 347.25729 
L 164.71246 349.74939 
L 164.470097 350.198577 
L 163.306566 352.461064 
L 162.823239 353.468703 
L 162.009545 355.172737 
L 161.17638 357.114193 
L 160.833497 357.884411 
L 159.759548 360.596085 
L 159.529522 361.266084 
L 158.767933 363.307758 
L 157.954645 366.019432 
L 157.882663 366.302797 
L 157.178628 368.731105 
L 156.556902 371.442779 
L 156.235804 373.12228 
L 156.001933 374.154452 
L 155.440667 376.866126 
L 154.877622 379.577799 
L 154.588946 380.77543 
L 154.155094 382.289473 
L 153.206598 385.001146 
L 152.942087 385.61338 
L 151.932326 387.71282 
L 151.295229 388.867394 
L 150.400743 390.424494 
L 149.64837 391.668076 
L 148.774256 393.136167 
L 148.001511 394.497932 
L 147.266696 395.847841 
L 146.354653 397.813865 
L 146.020224 398.559514 
L 145.071543 401.271188 
L 144.707794 402.816031 
L 144.42613 403.982861 
L 144.046741 406.694535 
L 143.919494 409.406208 
L 144.003138 412.117882 
L 144.261405 414.829555 
L 144.657894 417.541229 
L 144.707794 417.825821 
L 145.069046 420.252903 
L 145.496173 422.964576 
L 145.919897 425.67625 
L 146.331968 428.387923 
L 146.354653 428.539963 
L 146.66692 431.099597 
L 147.016751 433.81127 
L 147.396149 436.522944 
L 147.797457 439.234617 
L 148.001511 440.658657 
L 148.165981 441.946291 
L 148.471259 444.657965 
L 148.725416 447.369638 
L 148.942952 450.081312 
L 149.171496 452.792985 
L 149.480254 455.504659 
L 149.64837 456.512744 
L 149.912502 458.216332 
L 150.541249 460.928006 
L 151.295229 463.180267 
L 151.449729 463.639679 
L 152.623024 466.351353 
L 152.942087 466.964023 
L 154.088989 469.063026 
L 154.588946 469.881715 
L 155.80827 471.7747 
L 156.235804 472.408281 
L 157.703649 474.486374 
L 157.882663 474.73693 
L 159.529522 476.964767 
L 159.70914 477.198047 
L 161.17638 479.087364 
L 161.879726 479.909721 
L 162.823239 481.001827 
L 164.470097 482.593404 
L 164.505088 482.621394 
L 166.116956 483.91689 
L 167.763815 484.824757 
L 169.259295 485.333068 
L 169.410673 485.388398 
L 171.057532 485.73006 
L 172.70439 485.867542 
L 174.351249 485.905607 
L 175.998108 485.944799 
L 177.644966 486.067897 
L 179.291825 486.323248 
L 180.938683 486.714412 
L 182.585542 487.205261 
L 184.232401 487.739227 
L 185.172009 488.044741 
z
M 187.505894 477.198047 
L 185.879259 476.652365 
L 184.232401 476.004158 
L 182.585542 475.275406 
L 180.947969 474.486374 
L 180.938683 474.482065 
L 179.291825 473.716728 
L 177.644966 472.883628 
L 175.998108 471.947828 
L 175.712251 471.7747 
L 174.351249 470.897353 
L 172.70439 469.603071 
L 172.114384 469.063026 
L 171.057532 468.00011 
L 169.671769 466.351353 
L 169.410673 466.014151 
L 167.763815 463.680666 
L 167.736159 463.639679 
L 166.116956 461.073366 
L 166.027755 460.928006 
L 164.518393 458.216332 
L 164.470097 458.115881 
L 163.24403 455.504659 
L 162.823239 454.343845 
L 162.272283 452.792985 
L 161.562462 450.081312 
L 161.17638 448.053132 
L 161.042782 447.369638 
L 160.592779 444.657965 
L 160.171975 441.946291 
L 159.721341 439.234617 
L 159.529522 438.22048 
L 159.182261 436.522944 
L 158.586316 433.81127 
L 158.003072 431.099597 
L 157.882663 430.492452 
L 157.460962 428.387923 
L 157.018496 425.67625 
L 156.689893 422.964576 
L 156.473804 420.252903 
L 156.375005 417.541229 
L 156.412867 414.829555 
L 156.624395 412.117882 
L 157.063268 409.406208 
L 157.795101 406.694535 
L 157.882663 406.45465 
L 158.796395 403.982861 
L 159.529522 402.424173 
L 160.08229 401.271188 
L 161.17638 399.21903 
L 161.52965 398.559514 
L 162.823239 396.116834 
L 162.96214 395.847841 
L 164.194206 393.136167 
L 164.470097 392.387177 
L 165.143309 390.424494 
L 165.826681 387.71282 
L 166.116956 386.021217 
L 166.281237 385.001146 
L 166.58556 382.289473 
L 166.843602 379.577799 
L 167.142448 376.866126 
L 167.561526 374.154452 
L 167.763815 373.228264 
L 168.178275 371.442779 
L 169.058888 368.731105 
L 169.410673 367.889095 
L 170.310226 366.019432 
L 171.057532 364.738263 
L 172.059073 363.307758 
L 172.70439 362.481436 
L 174.351249 360.734531 
L 174.502931 360.596085 
L 175.998108 359.261077 
L 177.644966 357.96246 
L 177.749843 357.884411 
L 179.291825 356.693963 
L 180.938683 355.47449 
L 181.359332 355.172737 
L 182.585542 354.234245 
L 184.232401 353.035877 
L 185.088515 352.461064 
L 185.879259 351.891022 
L 187.526118 350.825456 
L 189.172976 349.891984 
L 189.45597 349.74939 
L 190.819835 349.007886 
L 192.466694 348.168606 
L 194.113552 347.328022 
L 194.632138 347.037717 
L 195.760411 346.339715 
L 197.407269 345.186986 
L 198.51443 344.326043 
L 199.054128 343.846312 
L 200.700987 342.247681 
L 201.332304 341.61437 
L 202.347845 340.414766 
L 203.670479 338.902696 
L 203.994704 338.452164 
L 205.641562 336.326213 
L 205.756798 336.191023 
L 207.288421 334.017425 
L 207.733541 333.479349 
L 208.93528 331.768232 
L 209.816234 330.767675 
L 210.582138 329.812105 
L 212.228997 328.3405 
L 212.731993 328.056002 
L 213.875855 327.403454 
L 215.522714 327.016362 
L 217.169573 327.082502 
L 218.816431 327.455288 
L 220.46329 327.976838 
L 220.704027 328.056002 
L 222.110148 328.470409 
L 223.757007 328.837715 
L 225.403866 329.016671 
L 227.050724 329.007319 
L 228.697583 328.863524 
L 230.344441 328.672944 
L 231.9913 328.540065 
L 233.638159 328.573321 
L 235.285017 328.87216 
L 236.931876 329.51232 
L 238.578735 330.535235 
L 238.871984 330.767675 
L 240.225593 332.01131 
L 241.544408 333.479349 
L 241.872452 333.864145 
L 243.51931 335.891976 
L 243.754306 336.191023 
L 245.166169 337.725593 
L 246.259163 338.902696 
L 246.813028 339.384058 
L 248.459886 340.834409 
L 249.3121 341.61437 
L 250.106745 342.22841 
L 251.753603 343.568334 
L 252.646011 344.326043 
L 253.400462 344.906411 
L 255.047321 346.221747 
L 256.023855 347.037717 
L 256.694179 347.581861 
L 258.341038 349.029013 
L 259.071026 349.74939 
L 259.987896 350.733496 
L 261.337671 352.461064 
L 261.634755 352.935614 
L 262.805439 355.172737 
L 263.281614 356.537324 
L 263.691768 357.884411 
L 264.1665 360.596085 
L 264.379755 363.307758 
L 264.454382 366.019432 
L 264.513453 368.731105 
L 264.677001 371.442779 
L 264.928472 373.310225 
L 265.045655 374.154452 
L 265.663033 376.866126 
L 266.483251 379.577799 
L 266.575331 379.837765 
L 267.407165 382.289473 
L 268.222189 384.699182 
L 268.321066 385.001146 
L 269.167085 387.71282 
L 269.869048 390.424494 
L 269.869048 390.424494 
L 270.430137 393.136167 
L 270.7881 395.847841 
L 270.938335 398.559514 
L 270.88732 401.271188 
L 270.645613 403.982861 
L 270.220303 406.694535 
L 269.869048 408.302167 
L 269.65042 409.406208 
L 268.990629 412.117882 
L 268.222189 414.737277 
L 268.197658 414.829555 
L 267.440818 417.541229 
L 266.61301 420.252903 
L 266.575331 420.379122 
L 265.883502 422.964576 
L 265.136263 425.67625 
L 264.928472 426.439614 
L 264.443936 428.387923 
L 263.730759 431.099597 
L 263.281614 432.670808 
L 262.973738 433.81127 
L 262.153211 436.522944 
L 261.634755 438.03502 
L 261.236453 439.234617 
L 260.230815 441.946291 
L 259.987896 442.557409 
L 259.166057 444.657965 
L 258.341038 446.62856 
L 258.029657 447.369638 
L 256.826345 450.081312 
L 256.694179 450.366348 
L 255.5029 452.792985 
L 255.047321 453.63978 
L 253.927221 455.504659 
L 253.400462 456.286964 
L 251.865593 458.216332 
L 251.753603 458.341896 
L 250.106745 459.951355 
L 248.898767 460.928006 
L 248.459886 461.257608 
L 246.813028 462.412275 
L 245.166169 463.47252 
L 244.914157 463.639679 
L 243.51931 464.568177 
L 241.872452 465.678464 
L 240.898403 466.351353 
L 240.225593 466.841487 
L 238.578735 468.06229 
L 237.162031 469.063026 
L 236.931876 469.239697 
L 235.285017 470.427303 
L 233.638159 471.434979 
L 232.966067 471.7747 
L 231.9913 472.316406 
L 230.344441 473.028176 
L 228.697583 473.554552 
L 227.050724 473.947601 
L 225.403866 474.258061 
L 224.000431 474.486374 
L 223.757007 474.530839 
L 222.110148 474.816556 
L 220.46329 475.082214 
L 218.816431 475.327716 
L 217.169573 475.552031 
L 215.522714 475.757559 
L 213.875855 475.951291 
L 212.228997 476.14354 
L 210.582138 476.345358 
L 208.93528 476.565602 
L 207.288421 476.808371 
L 205.641562 477.07142 
L 204.89311 477.198047 
L 203.994704 477.368056 
L 202.347845 477.681247 
L 200.700987 477.971871 
L 199.054128 478.217702 
L 197.407269 478.39707 
L 195.760411 478.490462 
L 194.113552 478.481295 
L 192.466694 478.356165 
L 190.819835 478.10504 
L 189.172976 477.72184 
L 187.526118 477.205622 
z
" clip-path="url(#pe51fa65cb5)" style="fill: #eef5fc"/>
    <path d="M 187.526118 477.205622 
L 189.172976 477.72184 
L 190.819835 478.10504 
L 192.466694 478.356165 
L 194.113552 478.481295 
L 195.760411 478.490462 
L 197.407269 478.39707 
L 199.054128 478.217702 
L 200.700987 477.971871 
L 202.347845 477.681247 
L 203.994704 477.368056 
L 204.89311 477.198047 
L 205.641562 477.07142 
L 207.288421 476.808371 
L 208.93528 476.565602 
L 210.582138 476.345358 
L 212.228997 476.14354 
L 213.875855 475.951291 
L 215.522714 475.757559 
L 217.169573 475.552031 
L 218.816431 475.327716 
L 220.46329 475.082214 
L 222.110148 474.816556 
L 223.757007 474.530839 
L 224.000431 474.486374 
L 225.403866 474.258061 
L 227.050724 473.947601 
L 228.697583 473.554552 
L 230.344441 473.028176 
L 231.9913 472.316406 
L 232.966067 471.7747 
L 233.638159 471.434979 
L 235.285017 470.427303 
L 236.931876 469.239697 
L 237.162031 469.063026 
L 238.578735 468.06229 
L 240.225593 466.841487 
L 240.898403 466.351353 
L 241.872452 465.678464 
L 243.51931 464.568177 
L 244.914157 463.639679 
L 245.166169 463.47252 
L 246.813028 462.412275 
L 248.459886 461.257608 
L 248.898767 460.928006 
L 250.106745 459.951355 
L 251.753603 458.341896 
L 251.865593 458.216332 
L 253.400462 456.286964 
L 253.927221 455.504659 
L 255.047321 453.63978 
L 255.5029 452.792985 
L 256.694179 450.366348 
L 256.826345 450.081312 
L 258.029657 447.369638 
L 258.341038 446.62856 
L 259.166057 444.657965 
L 259.987896 442.557409 
L 260.230815 441.946291 
L 261.236453 439.234617 
L 261.634755 438.03502 
L 262.153211 436.522944 
L 262.973738 433.81127 
L 263.281614 432.670808 
L 263.730759 431.099597 
L 264.443936 428.387923 
L 264.928472 426.439614 
L 265.136263 425.67625 
L 265.883502 422.964576 
L 266.575331 420.379122 
L 266.61301 420.252903 
L 267.440818 417.541229 
L 268.197658 414.829555 
L 268.222189 414.737277 
L 268.990629 412.117882 
L 269.65042 409.406208 
L 269.869048 408.302167 
L 270.220303 406.694535 
L 270.645613 403.982861 
L 270.88732 401.271188 
L 270.938335 398.559514 
L 270.7881 395.847841 
L 270.430137 393.136167 
L 269.869048 390.424494 
L 269.869048 390.424494 
L 269.167085 387.71282 
L 268.321066 385.001146 
L 268.222189 384.699182 
L 267.407165 382.289473 
L 266.575331 379.837765 
L 266.483251 379.577799 
L 265.663033 376.866126 
L 265.045655 374.154452 
L 264.928472 373.310225 
L 264.677001 371.442779 
L 264.513453 368.731105 
L 264.454382 366.019432 
L 264.379755 363.307758 
L 264.1665 360.596085 
L 263.691768 357.884411 
L 263.281614 356.537324 
L 262.805439 355.172737 
L 261.634755 352.935614 
L 261.337671 352.461064 
L 259.987896 350.733496 
L 259.071026 349.74939 
L 258.341038 349.029013 
L 256.694179 347.581861 
L 256.023855 347.037717 
L 255.047321 346.221747 
L 253.400462 344.906411 
L 252.646011 344.326043 
L 251.753603 343.568334 
L 250.106745 342.22841 
L 249.3121 341.61437 
L 248.459886 340.834409 
L 246.813028 339.384058 
L 246.259163 338.902696 
L 245.166169 337.725593 
L 243.754306 336.191023 
L 243.51931 335.891976 
L 241.872452 333.864145 
L 241.544408 333.479349 
L 240.225593 332.01131 
L 238.871984 330.767675 
L 238.578735 330.535235 
L 236.931876 329.51232 
L 235.285017 328.87216 
L 233.638159 328.573321 
L 231.9913 328.540065 
L 230.344441 328.672944 
L 228.697583 328.863524 
L 227.050724 329.007319 
L 225.403866 329.016671 
L 223.757007 328.837715 
L 222.110148 328.470409 
L 220.704027 328.056002 
L 220.46329 327.976838 
L 218.816431 327.455288 
L 217.169573 327.082502 
L 215.522714 327.016362 
L 213.875855 327.403454 
L 212.731993 328.056002 
L 212.228997 328.3405 
L 210.582138 329.812105 
L 209.816234 330.767675 
L 208.93528 331.768232 
L 207.733541 333.479349 
L 207.288421 334.017425 
L 205.756798 336.191023 
L 205.641562 336.326213 
L 203.994704 338.452164 
L 203.670479 338.902696 
L 202.347845 340.414766 
L 201.332304 341.61437 
L 200.700987 342.247681 
L 199.054128 343.846312 
L 198.51443 344.326043 
L 197.407269 345.186986 
L 195.760411 346.339715 
L 194.632138 347.037717 
L 194.113552 347.328022 
L 192.466694 348.168606 
L 190.819835 349.007886 
L 189.45597 349.74939 
L 189.172976 349.891984 
L 187.526118 350.825456 
L 185.879259 351.891022 
L 185.088515 352.461064 
L 184.232401 353.035877 
L 182.585542 354.234245 
L 181.359332 355.172737 
L 180.938683 355.47449 
L 179.291825 356.693963 
L 177.749843 357.884411 
L 177.644966 357.96246 
L 175.998108 359.261077 
L 174.502931 360.596085 
L 174.351249 360.734531 
L 172.70439 362.481436 
L 172.059073 363.307758 
L 171.057532 364.738263 
L 170.310226 366.019432 
L 169.410673 367.889095 
L 169.058888 368.731105 
L 168.178275 371.442779 
L 167.763815 373.228264 
L 167.561526 374.154452 
L 167.142448 376.866126 
L 166.843602 379.577799 
L 166.58556 382.289473 
L 166.281237 385.001146 
L 166.116956 386.021217 
L 165.826681 387.71282 
L 165.143309 390.424494 
L 164.470097 392.387177 
L 164.194206 393.136167 
L 162.96214 395.847841 
L 162.823239 396.116834 
L 161.52965 398.559514 
L 161.17638 399.21903 
L 160.08229 401.271188 
L 159.529522 402.424173 
L 158.796395 403.982861 
L 157.882663 406.45465 
L 157.795101 406.694535 
L 157.063268 409.406208 
L 156.624395 412.117882 
L 156.412867 414.829555 
L 156.375005 417.541229 
L 156.473804 420.252903 
L 156.689893 422.964576 
L 157.018496 425.67625 
L 157.460962 428.387923 
L 157.882663 430.492452 
L 158.003072 431.099597 
L 158.586316 433.81127 
L 159.182261 436.522944 
L 159.529522 438.22048 
L 159.721341 439.234617 
L 160.171975 441.946291 
L 160.592779 444.657965 
L 161.042782 447.369638 
L 161.17638 448.053132 
L 161.562462 450.081312 
L 162.272283 452.792985 
L 162.823239 454.343845 
L 163.24403 455.504659 
L 164.470097 458.115881 
L 164.518393 458.216332 
L 166.027755 460.928006 
L 166.116956 461.073366 
L 167.736159 463.639679 
L 167.763815 463.680666 
L 169.410673 466.014151 
L 169.671769 466.351353 
L 171.057532 468.00011 
L 172.114384 469.063026 
L 172.70439 469.603071 
L 174.351249 470.897353 
L 175.712251 471.7747 
L 175.998108 471.947828 
L 177.644966 472.883628 
L 179.291825 473.716728 
L 180.938683 474.482065 
L 180.947969 474.486374 
L 182.585542 475.275406 
L 184.232401 476.004158 
L 185.879259 476.652365 
L 187.505894 477.198047 
z
M 184.900672 469.063026 
L 184.232401 468.708518 
L 182.585542 467.703274 
L 180.938683 466.531488 
L 180.704561 466.351353 
L 179.291825 465.194324 
L 177.644966 463.642494 
L 177.642161 463.639679 
L 175.998108 461.87065 
L 175.213397 460.928006 
L 174.351249 459.831016 
L 173.190447 458.216332 
L 172.70439 457.497269 
L 171.458391 455.504659 
L 171.057532 454.792665 
L 170.005272 452.792985 
L 169.410673 451.428337 
L 168.849977 450.081312 
L 167.986435 447.369638 
L 167.763815 446.415886 
L 167.345446 444.657965 
L 166.878459 441.946291 
L 166.526048 439.234617 
L 166.216404 436.522944 
L 166.116956 435.683066 
L 165.861353 433.81127 
L 165.431686 431.099597 
L 164.933887 428.387923 
L 164.470097 425.985732 
L 164.406367 425.67625 
L 163.918297 422.964576 
L 163.578267 420.252903 
L 163.445564 417.541229 
L 163.565483 414.829555 
L 163.977046 412.117882 
L 164.470097 410.282394 
L 164.707073 409.406208 
L 165.743601 406.694535 
L 166.116956 405.906121 
L 167.005552 403.982861 
L 167.763815 402.506188 
L 168.35808 401.271188 
L 169.410673 399.122651 
L 169.663366 398.559514 
L 170.824752 395.847841 
L 171.057532 395.24479 
L 171.820086 393.136167 
L 172.70439 390.460154 
L 172.715839 390.424494 
L 173.467351 387.71282 
L 174.186641 385.001146 
L 174.351249 384.332428 
L 174.889232 382.289473 
L 175.694035 379.577799 
L 175.998108 378.700056 
L 176.720539 376.866126 
L 177.644966 375.035741 
L 178.160264 374.154452 
L 179.291825 372.562127 
L 180.216253 371.442779 
L 180.938683 370.675343 
L 182.585542 369.120299 
L 183.042227 368.731105 
L 184.232401 367.761384 
L 185.879259 366.565702 
L 186.711481 366.019432 
L 187.526118 365.475593 
L 189.172976 364.453934 
L 190.819835 363.517428 
L 191.188893 363.307758 
L 192.466694 362.535736 
L 194.113552 361.536245 
L 195.619161 360.596085 
L 195.760411 360.501167 
L 197.407269 359.29734 
L 199.054128 358.045185 
L 199.250788 357.884411 
L 200.700987 356.621706 
L 202.347845 355.172737 
L 202.347845 355.172737 
L 203.994704 353.615552 
L 205.287078 352.461064 
L 205.641562 352.128888 
L 207.288421 350.698705 
L 208.555191 349.74939 
L 208.93528 349.445747 
L 210.582138 348.341225 
L 212.228997 347.490869 
L 213.447208 347.037717 
L 213.875855 346.858426 
L 215.522714 346.409363 
L 217.169573 346.164176 
L 218.816431 346.068782 
L 220.46329 346.068582 
L 222.110148 346.126454 
L 223.757007 346.240173 
L 225.403866 346.452227 
L 227.050724 346.851891 
L 227.507314 347.037717 
L 228.697583 347.566393 
L 230.344441 348.792704 
L 231.223336 349.74939 
L 231.9913 350.765828 
L 233.038065 352.461064 
L 233.638159 353.638469 
L 234.425729 355.172737 
L 235.285017 356.981234 
L 235.815937 357.884411 
L 236.931876 359.617264 
L 237.91671 360.596085 
L 238.578735 361.140153 
L 240.225593 361.805654 
L 241.872452 362.023228 
L 243.51931 362.075378 
L 245.166169 362.215011 
L 246.813028 362.650942 
L 248.01949 363.307758 
L 248.459886 363.572901 
L 250.106745 365.336614 
L 250.521688 366.019432 
L 251.689017 368.731105 
L 251.753603 368.932017 
L 252.388541 371.442779 
L 252.955002 374.154452 
L 253.400462 376.220822 
L 253.534887 376.866126 
L 254.257607 379.577799 
L 255.047321 381.930904 
L 255.178929 382.289473 
L 256.418981 385.001146 
L 256.694179 385.52185 
L 257.929593 387.71282 
L 258.341038 388.411228 
L 259.494618 390.424494 
L 259.987896 391.351956 
L 260.841912 393.136167 
L 261.634755 395.198577 
L 261.854592 395.847841 
L 262.51114 398.559514 
L 262.84915 401.271188 
L 262.900098 403.982861 
L 262.707054 406.694535 
L 262.31379 409.406208 
L 261.757003 412.117882 
L 261.634755 412.599171 
L 261.099016 414.829555 
L 260.361109 417.541229 
L 259.987896 418.812573 
L 259.580372 420.252903 
L 258.780409 422.964576 
L 258.341038 424.408628 
L 257.965779 425.67625 
L 257.141427 428.387923 
L 256.694179 429.78882 
L 256.286499 431.099597 
L 255.381534 433.81127 
L 255.047321 434.733191 
L 254.409276 436.522944 
L 253.400462 439.031101 
L 253.318503 439.234617 
L 252.124574 441.946291 
L 251.753603 442.708444 
L 250.762383 444.657965 
L 250.106745 445.828929 
L 249.176513 447.369638 
L 248.459886 448.459801 
L 247.28014 450.081312 
L 246.813028 450.678059 
L 245.166169 452.577855 
L 244.963975 452.792985 
L 243.51931 454.265763 
L 242.176002 455.504659 
L 241.872452 455.777533 
L 240.225593 457.203882 
L 238.976802 458.216332 
L 238.578735 458.539787 
L 236.931876 459.827464 
L 235.403624 460.928006 
L 235.285017 461.015049 
L 233.638159 462.144024 
L 231.9913 463.132637 
L 231.028073 463.639679 
L 230.344441 464.008962 
L 228.697583 464.785793 
L 227.050724 465.443452 
L 225.403866 466.004307 
L 224.228755 466.351353 
L 223.757007 466.498351 
L 222.110148 466.946761 
L 220.46329 467.320979 
L 218.816431 467.626042 
L 217.169573 467.869567 
L 215.522714 468.06453 
L 213.875855 468.230052 
L 212.228997 468.389768 
L 210.582138 468.567958 
L 208.93528 468.784496 
L 207.288421 469.050401 
L 207.223878 469.063026 
L 205.641562 469.402666 
L 203.994704 469.798316 
L 202.347845 470.211761 
L 200.700987 470.613812 
L 199.054128 470.97406 
L 197.407269 471.263328 
L 195.760411 471.454938 
L 194.113552 471.525508 
L 192.466694 471.4558 
L 190.819835 471.231692 
L 189.172976 470.844856 
L 187.526118 470.292451 
L 185.879259 469.575376 
z
" clip-path="url(#pe51fa65cb5)" style="fill: #dae8f6"/>
    <path d="M 185.879259 469.575376 
L 187.526118 470.292451 
L 189.172976 470.844856 
L 190.819835 471.231692 
L 192.466694 471.4558 
L 194.113552 471.525508 
L 195.760411 471.454938 
L 197.407269 471.263328 
L 199.054128 470.97406 
L 200.700987 470.613812 
L 202.347845 470.211761 
L 203.994704 469.798316 
L 205.641562 469.402666 
L 207.223878 469.063026 
L 207.288421 469.050401 
L 208.93528 468.784496 
L 210.582138 468.567958 
L 212.228997 468.389768 
L 213.875855 468.230052 
L 215.522714 468.06453 
L 217.169573 467.869567 
L 218.816431 467.626042 
L 220.46329 467.320979 
L 222.110148 466.946761 
L 223.757007 466.498351 
L 224.228755 466.351353 
L 225.403866 466.004307 
L 227.050724 465.443452 
L 228.697583 464.785793 
L 230.344441 464.008962 
L 231.028073 463.639679 
L 231.9913 463.132637 
L 233.638159 462.144024 
L 235.285017 461.015049 
L 235.403624 460.928006 
L 236.931876 459.827464 
L 238.578735 458.539787 
L 238.976802 458.216332 
L 240.225593 457.203882 
L 241.872452 455.777533 
L 242.176002 455.504659 
L 243.51931 454.265763 
L 244.963975 452.792985 
L 245.166169 452.577855 
L 246.813028 450.678059 
L 247.28014 450.081312 
L 248.459886 448.459801 
L 249.176513 447.369638 
L 250.106745 445.828929 
L 250.762383 444.657965 
L 251.753603 442.708444 
L 252.124574 441.946291 
L 253.318503 439.234617 
L 253.400462 439.031101 
L 254.409276 436.522944 
L 255.047321 434.733191 
L 255.381534 433.81127 
L 256.286499 431.099597 
L 256.694179 429.78882 
L 257.141427 428.387923 
L 257.965779 425.67625 
L 258.341038 424.408628 
L 258.780409 422.964576 
L 259.580372 420.252903 
L 259.987896 418.812573 
L 260.361109 417.541229 
L 261.099016 414.829555 
L 261.634755 412.599171 
L 261.757003 412.117882 
L 262.31379 409.406208 
L 262.707054 406.694535 
L 262.900098 403.982861 
L 262.84915 401.271188 
L 262.51114 398.559514 
L 261.854592 395.847841 
L 261.634755 395.198577 
L 260.841912 393.136167 
L 259.987896 391.351956 
L 259.494618 390.424494 
L 258.341038 388.411228 
L 257.929593 387.71282 
L 256.694179 385.52185 
L 256.418981 385.001146 
L 255.178929 382.289473 
L 255.047321 381.930904 
L 254.257607 379.577799 
L 253.534887 376.866126 
L 253.400462 376.220822 
L 252.955002 374.154452 
L 252.388541 371.442779 
L 251.753603 368.932017 
L 251.689017 368.731105 
L 250.521688 366.019432 
L 250.106745 365.336614 
L 248.459886 363.572901 
L 248.01949 363.307758 
L 246.813028 362.650942 
L 245.166169 362.215011 
L 243.51931 362.075378 
L 241.872452 362.023228 
L 240.225593 361.805654 
L 238.578735 361.140153 
L 237.91671 360.596085 
L 236.931876 359.617264 
L 235.815937 357.884411 
L 235.285017 356.981234 
L 234.425729 355.172737 
L 233.638159 353.638469 
L 233.038065 352.461064 
L 231.9913 350.765828 
L 231.223336 349.74939 
L 230.344441 348.792704 
L 228.697583 347.566393 
L 227.507314 347.037717 
L 227.050724 346.851891 
L 225.403866 346.452227 
L 223.757007 346.240173 
L 222.110148 346.126454 
L 220.46329 346.068582 
L 218.816431 346.068782 
L 217.169573 346.164176 
L 215.522714 346.409363 
L 213.875855 346.858426 
L 213.447208 347.037717 
L 212.228997 347.490869 
L 210.582138 348.341225 
L 208.93528 349.445747 
L 208.555191 349.74939 
L 207.288421 350.698705 
L 205.641562 352.128888 
L 205.287078 352.461064 
L 203.994704 353.615552 
L 202.347845 355.172737 
L 202.347845 355.172737 
L 200.700987 356.621706 
L 199.250788 357.884411 
L 199.054128 358.045185 
L 197.407269 359.29734 
L 195.760411 360.501167 
L 195.619161 360.596085 
L 194.113552 361.536245 
L 192.466694 362.535736 
L 191.188893 363.307758 
L 190.819835 363.517428 
L 189.172976 364.453934 
L 187.526118 365.475593 
L 186.711481 366.019432 
L 185.879259 366.565702 
L 184.232401 367.761384 
L 183.042227 368.731105 
L 182.585542 369.120299 
L 180.938683 370.675343 
L 180.216253 371.442779 
L 179.291825 372.562127 
L 178.160264 374.154452 
L 177.644966 375.035741 
L 176.720539 376.866126 
L 175.998108 378.700056 
L 175.694035 379.577799 
L 174.889232 382.289473 
L 174.351249 384.332428 
L 174.186641 385.001146 
L 173.467351 387.71282 
L 172.715839 390.424494 
L 172.70439 390.460154 
L 171.820086 393.136167 
L 171.057532 395.24479 
L 170.824752 395.847841 
L 169.663366 398.559514 
L 169.410673 399.122651 
L 168.35808 401.271188 
L 167.763815 402.506188 
L 167.005552 403.982861 
L 166.116956 405.906121 
L 165.743601 406.694535 
L 164.707073 409.406208 
L 164.470097 410.282394 
L 163.977046 412.117882 
L 163.565483 414.829555 
L 163.445564 417.541229 
L 163.578267 420.252903 
L 163.918297 422.964576 
L 164.406367 425.67625 
L 164.470097 425.985732 
L 164.933887 428.387923 
L 165.431686 431.099597 
L 165.861353 433.81127 
L 166.116956 435.683066 
L 166.216404 436.522944 
L 166.526048 439.234617 
L 166.878459 441.946291 
L 167.345446 444.657965 
L 167.763815 446.415886 
L 167.986435 447.369638 
L 168.849977 450.081312 
L 169.410673 451.428337 
L 170.005272 452.792985 
L 171.057532 454.792665 
L 171.458391 455.504659 
L 172.70439 457.497269 
L 173.190447 458.216332 
L 174.351249 459.831016 
L 175.213397 460.928006 
L 175.998108 461.87065 
L 177.642161 463.639679 
L 177.644966 463.642494 
L 179.291825 465.194324 
L 180.704561 466.351353 
L 180.938683 466.531488 
L 182.585542 467.703274 
L 184.232401 468.708518 
L 184.900672 469.063026 
z
M 187.667956 463.639679 
L 187.526118 463.572678 
L 185.879259 462.600223 
L 184.232401 461.410506 
L 183.651532 460.928006 
L 182.585542 459.985435 
L 180.938683 458.338953 
L 180.825452 458.216332 
L 179.291825 456.475935 
L 178.505457 455.504659 
L 177.644966 454.390958 
L 176.508418 452.792985 
L 175.998108 452.011765 
L 174.848255 450.081312 
L 174.351249 449.0924 
L 173.561194 447.369638 
L 172.70439 444.862806 
L 172.638742 444.657965 
L 172.021727 441.946291 
L 171.64748 439.234617 
L 171.441498 436.522944 
L 171.33151 433.81127 
L 171.25017 431.099597 
L 171.141103 428.387923 
L 171.057532 427.006752 
L 170.965432 425.67625 
L 170.731689 422.964576 
L 170.516031 420.252903 
L 170.420427 417.541229 
L 170.538358 414.829555 
L 170.924403 412.117882 
L 171.057532 411.5773 
L 171.541082 409.406208 
L 172.362998 406.694535 
L 172.70439 405.764689 
L 173.292768 403.982861 
L 174.29686 401.271188 
L 174.351249 401.132039 
L 175.291037 398.559514 
L 175.998108 396.710301 
L 176.320259 395.847841 
L 177.365498 393.136167 
L 177.644966 392.420032 
L 178.456249 390.424494 
L 179.291825 388.4587 
L 179.634697 387.71282 
L 180.938683 385.011948 
L 180.944478 385.001146 
L 182.459469 382.289473 
L 182.585542 382.078856 
L 184.232401 379.656492 
L 184.29317 379.577799 
L 185.879259 377.629476 
L 186.600123 376.866126 
L 187.526118 375.929804 
L 189.172976 374.477315 
L 189.577372 374.154452 
L 190.819835 373.180792 
L 192.466694 372.011579 
L 193.314325 371.442779 
L 194.113552 370.898971 
L 195.760411 369.80377 
L 197.386656 368.731105 
L 197.407269 368.716911 
L 199.054128 367.554189 
L 200.700987 366.36116 
L 201.159154 366.019432 
L 202.347845 365.079385 
L 203.994704 363.746888 
L 204.535118 363.307758 
L 205.641562 362.368255 
L 207.288421 361.019253 
L 207.85039 360.596085 
L 208.93528 359.768817 
L 210.582138 358.707291 
L 212.228997 357.884411 
L 212.228997 357.884411 
L 213.875855 357.345441 
L 215.522714 357.084052 
L 217.169573 357.07987 
L 218.816431 357.30664 
L 220.46329 357.75044 
L 220.804592 357.884411 
L 222.110148 358.459624 
L 223.757007 359.509294 
L 224.951457 360.596085 
L 225.403866 361.053084 
L 227.050724 363.262602 
L 227.078023 363.307758 
L 228.697583 365.962636 
L 228.728574 366.019432 
L 230.344441 368.678537 
L 230.376362 368.731105 
L 231.9913 371.031992 
L 232.310511 371.442779 
L 233.638159 372.947481 
L 234.919348 374.154452 
L 235.285017 374.471885 
L 236.931876 375.587736 
L 238.578735 376.474816 
L 239.415198 376.866126 
L 240.225593 377.253507 
L 241.872452 378.135291 
L 243.51931 379.411393 
L 243.673898 379.577799 
L 245.166169 381.415465 
L 245.681729 382.289473 
L 246.813028 384.470865 
L 247.04607 385.001146 
L 248.183247 387.71282 
L 248.459886 388.38949 
L 249.298184 390.424494 
L 250.106745 392.329302 
L 250.476407 393.136167 
L 251.753365 395.847841 
L 251.753603 395.848355 
L 253.081073 398.559514 
L 253.400462 399.298543 
L 254.23729 401.271188 
L 255.047321 403.936937 
L 255.060027 403.982861 
L 255.486275 406.694535 
L 255.565112 409.406208 
L 255.362514 412.117882 
L 255.047321 414.145092 
L 254.944573 414.829555 
L 254.369408 417.541229 
L 253.698396 420.252903 
L 253.400462 421.331706 
L 252.963145 422.964576 
L 252.187517 425.67625 
L 251.753603 427.09401 
L 251.366625 428.387923 
L 250.484542 431.099597 
L 250.106745 432.145932 
L 249.50175 433.81127 
L 248.459886 436.319054 
L 248.371986 436.522944 
L 247.044084 439.234617 
L 246.813028 439.655021 
L 245.44572 441.946291 
L 245.166169 442.372706 
L 243.51931 444.636528 
L 243.502086 444.657965 
L 241.872452 446.578803 
L 241.124259 447.369638 
L 240.225593 448.293337 
L 238.578735 449.8434 
L 238.311035 450.081312 
L 236.931876 451.296567 
L 235.285017 452.657913 
L 235.115755 452.792985 
L 233.638159 453.958866 
L 231.9913 455.169696 
L 231.5078 455.504659 
L 230.344441 456.292942 
L 228.697583 457.304517 
L 227.050724 458.197014 
L 227.01097 458.216332 
L 225.403866 458.982306 
L 223.757007 459.646475 
L 222.110148 460.195615 
L 220.46329 460.636916 
L 219.073704 460.928006 
L 218.816431 460.982916 
L 217.169573 461.258324 
L 215.522714 461.478929 
L 213.875855 461.674952 
L 212.228997 461.877014 
L 210.582138 462.11065 
L 208.93528 462.391806 
L 207.288421 462.724985 
L 205.641562 463.104167 
L 203.994704 463.515288 
L 203.513183 463.639679 
L 202.347845 463.962024 
L 200.700987 464.397179 
L 199.054128 464.779307 
L 197.407269 465.077447 
L 195.760411 465.260669 
L 194.113552 465.299234 
L 192.466694 465.166766 
L 190.819835 464.842776 
L 189.172976 464.314117 
z
" clip-path="url(#pe51fa65cb5)" style="fill: #c7dbef"/>
    <path d="M 189.172976 464.314117 
L 190.819835 464.842776 
L 192.466694 465.166766 
L 194.113552 465.299234 
L 195.760411 465.260669 
L 197.407269 465.077447 
L 199.054128 464.779307 
L 200.700987 464.397179 
L 202.347845 463.962024 
L 203.513183 463.639679 
L 203.994704 463.515288 
L 205.641562 463.104167 
L 207.288421 462.724985 
L 208.93528 462.391806 
L 210.582138 462.11065 
L 212.228997 461.877014 
L 213.875855 461.674952 
L 215.522714 461.478929 
L 217.169573 461.258324 
L 218.816431 460.982916 
L 219.073704 460.928006 
L 220.46329 460.636916 
L 222.110148 460.195615 
L 223.757007 459.646475 
L 225.403866 458.982306 
L 227.01097 458.216332 
L 227.050724 458.197014 
L 228.697583 457.304517 
L 230.344441 456.292942 
L 231.5078 455.504659 
L 231.9913 455.169696 
L 233.638159 453.958866 
L 235.115755 452.792985 
L 235.285017 452.657913 
L 236.931876 451.296567 
L 238.311035 450.081312 
L 238.578735 449.8434 
L 240.225593 448.293337 
L 241.124259 447.369638 
L 241.872452 446.578803 
L 243.502086 444.657965 
L 243.51931 444.636528 
L 245.166169 442.372706 
L 245.44572 441.946291 
L 246.813028 439.655021 
L 247.044084 439.234617 
L 248.371986 436.522944 
L 248.459886 436.319054 
L 249.50175 433.81127 
L 250.106745 432.145932 
L 250.484542 431.099597 
L 251.366625 428.387923 
L 251.753603 427.09401 
L 252.187517 425.67625 
L 252.963145 422.964576 
L 253.400462 421.331706 
L 253.698396 420.252903 
L 254.369408 417.541229 
L 254.944573 414.829555 
L 255.047321 414.145092 
L 255.362514 412.117882 
L 255.565112 409.406208 
L 255.486275 406.694535 
L 255.060027 403.982861 
L 255.047321 403.936937 
L 254.23729 401.271188 
L 253.400462 399.298543 
L 253.081073 398.559514 
L 251.753603 395.848355 
L 251.753365 395.847841 
L 250.476407 393.136167 
L 250.106745 392.329302 
L 249.298184 390.424494 
L 248.459886 388.38949 
L 248.183247 387.71282 
L 247.04607 385.001146 
L 246.813028 384.470865 
L 245.681729 382.289473 
L 245.166169 381.415465 
L 243.673898 379.577799 
L 243.51931 379.411393 
L 241.872452 378.135291 
L 240.225593 377.253507 
L 239.415198 376.866126 
L 238.578735 376.474816 
L 236.931876 375.587736 
L 235.285017 374.471885 
L 234.919348 374.154452 
L 233.638159 372.947481 
L 232.310511 371.442779 
L 231.9913 371.031992 
L 230.376362 368.731105 
L 230.344441 368.678537 
L 228.728574 366.019432 
L 228.697583 365.962636 
L 227.078023 363.307758 
L 227.050724 363.262602 
L 225.403866 361.053084 
L 224.951457 360.596085 
L 223.757007 359.509294 
L 222.110148 358.459624 
L 220.804592 357.884411 
L 220.46329 357.75044 
L 218.816431 357.30664 
L 217.169573 357.07987 
L 215.522714 357.084052 
L 213.875855 357.345441 
L 212.228997 357.884411 
L 212.228997 357.884411 
L 210.582138 358.707291 
L 208.93528 359.768817 
L 207.85039 360.596085 
L 207.288421 361.019253 
L 205.641562 362.368255 
L 204.535118 363.307758 
L 203.994704 363.746888 
L 202.347845 365.079385 
L 201.159154 366.019432 
L 200.700987 366.36116 
L 199.054128 367.554189 
L 197.407269 368.716911 
L 197.386656 368.731105 
L 195.760411 369.80377 
L 194.113552 370.898971 
L 193.314325 371.442779 
L 192.466694 372.011579 
L 190.819835 373.180792 
L 189.577372 374.154452 
L 189.172976 374.477315 
L 187.526118 375.929804 
L 186.600123 376.866126 
L 185.879259 377.629476 
L 184.29317 379.577799 
L 184.232401 379.656492 
L 182.585542 382.078856 
L 182.459469 382.289473 
L 180.944478 385.001146 
L 180.938683 385.011948 
L 179.634697 387.71282 
L 179.291825 388.4587 
L 178.456249 390.424494 
L 177.644966 392.420032 
L 177.365498 393.136167 
L 176.320259 395.847841 
L 175.998108 396.710301 
L 175.291037 398.559514 
L 174.351249 401.132039 
L 174.29686 401.271188 
L 173.292768 403.982861 
L 172.70439 405.764689 
L 172.362998 406.694535 
L 171.541082 409.406208 
L 171.057532 411.5773 
L 170.924403 412.117882 
L 170.538358 414.829555 
L 170.420427 417.541229 
L 170.516031 420.252903 
L 170.731689 422.964576 
L 170.965432 425.67625 
L 171.057532 427.006752 
L 171.141103 428.387923 
L 171.25017 431.099597 
L 171.33151 433.81127 
L 171.441498 436.522944 
L 171.64748 439.234617 
L 172.021727 441.946291 
L 172.638742 444.657965 
L 172.70439 444.862806 
L 173.561194 447.369638 
L 174.351249 449.0924 
L 174.848255 450.081312 
L 175.998108 452.011765 
L 176.508418 452.792985 
L 177.644966 454.390958 
L 178.505457 455.504659 
L 179.291825 456.475935 
L 180.825452 458.216332 
L 180.938683 458.338953 
L 182.585542 459.985435 
L 183.651532 460.928006 
L 184.232401 461.410506 
L 185.879259 462.600223 
L 187.526118 463.572678 
L 187.667956 463.639679 
z
M 190.212715 458.216332 
L 189.172976 457.6888 
L 187.526118 456.627827 
L 186.083012 455.504659 
L 185.879259 455.336322 
L 184.232401 453.799893 
L 183.265354 452.792985 
L 182.585542 452.053609 
L 180.938683 450.081312 
L 180.938683 450.081312 
L 179.291825 447.731881 
L 179.063696 447.369638 
L 177.649527 444.657965 
L 177.644966 444.646294 
L 176.706737 441.946291 
L 176.133009 439.234617 
L 175.998108 437.943896 
L 175.857217 436.522944 
L 175.785095 433.81127 
L 175.832986 431.099597 
L 175.927056 428.387923 
L 175.998108 425.938171 
L 176.005748 425.67625 
L 176.031577 422.964576 
L 176.010613 420.252903 
L 175.998108 418.562211 
L 175.990128 417.541229 
L 175.998108 417.171123 
L 176.04632 414.829555 
L 176.246611 412.117882 
L 176.625291 409.406208 
L 177.181572 406.694535 
L 177.644966 404.957076 
L 177.895739 403.982861 
L 178.742254 401.271188 
L 179.291825 399.736479 
L 179.722521 398.559514 
L 180.83423 395.847841 
L 180.938683 395.611499 
L 182.117532 393.136167 
L 182.585542 392.215823 
L 183.594163 390.424494 
L 184.232401 389.341961 
L 185.312635 387.71282 
L 185.879259 386.885503 
L 187.342738 385.001146 
L 187.526118 384.771561 
L 189.172976 382.936413 
L 189.827836 382.289473 
L 190.819835 381.336825 
L 192.466694 379.929949 
L 192.919676 379.577799 
L 194.113552 378.668731 
L 195.760411 377.519205 
L 196.763893 376.866126 
L 197.407269 376.446063 
L 199.054128 375.425723 
L 200.700987 374.442939 
L 201.207016 374.154452 
L 202.347845 373.472396 
L 203.994704 372.508368 
L 205.641562 371.555115 
L 205.850413 371.442779 
L 207.288421 370.606935 
L 208.93528 369.716558 
L 210.582138 368.953116 
L 211.26326 368.731105 
L 212.228997 368.400419 
L 213.875855 368.133445 
L 215.522714 368.19419 
L 217.169573 368.579767 
L 217.5402 368.731105 
L 218.816431 369.228462 
L 220.46329 370.100108 
L 222.110148 371.207132 
L 222.391407 371.442779 
L 223.757007 372.470215 
L 225.403866 374.003034 
L 225.541134 374.154452 
L 227.050724 375.687435 
L 228.075573 376.866126 
L 228.697583 377.549303 
L 230.344441 379.449263 
L 230.459117 379.577799 
L 231.9913 381.270543 
L 232.996944 382.289473 
L 233.638159 382.951984 
L 235.285017 384.463479 
L 235.935537 385.001146 
L 236.931876 385.892974 
L 238.578735 387.372964 
L 238.925889 387.71282 
L 240.225593 389.211684 
L 241.098838 390.424494 
L 241.872452 391.736278 
L 242.586002 393.136167 
L 243.51931 395.312408 
L 243.735031 395.847841 
L 244.728537 398.559514 
L 245.166169 399.839423 
L 245.671923 401.271188 
L 246.572734 403.982861 
L 246.813028 404.804354 
L 247.37124 406.694535 
L 247.964443 409.406208 
L 248.288913 412.117882 
L 248.339299 414.829555 
L 248.15932 417.541229 
L 247.8088 420.252903 
L 247.333047 422.964576 
L 246.813028 425.363939 
L 246.745824 425.67625 
L 246.012347 428.387923 
L 245.166169 430.983513 
L 245.126891 431.099597 
L 243.990883 433.81127 
L 243.51931 434.747002 
L 242.545869 436.522944 
L 241.872452 437.571465 
L 240.692223 439.234617 
L 240.225593 439.820335 
L 238.578735 441.70151 
L 238.348651 441.946291 
L 236.931876 443.353475 
L 235.540671 444.657965 
L 235.285017 444.889373 
L 233.638159 446.33731 
L 232.424503 447.369638 
L 231.9913 447.729758 
L 230.344441 449.051949 
L 228.979671 450.081312 
L 228.697583 450.287788 
L 227.050724 451.405245 
L 225.403866 452.393594 
L 224.641185 452.792985 
L 223.757007 453.23858 
L 222.110148 453.942081 
L 220.46329 454.519598 
L 218.816431 454.98926 
L 217.169573 455.376201 
L 216.5508 455.504659 
L 215.522714 455.715659 
L 213.875855 456.038328 
L 212.228997 456.364939 
L 210.582138 456.710527 
L 208.93528 457.081384 
L 207.288421 457.475919 
L 205.641562 457.886052 
L 204.32156 458.216332 
L 203.994704 458.301787 
L 202.347845 458.709125 
L 200.700987 459.066312 
L 199.054128 459.34572 
L 197.407269 459.516873 
L 195.760411 459.54734 
L 194.113552 459.405181 
L 192.466694 459.062799 
L 190.819835 458.500835 
z
" clip-path="url(#pe51fa65cb5)" style="fill: #a4cce3"/>
    <path d="M 190.819835 458.500835 
L 192.466694 459.062799 
L 194.113552 459.405181 
L 195.760411 459.54734 
L 197.407269 459.516873 
L 199.054128 459.34572 
L 200.700987 459.066312 
L 202.347845 458.709125 
L 203.994704 458.301787 
L 204.32156 458.216332 
L 205.641562 457.886052 
L 207.288421 457.475919 
L 208.93528 457.081384 
L 210.582138 456.710527 
L 212.228997 456.364939 
L 213.875855 456.038328 
L 215.522714 455.715659 
L 216.5508 455.504659 
L 217.169573 455.376201 
L 218.816431 454.98926 
L 220.46329 454.519598 
L 222.110148 453.942081 
L 223.757007 453.23858 
L 224.641185 452.792985 
L 225.403866 452.393594 
L 227.050724 451.405245 
L 228.697583 450.287788 
L 228.979671 450.081312 
L 230.344441 449.051949 
L 231.9913 447.729758 
L 232.424503 447.369638 
L 233.638159 446.33731 
L 235.285017 444.889373 
L 235.540671 444.657965 
L 236.931876 443.353475 
L 238.348651 441.946291 
L 238.578735 441.70151 
L 240.225593 439.820335 
L 240.692223 439.234617 
L 241.872452 437.571465 
L 242.545869 436.522944 
L 243.51931 434.747002 
L 243.990883 433.81127 
L 245.126891 431.099597 
L 245.166169 430.983513 
L 246.012347 428.387923 
L 246.745824 425.67625 
L 246.813028 425.363939 
L 247.333047 422.964576 
L 247.8088 420.252903 
L 248.15932 417.541229 
L 248.339299 414.829555 
L 248.288913 412.117882 
L 247.964443 409.406208 
L 247.37124 406.694535 
L 246.813028 404.804354 
L 246.572734 403.982861 
L 245.671923 401.271188 
L 245.166169 399.839423 
L 244.728537 398.559514 
L 243.735031 395.847841 
L 243.51931 395.312408 
L 242.586002 393.136167 
L 241.872452 391.736278 
L 241.098838 390.424494 
L 240.225593 389.211684 
L 238.925889 387.71282 
L 238.578735 387.372964 
L 236.931876 385.892974 
L 235.935537 385.001146 
L 235.285017 384.463479 
L 233.638159 382.951984 
L 232.996944 382.289473 
L 231.9913 381.270543 
L 230.459117 379.577799 
L 230.344441 379.449263 
L 228.697583 377.549303 
L 228.075573 376.866126 
L 227.050724 375.687435 
L 225.541134 374.154452 
L 225.403866 374.003034 
L 223.757007 372.470215 
L 222.391407 371.442779 
L 222.110148 371.207132 
L 220.46329 370.100108 
L 218.816431 369.228462 
L 217.5402 368.731105 
L 217.169573 368.579767 
L 215.522714 368.19419 
L 213.875855 368.133445 
L 212.228997 368.400419 
L 211.26326 368.731105 
L 210.582138 368.953116 
L 208.93528 369.716558 
L 207.288421 370.606935 
L 205.850413 371.442779 
L 205.641562 371.555115 
L 203.994704 372.508368 
L 202.347845 373.472396 
L 201.207016 374.154452 
L 200.700987 374.442939 
L 199.054128 375.425723 
L 197.407269 376.446063 
L 196.763893 376.866126 
L 195.760411 377.519205 
L 194.113552 378.668731 
L 192.919676 379.577799 
L 192.466694 379.929949 
L 190.819835 381.336825 
L 189.827836 382.289473 
L 189.172976 382.936413 
L 187.526118 384.771561 
L 187.342738 385.001146 
L 185.879259 386.885503 
L 185.312635 387.71282 
L 184.232401 389.341961 
L 183.594163 390.424494 
L 182.585542 392.215823 
L 182.117532 393.136167 
L 180.938683 395.611499 
L 180.83423 395.847841 
L 179.722521 398.559514 
L 179.291825 399.736479 
L 178.742254 401.271188 
L 177.895739 403.982861 
L 177.644966 404.957076 
L 177.181572 406.694535 
L 176.625291 409.406208 
L 176.246611 412.117882 
L 176.04632 414.829555 
L 175.998108 417.171123 
L 175.990128 417.541229 
L 175.998108 418.562211 
L 176.010613 420.252903 
L 176.031577 422.964576 
L 176.005748 425.67625 
L 175.998108 425.938171 
L 175.927056 428.387923 
L 175.832986 431.099597 
L 175.785095 433.81127 
L 175.857217 436.522944 
L 175.998108 437.943896 
L 176.133009 439.234617 
L 176.706737 441.946291 
L 177.644966 444.646294 
L 177.649527 444.657965 
L 179.063696 447.369638 
L 179.291825 447.731881 
L 180.938683 450.081312 
L 180.938683 450.081312 
L 182.585542 452.053609 
L 183.265354 452.792985 
L 184.232401 453.799893 
L 185.879259 455.336322 
L 186.083012 455.504659 
L 187.526118 456.627827 
L 189.172976 457.6888 
L 190.212715 458.216332 
z
M 192.437727 452.792985 
L 190.819835 451.854571 
L 189.172976 450.687676 
L 188.426883 450.081312 
L 187.526118 449.301251 
L 185.879259 447.707979 
L 185.562642 447.369638 
L 184.232401 445.812509 
L 183.359256 444.657965 
L 182.585542 443.429451 
L 181.776732 441.946291 
L 180.938683 439.76992 
L 180.760395 439.234617 
L 180.22497 436.522944 
L 180.016325 433.81127 
L 180.029025 431.099597 
L 180.165449 428.387923 
L 180.345275 425.67625 
L 180.509201 422.964576 
L 180.624275 420.252903 
L 180.692284 417.541229 
L 180.753671 414.829555 
L 180.875463 412.117882 
L 180.938683 411.440389 
L 181.13422 409.406208 
L 181.580617 406.694535 
L 182.22657 403.982861 
L 182.585542 402.838516 
L 183.114128 401.271188 
L 184.232401 398.559514 
L 184.232401 398.559514 
L 185.673176 395.847841 
L 185.879259 395.498349 
L 187.43659 393.136167 
L 187.526118 393.009633 
L 189.172976 390.926078 
L 189.61052 390.424494 
L 190.819835 389.111486 
L 192.238075 387.71282 
L 192.466694 387.497002 
L 194.113552 386.082708 
L 195.502698 385.001146 
L 195.760411 384.807837 
L 197.407269 383.683332 
L 199.054128 382.673718 
L 199.757924 382.289473 
L 200.700987 381.775327 
L 202.347845 380.971795 
L 203.994704 380.263292 
L 205.641562 379.651754 
L 205.879778 379.577799 
L 207.288421 379.103306 
L 208.93528 378.647998 
L 210.582138 378.307841 
L 212.228997 378.099552 
L 213.875855 378.034311 
L 215.522714 378.116688 
L 217.169573 378.350474 
L 218.816431 378.748882 
L 220.46329 379.342309 
L 220.931272 379.577799 
L 222.110148 380.15089 
L 223.757007 381.244113 
L 224.982935 382.289473 
L 225.403866 382.663389 
L 227.050724 384.395033 
L 227.574817 385.001146 
L 228.697583 386.390348 
L 229.753161 387.71282 
L 230.344441 388.520804 
L 231.808422 390.424494 
L 231.9913 390.691658 
L 233.638159 392.946726 
L 233.783763 393.136167 
L 235.285017 395.504258 
L 235.500944 395.847841 
L 236.817451 398.559514 
L 236.931876 398.873994 
L 237.782417 401.271188 
L 238.526595 403.982861 
L 238.578735 404.212612 
L 239.152197 406.694535 
L 239.721676 409.406208 
L 240.225593 412.028462 
L 240.242803 412.117882 
L 240.679013 414.829555 
L 240.976422 417.541229 
L 241.089545 420.252903 
L 240.985551 422.964576 
L 240.636001 425.67625 
L 240.225593 427.428551 
L 239.995603 428.387923 
L 238.989582 431.099597 
L 238.578735 431.901926 
L 237.549505 433.81127 
L 236.931876 434.704701 
L 235.615082 436.522944 
L 235.285017 436.905206 
L 233.638159 438.752478 
L 233.197845 439.234617 
L 231.9913 440.415954 
L 230.381489 441.946291 
L 230.344441 441.97921 
L 228.697583 443.393219 
L 227.129507 444.657965 
L 227.050724 444.718499 
L 225.403866 445.893379 
L 223.757007 446.945862 
L 223.015764 447.369638 
L 222.110148 447.859747 
L 220.46329 448.648036 
L 218.816431 449.336882 
L 217.169573 449.946291 
L 216.780985 450.081312 
L 215.522714 450.498141 
L 213.875855 451.012989 
L 212.228997 451.503143 
L 210.582138 451.976249 
L 208.93528 452.435444 
L 207.608673 452.792985 
L 207.288421 452.879381 
L 205.641562 453.297159 
L 203.994704 453.668891 
L 202.347845 453.974419 
L 200.700987 454.188125 
L 199.054128 454.279559 
L 197.407269 454.215495 
L 195.760411 453.963857 
L 194.113552 453.499237 
L 192.466694 452.808358 
z
" clip-path="url(#pe51fa65cb5)" style="fill: #79b5d9"/>
    <path d="M 192.466694 452.808358 
L 194.113552 453.499237 
L 195.760411 453.963857 
L 197.407269 454.215495 
L 199.054128 454.279559 
L 200.700987 454.188125 
L 202.347845 453.974419 
L 203.994704 453.668891 
L 205.641562 453.297159 
L 207.288421 452.879381 
L 207.608673 452.792985 
L 208.93528 452.435444 
L 210.582138 451.976249 
L 212.228997 451.503143 
L 213.875855 451.012989 
L 215.522714 450.498141 
L 216.780985 450.081312 
L 217.169573 449.946291 
L 218.816431 449.336882 
L 220.46329 448.648036 
L 222.110148 447.859747 
L 223.015764 447.369638 
L 223.757007 446.945862 
L 225.403866 445.893379 
L 227.050724 444.718499 
L 227.129507 444.657965 
L 228.697583 443.393219 
L 230.344441 441.97921 
L 230.381489 441.946291 
L 231.9913 440.415954 
L 233.197845 439.234617 
L 233.638159 438.752478 
L 235.285017 436.905206 
L 235.615082 436.522944 
L 236.931876 434.704701 
L 237.549505 433.81127 
L 238.578735 431.901926 
L 238.989582 431.099597 
L 239.995603 428.387923 
L 240.225593 427.428551 
L 240.636001 425.67625 
L 240.985551 422.964576 
L 241.089545 420.252903 
L 240.976422 417.541229 
L 240.679013 414.829555 
L 240.242803 412.117882 
L 240.225593 412.028462 
L 239.721676 409.406208 
L 239.152197 406.694535 
L 238.578735 404.212612 
L 238.526595 403.982861 
L 237.782417 401.271188 
L 236.931876 398.873994 
L 236.817451 398.559514 
L 235.500944 395.847841 
L 235.285017 395.504258 
L 233.783763 393.136167 
L 233.638159 392.946726 
L 231.9913 390.691658 
L 231.808422 390.424494 
L 230.344441 388.520804 
L 229.753161 387.71282 
L 228.697583 386.390348 
L 227.574817 385.001146 
L 227.050724 384.395033 
L 225.403866 382.663389 
L 224.982935 382.289473 
L 223.757007 381.244113 
L 222.110148 380.15089 
L 220.931272 379.577799 
L 220.46329 379.342309 
L 218.816431 378.748882 
L 217.169573 378.350474 
L 215.522714 378.116688 
L 213.875855 378.034311 
L 212.228997 378.099552 
L 210.582138 378.307841 
L 208.93528 378.647998 
L 207.288421 379.103306 
L 205.879778 379.577799 
L 205.641562 379.651754 
L 203.994704 380.263292 
L 202.347845 380.971795 
L 200.700987 381.775327 
L 199.757924 382.289473 
L 199.054128 382.673718 
L 197.407269 383.683332 
L 195.760411 384.807837 
L 195.502698 385.001146 
L 194.113552 386.082708 
L 192.466694 387.497002 
L 192.238075 387.71282 
L 190.819835 389.111486 
L 189.61052 390.424494 
L 189.172976 390.926078 
L 187.526118 393.009633 
L 187.43659 393.136167 
L 185.879259 395.498349 
L 185.673176 395.847841 
L 184.232401 398.559514 
L 184.232401 398.559514 
L 183.114128 401.271188 
L 182.585542 402.838516 
L 182.22657 403.982861 
L 181.580617 406.694535 
L 181.13422 409.406208 
L 180.938683 411.440389 
L 180.875463 412.117882 
L 180.753671 414.829555 
L 180.692284 417.541229 
L 180.624275 420.252903 
L 180.509201 422.964576 
L 180.345275 425.67625 
L 180.165449 428.387923 
L 180.029025 431.099597 
L 180.016325 433.81127 
L 180.22497 436.522944 
L 180.760395 439.234617 
L 180.938683 439.76992 
L 181.776732 441.946291 
L 182.585542 443.429451 
L 183.359256 444.657965 
L 184.232401 445.812509 
L 185.562642 447.369638 
L 185.879259 447.707979 
L 187.526118 449.301251 
L 188.426883 450.081312 
L 189.172976 450.687676 
L 190.819835 451.854571 
L 192.437727 452.792985 
z
M 193.944625 447.369638 
L 192.466694 446.334218 
L 190.819835 444.992785 
L 190.446578 444.657965 
L 189.172976 443.378016 
L 187.895128 441.946291 
L 187.526118 441.446897 
L 186.095557 439.234617 
L 185.879259 438.763575 
L 184.999818 436.522944 
L 184.42551 433.81127 
L 184.232401 431.099597 
L 184.287244 428.387923 
L 184.477892 425.67625 
L 184.722177 422.964576 
L 184.967546 420.252903 
L 185.190615 417.541229 
L 185.399555 414.829555 
L 185.635687 412.117882 
L 185.879259 410.103813 
L 185.972343 409.406208 
L 186.51812 406.694535 
L 187.323017 403.982861 
L 187.526118 403.474823 
L 188.50214 401.271188 
L 189.172976 400.066255 
L 190.085868 398.559514 
L 190.819835 397.536233 
L 192.113898 395.847841 
L 192.466694 395.442021 
L 194.113552 393.651063 
L 194.615114 393.136167 
L 195.760411 392.073407 
L 197.407269 390.666884 
L 197.716493 390.424494 
L 199.054128 389.448538 
L 200.700987 388.388091 
L 201.920604 387.71282 
L 202.347845 387.483124 
L 203.994704 386.715793 
L 205.641562 386.086195 
L 207.288421 385.588521 
L 208.93528 385.215547 
L 210.324306 385.001146 
L 210.582138 384.958991 
L 212.228997 384.814054 
L 213.875855 384.797644 
L 215.522714 384.920377 
L 215.999402 385.001146 
L 217.169573 385.202077 
L 218.816431 385.691162 
L 220.46329 386.451151 
L 222.110148 387.543011 
L 222.310479 387.71282 
L 223.757007 389.120239 
L 224.859187 390.424494 
L 225.403866 391.186428 
L 226.68203 393.136167 
L 227.050724 393.805797 
L 228.163837 395.847841 
L 228.697583 397.027224 
L 229.408291 398.559514 
L 230.344441 401.090898 
L 230.412717 401.271188 
L 231.20773 403.982861 
L 231.810053 406.694535 
L 231.9913 407.697111 
L 232.310661 409.406208 
L 232.767745 412.117882 
L 233.202889 414.829555 
L 233.603191 417.541229 
L 233.638159 417.851864 
L 233.920242 420.252903 
L 234.035469 422.964576 
L 233.841582 425.67625 
L 233.638159 426.597844 
L 233.243191 428.387923 
L 232.159208 431.099597 
L 231.9913 431.386339 
L 230.536633 433.81127 
L 230.344441 434.058128 
L 228.697583 436.106367 
L 228.348041 436.522944 
L 227.050724 437.824831 
L 225.564116 439.234617 
L 225.403866 439.369945 
L 223.757007 440.691063 
L 222.110148 441.916821 
L 222.068963 441.946291 
L 220.46329 442.98816 
L 218.816431 443.974883 
L 217.592207 444.657965 
L 217.169573 444.874746 
L 215.522714 445.678545 
L 213.875855 446.412595 
L 212.228997 447.081838 
L 211.458579 447.369638 
L 210.582138 447.681201 
L 208.93528 448.20833 
L 207.288421 448.667221 
L 205.641562 449.048993 
L 203.994704 449.336856 
L 202.347845 449.505506 
L 200.700987 449.522604 
L 199.054128 449.352934 
L 197.407269 448.965177 
L 195.760411 448.33996 
L 194.113552 447.47617 
z
" clip-path="url(#pe51fa65cb5)" style="fill: #56a0ce"/>
    <path d="M 194.113552 447.47617 
L 195.760411 448.33996 
L 197.407269 448.965177 
L 199.054128 449.352934 
L 200.700987 449.522604 
L 202.347845 449.505506 
L 203.994704 449.336856 
L 205.641562 449.048993 
L 207.288421 448.667221 
L 208.93528 448.20833 
L 210.582138 447.681201 
L 211.458579 447.369638 
L 212.228997 447.081838 
L 213.875855 446.412595 
L 215.522714 445.678545 
L 217.169573 444.874746 
L 217.592207 444.657965 
L 218.816431 443.974883 
L 220.46329 442.98816 
L 222.068963 441.946291 
L 222.110148 441.916821 
L 223.757007 440.691063 
L 225.403866 439.369945 
L 225.564116 439.234617 
L 227.050724 437.824831 
L 228.348041 436.522944 
L 228.697583 436.106367 
L 230.344441 434.058128 
L 230.536633 433.81127 
L 231.9913 431.386339 
L 232.159208 431.099597 
L 233.243191 428.387923 
L 233.638159 426.597844 
L 233.841582 425.67625 
L 234.035469 422.964576 
L 233.920242 420.252903 
L 233.638159 417.851864 
L 233.603191 417.541229 
L 233.202889 414.829555 
L 232.767745 412.117882 
L 232.310661 409.406208 
L 231.9913 407.697111 
L 231.810053 406.694535 
L 231.20773 403.982861 
L 230.412717 401.271188 
L 230.344441 401.090898 
L 229.408291 398.559514 
L 228.697583 397.027224 
L 228.163837 395.847841 
L 227.050724 393.805797 
L 226.68203 393.136167 
L 225.403866 391.186428 
L 224.859187 390.424494 
L 223.757007 389.120239 
L 222.310479 387.71282 
L 222.110148 387.543011 
L 220.46329 386.451151 
L 218.816431 385.691162 
L 217.169573 385.202077 
L 215.999402 385.001146 
L 215.522714 384.920377 
L 213.875855 384.797644 
L 212.228997 384.814054 
L 210.582138 384.958991 
L 210.324306 385.001146 
L 208.93528 385.215547 
L 207.288421 385.588521 
L 205.641562 386.086195 
L 203.994704 386.715793 
L 202.347845 387.483124 
L 201.920604 387.71282 
L 200.700987 388.388091 
L 199.054128 389.448538 
L 197.716493 390.424494 
L 197.407269 390.666884 
L 195.760411 392.073407 
L 194.615114 393.136167 
L 194.113552 393.651063 
L 192.466694 395.442021 
L 192.113898 395.847841 
L 190.819835 397.536233 
L 190.085868 398.559514 
L 189.172976 400.066255 
L 188.50214 401.271188 
L 187.526118 403.474823 
L 187.323017 403.982861 
L 186.51812 406.694535 
L 185.972343 409.406208 
L 185.879259 410.103813 
L 185.635687 412.117882 
L 185.399555 414.829555 
L 185.190615 417.541229 
L 184.967546 420.252903 
L 184.722177 422.964576 
L 184.477892 425.67625 
L 184.287244 428.387923 
L 184.232401 431.099597 
L 184.42551 433.81127 
L 184.999818 436.522944 
L 185.879259 438.763575 
L 186.095557 439.234617 
L 187.526118 441.446897 
L 187.895128 441.946291 
L 189.172976 443.378016 
L 190.446578 444.657965 
L 190.819835 444.992785 
L 192.466694 446.334218 
L 193.944625 447.369638 
z
M 196.481695 441.946291 
L 195.760411 441.389133 
L 194.113552 439.880715 
L 193.49041 439.234617 
L 192.466694 437.924553 
L 191.493277 436.522944 
L 190.819835 435.155363 
L 190.235299 433.81127 
L 189.569507 431.099597 
L 189.333163 428.387923 
L 189.386632 425.67625 
L 189.617869 422.964576 
L 189.953699 420.252903 
L 190.359138 417.541229 
L 190.819835 414.905084 
L 190.833207 414.829555 
L 191.38614 412.117882 
L 192.090565 409.406208 
L 192.466694 408.26825 
L 192.997923 406.694535 
L 194.113552 404.167077 
L 194.196803 403.982861 
L 195.729221 401.271188 
L 195.760411 401.225648 
L 197.407269 398.915842 
L 197.682774 398.559514 
L 199.054128 397.025259 
L 200.251114 395.847841 
L 200.700987 395.45125 
L 202.347845 394.175252 
L 203.994704 393.136167 
L 203.994704 393.136167 
L 205.641562 392.330096 
L 207.288421 391.726049 
L 208.93528 391.31267 
L 210.582138 391.084394 
L 212.228997 391.044985 
L 213.875855 391.21146 
L 215.522714 391.618636 
L 217.169573 392.322464 
L 218.441481 393.136167 
L 218.816431 393.425928 
L 220.46329 395.142633 
L 220.998941 395.847841 
L 222.110148 397.686197 
L 222.5717 398.559514 
L 223.723697 401.271188 
L 223.757007 401.365647 
L 224.64331 403.982861 
L 225.380298 406.694535 
L 225.403866 406.798793 
L 225.993822 409.406208 
L 226.47792 412.117882 
L 226.848365 414.829555 
L 227.050724 416.950946 
L 227.111557 417.541229 
L 227.244622 420.252903 
L 227.170022 422.964576 
L 227.050724 423.841237 
L 226.797683 425.67625 
L 226.002846 428.387923 
L 225.403866 429.638424 
L 224.675847 431.099597 
L 223.757007 432.423295 
L 222.752647 433.81127 
L 222.110148 434.519055 
L 220.46329 436.268057 
L 220.216202 436.522944 
L 218.816431 437.756346 
L 217.169573 439.110608 
L 217.010343 439.234617 
L 215.522714 440.263081 
L 213.875855 441.28529 
L 212.670236 441.946291 
L 212.228997 442.167539 
L 210.582138 442.880265 
L 208.93528 443.464565 
L 207.288421 443.915253 
L 205.641562 444.21863 
L 203.994704 444.351103 
L 202.347845 444.281108 
L 200.700987 443.974769 
L 199.054128 443.404574 
L 197.407269 442.55843 
z
" clip-path="url(#pe51fa65cb5)" style="fill: #3787c0"/>
    <path d="M 197.407269 442.55843 
L 199.054128 443.404574 
L 200.700987 443.974769 
L 202.347845 444.281108 
L 203.994704 444.351103 
L 205.641562 444.21863 
L 207.288421 443.915253 
L 208.93528 443.464565 
L 210.582138 442.880265 
L 212.228997 442.167539 
L 212.670236 441.946291 
L 213.875855 441.28529 
L 215.522714 440.263081 
L 217.010343 439.234617 
L 217.169573 439.110608 
L 218.816431 437.756346 
L 220.216202 436.522944 
L 220.46329 436.268057 
L 222.110148 434.519055 
L 222.752647 433.81127 
L 223.757007 432.423295 
L 224.675847 431.099597 
L 225.403866 429.638424 
L 226.002846 428.387923 
L 226.797683 425.67625 
L 227.050724 423.841237 
L 227.170022 422.964576 
L 227.244622 420.252903 
L 227.111557 417.541229 
L 227.050724 416.950946 
L 226.848365 414.829555 
L 226.47792 412.117882 
L 225.993822 409.406208 
L 225.403866 406.798793 
L 225.380298 406.694535 
L 224.64331 403.982861 
L 223.757007 401.365647 
L 223.723697 401.271188 
L 222.5717 398.559514 
L 222.110148 397.686197 
L 220.998941 395.847841 
L 220.46329 395.142633 
L 218.816431 393.425928 
L 218.441481 393.136167 
L 217.169573 392.322464 
L 215.522714 391.618636 
L 213.875855 391.21146 
L 212.228997 391.044985 
L 210.582138 391.084394 
L 208.93528 391.31267 
L 207.288421 391.726049 
L 205.641562 392.330096 
L 203.994704 393.136167 
L 203.994704 393.136167 
L 202.347845 394.175252 
L 200.700987 395.45125 
L 200.251114 395.847841 
L 199.054128 397.025259 
L 197.682774 398.559514 
L 197.407269 398.915842 
L 195.760411 401.225648 
L 195.729221 401.271188 
L 194.196803 403.982861 
L 194.113552 404.167077 
L 192.997923 406.694535 
L 192.466694 408.26825 
L 192.090565 409.406208 
L 191.38614 412.117882 
L 190.833207 414.829555 
L 190.819835 414.905084 
L 190.359138 417.541229 
L 189.953699 420.252903 
L 189.617869 422.964576 
L 189.386632 425.67625 
L 189.333163 428.387923 
L 189.569507 431.099597 
L 190.235299 433.81127 
L 190.819835 435.155363 
L 191.493277 436.522944 
L 192.466694 437.924553 
L 193.49041 439.234617 
L 194.113552 439.880715 
L 195.760411 441.389133 
L 196.481695 441.946291 
z
M 203.636245 436.522944 
L 202.347845 436.011835 
L 200.700987 434.961355 
L 199.419721 433.81127 
L 199.054128 433.386588 
L 197.541531 431.099597 
L 197.407269 430.793264 
L 196.544195 428.387923 
L 196.073233 425.67625 
L 195.971804 422.964576 
L 196.130197 420.252903 
L 196.484881 417.541229 
L 197.015692 414.829555 
L 197.407269 413.34691 
L 197.742207 412.117882 
L 198.698672 409.406208 
L 199.054128 408.600886 
L 199.980086 406.694535 
L 200.700987 405.47818 
L 201.733441 403.982861 
L 202.347845 403.222965 
L 203.994704 401.567164 
L 204.380398 401.271188 
L 205.641562 400.400892 
L 207.288421 399.619168 
L 208.93528 399.188659 
L 210.582138 399.123052 
L 212.228997 399.460525 
L 213.875855 400.266857 
L 215.109084 401.271188 
L 215.522714 401.683067 
L 217.169573 403.982861 
L 217.169573 403.982861 
L 218.449386 406.694535 
L 218.816431 407.677007 
L 219.389632 409.406208 
L 220.071019 412.117882 
L 220.46329 414.486872 
L 220.517503 414.829555 
L 220.710585 417.541229 
L 220.632429 420.252903 
L 220.46329 421.439614 
L 220.234963 422.964576 
L 219.45862 425.67625 
L 218.816431 427.135945 
L 218.218186 428.387923 
L 217.169573 430.030965 
L 216.407352 431.099597 
L 215.522714 432.113253 
L 213.875855 433.74888 
L 213.799958 433.81127 
L 212.228997 434.937533 
L 210.582138 435.859438 
L 208.93528 436.512166 
L 208.88496 436.522944 
L 207.288421 436.835031 
L 205.641562 436.884845 
L 203.994704 436.640644 
z
" clip-path="url(#pe51fa65cb5)" style="fill: #1a68ae"/>
    <path d="M 203.994704 436.640644 
L 205.641562 436.884845 
L 207.288421 436.835031 
L 208.88496 436.522944 
L 208.93528 436.512166 
L 210.582138 435.859438 
L 212.228997 434.937533 
L 213.799958 433.81127 
L 213.875855 433.74888 
L 215.522714 432.113253 
L 216.407352 431.099597 
L 217.169573 430.030965 
L 218.218186 428.387923 
L 218.816431 427.135945 
L 219.45862 425.67625 
L 220.234963 422.964576 
L 220.46329 421.439614 
L 220.632429 420.252903 
L 220.710585 417.541229 
L 220.517503 414.829555 
L 220.46329 414.486872 
L 220.071019 412.117882 
L 219.389632 409.406208 
L 218.816431 407.677007 
L 218.449386 406.694535 
L 217.169573 403.982861 
L 217.169573 403.982861 
L 215.522714 401.683067 
L 215.109084 401.271188 
L 213.875855 400.266857 
L 212.228997 399.460525 
L 210.582138 399.123052 
L 208.93528 399.188659 
L 207.288421 399.619168 
L 205.641562 400.400892 
L 204.380398 401.271188 
L 203.994704 401.567164 
L 202.347845 403.222965 
L 201.733441 403.982861 
L 200.700987 405.47818 
L 199.980086 406.694535 
L 199.054128 408.600886 
L 198.698672 409.406208 
L 197.742207 412.117882 
L 197.407269 413.34691 
L 197.015692 414.829555 
L 196.484881 417.541229 
L 196.130197 420.252903 
L 195.971804 422.964576 
L 196.073233 425.67625 
L 196.544195 428.387923 
L 197.407269 430.793264 
L 197.541531 431.099597 
L 199.054128 433.386588 
L 199.419721 433.81127 
L 200.700987 434.961355 
L 202.347845 436.011835 
L 203.636245 436.522944 
z
" clip-path="url(#pe51fa65cb5)" style="fill: #084488"/>
   </g>
   <g id="matplotlib.axis_1">
    <g id="xtick_1">
     <g id="line2d_1">
      <defs>
       <path id="m4ca6b8e7e5" d="M 0 0 
L 0 3.5 
" style="stroke: #000000; stroke-width: 0.8"/>
      </defs>
      <g>
       <use xlink:href="#m4ca6b8e7e5" x="97.900487" y="499.48" style="stroke: #000000; stroke-width: 0.8"/>
      </g>
     </g>
     <g id="text_1">
      <!-- 2 -->
      <g transform="translate(90.901737 523.196563) scale(0.22 -0.22)">
       <defs>
        <path id="DejaVuSans-32" d="M 1228 531 
L 3431 531 
L 3431 0 
L 469 0 
L 469 531 
Q 828 903 1448 1529 
Q 2069 2156 2228 2338 
Q 2531 2678 2651 2914 
Q 2772 3150 2772 3378 
Q 2772 3750 2511 3984 
Q 2250 4219 1831 4219 
Q 1534 4219 1204 4116 
Q 875 4013 500 3803 
L 500 4441 
Q 881 4594 1212 4672 
Q 1544 4750 1819 4750 
Q 2544 4750 2975 4387 
Q 3406 4025 3406 3419 
Q 3406 3131 3298 2873 
Q 3191 2616 2906 2266 
Q 2828 2175 2409 1742 
Q 1991 1309 1228 531 
z
" transform="scale(0.015625)"/>
       </defs>
       <use xlink:href="#DejaVuSans-32"/>
      </g>
     </g>
    </g>
    <g id="xtick_2">
     <g id="line2d_2">
      <g>
       <use xlink:href="#m4ca6b8e7e5" x="225.034862" y="499.48" style="stroke: #000000; stroke-width: 0.8"/>
      </g>
     </g>
     <g id="text_2">
      <!-- 4 -->
      <g transform="translate(218.036112 523.196563) scale(0.22 -0.22)">
       <defs>
        <path id="DejaVuSans-34" d="M 2419 4116 
L 825 1625 
L 2419 1625 
L 2419 4116 
z
M 2253 4666 
L 3047 4666 
L 3047 1625 
L 3713 1625 
L 3713 1100 
L 3047 1100 
L 3047 0 
L 2419 0 
L 2419 1100 
L 313 1100 
L 313 1709 
L 2253 4666 
z
" transform="scale(0.015625)"/>
       </defs>
       <use xlink:href="#DejaVuSans-34"/>
      </g>
     </g>
    </g>
    <g id="xtick_3">
     <g id="line2d_3">
      <g>
       <use xlink:href="#m4ca6b8e7e5" x="352.169237" y="499.48" style="stroke: #000000; stroke-width: 0.8"/>
      </g>
     </g>
     <g id="text_3">
      <!-- 6 -->
      <g transform="translate(345.170487 523.196563) scale(0.22 -0.22)">
       <defs>
        <path id="DejaVuSans-36" d="M 2113 2584 
Q 1688 2584 1439 2293 
Q 1191 2003 1191 1497 
Q 1191 994 1439 701 
Q 1688 409 2113 409 
Q 2538 409 2786 701 
Q 3034 994 3034 1497 
Q 3034 2003 2786 2293 
Q 2538 2584 2113 2584 
z
M 3366 4563 
L 3366 3988 
Q 3128 4100 2886 4159 
Q 2644 4219 2406 4219 
Q 1781 4219 1451 3797 
Q 1122 3375 1075 2522 
Q 1259 2794 1537 2939 
Q 1816 3084 2150 3084 
Q 2853 3084 3261 2657 
Q 3669 2231 3669 1497 
Q 3669 778 3244 343 
Q 2819 -91 2113 -91 
Q 1303 -91 875 529 
Q 447 1150 447 2328 
Q 447 3434 972 4092 
Q 1497 4750 2381 4750 
Q 2619 4750 2861 4703 
Q 3103 4656 3366 4563 
z
" transform="scale(0.015625)"/>
       </defs>
       <use xlink:href="#DejaVuSans-36"/>
      </g>
     </g>
    </g>
    <g id="xtick_4">
     <g id="line2d_4">
      <g>
       <use xlink:href="#m4ca6b8e7e5" x="479.303612" y="499.48" style="stroke: #000000; stroke-width: 0.8"/>
      </g>
     </g>
     <g id="text_4">
      <!-- 8 -->
      <g transform="translate(472.304862 523.196563) scale(0.22 -0.22)">
       <defs>
        <path id="DejaVuSans-38" d="M 2034 2216 
Q 1584 2216 1326 1975 
Q 1069 1734 1069 1313 
Q 1069 891 1326 650 
Q 1584 409 2034 409 
Q 2484 409 2743 651 
Q 3003 894 3003 1313 
Q 3003 1734 2745 1975 
Q 2488 2216 2034 2216 
z
M 1403 2484 
Q 997 2584 770 2862 
Q 544 3141 544 3541 
Q 544 4100 942 4425 
Q 1341 4750 2034 4750 
Q 2731 4750 3128 4425 
Q 3525 4100 3525 3541 
Q 3525 3141 3298 2862 
Q 3072 2584 2669 2484 
Q 3125 2378 3379 2068 
Q 3634 1759 3634 1313 
Q 3634 634 3220 271 
Q 2806 -91 2034 -91 
Q 1263 -91 848 271 
Q 434 634 434 1313 
Q 434 1759 690 2068 
Q 947 2378 1403 2484 
z
M 1172 3481 
Q 1172 3119 1398 2916 
Q 1625 2713 2034 2713 
Q 2441 2713 2670 2916 
Q 2900 3119 2900 3481 
Q 2900 3844 2670 4047 
Q 2441 4250 2034 4250 
Q 1625 4250 1398 4047 
Q 1172 3844 1172 3481 
z
" transform="scale(0.015625)"/>
       </defs>
       <use xlink:href="#DejaVuSans-38"/>
      </g>
     </g>
    </g>
    <g id="xtick_5">
     <g id="line2d_5">
      <g>
       <use xlink:href="#m4ca6b8e7e5" x="606.437987" y="499.48" style="stroke: #000000; stroke-width: 0.8"/>
      </g>
     </g>
     <g id="text_5">
      <!-- 10 -->
      <g transform="translate(592.440487 523.196563) scale(0.22 -0.22)">
       <defs>
        <path id="DejaVuSans-31" d="M 794 531 
L 1825 531 
L 1825 4091 
L 703 3866 
L 703 4441 
L 1819 4666 
L 2450 4666 
L 2450 531 
L 3481 531 
L 3481 0 
L 794 0 
L 794 531 
z
" transform="scale(0.015625)"/>
        <path id="DejaVuSans-30" d="M 2034 4250 
Q 1547 4250 1301 3770 
Q 1056 3291 1056 2328 
Q 1056 1369 1301 889 
Q 1547 409 2034 409 
Q 2525 409 2770 889 
Q 3016 1369 3016 2328 
Q 3016 3291 2770 3770 
Q 2525 4250 2034 4250 
z
M 2034 4750 
Q 2819 4750 3233 4129 
Q 3647 3509 3647 2328 
Q 3647 1150 3233 529 
Q 2819 -91 2034 -91 
Q 1250 -91 836 529 
Q 422 1150 422 2328 
Q 422 3509 836 4129 
Q 1250 4750 2034 4750 
z
" transform="scale(0.015625)"/>
       </defs>
       <use xlink:href="#DejaVuSans-31"/>
       <use xlink:href="#DejaVuSans-30" x="63.623047"/>
      </g>
     </g>
    </g>
    <g id="text_6">
     <!-- Force Uncertainties -->
     <g transform="translate(283.426094 548.488438) scale(0.22 -0.22)">
      <defs>
       <path id="DejaVuSans-46" d="M 628 4666 
L 3309 4666 
L 3309 4134 
L 1259 4134 
L 1259 2759 
L 3109 2759 
L 3109 2228 
L 1259 2228 
L 1259 0 
L 628 0 
L 628 4666 
z
" transform="scale(0.015625)"/>
       <path id="DejaVuSans-6f" d="M 1959 3097 
Q 1497 3097 1228 2736 
Q 959 2375 959 1747 
Q 959 1119 1226 758 
Q 1494 397 1959 397 
Q 2419 397 2687 759 
Q 2956 1122 2956 1747 
Q 2956 2369 2687 2733 
Q 2419 3097 1959 3097 
z
M 1959 3584 
Q 2709 3584 3137 3096 
Q 3566 2609 3566 1747 
Q 3566 888 3137 398 
Q 2709 -91 1959 -91 
Q 1206 -91 779 398 
Q 353 888 353 1747 
Q 353 2609 779 3096 
Q 1206 3584 1959 3584 
z
" transform="scale(0.015625)"/>
       <path id="DejaVuSans-72" d="M 2631 2963 
Q 2534 3019 2420 3045 
Q 2306 3072 2169 3072 
Q 1681 3072 1420 2755 
Q 1159 2438 1159 1844 
L 1159 0 
L 581 0 
L 581 3500 
L 1159 3500 
L 1159 2956 
Q 1341 3275 1631 3429 
Q 1922 3584 2338 3584 
Q 2397 3584 2469 3576 
Q 2541 3569 2628 3553 
L 2631 2963 
z
" transform="scale(0.015625)"/>
       <path id="DejaVuSans-63" d="M 3122 3366 
L 3122 2828 
Q 2878 2963 2633 3030 
Q 2388 3097 2138 3097 
Q 1578 3097 1268 2742 
Q 959 2388 959 1747 
Q 959 1106 1268 751 
Q 1578 397 2138 397 
Q 2388 397 2633 464 
Q 2878 531 3122 666 
L 3122 134 
Q 2881 22 2623 -34 
Q 2366 -91 2075 -91 
Q 1284 -91 818 406 
Q 353 903 353 1747 
Q 353 2603 823 3093 
Q 1294 3584 2113 3584 
Q 2378 3584 2631 3529 
Q 2884 3475 3122 3366 
z
" transform="scale(0.015625)"/>
       <path id="DejaVuSans-65" d="M 3597 1894 
L 3597 1613 
L 953 1613 
Q 991 1019 1311 708 
Q 1631 397 2203 397 
Q 2534 397 2845 478 
Q 3156 559 3463 722 
L 3463 178 
Q 3153 47 2828 -22 
Q 2503 -91 2169 -91 
Q 1331 -91 842 396 
Q 353 884 353 1716 
Q 353 2575 817 3079 
Q 1281 3584 2069 3584 
Q 2775 3584 3186 3129 
Q 3597 2675 3597 1894 
z
M 3022 2063 
Q 3016 2534 2758 2815 
Q 2500 3097 2075 3097 
Q 1594 3097 1305 2825 
Q 1016 2553 972 2059 
L 3022 2063 
z
" transform="scale(0.015625)"/>
       <path id="DejaVuSans-20" transform="scale(0.015625)"/>
       <path id="DejaVuSans-55" d="M 556 4666 
L 1191 4666 
L 1191 1831 
Q 1191 1081 1462 751 
Q 1734 422 2344 422 
Q 2950 422 3222 751 
Q 3494 1081 3494 1831 
L 3494 4666 
L 4128 4666 
L 4128 1753 
Q 4128 841 3676 375 
Q 3225 -91 2344 -91 
Q 1459 -91 1007 375 
Q 556 841 556 1753 
L 556 4666 
z
" transform="scale(0.015625)"/>
       <path id="DejaVuSans-6e" d="M 3513 2113 
L 3513 0 
L 2938 0 
L 2938 2094 
Q 2938 2591 2744 2837 
Q 2550 3084 2163 3084 
Q 1697 3084 1428 2787 
Q 1159 2491 1159 1978 
L 1159 0 
L 581 0 
L 581 3500 
L 1159 3500 
L 1159 2956 
Q 1366 3272 1645 3428 
Q 1925 3584 2291 3584 
Q 2894 3584 3203 3211 
Q 3513 2838 3513 2113 
z
" transform="scale(0.015625)"/>
       <path id="DejaVuSans-74" d="M 1172 4494 
L 1172 3500 
L 2356 3500 
L 2356 3053 
L 1172 3053 
L 1172 1153 
Q 1172 725 1289 603 
Q 1406 481 1766 481 
L 2356 481 
L 2356 0 
L 1766 0 
Q 1100 0 847 248 
Q 594 497 594 1153 
L 594 3053 
L 172 3053 
L 172 3500 
L 594 3500 
L 594 4494 
L 1172 4494 
z
" transform="scale(0.015625)"/>
       <path id="DejaVuSans-61" d="M 2194 1759 
Q 1497 1759 1228 1600 
Q 959 1441 959 1056 
Q 959 750 1161 570 
Q 1363 391 1709 391 
Q 2188 391 2477 730 
Q 2766 1069 2766 1631 
L 2766 1759 
L 2194 1759 
z
M 3341 1997 
L 3341 0 
L 2766 0 
L 2766 531 
Q 2569 213 2275 61 
Q 1981 -91 1556 -91 
Q 1019 -91 701 211 
Q 384 513 384 1019 
Q 384 1609 779 1909 
Q 1175 2209 1959 2209 
L 2766 2209 
L 2766 2266 
Q 2766 2663 2505 2880 
Q 2244 3097 1772 3097 
Q 1472 3097 1187 3025 
Q 903 2953 641 2809 
L 641 3341 
Q 956 3463 1253 3523 
Q 1550 3584 1831 3584 
Q 2591 3584 2966 3190 
Q 3341 2797 3341 1997 
z
" transform="scale(0.015625)"/>
       <path id="DejaVuSans-69" d="M 603 3500 
L 1178 3500 
L 1178 0 
L 603 0 
L 603 3500 
z
M 603 4863 
L 1178 4863 
L 1178 4134 
L 603 4134 
L 603 4863 
z
" transform="scale(0.015625)"/>
       <path id="DejaVuSans-73" d="M 2834 3397 
L 2834 2853 
Q 2591 2978 2328 3040 
Q 2066 3103 1784 3103 
Q 1356 3103 1142 2972 
Q 928 2841 928 2578 
Q 928 2378 1081 2264 
Q 1234 2150 1697 2047 
L 1894 2003 
Q 2506 1872 2764 1633 
Q 3022 1394 3022 966 
Q 3022 478 2636 193 
Q 2250 -91 1575 -91 
Q 1294 -91 989 -36 
Q 684 19 347 128 
L 347 722 
Q 666 556 975 473 
Q 1284 391 1588 391 
Q 1994 391 2212 530 
Q 2431 669 2431 922 
Q 2431 1156 2273 1281 
Q 2116 1406 1581 1522 
L 1381 1569 
Q 847 1681 609 1914 
Q 372 2147 372 2553 
Q 372 3047 722 3315 
Q 1072 3584 1716 3584 
Q 2034 3584 2315 3537 
Q 2597 3491 2834 3397 
z
" transform="scale(0.015625)"/>
      </defs>
      <use xlink:href="#DejaVuSans-46"/>
      <use xlink:href="#DejaVuSans-6f" x="53.894531"/>
      <use xlink:href="#DejaVuSans-72" x="115.076172"/>
      <use xlink:href="#DejaVuSans-63" x="153.939453"/>
      <use xlink:href="#DejaVuSans-65" x="208.919922"/>
      <use xlink:href="#DejaVuSans-20" x="270.443359"/>
      <use xlink:href="#DejaVuSans-55" x="302.230469"/>
      <use xlink:href="#DejaVuSans-6e" x="375.423828"/>
      <use xlink:href="#DejaVuSans-63" x="438.802734"/>
      <use xlink:href="#DejaVuSans-65" x="493.783203"/>
      <use xlink:href="#DejaVuSans-72" x="555.306641"/>
      <use xlink:href="#DejaVuSans-74" x="596.419922"/>
      <use xlink:href="#DejaVuSans-61" x="635.628906"/>
      <use xlink:href="#DejaVuSans-69" x="696.908203"/>
      <use xlink:href="#DejaVuSans-6e" x="724.691406"/>
      <use xlink:href="#DejaVuSans-74" x="788.070312"/>
      <use xlink:href="#DejaVuSans-69" x="827.279297"/>
      <use xlink:href="#DejaVuSans-65" x="855.0625"/>
      <use xlink:href="#DejaVuSans-73" x="916.585938"/>
     </g>
    </g>
   </g>
   <g id="matplotlib.axis_2">
    <g id="ytick_1">
     <g id="line2d_6">
      <defs>
       <path id="m0c38dff3bb" d="M 0 0 
L -3.5 0 
" style="stroke: #000000; stroke-width: 0.8"/>
      </defs>
      <g>
       <use xlink:href="#m0c38dff3bb" x="83.72" y="488.466578" style="stroke: #000000; stroke-width: 0.8"/>
      </g>
     </g>
     <g id="text_7">
      <!-- 2 -->
      <g transform="translate(62.7225 496.824859) scale(0.22 -0.22)">
       <use xlink:href="#DejaVuSans-32"/>
      </g>
     </g>
    </g>
    <g id="ytick_2">
     <g id="line2d_7">
      <g>
       <use xlink:href="#m0c38dff3bb" x="83.72" y="389.726349" style="stroke: #000000; stroke-width: 0.8"/>
      </g>
     </g>
     <g id="text_8">
      <!-- 4 -->
      <g transform="translate(62.7225 398.08463) scale(0.22 -0.22)">
       <use xlink:href="#DejaVuSans-34"/>
      </g>
     </g>
    </g>
    <g id="ytick_3">
     <g id="line2d_8">
      <g>
       <use xlink:href="#m0c38dff3bb" x="83.72" y="290.986121" style="stroke: #000000; stroke-width: 0.8"/>
      </g>
     </g>
     <g id="text_9">
      <!-- 6 -->
      <g transform="translate(62.7225 299.344402) scale(0.22 -0.22)">
       <use xlink:href="#DejaVuSans-36"/>
      </g>
     </g>
    </g>
    <g id="ytick_4">
     <g id="line2d_9">
      <g>
       <use xlink:href="#m0c38dff3bb" x="83.72" y="192.245892" style="stroke: #000000; stroke-width: 0.8"/>
      </g>
     </g>
     <g id="text_10">
      <!-- 8 -->
      <g transform="translate(62.7225 200.604173) scale(0.22 -0.22)">
       <use xlink:href="#DejaVuSans-38"/>
      </g>
     </g>
    </g>
    <g id="ytick_5">
     <g id="line2d_10">
      <g>
       <use xlink:href="#m0c38dff3bb" x="83.72" y="93.505664" style="stroke: #000000; stroke-width: 0.8"/>
      </g>
     </g>
     <g id="text_11">
      <!-- 10 -->
      <g transform="translate(48.725 101.863945) scale(0.22 -0.22)">
       <use xlink:href="#DejaVuSans-31"/>
       <use xlink:href="#DejaVuSans-30" x="63.623047"/>
      </g>
     </g>
    </g>
    <g id="text_12">
     <!-- Force Errors [kJ/(mol*A)] -->
     <g transform="translate(40.149688 394.9125) rotate(-90) scale(0.22 -0.22)">
      <defs>
       <path id="DejaVuSans-45" d="M 628 4666 
L 3578 4666 
L 3578 4134 
L 1259 4134 
L 1259 2753 
L 3481 2753 
L 3481 2222 
L 1259 2222 
L 1259 531 
L 3634 531 
L 3634 0 
L 628 0 
L 628 4666 
z
" transform="scale(0.015625)"/>
       <path id="DejaVuSans-5b" d="M 550 4863 
L 1875 4863 
L 1875 4416 
L 1125 4416 
L 1125 -397 
L 1875 -397 
L 1875 -844 
L 550 -844 
L 550 4863 
z
" transform="scale(0.015625)"/>
       <path id="DejaVuSans-6b" d="M 581 4863 
L 1159 4863 
L 1159 1991 
L 2875 3500 
L 3609 3500 
L 1753 1863 
L 3688 0 
L 2938 0 
L 1159 1709 
L 1159 0 
L 581 0 
L 581 4863 
z
" transform="scale(0.015625)"/>
       <path id="DejaVuSans-4a" d="M 628 4666 
L 1259 4666 
L 1259 325 
Q 1259 -519 939 -900 
Q 619 -1281 -91 -1281 
L -331 -1281 
L -331 -750 
L -134 -750 
Q 284 -750 456 -515 
Q 628 -281 628 325 
L 628 4666 
z
" transform="scale(0.015625)"/>
       <path id="DejaVuSans-2f" d="M 1625 4666 
L 2156 4666 
L 531 -594 
L 0 -594 
L 1625 4666 
z
" transform="scale(0.015625)"/>
       <path id="DejaVuSans-28" d="M 1984 4856 
Q 1566 4138 1362 3434 
Q 1159 2731 1159 2009 
Q 1159 1288 1364 580 
Q 1569 -128 1984 -844 
L 1484 -844 
Q 1016 -109 783 600 
Q 550 1309 550 2009 
Q 550 2706 781 3412 
Q 1013 4119 1484 4856 
L 1984 4856 
z
" transform="scale(0.015625)"/>
       <path id="DejaVuSans-6d" d="M 3328 2828 
Q 3544 3216 3844 3400 
Q 4144 3584 4550 3584 
Q 5097 3584 5394 3201 
Q 5691 2819 5691 2113 
L 5691 0 
L 5113 0 
L 5113 2094 
Q 5113 2597 4934 2840 
Q 4756 3084 4391 3084 
Q 3944 3084 3684 2787 
Q 3425 2491 3425 1978 
L 3425 0 
L 2847 0 
L 2847 2094 
Q 2847 2600 2669 2842 
Q 2491 3084 2119 3084 
Q 1678 3084 1418 2786 
Q 1159 2488 1159 1978 
L 1159 0 
L 581 0 
L 581 3500 
L 1159 3500 
L 1159 2956 
Q 1356 3278 1631 3431 
Q 1906 3584 2284 3584 
Q 2666 3584 2933 3390 
Q 3200 3197 3328 2828 
z
" transform="scale(0.015625)"/>
       <path id="DejaVuSans-6c" d="M 603 4863 
L 1178 4863 
L 1178 0 
L 603 0 
L 603 4863 
z
" transform="scale(0.015625)"/>
       <path id="DejaVuSans-2a" d="M 3009 3897 
L 1888 3291 
L 3009 2681 
L 2828 2375 
L 1778 3009 
L 1778 1831 
L 1422 1831 
L 1422 3009 
L 372 2375 
L 191 2681 
L 1313 3291 
L 191 3897 
L 372 4206 
L 1422 3572 
L 1422 4750 
L 1778 4750 
L 1778 3572 
L 2828 4206 
L 3009 3897 
z
" transform="scale(0.015625)"/>
       <path id="DejaVuSans-41" d="M 2188 4044 
L 1331 1722 
L 3047 1722 
L 2188 4044 
z
M 1831 4666 
L 2547 4666 
L 4325 0 
L 3669 0 
L 3244 1197 
L 1141 1197 
L 716 0 
L 50 0 
L 1831 4666 
z
" transform="scale(0.015625)"/>
       <path id="DejaVuSans-29" d="M 513 4856 
L 1013 4856 
Q 1481 4119 1714 3412 
Q 1947 2706 1947 2009 
Q 1947 1309 1714 600 
Q 1481 -109 1013 -844 
L 513 -844 
Q 928 -128 1133 580 
Q 1338 1288 1338 2009 
Q 1338 2731 1133 3434 
Q 928 4138 513 4856 
z
" transform="scale(0.015625)"/>
       <path id="DejaVuSans-5d" d="M 1947 4863 
L 1947 -844 
L 622 -844 
L 622 -397 
L 1369 -397 
L 1369 4416 
L 622 4416 
L 622 4863 
L 1947 4863 
z
" transform="scale(0.015625)"/>
      </defs>
      <use xlink:href="#DejaVuSans-46"/>
      <use xlink:href="#DejaVuSans-6f" x="53.894531"/>
      <use xlink:href="#DejaVuSans-72" x="115.076172"/>
      <use xlink:href="#DejaVuSans-63" x="153.939453"/>
      <use xlink:href="#DejaVuSans-65" x="208.919922"/>
      <use xlink:href="#DejaVuSans-20" x="270.443359"/>
      <use xlink:href="#DejaVuSans-45" x="302.230469"/>
      <use xlink:href="#DejaVuSans-72" x="365.414062"/>
      <use xlink:href="#DejaVuSans-72" x="404.777344"/>
      <use xlink:href="#DejaVuSans-6f" x="443.640625"/>
      <use xlink:href="#DejaVuSans-72" x="504.822266"/>
      <use xlink:href="#DejaVuSans-73" x="545.935547"/>
      <use xlink:href="#DejaVuSans-20" x="598.035156"/>
      <use xlink:href="#DejaVuSans-5b" x="629.822266"/>
      <use xlink:href="#DejaVuSans-6b" x="668.835938"/>
      <use xlink:href="#DejaVuSans-4a" x="726.746094"/>
      <use xlink:href="#DejaVuSans-2f" x="756.238281"/>
      <use xlink:href="#DejaVuSans-28" x="789.929688"/>
      <use xlink:href="#DejaVuSans-6d" x="828.943359"/>
      <use xlink:href="#DejaVuSans-6f" x="926.355469"/>
      <use xlink:href="#DejaVuSans-6c" x="987.537109"/>
      <use xlink:href="#DejaVuSans-2a" x="1015.320312"/>
      <use xlink:href="#DejaVuSans-41" x="1065.320312"/>
      <use xlink:href="#DejaVuSans-29" x="1133.728516"/>
      <use xlink:href="#DejaVuSans-5d" x="1172.742188"/>
     </g>
    </g>
   </g>
   <g id="line2d_11">
    <path d="M 83.72 499.48 
L 696.24 23.76 
" clip-path="url(#pe51fa65cb5)" style="fill: none; stroke-dasharray: 5.55,2.4; stroke-dashoffset: 0; stroke: #ff0000; stroke-width: 1.5"/>
   </g>
   <g id="patch_3">
    <path d="M 83.72 499.48 
L 83.72 23.76 
" style="fill: none; stroke: #000000; stroke-width: 0.8; stroke-linejoin: miter; stroke-linecap: square"/>
   </g>
   <g id="patch_4">
    <path d="M 696.24 499.48 
L 696.24 23.76 
" style="fill: none; stroke: #000000; stroke-width: 0.8; stroke-linejoin: miter; stroke-linecap: square"/>
   </g>
   <g id="patch_5">
    <path d="M 83.72 499.48 
L 696.24 499.48 
" style="fill: none; stroke: #000000; stroke-width: 0.8; stroke-linejoin: miter; stroke-linecap: square"/>
   </g>
   <g id="patch_6">
    <path d="M 83.72 23.76 
L 696.24 23.76 
" style="fill: none; stroke: #000000; stroke-width: 0.8; stroke-linejoin: miter; stroke-linecap: square"/>
   </g>
   <g id="text_13">
    <!-- Correlation in: 0.217 -->
    <g transform="translate(144.972 71.332) scale(0.22 -0.22)">
     <defs>
      <path id="DejaVuSans-43" d="M 4122 4306 
L 4122 3641 
Q 3803 3938 3442 4084 
Q 3081 4231 2675 4231 
Q 1875 4231 1450 3742 
Q 1025 3253 1025 2328 
Q 1025 1406 1450 917 
Q 1875 428 2675 428 
Q 3081 428 3442 575 
Q 3803 722 4122 1019 
L 4122 359 
Q 3791 134 3420 21 
Q 3050 -91 2638 -91 
Q 1578 -91 968 557 
Q 359 1206 359 2328 
Q 359 3453 968 4101 
Q 1578 4750 2638 4750 
Q 3056 4750 3426 4639 
Q 3797 4528 4122 4306 
z
" transform="scale(0.015625)"/>
      <path id="DejaVuSans-3a" d="M 750 794 
L 1409 794 
L 1409 0 
L 750 0 
L 750 794 
z
M 750 3309 
L 1409 3309 
L 1409 2516 
L 750 2516 
L 750 3309 
z
" transform="scale(0.015625)"/>
      <path id="DejaVuSans-2e" d="M 684 794 
L 1344 794 
L 1344 0 
L 684 0 
L 684 794 
z
" transform="scale(0.015625)"/>
      <path id="DejaVuSans-37" d="M 525 4666 
L 3525 4666 
L 3525 4397 
L 1831 0 
L 1172 0 
L 2766 4134 
L 525 4134 
L 525 4666 
z
" transform="scale(0.015625)"/>
     </defs>
     <use xlink:href="#DejaVuSans-43"/>
     <use xlink:href="#DejaVuSans-6f" x="69.824219"/>
     <use xlink:href="#DejaVuSans-72" x="131.005859"/>
     <use xlink:href="#DejaVuSans-72" x="170.369141"/>
     <use xlink:href="#DejaVuSans-65" x="209.232422"/>
     <use xlink:href="#DejaVuSans-6c" x="270.755859"/>
     <use xlink:href="#DejaVuSans-61" x="298.539062"/>
     <use xlink:href="#DejaVuSans-74" x="359.818359"/>
     <use xlink:href="#DejaVuSans-69" x="399.027344"/>
     <use xlink:href="#DejaVuSans-6f" x="426.810547"/>
     <use xlink:href="#DejaVuSans-6e" x="487.992188"/>
     <use xlink:href="#DejaVuSans-20" x="551.371094"/>
     <use xlink:href="#DejaVuSans-69" x="583.158203"/>
     <use xlink:href="#DejaVuSans-6e" x="610.941406"/>
     <use xlink:href="#DejaVuSans-3a" x="674.320312"/>
     <use xlink:href="#DejaVuSans-20" x="708.011719"/>
     <use xlink:href="#DejaVuSans-30" x="739.798828"/>
     <use xlink:href="#DejaVuSans-2e" x="803.421875"/>
     <use xlink:href="#DejaVuSans-32" x="835.208984"/>
     <use xlink:href="#DejaVuSans-31" x="898.832031"/>
     <use xlink:href="#DejaVuSans-37" x="962.455078"/>
    </g>
   </g>
  </g>
 </g>
 <defs>
  <clipPath id="pe51fa65cb5">
   <rect x="83.72" y="23.76" width="612.52" height="475.72"/>
  </clipPath>
 </defs>
</svg>
