<?xml version="1.0" encoding="utf-8" standalone="no"?>
<!DOCTYPE svg PUBLIC "-//W3C//DTD SVG 1.1//EN"
  "http://www.w3.org/Graphics/SVG/1.1/DTD/svg11.dtd">
<svg xmlns:xlink="http://www.w3.org/1999/xlink" width="720pt" height="576pt" viewBox="0 0 720 576" xmlns="http://www.w3.org/2000/svg" version="1.1">
 <metadata>
  <rdf:RDF xmlns:dc="http://purl.org/dc/elements/1.1/" xmlns:cc="http://creativecommons.org/ns#" xmlns:rdf="http://www.w3.org/1999/02/22-rdf-syntax-ns#">
   <cc:Work>
    <dc:type rdf:resource="http://purl.org/dc/dcmitype/StillImage"/>
    <dc:date>2024-11-30T23:37:05.885786</dc:date>
    <dc:format>image/svg+xml</dc:format>
    <dc:creator>
     <cc:Agent>
      <dc:title>Matplotlib v3.8.4, https://matplotlib.org/</dc:title>
     </cc:Agent>
    </dc:creator>
   </cc:Work>
  </rdf:RDF>
 </metadata>
 <defs>
  <style type="text/css">*{stroke-linejoin: round; stroke-linecap: butt}</style>
 </defs>
 <g id="figure_1">
  <g id="patch_1">
   <path d="M 0 576 
L 720 576 
L 720 0 
L 0 0 
z
" style="fill: #ffffff"/>
  </g>
  <g id="axes_1">
   <g id="patch_2">
    <path d="M 54.2 534.04 
L 709.2 534.04 
L 709.2 25.44 
L 54.2 25.44 
z
" style="fill: #ffffff"/>
   </g>
   <g id="PathCollection_1">
    <defs>
     <path id="m4f888335f5" d="M 0 3 
C 0.795609 3 1.55874 2.683901 2.12132 2.12132 
C 2.683901 1.55874 3 0.795609 3 0 
C 3 -0.795609 2.683901 -1.55874 2.12132 -2.12132 
C 1.55874 -2.683901 0.795609 -3 0 -3 
C -0.795609 -3 -1.55874 -2.683901 -2.12132 -2.12132 
C -2.683901 -1.55874 -3 -0.795609 -3 0 
C -3 0.795609 -2.683901 1.55874 -2.12132 2.12132 
C -1.55874 2.683901 -0.795609 3 0 3 
z
" style="stroke: #1f77b4"/>
    </defs>
    <g clip-path="url(#p446e9ec1cd)">
     <use xlink:href="#m4f888335f5" x="93.574852" y="491.83672" style="fill: #1f77b4; stroke: #1f77b4"/>
     <use xlink:href="#m4f888335f5" x="107.550688" y="482.378898" style="fill: #1f77b4; stroke: #1f77b4"/>
     <use xlink:href="#m4f888335f5" x="88.602163" y="490.686826" style="fill: #1f77b4; stroke: #1f77b4"/>
     <use xlink:href="#m4f888335f5" x="117.984025" y="491.71476" style="fill: #1f77b4; stroke: #1f77b4"/>
     <use xlink:href="#m4f888335f5" x="123.392846" y="490.804178" style="fill: #1f77b4; stroke: #1f77b4"/>
     <use xlink:href="#m4f888335f5" x="110.35499" y="491.973403" style="fill: #1f77b4; stroke: #1f77b4"/>
     <use xlink:href="#m4f888335f5" x="116.549039" y="492.438835" style="fill: #1f77b4; stroke: #1f77b4"/>
     <use xlink:href="#m4f888335f5" x="125.779395" y="494.015983" style="fill: #1f77b4; stroke: #1f77b4"/>
     <use xlink:href="#m4f888335f5" x="114.925967" y="493.033312" style="fill: #1f77b4; stroke: #1f77b4"/>
     <use xlink:href="#m4f888335f5" x="108.168567" y="492.995088" style="fill: #1f77b4; stroke: #1f77b4"/>
     <use xlink:href="#m4f888335f5" x="113.739052" y="486.940035" style="fill: #1f77b4; stroke: #1f77b4"/>
     <use xlink:href="#m4f888335f5" x="124.699562" y="492.9251" style="fill: #1f77b4; stroke: #1f77b4"/>
     <use xlink:href="#m4f888335f5" x="126.150783" y="492.025924" style="fill: #1f77b4; stroke: #1f77b4"/>
     <use xlink:href="#m4f888335f5" x="111.412257" y="492.306129" style="fill: #1f77b4; stroke: #1f77b4"/>
     <use xlink:href="#m4f888335f5" x="96.882346" y="491.908187" style="fill: #1f77b4; stroke: #1f77b4"/>
     <use xlink:href="#m4f888335f5" x="111.384995" y="491.534522" style="fill: #1f77b4; stroke: #1f77b4"/>
     <use xlink:href="#m4f888335f5" x="103.271068" y="489.366593" style="fill: #1f77b4; stroke: #1f77b4"/>
     <use xlink:href="#m4f888335f5" x="109.200434" y="493.281818" style="fill: #1f77b4; stroke: #1f77b4"/>
     <use xlink:href="#m4f888335f5" x="107.71939" y="492.003376" style="fill: #1f77b4; stroke: #1f77b4"/>
     <use xlink:href="#m4f888335f5" x="127.451359" y="491.803078" style="fill: #1f77b4; stroke: #1f77b4"/>
     <use xlink:href="#m4f888335f5" x="139.596471" y="492.947178" style="fill: #1f77b4; stroke: #1f77b4"/>
     <use xlink:href="#m4f888335f5" x="260.536024" y="305.090166" style="fill: #1f77b4; stroke: #1f77b4"/>
     <use xlink:href="#m4f888335f5" x="111.164972" y="492.739422" style="fill: #1f77b4; stroke: #1f77b4"/>
     <use xlink:href="#m4f888335f5" x="116.054031" y="492.292069" style="fill: #1f77b4; stroke: #1f77b4"/>
     <use xlink:href="#m4f888335f5" x="113.673825" y="491.355937" style="fill: #1f77b4; stroke: #1f77b4"/>
     <use xlink:href="#m4f888335f5" x="98.948745" y="491.491733" style="fill: #1f77b4; stroke: #1f77b4"/>
     <use xlink:href="#m4f888335f5" x="127.50172" y="493.534303" style="fill: #1f77b4; stroke: #1f77b4"/>
     <use xlink:href="#m4f888335f5" x="96.317808" y="490.268994" style="fill: #1f77b4; stroke: #1f77b4"/>
     <use xlink:href="#m4f888335f5" x="96.835183" y="487.304991" style="fill: #1f77b4; stroke: #1f77b4"/>
     <use xlink:href="#m4f888335f5" x="121.030593" y="491.1327" style="fill: #1f77b4; stroke: #1f77b4"/>
     <use xlink:href="#m4f888335f5" x="679.427273" y="61.74192" style="fill: #1f77b4; stroke: #1f77b4"/>
     <use xlink:href="#m4f888335f5" x="110.2377" y="493.365067" style="fill: #1f77b4; stroke: #1f77b4"/>
     <use xlink:href="#m4f888335f5" x="113.596259" y="492.676304" style="fill: #1f77b4; stroke: #1f77b4"/>
     <use xlink:href="#m4f888335f5" x="108.832976" y="491.579639" style="fill: #1f77b4; stroke: #1f77b4"/>
     <use xlink:href="#m4f888335f5" x="88.444773" y="485.239867" style="fill: #1f77b4; stroke: #1f77b4"/>
     <use xlink:href="#m4f888335f5" x="100.902339" y="492.258459" style="fill: #1f77b4; stroke: #1f77b4"/>
     <use xlink:href="#m4f888335f5" x="114.273648" y="491.4674" style="fill: #1f77b4; stroke: #1f77b4"/>
     <use xlink:href="#m4f888335f5" x="98.148916" y="492.449846" style="fill: #1f77b4; stroke: #1f77b4"/>
     <use xlink:href="#m4f888335f5" x="103.32236" y="493.222338" style="fill: #1f77b4; stroke: #1f77b4"/>
     <use xlink:href="#m4f888335f5" x="101.262536" y="490.768559" style="fill: #1f77b4; stroke: #1f77b4"/>
     <use xlink:href="#m4f888335f5" x="110.47731" y="490.157065" style="fill: #1f77b4; stroke: #1f77b4"/>
     <use xlink:href="#m4f888335f5" x="105.959396" y="491.077092" style="fill: #1f77b4; stroke: #1f77b4"/>
     <use xlink:href="#m4f888335f5" x="133.034045" y="491.770922" style="fill: #1f77b4; stroke: #1f77b4"/>
     <use xlink:href="#m4f888335f5" x="103.848387" y="493.618495" style="fill: #1f77b4; stroke: #1f77b4"/>
     <use xlink:href="#m4f888335f5" x="108.311794" y="493.022958" style="fill: #1f77b4; stroke: #1f77b4"/>
     <use xlink:href="#m4f888335f5" x="100.767238" y="492.817553" style="fill: #1f77b4; stroke: #1f77b4"/>
     <use xlink:href="#m4f888335f5" x="120.086709" y="492.995744" style="fill: #1f77b4; stroke: #1f77b4"/>
     <use xlink:href="#m4f888335f5" x="98.528398" y="492.865897" style="fill: #1f77b4; stroke: #1f77b4"/>
     <use xlink:href="#m4f888335f5" x="99.66678" y="490.417682" style="fill: #1f77b4; stroke: #1f77b4"/>
     <use xlink:href="#m4f888335f5" x="120.111079" y="492.744149" style="fill: #1f77b4; stroke: #1f77b4"/>
     <use xlink:href="#m4f888335f5" x="104.748707" y="491.26595" style="fill: #1f77b4; stroke: #1f77b4"/>
     <use xlink:href="#m4f888335f5" x="110.717586" y="492.026766" style="fill: #1f77b4; stroke: #1f77b4"/>
     <use xlink:href="#m4f888335f5" x="122.429525" y="492.076912" style="fill: #1f77b4; stroke: #1f77b4"/>
     <use xlink:href="#m4f888335f5" x="116.45904" y="492.093424" style="fill: #1f77b4; stroke: #1f77b4"/>
     <use xlink:href="#m4f888335f5" x="95.674574" y="492.255362" style="fill: #1f77b4; stroke: #1f77b4"/>
     <use xlink:href="#m4f888335f5" x="122.828477" y="493.054913" style="fill: #1f77b4; stroke: #1f77b4"/>
     <use xlink:href="#m4f888335f5" x="106.066048" y="493.341681" style="fill: #1f77b4; stroke: #1f77b4"/>
     <use xlink:href="#m4f888335f5" x="105.976401" y="493.449939" style="fill: #1f77b4; stroke: #1f77b4"/>
     <use xlink:href="#m4f888335f5" x="120.225" y="489.59237" style="fill: #1f77b4; stroke: #1f77b4"/>
     <use xlink:href="#m4f888335f5" x="114.625511" y="491.249848" style="fill: #1f77b4; stroke: #1f77b4"/>
     <use xlink:href="#m4f888335f5" x="118.214317" y="493.473144" style="fill: #1f77b4; stroke: #1f77b4"/>
     <use xlink:href="#m4f888335f5" x="117.824086" y="493.60373" style="fill: #1f77b4; stroke: #1f77b4"/>
     <use xlink:href="#m4f888335f5" x="103.615497" y="492.982944" style="fill: #1f77b4; stroke: #1f77b4"/>
     <use xlink:href="#m4f888335f5" x="96.816685" y="307.996334" style="fill: #1f77b4; stroke: #1f77b4"/>
     <use xlink:href="#m4f888335f5" x="108.324703" y="488.190327" style="fill: #1f77b4; stroke: #1f77b4"/>
     <use xlink:href="#m4f888335f5" x="122.430567" y="492.010553" style="fill: #1f77b4; stroke: #1f77b4"/>
     <use xlink:href="#m4f888335f5" x="118.057796" y="491.590527" style="fill: #1f77b4; stroke: #1f77b4"/>
     <use xlink:href="#m4f888335f5" x="111.186959" y="492.21186" style="fill: #1f77b4; stroke: #1f77b4"/>
     <use xlink:href="#m4f888335f5" x="130.257283" y="491.449398" style="fill: #1f77b4; stroke: #1f77b4"/>
     <use xlink:href="#m4f888335f5" x="112.527536" y="491.12695" style="fill: #1f77b4; stroke: #1f77b4"/>
     <use xlink:href="#m4f888335f5" x="118.94579" y="491.753597" style="fill: #1f77b4; stroke: #1f77b4"/>
     <use xlink:href="#m4f888335f5" x="83.972727" y="491.768652" style="fill: #1f77b4; stroke: #1f77b4"/>
     <use xlink:href="#m4f888335f5" x="110.720247" y="491.92338" style="fill: #1f77b4; stroke: #1f77b4"/>
     <use xlink:href="#m4f888335f5" x="103.524327" y="489.873055" style="fill: #1f77b4; stroke: #1f77b4"/>
     <use xlink:href="#m4f888335f5" x="131.002973" y="489.691968" style="fill: #1f77b4; stroke: #1f77b4"/>
     <use xlink:href="#m4f888335f5" x="131.980544" y="490.248805" style="fill: #1f77b4; stroke: #1f77b4"/>
     <use xlink:href="#m4f888335f5" x="99.595951" y="490.758372" style="fill: #1f77b4; stroke: #1f77b4"/>
     <use xlink:href="#m4f888335f5" x="106.512354" y="492.240154" style="fill: #1f77b4; stroke: #1f77b4"/>
     <use xlink:href="#m4f888335f5" x="117.623079" y="492.211472" style="fill: #1f77b4; stroke: #1f77b4"/>
     <use xlink:href="#m4f888335f5" x="163.812584" y="370.619747" style="fill: #1f77b4; stroke: #1f77b4"/>
     <use xlink:href="#m4f888335f5" x="96.836093" y="492.388772" style="fill: #1f77b4; stroke: #1f77b4"/>
     <use xlink:href="#m4f888335f5" x="106.454123" y="488.929767" style="fill: #1f77b4; stroke: #1f77b4"/>
     <use xlink:href="#m4f888335f5" x="104.517741" y="492.742699" style="fill: #1f77b4; stroke: #1f77b4"/>
     <use xlink:href="#m4f888335f5" x="101.223081" y="493.149168" style="fill: #1f77b4; stroke: #1f77b4"/>
     <use xlink:href="#m4f888335f5" x="112.101147" y="490.977735" style="fill: #1f77b4; stroke: #1f77b4"/>
     <use xlink:href="#m4f888335f5" x="111.717727" y="492.976456" style="fill: #1f77b4; stroke: #1f77b4"/>
     <use xlink:href="#m4f888335f5" x="119.381442" y="492.425676" style="fill: #1f77b4; stroke: #1f77b4"/>
     <use xlink:href="#m4f888335f5" x="105.979248" y="493.064832" style="fill: #1f77b4; stroke: #1f77b4"/>
     <use xlink:href="#m4f888335f5" x="105.301789" y="493.36913" style="fill: #1f77b4; stroke: #1f77b4"/>
     <use xlink:href="#m4f888335f5" x="124.078989" y="493.561932" style="fill: #1f77b4; stroke: #1f77b4"/>
     <use xlink:href="#m4f888335f5" x="121.272486" y="493.421349" style="fill: #1f77b4; stroke: #1f77b4"/>
     <use xlink:href="#m4f888335f5" x="162.257992" y="318.059545" style="fill: #1f77b4; stroke: #1f77b4"/>
     <use xlink:href="#m4f888335f5" x="126.671229" y="492.755819" style="fill: #1f77b4; stroke: #1f77b4"/>
     <use xlink:href="#m4f888335f5" x="120.590058" y="492.481865" style="fill: #1f77b4; stroke: #1f77b4"/>
     <use xlink:href="#m4f888335f5" x="115.270003" y="491.189045" style="fill: #1f77b4; stroke: #1f77b4"/>
     <use xlink:href="#m4f888335f5" x="105.692611" y="492.184007" style="fill: #1f77b4; stroke: #1f77b4"/>
     <use xlink:href="#m4f888335f5" x="123.791236" y="493.041841" style="fill: #1f77b4; stroke: #1f77b4"/>
     <use xlink:href="#m4f888335f5" x="117.201188" y="491.902667" style="fill: #1f77b4; stroke: #1f77b4"/>
     <use xlink:href="#m4f888335f5" x="115.388976" y="492.52856" style="fill: #1f77b4; stroke: #1f77b4"/>
     <use xlink:href="#m4f888335f5" x="106.846468" y="493.239462" style="fill: #1f77b4; stroke: #1f77b4"/>
     <use xlink:href="#m4f888335f5" x="92.002767" y="491.633709" style="fill: #1f77b4; stroke: #1f77b4"/>
     <use xlink:href="#m4f888335f5" x="105.12286" y="493.059632" style="fill: #1f77b4; stroke: #1f77b4"/>
     <use xlink:href="#m4f888335f5" x="117.530491" y="490.402396" style="fill: #1f77b4; stroke: #1f77b4"/>
     <use xlink:href="#m4f888335f5" x="120.896671" y="492.311194" style="fill: #1f77b4; stroke: #1f77b4"/>
     <use xlink:href="#m4f888335f5" x="114.327638" y="492.903431" style="fill: #1f77b4; stroke: #1f77b4"/>
     <use xlink:href="#m4f888335f5" x="134.679199" y="471.488067" style="fill: #1f77b4; stroke: #1f77b4"/>
     <use xlink:href="#m4f888335f5" x="101.84269" y="493.019815" style="fill: #1f77b4; stroke: #1f77b4"/>
     <use xlink:href="#m4f888335f5" x="92.696395" y="493.591739" style="fill: #1f77b4; stroke: #1f77b4"/>
     <use xlink:href="#m4f888335f5" x="138.063493" y="492.740094" style="fill: #1f77b4; stroke: #1f77b4"/>
     <use xlink:href="#m4f888335f5" x="122.83072" y="492.416601" style="fill: #1f77b4; stroke: #1f77b4"/>
     <use xlink:href="#m4f888335f5" x="96.719516" y="492.926245" style="fill: #1f77b4; stroke: #1f77b4"/>
     <use xlink:href="#m4f888335f5" x="112.669699" y="493.30642" style="fill: #1f77b4; stroke: #1f77b4"/>
     <use xlink:href="#m4f888335f5" x="122.24285" y="492.621926" style="fill: #1f77b4; stroke: #1f77b4"/>
     <use xlink:href="#m4f888335f5" x="121.290377" y="493.495415" style="fill: #1f77b4; stroke: #1f77b4"/>
     <use xlink:href="#m4f888335f5" x="113.688657" y="492.724877" style="fill: #1f77b4; stroke: #1f77b4"/>
     <use xlink:href="#m4f888335f5" x="136.821165" y="489.762837" style="fill: #1f77b4; stroke: #1f77b4"/>
     <use xlink:href="#m4f888335f5" x="93.870463" y="489.957168" style="fill: #1f77b4; stroke: #1f77b4"/>
     <use xlink:href="#m4f888335f5" x="122.058177" y="492.408585" style="fill: #1f77b4; stroke: #1f77b4"/>
     <use xlink:href="#m4f888335f5" x="109.600479" y="489.420856" style="fill: #1f77b4; stroke: #1f77b4"/>
     <use xlink:href="#m4f888335f5" x="116.570479" y="491.810154" style="fill: #1f77b4; stroke: #1f77b4"/>
     <use xlink:href="#m4f888335f5" x="108.368544" y="493.930872" style="fill: #1f77b4; stroke: #1f77b4"/>
     <use xlink:href="#m4f888335f5" x="120.621867" y="492.039798" style="fill: #1f77b4; stroke: #1f77b4"/>
     <use xlink:href="#m4f888335f5" x="131.273117" y="491.01782" style="fill: #1f77b4; stroke: #1f77b4"/>
     <use xlink:href="#m4f888335f5" x="118.734191" y="493.598355" style="fill: #1f77b4; stroke: #1f77b4"/>
     <use xlink:href="#m4f888335f5" x="112.545844" y="491.800804" style="fill: #1f77b4; stroke: #1f77b4"/>
     <use xlink:href="#m4f888335f5" x="103.694117" y="492.435983" style="fill: #1f77b4; stroke: #1f77b4"/>
     <use xlink:href="#m4f888335f5" x="129.329966" y="492.845272" style="fill: #1f77b4; stroke: #1f77b4"/>
     <use xlink:href="#m4f888335f5" x="115.088276" y="491.523978" style="fill: #1f77b4; stroke: #1f77b4"/>
     <use xlink:href="#m4f888335f5" x="120.800954" y="492.533437" style="fill: #1f77b4; stroke: #1f77b4"/>
     <use xlink:href="#m4f888335f5" x="97.056212" y="487.748328" style="fill: #1f77b4; stroke: #1f77b4"/>
     <use xlink:href="#m4f888335f5" x="120.17372" y="493.600512" style="fill: #1f77b4; stroke: #1f77b4"/>
     <use xlink:href="#m4f888335f5" x="124.019616" y="492.548274" style="fill: #1f77b4; stroke: #1f77b4"/>
     <use xlink:href="#m4f888335f5" x="119.09517" y="491.653229" style="fill: #1f77b4; stroke: #1f77b4"/>
     <use xlink:href="#m4f888335f5" x="126.163336" y="489.943339" style="fill: #1f77b4; stroke: #1f77b4"/>
     <use xlink:href="#m4f888335f5" x="119.753245" y="492.989652" style="fill: #1f77b4; stroke: #1f77b4"/>
     <use xlink:href="#m4f888335f5" x="117.726152" y="492.92661" style="fill: #1f77b4; stroke: #1f77b4"/>
     <use xlink:href="#m4f888335f5" x="103.196904" y="489.959205" style="fill: #1f77b4; stroke: #1f77b4"/>
     <use xlink:href="#m4f888335f5" x="112.826969" y="493.104369" style="fill: #1f77b4; stroke: #1f77b4"/>
     <use xlink:href="#m4f888335f5" x="102.014159" y="491.063843" style="fill: #1f77b4; stroke: #1f77b4"/>
     <use xlink:href="#m4f888335f5" x="106.990146" y="492.453447" style="fill: #1f77b4; stroke: #1f77b4"/>
     <use xlink:href="#m4f888335f5" x="110.145368" y="492.731556" style="fill: #1f77b4; stroke: #1f77b4"/>
     <use xlink:href="#m4f888335f5" x="105.546004" y="489.055776" style="fill: #1f77b4; stroke: #1f77b4"/>
     <use xlink:href="#m4f888335f5" x="126.362192" y="493.144612" style="fill: #1f77b4; stroke: #1f77b4"/>
     <use xlink:href="#m4f888335f5" x="133.390117" y="491.963702" style="fill: #1f77b4; stroke: #1f77b4"/>
     <use xlink:href="#m4f888335f5" x="101.437386" y="493.0453" style="fill: #1f77b4; stroke: #1f77b4"/>
     <use xlink:href="#m4f888335f5" x="122.833078" y="490.342835" style="fill: #1f77b4; stroke: #1f77b4"/>
     <use xlink:href="#m4f888335f5" x="118.018523" y="494.641468" style="fill: #1f77b4; stroke: #1f77b4"/>
     <use xlink:href="#m4f888335f5" x="117.96088" y="493.018027" style="fill: #1f77b4; stroke: #1f77b4"/>
     <use xlink:href="#m4f888335f5" x="103.067508" y="491.31983" style="fill: #1f77b4; stroke: #1f77b4"/>
     <use xlink:href="#m4f888335f5" x="104.930922" y="493.676164" style="fill: #1f77b4; stroke: #1f77b4"/>
     <use xlink:href="#m4f888335f5" x="103.536529" y="491.142433" style="fill: #1f77b4; stroke: #1f77b4"/>
     <use xlink:href="#m4f888335f5" x="114.122894" y="491.38363" style="fill: #1f77b4; stroke: #1f77b4"/>
     <use xlink:href="#m4f888335f5" x="105.610449" y="489.876626" style="fill: #1f77b4; stroke: #1f77b4"/>
     <use xlink:href="#m4f888335f5" x="121.772393" y="489.578757" style="fill: #1f77b4; stroke: #1f77b4"/>
     <use xlink:href="#m4f888335f5" x="126.535718" y="491.849569" style="fill: #1f77b4; stroke: #1f77b4"/>
     <use xlink:href="#m4f888335f5" x="126.328198" y="493.351249" style="fill: #1f77b4; stroke: #1f77b4"/>
     <use xlink:href="#m4f888335f5" x="107.496959" y="489.695047" style="fill: #1f77b4; stroke: #1f77b4"/>
     <use xlink:href="#m4f888335f5" x="110.471989" y="493.098549" style="fill: #1f77b4; stroke: #1f77b4"/>
     <use xlink:href="#m4f888335f5" x="116.247822" y="492.167103" style="fill: #1f77b4; stroke: #1f77b4"/>
     <use xlink:href="#m4f888335f5" x="103.993464" y="491.275215" style="fill: #1f77b4; stroke: #1f77b4"/>
     <use xlink:href="#m4f888335f5" x="109.478427" y="492.7977" style="fill: #1f77b4; stroke: #1f77b4"/>
     <use xlink:href="#m4f888335f5" x="89.549034" y="490.431811" style="fill: #1f77b4; stroke: #1f77b4"/>
     <use xlink:href="#m4f888335f5" x="109.332606" y="492.167174" style="fill: #1f77b4; stroke: #1f77b4"/>
     <use xlink:href="#m4f888335f5" x="111.695434" y="490.898036" style="fill: #1f77b4; stroke: #1f77b4"/>
     <use xlink:href="#m4f888335f5" x="116.745975" y="491.976758" style="fill: #1f77b4; stroke: #1f77b4"/>
     <use xlink:href="#m4f888335f5" x="115.407454" y="493.736471" style="fill: #1f77b4; stroke: #1f77b4"/>
     <use xlink:href="#m4f888335f5" x="105.727308" y="490.620052" style="fill: #1f77b4; stroke: #1f77b4"/>
     <use xlink:href="#m4f888335f5" x="112.880723" y="493.073721" style="fill: #1f77b4; stroke: #1f77b4"/>
     <use xlink:href="#m4f888335f5" x="120.680777" y="491.024275" style="fill: #1f77b4; stroke: #1f77b4"/>
     <use xlink:href="#m4f888335f5" x="117.925165" y="492.524702" style="fill: #1f77b4; stroke: #1f77b4"/>
     <use xlink:href="#m4f888335f5" x="107.525491" y="488.993043" style="fill: #1f77b4; stroke: #1f77b4"/>
     <use xlink:href="#m4f888335f5" x="98.76639" y="489.599043" style="fill: #1f77b4; stroke: #1f77b4"/>
     <use xlink:href="#m4f888335f5" x="106.250373" y="489.88817" style="fill: #1f77b4; stroke: #1f77b4"/>
     <use xlink:href="#m4f888335f5" x="117.530019" y="492.618336" style="fill: #1f77b4; stroke: #1f77b4"/>
     <use xlink:href="#m4f888335f5" x="107.178658" y="489.202044" style="fill: #1f77b4; stroke: #1f77b4"/>
     <use xlink:href="#m4f888335f5" x="129.656711" y="491.830605" style="fill: #1f77b4; stroke: #1f77b4"/>
     <use xlink:href="#m4f888335f5" x="117.583277" y="493.57323" style="fill: #1f77b4; stroke: #1f77b4"/>
     <use xlink:href="#m4f888335f5" x="126.634256" y="493.133301" style="fill: #1f77b4; stroke: #1f77b4"/>
     <use xlink:href="#m4f888335f5" x="114.151683" y="492.663747" style="fill: #1f77b4; stroke: #1f77b4"/>
     <use xlink:href="#m4f888335f5" x="108.128301" y="492.517321" style="fill: #1f77b4; stroke: #1f77b4"/>
     <use xlink:href="#m4f888335f5" x="112.975724" y="492.903" style="fill: #1f77b4; stroke: #1f77b4"/>
     <use xlink:href="#m4f888335f5" x="120.599699" y="493.448116" style="fill: #1f77b4; stroke: #1f77b4"/>
     <use xlink:href="#m4f888335f5" x="109.427822" y="492.980005" style="fill: #1f77b4; stroke: #1f77b4"/>
     <use xlink:href="#m4f888335f5" x="102.381882" y="489.325253" style="fill: #1f77b4; stroke: #1f77b4"/>
     <use xlink:href="#m4f888335f5" x="105.254245" y="491.589245" style="fill: #1f77b4; stroke: #1f77b4"/>
     <use xlink:href="#m4f888335f5" x="111.55536" y="493.013431" style="fill: #1f77b4; stroke: #1f77b4"/>
     <use xlink:href="#m4f888335f5" x="117.167592" y="490.928245" style="fill: #1f77b4; stroke: #1f77b4"/>
     <use xlink:href="#m4f888335f5" x="115.212715" y="492.135616" style="fill: #1f77b4; stroke: #1f77b4"/>
     <use xlink:href="#m4f888335f5" x="135.25056" y="492.311967" style="fill: #1f77b4; stroke: #1f77b4"/>
     <use xlink:href="#m4f888335f5" x="90.355065" y="490.318938" style="fill: #1f77b4; stroke: #1f77b4"/>
     <use xlink:href="#m4f888335f5" x="109.934849" y="491.681021" style="fill: #1f77b4; stroke: #1f77b4"/>
     <use xlink:href="#m4f888335f5" x="109.895994" y="472.353973" style="fill: #1f77b4; stroke: #1f77b4"/>
     <use xlink:href="#m4f888335f5" x="119.844584" y="491.440001" style="fill: #1f77b4; stroke: #1f77b4"/>
     <use xlink:href="#m4f888335f5" x="105.208448" y="490.030738" style="fill: #1f77b4; stroke: #1f77b4"/>
     <use xlink:href="#m4f888335f5" x="107.8053" y="491.820307" style="fill: #1f77b4; stroke: #1f77b4"/>
     <use xlink:href="#m4f888335f5" x="166.423492" y="306.220298" style="fill: #1f77b4; stroke: #1f77b4"/>
     <use xlink:href="#m4f888335f5" x="109.091792" y="492.779722" style="fill: #1f77b4; stroke: #1f77b4"/>
     <use xlink:href="#m4f888335f5" x="128.369814" y="492.877001" style="fill: #1f77b4; stroke: #1f77b4"/>
     <use xlink:href="#m4f888335f5" x="114.448953" y="492.419797" style="fill: #1f77b4; stroke: #1f77b4"/>
     <use xlink:href="#m4f888335f5" x="114.235111" y="492.881012" style="fill: #1f77b4; stroke: #1f77b4"/>
     <use xlink:href="#m4f888335f5" x="121.275995" y="491.105798" style="fill: #1f77b4; stroke: #1f77b4"/>
     <use xlink:href="#m4f888335f5" x="102.627073" y="490.824417" style="fill: #1f77b4; stroke: #1f77b4"/>
     <use xlink:href="#m4f888335f5" x="97.204156" y="491.664716" style="fill: #1f77b4; stroke: #1f77b4"/>
     <use xlink:href="#m4f888335f5" x="99.059625" y="491.740622" style="fill: #1f77b4; stroke: #1f77b4"/>
     <use xlink:href="#m4f888335f5" x="119.181238" y="491.972519" style="fill: #1f77b4; stroke: #1f77b4"/>
     <use xlink:href="#m4f888335f5" x="115.54553" y="492.230531" style="fill: #1f77b4; stroke: #1f77b4"/>
     <use xlink:href="#m4f888335f5" x="112.284765" y="492.950754" style="fill: #1f77b4; stroke: #1f77b4"/>
     <use xlink:href="#m4f888335f5" x="107.259964" y="491.660182" style="fill: #1f77b4; stroke: #1f77b4"/>
     <use xlink:href="#m4f888335f5" x="123.144878" y="492.14475" style="fill: #1f77b4; stroke: #1f77b4"/>
    </g>
   </g>
   <g id="matplotlib.axis_1">
    <g id="xtick_1">
     <g id="line2d_1">
      <defs>
       <path id="m12a56c474e" d="M 0 0 
L 0 3.5 
" style="stroke: #000000; stroke-width: 0.8"/>
      </defs>
      <g>
       <use xlink:href="#m12a56c474e" x="185.838042" y="534.04" style="stroke: #000000; stroke-width: 0.8"/>
      </g>
     </g>
     <g id="text_1">
      <!-- 2 -->
      <g transform="translate(182.656792 548.638438) scale(0.1 -0.1)">
       <defs>
        <path id="DejaVuSans-32" d="M 1228 531 
L 3431 531 
L 3431 0 
L 469 0 
L 469 531 
Q 828 903 1448 1529 
Q 2069 2156 2228 2338 
Q 2531 2678 2651 2914 
Q 2772 3150 2772 3378 
Q 2772 3750 2511 3984 
Q 2250 4219 1831 4219 
Q 1534 4219 1204 4116 
Q 875 4013 500 3803 
L 500 4441 
Q 881 4594 1212 4672 
Q 1544 4750 1819 4750 
Q 2544 4750 2975 4387 
Q 3406 4025 3406 3419 
Q 3406 3131 3298 2873 
Q 3191 2616 2906 2266 
Q 2828 2175 2409 1742 
Q 1991 1309 1228 531 
z
" transform="scale(0.015625)"/>
       </defs>
       <use xlink:href="#DejaVuSans-32"/>
      </g>
     </g>
    </g>
    <g id="xtick_2">
     <g id="line2d_2">
      <g>
       <use xlink:href="#m12a56c474e" x="324.668865" y="534.04" style="stroke: #000000; stroke-width: 0.8"/>
      </g>
     </g>
     <g id="text_2">
      <!-- 4 -->
      <g transform="translate(321.487615 548.638438) scale(0.1 -0.1)">
       <defs>
        <path id="DejaVuSans-34" d="M 2419 4116 
L 825 1625 
L 2419 1625 
L 2419 4116 
z
M 2253 4666 
L 3047 4666 
L 3047 1625 
L 3713 1625 
L 3713 1100 
L 3047 1100 
L 3047 0 
L 2419 0 
L 2419 1100 
L 313 1100 
L 313 1709 
L 2253 4666 
z
" transform="scale(0.015625)"/>
       </defs>
       <use xlink:href="#DejaVuSans-34"/>
      </g>
     </g>
    </g>
    <g id="xtick_3">
     <g id="line2d_3">
      <g>
       <use xlink:href="#m12a56c474e" x="463.499689" y="534.04" style="stroke: #000000; stroke-width: 0.8"/>
      </g>
     </g>
     <g id="text_3">
      <!-- 6 -->
      <g transform="translate(460.318439 548.638438) scale(0.1 -0.1)">
       <defs>
        <path id="DejaVuSans-36" d="M 2113 2584 
Q 1688 2584 1439 2293 
Q 1191 2003 1191 1497 
Q 1191 994 1439 701 
Q 1688 409 2113 409 
Q 2538 409 2786 701 
Q 3034 994 3034 1497 
Q 3034 2003 2786 2293 
Q 2538 2584 2113 2584 
z
M 3366 4563 
L 3366 3988 
Q 3128 4100 2886 4159 
Q 2644 4219 2406 4219 
Q 1781 4219 1451 3797 
Q 1122 3375 1075 2522 
Q 1259 2794 1537 2939 
Q 1816 3084 2150 3084 
Q 2853 3084 3261 2657 
Q 3669 2231 3669 1497 
Q 3669 778 3244 343 
Q 2819 -91 2113 -91 
Q 1303 -91 875 529 
Q 447 1150 447 2328 
Q 447 3434 972 4092 
Q 1497 4750 2381 4750 
Q 2619 4750 2861 4703 
Q 3103 4656 3366 4563 
z
" transform="scale(0.015625)"/>
       </defs>
       <use xlink:href="#DejaVuSans-36"/>
      </g>
     </g>
    </g>
    <g id="xtick_4">
     <g id="line2d_4">
      <g>
       <use xlink:href="#m12a56c474e" x="602.330512" y="534.04" style="stroke: #000000; stroke-width: 0.8"/>
      </g>
     </g>
     <g id="text_4">
      <!-- 8 -->
      <g transform="translate(599.149262 548.638438) scale(0.1 -0.1)">
       <defs>
        <path id="DejaVuSans-38" d="M 2034 2216 
Q 1584 2216 1326 1975 
Q 1069 1734 1069 1313 
Q 1069 891 1326 650 
Q 1584 409 2034 409 
Q 2484 409 2743 651 
Q 3003 894 3003 1313 
Q 3003 1734 2745 1975 
Q 2488 2216 2034 2216 
z
M 1403 2484 
Q 997 2584 770 2862 
Q 544 3141 544 3541 
Q 544 4100 942 4425 
Q 1341 4750 2034 4750 
Q 2731 4750 3128 4425 
Q 3525 4100 3525 3541 
Q 3525 3141 3298 2862 
Q 3072 2584 2669 2484 
Q 3125 2378 3379 2068 
Q 3634 1759 3634 1313 
Q 3634 634 3220 271 
Q 2806 -91 2034 -91 
Q 1263 -91 848 271 
Q 434 634 434 1313 
Q 434 1759 690 2068 
Q 947 2378 1403 2484 
z
M 1172 3481 
Q 1172 3119 1398 2916 
Q 1625 2713 2034 2713 
Q 2441 2713 2670 2916 
Q 2900 3119 2900 3481 
Q 2900 3844 2670 4047 
Q 2441 4250 2034 4250 
Q 1625 4250 1398 4047 
Q 1172 3844 1172 3481 
z
" transform="scale(0.015625)"/>
       </defs>
       <use xlink:href="#DejaVuSans-38"/>
      </g>
     </g>
    </g>
    <g id="text_5">
     <!-- Uncertainties -->
     <g transform="translate(348.378125 562.316563) scale(0.1 -0.1)">
      <defs>
       <path id="DejaVuSans-55" d="M 556 4666 
L 1191 4666 
L 1191 1831 
Q 1191 1081 1462 751 
Q 1734 422 2344 422 
Q 2950 422 3222 751 
Q 3494 1081 3494 1831 
L 3494 4666 
L 4128 4666 
L 4128 1753 
Q 4128 841 3676 375 
Q 3225 -91 2344 -91 
Q 1459 -91 1007 375 
Q 556 841 556 1753 
L 556 4666 
z
" transform="scale(0.015625)"/>
       <path id="DejaVuSans-6e" d="M 3513 2113 
L 3513 0 
L 2938 0 
L 2938 2094 
Q 2938 2591 2744 2837 
Q 2550 3084 2163 3084 
Q 1697 3084 1428 2787 
Q 1159 2491 1159 1978 
L 1159 0 
L 581 0 
L 581 3500 
L 1159 3500 
L 1159 2956 
Q 1366 3272 1645 3428 
Q 1925 3584 2291 3584 
Q 2894 3584 3203 3211 
Q 3513 2838 3513 2113 
z
" transform="scale(0.015625)"/>
       <path id="DejaVuSans-63" d="M 3122 3366 
L 3122 2828 
Q 2878 2963 2633 3030 
Q 2388 3097 2138 3097 
Q 1578 3097 1268 2742 
Q 959 2388 959 1747 
Q 959 1106 1268 751 
Q 1578 397 2138 397 
Q 2388 397 2633 464 
Q 2878 531 3122 666 
L 3122 134 
Q 2881 22 2623 -34 
Q 2366 -91 2075 -91 
Q 1284 -91 818 406 
Q 353 903 353 1747 
Q 353 2603 823 3093 
Q 1294 3584 2113 3584 
Q 2378 3584 2631 3529 
Q 2884 3475 3122 3366 
z
" transform="scale(0.015625)"/>
       <path id="DejaVuSans-65" d="M 3597 1894 
L 3597 1613 
L 953 1613 
Q 991 1019 1311 708 
Q 1631 397 2203 397 
Q 2534 397 2845 478 
Q 3156 559 3463 722 
L 3463 178 
Q 3153 47 2828 -22 
Q 2503 -91 2169 -91 
Q 1331 -91 842 396 
Q 353 884 353 1716 
Q 353 2575 817 3079 
Q 1281 3584 2069 3584 
Q 2775 3584 3186 3129 
Q 3597 2675 3597 1894 
z
M 3022 2063 
Q 3016 2534 2758 2815 
Q 2500 3097 2075 3097 
Q 1594 3097 1305 2825 
Q 1016 2553 972 2059 
L 3022 2063 
z
" transform="scale(0.015625)"/>
       <path id="DejaVuSans-72" d="M 2631 2963 
Q 2534 3019 2420 3045 
Q 2306 3072 2169 3072 
Q 1681 3072 1420 2755 
Q 1159 2438 1159 1844 
L 1159 0 
L 581 0 
L 581 3500 
L 1159 3500 
L 1159 2956 
Q 1341 3275 1631 3429 
Q 1922 3584 2338 3584 
Q 2397 3584 2469 3576 
Q 2541 3569 2628 3553 
L 2631 2963 
z
" transform="scale(0.015625)"/>
       <path id="DejaVuSans-74" d="M 1172 4494 
L 1172 3500 
L 2356 3500 
L 2356 3053 
L 1172 3053 
L 1172 1153 
Q 1172 725 1289 603 
Q 1406 481 1766 481 
L 2356 481 
L 2356 0 
L 1766 0 
Q 1100 0 847 248 
Q 594 497 594 1153 
L 594 3053 
L 172 3053 
L 172 3500 
L 594 3500 
L 594 4494 
L 1172 4494 
z
" transform="scale(0.015625)"/>
       <path id="DejaVuSans-61" d="M 2194 1759 
Q 1497 1759 1228 1600 
Q 959 1441 959 1056 
Q 959 750 1161 570 
Q 1363 391 1709 391 
Q 2188 391 2477 730 
Q 2766 1069 2766 1631 
L 2766 1759 
L 2194 1759 
z
M 3341 1997 
L 3341 0 
L 2766 0 
L 2766 531 
Q 2569 213 2275 61 
Q 1981 -91 1556 -91 
Q 1019 -91 701 211 
Q 384 513 384 1019 
Q 384 1609 779 1909 
Q 1175 2209 1959 2209 
L 2766 2209 
L 2766 2266 
Q 2766 2663 2505 2880 
Q 2244 3097 1772 3097 
Q 1472 3097 1187 3025 
Q 903 2953 641 2809 
L 641 3341 
Q 956 3463 1253 3523 
Q 1550 3584 1831 3584 
Q 2591 3584 2966 3190 
Q 3341 2797 3341 1997 
z
" transform="scale(0.015625)"/>
       <path id="DejaVuSans-69" d="M 603 3500 
L 1178 3500 
L 1178 0 
L 603 0 
L 603 3500 
z
M 603 4863 
L 1178 4863 
L 1178 4134 
L 603 4134 
L 603 4863 
z
" transform="scale(0.015625)"/>
       <path id="DejaVuSans-73" d="M 2834 3397 
L 2834 2853 
Q 2591 2978 2328 3040 
Q 2066 3103 1784 3103 
Q 1356 3103 1142 2972 
Q 928 2841 928 2578 
Q 928 2378 1081 2264 
Q 1234 2150 1697 2047 
L 1894 2003 
Q 2506 1872 2764 1633 
Q 3022 1394 3022 966 
Q 3022 478 2636 193 
Q 2250 -91 1575 -91 
Q 1294 -91 989 -36 
Q 684 19 347 128 
L 347 722 
Q 666 556 975 473 
Q 1284 391 1588 391 
Q 1994 391 2212 530 
Q 2431 669 2431 922 
Q 2431 1156 2273 1281 
Q 2116 1406 1581 1522 
L 1381 1569 
Q 847 1681 609 1914 
Q 372 2147 372 2553 
Q 372 3047 722 3315 
Q 1072 3584 1716 3584 
Q 2034 3584 2315 3537 
Q 2597 3491 2834 3397 
z
" transform="scale(0.015625)"/>
      </defs>
      <use xlink:href="#DejaVuSans-55"/>
      <use xlink:href="#DejaVuSans-6e" x="73.193359"/>
      <use xlink:href="#DejaVuSans-63" x="136.572266"/>
      <use xlink:href="#DejaVuSans-65" x="191.552734"/>
      <use xlink:href="#DejaVuSans-72" x="253.076172"/>
      <use xlink:href="#DejaVuSans-74" x="294.189453"/>
      <use xlink:href="#DejaVuSans-61" x="333.398438"/>
      <use xlink:href="#DejaVuSans-69" x="394.677734"/>
      <use xlink:href="#DejaVuSans-6e" x="422.460938"/>
      <use xlink:href="#DejaVuSans-74" x="485.839844"/>
      <use xlink:href="#DejaVuSans-69" x="525.048828"/>
      <use xlink:href="#DejaVuSans-65" x="552.832031"/>
      <use xlink:href="#DejaVuSans-73" x="614.355469"/>
     </g>
    </g>
   </g>
   <g id="matplotlib.axis_2">
    <g id="ytick_1">
     <g id="line2d_5">
      <defs>
       <path id="m09587f7acb" d="M 0 0 
L -3.5 0 
" style="stroke: #000000; stroke-width: 0.8"/>
      </defs>
      <g>
       <use xlink:href="#m09587f7acb" x="54.2" y="497.512079" style="stroke: #000000; stroke-width: 0.8"/>
      </g>
     </g>
     <g id="text_6">
      <!-- 0.0 -->
      <g transform="translate(31.296875 501.311298) scale(0.1 -0.1)">
       <defs>
        <path id="DejaVuSans-30" d="M 2034 4250 
Q 1547 4250 1301 3770 
Q 1056 3291 1056 2328 
Q 1056 1369 1301 889 
Q 1547 409 2034 409 
Q 2525 409 2770 889 
Q 3016 1369 3016 2328 
Q 3016 3291 2770 3770 
Q 2525 4250 2034 4250 
z
M 2034 4750 
Q 2819 4750 3233 4129 
Q 3647 3509 3647 2328 
Q 3647 1150 3233 529 
Q 2819 -91 2034 -91 
Q 1250 -91 836 529 
Q 422 1150 422 2328 
Q 422 3509 836 4129 
Q 1250 4750 2034 4750 
z
" transform="scale(0.015625)"/>
        <path id="DejaVuSans-2e" d="M 684 794 
L 1344 794 
L 1344 0 
L 684 0 
L 684 794 
z
" transform="scale(0.015625)"/>
       </defs>
       <use xlink:href="#DejaVuSans-30"/>
       <use xlink:href="#DejaVuSans-2e" x="63.623047"/>
       <use xlink:href="#DejaVuSans-30" x="95.410156"/>
      </g>
     </g>
    </g>
    <g id="ytick_2">
     <g id="line2d_6">
      <g>
       <use xlink:href="#m09587f7acb" x="54.2" y="440.911766" style="stroke: #000000; stroke-width: 0.8"/>
      </g>
     </g>
     <g id="text_7">
      <!-- 2.5 -->
      <g transform="translate(31.296875 444.710985) scale(0.1 -0.1)">
       <defs>
        <path id="DejaVuSans-35" d="M 691 4666 
L 3169 4666 
L 3169 4134 
L 1269 4134 
L 1269 2991 
Q 1406 3038 1543 3061 
Q 1681 3084 1819 3084 
Q 2600 3084 3056 2656 
Q 3513 2228 3513 1497 
Q 3513 744 3044 326 
Q 2575 -91 1722 -91 
Q 1428 -91 1123 -41 
Q 819 9 494 109 
L 494 744 
Q 775 591 1075 516 
Q 1375 441 1709 441 
Q 2250 441 2565 725 
Q 2881 1009 2881 1497 
Q 2881 1984 2565 2268 
Q 2250 2553 1709 2553 
Q 1456 2553 1204 2497 
Q 953 2441 691 2322 
L 691 4666 
z
" transform="scale(0.015625)"/>
       </defs>
       <use xlink:href="#DejaVuSans-32"/>
       <use xlink:href="#DejaVuSans-2e" x="63.623047"/>
       <use xlink:href="#DejaVuSans-35" x="95.410156"/>
      </g>
     </g>
    </g>
    <g id="ytick_3">
     <g id="line2d_7">
      <g>
       <use xlink:href="#m09587f7acb" x="54.2" y="384.311453" style="stroke: #000000; stroke-width: 0.8"/>
      </g>
     </g>
     <g id="text_8">
      <!-- 5.0 -->
      <g transform="translate(31.296875 388.110672) scale(0.1 -0.1)">
       <use xlink:href="#DejaVuSans-35"/>
       <use xlink:href="#DejaVuSans-2e" x="63.623047"/>
       <use xlink:href="#DejaVuSans-30" x="95.410156"/>
      </g>
     </g>
    </g>
    <g id="ytick_4">
     <g id="line2d_8">
      <g>
       <use xlink:href="#m09587f7acb" x="54.2" y="327.71114" style="stroke: #000000; stroke-width: 0.8"/>
      </g>
     </g>
     <g id="text_9">
      <!-- 7.5 -->
      <g transform="translate(31.296875 331.510359) scale(0.1 -0.1)">
       <defs>
        <path id="DejaVuSans-37" d="M 525 4666 
L 3525 4666 
L 3525 4397 
L 1831 0 
L 1172 0 
L 2766 4134 
L 525 4134 
L 525 4666 
z
" transform="scale(0.015625)"/>
       </defs>
       <use xlink:href="#DejaVuSans-37"/>
       <use xlink:href="#DejaVuSans-2e" x="63.623047"/>
       <use xlink:href="#DejaVuSans-35" x="95.410156"/>
      </g>
     </g>
    </g>
    <g id="ytick_5">
     <g id="line2d_9">
      <g>
       <use xlink:href="#m09587f7acb" x="54.2" y="271.110827" style="stroke: #000000; stroke-width: 0.8"/>
      </g>
     </g>
     <g id="text_10">
      <!-- 10.0 -->
      <g transform="translate(24.934375 274.910046) scale(0.1 -0.1)">
       <defs>
        <path id="DejaVuSans-31" d="M 794 531 
L 1825 531 
L 1825 4091 
L 703 3866 
L 703 4441 
L 1819 4666 
L 2450 4666 
L 2450 531 
L 3481 531 
L 3481 0 
L 794 0 
L 794 531 
z
" transform="scale(0.015625)"/>
       </defs>
       <use xlink:href="#DejaVuSans-31"/>
       <use xlink:href="#DejaVuSans-30" x="63.623047"/>
       <use xlink:href="#DejaVuSans-2e" x="127.246094"/>
       <use xlink:href="#DejaVuSans-30" x="159.033203"/>
      </g>
     </g>
    </g>
    <g id="ytick_6">
     <g id="line2d_10">
      <g>
       <use xlink:href="#m09587f7acb" x="54.2" y="214.510514" style="stroke: #000000; stroke-width: 0.8"/>
      </g>
     </g>
     <g id="text_11">
      <!-- 12.5 -->
      <g transform="translate(24.934375 218.309733) scale(0.1 -0.1)">
       <use xlink:href="#DejaVuSans-31"/>
       <use xlink:href="#DejaVuSans-32" x="63.623047"/>
       <use xlink:href="#DejaVuSans-2e" x="127.246094"/>
       <use xlink:href="#DejaVuSans-35" x="159.033203"/>
      </g>
     </g>
    </g>
    <g id="ytick_7">
     <g id="line2d_11">
      <g>
       <use xlink:href="#m09587f7acb" x="54.2" y="157.910201" style="stroke: #000000; stroke-width: 0.8"/>
      </g>
     </g>
     <g id="text_12">
      <!-- 15.0 -->
      <g transform="translate(24.934375 161.709419) scale(0.1 -0.1)">
       <use xlink:href="#DejaVuSans-31"/>
       <use xlink:href="#DejaVuSans-35" x="63.623047"/>
       <use xlink:href="#DejaVuSans-2e" x="127.246094"/>
       <use xlink:href="#DejaVuSans-30" x="159.033203"/>
      </g>
     </g>
    </g>
    <g id="ytick_8">
     <g id="line2d_12">
      <g>
       <use xlink:href="#m09587f7acb" x="54.2" y="101.309888" style="stroke: #000000; stroke-width: 0.8"/>
      </g>
     </g>
     <g id="text_13">
      <!-- 17.5 -->
      <g transform="translate(24.934375 105.109106) scale(0.1 -0.1)">
       <use xlink:href="#DejaVuSans-31"/>
       <use xlink:href="#DejaVuSans-37" x="63.623047"/>
       <use xlink:href="#DejaVuSans-2e" x="127.246094"/>
       <use xlink:href="#DejaVuSans-35" x="159.033203"/>
      </g>
     </g>
    </g>
    <g id="ytick_9">
     <g id="line2d_13">
      <g>
       <use xlink:href="#m09587f7acb" x="54.2" y="44.709575" style="stroke: #000000; stroke-width: 0.8"/>
      </g>
     </g>
     <g id="text_14">
      <!-- 20.0 -->
      <g transform="translate(24.934375 48.508793) scale(0.1 -0.1)">
       <use xlink:href="#DejaVuSans-32"/>
       <use xlink:href="#DejaVuSans-30" x="63.623047"/>
       <use xlink:href="#DejaVuSans-2e" x="127.246094"/>
       <use xlink:href="#DejaVuSans-30" x="159.033203"/>
      </g>
     </g>
    </g>
    <g id="text_15">
     <!-- Force Errors -->
     <g transform="translate(18.854688 309.641563) rotate(-90) scale(0.1 -0.1)">
      <defs>
       <path id="DejaVuSans-46" d="M 628 4666 
L 3309 4666 
L 3309 4134 
L 1259 4134 
L 1259 2759 
L 3109 2759 
L 3109 2228 
L 1259 2228 
L 1259 0 
L 628 0 
L 628 4666 
z
" transform="scale(0.015625)"/>
       <path id="DejaVuSans-6f" d="M 1959 3097 
Q 1497 3097 1228 2736 
Q 959 2375 959 1747 
Q 959 1119 1226 758 
Q 1494 397 1959 397 
Q 2419 397 2687 759 
Q 2956 1122 2956 1747 
Q 2956 2369 2687 2733 
Q 2419 3097 1959 3097 
z
M 1959 3584 
Q 2709 3584 3137 3096 
Q 3566 2609 3566 1747 
Q 3566 888 3137 398 
Q 2709 -91 1959 -91 
Q 1206 -91 779 398 
Q 353 888 353 1747 
Q 353 2609 779 3096 
Q 1206 3584 1959 3584 
z
" transform="scale(0.015625)"/>
       <path id="DejaVuSans-20" transform="scale(0.015625)"/>
       <path id="DejaVuSans-45" d="M 628 4666 
L 3578 4666 
L 3578 4134 
L 1259 4134 
L 1259 2753 
L 3481 2753 
L 3481 2222 
L 1259 2222 
L 1259 531 
L 3634 531 
L 3634 0 
L 628 0 
L 628 4666 
z
" transform="scale(0.015625)"/>
      </defs>
      <use xlink:href="#DejaVuSans-46"/>
      <use xlink:href="#DejaVuSans-6f" x="53.894531"/>
      <use xlink:href="#DejaVuSans-72" x="115.076172"/>
      <use xlink:href="#DejaVuSans-63" x="153.939453"/>
      <use xlink:href="#DejaVuSans-65" x="208.919922"/>
      <use xlink:href="#DejaVuSans-20" x="270.443359"/>
      <use xlink:href="#DejaVuSans-45" x="302.230469"/>
      <use xlink:href="#DejaVuSans-72" x="365.414062"/>
      <use xlink:href="#DejaVuSans-72" x="404.777344"/>
      <use xlink:href="#DejaVuSans-6f" x="443.640625"/>
      <use xlink:href="#DejaVuSans-72" x="504.822266"/>
      <use xlink:href="#DejaVuSans-73" x="545.935547"/>
     </g>
    </g>
   </g>
   <g id="line2d_14">
    <path d="M 93.574852 503.465879 
L 679.427273 48.558182 
L 83.972727 510.921818 
L 123.144878 480.505096 
" clip-path="url(#p446e9ec1cd)" style="fill: none; stroke: #ff0000; stroke-width: 1.5; stroke-linecap: square"/>
   </g>
   <g id="patch_3">
    <path d="M 54.2 534.04 
L 54.2 25.44 
" style="fill: none; stroke: #000000; stroke-width: 0.8; stroke-linejoin: miter; stroke-linecap: square"/>
   </g>
   <g id="patch_4">
    <path d="M 709.2 534.04 
L 709.2 25.44 
" style="fill: none; stroke: #000000; stroke-width: 0.8; stroke-linejoin: miter; stroke-linecap: square"/>
   </g>
   <g id="patch_5">
    <path d="M 54.2 534.04 
L 709.2 534.04 
" style="fill: none; stroke: #000000; stroke-width: 0.8; stroke-linejoin: miter; stroke-linecap: square"/>
   </g>
   <g id="patch_6">
    <path d="M 54.2 25.44 
L 709.2 25.44 
" style="fill: none; stroke: #000000; stroke-width: 0.8; stroke-linejoin: miter; stroke-linecap: square"/>
   </g>
   <g id="text_16">
    <!-- Uncertainty Calibration -->
    <g transform="translate(312.094375 19.44) scale(0.12 -0.12)">
     <defs>
      <path id="DejaVuSans-79" d="M 2059 -325 
Q 1816 -950 1584 -1140 
Q 1353 -1331 966 -1331 
L 506 -1331 
L 506 -850 
L 844 -850 
Q 1081 -850 1212 -737 
Q 1344 -625 1503 -206 
L 1606 56 
L 191 3500 
L 800 3500 
L 1894 763 
L 2988 3500 
L 3597 3500 
L 2059 -325 
z
" transform="scale(0.015625)"/>
      <path id="DejaVuSans-43" d="M 4122 4306 
L 4122 3641 
Q 3803 3938 3442 4084 
Q 3081 4231 2675 4231 
Q 1875 4231 1450 3742 
Q 1025 3253 1025 2328 
Q 1025 1406 1450 917 
Q 1875 428 2675 428 
Q 3081 428 3442 575 
Q 3803 722 4122 1019 
L 4122 359 
Q 3791 134 3420 21 
Q 3050 -91 2638 -91 
Q 1578 -91 968 557 
Q 359 1206 359 2328 
Q 359 3453 968 4101 
Q 1578 4750 2638 4750 
Q 3056 4750 3426 4639 
Q 3797 4528 4122 4306 
z
" transform="scale(0.015625)"/>
      <path id="DejaVuSans-6c" d="M 603 4863 
L 1178 4863 
L 1178 0 
L 603 0 
L 603 4863 
z
" transform="scale(0.015625)"/>
      <path id="DejaVuSans-62" d="M 3116 1747 
Q 3116 2381 2855 2742 
Q 2594 3103 2138 3103 
Q 1681 3103 1420 2742 
Q 1159 2381 1159 1747 
Q 1159 1113 1420 752 
Q 1681 391 2138 391 
Q 2594 391 2855 752 
Q 3116 1113 3116 1747 
z
M 1159 2969 
Q 1341 3281 1617 3432 
Q 1894 3584 2278 3584 
Q 2916 3584 3314 3078 
Q 3713 2572 3713 1747 
Q 3713 922 3314 415 
Q 2916 -91 2278 -91 
Q 1894 -91 1617 61 
Q 1341 213 1159 525 
L 1159 0 
L 581 0 
L 581 4863 
L 1159 4863 
L 1159 2969 
z
" transform="scale(0.015625)"/>
     </defs>
     <use xlink:href="#DejaVuSans-55"/>
     <use xlink:href="#DejaVuSans-6e" x="73.193359"/>
     <use xlink:href="#DejaVuSans-63" x="136.572266"/>
     <use xlink:href="#DejaVuSans-65" x="191.552734"/>
     <use xlink:href="#DejaVuSans-72" x="253.076172"/>
     <use xlink:href="#DejaVuSans-74" x="294.189453"/>
     <use xlink:href="#DejaVuSans-61" x="333.398438"/>
     <use xlink:href="#DejaVuSans-69" x="394.677734"/>
     <use xlink:href="#DejaVuSans-6e" x="422.460938"/>
     <use xlink:href="#DejaVuSans-74" x="485.839844"/>
     <use xlink:href="#DejaVuSans-79" x="525.048828"/>
     <use xlink:href="#DejaVuSans-20" x="584.228516"/>
     <use xlink:href="#DejaVuSans-43" x="616.015625"/>
     <use xlink:href="#DejaVuSans-61" x="685.839844"/>
     <use xlink:href="#DejaVuSans-6c" x="747.119141"/>
     <use xlink:href="#DejaVuSans-69" x="774.902344"/>
     <use xlink:href="#DejaVuSans-62" x="802.685547"/>
     <use xlink:href="#DejaVuSans-72" x="866.162109"/>
     <use xlink:href="#DejaVuSans-61" x="907.275391"/>
     <use xlink:href="#DejaVuSans-74" x="968.554688"/>
     <use xlink:href="#DejaVuSans-69" x="1007.763672"/>
     <use xlink:href="#DejaVuSans-6f" x="1035.546875"/>
     <use xlink:href="#DejaVuSans-6e" x="1096.728516"/>
    </g>
   </g>
   <g id="legend_1">
    <g id="patch_7">
     <path d="M 61.2 62.79625 
L 171.910938 62.79625 
Q 173.910938 62.79625 173.910938 60.79625 
L 173.910938 32.44 
Q 173.910938 30.44 171.910938 30.44 
L 61.2 30.44 
Q 59.2 30.44 59.2 32.44 
L 59.2 60.79625 
Q 59.2 62.79625 61.2 62.79625 
z
" style="fill: #ffffff; opacity: 0.8; stroke: #cccccc; stroke-linejoin: miter"/>
    </g>
    <g id="PathCollection_2">
     <g>
      <use xlink:href="#m4f888335f5" x="73.2" y="39.413437" style="fill: #1f77b4; stroke: #1f77b4"/>
     </g>
    </g>
    <g id="text_17">
     <!-- Data -->
     <g transform="translate(91.2 42.038437) scale(0.1 -0.1)">
      <defs>
       <path id="DejaVuSans-44" d="M 1259 4147 
L 1259 519 
L 2022 519 
Q 2988 519 3436 956 
Q 3884 1394 3884 2338 
Q 3884 3275 3436 3711 
Q 2988 4147 2022 4147 
L 1259 4147 
z
M 628 4666 
L 1925 4666 
Q 3281 4666 3915 4102 
Q 4550 3538 4550 2338 
Q 4550 1131 3912 565 
Q 3275 0 1925 0 
L 628 0 
L 628 4666 
z
" transform="scale(0.015625)"/>
      </defs>
      <use xlink:href="#DejaVuSans-44"/>
      <use xlink:href="#DejaVuSans-61" x="77.001953"/>
      <use xlink:href="#DejaVuSans-74" x="138.28125"/>
      <use xlink:href="#DejaVuSans-61" x="177.490234"/>
     </g>
    </g>
    <g id="line2d_15">
     <path d="M 63.2 53.216563 
L 73.2 53.216563 
L 83.2 53.216563 
" style="fill: none; stroke: #ff0000; stroke-width: 1.5; stroke-linecap: square"/>
    </g>
    <g id="text_18">
     <!-- Regression Line -->
     <g transform="translate(91.2 56.716563) scale(0.1 -0.1)">
      <defs>
       <path id="DejaVuSans-52" d="M 2841 2188 
Q 3044 2119 3236 1894 
Q 3428 1669 3622 1275 
L 4263 0 
L 3584 0 
L 2988 1197 
Q 2756 1666 2539 1819 
Q 2322 1972 1947 1972 
L 1259 1972 
L 1259 0 
L 628 0 
L 628 4666 
L 2053 4666 
Q 2853 4666 3247 4331 
Q 3641 3997 3641 3322 
Q 3641 2881 3436 2590 
Q 3231 2300 2841 2188 
z
M 1259 4147 
L 1259 2491 
L 2053 2491 
Q 2509 2491 2742 2702 
Q 2975 2913 2975 3322 
Q 2975 3731 2742 3939 
Q 2509 4147 2053 4147 
L 1259 4147 
z
" transform="scale(0.015625)"/>
       <path id="DejaVuSans-67" d="M 2906 1791 
Q 2906 2416 2648 2759 
Q 2391 3103 1925 3103 
Q 1463 3103 1205 2759 
Q 947 2416 947 1791 
Q 947 1169 1205 825 
Q 1463 481 1925 481 
Q 2391 481 2648 825 
Q 2906 1169 2906 1791 
z
M 3481 434 
Q 3481 -459 3084 -895 
Q 2688 -1331 1869 -1331 
Q 1566 -1331 1297 -1286 
Q 1028 -1241 775 -1147 
L 775 -588 
Q 1028 -725 1275 -790 
Q 1522 -856 1778 -856 
Q 2344 -856 2625 -561 
Q 2906 -266 2906 331 
L 2906 616 
Q 2728 306 2450 153 
Q 2172 0 1784 0 
Q 1141 0 747 490 
Q 353 981 353 1791 
Q 353 2603 747 3093 
Q 1141 3584 1784 3584 
Q 2172 3584 2450 3431 
Q 2728 3278 2906 2969 
L 2906 3500 
L 3481 3500 
L 3481 434 
z
" transform="scale(0.015625)"/>
       <path id="DejaVuSans-4c" d="M 628 4666 
L 1259 4666 
L 1259 531 
L 3531 531 
L 3531 0 
L 628 0 
L 628 4666 
z
" transform="scale(0.015625)"/>
      </defs>
      <use xlink:href="#DejaVuSans-52"/>
      <use xlink:href="#DejaVuSans-65" x="64.982422"/>
      <use xlink:href="#DejaVuSans-67" x="126.505859"/>
      <use xlink:href="#DejaVuSans-72" x="189.982422"/>
      <use xlink:href="#DejaVuSans-65" x="228.845703"/>
      <use xlink:href="#DejaVuSans-73" x="290.369141"/>
      <use xlink:href="#DejaVuSans-73" x="342.46875"/>
      <use xlink:href="#DejaVuSans-69" x="394.568359"/>
      <use xlink:href="#DejaVuSans-6f" x="422.351562"/>
      <use xlink:href="#DejaVuSans-6e" x="483.533203"/>
      <use xlink:href="#DejaVuSans-20" x="546.912109"/>
      <use xlink:href="#DejaVuSans-4c" x="578.699219"/>
      <use xlink:href="#DejaVuSans-69" x="634.412109"/>
      <use xlink:href="#DejaVuSans-6e" x="662.195312"/>
      <use xlink:href="#DejaVuSans-65" x="725.574219"/>
     </g>
    </g>
   </g>
  </g>
 </g>
 <defs>
  <clipPath id="p446e9ec1cd">
   <rect x="54.2" y="25.44" width="655" height="508.6"/>
  </clipPath>
 </defs>
</svg>
