<?xml version="1.0" encoding="utf-8" standalone="no"?>
<!DOCTYPE svg PUBLIC "-//W3C//DTD SVG 1.1//EN"
  "http://www.w3.org/Graphics/SVG/1.1/DTD/svg11.dtd">
<svg xmlns:xlink="http://www.w3.org/1999/xlink" width="720pt" height="576pt" viewBox="0 0 720 576" xmlns="http://www.w3.org/2000/svg" version="1.1">
 <metadata>
  <rdf:RDF xmlns:dc="http://purl.org/dc/elements/1.1/" xmlns:cc="http://creativecommons.org/ns#" xmlns:rdf="http://www.w3.org/1999/02/22-rdf-syntax-ns#">
   <cc:Work>
    <dc:type rdf:resource="http://purl.org/dc/dcmitype/StillImage"/>
    <dc:date>2024-12-06T14:06:58.976930</dc:date>
    <dc:format>image/svg+xml</dc:format>
    <dc:creator>
     <cc:Agent>
      <dc:title>Matplotlib v3.8.4, https://matplotlib.org/</dc:title>
     </cc:Agent>
    </dc:creator>
   </cc:Work>
  </rdf:RDF>
 </metadata>
 <defs>
  <style type="text/css">*{stroke-linejoin: round; stroke-linecap: butt}</style>
 </defs>
 <g id="figure_1">
  <g id="patch_1">
   <path d="M 0 576 
L 720 576 
L 720 0 
L 0 0 
z
" style="fill: #ffffff"/>
  </g>
  <g id="axes_1">
   <g id="patch_2">
    <path d="M 44.66 534.04 
L 709.2 534.04 
L 709.2 10.8 
L 44.66 10.8 
z
" style="fill: #ffffff"/>
   </g>
   <g id="QuadContourSet_1">
    <path d="M 46.248634 532.251017 
L 46.394118 532.564181 
L 46.539602 532.807063 
L 46.685086 532.961167 
L 46.83057 533.028973 
L 46.976054 533.038195 
L 47.121538 533.010246 
L 47.267022 532.955055 
L 47.412506 532.881339 
L 47.55799 532.802065 
L 47.703474 532.719696 
L 47.848958 532.618505 
L 47.994442 532.487513 
L 48.139926 532.330942 
L 48.234583 532.213684 
L 48.28541 532.18949 
L 48.430894 532.107262 
L 48.576378 531.993555 
L 48.721862 531.83409 
L 48.867346 531.620833 
L 49.01283 531.357962 
L 49.091325 531.216672 
L 49.158314 531.141003 
L 49.303798 530.986208 
L 49.449282 530.789592 
L 49.594766 530.478251 
L 49.676039 530.21966 
L 49.74025 530.007406 
L 49.885734 529.290759 
L 49.897375 529.222648 
L 50.018549 528.225636 
L 50.031218 528.059055 
L 50.104022 527.228624 
L 50.164644 526.231612 
L 50.176702 525.930521 
L 50.214053 525.2346 
L 50.219265 524.237588 
L 50.188167 523.240576 
L 50.176702 522.951733 
L 50.152964 522.243564 
L 50.092142 521.246553 
L 50.031218 520.627176 
L 49.992343 520.249541 
L 49.885734 519.399148 
L 49.858593 519.252529 
L 49.74025 518.622136 
L 49.632746 518.255517 
L 49.594766 518.113031 
L 49.449282 517.645589 
L 49.328321 517.258505 
L 49.303798 517.162309 
L 49.158314 516.434996 
L 49.123991 516.261493 
L 49.01283 515.665963 
L 48.924 515.264481 
L 48.867346 514.914412 
L 48.721862 514.429684 
L 48.576378 514.307957 
L 48.430894 514.300225 
L 48.363081 514.267469 
L 48.28541 514.190107 
L 48.139926 513.689751 
L 47.994442 513.271779 
L 47.848958 513.306346 
L 47.703474 513.62489 
L 47.55799 514.100937 
L 47.513003 514.267469 
L 47.412506 514.566388 
L 47.275109 515.264481 
L 47.267022 515.287145 
L 47.121538 515.780154 
L 47.016726 516.261493 
L 46.976054 516.35955 
L 46.83057 516.690229 
L 46.685086 517.105536 
L 46.646773 517.258505 
L 46.539602 517.579039 
L 46.400255 518.255517 
L 46.394118 518.292242 
L 46.252153 519.252529 
L 46.248634 519.292392 
L 46.144353 520.249541 
L 46.10315 520.667784 
L 46.033465 521.246553 
L 45.957666 521.824726 
L 45.905364 522.243564 
L 45.812182 523.240576 
L 45.812182 523.240576 
L 45.728648 524.237588 
L 45.666698 525.129924 
L 45.658261 525.2346 
L 45.571439 526.231612 
L 45.527601 527.228624 
L 45.531505 528.225636 
L 45.601749 529.222648 
L 45.666698 529.645694 
L 45.750199 530.21966 
L 45.812182 530.571924 
L 45.922552 531.216672 
L 45.957666 531.406372 
L 46.10315 531.983935 
L 46.23376 532.213684 
z
M 46.581406 531.216672 
L 46.539602 531.152268 
L 46.394118 530.85404 
L 46.248634 530.338595 
L 46.224271 530.21966 
L 46.10315 529.303174 
L 46.092899 529.222648 
L 46.010654 528.225636 
L 45.983413 527.228624 
L 46.007426 526.231612 
L 46.086406 525.2346 
L 46.10315 525.082141 
L 46.195939 524.237588 
L 46.248634 523.833658 
L 46.333404 523.240576 
L 46.394118 522.825189 
L 46.485852 522.243564 
L 46.539602 521.865364 
L 46.637882 521.246553 
L 46.685086 520.908019 
L 46.809742 520.249541 
L 46.83057 520.141648 
L 46.976054 519.584965 
L 47.095551 519.252529 
L 47.121538 519.174514 
L 47.267022 518.790802 
L 47.412506 518.492978 
L 47.55799 518.304852 
L 47.637874 518.255517 
L 47.703474 518.205587 
L 47.848958 518.172828 
L 47.994442 518.194552 
L 48.139926 518.255517 
L 48.139926 518.255517 
L 48.28541 518.332998 
L 48.430894 518.476389 
L 48.576378 518.747053 
L 48.718993 519.252529 
L 48.721862 519.261147 
L 48.867346 519.777313 
L 48.989671 520.249541 
L 49.01283 520.337664 
L 49.158314 521.13816 
L 49.175698 521.246553 
L 49.303798 522.125165 
L 49.324538 522.243564 
L 49.436936 523.240576 
L 49.449282 523.423418 
L 49.507748 524.237588 
L 49.569484 525.2346 
L 49.578003 526.231612 
L 49.511447 527.228624 
L 49.449282 527.686722 
L 49.361204 528.225636 
L 49.303798 528.474869 
L 49.158314 529.004494 
L 49.093439 529.222648 
L 49.01283 529.480149 
L 48.867346 529.915485 
L 48.733163 530.21966 
L 48.721862 530.25046 
L 48.576378 530.598702 
L 48.430894 530.814272 
L 48.28541 530.953406 
L 48.139926 531.060056 
L 47.994442 531.154373 
L 47.884195 531.216672 
L 47.848958 531.252547 
L 47.703474 531.3748 
L 47.55799 531.47513 
L 47.412506 531.566686 
L 47.267022 531.64096 
L 47.121538 531.682361 
L 46.976054 531.676683 
L 46.83057 531.600665 
L 46.685086 531.421193 
z
" clip-path="url(#pfcebbf5d7a)" style="fill: #e5e5f3"/>
    <path d="M 46.685086 531.421193 
L 46.83057 531.600665 
L 46.976054 531.676683 
L 47.121538 531.682361 
L 47.267022 531.64096 
L 47.412506 531.566686 
L 47.55799 531.47513 
L 47.703474 531.3748 
L 47.848958 531.252547 
L 47.884195 531.216672 
L 47.994442 531.154373 
L 48.139926 531.060056 
L 48.28541 530.953406 
L 48.430894 530.814272 
L 48.576378 530.598702 
L 48.721862 530.25046 
L 48.733163 530.21966 
L 48.867346 529.915485 
L 49.01283 529.480149 
L 49.093439 529.222648 
L 49.158314 529.004494 
L 49.303798 528.474869 
L 49.361204 528.225636 
L 49.449282 527.686722 
L 49.511447 527.228624 
L 49.578003 526.231612 
L 49.569484 525.2346 
L 49.507748 524.237588 
L 49.449282 523.423418 
L 49.436936 523.240576 
L 49.324538 522.243564 
L 49.303798 522.125165 
L 49.175698 521.246553 
L 49.158314 521.13816 
L 49.01283 520.337664 
L 48.989671 520.249541 
L 48.867346 519.777313 
L 48.721862 519.261147 
L 48.718993 519.252529 
L 48.576378 518.747053 
L 48.430894 518.476389 
L 48.28541 518.332998 
L 48.139926 518.255517 
L 48.139926 518.255517 
L 47.994442 518.194552 
L 47.848958 518.172828 
L 47.703474 518.205587 
L 47.637874 518.255517 
L 47.55799 518.304852 
L 47.412506 518.492978 
L 47.267022 518.790802 
L 47.121538 519.174514 
L 47.095551 519.252529 
L 46.976054 519.584965 
L 46.83057 520.141648 
L 46.809742 520.249541 
L 46.685086 520.908019 
L 46.637882 521.246553 
L 46.539602 521.865364 
L 46.485852 522.243564 
L 46.394118 522.825189 
L 46.333404 523.240576 
L 46.248634 523.833658 
L 46.195939 524.237588 
L 46.10315 525.082141 
L 46.086406 525.2346 
L 46.007426 526.231612 
L 45.983413 527.228624 
L 46.010654 528.225636 
L 46.092899 529.222648 
L 46.10315 529.303174 
L 46.224271 530.21966 
L 46.248634 530.338595 
L 46.394118 530.85404 
L 46.539602 531.152268 
L 46.581406 531.216672 
z
M 46.541791 530.21966 
L 46.539602 530.213278 
L 46.394118 529.629639 
L 46.326649 529.222648 
L 46.248634 528.225636 
L 46.248634 528.225636 
L 46.216715 527.228624 
L 46.237634 526.231612 
L 46.248634 526.0939 
L 46.312307 525.2346 
L 46.394118 524.598769 
L 46.446864 524.237588 
L 46.539602 523.664203 
L 46.624968 523.240576 
L 46.685086 522.897421 
L 46.828235 522.243564 
L 46.83057 522.231132 
L 46.976054 521.596632 
L 47.092106 521.246553 
L 47.121538 521.147041 
L 47.267022 520.765748 
L 47.412506 520.51552 
L 47.55799 520.344405 
L 47.658854 520.249541 
L 47.703474 520.190753 
L 47.848958 520.045952 
L 47.994442 519.988936 
L 48.139926 520.025199 
L 48.28541 520.147493 
L 48.352102 520.249541 
L 48.430894 520.348443 
L 48.576378 520.675997 
L 48.721862 521.157621 
L 48.745532 521.246553 
L 48.867346 521.736089 
L 48.953198 522.243564 
L 49.01283 522.736159 
L 49.069255 523.240576 
L 49.146457 524.237588 
L 49.158314 524.428949 
L 49.216364 525.2346 
L 49.24728 526.231612 
L 49.18578 527.228624 
L 49.158314 527.394616 
L 49.022703 528.225636 
L 49.01283 528.267828 
L 48.867346 528.896947 
L 48.777314 529.222648 
L 48.721862 529.408285 
L 48.576378 529.78265 
L 48.430894 530.022839 
L 48.28541 530.184303 
L 48.248244 530.21966 
L 48.139926 530.350396 
L 47.994442 530.511507 
L 47.848958 530.640344 
L 47.703474 530.735632 
L 47.55799 530.813559 
L 47.412506 530.88165 
L 47.267022 530.929515 
L 47.121538 530.942858 
L 46.976054 530.906556 
L 46.83057 530.794531 
L 46.685086 530.573036 
z
" clip-path="url(#pfcebbf5d7a)" style="fill: #cecef5"/>
    <path d="M 46.685086 530.573036 
L 46.83057 530.794531 
L 46.976054 530.906556 
L 47.121538 530.942858 
L 47.267022 530.929515 
L 47.412506 530.88165 
L 47.55799 530.813559 
L 47.703474 530.735632 
L 47.848958 530.640344 
L 47.994442 530.511507 
L 48.139926 530.350396 
L 48.248244 530.21966 
L 48.28541 530.184303 
L 48.430894 530.022839 
L 48.576378 529.78265 
L 48.721862 529.408285 
L 48.777314 529.222648 
L 48.867346 528.896947 
L 49.01283 528.267828 
L 49.022703 528.225636 
L 49.158314 527.394616 
L 49.18578 527.228624 
L 49.24728 526.231612 
L 49.216364 525.2346 
L 49.158314 524.428949 
L 49.146457 524.237588 
L 49.069255 523.240576 
L 49.01283 522.736159 
L 48.953198 522.243564 
L 48.867346 521.736089 
L 48.745532 521.246553 
L 48.721862 521.157621 
L 48.576378 520.675997 
L 48.430894 520.348443 
L 48.352102 520.249541 
L 48.28541 520.147493 
L 48.139926 520.025199 
L 47.994442 519.988936 
L 47.848958 520.045952 
L 47.703474 520.190753 
L 47.658854 520.249541 
L 47.55799 520.344405 
L 47.412506 520.51552 
L 47.267022 520.765748 
L 47.121538 521.147041 
L 47.092106 521.246553 
L 46.976054 521.596632 
L 46.83057 522.231132 
L 46.828235 522.243564 
L 46.685086 522.897421 
L 46.624968 523.240576 
L 46.539602 523.664203 
L 46.446864 524.237588 
L 46.394118 524.598769 
L 46.312307 525.2346 
L 46.248634 526.0939 
L 46.237634 526.231612 
L 46.216715 527.228624 
L 46.248634 528.225636 
L 46.248634 528.225636 
L 46.326649 529.222648 
L 46.394118 529.629639 
L 46.539602 530.213278 
L 46.541791 530.21966 
z
M 46.93349 530.21966 
L 46.83057 530.097048 
L 46.685086 529.776892 
L 46.539602 529.234028 
L 46.537205 529.222648 
L 46.427604 528.225636 
L 46.398005 527.228624 
L 46.419759 526.231612 
L 46.509096 525.2346 
L 46.539602 525.025681 
L 46.682401 524.237588 
L 46.685086 524.223543 
L 46.83057 523.561644 
L 46.91156 523.240576 
L 46.976054 522.955203 
L 47.121538 522.41653 
L 47.185506 522.243564 
L 47.267022 521.991078 
L 47.412506 521.686102 
L 47.55799 521.48364 
L 47.703474 521.325652 
L 47.80335 521.246553 
L 47.848958 521.198107 
L 47.994442 521.141295 
L 48.139926 521.196037 
L 48.185155 521.246553 
L 48.28541 521.346465 
L 48.430894 521.617968 
L 48.576378 522.035725 
L 48.632355 522.243564 
L 48.721862 522.632802 
L 48.817582 523.240576 
L 48.867346 523.716214 
L 48.916857 524.237588 
L 48.983809 525.2346 
L 49.01283 526.231612 
L 48.963098 527.228624 
L 48.867346 527.853156 
L 48.808004 528.225636 
L 48.721862 528.579832 
L 48.576378 529.042429 
L 48.497571 529.222648 
L 48.430894 529.360038 
L 48.28541 529.586731 
L 48.139926 529.777895 
L 47.994442 529.940188 
L 47.848958 530.065377 
L 47.703474 530.156943 
L 47.579911 530.21966 
L 47.55799 530.234433 
L 47.412506 530.316679 
L 47.267022 530.362166 
L 47.121538 530.3526 
L 46.976054 530.270363 
z
" clip-path="url(#pfcebbf5d7a)" style="fill: #b5b5f6"/>
    <path d="M 46.976054 530.270363 
L 47.121538 530.3526 
L 47.267022 530.362166 
L 47.412506 530.316679 
L 47.55799 530.234433 
L 47.579911 530.21966 
L 47.703474 530.156943 
L 47.848958 530.065377 
L 47.994442 529.940188 
L 48.139926 529.777895 
L 48.28541 529.586731 
L 48.430894 529.360038 
L 48.497571 529.222648 
L 48.576378 529.042429 
L 48.721862 528.579832 
L 48.808004 528.225636 
L 48.867346 527.853156 
L 48.963098 527.228624 
L 49.01283 526.231612 
L 48.983809 525.2346 
L 48.916857 524.237588 
L 48.867346 523.716214 
L 48.817582 523.240576 
L 48.721862 522.632802 
L 48.632355 522.243564 
L 48.576378 522.035725 
L 48.430894 521.617968 
L 48.28541 521.346465 
L 48.185155 521.246553 
L 48.139926 521.196037 
L 47.994442 521.141295 
L 47.848958 521.198107 
L 47.80335 521.246553 
L 47.703474 521.325652 
L 47.55799 521.48364 
L 47.412506 521.686102 
L 47.267022 521.991078 
L 47.185506 522.243564 
L 47.121538 522.41653 
L 46.976054 522.955203 
L 46.91156 523.240576 
L 46.83057 523.561644 
L 46.685086 524.223543 
L 46.682401 524.237588 
L 46.539602 525.025681 
L 46.509096 525.2346 
L 46.419759 526.231612 
L 46.398005 527.228624 
L 46.427604 528.225636 
L 46.537205 529.222648 
L 46.539602 529.234028 
L 46.685086 529.776892 
L 46.83057 530.097048 
L 46.93349 530.21966 
z
M 46.747447 529.222648 
L 46.685086 528.904167 
L 46.589875 528.225636 
L 46.554042 527.228624 
L 46.585631 526.231612 
L 46.685086 525.357496 
L 46.700746 525.2346 
L 46.83057 524.574916 
L 46.901225 524.237588 
L 46.976054 523.90284 
L 47.121538 523.326562 
L 47.148143 523.240576 
L 47.267022 522.832755 
L 47.412506 522.516397 
L 47.55799 522.30939 
L 47.620256 522.243564 
L 47.703474 522.135533 
L 47.848958 522.014684 
L 47.994442 521.989323 
L 48.139926 522.087794 
L 48.236194 522.243564 
L 48.28541 522.324819 
L 48.430894 522.681225 
L 48.576378 523.211338 
L 48.582381 523.240576 
L 48.721862 524.237588 
L 48.721862 524.237588 
L 48.796702 525.2346 
L 48.825439 526.231612 
L 48.775465 527.228624 
L 48.721862 527.566865 
L 48.600342 528.225636 
L 48.576378 528.307377 
L 48.430894 528.698562 
L 48.28541 528.99732 
L 48.15373 529.222648 
L 48.139926 529.244471 
L 47.994442 529.454555 
L 47.848958 529.609128 
L 47.703474 529.721101 
L 47.55799 529.808462 
L 47.412506 529.870322 
L 47.267022 529.889541 
L 47.121538 529.847619 
L 46.976054 529.72029 
L 46.83057 529.461278 
z
" clip-path="url(#pfcebbf5d7a)" style="fill: #9c9cf7"/>
    <path d="M 46.83057 529.461278 
L 46.976054 529.72029 
L 47.121538 529.847619 
L 47.267022 529.889541 
L 47.412506 529.870322 
L 47.55799 529.808462 
L 47.703474 529.721101 
L 47.848958 529.609128 
L 47.994442 529.454555 
L 48.139926 529.244471 
L 48.15373 529.222648 
L 48.28541 528.99732 
L 48.430894 528.698562 
L 48.576378 528.307377 
L 48.600342 528.225636 
L 48.721862 527.566865 
L 48.775465 527.228624 
L 48.825439 526.231612 
L 48.796702 525.2346 
L 48.721862 524.237588 
L 48.721862 524.237588 
L 48.582381 523.240576 
L 48.576378 523.211338 
L 48.430894 522.681225 
L 48.28541 522.324819 
L 48.236194 522.243564 
L 48.139926 522.087794 
L 47.994442 521.989323 
L 47.848958 522.014684 
L 47.703474 522.135533 
L 47.620256 522.243564 
L 47.55799 522.30939 
L 47.412506 522.516397 
L 47.267022 522.832755 
L 47.148143 523.240576 
L 47.121538 523.326562 
L 46.976054 523.90284 
L 46.901225 524.237588 
L 46.83057 524.574916 
L 46.700746 525.2346 
L 46.685086 525.357496 
L 46.585631 526.231612 
L 46.554042 527.228624 
L 46.589875 528.225636 
L 46.685086 528.904167 
L 46.747447 529.222648 
z
M 47.061866 529.222648 
L 46.976054 529.065199 
L 46.83057 528.547397 
L 46.772028 528.225636 
L 46.724331 527.228624 
L 46.767667 526.231612 
L 46.83057 525.749143 
L 46.898456 525.2346 
L 46.976054 524.840059 
L 47.103067 524.237588 
L 47.121538 524.157289 
L 47.267022 523.637178 
L 47.412506 523.297266 
L 47.449786 523.240576 
L 47.55799 523.063652 
L 47.703474 522.91049 
L 47.848958 522.82963 
L 47.994442 522.854357 
L 48.139926 523.027178 
L 48.238447 523.240576 
L 48.28541 523.350997 
L 48.430894 523.8329 
L 48.508828 524.237588 
L 48.576378 524.894385 
L 48.60528 525.2346 
L 48.626127 526.231612 
L 48.576378 526.98772 
L 48.559025 527.228624 
L 48.430894 527.845688 
L 48.330582 528.225636 
L 48.28541 528.337032 
L 48.139926 528.656632 
L 47.994442 528.906358 
L 47.848958 529.090457 
L 47.703474 529.222648 
L 47.703474 529.222648 
L 47.55799 529.325873 
L 47.412506 529.387894 
L 47.267022 529.385234 
L 47.121538 529.298328 
z
" clip-path="url(#pfcebbf5d7a)" style="fill: #8080f8"/>
    <path d="M 47.121538 529.298328 
L 47.267022 529.385234 
L 47.412506 529.387894 
L 47.55799 529.325873 
L 47.703474 529.222648 
L 47.703474 529.222648 
L 47.848958 529.090457 
L 47.994442 528.906358 
L 48.139926 528.656632 
L 48.28541 528.337032 
L 48.330582 528.225636 
L 48.430894 527.845688 
L 48.559025 527.228624 
L 48.576378 526.98772 
L 48.626127 526.231612 
L 48.60528 525.2346 
L 48.576378 524.894385 
L 48.508828 524.237588 
L 48.430894 523.8329 
L 48.28541 523.350997 
L 48.238447 523.240576 
L 48.139926 523.027178 
L 47.994442 522.854357 
L 47.848958 522.82963 
L 47.703474 522.91049 
L 47.55799 523.063652 
L 47.449786 523.240576 
L 47.412506 523.297266 
L 47.267022 523.637178 
L 47.121538 524.157289 
L 47.103067 524.237588 
L 46.976054 524.840059 
L 46.898456 525.2346 
L 46.83057 525.749143 
L 46.767667 526.231612 
L 46.724331 527.228624 
L 46.772028 528.225636 
L 46.83057 528.547397 
L 46.976054 529.065199 
L 47.061866 529.222648 
z
M 46.928085 528.225636 
L 46.857607 527.228624 
L 46.902775 526.231612 
L 46.976054 525.682768 
L 47.038 525.2346 
L 47.121538 524.820049 
L 47.267022 524.237588 
L 47.267022 524.237588 
L 47.412506 523.868057 
L 47.55799 523.642792 
L 47.703474 523.507151 
L 47.848958 523.45651 
L 47.994442 523.533162 
L 48.139926 523.776472 
L 48.28541 524.169637 
L 48.303836 524.237588 
L 48.430894 525.002654 
L 48.456615 525.2346 
L 48.477407 526.231612 
L 48.430894 526.789591 
L 48.389546 527.228624 
L 48.28541 527.672189 
L 48.139926 528.163367 
L 48.117659 528.225636 
L 47.994442 528.464487 
L 47.848958 528.675664 
L 47.703474 528.829771 
L 47.55799 528.936536 
L 47.412506 528.985541 
L 47.267022 528.946765 
L 47.121538 528.780997 
L 46.976054 528.418581 
z
" clip-path="url(#pfcebbf5d7a)" style="fill: #6565fa"/>
    <path d="M 46.976054 528.418581 
L 47.121538 528.780997 
L 47.267022 528.946765 
L 47.412506 528.985541 
L 47.55799 528.936536 
L 47.703474 528.829771 
L 47.848958 528.675664 
L 47.994442 528.464487 
L 48.117659 528.225636 
L 48.139926 528.163367 
L 48.28541 527.672189 
L 48.389546 527.228624 
L 48.430894 526.789591 
L 48.477407 526.231612 
L 48.456615 525.2346 
L 48.430894 525.002654 
L 48.303836 524.237588 
L 48.28541 524.169637 
L 48.139926 523.776472 
L 47.994442 523.533162 
L 47.848958 523.45651 
L 47.703474 523.507151 
L 47.55799 523.642792 
L 47.412506 523.868057 
L 47.267022 524.237588 
L 47.267022 524.237588 
L 47.121538 524.820049 
L 47.038 525.2346 
L 46.976054 525.682768 
L 46.902775 526.231612 
L 46.857607 527.228624 
L 46.928085 528.225636 
z
M 47.184643 528.225636 
L 47.121538 527.963138 
L 47.028864 527.228624 
L 47.06708 526.231612 
L 47.121538 525.838338 
L 47.220877 525.2346 
L 47.267022 525.044097 
L 47.412506 524.628374 
L 47.55799 524.375042 
L 47.703474 524.242789 
L 47.848958 524.237588 
L 47.994442 524.424508 
L 48.139926 524.835268 
L 48.233023 525.2346 
L 48.28541 526.208642 
L 48.286294 526.231612 
L 48.28541 526.240622 
L 48.173243 527.228624 
L 48.139926 527.349948 
L 47.994442 527.783978 
L 47.848958 528.117904 
L 47.787554 528.225636 
L 47.703474 528.328441 
L 47.55799 528.441245 
L 47.412506 528.46303 
L 47.267022 528.363718 
z
" clip-path="url(#pfcebbf5d7a)" style="fill: #4a4afb"/>
    <path d="M 47.267022 528.363718 
L 47.412506 528.46303 
L 47.55799 528.441245 
L 47.703474 528.328441 
L 47.787554 528.225636 
L 47.848958 528.117904 
L 47.994442 527.783978 
L 48.139926 527.349948 
L 48.173243 527.228624 
L 48.28541 526.240622 
L 48.286294 526.231612 
L 48.28541 526.208642 
L 48.233023 525.2346 
L 48.139926 524.835268 
L 47.994442 524.424508 
L 47.848958 524.237588 
L 47.703474 524.242789 
L 47.55799 524.375042 
L 47.412506 524.628374 
L 47.267022 525.044097 
L 47.220877 525.2346 
L 47.121538 525.838338 
L 47.06708 526.231612 
L 47.028864 527.228624 
L 47.121538 527.963138 
L 47.184643 528.225636 
z
M 47.249629 527.228624 
L 47.267022 526.231612 
L 47.267022 526.231612 
L 47.412506 525.595446 
L 47.543261 525.2346 
L 47.55799 525.208288 
L 47.703474 525.098549 
L 47.848958 525.179848 
L 47.876343 525.2346 
L 47.994442 525.882265 
L 48.031873 526.231612 
L 47.994442 526.529313 
L 47.898527 527.228624 
L 47.848958 527.353975 
L 47.703474 527.621 
L 47.55799 527.748163 
L 47.412506 527.680516 
L 47.267022 527.311969 
z
" clip-path="url(#pfcebbf5d7a)" style="fill: #2a2afd"/>
    <path d="M 47.267022 527.311969 
L 47.412506 527.680516 
L 47.55799 527.748163 
L 47.703474 527.621 
L 47.848958 527.353975 
L 47.898527 527.228624 
L 47.994442 526.529313 
L 48.031873 526.231612 
L 47.994442 525.882265 
L 47.876343 525.2346 
L 47.848958 525.179848 
L 47.703474 525.098549 
L 47.55799 525.208288 
L 47.543261 525.2346 
L 47.412506 525.595446 
L 47.267022 526.231612 
L 47.267022 526.231612 
L 47.249629 527.228624 
z
" clip-path="url(#pfcebbf5d7a)" style="fill: #0d0dfe"/>
   </g>
   <g id="QuadContourSet_2">
    <path d="M 44.32633 563.511665 
L 44.721289 565.250834 
L 45.116248 565.939596 
L 45.511207 566.035412 
L 45.906166 565.710003 
L 46.301125 564.971358 
L 46.696084 563.683069 
L 46.775877 563.338439 
L 47.091044 562.372724 
L 47.486003 560.49298 
L 47.52659 560.267425 
L 47.880962 558.702119 
L 48.129109 557.19641 
L 48.275921 556.442572 
L 48.62891 554.125396 
L 48.67088 553.877565 
L 49.065839 551.122329 
L 49.075031 551.054382 
L 49.460798 548.23067 
L 49.492441 547.983367 
L 49.855757 545.015378 
L 49.868273 544.912353 
L 50.226595 541.841338 
L 50.250717 541.612678 
L 50.570707 538.770324 
L 50.645676 537.986657 
L 50.89143 535.69931 
L 51.040635 533.996208 
L 51.181687 532.628295 
L 51.432891 529.557281 
L 51.435594 529.522143 
L 51.727297 526.486266 
L 51.830553 525.06694 
L 51.986238 523.415252 
L 52.210896 520.344238 
L 52.225512 520.125531 
L 52.483355 517.273223 
L 52.620471 515.252373 
L 52.719312 514.202209 
L 52.963684 511.131194 
L 53.015431 510.37443 
L 53.238868 508.06018 
L 53.41039 505.833084 
L 53.503534 504.989166 
L 53.7889 501.918151 
L 53.805349 501.721194 
L 54.140442 498.847137 
L 54.200308 498.231424 
L 54.533135 495.776122 
L 54.595267 495.220182 
L 54.989248 492.705108 
L 54.990226 492.697308 
L 55.385185 490.901195 
L 55.775518 489.634094 
L 55.780144 489.615635 
L 56.175104 488.239078 
L 56.478274 486.563079 
L 56.570063 486.046307 
L 56.874244 483.492065 
L 56.965022 482.744265 
L 57.173887 480.42105 
L 57.359981 478.414549 
L 57.441199 477.350036 
L 57.672611 474.279022 
L 57.75494 473.231056 
L 57.893491 471.208007 
L 58.114204 468.136993 
L 58.149899 467.663445 
L 58.334101 465.065978 
L 58.544858 462.370117 
L 58.576249 461.994964 
L 58.841204 458.92395 
L 58.939817 457.864888 
L 59.159907 455.852935 
L 59.334777 454.288412 
L 59.558 452.781921 
L 59.729736 451.569003 
L 60.103794 449.710906 
L 60.124695 449.594828 
L 60.519654 448.017196 
L 60.88068 446.639892 
L 60.914613 446.4868 
L 61.309572 444.431762 
L 61.442717 443.568878 
L 61.704531 441.580613 
L 61.829707 440.497863 
L 62.09949 438.016567 
L 62.161256 437.426849 
L 62.49445 434.551891 
L 62.517507 434.355834 
L 62.889409 431.820841 
L 62.969016 431.28482 
L 63.284368 429.613238 
L 63.539234 428.213806 
L 63.679327 427.5738 
L 64.074286 425.57459 
L 64.15932 425.142791 
L 64.469245 423.568751 
L 64.758064 422.071777 
L 64.864204 421.455098 
L 65.259164 419.048151 
L 65.266916 419.000763 
L 65.641063 415.929748 
L 65.654123 415.774888 
L 65.901594 412.858734 
L 66.049082 409.90997 
L 66.055986 409.787719 
L 66.193229 406.716705 
L 66.287045 403.645691 
L 66.357112 400.574676 
L 66.414112 397.503662 
L 66.444041 395.415603 
L 66.463423 394.432647 
L 66.483086 391.361633 
L 66.444041 389.334244 
L 66.417349 388.290619 
L 66.049082 385.718217 
L 65.654123 385.816074 
L 65.259164 386.772672 
L 64.864204 388.212877 
L 64.847254 388.290619 
L 64.469245 390.00643 
L 64.216784 391.361633 
L 64.074286 392.171556 
L 63.713524 394.432647 
L 63.679327 394.677385 
L 63.284368 397.469091 
L 63.277451 397.503662 
L 62.889409 400.391492 
L 62.840571 400.574676 
L 62.49445 402.803969 
L 62.283829 400.574676 
L 62.353108 397.503662 
L 62.479931 394.432647 
L 62.49445 394.191317 
L 62.649693 391.361633 
L 62.801617 388.290619 
L 62.889409 386.633615 
L 62.958473 385.219604 
L 63.105309 382.14859 
L 63.246029 379.077575 
L 63.284368 378.276517 
L 63.390855 376.006561 
L 63.532848 372.935547 
L 63.677958 369.864532 
L 63.679327 369.836975 
L 63.843274 366.793518 
L 64.01619 363.722503 
L 64.074286 362.751343 
L 64.221332 360.651489 
L 64.446989 357.580475 
L 64.469245 357.289988 
L 64.716512 354.50946 
L 64.864204 352.847587 
L 64.999066 351.438446 
L 65.259164 348.564402 
L 65.276593 348.367431 
L 65.528458 345.296417 
L 65.654123 343.577932 
L 65.746787 342.225403 
L 65.935111 339.154388 
L 66.049082 337.055263 
L 66.100949 336.083374 
L 66.248742 333.012359 
L 66.376553 329.941345 
L 66.444041 328.003267 
L 66.48677 326.870331 
L 66.571252 323.799316 
L 66.615008 320.728302 
L 66.598158 317.657287 
L 66.472428 314.586273 
L 66.444041 314.266189 
L 66.049082 312.651676 
L 65.654123 313.165246 
L 65.259164 314.586273 
L 65.259164 314.586273 
L 64.864204 316.563127 
L 64.670964 317.657287 
L 64.469245 318.853612 
L 64.151889 320.728302 
L 64.074286 321.238324 
L 63.679327 323.296449 
L 63.392824 323.799316 
L 63.284368 324.056814 
L 63.241687 323.799316 
L 62.967374 320.728302 
L 62.889409 318.806597 
L 62.862779 317.657287 
L 62.813037 314.586273 
L 62.781758 311.515259 
L 62.763513 308.444244 
L 62.753326 305.37323 
L 62.745312 302.302215 
L 62.731658 299.231201 
L 62.700895 296.160187 
L 62.634314 293.089172 
L 62.498664 290.018158 
L 62.49445 289.955752 
L 62.09949 287.1308 
L 62.020755 286.947143 
L 61.704531 286.291923 
L 61.309572 286.070201 
L 60.914613 286.462054 
L 60.788574 286.947143 
L 60.519654 287.963768 
L 60.244124 290.018158 
L 60.124695 290.901715 
L 59.914979 293.089172 
L 59.729736 295.028545 
L 59.634255 296.160187 
L 59.375347 299.231201 
L 59.334777 299.699124 
L 59.097837 302.302215 
L 58.939817 303.943463 
L 58.771467 305.37323 
L 58.544858 307.122489 
L 58.304434 308.444244 
L 58.149899 309.197402 
L 57.75494 310.321298 
L 57.359981 310.452738 
L 56.965022 308.508542 
L 56.959918 308.444244 
L 56.845754 305.37323 
L 56.844288 302.302215 
L 56.915763 299.231201 
L 56.965022 298.051227 
L 57.049776 296.160187 
L 57.215913 293.089172 
L 57.359981 290.774678 
L 57.408303 290.018158 
L 57.612952 286.947143 
L 57.75494 284.866163 
L 57.823135 283.876129 
L 58.026287 280.805115 
L 58.149899 278.868915 
L 58.2247 277.7341 
L 58.411162 274.663086 
L 58.544858 272.275773 
L 58.586593 271.592071 
L 58.761324 268.521057 
L 58.918023 265.450043 
L 58.939817 265.016467 
L 59.090746 262.379028 
L 59.251568 259.308014 
L 59.334777 257.642509 
L 59.421386 256.236999 
L 59.600569 253.165985 
L 59.729736 250.760223 
L 59.776223 250.094971 
L 59.975299 247.023956 
L 60.124695 244.394353 
L 60.157171 243.952942 
L 60.346727 240.881927 
L 60.493006 237.810913 
L 60.519654 236.545309 
L 60.569066 234.739899 
L 60.519654 232.249509 
L 60.508117 231.668884 
L 60.297165 228.59787 
L 60.124695 226.924294 
L 60.042834 225.526855 
L 59.853256 222.455841 
L 59.729736 220.269915 
L 59.681291 219.384827 
L 59.516167 216.313812 
L 59.334777 213.325002 
L 59.324992 213.242798 
L 58.939817 210.527106 
L 58.544858 210.263039 
L 58.149899 211.150115 
L 57.75494 212.612927 
L 57.584431 213.242798 
L 57.359981 214.075752 
L 56.965022 214.972872 
L 56.570063 214.553198 
L 56.408146 213.242798 
L 56.218397 210.171783 
L 56.175104 208.896703 
L 56.13849 207.100769 
L 56.072684 204.029755 
L 55.974516 200.95874 
L 55.808335 197.887726 
L 55.780144 197.533056 
L 55.385185 195.078954 
L 54.990226 195.418348 
L 54.595267 197.647055 
L 54.570566 197.887726 
L 54.256543 200.95874 
L 54.200308 201.509403 
L 54.009244 204.029755 
L 53.805349 206.936807 
L 53.795269 207.100769 
L 53.619674 210.171783 
L 53.463158 213.242798 
L 53.41039 214.355361 
L 53.325386 216.313812 
L 53.211951 219.384827 
L 53.112425 222.455841 
L 53.021268 225.526855 
L 53.015431 225.766038 
L 52.954739 228.59787 
L 52.904073 231.668884 
L 52.864673 234.739899 
L 52.830747 237.810913 
L 52.791533 240.881927 
L 52.731986 243.952942 
L 52.640536 247.023956 
L 52.620471 247.500737 
L 52.530698 250.094971 
L 52.389679 253.165985 
L 52.225512 256.145912 
L 52.221071 256.236999 
L 52.048121 259.308014 
L 51.858766 262.379028 
L 51.830553 262.808309 
L 51.670662 265.450043 
L 51.478537 268.521057 
L 51.435594 269.205857 
L 51.29429 271.592071 
L 51.116624 274.663086 
L 51.040635 276.051554 
L 50.951978 277.7341 
L 50.812975 280.805115 
L 50.694632 283.876129 
L 50.645676 286.145501 
L 50.629075 286.947143 
L 50.645676 288.343443 
L 50.692052 290.018158 
L 51.040635 292.527942 
L 51.145757 293.089172 
L 51.435594 295.286782 
L 51.483826 296.160187 
L 51.522713 299.231201 
L 51.46774 302.302215 
L 51.435594 303.100683 
L 51.34146 305.37323 
L 51.176702 308.444244 
L 51.040635 310.471157 
L 50.969382 311.515259 
L 50.733174 314.586273 
L 50.645676 315.586305 
L 50.467768 317.657287 
L 50.250717 320.015756 
L 50.18633 320.728302 
L 49.903276 323.799316 
L 49.855757 324.29287 
L 49.622484 326.870331 
L 49.460798 328.67204 
L 49.350942 329.941345 
L 49.100133 333.012359 
L 49.065839 333.442205 
L 48.86438 336.083374 
L 48.67088 338.87062 
L 48.651098 339.154388 
L 48.459472 342.225403 
L 48.290588 345.296417 
L 48.275921 345.597691 
L 48.143665 348.367431 
L 48.024139 351.438446 
L 47.926343 354.50946 
L 47.880962 356.542879 
L 47.858382 357.580475 
L 47.835007 360.651489 
L 47.862896 363.722503 
L 47.880962 364.41371 
L 47.961678 366.793518 
L 48.082281 369.864532 
L 48.161783 372.935547 
L 48.18541 376.006561 
L 48.168461 379.077575 
L 48.128355 382.14859 
L 48.076047 385.219604 
L 48.016991 388.290619 
L 47.953264 391.361633 
L 47.885045 394.432647 
L 47.880962 394.592367 
L 47.786589 397.503662 
L 47.683613 400.574676 
L 47.576724 403.645691 
L 47.486003 406.129673 
L 47.459168 406.716705 
L 47.308198 409.787719 
L 47.166773 412.858734 
L 47.091044 414.554897 
L 47.015862 415.929748 
L 46.857222 419.000763 
L 46.723599 422.071777 
L 46.696084 422.74861 
L 46.575265 425.142791 
L 46.44271 428.213806 
L 46.33439 431.28482 
L 46.301125 432.290426 
L 46.212034 434.355834 
L 46.087531 437.426849 
L 45.978662 440.497863 
L 45.906166 442.705184 
L 45.86684 443.568878 
L 45.717523 446.639892 
L 45.592225 449.710906 
L 45.511207 451.983283 
L 45.469204 452.781921 
L 45.307415 455.852935 
L 45.182128 458.92395 
L 45.116248 460.821048 
L 45.051963 461.994964 
L 44.898466 465.065978 
L 44.783569 468.136993 
L 44.721289 470.171653 
L 44.667426 471.208007 
L 44.52401 474.279022 
L 44.417181 477.350036 
L 44.336704 480.42105 
L 44.32633 480.851953 
L 44.209107 483.492065 
L 44.103191 486.563079 
L 44.022832 489.634094 
L 43.96099 492.705108 
L 43.931371 494.468778 
L 43.887071 495.776122 
L 43.797822 498.847137 
L 43.727484 501.918151 
L 43.670857 504.989166 
L 43.624213 508.06018 
L 43.584899 511.131194 
L 43.551061 514.202209 
L 43.536411 515.642448 
L 43.50019 517.273223 
L 43.438176 520.344238 
L 43.385287 523.415252 
L 43.341062 526.486266 
L 43.305329 529.557281 
L 43.278164 532.628295 
L 43.259998 535.69931 
L 43.251859 538.770324 
L 43.255765 541.841338 
L 43.275346 544.912353 
L 43.316876 547.983367 
L 43.391084 551.054382 
L 43.516455 554.125396 
L 43.536411 554.501006 
L 43.659386 557.19641 
L 43.906981 560.267425 
L 43.931371 560.513735 
L 44.299529 563.338439 
z
M 44.949881 554.125396 
L 44.721289 552.5517 
L 44.573046 551.054382 
L 44.368852 547.983367 
L 44.32633 546.991054 
L 44.230207 544.912353 
L 44.140053 541.841338 
L 44.090126 538.770324 
L 44.066976 535.69931 
L 44.062726 532.628295 
L 44.072767 529.557281 
L 44.094454 526.486266 
L 44.126337 523.415252 
L 44.16771 520.344238 
L 44.218366 517.273223 
L 44.278563 514.202209 
L 44.32633 512.059989 
L 44.337634 511.131194 
L 44.377916 508.06018 
L 44.424522 504.989166 
L 44.47945 501.918151 
L 44.545577 498.847137 
L 44.626946 495.776122 
L 44.721289 492.911704 
L 44.725249 492.705108 
L 44.789898 489.634094 
L 44.871564 486.563079 
L 44.976572 483.492065 
L 45.113752 480.42105 
L 45.116248 480.36862 
L 45.20728 477.350036 
L 45.327547 474.279022 
L 45.486599 471.208007 
L 45.511207 470.764382 
L 45.61136 468.136993 
L 45.760918 465.065978 
L 45.906166 462.675951 
L 45.936885 461.994964 
L 46.086764 458.92395 
L 46.285253 455.852935 
L 46.301125 455.612421 
L 46.449999 452.781921 
L 46.657417 449.710906 
L 46.696084 449.155835 
L 46.845533 446.639892 
L 47.0697 443.568878 
L 47.091044 443.273989 
L 47.273397 440.497863 
L 47.486003 437.765257 
L 47.511538 437.426849 
L 47.737683 434.355834 
L 47.880962 432.56472 
L 47.985767 431.28482 
L 48.247434 428.213806 
L 48.275921 427.864779 
L 48.514622 425.142791 
L 48.67088 423.395594 
L 48.805178 422.071777 
L 49.065839 419.431339 
L 49.116255 419.000763 
L 49.449294 415.929748 
L 49.460798 415.812947 
L 49.808225 412.858734 
L 49.855757 412.406787 
L 50.188416 409.787719 
L 50.250717 409.214059 
L 50.583145 406.716705 
L 50.645676 406.138996 
L 50.9918 403.645691 
L 51.040635 403.185053 
L 51.434649 400.574676 
L 51.435594 400.565724 
L 51.830553 398.574002 
L 52.225512 398.331535 
L 52.620471 399.735971 
L 52.819088 400.574676 
L 53.015431 401.334178 
L 53.41039 401.962624 
L 53.805349 401.482737 
L 54.077019 403.645691 
L 54.125414 406.716705 
L 54.162575 409.787719 
L 54.200308 411.579493 
L 54.215149 412.858734 
L 54.285787 415.929748 
L 54.391104 419.000763 
L 54.52677 422.071777 
L 54.595267 423.406059 
L 54.685792 425.142791 
L 54.847293 428.213806 
L 54.98066 431.28482 
L 54.990226 431.571714 
L 55.090792 434.355834 
L 55.167945 437.426849 
L 55.213478 440.497863 
L 55.224154 443.568878 
L 55.193533 446.639892 
L 55.120061 449.710906 
L 55.011912 452.781921 
L 54.990226 453.251999 
L 54.874622 455.852935 
L 54.71165 458.92395 
L 54.595267 460.927118 
L 54.539545 461.994964 
L 54.358149 465.065978 
L 54.200308 467.596427 
L 54.173706 468.136993 
L 54.005436 471.208007 
L 53.823494 474.279022 
L 53.805349 474.563357 
L 53.676843 477.350036 
L 53.515691 480.42105 
L 53.41039 482.208623 
L 53.359857 483.492065 
L 53.219797 486.563079 
L 53.05127 489.634094 
L 53.015431 490.214033 
L 52.912719 492.705108 
L 52.75722 495.776122 
L 52.620471 497.98828 
L 52.584944 498.847137 
L 52.436726 501.918151 
L 52.24058 504.989166 
L 52.225512 505.203089 
L 52.085238 508.06018 
L 51.880904 511.131194 
L 51.830553 511.797164 
L 51.698952 514.202209 
L 51.470461 517.273223 
L 51.435594 517.695453 
L 51.269308 520.344238 
L 51.040635 523.007701 
L 51.012908 523.415252 
L 50.77589 526.486266 
L 50.645676 527.853949 
L 50.508625 529.557281 
L 50.250717 532.11927 
L 50.205015 532.628295 
L 49.887232 535.69931 
L 49.855757 535.982036 
L 49.557999 538.770324 
L 49.460798 539.589462 
L 49.188187 541.841338 
L 49.065839 542.802751 
L 48.773494 544.912353 
L 48.67088 545.659024 
L 48.298316 547.983367 
L 48.275921 548.133029 
L 47.880962 550.488691 
L 47.755382 551.054382 
L 47.486003 552.505059 
L 47.091044 553.983983 
L 47.038877 554.125396 
L 46.696084 555.377961 
L 46.301125 556.211364 
L 45.906166 556.523511 
L 45.511207 556.251469 
L 45.116248 555.083774 
z
M 52.450819 376.006561 
L 52.225512 374.611733 
L 52.137947 372.935547 
L 52.024387 369.864532 
L 51.988564 366.793518 
L 52.027483 363.722503 
L 52.121748 360.651489 
L 52.225512 358.314496 
L 52.270869 357.580475 
L 52.501018 354.50946 
L 52.620471 352.993508 
L 52.82128 351.438446 
L 53.015431 349.889662 
L 53.41039 349.46602 
L 53.58457 351.438446 
L 53.727709 354.50946 
L 53.805349 357.580475 
L 53.805349 357.580475 
L 53.83173 360.651489 
L 53.815687 363.722503 
L 53.805349 364.217331 
L 53.737151 366.793518 
L 53.589725 369.864532 
L 53.41039 372.40876 
L 53.35348 372.935547 
L 53.015431 375.756392 
L 52.92432 376.006561 
L 52.620471 376.956346 
z
" clip-path="url(#pfcebbf5d7a)" style="fill: #e9f2e9; fill-opacity: 0.5"/>
    <path d="M 45.116248 555.083774 
L 45.511207 556.251469 
L 45.906166 556.523511 
L 46.301125 556.211364 
L 46.696084 555.377961 
L 47.038877 554.125396 
L 47.091044 553.983983 
L 47.486003 552.505059 
L 47.755382 551.054382 
L 47.880962 550.488691 
L 48.275921 548.133029 
L 48.298316 547.983367 
L 48.67088 545.659024 
L 48.773494 544.912353 
L 49.065839 542.802751 
L 49.188187 541.841338 
L 49.460798 539.589462 
L 49.557999 538.770324 
L 49.855757 535.982036 
L 49.887232 535.69931 
L 50.205015 532.628295 
L 50.250717 532.11927 
L 50.508625 529.557281 
L 50.645676 527.853949 
L 50.77589 526.486266 
L 51.012908 523.415252 
L 51.040635 523.007701 
L 51.269308 520.344238 
L 51.435594 517.695453 
L 51.470461 517.273223 
L 51.698952 514.202209 
L 51.830553 511.797164 
L 51.880904 511.131194 
L 52.085238 508.06018 
L 52.225512 505.203089 
L 52.24058 504.989166 
L 52.436726 501.918151 
L 52.584944 498.847137 
L 52.620471 497.98828 
L 52.75722 495.776122 
L 52.912719 492.705108 
L 53.015431 490.214033 
L 53.05127 489.634094 
L 53.219797 486.563079 
L 53.359857 483.492065 
L 53.41039 482.208623 
L 53.515691 480.42105 
L 53.676843 477.350036 
L 53.805349 474.563357 
L 53.823494 474.279022 
L 54.005436 471.208007 
L 54.173706 468.136993 
L 54.200308 467.596427 
L 54.358149 465.065978 
L 54.539545 461.994964 
L 54.595267 460.927118 
L 54.71165 458.92395 
L 54.874622 455.852935 
L 54.990226 453.251999 
L 55.011912 452.781921 
L 55.120061 449.710906 
L 55.193533 446.639892 
L 55.224154 443.568878 
L 55.213478 440.497863 
L 55.167945 437.426849 
L 55.090792 434.355834 
L 54.990226 431.571714 
L 54.98066 431.28482 
L 54.847293 428.213806 
L 54.685792 425.142791 
L 54.595267 423.406059 
L 54.52677 422.071777 
L 54.391104 419.000763 
L 54.285787 415.929748 
L 54.215149 412.858734 
L 54.200308 411.579493 
L 54.162575 409.787719 
L 54.125414 406.716705 
L 54.077019 403.645691 
L 53.805349 401.482737 
L 53.41039 401.962624 
L 53.015431 401.334178 
L 52.819088 400.574676 
L 52.620471 399.735971 
L 52.225512 398.331535 
L 51.830553 398.574002 
L 51.435594 400.565724 
L 51.434649 400.574676 
L 51.040635 403.185053 
L 50.9918 403.645691 
L 50.645676 406.138996 
L 50.583145 406.716705 
L 50.250717 409.214059 
L 50.188416 409.787719 
L 49.855757 412.406787 
L 49.808225 412.858734 
L 49.460798 415.812947 
L 49.449294 415.929748 
L 49.116255 419.000763 
L 49.065839 419.431339 
L 48.805178 422.071777 
L 48.67088 423.395594 
L 48.514622 425.142791 
L 48.275921 427.864779 
L 48.247434 428.213806 
L 47.985767 431.28482 
L 47.880962 432.56472 
L 47.737683 434.355834 
L 47.511538 437.426849 
L 47.486003 437.765257 
L 47.273397 440.497863 
L 47.091044 443.273989 
L 47.0697 443.568878 
L 46.845533 446.639892 
L 46.696084 449.155835 
L 46.657417 449.710906 
L 46.449999 452.781921 
L 46.301125 455.612421 
L 46.285253 455.852935 
L 46.086764 458.92395 
L 45.936885 461.994964 
L 45.906166 462.675951 
L 45.760918 465.065978 
L 45.61136 468.136993 
L 45.511207 470.764382 
L 45.486599 471.208007 
L 45.327547 474.279022 
L 45.20728 477.350036 
L 45.116248 480.36862 
L 45.113752 480.42105 
L 44.976572 483.492065 
L 44.871564 486.563079 
L 44.789898 489.634094 
L 44.725249 492.705108 
L 44.721289 492.911704 
L 44.626946 495.776122 
L 44.545577 498.847137 
L 44.47945 501.918151 
L 44.424522 504.989166 
L 44.377916 508.06018 
L 44.337634 511.131194 
L 44.32633 512.059989 
L 44.278563 514.202209 
L 44.218366 517.273223 
L 44.16771 520.344238 
L 44.126337 523.415252 
L 44.094454 526.486266 
L 44.072767 529.557281 
L 44.062726 532.628295 
L 44.066976 535.69931 
L 44.090126 538.770324 
L 44.140053 541.841338 
L 44.230207 544.912353 
L 44.32633 546.991054 
L 44.368852 547.983367 
L 44.573046 551.054382 
L 44.721289 552.5517 
L 44.949881 554.125396 
z
M 45.657406 541.841338 
L 45.511207 540.575361 
L 45.371264 538.770324 
L 45.222341 535.69931 
L 45.143377 532.628295 
L 45.116248 530.469197 
L 45.102637 529.557281 
L 45.086654 526.486266 
L 45.095286 523.415252 
L 45.116248 521.134041 
L 45.121053 520.344238 
L 45.149648 517.273223 
L 45.18633 514.202209 
L 45.230466 511.131194 
L 45.282068 508.06018 
L 45.3418 504.989166 
L 45.411133 501.918151 
L 45.492622 498.847137 
L 45.511207 498.213837 
L 45.561014 495.776122 
L 45.634068 492.705108 
L 45.722351 489.634094 
L 45.831287 486.563079 
L 45.906166 484.778851 
L 45.946511 483.492065 
L 46.056889 480.42105 
L 46.195321 477.350036 
L 46.301125 475.385332 
L 46.349207 474.279022 
L 46.4999 471.208007 
L 46.69234 468.136993 
L 46.696084 468.079931 
L 46.868222 465.065978 
L 47.091044 461.994964 
L 47.091044 461.994964 
L 47.305699 458.92395 
L 47.486003 456.744705 
L 47.560959 455.852935 
L 47.838325 452.781921 
L 47.880962 452.325094 
L 48.146364 449.710906 
L 48.275921 448.484717 
L 48.505884 446.639892 
L 48.67088 445.28879 
L 48.941758 443.568878 
L 49.065839 442.716792 
L 49.460798 440.803158 
L 49.571995 440.497863 
L 49.855757 439.551322 
L 50.250717 439.196018 
L 50.645676 439.915674 
L 50.771937 440.497863 
L 51.040635 441.817887 
L 51.257661 443.568878 
L 51.435594 445.343069 
L 51.538311 446.639892 
L 51.721358 449.710906 
L 51.830553 452.570392 
L 51.838637 452.781921 
L 51.924065 455.852935 
L 51.973615 458.92395 
L 51.996838 461.994964 
L 52.000367 465.065978 
L 51.988656 468.136993 
L 51.964449 471.208007 
L 51.92904 474.279022 
L 51.882405 477.350036 
L 51.830553 480.050263 
L 51.825617 480.42105 
L 51.776773 483.492065 
L 51.717889 486.563079 
L 51.645913 489.634094 
L 51.556418 492.705108 
L 51.443107 495.776122 
L 51.435594 495.952491 
L 51.348256 498.847137 
L 51.231948 501.918151 
L 51.081067 504.989166 
L 51.040635 505.697841 
L 50.9396 508.06018 
L 50.772961 511.131194 
L 50.645676 513.016839 
L 50.581887 514.202209 
L 50.384172 517.273223 
L 50.250717 518.955331 
L 50.156764 520.344238 
L 49.902401 523.415252 
L 49.855757 523.920928 
L 49.639023 526.486266 
L 49.460798 528.254253 
L 49.332053 529.557281 
L 49.065839 531.948496 
L 48.986082 532.628295 
L 48.67088 535.160282 
L 48.594408 535.69931 
L 48.275921 537.951329 
L 48.132066 538.770324 
L 47.880962 540.299967 
L 47.534497 541.841338 
L 47.486003 542.088035 
L 47.091044 543.541233 
L 46.696084 544.300523 
L 46.301125 544.360382 
L 45.906166 543.405461 
z
M 52.620471 376.956346 
L 52.92432 376.006561 
L 53.015431 375.756392 
L 53.35348 372.935547 
L 53.41039 372.40876 
L 53.589725 369.864532 
L 53.737151 366.793518 
L 53.805349 364.217331 
L 53.815687 363.722503 
L 53.83173 360.651489 
L 53.805349 357.580475 
L 53.805349 357.580475 
L 53.727709 354.50946 
L 53.58457 351.438446 
L 53.41039 349.46602 
L 53.015431 349.889662 
L 52.82128 351.438446 
L 52.620471 352.993508 
L 52.501018 354.50946 
L 52.270869 357.580475 
L 52.225512 358.314496 
L 52.121748 360.651489 
L 52.027483 363.722503 
L 51.988564 366.793518 
L 52.024387 369.864532 
L 52.137947 372.935547 
L 52.225512 374.611733 
L 52.450819 376.006561 
z
" clip-path="url(#pfcebbf5d7a)" style="fill: #dcecdc; fill-opacity: 0.5"/>
    <path d="M 45.906166 543.405461 
L 46.301125 544.360382 
L 46.696084 544.300523 
L 47.091044 543.541233 
L 47.486003 542.088035 
L 47.534497 541.841338 
L 47.880962 540.299967 
L 48.132066 538.770324 
L 48.275921 537.951329 
L 48.594408 535.69931 
L 48.67088 535.160282 
L 48.986082 532.628295 
L 49.065839 531.948496 
L 49.332053 529.557281 
L 49.460798 528.254253 
L 49.639023 526.486266 
L 49.855757 523.920928 
L 49.902401 523.415252 
L 50.156764 520.344238 
L 50.250717 518.955331 
L 50.384172 517.273223 
L 50.581887 514.202209 
L 50.645676 513.016839 
L 50.772961 511.131194 
L 50.9396 508.06018 
L 51.040635 505.697841 
L 51.081067 504.989166 
L 51.231948 501.918151 
L 51.348256 498.847137 
L 51.435594 495.952491 
L 51.443107 495.776122 
L 51.556418 492.705108 
L 51.645913 489.634094 
L 51.717889 486.563079 
L 51.776773 483.492065 
L 51.825617 480.42105 
L 51.830553 480.050263 
L 51.882405 477.350036 
L 51.92904 474.279022 
L 51.964449 471.208007 
L 51.988656 468.136993 
L 52.000367 465.065978 
L 51.996838 461.994964 
L 51.973615 458.92395 
L 51.924065 455.852935 
L 51.838637 452.781921 
L 51.830553 452.570392 
L 51.721358 449.710906 
L 51.538311 446.639892 
L 51.435594 445.343069 
L 51.257661 443.568878 
L 51.040635 441.817887 
L 50.771937 440.497863 
L 50.645676 439.915674 
L 50.250717 439.196018 
L 49.855757 439.551322 
L 49.571995 440.497863 
L 49.460798 440.803158 
L 49.065839 442.716792 
L 48.941758 443.568878 
L 48.67088 445.28879 
L 48.505884 446.639892 
L 48.275921 448.484717 
L 48.146364 449.710906 
L 47.880962 452.325094 
L 47.838325 452.781921 
L 47.560959 455.852935 
L 47.486003 456.744705 
L 47.305699 458.92395 
L 47.091044 461.994964 
L 47.091044 461.994964 
L 46.868222 465.065978 
L 46.696084 468.079931 
L 46.69234 468.136993 
L 46.4999 471.208007 
L 46.349207 474.279022 
L 46.301125 475.385332 
L 46.195321 477.350036 
L 46.056889 480.42105 
L 45.946511 483.492065 
L 45.906166 484.778851 
L 45.831287 486.563079 
L 45.722351 489.634094 
L 45.634068 492.705108 
L 45.561014 495.776122 
L 45.511207 498.213837 
L 45.492622 498.847137 
L 45.411133 501.918151 
L 45.3418 504.989166 
L 45.282068 508.06018 
L 45.230466 511.131194 
L 45.18633 514.202209 
L 45.149648 517.273223 
L 45.121053 520.344238 
L 45.116248 521.134041 
L 45.095286 523.415252 
L 45.086654 526.486266 
L 45.102637 529.557281 
L 45.116248 530.469197 
L 45.143377 532.628295 
L 45.222341 535.69931 
L 45.371264 538.770324 
L 45.511207 540.575361 
L 45.657406 541.841338 
z
M 46.266055 535.69931 
L 45.943097 532.628295 
L 45.906166 532.023889 
L 45.792542 529.557281 
L 45.715877 526.486266 
L 45.683344 523.415252 
L 45.680043 520.344238 
L 45.697472 517.273223 
L 45.730751 514.202209 
L 45.777112 511.131194 
L 45.835111 508.06018 
L 45.904299 504.989166 
L 45.906166 504.913667 
L 45.96358 501.918151 
L 46.030377 498.847137 
L 46.107221 495.776122 
L 46.197144 492.705108 
L 46.301125 489.723682 
L 46.30372 489.634094 
L 46.401234 486.563079 
L 46.5176 483.492065 
L 46.659362 480.42105 
L 46.696084 479.711306 
L 46.804686 477.350036 
L 46.970939 474.279022 
L 47.091044 472.374083 
L 47.162029 471.208007 
L 47.369344 468.136993 
L 47.486003 466.603964 
L 47.608723 465.065978 
L 47.880962 461.994964 
L 47.880962 461.994964 
L 48.198202 458.92395 
L 48.275921 458.198794 
L 48.593244 455.852935 
L 48.67088 455.262996 
L 49.065839 453.1481 
L 49.192069 452.781921 
L 49.460798 451.880281 
L 49.855757 451.644121 
L 50.250717 452.687128 
L 50.266834 452.781921 
L 50.645676 455.564884 
L 50.670301 455.852935 
L 50.873332 458.92395 
L 50.997942 461.994964 
L 51.040635 463.673583 
L 51.074396 465.065978 
L 51.120405 468.136993 
L 51.142431 471.208007 
L 51.146265 474.279022 
L 51.13524 477.350036 
L 51.110808 480.42105 
L 51.072887 483.492065 
L 51.040635 485.372113 
L 51.024912 486.563079 
L 50.972862 489.634094 
L 50.907593 492.705108 
L 50.825715 495.776122 
L 50.722061 498.847137 
L 50.645676 500.676403 
L 50.60454 501.918151 
L 50.483467 504.989166 
L 50.329787 508.06018 
L 50.250717 509.380187 
L 50.162303 511.131194 
L 49.974786 514.202209 
L 49.855757 515.819092 
L 49.759058 517.273223 
L 49.515249 520.344238 
L 49.460798 520.955133 
L 49.247527 523.415252 
L 49.065839 525.224124 
L 48.932519 526.486266 
L 48.67088 528.757314 
L 48.565172 529.557281 
L 48.275921 531.69483 
L 48.115844 532.628295 
L 47.880962 534.05599 
L 47.49405 535.69931 
L 47.486003 535.737413 
L 47.091044 536.860162 
L 46.696084 537.052179 
L 46.301125 535.931624 
z
" clip-path="url(#pfcebbf5d7a)" style="fill: #c1dfc1; fill-opacity: 0.5"/>
    <path d="M 46.301125 535.931624 
L 46.696084 537.052179 
L 47.091044 536.860162 
L 47.486003 535.737413 
L 47.49405 535.69931 
L 47.880962 534.05599 
L 48.115844 532.628295 
L 48.275921 531.69483 
L 48.565172 529.557281 
L 48.67088 528.757314 
L 48.932519 526.486266 
L 49.065839 525.224124 
L 49.247527 523.415252 
L 49.460798 520.955133 
L 49.515249 520.344238 
L 49.759058 517.273223 
L 49.855757 515.819092 
L 49.974786 514.202209 
L 50.162303 511.131194 
L 50.250717 509.380187 
L 50.329787 508.06018 
L 50.483467 504.989166 
L 50.60454 501.918151 
L 50.645676 500.676403 
L 50.722061 498.847137 
L 50.825715 495.776122 
L 50.907593 492.705108 
L 50.972862 489.634094 
L 51.024912 486.563079 
L 51.040635 485.372113 
L 51.072887 483.492065 
L 51.110808 480.42105 
L 51.13524 477.350036 
L 51.146265 474.279022 
L 51.142431 471.208007 
L 51.120405 468.136993 
L 51.074396 465.065978 
L 51.040635 463.673583 
L 50.997942 461.994964 
L 50.873332 458.92395 
L 50.670301 455.852935 
L 50.645676 455.564884 
L 50.266834 452.781921 
L 50.250717 452.687128 
L 49.855757 451.644121 
L 49.460798 451.880281 
L 49.192069 452.781921 
L 49.065839 453.1481 
L 48.67088 455.262996 
L 48.593244 455.852935 
L 48.275921 458.198794 
L 48.198202 458.92395 
L 47.880962 461.994964 
L 47.880962 461.994964 
L 47.608723 465.065978 
L 47.486003 466.603964 
L 47.369344 468.136993 
L 47.162029 471.208007 
L 47.091044 472.374083 
L 46.970939 474.279022 
L 46.804686 477.350036 
L 46.696084 479.711306 
L 46.659362 480.42105 
L 46.5176 483.492065 
L 46.401234 486.563079 
L 46.30372 489.634094 
L 46.301125 489.723682 
L 46.197144 492.705108 
L 46.107221 495.776122 
L 46.030377 498.847137 
L 45.96358 501.918151 
L 45.906166 504.913667 
L 45.904299 504.989166 
L 45.835111 508.06018 
L 45.777112 511.131194 
L 45.730751 514.202209 
L 45.697472 517.273223 
L 45.680043 520.344238 
L 45.683344 523.415252 
L 45.715877 526.486266 
L 45.792542 529.557281 
L 45.906166 532.023889 
L 45.943097 532.628295 
L 46.266055 535.69931 
z
M 46.397833 529.557281 
L 46.301125 528.417973 
L 46.19916 526.486266 
L 46.110864 523.415252 
L 46.075121 520.344238 
L 46.07295 517.273223 
L 46.09385 514.202209 
L 46.131942 511.131194 
L 46.183973 508.06018 
L 46.248292 504.989166 
L 46.301125 502.826338 
L 46.320135 501.918151 
L 46.390914 498.847137 
L 46.471089 495.776122 
L 46.563113 492.705108 
L 46.670578 489.634094 
L 46.696084 488.982392 
L 46.782461 486.563079 
L 46.908581 483.492065 
L 47.058307 480.42105 
L 47.091044 479.818099 
L 47.22305 477.350036 
L 47.412351 474.279022 
L 47.486003 473.202891 
L 47.632935 471.208007 
L 47.880962 468.189529 
L 47.886156 468.136993 
L 48.197063 465.065978 
L 48.275921 464.317365 
L 48.602146 461.994964 
L 48.67088 461.494404 
L 49.065839 459.676823 
L 49.460798 458.989689 
L 49.855757 459.692692 
L 50.182268 461.994964 
L 50.250717 462.684716 
L 50.398575 465.065978 
L 50.519971 468.136993 
L 50.591558 471.208007 
L 50.630391 474.279022 
L 50.645676 477.170831 
L 50.646632 477.350036 
L 50.645676 480.42105 
L 50.645676 480.42105 
L 50.630631 483.492065 
L 50.602469 486.563079 
L 50.561017 489.634094 
L 50.505069 492.705108 
L 50.432258 495.776122 
L 50.338674 498.847137 
L 50.250717 501.124529 
L 50.224576 501.918151 
L 50.103899 504.989166 
L 49.95373 508.06018 
L 49.855757 509.714623 
L 49.779701 511.131194 
L 49.585564 514.202209 
L 49.460798 515.857743 
L 49.356688 517.273223 
L 49.093226 520.344238 
L 49.065839 520.635319 
L 48.789693 523.415252 
L 48.67088 524.499212 
L 48.418548 526.486266 
L 48.275921 527.570408 
L 47.937741 529.557281 
L 47.880962 529.901055 
L 47.486003 531.521024 
L 47.091044 532.215521 
L 46.696084 531.644089 
z
" clip-path="url(#pfcebbf5d7a)" style="fill: #a3d0a3; fill-opacity: 0.5"/>
    <path d="M 46.696084 531.644089 
L 47.091044 532.215521 
L 47.486003 531.521024 
L 47.880962 529.901055 
L 47.937741 529.557281 
L 48.275921 527.570408 
L 48.418548 526.486266 
L 48.67088 524.499212 
L 48.789693 523.415252 
L 49.065839 520.635319 
L 49.093226 520.344238 
L 49.356688 517.273223 
L 49.460798 515.857743 
L 49.585564 514.202209 
L 49.779701 511.131194 
L 49.855757 509.714623 
L 49.95373 508.06018 
L 50.103899 504.989166 
L 50.224576 501.918151 
L 50.250717 501.124529 
L 50.338674 498.847137 
L 50.432258 495.776122 
L 50.505069 492.705108 
L 50.561017 489.634094 
L 50.602469 486.563079 
L 50.630631 483.492065 
L 50.645676 480.42105 
L 50.645676 480.42105 
L 50.646632 477.350036 
L 50.645676 477.170831 
L 50.630391 474.279022 
L 50.591558 471.208007 
L 50.519971 468.136993 
L 50.398575 465.065978 
L 50.250717 462.684716 
L 50.182268 461.994964 
L 49.855757 459.692692 
L 49.460798 458.989689 
L 49.065839 459.676823 
L 48.67088 461.494404 
L 48.602146 461.994964 
L 48.275921 464.317365 
L 48.197063 465.065978 
L 47.886156 468.136993 
L 47.880962 468.189529 
L 47.632935 471.208007 
L 47.486003 473.202891 
L 47.412351 474.279022 
L 47.22305 477.350036 
L 47.091044 479.818099 
L 47.058307 480.42105 
L 46.908581 483.492065 
L 46.782461 486.563079 
L 46.696084 488.982392 
L 46.670578 489.634094 
L 46.563113 492.705108 
L 46.471089 495.776122 
L 46.390914 498.847137 
L 46.320135 501.918151 
L 46.301125 502.826338 
L 46.248292 504.989166 
L 46.183973 508.06018 
L 46.131942 511.131194 
L 46.09385 514.202209 
L 46.07295 517.273223 
L 46.075121 520.344238 
L 46.110864 523.415252 
L 46.19916 526.486266 
L 46.301125 528.417973 
L 46.397833 529.557281 
z
M 46.775413 526.486266 
L 46.696084 525.918312 
L 46.536536 523.415252 
L 46.441638 520.344238 
L 46.40829 517.273223 
L 46.411954 514.202209 
L 46.439818 511.131194 
L 46.485089 508.06018 
L 46.544234 504.989166 
L 46.615633 501.918151 
L 46.696084 498.950358 
L 46.69874 498.847137 
L 46.784703 495.776122 
L 46.88117 492.705108 
L 46.991058 489.634094 
L 47.091044 487.193856 
L 47.117491 486.563079 
L 47.258593 483.492065 
L 47.420517 480.42105 
L 47.486003 479.309141 
L 47.614267 477.350036 
L 47.836042 474.279022 
L 47.880962 473.702215 
L 48.120307 471.208007 
L 48.275921 469.659431 
L 48.496167 468.136993 
L 48.67088 466.91 
L 49.065839 465.443632 
L 49.460798 465.489096 
L 49.855757 467.909077 
L 49.87373 468.136993 
L 50.050065 471.208007 
L 50.154883 474.279022 
L 50.214592 477.350036 
L 50.2439 480.42105 
L 50.250717 483.492065 
L 50.238993 486.563079 
L 50.210389 489.634094 
L 50.165135 492.705108 
L 50.102291 495.776122 
L 50.019566 498.847137 
L 49.91282 501.918151 
L 49.855757 503.23148 
L 49.785435 504.989166 
L 49.638068 508.06018 
L 49.460798 511.048199 
L 49.45591 511.131194 
L 49.251492 514.202209 
L 49.065839 516.545959 
L 49.003755 517.273223 
L 48.71306 520.344238 
L 48.67088 520.752837 
L 48.347339 523.415252 
L 48.275921 523.976799 
L 47.880962 526.3071 
L 47.827364 526.486266 
L 47.486003 527.720163 
L 47.091044 527.901373 
z
" clip-path="url(#pfcebbf5d7a)" style="fill: #86c286; fill-opacity: 0.5"/>
    <path d="M 47.091044 527.901373 
L 47.486003 527.720163 
L 47.827364 526.486266 
L 47.880962 526.3071 
L 48.275921 523.976799 
L 48.347339 523.415252 
L 48.67088 520.752837 
L 48.71306 520.344238 
L 49.003755 517.273223 
L 49.065839 516.545959 
L 49.251492 514.202209 
L 49.45591 511.131194 
L 49.460798 511.048199 
L 49.638068 508.06018 
L 49.785435 504.989166 
L 49.855757 503.23148 
L 49.91282 501.918151 
L 50.019566 498.847137 
L 50.102291 495.776122 
L 50.165135 492.705108 
L 50.210389 489.634094 
L 50.238993 486.563079 
L 50.250717 483.492065 
L 50.2439 480.42105 
L 50.214592 477.350036 
L 50.154883 474.279022 
L 50.050065 471.208007 
L 49.87373 468.136993 
L 49.855757 467.909077 
L 49.460798 465.489096 
L 49.065839 465.443632 
L 48.67088 466.91 
L 48.496167 468.136993 
L 48.275921 469.659431 
L 48.120307 471.208007 
L 47.880962 473.702215 
L 47.836042 474.279022 
L 47.614267 477.350036 
L 47.486003 479.309141 
L 47.420517 480.42105 
L 47.258593 483.492065 
L 47.117491 486.563079 
L 47.091044 487.193856 
L 46.991058 489.634094 
L 46.88117 492.705108 
L 46.784703 495.776122 
L 46.69874 498.847137 
L 46.696084 498.950358 
L 46.615633 501.918151 
L 46.544234 504.989166 
L 46.485089 508.06018 
L 46.439818 511.131194 
L 46.411954 514.202209 
L 46.40829 517.273223 
L 46.441638 520.344238 
L 46.536536 523.415252 
L 46.696084 525.918312 
L 46.775413 526.486266 
z
M 47.306408 523.415252 
L 47.091044 522.873269 
L 46.878409 520.344238 
L 46.767577 517.273223 
L 46.736468 514.202209 
L 46.748749 511.131194 
L 46.787311 508.06018 
L 46.843852 504.989166 
L 46.91446 501.918151 
L 46.997597 498.847137 
L 47.091044 495.844302 
L 47.093309 495.776122 
L 47.20376 492.705108 
L 47.325854 489.634094 
L 47.463061 486.563079 
L 47.486003 486.096785 
L 47.634218 483.492065 
L 47.825495 480.42105 
L 47.880962 479.603877 
L 48.081119 477.350036 
L 48.275921 475.250047 
L 48.422264 474.279022 
L 48.67088 472.602718 
L 49.065839 471.685509 
L 49.460798 473.266101 
L 49.543045 474.279022 
L 49.710159 477.350036 
L 49.805854 480.42105 
L 49.855757 483.492065 
L 49.855757 483.492065 
L 49.871247 486.563079 
L 49.863283 489.634094 
L 49.855757 490.358847 
L 49.831795 492.705108 
L 49.778399 495.776122 
L 49.703525 498.847137 
L 49.605323 501.918151 
L 49.47954 504.989166 
L 49.460798 505.36069 
L 49.323631 508.06018 
L 49.138712 511.131194 
L 49.065839 512.164478 
L 48.908131 514.202209 
L 48.67088 516.914826 
L 48.631825 517.273223 
L 48.276193 520.344238 
L 48.275921 520.346465 
L 47.880962 522.632036 
L 47.589573 523.415252 
L 47.486003 523.713882 
z
" clip-path="url(#pfcebbf5d7a)" style="fill: #69b369; fill-opacity: 0.5"/>
    <path d="M 47.486003 523.713882 
L 47.589573 523.415252 
L 47.880962 522.632036 
L 48.275921 520.346465 
L 48.276193 520.344238 
L 48.631825 517.273223 
L 48.67088 516.914826 
L 48.908131 514.202209 
L 49.065839 512.164478 
L 49.138712 511.131194 
L 49.323631 508.06018 
L 49.460798 505.36069 
L 49.47954 504.989166 
L 49.605323 501.918151 
L 49.703525 498.847137 
L 49.778399 495.776122 
L 49.831795 492.705108 
L 49.855757 490.358847 
L 49.863283 489.634094 
L 49.871247 486.563079 
L 49.855757 483.492065 
L 49.855757 483.492065 
L 49.805854 480.42105 
L 49.710159 477.350036 
L 49.543045 474.279022 
L 49.460798 473.266101 
L 49.065839 471.685509 
L 48.67088 472.602718 
L 48.422264 474.279022 
L 48.275921 475.250047 
L 48.081119 477.350036 
L 47.880962 479.603877 
L 47.825495 480.42105 
L 47.634218 483.492065 
L 47.486003 486.096785 
L 47.463061 486.563079 
L 47.325854 489.634094 
L 47.20376 492.705108 
L 47.093309 495.776122 
L 47.091044 495.844302 
L 46.997597 498.847137 
L 46.91446 501.918151 
L 46.843852 504.989166 
L 46.787311 508.06018 
L 46.748749 511.131194 
L 46.736468 514.202209 
L 46.767577 517.273223 
L 46.878409 520.344238 
L 47.091044 522.873269 
L 47.306408 523.415252 
z
M 47.246863 517.273223 
L 47.091044 514.202209 
L 47.091044 514.202209 
L 47.068856 511.131194 
L 47.08871 508.06018 
L 47.091044 507.916617 
L 47.144702 504.989166 
L 47.220033 501.918151 
L 47.309744 498.847137 
L 47.412482 495.776122 
L 47.486003 493.818477 
L 47.537823 492.705108 
L 47.690315 489.634094 
L 47.854313 486.563079 
L 47.880962 486.102534 
L 48.094685 483.492065 
L 48.275921 481.332214 
L 48.427421 480.42105 
L 48.67088 478.905622 
L 49.065839 479.162786 
L 49.188059 480.42105 
L 49.373866 483.492065 
L 49.460798 486.262765 
L 49.46644 486.563079 
L 49.493908 489.634094 
L 49.490253 492.705108 
L 49.460798 495.455071 
L 49.456958 495.776122 
L 49.38757 498.847137 
L 49.291924 501.918151 
L 49.169289 504.989166 
L 49.065839 507.048169 
L 49.006773 508.06018 
L 48.798742 511.131194 
L 48.67088 512.778488 
L 48.526656 514.202209 
L 48.275921 516.521038 
L 48.140326 517.273223 
L 47.880962 518.709006 
L 47.486003 519.072998 
z
" clip-path="url(#pfcebbf5d7a)" style="fill: #4ba54a; fill-opacity: 0.5"/>
    <path d="M 47.486003 519.072998 
L 47.880962 518.709006 
L 48.140326 517.273223 
L 48.275921 516.521038 
L 48.526656 514.202209 
L 48.67088 512.778488 
L 48.798742 511.131194 
L 49.006773 508.06018 
L 49.065839 507.048169 
L 49.169289 504.989166 
L 49.291924 501.918151 
L 49.38757 498.847137 
L 49.456958 495.776122 
L 49.460798 495.455071 
L 49.490253 492.705108 
L 49.493908 489.634094 
L 49.46644 486.563079 
L 49.460798 486.262765 
L 49.373866 483.492065 
L 49.188059 480.42105 
L 49.065839 479.162786 
L 48.67088 478.905622 
L 48.427421 480.42105 
L 48.275921 481.332214 
L 48.094685 483.492065 
L 47.880962 486.102534 
L 47.854313 486.563079 
L 47.690315 489.634094 
L 47.537823 492.705108 
L 47.486003 493.818477 
L 47.412482 495.776122 
L 47.309744 498.847137 
L 47.220033 501.918151 
L 47.144702 504.989166 
L 47.091044 507.916617 
L 47.08871 508.06018 
L 47.068856 511.131194 
L 47.091044 514.202209 
L 47.091044 514.202209 
L 47.246863 517.273223 
z
M 47.476781 511.131194 
L 47.448887 508.06018 
L 47.474909 504.989166 
L 47.486003 504.441889 
L 47.55631 501.918151 
L 47.664066 498.847137 
L 47.786389 495.776122 
L 47.880962 493.653217 
L 47.951291 492.705108 
L 48.181489 489.634094 
L 48.275921 488.393986 
L 48.67088 486.563079 
L 48.985086 489.634094 
L 49.065839 491.719384 
L 49.081342 492.705108 
L 49.086295 495.776122 
L 49.065839 497.46298 
L 49.042967 498.847137 
L 48.945205 501.918151 
L 48.815784 504.989166 
L 48.67088 507.756693 
L 48.646626 508.06018 
L 48.368023 511.131194 
L 48.275921 512.068183 
L 47.880962 514.036034 
L 47.486003 511.402146 
z
" clip-path="url(#pfcebbf5d7a)" style="fill: #2c962c; fill-opacity: 0.5"/>
    <path d="M 47.486003 511.402146 
L 47.880962 514.036034 
L 48.275921 512.068183 
L 48.368023 511.131194 
L 48.646626 508.06018 
L 48.67088 507.756693 
L 48.815784 504.989166 
L 48.945205 501.918151 
L 49.042967 498.847137 
L 49.065839 497.46298 
L 49.086295 495.776122 
L 49.081342 492.705108 
L 49.065839 491.719384 
L 48.985086 489.634094 
L 48.67088 486.563079 
L 48.275921 488.393986 
L 48.181489 489.634094 
L 47.951291 492.705108 
L 47.880962 493.653217 
L 47.786389 495.776122 
L 47.664066 498.847137 
L 47.55631 501.918151 
L 47.486003 504.441889 
L 47.474909 504.989166 
L 47.448887 508.06018 
L 47.476781 511.131194 
z
" clip-path="url(#pfcebbf5d7a)" style="fill: #0f870f; fill-opacity: 0.5"/>
   </g>
   <g id="matplotlib.axis_1">
    <g id="xtick_1">
     <g id="line2d_1">
      <defs>
       <path id="mf2d764e1a0" d="M 0 0 
L 0 3.5 
" style="stroke: #000000; stroke-width: 0.8"/>
      </defs>
      <g>
       <use xlink:href="#mf2d764e1a0" x="174.993119" y="534.04" style="stroke: #000000; stroke-width: 0.8"/>
      </g>
     </g>
     <g id="text_1">
      <!-- 20 -->
      <g transform="translate(168.630619 548.638438) scale(0.1 -0.1)">
       <defs>
        <path id="DejaVuSans-32" d="M 1228 531 
L 3431 531 
L 3431 0 
L 469 0 
L 469 531 
Q 828 903 1448 1529 
Q 2069 2156 2228 2338 
Q 2531 2678 2651 2914 
Q 2772 3150 2772 3378 
Q 2772 3750 2511 3984 
Q 2250 4219 1831 4219 
Q 1534 4219 1204 4116 
Q 875 4013 500 3803 
L 500 4441 
Q 881 4594 1212 4672 
Q 1544 4750 1819 4750 
Q 2544 4750 2975 4387 
Q 3406 4025 3406 3419 
Q 3406 3131 3298 2873 
Q 3191 2616 2906 2266 
Q 2828 2175 2409 1742 
Q 1991 1309 1228 531 
z
" transform="scale(0.015625)"/>
        <path id="DejaVuSans-30" d="M 2034 4250 
Q 1547 4250 1301 3770 
Q 1056 3291 1056 2328 
Q 1056 1369 1301 889 
Q 1547 409 2034 409 
Q 2525 409 2770 889 
Q 3016 1369 3016 2328 
Q 3016 3291 2770 3770 
Q 2525 4250 2034 4250 
z
M 2034 4750 
Q 2819 4750 3233 4129 
Q 3647 3509 3647 2328 
Q 3647 1150 3233 529 
Q 2819 -91 2034 -91 
Q 1250 -91 836 529 
Q 422 1150 422 2328 
Q 422 3509 836 4129 
Q 1250 4750 2034 4750 
z
" transform="scale(0.015625)"/>
       </defs>
       <use xlink:href="#DejaVuSans-32"/>
       <use xlink:href="#DejaVuSans-30" x="63.623047"/>
      </g>
     </g>
    </g>
    <g id="xtick_2">
     <g id="line2d_2">
      <g>
       <use xlink:href="#mf2d764e1a0" x="309.344148" y="534.04" style="stroke: #000000; stroke-width: 0.8"/>
      </g>
     </g>
     <g id="text_2">
      <!-- 40 -->
      <g transform="translate(302.981648 548.638438) scale(0.1 -0.1)">
       <defs>
        <path id="DejaVuSans-34" d="M 2419 4116 
L 825 1625 
L 2419 1625 
L 2419 4116 
z
M 2253 4666 
L 3047 4666 
L 3047 1625 
L 3713 1625 
L 3713 1100 
L 3047 1100 
L 3047 0 
L 2419 0 
L 2419 1100 
L 313 1100 
L 313 1709 
L 2253 4666 
z
" transform="scale(0.015625)"/>
       </defs>
       <use xlink:href="#DejaVuSans-34"/>
       <use xlink:href="#DejaVuSans-30" x="63.623047"/>
      </g>
     </g>
    </g>
    <g id="xtick_3">
     <g id="line2d_3">
      <g>
       <use xlink:href="#mf2d764e1a0" x="443.695176" y="534.04" style="stroke: #000000; stroke-width: 0.8"/>
      </g>
     </g>
     <g id="text_3">
      <!-- 60 -->
      <g transform="translate(437.332676 548.638438) scale(0.1 -0.1)">
       <defs>
        <path id="DejaVuSans-36" d="M 2113 2584 
Q 1688 2584 1439 2293 
Q 1191 2003 1191 1497 
Q 1191 994 1439 701 
Q 1688 409 2113 409 
Q 2538 409 2786 701 
Q 3034 994 3034 1497 
Q 3034 2003 2786 2293 
Q 2538 2584 2113 2584 
z
M 3366 4563 
L 3366 3988 
Q 3128 4100 2886 4159 
Q 2644 4219 2406 4219 
Q 1781 4219 1451 3797 
Q 1122 3375 1075 2522 
Q 1259 2794 1537 2939 
Q 1816 3084 2150 3084 
Q 2853 3084 3261 2657 
Q 3669 2231 3669 1497 
Q 3669 778 3244 343 
Q 2819 -91 2113 -91 
Q 1303 -91 875 529 
Q 447 1150 447 2328 
Q 447 3434 972 4092 
Q 1497 4750 2381 4750 
Q 2619 4750 2861 4703 
Q 3103 4656 3366 4563 
z
" transform="scale(0.015625)"/>
       </defs>
       <use xlink:href="#DejaVuSans-36"/>
       <use xlink:href="#DejaVuSans-30" x="63.623047"/>
      </g>
     </g>
    </g>
    <g id="xtick_4">
     <g id="line2d_4">
      <g>
       <use xlink:href="#mf2d764e1a0" x="578.046205" y="534.04" style="stroke: #000000; stroke-width: 0.8"/>
      </g>
     </g>
     <g id="text_4">
      <!-- 80 -->
      <g transform="translate(571.683705 548.638438) scale(0.1 -0.1)">
       <defs>
        <path id="DejaVuSans-38" d="M 2034 2216 
Q 1584 2216 1326 1975 
Q 1069 1734 1069 1313 
Q 1069 891 1326 650 
Q 1584 409 2034 409 
Q 2484 409 2743 651 
Q 3003 894 3003 1313 
Q 3003 1734 2745 1975 
Q 2488 2216 2034 2216 
z
M 1403 2484 
Q 997 2584 770 2862 
Q 544 3141 544 3541 
Q 544 4100 942 4425 
Q 1341 4750 2034 4750 
Q 2731 4750 3128 4425 
Q 3525 4100 3525 3541 
Q 3525 3141 3298 2862 
Q 3072 2584 2669 2484 
Q 3125 2378 3379 2068 
Q 3634 1759 3634 1313 
Q 3634 634 3220 271 
Q 2806 -91 2034 -91 
Q 1263 -91 848 271 
Q 434 634 434 1313 
Q 434 1759 690 2068 
Q 947 2378 1403 2484 
z
M 1172 3481 
Q 1172 3119 1398 2916 
Q 1625 2713 2034 2713 
Q 2441 2713 2670 2916 
Q 2900 3119 2900 3481 
Q 2900 3844 2670 4047 
Q 2441 4250 2034 4250 
Q 1625 4250 1398 4047 
Q 1172 3844 1172 3481 
z
" transform="scale(0.015625)"/>
       </defs>
       <use xlink:href="#DejaVuSans-38"/>
       <use xlink:href="#DejaVuSans-30" x="63.623047"/>
      </g>
     </g>
    </g>
    <g id="text_5">
     <!-- Force Uncertainties -->
     <g transform="translate(328.496406 562.316562) scale(0.1 -0.1)">
      <defs>
       <path id="DejaVuSans-46" d="M 628 4666 
L 3309 4666 
L 3309 4134 
L 1259 4134 
L 1259 2759 
L 3109 2759 
L 3109 2228 
L 1259 2228 
L 1259 0 
L 628 0 
L 628 4666 
z
" transform="scale(0.015625)"/>
       <path id="DejaVuSans-6f" d="M 1959 3097 
Q 1497 3097 1228 2736 
Q 959 2375 959 1747 
Q 959 1119 1226 758 
Q 1494 397 1959 397 
Q 2419 397 2687 759 
Q 2956 1122 2956 1747 
Q 2956 2369 2687 2733 
Q 2419 3097 1959 3097 
z
M 1959 3584 
Q 2709 3584 3137 3096 
Q 3566 2609 3566 1747 
Q 3566 888 3137 398 
Q 2709 -91 1959 -91 
Q 1206 -91 779 398 
Q 353 888 353 1747 
Q 353 2609 779 3096 
Q 1206 3584 1959 3584 
z
" transform="scale(0.015625)"/>
       <path id="DejaVuSans-72" d="M 2631 2963 
Q 2534 3019 2420 3045 
Q 2306 3072 2169 3072 
Q 1681 3072 1420 2755 
Q 1159 2438 1159 1844 
L 1159 0 
L 581 0 
L 581 3500 
L 1159 3500 
L 1159 2956 
Q 1341 3275 1631 3429 
Q 1922 3584 2338 3584 
Q 2397 3584 2469 3576 
Q 2541 3569 2628 3553 
L 2631 2963 
z
" transform="scale(0.015625)"/>
       <path id="DejaVuSans-63" d="M 3122 3366 
L 3122 2828 
Q 2878 2963 2633 3030 
Q 2388 3097 2138 3097 
Q 1578 3097 1268 2742 
Q 959 2388 959 1747 
Q 959 1106 1268 751 
Q 1578 397 2138 397 
Q 2388 397 2633 464 
Q 2878 531 3122 666 
L 3122 134 
Q 2881 22 2623 -34 
Q 2366 -91 2075 -91 
Q 1284 -91 818 406 
Q 353 903 353 1747 
Q 353 2603 823 3093 
Q 1294 3584 2113 3584 
Q 2378 3584 2631 3529 
Q 2884 3475 3122 3366 
z
" transform="scale(0.015625)"/>
       <path id="DejaVuSans-65" d="M 3597 1894 
L 3597 1613 
L 953 1613 
Q 991 1019 1311 708 
Q 1631 397 2203 397 
Q 2534 397 2845 478 
Q 3156 559 3463 722 
L 3463 178 
Q 3153 47 2828 -22 
Q 2503 -91 2169 -91 
Q 1331 -91 842 396 
Q 353 884 353 1716 
Q 353 2575 817 3079 
Q 1281 3584 2069 3584 
Q 2775 3584 3186 3129 
Q 3597 2675 3597 1894 
z
M 3022 2063 
Q 3016 2534 2758 2815 
Q 2500 3097 2075 3097 
Q 1594 3097 1305 2825 
Q 1016 2553 972 2059 
L 3022 2063 
z
" transform="scale(0.015625)"/>
       <path id="DejaVuSans-20" transform="scale(0.015625)"/>
       <path id="DejaVuSans-55" d="M 556 4666 
L 1191 4666 
L 1191 1831 
Q 1191 1081 1462 751 
Q 1734 422 2344 422 
Q 2950 422 3222 751 
Q 3494 1081 3494 1831 
L 3494 4666 
L 4128 4666 
L 4128 1753 
Q 4128 841 3676 375 
Q 3225 -91 2344 -91 
Q 1459 -91 1007 375 
Q 556 841 556 1753 
L 556 4666 
z
" transform="scale(0.015625)"/>
       <path id="DejaVuSans-6e" d="M 3513 2113 
L 3513 0 
L 2938 0 
L 2938 2094 
Q 2938 2591 2744 2837 
Q 2550 3084 2163 3084 
Q 1697 3084 1428 2787 
Q 1159 2491 1159 1978 
L 1159 0 
L 581 0 
L 581 3500 
L 1159 3500 
L 1159 2956 
Q 1366 3272 1645 3428 
Q 1925 3584 2291 3584 
Q 2894 3584 3203 3211 
Q 3513 2838 3513 2113 
z
" transform="scale(0.015625)"/>
       <path id="DejaVuSans-74" d="M 1172 4494 
L 1172 3500 
L 2356 3500 
L 2356 3053 
L 1172 3053 
L 1172 1153 
Q 1172 725 1289 603 
Q 1406 481 1766 481 
L 2356 481 
L 2356 0 
L 1766 0 
Q 1100 0 847 248 
Q 594 497 594 1153 
L 594 3053 
L 172 3053 
L 172 3500 
L 594 3500 
L 594 4494 
L 1172 4494 
z
" transform="scale(0.015625)"/>
       <path id="DejaVuSans-61" d="M 2194 1759 
Q 1497 1759 1228 1600 
Q 959 1441 959 1056 
Q 959 750 1161 570 
Q 1363 391 1709 391 
Q 2188 391 2477 730 
Q 2766 1069 2766 1631 
L 2766 1759 
L 2194 1759 
z
M 3341 1997 
L 3341 0 
L 2766 0 
L 2766 531 
Q 2569 213 2275 61 
Q 1981 -91 1556 -91 
Q 1019 -91 701 211 
Q 384 513 384 1019 
Q 384 1609 779 1909 
Q 1175 2209 1959 2209 
L 2766 2209 
L 2766 2266 
Q 2766 2663 2505 2880 
Q 2244 3097 1772 3097 
Q 1472 3097 1187 3025 
Q 903 2953 641 2809 
L 641 3341 
Q 956 3463 1253 3523 
Q 1550 3584 1831 3584 
Q 2591 3584 2966 3190 
Q 3341 2797 3341 1997 
z
" transform="scale(0.015625)"/>
       <path id="DejaVuSans-69" d="M 603 3500 
L 1178 3500 
L 1178 0 
L 603 0 
L 603 3500 
z
M 603 4863 
L 1178 4863 
L 1178 4134 
L 603 4134 
L 603 4863 
z
" transform="scale(0.015625)"/>
       <path id="DejaVuSans-73" d="M 2834 3397 
L 2834 2853 
Q 2591 2978 2328 3040 
Q 2066 3103 1784 3103 
Q 1356 3103 1142 2972 
Q 928 2841 928 2578 
Q 928 2378 1081 2264 
Q 1234 2150 1697 2047 
L 1894 2003 
Q 2506 1872 2764 1633 
Q 3022 1394 3022 966 
Q 3022 478 2636 193 
Q 2250 -91 1575 -91 
Q 1294 -91 989 -36 
Q 684 19 347 128 
L 347 722 
Q 666 556 975 473 
Q 1284 391 1588 391 
Q 1994 391 2212 530 
Q 2431 669 2431 922 
Q 2431 1156 2273 1281 
Q 2116 1406 1581 1522 
L 1381 1569 
Q 847 1681 609 1914 
Q 372 2147 372 2553 
Q 372 3047 722 3315 
Q 1072 3584 1716 3584 
Q 2034 3584 2315 3537 
Q 2597 3491 2834 3397 
z
" transform="scale(0.015625)"/>
      </defs>
      <use xlink:href="#DejaVuSans-46"/>
      <use xlink:href="#DejaVuSans-6f" x="53.894531"/>
      <use xlink:href="#DejaVuSans-72" x="115.076172"/>
      <use xlink:href="#DejaVuSans-63" x="153.939453"/>
      <use xlink:href="#DejaVuSans-65" x="208.919922"/>
      <use xlink:href="#DejaVuSans-20" x="270.443359"/>
      <use xlink:href="#DejaVuSans-55" x="302.230469"/>
      <use xlink:href="#DejaVuSans-6e" x="375.423828"/>
      <use xlink:href="#DejaVuSans-63" x="438.802734"/>
      <use xlink:href="#DejaVuSans-65" x="493.783203"/>
      <use xlink:href="#DejaVuSans-72" x="555.306641"/>
      <use xlink:href="#DejaVuSans-74" x="596.419922"/>
      <use xlink:href="#DejaVuSans-61" x="635.628906"/>
      <use xlink:href="#DejaVuSans-69" x="696.908203"/>
      <use xlink:href="#DejaVuSans-6e" x="724.691406"/>
      <use xlink:href="#DejaVuSans-74" x="788.070312"/>
      <use xlink:href="#DejaVuSans-69" x="827.279297"/>
      <use xlink:href="#DejaVuSans-65" x="855.0625"/>
      <use xlink:href="#DejaVuSans-73" x="916.585938"/>
     </g>
    </g>
   </g>
   <g id="matplotlib.axis_2">
    <g id="ytick_1">
     <g id="line2d_5">
      <defs>
       <path id="mbeddd23555" d="M 0 0 
L -3.5 0 
" style="stroke: #000000; stroke-width: 0.8"/>
      </defs>
      <g>
       <use xlink:href="#mbeddd23555" x="44.66" y="431.419388" style="stroke: #000000; stroke-width: 0.8"/>
      </g>
     </g>
     <g id="text_6">
      <!-- 20 -->
      <g transform="translate(24.935 435.218607) scale(0.1 -0.1)">
       <use xlink:href="#DejaVuSans-32"/>
       <use xlink:href="#DejaVuSans-30" x="63.623047"/>
      </g>
     </g>
    </g>
    <g id="ytick_2">
     <g id="line2d_6">
      <g>
       <use xlink:href="#mbeddd23555" x="44.66" y="325.635188" style="stroke: #000000; stroke-width: 0.8"/>
      </g>
     </g>
     <g id="text_7">
      <!-- 40 -->
      <g transform="translate(24.935 329.434407) scale(0.1 -0.1)">
       <use xlink:href="#DejaVuSans-34"/>
       <use xlink:href="#DejaVuSans-30" x="63.623047"/>
      </g>
     </g>
    </g>
    <g id="ytick_3">
     <g id="line2d_7">
      <g>
       <use xlink:href="#mbeddd23555" x="44.66" y="219.850989" style="stroke: #000000; stroke-width: 0.8"/>
      </g>
     </g>
     <g id="text_8">
      <!-- 60 -->
      <g transform="translate(24.935 223.650207) scale(0.1 -0.1)">
       <use xlink:href="#DejaVuSans-36"/>
       <use xlink:href="#DejaVuSans-30" x="63.623047"/>
      </g>
     </g>
    </g>
    <g id="ytick_4">
     <g id="line2d_8">
      <g>
       <use xlink:href="#mbeddd23555" x="44.66" y="114.066789" style="stroke: #000000; stroke-width: 0.8"/>
      </g>
     </g>
     <g id="text_9">
      <!-- 80 -->
      <g transform="translate(24.935 117.866008) scale(0.1 -0.1)">
       <use xlink:href="#DejaVuSans-38"/>
       <use xlink:href="#DejaVuSans-30" x="63.623047"/>
      </g>
     </g>
    </g>
    <g id="text_10">
     <!-- Force Errors [kJ/(mol*A)] -->
     <g transform="translate(18.855312 333.0075) rotate(-90) scale(0.1 -0.1)">
      <defs>
       <path id="DejaVuSans-45" d="M 628 4666 
L 3578 4666 
L 3578 4134 
L 1259 4134 
L 1259 2753 
L 3481 2753 
L 3481 2222 
L 1259 2222 
L 1259 531 
L 3634 531 
L 3634 0 
L 628 0 
L 628 4666 
z
" transform="scale(0.015625)"/>
       <path id="DejaVuSans-5b" d="M 550 4863 
L 1875 4863 
L 1875 4416 
L 1125 4416 
L 1125 -397 
L 1875 -397 
L 1875 -844 
L 550 -844 
L 550 4863 
z
" transform="scale(0.015625)"/>
       <path id="DejaVuSans-6b" d="M 581 4863 
L 1159 4863 
L 1159 1991 
L 2875 3500 
L 3609 3500 
L 1753 1863 
L 3688 0 
L 2938 0 
L 1159 1709 
L 1159 0 
L 581 0 
L 581 4863 
z
" transform="scale(0.015625)"/>
       <path id="DejaVuSans-4a" d="M 628 4666 
L 1259 4666 
L 1259 325 
Q 1259 -519 939 -900 
Q 619 -1281 -91 -1281 
L -331 -1281 
L -331 -750 
L -134 -750 
Q 284 -750 456 -515 
Q 628 -281 628 325 
L 628 4666 
z
" transform="scale(0.015625)"/>
       <path id="DejaVuSans-2f" d="M 1625 4666 
L 2156 4666 
L 531 -594 
L 0 -594 
L 1625 4666 
z
" transform="scale(0.015625)"/>
       <path id="DejaVuSans-28" d="M 1984 4856 
Q 1566 4138 1362 3434 
Q 1159 2731 1159 2009 
Q 1159 1288 1364 580 
Q 1569 -128 1984 -844 
L 1484 -844 
Q 1016 -109 783 600 
Q 550 1309 550 2009 
Q 550 2706 781 3412 
Q 1013 4119 1484 4856 
L 1984 4856 
z
" transform="scale(0.015625)"/>
       <path id="DejaVuSans-6d" d="M 3328 2828 
Q 3544 3216 3844 3400 
Q 4144 3584 4550 3584 
Q 5097 3584 5394 3201 
Q 5691 2819 5691 2113 
L 5691 0 
L 5113 0 
L 5113 2094 
Q 5113 2597 4934 2840 
Q 4756 3084 4391 3084 
Q 3944 3084 3684 2787 
Q 3425 2491 3425 1978 
L 3425 0 
L 2847 0 
L 2847 2094 
Q 2847 2600 2669 2842 
Q 2491 3084 2119 3084 
Q 1678 3084 1418 2786 
Q 1159 2488 1159 1978 
L 1159 0 
L 581 0 
L 581 3500 
L 1159 3500 
L 1159 2956 
Q 1356 3278 1631 3431 
Q 1906 3584 2284 3584 
Q 2666 3584 2933 3390 
Q 3200 3197 3328 2828 
z
" transform="scale(0.015625)"/>
       <path id="DejaVuSans-6c" d="M 603 4863 
L 1178 4863 
L 1178 0 
L 603 0 
L 603 4863 
z
" transform="scale(0.015625)"/>
       <path id="DejaVuSans-2a" d="M 3009 3897 
L 1888 3291 
L 3009 2681 
L 2828 2375 
L 1778 3009 
L 1778 1831 
L 1422 1831 
L 1422 3009 
L 372 2375 
L 191 2681 
L 1313 3291 
L 191 3897 
L 372 4206 
L 1422 3572 
L 1422 4750 
L 1778 4750 
L 1778 3572 
L 2828 4206 
L 3009 3897 
z
" transform="scale(0.015625)"/>
       <path id="DejaVuSans-41" d="M 2188 4044 
L 1331 1722 
L 3047 1722 
L 2188 4044 
z
M 1831 4666 
L 2547 4666 
L 4325 0 
L 3669 0 
L 3244 1197 
L 1141 1197 
L 716 0 
L 50 0 
L 1831 4666 
z
" transform="scale(0.015625)"/>
       <path id="DejaVuSans-29" d="M 513 4856 
L 1013 4856 
Q 1481 4119 1714 3412 
Q 1947 2706 1947 2009 
Q 1947 1309 1714 600 
Q 1481 -109 1013 -844 
L 513 -844 
Q 928 -128 1133 580 
Q 1338 1288 1338 2009 
Q 1338 2731 1133 3434 
Q 928 4138 513 4856 
z
" transform="scale(0.015625)"/>
       <path id="DejaVuSans-5d" d="M 1947 4863 
L 1947 -844 
L 622 -844 
L 622 -397 
L 1369 -397 
L 1369 4416 
L 622 4416 
L 622 4863 
L 1947 4863 
z
" transform="scale(0.015625)"/>
      </defs>
      <use xlink:href="#DejaVuSans-46"/>
      <use xlink:href="#DejaVuSans-6f" x="53.894531"/>
      <use xlink:href="#DejaVuSans-72" x="115.076172"/>
      <use xlink:href="#DejaVuSans-63" x="153.939453"/>
      <use xlink:href="#DejaVuSans-65" x="208.919922"/>
      <use xlink:href="#DejaVuSans-20" x="270.443359"/>
      <use xlink:href="#DejaVuSans-45" x="302.230469"/>
      <use xlink:href="#DejaVuSans-72" x="365.414062"/>
      <use xlink:href="#DejaVuSans-72" x="404.777344"/>
      <use xlink:href="#DejaVuSans-6f" x="443.640625"/>
      <use xlink:href="#DejaVuSans-72" x="504.822266"/>
      <use xlink:href="#DejaVuSans-73" x="545.935547"/>
      <use xlink:href="#DejaVuSans-20" x="598.035156"/>
      <use xlink:href="#DejaVuSans-5b" x="629.822266"/>
      <use xlink:href="#DejaVuSans-6b" x="668.835938"/>
      <use xlink:href="#DejaVuSans-4a" x="726.746094"/>
      <use xlink:href="#DejaVuSans-2f" x="756.238281"/>
      <use xlink:href="#DejaVuSans-28" x="789.929688"/>
      <use xlink:href="#DejaVuSans-6d" x="828.943359"/>
      <use xlink:href="#DejaVuSans-6f" x="926.355469"/>
      <use xlink:href="#DejaVuSans-6c" x="987.537109"/>
      <use xlink:href="#DejaVuSans-2a" x="1015.320312"/>
      <use xlink:href="#DejaVuSans-41" x="1065.320312"/>
      <use xlink:href="#DejaVuSans-29" x="1133.728516"/>
      <use xlink:href="#DejaVuSans-5d" x="1172.742188"/>
     </g>
    </g>
   </g>
   <g id="line2d_9">
    <path d="M 44.66 534.04 
L 709.2 10.8 
" clip-path="url(#pfcebbf5d7a)" style="fill: none; stroke-dasharray: 5.55,2.4; stroke-dashoffset: 0; stroke: #ff0000; stroke-width: 1.5"/>
   </g>
   <g id="patch_3">
    <path d="M 44.66 534.04 
L 44.66 10.8 
" style="fill: none; stroke: #000000; stroke-width: 0.8; stroke-linejoin: miter; stroke-linecap: square"/>
   </g>
   <g id="patch_4">
    <path d="M 709.2 534.04 
L 709.2 10.8 
" style="fill: none; stroke: #000000; stroke-width: 0.8; stroke-linejoin: miter; stroke-linecap: square"/>
   </g>
   <g id="patch_5">
    <path d="M 44.66 534.04 
L 709.2 534.04 
" style="fill: none; stroke: #000000; stroke-width: 0.8; stroke-linejoin: miter; stroke-linecap: square"/>
   </g>
   <g id="patch_6">
    <path d="M 44.66 10.8 
L 709.2 10.8 
" style="fill: none; stroke: #000000; stroke-width: 0.8; stroke-linejoin: miter; stroke-linecap: square"/>
   </g>
   <g id="text_11">
    <!-- Correlation in: 0.395880535248227 -->
    <g transform="translate(111.114 51.926187) scale(0.1 -0.1)">
     <defs>
      <path id="DejaVuSans-43" d="M 4122 4306 
L 4122 3641 
Q 3803 3938 3442 4084 
Q 3081 4231 2675 4231 
Q 1875 4231 1450 3742 
Q 1025 3253 1025 2328 
Q 1025 1406 1450 917 
Q 1875 428 2675 428 
Q 3081 428 3442 575 
Q 3803 722 4122 1019 
L 4122 359 
Q 3791 134 3420 21 
Q 3050 -91 2638 -91 
Q 1578 -91 968 557 
Q 359 1206 359 2328 
Q 359 3453 968 4101 
Q 1578 4750 2638 4750 
Q 3056 4750 3426 4639 
Q 3797 4528 4122 4306 
z
" transform="scale(0.015625)"/>
      <path id="DejaVuSans-3a" d="M 750 794 
L 1409 794 
L 1409 0 
L 750 0 
L 750 794 
z
M 750 3309 
L 1409 3309 
L 1409 2516 
L 750 2516 
L 750 3309 
z
" transform="scale(0.015625)"/>
      <path id="DejaVuSans-2e" d="M 684 794 
L 1344 794 
L 1344 0 
L 684 0 
L 684 794 
z
" transform="scale(0.015625)"/>
      <path id="DejaVuSans-33" d="M 2597 2516 
Q 3050 2419 3304 2112 
Q 3559 1806 3559 1356 
Q 3559 666 3084 287 
Q 2609 -91 1734 -91 
Q 1441 -91 1130 -33 
Q 819 25 488 141 
L 488 750 
Q 750 597 1062 519 
Q 1375 441 1716 441 
Q 2309 441 2620 675 
Q 2931 909 2931 1356 
Q 2931 1769 2642 2001 
Q 2353 2234 1838 2234 
L 1294 2234 
L 1294 2753 
L 1863 2753 
Q 2328 2753 2575 2939 
Q 2822 3125 2822 3475 
Q 2822 3834 2567 4026 
Q 2313 4219 1838 4219 
Q 1578 4219 1281 4162 
Q 984 4106 628 3988 
L 628 4550 
Q 988 4650 1302 4700 
Q 1616 4750 1894 4750 
Q 2613 4750 3031 4423 
Q 3450 4097 3450 3541 
Q 3450 3153 3228 2886 
Q 3006 2619 2597 2516 
z
" transform="scale(0.015625)"/>
      <path id="DejaVuSans-39" d="M 703 97 
L 703 672 
Q 941 559 1184 500 
Q 1428 441 1663 441 
Q 2288 441 2617 861 
Q 2947 1281 2994 2138 
Q 2813 1869 2534 1725 
Q 2256 1581 1919 1581 
Q 1219 1581 811 2004 
Q 403 2428 403 3163 
Q 403 3881 828 4315 
Q 1253 4750 1959 4750 
Q 2769 4750 3195 4129 
Q 3622 3509 3622 2328 
Q 3622 1225 3098 567 
Q 2575 -91 1691 -91 
Q 1453 -91 1209 -44 
Q 966 3 703 97 
z
M 1959 2075 
Q 2384 2075 2632 2365 
Q 2881 2656 2881 3163 
Q 2881 3666 2632 3958 
Q 2384 4250 1959 4250 
Q 1534 4250 1286 3958 
Q 1038 3666 1038 3163 
Q 1038 2656 1286 2365 
Q 1534 2075 1959 2075 
z
" transform="scale(0.015625)"/>
      <path id="DejaVuSans-35" d="M 691 4666 
L 3169 4666 
L 3169 4134 
L 1269 4134 
L 1269 2991 
Q 1406 3038 1543 3061 
Q 1681 3084 1819 3084 
Q 2600 3084 3056 2656 
Q 3513 2228 3513 1497 
Q 3513 744 3044 326 
Q 2575 -91 1722 -91 
Q 1428 -91 1123 -41 
Q 819 9 494 109 
L 494 744 
Q 775 591 1075 516 
Q 1375 441 1709 441 
Q 2250 441 2565 725 
Q 2881 1009 2881 1497 
Q 2881 1984 2565 2268 
Q 2250 2553 1709 2553 
Q 1456 2553 1204 2497 
Q 953 2441 691 2322 
L 691 4666 
z
" transform="scale(0.015625)"/>
      <path id="DejaVuSans-37" d="M 525 4666 
L 3525 4666 
L 3525 4397 
L 1831 0 
L 1172 0 
L 2766 4134 
L 525 4134 
L 525 4666 
z
" transform="scale(0.015625)"/>
     </defs>
     <use xlink:href="#DejaVuSans-43"/>
     <use xlink:href="#DejaVuSans-6f" x="69.824219"/>
     <use xlink:href="#DejaVuSans-72" x="131.005859"/>
     <use xlink:href="#DejaVuSans-72" x="170.369141"/>
     <use xlink:href="#DejaVuSans-65" x="209.232422"/>
     <use xlink:href="#DejaVuSans-6c" x="270.755859"/>
     <use xlink:href="#DejaVuSans-61" x="298.539062"/>
     <use xlink:href="#DejaVuSans-74" x="359.818359"/>
     <use xlink:href="#DejaVuSans-69" x="399.027344"/>
     <use xlink:href="#DejaVuSans-6f" x="426.810547"/>
     <use xlink:href="#DejaVuSans-6e" x="487.992188"/>
     <use xlink:href="#DejaVuSans-20" x="551.371094"/>
     <use xlink:href="#DejaVuSans-69" x="583.158203"/>
     <use xlink:href="#DejaVuSans-6e" x="610.941406"/>
     <use xlink:href="#DejaVuSans-3a" x="674.320312"/>
     <use xlink:href="#DejaVuSans-20" x="708.011719"/>
     <use xlink:href="#DejaVuSans-30" x="739.798828"/>
     <use xlink:href="#DejaVuSans-2e" x="803.421875"/>
     <use xlink:href="#DejaVuSans-33" x="835.208984"/>
     <use xlink:href="#DejaVuSans-39" x="898.832031"/>
     <use xlink:href="#DejaVuSans-35" x="962.455078"/>
     <use xlink:href="#DejaVuSans-38" x="1026.078125"/>
     <use xlink:href="#DejaVuSans-38" x="1089.701172"/>
     <use xlink:href="#DejaVuSans-30" x="1153.324219"/>
     <use xlink:href="#DejaVuSans-35" x="1216.947266"/>
     <use xlink:href="#DejaVuSans-33" x="1280.570312"/>
     <use xlink:href="#DejaVuSans-35" x="1344.193359"/>
     <use xlink:href="#DejaVuSans-32" x="1407.816406"/>
     <use xlink:href="#DejaVuSans-34" x="1471.439453"/>
     <use xlink:href="#DejaVuSans-38" x="1535.0625"/>
     <use xlink:href="#DejaVuSans-32" x="1598.685547"/>
     <use xlink:href="#DejaVuSans-32" x="1662.308594"/>
     <use xlink:href="#DejaVuSans-37" x="1725.931641"/>
    </g>
    <!-- Correlation Out: 0.6597533239196146 -->
    <g transform="translate(111.114 63.124) scale(0.1 -0.1)">
     <defs>
      <path id="DejaVuSans-4f" d="M 2522 4238 
Q 1834 4238 1429 3725 
Q 1025 3213 1025 2328 
Q 1025 1447 1429 934 
Q 1834 422 2522 422 
Q 3209 422 3611 934 
Q 4013 1447 4013 2328 
Q 4013 3213 3611 3725 
Q 3209 4238 2522 4238 
z
M 2522 4750 
Q 3503 4750 4090 4092 
Q 4678 3434 4678 2328 
Q 4678 1225 4090 567 
Q 3503 -91 2522 -91 
Q 1538 -91 948 565 
Q 359 1222 359 2328 
Q 359 3434 948 4092 
Q 1538 4750 2522 4750 
z
" transform="scale(0.015625)"/>
      <path id="DejaVuSans-75" d="M 544 1381 
L 544 3500 
L 1119 3500 
L 1119 1403 
Q 1119 906 1312 657 
Q 1506 409 1894 409 
Q 2359 409 2629 706 
Q 2900 1003 2900 1516 
L 2900 3500 
L 3475 3500 
L 3475 0 
L 2900 0 
L 2900 538 
Q 2691 219 2414 64 
Q 2138 -91 1772 -91 
Q 1169 -91 856 284 
Q 544 659 544 1381 
z
M 1991 3584 
L 1991 3584 
z
" transform="scale(0.015625)"/>
      <path id="DejaVuSans-31" d="M 794 531 
L 1825 531 
L 1825 4091 
L 703 3866 
L 703 4441 
L 1819 4666 
L 2450 4666 
L 2450 531 
L 3481 531 
L 3481 0 
L 794 0 
L 794 531 
z
" transform="scale(0.015625)"/>
     </defs>
     <use xlink:href="#DejaVuSans-43"/>
     <use xlink:href="#DejaVuSans-6f" x="69.824219"/>
     <use xlink:href="#DejaVuSans-72" x="131.005859"/>
     <use xlink:href="#DejaVuSans-72" x="170.369141"/>
     <use xlink:href="#DejaVuSans-65" x="209.232422"/>
     <use xlink:href="#DejaVuSans-6c" x="270.755859"/>
     <use xlink:href="#DejaVuSans-61" x="298.539062"/>
     <use xlink:href="#DejaVuSans-74" x="359.818359"/>
     <use xlink:href="#DejaVuSans-69" x="399.027344"/>
     <use xlink:href="#DejaVuSans-6f" x="426.810547"/>
     <use xlink:href="#DejaVuSans-6e" x="487.992188"/>
     <use xlink:href="#DejaVuSans-20" x="551.371094"/>
     <use xlink:href="#DejaVuSans-4f" x="583.158203"/>
     <use xlink:href="#DejaVuSans-75" x="661.869141"/>
     <use xlink:href="#DejaVuSans-74" x="725.248047"/>
     <use xlink:href="#DejaVuSans-3a" x="764.457031"/>
     <use xlink:href="#DejaVuSans-20" x="798.148438"/>
     <use xlink:href="#DejaVuSans-30" x="829.935547"/>
     <use xlink:href="#DejaVuSans-2e" x="893.558594"/>
     <use xlink:href="#DejaVuSans-36" x="925.345703"/>
     <use xlink:href="#DejaVuSans-35" x="988.96875"/>
     <use xlink:href="#DejaVuSans-39" x="1052.591797"/>
     <use xlink:href="#DejaVuSans-37" x="1116.214844"/>
     <use xlink:href="#DejaVuSans-35" x="1179.837891"/>
     <use xlink:href="#DejaVuSans-33" x="1243.460938"/>
     <use xlink:href="#DejaVuSans-33" x="1307.083984"/>
     <use xlink:href="#DejaVuSans-32" x="1370.707031"/>
     <use xlink:href="#DejaVuSans-33" x="1434.330078"/>
     <use xlink:href="#DejaVuSans-39" x="1497.953125"/>
     <use xlink:href="#DejaVuSans-31" x="1561.576172"/>
     <use xlink:href="#DejaVuSans-39" x="1625.199219"/>
     <use xlink:href="#DejaVuSans-36" x="1688.822266"/>
     <use xlink:href="#DejaVuSans-31" x="1752.445312"/>
     <use xlink:href="#DejaVuSans-34" x="1816.068359"/>
     <use xlink:href="#DejaVuSans-36" x="1879.691406"/>
    </g>
   </g>
   <g id="legend_1">
    <g id="patch_7">
     <path d="M 577.7375 48.15625 
L 702.2 48.15625 
Q 704.2 48.15625 704.2 46.15625 
L 704.2 17.8 
Q 704.2 15.8 702.2 15.8 
L 577.7375 15.8 
Q 575.7375 15.8 575.7375 17.8 
L 575.7375 46.15625 
Q 575.7375 48.15625 577.7375 48.15625 
z
" style="fill: #ffffff; opacity: 0.8; stroke: #cccccc; stroke-linejoin: miter"/>
    </g>
    <g id="line2d_10">
     <defs>
      <path id="m9665d80e81" d="M 0 2.5 
C 0.663008 2.5 1.29895 2.236584 1.767767 1.767767 
C 2.236584 1.29895 2.5 0.663008 2.5 0 
C 2.5 -0.663008 2.236584 -1.29895 1.767767 -1.767767 
C 1.29895 -2.236584 0.663008 -2.5 0 -2.5 
C -0.663008 -2.5 -1.29895 -2.236584 -1.767767 -1.767767 
C -2.236584 -1.29895 -2.5 -0.663008 -2.5 0 
C -2.5 0.663008 -2.236584 1.29895 -1.767767 1.767767 
C -1.29895 2.236584 -0.663008 2.5 0 2.5 
z
" style="stroke: #ffffff"/>
     </defs>
     <g>
      <use xlink:href="#m9665d80e81" x="589.7375" y="23.898438" style="fill: #0000ff; stroke: #ffffff"/>
     </g>
    </g>
    <g id="text_12">
     <!-- In Distribution -->
     <g transform="translate(607.7375 27.398438) scale(0.1 -0.1)">
      <defs>
       <path id="DejaVuSans-49" d="M 628 4666 
L 1259 4666 
L 1259 0 
L 628 0 
L 628 4666 
z
" transform="scale(0.015625)"/>
       <path id="DejaVuSans-44" d="M 1259 4147 
L 1259 519 
L 2022 519 
Q 2988 519 3436 956 
Q 3884 1394 3884 2338 
Q 3884 3275 3436 3711 
Q 2988 4147 2022 4147 
L 1259 4147 
z
M 628 4666 
L 1925 4666 
Q 3281 4666 3915 4102 
Q 4550 3538 4550 2338 
Q 4550 1131 3912 565 
Q 3275 0 1925 0 
L 628 0 
L 628 4666 
z
" transform="scale(0.015625)"/>
       <path id="DejaVuSans-62" d="M 3116 1747 
Q 3116 2381 2855 2742 
Q 2594 3103 2138 3103 
Q 1681 3103 1420 2742 
Q 1159 2381 1159 1747 
Q 1159 1113 1420 752 
Q 1681 391 2138 391 
Q 2594 391 2855 752 
Q 3116 1113 3116 1747 
z
M 1159 2969 
Q 1341 3281 1617 3432 
Q 1894 3584 2278 3584 
Q 2916 3584 3314 3078 
Q 3713 2572 3713 1747 
Q 3713 922 3314 415 
Q 2916 -91 2278 -91 
Q 1894 -91 1617 61 
Q 1341 213 1159 525 
L 1159 0 
L 581 0 
L 581 4863 
L 1159 4863 
L 1159 2969 
z
" transform="scale(0.015625)"/>
      </defs>
      <use xlink:href="#DejaVuSans-49"/>
      <use xlink:href="#DejaVuSans-6e" x="29.492188"/>
      <use xlink:href="#DejaVuSans-20" x="92.871094"/>
      <use xlink:href="#DejaVuSans-44" x="124.658203"/>
      <use xlink:href="#DejaVuSans-69" x="201.660156"/>
      <use xlink:href="#DejaVuSans-73" x="229.443359"/>
      <use xlink:href="#DejaVuSans-74" x="281.542969"/>
      <use xlink:href="#DejaVuSans-72" x="320.751953"/>
      <use xlink:href="#DejaVuSans-69" x="361.865234"/>
      <use xlink:href="#DejaVuSans-62" x="389.648438"/>
      <use xlink:href="#DejaVuSans-75" x="453.125"/>
      <use xlink:href="#DejaVuSans-74" x="516.503906"/>
      <use xlink:href="#DejaVuSans-69" x="555.712891"/>
      <use xlink:href="#DejaVuSans-6f" x="583.496094"/>
      <use xlink:href="#DejaVuSans-6e" x="644.677734"/>
     </g>
    </g>
    <g id="line2d_11">
     <defs>
      <path id="m95e2198087" d="M 0 2.5 
C 0.663008 2.5 1.29895 2.236584 1.767767 1.767767 
C 2.236584 1.29895 2.5 0.663008 2.5 0 
C 2.5 -0.663008 2.236584 -1.29895 1.767767 -1.767767 
C 1.29895 -2.236584 0.663008 -2.5 0 -2.5 
C -0.663008 -2.5 -1.29895 -2.236584 -1.767767 -1.767767 
C -2.236584 -1.29895 -2.5 -0.663008 -2.5 0 
C -2.5 0.663008 -2.236584 1.29895 -1.767767 1.767767 
C -1.29895 2.236584 -0.663008 2.5 0 2.5 
z
" style="stroke: #ffffff"/>
     </defs>
     <g>
      <use xlink:href="#m95e2198087" x="589.7375" y="38.576563" style="fill: #008000; stroke: #ffffff"/>
     </g>
    </g>
    <g id="text_13">
     <!-- Out of Distribution -->
     <g transform="translate(607.7375 42.076563) scale(0.1 -0.1)">
      <defs>
       <path id="DejaVuSans-66" d="M 2375 4863 
L 2375 4384 
L 1825 4384 
Q 1516 4384 1395 4259 
Q 1275 4134 1275 3809 
L 1275 3500 
L 2222 3500 
L 2222 3053 
L 1275 3053 
L 1275 0 
L 697 0 
L 697 3053 
L 147 3053 
L 147 3500 
L 697 3500 
L 697 3744 
Q 697 4328 969 4595 
Q 1241 4863 1831 4863 
L 2375 4863 
z
" transform="scale(0.015625)"/>
      </defs>
      <use xlink:href="#DejaVuSans-4f"/>
      <use xlink:href="#DejaVuSans-75" x="78.710938"/>
      <use xlink:href="#DejaVuSans-74" x="142.089844"/>
      <use xlink:href="#DejaVuSans-20" x="181.298828"/>
      <use xlink:href="#DejaVuSans-6f" x="213.085938"/>
      <use xlink:href="#DejaVuSans-66" x="274.267578"/>
      <use xlink:href="#DejaVuSans-20" x="309.472656"/>
      <use xlink:href="#DejaVuSans-44" x="341.259766"/>
      <use xlink:href="#DejaVuSans-69" x="418.261719"/>
      <use xlink:href="#DejaVuSans-73" x="446.044922"/>
      <use xlink:href="#DejaVuSans-74" x="498.144531"/>
      <use xlink:href="#DejaVuSans-72" x="537.353516"/>
      <use xlink:href="#DejaVuSans-69" x="578.466797"/>
      <use xlink:href="#DejaVuSans-62" x="606.25"/>
      <use xlink:href="#DejaVuSans-75" x="669.726562"/>
      <use xlink:href="#DejaVuSans-74" x="733.105469"/>
      <use xlink:href="#DejaVuSans-69" x="772.314453"/>
      <use xlink:href="#DejaVuSans-6f" x="800.097656"/>
      <use xlink:href="#DejaVuSans-6e" x="861.279297"/>
     </g>
    </g>
   </g>
  </g>
 </g>
 <defs>
  <clipPath id="pfcebbf5d7a">
   <rect x="44.66" y="10.8" width="664.54" height="523.24"/>
  </clipPath>
 </defs>
</svg>
