<?xml version="1.0" encoding="utf-8" standalone="no"?>
<!DOCTYPE svg PUBLIC "-//W3C//DTD SVG 1.1//EN"
  "http://www.w3.org/Graphics/SVG/1.1/DTD/svg11.dtd">
<svg xmlns:xlink="http://www.w3.org/1999/xlink" width="720pt" height="576pt" viewBox="0 0 720 576" xmlns="http://www.w3.org/2000/svg" version="1.1">
 <metadata>
  <rdf:RDF xmlns:dc="http://purl.org/dc/elements/1.1/" xmlns:cc="http://creativecommons.org/ns#" xmlns:rdf="http://www.w3.org/1999/02/22-rdf-syntax-ns#">
   <cc:Work>
    <dc:type rdf:resource="http://purl.org/dc/dcmitype/StillImage"/>
    <dc:date>2024-12-06T14:02:32.563220</dc:date>
    <dc:format>image/svg+xml</dc:format>
    <dc:creator>
     <cc:Agent>
      <dc:title>Matplotlib v3.8.4, https://matplotlib.org/</dc:title>
     </cc:Agent>
    </dc:creator>
   </cc:Work>
  </rdf:RDF>
 </metadata>
 <defs>
  <style type="text/css">*{stroke-linejoin: round; stroke-linecap: butt}</style>
 </defs>
 <g id="figure_1">
  <g id="patch_1">
   <path d="M 0 576 
L 720 576 
L 720 0 
L 0 0 
z
" style="fill: #ffffff"/>
  </g>
  <g id="axes_1">
   <g id="patch_2">
    <path d="M 51.05 534.04 
L 709.2 534.04 
L 709.2 10.8 
L 51.05 10.8 
z
" style="fill: #ffffff"/>
   </g>
   <g id="QuadContourSet_1">
    <path d="M 53.490533 534.598401 
L 53.565327 534.633102 
L 53.640121 534.652526 
L 53.714916 534.662664 
L 53.78971 534.667056 
L 53.864504 534.665222 
L 53.939298 534.653771 
L 54.014093 534.63103 
L 54.088887 534.598273 
L 54.11782 534.584353 
L 54.163681 534.571454 
L 54.238476 534.548269 
L 54.31327 534.518144 
L 54.388064 534.471273 
L 54.411121 534.45326 
L 54.462858 534.423173 
L 54.537653 534.370829 
L 54.600542 534.322167 
L 54.612447 534.313872 
L 54.687241 534.261552 
L 54.752822 534.191074 
L 54.762036 534.180165 
L 54.834257 534.059981 
L 54.83683 534.054076 
L 54.888742 533.928888 
L 54.911624 533.834653 
L 54.922879 533.797795 
L 54.944999 533.666702 
L 54.95231 533.535609 
L 54.949195 533.404516 
L 54.93977 533.273423 
L 54.927879 533.14233 
L 54.914908 533.011237 
L 54.911624 532.981322 
L 54.904787 532.880144 
L 54.89557 532.749051 
L 54.886513 532.617958 
L 54.876899 532.486866 
L 54.863055 532.355773 
L 54.837894 532.22468 
L 54.83683 532.220856 
L 54.81067 532.093587 
L 54.777845 531.962494 
L 54.762036 531.900549 
L 54.749682 531.831401 
L 54.722833 531.700308 
L 54.687241 531.574731 
L 54.685183 531.569215 
L 54.626608 531.438122 
L 54.612447 531.406827 
L 54.558943 531.307029 
L 54.537653 531.248077 
L 54.520938 531.175936 
L 54.500759 531.044843 
L 54.480052 530.91375 
L 54.462858 530.829883 
L 54.455832 530.782657 
L 54.429577 530.651564 
L 54.3902 530.520471 
L 54.388064 530.513879 
L 54.316476 530.389378 
L 54.31327 530.383824 
L 54.238476 530.326776 
L 54.18362 530.258285 
L 54.163681 530.184268 
L 54.154557 530.127193 
L 54.140173 529.9961 
L 54.116293 529.865007 
L 54.088887 529.764485 
L 54.065613 529.733914 
L 54.014093 529.65394 
L 53.939298 529.71992 
L 53.933596 529.733914 
L 53.864504 529.809511 
L 53.791497 529.865007 
L 53.78971 529.86591 
L 53.714916 529.912391 
L 53.663507 529.9961 
L 53.640121 530.038167 
L 53.609637 530.127193 
L 53.576123 530.258285 
L 53.565327 530.313413 
L 53.549424 530.389378 
L 53.527979 530.520471 
L 53.508088 530.651564 
L 53.490533 530.743021 
L 53.480078 530.782657 
L 53.435368 530.91375 
L 53.415739 530.96145 
L 53.380193 531.044843 
L 53.340944 531.137145 
L 53.325667 531.175936 
L 53.277314 531.307029 
L 53.26615 531.342362 
L 53.235426 531.438122 
L 53.204765 531.569215 
L 53.191356 531.649924 
L 53.181333 531.700308 
L 53.16375 531.831401 
L 53.153402 531.962494 
L 53.146829 532.093587 
L 53.140498 532.22468 
L 53.132316 532.355773 
L 53.122582 532.486866 
L 53.116561 532.561854 
L 53.109785 532.617958 
L 53.093903 532.749051 
L 53.079974 532.880144 
L 53.067796 533.011237 
L 53.057375 533.14233 
L 53.049134 533.273423 
L 53.043711 533.404516 
L 53.041767 533.529295 
L 53.041583 533.535609 
L 53.041767 533.543289 
L 53.043389 533.666702 
L 53.049405 533.797795 
L 53.061199 533.928888 
L 53.082483 534.059981 
L 53.116561 534.177803 
L 53.119864 534.191074 
L 53.169267 534.322167 
L 53.191356 534.36308 
L 53.26615 534.45326 
L 53.26615 534.45326 
L 53.340944 534.520368 
L 53.415739 534.562632 
L 53.46812 534.584353 
z
M 53.475967 534.322167 
L 53.415739 534.275095 
L 53.342082 534.191074 
L 53.340944 534.189502 
L 53.268983 534.059981 
L 53.26615 534.051563 
L 53.228532 533.928888 
L 53.207891 533.797795 
L 53.198155 533.666702 
L 53.194921 533.535609 
L 53.19609 533.404516 
L 53.200787 533.273423 
L 53.20877 533.14233 
L 53.220077 533.011237 
L 53.234939 532.880144 
L 53.253834 532.749051 
L 53.26615 532.676152 
L 53.27376 532.617958 
L 53.292698 532.486866 
L 53.31474 532.355773 
L 53.34033 532.22468 
L 53.340944 532.22139 
L 53.362392 532.093587 
L 53.388111 531.962494 
L 53.415739 531.843612 
L 53.418773 531.831401 
L 53.45395 531.700308 
L 53.490533 531.597768 
L 53.501647 531.569215 
L 53.560535 531.438122 
L 53.565327 531.428328 
L 53.618772 531.307029 
L 53.640121 531.260048 
L 53.680482 531.175936 
L 53.714916 531.107444 
L 53.771256 531.044843 
L 53.78971 531.024632 
L 53.864504 531.006354 
L 53.939298 531.032741 
L 53.959844 531.044843 
L 54.014093 531.075753 
L 54.088887 531.11182 
L 54.163681 531.160316 
L 54.173998 531.175936 
L 54.238476 531.302708 
L 54.239735 531.307029 
L 54.277179 531.438122 
L 54.31327 531.56823 
L 54.313568 531.569215 
L 54.359487 531.700308 
L 54.388064 531.780251 
L 54.411652 531.831401 
L 54.462858 531.95857 
L 54.464595 531.962494 
L 54.511139 532.093587 
L 54.537653 532.195504 
L 54.54469 532.22468 
L 54.571743 532.355773 
L 54.592261 532.486866 
L 54.605428 532.617958 
L 54.611385 532.749051 
L 54.612447 532.880144 
L 54.612447 532.880144 
L 54.612507 533.011237 
L 54.61577 533.14233 
L 54.622604 533.273423 
L 54.629346 533.404516 
L 54.631563 533.535609 
L 54.623916 533.666702 
L 54.612447 533.727112 
L 54.601704 533.797795 
L 54.557319 533.928888 
L 54.537653 533.963586 
L 54.481143 534.059981 
L 54.462858 534.083669 
L 54.388064 534.166736 
L 54.358374 534.191074 
L 54.31327 534.228085 
L 54.238476 534.27586 
L 54.163681 534.316173 
L 54.15255 534.322167 
L 54.088887 534.363155 
L 54.014093 534.400655 
L 53.939298 534.424468 
L 53.864504 534.43505 
L 53.78971 534.435525 
L 53.714916 534.42895 
L 53.640121 534.413458 
L 53.565327 534.383869 
L 53.490533 534.334241 
z
" clip-path="url(#p933604869c)" style="fill: #e4e4f3"/>
    <path d="M 53.490533 534.334241 
L 53.565327 534.383869 
L 53.640121 534.413458 
L 53.714916 534.42895 
L 53.78971 534.435525 
L 53.864504 534.43505 
L 53.939298 534.424468 
L 54.014093 534.400655 
L 54.088887 534.363155 
L 54.15255 534.322167 
L 54.163681 534.316173 
L 54.238476 534.27586 
L 54.31327 534.228085 
L 54.358374 534.191074 
L 54.388064 534.166736 
L 54.462858 534.083669 
L 54.481143 534.059981 
L 54.537653 533.963586 
L 54.557319 533.928888 
L 54.601704 533.797795 
L 54.612447 533.727112 
L 54.623916 533.666702 
L 54.631563 533.535609 
L 54.629346 533.404516 
L 54.622604 533.273423 
L 54.61577 533.14233 
L 54.612507 533.011237 
L 54.612447 532.880144 
L 54.612447 532.880144 
L 54.611385 532.749051 
L 54.605428 532.617958 
L 54.592261 532.486866 
L 54.571743 532.355773 
L 54.54469 532.22468 
L 54.537653 532.195504 
L 54.511139 532.093587 
L 54.464595 531.962494 
L 54.462858 531.95857 
L 54.411652 531.831401 
L 54.388064 531.780251 
L 54.359487 531.700308 
L 54.313568 531.569215 
L 54.31327 531.56823 
L 54.277179 531.438122 
L 54.239735 531.307029 
L 54.238476 531.302708 
L 54.173998 531.175936 
L 54.163681 531.160316 
L 54.088887 531.11182 
L 54.014093 531.075753 
L 53.959844 531.044843 
L 53.939298 531.032741 
L 53.864504 531.006354 
L 53.78971 531.024632 
L 53.771256 531.044843 
L 53.714916 531.107444 
L 53.680482 531.175936 
L 53.640121 531.260048 
L 53.618772 531.307029 
L 53.565327 531.428328 
L 53.560535 531.438122 
L 53.501647 531.569215 
L 53.490533 531.597768 
L 53.45395 531.700308 
L 53.418773 531.831401 
L 53.415739 531.843612 
L 53.388111 531.962494 
L 53.362392 532.093587 
L 53.340944 532.22139 
L 53.34033 532.22468 
L 53.31474 532.355773 
L 53.292698 532.486866 
L 53.27376 532.617958 
L 53.26615 532.676152 
L 53.253834 532.749051 
L 53.234939 532.880144 
L 53.220077 533.011237 
L 53.20877 533.14233 
L 53.200787 533.273423 
L 53.19609 533.404516 
L 53.194921 533.535609 
L 53.198155 533.666702 
L 53.207891 533.797795 
L 53.228532 533.928888 
L 53.26615 534.051563 
L 53.268983 534.059981 
L 53.340944 534.189502 
L 53.342082 534.191074 
L 53.415739 534.275095 
L 53.475967 534.322167 
z
M 53.503229 534.191074 
L 53.490533 534.1795 
L 53.415739 534.091705 
L 53.394379 534.059981 
L 53.340944 533.942612 
L 53.335537 533.928888 
L 53.302746 533.797795 
L 53.287291 533.666702 
L 53.281393 533.535609 
L 53.281354 533.404516 
L 53.285567 533.273423 
L 53.293567 533.14233 
L 53.305475 533.011237 
L 53.321647 532.880144 
L 53.340944 532.758179 
L 53.342186 532.749051 
L 53.362285 532.617958 
L 53.386375 532.486866 
L 53.415739 532.355773 
L 53.415739 532.355773 
L 53.448431 532.22468 
L 53.488125 532.093587 
L 53.490533 532.085802 
L 53.536327 531.962494 
L 53.565327 531.889216 
L 53.591444 531.831401 
L 53.640121 531.721342 
L 53.650226 531.700308 
L 53.709855 531.569215 
L 53.714916 531.558066 
L 53.78971 531.440937 
L 53.796133 531.438122 
L 53.864504 531.408404 
L 53.929564 531.438122 
L 53.939298 531.442325 
L 54.014093 531.491454 
L 54.088887 531.549912 
L 54.102806 531.569215 
L 54.163681 531.663523 
L 54.178436 531.700308 
L 54.229841 531.831401 
L 54.238476 531.854257 
L 54.274484 531.962494 
L 54.31327 532.093376 
L 54.313339 532.093587 
L 54.354302 532.22468 
L 54.388064 532.345663 
L 54.391188 532.355773 
L 54.426943 532.486866 
L 54.450054 532.617958 
L 54.46234 532.749051 
L 54.462858 532.759785 
L 54.469716 532.880144 
L 54.474558 533.011237 
L 54.48054 533.14233 
L 54.488821 533.273423 
L 54.496957 533.404516 
L 54.499616 533.535609 
L 54.490151 533.666702 
L 54.462858 533.788081 
L 54.460609 533.797795 
L 54.402878 533.928888 
L 54.388064 533.951347 
L 54.31327 534.043003 
L 54.297755 534.059981 
L 54.238476 534.113842 
L 54.163681 534.175008 
L 54.142856 534.191074 
L 54.088887 534.232843 
L 54.014093 534.277418 
L 53.939298 534.304575 
L 53.864504 534.31588 
L 53.78971 534.315562 
L 53.714916 534.306405 
L 53.640121 534.284569 
L 53.565327 534.243676 
z
" clip-path="url(#p933604869c)" style="fill: #ccccf5"/>
    <path d="M 53.565327 534.243676 
L 53.640121 534.284569 
L 53.714916 534.306405 
L 53.78971 534.315562 
L 53.864504 534.31588 
L 53.939298 534.304575 
L 54.014093 534.277418 
L 54.088887 534.232843 
L 54.142856 534.191074 
L 54.163681 534.175008 
L 54.238476 534.113842 
L 54.297755 534.059981 
L 54.31327 534.043003 
L 54.388064 533.951347 
L 54.402878 533.928888 
L 54.460609 533.797795 
L 54.462858 533.788081 
L 54.490151 533.666702 
L 54.499616 533.535609 
L 54.496957 533.404516 
L 54.488821 533.273423 
L 54.48054 533.14233 
L 54.474558 533.011237 
L 54.469716 532.880144 
L 54.462858 532.759785 
L 54.46234 532.749051 
L 54.450054 532.617958 
L 54.426943 532.486866 
L 54.391188 532.355773 
L 54.388064 532.345663 
L 54.354302 532.22468 
L 54.313339 532.093587 
L 54.31327 532.093376 
L 54.274484 531.962494 
L 54.238476 531.854257 
L 54.229841 531.831401 
L 54.178436 531.700308 
L 54.163681 531.663523 
L 54.102806 531.569215 
L 54.088887 531.549912 
L 54.014093 531.491454 
L 53.939298 531.442325 
L 53.929564 531.438122 
L 53.864504 531.408404 
L 53.796133 531.438122 
L 53.78971 531.440937 
L 53.714916 531.558066 
L 53.709855 531.569215 
L 53.650226 531.700308 
L 53.640121 531.721342 
L 53.591444 531.831401 
L 53.565327 531.889216 
L 53.536327 531.962494 
L 53.490533 532.085802 
L 53.488125 532.093587 
L 53.448431 532.22468 
L 53.415739 532.355773 
L 53.415739 532.355773 
L 53.386375 532.486866 
L 53.362285 532.617958 
L 53.342186 532.749051 
L 53.340944 532.758179 
L 53.321647 532.880144 
L 53.305475 533.011237 
L 53.293567 533.14233 
L 53.285567 533.273423 
L 53.281354 533.404516 
L 53.281393 533.535609 
L 53.287291 533.666702 
L 53.302746 533.797795 
L 53.335537 533.928888 
L 53.340944 533.942612 
L 53.394379 534.059981 
L 53.415739 534.091705 
L 53.490533 534.1795 
L 53.503229 534.191074 
z
M 53.676135 534.191074 
L 53.640121 534.175806 
L 53.565327 534.121426 
L 53.508033 534.059981 
L 53.490533 534.036072 
L 53.428257 533.928888 
L 53.415739 533.894104 
L 53.384756 533.797795 
L 53.36318 533.666702 
L 53.354013 533.535609 
L 53.352215 533.404516 
L 53.355607 533.273423 
L 53.363437 533.14233 
L 53.375607 533.011237 
L 53.392293 532.880144 
L 53.413806 532.749051 
L 53.415739 532.738811 
L 53.439666 532.617958 
L 53.470633 532.486866 
L 53.490533 532.41402 
L 53.510806 532.355773 
L 53.561013 532.22468 
L 53.565327 532.213846 
L 53.624574 532.093587 
L 53.640121 532.061589 
L 53.6962 531.962494 
L 53.714916 531.927064 
L 53.78714 531.831401 
L 53.78971 531.827645 
L 53.864504 531.789393 
L 53.939298 531.810454 
L 53.9683 531.831401 
L 54.014093 531.864531 
L 54.088887 531.952602 
L 54.094463 531.962494 
L 54.163681 532.093587 
L 54.163681 532.093587 
L 54.212377 532.22468 
L 54.238476 532.295841 
L 54.257529 532.355773 
L 54.297779 532.486866 
L 54.31327 532.544489 
L 54.332764 532.617958 
L 54.357271 532.749051 
L 54.371362 532.880144 
L 54.37928 533.011237 
L 54.384703 533.14233 
L 54.388064 533.235896 
L 54.389683 533.273423 
L 54.393472 533.404516 
L 54.390984 533.535609 
L 54.388064 533.560399 
L 54.3757 533.666702 
L 54.336184 533.797795 
L 54.31327 533.840236 
L 54.263983 533.928888 
L 54.238476 533.960131 
L 54.163681 534.050201 
L 54.155085 534.059981 
L 54.088887 534.123637 
L 54.014093 534.175433 
L 53.977922 534.191074 
L 53.939298 534.209487 
L 53.864504 534.223907 
L 53.78971 534.222489 
L 53.714916 534.207891 
z
" clip-path="url(#p933604869c)" style="fill: #b1b1f6"/>
    <path d="M 53.714916 534.207891 
L 53.78971 534.222489 
L 53.864504 534.223907 
L 53.939298 534.209487 
L 53.977922 534.191074 
L 54.014093 534.175433 
L 54.088887 534.123637 
L 54.155085 534.059981 
L 54.163681 534.050201 
L 54.238476 533.960131 
L 54.263983 533.928888 
L 54.31327 533.840236 
L 54.336184 533.797795 
L 54.3757 533.666702 
L 54.388064 533.560399 
L 54.390984 533.535609 
L 54.393472 533.404516 
L 54.389683 533.273423 
L 54.388064 533.235896 
L 54.384703 533.14233 
L 54.37928 533.011237 
L 54.371362 532.880144 
L 54.357271 532.749051 
L 54.332764 532.617958 
L 54.31327 532.544489 
L 54.297779 532.486866 
L 54.257529 532.355773 
L 54.238476 532.295841 
L 54.212377 532.22468 
L 54.163681 532.093587 
L 54.163681 532.093587 
L 54.094463 531.962494 
L 54.088887 531.952602 
L 54.014093 531.864531 
L 53.9683 531.831401 
L 53.939298 531.810454 
L 53.864504 531.789393 
L 53.78971 531.827645 
L 53.78714 531.831401 
L 53.714916 531.927064 
L 53.6962 531.962494 
L 53.640121 532.061589 
L 53.624574 532.093587 
L 53.565327 532.213846 
L 53.561013 532.22468 
L 53.510806 532.355773 
L 53.490533 532.41402 
L 53.470633 532.486866 
L 53.439666 532.617958 
L 53.415739 532.738811 
L 53.413806 532.749051 
L 53.392293 532.880144 
L 53.375607 533.011237 
L 53.363437 533.14233 
L 53.355607 533.273423 
L 53.352215 533.404516 
L 53.354013 533.535609 
L 53.36318 533.666702 
L 53.384756 533.797795 
L 53.415739 533.894104 
L 53.428257 533.928888 
L 53.490533 534.036072 
L 53.508033 534.059981 
L 53.565327 534.121426 
L 53.640121 534.175806 
L 53.676135 534.191074 
z
M 53.611864 534.059981 
L 53.565327 534.009823 
L 53.508989 533.928888 
L 53.490533 533.888998 
L 53.454551 533.797795 
L 53.426884 533.666702 
L 53.415739 533.550861 
L 53.414293 533.535609 
L 53.410847 533.404516 
L 53.413886 533.273423 
L 53.415739 533.244315 
L 53.422458 533.14233 
L 53.436442 533.011237 
L 53.455698 532.880144 
L 53.480361 532.749051 
L 53.490533 532.703473 
L 53.51534 532.617958 
L 53.559201 532.486866 
L 53.565327 532.470082 
L 53.620382 532.355773 
L 53.640121 532.316021 
L 53.695212 532.22468 
L 53.714916 532.191322 
L 53.78971 532.105893 
L 53.825946 532.093587 
L 53.864504 532.079437 
L 53.903231 532.093587 
L 53.939298 532.106723 
L 54.014093 532.172638 
L 54.051477 532.22468 
L 54.088887 532.277957 
L 54.128794 532.355773 
L 54.163681 532.420199 
L 54.190193 532.486866 
L 54.238476 532.617958 
L 54.238476 532.617958 
L 54.271392 532.749051 
L 54.292441 532.880144 
L 54.3044 533.011237 
L 54.310763 533.14233 
L 54.31327 533.25505 
L 54.313731 533.273423 
L 54.31327 533.342265 
L 54.312901 533.404516 
L 54.305495 533.535609 
L 54.285088 533.666702 
L 54.239638 533.797795 
L 54.238476 533.799874 
L 54.169761 533.928888 
L 54.163681 533.93675 
L 54.088887 534.028878 
L 54.05519 534.059981 
L 54.014093 534.093551 
L 53.939298 534.130968 
L 53.864504 534.144963 
L 53.78971 534.142757 
L 53.714916 534.125441 
L 53.640121 534.08437 
z
" clip-path="url(#p933604869c)" style="fill: #9797f7"/>
    <path d="M 53.640121 534.08437 
L 53.714916 534.125441 
L 53.78971 534.142757 
L 53.864504 534.144963 
L 53.939298 534.130968 
L 54.014093 534.093551 
L 54.05519 534.059981 
L 54.088887 534.028878 
L 54.163681 533.93675 
L 54.169761 533.928888 
L 54.238476 533.799874 
L 54.239638 533.797795 
L 54.285088 533.666702 
L 54.305495 533.535609 
L 54.312901 533.404516 
L 54.31327 533.342265 
L 54.313731 533.273423 
L 54.31327 533.25505 
L 54.310763 533.14233 
L 54.3044 533.011237 
L 54.292441 532.880144 
L 54.271392 532.749051 
L 54.238476 532.617958 
L 54.238476 532.617958 
L 54.190193 532.486866 
L 54.163681 532.420199 
L 54.128794 532.355773 
L 54.088887 532.277957 
L 54.051477 532.22468 
L 54.014093 532.172638 
L 53.939298 532.106723 
L 53.903231 532.093587 
L 53.864504 532.079437 
L 53.825946 532.093587 
L 53.78971 532.105893 
L 53.714916 532.191322 
L 53.695212 532.22468 
L 53.640121 532.316021 
L 53.620382 532.355773 
L 53.565327 532.470082 
L 53.559201 532.486866 
L 53.51534 532.617958 
L 53.490533 532.703473 
L 53.480361 532.749051 
L 53.455698 532.880144 
L 53.436442 533.011237 
L 53.422458 533.14233 
L 53.415739 533.244315 
L 53.413886 533.273423 
L 53.410847 533.404516 
L 53.414293 533.535609 
L 53.415739 533.550861 
L 53.426884 533.666702 
L 53.454551 533.797795 
L 53.490533 533.888998 
L 53.508989 533.928888 
L 53.565327 534.009823 
L 53.611864 534.059981 
z
M 53.776351 534.059981 
L 53.714916 534.040468 
L 53.640121 533.984622 
L 53.593135 533.928888 
L 53.565327 533.879501 
L 53.526309 533.797795 
L 53.491342 533.666702 
L 53.490533 533.660327 
L 53.476058 533.535609 
L 53.472363 533.404516 
L 53.476241 533.273423 
L 53.485975 533.14233 
L 53.490533 533.10261 
L 53.504017 533.011237 
L 53.530757 532.880144 
L 53.56481 532.749051 
L 53.565327 532.747344 
L 53.620119 532.617958 
L 53.640121 532.574646 
L 53.692948 532.486866 
L 53.714916 532.450724 
L 53.78971 532.373096 
L 53.864504 532.355773 
L 53.939298 532.389048 
L 54.014093 532.462841 
L 54.031298 532.486866 
L 54.088887 532.561689 
L 54.120316 532.617958 
L 54.163681 532.703496 
L 54.179054 532.749051 
L 54.211324 532.880144 
L 54.230275 533.011237 
L 54.238476 533.119263 
L 54.240066 533.14233 
L 54.244017 533.273423 
L 54.242314 533.404516 
L 54.238476 533.451633 
L 54.232444 533.535609 
L 54.210424 533.666702 
L 54.165754 533.797795 
L 54.163681 533.80163 
L 54.090936 533.928888 
L 54.088887 533.931451 
L 54.014093 534.00767 
L 53.939298 534.051285 
L 53.899072 534.059981 
L 53.864504 534.067147 
L 53.78971 534.063811 
z
" clip-path="url(#p933604869c)" style="fill: #7c7cf9"/>
    <path d="M 53.78971 534.063811 
L 53.864504 534.067147 
L 53.899072 534.059981 
L 53.939298 534.051285 
L 54.014093 534.00767 
L 54.088887 533.931451 
L 54.090936 533.928888 
L 54.163681 533.80163 
L 54.165754 533.797795 
L 54.210424 533.666702 
L 54.232444 533.535609 
L 54.238476 533.451633 
L 54.242314 533.404516 
L 54.244017 533.273423 
L 54.240066 533.14233 
L 54.238476 533.119263 
L 54.230275 533.011237 
L 54.211324 532.880144 
L 54.179054 532.749051 
L 54.163681 532.703496 
L 54.120316 532.617958 
L 54.088887 532.561689 
L 54.031298 532.486866 
L 54.014093 532.462841 
L 53.939298 532.389048 
L 53.864504 532.355773 
L 53.78971 532.373096 
L 53.714916 532.450724 
L 53.692948 532.486866 
L 53.640121 532.574646 
L 53.620119 532.617958 
L 53.565327 532.747344 
L 53.56481 532.749051 
L 53.530757 532.880144 
L 53.504017 533.011237 
L 53.490533 533.10261 
L 53.485975 533.14233 
L 53.476241 533.273423 
L 53.472363 533.404516 
L 53.476058 533.535609 
L 53.490533 533.660327 
L 53.491342 533.666702 
L 53.526309 533.797795 
L 53.565327 533.879501 
L 53.593135 533.928888 
L 53.640121 533.984622 
L 53.714916 534.040468 
L 53.776351 534.059981 
z
M 53.67809 533.928888 
L 53.640121 533.88119 
L 53.593078 533.797795 
L 53.565327 533.708326 
L 53.553426 533.666702 
L 53.536546 533.535609 
L 53.534045 533.404516 
L 53.541586 533.273423 
L 53.556937 533.14233 
L 53.565327 533.091476 
L 53.58378 533.011237 
L 53.624497 532.880144 
L 53.640121 532.838492 
L 53.686778 532.749051 
L 53.714916 532.700248 
L 53.78971 532.62012 
L 53.796987 532.617958 
L 53.864504 532.598478 
L 53.913048 532.617958 
L 53.939298 532.627668 
L 54.014093 532.693952 
L 54.056188 532.749051 
L 54.088887 532.797795 
L 54.122772 532.880144 
L 54.157361 533.011237 
L 54.163681 533.051475 
L 54.174114 533.14233 
L 54.182311 533.273423 
L 54.183636 533.404516 
L 54.175205 533.535609 
L 54.163681 533.5987 
L 54.151364 533.666702 
L 54.105226 533.797795 
L 54.088887 533.826386 
L 54.014093 533.928888 
L 54.014093 533.928888 
L 53.939298 533.97667 
L 53.864504 533.993779 
L 53.78971 533.98931 
L 53.714916 533.960049 
z
" clip-path="url(#p933604869c)" style="fill: #6262fa"/>
    <path d="M 53.714916 533.960049 
L 53.78971 533.98931 
L 53.864504 533.993779 
L 53.939298 533.97667 
L 54.014093 533.928888 
L 54.014093 533.928888 
L 54.088887 533.826386 
L 54.105226 533.797795 
L 54.151364 533.666702 
L 54.163681 533.5987 
L 54.175205 533.535609 
L 54.183636 533.404516 
L 54.182311 533.273423 
L 54.174114 533.14233 
L 54.163681 533.051475 
L 54.157361 533.011237 
L 54.122772 532.880144 
L 54.088887 532.797795 
L 54.056188 532.749051 
L 54.014093 532.693952 
L 53.939298 532.627668 
L 53.913048 532.617958 
L 53.864504 532.598478 
L 53.796987 532.617958 
L 53.78971 532.62012 
L 53.714916 532.700248 
L 53.686778 532.749051 
L 53.640121 532.838492 
L 53.624497 532.880144 
L 53.58378 533.011237 
L 53.565327 533.091476 
L 53.556937 533.14233 
L 53.541586 533.273423 
L 53.534045 533.404516 
L 53.536546 533.535609 
L 53.553426 533.666702 
L 53.565327 533.708326 
L 53.593078 533.797795 
L 53.640121 533.88119 
L 53.67809 533.928888 
z
M 53.669391 533.797795 
L 53.640121 533.723463 
L 53.621778 533.666702 
L 53.605201 533.535609 
L 53.606964 533.404516 
L 53.623126 533.273423 
L 53.640121 533.192053 
L 53.653529 533.14233 
L 53.702892 533.011237 
L 53.714916 532.985024 
L 53.78971 532.880144 
L 53.78971 532.880144 
L 53.864504 532.840433 
L 53.939298 532.86151 
L 53.958987 532.880144 
L 54.014093 532.941273 
L 54.049118 533.011237 
L 54.088887 533.13322 
L 54.090761 533.14233 
L 54.109101 533.273423 
L 54.117266 533.404516 
L 54.11278 533.535609 
L 54.090407 533.666702 
L 54.088887 533.670933 
L 54.033065 533.797795 
L 54.014093 533.824358 
L 53.939298 533.887682 
L 53.864504 533.910935 
L 53.78971 533.903922 
L 53.714916 533.858051 
z
" clip-path="url(#p933604869c)" style="fill: #4848fb"/>
    <path d="M 53.714916 533.858051 
L 53.78971 533.903922 
L 53.864504 533.910935 
L 53.939298 533.887682 
L 54.014093 533.824358 
L 54.033065 533.797795 
L 54.088887 533.670933 
L 54.090407 533.666702 
L 54.11278 533.535609 
L 54.117266 533.404516 
L 54.109101 533.273423 
L 54.090761 533.14233 
L 54.088887 533.13322 
L 54.049118 533.011237 
L 54.014093 532.941273 
L 53.958987 532.880144 
L 53.939298 532.86151 
L 53.864504 532.840433 
L 53.78971 532.880144 
L 53.78971 532.880144 
L 53.714916 532.985024 
L 53.702892 533.011237 
L 53.653529 533.14233 
L 53.640121 533.192053 
L 53.623126 533.273423 
L 53.606964 533.404516 
L 53.605201 533.535609 
L 53.621778 533.666702 
L 53.640121 533.723463 
L 53.669391 533.797795 
z
M 53.78971 533.797795 
L 53.78971 533.797795 
L 53.714916 533.703924 
L 53.699695 533.666702 
L 53.682161 533.535609 
L 53.690315 533.404516 
L 53.714916 533.291166 
L 53.720799 533.273423 
L 53.784096 533.14233 
L 53.78971 533.13282 
L 53.864504 533.083923 
L 53.939298 533.124383 
L 53.950485 533.14233 
L 54.007889 533.273423 
L 54.014093 533.296303 
L 54.032305 533.404516 
L 54.035313 533.535609 
L 54.014093 533.656683 
L 54.011456 533.666702 
L 53.939298 533.769407 
L 53.889128 533.797795 
L 53.864504 533.80591 
z
" clip-path="url(#p933604869c)" style="fill: #2c2cfd"/>
    <path d="M 53.864504 533.80591 
L 53.889128 533.797795 
L 53.939298 533.769407 
L 54.011456 533.666702 
L 54.014093 533.656683 
L 54.035313 533.535609 
L 54.032305 533.404516 
L 54.014093 533.296303 
L 54.007889 533.273423 
L 53.950485 533.14233 
L 53.939298 533.124383 
L 53.864504 533.083923 
L 53.78971 533.13282 
L 53.784096 533.14233 
L 53.720799 533.273423 
L 53.714916 533.291166 
L 53.690315 533.404516 
L 53.682161 533.535609 
L 53.699695 533.666702 
L 53.714916 533.703924 
L 53.78971 533.797795 
L 53.78971 533.797795 
z
" clip-path="url(#p933604869c)" style="fill: #0f0ffe"/>
   </g>
   <g id="QuadContourSet_2">
    <path d="M 52.396942 562.735799 
L 52.606594 563.298234 
L 52.816246 563.576004 
L 53.025898 563.639443 
L 53.235549 563.516711 
L 53.445201 563.203058 
L 53.654853 562.660644 
L 53.810434 562.058461 
L 53.864505 561.951836 
L 54.074157 561.410292 
L 54.283809 560.610635 
L 54.493461 559.405778 
L 54.536513 559.11796 
L 54.703112 558.446286 
L 54.912764 557.238437 
L 55.051632 556.177459 
L 55.122416 555.814317 
L 55.332068 554.531033 
L 55.491108 553.236959 
L 55.54172 552.934564 
L 55.751372 551.592859 
L 55.916171 550.296458 
L 55.961024 550.021633 
L 56.170676 548.808562 
L 56.380327 547.44636 
L 56.397517 547.355957 
L 56.589979 546.583523 
L 56.799631 545.832707 
L 57.009283 545.221194 
L 57.218935 544.765115 
L 57.428587 544.446578 
L 57.459687 544.415456 
L 57.638239 544.284601 
L 57.84789 544.17129 
L 58.057542 544.069072 
L 58.267194 543.95418 
L 58.476846 543.810116 
L 58.686498 543.62882 
L 58.89615 543.410557 
L 59.105802 543.163159 
L 59.315454 542.900697 
L 59.525105 542.640855 
L 59.734757 542.400364 
L 59.944409 542.189399 
L 60.154061 542.007993 
L 60.363713 541.847196 
L 60.573365 541.694494 
L 60.783017 541.54002 
L 60.869662 541.474955 
L 60.992668 541.398526 
L 61.20232 541.268482 
L 61.411972 541.145353 
L 61.621624 541.039642 
L 61.831276 540.961717 
L 62.040928 540.917936 
L 62.25058 540.906059 
L 62.460232 540.912118 
L 62.669883 540.91176 
L 62.879535 540.876865 
L 63.089187 540.783981 
L 63.298839 540.619766 
L 63.508491 540.381749 
L 63.718143 540.076231 
L 63.927795 539.715547 
L 64.137446 539.315097 
L 64.347098 538.888795 
L 64.514895 538.534454 
L 64.55675 538.452079 
L 64.766402 538.025383 
L 64.976054 537.540412 
L 65.185706 536.954928 
L 65.395358 536.2207 
L 65.539115 535.593953 
L 65.60501 535.304567 
L 65.814661 534.213101 
L 66.024313 532.908323 
L 66.06229 532.653453 
L 66.233965 531.418934 
L 66.443617 529.809709 
L 66.457013 529.712952 
L 66.653269 528.147847 
L 66.839366 526.772451 
L 66.862921 526.57991 
L 67.072573 525.227135 
L 67.282224 524.179632 
L 67.387196 523.83195 
L 67.491876 523.469696 
L 67.701528 523.046275 
L 67.91118 522.797938 
L 68.120832 522.609036 
L 68.330484 522.382539 
L 68.540136 522.065061 
L 68.749788 521.641328 
L 68.959439 521.105618 
L 69.024677 520.891449 
L 69.169091 520.371104 
L 69.378743 519.42591 
L 69.588395 518.269084 
L 69.635888 517.950948 
L 69.798047 516.589987 
L 69.958224 515.010448 
L 70.007699 514.268492 
L 70.138574 512.069947 
L 70.214171 509.129446 
L 70.204121 506.188945 
L 70.125904 503.248444 
L 70.008949 500.307943 
L 70.007699 500.27658 
L 69.900546 497.367442 
L 69.840868 494.426942 
L 69.83043 491.486441 
L 69.852069 488.54594 
L 69.884692 485.605439 
L 69.908718 482.664938 
L 69.904096 479.724437 
L 69.842212 476.783936 
L 69.798047 475.905022 
L 69.64769 473.843436 
L 69.588395 473.378833 
L 69.378743 472.394614 
L 69.169091 471.960816 
L 68.959439 471.822051 
L 68.749788 471.811122 
L 68.540136 471.810725 
L 68.330484 471.736817 
L 68.120832 471.542062 
L 67.91118 471.227277 
L 67.7377 470.902935 
L 67.701528 470.829191 
L 67.491876 470.363899 
L 67.282224 469.889026 
L 67.072573 469.386051 
L 66.862921 468.805081 
L 66.653269 468.080542 
L 66.625299 467.962434 
L 66.443617 466.768362 
L 66.233965 465.074762 
L 66.22816 465.021933 
L 66.024313 462.305863 
L 66.007279 462.081432 
L 65.814661 459.308517 
L 65.802032 459.140931 
L 65.60501 456.787076 
L 65.55134 456.200431 
L 65.395358 454.608459 
L 65.238997 453.25993 
L 65.185706 452.787073 
L 64.976054 451.412754 
L 64.766402 450.687145 
L 64.55675 450.405436 
L 64.359342 450.319429 
L 64.347098 450.310855 
L 64.137446 449.922005 
L 63.927795 447.475191 
L 63.924738 447.378928 
L 63.927795 446.475718 
L 63.934732 444.438427 
L 63.983387 441.497926 
L 64.025148 438.557425 
L 64.046306 435.616925 
L 64.042212 432.676424 
L 64.013408 429.735923 
L 63.960957 426.795422 
L 63.927795 425.596642 
L 63.881337 423.854921 
L 63.762495 420.91442 
L 63.718143 420.157658 
L 63.584656 417.97392 
L 63.508491 417.064452 
L 63.313734 415.033419 
L 63.298839 414.90422 
L 63.089187 413.330338 
L 62.879535 412.102556 
L 62.877551 412.092918 
L 62.669883 411.051901 
L 62.460232 410.153355 
L 62.25058 409.339486 
L 62.197111 409.152417 
L 62.040928 408.505184 
L 61.831276 407.766738 
L 61.621624 407.21132 
L 61.411972 406.893959 
L 61.20232 406.835657 
L 60.992668 407.014063 
L 60.783017 407.378158 
L 60.573365 407.873351 
L 60.363713 408.464539 
L 60.154354 409.152417 
L 60.154061 409.153499 
L 59.944409 410.032027 
L 59.734757 411.077841 
L 59.57273 412.092918 
L 59.525105 412.43421 
L 59.315454 414.242828 
L 59.239197 415.033419 
L 59.105802 416.690189 
L 59.014735 417.97392 
L 58.89615 420.270804 
L 58.865713 420.91442 
L 58.798385 423.854921 
L 58.810641 426.795422 
L 58.89615 429.608165 
L 58.902386 429.735923 
L 59.041215 432.676424 
L 59.041673 435.616925 
L 58.89615 437.797474 
L 58.855226 438.557425 
L 58.686498 440.009731 
L 58.534472 441.497926 
L 58.476846 441.855112 
L 58.267194 443.195595 
L 58.057542 444.438427 
L 58.057542 444.438427 
L 57.84789 445.150714 
L 57.638239 445.568486 
L 57.428587 445.630376 
L 57.218935 445.342063 
L 57.009283 444.777233 
L 56.921772 444.438427 
L 56.799631 443.921607 
L 56.589979 442.900752 
L 56.380327 441.967574 
L 56.263209 441.497926 
L 56.170676 441.055078 
L 55.961024 440.174773 
L 55.751372 439.537606 
L 55.54172 439.118079 
L 55.332068 438.891185 
L 55.122416 438.841998 
L 54.912764 438.971351 
L 54.703112 439.301196 
L 54.493461 439.882892 
L 54.283809 440.812359 
L 54.173367 441.497926 
L 54.074157 441.92658 
L 53.864505 443.174098 
L 53.714591 444.438427 
L 53.654853 444.828182 
L 53.445201 446.586397 
L 53.369578 447.378928 
L 53.235549 448.5907 
L 53.085787 450.319429 
L 53.025898 450.962307 
L 52.845368 453.25993 
L 52.816246 453.632037 
L 52.633461 456.200431 
L 52.606594 456.609992 
L 52.443712 459.140931 
L 52.396942 459.993499 
L 52.275677 462.081432 
L 52.18729 464.01314 
L 52.134555 465.021933 
L 52.009218 467.962434 
L 51.977638 468.907306 
L 51.892786 470.902935 
L 51.801623 473.843436 
L 51.767986 475.276975 
L 51.718146 476.783936 
L 51.642996 479.724437 
L 51.590062 482.664938 
L 51.558334 485.02496 
L 51.546052 485.605439 
L 51.494639 488.54594 
L 51.455876 491.486441 
L 51.425886 494.426942 
L 51.402174 497.367442 
L 51.383009 500.307943 
L 51.366974 503.248444 
L 51.352684 506.188945 
L 51.348683 506.993458 
L 51.330625 509.129446 
L 51.303275 512.069947 
L 51.27214 515.010448 
L 51.237193 517.950948 
L 51.200276 520.891449 
L 51.164303 523.83195 
L 51.139031 526.049245 
L 51.125184 526.772451 
L 51.072666 529.712952 
L 51.033075 532.653453 
L 51.006895 535.593953 
L 50.994551 538.534454 
L 50.997732 541.474955 
L 51.02087 544.415456 
L 51.07349 547.355957 
L 51.139031 549.429575 
L 51.160494 550.296458 
L 51.277867 553.236959 
L 51.348683 554.445373 
L 51.45897 556.177459 
L 51.558334 557.431131 
L 51.740316 559.11796 
L 51.767986 559.378497 
L 51.977638 560.983457 
L 52.18729 561.89558 
L 52.243238 562.058461 
z
M 52.641329 556.177459 
L 52.606594 556.091115 
L 52.396942 555.256413 
L 52.18729 553.776001 
L 52.130201 553.236959 
L 51.977638 551.671402 
L 51.87673 550.296458 
L 51.767986 548.222421 
L 51.724866 547.355957 
L 51.625895 544.415456 
L 51.576953 541.474955 
L 51.558334 538.632249 
L 51.557404 538.534454 
L 51.558334 535.593953 
L 51.558334 535.593953 
L 51.574001 532.653453 
L 51.602948 529.712952 
L 51.644688 526.772451 
L 51.698739 523.83195 
L 51.763272 520.891449 
L 51.767986 520.666343 
L 51.807794 517.950948 
L 51.851163 515.010448 
L 51.891862 512.069947 
L 51.927613 509.129446 
L 51.958212 506.188945 
L 51.977638 504.054314 
L 51.982693 503.248444 
L 51.999991 500.307943 
L 52.018749 497.367442 
L 52.040818 494.426942 
L 52.068145 491.486441 
L 52.103114 488.54594 
L 52.149054 485.605439 
L 52.18729 483.713217 
L 52.20284 482.664938 
L 52.258088 479.724437 
L 52.334465 476.783936 
L 52.396942 474.953933 
L 52.427863 473.843436 
L 52.532266 470.902935 
L 52.606594 469.286696 
L 52.661514 467.962434 
L 52.816246 465.077221 
L 52.819134 465.021933 
L 52.993811 462.081432 
L 53.025898 461.605878 
L 53.206406 459.140931 
L 53.235549 458.764211 
L 53.445201 456.38945 
L 53.465042 456.200431 
L 53.654853 454.284918 
L 53.791839 453.25993 
L 53.864505 452.637627 
L 54.074157 451.228585 
L 54.273233 450.319429 
L 54.283809 450.257748 
L 54.493461 449.349757 
L 54.703112 448.819134 
L 54.912764 448.601881 
L 55.122416 448.684025 
L 55.332068 449.093772 
L 55.54172 449.900874 
L 55.616513 450.319429 
L 55.751372 451.025673 
L 55.961024 452.624066 
L 56.028739 453.25993 
L 56.170676 454.723512 
L 56.293707 456.200431 
L 56.380327 457.437433 
L 56.498683 459.140931 
L 56.589979 460.757656 
L 56.673492 462.081432 
L 56.799631 464.514448 
L 56.831626 465.021933 
L 56.989822 467.962434 
L 57.009283 468.393703 
L 57.154477 470.902935 
L 57.218935 472.239183 
L 57.319603 473.843436 
L 57.428587 475.771173 
L 57.50598 476.783936 
L 57.638239 478.523542 
L 57.766722 479.724437 
L 57.84789 480.480775 
L 58.057542 481.89397 
L 58.207364 482.664938 
L 58.267194 483.015247 
L 58.476846 484.01411 
L 58.686498 484.948498 
L 58.838299 485.605439 
L 58.89615 485.929807 
L 59.105802 487.111069 
L 59.308521 488.54594 
L 59.315454 488.604794 
L 59.525105 490.526355 
L 59.622756 491.486441 
L 59.734757 492.392269 
L 59.944409 493.689677 
L 60.145359 494.426942 
L 60.154061 494.451004 
L 60.363713 494.786044 
L 60.573365 494.982266 
L 60.783017 495.192328 
L 60.992668 495.581716 
L 61.20232 496.365388 
L 61.351313 497.367442 
L 61.411972 498.315095 
L 61.495247 500.307943 
L 61.479971 503.248444 
L 61.411972 505.063216 
L 61.371229 506.188945 
L 61.20232 508.886852 
L 61.187616 509.129446 
L 60.992668 511.400834 
L 60.937185 512.069947 
L 60.783017 513.51062 
L 60.627545 515.010448 
L 60.573365 515.43681 
L 60.363713 517.123192 
L 60.263421 517.950948 
L 60.154061 518.700851 
L 59.944409 520.114843 
L 59.826734 520.891449 
L 59.734757 521.403215 
L 59.525105 522.483432 
L 59.315454 523.481151 
L 59.234803 523.83195 
L 59.105802 524.305373 
L 58.89615 524.998956 
L 58.686498 525.641736 
L 58.476846 526.257007 
L 58.300431 526.772451 
L 58.267194 526.85692 
L 58.057542 527.422448 
L 57.84789 528.028209 
L 57.638239 528.716608 
L 57.428587 529.555454 
L 57.399993 529.712952 
L 57.218935 530.597582 
L 57.009283 531.917956 
L 56.921153 532.653453 
L 56.799631 533.556784 
L 56.589979 535.402435 
L 56.572819 535.593953 
L 56.380327 537.505032 
L 56.282703 538.534454 
L 56.170676 539.646599 
L 55.982745 541.474955 
L 55.961024 541.686949 
L 55.751372 543.813628 
L 55.686056 544.415456 
L 55.54172 545.835252 
L 55.349773 547.355957 
L 55.332068 547.518652 
L 55.122416 549.356997 
L 54.975811 550.296458 
L 54.912764 550.814401 
L 54.703112 552.285632 
L 54.504218 553.236959 
L 54.493461 553.31083 
L 54.283809 554.577636 
L 54.074157 555.431945 
L 53.864505 556.01391 
L 53.781653 556.177459 
L 53.654853 556.604428 
L 53.445201 557.037964 
L 53.235549 557.214697 
L 53.025898 557.141539 
L 52.816246 556.780752 
z
M 59.734757 380.757542 
L 59.944409 381.507094 
L 60.154061 382.009844 
L 60.363713 382.28138 
L 60.573365 382.341468 
L 60.783017 382.200963 
L 60.992668 381.839268 
L 61.20232 381.178797 
L 61.411972 380.053351 
L 61.450755 379.747408 
L 61.621624 378.103326 
L 61.712239 376.806908 
L 61.831276 374.658875 
L 61.864977 373.866407 
L 61.975512 370.925906 
L 62.040928 368.96514 
L 62.069443 367.985405 
L 62.147293 365.044904 
L 62.207293 362.104403 
L 62.239077 359.163903 
L 62.223338 356.223402 
L 62.121184 353.282901 
L 62.040928 352.205839 
L 61.831276 350.860431 
L 61.621624 350.600301 
L 61.411972 351.012501 
L 61.20232 351.937586 
L 61.005131 353.282901 
L 60.992668 353.361546 
L 60.783017 354.89208 
L 60.620577 356.223402 
L 60.573365 356.574809 
L 60.363713 358.082872 
L 60.213154 359.163903 
L 60.154061 359.561866 
L 59.944409 360.91836 
L 59.772644 362.104403 
L 59.734757 362.377079 
L 59.525105 364.021416 
L 59.413516 365.044904 
L 59.315454 366.16009 
L 59.175955 367.985405 
L 59.105802 369.553005 
L 59.050203 370.925906 
L 59.039275 373.866407 
L 59.105802 375.542354 
L 59.171331 376.806908 
L 59.315454 378.222934 
L 59.525105 379.74455 
L 59.525629 379.747408 
z
" clip-path="url(#p933604869c)" style="fill: #e9f2e9; fill-opacity: 0.5"/>
    <path d="M 52.816246 556.780752 
L 53.025898 557.141539 
L 53.235549 557.214697 
L 53.445201 557.037964 
L 53.654853 556.604428 
L 53.781653 556.177459 
L 53.864505 556.01391 
L 54.074157 555.431945 
L 54.283809 554.577636 
L 54.493461 553.31083 
L 54.504218 553.236959 
L 54.703112 552.285632 
L 54.912764 550.814401 
L 54.975811 550.296458 
L 55.122416 549.356997 
L 55.332068 547.518652 
L 55.349773 547.355957 
L 55.54172 545.835252 
L 55.686056 544.415456 
L 55.751372 543.813628 
L 55.961024 541.686949 
L 55.982745 541.474955 
L 56.170676 539.646599 
L 56.282703 538.534454 
L 56.380327 537.505032 
L 56.572819 535.593953 
L 56.589979 535.402435 
L 56.799631 533.556784 
L 56.921153 532.653453 
L 57.009283 531.917956 
L 57.218935 530.597582 
L 57.399993 529.712952 
L 57.428587 529.555454 
L 57.638239 528.716608 
L 57.84789 528.028209 
L 58.057542 527.422448 
L 58.267194 526.85692 
L 58.300431 526.772451 
L 58.476846 526.257007 
L 58.686498 525.641736 
L 58.89615 524.998956 
L 59.105802 524.305373 
L 59.234803 523.83195 
L 59.315454 523.481151 
L 59.525105 522.483432 
L 59.734757 521.403215 
L 59.826734 520.891449 
L 59.944409 520.114843 
L 60.154061 518.700851 
L 60.263421 517.950948 
L 60.363713 517.123192 
L 60.573365 515.43681 
L 60.627545 515.010448 
L 60.783017 513.51062 
L 60.937185 512.069947 
L 60.992668 511.400834 
L 61.187616 509.129446 
L 61.20232 508.886852 
L 61.371229 506.188945 
L 61.411972 505.063216 
L 61.479971 503.248444 
L 61.495247 500.307943 
L 61.411972 498.315095 
L 61.351313 497.367442 
L 61.20232 496.365388 
L 60.992668 495.581716 
L 60.783017 495.192328 
L 60.573365 494.982266 
L 60.363713 494.786044 
L 60.154061 494.451004 
L 60.145359 494.426942 
L 59.944409 493.689677 
L 59.734757 492.392269 
L 59.622756 491.486441 
L 59.525105 490.526355 
L 59.315454 488.604794 
L 59.308521 488.54594 
L 59.105802 487.111069 
L 58.89615 485.929807 
L 58.838299 485.605439 
L 58.686498 484.948498 
L 58.476846 484.01411 
L 58.267194 483.015247 
L 58.207364 482.664938 
L 58.057542 481.89397 
L 57.84789 480.480775 
L 57.766722 479.724437 
L 57.638239 478.523542 
L 57.50598 476.783936 
L 57.428587 475.771173 
L 57.319603 473.843436 
L 57.218935 472.239183 
L 57.154477 470.902935 
L 57.009283 468.393703 
L 56.989822 467.962434 
L 56.831626 465.021933 
L 56.799631 464.514448 
L 56.673492 462.081432 
L 56.589979 460.757656 
L 56.498683 459.140931 
L 56.380327 457.437433 
L 56.293707 456.200431 
L 56.170676 454.723512 
L 56.028739 453.25993 
L 55.961024 452.624066 
L 55.751372 451.025673 
L 55.616513 450.319429 
L 55.54172 449.900874 
L 55.332068 449.093772 
L 55.122416 448.684025 
L 54.912764 448.601881 
L 54.703112 448.819134 
L 54.493461 449.349757 
L 54.283809 450.257748 
L 54.273233 450.319429 
L 54.074157 451.228585 
L 53.864505 452.637627 
L 53.791839 453.25993 
L 53.654853 454.284918 
L 53.465042 456.200431 
L 53.445201 456.38945 
L 53.235549 458.764211 
L 53.206406 459.140931 
L 53.025898 461.605878 
L 52.993811 462.081432 
L 52.819134 465.021933 
L 52.816246 465.077221 
L 52.661514 467.962434 
L 52.606594 469.286696 
L 52.532266 470.902935 
L 52.427863 473.843436 
L 52.396942 474.953933 
L 52.334465 476.783936 
L 52.258088 479.724437 
L 52.20284 482.664938 
L 52.18729 483.713217 
L 52.149054 485.605439 
L 52.103114 488.54594 
L 52.068145 491.486441 
L 52.040818 494.426942 
L 52.018749 497.367442 
L 51.999991 500.307943 
L 51.982693 503.248444 
L 51.977638 504.054314 
L 51.958212 506.188945 
L 51.927613 509.129446 
L 51.891862 512.069947 
L 51.851163 515.010448 
L 51.807794 517.950948 
L 51.767986 520.666343 
L 51.763272 520.891449 
L 51.698739 523.83195 
L 51.644688 526.772451 
L 51.602948 529.712952 
L 51.574001 532.653453 
L 51.558334 535.593953 
L 51.558334 535.593953 
L 51.557404 538.534454 
L 51.558334 538.632249 
L 51.576953 541.474955 
L 51.625895 544.415456 
L 51.724866 547.355957 
L 51.767986 548.222421 
L 51.87673 550.296458 
L 51.977638 551.671402 
L 52.130201 553.236959 
L 52.18729 553.776001 
L 52.396942 555.256413 
L 52.606594 556.091115 
L 52.641329 556.177459 
z
M 52.863757 550.296458 
L 52.816246 550.135061 
L 52.606594 548.950334 
L 52.439458 547.355957 
L 52.396942 546.859368 
L 52.238141 544.415456 
L 52.18729 543.127547 
L 52.12421 541.474955 
L 52.063561 538.534454 
L 52.042858 535.593953 
L 52.04965 532.653453 
L 52.078355 529.712952 
L 52.127 526.772451 
L 52.18729 524.130462 
L 52.192539 523.83195 
L 52.25058 520.891449 
L 52.318085 517.950948 
L 52.39094 515.010448 
L 52.396942 514.734808 
L 52.444542 512.069947 
L 52.492349 509.129446 
L 52.533386 506.188945 
L 52.567391 503.248444 
L 52.596389 500.307943 
L 52.606594 499.18431 
L 52.619934 497.367442 
L 52.642674 494.426942 
L 52.669566 491.486441 
L 52.70345 488.54594 
L 52.747708 485.605439 
L 52.806861 482.664938 
L 52.816246 482.291161 
L 52.872504 479.724437 
L 52.958697 476.783936 
L 53.025898 475.015734 
L 53.068464 473.843436 
L 53.20361 470.902935 
L 53.235549 470.317685 
L 53.371345 467.962434 
L 53.445201 466.864067 
L 53.587551 465.021933 
L 53.654853 464.214298 
L 53.864505 462.191992 
L 53.879237 462.081432 
L 54.074157 460.564505 
L 54.283809 459.469179 
L 54.38628 459.140931 
L 54.493461 458.743665 
L 54.703112 458.431577 
L 54.912764 458.597037 
L 55.07715 459.140931 
L 55.122416 459.28944 
L 55.332068 460.561297 
L 55.48801 462.081432 
L 55.54172 462.706093 
L 55.697309 465.021933 
L 55.751372 466.084201 
L 55.840265 467.962434 
L 55.941687 470.902935 
L 55.961024 471.645709 
L 56.024323 473.843436 
L 56.087132 476.783936 
L 56.133135 479.724437 
L 56.167712 482.664938 
L 56.170676 482.974902 
L 56.20294 485.605439 
L 56.235277 488.54594 
L 56.267821 491.486441 
L 56.303004 494.426942 
L 56.34116 497.367442 
L 56.380327 500.307943 
L 56.380327 500.307943 
L 56.42956 503.248444 
L 56.470098 506.188945 
L 56.497895 509.129446 
L 56.510157 512.069947 
L 56.504548 515.010448 
L 56.477698 517.950948 
L 56.423264 520.891449 
L 56.380327 522.312361 
L 56.347098 523.83195 
L 56.248494 526.772451 
L 56.170676 528.366795 
L 56.117321 529.712952 
L 55.961024 532.479289 
L 55.952373 532.653453 
L 55.76452 535.593953 
L 55.751372 535.7682 
L 55.54172 538.524045 
L 55.540909 538.534454 
L 55.332068 540.984048 
L 55.284263 541.474955 
L 55.122416 543.142624 
L 54.967557 544.415456 
L 54.912764 544.912185 
L 54.703112 546.543904 
L 54.562879 547.355957 
L 54.493461 547.854625 
L 54.283809 549.069621 
L 54.074157 549.904244 
L 53.933849 550.296458 
L 53.864505 550.575264 
L 53.654853 551.125746 
L 53.445201 551.372594 
L 53.235549 551.323325 
L 53.025898 550.931062 
z
" clip-path="url(#p933604869c)" style="fill: #deedde; fill-opacity: 0.5"/>
    <path d="M 53.025898 550.931062 
L 53.235549 551.323325 
L 53.445201 551.372594 
L 53.654853 551.125746 
L 53.864505 550.575264 
L 53.933849 550.296458 
L 54.074157 549.904244 
L 54.283809 549.069621 
L 54.493461 547.854625 
L 54.562879 547.355957 
L 54.703112 546.543904 
L 54.912764 544.912185 
L 54.967557 544.415456 
L 55.122416 543.142624 
L 55.284263 541.474955 
L 55.332068 540.984048 
L 55.540909 538.534454 
L 55.54172 538.524045 
L 55.751372 535.7682 
L 55.76452 535.593953 
L 55.952373 532.653453 
L 55.961024 532.479289 
L 56.117321 529.712952 
L 56.170676 528.366795 
L 56.248494 526.772451 
L 56.347098 523.83195 
L 56.380327 522.312361 
L 56.423264 520.891449 
L 56.477698 517.950948 
L 56.504548 515.010448 
L 56.510157 512.069947 
L 56.497895 509.129446 
L 56.470098 506.188945 
L 56.42956 503.248444 
L 56.380327 500.307943 
L 56.380327 500.307943 
L 56.34116 497.367442 
L 56.303004 494.426942 
L 56.267821 491.486441 
L 56.235277 488.54594 
L 56.20294 485.605439 
L 56.170676 482.974902 
L 56.167712 482.664938 
L 56.133135 479.724437 
L 56.087132 476.783936 
L 56.024323 473.843436 
L 55.961024 471.645709 
L 55.941687 470.902935 
L 55.840265 467.962434 
L 55.751372 466.084201 
L 55.697309 465.021933 
L 55.54172 462.706093 
L 55.48801 462.081432 
L 55.332068 460.561297 
L 55.122416 459.28944 
L 55.07715 459.140931 
L 54.912764 458.597037 
L 54.703112 458.431577 
L 54.493461 458.743665 
L 54.38628 459.140931 
L 54.283809 459.469179 
L 54.074157 460.564505 
L 53.879237 462.081432 
L 53.864505 462.191992 
L 53.654853 464.214298 
L 53.587551 465.021933 
L 53.445201 466.864067 
L 53.371345 467.962434 
L 53.235549 470.317685 
L 53.20361 470.902935 
L 53.068464 473.843436 
L 53.025898 475.015734 
L 52.958697 476.783936 
L 52.872504 479.724437 
L 52.816246 482.291161 
L 52.806861 482.664938 
L 52.747708 485.605439 
L 52.70345 488.54594 
L 52.669566 491.486441 
L 52.642674 494.426942 
L 52.619934 497.367442 
L 52.606594 499.18431 
L 52.596389 500.307943 
L 52.567391 503.248444 
L 52.533386 506.188945 
L 52.492349 509.129446 
L 52.444542 512.069947 
L 52.396942 514.734808 
L 52.39094 515.010448 
L 52.318085 517.950948 
L 52.25058 520.891449 
L 52.192539 523.83195 
L 52.18729 524.130462 
L 52.127 526.772451 
L 52.078355 529.712952 
L 52.04965 532.653453 
L 52.042858 535.593953 
L 52.063561 538.534454 
L 52.12421 541.474955 
L 52.18729 543.127547 
L 52.238141 544.415456 
L 52.396942 546.859368 
L 52.439458 547.355957 
L 52.606594 548.950334 
L 52.816246 550.135061 
L 52.863757 550.296458 
z
M 52.771556 544.415456 
L 52.606594 542.322688 
L 52.556187 541.474955 
L 52.448345 538.534454 
L 52.403443 535.593953 
L 52.396942 532.653453 
L 52.417196 529.712952 
L 52.459215 526.772451 
L 52.521326 523.83195 
L 52.602784 520.891449 
L 52.606594 520.760501 
L 52.678777 517.950948 
L 52.762804 515.010448 
L 52.816246 513.112144 
L 52.84372 512.069947 
L 52.911777 509.129446 
L 52.972017 506.188945 
L 53.021685 503.248444 
L 53.025898 502.922133 
L 53.057644 500.307943 
L 53.087532 497.367442 
L 53.115881 494.426942 
L 53.147098 491.486441 
L 53.185547 488.54594 
L 53.235549 485.619668 
L 53.235788 485.605439 
L 53.298786 482.664938 
L 53.382486 479.724437 
L 53.445201 478.021882 
L 53.494398 476.783936 
L 53.641974 473.843436 
L 53.654853 473.626986 
L 53.84926 470.902935 
L 53.864505 470.715212 
L 54.074157 468.731965 
L 54.200376 467.962434 
L 54.283809 467.463476 
L 54.493461 466.864329 
L 54.703112 466.954616 
L 54.912764 467.846773 
L 54.927302 467.962434 
L 55.122416 469.885462 
L 55.190699 470.902935 
L 55.332068 473.833915 
L 55.332453 473.843436 
L 55.422257 476.783936 
L 55.482066 479.724437 
L 55.521952 482.664938 
L 55.54172 484.758681 
L 55.550288 485.605439 
L 55.574348 488.54594 
L 55.598726 491.486441 
L 55.629288 494.426942 
L 55.670131 497.367442 
L 55.722028 500.307943 
L 55.751372 501.701656 
L 55.786246 503.248444 
L 55.855022 506.188945 
L 55.913843 509.129446 
L 55.955541 512.069947 
L 55.961024 512.782354 
L 55.980971 515.010448 
L 55.980096 517.950948 
L 55.961024 519.701481 
L 55.951378 520.891449 
L 55.900576 523.83195 
L 55.814651 526.772451 
L 55.751372 528.241421 
L 55.696506 529.712952 
L 55.54172 532.598188 
L 55.538929 532.653453 
L 55.350204 535.593953 
L 55.332068 535.832702 
L 55.122416 538.419985 
L 55.112189 538.534454 
L 54.912764 540.63761 
L 54.814266 541.474955 
L 54.703112 542.459105 
L 54.493461 543.9208 
L 54.401586 544.415456 
L 54.283809 545.162103 
L 54.074157 546.135836 
L 53.864505 546.769281 
L 53.654853 547.12078 
L 53.445201 547.195606 
L 53.235549 546.943927 
L 53.025898 546.241786 
L 52.816246 544.845486 
z
" clip-path="url(#p933604869c)" style="fill: #c9e2c8; fill-opacity: 0.5"/>
    <path d="M 52.816246 544.845486 
L 53.025898 546.241786 
L 53.235549 546.943927 
L 53.445201 547.195606 
L 53.654853 547.12078 
L 53.864505 546.769281 
L 54.074157 546.135836 
L 54.283809 545.162103 
L 54.401586 544.415456 
L 54.493461 543.9208 
L 54.703112 542.459105 
L 54.814266 541.474955 
L 54.912764 540.63761 
L 55.112189 538.534454 
L 55.122416 538.419985 
L 55.332068 535.832702 
L 55.350204 535.593953 
L 55.538929 532.653453 
L 55.54172 532.598188 
L 55.696506 529.712952 
L 55.751372 528.241421 
L 55.814651 526.772451 
L 55.900576 523.83195 
L 55.951378 520.891449 
L 55.961024 519.701481 
L 55.980096 517.950948 
L 55.980971 515.010448 
L 55.961024 512.782354 
L 55.955541 512.069947 
L 55.913843 509.129446 
L 55.855022 506.188945 
L 55.786246 503.248444 
L 55.751372 501.701656 
L 55.722028 500.307943 
L 55.670131 497.367442 
L 55.629288 494.426942 
L 55.598726 491.486441 
L 55.574348 488.54594 
L 55.550288 485.605439 
L 55.54172 484.758681 
L 55.521952 482.664938 
L 55.482066 479.724437 
L 55.422257 476.783936 
L 55.332453 473.843436 
L 55.332068 473.833915 
L 55.190699 470.902935 
L 55.122416 469.885462 
L 54.927302 467.962434 
L 54.912764 467.846773 
L 54.703112 466.954616 
L 54.493461 466.864329 
L 54.283809 467.463476 
L 54.200376 467.962434 
L 54.074157 468.731965 
L 53.864505 470.715212 
L 53.84926 470.902935 
L 53.654853 473.626986 
L 53.641974 473.843436 
L 53.494398 476.783936 
L 53.445201 478.021882 
L 53.382486 479.724437 
L 53.298786 482.664938 
L 53.235788 485.605439 
L 53.235549 485.619668 
L 53.185547 488.54594 
L 53.147098 491.486441 
L 53.115881 494.426942 
L 53.087532 497.367442 
L 53.057644 500.307943 
L 53.025898 502.922133 
L 53.021685 503.248444 
L 52.972017 506.188945 
L 52.911777 509.129446 
L 52.84372 512.069947 
L 52.816246 513.112144 
L 52.762804 515.010448 
L 52.678777 517.950948 
L 52.606594 520.760501 
L 52.602784 520.891449 
L 52.521326 523.83195 
L 52.459215 526.772451 
L 52.417196 529.712952 
L 52.396942 532.653453 
L 52.403443 535.593953 
L 52.448345 538.534454 
L 52.556187 541.474955 
L 52.606594 542.322688 
L 52.771556 544.415456 
z
M 53.366471 544.415456 
L 53.235549 544.103249 
L 53.025898 542.973457 
L 52.871947 541.474955 
L 52.816246 540.691559 
L 52.702401 538.534454 
L 52.628136 535.593953 
L 52.607836 532.653453 
L 52.622568 529.712952 
L 52.663853 526.772451 
L 52.728513 523.83195 
L 52.815492 520.891449 
L 52.816246 520.867713 
L 52.903202 517.950948 
L 53.003134 515.010448 
L 53.025898 514.307347 
L 53.098731 512.069947 
L 53.190195 509.129446 
L 53.235549 507.442843 
L 53.271348 506.188945 
L 53.337974 503.248444 
L 53.390995 500.307943 
L 53.432825 497.367442 
L 53.445201 496.340036 
L 53.470338 494.426942 
L 53.509075 491.486441 
L 53.554642 488.54594 
L 53.613162 485.605439 
L 53.654853 484.010333 
L 53.696501 482.664938 
L 53.813923 479.724437 
L 53.864505 478.720974 
L 53.996475 476.783936 
L 54.074157 475.829105 
L 54.283809 474.284099 
L 54.493461 473.843436 
L 54.703112 474.705767 
L 54.877746 476.783936 
L 54.912764 477.394468 
L 55.001142 479.724437 
L 55.072746 482.664938 
L 55.118453 485.605439 
L 55.122416 485.956585 
L 55.148683 488.54594 
L 55.176493 491.486441 
L 55.211253 494.426942 
L 55.260611 497.367442 
L 55.328574 500.307943 
L 55.332068 500.421361 
L 55.413288 503.248444 
L 55.503766 506.188945 
L 55.54172 507.44252 
L 55.590721 509.129446 
L 55.661063 512.069947 
L 55.704829 515.010448 
L 55.719972 517.950948 
L 55.706021 520.891449 
L 55.660882 523.83195 
L 55.577781 526.772451 
L 55.54172 527.634548 
L 55.46356 529.712952 
L 55.332068 532.14376 
L 55.305038 532.653453 
L 55.122416 535.327412 
L 55.102865 535.593953 
L 54.912764 537.834267 
L 54.842567 538.534454 
L 54.703112 539.86958 
L 54.493461 541.41746 
L 54.48388 541.474955 
L 54.283809 542.78043 
L 54.074157 543.719878 
L 53.864505 544.320496 
L 53.795812 544.415456 
L 53.654853 544.661877 
L 53.445201 544.608184 
z
" clip-path="url(#p933604869c)" style="fill: #b2d7b1; fill-opacity: 0.5"/>
    <path d="M 53.445201 544.608184 
L 53.654853 544.661877 
L 53.795812 544.415456 
L 53.864505 544.320496 
L 54.074157 543.719878 
L 54.283809 542.78043 
L 54.48388 541.474955 
L 54.493461 541.41746 
L 54.703112 539.86958 
L 54.842567 538.534454 
L 54.912764 537.834267 
L 55.102865 535.593953 
L 55.122416 535.327412 
L 55.305038 532.653453 
L 55.332068 532.14376 
L 55.46356 529.712952 
L 55.54172 527.634548 
L 55.577781 526.772451 
L 55.660882 523.83195 
L 55.706021 520.891449 
L 55.719972 517.950948 
L 55.704829 515.010448 
L 55.661063 512.069947 
L 55.590721 509.129446 
L 55.54172 507.44252 
L 55.503766 506.188945 
L 55.413288 503.248444 
L 55.332068 500.421361 
L 55.328574 500.307943 
L 55.260611 497.367442 
L 55.211253 494.426942 
L 55.176493 491.486441 
L 55.148683 488.54594 
L 55.122416 485.956585 
L 55.118453 485.605439 
L 55.072746 482.664938 
L 55.001142 479.724437 
L 54.912764 477.394468 
L 54.877746 476.783936 
L 54.703112 474.705767 
L 54.493461 473.843436 
L 54.283809 474.284099 
L 54.074157 475.829105 
L 53.996475 476.783936 
L 53.864505 478.720974 
L 53.813923 479.724437 
L 53.696501 482.664938 
L 53.654853 484.010333 
L 53.613162 485.605439 
L 53.554642 488.54594 
L 53.509075 491.486441 
L 53.470338 494.426942 
L 53.445201 496.340036 
L 53.432825 497.367442 
L 53.390995 500.307943 
L 53.337974 503.248444 
L 53.271348 506.188945 
L 53.235549 507.442843 
L 53.190195 509.129446 
L 53.098731 512.069947 
L 53.025898 514.307347 
L 53.003134 515.010448 
L 52.903202 517.950948 
L 52.816246 520.867713 
L 52.815492 520.891449 
L 52.728513 523.83195 
L 52.663853 526.772451 
L 52.622568 529.712952 
L 52.607836 532.653453 
L 52.628136 535.593953 
L 52.702401 538.534454 
L 52.816246 540.691559 
L 52.871947 541.474955 
L 53.025898 542.973457 
L 53.235549 544.103249 
L 53.366471 544.415456 
z
M 53.206043 541.474955 
L 53.025898 539.912004 
L 52.927877 538.534454 
L 52.81687 535.593953 
L 52.816246 535.549927 
L 52.777049 532.653453 
L 52.785602 529.712952 
L 52.816246 527.722727 
L 52.829066 526.772451 
L 52.894318 523.83195 
L 52.983341 520.891449 
L 53.025898 519.675267 
L 53.086279 517.950948 
L 53.199285 515.010448 
L 53.235549 514.049905 
L 53.31676 512.069947 
L 53.433234 509.129446 
L 53.445201 508.769855 
L 53.545644 506.188945 
L 53.643606 503.248444 
L 53.654853 502.799767 
L 53.735079 500.307943 
L 53.807547 497.367442 
L 53.864505 494.426942 
L 53.864505 494.426942 
L 53.939404 491.486441 
L 54.018919 488.54594 
L 54.074157 486.875231 
L 54.161962 485.605439 
L 54.283809 484.172939 
L 54.493461 484.649782 
L 54.54491 485.605439 
L 54.648929 488.54594 
L 54.703112 490.540519 
L 54.718613 491.486441 
L 54.773596 494.426942 
L 54.851521 497.367442 
L 54.912764 498.921428 
L 54.955011 500.307943 
L 55.075305 503.248444 
L 55.122416 504.19052 
L 55.203951 506.188945 
L 55.323472 509.129446 
L 55.332068 509.3575 
L 55.421372 512.069947 
L 55.487345 515.010448 
L 55.51831 517.950948 
L 55.514793 520.891449 
L 55.476718 523.83195 
L 55.399833 526.772451 
L 55.332068 528.41482 
L 55.2818 529.712952 
L 55.122416 532.573922 
L 55.117866 532.653453 
L 54.912764 535.464146 
L 54.902066 535.593953 
L 54.703112 537.71301 
L 54.606775 538.534454 
L 54.493461 539.479887 
L 54.283809 540.813882 
L 54.136781 541.474955 
L 54.074157 541.78794 
L 53.864505 542.446077 
L 53.654853 542.689217 
L 53.445201 542.477853 
L 53.235549 541.673377 
z
" clip-path="url(#p933604869c)" style="fill: #9ccd9c; fill-opacity: 0.5"/>
    <path d="M 53.235549 541.673377 
L 53.445201 542.477853 
L 53.654853 542.689217 
L 53.864505 542.446077 
L 54.074157 541.78794 
L 54.136781 541.474955 
L 54.283809 540.813882 
L 54.493461 539.479887 
L 54.606775 538.534454 
L 54.703112 537.71301 
L 54.902066 535.593953 
L 54.912764 535.464146 
L 55.117866 532.653453 
L 55.122416 532.573922 
L 55.2818 529.712952 
L 55.332068 528.41482 
L 55.399833 526.772451 
L 55.476718 523.83195 
L 55.514793 520.891449 
L 55.51831 517.950948 
L 55.487345 515.010448 
L 55.421372 512.069947 
L 55.332068 509.3575 
L 55.323472 509.129446 
L 55.203951 506.188945 
L 55.122416 504.19052 
L 55.075305 503.248444 
L 54.955011 500.307943 
L 54.912764 498.921428 
L 54.851521 497.367442 
L 54.773596 494.426942 
L 54.718613 491.486441 
L 54.703112 490.540519 
L 54.648929 488.54594 
L 54.54491 485.605439 
L 54.493461 484.649782 
L 54.283809 484.172939 
L 54.161962 485.605439 
L 54.074157 486.875231 
L 54.018919 488.54594 
L 53.939404 491.486441 
L 53.864505 494.426942 
L 53.864505 494.426942 
L 53.807547 497.367442 
L 53.735079 500.307943 
L 53.654853 502.799767 
L 53.643606 503.248444 
L 53.545644 506.188945 
L 53.445201 508.769855 
L 53.433234 509.129446 
L 53.31676 512.069947 
L 53.235549 514.049905 
L 53.199285 515.010448 
L 53.086279 517.950948 
L 53.025898 519.675267 
L 52.983341 520.891449 
L 52.894318 523.83195 
L 52.829066 526.772451 
L 52.816246 527.722727 
L 52.785602 529.712952 
L 52.777049 532.653453 
L 52.816246 535.549927 
L 52.81687 535.593953 
L 52.927877 538.534454 
L 53.025898 539.912004 
L 53.206043 541.474955 
z
M 53.181264 538.534454 
L 53.025898 536.026489 
L 53.00661 535.593953 
L 52.944718 532.653453 
L 52.942365 529.712952 
L 52.981936 526.772451 
L 53.025898 524.991901 
L 53.053372 523.83195 
L 53.147419 520.891449 
L 53.235549 518.638766 
L 53.264445 517.950948 
L 53.39628 515.010448 
L 53.445201 513.9238 
L 53.544292 512.069947 
L 53.654853 509.882217 
L 53.705425 509.129446 
L 53.864505 506.400466 
L 53.88406 506.188945 
L 54.074157 503.615986 
L 54.139951 503.248444 
L 54.283809 502.159602 
L 54.493461 502.548565 
L 54.561955 503.248444 
L 54.703112 504.288441 
L 54.842623 506.188945 
L 54.912764 507.006954 
L 55.035745 509.129446 
L 55.122416 510.715191 
L 55.179927 512.069947 
L 55.27614 515.010448 
L 55.327757 517.950948 
L 55.332068 519.315018 
L 55.336991 520.891449 
L 55.332068 521.29906 
L 55.3053 523.83195 
L 55.232777 526.772451 
L 55.122416 529.442486 
L 55.111387 529.712952 
L 54.94172 532.653453 
L 54.912764 533.050254 
L 54.703112 535.593953 
L 54.703112 535.593953 
L 54.493461 537.520075 
L 54.345242 538.534454 
L 54.283809 538.953874 
L 54.074157 539.976549 
L 53.864505 540.558454 
L 53.654853 540.695078 
L 53.445201 540.282316 
L 53.235549 539.070515 
z
" clip-path="url(#p933604869c)" style="fill: #87c287; fill-opacity: 0.5"/>
    <path d="M 53.235549 539.070515 
L 53.445201 540.282316 
L 53.654853 540.695078 
L 53.864505 540.558454 
L 54.074157 539.976549 
L 54.283809 538.953874 
L 54.345242 538.534454 
L 54.493461 537.520075 
L 54.703112 535.593953 
L 54.703112 535.593953 
L 54.912764 533.050254 
L 54.94172 532.653453 
L 55.111387 529.712952 
L 55.122416 529.442486 
L 55.232777 526.772451 
L 55.3053 523.83195 
L 55.332068 521.29906 
L 55.336991 520.891449 
L 55.332068 519.315018 
L 55.327757 517.950948 
L 55.27614 515.010448 
L 55.179927 512.069947 
L 55.122416 510.715191 
L 55.035745 509.129446 
L 54.912764 507.006954 
L 54.842623 506.188945 
L 54.703112 504.288441 
L 54.561955 503.248444 
L 54.493461 502.548565 
L 54.283809 502.159602 
L 54.139951 503.248444 
L 54.074157 503.615986 
L 53.88406 506.188945 
L 53.864505 506.400466 
L 53.705425 509.129446 
L 53.654853 509.882217 
L 53.544292 512.069947 
L 53.445201 513.9238 
L 53.39628 515.010448 
L 53.264445 517.950948 
L 53.235549 518.638766 
L 53.147419 520.891449 
L 53.053372 523.83195 
L 53.025898 524.991901 
L 52.981936 526.772451 
L 52.942365 529.712952 
L 52.944718 532.653453 
L 53.00661 535.593953 
L 53.025898 536.026489 
L 53.181264 538.534454 
z
M 53.365339 535.593953 
L 53.235549 533.018318 
L 53.223007 532.653453 
L 53.195275 529.712952 
L 53.226402 526.772451 
L 53.235549 526.408283 
L 53.302016 523.83195 
L 53.412308 520.891449 
L 53.445201 520.15791 
L 53.560647 517.950948 
L 53.654853 516.301239 
L 53.751975 515.010448 
L 53.864505 513.482853 
L 54.027987 512.069947 
L 54.074157 511.620433 
L 54.283809 510.68063 
L 54.493461 510.842043 
L 54.685625 512.069947 
L 54.703112 512.183519 
L 54.912764 515.010448 
L 54.912764 515.010448 
L 55.018061 517.950948 
L 55.059105 520.891449 
L 55.043289 523.83195 
L 54.974336 526.772451 
L 54.912764 528.231284 
L 54.84719 529.712952 
L 54.703112 531.94922 
L 54.65031 532.653453 
L 54.493461 534.317691 
L 54.336175 535.593953 
L 54.283809 535.978059 
L 54.074157 537.022732 
L 53.864505 537.527835 
L 53.654853 537.40659 
L 53.445201 536.396096 
z
" clip-path="url(#p933604869c)" style="fill: #69b369; fill-opacity: 0.5"/>
    <path d="M 53.445201 536.396096 
L 53.654853 537.40659 
L 53.864505 537.527835 
L 54.074157 537.022732 
L 54.283809 535.978059 
L 54.336175 535.593953 
L 54.493461 534.317691 
L 54.65031 532.653453 
L 54.703112 531.94922 
L 54.84719 529.712952 
L 54.912764 528.231284 
L 54.974336 526.772451 
L 55.043289 523.83195 
L 55.059105 520.891449 
L 55.018061 517.950948 
L 54.912764 515.010448 
L 54.912764 515.010448 
L 54.703112 512.183519 
L 54.685625 512.069947 
L 54.493461 510.842043 
L 54.283809 510.68063 
L 54.074157 511.620433 
L 54.027987 512.069947 
L 53.864505 513.482853 
L 53.751975 515.010448 
L 53.654853 516.301239 
L 53.560647 517.950948 
L 53.445201 520.15791 
L 53.412308 520.891449 
L 53.302016 523.83195 
L 53.235549 526.408283 
L 53.226402 526.772451 
L 53.195275 529.712952 
L 53.223007 532.653453 
L 53.235549 533.018318 
L 53.365339 535.593953 
z
M 53.649026 532.653453 
L 53.526035 529.712952 
L 53.53336 526.772451 
L 53.613026 523.83195 
L 53.654853 522.884304 
L 53.767799 520.891449 
L 53.864505 519.508352 
L 54.034642 517.950948 
L 54.074157 517.60902 
L 54.283809 516.930834 
L 54.493461 517.547094 
L 54.533919 517.950948 
L 54.703112 520.891449 
L 54.703112 520.891449 
L 54.723605 523.83195 
L 54.703112 524.846807 
L 54.659332 526.772451 
L 54.513293 529.712952 
L 54.493461 529.977805 
L 54.283809 532.125181 
L 54.201865 532.653453 
L 54.074157 533.306822 
L 53.864505 533.567653 
L 53.654853 532.71302 
z
" clip-path="url(#p933604869c)" style="fill: #3f9f3f; fill-opacity: 0.5"/>
    <path d="M 53.654853 532.71302 
L 53.864505 533.567653 
L 54.074157 533.306822 
L 54.201865 532.653453 
L 54.283809 532.125181 
L 54.493461 529.977805 
L 54.513293 529.712952 
L 54.659332 526.772451 
L 54.703112 524.846807 
L 54.723605 523.83195 
L 54.703112 520.891449 
L 54.703112 520.891449 
L 54.533919 517.950948 
L 54.493461 517.547094 
L 54.283809 516.930834 
L 54.074157 517.60902 
L 54.034642 517.950948 
L 53.864505 519.508352 
L 53.767799 520.891449 
L 53.654853 522.884304 
L 53.613026 523.83195 
L 53.53336 526.772451 
L 53.526035 529.712952 
L 53.649026 532.653453 
z
" clip-path="url(#p933604869c)" style="fill: #148a14; fill-opacity: 0.5"/>
   </g>
   <g id="matplotlib.axis_1">
    <g id="xtick_1">
     <g id="line2d_1">
      <defs>
       <path id="m94f1b7d159" d="M 0 0 
L 0 3.5 
" style="stroke: #000000; stroke-width: 0.8"/>
      </defs>
      <g>
       <use xlink:href="#m94f1b7d159" x="165.105886" y="534.04" style="stroke: #000000; stroke-width: 0.8"/>
      </g>
     </g>
     <g id="text_1">
      <!-- 50 -->
      <g transform="translate(158.743386 548.638438) scale(0.1 -0.1)">
       <defs>
        <path id="DejaVuSans-35" d="M 691 4666 
L 3169 4666 
L 3169 4134 
L 1269 4134 
L 1269 2991 
Q 1406 3038 1543 3061 
Q 1681 3084 1819 3084 
Q 2600 3084 3056 2656 
Q 3513 2228 3513 1497 
Q 3513 744 3044 326 
Q 2575 -91 1722 -91 
Q 1428 -91 1123 -41 
Q 819 9 494 109 
L 494 744 
Q 775 591 1075 516 
Q 1375 441 1709 441 
Q 2250 441 2565 725 
Q 2881 1009 2881 1497 
Q 2881 1984 2565 2268 
Q 2250 2553 1709 2553 
Q 1456 2553 1204 2497 
Q 953 2441 691 2322 
L 691 4666 
z
" transform="scale(0.015625)"/>
        <path id="DejaVuSans-30" d="M 2034 4250 
Q 1547 4250 1301 3770 
Q 1056 3291 1056 2328 
Q 1056 1369 1301 889 
Q 1547 409 2034 409 
Q 2525 409 2770 889 
Q 3016 1369 3016 2328 
Q 3016 3291 2770 3770 
Q 2525 4250 2034 4250 
z
M 2034 4750 
Q 2819 4750 3233 4129 
Q 3647 3509 3647 2328 
Q 3647 1150 3233 529 
Q 2819 -91 2034 -91 
Q 1250 -91 836 529 
Q 422 1150 422 2328 
Q 422 3509 836 4129 
Q 1250 4750 2034 4750 
z
" transform="scale(0.015625)"/>
       </defs>
       <use xlink:href="#DejaVuSans-35"/>
       <use xlink:href="#DejaVuSans-30" x="63.623047"/>
      </g>
     </g>
    </g>
    <g id="xtick_2">
     <g id="line2d_2">
      <g>
       <use xlink:href="#m94f1b7d159" x="279.162091" y="534.04" style="stroke: #000000; stroke-width: 0.8"/>
      </g>
     </g>
     <g id="text_2">
      <!-- 100 -->
      <g transform="translate(269.618341 548.638438) scale(0.1 -0.1)">
       <defs>
        <path id="DejaVuSans-31" d="M 794 531 
L 1825 531 
L 1825 4091 
L 703 3866 
L 703 4441 
L 1819 4666 
L 2450 4666 
L 2450 531 
L 3481 531 
L 3481 0 
L 794 0 
L 794 531 
z
" transform="scale(0.015625)"/>
       </defs>
       <use xlink:href="#DejaVuSans-31"/>
       <use xlink:href="#DejaVuSans-30" x="63.623047"/>
       <use xlink:href="#DejaVuSans-30" x="127.246094"/>
      </g>
     </g>
    </g>
    <g id="xtick_3">
     <g id="line2d_3">
      <g>
       <use xlink:href="#m94f1b7d159" x="393.218296" y="534.04" style="stroke: #000000; stroke-width: 0.8"/>
      </g>
     </g>
     <g id="text_3">
      <!-- 150 -->
      <g transform="translate(383.674546 548.638438) scale(0.1 -0.1)">
       <use xlink:href="#DejaVuSans-31"/>
       <use xlink:href="#DejaVuSans-35" x="63.623047"/>
       <use xlink:href="#DejaVuSans-30" x="127.246094"/>
      </g>
     </g>
    </g>
    <g id="xtick_4">
     <g id="line2d_4">
      <g>
       <use xlink:href="#m94f1b7d159" x="507.274501" y="534.04" style="stroke: #000000; stroke-width: 0.8"/>
      </g>
     </g>
     <g id="text_4">
      <!-- 200 -->
      <g transform="translate(497.730751 548.638438) scale(0.1 -0.1)">
       <defs>
        <path id="DejaVuSans-32" d="M 1228 531 
L 3431 531 
L 3431 0 
L 469 0 
L 469 531 
Q 828 903 1448 1529 
Q 2069 2156 2228 2338 
Q 2531 2678 2651 2914 
Q 2772 3150 2772 3378 
Q 2772 3750 2511 3984 
Q 2250 4219 1831 4219 
Q 1534 4219 1204 4116 
Q 875 4013 500 3803 
L 500 4441 
Q 881 4594 1212 4672 
Q 1544 4750 1819 4750 
Q 2544 4750 2975 4387 
Q 3406 4025 3406 3419 
Q 3406 3131 3298 2873 
Q 3191 2616 2906 2266 
Q 2828 2175 2409 1742 
Q 1991 1309 1228 531 
z
" transform="scale(0.015625)"/>
       </defs>
       <use xlink:href="#DejaVuSans-32"/>
       <use xlink:href="#DejaVuSans-30" x="63.623047"/>
       <use xlink:href="#DejaVuSans-30" x="127.246094"/>
      </g>
     </g>
    </g>
    <g id="xtick_5">
     <g id="line2d_5">
      <g>
       <use xlink:href="#m94f1b7d159" x="621.330707" y="534.04" style="stroke: #000000; stroke-width: 0.8"/>
      </g>
     </g>
     <g id="text_5">
      <!-- 250 -->
      <g transform="translate(611.786957 548.638438) scale(0.1 -0.1)">
       <use xlink:href="#DejaVuSans-32"/>
       <use xlink:href="#DejaVuSans-35" x="63.623047"/>
       <use xlink:href="#DejaVuSans-30" x="127.246094"/>
      </g>
     </g>
    </g>
    <g id="text_6">
     <!-- Force Uncertainties -->
     <g transform="translate(331.691406 562.316562) scale(0.1 -0.1)">
      <defs>
       <path id="DejaVuSans-46" d="M 628 4666 
L 3309 4666 
L 3309 4134 
L 1259 4134 
L 1259 2759 
L 3109 2759 
L 3109 2228 
L 1259 2228 
L 1259 0 
L 628 0 
L 628 4666 
z
" transform="scale(0.015625)"/>
       <path id="DejaVuSans-6f" d="M 1959 3097 
Q 1497 3097 1228 2736 
Q 959 2375 959 1747 
Q 959 1119 1226 758 
Q 1494 397 1959 397 
Q 2419 397 2687 759 
Q 2956 1122 2956 1747 
Q 2956 2369 2687 2733 
Q 2419 3097 1959 3097 
z
M 1959 3584 
Q 2709 3584 3137 3096 
Q 3566 2609 3566 1747 
Q 3566 888 3137 398 
Q 2709 -91 1959 -91 
Q 1206 -91 779 398 
Q 353 888 353 1747 
Q 353 2609 779 3096 
Q 1206 3584 1959 3584 
z
" transform="scale(0.015625)"/>
       <path id="DejaVuSans-72" d="M 2631 2963 
Q 2534 3019 2420 3045 
Q 2306 3072 2169 3072 
Q 1681 3072 1420 2755 
Q 1159 2438 1159 1844 
L 1159 0 
L 581 0 
L 581 3500 
L 1159 3500 
L 1159 2956 
Q 1341 3275 1631 3429 
Q 1922 3584 2338 3584 
Q 2397 3584 2469 3576 
Q 2541 3569 2628 3553 
L 2631 2963 
z
" transform="scale(0.015625)"/>
       <path id="DejaVuSans-63" d="M 3122 3366 
L 3122 2828 
Q 2878 2963 2633 3030 
Q 2388 3097 2138 3097 
Q 1578 3097 1268 2742 
Q 959 2388 959 1747 
Q 959 1106 1268 751 
Q 1578 397 2138 397 
Q 2388 397 2633 464 
Q 2878 531 3122 666 
L 3122 134 
Q 2881 22 2623 -34 
Q 2366 -91 2075 -91 
Q 1284 -91 818 406 
Q 353 903 353 1747 
Q 353 2603 823 3093 
Q 1294 3584 2113 3584 
Q 2378 3584 2631 3529 
Q 2884 3475 3122 3366 
z
" transform="scale(0.015625)"/>
       <path id="DejaVuSans-65" d="M 3597 1894 
L 3597 1613 
L 953 1613 
Q 991 1019 1311 708 
Q 1631 397 2203 397 
Q 2534 397 2845 478 
Q 3156 559 3463 722 
L 3463 178 
Q 3153 47 2828 -22 
Q 2503 -91 2169 -91 
Q 1331 -91 842 396 
Q 353 884 353 1716 
Q 353 2575 817 3079 
Q 1281 3584 2069 3584 
Q 2775 3584 3186 3129 
Q 3597 2675 3597 1894 
z
M 3022 2063 
Q 3016 2534 2758 2815 
Q 2500 3097 2075 3097 
Q 1594 3097 1305 2825 
Q 1016 2553 972 2059 
L 3022 2063 
z
" transform="scale(0.015625)"/>
       <path id="DejaVuSans-20" transform="scale(0.015625)"/>
       <path id="DejaVuSans-55" d="M 556 4666 
L 1191 4666 
L 1191 1831 
Q 1191 1081 1462 751 
Q 1734 422 2344 422 
Q 2950 422 3222 751 
Q 3494 1081 3494 1831 
L 3494 4666 
L 4128 4666 
L 4128 1753 
Q 4128 841 3676 375 
Q 3225 -91 2344 -91 
Q 1459 -91 1007 375 
Q 556 841 556 1753 
L 556 4666 
z
" transform="scale(0.015625)"/>
       <path id="DejaVuSans-6e" d="M 3513 2113 
L 3513 0 
L 2938 0 
L 2938 2094 
Q 2938 2591 2744 2837 
Q 2550 3084 2163 3084 
Q 1697 3084 1428 2787 
Q 1159 2491 1159 1978 
L 1159 0 
L 581 0 
L 581 3500 
L 1159 3500 
L 1159 2956 
Q 1366 3272 1645 3428 
Q 1925 3584 2291 3584 
Q 2894 3584 3203 3211 
Q 3513 2838 3513 2113 
z
" transform="scale(0.015625)"/>
       <path id="DejaVuSans-74" d="M 1172 4494 
L 1172 3500 
L 2356 3500 
L 2356 3053 
L 1172 3053 
L 1172 1153 
Q 1172 725 1289 603 
Q 1406 481 1766 481 
L 2356 481 
L 2356 0 
L 1766 0 
Q 1100 0 847 248 
Q 594 497 594 1153 
L 594 3053 
L 172 3053 
L 172 3500 
L 594 3500 
L 594 4494 
L 1172 4494 
z
" transform="scale(0.015625)"/>
       <path id="DejaVuSans-61" d="M 2194 1759 
Q 1497 1759 1228 1600 
Q 959 1441 959 1056 
Q 959 750 1161 570 
Q 1363 391 1709 391 
Q 2188 391 2477 730 
Q 2766 1069 2766 1631 
L 2766 1759 
L 2194 1759 
z
M 3341 1997 
L 3341 0 
L 2766 0 
L 2766 531 
Q 2569 213 2275 61 
Q 1981 -91 1556 -91 
Q 1019 -91 701 211 
Q 384 513 384 1019 
Q 384 1609 779 1909 
Q 1175 2209 1959 2209 
L 2766 2209 
L 2766 2266 
Q 2766 2663 2505 2880 
Q 2244 3097 1772 3097 
Q 1472 3097 1187 3025 
Q 903 2953 641 2809 
L 641 3341 
Q 956 3463 1253 3523 
Q 1550 3584 1831 3584 
Q 2591 3584 2966 3190 
Q 3341 2797 3341 1997 
z
" transform="scale(0.015625)"/>
       <path id="DejaVuSans-69" d="M 603 3500 
L 1178 3500 
L 1178 0 
L 603 0 
L 603 3500 
z
M 603 4863 
L 1178 4863 
L 1178 4134 
L 603 4134 
L 603 4863 
z
" transform="scale(0.015625)"/>
       <path id="DejaVuSans-73" d="M 2834 3397 
L 2834 2853 
Q 2591 2978 2328 3040 
Q 2066 3103 1784 3103 
Q 1356 3103 1142 2972 
Q 928 2841 928 2578 
Q 928 2378 1081 2264 
Q 1234 2150 1697 2047 
L 1894 2003 
Q 2506 1872 2764 1633 
Q 3022 1394 3022 966 
Q 3022 478 2636 193 
Q 2250 -91 1575 -91 
Q 1294 -91 989 -36 
Q 684 19 347 128 
L 347 722 
Q 666 556 975 473 
Q 1284 391 1588 391 
Q 1994 391 2212 530 
Q 2431 669 2431 922 
Q 2431 1156 2273 1281 
Q 2116 1406 1581 1522 
L 1381 1569 
Q 847 1681 609 1914 
Q 372 2147 372 2553 
Q 372 3047 722 3315 
Q 1072 3584 1716 3584 
Q 2034 3584 2315 3537 
Q 2597 3491 2834 3397 
z
" transform="scale(0.015625)"/>
      </defs>
      <use xlink:href="#DejaVuSans-46"/>
      <use xlink:href="#DejaVuSans-6f" x="53.894531"/>
      <use xlink:href="#DejaVuSans-72" x="115.076172"/>
      <use xlink:href="#DejaVuSans-63" x="153.939453"/>
      <use xlink:href="#DejaVuSans-65" x="208.919922"/>
      <use xlink:href="#DejaVuSans-20" x="270.443359"/>
      <use xlink:href="#DejaVuSans-55" x="302.230469"/>
      <use xlink:href="#DejaVuSans-6e" x="375.423828"/>
      <use xlink:href="#DejaVuSans-63" x="438.802734"/>
      <use xlink:href="#DejaVuSans-65" x="493.783203"/>
      <use xlink:href="#DejaVuSans-72" x="555.306641"/>
      <use xlink:href="#DejaVuSans-74" x="596.419922"/>
      <use xlink:href="#DejaVuSans-61" x="635.628906"/>
      <use xlink:href="#DejaVuSans-69" x="696.908203"/>
      <use xlink:href="#DejaVuSans-6e" x="724.691406"/>
      <use xlink:href="#DejaVuSans-74" x="788.070312"/>
      <use xlink:href="#DejaVuSans-69" x="827.279297"/>
      <use xlink:href="#DejaVuSans-65" x="855.0625"/>
      <use xlink:href="#DejaVuSans-73" x="916.585938"/>
     </g>
    </g>
   </g>
   <g id="matplotlib.axis_2">
    <g id="ytick_1">
     <g id="line2d_6">
      <defs>
       <path id="mf974122774" d="M 0 0 
L -3.5 0 
" style="stroke: #000000; stroke-width: 0.8"/>
      </defs>
      <g>
       <use xlink:href="#mf974122774" x="51.05" y="443.363708" style="stroke: #000000; stroke-width: 0.8"/>
      </g>
     </g>
     <g id="text_7">
      <!-- 50 -->
      <g transform="translate(31.325 447.162927) scale(0.1 -0.1)">
       <use xlink:href="#DejaVuSans-35"/>
       <use xlink:href="#DejaVuSans-30" x="63.623047"/>
      </g>
     </g>
    </g>
    <g id="ytick_2">
     <g id="line2d_7">
      <g>
       <use xlink:href="#mf974122774" x="51.05" y="352.687162" style="stroke: #000000; stroke-width: 0.8"/>
      </g>
     </g>
     <g id="text_8">
      <!-- 100 -->
      <g transform="translate(24.9625 356.486381) scale(0.1 -0.1)">
       <use xlink:href="#DejaVuSans-31"/>
       <use xlink:href="#DejaVuSans-30" x="63.623047"/>
       <use xlink:href="#DejaVuSans-30" x="127.246094"/>
      </g>
     </g>
    </g>
    <g id="ytick_3">
     <g id="line2d_8">
      <g>
       <use xlink:href="#mf974122774" x="51.05" y="262.010616" style="stroke: #000000; stroke-width: 0.8"/>
      </g>
     </g>
     <g id="text_9">
      <!-- 150 -->
      <g transform="translate(24.9625 265.809834) scale(0.1 -0.1)">
       <use xlink:href="#DejaVuSans-31"/>
       <use xlink:href="#DejaVuSans-35" x="63.623047"/>
       <use xlink:href="#DejaVuSans-30" x="127.246094"/>
      </g>
     </g>
    </g>
    <g id="ytick_4">
     <g id="line2d_9">
      <g>
       <use xlink:href="#mf974122774" x="51.05" y="171.33407" style="stroke: #000000; stroke-width: 0.8"/>
      </g>
     </g>
     <g id="text_10">
      <!-- 200 -->
      <g transform="translate(24.9625 175.133288) scale(0.1 -0.1)">
       <use xlink:href="#DejaVuSans-32"/>
       <use xlink:href="#DejaVuSans-30" x="63.623047"/>
       <use xlink:href="#DejaVuSans-30" x="127.246094"/>
      </g>
     </g>
    </g>
    <g id="ytick_5">
     <g id="line2d_10">
      <g>
       <use xlink:href="#mf974122774" x="51.05" y="80.657523" style="stroke: #000000; stroke-width: 0.8"/>
      </g>
     </g>
     <g id="text_11">
      <!-- 250 -->
      <g transform="translate(24.9625 84.456742) scale(0.1 -0.1)">
       <use xlink:href="#DejaVuSans-32"/>
       <use xlink:href="#DejaVuSans-35" x="63.623047"/>
       <use xlink:href="#DejaVuSans-30" x="127.246094"/>
      </g>
     </g>
    </g>
    <g id="text_12">
     <!-- Energy Errors[kJ/mol] -->
     <g transform="translate(18.882812 325.580156) rotate(-90) scale(0.1 -0.1)">
      <defs>
       <path id="DejaVuSans-45" d="M 628 4666 
L 3578 4666 
L 3578 4134 
L 1259 4134 
L 1259 2753 
L 3481 2753 
L 3481 2222 
L 1259 2222 
L 1259 531 
L 3634 531 
L 3634 0 
L 628 0 
L 628 4666 
z
" transform="scale(0.015625)"/>
       <path id="DejaVuSans-67" d="M 2906 1791 
Q 2906 2416 2648 2759 
Q 2391 3103 1925 3103 
Q 1463 3103 1205 2759 
Q 947 2416 947 1791 
Q 947 1169 1205 825 
Q 1463 481 1925 481 
Q 2391 481 2648 825 
Q 2906 1169 2906 1791 
z
M 3481 434 
Q 3481 -459 3084 -895 
Q 2688 -1331 1869 -1331 
Q 1566 -1331 1297 -1286 
Q 1028 -1241 775 -1147 
L 775 -588 
Q 1028 -725 1275 -790 
Q 1522 -856 1778 -856 
Q 2344 -856 2625 -561 
Q 2906 -266 2906 331 
L 2906 616 
Q 2728 306 2450 153 
Q 2172 0 1784 0 
Q 1141 0 747 490 
Q 353 981 353 1791 
Q 353 2603 747 3093 
Q 1141 3584 1784 3584 
Q 2172 3584 2450 3431 
Q 2728 3278 2906 2969 
L 2906 3500 
L 3481 3500 
L 3481 434 
z
" transform="scale(0.015625)"/>
       <path id="DejaVuSans-79" d="M 2059 -325 
Q 1816 -950 1584 -1140 
Q 1353 -1331 966 -1331 
L 506 -1331 
L 506 -850 
L 844 -850 
Q 1081 -850 1212 -737 
Q 1344 -625 1503 -206 
L 1606 56 
L 191 3500 
L 800 3500 
L 1894 763 
L 2988 3500 
L 3597 3500 
L 2059 -325 
z
" transform="scale(0.015625)"/>
       <path id="DejaVuSans-5b" d="M 550 4863 
L 1875 4863 
L 1875 4416 
L 1125 4416 
L 1125 -397 
L 1875 -397 
L 1875 -844 
L 550 -844 
L 550 4863 
z
" transform="scale(0.015625)"/>
       <path id="DejaVuSans-6b" d="M 581 4863 
L 1159 4863 
L 1159 1991 
L 2875 3500 
L 3609 3500 
L 1753 1863 
L 3688 0 
L 2938 0 
L 1159 1709 
L 1159 0 
L 581 0 
L 581 4863 
z
" transform="scale(0.015625)"/>
       <path id="DejaVuSans-4a" d="M 628 4666 
L 1259 4666 
L 1259 325 
Q 1259 -519 939 -900 
Q 619 -1281 -91 -1281 
L -331 -1281 
L -331 -750 
L -134 -750 
Q 284 -750 456 -515 
Q 628 -281 628 325 
L 628 4666 
z
" transform="scale(0.015625)"/>
       <path id="DejaVuSans-2f" d="M 1625 4666 
L 2156 4666 
L 531 -594 
L 0 -594 
L 1625 4666 
z
" transform="scale(0.015625)"/>
       <path id="DejaVuSans-6d" d="M 3328 2828 
Q 3544 3216 3844 3400 
Q 4144 3584 4550 3584 
Q 5097 3584 5394 3201 
Q 5691 2819 5691 2113 
L 5691 0 
L 5113 0 
L 5113 2094 
Q 5113 2597 4934 2840 
Q 4756 3084 4391 3084 
Q 3944 3084 3684 2787 
Q 3425 2491 3425 1978 
L 3425 0 
L 2847 0 
L 2847 2094 
Q 2847 2600 2669 2842 
Q 2491 3084 2119 3084 
Q 1678 3084 1418 2786 
Q 1159 2488 1159 1978 
L 1159 0 
L 581 0 
L 581 3500 
L 1159 3500 
L 1159 2956 
Q 1356 3278 1631 3431 
Q 1906 3584 2284 3584 
Q 2666 3584 2933 3390 
Q 3200 3197 3328 2828 
z
" transform="scale(0.015625)"/>
       <path id="DejaVuSans-6c" d="M 603 4863 
L 1178 4863 
L 1178 0 
L 603 0 
L 603 4863 
z
" transform="scale(0.015625)"/>
       <path id="DejaVuSans-5d" d="M 1947 4863 
L 1947 -844 
L 622 -844 
L 622 -397 
L 1369 -397 
L 1369 4416 
L 622 4416 
L 622 4863 
L 1947 4863 
z
" transform="scale(0.015625)"/>
      </defs>
      <use xlink:href="#DejaVuSans-45"/>
      <use xlink:href="#DejaVuSans-6e" x="63.183594"/>
      <use xlink:href="#DejaVuSans-65" x="126.5625"/>
      <use xlink:href="#DejaVuSans-72" x="188.085938"/>
      <use xlink:href="#DejaVuSans-67" x="227.449219"/>
      <use xlink:href="#DejaVuSans-79" x="290.925781"/>
      <use xlink:href="#DejaVuSans-20" x="350.105469"/>
      <use xlink:href="#DejaVuSans-45" x="381.892578"/>
      <use xlink:href="#DejaVuSans-72" x="445.076172"/>
      <use xlink:href="#DejaVuSans-72" x="484.439453"/>
      <use xlink:href="#DejaVuSans-6f" x="523.302734"/>
      <use xlink:href="#DejaVuSans-72" x="584.484375"/>
      <use xlink:href="#DejaVuSans-73" x="625.597656"/>
      <use xlink:href="#DejaVuSans-5b" x="677.697266"/>
      <use xlink:href="#DejaVuSans-6b" x="716.710938"/>
      <use xlink:href="#DejaVuSans-4a" x="774.621094"/>
      <use xlink:href="#DejaVuSans-2f" x="804.113281"/>
      <use xlink:href="#DejaVuSans-6d" x="837.804688"/>
      <use xlink:href="#DejaVuSans-6f" x="935.216797"/>
      <use xlink:href="#DejaVuSans-6c" x="996.398438"/>
      <use xlink:href="#DejaVuSans-5d" x="1024.181641"/>
     </g>
    </g>
   </g>
   <g id="line2d_11">
    <path d="M 51.05 534.04 
L 709.2 10.8 
" clip-path="url(#p933604869c)" style="fill: none; stroke-dasharray: 5.55,2.4; stroke-dashoffset: 0; stroke: #ff0000; stroke-width: 1.5"/>
   </g>
   <g id="patch_3">
    <path d="M 51.05 534.04 
L 51.05 10.8 
" style="fill: none; stroke: #000000; stroke-width: 0.8; stroke-linejoin: miter; stroke-linecap: square"/>
   </g>
   <g id="patch_4">
    <path d="M 709.2 534.04 
L 709.2 10.8 
" style="fill: none; stroke: #000000; stroke-width: 0.8; stroke-linejoin: miter; stroke-linecap: square"/>
   </g>
   <g id="patch_5">
    <path d="M 51.05 534.04 
L 709.2 534.04 
" style="fill: none; stroke: #000000; stroke-width: 0.8; stroke-linejoin: miter; stroke-linecap: square"/>
   </g>
   <g id="patch_6">
    <path d="M 51.05 10.8 
L 709.2 10.8 
" style="fill: none; stroke: #000000; stroke-width: 0.8; stroke-linejoin: miter; stroke-linecap: square"/>
   </g>
   <g id="text_13">
    <!-- Correlation in: 0.26050464470460594 -->
    <g transform="translate(116.865 51.926187) scale(0.1 -0.1)">
     <defs>
      <path id="DejaVuSans-43" d="M 4122 4306 
L 4122 3641 
Q 3803 3938 3442 4084 
Q 3081 4231 2675 4231 
Q 1875 4231 1450 3742 
Q 1025 3253 1025 2328 
Q 1025 1406 1450 917 
Q 1875 428 2675 428 
Q 3081 428 3442 575 
Q 3803 722 4122 1019 
L 4122 359 
Q 3791 134 3420 21 
Q 3050 -91 2638 -91 
Q 1578 -91 968 557 
Q 359 1206 359 2328 
Q 359 3453 968 4101 
Q 1578 4750 2638 4750 
Q 3056 4750 3426 4639 
Q 3797 4528 4122 4306 
z
" transform="scale(0.015625)"/>
      <path id="DejaVuSans-3a" d="M 750 794 
L 1409 794 
L 1409 0 
L 750 0 
L 750 794 
z
M 750 3309 
L 1409 3309 
L 1409 2516 
L 750 2516 
L 750 3309 
z
" transform="scale(0.015625)"/>
      <path id="DejaVuSans-2e" d="M 684 794 
L 1344 794 
L 1344 0 
L 684 0 
L 684 794 
z
" transform="scale(0.015625)"/>
      <path id="DejaVuSans-36" d="M 2113 2584 
Q 1688 2584 1439 2293 
Q 1191 2003 1191 1497 
Q 1191 994 1439 701 
Q 1688 409 2113 409 
Q 2538 409 2786 701 
Q 3034 994 3034 1497 
Q 3034 2003 2786 2293 
Q 2538 2584 2113 2584 
z
M 3366 4563 
L 3366 3988 
Q 3128 4100 2886 4159 
Q 2644 4219 2406 4219 
Q 1781 4219 1451 3797 
Q 1122 3375 1075 2522 
Q 1259 2794 1537 2939 
Q 1816 3084 2150 3084 
Q 2853 3084 3261 2657 
Q 3669 2231 3669 1497 
Q 3669 778 3244 343 
Q 2819 -91 2113 -91 
Q 1303 -91 875 529 
Q 447 1150 447 2328 
Q 447 3434 972 4092 
Q 1497 4750 2381 4750 
Q 2619 4750 2861 4703 
Q 3103 4656 3366 4563 
z
" transform="scale(0.015625)"/>
      <path id="DejaVuSans-34" d="M 2419 4116 
L 825 1625 
L 2419 1625 
L 2419 4116 
z
M 2253 4666 
L 3047 4666 
L 3047 1625 
L 3713 1625 
L 3713 1100 
L 3047 1100 
L 3047 0 
L 2419 0 
L 2419 1100 
L 313 1100 
L 313 1709 
L 2253 4666 
z
" transform="scale(0.015625)"/>
      <path id="DejaVuSans-37" d="M 525 4666 
L 3525 4666 
L 3525 4397 
L 1831 0 
L 1172 0 
L 2766 4134 
L 525 4134 
L 525 4666 
z
" transform="scale(0.015625)"/>
      <path id="DejaVuSans-39" d="M 703 97 
L 703 672 
Q 941 559 1184 500 
Q 1428 441 1663 441 
Q 2288 441 2617 861 
Q 2947 1281 2994 2138 
Q 2813 1869 2534 1725 
Q 2256 1581 1919 1581 
Q 1219 1581 811 2004 
Q 403 2428 403 3163 
Q 403 3881 828 4315 
Q 1253 4750 1959 4750 
Q 2769 4750 3195 4129 
Q 3622 3509 3622 2328 
Q 3622 1225 3098 567 
Q 2575 -91 1691 -91 
Q 1453 -91 1209 -44 
Q 966 3 703 97 
z
M 1959 2075 
Q 2384 2075 2632 2365 
Q 2881 2656 2881 3163 
Q 2881 3666 2632 3958 
Q 2384 4250 1959 4250 
Q 1534 4250 1286 3958 
Q 1038 3666 1038 3163 
Q 1038 2656 1286 2365 
Q 1534 2075 1959 2075 
z
" transform="scale(0.015625)"/>
     </defs>
     <use xlink:href="#DejaVuSans-43"/>
     <use xlink:href="#DejaVuSans-6f" x="69.824219"/>
     <use xlink:href="#DejaVuSans-72" x="131.005859"/>
     <use xlink:href="#DejaVuSans-72" x="170.369141"/>
     <use xlink:href="#DejaVuSans-65" x="209.232422"/>
     <use xlink:href="#DejaVuSans-6c" x="270.755859"/>
     <use xlink:href="#DejaVuSans-61" x="298.539062"/>
     <use xlink:href="#DejaVuSans-74" x="359.818359"/>
     <use xlink:href="#DejaVuSans-69" x="399.027344"/>
     <use xlink:href="#DejaVuSans-6f" x="426.810547"/>
     <use xlink:href="#DejaVuSans-6e" x="487.992188"/>
     <use xlink:href="#DejaVuSans-20" x="551.371094"/>
     <use xlink:href="#DejaVuSans-69" x="583.158203"/>
     <use xlink:href="#DejaVuSans-6e" x="610.941406"/>
     <use xlink:href="#DejaVuSans-3a" x="674.320312"/>
     <use xlink:href="#DejaVuSans-20" x="708.011719"/>
     <use xlink:href="#DejaVuSans-30" x="739.798828"/>
     <use xlink:href="#DejaVuSans-2e" x="803.421875"/>
     <use xlink:href="#DejaVuSans-32" x="835.208984"/>
     <use xlink:href="#DejaVuSans-36" x="898.832031"/>
     <use xlink:href="#DejaVuSans-30" x="962.455078"/>
     <use xlink:href="#DejaVuSans-35" x="1026.078125"/>
     <use xlink:href="#DejaVuSans-30" x="1089.701172"/>
     <use xlink:href="#DejaVuSans-34" x="1153.324219"/>
     <use xlink:href="#DejaVuSans-36" x="1216.947266"/>
     <use xlink:href="#DejaVuSans-34" x="1280.570312"/>
     <use xlink:href="#DejaVuSans-34" x="1344.193359"/>
     <use xlink:href="#DejaVuSans-37" x="1407.816406"/>
     <use xlink:href="#DejaVuSans-30" x="1471.439453"/>
     <use xlink:href="#DejaVuSans-34" x="1535.0625"/>
     <use xlink:href="#DejaVuSans-36" x="1598.685547"/>
     <use xlink:href="#DejaVuSans-30" x="1662.308594"/>
     <use xlink:href="#DejaVuSans-35" x="1725.931641"/>
     <use xlink:href="#DejaVuSans-39" x="1789.554688"/>
     <use xlink:href="#DejaVuSans-34" x="1853.177734"/>
    </g>
    <!-- Correlation Out: 0.393962506021179 -->
    <g transform="translate(116.865 63.124) scale(0.1 -0.1)">
     <defs>
      <path id="DejaVuSans-4f" d="M 2522 4238 
Q 1834 4238 1429 3725 
Q 1025 3213 1025 2328 
Q 1025 1447 1429 934 
Q 1834 422 2522 422 
Q 3209 422 3611 934 
Q 4013 1447 4013 2328 
Q 4013 3213 3611 3725 
Q 3209 4238 2522 4238 
z
M 2522 4750 
Q 3503 4750 4090 4092 
Q 4678 3434 4678 2328 
Q 4678 1225 4090 567 
Q 3503 -91 2522 -91 
Q 1538 -91 948 565 
Q 359 1222 359 2328 
Q 359 3434 948 4092 
Q 1538 4750 2522 4750 
z
" transform="scale(0.015625)"/>
      <path id="DejaVuSans-75" d="M 544 1381 
L 544 3500 
L 1119 3500 
L 1119 1403 
Q 1119 906 1312 657 
Q 1506 409 1894 409 
Q 2359 409 2629 706 
Q 2900 1003 2900 1516 
L 2900 3500 
L 3475 3500 
L 3475 0 
L 2900 0 
L 2900 538 
Q 2691 219 2414 64 
Q 2138 -91 1772 -91 
Q 1169 -91 856 284 
Q 544 659 544 1381 
z
M 1991 3584 
L 1991 3584 
z
" transform="scale(0.015625)"/>
      <path id="DejaVuSans-33" d="M 2597 2516 
Q 3050 2419 3304 2112 
Q 3559 1806 3559 1356 
Q 3559 666 3084 287 
Q 2609 -91 1734 -91 
Q 1441 -91 1130 -33 
Q 819 25 488 141 
L 488 750 
Q 750 597 1062 519 
Q 1375 441 1716 441 
Q 2309 441 2620 675 
Q 2931 909 2931 1356 
Q 2931 1769 2642 2001 
Q 2353 2234 1838 2234 
L 1294 2234 
L 1294 2753 
L 1863 2753 
Q 2328 2753 2575 2939 
Q 2822 3125 2822 3475 
Q 2822 3834 2567 4026 
Q 2313 4219 1838 4219 
Q 1578 4219 1281 4162 
Q 984 4106 628 3988 
L 628 4550 
Q 988 4650 1302 4700 
Q 1616 4750 1894 4750 
Q 2613 4750 3031 4423 
Q 3450 4097 3450 3541 
Q 3450 3153 3228 2886 
Q 3006 2619 2597 2516 
z
" transform="scale(0.015625)"/>
     </defs>
     <use xlink:href="#DejaVuSans-43"/>
     <use xlink:href="#DejaVuSans-6f" x="69.824219"/>
     <use xlink:href="#DejaVuSans-72" x="131.005859"/>
     <use xlink:href="#DejaVuSans-72" x="170.369141"/>
     <use xlink:href="#DejaVuSans-65" x="209.232422"/>
     <use xlink:href="#DejaVuSans-6c" x="270.755859"/>
     <use xlink:href="#DejaVuSans-61" x="298.539062"/>
     <use xlink:href="#DejaVuSans-74" x="359.818359"/>
     <use xlink:href="#DejaVuSans-69" x="399.027344"/>
     <use xlink:href="#DejaVuSans-6f" x="426.810547"/>
     <use xlink:href="#DejaVuSans-6e" x="487.992188"/>
     <use xlink:href="#DejaVuSans-20" x="551.371094"/>
     <use xlink:href="#DejaVuSans-4f" x="583.158203"/>
     <use xlink:href="#DejaVuSans-75" x="661.869141"/>
     <use xlink:href="#DejaVuSans-74" x="725.248047"/>
     <use xlink:href="#DejaVuSans-3a" x="764.457031"/>
     <use xlink:href="#DejaVuSans-20" x="798.148438"/>
     <use xlink:href="#DejaVuSans-30" x="829.935547"/>
     <use xlink:href="#DejaVuSans-2e" x="893.558594"/>
     <use xlink:href="#DejaVuSans-33" x="925.345703"/>
     <use xlink:href="#DejaVuSans-39" x="988.96875"/>
     <use xlink:href="#DejaVuSans-33" x="1052.591797"/>
     <use xlink:href="#DejaVuSans-39" x="1116.214844"/>
     <use xlink:href="#DejaVuSans-36" x="1179.837891"/>
     <use xlink:href="#DejaVuSans-32" x="1243.460938"/>
     <use xlink:href="#DejaVuSans-35" x="1307.083984"/>
     <use xlink:href="#DejaVuSans-30" x="1370.707031"/>
     <use xlink:href="#DejaVuSans-36" x="1434.330078"/>
     <use xlink:href="#DejaVuSans-30" x="1497.953125"/>
     <use xlink:href="#DejaVuSans-32" x="1561.576172"/>
     <use xlink:href="#DejaVuSans-31" x="1625.199219"/>
     <use xlink:href="#DejaVuSans-31" x="1688.822266"/>
     <use xlink:href="#DejaVuSans-37" x="1752.445312"/>
     <use xlink:href="#DejaVuSans-39" x="1816.068359"/>
    </g>
   </g>
   <g id="legend_1">
    <g id="patch_7">
     <path d="M 577.7375 48.15625 
L 702.2 48.15625 
Q 704.2 48.15625 704.2 46.15625 
L 704.2 17.8 
Q 704.2 15.8 702.2 15.8 
L 577.7375 15.8 
Q 575.7375 15.8 575.7375 17.8 
L 575.7375 46.15625 
Q 575.7375 48.15625 577.7375 48.15625 
z
" style="fill: #ffffff; opacity: 0.8; stroke: #cccccc; stroke-linejoin: miter"/>
    </g>
    <g id="line2d_12">
     <defs>
      <path id="mf1c51b5009" d="M 0 2.5 
C 0.663008 2.5 1.29895 2.236584 1.767767 1.767767 
C 2.236584 1.29895 2.5 0.663008 2.5 0 
C 2.5 -0.663008 2.236584 -1.29895 1.767767 -1.767767 
C 1.29895 -2.236584 0.663008 -2.5 0 -2.5 
C -0.663008 -2.5 -1.29895 -2.236584 -1.767767 -1.767767 
C -2.236584 -1.29895 -2.5 -0.663008 -2.5 0 
C -2.5 0.663008 -2.236584 1.29895 -1.767767 1.767767 
C -1.29895 2.236584 -0.663008 2.5 0 2.5 
z
" style="stroke: #ffffff"/>
     </defs>
     <g>
      <use xlink:href="#mf1c51b5009" x="589.7375" y="23.898438" style="fill: #0000ff; stroke: #ffffff"/>
     </g>
    </g>
    <g id="text_14">
     <!-- In Distribution -->
     <g transform="translate(607.7375 27.398438) scale(0.1 -0.1)">
      <defs>
       <path id="DejaVuSans-49" d="M 628 4666 
L 1259 4666 
L 1259 0 
L 628 0 
L 628 4666 
z
" transform="scale(0.015625)"/>
       <path id="DejaVuSans-44" d="M 1259 4147 
L 1259 519 
L 2022 519 
Q 2988 519 3436 956 
Q 3884 1394 3884 2338 
Q 3884 3275 3436 3711 
Q 2988 4147 2022 4147 
L 1259 4147 
z
M 628 4666 
L 1925 4666 
Q 3281 4666 3915 4102 
Q 4550 3538 4550 2338 
Q 4550 1131 3912 565 
Q 3275 0 1925 0 
L 628 0 
L 628 4666 
z
" transform="scale(0.015625)"/>
       <path id="DejaVuSans-62" d="M 3116 1747 
Q 3116 2381 2855 2742 
Q 2594 3103 2138 3103 
Q 1681 3103 1420 2742 
Q 1159 2381 1159 1747 
Q 1159 1113 1420 752 
Q 1681 391 2138 391 
Q 2594 391 2855 752 
Q 3116 1113 3116 1747 
z
M 1159 2969 
Q 1341 3281 1617 3432 
Q 1894 3584 2278 3584 
Q 2916 3584 3314 3078 
Q 3713 2572 3713 1747 
Q 3713 922 3314 415 
Q 2916 -91 2278 -91 
Q 1894 -91 1617 61 
Q 1341 213 1159 525 
L 1159 0 
L 581 0 
L 581 4863 
L 1159 4863 
L 1159 2969 
z
" transform="scale(0.015625)"/>
      </defs>
      <use xlink:href="#DejaVuSans-49"/>
      <use xlink:href="#DejaVuSans-6e" x="29.492188"/>
      <use xlink:href="#DejaVuSans-20" x="92.871094"/>
      <use xlink:href="#DejaVuSans-44" x="124.658203"/>
      <use xlink:href="#DejaVuSans-69" x="201.660156"/>
      <use xlink:href="#DejaVuSans-73" x="229.443359"/>
      <use xlink:href="#DejaVuSans-74" x="281.542969"/>
      <use xlink:href="#DejaVuSans-72" x="320.751953"/>
      <use xlink:href="#DejaVuSans-69" x="361.865234"/>
      <use xlink:href="#DejaVuSans-62" x="389.648438"/>
      <use xlink:href="#DejaVuSans-75" x="453.125"/>
      <use xlink:href="#DejaVuSans-74" x="516.503906"/>
      <use xlink:href="#DejaVuSans-69" x="555.712891"/>
      <use xlink:href="#DejaVuSans-6f" x="583.496094"/>
      <use xlink:href="#DejaVuSans-6e" x="644.677734"/>
     </g>
    </g>
    <g id="line2d_13">
     <defs>
      <path id="mf5a7768d77" d="M 0 2.5 
C 0.663008 2.5 1.29895 2.236584 1.767767 1.767767 
C 2.236584 1.29895 2.5 0.663008 2.5 0 
C 2.5 -0.663008 2.236584 -1.29895 1.767767 -1.767767 
C 1.29895 -2.236584 0.663008 -2.5 0 -2.5 
C -0.663008 -2.5 -1.29895 -2.236584 -1.767767 -1.767767 
C -2.236584 -1.29895 -2.5 -0.663008 -2.5 0 
C -2.5 0.663008 -2.236584 1.29895 -1.767767 1.767767 
C -1.29895 2.236584 -0.663008 2.5 0 2.5 
z
" style="stroke: #ffffff"/>
     </defs>
     <g>
      <use xlink:href="#mf5a7768d77" x="589.7375" y="38.576563" style="fill: #008000; stroke: #ffffff"/>
     </g>
    </g>
    <g id="text_15">
     <!-- Out of Distribution -->
     <g transform="translate(607.7375 42.076563) scale(0.1 -0.1)">
      <defs>
       <path id="DejaVuSans-66" d="M 2375 4863 
L 2375 4384 
L 1825 4384 
Q 1516 4384 1395 4259 
Q 1275 4134 1275 3809 
L 1275 3500 
L 2222 3500 
L 2222 3053 
L 1275 3053 
L 1275 0 
L 697 0 
L 697 3053 
L 147 3053 
L 147 3500 
L 697 3500 
L 697 3744 
Q 697 4328 969 4595 
Q 1241 4863 1831 4863 
L 2375 4863 
z
" transform="scale(0.015625)"/>
      </defs>
      <use xlink:href="#DejaVuSans-4f"/>
      <use xlink:href="#DejaVuSans-75" x="78.710938"/>
      <use xlink:href="#DejaVuSans-74" x="142.089844"/>
      <use xlink:href="#DejaVuSans-20" x="181.298828"/>
      <use xlink:href="#DejaVuSans-6f" x="213.085938"/>
      <use xlink:href="#DejaVuSans-66" x="274.267578"/>
      <use xlink:href="#DejaVuSans-20" x="309.472656"/>
      <use xlink:href="#DejaVuSans-44" x="341.259766"/>
      <use xlink:href="#DejaVuSans-69" x="418.261719"/>
      <use xlink:href="#DejaVuSans-73" x="446.044922"/>
      <use xlink:href="#DejaVuSans-74" x="498.144531"/>
      <use xlink:href="#DejaVuSans-72" x="537.353516"/>
      <use xlink:href="#DejaVuSans-69" x="578.466797"/>
      <use xlink:href="#DejaVuSans-62" x="606.25"/>
      <use xlink:href="#DejaVuSans-75" x="669.726562"/>
      <use xlink:href="#DejaVuSans-74" x="733.105469"/>
      <use xlink:href="#DejaVuSans-69" x="772.314453"/>
      <use xlink:href="#DejaVuSans-6f" x="800.097656"/>
      <use xlink:href="#DejaVuSans-6e" x="861.279297"/>
     </g>
    </g>
   </g>
  </g>
 </g>
 <defs>
  <clipPath id="p933604869c">
   <rect x="51.05" y="10.8" width="658.15" height="523.24"/>
  </clipPath>
 </defs>
</svg>
