<?xml version="1.0" encoding="utf-8" standalone="no"?>
<!DOCTYPE svg PUBLIC "-//W3C//DTD SVG 1.1//EN"
  "http://www.w3.org/Graphics/SVG/1.1/DTD/svg11.dtd">
<svg xmlns:xlink="http://www.w3.org/1999/xlink" width="720pt" height="576pt" viewBox="0 0 720 576" xmlns="http://www.w3.org/2000/svg" version="1.1">
 <metadata>
  <rdf:RDF xmlns:dc="http://purl.org/dc/elements/1.1/" xmlns:cc="http://creativecommons.org/ns#" xmlns:rdf="http://www.w3.org/1999/02/22-rdf-syntax-ns#">
   <cc:Work>
    <dc:type rdf:resource="http://purl.org/dc/dcmitype/StillImage"/>
    <dc:date>2024-12-08T21:54:51.134174</dc:date>
    <dc:format>image/svg+xml</dc:format>
    <dc:creator>
     <cc:Agent>
      <dc:title>Matplotlib v3.8.4, https://matplotlib.org/</dc:title>
     </cc:Agent>
    </dc:creator>
   </cc:Work>
  </rdf:RDF>
 </metadata>
 <defs>
  <style type="text/css">*{stroke-linejoin: round; stroke-linecap: butt}</style>
 </defs>
 <g id="figure_1">
  <g id="patch_1">
   <path d="M 0 576 
L 720 576 
L 720 0 
L 0 0 
z
" style="fill: #ffffff"/>
  </g>
  <g id="axes_1">
   <g id="patch_2">
    <path d="M 83.72 499.48 
L 696.24 499.48 
L 696.24 23.76 
L 83.72 23.76 
z
" style="fill: #ffffff"/>
   </g>
   <g id="QuadContourSet_1">
    <path d="M 121.038779 503.358722 
L 121.45394 503.518165 
L 121.869101 503.324747 
L 122.241332 502.834015 
L 122.284262 502.792928 
L 122.699422 501.956207 
L 122.726681 501.885466 
L 123.039963 500.936917 
L 123.114583 500.547937 
L 123.262486 499.988368 
L 123.413686 499.03982 
L 123.491972 498.091271 
L 123.529744 497.351887 
L 123.557976 497.142722 
L 123.63891 496.194173 
L 123.676331 495.245624 
L 123.681965 494.297075 
L 123.655355 493.348526 
L 123.592487 492.399978 
L 123.529744 491.741797 
L 123.519415 491.451429 
L 123.489655 490.50288 
L 123.463876 489.554331 
L 123.438648 488.605782 
L 123.410693 487.657233 
L 123.379225 486.708685 
L 123.345669 485.760136 
L 123.313445 484.811587 
L 123.288207 483.863038 
L 123.274045 482.914489 
L 123.268362 481.96594 
L 123.262504 481.017392 
L 123.243434 480.068843 
L 123.190518 479.120294 
L 123.114583 478.447938 
L 123.096019 478.171745 
L 123.02445 477.223196 
L 122.961856 476.274647 
L 122.918426 475.326099 
L 122.882414 474.37755 
L 122.830747 473.429001 
L 122.744199 472.480452 
L 122.699422 472.118582 
L 122.60651 471.531903 
L 122.372319 470.583354 
L 122.284262 470.275102 
L 121.869101 469.775821 
L 121.59605 470.583354 
L 121.45394 470.923918 
L 121.293142 471.531903 
L 121.038779 472.316702 
L 120.996433 472.480452 
L 120.765913 473.429001 
L 120.623619 474.26367 
L 120.60536 474.37755 
L 120.47478 475.326099 
L 120.381667 476.274647 
L 120.308855 477.223196 
L 120.246354 478.171745 
L 120.208458 478.821683 
L 120.182032 479.120294 
L 120.111736 480.068843 
L 120.05958 481.017392 
L 120.021503 481.96594 
L 119.991663 482.914489 
L 119.962601 483.863038 
L 119.930299 484.811587 
L 119.89758 485.760136 
L 119.869547 486.708685 
L 119.847904 487.657233 
L 119.830962 488.605782 
L 119.816488 489.554331 
L 119.803657 490.50288 
L 119.793297 491.451429 
L 119.793297 491.451429 
L 119.770713 492.399978 
L 119.759159 493.348526 
L 119.754001 494.297075 
L 119.753452 495.245624 
L 119.764078 496.194173 
L 119.793297 496.926377 
L 119.795973 497.142722 
L 119.820567 498.091271 
L 119.865771 499.03982 
L 119.947087 499.988368 
L 120.105421 500.936917 
L 120.208458 501.341738 
L 120.322935 501.885466 
L 120.623619 502.671644 
L 120.723544 502.834015 
z
M 121.171105 501.885466 
L 121.038779 501.79286 
L 120.67474 500.936917 
L 120.623619 500.744923 
L 120.436582 499.988368 
L 120.3167 499.03982 
L 120.257772 498.091271 
L 120.226493 497.142722 
L 120.208915 496.194173 
L 120.208458 496.145791 
L 120.189173 495.245624 
L 120.185314 494.297075 
L 120.193098 493.348526 
L 120.206812 492.399978 
L 120.208458 492.295736 
L 120.21419 491.451429 
L 120.222099 490.50288 
L 120.234409 489.554331 
L 120.254447 488.605782 
L 120.284532 487.657233 
L 120.325512 486.708685 
L 120.376474 485.760136 
L 120.434788 484.811587 
L 120.498266 483.863038 
L 120.569363 482.914489 
L 120.623619 482.296459 
L 120.648383 481.96594 
L 120.741239 481.017392 
L 120.874946 480.068843 
L 121.038779 479.145369 
L 121.044225 479.120294 
L 121.213939 478.171745 
L 121.386224 477.223196 
L 121.45394 476.883332 
L 121.869101 476.625216 
L 122.036686 477.223196 
L 122.284262 478.171745 
L 122.284262 478.171745 
L 122.409122 479.120294 
L 122.524544 480.068843 
L 122.614211 481.017392 
L 122.673426 481.96594 
L 122.699422 482.607784 
L 122.714989 482.914489 
L 122.755831 483.863038 
L 122.796775 484.811587 
L 122.843513 485.760136 
L 122.894081 486.708685 
L 122.942206 487.657233 
L 122.982761 488.605782 
L 123.014322 489.554331 
L 123.038913 490.50288 
L 123.060115 491.451429 
L 123.080598 492.399978 
L 123.100972 493.348526 
L 123.114583 494.028979 
L 123.128144 494.297075 
L 123.158465 495.245624 
L 123.15718 496.194173 
L 123.114583 497.080644 
L 123.113099 497.142722 
L 123.058629 498.091271 
L 122.95125 499.03982 
L 122.740585 499.988368 
L 122.699422 500.127798 
L 122.447612 500.936917 
L 122.284262 501.320392 
L 121.869101 501.857116 
L 121.807721 501.885466 
L 121.45394 502.125483 
z
" clip-path="url(#pad08b0107c)" style="fill: #e6e6f3"/>
    <path d="M 121.45394 502.125483 
L 121.807721 501.885466 
L 121.869101 501.857116 
L 122.284262 501.320392 
L 122.447612 500.936917 
L 122.699422 500.127798 
L 122.740585 499.988368 
L 122.95125 499.03982 
L 123.058629 498.091271 
L 123.113099 497.142722 
L 123.114583 497.080644 
L 123.15718 496.194173 
L 123.158465 495.245624 
L 123.128144 494.297075 
L 123.114583 494.028979 
L 123.100972 493.348526 
L 123.080598 492.399978 
L 123.060115 491.451429 
L 123.038913 490.50288 
L 123.014322 489.554331 
L 122.982761 488.605782 
L 122.942206 487.657233 
L 122.894081 486.708685 
L 122.843513 485.760136 
L 122.796775 484.811587 
L 122.755831 483.863038 
L 122.714989 482.914489 
L 122.699422 482.607784 
L 122.673426 481.96594 
L 122.614211 481.017392 
L 122.524544 480.068843 
L 122.409122 479.120294 
L 122.284262 478.171745 
L 122.284262 478.171745 
L 122.036686 477.223196 
L 121.869101 476.625216 
L 121.45394 476.883332 
L 121.386224 477.223196 
L 121.213939 478.171745 
L 121.044225 479.120294 
L 121.038779 479.145369 
L 120.874946 480.068843 
L 120.741239 481.017392 
L 120.648383 481.96594 
L 120.623619 482.296459 
L 120.569363 482.914489 
L 120.498266 483.863038 
L 120.434788 484.811587 
L 120.376474 485.760136 
L 120.325512 486.708685 
L 120.284532 487.657233 
L 120.254447 488.605782 
L 120.234409 489.554331 
L 120.222099 490.50288 
L 120.21419 491.451429 
L 120.208458 492.295736 
L 120.206812 492.399978 
L 120.193098 493.348526 
L 120.185314 494.297075 
L 120.189173 495.245624 
L 120.208458 496.145791 
L 120.208915 496.194173 
L 120.226493 497.142722 
L 120.257772 498.091271 
L 120.3167 499.03982 
L 120.436582 499.988368 
L 120.623619 500.744923 
L 120.67474 500.936917 
L 121.038779 501.79286 
L 121.171105 501.885466 
z
M 121.235486 500.936917 
L 121.038779 500.696987 
L 120.802889 499.988368 
L 120.642619 499.03982 
L 120.623619 498.827013 
L 120.537676 498.091271 
L 120.481125 497.142722 
L 120.45257 496.194173 
L 120.437719 495.245624 
L 120.431901 494.297075 
L 120.434211 493.348526 
L 120.443735 492.399978 
L 120.459316 491.451429 
L 120.480979 490.50288 
L 120.510953 489.554331 
L 120.553272 488.605782 
L 120.6122 487.657233 
L 120.623619 487.50577 
L 120.670632 486.708685 
L 120.737805 485.760136 
L 120.814284 484.811587 
L 120.903726 483.863038 
L 121.019421 482.914489 
L 121.038779 482.779587 
L 121.212426 481.96594 
L 121.45394 481.082236 
L 121.869101 481.027195 
L 122.130609 481.96594 
L 122.284262 482.868902 
L 122.289147 482.914489 
L 122.374795 483.863038 
L 122.439968 484.811587 
L 122.497217 485.760136 
L 122.553505 486.708685 
L 122.608982 487.657233 
L 122.659001 488.605782 
L 122.699422 489.554331 
L 122.699422 489.554331 
L 122.748307 490.50288 
L 122.788678 491.451429 
L 122.823071 492.399978 
L 122.850983 493.348526 
L 122.871 494.297075 
L 122.88068 495.245624 
L 122.873141 496.194173 
L 122.834245 497.142722 
L 122.740393 498.091271 
L 122.699422 498.332574 
L 122.603151 499.03982 
L 122.353222 499.988368 
L 122.284262 500.178722 
L 121.869101 500.908487 
L 121.817485 500.936917 
L 121.45394 501.18463 
z
" clip-path="url(#pad08b0107c)" style="fill: #ccccf5"/>
    <path d="M 121.45394 501.18463 
L 121.817485 500.936917 
L 121.869101 500.908487 
L 122.284262 500.178722 
L 122.353222 499.988368 
L 122.603151 499.03982 
L 122.699422 498.332574 
L 122.740393 498.091271 
L 122.834245 497.142722 
L 122.873141 496.194173 
L 122.88068 495.245624 
L 122.871 494.297075 
L 122.850983 493.348526 
L 122.823071 492.399978 
L 122.788678 491.451429 
L 122.748307 490.50288 
L 122.699422 489.554331 
L 122.699422 489.554331 
L 122.659001 488.605782 
L 122.608982 487.657233 
L 122.553505 486.708685 
L 122.497217 485.760136 
L 122.439968 484.811587 
L 122.374795 483.863038 
L 122.289147 482.914489 
L 122.284262 482.868902 
L 122.130609 481.96594 
L 121.869101 481.027195 
L 121.45394 481.082236 
L 121.212426 481.96594 
L 121.038779 482.779587 
L 121.019421 482.914489 
L 120.903726 483.863038 
L 120.814284 484.811587 
L 120.737805 485.760136 
L 120.670632 486.708685 
L 120.623619 487.50577 
L 120.6122 487.657233 
L 120.553272 488.605782 
L 120.510953 489.554331 
L 120.480979 490.50288 
L 120.459316 491.451429 
L 120.443735 492.399978 
L 120.434211 493.348526 
L 120.431901 494.297075 
L 120.437719 495.245624 
L 120.45257 496.194173 
L 120.481125 497.142722 
L 120.537676 498.091271 
L 120.623619 498.827013 
L 120.642619 499.03982 
L 120.802889 499.988368 
L 121.038779 500.696987 
L 121.235486 500.936917 
z
M 121.015924 499.988368 
L 120.793325 499.03982 
L 120.691855 498.091271 
L 120.645738 497.142722 
L 120.623974 496.194173 
L 120.623619 496.1656 
L 120.605057 495.245624 
L 120.596252 494.297075 
L 120.597758 493.348526 
L 120.609954 492.399978 
L 120.623619 491.803362 
L 120.629071 491.451429 
L 120.649543 490.50288 
L 120.678191 489.554331 
L 120.71937 488.605782 
L 120.777 487.657233 
L 120.851219 486.708685 
L 120.938662 485.760136 
L 121.038779 484.811587 
L 121.038779 484.811587 
L 121.190659 483.863038 
L 121.390869 482.914489 
L 121.45394 482.664188 
L 121.869101 482.658919 
L 121.928381 482.914489 
L 122.095943 483.863038 
L 122.20881 484.811587 
L 122.284262 485.627256 
L 122.294315 485.760136 
L 122.366822 486.708685 
L 122.437031 487.657233 
L 122.501735 488.605782 
L 122.556489 489.554331 
L 122.600479 490.50288 
L 122.635922 491.451429 
L 122.664247 492.399978 
L 122.684884 493.348526 
L 122.697247 494.297075 
L 122.699422 494.819514 
L 122.702549 495.245624 
L 122.699422 495.471304 
L 122.693462 496.194173 
L 122.662723 497.142722 
L 122.586242 498.091271 
L 122.423423 499.03982 
L 122.284262 499.525829 
L 122.098863 499.988368 
L 121.869101 500.427563 
L 121.45394 500.678936 
L 121.038779 500.057026 
z
" clip-path="url(#pad08b0107c)" style="fill: #b2b2f6"/>
    <path d="M 121.038779 500.057026 
L 121.45394 500.678936 
L 121.869101 500.427563 
L 122.098863 499.988368 
L 122.284262 499.525829 
L 122.423423 499.03982 
L 122.586242 498.091271 
L 122.662723 497.142722 
L 122.693462 496.194173 
L 122.699422 495.471304 
L 122.702549 495.245624 
L 122.699422 494.819514 
L 122.697247 494.297075 
L 122.684884 493.348526 
L 122.664247 492.399978 
L 122.635922 491.451429 
L 122.600479 490.50288 
L 122.556489 489.554331 
L 122.501735 488.605782 
L 122.437031 487.657233 
L 122.366822 486.708685 
L 122.294315 485.760136 
L 122.284262 485.627256 
L 122.20881 484.811587 
L 122.095943 483.863038 
L 121.928381 482.914489 
L 121.869101 482.658919 
L 121.45394 482.664188 
L 121.390869 482.914489 
L 121.190659 483.863038 
L 121.038779 484.811587 
L 121.038779 484.811587 
L 120.938662 485.760136 
L 120.851219 486.708685 
L 120.777 487.657233 
L 120.71937 488.605782 
L 120.678191 489.554331 
L 120.649543 490.50288 
L 120.629071 491.451429 
L 120.623619 491.803362 
L 120.609954 492.399978 
L 120.597758 493.348526 
L 120.596252 494.297075 
L 120.605057 495.245624 
L 120.623619 496.1656 
L 120.623974 496.194173 
L 120.645738 497.142722 
L 120.691855 498.091271 
L 120.793325 499.03982 
L 121.015924 499.988368 
z
M 121.028771 499.03982 
L 120.880828 498.091271 
L 120.813816 497.142722 
L 120.785038 496.194173 
L 120.773343 495.245624 
L 120.769961 494.297075 
L 120.773378 493.348526 
L 120.784595 492.399978 
L 120.804709 491.451429 
L 120.835471 490.50288 
L 120.880385 489.554331 
L 120.94404 488.605782 
L 121.029097 487.657233 
L 121.038779 487.559722 
L 121.157333 486.708685 
L 121.305469 485.760136 
L 121.45394 484.929521 
L 121.869101 485.125524 
L 121.954198 485.760136 
L 122.061763 486.708685 
L 122.159298 487.657233 
L 122.253063 488.605782 
L 122.284262 488.932032 
L 122.333187 489.554331 
L 122.397411 490.50288 
L 122.449867 491.451429 
L 122.491661 492.399978 
L 122.521911 493.348526 
L 122.539357 494.297075 
L 122.542906 495.245624 
L 122.527842 496.194173 
L 122.479924 497.142722 
L 122.36988 498.091271 
L 122.284262 498.508286 
L 122.147068 499.03982 
L 121.869101 499.714207 
L 121.45394 499.988368 
L 121.038779 499.081223 
z
" clip-path="url(#pad08b0107c)" style="fill: #9898f7"/>
    <path d="M 121.038779 499.081223 
L 121.45394 499.988368 
L 121.869101 499.714207 
L 122.147068 499.03982 
L 122.284262 498.508286 
L 122.36988 498.091271 
L 122.479924 497.142722 
L 122.527842 496.194173 
L 122.542906 495.245624 
L 122.539357 494.297075 
L 122.521911 493.348526 
L 122.491661 492.399978 
L 122.449867 491.451429 
L 122.397411 490.50288 
L 122.333187 489.554331 
L 122.284262 488.932032 
L 122.253063 488.605782 
L 122.159298 487.657233 
L 122.061763 486.708685 
L 121.954198 485.760136 
L 121.869101 485.125524 
L 121.45394 484.929521 
L 121.305469 485.760136 
L 121.157333 486.708685 
L 121.038779 487.559722 
L 121.029097 487.657233 
L 120.94404 488.605782 
L 120.880385 489.554331 
L 120.835471 490.50288 
L 120.804709 491.451429 
L 120.784595 492.399978 
L 120.773378 493.348526 
L 120.769961 494.297075 
L 120.773343 495.245624 
L 120.785038 496.194173 
L 120.813816 497.142722 
L 120.880828 498.091271 
L 121.028771 499.03982 
z
M 121.314703 499.03982 
L 121.074405 498.091271 
L 121.038779 497.778388 
L 120.982168 497.142722 
L 120.946365 496.194173 
L 120.934774 495.245624 
L 120.934028 494.297075 
L 120.940274 493.348526 
L 120.95479 492.399978 
L 120.980633 491.451429 
L 121.021703 490.50288 
L 121.038779 490.221934 
L 121.10131 489.554331 
L 121.215196 488.605782 
L 121.351786 487.657233 
L 121.45394 487.03261 
L 121.869101 487.657233 
L 121.869101 487.657233 
L 121.981006 488.605782 
L 122.087953 489.554331 
L 122.182745 490.50288 
L 122.260996 491.451429 
L 122.284262 491.790965 
L 122.318792 492.399978 
L 122.358672 493.348526 
L 122.381208 494.297075 
L 122.384352 495.245624 
L 122.361951 496.194173 
L 122.296828 497.142722 
L 122.284262 497.239373 
L 122.155085 498.091271 
L 121.874624 499.03982 
L 121.869101 499.05322 
L 121.45394 499.348842 
z
" clip-path="url(#pad08b0107c)" style="fill: #7777f9"/>
    <path d="M 121.45394 499.348842 
L 121.869101 499.05322 
L 121.874624 499.03982 
L 122.155085 498.091271 
L 122.284262 497.239373 
L 122.296828 497.142722 
L 122.361951 496.194173 
L 122.384352 495.245624 
L 122.381208 494.297075 
L 122.358672 493.348526 
L 122.318792 492.399978 
L 122.284262 491.790965 
L 122.260996 491.451429 
L 122.182745 490.50288 
L 122.087953 489.554331 
L 121.981006 488.605782 
L 121.869101 487.657233 
L 121.869101 487.657233 
L 121.45394 487.03261 
L 121.351786 487.657233 
L 121.215196 488.605782 
L 121.10131 489.554331 
L 121.038779 490.221934 
L 121.021703 490.50288 
L 120.980633 491.451429 
L 120.95479 492.399978 
L 120.940274 493.348526 
L 120.934028 494.297075 
L 120.934774 495.245624 
L 120.946365 496.194173 
L 120.982168 497.142722 
L 121.038779 497.778388 
L 121.074405 498.091271 
L 121.314703 499.03982 
z
M 121.180624 498.091271 
L 121.067287 497.142722 
L 121.038779 496.512328 
L 121.025978 496.194173 
L 121.014438 495.245624 
L 121.014995 494.297075 
L 121.022635 493.348526 
L 121.038779 492.399978 
L 121.038779 492.399978 
L 121.078395 491.451429 
L 121.146052 490.50288 
L 121.242929 489.554331 
L 121.365556 488.605782 
L 121.45394 488.02 
L 121.777466 488.605782 
L 121.869101 488.775338 
L 121.963951 489.554331 
L 122.069838 490.50288 
L 122.157899 491.451429 
L 122.227299 492.399978 
L 122.277364 493.348526 
L 122.284262 493.575769 
L 122.303163 494.297075 
L 122.306107 495.245624 
L 122.284262 496.047625 
L 122.279891 496.194173 
L 122.205556 497.142722 
L 122.049703 498.091271 
L 121.869101 498.699499 
L 121.45394 499.032197 
z
" clip-path="url(#pad08b0107c)" style="fill: #5e5efa"/>
    <path d="M 121.45394 499.032197 
L 121.869101 498.699499 
L 122.049703 498.091271 
L 122.205556 497.142722 
L 122.279891 496.194173 
L 122.284262 496.047625 
L 122.306107 495.245624 
L 122.303163 494.297075 
L 122.284262 493.575769 
L 122.277364 493.348526 
L 122.227299 492.399978 
L 122.157899 491.451429 
L 122.069838 490.50288 
L 121.963951 489.554331 
L 121.869101 488.775338 
L 121.777466 488.605782 
L 121.45394 488.02 
L 121.365556 488.605782 
L 121.242929 489.554331 
L 121.146052 490.50288 
L 121.078395 491.451429 
L 121.038779 492.399978 
L 121.038779 492.399978 
L 121.022635 493.348526 
L 121.014995 494.297075 
L 121.014438 495.245624 
L 121.025978 496.194173 
L 121.038779 496.512328 
L 121.067287 497.142722 
L 121.180624 498.091271 
z
M 121.369472 498.091271 
L 121.226374 497.142722 
L 121.172961 496.194173 
L 121.16089 495.245624 
L 121.1689 494.297075 
L 121.190961 493.348526 
L 121.229856 492.399978 
L 121.29167 491.451429 
L 121.380297 490.50288 
L 121.45394 489.876818 
L 121.869101 490.50288 
L 121.869101 490.50288 
L 121.974601 491.451429 
L 122.057154 492.399978 
L 122.116628 493.348526 
L 122.15115 494.297075 
L 122.157281 495.245624 
L 122.127586 496.194173 
L 122.04302 497.142722 
L 121.869101 498.060351 
L 121.838131 498.091271 
L 121.45394 498.382065 
z
" clip-path="url(#pad08b0107c)" style="fill: #4848fb"/>
    <path d="M 121.45394 498.382065 
L 121.838131 498.091271 
L 121.869101 498.060351 
L 122.04302 497.142722 
L 122.127586 496.194173 
L 122.157281 495.245624 
L 122.15115 494.297075 
L 122.116628 493.348526 
L 122.057154 492.399978 
L 121.974601 491.451429 
L 121.869101 490.50288 
L 121.869101 490.50288 
L 121.45394 489.876818 
L 121.380297 490.50288 
L 121.29167 491.451429 
L 121.229856 492.399978 
L 121.190961 493.348526 
L 121.1689 494.297075 
L 121.16089 495.245624 
L 121.172961 496.194173 
L 121.226374 497.142722 
L 121.369472 498.091271 
z
M 121.399785 496.194173 
L 121.387603 495.245624 
L 121.408566 494.297075 
L 121.45394 493.348526 
L 121.45394 493.348526 
L 121.869101 493.343242 
L 121.86949 493.348526 
L 121.914208 494.297075 
L 121.925671 495.245624 
L 121.89341 496.194173 
L 121.869101 496.43559 
L 121.45394 496.92849 
z
" clip-path="url(#pad08b0107c)" style="fill: #2323fd"/>
    <path d="M 121.45394 496.92849 
L 121.869101 496.43559 
L 121.89341 496.194173 
L 121.925671 495.245624 
L 121.914208 494.297075 
L 121.86949 493.348526 
L 121.869101 493.343242 
L 121.45394 493.348526 
L 121.45394 493.348526 
L 121.408566 494.297075 
L 121.387603 495.245624 
L 121.399785 496.194173 
z
" clip-path="url(#pad08b0107c)" style="fill: #0606ff"/>
   </g>
   <g id="QuadContourSet_2">
    <path d="M 117.383713 584.298962 
L 118.954717 585.43829 
L 120.525722 583.31953 
L 122.009158 577.042022 
L 122.096726 576.789716 
L 123.66773 568.788354 
L 123.933219 567.045229 
L 125.238735 557.332421 
L 125.278005 557.048436 
L 126.570197 547.051643 
L 126.809739 544.326189 
L 127.702487 537.05485 
L 128.380743 527.170084 
L 128.394315 527.058057 
L 129.47558 517.061264 
L 129.951748 507.663497 
L 130.018809 507.064471 
L 130.948716 497.067679 
L 131.410925 487.070886 
L 131.522752 483.421261 
L 132.055984 477.074093 
L 132.595447 467.0773 
L 132.90947 457.080507 
L 133.093756 447.453482 
L 133.11544 447.083714 
L 133.529994 437.086921 
L 133.751282 427.090128 
L 133.829094 417.093336 
L 133.800896 407.096543 
L 133.701385 397.09975 
L 133.561766 387.102957 
L 133.404432 377.106164 
L 133.241302 367.109371 
L 133.093756 358.032959 
L 133.087773 357.112578 
L 133.021879 347.115785 
L 132.957584 337.118992 
L 132.903236 327.1222 
L 132.862585 317.125407 
L 132.827586 307.128614 
L 132.77659 297.131821 
L 132.681422 287.135028 
L 132.522057 277.138235 
L 132.300034 267.141442 
L 132.03646 257.144649 
L 131.754271 247.147856 
L 131.522752 239.036942 
L 131.493465 237.151064 
L 131.346696 227.154271 
L 131.203956 217.157478 
L 131.065941 207.160685 
L 130.924429 197.163892 
L 130.761594 187.167099 
L 130.554538 177.170306 
L 130.284668 167.173513 
L 129.951748 157.17672 
L 129.951748 157.17672 
L 129.759082 147.179928 
L 129.578569 137.183135 
L 129.420111 127.186342 
L 129.278965 117.189549 
L 129.139881 107.192756 
L 128.980691 97.195963 
L 128.773224 87.19917 
L 128.487169 77.202377 
L 128.380743 74.078538 
L 128.202749 67.205584 
L 127.91642 57.208792 
L 127.630588 47.211999 
L 127.36757 37.215206 
L 127.091038 27.218413 
L 126.809739 19.921361 
L 126.691411 17.22162 
L 125.969171 7.224827 
L 125.238735 1.136539 
L 124.353004 -2.771966 
L 123.66773 -5.645812 
L 122.651672 -2.771966 
L 122.096726 -1.535757 
L 121.197941 7.224827 
L 120.525722 13.752678 
L 120.296547 17.22162 
L 119.666752 27.218413 
L 119.131871 37.215206 
L 118.954717 40.791373 
L 118.638042 47.211999 
L 118.218741 57.208792 
L 117.887917 67.205584 
L 117.626888 77.202377 
L 117.418511 87.19917 
L 117.383713 89.052734 
L 117.158087 97.195963 
L 116.915705 107.192756 
L 116.70122 117.189549 
L 116.509486 127.186342 
L 116.339389 137.183135 
L 116.191106 147.179928 
L 116.064876 157.17672 
L 115.960628 167.173513 
L 115.87787 177.170306 
L 115.815357 187.167099 
L 115.812709 187.73113 
L 115.719925 197.163892 
L 115.647289 207.160685 
L 115.586051 217.157478 
L 115.523599 227.154271 
L 115.452923 237.151064 
L 115.373601 247.147856 
L 115.289747 257.144649 
L 115.207026 267.141442 
L 115.130532 277.138235 
L 115.063786 287.135028 
L 115.008301 297.131821 
L 114.963371 307.128614 
L 114.926013 317.125407 
L 114.891323 327.1222 
L 114.853595 337.118992 
L 114.808276 347.115785 
L 114.75386 357.112578 
L 114.692246 367.109371 
L 114.627085 377.106164 
L 114.561482 387.102957 
L 114.496648 397.09975 
L 114.432068 407.096543 
L 114.366727 417.093336 
L 114.300456 427.090128 
L 114.241704 435.828106 
L 114.211571 437.086921 
L 113.943257 447.083714 
L 113.695602 457.080507 
L 113.482865 467.0773 
L 113.312113 477.074093 
L 113.184475 487.070886 
L 113.098447 497.067679 
L 113.053351 507.064471 
L 113.052658 517.061264 
L 113.108137 527.058057 
L 113.247145 537.05485 
L 113.52799 547.051643 
L 114.075253 557.048436 
L 114.241704 559.27701 
L 114.660368 567.045229 
L 115.812709 576.879615 
L 115.844283 577.042022 
z
M 118.299863 557.048436 
L 117.383713 553.537063 
L 116.636526 547.051643 
L 115.999477 537.05485 
L 115.812709 531.198468 
L 115.622945 527.058057 
L 115.356041 517.061264 
L 115.251351 507.064471 
L 115.258047 497.067679 
L 115.354445 487.070886 
L 115.534251 477.074093 
L 115.798689 467.0773 
L 115.812709 466.613637 
L 115.924583 457.080507 
L 116.06571 447.083714 
L 116.231345 437.086921 
L 116.419221 427.090128 
L 116.624492 417.093336 
L 116.840704 407.096543 
L 117.062201 397.09975 
L 117.287015 387.102957 
L 117.383713 382.655781 
L 117.450037 377.106164 
L 117.572829 367.109371 
L 117.706046 357.112578 
L 117.848646 347.115785 
L 117.997568 337.118992 
L 118.148281 327.1222 
L 118.296298 317.125407 
L 118.439114 307.128614 
L 118.577252 297.131821 
L 118.713642 287.135028 
L 118.852066 277.138235 
L 118.954717 269.912087 
L 118.991604 267.141442 
L 119.130598 257.144649 
L 119.283836 247.147856 
L 119.453473 237.151064 
L 119.64161 227.154271 
L 119.849906 217.157478 
L 120.079136 207.160685 
L 120.32913 197.163892 
L 120.525722 189.759014 
L 120.671092 187.167099 
L 121.277846 177.170306 
L 121.984008 167.173513 
L 122.096726 165.671298 
L 122.285018 167.173513 
L 123.603521 177.170306 
L 123.66773 177.605049 
L 124.123728 187.167099 
L 124.603783 197.163892 
L 125.07286 207.160685 
L 125.238735 210.770633 
L 125.466625 217.157478 
L 125.789695 227.154271 
L 126.074978 237.151064 
L 126.334658 247.147856 
L 126.582569 257.144649 
L 126.809739 266.305396 
L 126.832843 267.141442 
L 127.1244 277.138235 
L 127.407089 287.135028 
L 127.675851 297.131821 
L 127.928032 307.128614 
L 128.163086 317.125407 
L 128.380743 327.1222 
L 128.380743 327.1222 
L 128.695138 337.118992 
L 128.975219 347.115785 
L 129.216334 357.112578 
L 129.416152 367.109371 
L 129.575784 377.106164 
L 129.699012 387.102957 
L 129.790277 397.09975 
L 129.852626 407.096543 
L 129.886578 417.093336 
L 129.89011 427.090128 
L 129.858953 437.086921 
L 129.785888 447.083714 
L 129.65784 457.080507 
L 129.449606 467.0773 
L 129.111438 477.074093 
L 128.543212 487.070886 
L 128.380743 489.282261 
L 128.097142 497.067679 
L 127.51695 507.064471 
L 126.809739 514.636171 
L 126.659413 517.061264 
L 125.850329 527.058057 
L 125.238735 532.346209 
L 124.738208 537.05485 
L 123.66773 544.957474 
L 123.293587 547.051643 
L 122.096726 553.980371 
L 120.973805 557.048436 
L 120.525722 558.739054 
L 118.954717 559.409469 
z
" clip-path="url(#pad08b0107c)" style="fill: #e5f0e5; fill-opacity: 0.5"/>
    <path d="M 118.954717 559.409469 
L 120.525722 558.739054 
L 120.973805 557.048436 
L 122.096726 553.980371 
L 123.293587 547.051643 
L 123.66773 544.957474 
L 124.738208 537.05485 
L 125.238735 532.346209 
L 125.850329 527.058057 
L 126.659413 517.061264 
L 126.809739 514.636171 
L 127.51695 507.064471 
L 128.097142 497.067679 
L 128.380743 489.282261 
L 128.543212 487.070886 
L 129.111438 477.074093 
L 129.449606 467.0773 
L 129.65784 457.080507 
L 129.785888 447.083714 
L 129.858953 437.086921 
L 129.89011 427.090128 
L 129.886578 417.093336 
L 129.852626 407.096543 
L 129.790277 397.09975 
L 129.699012 387.102957 
L 129.575784 377.106164 
L 129.416152 367.109371 
L 129.216334 357.112578 
L 128.975219 347.115785 
L 128.695138 337.118992 
L 128.380743 327.1222 
L 128.380743 327.1222 
L 128.163086 317.125407 
L 127.928032 307.128614 
L 127.675851 297.131821 
L 127.407089 287.135028 
L 127.1244 277.138235 
L 126.832843 267.141442 
L 126.809739 266.305396 
L 126.582569 257.144649 
L 126.334658 247.147856 
L 126.074978 237.151064 
L 125.789695 227.154271 
L 125.466625 217.157478 
L 125.238735 210.770633 
L 125.07286 207.160685 
L 124.603783 197.163892 
L 124.123728 187.167099 
L 123.66773 177.605049 
L 123.603521 177.170306 
L 122.285018 167.173513 
L 122.096726 165.671298 
L 121.984008 167.173513 
L 121.277846 177.170306 
L 120.671092 187.167099 
L 120.525722 189.759014 
L 120.32913 197.163892 
L 120.079136 207.160685 
L 119.849906 217.157478 
L 119.64161 227.154271 
L 119.453473 237.151064 
L 119.283836 247.147856 
L 119.130598 257.144649 
L 118.991604 267.141442 
L 118.954717 269.912087 
L 118.852066 277.138235 
L 118.713642 287.135028 
L 118.577252 297.131821 
L 118.439114 307.128614 
L 118.296298 317.125407 
L 118.148281 327.1222 
L 117.997568 337.118992 
L 117.848646 347.115785 
L 117.706046 357.112578 
L 117.572829 367.109371 
L 117.450037 377.106164 
L 117.383713 382.655781 
L 117.287015 387.102957 
L 117.062201 397.09975 
L 116.840704 407.096543 
L 116.624492 417.093336 
L 116.419221 427.090128 
L 116.231345 437.086921 
L 116.06571 447.083714 
L 115.924583 457.080507 
L 115.812709 466.613637 
L 115.798689 467.0773 
L 115.534251 477.074093 
L 115.354445 487.070886 
L 115.258047 497.067679 
L 115.251351 507.064471 
L 115.356041 517.061264 
L 115.622945 527.058057 
L 115.812709 531.198468 
L 115.999477 537.05485 
L 116.636526 547.051643 
L 117.383713 553.537063 
L 118.299863 557.048436 
z
M 120.104494 547.051643 
L 118.954717 546.451559 
L 117.493309 537.05485 
L 117.383713 535.846086 
L 116.777217 527.058057 
L 116.426805 517.061264 
L 116.273377 507.064471 
L 116.235374 497.067679 
L 116.275471 487.070886 
L 116.378183 477.074093 
L 116.539215 467.0773 
L 116.759512 457.080507 
L 117.041108 447.083714 
L 117.383713 437.086921 
L 117.383713 437.086921 
L 117.565473 427.090128 
L 117.768815 417.093336 
L 117.992046 407.096543 
L 118.232339 397.09975 
L 118.487003 387.102957 
L 118.75548 377.106164 
L 118.954717 369.881696 
L 119.016153 367.109371 
L 119.240653 357.112578 
L 119.490761 347.115785 
L 119.766581 337.118992 
L 120.065815 327.1222 
L 120.38302 317.125407 
L 120.525722 312.490886 
L 120.768901 307.128614 
L 121.229934 297.131821 
L 121.724759 287.135028 
L 122.096726 279.836511 
L 123.66773 280.06735 
L 124.116381 287.135028 
L 124.811667 297.131821 
L 125.238735 302.833957 
L 125.435666 307.128614 
L 125.898719 317.125407 
L 126.3315 327.1222 
L 126.733087 337.118992 
L 126.809739 338.998188 
L 127.136061 347.115785 
L 127.497729 357.112578 
L 127.803378 367.109371 
L 128.052737 377.106164 
L 128.249708 387.102957 
L 128.380743 395.664895 
L 128.414085 397.09975 
L 128.609308 407.096543 
L 128.744331 417.093336 
L 128.814769 427.090128 
L 128.811144 437.086921 
L 128.717114 447.083714 
L 128.50367 457.080507 
L 128.380743 460.574712 
L 128.272321 467.0773 
L 128.023513 477.074093 
L 127.632304 487.070886 
L 126.98329 497.067679 
L 126.809739 499.182657 
L 126.387618 507.064471 
L 125.540149 517.061264 
L 125.238735 519.900495 
L 124.547196 527.058057 
L 123.66773 533.952539 
L 123.140151 537.05485 
L 122.096726 543.19981 
L 120.602101 547.051643 
L 120.525722 547.315348 
z
" clip-path="url(#pad08b0107c)" style="fill: #d7e9d7; fill-opacity: 0.5"/>
    <path d="M 120.525722 547.315348 
L 120.602101 547.051643 
L 122.096726 543.19981 
L 123.140151 537.05485 
L 123.66773 533.952539 
L 124.547196 527.058057 
L 125.238735 519.900495 
L 125.540149 517.061264 
L 126.387618 507.064471 
L 126.809739 499.182657 
L 126.98329 497.067679 
L 127.632304 487.070886 
L 128.023513 477.074093 
L 128.272321 467.0773 
L 128.380743 460.574712 
L 128.50367 457.080507 
L 128.717114 447.083714 
L 128.811144 437.086921 
L 128.814769 427.090128 
L 128.744331 417.093336 
L 128.609308 407.096543 
L 128.414085 397.09975 
L 128.380743 395.664895 
L 128.249708 387.102957 
L 128.052737 377.106164 
L 127.803378 367.109371 
L 127.497729 357.112578 
L 127.136061 347.115785 
L 126.809739 338.998188 
L 126.733087 337.118992 
L 126.3315 327.1222 
L 125.898719 317.125407 
L 125.435666 307.128614 
L 125.238735 302.833957 
L 124.811667 297.131821 
L 124.116381 287.135028 
L 123.66773 280.06735 
L 122.096726 279.836511 
L 121.724759 287.135028 
L 121.229934 297.131821 
L 120.768901 307.128614 
L 120.525722 312.490886 
L 120.38302 317.125407 
L 120.065815 327.1222 
L 119.766581 337.118992 
L 119.490761 347.115785 
L 119.240653 357.112578 
L 119.016153 367.109371 
L 118.954717 369.881696 
L 118.75548 377.106164 
L 118.487003 387.102957 
L 118.232339 397.09975 
L 117.992046 407.096543 
L 117.768815 417.093336 
L 117.565473 427.090128 
L 117.383713 437.086921 
L 117.383713 437.086921 
L 117.041108 447.083714 
L 116.759512 457.080507 
L 116.539215 467.0773 
L 116.378183 477.074093 
L 116.275471 487.070886 
L 116.235374 497.067679 
L 116.273377 507.064471 
L 116.426805 517.061264 
L 116.777217 527.058057 
L 117.383713 535.846086 
L 117.493309 537.05485 
L 118.954717 546.451559 
L 120.104494 547.051643 
z
M 120.501266 537.05485 
L 118.954717 534.189211 
L 118.127227 527.058057 
L 117.545441 517.061264 
L 117.383713 510.739015 
L 117.273881 507.064471 
L 117.155802 497.067679 
L 117.185102 487.070886 
L 117.333223 477.074093 
L 117.383713 474.963261 
L 117.487589 467.0773 
L 117.661136 457.080507 
L 117.879504 447.083714 
L 118.145415 437.086921 
L 118.460436 427.090128 
L 118.823545 417.093336 
L 118.954717 413.50929 
L 119.138676 407.096543 
L 119.43839 397.09975 
L 119.768376 387.102957 
L 120.130179 377.106164 
L 120.525722 367.109371 
L 120.525722 367.109371 
L 121.031785 357.112578 
L 121.614492 347.115785 
L 122.096726 339.61773 
L 123.039546 337.118992 
L 123.66773 335.37518 
L 123.842783 337.118992 
L 124.887721 347.115785 
L 125.238735 350.383928 
L 125.619607 357.112578 
L 126.139911 367.109371 
L 126.576831 377.106164 
L 126.809739 383.376579 
L 126.945372 387.102957 
L 127.265492 397.09975 
L 127.513932 407.096543 
L 127.694737 417.093336 
L 127.808431 427.090128 
L 127.852871 437.086921 
L 127.823044 447.083714 
L 127.708191 457.080507 
L 127.485125 467.0773 
L 127.105582 477.074093 
L 126.809739 482.323172 
L 126.638414 487.070886 
L 126.142152 497.067679 
L 125.341466 507.064471 
L 125.238735 508.141973 
L 124.468349 517.061264 
L 123.66773 523.845401 
L 123.151314 527.058057 
L 122.096726 533.423336 
L 120.539929 537.05485 
L 120.525722 537.097925 
z
" clip-path="url(#pad08b0107c)" style="fill: #c6e1c6; fill-opacity: 0.5"/>
    <path d="M 120.525722 537.097925 
L 120.539929 537.05485 
L 122.096726 533.423336 
L 123.151314 527.058057 
L 123.66773 523.845401 
L 124.468349 517.061264 
L 125.238735 508.141973 
L 125.341466 507.064471 
L 126.142152 497.067679 
L 126.638414 487.070886 
L 126.809739 482.323172 
L 127.105582 477.074093 
L 127.485125 467.0773 
L 127.708191 457.080507 
L 127.823044 447.083714 
L 127.852871 437.086921 
L 127.808431 427.090128 
L 127.694737 417.093336 
L 127.513932 407.096543 
L 127.265492 397.09975 
L 126.945372 387.102957 
L 126.809739 383.376579 
L 126.576831 377.106164 
L 126.139911 367.109371 
L 125.619607 357.112578 
L 125.238735 350.383928 
L 124.887721 347.115785 
L 123.842783 337.118992 
L 123.66773 335.37518 
L 123.039546 337.118992 
L 122.096726 339.61773 
L 121.614492 347.115785 
L 121.031785 357.112578 
L 120.525722 367.109371 
L 120.525722 367.109371 
L 120.130179 377.106164 
L 119.768376 387.102957 
L 119.43839 397.09975 
L 119.138676 407.096543 
L 118.954717 413.50929 
L 118.823545 417.093336 
L 118.460436 427.090128 
L 118.145415 437.086921 
L 117.879504 447.083714 
L 117.661136 457.080507 
L 117.487589 467.0773 
L 117.383713 474.963261 
L 117.333223 477.074093 
L 117.185102 487.070886 
L 117.155802 497.067679 
L 117.273881 507.064471 
L 117.383713 510.739015 
L 117.545441 517.061264 
L 118.127227 527.058057 
L 118.954717 534.189211 
L 120.501266 537.05485 
z
M 120.03345 527.058057 
L 118.954717 522.438686 
L 118.504952 517.061264 
L 118.048598 507.064471 
L 117.868242 497.067679 
L 117.843121 487.070886 
L 117.919897 477.074093 
L 118.07694 467.0773 
L 118.308135 457.080507 
L 118.614469 447.083714 
L 118.954717 438.093585 
L 118.985298 437.086921 
L 119.298541 427.090128 
L 119.656962 417.093336 
L 120.065062 407.096543 
L 120.525722 397.09975 
L 120.525722 397.09975 
L 121.0875 387.102957 
L 121.724003 377.106164 
L 122.096726 371.580784 
L 123.418745 367.109371 
L 123.66773 366.219665 
L 123.772901 367.109371 
L 124.969998 377.106164 
L 125.238735 379.478118 
L 125.658467 387.102957 
L 126.118244 397.09975 
L 126.472543 407.096543 
L 126.728621 417.093336 
L 126.809739 421.710281 
L 126.917122 427.090128 
L 127.025058 437.086921 
L 127.023162 447.083714 
L 126.894306 457.080507 
L 126.809739 460.151275 
L 126.687332 467.0773 
L 126.408082 477.074093 
L 125.979834 487.070886 
L 125.303234 497.067679 
L 125.238735 497.844624 
L 124.544321 507.064471 
L 123.66773 515.301034 
L 123.40332 517.061264 
L 122.096726 525.2367 
L 121.160566 527.058057 
L 120.525722 528.61485 
z
" clip-path="url(#pad08b0107c)" style="fill: #afd6af; fill-opacity: 0.5"/>
    <path d="M 120.525722 528.61485 
L 121.160566 527.058057 
L 122.096726 525.2367 
L 123.40332 517.061264 
L 123.66773 515.301034 
L 124.544321 507.064471 
L 125.238735 497.844624 
L 125.303234 497.067679 
L 125.979834 487.070886 
L 126.408082 477.074093 
L 126.687332 467.0773 
L 126.809739 460.151275 
L 126.894306 457.080507 
L 127.023162 447.083714 
L 127.025058 437.086921 
L 126.917122 427.090128 
L 126.809739 421.710281 
L 126.728621 417.093336 
L 126.472543 407.096543 
L 126.118244 397.09975 
L 125.658467 387.102957 
L 125.238735 379.478118 
L 124.969998 377.106164 
L 123.772901 367.109371 
L 123.66773 366.219665 
L 123.418745 367.109371 
L 122.096726 371.580784 
L 121.724003 377.106164 
L 121.0875 387.102957 
L 120.525722 397.09975 
L 120.525722 397.09975 
L 120.065062 407.096543 
L 119.656962 417.093336 
L 119.298541 427.090128 
L 118.985298 437.086921 
L 118.954717 438.093585 
L 118.614469 447.083714 
L 118.308135 457.080507 
L 118.07694 467.0773 
L 117.919897 477.074093 
L 117.843121 487.070886 
L 117.868242 497.067679 
L 118.048598 507.064471 
L 118.504952 517.061264 
L 118.954717 522.438686 
L 120.03345 527.058057 
z
M 120.027728 517.061264 
L 118.954717 507.235726 
L 118.945113 507.064471 
L 118.624727 497.067679 
L 118.537116 487.070886 
L 118.60434 477.074093 
L 118.793759 467.0773 
L 118.954717 461.505824 
L 119.059833 457.080507 
L 119.350497 447.083714 
L 119.702829 437.086921 
L 120.123146 427.090128 
L 120.525722 418.732565 
L 120.629126 417.093336 
L 121.257851 407.096543 
L 121.966218 397.09975 
L 122.096726 395.265363 
L 123.66773 389.767201 
L 124.51414 397.09975 
L 125.238735 404.661996 
L 125.356969 407.096543 
L 125.774368 417.093336 
L 126.066127 427.090128 
L 126.237297 437.086921 
L 126.292349 447.083714 
L 126.233035 457.080507 
L 126.052052 467.0773 
L 125.722318 477.074093 
L 125.238735 486.11211 
L 125.191018 487.070886 
L 124.552167 497.067679 
L 123.66773 506.643297 
L 123.609735 507.064471 
L 122.096726 517.061264 
L 122.096726 517.061264 
L 120.525722 519.575478 
z
" clip-path="url(#pad08b0107c)" style="fill: #94c994; fill-opacity: 0.5"/>
    <path d="M 120.525722 519.575478 
L 122.096726 517.061264 
L 122.096726 517.061264 
L 123.609735 507.064471 
L 123.66773 506.643297 
L 124.552167 497.067679 
L 125.191018 487.070886 
L 125.238735 486.11211 
L 125.722318 477.074093 
L 126.052052 467.0773 
L 126.233035 457.080507 
L 126.292349 447.083714 
L 126.237297 437.086921 
L 126.066127 427.090128 
L 125.774368 417.093336 
L 125.356969 407.096543 
L 125.238735 404.661996 
L 124.51414 397.09975 
L 123.66773 389.767201 
L 122.096726 395.265363 
L 121.966218 397.09975 
L 121.257851 407.096543 
L 120.629126 417.093336 
L 120.525722 418.732565 
L 120.123146 427.090128 
L 119.702829 437.086921 
L 119.350497 447.083714 
L 119.059833 457.080507 
L 118.954717 461.505824 
L 118.793759 467.0773 
L 118.60434 477.074093 
L 118.537116 487.070886 
L 118.624727 497.067679 
L 118.945113 507.064471 
L 118.954717 507.235726 
L 120.027728 517.061264 
z
M 120.216343 507.064471 
L 119.529093 497.067679 
L 119.313497 487.070886 
L 119.328831 477.074093 
L 119.481186 467.0773 
L 119.735748 457.080507 
L 120.083325 447.083714 
L 120.525722 437.086921 
L 120.525722 437.086921 
L 121.158732 427.090128 
L 121.867581 417.093336 
L 122.096726 413.981534 
L 123.66773 409.563061 
L 124.391138 417.093336 
L 125.069857 427.090128 
L 125.238735 431.002982 
L 125.402211 437.086921 
L 125.532237 447.083714 
L 125.509868 457.080507 
L 125.323487 467.0773 
L 125.238735 469.396419 
L 124.971006 477.074093 
L 124.459484 487.070886 
L 123.711652 497.067679 
L 123.66773 497.543209 
L 122.356657 507.064471 
L 122.096726 508.781895 
L 120.525722 509.507151 
z
" clip-path="url(#pad08b0107c)" style="fill: #75b975; fill-opacity: 0.5"/>
    <path d="M 120.525722 509.507151 
L 122.096726 508.781895 
L 122.356657 507.064471 
L 123.66773 497.543209 
L 123.711652 497.067679 
L 124.459484 487.070886 
L 124.971006 477.074093 
L 125.238735 469.396419 
L 125.323487 467.0773 
L 125.509868 457.080507 
L 125.532237 447.083714 
L 125.402211 437.086921 
L 125.238735 431.002982 
L 125.069857 427.090128 
L 124.391138 417.093336 
L 123.66773 409.563061 
L 122.096726 413.981534 
L 121.867581 417.093336 
L 121.158732 427.090128 
L 120.525722 437.086921 
L 120.525722 437.086921 
L 120.083325 447.083714 
L 119.735748 457.080507 
L 119.481186 467.0773 
L 119.328831 477.074093 
L 119.313497 487.070886 
L 119.529093 497.067679 
L 120.216343 507.064471 
z
M 120.498054 497.067679 
L 120.102537 487.070886 
L 120.035198 477.074093 
L 120.165496 467.0773 
L 120.442293 457.080507 
L 120.525722 454.896844 
L 120.95412 447.083714 
L 121.582688 437.086921 
L 122.096726 429.854521 
L 123.66773 427.090128 
L 124.310063 437.086921 
L 124.638918 447.083714 
L 124.712065 457.080507 
L 124.574743 467.0773 
L 124.244314 477.074093 
L 123.6948 487.070886 
L 123.66773 487.430009 
L 122.49268 497.067679 
L 122.096726 499.920718 
L 120.525722 497.426216 
z
" clip-path="url(#pad08b0107c)" style="fill: #53a953; fill-opacity: 0.5"/>
    <path d="M 120.525722 497.426216 
L 122.096726 499.920718 
L 122.49268 497.067679 
L 123.66773 487.430009 
L 123.6948 487.070886 
L 124.244314 477.074093 
L 124.574743 467.0773 
L 124.712065 457.080507 
L 124.638918 447.083714 
L 124.310063 437.086921 
L 123.66773 427.090128 
L 122.096726 429.854521 
L 121.582688 437.086921 
L 120.95412 447.083714 
L 120.525722 454.896844 
L 120.442293 457.080507 
L 120.165496 467.0773 
L 120.035198 477.074093 
L 120.102537 487.070886 
L 120.498054 497.067679 
z
M 121.116213 487.070886 
L 120.672138 477.074093 
L 120.835926 467.0773 
L 121.226331 457.080507 
L 121.758659 447.083714 
L 122.096726 441.880092 
L 123.66773 442.125529 
L 123.884224 447.083714 
L 124.060482 457.080507 
L 123.981937 467.0773 
L 123.66773 477.074093 
L 123.66773 477.074093 
L 122.66274 487.070886 
L 122.096726 491.81174 
z
" clip-path="url(#pad08b0107c)" style="fill: #349934; fill-opacity: 0.5"/>
    <path d="M 122.096726 491.81174 
L 122.66274 487.070886 
L 123.66773 477.074093 
L 123.66773 477.074093 
L 123.981937 467.0773 
L 124.060482 457.080507 
L 123.884224 447.083714 
L 123.66773 442.125529 
L 122.096726 441.880092 
L 121.758659 447.083714 
L 121.226331 457.080507 
L 120.835926 467.0773 
L 120.672138 477.074093 
L 121.116213 487.070886 
z
" clip-path="url(#pad08b0107c)" style="fill: #128912; fill-opacity: 0.5"/>
   </g>
   <g id="matplotlib.axis_1">
    <g id="xtick_1">
     <g id="line2d_1">
      <defs>
       <path id="m262cf5f29e" d="M 0 0 
L 0 3.5 
" style="stroke: #000000; stroke-width: 0.8"/>
      </defs>
      <g>
       <use xlink:href="#m262cf5f29e" x="162.818627" y="499.48" style="stroke: #000000; stroke-width: 0.8"/>
      </g>
     </g>
     <g id="text_1">
      <!-- 5 -->
      <g transform="translate(155.819877 523.196563) scale(0.22 -0.22)">
       <defs>
        <path id="DejaVuSans-35" d="M 691 4666 
L 3169 4666 
L 3169 4134 
L 1269 4134 
L 1269 2991 
Q 1406 3038 1543 3061 
Q 1681 3084 1819 3084 
Q 2600 3084 3056 2656 
Q 3513 2228 3513 1497 
Q 3513 744 3044 326 
Q 2575 -91 1722 -91 
Q 1428 -91 1123 -41 
Q 819 9 494 109 
L 494 744 
Q 775 591 1075 516 
Q 1375 441 1709 441 
Q 2250 441 2565 725 
Q 2881 1009 2881 1497 
Q 2881 1984 2565 2268 
Q 2250 2553 1709 2553 
Q 1456 2553 1204 2497 
Q 953 2441 691 2322 
L 691 4666 
z
" transform="scale(0.015625)"/>
       </defs>
       <use xlink:href="#DejaVuSans-35"/>
      </g>
     </g>
    </g>
    <g id="xtick_2">
     <g id="line2d_2">
      <g>
       <use xlink:href="#m262cf5f29e" x="241.918341" y="499.48" style="stroke: #000000; stroke-width: 0.8"/>
      </g>
     </g>
     <g id="text_2">
      <!-- 10 -->
      <g transform="translate(227.920841 523.196563) scale(0.22 -0.22)">
       <defs>
        <path id="DejaVuSans-31" d="M 794 531 
L 1825 531 
L 1825 4091 
L 703 3866 
L 703 4441 
L 1819 4666 
L 2450 4666 
L 2450 531 
L 3481 531 
L 3481 0 
L 794 0 
L 794 531 
z
" transform="scale(0.015625)"/>
        <path id="DejaVuSans-30" d="M 2034 4250 
Q 1547 4250 1301 3770 
Q 1056 3291 1056 2328 
Q 1056 1369 1301 889 
Q 1547 409 2034 409 
Q 2525 409 2770 889 
Q 3016 1369 3016 2328 
Q 3016 3291 2770 3770 
Q 2525 4250 2034 4250 
z
M 2034 4750 
Q 2819 4750 3233 4129 
Q 3647 3509 3647 2328 
Q 3647 1150 3233 529 
Q 2819 -91 2034 -91 
Q 1250 -91 836 529 
Q 422 1150 422 2328 
Q 422 3509 836 4129 
Q 1250 4750 2034 4750 
z
" transform="scale(0.015625)"/>
       </defs>
       <use xlink:href="#DejaVuSans-31"/>
       <use xlink:href="#DejaVuSans-30" x="63.623047"/>
      </g>
     </g>
    </g>
    <g id="xtick_3">
     <g id="line2d_3">
      <g>
       <use xlink:href="#m262cf5f29e" x="321.018054" y="499.48" style="stroke: #000000; stroke-width: 0.8"/>
      </g>
     </g>
     <g id="text_3">
      <!-- 15 -->
      <g transform="translate(307.020554 523.196563) scale(0.22 -0.22)">
       <use xlink:href="#DejaVuSans-31"/>
       <use xlink:href="#DejaVuSans-35" x="63.623047"/>
      </g>
     </g>
    </g>
    <g id="xtick_4">
     <g id="line2d_4">
      <g>
       <use xlink:href="#m262cf5f29e" x="400.117767" y="499.48" style="stroke: #000000; stroke-width: 0.8"/>
      </g>
     </g>
     <g id="text_4">
      <!-- 20 -->
      <g transform="translate(386.120267 523.196563) scale(0.22 -0.22)">
       <defs>
        <path id="DejaVuSans-32" d="M 1228 531 
L 3431 531 
L 3431 0 
L 469 0 
L 469 531 
Q 828 903 1448 1529 
Q 2069 2156 2228 2338 
Q 2531 2678 2651 2914 
Q 2772 3150 2772 3378 
Q 2772 3750 2511 3984 
Q 2250 4219 1831 4219 
Q 1534 4219 1204 4116 
Q 875 4013 500 3803 
L 500 4441 
Q 881 4594 1212 4672 
Q 1544 4750 1819 4750 
Q 2544 4750 2975 4387 
Q 3406 4025 3406 3419 
Q 3406 3131 3298 2873 
Q 3191 2616 2906 2266 
Q 2828 2175 2409 1742 
Q 1991 1309 1228 531 
z
" transform="scale(0.015625)"/>
       </defs>
       <use xlink:href="#DejaVuSans-32"/>
       <use xlink:href="#DejaVuSans-30" x="63.623047"/>
      </g>
     </g>
    </g>
    <g id="xtick_5">
     <g id="line2d_5">
      <g>
       <use xlink:href="#m262cf5f29e" x="479.217481" y="499.48" style="stroke: #000000; stroke-width: 0.8"/>
      </g>
     </g>
     <g id="text_5">
      <!-- 25 -->
      <g transform="translate(465.219981 523.196563) scale(0.22 -0.22)">
       <use xlink:href="#DejaVuSans-32"/>
       <use xlink:href="#DejaVuSans-35" x="63.623047"/>
      </g>
     </g>
    </g>
    <g id="xtick_6">
     <g id="line2d_6">
      <g>
       <use xlink:href="#m262cf5f29e" x="558.317194" y="499.48" style="stroke: #000000; stroke-width: 0.8"/>
      </g>
     </g>
     <g id="text_6">
      <!-- 30 -->
      <g transform="translate(544.319694 523.196563) scale(0.22 -0.22)">
       <defs>
        <path id="DejaVuSans-33" d="M 2597 2516 
Q 3050 2419 3304 2112 
Q 3559 1806 3559 1356 
Q 3559 666 3084 287 
Q 2609 -91 1734 -91 
Q 1441 -91 1130 -33 
Q 819 25 488 141 
L 488 750 
Q 750 597 1062 519 
Q 1375 441 1716 441 
Q 2309 441 2620 675 
Q 2931 909 2931 1356 
Q 2931 1769 2642 2001 
Q 2353 2234 1838 2234 
L 1294 2234 
L 1294 2753 
L 1863 2753 
Q 2328 2753 2575 2939 
Q 2822 3125 2822 3475 
Q 2822 3834 2567 4026 
Q 2313 4219 1838 4219 
Q 1578 4219 1281 4162 
Q 984 4106 628 3988 
L 628 4550 
Q 988 4650 1302 4700 
Q 1616 4750 1894 4750 
Q 2613 4750 3031 4423 
Q 3450 4097 3450 3541 
Q 3450 3153 3228 2886 
Q 3006 2619 2597 2516 
z
" transform="scale(0.015625)"/>
       </defs>
       <use xlink:href="#DejaVuSans-33"/>
       <use xlink:href="#DejaVuSans-30" x="63.623047"/>
      </g>
     </g>
    </g>
    <g id="xtick_7">
     <g id="line2d_7">
      <g>
       <use xlink:href="#m262cf5f29e" x="637.416908" y="499.48" style="stroke: #000000; stroke-width: 0.8"/>
      </g>
     </g>
     <g id="text_7">
      <!-- 35 -->
      <g transform="translate(623.419408 523.196563) scale(0.22 -0.22)">
       <use xlink:href="#DejaVuSans-33"/>
       <use xlink:href="#DejaVuSans-35" x="63.623047"/>
      </g>
     </g>
    </g>
    <g id="text_8">
     <!-- Energy Uncertainties -->
     <g transform="translate(274.662187 548.488438) scale(0.22 -0.22)">
      <defs>
       <path id="DejaVuSans-45" d="M 628 4666 
L 3578 4666 
L 3578 4134 
L 1259 4134 
L 1259 2753 
L 3481 2753 
L 3481 2222 
L 1259 2222 
L 1259 531 
L 3634 531 
L 3634 0 
L 628 0 
L 628 4666 
z
" transform="scale(0.015625)"/>
       <path id="DejaVuSans-6e" d="M 3513 2113 
L 3513 0 
L 2938 0 
L 2938 2094 
Q 2938 2591 2744 2837 
Q 2550 3084 2163 3084 
Q 1697 3084 1428 2787 
Q 1159 2491 1159 1978 
L 1159 0 
L 581 0 
L 581 3500 
L 1159 3500 
L 1159 2956 
Q 1366 3272 1645 3428 
Q 1925 3584 2291 3584 
Q 2894 3584 3203 3211 
Q 3513 2838 3513 2113 
z
" transform="scale(0.015625)"/>
       <path id="DejaVuSans-65" d="M 3597 1894 
L 3597 1613 
L 953 1613 
Q 991 1019 1311 708 
Q 1631 397 2203 397 
Q 2534 397 2845 478 
Q 3156 559 3463 722 
L 3463 178 
Q 3153 47 2828 -22 
Q 2503 -91 2169 -91 
Q 1331 -91 842 396 
Q 353 884 353 1716 
Q 353 2575 817 3079 
Q 1281 3584 2069 3584 
Q 2775 3584 3186 3129 
Q 3597 2675 3597 1894 
z
M 3022 2063 
Q 3016 2534 2758 2815 
Q 2500 3097 2075 3097 
Q 1594 3097 1305 2825 
Q 1016 2553 972 2059 
L 3022 2063 
z
" transform="scale(0.015625)"/>
       <path id="DejaVuSans-72" d="M 2631 2963 
Q 2534 3019 2420 3045 
Q 2306 3072 2169 3072 
Q 1681 3072 1420 2755 
Q 1159 2438 1159 1844 
L 1159 0 
L 581 0 
L 581 3500 
L 1159 3500 
L 1159 2956 
Q 1341 3275 1631 3429 
Q 1922 3584 2338 3584 
Q 2397 3584 2469 3576 
Q 2541 3569 2628 3553 
L 2631 2963 
z
" transform="scale(0.015625)"/>
       <path id="DejaVuSans-67" d="M 2906 1791 
Q 2906 2416 2648 2759 
Q 2391 3103 1925 3103 
Q 1463 3103 1205 2759 
Q 947 2416 947 1791 
Q 947 1169 1205 825 
Q 1463 481 1925 481 
Q 2391 481 2648 825 
Q 2906 1169 2906 1791 
z
M 3481 434 
Q 3481 -459 3084 -895 
Q 2688 -1331 1869 -1331 
Q 1566 -1331 1297 -1286 
Q 1028 -1241 775 -1147 
L 775 -588 
Q 1028 -725 1275 -790 
Q 1522 -856 1778 -856 
Q 2344 -856 2625 -561 
Q 2906 -266 2906 331 
L 2906 616 
Q 2728 306 2450 153 
Q 2172 0 1784 0 
Q 1141 0 747 490 
Q 353 981 353 1791 
Q 353 2603 747 3093 
Q 1141 3584 1784 3584 
Q 2172 3584 2450 3431 
Q 2728 3278 2906 2969 
L 2906 3500 
L 3481 3500 
L 3481 434 
z
" transform="scale(0.015625)"/>
       <path id="DejaVuSans-79" d="M 2059 -325 
Q 1816 -950 1584 -1140 
Q 1353 -1331 966 -1331 
L 506 -1331 
L 506 -850 
L 844 -850 
Q 1081 -850 1212 -737 
Q 1344 -625 1503 -206 
L 1606 56 
L 191 3500 
L 800 3500 
L 1894 763 
L 2988 3500 
L 3597 3500 
L 2059 -325 
z
" transform="scale(0.015625)"/>
       <path id="DejaVuSans-20" transform="scale(0.015625)"/>
       <path id="DejaVuSans-55" d="M 556 4666 
L 1191 4666 
L 1191 1831 
Q 1191 1081 1462 751 
Q 1734 422 2344 422 
Q 2950 422 3222 751 
Q 3494 1081 3494 1831 
L 3494 4666 
L 4128 4666 
L 4128 1753 
Q 4128 841 3676 375 
Q 3225 -91 2344 -91 
Q 1459 -91 1007 375 
Q 556 841 556 1753 
L 556 4666 
z
" transform="scale(0.015625)"/>
       <path id="DejaVuSans-63" d="M 3122 3366 
L 3122 2828 
Q 2878 2963 2633 3030 
Q 2388 3097 2138 3097 
Q 1578 3097 1268 2742 
Q 959 2388 959 1747 
Q 959 1106 1268 751 
Q 1578 397 2138 397 
Q 2388 397 2633 464 
Q 2878 531 3122 666 
L 3122 134 
Q 2881 22 2623 -34 
Q 2366 -91 2075 -91 
Q 1284 -91 818 406 
Q 353 903 353 1747 
Q 353 2603 823 3093 
Q 1294 3584 2113 3584 
Q 2378 3584 2631 3529 
Q 2884 3475 3122 3366 
z
" transform="scale(0.015625)"/>
       <path id="DejaVuSans-74" d="M 1172 4494 
L 1172 3500 
L 2356 3500 
L 2356 3053 
L 1172 3053 
L 1172 1153 
Q 1172 725 1289 603 
Q 1406 481 1766 481 
L 2356 481 
L 2356 0 
L 1766 0 
Q 1100 0 847 248 
Q 594 497 594 1153 
L 594 3053 
L 172 3053 
L 172 3500 
L 594 3500 
L 594 4494 
L 1172 4494 
z
" transform="scale(0.015625)"/>
       <path id="DejaVuSans-61" d="M 2194 1759 
Q 1497 1759 1228 1600 
Q 959 1441 959 1056 
Q 959 750 1161 570 
Q 1363 391 1709 391 
Q 2188 391 2477 730 
Q 2766 1069 2766 1631 
L 2766 1759 
L 2194 1759 
z
M 3341 1997 
L 3341 0 
L 2766 0 
L 2766 531 
Q 2569 213 2275 61 
Q 1981 -91 1556 -91 
Q 1019 -91 701 211 
Q 384 513 384 1019 
Q 384 1609 779 1909 
Q 1175 2209 1959 2209 
L 2766 2209 
L 2766 2266 
Q 2766 2663 2505 2880 
Q 2244 3097 1772 3097 
Q 1472 3097 1187 3025 
Q 903 2953 641 2809 
L 641 3341 
Q 956 3463 1253 3523 
Q 1550 3584 1831 3584 
Q 2591 3584 2966 3190 
Q 3341 2797 3341 1997 
z
" transform="scale(0.015625)"/>
       <path id="DejaVuSans-69" d="M 603 3500 
L 1178 3500 
L 1178 0 
L 603 0 
L 603 3500 
z
M 603 4863 
L 1178 4863 
L 1178 4134 
L 603 4134 
L 603 4863 
z
" transform="scale(0.015625)"/>
       <path id="DejaVuSans-73" d="M 2834 3397 
L 2834 2853 
Q 2591 2978 2328 3040 
Q 2066 3103 1784 3103 
Q 1356 3103 1142 2972 
Q 928 2841 928 2578 
Q 928 2378 1081 2264 
Q 1234 2150 1697 2047 
L 1894 2003 
Q 2506 1872 2764 1633 
Q 3022 1394 3022 966 
Q 3022 478 2636 193 
Q 2250 -91 1575 -91 
Q 1294 -91 989 -36 
Q 684 19 347 128 
L 347 722 
Q 666 556 975 473 
Q 1284 391 1588 391 
Q 1994 391 2212 530 
Q 2431 669 2431 922 
Q 2431 1156 2273 1281 
Q 2116 1406 1581 1522 
L 1381 1569 
Q 847 1681 609 1914 
Q 372 2147 372 2553 
Q 372 3047 722 3315 
Q 1072 3584 1716 3584 
Q 2034 3584 2315 3537 
Q 2597 3491 2834 3397 
z
" transform="scale(0.015625)"/>
      </defs>
      <use xlink:href="#DejaVuSans-45"/>
      <use xlink:href="#DejaVuSans-6e" x="63.183594"/>
      <use xlink:href="#DejaVuSans-65" x="126.5625"/>
      <use xlink:href="#DejaVuSans-72" x="188.085938"/>
      <use xlink:href="#DejaVuSans-67" x="227.449219"/>
      <use xlink:href="#DejaVuSans-79" x="290.925781"/>
      <use xlink:href="#DejaVuSans-20" x="350.105469"/>
      <use xlink:href="#DejaVuSans-55" x="381.892578"/>
      <use xlink:href="#DejaVuSans-6e" x="455.085938"/>
      <use xlink:href="#DejaVuSans-63" x="518.464844"/>
      <use xlink:href="#DejaVuSans-65" x="573.445312"/>
      <use xlink:href="#DejaVuSans-72" x="634.96875"/>
      <use xlink:href="#DejaVuSans-74" x="676.082031"/>
      <use xlink:href="#DejaVuSans-61" x="715.291016"/>
      <use xlink:href="#DejaVuSans-69" x="776.570312"/>
      <use xlink:href="#DejaVuSans-6e" x="804.353516"/>
      <use xlink:href="#DejaVuSans-74" x="867.732422"/>
      <use xlink:href="#DejaVuSans-69" x="906.941406"/>
      <use xlink:href="#DejaVuSans-65" x="934.724609"/>
      <use xlink:href="#DejaVuSans-73" x="996.248047"/>
     </g>
    </g>
   </g>
   <g id="matplotlib.axis_2">
    <g id="ytick_1">
     <g id="line2d_8">
      <defs>
       <path id="m6e021d64e5" d="M 0 0 
L -3.5 0 
" style="stroke: #000000; stroke-width: 0.8"/>
      </defs>
      <g>
       <use xlink:href="#m6e021d64e5" x="83.72" y="438.047232" style="stroke: #000000; stroke-width: 0.8"/>
      </g>
     </g>
     <g id="text_9">
      <!-- 5 -->
      <g transform="translate(62.7225 446.405513) scale(0.22 -0.22)">
       <use xlink:href="#DejaVuSans-35"/>
      </g>
     </g>
    </g>
    <g id="ytick_2">
     <g id="line2d_9">
      <g>
       <use xlink:href="#m6e021d64e5" x="83.72" y="376.613621" style="stroke: #000000; stroke-width: 0.8"/>
      </g>
     </g>
     <g id="text_10">
      <!-- 10 -->
      <g transform="translate(48.725 384.971902) scale(0.22 -0.22)">
       <use xlink:href="#DejaVuSans-31"/>
       <use xlink:href="#DejaVuSans-30" x="63.623047"/>
      </g>
     </g>
    </g>
    <g id="ytick_3">
     <g id="line2d_10">
      <g>
       <use xlink:href="#m6e021d64e5" x="83.72" y="315.180009" style="stroke: #000000; stroke-width: 0.8"/>
      </g>
     </g>
     <g id="text_11">
      <!-- 15 -->
      <g transform="translate(48.725 323.538291) scale(0.22 -0.22)">
       <use xlink:href="#DejaVuSans-31"/>
       <use xlink:href="#DejaVuSans-35" x="63.623047"/>
      </g>
     </g>
    </g>
    <g id="ytick_4">
     <g id="line2d_11">
      <g>
       <use xlink:href="#m6e021d64e5" x="83.72" y="253.746398" style="stroke: #000000; stroke-width: 0.8"/>
      </g>
     </g>
     <g id="text_12">
      <!-- 20 -->
      <g transform="translate(48.725 262.104679) scale(0.22 -0.22)">
       <use xlink:href="#DejaVuSans-32"/>
       <use xlink:href="#DejaVuSans-30" x="63.623047"/>
      </g>
     </g>
    </g>
    <g id="ytick_5">
     <g id="line2d_12">
      <g>
       <use xlink:href="#m6e021d64e5" x="83.72" y="192.312786" style="stroke: #000000; stroke-width: 0.8"/>
      </g>
     </g>
     <g id="text_13">
      <!-- 25 -->
      <g transform="translate(48.725 200.671068) scale(0.22 -0.22)">
       <use xlink:href="#DejaVuSans-32"/>
       <use xlink:href="#DejaVuSans-35" x="63.623047"/>
      </g>
     </g>
    </g>
    <g id="ytick_6">
     <g id="line2d_13">
      <g>
       <use xlink:href="#m6e021d64e5" x="83.72" y="130.879175" style="stroke: #000000; stroke-width: 0.8"/>
      </g>
     </g>
     <g id="text_14">
      <!-- 30 -->
      <g transform="translate(48.725 139.237456) scale(0.22 -0.22)">
       <use xlink:href="#DejaVuSans-33"/>
       <use xlink:href="#DejaVuSans-30" x="63.623047"/>
      </g>
     </g>
    </g>
    <g id="ytick_7">
     <g id="line2d_14">
      <g>
       <use xlink:href="#m6e021d64e5" x="83.72" y="69.445564" style="stroke: #000000; stroke-width: 0.8"/>
      </g>
     </g>
     <g id="text_15">
      <!-- 35 -->
      <g transform="translate(48.725 77.803845) scale(0.22 -0.22)">
       <use xlink:href="#DejaVuSans-33"/>
       <use xlink:href="#DejaVuSans-35" x="63.623047"/>
      </g>
     </g>
    </g>
    <g id="text_16">
     <!-- Energy Errors [kJ/mol] -->
     <g transform="translate(40.149688 382.068281) rotate(-90) scale(0.22 -0.22)">
      <defs>
       <path id="DejaVuSans-6f" d="M 1959 3097 
Q 1497 3097 1228 2736 
Q 959 2375 959 1747 
Q 959 1119 1226 758 
Q 1494 397 1959 397 
Q 2419 397 2687 759 
Q 2956 1122 2956 1747 
Q 2956 2369 2687 2733 
Q 2419 3097 1959 3097 
z
M 1959 3584 
Q 2709 3584 3137 3096 
Q 3566 2609 3566 1747 
Q 3566 888 3137 398 
Q 2709 -91 1959 -91 
Q 1206 -91 779 398 
Q 353 888 353 1747 
Q 353 2609 779 3096 
Q 1206 3584 1959 3584 
z
" transform="scale(0.015625)"/>
       <path id="DejaVuSans-5b" d="M 550 4863 
L 1875 4863 
L 1875 4416 
L 1125 4416 
L 1125 -397 
L 1875 -397 
L 1875 -844 
L 550 -844 
L 550 4863 
z
" transform="scale(0.015625)"/>
       <path id="DejaVuSans-6b" d="M 581 4863 
L 1159 4863 
L 1159 1991 
L 2875 3500 
L 3609 3500 
L 1753 1863 
L 3688 0 
L 2938 0 
L 1159 1709 
L 1159 0 
L 581 0 
L 581 4863 
z
" transform="scale(0.015625)"/>
       <path id="DejaVuSans-4a" d="M 628 4666 
L 1259 4666 
L 1259 325 
Q 1259 -519 939 -900 
Q 619 -1281 -91 -1281 
L -331 -1281 
L -331 -750 
L -134 -750 
Q 284 -750 456 -515 
Q 628 -281 628 325 
L 628 4666 
z
" transform="scale(0.015625)"/>
       <path id="DejaVuSans-2f" d="M 1625 4666 
L 2156 4666 
L 531 -594 
L 0 -594 
L 1625 4666 
z
" transform="scale(0.015625)"/>
       <path id="DejaVuSans-6d" d="M 3328 2828 
Q 3544 3216 3844 3400 
Q 4144 3584 4550 3584 
Q 5097 3584 5394 3201 
Q 5691 2819 5691 2113 
L 5691 0 
L 5113 0 
L 5113 2094 
Q 5113 2597 4934 2840 
Q 4756 3084 4391 3084 
Q 3944 3084 3684 2787 
Q 3425 2491 3425 1978 
L 3425 0 
L 2847 0 
L 2847 2094 
Q 2847 2600 2669 2842 
Q 2491 3084 2119 3084 
Q 1678 3084 1418 2786 
Q 1159 2488 1159 1978 
L 1159 0 
L 581 0 
L 581 3500 
L 1159 3500 
L 1159 2956 
Q 1356 3278 1631 3431 
Q 1906 3584 2284 3584 
Q 2666 3584 2933 3390 
Q 3200 3197 3328 2828 
z
" transform="scale(0.015625)"/>
       <path id="DejaVuSans-6c" d="M 603 4863 
L 1178 4863 
L 1178 0 
L 603 0 
L 603 4863 
z
" transform="scale(0.015625)"/>
       <path id="DejaVuSans-5d" d="M 1947 4863 
L 1947 -844 
L 622 -844 
L 622 -397 
L 1369 -397 
L 1369 4416 
L 622 4416 
L 622 4863 
L 1947 4863 
z
" transform="scale(0.015625)"/>
      </defs>
      <use xlink:href="#DejaVuSans-45"/>
      <use xlink:href="#DejaVuSans-6e" x="63.183594"/>
      <use xlink:href="#DejaVuSans-65" x="126.5625"/>
      <use xlink:href="#DejaVuSans-72" x="188.085938"/>
      <use xlink:href="#DejaVuSans-67" x="227.449219"/>
      <use xlink:href="#DejaVuSans-79" x="290.925781"/>
      <use xlink:href="#DejaVuSans-20" x="350.105469"/>
      <use xlink:href="#DejaVuSans-45" x="381.892578"/>
      <use xlink:href="#DejaVuSans-72" x="445.076172"/>
      <use xlink:href="#DejaVuSans-72" x="484.439453"/>
      <use xlink:href="#DejaVuSans-6f" x="523.302734"/>
      <use xlink:href="#DejaVuSans-72" x="584.484375"/>
      <use xlink:href="#DejaVuSans-73" x="625.597656"/>
      <use xlink:href="#DejaVuSans-20" x="677.697266"/>
      <use xlink:href="#DejaVuSans-5b" x="709.484375"/>
      <use xlink:href="#DejaVuSans-6b" x="748.498047"/>
      <use xlink:href="#DejaVuSans-4a" x="806.408203"/>
      <use xlink:href="#DejaVuSans-2f" x="835.900391"/>
      <use xlink:href="#DejaVuSans-6d" x="869.591797"/>
      <use xlink:href="#DejaVuSans-6f" x="967.003906"/>
      <use xlink:href="#DejaVuSans-6c" x="1028.185547"/>
      <use xlink:href="#DejaVuSans-5d" x="1055.96875"/>
     </g>
    </g>
   </g>
   <g id="line2d_15">
    <path d="M 83.72 499.48 
L 696.24 23.76 
" clip-path="url(#pad08b0107c)" style="fill: none; stroke-dasharray: 5.55,2.4; stroke-dashoffset: 0; stroke: #ff0000; stroke-width: 1.5"/>
   </g>
   <g id="patch_3">
    <path d="M 83.72 499.48 
L 83.72 23.76 
" style="fill: none; stroke: #000000; stroke-width: 0.8; stroke-linejoin: miter; stroke-linecap: square"/>
   </g>
   <g id="patch_4">
    <path d="M 696.24 499.48 
L 696.24 23.76 
" style="fill: none; stroke: #000000; stroke-width: 0.8; stroke-linejoin: miter; stroke-linecap: square"/>
   </g>
   <g id="patch_5">
    <path d="M 83.72 499.48 
L 696.24 499.48 
" style="fill: none; stroke: #000000; stroke-width: 0.8; stroke-linejoin: miter; stroke-linecap: square"/>
   </g>
   <g id="patch_6">
    <path d="M 83.72 23.76 
L 696.24 23.76 
" style="fill: none; stroke: #000000; stroke-width: 0.8; stroke-linejoin: miter; stroke-linecap: square"/>
   </g>
   <g id="text_17">
    <!-- Correlation in: 0.280 -->
    <g transform="translate(132.7216 46.696812) scale(0.22 -0.22)">
     <defs>
      <path id="DejaVuSans-43" d="M 4122 4306 
L 4122 3641 
Q 3803 3938 3442 4084 
Q 3081 4231 2675 4231 
Q 1875 4231 1450 3742 
Q 1025 3253 1025 2328 
Q 1025 1406 1450 917 
Q 1875 428 2675 428 
Q 3081 428 3442 575 
Q 3803 722 4122 1019 
L 4122 359 
Q 3791 134 3420 21 
Q 3050 -91 2638 -91 
Q 1578 -91 968 557 
Q 359 1206 359 2328 
Q 359 3453 968 4101 
Q 1578 4750 2638 4750 
Q 3056 4750 3426 4639 
Q 3797 4528 4122 4306 
z
" transform="scale(0.015625)"/>
      <path id="DejaVuSans-3a" d="M 750 794 
L 1409 794 
L 1409 0 
L 750 0 
L 750 794 
z
M 750 3309 
L 1409 3309 
L 1409 2516 
L 750 2516 
L 750 3309 
z
" transform="scale(0.015625)"/>
      <path id="DejaVuSans-2e" d="M 684 794 
L 1344 794 
L 1344 0 
L 684 0 
L 684 794 
z
" transform="scale(0.015625)"/>
      <path id="DejaVuSans-38" d="M 2034 2216 
Q 1584 2216 1326 1975 
Q 1069 1734 1069 1313 
Q 1069 891 1326 650 
Q 1584 409 2034 409 
Q 2484 409 2743 651 
Q 3003 894 3003 1313 
Q 3003 1734 2745 1975 
Q 2488 2216 2034 2216 
z
M 1403 2484 
Q 997 2584 770 2862 
Q 544 3141 544 3541 
Q 544 4100 942 4425 
Q 1341 4750 2034 4750 
Q 2731 4750 3128 4425 
Q 3525 4100 3525 3541 
Q 3525 3141 3298 2862 
Q 3072 2584 2669 2484 
Q 3125 2378 3379 2068 
Q 3634 1759 3634 1313 
Q 3634 634 3220 271 
Q 2806 -91 2034 -91 
Q 1263 -91 848 271 
Q 434 634 434 1313 
Q 434 1759 690 2068 
Q 947 2378 1403 2484 
z
M 1172 3481 
Q 1172 3119 1398 2916 
Q 1625 2713 2034 2713 
Q 2441 2713 2670 2916 
Q 2900 3119 2900 3481 
Q 2900 3844 2670 4047 
Q 2441 4250 2034 4250 
Q 1625 4250 1398 4047 
Q 1172 3844 1172 3481 
z
" transform="scale(0.015625)"/>
     </defs>
     <use xlink:href="#DejaVuSans-43"/>
     <use xlink:href="#DejaVuSans-6f" x="69.824219"/>
     <use xlink:href="#DejaVuSans-72" x="131.005859"/>
     <use xlink:href="#DejaVuSans-72" x="170.369141"/>
     <use xlink:href="#DejaVuSans-65" x="209.232422"/>
     <use xlink:href="#DejaVuSans-6c" x="270.755859"/>
     <use xlink:href="#DejaVuSans-61" x="298.539062"/>
     <use xlink:href="#DejaVuSans-74" x="359.818359"/>
     <use xlink:href="#DejaVuSans-69" x="399.027344"/>
     <use xlink:href="#DejaVuSans-6f" x="426.810547"/>
     <use xlink:href="#DejaVuSans-6e" x="487.992188"/>
     <use xlink:href="#DejaVuSans-20" x="551.371094"/>
     <use xlink:href="#DejaVuSans-69" x="583.158203"/>
     <use xlink:href="#DejaVuSans-6e" x="610.941406"/>
     <use xlink:href="#DejaVuSans-3a" x="674.320312"/>
     <use xlink:href="#DejaVuSans-20" x="708.011719"/>
     <use xlink:href="#DejaVuSans-30" x="739.798828"/>
     <use xlink:href="#DejaVuSans-2e" x="803.421875"/>
     <use xlink:href="#DejaVuSans-32" x="835.208984"/>
     <use xlink:href="#DejaVuSans-38" x="898.832031"/>
     <use xlink:href="#DejaVuSans-30" x="962.455078"/>
    </g>
    <!-- Correlation Out: 0.452 -->
    <g transform="translate(132.7216 71.332) scale(0.22 -0.22)">
     <defs>
      <path id="DejaVuSans-4f" d="M 2522 4238 
Q 1834 4238 1429 3725 
Q 1025 3213 1025 2328 
Q 1025 1447 1429 934 
Q 1834 422 2522 422 
Q 3209 422 3611 934 
Q 4013 1447 4013 2328 
Q 4013 3213 3611 3725 
Q 3209 4238 2522 4238 
z
M 2522 4750 
Q 3503 4750 4090 4092 
Q 4678 3434 4678 2328 
Q 4678 1225 4090 567 
Q 3503 -91 2522 -91 
Q 1538 -91 948 565 
Q 359 1222 359 2328 
Q 359 3434 948 4092 
Q 1538 4750 2522 4750 
z
" transform="scale(0.015625)"/>
      <path id="DejaVuSans-75" d="M 544 1381 
L 544 3500 
L 1119 3500 
L 1119 1403 
Q 1119 906 1312 657 
Q 1506 409 1894 409 
Q 2359 409 2629 706 
Q 2900 1003 2900 1516 
L 2900 3500 
L 3475 3500 
L 3475 0 
L 2900 0 
L 2900 538 
Q 2691 219 2414 64 
Q 2138 -91 1772 -91 
Q 1169 -91 856 284 
Q 544 659 544 1381 
z
M 1991 3584 
L 1991 3584 
z
" transform="scale(0.015625)"/>
      <path id="DejaVuSans-34" d="M 2419 4116 
L 825 1625 
L 2419 1625 
L 2419 4116 
z
M 2253 4666 
L 3047 4666 
L 3047 1625 
L 3713 1625 
L 3713 1100 
L 3047 1100 
L 3047 0 
L 2419 0 
L 2419 1100 
L 313 1100 
L 313 1709 
L 2253 4666 
z
" transform="scale(0.015625)"/>
     </defs>
     <use xlink:href="#DejaVuSans-43"/>
     <use xlink:href="#DejaVuSans-6f" x="69.824219"/>
     <use xlink:href="#DejaVuSans-72" x="131.005859"/>
     <use xlink:href="#DejaVuSans-72" x="170.369141"/>
     <use xlink:href="#DejaVuSans-65" x="209.232422"/>
     <use xlink:href="#DejaVuSans-6c" x="270.755859"/>
     <use xlink:href="#DejaVuSans-61" x="298.539062"/>
     <use xlink:href="#DejaVuSans-74" x="359.818359"/>
     <use xlink:href="#DejaVuSans-69" x="399.027344"/>
     <use xlink:href="#DejaVuSans-6f" x="426.810547"/>
     <use xlink:href="#DejaVuSans-6e" x="487.992188"/>
     <use xlink:href="#DejaVuSans-20" x="551.371094"/>
     <use xlink:href="#DejaVuSans-4f" x="583.158203"/>
     <use xlink:href="#DejaVuSans-75" x="661.869141"/>
     <use xlink:href="#DejaVuSans-74" x="725.248047"/>
     <use xlink:href="#DejaVuSans-3a" x="764.457031"/>
     <use xlink:href="#DejaVuSans-20" x="798.148438"/>
     <use xlink:href="#DejaVuSans-30" x="829.935547"/>
     <use xlink:href="#DejaVuSans-2e" x="893.558594"/>
     <use xlink:href="#DejaVuSans-34" x="925.345703"/>
     <use xlink:href="#DejaVuSans-35" x="988.96875"/>
     <use xlink:href="#DejaVuSans-32" x="1052.591797"/>
    </g>
   </g>
   <g id="legend_1">
    <g id="patch_7">
     <path d="M 407.0225 105.94375 
L 680.84 105.94375 
Q 685.24 105.94375 685.24 101.54375 
L 685.24 39.16 
Q 685.24 34.76 680.84 34.76 
L 407.0225 34.76 
Q 402.6225 34.76 402.6225 39.16 
L 402.6225 101.54375 
Q 402.6225 105.94375 407.0225 105.94375 
z
" style="fill: #ffffff; opacity: 0.8; stroke: #cccccc; stroke-linejoin: miter"/>
    </g>
    <g id="line2d_16">
     <defs>
      <path id="mf52d748762" d="M 0 2.5 
C 0.663008 2.5 1.29895 2.236584 1.767767 1.767767 
C 2.236584 1.29895 2.5 0.663008 2.5 0 
C 2.5 -0.663008 2.236584 -1.29895 1.767767 -1.767767 
C 1.29895 -2.236584 0.663008 -2.5 0 -2.5 
C -0.663008 -2.5 -1.29895 -2.236584 -1.767767 -1.767767 
C -2.236584 -1.29895 -2.5 -0.663008 -2.5 0 
C -2.5 0.663008 -2.236584 1.29895 -1.767767 1.767767 
C -1.29895 2.236584 -0.663008 2.5 0 2.5 
z
" style="stroke: #ffffff"/>
     </defs>
     <g>
      <use xlink:href="#mf52d748762" x="433.4225" y="52.576562" style="fill: #0000ff; stroke: #ffffff"/>
     </g>
    </g>
    <g id="text_18">
     <!-- In Distribution -->
     <g transform="translate(473.0225 60.276562) scale(0.22 -0.22)">
      <defs>
       <path id="DejaVuSans-49" d="M 628 4666 
L 1259 4666 
L 1259 0 
L 628 0 
L 628 4666 
z
" transform="scale(0.015625)"/>
       <path id="DejaVuSans-44" d="M 1259 4147 
L 1259 519 
L 2022 519 
Q 2988 519 3436 956 
Q 3884 1394 3884 2338 
Q 3884 3275 3436 3711 
Q 2988 4147 2022 4147 
L 1259 4147 
z
M 628 4666 
L 1925 4666 
Q 3281 4666 3915 4102 
Q 4550 3538 4550 2338 
Q 4550 1131 3912 565 
Q 3275 0 1925 0 
L 628 0 
L 628 4666 
z
" transform="scale(0.015625)"/>
       <path id="DejaVuSans-62" d="M 3116 1747 
Q 3116 2381 2855 2742 
Q 2594 3103 2138 3103 
Q 1681 3103 1420 2742 
Q 1159 2381 1159 1747 
Q 1159 1113 1420 752 
Q 1681 391 2138 391 
Q 2594 391 2855 752 
Q 3116 1113 3116 1747 
z
M 1159 2969 
Q 1341 3281 1617 3432 
Q 1894 3584 2278 3584 
Q 2916 3584 3314 3078 
Q 3713 2572 3713 1747 
Q 3713 922 3314 415 
Q 2916 -91 2278 -91 
Q 1894 -91 1617 61 
Q 1341 213 1159 525 
L 1159 0 
L 581 0 
L 581 4863 
L 1159 4863 
L 1159 2969 
z
" transform="scale(0.015625)"/>
      </defs>
      <use xlink:href="#DejaVuSans-49"/>
      <use xlink:href="#DejaVuSans-6e" x="29.492188"/>
      <use xlink:href="#DejaVuSans-20" x="92.871094"/>
      <use xlink:href="#DejaVuSans-44" x="124.658203"/>
      <use xlink:href="#DejaVuSans-69" x="201.660156"/>
      <use xlink:href="#DejaVuSans-73" x="229.443359"/>
      <use xlink:href="#DejaVuSans-74" x="281.542969"/>
      <use xlink:href="#DejaVuSans-72" x="320.751953"/>
      <use xlink:href="#DejaVuSans-69" x="361.865234"/>
      <use xlink:href="#DejaVuSans-62" x="389.648438"/>
      <use xlink:href="#DejaVuSans-75" x="453.125"/>
      <use xlink:href="#DejaVuSans-74" x="516.503906"/>
      <use xlink:href="#DejaVuSans-69" x="555.712891"/>
      <use xlink:href="#DejaVuSans-6f" x="583.496094"/>
      <use xlink:href="#DejaVuSans-6e" x="644.677734"/>
     </g>
    </g>
    <g id="line2d_17">
     <defs>
      <path id="mdc5a690b29" d="M 0 2.5 
C 0.663008 2.5 1.29895 2.236584 1.767767 1.767767 
C 2.236584 1.29895 2.5 0.663008 2.5 0 
C 2.5 -0.663008 2.236584 -1.29895 1.767767 -1.767767 
C 1.29895 -2.236584 0.663008 -2.5 0 -2.5 
C -0.663008 -2.5 -1.29895 -2.236584 -1.767767 -1.767767 
C -2.236584 -1.29895 -2.5 -0.663008 -2.5 0 
C -2.5 0.663008 -2.236584 1.29895 -1.767767 1.767767 
C -1.29895 2.236584 -0.663008 2.5 0 2.5 
z
" style="stroke: #ffffff"/>
     </defs>
     <g>
      <use xlink:href="#mdc5a690b29" x="433.4225" y="84.868437" style="fill: #008000; stroke: #ffffff"/>
     </g>
    </g>
    <g id="text_19">
     <!-- Out of Distribution -->
     <g transform="translate(473.0225 92.568437) scale(0.22 -0.22)">
      <defs>
       <path id="DejaVuSans-66" d="M 2375 4863 
L 2375 4384 
L 1825 4384 
Q 1516 4384 1395 4259 
Q 1275 4134 1275 3809 
L 1275 3500 
L 2222 3500 
L 2222 3053 
L 1275 3053 
L 1275 0 
L 697 0 
L 697 3053 
L 147 3053 
L 147 3500 
L 697 3500 
L 697 3744 
Q 697 4328 969 4595 
Q 1241 4863 1831 4863 
L 2375 4863 
z
" transform="scale(0.015625)"/>
      </defs>
      <use xlink:href="#DejaVuSans-4f"/>
      <use xlink:href="#DejaVuSans-75" x="78.710938"/>
      <use xlink:href="#DejaVuSans-74" x="142.089844"/>
      <use xlink:href="#DejaVuSans-20" x="181.298828"/>
      <use xlink:href="#DejaVuSans-6f" x="213.085938"/>
      <use xlink:href="#DejaVuSans-66" x="274.267578"/>
      <use xlink:href="#DejaVuSans-20" x="309.472656"/>
      <use xlink:href="#DejaVuSans-44" x="341.259766"/>
      <use xlink:href="#DejaVuSans-69" x="418.261719"/>
      <use xlink:href="#DejaVuSans-73" x="446.044922"/>
      <use xlink:href="#DejaVuSans-74" x="498.144531"/>
      <use xlink:href="#DejaVuSans-72" x="537.353516"/>
      <use xlink:href="#DejaVuSans-69" x="578.466797"/>
      <use xlink:href="#DejaVuSans-62" x="606.25"/>
      <use xlink:href="#DejaVuSans-75" x="669.726562"/>
      <use xlink:href="#DejaVuSans-74" x="733.105469"/>
      <use xlink:href="#DejaVuSans-69" x="772.314453"/>
      <use xlink:href="#DejaVuSans-6f" x="800.097656"/>
      <use xlink:href="#DejaVuSans-6e" x="861.279297"/>
     </g>
    </g>
   </g>
  </g>
 </g>
 <defs>
  <clipPath id="pad08b0107c">
   <rect x="83.72" y="23.76" width="612.52" height="475.72"/>
  </clipPath>
 </defs>
</svg>
