<?xml version="1.0" encoding="utf-8" standalone="no"?>
<!DOCTYPE svg PUBLIC "-//W3C//DTD SVG 1.1//EN"
  "http://www.w3.org/Graphics/SVG/1.1/DTD/svg11.dtd">
<svg xmlns:xlink="http://www.w3.org/1999/xlink" width="720pt" height="576pt" viewBox="0 0 720 576" xmlns="http://www.w3.org/2000/svg" version="1.1">
 <metadata>
  <rdf:RDF xmlns:dc="http://purl.org/dc/elements/1.1/" xmlns:cc="http://creativecommons.org/ns#" xmlns:rdf="http://www.w3.org/1999/02/22-rdf-syntax-ns#">
   <cc:Work>
    <dc:type rdf:resource="http://purl.org/dc/dcmitype/StillImage"/>
    <dc:date>2024-12-08T21:55:52.982506</dc:date>
    <dc:format>image/svg+xml</dc:format>
    <dc:creator>
     <cc:Agent>
      <dc:title>Matplotlib v3.8.4, https://matplotlib.org/</dc:title>
     </cc:Agent>
    </dc:creator>
   </cc:Work>
  </rdf:RDF>
 </metadata>
 <defs>
  <style type="text/css">*{stroke-linejoin: round; stroke-linecap: butt}</style>
 </defs>
 <g id="figure_1">
  <g id="patch_1">
   <path d="M 0 576 
L 720 576 
L 720 0 
L 0 0 
z
" style="fill: #ffffff"/>
  </g>
  <g id="axes_1">
   <g id="patch_2">
    <path d="M 90.65 499.48 
L 696.24 499.48 
L 696.24 23.76 
L 90.65 23.76 
z
" style="fill: #ffffff"/>
   </g>
   <g id="QuadContourSet_1">
    <path d="M 115.222355 490.978188 
L 119.612167 493.629824 
L 124.001979 494.203537 
L 128.391792 493.70845 
L 132.781604 492.247303 
L 136.499521 488.514024 
L 137.171417 487.925409 
L 141.536338 480.785904 
L 141.561229 480.742571 
L 145.565834 473.057784 
L 145.951041 472.165466 
L 149.351549 465.329664 
L 150.340854 462.78581 
L 152.511651 457.601544 
L 154.730666 450.395553 
L 154.895723 449.873424 
L 156.928816 442.145304 
L 158.251524 434.417184 
L 159.096802 426.689064 
L 159.120478 426.324762 
L 159.779421 418.960944 
L 160.056316 411.232824 
L 160.039108 403.504704 
L 159.819079 395.776584 
L 159.46151 388.048464 
L 159.120478 382.147458 
L 159.053552 380.320344 
L 158.750692 372.592224 
L 158.445733 364.864104 
L 158.177499 357.135984 
L 157.967686 349.407865 
L 157.805339 341.679745 
L 157.661795 333.951625 
L 157.51319 326.223505 
L 157.348577 318.495385 
L 157.166721 310.767265 
L 156.97215 303.039145 
L 156.773647 295.311025 
L 156.577272 287.582905 
L 156.369052 279.854785 
L 156.0993 272.126665 
L 155.678251 264.398545 
L 154.978358 256.670425 
L 154.730666 254.746293 
L 154.219592 248.942305 
L 153.36824 241.214185 
L 152.465785 233.486065 
L 151.656078 225.757945 
L 151.026427 218.029825 
L 150.618862 210.301705 
L 150.438887 202.573585 
L 150.416663 194.845465 
L 150.37067 187.117345 
L 150.340854 186.372005 
L 149.985401 179.389225 
L 148.79951 171.661105 
L 146.47163 163.932985 
L 145.951041 162.588311 
L 144.015063 156.204865 
L 141.561229 148.557915 
L 141.528185 148.476745 
L 139.510817 140.748625 
L 138.56978 133.020505 
L 138.205027 125.292385 
L 138.009691 117.564266 
L 137.584432 109.836146 
L 137.171417 106.551631 
L 136.280371 102.108026 
L 133.64616 94.379906 
L 132.781604 92.552183 
L 131.139371 94.379906 
L 128.391792 97.668706 
L 127.281759 102.108026 
L 125.580911 109.836146 
L 124.001979 115.544368 
L 123.530724 117.564266 
L 121.345281 125.292385 
L 119.612167 129.988856 
L 118.697603 133.020505 
L 116.379223 140.748625 
L 115.222355 145.044575 
L 114.543634 148.476745 
L 113.309235 156.204865 
L 112.392365 163.932985 
L 111.733138 171.661105 
L 111.210052 179.389225 
L 110.832542 184.712861 
L 110.623658 187.117345 
L 109.707146 194.845465 
L 108.669649 202.573585 
L 107.646131 210.301705 
L 106.728816 218.029825 
L 106.44273 220.458659 
L 105.467789 225.757945 
L 104.121801 233.486065 
L 102.965315 241.214185 
L 102.052918 248.5522 
L 101.977988 248.942305 
L 100.546366 256.670425 
L 99.457457 264.398545 
L 98.676182 272.126665 
L 98.156049 279.854785 
L 97.827885 287.582905 
L 97.663105 293.242654 
L 97.537802 295.311025 
L 97.097885 303.039145 
L 96.658923 310.767265 
L 96.200045 318.495385 
L 95.724518 326.223505 
L 95.249424 333.951625 
L 94.801263 341.679745 
L 94.409343 349.407865 
L 94.096653 357.135984 
L 93.874283 364.864104 
L 93.741791 372.592224 
L 93.691596 380.320344 
L 93.715687 388.048464 
L 93.813251 395.776584 
L 93.996397 403.504704 
L 94.291712 411.232824 
L 94.739072 418.960944 
L 95.392573 426.689064 
L 96.328447 434.417184 
L 97.663105 442.145304 
L 97.663105 442.145304 
L 98.5432 449.873424 
L 99.888462 457.601544 
L 102.021493 465.329664 
L 102.052918 465.431518 
L 104.146114 473.057784 
L 106.44273 478.579072 
L 107.561975 480.785904 
L 110.832542 486.311654 
L 113.018946 488.514024 
z
M 114.580784 465.329664 
L 110.832542 459.034788 
L 110.23248 457.601544 
L 107.565842 449.873424 
L 106.44273 445.167137 
L 105.651344 442.145304 
L 104.050891 434.417184 
L 102.968296 426.689064 
L 102.228424 418.960944 
L 102.052918 416.511929 
L 101.451088 411.232824 
L 100.821203 403.504704 
L 100.404711 395.776584 
L 100.157138 388.048464 
L 100.055264 380.320344 
L 100.089351 372.592224 
L 100.255924 364.864104 
L 100.550292 357.135984 
L 100.960612 349.407865 
L 101.467317 341.679745 
L 102.050473 333.951625 
L 102.052918 333.920348 
L 102.401289 326.223505 
L 102.792164 318.495385 
L 103.242546 310.767265 
L 103.78088 303.039145 
L 104.446021 295.311025 
L 105.291455 287.582905 
L 106.391304 279.854785 
L 106.44273 279.529949 
L 107.292921 272.126665 
L 108.341158 264.398545 
L 109.613334 256.670425 
L 110.832542 250.484372 
L 111.118592 248.942305 
L 112.569391 241.214185 
L 114.205282 233.486065 
L 115.222355 229.096754 
L 116.291967 225.757945 
L 118.74869 218.029825 
L 119.612167 215.283267 
L 124.001979 210.888956 
L 128.391792 215.54261 
L 129.694169 218.029825 
L 132.781604 224.1329 
L 133.655878 225.757945 
L 137.171417 232.428751 
L 137.63496 233.486065 
L 140.605303 241.214185 
L 141.561229 244.628378 
L 142.311829 248.942305 
L 143.404917 256.670425 
L 144.27102 264.398545 
L 144.947772 272.126665 
L 145.434426 279.854785 
L 145.748192 287.582905 
L 145.951041 295.311025 
L 145.951041 295.311025 
L 146.207063 303.039145 
L 146.523054 310.767265 
L 146.902348 318.495385 
L 147.277987 326.223505 
L 147.574309 333.951625 
L 147.762315 341.679745 
L 147.87073 349.407865 
L 147.965705 357.135984 
L 148.114384 364.864104 
L 148.341645 372.592224 
L 148.606637 380.320344 
L 148.821768 388.048464 
L 148.892817 395.776584 
L 148.742247 403.504704 
L 148.305843 411.232824 
L 147.511162 418.960944 
L 146.244907 426.689064 
L 145.951041 428.054365 
L 144.762184 434.417184 
L 142.78733 442.145304 
L 141.561229 445.928295 
L 140.319792 449.873424 
L 137.171417 457.350087 
L 137.04396 457.601544 
L 132.781604 464.366098 
L 131.77797 465.329664 
L 128.391792 468.462565 
L 124.001979 470.381459 
L 119.612167 469.896112 
L 115.222355 466.297994 
z
" clip-path="url(#p426bb803f8)" style="fill: #eef5fc"/>
    <path d="M 115.222355 466.297994 
L 119.612167 469.896112 
L 124.001979 470.381459 
L 128.391792 468.462565 
L 131.77797 465.329664 
L 132.781604 464.366098 
L 137.04396 457.601544 
L 137.171417 457.350087 
L 140.319792 449.873424 
L 141.561229 445.928295 
L 142.78733 442.145304 
L 144.762184 434.417184 
L 145.951041 428.054365 
L 146.244907 426.689064 
L 147.511162 418.960944 
L 148.305843 411.232824 
L 148.742247 403.504704 
L 148.892817 395.776584 
L 148.821768 388.048464 
L 148.606637 380.320344 
L 148.341645 372.592224 
L 148.114384 364.864104 
L 147.965705 357.135984 
L 147.87073 349.407865 
L 147.762315 341.679745 
L 147.574309 333.951625 
L 147.277987 326.223505 
L 146.902348 318.495385 
L 146.523054 310.767265 
L 146.207063 303.039145 
L 145.951041 295.311025 
L 145.951041 295.311025 
L 145.748192 287.582905 
L 145.434426 279.854785 
L 144.947772 272.126665 
L 144.27102 264.398545 
L 143.404917 256.670425 
L 142.311829 248.942305 
L 141.561229 244.628378 
L 140.605303 241.214185 
L 137.63496 233.486065 
L 137.171417 232.428751 
L 133.655878 225.757945 
L 132.781604 224.1329 
L 129.694169 218.029825 
L 128.391792 215.54261 
L 124.001979 210.888956 
L 119.612167 215.283267 
L 118.74869 218.029825 
L 116.291967 225.757945 
L 115.222355 229.096754 
L 114.205282 233.486065 
L 112.569391 241.214185 
L 111.118592 248.942305 
L 110.832542 250.484372 
L 109.613334 256.670425 
L 108.341158 264.398545 
L 107.292921 272.126665 
L 106.44273 279.529949 
L 106.391304 279.854785 
L 105.291455 287.582905 
L 104.446021 295.311025 
L 103.78088 303.039145 
L 103.242546 310.767265 
L 102.792164 318.495385 
L 102.401289 326.223505 
L 102.052918 333.920348 
L 102.050473 333.951625 
L 101.467317 341.679745 
L 100.960612 349.407865 
L 100.550292 357.135984 
L 100.255924 364.864104 
L 100.089351 372.592224 
L 100.055264 380.320344 
L 100.157138 388.048464 
L 100.404711 395.776584 
L 100.821203 403.504704 
L 101.451088 411.232824 
L 102.052918 416.511929 
L 102.228424 418.960944 
L 102.968296 426.689064 
L 104.050891 434.417184 
L 105.651344 442.145304 
L 106.44273 445.167137 
L 107.565842 449.873424 
L 110.23248 457.601544 
L 110.832542 459.034788 
L 114.580784 465.329664 
z
M 113.474885 449.873424 
L 110.832542 443.120502 
L 110.520531 442.145304 
L 108.448803 434.417184 
L 107.043781 426.689064 
L 106.44273 422.217125 
L 105.907695 418.960944 
L 104.947943 411.232824 
L 104.297645 403.504704 
L 103.870939 395.776584 
L 103.616193 388.048464 
L 103.505799 380.320344 
L 103.526278 372.592224 
L 103.669845 364.864104 
L 103.928378 357.135984 
L 104.289991 349.407865 
L 104.739248 341.679745 
L 105.262199 333.951625 
L 105.854904 326.223505 
L 106.44273 319.442202 
L 106.507854 318.495385 
L 107.095462 310.767265 
L 107.807487 303.039145 
L 108.6647 295.311025 
L 109.681737 287.582905 
L 110.832542 280.141199 
L 110.883016 279.854785 
L 112.286495 272.126665 
L 113.811642 264.398545 
L 115.222355 257.783571 
L 115.597459 256.670425 
L 118.237267 248.942305 
L 119.612167 245.038285 
L 124.001979 241.643769 
L 128.391792 246.263543 
L 129.635453 248.942305 
L 132.781604 256.317693 
L 132.92933 256.670425 
L 135.643918 264.398545 
L 137.171417 270.878483 
L 137.403947 272.126665 
L 138.571199 279.854785 
L 139.4359 287.582905 
L 140.103429 295.311025 
L 140.654387 303.039145 
L 141.149308 310.767265 
L 141.561229 317.531903 
L 141.632571 318.495385 
L 142.224679 326.223505 
L 142.72844 333.951625 
L 143.089267 341.679745 
L 143.30259 349.407865 
L 143.408319 357.135984 
L 143.464362 364.864104 
L 143.515637 372.592224 
L 143.564233 380.320344 
L 143.5536 388.048464 
L 143.381923 395.776584 
L 142.934219 403.504704 
L 142.104942 411.232824 
L 141.561229 414.680827 
L 141.054233 418.960944 
L 139.735175 426.689064 
L 137.764782 434.417184 
L 137.171417 436.295412 
L 135.426663 442.145304 
L 132.781604 448.196094 
L 131.815174 449.873424 
L 128.391792 454.799521 
L 124.001979 457.601544 
L 119.612167 457.299641 
L 115.222355 453.296701 
z
" clip-path="url(#p426bb803f8)" style="fill: #dceaf6"/>
    <path d="M 115.222355 453.296701 
L 119.612167 457.299641 
L 124.001979 457.601544 
L 128.391792 454.799521 
L 131.815174 449.873424 
L 132.781604 448.196094 
L 135.426663 442.145304 
L 137.171417 436.295412 
L 137.764782 434.417184 
L 139.735175 426.689064 
L 141.054233 418.960944 
L 141.561229 414.680827 
L 142.104942 411.232824 
L 142.934219 403.504704 
L 143.381923 395.776584 
L 143.5536 388.048464 
L 143.564233 380.320344 
L 143.515637 372.592224 
L 143.464362 364.864104 
L 143.408319 357.135984 
L 143.30259 349.407865 
L 143.089267 341.679745 
L 142.72844 333.951625 
L 142.224679 326.223505 
L 141.632571 318.495385 
L 141.561229 317.531903 
L 141.149308 310.767265 
L 140.654387 303.039145 
L 140.103429 295.311025 
L 139.4359 287.582905 
L 138.571199 279.854785 
L 137.403947 272.126665 
L 137.171417 270.878483 
L 135.643918 264.398545 
L 132.92933 256.670425 
L 132.781604 256.317693 
L 129.635453 248.942305 
L 128.391792 246.263543 
L 124.001979 241.643769 
L 119.612167 245.038285 
L 118.237267 248.942305 
L 115.597459 256.670425 
L 115.222355 257.783571 
L 113.811642 264.398545 
L 112.286495 272.126665 
L 110.883016 279.854785 
L 110.832542 280.141199 
L 109.681737 287.582905 
L 108.6647 295.311025 
L 107.807487 303.039145 
L 107.095462 310.767265 
L 106.507854 318.495385 
L 106.44273 319.442202 
L 105.854904 326.223505 
L 105.262199 333.951625 
L 104.739248 341.679745 
L 104.289991 349.407865 
L 103.928378 357.135984 
L 103.669845 364.864104 
L 103.526278 372.592224 
L 103.505799 380.320344 
L 103.616193 388.048464 
L 103.870939 395.776584 
L 104.297645 403.504704 
L 104.947943 411.232824 
L 105.907695 418.960944 
L 106.44273 422.217125 
L 107.043781 426.689064 
L 108.448803 434.417184 
L 110.520531 442.145304 
L 110.832542 443.120502 
L 113.474885 449.873424 
z
M 114.479076 442.145304 
L 111.776423 434.417184 
L 110.832542 430.682147 
L 109.890014 426.689064 
L 108.502078 418.960944 
L 107.539764 411.232824 
L 106.881503 403.504704 
L 106.447354 395.776584 
L 106.44273 395.645159 
L 106.083408 388.048464 
L 105.920903 380.320344 
L 105.939888 372.592224 
L 106.128534 364.864104 
L 106.44273 357.846568 
L 106.466523 357.135984 
L 106.819535 349.407865 
L 107.260852 341.679745 
L 107.782518 333.951625 
L 108.389153 326.223505 
L 109.099531 318.495385 
L 109.94077 310.767265 
L 110.832542 303.793433 
L 110.941912 303.039145 
L 112.172713 295.311025 
L 113.615414 287.582905 
L 115.222355 279.854785 
L 115.222355 279.854785 
L 117.803485 272.126665 
L 119.612167 266.964937 
L 122.410068 264.398545 
L 124.001979 262.927037 
L 125.330276 264.398545 
L 128.391792 267.731969 
L 130.06718 272.126665 
L 132.485844 279.854785 
L 132.781604 280.975734 
L 134.176907 287.582905 
L 135.431788 295.311025 
L 136.436572 303.039145 
L 137.171417 309.485391 
L 137.316052 310.767265 
L 138.194263 318.495385 
L 138.977388 326.223505 
L 139.620853 333.951625 
L 140.086143 341.679745 
L 140.368908 349.407865 
L 140.499528 357.135984 
L 140.524767 364.864104 
L 140.485227 372.592224 
L 140.39509 380.320344 
L 140.227743 388.048464 
L 139.914873 395.776584 
L 139.360641 403.504704 
L 138.453514 411.232824 
L 137.171417 418.402709 
L 137.092471 418.960944 
L 135.657073 426.689064 
L 133.456391 434.417184 
L 132.781604 436.2688 
L 130.155959 442.145304 
L 128.391792 445.220128 
L 124.001979 449.055431 
L 119.612167 448.868767 
L 115.222355 443.841622 
z
" clip-path="url(#p426bb803f8)" style="fill: #caddf0"/>
    <path d="M 115.222355 443.841622 
L 119.612167 448.868767 
L 124.001979 449.055431 
L 128.391792 445.220128 
L 130.155959 442.145304 
L 132.781604 436.2688 
L 133.456391 434.417184 
L 135.657073 426.689064 
L 137.092471 418.960944 
L 137.171417 418.402709 
L 138.453514 411.232824 
L 139.360641 403.504704 
L 139.914873 395.776584 
L 140.227743 388.048464 
L 140.39509 380.320344 
L 140.485227 372.592224 
L 140.524767 364.864104 
L 140.499528 357.135984 
L 140.368908 349.407865 
L 140.086143 341.679745 
L 139.620853 333.951625 
L 138.977388 326.223505 
L 138.194263 318.495385 
L 137.316052 310.767265 
L 137.171417 309.485391 
L 136.436572 303.039145 
L 135.431788 295.311025 
L 134.176907 287.582905 
L 132.781604 280.975734 
L 132.485844 279.854785 
L 130.06718 272.126665 
L 128.391792 267.731969 
L 125.330276 264.398545 
L 124.001979 262.927037 
L 122.410068 264.398545 
L 119.612167 266.964937 
L 117.803485 272.126665 
L 115.222355 279.854785 
L 115.222355 279.854785 
L 113.615414 287.582905 
L 112.172713 295.311025 
L 110.941912 303.039145 
L 110.832542 303.793433 
L 109.94077 310.767265 
L 109.099531 318.495385 
L 108.389153 326.223505 
L 107.782518 333.951625 
L 107.260852 341.679745 
L 106.819535 349.407865 
L 106.466523 357.135984 
L 106.44273 357.846568 
L 106.128534 364.864104 
L 105.939888 372.592224 
L 105.920903 380.320344 
L 106.083408 388.048464 
L 106.44273 395.645159 
L 106.447354 395.776584 
L 106.881503 403.504704 
L 107.539764 411.232824 
L 108.502078 418.960944 
L 109.890014 426.689064 
L 110.832542 430.682147 
L 111.776423 434.417184 
L 114.479076 442.145304 
z
M 116.069416 434.417184 
L 115.222355 432.894991 
L 113.297725 426.689064 
L 111.607767 418.960944 
L 110.832542 414.076261 
L 110.378672 411.232824 
L 109.467377 403.504704 
L 108.87034 395.776584 
L 108.515475 388.048464 
L 108.359404 380.320344 
L 108.378941 372.592224 
L 108.561055 364.864104 
L 108.894168 357.135984 
L 109.364733 349.407865 
L 109.960305 341.679745 
L 110.676565 333.951625 
L 110.832542 332.432566 
L 111.514792 326.223505 
L 112.516119 318.495385 
L 113.730354 310.767265 
L 115.201445 303.039145 
L 115.222355 302.935112 
L 117.628258 295.311025 
L 119.612167 289.714146 
L 122.001028 287.582905 
L 124.001979 285.658668 
L 125.486409 287.582905 
L 128.391792 291.64212 
L 129.419922 295.311025 
L 131.271838 303.039145 
L 132.781604 310.6947 
L 132.793785 310.767265 
L 134.080947 318.495385 
L 135.208331 326.223505 
L 136.144955 333.951625 
L 136.843887 341.679745 
L 137.171417 347.284419 
L 137.304521 349.407865 
L 137.557606 357.135984 
L 137.601032 364.864104 
L 137.483006 372.592224 
L 137.230917 380.320344 
L 137.171417 381.546312 
L 136.928441 388.048464 
L 136.506146 395.776584 
L 135.870006 403.504704 
L 134.911703 411.232824 
L 133.478414 418.960944 
L 132.781604 421.77381 
L 131.446274 426.689064 
L 128.391792 434.417184 
L 128.391792 434.417184 
L 124.001979 439.687275 
L 119.612167 439.582874 
z
" clip-path="url(#p426bb803f8)" style="fill: #aacfe5"/>
    <path d="M 119.612167 439.582874 
L 124.001979 439.687275 
L 128.391792 434.417184 
L 128.391792 434.417184 
L 131.446274 426.689064 
L 132.781604 421.77381 
L 133.478414 418.960944 
L 134.911703 411.232824 
L 135.870006 403.504704 
L 136.506146 395.776584 
L 136.928441 388.048464 
L 137.171417 381.546312 
L 137.230917 380.320344 
L 137.483006 372.592224 
L 137.601032 364.864104 
L 137.557606 357.135984 
L 137.304521 349.407865 
L 137.171417 347.284419 
L 136.843887 341.679745 
L 136.144955 333.951625 
L 135.208331 326.223505 
L 134.080947 318.495385 
L 132.793785 310.767265 
L 132.781604 310.6947 
L 131.271838 303.039145 
L 129.419922 295.311025 
L 128.391792 291.64212 
L 125.486409 287.582905 
L 124.001979 285.658668 
L 122.001028 287.582905 
L 119.612167 289.714146 
L 117.628258 295.311025 
L 115.222355 302.935112 
L 115.201445 303.039145 
L 113.730354 310.767265 
L 112.516119 318.495385 
L 111.514792 326.223505 
L 110.832542 332.432566 
L 110.676565 333.951625 
L 109.960305 341.679745 
L 109.364733 349.407865 
L 108.894168 357.135984 
L 108.561055 364.864104 
L 108.378941 372.592224 
L 108.359404 380.320344 
L 108.515475 388.048464 
L 108.87034 395.776584 
L 109.467377 403.504704 
L 110.378672 411.232824 
L 110.832542 414.076261 
L 111.607767 418.960944 
L 113.297725 426.689064 
L 115.222355 432.894991 
L 116.069416 434.417184 
z
M 116.267764 426.689064 
L 115.222355 424.190376 
L 113.893614 418.960944 
L 112.472344 411.232824 
L 111.490532 403.504704 
L 110.832542 395.776584 
L 110.832542 395.776584 
L 110.402167 388.048464 
L 110.215315 380.320344 
L 110.240733 372.592224 
L 110.460375 364.864104 
L 110.832542 357.652663 
L 110.859186 357.135984 
L 111.409621 349.407865 
L 112.118002 341.679745 
L 112.983148 333.951625 
L 114.022792 326.223505 
L 115.222355 318.811786 
L 115.300487 318.495385 
L 117.421597 310.767265 
L 119.612167 304.066049 
L 120.878808 303.039145 
L 124.001979 300.368736 
L 125.632017 303.039145 
L 128.391792 308.128217 
L 129.032174 310.767265 
L 130.763858 318.495385 
L 132.296792 326.223505 
L 132.781604 328.840136 
L 133.572531 333.951625 
L 134.530294 341.679745 
L 135.175413 349.407865 
L 135.525434 357.135984 
L 135.631321 364.864104 
L 135.551026 372.592224 
L 135.324344 380.320344 
L 134.955501 388.048464 
L 134.404405 395.776584 
L 133.585852 403.504704 
L 132.781604 408.791705 
L 132.405056 411.232824 
L 130.747968 418.960944 
L 128.391792 426.287688 
L 128.171214 426.689064 
L 124.001979 432.779582 
L 119.612167 432.672605 
z
" clip-path="url(#p426bb803f8)" style="fill: #81badb"/>
    <path d="M 119.612167 432.672605 
L 124.001979 432.779582 
L 128.171214 426.689064 
L 128.391792 426.287688 
L 130.747968 418.960944 
L 132.405056 411.232824 
L 132.781604 408.791705 
L 133.585852 403.504704 
L 134.404405 395.776584 
L 134.955501 388.048464 
L 135.324344 380.320344 
L 135.551026 372.592224 
L 135.631321 364.864104 
L 135.525434 357.135984 
L 135.175413 349.407865 
L 134.530294 341.679745 
L 133.572531 333.951625 
L 132.781604 328.840136 
L 132.296792 326.223505 
L 130.763858 318.495385 
L 129.032174 310.767265 
L 128.391792 308.128217 
L 125.632017 303.039145 
L 124.001979 300.368736 
L 120.878808 303.039145 
L 119.612167 304.066049 
L 117.421597 310.767265 
L 115.300487 318.495385 
L 115.222355 318.811786 
L 114.022792 326.223505 
L 112.983148 333.951625 
L 112.118002 341.679745 
L 111.409621 349.407865 
L 110.859186 357.135984 
L 110.832542 357.652663 
L 110.460375 364.864104 
L 110.240733 372.592224 
L 110.215315 380.320344 
L 110.402167 388.048464 
L 110.832542 395.776584 
L 110.832542 395.776584 
L 111.490532 403.504704 
L 112.472344 411.232824 
L 113.893614 418.960944 
L 115.222355 424.190376 
L 116.267764 426.689064 
z
M 117.600338 418.960944 
L 115.222355 411.245898 
L 115.219712 411.232824 
L 114.032305 403.504704 
L 113.252051 395.776584 
L 112.790852 388.048464 
L 112.598249 380.320344 
L 112.646679 372.592224 
L 112.92122 364.864104 
L 113.411131 357.135984 
L 114.105143 349.407865 
L 114.994035 341.679745 
L 115.222355 339.959307 
L 116.396804 333.951625 
L 118.216604 326.223505 
L 119.612167 321.204105 
L 122.825313 318.495385 
L 124.001979 317.516527 
L 124.487902 318.495385 
L 127.970824 326.223505 
L 128.391792 327.245425 
L 129.828671 333.951625 
L 131.229999 341.679745 
L 132.273016 349.407865 
L 132.781604 355.597884 
L 132.883958 357.135984 
L 133.101351 364.864104 
L 133.05185 372.592224 
L 132.781604 380.320344 
L 132.781604 380.320344 
L 132.327214 388.048464 
L 131.669451 395.776584 
L 130.711575 403.504704 
L 129.290541 411.232824 
L 128.391792 414.761005 
L 126.65004 418.960944 
L 124.001979 423.751598 
L 119.612167 423.49027 
z
" clip-path="url(#p426bb803f8)" style="fill: #56a0ce"/>
    <path d="M 119.612167 423.49027 
L 124.001979 423.751598 
L 126.65004 418.960944 
L 128.391792 414.761005 
L 129.290541 411.232824 
L 130.711575 403.504704 
L 131.669451 395.776584 
L 132.327214 388.048464 
L 132.781604 380.320344 
L 132.781604 380.320344 
L 133.05185 372.592224 
L 133.101351 364.864104 
L 132.883958 357.135984 
L 132.781604 355.597884 
L 132.273016 349.407865 
L 131.229999 341.679745 
L 129.828671 333.951625 
L 128.391792 327.245425 
L 127.970824 326.223505 
L 124.487902 318.495385 
L 124.001979 317.516527 
L 122.825313 318.495385 
L 119.612167 321.204105 
L 118.216604 326.223505 
L 116.396804 333.951625 
L 115.222355 339.959307 
L 114.994035 341.679745 
L 114.105143 349.407865 
L 113.411131 357.135984 
L 112.92122 364.864104 
L 112.646679 372.592224 
L 112.598249 380.320344 
L 112.790852 388.048464 
L 113.252051 395.776584 
L 114.032305 403.504704 
L 115.219712 411.232824 
L 115.222355 411.245898 
L 117.600338 418.960944 
z
M 118.648164 411.232824 
L 116.792632 403.504704 
L 115.622103 395.776584 
L 115.222355 391.252538 
L 115.010507 388.048464 
L 114.806165 380.320344 
L 114.882672 372.592224 
L 115.222355 364.864104 
L 115.222355 364.864104 
L 116.023262 357.135984 
L 117.147243 349.407865 
L 118.590642 341.679745 
L 119.612167 337.126322 
L 122.705192 333.951625 
L 124.001979 332.717323 
L 124.52418 333.951625 
L 127.485382 341.679745 
L 128.391792 344.463927 
L 129.203493 349.407865 
L 130.083168 357.135984 
L 130.53428 364.864104 
L 130.621483 372.592224 
L 130.418604 380.320344 
L 129.958872 388.048464 
L 129.211122 395.776584 
L 128.391792 401.44524 
L 127.933462 403.504704 
L 125.516166 411.232824 
L 124.001979 414.715399 
L 119.612167 414.051252 
z
" clip-path="url(#p426bb803f8)" style="fill: #3181bd"/>
    <path d="M 119.612167 414.051252 
L 124.001979 414.715399 
L 125.516166 411.232824 
L 127.933462 403.504704 
L 128.391792 401.44524 
L 129.211122 395.776584 
L 129.958872 388.048464 
L 130.418604 380.320344 
L 130.621483 372.592224 
L 130.53428 364.864104 
L 130.083168 357.135984 
L 129.203493 349.407865 
L 128.391792 344.463927 
L 127.485382 341.679745 
L 124.52418 333.951625 
L 124.001979 332.717323 
L 122.705192 333.951625 
L 119.612167 337.126322 
L 118.590642 341.679745 
L 117.147243 349.407865 
L 116.023262 357.135984 
L 115.222355 364.864104 
L 115.222355 364.864104 
L 114.882672 372.592224 
L 114.806165 380.320344 
L 115.010507 388.048464 
L 115.222355 391.252538 
L 115.622103 395.776584 
L 116.792632 403.504704 
L 118.648164 411.232824 
z
M 119.97512 403.504704 
L 119.612167 403.307988 
L 118.332203 395.776584 
L 117.605952 388.048464 
L 117.350642 380.320344 
L 117.513391 372.592224 
L 118.06929 364.864104 
L 118.99898 357.135984 
L 119.612167 353.3594 
L 122.386192 349.407865 
L 124.001979 347.463527 
L 124.661316 349.407865 
L 126.730236 357.135984 
L 127.968159 364.864104 
L 128.391792 372.592224 
L 128.173796 380.320344 
L 127.465887 388.048464 
L 126.282746 395.776584 
L 124.475284 403.504704 
L 124.001979 404.939419 
z
" clip-path="url(#p426bb803f8)" style="fill: #1561a9"/>
    <path d="M 124.001979 404.939419 
L 124.475284 403.504704 
L 126.282746 395.776584 
L 127.465887 388.048464 
L 128.173796 380.320344 
L 128.391792 372.592224 
L 127.968159 364.864104 
L 126.730236 357.135984 
L 124.661316 349.407865 
L 124.001979 347.463527 
L 122.386192 349.407865 
L 119.612167 353.3594 
L 118.99898 357.135984 
L 118.06929 364.864104 
L 117.513391 372.592224 
L 117.350642 380.320344 
L 117.605952 388.048464 
L 118.332203 395.776584 
L 119.612167 403.307988 
L 119.97512 403.504704 
z
" clip-path="url(#p426bb803f8)" style="fill: #084285"/>
   </g>
   <g id="matplotlib.axis_1">
    <g id="xtick_1">
     <g id="line2d_1">
      <defs>
       <path id="me2560ee5df" d="M 0 0 
L 0 3.5 
" style="stroke: #000000; stroke-width: 0.8"/>
      </defs>
      <g>
       <use xlink:href="#me2560ee5df" x="144.915781" y="499.48" style="stroke: #000000; stroke-width: 0.8"/>
      </g>
     </g>
     <g id="text_1">
      <!-- 2.6 -->
      <g transform="translate(127.422344 523.196563) scale(0.22 -0.22)">
       <defs>
        <path id="DejaVuSans-32" d="M 1228 531 
L 3431 531 
L 3431 0 
L 469 0 
L 469 531 
Q 828 903 1448 1529 
Q 2069 2156 2228 2338 
Q 2531 2678 2651 2914 
Q 2772 3150 2772 3378 
Q 2772 3750 2511 3984 
Q 2250 4219 1831 4219 
Q 1534 4219 1204 4116 
Q 875 4013 500 3803 
L 500 4441 
Q 881 4594 1212 4672 
Q 1544 4750 1819 4750 
Q 2544 4750 2975 4387 
Q 3406 4025 3406 3419 
Q 3406 3131 3298 2873 
Q 3191 2616 2906 2266 
Q 2828 2175 2409 1742 
Q 1991 1309 1228 531 
z
" transform="scale(0.015625)"/>
        <path id="DejaVuSans-2e" d="M 684 794 
L 1344 794 
L 1344 0 
L 684 0 
L 684 794 
z
" transform="scale(0.015625)"/>
        <path id="DejaVuSans-36" d="M 2113 2584 
Q 1688 2584 1439 2293 
Q 1191 2003 1191 1497 
Q 1191 994 1439 701 
Q 1688 409 2113 409 
Q 2538 409 2786 701 
Q 3034 994 3034 1497 
Q 3034 2003 2786 2293 
Q 2538 2584 2113 2584 
z
M 3366 4563 
L 3366 3988 
Q 3128 4100 2886 4159 
Q 2644 4219 2406 4219 
Q 1781 4219 1451 3797 
Q 1122 3375 1075 2522 
Q 1259 2794 1537 2939 
Q 1816 3084 2150 3084 
Q 2853 3084 3261 2657 
Q 3669 2231 3669 1497 
Q 3669 778 3244 343 
Q 2819 -91 2113 -91 
Q 1303 -91 875 529 
Q 447 1150 447 2328 
Q 447 3434 972 4092 
Q 1497 4750 2381 4750 
Q 2619 4750 2861 4703 
Q 3103 4656 3366 4563 
z
" transform="scale(0.015625)"/>
       </defs>
       <use xlink:href="#DejaVuSans-32"/>
       <use xlink:href="#DejaVuSans-2e" x="63.623047"/>
       <use xlink:href="#DejaVuSans-36" x="95.410156"/>
      </g>
     </g>
    </g>
    <g id="xtick_2">
     <g id="line2d_2">
      <g>
       <use xlink:href="#me2560ee5df" x="213.247572" y="499.48" style="stroke: #000000; stroke-width: 0.8"/>
      </g>
     </g>
     <g id="text_2">
      <!-- 2.8 -->
      <g transform="translate(195.754135 523.196563) scale(0.22 -0.22)">
       <defs>
        <path id="DejaVuSans-38" d="M 2034 2216 
Q 1584 2216 1326 1975 
Q 1069 1734 1069 1313 
Q 1069 891 1326 650 
Q 1584 409 2034 409 
Q 2484 409 2743 651 
Q 3003 894 3003 1313 
Q 3003 1734 2745 1975 
Q 2488 2216 2034 2216 
z
M 1403 2484 
Q 997 2584 770 2862 
Q 544 3141 544 3541 
Q 544 4100 942 4425 
Q 1341 4750 2034 4750 
Q 2731 4750 3128 4425 
Q 3525 4100 3525 3541 
Q 3525 3141 3298 2862 
Q 3072 2584 2669 2484 
Q 3125 2378 3379 2068 
Q 3634 1759 3634 1313 
Q 3634 634 3220 271 
Q 2806 -91 2034 -91 
Q 1263 -91 848 271 
Q 434 634 434 1313 
Q 434 1759 690 2068 
Q 947 2378 1403 2484 
z
M 1172 3481 
Q 1172 3119 1398 2916 
Q 1625 2713 2034 2713 
Q 2441 2713 2670 2916 
Q 2900 3119 2900 3481 
Q 2900 3844 2670 4047 
Q 2441 4250 2034 4250 
Q 1625 4250 1398 4047 
Q 1172 3844 1172 3481 
z
" transform="scale(0.015625)"/>
       </defs>
       <use xlink:href="#DejaVuSans-32"/>
       <use xlink:href="#DejaVuSans-2e" x="63.623047"/>
       <use xlink:href="#DejaVuSans-38" x="95.410156"/>
      </g>
     </g>
    </g>
    <g id="xtick_3">
     <g id="line2d_3">
      <g>
       <use xlink:href="#me2560ee5df" x="281.579363" y="499.48" style="stroke: #000000; stroke-width: 0.8"/>
      </g>
     </g>
     <g id="text_3">
      <!-- 3.0 -->
      <g transform="translate(264.085926 523.196563) scale(0.22 -0.22)">
       <defs>
        <path id="DejaVuSans-33" d="M 2597 2516 
Q 3050 2419 3304 2112 
Q 3559 1806 3559 1356 
Q 3559 666 3084 287 
Q 2609 -91 1734 -91 
Q 1441 -91 1130 -33 
Q 819 25 488 141 
L 488 750 
Q 750 597 1062 519 
Q 1375 441 1716 441 
Q 2309 441 2620 675 
Q 2931 909 2931 1356 
Q 2931 1769 2642 2001 
Q 2353 2234 1838 2234 
L 1294 2234 
L 1294 2753 
L 1863 2753 
Q 2328 2753 2575 2939 
Q 2822 3125 2822 3475 
Q 2822 3834 2567 4026 
Q 2313 4219 1838 4219 
Q 1578 4219 1281 4162 
Q 984 4106 628 3988 
L 628 4550 
Q 988 4650 1302 4700 
Q 1616 4750 1894 4750 
Q 2613 4750 3031 4423 
Q 3450 4097 3450 3541 
Q 3450 3153 3228 2886 
Q 3006 2619 2597 2516 
z
" transform="scale(0.015625)"/>
        <path id="DejaVuSans-30" d="M 2034 4250 
Q 1547 4250 1301 3770 
Q 1056 3291 1056 2328 
Q 1056 1369 1301 889 
Q 1547 409 2034 409 
Q 2525 409 2770 889 
Q 3016 1369 3016 2328 
Q 3016 3291 2770 3770 
Q 2525 4250 2034 4250 
z
M 2034 4750 
Q 2819 4750 3233 4129 
Q 3647 3509 3647 2328 
Q 3647 1150 3233 529 
Q 2819 -91 2034 -91 
Q 1250 -91 836 529 
Q 422 1150 422 2328 
Q 422 3509 836 4129 
Q 1250 4750 2034 4750 
z
" transform="scale(0.015625)"/>
       </defs>
       <use xlink:href="#DejaVuSans-33"/>
       <use xlink:href="#DejaVuSans-2e" x="63.623047"/>
       <use xlink:href="#DejaVuSans-30" x="95.410156"/>
      </g>
     </g>
    </g>
    <g id="xtick_4">
     <g id="line2d_4">
      <g>
       <use xlink:href="#me2560ee5df" x="349.911154" y="499.48" style="stroke: #000000; stroke-width: 0.8"/>
      </g>
     </g>
     <g id="text_4">
      <!-- 3.2 -->
      <g transform="translate(332.417717 523.196563) scale(0.22 -0.22)">
       <use xlink:href="#DejaVuSans-33"/>
       <use xlink:href="#DejaVuSans-2e" x="63.623047"/>
       <use xlink:href="#DejaVuSans-32" x="95.410156"/>
      </g>
     </g>
    </g>
    <g id="xtick_5">
     <g id="line2d_5">
      <g>
       <use xlink:href="#me2560ee5df" x="418.242945" y="499.48" style="stroke: #000000; stroke-width: 0.8"/>
      </g>
     </g>
     <g id="text_5">
      <!-- 3.4 -->
      <g transform="translate(400.749508 523.196563) scale(0.22 -0.22)">
       <defs>
        <path id="DejaVuSans-34" d="M 2419 4116 
L 825 1625 
L 2419 1625 
L 2419 4116 
z
M 2253 4666 
L 3047 4666 
L 3047 1625 
L 3713 1625 
L 3713 1100 
L 3047 1100 
L 3047 0 
L 2419 0 
L 2419 1100 
L 313 1100 
L 313 1709 
L 2253 4666 
z
" transform="scale(0.015625)"/>
       </defs>
       <use xlink:href="#DejaVuSans-33"/>
       <use xlink:href="#DejaVuSans-2e" x="63.623047"/>
       <use xlink:href="#DejaVuSans-34" x="95.410156"/>
      </g>
     </g>
    </g>
    <g id="xtick_6">
     <g id="line2d_6">
      <g>
       <use xlink:href="#me2560ee5df" x="486.574737" y="499.48" style="stroke: #000000; stroke-width: 0.8"/>
      </g>
     </g>
     <g id="text_6">
      <!-- 3.6 -->
      <g transform="translate(469.081299 523.196563) scale(0.22 -0.22)">
       <use xlink:href="#DejaVuSans-33"/>
       <use xlink:href="#DejaVuSans-2e" x="63.623047"/>
       <use xlink:href="#DejaVuSans-36" x="95.410156"/>
      </g>
     </g>
    </g>
    <g id="xtick_7">
     <g id="line2d_7">
      <g>
       <use xlink:href="#me2560ee5df" x="554.906528" y="499.48" style="stroke: #000000; stroke-width: 0.8"/>
      </g>
     </g>
     <g id="text_7">
      <!-- 3.8 -->
      <g transform="translate(537.41309 523.196563) scale(0.22 -0.22)">
       <use xlink:href="#DejaVuSans-33"/>
       <use xlink:href="#DejaVuSans-2e" x="63.623047"/>
       <use xlink:href="#DejaVuSans-38" x="95.410156"/>
      </g>
     </g>
    </g>
    <g id="xtick_8">
     <g id="line2d_8">
      <g>
       <use xlink:href="#me2560ee5df" x="623.238319" y="499.48" style="stroke: #000000; stroke-width: 0.8"/>
      </g>
     </g>
     <g id="text_8">
      <!-- 4.0 -->
      <g transform="translate(605.744881 523.196563) scale(0.22 -0.22)">
       <use xlink:href="#DejaVuSans-34"/>
       <use xlink:href="#DejaVuSans-2e" x="63.623047"/>
       <use xlink:href="#DejaVuSans-30" x="95.410156"/>
      </g>
     </g>
    </g>
    <g id="xtick_9">
     <g id="line2d_9">
      <g>
       <use xlink:href="#me2560ee5df" x="691.57011" y="499.48" style="stroke: #000000; stroke-width: 0.8"/>
      </g>
     </g>
     <g id="text_9">
      <!-- 4.2 -->
      <g transform="translate(674.076672 523.196563) scale(0.22 -0.22)">
       <use xlink:href="#DejaVuSans-34"/>
       <use xlink:href="#DejaVuSans-2e" x="63.623047"/>
       <use xlink:href="#DejaVuSans-32" x="95.410156"/>
      </g>
     </g>
    </g>
    <g id="text_10">
     <!-- Energy Uncertainties -->
     <g transform="translate(278.127188 548.488438) scale(0.22 -0.22)">
      <defs>
       <path id="DejaVuSans-45" d="M 628 4666 
L 3578 4666 
L 3578 4134 
L 1259 4134 
L 1259 2753 
L 3481 2753 
L 3481 2222 
L 1259 2222 
L 1259 531 
L 3634 531 
L 3634 0 
L 628 0 
L 628 4666 
z
" transform="scale(0.015625)"/>
       <path id="DejaVuSans-6e" d="M 3513 2113 
L 3513 0 
L 2938 0 
L 2938 2094 
Q 2938 2591 2744 2837 
Q 2550 3084 2163 3084 
Q 1697 3084 1428 2787 
Q 1159 2491 1159 1978 
L 1159 0 
L 581 0 
L 581 3500 
L 1159 3500 
L 1159 2956 
Q 1366 3272 1645 3428 
Q 1925 3584 2291 3584 
Q 2894 3584 3203 3211 
Q 3513 2838 3513 2113 
z
" transform="scale(0.015625)"/>
       <path id="DejaVuSans-65" d="M 3597 1894 
L 3597 1613 
L 953 1613 
Q 991 1019 1311 708 
Q 1631 397 2203 397 
Q 2534 397 2845 478 
Q 3156 559 3463 722 
L 3463 178 
Q 3153 47 2828 -22 
Q 2503 -91 2169 -91 
Q 1331 -91 842 396 
Q 353 884 353 1716 
Q 353 2575 817 3079 
Q 1281 3584 2069 3584 
Q 2775 3584 3186 3129 
Q 3597 2675 3597 1894 
z
M 3022 2063 
Q 3016 2534 2758 2815 
Q 2500 3097 2075 3097 
Q 1594 3097 1305 2825 
Q 1016 2553 972 2059 
L 3022 2063 
z
" transform="scale(0.015625)"/>
       <path id="DejaVuSans-72" d="M 2631 2963 
Q 2534 3019 2420 3045 
Q 2306 3072 2169 3072 
Q 1681 3072 1420 2755 
Q 1159 2438 1159 1844 
L 1159 0 
L 581 0 
L 581 3500 
L 1159 3500 
L 1159 2956 
Q 1341 3275 1631 3429 
Q 1922 3584 2338 3584 
Q 2397 3584 2469 3576 
Q 2541 3569 2628 3553 
L 2631 2963 
z
" transform="scale(0.015625)"/>
       <path id="DejaVuSans-67" d="M 2906 1791 
Q 2906 2416 2648 2759 
Q 2391 3103 1925 3103 
Q 1463 3103 1205 2759 
Q 947 2416 947 1791 
Q 947 1169 1205 825 
Q 1463 481 1925 481 
Q 2391 481 2648 825 
Q 2906 1169 2906 1791 
z
M 3481 434 
Q 3481 -459 3084 -895 
Q 2688 -1331 1869 -1331 
Q 1566 -1331 1297 -1286 
Q 1028 -1241 775 -1147 
L 775 -588 
Q 1028 -725 1275 -790 
Q 1522 -856 1778 -856 
Q 2344 -856 2625 -561 
Q 2906 -266 2906 331 
L 2906 616 
Q 2728 306 2450 153 
Q 2172 0 1784 0 
Q 1141 0 747 490 
Q 353 981 353 1791 
Q 353 2603 747 3093 
Q 1141 3584 1784 3584 
Q 2172 3584 2450 3431 
Q 2728 3278 2906 2969 
L 2906 3500 
L 3481 3500 
L 3481 434 
z
" transform="scale(0.015625)"/>
       <path id="DejaVuSans-79" d="M 2059 -325 
Q 1816 -950 1584 -1140 
Q 1353 -1331 966 -1331 
L 506 -1331 
L 506 -850 
L 844 -850 
Q 1081 -850 1212 -737 
Q 1344 -625 1503 -206 
L 1606 56 
L 191 3500 
L 800 3500 
L 1894 763 
L 2988 3500 
L 3597 3500 
L 2059 -325 
z
" transform="scale(0.015625)"/>
       <path id="DejaVuSans-20" transform="scale(0.015625)"/>
       <path id="DejaVuSans-55" d="M 556 4666 
L 1191 4666 
L 1191 1831 
Q 1191 1081 1462 751 
Q 1734 422 2344 422 
Q 2950 422 3222 751 
Q 3494 1081 3494 1831 
L 3494 4666 
L 4128 4666 
L 4128 1753 
Q 4128 841 3676 375 
Q 3225 -91 2344 -91 
Q 1459 -91 1007 375 
Q 556 841 556 1753 
L 556 4666 
z
" transform="scale(0.015625)"/>
       <path id="DejaVuSans-63" d="M 3122 3366 
L 3122 2828 
Q 2878 2963 2633 3030 
Q 2388 3097 2138 3097 
Q 1578 3097 1268 2742 
Q 959 2388 959 1747 
Q 959 1106 1268 751 
Q 1578 397 2138 397 
Q 2388 397 2633 464 
Q 2878 531 3122 666 
L 3122 134 
Q 2881 22 2623 -34 
Q 2366 -91 2075 -91 
Q 1284 -91 818 406 
Q 353 903 353 1747 
Q 353 2603 823 3093 
Q 1294 3584 2113 3584 
Q 2378 3584 2631 3529 
Q 2884 3475 3122 3366 
z
" transform="scale(0.015625)"/>
       <path id="DejaVuSans-74" d="M 1172 4494 
L 1172 3500 
L 2356 3500 
L 2356 3053 
L 1172 3053 
L 1172 1153 
Q 1172 725 1289 603 
Q 1406 481 1766 481 
L 2356 481 
L 2356 0 
L 1766 0 
Q 1100 0 847 248 
Q 594 497 594 1153 
L 594 3053 
L 172 3053 
L 172 3500 
L 594 3500 
L 594 4494 
L 1172 4494 
z
" transform="scale(0.015625)"/>
       <path id="DejaVuSans-61" d="M 2194 1759 
Q 1497 1759 1228 1600 
Q 959 1441 959 1056 
Q 959 750 1161 570 
Q 1363 391 1709 391 
Q 2188 391 2477 730 
Q 2766 1069 2766 1631 
L 2766 1759 
L 2194 1759 
z
M 3341 1997 
L 3341 0 
L 2766 0 
L 2766 531 
Q 2569 213 2275 61 
Q 1981 -91 1556 -91 
Q 1019 -91 701 211 
Q 384 513 384 1019 
Q 384 1609 779 1909 
Q 1175 2209 1959 2209 
L 2766 2209 
L 2766 2266 
Q 2766 2663 2505 2880 
Q 2244 3097 1772 3097 
Q 1472 3097 1187 3025 
Q 903 2953 641 2809 
L 641 3341 
Q 956 3463 1253 3523 
Q 1550 3584 1831 3584 
Q 2591 3584 2966 3190 
Q 3341 2797 3341 1997 
z
" transform="scale(0.015625)"/>
       <path id="DejaVuSans-69" d="M 603 3500 
L 1178 3500 
L 1178 0 
L 603 0 
L 603 3500 
z
M 603 4863 
L 1178 4863 
L 1178 4134 
L 603 4134 
L 603 4863 
z
" transform="scale(0.015625)"/>
       <path id="DejaVuSans-73" d="M 2834 3397 
L 2834 2853 
Q 2591 2978 2328 3040 
Q 2066 3103 1784 3103 
Q 1356 3103 1142 2972 
Q 928 2841 928 2578 
Q 928 2378 1081 2264 
Q 1234 2150 1697 2047 
L 1894 2003 
Q 2506 1872 2764 1633 
Q 3022 1394 3022 966 
Q 3022 478 2636 193 
Q 2250 -91 1575 -91 
Q 1294 -91 989 -36 
Q 684 19 347 128 
L 347 722 
Q 666 556 975 473 
Q 1284 391 1588 391 
Q 1994 391 2212 530 
Q 2431 669 2431 922 
Q 2431 1156 2273 1281 
Q 2116 1406 1581 1522 
L 1381 1569 
Q 847 1681 609 1914 
Q 372 2147 372 2553 
Q 372 3047 722 3315 
Q 1072 3584 1716 3584 
Q 2034 3584 2315 3537 
Q 2597 3491 2834 3397 
z
" transform="scale(0.015625)"/>
      </defs>
      <use xlink:href="#DejaVuSans-45"/>
      <use xlink:href="#DejaVuSans-6e" x="63.183594"/>
      <use xlink:href="#DejaVuSans-65" x="126.5625"/>
      <use xlink:href="#DejaVuSans-72" x="188.085938"/>
      <use xlink:href="#DejaVuSans-67" x="227.449219"/>
      <use xlink:href="#DejaVuSans-79" x="290.925781"/>
      <use xlink:href="#DejaVuSans-20" x="350.105469"/>
      <use xlink:href="#DejaVuSans-55" x="381.892578"/>
      <use xlink:href="#DejaVuSans-6e" x="455.085938"/>
      <use xlink:href="#DejaVuSans-63" x="518.464844"/>
      <use xlink:href="#DejaVuSans-65" x="573.445312"/>
      <use xlink:href="#DejaVuSans-72" x="634.96875"/>
      <use xlink:href="#DejaVuSans-74" x="676.082031"/>
      <use xlink:href="#DejaVuSans-61" x="715.291016"/>
      <use xlink:href="#DejaVuSans-69" x="776.570312"/>
      <use xlink:href="#DejaVuSans-6e" x="804.353516"/>
      <use xlink:href="#DejaVuSans-74" x="867.732422"/>
      <use xlink:href="#DejaVuSans-69" x="906.941406"/>
      <use xlink:href="#DejaVuSans-65" x="934.724609"/>
      <use xlink:href="#DejaVuSans-73" x="996.248047"/>
     </g>
    </g>
   </g>
   <g id="matplotlib.axis_2">
    <g id="ytick_1">
     <g id="line2d_10">
      <defs>
       <path id="me7bcb5315a" d="M 0 0 
L -3.5 0 
" style="stroke: #000000; stroke-width: 0.8"/>
      </defs>
      <g>
       <use xlink:href="#me7bcb5315a" x="90.65" y="482.034793" style="stroke: #000000; stroke-width: 0.8"/>
      </g>
     </g>
     <g id="text_11">
      <!-- 1.0 -->
      <g transform="translate(48.663125 490.393074) scale(0.22 -0.22)">
       <defs>
        <path id="DejaVuSans-31" d="M 794 531 
L 1825 531 
L 1825 4091 
L 703 3866 
L 703 4441 
L 1819 4666 
L 2450 4666 
L 2450 531 
L 3481 531 
L 3481 0 
L 794 0 
L 794 531 
z
" transform="scale(0.015625)"/>
       </defs>
       <use xlink:href="#DejaVuSans-31"/>
       <use xlink:href="#DejaVuSans-2e" x="63.623047"/>
       <use xlink:href="#DejaVuSans-30" x="95.410156"/>
      </g>
     </g>
    </g>
    <g id="ytick_2">
     <g id="line2d_11">
      <g>
       <use xlink:href="#me7bcb5315a" x="90.65" y="410.733907" style="stroke: #000000; stroke-width: 0.8"/>
      </g>
     </g>
     <g id="text_12">
      <!-- 1.5 -->
      <g transform="translate(48.663125 419.092188) scale(0.22 -0.22)">
       <defs>
        <path id="DejaVuSans-35" d="M 691 4666 
L 3169 4666 
L 3169 4134 
L 1269 4134 
L 1269 2991 
Q 1406 3038 1543 3061 
Q 1681 3084 1819 3084 
Q 2600 3084 3056 2656 
Q 3513 2228 3513 1497 
Q 3513 744 3044 326 
Q 2575 -91 1722 -91 
Q 1428 -91 1123 -41 
Q 819 9 494 109 
L 494 744 
Q 775 591 1075 516 
Q 1375 441 1709 441 
Q 2250 441 2565 725 
Q 2881 1009 2881 1497 
Q 2881 1984 2565 2268 
Q 2250 2553 1709 2553 
Q 1456 2553 1204 2497 
Q 953 2441 691 2322 
L 691 4666 
z
" transform="scale(0.015625)"/>
       </defs>
       <use xlink:href="#DejaVuSans-31"/>
       <use xlink:href="#DejaVuSans-2e" x="63.623047"/>
       <use xlink:href="#DejaVuSans-35" x="95.410156"/>
      </g>
     </g>
    </g>
    <g id="ytick_3">
     <g id="line2d_12">
      <g>
       <use xlink:href="#me7bcb5315a" x="90.65" y="339.43302" style="stroke: #000000; stroke-width: 0.8"/>
      </g>
     </g>
     <g id="text_13">
      <!-- 2.0 -->
      <g transform="translate(48.663125 347.791302) scale(0.22 -0.22)">
       <use xlink:href="#DejaVuSans-32"/>
       <use xlink:href="#DejaVuSans-2e" x="63.623047"/>
       <use xlink:href="#DejaVuSans-30" x="95.410156"/>
      </g>
     </g>
    </g>
    <g id="ytick_4">
     <g id="line2d_13">
      <g>
       <use xlink:href="#me7bcb5315a" x="90.65" y="268.132134" style="stroke: #000000; stroke-width: 0.8"/>
      </g>
     </g>
     <g id="text_14">
      <!-- 2.5 -->
      <g transform="translate(48.663125 276.490415) scale(0.22 -0.22)">
       <use xlink:href="#DejaVuSans-32"/>
       <use xlink:href="#DejaVuSans-2e" x="63.623047"/>
       <use xlink:href="#DejaVuSans-35" x="95.410156"/>
      </g>
     </g>
    </g>
    <g id="ytick_5">
     <g id="line2d_14">
      <g>
       <use xlink:href="#me7bcb5315a" x="90.65" y="196.831248" style="stroke: #000000; stroke-width: 0.8"/>
      </g>
     </g>
     <g id="text_15">
      <!-- 3.0 -->
      <g transform="translate(48.663125 205.189529) scale(0.22 -0.22)">
       <use xlink:href="#DejaVuSans-33"/>
       <use xlink:href="#DejaVuSans-2e" x="63.623047"/>
       <use xlink:href="#DejaVuSans-30" x="95.410156"/>
      </g>
     </g>
    </g>
    <g id="ytick_6">
     <g id="line2d_15">
      <g>
       <use xlink:href="#me7bcb5315a" x="90.65" y="125.530362" style="stroke: #000000; stroke-width: 0.8"/>
      </g>
     </g>
     <g id="text_16">
      <!-- 3.5 -->
      <g transform="translate(48.663125 133.888643) scale(0.22 -0.22)">
       <use xlink:href="#DejaVuSans-33"/>
       <use xlink:href="#DejaVuSans-2e" x="63.623047"/>
       <use xlink:href="#DejaVuSans-35" x="95.410156"/>
      </g>
     </g>
    </g>
    <g id="ytick_7">
     <g id="line2d_16">
      <g>
       <use xlink:href="#me7bcb5315a" x="90.65" y="54.229475" style="stroke: #000000; stroke-width: 0.8"/>
      </g>
     </g>
     <g id="text_17">
      <!-- 4.0 -->
      <g transform="translate(48.663125 62.587757) scale(0.22 -0.22)">
       <use xlink:href="#DejaVuSans-34"/>
       <use xlink:href="#DejaVuSans-2e" x="63.623047"/>
       <use xlink:href="#DejaVuSans-30" x="95.410156"/>
      </g>
     </g>
    </g>
    <g id="text_18">
     <!-- Force Errors [kJ/(mol*A)] -->
     <g transform="translate(40.087813 394.9125) rotate(-90) scale(0.22 -0.22)">
      <defs>
       <path id="DejaVuSans-46" d="M 628 4666 
L 3309 4666 
L 3309 4134 
L 1259 4134 
L 1259 2759 
L 3109 2759 
L 3109 2228 
L 1259 2228 
L 1259 0 
L 628 0 
L 628 4666 
z
" transform="scale(0.015625)"/>
       <path id="DejaVuSans-6f" d="M 1959 3097 
Q 1497 3097 1228 2736 
Q 959 2375 959 1747 
Q 959 1119 1226 758 
Q 1494 397 1959 397 
Q 2419 397 2687 759 
Q 2956 1122 2956 1747 
Q 2956 2369 2687 2733 
Q 2419 3097 1959 3097 
z
M 1959 3584 
Q 2709 3584 3137 3096 
Q 3566 2609 3566 1747 
Q 3566 888 3137 398 
Q 2709 -91 1959 -91 
Q 1206 -91 779 398 
Q 353 888 353 1747 
Q 353 2609 779 3096 
Q 1206 3584 1959 3584 
z
" transform="scale(0.015625)"/>
       <path id="DejaVuSans-5b" d="M 550 4863 
L 1875 4863 
L 1875 4416 
L 1125 4416 
L 1125 -397 
L 1875 -397 
L 1875 -844 
L 550 -844 
L 550 4863 
z
" transform="scale(0.015625)"/>
       <path id="DejaVuSans-6b" d="M 581 4863 
L 1159 4863 
L 1159 1991 
L 2875 3500 
L 3609 3500 
L 1753 1863 
L 3688 0 
L 2938 0 
L 1159 1709 
L 1159 0 
L 581 0 
L 581 4863 
z
" transform="scale(0.015625)"/>
       <path id="DejaVuSans-4a" d="M 628 4666 
L 1259 4666 
L 1259 325 
Q 1259 -519 939 -900 
Q 619 -1281 -91 -1281 
L -331 -1281 
L -331 -750 
L -134 -750 
Q 284 -750 456 -515 
Q 628 -281 628 325 
L 628 4666 
z
" transform="scale(0.015625)"/>
       <path id="DejaVuSans-2f" d="M 1625 4666 
L 2156 4666 
L 531 -594 
L 0 -594 
L 1625 4666 
z
" transform="scale(0.015625)"/>
       <path id="DejaVuSans-28" d="M 1984 4856 
Q 1566 4138 1362 3434 
Q 1159 2731 1159 2009 
Q 1159 1288 1364 580 
Q 1569 -128 1984 -844 
L 1484 -844 
Q 1016 -109 783 600 
Q 550 1309 550 2009 
Q 550 2706 781 3412 
Q 1013 4119 1484 4856 
L 1984 4856 
z
" transform="scale(0.015625)"/>
       <path id="DejaVuSans-6d" d="M 3328 2828 
Q 3544 3216 3844 3400 
Q 4144 3584 4550 3584 
Q 5097 3584 5394 3201 
Q 5691 2819 5691 2113 
L 5691 0 
L 5113 0 
L 5113 2094 
Q 5113 2597 4934 2840 
Q 4756 3084 4391 3084 
Q 3944 3084 3684 2787 
Q 3425 2491 3425 1978 
L 3425 0 
L 2847 0 
L 2847 2094 
Q 2847 2600 2669 2842 
Q 2491 3084 2119 3084 
Q 1678 3084 1418 2786 
Q 1159 2488 1159 1978 
L 1159 0 
L 581 0 
L 581 3500 
L 1159 3500 
L 1159 2956 
Q 1356 3278 1631 3431 
Q 1906 3584 2284 3584 
Q 2666 3584 2933 3390 
Q 3200 3197 3328 2828 
z
" transform="scale(0.015625)"/>
       <path id="DejaVuSans-6c" d="M 603 4863 
L 1178 4863 
L 1178 0 
L 603 0 
L 603 4863 
z
" transform="scale(0.015625)"/>
       <path id="DejaVuSans-2a" d="M 3009 3897 
L 1888 3291 
L 3009 2681 
L 2828 2375 
L 1778 3009 
L 1778 1831 
L 1422 1831 
L 1422 3009 
L 372 2375 
L 191 2681 
L 1313 3291 
L 191 3897 
L 372 4206 
L 1422 3572 
L 1422 4750 
L 1778 4750 
L 1778 3572 
L 2828 4206 
L 3009 3897 
z
" transform="scale(0.015625)"/>
       <path id="DejaVuSans-41" d="M 2188 4044 
L 1331 1722 
L 3047 1722 
L 2188 4044 
z
M 1831 4666 
L 2547 4666 
L 4325 0 
L 3669 0 
L 3244 1197 
L 1141 1197 
L 716 0 
L 50 0 
L 1831 4666 
z
" transform="scale(0.015625)"/>
       <path id="DejaVuSans-29" d="M 513 4856 
L 1013 4856 
Q 1481 4119 1714 3412 
Q 1947 2706 1947 2009 
Q 1947 1309 1714 600 
Q 1481 -109 1013 -844 
L 513 -844 
Q 928 -128 1133 580 
Q 1338 1288 1338 2009 
Q 1338 2731 1133 3434 
Q 928 4138 513 4856 
z
" transform="scale(0.015625)"/>
       <path id="DejaVuSans-5d" d="M 1947 4863 
L 1947 -844 
L 622 -844 
L 622 -397 
L 1369 -397 
L 1369 4416 
L 622 4416 
L 622 4863 
L 1947 4863 
z
" transform="scale(0.015625)"/>
      </defs>
      <use xlink:href="#DejaVuSans-46"/>
      <use xlink:href="#DejaVuSans-6f" x="53.894531"/>
      <use xlink:href="#DejaVuSans-72" x="115.076172"/>
      <use xlink:href="#DejaVuSans-63" x="153.939453"/>
      <use xlink:href="#DejaVuSans-65" x="208.919922"/>
      <use xlink:href="#DejaVuSans-20" x="270.443359"/>
      <use xlink:href="#DejaVuSans-45" x="302.230469"/>
      <use xlink:href="#DejaVuSans-72" x="365.414062"/>
      <use xlink:href="#DejaVuSans-72" x="404.777344"/>
      <use xlink:href="#DejaVuSans-6f" x="443.640625"/>
      <use xlink:href="#DejaVuSans-72" x="504.822266"/>
      <use xlink:href="#DejaVuSans-73" x="545.935547"/>
      <use xlink:href="#DejaVuSans-20" x="598.035156"/>
      <use xlink:href="#DejaVuSans-5b" x="629.822266"/>
      <use xlink:href="#DejaVuSans-6b" x="668.835938"/>
      <use xlink:href="#DejaVuSans-4a" x="726.746094"/>
      <use xlink:href="#DejaVuSans-2f" x="756.238281"/>
      <use xlink:href="#DejaVuSans-28" x="789.929688"/>
      <use xlink:href="#DejaVuSans-6d" x="828.943359"/>
      <use xlink:href="#DejaVuSans-6f" x="926.355469"/>
      <use xlink:href="#DejaVuSans-6c" x="987.537109"/>
      <use xlink:href="#DejaVuSans-2a" x="1015.320312"/>
      <use xlink:href="#DejaVuSans-41" x="1065.320312"/>
      <use xlink:href="#DejaVuSans-29" x="1133.728516"/>
      <use xlink:href="#DejaVuSans-5d" x="1172.742188"/>
     </g>
    </g>
   </g>
   <g id="line2d_17">
    <path d="M 90.65 499.48 
L 696.24 23.76 
" clip-path="url(#p426bb803f8)" style="fill: none; stroke-dasharray: 5.55,2.4; stroke-dashoffset: 0; stroke: #ff0000; stroke-width: 1.5"/>
   </g>
   <g id="patch_3">
    <path d="M 90.65 499.48 
L 90.65 23.76 
" style="fill: none; stroke: #000000; stroke-width: 0.8; stroke-linejoin: miter; stroke-linecap: square"/>
   </g>
   <g id="patch_4">
    <path d="M 696.24 499.48 
L 696.24 23.76 
" style="fill: none; stroke: #000000; stroke-width: 0.8; stroke-linejoin: miter; stroke-linecap: square"/>
   </g>
   <g id="patch_5">
    <path d="M 90.65 499.48 
L 696.24 499.48 
" style="fill: none; stroke: #000000; stroke-width: 0.8; stroke-linejoin: miter; stroke-linecap: square"/>
   </g>
   <g id="patch_6">
    <path d="M 90.65 23.76 
L 696.24 23.76 
" style="fill: none; stroke: #000000; stroke-width: 0.8; stroke-linejoin: miter; stroke-linecap: square"/>
   </g>
   <g id="text_19">
    <!-- Correlation in: 0.345 -->
    <g transform="translate(151.209 71.332) scale(0.22 -0.22)">
     <defs>
      <path id="DejaVuSans-43" d="M 4122 4306 
L 4122 3641 
Q 3803 3938 3442 4084 
Q 3081 4231 2675 4231 
Q 1875 4231 1450 3742 
Q 1025 3253 1025 2328 
Q 1025 1406 1450 917 
Q 1875 428 2675 428 
Q 3081 428 3442 575 
Q 3803 722 4122 1019 
L 4122 359 
Q 3791 134 3420 21 
Q 3050 -91 2638 -91 
Q 1578 -91 968 557 
Q 359 1206 359 2328 
Q 359 3453 968 4101 
Q 1578 4750 2638 4750 
Q 3056 4750 3426 4639 
Q 3797 4528 4122 4306 
z
" transform="scale(0.015625)"/>
      <path id="DejaVuSans-3a" d="M 750 794 
L 1409 794 
L 1409 0 
L 750 0 
L 750 794 
z
M 750 3309 
L 1409 3309 
L 1409 2516 
L 750 2516 
L 750 3309 
z
" transform="scale(0.015625)"/>
     </defs>
     <use xlink:href="#DejaVuSans-43"/>
     <use xlink:href="#DejaVuSans-6f" x="69.824219"/>
     <use xlink:href="#DejaVuSans-72" x="131.005859"/>
     <use xlink:href="#DejaVuSans-72" x="170.369141"/>
     <use xlink:href="#DejaVuSans-65" x="209.232422"/>
     <use xlink:href="#DejaVuSans-6c" x="270.755859"/>
     <use xlink:href="#DejaVuSans-61" x="298.539062"/>
     <use xlink:href="#DejaVuSans-74" x="359.818359"/>
     <use xlink:href="#DejaVuSans-69" x="399.027344"/>
     <use xlink:href="#DejaVuSans-6f" x="426.810547"/>
     <use xlink:href="#DejaVuSans-6e" x="487.992188"/>
     <use xlink:href="#DejaVuSans-20" x="551.371094"/>
     <use xlink:href="#DejaVuSans-69" x="583.158203"/>
     <use xlink:href="#DejaVuSans-6e" x="610.941406"/>
     <use xlink:href="#DejaVuSans-3a" x="674.320312"/>
     <use xlink:href="#DejaVuSans-20" x="708.011719"/>
     <use xlink:href="#DejaVuSans-30" x="739.798828"/>
     <use xlink:href="#DejaVuSans-2e" x="803.421875"/>
     <use xlink:href="#DejaVuSans-33" x="835.208984"/>
     <use xlink:href="#DejaVuSans-34" x="898.832031"/>
     <use xlink:href="#DejaVuSans-35" x="962.455078"/>
    </g>
   </g>
  </g>
 </g>
 <defs>
  <clipPath id="p426bb803f8">
   <rect x="90.65" y="23.76" width="605.59" height="475.72"/>
  </clipPath>
 </defs>
</svg>
