<?xml version="1.0" encoding="utf-8" standalone="no"?>
<!DOCTYPE svg PUBLIC "-//W3C//DTD SVG 1.1//EN"
  "http://www.w3.org/Graphics/SVG/1.1/DTD/svg11.dtd">
<svg xmlns:xlink="http://www.w3.org/1999/xlink" width="720pt" height="576pt" viewBox="0 0 720 576" xmlns="http://www.w3.org/2000/svg" version="1.1">
 <metadata>
  <rdf:RDF xmlns:dc="http://purl.org/dc/elements/1.1/" xmlns:cc="http://creativecommons.org/ns#" xmlns:rdf="http://www.w3.org/1999/02/22-rdf-syntax-ns#">
   <cc:Work>
    <dc:type rdf:resource="http://purl.org/dc/dcmitype/StillImage"/>
    <dc:date>2024-12-08T21:56:39.961437</dc:date>
    <dc:format>image/svg+xml</dc:format>
    <dc:creator>
     <cc:Agent>
      <dc:title>Matplotlib v3.8.4, https://matplotlib.org/</dc:title>
     </cc:Agent>
    </dc:creator>
   </cc:Work>
  </rdf:RDF>
 </metadata>
 <defs>
  <style type="text/css">*{stroke-linejoin: round; stroke-linecap: butt}</style>
 </defs>
 <g id="figure_1">
  <g id="patch_1">
   <path d="M 0 576 
L 720 576 
L 720 0 
L 0 0 
z
" style="fill: #ffffff"/>
  </g>
  <g id="axes_1">
   <g id="patch_2">
    <path d="M 83.72 499.48 
L 696.24 499.48 
L 696.24 23.76 
L 83.72 23.76 
z
" style="fill: #ffffff"/>
   </g>
   <g id="QuadContourSet_1">
    <path d="M 106.899595 499.462064 
L 106.944084 499.663473 
L 106.988573 499.809706 
L 107.033062 499.910193 
L 107.07755 499.977432 
L 107.122039 500.024296 
L 107.166528 500.060661 
L 107.211017 500.09076 
L 107.255506 500.11286 
L 107.299995 500.121997 
L 107.344484 500.113809 
L 107.388972 500.086777 
L 107.433461 500.042426 
L 107.47795 499.984888 
L 107.522439 499.920551 
L 107.566928 499.857029 
L 107.611417 499.80005 
L 107.655906 499.748345 
L 107.700394 499.690322 
L 107.744883 499.607552 
L 107.789372 499.483976 
L 107.823532 499.355252 
L 107.833861 499.328281 
L 107.87835 499.190974 
L 107.922839 499.037861 
L 107.967328 498.879523 
L 108.011816 498.717421 
L 108.056305 498.543201 
L 108.067671 498.495103 
L 108.100794 498.397693 
L 108.145283 498.247412 
L 108.189772 498.063473 
L 108.234261 497.829612 
L 108.263964 497.634953 
L 108.27875 497.559329 
L 108.323239 497.284224 
L 108.367727 496.911336 
L 108.381507 496.774804 
L 108.412216 496.502979 
L 108.456705 496.00168 
L 108.463809 495.914654 
L 108.501194 495.457549 
L 108.529901 495.054505 
L 108.545683 494.815207 
L 108.584294 494.194355 
L 108.590172 494.088187 
L 108.631886 493.334206 
L 108.634661 493.27871 
L 108.676203 492.474057 
L 108.679149 492.413942 
L 108.719857 491.613907 
L 108.723638 491.538057 
L 108.763629 490.753758 
L 108.768127 490.662912 
L 108.806643 489.893608 
L 108.812616 489.768708 
L 108.848584 489.033459 
L 108.857105 488.854129 
L 108.89112 488.173309 
L 108.901594 487.966204 
L 108.936824 487.31316 
L 108.946083 487.145694 
L 108.986233 486.45301 
L 108.990571 486.377076 
L 109.03506 485.618211 
L 109.036595 485.592861 
L 109.079549 484.829797 
L 109.085088 484.732712 
L 109.124038 483.998964 
L 109.130963 483.872562 
L 109.168527 483.155762 
L 109.176264 483.012413 
L 109.213016 482.289139 
L 109.22001 482.152263 
L 109.257505 481.2922 
L 109.257508 481.292114 
L 109.285759 480.431964 
L 109.301436 479.571815 
L 109.301993 479.478269 
L 109.307201 478.711665 
L 109.306467 477.851516 
L 109.304994 476.991367 
L 109.305132 476.131217 
L 109.304003 475.271068 
L 109.301993 475.073721 
L 109.292662 474.410918 
L 109.257505 473.692674 
L 109.249268 473.550769 
L 109.213016 472.989552 
L 109.201466 472.690619 
L 109.180137 471.83047 
L 109.168527 471.161731 
L 109.165893 470.970321 
L 109.144704 470.110171 
L 109.124038 469.750115 
L 109.079549 469.34922 
L 109.052289 469.250022 
L 109.03506 469.196101 
L 108.990571 469.117521 
L 108.946083 469.037858 
L 108.901594 468.879599 
L 108.857105 468.501122 
L 108.850072 468.389872 
L 108.840351 467.529723 
L 108.853384 466.669573 
L 108.857105 466.518679 
L 108.87434 465.809424 
L 108.893451 464.949274 
L 108.901594 464.41394 
L 108.906846 464.089125 
L 108.909152 463.228976 
L 108.901594 462.828508 
L 108.888703 462.368826 
L 108.857105 461.91152 
L 108.812807 461.508677 
L 108.812616 461.507226 
L 108.768127 461.234525 
L 108.723638 461.039136 
L 108.679149 460.954683 
L 108.634661 460.99702 
L 108.590172 461.132235 
L 108.545683 461.302138 
L 108.501194 461.460451 
L 108.48359 461.508677 
L 108.456705 461.568846 
L 108.412216 461.621378 
L 108.367727 461.629688 
L 108.323239 461.587141 
L 108.295414 461.508677 
L 108.27875 461.412847 
L 108.234261 460.733852 
L 108.231217 460.648527 
L 108.216749 459.788378 
L 108.201704 458.928228 
L 108.189772 458.565919 
L 108.158676 458.068079 
L 108.145283 457.954896 
L 108.100794 457.870628 
L 108.056305 457.996173 
L 108.044767 458.068079 
L 108.011816 458.279512 
L 107.967328 458.686191 
L 107.946047 458.928228 
L 107.922839 459.219793 
L 107.884239 459.788378 
L 107.87835 459.887828 
L 107.837056 460.648527 
L 107.833861 460.713799 
L 107.796142 461.508677 
L 107.789372 461.644171 
L 107.753332 462.368826 
L 107.744883 462.5032 
L 107.700394 463.20201 
L 107.698527 463.228976 
L 107.655906 463.647965 
L 107.611417 464.050524 
L 107.605981 464.089125 
L 107.566928 464.279493 
L 107.522439 464.454209 
L 107.47795 464.589703 
L 107.433461 464.687067 
L 107.388972 464.754762 
L 107.344484 464.828048 
L 107.306514 464.949274 
L 107.299995 464.96989 
L 107.255506 465.243239 
L 107.211017 465.656649 
L 107.198153 465.809424 
L 107.166528 466.177698 
L 107.128519 466.669573 
L 107.122039 466.746322 
L 107.07755 467.294977 
L 107.058867 467.529723 
L 107.033062 467.820737 
L 106.988573 468.344471 
L 106.984867 468.389872 
L 106.944084 468.8508 
L 106.911794 469.250022 
L 106.899595 469.394825 
L 106.855106 469.940862 
L 106.841609 470.110171 
L 106.810617 470.499683 
L 106.773806 470.970321 
L 106.766128 471.078144 
L 106.721639 471.694804 
L 106.712378 471.83047 
L 106.677151 472.458004 
L 106.665175 472.690619 
L 106.632662 473.530771 
L 106.631927 473.550769 
L 106.609594 474.410918 
L 106.595665 475.271068 
L 106.588173 476.131217 
L 106.588173 476.131217 
L 106.58079 476.991367 
L 106.567859 477.851516 
L 106.551061 478.711665 
L 106.543684 479.024763 
L 106.529628 479.571815 
L 106.505987 480.431964 
L 106.499195 480.658314 
L 106.477099 481.292114 
L 106.454706 481.947938 
L 106.446511 482.152263 
L 106.413027 483.012413 
L 106.410217 483.086456 
L 106.37793 483.872562 
L 106.365729 484.230734 
L 106.34816 484.732712 
L 106.325627 485.592861 
L 106.32124 485.812036 
L 106.307819 486.45301 
L 106.296922 487.31316 
L 106.293345 488.173309 
L 106.297664 489.033459 
L 106.309863 489.893608 
L 106.32124 490.469878 
L 106.325858 490.753758 
L 106.339303 491.613907 
L 106.351645 492.474057 
L 106.365621 493.334206 
L 106.365729 493.339505 
L 106.382836 494.194355 
L 106.410217 494.973529 
L 106.413221 495.054505 
L 106.454706 495.854873 
L 106.458013 495.914654 
L 106.499195 496.540269 
L 106.516753 496.774804 
L 106.543684 497.105107 
L 106.588173 497.544419 
L 106.599117 497.634953 
L 106.632662 497.927746 
L 106.677151 498.240765 
L 106.721639 498.492456 
L 106.72212 498.495103 
L 106.766128 498.796578 
L 106.810617 499.04983 
L 106.855106 499.257072 
L 106.879847 499.355252 
z
M 107.102276 497.634953 
L 107.07755 497.594567 
L 107.033062 497.478856 
L 106.988573 497.304554 
L 106.944084 497.059712 
L 106.904555 496.774804 
L 106.899595 496.74061 
L 106.855106 496.39297 
L 106.810617 495.960887 
L 106.806072 495.914654 
L 106.766128 495.47406 
L 106.732931 495.054505 
L 106.721639 494.886276 
L 106.679046 494.194355 
L 106.677151 494.154283 
L 106.640125 493.334206 
L 106.632662 493.073523 
L 106.615222 492.474057 
L 106.603231 491.613907 
L 106.601828 490.753758 
L 106.608251 489.893608 
L 106.620096 489.033459 
L 106.632662 488.277961 
L 106.634276 488.173309 
L 106.645964 487.31316 
L 106.657388 486.45301 
L 106.67004 485.592861 
L 106.677151 485.218637 
L 106.685378 484.732712 
L 106.705638 483.872562 
L 106.721639 483.346494 
L 106.731344 483.012413 
L 106.762828 482.152263 
L 106.766128 482.07396 
L 106.800185 481.292114 
L 106.810617 481.077462 
L 106.842989 480.431964 
L 106.855106 480.203587 
L 106.888268 479.571815 
L 106.899595 479.359295 
L 106.932311 478.711665 
L 106.944084 478.479187 
L 106.974195 477.851516 
L 106.988573 477.556061 
L 107.015806 476.991367 
L 107.033062 476.643029 
L 107.059926 476.131217 
L 107.07755 475.802145 
L 107.10961 475.271068 
L 107.122039 475.06412 
L 107.166528 474.427365 
L 107.167839 474.410918 
L 107.211017 473.834299 
L 107.236106 473.550769 
L 107.255506 473.312183 
L 107.299995 472.833597 
L 107.315255 472.690619 
L 107.344484 472.389953 
L 107.388972 471.99725 
L 107.410359 471.83047 
L 107.433461 471.63771 
L 107.47795 471.295712 
L 107.522439 470.970321 
L 107.522439 470.970321 
L 107.566928 470.607292 
L 107.611417 470.238029 
L 107.62627 470.110171 
L 107.655906 469.844775 
L 107.700394 469.459775 
L 107.727718 469.250022 
L 107.744883 469.110642 
L 107.789372 468.828892 
L 107.833861 468.653503 
L 107.87835 468.585926 
L 107.922839 468.595753 
L 107.967328 468.638027 
L 108.011816 468.686361 
L 108.056305 468.755299 
L 108.100794 468.916403 
L 108.138104 469.250022 
L 108.145283 469.335639 
L 108.186129 470.110171 
L 108.189772 470.168031 
L 108.234261 470.864877 
L 108.241591 470.970321 
L 108.27875 471.337044 
L 108.323239 471.797756 
L 108.326023 471.83047 
L 108.367727 472.328697 
L 108.391078 472.690619 
L 108.412216 473.07801 
L 108.434969 473.550769 
L 108.456705 474.016376 
L 108.47615 474.410918 
L 108.501194 474.850508 
L 108.529394 475.271068 
L 108.545683 475.497083 
L 108.590172 476.036234 
L 108.598939 476.131217 
L 108.634661 476.65157 
L 108.653636 476.991367 
L 108.678089 477.851516 
L 108.679149 477.92035 
L 108.690635 478.711665 
L 108.699675 479.571815 
L 108.708307 480.431964 
L 108.716201 481.292114 
L 108.721359 482.152263 
L 108.721644 483.012413 
L 108.715318 483.872562 
L 108.701151 484.732712 
L 108.679149 485.573681 
L 108.67869 485.592861 
L 108.651202 486.45301 
L 108.634661 486.875848 
L 108.618388 487.31316 
L 108.590172 487.980915 
L 108.582543 488.173309 
L 108.54603 489.033459 
L 108.545683 489.041448 
L 108.51175 489.893608 
L 108.501194 490.149083 
L 108.47807 490.753758 
L 108.456705 491.271873 
L 108.44308 491.613907 
L 108.412216 492.298275 
L 108.404042 492.474057 
L 108.367727 493.148396 
L 108.356583 493.334206 
L 108.323239 493.822698 
L 108.292566 494.194355 
L 108.27875 494.349209 
L 108.234261 494.765113 
L 108.193474 495.054505 
L 108.189772 495.081254 
L 108.145283 495.343812 
L 108.100794 495.54273 
L 108.056305 495.700914 
L 108.011816 495.840841 
L 107.989493 495.914654 
L 107.967328 496.000682 
L 107.922839 496.200118 
L 107.87835 496.410039 
L 107.833861 496.612319 
L 107.794407 496.774804 
L 107.789372 496.80086 
L 107.744883 497.017124 
L 107.700394 497.193271 
L 107.655906 497.336144 
L 107.611417 497.453605 
L 107.566928 497.550943 
L 107.522439 497.630035 
L 107.518839 497.634953 
L 107.47795 497.710272 
L 107.433461 497.764641 
L 107.388972 497.793792 
L 107.344484 497.802517 
L 107.299995 497.797459 
L 107.255506 497.784449 
L 107.211017 497.764748 
L 107.166528 497.732786 
L 107.122039 497.676645 
z
" clip-path="url(#pfa96de5efa)" style="fill: #e8e8f3"/>
    <path d="M 107.122039 497.676645 
L 107.166528 497.732786 
L 107.211017 497.764748 
L 107.255506 497.784449 
L 107.299995 497.797459 
L 107.344484 497.802517 
L 107.388972 497.793792 
L 107.433461 497.764641 
L 107.47795 497.710272 
L 107.518839 497.634953 
L 107.522439 497.630035 
L 107.566928 497.550943 
L 107.611417 497.453605 
L 107.655906 497.336144 
L 107.700394 497.193271 
L 107.744883 497.017124 
L 107.789372 496.80086 
L 107.794407 496.774804 
L 107.833861 496.612319 
L 107.87835 496.410039 
L 107.922839 496.200118 
L 107.967328 496.000682 
L 107.989493 495.914654 
L 108.011816 495.840841 
L 108.056305 495.700914 
L 108.100794 495.54273 
L 108.145283 495.343812 
L 108.189772 495.081254 
L 108.193474 495.054505 
L 108.234261 494.765113 
L 108.27875 494.349209 
L 108.292566 494.194355 
L 108.323239 493.822698 
L 108.356583 493.334206 
L 108.367727 493.148396 
L 108.404042 492.474057 
L 108.412216 492.298275 
L 108.44308 491.613907 
L 108.456705 491.271873 
L 108.47807 490.753758 
L 108.501194 490.149083 
L 108.51175 489.893608 
L 108.545683 489.041448 
L 108.54603 489.033459 
L 108.582543 488.173309 
L 108.590172 487.980915 
L 108.618388 487.31316 
L 108.634661 486.875848 
L 108.651202 486.45301 
L 108.67869 485.592861 
L 108.679149 485.573681 
L 108.701151 484.732712 
L 108.715318 483.872562 
L 108.721644 483.012413 
L 108.721359 482.152263 
L 108.716201 481.292114 
L 108.708307 480.431964 
L 108.699675 479.571815 
L 108.690635 478.711665 
L 108.679149 477.92035 
L 108.678089 477.851516 
L 108.653636 476.991367 
L 108.634661 476.65157 
L 108.598939 476.131217 
L 108.590172 476.036234 
L 108.545683 475.497083 
L 108.529394 475.271068 
L 108.501194 474.850508 
L 108.47615 474.410918 
L 108.456705 474.016376 
L 108.434969 473.550769 
L 108.412216 473.07801 
L 108.391078 472.690619 
L 108.367727 472.328697 
L 108.326023 471.83047 
L 108.323239 471.797756 
L 108.27875 471.337044 
L 108.241591 470.970321 
L 108.234261 470.864877 
L 108.189772 470.168031 
L 108.186129 470.110171 
L 108.145283 469.335639 
L 108.138104 469.250022 
L 108.100794 468.916403 
L 108.056305 468.755299 
L 108.011816 468.686361 
L 107.967328 468.638027 
L 107.922839 468.595753 
L 107.87835 468.585926 
L 107.833861 468.653503 
L 107.789372 468.828892 
L 107.744883 469.110642 
L 107.727718 469.250022 
L 107.700394 469.459775 
L 107.655906 469.844775 
L 107.62627 470.110171 
L 107.611417 470.238029 
L 107.566928 470.607292 
L 107.522439 470.970321 
L 107.522439 470.970321 
L 107.47795 471.295712 
L 107.433461 471.63771 
L 107.410359 471.83047 
L 107.388972 471.99725 
L 107.344484 472.389953 
L 107.315255 472.690619 
L 107.299995 472.833597 
L 107.255506 473.312183 
L 107.236106 473.550769 
L 107.211017 473.834299 
L 107.167839 474.410918 
L 107.166528 474.427365 
L 107.122039 475.06412 
L 107.10961 475.271068 
L 107.07755 475.802145 
L 107.059926 476.131217 
L 107.033062 476.643029 
L 107.015806 476.991367 
L 106.988573 477.556061 
L 106.974195 477.851516 
L 106.944084 478.479187 
L 106.932311 478.711665 
L 106.899595 479.359295 
L 106.888268 479.571815 
L 106.855106 480.203587 
L 106.842989 480.431964 
L 106.810617 481.077462 
L 106.800185 481.292114 
L 106.766128 482.07396 
L 106.762828 482.152263 
L 106.731344 483.012413 
L 106.721639 483.346494 
L 106.705638 483.872562 
L 106.685378 484.732712 
L 106.677151 485.218637 
L 106.67004 485.592861 
L 106.657388 486.45301 
L 106.645964 487.31316 
L 106.634276 488.173309 
L 106.632662 488.277961 
L 106.620096 489.033459 
L 106.608251 489.893608 
L 106.601828 490.753758 
L 106.603231 491.613907 
L 106.615222 492.474057 
L 106.632662 493.073523 
L 106.640125 493.334206 
L 106.677151 494.154283 
L 106.679046 494.194355 
L 106.721639 494.886276 
L 106.732931 495.054505 
L 106.766128 495.47406 
L 106.806072 495.914654 
L 106.810617 495.960887 
L 106.855106 496.39297 
L 106.899595 496.74061 
L 106.904555 496.774804 
L 106.944084 497.059712 
L 106.988573 497.304554 
L 107.033062 497.478856 
L 107.07755 497.594567 
L 107.102276 497.634953 
z
M 107.028733 495.914654 
L 106.988573 495.65892 
L 106.944084 495.277891 
L 106.922517 495.054505 
L 106.899595 494.781 
L 106.857611 494.194355 
L 106.855106 494.150577 
L 106.811181 493.334206 
L 106.810617 493.31961 
L 106.77819 492.474057 
L 106.766128 491.891603 
L 106.760239 491.613907 
L 106.755728 490.753758 
L 106.763178 489.893608 
L 106.766128 489.734812 
L 106.77751 489.033459 
L 106.79625 488.173309 
L 106.810617 487.596305 
L 106.816989 487.31316 
L 106.837102 486.45301 
L 106.855106 485.76437 
L 106.859307 485.592861 
L 106.882063 484.732712 
L 106.899595 484.184176 
L 106.909346 483.872562 
L 106.941219 483.012413 
L 106.944084 482.942297 
L 106.975871 482.152263 
L 106.988573 481.864224 
L 107.013345 481.292114 
L 107.033062 480.852612 
L 107.051759 480.431964 
L 107.07755 479.861606 
L 107.090939 479.571815 
L 107.122039 478.922242 
L 107.13287 478.711665 
L 107.166528 478.096432 
L 107.181799 477.851516 
L 107.211017 477.410005 
L 107.244316 476.991367 
L 107.255506 476.853369 
L 107.299995 476.384629 
L 107.329225 476.131217 
L 107.344484 475.990527 
L 107.388972 475.630675 
L 107.433461 475.323566 
L 107.441862 475.271068 
L 107.47795 475.01076 
L 107.522439 474.721688 
L 107.566928 474.461181 
L 107.576315 474.410918 
L 107.611417 474.181769 
L 107.655906 473.911393 
L 107.700394 473.659558 
L 107.721824 473.550769 
L 107.744883 473.412041 
L 107.789372 473.192216 
L 107.833861 473.042224 
L 107.87835 472.98715 
L 107.922839 473.046838 
L 107.967328 473.230591 
L 108.011816 473.527701 
L 108.014599 473.550769 
L 108.056305 473.861705 
L 108.100794 474.237218 
L 108.120368 474.410918 
L 108.145283 474.640875 
L 108.189772 475.099735 
L 108.204636 475.271068 
L 108.234261 475.598371 
L 108.27875 476.131217 
L 108.27875 476.131217 
L 108.323239 476.613575 
L 108.35298 476.991367 
L 108.367727 477.167511 
L 108.412216 477.839026 
L 108.412933 477.851516 
L 108.453108 478.711665 
L 108.456705 478.820193 
L 108.479949 479.571815 
L 108.497422 480.431964 
L 108.501194 480.705198 
L 108.509802 481.292114 
L 108.517 482.152263 
L 108.517766 483.012413 
L 108.510876 483.872562 
L 108.501194 484.433113 
L 108.496379 484.732712 
L 108.476176 485.592861 
L 108.456705 486.258622 
L 108.451457 486.45301 
L 108.426281 487.31316 
L 108.412216 487.767925 
L 108.400869 488.173309 
L 108.374857 489.033459 
L 108.367727 489.245466 
L 108.346857 489.893608 
L 108.323239 490.507874 
L 108.313518 490.753758 
L 108.27875 491.474908 
L 108.271257 491.613907 
L 108.234261 492.191968 
L 108.212221 492.474057 
L 108.189772 492.729437 
L 108.145283 493.138921 
L 108.119104 493.334206 
L 108.100794 493.466002 
L 108.056305 493.758189 
L 108.011816 494.020754 
L 107.981973 494.194355 
L 107.967328 494.284726 
L 107.922839 494.575023 
L 107.87835 494.84853 
L 107.84248 495.054505 
L 107.833861 495.11046 
L 107.789372 495.384065 
L 107.744883 495.612034 
L 107.700394 495.79853 
L 107.666449 495.914654 
L 107.655906 495.957673 
L 107.611417 496.103424 
L 107.566928 496.213311 
L 107.522439 496.293727 
L 107.47795 496.349888 
L 107.433461 496.387064 
L 107.388972 496.410951 
L 107.344484 496.426538 
L 107.299995 496.436016 
L 107.255506 496.437118 
L 107.211017 496.422708 
L 107.166528 496.381373 
L 107.122039 496.298463 
L 107.07755 496.157488 
L 107.033062 495.941646 
z
" clip-path="url(#pfa96de5efa)" style="fill: #d4d4f4"/>
    <path d="M 107.033062 495.941646 
L 107.07755 496.157488 
L 107.122039 496.298463 
L 107.166528 496.381373 
L 107.211017 496.422708 
L 107.255506 496.437118 
L 107.299995 496.436016 
L 107.344484 496.426538 
L 107.388972 496.410951 
L 107.433461 496.387064 
L 107.47795 496.349888 
L 107.522439 496.293727 
L 107.566928 496.213311 
L 107.611417 496.103424 
L 107.655906 495.957673 
L 107.666449 495.914654 
L 107.700394 495.79853 
L 107.744883 495.612034 
L 107.789372 495.384065 
L 107.833861 495.11046 
L 107.84248 495.054505 
L 107.87835 494.84853 
L 107.922839 494.575023 
L 107.967328 494.284726 
L 107.981973 494.194355 
L 108.011816 494.020754 
L 108.056305 493.758189 
L 108.100794 493.466002 
L 108.119104 493.334206 
L 108.145283 493.138921 
L 108.189772 492.729437 
L 108.212221 492.474057 
L 108.234261 492.191968 
L 108.271257 491.613907 
L 108.27875 491.474908 
L 108.313518 490.753758 
L 108.323239 490.507874 
L 108.346857 489.893608 
L 108.367727 489.245466 
L 108.374857 489.033459 
L 108.400869 488.173309 
L 108.412216 487.767925 
L 108.426281 487.31316 
L 108.451457 486.45301 
L 108.456705 486.258622 
L 108.476176 485.592861 
L 108.496379 484.732712 
L 108.501194 484.433113 
L 108.510876 483.872562 
L 108.517766 483.012413 
L 108.517 482.152263 
L 108.509802 481.292114 
L 108.501194 480.705198 
L 108.497422 480.431964 
L 108.479949 479.571815 
L 108.456705 478.820193 
L 108.453108 478.711665 
L 108.412933 477.851516 
L 108.412216 477.839026 
L 108.367727 477.167511 
L 108.35298 476.991367 
L 108.323239 476.613575 
L 108.27875 476.131217 
L 108.27875 476.131217 
L 108.234261 475.598371 
L 108.204636 475.271068 
L 108.189772 475.099735 
L 108.145283 474.640875 
L 108.120368 474.410918 
L 108.100794 474.237218 
L 108.056305 473.861705 
L 108.014599 473.550769 
L 108.011816 473.527701 
L 107.967328 473.230591 
L 107.922839 473.046838 
L 107.87835 472.98715 
L 107.833861 473.042224 
L 107.789372 473.192216 
L 107.744883 473.412041 
L 107.721824 473.550769 
L 107.700394 473.659558 
L 107.655906 473.911393 
L 107.611417 474.181769 
L 107.576315 474.410918 
L 107.566928 474.461181 
L 107.522439 474.721688 
L 107.47795 475.01076 
L 107.441862 475.271068 
L 107.433461 475.323566 
L 107.388972 475.630675 
L 107.344484 475.990527 
L 107.329225 476.131217 
L 107.299995 476.384629 
L 107.255506 476.853369 
L 107.244316 476.991367 
L 107.211017 477.410005 
L 107.181799 477.851516 
L 107.166528 478.096432 
L 107.13287 478.711665 
L 107.122039 478.922242 
L 107.090939 479.571815 
L 107.07755 479.861606 
L 107.051759 480.431964 
L 107.033062 480.852612 
L 107.013345 481.292114 
L 106.988573 481.864224 
L 106.975871 482.152263 
L 106.944084 482.942297 
L 106.941219 483.012413 
L 106.909346 483.872562 
L 106.899595 484.184176 
L 106.882063 484.732712 
L 106.859307 485.592861 
L 106.855106 485.76437 
L 106.837102 486.45301 
L 106.816989 487.31316 
L 106.810617 487.596305 
L 106.79625 488.173309 
L 106.77751 489.033459 
L 106.766128 489.734812 
L 106.763178 489.893608 
L 106.755728 490.753758 
L 106.760239 491.613907 
L 106.766128 491.891603 
L 106.77819 492.474057 
L 106.810617 493.31961 
L 106.811181 493.334206 
L 106.855106 494.150577 
L 106.857611 494.194355 
L 106.899595 494.781 
L 106.922517 495.054505 
L 106.944084 495.277891 
L 106.988573 495.65892 
L 107.028733 495.914654 
z
M 107.120323 495.054505 
L 107.07755 494.828293 
L 107.033062 494.485884 
L 107.004023 494.194355 
L 106.988573 494.005006 
L 106.944084 493.342824 
L 106.943561 493.334206 
L 106.904526 492.474057 
L 106.899595 492.30168 
L 106.880284 491.613907 
L 106.870049 490.753758 
L 106.871823 489.893608 
L 106.882634 489.033459 
L 106.899595 488.17814 
L 106.899681 488.173309 
L 106.91869 487.31316 
L 106.941215 486.45301 
L 106.944084 486.35489 
L 106.965528 485.592861 
L 106.988573 484.911889 
L 106.994603 484.732712 
L 107.027834 483.872562 
L 107.033062 483.749135 
L 107.065242 483.012413 
L 107.07755 482.746016 
L 107.106346 482.152263 
L 107.122039 481.829563 
L 107.150019 481.292114 
L 107.166528 480.967719 
L 107.19658 480.431964 
L 107.211017 480.170403 
L 107.248942 479.571815 
L 107.255506 479.468866 
L 107.299995 478.865478 
L 107.313612 478.711665 
L 107.344484 478.362432 
L 107.388972 477.952601 
L 107.401807 477.851516 
L 107.433461 477.590959 
L 107.47795 477.282917 
L 107.522439 477.030556 
L 107.530721 476.991367 
L 107.566928 476.797444 
L 107.611417 476.612344 
L 107.655906 476.476612 
L 107.700394 476.380929 
L 107.744883 476.314194 
L 107.789372 476.26918 
L 107.833861 476.250359 
L 107.87835 476.278097 
L 107.922839 476.384041 
L 107.967328 476.598507 
L 108.011816 476.937257 
L 108.017448 476.991367 
L 108.056305 477.364568 
L 108.100794 477.84706 
L 108.101224 477.851516 
L 108.145283 478.273964 
L 108.189772 478.64077 
L 108.19901 478.711665 
L 108.234261 478.980669 
L 108.27875 479.409918 
L 108.290798 479.571815 
L 108.323239 480.157928 
L 108.334183 480.431964 
L 108.356348 481.292114 
L 108.367727 482.152263 
L 108.367727 482.152263 
L 108.370321 483.012413 
L 108.367727 483.368832 
L 108.364356 483.872562 
L 108.350999 484.732712 
L 108.331701 485.592861 
L 108.323239 485.911548 
L 108.310093 486.45301 
L 108.287671 487.31316 
L 108.27875 487.638802 
L 108.265007 488.173309 
L 108.239181 489.033459 
L 108.234261 489.16973 
L 108.207645 489.893608 
L 108.189772 490.265265 
L 108.164286 490.753758 
L 108.145283 491.044304 
L 108.102426 491.613907 
L 108.100794 491.632537 
L 108.056305 492.116197 
L 108.018174 492.474057 
L 108.011816 492.530111 
L 107.967328 492.919052 
L 107.922839 493.270432 
L 107.914639 493.334206 
L 107.87835 493.619496 
L 107.833861 493.934729 
L 107.792066 494.194355 
L 107.789372 494.212223 
L 107.744883 494.473687 
L 107.700394 494.683657 
L 107.655906 494.84823 
L 107.611417 494.973455 
L 107.572392 495.054505 
L 107.566928 495.067403 
L 107.522439 495.144681 
L 107.47795 495.202631 
L 107.433461 495.249053 
L 107.388972 495.288433 
L 107.344484 495.32061 
L 107.299995 495.340514 
L 107.255506 495.338819 
L 107.211017 495.302735 
L 107.166528 495.216629 
L 107.122039 495.062927 
z
" clip-path="url(#pfa96de5efa)" style="fill: #bdbdf5"/>
    <path d="M 107.122039 495.062927 
L 107.166528 495.216629 
L 107.211017 495.302735 
L 107.255506 495.338819 
L 107.299995 495.340514 
L 107.344484 495.32061 
L 107.388972 495.288433 
L 107.433461 495.249053 
L 107.47795 495.202631 
L 107.522439 495.144681 
L 107.566928 495.067403 
L 107.572392 495.054505 
L 107.611417 494.973455 
L 107.655906 494.84823 
L 107.700394 494.683657 
L 107.744883 494.473687 
L 107.789372 494.212223 
L 107.792066 494.194355 
L 107.833861 493.934729 
L 107.87835 493.619496 
L 107.914639 493.334206 
L 107.922839 493.270432 
L 107.967328 492.919052 
L 108.011816 492.530111 
L 108.018174 492.474057 
L 108.056305 492.116197 
L 108.100794 491.632537 
L 108.102426 491.613907 
L 108.145283 491.044304 
L 108.164286 490.753758 
L 108.189772 490.265265 
L 108.207645 489.893608 
L 108.234261 489.16973 
L 108.239181 489.033459 
L 108.265007 488.173309 
L 108.27875 487.638802 
L 108.287671 487.31316 
L 108.310093 486.45301 
L 108.323239 485.911548 
L 108.331701 485.592861 
L 108.350999 484.732712 
L 108.364356 483.872562 
L 108.367727 483.368832 
L 108.370321 483.012413 
L 108.367727 482.152263 
L 108.367727 482.152263 
L 108.356348 481.292114 
L 108.334183 480.431964 
L 108.323239 480.157928 
L 108.290798 479.571815 
L 108.27875 479.409918 
L 108.234261 478.980669 
L 108.19901 478.711665 
L 108.189772 478.64077 
L 108.145283 478.273964 
L 108.101224 477.851516 
L 108.100794 477.84706 
L 108.056305 477.364568 
L 108.017448 476.991367 
L 108.011816 476.937257 
L 107.967328 476.598507 
L 107.922839 476.384041 
L 107.87835 476.278097 
L 107.833861 476.250359 
L 107.789372 476.26918 
L 107.744883 476.314194 
L 107.700394 476.380929 
L 107.655906 476.476612 
L 107.611417 476.612344 
L 107.566928 476.797444 
L 107.530721 476.991367 
L 107.522439 477.030556 
L 107.47795 477.282917 
L 107.433461 477.590959 
L 107.401807 477.851516 
L 107.388972 477.952601 
L 107.344484 478.362432 
L 107.313612 478.711665 
L 107.299995 478.865478 
L 107.255506 479.468866 
L 107.248942 479.571815 
L 107.211017 480.170403 
L 107.19658 480.431964 
L 107.166528 480.967719 
L 107.150019 481.292114 
L 107.122039 481.829563 
L 107.106346 482.152263 
L 107.07755 482.746016 
L 107.065242 483.012413 
L 107.033062 483.749135 
L 107.027834 483.872562 
L 106.994603 484.732712 
L 106.988573 484.911889 
L 106.965528 485.592861 
L 106.944084 486.35489 
L 106.941215 486.45301 
L 106.91869 487.31316 
L 106.899681 488.173309 
L 106.899595 488.17814 
L 106.882634 489.033459 
L 106.871823 489.893608 
L 106.870049 490.753758 
L 106.880284 491.613907 
L 106.899595 492.30168 
L 106.904526 492.474057 
L 106.943561 493.334206 
L 106.944084 493.342824 
L 106.988573 494.005006 
L 107.004023 494.194355 
L 107.033062 494.485884 
L 107.07755 494.828293 
L 107.120323 495.054505 
z
M 107.182113 494.194355 
L 107.166528 494.133443 
L 107.122039 493.861426 
L 107.07755 493.457122 
L 107.066671 493.334206 
L 107.033062 492.837848 
L 107.012498 492.474057 
L 106.988573 491.838342 
L 106.980832 491.613907 
L 106.964756 490.753758 
L 106.961609 489.893608 
L 106.968298 489.033459 
L 106.982083 488.173309 
L 106.988573 487.878124 
L 107.00021 487.31316 
L 107.02241 486.45301 
L 107.033062 486.109023 
L 107.048952 485.592861 
L 107.07755 484.823639 
L 107.081029 484.732712 
L 107.118666 483.872562 
L 107.122039 483.801571 
L 107.161918 483.012413 
L 107.166528 482.924164 
L 107.210274 482.152263 
L 107.211017 482.139039 
L 107.255506 481.414472 
L 107.263976 481.292114 
L 107.299995 480.761424 
L 107.326126 480.431964 
L 107.344484 480.19644 
L 107.388972 479.712809 
L 107.40424 479.571815 
L 107.433461 479.296331 
L 107.47795 478.950701 
L 107.516083 478.711665 
L 107.522439 478.670132 
L 107.566928 478.444991 
L 107.611417 478.291304 
L 107.655906 478.204918 
L 107.700394 478.178718 
L 107.744883 478.203444 
L 107.789372 478.274069 
L 107.833861 478.39631 
L 107.87835 478.587774 
L 107.898682 478.711665 
L 107.922839 478.865242 
L 107.967328 479.245032 
L 107.998286 479.571815 
L 108.011816 479.716213 
L 108.056305 480.213292 
L 108.077066 480.431964 
L 108.100794 480.686163 
L 108.145283 481.146302 
L 108.158503 481.292114 
L 108.189772 481.75122 
L 108.209792 482.152263 
L 108.232694 483.012413 
L 108.234261 483.197496 
L 108.23883 483.872562 
L 108.234261 484.732712 
L 108.234261 484.732712 
L 108.222145 485.592861 
L 108.205662 486.45301 
L 108.189772 487.135683 
L 108.185894 487.31316 
L 108.163202 488.173309 
L 108.145283 488.712563 
L 108.134527 489.033459 
L 108.100794 489.797654 
L 108.096333 489.893608 
L 108.056305 490.564848 
L 108.044086 490.753758 
L 108.011816 491.167931 
L 107.973555 491.613907 
L 107.967328 491.67857 
L 107.922839 492.121756 
L 107.884087 492.474057 
L 107.87835 492.523668 
L 107.833861 492.884438 
L 107.789372 493.198171 
L 107.766921 493.334206 
L 107.744883 493.468619 
L 107.700394 493.69049 
L 107.655906 493.862774 
L 107.611417 493.992873 
L 107.566928 494.090281 
L 107.522439 494.16561 
L 107.502364 494.194355 
L 107.47795 494.232444 
L 107.433461 494.295216 
L 107.388972 494.350082 
L 107.344484 494.390532 
L 107.299995 494.405377 
L 107.255506 494.37987 
L 107.211017 494.29626 
z
" clip-path="url(#pfa96de5efa)" style="fill: #a3a3f7"/>
    <path d="M 107.211017 494.29626 
L 107.255506 494.37987 
L 107.299995 494.405377 
L 107.344484 494.390532 
L 107.388972 494.350082 
L 107.433461 494.295216 
L 107.47795 494.232444 
L 107.502364 494.194355 
L 107.522439 494.16561 
L 107.566928 494.090281 
L 107.611417 493.992873 
L 107.655906 493.862774 
L 107.700394 493.69049 
L 107.744883 493.468619 
L 107.766921 493.334206 
L 107.789372 493.198171 
L 107.833861 492.884438 
L 107.87835 492.523668 
L 107.884087 492.474057 
L 107.922839 492.121756 
L 107.967328 491.67857 
L 107.973555 491.613907 
L 108.011816 491.167931 
L 108.044086 490.753758 
L 108.056305 490.564848 
L 108.096333 489.893608 
L 108.100794 489.797654 
L 108.134527 489.033459 
L 108.145283 488.712563 
L 108.163202 488.173309 
L 108.185894 487.31316 
L 108.189772 487.135683 
L 108.205662 486.45301 
L 108.222145 485.592861 
L 108.234261 484.732712 
L 108.234261 484.732712 
L 108.23883 483.872562 
L 108.234261 483.197496 
L 108.232694 483.012413 
L 108.209792 482.152263 
L 108.189772 481.75122 
L 108.158503 481.292114 
L 108.145283 481.146302 
L 108.100794 480.686163 
L 108.077066 480.431964 
L 108.056305 480.213292 
L 108.011816 479.716213 
L 107.998286 479.571815 
L 107.967328 479.245032 
L 107.922839 478.865242 
L 107.898682 478.711665 
L 107.87835 478.587774 
L 107.833861 478.39631 
L 107.789372 478.274069 
L 107.744883 478.203444 
L 107.700394 478.178718 
L 107.655906 478.204918 
L 107.611417 478.291304 
L 107.566928 478.444991 
L 107.522439 478.670132 
L 107.516083 478.711665 
L 107.47795 478.950701 
L 107.433461 479.296331 
L 107.40424 479.571815 
L 107.388972 479.712809 
L 107.344484 480.19644 
L 107.326126 480.431964 
L 107.299995 480.761424 
L 107.263976 481.292114 
L 107.255506 481.414472 
L 107.211017 482.139039 
L 107.210274 482.152263 
L 107.166528 482.924164 
L 107.161918 483.012413 
L 107.122039 483.801571 
L 107.118666 483.872562 
L 107.081029 484.732712 
L 107.07755 484.823639 
L 107.048952 485.592861 
L 107.033062 486.109023 
L 107.02241 486.45301 
L 107.00021 487.31316 
L 106.988573 487.878124 
L 106.982083 488.173309 
L 106.968298 489.033459 
L 106.961609 489.893608 
L 106.964756 490.753758 
L 106.980832 491.613907 
L 106.988573 491.838342 
L 107.012498 492.474057 
L 107.033062 492.837848 
L 107.066671 493.334206 
L 107.07755 493.457122 
L 107.122039 493.861426 
L 107.166528 494.133443 
L 107.182113 494.194355 
z
M 107.228231 493.334206 
L 107.211017 493.262082 
L 107.166528 492.95199 
L 107.122039 492.474057 
L 107.122039 492.474057 
L 107.07755 491.648614 
L 107.075969 491.613907 
L 107.051722 490.753758 
L 107.042977 489.893608 
L 107.045637 489.033459 
L 107.056688 488.173309 
L 107.074393 487.31316 
L 107.07755 487.195184 
L 107.097274 486.45301 
L 107.122039 485.718683 
L 107.126439 485.592861 
L 107.162229 484.732712 
L 107.166528 484.641371 
L 107.20542 483.872562 
L 107.211017 483.769614 
L 107.255506 483.021132 
L 107.256077 483.012413 
L 107.299995 482.353288 
L 107.315233 482.152263 
L 107.344484 481.76313 
L 107.386006 481.292114 
L 107.388972 481.257798 
L 107.433461 480.81697 
L 107.47795 480.463184 
L 107.483015 480.431964 
L 107.522439 480.17738 
L 107.566928 479.97326 
L 107.611417 479.851846 
L 107.655906 479.810106 
L 107.700394 479.841347 
L 107.744883 479.940382 
L 107.789372 480.108894 
L 107.833861 480.356645 
L 107.844339 480.431964 
L 107.87835 480.679615 
L 107.922839 481.100715 
L 107.939985 481.292114 
L 107.967328 481.614777 
L 108.00768 482.152263 
L 108.011816 482.218369 
L 108.056305 482.971921 
L 108.058592 483.012413 
L 108.091079 483.872562 
L 108.100794 484.38444 
L 108.106728 484.732712 
L 108.109928 485.592861 
L 108.103874 486.45301 
L 108.100794 486.637653 
L 108.089983 487.31316 
L 108.068671 488.173309 
L 108.056305 488.523722 
L 108.037835 489.033459 
L 108.011816 489.558199 
L 107.994371 489.893608 
L 107.967328 490.296662 
L 107.934789 490.753758 
L 107.922839 490.893372 
L 107.87835 491.382522 
L 107.855652 491.613907 
L 107.833861 491.810455 
L 107.789372 492.169243 
L 107.744883 492.473736 
L 107.744827 492.474057 
L 107.700394 492.713713 
L 107.655906 492.902024 
L 107.611417 493.047133 
L 107.566928 493.160571 
L 107.522439 493.254262 
L 107.479509 493.334206 
L 107.47795 493.337195 
L 107.433461 493.415482 
L 107.388972 493.478692 
L 107.344484 493.514663 
L 107.299995 493.506221 
L 107.255506 493.431937 
z
" clip-path="url(#pfa96de5efa)" style="fill: #8989f8"/>
    <path d="M 107.255506 493.431937 
L 107.299995 493.506221 
L 107.344484 493.514663 
L 107.388972 493.478692 
L 107.433461 493.415482 
L 107.47795 493.337195 
L 107.479509 493.334206 
L 107.522439 493.254262 
L 107.566928 493.160571 
L 107.611417 493.047133 
L 107.655906 492.902024 
L 107.700394 492.713713 
L 107.744827 492.474057 
L 107.744883 492.473736 
L 107.789372 492.169243 
L 107.833861 491.810455 
L 107.855652 491.613907 
L 107.87835 491.382522 
L 107.922839 490.893372 
L 107.934789 490.753758 
L 107.967328 490.296662 
L 107.994371 489.893608 
L 108.011816 489.558199 
L 108.037835 489.033459 
L 108.056305 488.523722 
L 108.068671 488.173309 
L 108.089983 487.31316 
L 108.100794 486.637653 
L 108.103874 486.45301 
L 108.109928 485.592861 
L 108.106728 484.732712 
L 108.100794 484.38444 
L 108.091079 483.872562 
L 108.058592 483.012413 
L 108.056305 482.971921 
L 108.011816 482.218369 
L 108.00768 482.152263 
L 107.967328 481.614777 
L 107.939985 481.292114 
L 107.922839 481.100715 
L 107.87835 480.679615 
L 107.844339 480.431964 
L 107.833861 480.356645 
L 107.789372 480.108894 
L 107.744883 479.940382 
L 107.700394 479.841347 
L 107.655906 479.810106 
L 107.611417 479.851846 
L 107.566928 479.97326 
L 107.522439 480.17738 
L 107.483015 480.431964 
L 107.47795 480.463184 
L 107.433461 480.81697 
L 107.388972 481.257798 
L 107.386006 481.292114 
L 107.344484 481.76313 
L 107.315233 482.152263 
L 107.299995 482.353288 
L 107.256077 483.012413 
L 107.255506 483.021132 
L 107.211017 483.769614 
L 107.20542 483.872562 
L 107.166528 484.641371 
L 107.162229 484.732712 
L 107.126439 485.592861 
L 107.122039 485.718683 
L 107.097274 486.45301 
L 107.07755 487.195184 
L 107.074393 487.31316 
L 107.056688 488.173309 
L 107.045637 489.033459 
L 107.042977 489.893608 
L 107.051722 490.753758 
L 107.075969 491.613907 
L 107.07755 491.648614 
L 107.122039 492.474057 
L 107.122039 492.474057 
L 107.166528 492.95199 
L 107.211017 493.262082 
L 107.228231 493.334206 
z
M 107.269552 492.474057 
L 107.255506 492.414548 
L 107.211017 492.072346 
L 107.173602 491.613907 
L 107.166528 491.482047 
L 107.13582 490.753758 
L 107.122039 490.0427 
L 107.119454 489.893608 
L 107.117733 489.033459 
L 107.122039 488.636234 
L 107.126841 488.173309 
L 107.144342 487.31316 
L 107.166528 486.553763 
L 107.169603 486.45301 
L 107.202724 485.592861 
L 107.211017 485.410396 
L 107.244709 484.732712 
L 107.255506 484.537003 
L 107.29632 483.872562 
L 107.299995 483.815626 
L 107.344484 483.198621 
L 107.360035 483.012413 
L 107.388972 482.668087 
L 107.433461 482.228711 
L 107.443074 482.152263 
L 107.47795 481.86596 
L 107.522439 481.592355 
L 107.566928 481.409177 
L 107.611417 481.310758 
L 107.655906 481.292114 
L 107.700394 481.353218 
L 107.744883 481.500398 
L 107.789372 481.744232 
L 107.833861 482.096582 
L 107.839589 482.152263 
L 107.87835 482.580841 
L 107.909814 483.012413 
L 107.922839 483.254579 
L 107.952418 483.872562 
L 107.967328 484.402016 
L 107.976482 484.732712 
L 107.988254 485.592861 
L 107.990393 486.45301 
L 107.983084 487.31316 
L 107.967328 488.060851 
L 107.964985 488.173309 
L 107.933426 489.033459 
L 107.922839 489.229899 
L 107.886097 489.893608 
L 107.87835 489.9985 
L 107.833861 490.57024 
L 107.818352 490.753758 
L 107.789372 491.031235 
L 107.744883 491.40283 
L 107.714429 491.613907 
L 107.700394 491.699621 
L 107.655906 491.922308 
L 107.611417 492.098343 
L 107.566928 492.240159 
L 107.522439 492.360176 
L 107.47795 492.46616 
L 107.474117 492.474057 
L 107.433461 492.555094 
L 107.388972 492.616878 
L 107.344484 492.633162 
L 107.299995 492.578559 
z
" clip-path="url(#pfa96de5efa)" style="fill: #6d6df9"/>
    <path d="M 107.299995 492.578559 
L 107.344484 492.633162 
L 107.388972 492.616878 
L 107.433461 492.555094 
L 107.474117 492.474057 
L 107.47795 492.46616 
L 107.522439 492.360176 
L 107.566928 492.240159 
L 107.611417 492.098343 
L 107.655906 491.922308 
L 107.700394 491.699621 
L 107.714429 491.613907 
L 107.744883 491.40283 
L 107.789372 491.031235 
L 107.818352 490.753758 
L 107.833861 490.57024 
L 107.87835 489.9985 
L 107.886097 489.893608 
L 107.922839 489.229899 
L 107.933426 489.033459 
L 107.964985 488.173309 
L 107.967328 488.060851 
L 107.983084 487.31316 
L 107.990393 486.45301 
L 107.988254 485.592861 
L 107.976482 484.732712 
L 107.967328 484.402016 
L 107.952418 483.872562 
L 107.922839 483.254579 
L 107.909814 483.012413 
L 107.87835 482.580841 
L 107.839589 482.152263 
L 107.833861 482.096582 
L 107.789372 481.744232 
L 107.744883 481.500398 
L 107.700394 481.353218 
L 107.655906 481.292114 
L 107.611417 481.310758 
L 107.566928 481.409177 
L 107.522439 481.592355 
L 107.47795 481.86596 
L 107.443074 482.152263 
L 107.433461 482.228711 
L 107.388972 482.668087 
L 107.360035 483.012413 
L 107.344484 483.198621 
L 107.299995 483.815626 
L 107.29632 483.872562 
L 107.255506 484.537003 
L 107.244709 484.732712 
L 107.211017 485.410396 
L 107.202724 485.592861 
L 107.169603 486.45301 
L 107.166528 486.553763 
L 107.144342 487.31316 
L 107.126841 488.173309 
L 107.122039 488.636234 
L 107.117733 489.033459 
L 107.119454 489.893608 
L 107.122039 490.0427 
L 107.13582 490.753758 
L 107.166528 491.482047 
L 107.173602 491.613907 
L 107.211017 492.072346 
L 107.255506 492.414548 
L 107.269552 492.474057 
z
M 107.237432 490.753758 
L 107.211017 490.087745 
L 107.20514 489.893608 
L 107.19674 489.033459 
L 107.203209 488.173309 
L 107.211017 487.802416 
L 107.22186 487.31316 
L 107.250981 486.45301 
L 107.255506 486.347728 
L 107.29148 485.592861 
L 107.299995 485.438891 
L 107.344043 484.732712 
L 107.344484 484.726221 
L 107.388972 484.148797 
L 107.414023 483.872562 
L 107.433461 483.667736 
L 107.47795 483.287662 
L 107.520622 483.012413 
L 107.522439 483.000752 
L 107.566928 482.806926 
L 107.611417 482.711575 
L 107.655906 482.718178 
L 107.700394 482.836484 
L 107.733078 483.012413 
L 107.744883 483.088161 
L 107.789372 483.525143 
L 107.815064 483.872562 
L 107.833861 484.271214 
L 107.852019 484.732712 
L 107.867527 485.592861 
L 107.86982 486.45301 
L 107.862038 487.31316 
L 107.843039 488.173309 
L 107.833861 488.414931 
L 107.809291 489.033459 
L 107.789372 489.364024 
L 107.753728 489.893608 
L 107.744883 489.990831 
L 107.700394 490.415023 
L 107.655906 490.753758 
L 107.655906 490.753758 
L 107.611417 490.986095 
L 107.566928 491.17316 
L 107.522439 491.328666 
L 107.47795 491.459526 
L 107.433461 491.560653 
L 107.388972 491.61171 
L 107.344484 491.575284 
L 107.299995 491.39669 
L 107.255506 491.006403 
z
" clip-path="url(#pfa96de5efa)" style="fill: #5050fb"/>
    <path d="M 107.255506 491.006403 
L 107.299995 491.39669 
L 107.344484 491.575284 
L 107.388972 491.61171 
L 107.433461 491.560653 
L 107.47795 491.459526 
L 107.522439 491.328666 
L 107.566928 491.17316 
L 107.611417 490.986095 
L 107.655906 490.753758 
L 107.655906 490.753758 
L 107.700394 490.415023 
L 107.744883 489.990831 
L 107.753728 489.893608 
L 107.789372 489.364024 
L 107.809291 489.033459 
L 107.833861 488.414931 
L 107.843039 488.173309 
L 107.862038 487.31316 
L 107.86982 486.45301 
L 107.867527 485.592861 
L 107.852019 484.732712 
L 107.833861 484.271214 
L 107.815064 483.872562 
L 107.789372 483.525143 
L 107.744883 483.088161 
L 107.733078 483.012413 
L 107.700394 482.836484 
L 107.655906 482.718178 
L 107.611417 482.711575 
L 107.566928 482.806926 
L 107.522439 483.000752 
L 107.520622 483.012413 
L 107.47795 483.287662 
L 107.433461 483.667736 
L 107.414023 483.872562 
L 107.388972 484.148797 
L 107.344484 484.726221 
L 107.344043 484.732712 
L 107.299995 485.438891 
L 107.29148 485.592861 
L 107.255506 486.347728 
L 107.250981 486.45301 
L 107.22186 487.31316 
L 107.211017 487.802416 
L 107.203209 488.173309 
L 107.19674 489.033459 
L 107.20514 489.893608 
L 107.211017 490.087745 
L 107.237432 490.753758 
z
M 107.329472 489.893608 
L 107.299995 489.219896 
L 107.295009 489.033459 
L 107.295368 488.173309 
L 107.299995 487.961746 
L 107.315879 487.31316 
L 107.344484 486.6157 
L 107.352019 486.45301 
L 107.388972 485.847084 
L 107.406537 485.592861 
L 107.433461 485.265993 
L 107.47795 484.810051 
L 107.487664 484.732712 
L 107.522439 484.495494 
L 107.566928 484.304585 
L 107.611417 484.245389 
L 107.655906 484.351606 
L 107.700394 484.667743 
L 107.705931 484.732712 
L 107.744883 485.592861 
L 107.744883 485.592861 
L 107.752609 486.45301 
L 107.744883 487.181726 
L 107.743348 487.31316 
L 107.716678 488.173309 
L 107.700394 488.487369 
L 107.66607 489.033459 
L 107.655906 489.146325 
L 107.611417 489.542007 
L 107.566928 489.8547 
L 107.559985 489.893608 
L 107.522439 490.056021 
L 107.47795 490.198799 
L 107.433461 490.277462 
L 107.388972 490.250778 
L 107.344484 490.04499 
z
" clip-path="url(#pfa96de5efa)" style="fill: #3030fd"/>
    <path d="M 107.344484 490.04499 
L 107.388972 490.250778 
L 107.433461 490.277462 
L 107.47795 490.198799 
L 107.522439 490.056021 
L 107.559985 489.893608 
L 107.566928 489.8547 
L 107.611417 489.542007 
L 107.655906 489.146325 
L 107.66607 489.033459 
L 107.700394 488.487369 
L 107.716678 488.173309 
L 107.743348 487.31316 
L 107.744883 487.181726 
L 107.752609 486.45301 
L 107.744883 485.592861 
L 107.744883 485.592861 
L 107.705931 484.732712 
L 107.700394 484.667743 
L 107.655906 484.351606 
L 107.611417 484.245389 
L 107.566928 484.304585 
L 107.522439 484.495494 
L 107.487664 484.732712 
L 107.47795 484.810051 
L 107.433461 485.265993 
L 107.406537 485.592861 
L 107.388972 485.847084 
L 107.352019 486.45301 
L 107.344484 486.6157 
L 107.315879 487.31316 
L 107.299995 487.961746 
L 107.295368 488.173309 
L 107.295009 489.033459 
L 107.299995 489.219896 
L 107.329472 489.893608 
z
" clip-path="url(#pfa96de5efa)" style="fill: #0f0ffe"/>
   </g>
   <g id="QuadContourSet_2">
    <path d="M 91.297287 551.211755 
L 98.269912 549.020078 
L 102.126429 543.736505 
L 105.242537 539.181008 
L 107.404315 535.572911 
L 111.043335 527.409317 
L 112.215162 523.719828 
L 114.644588 519.245722 
L 117.596504 511.082128 
L 119.054601 502.918534 
L 119.187788 502.133281 
L 122.714101 494.75494 
L 124.695233 486.591346 
L 125.733397 478.427752 
L 126.160413 473.753512 
L 127.618433 470.264158 
L 130.100236 462.100564 
L 131.431931 453.93697 
L 132.216426 445.773375 
L 132.725785 437.609781 
L 133.089264 429.446187 
L 133.133038 428.314782 
L 134.723223 421.282593 
L 135.903813 413.118999 
L 136.65013 404.955405 
L 137.128574 396.791811 
L 137.433511 388.628217 
L 137.623524 380.464623 
L 137.740475 372.301028 
L 137.819197 364.137434 
L 137.890569 355.97384 
L 137.97918 347.810246 
L 138.098287 339.646652 
L 138.247003 331.483058 
L 138.413293 323.319464 
L 138.581105 315.15587 
L 138.737123 306.992276 
L 138.874566 298.828681 
L 138.994348 290.665087 
L 139.104648 282.501493 
L 139.219153 274.337899 
L 139.353807 266.174305 
L 139.522605 258.010711 
L 139.734269 249.847117 
L 139.991669 241.683523 
L 140.105663 238.588779 
L 140.676337 233.519929 
L 141.548485 225.356334 
L 142.315178 217.19274 
L 142.975656 209.029146 
L 143.543007 200.865552 
L 144.034719 192.701958 
L 144.466561 184.538364 
L 144.850125 176.37477 
L 145.192108 168.211176 
L 145.493697 160.047582 
L 145.750708 151.883987 
L 145.957621 143.720393 
L 146.117812 135.556799 
L 146.256158 127.393205 
L 146.422653 119.229611 
L 146.679139 111.066017 
L 147.078288 102.902423 
L 147.078288 102.902423 
L 147.86925 94.738829 
L 148.634992 86.575235 
L 149.244832 78.41164 
L 149.552193 70.248046 
L 149.32775 62.084452 
L 148.165136 53.920858 
L 147.078288 50.139686 
L 145.114562 45.757264 
L 140.438757 37.59367 
L 140.105663 37.057429 
L 133.133038 33.010012 
L 129.000043 37.59367 
L 126.160413 40.555204 
L 123.910935 45.757264 
L 120.924322 53.920858 
L 119.187788 59.437985 
L 118.555662 62.084452 
L 116.763175 70.248046 
L 115.227439 78.41164 
L 113.859693 86.575235 
L 112.580377 94.738829 
L 112.215162 96.925516 
L 111.081281 102.902423 
L 109.629499 111.066017 
L 108.358955 119.229611 
L 107.256057 127.393205 
L 106.288365 135.556799 
L 105.417043 143.720393 
L 105.242537 145.398993 
L 104.162729 151.883987 
L 103.050941 160.047582 
L 102.157915 168.211176 
L 101.421487 176.37477 
L 100.796553 184.538364 
L 100.254755 192.701958 
L 99.780033 200.865552 
L 99.362317 209.029146 
L 98.991991 217.19274 
L 98.657189 225.356334 
L 98.344394 233.519929 
L 98.269912 235.31724 
L 97.625484 241.683523 
L 96.732595 249.847117 
L 95.825705 258.010711 
L 94.953555 266.174305 
L 94.154872 274.337899 
L 93.447826 282.501493 
L 92.833572 290.665087 
L 92.303981 298.828681 
L 91.848067 306.992276 
L 91.455762 315.15587 
L 91.297287 318.592917 
L 90.430159 323.319464 
L 89.058308 331.483058 
L 87.927548 339.646652 
L 87.012409 347.810246 
L 86.287102 355.97384 
L 85.720952 364.137434 
L 85.280769 372.301028 
L 84.936079 380.464623 
L 84.662748 388.628217 
L 84.44379 396.791811 
L 84.324662 402.190976 
L 83.99088 404.955405 
L 83.216818 413.118999 
L 82.649879 421.282593 
L 82.214988 429.446187 
L 81.854816 437.609781 
L 81.529128 445.773375 
L 81.216624 453.93697 
L 80.915157 462.100564 
L 80.637519 470.264158 
L 80.40443 478.427752 
L 80.2392 486.591346 
L 80.167231 494.75494 
L 80.221067 502.918534 
L 80.451554 511.082128 
L 80.948626 519.245722 
L 81.88202 527.409317 
L 83.587669 535.572911 
L 84.324662 538.057522 
L 86.011244 543.736505 
z
M 97.809797 527.409317 
L 91.297287 522.137104 
L 90.314701 519.245722 
L 88.468254 511.082128 
L 87.511397 502.918534 
L 87.033624 494.75494 
L 86.836308 486.591346 
L 86.817927 478.427752 
L 86.922755 470.264158 
L 87.115987 462.100564 
L 87.371108 453.93697 
L 87.664611 445.773375 
L 87.976803 437.609781 
L 88.297341 429.446187 
L 88.63179 421.282593 
L 89.004644 413.118999 
L 89.457806 404.955405 
L 90.047954 396.791811 
L 90.846815 388.628217 
L 91.297287 385.030926 
L 91.488273 380.464623 
L 91.890523 372.301028 
L 92.37767 364.137434 
L 92.974187 355.97384 
L 93.714087 347.810246 
L 94.637135 339.646652 
L 95.781063 331.483058 
L 97.174128 323.319464 
L 98.269912 317.587301 
L 98.49497 315.15587 
L 99.245891 306.992276 
L 100.087652 298.828681 
L 101.03352 290.665087 
L 102.103131 282.501493 
L 103.326335 274.337899 
L 104.739232 266.174305 
L 105.242537 263.371318 
L 105.992292 258.010711 
L 107.151502 249.847117 
L 108.395207 241.683523 
L 109.743226 233.519929 
L 111.195825 225.356334 
L 112.215162 219.683635 
L 112.907291 217.19274 
L 114.989441 209.029146 
L 117.085197 200.865552 
L 119.187788 192.701958 
L 126.160413 197.826916 
L 126.645823 200.865552 
L 127.829805 209.029146 
L 128.711654 217.19274 
L 129.307627 225.356334 
L 129.681576 233.519929 
L 129.910465 241.683523 
L 130.06344 249.847117 
L 130.193105 258.010711 
L 130.33122 266.174305 
L 130.486727 274.337899 
L 130.649019 282.501493 
L 130.797376 290.665087 
L 130.911921 298.828681 
L 130.980557 306.992276 
L 131.000819 315.15587 
L 130.978859 323.319464 
L 130.927649 331.483058 
L 130.864878 339.646652 
L 130.809771 347.810246 
L 130.777864 355.97384 
L 130.77453 364.137434 
L 130.790636 372.301028 
L 130.803654 380.464623 
L 130.783267 388.628217 
L 130.696696 396.791811 
L 130.50963 404.955405 
L 130.181203 413.118999 
L 129.65215 421.282593 
L 128.823062 429.446187 
L 127.513821 437.609781 
L 126.160413 443.284806 
L 125.978088 445.773375 
L 125.278639 453.93697 
L 124.3061 462.100564 
L 122.808395 470.264158 
L 120.254824 478.427752 
L 119.187788 481.086196 
L 118.23124 486.591346 
L 116.319044 494.75494 
L 112.994582 502.918534 
L 112.215162 504.538847 
L 109.884572 511.082128 
L 105.651794 519.245722 
L 105.242537 519.977472 
L 98.479493 527.409317 
L 98.269912 527.670205 
z
" clip-path="url(#pfa96de5efa)" style="fill: #e2efe2; fill-opacity: 0.5"/>
    <path d="M 98.269912 527.670205 
L 98.479493 527.409317 
L 105.242537 519.977472 
L 105.651794 519.245722 
L 109.884572 511.082128 
L 112.215162 504.538847 
L 112.994582 502.918534 
L 116.319044 494.75494 
L 118.23124 486.591346 
L 119.187788 481.086196 
L 120.254824 478.427752 
L 122.808395 470.264158 
L 124.3061 462.100564 
L 125.278639 453.93697 
L 125.978088 445.773375 
L 126.160413 443.284806 
L 127.513821 437.609781 
L 128.823062 429.446187 
L 129.65215 421.282593 
L 130.181203 413.118999 
L 130.50963 404.955405 
L 130.696696 396.791811 
L 130.783267 388.628217 
L 130.803654 380.464623 
L 130.790636 372.301028 
L 130.77453 364.137434 
L 130.777864 355.97384 
L 130.809771 347.810246 
L 130.864878 339.646652 
L 130.927649 331.483058 
L 130.978859 323.319464 
L 131.000819 315.15587 
L 130.980557 306.992276 
L 130.911921 298.828681 
L 130.797376 290.665087 
L 130.649019 282.501493 
L 130.486727 274.337899 
L 130.33122 266.174305 
L 130.193105 258.010711 
L 130.06344 249.847117 
L 129.910465 241.683523 
L 129.681576 233.519929 
L 129.307627 225.356334 
L 128.711654 217.19274 
L 127.829805 209.029146 
L 126.645823 200.865552 
L 126.160413 197.826916 
L 119.187788 192.701958 
L 117.085197 200.865552 
L 114.989441 209.029146 
L 112.907291 217.19274 
L 112.215162 219.683635 
L 111.195825 225.356334 
L 109.743226 233.519929 
L 108.395207 241.683523 
L 107.151502 249.847117 
L 105.992292 258.010711 
L 105.242537 263.371318 
L 104.739232 266.174305 
L 103.326335 274.337899 
L 102.103131 282.501493 
L 101.03352 290.665087 
L 100.087652 298.828681 
L 99.245891 306.992276 
L 98.49497 315.15587 
L 98.269912 317.587301 
L 97.174128 323.319464 
L 95.781063 331.483058 
L 94.637135 339.646652 
L 93.714087 347.810246 
L 92.974187 355.97384 
L 92.37767 364.137434 
L 91.890523 372.301028 
L 91.488273 380.464623 
L 91.297287 385.030926 
L 90.846815 388.628217 
L 90.047954 396.791811 
L 89.457806 404.955405 
L 89.004644 413.118999 
L 88.63179 421.282593 
L 88.297341 429.446187 
L 87.976803 437.609781 
L 87.664611 445.773375 
L 87.371108 453.93697 
L 87.115987 462.100564 
L 86.922755 470.264158 
L 86.817927 478.427752 
L 86.836308 486.591346 
L 87.033624 494.75494 
L 87.511397 502.918534 
L 88.468254 511.082128 
L 90.314701 519.245722 
L 91.297287 522.137104 
L 97.809797 527.409317 
z
M 95.330245 511.082128 
L 92.598571 502.918534 
L 91.575024 494.75494 
L 91.297287 488.753261 
L 91.152959 486.591346 
L 90.99014 478.427752 
L 91.120879 470.264158 
L 91.297287 466.016599 
L 91.362514 462.100564 
L 91.540708 453.93697 
L 91.741779 445.773375 
L 91.956087 437.609781 
L 92.177978 429.446187 
L 92.40662 421.282593 
L 92.647981 413.118999 
L 92.915782 404.955405 
L 93.230445 396.791811 
L 93.617279 388.628217 
L 94.106222 380.464623 
L 94.734151 372.301028 
L 95.54887 364.137434 
L 96.612388 355.97384 
L 98.000145 347.810246 
L 98.269912 346.376228 
L 98.970562 339.646652 
L 99.904801 331.483058 
L 100.974903 323.319464 
L 102.211415 315.15587 
L 103.631116 306.992276 
L 105.242537 298.828681 
L 105.242537 298.828681 
L 106.743289 290.665087 
L 108.290833 282.501493 
L 109.903414 274.337899 
L 111.618576 266.174305 
L 112.215162 263.387449 
L 115.45947 258.010711 
L 119.182253 249.847117 
L 119.187788 249.833274 
L 119.191944 249.847117 
L 121.218031 258.010711 
L 122.622802 266.174305 
L 123.696828 274.337899 
L 124.560403 282.501493 
L 125.241036 290.665087 
L 125.736618 298.828681 
L 126.056389 306.992276 
L 126.160413 311.59021 
L 126.264883 315.15587 
L 126.386927 323.319464 
L 126.410527 331.483058 
L 126.373431 339.646652 
L 126.321835 347.810246 
L 126.300611 355.97384 
L 126.337769 364.137434 
L 126.430495 372.301028 
L 126.542688 380.464623 
L 126.614939 388.628217 
L 126.576985 396.791811 
L 126.352113 404.955405 
L 126.160413 408.146026 
L 126.039911 413.118999 
L 125.732971 421.282593 
L 125.306999 429.446187 
L 124.733195 437.609781 
L 123.948643 445.773375 
L 122.825715 453.93697 
L 121.111707 462.100564 
L 119.187788 468.248984 
L 118.852939 470.264158 
L 117.358505 478.427752 
L 115.2252 486.591346 
L 112.215162 493.984021 
L 111.909853 494.75494 
L 108.742458 502.918534 
L 105.242537 509.704729 
L 103.135384 511.082128 
L 98.269912 515.459525 
z
" clip-path="url(#pfa96de5efa)" style="fill: #cde5cd; fill-opacity: 0.5"/>
    <path d="M 98.269912 515.459525 
L 103.135384 511.082128 
L 105.242537 509.704729 
L 108.742458 502.918534 
L 111.909853 494.75494 
L 112.215162 493.984021 
L 115.2252 486.591346 
L 117.358505 478.427752 
L 118.852939 470.264158 
L 119.187788 468.248984 
L 121.111707 462.100564 
L 122.825715 453.93697 
L 123.948643 445.773375 
L 124.733195 437.609781 
L 125.306999 429.446187 
L 125.732971 421.282593 
L 126.039911 413.118999 
L 126.160413 408.146026 
L 126.352113 404.955405 
L 126.576985 396.791811 
L 126.614939 388.628217 
L 126.542688 380.464623 
L 126.430495 372.301028 
L 126.337769 364.137434 
L 126.300611 355.97384 
L 126.321835 347.810246 
L 126.373431 339.646652 
L 126.410527 331.483058 
L 126.386927 323.319464 
L 126.264883 315.15587 
L 126.160413 311.59021 
L 126.056389 306.992276 
L 125.736618 298.828681 
L 125.241036 290.665087 
L 124.560403 282.501493 
L 123.696828 274.337899 
L 122.622802 266.174305 
L 121.218031 258.010711 
L 119.191944 249.847117 
L 119.187788 249.833274 
L 119.182253 249.847117 
L 115.45947 258.010711 
L 112.215162 263.387449 
L 111.618576 266.174305 
L 109.903414 274.337899 
L 108.290833 282.501493 
L 106.743289 290.665087 
L 105.242537 298.828681 
L 105.242537 298.828681 
L 103.631116 306.992276 
L 102.211415 315.15587 
L 100.974903 323.319464 
L 99.904801 331.483058 
L 98.970562 339.646652 
L 98.269912 346.376228 
L 98.000145 347.810246 
L 96.612388 355.97384 
L 95.54887 364.137434 
L 94.734151 372.301028 
L 94.106222 380.464623 
L 93.617279 388.628217 
L 93.230445 396.791811 
L 92.915782 404.955405 
L 92.647981 413.118999 
L 92.40662 421.282593 
L 92.177978 429.446187 
L 91.956087 437.609781 
L 91.741779 445.773375 
L 91.540708 453.93697 
L 91.362514 462.100564 
L 91.297287 466.016599 
L 91.120879 470.264158 
L 90.99014 478.427752 
L 91.152959 486.591346 
L 91.297287 488.753261 
L 91.575024 494.75494 
L 92.598571 502.918534 
L 95.330245 511.082128 
z
M 95.544213 494.75494 
L 94.294093 486.591346 
L 93.743229 478.427752 
L 93.561456 470.264158 
L 93.595898 462.100564 
L 93.769293 453.93697 
L 94.036855 445.773375 
L 94.366663 437.609781 
L 94.731923 429.446187 
L 95.111518 421.282593 
L 95.496318 413.118999 
L 95.896185 404.955405 
L 96.342051 396.791811 
L 96.882391 388.628217 
L 97.578921 380.464623 
L 98.269912 374.255784 
L 98.422278 372.301028 
L 99.152666 364.137434 
L 99.992702 355.97384 
L 100.966871 347.810246 
L 102.117168 339.646652 
L 103.497499 331.483058 
L 105.160642 323.319464 
L 105.242537 322.924808 
L 107.121995 315.15587 
L 109.103859 306.992276 
L 111.169368 298.828681 
L 112.215162 294.666567 
L 119.187788 293.956055 
L 120.041025 298.828681 
L 121.205414 306.992276 
L 122.034835 315.15587 
L 122.589048 323.319464 
L 122.936072 331.483058 
L 123.140574 339.646652 
L 123.259915 347.810246 
L 123.343404 355.97384 
L 123.43005 364.137434 
L 123.542712 372.301028 
L 123.681077 380.464623 
L 123.82002 388.628217 
L 123.917724 396.791811 
L 123.929215 404.955405 
L 123.815739 413.118999 
L 123.544186 421.282593 
L 123.076734 429.446187 
L 122.352191 437.609781 
L 121.256592 445.773375 
L 119.571922 453.93697 
L 119.187788 455.388391 
L 118.141204 462.100564 
L 116.602815 470.264158 
L 114.4914 478.427752 
L 112.215162 484.665392 
L 111.41295 486.591346 
L 108.031378 494.75494 
L 105.242537 500.418967 
L 98.269912 502.918534 
z
" clip-path="url(#pfa96de5efa)" style="fill: #b2d7b2; fill-opacity: 0.5"/>
    <path d="M 98.269912 502.918534 
L 105.242537 500.418967 
L 108.031378 494.75494 
L 111.41295 486.591346 
L 112.215162 484.665392 
L 114.4914 478.427752 
L 116.602815 470.264158 
L 118.141204 462.100564 
L 119.187788 455.388391 
L 119.571922 453.93697 
L 121.256592 445.773375 
L 122.352191 437.609781 
L 123.076734 429.446187 
L 123.544186 421.282593 
L 123.815739 413.118999 
L 123.929215 404.955405 
L 123.917724 396.791811 
L 123.82002 388.628217 
L 123.681077 380.464623 
L 123.542712 372.301028 
L 123.43005 364.137434 
L 123.343404 355.97384 
L 123.259915 347.810246 
L 123.140574 339.646652 
L 122.936072 331.483058 
L 122.589048 323.319464 
L 122.034835 315.15587 
L 121.205414 306.992276 
L 120.041025 298.828681 
L 119.187788 293.956055 
L 112.215162 294.666567 
L 111.169368 298.828681 
L 109.103859 306.992276 
L 107.121995 315.15587 
L 105.242537 322.924808 
L 105.160642 323.319464 
L 103.497499 331.483058 
L 102.117168 339.646652 
L 100.966871 347.810246 
L 99.992702 355.97384 
L 99.152666 364.137434 
L 98.422278 372.301028 
L 98.269912 374.255784 
L 97.578921 380.464623 
L 96.882391 388.628217 
L 96.342051 396.791811 
L 95.896185 404.955405 
L 95.496318 413.118999 
L 95.111518 421.282593 
L 94.731923 429.446187 
L 94.366663 437.609781 
L 94.036855 445.773375 
L 93.769293 453.93697 
L 93.595898 462.100564 
L 93.561456 470.264158 
L 93.743229 478.427752 
L 94.294093 486.591346 
L 95.544213 494.75494 
z
M 97.718771 486.591346 
L 96.62804 478.427752 
L 96.166189 470.264158 
L 96.083824 462.100564 
L 96.251874 453.93697 
L 96.593505 445.773375 
L 97.051975 437.609781 
L 97.576945 429.446187 
L 98.124697 421.282593 
L 98.269912 419.022281 
L 98.566765 413.118999 
L 98.974994 404.955405 
L 99.408897 396.791811 
L 99.89513 388.628217 
L 100.46067 380.464623 
L 101.131688 372.301028 
L 101.93724 364.137434 
L 102.91578 355.97384 
L 104.120859 347.810246 
L 105.242537 341.553269 
L 105.798901 339.646652 
L 108.061475 331.483058 
L 110.260905 323.319464 
L 112.215162 316.311096 
L 116.983477 323.319464 
L 119.187788 331.483058 
L 119.187788 331.483058 
L 119.651822 339.646652 
L 119.93879 347.810246 
L 120.129468 355.97384 
L 120.293997 364.137434 
L 120.483826 372.301028 
L 120.718818 380.464623 
L 120.979377 388.628217 
L 121.213276 396.791811 
L 121.354216 404.955405 
L 121.338073 413.118999 
L 121.10594 421.282593 
L 120.592282 429.446187 
L 119.699819 437.609781 
L 119.187788 440.741742 
L 118.591383 445.773375 
L 117.434751 453.93697 
L 116.00577 462.100564 
L 114.096239 470.264158 
L 112.215162 476.167619 
L 111.225647 478.427752 
L 107.767391 486.591346 
L 105.242537 491.991019 
L 98.269912 489.00428 
z
" clip-path="url(#pfa96de5efa)" style="fill: #92c892; fill-opacity: 0.5"/>
    <path d="M 98.269912 489.00428 
L 105.242537 491.991019 
L 107.767391 486.591346 
L 111.225647 478.427752 
L 112.215162 476.167619 
L 114.096239 470.264158 
L 116.00577 462.100564 
L 117.434751 453.93697 
L 118.591383 445.773375 
L 119.187788 440.741742 
L 119.699819 437.609781 
L 120.592282 429.446187 
L 121.10594 421.282593 
L 121.338073 413.118999 
L 121.354216 404.955405 
L 121.213276 396.791811 
L 120.979377 388.628217 
L 120.718818 380.464623 
L 120.483826 372.301028 
L 120.293997 364.137434 
L 120.129468 355.97384 
L 119.93879 347.810246 
L 119.651822 339.646652 
L 119.187788 331.483058 
L 119.187788 331.483058 
L 116.983477 323.319464 
L 112.215162 316.311096 
L 110.260905 323.319464 
L 108.061475 331.483058 
L 105.798901 339.646652 
L 105.242537 341.553269 
L 104.120859 347.810246 
L 102.91578 355.97384 
L 101.93724 364.137434 
L 101.131688 372.301028 
L 100.46067 380.464623 
L 99.89513 388.628217 
L 99.408897 396.791811 
L 98.974994 404.955405 
L 98.566765 413.118999 
L 98.269912 419.022281 
L 98.124697 421.282593 
L 97.576945 429.446187 
L 97.051975 437.609781 
L 96.593505 445.773375 
L 96.251874 453.93697 
L 96.083824 462.100564 
L 96.166189 470.264158 
L 96.62804 478.427752 
L 97.718771 486.591346 
z
M 104.430915 486.591346 
L 98.637349 478.427752 
L 98.269912 476.32089 
L 97.808991 470.264158 
L 97.652956 462.100564 
L 97.817634 453.93697 
L 98.20598 445.773375 
L 98.269912 444.763527 
L 98.64765 437.609781 
L 99.105786 429.446187 
L 99.577138 421.282593 
L 100.054247 413.118999 
L 100.535104 404.955405 
L 101.027479 396.791811 
L 101.552339 388.628217 
L 102.142851 380.464623 
L 102.840508 372.301028 
L 103.693466 364.137434 
L 104.759362 355.97384 
L 105.242537 352.909476 
L 106.768371 347.810246 
L 109.03688 339.646652 
L 111.213911 331.483058 
L 112.215162 327.836349 
L 113.895923 331.483058 
L 116.080403 339.646652 
L 117.153169 347.810246 
L 117.72948 355.97384 
L 118.104086 364.137434 
L 118.432685 372.301028 
L 118.791555 380.464623 
L 119.187788 388.628217 
L 119.187788 388.628217 
L 119.507585 396.791811 
L 119.730168 404.955405 
L 119.775413 413.118999 
L 119.568143 421.282593 
L 119.187788 427.035059 
L 119.04741 429.446187 
L 118.316301 437.609781 
L 117.378532 445.773375 
L 116.19805 453.93697 
L 114.658954 462.100564 
L 112.515346 470.264158 
L 112.215162 471.206235 
L 109.053489 478.427752 
L 105.468142 486.591346 
L 105.242537 487.073827 
z
" clip-path="url(#pfa96de5efa)" style="fill: #77ba77; fill-opacity: 0.5"/>
    <path d="M 105.242537 487.073827 
L 105.468142 486.591346 
L 109.053489 478.427752 
L 112.215162 471.206235 
L 112.515346 470.264158 
L 114.658954 462.100564 
L 116.19805 453.93697 
L 117.378532 445.773375 
L 118.316301 437.609781 
L 119.04741 429.446187 
L 119.187788 427.035059 
L 119.568143 421.282593 
L 119.775413 413.118999 
L 119.730168 404.955405 
L 119.507585 396.791811 
L 119.187788 388.628217 
L 119.187788 388.628217 
L 118.791555 380.464623 
L 118.432685 372.301028 
L 118.104086 364.137434 
L 117.72948 355.97384 
L 117.153169 347.810246 
L 116.080403 339.646652 
L 113.895923 331.483058 
L 112.215162 327.836349 
L 111.213911 331.483058 
L 109.03688 339.646652 
L 106.768371 347.810246 
L 105.242537 352.909476 
L 104.759362 355.97384 
L 103.693466 364.137434 
L 102.840508 372.301028 
L 102.142851 380.464623 
L 101.552339 388.628217 
L 101.027479 396.791811 
L 100.535104 404.955405 
L 100.054247 413.118999 
L 99.577138 421.282593 
L 99.105786 429.446187 
L 98.64765 437.609781 
L 98.269912 444.763527 
L 98.20598 445.773375 
L 97.817634 453.93697 
L 97.652956 462.100564 
L 97.808991 470.264158 
L 98.269912 476.32089 
L 98.637349 478.427752 
L 104.430915 486.591346 
z
M 103.929412 478.427752 
L 100.956605 470.264158 
L 100.08979 462.100564 
L 99.961803 453.93697 
L 100.1623 445.773375 
L 100.538112 437.609781 
L 101.020002 429.446187 
L 101.566686 421.282593 
L 102.145147 413.118999 
L 102.728097 404.955405 
L 103.302662 396.791811 
L 103.881819 388.628217 
L 104.507432 380.464623 
L 105.242537 372.301028 
L 105.242537 372.301028 
L 107.655876 364.137434 
L 109.766469 355.97384 
L 111.686303 347.810246 
L 112.215162 345.665106 
L 112.694621 347.810246 
L 113.901037 355.97384 
L 114.647619 364.137434 
L 115.198732 372.301028 
L 115.706163 380.464623 
L 116.237005 388.628217 
L 116.772636 396.791811 
L 117.222497 404.955405 
L 117.474945 413.118999 
L 117.455298 421.282593 
L 117.144042 429.446187 
L 116.550932 437.609781 
L 115.673671 445.773375 
L 114.459663 453.93697 
L 112.765784 462.100564 
L 112.215162 464.154921 
L 109.399363 470.264158 
L 106.000162 478.427752 
L 105.242537 480.146834 
z
" clip-path="url(#pfa96de5efa)" style="fill: #5dae5d; fill-opacity: 0.5"/>
    <path d="M 105.242537 480.146834 
L 106.000162 478.427752 
L 109.399363 470.264158 
L 112.215162 464.154921 
L 112.765784 462.100564 
L 114.459663 453.93697 
L 115.673671 445.773375 
L 116.550932 437.609781 
L 117.144042 429.446187 
L 117.455298 421.282593 
L 117.474945 413.118999 
L 117.222497 404.955405 
L 116.772636 396.791811 
L 116.237005 388.628217 
L 115.706163 380.464623 
L 115.198732 372.301028 
L 114.647619 364.137434 
L 113.901037 355.97384 
L 112.694621 347.810246 
L 112.215162 345.665106 
L 111.686303 347.810246 
L 109.766469 355.97384 
L 107.655876 364.137434 
L 105.242537 372.301028 
L 105.242537 372.301028 
L 104.507432 380.464623 
L 103.881819 388.628217 
L 103.302662 396.791811 
L 102.728097 404.955405 
L 102.145147 413.118999 
L 101.566686 421.282593 
L 101.020002 429.446187 
L 100.538112 437.609781 
L 100.1623 445.773375 
L 99.961803 453.93697 
L 100.08979 462.100564 
L 100.956605 470.264158 
L 103.929412 478.427752 
z
M 104.805314 470.264158 
L 102.986741 462.100564 
L 102.40343 453.93697 
L 102.395052 445.773375 
L 102.705677 437.609781 
L 103.214803 429.446187 
L 103.847862 421.282593 
L 104.54253 413.118999 
L 105.242537 404.955405 
L 105.242537 404.955405 
L 107.861165 396.791811 
L 110.277882 388.628217 
L 112.215162 380.997728 
L 112.853697 388.628217 
L 113.577273 396.791811 
L 114.266931 404.955405 
L 114.793771 413.118999 
L 115.044697 421.282593 
L 114.961679 429.446187 
L 114.526795 437.609781 
L 113.718911 445.773375 
L 112.466463 453.93697 
L 112.215162 455.116749 
L 108.80279 462.100564 
L 105.66659 470.264158 
L 105.242537 471.297833 
z
" clip-path="url(#pfa96de5efa)" style="fill: #3d9e3d; fill-opacity: 0.5"/>
    <path d="M 105.242537 471.297833 
L 105.66659 470.264158 
L 108.80279 462.100564 
L 112.215162 455.116749 
L 112.466463 453.93697 
L 113.718911 445.773375 
L 114.526795 437.609781 
L 114.961679 429.446187 
L 115.044697 421.282593 
L 114.793771 413.118999 
L 114.266931 404.955405 
L 113.577273 396.791811 
L 112.853697 388.628217 
L 112.215162 380.997728 
L 110.277882 388.628217 
L 107.861165 396.791811 
L 105.242537 404.955405 
L 105.242537 404.955405 
L 104.54253 413.118999 
L 103.847862 421.282593 
L 103.214803 429.446187 
L 102.705677 437.609781 
L 102.395052 445.773375 
L 102.40343 453.93697 
L 102.986741 462.100564 
L 104.805314 470.264158 
z
M 104.304676 453.93697 
L 104.13365 445.773375 
L 104.393517 437.609781 
L 104.92385 429.446187 
L 105.242537 425.652982 
L 107.316644 421.282593 
L 110.309323 413.118999 
L 112.215162 407.533017 
L 112.705994 413.118999 
L 113.167612 421.282593 
L 113.262317 429.446187 
L 112.950642 437.609781 
L 112.215162 445.567425 
L 112.08559 445.773375 
L 107.825967 453.93697 
L 105.242537 462.100564 
z
" clip-path="url(#pfa96de5efa)" style="fill: #1e8f1e; fill-opacity: 0.5"/>
    <path d="M 105.242537 462.100564 
L 107.825967 453.93697 
L 112.08559 445.773375 
L 112.215162 445.567425 
L 112.950642 437.609781 
L 113.262317 429.446187 
L 113.167612 421.282593 
L 112.705994 413.118999 
L 112.215162 407.533017 
L 110.309323 413.118999 
L 107.316644 421.282593 
L 105.242537 425.652982 
L 104.92385 429.446187 
L 104.393517 437.609781 
L 104.13365 445.773375 
L 104.304676 453.93697 
z
" clip-path="url(#pfa96de5efa)" style="fill: #088408; fill-opacity: 0.5"/>
   </g>
   <g id="matplotlib.axis_1">
    <g id="xtick_1">
     <g id="line2d_1">
      <defs>
       <path id="m67b56c7bd5" d="M 0 0 
L 0 3.5 
" style="stroke: #000000; stroke-width: 0.8"/>
      </defs>
      <g>
       <use xlink:href="#m67b56c7bd5" x="170.144465" y="499.48" style="stroke: #000000; stroke-width: 0.8"/>
      </g>
     </g>
     <g id="text_1">
      <!-- 5 -->
      <g transform="translate(163.145715 523.196563) scale(0.22 -0.22)">
       <defs>
        <path id="DejaVuSans-35" d="M 691 4666 
L 3169 4666 
L 3169 4134 
L 1269 4134 
L 1269 2991 
Q 1406 3038 1543 3061 
Q 1681 3084 1819 3084 
Q 2600 3084 3056 2656 
Q 3513 2228 3513 1497 
Q 3513 744 3044 326 
Q 2575 -91 1722 -91 
Q 1428 -91 1123 -41 
Q 819 9 494 109 
L 494 744 
Q 775 591 1075 516 
Q 1375 441 1709 441 
Q 2250 441 2565 725 
Q 2881 1009 2881 1497 
Q 2881 1984 2565 2268 
Q 2250 2553 1709 2553 
Q 1456 2553 1204 2497 
Q 953 2441 691 2322 
L 691 4666 
z
" transform="scale(0.015625)"/>
       </defs>
       <use xlink:href="#DejaVuSans-35"/>
      </g>
     </g>
    </g>
    <g id="xtick_2">
     <g id="line2d_2">
      <g>
       <use xlink:href="#m67b56c7bd5" x="271.916915" y="499.48" style="stroke: #000000; stroke-width: 0.8"/>
      </g>
     </g>
     <g id="text_2">
      <!-- 10 -->
      <g transform="translate(257.919415 523.196563) scale(0.22 -0.22)">
       <defs>
        <path id="DejaVuSans-31" d="M 794 531 
L 1825 531 
L 1825 4091 
L 703 3866 
L 703 4441 
L 1819 4666 
L 2450 4666 
L 2450 531 
L 3481 531 
L 3481 0 
L 794 0 
L 794 531 
z
" transform="scale(0.015625)"/>
        <path id="DejaVuSans-30" d="M 2034 4250 
Q 1547 4250 1301 3770 
Q 1056 3291 1056 2328 
Q 1056 1369 1301 889 
Q 1547 409 2034 409 
Q 2525 409 2770 889 
Q 3016 1369 3016 2328 
Q 3016 3291 2770 3770 
Q 2525 4250 2034 4250 
z
M 2034 4750 
Q 2819 4750 3233 4129 
Q 3647 3509 3647 2328 
Q 3647 1150 3233 529 
Q 2819 -91 2034 -91 
Q 1250 -91 836 529 
Q 422 1150 422 2328 
Q 422 3509 836 4129 
Q 1250 4750 2034 4750 
z
" transform="scale(0.015625)"/>
       </defs>
       <use xlink:href="#DejaVuSans-31"/>
       <use xlink:href="#DejaVuSans-30" x="63.623047"/>
      </g>
     </g>
    </g>
    <g id="xtick_3">
     <g id="line2d_3">
      <g>
       <use xlink:href="#m67b56c7bd5" x="373.689364" y="499.48" style="stroke: #000000; stroke-width: 0.8"/>
      </g>
     </g>
     <g id="text_3">
      <!-- 15 -->
      <g transform="translate(359.691864 523.196563) scale(0.22 -0.22)">
       <use xlink:href="#DejaVuSans-31"/>
       <use xlink:href="#DejaVuSans-35" x="63.623047"/>
      </g>
     </g>
    </g>
    <g id="xtick_4">
     <g id="line2d_4">
      <g>
       <use xlink:href="#m67b56c7bd5" x="475.461814" y="499.48" style="stroke: #000000; stroke-width: 0.8"/>
      </g>
     </g>
     <g id="text_4">
      <!-- 20 -->
      <g transform="translate(461.464314 523.196563) scale(0.22 -0.22)">
       <defs>
        <path id="DejaVuSans-32" d="M 1228 531 
L 3431 531 
L 3431 0 
L 469 0 
L 469 531 
Q 828 903 1448 1529 
Q 2069 2156 2228 2338 
Q 2531 2678 2651 2914 
Q 2772 3150 2772 3378 
Q 2772 3750 2511 3984 
Q 2250 4219 1831 4219 
Q 1534 4219 1204 4116 
Q 875 4013 500 3803 
L 500 4441 
Q 881 4594 1212 4672 
Q 1544 4750 1819 4750 
Q 2544 4750 2975 4387 
Q 3406 4025 3406 3419 
Q 3406 3131 3298 2873 
Q 3191 2616 2906 2266 
Q 2828 2175 2409 1742 
Q 1991 1309 1228 531 
z
" transform="scale(0.015625)"/>
       </defs>
       <use xlink:href="#DejaVuSans-32"/>
       <use xlink:href="#DejaVuSans-30" x="63.623047"/>
      </g>
     </g>
    </g>
    <g id="xtick_5">
     <g id="line2d_5">
      <g>
       <use xlink:href="#m67b56c7bd5" x="577.234264" y="499.48" style="stroke: #000000; stroke-width: 0.8"/>
      </g>
     </g>
     <g id="text_5">
      <!-- 25 -->
      <g transform="translate(563.236764 523.196563) scale(0.22 -0.22)">
       <use xlink:href="#DejaVuSans-32"/>
       <use xlink:href="#DejaVuSans-35" x="63.623047"/>
      </g>
     </g>
    </g>
    <g id="xtick_6">
     <g id="line2d_6">
      <g>
       <use xlink:href="#m67b56c7bd5" x="679.006713" y="499.48" style="stroke: #000000; stroke-width: 0.8"/>
      </g>
     </g>
     <g id="text_6">
      <!-- 30 -->
      <g transform="translate(665.009213 523.196563) scale(0.22 -0.22)">
       <defs>
        <path id="DejaVuSans-33" d="M 2597 2516 
Q 3050 2419 3304 2112 
Q 3559 1806 3559 1356 
Q 3559 666 3084 287 
Q 2609 -91 1734 -91 
Q 1441 -91 1130 -33 
Q 819 25 488 141 
L 488 750 
Q 750 597 1062 519 
Q 1375 441 1716 441 
Q 2309 441 2620 675 
Q 2931 909 2931 1356 
Q 2931 1769 2642 2001 
Q 2353 2234 1838 2234 
L 1294 2234 
L 1294 2753 
L 1863 2753 
Q 2328 2753 2575 2939 
Q 2822 3125 2822 3475 
Q 2822 3834 2567 4026 
Q 2313 4219 1838 4219 
Q 1578 4219 1281 4162 
Q 984 4106 628 3988 
L 628 4550 
Q 988 4650 1302 4700 
Q 1616 4750 1894 4750 
Q 2613 4750 3031 4423 
Q 3450 4097 3450 3541 
Q 3450 3153 3228 2886 
Q 3006 2619 2597 2516 
z
" transform="scale(0.015625)"/>
       </defs>
       <use xlink:href="#DejaVuSans-33"/>
       <use xlink:href="#DejaVuSans-30" x="63.623047"/>
      </g>
     </g>
    </g>
    <g id="text_7">
     <!-- Energy Uncertainties -->
     <g transform="translate(274.662187 548.488438) scale(0.22 -0.22)">
      <defs>
       <path id="DejaVuSans-45" d="M 628 4666 
L 3578 4666 
L 3578 4134 
L 1259 4134 
L 1259 2753 
L 3481 2753 
L 3481 2222 
L 1259 2222 
L 1259 531 
L 3634 531 
L 3634 0 
L 628 0 
L 628 4666 
z
" transform="scale(0.015625)"/>
       <path id="DejaVuSans-6e" d="M 3513 2113 
L 3513 0 
L 2938 0 
L 2938 2094 
Q 2938 2591 2744 2837 
Q 2550 3084 2163 3084 
Q 1697 3084 1428 2787 
Q 1159 2491 1159 1978 
L 1159 0 
L 581 0 
L 581 3500 
L 1159 3500 
L 1159 2956 
Q 1366 3272 1645 3428 
Q 1925 3584 2291 3584 
Q 2894 3584 3203 3211 
Q 3513 2838 3513 2113 
z
" transform="scale(0.015625)"/>
       <path id="DejaVuSans-65" d="M 3597 1894 
L 3597 1613 
L 953 1613 
Q 991 1019 1311 708 
Q 1631 397 2203 397 
Q 2534 397 2845 478 
Q 3156 559 3463 722 
L 3463 178 
Q 3153 47 2828 -22 
Q 2503 -91 2169 -91 
Q 1331 -91 842 396 
Q 353 884 353 1716 
Q 353 2575 817 3079 
Q 1281 3584 2069 3584 
Q 2775 3584 3186 3129 
Q 3597 2675 3597 1894 
z
M 3022 2063 
Q 3016 2534 2758 2815 
Q 2500 3097 2075 3097 
Q 1594 3097 1305 2825 
Q 1016 2553 972 2059 
L 3022 2063 
z
" transform="scale(0.015625)"/>
       <path id="DejaVuSans-72" d="M 2631 2963 
Q 2534 3019 2420 3045 
Q 2306 3072 2169 3072 
Q 1681 3072 1420 2755 
Q 1159 2438 1159 1844 
L 1159 0 
L 581 0 
L 581 3500 
L 1159 3500 
L 1159 2956 
Q 1341 3275 1631 3429 
Q 1922 3584 2338 3584 
Q 2397 3584 2469 3576 
Q 2541 3569 2628 3553 
L 2631 2963 
z
" transform="scale(0.015625)"/>
       <path id="DejaVuSans-67" d="M 2906 1791 
Q 2906 2416 2648 2759 
Q 2391 3103 1925 3103 
Q 1463 3103 1205 2759 
Q 947 2416 947 1791 
Q 947 1169 1205 825 
Q 1463 481 1925 481 
Q 2391 481 2648 825 
Q 2906 1169 2906 1791 
z
M 3481 434 
Q 3481 -459 3084 -895 
Q 2688 -1331 1869 -1331 
Q 1566 -1331 1297 -1286 
Q 1028 -1241 775 -1147 
L 775 -588 
Q 1028 -725 1275 -790 
Q 1522 -856 1778 -856 
Q 2344 -856 2625 -561 
Q 2906 -266 2906 331 
L 2906 616 
Q 2728 306 2450 153 
Q 2172 0 1784 0 
Q 1141 0 747 490 
Q 353 981 353 1791 
Q 353 2603 747 3093 
Q 1141 3584 1784 3584 
Q 2172 3584 2450 3431 
Q 2728 3278 2906 2969 
L 2906 3500 
L 3481 3500 
L 3481 434 
z
" transform="scale(0.015625)"/>
       <path id="DejaVuSans-79" d="M 2059 -325 
Q 1816 -950 1584 -1140 
Q 1353 -1331 966 -1331 
L 506 -1331 
L 506 -850 
L 844 -850 
Q 1081 -850 1212 -737 
Q 1344 -625 1503 -206 
L 1606 56 
L 191 3500 
L 800 3500 
L 1894 763 
L 2988 3500 
L 3597 3500 
L 2059 -325 
z
" transform="scale(0.015625)"/>
       <path id="DejaVuSans-20" transform="scale(0.015625)"/>
       <path id="DejaVuSans-55" d="M 556 4666 
L 1191 4666 
L 1191 1831 
Q 1191 1081 1462 751 
Q 1734 422 2344 422 
Q 2950 422 3222 751 
Q 3494 1081 3494 1831 
L 3494 4666 
L 4128 4666 
L 4128 1753 
Q 4128 841 3676 375 
Q 3225 -91 2344 -91 
Q 1459 -91 1007 375 
Q 556 841 556 1753 
L 556 4666 
z
" transform="scale(0.015625)"/>
       <path id="DejaVuSans-63" d="M 3122 3366 
L 3122 2828 
Q 2878 2963 2633 3030 
Q 2388 3097 2138 3097 
Q 1578 3097 1268 2742 
Q 959 2388 959 1747 
Q 959 1106 1268 751 
Q 1578 397 2138 397 
Q 2388 397 2633 464 
Q 2878 531 3122 666 
L 3122 134 
Q 2881 22 2623 -34 
Q 2366 -91 2075 -91 
Q 1284 -91 818 406 
Q 353 903 353 1747 
Q 353 2603 823 3093 
Q 1294 3584 2113 3584 
Q 2378 3584 2631 3529 
Q 2884 3475 3122 3366 
z
" transform="scale(0.015625)"/>
       <path id="DejaVuSans-74" d="M 1172 4494 
L 1172 3500 
L 2356 3500 
L 2356 3053 
L 1172 3053 
L 1172 1153 
Q 1172 725 1289 603 
Q 1406 481 1766 481 
L 2356 481 
L 2356 0 
L 1766 0 
Q 1100 0 847 248 
Q 594 497 594 1153 
L 594 3053 
L 172 3053 
L 172 3500 
L 594 3500 
L 594 4494 
L 1172 4494 
z
" transform="scale(0.015625)"/>
       <path id="DejaVuSans-61" d="M 2194 1759 
Q 1497 1759 1228 1600 
Q 959 1441 959 1056 
Q 959 750 1161 570 
Q 1363 391 1709 391 
Q 2188 391 2477 730 
Q 2766 1069 2766 1631 
L 2766 1759 
L 2194 1759 
z
M 3341 1997 
L 3341 0 
L 2766 0 
L 2766 531 
Q 2569 213 2275 61 
Q 1981 -91 1556 -91 
Q 1019 -91 701 211 
Q 384 513 384 1019 
Q 384 1609 779 1909 
Q 1175 2209 1959 2209 
L 2766 2209 
L 2766 2266 
Q 2766 2663 2505 2880 
Q 2244 3097 1772 3097 
Q 1472 3097 1187 3025 
Q 903 2953 641 2809 
L 641 3341 
Q 956 3463 1253 3523 
Q 1550 3584 1831 3584 
Q 2591 3584 2966 3190 
Q 3341 2797 3341 1997 
z
" transform="scale(0.015625)"/>
       <path id="DejaVuSans-69" d="M 603 3500 
L 1178 3500 
L 1178 0 
L 603 0 
L 603 3500 
z
M 603 4863 
L 1178 4863 
L 1178 4134 
L 603 4134 
L 603 4863 
z
" transform="scale(0.015625)"/>
       <path id="DejaVuSans-73" d="M 2834 3397 
L 2834 2853 
Q 2591 2978 2328 3040 
Q 2066 3103 1784 3103 
Q 1356 3103 1142 2972 
Q 928 2841 928 2578 
Q 928 2378 1081 2264 
Q 1234 2150 1697 2047 
L 1894 2003 
Q 2506 1872 2764 1633 
Q 3022 1394 3022 966 
Q 3022 478 2636 193 
Q 2250 -91 1575 -91 
Q 1294 -91 989 -36 
Q 684 19 347 128 
L 347 722 
Q 666 556 975 473 
Q 1284 391 1588 391 
Q 1994 391 2212 530 
Q 2431 669 2431 922 
Q 2431 1156 2273 1281 
Q 2116 1406 1581 1522 
L 1381 1569 
Q 847 1681 609 1914 
Q 372 2147 372 2553 
Q 372 3047 722 3315 
Q 1072 3584 1716 3584 
Q 2034 3584 2315 3537 
Q 2597 3491 2834 3397 
z
" transform="scale(0.015625)"/>
      </defs>
      <use xlink:href="#DejaVuSans-45"/>
      <use xlink:href="#DejaVuSans-6e" x="63.183594"/>
      <use xlink:href="#DejaVuSans-65" x="126.5625"/>
      <use xlink:href="#DejaVuSans-72" x="188.085938"/>
      <use xlink:href="#DejaVuSans-67" x="227.449219"/>
      <use xlink:href="#DejaVuSans-79" x="290.925781"/>
      <use xlink:href="#DejaVuSans-20" x="350.105469"/>
      <use xlink:href="#DejaVuSans-55" x="381.892578"/>
      <use xlink:href="#DejaVuSans-6e" x="455.085938"/>
      <use xlink:href="#DejaVuSans-63" x="518.464844"/>
      <use xlink:href="#DejaVuSans-65" x="573.445312"/>
      <use xlink:href="#DejaVuSans-72" x="634.96875"/>
      <use xlink:href="#DejaVuSans-74" x="676.082031"/>
      <use xlink:href="#DejaVuSans-61" x="715.291016"/>
      <use xlink:href="#DejaVuSans-69" x="776.570312"/>
      <use xlink:href="#DejaVuSans-6e" x="804.353516"/>
      <use xlink:href="#DejaVuSans-74" x="867.732422"/>
      <use xlink:href="#DejaVuSans-69" x="906.941406"/>
      <use xlink:href="#DejaVuSans-65" x="934.724609"/>
      <use xlink:href="#DejaVuSans-73" x="996.248047"/>
     </g>
    </g>
   </g>
   <g id="matplotlib.axis_2">
    <g id="ytick_1">
     <g id="line2d_7">
      <defs>
       <path id="m2de5fa0474" d="M 0 0 
L -3.5 0 
" style="stroke: #000000; stroke-width: 0.8"/>
      </defs>
      <g>
       <use xlink:href="#m2de5fa0474" x="83.72" y="432.357544" style="stroke: #000000; stroke-width: 0.8"/>
      </g>
     </g>
     <g id="text_8">
      <!-- 5 -->
      <g transform="translate(62.7225 440.715825) scale(0.22 -0.22)">
       <use xlink:href="#DejaVuSans-35"/>
      </g>
     </g>
    </g>
    <g id="ytick_2">
     <g id="line2d_8">
      <g>
       <use xlink:href="#m2de5fa0474" x="83.72" y="353.314918" style="stroke: #000000; stroke-width: 0.8"/>
      </g>
     </g>
     <g id="text_9">
      <!-- 10 -->
      <g transform="translate(48.725 361.673199) scale(0.22 -0.22)">
       <use xlink:href="#DejaVuSans-31"/>
       <use xlink:href="#DejaVuSans-30" x="63.623047"/>
      </g>
     </g>
    </g>
    <g id="ytick_3">
     <g id="line2d_9">
      <g>
       <use xlink:href="#m2de5fa0474" x="83.72" y="274.272291" style="stroke: #000000; stroke-width: 0.8"/>
      </g>
     </g>
     <g id="text_10">
      <!-- 15 -->
      <g transform="translate(48.725 282.630572) scale(0.22 -0.22)">
       <use xlink:href="#DejaVuSans-31"/>
       <use xlink:href="#DejaVuSans-35" x="63.623047"/>
      </g>
     </g>
    </g>
    <g id="ytick_4">
     <g id="line2d_10">
      <g>
       <use xlink:href="#m2de5fa0474" x="83.72" y="195.229664" style="stroke: #000000; stroke-width: 0.8"/>
      </g>
     </g>
     <g id="text_11">
      <!-- 20 -->
      <g transform="translate(48.725 203.587945) scale(0.22 -0.22)">
       <use xlink:href="#DejaVuSans-32"/>
       <use xlink:href="#DejaVuSans-30" x="63.623047"/>
      </g>
     </g>
    </g>
    <g id="ytick_5">
     <g id="line2d_11">
      <g>
       <use xlink:href="#m2de5fa0474" x="83.72" y="116.187037" style="stroke: #000000; stroke-width: 0.8"/>
      </g>
     </g>
     <g id="text_12">
      <!-- 25 -->
      <g transform="translate(48.725 124.545319) scale(0.22 -0.22)">
       <use xlink:href="#DejaVuSans-32"/>
       <use xlink:href="#DejaVuSans-35" x="63.623047"/>
      </g>
     </g>
    </g>
    <g id="ytick_6">
     <g id="line2d_12">
      <g>
       <use xlink:href="#m2de5fa0474" x="83.72" y="37.144411" style="stroke: #000000; stroke-width: 0.8"/>
      </g>
     </g>
     <g id="text_13">
      <!-- 30 -->
      <g transform="translate(48.725 45.502692) scale(0.22 -0.22)">
       <use xlink:href="#DejaVuSans-33"/>
       <use xlink:href="#DejaVuSans-30" x="63.623047"/>
      </g>
     </g>
    </g>
    <g id="text_14">
     <!-- Force Errors [kJ/(mol*A)] -->
     <g transform="translate(40.149688 394.9125) rotate(-90) scale(0.22 -0.22)">
      <defs>
       <path id="DejaVuSans-46" d="M 628 4666 
L 3309 4666 
L 3309 4134 
L 1259 4134 
L 1259 2759 
L 3109 2759 
L 3109 2228 
L 1259 2228 
L 1259 0 
L 628 0 
L 628 4666 
z
" transform="scale(0.015625)"/>
       <path id="DejaVuSans-6f" d="M 1959 3097 
Q 1497 3097 1228 2736 
Q 959 2375 959 1747 
Q 959 1119 1226 758 
Q 1494 397 1959 397 
Q 2419 397 2687 759 
Q 2956 1122 2956 1747 
Q 2956 2369 2687 2733 
Q 2419 3097 1959 3097 
z
M 1959 3584 
Q 2709 3584 3137 3096 
Q 3566 2609 3566 1747 
Q 3566 888 3137 398 
Q 2709 -91 1959 -91 
Q 1206 -91 779 398 
Q 353 888 353 1747 
Q 353 2609 779 3096 
Q 1206 3584 1959 3584 
z
" transform="scale(0.015625)"/>
       <path id="DejaVuSans-5b" d="M 550 4863 
L 1875 4863 
L 1875 4416 
L 1125 4416 
L 1125 -397 
L 1875 -397 
L 1875 -844 
L 550 -844 
L 550 4863 
z
" transform="scale(0.015625)"/>
       <path id="DejaVuSans-6b" d="M 581 4863 
L 1159 4863 
L 1159 1991 
L 2875 3500 
L 3609 3500 
L 1753 1863 
L 3688 0 
L 2938 0 
L 1159 1709 
L 1159 0 
L 581 0 
L 581 4863 
z
" transform="scale(0.015625)"/>
       <path id="DejaVuSans-4a" d="M 628 4666 
L 1259 4666 
L 1259 325 
Q 1259 -519 939 -900 
Q 619 -1281 -91 -1281 
L -331 -1281 
L -331 -750 
L -134 -750 
Q 284 -750 456 -515 
Q 628 -281 628 325 
L 628 4666 
z
" transform="scale(0.015625)"/>
       <path id="DejaVuSans-2f" d="M 1625 4666 
L 2156 4666 
L 531 -594 
L 0 -594 
L 1625 4666 
z
" transform="scale(0.015625)"/>
       <path id="DejaVuSans-28" d="M 1984 4856 
Q 1566 4138 1362 3434 
Q 1159 2731 1159 2009 
Q 1159 1288 1364 580 
Q 1569 -128 1984 -844 
L 1484 -844 
Q 1016 -109 783 600 
Q 550 1309 550 2009 
Q 550 2706 781 3412 
Q 1013 4119 1484 4856 
L 1984 4856 
z
" transform="scale(0.015625)"/>
       <path id="DejaVuSans-6d" d="M 3328 2828 
Q 3544 3216 3844 3400 
Q 4144 3584 4550 3584 
Q 5097 3584 5394 3201 
Q 5691 2819 5691 2113 
L 5691 0 
L 5113 0 
L 5113 2094 
Q 5113 2597 4934 2840 
Q 4756 3084 4391 3084 
Q 3944 3084 3684 2787 
Q 3425 2491 3425 1978 
L 3425 0 
L 2847 0 
L 2847 2094 
Q 2847 2600 2669 2842 
Q 2491 3084 2119 3084 
Q 1678 3084 1418 2786 
Q 1159 2488 1159 1978 
L 1159 0 
L 581 0 
L 581 3500 
L 1159 3500 
L 1159 2956 
Q 1356 3278 1631 3431 
Q 1906 3584 2284 3584 
Q 2666 3584 2933 3390 
Q 3200 3197 3328 2828 
z
" transform="scale(0.015625)"/>
       <path id="DejaVuSans-6c" d="M 603 4863 
L 1178 4863 
L 1178 0 
L 603 0 
L 603 4863 
z
" transform="scale(0.015625)"/>
       <path id="DejaVuSans-2a" d="M 3009 3897 
L 1888 3291 
L 3009 2681 
L 2828 2375 
L 1778 3009 
L 1778 1831 
L 1422 1831 
L 1422 3009 
L 372 2375 
L 191 2681 
L 1313 3291 
L 191 3897 
L 372 4206 
L 1422 3572 
L 1422 4750 
L 1778 4750 
L 1778 3572 
L 2828 4206 
L 3009 3897 
z
" transform="scale(0.015625)"/>
       <path id="DejaVuSans-41" d="M 2188 4044 
L 1331 1722 
L 3047 1722 
L 2188 4044 
z
M 1831 4666 
L 2547 4666 
L 4325 0 
L 3669 0 
L 3244 1197 
L 1141 1197 
L 716 0 
L 50 0 
L 1831 4666 
z
" transform="scale(0.015625)"/>
       <path id="DejaVuSans-29" d="M 513 4856 
L 1013 4856 
Q 1481 4119 1714 3412 
Q 1947 2706 1947 2009 
Q 1947 1309 1714 600 
Q 1481 -109 1013 -844 
L 513 -844 
Q 928 -128 1133 580 
Q 1338 1288 1338 2009 
Q 1338 2731 1133 3434 
Q 928 4138 513 4856 
z
" transform="scale(0.015625)"/>
       <path id="DejaVuSans-5d" d="M 1947 4863 
L 1947 -844 
L 622 -844 
L 622 -397 
L 1369 -397 
L 1369 4416 
L 622 4416 
L 622 4863 
L 1947 4863 
z
" transform="scale(0.015625)"/>
      </defs>
      <use xlink:href="#DejaVuSans-46"/>
      <use xlink:href="#DejaVuSans-6f" x="53.894531"/>
      <use xlink:href="#DejaVuSans-72" x="115.076172"/>
      <use xlink:href="#DejaVuSans-63" x="153.939453"/>
      <use xlink:href="#DejaVuSans-65" x="208.919922"/>
      <use xlink:href="#DejaVuSans-20" x="270.443359"/>
      <use xlink:href="#DejaVuSans-45" x="302.230469"/>
      <use xlink:href="#DejaVuSans-72" x="365.414062"/>
      <use xlink:href="#DejaVuSans-72" x="404.777344"/>
      <use xlink:href="#DejaVuSans-6f" x="443.640625"/>
      <use xlink:href="#DejaVuSans-72" x="504.822266"/>
      <use xlink:href="#DejaVuSans-73" x="545.935547"/>
      <use xlink:href="#DejaVuSans-20" x="598.035156"/>
      <use xlink:href="#DejaVuSans-5b" x="629.822266"/>
      <use xlink:href="#DejaVuSans-6b" x="668.835938"/>
      <use xlink:href="#DejaVuSans-4a" x="726.746094"/>
      <use xlink:href="#DejaVuSans-2f" x="756.238281"/>
      <use xlink:href="#DejaVuSans-28" x="789.929688"/>
      <use xlink:href="#DejaVuSans-6d" x="828.943359"/>
      <use xlink:href="#DejaVuSans-6f" x="926.355469"/>
      <use xlink:href="#DejaVuSans-6c" x="987.537109"/>
      <use xlink:href="#DejaVuSans-2a" x="1015.320312"/>
      <use xlink:href="#DejaVuSans-41" x="1065.320312"/>
      <use xlink:href="#DejaVuSans-29" x="1133.728516"/>
      <use xlink:href="#DejaVuSans-5d" x="1172.742188"/>
     </g>
    </g>
   </g>
   <g id="line2d_13">
    <path d="M 83.72 499.48 
L 696.24 23.76 
" clip-path="url(#pfa96de5efa)" style="fill: none; stroke-dasharray: 5.55,2.4; stroke-dashoffset: 0; stroke: #ff0000; stroke-width: 1.5"/>
   </g>
   <g id="patch_3">
    <path d="M 83.72 499.48 
L 83.72 23.76 
" style="fill: none; stroke: #000000; stroke-width: 0.8; stroke-linejoin: miter; stroke-linecap: square"/>
   </g>
   <g id="patch_4">
    <path d="M 696.24 499.48 
L 696.24 23.76 
" style="fill: none; stroke: #000000; stroke-width: 0.8; stroke-linejoin: miter; stroke-linecap: square"/>
   </g>
   <g id="patch_5">
    <path d="M 83.72 499.48 
L 696.24 499.48 
" style="fill: none; stroke: #000000; stroke-width: 0.8; stroke-linejoin: miter; stroke-linecap: square"/>
   </g>
   <g id="patch_6">
    <path d="M 83.72 23.76 
L 696.24 23.76 
" style="fill: none; stroke: #000000; stroke-width: 0.8; stroke-linejoin: miter; stroke-linecap: square"/>
   </g>
   <g id="text_15">
    <!-- Correlation in: 0.370 -->
    <g transform="translate(132.7216 46.696812) scale(0.22 -0.22)">
     <defs>
      <path id="DejaVuSans-43" d="M 4122 4306 
L 4122 3641 
Q 3803 3938 3442 4084 
Q 3081 4231 2675 4231 
Q 1875 4231 1450 3742 
Q 1025 3253 1025 2328 
Q 1025 1406 1450 917 
Q 1875 428 2675 428 
Q 3081 428 3442 575 
Q 3803 722 4122 1019 
L 4122 359 
Q 3791 134 3420 21 
Q 3050 -91 2638 -91 
Q 1578 -91 968 557 
Q 359 1206 359 2328 
Q 359 3453 968 4101 
Q 1578 4750 2638 4750 
Q 3056 4750 3426 4639 
Q 3797 4528 4122 4306 
z
" transform="scale(0.015625)"/>
      <path id="DejaVuSans-3a" d="M 750 794 
L 1409 794 
L 1409 0 
L 750 0 
L 750 794 
z
M 750 3309 
L 1409 3309 
L 1409 2516 
L 750 2516 
L 750 3309 
z
" transform="scale(0.015625)"/>
      <path id="DejaVuSans-2e" d="M 684 794 
L 1344 794 
L 1344 0 
L 684 0 
L 684 794 
z
" transform="scale(0.015625)"/>
      <path id="DejaVuSans-37" d="M 525 4666 
L 3525 4666 
L 3525 4397 
L 1831 0 
L 1172 0 
L 2766 4134 
L 525 4134 
L 525 4666 
z
" transform="scale(0.015625)"/>
     </defs>
     <use xlink:href="#DejaVuSans-43"/>
     <use xlink:href="#DejaVuSans-6f" x="69.824219"/>
     <use xlink:href="#DejaVuSans-72" x="131.005859"/>
     <use xlink:href="#DejaVuSans-72" x="170.369141"/>
     <use xlink:href="#DejaVuSans-65" x="209.232422"/>
     <use xlink:href="#DejaVuSans-6c" x="270.755859"/>
     <use xlink:href="#DejaVuSans-61" x="298.539062"/>
     <use xlink:href="#DejaVuSans-74" x="359.818359"/>
     <use xlink:href="#DejaVuSans-69" x="399.027344"/>
     <use xlink:href="#DejaVuSans-6f" x="426.810547"/>
     <use xlink:href="#DejaVuSans-6e" x="487.992188"/>
     <use xlink:href="#DejaVuSans-20" x="551.371094"/>
     <use xlink:href="#DejaVuSans-69" x="583.158203"/>
     <use xlink:href="#DejaVuSans-6e" x="610.941406"/>
     <use xlink:href="#DejaVuSans-3a" x="674.320312"/>
     <use xlink:href="#DejaVuSans-20" x="708.011719"/>
     <use xlink:href="#DejaVuSans-30" x="739.798828"/>
     <use xlink:href="#DejaVuSans-2e" x="803.421875"/>
     <use xlink:href="#DejaVuSans-33" x="835.208984"/>
     <use xlink:href="#DejaVuSans-37" x="898.832031"/>
     <use xlink:href="#DejaVuSans-30" x="962.455078"/>
    </g>
    <!-- Correlation Out: 0.646 -->
    <g transform="translate(132.7216 71.332) scale(0.22 -0.22)">
     <defs>
      <path id="DejaVuSans-4f" d="M 2522 4238 
Q 1834 4238 1429 3725 
Q 1025 3213 1025 2328 
Q 1025 1447 1429 934 
Q 1834 422 2522 422 
Q 3209 422 3611 934 
Q 4013 1447 4013 2328 
Q 4013 3213 3611 3725 
Q 3209 4238 2522 4238 
z
M 2522 4750 
Q 3503 4750 4090 4092 
Q 4678 3434 4678 2328 
Q 4678 1225 4090 567 
Q 3503 -91 2522 -91 
Q 1538 -91 948 565 
Q 359 1222 359 2328 
Q 359 3434 948 4092 
Q 1538 4750 2522 4750 
z
" transform="scale(0.015625)"/>
      <path id="DejaVuSans-75" d="M 544 1381 
L 544 3500 
L 1119 3500 
L 1119 1403 
Q 1119 906 1312 657 
Q 1506 409 1894 409 
Q 2359 409 2629 706 
Q 2900 1003 2900 1516 
L 2900 3500 
L 3475 3500 
L 3475 0 
L 2900 0 
L 2900 538 
Q 2691 219 2414 64 
Q 2138 -91 1772 -91 
Q 1169 -91 856 284 
Q 544 659 544 1381 
z
M 1991 3584 
L 1991 3584 
z
" transform="scale(0.015625)"/>
      <path id="DejaVuSans-36" d="M 2113 2584 
Q 1688 2584 1439 2293 
Q 1191 2003 1191 1497 
Q 1191 994 1439 701 
Q 1688 409 2113 409 
Q 2538 409 2786 701 
Q 3034 994 3034 1497 
Q 3034 2003 2786 2293 
Q 2538 2584 2113 2584 
z
M 3366 4563 
L 3366 3988 
Q 3128 4100 2886 4159 
Q 2644 4219 2406 4219 
Q 1781 4219 1451 3797 
Q 1122 3375 1075 2522 
Q 1259 2794 1537 2939 
Q 1816 3084 2150 3084 
Q 2853 3084 3261 2657 
Q 3669 2231 3669 1497 
Q 3669 778 3244 343 
Q 2819 -91 2113 -91 
Q 1303 -91 875 529 
Q 447 1150 447 2328 
Q 447 3434 972 4092 
Q 1497 4750 2381 4750 
Q 2619 4750 2861 4703 
Q 3103 4656 3366 4563 
z
" transform="scale(0.015625)"/>
      <path id="DejaVuSans-34" d="M 2419 4116 
L 825 1625 
L 2419 1625 
L 2419 4116 
z
M 2253 4666 
L 3047 4666 
L 3047 1625 
L 3713 1625 
L 3713 1100 
L 3047 1100 
L 3047 0 
L 2419 0 
L 2419 1100 
L 313 1100 
L 313 1709 
L 2253 4666 
z
" transform="scale(0.015625)"/>
     </defs>
     <use xlink:href="#DejaVuSans-43"/>
     <use xlink:href="#DejaVuSans-6f" x="69.824219"/>
     <use xlink:href="#DejaVuSans-72" x="131.005859"/>
     <use xlink:href="#DejaVuSans-72" x="170.369141"/>
     <use xlink:href="#DejaVuSans-65" x="209.232422"/>
     <use xlink:href="#DejaVuSans-6c" x="270.755859"/>
     <use xlink:href="#DejaVuSans-61" x="298.539062"/>
     <use xlink:href="#DejaVuSans-74" x="359.818359"/>
     <use xlink:href="#DejaVuSans-69" x="399.027344"/>
     <use xlink:href="#DejaVuSans-6f" x="426.810547"/>
     <use xlink:href="#DejaVuSans-6e" x="487.992188"/>
     <use xlink:href="#DejaVuSans-20" x="551.371094"/>
     <use xlink:href="#DejaVuSans-4f" x="583.158203"/>
     <use xlink:href="#DejaVuSans-75" x="661.869141"/>
     <use xlink:href="#DejaVuSans-74" x="725.248047"/>
     <use xlink:href="#DejaVuSans-3a" x="764.457031"/>
     <use xlink:href="#DejaVuSans-20" x="798.148438"/>
     <use xlink:href="#DejaVuSans-30" x="829.935547"/>
     <use xlink:href="#DejaVuSans-2e" x="893.558594"/>
     <use xlink:href="#DejaVuSans-36" x="925.345703"/>
     <use xlink:href="#DejaVuSans-34" x="988.96875"/>
     <use xlink:href="#DejaVuSans-36" x="1052.591797"/>
    </g>
   </g>
   <g id="legend_1">
    <g id="patch_7">
     <path d="M 407.0225 105.94375 
L 680.84 105.94375 
Q 685.24 105.94375 685.24 101.54375 
L 685.24 39.16 
Q 685.24 34.76 680.84 34.76 
L 407.0225 34.76 
Q 402.6225 34.76 402.6225 39.16 
L 402.6225 101.54375 
Q 402.6225 105.94375 407.0225 105.94375 
z
" style="fill: #ffffff; opacity: 0.8; stroke: #cccccc; stroke-linejoin: miter"/>
    </g>
    <g id="line2d_14">
     <defs>
      <path id="m5ac432efb0" d="M 0 2.5 
C 0.663008 2.5 1.29895 2.236584 1.767767 1.767767 
C 2.236584 1.29895 2.5 0.663008 2.5 0 
C 2.5 -0.663008 2.236584 -1.29895 1.767767 -1.767767 
C 1.29895 -2.236584 0.663008 -2.5 0 -2.5 
C -0.663008 -2.5 -1.29895 -2.236584 -1.767767 -1.767767 
C -2.236584 -1.29895 -2.5 -0.663008 -2.5 0 
C -2.5 0.663008 -2.236584 1.29895 -1.767767 1.767767 
C -1.29895 2.236584 -0.663008 2.5 0 2.5 
z
" style="stroke: #ffffff"/>
     </defs>
     <g>
      <use xlink:href="#m5ac432efb0" x="433.4225" y="52.576562" style="fill: #0000ff; stroke: #ffffff"/>
     </g>
    </g>
    <g id="text_16">
     <!-- In Distribution -->
     <g transform="translate(473.0225 60.276562) scale(0.22 -0.22)">
      <defs>
       <path id="DejaVuSans-49" d="M 628 4666 
L 1259 4666 
L 1259 0 
L 628 0 
L 628 4666 
z
" transform="scale(0.015625)"/>
       <path id="DejaVuSans-44" d="M 1259 4147 
L 1259 519 
L 2022 519 
Q 2988 519 3436 956 
Q 3884 1394 3884 2338 
Q 3884 3275 3436 3711 
Q 2988 4147 2022 4147 
L 1259 4147 
z
M 628 4666 
L 1925 4666 
Q 3281 4666 3915 4102 
Q 4550 3538 4550 2338 
Q 4550 1131 3912 565 
Q 3275 0 1925 0 
L 628 0 
L 628 4666 
z
" transform="scale(0.015625)"/>
       <path id="DejaVuSans-62" d="M 3116 1747 
Q 3116 2381 2855 2742 
Q 2594 3103 2138 3103 
Q 1681 3103 1420 2742 
Q 1159 2381 1159 1747 
Q 1159 1113 1420 752 
Q 1681 391 2138 391 
Q 2594 391 2855 752 
Q 3116 1113 3116 1747 
z
M 1159 2969 
Q 1341 3281 1617 3432 
Q 1894 3584 2278 3584 
Q 2916 3584 3314 3078 
Q 3713 2572 3713 1747 
Q 3713 922 3314 415 
Q 2916 -91 2278 -91 
Q 1894 -91 1617 61 
Q 1341 213 1159 525 
L 1159 0 
L 581 0 
L 581 4863 
L 1159 4863 
L 1159 2969 
z
" transform="scale(0.015625)"/>
      </defs>
      <use xlink:href="#DejaVuSans-49"/>
      <use xlink:href="#DejaVuSans-6e" x="29.492188"/>
      <use xlink:href="#DejaVuSans-20" x="92.871094"/>
      <use xlink:href="#DejaVuSans-44" x="124.658203"/>
      <use xlink:href="#DejaVuSans-69" x="201.660156"/>
      <use xlink:href="#DejaVuSans-73" x="229.443359"/>
      <use xlink:href="#DejaVuSans-74" x="281.542969"/>
      <use xlink:href="#DejaVuSans-72" x="320.751953"/>
      <use xlink:href="#DejaVuSans-69" x="361.865234"/>
      <use xlink:href="#DejaVuSans-62" x="389.648438"/>
      <use xlink:href="#DejaVuSans-75" x="453.125"/>
      <use xlink:href="#DejaVuSans-74" x="516.503906"/>
      <use xlink:href="#DejaVuSans-69" x="555.712891"/>
      <use xlink:href="#DejaVuSans-6f" x="583.496094"/>
      <use xlink:href="#DejaVuSans-6e" x="644.677734"/>
     </g>
    </g>
    <g id="line2d_15">
     <defs>
      <path id="m07e86e3778" d="M 0 2.5 
C 0.663008 2.5 1.29895 2.236584 1.767767 1.767767 
C 2.236584 1.29895 2.5 0.663008 2.5 0 
C 2.5 -0.663008 2.236584 -1.29895 1.767767 -1.767767 
C 1.29895 -2.236584 0.663008 -2.5 0 -2.5 
C -0.663008 -2.5 -1.29895 -2.236584 -1.767767 -1.767767 
C -2.236584 -1.29895 -2.5 -0.663008 -2.5 0 
C -2.5 0.663008 -2.236584 1.29895 -1.767767 1.767767 
C -1.29895 2.236584 -0.663008 2.5 0 2.5 
z
" style="stroke: #ffffff"/>
     </defs>
     <g>
      <use xlink:href="#m07e86e3778" x="433.4225" y="84.868437" style="fill: #008000; stroke: #ffffff"/>
     </g>
    </g>
    <g id="text_17">
     <!-- Out of Distribution -->
     <g transform="translate(473.0225 92.568437) scale(0.22 -0.22)">
      <defs>
       <path id="DejaVuSans-66" d="M 2375 4863 
L 2375 4384 
L 1825 4384 
Q 1516 4384 1395 4259 
Q 1275 4134 1275 3809 
L 1275 3500 
L 2222 3500 
L 2222 3053 
L 1275 3053 
L 1275 0 
L 697 0 
L 697 3053 
L 147 3053 
L 147 3500 
L 697 3500 
L 697 3744 
Q 697 4328 969 4595 
Q 1241 4863 1831 4863 
L 2375 4863 
z
" transform="scale(0.015625)"/>
      </defs>
      <use xlink:href="#DejaVuSans-4f"/>
      <use xlink:href="#DejaVuSans-75" x="78.710938"/>
      <use xlink:href="#DejaVuSans-74" x="142.089844"/>
      <use xlink:href="#DejaVuSans-20" x="181.298828"/>
      <use xlink:href="#DejaVuSans-6f" x="213.085938"/>
      <use xlink:href="#DejaVuSans-66" x="274.267578"/>
      <use xlink:href="#DejaVuSans-20" x="309.472656"/>
      <use xlink:href="#DejaVuSans-44" x="341.259766"/>
      <use xlink:href="#DejaVuSans-69" x="418.261719"/>
      <use xlink:href="#DejaVuSans-73" x="446.044922"/>
      <use xlink:href="#DejaVuSans-74" x="498.144531"/>
      <use xlink:href="#DejaVuSans-72" x="537.353516"/>
      <use xlink:href="#DejaVuSans-69" x="578.466797"/>
      <use xlink:href="#DejaVuSans-62" x="606.25"/>
      <use xlink:href="#DejaVuSans-75" x="669.726562"/>
      <use xlink:href="#DejaVuSans-74" x="733.105469"/>
      <use xlink:href="#DejaVuSans-69" x="772.314453"/>
      <use xlink:href="#DejaVuSans-6f" x="800.097656"/>
      <use xlink:href="#DejaVuSans-6e" x="861.279297"/>
     </g>
    </g>
   </g>
  </g>
 </g>
 <defs>
  <clipPath id="pfa96de5efa">
   <rect x="83.72" y="23.76" width="612.52" height="475.72"/>
  </clipPath>
 </defs>
</svg>
