<?xml version="1.0" encoding="utf-8" standalone="no"?>
<!DOCTYPE svg PUBLIC "-//W3C//DTD SVG 1.1//EN"
  "http://www.w3.org/Graphics/SVG/1.1/DTD/svg11.dtd">
<svg xmlns:xlink="http://www.w3.org/1999/xlink" width="720pt" height="576pt" viewBox="0 0 720 576" xmlns="http://www.w3.org/2000/svg" version="1.1">
 <metadata>
  <rdf:RDF xmlns:dc="http://purl.org/dc/elements/1.1/" xmlns:cc="http://creativecommons.org/ns#" xmlns:rdf="http://www.w3.org/1999/02/22-rdf-syntax-ns#">
   <cc:Work>
    <dc:type rdf:resource="http://purl.org/dc/dcmitype/StillImage"/>
    <dc:date>2024-12-07T13:49:29.582364</dc:date>
    <dc:format>image/svg+xml</dc:format>
    <dc:creator>
     <cc:Agent>
      <dc:title>Matplotlib v3.8.4, https://matplotlib.org/</dc:title>
     </cc:Agent>
    </dc:creator>
   </cc:Work>
  </rdf:RDF>
 </metadata>
 <defs>
  <style type="text/css">*{stroke-linejoin: round; stroke-linecap: butt}</style>
 </defs>
 <g id="figure_1">
  <g id="patch_1">
   <path d="M 0 576 
L 720 576 
L 720 0 
L 0 0 
z
" style="fill: #ffffff"/>
  </g>
  <g id="axes_1">
   <g id="patch_2">
    <path d="M 104.69 499.48 
L 696.24 499.48 
L 696.24 23.76 
L 104.69 23.76 
z
" style="fill: #ffffff"/>
   </g>
   <g id="QuadContourSet_1">
    <path d="M 116.042734 525.369476 
L 117.550393 525.613754 
L 119.058052 525.737759 
L 120.565711 525.769667 
L 122.07337 525.729168 
L 123.581029 525.628309 
L 125.088688 525.47186 
L 126.596347 525.257664 
L 126.866267 525.208559 
L 128.104006 525.055558 
L 129.611666 524.820902 
L 131.119325 524.527147 
L 132.626984 524.162388 
L 134.134643 523.712983 
L 135.642302 523.162999 
L 137.149961 522.493499 
L 137.421436 522.358953 
L 138.65762 521.925976 
L 140.165279 521.309583 
L 141.672938 520.578278 
L 143.180597 519.710217 
L 143.506938 519.509347 
L 144.688256 518.97773 
L 146.195916 518.203318 
L 147.703575 517.295153 
L 148.653178 516.659741 
L 149.211234 516.378929 
L 150.718893 515.568399 
L 152.226552 514.626197 
L 153.387303 513.810135 
L 153.734211 513.62249 
L 155.24187 512.774039 
L 156.749529 511.791036 
L 157.882511 510.960529 
L 158.257188 510.745593 
L 159.764847 509.842282 
L 161.272506 508.791368 
L 162.159168 508.110923 
L 162.780166 507.732309 
L 164.287825 506.756928 
L 165.795484 505.624663 
L 166.268615 505.261317 
L 167.303143 504.617763 
L 168.810802 503.618985 
L 170.318461 502.513019 
L 170.475529 502.411711 
L 171.82612 501.686071 
L 173.333779 500.89757 
L 174.841438 500.184205 
L 176.349097 499.632957 
L 176.664925 499.562105 
L 177.856756 499.329648 
L 179.364416 499.07058 
L 180.872075 498.700764 
L 182.379734 498.107716 
L 183.887393 497.239894 
L 184.562393 496.712499 
L 185.395052 496.120267 
L 186.902711 494.768093 
L 187.734805 493.862893 
L 188.41037 493.176033 
L 189.918029 491.381861 
L 190.1915 491.013287 
L 191.425688 489.41713 
L 192.287367 488.163681 
L 192.933347 487.239919 
L 194.159386 485.314074 
L 194.441006 484.867472 
L 195.853769 482.464468 
L 195.948666 482.296616 
L 197.397104 479.614862 
L 197.456325 479.497017 
L 198.801353 476.765256 
L 198.963984 476.396953 
L 200.066163 473.91565 
L 200.471643 472.855135 
L 201.178991 471.066044 
L 201.979302 468.603359 
L 202.113124 468.216438 
L 202.873029 465.366832 
L 203.393836 462.517226 
L 203.486961 461.328414 
L 203.634873 459.66762 
L 203.486961 456.877362 
L 203.483292 456.818014 
L 202.805401 453.968408 
L 201.979302 451.952971 
L 201.63927 451.118802 
L 200.471643 448.272854 
L 200.470499 448.269196 
L 199.752828 445.41959 
L 199.225887 442.569984 
L 198.963984 440.850832 
L 198.824968 439.720378 
L 198.46229 436.870772 
L 198.027443 434.021166 
L 197.497163 431.17156 
L 197.456325 430.957958 
L 196.988873 428.321954 
L 196.561566 425.472348 
L 196.348511 422.622742 
L 196.426945 419.773135 
L 196.785134 416.923529 
L 197.370464 414.073923 
L 197.456325 413.743683 
L 198.142096 411.224317 
L 198.963984 408.457812 
L 198.989763 408.374711 
L 199.829921 405.525105 
L 200.471643 403.094323 
L 200.588219 402.675499 
L 201.118865 399.825893 
L 201.275726 396.976287 
L 200.528262 394.126681 
L 200.471643 394.049039 
L 198.963984 393.230048 
L 197.456325 393.286978 
L 195.948666 393.779981 
L 195.263089 394.126681 
L 194.441006 394.539896 
L 192.933347 395.408695 
L 191.425688 396.335801 
L 190.333834 396.976287 
L 189.918029 397.224131 
L 188.41037 397.874724 
L 186.902711 398.177166 
L 185.395052 397.946504 
L 183.887393 397.28881 
L 183.149313 396.976287 
L 182.379734 396.728472 
L 180.872075 396.539893 
L 179.364416 396.651806 
L 177.856756 396.976287 
L 177.856756 396.976287 
L 176.349097 397.421755 
L 174.841438 397.916536 
L 173.333779 398.442584 
L 171.82612 398.99735 
L 170.318461 399.585515 
L 169.727544 399.825893 
L 168.810802 400.124097 
L 167.303143 400.605584 
L 165.795484 401.080506 
L 164.287825 401.549181 
L 162.780166 402.009673 
L 161.272506 402.460485 
L 160.483828 402.675499 
L 159.764847 402.818552 
L 158.257188 403.078703 
L 156.749529 403.341435 
L 155.24187 403.656006 
L 153.734211 404.096127 
L 152.226552 404.756396 
L 151.012477 405.525105 
L 150.718893 405.648563 
L 149.211234 406.422116 
L 147.703575 407.477226 
L 146.68439 408.374711 
L 146.195916 408.678186 
L 144.688256 409.722456 
L 143.180597 411.102506 
L 143.047483 411.224317 
L 141.672938 412.145069 
L 140.165279 413.438458 
L 139.500137 414.073923 
L 138.65762 414.670977 
L 137.149961 415.948262 
L 136.22268 416.923529 
L 135.642302 417.375215 
L 134.134643 418.790371 
L 133.30473 419.773135 
L 132.626984 420.367465 
L 131.119325 422.015563 
L 130.651574 422.622742 
L 129.611666 423.642716 
L 128.120399 425.472348 
L 128.104006 425.488069 
L 126.596347 427.11151 
L 125.657983 428.321954 
L 125.088688 428.91832 
L 123.581029 430.751481 
L 123.271932 431.17156 
L 122.07337 432.551721 
L 120.975929 434.021166 
L 120.565711 434.502589 
L 119.058052 436.490063 
L 118.793971 436.870772 
L 117.550393 438.503117 
L 116.724947 439.720378 
L 116.042734 440.665051 
L 114.798292 442.569984 
L 114.535075 442.959878 
L 113.027416 445.374162 
L 113.000117 445.41959 
L 111.519756 447.878855 
L 111.296507 448.269196 
L 110.012097 450.575651 
L 109.718374 451.118802 
L 108.504438 453.491495 
L 108.262054 453.968408 
L 106.996779 456.678544 
L 106.930568 456.818014 
L 105.692321 459.66762 
L 105.48912 460.206774 
L 104.56777 462.517226 
L 103.981461 464.287023 
L 103.593333 465.366832 
L 102.751152 468.216438 
L 102.473802 469.408632 
L 102.037678 471.066044 
L 101.474178 473.91565 
L 101.081917 476.765256 
L 100.966143 478.045498 
L 100.796548 479.614862 
L 100.59927 482.464468 
L 100.468417 485.314074 
L 100.368859 488.163681 
L 100.288401 491.013287 
L 100.237297 493.862893 
L 100.241993 496.712499 
L 100.341185 499.562105 
L 100.585795 502.411711 
L 100.966143 504.838937 
L 101.027468 505.261317 
L 101.644766 508.110923 
L 102.473802 510.690401 
L 102.560075 510.960529 
L 103.676289 513.810135 
L 103.981461 514.464554 
L 105.065504 516.659741 
L 105.48912 517.404598 
L 106.871856 519.509347 
L 106.996779 519.681835 
L 108.504438 521.478398 
L 109.50991 522.358953 
L 110.012097 522.797996 
L 111.519756 523.835184 
L 113.027416 524.548322 
L 114.535075 525.02499 
L 115.412511 525.208559 
z
M 122.948293 513.810135 
L 122.07337 513.631951 
L 120.565711 513.167149 
L 119.058052 512.48411 
L 117.550393 511.515526 
L 116.878098 510.960529 
L 116.042734 510.207694 
L 114.535075 508.421463 
L 114.314912 508.110923 
L 113.027416 505.928557 
L 112.686885 505.261317 
L 111.538262 502.411711 
L 111.519756 502.3533 
L 110.659261 499.562105 
L 110.049009 496.712499 
L 110.012097 496.458552 
L 109.627475 493.862893 
L 109.422301 491.013287 
L 109.408431 488.163681 
L 109.560621 485.314074 
L 109.863366 482.464468 
L 110.012097 481.496668 
L 110.267538 479.614862 
L 110.770871 476.765256 
L 111.419546 473.91565 
L 111.519756 473.534562 
L 112.121343 471.066044 
L 112.994241 468.216438 
L 113.027416 468.118835 
L 113.925907 465.366832 
L 114.535075 463.806053 
L 115.028952 462.517226 
L 116.042734 460.229211 
L 116.292315 459.66762 
L 117.550393 457.141456 
L 117.715316 456.818014 
L 119.058052 454.397438 
L 119.306501 453.968408 
L 120.565711 451.912594 
L 121.082438 451.118802 
L 122.07337 449.640477 
L 123.065932 448.269196 
L 123.581029 447.560152 
L 125.088688 445.625044 
L 125.253745 445.41959 
L 126.596347 443.707686 
L 127.579889 442.569984 
L 128.104006 441.935346 
L 129.611666 440.213887 
L 130.066807 439.720378 
L 131.119325 438.502303 
L 132.626984 436.929398 
L 132.684504 436.870772 
L 134.134643 435.270328 
L 135.404059 434.021166 
L 135.642302 433.763565 
L 137.149961 432.228456 
L 138.310224 431.17156 
L 138.65762 430.820949 
L 140.165279 429.431114 
L 141.528537 428.321954 
L 141.672938 428.190982 
L 143.180597 426.968206 
L 144.688256 425.909337 
L 145.39508 425.472348 
L 146.195916 424.923391 
L 147.703575 424.033854 
L 149.211234 423.25825 
L 150.597596 422.622742 
L 150.718893 422.561684 
L 152.226552 421.87962 
L 153.734211 421.255219 
L 155.24187 420.674566 
L 156.749529 420.135431 
L 157.869747 419.773135 
L 158.257188 419.637437 
L 159.764847 419.19908 
L 161.272506 418.88305 
L 162.780166 418.737266 
L 164.287825 418.834082 
L 165.795484 419.28157 
L 166.629349 419.773135 
L 167.303143 420.235388 
L 168.810802 421.82313 
L 169.404166 422.622742 
L 170.318461 423.815129 
L 171.58761 425.472348 
L 171.82612 425.72916 
L 173.333779 427.131292 
L 174.841438 428.278729 
L 174.910426 428.321954 
L 176.349097 429.12268 
L 177.856756 429.937661 
L 179.364416 430.87039 
L 179.762739 431.17156 
L 180.872075 432.106201 
L 182.379734 433.970583 
L 182.411506 434.021166 
L 183.883947 436.870772 
L 183.887393 436.878965 
L 184.938311 439.720378 
L 185.395052 441.244194 
L 185.774285 442.569984 
L 186.435449 445.41959 
L 186.902711 448.269196 
L 186.902711 448.269196 
L 187.18229 451.118802 
L 187.250771 453.968408 
L 187.113857 456.818014 
L 186.902711 458.568323 
L 186.781012 459.66762 
L 186.274281 462.517226 
L 185.539014 465.366832 
L 185.395052 465.799125 
L 184.624241 468.216438 
L 183.887393 470.005847 
L 183.461261 471.066044 
L 182.379734 473.268808 
L 182.063523 473.91565 
L 180.872075 476.007291 
L 180.433263 476.765256 
L 179.364416 478.41733 
L 178.560044 479.614862 
L 177.856756 480.588192 
L 176.418045 482.464468 
L 176.349097 482.551078 
L 174.841438 484.415121 
L 174.056812 485.314074 
L 173.333779 486.137876 
L 171.82612 487.734194 
L 171.399566 488.163681 
L 170.318461 489.276196 
L 168.810802 490.684842 
L 168.443269 491.013287 
L 167.303143 492.080193 
L 165.795484 493.365807 
L 165.182365 493.862893 
L 164.287825 494.639602 
L 162.780166 495.86583 
L 161.659298 496.712499 
L 161.272506 497.03239 
L 159.764847 498.255355 
L 158.257188 499.361486 
L 157.982306 499.562105 
L 156.749529 500.5657 
L 155.24187 501.691592 
L 154.198829 502.411711 
L 153.734211 502.779213 
L 152.226552 503.930992 
L 150.718893 504.941661 
L 150.215197 505.261317 
L 149.211234 506.012059 
L 147.703575 507.029379 
L 146.195916 507.908865 
L 145.824239 508.110923 
L 144.688256 508.861484 
L 143.180597 509.732288 
L 141.672938 510.474261 
L 140.533968 510.960529 
L 140.165279 511.15808 
L 138.65762 511.871543 
L 137.149961 512.461329 
L 135.642302 512.944683 
L 134.134643 513.33518 
L 132.626984 513.643373 
L 131.550768 513.810135 
L 131.119325 513.896634 
L 129.611666 514.103995 
L 128.104006 514.218161 
L 126.596347 514.237669 
L 125.088688 514.154051 
L 123.581029 513.950794 
z
" clip-path="url(#pd2dcbe38d9)" style="fill: #eef5fc"/>
    <path d="M 123.581029 513.950794 
L 125.088688 514.154051 
L 126.596347 514.237669 
L 128.104006 514.218161 
L 129.611666 514.103995 
L 131.119325 513.896634 
L 131.550768 513.810135 
L 132.626984 513.643373 
L 134.134643 513.33518 
L 135.642302 512.944683 
L 137.149961 512.461329 
L 138.65762 511.871543 
L 140.165279 511.15808 
L 140.533968 510.960529 
L 141.672938 510.474261 
L 143.180597 509.732288 
L 144.688256 508.861484 
L 145.824239 508.110923 
L 146.195916 507.908865 
L 147.703575 507.029379 
L 149.211234 506.012059 
L 150.215197 505.261317 
L 150.718893 504.941661 
L 152.226552 503.930992 
L 153.734211 502.779213 
L 154.198829 502.411711 
L 155.24187 501.691592 
L 156.749529 500.5657 
L 157.982306 499.562105 
L 158.257188 499.361486 
L 159.764847 498.255355 
L 161.272506 497.03239 
L 161.659298 496.712499 
L 162.780166 495.86583 
L 164.287825 494.639602 
L 165.182365 493.862893 
L 165.795484 493.365807 
L 167.303143 492.080193 
L 168.443269 491.013287 
L 168.810802 490.684842 
L 170.318461 489.276196 
L 171.399566 488.163681 
L 171.82612 487.734194 
L 173.333779 486.137876 
L 174.056812 485.314074 
L 174.841438 484.415121 
L 176.349097 482.551078 
L 176.418045 482.464468 
L 177.856756 480.588192 
L 178.560044 479.614862 
L 179.364416 478.41733 
L 180.433263 476.765256 
L 180.872075 476.007291 
L 182.063523 473.91565 
L 182.379734 473.268808 
L 183.461261 471.066044 
L 183.887393 470.005847 
L 184.624241 468.216438 
L 185.395052 465.799125 
L 185.539014 465.366832 
L 186.274281 462.517226 
L 186.781012 459.66762 
L 186.902711 458.568323 
L 187.113857 456.818014 
L 187.250771 453.968408 
L 187.18229 451.118802 
L 186.902711 448.269196 
L 186.902711 448.269196 
L 186.435449 445.41959 
L 185.774285 442.569984 
L 185.395052 441.244194 
L 184.938311 439.720378 
L 183.887393 436.878965 
L 183.883947 436.870772 
L 182.411506 434.021166 
L 182.379734 433.970583 
L 180.872075 432.106201 
L 179.762739 431.17156 
L 179.364416 430.87039 
L 177.856756 429.937661 
L 176.349097 429.12268 
L 174.910426 428.321954 
L 174.841438 428.278729 
L 173.333779 427.131292 
L 171.82612 425.72916 
L 171.58761 425.472348 
L 170.318461 423.815129 
L 169.404166 422.622742 
L 168.810802 421.82313 
L 167.303143 420.235388 
L 166.629349 419.773135 
L 165.795484 419.28157 
L 164.287825 418.834082 
L 162.780166 418.737266 
L 161.272506 418.88305 
L 159.764847 419.19908 
L 158.257188 419.637437 
L 157.869747 419.773135 
L 156.749529 420.135431 
L 155.24187 420.674566 
L 153.734211 421.255219 
L 152.226552 421.87962 
L 150.718893 422.561684 
L 150.597596 422.622742 
L 149.211234 423.25825 
L 147.703575 424.033854 
L 146.195916 424.923391 
L 145.39508 425.472348 
L 144.688256 425.909337 
L 143.180597 426.968206 
L 141.672938 428.190982 
L 141.528537 428.321954 
L 140.165279 429.431114 
L 138.65762 430.820949 
L 138.310224 431.17156 
L 137.149961 432.228456 
L 135.642302 433.763565 
L 135.404059 434.021166 
L 134.134643 435.270328 
L 132.684504 436.870772 
L 132.626984 436.929398 
L 131.119325 438.502303 
L 130.066807 439.720378 
L 129.611666 440.213887 
L 128.104006 441.935346 
L 127.579889 442.569984 
L 126.596347 443.707686 
L 125.253745 445.41959 
L 125.088688 445.625044 
L 123.581029 447.560152 
L 123.065932 448.269196 
L 122.07337 449.640477 
L 121.082438 451.118802 
L 120.565711 451.912594 
L 119.306501 453.968408 
L 119.058052 454.397438 
L 117.715316 456.818014 
L 117.550393 457.141456 
L 116.292315 459.66762 
L 116.042734 460.229211 
L 115.028952 462.517226 
L 114.535075 463.806053 
L 113.925907 465.366832 
L 113.027416 468.118835 
L 112.994241 468.216438 
L 112.121343 471.066044 
L 111.519756 473.534562 
L 111.419546 473.91565 
L 110.770871 476.765256 
L 110.267538 479.614862 
L 110.012097 481.496668 
L 109.863366 482.464468 
L 109.560621 485.314074 
L 109.408431 488.163681 
L 109.422301 491.013287 
L 109.627475 493.862893 
L 110.012097 496.458552 
L 110.049009 496.712499 
L 110.659261 499.562105 
L 111.519756 502.3533 
L 111.538262 502.411711 
L 112.686885 505.261317 
L 113.027416 505.928557 
L 114.314912 508.110923 
L 114.535075 508.421463 
L 116.042734 510.207694 
L 116.878098 510.960529 
L 117.550393 511.515526 
L 119.058052 512.48411 
L 120.565711 513.167149 
L 122.07337 513.631951 
L 122.948293 513.810135 
z
M 125.946598 508.110923 
L 125.088688 507.881148 
L 123.581029 507.27969 
L 122.07337 506.410207 
L 120.631871 505.261317 
L 120.565711 505.200384 
L 119.058052 503.508416 
L 118.283287 502.411711 
L 117.550393 501.093996 
L 116.810339 499.562105 
L 116.042734 497.409331 
L 115.810056 496.712499 
L 115.104087 493.862893 
L 114.642557 491.013287 
L 114.535075 489.841672 
L 114.380183 488.163681 
L 114.317821 485.314074 
L 114.451099 482.464468 
L 114.535075 481.72795 
L 114.75662 479.614862 
L 115.222031 476.765256 
L 115.855742 473.91565 
L 116.042734 473.244665 
L 116.623697 471.066044 
L 117.550393 468.251499 
L 117.561674 468.216438 
L 118.621408 465.366832 
L 119.058052 464.352097 
L 119.852109 462.517226 
L 120.565711 461.05026 
L 121.254591 459.66762 
L 122.07337 458.16399 
L 122.836618 456.818014 
L 123.581029 455.584564 
L 124.611691 453.968408 
L 125.088688 453.247799 
L 126.596347 451.118802 
L 126.596347 451.118802 
L 128.104006 449.102144 
L 128.778609 448.269196 
L 129.611666 447.229706 
L 131.119325 445.500838 
L 131.194793 445.41959 
L 132.626984 443.829452 
L 133.8729 442.569984 
L 134.134643 442.292662 
L 135.642302 440.832866 
L 136.909818 439.720378 
L 137.149961 439.496696 
L 138.65762 438.252734 
L 140.165279 437.144636 
L 140.597841 436.870772 
L 141.672938 436.145861 
L 143.180597 435.274949 
L 144.688256 434.521902 
L 145.853603 434.021166 
L 146.195916 433.865301 
L 147.703575 433.265656 
L 149.211234 432.709044 
L 150.718893 432.179788 
L 152.226552 431.676641 
L 153.734211 431.212975 
L 153.894153 431.17156 
L 155.24187 430.797 
L 156.749529 430.496508 
L 158.257188 430.373372 
L 159.764847 430.499918 
L 161.272506 430.953723 
L 161.684529 431.17156 
L 162.780166 431.732882 
L 164.287825 432.7915 
L 165.767299 434.021166 
L 165.795484 434.04135 
L 167.303143 435.16337 
L 168.810802 436.291881 
L 169.594038 436.870772 
L 170.318461 437.371564 
L 171.82612 438.462137 
L 173.333779 439.67929 
L 173.381102 439.720378 
L 174.841438 441.152055 
L 176.006542 442.569984 
L 176.349097 443.090944 
L 177.628476 445.41959 
L 177.856756 445.989069 
L 178.673176 448.269196 
L 179.353176 451.118802 
L 179.364416 451.194338 
L 179.768403 453.968408 
L 179.928606 456.818014 
L 179.832137 459.66762 
L 179.471013 462.517226 
L 179.364416 462.99067 
L 178.849938 465.366832 
L 177.954745 468.216438 
L 177.856756 468.454992 
L 176.795737 471.066044 
L 176.349097 471.954624 
L 175.358912 473.91565 
L 174.841438 474.783743 
L 173.636405 476.765256 
L 173.333779 477.204277 
L 171.82612 479.331108 
L 171.621534 479.614862 
L 170.318461 481.255088 
L 169.315809 482.464468 
L 168.810802 483.036818 
L 167.303143 484.699156 
L 166.733259 485.314074 
L 165.795484 486.289049 
L 164.287825 487.795361 
L 163.919483 488.163681 
L 162.780166 489.289547 
L 161.272506 490.704348 
L 160.944951 491.013287 
L 159.764847 492.142801 
L 158.257188 493.495826 
L 157.84332 493.862893 
L 156.749529 494.875399 
L 155.24187 496.172513 
L 154.583528 496.712499 
L 153.734211 497.461313 
L 152.226552 498.699769 
L 151.064087 499.562105 
L 150.718893 499.845844 
L 149.211234 501.023567 
L 147.703575 502.047723 
L 147.120741 502.411711 
L 146.195916 503.071615 
L 144.688256 504.027401 
L 143.180597 504.847996 
L 142.317859 505.261317 
L 141.672938 505.625452 
L 140.165279 506.363991 
L 138.65762 506.976583 
L 137.149961 507.478495 
L 135.642302 507.880661 
L 134.518954 508.110923 
L 134.134643 508.206372 
L 132.626984 508.465307 
L 131.119325 508.609233 
L 129.611666 508.635279 
L 128.104006 508.533392 
L 126.596347 508.285222 
z
" clip-path="url(#pd2dcbe38d9)" style="fill: #dbe9f6"/>
    <path d="M 126.596347 508.285222 
L 128.104006 508.533392 
L 129.611666 508.635279 
L 131.119325 508.609233 
L 132.626984 508.465307 
L 134.134643 508.206372 
L 134.518954 508.110923 
L 135.642302 507.880661 
L 137.149961 507.478495 
L 138.65762 506.976583 
L 140.165279 506.363991 
L 141.672938 505.625452 
L 142.317859 505.261317 
L 143.180597 504.847996 
L 144.688256 504.027401 
L 146.195916 503.071615 
L 147.120741 502.411711 
L 147.703575 502.047723 
L 149.211234 501.023567 
L 150.718893 499.845844 
L 151.064087 499.562105 
L 152.226552 498.699769 
L 153.734211 497.461313 
L 154.583528 496.712499 
L 155.24187 496.172513 
L 156.749529 494.875399 
L 157.84332 493.862893 
L 158.257188 493.495826 
L 159.764847 492.142801 
L 160.944951 491.013287 
L 161.272506 490.704348 
L 162.780166 489.289547 
L 163.919483 488.163681 
L 164.287825 487.795361 
L 165.795484 486.289049 
L 166.733259 485.314074 
L 167.303143 484.699156 
L 168.810802 483.036818 
L 169.315809 482.464468 
L 170.318461 481.255088 
L 171.621534 479.614862 
L 171.82612 479.331108 
L 173.333779 477.204277 
L 173.636405 476.765256 
L 174.841438 474.783743 
L 175.358912 473.91565 
L 176.349097 471.954624 
L 176.795737 471.066044 
L 177.856756 468.454992 
L 177.954745 468.216438 
L 178.849938 465.366832 
L 179.364416 462.99067 
L 179.471013 462.517226 
L 179.832137 459.66762 
L 179.928606 456.818014 
L 179.768403 453.968408 
L 179.364416 451.194338 
L 179.353176 451.118802 
L 178.673176 448.269196 
L 177.856756 445.989069 
L 177.628476 445.41959 
L 176.349097 443.090944 
L 176.006542 442.569984 
L 174.841438 441.152055 
L 173.381102 439.720378 
L 173.333779 439.67929 
L 171.82612 438.462137 
L 170.318461 437.371564 
L 169.594038 436.870772 
L 168.810802 436.291881 
L 167.303143 435.16337 
L 165.795484 434.04135 
L 165.767299 434.021166 
L 164.287825 432.7915 
L 162.780166 431.732882 
L 161.684529 431.17156 
L 161.272506 430.953723 
L 159.764847 430.499918 
L 158.257188 430.373372 
L 156.749529 430.496508 
L 155.24187 430.797 
L 153.894153 431.17156 
L 153.734211 431.212975 
L 152.226552 431.676641 
L 150.718893 432.179788 
L 149.211234 432.709044 
L 147.703575 433.265656 
L 146.195916 433.865301 
L 145.853603 434.021166 
L 144.688256 434.521902 
L 143.180597 435.274949 
L 141.672938 436.145861 
L 140.597841 436.870772 
L 140.165279 437.144636 
L 138.65762 438.252734 
L 137.149961 439.496696 
L 136.909818 439.720378 
L 135.642302 440.832866 
L 134.134643 442.292662 
L 133.8729 442.569984 
L 132.626984 443.829452 
L 131.194793 445.41959 
L 131.119325 445.500838 
L 129.611666 447.229706 
L 128.778609 448.269196 
L 128.104006 449.102144 
L 126.596347 451.118802 
L 126.596347 451.118802 
L 125.088688 453.247799 
L 124.611691 453.968408 
L 123.581029 455.584564 
L 122.836618 456.818014 
L 122.07337 458.16399 
L 121.254591 459.66762 
L 120.565711 461.05026 
L 119.852109 462.517226 
L 119.058052 464.352097 
L 118.621408 465.366832 
L 117.561674 468.216438 
L 117.550393 468.251499 
L 116.623697 471.066044 
L 116.042734 473.244665 
L 115.855742 473.91565 
L 115.222031 476.765256 
L 114.75662 479.614862 
L 114.535075 481.72795 
L 114.451099 482.464468 
L 114.317821 485.314074 
L 114.380183 488.163681 
L 114.535075 489.841672 
L 114.642557 491.013287 
L 115.104087 493.862893 
L 115.810056 496.712499 
L 116.042734 497.409331 
L 116.810339 499.562105 
L 117.550393 501.093996 
L 118.283287 502.411711 
L 119.058052 503.508416 
L 120.565711 505.200384 
L 120.631871 505.261317 
L 122.07337 506.410207 
L 123.581029 507.27969 
L 125.088688 507.881148 
L 125.946598 508.110923 
z
M 124.512378 502.411711 
L 123.581029 501.598079 
L 122.07337 499.865772 
L 121.851063 499.562105 
L 120.565711 497.251622 
L 120.30505 496.712499 
L 119.306568 493.862893 
L 119.058052 492.808489 
L 118.647964 491.013287 
L 118.238541 488.163681 
L 118.040347 485.314074 
L 118.037956 482.464468 
L 118.229099 479.614862 
L 118.612115 476.765256 
L 119.058052 474.554851 
L 119.184413 473.91565 
L 119.93817 471.066044 
L 120.565711 469.160951 
L 120.878445 468.216438 
L 122.002914 465.366832 
L 122.07337 465.210898 
L 123.324315 462.517226 
L 123.581029 462.021988 
L 124.855601 459.66762 
L 125.088688 459.270764 
L 126.596347 456.845933 
L 126.614878 456.818014 
L 128.104006 454.689118 
L 128.649408 453.968408 
L 129.611666 452.73184 
L 130.979596 451.118802 
L 131.119325 450.954953 
L 132.626984 449.354229 
L 133.758983 448.269196 
L 134.134643 447.903011 
L 135.642302 446.612614 
L 137.149961 445.472949 
L 137.234559 445.41959 
L 138.65762 444.485101 
L 140.165279 443.6385 
L 141.672938 442.925613 
L 142.566968 442.569984 
L 143.180597 442.31023 
L 144.688256 441.735494 
L 146.195916 441.194642 
L 147.703575 440.676138 
L 149.211234 440.180732 
L 150.718893 439.720378 
L 150.718893 439.720378 
L 152.226552 439.261806 
L 153.734211 438.901711 
L 155.24187 438.680346 
L 156.749529 438.638157 
L 158.257188 438.808355 
L 159.764847 439.205705 
L 161.035827 439.720378 
L 161.272506 439.804701 
L 162.780166 440.490888 
L 164.287825 441.316281 
L 165.795484 442.275982 
L 166.210147 442.569984 
L 167.303143 443.35173 
L 168.810802 444.642412 
L 169.588239 445.41959 
L 170.318461 446.286901 
L 171.708064 448.269196 
L 171.82612 448.497715 
L 173.023023 451.118802 
L 173.333779 452.211708 
L 173.803757 453.968408 
L 174.195081 456.818014 
L 174.263395 459.66762 
L 174.036234 462.517226 
L 173.508117 465.366832 
L 173.333779 465.959722 
L 172.701835 468.216438 
L 171.82612 470.425854 
L 171.582589 471.066044 
L 170.318461 473.607232 
L 170.169794 473.91565 
L 168.810802 476.201292 
L 168.482016 476.765256 
L 167.303143 478.484236 
L 166.531933 479.614862 
L 165.795484 480.57111 
L 164.320621 482.464468 
L 164.287825 482.503166 
L 162.780166 484.338885 
L 161.958876 485.314074 
L 161.272506 486.085853 
L 159.764847 487.747413 
L 159.385682 488.163681 
L 158.257188 489.373125 
L 156.749529 490.882294 
L 156.618442 491.013287 
L 155.24187 492.398324 
L 153.734211 493.766861 
L 153.626229 493.862893 
L 152.226552 495.156006 
L 150.718893 496.393192 
L 150.305449 496.712499 
L 149.211234 497.618306 
L 147.703575 498.732304 
L 146.433944 499.562105 
L 146.195916 499.734159 
L 144.688256 500.730172 
L 143.180597 501.582558 
L 141.672938 502.312605 
L 141.436869 502.411711 
L 140.165279 503.019145 
L 138.65762 503.608321 
L 137.149961 504.074738 
L 135.642302 504.425382 
L 134.134643 504.661845 
L 132.626984 504.779598 
L 131.119325 504.766671 
L 129.611666 504.602131 
L 128.104006 504.254869 
L 126.596347 503.683072 
L 125.088688 502.834114 
z
" clip-path="url(#pd2dcbe38d9)" style="fill: #c8dcf0"/>
    <path d="M 125.088688 502.834114 
L 126.596347 503.683072 
L 128.104006 504.254869 
L 129.611666 504.602131 
L 131.119325 504.766671 
L 132.626984 504.779598 
L 134.134643 504.661845 
L 135.642302 504.425382 
L 137.149961 504.074738 
L 138.65762 503.608321 
L 140.165279 503.019145 
L 141.436869 502.411711 
L 141.672938 502.312605 
L 143.180597 501.582558 
L 144.688256 500.730172 
L 146.195916 499.734159 
L 146.433944 499.562105 
L 147.703575 498.732304 
L 149.211234 497.618306 
L 150.305449 496.712499 
L 150.718893 496.393192 
L 152.226552 495.156006 
L 153.626229 493.862893 
L 153.734211 493.766861 
L 155.24187 492.398324 
L 156.618442 491.013287 
L 156.749529 490.882294 
L 158.257188 489.373125 
L 159.385682 488.163681 
L 159.764847 487.747413 
L 161.272506 486.085853 
L 161.958876 485.314074 
L 162.780166 484.338885 
L 164.287825 482.503166 
L 164.320621 482.464468 
L 165.795484 480.57111 
L 166.531933 479.614862 
L 167.303143 478.484236 
L 168.482016 476.765256 
L 168.810802 476.201292 
L 170.169794 473.91565 
L 170.318461 473.607232 
L 171.582589 471.066044 
L 171.82612 470.425854 
L 172.701835 468.216438 
L 173.333779 465.959722 
L 173.508117 465.366832 
L 174.036234 462.517226 
L 174.263395 459.66762 
L 174.195081 456.818014 
L 173.803757 453.968408 
L 173.333779 452.211708 
L 173.023023 451.118802 
L 171.82612 448.497715 
L 171.708064 448.269196 
L 170.318461 446.286901 
L 169.588239 445.41959 
L 168.810802 444.642412 
L 167.303143 443.35173 
L 166.210147 442.569984 
L 165.795484 442.275982 
L 164.287825 441.316281 
L 162.780166 440.490888 
L 161.272506 439.804701 
L 161.035827 439.720378 
L 159.764847 439.205705 
L 158.257188 438.808355 
L 156.749529 438.638157 
L 155.24187 438.680346 
L 153.734211 438.901711 
L 152.226552 439.261806 
L 150.718893 439.720378 
L 150.718893 439.720378 
L 149.211234 440.180732 
L 147.703575 440.676138 
L 146.195916 441.194642 
L 144.688256 441.735494 
L 143.180597 442.31023 
L 142.566968 442.569984 
L 141.672938 442.925613 
L 140.165279 443.6385 
L 138.65762 444.485101 
L 137.234559 445.41959 
L 137.149961 445.472949 
L 135.642302 446.612614 
L 134.134643 447.903011 
L 133.758983 448.269196 
L 132.626984 449.354229 
L 131.119325 450.954953 
L 130.979596 451.118802 
L 129.611666 452.73184 
L 128.649408 453.968408 
L 128.104006 454.689118 
L 126.614878 456.818014 
L 126.596347 456.845933 
L 125.088688 459.270764 
L 124.855601 459.66762 
L 123.581029 462.021988 
L 123.324315 462.517226 
L 122.07337 465.210898 
L 122.002914 465.366832 
L 120.878445 468.216438 
L 120.565711 469.160951 
L 119.93817 471.066044 
L 119.184413 473.91565 
L 119.058052 474.554851 
L 118.612115 476.765256 
L 118.229099 479.614862 
L 118.037956 482.464468 
L 118.040347 485.314074 
L 118.238541 488.163681 
L 118.647964 491.013287 
L 119.058052 492.808489 
L 119.306568 493.862893 
L 120.30505 496.712499 
L 120.565711 497.251622 
L 121.851063 499.562105 
L 122.07337 499.865772 
L 123.581029 501.598079 
L 124.512378 502.411711 
z
M 127.751659 499.562105 
L 126.596347 498.602968 
L 125.088688 496.880466 
L 124.965237 496.712499 
L 123.581029 494.090221 
L 123.476078 493.862893 
L 122.570507 491.013287 
L 122.07337 488.3602 
L 122.037187 488.163681 
L 121.760478 485.314074 
L 121.702628 482.464468 
L 121.843824 479.614862 
L 122.07337 477.67314 
L 122.181195 476.765256 
L 122.726974 473.91565 
L 123.480799 471.066044 
L 123.581029 470.767936 
L 124.473968 468.216438 
L 125.088688 466.754844 
L 125.707932 465.366832 
L 126.596347 463.6384 
L 127.218017 462.517226 
L 128.104006 461.079474 
L 129.056097 459.66762 
L 129.611666 458.902465 
L 131.119325 457.028654 
L 131.311718 456.818014 
L 132.626984 455.434284 
L 134.134643 454.043089 
L 134.228974 453.968408 
L 135.642302 452.856049 
L 137.149961 451.831708 
L 138.385801 451.118802 
L 138.65762 450.957794 
L 140.165279 450.148708 
L 141.672938 449.417683 
L 143.180597 448.750139 
L 144.338221 448.269196 
L 144.688256 448.112014 
L 146.195916 447.448169 
L 147.703575 446.838142 
L 149.211234 446.295033 
L 150.718893 445.834442 
L 152.226552 445.47516 
L 152.580115 445.41959 
L 153.734211 445.211149 
L 155.24187 445.100894 
L 156.749529 445.167766 
L 158.257188 445.41959 
L 158.257188 445.41959 
L 159.764847 445.813718 
L 161.272506 446.395209 
L 162.780166 447.192328 
L 164.287825 448.251229 
L 164.309223 448.269196 
L 165.795484 449.715752 
L 166.894044 451.118802 
L 167.303143 451.833422 
L 168.327345 453.968408 
L 168.810802 455.715365 
L 169.092646 456.818014 
L 169.396304 459.66762 
L 169.32136 462.517226 
L 168.905934 465.366832 
L 168.810802 465.728893 
L 168.212926 468.216438 
L 167.303143 470.752444 
L 167.198895 471.066044 
L 165.924794 473.91565 
L 165.795484 474.147449 
L 164.388605 476.765256 
L 164.287825 476.922453 
L 162.780166 479.34424 
L 162.615818 479.614862 
L 161.272506 481.541131 
L 160.625444 482.464468 
L 159.764847 483.577426 
L 158.380978 485.314074 
L 158.257188 485.46015 
L 156.749529 487.239317 
L 155.923117 488.163681 
L 155.24187 488.90374 
L 153.734211 490.454906 
L 153.161193 491.013287 
L 152.226552 491.926602 
L 150.718893 493.277193 
L 150.011284 493.862893 
L 149.211234 494.548359 
L 147.703575 495.71817 
L 146.249629 496.712499 
L 146.195916 496.751741 
L 144.688256 497.752465 
L 143.180597 498.607825 
L 141.672938 499.336546 
L 141.119021 499.562105 
L 140.165279 499.987968 
L 138.65762 500.52299 
L 137.149961 500.921804 
L 135.642302 501.183969 
L 134.134643 501.30125 
L 132.626984 501.256096 
L 131.119325 501.019888 
L 129.611666 500.551663 
L 128.104006 499.798014 
z
" clip-path="url(#pd2dcbe38d9)" style="fill: #abd0e6"/>
    <path d="M 128.104006 499.798014 
L 129.611666 500.551663 
L 131.119325 501.019888 
L 132.626984 501.256096 
L 134.134643 501.30125 
L 135.642302 501.183969 
L 137.149961 500.921804 
L 138.65762 500.52299 
L 140.165279 499.987968 
L 141.119021 499.562105 
L 141.672938 499.336546 
L 143.180597 498.607825 
L 144.688256 497.752465 
L 146.195916 496.751741 
L 146.249629 496.712499 
L 147.703575 495.71817 
L 149.211234 494.548359 
L 150.011284 493.862893 
L 150.718893 493.277193 
L 152.226552 491.926602 
L 153.161193 491.013287 
L 153.734211 490.454906 
L 155.24187 488.90374 
L 155.923117 488.163681 
L 156.749529 487.239317 
L 158.257188 485.46015 
L 158.380978 485.314074 
L 159.764847 483.577426 
L 160.625444 482.464468 
L 161.272506 481.541131 
L 162.615818 479.614862 
L 162.780166 479.34424 
L 164.287825 476.922453 
L 164.388605 476.765256 
L 165.795484 474.147449 
L 165.924794 473.91565 
L 167.198895 471.066044 
L 167.303143 470.752444 
L 168.212926 468.216438 
L 168.810802 465.728893 
L 168.905934 465.366832 
L 169.32136 462.517226 
L 169.396304 459.66762 
L 169.092646 456.818014 
L 168.810802 455.715365 
L 168.327345 453.968408 
L 167.303143 451.833422 
L 166.894044 451.118802 
L 165.795484 449.715752 
L 164.309223 448.269196 
L 164.287825 448.251229 
L 162.780166 447.192328 
L 161.272506 446.395209 
L 159.764847 445.813718 
L 158.257188 445.41959 
L 158.257188 445.41959 
L 156.749529 445.167766 
L 155.24187 445.100894 
L 153.734211 445.211149 
L 152.580115 445.41959 
L 152.226552 445.47516 
L 150.718893 445.834442 
L 149.211234 446.295033 
L 147.703575 446.838142 
L 146.195916 447.448169 
L 144.688256 448.112014 
L 144.338221 448.269196 
L 143.180597 448.750139 
L 141.672938 449.417683 
L 140.165279 450.148708 
L 138.65762 450.957794 
L 138.385801 451.118802 
L 137.149961 451.831708 
L 135.642302 452.856049 
L 134.228974 453.968408 
L 134.134643 454.043089 
L 132.626984 455.434284 
L 131.311718 456.818014 
L 131.119325 457.028654 
L 129.611666 458.902465 
L 129.056097 459.66762 
L 128.104006 461.079474 
L 127.218017 462.517226 
L 126.596347 463.6384 
L 125.707932 465.366832 
L 125.088688 466.754844 
L 124.473968 468.216438 
L 123.581029 470.767936 
L 123.480799 471.066044 
L 122.726974 473.91565 
L 122.181195 476.765256 
L 122.07337 477.67314 
L 121.843824 479.614862 
L 121.702628 482.464468 
L 121.760478 485.314074 
L 122.037187 488.163681 
L 122.07337 488.3602 
L 122.570507 491.013287 
L 123.476078 493.862893 
L 123.581029 494.090221 
L 124.965237 496.712499 
L 125.088688 496.880466 
L 126.596347 498.602968 
L 127.751659 499.562105 
z
M 130.0662 496.712499 
L 129.611666 496.366209 
L 128.104006 494.764192 
L 127.45363 493.862893 
L 126.596347 492.057316 
L 126.163902 491.013287 
L 125.464434 488.163681 
L 125.142406 485.314074 
L 125.097719 482.464468 
L 125.285988 479.614862 
L 125.698733 476.765256 
L 126.345917 473.91565 
L 126.596347 473.086189 
L 127.244601 471.066044 
L 128.104006 468.963409 
L 128.435812 468.216438 
L 129.611666 466.000223 
L 129.984877 465.366832 
L 131.119325 463.673309 
L 131.997456 462.517226 
L 132.626984 461.757938 
L 134.134643 460.146953 
L 134.640041 459.66762 
L 135.642302 458.756634 
L 137.149961 457.53924 
L 138.153863 456.818014 
L 138.65762 456.456521 
L 140.165279 455.436818 
L 141.672938 454.526265 
L 142.677262 453.968408 
L 143.180597 453.675844 
L 144.688256 452.85102 
L 146.195916 452.12045 
L 147.703575 451.484197 
L 148.72164 451.118802 
L 149.211234 450.925883 
L 150.718893 450.449475 
L 152.226552 450.112649 
L 153.734211 449.927875 
L 155.24187 449.908845 
L 156.749529 450.071385 
L 158.257188 450.437155 
L 159.764847 451.039842 
L 159.907512 451.118802 
L 161.272506 451.958525 
L 162.780166 453.334895 
L 163.304942 453.968408 
L 164.287825 455.660665 
L 164.818114 456.818014 
L 165.512343 459.66762 
L 165.681862 462.517226 
L 165.458505 465.366832 
L 164.896363 468.216438 
L 164.287825 470.138828 
L 164.017452 471.066044 
L 162.856124 473.91565 
L 162.780166 474.062749 
L 161.439881 476.765256 
L 161.272506 477.044258 
L 159.764847 479.600914 
L 159.756785 479.614862 
L 158.257188 481.846603 
L 157.836462 482.464468 
L 156.749529 483.897525 
L 155.631354 485.314074 
L 155.24187 485.774693 
L 153.734211 487.490934 
L 153.109866 488.163681 
L 152.226552 489.081946 
L 150.718893 490.527827 
L 150.174933 491.013287 
L 149.211234 491.870274 
L 147.703575 493.077321 
L 146.607759 493.862893 
L 146.195916 494.166638 
L 144.688256 495.15249 
L 143.180597 495.996481 
L 141.672938 496.712499 
L 141.672938 496.712499 
L 140.165279 497.324156 
L 138.65762 497.784167 
L 137.149961 498.089821 
L 135.642302 498.228706 
L 134.134643 498.176692 
L 132.626984 497.895526 
L 131.119325 497.331055 
z
" clip-path="url(#pd2dcbe38d9)" style="fill: #85bcdc"/>
    <path d="M 131.119325 497.331055 
L 132.626984 497.895526 
L 134.134643 498.176692 
L 135.642302 498.228706 
L 137.149961 498.089821 
L 138.65762 497.784167 
L 140.165279 497.324156 
L 141.672938 496.712499 
L 141.672938 496.712499 
L 143.180597 495.996481 
L 144.688256 495.15249 
L 146.195916 494.166638 
L 146.607759 493.862893 
L 147.703575 493.077321 
L 149.211234 491.870274 
L 150.174933 491.013287 
L 150.718893 490.527827 
L 152.226552 489.081946 
L 153.109866 488.163681 
L 153.734211 487.490934 
L 155.24187 485.774693 
L 155.631354 485.314074 
L 156.749529 483.897525 
L 157.836462 482.464468 
L 158.257188 481.846603 
L 159.756785 479.614862 
L 159.764847 479.600914 
L 161.272506 477.044258 
L 161.439881 476.765256 
L 162.780166 474.062749 
L 162.856124 473.91565 
L 164.017452 471.066044 
L 164.287825 470.138828 
L 164.896363 468.216438 
L 165.458505 465.366832 
L 165.681862 462.517226 
L 165.512343 459.66762 
L 164.818114 456.818014 
L 164.287825 455.660665 
L 163.304942 453.968408 
L 162.780166 453.334895 
L 161.272506 451.958525 
L 159.907512 451.118802 
L 159.764847 451.039842 
L 158.257188 450.437155 
L 156.749529 450.071385 
L 155.24187 449.908845 
L 153.734211 449.927875 
L 152.226552 450.112649 
L 150.718893 450.449475 
L 149.211234 450.925883 
L 148.72164 451.118802 
L 147.703575 451.484197 
L 146.195916 452.12045 
L 144.688256 452.85102 
L 143.180597 453.675844 
L 142.677262 453.968408 
L 141.672938 454.526265 
L 140.165279 455.436818 
L 138.65762 456.456521 
L 138.153863 456.818014 
L 137.149961 457.53924 
L 135.642302 458.756634 
L 134.640041 459.66762 
L 134.134643 460.146953 
L 132.626984 461.757938 
L 131.997456 462.517226 
L 131.119325 463.673309 
L 129.984877 465.366832 
L 129.611666 466.000223 
L 128.435812 468.216438 
L 128.104006 468.963409 
L 127.244601 471.066044 
L 126.596347 473.086189 
L 126.345917 473.91565 
L 125.698733 476.765256 
L 125.285988 479.614862 
L 125.097719 482.464468 
L 125.142406 485.314074 
L 125.464434 488.163681 
L 126.163902 491.013287 
L 126.596347 492.057316 
L 127.45363 493.862893 
L 128.104006 494.764192 
L 129.611666 496.366209 
L 130.0662 496.712499 
z
M 132.956326 493.862893 
L 132.626984 493.652686 
L 131.119325 492.163929 
L 130.303248 491.013287 
L 129.611666 489.32339 
L 129.208348 488.163681 
L 128.752947 485.314074 
L 128.707615 482.464468 
L 128.986683 479.614862 
L 129.5681 476.765256 
L 129.611666 476.616275 
L 130.431747 473.91565 
L 131.119325 472.242509 
L 131.633043 471.066044 
L 132.626984 469.225421 
L 133.219679 468.216438 
L 134.134643 466.874685 
L 135.280211 465.366832 
L 135.642302 464.935518 
L 137.149961 463.275635 
L 137.915959 462.517226 
L 138.65762 461.818938 
L 140.165279 460.526337 
L 141.289815 459.66762 
L 141.672938 459.377075 
L 143.180597 458.323956 
L 144.688256 457.41053 
L 145.813469 456.818014 
L 146.195916 456.608862 
L 147.703575 455.905471 
L 149.211234 455.347368 
L 150.718893 454.939172 
L 152.226552 454.691956 
L 153.734211 454.624663 
L 155.24187 454.76825 
L 156.749529 455.17346 
L 158.257188 455.922841 
L 159.394239 456.818014 
L 159.764847 457.21511 
L 161.272506 459.66762 
L 161.272506 459.66762 
L 161.967934 462.517226 
L 162.055888 465.366832 
L 161.700803 468.216438 
L 161.272506 469.859137 
L 160.980569 471.066044 
L 159.942977 473.91565 
L 159.764847 474.285818 
L 158.609911 476.765256 
L 158.257188 477.378266 
L 156.979344 479.614862 
L 156.749529 479.957885 
L 155.24187 482.176336 
L 155.042122 482.464468 
L 153.734211 484.133265 
L 152.75935 485.314074 
L 152.226552 485.909841 
L 150.718893 487.489369 
L 150.026255 488.163681 
L 149.211234 488.920972 
L 147.703575 490.188861 
L 146.611934 491.013287 
L 146.195916 491.323167 
L 144.688256 492.303475 
L 143.180597 493.137292 
L 141.672938 493.831085 
L 141.581595 493.862893 
L 140.165279 494.35879 
L 138.65762 494.707638 
L 137.149961 494.859508 
L 135.642302 494.780079 
L 134.134643 494.415658 
z
" clip-path="url(#pd2dcbe38d9)" style="fill: #5da5d1"/>
    <path d="M 134.134643 494.415658 
L 135.642302 494.780079 
L 137.149961 494.859508 
L 138.65762 494.707638 
L 140.165279 494.35879 
L 141.581595 493.862893 
L 141.672938 493.831085 
L 143.180597 493.137292 
L 144.688256 492.303475 
L 146.195916 491.323167 
L 146.611934 491.013287 
L 147.703575 490.188861 
L 149.211234 488.920972 
L 150.026255 488.163681 
L 150.718893 487.489369 
L 152.226552 485.909841 
L 152.75935 485.314074 
L 153.734211 484.133265 
L 155.042122 482.464468 
L 155.24187 482.176336 
L 156.749529 479.957885 
L 156.979344 479.614862 
L 158.257188 477.378266 
L 158.609911 476.765256 
L 159.764847 474.285818 
L 159.942977 473.91565 
L 160.980569 471.066044 
L 161.272506 469.859137 
L 161.700803 468.216438 
L 162.055888 465.366832 
L 161.967934 462.517226 
L 161.272506 459.66762 
L 161.272506 459.66762 
L 159.764847 457.21511 
L 159.394239 456.818014 
L 158.257188 455.922841 
L 156.749529 455.17346 
L 155.24187 454.76825 
L 153.734211 454.624663 
L 152.226552 454.691956 
L 150.718893 454.939172 
L 149.211234 455.347368 
L 147.703575 455.905471 
L 146.195916 456.608862 
L 145.813469 456.818014 
L 144.688256 457.41053 
L 143.180597 458.323956 
L 141.672938 459.377075 
L 141.289815 459.66762 
L 140.165279 460.526337 
L 138.65762 461.818938 
L 137.915959 462.517226 
L 137.149961 463.275635 
L 135.642302 464.935518 
L 135.280211 465.366832 
L 134.134643 466.874685 
L 133.219679 468.216438 
L 132.626984 469.225421 
L 131.633043 471.066044 
L 131.119325 472.242509 
L 130.431747 473.91565 
L 129.611666 476.616275 
L 129.5681 476.765256 
L 128.986683 479.614862 
L 128.707615 482.464468 
L 128.752947 485.314074 
L 129.208348 488.163681 
L 129.611666 489.32339 
L 130.303248 491.013287 
L 131.119325 492.163929 
L 132.626984 493.652686 
L 132.956326 493.862893 
z
M 137.149961 491.013287 
L 137.149961 491.013287 
L 135.642302 490.359576 
L 134.134643 489.004202 
L 133.529914 488.163681 
L 132.626984 485.516738 
L 132.571684 485.314074 
L 132.38638 482.464468 
L 132.626984 480.126268 
L 132.678791 479.614862 
L 133.361267 476.765256 
L 134.134643 474.676298 
L 134.426293 473.91565 
L 135.642302 471.528156 
L 135.892701 471.066044 
L 137.149961 469.153509 
L 137.823341 468.216438 
L 138.65762 467.196201 
L 140.165279 465.543593 
L 140.341755 465.366832 
L 141.672938 464.130806 
L 143.180597 462.91549 
L 143.745271 462.517226 
L 144.688256 461.872087 
L 146.195916 461.00822 
L 147.703575 460.315513 
L 149.211234 459.796785 
L 149.823841 459.66762 
L 150.718893 459.477995 
L 152.226552 459.392048 
L 153.734211 459.580905 
L 153.994599 459.66762 
L 155.24187 460.199036 
L 156.749529 461.490359 
L 157.475217 462.517226 
L 158.257188 464.943505 
L 158.354838 465.366832 
L 158.387209 468.216438 
L 158.257188 468.93572 
L 157.89481 471.066044 
L 156.999041 473.91565 
L 156.749529 474.467051 
L 155.729622 476.765256 
L 155.24187 477.621119 
L 154.098723 479.614862 
L 153.734211 480.142689 
L 152.226552 482.254205 
L 152.069913 482.464468 
L 150.718893 484.028968 
L 149.534451 485.314074 
L 149.211234 485.631976 
L 147.703575 486.973387 
L 146.222707 488.163681 
L 146.195916 488.183893 
L 144.688256 489.149439 
L 143.180597 489.949873 
L 141.672938 490.577013 
L 140.165279 491.004491 
L 140.081826 491.013287 
L 138.65762 491.154139 
z
" clip-path="url(#pd2dcbe38d9)" style="fill: #3989c1"/>
    <path d="M 138.65762 491.154139 
L 140.081826 491.013287 
L 140.165279 491.004491 
L 141.672938 490.577013 
L 143.180597 489.949873 
L 144.688256 489.149439 
L 146.195916 488.183893 
L 146.222707 488.163681 
L 147.703575 486.973387 
L 149.211234 485.631976 
L 149.534451 485.314074 
L 150.718893 484.028968 
L 152.069913 482.464468 
L 152.226552 482.254205 
L 153.734211 480.142689 
L 154.098723 479.614862 
L 155.24187 477.621119 
L 155.729622 476.765256 
L 156.749529 474.467051 
L 156.999041 473.91565 
L 157.89481 471.066044 
L 158.257188 468.93572 
L 158.387209 468.216438 
L 158.354838 465.366832 
L 158.257188 464.943505 
L 157.475217 462.517226 
L 156.749529 461.490359 
L 155.24187 460.199036 
L 153.994599 459.66762 
L 153.734211 459.580905 
L 152.226552 459.392048 
L 150.718893 459.477995 
L 149.823841 459.66762 
L 149.211234 459.796785 
L 147.703575 460.315513 
L 146.195916 461.00822 
L 144.688256 461.872087 
L 143.745271 462.517226 
L 143.180597 462.91549 
L 141.672938 464.130806 
L 140.341755 465.366832 
L 140.165279 465.543593 
L 138.65762 467.196201 
L 137.823341 468.216438 
L 137.149961 469.153509 
L 135.892701 471.066044 
L 135.642302 471.528156 
L 134.426293 473.91565 
L 134.134643 474.676298 
L 133.361267 476.765256 
L 132.678791 479.614862 
L 132.626984 480.126268 
L 132.38638 482.464468 
L 132.571684 485.314074 
L 132.626984 485.516738 
L 133.529914 488.163681 
L 134.134643 489.004202 
L 135.642302 490.359576 
L 137.149961 491.013287 
L 137.149961 491.013287 
z
M 138.021363 485.314074 
L 137.149961 483.693958 
L 136.756964 482.464468 
L 136.776285 479.614862 
L 137.149961 478.017508 
L 137.451101 476.765256 
L 138.65762 473.91565 
L 138.65762 473.91565 
L 140.165279 471.507541 
L 140.468099 471.066044 
L 141.672938 469.646428 
L 143.045941 468.216438 
L 143.180597 468.093956 
L 144.688256 466.946368 
L 146.195916 466.019633 
L 147.618601 465.366832 
L 147.703575 465.331362 
L 149.211234 465.003732 
L 150.718893 465.022138 
L 151.81176 465.366832 
L 152.226552 465.5833 
L 153.734211 467.628423 
L 153.967594 468.216438 
L 154.097655 471.066044 
L 153.734211 472.723199 
L 153.477223 473.91565 
L 152.304248 476.765256 
L 152.226552 476.897626 
L 150.718893 479.388306 
L 150.57647 479.614862 
L 149.211234 481.271167 
L 148.169805 482.464468 
L 147.703575 482.906696 
L 146.195916 484.140451 
L 144.688256 485.219278 
L 144.5078 485.314074 
L 143.180597 485.902299 
L 141.672938 486.291814 
L 140.165279 486.316168 
L 138.65762 485.810659 
z
" clip-path="url(#pd2dcbe38d9)" style="fill: #1966ad"/>
    <path d="M 138.65762 485.810659 
L 140.165279 486.316168 
L 141.672938 486.291814 
L 143.180597 485.902299 
L 144.5078 485.314074 
L 144.688256 485.219278 
L 146.195916 484.140451 
L 147.703575 482.906696 
L 148.169805 482.464468 
L 149.211234 481.271167 
L 150.57647 479.614862 
L 150.718893 479.388306 
L 152.226552 476.897626 
L 152.304248 476.765256 
L 153.477223 473.91565 
L 153.734211 472.723199 
L 154.097655 471.066044 
L 153.967594 468.216438 
L 153.734211 467.628423 
L 152.226552 465.5833 
L 151.81176 465.366832 
L 150.718893 465.022138 
L 149.211234 465.003732 
L 147.703575 465.331362 
L 147.618601 465.366832 
L 146.195916 466.019633 
L 144.688256 466.946368 
L 143.180597 468.093956 
L 143.045941 468.216438 
L 141.672938 469.646428 
L 140.468099 471.066044 
L 140.165279 471.507541 
L 138.65762 473.91565 
L 138.65762 473.91565 
L 137.451101 476.765256 
L 137.149961 478.017508 
L 136.776285 479.614862 
L 136.756964 482.464468 
L 137.149961 483.693958 
L 138.021363 485.314074 
z
" clip-path="url(#pd2dcbe38d9)" style="fill: #084285"/>
   </g>
   <g id="matplotlib.axis_1">
    <g id="xtick_1">
     <g id="line2d_1">
      <defs>
       <path id="me952a1771b" d="M 0 0 
L 0 3.5 
" style="stroke: #000000; stroke-width: 0.8"/>
      </defs>
      <g>
       <use xlink:href="#me952a1771b" x="192.191956" y="499.48" style="stroke: #000000; stroke-width: 0.8"/>
      </g>
     </g>
     <g id="text_1">
      <!-- 5 -->
      <g transform="translate(185.193206 523.196563) scale(0.22 -0.22)">
       <defs>
        <path id="DejaVuSans-35" d="M 691 4666 
L 3169 4666 
L 3169 4134 
L 1269 4134 
L 1269 2991 
Q 1406 3038 1543 3061 
Q 1681 3084 1819 3084 
Q 2600 3084 3056 2656 
Q 3513 2228 3513 1497 
Q 3513 744 3044 326 
Q 2575 -91 1722 -91 
Q 1428 -91 1123 -41 
Q 819 9 494 109 
L 494 744 
Q 775 591 1075 516 
Q 1375 441 1709 441 
Q 2250 441 2565 725 
Q 2881 1009 2881 1497 
Q 2881 1984 2565 2268 
Q 2250 2553 1709 2553 
Q 1456 2553 1204 2497 
Q 953 2441 691 2322 
L 691 4666 
z
" transform="scale(0.015625)"/>
       </defs>
       <use xlink:href="#DejaVuSans-35"/>
      </g>
     </g>
    </g>
    <g id="xtick_2">
     <g id="line2d_2">
      <g>
       <use xlink:href="#me952a1771b" x="326.170996" y="499.48" style="stroke: #000000; stroke-width: 0.8"/>
      </g>
     </g>
     <g id="text_2">
      <!-- 10 -->
      <g transform="translate(312.173496 523.196563) scale(0.22 -0.22)">
       <defs>
        <path id="DejaVuSans-31" d="M 794 531 
L 1825 531 
L 1825 4091 
L 703 3866 
L 703 4441 
L 1819 4666 
L 2450 4666 
L 2450 531 
L 3481 531 
L 3481 0 
L 794 0 
L 794 531 
z
" transform="scale(0.015625)"/>
        <path id="DejaVuSans-30" d="M 2034 4250 
Q 1547 4250 1301 3770 
Q 1056 3291 1056 2328 
Q 1056 1369 1301 889 
Q 1547 409 2034 409 
Q 2525 409 2770 889 
Q 3016 1369 3016 2328 
Q 3016 3291 2770 3770 
Q 2525 4250 2034 4250 
z
M 2034 4750 
Q 2819 4750 3233 4129 
Q 3647 3509 3647 2328 
Q 3647 1150 3233 529 
Q 2819 -91 2034 -91 
Q 1250 -91 836 529 
Q 422 1150 422 2328 
Q 422 3509 836 4129 
Q 1250 4750 2034 4750 
z
" transform="scale(0.015625)"/>
       </defs>
       <use xlink:href="#DejaVuSans-31"/>
       <use xlink:href="#DejaVuSans-30" x="63.623047"/>
      </g>
     </g>
    </g>
    <g id="xtick_3">
     <g id="line2d_3">
      <g>
       <use xlink:href="#me952a1771b" x="460.150036" y="499.48" style="stroke: #000000; stroke-width: 0.8"/>
      </g>
     </g>
     <g id="text_3">
      <!-- 15 -->
      <g transform="translate(446.152536 523.196563) scale(0.22 -0.22)">
       <use xlink:href="#DejaVuSans-31"/>
       <use xlink:href="#DejaVuSans-35" x="63.623047"/>
      </g>
     </g>
    </g>
    <g id="xtick_4">
     <g id="line2d_4">
      <g>
       <use xlink:href="#me952a1771b" x="594.129076" y="499.48" style="stroke: #000000; stroke-width: 0.8"/>
      </g>
     </g>
     <g id="text_4">
      <!-- 20 -->
      <g transform="translate(580.131576 523.196563) scale(0.22 -0.22)">
       <defs>
        <path id="DejaVuSans-32" d="M 1228 531 
L 3431 531 
L 3431 0 
L 469 0 
L 469 531 
Q 828 903 1448 1529 
Q 2069 2156 2228 2338 
Q 2531 2678 2651 2914 
Q 2772 3150 2772 3378 
Q 2772 3750 2511 3984 
Q 2250 4219 1831 4219 
Q 1534 4219 1204 4116 
Q 875 4013 500 3803 
L 500 4441 
Q 881 4594 1212 4672 
Q 1544 4750 1819 4750 
Q 2544 4750 2975 4387 
Q 3406 4025 3406 3419 
Q 3406 3131 3298 2873 
Q 3191 2616 2906 2266 
Q 2828 2175 2409 1742 
Q 1991 1309 1228 531 
z
" transform="scale(0.015625)"/>
       </defs>
       <use xlink:href="#DejaVuSans-32"/>
       <use xlink:href="#DejaVuSans-30" x="63.623047"/>
      </g>
     </g>
    </g>
    <g id="text_5">
     <!-- Force Uncertainties -->
     <g transform="translate(293.911094 548.488438) scale(0.22 -0.22)">
      <defs>
       <path id="DejaVuSans-46" d="M 628 4666 
L 3309 4666 
L 3309 4134 
L 1259 4134 
L 1259 2759 
L 3109 2759 
L 3109 2228 
L 1259 2228 
L 1259 0 
L 628 0 
L 628 4666 
z
" transform="scale(0.015625)"/>
       <path id="DejaVuSans-6f" d="M 1959 3097 
Q 1497 3097 1228 2736 
Q 959 2375 959 1747 
Q 959 1119 1226 758 
Q 1494 397 1959 397 
Q 2419 397 2687 759 
Q 2956 1122 2956 1747 
Q 2956 2369 2687 2733 
Q 2419 3097 1959 3097 
z
M 1959 3584 
Q 2709 3584 3137 3096 
Q 3566 2609 3566 1747 
Q 3566 888 3137 398 
Q 2709 -91 1959 -91 
Q 1206 -91 779 398 
Q 353 888 353 1747 
Q 353 2609 779 3096 
Q 1206 3584 1959 3584 
z
" transform="scale(0.015625)"/>
       <path id="DejaVuSans-72" d="M 2631 2963 
Q 2534 3019 2420 3045 
Q 2306 3072 2169 3072 
Q 1681 3072 1420 2755 
Q 1159 2438 1159 1844 
L 1159 0 
L 581 0 
L 581 3500 
L 1159 3500 
L 1159 2956 
Q 1341 3275 1631 3429 
Q 1922 3584 2338 3584 
Q 2397 3584 2469 3576 
Q 2541 3569 2628 3553 
L 2631 2963 
z
" transform="scale(0.015625)"/>
       <path id="DejaVuSans-63" d="M 3122 3366 
L 3122 2828 
Q 2878 2963 2633 3030 
Q 2388 3097 2138 3097 
Q 1578 3097 1268 2742 
Q 959 2388 959 1747 
Q 959 1106 1268 751 
Q 1578 397 2138 397 
Q 2388 397 2633 464 
Q 2878 531 3122 666 
L 3122 134 
Q 2881 22 2623 -34 
Q 2366 -91 2075 -91 
Q 1284 -91 818 406 
Q 353 903 353 1747 
Q 353 2603 823 3093 
Q 1294 3584 2113 3584 
Q 2378 3584 2631 3529 
Q 2884 3475 3122 3366 
z
" transform="scale(0.015625)"/>
       <path id="DejaVuSans-65" d="M 3597 1894 
L 3597 1613 
L 953 1613 
Q 991 1019 1311 708 
Q 1631 397 2203 397 
Q 2534 397 2845 478 
Q 3156 559 3463 722 
L 3463 178 
Q 3153 47 2828 -22 
Q 2503 -91 2169 -91 
Q 1331 -91 842 396 
Q 353 884 353 1716 
Q 353 2575 817 3079 
Q 1281 3584 2069 3584 
Q 2775 3584 3186 3129 
Q 3597 2675 3597 1894 
z
M 3022 2063 
Q 3016 2534 2758 2815 
Q 2500 3097 2075 3097 
Q 1594 3097 1305 2825 
Q 1016 2553 972 2059 
L 3022 2063 
z
" transform="scale(0.015625)"/>
       <path id="DejaVuSans-20" transform="scale(0.015625)"/>
       <path id="DejaVuSans-55" d="M 556 4666 
L 1191 4666 
L 1191 1831 
Q 1191 1081 1462 751 
Q 1734 422 2344 422 
Q 2950 422 3222 751 
Q 3494 1081 3494 1831 
L 3494 4666 
L 4128 4666 
L 4128 1753 
Q 4128 841 3676 375 
Q 3225 -91 2344 -91 
Q 1459 -91 1007 375 
Q 556 841 556 1753 
L 556 4666 
z
" transform="scale(0.015625)"/>
       <path id="DejaVuSans-6e" d="M 3513 2113 
L 3513 0 
L 2938 0 
L 2938 2094 
Q 2938 2591 2744 2837 
Q 2550 3084 2163 3084 
Q 1697 3084 1428 2787 
Q 1159 2491 1159 1978 
L 1159 0 
L 581 0 
L 581 3500 
L 1159 3500 
L 1159 2956 
Q 1366 3272 1645 3428 
Q 1925 3584 2291 3584 
Q 2894 3584 3203 3211 
Q 3513 2838 3513 2113 
z
" transform="scale(0.015625)"/>
       <path id="DejaVuSans-74" d="M 1172 4494 
L 1172 3500 
L 2356 3500 
L 2356 3053 
L 1172 3053 
L 1172 1153 
Q 1172 725 1289 603 
Q 1406 481 1766 481 
L 2356 481 
L 2356 0 
L 1766 0 
Q 1100 0 847 248 
Q 594 497 594 1153 
L 594 3053 
L 172 3053 
L 172 3500 
L 594 3500 
L 594 4494 
L 1172 4494 
z
" transform="scale(0.015625)"/>
       <path id="DejaVuSans-61" d="M 2194 1759 
Q 1497 1759 1228 1600 
Q 959 1441 959 1056 
Q 959 750 1161 570 
Q 1363 391 1709 391 
Q 2188 391 2477 730 
Q 2766 1069 2766 1631 
L 2766 1759 
L 2194 1759 
z
M 3341 1997 
L 3341 0 
L 2766 0 
L 2766 531 
Q 2569 213 2275 61 
Q 1981 -91 1556 -91 
Q 1019 -91 701 211 
Q 384 513 384 1019 
Q 384 1609 779 1909 
Q 1175 2209 1959 2209 
L 2766 2209 
L 2766 2266 
Q 2766 2663 2505 2880 
Q 2244 3097 1772 3097 
Q 1472 3097 1187 3025 
Q 903 2953 641 2809 
L 641 3341 
Q 956 3463 1253 3523 
Q 1550 3584 1831 3584 
Q 2591 3584 2966 3190 
Q 3341 2797 3341 1997 
z
" transform="scale(0.015625)"/>
       <path id="DejaVuSans-69" d="M 603 3500 
L 1178 3500 
L 1178 0 
L 603 0 
L 603 3500 
z
M 603 4863 
L 1178 4863 
L 1178 4134 
L 603 4134 
L 603 4863 
z
" transform="scale(0.015625)"/>
       <path id="DejaVuSans-73" d="M 2834 3397 
L 2834 2853 
Q 2591 2978 2328 3040 
Q 2066 3103 1784 3103 
Q 1356 3103 1142 2972 
Q 928 2841 928 2578 
Q 928 2378 1081 2264 
Q 1234 2150 1697 2047 
L 1894 2003 
Q 2506 1872 2764 1633 
Q 3022 1394 3022 966 
Q 3022 478 2636 193 
Q 2250 -91 1575 -91 
Q 1294 -91 989 -36 
Q 684 19 347 128 
L 347 722 
Q 666 556 975 473 
Q 1284 391 1588 391 
Q 1994 391 2212 530 
Q 2431 669 2431 922 
Q 2431 1156 2273 1281 
Q 2116 1406 1581 1522 
L 1381 1569 
Q 847 1681 609 1914 
Q 372 2147 372 2553 
Q 372 3047 722 3315 
Q 1072 3584 1716 3584 
Q 2034 3584 2315 3537 
Q 2597 3491 2834 3397 
z
" transform="scale(0.015625)"/>
      </defs>
      <use xlink:href="#DejaVuSans-46"/>
      <use xlink:href="#DejaVuSans-6f" x="53.894531"/>
      <use xlink:href="#DejaVuSans-72" x="115.076172"/>
      <use xlink:href="#DejaVuSans-63" x="153.939453"/>
      <use xlink:href="#DejaVuSans-65" x="208.919922"/>
      <use xlink:href="#DejaVuSans-20" x="270.443359"/>
      <use xlink:href="#DejaVuSans-55" x="302.230469"/>
      <use xlink:href="#DejaVuSans-6e" x="375.423828"/>
      <use xlink:href="#DejaVuSans-63" x="438.802734"/>
      <use xlink:href="#DejaVuSans-65" x="493.783203"/>
      <use xlink:href="#DejaVuSans-72" x="555.306641"/>
      <use xlink:href="#DejaVuSans-74" x="596.419922"/>
      <use xlink:href="#DejaVuSans-61" x="635.628906"/>
      <use xlink:href="#DejaVuSans-69" x="696.908203"/>
      <use xlink:href="#DejaVuSans-6e" x="724.691406"/>
      <use xlink:href="#DejaVuSans-74" x="788.070312"/>
      <use xlink:href="#DejaVuSans-69" x="827.279297"/>
      <use xlink:href="#DejaVuSans-65" x="855.0625"/>
      <use xlink:href="#DejaVuSans-73" x="916.585938"/>
     </g>
    </g>
   </g>
   <g id="matplotlib.axis_2">
    <g id="ytick_1">
     <g id="line2d_5">
      <defs>
       <path id="mb6f962aa9e" d="M 0 0 
L -3.5 0 
" style="stroke: #000000; stroke-width: 0.8"/>
      </defs>
      <g>
       <use xlink:href="#mb6f962aa9e" x="104.69" y="482.984056" style="stroke: #000000; stroke-width: 0.8"/>
      </g>
     </g>
     <g id="text_6">
      <!-- 2.5 -->
      <g transform="translate(62.703125 491.342337) scale(0.22 -0.22)">
       <defs>
        <path id="DejaVuSans-2e" d="M 684 794 
L 1344 794 
L 1344 0 
L 684 0 
L 684 794 
z
" transform="scale(0.015625)"/>
       </defs>
       <use xlink:href="#DejaVuSans-32"/>
       <use xlink:href="#DejaVuSans-2e" x="63.623047"/>
       <use xlink:href="#DejaVuSans-35" x="95.410156"/>
      </g>
     </g>
    </g>
    <g id="ytick_2">
     <g id="line2d_6">
      <g>
       <use xlink:href="#mb6f962aa9e" x="104.69" y="429.111594" style="stroke: #000000; stroke-width: 0.8"/>
      </g>
     </g>
     <g id="text_7">
      <!-- 5.0 -->
      <g transform="translate(62.703125 437.469876) scale(0.22 -0.22)">
       <use xlink:href="#DejaVuSans-35"/>
       <use xlink:href="#DejaVuSans-2e" x="63.623047"/>
       <use xlink:href="#DejaVuSans-30" x="95.410156"/>
      </g>
     </g>
    </g>
    <g id="ytick_3">
     <g id="line2d_7">
      <g>
       <use xlink:href="#mb6f962aa9e" x="104.69" y="375.239133" style="stroke: #000000; stroke-width: 0.8"/>
      </g>
     </g>
     <g id="text_8">
      <!-- 7.5 -->
      <g transform="translate(62.703125 383.597414) scale(0.22 -0.22)">
       <defs>
        <path id="DejaVuSans-37" d="M 525 4666 
L 3525 4666 
L 3525 4397 
L 1831 0 
L 1172 0 
L 2766 4134 
L 525 4134 
L 525 4666 
z
" transform="scale(0.015625)"/>
       </defs>
       <use xlink:href="#DejaVuSans-37"/>
       <use xlink:href="#DejaVuSans-2e" x="63.623047"/>
       <use xlink:href="#DejaVuSans-35" x="95.410156"/>
      </g>
     </g>
    </g>
    <g id="ytick_4">
     <g id="line2d_8">
      <g>
       <use xlink:href="#mb6f962aa9e" x="104.69" y="321.366672" style="stroke: #000000; stroke-width: 0.8"/>
      </g>
     </g>
     <g id="text_9">
      <!-- 10.0 -->
      <g transform="translate(48.705625 329.724953) scale(0.22 -0.22)">
       <use xlink:href="#DejaVuSans-31"/>
       <use xlink:href="#DejaVuSans-30" x="63.623047"/>
       <use xlink:href="#DejaVuSans-2e" x="127.246094"/>
       <use xlink:href="#DejaVuSans-30" x="159.033203"/>
      </g>
     </g>
    </g>
    <g id="ytick_5">
     <g id="line2d_9">
      <g>
       <use xlink:href="#mb6f962aa9e" x="104.69" y="267.494211" style="stroke: #000000; stroke-width: 0.8"/>
      </g>
     </g>
     <g id="text_10">
      <!-- 12.5 -->
      <g transform="translate(48.705625 275.852492) scale(0.22 -0.22)">
       <use xlink:href="#DejaVuSans-31"/>
       <use xlink:href="#DejaVuSans-32" x="63.623047"/>
       <use xlink:href="#DejaVuSans-2e" x="127.246094"/>
       <use xlink:href="#DejaVuSans-35" x="159.033203"/>
      </g>
     </g>
    </g>
    <g id="ytick_6">
     <g id="line2d_10">
      <g>
       <use xlink:href="#mb6f962aa9e" x="104.69" y="213.621749" style="stroke: #000000; stroke-width: 0.8"/>
      </g>
     </g>
     <g id="text_11">
      <!-- 15.0 -->
      <g transform="translate(48.705625 221.980031) scale(0.22 -0.22)">
       <use xlink:href="#DejaVuSans-31"/>
       <use xlink:href="#DejaVuSans-35" x="63.623047"/>
       <use xlink:href="#DejaVuSans-2e" x="127.246094"/>
       <use xlink:href="#DejaVuSans-30" x="159.033203"/>
      </g>
     </g>
    </g>
    <g id="ytick_7">
     <g id="line2d_11">
      <g>
       <use xlink:href="#mb6f962aa9e" x="104.69" y="159.749288" style="stroke: #000000; stroke-width: 0.8"/>
      </g>
     </g>
     <g id="text_12">
      <!-- 17.5 -->
      <g transform="translate(48.705625 168.107569) scale(0.22 -0.22)">
       <use xlink:href="#DejaVuSans-31"/>
       <use xlink:href="#DejaVuSans-37" x="63.623047"/>
       <use xlink:href="#DejaVuSans-2e" x="127.246094"/>
       <use xlink:href="#DejaVuSans-35" x="159.033203"/>
      </g>
     </g>
    </g>
    <g id="ytick_8">
     <g id="line2d_12">
      <g>
       <use xlink:href="#mb6f962aa9e" x="104.69" y="105.876827" style="stroke: #000000; stroke-width: 0.8"/>
      </g>
     </g>
     <g id="text_13">
      <!-- 20.0 -->
      <g transform="translate(48.705625 114.235108) scale(0.22 -0.22)">
       <use xlink:href="#DejaVuSans-32"/>
       <use xlink:href="#DejaVuSans-30" x="63.623047"/>
       <use xlink:href="#DejaVuSans-2e" x="127.246094"/>
       <use xlink:href="#DejaVuSans-30" x="159.033203"/>
      </g>
     </g>
    </g>
    <g id="ytick_9">
     <g id="line2d_13">
      <g>
       <use xlink:href="#mb6f962aa9e" x="104.69" y="52.004366" style="stroke: #000000; stroke-width: 0.8"/>
      </g>
     </g>
     <g id="text_14">
      <!-- 22.5 -->
      <g transform="translate(48.705625 60.362647) scale(0.22 -0.22)">
       <use xlink:href="#DejaVuSans-32"/>
       <use xlink:href="#DejaVuSans-32" x="63.623047"/>
       <use xlink:href="#DejaVuSans-2e" x="127.246094"/>
       <use xlink:href="#DejaVuSans-35" x="159.033203"/>
      </g>
     </g>
    </g>
    <g id="text_15">
     <!-- Force Errors [kJ/(mol*A)] -->
     <g transform="translate(40.130313 394.9125) rotate(-90) scale(0.22 -0.22)">
      <defs>
       <path id="DejaVuSans-45" d="M 628 4666 
L 3578 4666 
L 3578 4134 
L 1259 4134 
L 1259 2753 
L 3481 2753 
L 3481 2222 
L 1259 2222 
L 1259 531 
L 3634 531 
L 3634 0 
L 628 0 
L 628 4666 
z
" transform="scale(0.015625)"/>
       <path id="DejaVuSans-5b" d="M 550 4863 
L 1875 4863 
L 1875 4416 
L 1125 4416 
L 1125 -397 
L 1875 -397 
L 1875 -844 
L 550 -844 
L 550 4863 
z
" transform="scale(0.015625)"/>
       <path id="DejaVuSans-6b" d="M 581 4863 
L 1159 4863 
L 1159 1991 
L 2875 3500 
L 3609 3500 
L 1753 1863 
L 3688 0 
L 2938 0 
L 1159 1709 
L 1159 0 
L 581 0 
L 581 4863 
z
" transform="scale(0.015625)"/>
       <path id="DejaVuSans-4a" d="M 628 4666 
L 1259 4666 
L 1259 325 
Q 1259 -519 939 -900 
Q 619 -1281 -91 -1281 
L -331 -1281 
L -331 -750 
L -134 -750 
Q 284 -750 456 -515 
Q 628 -281 628 325 
L 628 4666 
z
" transform="scale(0.015625)"/>
       <path id="DejaVuSans-2f" d="M 1625 4666 
L 2156 4666 
L 531 -594 
L 0 -594 
L 1625 4666 
z
" transform="scale(0.015625)"/>
       <path id="DejaVuSans-28" d="M 1984 4856 
Q 1566 4138 1362 3434 
Q 1159 2731 1159 2009 
Q 1159 1288 1364 580 
Q 1569 -128 1984 -844 
L 1484 -844 
Q 1016 -109 783 600 
Q 550 1309 550 2009 
Q 550 2706 781 3412 
Q 1013 4119 1484 4856 
L 1984 4856 
z
" transform="scale(0.015625)"/>
       <path id="DejaVuSans-6d" d="M 3328 2828 
Q 3544 3216 3844 3400 
Q 4144 3584 4550 3584 
Q 5097 3584 5394 3201 
Q 5691 2819 5691 2113 
L 5691 0 
L 5113 0 
L 5113 2094 
Q 5113 2597 4934 2840 
Q 4756 3084 4391 3084 
Q 3944 3084 3684 2787 
Q 3425 2491 3425 1978 
L 3425 0 
L 2847 0 
L 2847 2094 
Q 2847 2600 2669 2842 
Q 2491 3084 2119 3084 
Q 1678 3084 1418 2786 
Q 1159 2488 1159 1978 
L 1159 0 
L 581 0 
L 581 3500 
L 1159 3500 
L 1159 2956 
Q 1356 3278 1631 3431 
Q 1906 3584 2284 3584 
Q 2666 3584 2933 3390 
Q 3200 3197 3328 2828 
z
" transform="scale(0.015625)"/>
       <path id="DejaVuSans-6c" d="M 603 4863 
L 1178 4863 
L 1178 0 
L 603 0 
L 603 4863 
z
" transform="scale(0.015625)"/>
       <path id="DejaVuSans-2a" d="M 3009 3897 
L 1888 3291 
L 3009 2681 
L 2828 2375 
L 1778 3009 
L 1778 1831 
L 1422 1831 
L 1422 3009 
L 372 2375 
L 191 2681 
L 1313 3291 
L 191 3897 
L 372 4206 
L 1422 3572 
L 1422 4750 
L 1778 4750 
L 1778 3572 
L 2828 4206 
L 3009 3897 
z
" transform="scale(0.015625)"/>
       <path id="DejaVuSans-41" d="M 2188 4044 
L 1331 1722 
L 3047 1722 
L 2188 4044 
z
M 1831 4666 
L 2547 4666 
L 4325 0 
L 3669 0 
L 3244 1197 
L 1141 1197 
L 716 0 
L 50 0 
L 1831 4666 
z
" transform="scale(0.015625)"/>
       <path id="DejaVuSans-29" d="M 513 4856 
L 1013 4856 
Q 1481 4119 1714 3412 
Q 1947 2706 1947 2009 
Q 1947 1309 1714 600 
Q 1481 -109 1013 -844 
L 513 -844 
Q 928 -128 1133 580 
Q 1338 1288 1338 2009 
Q 1338 2731 1133 3434 
Q 928 4138 513 4856 
z
" transform="scale(0.015625)"/>
       <path id="DejaVuSans-5d" d="M 1947 4863 
L 1947 -844 
L 622 -844 
L 622 -397 
L 1369 -397 
L 1369 4416 
L 622 4416 
L 622 4863 
L 1947 4863 
z
" transform="scale(0.015625)"/>
      </defs>
      <use xlink:href="#DejaVuSans-46"/>
      <use xlink:href="#DejaVuSans-6f" x="53.894531"/>
      <use xlink:href="#DejaVuSans-72" x="115.076172"/>
      <use xlink:href="#DejaVuSans-63" x="153.939453"/>
      <use xlink:href="#DejaVuSans-65" x="208.919922"/>
      <use xlink:href="#DejaVuSans-20" x="270.443359"/>
      <use xlink:href="#DejaVuSans-45" x="302.230469"/>
      <use xlink:href="#DejaVuSans-72" x="365.414062"/>
      <use xlink:href="#DejaVuSans-72" x="404.777344"/>
      <use xlink:href="#DejaVuSans-6f" x="443.640625"/>
      <use xlink:href="#DejaVuSans-72" x="504.822266"/>
      <use xlink:href="#DejaVuSans-73" x="545.935547"/>
      <use xlink:href="#DejaVuSans-20" x="598.035156"/>
      <use xlink:href="#DejaVuSans-5b" x="629.822266"/>
      <use xlink:href="#DejaVuSans-6b" x="668.835938"/>
      <use xlink:href="#DejaVuSans-4a" x="726.746094"/>
      <use xlink:href="#DejaVuSans-2f" x="756.238281"/>
      <use xlink:href="#DejaVuSans-28" x="789.929688"/>
      <use xlink:href="#DejaVuSans-6d" x="828.943359"/>
      <use xlink:href="#DejaVuSans-6f" x="926.355469"/>
      <use xlink:href="#DejaVuSans-6c" x="987.537109"/>
      <use xlink:href="#DejaVuSans-2a" x="1015.320312"/>
      <use xlink:href="#DejaVuSans-41" x="1065.320312"/>
      <use xlink:href="#DejaVuSans-29" x="1133.728516"/>
      <use xlink:href="#DejaVuSans-5d" x="1172.742188"/>
     </g>
    </g>
   </g>
   <g id="line2d_14">
    <path d="M 104.69 499.48 
L 696.24 23.76 
" clip-path="url(#pd2dcbe38d9)" style="fill: none; stroke-dasharray: 5.55,2.4; stroke-dashoffset: 0; stroke: #ff0000; stroke-width: 1.5"/>
   </g>
   <g id="patch_3">
    <path d="M 104.69 499.48 
L 104.69 23.76 
" style="fill: none; stroke: #000000; stroke-width: 0.8; stroke-linejoin: miter; stroke-linecap: square"/>
   </g>
   <g id="patch_4">
    <path d="M 696.24 499.48 
L 696.24 23.76 
" style="fill: none; stroke: #000000; stroke-width: 0.8; stroke-linejoin: miter; stroke-linecap: square"/>
   </g>
   <g id="patch_5">
    <path d="M 104.69 499.48 
L 696.24 499.48 
" style="fill: none; stroke: #000000; stroke-width: 0.8; stroke-linejoin: miter; stroke-linecap: square"/>
   </g>
   <g id="patch_6">
    <path d="M 104.69 23.76 
L 696.24 23.76 
" style="fill: none; stroke: #000000; stroke-width: 0.8; stroke-linejoin: miter; stroke-linecap: square"/>
   </g>
   <g id="text_16">
    <!-- Correlation in: 0.695 -->
    <g transform="translate(163.845 71.332) scale(0.22 -0.22)">
     <defs>
      <path id="DejaVuSans-43" d="M 4122 4306 
L 4122 3641 
Q 3803 3938 3442 4084 
Q 3081 4231 2675 4231 
Q 1875 4231 1450 3742 
Q 1025 3253 1025 2328 
Q 1025 1406 1450 917 
Q 1875 428 2675 428 
Q 3081 428 3442 575 
Q 3803 722 4122 1019 
L 4122 359 
Q 3791 134 3420 21 
Q 3050 -91 2638 -91 
Q 1578 -91 968 557 
Q 359 1206 359 2328 
Q 359 3453 968 4101 
Q 1578 4750 2638 4750 
Q 3056 4750 3426 4639 
Q 3797 4528 4122 4306 
z
" transform="scale(0.015625)"/>
      <path id="DejaVuSans-3a" d="M 750 794 
L 1409 794 
L 1409 0 
L 750 0 
L 750 794 
z
M 750 3309 
L 1409 3309 
L 1409 2516 
L 750 2516 
L 750 3309 
z
" transform="scale(0.015625)"/>
      <path id="DejaVuSans-36" d="M 2113 2584 
Q 1688 2584 1439 2293 
Q 1191 2003 1191 1497 
Q 1191 994 1439 701 
Q 1688 409 2113 409 
Q 2538 409 2786 701 
Q 3034 994 3034 1497 
Q 3034 2003 2786 2293 
Q 2538 2584 2113 2584 
z
M 3366 4563 
L 3366 3988 
Q 3128 4100 2886 4159 
Q 2644 4219 2406 4219 
Q 1781 4219 1451 3797 
Q 1122 3375 1075 2522 
Q 1259 2794 1537 2939 
Q 1816 3084 2150 3084 
Q 2853 3084 3261 2657 
Q 3669 2231 3669 1497 
Q 3669 778 3244 343 
Q 2819 -91 2113 -91 
Q 1303 -91 875 529 
Q 447 1150 447 2328 
Q 447 3434 972 4092 
Q 1497 4750 2381 4750 
Q 2619 4750 2861 4703 
Q 3103 4656 3366 4563 
z
" transform="scale(0.015625)"/>
      <path id="DejaVuSans-39" d="M 703 97 
L 703 672 
Q 941 559 1184 500 
Q 1428 441 1663 441 
Q 2288 441 2617 861 
Q 2947 1281 2994 2138 
Q 2813 1869 2534 1725 
Q 2256 1581 1919 1581 
Q 1219 1581 811 2004 
Q 403 2428 403 3163 
Q 403 3881 828 4315 
Q 1253 4750 1959 4750 
Q 2769 4750 3195 4129 
Q 3622 3509 3622 2328 
Q 3622 1225 3098 567 
Q 2575 -91 1691 -91 
Q 1453 -91 1209 -44 
Q 966 3 703 97 
z
M 1959 2075 
Q 2384 2075 2632 2365 
Q 2881 2656 2881 3163 
Q 2881 3666 2632 3958 
Q 2384 4250 1959 4250 
Q 1534 4250 1286 3958 
Q 1038 3666 1038 3163 
Q 1038 2656 1286 2365 
Q 1534 2075 1959 2075 
z
" transform="scale(0.015625)"/>
     </defs>
     <use xlink:href="#DejaVuSans-43"/>
     <use xlink:href="#DejaVuSans-6f" x="69.824219"/>
     <use xlink:href="#DejaVuSans-72" x="131.005859"/>
     <use xlink:href="#DejaVuSans-72" x="170.369141"/>
     <use xlink:href="#DejaVuSans-65" x="209.232422"/>
     <use xlink:href="#DejaVuSans-6c" x="270.755859"/>
     <use xlink:href="#DejaVuSans-61" x="298.539062"/>
     <use xlink:href="#DejaVuSans-74" x="359.818359"/>
     <use xlink:href="#DejaVuSans-69" x="399.027344"/>
     <use xlink:href="#DejaVuSans-6f" x="426.810547"/>
     <use xlink:href="#DejaVuSans-6e" x="487.992188"/>
     <use xlink:href="#DejaVuSans-20" x="551.371094"/>
     <use xlink:href="#DejaVuSans-69" x="583.158203"/>
     <use xlink:href="#DejaVuSans-6e" x="610.941406"/>
     <use xlink:href="#DejaVuSans-3a" x="674.320312"/>
     <use xlink:href="#DejaVuSans-20" x="708.011719"/>
     <use xlink:href="#DejaVuSans-30" x="739.798828"/>
     <use xlink:href="#DejaVuSans-2e" x="803.421875"/>
     <use xlink:href="#DejaVuSans-36" x="835.208984"/>
     <use xlink:href="#DejaVuSans-39" x="898.832031"/>
     <use xlink:href="#DejaVuSans-35" x="962.455078"/>
    </g>
   </g>
  </g>
 </g>
 <defs>
  <clipPath id="pd2dcbe38d9">
   <rect x="104.69" y="23.76" width="591.55" height="475.72"/>
  </clipPath>
 </defs>
</svg>
