<?xml version="1.0" encoding="utf-8" standalone="no"?>
<!DOCTYPE svg PUBLIC "-//W3C//DTD SVG 1.1//EN"
  "http://www.w3.org/Graphics/SVG/1.1/DTD/svg11.dtd">
<svg xmlns:xlink="http://www.w3.org/1999/xlink" width="720pt" height="576pt" viewBox="0 0 720 576" xmlns="http://www.w3.org/2000/svg" version="1.1">
 <metadata>
  <rdf:RDF xmlns:dc="http://purl.org/dc/elements/1.1/" xmlns:cc="http://creativecommons.org/ns#" xmlns:rdf="http://www.w3.org/1999/02/22-rdf-syntax-ns#">
   <cc:Work>
    <dc:type rdf:resource="http://purl.org/dc/dcmitype/StillImage"/>
    <dc:date>2024-12-08T10:32:04.407769</dc:date>
    <dc:format>image/svg+xml</dc:format>
    <dc:creator>
     <cc:Agent>
      <dc:title>Matplotlib v3.8.4, https://matplotlib.org/</dc:title>
     </cc:Agent>
    </dc:creator>
   </cc:Work>
  </rdf:RDF>
 </metadata>
 <defs>
  <style type="text/css">*{stroke-linejoin: round; stroke-linecap: butt}</style>
 </defs>
 <g id="figure_1">
  <g id="patch_1">
   <path d="M 0 576 
L 720 576 
L 720 0 
L 0 0 
z
" style="fill: #ffffff"/>
  </g>
  <g id="axes_1">
   <g id="patch_2">
    <path d="M 104.69 499.48 
L 695.153053 499.48 
L 695.153053 23.76 
L 104.69 23.76 
z
" style="fill: #ffffff"/>
   </g>
   <g id="QuadContourSet_1">
    <path d="M 135.554223 521.08408 
L 137.239146 521.313873 
L 138.924068 521.506401 
L 140.60899 521.658311 
L 142.293912 521.76698 
L 143.978834 521.830568 
L 145.663756 521.84789 
L 147.348678 521.818177 
L 149.0336 521.74075 
L 150.718522 521.61464 
L 152.403444 521.438186 
L 154.088366 521.208593 
L 155.624885 520.947484 
L 155.773288 520.929568 
L 157.45821 520.688536 
L 159.143132 520.399399 
L 160.828054 520.055031 
L 162.512976 519.646155 
L 164.197898 519.160944 
L 165.88282 518.584576 
L 167.068812 518.113304 
L 167.567742 517.965637 
L 169.252664 517.408329 
L 170.937586 516.753437 
L 172.622508 515.984983 
L 173.977358 515.279124 
L 174.30743 515.146108 
L 175.992352 514.431589 
L 177.677274 513.627859 
L 179.362196 512.745244 
L 179.948468 512.444944 
L 181.047118 511.997978 
L 182.73204 511.339944 
L 184.416962 510.731763 
L 186.101884 510.231145 
L 187.786806 509.889595 
L 189.471728 509.732227 
L 191.15665 509.745093 
L 192.841572 509.879439 
L 194.526494 510.069751 
L 196.211416 510.25316 
L 197.896338 510.380625 
L 199.58126 510.418725 
L 201.266182 510.345961 
L 202.951104 510.147514 
L 204.636026 509.810552 
L 205.339132 509.610763 
L 206.320948 509.388159 
L 208.00587 508.886047 
L 209.690792 508.243381 
L 211.375714 507.438974 
L 212.531884 506.776583 
L 213.060636 506.520251 
L 214.745558 505.588184 
L 216.43048 504.464478 
L 217.128471 503.942403 
L 218.115402 503.292719 
L 219.800324 502.033979 
L 220.891077 501.108223 
L 221.485246 500.652063 
L 223.170168 499.245622 
L 224.209012 498.274043 
L 224.85509 497.71607 
L 226.540012 496.141908 
L 227.233609 495.439863 
L 228.224934 494.498594 
L 229.909856 492.721785 
L 230.016632 492.605682 
L 231.594778 490.973156 
L 232.646266 489.771502 
L 233.2797 489.06952 
L 234.964622 487.05291 
L 235.058231 486.937322 
L 236.649544 484.995508 
L 237.328793 484.103142 
L 238.334466 482.763735 
L 239.392723 481.268962 
L 240.019388 480.344469 
L 241.260303 478.434782 
L 241.70431 477.695981 
L 242.93428 475.600602 
L 243.389232 474.728501 
L 244.410502 472.766421 
L 245.074154 471.264727 
L 245.676026 469.932241 
L 246.711894 467.098061 
L 246.759076 466.935253 
L 247.587845 464.263881 
L 248.210329 461.429701 
L 248.443998 459.761956 
L 248.627719 458.595521 
L 248.827805 455.76134 
L 248.777301 452.92716 
L 248.455313 450.09298 
L 248.443998 450.037336 
L 247.861539 447.2588 
L 246.895485 444.42462 
L 246.759076 444.115651 
L 245.480443 441.59044 
L 245.074154 440.938517 
L 243.418909 438.75626 
L 243.389232 438.720867 
L 241.70431 436.990255 
L 240.3952 435.922079 
L 240.019388 435.608919 
L 238.334466 434.349297 
L 236.649544 433.221265 
L 236.450475 433.087899 
L 234.964622 431.956784 
L 233.2797 430.643636 
L 232.813848 430.253719 
L 231.594778 429.077387 
L 229.911391 427.419539 
L 229.909856 427.417831 
L 228.224934 425.524272 
L 227.329813 424.585359 
L 226.540012 423.708908 
L 224.85509 422.048522 
L 224.523409 421.751179 
L 223.170168 420.479391 
L 221.485246 419.134596 
L 221.195809 418.916998 
L 219.800324 417.746284 
L 218.115402 416.442553 
L 217.654669 416.082818 
L 216.43048 414.901511 
L 214.745558 413.281493 
L 214.713381 413.248638 
L 213.060636 410.937382 
L 212.686814 410.414458 
L 211.375714 407.608576 
L 211.361812 407.580278 
L 210.682108 404.746098 
L 210.566486 401.911918 
L 211.091196 399.077737 
L 211.375714 398.281671 
L 212.391034 396.243557 
L 213.060636 395.194283 
L 214.573529 393.409377 
L 214.745558 393.183236 
L 216.43048 391.114798 
L 216.881013 390.575197 
L 218.115402 388.59884 
L 218.642986 387.741017 
L 219.541732 384.906837 
L 218.115402 382.690457 
L 216.43048 383.298817 
L 214.745558 384.395961 
L 214.124723 384.906837 
L 213.060636 386.027929 
L 211.375714 387.566594 
L 211.184757 387.741017 
L 209.690792 389.382102 
L 208.07621 390.575197 
L 208.00587 390.63375 
L 206.320948 391.796124 
L 204.636026 392.477511 
L 202.951104 392.873775 
L 201.266182 393.034441 
L 199.58126 392.956952 
L 197.896338 392.612223 
L 196.211416 391.956601 
L 194.526494 390.944257 
L 194.090807 390.575197 
L 192.841572 389.434392 
L 191.392688 387.741017 
L 191.15665 387.448625 
L 189.471728 385.056988 
L 189.371304 384.906837 
L 187.786806 382.620613 
L 187.373962 382.072657 
L 186.101884 380.508727 
L 184.812758 379.238476 
L 184.416962 378.873117 
L 182.73204 377.660105 
L 181.047118 376.835566 
L 179.69901 376.404296 
L 179.362196 376.289438 
L 177.677274 375.90745 
L 175.992352 375.662558 
L 174.30743 375.481968 
L 172.622508 375.293896 
L 170.937586 375.024569 
L 169.252664 374.597324 
L 167.567742 373.934494 
L 166.911812 373.570116 
L 165.88282 372.711487 
L 164.197898 370.79031 
L 164.159209 370.735936 
L 163.049642 367.901756 
L 162.734668 365.067576 
L 163.028661 362.233395 
L 163.778254 359.399215 
L 164.197898 358.23599 
L 164.841048 356.565035 
L 165.88282 354.014947 
L 166.005982 353.730855 
L 167.006633 350.896675 
L 167.567742 348.062495 
L 167.276083 345.228315 
L 165.88282 343.062688 
L 165.140069 342.394134 
L 164.197898 341.930151 
L 162.512976 341.573519 
L 160.828054 341.636851 
L 159.143132 342.035009 
L 158.264751 342.394134 
L 157.45821 342.753222 
L 155.773288 343.724744 
L 154.088366 344.817888 
L 153.528338 345.228315 
L 152.403444 346.071781 
L 150.718522 347.358378 
L 149.818255 348.062495 
L 149.0336 348.66501 
L 147.348678 349.950442 
L 146.098958 350.896675 
L 145.663756 351.210829 
L 143.978834 352.451638 
L 142.293912 353.70901 
L 142.266493 353.730855 
L 140.60899 354.981139 
L 138.924068 356.340404 
L 138.66956 356.565035 
L 137.239146 357.777365 
L 135.554223 359.378795 
L 135.534682 359.399215 
L 133.869301 361.107114 
L 132.89896 362.233395 
L 132.184379 363.058943 
L 130.639106 365.067576 
L 130.499457 365.250526 
L 128.814535 367.683721 
L 128.675292 367.901756 
L 127.129613 370.39001 
L 126.928921 370.735936 
L 125.444691 373.384881 
L 125.345741 373.570116 
L 123.877515 376.404296 
L 123.759769 376.638319 
L 122.48282 379.238476 
L 122.074847 380.096926 
L 121.140766 382.072657 
L 120.389925 383.701311 
L 119.828277 384.906837 
L 118.705003 387.350659 
L 118.521676 387.741017 
L 117.180732 390.575197 
L 117.020081 390.90829 
L 115.786573 393.409377 
L 115.335159 394.311335 
L 114.350096 396.243557 
L 113.650237 397.603978 
L 112.883586 399.077737 
L 111.965315 400.855915 
L 111.417823 401.911918 
L 110.280393 404.180232 
L 109.996445 404.746098 
L 108.660919 407.580278 
L 108.595471 407.73029 
L 107.420934 410.414458 
L 106.910549 411.758401 
L 106.334105 413.248638 
L 105.417538 416.082818 
L 105.225627 416.809551 
L 104.641232 418.916998 
L 104.043529 421.751179 
L 103.617327 424.585359 
L 103.540705 425.356621 
L 103.314859 427.419539 
L 103.132745 430.253719 
L 103.030266 433.087899 
L 102.94224 435.922079 
L 102.792872 438.75626 
L 102.515559 441.59044 
L 102.079863 444.42462 
L 101.855783 445.472494 
L 101.447877 447.2588 
L 100.678461 450.09298 
L 100.170861 451.840265 
L 99.83666 452.92716 
L 98.954252 455.76134 
L 98.485939 457.385224 
L 98.112666 458.595521 
L 97.324083 461.429701 
L 96.801017 463.702646 
L 96.658843 464.263881 
L 96.041202 467.098061 
L 95.56498 469.932241 
L 95.207128 472.766421 
L 95.116095 473.725115 
L 94.905962 475.600602 
L 94.686434 478.434782 
L 94.560422 481.268962 
L 94.525043 484.103142 
L 94.585654 486.937322 
L 94.756774 489.771502 
L 95.063873 492.605682 
L 95.116095 492.93443 
L 95.470521 495.439863 
L 96.068532 498.274043 
L 96.801017 500.688725 
L 96.925897 501.108223 
L 98.029861 503.942403 
L 98.485939 504.856396 
L 99.533577 506.776583 
L 100.170861 507.750552 
L 101.602362 509.610763 
L 101.855783 509.909334 
L 103.540705 511.635059 
L 104.544336 512.444944 
L 105.225627 512.998893 
L 106.910549 514.14395 
L 108.595471 515.023144 
L 109.183399 515.279124 
L 110.280393 515.820745 
L 111.965315 516.511305 
L 113.650237 517.071228 
L 115.335159 517.532606 
L 117.020081 517.919533 
L 117.981885 518.113304 
L 118.705003 518.299753 
L 120.389925 518.694476 
L 122.074847 519.04728 
L 123.759769 519.367601 
L 125.444691 519.662352 
L 127.129613 519.93633 
L 128.814535 520.192468 
L 130.499457 520.43201 
L 132.184379 520.654706 
L 133.869301 520.859089 
L 134.666425 520.947484 
z
M 127.129613 509.610763 
L 127.129613 509.610763 
L 125.444691 509.236188 
L 123.759769 508.812644 
L 122.074847 508.327683 
L 120.389925 507.764961 
L 118.705003 507.103095 
L 117.974339 506.776583 
L 117.020081 506.378258 
L 115.335159 505.547255 
L 113.650237 504.514612 
L 112.858869 503.942403 
L 111.965315 503.271496 
L 110.280393 501.723584 
L 109.712984 501.108223 
L 108.595471 499.713803 
L 107.620715 498.274043 
L 106.910549 496.953359 
L 106.17742 495.439863 
L 105.225627 492.693217 
L 105.196529 492.605682 
L 104.508374 489.771502 
L 104.096435 486.937322 
L 103.897532 484.103142 
L 103.872752 481.268962 
L 104.000853 478.434782 
L 104.27435 475.600602 
L 104.697231 472.766421 
L 105.225627 470.196851 
L 105.2759 469.932241 
L 105.944341 467.098061 
L 106.795802 464.263881 
L 106.910549 463.928084 
L 107.735199 461.429701 
L 108.595471 459.213412 
L 108.830745 458.595521 
L 110.010758 455.76134 
L 110.280393 455.144926 
L 111.25156 452.92716 
L 111.965315 451.352187 
L 112.542987 450.09298 
L 113.650237 447.673418 
L 113.844561 447.2588 
L 115.098208 444.42462 
L 115.335159 443.837833 
L 116.283765 441.59044 
L 117.020081 439.705893 
L 117.415264 438.75626 
L 118.480679 435.922079 
L 118.705003 435.244735 
L 119.494511 433.087899 
L 120.389925 430.610944 
L 120.53711 430.253719 
L 121.670507 427.419539 
L 122.074847 426.468892 
L 123.042908 424.585359 
L 123.759769 423.311801 
L 124.866136 421.751179 
L 125.444691 420.984747 
L 127.129613 419.229216 
L 127.501801 418.916998 
L 128.814535 417.801635 
L 130.499457 416.679988 
L 131.590398 416.082818 
L 132.184379 415.730286 
L 133.869301 414.822495 
L 135.554223 414.037626 
L 137.239146 413.328697 
L 137.424766 413.248638 
L 138.924068 412.508233 
L 140.60899 411.71601 
L 142.293912 410.954189 
L 143.48895 410.414458 
L 143.978834 410.158645 
L 145.663756 409.269423 
L 147.348678 408.421049 
L 149.0336 407.606504 
L 149.088256 407.580278 
L 150.718522 406.704876 
L 152.403444 405.878252 
L 154.088366 405.125984 
L 155.023321 404.746098 
L 155.773288 404.417275 
L 157.45821 403.775451 
L 159.143132 403.241025 
L 160.828054 402.813109 
L 162.512976 402.497452 
L 164.197898 402.308236 
L 165.88282 402.269906 
L 167.567742 402.418058 
L 169.252664 402.797781 
L 170.937586 403.457327 
L 172.622508 404.435376 
L 173.037366 404.746098 
L 174.30743 405.683733 
L 175.992352 407.114016 
L 176.5038 407.580278 
L 177.677274 408.465791 
L 179.362196 409.702522 
L 180.380126 410.414458 
L 181.047118 410.774532 
L 182.73204 411.649663 
L 184.416962 412.494196 
L 185.916522 413.248638 
L 186.101884 413.325486 
L 187.786806 414.068579 
L 189.471728 414.894027 
L 191.15665 415.841435 
L 191.538138 416.082818 
L 192.841572 416.841239 
L 194.526494 417.99771 
L 195.674704 418.916998 
L 196.211416 419.332097 
L 197.896338 420.797429 
L 198.872595 421.751179 
L 199.58126 422.440233 
L 201.266182 424.207363 
L 201.614318 424.585359 
L 202.951104 426.047751 
L 204.177711 427.419539 
L 204.636026 427.943304 
L 206.320948 429.82196 
L 206.722446 430.253719 
L 208.00587 431.666012 
L 209.338545 433.087899 
L 209.690792 433.47619 
L 211.375714 435.262801 
L 212.004364 435.922079 
L 213.060636 437.065754 
L 214.60032 438.75626 
L 214.745558 438.918895 
L 216.43048 440.814234 
L 217.105886 441.59044 
L 218.115402 442.730216 
L 219.611972 444.42462 
L 219.800324 444.628735 
L 221.485246 446.402238 
L 222.329771 447.2588 
L 223.170168 448.075348 
L 224.85509 449.644314 
L 225.359145 450.09298 
L 226.540012 451.169801 
L 228.224934 452.730215 
L 228.433477 452.92716 
L 229.909856 454.576279 
L 230.845017 455.76134 
L 231.594778 457.135984 
L 232.277791 458.595521 
L 232.898539 461.429701 
L 232.90039 464.263881 
L 232.415847 467.098061 
L 231.594778 469.695336 
L 231.523882 469.932241 
L 230.291975 472.766421 
L 229.909856 473.45958 
L 228.758423 475.600602 
L 228.224934 476.433141 
L 226.957702 478.434782 
L 226.540012 479.014549 
L 224.910099 481.268962 
L 224.85509 481.338292 
L 223.170168 483.449383 
L 222.636899 484.103142 
L 221.485246 485.416144 
L 220.082296 486.937322 
L 219.800324 487.230016 
L 218.115402 488.898043 
L 217.157052 489.771502 
L 216.43048 490.420436 
L 214.745558 491.786768 
L 213.599367 492.605682 
L 213.060636 492.994275 
L 211.375714 494.054261 
L 209.690792 494.926789 
L 208.455507 495.439863 
L 208.00587 495.636009 
L 206.320948 496.195788 
L 204.636026 496.577108 
L 202.951104 496.794018 
L 201.266182 496.866062 
L 199.58126 496.823761 
L 197.896338 496.713403 
L 196.211416 496.597917 
L 194.526494 496.550055 
L 192.841572 496.637025 
L 191.15665 496.902002 
L 189.471728 497.35255 
L 187.786806 497.962712 
L 187.101154 498.274043 
L 186.101884 498.759998 
L 184.416962 499.687033 
L 182.73204 500.630499 
L 181.897165 501.108223 
L 181.047118 501.643317 
L 179.362196 502.687622 
L 177.677274 503.638509 
L 177.111139 503.942403 
L 175.992352 504.625582 
L 174.30743 505.557626 
L 172.622508 506.368502 
L 171.674252 506.776583 
L 170.937586 507.151029 
L 169.252664 507.91719 
L 167.567742 508.572242 
L 165.88282 509.132613 
L 164.203461 509.610763 
L 164.197898 509.612712 
L 162.512976 510.142234 
L 160.828054 510.592949 
L 159.143132 510.976065 
L 157.45821 511.300106 
L 155.773288 511.571277 
L 154.088366 511.79382 
L 152.403444 511.970375 
L 150.718522 512.102343 
L 149.0336 512.190259 
L 147.348678 512.234153 
L 145.663756 512.233907 
L 143.978834 512.189575 
L 142.293912 512.101658 
L 140.60899 511.971276 
L 138.924068 511.800201 
L 137.239146 511.590717 
L 135.554223 511.345275 
L 133.869301 511.066011 
L 132.184379 510.754162 
L 130.499457 510.409504 
L 128.814535 510.029867 
z
" clip-path="url(#pb74c7f6c0a)" style="fill: #f1f7fd"/>
    <path d="M 128.814535 510.029867 
L 130.499457 510.409504 
L 132.184379 510.754162 
L 133.869301 511.066011 
L 135.554223 511.345275 
L 137.239146 511.590717 
L 138.924068 511.800201 
L 140.60899 511.971276 
L 142.293912 512.101658 
L 143.978834 512.189575 
L 145.663756 512.233907 
L 147.348678 512.234153 
L 149.0336 512.190259 
L 150.718522 512.102343 
L 152.403444 511.970375 
L 154.088366 511.79382 
L 155.773288 511.571277 
L 157.45821 511.300106 
L 159.143132 510.976065 
L 160.828054 510.592949 
L 162.512976 510.142234 
L 164.197898 509.612712 
L 164.203461 509.610763 
L 165.88282 509.132613 
L 167.567742 508.572242 
L 169.252664 507.91719 
L 170.937586 507.151029 
L 171.674252 506.776583 
L 172.622508 506.368502 
L 174.30743 505.557626 
L 175.992352 504.625582 
L 177.111139 503.942403 
L 177.677274 503.638509 
L 179.362196 502.687622 
L 181.047118 501.643317 
L 181.897165 501.108223 
L 182.73204 500.630499 
L 184.416962 499.687033 
L 186.101884 498.759998 
L 187.101154 498.274043 
L 187.786806 497.962712 
L 189.471728 497.35255 
L 191.15665 496.902002 
L 192.841572 496.637025 
L 194.526494 496.550055 
L 196.211416 496.597917 
L 197.896338 496.713403 
L 199.58126 496.823761 
L 201.266182 496.866062 
L 202.951104 496.794018 
L 204.636026 496.577108 
L 206.320948 496.195788 
L 208.00587 495.636009 
L 208.455507 495.439863 
L 209.690792 494.926789 
L 211.375714 494.054261 
L 213.060636 492.994275 
L 213.599367 492.605682 
L 214.745558 491.786768 
L 216.43048 490.420436 
L 217.157052 489.771502 
L 218.115402 488.898043 
L 219.800324 487.230016 
L 220.082296 486.937322 
L 221.485246 485.416144 
L 222.636899 484.103142 
L 223.170168 483.449383 
L 224.85509 481.338292 
L 224.910099 481.268962 
L 226.540012 479.014549 
L 226.957702 478.434782 
L 228.224934 476.433141 
L 228.758423 475.600602 
L 229.909856 473.45958 
L 230.291975 472.766421 
L 231.523882 469.932241 
L 231.594778 469.695336 
L 232.415847 467.098061 
L 232.90039 464.263881 
L 232.898539 461.429701 
L 232.277791 458.595521 
L 231.594778 457.135984 
L 230.845017 455.76134 
L 229.909856 454.576279 
L 228.433477 452.92716 
L 228.224934 452.730215 
L 226.540012 451.169801 
L 225.359145 450.09298 
L 224.85509 449.644314 
L 223.170168 448.075348 
L 222.329771 447.2588 
L 221.485246 446.402238 
L 219.800324 444.628735 
L 219.611972 444.42462 
L 218.115402 442.730216 
L 217.105886 441.59044 
L 216.43048 440.814234 
L 214.745558 438.918895 
L 214.60032 438.75626 
L 213.060636 437.065754 
L 212.004364 435.922079 
L 211.375714 435.262801 
L 209.690792 433.47619 
L 209.338545 433.087899 
L 208.00587 431.666012 
L 206.722446 430.253719 
L 206.320948 429.82196 
L 204.636026 427.943304 
L 204.177711 427.419539 
L 202.951104 426.047751 
L 201.614318 424.585359 
L 201.266182 424.207363 
L 199.58126 422.440233 
L 198.872595 421.751179 
L 197.896338 420.797429 
L 196.211416 419.332097 
L 195.674704 418.916998 
L 194.526494 417.99771 
L 192.841572 416.841239 
L 191.538138 416.082818 
L 191.15665 415.841435 
L 189.471728 414.894027 
L 187.786806 414.068579 
L 186.101884 413.325486 
L 185.916522 413.248638 
L 184.416962 412.494196 
L 182.73204 411.649663 
L 181.047118 410.774532 
L 180.380126 410.414458 
L 179.362196 409.702522 
L 177.677274 408.465791 
L 176.5038 407.580278 
L 175.992352 407.114016 
L 174.30743 405.683733 
L 173.037366 404.746098 
L 172.622508 404.435376 
L 170.937586 403.457327 
L 169.252664 402.797781 
L 167.567742 402.418058 
L 165.88282 402.269906 
L 164.197898 402.308236 
L 162.512976 402.497452 
L 160.828054 402.813109 
L 159.143132 403.241025 
L 157.45821 403.775451 
L 155.773288 404.417275 
L 155.023321 404.746098 
L 154.088366 405.125984 
L 152.403444 405.878252 
L 150.718522 406.704876 
L 149.088256 407.580278 
L 149.0336 407.606504 
L 147.348678 408.421049 
L 145.663756 409.269423 
L 143.978834 410.158645 
L 143.48895 410.414458 
L 142.293912 410.954189 
L 140.60899 411.71601 
L 138.924068 412.508233 
L 137.424766 413.248638 
L 137.239146 413.328697 
L 135.554223 414.037626 
L 133.869301 414.822495 
L 132.184379 415.730286 
L 131.590398 416.082818 
L 130.499457 416.679988 
L 128.814535 417.801635 
L 127.501801 418.916998 
L 127.129613 419.229216 
L 125.444691 420.984747 
L 124.866136 421.751179 
L 123.759769 423.311801 
L 123.042908 424.585359 
L 122.074847 426.468892 
L 121.670507 427.419539 
L 120.53711 430.253719 
L 120.389925 430.610944 
L 119.494511 433.087899 
L 118.705003 435.244735 
L 118.480679 435.922079 
L 117.415264 438.75626 
L 117.020081 439.705893 
L 116.283765 441.59044 
L 115.335159 443.837833 
L 115.098208 444.42462 
L 113.844561 447.2588 
L 113.650237 447.673418 
L 112.542987 450.09298 
L 111.965315 451.352187 
L 111.25156 452.92716 
L 110.280393 455.144926 
L 110.010758 455.76134 
L 108.830745 458.595521 
L 108.595471 459.213412 
L 107.735199 461.429701 
L 106.910549 463.928084 
L 106.795802 464.263881 
L 105.944341 467.098061 
L 105.2759 469.932241 
L 105.225627 470.196851 
L 104.697231 472.766421 
L 104.27435 475.600602 
L 104.000853 478.434782 
L 103.872752 481.268962 
L 103.897532 484.103142 
L 104.096435 486.937322 
L 104.508374 489.771502 
L 105.196529 492.605682 
L 105.225627 492.693217 
L 106.17742 495.439863 
L 106.910549 496.953359 
L 107.620715 498.274043 
L 108.595471 499.713803 
L 109.712984 501.108223 
L 110.280393 501.723584 
L 111.965315 503.271496 
L 112.858869 503.942403 
L 113.650237 504.514612 
L 115.335159 505.547255 
L 117.020081 506.378258 
L 117.974339 506.776583 
L 118.705003 507.103095 
L 120.389925 507.764961 
L 122.074847 508.327683 
L 123.759769 508.812644 
L 125.444691 509.236188 
L 127.129613 509.610763 
L 127.129613 509.610763 
z
M 129.053377 503.942403 
L 128.814535 503.879354 
L 127.129613 503.394299 
L 125.444691 502.836128 
L 123.759769 502.18662 
L 122.074847 501.422192 
L 121.461981 501.108223 
L 120.389925 500.55971 
L 118.705003 499.537872 
L 117.020081 498.274043 
L 117.020081 498.274043 
L 115.335159 496.70469 
L 114.227836 495.439863 
L 113.650237 494.635158 
L 112.392778 492.605682 
L 111.965315 491.669166 
L 111.17308 489.771502 
L 110.405129 486.937322 
L 110.280393 486.148833 
L 109.955601 484.103142 
L 109.776042 481.268962 
L 109.829027 478.434782 
L 110.090876 475.600602 
L 110.280393 474.42564 
L 110.527624 472.766421 
L 111.130352 469.932241 
L 111.934032 467.098061 
L 111.965315 467.005112 
L 112.856301 464.263881 
L 113.650237 462.242066 
L 113.962733 461.429701 
L 115.209931 458.595521 
L 115.335159 458.332369 
L 116.563713 455.76134 
L 117.020081 454.871407 
L 118.035203 452.92716 
L 118.705003 451.693925 
L 119.603931 450.09298 
L 120.389925 448.710867 
L 121.258535 447.2588 
L 122.074847 445.881483 
L 123.001043 444.42462 
L 123.759769 443.199528 
L 124.85224 441.59044 
L 125.444691 440.684017 
L 126.858885 438.75626 
L 127.129613 438.370148 
L 128.814535 436.232344 
L 129.092733 435.922079 
L 130.499457 434.262868 
L 131.688349 433.087899 
L 132.184379 432.566697 
L 133.869301 431.022784 
L 134.868433 430.253719 
L 135.554223 429.68232 
L 137.239146 428.465625 
L 138.924068 427.458867 
L 138.998992 427.419539 
L 140.60899 426.472843 
L 142.293912 425.637896 
L 143.978834 424.933839 
L 144.965325 424.585359 
L 145.663756 424.300237 
L 147.348678 423.721694 
L 149.0336 423.247567 
L 150.718522 422.871968 
L 152.403444 422.591401 
L 154.088366 422.402455 
L 155.773288 422.299272 
L 157.45821 422.271346 
L 159.143132 422.302607 
L 160.828054 422.372607 
L 162.512976 422.459817 
L 164.197898 422.545813 
L 165.88282 422.618633 
L 167.567742 422.674101 
L 169.252664 422.71514 
L 170.937586 422.749955 
L 172.622508 422.790081 
L 174.30743 422.848938 
L 175.992352 422.941066 
L 177.677274 423.081942 
L 179.362196 423.288198 
L 181.047118 423.578035 
L 182.73204 423.971693 
L 184.416962 424.491857 
L 184.65894 424.585359 
L 186.101884 425.120415 
L 187.786806 425.921638 
L 189.471728 426.933045 
L 190.154148 427.419539 
L 191.15665 428.165997 
L 192.841572 429.657082 
L 193.436439 430.253719 
L 194.526494 431.450398 
L 195.867409 433.087899 
L 196.211416 433.561154 
L 197.843335 435.922079 
L 197.896338 436.009945 
L 199.556255 438.75626 
L 199.58126 438.803768 
L 201.122865 441.59044 
L 201.266182 441.883153 
L 202.631316 444.42462 
L 202.951104 445.072876 
L 204.178271 447.2588 
L 204.636026 448.100839 
L 205.902115 450.09298 
L 206.320948 450.739477 
L 207.992094 452.92716 
L 208.00587 452.944414 
L 209.690792 454.830058 
L 210.598446 455.76134 
L 211.375714 456.550143 
L 213.060636 458.242604 
L 213.400945 458.595521 
L 214.745558 460.131333 
L 215.792734 461.429701 
L 216.43048 462.455408 
L 217.428172 464.263881 
L 218.115402 466.581409 
L 218.250406 467.098061 
L 218.31852 469.932241 
L 218.115402 470.916184 
L 217.740509 472.766421 
L 216.598085 475.600602 
L 216.43048 475.884765 
L 214.876367 478.434782 
L 214.745558 478.601345 
L 213.060636 480.578759 
L 212.403329 481.268962 
L 211.375714 482.159378 
L 209.690792 483.388546 
L 208.457641 484.103142 
L 208.00587 484.331647 
L 206.320948 484.942996 
L 204.636026 485.32824 
L 202.951104 485.520317 
L 201.266182 485.580012 
L 199.58126 485.595298 
L 197.896338 485.66804 
L 196.211416 485.890345 
L 194.526494 486.321536 
L 192.954472 486.937322 
L 192.841572 486.977504 
L 191.15665 487.837643 
L 189.471728 488.867536 
L 188.164995 489.771502 
L 187.786806 490.020165 
L 186.101884 491.273988 
L 184.416962 492.53194 
L 184.323889 492.605682 
L 182.73204 493.851132 
L 181.047118 495.097559 
L 180.576019 495.439863 
L 179.362196 496.34398 
L 177.677274 497.505135 
L 176.452296 498.274043 
L 175.992352 498.581288 
L 174.30743 499.631021 
L 172.622508 500.546835 
L 171.457864 501.108223 
L 170.937586 501.385986 
L 169.252664 502.198371 
L 167.567742 502.898323 
L 165.88282 503.501798 
L 164.466822 503.942403 
L 164.197898 504.039104 
L 162.512976 504.581021 
L 160.828054 505.046852 
L 159.143132 505.446124 
L 157.45821 505.785808 
L 155.773288 506.070661 
L 154.088366 506.303595 
L 152.403444 506.486063 
L 150.718522 506.618449 
L 149.0336 506.700478 
L 147.348678 506.731609 
L 145.663756 506.711417 
L 143.978834 506.639908 
L 142.293912 506.517748 
L 140.60899 506.346309 
L 138.924068 506.127519 
L 137.239146 505.863469 
L 135.554223 505.555825 
L 133.869301 505.205122 
L 132.184379 504.81006 
L 130.499457 504.366881 
z
" clip-path="url(#pb74c7f6c0a)" style="fill: #e2edf8"/>
    <path d="M 130.499457 504.366881 
L 132.184379 504.81006 
L 133.869301 505.205122 
L 135.554223 505.555825 
L 137.239146 505.863469 
L 138.924068 506.127519 
L 140.60899 506.346309 
L 142.293912 506.517748 
L 143.978834 506.639908 
L 145.663756 506.711417 
L 147.348678 506.731609 
L 149.0336 506.700478 
L 150.718522 506.618449 
L 152.403444 506.486063 
L 154.088366 506.303595 
L 155.773288 506.070661 
L 157.45821 505.785808 
L 159.143132 505.446124 
L 160.828054 505.046852 
L 162.512976 504.581021 
L 164.197898 504.039104 
L 164.466822 503.942403 
L 165.88282 503.501798 
L 167.567742 502.898323 
L 169.252664 502.198371 
L 170.937586 501.385986 
L 171.457864 501.108223 
L 172.622508 500.546835 
L 174.30743 499.631021 
L 175.992352 498.581288 
L 176.452296 498.274043 
L 177.677274 497.505135 
L 179.362196 496.34398 
L 180.576019 495.439863 
L 181.047118 495.097559 
L 182.73204 493.851132 
L 184.323889 492.605682 
L 184.416962 492.53194 
L 186.101884 491.273988 
L 187.786806 490.020165 
L 188.164995 489.771502 
L 189.471728 488.867536 
L 191.15665 487.837643 
L 192.841572 486.977504 
L 192.954472 486.937322 
L 194.526494 486.321536 
L 196.211416 485.890345 
L 197.896338 485.66804 
L 199.58126 485.595298 
L 201.266182 485.580012 
L 202.951104 485.520317 
L 204.636026 485.32824 
L 206.320948 484.942996 
L 208.00587 484.331647 
L 208.457641 484.103142 
L 209.690792 483.388546 
L 211.375714 482.159378 
L 212.403329 481.268962 
L 213.060636 480.578759 
L 214.745558 478.601345 
L 214.876367 478.434782 
L 216.43048 475.884765 
L 216.598085 475.600602 
L 217.740509 472.766421 
L 218.115402 470.916184 
L 218.31852 469.932241 
L 218.250406 467.098061 
L 218.115402 466.581409 
L 217.428172 464.263881 
L 216.43048 462.455408 
L 215.792734 461.429701 
L 214.745558 460.131333 
L 213.400945 458.595521 
L 213.060636 458.242604 
L 211.375714 456.550143 
L 210.598446 455.76134 
L 209.690792 454.830058 
L 208.00587 452.944414 
L 207.992094 452.92716 
L 206.320948 450.739477 
L 205.902115 450.09298 
L 204.636026 448.100839 
L 204.178271 447.2588 
L 202.951104 445.072876 
L 202.631316 444.42462 
L 201.266182 441.883153 
L 201.122865 441.59044 
L 199.58126 438.803768 
L 199.556255 438.75626 
L 197.896338 436.009945 
L 197.843335 435.922079 
L 196.211416 433.561154 
L 195.867409 433.087899 
L 194.526494 431.450398 
L 193.436439 430.253719 
L 192.841572 429.657082 
L 191.15665 428.165997 
L 190.154148 427.419539 
L 189.471728 426.933045 
L 187.786806 425.921638 
L 186.101884 425.120415 
L 184.65894 424.585359 
L 184.416962 424.491857 
L 182.73204 423.971693 
L 181.047118 423.578035 
L 179.362196 423.288198 
L 177.677274 423.081942 
L 175.992352 422.941066 
L 174.30743 422.848938 
L 172.622508 422.790081 
L 170.937586 422.749955 
L 169.252664 422.71514 
L 167.567742 422.674101 
L 165.88282 422.618633 
L 164.197898 422.545813 
L 162.512976 422.459817 
L 160.828054 422.372607 
L 159.143132 422.302607 
L 157.45821 422.271346 
L 155.773288 422.299272 
L 154.088366 422.402455 
L 152.403444 422.591401 
L 150.718522 422.871968 
L 149.0336 423.247567 
L 147.348678 423.721694 
L 145.663756 424.300237 
L 144.965325 424.585359 
L 143.978834 424.933839 
L 142.293912 425.637896 
L 140.60899 426.472843 
L 138.998992 427.419539 
L 138.924068 427.458867 
L 137.239146 428.465625 
L 135.554223 429.68232 
L 134.868433 430.253719 
L 133.869301 431.022784 
L 132.184379 432.566697 
L 131.688349 433.087899 
L 130.499457 434.262868 
L 129.092733 435.922079 
L 128.814535 436.232344 
L 127.129613 438.370148 
L 126.858885 438.75626 
L 125.444691 440.684017 
L 124.85224 441.59044 
L 123.759769 443.199528 
L 123.001043 444.42462 
L 122.074847 445.881483 
L 121.258535 447.2588 
L 120.389925 448.710867 
L 119.603931 450.09298 
L 118.705003 451.693925 
L 118.035203 452.92716 
L 117.020081 454.871407 
L 116.563713 455.76134 
L 115.335159 458.332369 
L 115.209931 458.595521 
L 113.962733 461.429701 
L 113.650237 462.242066 
L 112.856301 464.263881 
L 111.965315 467.005112 
L 111.934032 467.098061 
L 111.130352 469.932241 
L 110.527624 472.766421 
L 110.280393 474.42564 
L 110.090876 475.600602 
L 109.829027 478.434782 
L 109.776042 481.268962 
L 109.955601 484.103142 
L 110.280393 486.148833 
L 110.405129 486.937322 
L 111.17308 489.771502 
L 111.965315 491.669166 
L 112.392778 492.605682 
L 113.650237 494.635158 
L 114.227836 495.439863 
L 115.335159 496.70469 
L 117.020081 498.274043 
L 117.020081 498.274043 
L 118.705003 499.537872 
L 120.389925 500.55971 
L 121.461981 501.108223 
L 122.074847 501.422192 
L 123.759769 502.18662 
L 125.444691 502.836128 
L 127.129613 503.394299 
L 128.814535 503.879354 
L 129.053377 503.942403 
z
M 136.00567 501.108223 
L 135.554223 501.010022 
L 133.869301 500.600395 
L 132.184379 500.132939 
L 130.499457 499.598862 
L 128.814535 498.985155 
L 127.129613 498.274043 
L 127.129613 498.274043 
L 125.444691 497.494364 
L 123.759769 496.559948 
L 122.090272 495.439863 
L 122.074847 495.428542 
L 120.389925 494.031318 
L 118.995444 492.605682 
L 118.705003 492.243262 
L 117.020081 489.78055 
L 117.014586 489.771502 
L 115.739259 486.937322 
L 115.335159 485.485213 
L 114.969183 484.103142 
L 114.574554 481.268962 
L 114.489217 478.434782 
L 114.664131 475.600602 
L 115.075867 472.766421 
L 115.335159 471.605965 
L 115.687091 469.932241 
L 116.492815 467.098061 
L 117.020081 465.618323 
L 117.488194 464.263881 
L 118.671821 461.429701 
L 118.705003 461.358645 
L 119.993966 458.595521 
L 120.389925 457.832845 
L 121.483004 455.76134 
L 122.074847 454.719524 
L 123.129857 452.92716 
L 123.759769 451.90328 
L 124.938662 450.09298 
L 125.444691 449.329564 
L 126.93204 447.2588 
L 127.129613 446.982081 
L 128.814535 444.80973 
L 129.146682 444.42462 
L 130.499457 442.808369 
L 131.681885 441.59044 
L 132.184379 441.046083 
L 133.869301 439.444434 
L 134.722594 438.75626 
L 135.554223 438.031972 
L 137.239146 436.787321 
L 138.673381 435.922079 
L 138.924068 435.754037 
L 140.60899 434.791952 
L 142.293912 434.024106 
L 143.978834 433.420148 
L 145.175187 433.087899 
L 145.663756 432.928936 
L 147.348678 432.510811 
L 149.0336 432.21031 
L 150.718522 432.00645 
L 152.403444 431.877748 
L 154.088366 431.802005 
L 155.773288 431.757141 
L 157.45821 431.722871 
L 159.143132 431.682696 
L 160.828054 431.625547 
L 162.512976 431.546586 
L 164.197898 431.447013 
L 165.88282 431.33314 
L 167.567742 431.215159 
L 169.252664 431.105992 
L 170.937586 431.020491 
L 172.622508 430.975059 
L 174.30743 430.987669 
L 175.992352 431.078179 
L 177.677274 431.268816 
L 179.362196 431.584728 
L 181.047118 432.054435 
L 182.73204 432.71004 
L 183.485772 433.087899 
L 184.416962 433.584247 
L 186.101884 434.733781 
L 187.480402 435.922079 
L 187.786806 436.223147 
L 189.471728 438.170843 
L 189.913777 438.75626 
L 191.15665 440.735739 
L 191.648363 441.59044 
L 192.841572 444.170788 
L 192.955588 444.42462 
L 193.988091 447.2588 
L 194.526494 449.184837 
L 194.794169 450.09298 
L 195.450128 452.92716 
L 195.944061 455.76134 
L 196.211416 457.939644 
L 196.307809 458.595521 
L 196.553205 461.429701 
L 196.593487 464.263881 
L 196.328128 467.098061 
L 196.211416 467.584487 
L 195.720458 469.932241 
L 194.556138 472.766421 
L 194.526494 472.813152 
L 192.983225 475.600602 
L 192.841572 475.781486 
L 191.15665 478.231278 
L 191.030936 478.434782 
L 189.471728 480.413939 
L 188.844513 481.268962 
L 187.786806 482.468181 
L 186.400647 484.103142 
L 186.101884 484.411035 
L 184.416962 486.224224 
L 183.753681 486.937322 
L 182.73204 487.941282 
L 181.047118 489.536025 
L 180.793479 489.771502 
L 179.362196 491.037282 
L 177.677274 492.398119 
L 177.406433 492.605682 
L 175.992352 493.680396 
L 174.30743 494.824297 
L 173.300898 495.439863 
L 172.622508 495.868054 
L 170.937586 496.831306 
L 169.252664 497.669063 
L 167.865114 498.274043 
L 167.567742 498.41357 
L 165.88282 499.128457 
L 164.197898 499.748383 
L 162.512976 500.286083 
L 160.828054 500.751694 
L 159.336337 501.108223 
L 159.143132 501.160305 
L 157.45821 501.558481 
L 155.773288 501.891267 
L 154.088366 502.160835 
L 152.403444 502.367935 
L 150.718522 502.51239 
L 149.0336 502.593572 
L 147.348678 502.610844 
L 145.663756 502.563944 
L 143.978834 502.453264 
L 142.293912 502.279967 
L 140.60899 502.04586 
L 138.924068 501.753006 
L 137.239146 501.40307 
z
" clip-path="url(#pb74c7f6c0a)" style="fill: #d3e3f3"/>
    <path d="M 137.239146 501.40307 
L 138.924068 501.753006 
L 140.60899 502.04586 
L 142.293912 502.279967 
L 143.978834 502.453264 
L 145.663756 502.563944 
L 147.348678 502.610844 
L 149.0336 502.593572 
L 150.718522 502.51239 
L 152.403444 502.367935 
L 154.088366 502.160835 
L 155.773288 501.891267 
L 157.45821 501.558481 
L 159.143132 501.160305 
L 159.336337 501.108223 
L 160.828054 500.751694 
L 162.512976 500.286083 
L 164.197898 499.748383 
L 165.88282 499.128457 
L 167.567742 498.41357 
L 167.865114 498.274043 
L 169.252664 497.669063 
L 170.937586 496.831306 
L 172.622508 495.868054 
L 173.300898 495.439863 
L 174.30743 494.824297 
L 175.992352 493.680396 
L 177.406433 492.605682 
L 177.677274 492.398119 
L 179.362196 491.037282 
L 180.793479 489.771502 
L 181.047118 489.536025 
L 182.73204 487.941282 
L 183.753681 486.937322 
L 184.416962 486.224224 
L 186.101884 484.411035 
L 186.400647 484.103142 
L 187.786806 482.468181 
L 188.844513 481.268962 
L 189.471728 480.413939 
L 191.030936 478.434782 
L 191.15665 478.231278 
L 192.841572 475.781486 
L 192.983225 475.600602 
L 194.526494 472.813152 
L 194.556138 472.766421 
L 195.720458 469.932241 
L 196.211416 467.584487 
L 196.328128 467.098061 
L 196.593487 464.263881 
L 196.553205 461.429701 
L 196.307809 458.595521 
L 196.211416 457.939644 
L 195.944061 455.76134 
L 195.450128 452.92716 
L 194.794169 450.09298 
L 194.526494 449.184837 
L 193.988091 447.2588 
L 192.955588 444.42462 
L 192.841572 444.170788 
L 191.648363 441.59044 
L 191.15665 440.735739 
L 189.913777 438.75626 
L 189.471728 438.170843 
L 187.786806 436.223147 
L 187.480402 435.922079 
L 186.101884 434.733781 
L 184.416962 433.584247 
L 183.485772 433.087899 
L 182.73204 432.71004 
L 181.047118 432.054435 
L 179.362196 431.584728 
L 177.677274 431.268816 
L 175.992352 431.078179 
L 174.30743 430.987669 
L 172.622508 430.975059 
L 170.937586 431.020491 
L 169.252664 431.105992 
L 167.567742 431.215159 
L 165.88282 431.33314 
L 164.197898 431.447013 
L 162.512976 431.546586 
L 160.828054 431.625547 
L 159.143132 431.682696 
L 157.45821 431.722871 
L 155.773288 431.757141 
L 154.088366 431.802005 
L 152.403444 431.877748 
L 150.718522 432.00645 
L 149.0336 432.21031 
L 147.348678 432.510811 
L 145.663756 432.928936 
L 145.175187 433.087899 
L 143.978834 433.420148 
L 142.293912 434.024106 
L 140.60899 434.791952 
L 138.924068 435.754037 
L 138.673381 435.922079 
L 137.239146 436.787321 
L 135.554223 438.031972 
L 134.722594 438.75626 
L 133.869301 439.444434 
L 132.184379 441.046083 
L 131.681885 441.59044 
L 130.499457 442.808369 
L 129.146682 444.42462 
L 128.814535 444.80973 
L 127.129613 446.982081 
L 126.93204 447.2588 
L 125.444691 449.329564 
L 124.938662 450.09298 
L 123.759769 451.90328 
L 123.129857 452.92716 
L 122.074847 454.719524 
L 121.483004 455.76134 
L 120.389925 457.832845 
L 119.993966 458.595521 
L 118.705003 461.358645 
L 118.671821 461.429701 
L 117.488194 464.263881 
L 117.020081 465.618323 
L 116.492815 467.098061 
L 115.687091 469.932241 
L 115.335159 471.605965 
L 115.075867 472.766421 
L 114.664131 475.600602 
L 114.489217 478.434782 
L 114.574554 481.268962 
L 114.969183 484.103142 
L 115.335159 485.485213 
L 115.739259 486.937322 
L 117.014586 489.771502 
L 117.020081 489.78055 
L 118.705003 492.243262 
L 118.995444 492.605682 
L 120.389925 494.031318 
L 122.074847 495.428542 
L 122.090272 495.439863 
L 123.759769 496.559948 
L 125.444691 497.494364 
L 127.129613 498.274043 
L 127.129613 498.274043 
L 128.814535 498.985155 
L 130.499457 499.598862 
L 132.184379 500.132939 
L 133.869301 500.600395 
L 135.554223 501.010022 
L 136.00567 501.108223 
z
M 133.410986 495.439863 
L 132.184379 494.977466 
L 130.499457 494.243597 
L 128.814535 493.375943 
L 127.538093 492.605682 
L 127.129613 492.335163 
L 125.444691 491.047876 
L 124.071136 489.771502 
L 123.759769 489.416996 
L 122.074847 487.168379 
L 121.923278 486.937322 
L 120.599044 484.103142 
L 120.389925 483.358078 
L 119.841104 481.268962 
L 119.514067 478.434782 
L 119.532255 475.600602 
L 119.843355 472.766421 
L 120.389925 470.095976 
L 120.421596 469.932241 
L 121.21015 467.098061 
L 122.074847 464.728759 
L 122.241021 464.263881 
L 123.470657 461.429701 
L 123.759769 460.853064 
L 124.909974 458.595521 
L 125.444691 457.658488 
L 126.571388 455.76134 
L 127.129613 454.891879 
L 128.477035 452.92716 
L 128.814535 452.457013 
L 130.499457 450.300143 
L 130.676577 450.09298 
L 132.184379 448.353439 
L 133.277487 447.2588 
L 133.869301 446.656513 
L 135.554223 445.157441 
L 136.527441 444.42462 
L 137.239146 443.861165 
L 138.924068 442.731173 
L 140.60899 441.820695 
L 141.128292 441.59044 
L 142.293912 441.023298 
L 143.978834 440.373816 
L 145.663756 439.876976 
L 147.348678 439.506678 
L 149.0336 439.238857 
L 150.718522 439.050844 
L 152.403444 438.921354 
L 154.088366 438.830962 
L 155.773288 438.76289 
L 155.962639 438.75626 
L 157.45821 438.695641 
L 159.143132 438.628235 
L 160.828054 438.557003 
L 162.512976 438.482692 
L 164.197898 438.411126 
L 165.88282 438.352591 
L 167.567742 438.321231 
L 169.252664 438.334613 
L 170.937586 438.413577 
L 172.622508 438.582388 
L 173.664301 438.75626 
L 174.30743 438.86527 
L 175.992352 439.294741 
L 177.677274 439.92293 
L 179.362196 440.802017 
L 180.512548 441.59044 
L 181.047118 442.010888 
L 182.73204 443.680758 
L 183.345523 444.42462 
L 184.416962 446.032965 
L 185.117789 447.2588 
L 186.101884 449.523995 
L 186.328157 450.09298 
L 187.175683 452.92716 
L 187.735886 455.76134 
L 187.786806 456.186167 
L 188.081105 458.595521 
L 188.210148 461.429701 
L 188.119138 464.263881 
L 187.786806 467.098061 
L 187.786806 467.098061 
L 187.235011 469.932241 
L 186.382146 472.766421 
L 186.101884 473.437346 
L 185.246573 475.600602 
L 184.416962 477.187168 
L 183.781945 478.434782 
L 182.73204 480.084475 
L 181.975806 481.268962 
L 181.047118 482.490833 
L 179.778393 484.103142 
L 179.362196 484.567926 
L 177.677274 486.366676 
L 177.106981 486.937322 
L 175.992352 487.961011 
L 174.30743 489.36823 
L 173.782694 489.771502 
L 172.622508 490.625759 
L 170.937586 491.736194 
L 169.441898 492.605682 
L 169.252664 492.715631 
L 167.567742 493.611757 
L 165.88282 494.395015 
L 164.197898 495.079599 
L 163.197616 495.439863 
L 162.512976 495.698038 
L 160.828054 496.26274 
L 159.143132 496.74942 
L 157.45821 497.163115 
L 155.773288 497.50675 
L 154.088366 497.781542 
L 152.403444 497.987451 
L 150.718522 498.123665 
L 149.0336 498.189109 
L 147.348678 498.182943 
L 145.663756 498.104958 
L 143.978834 497.955776 
L 142.293912 497.736766 
L 140.60899 497.449587 
L 138.924068 497.095404 
L 137.239146 496.673837 
L 135.554223 496.181835 
L 133.869301 495.612604 
z
" clip-path="url(#pb74c7f6c0a)" style="fill: #bad6eb"/>
    <path d="M 133.869301 495.612604 
L 135.554223 496.181835 
L 137.239146 496.673837 
L 138.924068 497.095404 
L 140.60899 497.449587 
L 142.293912 497.736766 
L 143.978834 497.955776 
L 145.663756 498.104958 
L 147.348678 498.182943 
L 149.0336 498.189109 
L 150.718522 498.123665 
L 152.403444 497.987451 
L 154.088366 497.781542 
L 155.773288 497.50675 
L 157.45821 497.163115 
L 159.143132 496.74942 
L 160.828054 496.26274 
L 162.512976 495.698038 
L 163.197616 495.439863 
L 164.197898 495.079599 
L 165.88282 494.395015 
L 167.567742 493.611757 
L 169.252664 492.715631 
L 169.441898 492.605682 
L 170.937586 491.736194 
L 172.622508 490.625759 
L 173.782694 489.771502 
L 174.30743 489.36823 
L 175.992352 487.961011 
L 177.106981 486.937322 
L 177.677274 486.366676 
L 179.362196 484.567926 
L 179.778393 484.103142 
L 181.047118 482.490833 
L 181.975806 481.268962 
L 182.73204 480.084475 
L 183.781945 478.434782 
L 184.416962 477.187168 
L 185.246573 475.600602 
L 186.101884 473.437346 
L 186.382146 472.766421 
L 187.235011 469.932241 
L 187.786806 467.098061 
L 187.786806 467.098061 
L 188.119138 464.263881 
L 188.210148 461.429701 
L 188.081105 458.595521 
L 187.786806 456.186167 
L 187.735886 455.76134 
L 187.175683 452.92716 
L 186.328157 450.09298 
L 186.101884 449.523995 
L 185.117789 447.2588 
L 184.416962 446.032965 
L 183.345523 444.42462 
L 182.73204 443.680758 
L 181.047118 442.010888 
L 180.512548 441.59044 
L 179.362196 440.802017 
L 177.677274 439.92293 
L 175.992352 439.294741 
L 174.30743 438.86527 
L 173.664301 438.75626 
L 172.622508 438.582388 
L 170.937586 438.413577 
L 169.252664 438.334613 
L 167.567742 438.321231 
L 165.88282 438.352591 
L 164.197898 438.411126 
L 162.512976 438.482692 
L 160.828054 438.557003 
L 159.143132 438.628235 
L 157.45821 438.695641 
L 155.962639 438.75626 
L 155.773288 438.76289 
L 154.088366 438.830962 
L 152.403444 438.921354 
L 150.718522 439.050844 
L 149.0336 439.238857 
L 147.348678 439.506678 
L 145.663756 439.876976 
L 143.978834 440.373816 
L 142.293912 441.023298 
L 141.128292 441.59044 
L 140.60899 441.820695 
L 138.924068 442.731173 
L 137.239146 443.861165 
L 136.527441 444.42462 
L 135.554223 445.157441 
L 133.869301 446.656513 
L 133.277487 447.2588 
L 132.184379 448.353439 
L 130.676577 450.09298 
L 130.499457 450.300143 
L 128.814535 452.457013 
L 128.477035 452.92716 
L 127.129613 454.891879 
L 126.571388 455.76134 
L 125.444691 457.658488 
L 124.909974 458.595521 
L 123.759769 460.853064 
L 123.470657 461.429701 
L 122.241021 464.263881 
L 122.074847 464.728759 
L 121.21015 467.098061 
L 120.421596 469.932241 
L 120.389925 470.095976 
L 119.843355 472.766421 
L 119.532255 475.600602 
L 119.514067 478.434782 
L 119.841104 481.268962 
L 120.389925 483.358078 
L 120.599044 484.103142 
L 121.923278 486.937322 
L 122.074847 487.168379 
L 123.759769 489.416996 
L 124.071136 489.771502 
L 125.444691 491.047876 
L 127.129613 492.335163 
L 127.538093 492.605682 
L 128.814535 493.375943 
L 130.499457 494.243597 
L 132.184379 494.977466 
L 133.410986 495.439863 
z
M 139.587662 492.605682 
L 138.924068 492.420056 
L 137.239146 491.868239 
L 135.554223 491.216377 
L 133.869301 490.447233 
L 132.602149 489.771502 
L 132.184379 489.525117 
L 130.499457 488.376419 
L 128.814535 486.967019 
L 128.783091 486.937322 
L 127.129613 484.960804 
L 126.525481 484.103142 
L 125.444691 481.855813 
L 125.195144 481.268962 
L 124.499806 478.434782 
L 124.278953 475.600602 
L 124.437255 472.766421 
L 124.921008 469.932241 
L 125.444691 468.039511 
L 125.699102 467.098061 
L 126.746926 464.263881 
L 127.129613 463.432432 
L 128.069302 461.429701 
L 128.814535 460.087993 
L 129.68388 458.595521 
L 130.499457 457.355913 
L 131.633739 455.76134 
L 132.184379 455.047367 
L 133.869301 453.080948 
L 134.015734 452.92716 
L 135.554223 451.378361 
L 137.061062 450.09298 
L 137.239146 449.941939 
L 138.924068 448.698414 
L 140.60899 447.684197 
L 141.470371 447.2588 
L 142.293912 446.836642 
L 143.978834 446.142222 
L 145.663756 445.606189 
L 147.348678 445.202284 
L 149.0336 444.906513 
L 150.718522 444.696914 
L 152.403444 444.553745 
L 154.088366 444.459977 
L 155.11755 444.42462 
L 155.773288 444.400016 
L 157.45821 444.365658 
L 159.143132 444.354151 
L 160.828054 444.364815 
L 162.512976 444.402354 
L 163.026753 444.42462 
L 164.197898 444.474594 
L 165.88282 444.597653 
L 167.567742 444.794766 
L 169.252664 445.094741 
L 170.937586 445.534117 
L 172.622508 446.158605 
L 174.30743 447.025039 
L 174.668181 447.2588 
L 175.992352 448.262085 
L 177.677274 449.969097 
L 177.779436 450.09298 
L 179.362196 452.5451 
L 179.569901 452.92716 
L 180.712647 455.76134 
L 181.047118 457.02333 
L 181.433462 458.595521 
L 181.826686 461.429701 
L 181.931199 464.263881 
L 181.75826 467.098061 
L 181.296054 469.932241 
L 181.047118 470.839296 
L 180.532839 472.766421 
L 179.425172 475.600602 
L 179.362196 475.722474 
L 177.938943 478.434782 
L 177.677274 478.830801 
L 175.992352 481.268962 
L 175.992352 481.268962 
L 174.30743 483.212783 
L 173.466704 484.103142 
L 172.622508 484.88922 
L 170.937586 486.31937 
L 170.135144 486.937322 
L 169.252664 487.563885 
L 167.567742 488.643301 
L 165.88282 489.593783 
L 165.535533 489.771502 
L 164.197898 490.433755 
L 162.512976 491.169786 
L 160.828054 491.810206 
L 159.143132 492.361973 
L 158.273955 492.605682 
L 157.45821 492.838427 
L 155.773288 493.237535 
L 154.088366 493.549818 
L 152.403444 493.775023 
L 150.718522 493.912358 
L 149.0336 493.961041 
L 147.348678 493.92078 
L 145.663756 493.792059 
L 143.978834 493.576115 
L 142.293912 493.274492 
L 140.60899 492.888171 
z
" clip-path="url(#pb74c7f6c0a)" style="fill: #91c3de"/>
    <path d="M 140.60899 492.888171 
L 142.293912 493.274492 
L 143.978834 493.576115 
L 145.663756 493.792059 
L 147.348678 493.92078 
L 149.0336 493.961041 
L 150.718522 493.912358 
L 152.403444 493.775023 
L 154.088366 493.549818 
L 155.773288 493.237535 
L 157.45821 492.838427 
L 158.273955 492.605682 
L 159.143132 492.361973 
L 160.828054 491.810206 
L 162.512976 491.169786 
L 164.197898 490.433755 
L 165.535533 489.771502 
L 165.88282 489.593783 
L 167.567742 488.643301 
L 169.252664 487.563885 
L 170.135144 486.937322 
L 170.937586 486.31937 
L 172.622508 484.88922 
L 173.466704 484.103142 
L 174.30743 483.212783 
L 175.992352 481.268962 
L 175.992352 481.268962 
L 177.677274 478.830801 
L 177.938943 478.434782 
L 179.362196 475.722474 
L 179.425172 475.600602 
L 180.532839 472.766421 
L 181.047118 470.839296 
L 181.296054 469.932241 
L 181.75826 467.098061 
L 181.931199 464.263881 
L 181.826686 461.429701 
L 181.433462 458.595521 
L 181.047118 457.02333 
L 180.712647 455.76134 
L 179.569901 452.92716 
L 179.362196 452.5451 
L 177.779436 450.09298 
L 177.677274 449.969097 
L 175.992352 448.262085 
L 174.668181 447.2588 
L 174.30743 447.025039 
L 172.622508 446.158605 
L 170.937586 445.534117 
L 169.252664 445.094741 
L 167.567742 444.794766 
L 165.88282 444.597653 
L 164.197898 444.474594 
L 163.026753 444.42462 
L 162.512976 444.402354 
L 160.828054 444.364815 
L 159.143132 444.354151 
L 157.45821 444.365658 
L 155.773288 444.400016 
L 155.11755 444.42462 
L 154.088366 444.459977 
L 152.403444 444.553745 
L 150.718522 444.696914 
L 149.0336 444.906513 
L 147.348678 445.202284 
L 145.663756 445.606189 
L 143.978834 446.142222 
L 142.293912 446.836642 
L 141.470371 447.2588 
L 140.60899 447.684197 
L 138.924068 448.698414 
L 137.239146 449.941939 
L 137.061062 450.09298 
L 135.554223 451.378361 
L 134.015734 452.92716 
L 133.869301 453.080948 
L 132.184379 455.047367 
L 131.633739 455.76134 
L 130.499457 457.355913 
L 129.68388 458.595521 
L 128.814535 460.087993 
L 128.069302 461.429701 
L 127.129613 463.432432 
L 126.746926 464.263881 
L 125.699102 467.098061 
L 125.444691 468.039511 
L 124.921008 469.932241 
L 124.437255 472.766421 
L 124.278953 475.600602 
L 124.499806 478.434782 
L 125.195144 481.268962 
L 125.444691 481.855813 
L 126.525481 484.103142 
L 127.129613 484.960804 
L 128.783091 486.937322 
L 128.814535 486.967019 
L 130.499457 488.376419 
L 132.184379 489.525117 
L 132.602149 489.771502 
L 133.869301 490.447233 
L 135.554223 491.216377 
L 137.239146 491.868239 
L 138.924068 492.420056 
L 139.587662 492.605682 
z
M 146.804869 489.771502 
L 145.663756 489.641105 
L 143.978834 489.343281 
L 142.293912 488.939808 
L 140.60899 488.428819 
L 138.924068 487.803871 
L 137.239146 487.05186 
L 137.015852 486.937322 
L 135.554223 486.082429 
L 133.869301 484.890722 
L 132.932955 484.103142 
L 132.184379 483.295289 
L 130.633334 481.268962 
L 130.499457 481.004555 
L 129.379951 478.434782 
L 128.814535 475.626304 
L 128.809858 475.600602 
L 128.763048 472.766421 
L 128.814535 472.387195 
L 129.140655 469.932241 
L 129.891316 467.098061 
L 130.499457 465.528571 
L 131.002593 464.263881 
L 132.184379 461.983647 
L 132.488842 461.429701 
L 133.869301 459.351337 
L 134.420388 458.595521 
L 135.554223 457.232091 
L 136.947226 455.76134 
L 137.239146 455.477648 
L 138.924068 454.048628 
L 140.514404 452.92716 
L 140.60899 452.862972 
L 142.293912 451.902483 
L 143.978834 451.138215 
L 145.663756 450.543234 
L 147.348678 450.09298 
L 147.348678 450.09298 
L 149.0336 449.758799 
L 150.718522 449.530206 
L 152.403444 449.387872 
L 154.088366 449.316006 
L 155.773288 449.303002 
L 157.45821 449.342093 
L 159.143132 449.431952 
L 160.828054 449.57721 
L 162.512976 449.788972 
L 164.197898 450.085382 
L 164.23105 450.09298 
L 165.88282 450.506776 
L 167.567742 451.087457 
L 169.252664 451.879757 
L 170.902131 452.92716 
L 170.937586 452.954549 
L 172.622508 454.573062 
L 173.582035 455.76134 
L 174.30743 456.99191 
L 175.100581 458.595521 
L 175.972522 461.429701 
L 175.992352 461.559487 
L 176.374104 464.263881 
L 176.385932 467.098061 
L 176.02409 469.932241 
L 175.992352 470.052138 
L 175.273272 472.766421 
L 174.30743 475.09412 
L 174.091466 475.600602 
L 172.622508 478.077448 
L 172.398697 478.434782 
L 170.937586 480.256024 
L 170.055091 481.268962 
L 169.252664 482.036334 
L 167.567742 483.503837 
L 166.80903 484.103142 
L 165.88282 484.747873 
L 164.197898 485.801092 
L 162.512976 486.726266 
L 162.081089 486.937322 
L 160.828054 487.506882 
L 159.143132 488.167922 
L 157.45821 488.722581 
L 155.773288 489.172798 
L 154.088366 489.518602 
L 152.403444 489.758805 
L 152.242089 489.771502 
L 150.718522 489.889934 
L 149.0336 489.913973 
L 147.348678 489.831499 
z
" clip-path="url(#pb74c7f6c0a)" style="fill: #5fa6d1"/>
    <path d="M 147.348678 489.831499 
L 149.0336 489.913973 
L 150.718522 489.889934 
L 152.242089 489.771502 
L 152.403444 489.758805 
L 154.088366 489.518602 
L 155.773288 489.172798 
L 157.45821 488.722581 
L 159.143132 488.167922 
L 160.828054 487.506882 
L 162.081089 486.937322 
L 162.512976 486.726266 
L 164.197898 485.801092 
L 165.88282 484.747873 
L 166.80903 484.103142 
L 167.567742 483.503837 
L 169.252664 482.036334 
L 170.055091 481.268962 
L 170.937586 480.256024 
L 172.398697 478.434782 
L 172.622508 478.077448 
L 174.091466 475.600602 
L 174.30743 475.09412 
L 175.273272 472.766421 
L 175.992352 470.052138 
L 176.02409 469.932241 
L 176.385932 467.098061 
L 176.374104 464.263881 
L 175.992352 461.559487 
L 175.972522 461.429701 
L 175.100581 458.595521 
L 174.30743 456.99191 
L 173.582035 455.76134 
L 172.622508 454.573062 
L 170.937586 452.954549 
L 170.902131 452.92716 
L 169.252664 451.879757 
L 167.567742 451.087457 
L 165.88282 450.506776 
L 164.23105 450.09298 
L 164.197898 450.085382 
L 162.512976 449.788972 
L 160.828054 449.57721 
L 159.143132 449.431952 
L 157.45821 449.342093 
L 155.773288 449.303002 
L 154.088366 449.316006 
L 152.403444 449.387872 
L 150.718522 449.530206 
L 149.0336 449.758799 
L 147.348678 450.09298 
L 147.348678 450.09298 
L 145.663756 450.543234 
L 143.978834 451.138215 
L 142.293912 451.902483 
L 140.60899 452.862972 
L 140.514404 452.92716 
L 138.924068 454.048628 
L 137.239146 455.477648 
L 136.947226 455.76134 
L 135.554223 457.232091 
L 134.420388 458.595521 
L 133.869301 459.351337 
L 132.488842 461.429701 
L 132.184379 461.983647 
L 131.002593 464.263881 
L 130.499457 465.528571 
L 129.891316 467.098061 
L 129.140655 469.932241 
L 128.814535 472.387195 
L 128.763048 472.766421 
L 128.809858 475.600602 
L 128.814535 475.626304 
L 129.379951 478.434782 
L 130.499457 481.004555 
L 130.633334 481.268962 
L 132.184379 483.295289 
L 132.932955 484.103142 
L 133.869301 484.890722 
L 135.554223 486.082429 
L 137.015852 486.937322 
L 137.239146 487.05186 
L 138.924068 487.803871 
L 140.60899 488.428819 
L 142.293912 488.939808 
L 143.978834 489.343281 
L 145.663756 489.641105 
L 146.804869 489.771502 
z
M 141.95226 484.103142 
L 140.60899 483.467351 
L 138.924068 482.483883 
L 137.239146 481.268962 
L 137.239146 481.268962 
L 135.554223 479.343206 
L 134.902811 478.434782 
L 133.869301 475.981133 
L 133.73311 475.600602 
L 133.367477 472.766421 
L 133.590332 469.932241 
L 133.869301 468.854724 
L 134.341849 467.098061 
L 135.554223 464.346397 
L 135.5934 464.263881 
L 137.239146 461.735423 
L 137.462028 461.429701 
L 138.924068 459.80969 
L 140.203044 458.595521 
L 140.60899 458.260986 
L 142.293912 457.096241 
L 143.978834 456.157592 
L 144.8823 455.76134 
L 145.663756 455.446305 
L 147.348678 454.934379 
L 149.0336 454.571958 
L 150.718522 454.338718 
L 152.403444 454.217557 
L 154.088366 454.195527 
L 155.773288 454.264874 
L 157.45821 454.424103 
L 159.143132 454.679043 
L 160.828054 455.043968 
L 162.512976 455.542901 
L 163.086051 455.76134 
L 164.197898 456.270842 
L 165.88282 457.288634 
L 167.500325 458.595521 
L 167.567742 458.670218 
L 169.252664 461.003167 
L 169.502407 461.429701 
L 170.487759 464.263881 
L 170.81456 467.098061 
L 170.580259 469.932241 
L 169.810238 472.766421 
L 169.252664 473.958845 
L 168.446557 475.600602 
L 167.567742 476.8447 
L 166.354477 478.434782 
L 165.88282 478.911367 
L 164.197898 480.462859 
L 163.220304 481.268962 
L 162.512976 481.753266 
L 160.828054 482.772545 
L 159.143132 483.646464 
L 158.095738 484.103142 
L 157.45821 484.349259 
L 155.773288 484.873109 
L 154.088366 485.264436 
L 152.403444 485.522206 
L 150.718522 485.645251 
L 149.0336 485.633069 
L 147.348678 485.486137 
L 145.663756 485.205459 
L 143.978834 484.791224 
L 142.293912 484.240693 
z
" clip-path="url(#pb74c7f6c0a)" style="fill: #3686c0"/>
    <path d="M 142.293912 484.240693 
L 143.978834 484.791224 
L 145.663756 485.205459 
L 147.348678 485.486137 
L 149.0336 485.633069 
L 150.718522 485.645251 
L 152.403444 485.522206 
L 154.088366 485.264436 
L 155.773288 484.873109 
L 157.45821 484.349259 
L 158.095738 484.103142 
L 159.143132 483.646464 
L 160.828054 482.772545 
L 162.512976 481.753266 
L 163.220304 481.268962 
L 164.197898 480.462859 
L 165.88282 478.911367 
L 166.354477 478.434782 
L 167.567742 476.8447 
L 168.446557 475.600602 
L 169.252664 473.958845 
L 169.810238 472.766421 
L 170.580259 469.932241 
L 170.81456 467.098061 
L 170.487759 464.263881 
L 169.502407 461.429701 
L 169.252664 461.003167 
L 167.567742 458.670218 
L 167.500325 458.595521 
L 165.88282 457.288634 
L 164.197898 456.270842 
L 163.086051 455.76134 
L 162.512976 455.542901 
L 160.828054 455.043968 
L 159.143132 454.679043 
L 157.45821 454.424103 
L 155.773288 454.264874 
L 154.088366 454.195527 
L 152.403444 454.217557 
L 150.718522 454.338718 
L 149.0336 454.571958 
L 147.348678 454.934379 
L 145.663756 455.446305 
L 144.8823 455.76134 
L 143.978834 456.157592 
L 142.293912 457.096241 
L 140.60899 458.260986 
L 140.203044 458.595521 
L 138.924068 459.80969 
L 137.462028 461.429701 
L 137.239146 461.735423 
L 135.5934 464.263881 
L 135.554223 464.346397 
L 134.341849 467.098061 
L 133.869301 468.854724 
L 133.590332 469.932241 
L 133.367477 472.766421 
L 133.73311 475.600602 
L 133.869301 475.981133 
L 134.902811 478.434782 
L 135.554223 479.343206 
L 137.239146 481.268962 
L 137.239146 481.268962 
L 138.924068 482.483883 
L 140.60899 483.467351 
L 141.95226 484.103142 
z
M 142.168061 478.434782 
L 140.60899 476.851444 
L 139.635266 475.600602 
L 138.924068 473.719335 
L 138.629662 472.766421 
L 138.627106 469.932241 
L 138.924068 468.858621 
L 139.462119 467.098061 
L 140.60899 465.138123 
L 141.200378 464.263881 
L 142.293912 463.145302 
L 143.978834 461.725527 
L 144.422421 461.429701 
L 145.663756 460.777334 
L 147.348678 460.117724 
L 149.0336 459.664409 
L 150.718522 459.398527 
L 152.403444 459.3047 
L 154.088366 459.373381 
L 155.773288 459.603373 
L 157.45821 460.004394 
L 159.143132 460.599795 
L 160.828054 461.429701 
L 160.828054 461.429701 
L 162.512976 462.959914 
L 163.589042 464.263881 
L 164.197898 465.747133 
L 164.647067 467.098061 
L 164.693578 469.932241 
L 164.197898 471.732021 
L 163.895667 472.766421 
L 162.512976 475.063166 
L 162.156814 475.600602 
L 160.828054 476.915469 
L 159.143132 478.368544 
L 159.051937 478.434782 
L 157.45821 479.304454 
L 155.773288 480.033846 
L 154.088366 480.568302 
L 152.403444 480.902278 
L 150.718522 481.031439 
L 149.0336 480.953722 
L 147.348678 480.668687 
L 145.663756 480.174858 
L 143.978834 479.465316 
L 142.293912 478.522154 
z
" clip-path="url(#pb74c7f6c0a)" style="fill: #1663aa"/>
    <path d="M 142.293912 478.522154 
L 143.978834 479.465316 
L 145.663756 480.174858 
L 147.348678 480.668687 
L 149.0336 480.953722 
L 150.718522 481.031439 
L 152.403444 480.902278 
L 154.088366 480.568302 
L 155.773288 480.033846 
L 157.45821 479.304454 
L 159.051937 478.434782 
L 159.143132 478.368544 
L 160.828054 476.915469 
L 162.156814 475.600602 
L 162.512976 475.063166 
L 163.895667 472.766421 
L 164.197898 471.732021 
L 164.693578 469.932241 
L 164.647067 467.098061 
L 164.197898 465.747133 
L 163.589042 464.263881 
L 162.512976 462.959914 
L 160.828054 461.429701 
L 160.828054 461.429701 
L 159.143132 460.599795 
L 157.45821 460.004394 
L 155.773288 459.603373 
L 154.088366 459.373381 
L 152.403444 459.3047 
L 150.718522 459.398527 
L 149.0336 459.664409 
L 147.348678 460.117724 
L 145.663756 460.777334 
L 144.422421 461.429701 
L 143.978834 461.725527 
L 142.293912 463.145302 
L 141.200378 464.263881 
L 140.60899 465.138123 
L 139.462119 467.098061 
L 138.924068 468.858621 
L 138.627106 469.932241 
L 138.629662 472.766421 
L 138.924068 473.719335 
L 139.635266 475.600602 
L 140.60899 476.851444 
L 142.168061 478.434782 
z
" clip-path="url(#pb74c7f6c0a)" style="fill: #084285"/>
   </g>
   <g id="matplotlib.axis_1">
    <g id="xtick_1">
     <g id="line2d_1">
      <defs>
       <path id="m779b49da4a" d="M 0 0 
L 0 3.5 
" style="stroke: #000000; stroke-width: 0.8"/>
      </defs>
      <g>
       <use xlink:href="#m779b49da4a" x="137.233949" y="499.48" style="stroke: #000000; stroke-width: 0.8"/>
      </g>
     </g>
     <g id="text_1">
      <!-- 2.5 -->
      <g transform="translate(119.740512 523.196563) scale(0.22 -0.22)">
       <defs>
        <path id="DejaVuSans-32" d="M 1228 531 
L 3431 531 
L 3431 0 
L 469 0 
L 469 531 
Q 828 903 1448 1529 
Q 2069 2156 2228 2338 
Q 2531 2678 2651 2914 
Q 2772 3150 2772 3378 
Q 2772 3750 2511 3984 
Q 2250 4219 1831 4219 
Q 1534 4219 1204 4116 
Q 875 4013 500 3803 
L 500 4441 
Q 881 4594 1212 4672 
Q 1544 4750 1819 4750 
Q 2544 4750 2975 4387 
Q 3406 4025 3406 3419 
Q 3406 3131 3298 2873 
Q 3191 2616 2906 2266 
Q 2828 2175 2409 1742 
Q 1991 1309 1228 531 
z
" transform="scale(0.015625)"/>
        <path id="DejaVuSans-2e" d="M 684 794 
L 1344 794 
L 1344 0 
L 684 0 
L 684 794 
z
" transform="scale(0.015625)"/>
        <path id="DejaVuSans-35" d="M 691 4666 
L 3169 4666 
L 3169 4134 
L 1269 4134 
L 1269 2991 
Q 1406 3038 1543 3061 
Q 1681 3084 1819 3084 
Q 2600 3084 3056 2656 
Q 3513 2228 3513 1497 
Q 3513 744 3044 326 
Q 2575 -91 1722 -91 
Q 1428 -91 1123 -41 
Q 819 9 494 109 
L 494 744 
Q 775 591 1075 516 
Q 1375 441 1709 441 
Q 2250 441 2565 725 
Q 2881 1009 2881 1497 
Q 2881 1984 2565 2268 
Q 2250 2553 1709 2553 
Q 1456 2553 1204 2497 
Q 953 2441 691 2322 
L 691 4666 
z
" transform="scale(0.015625)"/>
       </defs>
       <use xlink:href="#DejaVuSans-32"/>
       <use xlink:href="#DejaVuSans-2e" x="63.623047"/>
       <use xlink:href="#DejaVuSans-35" x="95.410156"/>
      </g>
     </g>
    </g>
    <g id="xtick_2">
     <g id="line2d_2">
      <g>
       <use xlink:href="#m779b49da4a" x="213.39359" y="499.48" style="stroke: #000000; stroke-width: 0.8"/>
      </g>
     </g>
     <g id="text_2">
      <!-- 5.0 -->
      <g transform="translate(195.900152 523.196563) scale(0.22 -0.22)">
       <defs>
        <path id="DejaVuSans-30" d="M 2034 4250 
Q 1547 4250 1301 3770 
Q 1056 3291 1056 2328 
Q 1056 1369 1301 889 
Q 1547 409 2034 409 
Q 2525 409 2770 889 
Q 3016 1369 3016 2328 
Q 3016 3291 2770 3770 
Q 2525 4250 2034 4250 
z
M 2034 4750 
Q 2819 4750 3233 4129 
Q 3647 3509 3647 2328 
Q 3647 1150 3233 529 
Q 2819 -91 2034 -91 
Q 1250 -91 836 529 
Q 422 1150 422 2328 
Q 422 3509 836 4129 
Q 1250 4750 2034 4750 
z
" transform="scale(0.015625)"/>
       </defs>
       <use xlink:href="#DejaVuSans-35"/>
       <use xlink:href="#DejaVuSans-2e" x="63.623047"/>
       <use xlink:href="#DejaVuSans-30" x="95.410156"/>
      </g>
     </g>
    </g>
    <g id="xtick_3">
     <g id="line2d_3">
      <g>
       <use xlink:href="#m779b49da4a" x="289.55323" y="499.48" style="stroke: #000000; stroke-width: 0.8"/>
      </g>
     </g>
     <g id="text_3">
      <!-- 7.5 -->
      <g transform="translate(272.059793 523.196563) scale(0.22 -0.22)">
       <defs>
        <path id="DejaVuSans-37" d="M 525 4666 
L 3525 4666 
L 3525 4397 
L 1831 0 
L 1172 0 
L 2766 4134 
L 525 4134 
L 525 4666 
z
" transform="scale(0.015625)"/>
       </defs>
       <use xlink:href="#DejaVuSans-37"/>
       <use xlink:href="#DejaVuSans-2e" x="63.623047"/>
       <use xlink:href="#DejaVuSans-35" x="95.410156"/>
      </g>
     </g>
    </g>
    <g id="xtick_4">
     <g id="line2d_4">
      <g>
       <use xlink:href="#m779b49da4a" x="365.712871" y="499.48" style="stroke: #000000; stroke-width: 0.8"/>
      </g>
     </g>
     <g id="text_4">
      <!-- 10.0 -->
      <g transform="translate(341.220683 523.196563) scale(0.22 -0.22)">
       <defs>
        <path id="DejaVuSans-31" d="M 794 531 
L 1825 531 
L 1825 4091 
L 703 3866 
L 703 4441 
L 1819 4666 
L 2450 4666 
L 2450 531 
L 3481 531 
L 3481 0 
L 794 0 
L 794 531 
z
" transform="scale(0.015625)"/>
       </defs>
       <use xlink:href="#DejaVuSans-31"/>
       <use xlink:href="#DejaVuSans-30" x="63.623047"/>
       <use xlink:href="#DejaVuSans-2e" x="127.246094"/>
       <use xlink:href="#DejaVuSans-30" x="159.033203"/>
      </g>
     </g>
    </g>
    <g id="xtick_5">
     <g id="line2d_5">
      <g>
       <use xlink:href="#m779b49da4a" x="441.872511" y="499.48" style="stroke: #000000; stroke-width: 0.8"/>
      </g>
     </g>
     <g id="text_5">
      <!-- 12.5 -->
      <g transform="translate(417.380324 523.196563) scale(0.22 -0.22)">
       <use xlink:href="#DejaVuSans-31"/>
       <use xlink:href="#DejaVuSans-32" x="63.623047"/>
       <use xlink:href="#DejaVuSans-2e" x="127.246094"/>
       <use xlink:href="#DejaVuSans-35" x="159.033203"/>
      </g>
     </g>
    </g>
    <g id="xtick_6">
     <g id="line2d_6">
      <g>
       <use xlink:href="#m779b49da4a" x="518.032151" y="499.48" style="stroke: #000000; stroke-width: 0.8"/>
      </g>
     </g>
     <g id="text_6">
      <!-- 15.0 -->
      <g transform="translate(493.539964 523.196563) scale(0.22 -0.22)">
       <use xlink:href="#DejaVuSans-31"/>
       <use xlink:href="#DejaVuSans-35" x="63.623047"/>
       <use xlink:href="#DejaVuSans-2e" x="127.246094"/>
       <use xlink:href="#DejaVuSans-30" x="159.033203"/>
      </g>
     </g>
    </g>
    <g id="xtick_7">
     <g id="line2d_7">
      <g>
       <use xlink:href="#m779b49da4a" x="594.191792" y="499.48" style="stroke: #000000; stroke-width: 0.8"/>
      </g>
     </g>
     <g id="text_7">
      <!-- 17.5 -->
      <g transform="translate(569.699604 523.196563) scale(0.22 -0.22)">
       <use xlink:href="#DejaVuSans-31"/>
       <use xlink:href="#DejaVuSans-37" x="63.623047"/>
       <use xlink:href="#DejaVuSans-2e" x="127.246094"/>
       <use xlink:href="#DejaVuSans-35" x="159.033203"/>
      </g>
     </g>
    </g>
    <g id="xtick_8">
     <g id="line2d_8">
      <g>
       <use xlink:href="#m779b49da4a" x="670.351432" y="499.48" style="stroke: #000000; stroke-width: 0.8"/>
      </g>
     </g>
     <g id="text_8">
      <!-- 20.0 -->
      <g transform="translate(645.859245 523.196563) scale(0.22 -0.22)">
       <use xlink:href="#DejaVuSans-32"/>
       <use xlink:href="#DejaVuSans-30" x="63.623047"/>
       <use xlink:href="#DejaVuSans-2e" x="127.246094"/>
       <use xlink:href="#DejaVuSans-30" x="159.033203"/>
      </g>
     </g>
    </g>
    <g id="text_9">
     <!-- Force Uncertainties -->
     <g transform="translate(293.36762 548.488438) scale(0.22 -0.22)">
      <defs>
       <path id="DejaVuSans-46" d="M 628 4666 
L 3309 4666 
L 3309 4134 
L 1259 4134 
L 1259 2759 
L 3109 2759 
L 3109 2228 
L 1259 2228 
L 1259 0 
L 628 0 
L 628 4666 
z
" transform="scale(0.015625)"/>
       <path id="DejaVuSans-6f" d="M 1959 3097 
Q 1497 3097 1228 2736 
Q 959 2375 959 1747 
Q 959 1119 1226 758 
Q 1494 397 1959 397 
Q 2419 397 2687 759 
Q 2956 1122 2956 1747 
Q 2956 2369 2687 2733 
Q 2419 3097 1959 3097 
z
M 1959 3584 
Q 2709 3584 3137 3096 
Q 3566 2609 3566 1747 
Q 3566 888 3137 398 
Q 2709 -91 1959 -91 
Q 1206 -91 779 398 
Q 353 888 353 1747 
Q 353 2609 779 3096 
Q 1206 3584 1959 3584 
z
" transform="scale(0.015625)"/>
       <path id="DejaVuSans-72" d="M 2631 2963 
Q 2534 3019 2420 3045 
Q 2306 3072 2169 3072 
Q 1681 3072 1420 2755 
Q 1159 2438 1159 1844 
L 1159 0 
L 581 0 
L 581 3500 
L 1159 3500 
L 1159 2956 
Q 1341 3275 1631 3429 
Q 1922 3584 2338 3584 
Q 2397 3584 2469 3576 
Q 2541 3569 2628 3553 
L 2631 2963 
z
" transform="scale(0.015625)"/>
       <path id="DejaVuSans-63" d="M 3122 3366 
L 3122 2828 
Q 2878 2963 2633 3030 
Q 2388 3097 2138 3097 
Q 1578 3097 1268 2742 
Q 959 2388 959 1747 
Q 959 1106 1268 751 
Q 1578 397 2138 397 
Q 2388 397 2633 464 
Q 2878 531 3122 666 
L 3122 134 
Q 2881 22 2623 -34 
Q 2366 -91 2075 -91 
Q 1284 -91 818 406 
Q 353 903 353 1747 
Q 353 2603 823 3093 
Q 1294 3584 2113 3584 
Q 2378 3584 2631 3529 
Q 2884 3475 3122 3366 
z
" transform="scale(0.015625)"/>
       <path id="DejaVuSans-65" d="M 3597 1894 
L 3597 1613 
L 953 1613 
Q 991 1019 1311 708 
Q 1631 397 2203 397 
Q 2534 397 2845 478 
Q 3156 559 3463 722 
L 3463 178 
Q 3153 47 2828 -22 
Q 2503 -91 2169 -91 
Q 1331 -91 842 396 
Q 353 884 353 1716 
Q 353 2575 817 3079 
Q 1281 3584 2069 3584 
Q 2775 3584 3186 3129 
Q 3597 2675 3597 1894 
z
M 3022 2063 
Q 3016 2534 2758 2815 
Q 2500 3097 2075 3097 
Q 1594 3097 1305 2825 
Q 1016 2553 972 2059 
L 3022 2063 
z
" transform="scale(0.015625)"/>
       <path id="DejaVuSans-20" transform="scale(0.015625)"/>
       <path id="DejaVuSans-55" d="M 556 4666 
L 1191 4666 
L 1191 1831 
Q 1191 1081 1462 751 
Q 1734 422 2344 422 
Q 2950 422 3222 751 
Q 3494 1081 3494 1831 
L 3494 4666 
L 4128 4666 
L 4128 1753 
Q 4128 841 3676 375 
Q 3225 -91 2344 -91 
Q 1459 -91 1007 375 
Q 556 841 556 1753 
L 556 4666 
z
" transform="scale(0.015625)"/>
       <path id="DejaVuSans-6e" d="M 3513 2113 
L 3513 0 
L 2938 0 
L 2938 2094 
Q 2938 2591 2744 2837 
Q 2550 3084 2163 3084 
Q 1697 3084 1428 2787 
Q 1159 2491 1159 1978 
L 1159 0 
L 581 0 
L 581 3500 
L 1159 3500 
L 1159 2956 
Q 1366 3272 1645 3428 
Q 1925 3584 2291 3584 
Q 2894 3584 3203 3211 
Q 3513 2838 3513 2113 
z
" transform="scale(0.015625)"/>
       <path id="DejaVuSans-74" d="M 1172 4494 
L 1172 3500 
L 2356 3500 
L 2356 3053 
L 1172 3053 
L 1172 1153 
Q 1172 725 1289 603 
Q 1406 481 1766 481 
L 2356 481 
L 2356 0 
L 1766 0 
Q 1100 0 847 248 
Q 594 497 594 1153 
L 594 3053 
L 172 3053 
L 172 3500 
L 594 3500 
L 594 4494 
L 1172 4494 
z
" transform="scale(0.015625)"/>
       <path id="DejaVuSans-61" d="M 2194 1759 
Q 1497 1759 1228 1600 
Q 959 1441 959 1056 
Q 959 750 1161 570 
Q 1363 391 1709 391 
Q 2188 391 2477 730 
Q 2766 1069 2766 1631 
L 2766 1759 
L 2194 1759 
z
M 3341 1997 
L 3341 0 
L 2766 0 
L 2766 531 
Q 2569 213 2275 61 
Q 1981 -91 1556 -91 
Q 1019 -91 701 211 
Q 384 513 384 1019 
Q 384 1609 779 1909 
Q 1175 2209 1959 2209 
L 2766 2209 
L 2766 2266 
Q 2766 2663 2505 2880 
Q 2244 3097 1772 3097 
Q 1472 3097 1187 3025 
Q 903 2953 641 2809 
L 641 3341 
Q 956 3463 1253 3523 
Q 1550 3584 1831 3584 
Q 2591 3584 2966 3190 
Q 3341 2797 3341 1997 
z
" transform="scale(0.015625)"/>
       <path id="DejaVuSans-69" d="M 603 3500 
L 1178 3500 
L 1178 0 
L 603 0 
L 603 3500 
z
M 603 4863 
L 1178 4863 
L 1178 4134 
L 603 4134 
L 603 4863 
z
" transform="scale(0.015625)"/>
       <path id="DejaVuSans-73" d="M 2834 3397 
L 2834 2853 
Q 2591 2978 2328 3040 
Q 2066 3103 1784 3103 
Q 1356 3103 1142 2972 
Q 928 2841 928 2578 
Q 928 2378 1081 2264 
Q 1234 2150 1697 2047 
L 1894 2003 
Q 2506 1872 2764 1633 
Q 3022 1394 3022 966 
Q 3022 478 2636 193 
Q 2250 -91 1575 -91 
Q 1294 -91 989 -36 
Q 684 19 347 128 
L 347 722 
Q 666 556 975 473 
Q 1284 391 1588 391 
Q 1994 391 2212 530 
Q 2431 669 2431 922 
Q 2431 1156 2273 1281 
Q 2116 1406 1581 1522 
L 1381 1569 
Q 847 1681 609 1914 
Q 372 2147 372 2553 
Q 372 3047 722 3315 
Q 1072 3584 1716 3584 
Q 2034 3584 2315 3537 
Q 2597 3491 2834 3397 
z
" transform="scale(0.015625)"/>
      </defs>
      <use xlink:href="#DejaVuSans-46"/>
      <use xlink:href="#DejaVuSans-6f" x="53.894531"/>
      <use xlink:href="#DejaVuSans-72" x="115.076172"/>
      <use xlink:href="#DejaVuSans-63" x="153.939453"/>
      <use xlink:href="#DejaVuSans-65" x="208.919922"/>
      <use xlink:href="#DejaVuSans-20" x="270.443359"/>
      <use xlink:href="#DejaVuSans-55" x="302.230469"/>
      <use xlink:href="#DejaVuSans-6e" x="375.423828"/>
      <use xlink:href="#DejaVuSans-63" x="438.802734"/>
      <use xlink:href="#DejaVuSans-65" x="493.783203"/>
      <use xlink:href="#DejaVuSans-72" x="555.306641"/>
      <use xlink:href="#DejaVuSans-74" x="596.419922"/>
      <use xlink:href="#DejaVuSans-61" x="635.628906"/>
      <use xlink:href="#DejaVuSans-69" x="696.908203"/>
      <use xlink:href="#DejaVuSans-6e" x="724.691406"/>
      <use xlink:href="#DejaVuSans-74" x="788.070312"/>
      <use xlink:href="#DejaVuSans-69" x="827.279297"/>
      <use xlink:href="#DejaVuSans-65" x="855.0625"/>
      <use xlink:href="#DejaVuSans-73" x="916.585938"/>
     </g>
    </g>
   </g>
   <g id="matplotlib.axis_2">
    <g id="ytick_1">
     <g id="line2d_9">
      <defs>
       <path id="m635881f15f" d="M 0 0 
L -3.5 0 
" style="stroke: #000000; stroke-width: 0.8"/>
      </defs>
      <g>
       <use xlink:href="#m635881f15f" x="104.69" y="473.260226" style="stroke: #000000; stroke-width: 0.8"/>
      </g>
     </g>
     <g id="text_10">
      <!-- 2.5 -->
      <g transform="translate(62.703125 481.618508) scale(0.22 -0.22)">
       <use xlink:href="#DejaVuSans-32"/>
       <use xlink:href="#DejaVuSans-2e" x="63.623047"/>
       <use xlink:href="#DejaVuSans-35" x="95.410156"/>
      </g>
     </g>
    </g>
    <g id="ytick_2">
     <g id="line2d_10">
      <g>
       <use xlink:href="#m635881f15f" x="104.69" y="411.900478" style="stroke: #000000; stroke-width: 0.8"/>
      </g>
     </g>
     <g id="text_11">
      <!-- 5.0 -->
      <g transform="translate(62.703125 420.25876) scale(0.22 -0.22)">
       <use xlink:href="#DejaVuSans-35"/>
       <use xlink:href="#DejaVuSans-2e" x="63.623047"/>
       <use xlink:href="#DejaVuSans-30" x="95.410156"/>
      </g>
     </g>
    </g>
    <g id="ytick_3">
     <g id="line2d_11">
      <g>
       <use xlink:href="#m635881f15f" x="104.69" y="350.54073" style="stroke: #000000; stroke-width: 0.8"/>
      </g>
     </g>
     <g id="text_12">
      <!-- 7.5 -->
      <g transform="translate(62.703125 358.899012) scale(0.22 -0.22)">
       <use xlink:href="#DejaVuSans-37"/>
       <use xlink:href="#DejaVuSans-2e" x="63.623047"/>
       <use xlink:href="#DejaVuSans-35" x="95.410156"/>
      </g>
     </g>
    </g>
    <g id="ytick_4">
     <g id="line2d_12">
      <g>
       <use xlink:href="#m635881f15f" x="104.69" y="289.180982" style="stroke: #000000; stroke-width: 0.8"/>
      </g>
     </g>
     <g id="text_13">
      <!-- 10.0 -->
      <g transform="translate(48.705625 297.539264) scale(0.22 -0.22)">
       <use xlink:href="#DejaVuSans-31"/>
       <use xlink:href="#DejaVuSans-30" x="63.623047"/>
       <use xlink:href="#DejaVuSans-2e" x="127.246094"/>
       <use xlink:href="#DejaVuSans-30" x="159.033203"/>
      </g>
     </g>
    </g>
    <g id="ytick_5">
     <g id="line2d_13">
      <g>
       <use xlink:href="#m635881f15f" x="104.69" y="227.821235" style="stroke: #000000; stroke-width: 0.8"/>
      </g>
     </g>
     <g id="text_14">
      <!-- 12.5 -->
      <g transform="translate(48.705625 236.179516) scale(0.22 -0.22)">
       <use xlink:href="#DejaVuSans-31"/>
       <use xlink:href="#DejaVuSans-32" x="63.623047"/>
       <use xlink:href="#DejaVuSans-2e" x="127.246094"/>
       <use xlink:href="#DejaVuSans-35" x="159.033203"/>
      </g>
     </g>
    </g>
    <g id="ytick_6">
     <g id="line2d_14">
      <g>
       <use xlink:href="#m635881f15f" x="104.69" y="166.461487" style="stroke: #000000; stroke-width: 0.8"/>
      </g>
     </g>
     <g id="text_15">
      <!-- 15.0 -->
      <g transform="translate(48.705625 174.819768) scale(0.22 -0.22)">
       <use xlink:href="#DejaVuSans-31"/>
       <use xlink:href="#DejaVuSans-35" x="63.623047"/>
       <use xlink:href="#DejaVuSans-2e" x="127.246094"/>
       <use xlink:href="#DejaVuSans-30" x="159.033203"/>
      </g>
     </g>
    </g>
    <g id="ytick_7">
     <g id="line2d_15">
      <g>
       <use xlink:href="#m635881f15f" x="104.69" y="105.101739" style="stroke: #000000; stroke-width: 0.8"/>
      </g>
     </g>
     <g id="text_16">
      <!-- 17.5 -->
      <g transform="translate(48.705625 113.46002) scale(0.22 -0.22)">
       <use xlink:href="#DejaVuSans-31"/>
       <use xlink:href="#DejaVuSans-37" x="63.623047"/>
       <use xlink:href="#DejaVuSans-2e" x="127.246094"/>
       <use xlink:href="#DejaVuSans-35" x="159.033203"/>
      </g>
     </g>
    </g>
    <g id="ytick_8">
     <g id="line2d_16">
      <g>
       <use xlink:href="#m635881f15f" x="104.69" y="43.741991" style="stroke: #000000; stroke-width: 0.8"/>
      </g>
     </g>
     <g id="text_17">
      <!-- 20.0 -->
      <g transform="translate(48.705625 52.100272) scale(0.22 -0.22)">
       <use xlink:href="#DejaVuSans-32"/>
       <use xlink:href="#DejaVuSans-30" x="63.623047"/>
       <use xlink:href="#DejaVuSans-2e" x="127.246094"/>
       <use xlink:href="#DejaVuSans-30" x="159.033203"/>
      </g>
     </g>
    </g>
    <g id="text_18">
     <!-- Force Errors [kJ/(mol*A)] -->
     <g transform="translate(40.130313 394.9125) rotate(-90) scale(0.22 -0.22)">
      <defs>
       <path id="DejaVuSans-45" d="M 628 4666 
L 3578 4666 
L 3578 4134 
L 1259 4134 
L 1259 2753 
L 3481 2753 
L 3481 2222 
L 1259 2222 
L 1259 531 
L 3634 531 
L 3634 0 
L 628 0 
L 628 4666 
z
" transform="scale(0.015625)"/>
       <path id="DejaVuSans-5b" d="M 550 4863 
L 1875 4863 
L 1875 4416 
L 1125 4416 
L 1125 -397 
L 1875 -397 
L 1875 -844 
L 550 -844 
L 550 4863 
z
" transform="scale(0.015625)"/>
       <path id="DejaVuSans-6b" d="M 581 4863 
L 1159 4863 
L 1159 1991 
L 2875 3500 
L 3609 3500 
L 1753 1863 
L 3688 0 
L 2938 0 
L 1159 1709 
L 1159 0 
L 581 0 
L 581 4863 
z
" transform="scale(0.015625)"/>
       <path id="DejaVuSans-4a" d="M 628 4666 
L 1259 4666 
L 1259 325 
Q 1259 -519 939 -900 
Q 619 -1281 -91 -1281 
L -331 -1281 
L -331 -750 
L -134 -750 
Q 284 -750 456 -515 
Q 628 -281 628 325 
L 628 4666 
z
" transform="scale(0.015625)"/>
       <path id="DejaVuSans-2f" d="M 1625 4666 
L 2156 4666 
L 531 -594 
L 0 -594 
L 1625 4666 
z
" transform="scale(0.015625)"/>
       <path id="DejaVuSans-28" d="M 1984 4856 
Q 1566 4138 1362 3434 
Q 1159 2731 1159 2009 
Q 1159 1288 1364 580 
Q 1569 -128 1984 -844 
L 1484 -844 
Q 1016 -109 783 600 
Q 550 1309 550 2009 
Q 550 2706 781 3412 
Q 1013 4119 1484 4856 
L 1984 4856 
z
" transform="scale(0.015625)"/>
       <path id="DejaVuSans-6d" d="M 3328 2828 
Q 3544 3216 3844 3400 
Q 4144 3584 4550 3584 
Q 5097 3584 5394 3201 
Q 5691 2819 5691 2113 
L 5691 0 
L 5113 0 
L 5113 2094 
Q 5113 2597 4934 2840 
Q 4756 3084 4391 3084 
Q 3944 3084 3684 2787 
Q 3425 2491 3425 1978 
L 3425 0 
L 2847 0 
L 2847 2094 
Q 2847 2600 2669 2842 
Q 2491 3084 2119 3084 
Q 1678 3084 1418 2786 
Q 1159 2488 1159 1978 
L 1159 0 
L 581 0 
L 581 3500 
L 1159 3500 
L 1159 2956 
Q 1356 3278 1631 3431 
Q 1906 3584 2284 3584 
Q 2666 3584 2933 3390 
Q 3200 3197 3328 2828 
z
" transform="scale(0.015625)"/>
       <path id="DejaVuSans-6c" d="M 603 4863 
L 1178 4863 
L 1178 0 
L 603 0 
L 603 4863 
z
" transform="scale(0.015625)"/>
       <path id="DejaVuSans-2a" d="M 3009 3897 
L 1888 3291 
L 3009 2681 
L 2828 2375 
L 1778 3009 
L 1778 1831 
L 1422 1831 
L 1422 3009 
L 372 2375 
L 191 2681 
L 1313 3291 
L 191 3897 
L 372 4206 
L 1422 3572 
L 1422 4750 
L 1778 4750 
L 1778 3572 
L 2828 4206 
L 3009 3897 
z
" transform="scale(0.015625)"/>
       <path id="DejaVuSans-41" d="M 2188 4044 
L 1331 1722 
L 3047 1722 
L 2188 4044 
z
M 1831 4666 
L 2547 4666 
L 4325 0 
L 3669 0 
L 3244 1197 
L 1141 1197 
L 716 0 
L 50 0 
L 1831 4666 
z
" transform="scale(0.015625)"/>
       <path id="DejaVuSans-29" d="M 513 4856 
L 1013 4856 
Q 1481 4119 1714 3412 
Q 1947 2706 1947 2009 
Q 1947 1309 1714 600 
Q 1481 -109 1013 -844 
L 513 -844 
Q 928 -128 1133 580 
Q 1338 1288 1338 2009 
Q 1338 2731 1133 3434 
Q 928 4138 513 4856 
z
" transform="scale(0.015625)"/>
       <path id="DejaVuSans-5d" d="M 1947 4863 
L 1947 -844 
L 622 -844 
L 622 -397 
L 1369 -397 
L 1369 4416 
L 622 4416 
L 622 4863 
L 1947 4863 
z
" transform="scale(0.015625)"/>
      </defs>
      <use xlink:href="#DejaVuSans-46"/>
      <use xlink:href="#DejaVuSans-6f" x="53.894531"/>
      <use xlink:href="#DejaVuSans-72" x="115.076172"/>
      <use xlink:href="#DejaVuSans-63" x="153.939453"/>
      <use xlink:href="#DejaVuSans-65" x="208.919922"/>
      <use xlink:href="#DejaVuSans-20" x="270.443359"/>
      <use xlink:href="#DejaVuSans-45" x="302.230469"/>
      <use xlink:href="#DejaVuSans-72" x="365.414062"/>
      <use xlink:href="#DejaVuSans-72" x="404.777344"/>
      <use xlink:href="#DejaVuSans-6f" x="443.640625"/>
      <use xlink:href="#DejaVuSans-72" x="504.822266"/>
      <use xlink:href="#DejaVuSans-73" x="545.935547"/>
      <use xlink:href="#DejaVuSans-20" x="598.035156"/>
      <use xlink:href="#DejaVuSans-5b" x="629.822266"/>
      <use xlink:href="#DejaVuSans-6b" x="668.835938"/>
      <use xlink:href="#DejaVuSans-4a" x="726.746094"/>
      <use xlink:href="#DejaVuSans-2f" x="756.238281"/>
      <use xlink:href="#DejaVuSans-28" x="789.929688"/>
      <use xlink:href="#DejaVuSans-6d" x="828.943359"/>
      <use xlink:href="#DejaVuSans-6f" x="926.355469"/>
      <use xlink:href="#DejaVuSans-6c" x="987.537109"/>
      <use xlink:href="#DejaVuSans-2a" x="1015.320312"/>
      <use xlink:href="#DejaVuSans-41" x="1065.320312"/>
      <use xlink:href="#DejaVuSans-29" x="1133.728516"/>
      <use xlink:href="#DejaVuSans-5d" x="1172.742188"/>
     </g>
    </g>
   </g>
   <g id="line2d_17">
    <path d="M 104.69 499.48 
L 695.153053 23.76 
" clip-path="url(#pb74c7f6c0a)" style="fill: none; stroke-dasharray: 5.55,2.4; stroke-dashoffset: 0; stroke: #ff0000; stroke-width: 1.5"/>
   </g>
   <g id="patch_3">
    <path d="M 104.69 499.48 
L 104.69 23.76 
" style="fill: none; stroke: #000000; stroke-width: 0.8; stroke-linejoin: miter; stroke-linecap: square"/>
   </g>
   <g id="patch_4">
    <path d="M 695.153053 499.48 
L 695.153053 23.76 
" style="fill: none; stroke: #000000; stroke-width: 0.8; stroke-linejoin: miter; stroke-linecap: square"/>
   </g>
   <g id="patch_5">
    <path d="M 104.69 499.48 
L 695.153053 499.48 
" style="fill: none; stroke: #000000; stroke-width: 0.8; stroke-linejoin: miter; stroke-linecap: square"/>
   </g>
   <g id="patch_6">
    <path d="M 104.69 23.76 
L 695.153053 23.76 
" style="fill: none; stroke: #000000; stroke-width: 0.8; stroke-linejoin: miter; stroke-linecap: square"/>
   </g>
   <g id="text_19">
    <!-- Correlation in: 0.349 -->
    <g transform="translate(163.736305 71.332) scale(0.22 -0.22)">
     <defs>
      <path id="DejaVuSans-43" d="M 4122 4306 
L 4122 3641 
Q 3803 3938 3442 4084 
Q 3081 4231 2675 4231 
Q 1875 4231 1450 3742 
Q 1025 3253 1025 2328 
Q 1025 1406 1450 917 
Q 1875 428 2675 428 
Q 3081 428 3442 575 
Q 3803 722 4122 1019 
L 4122 359 
Q 3791 134 3420 21 
Q 3050 -91 2638 -91 
Q 1578 -91 968 557 
Q 359 1206 359 2328 
Q 359 3453 968 4101 
Q 1578 4750 2638 4750 
Q 3056 4750 3426 4639 
Q 3797 4528 4122 4306 
z
" transform="scale(0.015625)"/>
      <path id="DejaVuSans-3a" d="M 750 794 
L 1409 794 
L 1409 0 
L 750 0 
L 750 794 
z
M 750 3309 
L 1409 3309 
L 1409 2516 
L 750 2516 
L 750 3309 
z
" transform="scale(0.015625)"/>
      <path id="DejaVuSans-33" d="M 2597 2516 
Q 3050 2419 3304 2112 
Q 3559 1806 3559 1356 
Q 3559 666 3084 287 
Q 2609 -91 1734 -91 
Q 1441 -91 1130 -33 
Q 819 25 488 141 
L 488 750 
Q 750 597 1062 519 
Q 1375 441 1716 441 
Q 2309 441 2620 675 
Q 2931 909 2931 1356 
Q 2931 1769 2642 2001 
Q 2353 2234 1838 2234 
L 1294 2234 
L 1294 2753 
L 1863 2753 
Q 2328 2753 2575 2939 
Q 2822 3125 2822 3475 
Q 2822 3834 2567 4026 
Q 2313 4219 1838 4219 
Q 1578 4219 1281 4162 
Q 984 4106 628 3988 
L 628 4550 
Q 988 4650 1302 4700 
Q 1616 4750 1894 4750 
Q 2613 4750 3031 4423 
Q 3450 4097 3450 3541 
Q 3450 3153 3228 2886 
Q 3006 2619 2597 2516 
z
" transform="scale(0.015625)"/>
      <path id="DejaVuSans-34" d="M 2419 4116 
L 825 1625 
L 2419 1625 
L 2419 4116 
z
M 2253 4666 
L 3047 4666 
L 3047 1625 
L 3713 1625 
L 3713 1100 
L 3047 1100 
L 3047 0 
L 2419 0 
L 2419 1100 
L 313 1100 
L 313 1709 
L 2253 4666 
z
" transform="scale(0.015625)"/>
      <path id="DejaVuSans-39" d="M 703 97 
L 703 672 
Q 941 559 1184 500 
Q 1428 441 1663 441 
Q 2288 441 2617 861 
Q 2947 1281 2994 2138 
Q 2813 1869 2534 1725 
Q 2256 1581 1919 1581 
Q 1219 1581 811 2004 
Q 403 2428 403 3163 
Q 403 3881 828 4315 
Q 1253 4750 1959 4750 
Q 2769 4750 3195 4129 
Q 3622 3509 3622 2328 
Q 3622 1225 3098 567 
Q 2575 -91 1691 -91 
Q 1453 -91 1209 -44 
Q 966 3 703 97 
z
M 1959 2075 
Q 2384 2075 2632 2365 
Q 2881 2656 2881 3163 
Q 2881 3666 2632 3958 
Q 2384 4250 1959 4250 
Q 1534 4250 1286 3958 
Q 1038 3666 1038 3163 
Q 1038 2656 1286 2365 
Q 1534 2075 1959 2075 
z
" transform="scale(0.015625)"/>
     </defs>
     <use xlink:href="#DejaVuSans-43"/>
     <use xlink:href="#DejaVuSans-6f" x="69.824219"/>
     <use xlink:href="#DejaVuSans-72" x="131.005859"/>
     <use xlink:href="#DejaVuSans-72" x="170.369141"/>
     <use xlink:href="#DejaVuSans-65" x="209.232422"/>
     <use xlink:href="#DejaVuSans-6c" x="270.755859"/>
     <use xlink:href="#DejaVuSans-61" x="298.539062"/>
     <use xlink:href="#DejaVuSans-74" x="359.818359"/>
     <use xlink:href="#DejaVuSans-69" x="399.027344"/>
     <use xlink:href="#DejaVuSans-6f" x="426.810547"/>
     <use xlink:href="#DejaVuSans-6e" x="487.992188"/>
     <use xlink:href="#DejaVuSans-20" x="551.371094"/>
     <use xlink:href="#DejaVuSans-69" x="583.158203"/>
     <use xlink:href="#DejaVuSans-6e" x="610.941406"/>
     <use xlink:href="#DejaVuSans-3a" x="674.320312"/>
     <use xlink:href="#DejaVuSans-20" x="708.011719"/>
     <use xlink:href="#DejaVuSans-30" x="739.798828"/>
     <use xlink:href="#DejaVuSans-2e" x="803.421875"/>
     <use xlink:href="#DejaVuSans-33" x="835.208984"/>
     <use xlink:href="#DejaVuSans-34" x="898.832031"/>
     <use xlink:href="#DejaVuSans-39" x="962.455078"/>
    </g>
   </g>
  </g>
 </g>
 <defs>
  <clipPath id="pb74c7f6c0a">
   <rect x="104.69" y="23.76" width="590.463053" height="475.72"/>
  </clipPath>
 </defs>
</svg>
