<?xml version="1.0" encoding="utf-8" standalone="no"?>
<!DOCTYPE svg PUBLIC "-//W3C//DTD SVG 1.1//EN"
  "http://www.w3.org/Graphics/SVG/1.1/DTD/svg11.dtd">
<svg xmlns:xlink="http://www.w3.org/1999/xlink" width="720pt" height="576pt" viewBox="0 0 720 576" xmlns="http://www.w3.org/2000/svg" version="1.1">
 <metadata>
  <rdf:RDF xmlns:dc="http://purl.org/dc/elements/1.1/" xmlns:cc="http://creativecommons.org/ns#" xmlns:rdf="http://www.w3.org/1999/02/22-rdf-syntax-ns#">
   <cc:Work>
    <dc:type rdf:resource="http://purl.org/dc/dcmitype/StillImage"/>
    <dc:date>2024-12-07T14:35:56.380425</dc:date>
    <dc:format>image/svg+xml</dc:format>
    <dc:creator>
     <cc:Agent>
      <dc:title>Matplotlib v3.8.4, https://matplotlib.org/</dc:title>
     </cc:Agent>
    </dc:creator>
   </cc:Work>
  </rdf:RDF>
 </metadata>
 <defs>
  <style type="text/css">*{stroke-linejoin: round; stroke-linecap: butt}</style>
 </defs>
 <g id="figure_1">
  <g id="patch_1">
   <path d="M 0 576 
L 720 576 
L 720 0 
L 0 0 
z
" style="fill: #ffffff"/>
  </g>
  <g id="axes_1">
   <g id="patch_2">
    <path d="M 104.69 499.48 
L 696.24 499.48 
L 696.24 25.954527 
L 104.69 25.954527 
z
" style="fill: #ffffff"/>
   </g>
   <g id="QuadContourSet_1">
    <path d="M 149.720086 521.42566 
L 150.122133 522.04175 
L 150.52418 522.549873 
L 150.926226 522.950777 
L 151.328273 523.251956 
L 151.73032 523.464261 
L 152.132367 523.599431 
L 152.534414 523.668566 
L 152.936461 523.681314 
L 153.338508 523.645501 
L 153.740554 523.56699 
L 154.142601 523.449626 
L 154.544648 523.295203 
L 154.946695 523.103418 
L 155.348742 522.871802 
L 155.750789 522.595624 
L 156.152836 522.267743 
L 156.554882 521.878375 
L 156.956929 521.414728 
L 157.344008 520.882469 
L 157.358976 520.867716 
L 157.761023 520.425118 
L 158.16307 519.898331 
L 158.565117 519.268219 
L 158.967164 518.510943 
L 159.176424 518.060991 
L 159.369211 517.750091 
L 159.771257 517.017538 
L 160.173304 516.142478 
L 160.526479 515.239514 
L 160.575351 515.142265 
L 160.977398 514.303591 
L 161.379445 513.324909 
L 161.710938 512.418036 
L 161.781492 512.263304 
L 162.183539 511.385742 
L 162.585585 510.422952 
L 162.919695 509.596558 
L 162.987632 509.459091 
L 163.389679 508.735748 
L 163.791726 508.050354 
L 164.193773 507.458414 
L 164.59582 507.018253 
L 164.986938 506.775081 
L 164.997867 506.769433 
L 165.399913 506.71329 
L 165.80196 506.745778 
L 166.062641 506.775081 
L 166.204007 506.794522 
L 166.462428 506.775081 
L 166.606054 506.765835 
L 167.008101 506.601697 
L 167.410148 506.259881 
L 167.812195 505.720927 
L 168.214242 504.969961 
L 168.616288 503.982989 
L 168.626212 503.953603 
L 169.018335 502.890845 
L 169.420382 501.557502 
L 169.531965 501.132125 
L 169.822429 500.084668 
L 170.224476 498.388332 
L 170.241565 498.310648 
L 170.626523 496.612132 
L 170.85504 495.48917 
L 171.02857 494.648207 
L 171.407204 492.667692 
L 171.430616 492.545883 
L 171.832663 490.422521 
L 171.939348 489.846215 
L 172.23471 488.266322 
L 172.465738 487.024737 
L 172.636757 486.120533 
L 173.005968 484.203259 
L 173.038804 484.036664 
L 173.440851 482.164493 
L 173.618799 481.381782 
L 173.842898 480.435338 
L 174.244944 478.866572 
L 174.335181 478.560304 
L 174.646991 477.555632 
L 175.049038 476.396518 
L 175.309568 475.738826 
L 175.451085 475.399353 
L 175.853132 474.614765 
L 176.255179 473.897361 
L 176.657226 473.178618 
L 176.798092 472.917349 
L 177.059273 472.46913 
L 177.461319 471.630645 
L 177.863366 470.457593 
L 177.95844 470.095871 
L 178.265413 468.991374 
L 178.622944 467.274393 
L 178.66746 467.056991 
L 179.069507 464.678381 
L 179.101844 464.452916 
L 179.471554 461.650175 
L 179.473761 461.631438 
L 179.756086 458.809961 
L 179.873601 457.151536 
L 179.953592 455.988483 
L 180.052587 453.167005 
L 180.032132 450.345528 
L 179.873601 447.854288 
L 179.848522 447.52405 
L 179.471554 445.098682 
L 179.390721 444.702572 
L 179.069507 443.612192 
L 178.66746 442.609922 
L 178.265413 441.891958 
L 178.257507 441.881095 
L 177.863366 441.405433 
L 177.461319 441.049538 
L 177.059273 440.789997 
L 176.657226 440.600545 
L 176.255179 440.45863 
L 175.853132 440.341707 
L 175.451085 440.223405 
L 175.049038 440.06969 
L 174.646991 439.835169 
L 174.244944 439.459898 
L 173.971646 439.059617 
L 173.842898 438.832053 
L 173.440851 437.75054 
L 173.057106 436.238139 
L 173.038804 436.141527 
L 172.652293 433.416662 
L 172.636757 433.257908 
L 172.423563 430.595184 
L 172.276499 427.773706 
L 172.23471 426.449653 
L 172.191365 424.952229 
L 172.14262 422.130751 
L 172.110824 419.309273 
L 172.080224 416.487796 
L 172.029781 413.666318 
L 171.923325 410.84484 
L 171.832663 409.588751 
L 171.649314 408.023363 
L 171.430616 406.960595 
L 171.02857 406.02184 
L 170.626523 405.669344 
L 170.224476 405.572927 
L 169.822429 405.55471 
L 169.420382 405.495414 
L 169.018335 405.294137 
L 168.932567 405.201885 
L 168.616288 404.745914 
L 168.214242 403.650206 
L 167.925585 402.380407 
L 167.812195 401.577174 
L 167.598115 399.55893 
L 167.410148 396.84948 
L 167.403307 396.737452 
L 167.253122 393.915974 
L 167.100444 391.094497 
L 167.008101 389.432101 
L 166.945816 388.273019 
L 166.805686 385.451541 
L 166.693143 382.630064 
L 166.614273 379.808586 
L 166.606054 379.356964 
L 166.559407 376.987109 
L 166.511195 374.165631 
L 166.44373 371.344153 
L 166.323533 368.522676 
L 166.204007 366.830348 
L 166.097855 365.701198 
L 165.80196 363.423369 
L 165.710319 362.87972 
L 165.399913 361.253946 
L 165.133591 360.058243 
L 164.997867 359.464651 
L 164.59582 357.904664 
L 164.393093 357.236765 
L 164.193773 356.590679 
L 163.791726 355.720906 
L 163.389679 355.47284 
L 162.987632 356.042853 
L 162.658192 357.236765 
L 162.585585 357.587691 
L 162.264708 360.058243 
L 162.183539 361.130025 
L 162.083949 362.87972 
L 162.032473 365.701198 
L 162.04945 368.522676 
L 162.066855 371.344153 
L 162.025865 374.165631 
L 161.897895 376.987109 
L 161.781492 378.380776 
L 161.679881 379.808586 
L 161.379445 382.630064 
L 161.379445 382.630064 
L 161.006296 385.451541 
L 160.977398 385.621453 
L 160.575351 388.211162 
L 160.566443 388.273019 
L 160.173304 390.446059 
L 160.063926 391.094497 
L 159.771257 392.520323 
L 159.502642 393.915974 
L 159.369211 394.498288 
L 158.967164 396.337964 
L 158.883376 396.737452 
L 158.565117 398.022503 
L 158.212542 399.55893 
L 158.16307 399.744008 
L 157.761023 401.287237 
L 157.499574 402.380407 
L 157.358976 402.889522 
L 156.956929 404.429779 
L 156.770491 405.201885 
L 156.554882 405.983674 
L 156.152836 407.580413 
L 156.047665 408.023363 
L 155.750789 409.131346 
L 155.348742 410.84113 
L 155.347885 410.84484 
L 154.946695 412.402242 
L 154.659488 413.666318 
L 154.544648 414.123861 
L 154.142601 415.817106 
L 153.992635 416.487796 
L 153.740554 417.515346 
L 153.343818 419.309273 
L 153.338508 419.331243 
L 152.936461 420.956598 
L 152.670941 422.130751 
L 152.534414 422.684896 
L 152.132367 424.35866 
L 151.99095 424.952229 
L 151.73032 425.960202 
L 151.328273 427.650857 
L 151.297128 427.773706 
L 150.926226 429.128916 
L 150.572166 430.595184 
L 150.52418 430.778395 
L 150.122133 432.274629 
L 149.852993 433.416662 
L 149.720086 433.936861 
L 149.318039 435.670889 
L 149.199365 436.238139 
L 148.915992 437.482489 
L 148.622309 439.059617 
L 148.513945 439.58459 
L 148.120266 441.881095 
L 148.111898 441.924583 
L 147.709852 444.276837 
L 147.648125 444.702572 
L 147.307805 446.766468 
L 147.200141 447.52405 
L 146.905758 449.349495 
L 146.764301 450.345528 
L 146.503711 451.983202 
L 146.334435 453.167005 
L 146.101664 454.649303 
L 145.909025 455.988483 
L 145.699617 457.346981 
L 145.489179 458.809961 
L 145.29757 460.087066 
L 145.077369 461.631438 
L 144.895523 462.889314 
L 144.676726 464.452916 
L 144.493477 465.782739 
L 144.290742 467.274393 
L 144.09143 468.808869 
L 143.923303 470.095871 
L 143.689383 472.028626 
L 143.578966 472.917349 
L 143.287336 475.534791 
L 143.263488 475.738826 
L 142.96304 478.560304 
L 142.885289 479.427465 
L 142.693525 481.381782 
L 142.483242 484.070892 
L 142.471621 484.203259 
L 142.265996 487.024737 
L 142.118323 489.846215 
L 142.081195 490.909541 
L 142.007085 492.667692 
L 141.949024 495.48917 
L 141.956459 498.310648 
L 142.042731 501.132125 
L 142.081195 501.7724 
L 142.21579 503.953603 
L 142.483242 506.489209 
L 142.516895 506.775081 
L 142.885289 509.107805 
L 142.978076 509.596558 
L 143.287336 511.006332 
L 143.688811 512.418036 
L 143.689383 512.419975 
L 144.09143 513.628421 
L 144.493477 514.547096 
L 144.891702 515.239514 
L 144.895523 515.246871 
L 145.29757 515.916646 
L 145.699617 516.447927 
L 146.101664 516.884026 
L 146.503711 517.262809 
L 146.905758 517.617051 
L 147.307805 517.973577 
L 147.397505 518.060991 
L 147.709852 518.458046 
L 148.111898 519.012436 
L 148.513945 519.596101 
L 148.915992 520.187402 
L 149.318039 520.757844 
L 149.408544 520.882469 
z
M 151.370727 512.418036 
L 151.328273 512.370038 
L 150.926226 511.834907 
L 150.52418 511.199431 
L 150.122133 510.480563 
L 149.720086 509.704799 
L 149.66291 509.596558 
L 149.318039 509.027217 
L 148.915992 508.372711 
L 148.513945 507.730631 
L 148.111898 507.094513 
L 147.909029 506.775081 
L 147.709852 506.487025 
L 147.307805 505.869561 
L 146.905758 505.152997 
L 146.503711 504.282641 
L 146.373269 503.953603 
L 146.101664 503.218444 
L 145.699617 501.844741 
L 145.527756 501.132125 
L 145.29757 499.949295 
L 145.034443 498.310648 
L 144.895523 497.044226 
L 144.744344 495.48917 
L 144.596321 492.667692 
L 144.55607 489.846215 
L 144.599746 487.024737 
L 144.714322 484.203259 
L 144.895523 481.381782 
L 144.895523 481.381782 
L 145.118821 478.560304 
L 145.29757 476.769931 
L 145.395454 475.738826 
L 145.699617 473.066896 
L 145.716121 472.917349 
L 146.07126 470.095871 
L 146.101664 469.875718 
L 146.462378 467.274393 
L 146.503711 466.995852 
L 146.888802 464.452916 
L 146.905758 464.345416 
L 147.307805 461.852724 
L 147.344477 461.631438 
L 147.709852 459.474928 
L 147.827731 458.809961 
L 148.111898 457.207286 
L 148.340609 455.988483 
L 148.513945 455.046739 
L 148.88391 453.167005 
L 148.915992 452.997943 
L 149.318039 450.942026 
L 149.441608 450.345528 
L 149.720086 448.940356 
L 150.022977 447.52405 
L 150.122133 447.033408 
L 150.52418 445.136657 
L 150.620274 444.702572 
L 150.926226 443.232456 
L 151.231585 441.881095 
L 151.328273 441.42181 
L 151.73032 439.596086 
L 151.85506 439.059617 
L 152.132367 437.772552 
L 152.493505 436.238139 
L 152.534414 436.049323 
L 152.936461 434.25392 
L 153.139802 433.416662 
L 153.338508 432.52353 
L 153.740554 430.854215 
L 153.8062 430.595184 
L 154.142601 429.140511 
L 154.492285 427.773706 
L 154.544648 427.549286 
L 154.946695 425.922447 
L 155.211473 424.952229 
L 155.348742 424.400347 
L 155.750789 422.913018 
L 155.984229 422.130751 
L 156.152836 421.510151 
L 156.554882 420.16998 
L 156.843755 419.309273 
L 156.956929 418.937505 
L 157.358976 417.759098 
L 157.761023 416.725548 
L 157.868717 416.487796 
L 158.16307 415.760952 
L 158.565117 414.927709 
L 158.967164 414.250658 
L 159.369211 413.743016 
L 159.472847 413.666318 
L 159.771257 413.409118 
L 160.173304 413.312413 
L 160.575351 413.502262 
L 160.710343 413.666318 
L 160.977398 413.980247 
L 161.379445 414.731494 
L 161.781492 415.750033 
L 162.026262 416.487796 
L 162.183539 416.889911 
L 162.585585 417.983896 
L 162.987632 419.121977 
L 163.053631 419.309273 
L 163.389679 420.090906 
L 163.791726 421.044745 
L 164.193773 422.039275 
L 164.22979 422.130751 
L 164.59582 422.974983 
L 164.997867 424.009261 
L 165.326892 424.952229 
L 165.399913 425.167512 
L 165.80196 426.450546 
L 166.167743 427.773706 
L 166.204007 427.922162 
L 166.606054 429.62091 
L 166.823717 430.595184 
L 167.008101 431.541546 
L 167.363829 433.416662 
L 167.410148 433.681757 
L 167.812195 435.999959 
L 167.851782 436.238139 
L 168.214242 438.397775 
L 168.317478 439.059617 
L 168.616288 440.866244 
L 168.769686 441.881095 
L 169.018335 443.433516 
L 169.203642 444.702572 
L 169.420382 446.1657 
L 169.60685 447.52405 
L 169.822429 449.185431 
L 169.96737 450.345528 
L 170.224476 452.712894 
L 170.274882 453.167005 
L 170.525888 455.988483 
L 170.626523 457.667681 
L 170.703536 458.809961 
L 170.795016 461.631438 
L 170.77887 464.452916 
L 170.650149 467.274393 
L 170.626523 467.560191 
L 170.43054 470.095871 
L 170.224476 471.927926 
L 170.11632 472.917349 
L 169.822429 475.013224 
L 169.719524 475.738826 
L 169.420382 477.512786 
L 169.234183 478.560304 
L 169.018335 479.637072 
L 168.633343 481.381782 
L 168.616288 481.453169 
L 168.214242 483.070653 
L 167.893215 484.203259 
L 167.812195 484.476466 
L 167.410148 485.787648 
L 167.008101 486.947962 
L 166.982087 487.024737 
L 166.606054 488.121145 
L 166.204007 489.210921 
L 165.967349 489.846215 
L 165.80196 490.298015 
L 165.399913 491.419195 
L 164.997867 492.496964 
L 164.938165 492.667692 
L 164.59582 493.682813 
L 164.193773 494.845801 
L 163.973137 495.48917 
L 163.791726 496.049157 
L 163.389679 497.297214 
L 163.045601 498.310648 
L 162.987632 498.495136 
L 162.585585 499.79632 
L 162.183539 500.973157 
L 162.128829 501.132125 
L 161.781492 502.243903 
L 161.379445 503.395253 
L 161.1678 503.953603 
L 160.977398 504.523279 
L 160.575351 505.626441 
L 160.173304 506.572743 
L 160.080049 506.775081 
L 159.771257 507.561648 
L 159.369211 508.449545 
L 158.967164 509.201524 
L 158.72514 509.596558 
L 158.565117 509.915373 
L 158.16307 510.620154 
L 157.761023 511.211679 
L 157.358976 511.708582 
L 156.956929 512.12603 
L 156.6237 512.418036 
L 156.554882 512.494965 
L 156.152836 512.879571 
L 155.750789 513.19562 
L 155.348742 513.451377 
L 154.946695 513.651946 
L 154.544648 513.799305 
L 154.142601 513.892327 
L 153.740554 513.926843 
L 153.338508 513.895772 
L 152.936461 513.78935 
L 152.534414 513.595578 
L 152.132367 513.301037 
L 151.73032 512.892327 
z
" clip-path="url(#p54eb83eb6b)" style="fill: #f0f6fd"/>
    <path d="M 151.73032 512.892327 
L 152.132367 513.301037 
L 152.534414 513.595578 
L 152.936461 513.78935 
L 153.338508 513.895772 
L 153.740554 513.926843 
L 154.142601 513.892327 
L 154.544648 513.799305 
L 154.946695 513.651946 
L 155.348742 513.451377 
L 155.750789 513.19562 
L 156.152836 512.879571 
L 156.554882 512.494965 
L 156.6237 512.418036 
L 156.956929 512.12603 
L 157.358976 511.708582 
L 157.761023 511.211679 
L 158.16307 510.620154 
L 158.565117 509.915373 
L 158.72514 509.596558 
L 158.967164 509.201524 
L 159.369211 508.449545 
L 159.771257 507.561648 
L 160.080049 506.775081 
L 160.173304 506.572743 
L 160.575351 505.626441 
L 160.977398 504.523279 
L 161.1678 503.953603 
L 161.379445 503.395253 
L 161.781492 502.243903 
L 162.128829 501.132125 
L 162.183539 500.973157 
L 162.585585 499.79632 
L 162.987632 498.495136 
L 163.045601 498.310648 
L 163.389679 497.297214 
L 163.791726 496.049157 
L 163.973137 495.48917 
L 164.193773 494.845801 
L 164.59582 493.682813 
L 164.938165 492.667692 
L 164.997867 492.496964 
L 165.399913 491.419195 
L 165.80196 490.298015 
L 165.967349 489.846215 
L 166.204007 489.210921 
L 166.606054 488.121145 
L 166.982087 487.024737 
L 167.008101 486.947962 
L 167.410148 485.787648 
L 167.812195 484.476466 
L 167.893215 484.203259 
L 168.214242 483.070653 
L 168.616288 481.453169 
L 168.633343 481.381782 
L 169.018335 479.637072 
L 169.234183 478.560304 
L 169.420382 477.512786 
L 169.719524 475.738826 
L 169.822429 475.013224 
L 170.11632 472.917349 
L 170.224476 471.927926 
L 170.43054 470.095871 
L 170.626523 467.560191 
L 170.650149 467.274393 
L 170.77887 464.452916 
L 170.795016 461.631438 
L 170.703536 458.809961 
L 170.626523 457.667681 
L 170.525888 455.988483 
L 170.274882 453.167005 
L 170.224476 452.712894 
L 169.96737 450.345528 
L 169.822429 449.185431 
L 169.60685 447.52405 
L 169.420382 446.1657 
L 169.203642 444.702572 
L 169.018335 443.433516 
L 168.769686 441.881095 
L 168.616288 440.866244 
L 168.317478 439.059617 
L 168.214242 438.397775 
L 167.851782 436.238139 
L 167.812195 435.999959 
L 167.410148 433.681757 
L 167.363829 433.416662 
L 167.008101 431.541546 
L 166.823717 430.595184 
L 166.606054 429.62091 
L 166.204007 427.922162 
L 166.167743 427.773706 
L 165.80196 426.450546 
L 165.399913 425.167512 
L 165.326892 424.952229 
L 164.997867 424.009261 
L 164.59582 422.974983 
L 164.22979 422.130751 
L 164.193773 422.039275 
L 163.791726 421.044745 
L 163.389679 420.090906 
L 163.053631 419.309273 
L 162.987632 419.121977 
L 162.585585 417.983896 
L 162.183539 416.889911 
L 162.026262 416.487796 
L 161.781492 415.750033 
L 161.379445 414.731494 
L 160.977398 413.980247 
L 160.710343 413.666318 
L 160.575351 413.502262 
L 160.173304 413.312413 
L 159.771257 413.409118 
L 159.472847 413.666318 
L 159.369211 413.743016 
L 158.967164 414.250658 
L 158.565117 414.927709 
L 158.16307 415.760952 
L 157.868717 416.487796 
L 157.761023 416.725548 
L 157.358976 417.759098 
L 156.956929 418.937505 
L 156.843755 419.309273 
L 156.554882 420.16998 
L 156.152836 421.510151 
L 155.984229 422.130751 
L 155.750789 422.913018 
L 155.348742 424.400347 
L 155.211473 424.952229 
L 154.946695 425.922447 
L 154.544648 427.549286 
L 154.492285 427.773706 
L 154.142601 429.140511 
L 153.8062 430.595184 
L 153.740554 430.854215 
L 153.338508 432.52353 
L 153.139802 433.416662 
L 152.936461 434.25392 
L 152.534414 436.049323 
L 152.493505 436.238139 
L 152.132367 437.772552 
L 151.85506 439.059617 
L 151.73032 439.596086 
L 151.328273 441.42181 
L 151.231585 441.881095 
L 150.926226 443.232456 
L 150.620274 444.702572 
L 150.52418 445.136657 
L 150.122133 447.033408 
L 150.022977 447.52405 
L 149.720086 448.940356 
L 149.441608 450.345528 
L 149.318039 450.942026 
L 148.915992 452.997943 
L 148.88391 453.167005 
L 148.513945 455.046739 
L 148.340609 455.988483 
L 148.111898 457.207286 
L 147.827731 458.809961 
L 147.709852 459.474928 
L 147.344477 461.631438 
L 147.307805 461.852724 
L 146.905758 464.345416 
L 146.888802 464.452916 
L 146.503711 466.995852 
L 146.462378 467.274393 
L 146.101664 469.875718 
L 146.07126 470.095871 
L 145.716121 472.917349 
L 145.699617 473.066896 
L 145.395454 475.738826 
L 145.29757 476.769931 
L 145.118821 478.560304 
L 144.895523 481.381782 
L 144.895523 481.381782 
L 144.714322 484.203259 
L 144.599746 487.024737 
L 144.55607 489.846215 
L 144.596321 492.667692 
L 144.744344 495.48917 
L 144.895523 497.044226 
L 145.034443 498.310648 
L 145.29757 499.949295 
L 145.527756 501.132125 
L 145.699617 501.844741 
L 146.101664 503.218444 
L 146.373269 503.953603 
L 146.503711 504.282641 
L 146.905758 505.152997 
L 147.307805 505.869561 
L 147.709852 506.487025 
L 147.909029 506.775081 
L 148.111898 507.094513 
L 148.513945 507.730631 
L 148.915992 508.372711 
L 149.318039 509.027217 
L 149.66291 509.596558 
L 149.720086 509.704799 
L 150.122133 510.480563 
L 150.52418 511.199431 
L 150.926226 511.834907 
L 151.328273 512.370038 
L 151.370727 512.418036 
z
M 152.094958 506.775081 
L 151.73032 506.278284 
L 151.328273 505.608942 
L 150.926226 504.826417 
L 150.52418 503.953603 
L 150.52418 503.953603 
L 150.122133 503.123857 
L 149.720086 502.269341 
L 149.318039 501.402913 
L 149.189653 501.132125 
L 148.915992 500.558731 
L 148.513945 499.682745 
L 148.111898 498.71153 
L 147.960673 498.310648 
L 147.709852 497.555364 
L 147.307805 496.100008 
L 147.164759 495.48917 
L 146.905758 493.996669 
L 146.71221 492.667692 
L 146.503711 490.24008 
L 146.47341 489.846215 
L 146.37917 487.024737 
L 146.396673 484.203259 
L 146.503711 481.420065 
L 146.505059 481.381782 
L 146.68275 478.560304 
L 146.905758 476.022383 
L 146.929455 475.738826 
L 147.228473 472.917349 
L 147.307805 472.285409 
L 147.578186 470.095871 
L 147.709852 469.159196 
L 147.974118 467.274393 
L 148.111898 466.38046 
L 148.411959 464.452916 
L 148.513945 463.839118 
L 148.88863 461.631438 
L 148.915992 461.476511 
L 149.318039 459.231522 
L 149.395219 458.809961 
L 149.720086 457.075436 
L 149.931492 455.988483 
L 150.122133 455.011146 
L 150.499222 453.167005 
L 150.52418 453.043164 
L 150.926226 451.08584 
L 151.086276 450.345528 
L 151.328273 449.194979 
L 151.703774 447.52405 
L 151.73032 447.400871 
L 152.132367 445.591307 
L 152.34494 444.702572 
L 152.534414 443.865469 
L 152.936461 442.212457 
L 153.021983 441.881095 
L 153.338508 440.566377 
L 153.739265 439.059617 
L 153.740554 439.054366 
L 154.142601 437.50917 
L 154.512346 436.238139 
L 154.544648 436.116403 
L 154.946695 434.718467 
L 155.348742 433.478029 
L 155.370918 433.416662 
L 155.750789 432.248142 
L 156.152836 431.167294 
L 156.399383 430.595184 
L 156.554882 430.191634 
L 156.956929 429.315943 
L 157.358976 428.604644 
L 157.761023 428.060412 
L 158.073212 427.773706 
L 158.16307 427.680056 
L 158.565117 427.463628 
L 158.967164 427.439321 
L 159.369211 427.59852 
L 159.589398 427.773706 
L 159.771257 427.903942 
L 160.173304 428.30188 
L 160.575351 428.782004 
L 160.977398 429.319871 
L 161.379445 429.902422 
L 161.781492 430.530957 
L 161.819539 430.595184 
L 162.183539 431.151463 
L 162.585585 431.866757 
L 162.987632 432.734675 
L 163.247472 433.416662 
L 163.389679 433.803792 
L 163.791726 435.161914 
L 164.045832 436.238139 
L 164.193773 436.948411 
L 164.562557 439.059617 
L 164.59582 439.275983 
L 164.965446 441.881095 
L 164.997867 442.127981 
L 165.336787 444.702572 
L 165.399913 445.19197 
L 165.719063 447.52405 
L 165.80196 448.133086 
L 166.130054 450.345528 
L 166.204007 450.864954 
L 166.559987 453.167005 
L 166.606054 453.50216 
L 166.965904 455.988483 
L 167.008101 456.362951 
L 167.284341 458.809961 
L 167.410148 460.688715 
L 167.47083 461.631438 
L 167.521833 464.452916 
L 167.442503 467.274393 
L 167.410148 467.718412 
L 167.245492 470.095871 
L 167.008101 472.227514 
L 166.934331 472.917349 
L 166.606054 475.131957 
L 166.51878 475.738826 
L 166.204007 477.466265 
L 166.008559 478.560304 
L 165.80196 479.533426 
L 165.412905 481.381782 
L 165.399913 481.436404 
L 164.997867 483.19946 
L 164.772008 484.203259 
L 164.59582 484.918794 
L 164.193773 486.581403 
L 164.090231 487.024737 
L 163.791726 488.22691 
L 163.389679 489.809842 
L 163.380813 489.846215 
L 162.987632 491.407059 
L 162.651512 492.667692 
L 162.585585 492.915098 
L 162.183539 494.420046 
L 161.874025 495.48917 
L 161.781492 495.818537 
L 161.379445 497.199834 
L 161.015666 498.310648 
L 160.977398 498.434993 
L 160.575351 499.682096 
L 160.173304 500.760603 
L 160.020823 501.132125 
L 159.771257 501.80333 
L 159.369211 502.757072 
L 158.967164 503.570162 
L 158.750737 503.953603 
L 158.565117 504.331192 
L 158.16307 505.044626 
L 157.761023 505.644735 
L 157.358976 506.148801 
L 156.956929 506.570975 
L 156.72618 506.775081 
L 156.554882 506.956823 
L 156.152836 507.312154 
L 155.750789 507.597969 
L 155.348742 507.819922 
L 154.946695 507.980062 
L 154.544648 508.076814 
L 154.142601 508.105027 
L 153.740554 508.056138 
L 153.338508 507.918533 
L 152.936461 507.678255 
L 152.534414 507.320269 
L 152.132367 506.83055 
z
" clip-path="url(#p54eb83eb6b)" style="fill: #dfecf7"/>
    <path d="M 152.132367 506.83055 
L 152.534414 507.320269 
L 152.936461 507.678255 
L 153.338508 507.918533 
L 153.740554 508.056138 
L 154.142601 508.105027 
L 154.544648 508.076814 
L 154.946695 507.980062 
L 155.348742 507.819922 
L 155.750789 507.597969 
L 156.152836 507.312154 
L 156.554882 506.956823 
L 156.72618 506.775081 
L 156.956929 506.570975 
L 157.358976 506.148801 
L 157.761023 505.644735 
L 158.16307 505.044626 
L 158.565117 504.331192 
L 158.750737 503.953603 
L 158.967164 503.570162 
L 159.369211 502.757072 
L 159.771257 501.80333 
L 160.020823 501.132125 
L 160.173304 500.760603 
L 160.575351 499.682096 
L 160.977398 498.434993 
L 161.015666 498.310648 
L 161.379445 497.199834 
L 161.781492 495.818537 
L 161.874025 495.48917 
L 162.183539 494.420046 
L 162.585585 492.915098 
L 162.651512 492.667692 
L 162.987632 491.407059 
L 163.380813 489.846215 
L 163.389679 489.809842 
L 163.791726 488.22691 
L 164.090231 487.024737 
L 164.193773 486.581403 
L 164.59582 484.918794 
L 164.772008 484.203259 
L 164.997867 483.19946 
L 165.399913 481.436404 
L 165.412905 481.381782 
L 165.80196 479.533426 
L 166.008559 478.560304 
L 166.204007 477.466265 
L 166.51878 475.738826 
L 166.606054 475.131957 
L 166.934331 472.917349 
L 167.008101 472.227514 
L 167.245492 470.095871 
L 167.410148 467.718412 
L 167.442503 467.274393 
L 167.521833 464.452916 
L 167.47083 461.631438 
L 167.410148 460.688715 
L 167.284341 458.809961 
L 167.008101 456.362951 
L 166.965904 455.988483 
L 166.606054 453.50216 
L 166.559987 453.167005 
L 166.204007 450.864954 
L 166.130054 450.345528 
L 165.80196 448.133086 
L 165.719063 447.52405 
L 165.399913 445.19197 
L 165.336787 444.702572 
L 164.997867 442.127981 
L 164.965446 441.881095 
L 164.59582 439.275983 
L 164.562557 439.059617 
L 164.193773 436.948411 
L 164.045832 436.238139 
L 163.791726 435.161914 
L 163.389679 433.803792 
L 163.247472 433.416662 
L 162.987632 432.734675 
L 162.585585 431.866757 
L 162.183539 431.151463 
L 161.819539 430.595184 
L 161.781492 430.530957 
L 161.379445 429.902422 
L 160.977398 429.319871 
L 160.575351 428.782004 
L 160.173304 428.30188 
L 159.771257 427.903942 
L 159.589398 427.773706 
L 159.369211 427.59852 
L 158.967164 427.439321 
L 158.565117 427.463628 
L 158.16307 427.680056 
L 158.073212 427.773706 
L 157.761023 428.060412 
L 157.358976 428.604644 
L 156.956929 429.315943 
L 156.554882 430.191634 
L 156.399383 430.595184 
L 156.152836 431.167294 
L 155.750789 432.248142 
L 155.370918 433.416662 
L 155.348742 433.478029 
L 154.946695 434.718467 
L 154.544648 436.116403 
L 154.512346 436.238139 
L 154.142601 437.50917 
L 153.740554 439.054366 
L 153.739265 439.059617 
L 153.338508 440.566377 
L 153.021983 441.881095 
L 152.936461 442.212457 
L 152.534414 443.865469 
L 152.34494 444.702572 
L 152.132367 445.591307 
L 151.73032 447.400871 
L 151.703774 447.52405 
L 151.328273 449.194979 
L 151.086276 450.345528 
L 150.926226 451.08584 
L 150.52418 453.043164 
L 150.499222 453.167005 
L 150.122133 455.011146 
L 149.931492 455.988483 
L 149.720086 457.075436 
L 149.395219 458.809961 
L 149.318039 459.231522 
L 148.915992 461.476511 
L 148.88863 461.631438 
L 148.513945 463.839118 
L 148.411959 464.452916 
L 148.111898 466.38046 
L 147.974118 467.274393 
L 147.709852 469.159196 
L 147.578186 470.095871 
L 147.307805 472.285409 
L 147.228473 472.917349 
L 146.929455 475.738826 
L 146.905758 476.022383 
L 146.68275 478.560304 
L 146.505059 481.381782 
L 146.503711 481.420065 
L 146.396673 484.203259 
L 146.37917 487.024737 
L 146.47341 489.846215 
L 146.503711 490.24008 
L 146.71221 492.667692 
L 146.905758 493.996669 
L 147.164759 495.48917 
L 147.307805 496.100008 
L 147.709852 497.555364 
L 147.960673 498.310648 
L 148.111898 498.71153 
L 148.513945 499.682745 
L 148.915992 500.558731 
L 149.189653 501.132125 
L 149.318039 501.402913 
L 149.720086 502.269341 
L 150.122133 503.123857 
L 150.52418 503.953603 
L 150.52418 503.953603 
L 150.926226 504.826417 
L 151.328273 505.608942 
L 151.73032 506.278284 
L 152.094958 506.775081 
z
M 151.713591 501.132125 
L 151.328273 500.289271 
L 150.926226 499.308672 
L 150.544206 498.310648 
L 150.52418 498.256678 
L 150.122133 497.185709 
L 149.720086 496.070168 
L 149.515326 495.48917 
L 149.318039 494.861399 
L 148.915992 493.483624 
L 148.702485 492.667692 
L 148.513945 491.719814 
L 148.19442 489.846215 
L 148.111898 489.049053 
L 147.925793 487.024737 
L 147.826602 484.203259 
L 147.85226 481.381782 
L 147.976798 478.560304 
L 148.111898 476.754128 
L 148.18347 475.738826 
L 148.458953 472.917349 
L 148.513945 472.46292 
L 148.793139 470.095871 
L 148.915992 469.209948 
L 149.18116 467.274393 
L 149.318039 466.387467 
L 149.616802 464.452916 
L 149.720086 463.838419 
L 150.09591 461.631438 
L 150.122133 461.485817 
L 150.52418 459.275968 
L 150.610886 458.809961 
L 150.926226 457.172611 
L 151.163605 455.988483 
L 151.328273 455.176727 
L 151.73032 453.288873 
L 151.757142 453.167005 
L 152.132367 451.448195 
L 152.391323 450.345528 
L 152.534414 449.719429 
L 152.936461 448.072592 
L 153.080853 447.52405 
L 153.338508 446.497872 
L 153.740554 445.042507 
L 153.843291 444.702572 
L 154.142601 443.642897 
L 154.544648 442.373961 
L 154.720394 441.881095 
L 154.946695 441.188701 
L 155.348742 440.11235 
L 155.750789 439.189165 
L 155.818214 439.059617 
L 156.152836 438.342371 
L 156.554882 437.641601 
L 156.956929 437.096807 
L 157.358976 436.704165 
L 157.761023 436.457353 
L 158.16307 436.345115 
L 158.565117 436.350705 
L 158.967164 436.453865 
L 159.369211 436.634828 
L 159.771257 436.878878 
L 160.173304 437.180076 
L 160.575351 437.54356 
L 160.977398 437.986777 
L 161.379445 438.540424 
L 161.677561 439.059617 
L 161.781492 439.23649 
L 162.183539 440.116109 
L 162.585585 441.311343 
L 162.737457 441.881095 
L 162.987632 442.908729 
L 163.331792 444.702572 
L 163.389679 445.038595 
L 163.761133 447.52405 
L 163.791726 447.750567 
L 164.121698 450.345528 
L 164.193773 450.974236 
L 164.445691 453.167005 
L 164.59582 454.67426 
L 164.733322 455.988483 
L 164.969926 458.809961 
L 164.997867 459.285247 
L 165.150661 461.631438 
L 165.242869 464.452916 
L 165.236351 467.274393 
L 165.12371 470.095871 
L 164.997867 471.667741 
L 164.908638 472.917349 
L 164.59582 475.738826 
L 164.59582 475.738826 
L 164.208292 478.560304 
L 164.193773 478.645021 
L 163.791726 481.12913 
L 163.752719 481.381782 
L 163.389679 483.36746 
L 163.239353 484.203259 
L 162.987632 485.44394 
L 162.662628 487.024737 
L 162.585585 487.371162 
L 162.183539 489.170198 
L 162.026623 489.846215 
L 161.781492 490.858625 
L 161.379445 492.40475 
L 161.307969 492.667692 
L 160.977398 493.877041 
L 160.575351 495.189852 
L 160.47654 495.48917 
L 160.173304 496.437237 
L 159.771257 497.545501 
L 159.453975 498.310648 
L 159.369211 498.529682 
L 158.967164 499.465191 
L 158.565117 500.260953 
L 158.16307 500.93713 
L 158.029596 501.132125 
L 157.761023 501.570535 
L 157.358976 502.127102 
L 156.956929 502.590303 
L 156.554882 502.972492 
L 156.152836 503.282833 
L 155.750789 503.527224 
L 155.348742 503.708081 
L 154.946695 503.824077 
L 154.544648 503.869938 
L 154.142601 503.836428 
L 153.740554 503.710645 
L 153.338508 503.476863 
L 152.936461 503.11817 
L 152.534414 502.61916 
L 152.132367 501.969651 
L 151.73032 501.168808 
z
" clip-path="url(#p54eb83eb6b)" style="fill: #cde0f1"/>
    <path d="M 151.73032 501.168808 
L 152.132367 501.969651 
L 152.534414 502.61916 
L 152.936461 503.11817 
L 153.338508 503.476863 
L 153.740554 503.710645 
L 154.142601 503.836428 
L 154.544648 503.869938 
L 154.946695 503.824077 
L 155.348742 503.708081 
L 155.750789 503.527224 
L 156.152836 503.282833 
L 156.554882 502.972492 
L 156.956929 502.590303 
L 157.358976 502.127102 
L 157.761023 501.570535 
L 158.029596 501.132125 
L 158.16307 500.93713 
L 158.565117 500.260953 
L 158.967164 499.465191 
L 159.369211 498.529682 
L 159.453975 498.310648 
L 159.771257 497.545501 
L 160.173304 496.437237 
L 160.47654 495.48917 
L 160.575351 495.189852 
L 160.977398 493.877041 
L 161.307969 492.667692 
L 161.379445 492.40475 
L 161.781492 490.858625 
L 162.026623 489.846215 
L 162.183539 489.170198 
L 162.585585 487.371162 
L 162.662628 487.024737 
L 162.987632 485.44394 
L 163.239353 484.203259 
L 163.389679 483.36746 
L 163.752719 481.381782 
L 163.791726 481.12913 
L 164.193773 478.645021 
L 164.208292 478.560304 
L 164.59582 475.738826 
L 164.59582 475.738826 
L 164.908638 472.917349 
L 164.997867 471.667741 
L 165.12371 470.095871 
L 165.236351 467.274393 
L 165.242869 464.452916 
L 165.150661 461.631438 
L 164.997867 459.285247 
L 164.969926 458.809961 
L 164.733322 455.988483 
L 164.59582 454.67426 
L 164.445691 453.167005 
L 164.193773 450.974236 
L 164.121698 450.345528 
L 163.791726 447.750567 
L 163.761133 447.52405 
L 163.389679 445.038595 
L 163.331792 444.702572 
L 162.987632 442.908729 
L 162.737457 441.881095 
L 162.585585 441.311343 
L 162.183539 440.116109 
L 161.781492 439.23649 
L 161.677561 439.059617 
L 161.379445 438.540424 
L 160.977398 437.986777 
L 160.575351 437.54356 
L 160.173304 437.180076 
L 159.771257 436.878878 
L 159.369211 436.634828 
L 158.967164 436.453865 
L 158.565117 436.350705 
L 158.16307 436.345115 
L 157.761023 436.457353 
L 157.358976 436.704165 
L 156.956929 437.096807 
L 156.554882 437.641601 
L 156.152836 438.342371 
L 155.818214 439.059617 
L 155.750789 439.189165 
L 155.348742 440.11235 
L 154.946695 441.188701 
L 154.720394 441.881095 
L 154.544648 442.373961 
L 154.142601 443.642897 
L 153.843291 444.702572 
L 153.740554 445.042507 
L 153.338508 446.497872 
L 153.080853 447.52405 
L 152.936461 448.072592 
L 152.534414 449.719429 
L 152.391323 450.345528 
L 152.132367 451.448195 
L 151.757142 453.167005 
L 151.73032 453.288873 
L 151.328273 455.176727 
L 151.163605 455.988483 
L 150.926226 457.172611 
L 150.610886 458.809961 
L 150.52418 459.275968 
L 150.122133 461.485817 
L 150.09591 461.631438 
L 149.720086 463.838419 
L 149.616802 464.452916 
L 149.318039 466.387467 
L 149.18116 467.274393 
L 148.915992 469.209948 
L 148.793139 470.095871 
L 148.513945 472.46292 
L 148.458953 472.917349 
L 148.18347 475.738826 
L 148.111898 476.754128 
L 147.976798 478.560304 
L 147.85226 481.381782 
L 147.826602 484.203259 
L 147.925793 487.024737 
L 148.111898 489.049053 
L 148.19442 489.846215 
L 148.513945 491.719814 
L 148.702485 492.667692 
L 148.915992 493.483624 
L 149.318039 494.861399 
L 149.515326 495.48917 
L 149.720086 496.070168 
L 150.122133 497.185709 
L 150.52418 498.256678 
L 150.544206 498.310648 
L 150.926226 499.308672 
L 151.328273 500.289271 
L 151.713591 501.132125 
z
M 152.879488 498.310648 
L 152.534414 497.671338 
L 152.132367 496.753328 
L 151.73032 495.670726 
L 151.667104 495.48917 
L 151.328273 494.428392 
L 150.926226 493.077018 
L 150.806744 492.667692 
L 150.52418 491.544653 
L 150.122133 489.846215 
L 150.122133 489.846215 
L 149.720086 487.506617 
L 149.644835 487.024737 
L 149.383018 484.203259 
L 149.318039 482.158476 
L 149.294844 481.381782 
L 149.318039 479.992644 
L 149.339855 478.560304 
L 149.488772 475.738826 
L 149.720086 473.006751 
L 149.72728 472.917349 
L 150.03566 470.095871 
L 150.122133 469.449387 
L 150.408748 467.274393 
L 150.52418 466.517678 
L 150.839908 464.452916 
L 150.926226 463.94388 
L 151.326152 461.631438 
L 151.328273 461.619984 
L 151.73032 459.494102 
L 151.865647 458.809961 
L 152.132367 457.515167 
L 152.467359 455.988483 
L 152.534414 455.686952 
L 152.936461 453.984157 
L 153.146766 453.167005 
L 153.338508 452.412366 
L 153.740554 450.974447 
L 153.936834 450.345528 
L 154.142601 449.659832 
L 154.544648 448.476391 
L 154.919692 447.52405 
L 154.946695 447.450878 
L 155.348742 446.518976 
L 155.750789 445.747835 
L 156.152836 445.129495 
L 156.514629 444.702572 
L 156.554882 444.650082 
L 156.956929 444.268348 
L 157.358976 444.011183 
L 157.761023 443.861428 
L 158.16307 443.802181 
L 158.565117 443.81978 
L 158.967164 443.906783 
L 159.369211 444.064165 
L 159.771257 444.30264 
L 160.173304 444.643603 
L 160.224647 444.702572 
L 160.575351 445.088837 
L 160.977398 445.712196 
L 161.379445 446.585473 
L 161.697978 447.52405 
L 161.781492 447.788084 
L 162.183539 449.411174 
L 162.367417 450.345528 
L 162.585585 451.599598 
L 162.818494 453.167005 
L 162.987632 454.506442 
L 163.159606 455.988483 
L 163.389679 458.503177 
L 163.417028 458.809961 
L 163.60088 461.631438 
L 163.698938 464.452916 
L 163.711732 467.274393 
L 163.638642 470.095871 
L 163.475189 472.917349 
L 163.389679 473.857039 
L 163.230627 475.738826 
L 162.987632 477.805447 
L 162.902753 478.560304 
L 162.585585 480.771156 
L 162.499229 481.381782 
L 162.183539 483.2463 
L 162.018737 484.203259 
L 161.781492 485.414956 
L 161.450497 487.024737 
L 161.379445 487.342621 
L 160.977398 489.062956 
L 160.778896 489.846215 
L 160.575351 490.615912 
L 160.173304 492.000485 
L 159.958137 492.667692 
L 159.771257 493.245651 
L 159.369211 494.35725 
L 158.967164 495.316114 
L 158.885514 495.48917 
L 158.565117 496.194444 
L 158.16307 496.952331 
L 157.761023 497.593308 
L 157.358976 498.132708 
L 157.201956 498.310648 
L 156.956929 498.611331 
L 156.554882 499.017543 
L 156.152836 499.339895 
L 155.750789 499.582027 
L 155.348742 499.743101 
L 154.946695 499.817647 
L 154.544648 499.795555 
L 154.142601 499.662392 
L 153.740554 499.400277 
L 153.338508 498.989643 
L 152.936461 498.412192 
z
" clip-path="url(#p54eb83eb6b)" style="fill: #b0d2e7"/>
    <path d="M 152.936461 498.412192 
L 153.338508 498.989643 
L 153.740554 499.400277 
L 154.142601 499.662392 
L 154.544648 499.795555 
L 154.946695 499.817647 
L 155.348742 499.743101 
L 155.750789 499.582027 
L 156.152836 499.339895 
L 156.554882 499.017543 
L 156.956929 498.611331 
L 157.201956 498.310648 
L 157.358976 498.132708 
L 157.761023 497.593308 
L 158.16307 496.952331 
L 158.565117 496.194444 
L 158.885514 495.48917 
L 158.967164 495.316114 
L 159.369211 494.35725 
L 159.771257 493.245651 
L 159.958137 492.667692 
L 160.173304 492.000485 
L 160.575351 490.615912 
L 160.778896 489.846215 
L 160.977398 489.062956 
L 161.379445 487.342621 
L 161.450497 487.024737 
L 161.781492 485.414956 
L 162.018737 484.203259 
L 162.183539 483.2463 
L 162.499229 481.381782 
L 162.585585 480.771156 
L 162.902753 478.560304 
L 162.987632 477.805447 
L 163.230627 475.738826 
L 163.389679 473.857039 
L 163.475189 472.917349 
L 163.638642 470.095871 
L 163.711732 467.274393 
L 163.698938 464.452916 
L 163.60088 461.631438 
L 163.417028 458.809961 
L 163.389679 458.503177 
L 163.159606 455.988483 
L 162.987632 454.506442 
L 162.818494 453.167005 
L 162.585585 451.599598 
L 162.367417 450.345528 
L 162.183539 449.411174 
L 161.781492 447.788084 
L 161.697978 447.52405 
L 161.379445 446.585473 
L 160.977398 445.712196 
L 160.575351 445.088837 
L 160.224647 444.702572 
L 160.173304 444.643603 
L 159.771257 444.30264 
L 159.369211 444.064165 
L 158.967164 443.906783 
L 158.565117 443.81978 
L 158.16307 443.802181 
L 157.761023 443.861428 
L 157.358976 444.011183 
L 156.956929 444.268348 
L 156.554882 444.650082 
L 156.514629 444.702572 
L 156.152836 445.129495 
L 155.750789 445.747835 
L 155.348742 446.518976 
L 154.946695 447.450878 
L 154.919692 447.52405 
L 154.544648 448.476391 
L 154.142601 449.659832 
L 153.936834 450.345528 
L 153.740554 450.974447 
L 153.338508 452.412366 
L 153.146766 453.167005 
L 152.936461 453.984157 
L 152.534414 455.686952 
L 152.467359 455.988483 
L 152.132367 457.515167 
L 151.865647 458.809961 
L 151.73032 459.494102 
L 151.328273 461.619984 
L 151.326152 461.631438 
L 150.926226 463.94388 
L 150.839908 464.452916 
L 150.52418 466.517678 
L 150.408748 467.274393 
L 150.122133 469.449387 
L 150.03566 470.095871 
L 149.72728 472.917349 
L 149.720086 473.006751 
L 149.488772 475.738826 
L 149.339855 478.560304 
L 149.318039 479.992644 
L 149.294844 481.381782 
L 149.318039 482.158476 
L 149.383018 484.203259 
L 149.644835 487.024737 
L 149.720086 487.506617 
L 150.122133 489.846215 
L 150.122133 489.846215 
L 150.52418 491.544653 
L 150.806744 492.667692 
L 150.926226 493.077018 
L 151.328273 494.428392 
L 151.667104 495.48917 
L 151.73032 495.670726 
L 152.132367 496.753328 
L 152.534414 497.671338 
L 152.879488 498.310648 
z
M 153.814719 495.48917 
L 153.740554 495.404915 
L 153.338508 494.767365 
L 152.936461 493.910762 
L 152.534414 492.832196 
L 152.47986 492.667692 
L 152.132367 491.450804 
L 151.73032 489.866635 
L 151.725302 489.846215 
L 151.328273 487.842547 
L 151.173689 487.024737 
L 150.926226 485.17568 
L 150.802104 484.203259 
L 150.607298 481.381782 
L 150.568702 478.560304 
L 150.658284 475.738826 
L 150.854718 472.917349 
L 150.926226 472.224287 
L 151.140768 470.095871 
L 151.328273 468.652594 
L 151.507379 467.274393 
L 151.73032 465.83675 
L 151.950081 464.452916 
L 152.132367 463.436091 
L 152.47138 461.631438 
L 152.534414 461.320999 
L 152.936461 459.454949 
L 153.086974 458.809961 
L 153.338508 457.776129 
L 153.740554 456.283951 
L 153.829481 455.988483 
L 154.142601 454.955183 
L 154.544648 453.799555 
L 154.802052 453.167005 
L 154.946695 452.801912 
L 155.348742 451.946702 
L 155.750789 451.249037 
L 156.152836 450.696595 
L 156.485738 450.345528 
L 156.554882 450.26741 
L 156.956929 449.9264 
L 157.358976 449.685816 
L 157.761023 449.533176 
L 158.16307 449.461504 
L 158.565117 449.471151 
L 158.967164 449.570981 
L 159.369211 449.779269 
L 159.771257 450.124735 
L 159.945611 450.345528 
L 160.173304 450.637323 
L 160.575351 451.378118 
L 160.977398 452.432749 
L 161.189323 453.167005 
L 161.379445 453.912952 
L 161.781492 455.955126 
L 161.787056 455.988483 
L 162.170657 458.809961 
L 162.183539 458.938432 
L 162.426921 461.631438 
L 162.576504 464.452916 
L 162.585585 464.932414 
L 162.629158 467.274393 
L 162.585585 470.095871 
L 162.585585 470.095871 
L 162.453912 472.917349 
L 162.229986 475.738826 
L 162.183539 476.154877 
L 161.920135 478.560304 
L 161.781492 479.541155 
L 161.518283 481.381782 
L 161.379445 482.186814 
L 161.01634 484.203259 
L 160.977398 484.392684 
L 160.575351 486.250696 
L 160.393442 487.024737 
L 160.173304 487.883883 
L 159.771257 489.301644 
L 159.599773 489.846215 
L 159.369211 490.547648 
L 158.967164 491.627463 
L 158.565117 492.559714 
L 158.51221 492.667692 
L 158.16307 493.379706 
L 157.761023 494.076221 
L 157.358976 494.661104 
L 156.956929 495.146245 
L 156.607102 495.48917 
L 156.554882 495.542584 
L 156.152836 495.862288 
L 155.750789 496.085914 
L 155.348742 496.208369 
L 154.946695 496.219202 
L 154.544648 496.102814 
L 154.142601 495.83924 
z
" clip-path="url(#p54eb83eb6b)" style="fill: #87bddc"/>
    <path d="M 154.142601 495.83924 
L 154.544648 496.102814 
L 154.946695 496.219202 
L 155.348742 496.208369 
L 155.750789 496.085914 
L 156.152836 495.862288 
L 156.554882 495.542584 
L 156.607102 495.48917 
L 156.956929 495.146245 
L 157.358976 494.661104 
L 157.761023 494.076221 
L 158.16307 493.379706 
L 158.51221 492.667692 
L 158.565117 492.559714 
L 158.967164 491.627463 
L 159.369211 490.547648 
L 159.599773 489.846215 
L 159.771257 489.301644 
L 160.173304 487.883883 
L 160.393442 487.024737 
L 160.575351 486.250696 
L 160.977398 484.392684 
L 161.01634 484.203259 
L 161.379445 482.186814 
L 161.518283 481.381782 
L 161.781492 479.541155 
L 161.920135 478.560304 
L 162.183539 476.154877 
L 162.229986 475.738826 
L 162.453912 472.917349 
L 162.585585 470.095871 
L 162.585585 470.095871 
L 162.629158 467.274393 
L 162.585585 464.932414 
L 162.576504 464.452916 
L 162.426921 461.631438 
L 162.183539 458.938432 
L 162.170657 458.809961 
L 161.787056 455.988483 
L 161.781492 455.955126 
L 161.379445 453.912952 
L 161.189323 453.167005 
L 160.977398 452.432749 
L 160.575351 451.378118 
L 160.173304 450.637323 
L 159.945611 450.345528 
L 159.771257 450.124735 
L 159.369211 449.779269 
L 158.967164 449.570981 
L 158.565117 449.471151 
L 158.16307 449.461504 
L 157.761023 449.533176 
L 157.358976 449.685816 
L 156.956929 449.9264 
L 156.554882 450.26741 
L 156.485738 450.345528 
L 156.152836 450.696595 
L 155.750789 451.249037 
L 155.348742 451.946702 
L 154.946695 452.801912 
L 154.802052 453.167005 
L 154.544648 453.799555 
L 154.142601 454.955183 
L 153.829481 455.988483 
L 153.740554 456.283951 
L 153.338508 457.776129 
L 153.086974 458.809961 
L 152.936461 459.454949 
L 152.534414 461.320999 
L 152.47138 461.631438 
L 152.132367 463.436091 
L 151.950081 464.452916 
L 151.73032 465.83675 
L 151.507379 467.274393 
L 151.328273 468.652594 
L 151.140768 470.095871 
L 150.926226 472.224287 
L 150.854718 472.917349 
L 150.658284 475.738826 
L 150.568702 478.560304 
L 150.607298 481.381782 
L 150.802104 484.203259 
L 150.926226 485.17568 
L 151.173689 487.024737 
L 151.328273 487.842547 
L 151.725302 489.846215 
L 151.73032 489.866635 
L 152.132367 491.450804 
L 152.47986 492.667692 
L 152.534414 492.832196 
L 152.936461 493.910762 
L 153.338508 494.767365 
L 153.740554 495.404915 
L 153.814719 495.48917 
z
M 154.804968 492.667692 
L 154.544648 492.493699 
L 154.142601 492.018167 
L 153.740554 491.298243 
L 153.338508 490.309352 
L 153.184716 489.846215 
L 152.936461 488.910195 
L 152.534414 487.128358 
L 152.512763 487.024737 
L 152.132367 484.538094 
L 152.083652 484.203259 
L 151.82654 481.381782 
L 151.73032 478.673489 
L 151.726408 478.560304 
L 151.73032 478.297377 
L 151.766883 475.738826 
L 151.932175 472.917349 
L 152.132367 470.869687 
L 152.208617 470.095871 
L 152.534414 467.674877 
L 152.590366 467.274393 
L 152.936461 465.257696 
L 153.084095 464.452916 
L 153.338508 463.241142 
L 153.710184 461.631438 
L 153.740554 461.510255 
L 154.142601 460.063595 
L 154.544648 458.809961 
L 154.544648 458.809961 
L 154.946695 457.757315 
L 155.348742 456.876051 
L 155.750789 456.154355 
L 155.863988 455.988483 
L 156.152836 455.559421 
L 156.554882 455.084107 
L 156.956929 454.720565 
L 157.358976 454.458826 
L 157.761023 454.294764 
L 158.16307 454.231962 
L 158.565117 454.283059 
L 158.967164 454.470895 
L 159.369211 454.829744 
L 159.771257 455.406809 
L 160.050304 455.988483 
L 160.173304 456.277228 
L 160.575351 457.567471 
L 160.861798 458.809961 
L 160.977398 459.446948 
L 161.295614 461.631438 
L 161.379445 462.48953 
L 161.545577 464.452916 
L 161.661899 467.274393 
L 161.662455 470.095871 
L 161.556137 472.917349 
L 161.379445 475.288867 
L 161.346246 475.738826 
L 161.032385 478.560304 
L 160.977398 478.935877 
L 160.605589 481.381782 
L 160.575351 481.544764 
L 160.173304 483.587683 
L 160.042269 484.203259 
L 159.771257 485.305981 
L 159.369211 486.775266 
L 159.293558 487.024737 
L 158.967164 488.005288 
L 158.565117 489.059321 
L 158.218562 489.846215 
L 158.16307 489.966577 
L 157.761023 490.72154 
L 157.358976 491.353593 
L 156.956929 491.872735 
L 156.554882 492.284496 
L 156.152836 492.589021 
L 155.985252 492.667692 
L 155.750789 492.777717 
L 155.348742 492.837996 
L 154.946695 492.753848 
z
" clip-path="url(#p54eb83eb6b)" style="fill: #5ba3d0"/>
    <path d="M 154.946695 492.753848 
L 155.348742 492.837996 
L 155.750789 492.777717 
L 155.985252 492.667692 
L 156.152836 492.589021 
L 156.554882 492.284496 
L 156.956929 491.872735 
L 157.358976 491.353593 
L 157.761023 490.72154 
L 158.16307 489.966577 
L 158.218562 489.846215 
L 158.565117 489.059321 
L 158.967164 488.005288 
L 159.293558 487.024737 
L 159.369211 486.775266 
L 159.771257 485.305981 
L 160.042269 484.203259 
L 160.173304 483.587683 
L 160.575351 481.544764 
L 160.605589 481.381782 
L 160.977398 478.935877 
L 161.032385 478.560304 
L 161.346246 475.738826 
L 161.379445 475.288867 
L 161.556137 472.917349 
L 161.662455 470.095871 
L 161.661899 467.274393 
L 161.545577 464.452916 
L 161.379445 462.48953 
L 161.295614 461.631438 
L 160.977398 459.446948 
L 160.861798 458.809961 
L 160.575351 457.567471 
L 160.173304 456.277228 
L 160.050304 455.988483 
L 159.771257 455.406809 
L 159.369211 454.829744 
L 158.967164 454.470895 
L 158.565117 454.283059 
L 158.16307 454.231962 
L 157.761023 454.294764 
L 157.358976 454.458826 
L 156.956929 454.720565 
L 156.554882 455.084107 
L 156.152836 455.559421 
L 155.863988 455.988483 
L 155.750789 456.154355 
L 155.348742 456.876051 
L 154.946695 457.757315 
L 154.544648 458.809961 
L 154.544648 458.809961 
L 154.142601 460.063595 
L 153.740554 461.510255 
L 153.710184 461.631438 
L 153.338508 463.241142 
L 153.084095 464.452916 
L 152.936461 465.257696 
L 152.590366 467.274393 
L 152.534414 467.674877 
L 152.208617 470.095871 
L 152.132367 470.869687 
L 151.932175 472.917349 
L 151.766883 475.738826 
L 151.73032 478.297377 
L 151.726408 478.560304 
L 151.73032 478.673489 
L 151.82654 481.381782 
L 152.083652 484.203259 
L 152.132367 484.538094 
L 152.512763 487.024737 
L 152.534414 487.128358 
L 152.936461 488.910195 
L 153.184716 489.846215 
L 153.338508 490.309352 
L 153.740554 491.298243 
L 154.142601 492.018167 
L 154.544648 492.493699 
L 154.804968 492.667692 
z
M 153.954624 487.024737 
L 153.740554 486.188998 
L 153.338508 484.203259 
L 153.338508 484.203259 
L 153.020622 481.381782 
L 152.936461 479.677327 
L 152.883378 478.560304 
L 152.900716 475.738826 
L 152.936461 475.101658 
L 153.061674 472.917349 
L 153.338508 470.296221 
L 153.36089 470.095871 
L 153.740554 467.691817 
L 153.812752 467.274393 
L 154.142601 465.740592 
L 154.456654 464.452916 
L 154.544648 464.138086 
L 154.946695 462.87256 
L 155.348742 461.80632 
L 155.426328 461.631438 
L 155.750789 460.948924 
L 156.152836 460.254549 
L 156.554882 459.702648 
L 156.956929 459.282654 
L 157.358976 458.990877 
L 157.761023 458.833433 
L 158.16307 458.828399 
L 158.565117 459.007542 
L 158.967164 459.417948 
L 159.369211 460.123802 
L 159.771257 461.20865 
L 159.88732 461.631438 
L 160.173304 463.03848 
L 160.391478 464.452916 
L 160.575351 466.501553 
L 160.63314 467.274393 
L 160.701492 470.095871 
L 160.632207 472.917349 
L 160.575351 473.721417 
L 160.430533 475.738826 
L 160.173304 477.938234 
L 160.097296 478.560304 
L 159.771257 480.48639 
L 159.608138 481.381782 
L 159.369211 482.427097 
L 158.967164 484.014388 
L 158.913836 484.203259 
L 158.565117 485.255242 
L 158.16307 486.310023 
L 157.846628 487.024737 
L 157.761023 487.199323 
L 157.358976 487.887762 
L 156.956929 488.442569 
L 156.554882 488.864189 
L 156.152836 489.145683 
L 155.750789 489.271101 
L 155.348742 489.214314 
L 154.946695 488.939153 
L 154.544648 488.401978 
L 154.142601 487.557807 
z
" clip-path="url(#p54eb83eb6b)" style="fill: #3686c0"/>
    <path d="M 154.142601 487.557807 
L 154.544648 488.401978 
L 154.946695 488.939153 
L 155.348742 489.214314 
L 155.750789 489.271101 
L 156.152836 489.145683 
L 156.554882 488.864189 
L 156.956929 488.442569 
L 157.358976 487.887762 
L 157.761023 487.199323 
L 157.846628 487.024737 
L 158.16307 486.310023 
L 158.565117 485.255242 
L 158.913836 484.203259 
L 158.967164 484.014388 
L 159.369211 482.427097 
L 159.608138 481.381782 
L 159.771257 480.48639 
L 160.097296 478.560304 
L 160.173304 477.938234 
L 160.430533 475.738826 
L 160.575351 473.721417 
L 160.632207 472.917349 
L 160.701492 470.095871 
L 160.63314 467.274393 
L 160.575351 466.501553 
L 160.391478 464.452916 
L 160.173304 463.03848 
L 159.88732 461.631438 
L 159.771257 461.20865 
L 159.369211 460.123802 
L 158.967164 459.417948 
L 158.565117 459.007542 
L 158.16307 458.828399 
L 157.761023 458.833433 
L 157.358976 458.990877 
L 156.956929 459.282654 
L 156.554882 459.702648 
L 156.152836 460.254549 
L 155.750789 460.948924 
L 155.426328 461.631438 
L 155.348742 461.80632 
L 154.946695 462.87256 
L 154.544648 464.138086 
L 154.456654 464.452916 
L 154.142601 465.740592 
L 153.812752 467.274393 
L 153.740554 467.691817 
L 153.36089 470.095871 
L 153.338508 470.296221 
L 153.061674 472.917349 
L 152.936461 475.101658 
L 152.900716 475.738826 
L 152.883378 478.560304 
L 152.936461 479.677327 
L 153.020622 481.381782 
L 153.338508 484.203259 
L 153.338508 484.203259 
L 153.740554 486.188998 
L 153.954624 487.024737 
z
M 155.33524 484.203259 
L 154.946695 483.232104 
L 154.544648 481.576276 
L 154.50904 481.381782 
L 154.2694 478.560304 
L 154.270548 475.738826 
L 154.469785 472.917349 
L 154.544648 472.357471 
L 154.881997 470.095871 
L 154.946695 469.790069 
L 155.348742 468.130605 
L 155.593857 467.274393 
L 155.750789 466.831028 
L 156.152836 465.898176 
L 156.554882 465.171852 
L 156.956929 464.64913 
L 157.219607 464.452916 
L 157.358976 464.361374 
L 157.761023 464.323807 
L 157.997383 464.452916 
L 158.16307 464.57093 
L 158.565117 465.268128 
L 158.967164 466.531281 
L 159.125917 467.274393 
L 159.369211 469.596788 
L 159.408313 470.095871 
L 159.41912 472.917349 
L 159.369211 473.672501 
L 159.225547 475.738826 
L 158.967164 477.625764 
L 158.828586 478.560304 
L 158.565117 479.752509 
L 158.16307 481.381782 
L 158.16307 481.381782 
L 157.761023 482.448354 
L 157.358976 483.334197 
L 156.956929 484.033325 
L 156.813832 484.203259 
L 156.554882 484.456053 
L 156.152836 484.63802 
L 155.750789 484.577746 
L 155.348742 484.225363 
z
" clip-path="url(#p54eb83eb6b)" style="fill: #1764ab"/>
    <path d="M 155.348742 484.225363 
L 155.750789 484.577746 
L 156.152836 484.63802 
L 156.554882 484.456053 
L 156.813832 484.203259 
L 156.956929 484.033325 
L 157.358976 483.334197 
L 157.761023 482.448354 
L 158.16307 481.381782 
L 158.16307 481.381782 
L 158.565117 479.752509 
L 158.828586 478.560304 
L 158.967164 477.625764 
L 159.225547 475.738826 
L 159.369211 473.672501 
L 159.41912 472.917349 
L 159.408313 470.095871 
L 159.369211 469.596788 
L 159.125917 467.274393 
L 158.967164 466.531281 
L 158.565117 465.268128 
L 158.16307 464.57093 
L 157.997383 464.452916 
L 157.761023 464.323807 
L 157.358976 464.361374 
L 157.219607 464.452916 
L 156.956929 464.64913 
L 156.554882 465.171852 
L 156.152836 465.898176 
L 155.750789 466.831028 
L 155.593857 467.274393 
L 155.348742 468.130605 
L 154.946695 469.790069 
L 154.881997 470.095871 
L 154.544648 472.357471 
L 154.469785 472.917349 
L 154.270548 475.738826 
L 154.2694 478.560304 
L 154.50904 481.381782 
L 154.544648 481.576276 
L 154.946695 483.232104 
L 155.33524 484.203259 
z
" clip-path="url(#p54eb83eb6b)" style="fill: #084285"/>
   </g>
   <g id="matplotlib.axis_1">
    <g id="xtick_1">
     <g id="line2d_1">
      <defs>
       <path id="m5094232697" d="M 0 0 
L 0 3.5 
" style="stroke: #000000; stroke-width: 0.8"/>
      </defs>
      <g>
       <use xlink:href="#m5094232697" x="197.767506" y="499.48" style="stroke: #000000; stroke-width: 0.8"/>
      </g>
     </g>
     <g id="text_1">
      <!-- 5 -->
      <g transform="translate(190.768756 523.196563) scale(0.22 -0.22)">
       <defs>
        <path id="DejaVuSans-35" d="M 691 4666 
L 3169 4666 
L 3169 4134 
L 1269 4134 
L 1269 2991 
Q 1406 3038 1543 3061 
Q 1681 3084 1819 3084 
Q 2600 3084 3056 2656 
Q 3513 2228 3513 1497 
Q 3513 744 3044 326 
Q 2575 -91 1722 -91 
Q 1428 -91 1123 -41 
Q 819 9 494 109 
L 494 744 
Q 775 591 1075 516 
Q 1375 441 1709 441 
Q 2250 441 2565 725 
Q 2881 1009 2881 1497 
Q 2881 1984 2565 2268 
Q 2250 2553 1709 2553 
Q 1456 2553 1204 2497 
Q 953 2441 691 2322 
L 691 4666 
z
" transform="scale(0.015625)"/>
       </defs>
       <use xlink:href="#DejaVuSans-35"/>
      </g>
     </g>
    </g>
    <g id="xtick_2">
     <g id="line2d_2">
      <g>
       <use xlink:href="#m5094232697" x="337.869198" y="499.48" style="stroke: #000000; stroke-width: 0.8"/>
      </g>
     </g>
     <g id="text_2">
      <!-- 10 -->
      <g transform="translate(323.871698 523.196563) scale(0.22 -0.22)">
       <defs>
        <path id="DejaVuSans-31" d="M 794 531 
L 1825 531 
L 1825 4091 
L 703 3866 
L 703 4441 
L 1819 4666 
L 2450 4666 
L 2450 531 
L 3481 531 
L 3481 0 
L 794 0 
L 794 531 
z
" transform="scale(0.015625)"/>
        <path id="DejaVuSans-30" d="M 2034 4250 
Q 1547 4250 1301 3770 
Q 1056 3291 1056 2328 
Q 1056 1369 1301 889 
Q 1547 409 2034 409 
Q 2525 409 2770 889 
Q 3016 1369 3016 2328 
Q 3016 3291 2770 3770 
Q 2525 4250 2034 4250 
z
M 2034 4750 
Q 2819 4750 3233 4129 
Q 3647 3509 3647 2328 
Q 3647 1150 3233 529 
Q 2819 -91 2034 -91 
Q 1250 -91 836 529 
Q 422 1150 422 2328 
Q 422 3509 836 4129 
Q 1250 4750 2034 4750 
z
" transform="scale(0.015625)"/>
       </defs>
       <use xlink:href="#DejaVuSans-31"/>
       <use xlink:href="#DejaVuSans-30" x="63.623047"/>
      </g>
     </g>
    </g>
    <g id="xtick_3">
     <g id="line2d_3">
      <g>
       <use xlink:href="#m5094232697" x="477.970891" y="499.48" style="stroke: #000000; stroke-width: 0.8"/>
      </g>
     </g>
     <g id="text_3">
      <!-- 15 -->
      <g transform="translate(463.973391 523.196563) scale(0.22 -0.22)">
       <use xlink:href="#DejaVuSans-31"/>
       <use xlink:href="#DejaVuSans-35" x="63.623047"/>
      </g>
     </g>
    </g>
    <g id="xtick_4">
     <g id="line2d_4">
      <g>
       <use xlink:href="#m5094232697" x="618.072583" y="499.48" style="stroke: #000000; stroke-width: 0.8"/>
      </g>
     </g>
     <g id="text_4">
      <!-- 20 -->
      <g transform="translate(604.075083 523.196563) scale(0.22 -0.22)">
       <defs>
        <path id="DejaVuSans-32" d="M 1228 531 
L 3431 531 
L 3431 0 
L 469 0 
L 469 531 
Q 828 903 1448 1529 
Q 2069 2156 2228 2338 
Q 2531 2678 2651 2914 
Q 2772 3150 2772 3378 
Q 2772 3750 2511 3984 
Q 2250 4219 1831 4219 
Q 1534 4219 1204 4116 
Q 875 4013 500 3803 
L 500 4441 
Q 881 4594 1212 4672 
Q 1544 4750 1819 4750 
Q 2544 4750 2975 4387 
Q 3406 4025 3406 3419 
Q 3406 3131 3298 2873 
Q 3191 2616 2906 2266 
Q 2828 2175 2409 1742 
Q 1991 1309 1228 531 
z
" transform="scale(0.015625)"/>
       </defs>
       <use xlink:href="#DejaVuSans-32"/>
       <use xlink:href="#DejaVuSans-30" x="63.623047"/>
      </g>
     </g>
    </g>
    <g id="text_5">
     <!-- Force Uncertainties -->
     <g transform="translate(293.911094 548.488438) scale(0.22 -0.22)">
      <defs>
       <path id="DejaVuSans-46" d="M 628 4666 
L 3309 4666 
L 3309 4134 
L 1259 4134 
L 1259 2759 
L 3109 2759 
L 3109 2228 
L 1259 2228 
L 1259 0 
L 628 0 
L 628 4666 
z
" transform="scale(0.015625)"/>
       <path id="DejaVuSans-6f" d="M 1959 3097 
Q 1497 3097 1228 2736 
Q 959 2375 959 1747 
Q 959 1119 1226 758 
Q 1494 397 1959 397 
Q 2419 397 2687 759 
Q 2956 1122 2956 1747 
Q 2956 2369 2687 2733 
Q 2419 3097 1959 3097 
z
M 1959 3584 
Q 2709 3584 3137 3096 
Q 3566 2609 3566 1747 
Q 3566 888 3137 398 
Q 2709 -91 1959 -91 
Q 1206 -91 779 398 
Q 353 888 353 1747 
Q 353 2609 779 3096 
Q 1206 3584 1959 3584 
z
" transform="scale(0.015625)"/>
       <path id="DejaVuSans-72" d="M 2631 2963 
Q 2534 3019 2420 3045 
Q 2306 3072 2169 3072 
Q 1681 3072 1420 2755 
Q 1159 2438 1159 1844 
L 1159 0 
L 581 0 
L 581 3500 
L 1159 3500 
L 1159 2956 
Q 1341 3275 1631 3429 
Q 1922 3584 2338 3584 
Q 2397 3584 2469 3576 
Q 2541 3569 2628 3553 
L 2631 2963 
z
" transform="scale(0.015625)"/>
       <path id="DejaVuSans-63" d="M 3122 3366 
L 3122 2828 
Q 2878 2963 2633 3030 
Q 2388 3097 2138 3097 
Q 1578 3097 1268 2742 
Q 959 2388 959 1747 
Q 959 1106 1268 751 
Q 1578 397 2138 397 
Q 2388 397 2633 464 
Q 2878 531 3122 666 
L 3122 134 
Q 2881 22 2623 -34 
Q 2366 -91 2075 -91 
Q 1284 -91 818 406 
Q 353 903 353 1747 
Q 353 2603 823 3093 
Q 1294 3584 2113 3584 
Q 2378 3584 2631 3529 
Q 2884 3475 3122 3366 
z
" transform="scale(0.015625)"/>
       <path id="DejaVuSans-65" d="M 3597 1894 
L 3597 1613 
L 953 1613 
Q 991 1019 1311 708 
Q 1631 397 2203 397 
Q 2534 397 2845 478 
Q 3156 559 3463 722 
L 3463 178 
Q 3153 47 2828 -22 
Q 2503 -91 2169 -91 
Q 1331 -91 842 396 
Q 353 884 353 1716 
Q 353 2575 817 3079 
Q 1281 3584 2069 3584 
Q 2775 3584 3186 3129 
Q 3597 2675 3597 1894 
z
M 3022 2063 
Q 3016 2534 2758 2815 
Q 2500 3097 2075 3097 
Q 1594 3097 1305 2825 
Q 1016 2553 972 2059 
L 3022 2063 
z
" transform="scale(0.015625)"/>
       <path id="DejaVuSans-20" transform="scale(0.015625)"/>
       <path id="DejaVuSans-55" d="M 556 4666 
L 1191 4666 
L 1191 1831 
Q 1191 1081 1462 751 
Q 1734 422 2344 422 
Q 2950 422 3222 751 
Q 3494 1081 3494 1831 
L 3494 4666 
L 4128 4666 
L 4128 1753 
Q 4128 841 3676 375 
Q 3225 -91 2344 -91 
Q 1459 -91 1007 375 
Q 556 841 556 1753 
L 556 4666 
z
" transform="scale(0.015625)"/>
       <path id="DejaVuSans-6e" d="M 3513 2113 
L 3513 0 
L 2938 0 
L 2938 2094 
Q 2938 2591 2744 2837 
Q 2550 3084 2163 3084 
Q 1697 3084 1428 2787 
Q 1159 2491 1159 1978 
L 1159 0 
L 581 0 
L 581 3500 
L 1159 3500 
L 1159 2956 
Q 1366 3272 1645 3428 
Q 1925 3584 2291 3584 
Q 2894 3584 3203 3211 
Q 3513 2838 3513 2113 
z
" transform="scale(0.015625)"/>
       <path id="DejaVuSans-74" d="M 1172 4494 
L 1172 3500 
L 2356 3500 
L 2356 3053 
L 1172 3053 
L 1172 1153 
Q 1172 725 1289 603 
Q 1406 481 1766 481 
L 2356 481 
L 2356 0 
L 1766 0 
Q 1100 0 847 248 
Q 594 497 594 1153 
L 594 3053 
L 172 3053 
L 172 3500 
L 594 3500 
L 594 4494 
L 1172 4494 
z
" transform="scale(0.015625)"/>
       <path id="DejaVuSans-61" d="M 2194 1759 
Q 1497 1759 1228 1600 
Q 959 1441 959 1056 
Q 959 750 1161 570 
Q 1363 391 1709 391 
Q 2188 391 2477 730 
Q 2766 1069 2766 1631 
L 2766 1759 
L 2194 1759 
z
M 3341 1997 
L 3341 0 
L 2766 0 
L 2766 531 
Q 2569 213 2275 61 
Q 1981 -91 1556 -91 
Q 1019 -91 701 211 
Q 384 513 384 1019 
Q 384 1609 779 1909 
Q 1175 2209 1959 2209 
L 2766 2209 
L 2766 2266 
Q 2766 2663 2505 2880 
Q 2244 3097 1772 3097 
Q 1472 3097 1187 3025 
Q 903 2953 641 2809 
L 641 3341 
Q 956 3463 1253 3523 
Q 1550 3584 1831 3584 
Q 2591 3584 2966 3190 
Q 3341 2797 3341 1997 
z
" transform="scale(0.015625)"/>
       <path id="DejaVuSans-69" d="M 603 3500 
L 1178 3500 
L 1178 0 
L 603 0 
L 603 3500 
z
M 603 4863 
L 1178 4863 
L 1178 4134 
L 603 4134 
L 603 4863 
z
" transform="scale(0.015625)"/>
       <path id="DejaVuSans-73" d="M 2834 3397 
L 2834 2853 
Q 2591 2978 2328 3040 
Q 2066 3103 1784 3103 
Q 1356 3103 1142 2972 
Q 928 2841 928 2578 
Q 928 2378 1081 2264 
Q 1234 2150 1697 2047 
L 1894 2003 
Q 2506 1872 2764 1633 
Q 3022 1394 3022 966 
Q 3022 478 2636 193 
Q 2250 -91 1575 -91 
Q 1294 -91 989 -36 
Q 684 19 347 128 
L 347 722 
Q 666 556 975 473 
Q 1284 391 1588 391 
Q 1994 391 2212 530 
Q 2431 669 2431 922 
Q 2431 1156 2273 1281 
Q 2116 1406 1581 1522 
L 1381 1569 
Q 847 1681 609 1914 
Q 372 2147 372 2553 
Q 372 3047 722 3315 
Q 1072 3584 1716 3584 
Q 2034 3584 2315 3537 
Q 2597 3491 2834 3397 
z
" transform="scale(0.015625)"/>
      </defs>
      <use xlink:href="#DejaVuSans-46"/>
      <use xlink:href="#DejaVuSans-6f" x="53.894531"/>
      <use xlink:href="#DejaVuSans-72" x="115.076172"/>
      <use xlink:href="#DejaVuSans-63" x="153.939453"/>
      <use xlink:href="#DejaVuSans-65" x="208.919922"/>
      <use xlink:href="#DejaVuSans-20" x="270.443359"/>
      <use xlink:href="#DejaVuSans-55" x="302.230469"/>
      <use xlink:href="#DejaVuSans-6e" x="375.423828"/>
      <use xlink:href="#DejaVuSans-63" x="438.802734"/>
      <use xlink:href="#DejaVuSans-65" x="493.783203"/>
      <use xlink:href="#DejaVuSans-72" x="555.306641"/>
      <use xlink:href="#DejaVuSans-74" x="596.419922"/>
      <use xlink:href="#DejaVuSans-61" x="635.628906"/>
      <use xlink:href="#DejaVuSans-69" x="696.908203"/>
      <use xlink:href="#DejaVuSans-6e" x="724.691406"/>
      <use xlink:href="#DejaVuSans-74" x="788.070312"/>
      <use xlink:href="#DejaVuSans-69" x="827.279297"/>
      <use xlink:href="#DejaVuSans-65" x="855.0625"/>
      <use xlink:href="#DejaVuSans-73" x="916.585938"/>
     </g>
    </g>
   </g>
   <g id="matplotlib.axis_2">
    <g id="ytick_1">
     <g id="line2d_5">
      <defs>
       <path id="mc71e803334" d="M 0 0 
L -3.5 0 
" style="stroke: #000000; stroke-width: 0.8"/>
      </defs>
      <g>
       <use xlink:href="#mc71e803334" x="104.69" y="481.04756" style="stroke: #000000; stroke-width: 0.8"/>
      </g>
     </g>
     <g id="text_6">
      <!-- 2.5 -->
      <g transform="translate(62.703125 489.405841) scale(0.22 -0.22)">
       <defs>
        <path id="DejaVuSans-2e" d="M 684 794 
L 1344 794 
L 1344 0 
L 684 0 
L 684 794 
z
" transform="scale(0.015625)"/>
       </defs>
       <use xlink:href="#DejaVuSans-32"/>
       <use xlink:href="#DejaVuSans-2e" x="63.623047"/>
       <use xlink:href="#DejaVuSans-35" x="95.410156"/>
      </g>
     </g>
    </g>
    <g id="ytick_2">
     <g id="line2d_6">
      <g>
       <use xlink:href="#mc71e803334" x="104.69" y="424.973078" style="stroke: #000000; stroke-width: 0.8"/>
      </g>
     </g>
     <g id="text_7">
      <!-- 5.0 -->
      <g transform="translate(62.703125 433.331359) scale(0.22 -0.22)">
       <use xlink:href="#DejaVuSans-35"/>
       <use xlink:href="#DejaVuSans-2e" x="63.623047"/>
       <use xlink:href="#DejaVuSans-30" x="95.410156"/>
      </g>
     </g>
    </g>
    <g id="ytick_3">
     <g id="line2d_7">
      <g>
       <use xlink:href="#mc71e803334" x="104.69" y="368.898595" style="stroke: #000000; stroke-width: 0.8"/>
      </g>
     </g>
     <g id="text_8">
      <!-- 7.5 -->
      <g transform="translate(62.703125 377.256876) scale(0.22 -0.22)">
       <defs>
        <path id="DejaVuSans-37" d="M 525 4666 
L 3525 4666 
L 3525 4397 
L 1831 0 
L 1172 0 
L 2766 4134 
L 525 4134 
L 525 4666 
z
" transform="scale(0.015625)"/>
       </defs>
       <use xlink:href="#DejaVuSans-37"/>
       <use xlink:href="#DejaVuSans-2e" x="63.623047"/>
       <use xlink:href="#DejaVuSans-35" x="95.410156"/>
      </g>
     </g>
    </g>
    <g id="ytick_4">
     <g id="line2d_8">
      <g>
       <use xlink:href="#mc71e803334" x="104.69" y="312.824113" style="stroke: #000000; stroke-width: 0.8"/>
      </g>
     </g>
     <g id="text_9">
      <!-- 10.0 -->
      <g transform="translate(48.705625 321.182394) scale(0.22 -0.22)">
       <use xlink:href="#DejaVuSans-31"/>
       <use xlink:href="#DejaVuSans-30" x="63.623047"/>
       <use xlink:href="#DejaVuSans-2e" x="127.246094"/>
       <use xlink:href="#DejaVuSans-30" x="159.033203"/>
      </g>
     </g>
    </g>
    <g id="ytick_5">
     <g id="line2d_9">
      <g>
       <use xlink:href="#mc71e803334" x="104.69" y="256.74963" style="stroke: #000000; stroke-width: 0.8"/>
      </g>
     </g>
     <g id="text_10">
      <!-- 12.5 -->
      <g transform="translate(48.705625 265.107912) scale(0.22 -0.22)">
       <use xlink:href="#DejaVuSans-31"/>
       <use xlink:href="#DejaVuSans-32" x="63.623047"/>
       <use xlink:href="#DejaVuSans-2e" x="127.246094"/>
       <use xlink:href="#DejaVuSans-35" x="159.033203"/>
      </g>
     </g>
    </g>
    <g id="ytick_6">
     <g id="line2d_10">
      <g>
       <use xlink:href="#mc71e803334" x="104.69" y="200.675148" style="stroke: #000000; stroke-width: 0.8"/>
      </g>
     </g>
     <g id="text_11">
      <!-- 15.0 -->
      <g transform="translate(48.705625 209.033429) scale(0.22 -0.22)">
       <use xlink:href="#DejaVuSans-31"/>
       <use xlink:href="#DejaVuSans-35" x="63.623047"/>
       <use xlink:href="#DejaVuSans-2e" x="127.246094"/>
       <use xlink:href="#DejaVuSans-30" x="159.033203"/>
      </g>
     </g>
    </g>
    <g id="ytick_7">
     <g id="line2d_11">
      <g>
       <use xlink:href="#mc71e803334" x="104.69" y="144.600666" style="stroke: #000000; stroke-width: 0.8"/>
      </g>
     </g>
     <g id="text_12">
      <!-- 17.5 -->
      <g transform="translate(48.705625 152.958947) scale(0.22 -0.22)">
       <use xlink:href="#DejaVuSans-31"/>
       <use xlink:href="#DejaVuSans-37" x="63.623047"/>
       <use xlink:href="#DejaVuSans-2e" x="127.246094"/>
       <use xlink:href="#DejaVuSans-35" x="159.033203"/>
      </g>
     </g>
    </g>
    <g id="ytick_8">
     <g id="line2d_12">
      <g>
       <use xlink:href="#mc71e803334" x="104.69" y="88.526183" style="stroke: #000000; stroke-width: 0.8"/>
      </g>
     </g>
     <g id="text_13">
      <!-- 20.0 -->
      <g transform="translate(48.705625 96.884464) scale(0.22 -0.22)">
       <use xlink:href="#DejaVuSans-32"/>
       <use xlink:href="#DejaVuSans-30" x="63.623047"/>
       <use xlink:href="#DejaVuSans-2e" x="127.246094"/>
       <use xlink:href="#DejaVuSans-30" x="159.033203"/>
      </g>
     </g>
    </g>
    <g id="ytick_9">
     <g id="line2d_13">
      <g>
       <use xlink:href="#mc71e803334" x="104.69" y="32.451701" style="stroke: #000000; stroke-width: 0.8"/>
      </g>
     </g>
     <g id="text_14">
      <!-- 22.5 -->
      <g transform="translate(48.705625 40.809982) scale(0.22 -0.22)">
       <use xlink:href="#DejaVuSans-32"/>
       <use xlink:href="#DejaVuSans-32" x="63.623047"/>
       <use xlink:href="#DejaVuSans-2e" x="127.246094"/>
       <use xlink:href="#DejaVuSans-35" x="159.033203"/>
      </g>
     </g>
    </g>
    <g id="text_15">
     <!-- Force Errors [kJ/(mol*A)] -->
     <g transform="translate(40.130313 396.009763) rotate(-90) scale(0.22 -0.22)">
      <defs>
       <path id="DejaVuSans-45" d="M 628 4666 
L 3578 4666 
L 3578 4134 
L 1259 4134 
L 1259 2753 
L 3481 2753 
L 3481 2222 
L 1259 2222 
L 1259 531 
L 3634 531 
L 3634 0 
L 628 0 
L 628 4666 
z
" transform="scale(0.015625)"/>
       <path id="DejaVuSans-5b" d="M 550 4863 
L 1875 4863 
L 1875 4416 
L 1125 4416 
L 1125 -397 
L 1875 -397 
L 1875 -844 
L 550 -844 
L 550 4863 
z
" transform="scale(0.015625)"/>
       <path id="DejaVuSans-6b" d="M 581 4863 
L 1159 4863 
L 1159 1991 
L 2875 3500 
L 3609 3500 
L 1753 1863 
L 3688 0 
L 2938 0 
L 1159 1709 
L 1159 0 
L 581 0 
L 581 4863 
z
" transform="scale(0.015625)"/>
       <path id="DejaVuSans-4a" d="M 628 4666 
L 1259 4666 
L 1259 325 
Q 1259 -519 939 -900 
Q 619 -1281 -91 -1281 
L -331 -1281 
L -331 -750 
L -134 -750 
Q 284 -750 456 -515 
Q 628 -281 628 325 
L 628 4666 
z
" transform="scale(0.015625)"/>
       <path id="DejaVuSans-2f" d="M 1625 4666 
L 2156 4666 
L 531 -594 
L 0 -594 
L 1625 4666 
z
" transform="scale(0.015625)"/>
       <path id="DejaVuSans-28" d="M 1984 4856 
Q 1566 4138 1362 3434 
Q 1159 2731 1159 2009 
Q 1159 1288 1364 580 
Q 1569 -128 1984 -844 
L 1484 -844 
Q 1016 -109 783 600 
Q 550 1309 550 2009 
Q 550 2706 781 3412 
Q 1013 4119 1484 4856 
L 1984 4856 
z
" transform="scale(0.015625)"/>
       <path id="DejaVuSans-6d" d="M 3328 2828 
Q 3544 3216 3844 3400 
Q 4144 3584 4550 3584 
Q 5097 3584 5394 3201 
Q 5691 2819 5691 2113 
L 5691 0 
L 5113 0 
L 5113 2094 
Q 5113 2597 4934 2840 
Q 4756 3084 4391 3084 
Q 3944 3084 3684 2787 
Q 3425 2491 3425 1978 
L 3425 0 
L 2847 0 
L 2847 2094 
Q 2847 2600 2669 2842 
Q 2491 3084 2119 3084 
Q 1678 3084 1418 2786 
Q 1159 2488 1159 1978 
L 1159 0 
L 581 0 
L 581 3500 
L 1159 3500 
L 1159 2956 
Q 1356 3278 1631 3431 
Q 1906 3584 2284 3584 
Q 2666 3584 2933 3390 
Q 3200 3197 3328 2828 
z
" transform="scale(0.015625)"/>
       <path id="DejaVuSans-6c" d="M 603 4863 
L 1178 4863 
L 1178 0 
L 603 0 
L 603 4863 
z
" transform="scale(0.015625)"/>
       <path id="DejaVuSans-2a" d="M 3009 3897 
L 1888 3291 
L 3009 2681 
L 2828 2375 
L 1778 3009 
L 1778 1831 
L 1422 1831 
L 1422 3009 
L 372 2375 
L 191 2681 
L 1313 3291 
L 191 3897 
L 372 4206 
L 1422 3572 
L 1422 4750 
L 1778 4750 
L 1778 3572 
L 2828 4206 
L 3009 3897 
z
" transform="scale(0.015625)"/>
       <path id="DejaVuSans-41" d="M 2188 4044 
L 1331 1722 
L 3047 1722 
L 2188 4044 
z
M 1831 4666 
L 2547 4666 
L 4325 0 
L 3669 0 
L 3244 1197 
L 1141 1197 
L 716 0 
L 50 0 
L 1831 4666 
z
" transform="scale(0.015625)"/>
       <path id="DejaVuSans-29" d="M 513 4856 
L 1013 4856 
Q 1481 4119 1714 3412 
Q 1947 2706 1947 2009 
Q 1947 1309 1714 600 
Q 1481 -109 1013 -844 
L 513 -844 
Q 928 -128 1133 580 
Q 1338 1288 1338 2009 
Q 1338 2731 1133 3434 
Q 928 4138 513 4856 
z
" transform="scale(0.015625)"/>
       <path id="DejaVuSans-5d" d="M 1947 4863 
L 1947 -844 
L 622 -844 
L 622 -397 
L 1369 -397 
L 1369 4416 
L 622 4416 
L 622 4863 
L 1947 4863 
z
" transform="scale(0.015625)"/>
      </defs>
      <use xlink:href="#DejaVuSans-46"/>
      <use xlink:href="#DejaVuSans-6f" x="53.894531"/>
      <use xlink:href="#DejaVuSans-72" x="115.076172"/>
      <use xlink:href="#DejaVuSans-63" x="153.939453"/>
      <use xlink:href="#DejaVuSans-65" x="208.919922"/>
      <use xlink:href="#DejaVuSans-20" x="270.443359"/>
      <use xlink:href="#DejaVuSans-45" x="302.230469"/>
      <use xlink:href="#DejaVuSans-72" x="365.414062"/>
      <use xlink:href="#DejaVuSans-72" x="404.777344"/>
      <use xlink:href="#DejaVuSans-6f" x="443.640625"/>
      <use xlink:href="#DejaVuSans-72" x="504.822266"/>
      <use xlink:href="#DejaVuSans-73" x="545.935547"/>
      <use xlink:href="#DejaVuSans-20" x="598.035156"/>
      <use xlink:href="#DejaVuSans-5b" x="629.822266"/>
      <use xlink:href="#DejaVuSans-6b" x="668.835938"/>
      <use xlink:href="#DejaVuSans-4a" x="726.746094"/>
      <use xlink:href="#DejaVuSans-2f" x="756.238281"/>
      <use xlink:href="#DejaVuSans-28" x="789.929688"/>
      <use xlink:href="#DejaVuSans-6d" x="828.943359"/>
      <use xlink:href="#DejaVuSans-6f" x="926.355469"/>
      <use xlink:href="#DejaVuSans-6c" x="987.537109"/>
      <use xlink:href="#DejaVuSans-2a" x="1015.320312"/>
      <use xlink:href="#DejaVuSans-41" x="1065.320312"/>
      <use xlink:href="#DejaVuSans-29" x="1133.728516"/>
      <use xlink:href="#DejaVuSans-5d" x="1172.742188"/>
     </g>
    </g>
   </g>
   <g id="line2d_14">
    <path d="M 104.69 499.48 
L 696.24 25.954527 
" clip-path="url(#p54eb83eb6b)" style="fill: none; stroke-dasharray: 5.55,2.4; stroke-dashoffset: 0; stroke: #ff0000; stroke-width: 1.5"/>
   </g>
   <g id="patch_3">
    <path d="M 104.69 499.48 
L 104.69 25.954527 
" style="fill: none; stroke: #000000; stroke-width: 0.8; stroke-linejoin: miter; stroke-linecap: square"/>
   </g>
   <g id="patch_4">
    <path d="M 696.24 499.48 
L 696.24 25.954527 
" style="fill: none; stroke: #000000; stroke-width: 0.8; stroke-linejoin: miter; stroke-linecap: square"/>
   </g>
   <g id="patch_5">
    <path d="M 104.69 499.48 
L 696.24 499.48 
" style="fill: none; stroke: #000000; stroke-width: 0.8; stroke-linejoin: miter; stroke-linecap: square"/>
   </g>
   <g id="patch_6">
    <path d="M 104.69 25.954527 
L 696.24 25.954527 
" style="fill: none; stroke: #000000; stroke-width: 0.8; stroke-linejoin: miter; stroke-linecap: square"/>
   </g>
   <g id="text_16">
    <!-- Correlation in: 0.553 -->
    <g transform="translate(163.845 73.307074) scale(0.22 -0.22)">
     <defs>
      <path id="DejaVuSans-43" d="M 4122 4306 
L 4122 3641 
Q 3803 3938 3442 4084 
Q 3081 4231 2675 4231 
Q 1875 4231 1450 3742 
Q 1025 3253 1025 2328 
Q 1025 1406 1450 917 
Q 1875 428 2675 428 
Q 3081 428 3442 575 
Q 3803 722 4122 1019 
L 4122 359 
Q 3791 134 3420 21 
Q 3050 -91 2638 -91 
Q 1578 -91 968 557 
Q 359 1206 359 2328 
Q 359 3453 968 4101 
Q 1578 4750 2638 4750 
Q 3056 4750 3426 4639 
Q 3797 4528 4122 4306 
z
" transform="scale(0.015625)"/>
      <path id="DejaVuSans-3a" d="M 750 794 
L 1409 794 
L 1409 0 
L 750 0 
L 750 794 
z
M 750 3309 
L 1409 3309 
L 1409 2516 
L 750 2516 
L 750 3309 
z
" transform="scale(0.015625)"/>
      <path id="DejaVuSans-33" d="M 2597 2516 
Q 3050 2419 3304 2112 
Q 3559 1806 3559 1356 
Q 3559 666 3084 287 
Q 2609 -91 1734 -91 
Q 1441 -91 1130 -33 
Q 819 25 488 141 
L 488 750 
Q 750 597 1062 519 
Q 1375 441 1716 441 
Q 2309 441 2620 675 
Q 2931 909 2931 1356 
Q 2931 1769 2642 2001 
Q 2353 2234 1838 2234 
L 1294 2234 
L 1294 2753 
L 1863 2753 
Q 2328 2753 2575 2939 
Q 2822 3125 2822 3475 
Q 2822 3834 2567 4026 
Q 2313 4219 1838 4219 
Q 1578 4219 1281 4162 
Q 984 4106 628 3988 
L 628 4550 
Q 988 4650 1302 4700 
Q 1616 4750 1894 4750 
Q 2613 4750 3031 4423 
Q 3450 4097 3450 3541 
Q 3450 3153 3228 2886 
Q 3006 2619 2597 2516 
z
" transform="scale(0.015625)"/>
     </defs>
     <use xlink:href="#DejaVuSans-43"/>
     <use xlink:href="#DejaVuSans-6f" x="69.824219"/>
     <use xlink:href="#DejaVuSans-72" x="131.005859"/>
     <use xlink:href="#DejaVuSans-72" x="170.369141"/>
     <use xlink:href="#DejaVuSans-65" x="209.232422"/>
     <use xlink:href="#DejaVuSans-6c" x="270.755859"/>
     <use xlink:href="#DejaVuSans-61" x="298.539062"/>
     <use xlink:href="#DejaVuSans-74" x="359.818359"/>
     <use xlink:href="#DejaVuSans-69" x="399.027344"/>
     <use xlink:href="#DejaVuSans-6f" x="426.810547"/>
     <use xlink:href="#DejaVuSans-6e" x="487.992188"/>
     <use xlink:href="#DejaVuSans-20" x="551.371094"/>
     <use xlink:href="#DejaVuSans-69" x="583.158203"/>
     <use xlink:href="#DejaVuSans-6e" x="610.941406"/>
     <use xlink:href="#DejaVuSans-3a" x="674.320312"/>
     <use xlink:href="#DejaVuSans-20" x="708.011719"/>
     <use xlink:href="#DejaVuSans-30" x="739.798828"/>
     <use xlink:href="#DejaVuSans-2e" x="803.421875"/>
     <use xlink:href="#DejaVuSans-35" x="835.208984"/>
     <use xlink:href="#DejaVuSans-35" x="898.832031"/>
     <use xlink:href="#DejaVuSans-33" x="962.455078"/>
    </g>
   </g>
  </g>
 </g>
 <defs>
  <clipPath id="p54eb83eb6b">
   <rect x="104.69" y="25.954527" width="591.55" height="473.525473"/>
  </clipPath>
 </defs>
</svg>
