<?xml version="1.0" encoding="utf-8" standalone="no"?>
<!DOCTYPE svg PUBLIC "-//W3C//DTD SVG 1.1//EN"
  "http://www.w3.org/Graphics/SVG/1.1/DTD/svg11.dtd">
<svg xmlns:xlink="http://www.w3.org/1999/xlink" width="720pt" height="576pt" viewBox="0 0 720 576" xmlns="http://www.w3.org/2000/svg" version="1.1">
 <metadata>
  <rdf:RDF xmlns:dc="http://purl.org/dc/elements/1.1/" xmlns:cc="http://creativecommons.org/ns#" xmlns:rdf="http://www.w3.org/1999/02/22-rdf-syntax-ns#">
   <cc:Work>
    <dc:type rdf:resource="http://purl.org/dc/dcmitype/StillImage"/>
    <dc:date>2024-12-07T20:21:38.464106</dc:date>
    <dc:format>image/svg+xml</dc:format>
    <dc:creator>
     <cc:Agent>
      <dc:title>Matplotlib v3.8.4, https://matplotlib.org/</dc:title>
     </cc:Agent>
    </dc:creator>
   </cc:Work>
  </rdf:RDF>
 </metadata>
 <defs>
  <style type="text/css">*{stroke-linejoin: round; stroke-linecap: butt}</style>
 </defs>
 <g id="figure_1">
  <g id="patch_1">
   <path d="M 0 576 
L 720 576 
L 720 0 
L 0 0 
z
" style="fill: #ffffff"/>
  </g>
  <g id="axes_1">
   <g id="patch_2">
    <path d="M 104.69 499.48 
L 696.24 499.48 
L 696.24 23.76 
L 104.69 23.76 
z
" style="fill: #ffffff"/>
   </g>
   <g id="QuadContourSet_1">
    <path d="M 139.540709 526.998749 
L 141.10488 527.701202 
L 142.669051 528.221144 
L 144.233221 528.5896 
L 145.797392 528.829034 
L 147.361562 528.955157 
L 148.925733 528.97813 
L 150.489903 528.903286 
L 152.054074 528.731479 
L 153.618244 528.459086 
L 155.182415 528.077689 
L 156.746585 527.573408 
L 158.310756 526.925862 
L 159.43582 526.352721 
L 159.874926 526.187863 
L 161.439097 525.505496 
L 163.003267 524.663054 
L 164.567438 523.621509 
L 164.790531 523.459468 
L 166.131608 522.705821 
L 167.695779 521.649906 
L 169.036654 520.566214 
L 169.25995 520.422008 
L 170.82412 519.350715 
L 172.388291 518.051473 
L 172.821426 517.67296 
L 173.952461 516.855938 
L 175.516632 515.575466 
L 176.420423 514.779706 
L 177.080802 514.284722 
L 178.644973 513.077513 
L 180.066559 511.886452 
L 180.209143 511.78168 
L 181.773314 510.753562 
L 183.337484 509.737044 
L 184.675721 508.993199 
L 184.901655 508.879879 
L 186.465825 508.376588 
L 188.029996 508.149401 
L 189.594166 508.246872 
L 191.158337 508.631589 
L 192.157144 508.993199 
L 192.722508 509.218943 
L 194.286678 509.899278 
L 195.850849 510.526168 
L 197.415019 511.050885 
L 198.97919 511.458525 
L 200.54336 511.753426 
L 201.592389 511.886452 
L 202.107531 511.960457 
L 203.671701 512.0948 
L 205.235872 512.148498 
L 206.800042 512.136701 
L 208.364213 512.073588 
L 209.928383 511.972262 
L 210.978397 511.886452 
L 211.492554 511.852905 
L 213.056724 511.738387 
L 214.620895 511.617549 
L 216.185065 511.493024 
L 217.749236 511.363994 
L 219.313407 511.226034 
L 220.877577 511.071331 
L 222.441748 510.889224 
L 224.005918 510.666859 
L 225.570089 510.389728 
L 227.134259 510.04191 
L 228.69843 509.605918 
L 230.2626 509.062121 
L 230.43044 508.993199 
L 231.826771 508.525621 
L 233.390941 507.890228 
L 234.955112 507.118129 
L 236.519282 506.181471 
L 236.641917 506.099945 
L 238.083453 505.278711 
L 239.647623 504.218239 
L 240.917199 503.206691 
L 241.211794 502.997689 
L 242.775964 501.785824 
L 244.340135 500.338643 
L 244.36609 500.313437 
L 245.904306 498.930829 
L 247.33631 497.420183 
L 247.468476 497.286905 
L 249.032647 495.633149 
L 249.966909 494.52693 
L 250.596817 493.790096 
L 252.160988 491.79173 
L 252.280391 491.633676 
L 253.725158 489.681546 
L 254.373037 488.740422 
L 255.289329 487.334721 
L 256.212493 485.847168 
L 256.853499 484.716306 
L 257.826588 482.953915 
L 258.41767 481.73556 
L 259.227501 480.060661 
L 259.98184 478.208221 
L 260.414189 477.167407 
L 261.394252 474.274153 
L 261.546011 473.706051 
L 262.207711 471.380899 
L 262.80641 468.487646 
L 263.110181 466.306508 
L 263.220333 465.594392 
L 263.477908 462.701138 
L 263.557927 459.807884 
L 263.479062 456.91463 
L 263.259749 454.021377 
L 263.110181 452.719954 
L 262.942154 451.128123 
L 262.553092 448.234869 
L 262.088024 445.341615 
L 261.54999 442.448362 
L 261.546011 442.428545 
L 260.98125 439.555108 
L 260.299961 436.661854 
L 259.98184 435.488345 
L 259.481798 433.7686 
L 258.449834 430.875346 
L 258.41767 430.793663 
L 257.063605 427.982093 
L 256.853499 427.588146 
L 255.289329 425.422377 
L 254.919483 425.088839 
L 253.725158 423.995824 
L 252.160988 423.241973 
L 250.596817 423.003471 
L 249.032647 423.135238 
L 247.468476 423.540256 
L 245.904306 424.153932 
L 244.340135 424.933717 
L 244.078104 425.088839 
L 242.775964 425.687291 
L 241.211794 426.484436 
L 239.647623 427.345764 
L 238.557033 427.982093 
L 238.083453 428.202436 
L 236.519282 428.948027 
L 234.955112 429.712923 
L 233.390941 430.495979 
L 232.629253 430.875346 
L 231.826771 431.198806 
L 230.2626 431.816045 
L 228.69843 432.432132 
L 227.134259 433.046278 
L 225.570089 433.656727 
L 225.259404 433.7686 
L 224.005918 434.141273 
L 222.441748 434.584027 
L 220.877577 435.007425 
L 219.313407 435.404659 
L 217.749236 435.763622 
L 216.185065 436.061846 
L 214.620895 436.2566 
L 213.056724 436.265937 
L 211.492554 435.933543 
L 209.928383 434.967102 
L 208.972443 433.7686 
L 208.364213 432.659768 
L 207.706214 430.875346 
L 206.800042 428.09422 
L 206.772166 427.982093 
L 205.99072 425.088839 
L 205.235872 422.640496 
L 205.124834 422.195585 
L 204.309911 419.302331 
L 203.671701 417.275688 
L 203.446409 416.409077 
L 202.631415 413.515824 
L 202.107531 411.793525 
L 201.803187 410.62257 
L 200.995989 407.729316 
L 200.54336 406.216367 
L 200.175686 404.836062 
L 199.350047 401.942809 
L 198.97919 400.700149 
L 198.52609 399.049555 
L 197.702334 396.156301 
L 197.415019 395.119772 
L 196.929118 393.263047 
L 196.211989 390.369793 
L 195.850849 388.672932 
L 195.601951 387.47654 
L 195.158014 384.583286 
L 194.910269 381.690032 
L 194.917379 378.796778 
L 195.208045 375.903525 
L 195.770643 373.010271 
L 195.850849 372.701363 
L 196.54112 370.117017 
L 197.415019 367.223763 
L 197.415019 367.223763 
L 198.283282 364.330509 
L 198.97919 361.75579 
L 199.065626 361.437256 
L 199.702688 358.544002 
L 200.162847 355.650748 
L 200.432975 352.757494 
L 200.51242 349.86424 
L 200.412734 346.970987 
L 200.153876 344.077733 
L 199.756366 341.184479 
L 199.232101 338.291225 
L 198.97919 337.154178 
L 198.59143 335.397972 
L 197.818449 332.504718 
L 197.415019 331.240107 
L 196.87713 329.611464 
L 195.850849 326.999278 
L 195.73243 326.71821 
L 194.346234 323.824956 
L 194.286678 323.71074 
L 192.722508 320.960379 
L 192.704333 320.931703 
L 191.158337 318.51 
L 190.819325 318.038449 
L 189.594166 316.254421 
L 188.717989 315.145195 
L 188.029996 314.209962 
L 186.465825 312.467783 
L 186.200921 312.251941 
L 184.901655 311.145161 
L 183.337484 310.405209 
L 181.773314 310.307922 
L 180.209143 310.886945 
L 178.644973 312.165038 
L 178.575113 312.251941 
L 177.080802 314.253726 
L 176.587863 315.145195 
L 175.516632 317.257189 
L 175.195266 318.038449 
L 174.100949 320.931703 
L 173.952461 321.350368 
L 173.186509 323.824956 
L 172.388291 326.597065 
L 172.356101 326.71821 
L 171.603796 329.611464 
L 170.884041 332.504718 
L 170.82412 332.752622 
L 170.188715 335.397972 
L 169.509164 338.291225 
L 169.25995 339.39163 
L 168.831208 341.184479 
L 168.15604 344.077733 
L 167.695779 346.112397 
L 167.478362 346.970987 
L 166.78857 349.86424 
L 166.131608 352.61692 
L 166.092059 352.757494 
L 165.352389 355.650748 
L 164.567438 358.436519 
L 164.53082 358.544002 
L 163.500566 361.437256 
L 163.003267 362.52107 
L 162.061751 364.330509 
L 161.439097 365.24523 
L 160.105726 367.223763 
L 159.874926 367.486484 
L 158.310756 369.57054 
L 157.962649 370.117017 
L 156.746585 371.680767 
L 155.906665 373.010271 
L 155.182415 373.956816 
L 153.984858 375.903525 
L 153.618244 376.405206 
L 152.197018 378.796778 
L 152.054074 379.004863 
L 150.521435 381.690032 
L 150.489903 381.739354 
L 148.940319 384.583286 
L 148.925733 384.607984 
L 147.443155 387.47654 
L 147.361562 387.626912 
L 146.024368 390.369793 
L 145.797392 390.826436 
L 144.680985 393.263047 
L 144.233221 394.246181 
L 143.411331 396.156301 
L 142.669051 397.927806 
L 142.214513 399.049555 
L 141.10488 401.904778 
L 141.090272 401.942809 
L 139.960254 404.836062 
L 139.540709 405.951522 
L 138.869434 407.729316 
L 137.976539 410.193613 
L 137.817883 410.62257 
L 136.727567 413.515824 
L 136.412368 414.354967 
L 135.618985 416.409077 
L 134.848198 418.457624 
L 134.51777 419.302331 
L 133.390925 422.195585 
L 133.284027 422.462063 
L 132.18665 425.088839 
L 131.719857 426.235267 
L 130.974558 427.982093 
L 130.155686 429.962643 
L 129.758553 430.875346 
L 128.591516 433.667642 
L 128.54697 433.7686 
L 127.276569 436.661854 
L 127.027345 437.26515 
L 126.024832 439.555108 
L 125.463175 440.956362 
L 124.82512 442.448362 
L 123.899004 444.872645 
L 123.706101 445.341615 
L 122.616174 448.234869 
L 122.334834 449.094511 
L 121.601031 451.128123 
L 120.770663 453.956856 
L 120.749405 454.021377 
L 119.90334 456.91463 
L 119.261236 459.807884 
L 119.206493 460.110561 
L 118.65081 462.701138 
L 118.195348 465.594392 
L 117.881188 468.487646 
L 117.687861 471.380899 
L 117.642322 472.901629 
L 117.589351 474.274153 
L 117.605442 477.167407 
L 117.642322 477.951139 
L 117.719765 480.060661 
L 117.916657 482.953915 
L 118.206356 485.847168 
L 118.595186 488.740422 
L 119.096294 491.633676 
L 119.206493 492.176072 
L 119.606323 494.52693 
L 120.220403 497.420183 
L 120.770663 499.517113 
L 120.954922 500.313437 
L 121.752843 503.206691 
L 122.334834 504.911866 
L 122.717718 506.099945 
L 123.871382 508.993199 
L 123.899004 509.055359 
L 125.182573 511.886452 
L 125.463175 512.425837 
L 126.778184 514.779706 
L 127.027345 515.189802 
L 128.591516 517.510713 
L 128.713505 517.67296 
L 130.155686 519.572566 
L 131.074595 520.566214 
L 131.719857 521.294963 
L 133.284027 522.801131 
L 134.119689 523.459468 
L 134.848198 524.10216 
L 136.412368 525.260317 
L 137.976539 526.147406 
L 138.413922 526.352721 
z
M 140.999167 514.779706 
L 139.540709 513.834846 
L 137.976539 512.516434 
L 137.348965 511.886452 
L 136.412368 510.963495 
L 134.848198 509.047681 
L 134.807925 508.993199 
L 133.284027 506.809453 
L 132.852251 506.099945 
L 131.719857 504.010673 
L 131.318635 503.206691 
L 130.155686 500.432038 
L 130.107406 500.313437 
L 129.089996 497.420183 
L 128.591516 495.573889 
L 128.29439 494.52693 
L 127.631834 491.633676 
L 127.140454 488.740422 
L 127.027345 487.870164 
L 126.724065 485.847168 
L 126.410992 482.953915 
L 126.208938 480.060661 
L 126.109024 477.167407 
L 126.109636 474.274153 
L 126.215129 471.380899 
L 126.43508 468.487646 
L 126.784164 465.594392 
L 127.027345 464.137065 
L 127.234058 462.701138 
L 127.779282 459.807884 
L 128.493263 456.91463 
L 128.591516 456.573811 
L 129.256786 454.021377 
L 130.155686 451.246582 
L 130.191009 451.128123 
L 131.152525 448.234869 
L 131.719857 446.756174 
L 132.231651 445.341615 
L 133.284027 442.758945 
L 133.40504 442.448362 
L 134.607767 439.555108 
L 134.848198 439.00921 
L 135.854235 436.661854 
L 136.412368 435.430676 
L 137.155011 433.7686 
L 137.976539 432.002465 
L 138.500387 430.875346 
L 139.540709 428.695407 
L 139.88588 427.982093 
L 141.10488 425.498213 
L 141.311851 425.088839 
L 142.669051 422.411081 
L 142.783492 422.195585 
L 144.233221 419.441615 
L 144.311432 419.302331 
L 145.797392 416.602805 
L 145.913291 416.409077 
L 147.361562 413.912563 
L 147.61663 413.515824 
L 148.925733 411.394021 
L 149.46403 410.62257 
L 150.489903 409.075747 
L 151.521457 407.729316 
L 152.054074 406.991448 
L 153.618244 405.118967 
L 153.889292 404.836062 
L 155.182415 403.378409 
L 156.746585 401.942809 
L 156.746585 401.942809 
L 158.310756 400.549446 
L 159.874926 399.421336 
L 160.476739 399.049555 
L 161.439097 398.386577 
L 163.003267 397.475005 
L 164.567438 396.71973 
L 165.964586 396.156301 
L 166.131608 396.079445 
L 167.695779 395.47115 
L 169.25995 394.991151 
L 170.82412 394.638404 
L 172.388291 394.422483 
L 173.952461 394.364255 
L 175.516632 394.49737 
L 177.080802 394.870676 
L 178.644973 395.551652 
L 179.558813 396.156301 
L 180.209143 396.588787 
L 181.773314 398.050466 
L 182.574851 399.049555 
L 183.337484 400.058357 
L 184.482991 401.942809 
L 184.901655 402.691556 
L 185.943479 404.836062 
L 186.465825 406.022266 
L 187.157298 407.729316 
L 188.029996 410.131641 
L 188.201095 410.62257 
L 189.141442 413.515824 
L 189.594166 415.070578 
L 189.982372 416.409077 
L 190.744115 419.302331 
L 191.158337 421.078986 
L 191.425891 422.195585 
L 192.051553 425.088839 
L 192.576694 427.982093 
L 192.722508 428.904631 
L 193.058116 430.875346 
L 193.469229 433.7686 
L 193.793676 436.661854 
L 194.040414 439.555108 
L 194.21901 442.448362 
L 194.286678 444.053148 
L 194.35186 445.341615 
L 194.440546 448.234869 
L 194.476468 451.128123 
L 194.464137 454.021377 
L 194.403991 456.91463 
L 194.290595 459.807884 
L 194.286678 459.876667 
L 194.157636 462.701138 
L 193.964713 465.594392 
L 193.68206 468.487646 
L 193.256627 471.380899 
L 192.722508 473.78068 
L 192.630782 474.274153 
L 191.916934 477.167407 
L 191.158337 479.242667 
L 190.897728 480.060661 
L 189.659587 482.953915 
L 189.594166 483.077627 
L 188.259345 485.847168 
L 188.029996 486.2373 
L 186.633309 488.740422 
L 186.465825 489.000576 
L 184.901655 491.502902 
L 184.821199 491.633676 
L 183.337484 493.850815 
L 182.868909 494.52693 
L 181.773314 496.036192 
L 180.70292 497.420183 
L 180.209143 498.051481 
L 178.644973 499.953719 
L 178.335329 500.313437 
L 177.080802 501.812178 
L 175.754159 503.206691 
L 175.516632 503.471497 
L 173.952461 505.143276 
L 172.923051 506.099945 
L 172.388291 506.645754 
L 170.82412 508.110709 
L 169.728774 508.993199 
L 169.25995 509.422417 
L 167.695779 510.727366 
L 166.131608 511.803745 
L 166.00014 511.886452 
L 164.567438 512.952708 
L 163.003267 513.915542 
L 161.439097 514.704315 
L 161.267167 514.779706 
L 159.874926 515.533416 
L 158.310756 516.213601 
L 156.746585 516.744275 
L 155.182415 517.142686 
L 153.618244 517.419875 
L 152.054074 517.581484 
L 150.489903 517.628212 
L 148.925733 517.555913 
L 147.361562 517.355336 
L 145.797392 517.011466 
L 144.233221 516.502372 
L 142.669051 515.797435 
L 141.10488 514.854732 
z
M 210.597281 491.633676 
L 209.928383 491.341085 
L 208.364213 490.416735 
L 206.800042 489.108423 
L 206.453013 488.740422 
L 205.235872 486.80855 
L 204.750568 485.847168 
L 204.005469 482.953915 
L 203.864762 480.060661 
L 204.186598 477.167407 
L 204.92215 474.274153 
L 205.235872 473.476039 
L 206.01444 471.380899 
L 206.800042 469.8084 
L 207.445787 468.487646 
L 208.364213 466.96666 
L 209.20189 465.594392 
L 209.928383 464.571961 
L 211.314473 462.701138 
L 211.492554 462.484868 
L 213.056724 460.667093 
L 213.850171 459.807884 
L 214.620895 459.030548 
L 216.185065 457.574699 
L 216.952097 456.91463 
L 217.749236 456.255146 
L 219.313407 455.069308 
L 220.845318 454.021377 
L 220.877577 453.99948 
L 222.441748 453.010775 
L 224.005918 452.126677 
L 225.570089 451.334409 
L 226.022578 451.128123 
L 227.134259 450.609053 
L 228.69843 449.971999 
L 230.2626 449.430953 
L 231.826771 448.98923 
L 233.390941 448.655723 
L 234.955112 448.446444 
L 236.519282 448.387016 
L 238.083453 448.5164 
L 239.647623 448.892259 
L 241.211794 449.598492 
L 242.775964 450.755474 
L 243.142304 451.128123 
L 244.340135 452.685066 
L 245.108855 454.021377 
L 245.904306 455.985296 
L 246.223405 456.91463 
L 246.876788 459.807884 
L 247.201735 462.701138 
L 247.245075 465.594392 
L 247.021983 468.487646 
L 246.526322 471.380899 
L 245.904306 473.665868 
L 245.74126 474.274153 
L 244.662619 477.167407 
L 244.340135 477.843297 
L 243.249092 480.060661 
L 242.775964 480.85523 
L 241.444922 482.953915 
L 241.211794 483.274234 
L 239.647623 485.261775 
L 239.135175 485.847168 
L 238.083453 486.94809 
L 236.519282 488.371158 
L 236.052517 488.740422 
L 234.955112 489.575981 
L 233.390941 490.573754 
L 231.826771 491.385288 
L 231.230729 491.633676 
L 230.2626 492.042447 
L 228.69843 492.549646 
L 227.134259 492.917853 
L 225.570089 493.165558 
L 224.005918 493.310421 
L 222.441748 493.369055 
L 220.877577 493.356186 
L 219.313407 493.283272 
L 217.749236 493.156762 
L 216.185065 492.976221 
L 214.620895 492.732558 
L 213.056724 492.406376 
L 211.492554 491.966365 
z
" clip-path="url(#p38371bdd1d)" style="fill: #f2f8fd"/>
    <path d="M 141.10488 514.854732 
L 142.669051 515.797435 
L 144.233221 516.502372 
L 145.797392 517.011466 
L 147.361562 517.355336 
L 148.925733 517.555913 
L 150.489903 517.628212 
L 152.054074 517.581484 
L 153.618244 517.419875 
L 155.182415 517.142686 
L 156.746585 516.744275 
L 158.310756 516.213601 
L 159.874926 515.533416 
L 161.267167 514.779706 
L 161.439097 514.704315 
L 163.003267 513.915542 
L 164.567438 512.952708 
L 166.00014 511.886452 
L 166.131608 511.803745 
L 167.695779 510.727366 
L 169.25995 509.422417 
L 169.728774 508.993199 
L 170.82412 508.110709 
L 172.388291 506.645754 
L 172.923051 506.099945 
L 173.952461 505.143276 
L 175.516632 503.471497 
L 175.754159 503.206691 
L 177.080802 501.812178 
L 178.335329 500.313437 
L 178.644973 499.953719 
L 180.209143 498.051481 
L 180.70292 497.420183 
L 181.773314 496.036192 
L 182.868909 494.52693 
L 183.337484 493.850815 
L 184.821199 491.633676 
L 184.901655 491.502902 
L 186.465825 489.000576 
L 186.633309 488.740422 
L 188.029996 486.2373 
L 188.259345 485.847168 
L 189.594166 483.077627 
L 189.659587 482.953915 
L 190.897728 480.060661 
L 191.158337 479.242667 
L 191.916934 477.167407 
L 192.630782 474.274153 
L 192.722508 473.78068 
L 193.256627 471.380899 
L 193.68206 468.487646 
L 193.964713 465.594392 
L 194.157636 462.701138 
L 194.286678 459.876667 
L 194.290595 459.807884 
L 194.403991 456.91463 
L 194.464137 454.021377 
L 194.476468 451.128123 
L 194.440546 448.234869 
L 194.35186 445.341615 
L 194.286678 444.053148 
L 194.21901 442.448362 
L 194.040414 439.555108 
L 193.793676 436.661854 
L 193.469229 433.7686 
L 193.058116 430.875346 
L 192.722508 428.904631 
L 192.576694 427.982093 
L 192.051553 425.088839 
L 191.425891 422.195585 
L 191.158337 421.078986 
L 190.744115 419.302331 
L 189.982372 416.409077 
L 189.594166 415.070578 
L 189.141442 413.515824 
L 188.201095 410.62257 
L 188.029996 410.131641 
L 187.157298 407.729316 
L 186.465825 406.022266 
L 185.943479 404.836062 
L 184.901655 402.691556 
L 184.482991 401.942809 
L 183.337484 400.058357 
L 182.574851 399.049555 
L 181.773314 398.050466 
L 180.209143 396.588787 
L 179.558813 396.156301 
L 178.644973 395.551652 
L 177.080802 394.870676 
L 175.516632 394.49737 
L 173.952461 394.364255 
L 172.388291 394.422483 
L 170.82412 394.638404 
L 169.25995 394.991151 
L 167.695779 395.47115 
L 166.131608 396.079445 
L 165.964586 396.156301 
L 164.567438 396.71973 
L 163.003267 397.475005 
L 161.439097 398.386577 
L 160.476739 399.049555 
L 159.874926 399.421336 
L 158.310756 400.549446 
L 156.746585 401.942809 
L 156.746585 401.942809 
L 155.182415 403.378409 
L 153.889292 404.836062 
L 153.618244 405.118967 
L 152.054074 406.991448 
L 151.521457 407.729316 
L 150.489903 409.075747 
L 149.46403 410.62257 
L 148.925733 411.394021 
L 147.61663 413.515824 
L 147.361562 413.912563 
L 145.913291 416.409077 
L 145.797392 416.602805 
L 144.311432 419.302331 
L 144.233221 419.441615 
L 142.783492 422.195585 
L 142.669051 422.411081 
L 141.311851 425.088839 
L 141.10488 425.498213 
L 139.88588 427.982093 
L 139.540709 428.695407 
L 138.500387 430.875346 
L 137.976539 432.002465 
L 137.155011 433.7686 
L 136.412368 435.430676 
L 135.854235 436.661854 
L 134.848198 439.00921 
L 134.607767 439.555108 
L 133.40504 442.448362 
L 133.284027 442.758945 
L 132.231651 445.341615 
L 131.719857 446.756174 
L 131.152525 448.234869 
L 130.191009 451.128123 
L 130.155686 451.246582 
L 129.256786 454.021377 
L 128.591516 456.573811 
L 128.493263 456.91463 
L 127.779282 459.807884 
L 127.234058 462.701138 
L 127.027345 464.137065 
L 126.784164 465.594392 
L 126.43508 468.487646 
L 126.215129 471.380899 
L 126.109636 474.274153 
L 126.109024 477.167407 
L 126.208938 480.060661 
L 126.410992 482.953915 
L 126.724065 485.847168 
L 127.027345 487.870164 
L 127.140454 488.740422 
L 127.631834 491.633676 
L 128.29439 494.52693 
L 128.591516 495.573889 
L 129.089996 497.420183 
L 130.107406 500.313437 
L 130.155686 500.432038 
L 131.318635 503.206691 
L 131.719857 504.010673 
L 132.852251 506.099945 
L 133.284027 506.809453 
L 134.807925 508.993199 
L 134.848198 509.047681 
L 136.412368 510.963495 
L 137.348965 511.886452 
L 137.976539 512.516434 
L 139.540709 513.834846 
L 140.999167 514.779706 
z
M 143.105611 508.993199 
L 142.669051 508.731431 
L 141.10488 507.568349 
L 139.597184 506.099945 
L 139.540709 506.044125 
L 137.976539 504.24772 
L 137.226534 503.206691 
L 136.412368 501.964318 
L 135.467179 500.313437 
L 134.848198 499.048021 
L 134.111833 497.420183 
L 133.284027 495.135142 
L 133.068749 494.52693 
L 132.2356 491.633676 
L 131.719857 489.187232 
L 131.620229 488.740422 
L 131.121786 485.847168 
L 130.780786 482.953915 
L 130.570064 480.060661 
L 130.473581 477.167407 
L 130.484087 474.274153 
L 130.601494 471.380899 
L 130.831796 468.487646 
L 131.186426 465.594392 
L 131.682137 462.701138 
L 131.719857 462.523776 
L 132.239548 459.807884 
L 132.948618 456.91463 
L 133.284027 455.764576 
L 133.75566 454.021377 
L 134.691892 451.128123 
L 134.848198 450.694006 
L 135.691363 448.234869 
L 136.412368 446.3916 
L 136.810082 445.341615 
L 137.976539 442.563861 
L 138.024288 442.448362 
L 139.28548 439.555108 
L 139.540709 439.001876 
L 140.625693 436.661854 
L 141.10488 435.672259 
L 142.046798 433.7686 
L 142.669051 432.544137 
L 143.550725 430.875346 
L 144.233221 429.598347 
L 145.147587 427.982093 
L 145.797392 426.830347 
L 146.856951 425.088839 
L 147.361562 424.245706 
L 148.710109 422.195585 
L 148.925733 421.857873 
L 150.489903 419.629072 
L 150.746652 419.302331 
L 152.054074 417.552015 
L 153.045196 416.409077 
L 153.618244 415.705292 
L 155.182415 414.03262 
L 155.74282 413.515824 
L 156.746585 412.511204 
L 158.310756 411.191493 
L 159.1088 410.62257 
L 159.874926 410.020005 
L 161.439097 408.988177 
L 163.003267 408.151578 
L 163.987193 407.729316 
L 164.567438 407.449129 
L 166.131608 406.871611 
L 167.695779 406.473916 
L 169.25995 406.260685 
L 170.82412 406.249723 
L 172.388291 406.4729 
L 173.952461 406.977632 
L 175.346591 407.729316 
L 175.516632 407.821858 
L 177.080802 409.020979 
L 178.551731 410.62257 
L 178.644973 410.728585 
L 180.209143 412.938227 
L 180.54735 413.515824 
L 181.773314 415.744119 
L 182.092625 416.409077 
L 183.337484 419.189068 
L 183.383667 419.302331 
L 184.514127 422.195585 
L 184.901655 423.280546 
L 185.511868 425.088839 
L 186.377334 427.982093 
L 186.465825 428.304181 
L 187.156834 430.875346 
L 187.805502 433.7686 
L 188.029996 434.947295 
L 188.363939 436.661854 
L 188.825807 439.555108 
L 189.176437 442.448362 
L 189.427322 445.341615 
L 189.588454 448.234869 
L 189.594166 448.437447 
L 189.681259 451.128123 
L 189.683822 454.021377 
L 189.594166 456.91463 
L 189.594166 456.91463 
L 189.439303 459.807884 
L 189.195496 462.701138 
L 188.846532 465.594392 
L 188.366191 468.487646 
L 188.029996 470.049024 
L 187.774262 471.380899 
L 187.068798 474.274153 
L 186.465825 476.204274 
L 186.186776 477.167407 
L 185.156759 480.060661 
L 184.901655 480.667444 
L 183.97319 482.953915 
L 183.337484 484.279418 
L 182.591245 485.847168 
L 181.773314 487.360723 
L 181.01336 488.740422 
L 180.209143 490.07446 
L 179.225673 491.633676 
L 178.644973 492.504455 
L 177.196816 494.52693 
L 177.080802 494.685316 
L 175.516632 496.743617 
L 174.950831 497.420183 
L 173.952461 498.632397 
L 172.388291 500.297214 
L 172.372247 500.313437 
L 170.82412 501.961804 
L 169.436118 503.206691 
L 169.25995 503.37806 
L 167.695779 504.790263 
L 166.131608 505.961698 
L 165.926958 506.099945 
L 164.567438 507.138339 
L 163.003267 508.133925 
L 161.439097 508.950772 
L 161.344438 508.993199 
L 159.874926 509.77083 
L 158.310756 510.42635 
L 156.746585 510.926909 
L 155.182415 511.285869 
L 153.618244 511.510417 
L 152.054074 511.602115 
L 150.489903 511.557052 
L 148.925733 511.365596 
L 147.361562 511.011685 
L 145.797392 510.471577 
L 144.233221 509.711906 
z
M 211.492554 491.966365 
L 213.056724 492.406376 
L 214.620895 492.732558 
L 216.185065 492.976221 
L 217.749236 493.156762 
L 219.313407 493.283272 
L 220.877577 493.356186 
L 222.441748 493.369055 
L 224.005918 493.310421 
L 225.570089 493.165558 
L 227.134259 492.917853 
L 228.69843 492.549646 
L 230.2626 492.042447 
L 231.230729 491.633676 
L 231.826771 491.385288 
L 233.390941 490.573754 
L 234.955112 489.575981 
L 236.052517 488.740422 
L 236.519282 488.371158 
L 238.083453 486.94809 
L 239.135175 485.847168 
L 239.647623 485.261775 
L 241.211794 483.274234 
L 241.444922 482.953915 
L 242.775964 480.85523 
L 243.249092 480.060661 
L 244.340135 477.843297 
L 244.662619 477.167407 
L 245.74126 474.274153 
L 245.904306 473.665868 
L 246.526322 471.380899 
L 247.021983 468.487646 
L 247.245075 465.594392 
L 247.201735 462.701138 
L 246.876788 459.807884 
L 246.223405 456.91463 
L 245.904306 455.985296 
L 245.108855 454.021377 
L 244.340135 452.685066 
L 243.142304 451.128123 
L 242.775964 450.755474 
L 241.211794 449.598492 
L 239.647623 448.892259 
L 238.083453 448.5164 
L 236.519282 448.387016 
L 234.955112 448.446444 
L 233.390941 448.655723 
L 231.826771 448.98923 
L 230.2626 449.430953 
L 228.69843 449.971999 
L 227.134259 450.609053 
L 226.022578 451.128123 
L 225.570089 451.334409 
L 224.005918 452.126677 
L 222.441748 453.010775 
L 220.877577 453.99948 
L 220.845318 454.021377 
L 219.313407 455.069308 
L 217.749236 456.255146 
L 216.952097 456.91463 
L 216.185065 457.574699 
L 214.620895 459.030548 
L 213.850171 459.807884 
L 213.056724 460.667093 
L 211.492554 462.484868 
L 211.314473 462.701138 
L 209.928383 464.571961 
L 209.20189 465.594392 
L 208.364213 466.96666 
L 207.445787 468.487646 
L 206.800042 469.8084 
L 206.01444 471.380899 
L 205.235872 473.476039 
L 204.92215 474.274153 
L 204.186598 477.167407 
L 203.864762 480.060661 
L 204.005469 482.953915 
L 204.750568 485.847168 
L 205.235872 486.80855 
L 206.453013 488.740422 
L 206.800042 489.108423 
L 208.364213 490.416735 
L 209.928383 491.341085 
L 210.597281 491.633676 
z
" clip-path="url(#p38371bdd1d)" style="fill: #e8f1fa"/>
    <path d="M 144.233221 509.711906 
L 145.797392 510.471577 
L 147.361562 511.011685 
L 148.925733 511.365596 
L 150.489903 511.557052 
L 152.054074 511.602115 
L 153.618244 511.510417 
L 155.182415 511.285869 
L 156.746585 510.926909 
L 158.310756 510.42635 
L 159.874926 509.77083 
L 161.344438 508.993199 
L 161.439097 508.950772 
L 163.003267 508.133925 
L 164.567438 507.138339 
L 165.926958 506.099945 
L 166.131608 505.961698 
L 167.695779 504.790263 
L 169.25995 503.37806 
L 169.436118 503.206691 
L 170.82412 501.961804 
L 172.372247 500.313437 
L 172.388291 500.297214 
L 173.952461 498.632397 
L 174.950831 497.420183 
L 175.516632 496.743617 
L 177.080802 494.685316 
L 177.196816 494.52693 
L 178.644973 492.504455 
L 179.225673 491.633676 
L 180.209143 490.07446 
L 181.01336 488.740422 
L 181.773314 487.360723 
L 182.591245 485.847168 
L 183.337484 484.279418 
L 183.97319 482.953915 
L 184.901655 480.667444 
L 185.156759 480.060661 
L 186.186776 477.167407 
L 186.465825 476.204274 
L 187.068798 474.274153 
L 187.774262 471.380899 
L 188.029996 470.049024 
L 188.366191 468.487646 
L 188.846532 465.594392 
L 189.195496 462.701138 
L 189.439303 459.807884 
L 189.594166 456.91463 
L 189.594166 456.91463 
L 189.683822 454.021377 
L 189.681259 451.128123 
L 189.594166 448.437447 
L 189.588454 448.234869 
L 189.427322 445.341615 
L 189.176437 442.448362 
L 188.825807 439.555108 
L 188.363939 436.661854 
L 188.029996 434.947295 
L 187.805502 433.7686 
L 187.156834 430.875346 
L 186.465825 428.304181 
L 186.377334 427.982093 
L 185.511868 425.088839 
L 184.901655 423.280546 
L 184.514127 422.195585 
L 183.383667 419.302331 
L 183.337484 419.189068 
L 182.092625 416.409077 
L 181.773314 415.744119 
L 180.54735 413.515824 
L 180.209143 412.938227 
L 178.644973 410.728585 
L 178.551731 410.62257 
L 177.080802 409.020979 
L 175.516632 407.821858 
L 175.346591 407.729316 
L 173.952461 406.977632 
L 172.388291 406.4729 
L 170.82412 406.249723 
L 169.25995 406.260685 
L 167.695779 406.473916 
L 166.131608 406.871611 
L 164.567438 407.449129 
L 163.987193 407.729316 
L 163.003267 408.151578 
L 161.439097 408.988177 
L 159.874926 410.020005 
L 159.1088 410.62257 
L 158.310756 411.191493 
L 156.746585 412.511204 
L 155.74282 413.515824 
L 155.182415 414.03262 
L 153.618244 415.705292 
L 153.045196 416.409077 
L 152.054074 417.552015 
L 150.746652 419.302331 
L 150.489903 419.629072 
L 148.925733 421.857873 
L 148.710109 422.195585 
L 147.361562 424.245706 
L 146.856951 425.088839 
L 145.797392 426.830347 
L 145.147587 427.982093 
L 144.233221 429.598347 
L 143.550725 430.875346 
L 142.669051 432.544137 
L 142.046798 433.7686 
L 141.10488 435.672259 
L 140.625693 436.661854 
L 139.540709 439.001876 
L 139.28548 439.555108 
L 138.024288 442.448362 
L 137.976539 442.563861 
L 136.810082 445.341615 
L 136.412368 446.3916 
L 135.691363 448.234869 
L 134.848198 450.694006 
L 134.691892 451.128123 
L 133.75566 454.021377 
L 133.284027 455.764576 
L 132.948618 456.91463 
L 132.239548 459.807884 
L 131.719857 462.523776 
L 131.682137 462.701138 
L 131.186426 465.594392 
L 130.831796 468.487646 
L 130.601494 471.380899 
L 130.484087 474.274153 
L 130.473581 477.167407 
L 130.570064 480.060661 
L 130.780786 482.953915 
L 131.121786 485.847168 
L 131.620229 488.740422 
L 131.719857 489.187232 
L 132.2356 491.633676 
L 133.068749 494.52693 
L 133.284027 495.135142 
L 134.111833 497.420183 
L 134.848198 499.048021 
L 135.467179 500.313437 
L 136.412368 501.964318 
L 137.226534 503.206691 
L 137.976539 504.24772 
L 139.540709 506.044125 
L 139.597184 506.099945 
L 141.10488 507.568349 
L 142.669051 508.731431 
L 143.105611 508.993199 
z
M 148.324074 503.206691 
L 147.361562 502.823335 
L 145.797392 501.954205 
L 144.233221 500.76515 
L 143.751443 500.313437 
L 142.669051 499.243176 
L 141.22169 497.420183 
L 141.10488 497.254628 
L 139.540709 494.638766 
L 139.48181 494.52693 
L 138.211489 491.633676 
L 137.976539 490.939102 
L 137.268135 488.740422 
L 136.597705 485.847168 
L 136.412368 484.702212 
L 136.119646 482.953915 
L 135.812731 480.060661 
L 135.66564 477.167407 
L 135.660367 474.274153 
L 135.788785 471.380899 
L 136.050867 468.487646 
L 136.412368 465.879677 
L 136.448502 465.594392 
L 136.935617 462.701138 
L 137.570423 459.807884 
L 137.976539 458.290689 
L 138.327564 456.91463 
L 139.204887 454.021377 
L 139.540709 453.053565 
L 140.195557 451.128123 
L 141.10488 448.788783 
L 141.32018 448.234869 
L 142.554565 445.341615 
L 142.669051 445.089723 
L 143.899154 442.448362 
L 144.233221 441.77174 
L 145.376715 439.555108 
L 145.797392 438.769144 
L 146.999577 436.661854 
L 147.361562 436.038266 
L 148.794655 433.7686 
L 148.925733 433.560895 
L 150.489903 431.287868 
L 150.808727 430.875346 
L 152.054074 429.221831 
L 153.134207 427.982093 
L 153.618244 427.402695 
L 155.182415 425.773802 
L 155.961627 425.088839 
L 156.746585 424.351305 
L 158.310756 423.126138 
L 159.792981 422.195585 
L 159.874926 422.139282 
L 161.439097 421.288455 
L 163.003267 420.670127 
L 164.567438 420.276028 
L 166.131608 420.109639 
L 167.695779 420.185959 
L 169.25995 420.531889 
L 170.82412 421.187253 
L 172.372671 422.195585 
L 172.388291 422.205549 
L 173.952461 423.526734 
L 175.323955 425.088839 
L 175.516632 425.309692 
L 177.080802 427.502558 
L 177.368431 427.982093 
L 178.644973 430.212611 
L 178.973608 430.875346 
L 180.209143 433.593793 
L 180.280461 433.7686 
L 181.357624 436.661854 
L 181.773314 437.989439 
L 182.234196 439.555108 
L 182.930891 442.448362 
L 183.337484 444.660584 
L 183.461919 445.341615 
L 183.863654 448.234869 
L 184.121456 451.128123 
L 184.247981 454.021377 
L 184.25085 456.91463 
L 184.132024 459.807884 
L 183.887024 462.701138 
L 183.503765 465.594392 
L 183.337484 466.510761 
L 183.008888 468.487646 
L 182.373907 471.380899 
L 181.773314 473.510261 
L 181.568547 474.274153 
L 180.622191 477.167407 
L 180.209143 478.220468 
L 179.496517 480.060661 
L 178.644973 481.925808 
L 178.169787 482.953915 
L 177.080802 485.026587 
L 176.633187 485.847168 
L 175.516632 487.711272 
L 174.860085 488.740422 
L 173.952461 490.079856 
L 172.801605 491.633676 
L 172.388291 492.176195 
L 170.82412 494.062742 
L 170.399786 494.52693 
L 169.25995 495.785344 
L 167.695779 497.276169 
L 167.529068 497.420183 
L 166.131608 498.684211 
L 164.567438 499.872965 
L 163.894155 500.313437 
L 163.003267 500.946567 
L 161.439097 501.878971 
L 159.874926 502.625877 
L 158.310756 503.206691 
L 158.310756 503.206691 
L 156.746585 503.701336 
L 155.182415 504.018349 
L 153.618244 504.160625 
L 152.054074 504.123878 
L 150.489903 503.896336 
L 148.925733 503.457848 
z
" clip-path="url(#p38371bdd1d)" style="fill: #d6e6f4"/>
    <path d="M 148.925733 503.457848 
L 150.489903 503.896336 
L 152.054074 504.123878 
L 153.618244 504.160625 
L 155.182415 504.018349 
L 156.746585 503.701336 
L 158.310756 503.206691 
L 158.310756 503.206691 
L 159.874926 502.625877 
L 161.439097 501.878971 
L 163.003267 500.946567 
L 163.894155 500.313437 
L 164.567438 499.872965 
L 166.131608 498.684211 
L 167.529068 497.420183 
L 167.695779 497.276169 
L 169.25995 495.785344 
L 170.399786 494.52693 
L 170.82412 494.062742 
L 172.388291 492.176195 
L 172.801605 491.633676 
L 173.952461 490.079856 
L 174.860085 488.740422 
L 175.516632 487.711272 
L 176.633187 485.847168 
L 177.080802 485.026587 
L 178.169787 482.953915 
L 178.644973 481.925808 
L 179.496517 480.060661 
L 180.209143 478.220468 
L 180.622191 477.167407 
L 181.568547 474.274153 
L 181.773314 473.510261 
L 182.373907 471.380899 
L 183.008888 468.487646 
L 183.337484 466.510761 
L 183.503765 465.594392 
L 183.887024 462.701138 
L 184.132024 459.807884 
L 184.25085 456.91463 
L 184.247981 454.021377 
L 184.121456 451.128123 
L 183.863654 448.234869 
L 183.461919 445.341615 
L 183.337484 444.660584 
L 182.930891 442.448362 
L 182.234196 439.555108 
L 181.773314 437.989439 
L 181.357624 436.661854 
L 180.280461 433.7686 
L 180.209143 433.593793 
L 178.973608 430.875346 
L 178.644973 430.212611 
L 177.368431 427.982093 
L 177.080802 427.502558 
L 175.516632 425.309692 
L 175.323955 425.088839 
L 173.952461 423.526734 
L 172.388291 422.205549 
L 172.372671 422.195585 
L 170.82412 421.187253 
L 169.25995 420.531889 
L 167.695779 420.185959 
L 166.131608 420.109639 
L 164.567438 420.276028 
L 163.003267 420.670127 
L 161.439097 421.288455 
L 159.874926 422.139282 
L 159.792981 422.195585 
L 158.310756 423.126138 
L 156.746585 424.351305 
L 155.961627 425.088839 
L 155.182415 425.773802 
L 153.618244 427.402695 
L 153.134207 427.982093 
L 152.054074 429.221831 
L 150.808727 430.875346 
L 150.489903 431.287868 
L 148.925733 433.560895 
L 148.794655 433.7686 
L 147.361562 436.038266 
L 146.999577 436.661854 
L 145.797392 438.769144 
L 145.376715 439.555108 
L 144.233221 441.77174 
L 143.899154 442.448362 
L 142.669051 445.089723 
L 142.554565 445.341615 
L 141.32018 448.234869 
L 141.10488 448.788783 
L 140.195557 451.128123 
L 139.540709 453.053565 
L 139.204887 454.021377 
L 138.327564 456.91463 
L 137.976539 458.290689 
L 137.570423 459.807884 
L 136.935617 462.701138 
L 136.448502 465.594392 
L 136.412368 465.879677 
L 136.050867 468.487646 
L 135.788785 471.380899 
L 135.660367 474.274153 
L 135.66564 477.167407 
L 135.812731 480.060661 
L 136.119646 482.953915 
L 136.412368 484.702212 
L 136.597705 485.847168 
L 137.268135 488.740422 
L 137.976539 490.939102 
L 138.211489 491.633676 
L 139.48181 494.52693 
L 139.540709 494.638766 
L 141.10488 497.254628 
L 141.22169 497.420183 
L 142.669051 499.243176 
L 143.751443 500.313437 
L 144.233221 500.76515 
L 145.797392 501.954205 
L 147.361562 502.823335 
L 148.324074 503.206691 
z
M 148.874564 497.420183 
L 147.361562 496.49455 
L 145.797392 495.15917 
L 145.21112 494.52693 
L 144.233221 493.33546 
L 143.111772 491.633676 
L 142.669051 490.814591 
L 141.700593 488.740422 
L 141.10488 487.040474 
L 140.71936 485.847168 
L 140.047923 482.953915 
L 139.628128 480.060661 
L 139.540709 478.923925 
L 139.401305 477.167407 
L 139.35102 474.274153 
L 139.466396 471.380899 
L 139.540709 470.588033 
L 139.72389 468.487646 
L 140.119999 465.594392 
L 140.667678 462.701138 
L 141.10488 460.887661 
L 141.358174 459.807884 
L 142.178303 456.91463 
L 142.669051 455.445104 
L 143.146081 454.021377 
L 144.233221 451.20933 
L 144.265441 451.128123 
L 145.521792 448.234869 
L 145.797392 447.651092 
L 146.947294 445.341615 
L 147.361562 444.557141 
L 148.562694 442.448362 
L 148.925733 441.832687 
L 150.407963 439.555108 
L 150.489903 439.430784 
L 152.054074 437.284161 
L 152.576885 436.661854 
L 153.618244 435.401537 
L 155.182415 433.806999 
L 155.226925 433.7686 
L 156.746585 432.396455 
L 158.310756 431.271327 
L 159.021526 430.875346 
L 159.874926 430.363235 
L 161.439097 429.68648 
L 163.003267 429.268218 
L 164.567438 429.108012 
L 166.131608 429.215579 
L 167.695779 429.611326 
L 169.25995 430.327769 
L 170.076062 430.875346 
L 170.82412 431.370449 
L 172.388291 432.774413 
L 173.244366 433.7686 
L 173.952461 434.619999 
L 175.31193 436.661854 
L 175.516632 436.995462 
L 176.838239 439.555108 
L 177.080802 440.097099 
L 178.00646 442.448362 
L 178.644973 444.47488 
L 178.895922 445.341615 
L 179.556794 448.234869 
L 180.010639 451.128123 
L 180.209143 453.205593 
L 180.287177 454.021377 
L 180.404147 456.91463 
L 180.359774 459.807884 
L 180.209143 461.940192 
L 180.159807 462.701138 
L 179.820924 465.594392 
L 179.319987 468.487646 
L 178.644973 471.336766 
L 178.634921 471.380899 
L 177.808386 474.274153 
L 177.080802 476.303156 
L 176.771678 477.167407 
L 175.526867 480.060661 
L 175.516632 480.081602 
L 174.06178 482.953915 
L 173.952461 483.146204 
L 172.388291 485.744819 
L 172.322375 485.847168 
L 170.82412 488.004543 
L 170.257975 488.740422 
L 169.25995 489.984034 
L 167.751113 491.633676 
L 167.695779 491.693569 
L 166.131608 493.23562 
L 164.567438 494.52693 
L 164.567438 494.52693 
L 163.003267 495.695131 
L 161.439097 496.644362 
L 159.874926 497.398108 
L 159.815401 497.420183 
L 158.310756 498.023424 
L 156.746585 498.452545 
L 155.182415 498.686726 
L 153.618244 498.721428 
L 152.054074 498.543711 
L 150.489903 498.131233 
L 148.925733 497.450466 
z
" clip-path="url(#p38371bdd1d)" style="fill: #bad6eb"/>
    <path d="M 148.925733 497.450466 
L 150.489903 498.131233 
L 152.054074 498.543711 
L 153.618244 498.721428 
L 155.182415 498.686726 
L 156.746585 498.452545 
L 158.310756 498.023424 
L 159.815401 497.420183 
L 159.874926 497.398108 
L 161.439097 496.644362 
L 163.003267 495.695131 
L 164.567438 494.52693 
L 164.567438 494.52693 
L 166.131608 493.23562 
L 167.695779 491.693569 
L 167.751113 491.633676 
L 169.25995 489.984034 
L 170.257975 488.740422 
L 170.82412 488.004543 
L 172.322375 485.847168 
L 172.388291 485.744819 
L 173.952461 483.146204 
L 174.06178 482.953915 
L 175.516632 480.081602 
L 175.526867 480.060661 
L 176.771678 477.167407 
L 177.080802 476.303156 
L 177.808386 474.274153 
L 178.634921 471.380899 
L 178.644973 471.336766 
L 179.319987 468.487646 
L 179.820924 465.594392 
L 180.159807 462.701138 
L 180.209143 461.940192 
L 180.359774 459.807884 
L 180.404147 456.91463 
L 180.287177 454.021377 
L 180.209143 453.205593 
L 180.010639 451.128123 
L 179.556794 448.234869 
L 178.895922 445.341615 
L 178.644973 444.47488 
L 178.00646 442.448362 
L 177.080802 440.097099 
L 176.838239 439.555108 
L 175.516632 436.995462 
L 175.31193 436.661854 
L 173.952461 434.619999 
L 173.244366 433.7686 
L 172.388291 432.774413 
L 170.82412 431.370449 
L 170.076062 430.875346 
L 169.25995 430.327769 
L 167.695779 429.611326 
L 166.131608 429.215579 
L 164.567438 429.108012 
L 163.003267 429.268218 
L 161.439097 429.68648 
L 159.874926 430.363235 
L 159.021526 430.875346 
L 158.310756 431.271327 
L 156.746585 432.396455 
L 155.226925 433.7686 
L 155.182415 433.806999 
L 153.618244 435.401537 
L 152.576885 436.661854 
L 152.054074 437.284161 
L 150.489903 439.430784 
L 150.407963 439.555108 
L 148.925733 441.832687 
L 148.562694 442.448362 
L 147.361562 444.557141 
L 146.947294 445.341615 
L 145.797392 447.651092 
L 145.521792 448.234869 
L 144.265441 451.128123 
L 144.233221 451.20933 
L 143.146081 454.021377 
L 142.669051 455.445104 
L 142.178303 456.91463 
L 141.358174 459.807884 
L 141.10488 460.887661 
L 140.667678 462.701138 
L 140.119999 465.594392 
L 139.72389 468.487646 
L 139.540709 470.588033 
L 139.466396 471.380899 
L 139.35102 474.274153 
L 139.401305 477.167407 
L 139.540709 478.923925 
L 139.628128 480.060661 
L 140.047923 482.953915 
L 140.71936 485.847168 
L 141.10488 487.040474 
L 141.700593 488.740422 
L 142.669051 490.814591 
L 143.111772 491.633676 
L 144.233221 493.33546 
L 145.21112 494.52693 
L 145.797392 495.15917 
L 147.361562 496.49455 
L 148.874564 497.420183 
z
M 148.619923 491.633676 
L 147.361562 490.400596 
L 146.095149 488.740422 
L 145.797392 488.258146 
L 144.576548 485.847168 
L 144.233221 484.918795 
L 143.590305 482.953915 
L 142.967589 480.060661 
L 142.669051 477.572767 
L 142.621768 477.167407 
L 142.499406 474.274153 
L 142.577479 471.380899 
L 142.669051 470.36942 
L 142.832731 468.487646 
L 143.252722 465.594392 
L 143.842797 462.701138 
L 144.233221 461.199432 
L 144.597007 459.807884 
L 145.516297 456.91463 
L 145.797392 456.149921 
L 146.609986 454.021377 
L 147.361562 452.286988 
L 147.896373 451.128123 
L 148.925733 449.09317 
L 149.400237 448.234869 
L 150.489903 446.380719 
L 151.175631 445.341615 
L 152.054074 444.054701 
L 153.321124 442.448362 
L 153.618244 442.075025 
L 155.182415 440.388201 
L 156.128196 439.555108 
L 156.746585 438.997641 
L 158.310756 437.875503 
L 159.874926 437.046459 
L 160.967923 436.661854 
L 161.439097 436.485003 
L 163.003267 436.190936 
L 164.567438 436.194045 
L 166.131608 436.509359 
L 166.508564 436.661854 
L 167.695779 437.138532 
L 169.25995 438.128686 
L 170.82412 439.555108 
L 170.82412 439.555108 
L 172.388291 441.483794 
L 173.005022 442.448362 
L 173.952461 444.148357 
L 174.50808 445.341615 
L 175.516632 448.04658 
L 175.578422 448.234869 
L 176.321755 451.128123 
L 176.806938 454.021377 
L 177.066702 456.91463 
L 177.080802 457.592987 
L 177.126363 459.807884 
L 177.080802 460.782346 
L 176.996193 462.701138 
L 176.685641 465.594392 
L 176.188012 468.487646 
L 175.516632 471.259907 
L 175.487708 471.380899 
L 174.598652 474.274153 
L 173.952461 475.957262 
L 173.476537 477.167407 
L 172.388291 479.481627 
L 172.101867 480.060661 
L 170.82412 482.31071 
L 170.429163 482.953915 
L 169.25995 484.676031 
L 168.375067 485.847168 
L 167.695779 486.689564 
L 166.131608 488.400712 
L 165.77715 488.740422 
L 164.567438 489.870055 
L 163.003267 491.092953 
L 162.163416 491.633676 
L 161.439097 492.106014 
L 159.874926 492.911241 
L 158.310756 493.496571 
L 156.746585 493.865655 
L 155.182415 494.012841 
L 153.618244 493.922757 
L 152.054074 493.569102 
L 150.489903 492.912507 
L 148.925733 491.897228 
z
" clip-path="url(#p38371bdd1d)" style="fill: #8fc2de"/>
    <path d="M 148.925733 491.897228 
L 150.489903 492.912507 
L 152.054074 493.569102 
L 153.618244 493.922757 
L 155.182415 494.012841 
L 156.746585 493.865655 
L 158.310756 493.496571 
L 159.874926 492.911241 
L 161.439097 492.106014 
L 162.163416 491.633676 
L 163.003267 491.092953 
L 164.567438 489.870055 
L 165.77715 488.740422 
L 166.131608 488.400712 
L 167.695779 486.689564 
L 168.375067 485.847168 
L 169.25995 484.676031 
L 170.429163 482.953915 
L 170.82412 482.31071 
L 172.101867 480.060661 
L 172.388291 479.481627 
L 173.476537 477.167407 
L 173.952461 475.957262 
L 174.598652 474.274153 
L 175.487708 471.380899 
L 175.516632 471.259907 
L 176.188012 468.487646 
L 176.685641 465.594392 
L 176.996193 462.701138 
L 177.080802 460.782346 
L 177.126363 459.807884 
L 177.080802 457.592987 
L 177.066702 456.91463 
L 176.806938 454.021377 
L 176.321755 451.128123 
L 175.578422 448.234869 
L 175.516632 448.04658 
L 174.50808 445.341615 
L 173.952461 444.148357 
L 173.005022 442.448362 
L 172.388291 441.483794 
L 170.82412 439.555108 
L 170.82412 439.555108 
L 169.25995 438.128686 
L 167.695779 437.138532 
L 166.508564 436.661854 
L 166.131608 436.509359 
L 164.567438 436.194045 
L 163.003267 436.190936 
L 161.439097 436.485003 
L 160.967923 436.661854 
L 159.874926 437.046459 
L 158.310756 437.875503 
L 156.746585 438.997641 
L 156.128196 439.555108 
L 155.182415 440.388201 
L 153.618244 442.075025 
L 153.321124 442.448362 
L 152.054074 444.054701 
L 151.175631 445.341615 
L 150.489903 446.380719 
L 149.400237 448.234869 
L 148.925733 449.09317 
L 147.896373 451.128123 
L 147.361562 452.286988 
L 146.609986 454.021377 
L 145.797392 456.149921 
L 145.516297 456.91463 
L 144.597007 459.807884 
L 144.233221 461.199432 
L 143.842797 462.701138 
L 143.252722 465.594392 
L 142.832731 468.487646 
L 142.669051 470.36942 
L 142.577479 471.380899 
L 142.499406 474.274153 
L 142.621768 477.167407 
L 142.669051 477.572767 
L 142.967589 480.060661 
L 143.590305 482.953915 
L 144.233221 484.918795 
L 144.576548 485.847168 
L 145.797392 488.258146 
L 146.095149 488.740422 
L 147.361562 490.400596 
L 148.619923 491.633676 
z
M 152.532323 488.740422 
L 152.054074 488.53188 
L 150.489903 487.433439 
L 148.981073 485.847168 
L 148.925733 485.773952 
L 147.361562 483.054161 
L 147.314875 482.953915 
L 146.34488 480.060661 
L 145.797392 477.248232 
L 145.783163 477.167407 
L 145.544137 474.274153 
L 145.558928 471.380899 
L 145.797392 468.493432 
L 145.797868 468.487646 
L 146.244058 465.594392 
L 146.888487 462.701138 
L 147.361562 461.05853 
L 147.737747 459.807884 
L 148.797284 456.91463 
L 148.925733 456.609385 
L 150.103972 454.021377 
L 150.489903 453.263819 
L 151.702136 451.128123 
L 152.054074 450.55389 
L 153.618244 448.330135 
L 153.697003 448.234869 
L 155.182415 446.505166 
L 156.421205 445.341615 
L 156.746585 445.038842 
L 158.310756 443.899187 
L 159.874926 443.08721 
L 161.439097 442.593006 
L 162.741058 442.448362 
L 163.003267 442.417986 
L 163.300292 442.448362 
L 164.567438 442.579409 
L 166.131608 443.106377 
L 167.695779 444.050463 
L 169.110279 445.341615 
L 169.25995 445.494268 
L 170.82412 447.639989 
L 171.162857 448.234869 
L 172.388291 450.938104 
L 172.459929 451.128123 
L 173.27906 454.021377 
L 173.773535 456.91463 
L 173.952461 459.31012 
L 173.986905 459.807884 
L 173.952461 462.701138 
L 173.952461 462.701138 
L 173.687391 465.594392 
L 173.198334 468.487646 
L 172.477738 471.380899 
L 172.388291 471.654191 
L 171.50597 474.274153 
L 170.82412 475.889654 
L 170.253553 477.167407 
L 169.25995 479.033679 
L 168.664275 480.060661 
L 167.695779 481.523528 
L 166.631399 482.953915 
L 166.131608 483.566078 
L 164.567438 485.235355 
L 163.8889 485.847168 
L 163.003267 486.605423 
L 161.439097 487.692337 
L 159.874926 488.524573 
L 159.289082 488.740422 
L 158.310756 489.098473 
L 156.746585 489.406459 
L 155.182415 489.436847 
L 153.618244 489.163033 
z
" clip-path="url(#p38371bdd1d)" style="fill: #5da5d1"/>
    <path d="M 153.618244 489.163033 
L 155.182415 489.436847 
L 156.746585 489.406459 
L 158.310756 489.098473 
L 159.289082 488.740422 
L 159.874926 488.524573 
L 161.439097 487.692337 
L 163.003267 486.605423 
L 163.8889 485.847168 
L 164.567438 485.235355 
L 166.131608 483.566078 
L 166.631399 482.953915 
L 167.695779 481.523528 
L 168.664275 480.060661 
L 169.25995 479.033679 
L 170.253553 477.167407 
L 170.82412 475.889654 
L 171.50597 474.274153 
L 172.388291 471.654191 
L 172.477738 471.380899 
L 173.198334 468.487646 
L 173.687391 465.594392 
L 173.952461 462.701138 
L 173.952461 462.701138 
L 173.986905 459.807884 
L 173.952461 459.31012 
L 173.773535 456.91463 
L 173.27906 454.021377 
L 172.459929 451.128123 
L 172.388291 450.938104 
L 171.162857 448.234869 
L 170.82412 447.639989 
L 169.25995 445.494268 
L 169.110279 445.341615 
L 167.695779 444.050463 
L 166.131608 443.106377 
L 164.567438 442.579409 
L 163.300292 442.448362 
L 163.003267 442.417986 
L 162.741058 442.448362 
L 161.439097 442.593006 
L 159.874926 443.08721 
L 158.310756 443.899187 
L 156.746585 445.038842 
L 156.421205 445.341615 
L 155.182415 446.505166 
L 153.697003 448.234869 
L 153.618244 448.330135 
L 152.054074 450.55389 
L 151.702136 451.128123 
L 150.489903 453.263819 
L 150.103972 454.021377 
L 148.925733 456.609385 
L 148.797284 456.91463 
L 147.737747 459.807884 
L 147.361562 461.05853 
L 146.888487 462.701138 
L 146.244058 465.594392 
L 145.797868 468.487646 
L 145.797392 468.493432 
L 145.558928 471.380899 
L 145.544137 474.274153 
L 145.783163 477.167407 
L 145.797392 477.248232 
L 146.34488 480.060661 
L 147.314875 482.953915 
L 147.361562 483.054161 
L 148.925733 485.773952 
L 148.981073 485.847168 
L 150.489903 487.433439 
L 152.054074 488.53188 
L 152.532323 488.740422 
z
M 152.053385 482.953915 
L 150.489903 480.79578 
L 150.100689 480.060661 
L 149.105937 477.167407 
L 148.925733 476.150426 
L 148.64303 474.274153 
L 148.547173 471.380899 
L 148.74427 468.487646 
L 148.925733 467.34113 
L 149.216238 465.594392 
L 149.946871 462.701138 
L 150.489903 461.068097 
L 150.948788 459.807884 
L 152.054074 457.319834 
L 152.258387 456.91463 
L 153.618244 454.573684 
L 153.997434 454.021377 
L 155.182415 452.453321 
L 156.424106 451.128123 
L 156.746585 450.803234 
L 158.310756 449.598975 
L 159.874926 448.775376 
L 161.439097 448.333666 
L 163.003267 448.292886 
L 164.567438 448.693536 
L 166.131608 449.603626 
L 167.695779 451.128123 
L 167.695779 451.128123 
L 169.25995 453.784201 
L 169.366386 454.021377 
L 170.284911 456.91463 
L 170.773674 459.807884 
L 170.82412 460.92626 
L 170.89424 462.701138 
L 170.82412 463.806267 
L 170.708161 465.594392 
L 170.228158 468.487646 
L 169.468219 471.380899 
L 169.25995 471.960121 
L 168.369795 474.274153 
L 167.695779 475.660482 
L 166.886105 477.167407 
L 166.131608 478.34361 
L 164.870241 480.060661 
L 164.567438 480.422875 
L 163.003267 482.000173 
L 161.823929 482.953915 
L 161.439097 483.239902 
L 159.874926 484.099024 
L 158.310756 484.644228 
L 156.746585 484.853709 
L 155.182415 484.687575 
L 153.618244 484.084218 
L 152.054074 482.954629 
z
" clip-path="url(#p38371bdd1d)" style="fill: #3686c0"/>
    <path d="M 152.054074 482.954629 
L 153.618244 484.084218 
L 155.182415 484.687575 
L 156.746585 484.853709 
L 158.310756 484.644228 
L 159.874926 484.099024 
L 161.439097 483.239902 
L 161.823929 482.953915 
L 163.003267 482.000173 
L 164.567438 480.422875 
L 164.870241 480.060661 
L 166.131608 478.34361 
L 166.886105 477.167407 
L 167.695779 475.660482 
L 168.369795 474.274153 
L 169.25995 471.960121 
L 169.468219 471.380899 
L 170.228158 468.487646 
L 170.708161 465.594392 
L 170.82412 463.806267 
L 170.89424 462.701138 
L 170.82412 460.92626 
L 170.773674 459.807884 
L 170.284911 456.91463 
L 169.366386 454.021377 
L 169.25995 453.784201 
L 167.695779 451.128123 
L 167.695779 451.128123 
L 166.131608 449.603626 
L 164.567438 448.693536 
L 163.003267 448.292886 
L 161.439097 448.333666 
L 159.874926 448.775376 
L 158.310756 449.598975 
L 156.746585 450.803234 
L 156.424106 451.128123 
L 155.182415 452.453321 
L 153.997434 454.021377 
L 153.618244 454.573684 
L 152.258387 456.91463 
L 152.054074 457.319834 
L 150.948788 459.807884 
L 150.489903 461.068097 
L 149.946871 462.701138 
L 149.216238 465.594392 
L 148.925733 467.34113 
L 148.74427 468.487646 
L 148.547173 471.380899 
L 148.64303 474.274153 
L 148.925733 476.150426 
L 149.105937 477.167407 
L 150.100689 480.060661 
L 150.489903 480.79578 
L 152.053385 482.953915 
z
M 153.497129 477.167407 
L 152.351492 474.274153 
L 152.054074 472.252819 
L 151.95538 471.380899 
L 152.054074 468.487646 
L 152.054074 468.487646 
L 152.584775 465.594392 
L 153.462893 462.701138 
L 153.618244 462.325081 
L 154.83948 459.807884 
L 155.182415 459.231133 
L 156.746585 457.112922 
L 156.944437 456.91463 
L 158.310756 455.723445 
L 159.874926 454.854844 
L 161.439097 454.514247 
L 163.003267 454.774257 
L 164.567438 455.758403 
L 165.553083 456.91463 
L 166.131608 457.935161 
L 166.843552 459.807884 
L 167.344957 462.701138 
L 167.328622 465.594392 
L 166.88013 468.487646 
L 166.131608 471.084538 
L 166.034856 471.380899 
L 164.65886 474.274153 
L 164.567438 474.42332 
L 163.003267 476.556842 
L 162.436053 477.167407 
L 161.439097 478.056025 
L 159.874926 479.030628 
L 158.310756 479.551064 
L 156.746585 479.537449 
L 155.182415 478.865401 
L 153.618244 477.349818 
z
" clip-path="url(#p38371bdd1d)" style="fill: #1764ab"/>
    <path d="M 153.618244 477.349818 
L 155.182415 478.865401 
L 156.746585 479.537449 
L 158.310756 479.551064 
L 159.874926 479.030628 
L 161.439097 478.056025 
L 162.436053 477.167407 
L 163.003267 476.556842 
L 164.567438 474.42332 
L 164.65886 474.274153 
L 166.034856 471.380899 
L 166.131608 471.084538 
L 166.88013 468.487646 
L 167.328622 465.594392 
L 167.344957 462.701138 
L 166.843552 459.807884 
L 166.131608 457.935161 
L 165.553083 456.91463 
L 164.567438 455.758403 
L 163.003267 454.774257 
L 161.439097 454.514247 
L 159.874926 454.854844 
L 158.310756 455.723445 
L 156.944437 456.91463 
L 156.746585 457.112922 
L 155.182415 459.231133 
L 154.83948 459.807884 
L 153.618244 462.325081 
L 153.462893 462.701138 
L 152.584775 465.594392 
L 152.054074 468.487646 
L 152.054074 468.487646 
L 151.95538 471.380899 
L 152.054074 472.252819 
L 152.351492 474.274153 
L 153.497129 477.167407 
z
" clip-path="url(#p38371bdd1d)" style="fill: #084285"/>
   </g>
   <g id="matplotlib.axis_1">
    <g id="xtick_1">
     <g id="line2d_1">
      <defs>
       <path id="m16cf234164" d="M 0 0 
L 0 3.5 
" style="stroke: #000000; stroke-width: 0.8"/>
      </defs>
      <g>
       <use xlink:href="#m16cf234164" x="134.705899" y="499.48" style="stroke: #000000; stroke-width: 0.8"/>
      </g>
     </g>
     <g id="text_1">
      <!-- 2.5 -->
      <g transform="translate(117.212462 523.196563) scale(0.22 -0.22)">
       <defs>
        <path id="DejaVuSans-32" d="M 1228 531 
L 3431 531 
L 3431 0 
L 469 0 
L 469 531 
Q 828 903 1448 1529 
Q 2069 2156 2228 2338 
Q 2531 2678 2651 2914 
Q 2772 3150 2772 3378 
Q 2772 3750 2511 3984 
Q 2250 4219 1831 4219 
Q 1534 4219 1204 4116 
Q 875 4013 500 3803 
L 500 4441 
Q 881 4594 1212 4672 
Q 1544 4750 1819 4750 
Q 2544 4750 2975 4387 
Q 3406 4025 3406 3419 
Q 3406 3131 3298 2873 
Q 3191 2616 2906 2266 
Q 2828 2175 2409 1742 
Q 1991 1309 1228 531 
z
" transform="scale(0.015625)"/>
        <path id="DejaVuSans-2e" d="M 684 794 
L 1344 794 
L 1344 0 
L 684 0 
L 684 794 
z
" transform="scale(0.015625)"/>
        <path id="DejaVuSans-35" d="M 691 4666 
L 3169 4666 
L 3169 4134 
L 1269 4134 
L 1269 2991 
Q 1406 3038 1543 3061 
Q 1681 3084 1819 3084 
Q 2600 3084 3056 2656 
Q 3513 2228 3513 1497 
Q 3513 744 3044 326 
Q 2575 -91 1722 -91 
Q 1428 -91 1123 -41 
Q 819 9 494 109 
L 494 744 
Q 775 591 1075 516 
Q 1375 441 1709 441 
Q 2250 441 2565 725 
Q 2881 1009 2881 1497 
Q 2881 1984 2565 2268 
Q 2250 2553 1709 2553 
Q 1456 2553 1204 2497 
Q 953 2441 691 2322 
L 691 4666 
z
" transform="scale(0.015625)"/>
       </defs>
       <use xlink:href="#DejaVuSans-32"/>
       <use xlink:href="#DejaVuSans-2e" x="63.623047"/>
       <use xlink:href="#DejaVuSans-35" x="95.410156"/>
      </g>
     </g>
    </g>
    <g id="xtick_2">
     <g id="line2d_2">
      <g>
       <use xlink:href="#m16cf234164" x="209.566817" y="499.48" style="stroke: #000000; stroke-width: 0.8"/>
      </g>
     </g>
     <g id="text_2">
      <!-- 5.0 -->
      <g transform="translate(192.073379 523.196563) scale(0.22 -0.22)">
       <defs>
        <path id="DejaVuSans-30" d="M 2034 4250 
Q 1547 4250 1301 3770 
Q 1056 3291 1056 2328 
Q 1056 1369 1301 889 
Q 1547 409 2034 409 
Q 2525 409 2770 889 
Q 3016 1369 3016 2328 
Q 3016 3291 2770 3770 
Q 2525 4250 2034 4250 
z
M 2034 4750 
Q 2819 4750 3233 4129 
Q 3647 3509 3647 2328 
Q 3647 1150 3233 529 
Q 2819 -91 2034 -91 
Q 1250 -91 836 529 
Q 422 1150 422 2328 
Q 422 3509 836 4129 
Q 1250 4750 2034 4750 
z
" transform="scale(0.015625)"/>
       </defs>
       <use xlink:href="#DejaVuSans-35"/>
       <use xlink:href="#DejaVuSans-2e" x="63.623047"/>
       <use xlink:href="#DejaVuSans-30" x="95.410156"/>
      </g>
     </g>
    </g>
    <g id="xtick_3">
     <g id="line2d_3">
      <g>
       <use xlink:href="#m16cf234164" x="284.427734" y="499.48" style="stroke: #000000; stroke-width: 0.8"/>
      </g>
     </g>
     <g id="text_3">
      <!-- 7.5 -->
      <g transform="translate(266.934297 523.196563) scale(0.22 -0.22)">
       <defs>
        <path id="DejaVuSans-37" d="M 525 4666 
L 3525 4666 
L 3525 4397 
L 1831 0 
L 1172 0 
L 2766 4134 
L 525 4134 
L 525 4666 
z
" transform="scale(0.015625)"/>
       </defs>
       <use xlink:href="#DejaVuSans-37"/>
       <use xlink:href="#DejaVuSans-2e" x="63.623047"/>
       <use xlink:href="#DejaVuSans-35" x="95.410156"/>
      </g>
     </g>
    </g>
    <g id="xtick_4">
     <g id="line2d_4">
      <g>
       <use xlink:href="#m16cf234164" x="359.288652" y="499.48" style="stroke: #000000; stroke-width: 0.8"/>
      </g>
     </g>
     <g id="text_4">
      <!-- 10.0 -->
      <g transform="translate(334.796465 523.196563) scale(0.22 -0.22)">
       <defs>
        <path id="DejaVuSans-31" d="M 794 531 
L 1825 531 
L 1825 4091 
L 703 3866 
L 703 4441 
L 1819 4666 
L 2450 4666 
L 2450 531 
L 3481 531 
L 3481 0 
L 794 0 
L 794 531 
z
" transform="scale(0.015625)"/>
       </defs>
       <use xlink:href="#DejaVuSans-31"/>
       <use xlink:href="#DejaVuSans-30" x="63.623047"/>
       <use xlink:href="#DejaVuSans-2e" x="127.246094"/>
       <use xlink:href="#DejaVuSans-30" x="159.033203"/>
      </g>
     </g>
    </g>
    <g id="xtick_5">
     <g id="line2d_5">
      <g>
       <use xlink:href="#m16cf234164" x="434.14957" y="499.48" style="stroke: #000000; stroke-width: 0.8"/>
      </g>
     </g>
     <g id="text_5">
      <!-- 12.5 -->
      <g transform="translate(409.657382 523.196563) scale(0.22 -0.22)">
       <use xlink:href="#DejaVuSans-31"/>
       <use xlink:href="#DejaVuSans-32" x="63.623047"/>
       <use xlink:href="#DejaVuSans-2e" x="127.246094"/>
       <use xlink:href="#DejaVuSans-35" x="159.033203"/>
      </g>
     </g>
    </g>
    <g id="xtick_6">
     <g id="line2d_6">
      <g>
       <use xlink:href="#m16cf234164" x="509.010487" y="499.48" style="stroke: #000000; stroke-width: 0.8"/>
      </g>
     </g>
     <g id="text_6">
      <!-- 15.0 -->
      <g transform="translate(484.5183 523.196563) scale(0.22 -0.22)">
       <use xlink:href="#DejaVuSans-31"/>
       <use xlink:href="#DejaVuSans-35" x="63.623047"/>
       <use xlink:href="#DejaVuSans-2e" x="127.246094"/>
       <use xlink:href="#DejaVuSans-30" x="159.033203"/>
      </g>
     </g>
    </g>
    <g id="xtick_7">
     <g id="line2d_7">
      <g>
       <use xlink:href="#m16cf234164" x="583.871405" y="499.48" style="stroke: #000000; stroke-width: 0.8"/>
      </g>
     </g>
     <g id="text_7">
      <!-- 17.5 -->
      <g transform="translate(559.379217 523.196563) scale(0.22 -0.22)">
       <use xlink:href="#DejaVuSans-31"/>
       <use xlink:href="#DejaVuSans-37" x="63.623047"/>
       <use xlink:href="#DejaVuSans-2e" x="127.246094"/>
       <use xlink:href="#DejaVuSans-35" x="159.033203"/>
      </g>
     </g>
    </g>
    <g id="xtick_8">
     <g id="line2d_8">
      <g>
       <use xlink:href="#m16cf234164" x="658.732323" y="499.48" style="stroke: #000000; stroke-width: 0.8"/>
      </g>
     </g>
     <g id="text_8">
      <!-- 20.0 -->
      <g transform="translate(634.240135 523.196563) scale(0.22 -0.22)">
       <use xlink:href="#DejaVuSans-32"/>
       <use xlink:href="#DejaVuSans-30" x="63.623047"/>
       <use xlink:href="#DejaVuSans-2e" x="127.246094"/>
       <use xlink:href="#DejaVuSans-30" x="159.033203"/>
      </g>
     </g>
    </g>
    <g id="text_9">
     <!-- Force Uncertainties -->
     <g transform="translate(293.911094 548.488438) scale(0.22 -0.22)">
      <defs>
       <path id="DejaVuSans-46" d="M 628 4666 
L 3309 4666 
L 3309 4134 
L 1259 4134 
L 1259 2759 
L 3109 2759 
L 3109 2228 
L 1259 2228 
L 1259 0 
L 628 0 
L 628 4666 
z
" transform="scale(0.015625)"/>
       <path id="DejaVuSans-6f" d="M 1959 3097 
Q 1497 3097 1228 2736 
Q 959 2375 959 1747 
Q 959 1119 1226 758 
Q 1494 397 1959 397 
Q 2419 397 2687 759 
Q 2956 1122 2956 1747 
Q 2956 2369 2687 2733 
Q 2419 3097 1959 3097 
z
M 1959 3584 
Q 2709 3584 3137 3096 
Q 3566 2609 3566 1747 
Q 3566 888 3137 398 
Q 2709 -91 1959 -91 
Q 1206 -91 779 398 
Q 353 888 353 1747 
Q 353 2609 779 3096 
Q 1206 3584 1959 3584 
z
" transform="scale(0.015625)"/>
       <path id="DejaVuSans-72" d="M 2631 2963 
Q 2534 3019 2420 3045 
Q 2306 3072 2169 3072 
Q 1681 3072 1420 2755 
Q 1159 2438 1159 1844 
L 1159 0 
L 581 0 
L 581 3500 
L 1159 3500 
L 1159 2956 
Q 1341 3275 1631 3429 
Q 1922 3584 2338 3584 
Q 2397 3584 2469 3576 
Q 2541 3569 2628 3553 
L 2631 2963 
z
" transform="scale(0.015625)"/>
       <path id="DejaVuSans-63" d="M 3122 3366 
L 3122 2828 
Q 2878 2963 2633 3030 
Q 2388 3097 2138 3097 
Q 1578 3097 1268 2742 
Q 959 2388 959 1747 
Q 959 1106 1268 751 
Q 1578 397 2138 397 
Q 2388 397 2633 464 
Q 2878 531 3122 666 
L 3122 134 
Q 2881 22 2623 -34 
Q 2366 -91 2075 -91 
Q 1284 -91 818 406 
Q 353 903 353 1747 
Q 353 2603 823 3093 
Q 1294 3584 2113 3584 
Q 2378 3584 2631 3529 
Q 2884 3475 3122 3366 
z
" transform="scale(0.015625)"/>
       <path id="DejaVuSans-65" d="M 3597 1894 
L 3597 1613 
L 953 1613 
Q 991 1019 1311 708 
Q 1631 397 2203 397 
Q 2534 397 2845 478 
Q 3156 559 3463 722 
L 3463 178 
Q 3153 47 2828 -22 
Q 2503 -91 2169 -91 
Q 1331 -91 842 396 
Q 353 884 353 1716 
Q 353 2575 817 3079 
Q 1281 3584 2069 3584 
Q 2775 3584 3186 3129 
Q 3597 2675 3597 1894 
z
M 3022 2063 
Q 3016 2534 2758 2815 
Q 2500 3097 2075 3097 
Q 1594 3097 1305 2825 
Q 1016 2553 972 2059 
L 3022 2063 
z
" transform="scale(0.015625)"/>
       <path id="DejaVuSans-20" transform="scale(0.015625)"/>
       <path id="DejaVuSans-55" d="M 556 4666 
L 1191 4666 
L 1191 1831 
Q 1191 1081 1462 751 
Q 1734 422 2344 422 
Q 2950 422 3222 751 
Q 3494 1081 3494 1831 
L 3494 4666 
L 4128 4666 
L 4128 1753 
Q 4128 841 3676 375 
Q 3225 -91 2344 -91 
Q 1459 -91 1007 375 
Q 556 841 556 1753 
L 556 4666 
z
" transform="scale(0.015625)"/>
       <path id="DejaVuSans-6e" d="M 3513 2113 
L 3513 0 
L 2938 0 
L 2938 2094 
Q 2938 2591 2744 2837 
Q 2550 3084 2163 3084 
Q 1697 3084 1428 2787 
Q 1159 2491 1159 1978 
L 1159 0 
L 581 0 
L 581 3500 
L 1159 3500 
L 1159 2956 
Q 1366 3272 1645 3428 
Q 1925 3584 2291 3584 
Q 2894 3584 3203 3211 
Q 3513 2838 3513 2113 
z
" transform="scale(0.015625)"/>
       <path id="DejaVuSans-74" d="M 1172 4494 
L 1172 3500 
L 2356 3500 
L 2356 3053 
L 1172 3053 
L 1172 1153 
Q 1172 725 1289 603 
Q 1406 481 1766 481 
L 2356 481 
L 2356 0 
L 1766 0 
Q 1100 0 847 248 
Q 594 497 594 1153 
L 594 3053 
L 172 3053 
L 172 3500 
L 594 3500 
L 594 4494 
L 1172 4494 
z
" transform="scale(0.015625)"/>
       <path id="DejaVuSans-61" d="M 2194 1759 
Q 1497 1759 1228 1600 
Q 959 1441 959 1056 
Q 959 750 1161 570 
Q 1363 391 1709 391 
Q 2188 391 2477 730 
Q 2766 1069 2766 1631 
L 2766 1759 
L 2194 1759 
z
M 3341 1997 
L 3341 0 
L 2766 0 
L 2766 531 
Q 2569 213 2275 61 
Q 1981 -91 1556 -91 
Q 1019 -91 701 211 
Q 384 513 384 1019 
Q 384 1609 779 1909 
Q 1175 2209 1959 2209 
L 2766 2209 
L 2766 2266 
Q 2766 2663 2505 2880 
Q 2244 3097 1772 3097 
Q 1472 3097 1187 3025 
Q 903 2953 641 2809 
L 641 3341 
Q 956 3463 1253 3523 
Q 1550 3584 1831 3584 
Q 2591 3584 2966 3190 
Q 3341 2797 3341 1997 
z
" transform="scale(0.015625)"/>
       <path id="DejaVuSans-69" d="M 603 3500 
L 1178 3500 
L 1178 0 
L 603 0 
L 603 3500 
z
M 603 4863 
L 1178 4863 
L 1178 4134 
L 603 4134 
L 603 4863 
z
" transform="scale(0.015625)"/>
       <path id="DejaVuSans-73" d="M 2834 3397 
L 2834 2853 
Q 2591 2978 2328 3040 
Q 2066 3103 1784 3103 
Q 1356 3103 1142 2972 
Q 928 2841 928 2578 
Q 928 2378 1081 2264 
Q 1234 2150 1697 2047 
L 1894 2003 
Q 2506 1872 2764 1633 
Q 3022 1394 3022 966 
Q 3022 478 2636 193 
Q 2250 -91 1575 -91 
Q 1294 -91 989 -36 
Q 684 19 347 128 
L 347 722 
Q 666 556 975 473 
Q 1284 391 1588 391 
Q 1994 391 2212 530 
Q 2431 669 2431 922 
Q 2431 1156 2273 1281 
Q 2116 1406 1581 1522 
L 1381 1569 
Q 847 1681 609 1914 
Q 372 2147 372 2553 
Q 372 3047 722 3315 
Q 1072 3584 1716 3584 
Q 2034 3584 2315 3537 
Q 2597 3491 2834 3397 
z
" transform="scale(0.015625)"/>
      </defs>
      <use xlink:href="#DejaVuSans-46"/>
      <use xlink:href="#DejaVuSans-6f" x="53.894531"/>
      <use xlink:href="#DejaVuSans-72" x="115.076172"/>
      <use xlink:href="#DejaVuSans-63" x="153.939453"/>
      <use xlink:href="#DejaVuSans-65" x="208.919922"/>
      <use xlink:href="#DejaVuSans-20" x="270.443359"/>
      <use xlink:href="#DejaVuSans-55" x="302.230469"/>
      <use xlink:href="#DejaVuSans-6e" x="375.423828"/>
      <use xlink:href="#DejaVuSans-63" x="438.802734"/>
      <use xlink:href="#DejaVuSans-65" x="493.783203"/>
      <use xlink:href="#DejaVuSans-72" x="555.306641"/>
      <use xlink:href="#DejaVuSans-74" x="596.419922"/>
      <use xlink:href="#DejaVuSans-61" x="635.628906"/>
      <use xlink:href="#DejaVuSans-69" x="696.908203"/>
      <use xlink:href="#DejaVuSans-6e" x="724.691406"/>
      <use xlink:href="#DejaVuSans-74" x="788.070312"/>
      <use xlink:href="#DejaVuSans-69" x="827.279297"/>
      <use xlink:href="#DejaVuSans-65" x="855.0625"/>
      <use xlink:href="#DejaVuSans-73" x="916.585938"/>
     </g>
    </g>
   </g>
   <g id="matplotlib.axis_2">
    <g id="ytick_1">
     <g id="line2d_9">
      <defs>
       <path id="ma7b0e039cb" d="M 0 0 
L -3.5 0 
" style="stroke: #000000; stroke-width: 0.8"/>
      </defs>
      <g>
       <use xlink:href="#ma7b0e039cb" x="104.69" y="475.341443" style="stroke: #000000; stroke-width: 0.8"/>
      </g>
     </g>
     <g id="text_10">
      <!-- 2.5 -->
      <g transform="translate(62.703125 483.699724) scale(0.22 -0.22)">
       <use xlink:href="#DejaVuSans-32"/>
       <use xlink:href="#DejaVuSans-2e" x="63.623047"/>
       <use xlink:href="#DejaVuSans-35" x="95.410156"/>
      </g>
     </g>
    </g>
    <g id="ytick_2">
     <g id="line2d_10">
      <g>
       <use xlink:href="#ma7b0e039cb" x="104.69" y="415.138863" style="stroke: #000000; stroke-width: 0.8"/>
      </g>
     </g>
     <g id="text_11">
      <!-- 5.0 -->
      <g transform="translate(62.703125 423.497145) scale(0.22 -0.22)">
       <use xlink:href="#DejaVuSans-35"/>
       <use xlink:href="#DejaVuSans-2e" x="63.623047"/>
       <use xlink:href="#DejaVuSans-30" x="95.410156"/>
      </g>
     </g>
    </g>
    <g id="ytick_3">
     <g id="line2d_11">
      <g>
       <use xlink:href="#ma7b0e039cb" x="104.69" y="354.936284" style="stroke: #000000; stroke-width: 0.8"/>
      </g>
     </g>
     <g id="text_12">
      <!-- 7.5 -->
      <g transform="translate(62.703125 363.294566) scale(0.22 -0.22)">
       <use xlink:href="#DejaVuSans-37"/>
       <use xlink:href="#DejaVuSans-2e" x="63.623047"/>
       <use xlink:href="#DejaVuSans-35" x="95.410156"/>
      </g>
     </g>
    </g>
    <g id="ytick_4">
     <g id="line2d_12">
      <g>
       <use xlink:href="#ma7b0e039cb" x="104.69" y="294.733705" style="stroke: #000000; stroke-width: 0.8"/>
      </g>
     </g>
     <g id="text_13">
      <!-- 10.0 -->
      <g transform="translate(48.705625 303.091986) scale(0.22 -0.22)">
       <use xlink:href="#DejaVuSans-31"/>
       <use xlink:href="#DejaVuSans-30" x="63.623047"/>
       <use xlink:href="#DejaVuSans-2e" x="127.246094"/>
       <use xlink:href="#DejaVuSans-30" x="159.033203"/>
      </g>
     </g>
    </g>
    <g id="ytick_5">
     <g id="line2d_13">
      <g>
       <use xlink:href="#ma7b0e039cb" x="104.69" y="234.531126" style="stroke: #000000; stroke-width: 0.8"/>
      </g>
     </g>
     <g id="text_14">
      <!-- 12.5 -->
      <g transform="translate(48.705625 242.889407) scale(0.22 -0.22)">
       <use xlink:href="#DejaVuSans-31"/>
       <use xlink:href="#DejaVuSans-32" x="63.623047"/>
       <use xlink:href="#DejaVuSans-2e" x="127.246094"/>
       <use xlink:href="#DejaVuSans-35" x="159.033203"/>
      </g>
     </g>
    </g>
    <g id="ytick_6">
     <g id="line2d_14">
      <g>
       <use xlink:href="#ma7b0e039cb" x="104.69" y="174.328547" style="stroke: #000000; stroke-width: 0.8"/>
      </g>
     </g>
     <g id="text_15">
      <!-- 15.0 -->
      <g transform="translate(48.705625 182.686828) scale(0.22 -0.22)">
       <use xlink:href="#DejaVuSans-31"/>
       <use xlink:href="#DejaVuSans-35" x="63.623047"/>
       <use xlink:href="#DejaVuSans-2e" x="127.246094"/>
       <use xlink:href="#DejaVuSans-30" x="159.033203"/>
      </g>
     </g>
    </g>
    <g id="ytick_7">
     <g id="line2d_15">
      <g>
       <use xlink:href="#ma7b0e039cb" x="104.69" y="114.125967" style="stroke: #000000; stroke-width: 0.8"/>
      </g>
     </g>
     <g id="text_16">
      <!-- 17.5 -->
      <g transform="translate(48.705625 122.484249) scale(0.22 -0.22)">
       <use xlink:href="#DejaVuSans-31"/>
       <use xlink:href="#DejaVuSans-37" x="63.623047"/>
       <use xlink:href="#DejaVuSans-2e" x="127.246094"/>
       <use xlink:href="#DejaVuSans-35" x="159.033203"/>
      </g>
     </g>
    </g>
    <g id="ytick_8">
     <g id="line2d_16">
      <g>
       <use xlink:href="#ma7b0e039cb" x="104.69" y="53.923388" style="stroke: #000000; stroke-width: 0.8"/>
      </g>
     </g>
     <g id="text_17">
      <!-- 20.0 -->
      <g transform="translate(48.705625 62.281669) scale(0.22 -0.22)">
       <use xlink:href="#DejaVuSans-32"/>
       <use xlink:href="#DejaVuSans-30" x="63.623047"/>
       <use xlink:href="#DejaVuSans-2e" x="127.246094"/>
       <use xlink:href="#DejaVuSans-30" x="159.033203"/>
      </g>
     </g>
    </g>
    <g id="text_18">
     <!-- Force Errors [kJ/(mol*A)] -->
     <g transform="translate(40.130313 394.9125) rotate(-90) scale(0.22 -0.22)">
      <defs>
       <path id="DejaVuSans-45" d="M 628 4666 
L 3578 4666 
L 3578 4134 
L 1259 4134 
L 1259 2753 
L 3481 2753 
L 3481 2222 
L 1259 2222 
L 1259 531 
L 3634 531 
L 3634 0 
L 628 0 
L 628 4666 
z
" transform="scale(0.015625)"/>
       <path id="DejaVuSans-5b" d="M 550 4863 
L 1875 4863 
L 1875 4416 
L 1125 4416 
L 1125 -397 
L 1875 -397 
L 1875 -844 
L 550 -844 
L 550 4863 
z
" transform="scale(0.015625)"/>
       <path id="DejaVuSans-6b" d="M 581 4863 
L 1159 4863 
L 1159 1991 
L 2875 3500 
L 3609 3500 
L 1753 1863 
L 3688 0 
L 2938 0 
L 1159 1709 
L 1159 0 
L 581 0 
L 581 4863 
z
" transform="scale(0.015625)"/>
       <path id="DejaVuSans-4a" d="M 628 4666 
L 1259 4666 
L 1259 325 
Q 1259 -519 939 -900 
Q 619 -1281 -91 -1281 
L -331 -1281 
L -331 -750 
L -134 -750 
Q 284 -750 456 -515 
Q 628 -281 628 325 
L 628 4666 
z
" transform="scale(0.015625)"/>
       <path id="DejaVuSans-2f" d="M 1625 4666 
L 2156 4666 
L 531 -594 
L 0 -594 
L 1625 4666 
z
" transform="scale(0.015625)"/>
       <path id="DejaVuSans-28" d="M 1984 4856 
Q 1566 4138 1362 3434 
Q 1159 2731 1159 2009 
Q 1159 1288 1364 580 
Q 1569 -128 1984 -844 
L 1484 -844 
Q 1016 -109 783 600 
Q 550 1309 550 2009 
Q 550 2706 781 3412 
Q 1013 4119 1484 4856 
L 1984 4856 
z
" transform="scale(0.015625)"/>
       <path id="DejaVuSans-6d" d="M 3328 2828 
Q 3544 3216 3844 3400 
Q 4144 3584 4550 3584 
Q 5097 3584 5394 3201 
Q 5691 2819 5691 2113 
L 5691 0 
L 5113 0 
L 5113 2094 
Q 5113 2597 4934 2840 
Q 4756 3084 4391 3084 
Q 3944 3084 3684 2787 
Q 3425 2491 3425 1978 
L 3425 0 
L 2847 0 
L 2847 2094 
Q 2847 2600 2669 2842 
Q 2491 3084 2119 3084 
Q 1678 3084 1418 2786 
Q 1159 2488 1159 1978 
L 1159 0 
L 581 0 
L 581 3500 
L 1159 3500 
L 1159 2956 
Q 1356 3278 1631 3431 
Q 1906 3584 2284 3584 
Q 2666 3584 2933 3390 
Q 3200 3197 3328 2828 
z
" transform="scale(0.015625)"/>
       <path id="DejaVuSans-6c" d="M 603 4863 
L 1178 4863 
L 1178 0 
L 603 0 
L 603 4863 
z
" transform="scale(0.015625)"/>
       <path id="DejaVuSans-2a" d="M 3009 3897 
L 1888 3291 
L 3009 2681 
L 2828 2375 
L 1778 3009 
L 1778 1831 
L 1422 1831 
L 1422 3009 
L 372 2375 
L 191 2681 
L 1313 3291 
L 191 3897 
L 372 4206 
L 1422 3572 
L 1422 4750 
L 1778 4750 
L 1778 3572 
L 2828 4206 
L 3009 3897 
z
" transform="scale(0.015625)"/>
       <path id="DejaVuSans-41" d="M 2188 4044 
L 1331 1722 
L 3047 1722 
L 2188 4044 
z
M 1831 4666 
L 2547 4666 
L 4325 0 
L 3669 0 
L 3244 1197 
L 1141 1197 
L 716 0 
L 50 0 
L 1831 4666 
z
" transform="scale(0.015625)"/>
       <path id="DejaVuSans-29" d="M 513 4856 
L 1013 4856 
Q 1481 4119 1714 3412 
Q 1947 2706 1947 2009 
Q 1947 1309 1714 600 
Q 1481 -109 1013 -844 
L 513 -844 
Q 928 -128 1133 580 
Q 1338 1288 1338 2009 
Q 1338 2731 1133 3434 
Q 928 4138 513 4856 
z
" transform="scale(0.015625)"/>
       <path id="DejaVuSans-5d" d="M 1947 4863 
L 1947 -844 
L 622 -844 
L 622 -397 
L 1369 -397 
L 1369 4416 
L 622 4416 
L 622 4863 
L 1947 4863 
z
" transform="scale(0.015625)"/>
      </defs>
      <use xlink:href="#DejaVuSans-46"/>
      <use xlink:href="#DejaVuSans-6f" x="53.894531"/>
      <use xlink:href="#DejaVuSans-72" x="115.076172"/>
      <use xlink:href="#DejaVuSans-63" x="153.939453"/>
      <use xlink:href="#DejaVuSans-65" x="208.919922"/>
      <use xlink:href="#DejaVuSans-20" x="270.443359"/>
      <use xlink:href="#DejaVuSans-45" x="302.230469"/>
      <use xlink:href="#DejaVuSans-72" x="365.414062"/>
      <use xlink:href="#DejaVuSans-72" x="404.777344"/>
      <use xlink:href="#DejaVuSans-6f" x="443.640625"/>
      <use xlink:href="#DejaVuSans-72" x="504.822266"/>
      <use xlink:href="#DejaVuSans-73" x="545.935547"/>
      <use xlink:href="#DejaVuSans-20" x="598.035156"/>
      <use xlink:href="#DejaVuSans-5b" x="629.822266"/>
      <use xlink:href="#DejaVuSans-6b" x="668.835938"/>
      <use xlink:href="#DejaVuSans-4a" x="726.746094"/>
      <use xlink:href="#DejaVuSans-2f" x="756.238281"/>
      <use xlink:href="#DejaVuSans-28" x="789.929688"/>
      <use xlink:href="#DejaVuSans-6d" x="828.943359"/>
      <use xlink:href="#DejaVuSans-6f" x="926.355469"/>
      <use xlink:href="#DejaVuSans-6c" x="987.537109"/>
      <use xlink:href="#DejaVuSans-2a" x="1015.320312"/>
      <use xlink:href="#DejaVuSans-41" x="1065.320312"/>
      <use xlink:href="#DejaVuSans-29" x="1133.728516"/>
      <use xlink:href="#DejaVuSans-5d" x="1172.742188"/>
     </g>
    </g>
   </g>
   <g id="line2d_17">
    <path d="M 104.69 499.48 
L 696.24 23.76 
" clip-path="url(#p38371bdd1d)" style="fill: none; stroke-dasharray: 5.55,2.4; stroke-dashoffset: 0; stroke: #ff0000; stroke-width: 1.5"/>
   </g>
   <g id="patch_3">
    <path d="M 104.69 499.48 
L 104.69 23.76 
" style="fill: none; stroke: #000000; stroke-width: 0.8; stroke-linejoin: miter; stroke-linecap: square"/>
   </g>
   <g id="patch_4">
    <path d="M 696.24 499.48 
L 696.24 23.76 
" style="fill: none; stroke: #000000; stroke-width: 0.8; stroke-linejoin: miter; stroke-linecap: square"/>
   </g>
   <g id="patch_5">
    <path d="M 104.69 499.48 
L 696.24 499.48 
" style="fill: none; stroke: #000000; stroke-width: 0.8; stroke-linejoin: miter; stroke-linecap: square"/>
   </g>
   <g id="patch_6">
    <path d="M 104.69 23.76 
L 696.24 23.76 
" style="fill: none; stroke: #000000; stroke-width: 0.8; stroke-linejoin: miter; stroke-linecap: square"/>
   </g>
   <g id="text_19">
    <!-- Correlation in: 0.360 -->
    <g transform="translate(163.845 71.332) scale(0.22 -0.22)">
     <defs>
      <path id="DejaVuSans-43" d="M 4122 4306 
L 4122 3641 
Q 3803 3938 3442 4084 
Q 3081 4231 2675 4231 
Q 1875 4231 1450 3742 
Q 1025 3253 1025 2328 
Q 1025 1406 1450 917 
Q 1875 428 2675 428 
Q 3081 428 3442 575 
Q 3803 722 4122 1019 
L 4122 359 
Q 3791 134 3420 21 
Q 3050 -91 2638 -91 
Q 1578 -91 968 557 
Q 359 1206 359 2328 
Q 359 3453 968 4101 
Q 1578 4750 2638 4750 
Q 3056 4750 3426 4639 
Q 3797 4528 4122 4306 
z
" transform="scale(0.015625)"/>
      <path id="DejaVuSans-3a" d="M 750 794 
L 1409 794 
L 1409 0 
L 750 0 
L 750 794 
z
M 750 3309 
L 1409 3309 
L 1409 2516 
L 750 2516 
L 750 3309 
z
" transform="scale(0.015625)"/>
      <path id="DejaVuSans-33" d="M 2597 2516 
Q 3050 2419 3304 2112 
Q 3559 1806 3559 1356 
Q 3559 666 3084 287 
Q 2609 -91 1734 -91 
Q 1441 -91 1130 -33 
Q 819 25 488 141 
L 488 750 
Q 750 597 1062 519 
Q 1375 441 1716 441 
Q 2309 441 2620 675 
Q 2931 909 2931 1356 
Q 2931 1769 2642 2001 
Q 2353 2234 1838 2234 
L 1294 2234 
L 1294 2753 
L 1863 2753 
Q 2328 2753 2575 2939 
Q 2822 3125 2822 3475 
Q 2822 3834 2567 4026 
Q 2313 4219 1838 4219 
Q 1578 4219 1281 4162 
Q 984 4106 628 3988 
L 628 4550 
Q 988 4650 1302 4700 
Q 1616 4750 1894 4750 
Q 2613 4750 3031 4423 
Q 3450 4097 3450 3541 
Q 3450 3153 3228 2886 
Q 3006 2619 2597 2516 
z
" transform="scale(0.015625)"/>
      <path id="DejaVuSans-36" d="M 2113 2584 
Q 1688 2584 1439 2293 
Q 1191 2003 1191 1497 
Q 1191 994 1439 701 
Q 1688 409 2113 409 
Q 2538 409 2786 701 
Q 3034 994 3034 1497 
Q 3034 2003 2786 2293 
Q 2538 2584 2113 2584 
z
M 3366 4563 
L 3366 3988 
Q 3128 4100 2886 4159 
Q 2644 4219 2406 4219 
Q 1781 4219 1451 3797 
Q 1122 3375 1075 2522 
Q 1259 2794 1537 2939 
Q 1816 3084 2150 3084 
Q 2853 3084 3261 2657 
Q 3669 2231 3669 1497 
Q 3669 778 3244 343 
Q 2819 -91 2113 -91 
Q 1303 -91 875 529 
Q 447 1150 447 2328 
Q 447 3434 972 4092 
Q 1497 4750 2381 4750 
Q 2619 4750 2861 4703 
Q 3103 4656 3366 4563 
z
" transform="scale(0.015625)"/>
     </defs>
     <use xlink:href="#DejaVuSans-43"/>
     <use xlink:href="#DejaVuSans-6f" x="69.824219"/>
     <use xlink:href="#DejaVuSans-72" x="131.005859"/>
     <use xlink:href="#DejaVuSans-72" x="170.369141"/>
     <use xlink:href="#DejaVuSans-65" x="209.232422"/>
     <use xlink:href="#DejaVuSans-6c" x="270.755859"/>
     <use xlink:href="#DejaVuSans-61" x="298.539062"/>
     <use xlink:href="#DejaVuSans-74" x="359.818359"/>
     <use xlink:href="#DejaVuSans-69" x="399.027344"/>
     <use xlink:href="#DejaVuSans-6f" x="426.810547"/>
     <use xlink:href="#DejaVuSans-6e" x="487.992188"/>
     <use xlink:href="#DejaVuSans-20" x="551.371094"/>
     <use xlink:href="#DejaVuSans-69" x="583.158203"/>
     <use xlink:href="#DejaVuSans-6e" x="610.941406"/>
     <use xlink:href="#DejaVuSans-3a" x="674.320312"/>
     <use xlink:href="#DejaVuSans-20" x="708.011719"/>
     <use xlink:href="#DejaVuSans-30" x="739.798828"/>
     <use xlink:href="#DejaVuSans-2e" x="803.421875"/>
     <use xlink:href="#DejaVuSans-33" x="835.208984"/>
     <use xlink:href="#DejaVuSans-36" x="898.832031"/>
     <use xlink:href="#DejaVuSans-30" x="962.455078"/>
    </g>
   </g>
  </g>
 </g>
 <defs>
  <clipPath id="p38371bdd1d">
   <rect x="104.69" y="23.76" width="591.55" height="475.72"/>
  </clipPath>
 </defs>
</svg>
