<?xml version="1.0" encoding="utf-8" standalone="no"?>
<!DOCTYPE svg PUBLIC "-//W3C//DTD SVG 1.1//EN"
  "http://www.w3.org/Graphics/SVG/1.1/DTD/svg11.dtd">
<svg xmlns:xlink="http://www.w3.org/1999/xlink" width="720pt" height="576pt" viewBox="0 0 720 576" xmlns="http://www.w3.org/2000/svg" version="1.1">
 <metadata>
  <rdf:RDF xmlns:dc="http://purl.org/dc/elements/1.1/" xmlns:cc="http://creativecommons.org/ns#" xmlns:rdf="http://www.w3.org/1999/02/22-rdf-syntax-ns#">
   <cc:Work>
    <dc:type rdf:resource="http://purl.org/dc/dcmitype/StillImage"/>
    <dc:date>2024-12-08T20:18:49.986711</dc:date>
    <dc:format>image/svg+xml</dc:format>
    <dc:creator>
     <cc:Agent>
      <dc:title>Matplotlib v3.8.4, https://matplotlib.org/</dc:title>
     </cc:Agent>
    </dc:creator>
   </cc:Work>
  </rdf:RDF>
 </metadata>
 <defs>
  <style type="text/css">*{stroke-linejoin: round; stroke-linecap: butt}</style>
 </defs>
 <g id="figure_1">
  <g id="patch_1">
   <path d="M 0 576 
L 720 576 
L 720 0 
L 0 0 
z
" style="fill: #ffffff"/>
  </g>
  <g id="axes_1">
   <g id="patch_2">
    <path d="M 69.68 499.48 
L 696.24 499.48 
L 696.24 23.76 
L 69.68 23.76 
z
" style="fill: #ffffff"/>
   </g>
   <g id="QuadContourSet_1">
    <path d="M 164.736473 482.810242 
L 172.322234 485.256667 
L 179.907996 485.950382 
L 187.493757 485.671715 
L 195.079519 485.199251 
L 202.66528 484.974335 
L 210.251041 484.950905 
L 217.836803 484.866464 
L 225.422564 484.616245 
L 233.008326 484.233373 
L 240.594087 483.585081 
L 248.179849 482.311303 
L 248.179849 482.311303 
L 255.76561 480.698036 
L 263.351371 478.568833 
L 268.489653 476.974502 
L 270.937133 476.306028 
L 278.522894 473.96964 
L 284.085381 471.637701 
L 286.108656 470.875003 
L 293.694417 467.049573 
L 294.952899 466.3009 
L 301.280178 462.735944 
L 304.219365 460.964099 
L 308.86594 458.266182 
L 313.359141 455.627299 
L 316.451701 453.846983 
L 322.39759 450.290498 
L 324.037463 449.299772 
L 330.817857 444.953697 
L 331.623224 444.410182 
L 338.683843 439.616896 
L 339.208985 439.223758 
L 346.339523 434.280095 
L 346.794747 433.914288 
L 353.639866 428.943294 
L 354.380508 428.28516 
L 359.84691 423.606493 
L 361.96627 421.28051 
L 364.627484 418.269692 
L 368.432267 412.932891 
L 369.552031 411.021689 
L 371.623563 407.59609 
L 374.452789 402.259289 
L 376.832771 396.922488 
L 377.137792 396.193743 
L 379.371452 391.585688 
L 381.762245 386.248887 
L 383.890312 380.912086 
L 384.723554 378.691701 
L 386.170321 375.575285 
L 388.537359 370.238484 
L 390.653692 364.901683 
L 392.309315 360.238747 
L 392.601279 359.564882 
L 394.854721 354.228081 
L 396.856594 348.89128 
L 398.656716 343.554479 
L 399.895077 339.679897 
L 400.455307 338.217678 
L 402.483524 332.880877 
L 404.308894 327.544077 
L 405.913867 322.207276 
L 407.264265 316.870475 
L 407.480838 315.74362 
L 408.558464 311.533674 
L 409.315972 306.196873 
L 409.341146 300.860072 
L 408.477339 295.523271 
L 407.480838 292.570535 
L 406.779124 290.18647 
L 404.634141 284.849669 
L 402.324016 279.512868 
L 400.552045 274.176067 
L 399.895077 269.354481 
L 399.852799 268.839266 
L 399.895077 267.884104 
L 400.184232 263.502466 
L 401.304021 258.165665 
L 402.807324 252.828864 
L 404.412925 247.492063 
L 405.945942 242.155262 
L 407.289934 236.818461 
L 407.480838 235.854614 
L 408.570044 231.48166 
L 409.401996 226.144859 
L 409.806763 220.808058 
L 409.918222 215.471257 
L 409.906982 210.134456 
L 409.928792 204.797656 
L 410.076685 199.460855 
L 410.369613 194.124054 
L 410.767509 188.787253 
L 411.182439 183.450452 
L 411.462652 178.113651 
L 411.329339 172.77685 
L 410.227541 167.440049 
L 407.480838 162.690147 
L 406.757751 162.103248 
L 399.895077 158.256644 
L 398.286457 156.766447 
L 393.144733 151.429646 
L 392.309315 150.468099 
L 389.762242 146.092845 
L 386.085615 140.756045 
L 384.723554 139.105332 
L 380.713807 135.419244 
L 377.137792 132.442905 
L 373.595177 130.082443 
L 369.552031 126.458548 
L 368.139522 124.745642 
L 365.321509 119.408841 
L 363.647493 114.07204 
L 362.605034 108.735239 
L 361.96627 103.606773 
L 361.941137 103.398438 
L 361.513864 98.061637 
L 361.1829 92.724836 
L 360.786692 87.388035 
L 360.00522 82.051234 
L 358.248401 76.714434 
L 354.466586 71.377633 
L 354.380508 71.299742 
L 346.794747 68.230529 
L 339.208985 68.116614 
L 331.623224 69.667545 
L 327.130797 71.377633 
L 324.037463 72.500422 
L 316.451701 76.205558 
L 315.241999 76.714434 
L 308.86594 79.496388 
L 301.280178 80.90146 
L 293.694417 80.665893 
L 286.108656 81.443402 
L 284.393213 82.051234 
L 278.522894 83.833548 
L 270.937133 87.289772 
L 270.752046 87.388035 
L 263.351371 91.3236 
L 260.884743 92.724836 
L 255.76561 95.81609 
L 252.331177 98.061637 
L 248.179849 101.089503 
L 245.173779 103.398438 
L 240.594087 107.439608 
L 238.989614 108.735239 
L 233.213267 114.07204 
L 233.008326 114.275546 
L 226.329396 119.408841 
L 225.422564 120.20726 
L 218.366867 124.745642 
L 217.836803 125.141691 
L 211.22148 130.082443 
L 210.251041 130.969357 
L 206.667209 135.419244 
L 203.341836 140.756045 
L 202.66528 141.92137 
L 200.648887 146.092845 
L 198.148113 151.429646 
L 195.749889 156.766447 
L 195.079519 158.085108 
L 192.931346 162.103248 
L 189.985052 167.440049 
L 187.493757 171.962376 
L 186.96066 172.77685 
L 183.298754 178.113651 
L 180.047531 183.450452 
L 179.907996 183.67688 
L 176.297197 188.787253 
L 173.202988 194.124054 
L 172.322234 195.752286 
L 170.076468 199.460855 
L 167.242295 204.797656 
L 164.774375 210.134456 
L 164.736473 210.211774 
L 161.770406 215.471257 
L 159.045031 220.808058 
L 157.150712 224.6968 
L 156.286454 226.144859 
L 153.15575 231.48166 
L 150.450469 236.818461 
L 149.56495 238.692564 
L 147.512745 242.155262 
L 144.817485 247.492063 
L 142.598408 252.828864 
L 141.979189 254.443694 
L 140.186371 258.165665 
L 137.921277 263.502466 
L 135.919738 268.839266 
L 134.393427 273.203174 
L 133.961435 274.176067 
L 131.596374 279.512868 
L 129.481576 284.849669 
L 127.580039 290.18647 
L 126.807666 292.468035 
L 125.4662 295.523271 
L 123.325859 300.860072 
L 121.441003 306.196873 
L 119.774486 311.533674 
L 119.221905 313.522239 
L 117.997118 316.870475 
L 116.393596 322.207276 
L 115.160028 327.544077 
L 114.272697 332.880877 
L 113.686955 338.217678 
L 113.326823 343.554479 
L 113.092162 348.89128 
L 112.885425 354.228081 
L 112.642019 359.564882 
L 112.342761 364.901683 
L 112.004193 370.238484 
L 111.660957 375.575285 
L 111.636143 375.999083 
L 111.253595 380.912086 
L 110.944512 386.248887 
L 110.79106 391.585688 
L 110.826366 396.922488 
L 111.05775 402.259289 
L 111.459685 407.59609 
L 111.636143 409.408309 
L 111.884026 412.932891 
L 112.323403 418.269692 
L 112.858546 423.606493 
L 113.583964 428.943294 
L 114.66965 434.280095 
L 116.376745 439.616896 
L 119.084982 444.953697 
L 119.221905 445.160079 
L 122.658029 450.290498 
L 126.807666 454.607496 
L 127.851093 455.627299 
L 134.265439 460.964099 
L 134.393427 461.065789 
L 140.976869 466.3009 
L 141.979189 467.107825 
L 147.52667 471.637701 
L 149.56495 473.290229 
L 154.591625 476.974502 
L 157.150712 478.789888 
L 163.79474 482.311303 
z
M 180.227875 455.627299 
L 179.907996 455.561473 
L 172.322234 452.877528 
L 167.921787 450.290498 
L 164.736473 448.204068 
L 160.805345 444.953697 
L 157.150712 441.343406 
L 155.406707 439.616896 
L 150.944664 434.280095 
L 149.56495 432.164581 
L 147.33395 428.943294 
L 144.605645 423.606493 
L 142.718926 418.269692 
L 141.979189 415.325996 
L 141.339394 412.932891 
L 140.320714 407.59609 
L 139.647461 402.259289 
L 139.239505 396.922488 
L 139.046162 391.585688 
L 139.034146 386.248887 
L 139.179623 380.912086 
L 139.46309 375.575285 
L 139.866317 370.238484 
L 140.370983 364.901683 
L 140.958408 359.564882 
L 141.609499 354.228081 
L 141.979189 351.346326 
L 142.22408 348.89128 
L 142.75995 343.554479 
L 143.302259 338.217678 
L 143.865243 332.880877 
L 144.483072 327.544077 
L 145.204632 322.207276 
L 146.082576 316.870475 
L 147.163206 311.533674 
L 148.484741 306.196873 
L 149.56495 302.560249 
L 150.004061 300.860072 
L 151.661633 295.523271 
L 153.665153 290.18647 
L 156.02117 284.849669 
L 157.150712 282.536525 
L 158.607254 279.512868 
L 161.392191 274.176067 
L 164.365389 268.839266 
L 164.736473 268.161988 
L 167.375316 263.502466 
L 170.348774 258.165665 
L 172.322234 254.540201 
L 173.29512 252.828864 
L 176.234979 247.492063 
L 179.226864 242.155262 
L 179.907996 240.987452 
L 182.460145 236.818461 
L 185.939345 231.48166 
L 187.493757 229.238024 
L 189.824908 226.144859 
L 194.131008 220.808058 
L 195.079519 219.667946 
L 199.013087 215.471257 
L 202.66528 211.735262 
L 204.474248 210.134456 
L 210.251041 205.200117 
L 210.830603 204.797656 
L 217.836803 200.035329 
L 218.945926 199.460855 
L 225.422564 196.055611 
L 229.9471 194.124054 
L 233.008326 192.720556 
L 240.594087 189.205974 
L 241.441589 188.787253 
L 248.179849 184.925541 
L 250.916534 183.450452 
L 255.76561 180.307398 
L 259.839637 178.113651 
L 263.351371 175.846827 
L 269.819324 172.77685 
L 270.937133 172.182361 
L 278.522894 169.326999 
L 286.108656 167.474632 
L 286.340751 167.440049 
L 293.694417 166.290125 
L 301.280178 166.121184 
L 308.86594 167.258477 
L 309.350269 167.440049 
L 316.451701 169.908556 
L 320.816584 172.77685 
L 324.037463 174.769377 
L 327.814314 178.113651 
L 331.623224 181.187344 
L 334.359854 183.450452 
L 339.208985 186.988308 
L 342.222035 188.787253 
L 346.794747 191.347693 
L 351.997031 194.124054 
L 354.380508 195.524323 
L 359.222697 199.460855 
L 361.96627 202.572282 
L 363.435036 204.797656 
L 365.879255 210.134456 
L 367.314553 215.471257 
L 368.100229 220.808058 
L 368.52888 226.144859 
L 368.82894 231.48166 
L 369.154821 236.818461 
L 369.552031 241.95233 
L 369.570098 242.155262 
L 370.103269 247.492063 
L 370.5488 252.828864 
L 370.795248 258.165665 
L 370.805122 263.502466 
L 370.613577 268.839266 
L 370.299844 274.176067 
L 369.958865 279.512868 
L 369.679218 284.849669 
L 369.552031 289.220904 
L 369.528169 290.18647 
L 369.510889 295.523271 
L 369.552031 300.860072 
L 369.551067 306.196873 
L 369.382577 311.533674 
L 368.933781 316.870475 
L 368.145326 322.207276 
L 367.035372 327.544077 
L 365.690365 332.880877 
L 364.222311 338.217678 
L 362.712688 343.554479 
L 361.96627 346.138843 
L 361.297445 348.89128 
L 359.848601 354.228081 
L 358.135615 359.564882 
L 356.057153 364.901683 
L 354.380508 368.485094 
L 353.574969 370.238484 
L 350.630522 375.575285 
L 347.095885 380.912086 
L 346.794747 381.339401 
L 343.332533 386.248887 
L 339.227177 391.585688 
L 339.208985 391.609709 
L 335.501369 396.922488 
L 331.623224 402.184364 
L 331.5736 402.259289 
L 327.899958 407.59609 
L 324.037463 412.415147 
L 323.633316 412.932891 
L 318.823407 418.269692 
L 316.451701 420.482508 
L 312.895996 423.606493 
L 308.86594 426.688141 
L 305.642546 428.943294 
L 301.280178 431.770258 
L 297.0005 434.280095 
L 293.694417 436.163761 
L 286.969566 439.616896 
L 286.108656 440.05523 
L 278.522894 443.745592 
L 275.93671 444.953697 
L 270.937133 447.257476 
L 263.653946 450.290498 
L 263.351371 450.418372 
L 255.76561 453.376419 
L 248.229908 455.627299 
L 248.179849 455.643397 
L 240.594087 457.64099 
L 233.008326 459.077415 
L 225.422564 459.942008 
L 217.836803 460.148739 
L 210.251041 459.763498 
L 202.66528 459.05934 
L 195.079519 458.241021 
L 187.493757 457.213562 
z
" clip-path="url(#pcff11f5f53)" style="fill: #eef5fc"/>
    <path d="M 187.493757 457.213562 
L 195.079519 458.241021 
L 202.66528 459.05934 
L 210.251041 459.763498 
L 217.836803 460.148739 
L 225.422564 459.942008 
L 233.008326 459.077415 
L 240.594087 457.64099 
L 248.179849 455.643397 
L 248.229908 455.627299 
L 255.76561 453.376419 
L 263.351371 450.418372 
L 263.653946 450.290498 
L 270.937133 447.257476 
L 275.93671 444.953697 
L 278.522894 443.745592 
L 286.108656 440.05523 
L 286.969566 439.616896 
L 293.694417 436.163761 
L 297.0005 434.280095 
L 301.280178 431.770258 
L 305.642546 428.943294 
L 308.86594 426.688141 
L 312.895996 423.606493 
L 316.451701 420.482508 
L 318.823407 418.269692 
L 323.633316 412.932891 
L 324.037463 412.415147 
L 327.899958 407.59609 
L 331.5736 402.259289 
L 331.623224 402.184364 
L 335.501369 396.922488 
L 339.208985 391.609709 
L 339.227177 391.585688 
L 343.332533 386.248887 
L 346.794747 381.339401 
L 347.095885 380.912086 
L 350.630522 375.575285 
L 353.574969 370.238484 
L 354.380508 368.485094 
L 356.057153 364.901683 
L 358.135615 359.564882 
L 359.848601 354.228081 
L 361.297445 348.89128 
L 361.96627 346.138843 
L 362.712688 343.554479 
L 364.222311 338.217678 
L 365.690365 332.880877 
L 367.035372 327.544077 
L 368.145326 322.207276 
L 368.933781 316.870475 
L 369.382577 311.533674 
L 369.551067 306.196873 
L 369.552031 300.860072 
L 369.510889 295.523271 
L 369.528169 290.18647 
L 369.552031 289.220904 
L 369.679218 284.849669 
L 369.958865 279.512868 
L 370.299844 274.176067 
L 370.613577 268.839266 
L 370.805122 263.502466 
L 370.795248 258.165665 
L 370.5488 252.828864 
L 370.103269 247.492063 
L 369.570098 242.155262 
L 369.552031 241.95233 
L 369.154821 236.818461 
L 368.82894 231.48166 
L 368.52888 226.144859 
L 368.100229 220.808058 
L 367.314553 215.471257 
L 365.879255 210.134456 
L 363.435036 204.797656 
L 361.96627 202.572282 
L 359.222697 199.460855 
L 354.380508 195.524323 
L 351.997031 194.124054 
L 346.794747 191.347693 
L 342.222035 188.787253 
L 339.208985 186.988308 
L 334.359854 183.450452 
L 331.623224 181.187344 
L 327.814314 178.113651 
L 324.037463 174.769377 
L 320.816584 172.77685 
L 316.451701 169.908556 
L 309.350269 167.440049 
L 308.86594 167.258477 
L 301.280178 166.121184 
L 293.694417 166.290125 
L 286.340751 167.440049 
L 286.108656 167.474632 
L 278.522894 169.326999 
L 270.937133 172.182361 
L 269.819324 172.77685 
L 263.351371 175.846827 
L 259.839637 178.113651 
L 255.76561 180.307398 
L 250.916534 183.450452 
L 248.179849 184.925541 
L 241.441589 188.787253 
L 240.594087 189.205974 
L 233.008326 192.720556 
L 229.9471 194.124054 
L 225.422564 196.055611 
L 218.945926 199.460855 
L 217.836803 200.035329 
L 210.830603 204.797656 
L 210.251041 205.200117 
L 204.474248 210.134456 
L 202.66528 211.735262 
L 199.013087 215.471257 
L 195.079519 219.667946 
L 194.131008 220.808058 
L 189.824908 226.144859 
L 187.493757 229.238024 
L 185.939345 231.48166 
L 182.460145 236.818461 
L 179.907996 240.987452 
L 179.226864 242.155262 
L 176.234979 247.492063 
L 173.29512 252.828864 
L 172.322234 254.540201 
L 170.348774 258.165665 
L 167.375316 263.502466 
L 164.736473 268.161988 
L 164.365389 268.839266 
L 161.392191 274.176067 
L 158.607254 279.512868 
L 157.150712 282.536525 
L 156.02117 284.849669 
L 153.665153 290.18647 
L 151.661633 295.523271 
L 150.004061 300.860072 
L 149.56495 302.560249 
L 148.484741 306.196873 
L 147.163206 311.533674 
L 146.082576 316.870475 
L 145.204632 322.207276 
L 144.483072 327.544077 
L 143.865243 332.880877 
L 143.302259 338.217678 
L 142.75995 343.554479 
L 142.22408 348.89128 
L 141.979189 351.346326 
L 141.609499 354.228081 
L 140.958408 359.564882 
L 140.370983 364.901683 
L 139.866317 370.238484 
L 139.46309 375.575285 
L 139.179623 380.912086 
L 139.034146 386.248887 
L 139.046162 391.585688 
L 139.239505 396.922488 
L 139.647461 402.259289 
L 140.320714 407.59609 
L 141.339394 412.932891 
L 141.979189 415.325996 
L 142.718926 418.269692 
L 144.605645 423.606493 
L 147.33395 428.943294 
L 149.56495 432.164581 
L 150.944664 434.280095 
L 155.406707 439.616896 
L 157.150712 441.343406 
L 160.805345 444.953697 
L 164.736473 448.204068 
L 167.921787 450.290498 
L 172.322234 452.877528 
L 179.907996 455.561473 
L 180.227875 455.627299 
z
M 185.064111 439.616896 
L 179.907996 437.787547 
L 174.41766 434.280095 
L 172.322234 432.612641 
L 168.894882 428.943294 
L 165.203256 423.606493 
L 164.736473 422.733711 
L 162.346293 418.269692 
L 160.184906 412.932891 
L 158.532595 407.59609 
L 157.236134 402.259289 
L 157.150712 401.827323 
L 156.103632 396.922488 
L 155.277957 391.585688 
L 154.749486 386.248887 
L 154.495253 380.912086 
L 154.482824 375.575285 
L 154.672885 370.238484 
L 155.025483 364.901683 
L 155.505733 359.564882 
L 156.088147 354.228081 
L 156.75954 348.89128 
L 157.150712 346.117727 
L 157.458013 343.554479 
L 158.161558 338.217678 
L 158.946282 332.880877 
L 159.836287 327.544077 
L 160.86762 322.207276 
L 162.089846 316.870475 
L 163.565405 311.533674 
L 164.736473 307.97193 
L 165.276502 306.196873 
L 167.204189 300.860072 
L 169.637122 295.523271 
L 172.322234 290.734066 
L 172.631616 290.18647 
L 176.009288 284.849669 
L 179.907996 279.704255 
L 180.052149 279.512868 
L 184.191147 274.176067 
L 187.493757 270.227188 
L 188.564267 268.839266 
L 192.621419 263.502466 
L 195.079519 260.285455 
L 196.493919 258.165665 
L 200.022305 252.828864 
L 202.66528 249.041536 
L 203.624843 247.492063 
L 207.119586 242.155262 
L 210.251041 238.087568 
L 211.19589 236.818461 
L 215.744331 231.48166 
L 217.836803 229.402161 
L 221.422478 226.144859 
L 225.422564 222.997471 
L 228.770554 220.808058 
L 233.008326 218.22901 
L 238.63753 215.471257 
L 240.594087 214.513152 
L 248.179849 211.470123 
L 252.656226 210.134456 
L 255.76561 209.114056 
L 263.351371 207.480349 
L 270.937133 206.516875 
L 278.522894 205.92279 
L 286.108656 205.483012 
L 293.694417 205.201404 
L 301.280178 205.258473 
L 308.86594 205.985138 
L 316.451701 207.858299 
L 321.626361 210.134456 
L 324.037463 211.229891 
L 330.741847 215.471257 
L 331.623224 216.113561 
L 336.934791 220.808058 
L 339.208985 223.484377 
L 340.96955 226.144859 
L 343.473763 231.48166 
L 345.287492 236.818461 
L 346.794747 242.155262 
L 346.794747 242.155262 
L 348.052375 247.492063 
L 349.254295 252.828864 
L 350.30573 258.165665 
L 351.105429 263.502466 
L 351.610098 268.839266 
L 351.846102 274.176067 
L 351.88294 279.512868 
L 351.796582 284.849669 
L 351.640875 290.18647 
L 351.433885 295.523271 
L 351.159088 300.860072 
L 350.776879 306.196873 
L 350.240154 311.533674 
L 349.508642 316.870475 
L 348.558211 322.207276 
L 347.382603 327.544077 
L 346.794747 329.852724 
L 346.155372 332.880877 
L 344.896167 338.217678 
L 343.456025 343.554479 
L 341.759156 348.89128 
L 339.679389 354.228081 
L 339.208985 355.26385 
L 337.497656 359.564882 
L 334.853844 364.901683 
L 331.623224 370.032311 
L 331.510443 370.238484 
L 328.289543 375.575285 
L 324.437431 380.912086 
L 324.037463 381.442781 
L 320.856546 386.248887 
L 316.861333 391.585688 
L 316.451701 392.124199 
L 312.958261 396.922488 
L 308.86594 401.796159 
L 308.460843 402.259289 
L 303.461799 407.59609 
L 301.280178 409.635143 
L 297.448078 412.932891 
L 293.694417 415.825432 
L 290.345895 418.269692 
L 286.108656 421.123957 
L 282.382803 423.606493 
L 278.522894 426.020332 
L 273.757683 428.943294 
L 270.937133 430.589884 
L 264.026883 434.280095 
L 263.351371 434.631292 
L 255.76561 438.075485 
L 251.32471 439.616896 
L 248.179849 440.74493 
L 240.594087 442.743984 
L 233.008326 443.980726 
L 225.422564 444.472047 
L 217.836803 444.300656 
L 210.251041 443.687964 
L 202.66528 442.862654 
L 195.079519 441.871258 
L 187.493757 440.415967 
z
" clip-path="url(#pcff11f5f53)" style="fill: #dce9f6"/>
    <path d="M 187.493757 440.415967 
L 195.079519 441.871258 
L 202.66528 442.862654 
L 210.251041 443.687964 
L 217.836803 444.300656 
L 225.422564 444.472047 
L 233.008326 443.980726 
L 240.594087 442.743984 
L 248.179849 440.74493 
L 251.32471 439.616896 
L 255.76561 438.075485 
L 263.351371 434.631292 
L 264.026883 434.280095 
L 270.937133 430.589884 
L 273.757683 428.943294 
L 278.522894 426.020332 
L 282.382803 423.606493 
L 286.108656 421.123957 
L 290.345895 418.269692 
L 293.694417 415.825432 
L 297.448078 412.932891 
L 301.280178 409.635143 
L 303.461799 407.59609 
L 308.460843 402.259289 
L 308.86594 401.796159 
L 312.958261 396.922488 
L 316.451701 392.124199 
L 316.861333 391.585688 
L 320.856546 386.248887 
L 324.037463 381.442781 
L 324.437431 380.912086 
L 328.289543 375.575285 
L 331.510443 370.238484 
L 331.623224 370.032311 
L 334.853844 364.901683 
L 337.497656 359.564882 
L 339.208985 355.26385 
L 339.679389 354.228081 
L 341.759156 348.89128 
L 343.456025 343.554479 
L 344.896167 338.217678 
L 346.155372 332.880877 
L 346.794747 329.852724 
L 347.382603 327.544077 
L 348.558211 322.207276 
L 349.508642 316.870475 
L 350.240154 311.533674 
L 350.776879 306.196873 
L 351.159088 300.860072 
L 351.433885 295.523271 
L 351.640875 290.18647 
L 351.796582 284.849669 
L 351.88294 279.512868 
L 351.846102 274.176067 
L 351.610098 268.839266 
L 351.105429 263.502466 
L 350.30573 258.165665 
L 349.254295 252.828864 
L 348.052375 247.492063 
L 346.794747 242.155262 
L 346.794747 242.155262 
L 345.287492 236.818461 
L 343.473763 231.48166 
L 340.96955 226.144859 
L 339.208985 223.484377 
L 336.934791 220.808058 
L 331.623224 216.113561 
L 330.741847 215.471257 
L 324.037463 211.229891 
L 321.626361 210.134456 
L 316.451701 207.858299 
L 308.86594 205.985138 
L 301.280178 205.258473 
L 293.694417 205.201404 
L 286.108656 205.483012 
L 278.522894 205.92279 
L 270.937133 206.516875 
L 263.351371 207.480349 
L 255.76561 209.114056 
L 252.656226 210.134456 
L 248.179849 211.470123 
L 240.594087 214.513152 
L 238.63753 215.471257 
L 233.008326 218.22901 
L 228.770554 220.808058 
L 225.422564 222.997471 
L 221.422478 226.144859 
L 217.836803 229.402161 
L 215.744331 231.48166 
L 211.19589 236.818461 
L 210.251041 238.087568 
L 207.119586 242.155262 
L 203.624843 247.492063 
L 202.66528 249.041536 
L 200.022305 252.828864 
L 196.493919 258.165665 
L 195.079519 260.285455 
L 192.621419 263.502466 
L 188.564267 268.839266 
L 187.493757 270.227188 
L 184.191147 274.176067 
L 180.052149 279.512868 
L 179.907996 279.704255 
L 176.009288 284.849669 
L 172.631616 290.18647 
L 172.322234 290.734066 
L 169.637122 295.523271 
L 167.204189 300.860072 
L 165.276502 306.196873 
L 164.736473 307.97193 
L 163.565405 311.533674 
L 162.089846 316.870475 
L 160.86762 322.207276 
L 159.836287 327.544077 
L 158.946282 332.880877 
L 158.161558 338.217678 
L 157.458013 343.554479 
L 157.150712 346.117727 
L 156.75954 348.89128 
L 156.088147 354.228081 
L 155.505733 359.564882 
L 155.025483 364.901683 
L 154.672885 370.238484 
L 154.482824 375.575285 
L 154.495253 380.912086 
L 154.749486 386.248887 
L 155.277957 391.585688 
L 156.103632 396.922488 
L 157.150712 401.827323 
L 157.236134 402.259289 
L 158.532595 407.59609 
L 160.184906 412.932891 
L 162.346293 418.269692 
L 164.736473 422.733711 
L 165.203256 423.606493 
L 168.894882 428.943294 
L 172.322234 432.612641 
L 174.41766 434.280095 
L 179.907996 437.787547 
L 185.064111 439.616896 
z
M 197.753366 428.943294 
L 195.079519 428.372738 
L 187.493757 425.736946 
L 184.087666 423.606493 
L 179.907996 420.136354 
L 178.371338 418.269692 
L 175.096468 412.932891 
L 172.831459 407.59609 
L 172.322234 405.989165 
L 171.151754 402.259289 
L 169.828361 396.922488 
L 168.764593 391.585688 
L 167.918225 386.248887 
L 167.295405 380.912086 
L 166.916653 375.575285 
L 166.784226 370.238484 
L 166.870289 364.901683 
L 167.128741 359.564882 
L 167.516272 354.228081 
L 168.008008 348.89128 
L 168.602721 343.554479 
L 169.320101 338.217678 
L 170.195251 332.880877 
L 171.27489 327.544077 
L 172.322234 323.345132 
L 172.593092 322.207276 
L 174.112255 316.870475 
L 175.986525 311.533674 
L 178.322398 306.196873 
L 179.907996 303.190601 
L 181.14001 300.860072 
L 184.416858 295.523271 
L 187.493757 291.315021 
L 188.296352 290.18647 
L 192.383779 284.849669 
L 195.079519 281.64908 
L 196.740861 279.512868 
L 201.012444 274.176067 
L 202.66528 272.151735 
L 205.156294 268.839266 
L 209.208962 263.502466 
L 210.251041 262.113433 
L 213.148031 258.165665 
L 217.206805 252.828864 
L 217.836803 252.009149 
L 221.619304 247.492063 
L 225.422564 243.341065 
L 226.763257 242.155262 
L 233.008326 237.017488 
L 233.343139 236.818461 
L 240.594087 232.637002 
L 243.68132 231.48166 
L 248.179849 229.757401 
L 255.76561 228.194867 
L 263.351371 228.019142 
L 270.937133 229.284444 
L 278.064373 231.48166 
L 278.522894 231.629596 
L 286.108656 233.735096 
L 293.694417 235.050804 
L 301.280178 236.202798 
L 303.418928 236.818461 
L 308.86594 238.616596 
L 314.104603 242.155262 
L 316.451701 243.980142 
L 319.779405 247.492063 
L 324.037463 252.252833 
L 324.46653 252.828864 
L 328.386967 258.165665 
L 331.623224 263.502466 
L 331.623224 263.502466 
L 333.824481 268.839266 
L 335.365503 274.176067 
L 336.383623 279.512868 
L 337.034636 284.849669 
L 337.43858 290.18647 
L 337.659924 295.523271 
L 337.712614 300.860072 
L 337.579191 306.196873 
L 337.233382 311.533674 
L 336.657063 316.870475 
L 335.846896 322.207276 
L 334.810336 327.544077 
L 333.553205 332.880877 
L 332.062785 338.217678 
L 331.623224 339.578368 
L 330.40739 343.554479 
L 328.559543 348.89128 
L 326.404504 354.228081 
L 324.037463 359.119903 
L 323.838014 359.564882 
L 321.136316 364.901683 
L 317.975771 370.238484 
L 316.451701 372.514072 
L 314.506506 375.575285 
L 310.732353 380.912086 
L 308.86594 383.327292 
L 306.553842 386.248887 
L 301.912874 391.585688 
L 301.280178 392.278251 
L 296.693955 396.922488 
L 293.694417 399.711617 
L 290.77526 402.259289 
L 286.108656 406.062978 
L 284.19127 407.59609 
L 278.522894 411.8679 
L 277.090128 412.932891 
L 270.937133 417.260205 
L 269.398361 418.269692 
L 263.351371 422.050577 
L 260.414118 423.606493 
L 255.76561 426.000615 
L 248.182705 428.943294 
L 248.179849 428.944411 
L 240.594087 431.056365 
L 233.008326 432.180859 
L 225.422564 432.442016 
L 217.836803 432.019228 
L 210.251041 431.125397 
L 202.66528 429.931153 
z
" clip-path="url(#pcff11f5f53)" style="fill: #c8dcf0"/>
    <path d="M 202.66528 429.931153 
L 210.251041 431.125397 
L 217.836803 432.019228 
L 225.422564 432.442016 
L 233.008326 432.180859 
L 240.594087 431.056365 
L 248.179849 428.944411 
L 248.182705 428.943294 
L 255.76561 426.000615 
L 260.414118 423.606493 
L 263.351371 422.050577 
L 269.398361 418.269692 
L 270.937133 417.260205 
L 277.090128 412.932891 
L 278.522894 411.8679 
L 284.19127 407.59609 
L 286.108656 406.062978 
L 290.77526 402.259289 
L 293.694417 399.711617 
L 296.693955 396.922488 
L 301.280178 392.278251 
L 301.912874 391.585688 
L 306.553842 386.248887 
L 308.86594 383.327292 
L 310.732353 380.912086 
L 314.506506 375.575285 
L 316.451701 372.514072 
L 317.975771 370.238484 
L 321.136316 364.901683 
L 323.838014 359.564882 
L 324.037463 359.119903 
L 326.404504 354.228081 
L 328.559543 348.89128 
L 330.40739 343.554479 
L 331.623224 339.578368 
L 332.062785 338.217678 
L 333.553205 332.880877 
L 334.810336 327.544077 
L 335.846896 322.207276 
L 336.657063 316.870475 
L 337.233382 311.533674 
L 337.579191 306.196873 
L 337.712614 300.860072 
L 337.659924 295.523271 
L 337.43858 290.18647 
L 337.034636 284.849669 
L 336.383623 279.512868 
L 335.365503 274.176067 
L 333.824481 268.839266 
L 331.623224 263.502466 
L 331.623224 263.502466 
L 328.386967 258.165665 
L 324.46653 252.828864 
L 324.037463 252.252833 
L 319.779405 247.492063 
L 316.451701 243.980142 
L 314.104603 242.155262 
L 308.86594 238.616596 
L 303.418928 236.818461 
L 301.280178 236.202798 
L 293.694417 235.050804 
L 286.108656 233.735096 
L 278.522894 231.629596 
L 278.064373 231.48166 
L 270.937133 229.284444 
L 263.351371 228.019142 
L 255.76561 228.194867 
L 248.179849 229.757401 
L 243.68132 231.48166 
L 240.594087 232.637002 
L 233.343139 236.818461 
L 233.008326 237.017488 
L 226.763257 242.155262 
L 225.422564 243.341065 
L 221.619304 247.492063 
L 217.836803 252.009149 
L 217.206805 252.828864 
L 213.148031 258.165665 
L 210.251041 262.113433 
L 209.208962 263.502466 
L 205.156294 268.839266 
L 202.66528 272.151735 
L 201.012444 274.176067 
L 196.740861 279.512868 
L 195.079519 281.64908 
L 192.383779 284.849669 
L 188.296352 290.18647 
L 187.493757 291.315021 
L 184.416858 295.523271 
L 181.14001 300.860072 
L 179.907996 303.190601 
L 178.322398 306.196873 
L 175.986525 311.533674 
L 174.112255 316.870475 
L 172.593092 322.207276 
L 172.322234 323.345132 
L 171.27489 327.544077 
L 170.195251 332.880877 
L 169.320101 338.217678 
L 168.602721 343.554479 
L 168.008008 348.89128 
L 167.516272 354.228081 
L 167.128741 359.564882 
L 166.870289 364.901683 
L 166.784226 370.238484 
L 166.916653 375.575285 
L 167.295405 380.912086 
L 167.918225 386.248887 
L 168.764593 391.585688 
L 169.828361 396.922488 
L 171.151754 402.259289 
L 172.322234 405.989165 
L 172.831459 407.59609 
L 175.096468 412.932891 
L 178.371338 418.269692 
L 179.907996 420.136354 
L 184.087666 423.606493 
L 187.493757 425.736946 
L 195.079519 428.372738 
L 197.753366 428.943294 
z
M 205.781706 418.269692 
L 202.66528 417.282813 
L 195.079519 413.892969 
L 193.656865 412.932891 
L 188.046061 407.59609 
L 187.493757 406.80348 
L 185.077298 402.259289 
L 183.187722 396.922488 
L 181.924569 391.585688 
L 181.049831 386.248887 
L 180.413823 380.912086 
L 179.931049 375.575285 
L 179.907996 375.237716 
L 179.558445 370.238484 
L 179.312069 364.901683 
L 179.195456 359.564882 
L 179.213978 354.228081 
L 179.380409 348.89128 
L 179.720358 343.554479 
L 179.907996 341.765281 
L 180.290676 338.217678 
L 181.130851 332.880877 
L 182.272364 327.544077 
L 183.761045 322.207276 
L 185.650015 316.870475 
L 187.493757 312.662478 
L 188.020684 311.533674 
L 190.895738 306.196873 
L 194.207176 300.860072 
L 195.079519 299.6013 
L 197.910502 295.523271 
L 201.876883 290.18647 
L 202.66528 289.183368 
L 205.959629 284.849669 
L 210.153119 279.512868 
L 210.251041 279.390017 
L 214.38096 274.176067 
L 217.836803 269.897665 
L 218.755109 268.839266 
L 223.404987 263.502466 
L 225.422564 261.224514 
L 228.702508 258.165665 
L 233.008326 254.256912 
L 235.218229 252.828864 
L 240.594087 249.386634 
L 245.786089 247.492063 
L 248.179849 246.592498 
L 255.76561 245.828832 
L 263.351371 247.137399 
L 264.362882 247.492063 
L 270.937133 249.793481 
L 278.522894 252.473094 
L 279.723298 252.828864 
L 286.108656 254.661454 
L 293.694417 257.25501 
L 295.590273 258.165665 
L 301.280178 261.125821 
L 304.662788 263.502466 
L 308.86594 266.718379 
L 311.120844 268.839266 
L 315.856776 274.176067 
L 316.451701 275.027971 
L 319.071037 279.512868 
L 321.222063 284.849669 
L 322.629079 290.18647 
L 323.520488 295.523271 
L 324.037463 300.860072 
L 324.037463 300.860072 
L 324.251699 306.196873 
L 324.167481 311.533674 
L 324.037463 313.352463 
L 323.794427 316.870475 
L 323.142836 322.207276 
L 322.231279 327.544077 
L 321.092187 332.880877 
L 319.752264 338.217678 
L 318.211488 343.554479 
L 316.451701 348.821192 
L 316.429397 348.89128 
L 314.413603 354.228081 
L 312.039486 359.564882 
L 309.233106 364.901683 
L 308.86594 365.506947 
L 305.997694 370.238484 
L 302.220457 375.575285 
L 301.280178 376.770064 
L 297.860078 380.912086 
L 293.694417 385.373407 
L 292.844488 386.248887 
L 287.20889 391.585688 
L 286.108656 392.561174 
L 281.130282 396.922488 
L 278.522894 399.061282 
L 274.615301 402.259289 
L 270.937133 405.097521 
L 267.538522 407.59609 
L 263.351371 410.513804 
L 259.355001 412.932891 
L 255.76561 415.020554 
L 248.438995 418.269692 
L 248.179849 418.383376 
L 240.594087 420.679523 
L 233.008326 421.78802 
L 225.422564 421.864516 
L 217.836803 421.053941 
L 210.251041 419.503071 
z
" clip-path="url(#pcff11f5f53)" style="fill: #a8cee4"/>
    <path d="M 210.251041 419.503071 
L 217.836803 421.053941 
L 225.422564 421.864516 
L 233.008326 421.78802 
L 240.594087 420.679523 
L 248.179849 418.383376 
L 248.438995 418.269692 
L 255.76561 415.020554 
L 259.355001 412.932891 
L 263.351371 410.513804 
L 267.538522 407.59609 
L 270.937133 405.097521 
L 274.615301 402.259289 
L 278.522894 399.061282 
L 281.130282 396.922488 
L 286.108656 392.561174 
L 287.20889 391.585688 
L 292.844488 386.248887 
L 293.694417 385.373407 
L 297.860078 380.912086 
L 301.280178 376.770064 
L 302.220457 375.575285 
L 305.997694 370.238484 
L 308.86594 365.506947 
L 309.233106 364.901683 
L 312.039486 359.564882 
L 314.413603 354.228081 
L 316.429397 348.89128 
L 316.451701 348.821192 
L 318.211488 343.554479 
L 319.752264 338.217678 
L 321.092187 332.880877 
L 322.231279 327.544077 
L 323.142836 322.207276 
L 323.794427 316.870475 
L 324.037463 313.352463 
L 324.167481 311.533674 
L 324.251699 306.196873 
L 324.037463 300.860072 
L 324.037463 300.860072 
L 323.520488 295.523271 
L 322.629079 290.18647 
L 321.222063 284.849669 
L 319.071037 279.512868 
L 316.451701 275.027971 
L 315.856776 274.176067 
L 311.120844 268.839266 
L 308.86594 266.718379 
L 304.662788 263.502466 
L 301.280178 261.125821 
L 295.590273 258.165665 
L 293.694417 257.25501 
L 286.108656 254.661454 
L 279.723298 252.828864 
L 278.522894 252.473094 
L 270.937133 249.793481 
L 264.362882 247.492063 
L 263.351371 247.137399 
L 255.76561 245.828832 
L 248.179849 246.592498 
L 245.786089 247.492063 
L 240.594087 249.386634 
L 235.218229 252.828864 
L 233.008326 254.256912 
L 228.702508 258.165665 
L 225.422564 261.224514 
L 223.404987 263.502466 
L 218.755109 268.839266 
L 217.836803 269.897665 
L 214.38096 274.176067 
L 210.251041 279.390017 
L 210.153119 279.512868 
L 205.959629 284.849669 
L 202.66528 289.183368 
L 201.876883 290.18647 
L 197.910502 295.523271 
L 195.079519 299.6013 
L 194.207176 300.860072 
L 190.895738 306.196873 
L 188.020684 311.533674 
L 187.493757 312.662478 
L 185.650015 316.870475 
L 183.761045 322.207276 
L 182.272364 327.544077 
L 181.130851 332.880877 
L 180.290676 338.217678 
L 179.907996 341.765281 
L 179.720358 343.554479 
L 179.380409 348.89128 
L 179.213978 354.228081 
L 179.195456 359.564882 
L 179.312069 364.901683 
L 179.558445 370.238484 
L 179.907996 375.237716 
L 179.931049 375.575285 
L 180.413823 380.912086 
L 181.049831 386.248887 
L 181.924569 391.585688 
L 183.187722 396.922488 
L 185.077298 402.259289 
L 187.493757 406.80348 
L 188.046061 407.59609 
L 193.656865 412.932891 
L 195.079519 413.892969 
L 202.66528 417.282813 
L 205.781706 418.269692 
z
M 228.783233 412.932891 
L 225.422564 412.837039 
L 217.836803 411.344321 
L 210.251041 408.54313 
L 208.336321 407.59609 
L 202.66528 403.841676 
L 200.849145 402.259289 
L 196.73119 396.922488 
L 195.079519 393.325001 
L 194.390615 391.585688 
L 193.03441 386.248887 
L 192.236481 380.912086 
L 191.776053 375.575285 
L 191.502907 370.238484 
L 191.318638 364.901683 
L 191.171949 359.564882 
L 191.060476 354.228081 
L 191.03022 348.89128 
L 191.165018 343.554479 
L 191.564993 338.217678 
L 192.321348 332.880877 
L 193.498424 327.544077 
L 195.079519 322.372531 
L 195.133583 322.207276 
L 197.392843 316.870475 
L 200.104786 311.533674 
L 202.66528 307.092488 
L 203.187278 306.196873 
L 206.615576 300.860072 
L 210.251041 295.523271 
L 210.251041 295.523271 
L 214.081518 290.18647 
L 217.836803 285.190086 
L 218.104978 284.849669 
L 222.535098 279.512868 
L 225.422564 276.164558 
L 227.472392 274.176067 
L 233.008326 268.953425 
L 233.18426 268.839266 
L 240.594087 264.035527 
L 242.321314 263.502466 
L 248.179849 261.634665 
L 255.76561 261.730499 
L 262.819811 263.502466 
L 263.351371 263.631468 
L 270.937133 265.927206 
L 278.522894 268.190421 
L 280.406007 268.839266 
L 286.108656 270.868086 
L 292.706933 274.176067 
L 293.694417 274.709543 
L 300.223264 279.512868 
L 301.280178 280.438895 
L 305.091967 284.849669 
L 308.277795 290.18647 
L 308.86594 291.63835 
L 310.237344 295.523271 
L 311.420465 300.860072 
L 312.04189 306.196873 
L 312.216707 311.533674 
L 312.015087 316.870475 
L 311.48801 322.207276 
L 310.683161 327.544077 
L 309.64825 332.880877 
L 308.86594 336.286744 
L 308.472694 338.217678 
L 307.17966 343.554479 
L 305.603197 348.89128 
L 303.666059 354.228081 
L 301.284841 359.564882 
L 301.280178 359.573584 
L 298.457437 364.901683 
L 294.947547 370.238484 
L 293.694417 371.865802 
L 290.814116 375.575285 
L 286.108656 380.7163 
L 285.931608 380.912086 
L 280.589436 386.248887 
L 278.522894 388.118376 
L 274.735135 391.585688 
L 270.937133 394.793898 
L 268.34268 396.922488 
L 263.351371 400.756057 
L 261.151917 402.259289 
L 255.76561 405.758379 
L 252.132091 407.59609 
L 248.179849 409.543542 
L 240.594087 411.970288 
L 233.803844 412.932891 
L 233.008326 413.050802 
z
" clip-path="url(#pcff11f5f53)" style="fill: #7db8da"/>
    <path d="M 233.008326 413.050802 
L 233.803844 412.932891 
L 240.594087 411.970288 
L 248.179849 409.543542 
L 252.132091 407.59609 
L 255.76561 405.758379 
L 261.151917 402.259289 
L 263.351371 400.756057 
L 268.34268 396.922488 
L 270.937133 394.793898 
L 274.735135 391.585688 
L 278.522894 388.118376 
L 280.589436 386.248887 
L 285.931608 380.912086 
L 286.108656 380.7163 
L 290.814116 375.575285 
L 293.694417 371.865802 
L 294.947547 370.238484 
L 298.457437 364.901683 
L 301.280178 359.573584 
L 301.284841 359.564882 
L 303.666059 354.228081 
L 305.603197 348.89128 
L 307.17966 343.554479 
L 308.472694 338.217678 
L 308.86594 336.286744 
L 309.64825 332.880877 
L 310.683161 327.544077 
L 311.48801 322.207276 
L 312.015087 316.870475 
L 312.216707 311.533674 
L 312.04189 306.196873 
L 311.420465 300.860072 
L 310.237344 295.523271 
L 308.86594 291.63835 
L 308.277795 290.18647 
L 305.091967 284.849669 
L 301.280178 280.438895 
L 300.223264 279.512868 
L 293.694417 274.709543 
L 292.706933 274.176067 
L 286.108656 270.868086 
L 280.406007 268.839266 
L 278.522894 268.190421 
L 270.937133 265.927206 
L 263.351371 263.631468 
L 262.819811 263.502466 
L 255.76561 261.730499 
L 248.179849 261.634665 
L 242.321314 263.502466 
L 240.594087 264.035527 
L 233.18426 268.839266 
L 233.008326 268.953425 
L 227.472392 274.176067 
L 225.422564 276.164558 
L 222.535098 279.512868 
L 218.104978 284.849669 
L 217.836803 285.190086 
L 214.081518 290.18647 
L 210.251041 295.523271 
L 210.251041 295.523271 
L 206.615576 300.860072 
L 203.187278 306.196873 
L 202.66528 307.092488 
L 200.104786 311.533674 
L 197.392843 316.870475 
L 195.133583 322.207276 
L 195.079519 322.372531 
L 193.498424 327.544077 
L 192.321348 332.880877 
L 191.564993 338.217678 
L 191.165018 343.554479 
L 191.03022 348.89128 
L 191.060476 354.228081 
L 191.171949 359.564882 
L 191.318638 364.901683 
L 191.502907 370.238484 
L 191.776053 375.575285 
L 192.236481 380.912086 
L 193.03441 386.248887 
L 194.390615 391.585688 
L 195.079519 393.325001 
L 196.73119 396.922488 
L 200.849145 402.259289 
L 202.66528 403.841676 
L 208.336321 407.59609 
L 210.251041 408.54313 
L 217.836803 411.344321 
L 225.422564 412.837039 
L 228.783233 412.932891 
z
M 221.322327 402.259289 
L 217.836803 400.778203 
L 212.331059 396.922488 
L 210.251041 394.773283 
L 207.770088 391.585688 
L 205.166869 386.248887 
L 203.686181 380.912086 
L 202.892313 375.575285 
L 202.66528 372.45477 
L 202.497567 370.238484 
L 202.338156 364.901683 
L 202.330947 359.564882 
L 202.435862 354.228081 
L 202.66528 348.89128 
L 202.66528 348.89128 
L 203.02767 343.554479 
L 203.637999 338.217678 
L 204.606552 332.880877 
L 206.038854 327.544077 
L 207.996697 322.207276 
L 210.251041 317.309274 
L 210.440049 316.870475 
L 213.099438 311.533674 
L 216.169964 306.196873 
L 217.836803 303.542203 
L 219.521308 300.860072 
L 223.20649 295.523271 
L 225.422564 292.556815 
L 227.490431 290.18647 
L 232.538631 284.849669 
L 233.008326 284.377967 
L 240.190427 279.512868 
L 240.594087 279.247705 
L 248.179849 277.062887 
L 255.76561 277.251552 
L 263.351371 278.756161 
L 266.163756 279.512868 
L 270.937133 280.803623 
L 278.522894 283.359941 
L 281.827125 284.849669 
L 286.108656 286.933389 
L 290.676599 290.18647 
L 293.694417 292.819115 
L 295.809433 295.523271 
L 298.733962 300.860072 
L 300.451075 306.196873 
L 301.279118 311.533674 
L 301.280178 311.561652 
L 301.469832 316.870475 
L 301.280178 320.333934 
L 301.186064 322.207276 
L 300.56238 327.544077 
L 299.665438 332.880877 
L 298.522984 338.217678 
L 297.120652 343.554479 
L 295.404591 348.89128 
L 293.694417 353.239617 
L 293.317302 354.228081 
L 290.861378 359.564882 
L 287.775038 364.901683 
L 286.108656 367.284199 
L 284.066357 370.238484 
L 279.705234 375.575285 
L 278.522894 376.842344 
L 274.768409 380.912086 
L 270.937133 384.616607 
L 269.203831 386.248887 
L 263.351371 391.303138 
L 262.98708 391.585688 
L 255.76561 396.82227 
L 255.589769 396.922488 
L 248.179849 400.956222 
L 244.386779 402.259289 
L 240.594087 403.544079 
L 233.008326 404.468417 
L 225.422564 403.648844 
z
" clip-path="url(#pcff11f5f53)" style="fill: #549fcd"/>
    <path d="M 225.422564 403.648844 
L 233.008326 404.468417 
L 240.594087 403.544079 
L 244.386779 402.259289 
L 248.179849 400.956222 
L 255.589769 396.922488 
L 255.76561 396.82227 
L 262.98708 391.585688 
L 263.351371 391.303138 
L 269.203831 386.248887 
L 270.937133 384.616607 
L 274.768409 380.912086 
L 278.522894 376.842344 
L 279.705234 375.575285 
L 284.066357 370.238484 
L 286.108656 367.284199 
L 287.775038 364.901683 
L 290.861378 359.564882 
L 293.317302 354.228081 
L 293.694417 353.239617 
L 295.404591 348.89128 
L 297.120652 343.554479 
L 298.522984 338.217678 
L 299.665438 332.880877 
L 300.56238 327.544077 
L 301.186064 322.207276 
L 301.280178 320.333934 
L 301.469832 316.870475 
L 301.280178 311.561652 
L 301.279118 311.533674 
L 300.451075 306.196873 
L 298.733962 300.860072 
L 295.809433 295.523271 
L 293.694417 292.819115 
L 290.676599 290.18647 
L 286.108656 286.933389 
L 281.827125 284.849669 
L 278.522894 283.359941 
L 270.937133 280.803623 
L 266.163756 279.512868 
L 263.351371 278.756161 
L 255.76561 277.251552 
L 248.179849 277.062887 
L 240.594087 279.247705 
L 240.190427 279.512868 
L 233.008326 284.377967 
L 232.538631 284.849669 
L 227.490431 290.18647 
L 225.422564 292.556815 
L 223.20649 295.523271 
L 219.521308 300.860072 
L 217.836803 303.542203 
L 216.169964 306.196873 
L 213.099438 311.533674 
L 210.440049 316.870475 
L 210.251041 317.309274 
L 207.996697 322.207276 
L 206.038854 327.544077 
L 204.606552 332.880877 
L 203.637999 338.217678 
L 203.02767 343.554479 
L 202.66528 348.89128 
L 202.66528 348.89128 
L 202.435862 354.228081 
L 202.330947 359.564882 
L 202.338156 364.901683 
L 202.497567 370.238484 
L 202.66528 372.45477 
L 202.892313 375.575285 
L 203.686181 380.912086 
L 205.166869 386.248887 
L 207.770088 391.585688 
L 210.251041 394.773283 
L 212.331059 396.922488 
L 217.836803 400.778203 
L 221.322327 402.259289 
z
M 225.078769 391.585688 
L 219.245332 386.248887 
L 217.836803 384.153277 
L 216.202729 380.912086 
L 214.578005 375.575285 
L 213.703252 370.238484 
L 213.310621 364.901683 
L 213.24172 359.564882 
L 213.418192 354.228081 
L 213.82307 348.89128 
L 214.485303 343.554479 
L 215.464186 338.217678 
L 216.833392 332.880877 
L 217.836803 329.901069 
L 218.669038 327.544077 
L 220.918326 322.207276 
L 223.556374 316.870475 
L 225.422564 313.565016 
L 226.75627 311.533674 
L 230.562032 306.196873 
L 233.008326 303.077934 
L 235.526909 300.860072 
L 240.594087 296.727333 
L 243.792672 295.523271 
L 248.179849 293.959699 
L 255.76561 293.908433 
L 263.351371 295.523271 
L 263.351371 295.523271 
L 270.937133 298.055032 
L 277.37483 300.860072 
L 278.522894 301.404754 
L 284.524456 306.196873 
L 286.108656 307.964298 
L 288.00895 311.533674 
L 289.630739 316.870475 
L 290.237389 322.207276 
L 290.105748 327.544077 
L 289.427062 332.880877 
L 288.311821 338.217678 
L 286.800755 343.554479 
L 286.108656 345.508902 
L 284.852863 348.89128 
L 282.524076 354.228081 
L 279.744222 359.564882 
L 278.522894 361.544304 
L 276.359306 364.901683 
L 272.440094 370.238484 
L 270.937133 372.031451 
L 267.799856 375.575285 
L 263.351371 380.13795 
L 262.494613 380.912086 
L 256.1067 386.248887 
L 255.76561 386.512886 
L 248.179849 391.091985 
L 246.794499 391.585688 
L 240.594087 393.695449 
L 233.008326 394.104135 
L 225.422564 391.807238 
z
" clip-path="url(#pcff11f5f53)" style="fill: #3181bd"/>
    <path d="M 225.422564 391.807238 
L 233.008326 394.104135 
L 240.594087 393.695449 
L 246.794499 391.585688 
L 248.179849 391.091985 
L 255.76561 386.512886 
L 256.1067 386.248887 
L 262.494613 380.912086 
L 263.351371 380.13795 
L 267.799856 375.575285 
L 270.937133 372.031451 
L 272.440094 370.238484 
L 276.359306 364.901683 
L 278.522894 361.544304 
L 279.744222 359.564882 
L 282.524076 354.228081 
L 284.852863 348.89128 
L 286.108656 345.508902 
L 286.800755 343.554479 
L 288.311821 338.217678 
L 289.427062 332.880877 
L 290.105748 327.544077 
L 290.237389 322.207276 
L 289.630739 316.870475 
L 288.00895 311.533674 
L 286.108656 307.964298 
L 284.524456 306.196873 
L 278.522894 301.404754 
L 277.37483 300.860072 
L 270.937133 298.055032 
L 263.351371 295.523271 
L 263.351371 295.523271 
L 255.76561 293.908433 
L 248.179849 293.959699 
L 243.792672 295.523271 
L 240.594087 296.727333 
L 235.526909 300.860072 
L 233.008326 303.077934 
L 230.562032 306.196873 
L 226.75627 311.533674 
L 225.422564 313.565016 
L 223.556374 316.870475 
L 220.918326 322.207276 
L 218.669038 327.544077 
L 217.836803 329.901069 
L 216.833392 332.880877 
L 215.464186 338.217678 
L 214.485303 343.554479 
L 213.82307 348.89128 
L 213.418192 354.228081 
L 213.24172 359.564882 
L 213.310621 364.901683 
L 213.703252 370.238484 
L 214.578005 375.575285 
L 216.202729 380.912086 
L 217.836803 384.153277 
L 219.245332 386.248887 
L 225.078769 391.585688 
z
M 234.298291 380.912086 
L 233.008326 380.60609 
L 228.321465 375.575285 
L 225.755601 370.238484 
L 225.422564 368.775562 
L 224.814628 364.901683 
L 224.56886 359.564882 
L 224.750191 354.228081 
L 225.270575 348.89128 
L 225.422564 347.912558 
L 226.324297 343.554479 
L 227.853866 338.217678 
L 229.79773 332.880877 
L 232.113253 327.544077 
L 233.008326 325.781965 
L 235.911802 322.207276 
L 240.594087 316.870475 
L 240.594087 316.870475 
L 248.179849 313.657922 
L 255.76561 313.762784 
L 263.351371 315.284205 
L 267.785657 316.870475 
L 270.937133 318.187919 
L 274.895927 322.207276 
L 277.440627 327.544077 
L 277.926236 332.880877 
L 277.174481 338.217678 
L 275.690592 343.554479 
L 273.712825 348.89128 
L 271.311562 354.228081 
L 270.937133 354.915003 
L 267.966317 359.564882 
L 264.322944 364.901683 
L 263.351371 366.16011 
L 259.564657 370.238484 
L 255.76561 374.101848 
L 253.756654 375.575285 
L 248.179849 379.397942 
L 243.683338 380.912086 
L 240.594087 381.876768 
z
" clip-path="url(#pcff11f5f53)" style="fill: #1460a8"/>
    <path d="M 240.594087 381.876768 
L 243.683338 380.912086 
L 248.179849 379.397942 
L 253.756654 375.575285 
L 255.76561 374.101848 
L 259.564657 370.238484 
L 263.351371 366.16011 
L 264.322944 364.901683 
L 267.966317 359.564882 
L 270.937133 354.915003 
L 271.311562 354.228081 
L 273.712825 348.89128 
L 275.690592 343.554479 
L 277.174481 338.217678 
L 277.926236 332.880877 
L 277.440627 327.544077 
L 274.895927 322.207276 
L 270.937133 318.187919 
L 267.785657 316.870475 
L 263.351371 315.284205 
L 255.76561 313.762784 
L 248.179849 313.657922 
L 240.594087 316.870475 
L 240.594087 316.870475 
L 235.911802 322.207276 
L 233.008326 325.781965 
L 232.113253 327.544077 
L 229.79773 332.880877 
L 227.853866 338.217678 
L 226.324297 343.554479 
L 225.422564 347.912558 
L 225.270575 348.89128 
L 224.750191 354.228081 
L 224.56886 359.564882 
L 224.814628 364.901683 
L 225.422564 368.775562 
L 225.755601 370.238484 
L 228.321465 375.575285 
L 233.008326 380.60609 
L 234.298291 380.912086 
z
" clip-path="url(#pcff11f5f53)" style="fill: #084082"/>
   </g>
   <g id="matplotlib.axis_1">
    <g id="xtick_1">
     <g id="line2d_1">
      <defs>
       <path id="mc9ecbd2e86" d="M 0 0 
L 0 3.5 
" style="stroke: #000000; stroke-width: 0.8"/>
      </defs>
      <g>
       <use xlink:href="#mc9ecbd2e86" x="76.68224" y="499.48" style="stroke: #000000; stroke-width: 0.8"/>
      </g>
     </g>
     <g id="text_1">
      <!-- 2.5 -->
      <g transform="translate(59.188803 523.196563) scale(0.22 -0.22)">
       <defs>
        <path id="DejaVuSans-32" d="M 1228 531 
L 3431 531 
L 3431 0 
L 469 0 
L 469 531 
Q 828 903 1448 1529 
Q 2069 2156 2228 2338 
Q 2531 2678 2651 2914 
Q 2772 3150 2772 3378 
Q 2772 3750 2511 3984 
Q 2250 4219 1831 4219 
Q 1534 4219 1204 4116 
Q 875 4013 500 3803 
L 500 4441 
Q 881 4594 1212 4672 
Q 1544 4750 1819 4750 
Q 2544 4750 2975 4387 
Q 3406 4025 3406 3419 
Q 3406 3131 3298 2873 
Q 3191 2616 2906 2266 
Q 2828 2175 2409 1742 
Q 1991 1309 1228 531 
z
" transform="scale(0.015625)"/>
        <path id="DejaVuSans-2e" d="M 684 794 
L 1344 794 
L 1344 0 
L 684 0 
L 684 794 
z
" transform="scale(0.015625)"/>
        <path id="DejaVuSans-35" d="M 691 4666 
L 3169 4666 
L 3169 4134 
L 1269 4134 
L 1269 2991 
Q 1406 3038 1543 3061 
Q 1681 3084 1819 3084 
Q 2600 3084 3056 2656 
Q 3513 2228 3513 1497 
Q 3513 744 3044 326 
Q 2575 -91 1722 -91 
Q 1428 -91 1123 -41 
Q 819 9 494 109 
L 494 744 
Q 775 591 1075 516 
Q 1375 441 1709 441 
Q 2250 441 2565 725 
Q 2881 1009 2881 1497 
Q 2881 1984 2565 2268 
Q 2250 2553 1709 2553 
Q 1456 2553 1204 2497 
Q 953 2441 691 2322 
L 691 4666 
z
" transform="scale(0.015625)"/>
       </defs>
       <use xlink:href="#DejaVuSans-32"/>
       <use xlink:href="#DejaVuSans-2e" x="63.623047"/>
       <use xlink:href="#DejaVuSans-35" x="95.410156"/>
      </g>
     </g>
    </g>
    <g id="xtick_2">
     <g id="line2d_2">
      <g>
       <use xlink:href="#mc9ecbd2e86" x="150.917441" y="499.48" style="stroke: #000000; stroke-width: 0.8"/>
      </g>
     </g>
     <g id="text_2">
      <!-- 3.0 -->
      <g transform="translate(133.424004 523.196563) scale(0.22 -0.22)">
       <defs>
        <path id="DejaVuSans-33" d="M 2597 2516 
Q 3050 2419 3304 2112 
Q 3559 1806 3559 1356 
Q 3559 666 3084 287 
Q 2609 -91 1734 -91 
Q 1441 -91 1130 -33 
Q 819 25 488 141 
L 488 750 
Q 750 597 1062 519 
Q 1375 441 1716 441 
Q 2309 441 2620 675 
Q 2931 909 2931 1356 
Q 2931 1769 2642 2001 
Q 2353 2234 1838 2234 
L 1294 2234 
L 1294 2753 
L 1863 2753 
Q 2328 2753 2575 2939 
Q 2822 3125 2822 3475 
Q 2822 3834 2567 4026 
Q 2313 4219 1838 4219 
Q 1578 4219 1281 4162 
Q 984 4106 628 3988 
L 628 4550 
Q 988 4650 1302 4700 
Q 1616 4750 1894 4750 
Q 2613 4750 3031 4423 
Q 3450 4097 3450 3541 
Q 3450 3153 3228 2886 
Q 3006 2619 2597 2516 
z
" transform="scale(0.015625)"/>
        <path id="DejaVuSans-30" d="M 2034 4250 
Q 1547 4250 1301 3770 
Q 1056 3291 1056 2328 
Q 1056 1369 1301 889 
Q 1547 409 2034 409 
Q 2525 409 2770 889 
Q 3016 1369 3016 2328 
Q 3016 3291 2770 3770 
Q 2525 4250 2034 4250 
z
M 2034 4750 
Q 2819 4750 3233 4129 
Q 3647 3509 3647 2328 
Q 3647 1150 3233 529 
Q 2819 -91 2034 -91 
Q 1250 -91 836 529 
Q 422 1150 422 2328 
Q 422 3509 836 4129 
Q 1250 4750 2034 4750 
z
" transform="scale(0.015625)"/>
       </defs>
       <use xlink:href="#DejaVuSans-33"/>
       <use xlink:href="#DejaVuSans-2e" x="63.623047"/>
       <use xlink:href="#DejaVuSans-30" x="95.410156"/>
      </g>
     </g>
    </g>
    <g id="xtick_3">
     <g id="line2d_3">
      <g>
       <use xlink:href="#mc9ecbd2e86" x="225.152642" y="499.48" style="stroke: #000000; stroke-width: 0.8"/>
      </g>
     </g>
     <g id="text_3">
      <!-- 3.5 -->
      <g transform="translate(207.659205 523.196563) scale(0.22 -0.22)">
       <use xlink:href="#DejaVuSans-33"/>
       <use xlink:href="#DejaVuSans-2e" x="63.623047"/>
       <use xlink:href="#DejaVuSans-35" x="95.410156"/>
      </g>
     </g>
    </g>
    <g id="xtick_4">
     <g id="line2d_4">
      <g>
       <use xlink:href="#mc9ecbd2e86" x="299.387843" y="499.48" style="stroke: #000000; stroke-width: 0.8"/>
      </g>
     </g>
     <g id="text_4">
      <!-- 4.0 -->
      <g transform="translate(281.894406 523.196563) scale(0.22 -0.22)">
       <defs>
        <path id="DejaVuSans-34" d="M 2419 4116 
L 825 1625 
L 2419 1625 
L 2419 4116 
z
M 2253 4666 
L 3047 4666 
L 3047 1625 
L 3713 1625 
L 3713 1100 
L 3047 1100 
L 3047 0 
L 2419 0 
L 2419 1100 
L 313 1100 
L 313 1709 
L 2253 4666 
z
" transform="scale(0.015625)"/>
       </defs>
       <use xlink:href="#DejaVuSans-34"/>
       <use xlink:href="#DejaVuSans-2e" x="63.623047"/>
       <use xlink:href="#DejaVuSans-30" x="95.410156"/>
      </g>
     </g>
    </g>
    <g id="xtick_5">
     <g id="line2d_5">
      <g>
       <use xlink:href="#mc9ecbd2e86" x="373.623044" y="499.48" style="stroke: #000000; stroke-width: 0.8"/>
      </g>
     </g>
     <g id="text_5">
      <!-- 4.5 -->
      <g transform="translate(356.129607 523.196563) scale(0.22 -0.22)">
       <use xlink:href="#DejaVuSans-34"/>
       <use xlink:href="#DejaVuSans-2e" x="63.623047"/>
       <use xlink:href="#DejaVuSans-35" x="95.410156"/>
      </g>
     </g>
    </g>
    <g id="xtick_6">
     <g id="line2d_6">
      <g>
       <use xlink:href="#mc9ecbd2e86" x="447.858245" y="499.48" style="stroke: #000000; stroke-width: 0.8"/>
      </g>
     </g>
     <g id="text_6">
      <!-- 5.0 -->
      <g transform="translate(430.364808 523.196563) scale(0.22 -0.22)">
       <use xlink:href="#DejaVuSans-35"/>
       <use xlink:href="#DejaVuSans-2e" x="63.623047"/>
       <use xlink:href="#DejaVuSans-30" x="95.410156"/>
      </g>
     </g>
    </g>
    <g id="xtick_7">
     <g id="line2d_7">
      <g>
       <use xlink:href="#mc9ecbd2e86" x="522.093446" y="499.48" style="stroke: #000000; stroke-width: 0.8"/>
      </g>
     </g>
     <g id="text_7">
      <!-- 5.5 -->
      <g transform="translate(504.600009 523.196563) scale(0.22 -0.22)">
       <use xlink:href="#DejaVuSans-35"/>
       <use xlink:href="#DejaVuSans-2e" x="63.623047"/>
       <use xlink:href="#DejaVuSans-35" x="95.410156"/>
      </g>
     </g>
    </g>
    <g id="xtick_8">
     <g id="line2d_8">
      <g>
       <use xlink:href="#mc9ecbd2e86" x="596.328647" y="499.48" style="stroke: #000000; stroke-width: 0.8"/>
      </g>
     </g>
     <g id="text_8">
      <!-- 6.0 -->
      <g transform="translate(578.83521 523.196563) scale(0.22 -0.22)">
       <defs>
        <path id="DejaVuSans-36" d="M 2113 2584 
Q 1688 2584 1439 2293 
Q 1191 2003 1191 1497 
Q 1191 994 1439 701 
Q 1688 409 2113 409 
Q 2538 409 2786 701 
Q 3034 994 3034 1497 
Q 3034 2003 2786 2293 
Q 2538 2584 2113 2584 
z
M 3366 4563 
L 3366 3988 
Q 3128 4100 2886 4159 
Q 2644 4219 2406 4219 
Q 1781 4219 1451 3797 
Q 1122 3375 1075 2522 
Q 1259 2794 1537 2939 
Q 1816 3084 2150 3084 
Q 2853 3084 3261 2657 
Q 3669 2231 3669 1497 
Q 3669 778 3244 343 
Q 2819 -91 2113 -91 
Q 1303 -91 875 529 
Q 447 1150 447 2328 
Q 447 3434 972 4092 
Q 1497 4750 2381 4750 
Q 2619 4750 2861 4703 
Q 3103 4656 3366 4563 
z
" transform="scale(0.015625)"/>
       </defs>
       <use xlink:href="#DejaVuSans-36"/>
       <use xlink:href="#DejaVuSans-2e" x="63.623047"/>
       <use xlink:href="#DejaVuSans-30" x="95.410156"/>
      </g>
     </g>
    </g>
    <g id="xtick_9">
     <g id="line2d_9">
      <g>
       <use xlink:href="#mc9ecbd2e86" x="670.563848" y="499.48" style="stroke: #000000; stroke-width: 0.8"/>
      </g>
     </g>
     <g id="text_9">
      <!-- 6.5 -->
      <g transform="translate(653.070411 523.196563) scale(0.22 -0.22)">
       <use xlink:href="#DejaVuSans-36"/>
       <use xlink:href="#DejaVuSans-2e" x="63.623047"/>
       <use xlink:href="#DejaVuSans-35" x="95.410156"/>
      </g>
     </g>
    </g>
    <g id="text_10">
     <!-- Force Uncertainties -->
     <g transform="translate(276.406094 548.488438) scale(0.22 -0.22)">
      <defs>
       <path id="DejaVuSans-46" d="M 628 4666 
L 3309 4666 
L 3309 4134 
L 1259 4134 
L 1259 2759 
L 3109 2759 
L 3109 2228 
L 1259 2228 
L 1259 0 
L 628 0 
L 628 4666 
z
" transform="scale(0.015625)"/>
       <path id="DejaVuSans-6f" d="M 1959 3097 
Q 1497 3097 1228 2736 
Q 959 2375 959 1747 
Q 959 1119 1226 758 
Q 1494 397 1959 397 
Q 2419 397 2687 759 
Q 2956 1122 2956 1747 
Q 2956 2369 2687 2733 
Q 2419 3097 1959 3097 
z
M 1959 3584 
Q 2709 3584 3137 3096 
Q 3566 2609 3566 1747 
Q 3566 888 3137 398 
Q 2709 -91 1959 -91 
Q 1206 -91 779 398 
Q 353 888 353 1747 
Q 353 2609 779 3096 
Q 1206 3584 1959 3584 
z
" transform="scale(0.015625)"/>
       <path id="DejaVuSans-72" d="M 2631 2963 
Q 2534 3019 2420 3045 
Q 2306 3072 2169 3072 
Q 1681 3072 1420 2755 
Q 1159 2438 1159 1844 
L 1159 0 
L 581 0 
L 581 3500 
L 1159 3500 
L 1159 2956 
Q 1341 3275 1631 3429 
Q 1922 3584 2338 3584 
Q 2397 3584 2469 3576 
Q 2541 3569 2628 3553 
L 2631 2963 
z
" transform="scale(0.015625)"/>
       <path id="DejaVuSans-63" d="M 3122 3366 
L 3122 2828 
Q 2878 2963 2633 3030 
Q 2388 3097 2138 3097 
Q 1578 3097 1268 2742 
Q 959 2388 959 1747 
Q 959 1106 1268 751 
Q 1578 397 2138 397 
Q 2388 397 2633 464 
Q 2878 531 3122 666 
L 3122 134 
Q 2881 22 2623 -34 
Q 2366 -91 2075 -91 
Q 1284 -91 818 406 
Q 353 903 353 1747 
Q 353 2603 823 3093 
Q 1294 3584 2113 3584 
Q 2378 3584 2631 3529 
Q 2884 3475 3122 3366 
z
" transform="scale(0.015625)"/>
       <path id="DejaVuSans-65" d="M 3597 1894 
L 3597 1613 
L 953 1613 
Q 991 1019 1311 708 
Q 1631 397 2203 397 
Q 2534 397 2845 478 
Q 3156 559 3463 722 
L 3463 178 
Q 3153 47 2828 -22 
Q 2503 -91 2169 -91 
Q 1331 -91 842 396 
Q 353 884 353 1716 
Q 353 2575 817 3079 
Q 1281 3584 2069 3584 
Q 2775 3584 3186 3129 
Q 3597 2675 3597 1894 
z
M 3022 2063 
Q 3016 2534 2758 2815 
Q 2500 3097 2075 3097 
Q 1594 3097 1305 2825 
Q 1016 2553 972 2059 
L 3022 2063 
z
" transform="scale(0.015625)"/>
       <path id="DejaVuSans-20" transform="scale(0.015625)"/>
       <path id="DejaVuSans-55" d="M 556 4666 
L 1191 4666 
L 1191 1831 
Q 1191 1081 1462 751 
Q 1734 422 2344 422 
Q 2950 422 3222 751 
Q 3494 1081 3494 1831 
L 3494 4666 
L 4128 4666 
L 4128 1753 
Q 4128 841 3676 375 
Q 3225 -91 2344 -91 
Q 1459 -91 1007 375 
Q 556 841 556 1753 
L 556 4666 
z
" transform="scale(0.015625)"/>
       <path id="DejaVuSans-6e" d="M 3513 2113 
L 3513 0 
L 2938 0 
L 2938 2094 
Q 2938 2591 2744 2837 
Q 2550 3084 2163 3084 
Q 1697 3084 1428 2787 
Q 1159 2491 1159 1978 
L 1159 0 
L 581 0 
L 581 3500 
L 1159 3500 
L 1159 2956 
Q 1366 3272 1645 3428 
Q 1925 3584 2291 3584 
Q 2894 3584 3203 3211 
Q 3513 2838 3513 2113 
z
" transform="scale(0.015625)"/>
       <path id="DejaVuSans-74" d="M 1172 4494 
L 1172 3500 
L 2356 3500 
L 2356 3053 
L 1172 3053 
L 1172 1153 
Q 1172 725 1289 603 
Q 1406 481 1766 481 
L 2356 481 
L 2356 0 
L 1766 0 
Q 1100 0 847 248 
Q 594 497 594 1153 
L 594 3053 
L 172 3053 
L 172 3500 
L 594 3500 
L 594 4494 
L 1172 4494 
z
" transform="scale(0.015625)"/>
       <path id="DejaVuSans-61" d="M 2194 1759 
Q 1497 1759 1228 1600 
Q 959 1441 959 1056 
Q 959 750 1161 570 
Q 1363 391 1709 391 
Q 2188 391 2477 730 
Q 2766 1069 2766 1631 
L 2766 1759 
L 2194 1759 
z
M 3341 1997 
L 3341 0 
L 2766 0 
L 2766 531 
Q 2569 213 2275 61 
Q 1981 -91 1556 -91 
Q 1019 -91 701 211 
Q 384 513 384 1019 
Q 384 1609 779 1909 
Q 1175 2209 1959 2209 
L 2766 2209 
L 2766 2266 
Q 2766 2663 2505 2880 
Q 2244 3097 1772 3097 
Q 1472 3097 1187 3025 
Q 903 2953 641 2809 
L 641 3341 
Q 956 3463 1253 3523 
Q 1550 3584 1831 3584 
Q 2591 3584 2966 3190 
Q 3341 2797 3341 1997 
z
" transform="scale(0.015625)"/>
       <path id="DejaVuSans-69" d="M 603 3500 
L 1178 3500 
L 1178 0 
L 603 0 
L 603 3500 
z
M 603 4863 
L 1178 4863 
L 1178 4134 
L 603 4134 
L 603 4863 
z
" transform="scale(0.015625)"/>
       <path id="DejaVuSans-73" d="M 2834 3397 
L 2834 2853 
Q 2591 2978 2328 3040 
Q 2066 3103 1784 3103 
Q 1356 3103 1142 2972 
Q 928 2841 928 2578 
Q 928 2378 1081 2264 
Q 1234 2150 1697 2047 
L 1894 2003 
Q 2506 1872 2764 1633 
Q 3022 1394 3022 966 
Q 3022 478 2636 193 
Q 2250 -91 1575 -91 
Q 1294 -91 989 -36 
Q 684 19 347 128 
L 347 722 
Q 666 556 975 473 
Q 1284 391 1588 391 
Q 1994 391 2212 530 
Q 2431 669 2431 922 
Q 2431 1156 2273 1281 
Q 2116 1406 1581 1522 
L 1381 1569 
Q 847 1681 609 1914 
Q 372 2147 372 2553 
Q 372 3047 722 3315 
Q 1072 3584 1716 3584 
Q 2034 3584 2315 3537 
Q 2597 3491 2834 3397 
z
" transform="scale(0.015625)"/>
      </defs>
      <use xlink:href="#DejaVuSans-46"/>
      <use xlink:href="#DejaVuSans-6f" x="53.894531"/>
      <use xlink:href="#DejaVuSans-72" x="115.076172"/>
      <use xlink:href="#DejaVuSans-63" x="153.939453"/>
      <use xlink:href="#DejaVuSans-65" x="208.919922"/>
      <use xlink:href="#DejaVuSans-20" x="270.443359"/>
      <use xlink:href="#DejaVuSans-55" x="302.230469"/>
      <use xlink:href="#DejaVuSans-6e" x="375.423828"/>
      <use xlink:href="#DejaVuSans-63" x="438.802734"/>
      <use xlink:href="#DejaVuSans-65" x="493.783203"/>
      <use xlink:href="#DejaVuSans-72" x="555.306641"/>
      <use xlink:href="#DejaVuSans-74" x="596.419922"/>
      <use xlink:href="#DejaVuSans-61" x="635.628906"/>
      <use xlink:href="#DejaVuSans-69" x="696.908203"/>
      <use xlink:href="#DejaVuSans-6e" x="724.691406"/>
      <use xlink:href="#DejaVuSans-74" x="788.070312"/>
      <use xlink:href="#DejaVuSans-69" x="827.279297"/>
      <use xlink:href="#DejaVuSans-65" x="855.0625"/>
      <use xlink:href="#DejaVuSans-73" x="916.585938"/>
     </g>
    </g>
   </g>
   <g id="matplotlib.axis_2">
    <g id="ytick_1">
     <g id="line2d_10">
      <defs>
       <path id="mea7fdf8d17" d="M 0 0 
L -3.5 0 
" style="stroke: #000000; stroke-width: 0.8"/>
      </defs>
      <g>
       <use xlink:href="#mea7fdf8d17" x="69.68" y="477.80419" style="stroke: #000000; stroke-width: 0.8"/>
      </g>
     </g>
     <g id="text_11">
      <!-- 2 -->
      <g transform="translate(48.6825 486.162472) scale(0.22 -0.22)">
       <use xlink:href="#DejaVuSans-32"/>
      </g>
     </g>
    </g>
    <g id="ytick_2">
     <g id="line2d_11">
      <g>
       <use xlink:href="#mea7fdf8d17" x="69.68" y="380.639579" style="stroke: #000000; stroke-width: 0.8"/>
      </g>
     </g>
     <g id="text_12">
      <!-- 3 -->
      <g transform="translate(48.6825 388.99786) scale(0.22 -0.22)">
       <use xlink:href="#DejaVuSans-33"/>
      </g>
     </g>
    </g>
    <g id="ytick_3">
     <g id="line2d_12">
      <g>
       <use xlink:href="#mea7fdf8d17" x="69.68" y="283.474967" style="stroke: #000000; stroke-width: 0.8"/>
      </g>
     </g>
     <g id="text_13">
      <!-- 4 -->
      <g transform="translate(48.6825 291.833249) scale(0.22 -0.22)">
       <use xlink:href="#DejaVuSans-34"/>
      </g>
     </g>
    </g>
    <g id="ytick_4">
     <g id="line2d_13">
      <g>
       <use xlink:href="#mea7fdf8d17" x="69.68" y="186.310356" style="stroke: #000000; stroke-width: 0.8"/>
      </g>
     </g>
     <g id="text_14">
      <!-- 5 -->
      <g transform="translate(48.6825 194.668637) scale(0.22 -0.22)">
       <use xlink:href="#DejaVuSans-35"/>
      </g>
     </g>
    </g>
    <g id="ytick_5">
     <g id="line2d_14">
      <g>
       <use xlink:href="#mea7fdf8d17" x="69.68" y="89.145744" style="stroke: #000000; stroke-width: 0.8"/>
      </g>
     </g>
     <g id="text_15">
      <!-- 6 -->
      <g transform="translate(48.6825 97.504026) scale(0.22 -0.22)">
       <use xlink:href="#DejaVuSans-36"/>
      </g>
     </g>
    </g>
    <g id="text_16">
     <!-- Force Errors [kJ/(mol*A)] -->
     <g transform="translate(40.107187 394.9125) rotate(-90) scale(0.22 -0.22)">
      <defs>
       <path id="DejaVuSans-45" d="M 628 4666 
L 3578 4666 
L 3578 4134 
L 1259 4134 
L 1259 2753 
L 3481 2753 
L 3481 2222 
L 1259 2222 
L 1259 531 
L 3634 531 
L 3634 0 
L 628 0 
L 628 4666 
z
" transform="scale(0.015625)"/>
       <path id="DejaVuSans-5b" d="M 550 4863 
L 1875 4863 
L 1875 4416 
L 1125 4416 
L 1125 -397 
L 1875 -397 
L 1875 -844 
L 550 -844 
L 550 4863 
z
" transform="scale(0.015625)"/>
       <path id="DejaVuSans-6b" d="M 581 4863 
L 1159 4863 
L 1159 1991 
L 2875 3500 
L 3609 3500 
L 1753 1863 
L 3688 0 
L 2938 0 
L 1159 1709 
L 1159 0 
L 581 0 
L 581 4863 
z
" transform="scale(0.015625)"/>
       <path id="DejaVuSans-4a" d="M 628 4666 
L 1259 4666 
L 1259 325 
Q 1259 -519 939 -900 
Q 619 -1281 -91 -1281 
L -331 -1281 
L -331 -750 
L -134 -750 
Q 284 -750 456 -515 
Q 628 -281 628 325 
L 628 4666 
z
" transform="scale(0.015625)"/>
       <path id="DejaVuSans-2f" d="M 1625 4666 
L 2156 4666 
L 531 -594 
L 0 -594 
L 1625 4666 
z
" transform="scale(0.015625)"/>
       <path id="DejaVuSans-28" d="M 1984 4856 
Q 1566 4138 1362 3434 
Q 1159 2731 1159 2009 
Q 1159 1288 1364 580 
Q 1569 -128 1984 -844 
L 1484 -844 
Q 1016 -109 783 600 
Q 550 1309 550 2009 
Q 550 2706 781 3412 
Q 1013 4119 1484 4856 
L 1984 4856 
z
" transform="scale(0.015625)"/>
       <path id="DejaVuSans-6d" d="M 3328 2828 
Q 3544 3216 3844 3400 
Q 4144 3584 4550 3584 
Q 5097 3584 5394 3201 
Q 5691 2819 5691 2113 
L 5691 0 
L 5113 0 
L 5113 2094 
Q 5113 2597 4934 2840 
Q 4756 3084 4391 3084 
Q 3944 3084 3684 2787 
Q 3425 2491 3425 1978 
L 3425 0 
L 2847 0 
L 2847 2094 
Q 2847 2600 2669 2842 
Q 2491 3084 2119 3084 
Q 1678 3084 1418 2786 
Q 1159 2488 1159 1978 
L 1159 0 
L 581 0 
L 581 3500 
L 1159 3500 
L 1159 2956 
Q 1356 3278 1631 3431 
Q 1906 3584 2284 3584 
Q 2666 3584 2933 3390 
Q 3200 3197 3328 2828 
z
" transform="scale(0.015625)"/>
       <path id="DejaVuSans-6c" d="M 603 4863 
L 1178 4863 
L 1178 0 
L 603 0 
L 603 4863 
z
" transform="scale(0.015625)"/>
       <path id="DejaVuSans-2a" d="M 3009 3897 
L 1888 3291 
L 3009 2681 
L 2828 2375 
L 1778 3009 
L 1778 1831 
L 1422 1831 
L 1422 3009 
L 372 2375 
L 191 2681 
L 1313 3291 
L 191 3897 
L 372 4206 
L 1422 3572 
L 1422 4750 
L 1778 4750 
L 1778 3572 
L 2828 4206 
L 3009 3897 
z
" transform="scale(0.015625)"/>
       <path id="DejaVuSans-41" d="M 2188 4044 
L 1331 1722 
L 3047 1722 
L 2188 4044 
z
M 1831 4666 
L 2547 4666 
L 4325 0 
L 3669 0 
L 3244 1197 
L 1141 1197 
L 716 0 
L 50 0 
L 1831 4666 
z
" transform="scale(0.015625)"/>
       <path id="DejaVuSans-29" d="M 513 4856 
L 1013 4856 
Q 1481 4119 1714 3412 
Q 1947 2706 1947 2009 
Q 1947 1309 1714 600 
Q 1481 -109 1013 -844 
L 513 -844 
Q 928 -128 1133 580 
Q 1338 1288 1338 2009 
Q 1338 2731 1133 3434 
Q 928 4138 513 4856 
z
" transform="scale(0.015625)"/>
       <path id="DejaVuSans-5d" d="M 1947 4863 
L 1947 -844 
L 622 -844 
L 622 -397 
L 1369 -397 
L 1369 4416 
L 622 4416 
L 622 4863 
L 1947 4863 
z
" transform="scale(0.015625)"/>
      </defs>
      <use xlink:href="#DejaVuSans-46"/>
      <use xlink:href="#DejaVuSans-6f" x="53.894531"/>
      <use xlink:href="#DejaVuSans-72" x="115.076172"/>
      <use xlink:href="#DejaVuSans-63" x="153.939453"/>
      <use xlink:href="#DejaVuSans-65" x="208.919922"/>
      <use xlink:href="#DejaVuSans-20" x="270.443359"/>
      <use xlink:href="#DejaVuSans-45" x="302.230469"/>
      <use xlink:href="#DejaVuSans-72" x="365.414062"/>
      <use xlink:href="#DejaVuSans-72" x="404.777344"/>
      <use xlink:href="#DejaVuSans-6f" x="443.640625"/>
      <use xlink:href="#DejaVuSans-72" x="504.822266"/>
      <use xlink:href="#DejaVuSans-73" x="545.935547"/>
      <use xlink:href="#DejaVuSans-20" x="598.035156"/>
      <use xlink:href="#DejaVuSans-5b" x="629.822266"/>
      <use xlink:href="#DejaVuSans-6b" x="668.835938"/>
      <use xlink:href="#DejaVuSans-4a" x="726.746094"/>
      <use xlink:href="#DejaVuSans-2f" x="756.238281"/>
      <use xlink:href="#DejaVuSans-28" x="789.929688"/>
      <use xlink:href="#DejaVuSans-6d" x="828.943359"/>
      <use xlink:href="#DejaVuSans-6f" x="926.355469"/>
      <use xlink:href="#DejaVuSans-6c" x="987.537109"/>
      <use xlink:href="#DejaVuSans-2a" x="1015.320312"/>
      <use xlink:href="#DejaVuSans-41" x="1065.320312"/>
      <use xlink:href="#DejaVuSans-29" x="1133.728516"/>
      <use xlink:href="#DejaVuSans-5d" x="1172.742188"/>
     </g>
    </g>
   </g>
   <g id="line2d_15">
    <path d="M 69.68 499.48 
L 696.24 23.76 
" clip-path="url(#pcff11f5f53)" style="fill: none; stroke-dasharray: 5.55,2.4; stroke-dashoffset: 0; stroke: #ff0000; stroke-width: 1.5"/>
   </g>
   <g id="patch_3">
    <path d="M 69.68 499.48 
L 69.68 23.76 
" style="fill: none; stroke: #000000; stroke-width: 0.8; stroke-linejoin: miter; stroke-linecap: square"/>
   </g>
   <g id="patch_4">
    <path d="M 696.24 499.48 
L 696.24 23.76 
" style="fill: none; stroke: #000000; stroke-width: 0.8; stroke-linejoin: miter; stroke-linecap: square"/>
   </g>
   <g id="patch_5">
    <path d="M 69.68 499.48 
L 696.24 499.48 
" style="fill: none; stroke: #000000; stroke-width: 0.8; stroke-linejoin: miter; stroke-linecap: square"/>
   </g>
   <g id="patch_6">
    <path d="M 69.68 23.76 
L 696.24 23.76 
" style="fill: none; stroke: #000000; stroke-width: 0.8; stroke-linejoin: miter; stroke-linecap: square"/>
   </g>
   <g id="text_17">
    <!-- Correlation in: 0.397 -->
    <g transform="translate(132.336 71.332) scale(0.22 -0.22)">
     <defs>
      <path id="DejaVuSans-43" d="M 4122 4306 
L 4122 3641 
Q 3803 3938 3442 4084 
Q 3081 4231 2675 4231 
Q 1875 4231 1450 3742 
Q 1025 3253 1025 2328 
Q 1025 1406 1450 917 
Q 1875 428 2675 428 
Q 3081 428 3442 575 
Q 3803 722 4122 1019 
L 4122 359 
Q 3791 134 3420 21 
Q 3050 -91 2638 -91 
Q 1578 -91 968 557 
Q 359 1206 359 2328 
Q 359 3453 968 4101 
Q 1578 4750 2638 4750 
Q 3056 4750 3426 4639 
Q 3797 4528 4122 4306 
z
" transform="scale(0.015625)"/>
      <path id="DejaVuSans-3a" d="M 750 794 
L 1409 794 
L 1409 0 
L 750 0 
L 750 794 
z
M 750 3309 
L 1409 3309 
L 1409 2516 
L 750 2516 
L 750 3309 
z
" transform="scale(0.015625)"/>
      <path id="DejaVuSans-39" d="M 703 97 
L 703 672 
Q 941 559 1184 500 
Q 1428 441 1663 441 
Q 2288 441 2617 861 
Q 2947 1281 2994 2138 
Q 2813 1869 2534 1725 
Q 2256 1581 1919 1581 
Q 1219 1581 811 2004 
Q 403 2428 403 3163 
Q 403 3881 828 4315 
Q 1253 4750 1959 4750 
Q 2769 4750 3195 4129 
Q 3622 3509 3622 2328 
Q 3622 1225 3098 567 
Q 2575 -91 1691 -91 
Q 1453 -91 1209 -44 
Q 966 3 703 97 
z
M 1959 2075 
Q 2384 2075 2632 2365 
Q 2881 2656 2881 3163 
Q 2881 3666 2632 3958 
Q 2384 4250 1959 4250 
Q 1534 4250 1286 3958 
Q 1038 3666 1038 3163 
Q 1038 2656 1286 2365 
Q 1534 2075 1959 2075 
z
" transform="scale(0.015625)"/>
      <path id="DejaVuSans-37" d="M 525 4666 
L 3525 4666 
L 3525 4397 
L 1831 0 
L 1172 0 
L 2766 4134 
L 525 4134 
L 525 4666 
z
" transform="scale(0.015625)"/>
     </defs>
     <use xlink:href="#DejaVuSans-43"/>
     <use xlink:href="#DejaVuSans-6f" x="69.824219"/>
     <use xlink:href="#DejaVuSans-72" x="131.005859"/>
     <use xlink:href="#DejaVuSans-72" x="170.369141"/>
     <use xlink:href="#DejaVuSans-65" x="209.232422"/>
     <use xlink:href="#DejaVuSans-6c" x="270.755859"/>
     <use xlink:href="#DejaVuSans-61" x="298.539062"/>
     <use xlink:href="#DejaVuSans-74" x="359.818359"/>
     <use xlink:href="#DejaVuSans-69" x="399.027344"/>
     <use xlink:href="#DejaVuSans-6f" x="426.810547"/>
     <use xlink:href="#DejaVuSans-6e" x="487.992188"/>
     <use xlink:href="#DejaVuSans-20" x="551.371094"/>
     <use xlink:href="#DejaVuSans-69" x="583.158203"/>
     <use xlink:href="#DejaVuSans-6e" x="610.941406"/>
     <use xlink:href="#DejaVuSans-3a" x="674.320312"/>
     <use xlink:href="#DejaVuSans-20" x="708.011719"/>
     <use xlink:href="#DejaVuSans-30" x="739.798828"/>
     <use xlink:href="#DejaVuSans-2e" x="803.421875"/>
     <use xlink:href="#DejaVuSans-33" x="835.208984"/>
     <use xlink:href="#DejaVuSans-39" x="898.832031"/>
     <use xlink:href="#DejaVuSans-37" x="962.455078"/>
    </g>
   </g>
  </g>
 </g>
 <defs>
  <clipPath id="pcff11f5f53">
   <rect x="69.68" y="23.76" width="626.56" height="475.72"/>
  </clipPath>
 </defs>
</svg>
