<?xml version="1.0" encoding="utf-8" standalone="no"?>
<!DOCTYPE svg PUBLIC "-//W3C//DTD SVG 1.1//EN"
  "http://www.w3.org/Graphics/SVG/1.1/DTD/svg11.dtd">
<svg xmlns:xlink="http://www.w3.org/1999/xlink" width="720pt" height="576pt" viewBox="0 0 720 576" xmlns="http://www.w3.org/2000/svg" version="1.1">
 <metadata>
  <rdf:RDF xmlns:dc="http://purl.org/dc/elements/1.1/" xmlns:cc="http://creativecommons.org/ns#" xmlns:rdf="http://www.w3.org/1999/02/22-rdf-syntax-ns#">
   <cc:Work>
    <dc:type rdf:resource="http://purl.org/dc/dcmitype/StillImage"/>
    <dc:date>2024-12-08T20:43:23.940632</dc:date>
    <dc:format>image/svg+xml</dc:format>
    <dc:creator>
     <cc:Agent>
      <dc:title>Matplotlib v3.8.4, https://matplotlib.org/</dc:title>
     </cc:Agent>
    </dc:creator>
   </cc:Work>
  </rdf:RDF>
 </metadata>
 <defs>
  <style type="text/css">*{stroke-linejoin: round; stroke-linecap: butt}</style>
 </defs>
 <g id="figure_1">
  <g id="patch_1">
   <path d="M 0 576 
L 720 576 
L 720 0 
L 0 0 
z
" style="fill: #ffffff"/>
  </g>
  <g id="axes_1">
   <g id="patch_2">
    <path d="M 83.72 499.48 
L 696.24 499.48 
L 696.24 23.76 
L 83.72 23.76 
z
" style="fill: #ffffff"/>
   </g>
   <g id="PathCollection_1">
    <defs>
     <path id="mdd2de959d0" d="M 0 3 
C 0.795609 3 1.55874 2.683901 2.12132 2.12132 
C 2.683901 1.55874 3 0.795609 3 0 
C 3 -0.795609 2.683901 -1.55874 2.12132 -2.12132 
C 1.55874 -2.683901 0.795609 -3 0 -3 
C -0.795609 -3 -1.55874 -2.683901 -2.12132 -2.12132 
C -2.683901 -1.55874 -3 -0.795609 -3 0 
C -3 0.795609 -2.683901 1.55874 -2.12132 2.12132 
C -1.55874 2.683901 -0.795609 3 0 3 
z
" style="stroke: #1f77b4"/>
    </defs>
    <g clip-path="url(#pb8e478ca52)">
     <use xlink:href="#mdd2de959d0" x="662.559235" y="385.247162" style="fill: #1f77b4; stroke: #1f77b4"/>
     <use xlink:href="#mdd2de959d0" x="572.672276" y="449.632086" style="fill: #1f77b4; stroke: #1f77b4"/>
     <use xlink:href="#mdd2de959d0" x="602.092441" y="348.332375" style="fill: #1f77b4; stroke: #1f77b4"/>
     <use xlink:href="#mdd2de959d0" x="599.478106" y="407.109673" style="fill: #1f77b4; stroke: #1f77b4"/>
     <use xlink:href="#mdd2de959d0" x="564.44893" y="388.88474" style="fill: #1f77b4; stroke: #1f77b4"/>
     <use xlink:href="#mdd2de959d0" x="535.278102" y="444.118151" style="fill: #1f77b4; stroke: #1f77b4"/>
     <use xlink:href="#mdd2de959d0" x="522.487997" y="437.082325" style="fill: #1f77b4; stroke: #1f77b4"/>
     <use xlink:href="#mdd2de959d0" x="565.029388" y="404.019119" style="fill: #1f77b4; stroke: #1f77b4"/>
     <use xlink:href="#mdd2de959d0" x="670.282499" y="400.401821" style="fill: #1f77b4; stroke: #1f77b4"/>
     <use xlink:href="#mdd2de959d0" x="605.518976" y="429.67239" style="fill: #1f77b4; stroke: #1f77b4"/>
     <use xlink:href="#mdd2de959d0" x="472.792539" y="444.403998" style="fill: #1f77b4; stroke: #1f77b4"/>
     <use xlink:href="#mdd2de959d0" x="543.52078" y="364.452808" style="fill: #1f77b4; stroke: #1f77b4"/>
     <use xlink:href="#mdd2de959d0" x="573.715514" y="348.826723" style="fill: #1f77b4; stroke: #1f77b4"/>
     <use xlink:href="#mdd2de959d0" x="517.523866" y="416.190453" style="fill: #1f77b4; stroke: #1f77b4"/>
     <use xlink:href="#mdd2de959d0" x="520.903199" y="477.082873" style="fill: #1f77b4; stroke: #1f77b4"/>
     <use xlink:href="#mdd2de959d0" x="519.647456" y="440.115192" style="fill: #1f77b4; stroke: #1f77b4"/>
     <use xlink:href="#mdd2de959d0" x="475.728236" y="420.888754" style="fill: #1f77b4; stroke: #1f77b4"/>
     <use xlink:href="#mdd2de959d0" x="556.908328" y="460.844844" style="fill: #1f77b4; stroke: #1f77b4"/>
     <use xlink:href="#mdd2de959d0" x="417.007742" y="431.528376" style="fill: #1f77b4; stroke: #1f77b4"/>
     <use xlink:href="#mdd2de959d0" x="520.617216" y="411.534716" style="fill: #1f77b4; stroke: #1f77b4"/>
     <use xlink:href="#mdd2de959d0" x="503.232341" y="431.505054" style="fill: #1f77b4; stroke: #1f77b4"/>
     <use xlink:href="#mdd2de959d0" x="478.786395" y="448.029842" style="fill: #1f77b4; stroke: #1f77b4"/>
     <use xlink:href="#mdd2de959d0" x="525.221183" y="409.19628" style="fill: #1f77b4; stroke: #1f77b4"/>
     <use xlink:href="#mdd2de959d0" x="478.542735" y="447.70933" style="fill: #1f77b4; stroke: #1f77b4"/>
     <use xlink:href="#mdd2de959d0" x="466.560044" y="456.733452" style="fill: #1f77b4; stroke: #1f77b4"/>
     <use xlink:href="#mdd2de959d0" x="490.24179" y="429.803233" style="fill: #1f77b4; stroke: #1f77b4"/>
     <use xlink:href="#mdd2de959d0" x="578.432513" y="327.866742" style="fill: #1f77b4; stroke: #1f77b4"/>
     <use xlink:href="#mdd2de959d0" x="605.159469" y="443.635491" style="fill: #1f77b4; stroke: #1f77b4"/>
     <use xlink:href="#mdd2de959d0" x="523.599787" y="429.489763" style="fill: #1f77b4; stroke: #1f77b4"/>
     <use xlink:href="#mdd2de959d0" x="620.682807" y="390.214693" style="fill: #1f77b4; stroke: #1f77b4"/>
     <use xlink:href="#mdd2de959d0" x="452.768273" y="433.286044" style="fill: #1f77b4; stroke: #1f77b4"/>
     <use xlink:href="#mdd2de959d0" x="657.132511" y="401.802926" style="fill: #1f77b4; stroke: #1f77b4"/>
     <use xlink:href="#mdd2de959d0" x="460.37278" y="449.754648" style="fill: #1f77b4; stroke: #1f77b4"/>
     <use xlink:href="#mdd2de959d0" x="467.375528" y="418.394183" style="fill: #1f77b4; stroke: #1f77b4"/>
     <use xlink:href="#mdd2de959d0" x="433.731268" y="432.48617" style="fill: #1f77b4; stroke: #1f77b4"/>
     <use xlink:href="#mdd2de959d0" x="624.369237" y="439.426683" style="fill: #1f77b4; stroke: #1f77b4"/>
     <use xlink:href="#mdd2de959d0" x="564.482244" y="437.572391" style="fill: #1f77b4; stroke: #1f77b4"/>
     <use xlink:href="#mdd2de959d0" x="491.67616" y="499.48" style="fill: #1f77b4; stroke: #1f77b4"/>
     <use xlink:href="#mdd2de959d0" x="497.227459" y="406.741248" style="fill: #1f77b4; stroke: #1f77b4"/>
     <use xlink:href="#mdd2de959d0" x="634.755493" y="438.584482" style="fill: #1f77b4; stroke: #1f77b4"/>
     <use xlink:href="#mdd2de959d0" x="531.697338" y="421.220463" style="fill: #1f77b4; stroke: #1f77b4"/>
     <use xlink:href="#mdd2de959d0" x="599.254669" y="454.439028" style="fill: #1f77b4; stroke: #1f77b4"/>
     <use xlink:href="#mdd2de959d0" x="476.994911" y="469.191673" style="fill: #1f77b4; stroke: #1f77b4"/>
     <use xlink:href="#mdd2de959d0" x="494.075317" y="434.655754" style="fill: #1f77b4; stroke: #1f77b4"/>
     <use xlink:href="#mdd2de959d0" x="553.886157" y="408.143155" style="fill: #1f77b4; stroke: #1f77b4"/>
     <use xlink:href="#mdd2de959d0" x="577.504748" y="411.302" style="fill: #1f77b4; stroke: #1f77b4"/>
     <use xlink:href="#mdd2de959d0" x="575.334893" y="408.569631" style="fill: #1f77b4; stroke: #1f77b4"/>
     <use xlink:href="#mdd2de959d0" x="472.021864" y="413.225859" style="fill: #1f77b4; stroke: #1f77b4"/>
     <use xlink:href="#mdd2de959d0" x="502.89986" y="436.136029" style="fill: #1f77b4; stroke: #1f77b4"/>
     <use xlink:href="#mdd2de959d0" x="524.776467" y="418.510887" style="fill: #1f77b4; stroke: #1f77b4"/>
     <use xlink:href="#mdd2de959d0" x="464.19758" y="416.288699" style="fill: #1f77b4; stroke: #1f77b4"/>
     <use xlink:href="#mdd2de959d0" x="689.463176" y="359.418753" style="fill: #1f77b4; stroke: #1f77b4"/>
     <use xlink:href="#mdd2de959d0" x="573.44572" y="394.140888" style="fill: #1f77b4; stroke: #1f77b4"/>
     <use xlink:href="#mdd2de959d0" x="472.012809" y="441.92723" style="fill: #1f77b4; stroke: #1f77b4"/>
     <use xlink:href="#mdd2de959d0" x="591.651381" y="458.658842" style="fill: #1f77b4; stroke: #1f77b4"/>
     <use xlink:href="#mdd2de959d0" x="515.60898" y="443.937182" style="fill: #1f77b4; stroke: #1f77b4"/>
     <use xlink:href="#mdd2de959d0" x="476.886993" y="453.842043" style="fill: #1f77b4; stroke: #1f77b4"/>
     <use xlink:href="#mdd2de959d0" x="523.72727" y="478.929167" style="fill: #1f77b4; stroke: #1f77b4"/>
     <use xlink:href="#mdd2de959d0" x="521.083093" y="460.606197" style="fill: #1f77b4; stroke: #1f77b4"/>
     <use xlink:href="#mdd2de959d0" x="580.190403" y="453.161642" style="fill: #1f77b4; stroke: #1f77b4"/>
     <use xlink:href="#mdd2de959d0" x="674.451744" y="409.510114" style="fill: #1f77b4; stroke: #1f77b4"/>
     <use xlink:href="#mdd2de959d0" x="480.080237" y="451.059784" style="fill: #1f77b4; stroke: #1f77b4"/>
     <use xlink:href="#mdd2de959d0" x="595.935019" y="441.306156" style="fill: #1f77b4; stroke: #1f77b4"/>
     <use xlink:href="#mdd2de959d0" x="546.983398" y="444.107892" style="fill: #1f77b4; stroke: #1f77b4"/>
     <use xlink:href="#mdd2de959d0" x="542.563407" y="494.380596" style="fill: #1f77b4; stroke: #1f77b4"/>
     <use xlink:href="#mdd2de959d0" x="514.224158" y="450.877313" style="fill: #1f77b4; stroke: #1f77b4"/>
     <use xlink:href="#mdd2de959d0" x="594.512567" y="471.262583" style="fill: #1f77b4; stroke: #1f77b4"/>
     <use xlink:href="#mdd2de959d0" x="537.097458" y="385.685608" style="fill: #1f77b4; stroke: #1f77b4"/>
     <use xlink:href="#mdd2de959d0" x="492.190741" y="449.475834" style="fill: #1f77b4; stroke: #1f77b4"/>
     <use xlink:href="#mdd2de959d0" x="512.024884" y="463.578452" style="fill: #1f77b4; stroke: #1f77b4"/>
     <use xlink:href="#mdd2de959d0" x="484.095723" y="410.224916" style="fill: #1f77b4; stroke: #1f77b4"/>
     <use xlink:href="#mdd2de959d0" x="608.745582" y="388.94895" style="fill: #1f77b4; stroke: #1f77b4"/>
     <use xlink:href="#mdd2de959d0" x="624.274879" y="360.484632" style="fill: #1f77b4; stroke: #1f77b4"/>
     <use xlink:href="#mdd2de959d0" x="648.365305" y="387.731273" style="fill: #1f77b4; stroke: #1f77b4"/>
     <use xlink:href="#mdd2de959d0" x="653.14424" y="435.7019" style="fill: #1f77b4; stroke: #1f77b4"/>
     <use xlink:href="#mdd2de959d0" x="519.238354" y="453.211877" style="fill: #1f77b4; stroke: #1f77b4"/>
     <use xlink:href="#mdd2de959d0" x="510.898362" y="341.600945" style="fill: #1f77b4; stroke: #1f77b4"/>
     <use xlink:href="#mdd2de959d0" x="410.713592" y="427.559964" style="fill: #1f77b4; stroke: #1f77b4"/>
     <use xlink:href="#mdd2de959d0" x="507.165387" y="417.361776" style="fill: #1f77b4; stroke: #1f77b4"/>
     <use xlink:href="#mdd2de959d0" x="528.657806" y="439.314734" style="fill: #1f77b4; stroke: #1f77b4"/>
     <use xlink:href="#mdd2de959d0" x="605.453428" y="393.217714" style="fill: #1f77b4; stroke: #1f77b4"/>
     <use xlink:href="#mdd2de959d0" x="555.704152" y="464.507001" style="fill: #1f77b4; stroke: #1f77b4"/>
     <use xlink:href="#mdd2de959d0" x="421.453304" y="447.555464" style="fill: #1f77b4; stroke: #1f77b4"/>
     <use xlink:href="#mdd2de959d0" x="617.247873" y="371.131087" style="fill: #1f77b4; stroke: #1f77b4"/>
     <use xlink:href="#mdd2de959d0" x="516.820288" y="395.35676" style="fill: #1f77b4; stroke: #1f77b4"/>
     <use xlink:href="#mdd2de959d0" x="509.784226" y="430.664566" style="fill: #1f77b4; stroke: #1f77b4"/>
     <use xlink:href="#mdd2de959d0" x="524.909394" y="360.419875" style="fill: #1f77b4; stroke: #1f77b4"/>
     <use xlink:href="#mdd2de959d0" x="522.506296" y="390.993066" style="fill: #1f77b4; stroke: #1f77b4"/>
     <use xlink:href="#mdd2de959d0" x="552.541265" y="393.124114" style="fill: #1f77b4; stroke: #1f77b4"/>
     <use xlink:href="#mdd2de959d0" x="526.581512" y="435.841253" style="fill: #1f77b4; stroke: #1f77b4"/>
     <use xlink:href="#mdd2de959d0" x="505.488107" y="458.450533" style="fill: #1f77b4; stroke: #1f77b4"/>
     <use xlink:href="#mdd2de959d0" x="462.572617" y="449.001574" style="fill: #1f77b4; stroke: #1f77b4"/>
     <use xlink:href="#mdd2de959d0" x="624.660005" y="432.273224" style="fill: #1f77b4; stroke: #1f77b4"/>
     <use xlink:href="#mdd2de959d0" x="603.98382" y="398.049755" style="fill: #1f77b4; stroke: #1f77b4"/>
     <use xlink:href="#mdd2de959d0" x="536.270666" y="405.410567" style="fill: #1f77b4; stroke: #1f77b4"/>
     <use xlink:href="#mdd2de959d0" x="496.838954" y="415.283933" style="fill: #1f77b4; stroke: #1f77b4"/>
     <use xlink:href="#mdd2de959d0" x="601.305626" y="415.120492" style="fill: #1f77b4; stroke: #1f77b4"/>
     <use xlink:href="#mdd2de959d0" x="574.396242" y="479.267545" style="fill: #1f77b4; stroke: #1f77b4"/>
     <use xlink:href="#mdd2de959d0" x="535.826842" y="384.354362" style="fill: #1f77b4; stroke: #1f77b4"/>
     <use xlink:href="#mdd2de959d0" x="507.335334" y="374.725828" style="fill: #1f77b4; stroke: #1f77b4"/>
     <use xlink:href="#mdd2de959d0" x="601.477262" y="397.865889" style="fill: #1f77b4; stroke: #1f77b4"/>
     <use xlink:href="#mdd2de959d0" x="636.194321" y="400.80654" style="fill: #1f77b4; stroke: #1f77b4"/>
     <use xlink:href="#mdd2de959d0" x="520.817568" y="488.84987" style="fill: #1f77b4; stroke: #1f77b4"/>
     <use xlink:href="#mdd2de959d0" x="482.934667" y="410.188948" style="fill: #1f77b4; stroke: #1f77b4"/>
     <use xlink:href="#mdd2de959d0" x="451.194454" y="367.646528" style="fill: #1f77b4; stroke: #1f77b4"/>
     <use xlink:href="#mdd2de959d0" x="696.24" y="354.90368" style="fill: #1f77b4; stroke: #1f77b4"/>
     <use xlink:href="#mdd2de959d0" x="420.441174" y="445.013438" style="fill: #1f77b4; stroke: #1f77b4"/>
     <use xlink:href="#mdd2de959d0" x="570.139489" y="449.759677" style="fill: #1f77b4; stroke: #1f77b4"/>
     <use xlink:href="#mdd2de959d0" x="535.399393" y="388.962597" style="fill: #1f77b4; stroke: #1f77b4"/>
     <use xlink:href="#mdd2de959d0" x="578.380713" y="348.816756" style="fill: #1f77b4; stroke: #1f77b4"/>
     <use xlink:href="#mdd2de959d0" x="657.661778" y="384.991014" style="fill: #1f77b4; stroke: #1f77b4"/>
     <use xlink:href="#mdd2de959d0" x="537.987218" y="411.624162" style="fill: #1f77b4; stroke: #1f77b4"/>
     <use xlink:href="#mdd2de959d0" x="554.652093" y="458.939643" style="fill: #1f77b4; stroke: #1f77b4"/>
     <use xlink:href="#mdd2de959d0" x="643.25755" y="305.72354" style="fill: #1f77b4; stroke: #1f77b4"/>
     <use xlink:href="#mdd2de959d0" x="547.254318" y="458.805529" style="fill: #1f77b4; stroke: #1f77b4"/>
     <use xlink:href="#mdd2de959d0" x="464.794366" y="429.513031" style="fill: #1f77b4; stroke: #1f77b4"/>
     <use xlink:href="#mdd2de959d0" x="471.064304" y="462.756759" style="fill: #1f77b4; stroke: #1f77b4"/>
     <use xlink:href="#mdd2de959d0" x="504.337561" y="461.871557" style="fill: #1f77b4; stroke: #1f77b4"/>
     <use xlink:href="#mdd2de959d0" x="524.900761" y="402.905629" style="fill: #1f77b4; stroke: #1f77b4"/>
     <use xlink:href="#mdd2de959d0" x="558.310464" y="492.022427" style="fill: #1f77b4; stroke: #1f77b4"/>
     <use xlink:href="#mdd2de959d0" x="618.762431" y="376.738459" style="fill: #1f77b4; stroke: #1f77b4"/>
     <use xlink:href="#mdd2de959d0" x="500.2059" y="390.279814" style="fill: #1f77b4; stroke: #1f77b4"/>
     <use xlink:href="#mdd2de959d0" x="455.160766" y="416.353456" style="fill: #1f77b4; stroke: #1f77b4"/>
     <use xlink:href="#mdd2de959d0" x="583.23702" y="475.566823" style="fill: #1f77b4; stroke: #1f77b4"/>
     <use xlink:href="#mdd2de959d0" x="485.273624" y="457.842815" style="fill: #1f77b4; stroke: #1f77b4"/>
     <use xlink:href="#mdd2de959d0" x="549.449698" y="456.172271" style="fill: #1f77b4; stroke: #1f77b4"/>
     <use xlink:href="#mdd2de959d0" x="618.735639" y="439.178388" style="fill: #1f77b4; stroke: #1f77b4"/>
     <use xlink:href="#mdd2de959d0" x="513.499559" y="447.714595" style="fill: #1f77b4; stroke: #1f77b4"/>
     <use xlink:href="#mdd2de959d0" x="610.988257" y="441.036115" style="fill: #1f77b4; stroke: #1f77b4"/>
     <use xlink:href="#mdd2de959d0" x="525.562298" y="344.351481" style="fill: #1f77b4; stroke: #1f77b4"/>
     <use xlink:href="#mdd2de959d0" x="605.712572" y="389.219656" style="fill: #1f77b4; stroke: #1f77b4"/>
     <use xlink:href="#mdd2de959d0" x="508.516801" y="427.387012" style="fill: #1f77b4; stroke: #1f77b4"/>
     <use xlink:href="#mdd2de959d0" x="468.815623" y="398.56287" style="fill: #1f77b4; stroke: #1f77b4"/>
     <use xlink:href="#mdd2de959d0" x="607.072479" y="421.460394" style="fill: #1f77b4; stroke: #1f77b4"/>
     <use xlink:href="#mdd2de959d0" x="664.169277" y="374.911079" style="fill: #1f77b4; stroke: #1f77b4"/>
     <use xlink:href="#mdd2de959d0" x="608.752995" y="435.378318" style="fill: #1f77b4; stroke: #1f77b4"/>
     <use xlink:href="#mdd2de959d0" x="540.531031" y="475.136393" style="fill: #1f77b4; stroke: #1f77b4"/>
     <use xlink:href="#mdd2de959d0" x="499.253407" y="460.884246" style="fill: #1f77b4; stroke: #1f77b4"/>
     <use xlink:href="#mdd2de959d0" x="469.407154" y="468.15102" style="fill: #1f77b4; stroke: #1f77b4"/>
     <use xlink:href="#mdd2de959d0" x="577.042249" y="423.886035" style="fill: #1f77b4; stroke: #1f77b4"/>
     <use xlink:href="#mdd2de959d0" x="470.569289" y="439.445997" style="fill: #1f77b4; stroke: #1f77b4"/>
     <use xlink:href="#mdd2de959d0" x="463.436617" y="146.96311" style="fill: #1f77b4; stroke: #1f77b4"/>
     <use xlink:href="#mdd2de959d0" x="505.727263" y="410.091922" style="fill: #1f77b4; stroke: #1f77b4"/>
     <use xlink:href="#mdd2de959d0" x="527.938557" y="432.23875" style="fill: #1f77b4; stroke: #1f77b4"/>
     <use xlink:href="#mdd2de959d0" x="578.78883" y="470.370202" style="fill: #1f77b4; stroke: #1f77b4"/>
     <use xlink:href="#mdd2de959d0" x="470.901723" y="426.390627" style="fill: #1f77b4; stroke: #1f77b4"/>
     <use xlink:href="#mdd2de959d0" x="587.429209" y="436.300672" style="fill: #1f77b4; stroke: #1f77b4"/>
     <use xlink:href="#mdd2de959d0" x="549.965545" y="433.122221" style="fill: #1f77b4; stroke: #1f77b4"/>
     <use xlink:href="#mdd2de959d0" x="587.844036" y="417.015071" style="fill: #1f77b4; stroke: #1f77b4"/>
     <use xlink:href="#mdd2de959d0" x="605.901475" y="448.393948" style="fill: #1f77b4; stroke: #1f77b4"/>
     <use xlink:href="#mdd2de959d0" x="504.056928" y="418.32571" style="fill: #1f77b4; stroke: #1f77b4"/>
     <use xlink:href="#mdd2de959d0" x="672.08609" y="384.614172" style="fill: #1f77b4; stroke: #1f77b4"/>
     <use xlink:href="#mdd2de959d0" x="609.114051" y="454.753628" style="fill: #1f77b4; stroke: #1f77b4"/>
     <use xlink:href="#mdd2de959d0" x="455.505212" y="423.148786" style="fill: #1f77b4; stroke: #1f77b4"/>
     <use xlink:href="#mdd2de959d0" x="604.575539" y="313.779784" style="fill: #1f77b4; stroke: #1f77b4"/>
     <use xlink:href="#mdd2de959d0" x="535.007134" y="422.47398" style="fill: #1f77b4; stroke: #1f77b4"/>
     <use xlink:href="#mdd2de959d0" x="577.89832" y="442.934912" style="fill: #1f77b4; stroke: #1f77b4"/>
     <use xlink:href="#mdd2de959d0" x="478.372272" y="482.497005" style="fill: #1f77b4; stroke: #1f77b4"/>
     <use xlink:href="#mdd2de959d0" x="496.493194" y="464.654817" style="fill: #1f77b4; stroke: #1f77b4"/>
     <use xlink:href="#mdd2de959d0" x="557.226076" y="429.650361" style="fill: #1f77b4; stroke: #1f77b4"/>
     <use xlink:href="#mdd2de959d0" x="542.785718" y="451.540777" style="fill: #1f77b4; stroke: #1f77b4"/>
     <use xlink:href="#mdd2de959d0" x="643.804271" y="437.643488" style="fill: #1f77b4; stroke: #1f77b4"/>
     <use xlink:href="#mdd2de959d0" x="632.584372" y="331.274319" style="fill: #1f77b4; stroke: #1f77b4"/>
     <use xlink:href="#mdd2de959d0" x="551.157194" y="474.042354" style="fill: #1f77b4; stroke: #1f77b4"/>
     <use xlink:href="#mdd2de959d0" x="482.343605" y="361.165287" style="fill: #1f77b4; stroke: #1f77b4"/>
     <use xlink:href="#mdd2de959d0" x="497.324679" y="474.375493" style="fill: #1f77b4; stroke: #1f77b4"/>
     <use xlink:href="#mdd2de959d0" x="515.876241" y="470.994409" style="fill: #1f77b4; stroke: #1f77b4"/>
     <use xlink:href="#mdd2de959d0" x="502.742628" y="458.823339" style="fill: #1f77b4; stroke: #1f77b4"/>
     <use xlink:href="#mdd2de959d0" x="656.994048" y="468.320619" style="fill: #1f77b4; stroke: #1f77b4"/>
     <use xlink:href="#mdd2de959d0" x="475.948857" y="453.953417" style="fill: #1f77b4; stroke: #1f77b4"/>
     <use xlink:href="#mdd2de959d0" x="602.105063" y="463.905379" style="fill: #1f77b4; stroke: #1f77b4"/>
     <use xlink:href="#mdd2de959d0" x="533.16948" y="390.802167" style="fill: #1f77b4; stroke: #1f77b4"/>
     <use xlink:href="#mdd2de959d0" x="683.916898" y="374.917256" style="fill: #1f77b4; stroke: #1f77b4"/>
     <use xlink:href="#mdd2de959d0" x="559.939509" y="480.611482" style="fill: #1f77b4; stroke: #1f77b4"/>
     <use xlink:href="#mdd2de959d0" x="674.889891" y="348.273394" style="fill: #1f77b4; stroke: #1f77b4"/>
     <use xlink:href="#mdd2de959d0" x="482.400004" y="411.179867" style="fill: #1f77b4; stroke: #1f77b4"/>
     <use xlink:href="#mdd2de959d0" x="478.043732" y="444.115245" style="fill: #1f77b4; stroke: #1f77b4"/>
     <use xlink:href="#mdd2de959d0" x="623.463195" y="391.672665" style="fill: #1f77b4; stroke: #1f77b4"/>
     <use xlink:href="#mdd2de959d0" x="571.916475" y="426.955398" style="fill: #1f77b4; stroke: #1f77b4"/>
     <use xlink:href="#mdd2de959d0" x="522.042718" y="376.512412" style="fill: #1f77b4; stroke: #1f77b4"/>
     <use xlink:href="#mdd2de959d0" x="590.032518" y="428.745389" style="fill: #1f77b4; stroke: #1f77b4"/>
     <use xlink:href="#mdd2de959d0" x="493.305017" y="431.195355" style="fill: #1f77b4; stroke: #1f77b4"/>
     <use xlink:href="#mdd2de959d0" x="494.549452" y="425.48797" style="fill: #1f77b4; stroke: #1f77b4"/>
     <use xlink:href="#mdd2de959d0" x="459.808933" y="442.380098" style="fill: #1f77b4; stroke: #1f77b4"/>
     <use xlink:href="#mdd2de959d0" x="581.387213" y="461.19522" style="fill: #1f77b4; stroke: #1f77b4"/>
     <use xlink:href="#mdd2de959d0" x="538.038925" y="458.663807" style="fill: #1f77b4; stroke: #1f77b4"/>
     <use xlink:href="#mdd2de959d0" x="515.769355" y="430.922062" style="fill: #1f77b4; stroke: #1f77b4"/>
     <use xlink:href="#mdd2de959d0" x="564.64886" y="482.660217" style="fill: #1f77b4; stroke: #1f77b4"/>
     <use xlink:href="#mdd2de959d0" x="542.739736" y="445.576232" style="fill: #1f77b4; stroke: #1f77b4"/>
     <use xlink:href="#mdd2de959d0" x="553.175025" y="430.213037" style="fill: #1f77b4; stroke: #1f77b4"/>
     <use xlink:href="#mdd2de959d0" x="485.021471" y="438.334621" style="fill: #1f77b4; stroke: #1f77b4"/>
     <use xlink:href="#mdd2de959d0" x="596.884416" y="453.303965" style="fill: #1f77b4; stroke: #1f77b4"/>
     <use xlink:href="#mdd2de959d0" x="581.485793" y="361.518588" style="fill: #1f77b4; stroke: #1f77b4"/>
     <use xlink:href="#mdd2de959d0" x="571.865238" y="447.307224" style="fill: #1f77b4; stroke: #1f77b4"/>
     <use xlink:href="#mdd2de959d0" x="646.256683" y="444.159867" style="fill: #1f77b4; stroke: #1f77b4"/>
     <use xlink:href="#mdd2de959d0" x="542.193859" y="444.205875" style="fill: #1f77b4; stroke: #1f77b4"/>
     <use xlink:href="#mdd2de959d0" x="490.794705" y="429.81351" style="fill: #1f77b4; stroke: #1f77b4"/>
     <use xlink:href="#mdd2de959d0" x="638.679248" y="432.678672" style="fill: #1f77b4; stroke: #1f77b4"/>
     <use xlink:href="#mdd2de959d0" x="519.804454" y="450.307066" style="fill: #1f77b4; stroke: #1f77b4"/>
     <use xlink:href="#mdd2de959d0" x="593.386514" y="417.336832" style="fill: #1f77b4; stroke: #1f77b4"/>
    </g>
   </g>
   <g id="matplotlib.axis_1">
    <g id="xtick_1">
     <g id="line2d_1">
      <defs>
       <path id="mbb9c74cad8" d="M 0 0 
L 0 3.5 
" style="stroke: #000000; stroke-width: 0.8"/>
      </defs>
      <g>
       <use xlink:href="#mbb9c74cad8" x="160.982672" y="499.48" style="stroke: #000000; stroke-width: 0.8"/>
      </g>
     </g>
     <g id="text_1">
      <!-- 4 -->
      <g transform="translate(153.983922 523.196563) scale(0.22 -0.22)">
       <defs>
        <path id="DejaVuSans-34" d="M 2419 4116 
L 825 1625 
L 2419 1625 
L 2419 4116 
z
M 2253 4666 
L 3047 4666 
L 3047 1625 
L 3713 1625 
L 3713 1100 
L 3047 1100 
L 3047 0 
L 2419 0 
L 2419 1100 
L 313 1100 
L 313 1709 
L 2253 4666 
z
" transform="scale(0.015625)"/>
       </defs>
       <use xlink:href="#DejaVuSans-34"/>
      </g>
     </g>
    </g>
    <g id="xtick_2">
     <g id="line2d_2">
      <g>
       <use xlink:href="#mbb9c74cad8" x="259.382807" y="499.48" style="stroke: #000000; stroke-width: 0.8"/>
      </g>
     </g>
     <g id="text_2">
      <!-- 6 -->
      <g transform="translate(252.384057 523.196563) scale(0.22 -0.22)">
       <defs>
        <path id="DejaVuSans-36" d="M 2113 2584 
Q 1688 2584 1439 2293 
Q 1191 2003 1191 1497 
Q 1191 994 1439 701 
Q 1688 409 2113 409 
Q 2538 409 2786 701 
Q 3034 994 3034 1497 
Q 3034 2003 2786 2293 
Q 2538 2584 2113 2584 
z
M 3366 4563 
L 3366 3988 
Q 3128 4100 2886 4159 
Q 2644 4219 2406 4219 
Q 1781 4219 1451 3797 
Q 1122 3375 1075 2522 
Q 1259 2794 1537 2939 
Q 1816 3084 2150 3084 
Q 2853 3084 3261 2657 
Q 3669 2231 3669 1497 
Q 3669 778 3244 343 
Q 2819 -91 2113 -91 
Q 1303 -91 875 529 
Q 447 1150 447 2328 
Q 447 3434 972 4092 
Q 1497 4750 2381 4750 
Q 2619 4750 2861 4703 
Q 3103 4656 3366 4563 
z
" transform="scale(0.015625)"/>
       </defs>
       <use xlink:href="#DejaVuSans-36"/>
      </g>
     </g>
    </g>
    <g id="xtick_3">
     <g id="line2d_3">
      <g>
       <use xlink:href="#mbb9c74cad8" x="357.782942" y="499.48" style="stroke: #000000; stroke-width: 0.8"/>
      </g>
     </g>
     <g id="text_3">
      <!-- 8 -->
      <g transform="translate(350.784192 523.196563) scale(0.22 -0.22)">
       <defs>
        <path id="DejaVuSans-38" d="M 2034 2216 
Q 1584 2216 1326 1975 
Q 1069 1734 1069 1313 
Q 1069 891 1326 650 
Q 1584 409 2034 409 
Q 2484 409 2743 651 
Q 3003 894 3003 1313 
Q 3003 1734 2745 1975 
Q 2488 2216 2034 2216 
z
M 1403 2484 
Q 997 2584 770 2862 
Q 544 3141 544 3541 
Q 544 4100 942 4425 
Q 1341 4750 2034 4750 
Q 2731 4750 3128 4425 
Q 3525 4100 3525 3541 
Q 3525 3141 3298 2862 
Q 3072 2584 2669 2484 
Q 3125 2378 3379 2068 
Q 3634 1759 3634 1313 
Q 3634 634 3220 271 
Q 2806 -91 2034 -91 
Q 1263 -91 848 271 
Q 434 634 434 1313 
Q 434 1759 690 2068 
Q 947 2378 1403 2484 
z
M 1172 3481 
Q 1172 3119 1398 2916 
Q 1625 2713 2034 2713 
Q 2441 2713 2670 2916 
Q 2900 3119 2900 3481 
Q 2900 3844 2670 4047 
Q 2441 4250 2034 4250 
Q 1625 4250 1398 4047 
Q 1172 3844 1172 3481 
z
" transform="scale(0.015625)"/>
       </defs>
       <use xlink:href="#DejaVuSans-38"/>
      </g>
     </g>
    </g>
    <g id="xtick_4">
     <g id="line2d_4">
      <g>
       <use xlink:href="#mbb9c74cad8" x="456.183078" y="499.48" style="stroke: #000000; stroke-width: 0.8"/>
      </g>
     </g>
     <g id="text_4">
      <!-- 10 -->
      <g transform="translate(442.185578 523.196563) scale(0.22 -0.22)">
       <defs>
        <path id="DejaVuSans-31" d="M 794 531 
L 1825 531 
L 1825 4091 
L 703 3866 
L 703 4441 
L 1819 4666 
L 2450 4666 
L 2450 531 
L 3481 531 
L 3481 0 
L 794 0 
L 794 531 
z
" transform="scale(0.015625)"/>
        <path id="DejaVuSans-30" d="M 2034 4250 
Q 1547 4250 1301 3770 
Q 1056 3291 1056 2328 
Q 1056 1369 1301 889 
Q 1547 409 2034 409 
Q 2525 409 2770 889 
Q 3016 1369 3016 2328 
Q 3016 3291 2770 3770 
Q 2525 4250 2034 4250 
z
M 2034 4750 
Q 2819 4750 3233 4129 
Q 3647 3509 3647 2328 
Q 3647 1150 3233 529 
Q 2819 -91 2034 -91 
Q 1250 -91 836 529 
Q 422 1150 422 2328 
Q 422 3509 836 4129 
Q 1250 4750 2034 4750 
z
" transform="scale(0.015625)"/>
       </defs>
       <use xlink:href="#DejaVuSans-31"/>
       <use xlink:href="#DejaVuSans-30" x="63.623047"/>
      </g>
     </g>
    </g>
    <g id="xtick_5">
     <g id="line2d_5">
      <g>
       <use xlink:href="#mbb9c74cad8" x="554.583213" y="499.48" style="stroke: #000000; stroke-width: 0.8"/>
      </g>
     </g>
     <g id="text_5">
      <!-- 12 -->
      <g transform="translate(540.585713 523.196563) scale(0.22 -0.22)">
       <defs>
        <path id="DejaVuSans-32" d="M 1228 531 
L 3431 531 
L 3431 0 
L 469 0 
L 469 531 
Q 828 903 1448 1529 
Q 2069 2156 2228 2338 
Q 2531 2678 2651 2914 
Q 2772 3150 2772 3378 
Q 2772 3750 2511 3984 
Q 2250 4219 1831 4219 
Q 1534 4219 1204 4116 
Q 875 4013 500 3803 
L 500 4441 
Q 881 4594 1212 4672 
Q 1544 4750 1819 4750 
Q 2544 4750 2975 4387 
Q 3406 4025 3406 3419 
Q 3406 3131 3298 2873 
Q 3191 2616 2906 2266 
Q 2828 2175 2409 1742 
Q 1991 1309 1228 531 
z
" transform="scale(0.015625)"/>
       </defs>
       <use xlink:href="#DejaVuSans-31"/>
       <use xlink:href="#DejaVuSans-32" x="63.623047"/>
      </g>
     </g>
    </g>
    <g id="xtick_6">
     <g id="line2d_6">
      <g>
       <use xlink:href="#mbb9c74cad8" x="652.983348" y="499.48" style="stroke: #000000; stroke-width: 0.8"/>
      </g>
     </g>
     <g id="text_6">
      <!-- 14 -->
      <g transform="translate(638.985848 523.196563) scale(0.22 -0.22)">
       <use xlink:href="#DejaVuSans-31"/>
       <use xlink:href="#DejaVuSans-34" x="63.623047"/>
      </g>
     </g>
    </g>
    <g id="text_7">
     <!-- Uncertainties -->
     <g transform="translate(316.671875 548.488438) scale(0.22 -0.22)">
      <defs>
       <path id="DejaVuSans-55" d="M 556 4666 
L 1191 4666 
L 1191 1831 
Q 1191 1081 1462 751 
Q 1734 422 2344 422 
Q 2950 422 3222 751 
Q 3494 1081 3494 1831 
L 3494 4666 
L 4128 4666 
L 4128 1753 
Q 4128 841 3676 375 
Q 3225 -91 2344 -91 
Q 1459 -91 1007 375 
Q 556 841 556 1753 
L 556 4666 
z
" transform="scale(0.015625)"/>
       <path id="DejaVuSans-6e" d="M 3513 2113 
L 3513 0 
L 2938 0 
L 2938 2094 
Q 2938 2591 2744 2837 
Q 2550 3084 2163 3084 
Q 1697 3084 1428 2787 
Q 1159 2491 1159 1978 
L 1159 0 
L 581 0 
L 581 3500 
L 1159 3500 
L 1159 2956 
Q 1366 3272 1645 3428 
Q 1925 3584 2291 3584 
Q 2894 3584 3203 3211 
Q 3513 2838 3513 2113 
z
" transform="scale(0.015625)"/>
       <path id="DejaVuSans-63" d="M 3122 3366 
L 3122 2828 
Q 2878 2963 2633 3030 
Q 2388 3097 2138 3097 
Q 1578 3097 1268 2742 
Q 959 2388 959 1747 
Q 959 1106 1268 751 
Q 1578 397 2138 397 
Q 2388 397 2633 464 
Q 2878 531 3122 666 
L 3122 134 
Q 2881 22 2623 -34 
Q 2366 -91 2075 -91 
Q 1284 -91 818 406 
Q 353 903 353 1747 
Q 353 2603 823 3093 
Q 1294 3584 2113 3584 
Q 2378 3584 2631 3529 
Q 2884 3475 3122 3366 
z
" transform="scale(0.015625)"/>
       <path id="DejaVuSans-65" d="M 3597 1894 
L 3597 1613 
L 953 1613 
Q 991 1019 1311 708 
Q 1631 397 2203 397 
Q 2534 397 2845 478 
Q 3156 559 3463 722 
L 3463 178 
Q 3153 47 2828 -22 
Q 2503 -91 2169 -91 
Q 1331 -91 842 396 
Q 353 884 353 1716 
Q 353 2575 817 3079 
Q 1281 3584 2069 3584 
Q 2775 3584 3186 3129 
Q 3597 2675 3597 1894 
z
M 3022 2063 
Q 3016 2534 2758 2815 
Q 2500 3097 2075 3097 
Q 1594 3097 1305 2825 
Q 1016 2553 972 2059 
L 3022 2063 
z
" transform="scale(0.015625)"/>
       <path id="DejaVuSans-72" d="M 2631 2963 
Q 2534 3019 2420 3045 
Q 2306 3072 2169 3072 
Q 1681 3072 1420 2755 
Q 1159 2438 1159 1844 
L 1159 0 
L 581 0 
L 581 3500 
L 1159 3500 
L 1159 2956 
Q 1341 3275 1631 3429 
Q 1922 3584 2338 3584 
Q 2397 3584 2469 3576 
Q 2541 3569 2628 3553 
L 2631 2963 
z
" transform="scale(0.015625)"/>
       <path id="DejaVuSans-74" d="M 1172 4494 
L 1172 3500 
L 2356 3500 
L 2356 3053 
L 1172 3053 
L 1172 1153 
Q 1172 725 1289 603 
Q 1406 481 1766 481 
L 2356 481 
L 2356 0 
L 1766 0 
Q 1100 0 847 248 
Q 594 497 594 1153 
L 594 3053 
L 172 3053 
L 172 3500 
L 594 3500 
L 594 4494 
L 1172 4494 
z
" transform="scale(0.015625)"/>
       <path id="DejaVuSans-61" d="M 2194 1759 
Q 1497 1759 1228 1600 
Q 959 1441 959 1056 
Q 959 750 1161 570 
Q 1363 391 1709 391 
Q 2188 391 2477 730 
Q 2766 1069 2766 1631 
L 2766 1759 
L 2194 1759 
z
M 3341 1997 
L 3341 0 
L 2766 0 
L 2766 531 
Q 2569 213 2275 61 
Q 1981 -91 1556 -91 
Q 1019 -91 701 211 
Q 384 513 384 1019 
Q 384 1609 779 1909 
Q 1175 2209 1959 2209 
L 2766 2209 
L 2766 2266 
Q 2766 2663 2505 2880 
Q 2244 3097 1772 3097 
Q 1472 3097 1187 3025 
Q 903 2953 641 2809 
L 641 3341 
Q 956 3463 1253 3523 
Q 1550 3584 1831 3584 
Q 2591 3584 2966 3190 
Q 3341 2797 3341 1997 
z
" transform="scale(0.015625)"/>
       <path id="DejaVuSans-69" d="M 603 3500 
L 1178 3500 
L 1178 0 
L 603 0 
L 603 3500 
z
M 603 4863 
L 1178 4863 
L 1178 4134 
L 603 4134 
L 603 4863 
z
" transform="scale(0.015625)"/>
       <path id="DejaVuSans-73" d="M 2834 3397 
L 2834 2853 
Q 2591 2978 2328 3040 
Q 2066 3103 1784 3103 
Q 1356 3103 1142 2972 
Q 928 2841 928 2578 
Q 928 2378 1081 2264 
Q 1234 2150 1697 2047 
L 1894 2003 
Q 2506 1872 2764 1633 
Q 3022 1394 3022 966 
Q 3022 478 2636 193 
Q 2250 -91 1575 -91 
Q 1294 -91 989 -36 
Q 684 19 347 128 
L 347 722 
Q 666 556 975 473 
Q 1284 391 1588 391 
Q 1994 391 2212 530 
Q 2431 669 2431 922 
Q 2431 1156 2273 1281 
Q 2116 1406 1581 1522 
L 1381 1569 
Q 847 1681 609 1914 
Q 372 2147 372 2553 
Q 372 3047 722 3315 
Q 1072 3584 1716 3584 
Q 2034 3584 2315 3537 
Q 2597 3491 2834 3397 
z
" transform="scale(0.015625)"/>
      </defs>
      <use xlink:href="#DejaVuSans-55"/>
      <use xlink:href="#DejaVuSans-6e" x="73.193359"/>
      <use xlink:href="#DejaVuSans-63" x="136.572266"/>
      <use xlink:href="#DejaVuSans-65" x="191.552734"/>
      <use xlink:href="#DejaVuSans-72" x="253.076172"/>
      <use xlink:href="#DejaVuSans-74" x="294.189453"/>
      <use xlink:href="#DejaVuSans-61" x="333.398438"/>
      <use xlink:href="#DejaVuSans-69" x="394.677734"/>
      <use xlink:href="#DejaVuSans-6e" x="422.460938"/>
      <use xlink:href="#DejaVuSans-74" x="485.839844"/>
      <use xlink:href="#DejaVuSans-69" x="525.048828"/>
      <use xlink:href="#DejaVuSans-65" x="552.832031"/>
      <use xlink:href="#DejaVuSans-73" x="614.355469"/>
     </g>
    </g>
   </g>
   <g id="matplotlib.axis_2">
    <g id="ytick_1">
     <g id="line2d_7">
      <defs>
       <path id="mfc15162000" d="M 0 0 
L -3.5 0 
" style="stroke: #000000; stroke-width: 0.8"/>
      </defs>
      <g>
       <use xlink:href="#mfc15162000" x="83.72" y="439.473146" style="stroke: #000000; stroke-width: 0.8"/>
      </g>
     </g>
     <g id="text_8">
      <!-- 4 -->
      <g transform="translate(62.7225 447.831427) scale(0.22 -0.22)">
       <use xlink:href="#DejaVuSans-34"/>
      </g>
     </g>
    </g>
    <g id="ytick_2">
     <g id="line2d_8">
      <g>
       <use xlink:href="#mfc15162000" x="83.72" y="363.049662" style="stroke: #000000; stroke-width: 0.8"/>
      </g>
     </g>
     <g id="text_9">
      <!-- 6 -->
      <g transform="translate(62.7225 371.407943) scale(0.22 -0.22)">
       <use xlink:href="#DejaVuSans-36"/>
      </g>
     </g>
    </g>
    <g id="ytick_3">
     <g id="line2d_9">
      <g>
       <use xlink:href="#mfc15162000" x="83.72" y="286.626178" style="stroke: #000000; stroke-width: 0.8"/>
      </g>
     </g>
     <g id="text_10">
      <!-- 8 -->
      <g transform="translate(62.7225 294.984459) scale(0.22 -0.22)">
       <use xlink:href="#DejaVuSans-38"/>
      </g>
     </g>
    </g>
    <g id="ytick_4">
     <g id="line2d_10">
      <g>
       <use xlink:href="#mfc15162000" x="83.72" y="210.202694" style="stroke: #000000; stroke-width: 0.8"/>
      </g>
     </g>
     <g id="text_11">
      <!-- 10 -->
      <g transform="translate(48.725 218.560975) scale(0.22 -0.22)">
       <use xlink:href="#DejaVuSans-31"/>
       <use xlink:href="#DejaVuSans-30" x="63.623047"/>
      </g>
     </g>
    </g>
    <g id="ytick_5">
     <g id="line2d_11">
      <g>
       <use xlink:href="#mfc15162000" x="83.72" y="133.77921" style="stroke: #000000; stroke-width: 0.8"/>
      </g>
     </g>
     <g id="text_12">
      <!-- 12 -->
      <g transform="translate(48.725 142.137492) scale(0.22 -0.22)">
       <use xlink:href="#DejaVuSans-31"/>
       <use xlink:href="#DejaVuSans-32" x="63.623047"/>
      </g>
     </g>
    </g>
    <g id="ytick_6">
     <g id="line2d_12">
      <g>
       <use xlink:href="#mfc15162000" x="83.72" y="57.355726" style="stroke: #000000; stroke-width: 0.8"/>
      </g>
     </g>
     <g id="text_13">
      <!-- 14 -->
      <g transform="translate(48.725 65.714008) scale(0.22 -0.22)">
       <use xlink:href="#DejaVuSans-31"/>
       <use xlink:href="#DejaVuSans-34" x="63.623047"/>
      </g>
     </g>
    </g>
    <g id="text_14">
     <!-- Force Errors [kJ/(mol*A)] -->
     <g transform="translate(40.149688 394.9125) rotate(-90) scale(0.22 -0.22)">
      <defs>
       <path id="DejaVuSans-46" d="M 628 4666 
L 3309 4666 
L 3309 4134 
L 1259 4134 
L 1259 2759 
L 3109 2759 
L 3109 2228 
L 1259 2228 
L 1259 0 
L 628 0 
L 628 4666 
z
" transform="scale(0.015625)"/>
       <path id="DejaVuSans-6f" d="M 1959 3097 
Q 1497 3097 1228 2736 
Q 959 2375 959 1747 
Q 959 1119 1226 758 
Q 1494 397 1959 397 
Q 2419 397 2687 759 
Q 2956 1122 2956 1747 
Q 2956 2369 2687 2733 
Q 2419 3097 1959 3097 
z
M 1959 3584 
Q 2709 3584 3137 3096 
Q 3566 2609 3566 1747 
Q 3566 888 3137 398 
Q 2709 -91 1959 -91 
Q 1206 -91 779 398 
Q 353 888 353 1747 
Q 353 2609 779 3096 
Q 1206 3584 1959 3584 
z
" transform="scale(0.015625)"/>
       <path id="DejaVuSans-20" transform="scale(0.015625)"/>
       <path id="DejaVuSans-45" d="M 628 4666 
L 3578 4666 
L 3578 4134 
L 1259 4134 
L 1259 2753 
L 3481 2753 
L 3481 2222 
L 1259 2222 
L 1259 531 
L 3634 531 
L 3634 0 
L 628 0 
L 628 4666 
z
" transform="scale(0.015625)"/>
       <path id="DejaVuSans-5b" d="M 550 4863 
L 1875 4863 
L 1875 4416 
L 1125 4416 
L 1125 -397 
L 1875 -397 
L 1875 -844 
L 550 -844 
L 550 4863 
z
" transform="scale(0.015625)"/>
       <path id="DejaVuSans-6b" d="M 581 4863 
L 1159 4863 
L 1159 1991 
L 2875 3500 
L 3609 3500 
L 1753 1863 
L 3688 0 
L 2938 0 
L 1159 1709 
L 1159 0 
L 581 0 
L 581 4863 
z
" transform="scale(0.015625)"/>
       <path id="DejaVuSans-4a" d="M 628 4666 
L 1259 4666 
L 1259 325 
Q 1259 -519 939 -900 
Q 619 -1281 -91 -1281 
L -331 -1281 
L -331 -750 
L -134 -750 
Q 284 -750 456 -515 
Q 628 -281 628 325 
L 628 4666 
z
" transform="scale(0.015625)"/>
       <path id="DejaVuSans-2f" d="M 1625 4666 
L 2156 4666 
L 531 -594 
L 0 -594 
L 1625 4666 
z
" transform="scale(0.015625)"/>
       <path id="DejaVuSans-28" d="M 1984 4856 
Q 1566 4138 1362 3434 
Q 1159 2731 1159 2009 
Q 1159 1288 1364 580 
Q 1569 -128 1984 -844 
L 1484 -844 
Q 1016 -109 783 600 
Q 550 1309 550 2009 
Q 550 2706 781 3412 
Q 1013 4119 1484 4856 
L 1984 4856 
z
" transform="scale(0.015625)"/>
       <path id="DejaVuSans-6d" d="M 3328 2828 
Q 3544 3216 3844 3400 
Q 4144 3584 4550 3584 
Q 5097 3584 5394 3201 
Q 5691 2819 5691 2113 
L 5691 0 
L 5113 0 
L 5113 2094 
Q 5113 2597 4934 2840 
Q 4756 3084 4391 3084 
Q 3944 3084 3684 2787 
Q 3425 2491 3425 1978 
L 3425 0 
L 2847 0 
L 2847 2094 
Q 2847 2600 2669 2842 
Q 2491 3084 2119 3084 
Q 1678 3084 1418 2786 
Q 1159 2488 1159 1978 
L 1159 0 
L 581 0 
L 581 3500 
L 1159 3500 
L 1159 2956 
Q 1356 3278 1631 3431 
Q 1906 3584 2284 3584 
Q 2666 3584 2933 3390 
Q 3200 3197 3328 2828 
z
" transform="scale(0.015625)"/>
       <path id="DejaVuSans-6c" d="M 603 4863 
L 1178 4863 
L 1178 0 
L 603 0 
L 603 4863 
z
" transform="scale(0.015625)"/>
       <path id="DejaVuSans-2a" d="M 3009 3897 
L 1888 3291 
L 3009 2681 
L 2828 2375 
L 1778 3009 
L 1778 1831 
L 1422 1831 
L 1422 3009 
L 372 2375 
L 191 2681 
L 1313 3291 
L 191 3897 
L 372 4206 
L 1422 3572 
L 1422 4750 
L 1778 4750 
L 1778 3572 
L 2828 4206 
L 3009 3897 
z
" transform="scale(0.015625)"/>
       <path id="DejaVuSans-41" d="M 2188 4044 
L 1331 1722 
L 3047 1722 
L 2188 4044 
z
M 1831 4666 
L 2547 4666 
L 4325 0 
L 3669 0 
L 3244 1197 
L 1141 1197 
L 716 0 
L 50 0 
L 1831 4666 
z
" transform="scale(0.015625)"/>
       <path id="DejaVuSans-29" d="M 513 4856 
L 1013 4856 
Q 1481 4119 1714 3412 
Q 1947 2706 1947 2009 
Q 1947 1309 1714 600 
Q 1481 -109 1013 -844 
L 513 -844 
Q 928 -128 1133 580 
Q 1338 1288 1338 2009 
Q 1338 2731 1133 3434 
Q 928 4138 513 4856 
z
" transform="scale(0.015625)"/>
       <path id="DejaVuSans-5d" d="M 1947 4863 
L 1947 -844 
L 622 -844 
L 622 -397 
L 1369 -397 
L 1369 4416 
L 622 4416 
L 622 4863 
L 1947 4863 
z
" transform="scale(0.015625)"/>
      </defs>
      <use xlink:href="#DejaVuSans-46"/>
      <use xlink:href="#DejaVuSans-6f" x="53.894531"/>
      <use xlink:href="#DejaVuSans-72" x="115.076172"/>
      <use xlink:href="#DejaVuSans-63" x="153.939453"/>
      <use xlink:href="#DejaVuSans-65" x="208.919922"/>
      <use xlink:href="#DejaVuSans-20" x="270.443359"/>
      <use xlink:href="#DejaVuSans-45" x="302.230469"/>
      <use xlink:href="#DejaVuSans-72" x="365.414062"/>
      <use xlink:href="#DejaVuSans-72" x="404.777344"/>
      <use xlink:href="#DejaVuSans-6f" x="443.640625"/>
      <use xlink:href="#DejaVuSans-72" x="504.822266"/>
      <use xlink:href="#DejaVuSans-73" x="545.935547"/>
      <use xlink:href="#DejaVuSans-20" x="598.035156"/>
      <use xlink:href="#DejaVuSans-5b" x="629.822266"/>
      <use xlink:href="#DejaVuSans-6b" x="668.835938"/>
      <use xlink:href="#DejaVuSans-4a" x="726.746094"/>
      <use xlink:href="#DejaVuSans-2f" x="756.238281"/>
      <use xlink:href="#DejaVuSans-28" x="789.929688"/>
      <use xlink:href="#DejaVuSans-6d" x="828.943359"/>
      <use xlink:href="#DejaVuSans-6f" x="926.355469"/>
      <use xlink:href="#DejaVuSans-6c" x="987.537109"/>
      <use xlink:href="#DejaVuSans-2a" x="1015.320312"/>
      <use xlink:href="#DejaVuSans-41" x="1065.320312"/>
      <use xlink:href="#DejaVuSans-29" x="1133.728516"/>
      <use xlink:href="#DejaVuSans-5d" x="1172.742188"/>
     </g>
    </g>
   </g>
   <g id="line2d_13">
    <path d="M 662.559235 405.575501 
L 410.713592 444.412362 
L 696.24 400.381632 
L 593.386514 416.242564 
" clip-path="url(#pb8e478ca52)" style="fill: none; stroke: #ff0000; stroke-width: 1.5; stroke-linecap: square"/>
   </g>
   <g id="patch_3">
    <path d="M 83.72 499.48 
L 83.72 23.76 
" style="fill: none; stroke: #000000; stroke-width: 0.8; stroke-linejoin: miter; stroke-linecap: square"/>
   </g>
   <g id="patch_4">
    <path d="M 696.24 499.48 
L 696.24 23.76 
" style="fill: none; stroke: #000000; stroke-width: 0.8; stroke-linejoin: miter; stroke-linecap: square"/>
   </g>
   <g id="patch_5">
    <path d="M 83.72 499.48 
L 696.24 499.48 
" style="fill: none; stroke: #000000; stroke-width: 0.8; stroke-linejoin: miter; stroke-linecap: square"/>
   </g>
   <g id="patch_6">
    <path d="M 83.72 23.76 
L 696.24 23.76 
" style="fill: none; stroke: #000000; stroke-width: 0.8; stroke-linejoin: miter; stroke-linecap: square"/>
   </g>
   <g id="legend_1">
    <g id="patch_7">
     <path d="M 400.855625 105.94375 
L 680.84 105.94375 
Q 685.24 105.94375 685.24 101.54375 
L 685.24 39.16 
Q 685.24 34.76 680.84 34.76 
L 400.855625 34.76 
Q 396.455625 34.76 396.455625 39.16 
L 396.455625 101.54375 
Q 396.455625 105.94375 400.855625 105.94375 
z
" style="fill: #ffffff; opacity: 0.8; stroke: #cccccc; stroke-linejoin: miter"/>
    </g>
    <g id="PathCollection_2">
     <g>
      <use xlink:href="#mdd2de959d0" x="427.255625" y="54.501562" style="fill: #1f77b4; stroke: #1f77b4"/>
     </g>
    </g>
    <g id="text_15">
     <!-- Validation Samples -->
     <g transform="translate(466.855625 60.276562) scale(0.22 -0.22)">
      <defs>
       <path id="DejaVuSans-56" d="M 1831 0 
L 50 4666 
L 709 4666 
L 2188 738 
L 3669 4666 
L 4325 4666 
L 2547 0 
L 1831 0 
z
" transform="scale(0.015625)"/>
       <path id="DejaVuSans-64" d="M 2906 2969 
L 2906 4863 
L 3481 4863 
L 3481 0 
L 2906 0 
L 2906 525 
Q 2725 213 2448 61 
Q 2172 -91 1784 -91 
Q 1150 -91 751 415 
Q 353 922 353 1747 
Q 353 2572 751 3078 
Q 1150 3584 1784 3584 
Q 2172 3584 2448 3432 
Q 2725 3281 2906 2969 
z
M 947 1747 
Q 947 1113 1208 752 
Q 1469 391 1925 391 
Q 2381 391 2643 752 
Q 2906 1113 2906 1747 
Q 2906 2381 2643 2742 
Q 2381 3103 1925 3103 
Q 1469 3103 1208 2742 
Q 947 2381 947 1747 
z
" transform="scale(0.015625)"/>
       <path id="DejaVuSans-53" d="M 3425 4513 
L 3425 3897 
Q 3066 4069 2747 4153 
Q 2428 4238 2131 4238 
Q 1616 4238 1336 4038 
Q 1056 3838 1056 3469 
Q 1056 3159 1242 3001 
Q 1428 2844 1947 2747 
L 2328 2669 
Q 3034 2534 3370 2195 
Q 3706 1856 3706 1288 
Q 3706 609 3251 259 
Q 2797 -91 1919 -91 
Q 1588 -91 1214 -16 
Q 841 59 441 206 
L 441 856 
Q 825 641 1194 531 
Q 1563 422 1919 422 
Q 2459 422 2753 634 
Q 3047 847 3047 1241 
Q 3047 1584 2836 1778 
Q 2625 1972 2144 2069 
L 1759 2144 
Q 1053 2284 737 2584 
Q 422 2884 422 3419 
Q 422 4038 858 4394 
Q 1294 4750 2059 4750 
Q 2388 4750 2728 4690 
Q 3069 4631 3425 4513 
z
" transform="scale(0.015625)"/>
       <path id="DejaVuSans-70" d="M 1159 525 
L 1159 -1331 
L 581 -1331 
L 581 3500 
L 1159 3500 
L 1159 2969 
Q 1341 3281 1617 3432 
Q 1894 3584 2278 3584 
Q 2916 3584 3314 3078 
Q 3713 2572 3713 1747 
Q 3713 922 3314 415 
Q 2916 -91 2278 -91 
Q 1894 -91 1617 61 
Q 1341 213 1159 525 
z
M 3116 1747 
Q 3116 2381 2855 2742 
Q 2594 3103 2138 3103 
Q 1681 3103 1420 2742 
Q 1159 2381 1159 1747 
Q 1159 1113 1420 752 
Q 1681 391 2138 391 
Q 2594 391 2855 752 
Q 3116 1113 3116 1747 
z
" transform="scale(0.015625)"/>
      </defs>
      <use xlink:href="#DejaVuSans-56"/>
      <use xlink:href="#DejaVuSans-61" x="60.658203"/>
      <use xlink:href="#DejaVuSans-6c" x="121.9375"/>
      <use xlink:href="#DejaVuSans-69" x="149.720703"/>
      <use xlink:href="#DejaVuSans-64" x="177.503906"/>
      <use xlink:href="#DejaVuSans-61" x="240.980469"/>
      <use xlink:href="#DejaVuSans-74" x="302.259766"/>
      <use xlink:href="#DejaVuSans-69" x="341.46875"/>
      <use xlink:href="#DejaVuSans-6f" x="369.251953"/>
      <use xlink:href="#DejaVuSans-6e" x="430.433594"/>
      <use xlink:href="#DejaVuSans-20" x="493.8125"/>
      <use xlink:href="#DejaVuSans-53" x="525.599609"/>
      <use xlink:href="#DejaVuSans-61" x="589.076172"/>
      <use xlink:href="#DejaVuSans-6d" x="650.355469"/>
      <use xlink:href="#DejaVuSans-70" x="747.767578"/>
      <use xlink:href="#DejaVuSans-6c" x="811.244141"/>
      <use xlink:href="#DejaVuSans-65" x="839.027344"/>
      <use xlink:href="#DejaVuSans-73" x="900.550781"/>
     </g>
    </g>
    <g id="line2d_14">
     <path d="M 405.255625 84.868437 
L 427.255625 84.868437 
L 449.255625 84.868437 
" style="fill: none; stroke: #ff0000; stroke-width: 1.5; stroke-linecap: square"/>
    </g>
    <g id="text_16">
     <!-- Regression Line -->
     <g transform="translate(466.855625 92.568437) scale(0.22 -0.22)">
      <defs>
       <path id="DejaVuSans-52" d="M 2841 2188 
Q 3044 2119 3236 1894 
Q 3428 1669 3622 1275 
L 4263 0 
L 3584 0 
L 2988 1197 
Q 2756 1666 2539 1819 
Q 2322 1972 1947 1972 
L 1259 1972 
L 1259 0 
L 628 0 
L 628 4666 
L 2053 4666 
Q 2853 4666 3247 4331 
Q 3641 3997 3641 3322 
Q 3641 2881 3436 2590 
Q 3231 2300 2841 2188 
z
M 1259 4147 
L 1259 2491 
L 2053 2491 
Q 2509 2491 2742 2702 
Q 2975 2913 2975 3322 
Q 2975 3731 2742 3939 
Q 2509 4147 2053 4147 
L 1259 4147 
z
" transform="scale(0.015625)"/>
       <path id="DejaVuSans-67" d="M 2906 1791 
Q 2906 2416 2648 2759 
Q 2391 3103 1925 3103 
Q 1463 3103 1205 2759 
Q 947 2416 947 1791 
Q 947 1169 1205 825 
Q 1463 481 1925 481 
Q 2391 481 2648 825 
Q 2906 1169 2906 1791 
z
M 3481 434 
Q 3481 -459 3084 -895 
Q 2688 -1331 1869 -1331 
Q 1566 -1331 1297 -1286 
Q 1028 -1241 775 -1147 
L 775 -588 
Q 1028 -725 1275 -790 
Q 1522 -856 1778 -856 
Q 2344 -856 2625 -561 
Q 2906 -266 2906 331 
L 2906 616 
Q 2728 306 2450 153 
Q 2172 0 1784 0 
Q 1141 0 747 490 
Q 353 981 353 1791 
Q 353 2603 747 3093 
Q 1141 3584 1784 3584 
Q 2172 3584 2450 3431 
Q 2728 3278 2906 2969 
L 2906 3500 
L 3481 3500 
L 3481 434 
z
" transform="scale(0.015625)"/>
       <path id="DejaVuSans-4c" d="M 628 4666 
L 1259 4666 
L 1259 531 
L 3531 531 
L 3531 0 
L 628 0 
L 628 4666 
z
" transform="scale(0.015625)"/>
      </defs>
      <use xlink:href="#DejaVuSans-52"/>
      <use xlink:href="#DejaVuSans-65" x="64.982422"/>
      <use xlink:href="#DejaVuSans-67" x="126.505859"/>
      <use xlink:href="#DejaVuSans-72" x="189.982422"/>
      <use xlink:href="#DejaVuSans-65" x="228.845703"/>
      <use xlink:href="#DejaVuSans-73" x="290.369141"/>
      <use xlink:href="#DejaVuSans-73" x="342.46875"/>
      <use xlink:href="#DejaVuSans-69" x="394.568359"/>
      <use xlink:href="#DejaVuSans-6f" x="422.351562"/>
      <use xlink:href="#DejaVuSans-6e" x="483.533203"/>
      <use xlink:href="#DejaVuSans-20" x="546.912109"/>
      <use xlink:href="#DejaVuSans-4c" x="578.699219"/>
      <use xlink:href="#DejaVuSans-69" x="634.412109"/>
      <use xlink:href="#DejaVuSans-6e" x="662.195312"/>
      <use xlink:href="#DejaVuSans-65" x="725.574219"/>
     </g>
    </g>
   </g>
  </g>
 </g>
 <defs>
  <clipPath id="pb8e478ca52">
   <rect x="83.72" y="23.76" width="612.52" height="475.72"/>
  </clipPath>
 </defs>
</svg>
