<?xml version="1.0" encoding="utf-8" standalone="no"?>
<!DOCTYPE svg PUBLIC "-//W3C//DTD SVG 1.1//EN"
  "http://www.w3.org/Graphics/SVG/1.1/DTD/svg11.dtd">
<svg xmlns:xlink="http://www.w3.org/1999/xlink" width="720pt" height="576pt" viewBox="0 0 720 576" xmlns="http://www.w3.org/2000/svg" version="1.1">
 <metadata>
  <rdf:RDF xmlns:dc="http://purl.org/dc/elements/1.1/" xmlns:cc="http://creativecommons.org/ns#" xmlns:rdf="http://www.w3.org/1999/02/22-rdf-syntax-ns#">
   <cc:Work>
    <dc:type rdf:resource="http://purl.org/dc/dcmitype/StillImage"/>
    <dc:date>2024-12-09T01:54:47.185698</dc:date>
    <dc:format>image/svg+xml</dc:format>
    <dc:creator>
     <cc:Agent>
      <dc:title>Matplotlib v3.8.4, https://matplotlib.org/</dc:title>
     </cc:Agent>
    </dc:creator>
   </cc:Work>
  </rdf:RDF>
 </metadata>
 <defs>
  <style type="text/css">*{stroke-linejoin: round; stroke-linecap: butt}</style>
 </defs>
 <g id="figure_1">
  <g id="patch_1">
   <path d="M 0 576 
L 720 576 
L 720 0 
L 0 0 
z
" style="fill: #ffffff"/>
  </g>
  <g id="axes_1">
   <g id="patch_2">
    <path d="M 69.68 499.48 
L 696.24 499.48 
L 696.24 23.76 
L 69.68 23.76 
z
" style="fill: #ffffff"/>
   </g>
   <g id="QuadContourSet_1">
    <path d="M 183.503058 524.600054 
L 188.16325 525.560318 
L 192.823442 526.095017 
L 197.483634 526.229359 
L 202.143825 525.968682 
L 206.804017 525.297867 
L 211.464209 524.1789 
L 213.654032 523.440364 
L 216.124401 522.699522 
L 220.784593 520.845934 
L 223.432987 519.510865 
L 225.444784 518.573557 
L 230.104976 515.903039 
L 230.597684 515.581366 
L 234.765168 512.979959 
L 236.612857 511.651867 
L 239.42536 509.68911 
L 241.95413 507.722368 
L 244.085552 506.091243 
L 246.857546 503.79287 
L 248.745744 502.234529 
L 251.462391 499.863371 
L 253.405935 498.157988 
L 255.852141 495.933872 
L 258.066127 493.89256 
L 260.076375 492.004373 
L 262.726319 489.460403 
L 264.162816 488.074874 
L 267.386511 484.87304 
L 268.123949 484.145375 
L 271.976321 480.215877 
L 272.046703 480.143731 
L 275.862753 476.286378 
L 276.706894 475.393265 
L 279.640204 472.356879 
L 281.367086 470.468047 
L 283.288456 468.42738 
L 286.027278 465.321118 
L 286.780804 464.497881 
L 290.20749 460.568383 
L 290.68747 459.993767 
L 293.622202 456.638884 
L 295.347662 454.476078 
L 296.840387 452.709385 
L 299.858307 448.779886 
L 300.007854 448.578996 
L 302.98903 444.850387 
L 304.668045 442.482572 
L 305.875548 440.920888 
L 308.660569 436.99139 
L 309.328237 435.981305 
L 311.471344 433.061891 
L 313.98086 429.132392 
L 313.988429 429.120196 
L 316.740706 425.202893 
L 318.648621 422.069053 
L 319.205647 421.273394 
L 321.815107 417.343896 
L 323.308813 414.825109 
L 324.285762 413.414397 
L 326.823908 409.484898 
L 327.969004 407.551375 
L 329.363353 405.555399 
L 331.891071 401.6259 
L 332.629196 400.405548 
L 334.566142 397.696401 
L 337.116328 393.766903 
L 337.289388 393.490023 
L 339.96784 389.837404 
L 341.94958 386.864992 
L 342.684937 385.907905 
L 345.538201 381.978406 
L 346.609772 380.390532 
L 348.389869 378.048907 
L 351.121553 374.119409 
L 351.269964 373.893833 
L 353.950566 370.18991 
L 355.930155 367.160101 
L 356.563405 366.260411 
L 359.129557 362.330912 
L 360.590347 359.861433 
L 361.509284 358.401413 
L 363.771979 354.471914 
L 365.250539 351.629411 
L 365.849285 350.542416 
L 367.829461 346.612917 
L 369.615215 342.683418 
L 369.910731 341.97494 
L 371.333862 338.753919 
L 372.913749 334.82442 
L 374.373454 330.894922 
L 374.570923 330.318636 
L 375.783507 326.965423 
L 377.099782 323.035924 
L 378.341629 319.106425 
L 379.231115 316.139713 
L 379.531339 315.176926 
L 380.650305 311.247427 
L 381.695193 307.317929 
L 382.667475 303.38843 
L 383.558159 299.458931 
L 383.891306 297.711825 
L 384.298917 295.529432 
L 384.840549 291.599933 
L 385.156599 287.670435 
L 385.174046 283.740936 
L 384.79035 279.811437 
L 383.891306 275.982438 
L 383.855135 275.881938 
L 381.436728 271.952439 
L 379.231115 269.725211 
L 374.570923 268.086151 
L 369.910731 268.440315 
L 365.250539 269.894917 
L 360.590347 271.908958 
L 360.498 271.952439 
L 355.930155 273.91902 
L 351.269964 275.510125 
L 348.836144 275.881938 
L 346.609772 276.182529 
L 344.56468 275.881938 
L 341.94958 275.444726 
L 337.289388 272.412146 
L 336.934236 271.952439 
L 334.625136 268.02294 
L 333.13548 264.093442 
L 332.629196 261.385314 
L 332.483471 260.163943 
L 332.429912 256.234444 
L 332.629196 253.755116 
L 332.787618 252.304945 
L 333.627783 248.375446 
L 334.763864 244.445948 
L 336.124319 240.516449 
L 337.289388 237.564756 
L 337.779222 236.58695 
L 339.918494 232.657451 
L 341.94958 229.022281 
L 342.147182 228.727952 
L 344.862643 224.798453 
L 346.609772 222.214479 
L 347.617125 220.868955 
L 350.44937 216.939456 
L 351.269964 215.748938 
L 353.204439 213.009957 
L 355.706593 209.080458 
L 355.930155 208.703975 
L 357.999344 205.150959 
L 359.971359 201.221461 
L 360.590347 199.821153 
L 361.681384 197.291962 
L 363.118602 193.362463 
L 364.286631 189.432964 
L 365.203474 185.503465 
L 365.250539 185.237246 
L 365.908802 181.573966 
L 366.382783 177.644468 
L 366.634354 173.714969 
L 366.673146 169.78547 
L 366.508696 165.855971 
L 366.151231 161.926472 
L 365.612184 157.996974 
L 365.250539 155.972063 
L 364.936286 154.067475 
L 364.166856 150.137976 
L 363.294089 146.208477 
L 362.336872 142.278978 
L 361.312362 138.349479 
L 360.590347 135.701258 
L 360.274033 134.419981 
L 359.285048 130.490482 
L 358.272486 126.560983 
L 357.232589 122.631484 
L 356.15544 118.701985 
L 355.930155 117.901165 
L 355.089277 114.772487 
L 353.958363 110.842988 
L 352.711158 106.913489 
L 351.303468 102.98399 
L 351.269964 102.898168 
L 349.651006 99.054491 
L 347.665539 95.124992 
L 346.609772 93.330708 
L 345.05363 91.195494 
L 341.94958 87.675187 
L 341.416654 87.265995 
L 337.289388 84.524268 
L 333.469786 83.336496 
L 332.629196 83.097724 
L 327.969004 82.984748 
L 326.314311 83.336496 
L 323.308813 83.935821 
L 318.648621 85.774061 
L 316.017831 87.265995 
L 313.988429 88.372349 
L 309.89906 91.195494 
L 309.328237 91.576076 
L 304.759843 95.124992 
L 304.668045 95.193868 
L 300.007854 99.009157 
L 299.954178 99.054491 
L 295.347662 102.796939 
L 295.113132 102.98399 
L 290.68747 106.346899 
L 289.888607 106.913489 
L 286.027278 109.497095 
L 283.746546 110.842988 
L 281.367086 112.156639 
L 276.706894 114.254576 
L 275.116904 114.772487 
L 272.046703 115.695145 
L 267.386511 116.471725 
L 262.726319 116.575396 
L 258.066127 116.011128 
L 253.405935 114.869997 
L 253.124935 114.772487 
L 248.745744 113.192748 
L 244.085552 111.330525 
L 242.892826 110.842988 
L 239.42536 109.392235 
L 234.765168 107.666625 
L 232.262124 106.913489 
L 230.104976 106.234948 
L 225.444784 105.164987 
L 220.784593 104.552861 
L 216.124401 104.386432 
L 211.464209 104.654828 
L 206.804017 105.358231 
L 202.143825 106.513292 
L 200.956499 106.913489 
L 197.483634 107.983298 
L 192.823442 109.850537 
L 190.763451 110.842988 
L 188.16325 112.04048 
L 183.503058 114.576464 
L 183.164915 114.772487 
L 178.842866 117.268817 
L 176.536887 118.701985 
L 174.182674 120.195088 
L 170.437477 122.631484 
L 169.522483 123.252748 
L 164.862291 126.307279 
L 164.423717 126.560983 
L 160.202099 129.193933 
L 157.811452 130.490482 
L 155.541907 131.844582 
L 150.881715 134.078995 
L 149.74985 134.419981 
L 146.221523 135.628128 
L 141.561332 136.360567 
L 136.90114 136.099126 
L 132.240948 134.821144 
L 131.11437 134.419981 
L 127.580756 132.768353 
L 122.920564 130.713573 
L 120.869518 130.490482 
L 118.260373 130.068796 
L 117.662639 130.490482 
L 113.90283 134.419981 
L 113.600181 134.879048 
L 112.539961 138.349479 
L 111.572237 142.278978 
L 110.788479 146.208477 
L 110.139004 150.137976 
L 109.580196 154.067475 
L 109.068021 157.996974 
L 108.939989 158.925966 
L 108.602137 161.926472 
L 108.088781 165.855971 
L 107.468647 169.78547 
L 106.70755 173.714969 
L 105.783559 177.644468 
L 104.690386 181.573966 
L 104.279797 182.802344 
L 103.425002 185.503465 
L 101.97965 189.432964 
L 100.389193 193.362463 
L 99.619605 195.086565 
L 98.651709 197.291962 
L 96.797204 201.221461 
L 94.959413 205.051609 
L 94.911711 205.150959 
L 92.916951 209.080458 
L 90.980723 213.009957 
L 90.299222 214.409825 
L 89.047205 216.939456 
L 87.191282 220.868955 
L 85.63903 224.446698 
L 85.481447 224.798453 
L 83.802059 228.727952 
L 82.312779 232.657451 
L 81.013891 236.58695 
L 80.978838 236.703829 
L 79.760033 240.516449 
L 78.685973 244.445948 
L 77.781961 248.375446 
L 77.031788 252.304945 
L 76.417746 256.234444 
L 76.318646 256.989765 
L 75.850209 260.163943 
L 75.373893 264.093442 
L 74.986337 268.02294 
L 74.669245 271.952439 
L 74.405748 275.881938 
L 74.180749 279.811437 
L 73.981116 283.740936 
L 73.795718 287.670435 
L 73.615318 291.599933 
L 73.432379 295.529432 
L 73.240831 299.458931 
L 73.035881 303.38843 
L 72.813879 307.317929 
L 72.572289 311.247427 
L 72.309752 315.176926 
L 72.026214 319.106425 
L 71.723082 323.035924 
L 71.658454 323.819164 
L 71.338178 326.965423 
L 70.924035 330.894922 
L 70.505431 334.82442 
L 70.091834 338.753919 
L 69.693779 342.683418 
L 69.322465 346.612917 
L 68.989347 350.542416 
L 68.705793 354.471914 
L 68.482809 358.401413 
L 68.330846 362.330912 
L 68.259676 366.260411 
L 68.278296 370.18991 
L 68.39484 374.119409 
L 68.616461 378.048907 
L 68.949174 381.978406 
L 69.39765 385.907905 
L 69.965002 389.837404 
L 70.652588 393.766903 
L 71.459908 397.696401 
L 71.658454 398.565705 
L 72.224592 401.6259 
L 73.023917 405.555399 
L 73.895284 409.484898 
L 74.834487 413.414397 
L 75.839405 417.343896 
L 76.318646 419.14287 
L 76.770487 421.273394 
L 77.638848 425.202893 
L 78.566954 429.132392 
L 79.56994 433.061891 
L 80.668492 436.99139 
L 80.978838 438.038405 
L 81.687405 440.920888 
L 82.76577 444.850387 
L 84.010502 448.779886 
L 85.468163 452.709385 
L 85.63903 453.133384 
L 86.909193 456.638884 
L 88.618533 460.568383 
L 90.299222 463.795804 
L 90.650658 464.497881 
L 92.868848 468.42738 
L 94.959413 471.471802 
L 95.585386 472.356879 
L 98.759378 476.286378 
L 99.619605 477.231715 
L 102.606679 480.215877 
L 104.279797 481.717224 
L 107.376571 484.145375 
L 108.939989 485.298504 
L 113.350789 488.074874 
L 113.600181 488.22893 
L 118.260373 490.857832 
L 120.561481 492.004373 
L 122.920564 493.219679 
L 127.580756 495.47578 
L 128.517185 495.933872 
L 132.240948 497.86761 
L 136.117203 499.863371 
L 136.90114 500.294537 
L 141.561332 502.979311 
L 142.945972 503.79287 
L 146.221523 505.829963 
L 149.31818 507.722368 
L 150.881715 508.728648 
L 155.541907 511.594313 
L 155.639143 511.651867 
L 160.202099 514.489296 
L 162.187111 515.581366 
L 164.862291 517.137449 
L 169.522483 519.434392 
L 169.702076 519.510865 
L 174.182674 521.574853 
L 178.842866 523.213779 
L 179.679177 523.440364 
z
M 179.885146 492.004373 
L 178.842866 491.672004 
L 174.182674 489.795458 
L 170.72661 488.074874 
L 169.522483 487.503073 
L 164.862291 484.96415 
L 163.501176 484.145375 
L 160.202099 482.222914 
L 157.017543 480.215877 
L 155.541907 479.309695 
L 150.881715 476.319163 
L 150.830217 476.286378 
L 146.221523 473.414042 
L 144.549268 472.356879 
L 141.561332 470.491285 
L 138.323176 468.42738 
L 136.90114 467.518923 
L 132.360094 464.497881 
L 132.240948 464.416683 
L 127.580756 461.089352 
L 126.908167 460.568383 
L 122.920564 457.250707 
L 122.250352 456.638884 
L 118.378295 452.709385 
L 118.260373 452.576355 
L 115.128382 448.779886 
L 113.600181 446.580871 
L 112.449074 444.850387 
L 110.197597 440.920888 
L 108.939989 438.288954 
L 108.314544 436.99139 
L 106.659821 433.061891 
L 105.296299 429.132392 
L 104.279797 425.618057 
L 104.149747 425.202893 
L 103.057496 421.273394 
L 102.135256 417.343896 
L 101.353122 413.414397 
L 100.687432 409.484898 
L 100.119678 405.555399 
L 99.635664 401.6259 
L 99.619605 401.473701 
L 99.144369 397.696401 
L 98.729259 393.766903 
L 98.388503 389.837404 
L 98.119152 385.907905 
L 97.919828 381.978406 
L 97.790102 378.048907 
L 97.729865 374.119409 
L 97.738703 370.18991 
L 97.815313 366.260411 
L 97.957025 362.330912 
L 98.15947 358.401413 
L 98.416469 354.471914 
L 98.720182 350.542416 
L 99.061535 346.612917 
L 99.430907 342.683418 
L 99.619605 340.757619 
L 99.796048 338.753919 
L 100.151429 334.82442 
L 100.514071 330.894922 
L 100.88085 326.965423 
L 101.251601 323.035924 
L 101.629316 319.106425 
L 102.02002 315.176926 
L 102.432406 311.247427 
L 102.877336 307.317929 
L 103.367321 303.38843 
L 103.916092 299.458931 
L 104.279797 297.141128 
L 104.516458 295.529432 
L 105.166075 291.599933 
L 105.909116 287.670435 
L 106.760382 283.740936 
L 107.736058 279.811437 
L 108.85412 275.881938 
L 108.939989 275.606407 
L 110.039286 271.952439 
L 111.379981 268.02294 
L 112.904542 264.093442 
L 113.600181 262.45935 
L 114.561842 260.163943 
L 116.375732 256.234444 
L 118.260373 252.594195 
L 118.409674 252.304945 
L 120.550507 248.375446 
L 122.920564 244.471646 
L 122.936248 244.445948 
L 125.420893 240.516449 
L 127.580756 237.368197 
L 128.121477 236.58695 
L 130.931403 232.657451 
L 132.240948 230.90395 
L 133.878657 228.727952 
L 136.90114 224.85602 
L 136.946553 224.798453 
L 140.03205 220.868955 
L 141.561332 218.952549 
L 143.171478 216.939456 
L 146.221523 213.127934 
L 146.316151 213.009957 
L 149.378793 209.080458 
L 150.881715 207.126271 
L 152.386246 205.150959 
L 155.299898 201.221461 
L 155.541907 200.886323 
L 158.08823 197.291962 
L 160.202099 194.233467 
L 160.79721 193.362463 
L 163.408376 189.432964 
L 164.862291 187.222764 
L 165.986831 185.503465 
L 168.54552 181.573966 
L 169.522483 180.096743 
L 171.163654 177.644468 
L 173.861456 173.714969 
L 174.182674 173.265098 
L 176.770876 169.78547 
L 178.842866 167.136744 
L 179.930698 165.855971 
L 183.453054 161.926472 
L 183.503058 161.873677 
L 187.688472 157.996974 
L 188.16325 157.580058 
L 192.823442 154.212536 
L 193.092646 154.067475 
L 197.483634 151.780743 
L 202.143825 150.226539 
L 202.834806 150.137976 
L 206.804017 149.634079 
L 211.464209 150.024821 
L 211.851241 150.137976 
L 216.124401 151.559331 
L 220.431227 154.067475 
L 220.784593 154.311011 
L 224.870149 157.996974 
L 225.444784 158.626711 
L 228.151736 161.926472 
L 230.104976 164.841225 
L 230.795145 165.855971 
L 233.015934 169.78547 
L 234.765168 173.606384 
L 234.822382 173.714969 
L 236.481065 177.644468 
L 237.785145 181.573966 
L 238.758677 185.503465 
L 239.42536 189.432964 
L 239.42536 189.432964 
L 239.9389 193.362463 
L 240.154049 197.291962 
L 240.134123 201.221461 
L 239.977598 205.150959 
L 239.830261 209.080458 
L 239.896821 213.009957 
L 240.44854 216.939456 
L 241.821091 220.868955 
L 244.085552 224.348342 
L 244.805324 224.798453 
L 248.745744 226.37955 
L 253.405935 226.348697 
L 258.066127 225.417501 
L 260.874559 224.798453 
L 262.726319 224.306166 
L 267.386511 223.793513 
L 272.046703 224.748878 
L 272.120542 224.798453 
L 276.706894 227.728212 
L 277.482591 228.727952 
L 280.475985 232.657451 
L 281.367086 233.875297 
L 282.617564 236.58695 
L 284.334615 240.516449 
L 285.916318 244.445948 
L 286.027278 244.711731 
L 287.179757 248.375446 
L 288.413382 252.304945 
L 289.654958 256.234444 
L 290.68747 259.39303 
L 290.904193 260.163943 
L 292.144157 264.093442 
L 293.44439 268.02294 
L 294.793961 271.952439 
L 295.347662 273.451955 
L 296.21098 275.881938 
L 297.689206 279.811437 
L 299.184961 283.740936 
L 300.007854 285.849318 
L 300.745743 287.670435 
L 302.377521 291.599933 
L 303.964965 295.529432 
L 304.668045 297.289828 
L 305.624497 299.458931 
L 307.31201 303.38843 
L 308.887443 307.317929 
L 309.328237 308.471205 
L 310.555508 311.247427 
L 312.151563 315.176926 
L 313.568335 319.106425 
L 313.988429 320.406876 
L 314.998289 323.035924 
L 316.290438 326.965423 
L 317.342735 330.894922 
L 318.160863 334.82442 
L 318.648621 338.041387 
L 318.778367 338.753919 
L 319.243505 342.683418 
L 319.45053 346.612917 
L 319.414211 350.542416 
L 319.147049 354.471914 
L 318.658431 358.401413 
L 318.648621 358.455921 
L 318.084807 362.330912 
L 317.339579 366.260411 
L 316.419194 370.18991 
L 315.317514 374.119409 
L 314.023161 378.048907 
L 313.988429 378.142666 
L 312.791785 381.978406 
L 311.384128 385.907905 
L 309.770601 389.837404 
L 309.328237 390.817398 
L 308.173966 393.766903 
L 306.442111 397.696401 
L 304.668045 401.237196 
L 304.495022 401.6259 
L 302.613225 405.555399 
L 300.455413 409.484898 
L 300.007854 410.244879 
L 298.304372 413.414397 
L 295.913412 417.343896 
L 295.347662 418.213355 
L 293.49238 421.273394 
L 290.797458 425.202893 
L 290.68747 425.356516 
L 288.123279 429.132392 
L 286.027278 431.901413 
L 285.182904 433.061891 
L 282.122712 436.99139 
L 281.367086 437.909347 
L 278.954965 440.920888 
L 276.706894 443.519739 
L 275.576326 444.850387 
L 272.046703 448.74432 
L 272.014767 448.779886 
L 268.414054 452.709385 
L 267.386511 453.777257 
L 264.634668 456.638884 
L 262.726319 458.545331 
L 260.683169 460.568383 
L 258.066127 463.080924 
L 256.56007 464.497881 
L 253.405935 467.400928 
L 252.251984 468.42738 
L 248.745744 471.505815 
L 247.725517 472.356879 
L 244.085552 475.38215 
L 242.916538 476.286378 
L 239.42536 479.004267 
L 237.710959 480.215877 
L 234.765168 482.334783 
L 231.908674 484.145375 
L 230.104976 485.323574 
L 225.444784 487.926583 
L 225.13215 488.074874 
L 220.784593 490.255436 
L 216.272492 492.004373 
L 216.124401 492.066086 
L 211.464209 493.585844 
L 206.804017 494.61402 
L 202.143825 495.192546 
L 197.483634 495.345094 
L 192.823442 495.079108 
L 188.16325 494.386974 
L 183.503058 493.246905 
z
M 99.619605 95.546295 
L 104.279797 98.346916 
L 108.939989 95.197677 
L 108.962466 95.124992 
L 109.736915 91.195494 
L 109.985874 87.265995 
L 109.776949 83.336496 
L 109.136345 79.406997 
L 108.939989 78.70961 
L 107.616628 75.477498 
L 105.58791 71.548 
L 104.279797 69.421073 
L 102.699866 67.618501 
L 99.619605 64.129469 
L 99.092351 63.689002 
L 94.959413 59.892119 
L 94.783314 59.759503 
L 90.327486 55.830004 
L 90.299222 55.802531 
L 85.63903 51.900505 
L 85.63903 51.900505 
L 80.978838 49.652042 
L 76.318646 51.328572 
L 76.03692 51.900505 
L 75.761053 55.830004 
L 76.318646 58.106993 
L 76.933365 59.759503 
L 79.138081 63.689002 
L 80.978838 66.953337 
L 81.408284 67.618501 
L 83.960584 71.548 
L 85.63903 74.585631 
L 86.166871 75.477498 
L 88.484916 79.406997 
L 90.299222 82.856413 
L 90.602307 83.336496 
L 93.191788 87.265995 
L 94.959413 90.124446 
L 95.929475 91.195494 
L 99.28031 95.124992 
z
" clip-path="url(#p58b6f6027d)" style="fill: #f1f7fd"/>
    <path d="M 183.503058 493.246905 
L 188.16325 494.386974 
L 192.823442 495.079108 
L 197.483634 495.345094 
L 202.143825 495.192546 
L 206.804017 494.61402 
L 211.464209 493.585844 
L 216.124401 492.066086 
L 216.272492 492.004373 
L 220.784593 490.255436 
L 225.13215 488.074874 
L 225.444784 487.926583 
L 230.104976 485.323574 
L 231.908674 484.145375 
L 234.765168 482.334783 
L 237.710959 480.215877 
L 239.42536 479.004267 
L 242.916538 476.286378 
L 244.085552 475.38215 
L 247.725517 472.356879 
L 248.745744 471.505815 
L 252.251984 468.42738 
L 253.405935 467.400928 
L 256.56007 464.497881 
L 258.066127 463.080924 
L 260.683169 460.568383 
L 262.726319 458.545331 
L 264.634668 456.638884 
L 267.386511 453.777257 
L 268.414054 452.709385 
L 272.014767 448.779886 
L 272.046703 448.74432 
L 275.576326 444.850387 
L 276.706894 443.519739 
L 278.954965 440.920888 
L 281.367086 437.909347 
L 282.122712 436.99139 
L 285.182904 433.061891 
L 286.027278 431.901413 
L 288.123279 429.132392 
L 290.68747 425.356516 
L 290.797458 425.202893 
L 293.49238 421.273394 
L 295.347662 418.213355 
L 295.913412 417.343896 
L 298.304372 413.414397 
L 300.007854 410.244879 
L 300.455413 409.484898 
L 302.613225 405.555399 
L 304.495022 401.6259 
L 304.668045 401.237196 
L 306.442111 397.696401 
L 308.173966 393.766903 
L 309.328237 390.817398 
L 309.770601 389.837404 
L 311.384128 385.907905 
L 312.791785 381.978406 
L 313.988429 378.142666 
L 314.023161 378.048907 
L 315.317514 374.119409 
L 316.419194 370.18991 
L 317.339579 366.260411 
L 318.084807 362.330912 
L 318.648621 358.455921 
L 318.658431 358.401413 
L 319.147049 354.471914 
L 319.414211 350.542416 
L 319.45053 346.612917 
L 319.243505 342.683418 
L 318.778367 338.753919 
L 318.648621 338.041387 
L 318.160863 334.82442 
L 317.342735 330.894922 
L 316.290438 326.965423 
L 314.998289 323.035924 
L 313.988429 320.406876 
L 313.568335 319.106425 
L 312.151563 315.176926 
L 310.555508 311.247427 
L 309.328237 308.471205 
L 308.887443 307.317929 
L 307.31201 303.38843 
L 305.624497 299.458931 
L 304.668045 297.289828 
L 303.964965 295.529432 
L 302.377521 291.599933 
L 300.745743 287.670435 
L 300.007854 285.849318 
L 299.184961 283.740936 
L 297.689206 279.811437 
L 296.21098 275.881938 
L 295.347662 273.451955 
L 294.793961 271.952439 
L 293.44439 268.02294 
L 292.144157 264.093442 
L 290.904193 260.163943 
L 290.68747 259.39303 
L 289.654958 256.234444 
L 288.413382 252.304945 
L 287.179757 248.375446 
L 286.027278 244.711731 
L 285.916318 244.445948 
L 284.334615 240.516449 
L 282.617564 236.58695 
L 281.367086 233.875297 
L 280.475985 232.657451 
L 277.482591 228.727952 
L 276.706894 227.728212 
L 272.120542 224.798453 
L 272.046703 224.748878 
L 267.386511 223.793513 
L 262.726319 224.306166 
L 260.874559 224.798453 
L 258.066127 225.417501 
L 253.405935 226.348697 
L 248.745744 226.37955 
L 244.805324 224.798453 
L 244.085552 224.348342 
L 241.821091 220.868955 
L 240.44854 216.939456 
L 239.896821 213.009957 
L 239.830261 209.080458 
L 239.977598 205.150959 
L 240.134123 201.221461 
L 240.154049 197.291962 
L 239.9389 193.362463 
L 239.42536 189.432964 
L 239.42536 189.432964 
L 238.758677 185.503465 
L 237.785145 181.573966 
L 236.481065 177.644468 
L 234.822382 173.714969 
L 234.765168 173.606384 
L 233.015934 169.78547 
L 230.795145 165.855971 
L 230.104976 164.841225 
L 228.151736 161.926472 
L 225.444784 158.626711 
L 224.870149 157.996974 
L 220.784593 154.311011 
L 220.431227 154.067475 
L 216.124401 151.559331 
L 211.851241 150.137976 
L 211.464209 150.024821 
L 206.804017 149.634079 
L 202.834806 150.137976 
L 202.143825 150.226539 
L 197.483634 151.780743 
L 193.092646 154.067475 
L 192.823442 154.212536 
L 188.16325 157.580058 
L 187.688472 157.996974 
L 183.503058 161.873677 
L 183.453054 161.926472 
L 179.930698 165.855971 
L 178.842866 167.136744 
L 176.770876 169.78547 
L 174.182674 173.265098 
L 173.861456 173.714969 
L 171.163654 177.644468 
L 169.522483 180.096743 
L 168.54552 181.573966 
L 165.986831 185.503465 
L 164.862291 187.222764 
L 163.408376 189.432964 
L 160.79721 193.362463 
L 160.202099 194.233467 
L 158.08823 197.291962 
L 155.541907 200.886323 
L 155.299898 201.221461 
L 152.386246 205.150959 
L 150.881715 207.126271 
L 149.378793 209.080458 
L 146.316151 213.009957 
L 146.221523 213.127934 
L 143.171478 216.939456 
L 141.561332 218.952549 
L 140.03205 220.868955 
L 136.946553 224.798453 
L 136.90114 224.85602 
L 133.878657 228.727952 
L 132.240948 230.90395 
L 130.931403 232.657451 
L 128.121477 236.58695 
L 127.580756 237.368197 
L 125.420893 240.516449 
L 122.936248 244.445948 
L 122.920564 244.471646 
L 120.550507 248.375446 
L 118.409674 252.304945 
L 118.260373 252.594195 
L 116.375732 256.234444 
L 114.561842 260.163943 
L 113.600181 262.45935 
L 112.904542 264.093442 
L 111.379981 268.02294 
L 110.039286 271.952439 
L 108.939989 275.606407 
L 108.85412 275.881938 
L 107.736058 279.811437 
L 106.760382 283.740936 
L 105.909116 287.670435 
L 105.166075 291.599933 
L 104.516458 295.529432 
L 104.279797 297.141128 
L 103.916092 299.458931 
L 103.367321 303.38843 
L 102.877336 307.317929 
L 102.432406 311.247427 
L 102.02002 315.176926 
L 101.629316 319.106425 
L 101.251601 323.035924 
L 100.88085 326.965423 
L 100.514071 330.894922 
L 100.151429 334.82442 
L 99.796048 338.753919 
L 99.619605 340.757619 
L 99.430907 342.683418 
L 99.061535 346.612917 
L 98.720182 350.542416 
L 98.416469 354.471914 
L 98.15947 358.401413 
L 97.957025 362.330912 
L 97.815313 366.260411 
L 97.738703 370.18991 
L 97.729865 374.119409 
L 97.790102 378.048907 
L 97.919828 381.978406 
L 98.119152 385.907905 
L 98.388503 389.837404 
L 98.729259 393.766903 
L 99.144369 397.696401 
L 99.619605 401.473701 
L 99.635664 401.6259 
L 100.119678 405.555399 
L 100.687432 409.484898 
L 101.353122 413.414397 
L 102.135256 417.343896 
L 103.057496 421.273394 
L 104.149747 425.202893 
L 104.279797 425.618057 
L 105.296299 429.132392 
L 106.659821 433.061891 
L 108.314544 436.99139 
L 108.939989 438.288954 
L 110.197597 440.920888 
L 112.449074 444.850387 
L 113.600181 446.580871 
L 115.128382 448.779886 
L 118.260373 452.576355 
L 118.378295 452.709385 
L 122.250352 456.638884 
L 122.920564 457.250707 
L 126.908167 460.568383 
L 127.580756 461.089352 
L 132.240948 464.416683 
L 132.360094 464.497881 
L 136.90114 467.518923 
L 138.323176 468.42738 
L 141.561332 470.491285 
L 144.549268 472.356879 
L 146.221523 473.414042 
L 150.830217 476.286378 
L 150.881715 476.319163 
L 155.541907 479.309695 
L 157.017543 480.215877 
L 160.202099 482.222914 
L 163.501176 484.145375 
L 164.862291 484.96415 
L 169.522483 487.503073 
L 170.72661 488.074874 
L 174.182674 489.795458 
L 178.842866 491.672004 
L 179.885146 492.004373 
z
M 179.518203 476.286378 
L 178.842866 476.04874 
L 174.182674 474.016755 
L 171.034515 472.356879 
L 169.522483 471.579492 
L 164.862291 468.858532 
L 164.176415 468.42738 
L 160.202099 465.956357 
L 157.995481 464.497881 
L 155.541907 462.880293 
L 152.159589 460.568383 
L 150.881715 459.688324 
L 146.562181 456.638884 
L 146.221523 456.393172 
L 141.561332 452.964129 
L 141.22492 452.709385 
L 136.90114 449.258435 
L 136.332338 448.779886 
L 132.240948 445.039555 
L 132.046876 444.850387 
L 128.372295 440.920888 
L 127.580756 439.954935 
L 125.285093 436.99139 
L 122.920564 433.336506 
L 122.749618 433.061891 
L 120.579802 429.132392 
L 118.823563 425.202893 
L 118.260373 423.709473 
L 117.326861 421.273394 
L 116.071326 417.343896 
L 115.055751 413.414397 
L 114.240592 409.484898 
L 113.600181 405.590937 
L 113.593783 405.555399 
L 113.024501 401.6259 
L 112.594151 397.696401 
L 112.287672 393.766903 
L 112.093712 389.837404 
L 112.003884 385.907905 
L 112.012084 381.978406 
L 112.113833 378.048907 
L 112.305625 374.119409 
L 112.584268 370.18991 
L 112.946227 366.260411 
L 113.386994 362.330912 
L 113.600181 360.667346 
L 113.863441 358.401413 
L 114.373014 354.471914 
L 114.935359 350.542416 
L 115.541588 346.612917 
L 116.181382 342.683418 
L 116.843616 338.753919 
L 117.5173 334.82442 
L 118.192789 330.894922 
L 118.260373 330.486745 
L 118.814618 326.965423 
L 119.431582 323.035924 
L 120.051054 319.106425 
L 120.678932 315.176926 
L 121.325565 311.247427 
L 122.005365 307.317929 
L 122.736076 303.38843 
L 122.920564 302.466751 
L 123.517732 299.458931 
L 124.389391 295.529432 
L 125.378259 291.599933 
L 126.504303 287.670435 
L 127.580756 284.357546 
L 127.785061 283.740936 
L 129.231414 279.811437 
L 130.870772 275.881938 
L 132.240948 272.940286 
L 132.719926 271.952439 
L 134.796317 268.02294 
L 136.90114 264.420334 
L 137.103307 264.093442 
L 139.684964 260.163943 
L 141.561332 257.506666 
L 142.527447 256.234444 
L 145.655017 252.304945 
L 146.221523 251.615956 
L 149.130518 248.375446 
L 150.881715 246.466539 
L 152.950556 244.445948 
L 155.541907 241.913416 
L 157.182454 240.516449 
L 160.202099 237.881134 
L 161.967392 236.58695 
L 164.862291 234.353245 
L 167.612603 232.657451 
L 169.522483 231.380001 
L 174.182674 229.083258 
L 175.437618 228.727952 
L 178.842866 227.613924 
L 183.503058 227.331298 
L 188.16325 228.665279 
L 188.257429 228.727952 
L 192.823442 231.75184 
L 193.67898 232.657451 
L 197.483634 236.58695 
L 197.483634 236.58695 
L 200.630557 240.516449 
L 202.143825 242.317169 
L 203.709259 244.445948 
L 206.795093 248.375446 
L 206.804017 248.385864 
L 210.024581 252.304945 
L 211.464209 253.911765 
L 213.609995 256.234444 
L 216.124401 258.682754 
L 217.812105 260.163943 
L 220.784593 262.471461 
L 223.294091 264.093442 
L 225.444784 265.309622 
L 230.104976 267.32742 
L 232.360137 268.02294 
L 234.765168 268.670209 
L 239.42536 269.515642 
L 244.085552 270.094959 
L 248.745744 270.579809 
L 253.405935 271.159582 
L 257.582654 271.952439 
L 258.066127 272.038402 
L 262.726319 273.33383 
L 267.386511 275.436087 
L 268.080221 275.881938 
L 272.046703 278.447853 
L 273.584499 279.811437 
L 276.706894 282.677533 
L 277.629421 283.740936 
L 280.893373 287.670435 
L 281.367086 288.264658 
L 283.680035 291.599933 
L 286.027278 295.316326 
L 286.151826 295.529432 
L 288.394763 299.458931 
L 290.40559 303.38843 
L 290.68747 303.970372 
L 292.305223 307.317929 
L 294.020257 311.247427 
L 295.347662 314.650793 
L 295.563963 315.176926 
L 297.063677 319.106425 
L 298.376278 323.035924 
L 299.50957 326.965423 
L 300.007854 328.963931 
L 300.544529 330.894922 
L 301.467802 334.82442 
L 302.206419 338.753919 
L 302.765442 342.683418 
L 303.149214 346.612917 
L 303.361273 350.542416 
L 303.404253 354.471914 
L 303.279728 358.401413 
L 302.98797 362.330912 
L 302.527619 366.260411 
L 301.89525 370.18991 
L 301.084832 374.119409 
L 300.087078 378.048907 
L 300.007854 378.315261 
L 299.045226 381.978406 
L 297.831074 385.907905 
L 296.41581 389.837404 
L 295.347662 392.437259 
L 294.850178 393.766903 
L 293.208941 397.696401 
L 291.32729 401.6259 
L 290.68747 402.843421 
L 289.355433 405.555399 
L 287.194576 409.484898 
L 286.027278 411.413897 
L 284.874436 413.414397 
L 282.3848 417.343896 
L 281.367086 418.826843 
L 279.743672 421.273394 
L 276.866283 425.202893 
L 276.706894 425.410988 
L 273.917391 429.132392 
L 272.046703 431.428039 
L 270.732021 433.061891 
L 267.386511 436.934086 
L 267.337217 436.99139 
L 263.852274 440.920888 
L 262.726319 442.12402 
L 260.160644 444.850387 
L 258.066127 446.977748 
L 256.263455 448.779886 
L 253.405935 451.536077 
L 252.154272 452.709385 
L 248.745744 455.820487 
L 247.808454 456.638884 
L 244.085552 459.833777 
L 243.173091 460.568383 
L 239.42536 463.563508 
L 238.149053 464.497881 
L 234.765168 466.983932 
L 232.557575 468.42738 
L 230.104976 470.056152 
L 226.073658 472.356879 
L 225.444784 472.726295 
L 220.784593 475.067062 
L 217.709923 476.286378 
L 216.124401 476.950478 
L 211.464209 478.444142 
L 206.804017 479.450107 
L 202.143825 479.999304 
L 197.483634 480.107884 
L 192.823442 479.778629 
L 188.16325 479.002273 
L 183.503058 477.759242 
z
" clip-path="url(#p58b6f6027d)" style="fill: #e2edf8"/>
    <path d="M 183.503058 477.759242 
L 188.16325 479.002273 
L 192.823442 479.778629 
L 197.483634 480.107884 
L 202.143825 479.999304 
L 206.804017 479.450107 
L 211.464209 478.444142 
L 216.124401 476.950478 
L 217.709923 476.286378 
L 220.784593 475.067062 
L 225.444784 472.726295 
L 226.073658 472.356879 
L 230.104976 470.056152 
L 232.557575 468.42738 
L 234.765168 466.983932 
L 238.149053 464.497881 
L 239.42536 463.563508 
L 243.173091 460.568383 
L 244.085552 459.833777 
L 247.808454 456.638884 
L 248.745744 455.820487 
L 252.154272 452.709385 
L 253.405935 451.536077 
L 256.263455 448.779886 
L 258.066127 446.977748 
L 260.160644 444.850387 
L 262.726319 442.12402 
L 263.852274 440.920888 
L 267.337217 436.99139 
L 267.386511 436.934086 
L 270.732021 433.061891 
L 272.046703 431.428039 
L 273.917391 429.132392 
L 276.706894 425.410988 
L 276.866283 425.202893 
L 279.743672 421.273394 
L 281.367086 418.826843 
L 282.3848 417.343896 
L 284.874436 413.414397 
L 286.027278 411.413897 
L 287.194576 409.484898 
L 289.355433 405.555399 
L 290.68747 402.843421 
L 291.32729 401.6259 
L 293.208941 397.696401 
L 294.850178 393.766903 
L 295.347662 392.437259 
L 296.41581 389.837404 
L 297.831074 385.907905 
L 299.045226 381.978406 
L 300.007854 378.315261 
L 300.087078 378.048907 
L 301.084832 374.119409 
L 301.89525 370.18991 
L 302.527619 366.260411 
L 302.98797 362.330912 
L 303.279728 358.401413 
L 303.404253 354.471914 
L 303.361273 350.542416 
L 303.149214 346.612917 
L 302.765442 342.683418 
L 302.206419 338.753919 
L 301.467802 334.82442 
L 300.544529 330.894922 
L 300.007854 328.963931 
L 299.50957 326.965423 
L 298.376278 323.035924 
L 297.063677 319.106425 
L 295.563963 315.176926 
L 295.347662 314.650793 
L 294.020257 311.247427 
L 292.305223 307.317929 
L 290.68747 303.970372 
L 290.40559 303.38843 
L 288.394763 299.458931 
L 286.151826 295.529432 
L 286.027278 295.316326 
L 283.680035 291.599933 
L 281.367086 288.264658 
L 280.893373 287.670435 
L 277.629421 283.740936 
L 276.706894 282.677533 
L 273.584499 279.811437 
L 272.046703 278.447853 
L 268.080221 275.881938 
L 267.386511 275.436087 
L 262.726319 273.33383 
L 258.066127 272.038402 
L 257.582654 271.952439 
L 253.405935 271.159582 
L 248.745744 270.579809 
L 244.085552 270.094959 
L 239.42536 269.515642 
L 234.765168 268.670209 
L 232.360137 268.02294 
L 230.104976 267.32742 
L 225.444784 265.309622 
L 223.294091 264.093442 
L 220.784593 262.471461 
L 217.812105 260.163943 
L 216.124401 258.682754 
L 213.609995 256.234444 
L 211.464209 253.911765 
L 210.024581 252.304945 
L 206.804017 248.385864 
L 206.795093 248.375446 
L 203.709259 244.445948 
L 202.143825 242.317169 
L 200.630557 240.516449 
L 197.483634 236.58695 
L 197.483634 236.58695 
L 193.67898 232.657451 
L 192.823442 231.75184 
L 188.257429 228.727952 
L 188.16325 228.665279 
L 183.503058 227.331298 
L 178.842866 227.613924 
L 175.437618 228.727952 
L 174.182674 229.083258 
L 169.522483 231.380001 
L 167.612603 232.657451 
L 164.862291 234.353245 
L 161.967392 236.58695 
L 160.202099 237.881134 
L 157.182454 240.516449 
L 155.541907 241.913416 
L 152.950556 244.445948 
L 150.881715 246.466539 
L 149.130518 248.375446 
L 146.221523 251.615956 
L 145.655017 252.304945 
L 142.527447 256.234444 
L 141.561332 257.506666 
L 139.684964 260.163943 
L 137.103307 264.093442 
L 136.90114 264.420334 
L 134.796317 268.02294 
L 132.719926 271.952439 
L 132.240948 272.940286 
L 130.870772 275.881938 
L 129.231414 279.811437 
L 127.785061 283.740936 
L 127.580756 284.357546 
L 126.504303 287.670435 
L 125.378259 291.599933 
L 124.389391 295.529432 
L 123.517732 299.458931 
L 122.920564 302.466751 
L 122.736076 303.38843 
L 122.005365 307.317929 
L 121.325565 311.247427 
L 120.678932 315.176926 
L 120.051054 319.106425 
L 119.431582 323.035924 
L 118.814618 326.965423 
L 118.260373 330.486745 
L 118.192789 330.894922 
L 117.5173 334.82442 
L 116.843616 338.753919 
L 116.181382 342.683418 
L 115.541588 346.612917 
L 114.935359 350.542416 
L 114.373014 354.471914 
L 113.863441 358.401413 
L 113.600181 360.667346 
L 113.386994 362.330912 
L 112.946227 366.260411 
L 112.584268 370.18991 
L 112.305625 374.119409 
L 112.113833 378.048907 
L 112.012084 381.978406 
L 112.003884 385.907905 
L 112.093712 389.837404 
L 112.287672 393.766903 
L 112.594151 397.696401 
L 113.024501 401.6259 
L 113.593783 405.555399 
L 113.600181 405.590937 
L 114.240592 409.484898 
L 115.055751 413.414397 
L 116.071326 417.343896 
L 117.326861 421.273394 
L 118.260373 423.709473 
L 118.823563 425.202893 
L 120.579802 429.132392 
L 122.749618 433.061891 
L 122.920564 433.336506 
L 125.285093 436.99139 
L 127.580756 439.954935 
L 128.372295 440.920888 
L 132.046876 444.850387 
L 132.240948 445.039555 
L 136.332338 448.779886 
L 136.90114 449.258435 
L 141.22492 452.709385 
L 141.561332 452.964129 
L 146.221523 456.393172 
L 146.562181 456.638884 
L 150.881715 459.688324 
L 152.159589 460.568383 
L 155.541907 462.880293 
L 157.995481 464.497881 
L 160.202099 465.956357 
L 164.176415 468.42738 
L 164.862291 468.858532 
L 169.522483 471.579492 
L 171.034515 472.356879 
L 174.182674 474.016755 
L 178.842866 476.04874 
L 179.518203 476.286378 
z
M 184.78558 464.497881 
L 183.503058 464.119072 
L 178.842866 462.287941 
L 175.363559 460.568383 
L 174.182674 459.990986 
L 169.522483 457.340157 
L 168.412456 456.638884 
L 164.862291 454.380421 
L 162.433071 452.709385 
L 160.202099 451.146377 
L 156.986185 448.779886 
L 155.541907 447.683226 
L 151.933556 444.850387 
L 150.881715 443.983804 
L 147.273817 440.920888 
L 146.221523 439.962203 
L 143.073382 436.99139 
L 141.561332 435.415418 
L 139.397153 433.061891 
L 136.90114 429.955998 
L 136.268257 429.132392 
L 133.61649 425.202893 
L 132.240948 422.762888 
L 131.425801 421.273394 
L 129.605714 417.343896 
L 128.149549 413.414397 
L 127.580756 411.520505 
L 126.96168 409.484898 
L 126.008991 405.555399 
L 125.288785 401.6259 
L 124.770836 397.696401 
L 124.431476 393.766903 
L 124.252411 389.837404 
L 124.219726 385.907905 
L 124.32303 381.978406 
L 124.554694 378.048907 
L 124.909139 374.119409 
L 125.382167 370.18991 
L 125.9703 366.260411 
L 126.670133 362.330912 
L 127.477713 358.401413 
L 127.580756 357.939985 
L 128.31695 354.471914 
L 129.2354 350.542416 
L 130.236176 346.612917 
L 131.312004 342.683418 
L 132.240948 339.458145 
L 132.439315 338.753919 
L 133.557079 334.82442 
L 134.725867 330.894922 
L 135.940215 326.965423 
L 136.90114 323.920553 
L 137.18238 323.035924 
L 138.424327 319.106425 
L 139.718587 315.176926 
L 141.07323 311.247427 
L 141.561332 309.853692 
L 142.4871 307.317929 
L 143.995268 303.38843 
L 145.628799 299.458931 
L 146.221523 298.103382 
L 147.437919 295.529432 
L 149.458929 291.599933 
L 150.881715 289.064248 
L 151.760828 287.670435 
L 154.444724 283.740936 
L 155.541907 282.256194 
L 157.679948 279.811437 
L 160.202099 277.14067 
L 161.708985 275.881938 
L 164.862291 273.385997 
L 167.430573 271.952439 
L 169.522483 270.81983 
L 174.182674 269.354916 
L 178.842866 268.950695 
L 183.503058 269.539378 
L 188.16325 271.036153 
L 190.018213 271.952439 
L 192.823442 273.239396 
L 197.381583 275.881938 
L 197.483634 275.936143 
L 202.143825 278.735819 
L 203.884721 279.811437 
L 206.804017 281.42761 
L 211.263158 283.740936 
L 211.464209 283.833368 
L 216.124401 285.722942 
L 220.784593 287.223237 
L 222.621474 287.670435 
L 225.444784 288.279034 
L 230.104976 288.996441 
L 234.765168 289.505486 
L 239.42536 289.920859 
L 244.085552 290.373977 
L 248.745744 291.011534 
L 251.565035 291.599933 
L 253.405935 291.971352 
L 258.066127 293.40111 
L 262.64187 295.529432 
L 262.726319 295.569477 
L 267.386511 298.593061 
L 268.401787 299.458931 
L 272.046703 302.803016 
L 272.569147 303.38843 
L 275.813746 307.317929 
L 276.706894 308.52077 
L 278.501659 311.247427 
L 280.772954 315.176926 
L 281.367086 316.326746 
L 282.731018 319.106425 
L 284.413556 323.035924 
L 285.841963 326.965423 
L 286.027278 327.549139 
L 287.107513 330.894922 
L 288.17002 334.82442 
L 289.033075 338.753919 
L 289.708785 342.683418 
L 290.206475 346.612917 
L 290.532902 350.542416 
L 290.68747 354.346998 
L 290.693018 354.471914 
L 290.68747 358.401413 
L 290.68747 358.401413 
L 290.518183 362.330912 
L 290.18302 366.260411 
L 289.678478 370.18991 
L 288.998998 374.119409 
L 288.136697 378.048907 
L 287.08093 381.978406 
L 286.027278 385.270551 
L 285.836804 385.907905 
L 284.488083 389.837404 
L 282.923244 393.766903 
L 281.367086 397.17645 
L 281.140503 397.696401 
L 279.253131 401.6259 
L 277.106482 405.555399 
L 276.706894 406.230042 
L 274.834796 409.484898 
L 272.307493 413.414397 
L 272.046703 413.794979 
L 269.657949 417.343896 
L 267.386511 420.411436 
L 266.754329 421.273394 
L 263.688151 425.202893 
L 262.726319 426.362013 
L 260.427642 429.132392 
L 258.066127 431.798855 
L 256.937342 433.061891 
L 253.405935 436.801293 
L 253.222719 436.99139 
L 249.301565 440.920888 
L 248.745744 441.457905 
L 245.100961 444.850387 
L 244.085552 445.76648 
L 240.553318 448.779886 
L 239.42536 449.72174 
L 235.553121 452.709385 
L 234.765168 453.310752 
L 230.104976 456.515093 
L 229.900952 456.638884 
L 225.444784 459.364601 
L 223.083826 460.568383 
L 220.784593 461.767144 
L 216.124401 463.72061 
L 213.659765 464.497881 
L 211.464209 465.224675 
L 206.804017 466.274855 
L 202.143825 466.825564 
L 197.483634 466.887692 
L 192.823442 466.460402 
L 188.16325 465.53306 
z
" clip-path="url(#p58b6f6027d)" style="fill: #d0e2f2"/>
    <path d="M 188.16325 465.53306 
L 192.823442 466.460402 
L 197.483634 466.887692 
L 202.143825 466.825564 
L 206.804017 466.274855 
L 211.464209 465.224675 
L 213.659765 464.497881 
L 216.124401 463.72061 
L 220.784593 461.767144 
L 223.083826 460.568383 
L 225.444784 459.364601 
L 229.900952 456.638884 
L 230.104976 456.515093 
L 234.765168 453.310752 
L 235.553121 452.709385 
L 239.42536 449.72174 
L 240.553318 448.779886 
L 244.085552 445.76648 
L 245.100961 444.850387 
L 248.745744 441.457905 
L 249.301565 440.920888 
L 253.222719 436.99139 
L 253.405935 436.801293 
L 256.937342 433.061891 
L 258.066127 431.798855 
L 260.427642 429.132392 
L 262.726319 426.362013 
L 263.688151 425.202893 
L 266.754329 421.273394 
L 267.386511 420.411436 
L 269.657949 417.343896 
L 272.046703 413.794979 
L 272.307493 413.414397 
L 274.834796 409.484898 
L 276.706894 406.230042 
L 277.106482 405.555399 
L 279.253131 401.6259 
L 281.140503 397.696401 
L 281.367086 397.17645 
L 282.923244 393.766903 
L 284.488083 389.837404 
L 285.836804 385.907905 
L 286.027278 385.270551 
L 287.08093 381.978406 
L 288.136697 378.048907 
L 288.998998 374.119409 
L 289.678478 370.18991 
L 290.18302 366.260411 
L 290.518183 362.330912 
L 290.68747 358.401413 
L 290.68747 358.401413 
L 290.693018 354.471914 
L 290.68747 354.346998 
L 290.532902 350.542416 
L 290.206475 346.612917 
L 289.708785 342.683418 
L 289.033075 338.753919 
L 288.17002 334.82442 
L 287.107513 330.894922 
L 286.027278 327.549139 
L 285.841963 326.965423 
L 284.413556 323.035924 
L 282.731018 319.106425 
L 281.367086 316.326746 
L 280.772954 315.176926 
L 278.501659 311.247427 
L 276.706894 308.52077 
L 275.813746 307.317929 
L 272.569147 303.38843 
L 272.046703 302.803016 
L 268.401787 299.458931 
L 267.386511 298.593061 
L 262.726319 295.569477 
L 262.64187 295.529432 
L 258.066127 293.40111 
L 253.405935 291.971352 
L 251.565035 291.599933 
L 248.745744 291.011534 
L 244.085552 290.373977 
L 239.42536 289.920859 
L 234.765168 289.505486 
L 230.104976 288.996441 
L 225.444784 288.279034 
L 222.621474 287.670435 
L 220.784593 287.223237 
L 216.124401 285.722942 
L 211.464209 283.833368 
L 211.263158 283.740936 
L 206.804017 281.42761 
L 203.884721 279.811437 
L 202.143825 278.735819 
L 197.483634 275.936143 
L 197.381583 275.881938 
L 192.823442 273.239396 
L 190.018213 271.952439 
L 188.16325 271.036153 
L 183.503058 269.539378 
L 178.842866 268.950695 
L 174.182674 269.354916 
L 169.522483 270.81983 
L 167.430573 271.952439 
L 164.862291 273.385997 
L 161.708985 275.881938 
L 160.202099 277.14067 
L 157.679948 279.811437 
L 155.541907 282.256194 
L 154.444724 283.740936 
L 151.760828 287.670435 
L 150.881715 289.064248 
L 149.458929 291.599933 
L 147.437919 295.529432 
L 146.221523 298.103382 
L 145.628799 299.458931 
L 143.995268 303.38843 
L 142.4871 307.317929 
L 141.561332 309.853692 
L 141.07323 311.247427 
L 139.718587 315.176926 
L 138.424327 319.106425 
L 137.18238 323.035924 
L 136.90114 323.920553 
L 135.940215 326.965423 
L 134.725867 330.894922 
L 133.557079 334.82442 
L 132.439315 338.753919 
L 132.240948 339.458145 
L 131.312004 342.683418 
L 130.236176 346.612917 
L 129.2354 350.542416 
L 128.31695 354.471914 
L 127.580756 357.939985 
L 127.477713 358.401413 
L 126.670133 362.330912 
L 125.9703 366.260411 
L 125.382167 370.18991 
L 124.909139 374.119409 
L 124.554694 378.048907 
L 124.32303 381.978406 
L 124.219726 385.907905 
L 124.252411 389.837404 
L 124.431476 393.766903 
L 124.770836 397.696401 
L 125.288785 401.6259 
L 126.008991 405.555399 
L 126.96168 409.484898 
L 127.580756 411.520505 
L 128.149549 413.414397 
L 129.605714 417.343896 
L 131.425801 421.273394 
L 132.240948 422.762888 
L 133.61649 425.202893 
L 136.268257 429.132392 
L 136.90114 429.955998 
L 139.397153 433.061891 
L 141.561332 435.415418 
L 143.073382 436.99139 
L 146.221523 439.962203 
L 147.273817 440.920888 
L 150.881715 443.983804 
L 151.933556 444.850387 
L 155.541907 447.683226 
L 156.986185 448.779886 
L 160.202099 451.146377 
L 162.433071 452.709385 
L 164.862291 454.380421 
L 168.412456 456.638884 
L 169.522483 457.340157 
L 174.182674 459.990986 
L 175.363559 460.568383 
L 178.842866 462.287941 
L 183.503058 464.119072 
L 184.78558 464.497881 
z
M 185.092721 452.709385 
L 183.503058 452.166053 
L 178.842866 450.078186 
L 176.472253 448.779886 
L 174.182674 447.507019 
L 170.053722 444.850387 
L 169.522483 444.498464 
L 164.862291 441.109048 
L 164.618437 440.920888 
L 160.202099 437.346946 
L 159.781518 436.99139 
L 155.541907 433.163918 
L 155.43263 433.061891 
L 151.534183 429.132392 
L 150.881715 428.403043 
L 148.111706 425.202893 
L 146.221523 422.694676 
L 145.186584 421.273394 
L 142.718996 417.343896 
L 141.561332 415.136457 
L 140.682577 413.414397 
L 139.024336 409.484898 
L 137.725043 405.555399 
L 136.90114 402.296358 
L 136.73139 401.6259 
L 135.988865 397.696401 
L 135.496607 393.766903 
L 135.229008 389.837404 
L 135.166122 385.907905 
L 135.292699 381.978406 
L 135.597335 378.048907 
L 136.071698 374.119409 
L 136.709827 370.18991 
L 136.90114 369.22854 
L 137.476497 366.260411 
L 138.379436 362.330912 
L 139.425373 358.401413 
L 140.611915 354.471914 
L 141.561332 351.621398 
L 141.922955 350.542416 
L 143.328927 346.612917 
L 144.861851 342.683418 
L 146.221523 339.431017 
L 146.515233 338.753919 
L 148.269845 334.82442 
L 150.149324 330.894922 
L 150.881715 329.405352 
L 152.171744 326.965423 
L 154.345137 323.035924 
L 155.541907 320.951418 
L 156.727793 319.106425 
L 159.36167 315.176926 
L 160.202099 313.961235 
L 162.418236 311.247427 
L 164.862291 308.407482 
L 166.045363 307.317929 
L 169.522483 304.241336 
L 170.866893 303.38843 
L 174.182674 301.342639 
L 178.842866 299.617483 
L 179.776707 299.458931 
L 183.503058 298.829209 
L 188.16325 298.828958 
L 192.823442 299.404417 
L 193.081881 299.458931 
L 197.483634 300.278403 
L 202.143825 301.29494 
L 206.804017 302.304335 
L 211.464209 303.196609 
L 212.679371 303.38843 
L 216.124401 303.874496 
L 220.784593 304.36294 
L 225.444784 304.702579 
L 230.104976 304.95215 
L 234.765168 305.195889 
L 239.42536 305.539618 
L 244.085552 306.109992 
L 248.745744 307.057415 
L 249.588402 307.317929 
L 253.405935 308.525077 
L 258.066127 310.756954 
L 258.817477 311.247427 
L 262.726319 314.016057 
L 263.982719 315.176926 
L 267.386511 318.723237 
L 267.690291 319.106425 
L 270.477841 323.035924 
L 272.046703 325.66095 
L 272.743621 326.965423 
L 274.559212 330.894922 
L 276.044127 334.82442 
L 276.706894 336.963695 
L 277.243286 338.753919 
L 278.194187 342.683418 
L 278.912852 346.612917 
L 279.415288 350.542416 
L 279.713289 354.471914 
L 279.8149 358.401413 
L 279.724809 362.330912 
L 279.444681 366.260411 
L 278.973383 370.18991 
L 278.307104 374.119409 
L 277.439323 378.048907 
L 276.706894 380.730953 
L 276.380198 381.978406 
L 275.157053 385.907905 
L 273.718063 389.837404 
L 272.046703 393.766903 
L 272.046703 393.766903 
L 270.23298 397.696401 
L 268.173229 401.6259 
L 267.386511 402.988216 
L 265.92555 405.555399 
L 263.451486 409.484898 
L 262.726319 410.549823 
L 260.786873 413.414397 
L 258.066127 417.08217 
L 257.871536 417.343896 
L 254.776746 421.273394 
L 253.405935 422.89675 
L 251.431202 425.202893 
L 248.745744 428.147336 
L 247.822665 429.132392 
L 244.085552 432.912085 
L 243.930739 433.061891 
L 239.704149 436.99139 
L 239.42536 437.241506 
L 235.029416 440.920888 
L 234.765168 441.135959 
L 230.104976 444.594333 
L 229.7142 444.850387 
L 225.444784 447.617678 
L 223.315255 448.779886 
L 220.784593 450.165007 
L 216.124401 452.21369 
L 214.630653 452.709385 
L 211.464209 453.789185 
L 206.804017 454.847886 
L 202.143825 455.37513 
L 197.483634 455.375039 
L 192.823442 454.843028 
L 188.16325 453.768494 
z
" clip-path="url(#p58b6f6027d)" style="fill: #b5d4e9"/>
    <path d="M 188.16325 453.768494 
L 192.823442 454.843028 
L 197.483634 455.375039 
L 202.143825 455.37513 
L 206.804017 454.847886 
L 211.464209 453.789185 
L 214.630653 452.709385 
L 216.124401 452.21369 
L 220.784593 450.165007 
L 223.315255 448.779886 
L 225.444784 447.617678 
L 229.7142 444.850387 
L 230.104976 444.594333 
L 234.765168 441.135959 
L 235.029416 440.920888 
L 239.42536 437.241506 
L 239.704149 436.99139 
L 243.930739 433.061891 
L 244.085552 432.912085 
L 247.822665 429.132392 
L 248.745744 428.147336 
L 251.431202 425.202893 
L 253.405935 422.89675 
L 254.776746 421.273394 
L 257.871536 417.343896 
L 258.066127 417.08217 
L 260.786873 413.414397 
L 262.726319 410.549823 
L 263.451486 409.484898 
L 265.92555 405.555399 
L 267.386511 402.988216 
L 268.173229 401.6259 
L 270.23298 397.696401 
L 272.046703 393.766903 
L 272.046703 393.766903 
L 273.718063 389.837404 
L 275.157053 385.907905 
L 276.380198 381.978406 
L 276.706894 380.730953 
L 277.439323 378.048907 
L 278.307104 374.119409 
L 278.973383 370.18991 
L 279.444681 366.260411 
L 279.724809 362.330912 
L 279.8149 358.401413 
L 279.713289 354.471914 
L 279.415288 350.542416 
L 278.912852 346.612917 
L 278.194187 342.683418 
L 277.243286 338.753919 
L 276.706894 336.963695 
L 276.044127 334.82442 
L 274.559212 330.894922 
L 272.743621 326.965423 
L 272.046703 325.66095 
L 270.477841 323.035924 
L 267.690291 319.106425 
L 267.386511 318.723237 
L 263.982719 315.176926 
L 262.726319 314.016057 
L 258.817477 311.247427 
L 258.066127 310.756954 
L 253.405935 308.525077 
L 249.588402 307.317929 
L 248.745744 307.057415 
L 244.085552 306.109992 
L 239.42536 305.539618 
L 234.765168 305.195889 
L 230.104976 304.95215 
L 225.444784 304.702579 
L 220.784593 304.36294 
L 216.124401 303.874496 
L 212.679371 303.38843 
L 211.464209 303.196609 
L 206.804017 302.304335 
L 202.143825 301.29494 
L 197.483634 300.278403 
L 193.081881 299.458931 
L 192.823442 299.404417 
L 188.16325 298.828958 
L 183.503058 298.829209 
L 179.776707 299.458931 
L 178.842866 299.617483 
L 174.182674 301.342639 
L 170.866893 303.38843 
L 169.522483 304.241336 
L 166.045363 307.317929 
L 164.862291 308.407482 
L 162.418236 311.247427 
L 160.202099 313.961235 
L 159.36167 315.176926 
L 156.727793 319.106425 
L 155.541907 320.951418 
L 154.345137 323.035924 
L 152.171744 326.965423 
L 150.881715 329.405352 
L 150.149324 330.894922 
L 148.269845 334.82442 
L 146.515233 338.753919 
L 146.221523 339.431017 
L 144.861851 342.683418 
L 143.328927 346.612917 
L 141.922955 350.542416 
L 141.561332 351.621398 
L 140.611915 354.471914 
L 139.425373 358.401413 
L 138.379436 362.330912 
L 137.476497 366.260411 
L 136.90114 369.22854 
L 136.709827 370.18991 
L 136.071698 374.119409 
L 135.597335 378.048907 
L 135.292699 381.978406 
L 135.166122 385.907905 
L 135.229008 389.837404 
L 135.496607 393.766903 
L 135.988865 397.696401 
L 136.73139 401.6259 
L 136.90114 402.296358 
L 137.725043 405.555399 
L 139.024336 409.484898 
L 140.682577 413.414397 
L 141.561332 415.136457 
L 142.718996 417.343896 
L 145.186584 421.273394 
L 146.221523 422.694676 
L 148.111706 425.202893 
L 150.881715 428.403043 
L 151.534183 429.132392 
L 155.43263 433.061891 
L 155.541907 433.163918 
L 159.781518 436.99139 
L 160.202099 437.346946 
L 164.618437 440.920888 
L 164.862291 441.109048 
L 169.522483 444.498464 
L 170.053722 444.850387 
L 174.182674 447.507019 
L 176.472253 448.779886 
L 178.842866 450.078186 
L 183.503058 452.166053 
L 185.092721 452.709385 
z
M 197.410316 444.850387 
L 192.823442 444.192012 
L 188.16325 442.924981 
L 183.503058 441.05331 
L 183.242606 440.920888 
L 178.842866 438.616067 
L 176.270914 436.99139 
L 174.182674 435.609862 
L 170.784537 433.061891 
L 169.522483 432.054757 
L 166.149708 429.132392 
L 164.862291 427.92382 
L 162.117992 425.202893 
L 160.202099 423.09909 
L 158.603914 421.273394 
L 155.582855 417.343896 
L 155.541907 417.283411 
L 153.006411 413.414397 
L 150.886971 409.484898 
L 150.881715 409.47324 
L 149.161281 405.555399 
L 147.821675 401.6259 
L 146.828436 397.696401 
L 146.221523 394.199073 
L 146.14706 393.766903 
L 145.746618 389.837404 
L 145.611946 385.907905 
L 145.723967 381.978406 
L 146.067999 378.048907 
L 146.221523 376.972401 
L 146.627841 374.119409 
L 147.395675 370.18991 
L 148.367627 366.260411 
L 149.539922 362.330912 
L 150.881715 358.481065 
L 150.910566 358.401413 
L 152.487374 354.471914 
L 154.263912 350.542416 
L 155.541907 347.962137 
L 156.263209 346.612917 
L 158.516839 342.683418 
L 160.202099 339.964324 
L 161.044052 338.753919 
L 163.93708 334.82442 
L 164.862291 333.626983 
L 167.352146 330.894922 
L 169.522483 328.634303 
L 171.518039 326.965423 
L 174.182674 324.821439 
L 177.16086 323.035924 
L 178.842866 322.054032 
L 183.503058 320.168002 
L 187.818464 319.106425 
L 188.16325 319.022476 
L 192.823442 318.384562 
L 197.483634 318.12715 
L 202.143825 318.09313 
L 206.804017 318.162709 
L 211.464209 318.25574 
L 216.124401 318.331267 
L 220.784593 318.38496 
L 225.444784 318.445669 
L 230.104976 318.572357 
L 234.765168 318.852433 
L 236.947881 319.106425 
L 239.42536 319.398171 
L 244.085552 320.361855 
L 248.745744 321.944797 
L 250.90907 323.035924 
L 253.405935 324.425578 
L 256.660897 326.965423 
L 258.066127 328.232641 
L 260.3674 330.894922 
L 262.726319 334.207882 
L 263.094757 334.82442 
L 265.076504 338.753919 
L 266.622235 342.683418 
L 267.386511 345.211534 
L 267.776544 346.612917 
L 268.594667 350.542416 
L 269.135724 354.471914 
L 269.420981 358.401413 
L 269.465923 362.330912 
L 269.280972 366.260411 
L 268.872084 370.18991 
L 268.241194 374.119409 
L 267.386511 378.048907 
L 267.386511 378.048907 
L 266.330818 381.978406 
L 265.055295 385.907905 
L 263.550346 389.837404 
L 262.726319 391.708963 
L 261.828554 393.766903 
L 259.891957 397.696401 
L 258.066127 400.987045 
L 257.712232 401.6259 
L 255.326496 405.555399 
L 253.405935 408.420468 
L 252.687038 409.484898 
L 249.81573 413.414397 
L 248.745744 414.773279 
L 246.679878 417.343896 
L 244.085552 420.343762 
L 243.252034 421.273394 
L 239.499495 425.202893 
L 239.42536 425.276974 
L 235.329218 429.132392 
L 234.765168 429.638733 
L 230.605356 433.061891 
L 230.104976 433.458786 
L 225.444784 436.744219 
L 225.034689 436.99139 
L 220.784593 439.503665 
L 217.794796 440.920888 
L 216.124401 441.708855 
L 211.464209 443.36384 
L 206.804017 444.440071 
L 202.982925 444.850387 
L 202.143825 444.943149 
L 197.483634 444.860985 
z
" clip-path="url(#p58b6f6027d)" style="fill: #8cc0dd"/>
    <path d="M 197.483634 444.860985 
L 202.143825 444.943149 
L 202.982925 444.850387 
L 206.804017 444.440071 
L 211.464209 443.36384 
L 216.124401 441.708855 
L 217.794796 440.920888 
L 220.784593 439.503665 
L 225.034689 436.99139 
L 225.444784 436.744219 
L 230.104976 433.458786 
L 230.605356 433.061891 
L 234.765168 429.638733 
L 235.329218 429.132392 
L 239.42536 425.276974 
L 239.499495 425.202893 
L 243.252034 421.273394 
L 244.085552 420.343762 
L 246.679878 417.343896 
L 248.745744 414.773279 
L 249.81573 413.414397 
L 252.687038 409.484898 
L 253.405935 408.420468 
L 255.326496 405.555399 
L 257.712232 401.6259 
L 258.066127 400.987045 
L 259.891957 397.696401 
L 261.828554 393.766903 
L 262.726319 391.708963 
L 263.550346 389.837404 
L 265.055295 385.907905 
L 266.330818 381.978406 
L 267.386511 378.048907 
L 267.386511 378.048907 
L 268.241194 374.119409 
L 268.872084 370.18991 
L 269.280972 366.260411 
L 269.465923 362.330912 
L 269.420981 358.401413 
L 269.135724 354.471914 
L 268.594667 350.542416 
L 267.776544 346.612917 
L 267.386511 345.211534 
L 266.622235 342.683418 
L 265.076504 338.753919 
L 263.094757 334.82442 
L 262.726319 334.207882 
L 260.3674 330.894922 
L 258.066127 328.232641 
L 256.660897 326.965423 
L 253.405935 324.425578 
L 250.90907 323.035924 
L 248.745744 321.944797 
L 244.085552 320.361855 
L 239.42536 319.398171 
L 236.947881 319.106425 
L 234.765168 318.852433 
L 230.104976 318.572357 
L 225.444784 318.445669 
L 220.784593 318.38496 
L 216.124401 318.331267 
L 211.464209 318.25574 
L 206.804017 318.162709 
L 202.143825 318.09313 
L 197.483634 318.12715 
L 192.823442 318.384562 
L 188.16325 319.022476 
L 187.818464 319.106425 
L 183.503058 320.168002 
L 178.842866 322.054032 
L 177.16086 323.035924 
L 174.182674 324.821439 
L 171.518039 326.965423 
L 169.522483 328.634303 
L 167.352146 330.894922 
L 164.862291 333.626983 
L 163.93708 334.82442 
L 161.044052 338.753919 
L 160.202099 339.964324 
L 158.516839 342.683418 
L 156.263209 346.612917 
L 155.541907 347.962137 
L 154.263912 350.542416 
L 152.487374 354.471914 
L 150.910566 358.401413 
L 150.881715 358.481065 
L 149.539922 362.330912 
L 148.367627 366.260411 
L 147.395675 370.18991 
L 146.627841 374.119409 
L 146.221523 376.972401 
L 146.067999 378.048907 
L 145.723967 381.978406 
L 145.611946 385.907905 
L 145.746618 389.837404 
L 146.14706 393.766903 
L 146.221523 394.199073 
L 146.828436 397.696401 
L 147.821675 401.6259 
L 149.161281 405.555399 
L 150.881715 409.47324 
L 150.886971 409.484898 
L 153.006411 413.414397 
L 155.541907 417.283411 
L 155.582855 417.343896 
L 158.603914 421.273394 
L 160.202099 423.09909 
L 162.117992 425.202893 
L 164.862291 427.92382 
L 166.149708 429.132392 
L 169.522483 432.054757 
L 170.784537 433.061891 
L 174.182674 435.609862 
L 176.270914 436.99139 
L 178.842866 438.616067 
L 183.242606 440.920888 
L 183.503058 441.05331 
L 188.16325 442.924981 
L 192.823442 444.192012 
L 197.410316 444.850387 
z
M 189.528711 433.061891 
L 188.16325 432.591011 
L 183.503058 430.327397 
L 181.559958 429.132392 
L 178.842866 427.343625 
L 176.076208 425.202893 
L 174.182674 423.604844 
L 171.699614 421.273394 
L 169.522483 418.997384 
L 168.048518 417.343896 
L 164.976661 413.414397 
L 164.862291 413.246134 
L 162.422678 409.484898 
L 160.324411 405.555399 
L 160.202099 405.274647 
L 158.665852 401.6259 
L 157.409985 397.696401 
L 156.527269 393.766903 
L 155.99338 389.837404 
L 155.787985 385.907905 
L 155.894453 381.978406 
L 156.299603 378.048907 
L 156.993474 374.119409 
L 157.969104 370.18991 
L 159.222324 366.260411 
L 160.202099 363.71603 
L 160.775637 362.330912 
L 162.667132 358.401413 
L 164.862291 354.471914 
L 164.862291 354.471914 
L 167.55905 350.542416 
L 169.522483 347.980626 
L 170.747374 346.612917 
L 174.182674 343.101453 
L 174.68151 342.683418 
L 178.842866 339.428451 
L 179.951185 338.753919 
L 183.503058 336.701352 
L 187.967487 334.82442 
L 188.16325 334.745079 
L 192.823442 333.346337 
L 197.483634 332.390174 
L 202.143825 331.740377 
L 206.804017 331.295522 
L 211.464209 330.989291 
L 213.657469 330.894922 
L 216.124401 330.788242 
L 220.784593 330.698028 
L 225.444784 330.755974 
L 227.8097 330.894922 
L 230.104976 331.033494 
L 234.765168 331.64859 
L 239.42536 332.769327 
L 244.085552 334.626149 
L 244.431367 334.82442 
L 248.745744 337.703139 
L 249.878647 338.753919 
L 253.313664 342.683418 
L 253.405935 342.815607 
L 255.540798 346.612917 
L 257.163405 350.542416 
L 258.066127 353.660289 
L 258.2727 354.471914 
L 258.934823 358.401413 
L 259.26181 362.330912 
L 259.284357 366.260411 
L 259.024754 370.18991 
L 258.498066 374.119409 
L 258.066127 376.272412 
L 257.708583 378.048907 
L 256.666063 381.978406 
L 255.38177 385.907905 
L 253.85234 389.837404 
L 253.405935 390.8266 
L 252.070621 393.766903 
L 250.044057 397.696401 
L 248.745744 399.941585 
L 247.756474 401.6259 
L 245.205325 405.555399 
L 244.085552 407.129679 
L 242.359064 409.484898 
L 239.42536 413.153898 
L 239.206549 413.414397 
L 235.662354 417.343896 
L 234.765168 418.273472 
L 231.636034 421.273394 
L 230.104976 422.656466 
L 226.953111 425.202893 
L 225.444784 426.363714 
L 221.239519 429.132392 
L 220.784593 429.421263 
L 216.124401 431.832703 
L 212.91712 433.061891 
L 211.464209 433.609765 
L 206.804017 434.738338 
L 202.143825 435.212131 
L 197.483634 435.020059 
L 192.823442 434.1507 
z
" clip-path="url(#p58b6f6027d)" style="fill: #5da5d1"/>
    <path d="M 192.823442 434.1507 
L 197.483634 435.020059 
L 202.143825 435.212131 
L 206.804017 434.738338 
L 211.464209 433.609765 
L 212.91712 433.061891 
L 216.124401 431.832703 
L 220.784593 429.421263 
L 221.239519 429.132392 
L 225.444784 426.363714 
L 226.953111 425.202893 
L 230.104976 422.656466 
L 231.636034 421.273394 
L 234.765168 418.273472 
L 235.662354 417.343896 
L 239.206549 413.414397 
L 239.42536 413.153898 
L 242.359064 409.484898 
L 244.085552 407.129679 
L 245.205325 405.555399 
L 247.756474 401.6259 
L 248.745744 399.941585 
L 250.044057 397.696401 
L 252.070621 393.766903 
L 253.405935 390.8266 
L 253.85234 389.837404 
L 255.38177 385.907905 
L 256.666063 381.978406 
L 257.708583 378.048907 
L 258.066127 376.272412 
L 258.498066 374.119409 
L 259.024754 370.18991 
L 259.284357 366.260411 
L 259.26181 362.330912 
L 258.934823 358.401413 
L 258.2727 354.471914 
L 258.066127 353.660289 
L 257.163405 350.542416 
L 255.540798 346.612917 
L 253.405935 342.815607 
L 253.313664 342.683418 
L 249.878647 338.753919 
L 248.745744 337.703139 
L 244.431367 334.82442 
L 244.085552 334.626149 
L 239.42536 332.769327 
L 234.765168 331.64859 
L 230.104976 331.033494 
L 227.8097 330.894922 
L 225.444784 330.755974 
L 220.784593 330.698028 
L 216.124401 330.788242 
L 213.657469 330.894922 
L 211.464209 330.989291 
L 206.804017 331.295522 
L 202.143825 331.740377 
L 197.483634 332.390174 
L 192.823442 333.346337 
L 188.16325 334.745079 
L 187.967487 334.82442 
L 183.503058 336.701352 
L 179.951185 338.753919 
L 178.842866 339.428451 
L 174.68151 342.683418 
L 174.182674 343.101453 
L 170.747374 346.612917 
L 169.522483 347.980626 
L 167.55905 350.542416 
L 164.862291 354.471914 
L 164.862291 354.471914 
L 162.667132 358.401413 
L 160.775637 362.330912 
L 160.202099 363.71603 
L 159.222324 366.260411 
L 157.969104 370.18991 
L 156.993474 374.119409 
L 156.299603 378.048907 
L 155.894453 381.978406 
L 155.787985 385.907905 
L 155.99338 389.837404 
L 156.527269 393.766903 
L 157.409985 397.696401 
L 158.665852 401.6259 
L 160.202099 405.274647 
L 160.324411 405.555399 
L 162.422678 409.484898 
L 164.862291 413.246134 
L 164.976661 413.414397 
L 168.048518 417.343896 
L 169.522483 418.997384 
L 171.699614 421.273394 
L 174.182674 423.604844 
L 176.076208 425.202893 
L 178.842866 427.343625 
L 181.559958 429.132392 
L 183.503058 430.327397 
L 188.16325 432.591011 
L 189.528711 433.061891 
z
M 188.16325 421.273394 
L 188.16325 421.273394 
L 183.503058 418.22654 
L 182.409927 417.343896 
L 178.842866 414.091346 
L 178.196218 413.414397 
L 174.937226 409.484898 
L 174.182674 408.404423 
L 172.357544 405.555399 
L 170.320636 401.6259 
L 169.522483 399.633056 
L 168.789027 397.696401 
L 167.730529 393.766903 
L 167.09409 389.837404 
L 166.866002 385.907905 
L 167.036244 381.978406 
L 167.59836 378.048907 
L 168.549463 374.119409 
L 169.522483 371.248208 
L 169.917212 370.18991 
L 171.788476 366.260411 
L 174.112349 362.330912 
L 174.182674 362.2277 
L 177.206276 358.401413 
L 178.842866 356.608382 
L 181.19041 354.471914 
L 183.503058 352.591555 
L 186.666935 350.542416 
L 188.16325 349.653338 
L 192.823442 347.50314 
L 195.394264 346.612917 
L 197.483634 345.928597 
L 202.143825 344.798315 
L 206.804017 344.005836 
L 211.464209 343.492801 
L 216.124401 343.239895 
L 220.784593 343.270164 
L 225.444784 343.655711 
L 230.104976 344.529332 
L 234.765168 346.102848 
L 235.754759 346.612917 
L 239.42536 348.918456 
L 241.200023 350.542416 
L 244.085552 354.063814 
L 244.339902 354.471914 
L 246.158641 358.401413 
L 247.30461 362.330912 
L 247.900194 366.260411 
L 248.036479 370.18991 
L 247.780091 374.119409 
L 247.178412 378.048907 
L 246.263502 381.978406 
L 245.055015 385.907905 
L 244.085552 388.446765 
L 243.539055 389.837404 
L 241.703469 393.766903 
L 239.595788 397.696401 
L 239.42536 397.976394 
L 237.102299 401.6259 
L 234.765168 404.922446 
L 234.284513 405.555399 
L 230.994861 409.484898 
L 230.104976 410.45976 
L 227.113273 413.414397 
L 225.444784 414.940021 
L 222.394879 417.343896 
L 220.784593 418.532312 
L 216.199101 421.273394 
L 216.124401 421.315755 
L 211.464209 423.272022 
L 206.804017 424.481176 
L 202.143825 424.909932 
L 197.483634 424.528304 
L 192.823442 423.317024 
z
" clip-path="url(#p58b6f6027d)" style="fill: #3787c0"/>
    <path d="M 192.823442 423.317024 
L 197.483634 424.528304 
L 202.143825 424.909932 
L 206.804017 424.481176 
L 211.464209 423.272022 
L 216.124401 421.315755 
L 216.199101 421.273394 
L 220.784593 418.532312 
L 222.394879 417.343896 
L 225.444784 414.940021 
L 227.113273 413.414397 
L 230.104976 410.45976 
L 230.994861 409.484898 
L 234.284513 405.555399 
L 234.765168 404.922446 
L 237.102299 401.6259 
L 239.42536 397.976394 
L 239.595788 397.696401 
L 241.703469 393.766903 
L 243.539055 389.837404 
L 244.085552 388.446765 
L 245.055015 385.907905 
L 246.263502 381.978406 
L 247.178412 378.048907 
L 247.780091 374.119409 
L 248.036479 370.18991 
L 247.900194 366.260411 
L 247.30461 362.330912 
L 246.158641 358.401413 
L 244.339902 354.471914 
L 244.085552 354.063814 
L 241.200023 350.542416 
L 239.42536 348.918456 
L 235.754759 346.612917 
L 234.765168 346.102848 
L 230.104976 344.529332 
L 225.444784 343.655711 
L 220.784593 343.270164 
L 216.124401 343.239895 
L 211.464209 343.492801 
L 206.804017 344.005836 
L 202.143825 344.798315 
L 197.483634 345.928597 
L 195.394264 346.612917 
L 192.823442 347.50314 
L 188.16325 349.653338 
L 186.666935 350.542416 
L 183.503058 352.591555 
L 181.19041 354.471914 
L 178.842866 356.608382 
L 177.206276 358.401413 
L 174.182674 362.2277 
L 174.112349 362.330912 
L 171.788476 366.260411 
L 169.917212 370.18991 
L 169.522483 371.248208 
L 168.549463 374.119409 
L 167.59836 378.048907 
L 167.036244 381.978406 
L 166.866002 385.907905 
L 167.09409 389.837404 
L 167.730529 393.766903 
L 168.789027 397.696401 
L 169.522483 399.633056 
L 170.320636 401.6259 
L 172.357544 405.555399 
L 174.182674 408.404423 
L 174.937226 409.484898 
L 178.196218 413.414397 
L 178.842866 414.091346 
L 182.409927 417.343896 
L 183.503058 418.22654 
L 188.16325 421.273394 
L 188.16325 421.273394 
z
M 191.331645 409.484898 
L 188.16325 407.000198 
L 186.755369 405.555399 
L 183.681549 401.6259 
L 183.503058 401.325445 
L 181.667847 397.696401 
L 180.294981 393.766903 
L 179.521037 389.837404 
L 179.337444 385.907905 
L 179.743524 381.978406 
L 180.746829 378.048907 
L 182.364044 374.119409 
L 183.503058 372.103 
L 184.789793 370.18991 
L 188.16325 366.272291 
L 188.175984 366.260411 
L 192.823442 362.637592 
L 193.339053 362.330912 
L 197.483634 360.168603 
L 202.143825 358.425776 
L 202.242958 358.401413 
L 206.804017 357.368363 
L 211.464209 356.834341 
L 216.124401 356.841461 
L 220.784593 357.486869 
L 223.739609 358.401413 
L 225.444784 359.059669 
L 230.104976 362.240693 
L 230.193527 362.330912 
L 232.937792 366.260411 
L 234.482728 370.18991 
L 234.765168 371.81832 
L 235.07883 374.119409 
L 235.043316 378.048907 
L 234.765168 380.067558 
L 234.482789 381.978406 
L 233.418096 385.907905 
L 231.947727 389.837404 
L 230.104976 393.766903 
L 230.104976 393.766903 
L 227.618488 397.696401 
L 225.444784 400.681985 
L 224.651816 401.6259 
L 220.895959 405.555399 
L 220.784593 405.659525 
L 216.124401 409.18885 
L 215.588059 409.484898 
L 211.464209 411.545867 
L 206.804017 412.916845 
L 202.143825 413.237535 
L 197.483634 412.432118 
L 192.823442 410.463525 
z
" clip-path="url(#p58b6f6027d)" style="fill: #1865ac"/>
    <path d="M 192.823442 410.463525 
L 197.483634 412.432118 
L 202.143825 413.237535 
L 206.804017 412.916845 
L 211.464209 411.545867 
L 215.588059 409.484898 
L 216.124401 409.18885 
L 220.784593 405.659525 
L 220.895959 405.555399 
L 224.651816 401.6259 
L 225.444784 400.681985 
L 227.618488 397.696401 
L 230.104976 393.766903 
L 230.104976 393.766903 
L 231.947727 389.837404 
L 233.418096 385.907905 
L 234.482789 381.978406 
L 234.765168 380.067558 
L 235.043316 378.048907 
L 235.07883 374.119409 
L 234.765168 371.81832 
L 234.482728 370.18991 
L 232.937792 366.260411 
L 230.193527 362.330912 
L 230.104976 362.240693 
L 225.444784 359.059669 
L 223.739609 358.401413 
L 220.784593 357.486869 
L 216.124401 356.841461 
L 211.464209 356.834341 
L 206.804017 357.368363 
L 202.242958 358.401413 
L 202.143825 358.425776 
L 197.483634 360.168603 
L 193.339053 362.330912 
L 192.823442 362.637592 
L 188.175984 366.260411 
L 188.16325 366.272291 
L 184.789793 370.18991 
L 183.503058 372.103 
L 182.364044 374.119409 
L 180.746829 378.048907 
L 179.743524 381.978406 
L 179.337444 385.907905 
L 179.521037 389.837404 
L 180.294981 393.766903 
L 181.667847 397.696401 
L 183.503058 401.325445 
L 183.681549 401.6259 
L 186.755369 405.555399 
L 188.16325 407.000198 
L 191.331645 409.484898 
z
" clip-path="url(#p58b6f6027d)" style="fill: #084387"/>
   </g>
   <g id="matplotlib.axis_1">
    <g id="xtick_1">
     <g id="line2d_1">
      <defs>
       <path id="m0bad70699b" d="M 0 0 
L 0 3.5 
" style="stroke: #000000; stroke-width: 0.8"/>
      </defs>
      <g>
       <use xlink:href="#m0bad70699b" x="98.119428" y="499.48" style="stroke: #000000; stroke-width: 0.8"/>
      </g>
     </g>
     <g id="text_1">
      <!-- 1 -->
      <g transform="translate(91.120678 523.196563) scale(0.22 -0.22)">
       <defs>
        <path id="DejaVuSans-31" d="M 794 531 
L 1825 531 
L 1825 4091 
L 703 3866 
L 703 4441 
L 1819 4666 
L 2450 4666 
L 2450 531 
L 3481 531 
L 3481 0 
L 794 0 
L 794 531 
z
" transform="scale(0.015625)"/>
       </defs>
       <use xlink:href="#DejaVuSans-31"/>
      </g>
     </g>
    </g>
    <g id="xtick_2">
     <g id="line2d_2">
      <g>
       <use xlink:href="#m0bad70699b" x="209.763874" y="499.48" style="stroke: #000000; stroke-width: 0.8"/>
      </g>
     </g>
     <g id="text_2">
      <!-- 2 -->
      <g transform="translate(202.765124 523.196563) scale(0.22 -0.22)">
       <defs>
        <path id="DejaVuSans-32" d="M 1228 531 
L 3431 531 
L 3431 0 
L 469 0 
L 469 531 
Q 828 903 1448 1529 
Q 2069 2156 2228 2338 
Q 2531 2678 2651 2914 
Q 2772 3150 2772 3378 
Q 2772 3750 2511 3984 
Q 2250 4219 1831 4219 
Q 1534 4219 1204 4116 
Q 875 4013 500 3803 
L 500 4441 
Q 881 4594 1212 4672 
Q 1544 4750 1819 4750 
Q 2544 4750 2975 4387 
Q 3406 4025 3406 3419 
Q 3406 3131 3298 2873 
Q 3191 2616 2906 2266 
Q 2828 2175 2409 1742 
Q 1991 1309 1228 531 
z
" transform="scale(0.015625)"/>
       </defs>
       <use xlink:href="#DejaVuSans-32"/>
      </g>
     </g>
    </g>
    <g id="xtick_3">
     <g id="line2d_3">
      <g>
       <use xlink:href="#m0bad70699b" x="321.40832" y="499.48" style="stroke: #000000; stroke-width: 0.8"/>
      </g>
     </g>
     <g id="text_3">
      <!-- 3 -->
      <g transform="translate(314.40957 523.196563) scale(0.22 -0.22)">
       <defs>
        <path id="DejaVuSans-33" d="M 2597 2516 
Q 3050 2419 3304 2112 
Q 3559 1806 3559 1356 
Q 3559 666 3084 287 
Q 2609 -91 1734 -91 
Q 1441 -91 1130 -33 
Q 819 25 488 141 
L 488 750 
Q 750 597 1062 519 
Q 1375 441 1716 441 
Q 2309 441 2620 675 
Q 2931 909 2931 1356 
Q 2931 1769 2642 2001 
Q 2353 2234 1838 2234 
L 1294 2234 
L 1294 2753 
L 1863 2753 
Q 2328 2753 2575 2939 
Q 2822 3125 2822 3475 
Q 2822 3834 2567 4026 
Q 2313 4219 1838 4219 
Q 1578 4219 1281 4162 
Q 984 4106 628 3988 
L 628 4550 
Q 988 4650 1302 4700 
Q 1616 4750 1894 4750 
Q 2613 4750 3031 4423 
Q 3450 4097 3450 3541 
Q 3450 3153 3228 2886 
Q 3006 2619 2597 2516 
z
" transform="scale(0.015625)"/>
       </defs>
       <use xlink:href="#DejaVuSans-33"/>
      </g>
     </g>
    </g>
    <g id="xtick_4">
     <g id="line2d_4">
      <g>
       <use xlink:href="#m0bad70699b" x="433.052767" y="499.48" style="stroke: #000000; stroke-width: 0.8"/>
      </g>
     </g>
     <g id="text_4">
      <!-- 4 -->
      <g transform="translate(426.054017 523.196563) scale(0.22 -0.22)">
       <defs>
        <path id="DejaVuSans-34" d="M 2419 4116 
L 825 1625 
L 2419 1625 
L 2419 4116 
z
M 2253 4666 
L 3047 4666 
L 3047 1625 
L 3713 1625 
L 3713 1100 
L 3047 1100 
L 3047 0 
L 2419 0 
L 2419 1100 
L 313 1100 
L 313 1709 
L 2253 4666 
z
" transform="scale(0.015625)"/>
       </defs>
       <use xlink:href="#DejaVuSans-34"/>
      </g>
     </g>
    </g>
    <g id="xtick_5">
     <g id="line2d_5">
      <g>
       <use xlink:href="#m0bad70699b" x="544.697213" y="499.48" style="stroke: #000000; stroke-width: 0.8"/>
      </g>
     </g>
     <g id="text_5">
      <!-- 5 -->
      <g transform="translate(537.698463 523.196563) scale(0.22 -0.22)">
       <defs>
        <path id="DejaVuSans-35" d="M 691 4666 
L 3169 4666 
L 3169 4134 
L 1269 4134 
L 1269 2991 
Q 1406 3038 1543 3061 
Q 1681 3084 1819 3084 
Q 2600 3084 3056 2656 
Q 3513 2228 3513 1497 
Q 3513 744 3044 326 
Q 2575 -91 1722 -91 
Q 1428 -91 1123 -41 
Q 819 9 494 109 
L 494 744 
Q 775 591 1075 516 
Q 1375 441 1709 441 
Q 2250 441 2565 725 
Q 2881 1009 2881 1497 
Q 2881 1984 2565 2268 
Q 2250 2553 1709 2553 
Q 1456 2553 1204 2497 
Q 953 2441 691 2322 
L 691 4666 
z
" transform="scale(0.015625)"/>
       </defs>
       <use xlink:href="#DejaVuSans-35"/>
      </g>
     </g>
    </g>
    <g id="xtick_6">
     <g id="line2d_6">
      <g>
       <use xlink:href="#m0bad70699b" x="656.341659" y="499.48" style="stroke: #000000; stroke-width: 0.8"/>
      </g>
     </g>
     <g id="text_6">
      <!-- 6 -->
      <g transform="translate(649.342909 523.196563) scale(0.22 -0.22)">
       <defs>
        <path id="DejaVuSans-36" d="M 2113 2584 
Q 1688 2584 1439 2293 
Q 1191 2003 1191 1497 
Q 1191 994 1439 701 
Q 1688 409 2113 409 
Q 2538 409 2786 701 
Q 3034 994 3034 1497 
Q 3034 2003 2786 2293 
Q 2538 2584 2113 2584 
z
M 3366 4563 
L 3366 3988 
Q 3128 4100 2886 4159 
Q 2644 4219 2406 4219 
Q 1781 4219 1451 3797 
Q 1122 3375 1075 2522 
Q 1259 2794 1537 2939 
Q 1816 3084 2150 3084 
Q 2853 3084 3261 2657 
Q 3669 2231 3669 1497 
Q 3669 778 3244 343 
Q 2819 -91 2113 -91 
Q 1303 -91 875 529 
Q 447 1150 447 2328 
Q 447 3434 972 4092 
Q 1497 4750 2381 4750 
Q 2619 4750 2861 4703 
Q 3103 4656 3366 4563 
z
" transform="scale(0.015625)"/>
       </defs>
       <use xlink:href="#DejaVuSans-36"/>
      </g>
     </g>
    </g>
    <g id="text_7">
     <!-- Force Uncertainties -->
     <g transform="translate(276.406094 548.488438) scale(0.22 -0.22)">
      <defs>
       <path id="DejaVuSans-46" d="M 628 4666 
L 3309 4666 
L 3309 4134 
L 1259 4134 
L 1259 2759 
L 3109 2759 
L 3109 2228 
L 1259 2228 
L 1259 0 
L 628 0 
L 628 4666 
z
" transform="scale(0.015625)"/>
       <path id="DejaVuSans-6f" d="M 1959 3097 
Q 1497 3097 1228 2736 
Q 959 2375 959 1747 
Q 959 1119 1226 758 
Q 1494 397 1959 397 
Q 2419 397 2687 759 
Q 2956 1122 2956 1747 
Q 2956 2369 2687 2733 
Q 2419 3097 1959 3097 
z
M 1959 3584 
Q 2709 3584 3137 3096 
Q 3566 2609 3566 1747 
Q 3566 888 3137 398 
Q 2709 -91 1959 -91 
Q 1206 -91 779 398 
Q 353 888 353 1747 
Q 353 2609 779 3096 
Q 1206 3584 1959 3584 
z
" transform="scale(0.015625)"/>
       <path id="DejaVuSans-72" d="M 2631 2963 
Q 2534 3019 2420 3045 
Q 2306 3072 2169 3072 
Q 1681 3072 1420 2755 
Q 1159 2438 1159 1844 
L 1159 0 
L 581 0 
L 581 3500 
L 1159 3500 
L 1159 2956 
Q 1341 3275 1631 3429 
Q 1922 3584 2338 3584 
Q 2397 3584 2469 3576 
Q 2541 3569 2628 3553 
L 2631 2963 
z
" transform="scale(0.015625)"/>
       <path id="DejaVuSans-63" d="M 3122 3366 
L 3122 2828 
Q 2878 2963 2633 3030 
Q 2388 3097 2138 3097 
Q 1578 3097 1268 2742 
Q 959 2388 959 1747 
Q 959 1106 1268 751 
Q 1578 397 2138 397 
Q 2388 397 2633 464 
Q 2878 531 3122 666 
L 3122 134 
Q 2881 22 2623 -34 
Q 2366 -91 2075 -91 
Q 1284 -91 818 406 
Q 353 903 353 1747 
Q 353 2603 823 3093 
Q 1294 3584 2113 3584 
Q 2378 3584 2631 3529 
Q 2884 3475 3122 3366 
z
" transform="scale(0.015625)"/>
       <path id="DejaVuSans-65" d="M 3597 1894 
L 3597 1613 
L 953 1613 
Q 991 1019 1311 708 
Q 1631 397 2203 397 
Q 2534 397 2845 478 
Q 3156 559 3463 722 
L 3463 178 
Q 3153 47 2828 -22 
Q 2503 -91 2169 -91 
Q 1331 -91 842 396 
Q 353 884 353 1716 
Q 353 2575 817 3079 
Q 1281 3584 2069 3584 
Q 2775 3584 3186 3129 
Q 3597 2675 3597 1894 
z
M 3022 2063 
Q 3016 2534 2758 2815 
Q 2500 3097 2075 3097 
Q 1594 3097 1305 2825 
Q 1016 2553 972 2059 
L 3022 2063 
z
" transform="scale(0.015625)"/>
       <path id="DejaVuSans-20" transform="scale(0.015625)"/>
       <path id="DejaVuSans-55" d="M 556 4666 
L 1191 4666 
L 1191 1831 
Q 1191 1081 1462 751 
Q 1734 422 2344 422 
Q 2950 422 3222 751 
Q 3494 1081 3494 1831 
L 3494 4666 
L 4128 4666 
L 4128 1753 
Q 4128 841 3676 375 
Q 3225 -91 2344 -91 
Q 1459 -91 1007 375 
Q 556 841 556 1753 
L 556 4666 
z
" transform="scale(0.015625)"/>
       <path id="DejaVuSans-6e" d="M 3513 2113 
L 3513 0 
L 2938 0 
L 2938 2094 
Q 2938 2591 2744 2837 
Q 2550 3084 2163 3084 
Q 1697 3084 1428 2787 
Q 1159 2491 1159 1978 
L 1159 0 
L 581 0 
L 581 3500 
L 1159 3500 
L 1159 2956 
Q 1366 3272 1645 3428 
Q 1925 3584 2291 3584 
Q 2894 3584 3203 3211 
Q 3513 2838 3513 2113 
z
" transform="scale(0.015625)"/>
       <path id="DejaVuSans-74" d="M 1172 4494 
L 1172 3500 
L 2356 3500 
L 2356 3053 
L 1172 3053 
L 1172 1153 
Q 1172 725 1289 603 
Q 1406 481 1766 481 
L 2356 481 
L 2356 0 
L 1766 0 
Q 1100 0 847 248 
Q 594 497 594 1153 
L 594 3053 
L 172 3053 
L 172 3500 
L 594 3500 
L 594 4494 
L 1172 4494 
z
" transform="scale(0.015625)"/>
       <path id="DejaVuSans-61" d="M 2194 1759 
Q 1497 1759 1228 1600 
Q 959 1441 959 1056 
Q 959 750 1161 570 
Q 1363 391 1709 391 
Q 2188 391 2477 730 
Q 2766 1069 2766 1631 
L 2766 1759 
L 2194 1759 
z
M 3341 1997 
L 3341 0 
L 2766 0 
L 2766 531 
Q 2569 213 2275 61 
Q 1981 -91 1556 -91 
Q 1019 -91 701 211 
Q 384 513 384 1019 
Q 384 1609 779 1909 
Q 1175 2209 1959 2209 
L 2766 2209 
L 2766 2266 
Q 2766 2663 2505 2880 
Q 2244 3097 1772 3097 
Q 1472 3097 1187 3025 
Q 903 2953 641 2809 
L 641 3341 
Q 956 3463 1253 3523 
Q 1550 3584 1831 3584 
Q 2591 3584 2966 3190 
Q 3341 2797 3341 1997 
z
" transform="scale(0.015625)"/>
       <path id="DejaVuSans-69" d="M 603 3500 
L 1178 3500 
L 1178 0 
L 603 0 
L 603 3500 
z
M 603 4863 
L 1178 4863 
L 1178 4134 
L 603 4134 
L 603 4863 
z
" transform="scale(0.015625)"/>
       <path id="DejaVuSans-73" d="M 2834 3397 
L 2834 2853 
Q 2591 2978 2328 3040 
Q 2066 3103 1784 3103 
Q 1356 3103 1142 2972 
Q 928 2841 928 2578 
Q 928 2378 1081 2264 
Q 1234 2150 1697 2047 
L 1894 2003 
Q 2506 1872 2764 1633 
Q 3022 1394 3022 966 
Q 3022 478 2636 193 
Q 2250 -91 1575 -91 
Q 1294 -91 989 -36 
Q 684 19 347 128 
L 347 722 
Q 666 556 975 473 
Q 1284 391 1588 391 
Q 1994 391 2212 530 
Q 2431 669 2431 922 
Q 2431 1156 2273 1281 
Q 2116 1406 1581 1522 
L 1381 1569 
Q 847 1681 609 1914 
Q 372 2147 372 2553 
Q 372 3047 722 3315 
Q 1072 3584 1716 3584 
Q 2034 3584 2315 3537 
Q 2597 3491 2834 3397 
z
" transform="scale(0.015625)"/>
      </defs>
      <use xlink:href="#DejaVuSans-46"/>
      <use xlink:href="#DejaVuSans-6f" x="53.894531"/>
      <use xlink:href="#DejaVuSans-72" x="115.076172"/>
      <use xlink:href="#DejaVuSans-63" x="153.939453"/>
      <use xlink:href="#DejaVuSans-65" x="208.919922"/>
      <use xlink:href="#DejaVuSans-20" x="270.443359"/>
      <use xlink:href="#DejaVuSans-55" x="302.230469"/>
      <use xlink:href="#DejaVuSans-6e" x="375.423828"/>
      <use xlink:href="#DejaVuSans-63" x="438.802734"/>
      <use xlink:href="#DejaVuSans-65" x="493.783203"/>
      <use xlink:href="#DejaVuSans-72" x="555.306641"/>
      <use xlink:href="#DejaVuSans-74" x="596.419922"/>
      <use xlink:href="#DejaVuSans-61" x="635.628906"/>
      <use xlink:href="#DejaVuSans-69" x="696.908203"/>
      <use xlink:href="#DejaVuSans-6e" x="724.691406"/>
      <use xlink:href="#DejaVuSans-74" x="788.070312"/>
      <use xlink:href="#DejaVuSans-69" x="827.279297"/>
      <use xlink:href="#DejaVuSans-65" x="855.0625"/>
      <use xlink:href="#DejaVuSans-73" x="916.585938"/>
     </g>
    </g>
   </g>
   <g id="matplotlib.axis_2">
    <g id="ytick_1">
     <g id="line2d_7">
      <defs>
       <path id="m2199a3e4b2" d="M 0 0 
L -3.5 0 
" style="stroke: #000000; stroke-width: 0.8"/>
      </defs>
      <g>
       <use xlink:href="#m2199a3e4b2" x="69.68" y="477.887168" style="stroke: #000000; stroke-width: 0.8"/>
      </g>
     </g>
     <g id="text_8">
      <!-- 1 -->
      <g transform="translate(48.6825 486.24545) scale(0.22 -0.22)">
       <use xlink:href="#DejaVuSans-31"/>
      </g>
     </g>
    </g>
    <g id="ytick_2">
     <g id="line2d_8">
      <g>
       <use xlink:href="#m2199a3e4b2" x="69.68" y="393.120353" style="stroke: #000000; stroke-width: 0.8"/>
      </g>
     </g>
     <g id="text_9">
      <!-- 2 -->
      <g transform="translate(48.6825 401.478634) scale(0.22 -0.22)">
       <use xlink:href="#DejaVuSans-32"/>
      </g>
     </g>
    </g>
    <g id="ytick_3">
     <g id="line2d_9">
      <g>
       <use xlink:href="#m2199a3e4b2" x="69.68" y="308.353537" style="stroke: #000000; stroke-width: 0.8"/>
      </g>
     </g>
     <g id="text_10">
      <!-- 3 -->
      <g transform="translate(48.6825 316.711818) scale(0.22 -0.22)">
       <use xlink:href="#DejaVuSans-33"/>
      </g>
     </g>
    </g>
    <g id="ytick_4">
     <g id="line2d_10">
      <g>
       <use xlink:href="#m2199a3e4b2" x="69.68" y="223.586721" style="stroke: #000000; stroke-width: 0.8"/>
      </g>
     </g>
     <g id="text_11">
      <!-- 4 -->
      <g transform="translate(48.6825 231.945003) scale(0.22 -0.22)">
       <use xlink:href="#DejaVuSans-34"/>
      </g>
     </g>
    </g>
    <g id="ytick_5">
     <g id="line2d_11">
      <g>
       <use xlink:href="#m2199a3e4b2" x="69.68" y="138.819906" style="stroke: #000000; stroke-width: 0.8"/>
      </g>
     </g>
     <g id="text_12">
      <!-- 5 -->
      <g transform="translate(48.6825 147.178187) scale(0.22 -0.22)">
       <use xlink:href="#DejaVuSans-35"/>
      </g>
     </g>
    </g>
    <g id="ytick_6">
     <g id="line2d_12">
      <g>
       <use xlink:href="#m2199a3e4b2" x="69.68" y="54.05309" style="stroke: #000000; stroke-width: 0.8"/>
      </g>
     </g>
     <g id="text_13">
      <!-- 6 -->
      <g transform="translate(48.6825 62.411371) scale(0.22 -0.22)">
       <use xlink:href="#DejaVuSans-36"/>
      </g>
     </g>
    </g>
    <g id="text_14">
     <!-- Force Errors [kJ/(mol*A)] -->
     <g transform="translate(40.107187 394.9125) rotate(-90) scale(0.22 -0.22)">
      <defs>
       <path id="DejaVuSans-45" d="M 628 4666 
L 3578 4666 
L 3578 4134 
L 1259 4134 
L 1259 2753 
L 3481 2753 
L 3481 2222 
L 1259 2222 
L 1259 531 
L 3634 531 
L 3634 0 
L 628 0 
L 628 4666 
z
" transform="scale(0.015625)"/>
       <path id="DejaVuSans-5b" d="M 550 4863 
L 1875 4863 
L 1875 4416 
L 1125 4416 
L 1125 -397 
L 1875 -397 
L 1875 -844 
L 550 -844 
L 550 4863 
z
" transform="scale(0.015625)"/>
       <path id="DejaVuSans-6b" d="M 581 4863 
L 1159 4863 
L 1159 1991 
L 2875 3500 
L 3609 3500 
L 1753 1863 
L 3688 0 
L 2938 0 
L 1159 1709 
L 1159 0 
L 581 0 
L 581 4863 
z
" transform="scale(0.015625)"/>
       <path id="DejaVuSans-4a" d="M 628 4666 
L 1259 4666 
L 1259 325 
Q 1259 -519 939 -900 
Q 619 -1281 -91 -1281 
L -331 -1281 
L -331 -750 
L -134 -750 
Q 284 -750 456 -515 
Q 628 -281 628 325 
L 628 4666 
z
" transform="scale(0.015625)"/>
       <path id="DejaVuSans-2f" d="M 1625 4666 
L 2156 4666 
L 531 -594 
L 0 -594 
L 1625 4666 
z
" transform="scale(0.015625)"/>
       <path id="DejaVuSans-28" d="M 1984 4856 
Q 1566 4138 1362 3434 
Q 1159 2731 1159 2009 
Q 1159 1288 1364 580 
Q 1569 -128 1984 -844 
L 1484 -844 
Q 1016 -109 783 600 
Q 550 1309 550 2009 
Q 550 2706 781 3412 
Q 1013 4119 1484 4856 
L 1984 4856 
z
" transform="scale(0.015625)"/>
       <path id="DejaVuSans-6d" d="M 3328 2828 
Q 3544 3216 3844 3400 
Q 4144 3584 4550 3584 
Q 5097 3584 5394 3201 
Q 5691 2819 5691 2113 
L 5691 0 
L 5113 0 
L 5113 2094 
Q 5113 2597 4934 2840 
Q 4756 3084 4391 3084 
Q 3944 3084 3684 2787 
Q 3425 2491 3425 1978 
L 3425 0 
L 2847 0 
L 2847 2094 
Q 2847 2600 2669 2842 
Q 2491 3084 2119 3084 
Q 1678 3084 1418 2786 
Q 1159 2488 1159 1978 
L 1159 0 
L 581 0 
L 581 3500 
L 1159 3500 
L 1159 2956 
Q 1356 3278 1631 3431 
Q 1906 3584 2284 3584 
Q 2666 3584 2933 3390 
Q 3200 3197 3328 2828 
z
" transform="scale(0.015625)"/>
       <path id="DejaVuSans-6c" d="M 603 4863 
L 1178 4863 
L 1178 0 
L 603 0 
L 603 4863 
z
" transform="scale(0.015625)"/>
       <path id="DejaVuSans-2a" d="M 3009 3897 
L 1888 3291 
L 3009 2681 
L 2828 2375 
L 1778 3009 
L 1778 1831 
L 1422 1831 
L 1422 3009 
L 372 2375 
L 191 2681 
L 1313 3291 
L 191 3897 
L 372 4206 
L 1422 3572 
L 1422 4750 
L 1778 4750 
L 1778 3572 
L 2828 4206 
L 3009 3897 
z
" transform="scale(0.015625)"/>
       <path id="DejaVuSans-41" d="M 2188 4044 
L 1331 1722 
L 3047 1722 
L 2188 4044 
z
M 1831 4666 
L 2547 4666 
L 4325 0 
L 3669 0 
L 3244 1197 
L 1141 1197 
L 716 0 
L 50 0 
L 1831 4666 
z
" transform="scale(0.015625)"/>
       <path id="DejaVuSans-29" d="M 513 4856 
L 1013 4856 
Q 1481 4119 1714 3412 
Q 1947 2706 1947 2009 
Q 1947 1309 1714 600 
Q 1481 -109 1013 -844 
L 513 -844 
Q 928 -128 1133 580 
Q 1338 1288 1338 2009 
Q 1338 2731 1133 3434 
Q 928 4138 513 4856 
z
" transform="scale(0.015625)"/>
       <path id="DejaVuSans-5d" d="M 1947 4863 
L 1947 -844 
L 622 -844 
L 622 -397 
L 1369 -397 
L 1369 4416 
L 622 4416 
L 622 4863 
L 1947 4863 
z
" transform="scale(0.015625)"/>
      </defs>
      <use xlink:href="#DejaVuSans-46"/>
      <use xlink:href="#DejaVuSans-6f" x="53.894531"/>
      <use xlink:href="#DejaVuSans-72" x="115.076172"/>
      <use xlink:href="#DejaVuSans-63" x="153.939453"/>
      <use xlink:href="#DejaVuSans-65" x="208.919922"/>
      <use xlink:href="#DejaVuSans-20" x="270.443359"/>
      <use xlink:href="#DejaVuSans-45" x="302.230469"/>
      <use xlink:href="#DejaVuSans-72" x="365.414062"/>
      <use xlink:href="#DejaVuSans-72" x="404.777344"/>
      <use xlink:href="#DejaVuSans-6f" x="443.640625"/>
      <use xlink:href="#DejaVuSans-72" x="504.822266"/>
      <use xlink:href="#DejaVuSans-73" x="545.935547"/>
      <use xlink:href="#DejaVuSans-20" x="598.035156"/>
      <use xlink:href="#DejaVuSans-5b" x="629.822266"/>
      <use xlink:href="#DejaVuSans-6b" x="668.835938"/>
      <use xlink:href="#DejaVuSans-4a" x="726.746094"/>
      <use xlink:href="#DejaVuSans-2f" x="756.238281"/>
      <use xlink:href="#DejaVuSans-28" x="789.929688"/>
      <use xlink:href="#DejaVuSans-6d" x="828.943359"/>
      <use xlink:href="#DejaVuSans-6f" x="926.355469"/>
      <use xlink:href="#DejaVuSans-6c" x="987.537109"/>
      <use xlink:href="#DejaVuSans-2a" x="1015.320312"/>
      <use xlink:href="#DejaVuSans-41" x="1065.320312"/>
      <use xlink:href="#DejaVuSans-29" x="1133.728516"/>
      <use xlink:href="#DejaVuSans-5d" x="1172.742188"/>
     </g>
    </g>
   </g>
   <g id="line2d_13">
    <path d="M 69.68 499.48 
L 696.24 23.76 
" clip-path="url(#p58b6f6027d)" style="fill: none; stroke-dasharray: 5.55,2.4; stroke-dashoffset: 0; stroke: #ff0000; stroke-width: 1.5"/>
   </g>
   <g id="patch_3">
    <path d="M 69.68 499.48 
L 69.68 23.76 
" style="fill: none; stroke: #000000; stroke-width: 0.8; stroke-linejoin: miter; stroke-linecap: square"/>
   </g>
   <g id="patch_4">
    <path d="M 696.24 499.48 
L 696.24 23.76 
" style="fill: none; stroke: #000000; stroke-width: 0.8; stroke-linejoin: miter; stroke-linecap: square"/>
   </g>
   <g id="patch_5">
    <path d="M 69.68 499.48 
L 696.24 499.48 
" style="fill: none; stroke: #000000; stroke-width: 0.8; stroke-linejoin: miter; stroke-linecap: square"/>
   </g>
   <g id="patch_6">
    <path d="M 69.68 23.76 
L 696.24 23.76 
" style="fill: none; stroke: #000000; stroke-width: 0.8; stroke-linejoin: miter; stroke-linecap: square"/>
   </g>
   <g id="text_15">
    <!-- Correlation in: 0.262 -->
    <g transform="translate(132.336 71.332) scale(0.22 -0.22)">
     <defs>
      <path id="DejaVuSans-43" d="M 4122 4306 
L 4122 3641 
Q 3803 3938 3442 4084 
Q 3081 4231 2675 4231 
Q 1875 4231 1450 3742 
Q 1025 3253 1025 2328 
Q 1025 1406 1450 917 
Q 1875 428 2675 428 
Q 3081 428 3442 575 
Q 3803 722 4122 1019 
L 4122 359 
Q 3791 134 3420 21 
Q 3050 -91 2638 -91 
Q 1578 -91 968 557 
Q 359 1206 359 2328 
Q 359 3453 968 4101 
Q 1578 4750 2638 4750 
Q 3056 4750 3426 4639 
Q 3797 4528 4122 4306 
z
" transform="scale(0.015625)"/>
      <path id="DejaVuSans-3a" d="M 750 794 
L 1409 794 
L 1409 0 
L 750 0 
L 750 794 
z
M 750 3309 
L 1409 3309 
L 1409 2516 
L 750 2516 
L 750 3309 
z
" transform="scale(0.015625)"/>
      <path id="DejaVuSans-30" d="M 2034 4250 
Q 1547 4250 1301 3770 
Q 1056 3291 1056 2328 
Q 1056 1369 1301 889 
Q 1547 409 2034 409 
Q 2525 409 2770 889 
Q 3016 1369 3016 2328 
Q 3016 3291 2770 3770 
Q 2525 4250 2034 4250 
z
M 2034 4750 
Q 2819 4750 3233 4129 
Q 3647 3509 3647 2328 
Q 3647 1150 3233 529 
Q 2819 -91 2034 -91 
Q 1250 -91 836 529 
Q 422 1150 422 2328 
Q 422 3509 836 4129 
Q 1250 4750 2034 4750 
z
" transform="scale(0.015625)"/>
      <path id="DejaVuSans-2e" d="M 684 794 
L 1344 794 
L 1344 0 
L 684 0 
L 684 794 
z
" transform="scale(0.015625)"/>
     </defs>
     <use xlink:href="#DejaVuSans-43"/>
     <use xlink:href="#DejaVuSans-6f" x="69.824219"/>
     <use xlink:href="#DejaVuSans-72" x="131.005859"/>
     <use xlink:href="#DejaVuSans-72" x="170.369141"/>
     <use xlink:href="#DejaVuSans-65" x="209.232422"/>
     <use xlink:href="#DejaVuSans-6c" x="270.755859"/>
     <use xlink:href="#DejaVuSans-61" x="298.539062"/>
     <use xlink:href="#DejaVuSans-74" x="359.818359"/>
     <use xlink:href="#DejaVuSans-69" x="399.027344"/>
     <use xlink:href="#DejaVuSans-6f" x="426.810547"/>
     <use xlink:href="#DejaVuSans-6e" x="487.992188"/>
     <use xlink:href="#DejaVuSans-20" x="551.371094"/>
     <use xlink:href="#DejaVuSans-69" x="583.158203"/>
     <use xlink:href="#DejaVuSans-6e" x="610.941406"/>
     <use xlink:href="#DejaVuSans-3a" x="674.320312"/>
     <use xlink:href="#DejaVuSans-20" x="708.011719"/>
     <use xlink:href="#DejaVuSans-30" x="739.798828"/>
     <use xlink:href="#DejaVuSans-2e" x="803.421875"/>
     <use xlink:href="#DejaVuSans-32" x="835.208984"/>
     <use xlink:href="#DejaVuSans-36" x="898.832031"/>
     <use xlink:href="#DejaVuSans-32" x="962.455078"/>
    </g>
   </g>
  </g>
 </g>
 <defs>
  <clipPath id="p58b6f6027d">
   <rect x="69.68" y="23.76" width="626.56" height="475.72"/>
  </clipPath>
 </defs>
</svg>
