<?xml version="1.0" encoding="utf-8" standalone="no"?>
<!DOCTYPE svg PUBLIC "-//W3C//DTD SVG 1.1//EN"
  "http://www.w3.org/Graphics/SVG/1.1/DTD/svg11.dtd">
<svg xmlns:xlink="http://www.w3.org/1999/xlink" width="720pt" height="576pt" viewBox="0 0 720 576" xmlns="http://www.w3.org/2000/svg" version="1.1">
 <metadata>
  <rdf:RDF xmlns:dc="http://purl.org/dc/elements/1.1/" xmlns:cc="http://creativecommons.org/ns#" xmlns:rdf="http://www.w3.org/1999/02/22-rdf-syntax-ns#">
   <cc:Work>
    <dc:type rdf:resource="http://purl.org/dc/dcmitype/StillImage"/>
    <dc:date>2024-12-05T11:03:52.493809</dc:date>
    <dc:format>image/svg+xml</dc:format>
    <dc:creator>
     <cc:Agent>
      <dc:title>Matplotlib v3.8.4, https://matplotlib.org/</dc:title>
     </cc:Agent>
    </dc:creator>
   </cc:Work>
  </rdf:RDF>
 </metadata>
 <defs>
  <style type="text/css">*{stroke-linejoin: round; stroke-linecap: butt}</style>
 </defs>
 <g id="figure_1">
  <g id="patch_1">
   <path d="M 0 576 
L 720 576 
L 720 0 
L 0 0 
z
" style="fill: #ffffff"/>
  </g>
  <g id="axes_1">
   <g id="patch_2">
    <path d="M 44.66 534.04 
L 709.2 534.04 
L 709.2 25.44 
L 44.66 25.44 
z
" style="fill: #ffffff"/>
   </g>
   <g id="QuadContourSet_1">
    <path d="M 52.463383 536.691761 
L 52.887915 536.832127 
L 53.312448 536.625312 
L 53.73698 535.531025 
L 53.830197 535.163417 
L 54.161513 533.684372 
L 54.213981 533.459477 
L 54.533814 531.755537 
L 54.586046 530.947288 
L 54.756414 530.051597 
L 54.917296 528.347657 
L 54.975353 526.643717 
L 55.003931 524.939778 
L 55.010578 523.235838 
L 54.979285 521.531898 
L 54.831516 519.827958 
L 54.586046 518.499649 
L 54.501542 518.124018 
L 54.161513 516.88896 
L 53.976866 516.420078 
L 53.73698 515.586912 
L 53.312448 515.414728 
L 52.926716 516.420078 
L 52.887915 516.508754 
L 52.56097 518.124018 
L 52.463383 518.671967 
L 52.301536 519.827958 
L 52.127175 521.531898 
L 52.03885 522.775807 
L 51.986281 523.235838 
L 51.833254 524.939778 
L 51.739736 526.643717 
L 51.701044 528.347657 
L 51.685662 530.051597 
L 51.697823 531.755537 
L 51.771874 533.459477 
L 52.03885 535.133585 
L 52.042624 535.163417 
z
M 52.251585 533.459477 
L 52.12369 531.755537 
L 52.100723 530.051597 
L 52.130613 528.347657 
L 52.223806 526.643717 
L 52.422489 524.939778 
L 52.463383 524.644076 
L 52.629089 523.235838 
L 52.887915 521.863914 
L 52.999129 521.531898 
L 53.312448 520.510354 
L 53.73698 520.390124 
L 54.161513 521.43707 
L 54.181753 521.531898 
L 54.489973 523.235838 
L 54.577919 524.939778 
L 54.575255 526.643717 
L 54.534771 528.347657 
L 54.439588 530.051597 
L 54.161513 531.690748 
L 54.15424 531.755537 
L 53.859989 533.459477 
L 53.73698 533.963532 
L 53.312448 534.984054 
L 52.887915 535.163417 
L 52.463383 534.507722 
z
" clip-path="url(#pe713b913fe)" style="fill: #e7e7f3"/>
    <path d="M 52.463383 534.507722 
L 52.887915 535.163417 
L 53.312448 534.984054 
L 53.73698 533.963532 
L 53.859989 533.459477 
L 54.15424 531.755537 
L 54.161513 531.690748 
L 54.439588 530.051597 
L 54.534771 528.347657 
L 54.575255 526.643717 
L 54.577919 524.939778 
L 54.489973 523.235838 
L 54.181753 521.531898 
L 54.161513 521.43707 
L 53.73698 520.390124 
L 53.312448 520.510354 
L 52.999129 521.531898 
L 52.887915 521.863914 
L 52.629089 523.235838 
L 52.463383 524.644076 
L 52.422489 524.939778 
L 52.223806 526.643717 
L 52.130613 528.347657 
L 52.100723 530.051597 
L 52.12369 531.755537 
L 52.251585 533.459477 
z
M 52.719691 533.459477 
L 52.463383 531.755537 
L 52.463383 531.755537 
L 52.390814 530.051597 
L 52.46193 528.347657 
L 52.463383 528.333213 
L 52.576566 526.643717 
L 52.818018 524.939778 
L 52.887915 524.550684 
L 53.282318 523.235838 
L 53.312448 523.132586 
L 53.73698 522.837221 
L 53.8723 523.235838 
L 54.161513 524.295753 
L 54.250832 524.939778 
L 54.347483 526.643717 
L 54.313102 528.347657 
L 54.161513 529.772694 
L 54.144198 530.051597 
L 53.941801 531.755537 
L 53.73698 532.692428 
L 53.440717 533.459477 
L 53.312448 533.847799 
L 52.887915 533.949749 
z
" clip-path="url(#pe713b913fe)" style="fill: #ccccf5"/>
    <path d="M 52.887915 533.949749 
L 53.312448 533.847799 
L 53.440717 533.459477 
L 53.73698 532.692428 
L 53.941801 531.755537 
L 54.144198 530.051597 
L 54.161513 529.772694 
L 54.313102 528.347657 
L 54.347483 526.643717 
L 54.250832 524.939778 
L 54.161513 524.295753 
L 53.8723 523.235838 
L 53.73698 522.837221 
L 53.312448 523.132586 
L 53.282318 523.235838 
L 52.887915 524.550684 
L 52.818018 524.939778 
L 52.576566 526.643717 
L 52.463383 528.333213 
L 52.46193 528.347657 
L 52.390814 530.051597 
L 52.463383 531.755537 
L 52.463383 531.755537 
L 52.719691 533.459477 
z
M 52.862012 533.459477 
L 52.529441 531.755537 
L 52.477246 530.051597 
L 52.51847 528.347657 
L 52.651956 526.643717 
L 52.887915 525.154684 
L 52.939835 524.939778 
L 53.312448 523.59258 
L 53.73698 523.397062 
L 54.139536 524.939778 
L 54.161513 525.155149 
L 54.269641 526.643717 
L 54.237345 528.347657 
L 54.161513 529.060528 
L 54.099983 530.051597 
L 53.869199 531.755537 
L 53.73698 532.36033 
L 53.312448 533.459477 
L 53.312448 533.459477 
L 52.887915 533.534971 
z
" clip-path="url(#pe713b913fe)" style="fill: #b3b3f6"/>
    <path d="M 52.887915 533.534971 
L 53.312448 533.459477 
L 53.312448 533.459477 
L 53.73698 532.36033 
L 53.869199 531.755537 
L 54.099983 530.051597 
L 54.161513 529.060528 
L 54.237345 528.347657 
L 54.269641 526.643717 
L 54.161513 525.155149 
L 54.139536 524.939778 
L 53.73698 523.397062 
L 53.312448 523.59258 
L 52.939835 524.939778 
L 52.887915 525.154684 
L 52.651956 526.643717 
L 52.51847 528.347657 
L 52.477246 530.051597 
L 52.529441 531.755537 
L 52.862012 533.459477 
z
M 52.736194 531.755537 
L 52.639137 530.051597 
L 52.693125 528.347657 
L 52.887915 526.643717 
L 52.887915 526.643717 
L 53.299573 524.939778 
L 53.312448 524.893228 
L 53.73698 524.708686 
L 53.797281 524.939778 
L 54.055573 526.643717 
L 54.070541 528.347657 
L 53.9616 530.051597 
L 53.73698 531.4065 
L 53.644058 531.755537 
L 53.312448 532.775771 
L 52.887915 532.501744 
z
" clip-path="url(#pe713b913fe)" style="fill: #9a9af7"/>
    <path d="M 52.887915 532.501744 
L 53.312448 532.775771 
L 53.644058 531.755537 
L 53.73698 531.4065 
L 53.9616 530.051597 
L 54.070541 528.347657 
L 54.055573 526.643717 
L 53.797281 524.939778 
L 53.73698 524.708686 
L 53.312448 524.893228 
L 53.299573 524.939778 
L 52.887915 526.643717 
L 52.887915 526.643717 
L 52.693125 528.347657 
L 52.639137 530.051597 
L 52.736194 531.755537 
z
M 52.887915 531.755537 
L 52.887915 531.755537 
L 52.757937 530.051597 
L 52.821293 528.347657 
L 52.887915 527.764873 
L 53.062079 526.643717 
L 53.312448 525.618297 
L 53.73698 525.574746 
L 53.915797 526.643717 
L 53.972393 528.347657 
L 53.860049 530.051597 
L 53.73698 530.793949 
L 53.480981 531.755537 
L 53.312448 532.274047 
z
" clip-path="url(#pe713b913fe)" style="fill: #7878f9"/>
    <path d="M 53.312448 532.274047 
L 53.480981 531.755537 
L 53.73698 530.793949 
L 53.860049 530.051597 
L 53.972393 528.347657 
L 53.915797 526.643717 
L 53.73698 525.574746 
L 53.312448 525.618297 
L 53.062079 526.643717 
L 52.887915 527.764873 
L 52.821293 528.347657 
L 52.757937 530.051597 
L 52.887915 531.755537 
L 52.887915 531.755537 
z
M 52.887915 530.051597 
L 52.968305 528.347657 
L 53.252628 526.643717 
L 53.312448 526.398719 
L 53.73698 526.488951 
L 53.76287 526.643717 
L 53.865012 528.347657 
L 53.748945 530.051597 
L 53.73698 530.123765 
L 53.312448 531.716958 
z
" clip-path="url(#pe713b913fe)" style="fill: #5a5afa"/>
    <path d="M 53.312448 531.716958 
L 53.73698 530.123765 
L 53.748945 530.051597 
L 53.865012 528.347657 
L 53.76287 526.643717 
L 53.73698 526.488951 
L 53.312448 526.398719 
L 53.252628 526.643717 
L 52.968305 528.347657 
L 52.887915 530.051597 
z
M 52.943627 530.051597 
L 53.016384 528.347657 
L 53.312448 526.643717 
L 53.73698 526.884634 
L 53.831301 528.347657 
L 53.73698 529.72758 
L 53.698653 530.051597 
L 53.312448 531.49841 
z
" clip-path="url(#pe713b913fe)" style="fill: #4545fb"/>
    <path d="M 53.312448 531.49841 
L 53.698653 530.051597 
L 53.73698 529.72758 
L 53.831301 528.347657 
L 53.73698 526.884634 
L 53.312448 526.643717 
L 53.016384 528.347657 
L 52.943627 530.051597 
z
M 53.286692 530.051597 
L 53.312448 528.347657 
L 53.339418 530.051597 
L 53.312448 530.152633 
z
" clip-path="url(#pe713b913fe)" style="fill: #2222fd"/>
    <path d="M 53.312448 530.152633 
L 53.339418 530.051597 
L 53.312448 528.347657 
L 53.286692 530.051597 
z
" clip-path="url(#pe713b913fe)" style="fill: #0202ff"/>
   </g>
   <g id="QuadContourSet_2">
    <path d="M 51.16094 581.138492 
L 52.419737 580.798197 
L 53.556904 577.465212 
L 53.678533 577.145762 
L 54.533219 573.357882 
L 54.93733 570.927534 
L 55.251792 569.250552 
L 55.866908 565.143222 
L 56.196126 561.507929 
L 56.273857 561.035891 
L 56.891706 556.928561 
L 57.244581 552.821231 
L 57.454923 548.802045 
L 57.467549 548.7139 
L 58.021738 544.60657 
L 58.351021 540.49924 
L 58.555713 536.39191 
L 58.689443 532.284579 
L 58.71372 531.437739 
L 59.07335 528.177249 
L 59.389692 524.069919 
L 59.598836 519.962589 
L 59.742271 515.855258 
L 59.844454 511.747928 
L 59.920182 507.640598 
L 59.972516 504.030807 
L 60.010008 503.533268 
L 60.281092 499.425937 
L 60.482382 495.318607 
L 60.636616 491.211277 
L 60.758707 487.103947 
L 60.858583 482.996616 
L 60.942884 478.889286 
L 61.015984 474.781956 
L 61.080632 470.674626 
L 61.138385 466.567295 
L 61.189962 462.459965 
L 61.231313 458.729023 
L 61.253696 458.352635 
L 61.446516 454.245305 
L 61.582589 450.137974 
L 61.669279 446.030644 
L 61.717168 441.923314 
L 61.737453 437.815984 
L 61.739386 433.708653 
L 61.729048 429.601323 
L 61.709436 425.493993 
L 61.681228 421.386663 
L 61.643686 417.279332 
L 61.59542 413.172002 
L 61.534948 409.064672 
L 61.461019 404.957341 
L 61.372744 400.850011 
L 61.269567 396.742681 
L 61.231313 395.373815 
L 61.190039 392.635351 
L 61.116866 388.52802 
L 61.02942 384.42069 
L 60.926933 380.31336 
L 60.809874 376.20603 
L 60.680594 372.098699 
L 60.543704 367.991369 
L 60.40593 363.884039 
L 60.275275 359.776709 
L 60.159609 355.669378 
L 60.065132 351.562048 
L 59.995301 347.454718 
L 59.972516 345.354154 
L 59.960805 343.347388 
L 59.949016 339.240057 
L 59.947751 335.132727 
L 59.955619 331.025397 
L 59.971201 326.918067 
L 59.972516 326.657922 
L 60.005613 322.810736 
L 60.044229 318.703406 
L 60.080625 314.596076 
L 60.108389 310.488746 
L 60.120236 306.381415 
L 60.108052 302.274085 
L 60.062825 298.166755 
L 59.974433 294.059425 
L 59.972516 293.999382 
L 59.882755 289.952094 
L 59.760752 285.844764 
L 59.613095 281.737434 
L 59.449937 277.630103 
L 59.284845 273.522773 
L 59.132009 269.415443 
L 59.003084 265.308113 
L 58.905048 261.200782 
L 58.839779 257.093452 
L 58.805088 252.986122 
L 58.796392 248.878792 
L 58.808255 244.771461 
L 58.83549 240.664131 
L 58.873793 236.556801 
L 58.920024 232.449471 
L 58.972249 228.34214 
L 59.029601 224.23481 
L 59.091971 220.12748 
L 59.159577 216.02015 
L 59.232424 211.912819 
L 59.309689 207.805489 
L 59.389009 203.698159 
L 59.465615 199.590829 
L 59.531397 195.483498 
L 59.574334 191.376168 
L 59.579363 187.268838 
L 59.532115 183.161508 
L 59.425743 179.054177 
L 59.267491 174.946847 
L 59.079245 170.839517 
L 58.890017 166.732187 
L 58.725735 162.624856 
L 58.71372 162.232805 
L 58.572669 158.517526 
L 58.481866 154.410196 
L 58.454427 150.302866 
L 58.474654 146.195535 
L 58.521134 142.088205 
L 58.572885 137.980875 
L 58.611816 133.873544 
L 58.622487 129.766214 
L 58.590913 125.658884 
L 58.503606 121.551554 
L 58.347387 117.444223 
L 58.11022 113.336893 
L 57.783037 109.229563 
L 57.454923 105.980869 
L 57.291531 105.122233 
L 56.393989 101.014902 
L 56.196126 100.157936 
L 55.793028 101.014902 
L 54.93733 103.205225 
L 54.761368 105.122233 
L 54.437008 109.229563 
L 54.177347 113.336893 
L 53.96604 117.444223 
L 53.790088 121.551554 
L 53.678533 124.609857 
L 53.647452 125.658884 
L 53.549621 129.766214 
L 53.480838 133.873544 
L 53.440916 137.980875 
L 53.429655 142.088205 
L 53.446367 146.195535 
L 53.488961 150.302866 
L 53.552735 154.410196 
L 53.629224 158.517526 
L 53.678533 161.217889 
L 53.726078 162.624856 
L 53.821885 166.732187 
L 53.85418 170.839517 
L 53.824365 174.946847 
L 53.747827 179.054177 
L 53.678533 181.618046 
L 53.645888 183.161508 
L 53.530407 187.268838 
L 53.400305 191.376168 
L 53.264889 195.483498 
L 53.130449 199.590829 
L 53.000727 203.698159 
L 52.87781 207.805489 
L 52.762896 211.912819 
L 52.656731 216.02015 
L 52.559766 220.12748 
L 52.472101 224.23481 
L 52.419737 226.938409 
L 52.387752 228.34214 
L 52.30391 232.449471 
L 52.229735 236.556801 
L 52.160929 240.664131 
L 52.092439 244.771461 
L 52.019294 248.878792 
L 51.937525 252.986122 
L 51.844843 257.093452 
L 51.740813 261.200782 
L 51.626528 265.308113 
L 51.504027 269.415443 
L 51.375778 273.522773 
L 51.244415 277.630103 
L 51.16094 280.214812 
L 51.097573 281.737434 
L 50.93469 285.844764 
L 50.785586 289.952094 
L 50.649325 294.059425 
L 50.52474 298.166755 
L 50.410693 302.274085 
L 50.306136 306.381415 
L 50.210063 310.488746 
L 50.121407 314.596076 
L 50.038992 318.703406 
L 49.961566 322.810736 
L 49.902143 326.076074 
L 49.878169 326.918067 
L 49.75754 331.025397 
L 49.639278 335.132727 
L 49.524292 339.240057 
L 49.414152 343.347388 
L 49.310656 347.454718 
L 49.215417 351.562048 
L 49.129593 355.669378 
L 49.053773 359.776709 
L 48.987979 363.884039 
L 48.931739 367.991369 
L 48.884141 372.098699 
L 48.843868 376.20603 
L 48.809196 380.31336 
L 48.778029 384.42069 
L 48.748009 388.52802 
L 48.716766 392.635351 
L 48.682297 396.742681 
L 48.643347 400.850011 
L 48.643347 400.850011 
L 48.547324 404.957341 
L 48.440306 409.064672 
L 48.324927 413.172002 
L 48.204898 417.279332 
L 48.084254 421.386663 
L 47.96681 425.493993 
L 47.855809 429.601323 
L 47.753699 433.708653 
L 47.66201 437.815984 
L 47.581369 441.923314 
L 47.511662 446.030644 
L 47.45229 450.137974 
L 47.402426 454.245305 
L 47.38455 455.930846 
L 47.30276 458.352635 
L 47.186199 462.459965 
L 47.095505 466.567295 
L 47.028549 470.674626 
L 46.983324 474.781956 
L 46.958066 478.889286 
L 46.951255 482.996616 
L 46.961536 487.103947 
L 46.987592 491.211277 
L 47.028038 495.318607 
L 47.081346 499.425937 
L 47.145862 503.533268 
L 47.21992 507.640598 
L 47.302071 511.747928 
L 47.38455 515.555423 
L 47.386043 515.855258 
L 47.406353 519.962589 
L 47.427361 524.069919 
L 47.450103 528.177249 
L 47.476229 532.284579 
L 47.508146 536.39191 
L 47.549273 540.49924 
L 47.60451 544.60657 
L 47.681021 548.7139 
L 47.78959 552.821231 
L 47.946898 556.928561 
L 48.179493 561.035891 
L 48.530768 565.143222 
L 48.643347 566.229764 
L 48.825752 569.250552 
L 49.22544 573.357882 
L 49.902143 577.33032 
L 49.93924 577.465212 
z
M 51.19582 565.143222 
L 51.16094 565.10244 
L 50.381414 561.035891 
L 49.939804 556.928561 
L 49.902143 556.461022 
L 49.558161 552.821231 
L 49.293157 548.7139 
L 49.115433 544.60657 
L 48.994792 540.49924 
L 48.912167 536.39191 
L 48.855195 532.284579 
L 48.815636 528.177249 
L 48.787842 524.069919 
L 48.767845 519.962589 
L 48.752815 515.855258 
L 48.740761 511.747928 
L 48.730388 507.640598 
L 48.721026 503.533268 
L 48.712603 499.425937 
L 48.705604 495.318607 
L 48.701 491.211277 
L 48.700157 487.103947 
L 48.704726 482.996616 
L 48.716549 478.889286 
L 48.737581 474.781956 
L 48.769869 470.674626 
L 48.815565 466.567295 
L 48.87699 462.459965 
L 48.956727 458.352635 
L 49.057712 454.245305 
L 49.183269 450.137974 
L 49.337019 446.030644 
L 49.522581 441.923314 
L 49.742986 437.815984 
L 49.902143 435.13798 
L 49.956684 433.708653 
L 50.122157 429.601323 
L 50.309769 425.493993 
L 50.516985 421.386663 
L 50.739205 417.279332 
L 50.970154 413.172002 
L 51.16094 409.739254 
L 51.19599 409.064672 
L 51.390449 404.957341 
L 51.581426 400.850011 
L 51.764219 396.742681 
L 51.934961 392.635351 
L 52.09056 388.52802 
L 52.228877 384.42069 
L 52.349413 380.31336 
L 52.419737 377.526403 
L 52.478012 376.20603 
L 52.64787 372.098699 
L 52.824602 367.991369 
L 53.015535 363.884039 
L 53.225092 359.776709 
L 53.454237 355.669378 
L 53.678533 351.951781 
L 54.604616 355.669378 
L 54.93733 357.164135 
L 55.054459 359.776709 
L 55.242091 363.884039 
L 55.444633 367.991369 
L 55.675241 372.098699 
L 55.947356 376.20603 
L 56.196126 379.316161 
L 56.250898 380.31336 
L 56.517878 384.42069 
L 56.820559 388.52802 
L 57.148498 392.635351 
L 57.454923 396.397198 
L 57.480349 396.742681 
L 57.77672 400.850011 
L 58.026542 404.957341 
L 58.229346 409.064672 
L 58.389846 413.172002 
L 58.515238 417.279332 
L 58.613139 421.386663 
L 58.690362 425.493993 
L 58.71372 426.923445 
L 58.783479 429.601323 
L 58.882567 433.708653 
L 58.973209 437.815984 
L 59.056543 441.923314 
L 59.132711 446.030644 
L 59.201214 450.137974 
L 59.261216 454.245305 
L 59.311765 458.352635 
L 59.351916 462.459965 
L 59.380758 466.567295 
L 59.397373 470.674626 
L 59.400726 474.781956 
L 59.389484 478.889286 
L 59.361775 482.996616 
L 59.314839 487.103947 
L 59.244547 491.211277 
L 59.144693 495.318607 
L 59.005911 499.425937 
L 58.81398 503.533268 
L 58.71372 505.237641 
L 58.671686 507.640598 
L 58.584304 511.747928 
L 58.470029 515.855258 
L 58.315819 519.962589 
L 58.100726 524.069919 
L 57.790407 528.177249 
L 57.454923 531.393736 
L 57.416693 532.284579 
L 57.217816 536.39191 
L 56.930261 540.49924 
L 56.493288 544.60657 
L 56.196126 546.780431 
L 56.034281 548.7139 
L 55.606605 552.821231 
L 54.93733 556.928561 
L 54.93733 556.928561 
L 54.249583 561.035891 
L 53.678533 563.68711 
L 53.005261 565.143222 
L 52.419737 566.629711 
z
" clip-path="url(#pe713b913fe)" style="fill: #e7f1e7; fill-opacity: 0.5"/>
    <path d="M 52.419737 566.629711 
L 53.005261 565.143222 
L 53.678533 563.68711 
L 54.249583 561.035891 
L 54.93733 556.928561 
L 54.93733 556.928561 
L 55.606605 552.821231 
L 56.034281 548.7139 
L 56.196126 546.780431 
L 56.493288 544.60657 
L 56.930261 540.49924 
L 57.217816 536.39191 
L 57.416693 532.284579 
L 57.454923 531.393736 
L 57.790407 528.177249 
L 58.100726 524.069919 
L 58.315819 519.962589 
L 58.470029 515.855258 
L 58.584304 511.747928 
L 58.671686 507.640598 
L 58.71372 505.237641 
L 58.81398 503.533268 
L 59.005911 499.425937 
L 59.144693 495.318607 
L 59.244547 491.211277 
L 59.314839 487.103947 
L 59.361775 482.996616 
L 59.389484 478.889286 
L 59.400726 474.781956 
L 59.397373 470.674626 
L 59.380758 466.567295 
L 59.351916 462.459965 
L 59.311765 458.352635 
L 59.261216 454.245305 
L 59.201214 450.137974 
L 59.132711 446.030644 
L 59.056543 441.923314 
L 58.973209 437.815984 
L 58.882567 433.708653 
L 58.783479 429.601323 
L 58.71372 426.923445 
L 58.690362 425.493993 
L 58.613139 421.386663 
L 58.515238 417.279332 
L 58.389846 413.172002 
L 58.229346 409.064672 
L 58.026542 404.957341 
L 57.77672 400.850011 
L 57.480349 396.742681 
L 57.454923 396.397198 
L 57.148498 392.635351 
L 56.820559 388.52802 
L 56.517878 384.42069 
L 56.250898 380.31336 
L 56.196126 379.316161 
L 55.947356 376.20603 
L 55.675241 372.098699 
L 55.444633 367.991369 
L 55.242091 363.884039 
L 55.054459 359.776709 
L 54.93733 357.164135 
L 54.604616 355.669378 
L 53.678533 351.951781 
L 53.454237 355.669378 
L 53.225092 359.776709 
L 53.015535 363.884039 
L 52.824602 367.991369 
L 52.64787 372.098699 
L 52.478012 376.20603 
L 52.419737 377.526403 
L 52.349413 380.31336 
L 52.228877 384.42069 
L 52.09056 388.52802 
L 51.934961 392.635351 
L 51.764219 396.742681 
L 51.581426 400.850011 
L 51.390449 404.957341 
L 51.19599 409.064672 
L 51.16094 409.739254 
L 50.970154 413.172002 
L 50.739205 417.279332 
L 50.516985 421.386663 
L 50.309769 425.493993 
L 50.122157 429.601323 
L 49.956684 433.708653 
L 49.902143 435.13798 
L 49.742986 437.815984 
L 49.522581 441.923314 
L 49.337019 446.030644 
L 49.183269 450.137974 
L 49.057712 454.245305 
L 48.956727 458.352635 
L 48.87699 462.459965 
L 48.815565 466.567295 
L 48.769869 470.674626 
L 48.737581 474.781956 
L 48.716549 478.889286 
L 48.704726 482.996616 
L 48.700157 487.103947 
L 48.701 491.211277 
L 48.705604 495.318607 
L 48.712603 499.425937 
L 48.721026 503.533268 
L 48.730388 507.640598 
L 48.740761 511.747928 
L 48.752815 515.855258 
L 48.767845 519.962589 
L 48.787842 524.069919 
L 48.815636 528.177249 
L 48.855195 532.284579 
L 48.912167 536.39191 
L 48.994792 540.49924 
L 49.115433 544.60657 
L 49.293157 548.7139 
L 49.558161 552.821231 
L 49.902143 556.461022 
L 49.939804 556.928561 
L 50.381414 561.035891 
L 51.16094 565.10244 
L 51.19582 565.143222 
z
M 51.523765 552.821231 
L 51.16094 551.392356 
L 50.828962 548.7139 
L 50.470631 544.60657 
L 50.242019 540.49924 
L 50.095241 536.39191 
L 50.001163 532.284579 
L 49.941606 528.177249 
L 49.904956 524.069919 
L 49.902143 523.55217 
L 49.858029 519.962589 
L 49.830579 515.855258 
L 49.819981 511.747928 
L 49.821475 507.640598 
L 49.831707 503.533268 
L 49.848707 499.425937 
L 49.871915 495.318607 
L 49.902143 491.211277 
L 49.902143 491.211277 
L 49.920013 487.103947 
L 49.944659 482.996616 
L 49.978542 478.889286 
L 50.024613 474.781956 
L 50.086286 470.674626 
L 50.167429 466.567295 
L 50.272411 462.459965 
L 50.406186 458.352635 
L 50.574417 454.245305 
L 50.78359 450.137974 
L 51.041014 446.030644 
L 51.16094 444.324383 
L 51.310218 441.923314 
L 51.603451 437.815984 
L 51.954708 433.708653 
L 52.36914 429.601323 
L 52.419737 429.104935 
L 52.941066 425.493993 
L 53.604004 421.386663 
L 53.678533 420.917638 
L 54.93733 418.959795 
L 55.522345 421.386663 
L 56.196126 424.707913 
L 56.270177 425.493993 
L 56.627361 429.601323 
L 56.914423 433.708653 
L 57.146876 437.815984 
L 57.336604 441.923314 
L 57.454923 444.929863 
L 57.506297 446.030644 
L 57.687537 450.137974 
L 57.842341 454.245305 
L 57.972399 458.352635 
L 58.079228 462.459965 
L 58.164203 466.567295 
L 58.228546 470.674626 
L 58.273282 474.781956 
L 58.299167 478.889286 
L 58.306567 482.996616 
L 58.295286 487.103947 
L 58.26432 491.211277 
L 58.211504 495.318607 
L 58.133004 499.425937 
L 58.022552 503.533268 
L 57.87026 507.640598 
L 57.660705 511.747928 
L 57.454923 514.796429 
L 57.422327 515.855258 
L 57.276363 519.962589 
L 57.086661 524.069919 
L 56.830891 528.177249 
L 56.472835 532.284579 
L 56.196126 534.763721 
L 56.074159 536.39191 
L 55.716198 540.49924 
L 55.214341 544.60657 
L 54.93733 546.478221 
L 54.56457 548.7139 
L 53.750813 552.821231 
L 53.678533 553.170022 
L 52.419737 555.444749 
z
" clip-path="url(#pe713b913fe)" style="fill: #d8ead8; fill-opacity: 0.5"/>
    <path d="M 52.419737 555.444749 
L 53.678533 553.170022 
L 53.750813 552.821231 
L 54.56457 548.7139 
L 54.93733 546.478221 
L 55.214341 544.60657 
L 55.716198 540.49924 
L 56.074159 536.39191 
L 56.196126 534.763721 
L 56.472835 532.284579 
L 56.830891 528.177249 
L 57.086661 524.069919 
L 57.276363 519.962589 
L 57.422327 515.855258 
L 57.454923 514.796429 
L 57.660705 511.747928 
L 57.87026 507.640598 
L 58.022552 503.533268 
L 58.133004 499.425937 
L 58.211504 495.318607 
L 58.26432 491.211277 
L 58.295286 487.103947 
L 58.306567 482.996616 
L 58.299167 478.889286 
L 58.273282 474.781956 
L 58.228546 470.674626 
L 58.164203 466.567295 
L 58.079228 462.459965 
L 57.972399 458.352635 
L 57.842341 454.245305 
L 57.687537 450.137974 
L 57.506297 446.030644 
L 57.454923 444.929863 
L 57.336604 441.923314 
L 57.146876 437.815984 
L 56.914423 433.708653 
L 56.627361 429.601323 
L 56.270177 425.493993 
L 56.196126 424.707913 
L 55.522345 421.386663 
L 54.93733 418.959795 
L 53.678533 420.917638 
L 53.604004 421.386663 
L 52.941066 425.493993 
L 52.419737 429.104935 
L 52.36914 429.601323 
L 51.954708 433.708653 
L 51.603451 437.815984 
L 51.310218 441.923314 
L 51.16094 444.324383 
L 51.041014 446.030644 
L 50.78359 450.137974 
L 50.574417 454.245305 
L 50.406186 458.352635 
L 50.272411 462.459965 
L 50.167429 466.567295 
L 50.086286 470.674626 
L 50.024613 474.781956 
L 49.978542 478.889286 
L 49.944659 482.996616 
L 49.920013 487.103947 
L 49.902143 491.211277 
L 49.902143 491.211277 
L 49.871915 495.318607 
L 49.848707 499.425937 
L 49.831707 503.533268 
L 49.821475 507.640598 
L 49.819981 511.747928 
L 49.830579 515.855258 
L 49.858029 519.962589 
L 49.902143 523.55217 
L 49.904956 524.069919 
L 49.941606 528.177249 
L 50.001163 532.284579 
L 50.095241 536.39191 
L 50.242019 540.49924 
L 50.470631 544.60657 
L 50.828962 548.7139 
L 51.16094 551.392356 
L 51.523765 552.821231 
z
M 51.833225 544.60657 
L 51.265902 540.49924 
L 51.16094 539.350419 
L 50.94794 536.39191 
L 50.740769 532.284579 
L 50.604286 528.177249 
L 50.516877 524.069919 
L 50.464447 519.962589 
L 50.437631 515.855258 
L 50.430105 511.747928 
L 50.437569 507.640598 
L 50.457151 503.533268 
L 50.487092 499.425937 
L 50.526614 495.318607 
L 50.575902 491.211277 
L 50.636137 487.103947 
L 50.709535 482.996616 
L 50.799356 478.889286 
L 50.909917 474.781956 
L 51.046603 470.674626 
L 51.16094 467.823218 
L 51.200418 466.567295 
L 51.354552 462.459965 
L 51.550404 458.352635 
L 51.796367 454.245305 
L 52.101913 450.137974 
L 52.419737 446.594769 
L 52.492654 446.030644 
L 53.065099 441.923314 
L 53.678533 438.177631 
L 54.263628 437.815984 
L 54.93733 437.331016 
L 55.023278 437.815984 
L 55.685484 441.923314 
L 56.196126 446.030644 
L 56.196126 446.030644 
L 56.496214 450.137974 
L 56.743993 454.245305 
L 56.947405 458.352635 
L 57.112361 462.459965 
L 57.24329 466.567295 
L 57.343603 470.674626 
L 57.416057 474.781956 
L 57.454923 478.126088 
L 57.468427 478.889286 
L 57.509695 482.996616 
L 57.515667 487.103947 
L 57.484491 491.211277 
L 57.454923 492.914677 
L 57.433259 495.318607 
L 57.376335 499.425937 
L 57.298287 503.533268 
L 57.195615 507.640598 
L 57.062104 511.747928 
L 56.887572 515.855258 
L 56.655827 519.962589 
L 56.341247 524.069919 
L 56.196126 525.635879 
L 56.027038 528.177249 
L 55.701058 532.284579 
L 55.269937 536.39191 
L 54.93733 538.935509 
L 54.680209 540.49924 
L 53.941019 544.60657 
L 53.678533 545.935825 
L 52.419737 547.280615 
z
" clip-path="url(#pe713b913fe)" style="fill: #c1dfc1; fill-opacity: 0.5"/>
    <path d="M 52.419737 547.280615 
L 53.678533 545.935825 
L 53.941019 544.60657 
L 54.680209 540.49924 
L 54.93733 538.935509 
L 55.269937 536.39191 
L 55.701058 532.284579 
L 56.027038 528.177249 
L 56.196126 525.635879 
L 56.341247 524.069919 
L 56.655827 519.962589 
L 56.887572 515.855258 
L 57.062104 511.747928 
L 57.195615 507.640598 
L 57.298287 503.533268 
L 57.376335 499.425937 
L 57.433259 495.318607 
L 57.454923 492.914677 
L 57.484491 491.211277 
L 57.515667 487.103947 
L 57.509695 482.996616 
L 57.468427 478.889286 
L 57.454923 478.126088 
L 57.416057 474.781956 
L 57.343603 470.674626 
L 57.24329 466.567295 
L 57.112361 462.459965 
L 56.947405 458.352635 
L 56.743993 454.245305 
L 56.496214 450.137974 
L 56.196126 446.030644 
L 56.196126 446.030644 
L 55.685484 441.923314 
L 55.023278 437.815984 
L 54.93733 437.331016 
L 54.263628 437.815984 
L 53.678533 438.177631 
L 53.065099 441.923314 
L 52.492654 446.030644 
L 52.419737 446.594769 
L 52.101913 450.137974 
L 51.796367 454.245305 
L 51.550404 458.352635 
L 51.354552 462.459965 
L 51.200418 466.567295 
L 51.16094 467.823218 
L 51.046603 470.674626 
L 50.909917 474.781956 
L 50.799356 478.889286 
L 50.709535 482.996616 
L 50.636137 487.103947 
L 50.575902 491.211277 
L 50.526614 495.318607 
L 50.487092 499.425937 
L 50.457151 503.533268 
L 50.437569 507.640598 
L 50.430105 511.747928 
L 50.437631 515.855258 
L 50.464447 519.962589 
L 50.516877 524.069919 
L 50.604286 528.177249 
L 50.740769 532.284579 
L 50.94794 536.39191 
L 51.16094 539.350419 
L 51.265902 540.49924 
L 51.833225 544.60657 
z
M 51.842166 536.39191 
L 51.494958 532.284579 
L 51.289681 528.177249 
L 51.171286 524.069919 
L 51.16094 523.46092 
L 51.0884 519.962589 
L 51.044637 515.855258 
L 51.033459 511.747928 
L 51.048328 507.640598 
L 51.084728 503.533268 
L 51.139661 499.425937 
L 51.16094 498.166661 
L 51.193121 495.318607 
L 51.249903 491.211277 
L 51.319662 487.103947 
L 51.40545 482.996616 
L 51.511421 478.889286 
L 51.642856 474.781956 
L 51.806201 470.674626 
L 52.009137 466.567295 
L 52.260679 462.459965 
L 52.419737 460.234915 
L 52.608032 458.352635 
L 53.087983 454.245305 
L 53.678533 450.137974 
L 53.678533 450.137974 
L 54.93733 449.810921 
L 54.984497 450.137974 
L 55.533076 454.245305 
L 55.972967 458.352635 
L 56.196126 460.818779 
L 56.297259 462.459965 
L 56.518926 466.567295 
L 56.69491 470.674626 
L 56.829879 474.781956 
L 56.927613 478.889286 
L 56.991225 482.996616 
L 57.023213 487.103947 
L 57.025333 491.211277 
L 56.99832 495.318607 
L 56.941486 499.425937 
L 56.852159 503.533268 
L 56.724895 507.640598 
L 56.550288 511.747928 
L 56.313101 515.855258 
L 56.196126 517.482292 
L 56.058449 519.962589 
L 55.790012 524.069919 
L 55.452116 528.177249 
L 55.009533 532.284579 
L 54.93733 532.880681 
L 54.367151 536.39191 
L 53.678533 540.109044 
L 52.419737 540.452857 
z
" clip-path="url(#pe713b913fe)" style="fill: #a6d2a6; fill-opacity: 0.5"/>
    <path d="M 52.419737 540.452857 
L 53.678533 540.109044 
L 54.367151 536.39191 
L 54.93733 532.880681 
L 55.009533 532.284579 
L 55.452116 528.177249 
L 55.790012 524.069919 
L 56.058449 519.962589 
L 56.196126 517.482292 
L 56.313101 515.855258 
L 56.550288 511.747928 
L 56.724895 507.640598 
L 56.852159 503.533268 
L 56.941486 499.425937 
L 56.99832 495.318607 
L 57.025333 491.211277 
L 57.023213 487.103947 
L 56.991225 482.996616 
L 56.927613 478.889286 
L 56.829879 474.781956 
L 56.69491 470.674626 
L 56.518926 466.567295 
L 56.297259 462.459965 
L 56.196126 460.818779 
L 55.972967 458.352635 
L 55.533076 454.245305 
L 54.984497 450.137974 
L 54.93733 449.810921 
L 53.678533 450.137974 
L 53.678533 450.137974 
L 53.087983 454.245305 
L 52.608032 458.352635 
L 52.419737 460.234915 
L 52.260679 462.459965 
L 52.009137 466.567295 
L 51.806201 470.674626 
L 51.642856 474.781956 
L 51.511421 478.889286 
L 51.40545 482.996616 
L 51.319662 487.103947 
L 51.249903 491.211277 
L 51.193121 495.318607 
L 51.16094 498.166661 
L 51.139661 499.425937 
L 51.084728 503.533268 
L 51.048328 507.640598 
L 51.033459 511.747928 
L 51.044637 515.855258 
L 51.0884 519.962589 
L 51.16094 523.46092 
L 51.171286 524.069919 
L 51.289681 528.177249 
L 51.494958 532.284579 
L 51.842166 536.39191 
z
M 52.291285 532.284579 
L 51.95285 528.177249 
L 51.745524 524.069919 
L 51.623158 519.962589 
L 51.557947 515.855258 
L 51.532909 511.747928 
L 51.537692 507.640598 
L 51.566178 503.533268 
L 51.61511 499.425937 
L 51.683295 495.318607 
L 51.77118 491.211277 
L 51.880646 487.103947 
L 52.014955 482.996616 
L 52.178784 478.889286 
L 52.37832 474.781956 
L 52.419737 474.020291 
L 52.660579 470.674626 
L 53.022668 466.567295 
L 53.47409 462.459965 
L 53.678533 460.829197 
L 54.93733 460.636778 
L 55.152482 462.459965 
L 55.574638 466.567295 
L 55.909326 470.674626 
L 56.165897 474.781956 
L 56.196126 475.389395 
L 56.326175 478.889286 
L 56.434739 482.996616 
L 56.500344 487.103947 
L 56.525113 491.211277 
L 56.509746 495.318607 
L 56.453012 499.425937 
L 56.351016 503.533268 
L 56.196126 507.640598 
L 56.196126 507.640598 
L 56.02678 511.747928 
L 55.818567 515.855258 
L 55.560212 519.962589 
L 55.232843 524.069919 
L 54.93733 527.040776 
L 54.760708 528.177249 
L 54.093513 532.284579 
L 53.678533 534.619026 
L 52.419737 533.422865 
z
" clip-path="url(#pe713b913fe)" style="fill: #89c389; fill-opacity: 0.5"/>
    <path d="M 52.419737 533.422865 
L 53.678533 534.619026 
L 54.093513 532.284579 
L 54.760708 528.177249 
L 54.93733 527.040776 
L 55.232843 524.069919 
L 55.560212 519.962589 
L 55.818567 515.855258 
L 56.02678 511.747928 
L 56.196126 507.640598 
L 56.196126 507.640598 
L 56.351016 503.533268 
L 56.453012 499.425937 
L 56.509746 495.318607 
L 56.525113 491.211277 
L 56.500344 487.103947 
L 56.434739 482.996616 
L 56.326175 478.889286 
L 56.196126 475.389395 
L 56.165897 474.781956 
L 55.909326 470.674626 
L 55.574638 466.567295 
L 55.152482 462.459965 
L 54.93733 460.636778 
L 53.678533 460.829197 
L 53.47409 462.459965 
L 53.022668 466.567295 
L 52.660579 470.674626 
L 52.419737 474.020291 
L 52.37832 474.781956 
L 52.178784 478.889286 
L 52.014955 482.996616 
L 51.880646 487.103947 
L 51.77118 491.211277 
L 51.683295 495.318607 
L 51.61511 499.425937 
L 51.566178 503.533268 
L 51.537692 507.640598 
L 51.532909 511.747928 
L 51.557947 515.855258 
L 51.623158 519.962589 
L 51.745524 524.069919 
L 51.95285 528.177249 
L 52.291285 532.284579 
z
M 52.419737 528.177249 
L 52.419737 528.177249 
L 52.149801 524.069919 
L 51.986137 519.962589 
L 51.894927 515.855258 
L 51.855452 511.747928 
L 51.855019 507.640598 
L 51.886056 503.533268 
L 51.944415 499.425937 
L 52.028389 495.318607 
L 52.13817 491.211277 
L 52.27559 487.103947 
L 52.419737 483.548757 
L 52.448158 482.996616 
L 52.687664 478.889286 
L 52.981871 474.781956 
L 53.346044 470.674626 
L 53.678533 467.553401 
L 54.93733 467.345453 
L 55.269358 470.674626 
L 55.598814 474.781956 
L 55.846455 478.889286 
L 56.019577 482.996616 
L 56.125449 487.103947 
L 56.171702 491.211277 
L 56.165864 495.318607 
L 56.114452 499.425937 
L 56.021966 503.533268 
L 55.889981 507.640598 
L 55.716297 511.747928 
L 55.493906 515.855258 
L 55.209442 519.962589 
L 54.93733 523.079088 
L 54.789019 524.069919 
L 54.147848 528.177249 
L 53.678533 530.955379 
z
" clip-path="url(#pe713b913fe)" style="fill: #6eb66e; fill-opacity: 0.5"/>
    <path d="M 53.678533 530.955379 
L 54.147848 528.177249 
L 54.789019 524.069919 
L 54.93733 523.079088 
L 55.209442 519.962589 
L 55.493906 515.855258 
L 55.716297 511.747928 
L 55.889981 507.640598 
L 56.021966 503.533268 
L 56.114452 499.425937 
L 56.165864 495.318607 
L 56.171702 491.211277 
L 56.125449 487.103947 
L 56.019577 482.996616 
L 55.846455 478.889286 
L 55.598814 474.781956 
L 55.269358 470.674626 
L 54.93733 467.345453 
L 53.678533 467.553401 
L 53.346044 470.674626 
L 52.981871 474.781956 
L 52.687664 478.889286 
L 52.448158 482.996616 
L 52.419737 483.548757 
L 52.27559 487.103947 
L 52.13817 491.211277 
L 52.028389 495.318607 
L 51.944415 499.425937 
L 51.886056 503.533268 
L 51.855019 507.640598 
L 51.855452 511.747928 
L 51.894927 515.855258 
L 51.986137 519.962589 
L 52.149801 524.069919 
L 52.419737 528.177249 
L 52.419737 528.177249 
z
M 53.537195 524.069919 
L 52.825316 519.962589 
L 52.516946 515.855258 
L 52.419737 512.499642 
L 52.408397 511.747928 
L 52.399024 507.640598 
L 52.419737 505.230068 
L 52.439809 503.533268 
L 52.534593 499.425937 
L 52.666585 495.318607 
L 52.835718 491.211277 
L 53.046653 487.103947 
L 53.307742 482.996616 
L 53.630514 478.889286 
L 53.678533 478.347133 
L 54.93733 478.326007 
L 54.981275 478.889286 
L 55.245397 482.996616 
L 55.427397 487.103947 
L 55.535558 491.211277 
L 55.577844 495.318607 
L 55.561056 499.425937 
L 55.489749 503.533268 
L 55.365147 507.640598 
L 55.184026 511.747928 
L 54.93733 515.855258 
L 54.93733 515.855258 
L 54.3559 519.962589 
L 53.758138 524.069919 
L 53.678533 524.572936 
z
" clip-path="url(#pe713b913fe)" style="fill: #51a851; fill-opacity: 0.5"/>
    <path d="M 53.678533 524.572936 
L 53.758138 524.069919 
L 54.3559 519.962589 
L 54.93733 515.855258 
L 54.93733 515.855258 
L 55.184026 511.747928 
L 55.365147 507.640598 
L 55.489749 503.533268 
L 55.561056 499.425937 
L 55.577844 495.318607 
L 55.535558 491.211277 
L 55.427397 487.103947 
L 55.245397 482.996616 
L 54.981275 478.889286 
L 54.93733 478.326007 
L 53.678533 478.347133 
L 53.630514 478.889286 
L 53.307742 482.996616 
L 53.046653 487.103947 
L 52.835718 491.211277 
L 52.666585 495.318607 
L 52.534593 499.425937 
L 52.439809 503.533268 
L 52.419737 505.230068 
L 52.399024 507.640598 
L 52.408397 511.747928 
L 52.419737 512.499642 
L 52.516946 515.855258 
L 52.825316 519.962589 
L 53.537195 524.069919 
z
M 53.515514 515.855258 
L 53.246576 511.747928 
L 53.143606 507.640598 
L 53.144101 503.533268 
L 53.218055 499.425937 
L 53.352363 495.318607 
L 53.543802 491.211277 
L 53.678533 488.956821 
L 54.93733 491.211277 
L 54.93733 491.211277 
L 55.024872 495.318607 
L 55.040644 499.425937 
L 54.989254 503.533268 
L 54.93733 505.331717 
L 54.73827 507.640598 
L 54.31033 511.747928 
L 53.855194 515.855258 
L 53.678533 517.237793 
z
" clip-path="url(#pe713b913fe)" style="fill: #2c962c; fill-opacity: 0.5"/>
    <path d="M 53.678533 517.237793 
L 53.855194 515.855258 
L 54.31033 511.747928 
L 54.73827 507.640598 
L 54.93733 505.331717 
L 54.989254 503.533268 
L 55.040644 499.425937 
L 55.024872 495.318607 
L 54.93733 491.211277 
L 54.93733 491.211277 
L 53.678533 488.956821 
L 53.543802 491.211277 
L 53.352363 495.318607 
L 53.218055 499.425937 
L 53.144101 503.533268 
L 53.143606 507.640598 
L 53.246576 511.747928 
L 53.515514 515.855258 
z
" clip-path="url(#pe713b913fe)" style="fill: #0d860d; fill-opacity: 0.5"/>
   </g>
   <g id="matplotlib.axis_1">
    <g id="xtick_1">
     <g id="line2d_1">
      <defs>
       <path id="m9e1e4948b4" d="M 0 0 
L 0 3.5 
" style="stroke: #000000; stroke-width: 0.8"/>
      </defs>
      <g>
       <use xlink:href="#m9e1e4948b4" x="112.161104" y="534.04" style="stroke: #000000; stroke-width: 0.8"/>
      </g>
     </g>
     <g id="text_1">
      <!-- 10 -->
      <g transform="translate(105.798604 548.638438) scale(0.1 -0.1)">
       <defs>
        <path id="DejaVuSans-31" d="M 794 531 
L 1825 531 
L 1825 4091 
L 703 3866 
L 703 4441 
L 1819 4666 
L 2450 4666 
L 2450 531 
L 3481 531 
L 3481 0 
L 794 0 
L 794 531 
z
" transform="scale(0.015625)"/>
        <path id="DejaVuSans-30" d="M 2034 4250 
Q 1547 4250 1301 3770 
Q 1056 3291 1056 2328 
Q 1056 1369 1301 889 
Q 1547 409 2034 409 
Q 2525 409 2770 889 
Q 3016 1369 3016 2328 
Q 3016 3291 2770 3770 
Q 2525 4250 2034 4250 
z
M 2034 4750 
Q 2819 4750 3233 4129 
Q 3647 3509 3647 2328 
Q 3647 1150 3233 529 
Q 2819 -91 2034 -91 
Q 1250 -91 836 529 
Q 422 1150 422 2328 
Q 422 3509 836 4129 
Q 1250 4750 2034 4750 
z
" transform="scale(0.015625)"/>
       </defs>
       <use xlink:href="#DejaVuSans-31"/>
       <use xlink:href="#DejaVuSans-30" x="63.623047"/>
      </g>
     </g>
    </g>
    <g id="xtick_2">
     <g id="line2d_2">
      <g>
       <use xlink:href="#m9e1e4948b4" x="186.928259" y="534.04" style="stroke: #000000; stroke-width: 0.8"/>
      </g>
     </g>
     <g id="text_2">
      <!-- 20 -->
      <g transform="translate(180.565759 548.638438) scale(0.1 -0.1)">
       <defs>
        <path id="DejaVuSans-32" d="M 1228 531 
L 3431 531 
L 3431 0 
L 469 0 
L 469 531 
Q 828 903 1448 1529 
Q 2069 2156 2228 2338 
Q 2531 2678 2651 2914 
Q 2772 3150 2772 3378 
Q 2772 3750 2511 3984 
Q 2250 4219 1831 4219 
Q 1534 4219 1204 4116 
Q 875 4013 500 3803 
L 500 4441 
Q 881 4594 1212 4672 
Q 1544 4750 1819 4750 
Q 2544 4750 2975 4387 
Q 3406 4025 3406 3419 
Q 3406 3131 3298 2873 
Q 3191 2616 2906 2266 
Q 2828 2175 2409 1742 
Q 1991 1309 1228 531 
z
" transform="scale(0.015625)"/>
       </defs>
       <use xlink:href="#DejaVuSans-32"/>
       <use xlink:href="#DejaVuSans-30" x="63.623047"/>
      </g>
     </g>
    </g>
    <g id="xtick_3">
     <g id="line2d_3">
      <g>
       <use xlink:href="#m9e1e4948b4" x="261.695415" y="534.04" style="stroke: #000000; stroke-width: 0.8"/>
      </g>
     </g>
     <g id="text_3">
      <!-- 30 -->
      <g transform="translate(255.332915 548.638438) scale(0.1 -0.1)">
       <defs>
        <path id="DejaVuSans-33" d="M 2597 2516 
Q 3050 2419 3304 2112 
Q 3559 1806 3559 1356 
Q 3559 666 3084 287 
Q 2609 -91 1734 -91 
Q 1441 -91 1130 -33 
Q 819 25 488 141 
L 488 750 
Q 750 597 1062 519 
Q 1375 441 1716 441 
Q 2309 441 2620 675 
Q 2931 909 2931 1356 
Q 2931 1769 2642 2001 
Q 2353 2234 1838 2234 
L 1294 2234 
L 1294 2753 
L 1863 2753 
Q 2328 2753 2575 2939 
Q 2822 3125 2822 3475 
Q 2822 3834 2567 4026 
Q 2313 4219 1838 4219 
Q 1578 4219 1281 4162 
Q 984 4106 628 3988 
L 628 4550 
Q 988 4650 1302 4700 
Q 1616 4750 1894 4750 
Q 2613 4750 3031 4423 
Q 3450 4097 3450 3541 
Q 3450 3153 3228 2886 
Q 3006 2619 2597 2516 
z
" transform="scale(0.015625)"/>
       </defs>
       <use xlink:href="#DejaVuSans-33"/>
       <use xlink:href="#DejaVuSans-30" x="63.623047"/>
      </g>
     </g>
    </g>
    <g id="xtick_4">
     <g id="line2d_4">
      <g>
       <use xlink:href="#m9e1e4948b4" x="336.462571" y="534.04" style="stroke: #000000; stroke-width: 0.8"/>
      </g>
     </g>
     <g id="text_4">
      <!-- 40 -->
      <g transform="translate(330.100071 548.638438) scale(0.1 -0.1)">
       <defs>
        <path id="DejaVuSans-34" d="M 2419 4116 
L 825 1625 
L 2419 1625 
L 2419 4116 
z
M 2253 4666 
L 3047 4666 
L 3047 1625 
L 3713 1625 
L 3713 1100 
L 3047 1100 
L 3047 0 
L 2419 0 
L 2419 1100 
L 313 1100 
L 313 1709 
L 2253 4666 
z
" transform="scale(0.015625)"/>
       </defs>
       <use xlink:href="#DejaVuSans-34"/>
       <use xlink:href="#DejaVuSans-30" x="63.623047"/>
      </g>
     </g>
    </g>
    <g id="xtick_5">
     <g id="line2d_5">
      <g>
       <use xlink:href="#m9e1e4948b4" x="411.229726" y="534.04" style="stroke: #000000; stroke-width: 0.8"/>
      </g>
     </g>
     <g id="text_5">
      <!-- 50 -->
      <g transform="translate(404.867226 548.638438) scale(0.1 -0.1)">
       <defs>
        <path id="DejaVuSans-35" d="M 691 4666 
L 3169 4666 
L 3169 4134 
L 1269 4134 
L 1269 2991 
Q 1406 3038 1543 3061 
Q 1681 3084 1819 3084 
Q 2600 3084 3056 2656 
Q 3513 2228 3513 1497 
Q 3513 744 3044 326 
Q 2575 -91 1722 -91 
Q 1428 -91 1123 -41 
Q 819 9 494 109 
L 494 744 
Q 775 591 1075 516 
Q 1375 441 1709 441 
Q 2250 441 2565 725 
Q 2881 1009 2881 1497 
Q 2881 1984 2565 2268 
Q 2250 2553 1709 2553 
Q 1456 2553 1204 2497 
Q 953 2441 691 2322 
L 691 4666 
z
" transform="scale(0.015625)"/>
       </defs>
       <use xlink:href="#DejaVuSans-35"/>
       <use xlink:href="#DejaVuSans-30" x="63.623047"/>
      </g>
     </g>
    </g>
    <g id="xtick_6">
     <g id="line2d_6">
      <g>
       <use xlink:href="#m9e1e4948b4" x="485.996882" y="534.04" style="stroke: #000000; stroke-width: 0.8"/>
      </g>
     </g>
     <g id="text_6">
      <!-- 60 -->
      <g transform="translate(479.634382 548.638438) scale(0.1 -0.1)">
       <defs>
        <path id="DejaVuSans-36" d="M 2113 2584 
Q 1688 2584 1439 2293 
Q 1191 2003 1191 1497 
Q 1191 994 1439 701 
Q 1688 409 2113 409 
Q 2538 409 2786 701 
Q 3034 994 3034 1497 
Q 3034 2003 2786 2293 
Q 2538 2584 2113 2584 
z
M 3366 4563 
L 3366 3988 
Q 3128 4100 2886 4159 
Q 2644 4219 2406 4219 
Q 1781 4219 1451 3797 
Q 1122 3375 1075 2522 
Q 1259 2794 1537 2939 
Q 1816 3084 2150 3084 
Q 2853 3084 3261 2657 
Q 3669 2231 3669 1497 
Q 3669 778 3244 343 
Q 2819 -91 2113 -91 
Q 1303 -91 875 529 
Q 447 1150 447 2328 
Q 447 3434 972 4092 
Q 1497 4750 2381 4750 
Q 2619 4750 2861 4703 
Q 3103 4656 3366 4563 
z
" transform="scale(0.015625)"/>
       </defs>
       <use xlink:href="#DejaVuSans-36"/>
       <use xlink:href="#DejaVuSans-30" x="63.623047"/>
      </g>
     </g>
    </g>
    <g id="xtick_7">
     <g id="line2d_7">
      <g>
       <use xlink:href="#m9e1e4948b4" x="560.764038" y="534.04" style="stroke: #000000; stroke-width: 0.8"/>
      </g>
     </g>
     <g id="text_7">
      <!-- 70 -->
      <g transform="translate(554.401538 548.638438) scale(0.1 -0.1)">
       <defs>
        <path id="DejaVuSans-37" d="M 525 4666 
L 3525 4666 
L 3525 4397 
L 1831 0 
L 1172 0 
L 2766 4134 
L 525 4134 
L 525 4666 
z
" transform="scale(0.015625)"/>
       </defs>
       <use xlink:href="#DejaVuSans-37"/>
       <use xlink:href="#DejaVuSans-30" x="63.623047"/>
      </g>
     </g>
    </g>
    <g id="xtick_8">
     <g id="line2d_8">
      <g>
       <use xlink:href="#m9e1e4948b4" x="635.531193" y="534.04" style="stroke: #000000; stroke-width: 0.8"/>
      </g>
     </g>
     <g id="text_8">
      <!-- 80 -->
      <g transform="translate(629.168693 548.638438) scale(0.1 -0.1)">
       <defs>
        <path id="DejaVuSans-38" d="M 2034 2216 
Q 1584 2216 1326 1975 
Q 1069 1734 1069 1313 
Q 1069 891 1326 650 
Q 1584 409 2034 409 
Q 2484 409 2743 651 
Q 3003 894 3003 1313 
Q 3003 1734 2745 1975 
Q 2488 2216 2034 2216 
z
M 1403 2484 
Q 997 2584 770 2862 
Q 544 3141 544 3541 
Q 544 4100 942 4425 
Q 1341 4750 2034 4750 
Q 2731 4750 3128 4425 
Q 3525 4100 3525 3541 
Q 3525 3141 3298 2862 
Q 3072 2584 2669 2484 
Q 3125 2378 3379 2068 
Q 3634 1759 3634 1313 
Q 3634 634 3220 271 
Q 2806 -91 2034 -91 
Q 1263 -91 848 271 
Q 434 634 434 1313 
Q 434 1759 690 2068 
Q 947 2378 1403 2484 
z
M 1172 3481 
Q 1172 3119 1398 2916 
Q 1625 2713 2034 2713 
Q 2441 2713 2670 2916 
Q 2900 3119 2900 3481 
Q 2900 3844 2670 4047 
Q 2441 4250 2034 4250 
Q 1625 4250 1398 4047 
Q 1172 3844 1172 3481 
z
" transform="scale(0.015625)"/>
       </defs>
       <use xlink:href="#DejaVuSans-38"/>
       <use xlink:href="#DejaVuSans-30" x="63.623047"/>
      </g>
     </g>
    </g>
    <g id="text_9">
     <!-- Force Uncertainties -->
     <g transform="translate(328.496406 562.316563) scale(0.1 -0.1)">
      <defs>
       <path id="DejaVuSans-46" d="M 628 4666 
L 3309 4666 
L 3309 4134 
L 1259 4134 
L 1259 2759 
L 3109 2759 
L 3109 2228 
L 1259 2228 
L 1259 0 
L 628 0 
L 628 4666 
z
" transform="scale(0.015625)"/>
       <path id="DejaVuSans-6f" d="M 1959 3097 
Q 1497 3097 1228 2736 
Q 959 2375 959 1747 
Q 959 1119 1226 758 
Q 1494 397 1959 397 
Q 2419 397 2687 759 
Q 2956 1122 2956 1747 
Q 2956 2369 2687 2733 
Q 2419 3097 1959 3097 
z
M 1959 3584 
Q 2709 3584 3137 3096 
Q 3566 2609 3566 1747 
Q 3566 888 3137 398 
Q 2709 -91 1959 -91 
Q 1206 -91 779 398 
Q 353 888 353 1747 
Q 353 2609 779 3096 
Q 1206 3584 1959 3584 
z
" transform="scale(0.015625)"/>
       <path id="DejaVuSans-72" d="M 2631 2963 
Q 2534 3019 2420 3045 
Q 2306 3072 2169 3072 
Q 1681 3072 1420 2755 
Q 1159 2438 1159 1844 
L 1159 0 
L 581 0 
L 581 3500 
L 1159 3500 
L 1159 2956 
Q 1341 3275 1631 3429 
Q 1922 3584 2338 3584 
Q 2397 3584 2469 3576 
Q 2541 3569 2628 3553 
L 2631 2963 
z
" transform="scale(0.015625)"/>
       <path id="DejaVuSans-63" d="M 3122 3366 
L 3122 2828 
Q 2878 2963 2633 3030 
Q 2388 3097 2138 3097 
Q 1578 3097 1268 2742 
Q 959 2388 959 1747 
Q 959 1106 1268 751 
Q 1578 397 2138 397 
Q 2388 397 2633 464 
Q 2878 531 3122 666 
L 3122 134 
Q 2881 22 2623 -34 
Q 2366 -91 2075 -91 
Q 1284 -91 818 406 
Q 353 903 353 1747 
Q 353 2603 823 3093 
Q 1294 3584 2113 3584 
Q 2378 3584 2631 3529 
Q 2884 3475 3122 3366 
z
" transform="scale(0.015625)"/>
       <path id="DejaVuSans-65" d="M 3597 1894 
L 3597 1613 
L 953 1613 
Q 991 1019 1311 708 
Q 1631 397 2203 397 
Q 2534 397 2845 478 
Q 3156 559 3463 722 
L 3463 178 
Q 3153 47 2828 -22 
Q 2503 -91 2169 -91 
Q 1331 -91 842 396 
Q 353 884 353 1716 
Q 353 2575 817 3079 
Q 1281 3584 2069 3584 
Q 2775 3584 3186 3129 
Q 3597 2675 3597 1894 
z
M 3022 2063 
Q 3016 2534 2758 2815 
Q 2500 3097 2075 3097 
Q 1594 3097 1305 2825 
Q 1016 2553 972 2059 
L 3022 2063 
z
" transform="scale(0.015625)"/>
       <path id="DejaVuSans-20" transform="scale(0.015625)"/>
       <path id="DejaVuSans-55" d="M 556 4666 
L 1191 4666 
L 1191 1831 
Q 1191 1081 1462 751 
Q 1734 422 2344 422 
Q 2950 422 3222 751 
Q 3494 1081 3494 1831 
L 3494 4666 
L 4128 4666 
L 4128 1753 
Q 4128 841 3676 375 
Q 3225 -91 2344 -91 
Q 1459 -91 1007 375 
Q 556 841 556 1753 
L 556 4666 
z
" transform="scale(0.015625)"/>
       <path id="DejaVuSans-6e" d="M 3513 2113 
L 3513 0 
L 2938 0 
L 2938 2094 
Q 2938 2591 2744 2837 
Q 2550 3084 2163 3084 
Q 1697 3084 1428 2787 
Q 1159 2491 1159 1978 
L 1159 0 
L 581 0 
L 581 3500 
L 1159 3500 
L 1159 2956 
Q 1366 3272 1645 3428 
Q 1925 3584 2291 3584 
Q 2894 3584 3203 3211 
Q 3513 2838 3513 2113 
z
" transform="scale(0.015625)"/>
       <path id="DejaVuSans-74" d="M 1172 4494 
L 1172 3500 
L 2356 3500 
L 2356 3053 
L 1172 3053 
L 1172 1153 
Q 1172 725 1289 603 
Q 1406 481 1766 481 
L 2356 481 
L 2356 0 
L 1766 0 
Q 1100 0 847 248 
Q 594 497 594 1153 
L 594 3053 
L 172 3053 
L 172 3500 
L 594 3500 
L 594 4494 
L 1172 4494 
z
" transform="scale(0.015625)"/>
       <path id="DejaVuSans-61" d="M 2194 1759 
Q 1497 1759 1228 1600 
Q 959 1441 959 1056 
Q 959 750 1161 570 
Q 1363 391 1709 391 
Q 2188 391 2477 730 
Q 2766 1069 2766 1631 
L 2766 1759 
L 2194 1759 
z
M 3341 1997 
L 3341 0 
L 2766 0 
L 2766 531 
Q 2569 213 2275 61 
Q 1981 -91 1556 -91 
Q 1019 -91 701 211 
Q 384 513 384 1019 
Q 384 1609 779 1909 
Q 1175 2209 1959 2209 
L 2766 2209 
L 2766 2266 
Q 2766 2663 2505 2880 
Q 2244 3097 1772 3097 
Q 1472 3097 1187 3025 
Q 903 2953 641 2809 
L 641 3341 
Q 956 3463 1253 3523 
Q 1550 3584 1831 3584 
Q 2591 3584 2966 3190 
Q 3341 2797 3341 1997 
z
" transform="scale(0.015625)"/>
       <path id="DejaVuSans-69" d="M 603 3500 
L 1178 3500 
L 1178 0 
L 603 0 
L 603 3500 
z
M 603 4863 
L 1178 4863 
L 1178 4134 
L 603 4134 
L 603 4863 
z
" transform="scale(0.015625)"/>
       <path id="DejaVuSans-73" d="M 2834 3397 
L 2834 2853 
Q 2591 2978 2328 3040 
Q 2066 3103 1784 3103 
Q 1356 3103 1142 2972 
Q 928 2841 928 2578 
Q 928 2378 1081 2264 
Q 1234 2150 1697 2047 
L 1894 2003 
Q 2506 1872 2764 1633 
Q 3022 1394 3022 966 
Q 3022 478 2636 193 
Q 2250 -91 1575 -91 
Q 1294 -91 989 -36 
Q 684 19 347 128 
L 347 722 
Q 666 556 975 473 
Q 1284 391 1588 391 
Q 1994 391 2212 530 
Q 2431 669 2431 922 
Q 2431 1156 2273 1281 
Q 2116 1406 1581 1522 
L 1381 1569 
Q 847 1681 609 1914 
Q 372 2147 372 2553 
Q 372 3047 722 3315 
Q 1072 3584 1716 3584 
Q 2034 3584 2315 3537 
Q 2597 3491 2834 3397 
z
" transform="scale(0.015625)"/>
      </defs>
      <use xlink:href="#DejaVuSans-46"/>
      <use xlink:href="#DejaVuSans-6f" x="53.894531"/>
      <use xlink:href="#DejaVuSans-72" x="115.076172"/>
      <use xlink:href="#DejaVuSans-63" x="153.939453"/>
      <use xlink:href="#DejaVuSans-65" x="208.919922"/>
      <use xlink:href="#DejaVuSans-20" x="270.443359"/>
      <use xlink:href="#DejaVuSans-55" x="302.230469"/>
      <use xlink:href="#DejaVuSans-6e" x="375.423828"/>
      <use xlink:href="#DejaVuSans-63" x="438.802734"/>
      <use xlink:href="#DejaVuSans-65" x="493.783203"/>
      <use xlink:href="#DejaVuSans-72" x="555.306641"/>
      <use xlink:href="#DejaVuSans-74" x="596.419922"/>
      <use xlink:href="#DejaVuSans-61" x="635.628906"/>
      <use xlink:href="#DejaVuSans-69" x="696.908203"/>
      <use xlink:href="#DejaVuSans-6e" x="724.691406"/>
      <use xlink:href="#DejaVuSans-74" x="788.070312"/>
      <use xlink:href="#DejaVuSans-69" x="827.279297"/>
      <use xlink:href="#DejaVuSans-65" x="855.0625"/>
      <use xlink:href="#DejaVuSans-73" x="916.585938"/>
     </g>
    </g>
   </g>
   <g id="matplotlib.axis_2">
    <g id="ytick_1">
     <g id="line2d_9">
      <defs>
       <path id="me5272e69e6" d="M 0 0 
L -3.5 0 
" style="stroke: #000000; stroke-width: 0.8"/>
      </defs>
      <g>
       <use xlink:href="#me5272e69e6" x="44.66" y="482.378608" style="stroke: #000000; stroke-width: 0.8"/>
      </g>
     </g>
     <g id="text_10">
      <!-- 10 -->
      <g transform="translate(24.935 486.177827) scale(0.1 -0.1)">
       <use xlink:href="#DejaVuSans-31"/>
       <use xlink:href="#DejaVuSans-30" x="63.623047"/>
      </g>
     </g>
    </g>
    <g id="ytick_2">
     <g id="line2d_10">
      <g>
       <use xlink:href="#me5272e69e6" x="44.66" y="425.156206" style="stroke: #000000; stroke-width: 0.8"/>
      </g>
     </g>
     <g id="text_11">
      <!-- 20 -->
      <g transform="translate(24.935 428.955424) scale(0.1 -0.1)">
       <use xlink:href="#DejaVuSans-32"/>
       <use xlink:href="#DejaVuSans-30" x="63.623047"/>
      </g>
     </g>
    </g>
    <g id="ytick_3">
     <g id="line2d_11">
      <g>
       <use xlink:href="#me5272e69e6" x="44.66" y="367.933803" style="stroke: #000000; stroke-width: 0.8"/>
      </g>
     </g>
     <g id="text_12">
      <!-- 30 -->
      <g transform="translate(24.935 371.733022) scale(0.1 -0.1)">
       <use xlink:href="#DejaVuSans-33"/>
       <use xlink:href="#DejaVuSans-30" x="63.623047"/>
      </g>
     </g>
    </g>
    <g id="ytick_4">
     <g id="line2d_12">
      <g>
       <use xlink:href="#me5272e69e6" x="44.66" y="310.711401" style="stroke: #000000; stroke-width: 0.8"/>
      </g>
     </g>
     <g id="text_13">
      <!-- 40 -->
      <g transform="translate(24.935 314.510619) scale(0.1 -0.1)">
       <use xlink:href="#DejaVuSans-34"/>
       <use xlink:href="#DejaVuSans-30" x="63.623047"/>
      </g>
     </g>
    </g>
    <g id="ytick_5">
     <g id="line2d_13">
      <g>
       <use xlink:href="#me5272e69e6" x="44.66" y="253.488998" style="stroke: #000000; stroke-width: 0.8"/>
      </g>
     </g>
     <g id="text_14">
      <!-- 50 -->
      <g transform="translate(24.935 257.288217) scale(0.1 -0.1)">
       <use xlink:href="#DejaVuSans-35"/>
       <use xlink:href="#DejaVuSans-30" x="63.623047"/>
      </g>
     </g>
    </g>
    <g id="ytick_6">
     <g id="line2d_14">
      <g>
       <use xlink:href="#me5272e69e6" x="44.66" y="196.266596" style="stroke: #000000; stroke-width: 0.8"/>
      </g>
     </g>
     <g id="text_15">
      <!-- 60 -->
      <g transform="translate(24.935 200.065814) scale(0.1 -0.1)">
       <use xlink:href="#DejaVuSans-36"/>
       <use xlink:href="#DejaVuSans-30" x="63.623047"/>
      </g>
     </g>
    </g>
    <g id="ytick_7">
     <g id="line2d_15">
      <g>
       <use xlink:href="#me5272e69e6" x="44.66" y="139.044193" style="stroke: #000000; stroke-width: 0.8"/>
      </g>
     </g>
     <g id="text_16">
      <!-- 70 -->
      <g transform="translate(24.935 142.843412) scale(0.1 -0.1)">
       <use xlink:href="#DejaVuSans-37"/>
       <use xlink:href="#DejaVuSans-30" x="63.623047"/>
      </g>
     </g>
    </g>
    <g id="ytick_8">
     <g id="line2d_16">
      <g>
       <use xlink:href="#me5272e69e6" x="44.66" y="81.821791" style="stroke: #000000; stroke-width: 0.8"/>
      </g>
     </g>
     <g id="text_17">
      <!-- 80 -->
      <g transform="translate(24.935 85.621009) scale(0.1 -0.1)">
       <use xlink:href="#DejaVuSans-38"/>
       <use xlink:href="#DejaVuSans-30" x="63.623047"/>
      </g>
     </g>
    </g>
    <g id="text_18">
     <!-- Force Errors -->
     <g transform="translate(18.855313 309.641563) rotate(-90) scale(0.1 -0.1)">
      <defs>
       <path id="DejaVuSans-45" d="M 628 4666 
L 3578 4666 
L 3578 4134 
L 1259 4134 
L 1259 2753 
L 3481 2753 
L 3481 2222 
L 1259 2222 
L 1259 531 
L 3634 531 
L 3634 0 
L 628 0 
L 628 4666 
z
" transform="scale(0.015625)"/>
      </defs>
      <use xlink:href="#DejaVuSans-46"/>
      <use xlink:href="#DejaVuSans-6f" x="53.894531"/>
      <use xlink:href="#DejaVuSans-72" x="115.076172"/>
      <use xlink:href="#DejaVuSans-63" x="153.939453"/>
      <use xlink:href="#DejaVuSans-65" x="208.919922"/>
      <use xlink:href="#DejaVuSans-20" x="270.443359"/>
      <use xlink:href="#DejaVuSans-45" x="302.230469"/>
      <use xlink:href="#DejaVuSans-72" x="365.414062"/>
      <use xlink:href="#DejaVuSans-72" x="404.777344"/>
      <use xlink:href="#DejaVuSans-6f" x="443.640625"/>
      <use xlink:href="#DejaVuSans-72" x="504.822266"/>
      <use xlink:href="#DejaVuSans-73" x="545.935547"/>
     </g>
    </g>
   </g>
   <g id="line2d_17">
    <path d="M 44.66 534.04 
L 709.2 25.44 
" clip-path="url(#pe713b913fe)" style="fill: none; stroke-dasharray: 5.55,2.4; stroke-dashoffset: 0; stroke: #ff0000; stroke-width: 1.5"/>
   </g>
   <g id="patch_3">
    <path d="M 44.66 534.04 
L 44.66 25.44 
" style="fill: none; stroke: #000000; stroke-width: 0.8; stroke-linejoin: miter; stroke-linecap: square"/>
   </g>
   <g id="patch_4">
    <path d="M 709.2 534.04 
L 709.2 25.44 
" style="fill: none; stroke: #000000; stroke-width: 0.8; stroke-linejoin: miter; stroke-linecap: square"/>
   </g>
   <g id="patch_5">
    <path d="M 44.66 534.04 
L 709.2 534.04 
" style="fill: none; stroke: #000000; stroke-width: 0.8; stroke-linejoin: miter; stroke-linecap: square"/>
   </g>
   <g id="patch_6">
    <path d="M 44.66 25.44 
L 709.2 25.44 
" style="fill: none; stroke: #000000; stroke-width: 0.8; stroke-linejoin: miter; stroke-linecap: square"/>
   </g>
   <g id="text_19">
    <!-- Correlation in: 0.5816900447481762 -->
    <g transform="translate(111.114 65.102187) scale(0.1 -0.1)">
     <defs>
      <path id="DejaVuSans-43" d="M 4122 4306 
L 4122 3641 
Q 3803 3938 3442 4084 
Q 3081 4231 2675 4231 
Q 1875 4231 1450 3742 
Q 1025 3253 1025 2328 
Q 1025 1406 1450 917 
Q 1875 428 2675 428 
Q 3081 428 3442 575 
Q 3803 722 4122 1019 
L 4122 359 
Q 3791 134 3420 21 
Q 3050 -91 2638 -91 
Q 1578 -91 968 557 
Q 359 1206 359 2328 
Q 359 3453 968 4101 
Q 1578 4750 2638 4750 
Q 3056 4750 3426 4639 
Q 3797 4528 4122 4306 
z
" transform="scale(0.015625)"/>
      <path id="DejaVuSans-6c" d="M 603 4863 
L 1178 4863 
L 1178 0 
L 603 0 
L 603 4863 
z
" transform="scale(0.015625)"/>
      <path id="DejaVuSans-3a" d="M 750 794 
L 1409 794 
L 1409 0 
L 750 0 
L 750 794 
z
M 750 3309 
L 1409 3309 
L 1409 2516 
L 750 2516 
L 750 3309 
z
" transform="scale(0.015625)"/>
      <path id="DejaVuSans-2e" d="M 684 794 
L 1344 794 
L 1344 0 
L 684 0 
L 684 794 
z
" transform="scale(0.015625)"/>
      <path id="DejaVuSans-39" d="M 703 97 
L 703 672 
Q 941 559 1184 500 
Q 1428 441 1663 441 
Q 2288 441 2617 861 
Q 2947 1281 2994 2138 
Q 2813 1869 2534 1725 
Q 2256 1581 1919 1581 
Q 1219 1581 811 2004 
Q 403 2428 403 3163 
Q 403 3881 828 4315 
Q 1253 4750 1959 4750 
Q 2769 4750 3195 4129 
Q 3622 3509 3622 2328 
Q 3622 1225 3098 567 
Q 2575 -91 1691 -91 
Q 1453 -91 1209 -44 
Q 966 3 703 97 
z
M 1959 2075 
Q 2384 2075 2632 2365 
Q 2881 2656 2881 3163 
Q 2881 3666 2632 3958 
Q 2384 4250 1959 4250 
Q 1534 4250 1286 3958 
Q 1038 3666 1038 3163 
Q 1038 2656 1286 2365 
Q 1534 2075 1959 2075 
z
" transform="scale(0.015625)"/>
     </defs>
     <use xlink:href="#DejaVuSans-43"/>
     <use xlink:href="#DejaVuSans-6f" x="69.824219"/>
     <use xlink:href="#DejaVuSans-72" x="131.005859"/>
     <use xlink:href="#DejaVuSans-72" x="170.369141"/>
     <use xlink:href="#DejaVuSans-65" x="209.232422"/>
     <use xlink:href="#DejaVuSans-6c" x="270.755859"/>
     <use xlink:href="#DejaVuSans-61" x="298.539062"/>
     <use xlink:href="#DejaVuSans-74" x="359.818359"/>
     <use xlink:href="#DejaVuSans-69" x="399.027344"/>
     <use xlink:href="#DejaVuSans-6f" x="426.810547"/>
     <use xlink:href="#DejaVuSans-6e" x="487.992188"/>
     <use xlink:href="#DejaVuSans-20" x="551.371094"/>
     <use xlink:href="#DejaVuSans-69" x="583.158203"/>
     <use xlink:href="#DejaVuSans-6e" x="610.941406"/>
     <use xlink:href="#DejaVuSans-3a" x="674.320312"/>
     <use xlink:href="#DejaVuSans-20" x="708.011719"/>
     <use xlink:href="#DejaVuSans-30" x="739.798828"/>
     <use xlink:href="#DejaVuSans-2e" x="803.421875"/>
     <use xlink:href="#DejaVuSans-35" x="835.208984"/>
     <use xlink:href="#DejaVuSans-38" x="898.832031"/>
     <use xlink:href="#DejaVuSans-31" x="962.455078"/>
     <use xlink:href="#DejaVuSans-36" x="1026.078125"/>
     <use xlink:href="#DejaVuSans-39" x="1089.701172"/>
     <use xlink:href="#DejaVuSans-30" x="1153.324219"/>
     <use xlink:href="#DejaVuSans-30" x="1216.947266"/>
     <use xlink:href="#DejaVuSans-34" x="1280.570312"/>
     <use xlink:href="#DejaVuSans-34" x="1344.193359"/>
     <use xlink:href="#DejaVuSans-37" x="1407.816406"/>
     <use xlink:href="#DejaVuSans-34" x="1471.439453"/>
     <use xlink:href="#DejaVuSans-38" x="1535.0625"/>
     <use xlink:href="#DejaVuSans-31" x="1598.685547"/>
     <use xlink:href="#DejaVuSans-37" x="1662.308594"/>
     <use xlink:href="#DejaVuSans-36" x="1725.931641"/>
     <use xlink:href="#DejaVuSans-32" x="1789.554688"/>
    </g>
    <!-- Correlation Out: 0.39886967238232496 -->
    <g transform="translate(111.114 76.3) scale(0.1 -0.1)">
     <defs>
      <path id="DejaVuSans-4f" d="M 2522 4238 
Q 1834 4238 1429 3725 
Q 1025 3213 1025 2328 
Q 1025 1447 1429 934 
Q 1834 422 2522 422 
Q 3209 422 3611 934 
Q 4013 1447 4013 2328 
Q 4013 3213 3611 3725 
Q 3209 4238 2522 4238 
z
M 2522 4750 
Q 3503 4750 4090 4092 
Q 4678 3434 4678 2328 
Q 4678 1225 4090 567 
Q 3503 -91 2522 -91 
Q 1538 -91 948 565 
Q 359 1222 359 2328 
Q 359 3434 948 4092 
Q 1538 4750 2522 4750 
z
" transform="scale(0.015625)"/>
      <path id="DejaVuSans-75" d="M 544 1381 
L 544 3500 
L 1119 3500 
L 1119 1403 
Q 1119 906 1312 657 
Q 1506 409 1894 409 
Q 2359 409 2629 706 
Q 2900 1003 2900 1516 
L 2900 3500 
L 3475 3500 
L 3475 0 
L 2900 0 
L 2900 538 
Q 2691 219 2414 64 
Q 2138 -91 1772 -91 
Q 1169 -91 856 284 
Q 544 659 544 1381 
z
M 1991 3584 
L 1991 3584 
z
" transform="scale(0.015625)"/>
     </defs>
     <use xlink:href="#DejaVuSans-43"/>
     <use xlink:href="#DejaVuSans-6f" x="69.824219"/>
     <use xlink:href="#DejaVuSans-72" x="131.005859"/>
     <use xlink:href="#DejaVuSans-72" x="170.369141"/>
     <use xlink:href="#DejaVuSans-65" x="209.232422"/>
     <use xlink:href="#DejaVuSans-6c" x="270.755859"/>
     <use xlink:href="#DejaVuSans-61" x="298.539062"/>
     <use xlink:href="#DejaVuSans-74" x="359.818359"/>
     <use xlink:href="#DejaVuSans-69" x="399.027344"/>
     <use xlink:href="#DejaVuSans-6f" x="426.810547"/>
     <use xlink:href="#DejaVuSans-6e" x="487.992188"/>
     <use xlink:href="#DejaVuSans-20" x="551.371094"/>
     <use xlink:href="#DejaVuSans-4f" x="583.158203"/>
     <use xlink:href="#DejaVuSans-75" x="661.869141"/>
     <use xlink:href="#DejaVuSans-74" x="725.248047"/>
     <use xlink:href="#DejaVuSans-3a" x="764.457031"/>
     <use xlink:href="#DejaVuSans-20" x="798.148438"/>
     <use xlink:href="#DejaVuSans-30" x="829.935547"/>
     <use xlink:href="#DejaVuSans-2e" x="893.558594"/>
     <use xlink:href="#DejaVuSans-33" x="925.345703"/>
     <use xlink:href="#DejaVuSans-39" x="988.96875"/>
     <use xlink:href="#DejaVuSans-38" x="1052.591797"/>
     <use xlink:href="#DejaVuSans-38" x="1116.214844"/>
     <use xlink:href="#DejaVuSans-36" x="1179.837891"/>
     <use xlink:href="#DejaVuSans-39" x="1243.460938"/>
     <use xlink:href="#DejaVuSans-36" x="1307.083984"/>
     <use xlink:href="#DejaVuSans-37" x="1370.707031"/>
     <use xlink:href="#DejaVuSans-32" x="1434.330078"/>
     <use xlink:href="#DejaVuSans-33" x="1497.953125"/>
     <use xlink:href="#DejaVuSans-38" x="1561.576172"/>
     <use xlink:href="#DejaVuSans-32" x="1625.199219"/>
     <use xlink:href="#DejaVuSans-33" x="1688.822266"/>
     <use xlink:href="#DejaVuSans-32" x="1752.445312"/>
     <use xlink:href="#DejaVuSans-34" x="1816.068359"/>
     <use xlink:href="#DejaVuSans-39" x="1879.691406"/>
     <use xlink:href="#DejaVuSans-36" x="1943.314453"/>
    </g>
   </g>
   <g id="text_20">
    <!-- MVE -->
    <g transform="translate(363.8575 19.44) scale(0.12 -0.12)">
     <defs>
      <path id="DejaVuSans-4d" d="M 628 4666 
L 1569 4666 
L 2759 1491 
L 3956 4666 
L 4897 4666 
L 4897 0 
L 4281 0 
L 4281 4097 
L 3078 897 
L 2444 897 
L 1241 4097 
L 1241 0 
L 628 0 
L 628 4666 
z
" transform="scale(0.015625)"/>
      <path id="DejaVuSans-56" d="M 1831 0 
L 50 4666 
L 709 4666 
L 2188 738 
L 3669 4666 
L 4325 4666 
L 2547 0 
L 1831 0 
z
" transform="scale(0.015625)"/>
     </defs>
     <use xlink:href="#DejaVuSans-4d"/>
     <use xlink:href="#DejaVuSans-56" x="86.279297"/>
     <use xlink:href="#DejaVuSans-45" x="154.6875"/>
    </g>
   </g>
   <g id="legend_1">
    <g id="patch_7">
     <path d="M 577.7375 62.79625 
L 702.2 62.79625 
Q 704.2 62.79625 704.2 60.79625 
L 704.2 32.44 
Q 704.2 30.44 702.2 30.44 
L 577.7375 30.44 
Q 575.7375 30.44 575.7375 32.44 
L 575.7375 60.79625 
Q 575.7375 62.79625 577.7375 62.79625 
z
" style="fill: #ffffff; opacity: 0.8; stroke: #cccccc; stroke-linejoin: miter"/>
    </g>
    <g id="line2d_18">
     <defs>
      <path id="m3280c5fa80" d="M 0 2.5 
C 0.663008 2.5 1.29895 2.236584 1.767767 1.767767 
C 2.236584 1.29895 2.5 0.663008 2.5 0 
C 2.5 -0.663008 2.236584 -1.29895 1.767767 -1.767767 
C 1.29895 -2.236584 0.663008 -2.5 0 -2.5 
C -0.663008 -2.5 -1.29895 -2.236584 -1.767767 -1.767767 
C -2.236584 -1.29895 -2.5 -0.663008 -2.5 0 
C -2.5 0.663008 -2.236584 1.29895 -1.767767 1.767767 
C -1.29895 2.236584 -0.663008 2.5 0 2.5 
z
" style="stroke: #ffffff"/>
     </defs>
     <g>
      <use xlink:href="#m3280c5fa80" x="589.7375" y="38.538437" style="fill: #0000ff; stroke: #ffffff"/>
     </g>
    </g>
    <g id="text_21">
     <!-- In Distribution -->
     <g transform="translate(607.7375 42.038437) scale(0.1 -0.1)">
      <defs>
       <path id="DejaVuSans-49" d="M 628 4666 
L 1259 4666 
L 1259 0 
L 628 0 
L 628 4666 
z
" transform="scale(0.015625)"/>
       <path id="DejaVuSans-44" d="M 1259 4147 
L 1259 519 
L 2022 519 
Q 2988 519 3436 956 
Q 3884 1394 3884 2338 
Q 3884 3275 3436 3711 
Q 2988 4147 2022 4147 
L 1259 4147 
z
M 628 4666 
L 1925 4666 
Q 3281 4666 3915 4102 
Q 4550 3538 4550 2338 
Q 4550 1131 3912 565 
Q 3275 0 1925 0 
L 628 0 
L 628 4666 
z
" transform="scale(0.015625)"/>
       <path id="DejaVuSans-62" d="M 3116 1747 
Q 3116 2381 2855 2742 
Q 2594 3103 2138 3103 
Q 1681 3103 1420 2742 
Q 1159 2381 1159 1747 
Q 1159 1113 1420 752 
Q 1681 391 2138 391 
Q 2594 391 2855 752 
Q 3116 1113 3116 1747 
z
M 1159 2969 
Q 1341 3281 1617 3432 
Q 1894 3584 2278 3584 
Q 2916 3584 3314 3078 
Q 3713 2572 3713 1747 
Q 3713 922 3314 415 
Q 2916 -91 2278 -91 
Q 1894 -91 1617 61 
Q 1341 213 1159 525 
L 1159 0 
L 581 0 
L 581 4863 
L 1159 4863 
L 1159 2969 
z
" transform="scale(0.015625)"/>
      </defs>
      <use xlink:href="#DejaVuSans-49"/>
      <use xlink:href="#DejaVuSans-6e" x="29.492188"/>
      <use xlink:href="#DejaVuSans-20" x="92.871094"/>
      <use xlink:href="#DejaVuSans-44" x="124.658203"/>
      <use xlink:href="#DejaVuSans-69" x="201.660156"/>
      <use xlink:href="#DejaVuSans-73" x="229.443359"/>
      <use xlink:href="#DejaVuSans-74" x="281.542969"/>
      <use xlink:href="#DejaVuSans-72" x="320.751953"/>
      <use xlink:href="#DejaVuSans-69" x="361.865234"/>
      <use xlink:href="#DejaVuSans-62" x="389.648438"/>
      <use xlink:href="#DejaVuSans-75" x="453.125"/>
      <use xlink:href="#DejaVuSans-74" x="516.503906"/>
      <use xlink:href="#DejaVuSans-69" x="555.712891"/>
      <use xlink:href="#DejaVuSans-6f" x="583.496094"/>
      <use xlink:href="#DejaVuSans-6e" x="644.677734"/>
     </g>
    </g>
    <g id="line2d_19">
     <defs>
      <path id="m0258f2221c" d="M 0 2.5 
C 0.663008 2.5 1.29895 2.236584 1.767767 1.767767 
C 2.236584 1.29895 2.5 0.663008 2.5 0 
C 2.5 -0.663008 2.236584 -1.29895 1.767767 -1.767767 
C 1.29895 -2.236584 0.663008 -2.5 0 -2.5 
C -0.663008 -2.5 -1.29895 -2.236584 -1.767767 -1.767767 
C -2.236584 -1.29895 -2.5 -0.663008 -2.5 0 
C -2.5 0.663008 -2.236584 1.29895 -1.767767 1.767767 
C -1.29895 2.236584 -0.663008 2.5 0 2.5 
z
" style="stroke: #ffffff"/>
     </defs>
     <g>
      <use xlink:href="#m0258f2221c" x="589.7375" y="53.216563" style="fill: #008000; stroke: #ffffff"/>
     </g>
    </g>
    <g id="text_22">
     <!-- Out of Distribution -->
     <g transform="translate(607.7375 56.716563) scale(0.1 -0.1)">
      <defs>
       <path id="DejaVuSans-66" d="M 2375 4863 
L 2375 4384 
L 1825 4384 
Q 1516 4384 1395 4259 
Q 1275 4134 1275 3809 
L 1275 3500 
L 2222 3500 
L 2222 3053 
L 1275 3053 
L 1275 0 
L 697 0 
L 697 3053 
L 147 3053 
L 147 3500 
L 697 3500 
L 697 3744 
Q 697 4328 969 4595 
Q 1241 4863 1831 4863 
L 2375 4863 
z
" transform="scale(0.015625)"/>
      </defs>
      <use xlink:href="#DejaVuSans-4f"/>
      <use xlink:href="#DejaVuSans-75" x="78.710938"/>
      <use xlink:href="#DejaVuSans-74" x="142.089844"/>
      <use xlink:href="#DejaVuSans-20" x="181.298828"/>
      <use xlink:href="#DejaVuSans-6f" x="213.085938"/>
      <use xlink:href="#DejaVuSans-66" x="274.267578"/>
      <use xlink:href="#DejaVuSans-20" x="309.472656"/>
      <use xlink:href="#DejaVuSans-44" x="341.259766"/>
      <use xlink:href="#DejaVuSans-69" x="418.261719"/>
      <use xlink:href="#DejaVuSans-73" x="446.044922"/>
      <use xlink:href="#DejaVuSans-74" x="498.144531"/>
      <use xlink:href="#DejaVuSans-72" x="537.353516"/>
      <use xlink:href="#DejaVuSans-69" x="578.466797"/>
      <use xlink:href="#DejaVuSans-62" x="606.25"/>
      <use xlink:href="#DejaVuSans-75" x="669.726562"/>
      <use xlink:href="#DejaVuSans-74" x="733.105469"/>
      <use xlink:href="#DejaVuSans-69" x="772.314453"/>
      <use xlink:href="#DejaVuSans-6f" x="800.097656"/>
      <use xlink:href="#DejaVuSans-6e" x="861.279297"/>
     </g>
    </g>
   </g>
  </g>
 </g>
 <defs>
  <clipPath id="pe713b913fe">
   <rect x="44.66" y="25.44" width="664.54" height="508.6"/>
  </clipPath>
 </defs>
</svg>
