<?xml version="1.0" encoding="utf-8" standalone="no"?>
<!DOCTYPE svg PUBLIC "-//W3C//DTD SVG 1.1//EN"
  "http://www.w3.org/Graphics/SVG/1.1/DTD/svg11.dtd">
<svg xmlns:xlink="http://www.w3.org/1999/xlink" width="720pt" height="576pt" viewBox="0 0 720 576" xmlns="http://www.w3.org/2000/svg" version="1.1">
 <metadata>
  <rdf:RDF xmlns:dc="http://purl.org/dc/elements/1.1/" xmlns:cc="http://creativecommons.org/ns#" xmlns:rdf="http://www.w3.org/1999/02/22-rdf-syntax-ns#">
   <cc:Work>
    <dc:type rdf:resource="http://purl.org/dc/dcmitype/StillImage"/>
    <dc:date>2024-12-01T15:52:21.661863</dc:date>
    <dc:format>image/svg+xml</dc:format>
    <dc:creator>
     <cc:Agent>
      <dc:title>Matplotlib v3.8.4, https://matplotlib.org/</dc:title>
     </cc:Agent>
    </dc:creator>
   </cc:Work>
  </rdf:RDF>
 </metadata>
 <defs>
  <style type="text/css">*{stroke-linejoin: round; stroke-linecap: butt}</style>
 </defs>
 <g id="figure_1">
  <g id="patch_1">
   <path d="M 0 576 
L 720 576 
L 720 0 
L 0 0 
z
" style="fill: #ffffff"/>
  </g>
  <g id="axes_1">
   <g id="patch_2">
    <path d="M 47.81 534.04 
L 709.2 534.04 
L 709.2 25.44 
L 47.81 25.44 
z
" style="fill: #ffffff"/>
   </g>
   <g id="PathCollection_1">
    <defs>
     <path id="m933115e77c" d="M 0 3 
C 0.795609 3 1.55874 2.683901 2.12132 2.12132 
C 2.683901 1.55874 3 0.795609 3 0 
C 3 -0.795609 2.683901 -1.55874 2.12132 -2.12132 
C 1.55874 -2.683901 0.795609 -3 0 -3 
C -0.795609 -3 -1.55874 -2.683901 -2.12132 -2.12132 
C -2.683901 -1.55874 -3 -0.795609 -3 0 
C -3 0.795609 -2.683901 1.55874 -2.12132 2.12132 
C -1.55874 2.683901 -0.795609 3 0 3 
z
" style="stroke: #1f77b4"/>
    </defs>
    <g clip-path="url(#p94edbad79e)">
     <use xlink:href="#m933115e77c" x="103.545343" y="479.107041" style="fill: #1f77b4; stroke: #1f77b4"/>
     <use xlink:href="#m933115e77c" x="149.368033" y="477.939587" style="fill: #1f77b4; stroke: #1f77b4"/>
     <use xlink:href="#m933115e77c" x="155.270824" y="465.067764" style="fill: #1f77b4; stroke: #1f77b4"/>
     <use xlink:href="#m933115e77c" x="102.03622" y="483.935229" style="fill: #1f77b4; stroke: #1f77b4"/>
     <use xlink:href="#m933115e77c" x="133.122001" y="477.429625" style="fill: #1f77b4; stroke: #1f77b4"/>
     <use xlink:href="#m933115e77c" x="188.824863" y="482.200907" style="fill: #1f77b4; stroke: #1f77b4"/>
     <use xlink:href="#m933115e77c" x="127.309576" y="477.52033" style="fill: #1f77b4; stroke: #1f77b4"/>
     <use xlink:href="#m933115e77c" x="146.182928" y="482.482656" style="fill: #1f77b4; stroke: #1f77b4"/>
     <use xlink:href="#m933115e77c" x="111.674104" y="482.045972" style="fill: #1f77b4; stroke: #1f77b4"/>
     <use xlink:href="#m933115e77c" x="90.457167" y="481.988891" style="fill: #1f77b4; stroke: #1f77b4"/>
     <use xlink:href="#m933115e77c" x="112.853365" y="478.955052" style="fill: #1f77b4; stroke: #1f77b4"/>
     <use xlink:href="#m933115e77c" x="129.6191" y="477.984183" style="fill: #1f77b4; stroke: #1f77b4"/>
     <use xlink:href="#m933115e77c" x="232.227638" y="458.180787" style="fill: #1f77b4; stroke: #1f77b4"/>
     <use xlink:href="#m933115e77c" x="156.917013" y="485.035198" style="fill: #1f77b4; stroke: #1f77b4"/>
     <use xlink:href="#m933115e77c" x="204.453276" y="466.485018" style="fill: #1f77b4; stroke: #1f77b4"/>
     <use xlink:href="#m933115e77c" x="133.019653" y="477.566498" style="fill: #1f77b4; stroke: #1f77b4"/>
     <use xlink:href="#m933115e77c" x="135.138105" y="481.799331" style="fill: #1f77b4; stroke: #1f77b4"/>
     <use xlink:href="#m933115e77c" x="137.189665" y="484.658005" style="fill: #1f77b4; stroke: #1f77b4"/>
     <use xlink:href="#m933115e77c" x="114.089259" y="490.278014" style="fill: #1f77b4; stroke: #1f77b4"/>
     <use xlink:href="#m933115e77c" x="159.312634" y="474.551197" style="fill: #1f77b4; stroke: #1f77b4"/>
     <use xlink:href="#m933115e77c" x="120.933784" y="485.273727" style="fill: #1f77b4; stroke: #1f77b4"/>
     <use xlink:href="#m933115e77c" x="134.72469" y="489.251826" style="fill: #1f77b4; stroke: #1f77b4"/>
     <use xlink:href="#m933115e77c" x="144.362739" y="471.55552" style="fill: #1f77b4; stroke: #1f77b4"/>
     <use xlink:href="#m933115e77c" x="123.911074" y="482.076623" style="fill: #1f77b4; stroke: #1f77b4"/>
     <use xlink:href="#m933115e77c" x="146.120715" y="472.334065" style="fill: #1f77b4; stroke: #1f77b4"/>
     <use xlink:href="#m933115e77c" x="124.636704" y="477.373219" style="fill: #1f77b4; stroke: #1f77b4"/>
     <use xlink:href="#m933115e77c" x="125.733644" y="481.029305" style="fill: #1f77b4; stroke: #1f77b4"/>
     <use xlink:href="#m933115e77c" x="147.257953" y="486.680857" style="fill: #1f77b4; stroke: #1f77b4"/>
     <use xlink:href="#m933115e77c" x="112.673866" y="480.901045" style="fill: #1f77b4; stroke: #1f77b4"/>
     <use xlink:href="#m933115e77c" x="131.940688" y="471.678648" style="fill: #1f77b4; stroke: #1f77b4"/>
     <use xlink:href="#m933115e77c" x="107.529207" y="474.754058" style="fill: #1f77b4; stroke: #1f77b4"/>
     <use xlink:href="#m933115e77c" x="150.319453" y="488.66996" style="fill: #1f77b4; stroke: #1f77b4"/>
     <use xlink:href="#m933115e77c" x="136.071714" y="485.933605" style="fill: #1f77b4; stroke: #1f77b4"/>
     <use xlink:href="#m933115e77c" x="152.109438" y="483.095319" style="fill: #1f77b4; stroke: #1f77b4"/>
     <use xlink:href="#m933115e77c" x="142.578334" y="484.161846" style="fill: #1f77b4; stroke: #1f77b4"/>
     <use xlink:href="#m933115e77c" x="122.876676" y="479.559719" style="fill: #1f77b4; stroke: #1f77b4"/>
     <use xlink:href="#m933115e77c" x="145.101747" y="471.574412" style="fill: #1f77b4; stroke: #1f77b4"/>
     <use xlink:href="#m933115e77c" x="236.324357" y="476.192518" style="fill: #1f77b4; stroke: #1f77b4"/>
     <use xlink:href="#m933115e77c" x="169.278328" y="485.615111" style="fill: #1f77b4; stroke: #1f77b4"/>
     <use xlink:href="#m933115e77c" x="151.41828" y="480.963399" style="fill: #1f77b4; stroke: #1f77b4"/>
     <use xlink:href="#m933115e77c" x="189.479169" y="484.873964" style="fill: #1f77b4; stroke: #1f77b4"/>
     <use xlink:href="#m933115e77c" x="181.778678" y="467.109172" style="fill: #1f77b4; stroke: #1f77b4"/>
     <use xlink:href="#m933115e77c" x="131.707922" y="486.247743" style="fill: #1f77b4; stroke: #1f77b4"/>
     <use xlink:href="#m933115e77c" x="144.959428" y="476.367746" style="fill: #1f77b4; stroke: #1f77b4"/>
     <use xlink:href="#m933115e77c" x="122.34655" y="475.686182" style="fill: #1f77b4; stroke: #1f77b4"/>
     <use xlink:href="#m933115e77c" x="198.811814" y="481.674597" style="fill: #1f77b4; stroke: #1f77b4"/>
     <use xlink:href="#m933115e77c" x="137.093883" y="483.117349" style="fill: #1f77b4; stroke: #1f77b4"/>
     <use xlink:href="#m933115e77c" x="124.690464" y="477.84215" style="fill: #1f77b4; stroke: #1f77b4"/>
     <use xlink:href="#m933115e77c" x="231.870117" y="488.163681" style="fill: #1f77b4; stroke: #1f77b4"/>
     <use xlink:href="#m933115e77c" x="110.968665" y="486.334298" style="fill: #1f77b4; stroke: #1f77b4"/>
     <use xlink:href="#m933115e77c" x="118.989168" y="479.684211" style="fill: #1f77b4; stroke: #1f77b4"/>
     <use xlink:href="#m933115e77c" x="175.270334" y="485.397841" style="fill: #1f77b4; stroke: #1f77b4"/>
     <use xlink:href="#m933115e77c" x="143.63793" y="484.661799" style="fill: #1f77b4; stroke: #1f77b4"/>
     <use xlink:href="#m933115e77c" x="140.989434" y="486.548821" style="fill: #1f77b4; stroke: #1f77b4"/>
     <use xlink:href="#m933115e77c" x="148.070747" y="486.788689" style="fill: #1f77b4; stroke: #1f77b4"/>
     <use xlink:href="#m933115e77c" x="155.285762" y="482.227501" style="fill: #1f77b4; stroke: #1f77b4"/>
     <use xlink:href="#m933115e77c" x="130.332828" y="484.172558" style="fill: #1f77b4; stroke: #1f77b4"/>
     <use xlink:href="#m933115e77c" x="130.720471" y="482.059275" style="fill: #1f77b4; stroke: #1f77b4"/>
     <use xlink:href="#m933115e77c" x="92.077585" y="483.45896" style="fill: #1f77b4; stroke: #1f77b4"/>
     <use xlink:href="#m933115e77c" x="132.182072" y="444.135104" style="fill: #1f77b4; stroke: #1f77b4"/>
     <use xlink:href="#m933115e77c" x="169.696256" y="484.963236" style="fill: #1f77b4; stroke: #1f77b4"/>
     <use xlink:href="#m933115e77c" x="111.477862" y="487.208586" style="fill: #1f77b4; stroke: #1f77b4"/>
     <use xlink:href="#m933115e77c" x="122.804368" y="488.144476" style="fill: #1f77b4; stroke: #1f77b4"/>
     <use xlink:href="#m933115e77c" x="119.986304" y="474.270996" style="fill: #1f77b4; stroke: #1f77b4"/>
     <use xlink:href="#m933115e77c" x="190.992642" y="466.535288" style="fill: #1f77b4; stroke: #1f77b4"/>
     <use xlink:href="#m933115e77c" x="158.175067" y="477.861836" style="fill: #1f77b4; stroke: #1f77b4"/>
     <use xlink:href="#m933115e77c" x="127.897565" y="481.375796" style="fill: #1f77b4; stroke: #1f77b4"/>
     <use xlink:href="#m933115e77c" x="138.200836" y="483.568365" style="fill: #1f77b4; stroke: #1f77b4"/>
     <use xlink:href="#m933115e77c" x="152.919606" y="467.205378" style="fill: #1f77b4; stroke: #1f77b4"/>
     <use xlink:href="#m933115e77c" x="122.453084" y="484.649133" style="fill: #1f77b4; stroke: #1f77b4"/>
     <use xlink:href="#m933115e77c" x="133.342128" y="485.937732" style="fill: #1f77b4; stroke: #1f77b4"/>
     <use xlink:href="#m933115e77c" x="108.613015" y="466.679566" style="fill: #1f77b4; stroke: #1f77b4"/>
     <use xlink:href="#m933115e77c" x="111.715963" y="486.365392" style="fill: #1f77b4; stroke: #1f77b4"/>
     <use xlink:href="#m933115e77c" x="100.084464" y="486.627819" style="fill: #1f77b4; stroke: #1f77b4"/>
     <use xlink:href="#m933115e77c" x="117.277976" y="486.274782" style="fill: #1f77b4; stroke: #1f77b4"/>
     <use xlink:href="#m933115e77c" x="133.243145" y="482.276529" style="fill: #1f77b4; stroke: #1f77b4"/>
     <use xlink:href="#m933115e77c" x="117.548086" y="481.620449" style="fill: #1f77b4; stroke: #1f77b4"/>
     <use xlink:href="#m933115e77c" x="147.991216" y="477.789837" style="fill: #1f77b4; stroke: #1f77b4"/>
     <use xlink:href="#m933115e77c" x="107.690322" y="482.614308" style="fill: #1f77b4; stroke: #1f77b4"/>
     <use xlink:href="#m933115e77c" x="131.154487" y="484.323451" style="fill: #1f77b4; stroke: #1f77b4"/>
     <use xlink:href="#m933115e77c" x="219.359097" y="475.653602" style="fill: #1f77b4; stroke: #1f77b4"/>
     <use xlink:href="#m933115e77c" x="121.118454" y="485.985226" style="fill: #1f77b4; stroke: #1f77b4"/>
     <use xlink:href="#m933115e77c" x="140.832342" y="486.976423" style="fill: #1f77b4; stroke: #1f77b4"/>
     <use xlink:href="#m933115e77c" x="110.882568" y="483.180623" style="fill: #1f77b4; stroke: #1f77b4"/>
     <use xlink:href="#m933115e77c" x="96.21452" y="446.212533" style="fill: #1f77b4; stroke: #1f77b4"/>
     <use xlink:href="#m933115e77c" x="132.696768" y="486.872337" style="fill: #1f77b4; stroke: #1f77b4"/>
     <use xlink:href="#m933115e77c" x="128.127377" y="487.834484" style="fill: #1f77b4; stroke: #1f77b4"/>
     <use xlink:href="#m933115e77c" x="153.480182" y="485.226464" style="fill: #1f77b4; stroke: #1f77b4"/>
     <use xlink:href="#m933115e77c" x="148.981293" y="487.667061" style="fill: #1f77b4; stroke: #1f77b4"/>
     <use xlink:href="#m933115e77c" x="139.030209" y="482.398082" style="fill: #1f77b4; stroke: #1f77b4"/>
     <use xlink:href="#m933115e77c" x="125.499154" y="481.51071" style="fill: #1f77b4; stroke: #1f77b4"/>
     <use xlink:href="#m933115e77c" x="181.445533" y="435.816793" style="fill: #1f77b4; stroke: #1f77b4"/>
     <use xlink:href="#m933115e77c" x="112.194791" y="479.766689" style="fill: #1f77b4; stroke: #1f77b4"/>
     <use xlink:href="#m933115e77c" x="176.875896" y="487.628406" style="fill: #1f77b4; stroke: #1f77b4"/>
     <use xlink:href="#m933115e77c" x="146.774118" y="486.926556" style="fill: #1f77b4; stroke: #1f77b4"/>
     <use xlink:href="#m933115e77c" x="132.729188" y="485.627885" style="fill: #1f77b4; stroke: #1f77b4"/>
     <use xlink:href="#m933115e77c" x="145.619151" y="479.533389" style="fill: #1f77b4; stroke: #1f77b4"/>
     <use xlink:href="#m933115e77c" x="165.966333" y="456.333199" style="fill: #1f77b4; stroke: #1f77b4"/>
     <use xlink:href="#m933115e77c" x="146.236359" y="480.297524" style="fill: #1f77b4; stroke: #1f77b4"/>
     <use xlink:href="#m933115e77c" x="156.566058" y="483.537041" style="fill: #1f77b4; stroke: #1f77b4"/>
     <use xlink:href="#m933115e77c" x="119.880016" y="476.843389" style="fill: #1f77b4; stroke: #1f77b4"/>
     <use xlink:href="#m933115e77c" x="100.833649" y="476.868373" style="fill: #1f77b4; stroke: #1f77b4"/>
     <use xlink:href="#m933115e77c" x="126.314738" y="486.379235" style="fill: #1f77b4; stroke: #1f77b4"/>
     <use xlink:href="#m933115e77c" x="125.782807" y="480.356535" style="fill: #1f77b4; stroke: #1f77b4"/>
     <use xlink:href="#m933115e77c" x="137.405278" y="482.526774" style="fill: #1f77b4; stroke: #1f77b4"/>
     <use xlink:href="#m933115e77c" x="150.30509" y="489.429284" style="fill: #1f77b4; stroke: #1f77b4"/>
     <use xlink:href="#m933115e77c" x="127.692541" y="484.767704" style="fill: #1f77b4; stroke: #1f77b4"/>
     <use xlink:href="#m933115e77c" x="130.149718" y="484.052931" style="fill: #1f77b4; stroke: #1f77b4"/>
     <use xlink:href="#m933115e77c" x="239.131012" y="480.238316" style="fill: #1f77b4; stroke: #1f77b4"/>
     <use xlink:href="#m933115e77c" x="126.779778" y="479.770531" style="fill: #1f77b4; stroke: #1f77b4"/>
     <use xlink:href="#m933115e77c" x="102.120265" y="479.052816" style="fill: #1f77b4; stroke: #1f77b4"/>
     <use xlink:href="#m933115e77c" x="149.821337" y="481.412767" style="fill: #1f77b4; stroke: #1f77b4"/>
     <use xlink:href="#m933115e77c" x="163.870781" y="469.688358" style="fill: #1f77b4; stroke: #1f77b4"/>
     <use xlink:href="#m933115e77c" x="228.517085" y="441.131174" style="fill: #1f77b4; stroke: #1f77b4"/>
     <use xlink:href="#m933115e77c" x="182.272609" y="461.293588" style="fill: #1f77b4; stroke: #1f77b4"/>
     <use xlink:href="#m933115e77c" x="145.463043" y="481.791936" style="fill: #1f77b4; stroke: #1f77b4"/>
     <use xlink:href="#m933115e77c" x="131.982629" y="485.674946" style="fill: #1f77b4; stroke: #1f77b4"/>
     <use xlink:href="#m933115e77c" x="85.844933" y="475.249949" style="fill: #1f77b4; stroke: #1f77b4"/>
     <use xlink:href="#m933115e77c" x="117.902406" y="479.731942" style="fill: #1f77b4; stroke: #1f77b4"/>
     <use xlink:href="#m933115e77c" x="134.721572" y="459.831197" style="fill: #1f77b4; stroke: #1f77b4"/>
     <use xlink:href="#m933115e77c" x="252.000948" y="441.273" style="fill: #1f77b4; stroke: #1f77b4"/>
     <use xlink:href="#m933115e77c" x="157.321153" y="480.351089" style="fill: #1f77b4; stroke: #1f77b4"/>
     <use xlink:href="#m933115e77c" x="220.021693" y="472.067646" style="fill: #1f77b4; stroke: #1f77b4"/>
     <use xlink:href="#m933115e77c" x="157.541279" y="479.415917" style="fill: #1f77b4; stroke: #1f77b4"/>
     <use xlink:href="#m933115e77c" x="117.984892" y="480.892442" style="fill: #1f77b4; stroke: #1f77b4"/>
     <use xlink:href="#m933115e77c" x="160.577582" y="488.658549" style="fill: #1f77b4; stroke: #1f77b4"/>
     <use xlink:href="#m933115e77c" x="160.224083" y="480.94995" style="fill: #1f77b4; stroke: #1f77b4"/>
     <use xlink:href="#m933115e77c" x="121.035147" y="466.226201" style="fill: #1f77b4; stroke: #1f77b4"/>
     <use xlink:href="#m933115e77c" x="121.186413" y="487.820985" style="fill: #1f77b4; stroke: #1f77b4"/>
     <use xlink:href="#m933115e77c" x="106.544301" y="482.815552" style="fill: #1f77b4; stroke: #1f77b4"/>
     <use xlink:href="#m933115e77c" x="157.270348" y="476.75318" style="fill: #1f77b4; stroke: #1f77b4"/>
     <use xlink:href="#m933115e77c" x="155.642216" y="478.391287" style="fill: #1f77b4; stroke: #1f77b4"/>
     <use xlink:href="#m933115e77c" x="118.909309" y="480.861632" style="fill: #1f77b4; stroke: #1f77b4"/>
     <use xlink:href="#m933115e77c" x="145.723305" y="468.156866" style="fill: #1f77b4; stroke: #1f77b4"/>
     <use xlink:href="#m933115e77c" x="196.009673" y="475.861544" style="fill: #1f77b4; stroke: #1f77b4"/>
     <use xlink:href="#m933115e77c" x="146.061292" y="476.805897" style="fill: #1f77b4; stroke: #1f77b4"/>
     <use xlink:href="#m933115e77c" x="113.046982" y="476.707475" style="fill: #1f77b4; stroke: #1f77b4"/>
     <use xlink:href="#m933115e77c" x="180.542374" y="476.161121" style="fill: #1f77b4; stroke: #1f77b4"/>
     <use xlink:href="#m933115e77c" x="230.548865" y="482.58004" style="fill: #1f77b4; stroke: #1f77b4"/>
     <use xlink:href="#m933115e77c" x="115.331472" y="485.8924" style="fill: #1f77b4; stroke: #1f77b4"/>
     <use xlink:href="#m933115e77c" x="225.876059" y="489.424779" style="fill: #1f77b4; stroke: #1f77b4"/>
     <use xlink:href="#m933115e77c" x="136.70624" y="480.592998" style="fill: #1f77b4; stroke: #1f77b4"/>
     <use xlink:href="#m933115e77c" x="166.011639" y="486.933988" style="fill: #1f77b4; stroke: #1f77b4"/>
     <use xlink:href="#m933115e77c" x="117.785613" y="490.917327" style="fill: #1f77b4; stroke: #1f77b4"/>
     <use xlink:href="#m933115e77c" x="137.022067" y="479.444774" style="fill: #1f77b4; stroke: #1f77b4"/>
     <use xlink:href="#m933115e77c" x="202.04715" y="485.736798" style="fill: #1f77b4; stroke: #1f77b4"/>
     <use xlink:href="#m933115e77c" x="135.638191" y="487.776911" style="fill: #1f77b4; stroke: #1f77b4"/>
     <use xlink:href="#m933115e77c" x="144.905751" y="480.343346" style="fill: #1f77b4; stroke: #1f77b4"/>
     <use xlink:href="#m933115e77c" x="131.032112" y="468.67948" style="fill: #1f77b4; stroke: #1f77b4"/>
     <use xlink:href="#m933115e77c" x="143.157377" y="483.050068" style="fill: #1f77b4; stroke: #1f77b4"/>
     <use xlink:href="#m933115e77c" x="142.65647" y="489.754648" style="fill: #1f77b4; stroke: #1f77b4"/>
     <use xlink:href="#m933115e77c" x="147.957976" y="469.242876" style="fill: #1f77b4; stroke: #1f77b4"/>
     <use xlink:href="#m933115e77c" x="183.845012" y="465.49925" style="fill: #1f77b4; stroke: #1f77b4"/>
     <use xlink:href="#m933115e77c" x="191.498884" y="473.879297" style="fill: #1f77b4; stroke: #1f77b4"/>
     <use xlink:href="#m933115e77c" x="145.470184" y="486.285253" style="fill: #1f77b4; stroke: #1f77b4"/>
     <use xlink:href="#m933115e77c" x="169.731138" y="473.038585" style="fill: #1f77b4; stroke: #1f77b4"/>
     <use xlink:href="#m933115e77c" x="140.697491" y="488.234374" style="fill: #1f77b4; stroke: #1f77b4"/>
     <use xlink:href="#m933115e77c" x="130.65399" y="466.112102" style="fill: #1f77b4; stroke: #1f77b4"/>
     <use xlink:href="#m933115e77c" x="123.889981" y="487.011212" style="fill: #1f77b4; stroke: #1f77b4"/>
     <use xlink:href="#m933115e77c" x="123.286972" y="474.776964" style="fill: #1f77b4; stroke: #1f77b4"/>
     <use xlink:href="#m933115e77c" x="111.897678" y="480.820992" style="fill: #1f77b4; stroke: #1f77b4"/>
     <use xlink:href="#m933115e77c" x="143.238058" y="486.221589" style="fill: #1f77b4; stroke: #1f77b4"/>
     <use xlink:href="#m933115e77c" x="177.6804" y="483.065002" style="fill: #1f77b4; stroke: #1f77b4"/>
     <use xlink:href="#m933115e77c" x="149.837916" y="481.594769" style="fill: #1f77b4; stroke: #1f77b4"/>
     <use xlink:href="#m933115e77c" x="679.136818" y="48.558182" style="fill: #1f77b4; stroke: #1f77b4"/>
     <use xlink:href="#m933115e77c" x="104.108053" y="485.162347" style="fill: #1f77b4; stroke: #1f77b4"/>
     <use xlink:href="#m933115e77c" x="228.914167" y="474.732716" style="fill: #1f77b4; stroke: #1f77b4"/>
     <use xlink:href="#m933115e77c" x="136.468796" y="480.506135" style="fill: #1f77b4; stroke: #1f77b4"/>
     <use xlink:href="#m933115e77c" x="148.516335" y="483.550892" style="fill: #1f77b4; stroke: #1f77b4"/>
     <use xlink:href="#m933115e77c" x="140.937152" y="482.820093" style="fill: #1f77b4; stroke: #1f77b4"/>
     <use xlink:href="#m933115e77c" x="134.448753" y="482.162417" style="fill: #1f77b4; stroke: #1f77b4"/>
     <use xlink:href="#m933115e77c" x="92.566755" y="483.941705" style="fill: #1f77b4; stroke: #1f77b4"/>
     <use xlink:href="#m933115e77c" x="128.620569" y="482.76948" style="fill: #1f77b4; stroke: #1f77b4"/>
     <use xlink:href="#m933115e77c" x="119.005173" y="478.340251" style="fill: #1f77b4; stroke: #1f77b4"/>
     <use xlink:href="#m933115e77c" x="114.645321" y="472.321535" style="fill: #1f77b4; stroke: #1f77b4"/>
     <use xlink:href="#m933115e77c" x="150.812645" y="484.848093" style="fill: #1f77b4; stroke: #1f77b4"/>
     <use xlink:href="#m933115e77c" x="154.841569" y="489.12439" style="fill: #1f77b4; stroke: #1f77b4"/>
     <use xlink:href="#m933115e77c" x="136.595767" y="464.234692" style="fill: #1f77b4; stroke: #1f77b4"/>
     <use xlink:href="#m933115e77c" x="120.827989" y="481.610521" style="fill: #1f77b4; stroke: #1f77b4"/>
     <use xlink:href="#m933115e77c" x="145.683662" y="489.47543" style="fill: #1f77b4; stroke: #1f77b4"/>
     <use xlink:href="#m933115e77c" x="178.4515" y="480.505703" style="fill: #1f77b4; stroke: #1f77b4"/>
     <use xlink:href="#m933115e77c" x="103.486413" y="469.05337" style="fill: #1f77b4; stroke: #1f77b4"/>
     <use xlink:href="#m933115e77c" x="129.737781" y="480.523163" style="fill: #1f77b4; stroke: #1f77b4"/>
     <use xlink:href="#m933115e77c" x="130.808538" y="481.142018" style="fill: #1f77b4; stroke: #1f77b4"/>
     <use xlink:href="#m933115e77c" x="136.66471" y="475.385486" style="fill: #1f77b4; stroke: #1f77b4"/>
     <use xlink:href="#m933115e77c" x="131.258558" y="481.597094" style="fill: #1f77b4; stroke: #1f77b4"/>
     <use xlink:href="#m933115e77c" x="149.345545" y="480.386895" style="fill: #1f77b4; stroke: #1f77b4"/>
     <use xlink:href="#m933115e77c" x="89.828223" y="481.700141" style="fill: #1f77b4; stroke: #1f77b4"/>
     <use xlink:href="#m933115e77c" x="126.01664" y="492.851792" style="fill: #1f77b4; stroke: #1f77b4"/>
     <use xlink:href="#m933115e77c" x="77.873182" y="485.932115" style="fill: #1f77b4; stroke: #1f77b4"/>
     <use xlink:href="#m933115e77c" x="122.456778" y="486.990273" style="fill: #1f77b4; stroke: #1f77b4"/>
     <use xlink:href="#m933115e77c" x="125.291421" y="483.282364" style="fill: #1f77b4; stroke: #1f77b4"/>
     <use xlink:href="#m933115e77c" x="167.738344" y="484.010329" style="fill: #1f77b4; stroke: #1f77b4"/>
     <use xlink:href="#m933115e77c" x="114.558485" y="478.062327" style="fill: #1f77b4; stroke: #1f77b4"/>
     <use xlink:href="#m933115e77c" x="166.512218" y="481.772818" style="fill: #1f77b4; stroke: #1f77b4"/>
     <use xlink:href="#m933115e77c" x="129.326172" y="486.571296" style="fill: #1f77b4; stroke: #1f77b4"/>
     <use xlink:href="#m933115e77c" x="155.080573" y="470.646613" style="fill: #1f77b4; stroke: #1f77b4"/>
     <use xlink:href="#m933115e77c" x="168.9332" y="477.55944" style="fill: #1f77b4; stroke: #1f77b4"/>
     <use xlink:href="#m933115e77c" x="145.301437" y="489.857621" style="fill: #1f77b4; stroke: #1f77b4"/>
     <use xlink:href="#m933115e77c" x="206.792019" y="467.777538" style="fill: #1f77b4; stroke: #1f77b4"/>
     <use xlink:href="#m933115e77c" x="134.06546" y="487.250891" style="fill: #1f77b4; stroke: #1f77b4"/>
     <use xlink:href="#m933115e77c" x="150.457176" y="484.116079" style="fill: #1f77b4; stroke: #1f77b4"/>
     <use xlink:href="#m933115e77c" x="141.828" y="482.815235" style="fill: #1f77b4; stroke: #1f77b4"/>
     <use xlink:href="#m933115e77c" x="87.112261" y="472.796202" style="fill: #1f77b4; stroke: #1f77b4"/>
     <use xlink:href="#m933115e77c" x="145.6551" y="477.685522" style="fill: #1f77b4; stroke: #1f77b4"/>
     <use xlink:href="#m933115e77c" x="175.856025" y="480.348855" style="fill: #1f77b4; stroke: #1f77b4"/>
     <use xlink:href="#m933115e77c" x="133.250286" y="485.198165" style="fill: #1f77b4; stroke: #1f77b4"/>
     <use xlink:href="#m933115e77c" x="180.821513" y="481.454485" style="fill: #1f77b4; stroke: #1f77b4"/>
     <use xlink:href="#m933115e77c" x="153.318083" y="477.454069" style="fill: #1f77b4; stroke: #1f77b4"/>
     <use xlink:href="#m933115e77c" x="145.38302" y="481.534904" style="fill: #1f77b4; stroke: #1f77b4"/>
     <use xlink:href="#m933115e77c" x="136.561541" y="481.776334" style="fill: #1f77b4; stroke: #1f77b4"/>
     <use xlink:href="#m933115e77c" x="254.501626" y="426.490903" style="fill: #1f77b4; stroke: #1f77b4"/>
     <use xlink:href="#m933115e77c" x="112.297386" y="480.333259" style="fill: #1f77b4; stroke: #1f77b4"/>
    </g>
   </g>
   <g id="matplotlib.axis_1">
    <g id="xtick_1">
     <g id="line2d_1">
      <defs>
       <path id="m8b9c1ed3b5" d="M 0 0 
L 0 3.5 
" style="stroke: #000000; stroke-width: 0.8"/>
      </defs>
      <g>
       <use xlink:href="#m8b9c1ed3b5" x="84.121025" y="534.04" style="stroke: #000000; stroke-width: 0.8"/>
      </g>
     </g>
     <g id="text_1">
      <!-- 0.11 -->
      <g transform="translate(72.988212 548.638438) scale(0.1 -0.1)">
       <defs>
        <path id="DejaVuSans-30" d="M 2034 4250 
Q 1547 4250 1301 3770 
Q 1056 3291 1056 2328 
Q 1056 1369 1301 889 
Q 1547 409 2034 409 
Q 2525 409 2770 889 
Q 3016 1369 3016 2328 
Q 3016 3291 2770 3770 
Q 2525 4250 2034 4250 
z
M 2034 4750 
Q 2819 4750 3233 4129 
Q 3647 3509 3647 2328 
Q 3647 1150 3233 529 
Q 2819 -91 2034 -91 
Q 1250 -91 836 529 
Q 422 1150 422 2328 
Q 422 3509 836 4129 
Q 1250 4750 2034 4750 
z
" transform="scale(0.015625)"/>
        <path id="DejaVuSans-2e" d="M 684 794 
L 1344 794 
L 1344 0 
L 684 0 
L 684 794 
z
" transform="scale(0.015625)"/>
        <path id="DejaVuSans-31" d="M 794 531 
L 1825 531 
L 1825 4091 
L 703 3866 
L 703 4441 
L 1819 4666 
L 2450 4666 
L 2450 531 
L 3481 531 
L 3481 0 
L 794 0 
L 794 531 
z
" transform="scale(0.015625)"/>
       </defs>
       <use xlink:href="#DejaVuSans-30"/>
       <use xlink:href="#DejaVuSans-2e" x="63.623047"/>
       <use xlink:href="#DejaVuSans-31" x="95.410156"/>
       <use xlink:href="#DejaVuSans-31" x="159.033203"/>
      </g>
     </g>
    </g>
    <g id="xtick_2">
     <g id="line2d_2">
      <g>
       <use xlink:href="#m8b9c1ed3b5" x="194.280946" y="534.04" style="stroke: #000000; stroke-width: 0.8"/>
      </g>
     </g>
     <g id="text_2">
      <!-- 0.12 -->
      <g transform="translate(183.148133 548.638438) scale(0.1 -0.1)">
       <defs>
        <path id="DejaVuSans-32" d="M 1228 531 
L 3431 531 
L 3431 0 
L 469 0 
L 469 531 
Q 828 903 1448 1529 
Q 2069 2156 2228 2338 
Q 2531 2678 2651 2914 
Q 2772 3150 2772 3378 
Q 2772 3750 2511 3984 
Q 2250 4219 1831 4219 
Q 1534 4219 1204 4116 
Q 875 4013 500 3803 
L 500 4441 
Q 881 4594 1212 4672 
Q 1544 4750 1819 4750 
Q 2544 4750 2975 4387 
Q 3406 4025 3406 3419 
Q 3406 3131 3298 2873 
Q 3191 2616 2906 2266 
Q 2828 2175 2409 1742 
Q 1991 1309 1228 531 
z
" transform="scale(0.015625)"/>
       </defs>
       <use xlink:href="#DejaVuSans-30"/>
       <use xlink:href="#DejaVuSans-2e" x="63.623047"/>
       <use xlink:href="#DejaVuSans-31" x="95.410156"/>
       <use xlink:href="#DejaVuSans-32" x="159.033203"/>
      </g>
     </g>
    </g>
    <g id="xtick_3">
     <g id="line2d_3">
      <g>
       <use xlink:href="#m8b9c1ed3b5" x="304.440867" y="534.04" style="stroke: #000000; stroke-width: 0.8"/>
      </g>
     </g>
     <g id="text_3">
      <!-- 0.13 -->
      <g transform="translate(293.308055 548.638438) scale(0.1 -0.1)">
       <defs>
        <path id="DejaVuSans-33" d="M 2597 2516 
Q 3050 2419 3304 2112 
Q 3559 1806 3559 1356 
Q 3559 666 3084 287 
Q 2609 -91 1734 -91 
Q 1441 -91 1130 -33 
Q 819 25 488 141 
L 488 750 
Q 750 597 1062 519 
Q 1375 441 1716 441 
Q 2309 441 2620 675 
Q 2931 909 2931 1356 
Q 2931 1769 2642 2001 
Q 2353 2234 1838 2234 
L 1294 2234 
L 1294 2753 
L 1863 2753 
Q 2328 2753 2575 2939 
Q 2822 3125 2822 3475 
Q 2822 3834 2567 4026 
Q 2313 4219 1838 4219 
Q 1578 4219 1281 4162 
Q 984 4106 628 3988 
L 628 4550 
Q 988 4650 1302 4700 
Q 1616 4750 1894 4750 
Q 2613 4750 3031 4423 
Q 3450 4097 3450 3541 
Q 3450 3153 3228 2886 
Q 3006 2619 2597 2516 
z
" transform="scale(0.015625)"/>
       </defs>
       <use xlink:href="#DejaVuSans-30"/>
       <use xlink:href="#DejaVuSans-2e" x="63.623047"/>
       <use xlink:href="#DejaVuSans-31" x="95.410156"/>
       <use xlink:href="#DejaVuSans-33" x="159.033203"/>
      </g>
     </g>
    </g>
    <g id="xtick_4">
     <g id="line2d_4">
      <g>
       <use xlink:href="#m8b9c1ed3b5" x="414.600789" y="534.04" style="stroke: #000000; stroke-width: 0.8"/>
      </g>
     </g>
     <g id="text_4">
      <!-- 0.14 -->
      <g transform="translate(403.467976 548.638438) scale(0.1 -0.1)">
       <defs>
        <path id="DejaVuSans-34" d="M 2419 4116 
L 825 1625 
L 2419 1625 
L 2419 4116 
z
M 2253 4666 
L 3047 4666 
L 3047 1625 
L 3713 1625 
L 3713 1100 
L 3047 1100 
L 3047 0 
L 2419 0 
L 2419 1100 
L 313 1100 
L 313 1709 
L 2253 4666 
z
" transform="scale(0.015625)"/>
       </defs>
       <use xlink:href="#DejaVuSans-30"/>
       <use xlink:href="#DejaVuSans-2e" x="63.623047"/>
       <use xlink:href="#DejaVuSans-31" x="95.410156"/>
       <use xlink:href="#DejaVuSans-34" x="159.033203"/>
      </g>
     </g>
    </g>
    <g id="xtick_5">
     <g id="line2d_5">
      <g>
       <use xlink:href="#m8b9c1ed3b5" x="524.76071" y="534.04" style="stroke: #000000; stroke-width: 0.8"/>
      </g>
     </g>
     <g id="text_5">
      <!-- 0.15 -->
      <g transform="translate(513.627898 548.638438) scale(0.1 -0.1)">
       <defs>
        <path id="DejaVuSans-35" d="M 691 4666 
L 3169 4666 
L 3169 4134 
L 1269 4134 
L 1269 2991 
Q 1406 3038 1543 3061 
Q 1681 3084 1819 3084 
Q 2600 3084 3056 2656 
Q 3513 2228 3513 1497 
Q 3513 744 3044 326 
Q 2575 -91 1722 -91 
Q 1428 -91 1123 -41 
Q 819 9 494 109 
L 494 744 
Q 775 591 1075 516 
Q 1375 441 1709 441 
Q 2250 441 2565 725 
Q 2881 1009 2881 1497 
Q 2881 1984 2565 2268 
Q 2250 2553 1709 2553 
Q 1456 2553 1204 2497 
Q 953 2441 691 2322 
L 691 4666 
z
" transform="scale(0.015625)"/>
       </defs>
       <use xlink:href="#DejaVuSans-30"/>
       <use xlink:href="#DejaVuSans-2e" x="63.623047"/>
       <use xlink:href="#DejaVuSans-31" x="95.410156"/>
       <use xlink:href="#DejaVuSans-35" x="159.033203"/>
      </g>
     </g>
    </g>
    <g id="xtick_6">
     <g id="line2d_6">
      <g>
       <use xlink:href="#m8b9c1ed3b5" x="634.920632" y="534.04" style="stroke: #000000; stroke-width: 0.8"/>
      </g>
     </g>
     <g id="text_6">
      <!-- 0.16 -->
      <g transform="translate(623.787819 548.638438) scale(0.1 -0.1)">
       <defs>
        <path id="DejaVuSans-36" d="M 2113 2584 
Q 1688 2584 1439 2293 
Q 1191 2003 1191 1497 
Q 1191 994 1439 701 
Q 1688 409 2113 409 
Q 2538 409 2786 701 
Q 3034 994 3034 1497 
Q 3034 2003 2786 2293 
Q 2538 2584 2113 2584 
z
M 3366 4563 
L 3366 3988 
Q 3128 4100 2886 4159 
Q 2644 4219 2406 4219 
Q 1781 4219 1451 3797 
Q 1122 3375 1075 2522 
Q 1259 2794 1537 2939 
Q 1816 3084 2150 3084 
Q 2853 3084 3261 2657 
Q 3669 2231 3669 1497 
Q 3669 778 3244 343 
Q 2819 -91 2113 -91 
Q 1303 -91 875 529 
Q 447 1150 447 2328 
Q 447 3434 972 4092 
Q 1497 4750 2381 4750 
Q 2619 4750 2861 4703 
Q 3103 4656 3366 4563 
z
" transform="scale(0.015625)"/>
       </defs>
       <use xlink:href="#DejaVuSans-30"/>
       <use xlink:href="#DejaVuSans-2e" x="63.623047"/>
       <use xlink:href="#DejaVuSans-31" x="95.410156"/>
       <use xlink:href="#DejaVuSans-36" x="159.033203"/>
      </g>
     </g>
    </g>
    <g id="text_7">
     <!-- Uncertainties -->
     <g transform="translate(345.183125 562.316563) scale(0.1 -0.1)">
      <defs>
       <path id="DejaVuSans-55" d="M 556 4666 
L 1191 4666 
L 1191 1831 
Q 1191 1081 1462 751 
Q 1734 422 2344 422 
Q 2950 422 3222 751 
Q 3494 1081 3494 1831 
L 3494 4666 
L 4128 4666 
L 4128 1753 
Q 4128 841 3676 375 
Q 3225 -91 2344 -91 
Q 1459 -91 1007 375 
Q 556 841 556 1753 
L 556 4666 
z
" transform="scale(0.015625)"/>
       <path id="DejaVuSans-6e" d="M 3513 2113 
L 3513 0 
L 2938 0 
L 2938 2094 
Q 2938 2591 2744 2837 
Q 2550 3084 2163 3084 
Q 1697 3084 1428 2787 
Q 1159 2491 1159 1978 
L 1159 0 
L 581 0 
L 581 3500 
L 1159 3500 
L 1159 2956 
Q 1366 3272 1645 3428 
Q 1925 3584 2291 3584 
Q 2894 3584 3203 3211 
Q 3513 2838 3513 2113 
z
" transform="scale(0.015625)"/>
       <path id="DejaVuSans-63" d="M 3122 3366 
L 3122 2828 
Q 2878 2963 2633 3030 
Q 2388 3097 2138 3097 
Q 1578 3097 1268 2742 
Q 959 2388 959 1747 
Q 959 1106 1268 751 
Q 1578 397 2138 397 
Q 2388 397 2633 464 
Q 2878 531 3122 666 
L 3122 134 
Q 2881 22 2623 -34 
Q 2366 -91 2075 -91 
Q 1284 -91 818 406 
Q 353 903 353 1747 
Q 353 2603 823 3093 
Q 1294 3584 2113 3584 
Q 2378 3584 2631 3529 
Q 2884 3475 3122 3366 
z
" transform="scale(0.015625)"/>
       <path id="DejaVuSans-65" d="M 3597 1894 
L 3597 1613 
L 953 1613 
Q 991 1019 1311 708 
Q 1631 397 2203 397 
Q 2534 397 2845 478 
Q 3156 559 3463 722 
L 3463 178 
Q 3153 47 2828 -22 
Q 2503 -91 2169 -91 
Q 1331 -91 842 396 
Q 353 884 353 1716 
Q 353 2575 817 3079 
Q 1281 3584 2069 3584 
Q 2775 3584 3186 3129 
Q 3597 2675 3597 1894 
z
M 3022 2063 
Q 3016 2534 2758 2815 
Q 2500 3097 2075 3097 
Q 1594 3097 1305 2825 
Q 1016 2553 972 2059 
L 3022 2063 
z
" transform="scale(0.015625)"/>
       <path id="DejaVuSans-72" d="M 2631 2963 
Q 2534 3019 2420 3045 
Q 2306 3072 2169 3072 
Q 1681 3072 1420 2755 
Q 1159 2438 1159 1844 
L 1159 0 
L 581 0 
L 581 3500 
L 1159 3500 
L 1159 2956 
Q 1341 3275 1631 3429 
Q 1922 3584 2338 3584 
Q 2397 3584 2469 3576 
Q 2541 3569 2628 3553 
L 2631 2963 
z
" transform="scale(0.015625)"/>
       <path id="DejaVuSans-74" d="M 1172 4494 
L 1172 3500 
L 2356 3500 
L 2356 3053 
L 1172 3053 
L 1172 1153 
Q 1172 725 1289 603 
Q 1406 481 1766 481 
L 2356 481 
L 2356 0 
L 1766 0 
Q 1100 0 847 248 
Q 594 497 594 1153 
L 594 3053 
L 172 3053 
L 172 3500 
L 594 3500 
L 594 4494 
L 1172 4494 
z
" transform="scale(0.015625)"/>
       <path id="DejaVuSans-61" d="M 2194 1759 
Q 1497 1759 1228 1600 
Q 959 1441 959 1056 
Q 959 750 1161 570 
Q 1363 391 1709 391 
Q 2188 391 2477 730 
Q 2766 1069 2766 1631 
L 2766 1759 
L 2194 1759 
z
M 3341 1997 
L 3341 0 
L 2766 0 
L 2766 531 
Q 2569 213 2275 61 
Q 1981 -91 1556 -91 
Q 1019 -91 701 211 
Q 384 513 384 1019 
Q 384 1609 779 1909 
Q 1175 2209 1959 2209 
L 2766 2209 
L 2766 2266 
Q 2766 2663 2505 2880 
Q 2244 3097 1772 3097 
Q 1472 3097 1187 3025 
Q 903 2953 641 2809 
L 641 3341 
Q 956 3463 1253 3523 
Q 1550 3584 1831 3584 
Q 2591 3584 2966 3190 
Q 3341 2797 3341 1997 
z
" transform="scale(0.015625)"/>
       <path id="DejaVuSans-69" d="M 603 3500 
L 1178 3500 
L 1178 0 
L 603 0 
L 603 3500 
z
M 603 4863 
L 1178 4863 
L 1178 4134 
L 603 4134 
L 603 4863 
z
" transform="scale(0.015625)"/>
       <path id="DejaVuSans-73" d="M 2834 3397 
L 2834 2853 
Q 2591 2978 2328 3040 
Q 2066 3103 1784 3103 
Q 1356 3103 1142 2972 
Q 928 2841 928 2578 
Q 928 2378 1081 2264 
Q 1234 2150 1697 2047 
L 1894 2003 
Q 2506 1872 2764 1633 
Q 3022 1394 3022 966 
Q 3022 478 2636 193 
Q 2250 -91 1575 -91 
Q 1294 -91 989 -36 
Q 684 19 347 128 
L 347 722 
Q 666 556 975 473 
Q 1284 391 1588 391 
Q 1994 391 2212 530 
Q 2431 669 2431 922 
Q 2431 1156 2273 1281 
Q 2116 1406 1581 1522 
L 1381 1569 
Q 847 1681 609 1914 
Q 372 2147 372 2553 
Q 372 3047 722 3315 
Q 1072 3584 1716 3584 
Q 2034 3584 2315 3537 
Q 2597 3491 2834 3397 
z
" transform="scale(0.015625)"/>
      </defs>
      <use xlink:href="#DejaVuSans-55"/>
      <use xlink:href="#DejaVuSans-6e" x="73.193359"/>
      <use xlink:href="#DejaVuSans-63" x="136.572266"/>
      <use xlink:href="#DejaVuSans-65" x="191.552734"/>
      <use xlink:href="#DejaVuSans-72" x="253.076172"/>
      <use xlink:href="#DejaVuSans-74" x="294.189453"/>
      <use xlink:href="#DejaVuSans-61" x="333.398438"/>
      <use xlink:href="#DejaVuSans-69" x="394.677734"/>
      <use xlink:href="#DejaVuSans-6e" x="422.460938"/>
      <use xlink:href="#DejaVuSans-74" x="485.839844"/>
      <use xlink:href="#DejaVuSans-69" x="525.048828"/>
      <use xlink:href="#DejaVuSans-65" x="552.832031"/>
      <use xlink:href="#DejaVuSans-73" x="614.355469"/>
     </g>
    </g>
   </g>
   <g id="matplotlib.axis_2">
    <g id="ytick_1">
     <g id="line2d_7">
      <defs>
       <path id="m1b6fcfe48d" d="M 0 0 
L -3.5 0 
" style="stroke: #000000; stroke-width: 0.8"/>
      </defs>
      <g>
       <use xlink:href="#m1b6fcfe48d" x="47.81" y="504.517207" style="stroke: #000000; stroke-width: 0.8"/>
      </g>
     </g>
     <g id="text_8">
      <!-- 0.0 -->
      <g transform="translate(24.906875 508.316425) scale(0.1 -0.1)">
       <use xlink:href="#DejaVuSans-30"/>
       <use xlink:href="#DejaVuSans-2e" x="63.623047"/>
       <use xlink:href="#DejaVuSans-30" x="95.410156"/>
      </g>
     </g>
    </g>
    <g id="ytick_2">
     <g id="line2d_8">
      <g>
       <use xlink:href="#m1b6fcfe48d" x="47.81" y="412.964982" style="stroke: #000000; stroke-width: 0.8"/>
      </g>
     </g>
     <g id="text_9">
      <!-- 0.5 -->
      <g transform="translate(24.906875 416.764201) scale(0.1 -0.1)">
       <use xlink:href="#DejaVuSans-30"/>
       <use xlink:href="#DejaVuSans-2e" x="63.623047"/>
       <use xlink:href="#DejaVuSans-35" x="95.410156"/>
      </g>
     </g>
    </g>
    <g id="ytick_3">
     <g id="line2d_9">
      <g>
       <use xlink:href="#m1b6fcfe48d" x="47.81" y="321.412757" style="stroke: #000000; stroke-width: 0.8"/>
      </g>
     </g>
     <g id="text_10">
      <!-- 1.0 -->
      <g transform="translate(24.906875 325.211976) scale(0.1 -0.1)">
       <use xlink:href="#DejaVuSans-31"/>
       <use xlink:href="#DejaVuSans-2e" x="63.623047"/>
       <use xlink:href="#DejaVuSans-30" x="95.410156"/>
      </g>
     </g>
    </g>
    <g id="ytick_4">
     <g id="line2d_10">
      <g>
       <use xlink:href="#m1b6fcfe48d" x="47.81" y="229.860532" style="stroke: #000000; stroke-width: 0.8"/>
      </g>
     </g>
     <g id="text_11">
      <!-- 1.5 -->
      <g transform="translate(24.906875 233.659751) scale(0.1 -0.1)">
       <use xlink:href="#DejaVuSans-31"/>
       <use xlink:href="#DejaVuSans-2e" x="63.623047"/>
       <use xlink:href="#DejaVuSans-35" x="95.410156"/>
      </g>
     </g>
    </g>
    <g id="ytick_5">
     <g id="line2d_11">
      <g>
       <use xlink:href="#m1b6fcfe48d" x="47.81" y="138.308307" style="stroke: #000000; stroke-width: 0.8"/>
      </g>
     </g>
     <g id="text_12">
      <!-- 2.0 -->
      <g transform="translate(24.906875 142.107526) scale(0.1 -0.1)">
       <use xlink:href="#DejaVuSans-32"/>
       <use xlink:href="#DejaVuSans-2e" x="63.623047"/>
       <use xlink:href="#DejaVuSans-30" x="95.410156"/>
      </g>
     </g>
    </g>
    <g id="ytick_6">
     <g id="line2d_12">
      <g>
       <use xlink:href="#m1b6fcfe48d" x="47.81" y="46.756083" style="stroke: #000000; stroke-width: 0.8"/>
      </g>
     </g>
     <g id="text_13">
      <!-- 2.5 -->
      <g transform="translate(24.906875 50.555301) scale(0.1 -0.1)">
       <use xlink:href="#DejaVuSans-32"/>
       <use xlink:href="#DejaVuSans-2e" x="63.623047"/>
       <use xlink:href="#DejaVuSans-35" x="95.410156"/>
      </g>
     </g>
    </g>
    <g id="text_14">
     <!-- Force Errors -->
     <g transform="translate(18.827187 309.641563) rotate(-90) scale(0.1 -0.1)">
      <defs>
       <path id="DejaVuSans-46" d="M 628 4666 
L 3309 4666 
L 3309 4134 
L 1259 4134 
L 1259 2759 
L 3109 2759 
L 3109 2228 
L 1259 2228 
L 1259 0 
L 628 0 
L 628 4666 
z
" transform="scale(0.015625)"/>
       <path id="DejaVuSans-6f" d="M 1959 3097 
Q 1497 3097 1228 2736 
Q 959 2375 959 1747 
Q 959 1119 1226 758 
Q 1494 397 1959 397 
Q 2419 397 2687 759 
Q 2956 1122 2956 1747 
Q 2956 2369 2687 2733 
Q 2419 3097 1959 3097 
z
M 1959 3584 
Q 2709 3584 3137 3096 
Q 3566 2609 3566 1747 
Q 3566 888 3137 398 
Q 2709 -91 1959 -91 
Q 1206 -91 779 398 
Q 353 888 353 1747 
Q 353 2609 779 3096 
Q 1206 3584 1959 3584 
z
" transform="scale(0.015625)"/>
       <path id="DejaVuSans-20" transform="scale(0.015625)"/>
       <path id="DejaVuSans-45" d="M 628 4666 
L 3578 4666 
L 3578 4134 
L 1259 4134 
L 1259 2753 
L 3481 2753 
L 3481 2222 
L 1259 2222 
L 1259 531 
L 3634 531 
L 3634 0 
L 628 0 
L 628 4666 
z
" transform="scale(0.015625)"/>
      </defs>
      <use xlink:href="#DejaVuSans-46"/>
      <use xlink:href="#DejaVuSans-6f" x="53.894531"/>
      <use xlink:href="#DejaVuSans-72" x="115.076172"/>
      <use xlink:href="#DejaVuSans-63" x="153.939453"/>
      <use xlink:href="#DejaVuSans-65" x="208.919922"/>
      <use xlink:href="#DejaVuSans-20" x="270.443359"/>
      <use xlink:href="#DejaVuSans-45" x="302.230469"/>
      <use xlink:href="#DejaVuSans-72" x="365.414062"/>
      <use xlink:href="#DejaVuSans-72" x="404.777344"/>
      <use xlink:href="#DejaVuSans-6f" x="443.640625"/>
      <use xlink:href="#DejaVuSans-72" x="504.822266"/>
      <use xlink:href="#DejaVuSans-73" x="545.935547"/>
     </g>
    </g>
   </g>
   <g id="line2d_13">
    <path d="M 103.545343 498.251201 
L 679.136818 214.165593 
L 77.873182 510.921818 
L 112.297386 493.931577 
" clip-path="url(#p94edbad79e)" style="fill: none; stroke: #ff0000; stroke-width: 1.5; stroke-linecap: square"/>
   </g>
   <g id="patch_3">
    <path d="M 47.81 534.04 
L 47.81 25.44 
" style="fill: none; stroke: #000000; stroke-width: 0.8; stroke-linejoin: miter; stroke-linecap: square"/>
   </g>
   <g id="patch_4">
    <path d="M 709.2 534.04 
L 709.2 25.44 
" style="fill: none; stroke: #000000; stroke-width: 0.8; stroke-linejoin: miter; stroke-linecap: square"/>
   </g>
   <g id="patch_5">
    <path d="M 47.81 534.04 
L 709.2 534.04 
" style="fill: none; stroke: #000000; stroke-width: 0.8; stroke-linejoin: miter; stroke-linecap: square"/>
   </g>
   <g id="patch_6">
    <path d="M 47.81 25.44 
L 709.2 25.44 
" style="fill: none; stroke: #000000; stroke-width: 0.8; stroke-linejoin: miter; stroke-linecap: square"/>
   </g>
   <g id="text_15">
    <!-- Uncertainty Calibration -->
    <g transform="translate(308.899375 19.44) scale(0.12 -0.12)">
     <defs>
      <path id="DejaVuSans-79" d="M 2059 -325 
Q 1816 -950 1584 -1140 
Q 1353 -1331 966 -1331 
L 506 -1331 
L 506 -850 
L 844 -850 
Q 1081 -850 1212 -737 
Q 1344 -625 1503 -206 
L 1606 56 
L 191 3500 
L 800 3500 
L 1894 763 
L 2988 3500 
L 3597 3500 
L 2059 -325 
z
" transform="scale(0.015625)"/>
      <path id="DejaVuSans-43" d="M 4122 4306 
L 4122 3641 
Q 3803 3938 3442 4084 
Q 3081 4231 2675 4231 
Q 1875 4231 1450 3742 
Q 1025 3253 1025 2328 
Q 1025 1406 1450 917 
Q 1875 428 2675 428 
Q 3081 428 3442 575 
Q 3803 722 4122 1019 
L 4122 359 
Q 3791 134 3420 21 
Q 3050 -91 2638 -91 
Q 1578 -91 968 557 
Q 359 1206 359 2328 
Q 359 3453 968 4101 
Q 1578 4750 2638 4750 
Q 3056 4750 3426 4639 
Q 3797 4528 4122 4306 
z
" transform="scale(0.015625)"/>
      <path id="DejaVuSans-6c" d="M 603 4863 
L 1178 4863 
L 1178 0 
L 603 0 
L 603 4863 
z
" transform="scale(0.015625)"/>
      <path id="DejaVuSans-62" d="M 3116 1747 
Q 3116 2381 2855 2742 
Q 2594 3103 2138 3103 
Q 1681 3103 1420 2742 
Q 1159 2381 1159 1747 
Q 1159 1113 1420 752 
Q 1681 391 2138 391 
Q 2594 391 2855 752 
Q 3116 1113 3116 1747 
z
M 1159 2969 
Q 1341 3281 1617 3432 
Q 1894 3584 2278 3584 
Q 2916 3584 3314 3078 
Q 3713 2572 3713 1747 
Q 3713 922 3314 415 
Q 2916 -91 2278 -91 
Q 1894 -91 1617 61 
Q 1341 213 1159 525 
L 1159 0 
L 581 0 
L 581 4863 
L 1159 4863 
L 1159 2969 
z
" transform="scale(0.015625)"/>
     </defs>
     <use xlink:href="#DejaVuSans-55"/>
     <use xlink:href="#DejaVuSans-6e" x="73.193359"/>
     <use xlink:href="#DejaVuSans-63" x="136.572266"/>
     <use xlink:href="#DejaVuSans-65" x="191.552734"/>
     <use xlink:href="#DejaVuSans-72" x="253.076172"/>
     <use xlink:href="#DejaVuSans-74" x="294.189453"/>
     <use xlink:href="#DejaVuSans-61" x="333.398438"/>
     <use xlink:href="#DejaVuSans-69" x="394.677734"/>
     <use xlink:href="#DejaVuSans-6e" x="422.460938"/>
     <use xlink:href="#DejaVuSans-74" x="485.839844"/>
     <use xlink:href="#DejaVuSans-79" x="525.048828"/>
     <use xlink:href="#DejaVuSans-20" x="584.228516"/>
     <use xlink:href="#DejaVuSans-43" x="616.015625"/>
     <use xlink:href="#DejaVuSans-61" x="685.839844"/>
     <use xlink:href="#DejaVuSans-6c" x="747.119141"/>
     <use xlink:href="#DejaVuSans-69" x="774.902344"/>
     <use xlink:href="#DejaVuSans-62" x="802.685547"/>
     <use xlink:href="#DejaVuSans-72" x="866.162109"/>
     <use xlink:href="#DejaVuSans-61" x="907.275391"/>
     <use xlink:href="#DejaVuSans-74" x="968.554688"/>
     <use xlink:href="#DejaVuSans-69" x="1007.763672"/>
     <use xlink:href="#DejaVuSans-6f" x="1035.546875"/>
     <use xlink:href="#DejaVuSans-6e" x="1096.728516"/>
    </g>
   </g>
   <g id="legend_1">
    <g id="patch_7">
     <path d="M 54.81 62.79625 
L 165.520938 62.79625 
Q 167.520938 62.79625 167.520938 60.79625 
L 167.520938 32.44 
Q 167.520938 30.44 165.520938 30.44 
L 54.81 30.44 
Q 52.81 30.44 52.81 32.44 
L 52.81 60.79625 
Q 52.81 62.79625 54.81 62.79625 
z
" style="fill: #ffffff; opacity: 0.8; stroke: #cccccc; stroke-linejoin: miter"/>
    </g>
    <g id="PathCollection_2">
     <g>
      <use xlink:href="#m933115e77c" x="66.81" y="39.413437" style="fill: #1f77b4; stroke: #1f77b4"/>
     </g>
    </g>
    <g id="text_16">
     <!-- Data -->
     <g transform="translate(84.81 42.038437) scale(0.1 -0.1)">
      <defs>
       <path id="DejaVuSans-44" d="M 1259 4147 
L 1259 519 
L 2022 519 
Q 2988 519 3436 956 
Q 3884 1394 3884 2338 
Q 3884 3275 3436 3711 
Q 2988 4147 2022 4147 
L 1259 4147 
z
M 628 4666 
L 1925 4666 
Q 3281 4666 3915 4102 
Q 4550 3538 4550 2338 
Q 4550 1131 3912 565 
Q 3275 0 1925 0 
L 628 0 
L 628 4666 
z
" transform="scale(0.015625)"/>
      </defs>
      <use xlink:href="#DejaVuSans-44"/>
      <use xlink:href="#DejaVuSans-61" x="77.001953"/>
      <use xlink:href="#DejaVuSans-74" x="138.28125"/>
      <use xlink:href="#DejaVuSans-61" x="177.490234"/>
     </g>
    </g>
    <g id="line2d_14">
     <path d="M 56.81 53.216563 
L 66.81 53.216563 
L 76.81 53.216563 
" style="fill: none; stroke: #ff0000; stroke-width: 1.5; stroke-linecap: square"/>
    </g>
    <g id="text_17">
     <!-- Regression Line -->
     <g transform="translate(84.81 56.716563) scale(0.1 -0.1)">
      <defs>
       <path id="DejaVuSans-52" d="M 2841 2188 
Q 3044 2119 3236 1894 
Q 3428 1669 3622 1275 
L 4263 0 
L 3584 0 
L 2988 1197 
Q 2756 1666 2539 1819 
Q 2322 1972 1947 1972 
L 1259 1972 
L 1259 0 
L 628 0 
L 628 4666 
L 2053 4666 
Q 2853 4666 3247 4331 
Q 3641 3997 3641 3322 
Q 3641 2881 3436 2590 
Q 3231 2300 2841 2188 
z
M 1259 4147 
L 1259 2491 
L 2053 2491 
Q 2509 2491 2742 2702 
Q 2975 2913 2975 3322 
Q 2975 3731 2742 3939 
Q 2509 4147 2053 4147 
L 1259 4147 
z
" transform="scale(0.015625)"/>
       <path id="DejaVuSans-67" d="M 2906 1791 
Q 2906 2416 2648 2759 
Q 2391 3103 1925 3103 
Q 1463 3103 1205 2759 
Q 947 2416 947 1791 
Q 947 1169 1205 825 
Q 1463 481 1925 481 
Q 2391 481 2648 825 
Q 2906 1169 2906 1791 
z
M 3481 434 
Q 3481 -459 3084 -895 
Q 2688 -1331 1869 -1331 
Q 1566 -1331 1297 -1286 
Q 1028 -1241 775 -1147 
L 775 -588 
Q 1028 -725 1275 -790 
Q 1522 -856 1778 -856 
Q 2344 -856 2625 -561 
Q 2906 -266 2906 331 
L 2906 616 
Q 2728 306 2450 153 
Q 2172 0 1784 0 
Q 1141 0 747 490 
Q 353 981 353 1791 
Q 353 2603 747 3093 
Q 1141 3584 1784 3584 
Q 2172 3584 2450 3431 
Q 2728 3278 2906 2969 
L 2906 3500 
L 3481 3500 
L 3481 434 
z
" transform="scale(0.015625)"/>
       <path id="DejaVuSans-4c" d="M 628 4666 
L 1259 4666 
L 1259 531 
L 3531 531 
L 3531 0 
L 628 0 
L 628 4666 
z
" transform="scale(0.015625)"/>
      </defs>
      <use xlink:href="#DejaVuSans-52"/>
      <use xlink:href="#DejaVuSans-65" x="64.982422"/>
      <use xlink:href="#DejaVuSans-67" x="126.505859"/>
      <use xlink:href="#DejaVuSans-72" x="189.982422"/>
      <use xlink:href="#DejaVuSans-65" x="228.845703"/>
      <use xlink:href="#DejaVuSans-73" x="290.369141"/>
      <use xlink:href="#DejaVuSans-73" x="342.46875"/>
      <use xlink:href="#DejaVuSans-69" x="394.568359"/>
      <use xlink:href="#DejaVuSans-6f" x="422.351562"/>
      <use xlink:href="#DejaVuSans-6e" x="483.533203"/>
      <use xlink:href="#DejaVuSans-20" x="546.912109"/>
      <use xlink:href="#DejaVuSans-4c" x="578.699219"/>
      <use xlink:href="#DejaVuSans-69" x="634.412109"/>
      <use xlink:href="#DejaVuSans-6e" x="662.195312"/>
      <use xlink:href="#DejaVuSans-65" x="725.574219"/>
     </g>
    </g>
   </g>
  </g>
 </g>
 <defs>
  <clipPath id="p94edbad79e">
   <rect x="47.81" y="25.44" width="661.39" height="508.6"/>
  </clipPath>
 </defs>
</svg>
