<?xml version="1.0" encoding="utf-8" standalone="no"?>
<!DOCTYPE svg PUBLIC "-//W3C//DTD SVG 1.1//EN"
  "http://www.w3.org/Graphics/SVG/1.1/DTD/svg11.dtd">
<svg xmlns:xlink="http://www.w3.org/1999/xlink" width="720pt" height="576pt" viewBox="0 0 720 576" xmlns="http://www.w3.org/2000/svg" version="1.1">
 <metadata>
  <rdf:RDF xmlns:dc="http://purl.org/dc/elements/1.1/" xmlns:cc="http://creativecommons.org/ns#" xmlns:rdf="http://www.w3.org/1999/02/22-rdf-syntax-ns#">
   <cc:Work>
    <dc:type rdf:resource="http://purl.org/dc/dcmitype/StillImage"/>
    <dc:date>2024-12-01T16:15:59.899932</dc:date>
    <dc:format>image/svg+xml</dc:format>
    <dc:creator>
     <cc:Agent>
      <dc:title>Matplotlib v3.8.4, https://matplotlib.org/</dc:title>
     </cc:Agent>
    </dc:creator>
   </cc:Work>
  </rdf:RDF>
 </metadata>
 <defs>
  <style type="text/css">*{stroke-linejoin: round; stroke-linecap: butt}</style>
 </defs>
 <g id="figure_1">
  <g id="patch_1">
   <path d="M 0 576 
L 720 576 
L 720 0 
L 0 0 
z
" style="fill: #ffffff"/>
  </g>
  <g id="axes_1">
   <g id="patch_2">
    <path d="M 47.81 534.04 
L 709.2 534.04 
L 709.2 25.44 
L 47.81 25.44 
z
" style="fill: #ffffff"/>
   </g>
   <g id="PathCollection_1">
    <defs>
     <path id="m7ca6607197" d="M 0 3 
C 0.795609 3 1.55874 2.683901 2.12132 2.12132 
C 2.683901 1.55874 3 0.795609 3 0 
C 3 -0.795609 2.683901 -1.55874 2.12132 -2.12132 
C 1.55874 -2.683901 0.795609 -3 0 -3 
C -0.795609 -3 -1.55874 -2.683901 -2.12132 -2.12132 
C -2.683901 -1.55874 -3 -0.795609 -3 0 
C -3 0.795609 -2.683901 1.55874 -2.12132 2.12132 
C -1.55874 2.683901 -0.795609 3 0 3 
z
" style="stroke: #1f77b4"/>
    </defs>
    <g clip-path="url(#padcbd2fcc5)">
     <use xlink:href="#m7ca6607197" x="149.166665" y="483.479032" style="fill: #1f77b4; stroke: #1f77b4"/>
     <use xlink:href="#m7ca6607197" x="278.89932" y="441.601801" style="fill: #1f77b4; stroke: #1f77b4"/>
     <use xlink:href="#m7ca6607197" x="159.579761" y="485.769802" style="fill: #1f77b4; stroke: #1f77b4"/>
     <use xlink:href="#m7ca6607197" x="156.682019" y="485.103562" style="fill: #1f77b4; stroke: #1f77b4"/>
     <use xlink:href="#m7ca6607197" x="112.246197" y="477.683887" style="fill: #1f77b4; stroke: #1f77b4"/>
     <use xlink:href="#m7ca6607197" x="191.693828" y="489.78586" style="fill: #1f77b4; stroke: #1f77b4"/>
     <use xlink:href="#m7ca6607197" x="293.468695" y="483.777823" style="fill: #1f77b4; stroke: #1f77b4"/>
     <use xlink:href="#m7ca6607197" x="116.010138" y="469.360148" style="fill: #1f77b4; stroke: #1f77b4"/>
     <use xlink:href="#m7ca6607197" x="171.880405" y="480.374373" style="fill: #1f77b4; stroke: #1f77b4"/>
     <use xlink:href="#m7ca6607197" x="171.679773" y="470.637253" style="fill: #1f77b4; stroke: #1f77b4"/>
     <use xlink:href="#m7ca6607197" x="79.396367" y="447.608236" style="fill: #1f77b4; stroke: #1f77b4"/>
     <use xlink:href="#m7ca6607197" x="251.110241" y="485.518117" style="fill: #1f77b4; stroke: #1f77b4"/>
     <use xlink:href="#m7ca6607197" x="132.4632" y="489.265064" style="fill: #1f77b4; stroke: #1f77b4"/>
     <use xlink:href="#m7ca6607197" x="132.120462" y="484.388693" style="fill: #1f77b4; stroke: #1f77b4"/>
     <use xlink:href="#m7ca6607197" x="212.599139" y="481.165576" style="fill: #1f77b4; stroke: #1f77b4"/>
     <use xlink:href="#m7ca6607197" x="180.049827" y="488.156947" style="fill: #1f77b4; stroke: #1f77b4"/>
     <use xlink:href="#m7ca6607197" x="150.940253" y="483.138495" style="fill: #1f77b4; stroke: #1f77b4"/>
     <use xlink:href="#m7ca6607197" x="141.330885" y="476.221101" style="fill: #1f77b4; stroke: #1f77b4"/>
     <use xlink:href="#m7ca6607197" x="149.182197" y="487.00333" style="fill: #1f77b4; stroke: #1f77b4"/>
     <use xlink:href="#m7ca6607197" x="224.520317" y="464.593854" style="fill: #1f77b4; stroke: #1f77b4"/>
     <use xlink:href="#m7ca6607197" x="160.410261" y="485.33247" style="fill: #1f77b4; stroke: #1f77b4"/>
     <use xlink:href="#m7ca6607197" x="153.858162" y="487.266299" style="fill: #1f77b4; stroke: #1f77b4"/>
     <use xlink:href="#m7ca6607197" x="136.202084" y="479.677722" style="fill: #1f77b4; stroke: #1f77b4"/>
     <use xlink:href="#m7ca6607197" x="160.669417" y="491.526823" style="fill: #1f77b4; stroke: #1f77b4"/>
     <use xlink:href="#m7ca6607197" x="241.565919" y="490.832581" style="fill: #1f77b4; stroke: #1f77b4"/>
     <use xlink:href="#m7ca6607197" x="172.229493" y="485.786515" style="fill: #1f77b4; stroke: #1f77b4"/>
     <use xlink:href="#m7ca6607197" x="146.74244" y="484.932753" style="fill: #1f77b4; stroke: #1f77b4"/>
     <use xlink:href="#m7ca6607197" x="200.083962" y="473.423325" style="fill: #1f77b4; stroke: #1f77b4"/>
     <use xlink:href="#m7ca6607197" x="164.723407" y="472.508173" style="fill: #1f77b4; stroke: #1f77b4"/>
     <use xlink:href="#m7ca6607197" x="211.274525" y="484.773984" style="fill: #1f77b4; stroke: #1f77b4"/>
     <use xlink:href="#m7ca6607197" x="270.667769" y="429.125245" style="fill: #1f77b4; stroke: #1f77b4"/>
     <use xlink:href="#m7ca6607197" x="112.454895" y="467.03849" style="fill: #1f77b4; stroke: #1f77b4"/>
     <use xlink:href="#m7ca6607197" x="124.323727" y="478.638199" style="fill: #1f77b4; stroke: #1f77b4"/>
     <use xlink:href="#m7ca6607197" x="112.16519" y="485.281208" style="fill: #1f77b4; stroke: #1f77b4"/>
     <use xlink:href="#m7ca6607197" x="278.727865" y="480.745284" style="fill: #1f77b4; stroke: #1f77b4"/>
     <use xlink:href="#m7ca6607197" x="167.961142" y="486.87716" style="fill: #1f77b4; stroke: #1f77b4"/>
     <use xlink:href="#m7ca6607197" x="154.168891" y="486.478695" style="fill: #1f77b4; stroke: #1f77b4"/>
     <use xlink:href="#m7ca6607197" x="166.839734" y="479.065012" style="fill: #1f77b4; stroke: #1f77b4"/>
     <use xlink:href="#m7ca6607197" x="151.583081" y="479.165929" style="fill: #1f77b4; stroke: #1f77b4"/>
     <use xlink:href="#m7ca6607197" x="96.713311" y="484.870326" style="fill: #1f77b4; stroke: #1f77b4"/>
     <use xlink:href="#m7ca6607197" x="134.45853" y="484.415984" style="fill: #1f77b4; stroke: #1f77b4"/>
     <use xlink:href="#m7ca6607197" x="149.376478" y="490.942374" style="fill: #1f77b4; stroke: #1f77b4"/>
     <use xlink:href="#m7ca6607197" x="259.083494" y="477.708846" style="fill: #1f77b4; stroke: #1f77b4"/>
     <use xlink:href="#m7ca6607197" x="83.315716" y="485.562032" style="fill: #1f77b4; stroke: #1f77b4"/>
     <use xlink:href="#m7ca6607197" x="154.571012" y="488.239673" style="fill: #1f77b4; stroke: #1f77b4"/>
     <use xlink:href="#m7ca6607197" x="177.22966" y="482.021128" style="fill: #1f77b4; stroke: #1f77b4"/>
     <use xlink:href="#m7ca6607197" x="280.38921" y="433.319189" style="fill: #1f77b4; stroke: #1f77b4"/>
     <use xlink:href="#m7ca6607197" x="159.544234" y="471.502965" style="fill: #1f77b4; stroke: #1f77b4"/>
     <use xlink:href="#m7ca6607197" x="185.038152" y="481.579268" style="fill: #1f77b4; stroke: #1f77b4"/>
     <use xlink:href="#m7ca6607197" x="247.256368" y="482.55788" style="fill: #1f77b4; stroke: #1f77b4"/>
     <use xlink:href="#m7ca6607197" x="225.9673" y="467.402716" style="fill: #1f77b4; stroke: #1f77b4"/>
     <use xlink:href="#m7ca6607197" x="121.017428" y="486.160949" style="fill: #1f77b4; stroke: #1f77b4"/>
     <use xlink:href="#m7ca6607197" x="221.864053" y="488.539508" style="fill: #1f77b4; stroke: #1f77b4"/>
     <use xlink:href="#m7ca6607197" x="218.230548" y="469.053943" style="fill: #1f77b4; stroke: #1f77b4"/>
     <use xlink:href="#m7ca6607197" x="203.374214" y="480.611489" style="fill: #1f77b4; stroke: #1f77b4"/>
     <use xlink:href="#m7ca6607197" x="174.555547" y="483.464314" style="fill: #1f77b4; stroke: #1f77b4"/>
     <use xlink:href="#m7ca6607197" x="140.08951" y="476.674552" style="fill: #1f77b4; stroke: #1f77b4"/>
     <use xlink:href="#m7ca6607197" x="210.292478" y="477.742756" style="fill: #1f77b4; stroke: #1f77b4"/>
     <use xlink:href="#m7ca6607197" x="187.198243" y="487.773235" style="fill: #1f77b4; stroke: #1f77b4"/>
     <use xlink:href="#m7ca6607197" x="171.246073" y="482.363032" style="fill: #1f77b4; stroke: #1f77b4"/>
     <use xlink:href="#m7ca6607197" x="175.19005" y="486.817335" style="fill: #1f77b4; stroke: #1f77b4"/>
     <use xlink:href="#m7ca6607197" x="86.79081" y="472.425964" style="fill: #1f77b4; stroke: #1f77b4"/>
     <use xlink:href="#m7ca6607197" x="159.327813" y="486.189987" style="fill: #1f77b4; stroke: #1f77b4"/>
     <use xlink:href="#m7ca6607197" x="167.256958" y="480.530775" style="fill: #1f77b4; stroke: #1f77b4"/>
     <use xlink:href="#m7ca6607197" x="160.246873" y="470.201712" style="fill: #1f77b4; stroke: #1f77b4"/>
     <use xlink:href="#m7ca6607197" x="155.782181" y="482.665949" style="fill: #1f77b4; stroke: #1f77b4"/>
     <use xlink:href="#m7ca6607197" x="170.119345" y="486.750653" style="fill: #1f77b4; stroke: #1f77b4"/>
     <use xlink:href="#m7ca6607197" x="116.345668" y="483.982764" style="fill: #1f77b4; stroke: #1f77b4"/>
     <use xlink:href="#m7ca6607197" x="280.110145" y="483.581638" style="fill: #1f77b4; stroke: #1f77b4"/>
     <use xlink:href="#m7ca6607197" x="131.034324" y="478.661468" style="fill: #1f77b4; stroke: #1f77b4"/>
     <use xlink:href="#m7ca6607197" x="130.998282" y="474.263233" style="fill: #1f77b4; stroke: #1f77b4"/>
     <use xlink:href="#m7ca6607197" x="147.127999" y="488.27688" style="fill: #1f77b4; stroke: #1f77b4"/>
     <use xlink:href="#m7ca6607197" x="123.505669" y="478.181749" style="fill: #1f77b4; stroke: #1f77b4"/>
     <use xlink:href="#m7ca6607197" x="139.616078" y="484.122524" style="fill: #1f77b4; stroke: #1f77b4"/>
     <use xlink:href="#m7ca6607197" x="183.345571" y="487.300298" style="fill: #1f77b4; stroke: #1f77b4"/>
     <use xlink:href="#m7ca6607197" x="166.219819" y="480.203005" style="fill: #1f77b4; stroke: #1f77b4"/>
     <use xlink:href="#m7ca6607197" x="208.665802" y="480.461583" style="fill: #1f77b4; stroke: #1f77b4"/>
     <use xlink:href="#m7ca6607197" x="141.075075" y="480.544565" style="fill: #1f77b4; stroke: #1f77b4"/>
     <use xlink:href="#m7ca6607197" x="200.302614" y="488.395839" style="fill: #1f77b4; stroke: #1f77b4"/>
     <use xlink:href="#m7ca6607197" x="133.040981" y="482.001439" style="fill: #1f77b4; stroke: #1f77b4"/>
     <use xlink:href="#m7ca6607197" x="161.713078" y="486.026933" style="fill: #1f77b4; stroke: #1f77b4"/>
     <use xlink:href="#m7ca6607197" x="97.956059" y="481.798769" style="fill: #1f77b4; stroke: #1f77b4"/>
     <use xlink:href="#m7ca6607197" x="131.906787" y="486.966677" style="fill: #1f77b4; stroke: #1f77b4"/>
     <use xlink:href="#m7ca6607197" x="150.236842" y="484.679472" style="fill: #1f77b4; stroke: #1f77b4"/>
     <use xlink:href="#m7ca6607197" x="129.268716" y="492.315977" style="fill: #1f77b4; stroke: #1f77b4"/>
     <use xlink:href="#m7ca6607197" x="146.333969" y="487.466605" style="fill: #1f77b4; stroke: #1f77b4"/>
     <use xlink:href="#m7ca6607197" x="132.796756" y="481.853376" style="fill: #1f77b4; stroke: #1f77b4"/>
     <use xlink:href="#m7ca6607197" x="205.557989" y="481.184113" style="fill: #1f77b4; stroke: #1f77b4"/>
     <use xlink:href="#m7ca6607197" x="157.941929" y="486.511177" style="fill: #1f77b4; stroke: #1f77b4"/>
     <use xlink:href="#m7ca6607197" x="175.073859" y="477.31875" style="fill: #1f77b4; stroke: #1f77b4"/>
     <use xlink:href="#m7ca6607197" x="110.809855" y="484.808233" style="fill: #1f77b4; stroke: #1f77b4"/>
     <use xlink:href="#m7ca6607197" x="204.795796" y="469.880386" style="fill: #1f77b4; stroke: #1f77b4"/>
     <use xlink:href="#m7ca6607197" x="214.950594" y="482.365453" style="fill: #1f77b4; stroke: #1f77b4"/>
     <use xlink:href="#m7ca6607197" x="141.048988" y="478.148129" style="fill: #1f77b4; stroke: #1f77b4"/>
     <use xlink:href="#m7ca6607197" x="140.164339" y="489.63469" style="fill: #1f77b4; stroke: #1f77b4"/>
     <use xlink:href="#m7ca6607197" x="255.847648" y="474.615189" style="fill: #1f77b4; stroke: #1f77b4"/>
     <use xlink:href="#m7ca6607197" x="175.427925" y="491.349797" style="fill: #1f77b4; stroke: #1f77b4"/>
     <use xlink:href="#m7ca6607197" x="185.682609" y="489.328391" style="fill: #1f77b4; stroke: #1f77b4"/>
     <use xlink:href="#m7ca6607197" x="153.501093" y="479.672182" style="fill: #1f77b4; stroke: #1f77b4"/>
     <use xlink:href="#m7ca6607197" x="167.530187" y="489.319948" style="fill: #1f77b4; stroke: #1f77b4"/>
     <use xlink:href="#m7ca6607197" x="102.367976" y="471.660362" style="fill: #1f77b4; stroke: #1f77b4"/>
     <use xlink:href="#m7ca6607197" x="193.023075" y="483.764389" style="fill: #1f77b4; stroke: #1f77b4"/>
     <use xlink:href="#m7ca6607197" x="153.458529" y="477.737833" style="fill: #1f77b4; stroke: #1f77b4"/>
     <use xlink:href="#m7ca6607197" x="93.497373" y="486.251531" style="fill: #1f77b4; stroke: #1f77b4"/>
     <use xlink:href="#m7ca6607197" x="174.418932" y="482.764973" style="fill: #1f77b4; stroke: #1f77b4"/>
     <use xlink:href="#m7ca6607197" x="216.420403" y="466.910002" style="fill: #1f77b4; stroke: #1f77b4"/>
     <use xlink:href="#m7ca6607197" x="192.266374" y="482.879886" style="fill: #1f77b4; stroke: #1f77b4"/>
     <use xlink:href="#m7ca6607197" x="170.691891" y="480.544226" style="fill: #1f77b4; stroke: #1f77b4"/>
     <use xlink:href="#m7ca6607197" x="155.477544" y="480.471282" style="fill: #1f77b4; stroke: #1f77b4"/>
     <use xlink:href="#m7ca6607197" x="279.804993" y="476.903779" style="fill: #1f77b4; stroke: #1f77b4"/>
     <use xlink:href="#m7ca6607197" x="117.077741" y="473.424017" style="fill: #1f77b4; stroke: #1f77b4"/>
     <use xlink:href="#m7ca6607197" x="149.985753" y="477.964553" style="fill: #1f77b4; stroke: #1f77b4"/>
     <use xlink:href="#m7ca6607197" x="183.146312" y="476.907909" style="fill: #1f77b4; stroke: #1f77b4"/>
     <use xlink:href="#m7ca6607197" x="191.738279" y="494.2565" style="fill: #1f77b4; stroke: #1f77b4"/>
     <use xlink:href="#m7ca6607197" x="175.822837" y="487.928228" style="fill: #1f77b4; stroke: #1f77b4"/>
     <use xlink:href="#m7ca6607197" x="123.817" y="477.527886" style="fill: #1f77b4; stroke: #1f77b4"/>
     <use xlink:href="#m7ca6607197" x="162.646726" y="483.417506" style="fill: #1f77b4; stroke: #1f77b4"/>
     <use xlink:href="#m7ca6607197" x="138.562377" y="489.04838" style="fill: #1f77b4; stroke: #1f77b4"/>
     <use xlink:href="#m7ca6607197" x="150.129833" y="468.685314" style="fill: #1f77b4; stroke: #1f77b4"/>
     <use xlink:href="#m7ca6607197" x="113.7475" y="482.754496" style="fill: #1f77b4; stroke: #1f77b4"/>
     <use xlink:href="#m7ca6607197" x="177.945171" y="447.514461" style="fill: #1f77b4; stroke: #1f77b4"/>
     <use xlink:href="#m7ca6607197" x="156.74655" y="491.730756" style="fill: #1f77b4; stroke: #1f77b4"/>
     <use xlink:href="#m7ca6607197" x="136.172907" y="485.97435" style="fill: #1f77b4; stroke: #1f77b4"/>
     <use xlink:href="#m7ca6607197" x="279.295606" y="445.502583" style="fill: #1f77b4; stroke: #1f77b4"/>
     <use xlink:href="#m7ca6607197" x="142.423288" y="484.196775" style="fill: #1f77b4; stroke: #1f77b4"/>
     <use xlink:href="#m7ca6607197" x="177.20855" y="489.172093" style="fill: #1f77b4; stroke: #1f77b4"/>
     <use xlink:href="#m7ca6607197" x="148.647066" y="489.92632" style="fill: #1f77b4; stroke: #1f77b4"/>
     <use xlink:href="#m7ca6607197" x="163.514813" y="474.6885" style="fill: #1f77b4; stroke: #1f77b4"/>
     <use xlink:href="#m7ca6607197" x="130.993648" y="491.706654" style="fill: #1f77b4; stroke: #1f77b4"/>
     <use xlink:href="#m7ca6607197" x="139.007319" y="477.136158" style="fill: #1f77b4; stroke: #1f77b4"/>
     <use xlink:href="#m7ca6607197" x="229.573516" y="461.380072" style="fill: #1f77b4; stroke: #1f77b4"/>
     <use xlink:href="#m7ca6607197" x="164.447775" y="486.662276" style="fill: #1f77b4; stroke: #1f77b4"/>
     <use xlink:href="#m7ca6607197" x="149.017865" y="482.689913" style="fill: #1f77b4; stroke: #1f77b4"/>
     <use xlink:href="#m7ca6607197" x="234.483751" y="477.785491" style="fill: #1f77b4; stroke: #1f77b4"/>
     <use xlink:href="#m7ca6607197" x="139.420767" y="488.505157" style="fill: #1f77b4; stroke: #1f77b4"/>
     <use xlink:href="#m7ca6607197" x="216.171373" y="471.348801" style="fill: #1f77b4; stroke: #1f77b4"/>
     <use xlink:href="#m7ca6607197" x="229.374773" y="485.033657" style="fill: #1f77b4; stroke: #1f77b4"/>
     <use xlink:href="#m7ca6607197" x="158.917454" y="494.171233" style="fill: #1f77b4; stroke: #1f77b4"/>
     <use xlink:href="#m7ca6607197" x="181.485826" y="469.989928" style="fill: #1f77b4; stroke: #1f77b4"/>
     <use xlink:href="#m7ca6607197" x="193.375939" y="484.836334" style="fill: #1f77b4; stroke: #1f77b4"/>
     <use xlink:href="#m7ca6607197" x="163.821682" y="487.152429" style="fill: #1f77b4; stroke: #1f77b4"/>
     <use xlink:href="#m7ca6607197" x="193.881379" y="487.216205" style="fill: #1f77b4; stroke: #1f77b4"/>
     <use xlink:href="#m7ca6607197" x="679.136818" y="48.558182" style="fill: #1f77b4; stroke: #1f77b4"/>
     <use xlink:href="#m7ca6607197" x="144.495935" y="478.953824" style="fill: #1f77b4; stroke: #1f77b4"/>
     <use xlink:href="#m7ca6607197" x="257.163165" y="476.829036" style="fill: #1f77b4; stroke: #1f77b4"/>
     <use xlink:href="#m7ca6607197" x="188.867997" y="481.027795" style="fill: #1f77b4; stroke: #1f77b4"/>
     <use xlink:href="#m7ca6607197" x="136.331319" y="484.732649" style="fill: #1f77b4; stroke: #1f77b4"/>
     <use xlink:href="#m7ca6607197" x="77.873182" y="476.596748" style="fill: #1f77b4; stroke: #1f77b4"/>
     <use xlink:href="#m7ca6607197" x="210.589392" y="440.852002" style="fill: #1f77b4; stroke: #1f77b4"/>
     <use xlink:href="#m7ca6607197" x="130.991331" y="478.877013" style="fill: #1f77b4; stroke: #1f77b4"/>
     <use xlink:href="#m7ca6607197" x="186.222031" y="489.683256" style="fill: #1f77b4; stroke: #1f77b4"/>
     <use xlink:href="#m7ca6607197" x="243.458959" y="475.118248" style="fill: #1f77b4; stroke: #1f77b4"/>
     <use xlink:href="#m7ca6607197" x="114.043899" y="487.696335" style="fill: #1f77b4; stroke: #1f77b4"/>
     <use xlink:href="#m7ca6607197" x="142.095309" y="467.987448" style="fill: #1f77b4; stroke: #1f77b4"/>
     <use xlink:href="#m7ca6607197" x="162.097865" y="477.995521" style="fill: #1f77b4; stroke: #1f77b4"/>
     <use xlink:href="#m7ca6607197" x="144.08017" y="489.1542" style="fill: #1f77b4; stroke: #1f77b4"/>
     <use xlink:href="#m7ca6607197" x="270.642712" y="490.218408" style="fill: #1f77b4; stroke: #1f77b4"/>
     <use xlink:href="#m7ca6607197" x="119.943475" y="478.688976" style="fill: #1f77b4; stroke: #1f77b4"/>
     <use xlink:href="#m7ca6607197" x="149.965415" y="485.625434" style="fill: #1f77b4; stroke: #1f77b4"/>
     <use xlink:href="#m7ca6607197" x="113.999534" y="485.116777" style="fill: #1f77b4; stroke: #1f77b4"/>
     <use xlink:href="#m7ca6607197" x="193.041782" y="471.142723" style="fill: #1f77b4; stroke: #1f77b4"/>
     <use xlink:href="#m7ca6607197" x="171.796479" y="486.851712" style="fill: #1f77b4; stroke: #1f77b4"/>
     <use xlink:href="#m7ca6607197" x="176.570442" y="483.744793" style="fill: #1f77b4; stroke: #1f77b4"/>
     <use xlink:href="#m7ca6607197" x="216.547579" y="483.914127" style="fill: #1f77b4; stroke: #1f77b4"/>
     <use xlink:href="#m7ca6607197" x="201.575568" y="472.951055" style="fill: #1f77b4; stroke: #1f77b4"/>
     <use xlink:href="#m7ca6607197" x="134.865886" y="477.988527" style="fill: #1f77b4; stroke: #1f77b4"/>
     <use xlink:href="#m7ca6607197" x="152.24307" y="487.62543" style="fill: #1f77b4; stroke: #1f77b4"/>
     <use xlink:href="#m7ca6607197" x="159.836171" y="490.177987" style="fill: #1f77b4; stroke: #1f77b4"/>
     <use xlink:href="#m7ca6607197" x="107.219257" y="468.581648" style="fill: #1f77b4; stroke: #1f77b4"/>
     <use xlink:href="#m7ca6607197" x="197.684966" y="482.98687" style="fill: #1f77b4; stroke: #1f77b4"/>
     <use xlink:href="#m7ca6607197" x="176.027588" y="490.607575" style="fill: #1f77b4; stroke: #1f77b4"/>
     <use xlink:href="#m7ca6607197" x="102.53883" y="487.982721" style="fill: #1f77b4; stroke: #1f77b4"/>
     <use xlink:href="#m7ca6607197" x="149.058283" y="482.097105" style="fill: #1f77b4; stroke: #1f77b4"/>
     <use xlink:href="#m7ca6607197" x="174.638614" y="488.211173" style="fill: #1f77b4; stroke: #1f77b4"/>
     <use xlink:href="#m7ca6607197" x="150.126915" y="482.784567" style="fill: #1f77b4; stroke: #1f77b4"/>
     <use xlink:href="#m7ca6607197" x="273.05252" y="478.832522" style="fill: #1f77b4; stroke: #1f77b4"/>
     <use xlink:href="#m7ca6607197" x="160.21701" y="458.959619" style="fill: #1f77b4; stroke: #1f77b4"/>
     <use xlink:href="#m7ca6607197" x="237.616106" y="466.755282" style="fill: #1f77b4; stroke: #1f77b4"/>
     <use xlink:href="#m7ca6607197" x="145.755588" y="484.410372" style="fill: #1f77b4; stroke: #1f77b4"/>
     <use xlink:href="#m7ca6607197" x="205.64775" y="485.967918" style="fill: #1f77b4; stroke: #1f77b4"/>
     <use xlink:href="#m7ca6607197" x="172.047226" y="482.615036" style="fill: #1f77b4; stroke: #1f77b4"/>
     <use xlink:href="#m7ca6607197" x="160.285832" y="480.136599" style="fill: #1f77b4; stroke: #1f77b4"/>
     <use xlink:href="#m7ca6607197" x="159.121689" y="489.253737" style="fill: #1f77b4; stroke: #1f77b4"/>
     <use xlink:href="#m7ca6607197" x="162.418292" y="489.234879" style="fill: #1f77b4; stroke: #1f77b4"/>
     <use xlink:href="#m7ca6607197" x="176.770559" y="482.992661" style="fill: #1f77b4; stroke: #1f77b4"/>
     <use xlink:href="#m7ca6607197" x="142.813223" y="483.369377" style="fill: #1f77b4; stroke: #1f77b4"/>
     <use xlink:href="#m7ca6607197" x="135.966183" y="472.87067" style="fill: #1f77b4; stroke: #1f77b4"/>
     <use xlink:href="#m7ca6607197" x="266.217665" y="488.825869" style="fill: #1f77b4; stroke: #1f77b4"/>
     <use xlink:href="#m7ca6607197" x="122.321703" y="480.362309" style="fill: #1f77b4; stroke: #1f77b4"/>
     <use xlink:href="#m7ca6607197" x="296.882861" y="489.495648" style="fill: #1f77b4; stroke: #1f77b4"/>
     <use xlink:href="#m7ca6607197" x="135.594698" y="486.920268" style="fill: #1f77b4; stroke: #1f77b4"/>
     <use xlink:href="#m7ca6607197" x="137.09703" y="482.126267" style="fill: #1f77b4; stroke: #1f77b4"/>
     <use xlink:href="#m7ca6607197" x="170.589087" y="487.920911" style="fill: #1f77b4; stroke: #1f77b4"/>
     <use xlink:href="#m7ca6607197" x="129.136478" y="481.578257" style="fill: #1f77b4; stroke: #1f77b4"/>
     <use xlink:href="#m7ca6607197" x="138.33154" y="481.319304" style="fill: #1f77b4; stroke: #1f77b4"/>
     <use xlink:href="#m7ca6607197" x="153.908534" y="480.456271" style="fill: #1f77b4; stroke: #1f77b4"/>
     <use xlink:href="#m7ca6607197" x="216.571606" y="487.153067" style="fill: #1f77b4; stroke: #1f77b4"/>
     <use xlink:href="#m7ca6607197" x="167.053581" y="491.83808" style="fill: #1f77b4; stroke: #1f77b4"/>
     <use xlink:href="#m7ca6607197" x="165.569526" y="487.97323" style="fill: #1f77b4; stroke: #1f77b4"/>
     <use xlink:href="#m7ca6607197" x="105.54401" y="487.444546" style="fill: #1f77b4; stroke: #1f77b4"/>
     <use xlink:href="#m7ca6607197" x="160.931663" y="489.066575" style="fill: #1f77b4; stroke: #1f77b4"/>
     <use xlink:href="#m7ca6607197" x="125.354945" y="485.794173" style="fill: #1f77b4; stroke: #1f77b4"/>
     <use xlink:href="#m7ca6607197" x="143.079416" y="480.768069" style="fill: #1f77b4; stroke: #1f77b4"/>
     <use xlink:href="#m7ca6607197" x="145.711308" y="485.85289" style="fill: #1f77b4; stroke: #1f77b4"/>
     <use xlink:href="#m7ca6607197" x="204.005284" y="481.298795" style="fill: #1f77b4; stroke: #1f77b4"/>
     <use xlink:href="#m7ca6607197" x="136.041699" y="470.892704" style="fill: #1f77b4; stroke: #1f77b4"/>
     <use xlink:href="#m7ca6607197" x="219.8979" y="485.966957" style="fill: #1f77b4; stroke: #1f77b4"/>
     <use xlink:href="#m7ca6607197" x="140.923529" y="485.425015" style="fill: #1f77b4; stroke: #1f77b4"/>
     <use xlink:href="#m7ca6607197" x="184.879054" y="482.008675" style="fill: #1f77b4; stroke: #1f77b4"/>
     <use xlink:href="#m7ca6607197" x="137.954648" y="479.575346" style="fill: #1f77b4; stroke: #1f77b4"/>
     <use xlink:href="#m7ca6607197" x="128.845313" y="485.241953" style="fill: #1f77b4; stroke: #1f77b4"/>
     <use xlink:href="#m7ca6607197" x="156.349406" y="476.957988" style="fill: #1f77b4; stroke: #1f77b4"/>
     <use xlink:href="#m7ca6607197" x="177.402488" y="481.035303" style="fill: #1f77b4; stroke: #1f77b4"/>
     <use xlink:href="#m7ca6607197" x="256.555607" y="485.663176" style="fill: #1f77b4; stroke: #1f77b4"/>
     <use xlink:href="#m7ca6607197" x="199.587618" y="488.574265" style="fill: #1f77b4; stroke: #1f77b4"/>
     <use xlink:href="#m7ca6607197" x="182.364554" y="483.721343" style="fill: #1f77b4; stroke: #1f77b4"/>
     <use xlink:href="#m7ca6607197" x="179.546618" y="484.020019" style="fill: #1f77b4; stroke: #1f77b4"/>
     <use xlink:href="#m7ca6607197" x="297.185782" y="458.102902" style="fill: #1f77b4; stroke: #1f77b4"/>
     <use xlink:href="#m7ca6607197" x="131.08092" y="484.876445" style="fill: #1f77b4; stroke: #1f77b4"/>
     <use xlink:href="#m7ca6607197" x="148.955135" y="482.367152" style="fill: #1f77b4; stroke: #1f77b4"/>
     <use xlink:href="#m7ca6607197" x="131.685818" y="476.748116" style="fill: #1f77b4; stroke: #1f77b4"/>
     <use xlink:href="#m7ca6607197" x="183.906618" y="481.092461" style="fill: #1f77b4; stroke: #1f77b4"/>
    </g>
   </g>
   <g id="matplotlib.axis_1">
    <g id="xtick_1">
     <g id="line2d_1">
      <defs>
       <path id="m477a4bb50d" d="M 0 0 
L 0 3.5 
" style="stroke: #000000; stroke-width: 0.8"/>
      </defs>
      <g>
       <use xlink:href="#m477a4bb50d" x="96.578701" y="534.04" style="stroke: #000000; stroke-width: 0.8"/>
      </g>
     </g>
     <g id="text_1">
      <!-- 0.12 -->
      <g transform="translate(85.445888 548.638438) scale(0.1 -0.1)">
       <defs>
        <path id="DejaVuSans-30" d="M 2034 4250 
Q 1547 4250 1301 3770 
Q 1056 3291 1056 2328 
Q 1056 1369 1301 889 
Q 1547 409 2034 409 
Q 2525 409 2770 889 
Q 3016 1369 3016 2328 
Q 3016 3291 2770 3770 
Q 2525 4250 2034 4250 
z
M 2034 4750 
Q 2819 4750 3233 4129 
Q 3647 3509 3647 2328 
Q 3647 1150 3233 529 
Q 2819 -91 2034 -91 
Q 1250 -91 836 529 
Q 422 1150 422 2328 
Q 422 3509 836 4129 
Q 1250 4750 2034 4750 
z
" transform="scale(0.015625)"/>
        <path id="DejaVuSans-2e" d="M 684 794 
L 1344 794 
L 1344 0 
L 684 0 
L 684 794 
z
" transform="scale(0.015625)"/>
        <path id="DejaVuSans-31" d="M 794 531 
L 1825 531 
L 1825 4091 
L 703 3866 
L 703 4441 
L 1819 4666 
L 2450 4666 
L 2450 531 
L 3481 531 
L 3481 0 
L 794 0 
L 794 531 
z
" transform="scale(0.015625)"/>
        <path id="DejaVuSans-32" d="M 1228 531 
L 3431 531 
L 3431 0 
L 469 0 
L 469 531 
Q 828 903 1448 1529 
Q 2069 2156 2228 2338 
Q 2531 2678 2651 2914 
Q 2772 3150 2772 3378 
Q 2772 3750 2511 3984 
Q 2250 4219 1831 4219 
Q 1534 4219 1204 4116 
Q 875 4013 500 3803 
L 500 4441 
Q 881 4594 1212 4672 
Q 1544 4750 1819 4750 
Q 2544 4750 2975 4387 
Q 3406 4025 3406 3419 
Q 3406 3131 3298 2873 
Q 3191 2616 2906 2266 
Q 2828 2175 2409 1742 
Q 1991 1309 1228 531 
z
" transform="scale(0.015625)"/>
       </defs>
       <use xlink:href="#DejaVuSans-30"/>
       <use xlink:href="#DejaVuSans-2e" x="63.623047"/>
       <use xlink:href="#DejaVuSans-31" x="95.410156"/>
       <use xlink:href="#DejaVuSans-32" x="159.033203"/>
      </g>
     </g>
    </g>
    <g id="xtick_2">
     <g id="line2d_2">
      <g>
       <use xlink:href="#m477a4bb50d" x="211.755306" y="534.04" style="stroke: #000000; stroke-width: 0.8"/>
      </g>
     </g>
     <g id="text_2">
      <!-- 0.13 -->
      <g transform="translate(200.622494 548.638438) scale(0.1 -0.1)">
       <defs>
        <path id="DejaVuSans-33" d="M 2597 2516 
Q 3050 2419 3304 2112 
Q 3559 1806 3559 1356 
Q 3559 666 3084 287 
Q 2609 -91 1734 -91 
Q 1441 -91 1130 -33 
Q 819 25 488 141 
L 488 750 
Q 750 597 1062 519 
Q 1375 441 1716 441 
Q 2309 441 2620 675 
Q 2931 909 2931 1356 
Q 2931 1769 2642 2001 
Q 2353 2234 1838 2234 
L 1294 2234 
L 1294 2753 
L 1863 2753 
Q 2328 2753 2575 2939 
Q 2822 3125 2822 3475 
Q 2822 3834 2567 4026 
Q 2313 4219 1838 4219 
Q 1578 4219 1281 4162 
Q 984 4106 628 3988 
L 628 4550 
Q 988 4650 1302 4700 
Q 1616 4750 1894 4750 
Q 2613 4750 3031 4423 
Q 3450 4097 3450 3541 
Q 3450 3153 3228 2886 
Q 3006 2619 2597 2516 
z
" transform="scale(0.015625)"/>
       </defs>
       <use xlink:href="#DejaVuSans-30"/>
       <use xlink:href="#DejaVuSans-2e" x="63.623047"/>
       <use xlink:href="#DejaVuSans-31" x="95.410156"/>
       <use xlink:href="#DejaVuSans-33" x="159.033203"/>
      </g>
     </g>
    </g>
    <g id="xtick_3">
     <g id="line2d_3">
      <g>
       <use xlink:href="#m477a4bb50d" x="326.931912" y="534.04" style="stroke: #000000; stroke-width: 0.8"/>
      </g>
     </g>
     <g id="text_3">
      <!-- 0.14 -->
      <g transform="translate(315.799099 548.638438) scale(0.1 -0.1)">
       <defs>
        <path id="DejaVuSans-34" d="M 2419 4116 
L 825 1625 
L 2419 1625 
L 2419 4116 
z
M 2253 4666 
L 3047 4666 
L 3047 1625 
L 3713 1625 
L 3713 1100 
L 3047 1100 
L 3047 0 
L 2419 0 
L 2419 1100 
L 313 1100 
L 313 1709 
L 2253 4666 
z
" transform="scale(0.015625)"/>
       </defs>
       <use xlink:href="#DejaVuSans-30"/>
       <use xlink:href="#DejaVuSans-2e" x="63.623047"/>
       <use xlink:href="#DejaVuSans-31" x="95.410156"/>
       <use xlink:href="#DejaVuSans-34" x="159.033203"/>
      </g>
     </g>
    </g>
    <g id="xtick_4">
     <g id="line2d_4">
      <g>
       <use xlink:href="#m477a4bb50d" x="442.108517" y="534.04" style="stroke: #000000; stroke-width: 0.8"/>
      </g>
     </g>
     <g id="text_4">
      <!-- 0.15 -->
      <g transform="translate(430.975704 548.638438) scale(0.1 -0.1)">
       <defs>
        <path id="DejaVuSans-35" d="M 691 4666 
L 3169 4666 
L 3169 4134 
L 1269 4134 
L 1269 2991 
Q 1406 3038 1543 3061 
Q 1681 3084 1819 3084 
Q 2600 3084 3056 2656 
Q 3513 2228 3513 1497 
Q 3513 744 3044 326 
Q 2575 -91 1722 -91 
Q 1428 -91 1123 -41 
Q 819 9 494 109 
L 494 744 
Q 775 591 1075 516 
Q 1375 441 1709 441 
Q 2250 441 2565 725 
Q 2881 1009 2881 1497 
Q 2881 1984 2565 2268 
Q 2250 2553 1709 2553 
Q 1456 2553 1204 2497 
Q 953 2441 691 2322 
L 691 4666 
z
" transform="scale(0.015625)"/>
       </defs>
       <use xlink:href="#DejaVuSans-30"/>
       <use xlink:href="#DejaVuSans-2e" x="63.623047"/>
       <use xlink:href="#DejaVuSans-31" x="95.410156"/>
       <use xlink:href="#DejaVuSans-35" x="159.033203"/>
      </g>
     </g>
    </g>
    <g id="xtick_5">
     <g id="line2d_5">
      <g>
       <use xlink:href="#m477a4bb50d" x="557.285122" y="534.04" style="stroke: #000000; stroke-width: 0.8"/>
      </g>
     </g>
     <g id="text_5">
      <!-- 0.16 -->
      <g transform="translate(546.15231 548.638438) scale(0.1 -0.1)">
       <defs>
        <path id="DejaVuSans-36" d="M 2113 2584 
Q 1688 2584 1439 2293 
Q 1191 2003 1191 1497 
Q 1191 994 1439 701 
Q 1688 409 2113 409 
Q 2538 409 2786 701 
Q 3034 994 3034 1497 
Q 3034 2003 2786 2293 
Q 2538 2584 2113 2584 
z
M 3366 4563 
L 3366 3988 
Q 3128 4100 2886 4159 
Q 2644 4219 2406 4219 
Q 1781 4219 1451 3797 
Q 1122 3375 1075 2522 
Q 1259 2794 1537 2939 
Q 1816 3084 2150 3084 
Q 2853 3084 3261 2657 
Q 3669 2231 3669 1497 
Q 3669 778 3244 343 
Q 2819 -91 2113 -91 
Q 1303 -91 875 529 
Q 447 1150 447 2328 
Q 447 3434 972 4092 
Q 1497 4750 2381 4750 
Q 2619 4750 2861 4703 
Q 3103 4656 3366 4563 
z
" transform="scale(0.015625)"/>
       </defs>
       <use xlink:href="#DejaVuSans-30"/>
       <use xlink:href="#DejaVuSans-2e" x="63.623047"/>
       <use xlink:href="#DejaVuSans-31" x="95.410156"/>
       <use xlink:href="#DejaVuSans-36" x="159.033203"/>
      </g>
     </g>
    </g>
    <g id="xtick_6">
     <g id="line2d_6">
      <g>
       <use xlink:href="#m477a4bb50d" x="672.461727" y="534.04" style="stroke: #000000; stroke-width: 0.8"/>
      </g>
     </g>
     <g id="text_6">
      <!-- 0.17 -->
      <g transform="translate(661.328915 548.638438) scale(0.1 -0.1)">
       <defs>
        <path id="DejaVuSans-37" d="M 525 4666 
L 3525 4666 
L 3525 4397 
L 1831 0 
L 1172 0 
L 2766 4134 
L 525 4134 
L 525 4666 
z
" transform="scale(0.015625)"/>
       </defs>
       <use xlink:href="#DejaVuSans-30"/>
       <use xlink:href="#DejaVuSans-2e" x="63.623047"/>
       <use xlink:href="#DejaVuSans-31" x="95.410156"/>
       <use xlink:href="#DejaVuSans-37" x="159.033203"/>
      </g>
     </g>
    </g>
    <g id="text_7">
     <!-- Uncertainties -->
     <g transform="translate(345.183125 562.316563) scale(0.1 -0.1)">
      <defs>
       <path id="DejaVuSans-55" d="M 556 4666 
L 1191 4666 
L 1191 1831 
Q 1191 1081 1462 751 
Q 1734 422 2344 422 
Q 2950 422 3222 751 
Q 3494 1081 3494 1831 
L 3494 4666 
L 4128 4666 
L 4128 1753 
Q 4128 841 3676 375 
Q 3225 -91 2344 -91 
Q 1459 -91 1007 375 
Q 556 841 556 1753 
L 556 4666 
z
" transform="scale(0.015625)"/>
       <path id="DejaVuSans-6e" d="M 3513 2113 
L 3513 0 
L 2938 0 
L 2938 2094 
Q 2938 2591 2744 2837 
Q 2550 3084 2163 3084 
Q 1697 3084 1428 2787 
Q 1159 2491 1159 1978 
L 1159 0 
L 581 0 
L 581 3500 
L 1159 3500 
L 1159 2956 
Q 1366 3272 1645 3428 
Q 1925 3584 2291 3584 
Q 2894 3584 3203 3211 
Q 3513 2838 3513 2113 
z
" transform="scale(0.015625)"/>
       <path id="DejaVuSans-63" d="M 3122 3366 
L 3122 2828 
Q 2878 2963 2633 3030 
Q 2388 3097 2138 3097 
Q 1578 3097 1268 2742 
Q 959 2388 959 1747 
Q 959 1106 1268 751 
Q 1578 397 2138 397 
Q 2388 397 2633 464 
Q 2878 531 3122 666 
L 3122 134 
Q 2881 22 2623 -34 
Q 2366 -91 2075 -91 
Q 1284 -91 818 406 
Q 353 903 353 1747 
Q 353 2603 823 3093 
Q 1294 3584 2113 3584 
Q 2378 3584 2631 3529 
Q 2884 3475 3122 3366 
z
" transform="scale(0.015625)"/>
       <path id="DejaVuSans-65" d="M 3597 1894 
L 3597 1613 
L 953 1613 
Q 991 1019 1311 708 
Q 1631 397 2203 397 
Q 2534 397 2845 478 
Q 3156 559 3463 722 
L 3463 178 
Q 3153 47 2828 -22 
Q 2503 -91 2169 -91 
Q 1331 -91 842 396 
Q 353 884 353 1716 
Q 353 2575 817 3079 
Q 1281 3584 2069 3584 
Q 2775 3584 3186 3129 
Q 3597 2675 3597 1894 
z
M 3022 2063 
Q 3016 2534 2758 2815 
Q 2500 3097 2075 3097 
Q 1594 3097 1305 2825 
Q 1016 2553 972 2059 
L 3022 2063 
z
" transform="scale(0.015625)"/>
       <path id="DejaVuSans-72" d="M 2631 2963 
Q 2534 3019 2420 3045 
Q 2306 3072 2169 3072 
Q 1681 3072 1420 2755 
Q 1159 2438 1159 1844 
L 1159 0 
L 581 0 
L 581 3500 
L 1159 3500 
L 1159 2956 
Q 1341 3275 1631 3429 
Q 1922 3584 2338 3584 
Q 2397 3584 2469 3576 
Q 2541 3569 2628 3553 
L 2631 2963 
z
" transform="scale(0.015625)"/>
       <path id="DejaVuSans-74" d="M 1172 4494 
L 1172 3500 
L 2356 3500 
L 2356 3053 
L 1172 3053 
L 1172 1153 
Q 1172 725 1289 603 
Q 1406 481 1766 481 
L 2356 481 
L 2356 0 
L 1766 0 
Q 1100 0 847 248 
Q 594 497 594 1153 
L 594 3053 
L 172 3053 
L 172 3500 
L 594 3500 
L 594 4494 
L 1172 4494 
z
" transform="scale(0.015625)"/>
       <path id="DejaVuSans-61" d="M 2194 1759 
Q 1497 1759 1228 1600 
Q 959 1441 959 1056 
Q 959 750 1161 570 
Q 1363 391 1709 391 
Q 2188 391 2477 730 
Q 2766 1069 2766 1631 
L 2766 1759 
L 2194 1759 
z
M 3341 1997 
L 3341 0 
L 2766 0 
L 2766 531 
Q 2569 213 2275 61 
Q 1981 -91 1556 -91 
Q 1019 -91 701 211 
Q 384 513 384 1019 
Q 384 1609 779 1909 
Q 1175 2209 1959 2209 
L 2766 2209 
L 2766 2266 
Q 2766 2663 2505 2880 
Q 2244 3097 1772 3097 
Q 1472 3097 1187 3025 
Q 903 2953 641 2809 
L 641 3341 
Q 956 3463 1253 3523 
Q 1550 3584 1831 3584 
Q 2591 3584 2966 3190 
Q 3341 2797 3341 1997 
z
" transform="scale(0.015625)"/>
       <path id="DejaVuSans-69" d="M 603 3500 
L 1178 3500 
L 1178 0 
L 603 0 
L 603 3500 
z
M 603 4863 
L 1178 4863 
L 1178 4134 
L 603 4134 
L 603 4863 
z
" transform="scale(0.015625)"/>
       <path id="DejaVuSans-73" d="M 2834 3397 
L 2834 2853 
Q 2591 2978 2328 3040 
Q 2066 3103 1784 3103 
Q 1356 3103 1142 2972 
Q 928 2841 928 2578 
Q 928 2378 1081 2264 
Q 1234 2150 1697 2047 
L 1894 2003 
Q 2506 1872 2764 1633 
Q 3022 1394 3022 966 
Q 3022 478 2636 193 
Q 2250 -91 1575 -91 
Q 1294 -91 989 -36 
Q 684 19 347 128 
L 347 722 
Q 666 556 975 473 
Q 1284 391 1588 391 
Q 1994 391 2212 530 
Q 2431 669 2431 922 
Q 2431 1156 2273 1281 
Q 2116 1406 1581 1522 
L 1381 1569 
Q 847 1681 609 1914 
Q 372 2147 372 2553 
Q 372 3047 722 3315 
Q 1072 3584 1716 3584 
Q 2034 3584 2315 3537 
Q 2597 3491 2834 3397 
z
" transform="scale(0.015625)"/>
      </defs>
      <use xlink:href="#DejaVuSans-55"/>
      <use xlink:href="#DejaVuSans-6e" x="73.193359"/>
      <use xlink:href="#DejaVuSans-63" x="136.572266"/>
      <use xlink:href="#DejaVuSans-65" x="191.552734"/>
      <use xlink:href="#DejaVuSans-72" x="253.076172"/>
      <use xlink:href="#DejaVuSans-74" x="294.189453"/>
      <use xlink:href="#DejaVuSans-61" x="333.398438"/>
      <use xlink:href="#DejaVuSans-69" x="394.677734"/>
      <use xlink:href="#DejaVuSans-6e" x="422.460938"/>
      <use xlink:href="#DejaVuSans-74" x="485.839844"/>
      <use xlink:href="#DejaVuSans-69" x="525.048828"/>
      <use xlink:href="#DejaVuSans-65" x="552.832031"/>
      <use xlink:href="#DejaVuSans-73" x="614.355469"/>
     </g>
    </g>
   </g>
   <g id="matplotlib.axis_2">
    <g id="ytick_1">
     <g id="line2d_7">
      <defs>
       <path id="me7759eb59d" d="M 0 0 
L -3.5 0 
" style="stroke: #000000; stroke-width: 0.8"/>
      </defs>
      <g>
       <use xlink:href="#me7759eb59d" x="47.81" y="506.116915" style="stroke: #000000; stroke-width: 0.8"/>
      </g>
     </g>
     <g id="text_8">
      <!-- 0.0 -->
      <g transform="translate(24.906875 509.916133) scale(0.1 -0.1)">
       <use xlink:href="#DejaVuSans-30"/>
       <use xlink:href="#DejaVuSans-2e" x="63.623047"/>
       <use xlink:href="#DejaVuSans-30" x="95.410156"/>
      </g>
     </g>
    </g>
    <g id="ytick_2">
     <g id="line2d_8">
      <g>
       <use xlink:href="#me7759eb59d" x="47.81" y="412.84603" style="stroke: #000000; stroke-width: 0.8"/>
      </g>
     </g>
     <g id="text_9">
      <!-- 0.5 -->
      <g transform="translate(24.906875 416.645248) scale(0.1 -0.1)">
       <use xlink:href="#DejaVuSans-30"/>
       <use xlink:href="#DejaVuSans-2e" x="63.623047"/>
       <use xlink:href="#DejaVuSans-35" x="95.410156"/>
      </g>
     </g>
    </g>
    <g id="ytick_3">
     <g id="line2d_9">
      <g>
       <use xlink:href="#me7759eb59d" x="47.81" y="319.575145" style="stroke: #000000; stroke-width: 0.8"/>
      </g>
     </g>
     <g id="text_10">
      <!-- 1.0 -->
      <g transform="translate(24.906875 323.374363) scale(0.1 -0.1)">
       <use xlink:href="#DejaVuSans-31"/>
       <use xlink:href="#DejaVuSans-2e" x="63.623047"/>
       <use xlink:href="#DejaVuSans-30" x="95.410156"/>
      </g>
     </g>
    </g>
    <g id="ytick_4">
     <g id="line2d_10">
      <g>
       <use xlink:href="#me7759eb59d" x="47.81" y="226.30426" style="stroke: #000000; stroke-width: 0.8"/>
      </g>
     </g>
     <g id="text_11">
      <!-- 1.5 -->
      <g transform="translate(24.906875 230.103478) scale(0.1 -0.1)">
       <use xlink:href="#DejaVuSans-31"/>
       <use xlink:href="#DejaVuSans-2e" x="63.623047"/>
       <use xlink:href="#DejaVuSans-35" x="95.410156"/>
      </g>
     </g>
    </g>
    <g id="ytick_5">
     <g id="line2d_11">
      <g>
       <use xlink:href="#me7759eb59d" x="47.81" y="133.033375" style="stroke: #000000; stroke-width: 0.8"/>
      </g>
     </g>
     <g id="text_12">
      <!-- 2.0 -->
      <g transform="translate(24.906875 136.832593) scale(0.1 -0.1)">
       <use xlink:href="#DejaVuSans-32"/>
       <use xlink:href="#DejaVuSans-2e" x="63.623047"/>
       <use xlink:href="#DejaVuSans-30" x="95.410156"/>
      </g>
     </g>
    </g>
    <g id="ytick_6">
     <g id="line2d_12">
      <g>
       <use xlink:href="#me7759eb59d" x="47.81" y="39.76249" style="stroke: #000000; stroke-width: 0.8"/>
      </g>
     </g>
     <g id="text_13">
      <!-- 2.5 -->
      <g transform="translate(24.906875 43.561709) scale(0.1 -0.1)">
       <use xlink:href="#DejaVuSans-32"/>
       <use xlink:href="#DejaVuSans-2e" x="63.623047"/>
       <use xlink:href="#DejaVuSans-35" x="95.410156"/>
      </g>
     </g>
    </g>
    <g id="text_14">
     <!-- Force Errors -->
     <g transform="translate(18.827187 309.641563) rotate(-90) scale(0.1 -0.1)">
      <defs>
       <path id="DejaVuSans-46" d="M 628 4666 
L 3309 4666 
L 3309 4134 
L 1259 4134 
L 1259 2759 
L 3109 2759 
L 3109 2228 
L 1259 2228 
L 1259 0 
L 628 0 
L 628 4666 
z
" transform="scale(0.015625)"/>
       <path id="DejaVuSans-6f" d="M 1959 3097 
Q 1497 3097 1228 2736 
Q 959 2375 959 1747 
Q 959 1119 1226 758 
Q 1494 397 1959 397 
Q 2419 397 2687 759 
Q 2956 1122 2956 1747 
Q 2956 2369 2687 2733 
Q 2419 3097 1959 3097 
z
M 1959 3584 
Q 2709 3584 3137 3096 
Q 3566 2609 3566 1747 
Q 3566 888 3137 398 
Q 2709 -91 1959 -91 
Q 1206 -91 779 398 
Q 353 888 353 1747 
Q 353 2609 779 3096 
Q 1206 3584 1959 3584 
z
" transform="scale(0.015625)"/>
       <path id="DejaVuSans-20" transform="scale(0.015625)"/>
       <path id="DejaVuSans-45" d="M 628 4666 
L 3578 4666 
L 3578 4134 
L 1259 4134 
L 1259 2753 
L 3481 2753 
L 3481 2222 
L 1259 2222 
L 1259 531 
L 3634 531 
L 3634 0 
L 628 0 
L 628 4666 
z
" transform="scale(0.015625)"/>
      </defs>
      <use xlink:href="#DejaVuSans-46"/>
      <use xlink:href="#DejaVuSans-6f" x="53.894531"/>
      <use xlink:href="#DejaVuSans-72" x="115.076172"/>
      <use xlink:href="#DejaVuSans-63" x="153.939453"/>
      <use xlink:href="#DejaVuSans-65" x="208.919922"/>
      <use xlink:href="#DejaVuSans-20" x="270.443359"/>
      <use xlink:href="#DejaVuSans-45" x="302.230469"/>
      <use xlink:href="#DejaVuSans-72" x="365.414062"/>
      <use xlink:href="#DejaVuSans-72" x="404.777344"/>
      <use xlink:href="#DejaVuSans-6f" x="443.640625"/>
      <use xlink:href="#DejaVuSans-72" x="504.822266"/>
      <use xlink:href="#DejaVuSans-73" x="545.935547"/>
     </g>
    </g>
   </g>
   <g id="line2d_13">
    <path d="M 149.166665 486.527579 
L 679.136818 305.189431 
L 77.873182 510.921818 
L 183.906618 474.640739 
" clip-path="url(#padcbd2fcc5)" style="fill: none; stroke: #ff0000; stroke-width: 1.5; stroke-linecap: square"/>
   </g>
   <g id="patch_3">
    <path d="M 47.81 534.04 
L 47.81 25.44 
" style="fill: none; stroke: #000000; stroke-width: 0.8; stroke-linejoin: miter; stroke-linecap: square"/>
   </g>
   <g id="patch_4">
    <path d="M 709.2 534.04 
L 709.2 25.44 
" style="fill: none; stroke: #000000; stroke-width: 0.8; stroke-linejoin: miter; stroke-linecap: square"/>
   </g>
   <g id="patch_5">
    <path d="M 47.81 534.04 
L 709.2 534.04 
" style="fill: none; stroke: #000000; stroke-width: 0.8; stroke-linejoin: miter; stroke-linecap: square"/>
   </g>
   <g id="patch_6">
    <path d="M 47.81 25.44 
L 709.2 25.44 
" style="fill: none; stroke: #000000; stroke-width: 0.8; stroke-linejoin: miter; stroke-linecap: square"/>
   </g>
   <g id="text_15">
    <!-- Uncertainty Calibration -->
    <g transform="translate(308.899375 19.44) scale(0.12 -0.12)">
     <defs>
      <path id="DejaVuSans-79" d="M 2059 -325 
Q 1816 -950 1584 -1140 
Q 1353 -1331 966 -1331 
L 506 -1331 
L 506 -850 
L 844 -850 
Q 1081 -850 1212 -737 
Q 1344 -625 1503 -206 
L 1606 56 
L 191 3500 
L 800 3500 
L 1894 763 
L 2988 3500 
L 3597 3500 
L 2059 -325 
z
" transform="scale(0.015625)"/>
      <path id="DejaVuSans-43" d="M 4122 4306 
L 4122 3641 
Q 3803 3938 3442 4084 
Q 3081 4231 2675 4231 
Q 1875 4231 1450 3742 
Q 1025 3253 1025 2328 
Q 1025 1406 1450 917 
Q 1875 428 2675 428 
Q 3081 428 3442 575 
Q 3803 722 4122 1019 
L 4122 359 
Q 3791 134 3420 21 
Q 3050 -91 2638 -91 
Q 1578 -91 968 557 
Q 359 1206 359 2328 
Q 359 3453 968 4101 
Q 1578 4750 2638 4750 
Q 3056 4750 3426 4639 
Q 3797 4528 4122 4306 
z
" transform="scale(0.015625)"/>
      <path id="DejaVuSans-6c" d="M 603 4863 
L 1178 4863 
L 1178 0 
L 603 0 
L 603 4863 
z
" transform="scale(0.015625)"/>
      <path id="DejaVuSans-62" d="M 3116 1747 
Q 3116 2381 2855 2742 
Q 2594 3103 2138 3103 
Q 1681 3103 1420 2742 
Q 1159 2381 1159 1747 
Q 1159 1113 1420 752 
Q 1681 391 2138 391 
Q 2594 391 2855 752 
Q 3116 1113 3116 1747 
z
M 1159 2969 
Q 1341 3281 1617 3432 
Q 1894 3584 2278 3584 
Q 2916 3584 3314 3078 
Q 3713 2572 3713 1747 
Q 3713 922 3314 415 
Q 2916 -91 2278 -91 
Q 1894 -91 1617 61 
Q 1341 213 1159 525 
L 1159 0 
L 581 0 
L 581 4863 
L 1159 4863 
L 1159 2969 
z
" transform="scale(0.015625)"/>
     </defs>
     <use xlink:href="#DejaVuSans-55"/>
     <use xlink:href="#DejaVuSans-6e" x="73.193359"/>
     <use xlink:href="#DejaVuSans-63" x="136.572266"/>
     <use xlink:href="#DejaVuSans-65" x="191.552734"/>
     <use xlink:href="#DejaVuSans-72" x="253.076172"/>
     <use xlink:href="#DejaVuSans-74" x="294.189453"/>
     <use xlink:href="#DejaVuSans-61" x="333.398438"/>
     <use xlink:href="#DejaVuSans-69" x="394.677734"/>
     <use xlink:href="#DejaVuSans-6e" x="422.460938"/>
     <use xlink:href="#DejaVuSans-74" x="485.839844"/>
     <use xlink:href="#DejaVuSans-79" x="525.048828"/>
     <use xlink:href="#DejaVuSans-20" x="584.228516"/>
     <use xlink:href="#DejaVuSans-43" x="616.015625"/>
     <use xlink:href="#DejaVuSans-61" x="685.839844"/>
     <use xlink:href="#DejaVuSans-6c" x="747.119141"/>
     <use xlink:href="#DejaVuSans-69" x="774.902344"/>
     <use xlink:href="#DejaVuSans-62" x="802.685547"/>
     <use xlink:href="#DejaVuSans-72" x="866.162109"/>
     <use xlink:href="#DejaVuSans-61" x="907.275391"/>
     <use xlink:href="#DejaVuSans-74" x="968.554688"/>
     <use xlink:href="#DejaVuSans-69" x="1007.763672"/>
     <use xlink:href="#DejaVuSans-6f" x="1035.546875"/>
     <use xlink:href="#DejaVuSans-6e" x="1096.728516"/>
    </g>
   </g>
   <g id="legend_1">
    <g id="patch_7">
     <path d="M 54.81 62.79625 
L 165.520938 62.79625 
Q 167.520938 62.79625 167.520938 60.79625 
L 167.520938 32.44 
Q 167.520938 30.44 165.520938 30.44 
L 54.81 30.44 
Q 52.81 30.44 52.81 32.44 
L 52.81 60.79625 
Q 52.81 62.79625 54.81 62.79625 
z
" style="fill: #ffffff; opacity: 0.8; stroke: #cccccc; stroke-linejoin: miter"/>
    </g>
    <g id="PathCollection_2">
     <g>
      <use xlink:href="#m7ca6607197" x="66.81" y="39.413437" style="fill: #1f77b4; stroke: #1f77b4"/>
     </g>
    </g>
    <g id="text_16">
     <!-- Data -->
     <g transform="translate(84.81 42.038437) scale(0.1 -0.1)">
      <defs>
       <path id="DejaVuSans-44" d="M 1259 4147 
L 1259 519 
L 2022 519 
Q 2988 519 3436 956 
Q 3884 1394 3884 2338 
Q 3884 3275 3436 3711 
Q 2988 4147 2022 4147 
L 1259 4147 
z
M 628 4666 
L 1925 4666 
Q 3281 4666 3915 4102 
Q 4550 3538 4550 2338 
Q 4550 1131 3912 565 
Q 3275 0 1925 0 
L 628 0 
L 628 4666 
z
" transform="scale(0.015625)"/>
      </defs>
      <use xlink:href="#DejaVuSans-44"/>
      <use xlink:href="#DejaVuSans-61" x="77.001953"/>
      <use xlink:href="#DejaVuSans-74" x="138.28125"/>
      <use xlink:href="#DejaVuSans-61" x="177.490234"/>
     </g>
    </g>
    <g id="line2d_14">
     <path d="M 56.81 53.216563 
L 66.81 53.216563 
L 76.81 53.216563 
" style="fill: none; stroke: #ff0000; stroke-width: 1.5; stroke-linecap: square"/>
    </g>
    <g id="text_17">
     <!-- Regression Line -->
     <g transform="translate(84.81 56.716563) scale(0.1 -0.1)">
      <defs>
       <path id="DejaVuSans-52" d="M 2841 2188 
Q 3044 2119 3236 1894 
Q 3428 1669 3622 1275 
L 4263 0 
L 3584 0 
L 2988 1197 
Q 2756 1666 2539 1819 
Q 2322 1972 1947 1972 
L 1259 1972 
L 1259 0 
L 628 0 
L 628 4666 
L 2053 4666 
Q 2853 4666 3247 4331 
Q 3641 3997 3641 3322 
Q 3641 2881 3436 2590 
Q 3231 2300 2841 2188 
z
M 1259 4147 
L 1259 2491 
L 2053 2491 
Q 2509 2491 2742 2702 
Q 2975 2913 2975 3322 
Q 2975 3731 2742 3939 
Q 2509 4147 2053 4147 
L 1259 4147 
z
" transform="scale(0.015625)"/>
       <path id="DejaVuSans-67" d="M 2906 1791 
Q 2906 2416 2648 2759 
Q 2391 3103 1925 3103 
Q 1463 3103 1205 2759 
Q 947 2416 947 1791 
Q 947 1169 1205 825 
Q 1463 481 1925 481 
Q 2391 481 2648 825 
Q 2906 1169 2906 1791 
z
M 3481 434 
Q 3481 -459 3084 -895 
Q 2688 -1331 1869 -1331 
Q 1566 -1331 1297 -1286 
Q 1028 -1241 775 -1147 
L 775 -588 
Q 1028 -725 1275 -790 
Q 1522 -856 1778 -856 
Q 2344 -856 2625 -561 
Q 2906 -266 2906 331 
L 2906 616 
Q 2728 306 2450 153 
Q 2172 0 1784 0 
Q 1141 0 747 490 
Q 353 981 353 1791 
Q 353 2603 747 3093 
Q 1141 3584 1784 3584 
Q 2172 3584 2450 3431 
Q 2728 3278 2906 2969 
L 2906 3500 
L 3481 3500 
L 3481 434 
z
" transform="scale(0.015625)"/>
       <path id="DejaVuSans-4c" d="M 628 4666 
L 1259 4666 
L 1259 531 
L 3531 531 
L 3531 0 
L 628 0 
L 628 4666 
z
" transform="scale(0.015625)"/>
      </defs>
      <use xlink:href="#DejaVuSans-52"/>
      <use xlink:href="#DejaVuSans-65" x="64.982422"/>
      <use xlink:href="#DejaVuSans-67" x="126.505859"/>
      <use xlink:href="#DejaVuSans-72" x="189.982422"/>
      <use xlink:href="#DejaVuSans-65" x="228.845703"/>
      <use xlink:href="#DejaVuSans-73" x="290.369141"/>
      <use xlink:href="#DejaVuSans-73" x="342.46875"/>
      <use xlink:href="#DejaVuSans-69" x="394.568359"/>
      <use xlink:href="#DejaVuSans-6f" x="422.351562"/>
      <use xlink:href="#DejaVuSans-6e" x="483.533203"/>
      <use xlink:href="#DejaVuSans-20" x="546.912109"/>
      <use xlink:href="#DejaVuSans-4c" x="578.699219"/>
      <use xlink:href="#DejaVuSans-69" x="634.412109"/>
      <use xlink:href="#DejaVuSans-6e" x="662.195312"/>
      <use xlink:href="#DejaVuSans-65" x="725.574219"/>
     </g>
    </g>
   </g>
  </g>
 </g>
 <defs>
  <clipPath id="padcbd2fcc5">
   <rect x="47.81" y="25.44" width="661.39" height="508.6"/>
  </clipPath>
 </defs>
</svg>
