<?xml version="1.0" encoding="utf-8" standalone="no"?>
<!DOCTYPE svg PUBLIC "-//W3C//DTD SVG 1.1//EN"
  "http://www.w3.org/Graphics/SVG/1.1/DTD/svg11.dtd">
<svg xmlns:xlink="http://www.w3.org/1999/xlink" width="720pt" height="576pt" viewBox="0 0 720 576" xmlns="http://www.w3.org/2000/svg" version="1.1">
 <metadata>
  <rdf:RDF xmlns:dc="http://purl.org/dc/elements/1.1/" xmlns:cc="http://creativecommons.org/ns#" xmlns:rdf="http://www.w3.org/1999/02/22-rdf-syntax-ns#">
   <cc:Work>
    <dc:type rdf:resource="http://purl.org/dc/dcmitype/StillImage"/>
    <dc:date>2024-12-01T15:34:06.716053</dc:date>
    <dc:format>image/svg+xml</dc:format>
    <dc:creator>
     <cc:Agent>
      <dc:title>Matplotlib v3.8.4, https://matplotlib.org/</dc:title>
     </cc:Agent>
    </dc:creator>
   </cc:Work>
  </rdf:RDF>
 </metadata>
 <defs>
  <style type="text/css">*{stroke-linejoin: round; stroke-linecap: butt}</style>
 </defs>
 <g id="figure_1">
  <g id="patch_1">
   <path d="M 0 576 
L 720 576 
L 720 0 
L 0 0 
z
" style="fill: #ffffff"/>
  </g>
  <g id="axes_1">
   <g id="patch_2">
    <path d="M 51.05 534.04 
L 709.2 534.04 
L 709.2 25.44 
L 51.05 25.44 
z
" style="fill: #ffffff"/>
   </g>
   <g id="QuadContourSet_1">
    <path d="M 59.993307 530.74422 
L 61.096396 530.793647 
L 62.199485 530.78309 
L 63.064339 530.734759 
L 63.302575 530.726383 
L 64.405664 530.657949 
L 65.508753 530.554768 
L 66.611842 530.404868 
L 67.714932 530.191352 
L 68.818021 529.888704 
L 69.375519 529.685542 
L 69.92111 529.553257 
L 71.024199 529.21456 
L 72.127289 528.742805 
L 72.343654 528.636326 
L 73.230378 528.332372 
L 74.333467 527.834924 
L 74.807083 527.587109 
L 75.436556 527.348195 
L 76.539646 526.848996 
L 77.151213 526.537892 
L 77.642735 526.349797 
L 78.745824 525.9059 
L 79.682179 525.488675 
L 79.848914 525.431069 
L 80.952003 525.105157 
L 82.055092 524.754721 
L 82.997836 524.439458 
L 83.158181 524.397373 
L 84.261271 524.082891 
L 85.36436 523.682209 
L 86.014493 523.390241 
L 86.467449 523.224644 
L 87.570538 522.747576 
L 88.337654 522.341024 
L 88.673628 522.189002 
L 89.776717 521.63292 
L 90.367297 521.291807 
L 90.879806 521.026412 
L 91.982895 520.384661 
L 92.224097 520.24259 
L 93.085985 519.764111 
L 93.993136 519.193373 
L 94.189074 519.072112 
L 95.292163 518.396629 
L 95.698821 518.144156 
L 96.395252 517.691978 
L 97.25895 517.094939 
L 97.498342 516.913617 
L 98.601431 516.045722 
L 98.601431 516.045722 
L 99.70452 515.057228 
L 99.77063 514.996505 
L 100.70019 513.947288 
L 100.807609 513.799447 
L 101.476442 512.898071 
L 101.910699 512.136392 
L 102.080969 511.848854 
L 102.668188 510.799637 
L 103.013788 510.062551 
L 103.173549 509.75042 
L 103.647262 508.701203 
L 104.009361 507.651987 
L 104.116877 507.18352 
L 104.273985 506.60277 
L 104.425635 505.553553 
L 104.539011 504.504336 
L 104.717716 503.455119 
L 104.996055 502.405902 
L 105.219966 501.762986 
L 105.373902 501.356685 
L 105.726048 500.307468 
L 105.941233 499.258251 
L 105.219966 498.868191 
L 104.221048 499.258251 
L 104.116877 499.288423 
L 103.013788 499.83802 
L 102.001132 500.307468 
L 101.910699 500.341623 
L 100.807609 500.770185 
L 99.70452 501.109986 
L 98.601431 501.321477 
L 97.498342 501.271517 
L 96.395252 500.790332 
L 95.838298 500.307468 
L 95.292163 499.355132 
L 95.243095 499.258251 
L 94.88478 498.209034 
L 94.189074 497.489035 
L 93.085985 497.364542 
L 91.982895 497.458254 
L 90.879806 497.599706 
L 89.776717 497.764502 
L 88.673628 497.956875 
L 87.570538 498.187832 
L 87.479642 498.209034 
L 86.467449 498.372998 
L 85.36436 498.575362 
L 84.261271 498.81443 
L 83.158181 499.101371 
L 82.62415 499.258251 
L 82.055092 499.377402 
L 80.952003 499.647971 
L 79.848914 499.985668 
L 78.993609 500.307468 
L 78.745824 500.376641 
L 77.642735 500.725908 
L 76.539646 501.173931 
L 76.15332 501.356685 
L 75.436556 501.610664 
L 74.333467 502.083443 
L 73.733402 502.405902 
L 73.230378 502.608953 
L 72.127289 503.137684 
L 71.617064 503.455119 
L 71.024199 503.728659 
L 69.92111 504.468422 
L 69.874945 504.504336 
L 68.818021 505.085919 
L 68.259804 505.553553 
L 67.714932 505.903042 
L 66.911957 506.60277 
L 66.611842 506.816152 
L 65.677874 507.651987 
L 65.508753 507.782362 
L 64.504916 508.701203 
L 64.405664 508.783331 
L 63.372474 509.75042 
L 63.302575 509.812241 
L 62.272638 510.799637 
L 62.199485 510.868702 
L 61.203567 511.848854 
L 61.096396 511.956898 
L 60.167137 512.898071 
L 59.993307 513.085407 
L 59.168382 513.947288 
L 58.890218 514.268218 
L 58.215978 514.996505 
L 57.787128 515.527082 
L 57.323622 516.045722 
L 56.684039 516.895749 
L 56.512508 517.094939 
L 55.722352 518.144156 
L 55.58095 518.369044 
L 54.95579 519.193373 
L 54.477861 520.025842 
L 54.3224 520.24259 
L 53.710428 521.291807 
L 53.374771 522.089925 
L 53.235225 522.341024 
L 52.831654 523.390241 
L 52.615061 524.439458 
L 52.602261 525.488675 
L 52.853543 526.537892 
L 53.374771 527.524573 
L 53.406588 527.587109 
L 54.151181 528.636326 
L 54.477861 528.960318 
L 55.448666 529.685542 
L 55.58095 529.762671 
L 56.684039 530.232705 
L 57.787128 530.500814 
L 58.890218 530.656667 
L 59.90134 530.734759 
z
M 60.627686 526.537892 
L 59.993307 526.227021 
L 59.106401 525.488675 
L 58.890218 525.159037 
L 58.488691 524.439458 
L 58.201178 523.390241 
L 58.103701 522.341024 
L 58.170288 521.291807 
L 58.413183 520.24259 
L 58.837114 519.193373 
L 58.890218 519.101332 
L 59.368151 518.144156 
L 59.993307 517.198271 
L 60.054537 517.094939 
L 60.812489 516.045722 
L 61.096396 515.711811 
L 61.673211 514.996505 
L 62.199485 514.424475 
L 62.62999 513.947288 
L 63.302575 513.268944 
L 63.675159 512.898071 
L 64.405664 512.212134 
L 64.810413 511.848854 
L 65.508753 511.236587 
L 66.04672 510.799637 
L 66.611842 510.335832 
L 67.405732 509.75042 
L 67.714932 509.512325 
L 68.818021 508.760978 
L 68.915016 508.701203 
L 69.92111 508.032761 
L 70.603452 507.651987 
L 71.024199 507.390956 
L 72.127289 506.799686 
L 72.553657 506.60277 
L 73.230378 506.2442 
L 74.333467 505.746792 
L 74.825861 505.553553 
L 75.436556 505.269008 
L 76.539646 504.815429 
L 77.447617 504.504336 
L 77.642735 504.42202 
L 78.745824 503.983684 
L 79.848914 503.629449 
L 80.481468 503.455119 
L 80.952003 503.288527 
L 82.055092 502.96085 
L 83.158181 502.710261 
L 84.261271 502.527193 
L 85.36436 502.416668 
L 86.467449 502.405902 
L 87.570538 502.556552 
L 88.673628 502.974655 
L 89.390145 503.455119 
L 89.776717 503.765089 
L 90.549896 504.504336 
L 90.879806 504.864725 
L 91.515564 505.553553 
L 91.982895 506.170898 
L 92.364965 506.60277 
L 93.085985 507.564989 
L 93.17811 507.651987 
L 94.020777 508.701203 
L 94.189074 509.165854 
L 94.384352 509.75042 
L 94.297108 510.799637 
L 94.189074 511.080496 
L 93.920219 511.848854 
L 93.318247 512.898071 
L 93.085985 513.197515 
L 92.516982 513.947288 
L 91.982895 514.505219 
L 91.507995 514.996505 
L 90.879806 515.542601 
L 90.276866 516.045722 
L 89.776717 516.415541 
L 88.789874 517.094939 
L 88.673628 517.169456 
L 87.570538 517.864321 
L 87.107937 518.144156 
L 86.467449 518.515187 
L 85.36436 519.12372 
L 85.248326 519.193373 
L 84.261271 519.77905 
L 83.415785 520.24259 
L 83.158181 520.388817 
L 82.055092 521.039169 
L 81.604597 521.291807 
L 80.952003 521.685105 
L 79.848914 522.279959 
L 79.735402 522.341024 
L 78.745824 522.937421 
L 77.833438 523.390241 
L 77.642735 523.500911 
L 76.539646 524.097776 
L 75.760605 524.439458 
L 75.436556 524.612933 
L 74.333467 525.123958 
L 73.320595 525.488675 
L 73.230378 525.53009 
L 72.127289 525.958951 
L 71.024199 526.280188 
L 69.92111 526.522939 
L 69.833251 526.537892 
L 68.818021 526.768536 
L 67.714932 526.9513 
L 66.611842 527.079948 
L 65.508753 527.159008 
L 64.405664 527.183268 
L 63.302575 527.138008 
L 62.199485 526.998515 
L 61.096396 526.723169 
z
M 68.818021 500.918589 
L 69.703411 500.307468 
L 68.818021 499.950087 
L 68.409266 500.307468 
z
M 69.92111 499.816427 
L 70.098523 499.258251 
L 69.92111 499.186771 
L 69.78194 499.258251 
z
" clip-path="url(#pdd37b36315)" style="fill: #e6e6f3"/>
    <path d="M 61.096396 526.723169 
L 62.199485 526.998515 
L 63.302575 527.138008 
L 64.405664 527.183268 
L 65.508753 527.159008 
L 66.611842 527.079948 
L 67.714932 526.9513 
L 68.818021 526.768536 
L 69.833251 526.537892 
L 69.92111 526.522939 
L 71.024199 526.280188 
L 72.127289 525.958951 
L 73.230378 525.53009 
L 73.320595 525.488675 
L 74.333467 525.123958 
L 75.436556 524.612933 
L 75.760605 524.439458 
L 76.539646 524.097776 
L 77.642735 523.500911 
L 77.833438 523.390241 
L 78.745824 522.937421 
L 79.735402 522.341024 
L 79.848914 522.279959 
L 80.952003 521.685105 
L 81.604597 521.291807 
L 82.055092 521.039169 
L 83.158181 520.388817 
L 83.415785 520.24259 
L 84.261271 519.77905 
L 85.248326 519.193373 
L 85.36436 519.12372 
L 86.467449 518.515187 
L 87.107937 518.144156 
L 87.570538 517.864321 
L 88.673628 517.169456 
L 88.789874 517.094939 
L 89.776717 516.415541 
L 90.276866 516.045722 
L 90.879806 515.542601 
L 91.507995 514.996505 
L 91.982895 514.505219 
L 92.516982 513.947288 
L 93.085985 513.197515 
L 93.318247 512.898071 
L 93.920219 511.848854 
L 94.189074 511.080496 
L 94.297108 510.799637 
L 94.384352 509.75042 
L 94.189074 509.165854 
L 94.020777 508.701203 
L 93.17811 507.651987 
L 93.085985 507.564989 
L 92.364965 506.60277 
L 91.982895 506.170898 
L 91.515564 505.553553 
L 90.879806 504.864725 
L 90.549896 504.504336 
L 89.776717 503.765089 
L 89.390145 503.455119 
L 88.673628 502.974655 
L 87.570538 502.556552 
L 86.467449 502.405902 
L 85.36436 502.416668 
L 84.261271 502.527193 
L 83.158181 502.710261 
L 82.055092 502.96085 
L 80.952003 503.288527 
L 80.481468 503.455119 
L 79.848914 503.629449 
L 78.745824 503.983684 
L 77.642735 504.42202 
L 77.447617 504.504336 
L 76.539646 504.815429 
L 75.436556 505.269008 
L 74.825861 505.553553 
L 74.333467 505.746792 
L 73.230378 506.2442 
L 72.553657 506.60277 
L 72.127289 506.799686 
L 71.024199 507.390956 
L 70.603452 507.651987 
L 69.92111 508.032761 
L 68.915016 508.701203 
L 68.818021 508.760978 
L 67.714932 509.512325 
L 67.405732 509.75042 
L 66.611842 510.335832 
L 66.04672 510.799637 
L 65.508753 511.236587 
L 64.810413 511.848854 
L 64.405664 512.212134 
L 63.675159 512.898071 
L 63.302575 513.268944 
L 62.62999 513.947288 
L 62.199485 514.424475 
L 61.673211 514.996505 
L 61.096396 515.711811 
L 60.812489 516.045722 
L 60.054537 517.094939 
L 59.993307 517.198271 
L 59.368151 518.144156 
L 58.890218 519.101332 
L 58.837114 519.193373 
L 58.413183 520.24259 
L 58.170288 521.291807 
L 58.103701 522.341024 
L 58.201178 523.390241 
L 58.488691 524.439458 
L 58.890218 525.159037 
L 59.106401 525.488675 
L 59.993307 526.227021 
L 60.627686 526.537892 
z
M 61.969353 524.439458 
L 61.096396 523.39053 
L 61.096218 523.390241 
L 60.794588 522.341024 
L 60.769359 521.291807 
L 60.931112 520.24259 
L 61.096396 519.709182 
L 61.231928 519.193373 
L 61.663483 518.144156 
L 62.199485 517.221788 
L 62.266424 517.094939 
L 62.975992 516.045722 
L 63.302575 515.648422 
L 63.821974 514.996505 
L 64.405664 514.368813 
L 64.798643 513.947288 
L 65.508753 513.264413 
L 65.903485 512.898071 
L 66.611842 512.28338 
L 67.147563 511.848854 
L 67.714932 511.401312 
L 68.556557 510.799637 
L 68.818021 510.611019 
L 69.92111 509.884631 
L 70.14456 509.75042 
L 71.024199 509.19695 
L 71.950845 508.701203 
L 72.127289 508.598882 
L 73.230378 507.994856 
L 73.96953 507.651987 
L 74.333467 507.46174 
L 75.436556 506.932035 
L 76.251005 506.60277 
L 76.539646 506.466116 
L 77.642735 505.991512 
L 78.745824 505.608892 
L 78.928601 505.553553 
L 79.848914 505.213973 
L 80.952003 504.897332 
L 82.055092 504.660896 
L 83.158181 504.504336 
L 83.158181 504.504336 
L 84.261271 504.444259 
L 84.879559 504.504336 
L 85.36436 504.555317 
L 86.467449 504.917007 
L 87.449098 505.553553 
L 87.570538 505.655774 
L 88.477736 506.60277 
L 88.673628 506.885321 
L 89.180427 507.651987 
L 89.591096 508.701203 
L 89.75668 509.75042 
L 89.729885 510.799637 
L 89.512945 511.848854 
L 89.050924 512.898071 
L 88.673628 513.432248 
L 88.362114 513.947288 
L 87.570538 514.84399 
L 87.4508 514.996505 
L 86.467449 515.950401 
L 86.376665 516.045722 
L 85.36436 516.920833 
L 85.171009 517.094939 
L 84.261271 517.813941 
L 83.844344 518.144156 
L 83.158181 518.648586 
L 82.389352 519.193373 
L 82.055092 519.424715 
L 80.952003 520.15553 
L 80.817318 520.24259 
L 79.848914 520.884088 
L 79.148841 521.291807 
L 78.745824 521.54354 
L 77.642735 522.160332 
L 77.277852 522.341024 
L 76.539646 522.751184 
L 75.436556 523.25731 
L 75.09769 523.390241 
L 74.333467 523.741726 
L 73.230378 524.146831 
L 72.2166 524.439458 
L 72.127289 524.47102 
L 71.024199 524.783969 
L 69.92111 525.020736 
L 68.818021 525.197519 
L 67.714932 525.322808 
L 66.611842 525.395516 
L 65.508753 525.401798 
L 64.405664 525.31254 
L 63.302575 525.076492 
L 62.199485 524.594158 
z
" clip-path="url(#pdd37b36315)" style="fill: #d0d0f4"/>
    <path d="M 62.199485 524.594158 
L 63.302575 525.076492 
L 64.405664 525.31254 
L 65.508753 525.401798 
L 66.611842 525.395516 
L 67.714932 525.322808 
L 68.818021 525.197519 
L 69.92111 525.020736 
L 71.024199 524.783969 
L 72.127289 524.47102 
L 72.2166 524.439458 
L 73.230378 524.146831 
L 74.333467 523.741726 
L 75.09769 523.390241 
L 75.436556 523.25731 
L 76.539646 522.751184 
L 77.277852 522.341024 
L 77.642735 522.160332 
L 78.745824 521.54354 
L 79.148841 521.291807 
L 79.848914 520.884088 
L 80.817318 520.24259 
L 80.952003 520.15553 
L 82.055092 519.424715 
L 82.389352 519.193373 
L 83.158181 518.648586 
L 83.844344 518.144156 
L 84.261271 517.813941 
L 85.171009 517.094939 
L 85.36436 516.920833 
L 86.376665 516.045722 
L 86.467449 515.950401 
L 87.4508 514.996505 
L 87.570538 514.84399 
L 88.362114 513.947288 
L 88.673628 513.432248 
L 89.050924 512.898071 
L 89.512945 511.848854 
L 89.729885 510.799637 
L 89.75668 509.75042 
L 89.591096 508.701203 
L 89.180427 507.651987 
L 88.673628 506.885321 
L 88.477736 506.60277 
L 87.570538 505.655774 
L 87.449098 505.553553 
L 86.467449 504.917007 
L 85.36436 504.555317 
L 84.879559 504.504336 
L 84.261271 504.444259 
L 83.158181 504.504336 
L 83.158181 504.504336 
L 82.055092 504.660896 
L 80.952003 504.897332 
L 79.848914 505.213973 
L 78.928601 505.553553 
L 78.745824 505.608892 
L 77.642735 505.991512 
L 76.539646 506.466116 
L 76.251005 506.60277 
L 75.436556 506.932035 
L 74.333467 507.46174 
L 73.96953 507.651987 
L 73.230378 507.994856 
L 72.127289 508.598882 
L 71.950845 508.701203 
L 71.024199 509.19695 
L 70.14456 509.75042 
L 69.92111 509.884631 
L 68.818021 510.611019 
L 68.556557 510.799637 
L 67.714932 511.401312 
L 67.147563 511.848854 
L 66.611842 512.28338 
L 65.903485 512.898071 
L 65.508753 513.264413 
L 64.798643 513.947288 
L 64.405664 514.368813 
L 63.821974 514.996505 
L 63.302575 515.648422 
L 62.975992 516.045722 
L 62.266424 517.094939 
L 62.199485 517.221788 
L 61.663483 518.144156 
L 61.231928 519.193373 
L 61.096396 519.709182 
L 60.931112 520.24259 
L 60.769359 521.291807 
L 60.794588 522.341024 
L 61.096218 523.390241 
L 61.096396 523.39053 
L 61.969353 524.439458 
z
M 64.376149 523.390241 
L 63.302575 522.454014 
L 63.220181 522.341024 
L 62.911461 521.291807 
L 62.957377 520.24259 
L 63.237321 519.193373 
L 63.302575 519.04517 
L 63.652298 518.144156 
L 64.244325 517.094939 
L 64.405664 516.867438 
L 64.954925 516.045722 
L 65.508753 515.38719 
L 65.829289 514.996505 
L 66.611842 514.191796 
L 66.851797 513.947288 
L 67.714932 513.165332 
L 68.022695 512.898071 
L 68.818021 512.254265 
L 69.357745 511.848854 
L 69.92111 511.436871 
L 70.890349 510.799637 
L 71.024199 510.710438 
L 72.127289 510.009933 
L 72.587272 509.75042 
L 73.230378 509.366654 
L 74.333467 508.795543 
L 74.531246 508.701203 
L 75.436556 508.225767 
L 76.539646 507.745797 
L 76.783676 507.651987 
L 77.642735 507.274614 
L 78.745824 506.883841 
L 79.740331 506.60277 
L 79.848914 506.566449 
L 80.952003 506.300502 
L 82.055092 506.152677 
L 83.158181 506.150493 
L 84.261271 506.361208 
L 84.819949 506.60277 
L 85.36436 506.922613 
L 86.163124 507.651987 
L 86.467449 508.076334 
L 86.859521 508.701203 
L 87.206038 509.75042 
L 87.260216 510.799637 
L 87.071307 511.848854 
L 86.647698 512.898071 
L 86.467449 513.184343 
L 86.046333 513.947288 
L 85.36436 514.816072 
L 85.23515 514.996505 
L 84.261271 516.045722 
L 84.261271 516.045722 
L 83.158181 517.083713 
L 83.1464 517.094939 
L 82.055092 518.011151 
L 81.892354 518.144156 
L 80.952003 518.859042 
L 80.482055 519.193373 
L 79.848914 519.633925 
L 78.876475 520.24259 
L 78.745824 520.326461 
L 77.642735 520.97785 
L 77.025332 521.291807 
L 76.539646 521.556878 
L 75.436556 522.068832 
L 74.730205 522.341024 
L 74.333467 522.512433 
L 73.230378 522.903715 
L 72.127289 523.212345 
L 71.323196 523.390241 
L 71.024199 523.467683 
L 69.92111 523.689314 
L 68.818021 523.843629 
L 67.714932 523.924599 
L 66.611842 523.911945 
L 65.508753 523.764494 
L 64.405664 523.405467 
z
" clip-path="url(#pdd37b36315)" style="fill: #b8b8f6"/>
    <path d="M 64.405664 523.405467 
L 65.508753 523.764494 
L 66.611842 523.911945 
L 67.714932 523.924599 
L 68.818021 523.843629 
L 69.92111 523.689314 
L 71.024199 523.467683 
L 71.323196 523.390241 
L 72.127289 523.212345 
L 73.230378 522.903715 
L 74.333467 522.512433 
L 74.730205 522.341024 
L 75.436556 522.068832 
L 76.539646 521.556878 
L 77.025332 521.291807 
L 77.642735 520.97785 
L 78.745824 520.326461 
L 78.876475 520.24259 
L 79.848914 519.633925 
L 80.482055 519.193373 
L 80.952003 518.859042 
L 81.892354 518.144156 
L 82.055092 518.011151 
L 83.1464 517.094939 
L 83.158181 517.083713 
L 84.261271 516.045722 
L 84.261271 516.045722 
L 85.23515 514.996505 
L 85.36436 514.816072 
L 86.046333 513.947288 
L 86.467449 513.184343 
L 86.647698 512.898071 
L 87.071307 511.848854 
L 87.260216 510.799637 
L 87.206038 509.75042 
L 86.859521 508.701203 
L 86.467449 508.076334 
L 86.163124 507.651987 
L 85.36436 506.922613 
L 84.819949 506.60277 
L 84.261271 506.361208 
L 83.158181 506.150493 
L 82.055092 506.152677 
L 80.952003 506.300502 
L 79.848914 506.566449 
L 79.740331 506.60277 
L 78.745824 506.883841 
L 77.642735 507.274614 
L 76.783676 507.651987 
L 76.539646 507.745797 
L 75.436556 508.225767 
L 74.531246 508.701203 
L 74.333467 508.795543 
L 73.230378 509.366654 
L 72.587272 509.75042 
L 72.127289 510.009933 
L 71.024199 510.710438 
L 70.890349 510.799637 
L 69.92111 511.436871 
L 69.357745 511.848854 
L 68.818021 512.254265 
L 68.022695 512.898071 
L 67.714932 513.165332 
L 66.851797 513.947288 
L 66.611842 514.191796 
L 65.829289 514.996505 
L 65.508753 515.38719 
L 64.954925 516.045722 
L 64.405664 516.867438 
L 64.244325 517.094939 
L 63.652298 518.144156 
L 63.302575 519.04517 
L 63.237321 519.193373 
L 62.957377 520.24259 
L 62.911461 521.291807 
L 63.220181 522.341024 
L 63.302575 522.454014 
L 64.376149 523.390241 
z
M 66.029026 522.341024 
L 65.508753 522.045606 
L 64.820113 521.291807 
L 64.584892 520.24259 
L 64.733372 519.193373 
L 65.117287 518.144156 
L 65.508753 517.456645 
L 65.69772 517.094939 
L 66.433105 516.045722 
L 66.611842 515.837253 
L 67.317243 514.996505 
L 67.714932 514.596557 
L 68.368491 513.947288 
L 68.818021 513.549668 
L 69.589054 512.898071 
L 69.92111 512.635839 
L 70.998846 511.848854 
L 71.024199 511.83077 
L 72.127289 511.074272 
L 72.57573 510.799637 
L 73.230378 510.390553 
L 74.333467 509.791677 
L 74.416476 509.75042 
L 75.436556 509.212003 
L 76.539646 508.729781 
L 76.615814 508.701203 
L 77.642735 508.27642 
L 78.745824 507.92006 
L 79.848914 507.651987 
L 79.848914 507.651987 
L 80.952003 507.485822 
L 82.055092 507.486368 
L 82.855427 507.651987 
L 83.158181 507.736919 
L 84.261271 508.44771 
L 84.516239 508.701203 
L 85.152378 509.75042 
L 85.36436 510.642973 
L 85.398424 510.799637 
L 85.36436 511.348308 
L 85.337379 511.848854 
L 85.024854 512.898071 
L 84.481791 513.947288 
L 84.261271 514.24533 
L 83.743515 514.996505 
L 83.158181 515.649756 
L 82.81453 516.045722 
L 82.055092 516.769282 
L 81.710866 517.094939 
L 80.952003 517.726095 
L 80.425643 518.144156 
L 79.848914 518.569544 
L 78.927937 519.193373 
L 78.745824 519.313885 
L 77.642735 519.977159 
L 77.139306 520.24259 
L 76.539646 520.565701 
L 75.436556 521.070875 
L 74.862789 521.291807 
L 74.333467 521.509487 
L 73.230378 521.882814 
L 72.127289 522.180988 
L 71.378989 522.341024 
L 71.024199 522.42577 
L 69.92111 522.616201 
L 68.818021 522.72084 
L 67.714932 522.715264 
L 66.611842 522.547475 
z
" clip-path="url(#pdd37b36315)" style="fill: #9d9df7"/>
    <path d="M 66.611842 522.547475 
L 67.714932 522.715264 
L 68.818021 522.72084 
L 69.92111 522.616201 
L 71.024199 522.42577 
L 71.378989 522.341024 
L 72.127289 522.180988 
L 73.230378 521.882814 
L 74.333467 521.509487 
L 74.862789 521.291807 
L 75.436556 521.070875 
L 76.539646 520.565701 
L 77.139306 520.24259 
L 77.642735 519.977159 
L 78.745824 519.313885 
L 78.927937 519.193373 
L 79.848914 518.569544 
L 80.425643 518.144156 
L 80.952003 517.726095 
L 81.710866 517.094939 
L 82.055092 516.769282 
L 82.81453 516.045722 
L 83.158181 515.649756 
L 83.743515 514.996505 
L 84.261271 514.24533 
L 84.481791 513.947288 
L 85.024854 512.898071 
L 85.337379 511.848854 
L 85.36436 511.348308 
L 85.398424 510.799637 
L 85.36436 510.642973 
L 85.152378 509.75042 
L 84.516239 508.701203 
L 84.261271 508.44771 
L 83.158181 507.736919 
L 82.855427 507.651987 
L 82.055092 507.486368 
L 80.952003 507.485822 
L 79.848914 507.651987 
L 79.848914 507.651987 
L 78.745824 507.92006 
L 77.642735 508.27642 
L 76.615814 508.701203 
L 76.539646 508.729781 
L 75.436556 509.212003 
L 74.416476 509.75042 
L 74.333467 509.791677 
L 73.230378 510.390553 
L 72.57573 510.799637 
L 72.127289 511.074272 
L 71.024199 511.83077 
L 70.998846 511.848854 
L 69.92111 512.635839 
L 69.589054 512.898071 
L 68.818021 513.549668 
L 68.368491 513.947288 
L 67.714932 514.596557 
L 67.317243 514.996505 
L 66.611842 515.837253 
L 66.433105 516.045722 
L 65.69772 517.094939 
L 65.508753 517.456645 
L 65.117287 518.144156 
L 64.733372 519.193373 
L 64.584892 520.24259 
L 64.820113 521.291807 
L 65.508753 522.045606 
L 66.029026 522.341024 
z
M 67.379642 521.291807 
L 66.611842 520.722985 
L 66.275855 520.24259 
L 66.162302 519.193373 
L 66.436429 518.144156 
L 66.611842 517.812451 
L 66.962105 517.094939 
L 67.692991 516.045722 
L 67.714932 516.020398 
L 68.587462 514.996505 
L 68.818021 514.769013 
L 69.665596 513.947288 
L 69.92111 513.727005 
L 70.933165 512.898071 
L 71.024199 512.828373 
L 72.127289 512.030788 
L 72.400979 511.848854 
L 73.230378 511.310782 
L 74.124569 510.799637 
L 74.333467 510.677872 
L 75.436556 510.110948 
L 76.263312 509.75042 
L 76.539646 509.622714 
L 77.642735 509.213963 
L 78.745824 508.907776 
L 79.848914 508.716569 
L 80.952003 508.701203 
L 82.055092 509.002225 
L 83.051829 509.75042 
L 83.158181 509.914677 
L 83.591558 510.799637 
L 83.711641 511.848854 
L 83.518339 512.898071 
L 83.158181 513.70473 
L 83.056907 513.947288 
L 82.366681 514.996505 
L 82.055092 515.353196 
L 81.456976 516.045722 
L 80.952003 516.52358 
L 80.331666 517.094939 
L 79.848914 517.482622 
L 78.969282 518.144156 
L 78.745824 518.299297 
L 77.642735 518.995766 
L 77.291435 519.193373 
L 76.539646 519.602004 
L 75.436556 520.115789 
L 75.118073 520.24259 
L 74.333467 520.558866 
L 73.230378 520.92461 
L 72.127289 521.217992 
L 71.759726 521.291807 
L 71.024199 521.448434 
L 69.92111 521.586371 
L 68.818021 521.599181 
L 67.714932 521.422025 
z
" clip-path="url(#pdd37b36315)" style="fill: #8080f8"/>
    <path d="M 67.714932 521.422025 
L 68.818021 521.599181 
L 69.92111 521.586371 
L 71.024199 521.448434 
L 71.759726 521.291807 
L 72.127289 521.217992 
L 73.230378 520.92461 
L 74.333467 520.558866 
L 75.118073 520.24259 
L 75.436556 520.115789 
L 76.539646 519.602004 
L 77.291435 519.193373 
L 77.642735 518.995766 
L 78.745824 518.299297 
L 78.969282 518.144156 
L 79.848914 517.482622 
L 80.331666 517.094939 
L 80.952003 516.52358 
L 81.456976 516.045722 
L 82.055092 515.353196 
L 82.366681 514.996505 
L 83.056907 513.947288 
L 83.158181 513.70473 
L 83.518339 512.898071 
L 83.711641 511.848854 
L 83.591558 510.799637 
L 83.158181 509.914677 
L 83.051829 509.75042 
L 82.055092 509.002225 
L 80.952003 508.701203 
L 79.848914 508.716569 
L 78.745824 508.907776 
L 77.642735 509.213963 
L 76.539646 509.622714 
L 76.263312 509.75042 
L 75.436556 510.110948 
L 74.333467 510.677872 
L 74.124569 510.799637 
L 73.230378 511.310782 
L 72.400979 511.848854 
L 72.127289 512.030788 
L 71.024199 512.828373 
L 70.933165 512.898071 
L 69.92111 513.727005 
L 69.665596 513.947288 
L 68.818021 514.769013 
L 68.587462 514.996505 
L 67.714932 516.020398 
L 67.692991 516.045722 
L 66.962105 517.094939 
L 66.611842 517.812451 
L 66.436429 518.144156 
L 66.162302 519.193373 
L 66.275855 520.24259 
L 66.611842 520.722985 
L 67.379642 521.291807 
z
M 68.545711 520.24259 
L 67.714932 519.336097 
L 67.64761 519.193373 
L 67.698578 518.144156 
L 67.714932 518.10758 
L 68.136102 517.094939 
L 68.818021 516.046297 
L 68.818382 516.045722 
L 69.717806 514.996505 
L 69.92111 514.799749 
L 70.824356 513.947288 
L 71.024199 513.780943 
L 72.127289 512.915232 
L 72.150643 512.898071 
L 73.230378 512.168525 
L 73.756404 511.848854 
L 74.333467 511.509097 
L 75.436556 510.948265 
L 75.785953 510.799637 
L 76.539646 510.476818 
L 77.642735 510.119947 
L 78.745824 509.886526 
L 79.848914 509.844905 
L 80.952003 510.173497 
L 81.694735 510.799637 
L 82.055092 511.683767 
L 82.10535 511.848854 
L 82.055092 512.898071 
L 82.055092 512.898071 
L 81.681347 513.947288 
L 81.037499 514.996505 
L 80.952003 515.095711 
L 80.126664 516.045722 
L 79.848914 516.301617 
L 78.947335 517.094939 
L 78.745824 517.247391 
L 77.642735 518.015779 
L 77.439214 518.144156 
L 76.539646 518.657215 
L 75.45889 519.193373 
L 75.436556 519.204001 
L 74.333467 519.653834 
L 73.230378 520.021471 
L 72.388736 520.24259 
L 72.127289 520.311543 
L 71.024199 520.494289 
L 69.92111 520.537795 
L 68.818021 520.361021 
z
" clip-path="url(#pdd37b36315)" style="fill: #6464fa"/>
    <path d="M 68.818021 520.361021 
L 69.92111 520.537795 
L 71.024199 520.494289 
L 72.127289 520.311543 
L 72.388736 520.24259 
L 73.230378 520.021471 
L 74.333467 519.653834 
L 75.436556 519.204001 
L 75.45889 519.193373 
L 76.539646 518.657215 
L 77.439214 518.144156 
L 77.642735 518.015779 
L 78.745824 517.247391 
L 78.947335 517.094939 
L 79.848914 516.301617 
L 80.126664 516.045722 
L 80.952003 515.095711 
L 81.037499 514.996505 
L 81.681347 513.947288 
L 82.055092 512.898071 
L 82.055092 512.898071 
L 82.10535 511.848854 
L 82.055092 511.683767 
L 81.694735 510.799637 
L 80.952003 510.173497 
L 79.848914 509.844905 
L 78.745824 509.886526 
L 77.642735 510.119947 
L 76.539646 510.476818 
L 75.785953 510.799637 
L 75.436556 510.948265 
L 74.333467 511.509097 
L 73.756404 511.848854 
L 73.230378 512.168525 
L 72.150643 512.898071 
L 72.127289 512.915232 
L 71.024199 513.780943 
L 70.824356 513.947288 
L 69.92111 514.799749 
L 69.717806 514.996505 
L 68.818382 516.045722 
L 68.818021 516.046297 
L 68.136102 517.094939 
L 67.714932 518.10758 
L 67.698578 518.144156 
L 67.64761 519.193373 
L 67.714932 519.336097 
L 68.545711 520.24259 
z
M 69.732176 519.193373 
L 69.096398 518.144156 
L 69.328776 517.094939 
L 69.92111 516.045722 
L 69.92111 516.045722 
L 70.817151 514.996505 
L 71.024199 514.801084 
L 71.96158 513.947288 
L 72.127289 513.816567 
L 73.230378 513.012343 
L 73.403412 512.898071 
L 74.333467 512.34475 
L 75.279557 511.848854 
L 75.436556 511.770173 
L 76.539646 511.352032 
L 77.642735 511.064131 
L 78.745824 510.985385 
L 79.848914 511.361928 
L 80.329894 511.848854 
L 80.548929 512.898071 
L 80.289547 513.947288 
L 79.848914 514.714459 
L 79.68599 514.996505 
L 78.763135 516.045722 
L 78.745824 516.060944 
L 77.642735 516.96941 
L 77.477553 517.094939 
L 76.539646 517.686601 
L 75.723187 518.144156 
L 75.436556 518.287804 
L 74.333467 518.753019 
L 73.230378 519.133731 
L 72.978915 519.193373 
L 72.127289 519.381542 
L 71.024199 519.465732 
L 69.92111 519.288411 
z
" clip-path="url(#pdd37b36315)" style="fill: #4949fb"/>
    <path d="M 69.92111 519.288411 
L 71.024199 519.465732 
L 72.127289 519.381542 
L 72.978915 519.193373 
L 73.230378 519.133731 
L 74.333467 518.753019 
L 75.436556 518.287804 
L 75.723187 518.144156 
L 76.539646 517.686601 
L 77.477553 517.094939 
L 77.642735 516.96941 
L 78.745824 516.060944 
L 78.763135 516.045722 
L 79.68599 514.996505 
L 79.848914 514.714459 
L 80.289547 513.947288 
L 80.548929 512.898071 
L 80.329894 511.848854 
L 79.848914 511.361928 
L 78.745824 510.985385 
L 77.642735 511.064131 
L 76.539646 511.352032 
L 75.436556 511.770173 
L 75.279557 511.848854 
L 74.333467 512.34475 
L 73.403412 512.898071 
L 73.230378 513.012343 
L 72.127289 513.816567 
L 71.96158 513.947288 
L 71.024199 514.801084 
L 70.817151 514.996505 
L 69.92111 516.045722 
L 69.92111 516.045722 
L 69.328776 517.094939 
L 69.096398 518.144156 
L 69.732176 519.193373 
z
M 71.958603 518.144156 
L 71.024199 517.502535 
L 70.88194 517.094939 
L 71.024199 516.74207 
L 71.305019 516.045722 
L 72.127289 514.996505 
L 72.127289 514.996505 
L 73.230378 514.06982 
L 73.388815 513.947288 
L 74.333467 513.368877 
L 75.204794 512.898071 
L 75.436556 512.789067 
L 76.539646 512.471099 
L 77.642735 512.421605 
L 78.531802 512.898071 
L 78.617986 513.947288 
L 78.073097 514.996505 
L 77.642735 515.471808 
L 77.088863 516.045722 
L 76.539646 516.457389 
L 75.597105 517.094939 
L 75.436556 517.183019 
L 74.333467 517.663057 
L 73.230378 518.029368 
L 72.39176 518.144156 
L 72.127289 518.173845 
z
" clip-path="url(#pdd37b36315)" style="fill: #2b2bfd"/>
    <path d="M 72.127289 518.173845 
L 72.39176 518.144156 
L 73.230378 518.029368 
L 74.333467 517.663057 
L 75.436556 517.183019 
L 75.597105 517.094939 
L 76.539646 516.457389 
L 77.088863 516.045722 
L 77.642735 515.471808 
L 78.073097 514.996505 
L 78.617986 513.947288 
L 78.531802 512.898071 
L 77.642735 512.421605 
L 76.539646 512.471099 
L 75.436556 512.789067 
L 75.204794 512.898071 
L 74.333467 513.368877 
L 73.388815 513.947288 
L 73.230378 514.06982 
L 72.127289 514.996505 
L 72.127289 514.996505 
L 71.305019 516.045722 
L 71.024199 516.74207 
L 70.88194 517.094939 
L 71.024199 517.502535 
L 71.958603 518.144156 
z
" clip-path="url(#pdd37b36315)" style="fill: #0e0efe"/>
   </g>
   <g id="QuadContourSet_2">
    <path d="M 66.952902 541.365669 
L 70.181002 542.209104 
L 73.409102 542.088573 
L 76.637202 541.07213 
L 78.198722 540.141946 
L 79.865302 539.941543 
L 83.093402 539.311947 
L 86.321502 538.185261 
L 89.549602 536.152473 
L 92.47284 532.986197 
L 92.777702 532.846516 
L 96.005802 531.21345 
L 99.233902 528.375439 
L 101.346668 525.830448 
L 102.462002 524.960038 
L 105.690102 522.07084 
L 108.32372 518.674699 
L 108.918202 518.035451 
L 112.146302 514.693874 
L 114.767279 511.51895 
L 115.374402 510.861626 
L 118.602502 508.038373 
L 121.830601 505.127996 
L 122.728983 504.363201 
L 125.058701 502.48397 
L 128.286801 499.59922 
L 130.653093 497.207452 
L 131.514901 496.302497 
L 134.743001 493.102529 
L 137.727638 490.051703 
L 137.971101 489.83247 
L 141.199201 487.320121 
L 144.427301 484.809522 
L 147.032239 482.895954 
L 147.655401 482.508494 
L 150.883501 480.718484 
L 154.111601 479.02515 
L 157.339701 477.719899 
L 160.567801 477.023308 
L 163.795901 476.735901 
L 167.024001 476.1855 
L 168.119654 475.740205 
L 170.252101 474.861778 
L 173.480201 473.076459 
L 176.708301 471.787387 
L 179.936401 470.803715 
L 183.164501 469.332455 
L 184.330161 468.584457 
L 186.392601 467.506358 
L 189.620701 465.981519 
L 192.8488 465.041542 
L 196.0769 464.369779 
L 199.305 463.493864 
L 202.5331 462.218742 
L 203.839937 461.428708 
L 205.7612 459.752595 
L 208.9893 455.492148 
L 209.79877 454.272959 
L 211.754605 447.11721 
L 209.854638 439.961461 
L 208.9893 438.985236 
L 205.7612 437.305066 
L 202.5331 437.075495 
L 199.305 436.946343 
L 196.0769 436.160961 
L 192.8488 434.721446 
L 189.620701 433.347749 
L 186.71586 432.805712 
L 186.392601 432.740896 
L 184.380542 432.805712 
L 183.164501 432.841257 
L 182.299441 432.805712 
L 179.936401 432.695576 
L 176.708301 431.505459 
L 173.480201 429.907615 
L 170.252101 428.554979 
L 167.024001 427.24714 
L 163.795901 425.973017 
L 162.701279 425.649963 
L 160.567801 424.818477 
L 157.339701 423.965723 
L 154.111601 423.01308 
L 150.883501 421.668657 
L 147.655401 419.932055 
L 145.436263 418.494214 
L 144.427301 417.530618 
L 141.199201 414.355817 
L 137.971101 412.014017 
L 136.657382 411.338465 
L 134.743001 410.150449 
L 131.514901 408.212389 
L 128.286801 405.808971 
L 126.46374 404.182716 
L 125.058701 402.358709 
L 121.830601 398.527879 
L 120.23795 397.026967 
L 118.602502 395.16033 
L 115.374402 391.534336 
L 114.240293 389.871218 
L 112.146302 385.936541 
L 110.734434 382.715469 
L 108.918202 377.963118 
L 108.117528 375.55972 
L 105.996846 368.403971 
L 105.690102 367.220464 
L 104.423253 361.248222 
L 103.579638 354.092473 
L 103.487309 346.936724 
L 103.564992 339.780975 
L 103.0362 332.625226 
L 102.462002 327.788235 
L 102.212057 325.469477 
L 101.992847 318.313728 
L 101.889815 311.15798 
L 101.611697 304.002231 
L 101.12349 296.846482 
L 99.99305 289.690733 
L 99.233902 286.778328 
L 97.953208 282.534984 
L 96.005802 277.573885 
L 94.968888 275.379235 
L 92.777702 271.424179 
L 89.549602 268.315672 
L 87.981587 268.223486 
L 86.321502 268.134086 
L 86.184023 268.223486 
L 83.093402 270.137838 
L 79.865302 274.285509 
L 79.315551 275.379235 
L 76.637202 281.543567 
L 76.310681 282.534984 
L 74.277177 289.690733 
L 73.409102 293.034246 
L 72.516204 296.846482 
L 71.231571 304.002231 
L 70.463687 311.15798 
L 70.181002 316.365161 
L 70.048611 318.313728 
L 69.99188 325.469477 
L 70.181002 332.625226 
L 70.181002 332.625226 
L 70.283006 339.780975 
L 70.181002 343.725559 
L 70.075255 346.936724 
L 69.421716 354.092473 
L 68.62931 361.248222 
L 67.76961 368.403971 
L 66.952902 375.236373 
L 66.904802 375.55972 
L 65.871106 382.715469 
L 64.983522 389.871218 
L 64.13243 397.026967 
L 63.724802 399.999522 
L 62.96443 404.182716 
L 61.560742 411.338465 
L 60.496702 417.479717 
L 60.259545 418.494214 
L 58.746766 425.649963 
L 57.852869 432.805712 
L 57.359894 439.961461 
L 57.268602 442.139124 
L 56.872689 447.11721 
L 56.434821 454.272959 
L 55.910387 461.428708 
L 55.308129 468.584457 
L 54.766108 475.740205 
L 54.339729 482.895954 
L 54.040502 487.782494 
L 53.735776 490.051703 
L 52.505401 497.207452 
L 51.560761 504.363201 
L 51.14592 511.51895 
L 51.294199 518.674699 
L 52.561246 525.830448 
L 54.040502 529.377393 
L 55.916788 532.986197 
L 57.268602 535.290205 
L 60.496702 538.702875 
L 63.724802 539.912765 
L 65.082694 540.141946 
z
M 63.682303 532.986197 
L 60.496702 530.590578 
L 57.838232 525.830448 
L 57.268602 523.876479 
L 55.668715 518.674699 
L 55.306928 511.51895 
L 56.084171 504.363201 
L 57.268602 499.145924 
L 57.569902 497.207452 
L 58.631757 490.051703 
L 59.425889 482.895954 
L 60.14826 475.740205 
L 60.496702 473.041826 
L 60.850705 468.584457 
L 61.543996 461.428708 
L 62.326012 454.272959 
L 63.149668 447.11721 
L 63.724802 442.74453 
L 63.993288 439.961461 
L 64.980204 432.805712 
L 66.621399 425.649963 
L 66.952902 424.406729 
L 68.506906 418.494214 
L 70.181002 412.981968 
L 70.755656 411.338465 
L 73.017246 404.182716 
L 73.409102 402.734415 
L 75.306697 397.026967 
L 76.637202 392.126163 
L 77.559854 389.871218 
L 79.865302 383.688482 
L 80.794518 382.715469 
L 83.093402 380.213183 
L 86.321502 381.500802 
L 87.088774 382.715469 
L 89.549602 386.030863 
L 91.51732 389.871218 
L 92.777702 391.694191 
L 95.508285 397.026967 
L 96.005802 397.698289 
L 99.233902 403.128171 
L 99.800565 404.182716 
L 102.462002 407.80056 
L 104.725829 411.338465 
L 105.690102 412.487077 
L 108.918202 416.332563 
L 110.758899 418.494214 
L 112.146302 419.715718 
L 115.374402 422.61367 
L 118.140876 425.649963 
L 118.602502 426.123795 
L 121.830601 429.624041 
L 124.585626 432.805712 
L 125.058701 433.393307 
L 128.286801 436.63128 
L 131.514901 439.889993 
L 131.582632 439.961461 
L 134.743001 447.11721 
L 133.895411 454.272959 
L 131.514901 458.928135 
L 130.269995 461.428708 
L 128.286801 464.124819 
L 125.058701 468.206414 
L 124.773246 468.584457 
L 121.830601 472.382328 
L 119.02036 475.740205 
L 118.602502 476.404105 
L 115.374402 481.989227 
L 114.8933 482.895954 
L 112.146302 490.029611 
L 112.138874 490.051703 
L 109.682681 497.207452 
L 108.918202 498.735002 
L 106.612658 504.363201 
L 105.690102 505.980329 
L 102.864921 511.51895 
L 102.462002 512.132574 
L 99.233902 517.257583 
L 98.329485 518.674699 
L 96.005802 521.881369 
L 92.777702 525.135697 
L 91.973371 525.830448 
L 89.549602 528.645928 
L 86.321502 531.128102 
L 83.093402 532.555357 
L 81.665234 532.986197 
L 79.865302 534.389096 
L 76.637202 535.946666 
L 73.409102 536.604615 
L 70.181002 536.539888 
L 66.952902 535.593526 
L 63.724802 533.034525 
z
" clip-path="url(#pdd37b36315)" style="fill: #e6f1e6; fill-opacity: 0.5"/>
    <path d="M 63.724802 533.034525 
L 66.952902 535.593526 
L 70.181002 536.539888 
L 73.409102 536.604615 
L 76.637202 535.946666 
L 79.865302 534.389096 
L 81.665234 532.986197 
L 83.093402 532.555357 
L 86.321502 531.128102 
L 89.549602 528.645928 
L 91.973371 525.830448 
L 92.777702 525.135697 
L 96.005802 521.881369 
L 98.329485 518.674699 
L 99.233902 517.257583 
L 102.462002 512.132574 
L 102.864921 511.51895 
L 105.690102 505.980329 
L 106.612658 504.363201 
L 108.918202 498.735002 
L 109.682681 497.207452 
L 112.138874 490.051703 
L 112.146302 490.029611 
L 114.8933 482.895954 
L 115.374402 481.989227 
L 118.602502 476.404105 
L 119.02036 475.740205 
L 121.830601 472.382328 
L 124.773246 468.584457 
L 125.058701 468.206414 
L 128.286801 464.124819 
L 130.269995 461.428708 
L 131.514901 458.928135 
L 133.895411 454.272959 
L 134.743001 447.11721 
L 131.582632 439.961461 
L 131.514901 439.889993 
L 128.286801 436.63128 
L 125.058701 433.393307 
L 124.585626 432.805712 
L 121.830601 429.624041 
L 118.602502 426.123795 
L 118.140876 425.649963 
L 115.374402 422.61367 
L 112.146302 419.715718 
L 110.758899 418.494214 
L 108.918202 416.332563 
L 105.690102 412.487077 
L 104.725829 411.338465 
L 102.462002 407.80056 
L 99.800565 404.182716 
L 99.233902 403.128171 
L 96.005802 397.698289 
L 95.508285 397.026967 
L 92.777702 391.694191 
L 91.51732 389.871218 
L 89.549602 386.030863 
L 87.088774 382.715469 
L 86.321502 381.500802 
L 83.093402 380.213183 
L 80.794518 382.715469 
L 79.865302 383.688482 
L 77.559854 389.871218 
L 76.637202 392.126163 
L 75.306697 397.026967 
L 73.409102 402.734415 
L 73.017246 404.182716 
L 70.755656 411.338465 
L 70.181002 412.981968 
L 68.506906 418.494214 
L 66.952902 424.406729 
L 66.621399 425.649963 
L 64.980204 432.805712 
L 63.993288 439.961461 
L 63.724802 442.74453 
L 63.149668 447.11721 
L 62.326012 454.272959 
L 61.543996 461.428708 
L 60.850705 468.584457 
L 60.496702 473.041826 
L 60.14826 475.740205 
L 59.425889 482.895954 
L 58.631757 490.051703 
L 57.569902 497.207452 
L 57.268602 499.145924 
L 56.084171 504.363201 
L 55.306928 511.51895 
L 55.668715 518.674699 
L 57.268602 523.876479 
L 57.838232 525.830448 
L 60.496702 530.590578 
L 63.682303 532.986197 
z
M 62.122875 525.830448 
L 60.496702 522.45696 
L 59.101918 518.674699 
L 58.536286 511.51895 
L 59.415415 504.363201 
L 60.496702 500.113085 
L 61.116729 497.207452 
L 62.644634 490.051703 
L 63.676672 482.895954 
L 63.724802 482.427895 
L 64.220946 475.740205 
L 64.967658 468.584457 
L 65.997531 461.428708 
L 66.952902 455.692545 
L 67.155787 454.272959 
L 68.146533 447.11721 
L 69.409963 439.961461 
L 70.181002 436.700489 
L 71.1499 432.805712 
L 73.409102 426.46837 
L 73.792882 425.649963 
L 76.637202 420.166757 
L 78.073382 418.494214 
L 79.865302 416.046385 
L 83.093402 413.673573 
L 86.321502 412.874865 
L 89.549602 413.401845 
L 92.777702 415.290501 
L 96.005802 418.494214 
L 96.005802 418.494214 
L 99.233902 421.562881 
L 102.424993 425.649963 
L 102.462002 425.693062 
L 105.690102 429.4191 
L 108.489953 432.805712 
L 108.918202 433.370296 
L 112.146302 437.627722 
L 113.691268 439.961461 
L 115.374402 444.516509 
L 116.320624 447.11721 
L 116.35532 454.272959 
L 115.374402 457.08382 
L 114.004248 461.428708 
L 112.146302 464.864697 
L 110.311859 468.584457 
L 108.918202 471.158402 
L 106.619064 475.740205 
L 105.690102 477.820217 
L 103.587163 482.895954 
L 102.462002 486.428016 
L 101.474813 490.051703 
L 100.064518 497.207452 
L 99.233902 500.537406 
L 98.578181 504.363201 
L 96.106189 511.51895 
L 96.005802 511.697947 
L 92.777702 517.703271 
L 92.236275 518.674699 
L 89.549602 522.339269 
L 86.321502 525.274297 
L 85.556679 525.830448 
L 83.093402 528.266843 
L 79.865302 530.261536 
L 76.637202 531.316506 
L 73.409102 531.741209 
L 70.181002 531.597896 
L 66.952902 530.66013 
L 63.724802 528.11885 
z
" clip-path="url(#pdd37b36315)" style="fill: #d8ead8; fill-opacity: 0.5"/>
    <path d="M 63.724802 528.11885 
L 66.952902 530.66013 
L 70.181002 531.597896 
L 73.409102 531.741209 
L 76.637202 531.316506 
L 79.865302 530.261536 
L 83.093402 528.266843 
L 85.556679 525.830448 
L 86.321502 525.274297 
L 89.549602 522.339269 
L 92.236275 518.674699 
L 92.777702 517.703271 
L 96.005802 511.697947 
L 96.106189 511.51895 
L 98.578181 504.363201 
L 99.233902 500.537406 
L 100.064518 497.207452 
L 101.474813 490.051703 
L 102.462002 486.428016 
L 103.587163 482.895954 
L 105.690102 477.820217 
L 106.619064 475.740205 
L 108.918202 471.158402 
L 110.311859 468.584457 
L 112.146302 464.864697 
L 114.004248 461.428708 
L 115.374402 457.08382 
L 116.35532 454.272959 
L 116.320624 447.11721 
L 115.374402 444.516509 
L 113.691268 439.961461 
L 112.146302 437.627722 
L 108.918202 433.370296 
L 108.489953 432.805712 
L 105.690102 429.4191 
L 102.462002 425.693062 
L 102.424993 425.649963 
L 99.233902 421.562881 
L 96.005802 418.494214 
L 96.005802 418.494214 
L 92.777702 415.290501 
L 89.549602 413.401845 
L 86.321502 412.874865 
L 83.093402 413.673573 
L 79.865302 416.046385 
L 78.073382 418.494214 
L 76.637202 420.166757 
L 73.792882 425.649963 
L 73.409102 426.46837 
L 71.1499 432.805712 
L 70.181002 436.700489 
L 69.409963 439.961461 
L 68.146533 447.11721 
L 67.155787 454.272959 
L 66.952902 455.692545 
L 65.997531 461.428708 
L 64.967658 468.584457 
L 64.220946 475.740205 
L 63.724802 482.427895 
L 63.676672 482.895954 
L 62.644634 490.051703 
L 61.116729 497.207452 
L 60.496702 500.113085 
L 59.415415 504.363201 
L 58.536286 511.51895 
L 59.101918 518.674699 
L 60.496702 522.45696 
L 62.122875 525.830448 
z
M 66.125634 525.830448 
L 63.724802 523.084225 
L 61.669499 518.674699 
L 60.946761 511.51895 
L 61.78496 504.363201 
L 63.724802 497.651313 
L 63.856201 497.207452 
L 65.681792 490.051703 
L 66.828944 482.895954 
L 66.952902 481.660232 
L 67.466733 475.740205 
L 68.328986 468.584457 
L 69.532323 461.428708 
L 70.181002 457.963213 
L 70.86115 454.272959 
L 72.26357 447.11721 
L 73.409102 442.412656 
L 74.10037 439.961461 
L 76.637202 433.331487 
L 76.927898 432.805712 
L 79.865302 428.240035 
L 83.093402 425.649963 
L 83.093402 425.649963 
L 86.321502 424.514826 
L 89.549602 425.029779 
L 90.607237 425.649963 
L 92.777702 426.691675 
L 96.005802 429.290338 
L 98.974153 432.805712 
L 99.233902 433.142395 
L 102.462002 437.903831 
L 103.797539 439.961461 
L 105.690102 444.674554 
L 106.699159 447.11721 
L 107.096665 454.272959 
L 105.690102 459.855826 
L 105.357518 461.428708 
L 102.547386 468.584457 
L 102.462002 468.77224 
L 99.536324 475.740205 
L 99.233902 476.510498 
L 96.954112 482.895954 
L 96.005802 486.651793 
L 95.306572 490.051703 
L 94.70724 497.207452 
L 94.04021 504.363201 
L 92.777702 508.771039 
L 92.183814 511.51895 
L 89.549602 516.595103 
L 88.387565 518.674699 
L 86.321502 521.361456 
L 83.093402 524.351097 
L 80.54455 525.830448 
L 79.865302 526.389893 
L 76.637202 528.168911 
L 73.409102 528.82479 
L 70.181002 528.463724 
L 66.952902 526.683439 
z
" clip-path="url(#pdd37b36315)" style="fill: #c4e0c4; fill-opacity: 0.5"/>
    <path d="M 66.952902 526.683439 
L 70.181002 528.463724 
L 73.409102 528.82479 
L 76.637202 528.168911 
L 79.865302 526.389893 
L 80.54455 525.830448 
L 83.093402 524.351097 
L 86.321502 521.361456 
L 88.387565 518.674699 
L 89.549602 516.595103 
L 92.183814 511.51895 
L 92.777702 508.771039 
L 94.04021 504.363201 
L 94.70724 497.207452 
L 95.306572 490.051703 
L 96.005802 486.651793 
L 96.954112 482.895954 
L 99.233902 476.510498 
L 99.536324 475.740205 
L 102.462002 468.77224 
L 102.547386 468.584457 
L 105.357518 461.428708 
L 105.690102 459.855826 
L 107.096665 454.272959 
L 106.699159 447.11721 
L 105.690102 444.674554 
L 103.797539 439.961461 
L 102.462002 437.903831 
L 99.233902 433.142395 
L 98.974153 432.805712 
L 96.005802 429.290338 
L 92.777702 426.691675 
L 90.607237 425.649963 
L 89.549602 425.029779 
L 86.321502 424.514826 
L 83.093402 425.649963 
L 83.093402 425.649963 
L 79.865302 428.240035 
L 76.927898 432.805712 
L 76.637202 433.331487 
L 74.10037 439.961461 
L 73.409102 442.412656 
L 72.26357 447.11721 
L 70.86115 454.272959 
L 70.181002 457.963213 
L 69.532323 461.428708 
L 68.328986 468.584457 
L 67.466733 475.740205 
L 66.952902 481.660232 
L 66.828944 482.895954 
L 65.681792 490.051703 
L 63.856201 497.207452 
L 63.724802 497.651313 
L 61.78496 504.363201 
L 60.946761 511.51895 
L 61.669499 518.674699 
L 63.724802 523.084225 
L 66.125634 525.830448 
z
M 72.938501 525.830448 
L 70.181002 525.513223 
L 66.952902 523.712027 
L 63.724802 518.674699 
L 63.724802 518.674699 
L 62.56929 511.51895 
L 63.690721 504.363201 
L 63.724802 504.245279 
L 65.80825 497.207452 
L 66.952902 493.442052 
L 68.17173 490.051703 
L 69.46497 482.895954 
L 70.179277 475.740205 
L 70.181002 475.727639 
L 71.175894 468.584457 
L 72.523819 461.428708 
L 73.409102 457.210114 
L 74.094732 454.272959 
L 75.902709 447.11721 
L 76.637202 444.755283 
L 78.640771 439.961461 
L 79.865302 437.649145 
L 83.093402 434.065054 
L 86.063727 432.805712 
L 86.321502 432.697064 
L 87.313557 432.805712 
L 89.549602 433.034852 
L 92.777702 434.826125 
L 96.005802 438.150555 
L 97.283637 439.961461 
L 99.233902 444.177444 
L 100.453248 447.11721 
L 101.129109 454.272959 
L 99.757569 461.428708 
L 99.233902 462.858718 
L 97.263697 468.584457 
L 96.005802 471.75948 
L 94.537683 475.740205 
L 92.777702 481.058135 
L 92.233205 482.895954 
L 91.143957 490.051703 
L 91.178276 497.207452 
L 91.061841 504.363201 
L 89.549602 510.880766 
L 89.435843 511.51895 
L 86.321502 517.476727 
L 85.596931 518.674699 
L 83.093402 521.624093 
L 79.865302 524.051112 
L 76.637202 525.373661 
L 73.718438 525.830448 
L 73.409102 525.909756 
z
" clip-path="url(#pdd37b36315)" style="fill: #acd4ac; fill-opacity: 0.5"/>
    <path d="M 73.409102 525.909756 
L 73.718438 525.830448 
L 76.637202 525.373661 
L 79.865302 524.051112 
L 83.093402 521.624093 
L 85.596931 518.674699 
L 86.321502 517.476727 
L 89.435843 511.51895 
L 89.549602 510.880766 
L 91.061841 504.363201 
L 91.178276 497.207452 
L 91.143957 490.051703 
L 92.233205 482.895954 
L 92.777702 481.058135 
L 94.537683 475.740205 
L 96.005802 471.75948 
L 97.263697 468.584457 
L 99.233902 462.858718 
L 99.757569 461.428708 
L 101.129109 454.272959 
L 100.453248 447.11721 
L 99.233902 444.177444 
L 97.283637 439.961461 
L 96.005802 438.150555 
L 92.777702 434.826125 
L 89.549602 433.034852 
L 87.313557 432.805712 
L 86.321502 432.697064 
L 86.063727 432.805712 
L 83.093402 434.065054 
L 79.865302 437.649145 
L 78.640771 439.961461 
L 76.637202 444.755283 
L 75.902709 447.11721 
L 74.094732 454.272959 
L 73.409102 457.210114 
L 72.523819 461.428708 
L 71.175894 468.584457 
L 70.181002 475.727639 
L 70.179277 475.740205 
L 69.46497 482.895954 
L 68.17173 490.051703 
L 66.952902 493.442052 
L 65.80825 497.207452 
L 63.724802 504.245279 
L 63.690721 504.363201 
L 62.56929 511.51895 
L 63.724802 518.674699 
L 63.724802 518.674699 
L 66.952902 523.712027 
L 70.181002 525.513223 
L 72.938501 525.830448 
z
M 65.229261 518.674699 
L 63.925648 511.51895 
L 64.915969 504.363201 
L 66.952902 498.374197 
L 67.452473 497.207452 
L 70.181002 490.051703 
L 70.181002 490.051703 
L 71.836901 482.895954 
L 72.560345 475.740205 
L 73.409102 469.72796 
L 73.603201 468.584457 
L 75.20915 461.428708 
L 76.637202 455.440464 
L 76.985813 454.272959 
L 79.377955 447.11721 
L 79.865302 445.964684 
L 83.093402 441.15864 
L 84.963693 439.961461 
L 86.321502 439.23473 
L 89.549602 439.51246 
L 90.260431 439.961461 
L 92.777702 442.107949 
L 95.79262 447.11721 
L 96.005802 448.335408 
L 96.833001 454.272959 
L 96.005802 459.091365 
L 95.609245 461.428708 
L 93.247036 468.584457 
L 92.777702 469.856537 
L 90.756925 475.740205 
L 89.549602 479.897933 
L 88.739755 482.895954 
L 88.100664 490.051703 
L 88.706266 497.207452 
L 88.977621 504.363201 
L 87.694575 511.51895 
L 86.321502 514.145658 
L 83.582195 518.674699 
L 83.093402 519.250543 
L 79.865302 522.240672 
L 76.637202 523.824909 
L 73.409102 524.36117 
L 70.181002 523.781243 
L 66.952902 521.364376 
z
" clip-path="url(#pdd37b36315)" style="fill: #97ca97; fill-opacity: 0.5"/>
    <path d="M 66.952902 521.364376 
L 70.181002 523.781243 
L 73.409102 524.36117 
L 76.637202 523.824909 
L 79.865302 522.240672 
L 83.093402 519.250543 
L 83.582195 518.674699 
L 86.321502 514.145658 
L 87.694575 511.51895 
L 88.977621 504.363201 
L 88.706266 497.207452 
L 88.100664 490.051703 
L 88.739755 482.895954 
L 89.549602 479.897933 
L 90.756925 475.740205 
L 92.777702 469.856537 
L 93.247036 468.584457 
L 95.609245 461.428708 
L 96.005802 459.091365 
L 96.833001 454.272959 
L 96.005802 448.335408 
L 95.79262 447.11721 
L 92.777702 442.107949 
L 90.260431 439.961461 
L 89.549602 439.51246 
L 86.321502 439.23473 
L 84.963693 439.961461 
L 83.093402 441.15864 
L 79.865302 445.964684 
L 79.377955 447.11721 
L 76.985813 454.272959 
L 76.637202 455.440464 
L 75.20915 461.428708 
L 73.603201 468.584457 
L 73.409102 469.72796 
L 72.560345 475.740205 
L 71.836901 482.895954 
L 70.181002 490.051703 
L 70.181002 490.051703 
L 67.452473 497.207452 
L 66.952902 498.374197 
L 64.915969 504.363201 
L 63.925648 511.51895 
L 65.229261 518.674699 
z
M 66.795424 518.674699 
L 65.075846 511.51895 
L 66.182003 504.363201 
L 66.952902 502.096598 
L 69.04631 497.207452 
L 70.181002 494.231648 
L 72.535999 490.051703 
L 73.409102 486.493396 
L 74.790087 482.895954 
L 75.558903 475.740205 
L 76.583568 468.584457 
L 76.637202 468.337449 
L 78.627992 461.428708 
L 79.865302 457.065086 
L 81.017839 454.272959 
L 83.093402 450.163717 
L 86.321502 447.11721 
L 89.549602 448.369436 
L 91.88191 454.272959 
L 91.020632 461.428708 
L 89.549602 466.541407 
L 88.955922 468.584457 
L 86.801833 475.740205 
L 86.321502 477.697431 
L 84.958211 482.895954 
L 85.010369 490.051703 
L 86.321502 496.404592 
L 86.437777 497.207452 
L 87.188398 504.363201 
L 86.321502 509.131964 
L 85.964783 511.51895 
L 83.093402 516.65634 
L 81.60108 518.674699 
L 79.865302 520.355977 
L 76.637202 522.212636 
L 73.409102 522.782277 
L 70.181002 521.978228 
L 66.952902 518.920438 
z
" clip-path="url(#pdd37b36315)" style="fill: #83c083; fill-opacity: 0.5"/>
    <path d="M 66.952902 518.920438 
L 70.181002 521.978228 
L 73.409102 522.782277 
L 76.637202 522.212636 
L 79.865302 520.355977 
L 81.60108 518.674699 
L 83.093402 516.65634 
L 85.964783 511.51895 
L 86.321502 509.131964 
L 87.188398 504.363201 
L 86.437777 497.207452 
L 86.321502 496.404592 
L 85.010369 490.051703 
L 84.958211 482.895954 
L 86.321502 477.697431 
L 86.801833 475.740205 
L 88.955922 468.584457 
L 89.549602 466.541407 
L 91.020632 461.428708 
L 91.88191 454.272959 
L 89.549602 448.369436 
L 86.321502 447.11721 
L 83.093402 450.163717 
L 81.017839 454.272959 
L 79.865302 457.065086 
L 78.627992 461.428708 
L 76.637202 468.337449 
L 76.583568 468.584457 
L 75.558903 475.740205 
L 74.790087 482.895954 
L 73.409102 486.493396 
L 72.535999 490.051703 
L 70.181002 494.231648 
L 69.04631 497.207452 
L 66.952902 502.096598 
L 66.182003 504.363201 
L 65.075846 511.51895 
L 66.795424 518.674699 
z
M 68.023789 518.674699 
L 66.952902 515.990395 
L 65.852246 511.51895 
L 66.952902 504.825584 
L 67.034582 504.363201 
L 70.122174 497.207452 
L 70.181002 497.053171 
L 73.409102 491.159904 
L 74.636993 490.051703 
L 76.637202 484.752729 
L 78.732981 482.895954 
L 79.048279 475.740205 
L 79.865302 468.596328 
L 79.869588 468.584457 
L 82.826322 461.428708 
L 83.093402 460.755425 
L 86.321502 461.428708 
L 84.606814 468.584457 
L 83.134479 475.740205 
L 83.093402 475.946416 
L 80.768979 482.895954 
L 82.665947 490.051703 
L 83.093402 490.678085 
L 84.959851 497.207452 
L 86.024281 504.363201 
L 84.971911 511.51895 
L 83.093402 514.879924 
L 80.287645 518.674699 
L 79.865302 519.083781 
L 76.637202 521.124328 
L 73.409102 521.716501 
L 70.181002 520.761167 
z
" clip-path="url(#pdd37b36315)" style="fill: #71b771; fill-opacity: 0.5"/>
    <path d="M 70.181002 520.761167 
L 73.409102 521.716501 
L 76.637202 521.124328 
L 79.865302 519.083781 
L 80.287645 518.674699 
L 83.093402 514.879924 
L 84.971911 511.51895 
L 86.024281 504.363201 
L 84.959851 497.207452 
L 83.093402 490.678085 
L 82.665947 490.051703 
L 80.768979 482.895954 
L 83.093402 475.946416 
L 83.134479 475.740205 
L 84.606814 468.584457 
L 86.321502 461.428708 
L 83.093402 460.755425 
L 82.826322 461.428708 
L 79.869588 468.584457 
L 79.865302 468.596328 
L 79.048279 475.740205 
L 78.732981 482.895954 
L 76.637202 484.752729 
L 74.636993 490.051703 
L 73.409102 491.159904 
L 70.181002 497.053171 
L 70.122174 497.207452 
L 67.034582 504.363201 
L 66.952902 504.825584 
L 65.852246 511.51895 
L 66.952902 515.990395 
L 68.023789 518.674699 
z
M 73.207747 518.674699 
L 70.181002 516.538051 
L 68.09013 511.51895 
L 69.35573 504.363201 
L 70.181002 502.45872 
L 73.409102 497.78766 
L 74.414975 497.207452 
L 76.637202 495.358279 
L 79.865302 496.607359 
L 80.211019 497.207452 
L 83.093402 504.363201 
L 82.208603 511.51895 
L 79.865302 515.021322 
L 76.637202 517.928105 
L 73.789547 518.674699 
L 73.409102 518.750466 
z
" clip-path="url(#pdd37b36315)" style="fill: #56aa56; fill-opacity: 0.5"/>
    <path d="M 73.409102 518.750466 
L 73.789547 518.674699 
L 76.637202 517.928105 
L 79.865302 515.021322 
L 82.208603 511.51895 
L 83.093402 504.363201 
L 80.211019 497.207452 
L 79.865302 496.607359 
L 76.637202 495.358279 
L 74.414975 497.207452 
L 73.409102 497.78766 
L 70.181002 502.45872 
L 69.35573 504.363201 
L 68.09013 511.51895 
L 70.181002 516.538051 
L 73.207747 518.674699 
z
" clip-path="url(#pdd37b36315)" style="fill: #219021; fill-opacity: 0.5"/>
   </g>
   <g id="matplotlib.axis_1">
    <g id="xtick_1">
     <g id="line2d_1">
      <defs>
       <path id="m67f01b5324" d="M 0 0 
L 0 3.5 
" style="stroke: #000000; stroke-width: 0.8"/>
      </defs>
      <g>
       <use xlink:href="#m67f01b5324" x="63.480247" y="534.04" style="stroke: #000000; stroke-width: 0.8"/>
      </g>
     </g>
     <g id="text_1">
      <!-- 0 -->
      <g transform="translate(60.298997 548.638438) scale(0.1 -0.1)">
       <defs>
        <path id="DejaVuSans-30" d="M 2034 4250 
Q 1547 4250 1301 3770 
Q 1056 3291 1056 2328 
Q 1056 1369 1301 889 
Q 1547 409 2034 409 
Q 2525 409 2770 889 
Q 3016 1369 3016 2328 
Q 3016 3291 2770 3770 
Q 2525 4250 2034 4250 
z
M 2034 4750 
Q 2819 4750 3233 4129 
Q 3647 3509 3647 2328 
Q 3647 1150 3233 529 
Q 2819 -91 2034 -91 
Q 1250 -91 836 529 
Q 422 1150 422 2328 
Q 422 3509 836 4129 
Q 1250 4750 2034 4750 
z
" transform="scale(0.015625)"/>
       </defs>
       <use xlink:href="#DejaVuSans-30"/>
      </g>
     </g>
    </g>
    <g id="xtick_2">
     <g id="line2d_2">
      <g>
       <use xlink:href="#m67f01b5324" x="190.129253" y="534.04" style="stroke: #000000; stroke-width: 0.8"/>
      </g>
     </g>
     <g id="text_2">
      <!-- 20 -->
      <g transform="translate(183.766753 548.638438) scale(0.1 -0.1)">
       <defs>
        <path id="DejaVuSans-32" d="M 1228 531 
L 3431 531 
L 3431 0 
L 469 0 
L 469 531 
Q 828 903 1448 1529 
Q 2069 2156 2228 2338 
Q 2531 2678 2651 2914 
Q 2772 3150 2772 3378 
Q 2772 3750 2511 3984 
Q 2250 4219 1831 4219 
Q 1534 4219 1204 4116 
Q 875 4013 500 3803 
L 500 4441 
Q 881 4594 1212 4672 
Q 1544 4750 1819 4750 
Q 2544 4750 2975 4387 
Q 3406 4025 3406 3419 
Q 3406 3131 3298 2873 
Q 3191 2616 2906 2266 
Q 2828 2175 2409 1742 
Q 1991 1309 1228 531 
z
" transform="scale(0.015625)"/>
       </defs>
       <use xlink:href="#DejaVuSans-32"/>
       <use xlink:href="#DejaVuSans-30" x="63.623047"/>
      </g>
     </g>
    </g>
    <g id="xtick_3">
     <g id="line2d_3">
      <g>
       <use xlink:href="#m67f01b5324" x="316.778259" y="534.04" style="stroke: #000000; stroke-width: 0.8"/>
      </g>
     </g>
     <g id="text_3">
      <!-- 40 -->
      <g transform="translate(310.415759 548.638438) scale(0.1 -0.1)">
       <defs>
        <path id="DejaVuSans-34" d="M 2419 4116 
L 825 1625 
L 2419 1625 
L 2419 4116 
z
M 2253 4666 
L 3047 4666 
L 3047 1625 
L 3713 1625 
L 3713 1100 
L 3047 1100 
L 3047 0 
L 2419 0 
L 2419 1100 
L 313 1100 
L 313 1709 
L 2253 4666 
z
" transform="scale(0.015625)"/>
       </defs>
       <use xlink:href="#DejaVuSans-34"/>
       <use xlink:href="#DejaVuSans-30" x="63.623047"/>
      </g>
     </g>
    </g>
    <g id="xtick_4">
     <g id="line2d_4">
      <g>
       <use xlink:href="#m67f01b5324" x="443.427265" y="534.04" style="stroke: #000000; stroke-width: 0.8"/>
      </g>
     </g>
     <g id="text_4">
      <!-- 60 -->
      <g transform="translate(437.064765 548.638438) scale(0.1 -0.1)">
       <defs>
        <path id="DejaVuSans-36" d="M 2113 2584 
Q 1688 2584 1439 2293 
Q 1191 2003 1191 1497 
Q 1191 994 1439 701 
Q 1688 409 2113 409 
Q 2538 409 2786 701 
Q 3034 994 3034 1497 
Q 3034 2003 2786 2293 
Q 2538 2584 2113 2584 
z
M 3366 4563 
L 3366 3988 
Q 3128 4100 2886 4159 
Q 2644 4219 2406 4219 
Q 1781 4219 1451 3797 
Q 1122 3375 1075 2522 
Q 1259 2794 1537 2939 
Q 1816 3084 2150 3084 
Q 2853 3084 3261 2657 
Q 3669 2231 3669 1497 
Q 3669 778 3244 343 
Q 2819 -91 2113 -91 
Q 1303 -91 875 529 
Q 447 1150 447 2328 
Q 447 3434 972 4092 
Q 1497 4750 2381 4750 
Q 2619 4750 2861 4703 
Q 3103 4656 3366 4563 
z
" transform="scale(0.015625)"/>
       </defs>
       <use xlink:href="#DejaVuSans-36"/>
       <use xlink:href="#DejaVuSans-30" x="63.623047"/>
      </g>
     </g>
    </g>
    <g id="xtick_5">
     <g id="line2d_5">
      <g>
       <use xlink:href="#m67f01b5324" x="570.076271" y="534.04" style="stroke: #000000; stroke-width: 0.8"/>
      </g>
     </g>
     <g id="text_5">
      <!-- 80 -->
      <g transform="translate(563.713771 548.638438) scale(0.1 -0.1)">
       <defs>
        <path id="DejaVuSans-38" d="M 2034 2216 
Q 1584 2216 1326 1975 
Q 1069 1734 1069 1313 
Q 1069 891 1326 650 
Q 1584 409 2034 409 
Q 2484 409 2743 651 
Q 3003 894 3003 1313 
Q 3003 1734 2745 1975 
Q 2488 2216 2034 2216 
z
M 1403 2484 
Q 997 2584 770 2862 
Q 544 3141 544 3541 
Q 544 4100 942 4425 
Q 1341 4750 2034 4750 
Q 2731 4750 3128 4425 
Q 3525 4100 3525 3541 
Q 3525 3141 3298 2862 
Q 3072 2584 2669 2484 
Q 3125 2378 3379 2068 
Q 3634 1759 3634 1313 
Q 3634 634 3220 271 
Q 2806 -91 2034 -91 
Q 1263 -91 848 271 
Q 434 634 434 1313 
Q 434 1759 690 2068 
Q 947 2378 1403 2484 
z
M 1172 3481 
Q 1172 3119 1398 2916 
Q 1625 2713 2034 2713 
Q 2441 2713 2670 2916 
Q 2900 3119 2900 3481 
Q 2900 3844 2670 4047 
Q 2441 4250 2034 4250 
Q 1625 4250 1398 4047 
Q 1172 3844 1172 3481 
z
" transform="scale(0.015625)"/>
       </defs>
       <use xlink:href="#DejaVuSans-38"/>
       <use xlink:href="#DejaVuSans-30" x="63.623047"/>
      </g>
     </g>
    </g>
    <g id="xtick_6">
     <g id="line2d_6">
      <g>
       <use xlink:href="#m67f01b5324" x="696.725278" y="534.04" style="stroke: #000000; stroke-width: 0.8"/>
      </g>
     </g>
     <g id="text_6">
      <!-- 100 -->
      <g transform="translate(687.181528 548.638438) scale(0.1 -0.1)">
       <defs>
        <path id="DejaVuSans-31" d="M 794 531 
L 1825 531 
L 1825 4091 
L 703 3866 
L 703 4441 
L 1819 4666 
L 2450 4666 
L 2450 531 
L 3481 531 
L 3481 0 
L 794 0 
L 794 531 
z
" transform="scale(0.015625)"/>
       </defs>
       <use xlink:href="#DejaVuSans-31"/>
       <use xlink:href="#DejaVuSans-30" x="63.623047"/>
       <use xlink:href="#DejaVuSans-30" x="127.246094"/>
      </g>
     </g>
    </g>
    <g id="text_7">
     <!-- Energy Uncertainties -->
     <g transform="translate(327.707813 562.316563) scale(0.1 -0.1)">
      <defs>
       <path id="DejaVuSans-45" d="M 628 4666 
L 3578 4666 
L 3578 4134 
L 1259 4134 
L 1259 2753 
L 3481 2753 
L 3481 2222 
L 1259 2222 
L 1259 531 
L 3634 531 
L 3634 0 
L 628 0 
L 628 4666 
z
" transform="scale(0.015625)"/>
       <path id="DejaVuSans-6e" d="M 3513 2113 
L 3513 0 
L 2938 0 
L 2938 2094 
Q 2938 2591 2744 2837 
Q 2550 3084 2163 3084 
Q 1697 3084 1428 2787 
Q 1159 2491 1159 1978 
L 1159 0 
L 581 0 
L 581 3500 
L 1159 3500 
L 1159 2956 
Q 1366 3272 1645 3428 
Q 1925 3584 2291 3584 
Q 2894 3584 3203 3211 
Q 3513 2838 3513 2113 
z
" transform="scale(0.015625)"/>
       <path id="DejaVuSans-65" d="M 3597 1894 
L 3597 1613 
L 953 1613 
Q 991 1019 1311 708 
Q 1631 397 2203 397 
Q 2534 397 2845 478 
Q 3156 559 3463 722 
L 3463 178 
Q 3153 47 2828 -22 
Q 2503 -91 2169 -91 
Q 1331 -91 842 396 
Q 353 884 353 1716 
Q 353 2575 817 3079 
Q 1281 3584 2069 3584 
Q 2775 3584 3186 3129 
Q 3597 2675 3597 1894 
z
M 3022 2063 
Q 3016 2534 2758 2815 
Q 2500 3097 2075 3097 
Q 1594 3097 1305 2825 
Q 1016 2553 972 2059 
L 3022 2063 
z
" transform="scale(0.015625)"/>
       <path id="DejaVuSans-72" d="M 2631 2963 
Q 2534 3019 2420 3045 
Q 2306 3072 2169 3072 
Q 1681 3072 1420 2755 
Q 1159 2438 1159 1844 
L 1159 0 
L 581 0 
L 581 3500 
L 1159 3500 
L 1159 2956 
Q 1341 3275 1631 3429 
Q 1922 3584 2338 3584 
Q 2397 3584 2469 3576 
Q 2541 3569 2628 3553 
L 2631 2963 
z
" transform="scale(0.015625)"/>
       <path id="DejaVuSans-67" d="M 2906 1791 
Q 2906 2416 2648 2759 
Q 2391 3103 1925 3103 
Q 1463 3103 1205 2759 
Q 947 2416 947 1791 
Q 947 1169 1205 825 
Q 1463 481 1925 481 
Q 2391 481 2648 825 
Q 2906 1169 2906 1791 
z
M 3481 434 
Q 3481 -459 3084 -895 
Q 2688 -1331 1869 -1331 
Q 1566 -1331 1297 -1286 
Q 1028 -1241 775 -1147 
L 775 -588 
Q 1028 -725 1275 -790 
Q 1522 -856 1778 -856 
Q 2344 -856 2625 -561 
Q 2906 -266 2906 331 
L 2906 616 
Q 2728 306 2450 153 
Q 2172 0 1784 0 
Q 1141 0 747 490 
Q 353 981 353 1791 
Q 353 2603 747 3093 
Q 1141 3584 1784 3584 
Q 2172 3584 2450 3431 
Q 2728 3278 2906 2969 
L 2906 3500 
L 3481 3500 
L 3481 434 
z
" transform="scale(0.015625)"/>
       <path id="DejaVuSans-79" d="M 2059 -325 
Q 1816 -950 1584 -1140 
Q 1353 -1331 966 -1331 
L 506 -1331 
L 506 -850 
L 844 -850 
Q 1081 -850 1212 -737 
Q 1344 -625 1503 -206 
L 1606 56 
L 191 3500 
L 800 3500 
L 1894 763 
L 2988 3500 
L 3597 3500 
L 2059 -325 
z
" transform="scale(0.015625)"/>
       <path id="DejaVuSans-20" transform="scale(0.015625)"/>
       <path id="DejaVuSans-55" d="M 556 4666 
L 1191 4666 
L 1191 1831 
Q 1191 1081 1462 751 
Q 1734 422 2344 422 
Q 2950 422 3222 751 
Q 3494 1081 3494 1831 
L 3494 4666 
L 4128 4666 
L 4128 1753 
Q 4128 841 3676 375 
Q 3225 -91 2344 -91 
Q 1459 -91 1007 375 
Q 556 841 556 1753 
L 556 4666 
z
" transform="scale(0.015625)"/>
       <path id="DejaVuSans-63" d="M 3122 3366 
L 3122 2828 
Q 2878 2963 2633 3030 
Q 2388 3097 2138 3097 
Q 1578 3097 1268 2742 
Q 959 2388 959 1747 
Q 959 1106 1268 751 
Q 1578 397 2138 397 
Q 2388 397 2633 464 
Q 2878 531 3122 666 
L 3122 134 
Q 2881 22 2623 -34 
Q 2366 -91 2075 -91 
Q 1284 -91 818 406 
Q 353 903 353 1747 
Q 353 2603 823 3093 
Q 1294 3584 2113 3584 
Q 2378 3584 2631 3529 
Q 2884 3475 3122 3366 
z
" transform="scale(0.015625)"/>
       <path id="DejaVuSans-74" d="M 1172 4494 
L 1172 3500 
L 2356 3500 
L 2356 3053 
L 1172 3053 
L 1172 1153 
Q 1172 725 1289 603 
Q 1406 481 1766 481 
L 2356 481 
L 2356 0 
L 1766 0 
Q 1100 0 847 248 
Q 594 497 594 1153 
L 594 3053 
L 172 3053 
L 172 3500 
L 594 3500 
L 594 4494 
L 1172 4494 
z
" transform="scale(0.015625)"/>
       <path id="DejaVuSans-61" d="M 2194 1759 
Q 1497 1759 1228 1600 
Q 959 1441 959 1056 
Q 959 750 1161 570 
Q 1363 391 1709 391 
Q 2188 391 2477 730 
Q 2766 1069 2766 1631 
L 2766 1759 
L 2194 1759 
z
M 3341 1997 
L 3341 0 
L 2766 0 
L 2766 531 
Q 2569 213 2275 61 
Q 1981 -91 1556 -91 
Q 1019 -91 701 211 
Q 384 513 384 1019 
Q 384 1609 779 1909 
Q 1175 2209 1959 2209 
L 2766 2209 
L 2766 2266 
Q 2766 2663 2505 2880 
Q 2244 3097 1772 3097 
Q 1472 3097 1187 3025 
Q 903 2953 641 2809 
L 641 3341 
Q 956 3463 1253 3523 
Q 1550 3584 1831 3584 
Q 2591 3584 2966 3190 
Q 3341 2797 3341 1997 
z
" transform="scale(0.015625)"/>
       <path id="DejaVuSans-69" d="M 603 3500 
L 1178 3500 
L 1178 0 
L 603 0 
L 603 3500 
z
M 603 4863 
L 1178 4863 
L 1178 4134 
L 603 4134 
L 603 4863 
z
" transform="scale(0.015625)"/>
       <path id="DejaVuSans-73" d="M 2834 3397 
L 2834 2853 
Q 2591 2978 2328 3040 
Q 2066 3103 1784 3103 
Q 1356 3103 1142 2972 
Q 928 2841 928 2578 
Q 928 2378 1081 2264 
Q 1234 2150 1697 2047 
L 1894 2003 
Q 2506 1872 2764 1633 
Q 3022 1394 3022 966 
Q 3022 478 2636 193 
Q 2250 -91 1575 -91 
Q 1294 -91 989 -36 
Q 684 19 347 128 
L 347 722 
Q 666 556 975 473 
Q 1284 391 1588 391 
Q 1994 391 2212 530 
Q 2431 669 2431 922 
Q 2431 1156 2273 1281 
Q 2116 1406 1581 1522 
L 1381 1569 
Q 847 1681 609 1914 
Q 372 2147 372 2553 
Q 372 3047 722 3315 
Q 1072 3584 1716 3584 
Q 2034 3584 2315 3537 
Q 2597 3491 2834 3397 
z
" transform="scale(0.015625)"/>
      </defs>
      <use xlink:href="#DejaVuSans-45"/>
      <use xlink:href="#DejaVuSans-6e" x="63.183594"/>
      <use xlink:href="#DejaVuSans-65" x="126.5625"/>
      <use xlink:href="#DejaVuSans-72" x="188.085938"/>
      <use xlink:href="#DejaVuSans-67" x="227.449219"/>
      <use xlink:href="#DejaVuSans-79" x="290.925781"/>
      <use xlink:href="#DejaVuSans-20" x="350.105469"/>
      <use xlink:href="#DejaVuSans-55" x="381.892578"/>
      <use xlink:href="#DejaVuSans-6e" x="455.085938"/>
      <use xlink:href="#DejaVuSans-63" x="518.464844"/>
      <use xlink:href="#DejaVuSans-65" x="573.445312"/>
      <use xlink:href="#DejaVuSans-72" x="634.96875"/>
      <use xlink:href="#DejaVuSans-74" x="676.082031"/>
      <use xlink:href="#DejaVuSans-61" x="715.291016"/>
      <use xlink:href="#DejaVuSans-69" x="776.570312"/>
      <use xlink:href="#DejaVuSans-6e" x="804.353516"/>
      <use xlink:href="#DejaVuSans-74" x="867.732422"/>
      <use xlink:href="#DejaVuSans-69" x="906.941406"/>
      <use xlink:href="#DejaVuSans-65" x="934.724609"/>
      <use xlink:href="#DejaVuSans-73" x="996.248047"/>
     </g>
    </g>
   </g>
   <g id="matplotlib.axis_2">
    <g id="ytick_1">
     <g id="line2d_7">
      <defs>
       <path id="m508cf325dd" d="M 0 0 
L -3.5 0 
" style="stroke: #000000; stroke-width: 0.8"/>
      </defs>
      <g>
       <use xlink:href="#m508cf325dd" x="51.05" y="524.434251" style="stroke: #000000; stroke-width: 0.8"/>
      </g>
     </g>
     <g id="text_8">
      <!-- 0 -->
      <g transform="translate(37.6875 528.23347) scale(0.1 -0.1)">
       <use xlink:href="#DejaVuSans-30"/>
      </g>
     </g>
    </g>
    <g id="ytick_2">
     <g id="line2d_8">
      <g>
       <use xlink:href="#m508cf325dd" x="51.05" y="426.563425" style="stroke: #000000; stroke-width: 0.8"/>
      </g>
     </g>
     <g id="text_9">
      <!-- 20 -->
      <g transform="translate(31.325 430.362643) scale(0.1 -0.1)">
       <use xlink:href="#DejaVuSans-32"/>
       <use xlink:href="#DejaVuSans-30" x="63.623047"/>
      </g>
     </g>
    </g>
    <g id="ytick_3">
     <g id="line2d_9">
      <g>
       <use xlink:href="#m508cf325dd" x="51.05" y="328.692598" style="stroke: #000000; stroke-width: 0.8"/>
      </g>
     </g>
     <g id="text_10">
      <!-- 40 -->
      <g transform="translate(31.325 332.491817) scale(0.1 -0.1)">
       <use xlink:href="#DejaVuSans-34"/>
       <use xlink:href="#DejaVuSans-30" x="63.623047"/>
      </g>
     </g>
    </g>
    <g id="ytick_4">
     <g id="line2d_10">
      <g>
       <use xlink:href="#m508cf325dd" x="51.05" y="230.821771" style="stroke: #000000; stroke-width: 0.8"/>
      </g>
     </g>
     <g id="text_11">
      <!-- 60 -->
      <g transform="translate(31.325 234.62099) scale(0.1 -0.1)">
       <use xlink:href="#DejaVuSans-36"/>
       <use xlink:href="#DejaVuSans-30" x="63.623047"/>
      </g>
     </g>
    </g>
    <g id="ytick_5">
     <g id="line2d_11">
      <g>
       <use xlink:href="#m508cf325dd" x="51.05" y="132.950945" style="stroke: #000000; stroke-width: 0.8"/>
      </g>
     </g>
     <g id="text_12">
      <!-- 80 -->
      <g transform="translate(31.325 136.750164) scale(0.1 -0.1)">
       <use xlink:href="#DejaVuSans-38"/>
       <use xlink:href="#DejaVuSans-30" x="63.623047"/>
      </g>
     </g>
    </g>
    <g id="ytick_6">
     <g id="line2d_12">
      <g>
       <use xlink:href="#m508cf325dd" x="51.05" y="35.080118" style="stroke: #000000; stroke-width: 0.8"/>
      </g>
     </g>
     <g id="text_13">
      <!-- 100 -->
      <g transform="translate(24.9625 38.879337) scale(0.1 -0.1)">
       <use xlink:href="#DejaVuSans-31"/>
       <use xlink:href="#DejaVuSans-30" x="63.623047"/>
       <use xlink:href="#DejaVuSans-30" x="127.246094"/>
      </g>
     </g>
    </g>
    <g id="text_14">
     <!-- Force Errors -->
     <g transform="translate(18.882812 309.641563) rotate(-90) scale(0.1 -0.1)">
      <defs>
       <path id="DejaVuSans-46" d="M 628 4666 
L 3309 4666 
L 3309 4134 
L 1259 4134 
L 1259 2759 
L 3109 2759 
L 3109 2228 
L 1259 2228 
L 1259 0 
L 628 0 
L 628 4666 
z
" transform="scale(0.015625)"/>
       <path id="DejaVuSans-6f" d="M 1959 3097 
Q 1497 3097 1228 2736 
Q 959 2375 959 1747 
Q 959 1119 1226 758 
Q 1494 397 1959 397 
Q 2419 397 2687 759 
Q 2956 1122 2956 1747 
Q 2956 2369 2687 2733 
Q 2419 3097 1959 3097 
z
M 1959 3584 
Q 2709 3584 3137 3096 
Q 3566 2609 3566 1747 
Q 3566 888 3137 398 
Q 2709 -91 1959 -91 
Q 1206 -91 779 398 
Q 353 888 353 1747 
Q 353 2609 779 3096 
Q 1206 3584 1959 3584 
z
" transform="scale(0.015625)"/>
      </defs>
      <use xlink:href="#DejaVuSans-46"/>
      <use xlink:href="#DejaVuSans-6f" x="53.894531"/>
      <use xlink:href="#DejaVuSans-72" x="115.076172"/>
      <use xlink:href="#DejaVuSans-63" x="153.939453"/>
      <use xlink:href="#DejaVuSans-65" x="208.919922"/>
      <use xlink:href="#DejaVuSans-20" x="270.443359"/>
      <use xlink:href="#DejaVuSans-45" x="302.230469"/>
      <use xlink:href="#DejaVuSans-72" x="365.414062"/>
      <use xlink:href="#DejaVuSans-72" x="404.777344"/>
      <use xlink:href="#DejaVuSans-6f" x="443.640625"/>
      <use xlink:href="#DejaVuSans-72" x="504.822266"/>
      <use xlink:href="#DejaVuSans-73" x="545.935547"/>
     </g>
    </g>
   </g>
   <g id="line2d_13">
    <path d="M 51.05 534.04 
L 709.2 25.44 
" clip-path="url(#pdd37b36315)" style="fill: none; stroke-dasharray: 5.55,2.4; stroke-dashoffset: 0; stroke: #ff0000; stroke-width: 1.5"/>
   </g>
   <g id="patch_3">
    <path d="M 51.05 534.04 
L 51.05 25.44 
" style="fill: none; stroke: #000000; stroke-width: 0.8; stroke-linejoin: miter; stroke-linecap: square"/>
   </g>
   <g id="patch_4">
    <path d="M 709.2 534.04 
L 709.2 25.44 
" style="fill: none; stroke: #000000; stroke-width: 0.8; stroke-linejoin: miter; stroke-linecap: square"/>
   </g>
   <g id="patch_5">
    <path d="M 51.05 534.04 
L 709.2 534.04 
" style="fill: none; stroke: #000000; stroke-width: 0.8; stroke-linejoin: miter; stroke-linecap: square"/>
   </g>
   <g id="patch_6">
    <path d="M 51.05 25.44 
L 709.2 25.44 
" style="fill: none; stroke: #000000; stroke-width: 0.8; stroke-linejoin: miter; stroke-linecap: square"/>
   </g>
   <g id="text_15">
    <!-- Correlation in: 0.8648304567461971 -->
    <g transform="translate(116.865 65.102187) scale(0.1 -0.1)">
     <defs>
      <path id="DejaVuSans-43" d="M 4122 4306 
L 4122 3641 
Q 3803 3938 3442 4084 
Q 3081 4231 2675 4231 
Q 1875 4231 1450 3742 
Q 1025 3253 1025 2328 
Q 1025 1406 1450 917 
Q 1875 428 2675 428 
Q 3081 428 3442 575 
Q 3803 722 4122 1019 
L 4122 359 
Q 3791 134 3420 21 
Q 3050 -91 2638 -91 
Q 1578 -91 968 557 
Q 359 1206 359 2328 
Q 359 3453 968 4101 
Q 1578 4750 2638 4750 
Q 3056 4750 3426 4639 
Q 3797 4528 4122 4306 
z
" transform="scale(0.015625)"/>
      <path id="DejaVuSans-6c" d="M 603 4863 
L 1178 4863 
L 1178 0 
L 603 0 
L 603 4863 
z
" transform="scale(0.015625)"/>
      <path id="DejaVuSans-3a" d="M 750 794 
L 1409 794 
L 1409 0 
L 750 0 
L 750 794 
z
M 750 3309 
L 1409 3309 
L 1409 2516 
L 750 2516 
L 750 3309 
z
" transform="scale(0.015625)"/>
      <path id="DejaVuSans-2e" d="M 684 794 
L 1344 794 
L 1344 0 
L 684 0 
L 684 794 
z
" transform="scale(0.015625)"/>
      <path id="DejaVuSans-33" d="M 2597 2516 
Q 3050 2419 3304 2112 
Q 3559 1806 3559 1356 
Q 3559 666 3084 287 
Q 2609 -91 1734 -91 
Q 1441 -91 1130 -33 
Q 819 25 488 141 
L 488 750 
Q 750 597 1062 519 
Q 1375 441 1716 441 
Q 2309 441 2620 675 
Q 2931 909 2931 1356 
Q 2931 1769 2642 2001 
Q 2353 2234 1838 2234 
L 1294 2234 
L 1294 2753 
L 1863 2753 
Q 2328 2753 2575 2939 
Q 2822 3125 2822 3475 
Q 2822 3834 2567 4026 
Q 2313 4219 1838 4219 
Q 1578 4219 1281 4162 
Q 984 4106 628 3988 
L 628 4550 
Q 988 4650 1302 4700 
Q 1616 4750 1894 4750 
Q 2613 4750 3031 4423 
Q 3450 4097 3450 3541 
Q 3450 3153 3228 2886 
Q 3006 2619 2597 2516 
z
" transform="scale(0.015625)"/>
      <path id="DejaVuSans-35" d="M 691 4666 
L 3169 4666 
L 3169 4134 
L 1269 4134 
L 1269 2991 
Q 1406 3038 1543 3061 
Q 1681 3084 1819 3084 
Q 2600 3084 3056 2656 
Q 3513 2228 3513 1497 
Q 3513 744 3044 326 
Q 2575 -91 1722 -91 
Q 1428 -91 1123 -41 
Q 819 9 494 109 
L 494 744 
Q 775 591 1075 516 
Q 1375 441 1709 441 
Q 2250 441 2565 725 
Q 2881 1009 2881 1497 
Q 2881 1984 2565 2268 
Q 2250 2553 1709 2553 
Q 1456 2553 1204 2497 
Q 953 2441 691 2322 
L 691 4666 
z
" transform="scale(0.015625)"/>
      <path id="DejaVuSans-37" d="M 525 4666 
L 3525 4666 
L 3525 4397 
L 1831 0 
L 1172 0 
L 2766 4134 
L 525 4134 
L 525 4666 
z
" transform="scale(0.015625)"/>
      <path id="DejaVuSans-39" d="M 703 97 
L 703 672 
Q 941 559 1184 500 
Q 1428 441 1663 441 
Q 2288 441 2617 861 
Q 2947 1281 2994 2138 
Q 2813 1869 2534 1725 
Q 2256 1581 1919 1581 
Q 1219 1581 811 2004 
Q 403 2428 403 3163 
Q 403 3881 828 4315 
Q 1253 4750 1959 4750 
Q 2769 4750 3195 4129 
Q 3622 3509 3622 2328 
Q 3622 1225 3098 567 
Q 2575 -91 1691 -91 
Q 1453 -91 1209 -44 
Q 966 3 703 97 
z
M 1959 2075 
Q 2384 2075 2632 2365 
Q 2881 2656 2881 3163 
Q 2881 3666 2632 3958 
Q 2384 4250 1959 4250 
Q 1534 4250 1286 3958 
Q 1038 3666 1038 3163 
Q 1038 2656 1286 2365 
Q 1534 2075 1959 2075 
z
" transform="scale(0.015625)"/>
     </defs>
     <use xlink:href="#DejaVuSans-43"/>
     <use xlink:href="#DejaVuSans-6f" x="69.824219"/>
     <use xlink:href="#DejaVuSans-72" x="131.005859"/>
     <use xlink:href="#DejaVuSans-72" x="170.369141"/>
     <use xlink:href="#DejaVuSans-65" x="209.232422"/>
     <use xlink:href="#DejaVuSans-6c" x="270.755859"/>
     <use xlink:href="#DejaVuSans-61" x="298.539062"/>
     <use xlink:href="#DejaVuSans-74" x="359.818359"/>
     <use xlink:href="#DejaVuSans-69" x="399.027344"/>
     <use xlink:href="#DejaVuSans-6f" x="426.810547"/>
     <use xlink:href="#DejaVuSans-6e" x="487.992188"/>
     <use xlink:href="#DejaVuSans-20" x="551.371094"/>
     <use xlink:href="#DejaVuSans-69" x="583.158203"/>
     <use xlink:href="#DejaVuSans-6e" x="610.941406"/>
     <use xlink:href="#DejaVuSans-3a" x="674.320312"/>
     <use xlink:href="#DejaVuSans-20" x="708.011719"/>
     <use xlink:href="#DejaVuSans-30" x="739.798828"/>
     <use xlink:href="#DejaVuSans-2e" x="803.421875"/>
     <use xlink:href="#DejaVuSans-38" x="835.208984"/>
     <use xlink:href="#DejaVuSans-36" x="898.832031"/>
     <use xlink:href="#DejaVuSans-34" x="962.455078"/>
     <use xlink:href="#DejaVuSans-38" x="1026.078125"/>
     <use xlink:href="#DejaVuSans-33" x="1089.701172"/>
     <use xlink:href="#DejaVuSans-30" x="1153.324219"/>
     <use xlink:href="#DejaVuSans-34" x="1216.947266"/>
     <use xlink:href="#DejaVuSans-35" x="1280.570312"/>
     <use xlink:href="#DejaVuSans-36" x="1344.193359"/>
     <use xlink:href="#DejaVuSans-37" x="1407.816406"/>
     <use xlink:href="#DejaVuSans-34" x="1471.439453"/>
     <use xlink:href="#DejaVuSans-36" x="1535.0625"/>
     <use xlink:href="#DejaVuSans-31" x="1598.685547"/>
     <use xlink:href="#DejaVuSans-39" x="1662.308594"/>
     <use xlink:href="#DejaVuSans-37" x="1725.931641"/>
     <use xlink:href="#DejaVuSans-31" x="1789.554688"/>
    </g>
    <!-- Correlation Out: 0.2060846372066608 -->
    <g transform="translate(116.865 76.3) scale(0.1 -0.1)">
     <defs>
      <path id="DejaVuSans-4f" d="M 2522 4238 
Q 1834 4238 1429 3725 
Q 1025 3213 1025 2328 
Q 1025 1447 1429 934 
Q 1834 422 2522 422 
Q 3209 422 3611 934 
Q 4013 1447 4013 2328 
Q 4013 3213 3611 3725 
Q 3209 4238 2522 4238 
z
M 2522 4750 
Q 3503 4750 4090 4092 
Q 4678 3434 4678 2328 
Q 4678 1225 4090 567 
Q 3503 -91 2522 -91 
Q 1538 -91 948 565 
Q 359 1222 359 2328 
Q 359 3434 948 4092 
Q 1538 4750 2522 4750 
z
" transform="scale(0.015625)"/>
      <path id="DejaVuSans-75" d="M 544 1381 
L 544 3500 
L 1119 3500 
L 1119 1403 
Q 1119 906 1312 657 
Q 1506 409 1894 409 
Q 2359 409 2629 706 
Q 2900 1003 2900 1516 
L 2900 3500 
L 3475 3500 
L 3475 0 
L 2900 0 
L 2900 538 
Q 2691 219 2414 64 
Q 2138 -91 1772 -91 
Q 1169 -91 856 284 
Q 544 659 544 1381 
z
M 1991 3584 
L 1991 3584 
z
" transform="scale(0.015625)"/>
     </defs>
     <use xlink:href="#DejaVuSans-43"/>
     <use xlink:href="#DejaVuSans-6f" x="69.824219"/>
     <use xlink:href="#DejaVuSans-72" x="131.005859"/>
     <use xlink:href="#DejaVuSans-72" x="170.369141"/>
     <use xlink:href="#DejaVuSans-65" x="209.232422"/>
     <use xlink:href="#DejaVuSans-6c" x="270.755859"/>
     <use xlink:href="#DejaVuSans-61" x="298.539062"/>
     <use xlink:href="#DejaVuSans-74" x="359.818359"/>
     <use xlink:href="#DejaVuSans-69" x="399.027344"/>
     <use xlink:href="#DejaVuSans-6f" x="426.810547"/>
     <use xlink:href="#DejaVuSans-6e" x="487.992188"/>
     <use xlink:href="#DejaVuSans-20" x="551.371094"/>
     <use xlink:href="#DejaVuSans-4f" x="583.158203"/>
     <use xlink:href="#DejaVuSans-75" x="661.869141"/>
     <use xlink:href="#DejaVuSans-74" x="725.248047"/>
     <use xlink:href="#DejaVuSans-3a" x="764.457031"/>
     <use xlink:href="#DejaVuSans-20" x="798.148438"/>
     <use xlink:href="#DejaVuSans-30" x="829.935547"/>
     <use xlink:href="#DejaVuSans-2e" x="893.558594"/>
     <use xlink:href="#DejaVuSans-32" x="925.345703"/>
     <use xlink:href="#DejaVuSans-30" x="988.96875"/>
     <use xlink:href="#DejaVuSans-36" x="1052.591797"/>
     <use xlink:href="#DejaVuSans-30" x="1116.214844"/>
     <use xlink:href="#DejaVuSans-38" x="1179.837891"/>
     <use xlink:href="#DejaVuSans-34" x="1243.460938"/>
     <use xlink:href="#DejaVuSans-36" x="1307.083984"/>
     <use xlink:href="#DejaVuSans-33" x="1370.707031"/>
     <use xlink:href="#DejaVuSans-37" x="1434.330078"/>
     <use xlink:href="#DejaVuSans-32" x="1497.953125"/>
     <use xlink:href="#DejaVuSans-30" x="1561.576172"/>
     <use xlink:href="#DejaVuSans-36" x="1625.199219"/>
     <use xlink:href="#DejaVuSans-36" x="1688.822266"/>
     <use xlink:href="#DejaVuSans-36" x="1752.445312"/>
     <use xlink:href="#DejaVuSans-30" x="1816.068359"/>
     <use xlink:href="#DejaVuSans-38" x="1879.691406"/>
    </g>
   </g>
   <g id="text_16">
    <!-- MVE -->
    <g transform="translate(367.0525 19.44) scale(0.12 -0.12)">
     <defs>
      <path id="DejaVuSans-4d" d="M 628 4666 
L 1569 4666 
L 2759 1491 
L 3956 4666 
L 4897 4666 
L 4897 0 
L 4281 0 
L 4281 4097 
L 3078 897 
L 2444 897 
L 1241 4097 
L 1241 0 
L 628 0 
L 628 4666 
z
" transform="scale(0.015625)"/>
      <path id="DejaVuSans-56" d="M 1831 0 
L 50 4666 
L 709 4666 
L 2188 738 
L 3669 4666 
L 4325 4666 
L 2547 0 
L 1831 0 
z
" transform="scale(0.015625)"/>
     </defs>
     <use xlink:href="#DejaVuSans-4d"/>
     <use xlink:href="#DejaVuSans-56" x="86.279297"/>
     <use xlink:href="#DejaVuSans-45" x="154.6875"/>
    </g>
   </g>
   <g id="legend_1">
    <g id="patch_7">
     <path d="M 577.7375 62.79625 
L 702.2 62.79625 
Q 704.2 62.79625 704.2 60.79625 
L 704.2 32.44 
Q 704.2 30.44 702.2 30.44 
L 577.7375 30.44 
Q 575.7375 30.44 575.7375 32.44 
L 575.7375 60.79625 
Q 575.7375 62.79625 577.7375 62.79625 
z
" style="fill: #ffffff; opacity: 0.8; stroke: #cccccc; stroke-linejoin: miter"/>
    </g>
    <g id="line2d_14">
     <defs>
      <path id="ma0d8f51516" d="M 0 2.5 
C 0.663008 2.5 1.29895 2.236584 1.767767 1.767767 
C 2.236584 1.29895 2.5 0.663008 2.5 0 
C 2.5 -0.663008 2.236584 -1.29895 1.767767 -1.767767 
C 1.29895 -2.236584 0.663008 -2.5 0 -2.5 
C -0.663008 -2.5 -1.29895 -2.236584 -1.767767 -1.767767 
C -2.236584 -1.29895 -2.5 -0.663008 -2.5 0 
C -2.5 0.663008 -2.236584 1.29895 -1.767767 1.767767 
C -1.29895 2.236584 -0.663008 2.5 0 2.5 
z
" style="stroke: #ffffff"/>
     </defs>
     <g>
      <use xlink:href="#ma0d8f51516" x="589.7375" y="38.538437" style="fill: #0000ff; stroke: #ffffff"/>
     </g>
    </g>
    <g id="text_17">
     <!-- In Distribution -->
     <g transform="translate(607.7375 42.038437) scale(0.1 -0.1)">
      <defs>
       <path id="DejaVuSans-49" d="M 628 4666 
L 1259 4666 
L 1259 0 
L 628 0 
L 628 4666 
z
" transform="scale(0.015625)"/>
       <path id="DejaVuSans-44" d="M 1259 4147 
L 1259 519 
L 2022 519 
Q 2988 519 3436 956 
Q 3884 1394 3884 2338 
Q 3884 3275 3436 3711 
Q 2988 4147 2022 4147 
L 1259 4147 
z
M 628 4666 
L 1925 4666 
Q 3281 4666 3915 4102 
Q 4550 3538 4550 2338 
Q 4550 1131 3912 565 
Q 3275 0 1925 0 
L 628 0 
L 628 4666 
z
" transform="scale(0.015625)"/>
       <path id="DejaVuSans-62" d="M 3116 1747 
Q 3116 2381 2855 2742 
Q 2594 3103 2138 3103 
Q 1681 3103 1420 2742 
Q 1159 2381 1159 1747 
Q 1159 1113 1420 752 
Q 1681 391 2138 391 
Q 2594 391 2855 752 
Q 3116 1113 3116 1747 
z
M 1159 2969 
Q 1341 3281 1617 3432 
Q 1894 3584 2278 3584 
Q 2916 3584 3314 3078 
Q 3713 2572 3713 1747 
Q 3713 922 3314 415 
Q 2916 -91 2278 -91 
Q 1894 -91 1617 61 
Q 1341 213 1159 525 
L 1159 0 
L 581 0 
L 581 4863 
L 1159 4863 
L 1159 2969 
z
" transform="scale(0.015625)"/>
      </defs>
      <use xlink:href="#DejaVuSans-49"/>
      <use xlink:href="#DejaVuSans-6e" x="29.492188"/>
      <use xlink:href="#DejaVuSans-20" x="92.871094"/>
      <use xlink:href="#DejaVuSans-44" x="124.658203"/>
      <use xlink:href="#DejaVuSans-69" x="201.660156"/>
      <use xlink:href="#DejaVuSans-73" x="229.443359"/>
      <use xlink:href="#DejaVuSans-74" x="281.542969"/>
      <use xlink:href="#DejaVuSans-72" x="320.751953"/>
      <use xlink:href="#DejaVuSans-69" x="361.865234"/>
      <use xlink:href="#DejaVuSans-62" x="389.648438"/>
      <use xlink:href="#DejaVuSans-75" x="453.125"/>
      <use xlink:href="#DejaVuSans-74" x="516.503906"/>
      <use xlink:href="#DejaVuSans-69" x="555.712891"/>
      <use xlink:href="#DejaVuSans-6f" x="583.496094"/>
      <use xlink:href="#DejaVuSans-6e" x="644.677734"/>
     </g>
    </g>
    <g id="line2d_15">
     <defs>
      <path id="m43a499ac02" d="M 0 2.5 
C 0.663008 2.5 1.29895 2.236584 1.767767 1.767767 
C 2.236584 1.29895 2.5 0.663008 2.5 0 
C 2.5 -0.663008 2.236584 -1.29895 1.767767 -1.767767 
C 1.29895 -2.236584 0.663008 -2.5 0 -2.5 
C -0.663008 -2.5 -1.29895 -2.236584 -1.767767 -1.767767 
C -2.236584 -1.29895 -2.5 -0.663008 -2.5 0 
C -2.5 0.663008 -2.236584 1.29895 -1.767767 1.767767 
C -1.29895 2.236584 -0.663008 2.5 0 2.5 
z
" style="stroke: #ffffff"/>
     </defs>
     <g>
      <use xlink:href="#m43a499ac02" x="589.7375" y="53.216563" style="fill: #008000; stroke: #ffffff"/>
     </g>
    </g>
    <g id="text_18">
     <!-- Out of Distribution -->
     <g transform="translate(607.7375 56.716563) scale(0.1 -0.1)">
      <defs>
       <path id="DejaVuSans-66" d="M 2375 4863 
L 2375 4384 
L 1825 4384 
Q 1516 4384 1395 4259 
Q 1275 4134 1275 3809 
L 1275 3500 
L 2222 3500 
L 2222 3053 
L 1275 3053 
L 1275 0 
L 697 0 
L 697 3053 
L 147 3053 
L 147 3500 
L 697 3500 
L 697 3744 
Q 697 4328 969 4595 
Q 1241 4863 1831 4863 
L 2375 4863 
z
" transform="scale(0.015625)"/>
      </defs>
      <use xlink:href="#DejaVuSans-4f"/>
      <use xlink:href="#DejaVuSans-75" x="78.710938"/>
      <use xlink:href="#DejaVuSans-74" x="142.089844"/>
      <use xlink:href="#DejaVuSans-20" x="181.298828"/>
      <use xlink:href="#DejaVuSans-6f" x="213.085938"/>
      <use xlink:href="#DejaVuSans-66" x="274.267578"/>
      <use xlink:href="#DejaVuSans-20" x="309.472656"/>
      <use xlink:href="#DejaVuSans-44" x="341.259766"/>
      <use xlink:href="#DejaVuSans-69" x="418.261719"/>
      <use xlink:href="#DejaVuSans-73" x="446.044922"/>
      <use xlink:href="#DejaVuSans-74" x="498.144531"/>
      <use xlink:href="#DejaVuSans-72" x="537.353516"/>
      <use xlink:href="#DejaVuSans-69" x="578.466797"/>
      <use xlink:href="#DejaVuSans-62" x="606.25"/>
      <use xlink:href="#DejaVuSans-75" x="669.726562"/>
      <use xlink:href="#DejaVuSans-74" x="733.105469"/>
      <use xlink:href="#DejaVuSans-69" x="772.314453"/>
      <use xlink:href="#DejaVuSans-6f" x="800.097656"/>
      <use xlink:href="#DejaVuSans-6e" x="861.279297"/>
     </g>
    </g>
   </g>
  </g>
 </g>
 <defs>
  <clipPath id="pdd37b36315">
   <rect x="51.05" y="25.44" width="658.15" height="508.6"/>
  </clipPath>
 </defs>
</svg>
