<?xml version="1.0" encoding="utf-8" standalone="no"?>
<!DOCTYPE svg PUBLIC "-//W3C//DTD SVG 1.1//EN"
  "http://www.w3.org/Graphics/SVG/1.1/DTD/svg11.dtd">
<svg xmlns:xlink="http://www.w3.org/1999/xlink" width="720pt" height="576pt" viewBox="0 0 720 576" xmlns="http://www.w3.org/2000/svg" version="1.1">
 <metadata>
  <rdf:RDF xmlns:dc="http://purl.org/dc/elements/1.1/" xmlns:cc="http://creativecommons.org/ns#" xmlns:rdf="http://www.w3.org/1999/02/22-rdf-syntax-ns#">
   <cc:Work>
    <dc:type rdf:resource="http://purl.org/dc/dcmitype/StillImage"/>
    <dc:date>2024-12-08T09:08:45.184194</dc:date>
    <dc:format>image/svg+xml</dc:format>
    <dc:creator>
     <cc:Agent>
      <dc:title>Matplotlib v3.8.4, https://matplotlib.org/</dc:title>
     </cc:Agent>
    </dc:creator>
   </cc:Work>
  </rdf:RDF>
 </metadata>
 <defs>
  <style type="text/css">*{stroke-linejoin: round; stroke-linecap: butt}</style>
 </defs>
 <g id="figure_1">
  <g id="patch_1">
   <path d="M 0 576 
L 720 576 
L 720 0 
L 0 0 
z
" style="fill: #ffffff"/>
  </g>
  <g id="axes_1">
   <g id="patch_2">
    <path d="M 69.68 499.48 
L 696.24 499.48 
L 696.24 23.76 
L 69.68 23.76 
z
" style="fill: #ffffff"/>
   </g>
   <g id="QuadContourSet_1">
    <path d="M -80.198261 445.520795 
L 60103.722569 442.217567 
L 161718.14779 434.633353 
L 217256.43662 427.049139 
L 226432.211993 425.435819 
L 287162.714866 419.464925 
L 337448.780626 411.880711 
L 368995.752839 404.296497 
L 389857.727756 396.712283 
L 404209.830846 389.128069 
L 414329.155588 381.543855 
L 421548.943475 373.959641 
L 426714.489349 366.375426 
L 430394.821123 358.791212 
L 432982.731979 351.206998 
L 434748.865842 343.622784 
L 435877.456843 336.03857 
L 436491.175912 328.454356 
L 436664.586626 320.870142 
L 436427.937934 313.285928 
L 435770.168749 305.701714 
L 434651.666001 298.1175 
L 433028.179563 290.533286 
L 430874.561021 282.949071 
L 428191.727951 275.364857 
L 424987.761588 267.780643 
L 421240.960489 260.196429 
L 416864.777429 252.612215 
L 411691.088273 245.028001 
L 405480.288981 237.443787 
L 397966.404497 229.859573 
L 388937.661674 222.275359 
L 378317.966989 214.691145 
L 366176.110579 207.10693 
L 352618.794612 199.522716 
L 337629.636468 191.938502 
L 320950.803722 184.354288 
L 301997.508034 176.770074 
L 279772.767681 169.18586 
L 252937.0504 161.601646 
L 226432.211993 155.28232 
L 223311.971275 154.017432 
L 203709.147191 146.433218 
L 182041.187859 138.849004 
L 159402.272933 131.264789 
L 135611.691893 123.680575 
L 108820.682528 116.096361 
L 76651.177728 108.512147 
L 38096.450333 100.927933 
L -80.198261 94.097578 
L -36257.656555 100.927933 
L -72858.764316 108.512147 
L -103684.478219 116.096361 
L -129415.110889 123.680575 
L -151882.823054 131.264789 
L -172720.637191 138.849004 
L -192466.574827 146.433218 
L -210649.786927 154.017432 
L -226592.608515 161.601646 
L -226592.608515 161.601646 
L -257969.335978 169.18586 
L -283751.360604 176.770074 
L -305222.740412 184.354288 
L -323666.914267 191.938502 
L -339984.91717 199.522716 
L -354681.819801 207.10693 
L -367959.81334 214.691145 
L -379806.348712 222.275359 
L -390119.608624 229.859573 
L -398859.525226 237.443787 
L -406129.601975 245.028001 
L -412151.478027 252.612215 
L -417184.822667 260.196429 
L -421456.160647 267.780643 
L -425121.729557 275.364857 
L -428261.389428 282.949071 
L -430895.753314 290.533286 
L -433018.331006 298.1175 
L -434628.131362 305.701714 
L -435746.451663 313.285928 
L -436411.483095 320.870142 
L -436657.358682 328.454356 
L -436491.144812 336.03857 
L -435878.56667 343.622784 
L -434738.498303 351.206998 
L -432936.647435 358.791212 
L -430269.210581 366.375426 
L -426434.250518 373.959641 
L -420991.069692 381.543855 
L -413298.036991 389.128069 
L -402393.441441 396.712283 
L -386736.578107 404.296497 
L -363646.70667 411.880711 
L -328129.737579 419.464925 
L -270429.698852 427.049139 
L -226592.608515 431.174527 
L -192599.907883 434.633353 
L -73802.468458 442.217567 
z
M -34887.717533 419.464925 
L -124005.828457 411.880711 
L -179696.300409 404.296497 
L -216191.262811 396.712283 
L -226592.608515 393.909117 
L -253984.880775 389.128069 
L -287307.123054 381.543855 
L -310970.645016 373.959641 
L -327717.892093 366.375426 
L -339432.077655 358.791212 
L -347406.116971 351.206998 
L -352515.496009 343.622784 
L -355340.269247 336.03857 
L -356235.982738 328.454356 
L -355359.52532 320.870142 
L -352686.885121 313.285928 
L -348067.923979 305.701714 
L -341325.348232 298.1175 
L -332353.261525 290.533286 
L -321150.80506 282.949071 
L -307754.07788 275.364857 
L -292091.383374 267.780643 
L -273836.542574 260.196429 
L -252328.32509 252.612215 
L -226592.608515 245.028001 
L -226592.608515 245.028001 
L -213191.161377 237.443787 
L -197173.077973 229.859573 
L -178279.417396 222.275359 
L -156470.658207 214.691145 
L -131861.325912 207.10693 
L -104508.685188 199.522716 
L -74172.459065 191.938502 
L -40131.774083 184.354288 
L -1005.225297 176.770074 
L -80.198261 176.597957 
L 894.223469 176.770074 
L 42054.833603 184.354288 
L 77871.993706 191.938502 
L 109906.397907 199.522716 
L 138922.934492 207.10693 
L 165068.734409 214.691145 
L 188092.978438 222.275359 
L 207721.159667 229.859573 
L 223995.896726 237.443787 
L 226432.211993 238.695046 
L 248293.473133 245.028001 
L 270555.023121 252.612215 
L 289382.329239 260.196429 
L 305507.87574 267.780643 
L 319321.134085 275.364857 
L 330931.739069 282.949071 
L 340310.377616 290.533286 
L 347443.836151 298.1175 
L 352422.843123 305.701714 
L 355424.201378 313.285928 
L 356616.476315 320.870142 
L 356055.348451 328.454356 
L 353621.198767 336.03857 
L 349000.643842 343.622784 
L 341669.562961 351.206998 
L 330836.102575 358.791212 
L 315333.102058 366.375426 
L 293463.58263 373.959641 
L 262771.114324 381.543855 
L 226432.211993 388.116216 
L 223598.262797 389.128069 
L 198528.964443 396.712283 
L 163045.258715 404.296497 
L 110919.985467 411.880711 
L 30568.0911 419.464925 
L -80.198261 421.789057 
z
" clip-path="url(#p3a82468adf)" style="fill: #ecf4fb"/>
    <path d="M -80.198261 421.789057 
L 30568.0911 419.464925 
L 110919.985467 411.880711 
L 163045.258715 404.296497 
L 198528.964443 396.712283 
L 223598.262797 389.128069 
L 226432.211993 388.116216 
L 262771.114324 381.543855 
L 293463.58263 373.959641 
L 315333.102058 366.375426 
L 330836.102575 358.791212 
L 341669.562961 351.206998 
L 349000.643842 343.622784 
L 353621.198767 336.03857 
L 356055.348451 328.454356 
L 356616.476315 320.870142 
L 355424.201378 313.285928 
L 352422.843123 305.701714 
L 347443.836151 298.1175 
L 340310.377616 290.533286 
L 330931.739069 282.949071 
L 319321.134085 275.364857 
L 305507.87574 267.780643 
L 289382.329239 260.196429 
L 270555.023121 252.612215 
L 248293.473133 245.028001 
L 226432.211993 238.695046 
L 223995.896726 237.443787 
L 207721.159667 229.859573 
L 188092.978438 222.275359 
L 165068.734409 214.691145 
L 138922.934492 207.10693 
L 109906.397907 199.522716 
L 77871.993706 191.938502 
L 42054.833603 184.354288 
L 894.223469 176.770074 
L -80.198261 176.597957 
L -1005.225297 176.770074 
L -40131.774083 184.354288 
L -74172.459065 191.938502 
L -104508.685188 199.522716 
L -131861.325912 207.10693 
L -156470.658207 214.691145 
L -178279.417396 222.275359 
L -197173.077973 229.859573 
L -213191.161377 237.443787 
L -226592.608515 245.028001 
L -226592.608515 245.028001 
L -252328.32509 252.612215 
L -273836.542574 260.196429 
L -292091.383374 267.780643 
L -307754.07788 275.364857 
L -321150.80506 282.949071 
L -332353.261525 290.533286 
L -341325.348232 298.1175 
L -348067.923979 305.701714 
L -352686.885121 313.285928 
L -355359.52532 320.870142 
L -356235.982738 328.454356 
L -355340.269247 336.03857 
L -352515.496009 343.622784 
L -347406.116971 351.206998 
L -339432.077655 358.791212 
L -327717.892093 366.375426 
L -310970.645016 373.959641 
L -287307.123054 381.543855 
L -253984.880775 389.128069 
L -226592.608515 393.909117 
L -216191.262811 396.712283 
L -179696.300409 404.296497 
L -124005.828457 411.880711 
L -34887.717533 419.464925 
z
M -82493.568225 404.296497 
L -140791.188166 396.712283 
L -180421.27354 389.128069 
L -207740.583084 381.543855 
L -226592.608515 373.959641 
L -226592.608515 373.959641 
L -252775.845574 366.375426 
L -271101.178341 358.791212 
L -283585.705095 351.206998 
L -291595.761271 343.622784 
L -296037.153684 336.03857 
L -297465.968018 328.454356 
L -296128.696508 320.870142 
L -291988.943922 313.285928 
L -284811.798325 305.701714 
L -274318.313299 298.1175 
L -260340.769511 290.533286 
L -242876.956273 282.949071 
L -226592.608515 276.921441 
L -224568.701204 275.364857 
L -213877.732226 267.780643 
L -201486.102247 260.196429 
L -186986.43606 252.612215 
L -169778.368194 245.028001 
L -149135.465644 237.443787 
L -124357.490883 229.859573 
L -94981.102592 222.275359 
L -60928.526992 214.691145 
L -22419.889985 207.10693 
L -80.198261 202.899863 
L 23483.77626 207.10693 
L 64175.873037 214.691145 
L 100132.388114 222.275359 
L 130949.3458 229.859573 
L 156644.363272 237.443787 
L 177785.73562 245.028001 
L 195251.118442 252.612215 
L 209901.626721 260.196429 
L 222368.856909 267.780643 
L 226432.211993 270.512923 
L 239761.112525 275.364857 
L 257895.919322 282.949071 
L 272554.429385 290.533286 
L 283714.443514 298.1175 
L 291514.614479 305.701714 
L 296228.611477 313.285928 
L 298119.235178 320.870142 
L 297274.77291 328.454356 
L 293510.296148 336.03857 
L 286337.897653 343.622784 
L 274940.08682 351.206998 
L 258080.976393 358.791212 
L 233938.252819 366.375426 
L 226432.211993 368.235115 
L 215029.251377 373.959641 
L 194996.243001 381.543855 
L 167495.083493 389.128069 
L 129235.216229 396.712283 
L 74766.758529 404.296497 
L -80.198261 411.483354 
z
" clip-path="url(#p3a82468adf)" style="fill: #d8e7f5"/>
    <path d="M -80.198261 411.483354 
L 74766.758529 404.296497 
L 129235.216229 396.712283 
L 167495.083493 389.128069 
L 194996.243001 381.543855 
L 215029.251377 373.959641 
L 226432.211993 368.235115 
L 233938.252819 366.375426 
L 258080.976393 358.791212 
L 274940.08682 351.206998 
L 286337.897653 343.622784 
L 293510.296148 336.03857 
L 297274.77291 328.454356 
L 298119.235178 320.870142 
L 296228.611477 313.285928 
L 291514.614479 305.701714 
L 283714.443514 298.1175 
L 272554.429385 290.533286 
L 257895.919322 282.949071 
L 239761.112525 275.364857 
L 226432.211993 270.512923 
L 222368.856909 267.780643 
L 209901.626721 260.196429 
L 195251.118442 252.612215 
L 177785.73562 245.028001 
L 156644.363272 237.443787 
L 130949.3458 229.859573 
L 100132.388114 222.275359 
L 64175.873037 214.691145 
L 23483.77626 207.10693 
L -80.198261 202.899863 
L -22419.889985 207.10693 
L -60928.526992 214.691145 
L -94981.102592 222.275359 
L -124357.490883 229.859573 
L -149135.465644 237.443787 
L -169778.368194 245.028001 
L -186986.43606 252.612215 
L -201486.102247 260.196429 
L -213877.732226 267.780643 
L -224568.701204 275.364857 
L -226592.608515 276.921441 
L -242876.956273 282.949071 
L -260340.769511 290.533286 
L -274318.313299 298.1175 
L -284811.798325 305.701714 
L -291988.943922 313.285928 
L -296128.696508 320.870142 
L -297465.968018 328.454356 
L -296037.153684 336.03857 
L -291595.761271 343.622784 
L -283585.705095 351.206998 
L -271101.178341 358.791212 
L -252775.845574 366.375426 
L -226592.608515 373.959641 
L -226592.608515 373.959641 
L -207740.583084 381.543855 
L -180421.27354 389.128069 
L -140791.188166 396.712283 
L -82493.568225 404.296497 
z
M -76863.208906 396.712283 
L -129230.537928 389.128069 
L -165513.473026 381.543855 
L -190728.83485 373.959641 
L -208164.288924 366.375426 
L -220067.551625 358.791212 
L -226592.608515 352.624719 
L -229475.546903 351.206998 
L -239944.94319 343.622784 
L -245756.986727 336.03857 
L -247637.790795 328.454356 
L -245909.817898 320.870142 
L -240526.173569 313.285928 
L -231180.070402 305.701714 
L -226592.608515 303.05894 
L -222531.297922 298.1175 
L -214480.132919 290.533286 
L -204507.442632 282.949071 
L -192629.04699 275.364857 
L -178781.02228 267.780643 
L -162713.302417 260.196429 
L -143915.712242 252.612215 
L -121608.394969 245.028001 
L -94825.821953 237.443787 
L -62620.770287 229.859573 
L -24356.597694 222.275359 
L -80.198261 217.875935 
L 25554.971311 222.275359 
L 65858.336969 229.859573 
L 99540.342435 237.443787 
L 127297.287358 245.028001 
L 150238.917171 252.612215 
L 169477.869985 260.196429 
L 185851.925107 267.780643 
L 199824.644608 275.364857 
L 211530.353819 282.949071 
L 220928.943504 290.533286 
L 226432.211993 296.344744 
L 229681.456016 298.1175 
L 239873.551844 305.701714 
L 246039.61019 313.285928 
L 248522.329131 320.870142 
L 247437.64169 328.454356 
L 242545.246657 336.03857 
L 233209.266711 343.622784 
L 226432.211993 347.203559 
L 222813.244219 351.206998 
L 213143.37169 358.791212 
L 199621.961865 366.375426 
L 180970.911676 373.959641 
L 155328.039738 381.543855 
L 119927.983596 389.128069 
L 70484.487938 396.712283 
L -80.198261 404.296497 
z
" clip-path="url(#p3a82468adf)" style="fill: #c9ddf0"/>
    <path d="M -80.198261 404.296497 
L 70484.487938 396.712283 
L 119927.983596 389.128069 
L 155328.039738 381.543855 
L 180970.911676 373.959641 
L 199621.961865 366.375426 
L 213143.37169 358.791212 
L 222813.244219 351.206998 
L 226432.211993 347.203559 
L 233209.266711 343.622784 
L 242545.246657 336.03857 
L 247437.64169 328.454356 
L 248522.329131 320.870142 
L 246039.61019 313.285928 
L 239873.551844 305.701714 
L 229681.456016 298.1175 
L 226432.211993 296.344744 
L 220928.943504 290.533286 
L 211530.353819 282.949071 
L 199824.644608 275.364857 
L 185851.925107 267.780643 
L 169477.869985 260.196429 
L 150238.917171 252.612215 
L 127297.287358 245.028001 
L 99540.342435 237.443787 
L 65858.336969 229.859573 
L 25554.971311 222.275359 
L -80.198261 217.875935 
L -24356.597694 222.275359 
L -62620.770287 229.859573 
L -94825.821953 237.443787 
L -121608.394969 245.028001 
L -143915.712242 252.612215 
L -162713.302417 260.196429 
L -178781.02228 267.780643 
L -192629.04699 275.364857 
L -204507.442632 282.949071 
L -214480.132919 290.533286 
L -222531.297922 298.1175 
L -226592.608515 303.05894 
L -231180.070402 305.701714 
L -240526.173569 313.285928 
L -245909.817898 320.870142 
L -247637.790795 328.454356 
L -245756.986727 336.03857 
L -239944.94319 343.622784 
L -229475.546903 351.206998 
L -226592.608515 352.624719 
L -220067.551625 358.791212 
L -208164.288924 366.375426 
L -190728.83485 373.959641 
L -165513.473026 381.543855 
L -129230.537928 389.128069 
L -76863.208906 396.712283 
z
M -51888.387469 396.712283 
L -109231.790963 389.128069 
L -149016.556563 381.543855 
L -176717.890758 373.959641 
L -195918.779712 366.375426 
L -209067.577458 358.791212 
L -217838.978498 351.206998 
L -223358.961396 343.622784 
L -226368.315729 336.03857 
L -226592.608515 334.286353 
L -228171.356174 328.454356 
L -226592.608515 322.079542 
L -226453.859453 320.870142 
L -223782.582871 313.285928 
L -219211.700794 305.701714 
L -212610.802573 298.1175 
L -203900.10141 290.533286 
L -193073.862327 282.949071 
L -180151.143418 275.364857 
L -165069.747904 267.780643 
L -147565.885533 260.196429 
L -127089.220165 252.612215 
L -102789.772921 245.028001 
L -73608.607374 237.443787 
L -38502.010537 229.859573 
L -80.198261 222.807188 
L 40429.153353 229.859573 
L 77231.445137 237.443787 
L 107572.903847 245.028001 
L 132653.945734 252.612215 
L 153685.471758 260.196429 
L 171585.810931 267.780643 
L 186870.044415 275.364857 
L 199695.01236 282.949071 
L 210022.766282 290.533286 
L 217826.423519 298.1175 
L 223218.299187 305.701714 
L 226432.211993 313.285928 
L 226432.211993 313.285928 
L 229146.245501 320.870142 
L 227967.709001 328.454356 
L 226432.211993 330.672978 
L 224688.354776 336.03857 
L 220084.254953 343.622784 
L 212899.730277 351.206998 
L 202481.605341 358.791212 
L 187869.719617 366.375426 
L 167665.298667 373.959641 
L 139830.814505 381.543855 
L 101344.886804 389.128069 
L 47532.269435 396.712283 
L -80.198261 401.829618 
z
" clip-path="url(#p3a82468adf)" style="fill: #bcd7eb"/>
    <path d="M -80.198261 401.829618 
L 47532.269435 396.712283 
L 101344.886804 389.128069 
L 139830.814505 381.543855 
L 167665.298667 373.959641 
L 187869.719617 366.375426 
L 202481.605341 358.791212 
L 212899.730277 351.206998 
L 220084.254953 343.622784 
L 224688.354776 336.03857 
L 226432.211993 330.672978 
L 227967.709001 328.454356 
L 229146.245501 320.870142 
L 226432.211993 313.285928 
L 226432.211993 313.285928 
L 223218.299187 305.701714 
L 217826.423519 298.1175 
L 210022.766282 290.533286 
L 199695.01236 282.949071 
L 186870.044415 275.364857 
L 171585.810931 267.780643 
L 153685.471758 260.196429 
L 132653.945734 252.612215 
L 107572.903847 245.028001 
L 77231.445137 237.443787 
L 40429.153353 229.859573 
L -80.198261 222.807188 
L -38502.010537 229.859573 
L -73608.607374 237.443787 
L -102789.772921 245.028001 
L -127089.220165 252.612215 
L -147565.885533 260.196429 
L -165069.747904 267.780643 
L -180151.143418 275.364857 
L -193073.862327 282.949071 
L -203900.10141 290.533286 
L -212610.802573 298.1175 
L -219211.700794 305.701714 
L -223782.582871 313.285928 
L -226453.859453 320.870142 
L -226592.608515 322.079542 
L -228171.356174 328.454356 
L -226592.608515 334.286353 
L -226368.315729 336.03857 
L -223358.961396 343.622784 
L -217838.978498 351.206998 
L -209067.577458 358.791212 
L -195918.779712 366.375426 
L -176717.890758 373.959641 
L -149016.556563 381.543855 
L -109231.790963 389.128069 
L -51888.387469 396.712283 
z
M -24495.223489 381.543855 
L -70961.070089 373.959641 
L -103487.740582 366.375426 
L -126038.03372 358.791212 
L -141331.197488 351.206998 
L -151207.323395 343.622784 
L -156888.405624 336.03857 
L -159146.959447 328.454356 
L -158385.947727 320.870142 
L -154684.171221 313.285928 
L -147882.011637 305.701714 
L -137729.335579 298.1175 
L -124040.351226 290.533286 
L -106771.390923 282.949071 
L -85965.954918 275.364857 
L -61574.88162 267.780643 
L -33230.788597 260.196429 
L -80.198261 252.612215 
L 34481.953693 260.196429 
L 63902.926134 267.780643 
L 89086.67447 275.364857 
L 110359.984263 282.949071 
L 127701.216708 290.533286 
L 141050.810146 298.1175 
L 150532.207831 305.701714 
L 156465.824308 313.285928 
L 159211.407872 320.870142 
L 158972.38147 328.454356 
L 155675.014463 336.03857 
L 148938.993728 343.622784 
L 138070.960046 351.206998 
L 122004.907674 358.791212 
L 99161.937498 366.375426 
L 67232.428502 373.959641 
L 22855.30886 381.543855 
L -80.198261 384.687771 
z
" clip-path="url(#p3a82468adf)" style="fill: #92c4de"/>
    <path d="M -80.198261 384.687771 
L 22855.30886 381.543855 
L 67232.428502 373.959641 
L 99161.937498 366.375426 
L 122004.907674 358.791212 
L 138070.960046 351.206998 
L 148938.993728 343.622784 
L 155675.014463 336.03857 
L 158972.38147 328.454356 
L 159211.407872 320.870142 
L 156465.824308 313.285928 
L 150532.207831 305.701714 
L 141050.810146 298.1175 
L 127701.216708 290.533286 
L 110359.984263 282.949071 
L 89086.67447 275.364857 
L 63902.926134 267.780643 
L 34481.953693 260.196429 
L -80.198261 252.612215 
L -33230.788597 260.196429 
L -61574.88162 267.780643 
L -85965.954918 275.364857 
L -106771.390923 282.949071 
L -124040.351226 290.533286 
L -137729.335579 298.1175 
L -147882.011637 305.701714 
L -154684.171221 313.285928 
L -158385.947727 320.870142 
L -159146.959447 328.454356 
L -156888.405624 336.03857 
L -151207.323395 343.622784 
L -141331.197488 351.206998 
L -126038.03372 358.791212 
L -103487.740582 366.375426 
L -70961.070089 373.959641 
L -24495.223489 381.543855 
z
M -33148.446642 358.791212 
L -55737.854849 351.206998 
L -70487.430701 343.622784 
L -79157.517684 336.03857 
L -82872.377464 328.454356 
L -82234.737822 320.870142 
L -77380.085989 313.285928 
L -68081.677035 305.701714 
L -53955.43733 298.1175 
L -34696.981569 290.533286 
L -10220.204783 282.949071 
L -80.198261 280.201867 
L 10416.114913 282.949071 
L 35603.700531 290.533286 
L 55157.829133 298.1175 
L 69214.393611 305.701714 
L 78190.687908 313.285928 
L 82585.962645 320.870142 
L 82704.599679 328.454356 
L 78466.103081 336.03857 
L 69344.988509 343.622784 
L 54356.01648 351.206998 
L 31971.325902 358.791212 
L -80.198261 366.375426 
z
" clip-path="url(#p3a82468adf)" style="fill: #4191c6"/>
    <path d="M -80.198261 366.375426 
L 31971.325902 358.791212 
L 54356.01648 351.206998 
L 69344.988509 343.622784 
L 78466.103081 336.03857 
L 82704.599679 328.454356 
L 82585.962645 320.870142 
L 78190.687908 313.285928 
L 69214.393611 305.701714 
L 55157.829133 298.1175 
L 35603.700531 290.533286 
L 10416.114913 282.949071 
L -80.198261 280.201867 
L -10220.204783 282.949071 
L -34696.981569 290.533286 
L -53955.43733 298.1175 
L -68081.677035 305.701714 
L -77380.085989 313.285928 
L -82234.737822 320.870142 
L -82872.377464 328.454356 
L -79157.517684 336.03857 
L -70487.430701 343.622784 
L -55737.854849 351.206998 
L -33148.446642 358.791212 
z
M -692.525771 351.206998 
L -18576.231541 343.622784 
L -29168.556227 336.03857 
L -33819.970628 328.454356 
L -33261.67193 320.870142 
L -27665.602601 313.285928 
L -16761.848374 305.701714 
L -80.198261 298.1175 
L 16918.669369 305.701714 
L 27851.718673 313.285928 
L 33307.914631 320.870142 
L 33656.566067 328.454356 
L 28812.826275 336.03857 
L 18157.850877 343.622784 
L 518.691341 351.206998 
L -80.198261 351.391381 
z
" clip-path="url(#p3a82468adf)" style="fill: #135fa7"/>
    <path d="M -80.198261 351.391381 
L 518.691341 351.206998 
L 18157.850877 343.622784 
L 28812.826275 336.03857 
L 33656.566067 328.454356 
L 33307.914631 320.870142 
L 27851.718673 313.285928 
L 16918.669369 305.701714 
L -80.198261 298.1175 
L -16761.848374 305.701714 
L -27665.602601 313.285928 
L -33261.67193 320.870142 
L -33819.970628 328.454356 
L -29168.556227 336.03857 
L -18576.231541 343.622784 
L -692.525771 351.206998 
z
M -1430.850424 336.03857 
L -6601.937086 328.454356 
L -6087.662822 320.870142 
L -80.198261 313.285928 
L 5964.678074 320.870142 
L 6440.959123 328.454356 
L 1261.384036 336.03857 
L -80.198261 336.946918 
z
" clip-path="url(#p3a82468adf)" style="fill: #084082"/>
    <path d="M -80.198261 336.946918 
L 1261.384036 336.03857 
L 6440.959123 328.454356 
L 5964.678074 320.870142 
L -80.198261 313.285928 
L -6087.662822 320.870142 
L -6601.937086 328.454356 
L -1430.850424 336.03857 
z
" clip-path="url(#p3a82468adf)" style="fill: #08326e"/>
   </g>
   <g id="matplotlib.axis_1">
    <g id="xtick_1">
     <g id="line2d_1">
      <defs>
       <path id="mc78eca1c3d" d="M 0 0 
L 0 3.5 
" style="stroke: #000000; stroke-width: 0.8"/>
      </defs>
      <g>
       <use xlink:href="#mc78eca1c3d" x="82.657439" y="499.48" style="stroke: #000000; stroke-width: 0.8"/>
      </g>
     </g>
     <g id="text_1">
      <!-- 1 -->
      <g transform="translate(75.658689 523.196563) scale(0.22 -0.22)">
       <defs>
        <path id="DejaVuSans-31" d="M 794 531 
L 1825 531 
L 1825 4091 
L 703 3866 
L 703 4441 
L 1819 4666 
L 2450 4666 
L 2450 531 
L 3481 531 
L 3481 0 
L 794 0 
L 794 531 
z
" transform="scale(0.015625)"/>
       </defs>
       <use xlink:href="#DejaVuSans-31"/>
      </g>
     </g>
    </g>
    <g id="xtick_2">
     <g id="line2d_2">
      <g>
       <use xlink:href="#mc78eca1c3d" x="178.898292" y="499.48" style="stroke: #000000; stroke-width: 0.8"/>
      </g>
     </g>
     <g id="text_2">
      <!-- 2 -->
      <g transform="translate(171.899542 523.196563) scale(0.22 -0.22)">
       <defs>
        <path id="DejaVuSans-32" d="M 1228 531 
L 3431 531 
L 3431 0 
L 469 0 
L 469 531 
Q 828 903 1448 1529 
Q 2069 2156 2228 2338 
Q 2531 2678 2651 2914 
Q 2772 3150 2772 3378 
Q 2772 3750 2511 3984 
Q 2250 4219 1831 4219 
Q 1534 4219 1204 4116 
Q 875 4013 500 3803 
L 500 4441 
Q 881 4594 1212 4672 
Q 1544 4750 1819 4750 
Q 2544 4750 2975 4387 
Q 3406 4025 3406 3419 
Q 3406 3131 3298 2873 
Q 3191 2616 2906 2266 
Q 2828 2175 2409 1742 
Q 1991 1309 1228 531 
z
" transform="scale(0.015625)"/>
       </defs>
       <use xlink:href="#DejaVuSans-32"/>
      </g>
     </g>
    </g>
    <g id="xtick_3">
     <g id="line2d_3">
      <g>
       <use xlink:href="#mc78eca1c3d" x="275.139145" y="499.48" style="stroke: #000000; stroke-width: 0.8"/>
      </g>
     </g>
     <g id="text_3">
      <!-- 3 -->
      <g transform="translate(268.140395 523.196563) scale(0.22 -0.22)">
       <defs>
        <path id="DejaVuSans-33" d="M 2597 2516 
Q 3050 2419 3304 2112 
Q 3559 1806 3559 1356 
Q 3559 666 3084 287 
Q 2609 -91 1734 -91 
Q 1441 -91 1130 -33 
Q 819 25 488 141 
L 488 750 
Q 750 597 1062 519 
Q 1375 441 1716 441 
Q 2309 441 2620 675 
Q 2931 909 2931 1356 
Q 2931 1769 2642 2001 
Q 2353 2234 1838 2234 
L 1294 2234 
L 1294 2753 
L 1863 2753 
Q 2328 2753 2575 2939 
Q 2822 3125 2822 3475 
Q 2822 3834 2567 4026 
Q 2313 4219 1838 4219 
Q 1578 4219 1281 4162 
Q 984 4106 628 3988 
L 628 4550 
Q 988 4650 1302 4700 
Q 1616 4750 1894 4750 
Q 2613 4750 3031 4423 
Q 3450 4097 3450 3541 
Q 3450 3153 3228 2886 
Q 3006 2619 2597 2516 
z
" transform="scale(0.015625)"/>
       </defs>
       <use xlink:href="#DejaVuSans-33"/>
      </g>
     </g>
    </g>
    <g id="xtick_4">
     <g id="line2d_4">
      <g>
       <use xlink:href="#mc78eca1c3d" x="371.379999" y="499.48" style="stroke: #000000; stroke-width: 0.8"/>
      </g>
     </g>
     <g id="text_4">
      <!-- 4 -->
      <g transform="translate(364.381249 523.196563) scale(0.22 -0.22)">
       <defs>
        <path id="DejaVuSans-34" d="M 2419 4116 
L 825 1625 
L 2419 1625 
L 2419 4116 
z
M 2253 4666 
L 3047 4666 
L 3047 1625 
L 3713 1625 
L 3713 1100 
L 3047 1100 
L 3047 0 
L 2419 0 
L 2419 1100 
L 313 1100 
L 313 1709 
L 2253 4666 
z
" transform="scale(0.015625)"/>
       </defs>
       <use xlink:href="#DejaVuSans-34"/>
      </g>
     </g>
    </g>
    <g id="xtick_5">
     <g id="line2d_5">
      <g>
       <use xlink:href="#mc78eca1c3d" x="467.620852" y="499.48" style="stroke: #000000; stroke-width: 0.8"/>
      </g>
     </g>
     <g id="text_5">
      <!-- 5 -->
      <g transform="translate(460.622102 523.196563) scale(0.22 -0.22)">
       <defs>
        <path id="DejaVuSans-35" d="M 691 4666 
L 3169 4666 
L 3169 4134 
L 1269 4134 
L 1269 2991 
Q 1406 3038 1543 3061 
Q 1681 3084 1819 3084 
Q 2600 3084 3056 2656 
Q 3513 2228 3513 1497 
Q 3513 744 3044 326 
Q 2575 -91 1722 -91 
Q 1428 -91 1123 -41 
Q 819 9 494 109 
L 494 744 
Q 775 591 1075 516 
Q 1375 441 1709 441 
Q 2250 441 2565 725 
Q 2881 1009 2881 1497 
Q 2881 1984 2565 2268 
Q 2250 2553 1709 2553 
Q 1456 2553 1204 2497 
Q 953 2441 691 2322 
L 691 4666 
z
" transform="scale(0.015625)"/>
       </defs>
       <use xlink:href="#DejaVuSans-35"/>
      </g>
     </g>
    </g>
    <g id="xtick_6">
     <g id="line2d_6">
      <g>
       <use xlink:href="#mc78eca1c3d" x="563.861705" y="499.48" style="stroke: #000000; stroke-width: 0.8"/>
      </g>
     </g>
     <g id="text_6">
      <!-- 6 -->
      <g transform="translate(556.862955 523.196563) scale(0.22 -0.22)">
       <defs>
        <path id="DejaVuSans-36" d="M 2113 2584 
Q 1688 2584 1439 2293 
Q 1191 2003 1191 1497 
Q 1191 994 1439 701 
Q 1688 409 2113 409 
Q 2538 409 2786 701 
Q 3034 994 3034 1497 
Q 3034 2003 2786 2293 
Q 2538 2584 2113 2584 
z
M 3366 4563 
L 3366 3988 
Q 3128 4100 2886 4159 
Q 2644 4219 2406 4219 
Q 1781 4219 1451 3797 
Q 1122 3375 1075 2522 
Q 1259 2794 1537 2939 
Q 1816 3084 2150 3084 
Q 2853 3084 3261 2657 
Q 3669 2231 3669 1497 
Q 3669 778 3244 343 
Q 2819 -91 2113 -91 
Q 1303 -91 875 529 
Q 447 1150 447 2328 
Q 447 3434 972 4092 
Q 1497 4750 2381 4750 
Q 2619 4750 2861 4703 
Q 3103 4656 3366 4563 
z
" transform="scale(0.015625)"/>
       </defs>
       <use xlink:href="#DejaVuSans-36"/>
      </g>
     </g>
    </g>
    <g id="xtick_7">
     <g id="line2d_7">
      <g>
       <use xlink:href="#mc78eca1c3d" x="660.102558" y="499.48" style="stroke: #000000; stroke-width: 0.8"/>
      </g>
     </g>
     <g id="text_7">
      <!-- 7 -->
      <g transform="translate(653.103808 523.196563) scale(0.22 -0.22)">
       <defs>
        <path id="DejaVuSans-37" d="M 525 4666 
L 3525 4666 
L 3525 4397 
L 1831 0 
L 1172 0 
L 2766 4134 
L 525 4134 
L 525 4666 
z
" transform="scale(0.015625)"/>
       </defs>
       <use xlink:href="#DejaVuSans-37"/>
      </g>
     </g>
    </g>
    <g id="text_8">
     <!-- Force Uncertainties -->
     <g transform="translate(276.406094 548.488438) scale(0.22 -0.22)">
      <defs>
       <path id="DejaVuSans-46" d="M 628 4666 
L 3309 4666 
L 3309 4134 
L 1259 4134 
L 1259 2759 
L 3109 2759 
L 3109 2228 
L 1259 2228 
L 1259 0 
L 628 0 
L 628 4666 
z
" transform="scale(0.015625)"/>
       <path id="DejaVuSans-6f" d="M 1959 3097 
Q 1497 3097 1228 2736 
Q 959 2375 959 1747 
Q 959 1119 1226 758 
Q 1494 397 1959 397 
Q 2419 397 2687 759 
Q 2956 1122 2956 1747 
Q 2956 2369 2687 2733 
Q 2419 3097 1959 3097 
z
M 1959 3584 
Q 2709 3584 3137 3096 
Q 3566 2609 3566 1747 
Q 3566 888 3137 398 
Q 2709 -91 1959 -91 
Q 1206 -91 779 398 
Q 353 888 353 1747 
Q 353 2609 779 3096 
Q 1206 3584 1959 3584 
z
" transform="scale(0.015625)"/>
       <path id="DejaVuSans-72" d="M 2631 2963 
Q 2534 3019 2420 3045 
Q 2306 3072 2169 3072 
Q 1681 3072 1420 2755 
Q 1159 2438 1159 1844 
L 1159 0 
L 581 0 
L 581 3500 
L 1159 3500 
L 1159 2956 
Q 1341 3275 1631 3429 
Q 1922 3584 2338 3584 
Q 2397 3584 2469 3576 
Q 2541 3569 2628 3553 
L 2631 2963 
z
" transform="scale(0.015625)"/>
       <path id="DejaVuSans-63" d="M 3122 3366 
L 3122 2828 
Q 2878 2963 2633 3030 
Q 2388 3097 2138 3097 
Q 1578 3097 1268 2742 
Q 959 2388 959 1747 
Q 959 1106 1268 751 
Q 1578 397 2138 397 
Q 2388 397 2633 464 
Q 2878 531 3122 666 
L 3122 134 
Q 2881 22 2623 -34 
Q 2366 -91 2075 -91 
Q 1284 -91 818 406 
Q 353 903 353 1747 
Q 353 2603 823 3093 
Q 1294 3584 2113 3584 
Q 2378 3584 2631 3529 
Q 2884 3475 3122 3366 
z
" transform="scale(0.015625)"/>
       <path id="DejaVuSans-65" d="M 3597 1894 
L 3597 1613 
L 953 1613 
Q 991 1019 1311 708 
Q 1631 397 2203 397 
Q 2534 397 2845 478 
Q 3156 559 3463 722 
L 3463 178 
Q 3153 47 2828 -22 
Q 2503 -91 2169 -91 
Q 1331 -91 842 396 
Q 353 884 353 1716 
Q 353 2575 817 3079 
Q 1281 3584 2069 3584 
Q 2775 3584 3186 3129 
Q 3597 2675 3597 1894 
z
M 3022 2063 
Q 3016 2534 2758 2815 
Q 2500 3097 2075 3097 
Q 1594 3097 1305 2825 
Q 1016 2553 972 2059 
L 3022 2063 
z
" transform="scale(0.015625)"/>
       <path id="DejaVuSans-20" transform="scale(0.015625)"/>
       <path id="DejaVuSans-55" d="M 556 4666 
L 1191 4666 
L 1191 1831 
Q 1191 1081 1462 751 
Q 1734 422 2344 422 
Q 2950 422 3222 751 
Q 3494 1081 3494 1831 
L 3494 4666 
L 4128 4666 
L 4128 1753 
Q 4128 841 3676 375 
Q 3225 -91 2344 -91 
Q 1459 -91 1007 375 
Q 556 841 556 1753 
L 556 4666 
z
" transform="scale(0.015625)"/>
       <path id="DejaVuSans-6e" d="M 3513 2113 
L 3513 0 
L 2938 0 
L 2938 2094 
Q 2938 2591 2744 2837 
Q 2550 3084 2163 3084 
Q 1697 3084 1428 2787 
Q 1159 2491 1159 1978 
L 1159 0 
L 581 0 
L 581 3500 
L 1159 3500 
L 1159 2956 
Q 1366 3272 1645 3428 
Q 1925 3584 2291 3584 
Q 2894 3584 3203 3211 
Q 3513 2838 3513 2113 
z
" transform="scale(0.015625)"/>
       <path id="DejaVuSans-74" d="M 1172 4494 
L 1172 3500 
L 2356 3500 
L 2356 3053 
L 1172 3053 
L 1172 1153 
Q 1172 725 1289 603 
Q 1406 481 1766 481 
L 2356 481 
L 2356 0 
L 1766 0 
Q 1100 0 847 248 
Q 594 497 594 1153 
L 594 3053 
L 172 3053 
L 172 3500 
L 594 3500 
L 594 4494 
L 1172 4494 
z
" transform="scale(0.015625)"/>
       <path id="DejaVuSans-61" d="M 2194 1759 
Q 1497 1759 1228 1600 
Q 959 1441 959 1056 
Q 959 750 1161 570 
Q 1363 391 1709 391 
Q 2188 391 2477 730 
Q 2766 1069 2766 1631 
L 2766 1759 
L 2194 1759 
z
M 3341 1997 
L 3341 0 
L 2766 0 
L 2766 531 
Q 2569 213 2275 61 
Q 1981 -91 1556 -91 
Q 1019 -91 701 211 
Q 384 513 384 1019 
Q 384 1609 779 1909 
Q 1175 2209 1959 2209 
L 2766 2209 
L 2766 2266 
Q 2766 2663 2505 2880 
Q 2244 3097 1772 3097 
Q 1472 3097 1187 3025 
Q 903 2953 641 2809 
L 641 3341 
Q 956 3463 1253 3523 
Q 1550 3584 1831 3584 
Q 2591 3584 2966 3190 
Q 3341 2797 3341 1997 
z
" transform="scale(0.015625)"/>
       <path id="DejaVuSans-69" d="M 603 3500 
L 1178 3500 
L 1178 0 
L 603 0 
L 603 3500 
z
M 603 4863 
L 1178 4863 
L 1178 4134 
L 603 4134 
L 603 4863 
z
" transform="scale(0.015625)"/>
       <path id="DejaVuSans-73" d="M 2834 3397 
L 2834 2853 
Q 2591 2978 2328 3040 
Q 2066 3103 1784 3103 
Q 1356 3103 1142 2972 
Q 928 2841 928 2578 
Q 928 2378 1081 2264 
Q 1234 2150 1697 2047 
L 1894 2003 
Q 2506 1872 2764 1633 
Q 3022 1394 3022 966 
Q 3022 478 2636 193 
Q 2250 -91 1575 -91 
Q 1294 -91 989 -36 
Q 684 19 347 128 
L 347 722 
Q 666 556 975 473 
Q 1284 391 1588 391 
Q 1994 391 2212 530 
Q 2431 669 2431 922 
Q 2431 1156 2273 1281 
Q 2116 1406 1581 1522 
L 1381 1569 
Q 847 1681 609 1914 
Q 372 2147 372 2553 
Q 372 3047 722 3315 
Q 1072 3584 1716 3584 
Q 2034 3584 2315 3537 
Q 2597 3491 2834 3397 
z
" transform="scale(0.015625)"/>
      </defs>
      <use xlink:href="#DejaVuSans-46"/>
      <use xlink:href="#DejaVuSans-6f" x="53.894531"/>
      <use xlink:href="#DejaVuSans-72" x="115.076172"/>
      <use xlink:href="#DejaVuSans-63" x="153.939453"/>
      <use xlink:href="#DejaVuSans-65" x="208.919922"/>
      <use xlink:href="#DejaVuSans-20" x="270.443359"/>
      <use xlink:href="#DejaVuSans-55" x="302.230469"/>
      <use xlink:href="#DejaVuSans-6e" x="375.423828"/>
      <use xlink:href="#DejaVuSans-63" x="438.802734"/>
      <use xlink:href="#DejaVuSans-65" x="493.783203"/>
      <use xlink:href="#DejaVuSans-72" x="555.306641"/>
      <use xlink:href="#DejaVuSans-74" x="596.419922"/>
      <use xlink:href="#DejaVuSans-61" x="635.628906"/>
      <use xlink:href="#DejaVuSans-69" x="696.908203"/>
      <use xlink:href="#DejaVuSans-6e" x="724.691406"/>
      <use xlink:href="#DejaVuSans-74" x="788.070312"/>
      <use xlink:href="#DejaVuSans-69" x="827.279297"/>
      <use xlink:href="#DejaVuSans-65" x="855.0625"/>
      <use xlink:href="#DejaVuSans-73" x="916.585938"/>
     </g>
    </g>
   </g>
   <g id="matplotlib.axis_2">
    <g id="ytick_1">
     <g id="line2d_8">
      <defs>
       <path id="mef17824233" d="M 0 0 
L -3.5 0 
" style="stroke: #000000; stroke-width: 0.8"/>
      </defs>
      <g>
       <use xlink:href="#mef17824233" x="69.68" y="489.62679" style="stroke: #000000; stroke-width: 0.8"/>
      </g>
     </g>
     <g id="text_9">
      <!-- 1 -->
      <g transform="translate(48.6825 497.985071) scale(0.22 -0.22)">
       <use xlink:href="#DejaVuSans-31"/>
      </g>
     </g>
    </g>
    <g id="ytick_2">
     <g id="line2d_9">
      <g>
       <use xlink:href="#mef17824233" x="69.68" y="416.555259" style="stroke: #000000; stroke-width: 0.8"/>
      </g>
     </g>
     <g id="text_10">
      <!-- 2 -->
      <g transform="translate(48.6825 424.91354) scale(0.22 -0.22)">
       <use xlink:href="#DejaVuSans-32"/>
      </g>
     </g>
    </g>
    <g id="ytick_3">
     <g id="line2d_10">
      <g>
       <use xlink:href="#mef17824233" x="69.68" y="343.483727" style="stroke: #000000; stroke-width: 0.8"/>
      </g>
     </g>
     <g id="text_11">
      <!-- 3 -->
      <g transform="translate(48.6825 351.842008) scale(0.22 -0.22)">
       <use xlink:href="#DejaVuSans-33"/>
      </g>
     </g>
    </g>
    <g id="ytick_4">
     <g id="line2d_11">
      <g>
       <use xlink:href="#mef17824233" x="69.68" y="270.412196" style="stroke: #000000; stroke-width: 0.8"/>
      </g>
     </g>
     <g id="text_12">
      <!-- 4 -->
      <g transform="translate(48.6825 278.770477) scale(0.22 -0.22)">
       <use xlink:href="#DejaVuSans-34"/>
      </g>
     </g>
    </g>
    <g id="ytick_5">
     <g id="line2d_12">
      <g>
       <use xlink:href="#mef17824233" x="69.68" y="197.340664" style="stroke: #000000; stroke-width: 0.8"/>
      </g>
     </g>
     <g id="text_13">
      <!-- 5 -->
      <g transform="translate(48.6825 205.698946) scale(0.22 -0.22)">
       <use xlink:href="#DejaVuSans-35"/>
      </g>
     </g>
    </g>
    <g id="ytick_6">
     <g id="line2d_13">
      <g>
       <use xlink:href="#mef17824233" x="69.68" y="124.269133" style="stroke: #000000; stroke-width: 0.8"/>
      </g>
     </g>
     <g id="text_14">
      <!-- 6 -->
      <g transform="translate(48.6825 132.627414) scale(0.22 -0.22)">
       <use xlink:href="#DejaVuSans-36"/>
      </g>
     </g>
    </g>
    <g id="ytick_7">
     <g id="line2d_14">
      <g>
       <use xlink:href="#mef17824233" x="69.68" y="51.197602" style="stroke: #000000; stroke-width: 0.8"/>
      </g>
     </g>
     <g id="text_15">
      <!-- 7 -->
      <g transform="translate(48.6825 59.555883) scale(0.22 -0.22)">
       <use xlink:href="#DejaVuSans-37"/>
      </g>
     </g>
    </g>
    <g id="text_16">
     <!-- Force Errors [kJ/(mol*A)] -->
     <g transform="translate(40.107187 394.9125) rotate(-90) scale(0.22 -0.22)">
      <defs>
       <path id="DejaVuSans-45" d="M 628 4666 
L 3578 4666 
L 3578 4134 
L 1259 4134 
L 1259 2753 
L 3481 2753 
L 3481 2222 
L 1259 2222 
L 1259 531 
L 3634 531 
L 3634 0 
L 628 0 
L 628 4666 
z
" transform="scale(0.015625)"/>
       <path id="DejaVuSans-5b" d="M 550 4863 
L 1875 4863 
L 1875 4416 
L 1125 4416 
L 1125 -397 
L 1875 -397 
L 1875 -844 
L 550 -844 
L 550 4863 
z
" transform="scale(0.015625)"/>
       <path id="DejaVuSans-6b" d="M 581 4863 
L 1159 4863 
L 1159 1991 
L 2875 3500 
L 3609 3500 
L 1753 1863 
L 3688 0 
L 2938 0 
L 1159 1709 
L 1159 0 
L 581 0 
L 581 4863 
z
" transform="scale(0.015625)"/>
       <path id="DejaVuSans-4a" d="M 628 4666 
L 1259 4666 
L 1259 325 
Q 1259 -519 939 -900 
Q 619 -1281 -91 -1281 
L -331 -1281 
L -331 -750 
L -134 -750 
Q 284 -750 456 -515 
Q 628 -281 628 325 
L 628 4666 
z
" transform="scale(0.015625)"/>
       <path id="DejaVuSans-2f" d="M 1625 4666 
L 2156 4666 
L 531 -594 
L 0 -594 
L 1625 4666 
z
" transform="scale(0.015625)"/>
       <path id="DejaVuSans-28" d="M 1984 4856 
Q 1566 4138 1362 3434 
Q 1159 2731 1159 2009 
Q 1159 1288 1364 580 
Q 1569 -128 1984 -844 
L 1484 -844 
Q 1016 -109 783 600 
Q 550 1309 550 2009 
Q 550 2706 781 3412 
Q 1013 4119 1484 4856 
L 1984 4856 
z
" transform="scale(0.015625)"/>
       <path id="DejaVuSans-6d" d="M 3328 2828 
Q 3544 3216 3844 3400 
Q 4144 3584 4550 3584 
Q 5097 3584 5394 3201 
Q 5691 2819 5691 2113 
L 5691 0 
L 5113 0 
L 5113 2094 
Q 5113 2597 4934 2840 
Q 4756 3084 4391 3084 
Q 3944 3084 3684 2787 
Q 3425 2491 3425 1978 
L 3425 0 
L 2847 0 
L 2847 2094 
Q 2847 2600 2669 2842 
Q 2491 3084 2119 3084 
Q 1678 3084 1418 2786 
Q 1159 2488 1159 1978 
L 1159 0 
L 581 0 
L 581 3500 
L 1159 3500 
L 1159 2956 
Q 1356 3278 1631 3431 
Q 1906 3584 2284 3584 
Q 2666 3584 2933 3390 
Q 3200 3197 3328 2828 
z
" transform="scale(0.015625)"/>
       <path id="DejaVuSans-6c" d="M 603 4863 
L 1178 4863 
L 1178 0 
L 603 0 
L 603 4863 
z
" transform="scale(0.015625)"/>
       <path id="DejaVuSans-2a" d="M 3009 3897 
L 1888 3291 
L 3009 2681 
L 2828 2375 
L 1778 3009 
L 1778 1831 
L 1422 1831 
L 1422 3009 
L 372 2375 
L 191 2681 
L 1313 3291 
L 191 3897 
L 372 4206 
L 1422 3572 
L 1422 4750 
L 1778 4750 
L 1778 3572 
L 2828 4206 
L 3009 3897 
z
" transform="scale(0.015625)"/>
       <path id="DejaVuSans-41" d="M 2188 4044 
L 1331 1722 
L 3047 1722 
L 2188 4044 
z
M 1831 4666 
L 2547 4666 
L 4325 0 
L 3669 0 
L 3244 1197 
L 1141 1197 
L 716 0 
L 50 0 
L 1831 4666 
z
" transform="scale(0.015625)"/>
       <path id="DejaVuSans-29" d="M 513 4856 
L 1013 4856 
Q 1481 4119 1714 3412 
Q 1947 2706 1947 2009 
Q 1947 1309 1714 600 
Q 1481 -109 1013 -844 
L 513 -844 
Q 928 -128 1133 580 
Q 1338 1288 1338 2009 
Q 1338 2731 1133 3434 
Q 928 4138 513 4856 
z
" transform="scale(0.015625)"/>
       <path id="DejaVuSans-5d" d="M 1947 4863 
L 1947 -844 
L 622 -844 
L 622 -397 
L 1369 -397 
L 1369 4416 
L 622 4416 
L 622 4863 
L 1947 4863 
z
" transform="scale(0.015625)"/>
      </defs>
      <use xlink:href="#DejaVuSans-46"/>
      <use xlink:href="#DejaVuSans-6f" x="53.894531"/>
      <use xlink:href="#DejaVuSans-72" x="115.076172"/>
      <use xlink:href="#DejaVuSans-63" x="153.939453"/>
      <use xlink:href="#DejaVuSans-65" x="208.919922"/>
      <use xlink:href="#DejaVuSans-20" x="270.443359"/>
      <use xlink:href="#DejaVuSans-45" x="302.230469"/>
      <use xlink:href="#DejaVuSans-72" x="365.414062"/>
      <use xlink:href="#DejaVuSans-72" x="404.777344"/>
      <use xlink:href="#DejaVuSans-6f" x="443.640625"/>
      <use xlink:href="#DejaVuSans-72" x="504.822266"/>
      <use xlink:href="#DejaVuSans-73" x="545.935547"/>
      <use xlink:href="#DejaVuSans-20" x="598.035156"/>
      <use xlink:href="#DejaVuSans-5b" x="629.822266"/>
      <use xlink:href="#DejaVuSans-6b" x="668.835938"/>
      <use xlink:href="#DejaVuSans-4a" x="726.746094"/>
      <use xlink:href="#DejaVuSans-2f" x="756.238281"/>
      <use xlink:href="#DejaVuSans-28" x="789.929688"/>
      <use xlink:href="#DejaVuSans-6d" x="828.943359"/>
      <use xlink:href="#DejaVuSans-6f" x="926.355469"/>
      <use xlink:href="#DejaVuSans-6c" x="987.537109"/>
      <use xlink:href="#DejaVuSans-2a" x="1015.320312"/>
      <use xlink:href="#DejaVuSans-41" x="1065.320312"/>
      <use xlink:href="#DejaVuSans-29" x="1133.728516"/>
      <use xlink:href="#DejaVuSans-5d" x="1172.742188"/>
     </g>
    </g>
   </g>
   <g id="line2d_15">
    <path d="M 69.68 499.48 
L 696.24 23.76 
" clip-path="url(#p3a82468adf)" style="fill: none; stroke-dasharray: 5.55,2.4; stroke-dashoffset: 0; stroke: #ff0000; stroke-width: 1.5"/>
   </g>
   <g id="patch_3">
    <path d="M 69.68 499.48 
L 69.68 23.76 
" style="fill: none; stroke: #000000; stroke-width: 0.8; stroke-linejoin: miter; stroke-linecap: square"/>
   </g>
   <g id="patch_4">
    <path d="M 696.24 499.48 
L 696.24 23.76 
" style="fill: none; stroke: #000000; stroke-width: 0.8; stroke-linejoin: miter; stroke-linecap: square"/>
   </g>
   <g id="patch_5">
    <path d="M 69.68 499.48 
L 696.24 499.48 
" style="fill: none; stroke: #000000; stroke-width: 0.8; stroke-linejoin: miter; stroke-linecap: square"/>
   </g>
   <g id="patch_6">
    <path d="M 69.68 23.76 
L 696.24 23.76 
" style="fill: none; stroke: #000000; stroke-width: 0.8; stroke-linejoin: miter; stroke-linecap: square"/>
   </g>
   <g id="text_17">
    <!-- Correlation in: 0.101 -->
    <g transform="translate(132.336 71.332) scale(0.22 -0.22)">
     <defs>
      <path id="DejaVuSans-43" d="M 4122 4306 
L 4122 3641 
Q 3803 3938 3442 4084 
Q 3081 4231 2675 4231 
Q 1875 4231 1450 3742 
Q 1025 3253 1025 2328 
Q 1025 1406 1450 917 
Q 1875 428 2675 428 
Q 3081 428 3442 575 
Q 3803 722 4122 1019 
L 4122 359 
Q 3791 134 3420 21 
Q 3050 -91 2638 -91 
Q 1578 -91 968 557 
Q 359 1206 359 2328 
Q 359 3453 968 4101 
Q 1578 4750 2638 4750 
Q 3056 4750 3426 4639 
Q 3797 4528 4122 4306 
z
" transform="scale(0.015625)"/>
      <path id="DejaVuSans-3a" d="M 750 794 
L 1409 794 
L 1409 0 
L 750 0 
L 750 794 
z
M 750 3309 
L 1409 3309 
L 1409 2516 
L 750 2516 
L 750 3309 
z
" transform="scale(0.015625)"/>
      <path id="DejaVuSans-30" d="M 2034 4250 
Q 1547 4250 1301 3770 
Q 1056 3291 1056 2328 
Q 1056 1369 1301 889 
Q 1547 409 2034 409 
Q 2525 409 2770 889 
Q 3016 1369 3016 2328 
Q 3016 3291 2770 3770 
Q 2525 4250 2034 4250 
z
M 2034 4750 
Q 2819 4750 3233 4129 
Q 3647 3509 3647 2328 
Q 3647 1150 3233 529 
Q 2819 -91 2034 -91 
Q 1250 -91 836 529 
Q 422 1150 422 2328 
Q 422 3509 836 4129 
Q 1250 4750 2034 4750 
z
" transform="scale(0.015625)"/>
      <path id="DejaVuSans-2e" d="M 684 794 
L 1344 794 
L 1344 0 
L 684 0 
L 684 794 
z
" transform="scale(0.015625)"/>
     </defs>
     <use xlink:href="#DejaVuSans-43"/>
     <use xlink:href="#DejaVuSans-6f" x="69.824219"/>
     <use xlink:href="#DejaVuSans-72" x="131.005859"/>
     <use xlink:href="#DejaVuSans-72" x="170.369141"/>
     <use xlink:href="#DejaVuSans-65" x="209.232422"/>
     <use xlink:href="#DejaVuSans-6c" x="270.755859"/>
     <use xlink:href="#DejaVuSans-61" x="298.539062"/>
     <use xlink:href="#DejaVuSans-74" x="359.818359"/>
     <use xlink:href="#DejaVuSans-69" x="399.027344"/>
     <use xlink:href="#DejaVuSans-6f" x="426.810547"/>
     <use xlink:href="#DejaVuSans-6e" x="487.992188"/>
     <use xlink:href="#DejaVuSans-20" x="551.371094"/>
     <use xlink:href="#DejaVuSans-69" x="583.158203"/>
     <use xlink:href="#DejaVuSans-6e" x="610.941406"/>
     <use xlink:href="#DejaVuSans-3a" x="674.320312"/>
     <use xlink:href="#DejaVuSans-20" x="708.011719"/>
     <use xlink:href="#DejaVuSans-30" x="739.798828"/>
     <use xlink:href="#DejaVuSans-2e" x="803.421875"/>
     <use xlink:href="#DejaVuSans-31" x="835.208984"/>
     <use xlink:href="#DejaVuSans-30" x="898.832031"/>
     <use xlink:href="#DejaVuSans-31" x="962.455078"/>
    </g>
   </g>
  </g>
 </g>
 <defs>
  <clipPath id="p3a82468adf">
   <rect x="69.68" y="23.76" width="626.56" height="475.72"/>
  </clipPath>
 </defs>
</svg>
