<?xml version="1.0" encoding="utf-8" standalone="no"?>
<!DOCTYPE svg PUBLIC "-//W3C//DTD SVG 1.1//EN"
  "http://www.w3.org/Graphics/SVG/1.1/DTD/svg11.dtd">
<svg xmlns:xlink="http://www.w3.org/1999/xlink" width="720pt" height="576pt" viewBox="0 0 720 576" xmlns="http://www.w3.org/2000/svg" version="1.1">
 <metadata>
  <rdf:RDF xmlns:dc="http://purl.org/dc/elements/1.1/" xmlns:cc="http://creativecommons.org/ns#" xmlns:rdf="http://www.w3.org/1999/02/22-rdf-syntax-ns#">
   <cc:Work>
    <dc:type rdf:resource="http://purl.org/dc/dcmitype/StillImage"/>
    <dc:date>2024-12-06T14:00:03.831712</dc:date>
    <dc:format>image/svg+xml</dc:format>
    <dc:creator>
     <cc:Agent>
      <dc:title>Matplotlib v3.8.4, https://matplotlib.org/</dc:title>
     </cc:Agent>
    </dc:creator>
   </cc:Work>
  </rdf:RDF>
 </metadata>
 <defs>
  <style type="text/css">*{stroke-linejoin: round; stroke-linecap: butt}</style>
 </defs>
 <g id="figure_1">
  <g id="patch_1">
   <path d="M 0 576 
L 720 576 
L 720 0 
L 0 0 
z
" style="fill: #ffffff"/>
  </g>
  <g id="axes_1">
   <g id="patch_2">
    <path d="M 70.22 534.04 
L 700.162035 534.04 
L 700.162035 10.8 
L 70.22 10.8 
z
" style="fill: #ffffff"/>
   </g>
   <g id="QuadContourSet_1">
    <path d="M 70.221027 534.040524 
L 70.221248 534.040572 
L 70.221469 534.040583 
L 70.22169 534.040567 
L 70.221882 534.04052 
L 70.22191 534.040513 
L 70.222068 534.040455 
L 70.222131 534.040423 
L 70.222201 534.04039 
L 70.222301 534.040325 
L 70.222352 534.040272 
L 70.222371 534.04026 
L 70.222462 534.040196 
L 70.222518 534.040131 
L 70.222554 534.040066 
L 70.222573 534.040017 
L 70.222591 534.040001 
L 70.222652 534.039936 
L 70.222696 534.039871 
L 70.222728 534.039806 
L 70.222753 534.039741 
L 70.222772 534.039676 
L 70.222787 534.039612 
L 70.222794 534.039576 
L 70.222816 534.039547 
L 70.222853 534.039482 
L 70.222875 534.039417 
L 70.222888 534.039352 
L 70.222892 534.039287 
L 70.222889 534.039222 
L 70.222882 534.039157 
L 70.222871 534.039093 
L 70.222854 534.039028 
L 70.222831 534.038963 
L 70.2228 534.038898 
L 70.222794 534.038888 
L 70.222785 534.038833 
L 70.222774 534.038768 
L 70.222762 534.038703 
L 70.222749 534.038638 
L 70.222736 534.038573 
L 70.222724 534.038509 
L 70.222713 534.038444 
L 70.222702 534.038379 
L 70.222692 534.038314 
L 70.222682 534.038249 
L 70.222672 534.038184 
L 70.22266 534.038119 
L 70.222647 534.038054 
L 70.222632 534.037989 
L 70.222615 534.037925 
L 70.222597 534.03786 
L 70.222579 534.037795 
L 70.222573 534.037772 
L 70.222569 534.03773 
L 70.222565 534.037665 
L 70.22256 534.0376 
L 70.222556 534.037535 
L 70.222551 534.03747 
L 70.222545 534.037406 
L 70.222538 534.037341 
L 70.22253 534.037276 
L 70.222519 534.037211 
L 70.222505 534.037146 
L 70.22249 534.037081 
L 70.222473 534.037016 
L 70.222455 534.036951 
L 70.222436 534.036886 
L 70.222419 534.036822 
L 70.222402 534.036757 
L 70.222388 534.036692 
L 70.222375 534.036627 
L 70.222363 534.036562 
L 70.222352 534.036497 
L 70.222352 534.036497 
L 70.222347 534.036432 
L 70.22234 534.036367 
L 70.222333 534.036302 
L 70.222324 534.036238 
L 70.222313 534.036173 
L 70.222302 534.036108 
L 70.222291 534.036043 
L 70.22228 534.035978 
L 70.222269 534.035913 
L 70.22226 534.035848 
L 70.222249 534.035783 
L 70.222238 534.035718 
L 70.222224 534.035654 
L 70.222206 534.035589 
L 70.222181 534.035524 
L 70.222147 534.035459 
L 70.222131 534.035434 
L 70.222107 534.035394 
L 70.222059 534.035329 
L 70.221996 534.035264 
L 70.221921 534.035199 
L 70.22191 534.03519 
L 70.22181 534.035135 
L 70.221701 534.03507 
L 70.22169 534.035061 
L 70.221469 534.035065 
L 70.221463 534.03507 
L 70.221376 534.035135 
L 70.221296 534.035199 
L 70.221248 534.035242 
L 70.22123 534.035264 
L 70.221179 534.035329 
L 70.221135 534.035394 
L 70.221099 534.035459 
L 70.221068 534.035524 
L 70.221043 534.035589 
L 70.221027 534.035636 
L 70.221019 534.035654 
L 70.220994 534.035718 
L 70.220973 534.035783 
L 70.220955 534.035848 
L 70.220939 534.035913 
L 70.220922 534.035978 
L 70.220906 534.036043 
L 70.220889 534.036108 
L 70.220872 534.036173 
L 70.220856 534.036238 
L 70.220842 534.036302 
L 70.220829 534.036367 
L 70.220817 534.036432 
L 70.220807 534.036497 
L 70.220806 534.036504 
L 70.22079 534.036562 
L 70.220771 534.036627 
L 70.220753 534.036692 
L 70.220733 534.036757 
L 70.220714 534.036822 
L 70.220694 534.036886 
L 70.220676 534.036951 
L 70.220659 534.037016 
L 70.220644 534.037081 
L 70.220631 534.037146 
L 70.22062 534.037211 
L 70.220611 534.037276 
L 70.220602 534.037341 
L 70.220594 534.037406 
L 70.220587 534.03747 
L 70.220585 534.037489 
L 70.220573 534.037535 
L 70.220556 534.0376 
L 70.220541 534.037665 
L 70.220527 534.03773 
L 70.220515 534.037795 
L 70.220503 534.03786 
L 70.220492 534.037925 
L 70.220482 534.037989 
L 70.220471 534.038054 
L 70.220461 534.038119 
L 70.220451 534.038184 
L 70.220441 534.038249 
L 70.220432 534.038314 
L 70.220424 534.038379 
L 70.220417 534.038444 
L 70.220411 534.038509 
L 70.220405 534.038573 
L 70.2204 534.038638 
L 70.220396 534.038703 
L 70.220391 534.038768 
L 70.220387 534.038833 
L 70.220384 534.038898 
L 70.22038 534.038963 
L 70.220377 534.039028 
L 70.220374 534.039093 
L 70.220371 534.039157 
L 70.220368 534.039222 
L 70.220366 534.039287 
L 70.220365 534.039318 
L 70.22036 534.039352 
L 70.220352 534.039417 
L 70.220345 534.039482 
L 70.220341 534.039547 
L 70.220339 534.039612 
L 70.220341 534.039676 
L 70.220348 534.039741 
L 70.220361 534.039806 
L 70.220365 534.039817 
L 70.220369 534.039871 
L 70.220378 534.039936 
L 70.220392 534.040001 
L 70.220412 534.040066 
L 70.220444 534.040131 
L 70.220492 534.040196 
L 70.220569 534.04026 
L 70.220585 534.040272 
L 70.220629 534.040325 
L 70.220715 534.04039 
L 70.220806 534.040436 
L 70.220844 534.040455 
L 70.221016 534.04052 
z
M 70.221214 534.040325 
L 70.221031 534.04026 
L 70.221027 534.040259 
L 70.220912 534.040196 
L 70.220839 534.040131 
L 70.220806 534.040088 
L 70.220782 534.040066 
L 70.220727 534.040001 
L 70.22069 534.039936 
L 70.220666 534.039871 
L 70.22065 534.039806 
L 70.22064 534.039741 
L 70.220635 534.039676 
L 70.220632 534.039612 
L 70.220632 534.039547 
L 70.220634 534.039482 
L 70.220637 534.039417 
L 70.220642 534.039352 
L 70.220647 534.039287 
L 70.220652 534.039222 
L 70.220658 534.039157 
L 70.220665 534.039093 
L 70.220672 534.039028 
L 70.22068 534.038963 
L 70.220689 534.038898 
L 70.220698 534.038833 
L 70.220708 534.038768 
L 70.220718 534.038703 
L 70.220729 534.038638 
L 70.220741 534.038573 
L 70.220755 534.038509 
L 70.220769 534.038444 
L 70.220786 534.038379 
L 70.220805 534.038314 
L 70.220806 534.038309 
L 70.220816 534.038249 
L 70.220828 534.038184 
L 70.22084 534.038119 
L 70.220853 534.038054 
L 70.220866 534.037989 
L 70.22088 534.037925 
L 70.220894 534.03786 
L 70.220908 534.037795 
L 70.220923 534.03773 
L 70.220939 534.037665 
L 70.220956 534.0376 
L 70.220975 534.037535 
L 70.220995 534.03747 
L 70.221019 534.037406 
L 70.221027 534.037384 
L 70.221041 534.037341 
L 70.221063 534.037276 
L 70.221089 534.037211 
L 70.221117 534.037146 
L 70.221149 534.037081 
L 70.221183 534.037016 
L 70.22122 534.036951 
L 70.221248 534.036902 
L 70.221261 534.036886 
L 70.221313 534.036822 
L 70.221364 534.036757 
L 70.221416 534.036692 
L 70.221469 534.036627 
L 70.22169 534.036629 
L 70.221735 534.036692 
L 70.221777 534.036757 
L 70.221818 534.036822 
L 70.221857 534.036886 
L 70.221897 534.036951 
L 70.22191 534.036973 
L 70.221932 534.037016 
L 70.221965 534.037081 
L 70.221997 534.037146 
L 70.222026 534.037211 
L 70.222053 534.037276 
L 70.222076 534.037341 
L 70.222095 534.037406 
L 70.222111 534.03747 
L 70.222124 534.037535 
L 70.222131 534.037581 
L 70.222136 534.0376 
L 70.222149 534.037665 
L 70.222163 534.03773 
L 70.222176 534.037795 
L 70.22219 534.03786 
L 70.222206 534.037925 
L 70.222221 534.037989 
L 70.222237 534.038054 
L 70.222253 534.038119 
L 70.222267 534.038184 
L 70.22228 534.038249 
L 70.222292 534.038314 
L 70.222302 534.038379 
L 70.222311 534.038444 
L 70.222318 534.038509 
L 70.222325 534.038573 
L 70.222331 534.038638 
L 70.222337 534.038703 
L 70.222342 534.038768 
L 70.222347 534.038833 
L 70.222351 534.038898 
L 70.222352 534.03892 
L 70.222358 534.038963 
L 70.222366 534.039028 
L 70.222373 534.039093 
L 70.222379 534.039157 
L 70.222384 534.039222 
L 70.222389 534.039287 
L 70.222392 534.039352 
L 70.222393 534.039417 
L 70.222392 534.039482 
L 70.222387 534.039547 
L 70.222378 534.039612 
L 70.222363 534.039676 
L 70.222352 534.039708 
L 70.222347 534.039741 
L 70.222334 534.039806 
L 70.222316 534.039871 
L 70.222289 534.039936 
L 70.222249 534.040001 
L 70.222191 534.040066 
L 70.222131 534.040113 
L 70.222115 534.040131 
L 70.222036 534.040196 
L 70.22191 534.04026 
L 70.22191 534.04026 
L 70.22172 534.040325 
L 70.22169 534.040335 
L 70.221469 534.040359 
L 70.221248 534.040336 
z
" clip-path="url(#paed790407c)" style="fill: #e7e7f3"/>
    <path d="M 70.221248 534.040336 
L 70.221469 534.040359 
L 70.22169 534.040335 
L 70.22172 534.040325 
L 70.22191 534.04026 
L 70.22191 534.04026 
L 70.222036 534.040196 
L 70.222115 534.040131 
L 70.222131 534.040113 
L 70.222191 534.040066 
L 70.222249 534.040001 
L 70.222289 534.039936 
L 70.222316 534.039871 
L 70.222334 534.039806 
L 70.222347 534.039741 
L 70.222352 534.039708 
L 70.222363 534.039676 
L 70.222378 534.039612 
L 70.222387 534.039547 
L 70.222392 534.039482 
L 70.222393 534.039417 
L 70.222392 534.039352 
L 70.222389 534.039287 
L 70.222384 534.039222 
L 70.222379 534.039157 
L 70.222373 534.039093 
L 70.222366 534.039028 
L 70.222358 534.038963 
L 70.222352 534.03892 
L 70.222351 534.038898 
L 70.222347 534.038833 
L 70.222342 534.038768 
L 70.222337 534.038703 
L 70.222331 534.038638 
L 70.222325 534.038573 
L 70.222318 534.038509 
L 70.222311 534.038444 
L 70.222302 534.038379 
L 70.222292 534.038314 
L 70.22228 534.038249 
L 70.222267 534.038184 
L 70.222253 534.038119 
L 70.222237 534.038054 
L 70.222221 534.037989 
L 70.222206 534.037925 
L 70.22219 534.03786 
L 70.222176 534.037795 
L 70.222163 534.03773 
L 70.222149 534.037665 
L 70.222136 534.0376 
L 70.222131 534.037581 
L 70.222124 534.037535 
L 70.222111 534.03747 
L 70.222095 534.037406 
L 70.222076 534.037341 
L 70.222053 534.037276 
L 70.222026 534.037211 
L 70.221997 534.037146 
L 70.221965 534.037081 
L 70.221932 534.037016 
L 70.22191 534.036973 
L 70.221897 534.036951 
L 70.221857 534.036886 
L 70.221818 534.036822 
L 70.221777 534.036757 
L 70.221735 534.036692 
L 70.22169 534.036629 
L 70.221469 534.036627 
L 70.221416 534.036692 
L 70.221364 534.036757 
L 70.221313 534.036822 
L 70.221261 534.036886 
L 70.221248 534.036902 
L 70.22122 534.036951 
L 70.221183 534.037016 
L 70.221149 534.037081 
L 70.221117 534.037146 
L 70.221089 534.037211 
L 70.221063 534.037276 
L 70.221041 534.037341 
L 70.221027 534.037384 
L 70.221019 534.037406 
L 70.220995 534.03747 
L 70.220975 534.037535 
L 70.220956 534.0376 
L 70.220939 534.037665 
L 70.220923 534.03773 
L 70.220908 534.037795 
L 70.220894 534.03786 
L 70.22088 534.037925 
L 70.220866 534.037989 
L 70.220853 534.038054 
L 70.22084 534.038119 
L 70.220828 534.038184 
L 70.220816 534.038249 
L 70.220806 534.038309 
L 70.220805 534.038314 
L 70.220786 534.038379 
L 70.220769 534.038444 
L 70.220755 534.038509 
L 70.220741 534.038573 
L 70.220729 534.038638 
L 70.220718 534.038703 
L 70.220708 534.038768 
L 70.220698 534.038833 
L 70.220689 534.038898 
L 70.22068 534.038963 
L 70.220672 534.039028 
L 70.220665 534.039093 
L 70.220658 534.039157 
L 70.220652 534.039222 
L 70.220647 534.039287 
L 70.220642 534.039352 
L 70.220637 534.039417 
L 70.220634 534.039482 
L 70.220632 534.039547 
L 70.220632 534.039612 
L 70.220635 534.039676 
L 70.22064 534.039741 
L 70.22065 534.039806 
L 70.220666 534.039871 
L 70.22069 534.039936 
L 70.220727 534.040001 
L 70.220782 534.040066 
L 70.220806 534.040088 
L 70.220839 534.040131 
L 70.220912 534.040196 
L 70.221027 534.040259 
L 70.221031 534.04026 
L 70.221214 534.040325 
z
M 70.221192 534.040196 
L 70.221057 534.040131 
L 70.221027 534.040111 
L 70.220966 534.040066 
L 70.220903 534.040001 
L 70.220862 534.039936 
L 70.220834 534.039871 
L 70.220817 534.039806 
L 70.220806 534.039746 
L 70.220805 534.039741 
L 70.220793 534.039676 
L 70.220787 534.039612 
L 70.220787 534.039547 
L 70.22079 534.039482 
L 70.220796 534.039417 
L 70.220804 534.039352 
L 70.220806 534.039335 
L 70.22081 534.039287 
L 70.220816 534.039222 
L 70.220822 534.039157 
L 70.220829 534.039093 
L 70.220836 534.039028 
L 70.220844 534.038963 
L 70.220853 534.038898 
L 70.220863 534.038833 
L 70.220873 534.038768 
L 70.220884 534.038703 
L 70.220896 534.038638 
L 70.220908 534.038573 
L 70.220922 534.038509 
L 70.220936 534.038444 
L 70.220953 534.038379 
L 70.220972 534.038314 
L 70.220993 534.038249 
L 70.221015 534.038184 
L 70.221027 534.038153 
L 70.221037 534.038119 
L 70.221057 534.038054 
L 70.221078 534.037989 
L 70.2211 534.037925 
L 70.221122 534.03786 
L 70.221144 534.037795 
L 70.221166 534.03773 
L 70.22119 534.037665 
L 70.221216 534.0376 
L 70.221244 534.037535 
L 70.221248 534.037526 
L 70.221286 534.03747 
L 70.221335 534.037406 
L 70.221391 534.037341 
L 70.221456 534.037276 
L 70.221469 534.037264 
L 70.221576 534.037276 
L 70.22169 534.037288 
L 70.221734 534.037341 
L 70.221782 534.037406 
L 70.221823 534.03747 
L 70.221857 534.037535 
L 70.221886 534.0376 
L 70.22191 534.037665 
L 70.22191 534.037665 
L 70.22193 534.03773 
L 70.221949 534.037795 
L 70.221969 534.03786 
L 70.221989 534.037925 
L 70.22201 534.037989 
L 70.222031 534.038054 
L 70.222052 534.038119 
L 70.222071 534.038184 
L 70.222088 534.038249 
L 70.222103 534.038314 
L 70.222117 534.038379 
L 70.222128 534.038444 
L 70.222131 534.03846 
L 70.222143 534.038509 
L 70.222156 534.038573 
L 70.222169 534.038638 
L 70.22218 534.038703 
L 70.22219 534.038768 
L 70.222199 534.038833 
L 70.222208 534.038898 
L 70.222215 534.038963 
L 70.222222 534.039028 
L 70.222228 534.039093 
L 70.222234 534.039157 
L 70.222239 534.039222 
L 70.222244 534.039287 
L 70.222247 534.039352 
L 70.22225 534.039417 
L 70.22225 534.039482 
L 70.222247 534.039547 
L 70.222242 534.039612 
L 70.222231 534.039676 
L 70.222215 534.039741 
L 70.22219 534.039806 
L 70.222154 534.039871 
L 70.222131 534.039902 
L 70.222114 534.039936 
L 70.222069 534.040001 
L 70.222003 534.040066 
L 70.22191 534.040127 
L 70.221903 534.040131 
L 70.221759 534.040196 
L 70.22169 534.04022 
L 70.221469 534.040247 
L 70.221248 534.040217 
z
" clip-path="url(#paed790407c)" style="fill: #d0d0f4"/>
    <path d="M 70.221248 534.040217 
L 70.221469 534.040247 
L 70.22169 534.04022 
L 70.221759 534.040196 
L 70.221903 534.040131 
L 70.22191 534.040127 
L 70.222003 534.040066 
L 70.222069 534.040001 
L 70.222114 534.039936 
L 70.222131 534.039902 
L 70.222154 534.039871 
L 70.22219 534.039806 
L 70.222215 534.039741 
L 70.222231 534.039676 
L 70.222242 534.039612 
L 70.222247 534.039547 
L 70.22225 534.039482 
L 70.22225 534.039417 
L 70.222247 534.039352 
L 70.222244 534.039287 
L 70.222239 534.039222 
L 70.222234 534.039157 
L 70.222228 534.039093 
L 70.222222 534.039028 
L 70.222215 534.038963 
L 70.222208 534.038898 
L 70.222199 534.038833 
L 70.22219 534.038768 
L 70.22218 534.038703 
L 70.222169 534.038638 
L 70.222156 534.038573 
L 70.222143 534.038509 
L 70.222131 534.03846 
L 70.222128 534.038444 
L 70.222117 534.038379 
L 70.222103 534.038314 
L 70.222088 534.038249 
L 70.222071 534.038184 
L 70.222052 534.038119 
L 70.222031 534.038054 
L 70.22201 534.037989 
L 70.221989 534.037925 
L 70.221969 534.03786 
L 70.221949 534.037795 
L 70.22193 534.03773 
L 70.22191 534.037665 
L 70.22191 534.037665 
L 70.221886 534.0376 
L 70.221857 534.037535 
L 70.221823 534.03747 
L 70.221782 534.037406 
L 70.221734 534.037341 
L 70.22169 534.037288 
L 70.221576 534.037276 
L 70.221469 534.037264 
L 70.221456 534.037276 
L 70.221391 534.037341 
L 70.221335 534.037406 
L 70.221286 534.03747 
L 70.221248 534.037526 
L 70.221244 534.037535 
L 70.221216 534.0376 
L 70.22119 534.037665 
L 70.221166 534.03773 
L 70.221144 534.037795 
L 70.221122 534.03786 
L 70.2211 534.037925 
L 70.221078 534.037989 
L 70.221057 534.038054 
L 70.221037 534.038119 
L 70.221027 534.038153 
L 70.221015 534.038184 
L 70.220993 534.038249 
L 70.220972 534.038314 
L 70.220953 534.038379 
L 70.220936 534.038444 
L 70.220922 534.038509 
L 70.220908 534.038573 
L 70.220896 534.038638 
L 70.220884 534.038703 
L 70.220873 534.038768 
L 70.220863 534.038833 
L 70.220853 534.038898 
L 70.220844 534.038963 
L 70.220836 534.039028 
L 70.220829 534.039093 
L 70.220822 534.039157 
L 70.220816 534.039222 
L 70.22081 534.039287 
L 70.220806 534.039335 
L 70.220804 534.039352 
L 70.220796 534.039417 
L 70.22079 534.039482 
L 70.220787 534.039547 
L 70.220787 534.039612 
L 70.220793 534.039676 
L 70.220805 534.039741 
L 70.220806 534.039746 
L 70.220817 534.039806 
L 70.220834 534.039871 
L 70.220862 534.039936 
L 70.220903 534.040001 
L 70.220966 534.040066 
L 70.221027 534.040111 
L 70.221057 534.040131 
L 70.221192 534.040196 
z
M 70.221237 534.040131 
L 70.221112 534.040066 
L 70.221031 534.040001 
L 70.221027 534.039996 
L 70.220971 534.039936 
L 70.22093 534.039871 
L 70.220903 534.039806 
L 70.220886 534.039741 
L 70.220876 534.039676 
L 70.220871 534.039612 
L 70.22087 534.039547 
L 70.220873 534.039482 
L 70.220877 534.039417 
L 70.220883 534.039352 
L 70.22089 534.039287 
L 70.220898 534.039222 
L 70.220907 534.039157 
L 70.220916 534.039093 
L 70.220927 534.039028 
L 70.220939 534.038963 
L 70.220952 534.038898 
L 70.220966 534.038833 
L 70.220981 534.038768 
L 70.220997 534.038703 
L 70.221014 534.038638 
L 70.221027 534.03859 
L 70.221031 534.038573 
L 70.221046 534.038509 
L 70.221063 534.038444 
L 70.221082 534.038379 
L 70.221103 534.038314 
L 70.221126 534.038249 
L 70.221151 534.038184 
L 70.221179 534.038119 
L 70.221209 534.038054 
L 70.221239 534.037989 
L 70.221248 534.037971 
L 70.221281 534.037925 
L 70.221327 534.03786 
L 70.221373 534.037795 
L 70.22142 534.03773 
L 70.221467 534.037665 
L 70.221469 534.037663 
L 70.221479 534.037665 
L 70.22169 534.037714 
L 70.221698 534.03773 
L 70.221733 534.037795 
L 70.221768 534.03786 
L 70.221803 534.037925 
L 70.221838 534.037989 
L 70.221872 534.038054 
L 70.221906 534.038119 
L 70.22191 534.038128 
L 70.221934 534.038184 
L 70.221959 534.038249 
L 70.221982 534.038314 
L 70.222002 534.038379 
L 70.222019 534.038444 
L 70.222034 534.038509 
L 70.222047 534.038573 
L 70.222059 534.038638 
L 70.22207 534.038703 
L 70.22208 534.038768 
L 70.222089 534.038833 
L 70.222097 534.038898 
L 70.222104 534.038963 
L 70.22211 534.039028 
L 70.222116 534.039093 
L 70.222122 534.039157 
L 70.222127 534.039222 
L 70.222131 534.039287 
L 70.222131 534.039287 
L 70.222137 534.039352 
L 70.222141 534.039417 
L 70.222141 534.039482 
L 70.222139 534.039547 
L 70.222131 534.03961 
L 70.222131 534.039612 
L 70.222123 534.039676 
L 70.222109 534.039741 
L 70.222088 534.039806 
L 70.222058 534.039871 
L 70.222014 534.039936 
L 70.22195 534.040001 
L 70.22191 534.040031 
L 70.221857 534.040066 
L 70.221721 534.040131 
L 70.22169 534.040143 
L 70.221469 534.040174 
L 70.221248 534.040135 
z
" clip-path="url(#paed790407c)" style="fill: #b9b9f6"/>
    <path d="M 70.221248 534.040135 
L 70.221469 534.040174 
L 70.22169 534.040143 
L 70.221721 534.040131 
L 70.221857 534.040066 
L 70.22191 534.040031 
L 70.22195 534.040001 
L 70.222014 534.039936 
L 70.222058 534.039871 
L 70.222088 534.039806 
L 70.222109 534.039741 
L 70.222123 534.039676 
L 70.222131 534.039612 
L 70.222131 534.03961 
L 70.222139 534.039547 
L 70.222141 534.039482 
L 70.222141 534.039417 
L 70.222137 534.039352 
L 70.222131 534.039287 
L 70.222131 534.039287 
L 70.222127 534.039222 
L 70.222122 534.039157 
L 70.222116 534.039093 
L 70.22211 534.039028 
L 70.222104 534.038963 
L 70.222097 534.038898 
L 70.222089 534.038833 
L 70.22208 534.038768 
L 70.22207 534.038703 
L 70.222059 534.038638 
L 70.222047 534.038573 
L 70.222034 534.038509 
L 70.222019 534.038444 
L 70.222002 534.038379 
L 70.221982 534.038314 
L 70.221959 534.038249 
L 70.221934 534.038184 
L 70.22191 534.038128 
L 70.221906 534.038119 
L 70.221872 534.038054 
L 70.221838 534.037989 
L 70.221803 534.037925 
L 70.221768 534.03786 
L 70.221733 534.037795 
L 70.221698 534.03773 
L 70.22169 534.037714 
L 70.221479 534.037665 
L 70.221469 534.037663 
L 70.221467 534.037665 
L 70.22142 534.03773 
L 70.221373 534.037795 
L 70.221327 534.03786 
L 70.221281 534.037925 
L 70.221248 534.037971 
L 70.221239 534.037989 
L 70.221209 534.038054 
L 70.221179 534.038119 
L 70.221151 534.038184 
L 70.221126 534.038249 
L 70.221103 534.038314 
L 70.221082 534.038379 
L 70.221063 534.038444 
L 70.221046 534.038509 
L 70.221031 534.038573 
L 70.221027 534.03859 
L 70.221014 534.038638 
L 70.220997 534.038703 
L 70.220981 534.038768 
L 70.220966 534.038833 
L 70.220952 534.038898 
L 70.220939 534.038963 
L 70.220927 534.039028 
L 70.220916 534.039093 
L 70.220907 534.039157 
L 70.220898 534.039222 
L 70.22089 534.039287 
L 70.220883 534.039352 
L 70.220877 534.039417 
L 70.220873 534.039482 
L 70.22087 534.039547 
L 70.220871 534.039612 
L 70.220876 534.039676 
L 70.220886 534.039741 
L 70.220903 534.039806 
L 70.22093 534.039871 
L 70.220971 534.039936 
L 70.221027 534.039996 
L 70.221031 534.040001 
L 70.221112 534.040066 
L 70.221237 534.040131 
z
M 70.221323 534.040066 
L 70.221248 534.040047 
L 70.221171 534.040001 
L 70.221096 534.039936 
L 70.221047 534.039871 
L 70.221027 534.039833 
L 70.221012 534.039806 
L 70.220988 534.039741 
L 70.220973 534.039676 
L 70.220966 534.039612 
L 70.220964 534.039547 
L 70.220967 534.039482 
L 70.220973 534.039417 
L 70.22098 534.039352 
L 70.22099 534.039287 
L 70.221001 534.039222 
L 70.221013 534.039157 
L 70.221027 534.039093 
L 70.221027 534.039093 
L 70.221039 534.039028 
L 70.221052 534.038963 
L 70.221066 534.038898 
L 70.221082 534.038833 
L 70.221098 534.038768 
L 70.221116 534.038703 
L 70.221134 534.038638 
L 70.221154 534.038573 
L 70.221175 534.038509 
L 70.221198 534.038444 
L 70.221223 534.038379 
L 70.221248 534.038323 
L 70.221254 534.038314 
L 70.221301 534.038249 
L 70.221353 534.038184 
L 70.221409 534.038119 
L 70.221469 534.038055 
L 70.22169 534.038105 
L 70.221699 534.038119 
L 70.221743 534.038184 
L 70.221783 534.038249 
L 70.221818 534.038314 
L 70.22185 534.038379 
L 70.221877 534.038444 
L 70.221901 534.038509 
L 70.22191 534.038535 
L 70.221921 534.038573 
L 70.221939 534.038638 
L 70.221954 534.038703 
L 70.221968 534.038768 
L 70.221981 534.038833 
L 70.221993 534.038898 
L 70.222004 534.038963 
L 70.222014 534.039028 
L 70.222023 534.039093 
L 70.222031 534.039157 
L 70.222038 534.039222 
L 70.222045 534.039287 
L 70.22205 534.039352 
L 70.222054 534.039417 
L 70.222055 534.039482 
L 70.222054 534.039547 
L 70.222048 534.039612 
L 70.222037 534.039676 
L 70.222019 534.039741 
L 70.221991 534.039806 
L 70.221949 534.039871 
L 70.22191 534.039915 
L 70.221889 534.039936 
L 70.221804 534.040001 
L 70.22169 534.040062 
L 70.221664 534.040066 
L 70.221469 534.040097 
z
" clip-path="url(#paed790407c)" style="fill: #a0a0f7"/>
    <path d="M 70.221469 534.040097 
L 70.221664 534.040066 
L 70.22169 534.040062 
L 70.221804 534.040001 
L 70.221889 534.039936 
L 70.22191 534.039915 
L 70.221949 534.039871 
L 70.221991 534.039806 
L 70.222019 534.039741 
L 70.222037 534.039676 
L 70.222048 534.039612 
L 70.222054 534.039547 
L 70.222055 534.039482 
L 70.222054 534.039417 
L 70.22205 534.039352 
L 70.222045 534.039287 
L 70.222038 534.039222 
L 70.222031 534.039157 
L 70.222023 534.039093 
L 70.222014 534.039028 
L 70.222004 534.038963 
L 70.221993 534.038898 
L 70.221981 534.038833 
L 70.221968 534.038768 
L 70.221954 534.038703 
L 70.221939 534.038638 
L 70.221921 534.038573 
L 70.22191 534.038535 
L 70.221901 534.038509 
L 70.221877 534.038444 
L 70.22185 534.038379 
L 70.221818 534.038314 
L 70.221783 534.038249 
L 70.221743 534.038184 
L 70.221699 534.038119 
L 70.22169 534.038105 
L 70.221469 534.038055 
L 70.221409 534.038119 
L 70.221353 534.038184 
L 70.221301 534.038249 
L 70.221254 534.038314 
L 70.221248 534.038323 
L 70.221223 534.038379 
L 70.221198 534.038444 
L 70.221175 534.038509 
L 70.221154 534.038573 
L 70.221134 534.038638 
L 70.221116 534.038703 
L 70.221098 534.038768 
L 70.221082 534.038833 
L 70.221066 534.038898 
L 70.221052 534.038963 
L 70.221039 534.039028 
L 70.221027 534.039093 
L 70.221027 534.039093 
L 70.221013 534.039157 
L 70.221001 534.039222 
L 70.22099 534.039287 
L 70.22098 534.039352 
L 70.220973 534.039417 
L 70.220967 534.039482 
L 70.220964 534.039547 
L 70.220966 534.039612 
L 70.220973 534.039676 
L 70.220988 534.039741 
L 70.221012 534.039806 
L 70.221027 534.039833 
L 70.221047 534.039871 
L 70.221096 534.039936 
L 70.221171 534.040001 
L 70.221248 534.040047 
L 70.221323 534.040066 
z
M 70.221351 534.040001 
L 70.221248 534.039967 
L 70.221205 534.039936 
L 70.221142 534.039871 
L 70.2211 534.039806 
L 70.221073 534.039741 
L 70.221057 534.039676 
L 70.22105 534.039612 
L 70.221048 534.039547 
L 70.22105 534.039482 
L 70.221056 534.039417 
L 70.221063 534.039352 
L 70.221073 534.039287 
L 70.221084 534.039222 
L 70.221096 534.039157 
L 70.22111 534.039093 
L 70.221125 534.039028 
L 70.221141 534.038963 
L 70.221159 534.038898 
L 70.221178 534.038833 
L 70.221199 534.038768 
L 70.22122 534.038703 
L 70.221244 534.038638 
L 70.221248 534.038627 
L 70.221279 534.038573 
L 70.221318 534.038509 
L 70.221361 534.038444 
L 70.221408 534.038379 
L 70.22146 534.038314 
L 70.221469 534.038304 
L 70.221505 534.038314 
L 70.22169 534.038366 
L 70.221697 534.038379 
L 70.221733 534.038444 
L 70.221764 534.038509 
L 70.221792 534.038573 
L 70.221817 534.038638 
L 70.221839 534.038703 
L 70.22186 534.038768 
L 70.221879 534.038833 
L 70.221895 534.038898 
L 70.22191 534.038963 
L 70.22191 534.038963 
L 70.221923 534.039028 
L 70.221935 534.039093 
L 70.221946 534.039157 
L 70.221956 534.039222 
L 70.221964 534.039287 
L 70.221972 534.039352 
L 70.221977 534.039417 
L 70.221979 534.039482 
L 70.221977 534.039547 
L 70.221971 534.039612 
L 70.221957 534.039676 
L 70.221935 534.039741 
L 70.22191 534.039788 
L 70.2219 534.039806 
L 70.221849 534.039871 
L 70.221776 534.039936 
L 70.22169 534.039991 
L 70.221638 534.040001 
L 70.221469 534.040031 
z
" clip-path="url(#paed790407c)" style="fill: #8585f8"/>
    <path d="M 70.221469 534.040031 
L 70.221638 534.040001 
L 70.22169 534.039991 
L 70.221776 534.039936 
L 70.221849 534.039871 
L 70.2219 534.039806 
L 70.22191 534.039788 
L 70.221935 534.039741 
L 70.221957 534.039676 
L 70.221971 534.039612 
L 70.221977 534.039547 
L 70.221979 534.039482 
L 70.221977 534.039417 
L 70.221972 534.039352 
L 70.221964 534.039287 
L 70.221956 534.039222 
L 70.221946 534.039157 
L 70.221935 534.039093 
L 70.221923 534.039028 
L 70.22191 534.038963 
L 70.22191 534.038963 
L 70.221895 534.038898 
L 70.221879 534.038833 
L 70.22186 534.038768 
L 70.221839 534.038703 
L 70.221817 534.038638 
L 70.221792 534.038573 
L 70.221764 534.038509 
L 70.221733 534.038444 
L 70.221697 534.038379 
L 70.22169 534.038366 
L 70.221505 534.038314 
L 70.221469 534.038304 
L 70.22146 534.038314 
L 70.221408 534.038379 
L 70.221361 534.038444 
L 70.221318 534.038509 
L 70.221279 534.038573 
L 70.221248 534.038627 
L 70.221244 534.038638 
L 70.22122 534.038703 
L 70.221199 534.038768 
L 70.221178 534.038833 
L 70.221159 534.038898 
L 70.221141 534.038963 
L 70.221125 534.039028 
L 70.22111 534.039093 
L 70.221096 534.039157 
L 70.221084 534.039222 
L 70.221073 534.039287 
L 70.221063 534.039352 
L 70.221056 534.039417 
L 70.22105 534.039482 
L 70.221048 534.039547 
L 70.22105 534.039612 
L 70.221057 534.039676 
L 70.221073 534.039741 
L 70.2211 534.039806 
L 70.221142 534.039871 
L 70.221205 534.039936 
L 70.221248 534.039967 
L 70.221351 534.040001 
z
M 70.221352 534.039936 
L 70.221248 534.039891 
L 70.221227 534.039871 
L 70.221176 534.039806 
L 70.221144 534.039741 
L 70.221125 534.039676 
L 70.221115 534.039612 
L 70.221112 534.039547 
L 70.221115 534.039482 
L 70.221121 534.039417 
L 70.22113 534.039352 
L 70.221141 534.039287 
L 70.221154 534.039222 
L 70.221169 534.039157 
L 70.221184 534.039093 
L 70.221202 534.039028 
L 70.221221 534.038963 
L 70.221242 534.038898 
L 70.221248 534.03888 
L 70.221274 534.038833 
L 70.221311 534.038768 
L 70.22135 534.038703 
L 70.221391 534.038638 
L 70.221434 534.038573 
L 70.221469 534.038524 
L 70.221608 534.038573 
L 70.22169 534.038606 
L 70.221704 534.038638 
L 70.221732 534.038703 
L 70.221758 534.038768 
L 70.221781 534.038833 
L 70.221802 534.038898 
L 70.221821 534.038963 
L 70.221838 534.039028 
L 70.221854 534.039093 
L 70.221868 534.039157 
L 70.22188 534.039222 
L 70.221892 534.039287 
L 70.221901 534.039352 
L 70.221907 534.039417 
L 70.22191 534.039482 
L 70.221909 534.039547 
L 70.221901 534.039612 
L 70.221886 534.039676 
L 70.22186 534.039741 
L 70.22182 534.039806 
L 70.221761 534.039871 
L 70.22169 534.039926 
L 70.221649 534.039936 
L 70.221469 534.039973 
z
" clip-path="url(#paed790407c)" style="fill: #6c6cf9"/>
    <path d="M 70.221469 534.039973 
L 70.221649 534.039936 
L 70.22169 534.039926 
L 70.221761 534.039871 
L 70.22182 534.039806 
L 70.22186 534.039741 
L 70.221886 534.039676 
L 70.221901 534.039612 
L 70.221909 534.039547 
L 70.22191 534.039482 
L 70.221907 534.039417 
L 70.221901 534.039352 
L 70.221892 534.039287 
L 70.22188 534.039222 
L 70.221868 534.039157 
L 70.221854 534.039093 
L 70.221838 534.039028 
L 70.221821 534.038963 
L 70.221802 534.038898 
L 70.221781 534.038833 
L 70.221758 534.038768 
L 70.221732 534.038703 
L 70.221704 534.038638 
L 70.22169 534.038606 
L 70.221608 534.038573 
L 70.221469 534.038524 
L 70.221434 534.038573 
L 70.221391 534.038638 
L 70.22135 534.038703 
L 70.221311 534.038768 
L 70.221274 534.038833 
L 70.221248 534.03888 
L 70.221242 534.038898 
L 70.221221 534.038963 
L 70.221202 534.039028 
L 70.221184 534.039093 
L 70.221169 534.039157 
L 70.221154 534.039222 
L 70.221141 534.039287 
L 70.22113 534.039352 
L 70.221121 534.039417 
L 70.221115 534.039482 
L 70.221112 534.039547 
L 70.221115 534.039612 
L 70.221125 534.039676 
L 70.221144 534.039741 
L 70.221176 534.039806 
L 70.221227 534.039871 
L 70.221248 534.039891 
L 70.221352 534.039936 
z
M 70.221453 534.039871 
L 70.221334 534.039806 
L 70.221261 534.039741 
L 70.221248 534.039723 
L 70.22123 534.039676 
L 70.221217 534.039612 
L 70.221213 534.039547 
L 70.221216 534.039482 
L 70.221223 534.039417 
L 70.221234 534.039352 
L 70.221248 534.039287 
L 70.221248 534.039287 
L 70.221274 534.039222 
L 70.221302 534.039157 
L 70.221333 534.039093 
L 70.221367 534.039028 
L 70.221403 534.038963 
L 70.221442 534.038898 
L 70.221469 534.038856 
L 70.22155 534.038898 
L 70.221658 534.038963 
L 70.22169 534.038984 
L 70.221705 534.039028 
L 70.221725 534.039093 
L 70.221744 534.039157 
L 70.22176 534.039222 
L 70.221775 534.039287 
L 70.221787 534.039352 
L 70.221796 534.039417 
L 70.221801 534.039482 
L 70.2218 534.039547 
L 70.221792 534.039612 
L 70.221774 534.039676 
L 70.221742 534.039741 
L 70.221694 534.039806 
L 70.22169 534.039811 
L 70.221495 534.039871 
L 70.221469 534.039878 
z
" clip-path="url(#paed790407c)" style="fill: #4e4efb"/>
    <path d="M 70.221469 534.039878 
L 70.221495 534.039871 
L 70.22169 534.039811 
L 70.221694 534.039806 
L 70.221742 534.039741 
L 70.221774 534.039676 
L 70.221792 534.039612 
L 70.2218 534.039547 
L 70.221801 534.039482 
L 70.221796 534.039417 
L 70.221787 534.039352 
L 70.221775 534.039287 
L 70.22176 534.039222 
L 70.221744 534.039157 
L 70.221725 534.039093 
L 70.221705 534.039028 
L 70.22169 534.038984 
L 70.221658 534.038963 
L 70.22155 534.038898 
L 70.221469 534.038856 
L 70.221442 534.038898 
L 70.221403 534.038963 
L 70.221367 534.039028 
L 70.221333 534.039093 
L 70.221302 534.039157 
L 70.221274 534.039222 
L 70.221248 534.039287 
L 70.221248 534.039287 
L 70.221234 534.039352 
L 70.221223 534.039417 
L 70.221216 534.039482 
L 70.221213 534.039547 
L 70.221217 534.039612 
L 70.22123 534.039676 
L 70.221248 534.039723 
L 70.221261 534.039741 
L 70.221334 534.039806 
L 70.221453 534.039871 
z
M 70.221404 534.039741 
L 70.221351 534.039676 
L 70.221324 534.039612 
L 70.221315 534.039547 
L 70.221319 534.039482 
L 70.221332 534.039417 
L 70.221352 534.039352 
L 70.221377 534.039287 
L 70.221405 534.039222 
L 70.221437 534.039157 
L 70.221469 534.039097 
L 70.22155 534.039157 
L 70.221625 534.039222 
L 70.22169 534.039287 
L 70.22169 534.039287 
L 70.221704 534.039352 
L 70.221715 534.039417 
L 70.221721 534.039482 
L 70.221721 534.039547 
L 70.221712 534.039612 
L 70.221691 534.039676 
L 70.22169 534.03968 
L 70.221588 534.039741 
L 70.221469 534.03979 
z
" clip-path="url(#paed790407c)" style="fill: #2e2efd"/>
    <path d="M 70.221469 534.03979 
L 70.221588 534.039741 
L 70.22169 534.03968 
L 70.221691 534.039676 
L 70.221712 534.039612 
L 70.221721 534.039547 
L 70.221721 534.039482 
L 70.221715 534.039417 
L 70.221704 534.039352 
L 70.22169 534.039287 
L 70.22169 534.039287 
L 70.221625 534.039222 
L 70.22155 534.039157 
L 70.221469 534.039097 
L 70.221437 534.039157 
L 70.221405 534.039222 
L 70.221377 534.039287 
L 70.221352 534.039352 
L 70.221332 534.039417 
L 70.221319 534.039482 
L 70.221315 534.039547 
L 70.221324 534.039612 
L 70.221351 534.039676 
L 70.221404 534.039741 
z
" clip-path="url(#paed790407c)" style="fill: #1010fe"/>
   </g>
   <g id="QuadContourSet_2">
    <path d="M 69.684824 534.042783 
L 70.012126 534.042729 
L 72.920789 534.042275 
L 73.505401 534.042118 
L 75.193186 534.041508 
L 75.798382 534.040898 
L 76.049361 534.040287 
L 76.156755 534.039745 
L 76.27985 534.039677 
L 76.993083 534.039067 
L 77.274698 534.038457 
L 77.298756 534.037846 
L 77.135195 534.037236 
L 76.816538 534.036626 
L 76.369892 534.036015 
L 76.156755 534.035751 
L 76.127908 534.035405 
L 76.075217 534.034795 
L 76.019422 534.034184 
L 75.960792 534.033574 
L 75.898809 534.032964 
L 75.833006 534.032353 
L 75.76349 534.031743 
L 75.691297 534.031133 
L 75.617448 534.030523 
L 75.540285 534.029912 
L 75.453353 534.029302 
L 75.346533 534.028692 
L 75.210057 534.028081 
L 75.037928 534.027471 
L 74.826243 534.026861 
L 74.564706 534.02625 
L 74.226575 534.02564 
L 73.767591 534.02503 
L 73.144739 534.024419 
L 72.920789 534.024218 
L 72.161146 534.023809 
L 70.963349 534.023199 
L 69.684824 534.022589 
L 69.016276 534.023199 
L 68.376294 534.023809 
L 67.80392 534.024419 
L 67.339214 534.02503 
L 66.984978 534.02564 
L 66.718895 534.02625 
L 66.514585 534.026861 
L 66.448858 534.027087 
L 66.159615 534.027471 
L 65.76349 534.028081 
L 65.435413 534.028692 
L 65.164481 534.029302 
L 64.941857 534.029912 
L 64.756637 534.030523 
L 64.596505 534.031133 
L 64.450858 534.031743 
L 64.313256 534.032353 
L 64.181449 534.032964 
L 64.055825 534.033574 
L 63.937668 534.034184 
L 63.827646 534.034795 
L 63.725446 534.035405 
L 63.631393 534.036015 
L 63.548275 534.036626 
L 63.480693 534.037236 
L 63.432956 534.037846 
L 63.408689 534.038457 
L 63.413303 534.039067 
L 63.459442 534.039677 
L 63.57872 534.040287 
L 63.852677 534.040898 
L 64.507783 534.041508 
L 66.24483 534.042118 
L 66.448858 534.042177 
L 69.360853 534.042729 
z
M 67.595474 534.041508 
L 66.448858 534.040999 
L 66.194911 534.040898 
L 65.095987 534.040287 
L 64.608464 534.039677 
L 64.411875 534.039067 
L 64.382044 534.038457 
L 64.469265 534.037846 
L 64.652096 534.037236 
L 64.915804 534.036626 
L 65.242569 534.036015 
L 65.613156 534.035405 
L 66.015749 534.034795 
L 66.448858 534.034184 
L 66.448858 534.034184 
L 66.610485 534.033574 
L 66.782688 534.032964 
L 66.964103 534.032353 
L 67.154115 534.031743 
L 67.354543 534.031133 
L 67.57168 534.030523 
L 67.817336 534.029912 
L 68.107002 534.029302 
L 68.456113 534.028692 
L 68.87786 534.028081 
L 69.385884 534.027471 
L 69.684824 534.027154 
L 70.21326 534.027471 
L 71.0971 534.028081 
L 71.806706 534.028692 
L 72.366659 534.029302 
L 72.812547 534.029912 
L 72.920789 534.030074 
L 73.153523 534.030523 
L 73.455198 534.031133 
L 73.743825 534.031743 
L 74.020324 534.032353 
L 74.28266 534.032964 
L 74.529665 534.033574 
L 74.761705 534.034184 
L 74.980346 534.034795 
L 75.185817 534.035405 
L 75.372845 534.036015 
L 75.530362 534.036626 
L 75.646444 534.037236 
L 75.711863 534.037846 
L 75.71748 534.038457 
L 75.645644 534.039067 
L 75.452956 534.039677 
L 75.029087 534.040287 
L 74.078677 534.040898 
L 72.920789 534.041302 
L 72.092915 534.041508 
L 69.684824 534.041968 
z
" clip-path="url(#paed790407c)" style="fill: #e1eee1; fill-opacity: 0.5"/>
    <path d="M 69.684824 534.041968 
L 72.092915 534.041508 
L 72.920789 534.041302 
L 74.078677 534.040898 
L 75.029087 534.040287 
L 75.452956 534.039677 
L 75.645644 534.039067 
L 75.71748 534.038457 
L 75.711863 534.037846 
L 75.646444 534.037236 
L 75.530362 534.036626 
L 75.372845 534.036015 
L 75.185817 534.035405 
L 74.980346 534.034795 
L 74.761705 534.034184 
L 74.529665 534.033574 
L 74.28266 534.032964 
L 74.020324 534.032353 
L 73.743825 534.031743 
L 73.455198 534.031133 
L 73.153523 534.030523 
L 72.920789 534.030074 
L 72.812547 534.029912 
L 72.366659 534.029302 
L 71.806706 534.028692 
L 71.0971 534.028081 
L 70.21326 534.027471 
L 69.684824 534.027154 
L 69.385884 534.027471 
L 68.87786 534.028081 
L 68.456113 534.028692 
L 68.107002 534.029302 
L 67.817336 534.029912 
L 67.57168 534.030523 
L 67.354543 534.031133 
L 67.154115 534.031743 
L 66.964103 534.032353 
L 66.782688 534.032964 
L 66.610485 534.033574 
L 66.448858 534.034184 
L 66.448858 534.034184 
L 66.015749 534.034795 
L 65.613156 534.035405 
L 65.242569 534.036015 
L 64.915804 534.036626 
L 64.652096 534.037236 
L 64.469265 534.037846 
L 64.382044 534.038457 
L 64.411875 534.039067 
L 64.608464 534.039677 
L 65.095987 534.040287 
L 66.194911 534.040898 
L 66.448858 534.040999 
L 67.595474 534.041508 
z
M 69.664777 534.041508 
L 67.385569 534.040898 
L 66.510963 534.040287 
L 66.448858 534.040205 
L 65.743396 534.039677 
L 65.398202 534.039067 
L 65.343462 534.038457 
L 65.492867 534.037846 
L 65.809134 534.037236 
L 66.266563 534.036626 
L 66.448858 534.036407 
L 66.581993 534.036015 
L 66.805137 534.035405 
L 67.048528 534.034795 
L 67.310416 534.034184 
L 67.591549 534.033574 
L 67.891455 534.032964 
L 68.208009 534.032353 
L 68.539583 534.031743 
L 68.8881 534.031133 
L 69.263154 534.030523 
L 69.684824 534.029912 
L 70.384073 534.030523 
L 71.000738 534.031133 
L 71.576483 534.031743 
L 72.127004 534.032353 
L 72.651403 534.032964 
L 72.920789 534.033278 
L 73.116088 534.033574 
L 73.519411 534.034184 
L 73.898901 534.034795 
L 74.255278 534.035405 
L 74.580038 534.036015 
L 74.854622 534.036626 
L 75.058755 534.037236 
L 75.176589 534.037846 
L 75.19222 534.038457 
L 75.074757 534.039067 
L 74.748463 534.039677 
L 74.021324 534.040287 
L 72.920789 534.04076 
L 72.509318 534.040898 
L 69.707929 534.041508 
L 69.684824 534.041512 
z
" clip-path="url(#paed790407c)" style="fill: #cee5ce; fill-opacity: 0.5"/>
    <path d="M 69.684824 534.041512 
L 69.707929 534.041508 
L 72.509318 534.040898 
L 72.920789 534.04076 
L 74.021324 534.040287 
L 74.748463 534.039677 
L 75.074757 534.039067 
L 75.19222 534.038457 
L 75.176589 534.037846 
L 75.058755 534.037236 
L 74.854622 534.036626 
L 74.580038 534.036015 
L 74.255278 534.035405 
L 73.898901 534.034795 
L 73.519411 534.034184 
L 73.116088 534.033574 
L 72.920789 534.033278 
L 72.651403 534.032964 
L 72.127004 534.032353 
L 71.576483 534.031743 
L 71.000738 534.031133 
L 70.384073 534.030523 
L 69.684824 534.029912 
L 69.263154 534.030523 
L 68.8881 534.031133 
L 68.539583 534.031743 
L 68.208009 534.032353 
L 67.891455 534.032964 
L 67.591549 534.033574 
L 67.310416 534.034184 
L 67.048528 534.034795 
L 66.805137 534.035405 
L 66.581993 534.036015 
L 66.448858 534.036407 
L 66.266563 534.036626 
L 65.809134 534.037236 
L 65.492867 534.037846 
L 65.343462 534.038457 
L 65.398202 534.039067 
L 65.743396 534.039677 
L 66.448858 534.040205 
L 66.510963 534.040287 
L 67.385569 534.040898 
L 69.664777 534.041508 
z
M 68.337239 534.040898 
L 67.088372 534.040287 
L 66.577869 534.039677 
L 66.448858 534.039288 
L 66.290285 534.039067 
L 66.213017 534.038457 
L 66.418663 534.037846 
L 66.448858 534.037799 
L 66.591089 534.037236 
L 66.808893 534.036626 
L 67.079562 534.036015 
L 67.389112 534.035405 
L 67.726827 534.034795 
L 68.089652 534.034184 
L 68.478873 534.033574 
L 68.894279 534.032964 
L 69.333058 534.032353 
L 69.684824 534.031875 
L 70.266531 534.032353 
L 70.992539 534.032964 
L 71.67816 534.033574 
L 72.319465 534.034184 
L 72.920789 534.034795 
L 72.920789 534.034795 
L 73.413653 534.035405 
L 73.862984 534.036015 
L 74.243449 534.036626 
L 74.527219 534.037236 
L 74.692461 534.037846 
L 74.717148 534.038457 
L 74.558419 534.039067 
L 74.111285 534.039677 
L 73.109853 534.040287 
L 72.920789 534.040369 
L 71.34025 534.040898 
L 69.684824 534.041257 
z
" clip-path="url(#paed790407c)" style="fill: #bcdcbc; fill-opacity: 0.5"/>
    <path d="M 69.684824 534.041257 
L 71.34025 534.040898 
L 72.920789 534.040369 
L 73.109853 534.040287 
L 74.111285 534.039677 
L 74.558419 534.039067 
L 74.717148 534.038457 
L 74.692461 534.037846 
L 74.527219 534.037236 
L 74.243449 534.036626 
L 73.862984 534.036015 
L 73.413653 534.035405 
L 72.920789 534.034795 
L 72.920789 534.034795 
L 72.319465 534.034184 
L 71.67816 534.033574 
L 70.992539 534.032964 
L 70.266531 534.032353 
L 69.684824 534.031875 
L 69.333058 534.032353 
L 68.894279 534.032964 
L 68.478873 534.033574 
L 68.089652 534.034184 
L 67.726827 534.034795 
L 67.389112 534.035405 
L 67.079562 534.036015 
L 66.808893 534.036626 
L 66.591089 534.037236 
L 66.448858 534.037799 
L 66.418663 534.037846 
L 66.213017 534.038457 
L 66.290285 534.039067 
L 66.448858 534.039288 
L 66.577869 534.039677 
L 67.088372 534.040287 
L 68.337239 534.040898 
z
M 69.587715 534.040898 
L 67.847077 534.040287 
L 67.119904 534.039677 
L 66.836381 534.039067 
L 66.781841 534.038457 
L 66.871703 534.037846 
L 67.071906 534.037236 
L 67.364944 534.036626 
L 67.733359 534.036015 
L 68.156445 534.035405 
L 68.618099 534.034795 
L 69.113553 534.034184 
L 69.644799 534.033574 
L 69.684824 534.033526 
L 69.750981 534.033574 
L 70.628355 534.034184 
L 71.447791 534.034795 
L 72.21628 534.035405 
L 72.920789 534.036015 
L 72.920789 534.036015 
L 73.440379 534.036626 
L 73.82879 534.037236 
L 74.056326 534.037846 
L 74.092913 534.038457 
L 73.87996 534.039067 
L 73.274044 534.039677 
L 72.920789 534.039881 
L 72.085975 534.040287 
L 69.804116 534.040898 
L 69.684824 534.040924 
z
" clip-path="url(#paed790407c)" style="fill: #a8d2a8; fill-opacity: 0.5"/>
    <path d="M 69.684824 534.040924 
L 69.804116 534.040898 
L 72.085975 534.040287 
L 72.920789 534.039881 
L 73.274044 534.039677 
L 73.87996 534.039067 
L 74.092913 534.038457 
L 74.056326 534.037846 
L 73.82879 534.037236 
L 73.440379 534.036626 
L 72.920789 534.036015 
L 72.920789 534.036015 
L 72.21628 534.035405 
L 71.447791 534.034795 
L 70.628355 534.034184 
L 69.750981 534.033574 
L 69.684824 534.033526 
L 69.644799 534.033574 
L 69.113553 534.034184 
L 68.618099 534.034795 
L 68.156445 534.035405 
L 67.733359 534.036015 
L 67.364944 534.036626 
L 67.071906 534.037236 
L 66.871703 534.037846 
L 66.781841 534.038457 
L 66.836381 534.039067 
L 67.119904 534.039677 
L 67.847077 534.040287 
L 69.587715 534.040898 
z
M 68.755137 534.040287 
L 67.768642 534.039677 
L 67.372749 534.039067 
L 67.284032 534.038457 
L 67.390668 534.037846 
L 67.647374 534.037236 
L 68.030456 534.036626 
L 68.51586 534.036015 
L 69.074832 534.035405 
L 69.684824 534.034795 
L 70.695154 534.035405 
L 71.623228 534.036015 
L 72.416032 534.036626 
L 72.920789 534.037139 
L 72.992872 534.037236 
L 73.294963 534.037846 
L 73.345793 534.038457 
L 73.067943 534.039067 
L 72.920789 534.0392 
L 72.338982 534.039677 
L 70.899527 534.040287 
L 69.684824 534.040606 
z
" clip-path="url(#paed790407c)" style="fill: #8fc68f; fill-opacity: 0.5"/>
    <path d="M 69.684824 534.040606 
L 70.899527 534.040287 
L 72.338982 534.039677 
L 72.920789 534.0392 
L 73.067943 534.039067 
L 73.345793 534.038457 
L 73.294963 534.037846 
L 72.992872 534.037236 
L 72.920789 534.037139 
L 72.416032 534.036626 
L 71.623228 534.036015 
L 70.695154 534.035405 
L 69.684824 534.034795 
L 69.074832 534.035405 
L 68.51586 534.036015 
L 68.030456 534.036626 
L 67.647374 534.037236 
L 67.390668 534.037846 
L 67.284032 534.038457 
L 67.372749 534.039067 
L 67.768642 534.039677 
L 68.755137 534.040287 
z
M 69.358269 534.040287 
L 68.199533 534.039677 
L 67.729004 534.039067 
L 67.617586 534.038457 
L 67.735364 534.037846 
L 68.029599 534.037236 
L 68.472489 534.036626 
L 69.035596 534.036015 
L 69.684824 534.035405 
L 70.76139 534.036015 
L 71.686277 534.036626 
L 72.37935 534.037236 
L 72.778521 534.037846 
L 72.847536 534.038457 
L 72.542306 534.039067 
L 71.742142 534.039677 
L 70.111491 534.040287 
L 69.684824 534.0404 
z
" clip-path="url(#paed790407c)" style="fill: #78bb78; fill-opacity: 0.5"/>
    <path d="M 69.684824 534.0404 
L 70.111491 534.040287 
L 71.742142 534.039677 
L 72.542306 534.039067 
L 72.847536 534.038457 
L 72.778521 534.037846 
L 72.37935 534.037236 
L 71.686277 534.036626 
L 70.76139 534.036015 
L 69.684824 534.035405 
L 69.035596 534.036015 
L 68.472489 534.036626 
L 68.029599 534.037236 
L 67.735364 534.037846 
L 67.617586 534.038457 
L 67.729004 534.039067 
L 68.199533 534.039677 
L 69.358269 534.040287 
z
M 69.381312 534.039677 
L 68.706084 534.039067 
L 68.532404 534.038457 
L 68.680741 534.037846 
L 69.077905 534.037236 
L 69.684824 534.036626 
L 70.672823 534.037236 
L 71.278254 534.037846 
L 71.447936 534.038457 
L 71.114778 534.039067 
L 70.105227 534.039677 
L 69.684824 534.039825 
z
" clip-path="url(#paed790407c)" style="fill: #56aa56; fill-opacity: 0.5"/>
    <path d="M 69.684824 534.039825 
L 70.105227 534.039677 
L 71.114778 534.039067 
L 71.447936 534.038457 
L 71.278254 534.037846 
L 70.672823 534.037236 
L 69.684824 534.036626 
L 69.077905 534.037236 
L 68.680741 534.037846 
L 68.532404 534.038457 
L 68.706084 534.039067 
L 69.381312 534.039677 
z
M 69.448778 534.038457 
L 69.627724 534.037846 
L 69.684824 534.03777 
L 69.775438 534.037846 
L 70.045956 534.038457 
L 69.684824 534.039067 
z
" clip-path="url(#paed790407c)" style="fill: #259225; fill-opacity: 0.5"/>
    <path d="M 69.684824 534.039067 
L 70.045956 534.038457 
L 69.775438 534.037846 
L 69.684824 534.03777 
L 69.627724 534.037846 
L 69.448778 534.038457 
z
" clip-path="url(#paed790407c)" style="fill: #068306; fill-opacity: 0.5"/>
   </g>
   <g id="matplotlib.axis_1">
    <g id="xtick_1">
     <g id="line2d_1">
      <defs>
       <path id="m7fdad927ba" d="M 0 0 
L 0 3.5 
" style="stroke: #000000; stroke-width: 0.8"/>
      </defs>
      <g>
       <use xlink:href="#m7fdad927ba" x="158.57767" y="534.04" style="stroke: #000000; stroke-width: 0.8"/>
      </g>
     </g>
     <g id="text_1">
      <!-- 100000 -->
      <g transform="translate(139.49017 548.638438) scale(0.1 -0.1)">
       <defs>
        <path id="DejaVuSans-31" d="M 794 531 
L 1825 531 
L 1825 4091 
L 703 3866 
L 703 4441 
L 1819 4666 
L 2450 4666 
L 2450 531 
L 3481 531 
L 3481 0 
L 794 0 
L 794 531 
z
" transform="scale(0.015625)"/>
        <path id="DejaVuSans-30" d="M 2034 4250 
Q 1547 4250 1301 3770 
Q 1056 3291 1056 2328 
Q 1056 1369 1301 889 
Q 1547 409 2034 409 
Q 2525 409 2770 889 
Q 3016 1369 3016 2328 
Q 3016 3291 2770 3770 
Q 2525 4250 2034 4250 
z
M 2034 4750 
Q 2819 4750 3233 4129 
Q 3647 3509 3647 2328 
Q 3647 1150 3233 529 
Q 2819 -91 2034 -91 
Q 1250 -91 836 529 
Q 422 1150 422 2328 
Q 422 3509 836 4129 
Q 1250 4750 2034 4750 
z
" transform="scale(0.015625)"/>
       </defs>
       <use xlink:href="#DejaVuSans-31"/>
       <use xlink:href="#DejaVuSans-30" x="63.623047"/>
       <use xlink:href="#DejaVuSans-30" x="127.246094"/>
       <use xlink:href="#DejaVuSans-30" x="190.869141"/>
       <use xlink:href="#DejaVuSans-30" x="254.492188"/>
       <use xlink:href="#DejaVuSans-30" x="318.115234"/>
      </g>
     </g>
    </g>
    <g id="xtick_2">
     <g id="line2d_2">
      <g>
       <use xlink:href="#m7fdad927ba" x="246.935341" y="534.04" style="stroke: #000000; stroke-width: 0.8"/>
      </g>
     </g>
     <g id="text_2">
      <!-- 200000 -->
      <g transform="translate(227.847841 548.638438) scale(0.1 -0.1)">
       <defs>
        <path id="DejaVuSans-32" d="M 1228 531 
L 3431 531 
L 3431 0 
L 469 0 
L 469 531 
Q 828 903 1448 1529 
Q 2069 2156 2228 2338 
Q 2531 2678 2651 2914 
Q 2772 3150 2772 3378 
Q 2772 3750 2511 3984 
Q 2250 4219 1831 4219 
Q 1534 4219 1204 4116 
Q 875 4013 500 3803 
L 500 4441 
Q 881 4594 1212 4672 
Q 1544 4750 1819 4750 
Q 2544 4750 2975 4387 
Q 3406 4025 3406 3419 
Q 3406 3131 3298 2873 
Q 3191 2616 2906 2266 
Q 2828 2175 2409 1742 
Q 1991 1309 1228 531 
z
" transform="scale(0.015625)"/>
       </defs>
       <use xlink:href="#DejaVuSans-32"/>
       <use xlink:href="#DejaVuSans-30" x="63.623047"/>
       <use xlink:href="#DejaVuSans-30" x="127.246094"/>
       <use xlink:href="#DejaVuSans-30" x="190.869141"/>
       <use xlink:href="#DejaVuSans-30" x="254.492188"/>
       <use xlink:href="#DejaVuSans-30" x="318.115234"/>
      </g>
     </g>
    </g>
    <g id="xtick_3">
     <g id="line2d_3">
      <g>
       <use xlink:href="#m7fdad927ba" x="335.293011" y="534.04" style="stroke: #000000; stroke-width: 0.8"/>
      </g>
     </g>
     <g id="text_3">
      <!-- 300000 -->
      <g transform="translate(316.205511 548.638438) scale(0.1 -0.1)">
       <defs>
        <path id="DejaVuSans-33" d="M 2597 2516 
Q 3050 2419 3304 2112 
Q 3559 1806 3559 1356 
Q 3559 666 3084 287 
Q 2609 -91 1734 -91 
Q 1441 -91 1130 -33 
Q 819 25 488 141 
L 488 750 
Q 750 597 1062 519 
Q 1375 441 1716 441 
Q 2309 441 2620 675 
Q 2931 909 2931 1356 
Q 2931 1769 2642 2001 
Q 2353 2234 1838 2234 
L 1294 2234 
L 1294 2753 
L 1863 2753 
Q 2328 2753 2575 2939 
Q 2822 3125 2822 3475 
Q 2822 3834 2567 4026 
Q 2313 4219 1838 4219 
Q 1578 4219 1281 4162 
Q 984 4106 628 3988 
L 628 4550 
Q 988 4650 1302 4700 
Q 1616 4750 1894 4750 
Q 2613 4750 3031 4423 
Q 3450 4097 3450 3541 
Q 3450 3153 3228 2886 
Q 3006 2619 2597 2516 
z
" transform="scale(0.015625)"/>
       </defs>
       <use xlink:href="#DejaVuSans-33"/>
       <use xlink:href="#DejaVuSans-30" x="63.623047"/>
       <use xlink:href="#DejaVuSans-30" x="127.246094"/>
       <use xlink:href="#DejaVuSans-30" x="190.869141"/>
       <use xlink:href="#DejaVuSans-30" x="254.492188"/>
       <use xlink:href="#DejaVuSans-30" x="318.115234"/>
      </g>
     </g>
    </g>
    <g id="xtick_4">
     <g id="line2d_4">
      <g>
       <use xlink:href="#m7fdad927ba" x="423.650682" y="534.04" style="stroke: #000000; stroke-width: 0.8"/>
      </g>
     </g>
     <g id="text_4">
      <!-- 400000 -->
      <g transform="translate(404.563182 548.638438) scale(0.1 -0.1)">
       <defs>
        <path id="DejaVuSans-34" d="M 2419 4116 
L 825 1625 
L 2419 1625 
L 2419 4116 
z
M 2253 4666 
L 3047 4666 
L 3047 1625 
L 3713 1625 
L 3713 1100 
L 3047 1100 
L 3047 0 
L 2419 0 
L 2419 1100 
L 313 1100 
L 313 1709 
L 2253 4666 
z
" transform="scale(0.015625)"/>
       </defs>
       <use xlink:href="#DejaVuSans-34"/>
       <use xlink:href="#DejaVuSans-30" x="63.623047"/>
       <use xlink:href="#DejaVuSans-30" x="127.246094"/>
       <use xlink:href="#DejaVuSans-30" x="190.869141"/>
       <use xlink:href="#DejaVuSans-30" x="254.492188"/>
       <use xlink:href="#DejaVuSans-30" x="318.115234"/>
      </g>
     </g>
    </g>
    <g id="xtick_5">
     <g id="line2d_5">
      <g>
       <use xlink:href="#m7fdad927ba" x="512.008352" y="534.04" style="stroke: #000000; stroke-width: 0.8"/>
      </g>
     </g>
     <g id="text_5">
      <!-- 500000 -->
      <g transform="translate(492.920852 548.638438) scale(0.1 -0.1)">
       <defs>
        <path id="DejaVuSans-35" d="M 691 4666 
L 3169 4666 
L 3169 4134 
L 1269 4134 
L 1269 2991 
Q 1406 3038 1543 3061 
Q 1681 3084 1819 3084 
Q 2600 3084 3056 2656 
Q 3513 2228 3513 1497 
Q 3513 744 3044 326 
Q 2575 -91 1722 -91 
Q 1428 -91 1123 -41 
Q 819 9 494 109 
L 494 744 
Q 775 591 1075 516 
Q 1375 441 1709 441 
Q 2250 441 2565 725 
Q 2881 1009 2881 1497 
Q 2881 1984 2565 2268 
Q 2250 2553 1709 2553 
Q 1456 2553 1204 2497 
Q 953 2441 691 2322 
L 691 4666 
z
" transform="scale(0.015625)"/>
       </defs>
       <use xlink:href="#DejaVuSans-35"/>
       <use xlink:href="#DejaVuSans-30" x="63.623047"/>
       <use xlink:href="#DejaVuSans-30" x="127.246094"/>
       <use xlink:href="#DejaVuSans-30" x="190.869141"/>
       <use xlink:href="#DejaVuSans-30" x="254.492188"/>
       <use xlink:href="#DejaVuSans-30" x="318.115234"/>
      </g>
     </g>
    </g>
    <g id="xtick_6">
     <g id="line2d_6">
      <g>
       <use xlink:href="#m7fdad927ba" x="600.366023" y="534.04" style="stroke: #000000; stroke-width: 0.8"/>
      </g>
     </g>
     <g id="text_6">
      <!-- 600000 -->
      <g transform="translate(581.278523 548.638438) scale(0.1 -0.1)">
       <defs>
        <path id="DejaVuSans-36" d="M 2113 2584 
Q 1688 2584 1439 2293 
Q 1191 2003 1191 1497 
Q 1191 994 1439 701 
Q 1688 409 2113 409 
Q 2538 409 2786 701 
Q 3034 994 3034 1497 
Q 3034 2003 2786 2293 
Q 2538 2584 2113 2584 
z
M 3366 4563 
L 3366 3988 
Q 3128 4100 2886 4159 
Q 2644 4219 2406 4219 
Q 1781 4219 1451 3797 
Q 1122 3375 1075 2522 
Q 1259 2794 1537 2939 
Q 1816 3084 2150 3084 
Q 2853 3084 3261 2657 
Q 3669 2231 3669 1497 
Q 3669 778 3244 343 
Q 2819 -91 2113 -91 
Q 1303 -91 875 529 
Q 447 1150 447 2328 
Q 447 3434 972 4092 
Q 1497 4750 2381 4750 
Q 2619 4750 2861 4703 
Q 3103 4656 3366 4563 
z
" transform="scale(0.015625)"/>
       </defs>
       <use xlink:href="#DejaVuSans-36"/>
       <use xlink:href="#DejaVuSans-30" x="63.623047"/>
       <use xlink:href="#DejaVuSans-30" x="127.246094"/>
       <use xlink:href="#DejaVuSans-30" x="190.869141"/>
       <use xlink:href="#DejaVuSans-30" x="254.492188"/>
       <use xlink:href="#DejaVuSans-30" x="318.115234"/>
      </g>
     </g>
    </g>
    <g id="xtick_7">
     <g id="line2d_7">
      <g>
       <use xlink:href="#m7fdad927ba" x="688.723693" y="534.04" style="stroke: #000000; stroke-width: 0.8"/>
      </g>
     </g>
     <g id="text_7">
      <!-- 700000 -->
      <g transform="translate(669.636193 548.638438) scale(0.1 -0.1)">
       <defs>
        <path id="DejaVuSans-37" d="M 525 4666 
L 3525 4666 
L 3525 4397 
L 1831 0 
L 1172 0 
L 2766 4134 
L 525 4134 
L 525 4666 
z
" transform="scale(0.015625)"/>
       </defs>
       <use xlink:href="#DejaVuSans-37"/>
       <use xlink:href="#DejaVuSans-30" x="63.623047"/>
       <use xlink:href="#DejaVuSans-30" x="127.246094"/>
       <use xlink:href="#DejaVuSans-30" x="190.869141"/>
       <use xlink:href="#DejaVuSans-30" x="254.492188"/>
       <use xlink:href="#DejaVuSans-30" x="318.115234"/>
      </g>
     </g>
    </g>
    <g id="text_8">
     <!-- Energy Uncertainties -->
     <g transform="translate(332.77383 562.316562) scale(0.1 -0.1)">
      <defs>
       <path id="DejaVuSans-45" d="M 628 4666 
L 3578 4666 
L 3578 4134 
L 1259 4134 
L 1259 2753 
L 3481 2753 
L 3481 2222 
L 1259 2222 
L 1259 531 
L 3634 531 
L 3634 0 
L 628 0 
L 628 4666 
z
" transform="scale(0.015625)"/>
       <path id="DejaVuSans-6e" d="M 3513 2113 
L 3513 0 
L 2938 0 
L 2938 2094 
Q 2938 2591 2744 2837 
Q 2550 3084 2163 3084 
Q 1697 3084 1428 2787 
Q 1159 2491 1159 1978 
L 1159 0 
L 581 0 
L 581 3500 
L 1159 3500 
L 1159 2956 
Q 1366 3272 1645 3428 
Q 1925 3584 2291 3584 
Q 2894 3584 3203 3211 
Q 3513 2838 3513 2113 
z
" transform="scale(0.015625)"/>
       <path id="DejaVuSans-65" d="M 3597 1894 
L 3597 1613 
L 953 1613 
Q 991 1019 1311 708 
Q 1631 397 2203 397 
Q 2534 397 2845 478 
Q 3156 559 3463 722 
L 3463 178 
Q 3153 47 2828 -22 
Q 2503 -91 2169 -91 
Q 1331 -91 842 396 
Q 353 884 353 1716 
Q 353 2575 817 3079 
Q 1281 3584 2069 3584 
Q 2775 3584 3186 3129 
Q 3597 2675 3597 1894 
z
M 3022 2063 
Q 3016 2534 2758 2815 
Q 2500 3097 2075 3097 
Q 1594 3097 1305 2825 
Q 1016 2553 972 2059 
L 3022 2063 
z
" transform="scale(0.015625)"/>
       <path id="DejaVuSans-72" d="M 2631 2963 
Q 2534 3019 2420 3045 
Q 2306 3072 2169 3072 
Q 1681 3072 1420 2755 
Q 1159 2438 1159 1844 
L 1159 0 
L 581 0 
L 581 3500 
L 1159 3500 
L 1159 2956 
Q 1341 3275 1631 3429 
Q 1922 3584 2338 3584 
Q 2397 3584 2469 3576 
Q 2541 3569 2628 3553 
L 2631 2963 
z
" transform="scale(0.015625)"/>
       <path id="DejaVuSans-67" d="M 2906 1791 
Q 2906 2416 2648 2759 
Q 2391 3103 1925 3103 
Q 1463 3103 1205 2759 
Q 947 2416 947 1791 
Q 947 1169 1205 825 
Q 1463 481 1925 481 
Q 2391 481 2648 825 
Q 2906 1169 2906 1791 
z
M 3481 434 
Q 3481 -459 3084 -895 
Q 2688 -1331 1869 -1331 
Q 1566 -1331 1297 -1286 
Q 1028 -1241 775 -1147 
L 775 -588 
Q 1028 -725 1275 -790 
Q 1522 -856 1778 -856 
Q 2344 -856 2625 -561 
Q 2906 -266 2906 331 
L 2906 616 
Q 2728 306 2450 153 
Q 2172 0 1784 0 
Q 1141 0 747 490 
Q 353 981 353 1791 
Q 353 2603 747 3093 
Q 1141 3584 1784 3584 
Q 2172 3584 2450 3431 
Q 2728 3278 2906 2969 
L 2906 3500 
L 3481 3500 
L 3481 434 
z
" transform="scale(0.015625)"/>
       <path id="DejaVuSans-79" d="M 2059 -325 
Q 1816 -950 1584 -1140 
Q 1353 -1331 966 -1331 
L 506 -1331 
L 506 -850 
L 844 -850 
Q 1081 -850 1212 -737 
Q 1344 -625 1503 -206 
L 1606 56 
L 191 3500 
L 800 3500 
L 1894 763 
L 2988 3500 
L 3597 3500 
L 2059 -325 
z
" transform="scale(0.015625)"/>
       <path id="DejaVuSans-20" transform="scale(0.015625)"/>
       <path id="DejaVuSans-55" d="M 556 4666 
L 1191 4666 
L 1191 1831 
Q 1191 1081 1462 751 
Q 1734 422 2344 422 
Q 2950 422 3222 751 
Q 3494 1081 3494 1831 
L 3494 4666 
L 4128 4666 
L 4128 1753 
Q 4128 841 3676 375 
Q 3225 -91 2344 -91 
Q 1459 -91 1007 375 
Q 556 841 556 1753 
L 556 4666 
z
" transform="scale(0.015625)"/>
       <path id="DejaVuSans-63" d="M 3122 3366 
L 3122 2828 
Q 2878 2963 2633 3030 
Q 2388 3097 2138 3097 
Q 1578 3097 1268 2742 
Q 959 2388 959 1747 
Q 959 1106 1268 751 
Q 1578 397 2138 397 
Q 2388 397 2633 464 
Q 2878 531 3122 666 
L 3122 134 
Q 2881 22 2623 -34 
Q 2366 -91 2075 -91 
Q 1284 -91 818 406 
Q 353 903 353 1747 
Q 353 2603 823 3093 
Q 1294 3584 2113 3584 
Q 2378 3584 2631 3529 
Q 2884 3475 3122 3366 
z
" transform="scale(0.015625)"/>
       <path id="DejaVuSans-74" d="M 1172 4494 
L 1172 3500 
L 2356 3500 
L 2356 3053 
L 1172 3053 
L 1172 1153 
Q 1172 725 1289 603 
Q 1406 481 1766 481 
L 2356 481 
L 2356 0 
L 1766 0 
Q 1100 0 847 248 
Q 594 497 594 1153 
L 594 3053 
L 172 3053 
L 172 3500 
L 594 3500 
L 594 4494 
L 1172 4494 
z
" transform="scale(0.015625)"/>
       <path id="DejaVuSans-61" d="M 2194 1759 
Q 1497 1759 1228 1600 
Q 959 1441 959 1056 
Q 959 750 1161 570 
Q 1363 391 1709 391 
Q 2188 391 2477 730 
Q 2766 1069 2766 1631 
L 2766 1759 
L 2194 1759 
z
M 3341 1997 
L 3341 0 
L 2766 0 
L 2766 531 
Q 2569 213 2275 61 
Q 1981 -91 1556 -91 
Q 1019 -91 701 211 
Q 384 513 384 1019 
Q 384 1609 779 1909 
Q 1175 2209 1959 2209 
L 2766 2209 
L 2766 2266 
Q 2766 2663 2505 2880 
Q 2244 3097 1772 3097 
Q 1472 3097 1187 3025 
Q 903 2953 641 2809 
L 641 3341 
Q 956 3463 1253 3523 
Q 1550 3584 1831 3584 
Q 2591 3584 2966 3190 
Q 3341 2797 3341 1997 
z
" transform="scale(0.015625)"/>
       <path id="DejaVuSans-69" d="M 603 3500 
L 1178 3500 
L 1178 0 
L 603 0 
L 603 3500 
z
M 603 4863 
L 1178 4863 
L 1178 4134 
L 603 4134 
L 603 4863 
z
" transform="scale(0.015625)"/>
       <path id="DejaVuSans-73" d="M 2834 3397 
L 2834 2853 
Q 2591 2978 2328 3040 
Q 2066 3103 1784 3103 
Q 1356 3103 1142 2972 
Q 928 2841 928 2578 
Q 928 2378 1081 2264 
Q 1234 2150 1697 2047 
L 1894 2003 
Q 2506 1872 2764 1633 
Q 3022 1394 3022 966 
Q 3022 478 2636 193 
Q 2250 -91 1575 -91 
Q 1294 -91 989 -36 
Q 684 19 347 128 
L 347 722 
Q 666 556 975 473 
Q 1284 391 1588 391 
Q 1994 391 2212 530 
Q 2431 669 2431 922 
Q 2431 1156 2273 1281 
Q 2116 1406 1581 1522 
L 1381 1569 
Q 847 1681 609 1914 
Q 372 2147 372 2553 
Q 372 3047 722 3315 
Q 1072 3584 1716 3584 
Q 2034 3584 2315 3537 
Q 2597 3491 2834 3397 
z
" transform="scale(0.015625)"/>
      </defs>
      <use xlink:href="#DejaVuSans-45"/>
      <use xlink:href="#DejaVuSans-6e" x="63.183594"/>
      <use xlink:href="#DejaVuSans-65" x="126.5625"/>
      <use xlink:href="#DejaVuSans-72" x="188.085938"/>
      <use xlink:href="#DejaVuSans-67" x="227.449219"/>
      <use xlink:href="#DejaVuSans-79" x="290.925781"/>
      <use xlink:href="#DejaVuSans-20" x="350.105469"/>
      <use xlink:href="#DejaVuSans-55" x="381.892578"/>
      <use xlink:href="#DejaVuSans-6e" x="455.085938"/>
      <use xlink:href="#DejaVuSans-63" x="518.464844"/>
      <use xlink:href="#DejaVuSans-65" x="573.445312"/>
      <use xlink:href="#DejaVuSans-72" x="634.96875"/>
      <use xlink:href="#DejaVuSans-74" x="676.082031"/>
      <use xlink:href="#DejaVuSans-61" x="715.291016"/>
      <use xlink:href="#DejaVuSans-69" x="776.570312"/>
      <use xlink:href="#DejaVuSans-6e" x="804.353516"/>
      <use xlink:href="#DejaVuSans-74" x="867.732422"/>
      <use xlink:href="#DejaVuSans-69" x="906.941406"/>
      <use xlink:href="#DejaVuSans-65" x="934.724609"/>
      <use xlink:href="#DejaVuSans-73" x="996.248047"/>
     </g>
    </g>
   </g>
   <g id="matplotlib.axis_2">
    <g id="ytick_1">
     <g id="line2d_8">
      <defs>
       <path id="m0a26134117" d="M 0 0 
L -3.5 0 
" style="stroke: #000000; stroke-width: 0.8"/>
      </defs>
      <g>
       <use xlink:href="#m0a26134117" x="70.22" y="460.648696" style="stroke: #000000; stroke-width: 0.8"/>
      </g>
     </g>
     <g id="text_9">
      <!-- 100000 -->
      <g transform="translate(25.045 464.447915) scale(0.1 -0.1)">
       <use xlink:href="#DejaVuSans-31"/>
       <use xlink:href="#DejaVuSans-30" x="63.623047"/>
       <use xlink:href="#DejaVuSans-30" x="127.246094"/>
       <use xlink:href="#DejaVuSans-30" x="190.869141"/>
       <use xlink:href="#DejaVuSans-30" x="254.492188"/>
       <use xlink:href="#DejaVuSans-30" x="318.115234"/>
      </g>
     </g>
    </g>
    <g id="ytick_2">
     <g id="line2d_9">
      <g>
       <use xlink:href="#m0a26134117" x="70.22" y="387.257392" style="stroke: #000000; stroke-width: 0.8"/>
      </g>
     </g>
     <g id="text_10">
      <!-- 200000 -->
      <g transform="translate(25.045 391.056611) scale(0.1 -0.1)">
       <use xlink:href="#DejaVuSans-32"/>
       <use xlink:href="#DejaVuSans-30" x="63.623047"/>
       <use xlink:href="#DejaVuSans-30" x="127.246094"/>
       <use xlink:href="#DejaVuSans-30" x="190.869141"/>
       <use xlink:href="#DejaVuSans-30" x="254.492188"/>
       <use xlink:href="#DejaVuSans-30" x="318.115234"/>
      </g>
     </g>
    </g>
    <g id="ytick_3">
     <g id="line2d_10">
      <g>
       <use xlink:href="#m0a26134117" x="70.22" y="313.866088" style="stroke: #000000; stroke-width: 0.8"/>
      </g>
     </g>
     <g id="text_11">
      <!-- 300000 -->
      <g transform="translate(25.045 317.665307) scale(0.1 -0.1)">
       <use xlink:href="#DejaVuSans-33"/>
       <use xlink:href="#DejaVuSans-30" x="63.623047"/>
       <use xlink:href="#DejaVuSans-30" x="127.246094"/>
       <use xlink:href="#DejaVuSans-30" x="190.869141"/>
       <use xlink:href="#DejaVuSans-30" x="254.492188"/>
       <use xlink:href="#DejaVuSans-30" x="318.115234"/>
      </g>
     </g>
    </g>
    <g id="ytick_4">
     <g id="line2d_11">
      <g>
       <use xlink:href="#m0a26134117" x="70.22" y="240.474784" style="stroke: #000000; stroke-width: 0.8"/>
      </g>
     </g>
     <g id="text_12">
      <!-- 400000 -->
      <g transform="translate(25.045 244.274002) scale(0.1 -0.1)">
       <use xlink:href="#DejaVuSans-34"/>
       <use xlink:href="#DejaVuSans-30" x="63.623047"/>
       <use xlink:href="#DejaVuSans-30" x="127.246094"/>
       <use xlink:href="#DejaVuSans-30" x="190.869141"/>
       <use xlink:href="#DejaVuSans-30" x="254.492188"/>
       <use xlink:href="#DejaVuSans-30" x="318.115234"/>
      </g>
     </g>
    </g>
    <g id="ytick_5">
     <g id="line2d_12">
      <g>
       <use xlink:href="#m0a26134117" x="70.22" y="167.08348" style="stroke: #000000; stroke-width: 0.8"/>
      </g>
     </g>
     <g id="text_13">
      <!-- 500000 -->
      <g transform="translate(25.045 170.882698) scale(0.1 -0.1)">
       <use xlink:href="#DejaVuSans-35"/>
       <use xlink:href="#DejaVuSans-30" x="63.623047"/>
       <use xlink:href="#DejaVuSans-30" x="127.246094"/>
       <use xlink:href="#DejaVuSans-30" x="190.869141"/>
       <use xlink:href="#DejaVuSans-30" x="254.492188"/>
       <use xlink:href="#DejaVuSans-30" x="318.115234"/>
      </g>
     </g>
    </g>
    <g id="ytick_6">
     <g id="line2d_13">
      <g>
       <use xlink:href="#m0a26134117" x="70.22" y="93.692175" style="stroke: #000000; stroke-width: 0.8"/>
      </g>
     </g>
     <g id="text_14">
      <!-- 600000 -->
      <g transform="translate(25.045 97.491394) scale(0.1 -0.1)">
       <use xlink:href="#DejaVuSans-36"/>
       <use xlink:href="#DejaVuSans-30" x="63.623047"/>
       <use xlink:href="#DejaVuSans-30" x="127.246094"/>
       <use xlink:href="#DejaVuSans-30" x="190.869141"/>
       <use xlink:href="#DejaVuSans-30" x="254.492188"/>
       <use xlink:href="#DejaVuSans-30" x="318.115234"/>
      </g>
     </g>
    </g>
    <g id="ytick_7">
     <g id="line2d_14">
      <g>
       <use xlink:href="#m0a26134117" x="70.22" y="20.300871" style="stroke: #000000; stroke-width: 0.8"/>
      </g>
     </g>
     <g id="text_15">
      <!-- 700000 -->
      <g transform="translate(25.045 24.10009) scale(0.1 -0.1)">
       <use xlink:href="#DejaVuSans-37"/>
       <use xlink:href="#DejaVuSans-30" x="63.623047"/>
       <use xlink:href="#DejaVuSans-30" x="127.246094"/>
       <use xlink:href="#DejaVuSans-30" x="190.869141"/>
       <use xlink:href="#DejaVuSans-30" x="254.492188"/>
       <use xlink:href="#DejaVuSans-30" x="318.115234"/>
      </g>
     </g>
    </g>
    <g id="text_16">
     <!-- Energy Errors [kJ/mol] -->
     <g transform="translate(18.965312 327.169219) rotate(-90) scale(0.1 -0.1)">
      <defs>
       <path id="DejaVuSans-6f" d="M 1959 3097 
Q 1497 3097 1228 2736 
Q 959 2375 959 1747 
Q 959 1119 1226 758 
Q 1494 397 1959 397 
Q 2419 397 2687 759 
Q 2956 1122 2956 1747 
Q 2956 2369 2687 2733 
Q 2419 3097 1959 3097 
z
M 1959 3584 
Q 2709 3584 3137 3096 
Q 3566 2609 3566 1747 
Q 3566 888 3137 398 
Q 2709 -91 1959 -91 
Q 1206 -91 779 398 
Q 353 888 353 1747 
Q 353 2609 779 3096 
Q 1206 3584 1959 3584 
z
" transform="scale(0.015625)"/>
       <path id="DejaVuSans-5b" d="M 550 4863 
L 1875 4863 
L 1875 4416 
L 1125 4416 
L 1125 -397 
L 1875 -397 
L 1875 -844 
L 550 -844 
L 550 4863 
z
" transform="scale(0.015625)"/>
       <path id="DejaVuSans-6b" d="M 581 4863 
L 1159 4863 
L 1159 1991 
L 2875 3500 
L 3609 3500 
L 1753 1863 
L 3688 0 
L 2938 0 
L 1159 1709 
L 1159 0 
L 581 0 
L 581 4863 
z
" transform="scale(0.015625)"/>
       <path id="DejaVuSans-4a" d="M 628 4666 
L 1259 4666 
L 1259 325 
Q 1259 -519 939 -900 
Q 619 -1281 -91 -1281 
L -331 -1281 
L -331 -750 
L -134 -750 
Q 284 -750 456 -515 
Q 628 -281 628 325 
L 628 4666 
z
" transform="scale(0.015625)"/>
       <path id="DejaVuSans-2f" d="M 1625 4666 
L 2156 4666 
L 531 -594 
L 0 -594 
L 1625 4666 
z
" transform="scale(0.015625)"/>
       <path id="DejaVuSans-6d" d="M 3328 2828 
Q 3544 3216 3844 3400 
Q 4144 3584 4550 3584 
Q 5097 3584 5394 3201 
Q 5691 2819 5691 2113 
L 5691 0 
L 5113 0 
L 5113 2094 
Q 5113 2597 4934 2840 
Q 4756 3084 4391 3084 
Q 3944 3084 3684 2787 
Q 3425 2491 3425 1978 
L 3425 0 
L 2847 0 
L 2847 2094 
Q 2847 2600 2669 2842 
Q 2491 3084 2119 3084 
Q 1678 3084 1418 2786 
Q 1159 2488 1159 1978 
L 1159 0 
L 581 0 
L 581 3500 
L 1159 3500 
L 1159 2956 
Q 1356 3278 1631 3431 
Q 1906 3584 2284 3584 
Q 2666 3584 2933 3390 
Q 3200 3197 3328 2828 
z
" transform="scale(0.015625)"/>
       <path id="DejaVuSans-6c" d="M 603 4863 
L 1178 4863 
L 1178 0 
L 603 0 
L 603 4863 
z
" transform="scale(0.015625)"/>
       <path id="DejaVuSans-5d" d="M 1947 4863 
L 1947 -844 
L 622 -844 
L 622 -397 
L 1369 -397 
L 1369 4416 
L 622 4416 
L 622 4863 
L 1947 4863 
z
" transform="scale(0.015625)"/>
      </defs>
      <use xlink:href="#DejaVuSans-45"/>
      <use xlink:href="#DejaVuSans-6e" x="63.183594"/>
      <use xlink:href="#DejaVuSans-65" x="126.5625"/>
      <use xlink:href="#DejaVuSans-72" x="188.085938"/>
      <use xlink:href="#DejaVuSans-67" x="227.449219"/>
      <use xlink:href="#DejaVuSans-79" x="290.925781"/>
      <use xlink:href="#DejaVuSans-20" x="350.105469"/>
      <use xlink:href="#DejaVuSans-45" x="381.892578"/>
      <use xlink:href="#DejaVuSans-72" x="445.076172"/>
      <use xlink:href="#DejaVuSans-72" x="484.439453"/>
      <use xlink:href="#DejaVuSans-6f" x="523.302734"/>
      <use xlink:href="#DejaVuSans-72" x="584.484375"/>
      <use xlink:href="#DejaVuSans-73" x="625.597656"/>
      <use xlink:href="#DejaVuSans-20" x="677.697266"/>
      <use xlink:href="#DejaVuSans-5b" x="709.484375"/>
      <use xlink:href="#DejaVuSans-6b" x="748.498047"/>
      <use xlink:href="#DejaVuSans-4a" x="806.408203"/>
      <use xlink:href="#DejaVuSans-2f" x="835.900391"/>
      <use xlink:href="#DejaVuSans-6d" x="869.591797"/>
      <use xlink:href="#DejaVuSans-6f" x="967.003906"/>
      <use xlink:href="#DejaVuSans-6c" x="1028.185547"/>
      <use xlink:href="#DejaVuSans-5d" x="1055.96875"/>
     </g>
    </g>
   </g>
   <g id="line2d_15">
    <path d="M 70.22 534.04 
L 700.162035 10.8 
" clip-path="url(#paed790407c)" style="fill: none; stroke-dasharray: 5.55,2.4; stroke-dashoffset: 0; stroke: #ff0000; stroke-width: 1.5"/>
   </g>
   <g id="patch_3">
    <path d="M 70.22 534.04 
L 70.22 10.8 
" style="fill: none; stroke: #000000; stroke-width: 0.8; stroke-linejoin: miter; stroke-linecap: square"/>
   </g>
   <g id="patch_4">
    <path d="M 700.162035 534.04 
L 700.162035 10.8 
" style="fill: none; stroke: #000000; stroke-width: 0.8; stroke-linejoin: miter; stroke-linecap: square"/>
   </g>
   <g id="patch_5">
    <path d="M 70.22 534.04 
L 700.162035 534.04 
" style="fill: none; stroke: #000000; stroke-width: 0.8; stroke-linejoin: miter; stroke-linecap: square"/>
   </g>
   <g id="patch_6">
    <path d="M 70.22 10.8 
L 700.162035 10.8 
" style="fill: none; stroke: #000000; stroke-width: 0.8; stroke-linejoin: miter; stroke-linecap: square"/>
   </g>
   <g id="text_17">
    <!-- Correlation in: 0.06105877819454532 -->
    <g transform="translate(133.214204 51.926187) scale(0.1 -0.1)">
     <defs>
      <path id="DejaVuSans-43" d="M 4122 4306 
L 4122 3641 
Q 3803 3938 3442 4084 
Q 3081 4231 2675 4231 
Q 1875 4231 1450 3742 
Q 1025 3253 1025 2328 
Q 1025 1406 1450 917 
Q 1875 428 2675 428 
Q 3081 428 3442 575 
Q 3803 722 4122 1019 
L 4122 359 
Q 3791 134 3420 21 
Q 3050 -91 2638 -91 
Q 1578 -91 968 557 
Q 359 1206 359 2328 
Q 359 3453 968 4101 
Q 1578 4750 2638 4750 
Q 3056 4750 3426 4639 
Q 3797 4528 4122 4306 
z
" transform="scale(0.015625)"/>
      <path id="DejaVuSans-3a" d="M 750 794 
L 1409 794 
L 1409 0 
L 750 0 
L 750 794 
z
M 750 3309 
L 1409 3309 
L 1409 2516 
L 750 2516 
L 750 3309 
z
" transform="scale(0.015625)"/>
      <path id="DejaVuSans-2e" d="M 684 794 
L 1344 794 
L 1344 0 
L 684 0 
L 684 794 
z
" transform="scale(0.015625)"/>
      <path id="DejaVuSans-38" d="M 2034 2216 
Q 1584 2216 1326 1975 
Q 1069 1734 1069 1313 
Q 1069 891 1326 650 
Q 1584 409 2034 409 
Q 2484 409 2743 651 
Q 3003 894 3003 1313 
Q 3003 1734 2745 1975 
Q 2488 2216 2034 2216 
z
M 1403 2484 
Q 997 2584 770 2862 
Q 544 3141 544 3541 
Q 544 4100 942 4425 
Q 1341 4750 2034 4750 
Q 2731 4750 3128 4425 
Q 3525 4100 3525 3541 
Q 3525 3141 3298 2862 
Q 3072 2584 2669 2484 
Q 3125 2378 3379 2068 
Q 3634 1759 3634 1313 
Q 3634 634 3220 271 
Q 2806 -91 2034 -91 
Q 1263 -91 848 271 
Q 434 634 434 1313 
Q 434 1759 690 2068 
Q 947 2378 1403 2484 
z
M 1172 3481 
Q 1172 3119 1398 2916 
Q 1625 2713 2034 2713 
Q 2441 2713 2670 2916 
Q 2900 3119 2900 3481 
Q 2900 3844 2670 4047 
Q 2441 4250 2034 4250 
Q 1625 4250 1398 4047 
Q 1172 3844 1172 3481 
z
" transform="scale(0.015625)"/>
      <path id="DejaVuSans-39" d="M 703 97 
L 703 672 
Q 941 559 1184 500 
Q 1428 441 1663 441 
Q 2288 441 2617 861 
Q 2947 1281 2994 2138 
Q 2813 1869 2534 1725 
Q 2256 1581 1919 1581 
Q 1219 1581 811 2004 
Q 403 2428 403 3163 
Q 403 3881 828 4315 
Q 1253 4750 1959 4750 
Q 2769 4750 3195 4129 
Q 3622 3509 3622 2328 
Q 3622 1225 3098 567 
Q 2575 -91 1691 -91 
Q 1453 -91 1209 -44 
Q 966 3 703 97 
z
M 1959 2075 
Q 2384 2075 2632 2365 
Q 2881 2656 2881 3163 
Q 2881 3666 2632 3958 
Q 2384 4250 1959 4250 
Q 1534 4250 1286 3958 
Q 1038 3666 1038 3163 
Q 1038 2656 1286 2365 
Q 1534 2075 1959 2075 
z
" transform="scale(0.015625)"/>
     </defs>
     <use xlink:href="#DejaVuSans-43"/>
     <use xlink:href="#DejaVuSans-6f" x="69.824219"/>
     <use xlink:href="#DejaVuSans-72" x="131.005859"/>
     <use xlink:href="#DejaVuSans-72" x="170.369141"/>
     <use xlink:href="#DejaVuSans-65" x="209.232422"/>
     <use xlink:href="#DejaVuSans-6c" x="270.755859"/>
     <use xlink:href="#DejaVuSans-61" x="298.539062"/>
     <use xlink:href="#DejaVuSans-74" x="359.818359"/>
     <use xlink:href="#DejaVuSans-69" x="399.027344"/>
     <use xlink:href="#DejaVuSans-6f" x="426.810547"/>
     <use xlink:href="#DejaVuSans-6e" x="487.992188"/>
     <use xlink:href="#DejaVuSans-20" x="551.371094"/>
     <use xlink:href="#DejaVuSans-69" x="583.158203"/>
     <use xlink:href="#DejaVuSans-6e" x="610.941406"/>
     <use xlink:href="#DejaVuSans-3a" x="674.320312"/>
     <use xlink:href="#DejaVuSans-20" x="708.011719"/>
     <use xlink:href="#DejaVuSans-30" x="739.798828"/>
     <use xlink:href="#DejaVuSans-2e" x="803.421875"/>
     <use xlink:href="#DejaVuSans-30" x="835.208984"/>
     <use xlink:href="#DejaVuSans-36" x="898.832031"/>
     <use xlink:href="#DejaVuSans-31" x="962.455078"/>
     <use xlink:href="#DejaVuSans-30" x="1026.078125"/>
     <use xlink:href="#DejaVuSans-35" x="1089.701172"/>
     <use xlink:href="#DejaVuSans-38" x="1153.324219"/>
     <use xlink:href="#DejaVuSans-37" x="1216.947266"/>
     <use xlink:href="#DejaVuSans-37" x="1280.570312"/>
     <use xlink:href="#DejaVuSans-38" x="1344.193359"/>
     <use xlink:href="#DejaVuSans-31" x="1407.816406"/>
     <use xlink:href="#DejaVuSans-39" x="1471.439453"/>
     <use xlink:href="#DejaVuSans-34" x="1535.0625"/>
     <use xlink:href="#DejaVuSans-35" x="1598.685547"/>
     <use xlink:href="#DejaVuSans-34" x="1662.308594"/>
     <use xlink:href="#DejaVuSans-35" x="1725.931641"/>
     <use xlink:href="#DejaVuSans-33" x="1789.554688"/>
     <use xlink:href="#DejaVuSans-32" x="1853.177734"/>
    </g>
    <!-- Correlation Out: 0.09314815324875747 -->
    <g transform="translate(133.214204 63.124) scale(0.1 -0.1)">
     <defs>
      <path id="DejaVuSans-4f" d="M 2522 4238 
Q 1834 4238 1429 3725 
Q 1025 3213 1025 2328 
Q 1025 1447 1429 934 
Q 1834 422 2522 422 
Q 3209 422 3611 934 
Q 4013 1447 4013 2328 
Q 4013 3213 3611 3725 
Q 3209 4238 2522 4238 
z
M 2522 4750 
Q 3503 4750 4090 4092 
Q 4678 3434 4678 2328 
Q 4678 1225 4090 567 
Q 3503 -91 2522 -91 
Q 1538 -91 948 565 
Q 359 1222 359 2328 
Q 359 3434 948 4092 
Q 1538 4750 2522 4750 
z
" transform="scale(0.015625)"/>
      <path id="DejaVuSans-75" d="M 544 1381 
L 544 3500 
L 1119 3500 
L 1119 1403 
Q 1119 906 1312 657 
Q 1506 409 1894 409 
Q 2359 409 2629 706 
Q 2900 1003 2900 1516 
L 2900 3500 
L 3475 3500 
L 3475 0 
L 2900 0 
L 2900 538 
Q 2691 219 2414 64 
Q 2138 -91 1772 -91 
Q 1169 -91 856 284 
Q 544 659 544 1381 
z
M 1991 3584 
L 1991 3584 
z
" transform="scale(0.015625)"/>
     </defs>
     <use xlink:href="#DejaVuSans-43"/>
     <use xlink:href="#DejaVuSans-6f" x="69.824219"/>
     <use xlink:href="#DejaVuSans-72" x="131.005859"/>
     <use xlink:href="#DejaVuSans-72" x="170.369141"/>
     <use xlink:href="#DejaVuSans-65" x="209.232422"/>
     <use xlink:href="#DejaVuSans-6c" x="270.755859"/>
     <use xlink:href="#DejaVuSans-61" x="298.539062"/>
     <use xlink:href="#DejaVuSans-74" x="359.818359"/>
     <use xlink:href="#DejaVuSans-69" x="399.027344"/>
     <use xlink:href="#DejaVuSans-6f" x="426.810547"/>
     <use xlink:href="#DejaVuSans-6e" x="487.992188"/>
     <use xlink:href="#DejaVuSans-20" x="551.371094"/>
     <use xlink:href="#DejaVuSans-4f" x="583.158203"/>
     <use xlink:href="#DejaVuSans-75" x="661.869141"/>
     <use xlink:href="#DejaVuSans-74" x="725.248047"/>
     <use xlink:href="#DejaVuSans-3a" x="764.457031"/>
     <use xlink:href="#DejaVuSans-20" x="798.148438"/>
     <use xlink:href="#DejaVuSans-30" x="829.935547"/>
     <use xlink:href="#DejaVuSans-2e" x="893.558594"/>
     <use xlink:href="#DejaVuSans-30" x="925.345703"/>
     <use xlink:href="#DejaVuSans-39" x="988.96875"/>
     <use xlink:href="#DejaVuSans-33" x="1052.591797"/>
     <use xlink:href="#DejaVuSans-31" x="1116.214844"/>
     <use xlink:href="#DejaVuSans-34" x="1179.837891"/>
     <use xlink:href="#DejaVuSans-38" x="1243.460938"/>
     <use xlink:href="#DejaVuSans-31" x="1307.083984"/>
     <use xlink:href="#DejaVuSans-35" x="1370.707031"/>
     <use xlink:href="#DejaVuSans-33" x="1434.330078"/>
     <use xlink:href="#DejaVuSans-32" x="1497.953125"/>
     <use xlink:href="#DejaVuSans-34" x="1561.576172"/>
     <use xlink:href="#DejaVuSans-38" x="1625.199219"/>
     <use xlink:href="#DejaVuSans-37" x="1688.822266"/>
     <use xlink:href="#DejaVuSans-35" x="1752.445312"/>
     <use xlink:href="#DejaVuSans-37" x="1816.068359"/>
     <use xlink:href="#DejaVuSans-34" x="1879.691406"/>
     <use xlink:href="#DejaVuSans-37" x="1943.314453"/>
    </g>
   </g>
   <g id="legend_1">
    <g id="patch_7">
     <path d="M 568.699535 48.15625 
L 693.162035 48.15625 
Q 695.162035 48.15625 695.162035 46.15625 
L 695.162035 17.8 
Q 695.162035 15.8 693.162035 15.8 
L 568.699535 15.8 
Q 566.699535 15.8 566.699535 17.8 
L 566.699535 46.15625 
Q 566.699535 48.15625 568.699535 48.15625 
z
" style="fill: #ffffff; opacity: 0.8; stroke: #cccccc; stroke-linejoin: miter"/>
    </g>
    <g id="line2d_16">
     <defs>
      <path id="m4351ec674b" d="M 0 2.5 
C 0.663008 2.5 1.29895 2.236584 1.767767 1.767767 
C 2.236584 1.29895 2.5 0.663008 2.5 0 
C 2.5 -0.663008 2.236584 -1.29895 1.767767 -1.767767 
C 1.29895 -2.236584 0.663008 -2.5 0 -2.5 
C -0.663008 -2.5 -1.29895 -2.236584 -1.767767 -1.767767 
C -2.236584 -1.29895 -2.5 -0.663008 -2.5 0 
C -2.5 0.663008 -2.236584 1.29895 -1.767767 1.767767 
C -1.29895 2.236584 -0.663008 2.5 0 2.5 
z
" style="stroke: #ffffff"/>
     </defs>
     <g>
      <use xlink:href="#m4351ec674b" x="580.699535" y="23.898438" style="fill: #0000ff; stroke: #ffffff"/>
     </g>
    </g>
    <g id="text_18">
     <!-- In Distribution -->
     <g transform="translate(598.699535 27.398438) scale(0.1 -0.1)">
      <defs>
       <path id="DejaVuSans-49" d="M 628 4666 
L 1259 4666 
L 1259 0 
L 628 0 
L 628 4666 
z
" transform="scale(0.015625)"/>
       <path id="DejaVuSans-44" d="M 1259 4147 
L 1259 519 
L 2022 519 
Q 2988 519 3436 956 
Q 3884 1394 3884 2338 
Q 3884 3275 3436 3711 
Q 2988 4147 2022 4147 
L 1259 4147 
z
M 628 4666 
L 1925 4666 
Q 3281 4666 3915 4102 
Q 4550 3538 4550 2338 
Q 4550 1131 3912 565 
Q 3275 0 1925 0 
L 628 0 
L 628 4666 
z
" transform="scale(0.015625)"/>
       <path id="DejaVuSans-62" d="M 3116 1747 
Q 3116 2381 2855 2742 
Q 2594 3103 2138 3103 
Q 1681 3103 1420 2742 
Q 1159 2381 1159 1747 
Q 1159 1113 1420 752 
Q 1681 391 2138 391 
Q 2594 391 2855 752 
Q 3116 1113 3116 1747 
z
M 1159 2969 
Q 1341 3281 1617 3432 
Q 1894 3584 2278 3584 
Q 2916 3584 3314 3078 
Q 3713 2572 3713 1747 
Q 3713 922 3314 415 
Q 2916 -91 2278 -91 
Q 1894 -91 1617 61 
Q 1341 213 1159 525 
L 1159 0 
L 581 0 
L 581 4863 
L 1159 4863 
L 1159 2969 
z
" transform="scale(0.015625)"/>
      </defs>
      <use xlink:href="#DejaVuSans-49"/>
      <use xlink:href="#DejaVuSans-6e" x="29.492188"/>
      <use xlink:href="#DejaVuSans-20" x="92.871094"/>
      <use xlink:href="#DejaVuSans-44" x="124.658203"/>
      <use xlink:href="#DejaVuSans-69" x="201.660156"/>
      <use xlink:href="#DejaVuSans-73" x="229.443359"/>
      <use xlink:href="#DejaVuSans-74" x="281.542969"/>
      <use xlink:href="#DejaVuSans-72" x="320.751953"/>
      <use xlink:href="#DejaVuSans-69" x="361.865234"/>
      <use xlink:href="#DejaVuSans-62" x="389.648438"/>
      <use xlink:href="#DejaVuSans-75" x="453.125"/>
      <use xlink:href="#DejaVuSans-74" x="516.503906"/>
      <use xlink:href="#DejaVuSans-69" x="555.712891"/>
      <use xlink:href="#DejaVuSans-6f" x="583.496094"/>
      <use xlink:href="#DejaVuSans-6e" x="644.677734"/>
     </g>
    </g>
    <g id="line2d_17">
     <defs>
      <path id="me4aaeb177a" d="M 0 2.5 
C 0.663008 2.5 1.29895 2.236584 1.767767 1.767767 
C 2.236584 1.29895 2.5 0.663008 2.5 0 
C 2.5 -0.663008 2.236584 -1.29895 1.767767 -1.767767 
C 1.29895 -2.236584 0.663008 -2.5 0 -2.5 
C -0.663008 -2.5 -1.29895 -2.236584 -1.767767 -1.767767 
C -2.236584 -1.29895 -2.5 -0.663008 -2.5 0 
C -2.5 0.663008 -2.236584 1.29895 -1.767767 1.767767 
C -1.29895 2.236584 -0.663008 2.5 0 2.5 
z
" style="stroke: #ffffff"/>
     </defs>
     <g>
      <use xlink:href="#me4aaeb177a" x="580.699535" y="38.576563" style="fill: #008000; stroke: #ffffff"/>
     </g>
    </g>
    <g id="text_19">
     <!-- Out of Distribution -->
     <g transform="translate(598.699535 42.076563) scale(0.1 -0.1)">
      <defs>
       <path id="DejaVuSans-66" d="M 2375 4863 
L 2375 4384 
L 1825 4384 
Q 1516 4384 1395 4259 
Q 1275 4134 1275 3809 
L 1275 3500 
L 2222 3500 
L 2222 3053 
L 1275 3053 
L 1275 0 
L 697 0 
L 697 3053 
L 147 3053 
L 147 3500 
L 697 3500 
L 697 3744 
Q 697 4328 969 4595 
Q 1241 4863 1831 4863 
L 2375 4863 
z
" transform="scale(0.015625)"/>
      </defs>
      <use xlink:href="#DejaVuSans-4f"/>
      <use xlink:href="#DejaVuSans-75" x="78.710938"/>
      <use xlink:href="#DejaVuSans-74" x="142.089844"/>
      <use xlink:href="#DejaVuSans-20" x="181.298828"/>
      <use xlink:href="#DejaVuSans-6f" x="213.085938"/>
      <use xlink:href="#DejaVuSans-66" x="274.267578"/>
      <use xlink:href="#DejaVuSans-20" x="309.472656"/>
      <use xlink:href="#DejaVuSans-44" x="341.259766"/>
      <use xlink:href="#DejaVuSans-69" x="418.261719"/>
      <use xlink:href="#DejaVuSans-73" x="446.044922"/>
      <use xlink:href="#DejaVuSans-74" x="498.144531"/>
      <use xlink:href="#DejaVuSans-72" x="537.353516"/>
      <use xlink:href="#DejaVuSans-69" x="578.466797"/>
      <use xlink:href="#DejaVuSans-62" x="606.25"/>
      <use xlink:href="#DejaVuSans-75" x="669.726562"/>
      <use xlink:href="#DejaVuSans-74" x="733.105469"/>
      <use xlink:href="#DejaVuSans-69" x="772.314453"/>
      <use xlink:href="#DejaVuSans-6f" x="800.097656"/>
      <use xlink:href="#DejaVuSans-6e" x="861.279297"/>
     </g>
    </g>
   </g>
  </g>
 </g>
 <defs>
  <clipPath id="paed790407c">
   <rect x="70.22" y="10.8" width="629.942035" height="523.24"/>
  </clipPath>
 </defs>
</svg>
