<?xml version="1.0" encoding="utf-8" standalone="no"?>
<!DOCTYPE svg PUBLIC "-//W3C//DTD SVG 1.1//EN"
  "http://www.w3.org/Graphics/SVG/1.1/DTD/svg11.dtd">
<svg xmlns:xlink="http://www.w3.org/1999/xlink" width="720pt" height="576pt" viewBox="0 0 720 576" xmlns="http://www.w3.org/2000/svg" version="1.1">
 <metadata>
  <rdf:RDF xmlns:dc="http://purl.org/dc/elements/1.1/" xmlns:cc="http://creativecommons.org/ns#" xmlns:rdf="http://www.w3.org/1999/02/22-rdf-syntax-ns#">
   <cc:Work>
    <dc:type rdf:resource="http://purl.org/dc/dcmitype/StillImage"/>
    <dc:date>2024-12-08T21:57:29.772045</dc:date>
    <dc:format>image/svg+xml</dc:format>
    <dc:creator>
     <cc:Agent>
      <dc:title>Matplotlib v3.8.4, https://matplotlib.org/</dc:title>
     </cc:Agent>
    </dc:creator>
   </cc:Work>
  </rdf:RDF>
 </metadata>
 <defs>
  <style type="text/css">*{stroke-linejoin: round; stroke-linecap: butt}</style>
 </defs>
 <g id="figure_1">
  <g id="patch_1">
   <path d="M 0 576 
L 720 576 
L 720 0 
L 0 0 
z
" style="fill: #ffffff"/>
  </g>
  <g id="axes_1">
   <g id="patch_2">
    <path d="M 90.65 499.48 
L 696.24 499.48 
L 696.24 23.76 
L 90.65 23.76 
z
" style="fill: #ffffff"/>
   </g>
   <g id="QuadContourSet_1">
    <path d="M 152.210313 490.97764 
L 163.20798 493.629256 
L 174.205646 494.202935 
L 185.203312 493.708024 
L 196.200978 492.247066 
L 205.515324 488.51384 
L 207.198644 487.92522 
L 218.133973 480.78571 
L 218.196311 480.742392 
L 228.228992 473.057581 
L 229.193977 472.165337 
L 237.713345 465.329452 
L 240.191643 462.785828 
L 245.630423 457.601323 
L 251.189309 450.395891 
L 251.603277 449.873194 
L 256.696699 442.145065 
L 260.010427 434.416935 
L 262.128075 426.688806 
L 262.186975 426.327064 
L 263.838416 418.960677 
L 264.532148 411.232548 
L 264.489094 403.504419 
L 263.937928 395.776289 
L 263.042183 388.04816 
L 262.186975 382.141527 
L 262.019815 380.320031 
L 261.261043 372.591902 
L 260.496973 364.863773 
L 259.824895 357.135644 
L 259.299201 349.407514 
L 258.89247 341.679385 
L 258.532886 333.951256 
L 258.160642 326.223127 
L 257.748287 318.494998 
L 257.292699 310.766868 
L 256.805226 303.038739 
L 256.307889 295.31061 
L 255.815907 287.582481 
L 255.2943 279.854352 
L 254.618598 272.126223 
L 253.563907 264.398093 
L 251.810682 256.669964 
L 251.189309 254.743194 
L 249.909506 248.941835 
L 247.776593 241.213706 
L 245.515576 233.485577 
L 243.486928 225.757448 
L 241.909438 218.029318 
L 240.888414 210.301189 
L 240.437626 202.57306 
L 240.382086 194.844931 
L 240.267024 187.116802 
L 240.191643 186.364614 
L 239.302024 179.388672 
L 236.33105 171.660543 
L 230.498785 163.932414 
L 229.193977 162.587202 
L 224.344285 156.204285 
L 218.196311 148.556524 
L 218.114348 148.476156 
L 213.060584 140.748027 
L 210.703227 133.019897 
L 209.789538 125.291768 
L 209.300161 117.563639 
L 208.234587 109.83551 
L 207.198644 106.547605 
L 204.967446 102.107381 
L 198.36681 94.379251 
L 196.200978 92.551829 
L 192.087415 94.379251 
L 185.203312 97.668489 
L 182.422514 102.107381 
L 178.161397 109.83551 
L 174.205646 115.544287 
L 173.025356 117.563639 
L 167.55018 125.291768 
L 163.20798 129.988436 
L 160.916815 133.019897 
L 155.108235 140.748027 
L 152.210313 145.043124 
L 150.509464 148.476156 
L 147.416915 156.204285 
L 145.119967 163.932414 
L 143.468588 171.660543 
L 142.158313 179.388672 
L 141.212647 184.712384 
L 140.6894 187.116802 
L 138.393353 194.844931 
L 135.794104 202.57306 
L 133.22982 210.301189 
L 130.931595 218.029318 
L 130.214981 220.457642 
L 127.772126 225.757448 
L 124.399999 233.485577 
L 121.502701 241.213706 
L 119.217315 248.550266 
L 119.028892 248.941835 
L 115.442462 256.669964 
L 112.714567 264.398093 
L 110.757326 272.126223 
L 109.454287 279.854352 
L 108.632171 287.582481 
L 108.219649 293.237953 
L 107.905071 295.31061 
L 106.80302 303.038739 
L 105.70339 310.766868 
L 104.553875 318.494998 
L 103.362641 326.223127 
L 102.172465 333.951256 
L 101.049742 341.679385 
L 100.067903 349.407514 
L 99.284551 357.135644 
L 98.727468 364.863773 
L 98.395549 372.591902 
L 98.269803 380.320031 
L 98.330164 388.04816 
L 98.574596 395.776289 
L 99.03344 403.504419 
L 99.773304 411.232548 
L 100.894097 418.960677 
L 102.531336 426.688806 
L 104.875985 434.416935 
L 108.219649 442.145065 
L 108.219649 442.145065 
L 110.42448 449.873194 
L 113.794665 457.601323 
L 119.138481 465.329452 
L 119.217315 465.431444 
L 124.461418 473.057581 
L 130.214981 478.5787 
L 133.01931 480.78571 
L 141.212647 486.311181 
L 146.690961 488.51384 
z
M 150.604473 465.329452 
L 141.212647 459.033791 
L 139.71011 457.601323 
L 133.029107 449.873194 
L 130.214981 445.16625 
L 128.232776 442.145065 
L 124.223145 434.416935 
L 121.510898 426.688806 
L 119.657262 418.960677 
L 119.217315 416.510292 
L 117.709924 411.232548 
L 116.131808 403.504419 
L 115.088325 395.776289 
L 114.468052 388.04816 
L 114.21281 380.320031 
L 114.298195 372.591902 
L 114.715506 364.863773 
L 115.452984 357.135644 
L 116.480967 349.407514 
L 117.75042 341.679385 
L 119.211399 333.951256 
L 119.217315 333.921045 
L 120.090192 326.223127 
L 121.069426 318.494998 
L 122.197739 310.766868 
L 123.546403 303.038739 
L 125.21277 295.31061 
L 127.330843 287.582481 
L 130.086317 279.854352 
L 130.214981 279.529953 
L 132.345093 272.126223 
L 134.971255 264.398093 
L 138.158446 256.669964 
L 141.212647 250.484409 
L 141.929524 248.941835 
L 145.564239 241.213706 
L 149.662663 233.485577 
L 152.210313 229.096945 
L 154.890544 225.757448 
L 161.045338 218.029318 
L 163.20798 215.283497 
L 174.205646 210.889238 
L 185.203312 215.543134 
L 188.46474 218.029318 
L 196.200978 224.13348 
L 198.389778 225.757448 
L 207.198644 232.429454 
L 208.358663 233.485577 
L 215.800656 241.213706 
L 218.196311 244.628917 
L 220.076402 248.941835 
L 222.81505 256.669964 
L 224.984999 264.398093 
L 226.68053 272.126223 
L 227.899761 279.854352 
L 228.685816 287.582481 
L 229.193977 295.31061 
L 229.193977 295.31061 
L 229.835335 303.038739 
L 230.626962 310.766868 
L 231.577207 318.494998 
L 232.518303 326.223127 
L 233.260677 333.951256 
L 233.73167 341.679385 
L 234.003256 349.407514 
L 234.241164 357.135644 
L 234.613614 364.863773 
L 235.182944 372.591902 
L 235.846809 380.320031 
L 236.385773 388.04816 
L 236.563774 395.776289 
L 236.186563 403.504419 
L 235.093255 411.232548 
L 233.10236 418.960677 
L 229.930032 426.688806 
L 229.193977 428.053808 
L 226.21538 434.416935 
L 221.267687 442.145065 
L 218.196311 445.92756 
L 215.085675 449.873194 
L 207.198644 457.349209 
L 206.878488 457.601323 
L 196.200978 464.365182 
L 193.684669 465.329452 
L 185.203312 468.46154 
L 174.205646 470.380491 
L 163.20798 469.895143 
L 152.210313 466.296881 
z
" clip-path="url(#p5be8489505)" style="fill: #eef5fc"/>
    <path d="M 152.210313 466.296881 
L 163.20798 469.895143 
L 174.205646 470.380491 
L 185.203312 468.46154 
L 193.684669 465.329452 
L 196.200978 464.365182 
L 206.878488 457.601323 
L 207.198644 457.349209 
L 215.085675 449.873194 
L 218.196311 445.92756 
L 221.267687 442.145065 
L 226.21538 434.416935 
L 229.193977 428.053808 
L 229.930032 426.688806 
L 233.10236 418.960677 
L 235.093255 411.232548 
L 236.186563 403.504419 
L 236.563774 395.776289 
L 236.385773 388.04816 
L 235.846809 380.320031 
L 235.182944 372.591902 
L 234.613614 364.863773 
L 234.241164 357.135644 
L 234.003256 349.407514 
L 233.73167 341.679385 
L 233.260677 333.951256 
L 232.518303 326.223127 
L 231.577207 318.494998 
L 230.626962 310.766868 
L 229.835335 303.038739 
L 229.193977 295.31061 
L 229.193977 295.31061 
L 228.685816 287.582481 
L 227.899761 279.854352 
L 226.68053 272.126223 
L 224.984999 264.398093 
L 222.81505 256.669964 
L 220.076402 248.941835 
L 218.196311 244.628917 
L 215.800656 241.213706 
L 208.358663 233.485577 
L 207.198644 232.429454 
L 198.389778 225.757448 
L 196.200978 224.13348 
L 188.46474 218.029318 
L 185.203312 215.543134 
L 174.205646 210.889238 
L 163.20798 215.283497 
L 161.045338 218.029318 
L 154.890544 225.757448 
L 152.210313 229.096945 
L 149.662663 233.485577 
L 145.564239 241.213706 
L 141.929524 248.941835 
L 141.212647 250.484409 
L 138.158446 256.669964 
L 134.971255 264.398093 
L 132.345093 272.126223 
L 130.214981 279.529953 
L 130.086317 279.854352 
L 127.330843 287.582481 
L 125.21277 295.31061 
L 123.546403 303.038739 
L 122.197739 310.766868 
L 121.069426 318.494998 
L 120.090192 326.223127 
L 119.217315 333.921045 
L 119.211399 333.951256 
L 117.75042 341.679385 
L 116.480967 349.407514 
L 115.452984 357.135644 
L 114.715506 364.863773 
L 114.298195 372.591902 
L 114.21281 380.320031 
L 114.468052 388.04816 
L 115.088325 395.776289 
L 116.131808 403.504419 
L 117.709924 411.232548 
L 119.217315 416.510292 
L 119.657262 418.960677 
L 121.510898 426.688806 
L 124.223145 434.416935 
L 128.232776 442.145065 
L 130.214981 445.16625 
L 133.029107 449.873194 
L 139.71011 457.601323 
L 141.212647 459.033791 
L 150.604473 465.329452 
z
M 147.83227 449.873194 
L 141.212647 443.120627 
L 140.430674 442.145065 
L 135.240471 434.416935 
L 131.720571 426.688806 
L 130.214981 422.217443 
L 128.874334 418.960677 
L 126.469902 411.232548 
L 124.84071 403.504419 
L 123.771675 395.776289 
L 123.133452 388.04816 
L 122.856874 380.320031 
L 122.908171 372.591902 
L 123.267837 364.863773 
L 123.915523 357.135644 
L 124.821455 349.407514 
L 125.946957 341.679385 
L 127.257074 333.951256 
L 128.741921 326.223127 
L 130.214981 319.439875 
L 130.377797 318.494998 
L 131.849848 310.766868 
L 133.633599 303.038739 
L 135.781102 295.31061 
L 138.329026 287.582481 
L 141.212647 280.139472 
L 141.338529 279.854352 
L 144.854651 272.126223 
L 148.675606 264.398093 
L 152.210313 257.782318 
L 153.149394 256.669964 
L 159.762879 248.941835 
L 163.20798 245.037174 
L 174.205646 241.642507 
L 185.203312 246.261819 
L 188.320551 248.941835 
L 196.200978 256.31558 
L 196.572809 256.669964 
L 203.373252 264.398093 
L 207.198644 270.875728 
L 207.782281 272.126223 
L 210.706465 279.854352 
L 212.872705 287.582481 
L 214.54498 295.31061 
L 215.925203 303.038739 
L 217.165043 310.766868 
L 218.196311 317.526753 
L 218.375926 318.494998 
L 219.859279 326.223127 
L 221.121301 333.951256 
L 222.025232 341.679385 
L 222.559628 349.407514 
L 222.824476 357.135644 
L 222.96485 364.863773 
L 223.093286 372.591902 
L 223.215013 380.320031 
L 223.188371 388.04816 
L 222.758295 395.776289 
L 221.636723 403.504419 
L 219.559237 411.232548 
L 218.196311 414.682517 
L 216.926726 418.960677 
L 213.622195 426.688806 
L 208.685859 434.416935 
L 207.198644 436.295974 
L 202.82802 442.145065 
L 196.200978 448.196124 
L 193.780116 449.873194 
L 185.203312 454.799362 
L 174.205646 457.601323 
L 163.20798 457.299402 
L 152.210313 453.29652 
z
" clip-path="url(#p5be8489505)" style="fill: #dceaf6"/>
    <path d="M 152.210313 453.29652 
L 163.20798 457.299402 
L 174.205646 457.601323 
L 185.203312 454.799362 
L 193.780116 449.873194 
L 196.200978 448.196124 
L 202.82802 442.145065 
L 207.198644 436.295974 
L 208.685859 434.416935 
L 213.622195 426.688806 
L 216.926726 418.960677 
L 218.196311 414.682517 
L 219.559237 411.232548 
L 221.636723 403.504419 
L 222.758295 395.776289 
L 223.188371 388.04816 
L 223.215013 380.320031 
L 223.093286 372.591902 
L 222.96485 364.863773 
L 222.824476 357.135644 
L 222.559628 349.407514 
L 222.025232 341.679385 
L 221.121301 333.951256 
L 219.859279 326.223127 
L 218.375926 318.494998 
L 218.196311 317.526753 
L 217.165043 310.766868 
L 215.925203 303.038739 
L 214.54498 295.31061 
L 212.872705 287.582481 
L 210.706465 279.854352 
L 207.782281 272.126223 
L 207.198644 270.875728 
L 203.373252 264.398093 
L 196.572809 256.669964 
L 196.200978 256.31558 
L 188.320551 248.941835 
L 185.203312 246.261819 
L 174.205646 241.642507 
L 163.20798 245.037174 
L 159.762879 248.941835 
L 153.149394 256.669964 
L 152.210313 257.782318 
L 148.675606 264.398093 
L 144.854651 272.126223 
L 141.338529 279.854352 
L 141.212647 280.139472 
L 138.329026 287.582481 
L 135.781102 295.31061 
L 133.633599 303.038739 
L 131.849848 310.766868 
L 130.377797 318.494998 
L 130.214981 319.439875 
L 128.741921 326.223127 
L 127.257074 333.951256 
L 125.946957 341.679385 
L 124.821455 349.407514 
L 123.915523 357.135644 
L 123.267837 364.863773 
L 122.908171 372.591902 
L 122.856874 380.320031 
L 123.133452 388.04816 
L 123.771675 395.776289 
L 124.84071 403.504419 
L 126.469902 411.232548 
L 128.874334 418.960677 
L 130.214981 422.217443 
L 131.720571 426.688806 
L 135.240471 434.416935 
L 140.430674 442.145065 
L 141.212647 443.120627 
L 147.83227 449.873194 
z
M 150.348597 442.145065 
L 143.577519 434.416935 
L 141.212647 430.681624 
L 138.851519 426.688806 
L 135.374351 418.960677 
L 132.963475 411.232548 
L 131.314318 403.504419 
L 130.226623 395.776289 
L 130.214981 395.644221 
L 129.314819 388.04816 
L 128.907675 380.320031 
L 128.955223 372.591902 
L 129.42783 364.863773 
L 130.214981 357.846213 
L 130.274589 357.135644 
L 131.158986 349.407514 
L 132.264615 341.679385 
L 133.571533 333.951256 
L 135.091306 326.223127 
L 136.870967 318.494998 
L 138.978462 310.766868 
L 141.212647 303.792796 
L 141.48656 303.038739 
L 144.570027 295.31061 
L 148.184411 287.582481 
L 152.210313 279.854352 
L 152.210313 279.854352 
L 158.676842 272.126223 
L 163.20798 266.964696 
L 170.217582 264.398093 
L 174.205646 262.92652 
L 177.533825 264.398093 
L 185.203312 267.73106 
L 189.401089 272.126223 
L 195.460404 279.854352 
L 196.200978 280.97473 
L 199.696858 287.582481 
L 202.840646 295.31061 
L 205.357898 303.038739 
L 207.198644 309.484039 
L 207.561271 310.766868 
L 209.761433 318.494998 
L 211.723383 326.223127 
L 213.335446 333.951256 
L 214.501124 341.679385 
L 215.209514 349.407514 
L 215.536732 357.135644 
L 215.599931 364.863773 
L 215.500835 372.591902 
L 215.274979 380.320031 
L 214.855692 388.04816 
L 214.071843 395.776289 
L 212.683331 403.504419 
L 210.410723 411.232548 
L 207.198644 418.40255 
L 207.0009 418.960677 
L 203.404764 426.688806 
L 197.891299 434.416935 
L 196.200978 436.268288 
L 189.62254 442.145065 
L 185.203312 445.219488 
L 174.205646 449.05479 
L 163.20798 448.868111 
L 152.210313 443.840985 
z
" clip-path="url(#p5be8489505)" style="fill: #caddf0"/>
    <path d="M 152.210313 443.840985 
L 163.20798 448.868111 
L 174.205646 449.05479 
L 185.203312 445.219488 
L 189.62254 442.145065 
L 196.200978 436.268288 
L 197.891299 434.416935 
L 203.404764 426.688806 
L 207.0009 418.960677 
L 207.198644 418.40255 
L 210.410723 411.232548 
L 212.683331 403.504419 
L 214.071843 395.776289 
L 214.855692 388.04816 
L 215.274979 380.320031 
L 215.500835 372.591902 
L 215.599931 364.863773 
L 215.536732 357.135644 
L 215.209514 349.407514 
L 214.501124 341.679385 
L 213.335446 333.951256 
L 211.723383 326.223127 
L 209.761433 318.494998 
L 207.561271 310.766868 
L 207.198644 309.484039 
L 205.357898 303.038739 
L 202.840646 295.31061 
L 199.696858 287.582481 
L 196.200978 280.97473 
L 195.460404 279.854352 
L 189.401089 272.126223 
L 185.203312 267.73106 
L 177.533825 264.398093 
L 174.205646 262.92652 
L 170.217582 264.398093 
L 163.20798 266.964696 
L 158.676842 272.126223 
L 152.210313 279.854352 
L 152.210313 279.854352 
L 148.184411 287.582481 
L 144.570027 295.31061 
L 141.48656 303.038739 
L 141.212647 303.792796 
L 138.978462 310.766868 
L 136.870967 318.494998 
L 135.091306 326.223127 
L 133.571533 333.951256 
L 132.264615 341.679385 
L 131.158986 349.407514 
L 130.274589 357.135644 
L 130.214981 357.846213 
L 129.42783 364.863773 
L 128.955223 372.591902 
L 128.907675 380.320031 
L 129.314819 388.04816 
L 130.214981 395.644221 
L 130.226623 395.776289 
L 131.314318 403.504419 
L 132.963475 411.232548 
L 135.374351 418.960677 
L 138.851519 426.688806 
L 141.212647 430.681624 
L 143.577519 434.416935 
L 150.348597 442.145065 
z
M 154.332418 434.416935 
L 152.210313 432.894791 
L 147.3885 426.688806 
L 143.154697 418.960677 
L 141.212647 414.076232 
L 140.075481 411.232548 
L 137.792434 403.504419 
L 136.29667 395.776289 
L 135.407611 388.04816 
L 135.016589 380.320031 
L 135.065519 372.591902 
L 135.521757 364.863773 
L 136.356295 357.135644 
L 137.535192 349.407514 
L 139.027263 341.679385 
L 140.821672 333.951256 
L 141.212647 332.431373 
L 142.921624 326.223127 
L 145.430148 318.494998 
L 148.47204 310.766868 
L 152.157428 303.038739 
L 152.210313 302.933714 
L 158.236945 295.31061 
L 163.20798 289.71284 
L 169.190102 287.582481 
L 174.205646 285.657191 
L 177.926679 287.582481 
L 185.203312 291.640436 
L 187.779926 295.31061 
L 192.419339 303.038739 
L 196.200978 310.69278 
L 196.232136 310.766868 
L 199.456787 318.494998 
L 202.281168 326.223127 
L 204.62766 333.951256 
L 206.378665 341.679385 
L 207.198644 347.279996 
L 207.532751 349.407514 
L 208.166767 357.135644 
L 208.275525 364.863773 
L 207.979798 372.591902 
L 207.34821 380.320031 
L 207.198644 381.550031 
L 206.590257 388.04816 
L 205.532267 395.776289 
L 203.93855 403.504419 
L 201.537733 411.232548 
L 197.946929 418.960677 
L 196.200978 421.773899 
L 192.855772 426.688806 
L 185.203312 434.416935 
L 185.203312 434.416935 
L 174.205646 439.686929 
L 163.20798 439.582524 
z
" clip-path="url(#p5be8489505)" style="fill: #aacfe5"/>
    <path d="M 163.20798 439.582524 
L 174.205646 439.686929 
L 185.203312 434.416935 
L 185.203312 434.416935 
L 192.855772 426.688806 
L 196.200978 421.773899 
L 197.946929 418.960677 
L 201.537733 411.232548 
L 203.93855 403.504419 
L 205.532267 395.776289 
L 206.590257 388.04816 
L 207.198644 381.550031 
L 207.34821 380.320031 
L 207.979798 372.591902 
L 208.275525 364.863773 
L 208.166767 357.135644 
L 207.532751 349.407514 
L 207.198644 347.279996 
L 206.378665 341.679385 
L 204.62766 333.951256 
L 202.281168 326.223127 
L 199.456787 318.494998 
L 196.232136 310.766868 
L 196.200978 310.69278 
L 192.419339 303.038739 
L 187.779926 295.31061 
L 185.203312 291.640436 
L 177.926679 287.582481 
L 174.205646 285.657191 
L 169.190102 287.582481 
L 163.20798 289.71284 
L 158.236945 295.31061 
L 152.210313 302.933714 
L 152.157428 303.038739 
L 148.47204 310.766868 
L 145.430148 318.494998 
L 142.921624 326.223127 
L 141.212647 332.431373 
L 140.821672 333.951256 
L 139.027263 341.679385 
L 137.535192 349.407514 
L 136.356295 357.135644 
L 135.521757 364.863773 
L 135.065519 372.591902 
L 135.016589 380.320031 
L 135.407611 388.04816 
L 136.29667 395.776289 
L 137.792434 403.504419 
L 140.075481 411.232548 
L 141.212647 414.076232 
L 143.154697 418.960677 
L 147.3885 426.688806 
L 152.210313 432.894791 
L 154.332418 434.416935 
z
M 154.829515 426.688806 
L 152.210313 424.19001 
L 148.881503 418.960677 
L 145.320825 411.232548 
L 142.861111 403.504419 
L 141.212647 395.776289 
L 141.212647 395.776289 
L 140.134405 388.04816 
L 139.666259 380.320031 
L 139.729919 372.591902 
L 140.280179 364.863773 
L 141.212647 357.651716 
L 141.279319 357.135644 
L 142.658319 349.407514 
L 144.433018 341.679385 
L 146.600438 333.951256 
L 149.204993 326.223127 
L 152.210313 318.811038 
L 152.405829 318.494998 
L 157.719648 310.766868 
L 163.20798 304.065121 
L 166.379549 303.038739 
L 174.205646 300.367691 
L 178.290323 303.038739 
L 185.203312 308.127073 
L 186.808093 310.766868 
L 191.146397 318.494998 
L 194.986827 326.223127 
L 196.200978 328.838771 
L 198.182881 333.951256 
L 200.582344 341.679385 
L 202.198534 349.407514 
L 203.075405 357.135644 
L 203.340641 364.863773 
L 203.13943 372.591902 
L 202.571481 380.320031 
L 201.647381 388.04816 
L 200.266701 395.776289 
L 198.21597 403.504419 
L 196.200978 408.791684 
L 195.257701 411.232548 
L 191.106158 418.960677 
L 185.203312 426.287272 
L 184.650474 426.688806 
L 174.205646 432.779073 
L 163.20798 432.672106 
z
" clip-path="url(#p5be8489505)" style="fill: #81badb"/>
    <path d="M 163.20798 432.672106 
L 174.205646 432.779073 
L 184.650474 426.688806 
L 185.203312 426.287272 
L 191.106158 418.960677 
L 195.257701 411.232548 
L 196.200978 408.791684 
L 198.21597 403.504419 
L 200.266701 395.776289 
L 201.647381 388.04816 
L 202.571481 380.320031 
L 203.13943 372.591902 
L 203.340641 364.863773 
L 203.075405 357.135644 
L 202.198534 349.407514 
L 200.582344 341.679385 
L 198.182881 333.951256 
L 196.200978 328.838771 
L 194.986827 326.223127 
L 191.146397 318.494998 
L 186.808093 310.766868 
L 185.203312 308.127073 
L 178.290323 303.038739 
L 174.205646 300.367691 
L 166.379549 303.038739 
L 163.20798 304.065121 
L 157.719648 310.766868 
L 152.405829 318.494998 
L 152.210313 318.811038 
L 149.204993 326.223127 
L 146.600438 333.951256 
L 144.433018 341.679385 
L 142.658319 349.407514 
L 141.279319 357.135644 
L 141.212647 357.651716 
L 140.280179 364.863773 
L 139.729919 372.591902 
L 139.666259 380.320031 
L 140.134405 388.04816 
L 141.212647 395.776289 
L 141.212647 395.776289 
L 142.861111 403.504419 
L 145.320825 411.232548 
L 148.881503 418.960677 
L 152.210313 424.19001 
L 154.829515 426.688806 
z
M 158.16834 418.960677 
L 152.210313 411.245058 
L 152.203978 411.232548 
L 149.229169 403.504419 
L 147.274387 395.776289 
L 146.118922 388.04816 
L 145.636366 380.320031 
L 145.757676 372.591902 
L 146.445477 364.863773 
L 147.67286 357.135644 
L 149.411587 349.407514 
L 151.638545 341.679385 
L 152.210313 339.959651 
L 155.152959 333.951256 
L 159.712022 326.223127 
L 163.20798 321.204067 
L 171.2584 318.494998 
L 174.205646 317.516302 
L 175.422815 318.494998 
L 184.148627 326.223127 
L 185.203312 327.245066 
L 188.803127 333.951256 
L 192.313897 341.679385 
L 194.926975 349.407514 
L 196.200978 355.596771 
L 196.457532 357.135644 
L 197.002131 364.863773 
L 196.878073 372.591902 
L 196.200978 380.320031 
L 196.200978 380.320031 
L 195.062545 388.04816 
L 193.414604 395.776289 
L 191.014789 403.504419 
L 187.454612 411.232548 
L 185.203312 414.760182 
L 180.839075 418.960677 
L 174.205646 423.750749 
L 163.20798 423.489441 
z
" clip-path="url(#p5be8489505)" style="fill: #56a0ce"/>
    <path d="M 163.20798 423.489441 
L 174.205646 423.750749 
L 180.839075 418.960677 
L 185.203312 414.760182 
L 187.454612 411.232548 
L 191.014789 403.504419 
L 193.414604 395.776289 
L 195.062545 388.04816 
L 196.200978 380.320031 
L 196.200978 380.320031 
L 196.878073 372.591902 
L 197.002131 364.863773 
L 196.457532 357.135644 
L 196.200978 355.596771 
L 194.926975 349.407514 
L 192.313897 341.679385 
L 188.803127 333.951256 
L 185.203312 327.245066 
L 184.148627 326.223127 
L 175.422815 318.494998 
L 174.205646 317.516302 
L 171.2584 318.494998 
L 163.20798 321.204067 
L 159.712022 326.223127 
L 155.152959 333.951256 
L 152.210313 339.959651 
L 151.638545 341.679385 
L 149.411587 349.407514 
L 147.67286 357.135644 
L 146.445477 364.863773 
L 145.757676 372.591902 
L 145.636366 380.320031 
L 146.118922 388.04816 
L 147.274387 395.776289 
L 149.229169 403.504419 
L 152.203978 411.232548 
L 152.210313 411.245058 
L 158.16834 418.960677 
z
M 160.793181 411.232548 
L 156.144478 403.504419 
L 153.211925 395.776289 
L 152.210313 391.251769 
L 151.679641 388.04816 
L 151.167673 380.320031 
L 151.359317 372.591902 
L 152.210313 364.863773 
L 152.210313 364.863773 
L 154.216822 357.135644 
L 157.032737 349.407514 
L 160.648881 341.679385 
L 163.20798 337.126134 
L 170.956858 333.951256 
L 174.205646 332.716885 
L 175.514004 333.951256 
L 182.932848 341.679385 
L 185.203312 344.463075 
L 187.237079 349.407514 
L 189.440896 357.135644 
L 190.571008 364.863773 
L 190.789413 372.591902 
L 190.281079 380.320031 
L 189.129259 388.04816 
L 187.255878 395.776289 
L 185.203312 401.444608 
L 184.05485 403.504419 
L 177.998704 411.232548 
L 174.205646 414.714699 
L 163.20798 414.050595 
z
" clip-path="url(#p5be8489505)" style="fill: #3181bd"/>
    <path d="M 163.20798 414.050595 
L 174.205646 414.714699 
L 177.998704 411.232548 
L 184.05485 403.504419 
L 185.203312 401.444608 
L 187.255878 395.776289 
L 189.129259 388.04816 
L 190.281079 380.320031 
L 190.789413 372.591902 
L 190.571008 364.863773 
L 189.440896 357.135644 
L 187.237079 349.407514 
L 185.203312 344.463075 
L 182.932848 341.679385 
L 175.514004 333.951256 
L 174.205646 332.716885 
L 170.956858 333.951256 
L 163.20798 337.126134 
L 160.648881 341.679385 
L 157.032737 349.407514 
L 154.216822 357.135644 
L 152.210313 364.863773 
L 152.210313 364.863773 
L 151.359317 372.591902 
L 151.167673 380.320031 
L 151.679641 388.04816 
L 152.210313 391.251769 
L 153.211925 395.776289 
L 156.144478 403.504419 
L 160.793181 411.232548 
z
M 164.120695 403.504419 
L 163.20798 403.306977 
L 160.001565 395.776289 
L 158.182036 388.04816 
L 157.542348 380.320031 
L 157.950028 372.591902 
L 159.342683 364.863773 
L 161.671822 357.135644 
L 163.20798 353.359208 
L 170.157698 349.407514 
L 174.205646 347.463112 
L 175.857565 349.407514 
L 181.040847 357.135644 
L 184.142115 364.863773 
L 185.203312 372.591902 
L 184.657063 380.320031 
L 182.883461 388.04816 
L 179.919266 395.776289 
L 175.390949 403.504419 
L 174.205646 404.938555 
z
" clip-path="url(#p5be8489505)" style="fill: #1561a9"/>
    <path d="M 174.205646 404.938555 
L 175.390949 403.504419 
L 179.919266 395.776289 
L 182.883461 388.04816 
L 184.657063 380.320031 
L 185.203312 372.591902 
L 184.142115 364.863773 
L 181.040847 357.135644 
L 175.857565 349.407514 
L 174.205646 347.463112 
L 170.157698 349.407514 
L 163.20798 353.359208 
L 161.671822 357.135644 
L 159.342683 364.863773 
L 157.950028 372.591902 
L 157.542348 380.320031 
L 158.182036 388.04816 
L 160.001565 395.776289 
L 163.20798 403.306977 
L 164.120695 403.504419 
z
" clip-path="url(#p5be8489505)" style="fill: #084285"/>
   </g>
   <g id="matplotlib.axis_1">
    <g id="xtick_1">
     <g id="line2d_1">
      <defs>
       <path id="mf6d511c35b" d="M 0 0 
L 0 3.5 
" style="stroke: #000000; stroke-width: 0.8"/>
      </defs>
      <g>
       <use xlink:href="#mf6d511c35b" x="180.502455" y="499.48" style="stroke: #000000; stroke-width: 0.8"/>
      </g>
     </g>
     <g id="text_1">
      <!-- 2.0 -->
      <g transform="translate(163.009018 523.196563) scale(0.22 -0.22)">
       <defs>
        <path id="DejaVuSans-32" d="M 1228 531 
L 3431 531 
L 3431 0 
L 469 0 
L 469 531 
Q 828 903 1448 1529 
Q 2069 2156 2228 2338 
Q 2531 2678 2651 2914 
Q 2772 3150 2772 3378 
Q 2772 3750 2511 3984 
Q 2250 4219 1831 4219 
Q 1534 4219 1204 4116 
Q 875 4013 500 3803 
L 500 4441 
Q 881 4594 1212 4672 
Q 1544 4750 1819 4750 
Q 2544 4750 2975 4387 
Q 3406 4025 3406 3419 
Q 3406 3131 3298 2873 
Q 3191 2616 2906 2266 
Q 2828 2175 2409 1742 
Q 1991 1309 1228 531 
z
" transform="scale(0.015625)"/>
        <path id="DejaVuSans-2e" d="M 684 794 
L 1344 794 
L 1344 0 
L 684 0 
L 684 794 
z
" transform="scale(0.015625)"/>
        <path id="DejaVuSans-30" d="M 2034 4250 
Q 1547 4250 1301 3770 
Q 1056 3291 1056 2328 
Q 1056 1369 1301 889 
Q 1547 409 2034 409 
Q 2525 409 2770 889 
Q 3016 1369 3016 2328 
Q 3016 3291 2770 3770 
Q 2525 4250 2034 4250 
z
M 2034 4750 
Q 2819 4750 3233 4129 
Q 3647 3509 3647 2328 
Q 3647 1150 3233 529 
Q 2819 -91 2034 -91 
Q 1250 -91 836 529 
Q 422 1150 422 2328 
Q 422 3509 836 4129 
Q 1250 4750 2034 4750 
z
" transform="scale(0.015625)"/>
       </defs>
       <use xlink:href="#DejaVuSans-32"/>
       <use xlink:href="#DejaVuSans-2e" x="63.623047"/>
       <use xlink:href="#DejaVuSans-30" x="95.410156"/>
      </g>
     </g>
    </g>
    <g id="xtick_2">
     <g id="line2d_2">
      <g>
       <use xlink:href="#mf6d511c35b" x="296.991827" y="499.48" style="stroke: #000000; stroke-width: 0.8"/>
      </g>
     </g>
     <g id="text_2">
      <!-- 2.5 -->
      <g transform="translate(279.49839 523.196563) scale(0.22 -0.22)">
       <defs>
        <path id="DejaVuSans-35" d="M 691 4666 
L 3169 4666 
L 3169 4134 
L 1269 4134 
L 1269 2991 
Q 1406 3038 1543 3061 
Q 1681 3084 1819 3084 
Q 2600 3084 3056 2656 
Q 3513 2228 3513 1497 
Q 3513 744 3044 326 
Q 2575 -91 1722 -91 
Q 1428 -91 1123 -41 
Q 819 9 494 109 
L 494 744 
Q 775 591 1075 516 
Q 1375 441 1709 441 
Q 2250 441 2565 725 
Q 2881 1009 2881 1497 
Q 2881 1984 2565 2268 
Q 2250 2553 1709 2553 
Q 1456 2553 1204 2497 
Q 953 2441 691 2322 
L 691 4666 
z
" transform="scale(0.015625)"/>
       </defs>
       <use xlink:href="#DejaVuSans-32"/>
       <use xlink:href="#DejaVuSans-2e" x="63.623047"/>
       <use xlink:href="#DejaVuSans-35" x="95.410156"/>
      </g>
     </g>
    </g>
    <g id="xtick_3">
     <g id="line2d_3">
      <g>
       <use xlink:href="#mf6d511c35b" x="413.481199" y="499.48" style="stroke: #000000; stroke-width: 0.8"/>
      </g>
     </g>
     <g id="text_3">
      <!-- 3.0 -->
      <g transform="translate(395.987761 523.196563) scale(0.22 -0.22)">
       <defs>
        <path id="DejaVuSans-33" d="M 2597 2516 
Q 3050 2419 3304 2112 
Q 3559 1806 3559 1356 
Q 3559 666 3084 287 
Q 2609 -91 1734 -91 
Q 1441 -91 1130 -33 
Q 819 25 488 141 
L 488 750 
Q 750 597 1062 519 
Q 1375 441 1716 441 
Q 2309 441 2620 675 
Q 2931 909 2931 1356 
Q 2931 1769 2642 2001 
Q 2353 2234 1838 2234 
L 1294 2234 
L 1294 2753 
L 1863 2753 
Q 2328 2753 2575 2939 
Q 2822 3125 2822 3475 
Q 2822 3834 2567 4026 
Q 2313 4219 1838 4219 
Q 1578 4219 1281 4162 
Q 984 4106 628 3988 
L 628 4550 
Q 988 4650 1302 4700 
Q 1616 4750 1894 4750 
Q 2613 4750 3031 4423 
Q 3450 4097 3450 3541 
Q 3450 3153 3228 2886 
Q 3006 2619 2597 2516 
z
" transform="scale(0.015625)"/>
       </defs>
       <use xlink:href="#DejaVuSans-33"/>
       <use xlink:href="#DejaVuSans-2e" x="63.623047"/>
       <use xlink:href="#DejaVuSans-30" x="95.410156"/>
      </g>
     </g>
    </g>
    <g id="xtick_4">
     <g id="line2d_4">
      <g>
       <use xlink:href="#mf6d511c35b" x="529.970571" y="499.48" style="stroke: #000000; stroke-width: 0.8"/>
      </g>
     </g>
     <g id="text_4">
      <!-- 3.5 -->
      <g transform="translate(512.477133 523.196563) scale(0.22 -0.22)">
       <use xlink:href="#DejaVuSans-33"/>
       <use xlink:href="#DejaVuSans-2e" x="63.623047"/>
       <use xlink:href="#DejaVuSans-35" x="95.410156"/>
      </g>
     </g>
    </g>
    <g id="xtick_5">
     <g id="line2d_5">
      <g>
       <use xlink:href="#mf6d511c35b" x="646.459943" y="499.48" style="stroke: #000000; stroke-width: 0.8"/>
      </g>
     </g>
     <g id="text_5">
      <!-- 4.0 -->
      <g transform="translate(628.966505 523.196563) scale(0.22 -0.22)">
       <defs>
        <path id="DejaVuSans-34" d="M 2419 4116 
L 825 1625 
L 2419 1625 
L 2419 4116 
z
M 2253 4666 
L 3047 4666 
L 3047 1625 
L 3713 1625 
L 3713 1100 
L 3047 1100 
L 3047 0 
L 2419 0 
L 2419 1100 
L 313 1100 
L 313 1709 
L 2253 4666 
z
" transform="scale(0.015625)"/>
       </defs>
       <use xlink:href="#DejaVuSans-34"/>
       <use xlink:href="#DejaVuSans-2e" x="63.623047"/>
       <use xlink:href="#DejaVuSans-30" x="95.410156"/>
      </g>
     </g>
    </g>
    <g id="text_6">
     <!-- Energy Uncertainties -->
     <g transform="translate(278.127188 548.488438) scale(0.22 -0.22)">
      <defs>
       <path id="DejaVuSans-45" d="M 628 4666 
L 3578 4666 
L 3578 4134 
L 1259 4134 
L 1259 2753 
L 3481 2753 
L 3481 2222 
L 1259 2222 
L 1259 531 
L 3634 531 
L 3634 0 
L 628 0 
L 628 4666 
z
" transform="scale(0.015625)"/>
       <path id="DejaVuSans-6e" d="M 3513 2113 
L 3513 0 
L 2938 0 
L 2938 2094 
Q 2938 2591 2744 2837 
Q 2550 3084 2163 3084 
Q 1697 3084 1428 2787 
Q 1159 2491 1159 1978 
L 1159 0 
L 581 0 
L 581 3500 
L 1159 3500 
L 1159 2956 
Q 1366 3272 1645 3428 
Q 1925 3584 2291 3584 
Q 2894 3584 3203 3211 
Q 3513 2838 3513 2113 
z
" transform="scale(0.015625)"/>
       <path id="DejaVuSans-65" d="M 3597 1894 
L 3597 1613 
L 953 1613 
Q 991 1019 1311 708 
Q 1631 397 2203 397 
Q 2534 397 2845 478 
Q 3156 559 3463 722 
L 3463 178 
Q 3153 47 2828 -22 
Q 2503 -91 2169 -91 
Q 1331 -91 842 396 
Q 353 884 353 1716 
Q 353 2575 817 3079 
Q 1281 3584 2069 3584 
Q 2775 3584 3186 3129 
Q 3597 2675 3597 1894 
z
M 3022 2063 
Q 3016 2534 2758 2815 
Q 2500 3097 2075 3097 
Q 1594 3097 1305 2825 
Q 1016 2553 972 2059 
L 3022 2063 
z
" transform="scale(0.015625)"/>
       <path id="DejaVuSans-72" d="M 2631 2963 
Q 2534 3019 2420 3045 
Q 2306 3072 2169 3072 
Q 1681 3072 1420 2755 
Q 1159 2438 1159 1844 
L 1159 0 
L 581 0 
L 581 3500 
L 1159 3500 
L 1159 2956 
Q 1341 3275 1631 3429 
Q 1922 3584 2338 3584 
Q 2397 3584 2469 3576 
Q 2541 3569 2628 3553 
L 2631 2963 
z
" transform="scale(0.015625)"/>
       <path id="DejaVuSans-67" d="M 2906 1791 
Q 2906 2416 2648 2759 
Q 2391 3103 1925 3103 
Q 1463 3103 1205 2759 
Q 947 2416 947 1791 
Q 947 1169 1205 825 
Q 1463 481 1925 481 
Q 2391 481 2648 825 
Q 2906 1169 2906 1791 
z
M 3481 434 
Q 3481 -459 3084 -895 
Q 2688 -1331 1869 -1331 
Q 1566 -1331 1297 -1286 
Q 1028 -1241 775 -1147 
L 775 -588 
Q 1028 -725 1275 -790 
Q 1522 -856 1778 -856 
Q 2344 -856 2625 -561 
Q 2906 -266 2906 331 
L 2906 616 
Q 2728 306 2450 153 
Q 2172 0 1784 0 
Q 1141 0 747 490 
Q 353 981 353 1791 
Q 353 2603 747 3093 
Q 1141 3584 1784 3584 
Q 2172 3584 2450 3431 
Q 2728 3278 2906 2969 
L 2906 3500 
L 3481 3500 
L 3481 434 
z
" transform="scale(0.015625)"/>
       <path id="DejaVuSans-79" d="M 2059 -325 
Q 1816 -950 1584 -1140 
Q 1353 -1331 966 -1331 
L 506 -1331 
L 506 -850 
L 844 -850 
Q 1081 -850 1212 -737 
Q 1344 -625 1503 -206 
L 1606 56 
L 191 3500 
L 800 3500 
L 1894 763 
L 2988 3500 
L 3597 3500 
L 2059 -325 
z
" transform="scale(0.015625)"/>
       <path id="DejaVuSans-20" transform="scale(0.015625)"/>
       <path id="DejaVuSans-55" d="M 556 4666 
L 1191 4666 
L 1191 1831 
Q 1191 1081 1462 751 
Q 1734 422 2344 422 
Q 2950 422 3222 751 
Q 3494 1081 3494 1831 
L 3494 4666 
L 4128 4666 
L 4128 1753 
Q 4128 841 3676 375 
Q 3225 -91 2344 -91 
Q 1459 -91 1007 375 
Q 556 841 556 1753 
L 556 4666 
z
" transform="scale(0.015625)"/>
       <path id="DejaVuSans-63" d="M 3122 3366 
L 3122 2828 
Q 2878 2963 2633 3030 
Q 2388 3097 2138 3097 
Q 1578 3097 1268 2742 
Q 959 2388 959 1747 
Q 959 1106 1268 751 
Q 1578 397 2138 397 
Q 2388 397 2633 464 
Q 2878 531 3122 666 
L 3122 134 
Q 2881 22 2623 -34 
Q 2366 -91 2075 -91 
Q 1284 -91 818 406 
Q 353 903 353 1747 
Q 353 2603 823 3093 
Q 1294 3584 2113 3584 
Q 2378 3584 2631 3529 
Q 2884 3475 3122 3366 
z
" transform="scale(0.015625)"/>
       <path id="DejaVuSans-74" d="M 1172 4494 
L 1172 3500 
L 2356 3500 
L 2356 3053 
L 1172 3053 
L 1172 1153 
Q 1172 725 1289 603 
Q 1406 481 1766 481 
L 2356 481 
L 2356 0 
L 1766 0 
Q 1100 0 847 248 
Q 594 497 594 1153 
L 594 3053 
L 172 3053 
L 172 3500 
L 594 3500 
L 594 4494 
L 1172 4494 
z
" transform="scale(0.015625)"/>
       <path id="DejaVuSans-61" d="M 2194 1759 
Q 1497 1759 1228 1600 
Q 959 1441 959 1056 
Q 959 750 1161 570 
Q 1363 391 1709 391 
Q 2188 391 2477 730 
Q 2766 1069 2766 1631 
L 2766 1759 
L 2194 1759 
z
M 3341 1997 
L 3341 0 
L 2766 0 
L 2766 531 
Q 2569 213 2275 61 
Q 1981 -91 1556 -91 
Q 1019 -91 701 211 
Q 384 513 384 1019 
Q 384 1609 779 1909 
Q 1175 2209 1959 2209 
L 2766 2209 
L 2766 2266 
Q 2766 2663 2505 2880 
Q 2244 3097 1772 3097 
Q 1472 3097 1187 3025 
Q 903 2953 641 2809 
L 641 3341 
Q 956 3463 1253 3523 
Q 1550 3584 1831 3584 
Q 2591 3584 2966 3190 
Q 3341 2797 3341 1997 
z
" transform="scale(0.015625)"/>
       <path id="DejaVuSans-69" d="M 603 3500 
L 1178 3500 
L 1178 0 
L 603 0 
L 603 3500 
z
M 603 4863 
L 1178 4863 
L 1178 4134 
L 603 4134 
L 603 4863 
z
" transform="scale(0.015625)"/>
       <path id="DejaVuSans-73" d="M 2834 3397 
L 2834 2853 
Q 2591 2978 2328 3040 
Q 2066 3103 1784 3103 
Q 1356 3103 1142 2972 
Q 928 2841 928 2578 
Q 928 2378 1081 2264 
Q 1234 2150 1697 2047 
L 1894 2003 
Q 2506 1872 2764 1633 
Q 3022 1394 3022 966 
Q 3022 478 2636 193 
Q 2250 -91 1575 -91 
Q 1294 -91 989 -36 
Q 684 19 347 128 
L 347 722 
Q 666 556 975 473 
Q 1284 391 1588 391 
Q 1994 391 2212 530 
Q 2431 669 2431 922 
Q 2431 1156 2273 1281 
Q 2116 1406 1581 1522 
L 1381 1569 
Q 847 1681 609 1914 
Q 372 2147 372 2553 
Q 372 3047 722 3315 
Q 1072 3584 1716 3584 
Q 2034 3584 2315 3537 
Q 2597 3491 2834 3397 
z
" transform="scale(0.015625)"/>
      </defs>
      <use xlink:href="#DejaVuSans-45"/>
      <use xlink:href="#DejaVuSans-6e" x="63.183594"/>
      <use xlink:href="#DejaVuSans-65" x="126.5625"/>
      <use xlink:href="#DejaVuSans-72" x="188.085938"/>
      <use xlink:href="#DejaVuSans-67" x="227.449219"/>
      <use xlink:href="#DejaVuSans-79" x="290.925781"/>
      <use xlink:href="#DejaVuSans-20" x="350.105469"/>
      <use xlink:href="#DejaVuSans-55" x="381.892578"/>
      <use xlink:href="#DejaVuSans-6e" x="455.085938"/>
      <use xlink:href="#DejaVuSans-63" x="518.464844"/>
      <use xlink:href="#DejaVuSans-65" x="573.445312"/>
      <use xlink:href="#DejaVuSans-72" x="634.96875"/>
      <use xlink:href="#DejaVuSans-74" x="676.082031"/>
      <use xlink:href="#DejaVuSans-61" x="715.291016"/>
      <use xlink:href="#DejaVuSans-69" x="776.570312"/>
      <use xlink:href="#DejaVuSans-6e" x="804.353516"/>
      <use xlink:href="#DejaVuSans-74" x="867.732422"/>
      <use xlink:href="#DejaVuSans-69" x="906.941406"/>
      <use xlink:href="#DejaVuSans-65" x="934.724609"/>
      <use xlink:href="#DejaVuSans-73" x="996.248047"/>
     </g>
    </g>
   </g>
   <g id="matplotlib.axis_2">
    <g id="ytick_1">
     <g id="line2d_6">
      <defs>
       <path id="mb0d88a69f7" d="M 0 0 
L -3.5 0 
" style="stroke: #000000; stroke-width: 0.8"/>
      </defs>
      <g>
       <use xlink:href="#mb0d88a69f7" x="90.65" y="482.034078" style="stroke: #000000; stroke-width: 0.8"/>
      </g>
     </g>
     <g id="text_7">
      <!-- 1.0 -->
      <g transform="translate(48.663125 490.392359) scale(0.22 -0.22)">
       <defs>
        <path id="DejaVuSans-31" d="M 794 531 
L 1825 531 
L 1825 4091 
L 703 3866 
L 703 4441 
L 1819 4666 
L 2450 4666 
L 2450 531 
L 3481 531 
L 3481 0 
L 794 0 
L 794 531 
z
" transform="scale(0.015625)"/>
       </defs>
       <use xlink:href="#DejaVuSans-31"/>
       <use xlink:href="#DejaVuSans-2e" x="63.623047"/>
       <use xlink:href="#DejaVuSans-30" x="95.410156"/>
      </g>
     </g>
    </g>
    <g id="ytick_2">
     <g id="line2d_7">
      <g>
       <use xlink:href="#mb0d88a69f7" x="90.65" y="410.733292" style="stroke: #000000; stroke-width: 0.8"/>
      </g>
     </g>
     <g id="text_8">
      <!-- 1.5 -->
      <g transform="translate(48.663125 419.091574) scale(0.22 -0.22)">
       <use xlink:href="#DejaVuSans-31"/>
       <use xlink:href="#DejaVuSans-2e" x="63.623047"/>
       <use xlink:href="#DejaVuSans-35" x="95.410156"/>
      </g>
     </g>
    </g>
    <g id="ytick_3">
     <g id="line2d_8">
      <g>
       <use xlink:href="#mb0d88a69f7" x="90.65" y="339.432507" style="stroke: #000000; stroke-width: 0.8"/>
      </g>
     </g>
     <g id="text_9">
      <!-- 2.0 -->
      <g transform="translate(48.663125 347.790788) scale(0.22 -0.22)">
       <use xlink:href="#DejaVuSans-32"/>
       <use xlink:href="#DejaVuSans-2e" x="63.623047"/>
       <use xlink:href="#DejaVuSans-30" x="95.410156"/>
      </g>
     </g>
    </g>
    <g id="ytick_4">
     <g id="line2d_9">
      <g>
       <use xlink:href="#mb0d88a69f7" x="90.65" y="268.131721" style="stroke: #000000; stroke-width: 0.8"/>
      </g>
     </g>
     <g id="text_10">
      <!-- 2.5 -->
      <g transform="translate(48.663125 276.490003) scale(0.22 -0.22)">
       <use xlink:href="#DejaVuSans-32"/>
       <use xlink:href="#DejaVuSans-2e" x="63.623047"/>
       <use xlink:href="#DejaVuSans-35" x="95.410156"/>
      </g>
     </g>
    </g>
    <g id="ytick_5">
     <g id="line2d_10">
      <g>
       <use xlink:href="#mb0d88a69f7" x="90.65" y="196.830936" style="stroke: #000000; stroke-width: 0.8"/>
      </g>
     </g>
     <g id="text_11">
      <!-- 3.0 -->
      <g transform="translate(48.663125 205.189217) scale(0.22 -0.22)">
       <use xlink:href="#DejaVuSans-33"/>
       <use xlink:href="#DejaVuSans-2e" x="63.623047"/>
       <use xlink:href="#DejaVuSans-30" x="95.410156"/>
      </g>
     </g>
    </g>
    <g id="ytick_6">
     <g id="line2d_11">
      <g>
       <use xlink:href="#mb0d88a69f7" x="90.65" y="125.530151" style="stroke: #000000; stroke-width: 0.8"/>
      </g>
     </g>
     <g id="text_12">
      <!-- 3.5 -->
      <g transform="translate(48.663125 133.888432) scale(0.22 -0.22)">
       <use xlink:href="#DejaVuSans-33"/>
       <use xlink:href="#DejaVuSans-2e" x="63.623047"/>
       <use xlink:href="#DejaVuSans-35" x="95.410156"/>
      </g>
     </g>
    </g>
    <g id="ytick_7">
     <g id="line2d_12">
      <g>
       <use xlink:href="#mb0d88a69f7" x="90.65" y="54.229365" style="stroke: #000000; stroke-width: 0.8"/>
      </g>
     </g>
     <g id="text_13">
      <!-- 4.0 -->
      <g transform="translate(48.663125 62.587646) scale(0.22 -0.22)">
       <use xlink:href="#DejaVuSans-34"/>
       <use xlink:href="#DejaVuSans-2e" x="63.623047"/>
       <use xlink:href="#DejaVuSans-30" x="95.410156"/>
      </g>
     </g>
    </g>
    <g id="text_14">
     <!-- Force Errors [kJ/(mol*A)] -->
     <g transform="translate(40.087813 394.9125) rotate(-90) scale(0.22 -0.22)">
      <defs>
       <path id="DejaVuSans-46" d="M 628 4666 
L 3309 4666 
L 3309 4134 
L 1259 4134 
L 1259 2759 
L 3109 2759 
L 3109 2228 
L 1259 2228 
L 1259 0 
L 628 0 
L 628 4666 
z
" transform="scale(0.015625)"/>
       <path id="DejaVuSans-6f" d="M 1959 3097 
Q 1497 3097 1228 2736 
Q 959 2375 959 1747 
Q 959 1119 1226 758 
Q 1494 397 1959 397 
Q 2419 397 2687 759 
Q 2956 1122 2956 1747 
Q 2956 2369 2687 2733 
Q 2419 3097 1959 3097 
z
M 1959 3584 
Q 2709 3584 3137 3096 
Q 3566 2609 3566 1747 
Q 3566 888 3137 398 
Q 2709 -91 1959 -91 
Q 1206 -91 779 398 
Q 353 888 353 1747 
Q 353 2609 779 3096 
Q 1206 3584 1959 3584 
z
" transform="scale(0.015625)"/>
       <path id="DejaVuSans-5b" d="M 550 4863 
L 1875 4863 
L 1875 4416 
L 1125 4416 
L 1125 -397 
L 1875 -397 
L 1875 -844 
L 550 -844 
L 550 4863 
z
" transform="scale(0.015625)"/>
       <path id="DejaVuSans-6b" d="M 581 4863 
L 1159 4863 
L 1159 1991 
L 2875 3500 
L 3609 3500 
L 1753 1863 
L 3688 0 
L 2938 0 
L 1159 1709 
L 1159 0 
L 581 0 
L 581 4863 
z
" transform="scale(0.015625)"/>
       <path id="DejaVuSans-4a" d="M 628 4666 
L 1259 4666 
L 1259 325 
Q 1259 -519 939 -900 
Q 619 -1281 -91 -1281 
L -331 -1281 
L -331 -750 
L -134 -750 
Q 284 -750 456 -515 
Q 628 -281 628 325 
L 628 4666 
z
" transform="scale(0.015625)"/>
       <path id="DejaVuSans-2f" d="M 1625 4666 
L 2156 4666 
L 531 -594 
L 0 -594 
L 1625 4666 
z
" transform="scale(0.015625)"/>
       <path id="DejaVuSans-28" d="M 1984 4856 
Q 1566 4138 1362 3434 
Q 1159 2731 1159 2009 
Q 1159 1288 1364 580 
Q 1569 -128 1984 -844 
L 1484 -844 
Q 1016 -109 783 600 
Q 550 1309 550 2009 
Q 550 2706 781 3412 
Q 1013 4119 1484 4856 
L 1984 4856 
z
" transform="scale(0.015625)"/>
       <path id="DejaVuSans-6d" d="M 3328 2828 
Q 3544 3216 3844 3400 
Q 4144 3584 4550 3584 
Q 5097 3584 5394 3201 
Q 5691 2819 5691 2113 
L 5691 0 
L 5113 0 
L 5113 2094 
Q 5113 2597 4934 2840 
Q 4756 3084 4391 3084 
Q 3944 3084 3684 2787 
Q 3425 2491 3425 1978 
L 3425 0 
L 2847 0 
L 2847 2094 
Q 2847 2600 2669 2842 
Q 2491 3084 2119 3084 
Q 1678 3084 1418 2786 
Q 1159 2488 1159 1978 
L 1159 0 
L 581 0 
L 581 3500 
L 1159 3500 
L 1159 2956 
Q 1356 3278 1631 3431 
Q 1906 3584 2284 3584 
Q 2666 3584 2933 3390 
Q 3200 3197 3328 2828 
z
" transform="scale(0.015625)"/>
       <path id="DejaVuSans-6c" d="M 603 4863 
L 1178 4863 
L 1178 0 
L 603 0 
L 603 4863 
z
" transform="scale(0.015625)"/>
       <path id="DejaVuSans-2a" d="M 3009 3897 
L 1888 3291 
L 3009 2681 
L 2828 2375 
L 1778 3009 
L 1778 1831 
L 1422 1831 
L 1422 3009 
L 372 2375 
L 191 2681 
L 1313 3291 
L 191 3897 
L 372 4206 
L 1422 3572 
L 1422 4750 
L 1778 4750 
L 1778 3572 
L 2828 4206 
L 3009 3897 
z
" transform="scale(0.015625)"/>
       <path id="DejaVuSans-41" d="M 2188 4044 
L 1331 1722 
L 3047 1722 
L 2188 4044 
z
M 1831 4666 
L 2547 4666 
L 4325 0 
L 3669 0 
L 3244 1197 
L 1141 1197 
L 716 0 
L 50 0 
L 1831 4666 
z
" transform="scale(0.015625)"/>
       <path id="DejaVuSans-29" d="M 513 4856 
L 1013 4856 
Q 1481 4119 1714 3412 
Q 1947 2706 1947 2009 
Q 1947 1309 1714 600 
Q 1481 -109 1013 -844 
L 513 -844 
Q 928 -128 1133 580 
Q 1338 1288 1338 2009 
Q 1338 2731 1133 3434 
Q 928 4138 513 4856 
z
" transform="scale(0.015625)"/>
       <path id="DejaVuSans-5d" d="M 1947 4863 
L 1947 -844 
L 622 -844 
L 622 -397 
L 1369 -397 
L 1369 4416 
L 622 4416 
L 622 4863 
L 1947 4863 
z
" transform="scale(0.015625)"/>
      </defs>
      <use xlink:href="#DejaVuSans-46"/>
      <use xlink:href="#DejaVuSans-6f" x="53.894531"/>
      <use xlink:href="#DejaVuSans-72" x="115.076172"/>
      <use xlink:href="#DejaVuSans-63" x="153.939453"/>
      <use xlink:href="#DejaVuSans-65" x="208.919922"/>
      <use xlink:href="#DejaVuSans-20" x="270.443359"/>
      <use xlink:href="#DejaVuSans-45" x="302.230469"/>
      <use xlink:href="#DejaVuSans-72" x="365.414062"/>
      <use xlink:href="#DejaVuSans-72" x="404.777344"/>
      <use xlink:href="#DejaVuSans-6f" x="443.640625"/>
      <use xlink:href="#DejaVuSans-72" x="504.822266"/>
      <use xlink:href="#DejaVuSans-73" x="545.935547"/>
      <use xlink:href="#DejaVuSans-20" x="598.035156"/>
      <use xlink:href="#DejaVuSans-5b" x="629.822266"/>
      <use xlink:href="#DejaVuSans-6b" x="668.835938"/>
      <use xlink:href="#DejaVuSans-4a" x="726.746094"/>
      <use xlink:href="#DejaVuSans-2f" x="756.238281"/>
      <use xlink:href="#DejaVuSans-28" x="789.929688"/>
      <use xlink:href="#DejaVuSans-6d" x="828.943359"/>
      <use xlink:href="#DejaVuSans-6f" x="926.355469"/>
      <use xlink:href="#DejaVuSans-6c" x="987.537109"/>
      <use xlink:href="#DejaVuSans-2a" x="1015.320312"/>
      <use xlink:href="#DejaVuSans-41" x="1065.320312"/>
      <use xlink:href="#DejaVuSans-29" x="1133.728516"/>
      <use xlink:href="#DejaVuSans-5d" x="1172.742188"/>
     </g>
    </g>
   </g>
   <g id="line2d_13">
    <path d="M 90.65 499.48 
L 696.24 23.76 
" clip-path="url(#p5be8489505)" style="fill: none; stroke-dasharray: 5.55,2.4; stroke-dashoffset: 0; stroke: #ff0000; stroke-width: 1.5"/>
   </g>
   <g id="patch_3">
    <path d="M 90.65 499.48 
L 90.65 23.76 
" style="fill: none; stroke: #000000; stroke-width: 0.8; stroke-linejoin: miter; stroke-linecap: square"/>
   </g>
   <g id="patch_4">
    <path d="M 696.24 499.48 
L 696.24 23.76 
" style="fill: none; stroke: #000000; stroke-width: 0.8; stroke-linejoin: miter; stroke-linecap: square"/>
   </g>
   <g id="patch_5">
    <path d="M 90.65 499.48 
L 696.24 499.48 
" style="fill: none; stroke: #000000; stroke-width: 0.8; stroke-linejoin: miter; stroke-linecap: square"/>
   </g>
   <g id="patch_6">
    <path d="M 90.65 23.76 
L 696.24 23.76 
" style="fill: none; stroke: #000000; stroke-width: 0.8; stroke-linejoin: miter; stroke-linecap: square"/>
   </g>
   <g id="text_15">
    <!-- Correlation in: 0.345 -->
    <g transform="translate(151.209 71.332) scale(0.22 -0.22)">
     <defs>
      <path id="DejaVuSans-43" d="M 4122 4306 
L 4122 3641 
Q 3803 3938 3442 4084 
Q 3081 4231 2675 4231 
Q 1875 4231 1450 3742 
Q 1025 3253 1025 2328 
Q 1025 1406 1450 917 
Q 1875 428 2675 428 
Q 3081 428 3442 575 
Q 3803 722 4122 1019 
L 4122 359 
Q 3791 134 3420 21 
Q 3050 -91 2638 -91 
Q 1578 -91 968 557 
Q 359 1206 359 2328 
Q 359 3453 968 4101 
Q 1578 4750 2638 4750 
Q 3056 4750 3426 4639 
Q 3797 4528 4122 4306 
z
" transform="scale(0.015625)"/>
      <path id="DejaVuSans-3a" d="M 750 794 
L 1409 794 
L 1409 0 
L 750 0 
L 750 794 
z
M 750 3309 
L 1409 3309 
L 1409 2516 
L 750 2516 
L 750 3309 
z
" transform="scale(0.015625)"/>
     </defs>
     <use xlink:href="#DejaVuSans-43"/>
     <use xlink:href="#DejaVuSans-6f" x="69.824219"/>
     <use xlink:href="#DejaVuSans-72" x="131.005859"/>
     <use xlink:href="#DejaVuSans-72" x="170.369141"/>
     <use xlink:href="#DejaVuSans-65" x="209.232422"/>
     <use xlink:href="#DejaVuSans-6c" x="270.755859"/>
     <use xlink:href="#DejaVuSans-61" x="298.539062"/>
     <use xlink:href="#DejaVuSans-74" x="359.818359"/>
     <use xlink:href="#DejaVuSans-69" x="399.027344"/>
     <use xlink:href="#DejaVuSans-6f" x="426.810547"/>
     <use xlink:href="#DejaVuSans-6e" x="487.992188"/>
     <use xlink:href="#DejaVuSans-20" x="551.371094"/>
     <use xlink:href="#DejaVuSans-69" x="583.158203"/>
     <use xlink:href="#DejaVuSans-6e" x="610.941406"/>
     <use xlink:href="#DejaVuSans-3a" x="674.320312"/>
     <use xlink:href="#DejaVuSans-20" x="708.011719"/>
     <use xlink:href="#DejaVuSans-30" x="739.798828"/>
     <use xlink:href="#DejaVuSans-2e" x="803.421875"/>
     <use xlink:href="#DejaVuSans-33" x="835.208984"/>
     <use xlink:href="#DejaVuSans-34" x="898.832031"/>
     <use xlink:href="#DejaVuSans-35" x="962.455078"/>
    </g>
   </g>
  </g>
 </g>
 <defs>
  <clipPath id="p5be8489505">
   <rect x="90.65" y="23.76" width="605.59" height="475.72"/>
  </clipPath>
 </defs>
</svg>
