<?xml version="1.0" encoding="utf-8" standalone="no"?>
<!DOCTYPE svg PUBLIC "-//W3C//DTD SVG 1.1//EN"
  "http://www.w3.org/Graphics/SVG/1.1/DTD/svg11.dtd">
<svg xmlns:xlink="http://www.w3.org/1999/xlink" width="720pt" height="576pt" viewBox="0 0 720 576" xmlns="http://www.w3.org/2000/svg" version="1.1">
 <metadata>
  <rdf:RDF xmlns:dc="http://purl.org/dc/elements/1.1/" xmlns:cc="http://creativecommons.org/ns#" xmlns:rdf="http://www.w3.org/1999/02/22-rdf-syntax-ns#">
   <cc:Work>
    <dc:type rdf:resource="http://purl.org/dc/dcmitype/StillImage"/>
    <dc:date>2024-12-01T15:51:51.769149</dc:date>
    <dc:format>image/svg+xml</dc:format>
    <dc:creator>
     <cc:Agent>
      <dc:title>Matplotlib v3.8.4, https://matplotlib.org/</dc:title>
     </cc:Agent>
    </dc:creator>
   </cc:Work>
  </rdf:RDF>
 </metadata>
 <defs>
  <style type="text/css">*{stroke-linejoin: round; stroke-linecap: butt}</style>
 </defs>
 <g id="figure_1">
  <g id="patch_1">
   <path d="M 0 576 
L 720 576 
L 720 0 
L 0 0 
z
" style="fill: #ffffff"/>
  </g>
  <g id="axes_1">
   <g id="patch_2">
    <path d="M 38.27 534.04 
L 709.2 534.04 
L 709.2 25.44 
L 38.27 25.44 
z
" style="fill: #ffffff"/>
   </g>
   <g id="PathCollection_1">
    <defs>
     <path id="mb021c3c09e" d="M 0 3 
C 0.795609 3 1.55874 2.683901 2.12132 2.12132 
C 2.683901 1.55874 3 0.795609 3 0 
C 3 -0.795609 2.683901 -1.55874 2.12132 -2.12132 
C 1.55874 -2.683901 0.795609 -3 0 -3 
C -0.795609 -3 -1.55874 -2.683901 -2.12132 -2.12132 
C -2.683901 -1.55874 -3 -0.795609 -3 0 
C -3 0.795609 -2.683901 1.55874 -2.12132 2.12132 
C -1.55874 2.683901 -0.795609 3 0 3 
z
" style="stroke: #1f77b4"/>
    </defs>
    <g clip-path="url(#p7df079e255)">
     <use xlink:href="#mb021c3c09e" x="82.734863" y="496.320033" style="fill: #1f77b4; stroke: #1f77b4"/>
     <use xlink:href="#mb021c3c09e" x="101.639758" y="498.448651" style="fill: #1f77b4; stroke: #1f77b4"/>
     <use xlink:href="#mb021c3c09e" x="98.317787" y="497.455244" style="fill: #1f77b4; stroke: #1f77b4"/>
     <use xlink:href="#mb021c3c09e" x="81.363024" y="497.191585" style="fill: #1f77b4; stroke: #1f77b4"/>
     <use xlink:href="#mb021c3c09e" x="83.121031" y="498.698885" style="fill: #1f77b4; stroke: #1f77b4"/>
     <use xlink:href="#mb021c3c09e" x="73.086641" y="499.593934" style="fill: #1f77b4; stroke: #1f77b4"/>
     <use xlink:href="#mb021c3c09e" x="93.31445" y="499.952249" style="fill: #1f77b4; stroke: #1f77b4"/>
     <use xlink:href="#mb021c3c09e" x="91.330982" y="498.999381" style="fill: #1f77b4; stroke: #1f77b4"/>
     <use xlink:href="#mb021c3c09e" x="74.59418" y="499.312894" style="fill: #1f77b4; stroke: #1f77b4"/>
     <use xlink:href="#mb021c3c09e" x="100.634204" y="496.156002" style="fill: #1f77b4; stroke: #1f77b4"/>
     <use xlink:href="#mb021c3c09e" x="86.405575" y="500.421314" style="fill: #1f77b4; stroke: #1f77b4"/>
     <use xlink:href="#mb021c3c09e" x="98.144568" y="493.015923" style="fill: #1f77b4; stroke: #1f77b4"/>
     <use xlink:href="#mb021c3c09e" x="91.432186" y="496.310301" style="fill: #1f77b4; stroke: #1f77b4"/>
     <use xlink:href="#mb021c3c09e" x="84.603564" y="498.337334" style="fill: #1f77b4; stroke: #1f77b4"/>
     <use xlink:href="#mb021c3c09e" x="98.042222" y="492.248197" style="fill: #1f77b4; stroke: #1f77b4"/>
     <use xlink:href="#mb021c3c09e" x="104.673375" y="487.386478" style="fill: #1f77b4; stroke: #1f77b4"/>
     <use xlink:href="#mb021c3c09e" x="87.410134" y="498.387426" style="fill: #1f77b4; stroke: #1f77b4"/>
     <use xlink:href="#mb021c3c09e" x="79.597812" y="495.33145" style="fill: #1f77b4; stroke: #1f77b4"/>
     <use xlink:href="#mb021c3c09e" x="85.575856" y="497.949843" style="fill: #1f77b4; stroke: #1f77b4"/>
     <use xlink:href="#mb021c3c09e" x="79.693672" y="500.153813" style="fill: #1f77b4; stroke: #1f77b4"/>
     <use xlink:href="#mb021c3c09e" x="92.590303" y="500.240306" style="fill: #1f77b4; stroke: #1f77b4"/>
     <use xlink:href="#mb021c3c09e" x="93.271035" y="499.961871" style="fill: #1f77b4; stroke: #1f77b4"/>
     <use xlink:href="#mb021c3c09e" x="89.871963" y="496.77793" style="fill: #1f77b4; stroke: #1f77b4"/>
     <use xlink:href="#mb021c3c09e" x="180.94835" y="297.386183" style="fill: #1f77b4; stroke: #1f77b4"/>
     <use xlink:href="#mb021c3c09e" x="88.437562" y="500.104331" style="fill: #1f77b4; stroke: #1f77b4"/>
     <use xlink:href="#mb021c3c09e" x="88.128109" y="497.896451" style="fill: #1f77b4; stroke: #1f77b4"/>
     <use xlink:href="#mb021c3c09e" x="79.765503" y="492.322819" style="fill: #1f77b4; stroke: #1f77b4"/>
     <use xlink:href="#mb021c3c09e" x="93.385451" y="497.283329" style="fill: #1f77b4; stroke: #1f77b4"/>
     <use xlink:href="#mb021c3c09e" x="91.656155" y="497.451695" style="fill: #1f77b4; stroke: #1f77b4"/>
     <use xlink:href="#mb021c3c09e" x="84.27371" y="493.759131" style="fill: #1f77b4; stroke: #1f77b4"/>
     <use xlink:href="#mb021c3c09e" x="74.117367" y="499.163607" style="fill: #1f77b4; stroke: #1f77b4"/>
     <use xlink:href="#mb021c3c09e" x="91.277856" y="497.711273" style="fill: #1f77b4; stroke: #1f77b4"/>
     <use xlink:href="#mb021c3c09e" x="96.58991" y="496.850672" style="fill: #1f77b4; stroke: #1f77b4"/>
     <use xlink:href="#mb021c3c09e" x="85.391028" y="500.203343" style="fill: #1f77b4; stroke: #1f77b4"/>
     <use xlink:href="#mb021c3c09e" x="90.931528" y="499.482007" style="fill: #1f77b4; stroke: #1f77b4"/>
     <use xlink:href="#mb021c3c09e" x="73.737244" y="498.241006" style="fill: #1f77b4; stroke: #1f77b4"/>
     <use xlink:href="#mb021c3c09e" x="87.566934" y="498.463799" style="fill: #1f77b4; stroke: #1f77b4"/>
     <use xlink:href="#mb021c3c09e" x="99.849559" y="499.447268" style="fill: #1f77b4; stroke: #1f77b4"/>
     <use xlink:href="#mb021c3c09e" x="98.892174" y="498.336673" style="fill: #1f77b4; stroke: #1f77b4"/>
     <use xlink:href="#mb021c3c09e" x="77.33935" y="499.592542" style="fill: #1f77b4; stroke: #1f77b4"/>
     <use xlink:href="#mb021c3c09e" x="77.925402" y="496.071072" style="fill: #1f77b4; stroke: #1f77b4"/>
     <use xlink:href="#mb021c3c09e" x="75.563101" y="495.496679" style="fill: #1f77b4; stroke: #1f77b4"/>
     <use xlink:href="#mb021c3c09e" x="85.490592" y="498.602975" style="fill: #1f77b4; stroke: #1f77b4"/>
     <use xlink:href="#mb021c3c09e" x="75.470779" y="498.963313" style="fill: #1f77b4; stroke: #1f77b4"/>
     <use xlink:href="#mb021c3c09e" x="82.455722" y="499.085572" style="fill: #1f77b4; stroke: #1f77b4"/>
     <use xlink:href="#mb021c3c09e" x="78.273277" y="498.3083" style="fill: #1f77b4; stroke: #1f77b4"/>
     <use xlink:href="#mb021c3c09e" x="72.18441" y="498.672532" style="fill: #1f77b4; stroke: #1f77b4"/>
     <use xlink:href="#mb021c3c09e" x="79.8539" y="497.42296" style="fill: #1f77b4; stroke: #1f77b4"/>
     <use xlink:href="#mb021c3c09e" x="85.642638" y="488.747313" style="fill: #1f77b4; stroke: #1f77b4"/>
     <use xlink:href="#mb021c3c09e" x="86.444789" y="499.998506" style="fill: #1f77b4; stroke: #1f77b4"/>
     <use xlink:href="#mb021c3c09e" x="89.32472" y="498.896185" style="fill: #1f77b4; stroke: #1f77b4"/>
     <use xlink:href="#mb021c3c09e" x="94.005557" y="496.116393" style="fill: #1f77b4; stroke: #1f77b4"/>
     <use xlink:href="#mb021c3c09e" x="100.677619" y="488.05935" style="fill: #1f77b4; stroke: #1f77b4"/>
     <use xlink:href="#mb021c3c09e" x="84.239343" y="498.727254" style="fill: #1f77b4; stroke: #1f77b4"/>
     <use xlink:href="#mb021c3c09e" x="89.715421" y="498.542423" style="fill: #1f77b4; stroke: #1f77b4"/>
     <use xlink:href="#mb021c3c09e" x="93.668701" y="494.00043" style="fill: #1f77b4; stroke: #1f77b4"/>
     <use xlink:href="#mb021c3c09e" x="79.097541" y="497.850595" style="fill: #1f77b4; stroke: #1f77b4"/>
     <use xlink:href="#mb021c3c09e" x="97.947541" y="496.936431" style="fill: #1f77b4; stroke: #1f77b4"/>
     <use xlink:href="#mb021c3c09e" x="88.09481" y="500.086643" style="fill: #1f77b4; stroke: #1f77b4"/>
     <use xlink:href="#mb021c3c09e" x="83.06877" y="499.505746" style="fill: #1f77b4; stroke: #1f77b4"/>
     <use xlink:href="#mb021c3c09e" x="75.68546" y="493.576056" style="fill: #1f77b4; stroke: #1f77b4"/>
     <use xlink:href="#mb021c3c09e" x="80.836457" y="496.530631" style="fill: #1f77b4; stroke: #1f77b4"/>
     <use xlink:href="#mb021c3c09e" x="89.35472" y="498.166778" style="fill: #1f77b4; stroke: #1f77b4"/>
     <use xlink:href="#mb021c3c09e" x="99.536548" y="499.431657" style="fill: #1f77b4; stroke: #1f77b4"/>
     <use xlink:href="#mb021c3c09e" x="91.181664" y="494.525597" style="fill: #1f77b4; stroke: #1f77b4"/>
     <use xlink:href="#mb021c3c09e" x="86.277246" y="496.753462" style="fill: #1f77b4; stroke: #1f77b4"/>
     <use xlink:href="#mb021c3c09e" x="82.736595" y="498.28053" style="fill: #1f77b4; stroke: #1f77b4"/>
     <use xlink:href="#mb021c3c09e" x="81.879788" y="500.228758" style="fill: #1f77b4; stroke: #1f77b4"/>
     <use xlink:href="#mb021c3c09e" x="84.720099" y="499.177749" style="fill: #1f77b4; stroke: #1f77b4"/>
     <use xlink:href="#mb021c3c09e" x="85.466876" y="497.712409" style="fill: #1f77b4; stroke: #1f77b4"/>
     <use xlink:href="#mb021c3c09e" x="97.689481" y="497.308078" style="fill: #1f77b4; stroke: #1f77b4"/>
     <use xlink:href="#mb021c3c09e" x="86.015206" y="498.438694" style="fill: #1f77b4; stroke: #1f77b4"/>
     <use xlink:href="#mb021c3c09e" x="96.655549" y="498.007481" style="fill: #1f77b4; stroke: #1f77b4"/>
     <use xlink:href="#mb021c3c09e" x="84.235197" y="499.717791" style="fill: #1f77b4; stroke: #1f77b4"/>
     <use xlink:href="#mb021c3c09e" x="102.684416" y="496.156684" style="fill: #1f77b4; stroke: #1f77b4"/>
     <use xlink:href="#mb021c3c09e" x="85.513755" y="501.207499" style="fill: #1f77b4; stroke: #1f77b4"/>
     <use xlink:href="#mb021c3c09e" x="93.947455" y="497.246449" style="fill: #1f77b4; stroke: #1f77b4"/>
     <use xlink:href="#mb021c3c09e" x="86.158296" y="497.12884" style="fill: #1f77b4; stroke: #1f77b4"/>
     <use xlink:href="#mb021c3c09e" x="95.43957" y="498.076222" style="fill: #1f77b4; stroke: #1f77b4"/>
     <use xlink:href="#mb021c3c09e" x="99.929645" y="493.863494" style="fill: #1f77b4; stroke: #1f77b4"/>
     <use xlink:href="#mb021c3c09e" x="83.4835" y="496.571306" style="fill: #1f77b4; stroke: #1f77b4"/>
     <use xlink:href="#mb021c3c09e" x="95.770584" y="481.270822" style="fill: #1f77b4; stroke: #1f77b4"/>
     <use xlink:href="#mb021c3c09e" x="96.246383" y="497.793629" style="fill: #1f77b4; stroke: #1f77b4"/>
     <use xlink:href="#mb021c3c09e" x="97.468941" y="497.292204" style="fill: #1f77b4; stroke: #1f77b4"/>
     <use xlink:href="#mb021c3c09e" x="91.049667" y="482.940347" style="fill: #1f77b4; stroke: #1f77b4"/>
     <use xlink:href="#mb021c3c09e" x="80.907274" y="496.204578" style="fill: #1f77b4; stroke: #1f77b4"/>
     <use xlink:href="#mb021c3c09e" x="85.249228" y="498.515741" style="fill: #1f77b4; stroke: #1f77b4"/>
     <use xlink:href="#mb021c3c09e" x="84.798656" y="492.0116" style="fill: #1f77b4; stroke: #1f77b4"/>
     <use xlink:href="#mb021c3c09e" x="88.247611" y="500.443155" style="fill: #1f77b4; stroke: #1f77b4"/>
     <use xlink:href="#mb021c3c09e" x="84.196167" y="500.339071" style="fill: #1f77b4; stroke: #1f77b4"/>
     <use xlink:href="#mb021c3c09e" x="91.454041" y="499.431826" style="fill: #1f77b4; stroke: #1f77b4"/>
     <use xlink:href="#mb021c3c09e" x="89.568443" y="492.998672" style="fill: #1f77b4; stroke: #1f77b4"/>
     <use xlink:href="#mb021c3c09e" x="92.199638" y="496.914291" style="fill: #1f77b4; stroke: #1f77b4"/>
     <use xlink:href="#mb021c3c09e" x="92.988983" y="498.264021" style="fill: #1f77b4; stroke: #1f77b4"/>
     <use xlink:href="#mb021c3c09e" x="87.806529" y="497.890617" style="fill: #1f77b4; stroke: #1f77b4"/>
     <use xlink:href="#mb021c3c09e" x="74.405445" y="499.796652" style="fill: #1f77b4; stroke: #1f77b4"/>
     <use xlink:href="#mb021c3c09e" x="86.603395" y="497.363671" style="fill: #1f77b4; stroke: #1f77b4"/>
     <use xlink:href="#mb021c3c09e" x="79.130324" y="496.444591" style="fill: #1f77b4; stroke: #1f77b4"/>
     <use xlink:href="#mb021c3c09e" x="82.246017" y="499.601972" style="fill: #1f77b4; stroke: #1f77b4"/>
     <use xlink:href="#mb021c3c09e" x="84.032899" y="495.646406" style="fill: #1f77b4; stroke: #1f77b4"/>
     <use xlink:href="#mb021c3c09e" x="92.518711" y="499.688386" style="fill: #1f77b4; stroke: #1f77b4"/>
     <use xlink:href="#mb021c3c09e" x="80.960732" y="494.525134" style="fill: #1f77b4; stroke: #1f77b4"/>
     <use xlink:href="#mb021c3c09e" x="88.024048" y="499.863883" style="fill: #1f77b4; stroke: #1f77b4"/>
     <use xlink:href="#mb021c3c09e" x="87.949251" y="498.271489" style="fill: #1f77b4; stroke: #1f77b4"/>
     <use xlink:href="#mb021c3c09e" x="103.131468" y="497.794529" style="fill: #1f77b4; stroke: #1f77b4"/>
     <use xlink:href="#mb021c3c09e" x="98.375502" y="497.662839" style="fill: #1f77b4; stroke: #1f77b4"/>
     <use xlink:href="#mb021c3c09e" x="92.131622" y="495.444423" style="fill: #1f77b4; stroke: #1f77b4"/>
     <use xlink:href="#mb021c3c09e" x="75.059402" y="494.100862" style="fill: #1f77b4; stroke: #1f77b4"/>
     <use xlink:href="#mb021c3c09e" x="93.503775" y="497.271405" style="fill: #1f77b4; stroke: #1f77b4"/>
     <use xlink:href="#mb021c3c09e" x="81.098865" y="499.22146" style="fill: #1f77b4; stroke: #1f77b4"/>
     <use xlink:href="#mb021c3c09e" x="76.459361" y="497.56015" style="fill: #1f77b4; stroke: #1f77b4"/>
     <use xlink:href="#mb021c3c09e" x="90.964974" y="497.985747" style="fill: #1f77b4; stroke: #1f77b4"/>
     <use xlink:href="#mb021c3c09e" x="79.863335" y="493.942427" style="fill: #1f77b4; stroke: #1f77b4"/>
     <use xlink:href="#mb021c3c09e" x="96.427526" y="495.836632" style="fill: #1f77b4; stroke: #1f77b4"/>
     <use xlink:href="#mb021c3c09e" x="90.939784" y="497.872283" style="fill: #1f77b4; stroke: #1f77b4"/>
     <use xlink:href="#mb021c3c09e" x="94.99683" y="494.473713" style="fill: #1f77b4; stroke: #1f77b4"/>
     <use xlink:href="#mb021c3c09e" x="80.44922" y="497.89375" style="fill: #1f77b4; stroke: #1f77b4"/>
     <use xlink:href="#mb021c3c09e" x="91.243875" y="498.674151" style="fill: #1f77b4; stroke: #1f77b4"/>
     <use xlink:href="#mb021c3c09e" x="95.305878" y="498.483813" style="fill: #1f77b4; stroke: #1f77b4"/>
     <use xlink:href="#mb021c3c09e" x="81.05521" y="497.906329" style="fill: #1f77b4; stroke: #1f77b4"/>
     <use xlink:href="#mb021c3c09e" x="102.100263" y="495.557808" style="fill: #1f77b4; stroke: #1f77b4"/>
     <use xlink:href="#mb021c3c09e" x="85.765918" y="497.502491" style="fill: #1f77b4; stroke: #1f77b4"/>
     <use xlink:href="#mb021c3c09e" x="89.022121" y="501.387042" style="fill: #1f77b4; stroke: #1f77b4"/>
     <use xlink:href="#mb021c3c09e" x="87.034618" y="495.964397" style="fill: #1f77b4; stroke: #1f77b4"/>
     <use xlink:href="#mb021c3c09e" x="80.158083" y="498.683178" style="fill: #1f77b4; stroke: #1f77b4"/>
     <use xlink:href="#mb021c3c09e" x="89.622454" y="499.286109" style="fill: #1f77b4; stroke: #1f77b4"/>
     <use xlink:href="#mb021c3c09e" x="93.927534" y="495.201893" style="fill: #1f77b4; stroke: #1f77b4"/>
     <use xlink:href="#mb021c3c09e" x="96.271261" y="500.075234" style="fill: #1f77b4; stroke: #1f77b4"/>
     <use xlink:href="#mb021c3c09e" x="84.538109" y="495.431961" style="fill: #1f77b4; stroke: #1f77b4"/>
     <use xlink:href="#mb021c3c09e" x="90.543739" y="497.182072" style="fill: #1f77b4; stroke: #1f77b4"/>
     <use xlink:href="#mb021c3c09e" x="81.521575" y="494.195214" style="fill: #1f77b4; stroke: #1f77b4"/>
     <use xlink:href="#mb021c3c09e" x="87.13046" y="497.124768" style="fill: #1f77b4; stroke: #1f77b4"/>
     <use xlink:href="#mb021c3c09e" x="78.500415" y="500.960156" style="fill: #1f77b4; stroke: #1f77b4"/>
     <use xlink:href="#mb021c3c09e" x="84.429534" y="497.672877" style="fill: #1f77b4; stroke: #1f77b4"/>
     <use xlink:href="#mb021c3c09e" x="103.413078" y="492.569875" style="fill: #1f77b4; stroke: #1f77b4"/>
     <use xlink:href="#mb021c3c09e" x="88.77217" y="495.981794" style="fill: #1f77b4; stroke: #1f77b4"/>
     <use xlink:href="#mb021c3c09e" x="83.891892" y="500.243805" style="fill: #1f77b4; stroke: #1f77b4"/>
     <use xlink:href="#mb021c3c09e" x="79.093506" y="500.846271" style="fill: #1f77b4; stroke: #1f77b4"/>
     <use xlink:href="#mb021c3c09e" x="87.495841" y="497.330231" style="fill: #1f77b4; stroke: #1f77b4"/>
     <use xlink:href="#mb021c3c09e" x="85.000014" y="499.88207" style="fill: #1f77b4; stroke: #1f77b4"/>
     <use xlink:href="#mb021c3c09e" x="68.766818" y="498.420412" style="fill: #1f77b4; stroke: #1f77b4"/>
     <use xlink:href="#mb021c3c09e" x="86.966786" y="499.054548" style="fill: #1f77b4; stroke: #1f77b4"/>
     <use xlink:href="#mb021c3c09e" x="93.344339" y="498.242047" style="fill: #1f77b4; stroke: #1f77b4"/>
     <use xlink:href="#mb021c3c09e" x="85.497613" y="499.05568" style="fill: #1f77b4; stroke: #1f77b4"/>
     <use xlink:href="#mb021c3c09e" x="94.737757" y="496.71362" style="fill: #1f77b4; stroke: #1f77b4"/>
     <use xlink:href="#mb021c3c09e" x="90.751325" y="494.532419" style="fill: #1f77b4; stroke: #1f77b4"/>
     <use xlink:href="#mb021c3c09e" x="79.290625" y="500.499861" style="fill: #1f77b4; stroke: #1f77b4"/>
     <use xlink:href="#mb021c3c09e" x="104.702711" y="492.176563" style="fill: #1f77b4; stroke: #1f77b4"/>
     <use xlink:href="#mb021c3c09e" x="75.497406" y="496.368193" style="fill: #1f77b4; stroke: #1f77b4"/>
     <use xlink:href="#mb021c3c09e" x="98.741031" y="497.720804" style="fill: #1f77b4; stroke: #1f77b4"/>
     <use xlink:href="#mb021c3c09e" x="95.48973" y="492.563963" style="fill: #1f77b4; stroke: #1f77b4"/>
     <use xlink:href="#mb021c3c09e" x="86.047583" y="498.723425" style="fill: #1f77b4; stroke: #1f77b4"/>
     <use xlink:href="#mb021c3c09e" x="83.049845" y="494.519088" style="fill: #1f77b4; stroke: #1f77b4"/>
     <use xlink:href="#mb021c3c09e" x="77.488908" y="496.998389" style="fill: #1f77b4; stroke: #1f77b4"/>
     <use xlink:href="#mb021c3c09e" x="86.410827" y="497.868911" style="fill: #1f77b4; stroke: #1f77b4"/>
     <use xlink:href="#mb021c3c09e" x="68.76726" y="499.689237" style="fill: #1f77b4; stroke: #1f77b4"/>
     <use xlink:href="#mb021c3c09e" x="74.83337" y="500.761929" style="fill: #1f77b4; stroke: #1f77b4"/>
     <use xlink:href="#mb021c3c09e" x="88.888558" y="493.736501" style="fill: #1f77b4; stroke: #1f77b4"/>
     <use xlink:href="#mb021c3c09e" x="78.785544" y="498.588991" style="fill: #1f77b4; stroke: #1f77b4"/>
     <use xlink:href="#mb021c3c09e" x="82.248744" y="497.493037" style="fill: #1f77b4; stroke: #1f77b4"/>
     <use xlink:href="#mb021c3c09e" x="97.322552" y="495.202129" style="fill: #1f77b4; stroke: #1f77b4"/>
     <use xlink:href="#mb021c3c09e" x="87.496597" y="493.053153" style="fill: #1f77b4; stroke: #1f77b4"/>
     <use xlink:href="#mb021c3c09e" x="678.703182" y="54.894963" style="fill: #1f77b4; stroke: #1f77b4"/>
     <use xlink:href="#mb021c3c09e" x="88.080952" y="497.951449" style="fill: #1f77b4; stroke: #1f77b4"/>
     <use xlink:href="#mb021c3c09e" x="93.884506" y="495.347598" style="fill: #1f77b4; stroke: #1f77b4"/>
     <use xlink:href="#mb021c3c09e" x="92.926403" y="497.620474" style="fill: #1f77b4; stroke: #1f77b4"/>
     <use xlink:href="#mb021c3c09e" x="98.848169" y="489.76214" style="fill: #1f77b4; stroke: #1f77b4"/>
     <use xlink:href="#mb021c3c09e" x="82.556705" y="497.513618" style="fill: #1f77b4; stroke: #1f77b4"/>
     <use xlink:href="#mb021c3c09e" x="88.916476" y="499.896716" style="fill: #1f77b4; stroke: #1f77b4"/>
     <use xlink:href="#mb021c3c09e" x="98.952285" y="493.236988" style="fill: #1f77b4; stroke: #1f77b4"/>
     <use xlink:href="#mb021c3c09e" x="100.248736" y="492.462441" style="fill: #1f77b4; stroke: #1f77b4"/>
     <use xlink:href="#mb021c3c09e" x="83.005177" y="497.650575" style="fill: #1f77b4; stroke: #1f77b4"/>
     <use xlink:href="#mb021c3c09e" x="94.22466" y="494.411259" style="fill: #1f77b4; stroke: #1f77b4"/>
     <use xlink:href="#mb021c3c09e" x="74.739481" y="497.741806" style="fill: #1f77b4; stroke: #1f77b4"/>
     <use xlink:href="#mb021c3c09e" x="78.958008" y="499.469857" style="fill: #1f77b4; stroke: #1f77b4"/>
     <use xlink:href="#mb021c3c09e" x="87.177579" y="499.847481" style="fill: #1f77b4; stroke: #1f77b4"/>
     <use xlink:href="#mb021c3c09e" x="83.657641" y="496.548121" style="fill: #1f77b4; stroke: #1f77b4"/>
     <use xlink:href="#mb021c3c09e" x="97.812909" y="500.070417" style="fill: #1f77b4; stroke: #1f77b4"/>
     <use xlink:href="#mb021c3c09e" x="97.525513" y="478.663091" style="fill: #1f77b4; stroke: #1f77b4"/>
     <use xlink:href="#mb021c3c09e" x="87.240877" y="499.814885" style="fill: #1f77b4; stroke: #1f77b4"/>
     <use xlink:href="#mb021c3c09e" x="94.12786" y="492.281106" style="fill: #1f77b4; stroke: #1f77b4"/>
     <use xlink:href="#mb021c3c09e" x="85.451581" y="498.512228" style="fill: #1f77b4; stroke: #1f77b4"/>
     <use xlink:href="#mb021c3c09e" x="87.887095" y="499.822448" style="fill: #1f77b4; stroke: #1f77b4"/>
     <use xlink:href="#mb021c3c09e" x="89.89133" y="498.926936" style="fill: #1f77b4; stroke: #1f77b4"/>
     <use xlink:href="#mb021c3c09e" x="84.252832" y="496.326879" style="fill: #1f77b4; stroke: #1f77b4"/>
     <use xlink:href="#mb021c3c09e" x="101.258861" y="498.122486" style="fill: #1f77b4; stroke: #1f77b4"/>
     <use xlink:href="#mb021c3c09e" x="80.99005" y="492.385316" style="fill: #1f77b4; stroke: #1f77b4"/>
     <use xlink:href="#mb021c3c09e" x="77.349172" y="496.636954" style="fill: #1f77b4; stroke: #1f77b4"/>
     <use xlink:href="#mb021c3c09e" x="91.997101" y="497.548521" style="fill: #1f77b4; stroke: #1f77b4"/>
     <use xlink:href="#mb021c3c09e" x="84.066124" y="496.627266" style="fill: #1f77b4; stroke: #1f77b4"/>
     <use xlink:href="#mb021c3c09e" x="98.014175" y="496.959327" style="fill: #1f77b4; stroke: #1f77b4"/>
     <use xlink:href="#mb021c3c09e" x="86.793659" y="499.689553" style="fill: #1f77b4; stroke: #1f77b4"/>
     <use xlink:href="#mb021c3c09e" x="87.501719" y="496.935903" style="fill: #1f77b4; stroke: #1f77b4"/>
     <use xlink:href="#mb021c3c09e" x="83.037222" y="497.643271" style="fill: #1f77b4; stroke: #1f77b4"/>
     <use xlink:href="#mb021c3c09e" x="86.10235" y="495.336996" style="fill: #1f77b4; stroke: #1f77b4"/>
     <use xlink:href="#mb021c3c09e" x="95.934774" y="496.348152" style="fill: #1f77b4; stroke: #1f77b4"/>
     <use xlink:href="#mb021c3c09e" x="84.909479" y="497.621461" style="fill: #1f77b4; stroke: #1f77b4"/>
     <use xlink:href="#mb021c3c09e" x="85.286433" y="496.191984" style="fill: #1f77b4; stroke: #1f77b4"/>
     <use xlink:href="#mb021c3c09e" x="84.953282" y="499.208094" style="fill: #1f77b4; stroke: #1f77b4"/>
     <use xlink:href="#mb021c3c09e" x="91.865105" y="499.922941" style="fill: #1f77b4; stroke: #1f77b4"/>
     <use xlink:href="#mb021c3c09e" x="77.092845" y="499.835511" style="fill: #1f77b4; stroke: #1f77b4"/>
     <use xlink:href="#mb021c3c09e" x="92.253539" y="499.496898" style="fill: #1f77b4; stroke: #1f77b4"/>
     <use xlink:href="#mb021c3c09e" x="84.54325" y="492.931482" style="fill: #1f77b4; stroke: #1f77b4"/>
     <use xlink:href="#mb021c3c09e" x="83.855626" y="494.421891" style="fill: #1f77b4; stroke: #1f77b4"/>
     <use xlink:href="#mb021c3c09e" x="87.56957" y="497.560698" style="fill: #1f77b4; stroke: #1f77b4"/>
     <use xlink:href="#mb021c3c09e" x="86.706995" y="497.499792" style="fill: #1f77b4; stroke: #1f77b4"/>
     <use xlink:href="#mb021c3c09e" x="94.150545" y="488.734294" style="fill: #1f77b4; stroke: #1f77b4"/>
     <use xlink:href="#mb021c3c09e" x="88.021303" y="500.38927" style="fill: #1f77b4; stroke: #1f77b4"/>
     <use xlink:href="#mb021c3c09e" x="82.146434" y="497.698173" style="fill: #1f77b4; stroke: #1f77b4"/>
     <use xlink:href="#mb021c3c09e" x="81.592023" y="497.302203" style="fill: #1f77b4; stroke: #1f77b4"/>
     <use xlink:href="#mb021c3c09e" x="87.981057" y="483.030948" style="fill: #1f77b4; stroke: #1f77b4"/>
     <use xlink:href="#mb021c3c09e" x="84.726088" y="499.956475" style="fill: #1f77b4; stroke: #1f77b4"/>
     <use xlink:href="#mb021c3c09e" x="83.568894" y="500.03436" style="fill: #1f77b4; stroke: #1f77b4"/>
     <use xlink:href="#mb021c3c09e" x="83.414987" y="499.35162" style="fill: #1f77b4; stroke: #1f77b4"/>
     <use xlink:href="#mb021c3c09e" x="97.498978" y="499.464088" style="fill: #1f77b4; stroke: #1f77b4"/>
     <use xlink:href="#mb021c3c09e" x="88.074061" y="501.733294" style="fill: #1f77b4; stroke: #1f77b4"/>
     <use xlink:href="#mb021c3c09e" x="84.004724" y="496.956257" style="fill: #1f77b4; stroke: #1f77b4"/>
     <use xlink:href="#mb021c3c09e" x="91.112892" y="501.425933" style="fill: #1f77b4; stroke: #1f77b4"/>
     <use xlink:href="#mb021c3c09e" x="79.719803" y="500.82037" style="fill: #1f77b4; stroke: #1f77b4"/>
     <use xlink:href="#mb021c3c09e" x="82.719163" y="495.884333" style="fill: #1f77b4; stroke: #1f77b4"/>
     <use xlink:href="#mb021c3c09e" x="81.264271" y="500.184916" style="fill: #1f77b4; stroke: #1f77b4"/>
     <use xlink:href="#mb021c3c09e" x="82.266471" y="499.362107" style="fill: #1f77b4; stroke: #1f77b4"/>
     <use xlink:href="#mb021c3c09e" x="90.550355" y="497.104435" style="fill: #1f77b4; stroke: #1f77b4"/>
     <use xlink:href="#mb021c3c09e" x="80.846113" y="495.264991" style="fill: #1f77b4; stroke: #1f77b4"/>
     <use xlink:href="#mb021c3c09e" x="95.42199" y="494.651031" style="fill: #1f77b4; stroke: #1f77b4"/>
     <use xlink:href="#mb021c3c09e" x="96.711274" y="495.182726" style="fill: #1f77b4; stroke: #1f77b4"/>
     <use xlink:href="#mb021c3c09e" x="97.673486" y="500.115869" style="fill: #1f77b4; stroke: #1f77b4"/>
     <use xlink:href="#mb021c3c09e" x="96.463681" y="492.061825" style="fill: #1f77b4; stroke: #1f77b4"/>
     <use xlink:href="#mb021c3c09e" x="88.746556" y="498.368528" style="fill: #1f77b4; stroke: #1f77b4"/>
     <use xlink:href="#mb021c3c09e" x="72.250528" y="498.422042" style="fill: #1f77b4; stroke: #1f77b4"/>
     <use xlink:href="#mb021c3c09e" x="91.60078" y="493.877767" style="fill: #1f77b4; stroke: #1f77b4"/>
     <use xlink:href="#mb021c3c09e" x="93.707215" y="495.60924" style="fill: #1f77b4; stroke: #1f77b4"/>
     <use xlink:href="#mb021c3c09e" x="91.033322" y="496.005613" style="fill: #1f77b4; stroke: #1f77b4"/>
     <use xlink:href="#mb021c3c09e" x="100.537975" y="494.356344" style="fill: #1f77b4; stroke: #1f77b4"/>
     <use xlink:href="#mb021c3c09e" x="82.624371" y="498.950516" style="fill: #1f77b4; stroke: #1f77b4"/>
    </g>
   </g>
   <g id="matplotlib.axis_1">
    <g id="xtick_1">
     <g id="line2d_1">
      <defs>
       <path id="mf665db9b9d" d="M 0 0 
L 0 3.5 
" style="stroke: #000000; stroke-width: 0.8"/>
      </defs>
      <g>
       <use xlink:href="#mf665db9b9d" x="157.841443" y="534.04" style="stroke: #000000; stroke-width: 0.8"/>
      </g>
     </g>
     <g id="text_1">
      <!-- 0.15 -->
      <g transform="translate(146.708631 548.638438) scale(0.1 -0.1)">
       <defs>
        <path id="DejaVuSans-30" d="M 2034 4250 
Q 1547 4250 1301 3770 
Q 1056 3291 1056 2328 
Q 1056 1369 1301 889 
Q 1547 409 2034 409 
Q 2525 409 2770 889 
Q 3016 1369 3016 2328 
Q 3016 3291 2770 3770 
Q 2525 4250 2034 4250 
z
M 2034 4750 
Q 2819 4750 3233 4129 
Q 3647 3509 3647 2328 
Q 3647 1150 3233 529 
Q 2819 -91 2034 -91 
Q 1250 -91 836 529 
Q 422 1150 422 2328 
Q 422 3509 836 4129 
Q 1250 4750 2034 4750 
z
" transform="scale(0.015625)"/>
        <path id="DejaVuSans-2e" d="M 684 794 
L 1344 794 
L 1344 0 
L 684 0 
L 684 794 
z
" transform="scale(0.015625)"/>
        <path id="DejaVuSans-31" d="M 794 531 
L 1825 531 
L 1825 4091 
L 703 3866 
L 703 4441 
L 1819 4666 
L 2450 4666 
L 2450 531 
L 3481 531 
L 3481 0 
L 794 0 
L 794 531 
z
" transform="scale(0.015625)"/>
        <path id="DejaVuSans-35" d="M 691 4666 
L 3169 4666 
L 3169 4134 
L 1269 4134 
L 1269 2991 
Q 1406 3038 1543 3061 
Q 1681 3084 1819 3084 
Q 2600 3084 3056 2656 
Q 3513 2228 3513 1497 
Q 3513 744 3044 326 
Q 2575 -91 1722 -91 
Q 1428 -91 1123 -41 
Q 819 9 494 109 
L 494 744 
Q 775 591 1075 516 
Q 1375 441 1709 441 
Q 2250 441 2565 725 
Q 2881 1009 2881 1497 
Q 2881 1984 2565 2268 
Q 2250 2553 1709 2553 
Q 1456 2553 1204 2497 
Q 953 2441 691 2322 
L 691 4666 
z
" transform="scale(0.015625)"/>
       </defs>
       <use xlink:href="#DejaVuSans-30"/>
       <use xlink:href="#DejaVuSans-2e" x="63.623047"/>
       <use xlink:href="#DejaVuSans-31" x="95.410156"/>
       <use xlink:href="#DejaVuSans-35" x="159.033203"/>
      </g>
     </g>
    </g>
    <g id="xtick_2">
     <g id="line2d_2">
      <g>
       <use xlink:href="#mf665db9b9d" x="281.506625" y="534.04" style="stroke: #000000; stroke-width: 0.8"/>
      </g>
     </g>
     <g id="text_2">
      <!-- 0.20 -->
      <g transform="translate(270.373813 548.638438) scale(0.1 -0.1)">
       <defs>
        <path id="DejaVuSans-32" d="M 1228 531 
L 3431 531 
L 3431 0 
L 469 0 
L 469 531 
Q 828 903 1448 1529 
Q 2069 2156 2228 2338 
Q 2531 2678 2651 2914 
Q 2772 3150 2772 3378 
Q 2772 3750 2511 3984 
Q 2250 4219 1831 4219 
Q 1534 4219 1204 4116 
Q 875 4013 500 3803 
L 500 4441 
Q 881 4594 1212 4672 
Q 1544 4750 1819 4750 
Q 2544 4750 2975 4387 
Q 3406 4025 3406 3419 
Q 3406 3131 3298 2873 
Q 3191 2616 2906 2266 
Q 2828 2175 2409 1742 
Q 1991 1309 1228 531 
z
" transform="scale(0.015625)"/>
       </defs>
       <use xlink:href="#DejaVuSans-30"/>
       <use xlink:href="#DejaVuSans-2e" x="63.623047"/>
       <use xlink:href="#DejaVuSans-32" x="95.410156"/>
       <use xlink:href="#DejaVuSans-30" x="159.033203"/>
      </g>
     </g>
    </g>
    <g id="xtick_3">
     <g id="line2d_3">
      <g>
       <use xlink:href="#mf665db9b9d" x="405.171807" y="534.04" style="stroke: #000000; stroke-width: 0.8"/>
      </g>
     </g>
     <g id="text_3">
      <!-- 0.25 -->
      <g transform="translate(394.038995 548.638438) scale(0.1 -0.1)">
       <use xlink:href="#DejaVuSans-30"/>
       <use xlink:href="#DejaVuSans-2e" x="63.623047"/>
       <use xlink:href="#DejaVuSans-32" x="95.410156"/>
       <use xlink:href="#DejaVuSans-35" x="159.033203"/>
      </g>
     </g>
    </g>
    <g id="xtick_4">
     <g id="line2d_4">
      <g>
       <use xlink:href="#mf665db9b9d" x="528.836989" y="534.04" style="stroke: #000000; stroke-width: 0.8"/>
      </g>
     </g>
     <g id="text_4">
      <!-- 0.30 -->
      <g transform="translate(517.704177 548.638438) scale(0.1 -0.1)">
       <defs>
        <path id="DejaVuSans-33" d="M 2597 2516 
Q 3050 2419 3304 2112 
Q 3559 1806 3559 1356 
Q 3559 666 3084 287 
Q 2609 -91 1734 -91 
Q 1441 -91 1130 -33 
Q 819 25 488 141 
L 488 750 
Q 750 597 1062 519 
Q 1375 441 1716 441 
Q 2309 441 2620 675 
Q 2931 909 2931 1356 
Q 2931 1769 2642 2001 
Q 2353 2234 1838 2234 
L 1294 2234 
L 1294 2753 
L 1863 2753 
Q 2328 2753 2575 2939 
Q 2822 3125 2822 3475 
Q 2822 3834 2567 4026 
Q 2313 4219 1838 4219 
Q 1578 4219 1281 4162 
Q 984 4106 628 3988 
L 628 4550 
Q 988 4650 1302 4700 
Q 1616 4750 1894 4750 
Q 2613 4750 3031 4423 
Q 3450 4097 3450 3541 
Q 3450 3153 3228 2886 
Q 3006 2619 2597 2516 
z
" transform="scale(0.015625)"/>
       </defs>
       <use xlink:href="#DejaVuSans-30"/>
       <use xlink:href="#DejaVuSans-2e" x="63.623047"/>
       <use xlink:href="#DejaVuSans-33" x="95.410156"/>
       <use xlink:href="#DejaVuSans-30" x="159.033203"/>
      </g>
     </g>
    </g>
    <g id="xtick_5">
     <g id="line2d_5">
      <g>
       <use xlink:href="#mf665db9b9d" x="652.502172" y="534.04" style="stroke: #000000; stroke-width: 0.8"/>
      </g>
     </g>
     <g id="text_5">
      <!-- 0.35 -->
      <g transform="translate(641.369359 548.638438) scale(0.1 -0.1)">
       <use xlink:href="#DejaVuSans-30"/>
       <use xlink:href="#DejaVuSans-2e" x="63.623047"/>
       <use xlink:href="#DejaVuSans-33" x="95.410156"/>
       <use xlink:href="#DejaVuSans-35" x="159.033203"/>
      </g>
     </g>
    </g>
    <g id="text_6">
     <!-- Uncertainties -->
     <g transform="translate(340.413125 562.316563) scale(0.1 -0.1)">
      <defs>
       <path id="DejaVuSans-55" d="M 556 4666 
L 1191 4666 
L 1191 1831 
Q 1191 1081 1462 751 
Q 1734 422 2344 422 
Q 2950 422 3222 751 
Q 3494 1081 3494 1831 
L 3494 4666 
L 4128 4666 
L 4128 1753 
Q 4128 841 3676 375 
Q 3225 -91 2344 -91 
Q 1459 -91 1007 375 
Q 556 841 556 1753 
L 556 4666 
z
" transform="scale(0.015625)"/>
       <path id="DejaVuSans-6e" d="M 3513 2113 
L 3513 0 
L 2938 0 
L 2938 2094 
Q 2938 2591 2744 2837 
Q 2550 3084 2163 3084 
Q 1697 3084 1428 2787 
Q 1159 2491 1159 1978 
L 1159 0 
L 581 0 
L 581 3500 
L 1159 3500 
L 1159 2956 
Q 1366 3272 1645 3428 
Q 1925 3584 2291 3584 
Q 2894 3584 3203 3211 
Q 3513 2838 3513 2113 
z
" transform="scale(0.015625)"/>
       <path id="DejaVuSans-63" d="M 3122 3366 
L 3122 2828 
Q 2878 2963 2633 3030 
Q 2388 3097 2138 3097 
Q 1578 3097 1268 2742 
Q 959 2388 959 1747 
Q 959 1106 1268 751 
Q 1578 397 2138 397 
Q 2388 397 2633 464 
Q 2878 531 3122 666 
L 3122 134 
Q 2881 22 2623 -34 
Q 2366 -91 2075 -91 
Q 1284 -91 818 406 
Q 353 903 353 1747 
Q 353 2603 823 3093 
Q 1294 3584 2113 3584 
Q 2378 3584 2631 3529 
Q 2884 3475 3122 3366 
z
" transform="scale(0.015625)"/>
       <path id="DejaVuSans-65" d="M 3597 1894 
L 3597 1613 
L 953 1613 
Q 991 1019 1311 708 
Q 1631 397 2203 397 
Q 2534 397 2845 478 
Q 3156 559 3463 722 
L 3463 178 
Q 3153 47 2828 -22 
Q 2503 -91 2169 -91 
Q 1331 -91 842 396 
Q 353 884 353 1716 
Q 353 2575 817 3079 
Q 1281 3584 2069 3584 
Q 2775 3584 3186 3129 
Q 3597 2675 3597 1894 
z
M 3022 2063 
Q 3016 2534 2758 2815 
Q 2500 3097 2075 3097 
Q 1594 3097 1305 2825 
Q 1016 2553 972 2059 
L 3022 2063 
z
" transform="scale(0.015625)"/>
       <path id="DejaVuSans-72" d="M 2631 2963 
Q 2534 3019 2420 3045 
Q 2306 3072 2169 3072 
Q 1681 3072 1420 2755 
Q 1159 2438 1159 1844 
L 1159 0 
L 581 0 
L 581 3500 
L 1159 3500 
L 1159 2956 
Q 1341 3275 1631 3429 
Q 1922 3584 2338 3584 
Q 2397 3584 2469 3576 
Q 2541 3569 2628 3553 
L 2631 2963 
z
" transform="scale(0.015625)"/>
       <path id="DejaVuSans-74" d="M 1172 4494 
L 1172 3500 
L 2356 3500 
L 2356 3053 
L 1172 3053 
L 1172 1153 
Q 1172 725 1289 603 
Q 1406 481 1766 481 
L 2356 481 
L 2356 0 
L 1766 0 
Q 1100 0 847 248 
Q 594 497 594 1153 
L 594 3053 
L 172 3053 
L 172 3500 
L 594 3500 
L 594 4494 
L 1172 4494 
z
" transform="scale(0.015625)"/>
       <path id="DejaVuSans-61" d="M 2194 1759 
Q 1497 1759 1228 1600 
Q 959 1441 959 1056 
Q 959 750 1161 570 
Q 1363 391 1709 391 
Q 2188 391 2477 730 
Q 2766 1069 2766 1631 
L 2766 1759 
L 2194 1759 
z
M 3341 1997 
L 3341 0 
L 2766 0 
L 2766 531 
Q 2569 213 2275 61 
Q 1981 -91 1556 -91 
Q 1019 -91 701 211 
Q 384 513 384 1019 
Q 384 1609 779 1909 
Q 1175 2209 1959 2209 
L 2766 2209 
L 2766 2266 
Q 2766 2663 2505 2880 
Q 2244 3097 1772 3097 
Q 1472 3097 1187 3025 
Q 903 2953 641 2809 
L 641 3341 
Q 956 3463 1253 3523 
Q 1550 3584 1831 3584 
Q 2591 3584 2966 3190 
Q 3341 2797 3341 1997 
z
" transform="scale(0.015625)"/>
       <path id="DejaVuSans-69" d="M 603 3500 
L 1178 3500 
L 1178 0 
L 603 0 
L 603 3500 
z
M 603 4863 
L 1178 4863 
L 1178 4134 
L 603 4134 
L 603 4863 
z
" transform="scale(0.015625)"/>
       <path id="DejaVuSans-73" d="M 2834 3397 
L 2834 2853 
Q 2591 2978 2328 3040 
Q 2066 3103 1784 3103 
Q 1356 3103 1142 2972 
Q 928 2841 928 2578 
Q 928 2378 1081 2264 
Q 1234 2150 1697 2047 
L 1894 2003 
Q 2506 1872 2764 1633 
Q 3022 1394 3022 966 
Q 3022 478 2636 193 
Q 2250 -91 1575 -91 
Q 1294 -91 989 -36 
Q 684 19 347 128 
L 347 722 
Q 666 556 975 473 
Q 1284 391 1588 391 
Q 1994 391 2212 530 
Q 2431 669 2431 922 
Q 2431 1156 2273 1281 
Q 2116 1406 1581 1522 
L 1381 1569 
Q 847 1681 609 1914 
Q 372 2147 372 2553 
Q 372 3047 722 3315 
Q 1072 3584 1716 3584 
Q 2034 3584 2315 3537 
Q 2597 3491 2834 3397 
z
" transform="scale(0.015625)"/>
      </defs>
      <use xlink:href="#DejaVuSans-55"/>
      <use xlink:href="#DejaVuSans-6e" x="73.193359"/>
      <use xlink:href="#DejaVuSans-63" x="136.572266"/>
      <use xlink:href="#DejaVuSans-65" x="191.552734"/>
      <use xlink:href="#DejaVuSans-72" x="253.076172"/>
      <use xlink:href="#DejaVuSans-74" x="294.189453"/>
      <use xlink:href="#DejaVuSans-61" x="333.398438"/>
      <use xlink:href="#DejaVuSans-69" x="394.677734"/>
      <use xlink:href="#DejaVuSans-6e" x="422.460938"/>
      <use xlink:href="#DejaVuSans-74" x="485.839844"/>
      <use xlink:href="#DejaVuSans-69" x="525.048828"/>
      <use xlink:href="#DejaVuSans-65" x="552.832031"/>
      <use xlink:href="#DejaVuSans-73" x="614.355469"/>
     </g>
    </g>
   </g>
   <g id="matplotlib.axis_2">
    <g id="ytick_1">
     <g id="line2d_6">
      <defs>
       <path id="m43868146a7" d="M 0 0 
L -3.5 0 
" style="stroke: #000000; stroke-width: 0.8"/>
      </defs>
      <g>
       <use xlink:href="#m43868146a7" x="38.27" y="506.236079" style="stroke: #000000; stroke-width: 0.8"/>
      </g>
     </g>
     <g id="text_7">
      <!-- 0 -->
      <g transform="translate(24.9075 510.035298) scale(0.1 -0.1)">
       <use xlink:href="#DejaVuSans-30"/>
      </g>
     </g>
    </g>
    <g id="ytick_2">
     <g id="line2d_7">
      <g>
       <use xlink:href="#m43868146a7" x="38.27" y="436.97319" style="stroke: #000000; stroke-width: 0.8"/>
      </g>
     </g>
     <g id="text_8">
      <!-- 1 -->
      <g transform="translate(24.9075 440.772408) scale(0.1 -0.1)">
       <use xlink:href="#DejaVuSans-31"/>
      </g>
     </g>
    </g>
    <g id="ytick_3">
     <g id="line2d_8">
      <g>
       <use xlink:href="#m43868146a7" x="38.27" y="367.7103" style="stroke: #000000; stroke-width: 0.8"/>
      </g>
     </g>
     <g id="text_9">
      <!-- 2 -->
      <g transform="translate(24.9075 371.509519) scale(0.1 -0.1)">
       <use xlink:href="#DejaVuSans-32"/>
      </g>
     </g>
    </g>
    <g id="ytick_4">
     <g id="line2d_9">
      <g>
       <use xlink:href="#m43868146a7" x="38.27" y="298.447411" style="stroke: #000000; stroke-width: 0.8"/>
      </g>
     </g>
     <g id="text_10">
      <!-- 3 -->
      <g transform="translate(24.9075 302.24663) scale(0.1 -0.1)">
       <use xlink:href="#DejaVuSans-33"/>
      </g>
     </g>
    </g>
    <g id="ytick_5">
     <g id="line2d_10">
      <g>
       <use xlink:href="#m43868146a7" x="38.27" y="229.184521" style="stroke: #000000; stroke-width: 0.8"/>
      </g>
     </g>
     <g id="text_11">
      <!-- 4 -->
      <g transform="translate(24.9075 232.98374) scale(0.1 -0.1)">
       <defs>
        <path id="DejaVuSans-34" d="M 2419 4116 
L 825 1625 
L 2419 1625 
L 2419 4116 
z
M 2253 4666 
L 3047 4666 
L 3047 1625 
L 3713 1625 
L 3713 1100 
L 3047 1100 
L 3047 0 
L 2419 0 
L 2419 1100 
L 313 1100 
L 313 1709 
L 2253 4666 
z
" transform="scale(0.015625)"/>
       </defs>
       <use xlink:href="#DejaVuSans-34"/>
      </g>
     </g>
    </g>
    <g id="ytick_6">
     <g id="line2d_11">
      <g>
       <use xlink:href="#m43868146a7" x="38.27" y="159.921632" style="stroke: #000000; stroke-width: 0.8"/>
      </g>
     </g>
     <g id="text_12">
      <!-- 5 -->
      <g transform="translate(24.9075 163.720851) scale(0.1 -0.1)">
       <use xlink:href="#DejaVuSans-35"/>
      </g>
     </g>
    </g>
    <g id="ytick_7">
     <g id="line2d_12">
      <g>
       <use xlink:href="#m43868146a7" x="38.27" y="90.658743" style="stroke: #000000; stroke-width: 0.8"/>
      </g>
     </g>
     <g id="text_13">
      <!-- 6 -->
      <g transform="translate(24.9075 94.457961) scale(0.1 -0.1)">
       <defs>
        <path id="DejaVuSans-36" d="M 2113 2584 
Q 1688 2584 1439 2293 
Q 1191 2003 1191 1497 
Q 1191 994 1439 701 
Q 1688 409 2113 409 
Q 2538 409 2786 701 
Q 3034 994 3034 1497 
Q 3034 2003 2786 2293 
Q 2538 2584 2113 2584 
z
M 3366 4563 
L 3366 3988 
Q 3128 4100 2886 4159 
Q 2644 4219 2406 4219 
Q 1781 4219 1451 3797 
Q 1122 3375 1075 2522 
Q 1259 2794 1537 2939 
Q 1816 3084 2150 3084 
Q 2853 3084 3261 2657 
Q 3669 2231 3669 1497 
Q 3669 778 3244 343 
Q 2819 -91 2113 -91 
Q 1303 -91 875 529 
Q 447 1150 447 2328 
Q 447 3434 972 4092 
Q 1497 4750 2381 4750 
Q 2619 4750 2861 4703 
Q 3103 4656 3366 4563 
z
" transform="scale(0.015625)"/>
       </defs>
       <use xlink:href="#DejaVuSans-36"/>
      </g>
     </g>
    </g>
    <g id="text_14">
     <!-- Force Errors -->
     <g transform="translate(18.827813 309.641563) rotate(-90) scale(0.1 -0.1)">
      <defs>
       <path id="DejaVuSans-46" d="M 628 4666 
L 3309 4666 
L 3309 4134 
L 1259 4134 
L 1259 2759 
L 3109 2759 
L 3109 2228 
L 1259 2228 
L 1259 0 
L 628 0 
L 628 4666 
z
" transform="scale(0.015625)"/>
       <path id="DejaVuSans-6f" d="M 1959 3097 
Q 1497 3097 1228 2736 
Q 959 2375 959 1747 
Q 959 1119 1226 758 
Q 1494 397 1959 397 
Q 2419 397 2687 759 
Q 2956 1122 2956 1747 
Q 2956 2369 2687 2733 
Q 2419 3097 1959 3097 
z
M 1959 3584 
Q 2709 3584 3137 3096 
Q 3566 2609 3566 1747 
Q 3566 888 3137 398 
Q 2709 -91 1959 -91 
Q 1206 -91 779 398 
Q 353 888 353 1747 
Q 353 2609 779 3096 
Q 1206 3584 1959 3584 
z
" transform="scale(0.015625)"/>
       <path id="DejaVuSans-20" transform="scale(0.015625)"/>
       <path id="DejaVuSans-45" d="M 628 4666 
L 3578 4666 
L 3578 4134 
L 1259 4134 
L 1259 2753 
L 3481 2753 
L 3481 2222 
L 1259 2222 
L 1259 531 
L 3634 531 
L 3634 0 
L 628 0 
L 628 4666 
z
" transform="scale(0.015625)"/>
      </defs>
      <use xlink:href="#DejaVuSans-46"/>
      <use xlink:href="#DejaVuSans-6f" x="53.894531"/>
      <use xlink:href="#DejaVuSans-72" x="115.076172"/>
      <use xlink:href="#DejaVuSans-63" x="153.939453"/>
      <use xlink:href="#DejaVuSans-65" x="208.919922"/>
      <use xlink:href="#DejaVuSans-20" x="270.443359"/>
      <use xlink:href="#DejaVuSans-45" x="302.230469"/>
      <use xlink:href="#DejaVuSans-72" x="365.414062"/>
      <use xlink:href="#DejaVuSans-72" x="404.777344"/>
      <use xlink:href="#DejaVuSans-6f" x="443.640625"/>
      <use xlink:href="#DejaVuSans-72" x="504.822266"/>
      <use xlink:href="#DejaVuSans-73" x="545.935547"/>
     </g>
    </g>
   </g>
   <g id="line2d_13">
    <path d="M 82.734863 500.333307 
L 678.703182 48.558182 
L 68.766818 510.921818 
L 82.624371 500.41708 
" clip-path="url(#p7df079e255)" style="fill: none; stroke: #ff0000; stroke-width: 1.5; stroke-linecap: square"/>
   </g>
   <g id="patch_3">
    <path d="M 38.27 534.04 
L 38.27 25.44 
" style="fill: none; stroke: #000000; stroke-width: 0.8; stroke-linejoin: miter; stroke-linecap: square"/>
   </g>
   <g id="patch_4">
    <path d="M 709.2 534.04 
L 709.2 25.44 
" style="fill: none; stroke: #000000; stroke-width: 0.8; stroke-linejoin: miter; stroke-linecap: square"/>
   </g>
   <g id="patch_5">
    <path d="M 38.27 534.04 
L 709.2 534.04 
" style="fill: none; stroke: #000000; stroke-width: 0.8; stroke-linejoin: miter; stroke-linecap: square"/>
   </g>
   <g id="patch_6">
    <path d="M 38.27 25.44 
L 709.2 25.44 
" style="fill: none; stroke: #000000; stroke-width: 0.8; stroke-linejoin: miter; stroke-linecap: square"/>
   </g>
   <g id="text_15">
    <!-- Uncertainty Calibration -->
    <g transform="translate(304.129375 19.44) scale(0.12 -0.12)">
     <defs>
      <path id="DejaVuSans-79" d="M 2059 -325 
Q 1816 -950 1584 -1140 
Q 1353 -1331 966 -1331 
L 506 -1331 
L 506 -850 
L 844 -850 
Q 1081 -850 1212 -737 
Q 1344 -625 1503 -206 
L 1606 56 
L 191 3500 
L 800 3500 
L 1894 763 
L 2988 3500 
L 3597 3500 
L 2059 -325 
z
" transform="scale(0.015625)"/>
      <path id="DejaVuSans-43" d="M 4122 4306 
L 4122 3641 
Q 3803 3938 3442 4084 
Q 3081 4231 2675 4231 
Q 1875 4231 1450 3742 
Q 1025 3253 1025 2328 
Q 1025 1406 1450 917 
Q 1875 428 2675 428 
Q 3081 428 3442 575 
Q 3803 722 4122 1019 
L 4122 359 
Q 3791 134 3420 21 
Q 3050 -91 2638 -91 
Q 1578 -91 968 557 
Q 359 1206 359 2328 
Q 359 3453 968 4101 
Q 1578 4750 2638 4750 
Q 3056 4750 3426 4639 
Q 3797 4528 4122 4306 
z
" transform="scale(0.015625)"/>
      <path id="DejaVuSans-6c" d="M 603 4863 
L 1178 4863 
L 1178 0 
L 603 0 
L 603 4863 
z
" transform="scale(0.015625)"/>
      <path id="DejaVuSans-62" d="M 3116 1747 
Q 3116 2381 2855 2742 
Q 2594 3103 2138 3103 
Q 1681 3103 1420 2742 
Q 1159 2381 1159 1747 
Q 1159 1113 1420 752 
Q 1681 391 2138 391 
Q 2594 391 2855 752 
Q 3116 1113 3116 1747 
z
M 1159 2969 
Q 1341 3281 1617 3432 
Q 1894 3584 2278 3584 
Q 2916 3584 3314 3078 
Q 3713 2572 3713 1747 
Q 3713 922 3314 415 
Q 2916 -91 2278 -91 
Q 1894 -91 1617 61 
Q 1341 213 1159 525 
L 1159 0 
L 581 0 
L 581 4863 
L 1159 4863 
L 1159 2969 
z
" transform="scale(0.015625)"/>
     </defs>
     <use xlink:href="#DejaVuSans-55"/>
     <use xlink:href="#DejaVuSans-6e" x="73.193359"/>
     <use xlink:href="#DejaVuSans-63" x="136.572266"/>
     <use xlink:href="#DejaVuSans-65" x="191.552734"/>
     <use xlink:href="#DejaVuSans-72" x="253.076172"/>
     <use xlink:href="#DejaVuSans-74" x="294.189453"/>
     <use xlink:href="#DejaVuSans-61" x="333.398438"/>
     <use xlink:href="#DejaVuSans-69" x="394.677734"/>
     <use xlink:href="#DejaVuSans-6e" x="422.460938"/>
     <use xlink:href="#DejaVuSans-74" x="485.839844"/>
     <use xlink:href="#DejaVuSans-79" x="525.048828"/>
     <use xlink:href="#DejaVuSans-20" x="584.228516"/>
     <use xlink:href="#DejaVuSans-43" x="616.015625"/>
     <use xlink:href="#DejaVuSans-61" x="685.839844"/>
     <use xlink:href="#DejaVuSans-6c" x="747.119141"/>
     <use xlink:href="#DejaVuSans-69" x="774.902344"/>
     <use xlink:href="#DejaVuSans-62" x="802.685547"/>
     <use xlink:href="#DejaVuSans-72" x="866.162109"/>
     <use xlink:href="#DejaVuSans-61" x="907.275391"/>
     <use xlink:href="#DejaVuSans-74" x="968.554688"/>
     <use xlink:href="#DejaVuSans-69" x="1007.763672"/>
     <use xlink:href="#DejaVuSans-6f" x="1035.546875"/>
     <use xlink:href="#DejaVuSans-6e" x="1096.728516"/>
    </g>
   </g>
   <g id="legend_1">
    <g id="patch_7">
     <path d="M 45.27 62.79625 
L 155.980938 62.79625 
Q 157.980938 62.79625 157.980938 60.79625 
L 157.980938 32.44 
Q 157.980938 30.44 155.980938 30.44 
L 45.27 30.44 
Q 43.27 30.44 43.27 32.44 
L 43.27 60.79625 
Q 43.27 62.79625 45.27 62.79625 
z
" style="fill: #ffffff; opacity: 0.8; stroke: #cccccc; stroke-linejoin: miter"/>
    </g>
    <g id="PathCollection_2">
     <g>
      <use xlink:href="#mb021c3c09e" x="57.27" y="39.413437" style="fill: #1f77b4; stroke: #1f77b4"/>
     </g>
    </g>
    <g id="text_16">
     <!-- Data -->
     <g transform="translate(75.27 42.038437) scale(0.1 -0.1)">
      <defs>
       <path id="DejaVuSans-44" d="M 1259 4147 
L 1259 519 
L 2022 519 
Q 2988 519 3436 956 
Q 3884 1394 3884 2338 
Q 3884 3275 3436 3711 
Q 2988 4147 2022 4147 
L 1259 4147 
z
M 628 4666 
L 1925 4666 
Q 3281 4666 3915 4102 
Q 4550 3538 4550 2338 
Q 4550 1131 3912 565 
Q 3275 0 1925 0 
L 628 0 
L 628 4666 
z
" transform="scale(0.015625)"/>
      </defs>
      <use xlink:href="#DejaVuSans-44"/>
      <use xlink:href="#DejaVuSans-61" x="77.001953"/>
      <use xlink:href="#DejaVuSans-74" x="138.28125"/>
      <use xlink:href="#DejaVuSans-61" x="177.490234"/>
     </g>
    </g>
    <g id="line2d_14">
     <path d="M 47.27 53.216563 
L 57.27 53.216563 
L 67.27 53.216563 
" style="fill: none; stroke: #ff0000; stroke-width: 1.5; stroke-linecap: square"/>
    </g>
    <g id="text_17">
     <!-- Regression Line -->
     <g transform="translate(75.27 56.716563) scale(0.1 -0.1)">
      <defs>
       <path id="DejaVuSans-52" d="M 2841 2188 
Q 3044 2119 3236 1894 
Q 3428 1669 3622 1275 
L 4263 0 
L 3584 0 
L 2988 1197 
Q 2756 1666 2539 1819 
Q 2322 1972 1947 1972 
L 1259 1972 
L 1259 0 
L 628 0 
L 628 4666 
L 2053 4666 
Q 2853 4666 3247 4331 
Q 3641 3997 3641 3322 
Q 3641 2881 3436 2590 
Q 3231 2300 2841 2188 
z
M 1259 4147 
L 1259 2491 
L 2053 2491 
Q 2509 2491 2742 2702 
Q 2975 2913 2975 3322 
Q 2975 3731 2742 3939 
Q 2509 4147 2053 4147 
L 1259 4147 
z
" transform="scale(0.015625)"/>
       <path id="DejaVuSans-67" d="M 2906 1791 
Q 2906 2416 2648 2759 
Q 2391 3103 1925 3103 
Q 1463 3103 1205 2759 
Q 947 2416 947 1791 
Q 947 1169 1205 825 
Q 1463 481 1925 481 
Q 2391 481 2648 825 
Q 2906 1169 2906 1791 
z
M 3481 434 
Q 3481 -459 3084 -895 
Q 2688 -1331 1869 -1331 
Q 1566 -1331 1297 -1286 
Q 1028 -1241 775 -1147 
L 775 -588 
Q 1028 -725 1275 -790 
Q 1522 -856 1778 -856 
Q 2344 -856 2625 -561 
Q 2906 -266 2906 331 
L 2906 616 
Q 2728 306 2450 153 
Q 2172 0 1784 0 
Q 1141 0 747 490 
Q 353 981 353 1791 
Q 353 2603 747 3093 
Q 1141 3584 1784 3584 
Q 2172 3584 2450 3431 
Q 2728 3278 2906 2969 
L 2906 3500 
L 3481 3500 
L 3481 434 
z
" transform="scale(0.015625)"/>
       <path id="DejaVuSans-4c" d="M 628 4666 
L 1259 4666 
L 1259 531 
L 3531 531 
L 3531 0 
L 628 0 
L 628 4666 
z
" transform="scale(0.015625)"/>
      </defs>
      <use xlink:href="#DejaVuSans-52"/>
      <use xlink:href="#DejaVuSans-65" x="64.982422"/>
      <use xlink:href="#DejaVuSans-67" x="126.505859"/>
      <use xlink:href="#DejaVuSans-72" x="189.982422"/>
      <use xlink:href="#DejaVuSans-65" x="228.845703"/>
      <use xlink:href="#DejaVuSans-73" x="290.369141"/>
      <use xlink:href="#DejaVuSans-73" x="342.46875"/>
      <use xlink:href="#DejaVuSans-69" x="394.568359"/>
      <use xlink:href="#DejaVuSans-6f" x="422.351562"/>
      <use xlink:href="#DejaVuSans-6e" x="483.533203"/>
      <use xlink:href="#DejaVuSans-20" x="546.912109"/>
      <use xlink:href="#DejaVuSans-4c" x="578.699219"/>
      <use xlink:href="#DejaVuSans-69" x="634.412109"/>
      <use xlink:href="#DejaVuSans-6e" x="662.195312"/>
      <use xlink:href="#DejaVuSans-65" x="725.574219"/>
     </g>
    </g>
   </g>
  </g>
 </g>
 <defs>
  <clipPath id="p7df079e255">
   <rect x="38.27" y="25.44" width="670.93" height="508.6"/>
  </clipPath>
 </defs>
</svg>
