<?xml version="1.0" encoding="utf-8" standalone="no"?>
<!DOCTYPE svg PUBLIC "-//W3C//DTD SVG 1.1//EN"
  "http://www.w3.org/Graphics/SVG/1.1/DTD/svg11.dtd">
<svg xmlns:xlink="http://www.w3.org/1999/xlink" width="720pt" height="576pt" viewBox="0 0 720 576" xmlns="http://www.w3.org/2000/svg" version="1.1">
 <metadata>
  <rdf:RDF xmlns:dc="http://purl.org/dc/elements/1.1/" xmlns:cc="http://creativecommons.org/ns#" xmlns:rdf="http://www.w3.org/1999/02/22-rdf-syntax-ns#">
   <cc:Work>
    <dc:type rdf:resource="http://purl.org/dc/dcmitype/StillImage"/>
    <dc:date>2024-12-08T22:01:05.582060</dc:date>
    <dc:format>image/svg+xml</dc:format>
    <dc:creator>
     <cc:Agent>
      <dc:title>Matplotlib v3.8.4, https://matplotlib.org/</dc:title>
     </cc:Agent>
    </dc:creator>
   </cc:Work>
  </rdf:RDF>
 </metadata>
 <defs>
  <style type="text/css">*{stroke-linejoin: round; stroke-linecap: butt}</style>
 </defs>
 <g id="figure_1">
  <g id="patch_1">
   <path d="M 0 576 
L 720 576 
L 720 0 
L 0 0 
z
" style="fill: #ffffff"/>
  </g>
  <g id="axes_1">
   <g id="patch_2">
    <path d="M 83.72 499.48 
L 696.24 499.48 
L 696.24 23.76 
L 83.72 23.76 
z
" style="fill: #ffffff"/>
   </g>
   <g id="QuadContourSet_1">
    <path d="M 102.40553 500.021551 
L 103.057565 500.262513 
L 103.709601 500.323401 
L 104.361637 500.233859 
L 105.013672 500.028474 
L 105.384069 499.846284 
L 105.665708 499.748557 
L 106.317744 499.423277 
L 106.945794 499.030444 
L 106.96978 499.018863 
L 107.621815 498.817063 
L 108.273851 498.651545 
L 108.925887 498.36145 
L 109.126883 498.214605 
L 109.577922 497.944845 
L 110.201022 497.398766 
L 110.229958 497.375676 
L 110.881994 496.860991 
L 111.214096 496.582926 
L 111.534029 496.336692 
L 112.142498 495.767087 
L 112.186065 495.726615 
L 112.815441 494.951248 
L 112.838101 494.917055 
L 113.288574 494.135409 
L 113.490136 493.553972 
L 113.584108 493.319569 
L 113.826328 492.50373 
L 113.982762 491.687891 
L 114.101122 490.872051 
L 114.142172 490.592475 
L 114.284886 490.056212 
L 114.50846 489.240373 
L 114.71848 488.424533 
L 114.794208 488.133644 
L 115.030934 487.608694 
L 115.32439 486.792855 
L 115.446243 486.350185 
L 115.590377 485.977015 
L 115.824599 485.161176 
L 115.976086 484.345337 
L 116.077982 483.529497 
L 116.098279 483.299634 
L 116.175378 482.713658 
L 116.242749 481.897819 
L 116.286906 481.081979 
L 116.326434 480.26614 
L 116.383311 479.450301 
L 116.477857 478.634461 
L 116.615161 477.818622 
L 116.750315 477.122868 
L 116.769873 477.002783 
L 116.869141 476.186943 
L 116.910207 475.371104 
L 116.864998 474.555265 
L 116.750315 473.921179 
L 116.702808 473.739426 
L 116.440989 472.923586 
L 116.231719 472.107747 
L 116.098468 471.291908 
L 116.098279 471.290262 
L 116.044969 470.476068 
L 115.992232 469.660229 
L 115.924369 468.84439 
L 115.833113 468.02855 
L 115.727949 467.212711 
L 115.635712 466.396872 
L 115.572823 465.581032 
L 115.522881 464.765193 
L 115.446243 463.970232 
L 115.442339 463.949354 
L 115.075915 463.133514 
L 114.794208 462.828518 
L 114.317452 462.317675 
L 114.142172 462.136846 
L 113.88816 461.501836 
L 113.569096 460.685996 
L 113.490136 460.474928 
L 113.318731 459.870157 
L 113.083693 459.054318 
L 112.843555 458.238478 
L 112.838101 458.218241 
L 112.633061 457.422639 
L 112.383014 456.6068 
L 112.186065 456.137506 
L 111.925075 455.79096 
L 111.534029 455.395937 
L 111.176966 454.975121 
L 110.881994 454.64709 
L 110.65195 454.159282 
L 110.291238 453.343442 
L 110.229958 453.196578 
L 110.02259 452.527603 
L 109.737979 451.711764 
L 109.577922 451.331404 
L 109.118559 450.895925 
L 108.925887 450.749833 
L 108.561924 450.895925 
L 108.273851 450.998323 
L 107.621815 451.600759 
L 107.496224 451.711764 
L 106.96978 452.310979 
L 106.650816 452.527603 
L 106.317744 452.844008 
L 105.665708 453.123181 
L 105.404787 453.343442 
L 105.013672 453.803192 
L 104.869362 454.159282 
L 104.669519 454.975121 
L 104.527142 455.79096 
L 104.372172 456.6068 
L 104.361637 456.649728 
L 104.238313 457.422639 
L 104.078599 458.238478 
L 103.879685 459.054318 
L 103.709601 459.630268 
L 103.663117 459.870157 
L 103.503167 460.685996 
L 103.313824 461.501836 
L 103.078246 462.317675 
L 103.057565 462.380624 
L 102.861529 463.133514 
L 102.630351 463.949354 
L 102.40553 464.765193 
L 102.40553 464.765193 
L 102.178233 465.581032 
L 101.952737 466.396872 
L 101.753494 467.106584 
L 101.721738 467.212711 
L 101.456235 468.02855 
L 101.204472 468.84439 
L 101.101458 469.213527 
L 100.965679 469.660229 
L 100.764046 470.476068 
L 100.624033 471.291908 
L 100.542226 472.107747 
L 100.494405 472.923586 
L 100.449423 473.634607 
L 100.440804 473.739426 
L 100.321046 474.555265 
L 100.164546 475.371104 
L 99.998101 476.186943 
L 99.839607 477.002783 
L 99.797387 477.222136 
L 99.638446 477.818622 
L 99.454084 478.634461 
L 99.304185 479.450301 
L 99.180317 480.26614 
L 99.145351 480.535146 
L 99.046968 481.081979 
L 98.930399 481.897819 
L 98.839368 482.713658 
L 98.767381 483.529497 
L 98.707975 484.345337 
L 98.654146 485.161176 
L 98.599853 485.977015 
L 98.542462 486.792855 
L 98.493316 487.487086 
L 98.479199 487.608694 
L 98.401872 488.424533 
L 98.359451 489.240373 
L 98.374373 490.056212 
L 98.479531 490.872051 
L 98.493316 490.925457 
L 98.657844 491.687891 
L 98.943766 492.50373 
L 99.145351 492.983228 
L 99.208931 493.319569 
L 99.352635 494.135409 
L 99.490749 494.951248 
L 99.641753 495.767087 
L 99.797387 496.424995 
L 99.826126 496.582926 
L 100.046716 497.398766 
L 100.449423 498.201658 
L 100.456897 498.214605 
L 101.097298 499.030444 
L 101.101458 499.03493 
L 101.753494 499.634021 
L 102.133445 499.846284 
z
M 102.901821 496.582926 
L 102.40553 496.205407 
L 102.074985 495.767087 
L 101.753494 495.17284 
L 101.655573 494.951248 
L 101.389679 494.135409 
L 101.227865 493.319569 
L 101.12995 492.50373 
L 101.101458 492.118153 
L 101.056927 491.687891 
L 101.003914 490.872051 
L 100.972833 490.056212 
L 100.955401 489.240373 
L 100.946727 488.424533 
L 100.946021 487.608694 
L 100.956273 486.792855 
L 100.982502 485.977015 
L 101.029738 485.161176 
L 101.101458 484.345337 
L 101.101458 484.345337 
L 101.160275 483.529497 
L 101.234954 482.713658 
L 101.322792 481.897819 
L 101.420138 481.081979 
L 101.525712 480.26614 
L 101.644653 479.450301 
L 101.753494 478.827467 
L 101.781563 478.634461 
L 101.932286 477.818622 
L 102.129788 477.002783 
L 102.373645 476.186943 
L 102.40553 476.087943 
L 102.606613 475.371104 
L 102.860855 474.555265 
L 103.057565 473.957877 
L 103.122196 473.739426 
L 103.375413 472.923586 
L 103.676389 472.107747 
L 103.709601 472.018375 
L 104.002196 471.291908 
L 104.361637 470.553066 
L 104.398016 470.476068 
L 104.780815 469.660229 
L 105.013672 469.188363 
L 105.156689 468.84439 
L 105.513934 468.02855 
L 105.665708 467.709704 
L 105.893398 467.212711 
L 106.317744 466.412999 
L 106.327705 466.396872 
L 106.851252 465.581032 
L 106.96978 465.405413 
L 107.611237 464.765193 
L 107.621815 464.754613 
L 108.273851 464.585306 
L 108.532069 464.765193 
L 108.925887 465.061024 
L 109.358154 465.581032 
L 109.577922 465.825524 
L 110.229958 466.206465 
L 110.609218 466.396872 
L 110.881994 466.533044 
L 111.346694 467.212711 
L 111.534029 467.58729 
L 111.679947 468.02855 
L 111.908202 468.84439 
L 112.105218 469.660229 
L 112.186065 470.022206 
L 112.305583 470.476068 
L 112.49862 471.291908 
L 112.661186 472.107747 
L 112.79336 472.923586 
L 112.838101 473.254663 
L 112.907412 473.739426 
L 113.001382 474.555265 
L 113.072797 475.371104 
L 113.125596 476.186943 
L 113.163903 477.002783 
L 113.192933 477.818622 
L 113.218808 478.634461 
L 113.247347 479.450301 
L 113.282226 480.26614 
L 113.323021 481.081979 
L 113.363719 481.897819 
L 113.392487 482.713658 
L 113.393631 483.529497 
L 113.352192 484.345337 
L 113.259848 485.161176 
L 113.11885 485.977015 
L 112.940772 486.792855 
L 112.838101 487.218464 
L 112.76041 487.608694 
L 112.583559 488.424533 
L 112.386467 489.240373 
L 112.186065 489.962223 
L 112.16218 490.056212 
L 111.91116 490.872051 
L 111.544858 491.687891 
L 111.534029 491.707872 
L 111.107979 492.50373 
L 110.881994 492.824707 
L 110.558969 493.319569 
L 110.229958 493.738635 
L 109.907321 494.135409 
L 109.577922 494.501197 
L 109.056225 494.951248 
L 108.925887 495.063291 
L 108.273851 495.498908 
L 107.764015 495.767087 
L 107.621815 495.851198 
L 106.96978 496.262289 
L 106.375289 496.582926 
L 106.317744 496.620243 
L 105.665708 496.938886 
L 105.013672 497.08871 
L 104.361637 497.096261 
L 103.709601 496.971398 
L 103.057565 496.694834 
z
" clip-path="url(#pee202249fc)" style="fill: #e7e7f3"/>
    <path d="M 103.057565 496.694834 
L 103.709601 496.971398 
L 104.361637 497.096261 
L 105.013672 497.08871 
L 105.665708 496.938886 
L 106.317744 496.620243 
L 106.375289 496.582926 
L 106.96978 496.262289 
L 107.621815 495.851198 
L 107.764015 495.767087 
L 108.273851 495.498908 
L 108.925887 495.063291 
L 109.056225 494.951248 
L 109.577922 494.501197 
L 109.907321 494.135409 
L 110.229958 493.738635 
L 110.558969 493.319569 
L 110.881994 492.824707 
L 111.107979 492.50373 
L 111.534029 491.707872 
L 111.544858 491.687891 
L 111.91116 490.872051 
L 112.16218 490.056212 
L 112.186065 489.962223 
L 112.386467 489.240373 
L 112.583559 488.424533 
L 112.76041 487.608694 
L 112.838101 487.218464 
L 112.940772 486.792855 
L 113.11885 485.977015 
L 113.259848 485.161176 
L 113.352192 484.345337 
L 113.393631 483.529497 
L 113.392487 482.713658 
L 113.363719 481.897819 
L 113.323021 481.081979 
L 113.282226 480.26614 
L 113.247347 479.450301 
L 113.218808 478.634461 
L 113.192933 477.818622 
L 113.163903 477.002783 
L 113.125596 476.186943 
L 113.072797 475.371104 
L 113.001382 474.555265 
L 112.907412 473.739426 
L 112.838101 473.254663 
L 112.79336 472.923586 
L 112.661186 472.107747 
L 112.49862 471.291908 
L 112.305583 470.476068 
L 112.186065 470.022206 
L 112.105218 469.660229 
L 111.908202 468.84439 
L 111.679947 468.02855 
L 111.534029 467.58729 
L 111.346694 467.212711 
L 110.881994 466.533044 
L 110.609218 466.396872 
L 110.229958 466.206465 
L 109.577922 465.825524 
L 109.358154 465.581032 
L 108.925887 465.061024 
L 108.532069 464.765193 
L 108.273851 464.585306 
L 107.621815 464.754613 
L 107.611237 464.765193 
L 106.96978 465.405413 
L 106.851252 465.581032 
L 106.327705 466.396872 
L 106.317744 466.412999 
L 105.893398 467.212711 
L 105.665708 467.709704 
L 105.513934 468.02855 
L 105.156689 468.84439 
L 105.013672 469.188363 
L 104.780815 469.660229 
L 104.398016 470.476068 
L 104.361637 470.553066 
L 104.002196 471.291908 
L 103.709601 472.018375 
L 103.676389 472.107747 
L 103.375413 472.923586 
L 103.122196 473.739426 
L 103.057565 473.957877 
L 102.860855 474.555265 
L 102.606613 475.371104 
L 102.40553 476.087943 
L 102.373645 476.186943 
L 102.129788 477.002783 
L 101.932286 477.818622 
L 101.781563 478.634461 
L 101.753494 478.827467 
L 101.644653 479.450301 
L 101.525712 480.26614 
L 101.420138 481.081979 
L 101.322792 481.897819 
L 101.234954 482.713658 
L 101.160275 483.529497 
L 101.101458 484.345337 
L 101.101458 484.345337 
L 101.029738 485.161176 
L 100.982502 485.977015 
L 100.956273 486.792855 
L 100.946021 487.608694 
L 100.946727 488.424533 
L 100.955401 489.240373 
L 100.972833 490.056212 
L 101.003914 490.872051 
L 101.056927 491.687891 
L 101.101458 492.118153 
L 101.12995 492.50373 
L 101.227865 493.319569 
L 101.389679 494.135409 
L 101.655573 494.951248 
L 101.753494 495.17284 
L 102.074985 495.767087 
L 102.40553 496.205407 
L 102.901821 496.582926 
z
M 103.415277 494.951248 
L 103.057565 494.69044 
L 102.65036 494.135409 
L 102.40553 493.646087 
L 102.28238 493.319569 
L 102.069505 492.50373 
L 101.943311 491.687891 
L 101.872623 490.872051 
L 101.8373 490.056212 
L 101.823758 489.240373 
L 101.823476 488.424533 
L 101.832685 487.608694 
L 101.852012 486.792855 
L 101.885423 485.977015 
L 101.93849 485.161176 
L 102.016484 484.345337 
L 102.122938 483.529497 
L 102.259093 482.713658 
L 102.40553 481.980279 
L 102.4193 481.897819 
L 102.558341 481.081979 
L 102.712037 480.26614 
L 102.885735 479.450301 
L 103.057565 478.746437 
L 103.079936 478.634461 
L 103.25245 477.818622 
L 103.458981 477.002783 
L 103.709601 476.186943 
L 103.709601 476.186943 
L 103.943071 475.371104 
L 104.234955 474.555265 
L 104.361637 474.248961 
L 104.570259 473.739426 
L 104.967961 472.923586 
L 105.013672 472.83646 
L 105.396381 472.107747 
L 105.665708 471.618391 
L 105.869866 471.291908 
L 106.317744 470.535724 
L 106.374262 470.476068 
L 106.96978 469.74564 
L 107.207986 469.660229 
L 107.621815 469.469694 
L 108.074224 469.660229 
L 108.273851 469.73593 
L 108.925887 470.012092 
L 109.577922 470.164825 
L 110.046795 470.476068 
L 110.229958 470.634363 
L 110.533904 471.291908 
L 110.797989 472.107747 
L 110.881994 472.40961 
L 111.013918 472.923586 
L 111.234793 473.739426 
L 111.461324 474.555265 
L 111.534029 474.811047 
L 111.683845 475.371104 
L 111.869901 476.186943 
L 112.008382 477.002783 
L 112.105079 477.818622 
L 112.170095 478.634461 
L 112.186065 478.922468 
L 112.222005 479.450301 
L 112.261093 480.26614 
L 112.285078 481.081979 
L 112.291981 481.897819 
L 112.275564 482.713658 
L 112.226559 483.529497 
L 112.186065 483.905516 
L 112.151632 484.345337 
L 112.056765 485.161176 
L 111.926488 485.977015 
L 111.75993 486.792855 
L 111.555757 487.608694 
L 111.534029 487.688508 
L 111.374237 488.424533 
L 111.151094 489.240373 
L 110.881994 489.984473 
L 110.860504 490.056212 
L 110.563832 490.872051 
L 110.229958 491.527483 
L 110.154611 491.687891 
L 109.667737 492.50373 
L 109.577922 492.629445 
L 109.013465 493.319569 
L 108.925887 493.414083 
L 108.273851 493.984275 
L 108.057719 494.135409 
L 107.621815 494.451039 
L 106.96978 494.855192 
L 106.77797 494.951248 
L 106.317744 495.218169 
L 105.665708 495.439152 
L 105.013672 495.48714 
L 104.361637 495.38544 
L 103.709601 495.144914 
z
" clip-path="url(#pee202249fc)" style="fill: #d2d2f4"/>
    <path d="M 103.709601 495.144914 
L 104.361637 495.38544 
L 105.013672 495.48714 
L 105.665708 495.439152 
L 106.317744 495.218169 
L 106.77797 494.951248 
L 106.96978 494.855192 
L 107.621815 494.451039 
L 108.057719 494.135409 
L 108.273851 493.984275 
L 108.925887 493.414083 
L 109.013465 493.319569 
L 109.577922 492.629445 
L 109.667737 492.50373 
L 110.154611 491.687891 
L 110.229958 491.527483 
L 110.563832 490.872051 
L 110.860504 490.056212 
L 110.881994 489.984473 
L 111.151094 489.240373 
L 111.374237 488.424533 
L 111.534029 487.688508 
L 111.555757 487.608694 
L 111.75993 486.792855 
L 111.926488 485.977015 
L 112.056765 485.161176 
L 112.151632 484.345337 
L 112.186065 483.905516 
L 112.226559 483.529497 
L 112.275564 482.713658 
L 112.291981 481.897819 
L 112.285078 481.081979 
L 112.261093 480.26614 
L 112.222005 479.450301 
L 112.186065 478.922468 
L 112.170095 478.634461 
L 112.105079 477.818622 
L 112.008382 477.002783 
L 111.869901 476.186943 
L 111.683845 475.371104 
L 111.534029 474.811047 
L 111.461324 474.555265 
L 111.234793 473.739426 
L 111.013918 472.923586 
L 110.881994 472.40961 
L 110.797989 472.107747 
L 110.533904 471.291908 
L 110.229958 470.634363 
L 110.046795 470.476068 
L 109.577922 470.164825 
L 108.925887 470.012092 
L 108.273851 469.73593 
L 108.074224 469.660229 
L 107.621815 469.469694 
L 107.207986 469.660229 
L 106.96978 469.74564 
L 106.374262 470.476068 
L 106.317744 470.535724 
L 105.869866 471.291908 
L 105.665708 471.618391 
L 105.396381 472.107747 
L 105.013672 472.83646 
L 104.967961 472.923586 
L 104.570259 473.739426 
L 104.361637 474.248961 
L 104.234955 474.555265 
L 103.943071 475.371104 
L 103.709601 476.186943 
L 103.709601 476.186943 
L 103.458981 477.002783 
L 103.25245 477.818622 
L 103.079936 478.634461 
L 103.057565 478.746437 
L 102.885735 479.450301 
L 102.712037 480.26614 
L 102.558341 481.081979 
L 102.4193 481.897819 
L 102.40553 481.980279 
L 102.259093 482.713658 
L 102.122938 483.529497 
L 102.016484 484.345337 
L 101.93849 485.161176 
L 101.885423 485.977015 
L 101.852012 486.792855 
L 101.832685 487.608694 
L 101.823476 488.424533 
L 101.823758 489.240373 
L 101.8373 490.056212 
L 101.872623 490.872051 
L 101.943311 491.687891 
L 102.069505 492.50373 
L 102.28238 493.319569 
L 102.40553 493.646087 
L 102.65036 494.135409 
L 103.057565 494.69044 
L 103.415277 494.951248 
z
M 105.498463 494.135409 
L 105.013672 494.108031 
L 104.361637 493.920061 
L 103.709601 493.529767 
L 103.514761 493.319569 
L 103.057565 492.635798 
L 103.000472 492.50373 
L 102.749676 491.687891 
L 102.604026 490.872051 
L 102.523696 490.056212 
L 102.484823 489.240373 
L 102.473388 488.424533 
L 102.482402 487.608694 
L 102.510339 486.792855 
L 102.559586 485.977015 
L 102.634523 485.161176 
L 102.739412 484.345337 
L 102.876716 483.529497 
L 103.046663 482.713658 
L 103.057565 482.665356 
L 103.214824 481.897819 
L 103.395713 481.081979 
L 103.590965 480.26614 
L 103.709601 479.795312 
L 103.788648 479.450301 
L 103.980477 478.634461 
L 104.192345 477.818622 
L 104.361637 477.238042 
L 104.431231 477.002783 
L 104.696425 476.186943 
L 105.012072 475.371104 
L 105.013672 475.367321 
L 105.411137 474.555265 
L 105.665708 474.076854 
L 105.908769 473.739426 
L 106.317744 473.159102 
L 106.642811 472.923586 
L 106.96978 472.665847 
L 107.621815 472.624745 
L 108.273851 472.780565 
L 108.678502 472.923586 
L 108.925887 473.013407 
L 109.577922 473.690258 
L 109.60271 473.739426 
L 109.988691 474.555265 
L 110.229958 475.097615 
L 110.33905 475.371104 
L 110.671193 476.186943 
L 110.881994 476.757462 
L 110.962631 477.002783 
L 111.18802 477.818622 
L 111.345226 478.634461 
L 111.447089 479.450301 
L 111.506615 480.26614 
L 111.533693 481.081979 
L 111.534029 481.897819 
L 111.509297 482.713658 
L 111.458125 483.529497 
L 111.377607 484.345337 
L 111.26469 485.161176 
L 111.116598 485.977015 
L 110.929732 486.792855 
L 110.881994 486.975567 
L 110.750488 487.608694 
L 110.546697 488.424533 
L 110.284201 489.240373 
L 110.229958 489.384041 
L 110.008872 490.056212 
L 109.643341 490.872051 
L 109.577922 490.993846 
L 109.184027 491.687891 
L 108.925887 492.052483 
L 108.528012 492.50373 
L 108.273851 492.763642 
L 107.621815 493.279091 
L 107.556938 493.319569 
L 106.96978 493.70956 
L 106.317744 494.007848 
L 105.705684 494.135409 
L 105.665708 494.145141 
z
" clip-path="url(#pee202249fc)" style="fill: #b9b9f6"/>
    <path d="M 105.665708 494.145141 
L 105.705684 494.135409 
L 106.317744 494.007848 
L 106.96978 493.70956 
L 107.556938 493.319569 
L 107.621815 493.279091 
L 108.273851 492.763642 
L 108.528012 492.50373 
L 108.925887 492.052483 
L 109.184027 491.687891 
L 109.577922 490.993846 
L 109.643341 490.872051 
L 110.008872 490.056212 
L 110.229958 489.384041 
L 110.284201 489.240373 
L 110.546697 488.424533 
L 110.750488 487.608694 
L 110.881994 486.975567 
L 110.929732 486.792855 
L 111.116598 485.977015 
L 111.26469 485.161176 
L 111.377607 484.345337 
L 111.458125 483.529497 
L 111.509297 482.713658 
L 111.534029 481.897819 
L 111.533693 481.081979 
L 111.506615 480.26614 
L 111.447089 479.450301 
L 111.345226 478.634461 
L 111.18802 477.818622 
L 110.962631 477.002783 
L 110.881994 476.757462 
L 110.671193 476.186943 
L 110.33905 475.371104 
L 110.229958 475.097615 
L 109.988691 474.555265 
L 109.60271 473.739426 
L 109.577922 473.690258 
L 108.925887 473.013407 
L 108.678502 472.923586 
L 108.273851 472.780565 
L 107.621815 472.624745 
L 106.96978 472.665847 
L 106.642811 472.923586 
L 106.317744 473.159102 
L 105.908769 473.739426 
L 105.665708 474.076854 
L 105.411137 474.555265 
L 105.013672 475.367321 
L 105.012072 475.371104 
L 104.696425 476.186943 
L 104.431231 477.002783 
L 104.361637 477.238042 
L 104.192345 477.818622 
L 103.980477 478.634461 
L 103.788648 479.450301 
L 103.709601 479.795312 
L 103.590965 480.26614 
L 103.395713 481.081979 
L 103.214824 481.897819 
L 103.057565 482.665356 
L 103.046663 482.713658 
L 102.876716 483.529497 
L 102.739412 484.345337 
L 102.634523 485.161176 
L 102.559586 485.977015 
L 102.510339 486.792855 
L 102.482402 487.608694 
L 102.473388 488.424533 
L 102.484823 489.240373 
L 102.523696 490.056212 
L 102.604026 490.872051 
L 102.749676 491.687891 
L 103.000472 492.50373 
L 103.057565 492.635798 
L 103.514761 493.319569 
L 103.709601 493.529767 
L 104.361637 493.920061 
L 105.013672 494.108031 
L 105.498463 494.135409 
z
M 104.275146 492.50373 
L 103.709601 491.859212 
L 103.621194 491.687891 
L 103.334243 490.872051 
L 103.173834 490.056212 
L 103.089924 489.240373 
L 103.057565 488.473626 
L 103.055613 488.424533 
L 103.057565 487.608694 
L 103.057565 487.608694 
L 103.090656 486.792855 
L 103.154099 485.977015 
L 103.248655 485.161176 
L 103.374742 484.345337 
L 103.531545 483.529497 
L 103.709601 482.744079 
L 103.716347 482.713658 
L 103.906195 481.897819 
L 104.107488 481.081979 
L 104.320165 480.26614 
L 104.361637 480.108913 
L 104.538947 479.450301 
L 104.772654 478.634461 
L 105.013672 477.868583 
L 105.032675 477.818622 
L 105.364216 477.002783 
L 105.665708 476.343562 
L 105.770674 476.186943 
L 106.317744 475.415375 
L 106.378098 475.371104 
L 106.96978 474.942437 
L 107.621815 474.833651 
L 108.273851 474.963488 
L 108.848218 475.371104 
L 108.925887 475.428597 
L 109.449287 476.186943 
L 109.577922 476.381206 
L 109.893204 477.002783 
L 110.229958 477.735735 
L 110.262372 477.818622 
L 110.537432 478.634461 
L 110.730832 479.450301 
L 110.852555 480.26614 
L 110.881994 480.628843 
L 110.916997 481.081979 
L 110.93609 481.897819 
L 110.913876 482.713658 
L 110.881994 483.130407 
L 110.855907 483.529497 
L 110.772117 484.345337 
L 110.659224 485.161176 
L 110.516065 485.977015 
L 110.33854 486.792855 
L 110.229958 487.211943 
L 110.14205 487.608694 
L 109.930526 488.424533 
L 109.660097 489.240373 
L 109.577922 489.44689 
L 109.33187 490.056212 
L 108.925887 490.824835 
L 108.895348 490.872051 
L 108.274221 491.687891 
L 108.273851 491.688319 
L 107.621815 492.276759 
L 107.255542 492.50373 
L 106.96978 492.688317 
L 106.317744 492.936551 
L 105.665708 493.000511 
L 105.013672 492.887127 
L 104.361637 492.577795 
z
" clip-path="url(#pee202249fc)" style="fill: #9d9df7"/>
    <path d="M 104.361637 492.577795 
L 105.013672 492.887127 
L 105.665708 493.000511 
L 106.317744 492.936551 
L 106.96978 492.688317 
L 107.255542 492.50373 
L 107.621815 492.276759 
L 108.273851 491.688319 
L 108.274221 491.687891 
L 108.895348 490.872051 
L 108.925887 490.824835 
L 109.33187 490.056212 
L 109.577922 489.44689 
L 109.660097 489.240373 
L 109.930526 488.424533 
L 110.14205 487.608694 
L 110.229958 487.211943 
L 110.33854 486.792855 
L 110.516065 485.977015 
L 110.659224 485.161176 
L 110.772117 484.345337 
L 110.855907 483.529497 
L 110.881994 483.130407 
L 110.913876 482.713658 
L 110.93609 481.897819 
L 110.916997 481.081979 
L 110.881994 480.628843 
L 110.852555 480.26614 
L 110.730832 479.450301 
L 110.537432 478.634461 
L 110.262372 477.818622 
L 110.229958 477.735735 
L 109.893204 477.002783 
L 109.577922 476.381206 
L 109.449287 476.186943 
L 108.925887 475.428597 
L 108.848218 475.371104 
L 108.273851 474.963488 
L 107.621815 474.833651 
L 106.96978 474.942437 
L 106.378098 475.371104 
L 106.317744 475.415375 
L 105.770674 476.186943 
L 105.665708 476.343562 
L 105.364216 477.002783 
L 105.032675 477.818622 
L 105.013672 477.868583 
L 104.772654 478.634461 
L 104.538947 479.450301 
L 104.361637 480.108913 
L 104.320165 480.26614 
L 104.107488 481.081979 
L 103.906195 481.897819 
L 103.716347 482.713658 
L 103.709601 482.744079 
L 103.531545 483.529497 
L 103.374742 484.345337 
L 103.248655 485.161176 
L 103.154099 485.977015 
L 103.090656 486.792855 
L 103.057565 487.608694 
L 103.057565 487.608694 
L 103.055613 488.424533 
L 103.057565 488.473626 
L 103.089924 489.240373 
L 103.173834 490.056212 
L 103.334243 490.872051 
L 103.621194 491.687891 
L 103.709601 491.859212 
L 104.275146 492.50373 
z
M 105.186835 491.687891 
L 105.013672 491.62552 
L 104.361637 491.054429 
L 104.249712 490.872051 
L 103.923786 490.056212 
L 103.754706 489.240373 
L 103.709601 488.770953 
L 103.681449 488.424533 
L 103.667066 487.608694 
L 103.696336 486.792855 
L 103.709601 486.634865 
L 103.767388 485.977015 
L 103.87571 485.161176 
L 104.016337 484.345337 
L 104.184734 483.529497 
L 104.361637 482.778782 
L 104.377467 482.713658 
L 104.589026 481.897819 
L 104.813979 481.081979 
L 105.013672 480.399887 
L 105.058442 480.26614 
L 105.344604 479.450301 
L 105.665708 478.635392 
L 105.666205 478.634461 
L 106.138834 477.818622 
L 106.317744 477.541166 
L 106.918178 477.002783 
L 106.96978 476.958939 
L 107.621815 476.750842 
L 108.273851 476.908295 
L 108.383443 477.002783 
L 108.925887 477.489508 
L 109.140677 477.818622 
L 109.577922 478.557425 
L 109.61271 478.634461 
L 109.928981 479.450301 
L 110.153154 480.26614 
L 110.229958 480.700775 
L 110.285387 481.081979 
L 110.345837 481.897819 
L 110.352526 482.713658 
L 110.312592 483.529497 
L 110.229958 484.345337 
L 110.229958 484.345337 
L 110.120431 485.161176 
L 109.983965 485.977015 
L 109.818128 486.792855 
L 109.614067 487.608694 
L 109.577922 487.730975 
L 109.372538 488.424533 
L 109.071268 489.240373 
L 108.925887 489.561599 
L 108.651764 490.056212 
L 108.273851 490.624014 
L 108.037589 490.872051 
L 107.621815 491.276457 
L 106.96978 491.672936 
L 106.913031 491.687891 
L 106.317744 491.853895 
L 105.665708 491.83748 
z
" clip-path="url(#pee202249fc)" style="fill: #8181f8"/>
    <path d="M 105.665708 491.83748 
L 106.317744 491.853895 
L 106.913031 491.687891 
L 106.96978 491.672936 
L 107.621815 491.276457 
L 108.037589 490.872051 
L 108.273851 490.624014 
L 108.651764 490.056212 
L 108.925887 489.561599 
L 109.071268 489.240373 
L 109.372538 488.424533 
L 109.577922 487.730975 
L 109.614067 487.608694 
L 109.818128 486.792855 
L 109.983965 485.977015 
L 110.120431 485.161176 
L 110.229958 484.345337 
L 110.229958 484.345337 
L 110.312592 483.529497 
L 110.352526 482.713658 
L 110.345837 481.897819 
L 110.285387 481.081979 
L 110.229958 480.700775 
L 110.153154 480.26614 
L 109.928981 479.450301 
L 109.61271 478.634461 
L 109.577922 478.557425 
L 109.140677 477.818622 
L 108.925887 477.489508 
L 108.383443 477.002783 
L 108.273851 476.908295 
L 107.621815 476.750842 
L 106.96978 476.958939 
L 106.918178 477.002783 
L 106.317744 477.541166 
L 106.138834 477.818622 
L 105.666205 478.634461 
L 105.665708 478.635392 
L 105.344604 479.450301 
L 105.058442 480.26614 
L 105.013672 480.399887 
L 104.813979 481.081979 
L 104.589026 481.897819 
L 104.377467 482.713658 
L 104.361637 482.778782 
L 104.184734 483.529497 
L 104.016337 484.345337 
L 103.87571 485.161176 
L 103.767388 485.977015 
L 103.709601 486.634865 
L 103.696336 486.792855 
L 103.667066 487.608694 
L 103.681449 488.424533 
L 103.709601 488.770953 
L 103.754706 489.240373 
L 103.923786 490.056212 
L 104.249712 490.872051 
L 104.361637 491.054429 
L 105.013672 491.62552 
L 105.186835 491.687891 
z
M 104.851011 490.056212 
L 104.487861 489.240373 
L 104.361637 488.622699 
L 104.331756 488.424533 
L 104.287867 487.608694 
L 104.306322 486.792855 
L 104.361637 486.123277 
L 104.374367 485.977015 
L 104.487879 485.161176 
L 104.636321 484.345337 
L 104.813401 483.529497 
L 105.013672 482.715512 
L 105.014184 482.713658 
L 105.260369 481.897819 
L 105.527788 481.081979 
L 105.665708 480.692949 
L 105.859264 480.26614 
L 106.274003 479.450301 
L 106.317744 479.371864 
L 106.96978 478.634461 
L 106.96978 478.634461 
L 107.621815 478.372206 
L 108.273851 478.574348 
L 108.333471 478.634461 
L 108.925887 479.290919 
L 109.01313 479.450301 
L 109.386632 480.26614 
L 109.577922 480.850486 
L 109.633785 481.081979 
L 109.76 481.897819 
L 109.812761 482.713658 
L 109.805775 483.529497 
L 109.750215 484.345337 
L 109.653367 485.161176 
L 109.577922 485.614758 
L 109.517151 485.977015 
L 109.345115 486.792855 
L 109.13343 487.608694 
L 108.925887 488.250708 
L 108.857055 488.424533 
L 108.468171 489.240373 
L 108.273851 489.578049 
L 107.86508 490.056212 
L 107.621815 490.313756 
L 106.96978 490.69339 
L 106.317744 490.805232 
L 105.665708 490.689334 
L 105.013672 490.276285 
z
" clip-path="url(#pee202249fc)" style="fill: #6464fa"/>
    <path d="M 105.013672 490.276285 
L 105.665708 490.689334 
L 106.317744 490.805232 
L 106.96978 490.69339 
L 107.621815 490.313756 
L 107.86508 490.056212 
L 108.273851 489.578049 
L 108.468171 489.240373 
L 108.857055 488.424533 
L 108.925887 488.250708 
L 109.13343 487.608694 
L 109.345115 486.792855 
L 109.517151 485.977015 
L 109.577922 485.614758 
L 109.653367 485.161176 
L 109.750215 484.345337 
L 109.805775 483.529497 
L 109.812761 482.713658 
L 109.76 481.897819 
L 109.633785 481.081979 
L 109.577922 480.850486 
L 109.386632 480.26614 
L 109.01313 479.450301 
L 108.925887 479.290919 
L 108.333471 478.634461 
L 108.273851 478.574348 
L 107.621815 478.372206 
L 106.96978 478.634461 
L 106.96978 478.634461 
L 106.317744 479.371864 
L 106.274003 479.450301 
L 105.859264 480.26614 
L 105.665708 480.692949 
L 105.527788 481.081979 
L 105.260369 481.897819 
L 105.014184 482.713658 
L 105.013672 482.715512 
L 104.813401 483.529497 
L 104.636321 484.345337 
L 104.487879 485.161176 
L 104.374367 485.977015 
L 104.361637 486.123277 
L 104.306322 486.792855 
L 104.287867 487.608694 
L 104.331756 488.424533 
L 104.361637 488.622699 
L 104.487861 489.240373 
L 104.851011 490.056212 
z
M 105.554538 489.240373 
L 105.116313 488.424533 
L 105.013672 487.925953 
L 104.971051 487.608694 
L 104.957418 486.792855 
L 105.013672 485.977015 
L 105.013672 485.977015 
L 105.134096 485.161176 
L 105.29647 484.345337 
L 105.493734 483.529497 
L 105.665708 482.907933 
L 105.731922 482.713658 
L 106.043007 481.897819 
L 106.317744 481.250944 
L 106.423719 481.081979 
L 106.96978 480.310501 
L 107.053592 480.26614 
L 107.621815 479.991477 
L 108.273851 480.253016 
L 108.284116 480.26614 
L 108.82003 481.081979 
L 108.925887 481.301104 
L 109.094261 481.897819 
L 109.226781 482.713658 
L 109.272058 483.529497 
L 109.249058 484.345337 
L 109.172177 485.161176 
L 109.049094 485.977015 
L 108.925887 486.571073 
L 108.86999 486.792855 
L 108.605942 487.608694 
L 108.274371 488.424533 
L 108.273851 488.425595 
L 107.660302 489.240373 
L 107.621815 489.285455 
L 106.96978 489.639776 
L 106.317744 489.653742 
L 105.665708 489.359136 
z
" clip-path="url(#pee202249fc)" style="fill: #4848fb"/>
    <path d="M 105.665708 489.359136 
L 106.317744 489.653742 
L 106.96978 489.639776 
L 107.621815 489.285455 
L 107.660302 489.240373 
L 108.273851 488.425595 
L 108.274371 488.424533 
L 108.605942 487.608694 
L 108.86999 486.792855 
L 108.925887 486.571073 
L 109.049094 485.977015 
L 109.172177 485.161176 
L 109.249058 484.345337 
L 109.272058 483.529497 
L 109.226781 482.713658 
L 109.094261 481.897819 
L 108.925887 481.301104 
L 108.82003 481.081979 
L 108.284116 480.26614 
L 108.273851 480.253016 
L 107.621815 479.991477 
L 107.053592 480.26614 
L 106.96978 480.310501 
L 106.423719 481.081979 
L 106.317744 481.250944 
L 106.043007 481.897819 
L 105.731922 482.713658 
L 105.665708 482.907933 
L 105.493734 483.529497 
L 105.29647 484.345337 
L 105.134096 485.161176 
L 105.013672 485.977015 
L 105.013672 485.977015 
L 104.957418 486.792855 
L 104.971051 487.608694 
L 105.013672 487.925953 
L 105.116313 488.424533 
L 105.554538 489.240373 
z
M 106.555945 488.424533 
L 106.317744 488.344036 
L 105.827269 487.608694 
L 105.665708 486.792855 
L 105.691553 485.977015 
L 105.81578 485.161176 
L 106.004489 484.345337 
L 106.244448 483.529497 
L 106.317744 483.316639 
L 106.611373 482.713658 
L 106.96978 482.077483 
L 107.21976 481.897819 
L 107.621815 481.642009 
L 108.080867 481.897819 
L 108.273851 482.032819 
L 108.531678 482.713658 
L 108.690466 483.529497 
L 108.725851 484.345337 
L 108.669956 485.161176 
L 108.542128 485.977015 
L 108.34867 486.792855 
L 108.273851 487.024649 
L 107.96716 487.608694 
L 107.621815 488.14889 
L 107.142149 488.424533 
L 106.96978 488.513482 
z
" clip-path="url(#pee202249fc)" style="fill: #2c2cfd"/>
    <path d="M 106.96978 488.513482 
L 107.142149 488.424533 
L 107.621815 488.14889 
L 107.96716 487.608694 
L 108.273851 487.024649 
L 108.34867 486.792855 
L 108.542128 485.977015 
L 108.669956 485.161176 
L 108.725851 484.345337 
L 108.690466 483.529497 
L 108.531678 482.713658 
L 108.273851 482.032819 
L 108.080867 481.897819 
L 107.621815 481.642009 
L 107.21976 481.897819 
L 106.96978 482.077483 
L 106.611373 482.713658 
L 106.317744 483.316639 
L 106.244448 483.529497 
L 106.004489 484.345337 
L 105.81578 485.161176 
L 105.691553 485.977015 
L 105.665708 486.792855 
L 105.827269 487.608694 
L 106.317744 488.344036 
L 106.555945 488.424533 
z
" clip-path="url(#pee202249fc)" style="fill: #0f0ffe"/>
   </g>
   <g id="QuadContourSet_2">
    <path d="M 20.379122 527.367405 
L 33.588822 528.759275 
L 46.798522 528.381493 
L 60.008222 526.546244 
L 62.754514 525.900455 
L 73.217922 524.290324 
L 85.616388 520.794815 
L 86.427622 520.626125 
L 99.637322 516.871952 
L 102.880987 515.689175 
L 112.847022 512.314375 
L 117.238745 510.583535 
L 126.056722 506.948102 
L 129.549483 505.477895 
L 139.266422 500.659886 
L 139.912278 500.372255 
L 150.689638 495.266615 
L 152.476122 494.171347 
L 160.742142 490.160976 
L 165.685822 486.557906 
L 168.638286 485.055336 
L 176.709458 479.949696 
L 178.895522 477.963717 
L 184.458199 474.844056 
L 190.517043 469.738416 
L 192.105222 467.933059 
L 197.397454 464.632776 
L 202.873498 459.527136 
L 205.314921 456.110354 
L 207.761986 454.421497 
L 213.649485 449.315857 
L 217.305262 444.210217 
L 218.524621 442.085592 
L 222.214544 439.104577 
L 226.997115 433.998937 
L 230.370001 428.893297 
L 231.734321 426.407364 
L 234.806161 423.787657 
L 239.629416 418.682017 
L 243.238306 413.576378 
L 244.944021 410.646768 
L 247.416968 408.470738 
L 252.173171 403.365098 
L 255.870562 398.259458 
L 258.153721 394.555757 
L 259.595833 393.153818 
L 264.297953 388.048178 
L 268.637741 382.942538 
L 271.363421 379.86953 
L 273.843578 377.836899 
L 280.534943 372.731259 
L 284.573121 370.077258 
L 288.972975 367.625619 
L 297.782821 363.297871 
L 299.52188 362.519979 
L 310.992521 357.718555 
L 311.767421 357.414339 
L 324.202221 352.508852 
L 324.736512 352.308699 
L 337.333231 347.203059 
L 337.411921 347.165799 
L 348.896399 342.097419 
L 350.621621 341.125645 
L 359.12529 336.99178 
L 363.831321 333.874111 
L 367.852924 331.88614 
L 375.187575 326.7805 
L 377.041021 324.563226 
L 382.417205 321.67486 
L 388.349269 316.56922 
L 390.250721 311.46358 
L 390.250721 311.46358 
L 390.250721 311.46358 
L 397.266815 316.56922 
L 403.460421 317.227952 
L 416.670121 318.93373 
L 429.879821 318.939074 
L 443.089521 317.674277 
L 448.516118 316.56922 
L 456.299221 314.894194 
L 466.383858 311.46358 
L 469.508921 310.262325 
L 476.944631 306.35794 
L 482.71862 302.59718 
L 484.486896 301.252301 
L 489.611645 296.146661 
L 493.477936 291.041021 
L 495.92832 287.293082 
L 496.772682 285.935381 
L 499.594844 280.829741 
L 502.692186 275.724101 
L 507.340517 270.618461 
L 509.13802 269.283519 
L 513.832962 265.512821 
L 522.34772 260.976347 
L 523.42883 260.407182 
L 534.555369 255.301542 
L 535.55742 254.875089 
L 545.617147 250.195902 
L 548.76712 248.542095 
L 554.761005 245.090262 
L 560.791387 239.984622 
L 561.97682 237.46891 
L 563.030463 234.878982 
L 561.97682 232.670284 
L 558.518044 229.773342 
L 548.76712 227.748662 
L 535.55742 228.704091 
L 529.610637 229.773342 
L 522.34772 231.268311 
L 509.13802 234.196121 
L 503.472822 234.878982 
L 495.92832 236.385146 
L 491.059738 234.878982 
L 485.767497 229.773342 
L 483.681021 224.667703 
L 482.71862 222.775482 
L 480.15991 219.562063 
L 469.508921 215.483203 
L 456.299221 216.868109 
L 445.498713 219.562063 
L 443.089521 220.094878 
L 429.879821 223.490229 
L 423.908561 224.667703 
L 416.670121 226.068938 
L 404.656248 224.667703 
L 404.115954 219.562063 
L 408.531259 214.456423 
L 414.120615 209.350783 
L 416.670121 207.420345 
L 421.13835 204.245143 
L 427.784009 199.139503 
L 429.879821 197.191821 
L 433.316314 194.033863 
L 431.889875 188.928223 
L 429.879821 188.585716 
L 427.927079 188.928223 
L 416.670121 190.817777 
L 403.460421 193.705543 
L 402.314393 194.033863 
L 390.250721 197.572924 
L 384.950187 199.139503 
L 377.041021 201.570845 
L 367.65802 204.245143 
L 363.831321 205.368104 
L 350.621621 208.580733 
L 346.580067 209.350783 
L 337.411921 211.016611 
L 324.202221 212.929112 
L 312.645397 214.456423 
L 310.992521 214.646565 
L 297.782821 215.705756 
L 284.573121 214.999256 
L 282.748413 214.456423 
L 271.363421 209.994164 
L 270.145812 209.350783 
L 260.632603 204.245143 
L 258.153721 202.984367 
L 244.944021 200.888555 
L 231.734321 201.76573 
L 218.524621 203.325078 
L 209.944687 204.245143 
L 205.314921 204.668061 
L 192.105222 205.499604 
L 178.895522 206.53045 
L 165.685822 208.700644 
L 163.496393 209.350783 
L 152.476122 212.0135 
L 145.871129 214.456423 
L 139.266422 216.589242 
L 132.467272 219.562063 
L 126.056722 222.211813 
L 121.180249 224.667703 
L 112.847022 228.990244 
L 111.475125 229.773342 
L 102.861961 234.878982 
L 99.637322 236.975433 
L 95.072105 239.984622 
L 88.374699 245.090262 
L 86.427622 246.717742 
L 81.892357 250.195902 
L 76.270747 255.301542 
L 73.217922 258.563868 
L 71.114227 260.407182 
L 65.789698 265.512821 
L 61.586399 270.618461 
L 60.008222 272.746938 
L 56.990663 275.724101 
L 52.498747 280.829741 
L 48.95879 285.935381 
L 46.798522 289.656252 
L 45.563686 291.041021 
L 41.431627 296.146661 
L 38.201372 301.252301 
L 35.650096 306.35794 
L 33.614776 311.46358 
L 33.588822 311.535632 
L 30.456908 316.56922 
L 28.015488 321.67486 
L 26.155141 326.7805 
L 24.747268 331.88614 
L 23.682047 336.99178 
L 22.856202 342.097419 
L 22.169575 347.203059 
L 21.537592 352.308699 
L 20.911979 357.414339 
L 20.379122 361.75116 
L 20.191667 362.519979 
L 18.977369 367.625619 
L 17.962892 372.731259 
L 17.172447 377.836899 
L 16.508227 382.942538 
L 15.75721 388.048178 
L 14.6966 393.153818 
L 13.261669 398.259458 
L 11.590937 403.365098 
L 9.894567 408.470738 
L 8.325092 413.576378 
L 7.169422 417.743359 
L 6.596368 418.682017 
L 3.561478 423.787657 
L 1.063053 428.893297 
L -0.975305 433.998937 
L -2.63134 439.104577 
L -3.97487 444.210217 
L -5.065236 449.315857 
L -5.950813 454.421497 
L -6.040278 455.012823 
L -7.734945 459.527136 
L -9.238601 464.632776 
L -10.370595 469.738416 
L -11.165189 474.844056 
L -11.634228 479.949696 
L -11.773671 485.055336 
L -11.563625 490.160976 
L -10.956118 495.266615 
L -9.843316 500.372255 
L -7.996743 505.477895 
L -6.040278 508.958392 
L -5.485798 510.583535 
L -2.600964 515.689175 
L 3.231427 520.794815 
L 7.169422 522.992676 
L 15.150977 525.900455 
z
M 42.602525 510.583535 
L 33.588822 507.995455 
L 29.092751 505.477895 
L 23.590629 500.372255 
L 20.802092 495.266615 
L 20.379122 493.988008 
L 18.63948 490.160976 
L 17.215294 485.055336 
L 16.457327 479.949696 
L 16.220342 474.844056 
L 16.437859 469.738416 
L 17.080145 464.632776 
L 18.139079 459.527136 
L 19.628484 454.421497 
L 20.379122 452.373097 
L 20.965374 449.315857 
L 22.149075 444.210217 
L 23.607286 439.104577 
L 25.403618 433.998937 
L 27.619143 428.893297 
L 30.3516 423.787657 
L 33.588822 418.841914 
L 33.650677 418.682017 
L 35.70129 413.576378 
L 38.141886 408.470738 
L 41.015671 403.365098 
L 44.315009 398.259458 
L 46.798522 394.561273 
L 47.432812 393.153818 
L 49.507994 388.048178 
L 51.422257 382.942538 
L 52.960155 377.836899 
L 54.044901 372.731259 
L 54.84512 367.625619 
L 55.655798 362.519979 
L 56.699491 357.414339 
L 58.054382 352.308699 
L 59.685242 347.203059 
L 60.008222 346.245752 
L 61.05312 342.097419 
L 62.398983 336.99178 
L 63.8496 331.88614 
L 65.489812 326.7805 
L 67.446025 321.67486 
L 69.869703 316.56922 
L 72.93222 311.46358 
L 73.217922 311.05604 
L 76.078127 306.35794 
L 79.868238 301.252301 
L 84.514273 296.146661 
L 86.427622 294.28413 
L 89.777983 291.041021 
L 95.782352 285.935381 
L 99.637322 283.010449 
L 103.026316 280.829741 
L 111.545205 275.724101 
L 112.847022 274.965112 
L 123.313618 270.618461 
L 126.056722 269.462648 
L 139.266422 266.373126 
L 152.476122 265.645926 
L 165.685822 267.110605 
L 178.895522 270.593431 
L 178.973626 270.618461 
L 192.105222 274.540351 
L 196.062512 275.724101 
L 205.314921 278.784017 
L 211.281609 280.829741 
L 218.524621 284.494407 
L 221.364437 285.935381 
L 227.275624 291.041021 
L 229.853649 296.146661 
L 230.591843 301.252301 
L 230.306419 306.35794 
L 229.481567 311.46358 
L 228.378397 316.56922 
L 227.067987 321.67486 
L 225.456363 326.7805 
L 223.381486 331.88614 
L 220.778634 336.99178 
L 218.524621 340.687694 
L 217.931499 342.097419 
L 215.52446 347.203059 
L 213.301976 352.308699 
L 211.514974 357.414339 
L 210.342793 362.519979 
L 209.874327 367.625619 
L 210.062733 372.731259 
L 210.714569 377.836899 
L 211.541312 382.942538 
L 212.247379 388.048178 
L 212.608483 393.153818 
L 212.501452 398.259458 
L 211.879775 403.365098 
L 210.724944 408.470738 
L 209.004338 413.576378 
L 206.640844 418.682017 
L 205.314921 420.941986 
L 204.415988 423.787657 
L 202.464384 428.893297 
L 199.983197 433.998937 
L 196.69746 439.104577 
L 192.105222 444.210217 
L 192.105222 444.210217 
L 189.101752 449.315857 
L 184.883359 454.421497 
L 178.895522 459.264089 
L 178.690688 459.527136 
L 174.18671 464.632776 
L 167.097283 469.738416 
L 165.685822 470.608681 
L 160.855425 474.844056 
L 152.476122 479.660303 
L 152.073165 479.949696 
L 144.266563 485.055336 
L 139.266422 487.546987 
L 134.507339 490.160976 
L 126.056722 494.014319 
L 123.199648 495.266615 
L 112.847022 499.505248 
L 110.302127 500.372255 
L 99.637322 504.193202 
L 94.599966 505.477895 
L 86.427622 507.946558 
L 73.217922 510.362234 
L 70.597525 510.583535 
L 60.008222 511.918258 
L 46.798522 511.507143 
z
M 416.361356 285.935381 
L 416.670121 285.584245 
L 417.171366 285.935381 
L 416.670121 286.692534 
z
" clip-path="url(#pee202249fc)" style="fill: #e5f0e5; fill-opacity: 0.5"/>
    <path d="M 46.798522 511.507143 
L 60.008222 511.918258 
L 70.597525 510.583535 
L 73.217922 510.362234 
L 86.427622 507.946558 
L 94.599966 505.477895 
L 99.637322 504.193202 
L 110.302127 500.372255 
L 112.847022 499.505248 
L 123.199648 495.266615 
L 126.056722 494.014319 
L 134.507339 490.160976 
L 139.266422 487.546987 
L 144.266563 485.055336 
L 152.073165 479.949696 
L 152.476122 479.660303 
L 160.855425 474.844056 
L 165.685822 470.608681 
L 167.097283 469.738416 
L 174.18671 464.632776 
L 178.690688 459.527136 
L 178.895522 459.264089 
L 184.883359 454.421497 
L 189.101752 449.315857 
L 192.105222 444.210217 
L 192.105222 444.210217 
L 196.69746 439.104577 
L 199.983197 433.998937 
L 202.464384 428.893297 
L 204.415988 423.787657 
L 205.314921 420.941986 
L 206.640844 418.682017 
L 209.004338 413.576378 
L 210.724944 408.470738 
L 211.879775 403.365098 
L 212.501452 398.259458 
L 212.608483 393.153818 
L 212.247379 388.048178 
L 211.541312 382.942538 
L 210.714569 377.836899 
L 210.062733 372.731259 
L 209.874327 367.625619 
L 210.342793 362.519979 
L 211.514974 357.414339 
L 213.301976 352.308699 
L 215.52446 347.203059 
L 217.931499 342.097419 
L 218.524621 340.687694 
L 220.778634 336.99178 
L 223.381486 331.88614 
L 225.456363 326.7805 
L 227.067987 321.67486 
L 228.378397 316.56922 
L 229.481567 311.46358 
L 230.306419 306.35794 
L 230.591843 301.252301 
L 229.853649 296.146661 
L 227.275624 291.041021 
L 221.364437 285.935381 
L 218.524621 284.494407 
L 211.281609 280.829741 
L 205.314921 278.784017 
L 196.062512 275.724101 
L 192.105222 274.540351 
L 178.973626 270.618461 
L 178.895522 270.593431 
L 165.685822 267.110605 
L 152.476122 265.645926 
L 139.266422 266.373126 
L 126.056722 269.462648 
L 123.313618 270.618461 
L 112.847022 274.965112 
L 111.545205 275.724101 
L 103.026316 280.829741 
L 99.637322 283.010449 
L 95.782352 285.935381 
L 89.777983 291.041021 
L 86.427622 294.28413 
L 84.514273 296.146661 
L 79.868238 301.252301 
L 76.078127 306.35794 
L 73.217922 311.05604 
L 72.93222 311.46358 
L 69.869703 316.56922 
L 67.446025 321.67486 
L 65.489812 326.7805 
L 63.8496 331.88614 
L 62.398983 336.99178 
L 61.05312 342.097419 
L 60.008222 346.245752 
L 59.685242 347.203059 
L 58.054382 352.308699 
L 56.699491 357.414339 
L 55.655798 362.519979 
L 54.84512 367.625619 
L 54.044901 372.731259 
L 52.960155 377.836899 
L 51.422257 382.942538 
L 49.507994 388.048178 
L 47.432812 393.153818 
L 46.798522 394.561273 
L 44.315009 398.259458 
L 41.015671 403.365098 
L 38.141886 408.470738 
L 35.70129 413.576378 
L 33.650677 418.682017 
L 33.588822 418.841914 
L 30.3516 423.787657 
L 27.619143 428.893297 
L 25.403618 433.998937 
L 23.607286 439.104577 
L 22.149075 444.210217 
L 20.965374 449.315857 
L 20.379122 452.373097 
L 19.628484 454.421497 
L 18.139079 459.527136 
L 17.080145 464.632776 
L 16.437859 469.738416 
L 16.220342 474.844056 
L 16.457327 479.949696 
L 17.215294 485.055336 
L 18.63948 490.160976 
L 20.379122 493.988008 
L 20.802092 495.266615 
L 23.590629 500.372255 
L 29.092751 505.477895 
L 33.588822 507.995455 
L 42.602525 510.583535 
z
M 50.64462 500.372255 
L 46.798522 499.138918 
L 40.755224 495.266615 
L 36.406994 490.160976 
L 34.120072 485.055336 
L 33.588822 483.008196 
L 32.569714 479.949696 
L 31.628622 474.844056 
L 31.32744 469.738416 
L 31.579615 464.632776 
L 32.344972 459.527136 
L 33.588822 454.505321 
L 33.601355 454.421497 
L 34.610153 449.315857 
L 35.887983 444.210217 
L 37.474668 439.104577 
L 39.432649 433.998937 
L 41.848152 428.893297 
L 44.832317 423.787657 
L 46.798522 420.884872 
L 47.811983 418.682017 
L 50.425807 413.576378 
L 53.551661 408.470738 
L 57.280551 403.365098 
L 60.008222 400.002854 
L 61.10587 398.259458 
L 64.412025 393.153818 
L 68.077702 388.048178 
L 71.943652 382.942538 
L 73.217922 381.014096 
L 75.110834 377.836899 
L 77.643789 372.731259 
L 79.589234 367.625619 
L 80.904147 362.519979 
L 81.89202 357.414339 
L 82.986111 352.308699 
L 84.468863 347.203059 
L 86.427622 342.097419 
L 86.427622 342.097419 
L 88.758604 336.99178 
L 91.341759 331.88614 
L 94.211667 326.7805 
L 97.450308 321.67486 
L 99.637322 318.598217 
L 101.379015 316.56922 
L 106.330217 311.46358 
L 112.226117 306.35794 
L 112.847022 305.876055 
L 121.989755 301.252301 
L 126.056722 299.393751 
L 139.266422 296.883809 
L 152.476122 297.581725 
L 164.028185 301.252301 
L 165.685822 301.989117 
L 171.198986 306.35794 
L 174.948249 311.46358 
L 176.838787 316.56922 
L 177.451912 321.67486 
L 177.232126 326.7805 
L 176.625199 331.88614 
L 176.103054 336.99178 
L 176.127759 342.097419 
L 176.988025 347.203059 
L 178.579698 352.308699 
L 178.895522 353.072469 
L 180.542943 357.414339 
L 182.542565 362.519979 
L 184.518119 367.625619 
L 186.451759 372.731259 
L 188.284304 377.836899 
L 189.932199 382.942538 
L 191.315488 388.048178 
L 192.105222 391.80764 
L 192.484014 393.153818 
L 193.463892 398.259458 
L 193.821067 403.365098 
L 193.522397 408.470738 
L 192.558438 413.576378 
L 192.105222 415.004306 
L 191.398024 418.682017 
L 190.056577 423.787657 
L 188.321402 428.893297 
L 186.092827 433.998937 
L 183.178935 439.104577 
L 179.231559 444.210217 
L 178.895522 444.573234 
L 176.069048 449.315857 
L 172.028212 454.421497 
L 166.249084 459.527136 
L 165.685822 459.953811 
L 161.270596 464.632776 
L 154.409818 469.738416 
L 152.476122 470.948066 
L 147.445311 474.844056 
L 139.266422 479.4829 
L 138.502492 479.949696 
L 129.313555 485.055336 
L 126.056722 486.604424 
L 118.163654 490.160976 
L 112.847022 492.384547 
L 104.370162 495.266615 
L 99.637322 496.947399 
L 86.427622 500.189512 
L 85.003864 500.372255 
L 73.217922 502.362575 
L 60.008222 502.464117 
z
" clip-path="url(#pee202249fc)" style="fill: #d7e9d7; fill-opacity: 0.5"/>
    <path d="M 60.008222 502.464117 
L 73.217922 502.362575 
L 85.003864 500.372255 
L 86.427622 500.189512 
L 99.637322 496.947399 
L 104.370162 495.266615 
L 112.847022 492.384547 
L 118.163654 490.160976 
L 126.056722 486.604424 
L 129.313555 485.055336 
L 138.502492 479.949696 
L 139.266422 479.4829 
L 147.445311 474.844056 
L 152.476122 470.948066 
L 154.409818 469.738416 
L 161.270596 464.632776 
L 165.685822 459.953811 
L 166.249084 459.527136 
L 172.028212 454.421497 
L 176.069048 449.315857 
L 178.895522 444.573234 
L 179.231559 444.210217 
L 183.178935 439.104577 
L 186.092827 433.998937 
L 188.321402 428.893297 
L 190.056577 423.787657 
L 191.398024 418.682017 
L 192.105222 415.004306 
L 192.558438 413.576378 
L 193.522397 408.470738 
L 193.821067 403.365098 
L 193.463892 398.259458 
L 192.484014 393.153818 
L 192.105222 391.80764 
L 191.315488 388.048178 
L 189.932199 382.942538 
L 188.284304 377.836899 
L 186.451759 372.731259 
L 184.518119 367.625619 
L 182.542565 362.519979 
L 180.542943 357.414339 
L 178.895522 353.072469 
L 178.579698 352.308699 
L 176.988025 347.203059 
L 176.127759 342.097419 
L 176.103054 336.99178 
L 176.625199 331.88614 
L 177.232126 326.7805 
L 177.451912 321.67486 
L 176.838787 316.56922 
L 174.948249 311.46358 
L 171.198986 306.35794 
L 165.685822 301.989117 
L 164.028185 301.252301 
L 152.476122 297.581725 
L 139.266422 296.883809 
L 126.056722 299.393751 
L 121.989755 301.252301 
L 112.847022 305.876055 
L 112.226117 306.35794 
L 106.330217 311.46358 
L 101.379015 316.56922 
L 99.637322 318.598217 
L 97.450308 321.67486 
L 94.211667 326.7805 
L 91.341759 331.88614 
L 88.758604 336.99178 
L 86.427622 342.097419 
L 86.427622 342.097419 
L 84.468863 347.203059 
L 82.986111 352.308699 
L 81.89202 357.414339 
L 80.904147 362.519979 
L 79.589234 367.625619 
L 77.643789 372.731259 
L 75.110834 377.836899 
L 73.217922 381.014096 
L 71.943652 382.942538 
L 68.077702 388.048178 
L 64.412025 393.153818 
L 61.10587 398.259458 
L 60.008222 400.002854 
L 57.280551 403.365098 
L 53.551661 408.470738 
L 50.425807 413.576378 
L 47.811983 418.682017 
L 46.798522 420.884872 
L 44.832317 423.787657 
L 41.848152 428.893297 
L 39.432649 433.998937 
L 37.474668 439.104577 
L 35.887983 444.210217 
L 34.610153 449.315857 
L 33.601355 454.421497 
L 33.588822 454.505321 
L 32.344972 459.527136 
L 31.579615 464.632776 
L 31.32744 469.738416 
L 31.628622 474.844056 
L 32.569714 479.949696 
L 33.588822 483.008196 
L 34.120072 485.055336 
L 36.406994 490.160976 
L 40.755224 495.266615 
L 46.798522 499.138918 
L 50.64462 500.372255 
z
M 60.302341 495.266615 
L 60.008222 495.226659 
L 50.00343 490.160976 
L 46.798522 486.858173 
L 45.354865 485.055336 
L 42.685875 479.949696 
L 41.174943 474.844056 
L 40.441813 469.738416 
L 40.307227 464.632776 
L 40.681793 459.527136 
L 41.519317 454.421497 
L 42.803211 449.315857 
L 44.546716 444.210217 
L 46.798522 439.104577 
L 46.798522 439.104577 
L 48.588333 433.998937 
L 50.754218 428.893297 
L 53.38383 423.787657 
L 56.589911 418.682017 
L 60.008222 414.152955 
L 60.349867 413.576378 
L 63.552203 408.470738 
L 67.337164 403.365098 
L 71.807497 398.259458 
L 73.217922 396.7102 
L 76.145445 393.153818 
L 80.686322 388.048178 
L 85.711837 382.942538 
L 86.427622 382.151062 
L 90.613543 377.836899 
L 95.490227 372.731259 
L 99.637322 367.997041 
L 100.08396 367.625619 
L 104.560586 362.519979 
L 107.935104 357.414339 
L 110.02945 352.308699 
L 111.475021 347.203059 
L 112.847022 343.202363 
L 113.743721 342.097419 
L 119.001825 336.99178 
L 124.521507 331.88614 
L 126.056722 330.674696 
L 139.266422 331.696608 
L 139.402461 331.88614 
L 140.923702 336.99178 
L 141.348523 342.097419 
L 142.311368 347.203059 
L 145.718864 352.308699 
L 152.476122 356.950021 
L 152.912649 357.414339 
L 159.081141 362.519979 
L 165.009616 367.625619 
L 165.685822 368.209817 
L 169.470856 372.731259 
L 173.161455 377.836899 
L 176.176176 382.942538 
L 178.546292 388.048178 
L 178.895522 388.955616 
L 180.682491 393.153818 
L 182.296255 398.259458 
L 183.28213 403.365098 
L 183.628845 408.470738 
L 183.350368 413.576378 
L 182.468962 418.682017 
L 180.986688 423.787657 
L 178.895522 428.8002 
L 178.869258 428.893297 
L 177.051411 433.998937 
L 174.74507 439.104577 
L 171.761503 444.210217 
L 167.768169 449.315857 
L 165.685822 451.421776 
L 163.511028 454.421497 
L 158.870654 459.527136 
L 152.476122 464.561906 
L 152.401364 464.632776 
L 146.368291 469.738416 
L 139.266422 474.146476 
L 138.204447 474.844056 
L 129.525873 479.949696 
L 126.056722 481.69147 
L 118.83726 485.055336 
L 112.847022 487.632119 
L 105.367632 490.160976 
L 99.637322 492.172659 
L 86.427622 495.1651 
L 85.253666 495.266615 
L 73.217922 496.627617 
z
" clip-path="url(#pee202249fc)" style="fill: #c6e1c6; fill-opacity: 0.5"/>
    <path d="M 73.217922 496.627617 
L 85.253666 495.266615 
L 86.427622 495.1651 
L 99.637322 492.172659 
L 105.367632 490.160976 
L 112.847022 487.632119 
L 118.83726 485.055336 
L 126.056722 481.69147 
L 129.525873 479.949696 
L 138.204447 474.844056 
L 139.266422 474.146476 
L 146.368291 469.738416 
L 152.401364 464.632776 
L 152.476122 464.561906 
L 158.870654 459.527136 
L 163.511028 454.421497 
L 165.685822 451.421776 
L 167.768169 449.315857 
L 171.761503 444.210217 
L 174.74507 439.104577 
L 177.051411 433.998937 
L 178.869258 428.893297 
L 178.895522 428.8002 
L 180.986688 423.787657 
L 182.468962 418.682017 
L 183.350368 413.576378 
L 183.628845 408.470738 
L 183.28213 403.365098 
L 182.296255 398.259458 
L 180.682491 393.153818 
L 178.895522 388.955616 
L 178.546292 388.048178 
L 176.176176 382.942538 
L 173.161455 377.836899 
L 169.470856 372.731259 
L 165.685822 368.209817 
L 165.009616 367.625619 
L 159.081141 362.519979 
L 152.912649 357.414339 
L 152.476122 356.950021 
L 145.718864 352.308699 
L 142.311368 347.203059 
L 141.348523 342.097419 
L 140.923702 336.99178 
L 139.402461 331.88614 
L 139.266422 331.696608 
L 126.056722 330.674696 
L 124.521507 331.88614 
L 119.001825 336.99178 
L 113.743721 342.097419 
L 112.847022 343.202363 
L 111.475021 347.203059 
L 110.02945 352.308699 
L 107.935104 357.414339 
L 104.560586 362.519979 
L 100.08396 367.625619 
L 99.637322 367.997041 
L 95.490227 372.731259 
L 90.613543 377.836899 
L 86.427622 382.151062 
L 85.711837 382.942538 
L 80.686322 388.048178 
L 76.145445 393.153818 
L 73.217922 396.7102 
L 71.807497 398.259458 
L 67.337164 403.365098 
L 63.552203 408.470738 
L 60.349867 413.576378 
L 60.008222 414.152955 
L 56.589911 418.682017 
L 53.38383 423.787657 
L 50.754218 428.893297 
L 48.588333 433.998937 
L 46.798522 439.104577 
L 46.798522 439.104577 
L 44.546716 444.210217 
L 42.803211 449.315857 
L 41.519317 454.421497 
L 40.681793 459.527136 
L 40.307227 464.632776 
L 40.441813 469.738416 
L 41.174943 474.844056 
L 42.685875 479.949696 
L 45.354865 485.055336 
L 46.798522 486.858173 
L 50.00343 490.160976 
L 60.008222 495.226659 
L 60.302341 495.266615 
z
M 59.261423 485.055336 
L 54.499561 479.949696 
L 51.898988 474.844056 
L 50.523681 469.738416 
L 49.958788 464.632776 
L 50.007661 459.527136 
L 50.564616 454.421497 
L 51.570752 449.315857 
L 53.004303 444.210217 
L 54.879602 439.104577 
L 57.247699 433.998937 
L 60.008222 429.198782 
L 60.148756 428.893297 
L 62.772439 423.787657 
L 65.899729 418.682017 
L 69.655703 413.576378 
L 73.217922 409.456607 
L 74.002176 408.470738 
L 78.305042 403.365098 
L 83.330846 398.259458 
L 86.427622 395.376815 
L 89.017429 393.153818 
L 95.241063 388.048178 
L 99.637322 384.664768 
L 102.65503 382.942538 
L 111.516303 377.836899 
L 112.847022 377.026546 
L 126.056722 372.916995 
L 139.266422 372.833196 
L 152.476122 377.479496 
L 152.963534 377.836899 
L 159.427241 382.942538 
L 164.241036 388.048178 
L 165.685822 389.991069 
L 167.702869 393.153818 
L 170.242597 398.259458 
L 171.990233 403.365098 
L 172.995599 408.470738 
L 173.305722 413.576378 
L 172.978307 418.682017 
L 172.065739 423.787657 
L 170.587311 428.893297 
L 168.503248 433.998937 
L 165.685822 439.104577 
L 165.685822 439.104577 
L 163.046591 444.210217 
L 159.693181 449.315857 
L 155.292411 454.421497 
L 152.476122 456.997241 
L 150.137049 459.527136 
L 144.395994 464.632776 
L 139.266422 468.193525 
L 137.115575 469.738416 
L 128.909751 474.844056 
L 126.056722 476.379375 
L 118.705172 479.949696 
L 112.847022 482.565559 
L 105.403224 485.055336 
L 99.637322 487.047909 
L 86.427622 489.695475 
L 73.217922 490.021989 
L 60.008222 485.598124 
z
" clip-path="url(#pee202249fc)" style="fill: #b1d7b1; fill-opacity: 0.5"/>
    <path d="M 60.008222 485.598124 
L 73.217922 490.021989 
L 86.427622 489.695475 
L 99.637322 487.047909 
L 105.403224 485.055336 
L 112.847022 482.565559 
L 118.705172 479.949696 
L 126.056722 476.379375 
L 128.909751 474.844056 
L 137.115575 469.738416 
L 139.266422 468.193525 
L 144.395994 464.632776 
L 150.137049 459.527136 
L 152.476122 456.997241 
L 155.292411 454.421497 
L 159.693181 449.315857 
L 163.046591 444.210217 
L 165.685822 439.104577 
L 165.685822 439.104577 
L 168.503248 433.998937 
L 170.587311 428.893297 
L 172.065739 423.787657 
L 172.978307 418.682017 
L 173.305722 413.576378 
L 172.995599 408.470738 
L 171.990233 403.365098 
L 170.242597 398.259458 
L 167.702869 393.153818 
L 165.685822 389.991069 
L 164.241036 388.048178 
L 159.427241 382.942538 
L 152.963534 377.836899 
L 152.476122 377.479496 
L 139.266422 372.833196 
L 126.056722 372.916995 
L 112.847022 377.026546 
L 111.516303 377.836899 
L 102.65503 382.942538 
L 99.637322 384.664768 
L 95.241063 388.048178 
L 89.017429 393.153818 
L 86.427622 395.376815 
L 83.330846 398.259458 
L 78.305042 403.365098 
L 74.002176 408.470738 
L 73.217922 409.456607 
L 69.655703 413.576378 
L 65.899729 418.682017 
L 62.772439 423.787657 
L 60.148756 428.893297 
L 60.008222 429.198782 
L 57.247699 433.998937 
L 54.879602 439.104577 
L 53.004303 444.210217 
L 51.570752 449.315857 
L 50.564616 454.421497 
L 50.007661 459.527136 
L 49.958788 464.632776 
L 50.523681 469.738416 
L 51.898988 474.844056 
L 54.499561 479.949696 
L 59.261423 485.055336 
z
M 71.784485 479.949696 
L 65.688652 474.844056 
L 62.60539 469.738416 
L 61.114608 464.632776 
L 60.632297 459.527136 
L 60.88404 454.421497 
L 61.716491 449.315857 
L 63.042514 444.210217 
L 64.829782 439.104577 
L 67.094243 433.998937 
L 69.893725 428.893297 
L 73.217922 423.939566 
L 73.314553 423.787657 
L 76.895398 418.682017 
L 81.084917 413.576378 
L 86.046545 408.470738 
L 86.427622 408.101656 
L 91.845379 403.365098 
L 98.456799 398.259458 
L 99.637322 397.379785 
L 107.522219 393.153818 
L 112.847022 390.362023 
L 122.387532 388.048178 
L 126.056722 387.065341 
L 139.266422 388.048178 
L 139.266422 388.048178 
L 149.123722 393.153818 
L 152.476122 395.581968 
L 154.788485 398.259458 
L 158.122432 403.365098 
L 160.309831 408.470738 
L 161.510257 413.576378 
L 161.850975 418.682017 
L 161.451843 423.787657 
L 160.407709 428.893297 
L 158.759476 433.998937 
L 156.473429 439.104577 
L 153.421487 444.210217 
L 152.476122 445.460167 
L 149.910774 449.315857 
L 145.722525 454.421497 
L 140.360088 459.527136 
L 139.266422 460.397237 
L 133.981351 464.632776 
L 126.231502 469.738416 
L 126.056722 469.841175 
L 116.276678 474.844056 
L 112.847022 476.453289 
L 102.194217 479.949696 
L 99.637322 480.813695 
L 86.427622 482.723402 
L 73.217922 480.716713 
z
" clip-path="url(#pee202249fc)" style="fill: #94c994; fill-opacity: 0.5"/>
    <path d="M 73.217922 480.716713 
L 86.427622 482.723402 
L 99.637322 480.813695 
L 102.194217 479.949696 
L 112.847022 476.453289 
L 116.276678 474.844056 
L 126.056722 469.841175 
L 126.231502 469.738416 
L 133.981351 464.632776 
L 139.266422 460.397237 
L 140.360088 459.527136 
L 145.722525 454.421497 
L 149.910774 449.315857 
L 152.476122 445.460167 
L 153.421487 444.210217 
L 156.473429 439.104577 
L 158.759476 433.998937 
L 160.407709 428.893297 
L 161.451843 423.787657 
L 161.850975 418.682017 
L 161.510257 413.576378 
L 160.309831 408.470738 
L 158.122432 403.365098 
L 154.788485 398.259458 
L 152.476122 395.581968 
L 149.123722 393.153818 
L 139.266422 388.048178 
L 139.266422 388.048178 
L 126.056722 387.065341 
L 122.387532 388.048178 
L 112.847022 390.362023 
L 107.522219 393.153818 
L 99.637322 397.379785 
L 98.456799 398.259458 
L 91.845379 403.365098 
L 86.427622 408.101656 
L 86.046545 408.470738 
L 81.084917 413.576378 
L 76.895398 418.682017 
L 73.314553 423.787657 
L 73.217922 423.939566 
L 69.893725 428.893297 
L 67.094243 433.998937 
L 64.829782 439.104577 
L 63.042514 444.210217 
L 61.716491 449.315857 
L 60.88404 454.421497 
L 60.632297 459.527136 
L 61.114608 464.632776 
L 62.60539 469.738416 
L 65.688652 474.844056 
L 71.784485 479.949696 
z
M 83.611381 474.844056 
L 74.442932 469.738416 
L 73.217922 468.35134 
L 71.205983 464.632776 
L 69.832106 459.527136 
L 69.524622 454.421497 
L 70.066937 449.315857 
L 71.341077 444.210217 
L 73.217922 439.296412 
L 73.2903 439.104577 
L 75.738623 433.998937 
L 78.689011 428.893297 
L 82.214046 423.787657 
L 86.427622 418.682017 
L 86.427622 418.682017 
L 91.741428 413.576378 
L 97.751993 408.470738 
L 99.637322 406.9891 
L 106.422109 403.365098 
L 112.847022 400.023461 
L 121.823353 398.259458 
L 126.056722 397.346931 
L 131.036008 398.259458 
L 139.266422 400.141965 
L 143.466519 403.365098 
L 148.099496 408.470738 
L 150.876201 413.576378 
L 152.199161 418.682017 
L 152.371501 423.787657 
L 151.644656 428.893297 
L 150.194992 433.998937 
L 148.098018 439.104577 
L 145.326562 444.210217 
L 141.75342 449.315857 
L 139.266422 452.124048 
L 137.117497 454.421497 
L 131.488215 459.527136 
L 126.056722 463.621244 
L 124.349817 464.632776 
L 114.991042 469.738416 
L 112.847022 470.812157 
L 100.166856 474.844056 
L 99.637322 475.017107 
L 86.427622 475.723209 
z
" clip-path="url(#pee202249fc)" style="fill: #74b974; fill-opacity: 0.5"/>
    <path d="M 86.427622 475.723209 
L 99.637322 475.017107 
L 100.166856 474.844056 
L 112.847022 470.812157 
L 114.991042 469.738416 
L 124.349817 464.632776 
L 126.056722 463.621244 
L 131.488215 459.527136 
L 137.117497 454.421497 
L 139.266422 452.124048 
L 141.75342 449.315857 
L 145.326562 444.210217 
L 148.098018 439.104577 
L 150.194992 433.998937 
L 151.644656 428.893297 
L 152.371501 423.787657 
L 152.199161 418.682017 
L 150.876201 413.576378 
L 148.099496 408.470738 
L 143.466519 403.365098 
L 139.266422 400.141965 
L 131.036008 398.259458 
L 126.056722 397.346931 
L 121.823353 398.259458 
L 112.847022 400.023461 
L 106.422109 403.365098 
L 99.637322 406.9891 
L 97.751993 408.470738 
L 91.741428 413.576378 
L 86.427622 418.682017 
L 86.427622 418.682017 
L 82.214046 423.787657 
L 78.689011 428.893297 
L 75.738623 433.998937 
L 73.2903 439.104577 
L 73.217922 439.296412 
L 71.341077 444.210217 
L 70.066937 449.315857 
L 69.524622 454.421497 
L 69.832106 459.527136 
L 71.205983 464.632776 
L 73.217922 468.35134 
L 74.442932 469.738416 
L 83.611381 474.844056 
z
M 85.398722 464.632776 
L 81.650265 459.527136 
L 80.082399 454.421497 
L 79.939132 449.315857 
L 80.839414 444.210217 
L 82.579019 439.104577 
L 85.065552 433.998937 
L 86.427622 431.804452 
L 88.647044 428.893297 
L 93.111469 423.787657 
L 98.214543 418.682017 
L 99.637322 417.404072 
L 106.500414 413.576378 
L 112.847022 410.129495 
L 126.056722 408.470738 
L 136.103364 413.576378 
L 139.266422 416.52136 
L 140.407977 418.682017 
L 141.766498 423.787657 
L 141.868252 428.893297 
L 140.929493 433.998937 
L 139.266422 438.556351 
L 139.032926 439.104577 
L 135.92701 444.210217 
L 132.073671 449.315857 
L 127.354945 454.421497 
L 126.056722 455.575601 
L 120.032942 459.527136 
L 112.847022 463.885755 
L 110.142416 464.632776 
L 99.637322 467.625801 
L 86.427622 465.464042 
z
" clip-path="url(#pee202249fc)" style="fill: #52a852; fill-opacity: 0.5"/>
    <path d="M 86.427622 465.464042 
L 99.637322 467.625801 
L 110.142416 464.632776 
L 112.847022 463.885755 
L 120.032942 459.527136 
L 126.056722 455.575601 
L 127.354945 454.421497 
L 132.073671 449.315857 
L 135.92701 444.210217 
L 139.032926 439.104577 
L 139.266422 438.556351 
L 140.929493 433.998937 
L 141.868252 428.893297 
L 141.766498 423.787657 
L 140.407977 418.682017 
L 139.266422 416.52136 
L 136.103364 413.576378 
L 126.056722 408.470738 
L 112.847022 410.129495 
L 106.500414 413.576378 
L 99.637322 417.404072 
L 98.214543 418.682017 
L 93.111469 423.787657 
L 88.647044 428.893297 
L 86.427622 431.804452 
L 85.065552 433.998937 
L 82.579019 439.104577 
L 80.839414 444.210217 
L 79.939132 449.315857 
L 80.082399 454.421497 
L 81.650265 459.527136 
L 85.398722 464.632776 
z
M 92.179765 454.421497 
L 89.924522 449.315857 
L 90.209652 444.210217 
L 91.98691 439.104577 
L 94.794536 433.998937 
L 98.456092 428.893297 
L 99.637322 427.546617 
L 105.719627 423.787657 
L 112.847022 419.482806 
L 126.056722 419.990458 
L 129.412334 423.787657 
L 131.2983 428.893297 
L 131.231101 433.998937 
L 129.773663 439.104577 
L 127.216106 444.210217 
L 126.056722 445.832219 
L 122.137758 449.315857 
L 115.708742 454.421497 
L 112.847022 456.411817 
L 99.637322 459.527136 
z
" clip-path="url(#pee202249fc)" style="fill: #309730; fill-opacity: 0.5"/>
    <path d="M 99.637322 459.527136 
L 112.847022 456.411817 
L 115.708742 454.421497 
L 122.137758 449.315857 
L 126.056722 445.832219 
L 127.216106 444.210217 
L 129.773663 439.104577 
L 131.231101 433.998937 
L 131.2983 428.893297 
L 129.412334 423.787657 
L 126.056722 419.990458 
L 112.847022 419.482806 
L 105.719627 423.787657 
L 99.637322 427.546617 
L 98.456092 428.893297 
L 94.794536 433.998937 
L 91.98691 439.104577 
L 90.209652 444.210217 
L 89.924522 449.315857 
L 92.179765 454.421497 
z
" clip-path="url(#pee202249fc)" style="fill: #108810; fill-opacity: 0.5"/>
   </g>
   <g id="matplotlib.axis_1">
    <g id="xtick_1">
     <g id="line2d_1">
      <defs>
       <path id="mbf36b1866a" d="M 0 0 
L 0 3.5 
" style="stroke: #000000; stroke-width: 0.8"/>
      </defs>
      <g>
       <use xlink:href="#mbf36b1866a" x="186.551984" y="499.48" style="stroke: #000000; stroke-width: 0.8"/>
      </g>
     </g>
     <g id="text_1">
      <!-- 10 -->
      <g transform="translate(172.554484 523.196563) scale(0.22 -0.22)">
       <defs>
        <path id="DejaVuSans-31" d="M 794 531 
L 1825 531 
L 1825 4091 
L 703 3866 
L 703 4441 
L 1819 4666 
L 2450 4666 
L 2450 531 
L 3481 531 
L 3481 0 
L 794 0 
L 794 531 
z
" transform="scale(0.015625)"/>
        <path id="DejaVuSans-30" d="M 2034 4250 
Q 1547 4250 1301 3770 
Q 1056 3291 1056 2328 
Q 1056 1369 1301 889 
Q 1547 409 2034 409 
Q 2525 409 2770 889 
Q 3016 1369 3016 2328 
Q 3016 3291 2770 3770 
Q 2525 4250 2034 4250 
z
M 2034 4750 
Q 2819 4750 3233 4129 
Q 3647 3509 3647 2328 
Q 3647 1150 3233 529 
Q 2819 -91 2034 -91 
Q 1250 -91 836 529 
Q 422 1150 422 2328 
Q 422 3509 836 4129 
Q 1250 4750 2034 4750 
z
" transform="scale(0.015625)"/>
       </defs>
       <use xlink:href="#DejaVuSans-31"/>
       <use xlink:href="#DejaVuSans-30" x="63.623047"/>
      </g>
     </g>
    </g>
    <g id="xtick_2">
     <g id="line2d_2">
      <g>
       <use xlink:href="#mbf36b1866a" x="306.667788" y="499.48" style="stroke: #000000; stroke-width: 0.8"/>
      </g>
     </g>
     <g id="text_2">
      <!-- 20 -->
      <g transform="translate(292.670288 523.196563) scale(0.22 -0.22)">
       <defs>
        <path id="DejaVuSans-32" d="M 1228 531 
L 3431 531 
L 3431 0 
L 469 0 
L 469 531 
Q 828 903 1448 1529 
Q 2069 2156 2228 2338 
Q 2531 2678 2651 2914 
Q 2772 3150 2772 3378 
Q 2772 3750 2511 3984 
Q 2250 4219 1831 4219 
Q 1534 4219 1204 4116 
Q 875 4013 500 3803 
L 500 4441 
Q 881 4594 1212 4672 
Q 1544 4750 1819 4750 
Q 2544 4750 2975 4387 
Q 3406 4025 3406 3419 
Q 3406 3131 3298 2873 
Q 3191 2616 2906 2266 
Q 2828 2175 2409 1742 
Q 1991 1309 1228 531 
z
" transform="scale(0.015625)"/>
       </defs>
       <use xlink:href="#DejaVuSans-32"/>
       <use xlink:href="#DejaVuSans-30" x="63.623047"/>
      </g>
     </g>
    </g>
    <g id="xtick_3">
     <g id="line2d_3">
      <g>
       <use xlink:href="#mbf36b1866a" x="426.783593" y="499.48" style="stroke: #000000; stroke-width: 0.8"/>
      </g>
     </g>
     <g id="text_3">
      <!-- 30 -->
      <g transform="translate(412.786093 523.196563) scale(0.22 -0.22)">
       <defs>
        <path id="DejaVuSans-33" d="M 2597 2516 
Q 3050 2419 3304 2112 
Q 3559 1806 3559 1356 
Q 3559 666 3084 287 
Q 2609 -91 1734 -91 
Q 1441 -91 1130 -33 
Q 819 25 488 141 
L 488 750 
Q 750 597 1062 519 
Q 1375 441 1716 441 
Q 2309 441 2620 675 
Q 2931 909 2931 1356 
Q 2931 1769 2642 2001 
Q 2353 2234 1838 2234 
L 1294 2234 
L 1294 2753 
L 1863 2753 
Q 2328 2753 2575 2939 
Q 2822 3125 2822 3475 
Q 2822 3834 2567 4026 
Q 2313 4219 1838 4219 
Q 1578 4219 1281 4162 
Q 984 4106 628 3988 
L 628 4550 
Q 988 4650 1302 4700 
Q 1616 4750 1894 4750 
Q 2613 4750 3031 4423 
Q 3450 4097 3450 3541 
Q 3450 3153 3228 2886 
Q 3006 2619 2597 2516 
z
" transform="scale(0.015625)"/>
       </defs>
       <use xlink:href="#DejaVuSans-33"/>
       <use xlink:href="#DejaVuSans-30" x="63.623047"/>
      </g>
     </g>
    </g>
    <g id="xtick_4">
     <g id="line2d_4">
      <g>
       <use xlink:href="#mbf36b1866a" x="546.899398" y="499.48" style="stroke: #000000; stroke-width: 0.8"/>
      </g>
     </g>
     <g id="text_4">
      <!-- 40 -->
      <g transform="translate(532.901898 523.196563) scale(0.22 -0.22)">
       <defs>
        <path id="DejaVuSans-34" d="M 2419 4116 
L 825 1625 
L 2419 1625 
L 2419 4116 
z
M 2253 4666 
L 3047 4666 
L 3047 1625 
L 3713 1625 
L 3713 1100 
L 3047 1100 
L 3047 0 
L 2419 0 
L 2419 1100 
L 313 1100 
L 313 1709 
L 2253 4666 
z
" transform="scale(0.015625)"/>
       </defs>
       <use xlink:href="#DejaVuSans-34"/>
       <use xlink:href="#DejaVuSans-30" x="63.623047"/>
      </g>
     </g>
    </g>
    <g id="xtick_5">
     <g id="line2d_5">
      <g>
       <use xlink:href="#mbf36b1866a" x="667.015203" y="499.48" style="stroke: #000000; stroke-width: 0.8"/>
      </g>
     </g>
     <g id="text_5">
      <!-- 50 -->
      <g transform="translate(653.017703 523.196563) scale(0.22 -0.22)">
       <defs>
        <path id="DejaVuSans-35" d="M 691 4666 
L 3169 4666 
L 3169 4134 
L 1269 4134 
L 1269 2991 
Q 1406 3038 1543 3061 
Q 1681 3084 1819 3084 
Q 2600 3084 3056 2656 
Q 3513 2228 3513 1497 
Q 3513 744 3044 326 
Q 2575 -91 1722 -91 
Q 1428 -91 1123 -41 
Q 819 9 494 109 
L 494 744 
Q 775 591 1075 516 
Q 1375 441 1709 441 
Q 2250 441 2565 725 
Q 2881 1009 2881 1497 
Q 2881 1984 2565 2268 
Q 2250 2553 1709 2553 
Q 1456 2553 1204 2497 
Q 953 2441 691 2322 
L 691 4666 
z
" transform="scale(0.015625)"/>
       </defs>
       <use xlink:href="#DejaVuSans-35"/>
       <use xlink:href="#DejaVuSans-30" x="63.623047"/>
      </g>
     </g>
    </g>
    <g id="text_6">
     <!-- Energy Uncertainties -->
     <g transform="translate(274.662187 548.488438) scale(0.22 -0.22)">
      <defs>
       <path id="DejaVuSans-45" d="M 628 4666 
L 3578 4666 
L 3578 4134 
L 1259 4134 
L 1259 2753 
L 3481 2753 
L 3481 2222 
L 1259 2222 
L 1259 531 
L 3634 531 
L 3634 0 
L 628 0 
L 628 4666 
z
" transform="scale(0.015625)"/>
       <path id="DejaVuSans-6e" d="M 3513 2113 
L 3513 0 
L 2938 0 
L 2938 2094 
Q 2938 2591 2744 2837 
Q 2550 3084 2163 3084 
Q 1697 3084 1428 2787 
Q 1159 2491 1159 1978 
L 1159 0 
L 581 0 
L 581 3500 
L 1159 3500 
L 1159 2956 
Q 1366 3272 1645 3428 
Q 1925 3584 2291 3584 
Q 2894 3584 3203 3211 
Q 3513 2838 3513 2113 
z
" transform="scale(0.015625)"/>
       <path id="DejaVuSans-65" d="M 3597 1894 
L 3597 1613 
L 953 1613 
Q 991 1019 1311 708 
Q 1631 397 2203 397 
Q 2534 397 2845 478 
Q 3156 559 3463 722 
L 3463 178 
Q 3153 47 2828 -22 
Q 2503 -91 2169 -91 
Q 1331 -91 842 396 
Q 353 884 353 1716 
Q 353 2575 817 3079 
Q 1281 3584 2069 3584 
Q 2775 3584 3186 3129 
Q 3597 2675 3597 1894 
z
M 3022 2063 
Q 3016 2534 2758 2815 
Q 2500 3097 2075 3097 
Q 1594 3097 1305 2825 
Q 1016 2553 972 2059 
L 3022 2063 
z
" transform="scale(0.015625)"/>
       <path id="DejaVuSans-72" d="M 2631 2963 
Q 2534 3019 2420 3045 
Q 2306 3072 2169 3072 
Q 1681 3072 1420 2755 
Q 1159 2438 1159 1844 
L 1159 0 
L 581 0 
L 581 3500 
L 1159 3500 
L 1159 2956 
Q 1341 3275 1631 3429 
Q 1922 3584 2338 3584 
Q 2397 3584 2469 3576 
Q 2541 3569 2628 3553 
L 2631 2963 
z
" transform="scale(0.015625)"/>
       <path id="DejaVuSans-67" d="M 2906 1791 
Q 2906 2416 2648 2759 
Q 2391 3103 1925 3103 
Q 1463 3103 1205 2759 
Q 947 2416 947 1791 
Q 947 1169 1205 825 
Q 1463 481 1925 481 
Q 2391 481 2648 825 
Q 2906 1169 2906 1791 
z
M 3481 434 
Q 3481 -459 3084 -895 
Q 2688 -1331 1869 -1331 
Q 1566 -1331 1297 -1286 
Q 1028 -1241 775 -1147 
L 775 -588 
Q 1028 -725 1275 -790 
Q 1522 -856 1778 -856 
Q 2344 -856 2625 -561 
Q 2906 -266 2906 331 
L 2906 616 
Q 2728 306 2450 153 
Q 2172 0 1784 0 
Q 1141 0 747 490 
Q 353 981 353 1791 
Q 353 2603 747 3093 
Q 1141 3584 1784 3584 
Q 2172 3584 2450 3431 
Q 2728 3278 2906 2969 
L 2906 3500 
L 3481 3500 
L 3481 434 
z
" transform="scale(0.015625)"/>
       <path id="DejaVuSans-79" d="M 2059 -325 
Q 1816 -950 1584 -1140 
Q 1353 -1331 966 -1331 
L 506 -1331 
L 506 -850 
L 844 -850 
Q 1081 -850 1212 -737 
Q 1344 -625 1503 -206 
L 1606 56 
L 191 3500 
L 800 3500 
L 1894 763 
L 2988 3500 
L 3597 3500 
L 2059 -325 
z
" transform="scale(0.015625)"/>
       <path id="DejaVuSans-20" transform="scale(0.015625)"/>
       <path id="DejaVuSans-55" d="M 556 4666 
L 1191 4666 
L 1191 1831 
Q 1191 1081 1462 751 
Q 1734 422 2344 422 
Q 2950 422 3222 751 
Q 3494 1081 3494 1831 
L 3494 4666 
L 4128 4666 
L 4128 1753 
Q 4128 841 3676 375 
Q 3225 -91 2344 -91 
Q 1459 -91 1007 375 
Q 556 841 556 1753 
L 556 4666 
z
" transform="scale(0.015625)"/>
       <path id="DejaVuSans-63" d="M 3122 3366 
L 3122 2828 
Q 2878 2963 2633 3030 
Q 2388 3097 2138 3097 
Q 1578 3097 1268 2742 
Q 959 2388 959 1747 
Q 959 1106 1268 751 
Q 1578 397 2138 397 
Q 2388 397 2633 464 
Q 2878 531 3122 666 
L 3122 134 
Q 2881 22 2623 -34 
Q 2366 -91 2075 -91 
Q 1284 -91 818 406 
Q 353 903 353 1747 
Q 353 2603 823 3093 
Q 1294 3584 2113 3584 
Q 2378 3584 2631 3529 
Q 2884 3475 3122 3366 
z
" transform="scale(0.015625)"/>
       <path id="DejaVuSans-74" d="M 1172 4494 
L 1172 3500 
L 2356 3500 
L 2356 3053 
L 1172 3053 
L 1172 1153 
Q 1172 725 1289 603 
Q 1406 481 1766 481 
L 2356 481 
L 2356 0 
L 1766 0 
Q 1100 0 847 248 
Q 594 497 594 1153 
L 594 3053 
L 172 3053 
L 172 3500 
L 594 3500 
L 594 4494 
L 1172 4494 
z
" transform="scale(0.015625)"/>
       <path id="DejaVuSans-61" d="M 2194 1759 
Q 1497 1759 1228 1600 
Q 959 1441 959 1056 
Q 959 750 1161 570 
Q 1363 391 1709 391 
Q 2188 391 2477 730 
Q 2766 1069 2766 1631 
L 2766 1759 
L 2194 1759 
z
M 3341 1997 
L 3341 0 
L 2766 0 
L 2766 531 
Q 2569 213 2275 61 
Q 1981 -91 1556 -91 
Q 1019 -91 701 211 
Q 384 513 384 1019 
Q 384 1609 779 1909 
Q 1175 2209 1959 2209 
L 2766 2209 
L 2766 2266 
Q 2766 2663 2505 2880 
Q 2244 3097 1772 3097 
Q 1472 3097 1187 3025 
Q 903 2953 641 2809 
L 641 3341 
Q 956 3463 1253 3523 
Q 1550 3584 1831 3584 
Q 2591 3584 2966 3190 
Q 3341 2797 3341 1997 
z
" transform="scale(0.015625)"/>
       <path id="DejaVuSans-69" d="M 603 3500 
L 1178 3500 
L 1178 0 
L 603 0 
L 603 3500 
z
M 603 4863 
L 1178 4863 
L 1178 4134 
L 603 4134 
L 603 4863 
z
" transform="scale(0.015625)"/>
       <path id="DejaVuSans-73" d="M 2834 3397 
L 2834 2853 
Q 2591 2978 2328 3040 
Q 2066 3103 1784 3103 
Q 1356 3103 1142 2972 
Q 928 2841 928 2578 
Q 928 2378 1081 2264 
Q 1234 2150 1697 2047 
L 1894 2003 
Q 2506 1872 2764 1633 
Q 3022 1394 3022 966 
Q 3022 478 2636 193 
Q 2250 -91 1575 -91 
Q 1294 -91 989 -36 
Q 684 19 347 128 
L 347 722 
Q 666 556 975 473 
Q 1284 391 1588 391 
Q 1994 391 2212 530 
Q 2431 669 2431 922 
Q 2431 1156 2273 1281 
Q 2116 1406 1581 1522 
L 1381 1569 
Q 847 1681 609 1914 
Q 372 2147 372 2553 
Q 372 3047 722 3315 
Q 1072 3584 1716 3584 
Q 2034 3584 2315 3537 
Q 2597 3491 2834 3397 
z
" transform="scale(0.015625)"/>
      </defs>
      <use xlink:href="#DejaVuSans-45"/>
      <use xlink:href="#DejaVuSans-6e" x="63.183594"/>
      <use xlink:href="#DejaVuSans-65" x="126.5625"/>
      <use xlink:href="#DejaVuSans-72" x="188.085938"/>
      <use xlink:href="#DejaVuSans-67" x="227.449219"/>
      <use xlink:href="#DejaVuSans-79" x="290.925781"/>
      <use xlink:href="#DejaVuSans-20" x="350.105469"/>
      <use xlink:href="#DejaVuSans-55" x="381.892578"/>
      <use xlink:href="#DejaVuSans-6e" x="455.085938"/>
      <use xlink:href="#DejaVuSans-63" x="518.464844"/>
      <use xlink:href="#DejaVuSans-65" x="573.445312"/>
      <use xlink:href="#DejaVuSans-72" x="634.96875"/>
      <use xlink:href="#DejaVuSans-74" x="676.082031"/>
      <use xlink:href="#DejaVuSans-61" x="715.291016"/>
      <use xlink:href="#DejaVuSans-69" x="776.570312"/>
      <use xlink:href="#DejaVuSans-6e" x="804.353516"/>
      <use xlink:href="#DejaVuSans-74" x="867.732422"/>
      <use xlink:href="#DejaVuSans-69" x="906.941406"/>
      <use xlink:href="#DejaVuSans-65" x="934.724609"/>
      <use xlink:href="#DejaVuSans-73" x="996.248047"/>
     </g>
    </g>
   </g>
   <g id="matplotlib.axis_2">
    <g id="ytick_1">
     <g id="line2d_6">
      <defs>
       <path id="mb7170da3c2" d="M 0 0 
L -3.5 0 
" style="stroke: #000000; stroke-width: 0.8"/>
      </defs>
      <g>
       <use xlink:href="#mb7170da3c2" x="83.72" y="419.614475" style="stroke: #000000; stroke-width: 0.8"/>
      </g>
     </g>
     <g id="text_7">
      <!-- 10 -->
      <g transform="translate(48.725 427.972756) scale(0.22 -0.22)">
       <use xlink:href="#DejaVuSans-31"/>
       <use xlink:href="#DejaVuSans-30" x="63.623047"/>
      </g>
     </g>
    </g>
    <g id="ytick_2">
     <g id="line2d_7">
      <g>
       <use xlink:href="#mb7170da3c2" x="83.72" y="326.325292" style="stroke: #000000; stroke-width: 0.8"/>
      </g>
     </g>
     <g id="text_8">
      <!-- 20 -->
      <g transform="translate(48.725 334.683573) scale(0.22 -0.22)">
       <use xlink:href="#DejaVuSans-32"/>
       <use xlink:href="#DejaVuSans-30" x="63.623047"/>
      </g>
     </g>
    </g>
    <g id="ytick_3">
     <g id="line2d_8">
      <g>
       <use xlink:href="#mb7170da3c2" x="83.72" y="233.036108" style="stroke: #000000; stroke-width: 0.8"/>
      </g>
     </g>
     <g id="text_9">
      <!-- 30 -->
      <g transform="translate(48.725 241.394389) scale(0.22 -0.22)">
       <use xlink:href="#DejaVuSans-33"/>
       <use xlink:href="#DejaVuSans-30" x="63.623047"/>
      </g>
     </g>
    </g>
    <g id="ytick_4">
     <g id="line2d_9">
      <g>
       <use xlink:href="#mb7170da3c2" x="83.72" y="139.746925" style="stroke: #000000; stroke-width: 0.8"/>
      </g>
     </g>
     <g id="text_10">
      <!-- 40 -->
      <g transform="translate(48.725 148.105206) scale(0.22 -0.22)">
       <use xlink:href="#DejaVuSans-34"/>
       <use xlink:href="#DejaVuSans-30" x="63.623047"/>
      </g>
     </g>
    </g>
    <g id="ytick_5">
     <g id="line2d_10">
      <g>
       <use xlink:href="#mb7170da3c2" x="83.72" y="46.457741" style="stroke: #000000; stroke-width: 0.8"/>
      </g>
     </g>
     <g id="text_11">
      <!-- 50 -->
      <g transform="translate(48.725 54.816023) scale(0.22 -0.22)">
       <use xlink:href="#DejaVuSans-35"/>
       <use xlink:href="#DejaVuSans-30" x="63.623047"/>
      </g>
     </g>
    </g>
    <g id="text_12">
     <!-- Force Errors [kJ/(mol*A)] -->
     <g transform="translate(40.149688 394.9125) rotate(-90) scale(0.22 -0.22)">
      <defs>
       <path id="DejaVuSans-46" d="M 628 4666 
L 3309 4666 
L 3309 4134 
L 1259 4134 
L 1259 2759 
L 3109 2759 
L 3109 2228 
L 1259 2228 
L 1259 0 
L 628 0 
L 628 4666 
z
" transform="scale(0.015625)"/>
       <path id="DejaVuSans-6f" d="M 1959 3097 
Q 1497 3097 1228 2736 
Q 959 2375 959 1747 
Q 959 1119 1226 758 
Q 1494 397 1959 397 
Q 2419 397 2687 759 
Q 2956 1122 2956 1747 
Q 2956 2369 2687 2733 
Q 2419 3097 1959 3097 
z
M 1959 3584 
Q 2709 3584 3137 3096 
Q 3566 2609 3566 1747 
Q 3566 888 3137 398 
Q 2709 -91 1959 -91 
Q 1206 -91 779 398 
Q 353 888 353 1747 
Q 353 2609 779 3096 
Q 1206 3584 1959 3584 
z
" transform="scale(0.015625)"/>
       <path id="DejaVuSans-5b" d="M 550 4863 
L 1875 4863 
L 1875 4416 
L 1125 4416 
L 1125 -397 
L 1875 -397 
L 1875 -844 
L 550 -844 
L 550 4863 
z
" transform="scale(0.015625)"/>
       <path id="DejaVuSans-6b" d="M 581 4863 
L 1159 4863 
L 1159 1991 
L 2875 3500 
L 3609 3500 
L 1753 1863 
L 3688 0 
L 2938 0 
L 1159 1709 
L 1159 0 
L 581 0 
L 581 4863 
z
" transform="scale(0.015625)"/>
       <path id="DejaVuSans-4a" d="M 628 4666 
L 1259 4666 
L 1259 325 
Q 1259 -519 939 -900 
Q 619 -1281 -91 -1281 
L -331 -1281 
L -331 -750 
L -134 -750 
Q 284 -750 456 -515 
Q 628 -281 628 325 
L 628 4666 
z
" transform="scale(0.015625)"/>
       <path id="DejaVuSans-2f" d="M 1625 4666 
L 2156 4666 
L 531 -594 
L 0 -594 
L 1625 4666 
z
" transform="scale(0.015625)"/>
       <path id="DejaVuSans-28" d="M 1984 4856 
Q 1566 4138 1362 3434 
Q 1159 2731 1159 2009 
Q 1159 1288 1364 580 
Q 1569 -128 1984 -844 
L 1484 -844 
Q 1016 -109 783 600 
Q 550 1309 550 2009 
Q 550 2706 781 3412 
Q 1013 4119 1484 4856 
L 1984 4856 
z
" transform="scale(0.015625)"/>
       <path id="DejaVuSans-6d" d="M 3328 2828 
Q 3544 3216 3844 3400 
Q 4144 3584 4550 3584 
Q 5097 3584 5394 3201 
Q 5691 2819 5691 2113 
L 5691 0 
L 5113 0 
L 5113 2094 
Q 5113 2597 4934 2840 
Q 4756 3084 4391 3084 
Q 3944 3084 3684 2787 
Q 3425 2491 3425 1978 
L 3425 0 
L 2847 0 
L 2847 2094 
Q 2847 2600 2669 2842 
Q 2491 3084 2119 3084 
Q 1678 3084 1418 2786 
Q 1159 2488 1159 1978 
L 1159 0 
L 581 0 
L 581 3500 
L 1159 3500 
L 1159 2956 
Q 1356 3278 1631 3431 
Q 1906 3584 2284 3584 
Q 2666 3584 2933 3390 
Q 3200 3197 3328 2828 
z
" transform="scale(0.015625)"/>
       <path id="DejaVuSans-6c" d="M 603 4863 
L 1178 4863 
L 1178 0 
L 603 0 
L 603 4863 
z
" transform="scale(0.015625)"/>
       <path id="DejaVuSans-2a" d="M 3009 3897 
L 1888 3291 
L 3009 2681 
L 2828 2375 
L 1778 3009 
L 1778 1831 
L 1422 1831 
L 1422 3009 
L 372 2375 
L 191 2681 
L 1313 3291 
L 191 3897 
L 372 4206 
L 1422 3572 
L 1422 4750 
L 1778 4750 
L 1778 3572 
L 2828 4206 
L 3009 3897 
z
" transform="scale(0.015625)"/>
       <path id="DejaVuSans-41" d="M 2188 4044 
L 1331 1722 
L 3047 1722 
L 2188 4044 
z
M 1831 4666 
L 2547 4666 
L 4325 0 
L 3669 0 
L 3244 1197 
L 1141 1197 
L 716 0 
L 50 0 
L 1831 4666 
z
" transform="scale(0.015625)"/>
       <path id="DejaVuSans-29" d="M 513 4856 
L 1013 4856 
Q 1481 4119 1714 3412 
Q 1947 2706 1947 2009 
Q 1947 1309 1714 600 
Q 1481 -109 1013 -844 
L 513 -844 
Q 928 -128 1133 580 
Q 1338 1288 1338 2009 
Q 1338 2731 1133 3434 
Q 928 4138 513 4856 
z
" transform="scale(0.015625)"/>
       <path id="DejaVuSans-5d" d="M 1947 4863 
L 1947 -844 
L 622 -844 
L 622 -397 
L 1369 -397 
L 1369 4416 
L 622 4416 
L 622 4863 
L 1947 4863 
z
" transform="scale(0.015625)"/>
      </defs>
      <use xlink:href="#DejaVuSans-46"/>
      <use xlink:href="#DejaVuSans-6f" x="53.894531"/>
      <use xlink:href="#DejaVuSans-72" x="115.076172"/>
      <use xlink:href="#DejaVuSans-63" x="153.939453"/>
      <use xlink:href="#DejaVuSans-65" x="208.919922"/>
      <use xlink:href="#DejaVuSans-20" x="270.443359"/>
      <use xlink:href="#DejaVuSans-45" x="302.230469"/>
      <use xlink:href="#DejaVuSans-72" x="365.414062"/>
      <use xlink:href="#DejaVuSans-72" x="404.777344"/>
      <use xlink:href="#DejaVuSans-6f" x="443.640625"/>
      <use xlink:href="#DejaVuSans-72" x="504.822266"/>
      <use xlink:href="#DejaVuSans-73" x="545.935547"/>
      <use xlink:href="#DejaVuSans-20" x="598.035156"/>
      <use xlink:href="#DejaVuSans-5b" x="629.822266"/>
      <use xlink:href="#DejaVuSans-6b" x="668.835938"/>
      <use xlink:href="#DejaVuSans-4a" x="726.746094"/>
      <use xlink:href="#DejaVuSans-2f" x="756.238281"/>
      <use xlink:href="#DejaVuSans-28" x="789.929688"/>
      <use xlink:href="#DejaVuSans-6d" x="828.943359"/>
      <use xlink:href="#DejaVuSans-6f" x="926.355469"/>
      <use xlink:href="#DejaVuSans-6c" x="987.537109"/>
      <use xlink:href="#DejaVuSans-2a" x="1015.320312"/>
      <use xlink:href="#DejaVuSans-41" x="1065.320312"/>
      <use xlink:href="#DejaVuSans-29" x="1133.728516"/>
      <use xlink:href="#DejaVuSans-5d" x="1172.742188"/>
     </g>
    </g>
   </g>
   <g id="line2d_11">
    <path d="M 83.72 499.48 
L 696.24 23.76 
" clip-path="url(#pee202249fc)" style="fill: none; stroke-dasharray: 5.55,2.4; stroke-dashoffset: 0; stroke: #ff0000; stroke-width: 1.5"/>
   </g>
   <g id="patch_3">
    <path d="M 83.72 499.48 
L 83.72 23.76 
" style="fill: none; stroke: #000000; stroke-width: 0.8; stroke-linejoin: miter; stroke-linecap: square"/>
   </g>
   <g id="patch_4">
    <path d="M 696.24 499.48 
L 696.24 23.76 
" style="fill: none; stroke: #000000; stroke-width: 0.8; stroke-linejoin: miter; stroke-linecap: square"/>
   </g>
   <g id="patch_5">
    <path d="M 83.72 499.48 
L 696.24 499.48 
" style="fill: none; stroke: #000000; stroke-width: 0.8; stroke-linejoin: miter; stroke-linecap: square"/>
   </g>
   <g id="patch_6">
    <path d="M 83.72 23.76 
L 696.24 23.76 
" style="fill: none; stroke: #000000; stroke-width: 0.8; stroke-linejoin: miter; stroke-linecap: square"/>
   </g>
   <g id="text_13">
    <!-- Correlation in: 0.294 -->
    <g transform="translate(132.7216 46.696812) scale(0.22 -0.22)">
     <defs>
      <path id="DejaVuSans-43" d="M 4122 4306 
L 4122 3641 
Q 3803 3938 3442 4084 
Q 3081 4231 2675 4231 
Q 1875 4231 1450 3742 
Q 1025 3253 1025 2328 
Q 1025 1406 1450 917 
Q 1875 428 2675 428 
Q 3081 428 3442 575 
Q 3803 722 4122 1019 
L 4122 359 
Q 3791 134 3420 21 
Q 3050 -91 2638 -91 
Q 1578 -91 968 557 
Q 359 1206 359 2328 
Q 359 3453 968 4101 
Q 1578 4750 2638 4750 
Q 3056 4750 3426 4639 
Q 3797 4528 4122 4306 
z
" transform="scale(0.015625)"/>
      <path id="DejaVuSans-3a" d="M 750 794 
L 1409 794 
L 1409 0 
L 750 0 
L 750 794 
z
M 750 3309 
L 1409 3309 
L 1409 2516 
L 750 2516 
L 750 3309 
z
" transform="scale(0.015625)"/>
      <path id="DejaVuSans-2e" d="M 684 794 
L 1344 794 
L 1344 0 
L 684 0 
L 684 794 
z
" transform="scale(0.015625)"/>
      <path id="DejaVuSans-39" d="M 703 97 
L 703 672 
Q 941 559 1184 500 
Q 1428 441 1663 441 
Q 2288 441 2617 861 
Q 2947 1281 2994 2138 
Q 2813 1869 2534 1725 
Q 2256 1581 1919 1581 
Q 1219 1581 811 2004 
Q 403 2428 403 3163 
Q 403 3881 828 4315 
Q 1253 4750 1959 4750 
Q 2769 4750 3195 4129 
Q 3622 3509 3622 2328 
Q 3622 1225 3098 567 
Q 2575 -91 1691 -91 
Q 1453 -91 1209 -44 
Q 966 3 703 97 
z
M 1959 2075 
Q 2384 2075 2632 2365 
Q 2881 2656 2881 3163 
Q 2881 3666 2632 3958 
Q 2384 4250 1959 4250 
Q 1534 4250 1286 3958 
Q 1038 3666 1038 3163 
Q 1038 2656 1286 2365 
Q 1534 2075 1959 2075 
z
" transform="scale(0.015625)"/>
     </defs>
     <use xlink:href="#DejaVuSans-43"/>
     <use xlink:href="#DejaVuSans-6f" x="69.824219"/>
     <use xlink:href="#DejaVuSans-72" x="131.005859"/>
     <use xlink:href="#DejaVuSans-72" x="170.369141"/>
     <use xlink:href="#DejaVuSans-65" x="209.232422"/>
     <use xlink:href="#DejaVuSans-6c" x="270.755859"/>
     <use xlink:href="#DejaVuSans-61" x="298.539062"/>
     <use xlink:href="#DejaVuSans-74" x="359.818359"/>
     <use xlink:href="#DejaVuSans-69" x="399.027344"/>
     <use xlink:href="#DejaVuSans-6f" x="426.810547"/>
     <use xlink:href="#DejaVuSans-6e" x="487.992188"/>
     <use xlink:href="#DejaVuSans-20" x="551.371094"/>
     <use xlink:href="#DejaVuSans-69" x="583.158203"/>
     <use xlink:href="#DejaVuSans-6e" x="610.941406"/>
     <use xlink:href="#DejaVuSans-3a" x="674.320312"/>
     <use xlink:href="#DejaVuSans-20" x="708.011719"/>
     <use xlink:href="#DejaVuSans-30" x="739.798828"/>
     <use xlink:href="#DejaVuSans-2e" x="803.421875"/>
     <use xlink:href="#DejaVuSans-32" x="835.208984"/>
     <use xlink:href="#DejaVuSans-39" x="898.832031"/>
     <use xlink:href="#DejaVuSans-34" x="962.455078"/>
    </g>
    <!-- Correlation Out: 0.705 -->
    <g transform="translate(132.7216 71.332) scale(0.22 -0.22)">
     <defs>
      <path id="DejaVuSans-4f" d="M 2522 4238 
Q 1834 4238 1429 3725 
Q 1025 3213 1025 2328 
Q 1025 1447 1429 934 
Q 1834 422 2522 422 
Q 3209 422 3611 934 
Q 4013 1447 4013 2328 
Q 4013 3213 3611 3725 
Q 3209 4238 2522 4238 
z
M 2522 4750 
Q 3503 4750 4090 4092 
Q 4678 3434 4678 2328 
Q 4678 1225 4090 567 
Q 3503 -91 2522 -91 
Q 1538 -91 948 565 
Q 359 1222 359 2328 
Q 359 3434 948 4092 
Q 1538 4750 2522 4750 
z
" transform="scale(0.015625)"/>
      <path id="DejaVuSans-75" d="M 544 1381 
L 544 3500 
L 1119 3500 
L 1119 1403 
Q 1119 906 1312 657 
Q 1506 409 1894 409 
Q 2359 409 2629 706 
Q 2900 1003 2900 1516 
L 2900 3500 
L 3475 3500 
L 3475 0 
L 2900 0 
L 2900 538 
Q 2691 219 2414 64 
Q 2138 -91 1772 -91 
Q 1169 -91 856 284 
Q 544 659 544 1381 
z
M 1991 3584 
L 1991 3584 
z
" transform="scale(0.015625)"/>
      <path id="DejaVuSans-37" d="M 525 4666 
L 3525 4666 
L 3525 4397 
L 1831 0 
L 1172 0 
L 2766 4134 
L 525 4134 
L 525 4666 
z
" transform="scale(0.015625)"/>
     </defs>
     <use xlink:href="#DejaVuSans-43"/>
     <use xlink:href="#DejaVuSans-6f" x="69.824219"/>
     <use xlink:href="#DejaVuSans-72" x="131.005859"/>
     <use xlink:href="#DejaVuSans-72" x="170.369141"/>
     <use xlink:href="#DejaVuSans-65" x="209.232422"/>
     <use xlink:href="#DejaVuSans-6c" x="270.755859"/>
     <use xlink:href="#DejaVuSans-61" x="298.539062"/>
     <use xlink:href="#DejaVuSans-74" x="359.818359"/>
     <use xlink:href="#DejaVuSans-69" x="399.027344"/>
     <use xlink:href="#DejaVuSans-6f" x="426.810547"/>
     <use xlink:href="#DejaVuSans-6e" x="487.992188"/>
     <use xlink:href="#DejaVuSans-20" x="551.371094"/>
     <use xlink:href="#DejaVuSans-4f" x="583.158203"/>
     <use xlink:href="#DejaVuSans-75" x="661.869141"/>
     <use xlink:href="#DejaVuSans-74" x="725.248047"/>
     <use xlink:href="#DejaVuSans-3a" x="764.457031"/>
     <use xlink:href="#DejaVuSans-20" x="798.148438"/>
     <use xlink:href="#DejaVuSans-30" x="829.935547"/>
     <use xlink:href="#DejaVuSans-2e" x="893.558594"/>
     <use xlink:href="#DejaVuSans-37" x="925.345703"/>
     <use xlink:href="#DejaVuSans-30" x="988.96875"/>
     <use xlink:href="#DejaVuSans-35" x="1052.591797"/>
    </g>
   </g>
   <g id="legend_1">
    <g id="patch_7">
     <path d="M 407.0225 105.94375 
L 680.84 105.94375 
Q 685.24 105.94375 685.24 101.54375 
L 685.24 39.16 
Q 685.24 34.76 680.84 34.76 
L 407.0225 34.76 
Q 402.6225 34.76 402.6225 39.16 
L 402.6225 101.54375 
Q 402.6225 105.94375 407.0225 105.94375 
z
" style="fill: #ffffff; opacity: 0.8; stroke: #cccccc; stroke-linejoin: miter"/>
    </g>
    <g id="line2d_12">
     <defs>
      <path id="ma790e2a8d8" d="M 0 2.5 
C 0.663008 2.5 1.29895 2.236584 1.767767 1.767767 
C 2.236584 1.29895 2.5 0.663008 2.5 0 
C 2.5 -0.663008 2.236584 -1.29895 1.767767 -1.767767 
C 1.29895 -2.236584 0.663008 -2.5 0 -2.5 
C -0.663008 -2.5 -1.29895 -2.236584 -1.767767 -1.767767 
C -2.236584 -1.29895 -2.5 -0.663008 -2.5 0 
C -2.5 0.663008 -2.236584 1.29895 -1.767767 1.767767 
C -1.29895 2.236584 -0.663008 2.5 0 2.5 
z
" style="stroke: #ffffff"/>
     </defs>
     <g>
      <use xlink:href="#ma790e2a8d8" x="433.4225" y="52.576562" style="fill: #0000ff; stroke: #ffffff"/>
     </g>
    </g>
    <g id="text_14">
     <!-- In Distribution -->
     <g transform="translate(473.0225 60.276562) scale(0.22 -0.22)">
      <defs>
       <path id="DejaVuSans-49" d="M 628 4666 
L 1259 4666 
L 1259 0 
L 628 0 
L 628 4666 
z
" transform="scale(0.015625)"/>
       <path id="DejaVuSans-44" d="M 1259 4147 
L 1259 519 
L 2022 519 
Q 2988 519 3436 956 
Q 3884 1394 3884 2338 
Q 3884 3275 3436 3711 
Q 2988 4147 2022 4147 
L 1259 4147 
z
M 628 4666 
L 1925 4666 
Q 3281 4666 3915 4102 
Q 4550 3538 4550 2338 
Q 4550 1131 3912 565 
Q 3275 0 1925 0 
L 628 0 
L 628 4666 
z
" transform="scale(0.015625)"/>
       <path id="DejaVuSans-62" d="M 3116 1747 
Q 3116 2381 2855 2742 
Q 2594 3103 2138 3103 
Q 1681 3103 1420 2742 
Q 1159 2381 1159 1747 
Q 1159 1113 1420 752 
Q 1681 391 2138 391 
Q 2594 391 2855 752 
Q 3116 1113 3116 1747 
z
M 1159 2969 
Q 1341 3281 1617 3432 
Q 1894 3584 2278 3584 
Q 2916 3584 3314 3078 
Q 3713 2572 3713 1747 
Q 3713 922 3314 415 
Q 2916 -91 2278 -91 
Q 1894 -91 1617 61 
Q 1341 213 1159 525 
L 1159 0 
L 581 0 
L 581 4863 
L 1159 4863 
L 1159 2969 
z
" transform="scale(0.015625)"/>
      </defs>
      <use xlink:href="#DejaVuSans-49"/>
      <use xlink:href="#DejaVuSans-6e" x="29.492188"/>
      <use xlink:href="#DejaVuSans-20" x="92.871094"/>
      <use xlink:href="#DejaVuSans-44" x="124.658203"/>
      <use xlink:href="#DejaVuSans-69" x="201.660156"/>
      <use xlink:href="#DejaVuSans-73" x="229.443359"/>
      <use xlink:href="#DejaVuSans-74" x="281.542969"/>
      <use xlink:href="#DejaVuSans-72" x="320.751953"/>
      <use xlink:href="#DejaVuSans-69" x="361.865234"/>
      <use xlink:href="#DejaVuSans-62" x="389.648438"/>
      <use xlink:href="#DejaVuSans-75" x="453.125"/>
      <use xlink:href="#DejaVuSans-74" x="516.503906"/>
      <use xlink:href="#DejaVuSans-69" x="555.712891"/>
      <use xlink:href="#DejaVuSans-6f" x="583.496094"/>
      <use xlink:href="#DejaVuSans-6e" x="644.677734"/>
     </g>
    </g>
    <g id="line2d_13">
     <defs>
      <path id="m941121e898" d="M 0 2.5 
C 0.663008 2.5 1.29895 2.236584 1.767767 1.767767 
C 2.236584 1.29895 2.5 0.663008 2.5 0 
C 2.5 -0.663008 2.236584 -1.29895 1.767767 -1.767767 
C 1.29895 -2.236584 0.663008 -2.5 0 -2.5 
C -0.663008 -2.5 -1.29895 -2.236584 -1.767767 -1.767767 
C -2.236584 -1.29895 -2.5 -0.663008 -2.5 0 
C -2.5 0.663008 -2.236584 1.29895 -1.767767 1.767767 
C -1.29895 2.236584 -0.663008 2.5 0 2.5 
z
" style="stroke: #ffffff"/>
     </defs>
     <g>
      <use xlink:href="#m941121e898" x="433.4225" y="84.868437" style="fill: #008000; stroke: #ffffff"/>
     </g>
    </g>
    <g id="text_15">
     <!-- Out of Distribution -->
     <g transform="translate(473.0225 92.568437) scale(0.22 -0.22)">
      <defs>
       <path id="DejaVuSans-66" d="M 2375 4863 
L 2375 4384 
L 1825 4384 
Q 1516 4384 1395 4259 
Q 1275 4134 1275 3809 
L 1275 3500 
L 2222 3500 
L 2222 3053 
L 1275 3053 
L 1275 0 
L 697 0 
L 697 3053 
L 147 3053 
L 147 3500 
L 697 3500 
L 697 3744 
Q 697 4328 969 4595 
Q 1241 4863 1831 4863 
L 2375 4863 
z
" transform="scale(0.015625)"/>
      </defs>
      <use xlink:href="#DejaVuSans-4f"/>
      <use xlink:href="#DejaVuSans-75" x="78.710938"/>
      <use xlink:href="#DejaVuSans-74" x="142.089844"/>
      <use xlink:href="#DejaVuSans-20" x="181.298828"/>
      <use xlink:href="#DejaVuSans-6f" x="213.085938"/>
      <use xlink:href="#DejaVuSans-66" x="274.267578"/>
      <use xlink:href="#DejaVuSans-20" x="309.472656"/>
      <use xlink:href="#DejaVuSans-44" x="341.259766"/>
      <use xlink:href="#DejaVuSans-69" x="418.261719"/>
      <use xlink:href="#DejaVuSans-73" x="446.044922"/>
      <use xlink:href="#DejaVuSans-74" x="498.144531"/>
      <use xlink:href="#DejaVuSans-72" x="537.353516"/>
      <use xlink:href="#DejaVuSans-69" x="578.466797"/>
      <use xlink:href="#DejaVuSans-62" x="606.25"/>
      <use xlink:href="#DejaVuSans-75" x="669.726562"/>
      <use xlink:href="#DejaVuSans-74" x="733.105469"/>
      <use xlink:href="#DejaVuSans-69" x="772.314453"/>
      <use xlink:href="#DejaVuSans-6f" x="800.097656"/>
      <use xlink:href="#DejaVuSans-6e" x="861.279297"/>
     </g>
    </g>
   </g>
  </g>
 </g>
 <defs>
  <clipPath id="pee202249fc">
   <rect x="83.72" y="23.76" width="612.52" height="475.72"/>
  </clipPath>
 </defs>
</svg>
