<?xml version="1.0" encoding="utf-8" standalone="no"?>
<!DOCTYPE svg PUBLIC "-//W3C//DTD SVG 1.1//EN"
  "http://www.w3.org/Graphics/SVG/1.1/DTD/svg11.dtd">
<svg xmlns:xlink="http://www.w3.org/1999/xlink" width="720pt" height="576pt" viewBox="0 0 720 576" xmlns="http://www.w3.org/2000/svg" version="1.1">
 <metadata>
  <rdf:RDF xmlns:dc="http://purl.org/dc/elements/1.1/" xmlns:cc="http://creativecommons.org/ns#" xmlns:rdf="http://www.w3.org/1999/02/22-rdf-syntax-ns#">
   <cc:Work>
    <dc:type rdf:resource="http://purl.org/dc/dcmitype/StillImage"/>
    <dc:date>2024-12-07T13:00:46.590507</dc:date>
    <dc:format>image/svg+xml</dc:format>
    <dc:creator>
     <cc:Agent>
      <dc:title>Matplotlib v3.8.4, https://matplotlib.org/</dc:title>
     </cc:Agent>
    </dc:creator>
   </cc:Work>
  </rdf:RDF>
 </metadata>
 <defs>
  <style type="text/css">*{stroke-linejoin: round; stroke-linecap: butt}</style>
 </defs>
 <g id="figure_1">
  <g id="patch_1">
   <path d="M 0 576 
L 720 576 
L 720 0 
L 0 0 
z
" style="fill: #ffffff"/>
  </g>
  <g id="axes_1">
   <g id="patch_2">
    <path d="M 83.72 499.48 
L 694.860531 499.48 
L 694.860531 23.76 
L 83.72 23.76 
z
" style="fill: #ffffff"/>
   </g>
   <g id="QuadContourSet_1">
    <path d="M 56.710699 482.035651 
L 60.345448 482.626275 
L 63.980197 482.467046 
L 67.614947 481.855324 
L 68.419073 481.634351 
L 71.249696 481.128083 
L 74.884445 480.214569 
L 77.178121 479.401558 
L 78.519195 479.078896 
L 82.153944 477.970516 
L 84.126385 477.168764 
L 85.788694 476.689428 
L 89.423443 475.297966 
L 90.247135 474.935971 
L 93.058192 474.019368 
L 95.976611 472.703178 
L 96.692942 472.453979 
L 100.327691 470.995768 
L 101.468062 470.470384 
L 103.96244 469.543547 
L 106.728463 468.237591 
L 107.59719 467.893526 
L 111.231939 466.249551 
L 111.786242 466.004798 
L 114.866688 464.806329 
L 117.129176 463.772004 
L 118.501438 463.195644 
L 121.979904 461.539211 
L 122.136187 461.46786 
L 125.770937 460.002546 
L 127.407654 459.306418 
L 129.405686 458.434004 
L 132.311533 457.073624 
L 133.040435 456.704313 
L 136.59124 454.840831 
L 136.675185 454.79033 
L 140.300846 452.608038 
L 140.309934 452.601348 
L 143.439842 450.375244 
L 143.944683 449.901248 
L 145.952361 448.142451 
L 147.579433 446.066598 
L 147.715995 445.909658 
L 149.924957 443.676864 
L 151.214182 441.806851 
L 151.517782 441.444071 
L 153.585529 439.211278 
L 154.848932 437.289421 
L 155.115735 436.978484 
L 156.986623 434.745691 
L 158.284277 432.512898 
L 158.483681 432.115797 
L 159.799004 430.280104 
L 160.92364 428.047311 
L 161.656437 425.814518 
L 161.977555 423.581724 
L 161.430341 421.348931 
L 158.483681 419.267051 
L 157.760911 419.116137 
L 154.848932 418.671759 
L 151.214182 418.743855 
L 148.330611 419.116137 
L 147.579433 419.17974 
L 143.944683 419.632203 
L 140.309934 420.269051 
L 136.675185 421.25956 
L 136.40627 421.348931 
L 133.040435 422.120377 
L 129.405686 423.447893 
L 129.093084 423.581724 
L 125.770937 424.660352 
L 123.219786 425.814518 
L 122.136187 426.196315 
L 118.501438 427.853277 
L 118.11177 428.047311 
L 114.866688 429.415195 
L 113.185767 430.280104 
L 111.231939 431.150752 
L 108.672689 432.512898 
L 107.59719 433.021408 
L 104.467084 434.745691 
L 103.96244 434.999555 
L 100.491924 436.978484 
L 100.327691 437.066549 
L 96.692942 439.211278 
L 96.692942 439.211278 
L 93.058192 441.415882 
L 93.013253 441.444071 
L 89.494544 443.676864 
L 89.423443 443.723241 
L 86.066228 445.909658 
L 85.788694 446.102941 
L 82.753874 448.142451 
L 82.153944 448.588528 
L 79.576014 450.375244 
L 78.519195 451.214227 
L 76.568549 452.608038 
L 74.884445 454.03581 
L 73.791569 454.840831 
L 71.292898 457.073624 
L 71.249696 457.114526 
L 68.430326 459.306418 
L 67.614947 460.137686 
L 65.878584 461.539211 
L 63.980197 463.627144 
L 63.807642 463.772004 
L 61.393273 466.004798 
L 60.345448 467.382974 
L 59.445184 468.237591 
L 57.615991 470.470384 
L 56.710699 472.023169 
L 56.130592 472.703178 
L 54.783118 474.935971 
L 54.044007 477.168764 
L 54.01701 479.401558 
L 55.857195 481.634351 
z
M 69.391052 474.935971 
L 67.614947 474.197318 
L 66.483402 472.703178 
L 66.649759 470.470384 
L 67.614947 468.646711 
L 67.775433 468.237591 
L 69.193112 466.004798 
L 71.249696 463.772004 
L 71.249696 463.772004 
L 73.198492 461.539211 
L 74.884445 460.091618 
L 75.63711 459.306418 
L 78.326601 457.073624 
L 78.519195 456.928328 
L 80.920333 454.840831 
L 82.153944 453.947809 
L 83.819895 452.608038 
L 85.788694 451.239156 
L 86.948836 450.375244 
L 89.423443 448.721542 
L 90.262669 448.142451 
L 93.058192 446.346029 
L 93.740325 445.909658 
L 96.692942 444.084683 
L 97.380434 443.676864 
L 100.327691 441.924668 
L 101.201487 441.444071 
L 103.96244 439.865598 
L 105.246086 439.211278 
L 107.59719 437.919387 
L 109.590778 436.978484 
L 111.231939 436.112599 
L 114.36506 434.745691 
L 114.866688 434.491969 
L 118.501438 432.873763 
L 119.501546 432.512898 
L 122.136187 431.352031 
L 125.416585 430.280104 
L 125.770937 430.133305 
L 129.405686 428.872549 
L 132.763513 428.047311 
L 133.040435 427.957128 
L 136.675185 427.093755 
L 140.309934 426.612123 
L 143.944683 426.585508 
L 147.579433 427.638779 
L 148.12335 428.047311 
L 149.020946 430.280104 
L 148.536681 432.512898 
L 147.579433 434.122539 
L 147.302245 434.745691 
L 145.845413 436.978484 
L 143.944683 438.995515 
L 143.784583 439.211278 
L 141.789877 441.444071 
L 140.309934 442.703042 
L 139.354847 443.676864 
L 136.675185 445.794918 
L 136.54968 445.909658 
L 133.788321 448.142451 
L 133.040435 448.659697 
L 130.75589 450.375244 
L 129.405686 451.257602 
L 127.432344 452.608038 
L 125.770937 453.63917 
L 123.85358 454.840831 
L 122.136187 455.857617 
L 120.02663 457.073624 
L 118.501438 457.938378 
L 115.930619 459.306418 
L 114.866688 459.886066 
L 111.512429 461.539211 
L 111.231939 461.68649 
L 107.59719 463.514557 
L 107.021865 463.772004 
L 103.96244 465.298051 
L 102.257169 466.004798 
L 100.327691 466.931947 
L 96.931973 468.237591 
L 96.692942 468.348414 
L 93.058192 469.896023 
L 91.321411 470.470384 
L 89.423443 471.261221 
L 85.788694 472.429481 
L 84.733191 472.703178 
L 82.153944 473.581588 
L 78.519195 474.444432 
L 75.466092 474.935971 
L 74.884445 475.063755 
L 71.249696 475.266286 
z
" clip-path="url(#p6a70e5f299)" style="fill: #edf4fc"/>
    <path d="M 71.249696 475.266286 
L 74.884445 475.063755 
L 75.466092 474.935971 
L 78.519195 474.444432 
L 82.153944 473.581588 
L 84.733191 472.703178 
L 85.788694 472.429481 
L 89.423443 471.261221 
L 91.321411 470.470384 
L 93.058192 469.896023 
L 96.692942 468.348414 
L 96.931973 468.237591 
L 100.327691 466.931947 
L 102.257169 466.004798 
L 103.96244 465.298051 
L 107.021865 463.772004 
L 107.59719 463.514557 
L 111.231939 461.68649 
L 111.512429 461.539211 
L 114.866688 459.886066 
L 115.930619 459.306418 
L 118.501438 457.938378 
L 120.02663 457.073624 
L 122.136187 455.857617 
L 123.85358 454.840831 
L 125.770937 453.63917 
L 127.432344 452.608038 
L 129.405686 451.257602 
L 130.75589 450.375244 
L 133.040435 448.659697 
L 133.788321 448.142451 
L 136.54968 445.909658 
L 136.675185 445.794918 
L 139.354847 443.676864 
L 140.309934 442.703042 
L 141.789877 441.444071 
L 143.784583 439.211278 
L 143.944683 438.995515 
L 145.845413 436.978484 
L 147.302245 434.745691 
L 147.579433 434.122539 
L 148.536681 432.512898 
L 149.020946 430.280104 
L 148.12335 428.047311 
L 147.579433 427.638779 
L 143.944683 426.585508 
L 140.309934 426.612123 
L 136.675185 427.093755 
L 133.040435 427.957128 
L 132.763513 428.047311 
L 129.405686 428.872549 
L 125.770937 430.133305 
L 125.416585 430.280104 
L 122.136187 431.352031 
L 119.501546 432.512898 
L 118.501438 432.873763 
L 114.866688 434.491969 
L 114.36506 434.745691 
L 111.231939 436.112599 
L 109.590778 436.978484 
L 107.59719 437.919387 
L 105.246086 439.211278 
L 103.96244 439.865598 
L 101.201487 441.444071 
L 100.327691 441.924668 
L 97.380434 443.676864 
L 96.692942 444.084683 
L 93.740325 445.909658 
L 93.058192 446.346029 
L 90.262669 448.142451 
L 89.423443 448.721542 
L 86.948836 450.375244 
L 85.788694 451.239156 
L 83.819895 452.608038 
L 82.153944 453.947809 
L 80.920333 454.840831 
L 78.519195 456.928328 
L 78.326601 457.073624 
L 75.63711 459.306418 
L 74.884445 460.091618 
L 73.198492 461.539211 
L 71.249696 463.772004 
L 71.249696 463.772004 
L 69.193112 466.004798 
L 67.775433 468.237591 
L 67.614947 468.646711 
L 66.649759 470.470384 
L 66.483402 472.703178 
L 67.614947 474.197318 
L 69.391052 474.935971 
z
M 73.198752 470.470384 
L 72.579498 468.237591 
L 73.394148 466.004798 
L 74.884445 463.935978 
L 74.97888 463.772004 
L 76.787699 461.539211 
L 78.519195 459.93404 
L 79.088793 459.306418 
L 81.569642 457.073624 
L 82.153944 456.623126 
L 84.202625 454.840831 
L 85.788694 453.679471 
L 87.134279 452.608038 
L 89.423443 451.014417 
L 90.299506 450.375244 
L 93.058192 448.547867 
L 93.664145 448.142451 
L 96.692942 446.232372 
L 97.218668 445.909658 
L 100.327691 444.042515 
L 100.976836 443.676864 
L 103.96244 441.969422 
L 104.979051 441.444071 
L 107.59719 440.018764 
L 109.301587 439.211278 
L 111.231939 438.2117 
L 114.074912 436.978484 
L 114.866688 436.589013 
L 118.501438 435.063668 
L 119.416994 434.745691 
L 122.136187 433.624304 
L 125.707308 432.512898 
L 125.770937 432.488508 
L 129.405686 431.402578 
L 133.040435 430.679472 
L 136.675185 430.303648 
L 140.309934 430.726231 
L 142.499701 432.512898 
L 142.50303 434.745691 
L 141.482462 436.978484 
L 140.309934 438.43961 
L 139.813976 439.211278 
L 137.879992 441.444071 
L 136.675185 442.507863 
L 135.556945 443.676864 
L 133.040435 445.725232 
L 132.842138 445.909658 
L 130.060878 448.142451 
L 129.405686 448.597436 
L 127.027043 450.375244 
L 125.770937 451.198881 
L 123.700266 452.608038 
L 122.136187 453.580422 
L 120.110003 454.840831 
L 118.501438 455.792442 
L 116.255922 457.073624 
L 114.866688 457.858163 
L 112.107398 459.306418 
L 111.231939 459.779676 
L 107.59719 461.539211 
L 107.59719 461.539211 
L 103.96244 463.354863 
L 102.981665 463.772004 
L 100.327691 465.035805 
L 97.846088 466.004798 
L 96.692942 466.529218 
L 93.058192 467.90797 
L 92.011139 468.237591 
L 89.423443 469.226205 
L 85.788694 470.26525 
L 84.804885 470.470384 
L 82.153944 471.166543 
L 78.519195 471.646675 
L 74.884445 471.37995 
z
" clip-path="url(#p6a70e5f299)" style="fill: #d9e7f5"/>
    <path d="M 74.884445 471.37995 
L 78.519195 471.646675 
L 82.153944 471.166543 
L 84.804885 470.470384 
L 85.788694 470.26525 
L 89.423443 469.226205 
L 92.011139 468.237591 
L 93.058192 467.90797 
L 96.692942 466.529218 
L 97.846088 466.004798 
L 100.327691 465.035805 
L 102.981665 463.772004 
L 103.96244 463.354863 
L 107.59719 461.539211 
L 107.59719 461.539211 
L 111.231939 459.779676 
L 112.107398 459.306418 
L 114.866688 457.858163 
L 116.255922 457.073624 
L 118.501438 455.792442 
L 120.110003 454.840831 
L 122.136187 453.580422 
L 123.700266 452.608038 
L 125.770937 451.198881 
L 127.027043 450.375244 
L 129.405686 448.597436 
L 130.060878 448.142451 
L 132.842138 445.909658 
L 133.040435 445.725232 
L 135.556945 443.676864 
L 136.675185 442.507863 
L 137.879992 441.444071 
L 139.813976 439.211278 
L 140.309934 438.43961 
L 141.482462 436.978484 
L 142.50303 434.745691 
L 142.499701 432.512898 
L 140.309934 430.726231 
L 136.675185 430.303648 
L 133.040435 430.679472 
L 129.405686 431.402578 
L 125.770937 432.488508 
L 125.707308 432.512898 
L 122.136187 433.624304 
L 119.416994 434.745691 
L 118.501438 435.063668 
L 114.866688 436.589013 
L 114.074912 436.978484 
L 111.231939 438.2117 
L 109.301587 439.211278 
L 107.59719 440.018764 
L 104.979051 441.444071 
L 103.96244 441.969422 
L 100.976836 443.676864 
L 100.327691 444.042515 
L 97.218668 445.909658 
L 96.692942 446.232372 
L 93.664145 448.142451 
L 93.058192 448.547867 
L 90.299506 450.375244 
L 89.423443 451.014417 
L 87.134279 452.608038 
L 85.788694 453.679471 
L 84.202625 454.840831 
L 82.153944 456.623126 
L 81.569642 457.073624 
L 79.088793 459.306418 
L 78.519195 459.93404 
L 76.787699 461.539211 
L 74.97888 463.772004 
L 74.884445 463.935978 
L 73.394148 466.004798 
L 72.579498 468.237591 
L 73.198752 470.470384 
z
M 79.811397 468.237591 
L 78.519195 467.520402 
L 77.82088 466.004798 
L 78.519195 463.947177 
L 78.56806 463.772004 
L 80.082872 461.539211 
L 82.153944 459.306418 
L 82.153944 459.306418 
L 84.41839 457.073624 
L 85.788694 455.974584 
L 87.070158 454.840831 
L 89.423443 453.0791 
L 90.015552 452.608038 
L 93.058192 450.478334 
L 93.202054 450.375244 
L 96.583728 448.142451 
L 96.692942 448.073577 
L 100.218134 445.909658 
L 100.327691 445.843862 
L 103.96244 443.767839 
L 104.135199 443.676864 
L 107.59719 441.809287 
L 108.365476 441.444071 
L 111.231939 439.995222 
L 113.060072 439.211278 
L 114.866688 438.356483 
L 118.433603 436.978484 
L 118.501438 436.948485 
L 122.136187 435.618616 
L 125.273331 434.745691 
L 125.770937 434.580589 
L 129.405686 433.827669 
L 133.040435 433.605632 
L 136.675185 434.666858 
L 136.766178 434.745691 
L 137.182217 436.978484 
L 136.675185 437.969469 
L 136.154026 439.211278 
L 134.521613 441.444071 
L 133.040435 442.889612 
L 132.347502 443.676864 
L 129.854041 445.909658 
L 129.405686 446.248092 
L 127.129014 448.142451 
L 125.770937 449.098056 
L 124.063661 450.375244 
L 122.136187 451.645322 
L 120.71094 452.608038 
L 118.501438 453.97693 
L 117.090316 454.840831 
L 114.866688 456.140707 
L 113.190898 457.073624 
L 111.231939 458.157488 
L 108.968902 459.306418 
L 107.59719 460.026697 
L 104.338659 461.539211 
L 103.96244 461.727142 
L 100.327691 463.365091 
L 99.270995 463.772004 
L 96.692942 464.884617 
L 93.472236 466.004798 
L 93.058192 466.172756 
L 89.423443 467.320241 
L 85.788694 468.172298 
L 85.124385 468.237591 
L 82.153944 468.586539 
z
" clip-path="url(#p6a70e5f299)" style="fill: #c1d9ed"/>
    <path d="M 82.153944 468.586539 
L 85.124385 468.237591 
L 85.788694 468.172298 
L 89.423443 467.320241 
L 93.058192 466.172756 
L 93.472236 466.004798 
L 96.692942 464.884617 
L 99.270995 463.772004 
L 100.327691 463.365091 
L 103.96244 461.727142 
L 104.338659 461.539211 
L 107.59719 460.026697 
L 108.968902 459.306418 
L 111.231939 458.157488 
L 113.190898 457.073624 
L 114.866688 456.140707 
L 117.090316 454.840831 
L 118.501438 453.97693 
L 120.71094 452.608038 
L 122.136187 451.645322 
L 124.063661 450.375244 
L 125.770937 449.098056 
L 127.129014 448.142451 
L 129.405686 446.248092 
L 129.854041 445.909658 
L 132.347502 443.676864 
L 133.040435 442.889612 
L 134.521613 441.444071 
L 136.154026 439.211278 
L 136.675185 437.969469 
L 137.182217 436.978484 
L 136.766178 434.745691 
L 136.675185 434.666858 
L 133.040435 433.605632 
L 129.405686 433.827669 
L 125.770937 434.580589 
L 125.273331 434.745691 
L 122.136187 435.618616 
L 118.501438 436.948485 
L 118.433603 436.978484 
L 114.866688 438.356483 
L 113.060072 439.211278 
L 111.231939 439.995222 
L 108.365476 441.444071 
L 107.59719 441.809287 
L 104.135199 443.676864 
L 103.96244 443.767839 
L 100.327691 445.843862 
L 100.218134 445.909658 
L 96.692942 448.073577 
L 96.583728 448.142451 
L 93.202054 450.375244 
L 93.058192 450.478334 
L 90.015552 452.608038 
L 89.423443 453.0791 
L 87.070158 454.840831 
L 85.788694 455.974584 
L 84.41839 457.073624 
L 82.153944 459.306418 
L 82.153944 459.306418 
L 80.082872 461.539211 
L 78.56806 463.772004 
L 78.519195 463.947177 
L 77.82088 466.004798 
L 78.519195 467.520402 
L 79.811397 468.237591 
z
M 83.763128 466.004798 
L 82.153944 464.926001 
L 81.759969 463.772004 
L 82.153944 462.953519 
L 82.735816 461.539211 
L 84.42427 459.306418 
L 85.788694 457.992828 
L 86.643926 457.073624 
L 89.213949 454.840831 
L 89.423443 454.683999 
L 92.032853 452.608038 
L 93.058192 451.890349 
L 95.172511 450.375244 
L 96.692942 449.378955 
L 98.606297 448.142451 
L 100.327691 447.085594 
L 102.343811 445.909658 
L 103.96244 444.978145 
L 106.433552 443.676864 
L 107.59719 443.049138 
L 110.973689 441.444071 
L 111.231939 441.313539 
L 114.866688 439.711847 
L 116.240488 439.211278 
L 118.501438 438.298827 
L 122.136187 437.158226 
L 122.988166 436.978484 
L 125.770937 436.305958 
L 129.405686 436.01038 
L 132.761151 436.978484 
L 133.040435 438.279718 
L 133.116615 439.211278 
L 133.040435 439.328289 
L 131.870092 441.444071 
L 130.019316 443.676864 
L 129.405686 444.214926 
L 127.68527 445.909658 
L 125.770937 447.429987 
L 124.943171 448.142451 
L 122.136187 450.175437 
L 121.872238 450.375244 
L 118.513656 452.608038 
L 118.501438 452.615607 
L 114.866688 454.840831 
L 114.866688 454.840831 
L 111.231939 456.902869 
L 110.910386 457.073624 
L 107.59719 458.820986 
L 106.576615 459.306418 
L 103.96244 460.592387 
L 101.747044 461.539211 
L 100.327691 462.192358 
L 96.692942 463.59086 
L 96.112133 463.772004 
L 93.058192 464.833482 
L 89.423443 465.775119 
L 87.647036 466.004798 
L 85.788694 466.279686 
z
" clip-path="url(#p6a70e5f299)" style="fill: #9ac8e0"/>
    <path d="M 85.788694 466.279686 
L 87.647036 466.004798 
L 89.423443 465.775119 
L 93.058192 464.833482 
L 96.112133 463.772004 
L 96.692942 463.59086 
L 100.327691 462.192358 
L 101.747044 461.539211 
L 103.96244 460.592387 
L 106.576615 459.306418 
L 107.59719 458.820986 
L 110.910386 457.073624 
L 111.231939 456.902869 
L 114.866688 454.840831 
L 114.866688 454.840831 
L 118.501438 452.615607 
L 118.513656 452.608038 
L 121.872238 450.375244 
L 122.136187 450.175437 
L 124.943171 448.142451 
L 125.770937 447.429987 
L 127.68527 445.909658 
L 129.405686 444.214926 
L 130.019316 443.676864 
L 131.870092 441.444071 
L 133.040435 439.328289 
L 133.116615 439.211278 
L 133.040435 438.279718 
L 132.761151 436.978484 
L 129.405686 436.01038 
L 125.770937 436.305958 
L 122.988166 436.978484 
L 122.136187 437.158226 
L 118.501438 438.298827 
L 116.240488 439.211278 
L 114.866688 439.711847 
L 111.231939 441.313539 
L 110.973689 441.444071 
L 107.59719 443.049138 
L 106.433552 443.676864 
L 103.96244 444.978145 
L 102.343811 445.909658 
L 100.327691 447.085594 
L 98.606297 448.142451 
L 96.692942 449.378955 
L 95.172511 450.375244 
L 93.058192 451.890349 
L 92.032853 452.608038 
L 89.423443 454.683999 
L 89.213949 454.840831 
L 86.643926 457.073624 
L 85.788694 457.992828 
L 84.42427 459.306418 
L 82.735816 461.539211 
L 82.153944 462.953519 
L 81.759969 463.772004 
L 82.153944 464.926001 
L 83.763128 466.004798 
z
M 86.473748 463.772004 
L 85.788694 463.125435 
L 85.456825 461.539211 
L 85.788694 461.014906 
L 86.750032 459.306418 
L 88.6722 457.073624 
L 89.423443 456.423679 
L 91.125664 454.840831 
L 93.058192 453.331027 
L 93.952579 452.608038 
L 96.692942 450.66757 
L 97.107424 450.375244 
L 100.327691 448.30289 
L 100.587746 448.142451 
L 103.96244 446.165179 
L 104.435117 445.909658 
L 107.59719 444.221168 
L 108.745322 443.676864 
L 111.231939 442.466455 
L 113.690922 441.444071 
L 114.866688 440.922614 
L 118.501438 439.644102 
L 120.171593 439.211278 
L 122.136187 438.650344 
L 125.770937 438.213775 
L 129.405686 439.211278 
L 129.265467 441.444071 
L 127.738382 443.676864 
L 125.770937 445.734642 
L 125.618209 445.909658 
L 123.035974 448.142451 
L 122.136187 448.79413 
L 120.047502 450.375244 
L 118.501438 451.402446 
L 116.700754 452.608038 
L 114.866688 453.731567 
L 113.002452 454.840831 
L 111.231939 455.845265 
L 108.918784 457.073624 
L 107.59719 457.770626 
L 104.368328 459.306418 
L 103.96244 459.506083 
L 100.327691 461.052944 
L 98.972444 461.539211 
L 96.692942 462.413605 
L 93.058192 463.484007 
L 91.344583 463.772004 
L 89.423443 464.12519 
z
" clip-path="url(#p6a70e5f299)" style="fill: #6dafd7"/>
    <path d="M 89.423443 464.12519 
L 91.344583 463.772004 
L 93.058192 463.484007 
L 96.692942 462.413605 
L 98.972444 461.539211 
L 100.327691 461.052944 
L 103.96244 459.506083 
L 104.368328 459.306418 
L 107.59719 457.770626 
L 108.918784 457.073624 
L 111.231939 455.845265 
L 113.002452 454.840831 
L 114.866688 453.731567 
L 116.700754 452.608038 
L 118.501438 451.402446 
L 120.047502 450.375244 
L 122.136187 448.79413 
L 123.035974 448.142451 
L 125.618209 445.909658 
L 125.770937 445.734642 
L 127.738382 443.676864 
L 129.265467 441.444071 
L 129.405686 439.211278 
L 125.770937 438.213775 
L 122.136187 438.650344 
L 120.171593 439.211278 
L 118.501438 439.644102 
L 114.866688 440.922614 
L 113.690922 441.444071 
L 111.231939 442.466455 
L 108.745322 443.676864 
L 107.59719 444.221168 
L 104.435117 445.909658 
L 103.96244 446.165179 
L 100.587746 448.142451 
L 100.327691 448.30289 
L 97.107424 450.375244 
L 96.692942 450.66757 
L 93.952579 452.608038 
L 93.058192 453.331027 
L 91.125664 454.840831 
L 89.423443 456.423679 
L 88.6722 457.073624 
L 86.750032 459.306418 
L 85.788694 461.014906 
L 85.456825 461.539211 
L 85.788694 463.125435 
L 86.473748 463.772004 
z
M 89.607525 461.539211 
L 89.423443 461.062932 
L 89.314349 459.306418 
L 89.423443 459.16938 
L 90.966361 457.073624 
L 93.058192 454.923747 
L 93.13583 454.840831 
L 95.886088 452.608038 
L 96.692942 452.0367 
L 99.048682 450.375244 
L 100.327691 449.552157 
L 102.612679 448.142451 
L 103.96244 447.35161 
L 106.629844 445.909658 
L 107.59719 445.393112 
L 111.217371 443.676864 
L 111.231939 443.669773 
L 114.866688 442.249385 
L 117.413358 441.444071 
L 118.501438 441.079849 
L 122.136187 440.505523 
L 125.770937 441.444071 
L 125.189854 443.676864 
L 123.425469 445.909658 
L 122.136187 447.058291 
L 120.984361 448.142451 
L 118.501438 450.054374 
L 118.092291 450.375244 
L 114.866688 452.546865 
L 114.774114 452.608038 
L 111.231939 454.712377 
L 111.003286 454.840831 
L 107.59719 456.639845 
L 106.695542 457.073624 
L 103.96244 458.364969 
L 101.690918 459.306418 
L 100.327691 459.885548 
L 96.692942 461.080801 
L 94.582492 461.539211 
L 93.058192 461.884979 
z
" clip-path="url(#p6a70e5f299)" style="fill: #4997c9"/>
    <path d="M 93.058192 461.884979 
L 94.582492 461.539211 
L 96.692942 461.080801 
L 100.327691 459.885548 
L 101.690918 459.306418 
L 103.96244 458.364969 
L 106.695542 457.073624 
L 107.59719 456.639845 
L 111.003286 454.840831 
L 111.231939 454.712377 
L 114.774114 452.608038 
L 114.866688 452.546865 
L 118.092291 450.375244 
L 118.501438 450.054374 
L 120.984361 448.142451 
L 122.136187 447.058291 
L 123.425469 445.909658 
L 125.189854 443.676864 
L 125.770937 441.444071 
L 122.136187 440.505523 
L 118.501438 441.079849 
L 117.413358 441.444071 
L 114.866688 442.249385 
L 111.231939 443.669773 
L 111.217371 443.676864 
L 107.59719 445.393112 
L 106.629844 445.909658 
L 103.96244 447.35161 
L 102.612679 448.142451 
L 100.327691 449.552157 
L 99.048682 450.375244 
L 96.692942 452.0367 
L 95.886088 452.608038 
L 93.13583 454.840831 
L 93.058192 454.923747 
L 90.966361 457.073624 
L 89.423443 459.16938 
L 89.314349 459.306418 
L 89.423443 461.062932 
L 89.607525 461.539211 
z
M 94.547048 459.306418 
L 93.704303 457.073624 
L 95.537657 454.840831 
L 96.692942 453.850534 
L 98.144954 452.608038 
L 100.327691 451.027002 
L 101.266349 450.375244 
L 103.96244 448.710634 
L 104.96268 448.142451 
L 107.59719 446.748559 
L 109.393929 445.909658 
L 111.231939 445.074187 
L 114.866688 443.676864 
L 114.866688 443.676864 
L 118.501438 443.00531 
L 121.310642 443.676864 
L 120.713029 445.909658 
L 118.800028 448.142451 
L 118.501438 448.372374 
L 115.947551 450.375244 
L 114.866688 451.102929 
L 112.588947 452.608038 
L 111.231939 453.41421 
L 108.692491 454.840831 
L 107.59719 455.419341 
L 104.15862 457.073624 
L 103.96244 457.166316 
L 100.327691 458.450255 
L 97.276427 459.306418 
L 96.692942 459.469322 
z
" clip-path="url(#p6a70e5f299)" style="fill: #2979b9"/>
    <path d="M 96.692942 459.469322 
L 97.276427 459.306418 
L 100.327691 458.450255 
L 103.96244 457.166316 
L 104.15862 457.073624 
L 107.59719 455.419341 
L 108.692491 454.840831 
L 111.231939 453.41421 
L 112.588947 452.608038 
L 114.866688 451.102929 
L 115.947551 450.375244 
L 118.501438 448.372374 
L 118.800028 448.142451 
L 120.713029 445.909658 
L 121.310642 443.676864 
L 118.501438 443.00531 
L 114.866688 443.676864 
L 114.866688 443.676864 
L 111.231939 445.074187 
L 109.393929 445.909658 
L 107.59719 446.748559 
L 104.96268 448.142451 
L 103.96244 448.710634 
L 101.266349 450.375244 
L 100.327691 451.027002 
L 98.144954 452.608038 
L 96.692942 453.850534 
L 95.537657 454.840831 
L 93.704303 457.073624 
L 94.547048 459.306418 
z
M 98.435721 454.840831 
L 100.327691 452.608038 
L 100.327691 452.608038 
L 103.543349 450.375244 
L 103.96244 450.116491 
L 107.437577 448.142451 
L 107.59719 448.058001 
L 111.231939 446.628699 
L 113.689853 445.909658 
L 114.866688 445.593415 
L 116.332963 445.909658 
L 116.033746 448.142451 
L 114.866688 449.202351 
L 113.531343 450.375244 
L 111.231939 451.956354 
L 110.210863 452.608038 
L 107.59719 454.011123 
L 105.86041 454.840831 
L 103.96244 455.651891 
L 100.327691 456.827937 
z
" clip-path="url(#p6a70e5f299)" style="fill: #0f5aa3"/>
    <path d="M 100.327691 456.827937 
L 103.96244 455.651891 
L 105.86041 454.840831 
L 107.59719 454.011123 
L 110.210863 452.608038 
L 111.231939 451.956354 
L 113.531343 450.375244 
L 114.866688 449.202351 
L 116.033746 448.142451 
L 116.332963 445.909658 
L 114.866688 445.593415 
L 113.689853 445.909658 
L 111.231939 446.628699 
L 107.59719 448.058001 
L 107.437577 448.142451 
L 103.96244 450.116491 
L 103.543349 450.375244 
L 100.327691 452.608038 
L 100.327691 452.608038 
L 98.435721 454.840831 
z
" clip-path="url(#p6a70e5f299)" style="fill: #083d7f"/>
   </g>
   <g id="matplotlib.axis_1">
    <g id="xtick_1">
     <g id="line2d_1">
      <defs>
       <path id="m97a88ae758" d="M 0 0 
L 0 3.5 
" style="stroke: #000000; stroke-width: 0.8"/>
      </defs>
      <g>
       <use xlink:href="#m97a88ae758" x="125.310102" y="499.48" style="stroke: #000000; stroke-width: 0.8"/>
      </g>
     </g>
     <g id="text_1">
      <!-- 0 -->
      <g transform="translate(118.311352 523.196563) scale(0.22 -0.22)">
       <defs>
        <path id="DejaVuSans-30" d="M 2034 4250 
Q 1547 4250 1301 3770 
Q 1056 3291 1056 2328 
Q 1056 1369 1301 889 
Q 1547 409 2034 409 
Q 2525 409 2770 889 
Q 3016 1369 3016 2328 
Q 3016 3291 2770 3770 
Q 2525 4250 2034 4250 
z
M 2034 4750 
Q 2819 4750 3233 4129 
Q 3647 3509 3647 2328 
Q 3647 1150 3233 529 
Q 2819 -91 2034 -91 
Q 1250 -91 836 529 
Q 422 1150 422 2328 
Q 422 3509 836 4129 
Q 1250 4750 2034 4750 
z
" transform="scale(0.015625)"/>
       </defs>
       <use xlink:href="#DejaVuSans-30"/>
      </g>
     </g>
    </g>
    <g id="xtick_2">
     <g id="line2d_2">
      <g>
       <use xlink:href="#m97a88ae758" x="194.770626" y="499.48" style="stroke: #000000; stroke-width: 0.8"/>
      </g>
     </g>
     <g id="text_2">
      <!-- 10 -->
      <g transform="translate(180.773126 523.196563) scale(0.22 -0.22)">
       <defs>
        <path id="DejaVuSans-31" d="M 794 531 
L 1825 531 
L 1825 4091 
L 703 3866 
L 703 4441 
L 1819 4666 
L 2450 4666 
L 2450 531 
L 3481 531 
L 3481 0 
L 794 0 
L 794 531 
z
" transform="scale(0.015625)"/>
       </defs>
       <use xlink:href="#DejaVuSans-31"/>
       <use xlink:href="#DejaVuSans-30" x="63.623047"/>
      </g>
     </g>
    </g>
    <g id="xtick_3">
     <g id="line2d_3">
      <g>
       <use xlink:href="#m97a88ae758" x="264.231149" y="499.48" style="stroke: #000000; stroke-width: 0.8"/>
      </g>
     </g>
     <g id="text_3">
      <!-- 20 -->
      <g transform="translate(250.233649 523.196563) scale(0.22 -0.22)">
       <defs>
        <path id="DejaVuSans-32" d="M 1228 531 
L 3431 531 
L 3431 0 
L 469 0 
L 469 531 
Q 828 903 1448 1529 
Q 2069 2156 2228 2338 
Q 2531 2678 2651 2914 
Q 2772 3150 2772 3378 
Q 2772 3750 2511 3984 
Q 2250 4219 1831 4219 
Q 1534 4219 1204 4116 
Q 875 4013 500 3803 
L 500 4441 
Q 881 4594 1212 4672 
Q 1544 4750 1819 4750 
Q 2544 4750 2975 4387 
Q 3406 4025 3406 3419 
Q 3406 3131 3298 2873 
Q 3191 2616 2906 2266 
Q 2828 2175 2409 1742 
Q 1991 1309 1228 531 
z
" transform="scale(0.015625)"/>
       </defs>
       <use xlink:href="#DejaVuSans-32"/>
       <use xlink:href="#DejaVuSans-30" x="63.623047"/>
      </g>
     </g>
    </g>
    <g id="xtick_4">
     <g id="line2d_4">
      <g>
       <use xlink:href="#m97a88ae758" x="333.691672" y="499.48" style="stroke: #000000; stroke-width: 0.8"/>
      </g>
     </g>
     <g id="text_4">
      <!-- 30 -->
      <g transform="translate(319.694172 523.196563) scale(0.22 -0.22)">
       <defs>
        <path id="DejaVuSans-33" d="M 2597 2516 
Q 3050 2419 3304 2112 
Q 3559 1806 3559 1356 
Q 3559 666 3084 287 
Q 2609 -91 1734 -91 
Q 1441 -91 1130 -33 
Q 819 25 488 141 
L 488 750 
Q 750 597 1062 519 
Q 1375 441 1716 441 
Q 2309 441 2620 675 
Q 2931 909 2931 1356 
Q 2931 1769 2642 2001 
Q 2353 2234 1838 2234 
L 1294 2234 
L 1294 2753 
L 1863 2753 
Q 2328 2753 2575 2939 
Q 2822 3125 2822 3475 
Q 2822 3834 2567 4026 
Q 2313 4219 1838 4219 
Q 1578 4219 1281 4162 
Q 984 4106 628 3988 
L 628 4550 
Q 988 4650 1302 4700 
Q 1616 4750 1894 4750 
Q 2613 4750 3031 4423 
Q 3450 4097 3450 3541 
Q 3450 3153 3228 2886 
Q 3006 2619 2597 2516 
z
" transform="scale(0.015625)"/>
       </defs>
       <use xlink:href="#DejaVuSans-33"/>
       <use xlink:href="#DejaVuSans-30" x="63.623047"/>
      </g>
     </g>
    </g>
    <g id="xtick_5">
     <g id="line2d_5">
      <g>
       <use xlink:href="#m97a88ae758" x="403.152195" y="499.48" style="stroke: #000000; stroke-width: 0.8"/>
      </g>
     </g>
     <g id="text_5">
      <!-- 40 -->
      <g transform="translate(389.154695 523.196563) scale(0.22 -0.22)">
       <defs>
        <path id="DejaVuSans-34" d="M 2419 4116 
L 825 1625 
L 2419 1625 
L 2419 4116 
z
M 2253 4666 
L 3047 4666 
L 3047 1625 
L 3713 1625 
L 3713 1100 
L 3047 1100 
L 3047 0 
L 2419 0 
L 2419 1100 
L 313 1100 
L 313 1709 
L 2253 4666 
z
" transform="scale(0.015625)"/>
       </defs>
       <use xlink:href="#DejaVuSans-34"/>
       <use xlink:href="#DejaVuSans-30" x="63.623047"/>
      </g>
     </g>
    </g>
    <g id="xtick_6">
     <g id="line2d_6">
      <g>
       <use xlink:href="#m97a88ae758" x="472.612718" y="499.48" style="stroke: #000000; stroke-width: 0.8"/>
      </g>
     </g>
     <g id="text_6">
      <!-- 50 -->
      <g transform="translate(458.615218 523.196563) scale(0.22 -0.22)">
       <defs>
        <path id="DejaVuSans-35" d="M 691 4666 
L 3169 4666 
L 3169 4134 
L 1269 4134 
L 1269 2991 
Q 1406 3038 1543 3061 
Q 1681 3084 1819 3084 
Q 2600 3084 3056 2656 
Q 3513 2228 3513 1497 
Q 3513 744 3044 326 
Q 2575 -91 1722 -91 
Q 1428 -91 1123 -41 
Q 819 9 494 109 
L 494 744 
Q 775 591 1075 516 
Q 1375 441 1709 441 
Q 2250 441 2565 725 
Q 2881 1009 2881 1497 
Q 2881 1984 2565 2268 
Q 2250 2553 1709 2553 
Q 1456 2553 1204 2497 
Q 953 2441 691 2322 
L 691 4666 
z
" transform="scale(0.015625)"/>
       </defs>
       <use xlink:href="#DejaVuSans-35"/>
       <use xlink:href="#DejaVuSans-30" x="63.623047"/>
      </g>
     </g>
    </g>
    <g id="xtick_7">
     <g id="line2d_7">
      <g>
       <use xlink:href="#m97a88ae758" x="542.073241" y="499.48" style="stroke: #000000; stroke-width: 0.8"/>
      </g>
     </g>
     <g id="text_7">
      <!-- 60 -->
      <g transform="translate(528.075741 523.196563) scale(0.22 -0.22)">
       <defs>
        <path id="DejaVuSans-36" d="M 2113 2584 
Q 1688 2584 1439 2293 
Q 1191 2003 1191 1497 
Q 1191 994 1439 701 
Q 1688 409 2113 409 
Q 2538 409 2786 701 
Q 3034 994 3034 1497 
Q 3034 2003 2786 2293 
Q 2538 2584 2113 2584 
z
M 3366 4563 
L 3366 3988 
Q 3128 4100 2886 4159 
Q 2644 4219 2406 4219 
Q 1781 4219 1451 3797 
Q 1122 3375 1075 2522 
Q 1259 2794 1537 2939 
Q 1816 3084 2150 3084 
Q 2853 3084 3261 2657 
Q 3669 2231 3669 1497 
Q 3669 778 3244 343 
Q 2819 -91 2113 -91 
Q 1303 -91 875 529 
Q 447 1150 447 2328 
Q 447 3434 972 4092 
Q 1497 4750 2381 4750 
Q 2619 4750 2861 4703 
Q 3103 4656 3366 4563 
z
" transform="scale(0.015625)"/>
       </defs>
       <use xlink:href="#DejaVuSans-36"/>
       <use xlink:href="#DejaVuSans-30" x="63.623047"/>
      </g>
     </g>
    </g>
    <g id="xtick_8">
     <g id="line2d_8">
      <g>
       <use xlink:href="#m97a88ae758" x="611.533765" y="499.48" style="stroke: #000000; stroke-width: 0.8"/>
      </g>
     </g>
     <g id="text_8">
      <!-- 70 -->
      <g transform="translate(597.536265 523.196563) scale(0.22 -0.22)">
       <defs>
        <path id="DejaVuSans-37" d="M 525 4666 
L 3525 4666 
L 3525 4397 
L 1831 0 
L 1172 0 
L 2766 4134 
L 525 4134 
L 525 4666 
z
" transform="scale(0.015625)"/>
       </defs>
       <use xlink:href="#DejaVuSans-37"/>
       <use xlink:href="#DejaVuSans-30" x="63.623047"/>
      </g>
     </g>
    </g>
    <g id="xtick_9">
     <g id="line2d_9">
      <g>
       <use xlink:href="#m97a88ae758" x="680.994288" y="499.48" style="stroke: #000000; stroke-width: 0.8"/>
      </g>
     </g>
     <g id="text_9">
      <!-- 80 -->
      <g transform="translate(666.996788 523.196563) scale(0.22 -0.22)">
       <defs>
        <path id="DejaVuSans-38" d="M 2034 2216 
Q 1584 2216 1326 1975 
Q 1069 1734 1069 1313 
Q 1069 891 1326 650 
Q 1584 409 2034 409 
Q 2484 409 2743 651 
Q 3003 894 3003 1313 
Q 3003 1734 2745 1975 
Q 2488 2216 2034 2216 
z
M 1403 2484 
Q 997 2584 770 2862 
Q 544 3141 544 3541 
Q 544 4100 942 4425 
Q 1341 4750 2034 4750 
Q 2731 4750 3128 4425 
Q 3525 4100 3525 3541 
Q 3525 3141 3298 2862 
Q 3072 2584 2669 2484 
Q 3125 2378 3379 2068 
Q 3634 1759 3634 1313 
Q 3634 634 3220 271 
Q 2806 -91 2034 -91 
Q 1263 -91 848 271 
Q 434 634 434 1313 
Q 434 1759 690 2068 
Q 947 2378 1403 2484 
z
M 1172 3481 
Q 1172 3119 1398 2916 
Q 1625 2713 2034 2713 
Q 2441 2713 2670 2916 
Q 2900 3119 2900 3481 
Q 2900 3844 2670 4047 
Q 2441 4250 2034 4250 
Q 1625 4250 1398 4047 
Q 1172 3844 1172 3481 
z
" transform="scale(0.015625)"/>
       </defs>
       <use xlink:href="#DejaVuSans-38"/>
       <use xlink:href="#DejaVuSans-30" x="63.623047"/>
      </g>
     </g>
    </g>
    <g id="text_10">
     <!-- Force Uncertainties -->
     <g transform="translate(282.736359 548.488438) scale(0.22 -0.22)">
      <defs>
       <path id="DejaVuSans-46" d="M 628 4666 
L 3309 4666 
L 3309 4134 
L 1259 4134 
L 1259 2759 
L 3109 2759 
L 3109 2228 
L 1259 2228 
L 1259 0 
L 628 0 
L 628 4666 
z
" transform="scale(0.015625)"/>
       <path id="DejaVuSans-6f" d="M 1959 3097 
Q 1497 3097 1228 2736 
Q 959 2375 959 1747 
Q 959 1119 1226 758 
Q 1494 397 1959 397 
Q 2419 397 2687 759 
Q 2956 1122 2956 1747 
Q 2956 2369 2687 2733 
Q 2419 3097 1959 3097 
z
M 1959 3584 
Q 2709 3584 3137 3096 
Q 3566 2609 3566 1747 
Q 3566 888 3137 398 
Q 2709 -91 1959 -91 
Q 1206 -91 779 398 
Q 353 888 353 1747 
Q 353 2609 779 3096 
Q 1206 3584 1959 3584 
z
" transform="scale(0.015625)"/>
       <path id="DejaVuSans-72" d="M 2631 2963 
Q 2534 3019 2420 3045 
Q 2306 3072 2169 3072 
Q 1681 3072 1420 2755 
Q 1159 2438 1159 1844 
L 1159 0 
L 581 0 
L 581 3500 
L 1159 3500 
L 1159 2956 
Q 1341 3275 1631 3429 
Q 1922 3584 2338 3584 
Q 2397 3584 2469 3576 
Q 2541 3569 2628 3553 
L 2631 2963 
z
" transform="scale(0.015625)"/>
       <path id="DejaVuSans-63" d="M 3122 3366 
L 3122 2828 
Q 2878 2963 2633 3030 
Q 2388 3097 2138 3097 
Q 1578 3097 1268 2742 
Q 959 2388 959 1747 
Q 959 1106 1268 751 
Q 1578 397 2138 397 
Q 2388 397 2633 464 
Q 2878 531 3122 666 
L 3122 134 
Q 2881 22 2623 -34 
Q 2366 -91 2075 -91 
Q 1284 -91 818 406 
Q 353 903 353 1747 
Q 353 2603 823 3093 
Q 1294 3584 2113 3584 
Q 2378 3584 2631 3529 
Q 2884 3475 3122 3366 
z
" transform="scale(0.015625)"/>
       <path id="DejaVuSans-65" d="M 3597 1894 
L 3597 1613 
L 953 1613 
Q 991 1019 1311 708 
Q 1631 397 2203 397 
Q 2534 397 2845 478 
Q 3156 559 3463 722 
L 3463 178 
Q 3153 47 2828 -22 
Q 2503 -91 2169 -91 
Q 1331 -91 842 396 
Q 353 884 353 1716 
Q 353 2575 817 3079 
Q 1281 3584 2069 3584 
Q 2775 3584 3186 3129 
Q 3597 2675 3597 1894 
z
M 3022 2063 
Q 3016 2534 2758 2815 
Q 2500 3097 2075 3097 
Q 1594 3097 1305 2825 
Q 1016 2553 972 2059 
L 3022 2063 
z
" transform="scale(0.015625)"/>
       <path id="DejaVuSans-20" transform="scale(0.015625)"/>
       <path id="DejaVuSans-55" d="M 556 4666 
L 1191 4666 
L 1191 1831 
Q 1191 1081 1462 751 
Q 1734 422 2344 422 
Q 2950 422 3222 751 
Q 3494 1081 3494 1831 
L 3494 4666 
L 4128 4666 
L 4128 1753 
Q 4128 841 3676 375 
Q 3225 -91 2344 -91 
Q 1459 -91 1007 375 
Q 556 841 556 1753 
L 556 4666 
z
" transform="scale(0.015625)"/>
       <path id="DejaVuSans-6e" d="M 3513 2113 
L 3513 0 
L 2938 0 
L 2938 2094 
Q 2938 2591 2744 2837 
Q 2550 3084 2163 3084 
Q 1697 3084 1428 2787 
Q 1159 2491 1159 1978 
L 1159 0 
L 581 0 
L 581 3500 
L 1159 3500 
L 1159 2956 
Q 1366 3272 1645 3428 
Q 1925 3584 2291 3584 
Q 2894 3584 3203 3211 
Q 3513 2838 3513 2113 
z
" transform="scale(0.015625)"/>
       <path id="DejaVuSans-74" d="M 1172 4494 
L 1172 3500 
L 2356 3500 
L 2356 3053 
L 1172 3053 
L 1172 1153 
Q 1172 725 1289 603 
Q 1406 481 1766 481 
L 2356 481 
L 2356 0 
L 1766 0 
Q 1100 0 847 248 
Q 594 497 594 1153 
L 594 3053 
L 172 3053 
L 172 3500 
L 594 3500 
L 594 4494 
L 1172 4494 
z
" transform="scale(0.015625)"/>
       <path id="DejaVuSans-61" d="M 2194 1759 
Q 1497 1759 1228 1600 
Q 959 1441 959 1056 
Q 959 750 1161 570 
Q 1363 391 1709 391 
Q 2188 391 2477 730 
Q 2766 1069 2766 1631 
L 2766 1759 
L 2194 1759 
z
M 3341 1997 
L 3341 0 
L 2766 0 
L 2766 531 
Q 2569 213 2275 61 
Q 1981 -91 1556 -91 
Q 1019 -91 701 211 
Q 384 513 384 1019 
Q 384 1609 779 1909 
Q 1175 2209 1959 2209 
L 2766 2209 
L 2766 2266 
Q 2766 2663 2505 2880 
Q 2244 3097 1772 3097 
Q 1472 3097 1187 3025 
Q 903 2953 641 2809 
L 641 3341 
Q 956 3463 1253 3523 
Q 1550 3584 1831 3584 
Q 2591 3584 2966 3190 
Q 3341 2797 3341 1997 
z
" transform="scale(0.015625)"/>
       <path id="DejaVuSans-69" d="M 603 3500 
L 1178 3500 
L 1178 0 
L 603 0 
L 603 3500 
z
M 603 4863 
L 1178 4863 
L 1178 4134 
L 603 4134 
L 603 4863 
z
" transform="scale(0.015625)"/>
       <path id="DejaVuSans-73" d="M 2834 3397 
L 2834 2853 
Q 2591 2978 2328 3040 
Q 2066 3103 1784 3103 
Q 1356 3103 1142 2972 
Q 928 2841 928 2578 
Q 928 2378 1081 2264 
Q 1234 2150 1697 2047 
L 1894 2003 
Q 2506 1872 2764 1633 
Q 3022 1394 3022 966 
Q 3022 478 2636 193 
Q 2250 -91 1575 -91 
Q 1294 -91 989 -36 
Q 684 19 347 128 
L 347 722 
Q 666 556 975 473 
Q 1284 391 1588 391 
Q 1994 391 2212 530 
Q 2431 669 2431 922 
Q 2431 1156 2273 1281 
Q 2116 1406 1581 1522 
L 1381 1569 
Q 847 1681 609 1914 
Q 372 2147 372 2553 
Q 372 3047 722 3315 
Q 1072 3584 1716 3584 
Q 2034 3584 2315 3537 
Q 2597 3491 2834 3397 
z
" transform="scale(0.015625)"/>
      </defs>
      <use xlink:href="#DejaVuSans-46"/>
      <use xlink:href="#DejaVuSans-6f" x="53.894531"/>
      <use xlink:href="#DejaVuSans-72" x="115.076172"/>
      <use xlink:href="#DejaVuSans-63" x="153.939453"/>
      <use xlink:href="#DejaVuSans-65" x="208.919922"/>
      <use xlink:href="#DejaVuSans-20" x="270.443359"/>
      <use xlink:href="#DejaVuSans-55" x="302.230469"/>
      <use xlink:href="#DejaVuSans-6e" x="375.423828"/>
      <use xlink:href="#DejaVuSans-63" x="438.802734"/>
      <use xlink:href="#DejaVuSans-65" x="493.783203"/>
      <use xlink:href="#DejaVuSans-72" x="555.306641"/>
      <use xlink:href="#DejaVuSans-74" x="596.419922"/>
      <use xlink:href="#DejaVuSans-61" x="635.628906"/>
      <use xlink:href="#DejaVuSans-69" x="696.908203"/>
      <use xlink:href="#DejaVuSans-6e" x="724.691406"/>
      <use xlink:href="#DejaVuSans-74" x="788.070312"/>
      <use xlink:href="#DejaVuSans-69" x="827.279297"/>
      <use xlink:href="#DejaVuSans-65" x="855.0625"/>
      <use xlink:href="#DejaVuSans-73" x="916.585938"/>
     </g>
    </g>
   </g>
   <g id="matplotlib.axis_2">
    <g id="ytick_1">
     <g id="line2d_10">
      <defs>
       <path id="m344e5b8ec2" d="M 0 0 
L -3.5 0 
" style="stroke: #000000; stroke-width: 0.8"/>
      </defs>
      <g>
       <use xlink:href="#m344e5b8ec2" x="83.72" y="467.105706" style="stroke: #000000; stroke-width: 0.8"/>
      </g>
     </g>
     <g id="text_11">
      <!-- 0 -->
      <g transform="translate(62.7225 475.463987) scale(0.22 -0.22)">
       <use xlink:href="#DejaVuSans-30"/>
      </g>
     </g>
    </g>
    <g id="ytick_2">
     <g id="line2d_11">
      <g>
       <use xlink:href="#m344e5b8ec2" x="83.72" y="413.036701" style="stroke: #000000; stroke-width: 0.8"/>
      </g>
     </g>
     <g id="text_12">
      <!-- 10 -->
      <g transform="translate(48.725 421.394982) scale(0.22 -0.22)">
       <use xlink:href="#DejaVuSans-31"/>
       <use xlink:href="#DejaVuSans-30" x="63.623047"/>
      </g>
     </g>
    </g>
    <g id="ytick_3">
     <g id="line2d_12">
      <g>
       <use xlink:href="#m344e5b8ec2" x="83.72" y="358.967697" style="stroke: #000000; stroke-width: 0.8"/>
      </g>
     </g>
     <g id="text_13">
      <!-- 20 -->
      <g transform="translate(48.725 367.325978) scale(0.22 -0.22)">
       <use xlink:href="#DejaVuSans-32"/>
       <use xlink:href="#DejaVuSans-30" x="63.623047"/>
      </g>
     </g>
    </g>
    <g id="ytick_4">
     <g id="line2d_13">
      <g>
       <use xlink:href="#m344e5b8ec2" x="83.72" y="304.898692" style="stroke: #000000; stroke-width: 0.8"/>
      </g>
     </g>
     <g id="text_14">
      <!-- 30 -->
      <g transform="translate(48.725 313.256974) scale(0.22 -0.22)">
       <use xlink:href="#DejaVuSans-33"/>
       <use xlink:href="#DejaVuSans-30" x="63.623047"/>
      </g>
     </g>
    </g>
    <g id="ytick_5">
     <g id="line2d_14">
      <g>
       <use xlink:href="#m344e5b8ec2" x="83.72" y="250.829688" style="stroke: #000000; stroke-width: 0.8"/>
      </g>
     </g>
     <g id="text_15">
      <!-- 40 -->
      <g transform="translate(48.725 259.187969) scale(0.22 -0.22)">
       <use xlink:href="#DejaVuSans-34"/>
       <use xlink:href="#DejaVuSans-30" x="63.623047"/>
      </g>
     </g>
    </g>
    <g id="ytick_6">
     <g id="line2d_15">
      <g>
       <use xlink:href="#m344e5b8ec2" x="83.72" y="196.760683" style="stroke: #000000; stroke-width: 0.8"/>
      </g>
     </g>
     <g id="text_16">
      <!-- 50 -->
      <g transform="translate(48.725 205.118965) scale(0.22 -0.22)">
       <use xlink:href="#DejaVuSans-35"/>
       <use xlink:href="#DejaVuSans-30" x="63.623047"/>
      </g>
     </g>
    </g>
    <g id="ytick_7">
     <g id="line2d_16">
      <g>
       <use xlink:href="#m344e5b8ec2" x="83.72" y="142.691679" style="stroke: #000000; stroke-width: 0.8"/>
      </g>
     </g>
     <g id="text_17">
      <!-- 60 -->
      <g transform="translate(48.725 151.04996) scale(0.22 -0.22)">
       <use xlink:href="#DejaVuSans-36"/>
       <use xlink:href="#DejaVuSans-30" x="63.623047"/>
      </g>
     </g>
    </g>
    <g id="ytick_8">
     <g id="line2d_17">
      <g>
       <use xlink:href="#m344e5b8ec2" x="83.72" y="88.622675" style="stroke: #000000; stroke-width: 0.8"/>
      </g>
     </g>
     <g id="text_18">
      <!-- 70 -->
      <g transform="translate(48.725 96.980956) scale(0.22 -0.22)">
       <use xlink:href="#DejaVuSans-37"/>
       <use xlink:href="#DejaVuSans-30" x="63.623047"/>
      </g>
     </g>
    </g>
    <g id="ytick_9">
     <g id="line2d_18">
      <g>
       <use xlink:href="#m344e5b8ec2" x="83.72" y="34.55367" style="stroke: #000000; stroke-width: 0.8"/>
      </g>
     </g>
     <g id="text_19">
      <!-- 80 -->
      <g transform="translate(48.725 42.911951) scale(0.22 -0.22)">
       <use xlink:href="#DejaVuSans-38"/>
       <use xlink:href="#DejaVuSans-30" x="63.623047"/>
      </g>
     </g>
    </g>
    <g id="text_20">
     <!-- Force Errors [kJ/(mol*A)] -->
     <g transform="translate(40.149688 394.9125) rotate(-90) scale(0.22 -0.22)">
      <defs>
       <path id="DejaVuSans-45" d="M 628 4666 
L 3578 4666 
L 3578 4134 
L 1259 4134 
L 1259 2753 
L 3481 2753 
L 3481 2222 
L 1259 2222 
L 1259 531 
L 3634 531 
L 3634 0 
L 628 0 
L 628 4666 
z
" transform="scale(0.015625)"/>
       <path id="DejaVuSans-5b" d="M 550 4863 
L 1875 4863 
L 1875 4416 
L 1125 4416 
L 1125 -397 
L 1875 -397 
L 1875 -844 
L 550 -844 
L 550 4863 
z
" transform="scale(0.015625)"/>
       <path id="DejaVuSans-6b" d="M 581 4863 
L 1159 4863 
L 1159 1991 
L 2875 3500 
L 3609 3500 
L 1753 1863 
L 3688 0 
L 2938 0 
L 1159 1709 
L 1159 0 
L 581 0 
L 581 4863 
z
" transform="scale(0.015625)"/>
       <path id="DejaVuSans-4a" d="M 628 4666 
L 1259 4666 
L 1259 325 
Q 1259 -519 939 -900 
Q 619 -1281 -91 -1281 
L -331 -1281 
L -331 -750 
L -134 -750 
Q 284 -750 456 -515 
Q 628 -281 628 325 
L 628 4666 
z
" transform="scale(0.015625)"/>
       <path id="DejaVuSans-2f" d="M 1625 4666 
L 2156 4666 
L 531 -594 
L 0 -594 
L 1625 4666 
z
" transform="scale(0.015625)"/>
       <path id="DejaVuSans-28" d="M 1984 4856 
Q 1566 4138 1362 3434 
Q 1159 2731 1159 2009 
Q 1159 1288 1364 580 
Q 1569 -128 1984 -844 
L 1484 -844 
Q 1016 -109 783 600 
Q 550 1309 550 2009 
Q 550 2706 781 3412 
Q 1013 4119 1484 4856 
L 1984 4856 
z
" transform="scale(0.015625)"/>
       <path id="DejaVuSans-6d" d="M 3328 2828 
Q 3544 3216 3844 3400 
Q 4144 3584 4550 3584 
Q 5097 3584 5394 3201 
Q 5691 2819 5691 2113 
L 5691 0 
L 5113 0 
L 5113 2094 
Q 5113 2597 4934 2840 
Q 4756 3084 4391 3084 
Q 3944 3084 3684 2787 
Q 3425 2491 3425 1978 
L 3425 0 
L 2847 0 
L 2847 2094 
Q 2847 2600 2669 2842 
Q 2491 3084 2119 3084 
Q 1678 3084 1418 2786 
Q 1159 2488 1159 1978 
L 1159 0 
L 581 0 
L 581 3500 
L 1159 3500 
L 1159 2956 
Q 1356 3278 1631 3431 
Q 1906 3584 2284 3584 
Q 2666 3584 2933 3390 
Q 3200 3197 3328 2828 
z
" transform="scale(0.015625)"/>
       <path id="DejaVuSans-6c" d="M 603 4863 
L 1178 4863 
L 1178 0 
L 603 0 
L 603 4863 
z
" transform="scale(0.015625)"/>
       <path id="DejaVuSans-2a" d="M 3009 3897 
L 1888 3291 
L 3009 2681 
L 2828 2375 
L 1778 3009 
L 1778 1831 
L 1422 1831 
L 1422 3009 
L 372 2375 
L 191 2681 
L 1313 3291 
L 191 3897 
L 372 4206 
L 1422 3572 
L 1422 4750 
L 1778 4750 
L 1778 3572 
L 2828 4206 
L 3009 3897 
z
" transform="scale(0.015625)"/>
       <path id="DejaVuSans-41" d="M 2188 4044 
L 1331 1722 
L 3047 1722 
L 2188 4044 
z
M 1831 4666 
L 2547 4666 
L 4325 0 
L 3669 0 
L 3244 1197 
L 1141 1197 
L 716 0 
L 50 0 
L 1831 4666 
z
" transform="scale(0.015625)"/>
       <path id="DejaVuSans-29" d="M 513 4856 
L 1013 4856 
Q 1481 4119 1714 3412 
Q 1947 2706 1947 2009 
Q 1947 1309 1714 600 
Q 1481 -109 1013 -844 
L 513 -844 
Q 928 -128 1133 580 
Q 1338 1288 1338 2009 
Q 1338 2731 1133 3434 
Q 928 4138 513 4856 
z
" transform="scale(0.015625)"/>
       <path id="DejaVuSans-5d" d="M 1947 4863 
L 1947 -844 
L 622 -844 
L 622 -397 
L 1369 -397 
L 1369 4416 
L 622 4416 
L 622 4863 
L 1947 4863 
z
" transform="scale(0.015625)"/>
      </defs>
      <use xlink:href="#DejaVuSans-46"/>
      <use xlink:href="#DejaVuSans-6f" x="53.894531"/>
      <use xlink:href="#DejaVuSans-72" x="115.076172"/>
      <use xlink:href="#DejaVuSans-63" x="153.939453"/>
      <use xlink:href="#DejaVuSans-65" x="208.919922"/>
      <use xlink:href="#DejaVuSans-20" x="270.443359"/>
      <use xlink:href="#DejaVuSans-45" x="302.230469"/>
      <use xlink:href="#DejaVuSans-72" x="365.414062"/>
      <use xlink:href="#DejaVuSans-72" x="404.777344"/>
      <use xlink:href="#DejaVuSans-6f" x="443.640625"/>
      <use xlink:href="#DejaVuSans-72" x="504.822266"/>
      <use xlink:href="#DejaVuSans-73" x="545.935547"/>
      <use xlink:href="#DejaVuSans-20" x="598.035156"/>
      <use xlink:href="#DejaVuSans-5b" x="629.822266"/>
      <use xlink:href="#DejaVuSans-6b" x="668.835938"/>
      <use xlink:href="#DejaVuSans-4a" x="726.746094"/>
      <use xlink:href="#DejaVuSans-2f" x="756.238281"/>
      <use xlink:href="#DejaVuSans-28" x="789.929688"/>
      <use xlink:href="#DejaVuSans-6d" x="828.943359"/>
      <use xlink:href="#DejaVuSans-6f" x="926.355469"/>
      <use xlink:href="#DejaVuSans-6c" x="987.537109"/>
      <use xlink:href="#DejaVuSans-2a" x="1015.320312"/>
      <use xlink:href="#DejaVuSans-41" x="1065.320312"/>
      <use xlink:href="#DejaVuSans-29" x="1133.728516"/>
      <use xlink:href="#DejaVuSans-5d" x="1172.742188"/>
     </g>
    </g>
   </g>
   <g id="line2d_19">
    <path d="M 83.72 499.48 
L 694.860531 23.76 
" clip-path="url(#p6a70e5f299)" style="fill: none; stroke-dasharray: 5.55,2.4; stroke-dashoffset: 0; stroke: #ff0000; stroke-width: 1.5"/>
   </g>
   <g id="patch_3">
    <path d="M 83.72 499.48 
L 83.72 23.76 
" style="fill: none; stroke: #000000; stroke-width: 0.8; stroke-linejoin: miter; stroke-linecap: square"/>
   </g>
   <g id="patch_4">
    <path d="M 694.860531 499.48 
L 694.860531 23.76 
" style="fill: none; stroke: #000000; stroke-width: 0.8; stroke-linejoin: miter; stroke-linecap: square"/>
   </g>
   <g id="patch_5">
    <path d="M 83.72 499.48 
L 694.860531 499.48 
" style="fill: none; stroke: #000000; stroke-width: 0.8; stroke-linejoin: miter; stroke-linecap: square"/>
   </g>
   <g id="patch_6">
    <path d="M 83.72 23.76 
L 694.860531 23.76 
" style="fill: none; stroke: #000000; stroke-width: 0.8; stroke-linejoin: miter; stroke-linecap: square"/>
   </g>
   <g id="text_21">
    <!-- Correlation in: 0.945 -->
    <g transform="translate(144.834053 71.332) scale(0.22 -0.22)">
     <defs>
      <path id="DejaVuSans-43" d="M 4122 4306 
L 4122 3641 
Q 3803 3938 3442 4084 
Q 3081 4231 2675 4231 
Q 1875 4231 1450 3742 
Q 1025 3253 1025 2328 
Q 1025 1406 1450 917 
Q 1875 428 2675 428 
Q 3081 428 3442 575 
Q 3803 722 4122 1019 
L 4122 359 
Q 3791 134 3420 21 
Q 3050 -91 2638 -91 
Q 1578 -91 968 557 
Q 359 1206 359 2328 
Q 359 3453 968 4101 
Q 1578 4750 2638 4750 
Q 3056 4750 3426 4639 
Q 3797 4528 4122 4306 
z
" transform="scale(0.015625)"/>
      <path id="DejaVuSans-3a" d="M 750 794 
L 1409 794 
L 1409 0 
L 750 0 
L 750 794 
z
M 750 3309 
L 1409 3309 
L 1409 2516 
L 750 2516 
L 750 3309 
z
" transform="scale(0.015625)"/>
      <path id="DejaVuSans-2e" d="M 684 794 
L 1344 794 
L 1344 0 
L 684 0 
L 684 794 
z
" transform="scale(0.015625)"/>
      <path id="DejaVuSans-39" d="M 703 97 
L 703 672 
Q 941 559 1184 500 
Q 1428 441 1663 441 
Q 2288 441 2617 861 
Q 2947 1281 2994 2138 
Q 2813 1869 2534 1725 
Q 2256 1581 1919 1581 
Q 1219 1581 811 2004 
Q 403 2428 403 3163 
Q 403 3881 828 4315 
Q 1253 4750 1959 4750 
Q 2769 4750 3195 4129 
Q 3622 3509 3622 2328 
Q 3622 1225 3098 567 
Q 2575 -91 1691 -91 
Q 1453 -91 1209 -44 
Q 966 3 703 97 
z
M 1959 2075 
Q 2384 2075 2632 2365 
Q 2881 2656 2881 3163 
Q 2881 3666 2632 3958 
Q 2384 4250 1959 4250 
Q 1534 4250 1286 3958 
Q 1038 3666 1038 3163 
Q 1038 2656 1286 2365 
Q 1534 2075 1959 2075 
z
" transform="scale(0.015625)"/>
     </defs>
     <use xlink:href="#DejaVuSans-43"/>
     <use xlink:href="#DejaVuSans-6f" x="69.824219"/>
     <use xlink:href="#DejaVuSans-72" x="131.005859"/>
     <use xlink:href="#DejaVuSans-72" x="170.369141"/>
     <use xlink:href="#DejaVuSans-65" x="209.232422"/>
     <use xlink:href="#DejaVuSans-6c" x="270.755859"/>
     <use xlink:href="#DejaVuSans-61" x="298.539062"/>
     <use xlink:href="#DejaVuSans-74" x="359.818359"/>
     <use xlink:href="#DejaVuSans-69" x="399.027344"/>
     <use xlink:href="#DejaVuSans-6f" x="426.810547"/>
     <use xlink:href="#DejaVuSans-6e" x="487.992188"/>
     <use xlink:href="#DejaVuSans-20" x="551.371094"/>
     <use xlink:href="#DejaVuSans-69" x="583.158203"/>
     <use xlink:href="#DejaVuSans-6e" x="610.941406"/>
     <use xlink:href="#DejaVuSans-3a" x="674.320312"/>
     <use xlink:href="#DejaVuSans-20" x="708.011719"/>
     <use xlink:href="#DejaVuSans-30" x="739.798828"/>
     <use xlink:href="#DejaVuSans-2e" x="803.421875"/>
     <use xlink:href="#DejaVuSans-39" x="835.208984"/>
     <use xlink:href="#DejaVuSans-34" x="898.832031"/>
     <use xlink:href="#DejaVuSans-35" x="962.455078"/>
    </g>
   </g>
  </g>
 </g>
 <defs>
  <clipPath id="p6a70e5f299">
   <rect x="83.72" y="23.76" width="611.140531" height="475.72"/>
  </clipPath>
 </defs>
</svg>
