<?xml version="1.0" encoding="utf-8" standalone="no"?>
<!DOCTYPE svg PUBLIC "-//W3C//DTD SVG 1.1//EN"
  "http://www.w3.org/Graphics/SVG/1.1/DTD/svg11.dtd">
<svg xmlns:xlink="http://www.w3.org/1999/xlink" width="720pt" height="576pt" viewBox="0 0 720 576" xmlns="http://www.w3.org/2000/svg" version="1.1">
 <metadata>
  <rdf:RDF xmlns:dc="http://purl.org/dc/elements/1.1/" xmlns:cc="http://creativecommons.org/ns#" xmlns:rdf="http://www.w3.org/1999/02/22-rdf-syntax-ns#">
   <cc:Work>
    <dc:type rdf:resource="http://purl.org/dc/dcmitype/StillImage"/>
    <dc:date>2024-12-08T01:46:53.595134</dc:date>
    <dc:format>image/svg+xml</dc:format>
    <dc:creator>
     <cc:Agent>
      <dc:title>Matplotlib v3.8.4, https://matplotlib.org/</dc:title>
     </cc:Agent>
    </dc:creator>
   </cc:Work>
  </rdf:RDF>
 </metadata>
 <defs>
  <style type="text/css">*{stroke-linejoin: round; stroke-linecap: butt}</style>
 </defs>
 <g id="figure_1">
  <g id="patch_1">
   <path d="M 0 576 
L 720 576 
L 720 0 
L 0 0 
z
" style="fill: #ffffff"/>
  </g>
  <g id="axes_1">
   <g id="patch_2">
    <path d="M 102.17 499.48 
L 682.2 499.48 
L 682.2 32.04 
L 102.17 32.04 
z
" style="fill: #ffffff"/>
   </g>
   <g id="QuadContourSet_1">
    <path d="M 248.758591 389.308843 
L 251.837971 387.096978 
L 248.758591 384.936513 
L 245.746068 387.096978 
z
M 258.006915 384.397582 
L 263.441469 380.506742 
L 267.25524 378.621321 
L 273.840256 373.916505 
L 276.503565 372.444857 
L 283.67615 367.326268 
L 285.75189 366.054891 
L 293.210008 360.736031 
L 295.000215 359.529177 
L 302.551589 354.145794 
L 304.24854 352.894172 
L 311.738671 347.555557 
L 313.496864 346.143818 
L 320.763189 340.96532 
L 322.745189 339.240525 
L 329.572666 334.375083 
L 331.993514 332.103122 
L 338.053361 327.784846 
L 341.241839 324.581494 
L 345.994724 321.19461 
L 350.490164 316.425721 
L 353.046106 314.604373 
L 359.705 308.014136 
L 359.738489 307.992222 
L 368.861303 301.423899 
L 368.986813 301.333456 
L 378.053379 294.833662 
L 378.235138 294.690459 
L 387.24735 288.243425 
L 387.483463 288.041338 
L 396.418786 281.653188 
L 396.731788 281.364239 
L 405.541539 275.062951 
L 405.980113 274.630683 
L 414.580715 268.472714 
L 415.228438 267.801829 
L 423.487971 261.882478 
L 424.476763 260.828848 
L 432.200299 255.292241 
L 433.725087 253.652251 
L 440.63553 248.702004 
L 442.973412 246.174713 
L 448.652898 242.111767 
L 452.221737 238.173293 
L 455.933827 235.52153 
L 461.470062 229.120475 
L 461.735178 228.931293 
L 470.376881 222.341056 
L 470.718387 221.996753 
L 479.18192 215.750819 
L 479.966712 214.908604 
L 487.798637 209.160582 
L 489.215036 207.567575 
L 496.063486 202.570346 
L 498.463361 199.812624 
L 503.746173 195.980109 
L 507.711686 191.516435 
L 510.659316 189.389872 
L 516.960011 182.799635 
L 516.960011 182.799635 
L 525.019824 176.209398 
L 526.208336 175.025571 
L 533.072439 169.619161 
L 535.456661 166.943238 
L 540.370612 163.028924 
L 535.456661 159.407497 
L 530.863562 163.028924 
L 526.208336 165.269077 
L 520.505699 169.619161 
L 516.960011 171.5642 
L 510.726043 176.209398 
L 507.711686 178.044306 
L 501.220013 182.799635 
L 498.463361 184.635963 
L 491.893038 189.389872 
L 489.215036 191.325261 
L 482.725653 195.980109 
L 479.966712 198.130937 
L 473.7424 202.570346 
L 470.718387 205.103426 
L 465.013178 209.160582 
L 461.470062 212.335759 
L 456.667865 215.750819 
L 452.221737 219.973031 
L 448.903234 222.341056 
L 442.973412 228.179896 
L 441.927214 228.931293 
L 433.820818 235.52153 
L 433.725087 235.58381 
L 424.658693 242.111767 
L 424.476763 242.24129 
L 415.467996 248.702004 
L 415.228438 248.888317 
L 406.284723 255.292241 
L 405.980113 255.550717 
L 397.139274 261.882478 
L 396.731788 262.259593 
L 388.071582 268.472714 
L 387.483463 269.067042 
L 379.150668 275.062951 
L 378.235138 276.076137 
L 370.51393 281.653188 
L 368.986813 283.511344 
L 362.462489 288.243425 
L 359.738489 291.902448 
L 355.712563 294.833662 
L 350.536334 301.423899 
L 350.490164 301.459721 
L 341.452113 308.014136 
L 341.241839 308.194156 
L 332.334868 314.604373 
L 331.993514 314.927635 
L 323.247502 321.19461 
L 322.745189 321.721586 
L 314.26253 327.784846 
L 313.496864 328.674866 
L 305.511018 334.375083 
L 304.24854 336.000025 
L 297.286901 340.96532 
L 295.000215 344.222528 
L 290.325107 347.555557 
L 285.928609 354.145794 
L 285.75189 354.280445 
L 277.720537 360.736031 
L 276.503565 361.757633 
L 269.119067 367.326268 
L 267.25524 369.053059 
L 260.61431 373.916505 
L 258.006915 376.601528 
L 252.598805 380.506742 
z
M 274.368468 367.326268 
L 276.503565 365.716195 
L 278.577391 367.326268 
L 276.503565 368.806218 
z
M 282.436126 360.736031 
L 285.75189 358.070827 
L 288.830992 360.736031 
L 285.75189 362.931935 
z
M 290.903194 354.145794 
L 295.000215 350.279638 
L 298.410652 354.145794 
L 295.000215 356.577098 
z
M 299.040758 347.555557 
L 302.862102 340.96532 
L 304.24854 339.976462 
L 308.600464 334.375083 
L 313.496864 330.880081 
L 316.159631 327.784846 
L 322.745189 323.077602 
L 324.540054 321.19461 
L 331.993514 315.853816 
L 333.312883 314.604373 
L 341.241839 308.898019 
L 342.274266 308.014136 
L 350.490164 302.055948 
L 351.304801 301.423899 
L 359.738489 295.225944 
L 360.295434 294.833662 
L 368.986813 288.295863 
L 369.069091 288.243425 
L 374.773291 281.653188 
L 378.235138 279.152685 
L 381.930683 275.062951 
L 387.483463 271.067418 
L 390.051059 268.472714 
L 396.731788 263.679737 
L 398.673787 261.882478 
L 405.980113 256.649727 
L 407.579886 255.292241 
L 415.228438 249.815686 
L 416.66039 248.702004 
L 424.476763 243.096425 
L 425.859837 242.111767 
L 433.725087 236.448653 
L 435.150178 235.52153 
L 442.973412 229.847059 
L 444.518441 228.931293 
L 452.221737 223.274542 
L 453.964198 222.341056 
L 461.470062 216.718121 
L 463.517278 215.750819 
L 470.718387 210.173221 
L 473.366173 209.160582 
L 479.966712 203.697167 
L 483.723434 209.160582 
L 479.966712 211.917723 
L 476.394961 215.750819 
L 470.718387 219.940028 
L 468.336866 222.341056 
L 461.470062 227.436003 
L 459.873683 228.931293 
L 452.221737 234.646296 
L 451.207119 235.52153 
L 442.973412 241.741371 
L 442.50359 242.111767 
L 434.849264 248.702004 
L 433.725087 249.5073 
L 428.34651 255.292241 
L 424.476763 258.066264 
L 420.895393 261.882478 
L 415.228438 265.943808 
L 412.786844 268.472714 
L 405.980113 273.346284 
L 404.238403 275.062951 
L 396.731788 280.432154 
L 395.409113 281.653188 
L 387.483463 287.31949 
L 386.403961 288.243425 
L 378.235138 294.087127 
L 377.287604 294.833662 
L 368.986813 300.784475 
L 368.099462 301.423899 
L 359.738489 307.443705 
L 358.866765 308.014136 
L 350.490164 314.091593 
L 349.618931 314.604373 
L 341.241839 320.764661 
L 340.415444 321.19461 
L 331.993514 327.543131 
L 331.443379 327.784846 
L 323.67698 334.375083 
L 322.745189 335.039102 
L 315.935241 340.96532 
L 313.496864 342.70308 
L 307.453544 347.555557 
L 304.24854 349.839934 
z
M 486.236929 202.570346 
L 489.215036 199.015217 
L 489.782258 202.570346 
L 489.215036 202.98424 
z
M 544.704985 157.579284 
L 546.057324 156.438687 
L 544.704985 155.028844 
L 543.005117 156.438687 
z
" clip-path="url(#p93009ae070)" style="fill: #eff6fc"/>
    <path d="M 276.503565 368.806218 
L 278.577391 367.326268 
L 276.503565 365.716195 
L 274.368468 367.326268 
z
M 285.75189 362.931935 
L 288.830992 360.736031 
L 285.75189 358.070827 
L 282.436126 360.736031 
z
M 295.000215 356.577098 
L 298.410652 354.145794 
L 295.000215 350.279638 
L 290.903194 354.145794 
z
M 304.24854 349.839934 
L 307.453544 347.555557 
L 313.496864 342.70308 
L 315.935241 340.96532 
L 322.745189 335.039102 
L 323.67698 334.375083 
L 331.443379 327.784846 
L 331.993514 327.543131 
L 340.415444 321.19461 
L 341.241839 320.764661 
L 349.618931 314.604373 
L 350.490164 314.091593 
L 358.866765 308.014136 
L 359.738489 307.443705 
L 368.099462 301.423899 
L 368.986813 300.784475 
L 377.287604 294.833662 
L 378.235138 294.087127 
L 386.403961 288.243425 
L 387.483463 287.31949 
L 395.409113 281.653188 
L 396.731788 280.432154 
L 404.238403 275.062951 
L 405.980113 273.346284 
L 412.786844 268.472714 
L 415.228438 265.943808 
L 420.895393 261.882478 
L 424.476763 258.066264 
L 428.34651 255.292241 
L 433.725087 249.5073 
L 434.849264 248.702004 
L 442.50359 242.111767 
L 442.973412 241.741371 
L 451.207119 235.52153 
L 452.221737 234.646296 
L 459.873683 228.931293 
L 461.470062 227.436003 
L 468.336866 222.341056 
L 470.718387 219.940028 
L 476.394961 215.750819 
L 479.966712 211.917723 
L 483.723434 209.160582 
L 479.966712 203.697167 
L 473.366173 209.160582 
L 470.718387 210.173221 
L 463.517278 215.750819 
L 461.470062 216.718121 
L 453.964198 222.341056 
L 452.221737 223.274542 
L 444.518441 228.931293 
L 442.973412 229.847059 
L 435.150178 235.52153 
L 433.725087 236.448653 
L 425.859837 242.111767 
L 424.476763 243.096425 
L 416.66039 248.702004 
L 415.228438 249.815686 
L 407.579886 255.292241 
L 405.980113 256.649727 
L 398.673787 261.882478 
L 396.731788 263.679737 
L 390.051059 268.472714 
L 387.483463 271.067418 
L 381.930683 275.062951 
L 378.235138 279.152685 
L 374.773291 281.653188 
L 369.069091 288.243425 
L 368.986813 288.295863 
L 360.295434 294.833662 
L 359.738489 295.225944 
L 351.304801 301.423899 
L 350.490164 302.055948 
L 342.274266 308.014136 
L 341.241839 308.898019 
L 333.312883 314.604373 
L 331.993514 315.853816 
L 324.540054 321.19461 
L 322.745189 323.077602 
L 316.159631 327.784846 
L 313.496864 330.880081 
L 308.600464 334.375083 
L 304.24854 339.976462 
L 302.862102 340.96532 
L 299.040758 347.555557 
z
M 311.702702 334.375083 
L 313.496864 333.094428 
L 317.261049 334.375083 
L 313.496864 337.919368 
z
M 318.064588 327.784846 
L 322.745189 324.439232 
L 325.837959 321.19461 
L 331.993514 316.783833 
L 334.294948 314.604373 
L 341.241839 309.604797 
L 343.099823 308.014136 
L 350.490164 302.654645 
L 352.076451 301.423899 
L 359.738489 295.793032 
L 361.100562 294.833662 
L 368.986813 288.901494 
L 370.019358 288.243425 
L 378.235138 281.795332 
L 378.486658 281.653188 
L 384.722211 275.062951 
L 387.483463 273.076077 
L 392.038734 268.472714 
L 396.731788 265.105761 
L 400.214654 261.882478 
L 405.980113 257.753287 
L 408.880413 255.292241 
L 415.228438 250.746896 
L 417.857722 248.702004 
L 424.476763 243.955102 
L 427.065954 242.111767 
L 433.725087 237.317078 
L 436.485042 235.52153 
L 442.973412 230.815284 
L 446.151975 228.931293 
L 452.221737 224.474093 
L 456.2033 222.341056 
L 461.470062 218.39552 
L 466.288404 222.341056 
L 461.470062 225.91611 
L 458.251038 228.931293 
L 452.221737 233.434392 
L 449.802216 235.52153 
L 442.973412 240.680091 
L 441.157428 242.111767 
L 433.725087 247.862017 
L 432.54761 248.702004 
L 424.476763 255.292241 
L 424.476763 255.292241 
L 418.292079 261.882478 
L 415.228438 264.078094 
L 410.985544 268.472714 
L 405.980113 272.056567 
L 402.929871 275.062951 
L 396.731788 279.49621 
L 394.395258 281.653188 
L 387.483463 286.594653 
L 385.557079 288.243425 
L 378.235138 293.481296 
L 376.518659 294.833662 
L 368.986813 300.23322 
L 367.334466 301.423899 
L 359.738489 306.892916 
L 358.02506 308.014136 
L 350.490164 313.480912 
L 348.581361 314.604373 
L 341.241839 320.00166 
L 338.948896 321.19461 
L 331.993514 326.437634 
L 328.927316 327.784846 
L 322.745189 332.692196 
z
M 467.067358 215.750819 
L 470.718387 212.922926 
L 473.596462 215.750819 
L 470.718387 217.874787 
z
M 489.215036 202.98424 
L 489.782258 202.570346 
L 489.215036 199.015217 
L 486.236929 202.570346 
z
" clip-path="url(#p93009ae070)" style="fill: #deebf7"/>
    <path d="M 313.496864 337.919368 
L 317.261049 334.375083 
L 313.496864 333.094428 
L 311.702702 334.375083 
z
M 322.745189 332.692196 
L 328.927316 327.784846 
L 331.993514 326.437634 
L 338.948896 321.19461 
L 341.241839 320.00166 
L 348.581361 314.604373 
L 350.490164 313.480912 
L 358.02506 308.014136 
L 359.738489 306.892916 
L 367.334466 301.423899 
L 368.986813 300.23322 
L 376.518659 294.833662 
L 378.235138 293.481296 
L 385.557079 288.243425 
L 387.483463 286.594653 
L 394.395258 281.653188 
L 396.731788 279.49621 
L 402.929871 275.062951 
L 405.980113 272.056567 
L 410.985544 268.472714 
L 415.228438 264.078094 
L 418.292079 261.882478 
L 424.476763 255.292241 
L 424.476763 255.292241 
L 432.54761 248.702004 
L 433.725087 247.862017 
L 441.157428 242.111767 
L 442.973412 240.680091 
L 449.802216 235.52153 
L 452.221737 233.434392 
L 458.251038 228.931293 
L 461.470062 225.91611 
L 466.288404 222.341056 
L 461.470062 218.39552 
L 456.2033 222.341056 
L 452.221737 224.474093 
L 446.151975 228.931293 
L 442.973412 230.815284 
L 436.485042 235.52153 
L 433.725087 237.317078 
L 427.065954 242.111767 
L 424.476763 243.955102 
L 417.857722 248.702004 
L 415.228438 250.746896 
L 408.880413 255.292241 
L 405.980113 257.753287 
L 400.214654 261.882478 
L 396.731788 265.105761 
L 392.038734 268.472714 
L 387.483463 273.076077 
L 384.722211 275.062951 
L 378.486658 281.653188 
L 378.235138 281.795332 
L 370.019358 288.243425 
L 368.986813 288.901494 
L 361.100562 294.833662 
L 359.738489 295.793032 
L 352.076451 301.423899 
L 350.490164 302.654645 
L 343.099823 308.014136 
L 341.241839 309.604797 
L 334.294948 314.604373 
L 331.993514 316.783833 
L 325.837959 321.19461 
L 322.745189 324.439232 
L 318.064588 327.784846 
z
M 322.56234 327.784846 
L 322.745189 327.654149 
L 322.986697 327.784846 
L 322.745189 327.976554 
z
M 328.902412 321.19461 
L 331.993514 318.979674 
L 335.48626 321.19461 
L 331.993514 323.827471 
z
M 336.61368 314.604373 
L 341.241839 311.273554 
L 345.049029 308.014136 
L 350.490164 304.068213 
L 353.898374 301.423899 
L 359.738489 297.131972 
L 363.001531 294.833662 
L 368.986813 290.331434 
L 372.263011 288.243425 
L 378.235138 283.556246 
L 381.602556 281.653188 
L 387.483463 276.614256 
L 390.869172 275.062951 
L 396.731788 268.472714 
L 399.840325 275.062951 
L 396.731788 277.286372 
L 392.00147 281.653188 
L 387.483463 284.883257 
L 383.557525 288.243425 
L 378.235138 292.050882 
L 374.703118 294.833662 
L 368.986813 298.931664 
L 365.528251 301.423899 
L 359.738489 305.592462 
L 356.037728 308.014136 
L 350.490164 312.039048 
L 346.131577 314.604373 
L 341.241839 318.200154 
z
M 396.731788 268.472714 
L 403.85276 261.882478 
L 405.980113 260.358879 
L 410.958301 261.882478 
L 406.732536 268.472714 
L 405.980113 269.011444 
z
M 411.951057 255.292241 
L 415.228438 252.945554 
L 420.003195 255.292241 
L 415.228438 259.775595 
z
M 420.684715 248.702004 
L 424.476763 245.982505 
L 429.10055 248.702004 
L 424.476763 252.477549 
z
M 429.91369 242.111767 
L 433.725087 239.367496 
L 437.979035 242.111767 
L 433.725087 245.402959 
z
M 439.636761 235.52153 
L 442.973412 233.101338 
L 446.485132 235.52153 
L 442.973412 238.174325 
z
M 450.008876 228.931293 
L 452.221737 227.306326 
L 454.419847 228.931293 
L 452.221737 230.572993 
z
M 470.718387 217.874787 
L 473.596462 215.750819 
L 470.718387 212.922926 
L 467.067358 215.750819 
z
" clip-path="url(#p93009ae070)" style="fill: #c1d9ed"/>
    <path d="M 322.745189 327.976554 
L 322.986697 327.784846 
L 322.745189 327.654149 
L 322.56234 327.784846 
z
M 331.993514 323.827471 
L 335.48626 321.19461 
L 331.993514 318.979674 
L 328.902412 321.19461 
z
M 330.694326 321.19461 
L 331.993514 320.263674 
L 333.461513 321.19461 
L 331.993514 322.301199 
z
M 341.241839 318.200154 
L 346.131577 314.604373 
L 350.490164 312.039048 
L 356.037728 308.014136 
L 359.738489 305.592462 
L 365.528251 301.423899 
L 368.986813 298.931664 
L 374.703118 294.833662 
L 378.235138 292.050882 
L 383.557525 288.243425 
L 387.483463 284.883257 
L 392.00147 281.653188 
L 396.731788 277.286372 
L 399.840325 275.062951 
L 396.731788 268.472714 
L 390.869172 275.062951 
L 387.483463 276.614256 
L 381.602556 281.653188 
L 378.235138 283.556246 
L 372.263011 288.243425 
L 368.986813 290.331434 
L 363.001531 294.833662 
L 359.738489 297.131972 
L 353.898374 301.423899 
L 350.490164 304.068213 
L 345.049029 308.014136 
L 341.241839 311.273554 
L 336.61368 314.604373 
z
M 337.969539 314.604373 
L 341.241839 312.249346 
L 344.699086 314.604373 
L 341.241839 317.146739 
z
M 346.188811 308.014136 
L 350.490164 304.894785 
L 354.875652 308.014136 
L 350.490164 311.195929 
z
M 354.963729 301.423899 
L 359.738489 297.914906 
L 364.113108 294.833662 
L 368.986813 291.16758 
L 373.574968 288.243425 
L 378.235138 284.585926 
L 382.388303 288.243425 
L 378.235138 291.21446 
L 373.641496 294.833662 
L 368.986813 298.17059 
L 364.472081 301.423899 
L 359.738489 304.832032 
z
M 383.424552 281.653188 
L 387.483463 278.175395 
L 390.601721 281.653188 
L 387.483463 283.882531 
z
M 394.276345 275.062951 
L 396.731788 272.302759 
L 398.033738 275.062951 
L 396.731788 275.994188 
z
M 405.980113 269.011444 
L 406.732536 268.472714 
L 410.958301 261.882478 
L 405.980113 260.358879 
L 403.85276 261.882478 
L 396.731788 268.472714 
z
M 415.228438 259.775595 
L 420.003195 255.292241 
L 415.228438 252.945554 
L 411.951057 255.292241 
z
M 413.746591 255.292241 
L 415.228438 254.231202 
L 417.387313 255.292241 
L 415.228438 257.31936 
z
M 424.476763 252.477549 
L 429.10055 248.702004 
L 424.476763 245.982505 
L 420.684715 248.702004 
z
M 422.337777 248.702004 
L 424.476763 247.168012 
L 427.084909 248.702004 
L 424.476763 250.831681 
z
M 433.725087 245.402959 
L 437.979035 242.111767 
L 433.725087 239.367496 
L 429.91369 242.111767 
z
M 431.578881 242.111767 
L 433.725087 240.566462 
L 436.120495 242.111767 
L 433.725087 243.965045 
z
M 442.973412 238.174325 
L 446.485132 235.52153 
L 442.973412 233.101338 
L 439.636761 235.52153 
z
M 441.479703 235.52153 
L 442.973412 234.438089 
L 444.545494 235.52153 
L 442.973412 236.7091 
z
M 452.221737 230.572993 
L 454.419847 228.931293 
L 452.221737 227.306326 
L 450.008876 228.931293 
z
" clip-path="url(#p93009ae070)" style="fill: #8abfdd"/>
    <path d="M 331.993514 322.301199 
L 333.461513 321.19461 
L 331.993514 320.263674 
L 330.694326 321.19461 
z
M 341.241839 317.146739 
L 344.699086 314.604373 
L 341.241839 312.249346 
L 337.969539 314.604373 
z
M 339.068467 314.604373 
L 341.241839 313.040229 
L 343.538047 314.604373 
L 341.241839 316.292943 
z
M 350.490164 311.195929 
L 354.875652 308.014136 
L 350.490164 304.894785 
L 346.188811 308.014136 
z
M 347.112607 308.014136 
L 350.490164 305.564724 
L 353.933786 308.014136 
L 350.490164 310.512579 
z
M 359.738489 304.832032 
L 364.472081 301.423899 
L 368.986813 298.17059 
L 373.641496 294.833662 
L 378.235138 291.21446 
L 382.388303 288.243425 
L 378.235138 284.585926 
L 373.574968 288.243425 
L 368.986813 291.16758 
L 364.113108 294.833662 
L 359.738489 297.914906 
L 354.963729 301.423899 
z
M 355.827202 301.423899 
L 359.738489 298.549477 
L 363.616053 301.423899 
L 359.738489 304.215701 
z
M 365.014044 294.833662 
L 368.986813 291.845279 
L 372.781048 294.833662 
L 368.986813 297.553738 
z
M 374.638314 288.243425 
L 378.235138 285.420484 
L 381.440645 288.243425 
L 378.235138 290.536537 
z
M 387.483463 283.882531 
L 390.601721 281.653188 
L 387.483463 278.175395 
L 383.424552 281.653188 
z
M 384.901285 281.653188 
L 387.483463 279.440703 
L 389.467221 281.653188 
L 387.483463 283.071441 
z
M 396.731788 275.994188 
L 398.033738 275.062951 
L 396.731788 272.302759 
L 394.276345 275.062951 
z
M 415.228438 257.31936 
L 417.387313 255.292241 
L 415.228438 254.231202 
L 413.746591 255.292241 
z
M 415.201877 255.292241 
L 415.228438 255.273223 
L 415.267133 255.292241 
L 415.228438 255.328575 
z
M 424.476763 250.831681 
L 427.084909 248.702004 
L 424.476763 247.168012 
L 422.337777 248.702004 
z
M 423.677588 248.702004 
L 424.476763 248.128869 
L 425.451227 248.702004 
L 424.476763 249.497701 
z
M 433.725087 243.965045 
L 436.120495 242.111767 
L 433.725087 240.566462 
L 431.578881 242.111767 
z
M 432.928522 242.111767 
L 433.725087 241.538227 
L 434.614143 242.111767 
L 433.725087 242.799611 
z
M 442.973412 236.7091 
L 444.545494 235.52153 
L 442.973412 234.438089 
L 441.479703 235.52153 
z
" clip-path="url(#p93009ae070)" style="fill: #61a7d2"/>
    <path d="M 341.241839 316.292943 
L 343.538047 314.604373 
L 341.241839 313.040229 
L 339.068467 314.604373 
z
M 339.723959 314.604373 
L 341.241839 313.511977 
L 342.845508 314.604373 
L 341.241839 315.783667 
z
M 350.490164 310.512579 
L 353.933786 308.014136 
L 350.490164 305.564724 
L 347.112607 308.014136 
z
M 347.663636 308.014136 
L 350.490164 305.964332 
L 353.371978 308.014136 
L 350.490164 310.104972 
z
M 359.738489 304.215701 
L 363.616053 301.423899 
L 359.738489 298.549477 
L 355.827202 301.423899 
z
M 356.342249 301.423899 
L 359.738489 298.927987 
L 363.105446 301.423899 
L 359.738489 303.84807 
z
M 368.986813 297.553738 
L 372.781048 294.833662 
L 368.986813 291.845279 
L 365.014044 294.833662 
z
M 365.551437 294.833662 
L 368.986813 292.249515 
L 372.267805 294.833662 
L 368.986813 297.185795 
z
M 378.235138 290.536537 
L 381.440645 288.243425 
L 378.235138 285.420484 
L 374.638314 288.243425 
z
M 375.272582 288.243425 
L 378.235138 285.918285 
L 380.875382 288.243425 
L 378.235138 290.132167 
z
M 387.483463 283.071441 
L 389.467221 281.653188 
L 387.483463 279.440703 
L 384.901285 281.653188 
z
M 385.782132 281.653188 
L 387.483463 280.195438 
L 388.790511 281.653188 
L 387.483463 282.587639 
z
M 415.228438 255.328575 
L 415.267133 255.292241 
L 415.228438 255.273223 
L 415.201877 255.292241 
z
M 424.476763 249.497701 
L 425.451227 248.702004 
L 424.476763 248.128869 
L 423.677588 248.702004 
z
M 433.725087 242.799611 
L 434.614143 242.111767 
L 433.725087 241.538227 
L 432.928522 242.111767 
z
" clip-path="url(#p93009ae070)" style="fill: #4997c9"/>
    <path d="M 341.241839 315.783667 
L 342.845508 314.604373 
L 341.241839 313.511977 
L 339.723959 314.604373 
z
M 350.490164 310.104972 
L 353.371978 308.014136 
L 350.490164 305.964332 
L 347.663636 308.014136 
z
M 350.2374 308.014136 
L 350.490164 307.830831 
L 350.747872 308.014136 
L 350.490164 308.20111 
z
M 359.738489 303.84807 
L 363.105446 301.423899 
L 359.738489 298.927987 
L 356.342249 301.423899 
z
M 358.747948 301.423899 
L 359.738489 300.695946 
L 360.720489 301.423899 
L 359.738489 302.130928 
z
M 368.986813 297.185795 
L 372.267805 294.833662 
L 368.986813 292.249515 
L 365.551437 294.833662 
z
M 368.061509 294.833662 
L 368.986813 294.137633 
L 369.870535 294.833662 
L 368.986813 295.4672 
z
M 378.235138 290.132167 
L 380.875382 288.243425 
L 378.235138 285.918285 
L 375.272582 288.243425 
z
M 387.483463 282.587639 
L 388.790511 281.653188 
L 387.483463 280.195438 
L 385.782132 281.653188 
z
" clip-path="url(#p93009ae070)" style="fill: #1f6eb3"/>
    <path d="M 350.490164 308.20111 
L 350.747872 308.014136 
L 350.490164 307.830831 
L 350.2374 308.014136 
z
M 359.738489 302.130928 
L 360.720489 301.423899 
L 359.738489 300.695946 
L 358.747948 301.423899 
z
M 359.634776 301.423899 
L 359.738489 301.34768 
L 359.841307 301.423899 
L 359.738489 301.497927 
z
M 368.986813 295.4672 
L 369.870535 294.833662 
L 368.986813 294.137633 
L 368.061509 294.833662 
z
" clip-path="url(#p93009ae070)" style="fill: #084082"/>
    <path d="M 359.738489 301.497927 
L 359.841307 301.423899 
L 359.738489 301.34768 
L 359.634776 301.423899 
z
" clip-path="url(#p93009ae070)" style="fill: #08316d"/>
   </g>
   <g id="matplotlib.axis_1">
    <g id="xtick_1">
     <g id="line2d_1">
      <defs>
       <path id="mbdbc8ceb35" d="M 0 0 
L 0 3.5 
" style="stroke: #000000; stroke-width: 0.8"/>
      </defs>
      <g>
       <use xlink:href="#mbdbc8ceb35" x="102.17" y="499.48" style="stroke: #000000; stroke-width: 0.8"/>
      </g>
     </g>
     <g id="text_1">
      <!-- −80 -->
      <g transform="translate(78.954844 523.196563) scale(0.22 -0.22)">
       <defs>
        <path id="DejaVuSans-2212" d="M 678 2272 
L 4684 2272 
L 4684 1741 
L 678 1741 
L 678 2272 
z
" transform="scale(0.015625)"/>
        <path id="DejaVuSans-38" d="M 2034 2216 
Q 1584 2216 1326 1975 
Q 1069 1734 1069 1313 
Q 1069 891 1326 650 
Q 1584 409 2034 409 
Q 2484 409 2743 651 
Q 3003 894 3003 1313 
Q 3003 1734 2745 1975 
Q 2488 2216 2034 2216 
z
M 1403 2484 
Q 997 2584 770 2862 
Q 544 3141 544 3541 
Q 544 4100 942 4425 
Q 1341 4750 2034 4750 
Q 2731 4750 3128 4425 
Q 3525 4100 3525 3541 
Q 3525 3141 3298 2862 
Q 3072 2584 2669 2484 
Q 3125 2378 3379 2068 
Q 3634 1759 3634 1313 
Q 3634 634 3220 271 
Q 2806 -91 2034 -91 
Q 1263 -91 848 271 
Q 434 634 434 1313 
Q 434 1759 690 2068 
Q 947 2378 1403 2484 
z
M 1172 3481 
Q 1172 3119 1398 2916 
Q 1625 2713 2034 2713 
Q 2441 2713 2670 2916 
Q 2900 3119 2900 3481 
Q 2900 3844 2670 4047 
Q 2441 4250 2034 4250 
Q 1625 4250 1398 4047 
Q 1172 3844 1172 3481 
z
" transform="scale(0.015625)"/>
        <path id="DejaVuSans-30" d="M 2034 4250 
Q 1547 4250 1301 3770 
Q 1056 3291 1056 2328 
Q 1056 1369 1301 889 
Q 1547 409 2034 409 
Q 2525 409 2770 889 
Q 3016 1369 3016 2328 
Q 3016 3291 2770 3770 
Q 2525 4250 2034 4250 
z
M 2034 4750 
Q 2819 4750 3233 4129 
Q 3647 3509 3647 2328 
Q 3647 1150 3233 529 
Q 2819 -91 2034 -91 
Q 1250 -91 836 529 
Q 422 1150 422 2328 
Q 422 3509 836 4129 
Q 1250 4750 2034 4750 
z
" transform="scale(0.015625)"/>
       </defs>
       <use xlink:href="#DejaVuSans-2212"/>
       <use xlink:href="#DejaVuSans-38" x="83.789062"/>
       <use xlink:href="#DejaVuSans-30" x="147.412109"/>
      </g>
     </g>
    </g>
    <g id="xtick_2">
     <g id="line2d_2">
      <g>
       <use xlink:href="#mbdbc8ceb35" x="174.67375" y="499.48" style="stroke: #000000; stroke-width: 0.8"/>
      </g>
     </g>
     <g id="text_2">
      <!-- −60 -->
      <g transform="translate(151.458594 523.196563) scale(0.22 -0.22)">
       <defs>
        <path id="DejaVuSans-36" d="M 2113 2584 
Q 1688 2584 1439 2293 
Q 1191 2003 1191 1497 
Q 1191 994 1439 701 
Q 1688 409 2113 409 
Q 2538 409 2786 701 
Q 3034 994 3034 1497 
Q 3034 2003 2786 2293 
Q 2538 2584 2113 2584 
z
M 3366 4563 
L 3366 3988 
Q 3128 4100 2886 4159 
Q 2644 4219 2406 4219 
Q 1781 4219 1451 3797 
Q 1122 3375 1075 2522 
Q 1259 2794 1537 2939 
Q 1816 3084 2150 3084 
Q 2853 3084 3261 2657 
Q 3669 2231 3669 1497 
Q 3669 778 3244 343 
Q 2819 -91 2113 -91 
Q 1303 -91 875 529 
Q 447 1150 447 2328 
Q 447 3434 972 4092 
Q 1497 4750 2381 4750 
Q 2619 4750 2861 4703 
Q 3103 4656 3366 4563 
z
" transform="scale(0.015625)"/>
       </defs>
       <use xlink:href="#DejaVuSans-2212"/>
       <use xlink:href="#DejaVuSans-36" x="83.789062"/>
       <use xlink:href="#DejaVuSans-30" x="147.412109"/>
      </g>
     </g>
    </g>
    <g id="xtick_3">
     <g id="line2d_3">
      <g>
       <use xlink:href="#mbdbc8ceb35" x="247.1775" y="499.48" style="stroke: #000000; stroke-width: 0.8"/>
      </g>
     </g>
     <g id="text_3">
      <!-- −40 -->
      <g transform="translate(223.962344 523.196563) scale(0.22 -0.22)">
       <defs>
        <path id="DejaVuSans-34" d="M 2419 4116 
L 825 1625 
L 2419 1625 
L 2419 4116 
z
M 2253 4666 
L 3047 4666 
L 3047 1625 
L 3713 1625 
L 3713 1100 
L 3047 1100 
L 3047 0 
L 2419 0 
L 2419 1100 
L 313 1100 
L 313 1709 
L 2253 4666 
z
" transform="scale(0.015625)"/>
       </defs>
       <use xlink:href="#DejaVuSans-2212"/>
       <use xlink:href="#DejaVuSans-34" x="83.789062"/>
       <use xlink:href="#DejaVuSans-30" x="147.412109"/>
      </g>
     </g>
    </g>
    <g id="xtick_4">
     <g id="line2d_4">
      <g>
       <use xlink:href="#mbdbc8ceb35" x="319.68125" y="499.48" style="stroke: #000000; stroke-width: 0.8"/>
      </g>
     </g>
     <g id="text_4">
      <!-- −20 -->
      <g transform="translate(296.466094 523.196563) scale(0.22 -0.22)">
       <defs>
        <path id="DejaVuSans-32" d="M 1228 531 
L 3431 531 
L 3431 0 
L 469 0 
L 469 531 
Q 828 903 1448 1529 
Q 2069 2156 2228 2338 
Q 2531 2678 2651 2914 
Q 2772 3150 2772 3378 
Q 2772 3750 2511 3984 
Q 2250 4219 1831 4219 
Q 1534 4219 1204 4116 
Q 875 4013 500 3803 
L 500 4441 
Q 881 4594 1212 4672 
Q 1544 4750 1819 4750 
Q 2544 4750 2975 4387 
Q 3406 4025 3406 3419 
Q 3406 3131 3298 2873 
Q 3191 2616 2906 2266 
Q 2828 2175 2409 1742 
Q 1991 1309 1228 531 
z
" transform="scale(0.015625)"/>
       </defs>
       <use xlink:href="#DejaVuSans-2212"/>
       <use xlink:href="#DejaVuSans-32" x="83.789062"/>
       <use xlink:href="#DejaVuSans-30" x="147.412109"/>
      </g>
     </g>
    </g>
    <g id="xtick_5">
     <g id="line2d_5">
      <g>
       <use xlink:href="#mbdbc8ceb35" x="392.185" y="499.48" style="stroke: #000000; stroke-width: 0.8"/>
      </g>
     </g>
     <g id="text_5">
      <!-- 0 -->
      <g transform="translate(385.18625 523.196563) scale(0.22 -0.22)">
       <use xlink:href="#DejaVuSans-30"/>
      </g>
     </g>
    </g>
    <g id="xtick_6">
     <g id="line2d_6">
      <g>
       <use xlink:href="#mbdbc8ceb35" x="464.68875" y="499.48" style="stroke: #000000; stroke-width: 0.8"/>
      </g>
     </g>
     <g id="text_6">
      <!-- 20 -->
      <g transform="translate(450.69125 523.196563) scale(0.22 -0.22)">
       <use xlink:href="#DejaVuSans-32"/>
       <use xlink:href="#DejaVuSans-30" x="63.623047"/>
      </g>
     </g>
    </g>
    <g id="xtick_7">
     <g id="line2d_7">
      <g>
       <use xlink:href="#mbdbc8ceb35" x="537.1925" y="499.48" style="stroke: #000000; stroke-width: 0.8"/>
      </g>
     </g>
     <g id="text_7">
      <!-- 40 -->
      <g transform="translate(523.195 523.196563) scale(0.22 -0.22)">
       <use xlink:href="#DejaVuSans-34"/>
       <use xlink:href="#DejaVuSans-30" x="63.623047"/>
      </g>
     </g>
    </g>
    <g id="xtick_8">
     <g id="line2d_8">
      <g>
       <use xlink:href="#mbdbc8ceb35" x="609.69625" y="499.48" style="stroke: #000000; stroke-width: 0.8"/>
      </g>
     </g>
     <g id="text_8">
      <!-- 60 -->
      <g transform="translate(595.69875 523.196563) scale(0.22 -0.22)">
       <use xlink:href="#DejaVuSans-36"/>
       <use xlink:href="#DejaVuSans-30" x="63.623047"/>
      </g>
     </g>
    </g>
    <g id="xtick_9">
     <g id="line2d_9">
      <g>
       <use xlink:href="#mbdbc8ceb35" x="682.2" y="499.48" style="stroke: #000000; stroke-width: 0.8"/>
      </g>
     </g>
     <g id="text_9">
      <!-- 80 -->
      <g transform="translate(668.2025 523.196563) scale(0.22 -0.22)">
       <use xlink:href="#DejaVuSans-38"/>
       <use xlink:href="#DejaVuSans-30" x="63.623047"/>
      </g>
     </g>
    </g>
    <g id="text_10">
     <!-- Ground Truth Energy [kJ/mol] -->
     <g transform="translate(232.45125 548.488438) scale(0.22 -0.22)">
      <defs>
       <path id="DejaVuSans-47" d="M 3809 666 
L 3809 1919 
L 2778 1919 
L 2778 2438 
L 4434 2438 
L 4434 434 
Q 4069 175 3628 42 
Q 3188 -91 2688 -91 
Q 1594 -91 976 548 
Q 359 1188 359 2328 
Q 359 3472 976 4111 
Q 1594 4750 2688 4750 
Q 3144 4750 3555 4637 
Q 3966 4525 4313 4306 
L 4313 3634 
Q 3963 3931 3569 4081 
Q 3175 4231 2741 4231 
Q 1884 4231 1454 3753 
Q 1025 3275 1025 2328 
Q 1025 1384 1454 906 
Q 1884 428 2741 428 
Q 3075 428 3337 486 
Q 3600 544 3809 666 
z
" transform="scale(0.015625)"/>
       <path id="DejaVuSans-72" d="M 2631 2963 
Q 2534 3019 2420 3045 
Q 2306 3072 2169 3072 
Q 1681 3072 1420 2755 
Q 1159 2438 1159 1844 
L 1159 0 
L 581 0 
L 581 3500 
L 1159 3500 
L 1159 2956 
Q 1341 3275 1631 3429 
Q 1922 3584 2338 3584 
Q 2397 3584 2469 3576 
Q 2541 3569 2628 3553 
L 2631 2963 
z
" transform="scale(0.015625)"/>
       <path id="DejaVuSans-6f" d="M 1959 3097 
Q 1497 3097 1228 2736 
Q 959 2375 959 1747 
Q 959 1119 1226 758 
Q 1494 397 1959 397 
Q 2419 397 2687 759 
Q 2956 1122 2956 1747 
Q 2956 2369 2687 2733 
Q 2419 3097 1959 3097 
z
M 1959 3584 
Q 2709 3584 3137 3096 
Q 3566 2609 3566 1747 
Q 3566 888 3137 398 
Q 2709 -91 1959 -91 
Q 1206 -91 779 398 
Q 353 888 353 1747 
Q 353 2609 779 3096 
Q 1206 3584 1959 3584 
z
" transform="scale(0.015625)"/>
       <path id="DejaVuSans-75" d="M 544 1381 
L 544 3500 
L 1119 3500 
L 1119 1403 
Q 1119 906 1312 657 
Q 1506 409 1894 409 
Q 2359 409 2629 706 
Q 2900 1003 2900 1516 
L 2900 3500 
L 3475 3500 
L 3475 0 
L 2900 0 
L 2900 538 
Q 2691 219 2414 64 
Q 2138 -91 1772 -91 
Q 1169 -91 856 284 
Q 544 659 544 1381 
z
M 1991 3584 
L 1991 3584 
z
" transform="scale(0.015625)"/>
       <path id="DejaVuSans-6e" d="M 3513 2113 
L 3513 0 
L 2938 0 
L 2938 2094 
Q 2938 2591 2744 2837 
Q 2550 3084 2163 3084 
Q 1697 3084 1428 2787 
Q 1159 2491 1159 1978 
L 1159 0 
L 581 0 
L 581 3500 
L 1159 3500 
L 1159 2956 
Q 1366 3272 1645 3428 
Q 1925 3584 2291 3584 
Q 2894 3584 3203 3211 
Q 3513 2838 3513 2113 
z
" transform="scale(0.015625)"/>
       <path id="DejaVuSans-64" d="M 2906 2969 
L 2906 4863 
L 3481 4863 
L 3481 0 
L 2906 0 
L 2906 525 
Q 2725 213 2448 61 
Q 2172 -91 1784 -91 
Q 1150 -91 751 415 
Q 353 922 353 1747 
Q 353 2572 751 3078 
Q 1150 3584 1784 3584 
Q 2172 3584 2448 3432 
Q 2725 3281 2906 2969 
z
M 947 1747 
Q 947 1113 1208 752 
Q 1469 391 1925 391 
Q 2381 391 2643 752 
Q 2906 1113 2906 1747 
Q 2906 2381 2643 2742 
Q 2381 3103 1925 3103 
Q 1469 3103 1208 2742 
Q 947 2381 947 1747 
z
" transform="scale(0.015625)"/>
       <path id="DejaVuSans-20" transform="scale(0.015625)"/>
       <path id="DejaVuSans-54" d="M -19 4666 
L 3928 4666 
L 3928 4134 
L 2272 4134 
L 2272 0 
L 1638 0 
L 1638 4134 
L -19 4134 
L -19 4666 
z
" transform="scale(0.015625)"/>
       <path id="DejaVuSans-74" d="M 1172 4494 
L 1172 3500 
L 2356 3500 
L 2356 3053 
L 1172 3053 
L 1172 1153 
Q 1172 725 1289 603 
Q 1406 481 1766 481 
L 2356 481 
L 2356 0 
L 1766 0 
Q 1100 0 847 248 
Q 594 497 594 1153 
L 594 3053 
L 172 3053 
L 172 3500 
L 594 3500 
L 594 4494 
L 1172 4494 
z
" transform="scale(0.015625)"/>
       <path id="DejaVuSans-68" d="M 3513 2113 
L 3513 0 
L 2938 0 
L 2938 2094 
Q 2938 2591 2744 2837 
Q 2550 3084 2163 3084 
Q 1697 3084 1428 2787 
Q 1159 2491 1159 1978 
L 1159 0 
L 581 0 
L 581 4863 
L 1159 4863 
L 1159 2956 
Q 1366 3272 1645 3428 
Q 1925 3584 2291 3584 
Q 2894 3584 3203 3211 
Q 3513 2838 3513 2113 
z
" transform="scale(0.015625)"/>
       <path id="DejaVuSans-45" d="M 628 4666 
L 3578 4666 
L 3578 4134 
L 1259 4134 
L 1259 2753 
L 3481 2753 
L 3481 2222 
L 1259 2222 
L 1259 531 
L 3634 531 
L 3634 0 
L 628 0 
L 628 4666 
z
" transform="scale(0.015625)"/>
       <path id="DejaVuSans-65" d="M 3597 1894 
L 3597 1613 
L 953 1613 
Q 991 1019 1311 708 
Q 1631 397 2203 397 
Q 2534 397 2845 478 
Q 3156 559 3463 722 
L 3463 178 
Q 3153 47 2828 -22 
Q 2503 -91 2169 -91 
Q 1331 -91 842 396 
Q 353 884 353 1716 
Q 353 2575 817 3079 
Q 1281 3584 2069 3584 
Q 2775 3584 3186 3129 
Q 3597 2675 3597 1894 
z
M 3022 2063 
Q 3016 2534 2758 2815 
Q 2500 3097 2075 3097 
Q 1594 3097 1305 2825 
Q 1016 2553 972 2059 
L 3022 2063 
z
" transform="scale(0.015625)"/>
       <path id="DejaVuSans-67" d="M 2906 1791 
Q 2906 2416 2648 2759 
Q 2391 3103 1925 3103 
Q 1463 3103 1205 2759 
Q 947 2416 947 1791 
Q 947 1169 1205 825 
Q 1463 481 1925 481 
Q 2391 481 2648 825 
Q 2906 1169 2906 1791 
z
M 3481 434 
Q 3481 -459 3084 -895 
Q 2688 -1331 1869 -1331 
Q 1566 -1331 1297 -1286 
Q 1028 -1241 775 -1147 
L 775 -588 
Q 1028 -725 1275 -790 
Q 1522 -856 1778 -856 
Q 2344 -856 2625 -561 
Q 2906 -266 2906 331 
L 2906 616 
Q 2728 306 2450 153 
Q 2172 0 1784 0 
Q 1141 0 747 490 
Q 353 981 353 1791 
Q 353 2603 747 3093 
Q 1141 3584 1784 3584 
Q 2172 3584 2450 3431 
Q 2728 3278 2906 2969 
L 2906 3500 
L 3481 3500 
L 3481 434 
z
" transform="scale(0.015625)"/>
       <path id="DejaVuSans-79" d="M 2059 -325 
Q 1816 -950 1584 -1140 
Q 1353 -1331 966 -1331 
L 506 -1331 
L 506 -850 
L 844 -850 
Q 1081 -850 1212 -737 
Q 1344 -625 1503 -206 
L 1606 56 
L 191 3500 
L 800 3500 
L 1894 763 
L 2988 3500 
L 3597 3500 
L 2059 -325 
z
" transform="scale(0.015625)"/>
       <path id="DejaVuSans-5b" d="M 550 4863 
L 1875 4863 
L 1875 4416 
L 1125 4416 
L 1125 -397 
L 1875 -397 
L 1875 -844 
L 550 -844 
L 550 4863 
z
" transform="scale(0.015625)"/>
       <path id="DejaVuSans-6b" d="M 581 4863 
L 1159 4863 
L 1159 1991 
L 2875 3500 
L 3609 3500 
L 1753 1863 
L 3688 0 
L 2938 0 
L 1159 1709 
L 1159 0 
L 581 0 
L 581 4863 
z
" transform="scale(0.015625)"/>
       <path id="DejaVuSans-4a" d="M 628 4666 
L 1259 4666 
L 1259 325 
Q 1259 -519 939 -900 
Q 619 -1281 -91 -1281 
L -331 -1281 
L -331 -750 
L -134 -750 
Q 284 -750 456 -515 
Q 628 -281 628 325 
L 628 4666 
z
" transform="scale(0.015625)"/>
       <path id="DejaVuSans-2f" d="M 1625 4666 
L 2156 4666 
L 531 -594 
L 0 -594 
L 1625 4666 
z
" transform="scale(0.015625)"/>
       <path id="DejaVuSans-6d" d="M 3328 2828 
Q 3544 3216 3844 3400 
Q 4144 3584 4550 3584 
Q 5097 3584 5394 3201 
Q 5691 2819 5691 2113 
L 5691 0 
L 5113 0 
L 5113 2094 
Q 5113 2597 4934 2840 
Q 4756 3084 4391 3084 
Q 3944 3084 3684 2787 
Q 3425 2491 3425 1978 
L 3425 0 
L 2847 0 
L 2847 2094 
Q 2847 2600 2669 2842 
Q 2491 3084 2119 3084 
Q 1678 3084 1418 2786 
Q 1159 2488 1159 1978 
L 1159 0 
L 581 0 
L 581 3500 
L 1159 3500 
L 1159 2956 
Q 1356 3278 1631 3431 
Q 1906 3584 2284 3584 
Q 2666 3584 2933 3390 
Q 3200 3197 3328 2828 
z
" transform="scale(0.015625)"/>
       <path id="DejaVuSans-6c" d="M 603 4863 
L 1178 4863 
L 1178 0 
L 603 0 
L 603 4863 
z
" transform="scale(0.015625)"/>
       <path id="DejaVuSans-5d" d="M 1947 4863 
L 1947 -844 
L 622 -844 
L 622 -397 
L 1369 -397 
L 1369 4416 
L 622 4416 
L 622 4863 
L 1947 4863 
z
" transform="scale(0.015625)"/>
      </defs>
      <use xlink:href="#DejaVuSans-47"/>
      <use xlink:href="#DejaVuSans-72" x="77.490234"/>
      <use xlink:href="#DejaVuSans-6f" x="116.353516"/>
      <use xlink:href="#DejaVuSans-75" x="177.535156"/>
      <use xlink:href="#DejaVuSans-6e" x="240.914062"/>
      <use xlink:href="#DejaVuSans-64" x="304.292969"/>
      <use xlink:href="#DejaVuSans-20" x="367.769531"/>
      <use xlink:href="#DejaVuSans-54" x="399.556641"/>
      <use xlink:href="#DejaVuSans-72" x="445.890625"/>
      <use xlink:href="#DejaVuSans-75" x="487.003906"/>
      <use xlink:href="#DejaVuSans-74" x="550.382812"/>
      <use xlink:href="#DejaVuSans-68" x="589.591797"/>
      <use xlink:href="#DejaVuSans-20" x="652.970703"/>
      <use xlink:href="#DejaVuSans-45" x="684.757812"/>
      <use xlink:href="#DejaVuSans-6e" x="747.941406"/>
      <use xlink:href="#DejaVuSans-65" x="811.320312"/>
      <use xlink:href="#DejaVuSans-72" x="872.84375"/>
      <use xlink:href="#DejaVuSans-67" x="912.207031"/>
      <use xlink:href="#DejaVuSans-79" x="975.683594"/>
      <use xlink:href="#DejaVuSans-20" x="1034.863281"/>
      <use xlink:href="#DejaVuSans-5b" x="1066.650391"/>
      <use xlink:href="#DejaVuSans-6b" x="1105.664062"/>
      <use xlink:href="#DejaVuSans-4a" x="1163.574219"/>
      <use xlink:href="#DejaVuSans-2f" x="1193.066406"/>
      <use xlink:href="#DejaVuSans-6d" x="1226.757812"/>
      <use xlink:href="#DejaVuSans-6f" x="1324.169922"/>
      <use xlink:href="#DejaVuSans-6c" x="1385.351562"/>
      <use xlink:href="#DejaVuSans-5d" x="1413.134766"/>
     </g>
    </g>
   </g>
   <g id="matplotlib.axis_2">
    <g id="ytick_1">
     <g id="line2d_10">
      <defs>
       <path id="ma1ce53d832" d="M 0 0 
L -3.5 0 
" style="stroke: #000000; stroke-width: 0.8"/>
      </defs>
      <g>
       <use xlink:href="#ma1ce53d832" x="102.17" y="499.48" style="stroke: #000000; stroke-width: 0.8"/>
      </g>
     </g>
     <g id="text_11">
      <!-- −80 -->
      <g transform="translate(48.739688 507.838281) scale(0.22 -0.22)">
       <use xlink:href="#DejaVuSans-2212"/>
       <use xlink:href="#DejaVuSans-38" x="83.789062"/>
       <use xlink:href="#DejaVuSans-30" x="147.412109"/>
      </g>
     </g>
    </g>
    <g id="ytick_2">
     <g id="line2d_11">
      <g>
       <use xlink:href="#ma1ce53d832" x="102.17" y="441.05" style="stroke: #000000; stroke-width: 0.8"/>
      </g>
     </g>
     <g id="text_12">
      <!-- −60 -->
      <g transform="translate(48.739688 449.408281) scale(0.22 -0.22)">
       <use xlink:href="#DejaVuSans-2212"/>
       <use xlink:href="#DejaVuSans-36" x="83.789062"/>
       <use xlink:href="#DejaVuSans-30" x="147.412109"/>
      </g>
     </g>
    </g>
    <g id="ytick_3">
     <g id="line2d_12">
      <g>
       <use xlink:href="#ma1ce53d832" x="102.17" y="382.62" style="stroke: #000000; stroke-width: 0.8"/>
      </g>
     </g>
     <g id="text_13">
      <!-- −40 -->
      <g transform="translate(48.739688 390.978281) scale(0.22 -0.22)">
       <use xlink:href="#DejaVuSans-2212"/>
       <use xlink:href="#DejaVuSans-34" x="83.789062"/>
       <use xlink:href="#DejaVuSans-30" x="147.412109"/>
      </g>
     </g>
    </g>
    <g id="ytick_4">
     <g id="line2d_13">
      <g>
       <use xlink:href="#ma1ce53d832" x="102.17" y="324.19" style="stroke: #000000; stroke-width: 0.8"/>
      </g>
     </g>
     <g id="text_14">
      <!-- −20 -->
      <g transform="translate(48.739688 332.548281) scale(0.22 -0.22)">
       <use xlink:href="#DejaVuSans-2212"/>
       <use xlink:href="#DejaVuSans-32" x="83.789062"/>
       <use xlink:href="#DejaVuSans-30" x="147.412109"/>
      </g>
     </g>
    </g>
    <g id="ytick_5">
     <g id="line2d_14">
      <g>
       <use xlink:href="#ma1ce53d832" x="102.17" y="265.76" style="stroke: #000000; stroke-width: 0.8"/>
      </g>
     </g>
     <g id="text_15">
      <!-- 0 -->
      <g transform="translate(81.1725 274.118281) scale(0.22 -0.22)">
       <use xlink:href="#DejaVuSans-30"/>
      </g>
     </g>
    </g>
    <g id="ytick_6">
     <g id="line2d_15">
      <g>
       <use xlink:href="#ma1ce53d832" x="102.17" y="207.33" style="stroke: #000000; stroke-width: 0.8"/>
      </g>
     </g>
     <g id="text_16">
      <!-- 20 -->
      <g transform="translate(67.175 215.688281) scale(0.22 -0.22)">
       <use xlink:href="#DejaVuSans-32"/>
       <use xlink:href="#DejaVuSans-30" x="63.623047"/>
      </g>
     </g>
    </g>
    <g id="ytick_7">
     <g id="line2d_16">
      <g>
       <use xlink:href="#ma1ce53d832" x="102.17" y="148.9" style="stroke: #000000; stroke-width: 0.8"/>
      </g>
     </g>
     <g id="text_17">
      <!-- 40 -->
      <g transform="translate(67.175 157.258281) scale(0.22 -0.22)">
       <use xlink:href="#DejaVuSans-34"/>
       <use xlink:href="#DejaVuSans-30" x="63.623047"/>
      </g>
     </g>
    </g>
    <g id="ytick_8">
     <g id="line2d_17">
      <g>
       <use xlink:href="#ma1ce53d832" x="102.17" y="90.47" style="stroke: #000000; stroke-width: 0.8"/>
      </g>
     </g>
     <g id="text_18">
      <!-- 60 -->
      <g transform="translate(67.175 98.828281) scale(0.22 -0.22)">
       <use xlink:href="#DejaVuSans-36"/>
       <use xlink:href="#DejaVuSans-30" x="63.623047"/>
      </g>
     </g>
    </g>
    <g id="ytick_9">
     <g id="line2d_18">
      <g>
       <use xlink:href="#ma1ce53d832" x="102.17" y="32.04" style="stroke: #000000; stroke-width: 0.8"/>
      </g>
     </g>
     <g id="text_19">
      <!-- 80 -->
      <g transform="translate(67.175 40.398281) scale(0.22 -0.22)">
       <use xlink:href="#DejaVuSans-38"/>
       <use xlink:href="#DejaVuSans-30" x="63.623047"/>
      </g>
     </g>
    </g>
    <g id="text_20">
     <!-- Predicted Energy [kJ/mol] -->
     <g transform="translate(40.164375 405.305313) rotate(-90) scale(0.22 -0.22)">
      <defs>
       <path id="DejaVuSans-50" d="M 1259 4147 
L 1259 2394 
L 2053 2394 
Q 2494 2394 2734 2622 
Q 2975 2850 2975 3272 
Q 2975 3691 2734 3919 
Q 2494 4147 2053 4147 
L 1259 4147 
z
M 628 4666 
L 2053 4666 
Q 2838 4666 3239 4311 
Q 3641 3956 3641 3272 
Q 3641 2581 3239 2228 
Q 2838 1875 2053 1875 
L 1259 1875 
L 1259 0 
L 628 0 
L 628 4666 
z
" transform="scale(0.015625)"/>
       <path id="DejaVuSans-69" d="M 603 3500 
L 1178 3500 
L 1178 0 
L 603 0 
L 603 3500 
z
M 603 4863 
L 1178 4863 
L 1178 4134 
L 603 4134 
L 603 4863 
z
" transform="scale(0.015625)"/>
       <path id="DejaVuSans-63" d="M 3122 3366 
L 3122 2828 
Q 2878 2963 2633 3030 
Q 2388 3097 2138 3097 
Q 1578 3097 1268 2742 
Q 959 2388 959 1747 
Q 959 1106 1268 751 
Q 1578 397 2138 397 
Q 2388 397 2633 464 
Q 2878 531 3122 666 
L 3122 134 
Q 2881 22 2623 -34 
Q 2366 -91 2075 -91 
Q 1284 -91 818 406 
Q 353 903 353 1747 
Q 353 2603 823 3093 
Q 1294 3584 2113 3584 
Q 2378 3584 2631 3529 
Q 2884 3475 3122 3366 
z
" transform="scale(0.015625)"/>
      </defs>
      <use xlink:href="#DejaVuSans-50"/>
      <use xlink:href="#DejaVuSans-72" x="58.552734"/>
      <use xlink:href="#DejaVuSans-65" x="97.416016"/>
      <use xlink:href="#DejaVuSans-64" x="158.939453"/>
      <use xlink:href="#DejaVuSans-69" x="222.416016"/>
      <use xlink:href="#DejaVuSans-63" x="250.199219"/>
      <use xlink:href="#DejaVuSans-74" x="305.179688"/>
      <use xlink:href="#DejaVuSans-65" x="344.388672"/>
      <use xlink:href="#DejaVuSans-64" x="405.912109"/>
      <use xlink:href="#DejaVuSans-20" x="469.388672"/>
      <use xlink:href="#DejaVuSans-45" x="501.175781"/>
      <use xlink:href="#DejaVuSans-6e" x="564.359375"/>
      <use xlink:href="#DejaVuSans-65" x="627.738281"/>
      <use xlink:href="#DejaVuSans-72" x="689.261719"/>
      <use xlink:href="#DejaVuSans-67" x="728.625"/>
      <use xlink:href="#DejaVuSans-79" x="792.101562"/>
      <use xlink:href="#DejaVuSans-20" x="851.28125"/>
      <use xlink:href="#DejaVuSans-5b" x="883.068359"/>
      <use xlink:href="#DejaVuSans-6b" x="922.082031"/>
      <use xlink:href="#DejaVuSans-4a" x="979.992188"/>
      <use xlink:href="#DejaVuSans-2f" x="1009.484375"/>
      <use xlink:href="#DejaVuSans-6d" x="1043.175781"/>
      <use xlink:href="#DejaVuSans-6f" x="1140.587891"/>
      <use xlink:href="#DejaVuSans-6c" x="1201.769531"/>
      <use xlink:href="#DejaVuSans-5d" x="1229.552734"/>
     </g>
    </g>
   </g>
   <g id="line2d_19">
    <path d="M 102.17 499.48 
L 682.2 32.04 
" clip-path="url(#p93009ae070)" style="fill: none; stroke-dasharray: 5.55,2.4; stroke-dashoffset: 0; stroke: #ff0000; stroke-width: 1.5"/>
   </g>
   <g id="patch_3">
    <path d="M 102.17 499.48 
L 102.17 32.04 
" style="fill: none; stroke: #000000; stroke-width: 0.8; stroke-linejoin: miter; stroke-linecap: square"/>
   </g>
   <g id="patch_4">
    <path d="M 682.2 499.48 
L 682.2 32.04 
" style="fill: none; stroke: #000000; stroke-width: 0.8; stroke-linejoin: miter; stroke-linecap: square"/>
   </g>
   <g id="patch_5">
    <path d="M 102.17 499.48 
L 682.2 499.48 
" style="fill: none; stroke: #000000; stroke-width: 0.8; stroke-linejoin: miter; stroke-linecap: square"/>
   </g>
   <g id="patch_6">
    <path d="M 102.17 32.04 
L 682.2 32.04 
" style="fill: none; stroke: #000000; stroke-width: 0.8; stroke-linejoin: miter; stroke-linecap: square"/>
   </g>
   <g id="text_21">
    <!-- R2 Score: 0.965 -->
    <g transform="translate(160.173 78.784) scale(0.22 -0.22)">
     <defs>
      <path id="DejaVuSans-52" d="M 2841 2188 
Q 3044 2119 3236 1894 
Q 3428 1669 3622 1275 
L 4263 0 
L 3584 0 
L 2988 1197 
Q 2756 1666 2539 1819 
Q 2322 1972 1947 1972 
L 1259 1972 
L 1259 0 
L 628 0 
L 628 4666 
L 2053 4666 
Q 2853 4666 3247 4331 
Q 3641 3997 3641 3322 
Q 3641 2881 3436 2590 
Q 3231 2300 2841 2188 
z
M 1259 4147 
L 1259 2491 
L 2053 2491 
Q 2509 2491 2742 2702 
Q 2975 2913 2975 3322 
Q 2975 3731 2742 3939 
Q 2509 4147 2053 4147 
L 1259 4147 
z
" transform="scale(0.015625)"/>
      <path id="DejaVuSans-53" d="M 3425 4513 
L 3425 3897 
Q 3066 4069 2747 4153 
Q 2428 4238 2131 4238 
Q 1616 4238 1336 4038 
Q 1056 3838 1056 3469 
Q 1056 3159 1242 3001 
Q 1428 2844 1947 2747 
L 2328 2669 
Q 3034 2534 3370 2195 
Q 3706 1856 3706 1288 
Q 3706 609 3251 259 
Q 2797 -91 1919 -91 
Q 1588 -91 1214 -16 
Q 841 59 441 206 
L 441 856 
Q 825 641 1194 531 
Q 1563 422 1919 422 
Q 2459 422 2753 634 
Q 3047 847 3047 1241 
Q 3047 1584 2836 1778 
Q 2625 1972 2144 2069 
L 1759 2144 
Q 1053 2284 737 2584 
Q 422 2884 422 3419 
Q 422 4038 858 4394 
Q 1294 4750 2059 4750 
Q 2388 4750 2728 4690 
Q 3069 4631 3425 4513 
z
" transform="scale(0.015625)"/>
      <path id="DejaVuSans-3a" d="M 750 794 
L 1409 794 
L 1409 0 
L 750 0 
L 750 794 
z
M 750 3309 
L 1409 3309 
L 1409 2516 
L 750 2516 
L 750 3309 
z
" transform="scale(0.015625)"/>
      <path id="DejaVuSans-2e" d="M 684 794 
L 1344 794 
L 1344 0 
L 684 0 
L 684 794 
z
" transform="scale(0.015625)"/>
      <path id="DejaVuSans-39" d="M 703 97 
L 703 672 
Q 941 559 1184 500 
Q 1428 441 1663 441 
Q 2288 441 2617 861 
Q 2947 1281 2994 2138 
Q 2813 1869 2534 1725 
Q 2256 1581 1919 1581 
Q 1219 1581 811 2004 
Q 403 2428 403 3163 
Q 403 3881 828 4315 
Q 1253 4750 1959 4750 
Q 2769 4750 3195 4129 
Q 3622 3509 3622 2328 
Q 3622 1225 3098 567 
Q 2575 -91 1691 -91 
Q 1453 -91 1209 -44 
Q 966 3 703 97 
z
M 1959 2075 
Q 2384 2075 2632 2365 
Q 2881 2656 2881 3163 
Q 2881 3666 2632 3958 
Q 2384 4250 1959 4250 
Q 1534 4250 1286 3958 
Q 1038 3666 1038 3163 
Q 1038 2656 1286 2365 
Q 1534 2075 1959 2075 
z
" transform="scale(0.015625)"/>
      <path id="DejaVuSans-35" d="M 691 4666 
L 3169 4666 
L 3169 4134 
L 1269 4134 
L 1269 2991 
Q 1406 3038 1543 3061 
Q 1681 3084 1819 3084 
Q 2600 3084 3056 2656 
Q 3513 2228 3513 1497 
Q 3513 744 3044 326 
Q 2575 -91 1722 -91 
Q 1428 -91 1123 -41 
Q 819 9 494 109 
L 494 744 
Q 775 591 1075 516 
Q 1375 441 1709 441 
Q 2250 441 2565 725 
Q 2881 1009 2881 1497 
Q 2881 1984 2565 2268 
Q 2250 2553 1709 2553 
Q 1456 2553 1204 2497 
Q 953 2441 691 2322 
L 691 4666 
z
" transform="scale(0.015625)"/>
     </defs>
     <use xlink:href="#DejaVuSans-52"/>
     <use xlink:href="#DejaVuSans-32" x="69.482422"/>
     <use xlink:href="#DejaVuSans-20" x="133.105469"/>
     <use xlink:href="#DejaVuSans-53" x="164.892578"/>
     <use xlink:href="#DejaVuSans-63" x="228.369141"/>
     <use xlink:href="#DejaVuSans-6f" x="283.349609"/>
     <use xlink:href="#DejaVuSans-72" x="344.53125"/>
     <use xlink:href="#DejaVuSans-65" x="383.394531"/>
     <use xlink:href="#DejaVuSans-3a" x="444.917969"/>
     <use xlink:href="#DejaVuSans-20" x="478.609375"/>
     <use xlink:href="#DejaVuSans-30" x="510.396484"/>
     <use xlink:href="#DejaVuSans-2e" x="574.019531"/>
     <use xlink:href="#DejaVuSans-39" x="605.806641"/>
     <use xlink:href="#DejaVuSans-36" x="669.429688"/>
     <use xlink:href="#DejaVuSans-35" x="733.052734"/>
    </g>
   </g>
  </g>
 </g>
 <defs>
  <clipPath id="p93009ae070">
   <rect x="102.17" y="32.04" width="580.03" height="467.44"/>
  </clipPath>
 </defs>
</svg>
