<?xml version="1.0" encoding="utf-8" standalone="no"?>
<!DOCTYPE svg PUBLIC "-//W3C//DTD SVG 1.1//EN"
  "http://www.w3.org/Graphics/SVG/1.1/DTD/svg11.dtd">
<svg xmlns:xlink="http://www.w3.org/1999/xlink" width="720pt" height="576pt" viewBox="0 0 720 576" xmlns="http://www.w3.org/2000/svg" version="1.1">
 <metadata>
  <rdf:RDF xmlns:dc="http://purl.org/dc/elements/1.1/" xmlns:cc="http://creativecommons.org/ns#" xmlns:rdf="http://www.w3.org/1999/02/22-rdf-syntax-ns#">
   <cc:Work>
    <dc:type rdf:resource="http://purl.org/dc/dcmitype/StillImage"/>
    <dc:date>2024-12-07T21:23:36.039560</dc:date>
    <dc:format>image/svg+xml</dc:format>
    <dc:creator>
     <cc:Agent>
      <dc:title>Matplotlib v3.8.4, https://matplotlib.org/</dc:title>
     </cc:Agent>
    </dc:creator>
   </cc:Work>
  </rdf:RDF>
 </metadata>
 <defs>
  <style type="text/css">*{stroke-linejoin: round; stroke-linecap: butt}</style>
 </defs>
 <g id="figure_1">
  <g id="patch_1">
   <path d="M 0 576 
L 720 576 
L 720 0 
L 0 0 
z
" style="fill: #ffffff"/>
  </g>
  <g id="axes_1">
   <g id="patch_2">
    <path d="M 83.72 499.48 
L 682.941835 499.48 
L 682.941835 31.450361 
L 83.72 31.450361 
z
" style="fill: #ffffff"/>
   </g>
   <g id="QuadContourSet_1">
    <path d="M 85.068543 489.726774 
L 86.908288 490.456401 
L 88.748033 490.86324 
L 90.587777 491.063614 
L 92.427522 491.119665 
L 94.267267 491.066765 
L 96.107012 490.926161 
L 97.946756 490.713001 
L 99.786501 490.445336 
L 101.626246 490.153058 
L 103.465991 489.877623 
L 105.305735 489.654716 
L 107.14548 489.494352 
L 108.985225 489.383264 
L 110.82497 489.302616 
L 112.664714 489.234639 
L 113.314785 489.206649 
L 114.504459 489.179928 
L 116.344204 489.114499 
L 118.183949 489.005474 
L 120.023693 488.836568 
L 121.863438 488.592742 
L 123.703183 488.254298 
L 125.542928 487.791216 
L 127.382672 487.159476 
L 128.326597 486.763237 
L 129.222417 486.538577 
L 131.062162 485.995382 
L 132.901907 485.284915 
L 134.741651 484.34844 
L 134.795892 484.319824 
L 136.581396 483.658445 
L 138.421141 482.763666 
L 139.88342 481.876412 
L 140.260886 481.686356 
L 142.10063 480.695828 
L 143.940375 479.438707 
L 143.949034 479.433 
L 145.78012 478.25031 
L 147.482056 476.989587 
L 147.619865 476.865597 
L 149.459609 475.357146 
L 150.454361 474.546175 
L 151.299354 473.456257 
L 152.469278 472.102763 
L 153.139099 469.65935 
L 152.282582 467.215938 
L 151.299354 466.16679 
L 150.320849 464.772526 
L 149.459609 463.875872 
L 148.19988 462.329114 
L 147.619865 461.753408 
L 145.78012 460.189621 
L 145.269655 459.885701 
L 143.940375 459.156913 
L 142.10063 458.540365 
L 140.260886 458.186345 
L 138.421141 457.970257 
L 136.581396 457.829535 
L 134.741651 457.734931 
L 132.901907 457.665127 
L 131.062162 457.591447 
L 129.222417 457.475764 
L 128.905085 457.442289 
L 127.382672 457.14421 
L 125.542928 456.63515 
L 123.703183 456.028234 
L 121.863438 455.406906 
L 120.518115 454.998877 
L 120.023693 454.782215 
L 118.183949 454.163254 
L 116.344204 453.829903 
L 114.504459 453.734438 
L 112.664714 453.8397 
L 110.82497 454.140061 
L 108.985225 454.669391 
L 108.188762 454.998877 
L 107.14548 455.236069 
L 105.305735 455.791059 
L 103.465991 456.578329 
L 101.981177 457.442289 
L 101.626246 457.565756 
L 99.786501 458.298681 
L 97.946756 459.355089 
L 97.179925 459.885701 
L 96.107012 460.382177 
L 94.267267 461.519882 
L 93.260108 462.329114 
L 92.427522 462.832457 
L 90.587777 464.303596 
L 90.092896 464.772526 
L 88.748033 465.860009 
L 87.448708 467.215938 
L 86.908288 467.757767 
L 85.274506 469.65935 
L 85.068543 469.92198 
L 83.421615 472.102763 
L 83.228798 472.427454 
L 81.868106 474.546175 
L 81.389054 475.678366 
L 80.712651 476.989587 
L 79.995901 479.433 
L 79.79001 481.876412 
L 80.13325 484.319824 
L 81.389054 486.748242 
L 81.397608 486.763237 
L 83.228798 488.632281 
L 84.180986 489.206649 
z
M 90.659014 486.763237 
L 90.587777 486.749471 
L 88.748033 486.101212 
L 86.908288 484.811185 
L 86.419535 484.319824 
L 85.196543 481.876412 
L 85.068543 479.997459 
L 85.024619 479.433 
L 85.068543 479.250143 
L 85.475033 476.989587 
L 86.526136 474.546175 
L 86.908288 473.951454 
L 88.042985 472.102763 
L 88.748033 471.217895 
L 90.089083 469.65935 
L 90.587777 469.128906 
L 92.427522 467.426784 
L 92.68448 467.215938 
L 94.267267 465.829369 
L 95.928632 464.772526 
L 96.107012 464.633962 
L 97.946756 463.332079 
L 99.786501 462.429688 
L 100.019907 462.329114 
L 101.626246 461.360449 
L 103.465991 460.559197 
L 105.305735 459.98166 
L 105.704463 459.885701 
L 107.14548 459.339469 
L 108.985225 458.900426 
L 110.82497 458.691651 
L 112.664714 458.708376 
L 114.504459 458.975736 
L 116.344204 459.525695 
L 117.218876 459.885701 
L 118.183949 460.228161 
L 120.023693 460.924603 
L 121.863438 461.545461 
L 123.703183 461.98957 
L 125.542928 462.248184 
L 126.667439 462.329114 
L 127.382672 462.364744 
L 129.222417 462.428343 
L 131.062162 462.515924 
L 132.901907 462.664551 
L 134.741651 462.899838 
L 136.581396 463.260119 
L 138.421141 463.839243 
L 140.164495 464.772526 
L 140.260886 464.849838 
L 142.10063 467.176929 
L 142.124485 467.215938 
L 142.596798 469.65935 
L 142.10063 471.855892 
L 142.053625 472.102763 
L 140.677201 474.546175 
L 140.260886 475.000222 
L 138.421141 476.888348 
L 138.319033 476.989587 
L 136.581396 478.390615 
L 134.9812 479.433 
L 134.741651 479.590043 
L 132.901907 480.707901 
L 131.062162 481.57081 
L 130.303639 481.876412 
L 129.222417 482.397982 
L 127.382672 483.105654 
L 125.542928 483.635581 
L 123.703183 484.031902 
L 121.863438 484.319824 
L 121.863438 484.319824 
L 120.023693 484.591083 
L 118.183949 484.756472 
L 116.344204 484.856988 
L 114.504459 484.928511 
L 112.664714 484.999189 
L 110.82497 485.093889 
L 108.985225 485.240499 
L 107.14548 485.461547 
L 105.305735 485.752816 
L 103.465991 486.079324 
L 101.626246 486.398448 
L 99.786501 486.680093 
L 99.128792 486.763237 
L 97.946756 487.011649 
L 96.107012 487.25326 
L 94.267267 487.316416 
L 92.427522 487.167929 
z
" clip-path="url(#pbc104c9657)" style="fill: #edf4fc"/>
    <path d="M 92.427522 487.167929 
L 94.267267 487.316416 
L 96.107012 487.25326 
L 97.946756 487.011649 
L 99.128792 486.763237 
L 99.786501 486.680093 
L 101.626246 486.398448 
L 103.465991 486.079324 
L 105.305735 485.752816 
L 107.14548 485.461547 
L 108.985225 485.240499 
L 110.82497 485.093889 
L 112.664714 484.999189 
L 114.504459 484.928511 
L 116.344204 484.856988 
L 118.183949 484.756472 
L 120.023693 484.591083 
L 121.863438 484.319824 
L 121.863438 484.319824 
L 123.703183 484.031902 
L 125.542928 483.635581 
L 127.382672 483.105654 
L 129.222417 482.397982 
L 130.303639 481.876412 
L 131.062162 481.57081 
L 132.901907 480.707901 
L 134.741651 479.590043 
L 134.9812 479.433 
L 136.581396 478.390615 
L 138.319033 476.989587 
L 138.421141 476.888348 
L 140.260886 475.000222 
L 140.677201 474.546175 
L 142.053625 472.102763 
L 142.10063 471.855892 
L 142.596798 469.65935 
L 142.124485 467.215938 
L 142.10063 467.176929 
L 140.260886 464.849838 
L 140.164495 464.772526 
L 138.421141 463.839243 
L 136.581396 463.260119 
L 134.741651 462.899838 
L 132.901907 462.664551 
L 131.062162 462.515924 
L 129.222417 462.428343 
L 127.382672 462.364744 
L 126.667439 462.329114 
L 125.542928 462.248184 
L 123.703183 461.98957 
L 121.863438 461.545461 
L 120.023693 460.924603 
L 118.183949 460.228161 
L 117.218876 459.885701 
L 116.344204 459.525695 
L 114.504459 458.975736 
L 112.664714 458.708376 
L 110.82497 458.691651 
L 108.985225 458.900426 
L 107.14548 459.339469 
L 105.704463 459.885701 
L 105.305735 459.98166 
L 103.465991 460.559197 
L 101.626246 461.360449 
L 100.019907 462.329114 
L 99.786501 462.429688 
L 97.946756 463.332079 
L 96.107012 464.633962 
L 95.928632 464.772526 
L 94.267267 465.829369 
L 92.68448 467.215938 
L 92.427522 467.426784 
L 90.587777 469.128906 
L 90.089083 469.65935 
L 88.748033 471.217895 
L 88.042985 472.102763 
L 86.908288 473.951454 
L 86.526136 474.546175 
L 85.475033 476.989587 
L 85.068543 479.250143 
L 85.024619 479.433 
L 85.068543 479.997459 
L 85.196543 481.876412 
L 86.419535 484.319824 
L 86.908288 484.811185 
L 88.748033 486.101212 
L 90.587777 486.749471 
L 90.659014 486.763237 
z
M 90.850035 484.319824 
L 90.587777 484.193084 
L 88.748033 482.624899 
L 88.18408 481.876412 
L 87.567298 479.433 
L 87.882616 476.989587 
L 88.748033 474.993334 
L 88.914814 474.546175 
L 90.496269 472.102763 
L 90.587777 471.991839 
L 92.427522 469.876363 
L 92.63357 469.65935 
L 94.267267 468.093446 
L 95.408942 467.215938 
L 96.107012 466.641543 
L 97.946756 465.374387 
L 99.059691 464.772526 
L 99.786501 464.286779 
L 101.626246 463.287015 
L 103.465991 462.565961 
L 104.250656 462.329114 
L 105.305735 461.879949 
L 107.14548 461.35514 
L 108.985225 461.075978 
L 110.82497 461.035893 
L 112.664714 461.265768 
L 114.504459 461.810852 
L 115.677616 462.329114 
L 116.344204 462.625377 
L 118.183949 463.49026 
L 120.023693 464.236971 
L 121.863438 464.730995 
L 122.155557 464.772526 
L 123.703183 464.949026 
L 125.542928 465.047144 
L 127.382672 465.121045 
L 129.222417 465.238904 
L 131.062162 465.448131 
L 132.901907 465.785848 
L 134.741651 466.317009 
L 136.581396 467.200791 
L 136.603753 467.215938 
L 138.211699 469.65935 
L 137.980576 472.102763 
L 136.581396 474.546175 
L 136.581396 474.546175 
L 134.741651 476.396612 
L 134.095829 476.989587 
L 132.901907 477.851443 
L 131.062162 478.964382 
L 130.157443 479.433 
L 129.222417 479.903828 
L 127.382672 480.64069 
L 125.542928 481.197807 
L 123.703183 481.610497 
L 122.00689 481.876412 
L 121.863438 481.901998 
L 120.023693 482.110889 
L 118.183949 482.239855 
L 116.344204 482.328168 
L 114.504459 482.408275 
L 112.664714 482.512204 
L 110.82497 482.678388 
L 108.985225 482.938806 
L 107.14548 483.290029 
L 105.305735 483.689346 
L 103.465991 484.086418 
L 102.321478 484.319824 
L 101.626246 484.518065 
L 99.786501 484.964304 
L 97.946756 485.260679 
L 96.107012 485.386752 
L 94.267267 485.307313 
L 92.427522 484.952939 
z
" clip-path="url(#pbc104c9657)" style="fill: #d9e7f5"/>
    <path d="M 92.427522 484.952939 
L 94.267267 485.307313 
L 96.107012 485.386752 
L 97.946756 485.260679 
L 99.786501 484.964304 
L 101.626246 484.518065 
L 102.321478 484.319824 
L 103.465991 484.086418 
L 105.305735 483.689346 
L 107.14548 483.290029 
L 108.985225 482.938806 
L 110.82497 482.678388 
L 112.664714 482.512204 
L 114.504459 482.408275 
L 116.344204 482.328168 
L 118.183949 482.239855 
L 120.023693 482.110889 
L 121.863438 481.901998 
L 122.00689 481.876412 
L 123.703183 481.610497 
L 125.542928 481.197807 
L 127.382672 480.64069 
L 129.222417 479.903828 
L 130.157443 479.433 
L 131.062162 478.964382 
L 132.901907 477.851443 
L 134.095829 476.989587 
L 134.741651 476.396612 
L 136.581396 474.546175 
L 136.581396 474.546175 
L 137.980576 472.102763 
L 138.211699 469.65935 
L 136.603753 467.215938 
L 136.581396 467.200791 
L 134.741651 466.317009 
L 132.901907 465.785848 
L 131.062162 465.448131 
L 129.222417 465.238904 
L 127.382672 465.121045 
L 125.542928 465.047144 
L 123.703183 464.949026 
L 122.155557 464.772526 
L 121.863438 464.730995 
L 120.023693 464.236971 
L 118.183949 463.49026 
L 116.344204 462.625377 
L 115.677616 462.329114 
L 114.504459 461.810852 
L 112.664714 461.265768 
L 110.82497 461.035893 
L 108.985225 461.075978 
L 107.14548 461.35514 
L 105.305735 461.879949 
L 104.250656 462.329114 
L 103.465991 462.565961 
L 101.626246 463.287015 
L 99.786501 464.286779 
L 99.059691 464.772526 
L 97.946756 465.374387 
L 96.107012 466.641543 
L 95.408942 467.215938 
L 94.267267 468.093446 
L 92.63357 469.65935 
L 92.427522 469.876363 
L 90.587777 471.991839 
L 90.496269 472.102763 
L 88.914814 474.546175 
L 88.748033 474.993334 
L 87.882616 476.989587 
L 87.567298 479.433 
L 88.18408 481.876412 
L 88.748033 482.624899 
L 90.587777 484.193084 
L 90.850035 484.319824 
z
M 90.442963 481.876412 
L 89.328749 479.433 
L 89.469034 476.989587 
L 90.434293 474.546175 
L 90.587777 474.31204 
L 92.003573 472.102763 
L 92.427522 471.60842 
L 94.267267 469.668266 
L 94.276218 469.65935 
L 96.107012 468.01798 
L 97.233666 467.215938 
L 97.946756 466.67355 
L 99.786501 465.517367 
L 101.34628 464.772526 
L 101.626246 464.607249 
L 103.465991 463.729603 
L 105.305735 463.12906 
L 107.14548 462.746266 
L 108.985225 462.575503 
L 110.82497 462.655992 
L 112.664714 463.057496 
L 114.504459 463.827171 
L 116.172831 464.772526 
L 116.344204 464.884051 
L 118.183949 465.8773 
L 120.023693 466.531694 
L 121.863438 466.865815 
L 123.703183 467.010298 
L 125.542928 467.095092 
L 127.382672 467.215938 
L 127.382672 467.215938 
L 129.222417 467.465384 
L 131.062162 467.894201 
L 132.901907 468.612735 
L 134.438878 469.65935 
L 134.741651 470.853895 
L 134.948213 472.102763 
L 134.741651 472.481416 
L 133.649024 474.546175 
L 132.901907 475.249815 
L 131.062162 476.823552 
L 130.84659 476.989587 
L 129.222417 477.888288 
L 127.382672 478.700484 
L 125.542928 479.341131 
L 125.182898 479.433 
L 123.703183 479.773289 
L 121.863438 480.05407 
L 120.023693 480.233827 
L 118.183949 480.35204 
L 116.344204 480.445457 
L 114.504459 480.552585 
L 112.664714 480.719438 
L 110.82497 480.985933 
L 108.985225 481.3547 
L 107.14548 481.787499 
L 106.823949 481.876412 
L 105.305735 482.360816 
L 103.465991 482.923716 
L 101.626246 483.39412 
L 99.786501 483.74935 
L 97.946756 483.971414 
L 96.107012 484.024772 
L 94.267267 483.836435 
L 92.427522 483.263684 
L 90.587777 482.017988 
z
" clip-path="url(#pbc104c9657)" style="fill: #c7dbef"/>
    <path d="M 90.587777 482.017988 
L 92.427522 483.263684 
L 94.267267 483.836435 
L 96.107012 484.024772 
L 97.946756 483.971414 
L 99.786501 483.74935 
L 101.626246 483.39412 
L 103.465991 482.923716 
L 105.305735 482.360816 
L 106.823949 481.876412 
L 107.14548 481.787499 
L 108.985225 481.3547 
L 110.82497 480.985933 
L 112.664714 480.719438 
L 114.504459 480.552585 
L 116.344204 480.445457 
L 118.183949 480.35204 
L 120.023693 480.233827 
L 121.863438 480.05407 
L 123.703183 479.773289 
L 125.182898 479.433 
L 125.542928 479.341131 
L 127.382672 478.700484 
L 129.222417 477.888288 
L 130.84659 476.989587 
L 131.062162 476.823552 
L 132.901907 475.249815 
L 133.649024 474.546175 
L 134.741651 472.481416 
L 134.948213 472.102763 
L 134.741651 470.853895 
L 134.438878 469.65935 
L 132.901907 468.612735 
L 131.062162 467.894201 
L 129.222417 467.465384 
L 127.382672 467.215938 
L 127.382672 467.215938 
L 125.542928 467.095092 
L 123.703183 467.010298 
L 121.863438 466.865815 
L 120.023693 466.531694 
L 118.183949 465.8773 
L 116.344204 464.884051 
L 116.172831 464.772526 
L 114.504459 463.827171 
L 112.664714 463.057496 
L 110.82497 462.655992 
L 108.985225 462.575503 
L 107.14548 462.746266 
L 105.305735 463.12906 
L 103.465991 463.729603 
L 101.626246 464.607249 
L 101.34628 464.772526 
L 99.786501 465.517367 
L 97.946756 466.67355 
L 97.233666 467.215938 
L 96.107012 468.01798 
L 94.276218 469.65935 
L 94.267267 469.668266 
L 92.427522 471.60842 
L 92.003573 472.102763 
L 90.587777 474.31204 
L 90.434293 474.546175 
L 89.469034 476.989587 
L 89.328749 479.433 
L 90.442963 481.876412 
z
M 92.986504 481.876412 
L 92.427522 481.453746 
L 90.989916 479.433 
L 90.907556 476.989587 
L 91.753827 474.546175 
L 92.427522 473.525791 
L 93.355214 472.102763 
L 94.267267 471.086994 
L 95.700614 469.65935 
L 96.107012 469.295 
L 97.946756 467.852498 
L 98.93916 467.215938 
L 99.786501 466.638967 
L 101.626246 465.645513 
L 103.465991 464.910804 
L 103.941395 464.772526 
L 105.305735 464.285782 
L 107.14548 463.919575 
L 108.985225 463.844395 
L 110.82497 464.104751 
L 112.664714 464.772526 
L 112.664714 464.772526 
L 114.504459 465.923868 
L 116.322359 467.215938 
L 116.344204 467.236409 
L 118.183949 468.365242 
L 120.023693 468.915091 
L 121.863438 469.144347 
L 123.703183 469.261751 
L 125.542928 469.40325 
L 127.382672 469.656925 
L 127.393789 469.65935 
L 129.222417 470.4425 
L 131.062162 472.003465 
L 131.132642 472.102763 
L 131.062162 472.270038 
L 130.113406 474.546175 
L 129.222417 475.201949 
L 127.382672 476.360976 
L 126.180223 476.989587 
L 125.542928 477.200158 
L 123.703183 477.627689 
L 121.863438 477.91853 
L 120.023693 478.111635 
L 118.183949 478.251234 
L 116.344204 478.389975 
L 114.504459 478.592823 
L 112.664714 478.915617 
L 110.82497 479.364047 
L 110.622881 479.433 
L 108.985225 479.93916 
L 107.14548 480.578212 
L 105.305735 481.193571 
L 103.465991 481.742235 
L 102.955553 481.876412 
L 101.626246 482.286877 
L 99.786501 482.68993 
L 97.946756 482.891399 
L 96.107012 482.847982 
L 94.267267 482.465782 
z
" clip-path="url(#pbc104c9657)" style="fill: #aacfe5"/>
    <path d="M 94.267267 482.465782 
L 96.107012 482.847982 
L 97.946756 482.891399 
L 99.786501 482.68993 
L 101.626246 482.286877 
L 102.955553 481.876412 
L 103.465991 481.742235 
L 105.305735 481.193571 
L 107.14548 480.578212 
L 108.985225 479.93916 
L 110.622881 479.433 
L 110.82497 479.364047 
L 112.664714 478.915617 
L 114.504459 478.592823 
L 116.344204 478.389975 
L 118.183949 478.251234 
L 120.023693 478.111635 
L 121.863438 477.91853 
L 123.703183 477.627689 
L 125.542928 477.200158 
L 126.180223 476.989587 
L 127.382672 476.360976 
L 129.222417 475.201949 
L 130.113406 474.546175 
L 131.062162 472.270038 
L 131.132642 472.102763 
L 131.062162 472.003465 
L 129.222417 470.4425 
L 127.393789 469.65935 
L 127.382672 469.656925 
L 125.542928 469.40325 
L 123.703183 469.261751 
L 121.863438 469.144347 
L 120.023693 468.915091 
L 118.183949 468.365242 
L 116.344204 467.236409 
L 116.322359 467.215938 
L 114.504459 465.923868 
L 112.664714 464.772526 
L 112.664714 464.772526 
L 110.82497 464.104751 
L 108.985225 463.844395 
L 107.14548 463.919575 
L 105.305735 464.285782 
L 103.941395 464.772526 
L 103.465991 464.910804 
L 101.626246 465.645513 
L 99.786501 466.638967 
L 98.93916 467.215938 
L 97.946756 467.852498 
L 96.107012 469.295 
L 95.700614 469.65935 
L 94.267267 471.086994 
L 93.355214 472.102763 
L 92.427522 473.525791 
L 91.753827 474.546175 
L 90.907556 476.989587 
L 90.989916 479.433 
L 92.427522 481.453746 
L 92.986504 481.876412 
z
M 95.791026 481.876412 
L 94.267267 481.355829 
L 92.427522 479.747334 
L 92.203897 479.433 
L 91.890307 476.989587 
L 92.427522 475.431818 
L 92.696115 474.546175 
L 94.267267 472.174545 
L 94.314807 472.102763 
L 96.107012 470.223997 
L 96.716914 469.65935 
L 97.946756 468.65301 
L 99.786501 467.445527 
L 100.204704 467.215938 
L 101.626246 466.396451 
L 103.465991 465.625324 
L 105.305735 465.097481 
L 107.14548 464.804957 
L 108.985225 464.804714 
L 110.82497 465.21404 
L 112.664714 466.149635 
L 114.121634 467.215938 
L 114.504459 467.663225 
L 116.344204 469.37513 
L 116.856532 469.65935 
L 118.183949 470.698552 
L 120.023693 471.245242 
L 121.863438 471.482639 
L 123.703183 471.710475 
L 125.542928 472.102763 
L 125.542928 472.102763 
L 125.600281 474.546175 
L 125.542928 474.572355 
L 123.703183 475.175462 
L 121.863438 475.60982 
L 120.023693 475.91996 
L 118.183949 476.191118 
L 116.344204 476.537201 
L 114.714385 476.989587 
L 114.504459 477.021953 
L 112.664714 477.517313 
L 110.82497 478.180084 
L 108.985225 478.913116 
L 107.736482 479.433 
L 107.14548 479.661981 
L 105.305735 480.401078 
L 103.465991 481.028066 
L 101.626246 481.527261 
L 99.833879 481.876412 
L 99.786501 481.887248 
L 97.946756 482.073115 
L 96.107012 481.956374 
z
" clip-path="url(#pbc104c9657)" style="fill: #8dc1dd"/>
    <path d="M 96.107012 481.956374 
L 97.946756 482.073115 
L 99.786501 481.887248 
L 99.833879 481.876412 
L 101.626246 481.527261 
L 103.465991 481.028066 
L 105.305735 480.401078 
L 107.14548 479.661981 
L 107.736482 479.433 
L 108.985225 478.913116 
L 110.82497 478.180084 
L 112.664714 477.517313 
L 114.504459 477.021953 
L 114.714385 476.989587 
L 116.344204 476.537201 
L 118.183949 476.191118 
L 120.023693 475.91996 
L 121.863438 475.60982 
L 123.703183 475.175462 
L 125.542928 474.572355 
L 125.600281 474.546175 
L 125.542928 472.102763 
L 125.542928 472.102763 
L 123.703183 471.710475 
L 121.863438 471.482639 
L 120.023693 471.245242 
L 118.183949 470.698552 
L 116.856532 469.65935 
L 116.344204 469.37513 
L 114.504459 467.663225 
L 114.121634 467.215938 
L 112.664714 466.149635 
L 110.82497 465.21404 
L 108.985225 464.804714 
L 107.14548 464.804957 
L 105.305735 465.097481 
L 103.465991 465.625324 
L 101.626246 466.396451 
L 100.204704 467.215938 
L 99.786501 467.445527 
L 97.946756 468.65301 
L 96.716914 469.65935 
L 96.107012 470.223997 
L 94.314807 472.102763 
L 94.267267 472.174545 
L 92.696115 474.546175 
L 92.427522 475.431818 
L 91.890307 476.989587 
L 92.203897 479.433 
L 92.427522 479.747334 
L 94.267267 481.355829 
L 95.791026 481.876412 
z
M 93.777996 479.433 
L 93.069889 476.989587 
L 93.751838 474.546175 
L 94.267267 473.768142 
L 95.370212 472.102763 
L 96.107012 471.330377 
L 97.911968 469.65935 
L 97.946756 469.630884 
L 99.786501 468.319103 
L 101.626246 467.305988 
L 101.837442 467.215938 
L 103.465991 466.498154 
L 105.305735 465.990287 
L 107.14548 465.782697 
L 108.985225 465.941296 
L 110.82497 466.59115 
L 111.843087 467.215938 
L 112.664714 468.120079 
L 113.967815 469.65935 
L 114.504459 471.320129 
L 114.964863 472.102763 
L 114.504459 473.271961 
L 114.04843 474.546175 
L 112.664714 475.442009 
L 110.82497 476.681445 
L 110.405813 476.989587 
L 108.985225 477.710459 
L 107.14548 478.620601 
L 105.305735 479.433 
L 105.305735 479.433 
L 103.465991 480.155665 
L 101.626246 480.692145 
L 99.786501 481.027921 
L 97.946756 481.113474 
L 96.107012 480.824544 
L 94.267267 479.885397 
z
" clip-path="url(#pbc104c9657)" style="fill: #6dafd7"/>
    <path d="M 94.267267 479.885397 
L 96.107012 480.824544 
L 97.946756 481.113474 
L 99.786501 481.027921 
L 101.626246 480.692145 
L 103.465991 480.155665 
L 105.305735 479.433 
L 105.305735 479.433 
L 107.14548 478.620601 
L 108.985225 477.710459 
L 110.405813 476.989587 
L 110.82497 476.681445 
L 112.664714 475.442009 
L 114.04843 474.546175 
L 114.504459 473.271961 
L 114.964863 472.102763 
L 114.504459 471.320129 
L 113.967815 469.65935 
L 112.664714 468.120079 
L 111.843087 467.215938 
L 110.82497 466.59115 
L 108.985225 465.941296 
L 107.14548 465.782697 
L 105.305735 465.990287 
L 103.465991 466.498154 
L 101.837442 467.215938 
L 101.626246 467.305988 
L 99.786501 468.319103 
L 97.946756 469.630884 
L 97.911968 469.65935 
L 96.107012 471.330377 
L 95.370212 472.102763 
L 94.267267 473.768142 
L 93.751838 474.546175 
L 93.069889 476.989587 
L 93.777996 479.433 
z
M 97.15118 479.433 
L 96.107012 478.827282 
L 94.911602 476.989587 
L 95.355244 474.546175 
L 96.107012 473.413294 
L 96.992411 472.102763 
L 97.946756 471.187666 
L 99.786501 469.65935 
L 99.786501 469.65935 
L 101.626246 468.601435 
L 103.465991 467.844426 
L 105.305735 467.376908 
L 107.14548 467.298682 
L 108.985225 467.856924 
L 110.82497 469.394845 
L 111.056548 469.65935 
L 111.530635 472.102763 
L 110.82497 473.482546 
L 110.304322 474.546175 
L 108.985225 475.659168 
L 107.261121 476.989587 
L 107.14548 477.053627 
L 105.305735 478.030094 
L 103.465991 478.811051 
L 101.626246 479.408527 
L 101.487631 479.433 
L 99.786501 479.711611 
L 97.946756 479.656199 
z
" clip-path="url(#pbc104c9657)" style="fill: #4a98c9"/>
    <path d="M 97.946756 479.656199 
L 99.786501 479.711611 
L 101.487631 479.433 
L 101.626246 479.408527 
L 103.465991 478.811051 
L 105.305735 478.030094 
L 107.14548 477.053627 
L 107.261121 476.989587 
L 108.985225 475.659168 
L 110.304322 474.546175 
L 110.82497 473.482546 
L 111.530635 472.102763 
L 111.056548 469.65935 
L 110.82497 469.394845 
L 108.985225 467.856924 
L 107.14548 467.298682 
L 105.305735 467.376908 
L 103.465991 467.844426 
L 101.626246 468.601435 
L 99.786501 469.65935 
L 99.786501 469.65935 
L 97.946756 471.187666 
L 96.992411 472.102763 
L 96.107012 473.413294 
L 95.355244 474.546175 
L 94.911602 476.989587 
L 96.107012 478.827282 
L 97.15118 479.433 
z
M 98.02282 476.989587 
L 97.946756 476.760033 
L 97.672204 474.546175 
L 97.946756 474.134665 
L 99.368535 472.102763 
L 99.786501 471.756529 
L 101.626246 470.565355 
L 103.465991 469.65935 
L 103.465991 469.65935 
L 105.305735 469.427058 
L 106.569967 469.65935 
L 107.14548 469.98713 
L 108.251068 472.102763 
L 107.14548 474.3547 
L 107.048371 474.546175 
L 105.305735 475.846628 
L 103.488815 476.989587 
L 103.465991 476.999746 
L 101.626246 477.507281 
L 99.786501 477.588574 
z
" clip-path="url(#pbc104c9657)" style="fill: #2070b4"/>
    <path d="M 99.786501 477.588574 
L 101.626246 477.507281 
L 103.465991 476.999746 
L 103.488815 476.989587 
L 105.305735 475.846628 
L 107.048371 474.546175 
L 107.14548 474.3547 
L 108.251068 472.102763 
L 107.14548 469.98713 
L 106.569967 469.65935 
L 105.305735 469.427058 
L 103.465991 469.65935 
L 103.465991 469.65935 
L 101.626246 470.565355 
L 99.786501 471.756529 
L 99.368535 472.102763 
L 97.946756 474.134665 
L 97.672204 474.546175 
L 97.946756 476.760033 
L 98.02282 476.989587 
z
" clip-path="url(#pbc104c9657)" style="fill: #08458a"/>
   </g>
   <g id="matplotlib.axis_1">
    <g id="xtick_1">
     <g id="line2d_1">
      <defs>
       <path id="m6adbdd76dd" d="M 0 0 
L 0 3.5 
" style="stroke: #000000; stroke-width: 0.8"/>
      </defs>
      <g>
       <use xlink:href="#m6adbdd76dd" x="99.089703" y="499.48" style="stroke: #000000; stroke-width: 0.8"/>
      </g>
     </g>
     <g id="text_1">
      <!-- 0 -->
      <g transform="translate(92.090953 523.196563) scale(0.22 -0.22)">
       <defs>
        <path id="DejaVuSans-30" d="M 2034 4250 
Q 1547 4250 1301 3770 
Q 1056 3291 1056 2328 
Q 1056 1369 1301 889 
Q 1547 409 2034 409 
Q 2525 409 2770 889 
Q 3016 1369 3016 2328 
Q 3016 3291 2770 3770 
Q 2525 4250 2034 4250 
z
M 2034 4750 
Q 2819 4750 3233 4129 
Q 3647 3509 3647 2328 
Q 3647 1150 3233 529 
Q 2819 -91 2034 -91 
Q 1250 -91 836 529 
Q 422 1150 422 2328 
Q 422 3509 836 4129 
Q 1250 4750 2034 4750 
z
" transform="scale(0.015625)"/>
       </defs>
       <use xlink:href="#DejaVuSans-30"/>
      </g>
     </g>
    </g>
    <g id="xtick_2">
     <g id="line2d_2">
      <g>
       <use xlink:href="#m6adbdd76dd" x="182.383345" y="499.48" style="stroke: #000000; stroke-width: 0.8"/>
      </g>
     </g>
     <g id="text_2">
      <!-- 10 -->
      <g transform="translate(168.385845 523.196563) scale(0.22 -0.22)">
       <defs>
        <path id="DejaVuSans-31" d="M 794 531 
L 1825 531 
L 1825 4091 
L 703 3866 
L 703 4441 
L 1819 4666 
L 2450 4666 
L 2450 531 
L 3481 531 
L 3481 0 
L 794 0 
L 794 531 
z
" transform="scale(0.015625)"/>
       </defs>
       <use xlink:href="#DejaVuSans-31"/>
       <use xlink:href="#DejaVuSans-30" x="63.623047"/>
      </g>
     </g>
    </g>
    <g id="xtick_3">
     <g id="line2d_3">
      <g>
       <use xlink:href="#m6adbdd76dd" x="265.676987" y="499.48" style="stroke: #000000; stroke-width: 0.8"/>
      </g>
     </g>
     <g id="text_3">
      <!-- 20 -->
      <g transform="translate(251.679487 523.196563) scale(0.22 -0.22)">
       <defs>
        <path id="DejaVuSans-32" d="M 1228 531 
L 3431 531 
L 3431 0 
L 469 0 
L 469 531 
Q 828 903 1448 1529 
Q 2069 2156 2228 2338 
Q 2531 2678 2651 2914 
Q 2772 3150 2772 3378 
Q 2772 3750 2511 3984 
Q 2250 4219 1831 4219 
Q 1534 4219 1204 4116 
Q 875 4013 500 3803 
L 500 4441 
Q 881 4594 1212 4672 
Q 1544 4750 1819 4750 
Q 2544 4750 2975 4387 
Q 3406 4025 3406 3419 
Q 3406 3131 3298 2873 
Q 3191 2616 2906 2266 
Q 2828 2175 2409 1742 
Q 1991 1309 1228 531 
z
" transform="scale(0.015625)"/>
       </defs>
       <use xlink:href="#DejaVuSans-32"/>
       <use xlink:href="#DejaVuSans-30" x="63.623047"/>
      </g>
     </g>
    </g>
    <g id="xtick_4">
     <g id="line2d_4">
      <g>
       <use xlink:href="#m6adbdd76dd" x="348.970629" y="499.48" style="stroke: #000000; stroke-width: 0.8"/>
      </g>
     </g>
     <g id="text_4">
      <!-- 30 -->
      <g transform="translate(334.973129 523.196563) scale(0.22 -0.22)">
       <defs>
        <path id="DejaVuSans-33" d="M 2597 2516 
Q 3050 2419 3304 2112 
Q 3559 1806 3559 1356 
Q 3559 666 3084 287 
Q 2609 -91 1734 -91 
Q 1441 -91 1130 -33 
Q 819 25 488 141 
L 488 750 
Q 750 597 1062 519 
Q 1375 441 1716 441 
Q 2309 441 2620 675 
Q 2931 909 2931 1356 
Q 2931 1769 2642 2001 
Q 2353 2234 1838 2234 
L 1294 2234 
L 1294 2753 
L 1863 2753 
Q 2328 2753 2575 2939 
Q 2822 3125 2822 3475 
Q 2822 3834 2567 4026 
Q 2313 4219 1838 4219 
Q 1578 4219 1281 4162 
Q 984 4106 628 3988 
L 628 4550 
Q 988 4650 1302 4700 
Q 1616 4750 1894 4750 
Q 2613 4750 3031 4423 
Q 3450 4097 3450 3541 
Q 3450 3153 3228 2886 
Q 3006 2619 2597 2516 
z
" transform="scale(0.015625)"/>
       </defs>
       <use xlink:href="#DejaVuSans-33"/>
       <use xlink:href="#DejaVuSans-30" x="63.623047"/>
      </g>
     </g>
    </g>
    <g id="xtick_5">
     <g id="line2d_5">
      <g>
       <use xlink:href="#m6adbdd76dd" x="432.264271" y="499.48" style="stroke: #000000; stroke-width: 0.8"/>
      </g>
     </g>
     <g id="text_5">
      <!-- 40 -->
      <g transform="translate(418.266771 523.196563) scale(0.22 -0.22)">
       <defs>
        <path id="DejaVuSans-34" d="M 2419 4116 
L 825 1625 
L 2419 1625 
L 2419 4116 
z
M 2253 4666 
L 3047 4666 
L 3047 1625 
L 3713 1625 
L 3713 1100 
L 3047 1100 
L 3047 0 
L 2419 0 
L 2419 1100 
L 313 1100 
L 313 1709 
L 2253 4666 
z
" transform="scale(0.015625)"/>
       </defs>
       <use xlink:href="#DejaVuSans-34"/>
       <use xlink:href="#DejaVuSans-30" x="63.623047"/>
      </g>
     </g>
    </g>
    <g id="xtick_6">
     <g id="line2d_6">
      <g>
       <use xlink:href="#m6adbdd76dd" x="515.557913" y="499.48" style="stroke: #000000; stroke-width: 0.8"/>
      </g>
     </g>
     <g id="text_6">
      <!-- 50 -->
      <g transform="translate(501.560413 523.196563) scale(0.22 -0.22)">
       <defs>
        <path id="DejaVuSans-35" d="M 691 4666 
L 3169 4666 
L 3169 4134 
L 1269 4134 
L 1269 2991 
Q 1406 3038 1543 3061 
Q 1681 3084 1819 3084 
Q 2600 3084 3056 2656 
Q 3513 2228 3513 1497 
Q 3513 744 3044 326 
Q 2575 -91 1722 -91 
Q 1428 -91 1123 -41 
Q 819 9 494 109 
L 494 744 
Q 775 591 1075 516 
Q 1375 441 1709 441 
Q 2250 441 2565 725 
Q 2881 1009 2881 1497 
Q 2881 1984 2565 2268 
Q 2250 2553 1709 2553 
Q 1456 2553 1204 2497 
Q 953 2441 691 2322 
L 691 4666 
z
" transform="scale(0.015625)"/>
       </defs>
       <use xlink:href="#DejaVuSans-35"/>
       <use xlink:href="#DejaVuSans-30" x="63.623047"/>
      </g>
     </g>
    </g>
    <g id="xtick_7">
     <g id="line2d_7">
      <g>
       <use xlink:href="#m6adbdd76dd" x="598.851555" y="499.48" style="stroke: #000000; stroke-width: 0.8"/>
      </g>
     </g>
     <g id="text_7">
      <!-- 60 -->
      <g transform="translate(584.854055 523.196563) scale(0.22 -0.22)">
       <defs>
        <path id="DejaVuSans-36" d="M 2113 2584 
Q 1688 2584 1439 2293 
Q 1191 2003 1191 1497 
Q 1191 994 1439 701 
Q 1688 409 2113 409 
Q 2538 409 2786 701 
Q 3034 994 3034 1497 
Q 3034 2003 2786 2293 
Q 2538 2584 2113 2584 
z
M 3366 4563 
L 3366 3988 
Q 3128 4100 2886 4159 
Q 2644 4219 2406 4219 
Q 1781 4219 1451 3797 
Q 1122 3375 1075 2522 
Q 1259 2794 1537 2939 
Q 1816 3084 2150 3084 
Q 2853 3084 3261 2657 
Q 3669 2231 3669 1497 
Q 3669 778 3244 343 
Q 2819 -91 2113 -91 
Q 1303 -91 875 529 
Q 447 1150 447 2328 
Q 447 3434 972 4092 
Q 1497 4750 2381 4750 
Q 2619 4750 2861 4703 
Q 3103 4656 3366 4563 
z
" transform="scale(0.015625)"/>
       </defs>
       <use xlink:href="#DejaVuSans-36"/>
       <use xlink:href="#DejaVuSans-30" x="63.623047"/>
      </g>
     </g>
    </g>
    <g id="xtick_8">
     <g id="line2d_8">
      <g>
       <use xlink:href="#m6adbdd76dd" x="682.145197" y="499.48" style="stroke: #000000; stroke-width: 0.8"/>
      </g>
     </g>
     <g id="text_8">
      <!-- 70 -->
      <g transform="translate(668.147697 523.196563) scale(0.22 -0.22)">
       <defs>
        <path id="DejaVuSans-37" d="M 525 4666 
L 3525 4666 
L 3525 4397 
L 1831 0 
L 1172 0 
L 2766 4134 
L 525 4134 
L 525 4666 
z
" transform="scale(0.015625)"/>
       </defs>
       <use xlink:href="#DejaVuSans-37"/>
       <use xlink:href="#DejaVuSans-30" x="63.623047"/>
      </g>
     </g>
    </g>
    <g id="text_9">
     <!-- Force Uncertainties -->
     <g transform="translate(276.777011 548.488438) scale(0.22 -0.22)">
      <defs>
       <path id="DejaVuSans-46" d="M 628 4666 
L 3309 4666 
L 3309 4134 
L 1259 4134 
L 1259 2759 
L 3109 2759 
L 3109 2228 
L 1259 2228 
L 1259 0 
L 628 0 
L 628 4666 
z
" transform="scale(0.015625)"/>
       <path id="DejaVuSans-6f" d="M 1959 3097 
Q 1497 3097 1228 2736 
Q 959 2375 959 1747 
Q 959 1119 1226 758 
Q 1494 397 1959 397 
Q 2419 397 2687 759 
Q 2956 1122 2956 1747 
Q 2956 2369 2687 2733 
Q 2419 3097 1959 3097 
z
M 1959 3584 
Q 2709 3584 3137 3096 
Q 3566 2609 3566 1747 
Q 3566 888 3137 398 
Q 2709 -91 1959 -91 
Q 1206 -91 779 398 
Q 353 888 353 1747 
Q 353 2609 779 3096 
Q 1206 3584 1959 3584 
z
" transform="scale(0.015625)"/>
       <path id="DejaVuSans-72" d="M 2631 2963 
Q 2534 3019 2420 3045 
Q 2306 3072 2169 3072 
Q 1681 3072 1420 2755 
Q 1159 2438 1159 1844 
L 1159 0 
L 581 0 
L 581 3500 
L 1159 3500 
L 1159 2956 
Q 1341 3275 1631 3429 
Q 1922 3584 2338 3584 
Q 2397 3584 2469 3576 
Q 2541 3569 2628 3553 
L 2631 2963 
z
" transform="scale(0.015625)"/>
       <path id="DejaVuSans-63" d="M 3122 3366 
L 3122 2828 
Q 2878 2963 2633 3030 
Q 2388 3097 2138 3097 
Q 1578 3097 1268 2742 
Q 959 2388 959 1747 
Q 959 1106 1268 751 
Q 1578 397 2138 397 
Q 2388 397 2633 464 
Q 2878 531 3122 666 
L 3122 134 
Q 2881 22 2623 -34 
Q 2366 -91 2075 -91 
Q 1284 -91 818 406 
Q 353 903 353 1747 
Q 353 2603 823 3093 
Q 1294 3584 2113 3584 
Q 2378 3584 2631 3529 
Q 2884 3475 3122 3366 
z
" transform="scale(0.015625)"/>
       <path id="DejaVuSans-65" d="M 3597 1894 
L 3597 1613 
L 953 1613 
Q 991 1019 1311 708 
Q 1631 397 2203 397 
Q 2534 397 2845 478 
Q 3156 559 3463 722 
L 3463 178 
Q 3153 47 2828 -22 
Q 2503 -91 2169 -91 
Q 1331 -91 842 396 
Q 353 884 353 1716 
Q 353 2575 817 3079 
Q 1281 3584 2069 3584 
Q 2775 3584 3186 3129 
Q 3597 2675 3597 1894 
z
M 3022 2063 
Q 3016 2534 2758 2815 
Q 2500 3097 2075 3097 
Q 1594 3097 1305 2825 
Q 1016 2553 972 2059 
L 3022 2063 
z
" transform="scale(0.015625)"/>
       <path id="DejaVuSans-20" transform="scale(0.015625)"/>
       <path id="DejaVuSans-55" d="M 556 4666 
L 1191 4666 
L 1191 1831 
Q 1191 1081 1462 751 
Q 1734 422 2344 422 
Q 2950 422 3222 751 
Q 3494 1081 3494 1831 
L 3494 4666 
L 4128 4666 
L 4128 1753 
Q 4128 841 3676 375 
Q 3225 -91 2344 -91 
Q 1459 -91 1007 375 
Q 556 841 556 1753 
L 556 4666 
z
" transform="scale(0.015625)"/>
       <path id="DejaVuSans-6e" d="M 3513 2113 
L 3513 0 
L 2938 0 
L 2938 2094 
Q 2938 2591 2744 2837 
Q 2550 3084 2163 3084 
Q 1697 3084 1428 2787 
Q 1159 2491 1159 1978 
L 1159 0 
L 581 0 
L 581 3500 
L 1159 3500 
L 1159 2956 
Q 1366 3272 1645 3428 
Q 1925 3584 2291 3584 
Q 2894 3584 3203 3211 
Q 3513 2838 3513 2113 
z
" transform="scale(0.015625)"/>
       <path id="DejaVuSans-74" d="M 1172 4494 
L 1172 3500 
L 2356 3500 
L 2356 3053 
L 1172 3053 
L 1172 1153 
Q 1172 725 1289 603 
Q 1406 481 1766 481 
L 2356 481 
L 2356 0 
L 1766 0 
Q 1100 0 847 248 
Q 594 497 594 1153 
L 594 3053 
L 172 3053 
L 172 3500 
L 594 3500 
L 594 4494 
L 1172 4494 
z
" transform="scale(0.015625)"/>
       <path id="DejaVuSans-61" d="M 2194 1759 
Q 1497 1759 1228 1600 
Q 959 1441 959 1056 
Q 959 750 1161 570 
Q 1363 391 1709 391 
Q 2188 391 2477 730 
Q 2766 1069 2766 1631 
L 2766 1759 
L 2194 1759 
z
M 3341 1997 
L 3341 0 
L 2766 0 
L 2766 531 
Q 2569 213 2275 61 
Q 1981 -91 1556 -91 
Q 1019 -91 701 211 
Q 384 513 384 1019 
Q 384 1609 779 1909 
Q 1175 2209 1959 2209 
L 2766 2209 
L 2766 2266 
Q 2766 2663 2505 2880 
Q 2244 3097 1772 3097 
Q 1472 3097 1187 3025 
Q 903 2953 641 2809 
L 641 3341 
Q 956 3463 1253 3523 
Q 1550 3584 1831 3584 
Q 2591 3584 2966 3190 
Q 3341 2797 3341 1997 
z
" transform="scale(0.015625)"/>
       <path id="DejaVuSans-69" d="M 603 3500 
L 1178 3500 
L 1178 0 
L 603 0 
L 603 3500 
z
M 603 4863 
L 1178 4863 
L 1178 4134 
L 603 4134 
L 603 4863 
z
" transform="scale(0.015625)"/>
       <path id="DejaVuSans-73" d="M 2834 3397 
L 2834 2853 
Q 2591 2978 2328 3040 
Q 2066 3103 1784 3103 
Q 1356 3103 1142 2972 
Q 928 2841 928 2578 
Q 928 2378 1081 2264 
Q 1234 2150 1697 2047 
L 1894 2003 
Q 2506 1872 2764 1633 
Q 3022 1394 3022 966 
Q 3022 478 2636 193 
Q 2250 -91 1575 -91 
Q 1294 -91 989 -36 
Q 684 19 347 128 
L 347 722 
Q 666 556 975 473 
Q 1284 391 1588 391 
Q 1994 391 2212 530 
Q 2431 669 2431 922 
Q 2431 1156 2273 1281 
Q 2116 1406 1581 1522 
L 1381 1569 
Q 847 1681 609 1914 
Q 372 2147 372 2553 
Q 372 3047 722 3315 
Q 1072 3584 1716 3584 
Q 2034 3584 2315 3537 
Q 2597 3491 2834 3397 
z
" transform="scale(0.015625)"/>
      </defs>
      <use xlink:href="#DejaVuSans-46"/>
      <use xlink:href="#DejaVuSans-6f" x="53.894531"/>
      <use xlink:href="#DejaVuSans-72" x="115.076172"/>
      <use xlink:href="#DejaVuSans-63" x="153.939453"/>
      <use xlink:href="#DejaVuSans-65" x="208.919922"/>
      <use xlink:href="#DejaVuSans-20" x="270.443359"/>
      <use xlink:href="#DejaVuSans-55" x="302.230469"/>
      <use xlink:href="#DejaVuSans-6e" x="375.423828"/>
      <use xlink:href="#DejaVuSans-63" x="438.802734"/>
      <use xlink:href="#DejaVuSans-65" x="493.783203"/>
      <use xlink:href="#DejaVuSans-72" x="555.306641"/>
      <use xlink:href="#DejaVuSans-74" x="596.419922"/>
      <use xlink:href="#DejaVuSans-61" x="635.628906"/>
      <use xlink:href="#DejaVuSans-69" x="696.908203"/>
      <use xlink:href="#DejaVuSans-6e" x="724.691406"/>
      <use xlink:href="#DejaVuSans-74" x="788.070312"/>
      <use xlink:href="#DejaVuSans-69" x="827.279297"/>
      <use xlink:href="#DejaVuSans-65" x="855.0625"/>
      <use xlink:href="#DejaVuSans-73" x="916.585938"/>
     </g>
    </g>
   </g>
   <g id="matplotlib.axis_2">
    <g id="ytick_1">
     <g id="line2d_9">
      <defs>
       <path id="m476de61ec5" d="M 0 0 
L -3.5 0 
" style="stroke: #000000; stroke-width: 0.8"/>
      </defs>
      <g>
       <use xlink:href="#m476de61ec5" x="83.72" y="487.475303" style="stroke: #000000; stroke-width: 0.8"/>
      </g>
     </g>
     <g id="text_10">
      <!-- 0 -->
      <g transform="translate(62.7225 495.833584) scale(0.22 -0.22)">
       <use xlink:href="#DejaVuSans-30"/>
      </g>
     </g>
    </g>
    <g id="ytick_2">
     <g id="line2d_10">
      <g>
       <use xlink:href="#m476de61ec5" x="83.72" y="422.417772" style="stroke: #000000; stroke-width: 0.8"/>
      </g>
     </g>
     <g id="text_11">
      <!-- 10 -->
      <g transform="translate(48.725 430.776053) scale(0.22 -0.22)">
       <use xlink:href="#DejaVuSans-31"/>
       <use xlink:href="#DejaVuSans-30" x="63.623047"/>
      </g>
     </g>
    </g>
    <g id="ytick_3">
     <g id="line2d_11">
      <g>
       <use xlink:href="#m476de61ec5" x="83.72" y="357.360241" style="stroke: #000000; stroke-width: 0.8"/>
      </g>
     </g>
     <g id="text_12">
      <!-- 20 -->
      <g transform="translate(48.725 365.718522) scale(0.22 -0.22)">
       <use xlink:href="#DejaVuSans-32"/>
       <use xlink:href="#DejaVuSans-30" x="63.623047"/>
      </g>
     </g>
    </g>
    <g id="ytick_4">
     <g id="line2d_12">
      <g>
       <use xlink:href="#m476de61ec5" x="83.72" y="292.302709" style="stroke: #000000; stroke-width: 0.8"/>
      </g>
     </g>
     <g id="text_13">
      <!-- 30 -->
      <g transform="translate(48.725 300.660991) scale(0.22 -0.22)">
       <use xlink:href="#DejaVuSans-33"/>
       <use xlink:href="#DejaVuSans-30" x="63.623047"/>
      </g>
     </g>
    </g>
    <g id="ytick_5">
     <g id="line2d_13">
      <g>
       <use xlink:href="#m476de61ec5" x="83.72" y="227.245178" style="stroke: #000000; stroke-width: 0.8"/>
      </g>
     </g>
     <g id="text_14">
      <!-- 40 -->
      <g transform="translate(48.725 235.603459) scale(0.22 -0.22)">
       <use xlink:href="#DejaVuSans-34"/>
       <use xlink:href="#DejaVuSans-30" x="63.623047"/>
      </g>
     </g>
    </g>
    <g id="ytick_6">
     <g id="line2d_14">
      <g>
       <use xlink:href="#m476de61ec5" x="83.72" y="162.187647" style="stroke: #000000; stroke-width: 0.8"/>
      </g>
     </g>
     <g id="text_15">
      <!-- 50 -->
      <g transform="translate(48.725 170.545928) scale(0.22 -0.22)">
       <use xlink:href="#DejaVuSans-35"/>
       <use xlink:href="#DejaVuSans-30" x="63.623047"/>
      </g>
     </g>
    </g>
    <g id="ytick_7">
     <g id="line2d_15">
      <g>
       <use xlink:href="#m476de61ec5" x="83.72" y="97.130116" style="stroke: #000000; stroke-width: 0.8"/>
      </g>
     </g>
     <g id="text_16">
      <!-- 60 -->
      <g transform="translate(48.725 105.488397) scale(0.22 -0.22)">
       <use xlink:href="#DejaVuSans-36"/>
       <use xlink:href="#DejaVuSans-30" x="63.623047"/>
      </g>
     </g>
    </g>
    <g id="ytick_8">
     <g id="line2d_16">
      <g>
       <use xlink:href="#m476de61ec5" x="83.72" y="32.072584" style="stroke: #000000; stroke-width: 0.8"/>
      </g>
     </g>
     <g id="text_17">
      <!-- 70 -->
      <g transform="translate(48.725 40.430866) scale(0.22 -0.22)">
       <use xlink:href="#DejaVuSans-37"/>
       <use xlink:href="#DejaVuSans-30" x="63.623047"/>
      </g>
     </g>
    </g>
    <g id="text_18">
     <!-- Force Errors [kJ/(mol*A)] -->
     <g transform="translate(40.149688 398.75768) rotate(-90) scale(0.22 -0.22)">
      <defs>
       <path id="DejaVuSans-45" d="M 628 4666 
L 3578 4666 
L 3578 4134 
L 1259 4134 
L 1259 2753 
L 3481 2753 
L 3481 2222 
L 1259 2222 
L 1259 531 
L 3634 531 
L 3634 0 
L 628 0 
L 628 4666 
z
" transform="scale(0.015625)"/>
       <path id="DejaVuSans-5b" d="M 550 4863 
L 1875 4863 
L 1875 4416 
L 1125 4416 
L 1125 -397 
L 1875 -397 
L 1875 -844 
L 550 -844 
L 550 4863 
z
" transform="scale(0.015625)"/>
       <path id="DejaVuSans-6b" d="M 581 4863 
L 1159 4863 
L 1159 1991 
L 2875 3500 
L 3609 3500 
L 1753 1863 
L 3688 0 
L 2938 0 
L 1159 1709 
L 1159 0 
L 581 0 
L 581 4863 
z
" transform="scale(0.015625)"/>
       <path id="DejaVuSans-4a" d="M 628 4666 
L 1259 4666 
L 1259 325 
Q 1259 -519 939 -900 
Q 619 -1281 -91 -1281 
L -331 -1281 
L -331 -750 
L -134 -750 
Q 284 -750 456 -515 
Q 628 -281 628 325 
L 628 4666 
z
" transform="scale(0.015625)"/>
       <path id="DejaVuSans-2f" d="M 1625 4666 
L 2156 4666 
L 531 -594 
L 0 -594 
L 1625 4666 
z
" transform="scale(0.015625)"/>
       <path id="DejaVuSans-28" d="M 1984 4856 
Q 1566 4138 1362 3434 
Q 1159 2731 1159 2009 
Q 1159 1288 1364 580 
Q 1569 -128 1984 -844 
L 1484 -844 
Q 1016 -109 783 600 
Q 550 1309 550 2009 
Q 550 2706 781 3412 
Q 1013 4119 1484 4856 
L 1984 4856 
z
" transform="scale(0.015625)"/>
       <path id="DejaVuSans-6d" d="M 3328 2828 
Q 3544 3216 3844 3400 
Q 4144 3584 4550 3584 
Q 5097 3584 5394 3201 
Q 5691 2819 5691 2113 
L 5691 0 
L 5113 0 
L 5113 2094 
Q 5113 2597 4934 2840 
Q 4756 3084 4391 3084 
Q 3944 3084 3684 2787 
Q 3425 2491 3425 1978 
L 3425 0 
L 2847 0 
L 2847 2094 
Q 2847 2600 2669 2842 
Q 2491 3084 2119 3084 
Q 1678 3084 1418 2786 
Q 1159 2488 1159 1978 
L 1159 0 
L 581 0 
L 581 3500 
L 1159 3500 
L 1159 2956 
Q 1356 3278 1631 3431 
Q 1906 3584 2284 3584 
Q 2666 3584 2933 3390 
Q 3200 3197 3328 2828 
z
" transform="scale(0.015625)"/>
       <path id="DejaVuSans-6c" d="M 603 4863 
L 1178 4863 
L 1178 0 
L 603 0 
L 603 4863 
z
" transform="scale(0.015625)"/>
       <path id="DejaVuSans-2a" d="M 3009 3897 
L 1888 3291 
L 3009 2681 
L 2828 2375 
L 1778 3009 
L 1778 1831 
L 1422 1831 
L 1422 3009 
L 372 2375 
L 191 2681 
L 1313 3291 
L 191 3897 
L 372 4206 
L 1422 3572 
L 1422 4750 
L 1778 4750 
L 1778 3572 
L 2828 4206 
L 3009 3897 
z
" transform="scale(0.015625)"/>
       <path id="DejaVuSans-41" d="M 2188 4044 
L 1331 1722 
L 3047 1722 
L 2188 4044 
z
M 1831 4666 
L 2547 4666 
L 4325 0 
L 3669 0 
L 3244 1197 
L 1141 1197 
L 716 0 
L 50 0 
L 1831 4666 
z
" transform="scale(0.015625)"/>
       <path id="DejaVuSans-29" d="M 513 4856 
L 1013 4856 
Q 1481 4119 1714 3412 
Q 1947 2706 1947 2009 
Q 1947 1309 1714 600 
Q 1481 -109 1013 -844 
L 513 -844 
Q 928 -128 1133 580 
Q 1338 1288 1338 2009 
Q 1338 2731 1133 3434 
Q 928 4138 513 4856 
z
" transform="scale(0.015625)"/>
       <path id="DejaVuSans-5d" d="M 1947 4863 
L 1947 -844 
L 622 -844 
L 622 -397 
L 1369 -397 
L 1369 4416 
L 622 4416 
L 622 4863 
L 1947 4863 
z
" transform="scale(0.015625)"/>
      </defs>
      <use xlink:href="#DejaVuSans-46"/>
      <use xlink:href="#DejaVuSans-6f" x="53.894531"/>
      <use xlink:href="#DejaVuSans-72" x="115.076172"/>
      <use xlink:href="#DejaVuSans-63" x="153.939453"/>
      <use xlink:href="#DejaVuSans-65" x="208.919922"/>
      <use xlink:href="#DejaVuSans-20" x="270.443359"/>
      <use xlink:href="#DejaVuSans-45" x="302.230469"/>
      <use xlink:href="#DejaVuSans-72" x="365.414062"/>
      <use xlink:href="#DejaVuSans-72" x="404.777344"/>
      <use xlink:href="#DejaVuSans-6f" x="443.640625"/>
      <use xlink:href="#DejaVuSans-72" x="504.822266"/>
      <use xlink:href="#DejaVuSans-73" x="545.935547"/>
      <use xlink:href="#DejaVuSans-20" x="598.035156"/>
      <use xlink:href="#DejaVuSans-5b" x="629.822266"/>
      <use xlink:href="#DejaVuSans-6b" x="668.835938"/>
      <use xlink:href="#DejaVuSans-4a" x="726.746094"/>
      <use xlink:href="#DejaVuSans-2f" x="756.238281"/>
      <use xlink:href="#DejaVuSans-28" x="789.929688"/>
      <use xlink:href="#DejaVuSans-6d" x="828.943359"/>
      <use xlink:href="#DejaVuSans-6f" x="926.355469"/>
      <use xlink:href="#DejaVuSans-6c" x="987.537109"/>
      <use xlink:href="#DejaVuSans-2a" x="1015.320312"/>
      <use xlink:href="#DejaVuSans-41" x="1065.320312"/>
      <use xlink:href="#DejaVuSans-29" x="1133.728516"/>
      <use xlink:href="#DejaVuSans-5d" x="1172.742188"/>
     </g>
    </g>
   </g>
   <g id="line2d_17">
    <path d="M 83.72 499.48 
L 682.941835 31.450361 
" clip-path="url(#pbc104c9657)" style="fill: none; stroke-dasharray: 5.55,2.4; stroke-dashoffset: 0; stroke: #ff0000; stroke-width: 1.5"/>
   </g>
   <g id="patch_3">
    <path d="M 83.72 499.48 
L 83.72 31.450361 
" style="fill: none; stroke: #000000; stroke-width: 0.8; stroke-linejoin: miter; stroke-linecap: square"/>
   </g>
   <g id="patch_4">
    <path d="M 682.941835 499.48 
L 682.941835 31.450361 
" style="fill: none; stroke: #000000; stroke-width: 0.8; stroke-linejoin: miter; stroke-linecap: square"/>
   </g>
   <g id="patch_5">
    <path d="M 83.72 499.48 
L 682.941835 499.48 
" style="fill: none; stroke: #000000; stroke-width: 0.8; stroke-linejoin: miter; stroke-linecap: square"/>
   </g>
   <g id="patch_6">
    <path d="M 83.72 31.450361 
L 682.941835 31.450361 
" style="fill: none; stroke: #000000; stroke-width: 0.8; stroke-linejoin: miter; stroke-linecap: square"/>
   </g>
   <g id="text_19">
    <!-- Correlation in: 0.676 -->
    <g transform="translate(143.642184 78.253325) scale(0.22 -0.22)">
     <defs>
      <path id="DejaVuSans-43" d="M 4122 4306 
L 4122 3641 
Q 3803 3938 3442 4084 
Q 3081 4231 2675 4231 
Q 1875 4231 1450 3742 
Q 1025 3253 1025 2328 
Q 1025 1406 1450 917 
Q 1875 428 2675 428 
Q 3081 428 3442 575 
Q 3803 722 4122 1019 
L 4122 359 
Q 3791 134 3420 21 
Q 3050 -91 2638 -91 
Q 1578 -91 968 557 
Q 359 1206 359 2328 
Q 359 3453 968 4101 
Q 1578 4750 2638 4750 
Q 3056 4750 3426 4639 
Q 3797 4528 4122 4306 
z
" transform="scale(0.015625)"/>
      <path id="DejaVuSans-3a" d="M 750 794 
L 1409 794 
L 1409 0 
L 750 0 
L 750 794 
z
M 750 3309 
L 1409 3309 
L 1409 2516 
L 750 2516 
L 750 3309 
z
" transform="scale(0.015625)"/>
      <path id="DejaVuSans-2e" d="M 684 794 
L 1344 794 
L 1344 0 
L 684 0 
L 684 794 
z
" transform="scale(0.015625)"/>
     </defs>
     <use xlink:href="#DejaVuSans-43"/>
     <use xlink:href="#DejaVuSans-6f" x="69.824219"/>
     <use xlink:href="#DejaVuSans-72" x="131.005859"/>
     <use xlink:href="#DejaVuSans-72" x="170.369141"/>
     <use xlink:href="#DejaVuSans-65" x="209.232422"/>
     <use xlink:href="#DejaVuSans-6c" x="270.755859"/>
     <use xlink:href="#DejaVuSans-61" x="298.539062"/>
     <use xlink:href="#DejaVuSans-74" x="359.818359"/>
     <use xlink:href="#DejaVuSans-69" x="399.027344"/>
     <use xlink:href="#DejaVuSans-6f" x="426.810547"/>
     <use xlink:href="#DejaVuSans-6e" x="487.992188"/>
     <use xlink:href="#DejaVuSans-20" x="551.371094"/>
     <use xlink:href="#DejaVuSans-69" x="583.158203"/>
     <use xlink:href="#DejaVuSans-6e" x="610.941406"/>
     <use xlink:href="#DejaVuSans-3a" x="674.320312"/>
     <use xlink:href="#DejaVuSans-20" x="708.011719"/>
     <use xlink:href="#DejaVuSans-30" x="739.798828"/>
     <use xlink:href="#DejaVuSans-2e" x="803.421875"/>
     <use xlink:href="#DejaVuSans-36" x="835.208984"/>
     <use xlink:href="#DejaVuSans-37" x="898.832031"/>
     <use xlink:href="#DejaVuSans-36" x="962.455078"/>
    </g>
   </g>
  </g>
 </g>
 <defs>
  <clipPath id="pbc104c9657">
   <rect x="83.72" y="31.450361" width="599.221835" height="468.029639"/>
  </clipPath>
 </defs>
</svg>
