<?xml version="1.0" encoding="utf-8" standalone="no"?>
<!DOCTYPE svg PUBLIC "-//W3C//DTD SVG 1.1//EN"
  "http://www.w3.org/Graphics/SVG/1.1/DTD/svg11.dtd">
<svg xmlns:xlink="http://www.w3.org/1999/xlink" width="720pt" height="576pt" viewBox="0 0 720 576" xmlns="http://www.w3.org/2000/svg" version="1.1">
 <metadata>
  <rdf:RDF xmlns:dc="http://purl.org/dc/elements/1.1/" xmlns:cc="http://creativecommons.org/ns#" xmlns:rdf="http://www.w3.org/1999/02/22-rdf-syntax-ns#">
   <cc:Work>
    <dc:type rdf:resource="http://purl.org/dc/dcmitype/StillImage"/>
    <dc:date>2024-12-08T01:16:15.310984</dc:date>
    <dc:format>image/svg+xml</dc:format>
    <dc:creator>
     <cc:Agent>
      <dc:title>Matplotlib v3.8.4, https://matplotlib.org/</dc:title>
     </cc:Agent>
    </dc:creator>
   </cc:Work>
  </rdf:RDF>
 </metadata>
 <defs>
  <style type="text/css">*{stroke-linejoin: round; stroke-linecap: butt}</style>
 </defs>
 <g id="figure_1">
  <g id="patch_1">
   <path d="M 0 576 
L 720 576 
L 720 0 
L 0 0 
z
" style="fill: #ffffff"/>
  </g>
  <g id="axes_1">
   <g id="patch_2">
    <path d="M 102.17 499.48 
L 682.2 499.48 
L 682.2 32.04 
L 102.17 32.04 
z
" style="fill: #ffffff"/>
   </g>
   <g id="QuadContourSet_1">
    <path d="M 247.983716 387.039289 
L 249.362681 386.090765 
L 247.983716 384.740725 
L 246.444599 386.090765 
z
M 257.240603 381.655305 
L 259.995438 379.765295 
L 257.240603 374.950367 
L 253.558336 379.765295 
z
M 266.49749 375.582387 
L 269.625895 373.439824 
L 275.754377 368.962674 
L 278.455995 367.114354 
L 285.011264 361.703515 
L 286.348935 360.788884 
L 293.991344 354.463413 
L 294.268151 354.340202 
L 302.985393 348.137943 
L 303.525038 347.856679 
L 312.164019 341.812473 
L 312.781925 341.445759 
L 321.384882 335.487002 
L 322.038812 335.049592 
L 330.59026 329.161532 
L 331.295699 328.632217 
L 339.742612 322.836062 
L 340.552586 322.156772 
L 348.796918 316.510591 
L 349.809473 315.566006 
L 357.674754 310.185121 
L 359.06636 308.752793 
L 366.222589 303.859651 
L 368.323247 301.507607 
L 374.135835 297.534181 
L 377.580134 293.433709 
L 380.83531 291.20871 
L 386.787122 284.88324 
L 386.837021 284.842777 
L 395.878395 278.55777 
L 396.093908 278.365401 
L 404.960259 272.232299 
L 405.350795 271.852205 
L 413.966179 265.906829 
L 414.607682 265.235523 
L 422.810451 259.581359 
L 423.864569 258.417484 
L 431.359517 253.255888 
L 433.121456 251.240602 
L 439.387862 246.930418 
L 442.378343 243.412136 
L 446.466151 240.604948 
L 451.63523 234.279477 
L 451.63523 234.279477 
L 460.491411 227.954007 
L 460.892117 227.545086 
L 469.240331 221.628537 
L 470.149004 220.643565 
L 477.737849 215.303066 
L 479.405891 213.40442 
L 485.741677 208.977596 
L 488.662778 205.517751 
L 492.792408 202.652126 
L 497.919665 196.371736 
L 497.985007 196.326655 
L 506.259057 190.001185 
L 507.176552 189.118265 
L 514.549849 183.675715 
L 516.433439 181.776674 
L 522.543168 177.350244 
L 525.690326 174.119436 
L 530.023309 171.024774 
L 534.947213 166.047226 
L 536.858763 164.699304 
L 541.967785 158.373833 
L 534.947213 156.012545 
L 531.768095 158.373833 
L 525.690326 161.807977 
L 521.73995 164.699304 
L 516.433439 168.143536 
L 512.438277 171.024774 
L 507.176552 174.892637 
L 503.721402 177.350244 
L 497.919665 182.123641 
L 495.711224 183.675715 
L 488.687091 190.001185 
L 488.662778 190.013776 
L 479.897203 196.326655 
L 479.405891 196.610833 
L 470.84628 202.652126 
L 470.149004 203.096844 
L 461.702686 208.977596 
L 460.892117 209.546138 
L 452.555633 215.303066 
L 451.63523 216.013548 
L 443.471971 221.628537 
L 442.378343 222.557545 
L 434.528056 227.954007 
L 433.121456 229.263605 
L 425.841013 234.279477 
L 423.864569 236.275083 
L 417.608763 240.604948 
L 414.607682 243.832883 
L 410.160226 246.930418 
L 405.350795 252.323727 
L 404.020915 253.255888 
L 396.227932 259.581359 
L 396.093908 259.691414 
L 387.150633 265.906829 
L 386.837021 266.192657 
L 378.120901 272.232299 
L 377.580134 272.77925 
L 369.228827 278.55777 
L 368.323247 279.574432 
L 360.645507 284.88324 
L 359.06636 286.851663 
L 352.762841 291.20871 
L 349.809473 295.297403 
L 346.572669 297.534181 
L 340.678741 303.859651 
L 340.552586 303.973778 
L 331.672407 310.185121 
L 331.295699 310.568483 
L 322.726809 316.510591 
L 322.038812 317.300346 
L 314.013225 322.836062 
L 312.781925 324.433682 
L 305.904587 329.161532 
L 303.525038 332.655251 
L 299.397062 335.487002 
L 294.514891 341.812473 
L 294.268151 342.034811 
L 285.87836 348.137943 
L 285.011264 349.012141 
L 277.301468 354.463413 
L 275.754377 356.214002 
L 269.183366 360.788884 
L 266.49749 364.213848 
L 262.296097 367.114354 
L 259.147823 373.439824 
z
M 282.665482 354.463413 
L 285.011264 352.80481 
L 287.743542 354.463413 
L 285.011264 356.462184 
z
M 289.64022 348.137943 
L 294.268151 344.771367 
L 297.551779 341.812473 
L 303.525038 337.226962 
L 305.687717 335.487002 
L 312.781925 329.398964 
L 313.118789 329.161532 
L 318.041651 322.836062 
L 322.038812 320.078986 
L 325.14743 316.510591 
L 331.295699 312.247066 
L 333.321852 310.185121 
L 340.552586 305.127502 
L 341.954054 303.859651 
L 349.809473 298.287028 
L 350.743458 297.534181 
L 359.06636 291.490018 
L 359.458376 291.20871 
L 365.983041 284.88324 
L 368.323247 283.265094 
L 372.516239 278.55777 
L 377.580134 275.053909 
L 380.369844 272.232299 
L 386.837021 267.751012 
L 388.860469 265.906829 
L 396.093908 260.879719 
L 397.675032 259.581359 
L 405.350795 254.216125 
L 406.649771 253.255888 
L 414.607682 247.634855 
L 415.669115 246.930418 
L 423.864569 241.035463 
L 424.593083 240.604948 
L 433.121456 234.279477 
L 433.121456 234.279477 
L 439.915456 227.954007 
L 442.378343 226.260964 
L 447.831635 221.628537 
L 451.63523 219.012285 
L 456.440384 215.303066 
L 460.892117 212.228832 
L 465.527393 208.977596 
L 470.149004 205.759798 
L 475.021539 202.652126 
L 479.405891 199.557691 
L 484.809011 202.652126 
L 479.405891 207.421485 
L 477.361027 208.977596 
L 471.821779 215.303066 
L 470.149004 216.480248 
L 465.399515 221.628537 
L 460.892117 224.823021 
L 457.82403 227.954007 
L 451.63523 232.374317 
L 449.627196 234.279477 
L 442.378343 239.515216 
L 441.127997 240.604948 
L 433.121456 246.504928 
L 432.583859 246.930418 
L 425.588967 253.255888 
L 423.864569 254.44344 
L 419.211171 259.581359 
L 414.607682 262.754541 
L 411.595341 265.906829 
L 405.350795 270.216117 
L 403.279226 272.232299 
L 396.093908 277.202584 
L 394.575674 278.55777 
L 386.837021 283.937205 
L 385.670361 284.88324 
L 377.580134 290.55939 
L 376.691561 291.20871 
L 368.323247 297.176846 
L 367.774495 297.534181 
L 359.560906 303.859651 
L 359.06636 304.197801 
L 353.249263 310.185121 
L 349.809473 312.538389 
L 345.551444 316.510591 
L 340.552586 319.93409 
L 337.092322 322.836062 
L 331.295699 326.813625 
L 328.166548 329.161532 
L 322.038812 333.380757 
L 318.889965 335.487002 
L 312.781925 339.717678 
L 309.252233 341.812473 
L 303.525038 345.819467 
L 299.076709 348.137943 
L 294.268151 351.559199 
z
M 484.992009 196.326655 
L 488.662778 193.683004 
L 492.544342 196.326655 
L 488.662778 199.428104 
z
M 495.772436 190.001185 
L 497.919665 188.412913 
L 499.859166 190.001185 
L 497.919665 191.474836 
z
M 544.2041 154.503224 
L 545.743449 152.048363 
L 544.2041 151.299654 
L 543.209796 152.048363 
z
" clip-path="url(#pe05d1bb09b)" style="fill: #ecf4fb"/>
    <path d="M 285.011264 356.462184 
L 287.743542 354.463413 
L 285.011264 352.80481 
L 282.665482 354.463413 
z
M 294.268151 351.559199 
L 299.076709 348.137943 
L 303.525038 345.819467 
L 309.252233 341.812473 
L 312.781925 339.717678 
L 318.889965 335.487002 
L 322.038812 333.380757 
L 328.166548 329.161532 
L 331.295699 326.813625 
L 337.092322 322.836062 
L 340.552586 319.93409 
L 345.551444 316.510591 
L 349.809473 312.538389 
L 353.249263 310.185121 
L 359.06636 304.197801 
L 359.560906 303.859651 
L 367.774495 297.534181 
L 368.323247 297.176846 
L 376.691561 291.20871 
L 377.580134 290.55939 
L 385.670361 284.88324 
L 386.837021 283.937205 
L 394.575674 278.55777 
L 396.093908 277.202584 
L 403.279226 272.232299 
L 405.350795 270.216117 
L 411.595341 265.906829 
L 414.607682 262.754541 
L 419.211171 259.581359 
L 423.864569 254.44344 
L 425.588967 253.255888 
L 432.583859 246.930418 
L 433.121456 246.504928 
L 441.127997 240.604948 
L 442.378343 239.515216 
L 449.627196 234.279477 
L 451.63523 232.374317 
L 457.82403 227.954007 
L 460.892117 224.823021 
L 465.399515 221.628537 
L 470.149004 216.480248 
L 471.821779 215.303066 
L 477.361027 208.977596 
L 479.405891 207.421485 
L 484.809011 202.652126 
L 479.405891 199.557691 
L 475.021539 202.652126 
L 470.149004 205.759798 
L 465.527393 208.977596 
L 460.892117 212.228832 
L 456.440384 215.303066 
L 451.63523 219.012285 
L 447.831635 221.628537 
L 442.378343 226.260964 
L 439.915456 227.954007 
L 433.121456 234.279477 
L 433.121456 234.279477 
L 424.593083 240.604948 
L 423.864569 241.035463 
L 415.669115 246.930418 
L 414.607682 247.634855 
L 406.649771 253.255888 
L 405.350795 254.216125 
L 397.675032 259.581359 
L 396.093908 260.879719 
L 388.860469 265.906829 
L 386.837021 267.751012 
L 380.369844 272.232299 
L 377.580134 275.053909 
L 372.516239 278.55777 
L 368.323247 283.265094 
L 365.983041 284.88324 
L 359.458376 291.20871 
L 359.06636 291.490018 
L 350.743458 297.534181 
L 349.809473 298.287028 
L 341.954054 303.859651 
L 340.552586 305.127502 
L 333.321852 310.185121 
L 331.295699 312.247066 
L 325.14743 316.510591 
L 322.038812 320.078986 
L 318.041651 322.836062 
L 313.118789 329.161532 
L 312.781925 329.398964 
L 305.687717 335.487002 
L 303.525038 337.226962 
L 297.551779 341.812473 
L 294.268151 344.771367 
L 289.64022 348.137943 
z
M 293.372884 348.137943 
L 294.268151 347.486684 
L 295.19836 348.137943 
L 294.268151 348.79978 
z
M 300.565098 341.812473 
L 303.525038 339.540206 
L 306.363045 341.812473 
L 303.525038 343.798066 
z
M 308.562959 335.487002 
L 312.781925 331.866411 
L 316.414411 335.487002 
L 312.781925 338.003009 
z
M 316.619556 329.161532 
L 322.038812 322.836062 
L 322.038812 322.836062 
L 327.549264 316.510591 
L 331.295699 313.912621 
L 334.958496 310.185121 
L 340.552586 306.272271 
L 343.219469 303.859651 
L 349.809473 299.184711 
L 351.857126 297.534181 
L 359.06636 292.298774 
L 360.585414 291.20871 
L 368.323247 285.358796 
L 369.076477 284.88324 
L 375.778137 278.55777 
L 377.580134 277.310914 
L 382.601333 272.232299 
L 386.837021 269.297272 
L 390.557034 265.906829 
L 396.093908 262.058802 
L 399.1109 259.581359 
L 405.350795 255.219774 
L 408.007472 253.255888 
L 414.607682 248.593861 
L 417.114128 246.930418 
L 423.864569 242.074855 
L 426.35193 240.604948 
L 433.121456 235.584009 
L 435.665842 234.279477 
L 442.378343 229.027554 
L 445.037033 227.954007 
L 451.63523 222.151918 
L 455.17735 227.954007 
L 451.63523 230.483943 
L 447.634747 234.279477 
L 442.378343 238.076099 
L 439.47677 240.604948 
L 433.121456 245.288147 
L 431.046484 246.930418 
L 423.864569 252.432769 
L 422.701103 253.255888 
L 415.639825 259.581359 
L 414.607682 260.292814 
L 409.242903 265.906829 
L 405.350795 268.592727 
L 401.61124 272.232299 
L 396.093908 276.048792 
L 393.283063 278.55777 
L 386.837021 283.038662 
L 384.562267 284.88324 
L 377.580134 289.781945 
L 375.627653 291.20871 
L 368.323247 296.418086 
L 366.609279 297.534181 
L 359.06636 303.068661 
L 357.669922 303.859651 
L 349.809473 309.932481 
L 349.257696 310.185121 
L 342.331159 316.510591 
L 340.552586 317.728658 
L 334.462601 322.836062 
L 331.295699 325.009147 
L 325.761646 329.161532 
L 322.038812 331.724873 
z
M 455.317921 221.628537 
L 460.294986 215.303066 
L 460.892117 214.890705 
L 462.540507 215.303066 
L 461.588507 221.628537 
L 460.892117 222.122082 
z
M 469.322416 208.977596 
L 470.149004 208.402084 
L 471.438895 208.977596 
L 470.149004 210.454518 
z
M 479.164393 202.652126 
L 479.405891 202.481679 
L 479.703504 202.652126 
L 479.405891 202.91483 
z
M 488.662778 199.428104 
L 492.544342 196.326655 
L 488.662778 193.683004 
L 484.992009 196.326655 
z
M 497.919665 191.474836 
L 499.859166 190.001185 
L 497.919665 188.412913 
L 495.772436 190.001185 
z
" clip-path="url(#pe05d1bb09b)" style="fill: #d6e5f4"/>
    <path d="M 294.268151 348.79978 
L 295.19836 348.137943 
L 294.268151 347.486684 
L 293.372884 348.137943 
z
M 303.525038 343.798066 
L 306.363045 341.812473 
L 303.525038 339.540206 
L 300.565098 341.812473 
z
M 302.22977 341.812473 
L 303.525038 340.81813 
L 304.766948 341.812473 
L 303.525038 342.681367 
z
M 312.781925 338.003009 
L 316.414411 335.487002 
L 312.781925 331.866411 
L 308.562959 335.487002 
z
M 310.151353 335.487002 
L 312.781925 333.229523 
L 315.046821 335.487002 
L 312.781925 337.055761 
z
M 322.038812 331.724873 
L 325.761646 329.161532 
L 331.295699 325.009147 
L 334.462601 322.836062 
L 340.552586 317.728658 
L 342.331159 316.510591 
L 349.257696 310.185121 
L 349.809473 309.932481 
L 357.669922 303.859651 
L 359.06636 303.068661 
L 366.609279 297.534181 
L 368.323247 296.418086 
L 375.627653 291.20871 
L 377.580134 289.781945 
L 384.562267 284.88324 
L 386.837021 283.038662 
L 393.283063 278.55777 
L 396.093908 276.048792 
L 401.61124 272.232299 
L 405.350795 268.592727 
L 409.242903 265.906829 
L 414.607682 260.292814 
L 415.639825 259.581359 
L 422.701103 253.255888 
L 423.864569 252.432769 
L 431.046484 246.930418 
L 433.121456 245.288147 
L 439.47677 240.604948 
L 442.378343 238.076099 
L 447.634747 234.279477 
L 451.63523 230.483943 
L 455.17735 227.954007 
L 451.63523 222.151918 
L 445.037033 227.954007 
L 442.378343 229.027554 
L 435.665842 234.279477 
L 433.121456 235.584009 
L 426.35193 240.604948 
L 423.864569 242.074855 
L 417.114128 246.930418 
L 414.607682 248.593861 
L 408.007472 253.255888 
L 405.350795 255.219774 
L 399.1109 259.581359 
L 396.093908 262.058802 
L 390.557034 265.906829 
L 386.837021 269.297272 
L 382.601333 272.232299 
L 377.580134 277.310914 
L 375.778137 278.55777 
L 369.076477 284.88324 
L 368.323247 285.358796 
L 360.585414 291.20871 
L 359.06636 292.298774 
L 351.857126 297.534181 
L 349.809473 299.184711 
L 343.219469 303.859651 
L 340.552586 306.272271 
L 334.958496 310.185121 
L 331.295699 313.912621 
L 327.549264 316.510591 
L 322.038812 322.836062 
L 322.038812 322.836062 
L 316.619556 329.161532 
z
M 318.553514 329.161532 
L 322.038812 325.093418 
L 324.433087 329.161532 
L 322.038812 330.810099 
z
M 326.285238 322.836062 
L 328.876129 316.510591 
L 331.295699 314.832737 
L 335.86264 310.185121 
L 340.552586 306.904685 
L 343.918532 303.859651 
L 349.809473 299.680626 
L 352.472359 297.534181 
L 359.06636 292.745561 
L 361.208032 291.20871 
L 368.323247 285.829505 
L 369.822029 284.88324 
L 377.580134 278.55777 
L 377.580134 278.55777 
L 383.834092 272.232299 
L 386.837021 270.151486 
L 391.494282 265.906829 
L 396.093908 262.710172 
L 399.904129 259.581359 
L 405.350795 255.774228 
L 408.757518 253.255888 
L 414.607682 249.123653 
L 417.912408 246.930418 
L 423.864569 242.649054 
L 427.323584 240.604948 
L 433.121456 236.304682 
L 437.071457 234.279477 
L 442.378343 230.127321 
L 446.534042 234.279477 
L 442.378343 237.281077 
L 438.564569 240.604948 
L 433.121456 244.615951 
L 430.19718 246.930418 
L 423.864569 251.782083 
L 421.781369 253.255888 
L 414.607682 259.216919 
L 414.006568 259.581359 
L 407.943327 265.906829 
L 405.350795 267.695905 
L 400.689782 272.232299 
L 396.093908 275.411393 
L 392.568975 278.55777 
L 386.837021 282.542272 
L 383.950113 284.88324 
L 377.580134 289.352454 
L 375.03991 291.20871 
L 368.323247 295.998917 
L 365.96557 297.534181 
L 359.06636 302.596351 
L 356.836091 303.859651 
L 349.809473 309.288279 
L 347.850733 310.185121 
L 340.552586 316.510293 
L 340.551344 316.510591 
L 333.009843 322.836062 
L 331.295699 324.012284 
z
M 447.760656 227.954007 
L 451.63523 224.546922 
L 453.715223 227.954007 
L 451.63523 229.439629 
z
M 460.892117 222.122082 
L 461.588507 221.628537 
L 462.540507 215.303066 
L 460.892117 214.890705 
L 460.294986 215.303066 
L 455.317921 221.628537 
z
M 470.149004 210.454518 
L 471.438895 208.977596 
L 470.149004 208.402084 
L 469.322416 208.977596 
z
M 479.405891 202.91483 
L 479.703504 202.652126 
L 479.405891 202.481679 
L 479.164393 202.652126 
z
" clip-path="url(#pe05d1bb09b)" style="fill: #c4daee"/>
    <path d="M 303.525038 342.681367 
L 304.766948 341.812473 
L 303.525038 340.81813 
L 302.22977 341.812473 
z
M 312.781925 337.055761 
L 315.046821 335.487002 
L 312.781925 333.229523 
L 310.151353 335.487002 
z
M 322.038812 330.810099 
L 324.433087 329.161532 
L 322.038812 325.093418 
L 318.553514 329.161532 
z
M 331.295699 324.012284 
L 333.009843 322.836062 
L 340.551344 316.510591 
L 340.552586 316.510293 
L 347.850733 310.185121 
L 349.809473 309.288279 
L 356.836091 303.859651 
L 359.06636 302.596351 
L 365.96557 297.534181 
L 368.323247 295.998917 
L 375.03991 291.20871 
L 377.580134 289.352454 
L 383.950113 284.88324 
L 386.837021 282.542272 
L 392.568975 278.55777 
L 396.093908 275.411393 
L 400.689782 272.232299 
L 405.350795 267.695905 
L 407.943327 265.906829 
L 414.006568 259.581359 
L 414.607682 259.216919 
L 421.781369 253.255888 
L 423.864569 251.782083 
L 430.19718 246.930418 
L 433.121456 244.615951 
L 438.564569 240.604948 
L 442.378343 237.281077 
L 446.534042 234.279477 
L 442.378343 230.127321 
L 437.071457 234.279477 
L 433.121456 236.304682 
L 427.323584 240.604948 
L 423.864569 242.649054 
L 417.912408 246.930418 
L 414.607682 249.123653 
L 408.757518 253.255888 
L 405.350795 255.774228 
L 399.904129 259.581359 
L 396.093908 262.710172 
L 391.494282 265.906829 
L 386.837021 270.151486 
L 383.834092 272.232299 
L 377.580134 278.55777 
L 377.580134 278.55777 
L 369.822029 284.88324 
L 368.323247 285.829505 
L 361.208032 291.20871 
L 359.06636 292.745561 
L 352.472359 297.534181 
L 349.809473 299.680626 
L 343.918532 303.859651 
L 340.552586 306.904685 
L 335.86264 310.185121 
L 331.295699 314.832737 
L 328.876129 316.510591 
L 326.285238 322.836062 
z
M 337.51137 310.185121 
L 340.552586 308.057908 
L 345.193291 303.859651 
L 349.809473 300.584938 
L 353.594251 297.534181 
L 359.06636 293.560289 
L 362.343393 291.20871 
L 368.323247 286.687854 
L 371.181561 284.88324 
L 377.580134 279.666247 
L 379.683066 278.55777 
L 386.082058 272.232299 
L 386.837021 271.709165 
L 393.203375 265.906829 
L 396.093908 263.897961 
L 401.3506 259.581359 
L 405.350795 256.785288 
L 410.125246 253.255888 
L 414.607682 250.08974 
L 419.368091 246.930418 
L 423.864569 243.696121 
L 428.648452 246.930418 
L 423.864569 250.595541 
L 420.104211 253.255888 
L 414.607682 257.823272 
L 411.707853 259.581359 
L 405.573517 265.906829 
L 405.350795 266.060527 
L 399.009479 272.232299 
L 396.093908 274.249081 
L 391.266819 278.55777 
L 386.837021 281.637093 
L 382.833837 284.88324 
L 377.580134 288.569268 
L 373.968146 291.20871 
L 368.323247 295.234554 
L 364.79175 297.534181 
L 359.06636 301.735082 
L 355.315579 303.859651 
L 349.809473 308.113561 
L 345.285102 310.185121 
L 340.552586 314.286707 
z
M 429.095419 240.604948 
L 433.121456 237.618847 
L 436.901149 240.604948 
L 433.121456 243.390185 
z
M 439.634632 234.279477 
L 442.378343 232.132772 
L 444.526879 234.279477 
L 442.378343 235.831333 
z
M 451.63523 229.439629 
L 453.715223 227.954007 
L 451.63523 224.546922 
L 447.760656 227.954007 
z
" clip-path="url(#pe05d1bb09b)" style="fill: #a8cee4"/>
    <path d="M 340.552586 314.286707 
L 345.285102 310.185121 
L 349.809473 308.113561 
L 355.315579 303.859651 
L 359.06636 301.735082 
L 364.79175 297.534181 
L 368.323247 295.234554 
L 373.968146 291.20871 
L 377.580134 288.569268 
L 382.833837 284.88324 
L 386.837021 281.637093 
L 391.266819 278.55777 
L 396.093908 274.249081 
L 399.009479 272.232299 
L 405.350795 266.060527 
L 405.573517 265.906829 
L 411.707853 259.581359 
L 414.607682 257.823272 
L 420.104211 253.255888 
L 423.864569 250.595541 
L 428.648452 246.930418 
L 423.864569 243.696121 
L 419.368091 246.930418 
L 414.607682 250.08974 
L 410.125246 253.255888 
L 405.350795 256.785288 
L 401.3506 259.581359 
L 396.093908 263.897961 
L 393.203375 265.906829 
L 386.837021 271.709165 
L 386.082058 272.232299 
L 379.683066 278.55777 
L 377.580134 279.666247 
L 371.181561 284.88324 
L 368.323247 286.687854 
L 362.343393 291.20871 
L 359.06636 293.560289 
L 353.594251 297.534181 
L 349.809473 300.584938 
L 345.193291 303.859651 
L 340.552586 308.057908 
L 337.51137 310.185121 
z
M 340.29981 310.185121 
L 340.552586 310.008314 
L 340.945937 310.185121 
L 340.552586 310.526031 
z
M 347.349248 303.859651 
L 349.809473 302.114371 
L 352.743989 303.859651 
L 349.809473 306.126801 
z
M 355.49167 297.534181 
L 359.06636 294.93821 
L 362.806508 297.534181 
L 359.06636 300.278446 
z
M 364.263589 291.20871 
L 368.323247 288.13955 
L 372.155507 291.20871 
L 368.323247 293.941811 
z
M 373.480892 284.88324 
L 377.580134 281.540976 
L 380.945915 284.88324 
L 377.580134 287.244692 
z
M 383.239685 278.55777 
L 386.837021 275.028629 
L 389.064526 278.55777 
L 386.837021 280.106194 
z
M 395.803629 272.232299 
L 396.093908 265.906829 
L 396.167639 272.232299 
L 396.093908 272.283301 
z
M 403.796969 259.581359 
L 405.350795 258.495259 
L 407.820116 259.581359 
L 405.350795 262.124848 
z
M 412.438437 253.255888 
L 414.607682 251.723652 
L 417.267691 253.255888 
L 414.607682 255.466243 
z
M 421.830039 246.930418 
L 423.864569 245.466989 
L 426.029142 246.930418 
L 423.864569 248.588783 
z
M 433.121456 243.390185 
L 436.901149 240.604948 
L 433.121456 237.618847 
L 429.095419 240.604948 
z
M 432.092063 240.604948 
L 433.121456 239.84145 
L 434.087862 240.604948 
L 433.121456 241.317088 
z
M 442.378343 235.831333 
L 444.526879 234.279477 
L 442.378343 232.132772 
L 439.634632 234.279477 
z
" clip-path="url(#pe05d1bb09b)" style="fill: #6caed6"/>
    <path d="M 340.552586 310.526031 
L 340.945937 310.185121 
L 340.552586 310.008314 
L 340.29981 310.185121 
z
M 349.809473 306.126801 
L 352.743989 303.859651 
L 349.809473 302.114371 
L 347.349248 303.859651 
z
M 348.718618 303.859651 
L 349.809473 303.0858 
L 351.110628 303.859651 
L 349.809473 304.864898 
z
M 359.06636 300.278446 
L 362.806508 297.534181 
L 359.06636 294.93821 
L 355.49167 297.534181 
z
M 356.696827 297.534181 
L 359.06636 295.813406 
L 361.545569 297.534181 
L 359.06636 299.353255 
z
M 368.323247 293.941811 
L 372.155507 291.20871 
L 368.323247 288.13955 
L 364.263589 291.20871 
z
M 365.483214 291.20871 
L 368.323247 289.061604 
L 371.004198 291.20871 
L 368.323247 293.120718 
z
M 377.580134 287.244692 
L 380.945915 284.88324 
L 377.580134 281.540976 
L 373.480892 284.88324 
z
M 374.941327 284.88324 
L 377.580134 282.731723 
L 379.74679 284.88324 
L 377.580134 286.403379 
z
M 386.837021 280.106194 
L 389.064526 278.55777 
L 386.837021 275.028629 
L 383.239685 278.55777 
z
M 385.498694 278.55777 
L 386.837021 277.244813 
L 387.665726 278.55777 
L 386.837021 279.133834 
z
M 396.093908 272.283301 
L 396.167639 272.232299 
L 396.093908 265.906829 
L 395.803629 272.232299 
z
M 405.350795 262.124848 
L 407.820116 259.581359 
L 405.350795 258.495259 
L 403.796969 259.581359 
z
M 414.607682 255.466243 
L 417.267691 253.255888 
L 414.607682 251.723652 
L 412.438437 253.255888 
z
M 413.907675 253.255888 
L 414.607682 252.761441 
L 415.466057 253.255888 
L 414.607682 253.969161 
z
M 423.864569 248.588783 
L 426.029142 246.930418 
L 423.864569 245.466989 
L 421.830039 246.930418 
z
M 423.393761 246.930418 
L 423.864569 246.591767 
L 424.36547 246.930418 
L 423.864569 247.314178 
z
M 433.121456 241.317088 
L 434.087862 240.604948 
L 433.121456 239.84145 
L 432.092063 240.604948 
z
" clip-path="url(#pe05d1bb09b)" style="fill: #3a8ac2"/>
    <path d="M 349.809473 304.864898 
L 351.110628 303.859651 
L 349.809473 303.0858 
L 348.718618 303.859651 
z
M 349.529887 303.859651 
L 349.809473 303.661313 
L 350.142959 303.859651 
L 349.809473 304.117296 
z
M 359.06636 299.353255 
L 361.545569 297.534181 
L 359.06636 295.813406 
L 356.696827 297.534181 
z
M 357.41081 297.534181 
L 359.06636 296.331906 
L 360.798538 297.534181 
L 359.06636 298.805135 
z
M 368.323247 293.120718 
L 371.004198 291.20871 
L 368.323247 289.061604 
L 365.483214 291.20871 
z
M 366.205769 291.20871 
L 368.323247 289.607866 
L 370.322117 291.20871 
L 368.323247 292.634269 
z
M 377.580134 286.403379 
L 379.74679 284.88324 
L 377.580134 282.731723 
L 374.941327 284.88324 
z
M 375.806546 284.88324 
L 377.580134 283.437168 
L 379.036381 284.88324 
L 377.580134 285.904951 
z
M 386.837021 279.133834 
L 387.665726 278.55777 
L 386.837021 277.244813 
L 385.498694 278.55777 
z
M 414.607682 253.969161 
L 415.466057 253.255888 
L 414.607682 252.761441 
L 413.907675 253.255888 
z
M 423.864569 247.314178 
L 424.36547 246.930418 
L 423.864569 246.591767 
L 423.393761 246.930418 
z
" clip-path="url(#pe05d1bb09b)" style="fill: #2070b4"/>
    <path d="M 349.809473 304.117296 
L 350.142959 303.859651 
L 349.809473 303.661313 
L 349.529887 303.859651 
z
M 359.06636 298.805135 
L 360.798538 297.534181 
L 359.06636 296.331906 
L 357.41081 297.534181 
z
M 358.874383 297.534181 
L 359.06636 297.394765 
L 359.267223 297.534181 
L 359.06636 297.68156 
z
M 368.323247 292.634269 
L 370.322117 291.20871 
L 368.323247 289.607866 
L 366.205769 291.20871 
z
M 367.686911 291.20871 
L 368.323247 290.727631 
L 368.923939 291.20871 
L 368.323247 291.637113 
z
M 377.580134 285.904951 
L 379.036381 284.88324 
L 377.580134 283.437168 
L 375.806546 284.88324 
z
" clip-path="url(#pe05d1bb09b)" style="fill: #0a549e"/>
    <path d="M 359.06636 297.68156 
L 359.267223 297.534181 
L 359.06636 297.394765 
L 358.874383 297.534181 
z
M 368.323247 291.637113 
L 368.923939 291.20871 
L 368.323247 290.727631 
L 367.686911 291.20871 
z
" clip-path="url(#pe05d1bb09b)" style="fill: #083877"/>
   </g>
   <g id="matplotlib.axis_1">
    <g id="xtick_1">
     <g id="line2d_1">
      <defs>
       <path id="m332fa827aa" d="M 0 0 
L 0 3.5 
" style="stroke: #000000; stroke-width: 0.8"/>
      </defs>
      <g>
       <use xlink:href="#m332fa827aa" x="102.17" y="499.48" style="stroke: #000000; stroke-width: 0.8"/>
      </g>
     </g>
     <g id="text_1">
      <!-- −80 -->
      <g transform="translate(78.954844 523.196563) scale(0.22 -0.22)">
       <defs>
        <path id="DejaVuSans-2212" d="M 678 2272 
L 4684 2272 
L 4684 1741 
L 678 1741 
L 678 2272 
z
" transform="scale(0.015625)"/>
        <path id="DejaVuSans-38" d="M 2034 2216 
Q 1584 2216 1326 1975 
Q 1069 1734 1069 1313 
Q 1069 891 1326 650 
Q 1584 409 2034 409 
Q 2484 409 2743 651 
Q 3003 894 3003 1313 
Q 3003 1734 2745 1975 
Q 2488 2216 2034 2216 
z
M 1403 2484 
Q 997 2584 770 2862 
Q 544 3141 544 3541 
Q 544 4100 942 4425 
Q 1341 4750 2034 4750 
Q 2731 4750 3128 4425 
Q 3525 4100 3525 3541 
Q 3525 3141 3298 2862 
Q 3072 2584 2669 2484 
Q 3125 2378 3379 2068 
Q 3634 1759 3634 1313 
Q 3634 634 3220 271 
Q 2806 -91 2034 -91 
Q 1263 -91 848 271 
Q 434 634 434 1313 
Q 434 1759 690 2068 
Q 947 2378 1403 2484 
z
M 1172 3481 
Q 1172 3119 1398 2916 
Q 1625 2713 2034 2713 
Q 2441 2713 2670 2916 
Q 2900 3119 2900 3481 
Q 2900 3844 2670 4047 
Q 2441 4250 2034 4250 
Q 1625 4250 1398 4047 
Q 1172 3844 1172 3481 
z
" transform="scale(0.015625)"/>
        <path id="DejaVuSans-30" d="M 2034 4250 
Q 1547 4250 1301 3770 
Q 1056 3291 1056 2328 
Q 1056 1369 1301 889 
Q 1547 409 2034 409 
Q 2525 409 2770 889 
Q 3016 1369 3016 2328 
Q 3016 3291 2770 3770 
Q 2525 4250 2034 4250 
z
M 2034 4750 
Q 2819 4750 3233 4129 
Q 3647 3509 3647 2328 
Q 3647 1150 3233 529 
Q 2819 -91 2034 -91 
Q 1250 -91 836 529 
Q 422 1150 422 2328 
Q 422 3509 836 4129 
Q 1250 4750 2034 4750 
z
" transform="scale(0.015625)"/>
       </defs>
       <use xlink:href="#DejaVuSans-2212"/>
       <use xlink:href="#DejaVuSans-38" x="83.789062"/>
       <use xlink:href="#DejaVuSans-30" x="147.412109"/>
      </g>
     </g>
    </g>
    <g id="xtick_2">
     <g id="line2d_2">
      <g>
       <use xlink:href="#m332fa827aa" x="174.67375" y="499.48" style="stroke: #000000; stroke-width: 0.8"/>
      </g>
     </g>
     <g id="text_2">
      <!-- −60 -->
      <g transform="translate(151.458594 523.196563) scale(0.22 -0.22)">
       <defs>
        <path id="DejaVuSans-36" d="M 2113 2584 
Q 1688 2584 1439 2293 
Q 1191 2003 1191 1497 
Q 1191 994 1439 701 
Q 1688 409 2113 409 
Q 2538 409 2786 701 
Q 3034 994 3034 1497 
Q 3034 2003 2786 2293 
Q 2538 2584 2113 2584 
z
M 3366 4563 
L 3366 3988 
Q 3128 4100 2886 4159 
Q 2644 4219 2406 4219 
Q 1781 4219 1451 3797 
Q 1122 3375 1075 2522 
Q 1259 2794 1537 2939 
Q 1816 3084 2150 3084 
Q 2853 3084 3261 2657 
Q 3669 2231 3669 1497 
Q 3669 778 3244 343 
Q 2819 -91 2113 -91 
Q 1303 -91 875 529 
Q 447 1150 447 2328 
Q 447 3434 972 4092 
Q 1497 4750 2381 4750 
Q 2619 4750 2861 4703 
Q 3103 4656 3366 4563 
z
" transform="scale(0.015625)"/>
       </defs>
       <use xlink:href="#DejaVuSans-2212"/>
       <use xlink:href="#DejaVuSans-36" x="83.789062"/>
       <use xlink:href="#DejaVuSans-30" x="147.412109"/>
      </g>
     </g>
    </g>
    <g id="xtick_3">
     <g id="line2d_3">
      <g>
       <use xlink:href="#m332fa827aa" x="247.1775" y="499.48" style="stroke: #000000; stroke-width: 0.8"/>
      </g>
     </g>
     <g id="text_3">
      <!-- −40 -->
      <g transform="translate(223.962344 523.196563) scale(0.22 -0.22)">
       <defs>
        <path id="DejaVuSans-34" d="M 2419 4116 
L 825 1625 
L 2419 1625 
L 2419 4116 
z
M 2253 4666 
L 3047 4666 
L 3047 1625 
L 3713 1625 
L 3713 1100 
L 3047 1100 
L 3047 0 
L 2419 0 
L 2419 1100 
L 313 1100 
L 313 1709 
L 2253 4666 
z
" transform="scale(0.015625)"/>
       </defs>
       <use xlink:href="#DejaVuSans-2212"/>
       <use xlink:href="#DejaVuSans-34" x="83.789062"/>
       <use xlink:href="#DejaVuSans-30" x="147.412109"/>
      </g>
     </g>
    </g>
    <g id="xtick_4">
     <g id="line2d_4">
      <g>
       <use xlink:href="#m332fa827aa" x="319.68125" y="499.48" style="stroke: #000000; stroke-width: 0.8"/>
      </g>
     </g>
     <g id="text_4">
      <!-- −20 -->
      <g transform="translate(296.466094 523.196563) scale(0.22 -0.22)">
       <defs>
        <path id="DejaVuSans-32" d="M 1228 531 
L 3431 531 
L 3431 0 
L 469 0 
L 469 531 
Q 828 903 1448 1529 
Q 2069 2156 2228 2338 
Q 2531 2678 2651 2914 
Q 2772 3150 2772 3378 
Q 2772 3750 2511 3984 
Q 2250 4219 1831 4219 
Q 1534 4219 1204 4116 
Q 875 4013 500 3803 
L 500 4441 
Q 881 4594 1212 4672 
Q 1544 4750 1819 4750 
Q 2544 4750 2975 4387 
Q 3406 4025 3406 3419 
Q 3406 3131 3298 2873 
Q 3191 2616 2906 2266 
Q 2828 2175 2409 1742 
Q 1991 1309 1228 531 
z
" transform="scale(0.015625)"/>
       </defs>
       <use xlink:href="#DejaVuSans-2212"/>
       <use xlink:href="#DejaVuSans-32" x="83.789062"/>
       <use xlink:href="#DejaVuSans-30" x="147.412109"/>
      </g>
     </g>
    </g>
    <g id="xtick_5">
     <g id="line2d_5">
      <g>
       <use xlink:href="#m332fa827aa" x="392.185" y="499.48" style="stroke: #000000; stroke-width: 0.8"/>
      </g>
     </g>
     <g id="text_5">
      <!-- 0 -->
      <g transform="translate(385.18625 523.196563) scale(0.22 -0.22)">
       <use xlink:href="#DejaVuSans-30"/>
      </g>
     </g>
    </g>
    <g id="xtick_6">
     <g id="line2d_6">
      <g>
       <use xlink:href="#m332fa827aa" x="464.68875" y="499.48" style="stroke: #000000; stroke-width: 0.8"/>
      </g>
     </g>
     <g id="text_6">
      <!-- 20 -->
      <g transform="translate(450.69125 523.196563) scale(0.22 -0.22)">
       <use xlink:href="#DejaVuSans-32"/>
       <use xlink:href="#DejaVuSans-30" x="63.623047"/>
      </g>
     </g>
    </g>
    <g id="xtick_7">
     <g id="line2d_7">
      <g>
       <use xlink:href="#m332fa827aa" x="537.1925" y="499.48" style="stroke: #000000; stroke-width: 0.8"/>
      </g>
     </g>
     <g id="text_7">
      <!-- 40 -->
      <g transform="translate(523.195 523.196563) scale(0.22 -0.22)">
       <use xlink:href="#DejaVuSans-34"/>
       <use xlink:href="#DejaVuSans-30" x="63.623047"/>
      </g>
     </g>
    </g>
    <g id="xtick_8">
     <g id="line2d_8">
      <g>
       <use xlink:href="#m332fa827aa" x="609.69625" y="499.48" style="stroke: #000000; stroke-width: 0.8"/>
      </g>
     </g>
     <g id="text_8">
      <!-- 60 -->
      <g transform="translate(595.69875 523.196563) scale(0.22 -0.22)">
       <use xlink:href="#DejaVuSans-36"/>
       <use xlink:href="#DejaVuSans-30" x="63.623047"/>
      </g>
     </g>
    </g>
    <g id="xtick_9">
     <g id="line2d_9">
      <g>
       <use xlink:href="#m332fa827aa" x="682.2" y="499.48" style="stroke: #000000; stroke-width: 0.8"/>
      </g>
     </g>
     <g id="text_9">
      <!-- 80 -->
      <g transform="translate(668.2025 523.196563) scale(0.22 -0.22)">
       <use xlink:href="#DejaVuSans-38"/>
       <use xlink:href="#DejaVuSans-30" x="63.623047"/>
      </g>
     </g>
    </g>
    <g id="text_10">
     <!-- Ground Truth Energy [kJ/mol] -->
     <g transform="translate(232.45125 548.488438) scale(0.22 -0.22)">
      <defs>
       <path id="DejaVuSans-47" d="M 3809 666 
L 3809 1919 
L 2778 1919 
L 2778 2438 
L 4434 2438 
L 4434 434 
Q 4069 175 3628 42 
Q 3188 -91 2688 -91 
Q 1594 -91 976 548 
Q 359 1188 359 2328 
Q 359 3472 976 4111 
Q 1594 4750 2688 4750 
Q 3144 4750 3555 4637 
Q 3966 4525 4313 4306 
L 4313 3634 
Q 3963 3931 3569 4081 
Q 3175 4231 2741 4231 
Q 1884 4231 1454 3753 
Q 1025 3275 1025 2328 
Q 1025 1384 1454 906 
Q 1884 428 2741 428 
Q 3075 428 3337 486 
Q 3600 544 3809 666 
z
" transform="scale(0.015625)"/>
       <path id="DejaVuSans-72" d="M 2631 2963 
Q 2534 3019 2420 3045 
Q 2306 3072 2169 3072 
Q 1681 3072 1420 2755 
Q 1159 2438 1159 1844 
L 1159 0 
L 581 0 
L 581 3500 
L 1159 3500 
L 1159 2956 
Q 1341 3275 1631 3429 
Q 1922 3584 2338 3584 
Q 2397 3584 2469 3576 
Q 2541 3569 2628 3553 
L 2631 2963 
z
" transform="scale(0.015625)"/>
       <path id="DejaVuSans-6f" d="M 1959 3097 
Q 1497 3097 1228 2736 
Q 959 2375 959 1747 
Q 959 1119 1226 758 
Q 1494 397 1959 397 
Q 2419 397 2687 759 
Q 2956 1122 2956 1747 
Q 2956 2369 2687 2733 
Q 2419 3097 1959 3097 
z
M 1959 3584 
Q 2709 3584 3137 3096 
Q 3566 2609 3566 1747 
Q 3566 888 3137 398 
Q 2709 -91 1959 -91 
Q 1206 -91 779 398 
Q 353 888 353 1747 
Q 353 2609 779 3096 
Q 1206 3584 1959 3584 
z
" transform="scale(0.015625)"/>
       <path id="DejaVuSans-75" d="M 544 1381 
L 544 3500 
L 1119 3500 
L 1119 1403 
Q 1119 906 1312 657 
Q 1506 409 1894 409 
Q 2359 409 2629 706 
Q 2900 1003 2900 1516 
L 2900 3500 
L 3475 3500 
L 3475 0 
L 2900 0 
L 2900 538 
Q 2691 219 2414 64 
Q 2138 -91 1772 -91 
Q 1169 -91 856 284 
Q 544 659 544 1381 
z
M 1991 3584 
L 1991 3584 
z
" transform="scale(0.015625)"/>
       <path id="DejaVuSans-6e" d="M 3513 2113 
L 3513 0 
L 2938 0 
L 2938 2094 
Q 2938 2591 2744 2837 
Q 2550 3084 2163 3084 
Q 1697 3084 1428 2787 
Q 1159 2491 1159 1978 
L 1159 0 
L 581 0 
L 581 3500 
L 1159 3500 
L 1159 2956 
Q 1366 3272 1645 3428 
Q 1925 3584 2291 3584 
Q 2894 3584 3203 3211 
Q 3513 2838 3513 2113 
z
" transform="scale(0.015625)"/>
       <path id="DejaVuSans-64" d="M 2906 2969 
L 2906 4863 
L 3481 4863 
L 3481 0 
L 2906 0 
L 2906 525 
Q 2725 213 2448 61 
Q 2172 -91 1784 -91 
Q 1150 -91 751 415 
Q 353 922 353 1747 
Q 353 2572 751 3078 
Q 1150 3584 1784 3584 
Q 2172 3584 2448 3432 
Q 2725 3281 2906 2969 
z
M 947 1747 
Q 947 1113 1208 752 
Q 1469 391 1925 391 
Q 2381 391 2643 752 
Q 2906 1113 2906 1747 
Q 2906 2381 2643 2742 
Q 2381 3103 1925 3103 
Q 1469 3103 1208 2742 
Q 947 2381 947 1747 
z
" transform="scale(0.015625)"/>
       <path id="DejaVuSans-20" transform="scale(0.015625)"/>
       <path id="DejaVuSans-54" d="M -19 4666 
L 3928 4666 
L 3928 4134 
L 2272 4134 
L 2272 0 
L 1638 0 
L 1638 4134 
L -19 4134 
L -19 4666 
z
" transform="scale(0.015625)"/>
       <path id="DejaVuSans-74" d="M 1172 4494 
L 1172 3500 
L 2356 3500 
L 2356 3053 
L 1172 3053 
L 1172 1153 
Q 1172 725 1289 603 
Q 1406 481 1766 481 
L 2356 481 
L 2356 0 
L 1766 0 
Q 1100 0 847 248 
Q 594 497 594 1153 
L 594 3053 
L 172 3053 
L 172 3500 
L 594 3500 
L 594 4494 
L 1172 4494 
z
" transform="scale(0.015625)"/>
       <path id="DejaVuSans-68" d="M 3513 2113 
L 3513 0 
L 2938 0 
L 2938 2094 
Q 2938 2591 2744 2837 
Q 2550 3084 2163 3084 
Q 1697 3084 1428 2787 
Q 1159 2491 1159 1978 
L 1159 0 
L 581 0 
L 581 4863 
L 1159 4863 
L 1159 2956 
Q 1366 3272 1645 3428 
Q 1925 3584 2291 3584 
Q 2894 3584 3203 3211 
Q 3513 2838 3513 2113 
z
" transform="scale(0.015625)"/>
       <path id="DejaVuSans-45" d="M 628 4666 
L 3578 4666 
L 3578 4134 
L 1259 4134 
L 1259 2753 
L 3481 2753 
L 3481 2222 
L 1259 2222 
L 1259 531 
L 3634 531 
L 3634 0 
L 628 0 
L 628 4666 
z
" transform="scale(0.015625)"/>
       <path id="DejaVuSans-65" d="M 3597 1894 
L 3597 1613 
L 953 1613 
Q 991 1019 1311 708 
Q 1631 397 2203 397 
Q 2534 397 2845 478 
Q 3156 559 3463 722 
L 3463 178 
Q 3153 47 2828 -22 
Q 2503 -91 2169 -91 
Q 1331 -91 842 396 
Q 353 884 353 1716 
Q 353 2575 817 3079 
Q 1281 3584 2069 3584 
Q 2775 3584 3186 3129 
Q 3597 2675 3597 1894 
z
M 3022 2063 
Q 3016 2534 2758 2815 
Q 2500 3097 2075 3097 
Q 1594 3097 1305 2825 
Q 1016 2553 972 2059 
L 3022 2063 
z
" transform="scale(0.015625)"/>
       <path id="DejaVuSans-67" d="M 2906 1791 
Q 2906 2416 2648 2759 
Q 2391 3103 1925 3103 
Q 1463 3103 1205 2759 
Q 947 2416 947 1791 
Q 947 1169 1205 825 
Q 1463 481 1925 481 
Q 2391 481 2648 825 
Q 2906 1169 2906 1791 
z
M 3481 434 
Q 3481 -459 3084 -895 
Q 2688 -1331 1869 -1331 
Q 1566 -1331 1297 -1286 
Q 1028 -1241 775 -1147 
L 775 -588 
Q 1028 -725 1275 -790 
Q 1522 -856 1778 -856 
Q 2344 -856 2625 -561 
Q 2906 -266 2906 331 
L 2906 616 
Q 2728 306 2450 153 
Q 2172 0 1784 0 
Q 1141 0 747 490 
Q 353 981 353 1791 
Q 353 2603 747 3093 
Q 1141 3584 1784 3584 
Q 2172 3584 2450 3431 
Q 2728 3278 2906 2969 
L 2906 3500 
L 3481 3500 
L 3481 434 
z
" transform="scale(0.015625)"/>
       <path id="DejaVuSans-79" d="M 2059 -325 
Q 1816 -950 1584 -1140 
Q 1353 -1331 966 -1331 
L 506 -1331 
L 506 -850 
L 844 -850 
Q 1081 -850 1212 -737 
Q 1344 -625 1503 -206 
L 1606 56 
L 191 3500 
L 800 3500 
L 1894 763 
L 2988 3500 
L 3597 3500 
L 2059 -325 
z
" transform="scale(0.015625)"/>
       <path id="DejaVuSans-5b" d="M 550 4863 
L 1875 4863 
L 1875 4416 
L 1125 4416 
L 1125 -397 
L 1875 -397 
L 1875 -844 
L 550 -844 
L 550 4863 
z
" transform="scale(0.015625)"/>
       <path id="DejaVuSans-6b" d="M 581 4863 
L 1159 4863 
L 1159 1991 
L 2875 3500 
L 3609 3500 
L 1753 1863 
L 3688 0 
L 2938 0 
L 1159 1709 
L 1159 0 
L 581 0 
L 581 4863 
z
" transform="scale(0.015625)"/>
       <path id="DejaVuSans-4a" d="M 628 4666 
L 1259 4666 
L 1259 325 
Q 1259 -519 939 -900 
Q 619 -1281 -91 -1281 
L -331 -1281 
L -331 -750 
L -134 -750 
Q 284 -750 456 -515 
Q 628 -281 628 325 
L 628 4666 
z
" transform="scale(0.015625)"/>
       <path id="DejaVuSans-2f" d="M 1625 4666 
L 2156 4666 
L 531 -594 
L 0 -594 
L 1625 4666 
z
" transform="scale(0.015625)"/>
       <path id="DejaVuSans-6d" d="M 3328 2828 
Q 3544 3216 3844 3400 
Q 4144 3584 4550 3584 
Q 5097 3584 5394 3201 
Q 5691 2819 5691 2113 
L 5691 0 
L 5113 0 
L 5113 2094 
Q 5113 2597 4934 2840 
Q 4756 3084 4391 3084 
Q 3944 3084 3684 2787 
Q 3425 2491 3425 1978 
L 3425 0 
L 2847 0 
L 2847 2094 
Q 2847 2600 2669 2842 
Q 2491 3084 2119 3084 
Q 1678 3084 1418 2786 
Q 1159 2488 1159 1978 
L 1159 0 
L 581 0 
L 581 3500 
L 1159 3500 
L 1159 2956 
Q 1356 3278 1631 3431 
Q 1906 3584 2284 3584 
Q 2666 3584 2933 3390 
Q 3200 3197 3328 2828 
z
" transform="scale(0.015625)"/>
       <path id="DejaVuSans-6c" d="M 603 4863 
L 1178 4863 
L 1178 0 
L 603 0 
L 603 4863 
z
" transform="scale(0.015625)"/>
       <path id="DejaVuSans-5d" d="M 1947 4863 
L 1947 -844 
L 622 -844 
L 622 -397 
L 1369 -397 
L 1369 4416 
L 622 4416 
L 622 4863 
L 1947 4863 
z
" transform="scale(0.015625)"/>
      </defs>
      <use xlink:href="#DejaVuSans-47"/>
      <use xlink:href="#DejaVuSans-72" x="77.490234"/>
      <use xlink:href="#DejaVuSans-6f" x="116.353516"/>
      <use xlink:href="#DejaVuSans-75" x="177.535156"/>
      <use xlink:href="#DejaVuSans-6e" x="240.914062"/>
      <use xlink:href="#DejaVuSans-64" x="304.292969"/>
      <use xlink:href="#DejaVuSans-20" x="367.769531"/>
      <use xlink:href="#DejaVuSans-54" x="399.556641"/>
      <use xlink:href="#DejaVuSans-72" x="445.890625"/>
      <use xlink:href="#DejaVuSans-75" x="487.003906"/>
      <use xlink:href="#DejaVuSans-74" x="550.382812"/>
      <use xlink:href="#DejaVuSans-68" x="589.591797"/>
      <use xlink:href="#DejaVuSans-20" x="652.970703"/>
      <use xlink:href="#DejaVuSans-45" x="684.757812"/>
      <use xlink:href="#DejaVuSans-6e" x="747.941406"/>
      <use xlink:href="#DejaVuSans-65" x="811.320312"/>
      <use xlink:href="#DejaVuSans-72" x="872.84375"/>
      <use xlink:href="#DejaVuSans-67" x="912.207031"/>
      <use xlink:href="#DejaVuSans-79" x="975.683594"/>
      <use xlink:href="#DejaVuSans-20" x="1034.863281"/>
      <use xlink:href="#DejaVuSans-5b" x="1066.650391"/>
      <use xlink:href="#DejaVuSans-6b" x="1105.664062"/>
      <use xlink:href="#DejaVuSans-4a" x="1163.574219"/>
      <use xlink:href="#DejaVuSans-2f" x="1193.066406"/>
      <use xlink:href="#DejaVuSans-6d" x="1226.757812"/>
      <use xlink:href="#DejaVuSans-6f" x="1324.169922"/>
      <use xlink:href="#DejaVuSans-6c" x="1385.351562"/>
      <use xlink:href="#DejaVuSans-5d" x="1413.134766"/>
     </g>
    </g>
   </g>
   <g id="matplotlib.axis_2">
    <g id="ytick_1">
     <g id="line2d_10">
      <defs>
       <path id="ma42d594d56" d="M 0 0 
L -3.5 0 
" style="stroke: #000000; stroke-width: 0.8"/>
      </defs>
      <g>
       <use xlink:href="#ma42d594d56" x="102.17" y="499.48" style="stroke: #000000; stroke-width: 0.8"/>
      </g>
     </g>
     <g id="text_11">
      <!-- −80 -->
      <g transform="translate(48.739688 507.838281) scale(0.22 -0.22)">
       <use xlink:href="#DejaVuSans-2212"/>
       <use xlink:href="#DejaVuSans-38" x="83.789062"/>
       <use xlink:href="#DejaVuSans-30" x="147.412109"/>
      </g>
     </g>
    </g>
    <g id="ytick_2">
     <g id="line2d_11">
      <g>
       <use xlink:href="#ma42d594d56" x="102.17" y="441.05" style="stroke: #000000; stroke-width: 0.8"/>
      </g>
     </g>
     <g id="text_12">
      <!-- −60 -->
      <g transform="translate(48.739688 449.408281) scale(0.22 -0.22)">
       <use xlink:href="#DejaVuSans-2212"/>
       <use xlink:href="#DejaVuSans-36" x="83.789062"/>
       <use xlink:href="#DejaVuSans-30" x="147.412109"/>
      </g>
     </g>
    </g>
    <g id="ytick_3">
     <g id="line2d_12">
      <g>
       <use xlink:href="#ma42d594d56" x="102.17" y="382.62" style="stroke: #000000; stroke-width: 0.8"/>
      </g>
     </g>
     <g id="text_13">
      <!-- −40 -->
      <g transform="translate(48.739688 390.978281) scale(0.22 -0.22)">
       <use xlink:href="#DejaVuSans-2212"/>
       <use xlink:href="#DejaVuSans-34" x="83.789062"/>
       <use xlink:href="#DejaVuSans-30" x="147.412109"/>
      </g>
     </g>
    </g>
    <g id="ytick_4">
     <g id="line2d_13">
      <g>
       <use xlink:href="#ma42d594d56" x="102.17" y="324.19" style="stroke: #000000; stroke-width: 0.8"/>
      </g>
     </g>
     <g id="text_14">
      <!-- −20 -->
      <g transform="translate(48.739688 332.548281) scale(0.22 -0.22)">
       <use xlink:href="#DejaVuSans-2212"/>
       <use xlink:href="#DejaVuSans-32" x="83.789062"/>
       <use xlink:href="#DejaVuSans-30" x="147.412109"/>
      </g>
     </g>
    </g>
    <g id="ytick_5">
     <g id="line2d_14">
      <g>
       <use xlink:href="#ma42d594d56" x="102.17" y="265.76" style="stroke: #000000; stroke-width: 0.8"/>
      </g>
     </g>
     <g id="text_15">
      <!-- 0 -->
      <g transform="translate(81.1725 274.118281) scale(0.22 -0.22)">
       <use xlink:href="#DejaVuSans-30"/>
      </g>
     </g>
    </g>
    <g id="ytick_6">
     <g id="line2d_15">
      <g>
       <use xlink:href="#ma42d594d56" x="102.17" y="207.33" style="stroke: #000000; stroke-width: 0.8"/>
      </g>
     </g>
     <g id="text_16">
      <!-- 20 -->
      <g transform="translate(67.175 215.688281) scale(0.22 -0.22)">
       <use xlink:href="#DejaVuSans-32"/>
       <use xlink:href="#DejaVuSans-30" x="63.623047"/>
      </g>
     </g>
    </g>
    <g id="ytick_7">
     <g id="line2d_16">
      <g>
       <use xlink:href="#ma42d594d56" x="102.17" y="148.9" style="stroke: #000000; stroke-width: 0.8"/>
      </g>
     </g>
     <g id="text_17">
      <!-- 40 -->
      <g transform="translate(67.175 157.258281) scale(0.22 -0.22)">
       <use xlink:href="#DejaVuSans-34"/>
       <use xlink:href="#DejaVuSans-30" x="63.623047"/>
      </g>
     </g>
    </g>
    <g id="ytick_8">
     <g id="line2d_17">
      <g>
       <use xlink:href="#ma42d594d56" x="102.17" y="90.47" style="stroke: #000000; stroke-width: 0.8"/>
      </g>
     </g>
     <g id="text_18">
      <!-- 60 -->
      <g transform="translate(67.175 98.828281) scale(0.22 -0.22)">
       <use xlink:href="#DejaVuSans-36"/>
       <use xlink:href="#DejaVuSans-30" x="63.623047"/>
      </g>
     </g>
    </g>
    <g id="ytick_9">
     <g id="line2d_18">
      <g>
       <use xlink:href="#ma42d594d56" x="102.17" y="32.04" style="stroke: #000000; stroke-width: 0.8"/>
      </g>
     </g>
     <g id="text_19">
      <!-- 80 -->
      <g transform="translate(67.175 40.398281) scale(0.22 -0.22)">
       <use xlink:href="#DejaVuSans-38"/>
       <use xlink:href="#DejaVuSans-30" x="63.623047"/>
      </g>
     </g>
    </g>
    <g id="text_20">
     <!-- Predicted Energy [kJ/mol] -->
     <g transform="translate(40.164375 405.305313) rotate(-90) scale(0.22 -0.22)">
      <defs>
       <path id="DejaVuSans-50" d="M 1259 4147 
L 1259 2394 
L 2053 2394 
Q 2494 2394 2734 2622 
Q 2975 2850 2975 3272 
Q 2975 3691 2734 3919 
Q 2494 4147 2053 4147 
L 1259 4147 
z
M 628 4666 
L 2053 4666 
Q 2838 4666 3239 4311 
Q 3641 3956 3641 3272 
Q 3641 2581 3239 2228 
Q 2838 1875 2053 1875 
L 1259 1875 
L 1259 0 
L 628 0 
L 628 4666 
z
" transform="scale(0.015625)"/>
       <path id="DejaVuSans-69" d="M 603 3500 
L 1178 3500 
L 1178 0 
L 603 0 
L 603 3500 
z
M 603 4863 
L 1178 4863 
L 1178 4134 
L 603 4134 
L 603 4863 
z
" transform="scale(0.015625)"/>
       <path id="DejaVuSans-63" d="M 3122 3366 
L 3122 2828 
Q 2878 2963 2633 3030 
Q 2388 3097 2138 3097 
Q 1578 3097 1268 2742 
Q 959 2388 959 1747 
Q 959 1106 1268 751 
Q 1578 397 2138 397 
Q 2388 397 2633 464 
Q 2878 531 3122 666 
L 3122 134 
Q 2881 22 2623 -34 
Q 2366 -91 2075 -91 
Q 1284 -91 818 406 
Q 353 903 353 1747 
Q 353 2603 823 3093 
Q 1294 3584 2113 3584 
Q 2378 3584 2631 3529 
Q 2884 3475 3122 3366 
z
" transform="scale(0.015625)"/>
      </defs>
      <use xlink:href="#DejaVuSans-50"/>
      <use xlink:href="#DejaVuSans-72" x="58.552734"/>
      <use xlink:href="#DejaVuSans-65" x="97.416016"/>
      <use xlink:href="#DejaVuSans-64" x="158.939453"/>
      <use xlink:href="#DejaVuSans-69" x="222.416016"/>
      <use xlink:href="#DejaVuSans-63" x="250.199219"/>
      <use xlink:href="#DejaVuSans-74" x="305.179688"/>
      <use xlink:href="#DejaVuSans-65" x="344.388672"/>
      <use xlink:href="#DejaVuSans-64" x="405.912109"/>
      <use xlink:href="#DejaVuSans-20" x="469.388672"/>
      <use xlink:href="#DejaVuSans-45" x="501.175781"/>
      <use xlink:href="#DejaVuSans-6e" x="564.359375"/>
      <use xlink:href="#DejaVuSans-65" x="627.738281"/>
      <use xlink:href="#DejaVuSans-72" x="689.261719"/>
      <use xlink:href="#DejaVuSans-67" x="728.625"/>
      <use xlink:href="#DejaVuSans-79" x="792.101562"/>
      <use xlink:href="#DejaVuSans-20" x="851.28125"/>
      <use xlink:href="#DejaVuSans-5b" x="883.068359"/>
      <use xlink:href="#DejaVuSans-6b" x="922.082031"/>
      <use xlink:href="#DejaVuSans-4a" x="979.992188"/>
      <use xlink:href="#DejaVuSans-2f" x="1009.484375"/>
      <use xlink:href="#DejaVuSans-6d" x="1043.175781"/>
      <use xlink:href="#DejaVuSans-6f" x="1140.587891"/>
      <use xlink:href="#DejaVuSans-6c" x="1201.769531"/>
      <use xlink:href="#DejaVuSans-5d" x="1229.552734"/>
     </g>
    </g>
   </g>
   <g id="line2d_19">
    <path d="M 102.17 499.48 
L 682.2 32.04 
" clip-path="url(#pe05d1bb09b)" style="fill: none; stroke-dasharray: 5.55,2.4; stroke-dashoffset: 0; stroke: #ff0000; stroke-width: 1.5"/>
   </g>
   <g id="patch_3">
    <path d="M 102.17 499.48 
L 102.17 32.04 
" style="fill: none; stroke: #000000; stroke-width: 0.8; stroke-linejoin: miter; stroke-linecap: square"/>
   </g>
   <g id="patch_4">
    <path d="M 682.2 499.48 
L 682.2 32.04 
" style="fill: none; stroke: #000000; stroke-width: 0.8; stroke-linejoin: miter; stroke-linecap: square"/>
   </g>
   <g id="patch_5">
    <path d="M 102.17 499.48 
L 682.2 499.48 
" style="fill: none; stroke: #000000; stroke-width: 0.8; stroke-linejoin: miter; stroke-linecap: square"/>
   </g>
   <g id="patch_6">
    <path d="M 102.17 32.04 
L 682.2 32.04 
" style="fill: none; stroke: #000000; stroke-width: 0.8; stroke-linejoin: miter; stroke-linecap: square"/>
   </g>
   <g id="text_21">
    <!-- R2 Score: 0.972 -->
    <g transform="translate(160.173 78.784) scale(0.22 -0.22)">
     <defs>
      <path id="DejaVuSans-52" d="M 2841 2188 
Q 3044 2119 3236 1894 
Q 3428 1669 3622 1275 
L 4263 0 
L 3584 0 
L 2988 1197 
Q 2756 1666 2539 1819 
Q 2322 1972 1947 1972 
L 1259 1972 
L 1259 0 
L 628 0 
L 628 4666 
L 2053 4666 
Q 2853 4666 3247 4331 
Q 3641 3997 3641 3322 
Q 3641 2881 3436 2590 
Q 3231 2300 2841 2188 
z
M 1259 4147 
L 1259 2491 
L 2053 2491 
Q 2509 2491 2742 2702 
Q 2975 2913 2975 3322 
Q 2975 3731 2742 3939 
Q 2509 4147 2053 4147 
L 1259 4147 
z
" transform="scale(0.015625)"/>
      <path id="DejaVuSans-53" d="M 3425 4513 
L 3425 3897 
Q 3066 4069 2747 4153 
Q 2428 4238 2131 4238 
Q 1616 4238 1336 4038 
Q 1056 3838 1056 3469 
Q 1056 3159 1242 3001 
Q 1428 2844 1947 2747 
L 2328 2669 
Q 3034 2534 3370 2195 
Q 3706 1856 3706 1288 
Q 3706 609 3251 259 
Q 2797 -91 1919 -91 
Q 1588 -91 1214 -16 
Q 841 59 441 206 
L 441 856 
Q 825 641 1194 531 
Q 1563 422 1919 422 
Q 2459 422 2753 634 
Q 3047 847 3047 1241 
Q 3047 1584 2836 1778 
Q 2625 1972 2144 2069 
L 1759 2144 
Q 1053 2284 737 2584 
Q 422 2884 422 3419 
Q 422 4038 858 4394 
Q 1294 4750 2059 4750 
Q 2388 4750 2728 4690 
Q 3069 4631 3425 4513 
z
" transform="scale(0.015625)"/>
      <path id="DejaVuSans-3a" d="M 750 794 
L 1409 794 
L 1409 0 
L 750 0 
L 750 794 
z
M 750 3309 
L 1409 3309 
L 1409 2516 
L 750 2516 
L 750 3309 
z
" transform="scale(0.015625)"/>
      <path id="DejaVuSans-2e" d="M 684 794 
L 1344 794 
L 1344 0 
L 684 0 
L 684 794 
z
" transform="scale(0.015625)"/>
      <path id="DejaVuSans-39" d="M 703 97 
L 703 672 
Q 941 559 1184 500 
Q 1428 441 1663 441 
Q 2288 441 2617 861 
Q 2947 1281 2994 2138 
Q 2813 1869 2534 1725 
Q 2256 1581 1919 1581 
Q 1219 1581 811 2004 
Q 403 2428 403 3163 
Q 403 3881 828 4315 
Q 1253 4750 1959 4750 
Q 2769 4750 3195 4129 
Q 3622 3509 3622 2328 
Q 3622 1225 3098 567 
Q 2575 -91 1691 -91 
Q 1453 -91 1209 -44 
Q 966 3 703 97 
z
M 1959 2075 
Q 2384 2075 2632 2365 
Q 2881 2656 2881 3163 
Q 2881 3666 2632 3958 
Q 2384 4250 1959 4250 
Q 1534 4250 1286 3958 
Q 1038 3666 1038 3163 
Q 1038 2656 1286 2365 
Q 1534 2075 1959 2075 
z
" transform="scale(0.015625)"/>
      <path id="DejaVuSans-37" d="M 525 4666 
L 3525 4666 
L 3525 4397 
L 1831 0 
L 1172 0 
L 2766 4134 
L 525 4134 
L 525 4666 
z
" transform="scale(0.015625)"/>
     </defs>
     <use xlink:href="#DejaVuSans-52"/>
     <use xlink:href="#DejaVuSans-32" x="69.482422"/>
     <use xlink:href="#DejaVuSans-20" x="133.105469"/>
     <use xlink:href="#DejaVuSans-53" x="164.892578"/>
     <use xlink:href="#DejaVuSans-63" x="228.369141"/>
     <use xlink:href="#DejaVuSans-6f" x="283.349609"/>
     <use xlink:href="#DejaVuSans-72" x="344.53125"/>
     <use xlink:href="#DejaVuSans-65" x="383.394531"/>
     <use xlink:href="#DejaVuSans-3a" x="444.917969"/>
     <use xlink:href="#DejaVuSans-20" x="478.609375"/>
     <use xlink:href="#DejaVuSans-30" x="510.396484"/>
     <use xlink:href="#DejaVuSans-2e" x="574.019531"/>
     <use xlink:href="#DejaVuSans-39" x="605.806641"/>
     <use xlink:href="#DejaVuSans-37" x="669.429688"/>
     <use xlink:href="#DejaVuSans-32" x="733.052734"/>
    </g>
   </g>
  </g>
 </g>
 <defs>
  <clipPath id="pe05d1bb09b">
   <rect x="102.17" y="32.04" width="580.03" height="467.44"/>
  </clipPath>
 </defs>
</svg>
