<?xml version="1.0" encoding="utf-8" standalone="no"?>
<!DOCTYPE svg PUBLIC "-//W3C//DTD SVG 1.1//EN"
  "http://www.w3.org/Graphics/SVG/1.1/DTD/svg11.dtd">
<svg xmlns:xlink="http://www.w3.org/1999/xlink" width="720pt" height="576pt" viewBox="0 0 720 576" xmlns="http://www.w3.org/2000/svg" version="1.1">
 <metadata>
  <rdf:RDF xmlns:dc="http://purl.org/dc/elements/1.1/" xmlns:cc="http://creativecommons.org/ns#" xmlns:rdf="http://www.w3.org/1999/02/22-rdf-syntax-ns#">
   <cc:Work>
    <dc:type rdf:resource="http://purl.org/dc/dcmitype/StillImage"/>
    <dc:date>2024-12-08T03:57:46.050739</dc:date>
    <dc:format>image/svg+xml</dc:format>
    <dc:creator>
     <cc:Agent>
      <dc:title>Matplotlib v3.8.4, https://matplotlib.org/</dc:title>
     </cc:Agent>
    </dc:creator>
   </cc:Work>
  </rdf:RDF>
 </metadata>
 <defs>
  <style type="text/css">*{stroke-linejoin: round; stroke-linecap: butt}</style>
 </defs>
 <g id="figure_1">
  <g id="patch_1">
   <path d="M 0 576 
L 720 576 
L 720 0 
L 0 0 
z
" style="fill: #ffffff"/>
  </g>
  <g id="axes_1">
   <g id="patch_2">
    <path d="M 83.72 499.48 
L 696.24 499.48 
L 696.24 23.76 
L 83.72 23.76 
z
" style="fill: #ffffff"/>
   </g>
   <g id="QuadContourSet_1">
    <path d="M 92.99067 500.402379 
L 93.888665 500.654516 
L 94.78666 500.82634 
L 95.684655 500.933087 
L 96.58265 500.985278 
L 97.480645 500.989637 
L 98.37864 500.949739 
L 99.276635 500.866484 
L 100.17463 500.738438 
L 101.072625 500.562077 
L 101.97062 500.331939 
L 102.095692 500.293992 
L 102.868616 500.198093 
L 103.766611 500.064538 
L 104.664606 499.904963 
L 105.562601 499.716137 
L 106.460596 499.494947 
L 107.358591 499.239246 
L 108.256586 498.949454 
L 109.154581 498.631162 
L 110.052576 498.298644 
L 110.950571 497.977963 
L 111.609616 497.783509 
L 111.848566 497.747665 
L 112.746562 497.659693 
L 113.644557 497.624595 
L 114.542552 497.649808 
L 115.440547 497.727957 
L 115.887475 497.783509 
L 116.338542 497.883674 
L 117.236537 498.094016 
L 118.134532 498.278857 
L 119.032527 498.420848 
L 119.930522 498.513398 
L 120.828517 498.55604 
L 121.726512 498.550657 
L 122.624508 498.498956 
L 123.522503 498.400903 
L 124.420498 498.253739 
L 125.318493 498.051311 
L 126.216488 497.783509 
L 126.216488 497.783509 
L 127.114483 497.623361 
L 128.012478 497.422993 
L 128.910473 497.171902 
L 129.808468 496.85608 
L 130.706463 496.4569 
L 131.604458 495.949521 
L 132.502454 495.300462 
L 132.537585 495.273026 
L 133.400449 494.840563 
L 134.298444 494.274509 
L 135.196439 493.5492 
L 135.970439 492.762543 
L 136.094434 492.659378 
L 136.992429 491.854426 
L 137.890424 490.81655 
L 138.313644 490.25206 
L 138.788419 489.588777 
L 139.686414 488.141799 
L 139.91622 487.741577 
L 140.584409 486.124213 
L 140.947421 485.231094 
L 141.405093 482.720611 
L 141.251277 480.210127 
L 140.584409 478.388873 
L 140.29207 477.699644 
L 139.686414 476.770893 
L 138.788419 475.672846 
L 138.282666 475.189161 
L 137.890424 474.807992 
L 136.992429 474.102139 
L 136.094434 473.604486 
L 135.196439 473.266563 
L 134.298444 473.047098 
L 133.400449 472.912337 
L 132.502454 472.83558 
L 131.604458 472.796389 
L 130.706463 472.779797 
L 129.808468 472.77567 
L 128.910473 472.778121 
L 128.012478 472.784836 
L 127.114483 472.796117 
L 126.216488 472.813592 
L 125.318493 472.838707 
L 124.420498 472.871193 
L 123.522503 472.907828 
L 122.624508 472.941895 
L 121.726512 472.963905 
L 120.828517 472.963964 
L 119.930522 472.935239 
L 119.032527 472.876713 
L 118.134532 472.793276 
L 117.236537 472.692908 
L 117.126262 472.678678 
L 116.338542 472.500568 
L 115.440547 472.281053 
L 114.542552 472.047231 
L 113.644557 471.798468 
L 112.746562 471.537203 
L 111.848566 471.272307 
L 110.950571 471.018795 
L 110.052576 470.79376 
L 109.154581 470.611101 
L 108.256586 470.478253 
L 107.358591 470.396091 
L 106.460596 470.360964 
L 105.562601 470.367208 
L 104.664606 470.409091 
L 103.766611 470.481985 
L 102.868616 470.582972 
L 101.97062 470.711209 
L 101.072625 470.868294 
L 100.17463 471.058848 
L 99.276635 471.291371 
L 98.37864 471.579407 
L 97.480645 471.94297 
L 96.58265 472.410249 
L 96.152018 472.678678 
L 95.684655 472.837069 
L 94.78666 473.219691 
L 93.888665 473.747528 
L 92.99067 474.480976 
L 92.326548 475.189161 
L 92.092674 475.346269 
L 91.194679 476.06086 
L 90.296684 477.065114 
L 89.831821 477.699644 
L 89.398689 478.116087 
L 88.500694 479.160539 
L 87.80053 480.210127 
L 87.602699 480.456059 
L 86.704704 481.676254 
L 86.080193 482.720611 
L 85.806709 483.20598 
L 84.908714 484.964802 
L 84.778503 485.231094 
L 84.010719 487.635337 
L 83.975633 487.741577 
L 83.714769 490.25206 
L 84.010719 491.981875 
L 84.133813 492.762543 
L 84.908714 494.522325 
L 85.304183 495.273026 
L 85.806709 495.995461 
L 86.704704 497.042127 
L 87.59695 497.783509 
L 87.602699 497.789145 
L 88.500694 498.600816 
L 89.398689 499.196897 
L 90.296684 499.633701 
L 91.194679 499.951856 
L 92.092674 500.18101 
L 92.695779 500.293992 
z
M 96.851733 497.783509 
L 96.58265 497.772254 
L 95.684655 497.693628 
L 94.78666 497.562458 
L 93.888665 497.364062 
L 92.99067 497.078176 
L 92.092674 496.677145 
L 91.194679 496.123284 
L 90.296684 495.364957 
L 90.201411 495.273026 
L 89.398689 494.432431 
L 88.500694 493.123357 
L 88.287463 492.762543 
L 87.602699 490.318117 
L 87.585243 490.25206 
L 87.602699 489.878694 
L 87.682461 487.741577 
L 88.464531 485.231094 
L 88.500694 485.159765 
L 89.398689 483.433406 
L 89.821281 482.720611 
L 90.296684 482.000038 
L 91.194679 480.836392 
L 91.780219 480.210127 
L 92.092674 479.820471 
L 92.99067 478.844586 
L 93.888665 478.106596 
L 94.498599 477.699644 
L 94.78666 477.428507 
L 95.684655 476.70147 
L 96.58265 476.148247 
L 97.480645 475.720262 
L 98.37864 475.383424 
L 99.009778 475.189161 
L 99.276635 475.05217 
L 100.17463 474.666804 
L 101.072625 474.372392 
L 101.97062 474.153445 
L 102.868616 474.000743 
L 103.766611 473.909956 
L 104.664606 473.880525 
L 105.562601 473.914587 
L 106.460596 474.015652 
L 107.358591 474.186812 
L 108.256586 474.428484 
L 109.154581 474.736175 
L 110.052576 475.099356 
L 110.264886 475.189161 
L 110.950571 475.383565 
L 111.848566 475.648884 
L 112.746562 475.924589 
L 113.644557 476.21026 
L 114.542552 476.507897 
L 115.440547 476.817807 
L 116.338542 477.133398 
L 117.236537 477.436963 
L 118.134532 477.699644 
L 118.134532 477.699644 
L 119.032527 477.849565 
L 119.930522 477.914814 
L 120.828517 477.899631 
L 121.726512 477.824111 
L 122.624508 477.71381 
L 122.723901 477.699644 
L 123.522503 477.548604 
L 124.420498 477.384321 
L 125.318493 477.244011 
L 126.216488 477.137403 
L 127.114483 477.069254 
L 128.012478 477.042426 
L 128.910473 477.060607 
L 129.808468 477.130614 
L 130.706463 477.264348 
L 131.604458 477.480607 
L 132.22394 477.699644 
L 132.502454 477.793709 
L 133.400449 478.228941 
L 134.298444 478.886483 
L 135.196439 479.856614 
L 135.458302 480.210127 
L 136.094434 481.999619 
L 136.307706 482.720611 
L 136.135456 485.231094 
L 136.094434 485.334517 
L 135.196439 487.582049 
L 135.13195 487.741577 
L 134.298444 488.954125 
L 133.400449 490.048219 
L 133.219774 490.25206 
L 132.502454 490.967195 
L 131.604458 491.710284 
L 130.706463 492.313631 
L 129.898999 492.762543 
L 129.808468 492.822319 
L 128.910473 493.341768 
L 128.012478 493.750048 
L 127.114483 494.068961 
L 126.216488 494.314503 
L 125.318493 494.497925 
L 124.420498 494.626411 
L 123.522503 494.703478 
L 122.624508 494.729284 
L 121.726512 494.701197 
L 120.828517 494.61513 
L 119.930522 494.468397 
L 119.032527 494.264719 
L 118.134532 494.021049 
L 117.236537 493.773045 
L 116.338542 493.572635 
L 115.440547 493.472592 
L 114.542552 493.504027 
L 113.644557 493.663489 
L 112.746562 493.919617 
L 111.848566 494.231217 
L 110.950571 494.562359 
L 110.052576 494.888417 
L 109.154581 495.195407 
L 108.925324 495.273026 
L 108.256586 495.618591 
L 107.358591 496.038502 
L 106.460596 496.400812 
L 105.562601 496.709971 
L 104.664606 496.971409 
L 103.766611 497.190398 
L 102.868616 497.371563 
L 101.97062 497.518707 
L 101.072625 497.634741 
L 100.17463 497.721608 
L 99.276635 497.780156 
L 99.174546 497.783509 
L 98.37864 497.833398 
L 97.480645 497.830284 
z
" clip-path="url(#p560d77c3c8)" style="fill: #edf4fc"/>
    <path d="M 97.480645 497.830284 
L 98.37864 497.833398 
L 99.174546 497.783509 
L 99.276635 497.780156 
L 100.17463 497.721608 
L 101.072625 497.634741 
L 101.97062 497.518707 
L 102.868616 497.371563 
L 103.766611 497.190398 
L 104.664606 496.971409 
L 105.562601 496.709971 
L 106.460596 496.400812 
L 107.358591 496.038502 
L 108.256586 495.618591 
L 108.925324 495.273026 
L 109.154581 495.195407 
L 110.052576 494.888417 
L 110.950571 494.562359 
L 111.848566 494.231217 
L 112.746562 493.919617 
L 113.644557 493.663489 
L 114.542552 493.504027 
L 115.440547 493.472592 
L 116.338542 493.572635 
L 117.236537 493.773045 
L 118.134532 494.021049 
L 119.032527 494.264719 
L 119.930522 494.468397 
L 120.828517 494.61513 
L 121.726512 494.701197 
L 122.624508 494.729284 
L 123.522503 494.703478 
L 124.420498 494.626411 
L 125.318493 494.497925 
L 126.216488 494.314503 
L 127.114483 494.068961 
L 128.012478 493.750048 
L 128.910473 493.341768 
L 129.808468 492.822319 
L 129.898999 492.762543 
L 130.706463 492.313631 
L 131.604458 491.710284 
L 132.502454 490.967195 
L 133.219774 490.25206 
L 133.400449 490.048219 
L 134.298444 488.954125 
L 135.13195 487.741577 
L 135.196439 487.582049 
L 136.094434 485.334517 
L 136.135456 485.231094 
L 136.307706 482.720611 
L 136.094434 481.999619 
L 135.458302 480.210127 
L 135.196439 479.856614 
L 134.298444 478.886483 
L 133.400449 478.228941 
L 132.502454 477.793709 
L 132.22394 477.699644 
L 131.604458 477.480607 
L 130.706463 477.264348 
L 129.808468 477.130614 
L 128.910473 477.060607 
L 128.012478 477.042426 
L 127.114483 477.069254 
L 126.216488 477.137403 
L 125.318493 477.244011 
L 124.420498 477.384321 
L 123.522503 477.548604 
L 122.723901 477.699644 
L 122.624508 477.71381 
L 121.726512 477.824111 
L 120.828517 477.899631 
L 119.930522 477.914814 
L 119.032527 477.849565 
L 118.134532 477.699644 
L 118.134532 477.699644 
L 117.236537 477.436963 
L 116.338542 477.133398 
L 115.440547 476.817807 
L 114.542552 476.507897 
L 113.644557 476.21026 
L 112.746562 475.924589 
L 111.848566 475.648884 
L 110.950571 475.383565 
L 110.264886 475.189161 
L 110.052576 475.099356 
L 109.154581 474.736175 
L 108.256586 474.428484 
L 107.358591 474.186812 
L 106.460596 474.015652 
L 105.562601 473.914587 
L 104.664606 473.880525 
L 103.766611 473.909956 
L 102.868616 474.000743 
L 101.97062 474.153445 
L 101.072625 474.372392 
L 100.17463 474.666804 
L 99.276635 475.05217 
L 99.009778 475.189161 
L 98.37864 475.383424 
L 97.480645 475.720262 
L 96.58265 476.148247 
L 95.684655 476.70147 
L 94.78666 477.428507 
L 94.498599 477.699644 
L 93.888665 478.106596 
L 92.99067 478.844586 
L 92.092674 479.820471 
L 91.780219 480.210127 
L 91.194679 480.836392 
L 90.296684 482.000038 
L 89.821281 482.720611 
L 89.398689 483.433406 
L 88.500694 485.159765 
L 88.464531 485.231094 
L 87.682461 487.741577 
L 87.602699 489.878694 
L 87.585243 490.25206 
L 87.602699 490.318117 
L 88.287463 492.762543 
L 88.500694 493.123357 
L 89.398689 494.432431 
L 90.201411 495.273026 
L 90.296684 495.364957 
L 91.194679 496.123284 
L 92.092674 496.677145 
L 92.99067 497.078176 
L 93.888665 497.364062 
L 94.78666 497.562458 
L 95.684655 497.693628 
L 96.58265 497.772254 
L 96.851733 497.783509 
z
M 93.194616 495.273026 
L 92.99067 495.171468 
L 92.092674 494.596492 
L 91.194679 493.784252 
L 90.372877 492.762543 
L 90.296684 492.599829 
L 89.398689 490.25206 
L 89.40057 487.741577 
L 90.152492 485.231094 
L 90.296684 484.957838 
L 91.194679 483.351288 
L 91.591098 482.720611 
L 92.092674 482.02455 
L 92.99067 480.963336 
L 93.782569 480.210127 
L 93.888665 480.094586 
L 94.78666 479.210226 
L 95.684655 478.526213 
L 96.58265 477.987867 
L 97.160762 477.699644 
L 97.480645 477.477293 
L 98.37864 476.951338 
L 99.276635 476.54395 
L 100.17463 476.229253 
L 101.072625 475.99024 
L 101.97062 475.816553 
L 102.868616 475.702865 
L 103.766611 475.647633 
L 104.664606 475.651968 
L 105.562601 475.718395 
L 106.460596 475.849365 
L 107.358591 476.045538 
L 108.256586 476.304223 
L 109.154581 476.618664 
L 110.052576 476.978916 
L 110.950571 477.374439 
L 111.65288 477.699644 
L 111.848566 477.777035 
L 112.746562 478.137002 
L 113.644557 478.529363 
L 114.542552 478.956512 
L 115.440547 479.410699 
L 116.338542 479.86588 
L 117.100439 480.210127 
L 117.236537 480.284462 
L 118.134532 480.614149 
L 119.032527 480.757201 
L 119.930522 480.732107 
L 120.828517 480.588176 
L 121.726512 480.378476 
L 122.363385 480.210127 
L 122.624508 480.140413 
L 123.522503 479.896716 
L 124.420498 479.684357 
L 125.318493 479.5179 
L 126.216488 479.405165 
L 127.114483 479.351216 
L 128.012478 479.361732 
L 128.910473 479.44592 
L 129.808468 479.619287 
L 130.706463 479.906563 
L 131.346671 480.210127 
L 131.604458 480.377646 
L 132.502454 481.230876 
L 133.400449 482.579918 
L 133.474685 482.720611 
L 133.591853 485.231094 
L 133.400449 485.706169 
L 132.565147 487.741577 
L 132.502454 487.823847 
L 131.604458 488.914145 
L 130.706463 489.832437 
L 130.239145 490.25206 
L 129.808468 490.578081 
L 128.910473 491.148329 
L 128.012478 491.601732 
L 127.114483 491.958205 
L 126.216488 492.23144 
L 125.318493 492.42984 
L 124.420498 492.556959 
L 123.522503 492.611652 
L 122.624508 492.588428 
L 121.726512 492.478992 
L 120.828517 492.276468 
L 119.930522 491.983838 
L 119.032527 491.626023 
L 118.134532 491.259104 
L 117.236537 490.96387 
L 116.338542 490.816899 
L 115.440547 490.855579 
L 114.542552 491.066059 
L 113.644557 491.400929 
L 112.746562 491.806217 
L 111.848566 492.238551 
L 110.950571 492.669531 
L 110.764473 492.762543 
L 110.052576 493.176604 
L 109.154581 493.664289 
L 108.256586 494.098522 
L 107.358591 494.480054 
L 106.460596 494.812409 
L 105.562601 495.099958 
L 104.946571 495.273026 
L 104.664606 495.391296 
L 103.766611 495.720754 
L 102.868616 495.988341 
L 101.97062 496.200329 
L 101.072625 496.361349 
L 100.17463 496.474312 
L 99.276635 496.540224 
L 98.37864 496.557881 
L 97.480645 496.523402 
L 96.58265 496.429607 
L 95.684655 496.265192 
L 94.78666 496.013644 
L 93.888665 495.651756 
z
" clip-path="url(#p560d77c3c8)" style="fill: #dae8f6"/>
    <path d="M 93.888665 495.651756 
L 94.78666 496.013644 
L 95.684655 496.265192 
L 96.58265 496.429607 
L 97.480645 496.523402 
L 98.37864 496.557881 
L 99.276635 496.540224 
L 100.17463 496.474312 
L 101.072625 496.361349 
L 101.97062 496.200329 
L 102.868616 495.988341 
L 103.766611 495.720754 
L 104.664606 495.391296 
L 104.946571 495.273026 
L 105.562601 495.099958 
L 106.460596 494.812409 
L 107.358591 494.480054 
L 108.256586 494.098522 
L 109.154581 493.664289 
L 110.052576 493.176604 
L 110.764473 492.762543 
L 110.950571 492.669531 
L 111.848566 492.238551 
L 112.746562 491.806217 
L 113.644557 491.400929 
L 114.542552 491.066059 
L 115.440547 490.855579 
L 116.338542 490.816899 
L 117.236537 490.96387 
L 118.134532 491.259104 
L 119.032527 491.626023 
L 119.930522 491.983838 
L 120.828517 492.276468 
L 121.726512 492.478992 
L 122.624508 492.588428 
L 123.522503 492.611652 
L 124.420498 492.556959 
L 125.318493 492.42984 
L 126.216488 492.23144 
L 127.114483 491.958205 
L 128.012478 491.601732 
L 128.910473 491.148329 
L 129.808468 490.578081 
L 130.239145 490.25206 
L 130.706463 489.832437 
L 131.604458 488.914145 
L 132.502454 487.823847 
L 132.565147 487.741577 
L 133.400449 485.706169 
L 133.591853 485.231094 
L 133.474685 482.720611 
L 133.400449 482.579918 
L 132.502454 481.230876 
L 131.604458 480.377646 
L 131.346671 480.210127 
L 130.706463 479.906563 
L 129.808468 479.619287 
L 128.910473 479.44592 
L 128.012478 479.361732 
L 127.114483 479.351216 
L 126.216488 479.405165 
L 125.318493 479.5179 
L 124.420498 479.684357 
L 123.522503 479.896716 
L 122.624508 480.140413 
L 122.363385 480.210127 
L 121.726512 480.378476 
L 120.828517 480.588176 
L 119.930522 480.732107 
L 119.032527 480.757201 
L 118.134532 480.614149 
L 117.236537 480.284462 
L 117.100439 480.210127 
L 116.338542 479.86588 
L 115.440547 479.410699 
L 114.542552 478.956512 
L 113.644557 478.529363 
L 112.746562 478.137002 
L 111.848566 477.777035 
L 111.65288 477.699644 
L 110.950571 477.374439 
L 110.052576 476.978916 
L 109.154581 476.618664 
L 108.256586 476.304223 
L 107.358591 476.045538 
L 106.460596 475.849365 
L 105.562601 475.718395 
L 104.664606 475.651968 
L 103.766611 475.647633 
L 102.868616 475.702865 
L 101.97062 475.816553 
L 101.072625 475.99024 
L 100.17463 476.229253 
L 99.276635 476.54395 
L 98.37864 476.951338 
L 97.480645 477.477293 
L 97.160762 477.699644 
L 96.58265 477.987867 
L 95.684655 478.526213 
L 94.78666 479.210226 
L 93.888665 480.094586 
L 93.782569 480.210127 
L 92.99067 480.963336 
L 92.092674 482.02455 
L 91.591098 482.720611 
L 91.194679 483.351288 
L 90.296684 484.957838 
L 90.152492 485.231094 
L 89.40057 487.741577 
L 89.398689 490.25206 
L 90.296684 492.599829 
L 90.372877 492.762543 
L 91.194679 493.784252 
L 92.092674 494.596492 
L 92.99067 495.171468 
L 93.194616 495.273026 
z
M 97.168048 495.273026 
L 96.58265 495.201283 
L 95.684655 495.0155 
L 94.78666 494.728677 
L 93.888665 494.30888 
L 92.99067 493.71196 
L 92.092674 492.876881 
L 91.988258 492.762543 
L 91.194679 491.364013 
L 90.707138 490.25206 
L 90.608651 487.741577 
L 91.194679 485.805492 
L 91.363662 485.231094 
L 92.092674 483.935824 
L 92.887395 482.720611 
L 92.99067 482.585113 
L 93.888665 481.501658 
L 94.78666 480.639913 
L 95.31211 480.210127 
L 95.684655 479.867838 
L 96.58265 479.16498 
L 97.480645 478.611797 
L 98.37864 478.172118 
L 99.276635 477.821223 
L 99.65865 477.699644 
L 100.17463 477.47349 
L 101.072625 477.17451 
L 101.97062 476.967369 
L 102.868616 476.843586 
L 103.766611 476.799553 
L 104.664606 476.835027 
L 105.562601 476.95154 
L 106.460596 477.150564 
L 107.358591 477.431523 
L 108.041634 477.699644 
L 108.256586 477.76962 
L 109.154581 478.10134 
L 110.052576 478.480461 
L 110.950571 478.901903 
L 111.848566 479.365254 
L 112.746562 479.874841 
L 113.3027 480.210127 
L 113.644557 480.478866 
L 114.542552 481.22031 
L 115.440547 481.999081 
L 116.338542 482.720611 
L 116.338542 482.720611 
L 117.236537 483.862209 
L 118.134532 484.210129 
L 119.032527 484.054986 
L 119.930522 483.643781 
L 120.828517 483.126156 
L 121.481829 482.720611 
L 121.726512 482.622607 
L 122.624508 482.253673 
L 123.522503 481.928412 
L 124.420498 481.665182 
L 125.318493 481.474564 
L 126.216488 481.36468 
L 127.114483 481.345396 
L 128.012478 481.432307 
L 128.910473 481.651339 
L 129.808468 482.044737 
L 130.706463 482.679418 
L 130.749987 482.720611 
L 131.427808 485.231094 
L 130.706463 486.920632 
L 130.347155 487.741577 
L 129.808468 488.280671 
L 128.910473 489.041646 
L 128.012478 489.670153 
L 127.114483 490.182178 
L 126.955665 490.25206 
L 126.216488 490.503531 
L 125.318493 490.704546 
L 124.420498 490.804602 
L 123.522503 490.802374 
L 122.624508 490.691968 
L 121.726512 490.466159 
L 121.151634 490.25206 
L 120.828517 490.041031 
L 119.930522 489.323686 
L 119.032527 488.588232 
L 118.134532 488.027141 
L 117.236537 487.782623 
L 116.338542 487.878082 
L 115.440547 488.242738 
L 114.542552 488.778677 
L 113.644557 489.405383 
L 112.746562 490.070849 
L 112.52346 490.25206 
L 111.848566 490.703458 
L 110.950571 491.295569 
L 110.052576 491.845338 
L 109.154581 492.347351 
L 108.339763 492.762543 
L 108.256586 492.811099 
L 107.358591 493.311876 
L 106.460596 493.742966 
L 105.562601 494.11142 
L 104.664606 494.423726 
L 103.766611 494.685412 
L 102.868616 494.900936 
L 101.97062 495.073643 
L 101.072625 495.205647 
L 100.415265 495.273026 
L 100.17463 495.309273 
L 99.276635 495.382064 
L 98.37864 495.38843 
L 97.480645 495.322876 
z
" clip-path="url(#p560d77c3c8)" style="fill: #caddf0"/>
    <path d="M 97.480645 495.322876 
L 98.37864 495.38843 
L 99.276635 495.382064 
L 100.17463 495.309273 
L 100.415265 495.273026 
L 101.072625 495.205647 
L 101.97062 495.073643 
L 102.868616 494.900936 
L 103.766611 494.685412 
L 104.664606 494.423726 
L 105.562601 494.11142 
L 106.460596 493.742966 
L 107.358591 493.311876 
L 108.256586 492.811099 
L 108.339763 492.762543 
L 109.154581 492.347351 
L 110.052576 491.845338 
L 110.950571 491.295569 
L 111.848566 490.703458 
L 112.52346 490.25206 
L 112.746562 490.070849 
L 113.644557 489.405383 
L 114.542552 488.778677 
L 115.440547 488.242738 
L 116.338542 487.878082 
L 117.236537 487.782623 
L 118.134532 488.027141 
L 119.032527 488.588232 
L 119.930522 489.323686 
L 120.828517 490.041031 
L 121.151634 490.25206 
L 121.726512 490.466159 
L 122.624508 490.691968 
L 123.522503 490.802374 
L 124.420498 490.804602 
L 125.318493 490.704546 
L 126.216488 490.503531 
L 126.955665 490.25206 
L 127.114483 490.182178 
L 128.012478 489.670153 
L 128.910473 489.041646 
L 129.808468 488.280671 
L 130.347155 487.741577 
L 130.706463 486.920632 
L 131.427808 485.231094 
L 130.749987 482.720611 
L 130.706463 482.679418 
L 129.808468 482.044737 
L 128.910473 481.651339 
L 128.012478 481.432307 
L 127.114483 481.345396 
L 126.216488 481.36468 
L 125.318493 481.474564 
L 124.420498 481.665182 
L 123.522503 481.928412 
L 122.624508 482.253673 
L 121.726512 482.622607 
L 121.481829 482.720611 
L 120.828517 483.126156 
L 119.930522 483.643781 
L 119.032527 484.054986 
L 118.134532 484.210129 
L 117.236537 483.862209 
L 116.338542 482.720611 
L 116.338542 482.720611 
L 115.440547 481.999081 
L 114.542552 481.22031 
L 113.644557 480.478866 
L 113.3027 480.210127 
L 112.746562 479.874841 
L 111.848566 479.365254 
L 110.950571 478.901903 
L 110.052576 478.480461 
L 109.154581 478.10134 
L 108.256586 477.76962 
L 108.041634 477.699644 
L 107.358591 477.431523 
L 106.460596 477.150564 
L 105.562601 476.95154 
L 104.664606 476.835027 
L 103.766611 476.799553 
L 102.868616 476.843586 
L 101.97062 476.967369 
L 101.072625 477.17451 
L 100.17463 477.47349 
L 99.65865 477.699644 
L 99.276635 477.821223 
L 98.37864 478.172118 
L 97.480645 478.611797 
L 96.58265 479.16498 
L 95.684655 479.867838 
L 95.31211 480.210127 
L 94.78666 480.639913 
L 93.888665 481.501658 
L 92.99067 482.585113 
L 92.887395 482.720611 
L 92.092674 483.935824 
L 91.363662 485.231094 
L 91.194679 485.805492 
L 90.608651 487.741577 
L 90.707138 490.25206 
L 91.194679 491.364013 
L 91.988258 492.762543 
L 92.092674 492.876881 
L 92.99067 493.71196 
L 93.888665 494.30888 
L 94.78666 494.728677 
L 95.684655 495.0155 
L 96.58265 495.201283 
L 97.168048 495.273026 
z
M 92.99067 492.762543 
L 92.99067 492.762543 
L 92.092674 491.474692 
L 91.472764 490.25206 
L 91.307893 487.741577 
L 92.055674 485.231094 
L 92.092674 485.165353 
L 92.99067 483.646674 
L 93.62586 482.720611 
L 93.888665 482.39755 
L 94.78666 481.416851 
L 95.684655 480.628423 
L 96.245758 480.210127 
L 96.58265 479.930697 
L 97.480645 479.298147 
L 98.37864 478.800585 
L 99.276635 478.408925 
L 100.17463 478.103876 
L 101.072625 477.873506 
L 101.97062 477.711467 
L 102.082298 477.699644 
L 102.868616 477.585631 
L 103.766611 477.548882 
L 104.664606 477.604613 
L 105.245541 477.699644 
L 105.562601 477.740964 
L 106.460596 477.928293 
L 107.358591 478.188536 
L 108.256586 478.517332 
L 109.154581 478.907889 
L 110.052576 479.353324 
L 110.950571 479.849735 
L 111.557625 480.210127 
L 111.848566 480.424272 
L 112.746562 481.135682 
L 113.644557 481.952912 
L 114.416922 482.720611 
L 114.542552 483.136965 
L 115.275525 485.231094 
L 114.542552 486.647676 
L 114.005568 487.741577 
L 113.644557 488.042948 
L 112.746562 488.85818 
L 111.848566 489.653526 
L 111.160842 490.25206 
L 110.950571 490.401801 
L 110.052576 491.040188 
L 109.154581 491.61635 
L 108.256586 492.132115 
L 107.358591 492.591309 
L 106.996071 492.762543 
L 106.460596 493.047288 
L 105.562601 493.468371 
L 104.664606 493.823124 
L 103.766611 494.118146 
L 102.868616 494.358659 
L 101.97062 494.548488 
L 101.072625 494.689948 
L 100.17463 494.783606 
L 99.276635 494.827854 
L 98.37864 494.818302 
L 97.480645 494.746952 
L 96.58265 494.601127 
L 95.684655 494.362081 
L 94.78666 494.003138 
L 93.888665 493.487105 
z
M 120.824849 487.741577 
L 120.828517 487.690991 
L 121.010673 485.231094 
L 121.726512 484.661769 
L 122.624508 484.023685 
L 123.522503 483.483705 
L 124.420498 483.050218 
L 125.318493 482.737032 
L 125.411781 482.720611 
L 126.216488 482.632031 
L 127.114483 482.650297 
L 127.534238 482.720611 
L 128.012478 482.888326 
L 128.910473 483.617548 
L 129.808468 485.0963 
L 129.86299 485.231094 
L 129.808468 485.353829 
L 128.910473 487.271094 
L 128.680765 487.741577 
L 128.012478 488.223425 
L 127.114483 488.728404 
L 126.216488 489.096384 
L 125.318493 489.32536 
L 124.420498 489.402974 
L 123.522503 489.306514 
L 122.624508 489.006609 
L 121.726512 488.480941 
L 120.828517 487.744864 
z
" clip-path="url(#p560d77c3c8)" style="fill: #b7d4ea"/>
    <path d="M 93.888665 493.487105 
L 94.78666 494.003138 
L 95.684655 494.362081 
L 96.58265 494.601127 
L 97.480645 494.746952 
L 98.37864 494.818302 
L 99.276635 494.827854 
L 100.17463 494.783606 
L 101.072625 494.689948 
L 101.97062 494.548488 
L 102.868616 494.358659 
L 103.766611 494.118146 
L 104.664606 493.823124 
L 105.562601 493.468371 
L 106.460596 493.047288 
L 106.996071 492.762543 
L 107.358591 492.591309 
L 108.256586 492.132115 
L 109.154581 491.61635 
L 110.052576 491.040188 
L 110.950571 490.401801 
L 111.160842 490.25206 
L 111.848566 489.653526 
L 112.746562 488.85818 
L 113.644557 488.042948 
L 114.005568 487.741577 
L 114.542552 486.647676 
L 115.275525 485.231094 
L 114.542552 483.136965 
L 114.416922 482.720611 
L 113.644557 481.952912 
L 112.746562 481.135682 
L 111.848566 480.424272 
L 111.557625 480.210127 
L 110.950571 479.849735 
L 110.052576 479.353324 
L 109.154581 478.907889 
L 108.256586 478.517332 
L 107.358591 478.188536 
L 106.460596 477.928293 
L 105.562601 477.740964 
L 105.245541 477.699644 
L 104.664606 477.604613 
L 103.766611 477.548882 
L 102.868616 477.585631 
L 102.082298 477.699644 
L 101.97062 477.711467 
L 101.072625 477.873506 
L 100.17463 478.103876 
L 99.276635 478.408925 
L 98.37864 478.800585 
L 97.480645 479.298147 
L 96.58265 479.930697 
L 96.245758 480.210127 
L 95.684655 480.628423 
L 94.78666 481.416851 
L 93.888665 482.39755 
L 93.62586 482.720611 
L 92.99067 483.646674 
L 92.092674 485.165353 
L 92.055674 485.231094 
L 91.307893 487.741577 
L 91.472764 490.25206 
L 92.092674 491.474692 
L 92.99067 492.762543 
L 92.99067 492.762543 
z
M 94.752156 492.762543 
L 93.888665 491.98874 
L 92.99067 490.802747 
L 92.664272 490.25206 
L 92.36049 487.741577 
L 92.99067 485.60656 
L 93.099366 485.231094 
L 93.888665 483.957214 
L 94.78666 482.720611 
L 94.78666 482.720611 
L 95.684655 481.783301 
L 96.58265 481.027813 
L 97.480645 480.411124 
L 97.82383 480.210127 
L 98.37864 479.855201 
L 99.276635 479.395134 
L 100.17463 479.04524 
L 101.072625 478.789993 
L 101.97062 478.620593 
L 102.868616 478.533261 
L 103.766611 478.527751 
L 104.664606 478.605862 
L 105.562601 478.769799 
L 106.460596 479.020483 
L 107.358591 479.356174 
L 108.256586 479.772047 
L 109.066782 480.210127 
L 109.154581 480.265201 
L 110.052576 480.874028 
L 110.950571 481.57906 
L 111.848566 482.396222 
L 112.179263 482.720611 
L 112.746562 484.498843 
L 112.969867 485.231094 
L 112.746562 485.745163 
L 111.926859 487.741577 
L 111.848566 487.820584 
L 110.950571 488.747888 
L 110.052576 489.610251 
L 109.345068 490.25206 
L 109.154581 490.389674 
L 108.256586 491.009099 
L 107.358591 491.554352 
L 106.460596 492.032131 
L 105.562601 492.44827 
L 104.78258 492.762543 
L 104.664606 492.815269 
L 103.766611 493.166232 
L 102.868616 493.448678 
L 101.97062 493.667237 
L 101.072625 493.824566 
L 100.17463 493.921069 
L 99.276635 493.954407 
L 98.37864 493.918782 
L 97.480645 493.803966 
L 96.58265 493.59402 
L 95.684655 493.265596 
L 94.78666 492.785631 
z
M 120.828517 487.744864 
L 121.726512 488.480941 
L 122.624508 489.006609 
L 123.522503 489.306514 
L 124.420498 489.402974 
L 125.318493 489.32536 
L 126.216488 489.096384 
L 127.114483 488.728404 
L 128.012478 488.223425 
L 128.680765 487.741577 
L 128.910473 487.271094 
L 129.808468 485.353829 
L 129.86299 485.231094 
L 129.808468 485.0963 
L 128.910473 483.617548 
L 128.012478 482.888326 
L 127.534238 482.720611 
L 127.114483 482.650297 
L 126.216488 482.632031 
L 125.411781 482.720611 
L 125.318493 482.737032 
L 124.420498 483.050218 
L 123.522503 483.483705 
L 122.624508 484.023685 
L 121.726512 484.661769 
L 121.010673 485.231094 
L 120.828517 487.690991 
L 120.824849 487.741577 
z
" clip-path="url(#p560d77c3c8)" style="fill: #9fcae1"/>
    <path d="M 94.78666 492.785631 
L 95.684655 493.265596 
L 96.58265 493.59402 
L 97.480645 493.803966 
L 98.37864 493.918782 
L 99.276635 493.954407 
L 100.17463 493.921069 
L 101.072625 493.824566 
L 101.97062 493.667237 
L 102.868616 493.448678 
L 103.766611 493.166232 
L 104.664606 492.815269 
L 104.78258 492.762543 
L 105.562601 492.44827 
L 106.460596 492.032131 
L 107.358591 491.554352 
L 108.256586 491.009099 
L 109.154581 490.389674 
L 109.345068 490.25206 
L 110.052576 489.610251 
L 110.950571 488.747888 
L 111.848566 487.820584 
L 111.926859 487.741577 
L 112.746562 485.745163 
L 112.969867 485.231094 
L 112.746562 484.498843 
L 112.179263 482.720611 
L 111.848566 482.396222 
L 110.950571 481.57906 
L 110.052576 480.874028 
L 109.154581 480.265201 
L 109.066782 480.210127 
L 108.256586 479.772047 
L 107.358591 479.356174 
L 106.460596 479.020483 
L 105.562601 478.769799 
L 104.664606 478.605862 
L 103.766611 478.527751 
L 102.868616 478.533261 
L 101.97062 478.620593 
L 101.072625 478.789993 
L 100.17463 479.04524 
L 99.276635 479.395134 
L 98.37864 479.855201 
L 97.82383 480.210127 
L 97.480645 480.411124 
L 96.58265 481.027813 
L 95.684655 481.783301 
L 94.78666 482.720611 
L 94.78666 482.720611 
L 93.888665 483.957214 
L 93.099366 485.231094 
L 92.99067 485.60656 
L 92.36049 487.741577 
L 92.664272 490.25206 
L 92.99067 490.802747 
L 93.888665 491.98874 
L 94.752156 492.762543 
z
M 94.281881 490.25206 
L 93.888665 488.606276 
L 93.72105 487.741577 
L 93.888665 487.165816 
L 94.444045 485.231094 
L 94.78666 484.712252 
L 95.684655 483.493671 
L 96.338203 482.720611 
L 96.58265 482.490664 
L 97.480645 481.762808 
L 98.37864 481.178617 
L 99.276635 480.712823 
L 100.17463 480.349846 
L 100.642237 480.210127 
L 101.072625 480.07304 
L 101.97062 479.893335 
L 102.868616 479.817917 
L 103.766611 479.845004 
L 104.664606 479.975306 
L 105.562601 480.210127 
L 105.562601 480.210127 
L 106.460596 480.562992 
L 107.358591 481.030438 
L 108.256586 481.610534 
L 109.154581 482.30294 
L 109.638481 482.720611 
L 110.052576 483.624235 
L 110.689089 485.231094 
L 110.052576 486.989454 
L 109.794603 487.741577 
L 109.154581 488.405884 
L 108.256586 489.275241 
L 107.358591 490.068562 
L 107.138084 490.25206 
L 106.460596 490.679709 
L 105.562601 491.176312 
L 104.664606 491.598915 
L 103.766611 491.952448 
L 102.868616 492.240371 
L 101.97062 492.464443 
L 101.072625 492.624202 
L 100.17463 492.71614 
L 99.276635 492.7325 
L 98.37864 492.659647 
L 97.480645 492.475847 
L 96.58265 492.148269 
L 95.684655 491.628797 
L 94.78666 490.847992 
z
" clip-path="url(#p560d77c3c8)" style="fill: #74b3d8"/>
    <path d="M 94.78666 490.847992 
L 95.684655 491.628797 
L 96.58265 492.148269 
L 97.480645 492.475847 
L 98.37864 492.659647 
L 99.276635 492.7325 
L 100.17463 492.71614 
L 101.072625 492.624202 
L 101.97062 492.464443 
L 102.868616 492.240371 
L 103.766611 491.952448 
L 104.664606 491.598915 
L 105.562601 491.176312 
L 106.460596 490.679709 
L 107.138084 490.25206 
L 107.358591 490.068562 
L 108.256586 489.275241 
L 109.154581 488.405884 
L 109.794603 487.741577 
L 110.052576 486.989454 
L 110.689089 485.231094 
L 110.052576 483.624235 
L 109.638481 482.720611 
L 109.154581 482.30294 
L 108.256586 481.610534 
L 107.358591 481.030438 
L 106.460596 480.562992 
L 105.562601 480.210127 
L 105.562601 480.210127 
L 104.664606 479.975306 
L 103.766611 479.845004 
L 102.868616 479.817917 
L 101.97062 479.893335 
L 101.072625 480.07304 
L 100.642237 480.210127 
L 100.17463 480.349846 
L 99.276635 480.712823 
L 98.37864 481.178617 
L 97.480645 481.762808 
L 96.58265 482.490664 
L 96.338203 482.720611 
L 95.684655 483.493671 
L 94.78666 484.712252 
L 94.444045 485.231094 
L 93.888665 487.165816 
L 93.72105 487.741577 
L 93.888665 488.606276 
L 94.281881 490.25206 
z
M 97.054308 490.25206 
L 96.58265 489.642495 
L 95.684655 487.741577 
L 96.390203 485.231094 
L 96.58265 484.986184 
L 97.480645 483.982976 
L 98.37864 483.13736 
L 98.908642 482.720611 
L 99.276635 482.50593 
L 100.17463 482.108793 
L 101.072625 481.838525 
L 101.97062 481.690444 
L 102.868616 481.665237 
L 103.766611 481.767056 
L 104.664606 482.001493 
L 105.562601 482.373579 
L 106.184213 482.720611 
L 106.460596 483.035292 
L 107.358591 484.340384 
L 107.853149 485.231094 
L 107.358591 486.804801 
L 107.070051 487.741577 
L 106.460596 488.303243 
L 105.562601 489.046899 
L 104.664606 489.696768 
L 103.771125 490.25206 
L 103.766611 490.254098 
L 102.868616 490.586501 
L 101.97062 490.830925 
L 101.072625 490.985621 
L 100.17463 491.044699 
L 99.276635 490.996617 
L 98.37864 490.822109 
L 97.480645 490.491367 
z
" clip-path="url(#p560d77c3c8)" style="fill: #3f8fc5"/>
    <path d="M 97.480645 490.491367 
L 98.37864 490.822109 
L 99.276635 490.996617 
L 100.17463 491.044699 
L 101.072625 490.985621 
L 101.97062 490.830925 
L 102.868616 490.586501 
L 103.766611 490.254098 
L 103.771125 490.25206 
L 104.664606 489.696768 
L 105.562601 489.046899 
L 106.460596 488.303243 
L 107.070051 487.741577 
L 107.358591 486.804801 
L 107.853149 485.231094 
L 107.358591 484.340384 
L 106.460596 483.035292 
L 106.184213 482.720611 
L 105.562601 482.373579 
L 104.664606 482.001493 
L 103.766611 481.767056 
L 102.868616 481.665237 
L 101.97062 481.690444 
L 101.072625 481.838525 
L 100.17463 482.108793 
L 99.276635 482.50593 
L 98.908642 482.720611 
L 98.37864 483.13736 
L 97.480645 483.982976 
L 96.58265 484.986184 
L 96.390203 485.231094 
L 95.684655 487.741577 
L 96.58265 489.642495 
L 97.054308 490.25206 
z
M 96.971747 487.741577 
L 97.480645 485.828733 
L 97.64278 485.231094 
L 98.37864 484.524074 
L 99.276635 483.825365 
L 100.17463 483.284888 
L 101.072625 482.907678 
L 101.9275 482.720611 
L 101.97062 482.714159 
L 102.868616 482.720611 
L 102.868616 482.720611 
L 103.766611 482.972233 
L 104.664606 483.504045 
L 105.562601 484.355538 
L 106.230855 485.231094 
L 105.562601 487.449039 
L 105.472794 487.741577 
L 104.664606 488.35571 
L 103.766611 488.929024 
L 102.868616 489.389523 
L 101.97062 489.730865 
L 101.072625 489.939151 
L 100.17463 489.987991 
L 99.276635 489.830798 
L 98.37864 489.38825 
L 97.480645 488.526918 
z
" clip-path="url(#p560d77c3c8)" style="fill: #1b69af"/>
    <path d="M 97.480645 488.526918 
L 98.37864 489.38825 
L 99.276635 489.830798 
L 100.17463 489.987991 
L 101.072625 489.939151 
L 101.97062 489.730865 
L 102.868616 489.389523 
L 103.766611 488.929024 
L 104.664606 488.35571 
L 105.472794 487.741577 
L 105.562601 487.449039 
L 106.230855 485.231094 
L 105.562601 484.355538 
L 104.664606 483.504045 
L 103.766611 482.972233 
L 102.868616 482.720611 
L 102.868616 482.720611 
L 101.97062 482.714159 
L 101.9275 482.720611 
L 101.072625 482.907678 
L 100.17463 483.284888 
L 99.276635 483.825365 
L 98.37864 484.524074 
L 97.64278 485.231094 
L 97.480645 485.828733 
L 96.971747 487.741577 
z
" clip-path="url(#p560d77c3c8)" style="fill: #08468b"/>
   </g>
   <g id="matplotlib.axis_1">
    <g id="xtick_1">
     <g id="line2d_1">
      <defs>
       <path id="mbd5fbdb752" d="M 0 0 
L 0 3.5 
" style="stroke: #000000; stroke-width: 0.8"/>
      </defs>
      <g>
       <use xlink:href="#mbd5fbdb752" x="84.651805" y="499.48" style="stroke: #000000; stroke-width: 0.8"/>
      </g>
     </g>
     <g id="text_1">
      <!-- 0 -->
      <g transform="translate(77.653055 523.196563) scale(0.22 -0.22)">
       <defs>
        <path id="DejaVuSans-30" d="M 2034 4250 
Q 1547 4250 1301 3770 
Q 1056 3291 1056 2328 
Q 1056 1369 1301 889 
Q 1547 409 2034 409 
Q 2525 409 2770 889 
Q 3016 1369 3016 2328 
Q 3016 3291 2770 3770 
Q 2525 4250 2034 4250 
z
M 2034 4750 
Q 2819 4750 3233 4129 
Q 3647 3509 3647 2328 
Q 3647 1150 3233 529 
Q 2819 -91 2034 -91 
Q 1250 -91 836 529 
Q 422 1150 422 2328 
Q 422 3509 836 4129 
Q 1250 4750 2034 4750 
z
" transform="scale(0.015625)"/>
       </defs>
       <use xlink:href="#DejaVuSans-30"/>
      </g>
     </g>
    </g>
    <g id="xtick_2">
     <g id="line2d_2">
      <g>
       <use xlink:href="#mbd5fbdb752" x="174.308471" y="499.48" style="stroke: #000000; stroke-width: 0.8"/>
      </g>
     </g>
     <g id="text_2">
      <!-- 10 -->
      <g transform="translate(160.310971 523.196563) scale(0.22 -0.22)">
       <defs>
        <path id="DejaVuSans-31" d="M 794 531 
L 1825 531 
L 1825 4091 
L 703 3866 
L 703 4441 
L 1819 4666 
L 2450 4666 
L 2450 531 
L 3481 531 
L 3481 0 
L 794 0 
L 794 531 
z
" transform="scale(0.015625)"/>
       </defs>
       <use xlink:href="#DejaVuSans-31"/>
       <use xlink:href="#DejaVuSans-30" x="63.623047"/>
      </g>
     </g>
    </g>
    <g id="xtick_3">
     <g id="line2d_3">
      <g>
       <use xlink:href="#mbd5fbdb752" x="263.965137" y="499.48" style="stroke: #000000; stroke-width: 0.8"/>
      </g>
     </g>
     <g id="text_3">
      <!-- 20 -->
      <g transform="translate(249.967637 523.196563) scale(0.22 -0.22)">
       <defs>
        <path id="DejaVuSans-32" d="M 1228 531 
L 3431 531 
L 3431 0 
L 469 0 
L 469 531 
Q 828 903 1448 1529 
Q 2069 2156 2228 2338 
Q 2531 2678 2651 2914 
Q 2772 3150 2772 3378 
Q 2772 3750 2511 3984 
Q 2250 4219 1831 4219 
Q 1534 4219 1204 4116 
Q 875 4013 500 3803 
L 500 4441 
Q 881 4594 1212 4672 
Q 1544 4750 1819 4750 
Q 2544 4750 2975 4387 
Q 3406 4025 3406 3419 
Q 3406 3131 3298 2873 
Q 3191 2616 2906 2266 
Q 2828 2175 2409 1742 
Q 1991 1309 1228 531 
z
" transform="scale(0.015625)"/>
       </defs>
       <use xlink:href="#DejaVuSans-32"/>
       <use xlink:href="#DejaVuSans-30" x="63.623047"/>
      </g>
     </g>
    </g>
    <g id="xtick_4">
     <g id="line2d_4">
      <g>
       <use xlink:href="#mbd5fbdb752" x="353.621803" y="499.48" style="stroke: #000000; stroke-width: 0.8"/>
      </g>
     </g>
     <g id="text_4">
      <!-- 30 -->
      <g transform="translate(339.624303 523.196563) scale(0.22 -0.22)">
       <defs>
        <path id="DejaVuSans-33" d="M 2597 2516 
Q 3050 2419 3304 2112 
Q 3559 1806 3559 1356 
Q 3559 666 3084 287 
Q 2609 -91 1734 -91 
Q 1441 -91 1130 -33 
Q 819 25 488 141 
L 488 750 
Q 750 597 1062 519 
Q 1375 441 1716 441 
Q 2309 441 2620 675 
Q 2931 909 2931 1356 
Q 2931 1769 2642 2001 
Q 2353 2234 1838 2234 
L 1294 2234 
L 1294 2753 
L 1863 2753 
Q 2328 2753 2575 2939 
Q 2822 3125 2822 3475 
Q 2822 3834 2567 4026 
Q 2313 4219 1838 4219 
Q 1578 4219 1281 4162 
Q 984 4106 628 3988 
L 628 4550 
Q 988 4650 1302 4700 
Q 1616 4750 1894 4750 
Q 2613 4750 3031 4423 
Q 3450 4097 3450 3541 
Q 3450 3153 3228 2886 
Q 3006 2619 2597 2516 
z
" transform="scale(0.015625)"/>
       </defs>
       <use xlink:href="#DejaVuSans-33"/>
       <use xlink:href="#DejaVuSans-30" x="63.623047"/>
      </g>
     </g>
    </g>
    <g id="xtick_5">
     <g id="line2d_5">
      <g>
       <use xlink:href="#mbd5fbdb752" x="443.278469" y="499.48" style="stroke: #000000; stroke-width: 0.8"/>
      </g>
     </g>
     <g id="text_5">
      <!-- 40 -->
      <g transform="translate(429.280969 523.196563) scale(0.22 -0.22)">
       <defs>
        <path id="DejaVuSans-34" d="M 2419 4116 
L 825 1625 
L 2419 1625 
L 2419 4116 
z
M 2253 4666 
L 3047 4666 
L 3047 1625 
L 3713 1625 
L 3713 1100 
L 3047 1100 
L 3047 0 
L 2419 0 
L 2419 1100 
L 313 1100 
L 313 1709 
L 2253 4666 
z
" transform="scale(0.015625)"/>
       </defs>
       <use xlink:href="#DejaVuSans-34"/>
       <use xlink:href="#DejaVuSans-30" x="63.623047"/>
      </g>
     </g>
    </g>
    <g id="xtick_6">
     <g id="line2d_6">
      <g>
       <use xlink:href="#mbd5fbdb752" x="532.935135" y="499.48" style="stroke: #000000; stroke-width: 0.8"/>
      </g>
     </g>
     <g id="text_6">
      <!-- 50 -->
      <g transform="translate(518.937635 523.196563) scale(0.22 -0.22)">
       <defs>
        <path id="DejaVuSans-35" d="M 691 4666 
L 3169 4666 
L 3169 4134 
L 1269 4134 
L 1269 2991 
Q 1406 3038 1543 3061 
Q 1681 3084 1819 3084 
Q 2600 3084 3056 2656 
Q 3513 2228 3513 1497 
Q 3513 744 3044 326 
Q 2575 -91 1722 -91 
Q 1428 -91 1123 -41 
Q 819 9 494 109 
L 494 744 
Q 775 591 1075 516 
Q 1375 441 1709 441 
Q 2250 441 2565 725 
Q 2881 1009 2881 1497 
Q 2881 1984 2565 2268 
Q 2250 2553 1709 2553 
Q 1456 2553 1204 2497 
Q 953 2441 691 2322 
L 691 4666 
z
" transform="scale(0.015625)"/>
       </defs>
       <use xlink:href="#DejaVuSans-35"/>
       <use xlink:href="#DejaVuSans-30" x="63.623047"/>
      </g>
     </g>
    </g>
    <g id="xtick_7">
     <g id="line2d_7">
      <g>
       <use xlink:href="#mbd5fbdb752" x="622.591801" y="499.48" style="stroke: #000000; stroke-width: 0.8"/>
      </g>
     </g>
     <g id="text_7">
      <!-- 60 -->
      <g transform="translate(608.594301 523.196563) scale(0.22 -0.22)">
       <defs>
        <path id="DejaVuSans-36" d="M 2113 2584 
Q 1688 2584 1439 2293 
Q 1191 2003 1191 1497 
Q 1191 994 1439 701 
Q 1688 409 2113 409 
Q 2538 409 2786 701 
Q 3034 994 3034 1497 
Q 3034 2003 2786 2293 
Q 2538 2584 2113 2584 
z
M 3366 4563 
L 3366 3988 
Q 3128 4100 2886 4159 
Q 2644 4219 2406 4219 
Q 1781 4219 1451 3797 
Q 1122 3375 1075 2522 
Q 1259 2794 1537 2939 
Q 1816 3084 2150 3084 
Q 2853 3084 3261 2657 
Q 3669 2231 3669 1497 
Q 3669 778 3244 343 
Q 2819 -91 2113 -91 
Q 1303 -91 875 529 
Q 447 1150 447 2328 
Q 447 3434 972 4092 
Q 1497 4750 2381 4750 
Q 2619 4750 2861 4703 
Q 3103 4656 3366 4563 
z
" transform="scale(0.015625)"/>
       </defs>
       <use xlink:href="#DejaVuSans-36"/>
       <use xlink:href="#DejaVuSans-30" x="63.623047"/>
      </g>
     </g>
    </g>
    <g id="text_8">
     <!-- Force Uncertainties -->
     <g transform="translate(283.426094 548.488438) scale(0.22 -0.22)">
      <defs>
       <path id="DejaVuSans-46" d="M 628 4666 
L 3309 4666 
L 3309 4134 
L 1259 4134 
L 1259 2759 
L 3109 2759 
L 3109 2228 
L 1259 2228 
L 1259 0 
L 628 0 
L 628 4666 
z
" transform="scale(0.015625)"/>
       <path id="DejaVuSans-6f" d="M 1959 3097 
Q 1497 3097 1228 2736 
Q 959 2375 959 1747 
Q 959 1119 1226 758 
Q 1494 397 1959 397 
Q 2419 397 2687 759 
Q 2956 1122 2956 1747 
Q 2956 2369 2687 2733 
Q 2419 3097 1959 3097 
z
M 1959 3584 
Q 2709 3584 3137 3096 
Q 3566 2609 3566 1747 
Q 3566 888 3137 398 
Q 2709 -91 1959 -91 
Q 1206 -91 779 398 
Q 353 888 353 1747 
Q 353 2609 779 3096 
Q 1206 3584 1959 3584 
z
" transform="scale(0.015625)"/>
       <path id="DejaVuSans-72" d="M 2631 2963 
Q 2534 3019 2420 3045 
Q 2306 3072 2169 3072 
Q 1681 3072 1420 2755 
Q 1159 2438 1159 1844 
L 1159 0 
L 581 0 
L 581 3500 
L 1159 3500 
L 1159 2956 
Q 1341 3275 1631 3429 
Q 1922 3584 2338 3584 
Q 2397 3584 2469 3576 
Q 2541 3569 2628 3553 
L 2631 2963 
z
" transform="scale(0.015625)"/>
       <path id="DejaVuSans-63" d="M 3122 3366 
L 3122 2828 
Q 2878 2963 2633 3030 
Q 2388 3097 2138 3097 
Q 1578 3097 1268 2742 
Q 959 2388 959 1747 
Q 959 1106 1268 751 
Q 1578 397 2138 397 
Q 2388 397 2633 464 
Q 2878 531 3122 666 
L 3122 134 
Q 2881 22 2623 -34 
Q 2366 -91 2075 -91 
Q 1284 -91 818 406 
Q 353 903 353 1747 
Q 353 2603 823 3093 
Q 1294 3584 2113 3584 
Q 2378 3584 2631 3529 
Q 2884 3475 3122 3366 
z
" transform="scale(0.015625)"/>
       <path id="DejaVuSans-65" d="M 3597 1894 
L 3597 1613 
L 953 1613 
Q 991 1019 1311 708 
Q 1631 397 2203 397 
Q 2534 397 2845 478 
Q 3156 559 3463 722 
L 3463 178 
Q 3153 47 2828 -22 
Q 2503 -91 2169 -91 
Q 1331 -91 842 396 
Q 353 884 353 1716 
Q 353 2575 817 3079 
Q 1281 3584 2069 3584 
Q 2775 3584 3186 3129 
Q 3597 2675 3597 1894 
z
M 3022 2063 
Q 3016 2534 2758 2815 
Q 2500 3097 2075 3097 
Q 1594 3097 1305 2825 
Q 1016 2553 972 2059 
L 3022 2063 
z
" transform="scale(0.015625)"/>
       <path id="DejaVuSans-20" transform="scale(0.015625)"/>
       <path id="DejaVuSans-55" d="M 556 4666 
L 1191 4666 
L 1191 1831 
Q 1191 1081 1462 751 
Q 1734 422 2344 422 
Q 2950 422 3222 751 
Q 3494 1081 3494 1831 
L 3494 4666 
L 4128 4666 
L 4128 1753 
Q 4128 841 3676 375 
Q 3225 -91 2344 -91 
Q 1459 -91 1007 375 
Q 556 841 556 1753 
L 556 4666 
z
" transform="scale(0.015625)"/>
       <path id="DejaVuSans-6e" d="M 3513 2113 
L 3513 0 
L 2938 0 
L 2938 2094 
Q 2938 2591 2744 2837 
Q 2550 3084 2163 3084 
Q 1697 3084 1428 2787 
Q 1159 2491 1159 1978 
L 1159 0 
L 581 0 
L 581 3500 
L 1159 3500 
L 1159 2956 
Q 1366 3272 1645 3428 
Q 1925 3584 2291 3584 
Q 2894 3584 3203 3211 
Q 3513 2838 3513 2113 
z
" transform="scale(0.015625)"/>
       <path id="DejaVuSans-74" d="M 1172 4494 
L 1172 3500 
L 2356 3500 
L 2356 3053 
L 1172 3053 
L 1172 1153 
Q 1172 725 1289 603 
Q 1406 481 1766 481 
L 2356 481 
L 2356 0 
L 1766 0 
Q 1100 0 847 248 
Q 594 497 594 1153 
L 594 3053 
L 172 3053 
L 172 3500 
L 594 3500 
L 594 4494 
L 1172 4494 
z
" transform="scale(0.015625)"/>
       <path id="DejaVuSans-61" d="M 2194 1759 
Q 1497 1759 1228 1600 
Q 959 1441 959 1056 
Q 959 750 1161 570 
Q 1363 391 1709 391 
Q 2188 391 2477 730 
Q 2766 1069 2766 1631 
L 2766 1759 
L 2194 1759 
z
M 3341 1997 
L 3341 0 
L 2766 0 
L 2766 531 
Q 2569 213 2275 61 
Q 1981 -91 1556 -91 
Q 1019 -91 701 211 
Q 384 513 384 1019 
Q 384 1609 779 1909 
Q 1175 2209 1959 2209 
L 2766 2209 
L 2766 2266 
Q 2766 2663 2505 2880 
Q 2244 3097 1772 3097 
Q 1472 3097 1187 3025 
Q 903 2953 641 2809 
L 641 3341 
Q 956 3463 1253 3523 
Q 1550 3584 1831 3584 
Q 2591 3584 2966 3190 
Q 3341 2797 3341 1997 
z
" transform="scale(0.015625)"/>
       <path id="DejaVuSans-69" d="M 603 3500 
L 1178 3500 
L 1178 0 
L 603 0 
L 603 3500 
z
M 603 4863 
L 1178 4863 
L 1178 4134 
L 603 4134 
L 603 4863 
z
" transform="scale(0.015625)"/>
       <path id="DejaVuSans-73" d="M 2834 3397 
L 2834 2853 
Q 2591 2978 2328 3040 
Q 2066 3103 1784 3103 
Q 1356 3103 1142 2972 
Q 928 2841 928 2578 
Q 928 2378 1081 2264 
Q 1234 2150 1697 2047 
L 1894 2003 
Q 2506 1872 2764 1633 
Q 3022 1394 3022 966 
Q 3022 478 2636 193 
Q 2250 -91 1575 -91 
Q 1294 -91 989 -36 
Q 684 19 347 128 
L 347 722 
Q 666 556 975 473 
Q 1284 391 1588 391 
Q 1994 391 2212 530 
Q 2431 669 2431 922 
Q 2431 1156 2273 1281 
Q 2116 1406 1581 1522 
L 1381 1569 
Q 847 1681 609 1914 
Q 372 2147 372 2553 
Q 372 3047 722 3315 
Q 1072 3584 1716 3584 
Q 2034 3584 2315 3537 
Q 2597 3491 2834 3397 
z
" transform="scale(0.015625)"/>
      </defs>
      <use xlink:href="#DejaVuSans-46"/>
      <use xlink:href="#DejaVuSans-6f" x="53.894531"/>
      <use xlink:href="#DejaVuSans-72" x="115.076172"/>
      <use xlink:href="#DejaVuSans-63" x="153.939453"/>
      <use xlink:href="#DejaVuSans-65" x="208.919922"/>
      <use xlink:href="#DejaVuSans-20" x="270.443359"/>
      <use xlink:href="#DejaVuSans-55" x="302.230469"/>
      <use xlink:href="#DejaVuSans-6e" x="375.423828"/>
      <use xlink:href="#DejaVuSans-63" x="438.802734"/>
      <use xlink:href="#DejaVuSans-65" x="493.783203"/>
      <use xlink:href="#DejaVuSans-72" x="555.306641"/>
      <use xlink:href="#DejaVuSans-74" x="596.419922"/>
      <use xlink:href="#DejaVuSans-61" x="635.628906"/>
      <use xlink:href="#DejaVuSans-69" x="696.908203"/>
      <use xlink:href="#DejaVuSans-6e" x="724.691406"/>
      <use xlink:href="#DejaVuSans-74" x="788.070312"/>
      <use xlink:href="#DejaVuSans-69" x="827.279297"/>
      <use xlink:href="#DejaVuSans-65" x="855.0625"/>
      <use xlink:href="#DejaVuSans-73" x="916.585938"/>
     </g>
    </g>
   </g>
   <g id="matplotlib.axis_2">
    <g id="ytick_1">
     <g id="line2d_8">
      <defs>
       <path id="m24da8086e5" d="M 0 0 
L -3.5 0 
" style="stroke: #000000; stroke-width: 0.8"/>
      </defs>
      <g>
       <use xlink:href="#m24da8086e5" x="83.72" y="498.756304" style="stroke: #000000; stroke-width: 0.8"/>
      </g>
     </g>
     <g id="text_9">
      <!-- 0 -->
      <g transform="translate(62.7225 507.114585) scale(0.22 -0.22)">
       <use xlink:href="#DejaVuSans-30"/>
      </g>
     </g>
    </g>
    <g id="ytick_2">
     <g id="line2d_9">
      <g>
       <use xlink:href="#m24da8086e5" x="83.72" y="429.123526" style="stroke: #000000; stroke-width: 0.8"/>
      </g>
     </g>
     <g id="text_10">
      <!-- 10 -->
      <g transform="translate(48.725 437.481807) scale(0.22 -0.22)">
       <use xlink:href="#DejaVuSans-31"/>
       <use xlink:href="#DejaVuSans-30" x="63.623047"/>
      </g>
     </g>
    </g>
    <g id="ytick_3">
     <g id="line2d_10">
      <g>
       <use xlink:href="#m24da8086e5" x="83.72" y="359.490748" style="stroke: #000000; stroke-width: 0.8"/>
      </g>
     </g>
     <g id="text_11">
      <!-- 20 -->
      <g transform="translate(48.725 367.849029) scale(0.22 -0.22)">
       <use xlink:href="#DejaVuSans-32"/>
       <use xlink:href="#DejaVuSans-30" x="63.623047"/>
      </g>
     </g>
    </g>
    <g id="ytick_4">
     <g id="line2d_11">
      <g>
       <use xlink:href="#m24da8086e5" x="83.72" y="289.85797" style="stroke: #000000; stroke-width: 0.8"/>
      </g>
     </g>
     <g id="text_12">
      <!-- 30 -->
      <g transform="translate(48.725 298.216251) scale(0.22 -0.22)">
       <use xlink:href="#DejaVuSans-33"/>
       <use xlink:href="#DejaVuSans-30" x="63.623047"/>
      </g>
     </g>
    </g>
    <g id="ytick_5">
     <g id="line2d_12">
      <g>
       <use xlink:href="#m24da8086e5" x="83.72" y="220.225192" style="stroke: #000000; stroke-width: 0.8"/>
      </g>
     </g>
     <g id="text_13">
      <!-- 40 -->
      <g transform="translate(48.725 228.583473) scale(0.22 -0.22)">
       <use xlink:href="#DejaVuSans-34"/>
       <use xlink:href="#DejaVuSans-30" x="63.623047"/>
      </g>
     </g>
    </g>
    <g id="ytick_6">
     <g id="line2d_13">
      <g>
       <use xlink:href="#m24da8086e5" x="83.72" y="150.592414" style="stroke: #000000; stroke-width: 0.8"/>
      </g>
     </g>
     <g id="text_14">
      <!-- 50 -->
      <g transform="translate(48.725 158.950695) scale(0.22 -0.22)">
       <use xlink:href="#DejaVuSans-35"/>
       <use xlink:href="#DejaVuSans-30" x="63.623047"/>
      </g>
     </g>
    </g>
    <g id="ytick_7">
     <g id="line2d_14">
      <g>
       <use xlink:href="#m24da8086e5" x="83.72" y="80.959636" style="stroke: #000000; stroke-width: 0.8"/>
      </g>
     </g>
     <g id="text_15">
      <!-- 60 -->
      <g transform="translate(48.725 89.317917) scale(0.22 -0.22)">
       <use xlink:href="#DejaVuSans-36"/>
       <use xlink:href="#DejaVuSans-30" x="63.623047"/>
      </g>
     </g>
    </g>
    <g id="text_16">
     <!-- Force Errors [kJ/(mol*A)] -->
     <g transform="translate(40.149688 394.9125) rotate(-90) scale(0.22 -0.22)">
      <defs>
       <path id="DejaVuSans-45" d="M 628 4666 
L 3578 4666 
L 3578 4134 
L 1259 4134 
L 1259 2753 
L 3481 2753 
L 3481 2222 
L 1259 2222 
L 1259 531 
L 3634 531 
L 3634 0 
L 628 0 
L 628 4666 
z
" transform="scale(0.015625)"/>
       <path id="DejaVuSans-5b" d="M 550 4863 
L 1875 4863 
L 1875 4416 
L 1125 4416 
L 1125 -397 
L 1875 -397 
L 1875 -844 
L 550 -844 
L 550 4863 
z
" transform="scale(0.015625)"/>
       <path id="DejaVuSans-6b" d="M 581 4863 
L 1159 4863 
L 1159 1991 
L 2875 3500 
L 3609 3500 
L 1753 1863 
L 3688 0 
L 2938 0 
L 1159 1709 
L 1159 0 
L 581 0 
L 581 4863 
z
" transform="scale(0.015625)"/>
       <path id="DejaVuSans-4a" d="M 628 4666 
L 1259 4666 
L 1259 325 
Q 1259 -519 939 -900 
Q 619 -1281 -91 -1281 
L -331 -1281 
L -331 -750 
L -134 -750 
Q 284 -750 456 -515 
Q 628 -281 628 325 
L 628 4666 
z
" transform="scale(0.015625)"/>
       <path id="DejaVuSans-2f" d="M 1625 4666 
L 2156 4666 
L 531 -594 
L 0 -594 
L 1625 4666 
z
" transform="scale(0.015625)"/>
       <path id="DejaVuSans-28" d="M 1984 4856 
Q 1566 4138 1362 3434 
Q 1159 2731 1159 2009 
Q 1159 1288 1364 580 
Q 1569 -128 1984 -844 
L 1484 -844 
Q 1016 -109 783 600 
Q 550 1309 550 2009 
Q 550 2706 781 3412 
Q 1013 4119 1484 4856 
L 1984 4856 
z
" transform="scale(0.015625)"/>
       <path id="DejaVuSans-6d" d="M 3328 2828 
Q 3544 3216 3844 3400 
Q 4144 3584 4550 3584 
Q 5097 3584 5394 3201 
Q 5691 2819 5691 2113 
L 5691 0 
L 5113 0 
L 5113 2094 
Q 5113 2597 4934 2840 
Q 4756 3084 4391 3084 
Q 3944 3084 3684 2787 
Q 3425 2491 3425 1978 
L 3425 0 
L 2847 0 
L 2847 2094 
Q 2847 2600 2669 2842 
Q 2491 3084 2119 3084 
Q 1678 3084 1418 2786 
Q 1159 2488 1159 1978 
L 1159 0 
L 581 0 
L 581 3500 
L 1159 3500 
L 1159 2956 
Q 1356 3278 1631 3431 
Q 1906 3584 2284 3584 
Q 2666 3584 2933 3390 
Q 3200 3197 3328 2828 
z
" transform="scale(0.015625)"/>
       <path id="DejaVuSans-6c" d="M 603 4863 
L 1178 4863 
L 1178 0 
L 603 0 
L 603 4863 
z
" transform="scale(0.015625)"/>
       <path id="DejaVuSans-2a" d="M 3009 3897 
L 1888 3291 
L 3009 2681 
L 2828 2375 
L 1778 3009 
L 1778 1831 
L 1422 1831 
L 1422 3009 
L 372 2375 
L 191 2681 
L 1313 3291 
L 191 3897 
L 372 4206 
L 1422 3572 
L 1422 4750 
L 1778 4750 
L 1778 3572 
L 2828 4206 
L 3009 3897 
z
" transform="scale(0.015625)"/>
       <path id="DejaVuSans-41" d="M 2188 4044 
L 1331 1722 
L 3047 1722 
L 2188 4044 
z
M 1831 4666 
L 2547 4666 
L 4325 0 
L 3669 0 
L 3244 1197 
L 1141 1197 
L 716 0 
L 50 0 
L 1831 4666 
z
" transform="scale(0.015625)"/>
       <path id="DejaVuSans-29" d="M 513 4856 
L 1013 4856 
Q 1481 4119 1714 3412 
Q 1947 2706 1947 2009 
Q 1947 1309 1714 600 
Q 1481 -109 1013 -844 
L 513 -844 
Q 928 -128 1133 580 
Q 1338 1288 1338 2009 
Q 1338 2731 1133 3434 
Q 928 4138 513 4856 
z
" transform="scale(0.015625)"/>
       <path id="DejaVuSans-5d" d="M 1947 4863 
L 1947 -844 
L 622 -844 
L 622 -397 
L 1369 -397 
L 1369 4416 
L 622 4416 
L 622 4863 
L 1947 4863 
z
" transform="scale(0.015625)"/>
      </defs>
      <use xlink:href="#DejaVuSans-46"/>
      <use xlink:href="#DejaVuSans-6f" x="53.894531"/>
      <use xlink:href="#DejaVuSans-72" x="115.076172"/>
      <use xlink:href="#DejaVuSans-63" x="153.939453"/>
      <use xlink:href="#DejaVuSans-65" x="208.919922"/>
      <use xlink:href="#DejaVuSans-20" x="270.443359"/>
      <use xlink:href="#DejaVuSans-45" x="302.230469"/>
      <use xlink:href="#DejaVuSans-72" x="365.414062"/>
      <use xlink:href="#DejaVuSans-72" x="404.777344"/>
      <use xlink:href="#DejaVuSans-6f" x="443.640625"/>
      <use xlink:href="#DejaVuSans-72" x="504.822266"/>
      <use xlink:href="#DejaVuSans-73" x="545.935547"/>
      <use xlink:href="#DejaVuSans-20" x="598.035156"/>
      <use xlink:href="#DejaVuSans-5b" x="629.822266"/>
      <use xlink:href="#DejaVuSans-6b" x="668.835938"/>
      <use xlink:href="#DejaVuSans-4a" x="726.746094"/>
      <use xlink:href="#DejaVuSans-2f" x="756.238281"/>
      <use xlink:href="#DejaVuSans-28" x="789.929688"/>
      <use xlink:href="#DejaVuSans-6d" x="828.943359"/>
      <use xlink:href="#DejaVuSans-6f" x="926.355469"/>
      <use xlink:href="#DejaVuSans-6c" x="987.537109"/>
      <use xlink:href="#DejaVuSans-2a" x="1015.320312"/>
      <use xlink:href="#DejaVuSans-41" x="1065.320312"/>
      <use xlink:href="#DejaVuSans-29" x="1133.728516"/>
      <use xlink:href="#DejaVuSans-5d" x="1172.742188"/>
     </g>
    </g>
   </g>
   <g id="line2d_15">
    <path d="M 83.72 499.48 
L 696.24 23.76 
" clip-path="url(#p560d77c3c8)" style="fill: none; stroke-dasharray: 5.55,2.4; stroke-dashoffset: 0; stroke: #ff0000; stroke-width: 1.5"/>
   </g>
   <g id="patch_3">
    <path d="M 83.72 499.48 
L 83.72 23.76 
" style="fill: none; stroke: #000000; stroke-width: 0.8; stroke-linejoin: miter; stroke-linecap: square"/>
   </g>
   <g id="patch_4">
    <path d="M 696.24 499.48 
L 696.24 23.76 
" style="fill: none; stroke: #000000; stroke-width: 0.8; stroke-linejoin: miter; stroke-linecap: square"/>
   </g>
   <g id="patch_5">
    <path d="M 83.72 499.48 
L 696.24 499.48 
" style="fill: none; stroke: #000000; stroke-width: 0.8; stroke-linejoin: miter; stroke-linecap: square"/>
   </g>
   <g id="patch_6">
    <path d="M 83.72 23.76 
L 696.24 23.76 
" style="fill: none; stroke: #000000; stroke-width: 0.8; stroke-linejoin: miter; stroke-linecap: square"/>
   </g>
   <g id="text_17">
    <!-- Correlation in: 0.390 -->
    <g transform="translate(144.972 71.332) scale(0.22 -0.22)">
     <defs>
      <path id="DejaVuSans-43" d="M 4122 4306 
L 4122 3641 
Q 3803 3938 3442 4084 
Q 3081 4231 2675 4231 
Q 1875 4231 1450 3742 
Q 1025 3253 1025 2328 
Q 1025 1406 1450 917 
Q 1875 428 2675 428 
Q 3081 428 3442 575 
Q 3803 722 4122 1019 
L 4122 359 
Q 3791 134 3420 21 
Q 3050 -91 2638 -91 
Q 1578 -91 968 557 
Q 359 1206 359 2328 
Q 359 3453 968 4101 
Q 1578 4750 2638 4750 
Q 3056 4750 3426 4639 
Q 3797 4528 4122 4306 
z
" transform="scale(0.015625)"/>
      <path id="DejaVuSans-3a" d="M 750 794 
L 1409 794 
L 1409 0 
L 750 0 
L 750 794 
z
M 750 3309 
L 1409 3309 
L 1409 2516 
L 750 2516 
L 750 3309 
z
" transform="scale(0.015625)"/>
      <path id="DejaVuSans-2e" d="M 684 794 
L 1344 794 
L 1344 0 
L 684 0 
L 684 794 
z
" transform="scale(0.015625)"/>
      <path id="DejaVuSans-39" d="M 703 97 
L 703 672 
Q 941 559 1184 500 
Q 1428 441 1663 441 
Q 2288 441 2617 861 
Q 2947 1281 2994 2138 
Q 2813 1869 2534 1725 
Q 2256 1581 1919 1581 
Q 1219 1581 811 2004 
Q 403 2428 403 3163 
Q 403 3881 828 4315 
Q 1253 4750 1959 4750 
Q 2769 4750 3195 4129 
Q 3622 3509 3622 2328 
Q 3622 1225 3098 567 
Q 2575 -91 1691 -91 
Q 1453 -91 1209 -44 
Q 966 3 703 97 
z
M 1959 2075 
Q 2384 2075 2632 2365 
Q 2881 2656 2881 3163 
Q 2881 3666 2632 3958 
Q 2384 4250 1959 4250 
Q 1534 4250 1286 3958 
Q 1038 3666 1038 3163 
Q 1038 2656 1286 2365 
Q 1534 2075 1959 2075 
z
" transform="scale(0.015625)"/>
     </defs>
     <use xlink:href="#DejaVuSans-43"/>
     <use xlink:href="#DejaVuSans-6f" x="69.824219"/>
     <use xlink:href="#DejaVuSans-72" x="131.005859"/>
     <use xlink:href="#DejaVuSans-72" x="170.369141"/>
     <use xlink:href="#DejaVuSans-65" x="209.232422"/>
     <use xlink:href="#DejaVuSans-6c" x="270.755859"/>
     <use xlink:href="#DejaVuSans-61" x="298.539062"/>
     <use xlink:href="#DejaVuSans-74" x="359.818359"/>
     <use xlink:href="#DejaVuSans-69" x="399.027344"/>
     <use xlink:href="#DejaVuSans-6f" x="426.810547"/>
     <use xlink:href="#DejaVuSans-6e" x="487.992188"/>
     <use xlink:href="#DejaVuSans-20" x="551.371094"/>
     <use xlink:href="#DejaVuSans-69" x="583.158203"/>
     <use xlink:href="#DejaVuSans-6e" x="610.941406"/>
     <use xlink:href="#DejaVuSans-3a" x="674.320312"/>
     <use xlink:href="#DejaVuSans-20" x="708.011719"/>
     <use xlink:href="#DejaVuSans-30" x="739.798828"/>
     <use xlink:href="#DejaVuSans-2e" x="803.421875"/>
     <use xlink:href="#DejaVuSans-33" x="835.208984"/>
     <use xlink:href="#DejaVuSans-39" x="898.832031"/>
     <use xlink:href="#DejaVuSans-30" x="962.455078"/>
    </g>
   </g>
  </g>
 </g>
 <defs>
  <clipPath id="p560d77c3c8">
   <rect x="83.72" y="23.76" width="612.52" height="475.72"/>
  </clipPath>
 </defs>
</svg>
