<?xml version="1.0" encoding="utf-8" standalone="no"?>
<!DOCTYPE svg PUBLIC "-//W3C//DTD SVG 1.1//EN"
  "http://www.w3.org/Graphics/SVG/1.1/DTD/svg11.dtd">
<svg xmlns:xlink="http://www.w3.org/1999/xlink" width="720pt" height="576pt" viewBox="0 0 720 576" xmlns="http://www.w3.org/2000/svg" version="1.1">
 <metadata>
  <rdf:RDF xmlns:dc="http://purl.org/dc/elements/1.1/" xmlns:cc="http://creativecommons.org/ns#" xmlns:rdf="http://www.w3.org/1999/02/22-rdf-syntax-ns#">
   <cc:Work>
    <dc:type rdf:resource="http://purl.org/dc/dcmitype/StillImage"/>
    <dc:date>2024-12-08T04:38:54.561350</dc:date>
    <dc:format>image/svg+xml</dc:format>
    <dc:creator>
     <cc:Agent>
      <dc:title>Matplotlib v3.8.4, https://matplotlib.org/</dc:title>
     </cc:Agent>
    </dc:creator>
   </cc:Work>
  </rdf:RDF>
 </metadata>
 <defs>
  <style type="text/css">*{stroke-linejoin: round; stroke-linecap: butt}</style>
 </defs>
 <g id="figure_1">
  <g id="patch_1">
   <path d="M 0 576 
L 720 576 
L 720 0 
L 0 0 
z
" style="fill: #ffffff"/>
  </g>
  <g id="axes_1">
   <g id="patch_2">
    <path d="M 83.72 499.48 
L 696.24 499.48 
L 696.24 23.76 
L 83.72 23.76 
z
" style="fill: #ffffff"/>
   </g>
   <g id="QuadContourSet_1">
    <path d="M 93.068076 495.15356 
L 94.379337 495.503983 
L 95.690598 495.720464 
L 97.001858 495.845737 
L 98.313119 495.903614 
L 99.62438 495.906659 
L 100.93564 495.860116 
L 102.246901 495.763668 
L 103.558162 495.611961 
L 104.869422 495.394486 
L 106.180683 495.095512 
L 107.366335 494.740674 
L 107.491944 494.724481 
L 108.803204 494.541002 
L 110.114465 494.313237 
L 111.425726 494.039544 
L 112.736986 493.726106 
L 114.048247 493.386786 
L 115.173359 493.093931 
L 115.359508 493.067611 
L 116.670768 492.901247 
L 117.982029 492.730962 
L 119.29329 492.558306 
L 120.60455 492.382857 
L 121.915811 492.201937 
L 123.227072 492.010652 
L 124.538332 491.802318 
L 125.849593 491.569611 
L 126.49227 491.447187 
L 127.160854 491.365452 
L 128.472114 491.197274 
L 129.783375 491.020146 
L 131.094636 490.847532 
L 132.405896 490.697968 
L 133.717157 490.583342 
L 135.028418 490.496856 
L 136.339678 490.415344 
L 137.650939 490.314436 
L 138.9622 490.179974 
L 140.27346 490.008006 
L 141.5647 489.800443 
L 141.584721 489.797746 
L 142.895982 489.593166 
L 144.207242 489.329093 
L 145.518503 488.973249 
L 146.829764 488.485784 
L 147.532792 488.153699 
L 148.141024 487.792904 
L 149.452285 486.840203 
L 149.864504 486.506955 
L 150.715492 484.860212 
L 150.448524 483.213468 
L 149.452285 481.862867 
L 149.219362 481.566724 
L 148.141024 480.682136 
L 147.028873 479.91998 
L 146.829764 479.792994 
L 145.518503 478.983707 
L 144.207242 478.274057 
L 144.20549 478.273236 
L 142.895982 477.550919 
L 141.584721 477.101841 
L 140.27346 476.907968 
L 138.9622 476.886744 
L 137.650939 476.933273 
L 136.339678 476.957902 
L 135.028418 476.918191 
L 133.717157 476.829006 
L 132.405896 476.733295 
L 131.094636 476.663043 
L 129.783375 476.626493 
L 129.783375 476.626493 
L 128.472114 476.607979 
L 127.160854 476.606103 
L 125.849593 476.58788 
L 124.538332 476.519379 
L 123.227072 476.376556 
L 121.915811 476.150056 
L 120.60455 475.845261 
L 119.29329 475.482824 
L 117.982029 475.096127 
L 117.628471 474.979749 
L 116.670768 474.480965 
L 115.359508 473.843995 
L 114.0832 473.333005 
L 114.048247 473.309897 
L 112.736986 472.512236 
L 111.425726 471.956048 
L 110.498294 471.686261 
L 110.114465 471.510927 
L 108.803204 471.1052 
L 107.491944 470.903394 
L 106.180683 470.880632 
L 104.869422 471.033648 
L 103.558162 471.378553 
L 102.835788 471.686261 
L 102.246901 471.848125 
L 100.93564 472.374808 
L 99.62438 473.163542 
L 99.39248 473.333005 
L 98.313119 473.871597 
L 97.001858 474.83702 
L 96.832543 474.979749 
L 95.690598 475.668287 
L 94.604122 476.626493 
L 94.379337 476.774895 
L 93.068076 477.844994 
L 92.645572 478.273236 
L 91.756816 479.045467 
L 90.960117 479.91998 
L 90.445555 480.470222 
L 89.539988 481.566724 
L 89.134294 482.130796 
L 88.347039 483.213468 
L 87.823034 484.226625 
L 87.436993 484.860212 
L 86.797532 486.506955 
L 86.546817 488.153699 
L 86.633639 489.800443 
L 87.259298 491.447187 
L 87.823034 492.157093 
L 88.789229 493.093931 
L 89.134294 493.372974 
L 90.445555 494.200974 
L 91.756816 494.668 
L 92.041953 494.740674 
z
M 93.953613 493.093931 
L 93.068076 492.807062 
L 91.756816 492.12587 
L 90.899891 491.447187 
L 90.445555 490.94158 
L 89.632687 489.800443 
L 89.25508 488.153699 
L 89.389092 486.506955 
L 89.960521 484.860212 
L 90.445555 484.069217 
L 90.921515 483.213468 
L 91.756816 482.143624 
L 92.236988 481.566724 
L 93.068076 480.669685 
L 93.923443 479.91998 
L 94.379337 479.48696 
L 95.690598 478.487114 
L 96.047628 478.273236 
L 97.001858 477.530322 
L 98.313119 476.819225 
L 98.785612 476.626493 
L 99.62438 476.107363 
L 100.93564 475.53311 
L 102.246901 475.168979 
L 103.363635 474.979749 
L 103.558162 474.920348 
L 104.869422 474.696612 
L 106.180683 474.641694 
L 107.491944 474.735264 
L 108.803204 474.979749 
L 108.803204 474.979749 
L 110.114465 475.200977 
L 111.425726 475.540447 
L 112.736986 476.02366 
L 113.967335 476.626493 
L 114.048247 476.655105 
L 115.359508 477.155378 
L 116.670768 477.769436 
L 117.645572 478.273236 
L 117.982029 478.425557 
L 119.29329 478.98743 
L 120.60455 479.552544 
L 121.575017 479.91998 
L 121.915811 480.050319 
L 123.227072 480.401791 
L 124.538332 480.627462 
L 125.849593 480.764179 
L 127.160854 480.878929 
L 128.472114 481.043632 
L 129.783375 481.320842 
L 130.572942 481.566724 
L 131.094636 481.831164 
L 132.405896 482.669112 
L 133.225255 483.213468 
L 133.400774 484.860212 
L 132.405896 485.531511 
L 131.094636 486.473772 
L 131.050921 486.506955 
L 129.783375 487.020692 
L 128.472114 487.497392 
L 127.160854 487.912248 
L 126.299701 488.153699 
L 125.849593 488.262922 
L 124.538332 488.54613 
L 123.227072 488.805321 
L 121.915811 489.064933 
L 120.60455 489.341749 
L 119.29329 489.638334 
L 118.645498 489.800443 
L 117.982029 489.983239 
L 116.670768 490.380108 
L 115.359508 490.769707 
L 114.048247 491.132864 
L 112.782985 491.447187 
L 112.736986 491.46366 
L 111.425726 491.961165 
L 110.114465 492.374596 
L 108.803204 492.706245 
L 107.491944 492.967032 
L 106.718858 493.093931 
L 106.180683 493.257957 
L 104.869422 493.584185 
L 103.558162 493.816843 
L 102.246901 493.972318 
L 100.93564 494.059949 
L 99.62438 494.082354 
L 98.313119 494.035101 
L 97.001858 493.904967 
L 95.690598 493.665727 
L 94.379337 493.269689 
z
" clip-path="url(#p1e89a170c4)" style="fill: #ebebf3"/>
    <path d="M 94.379337 493.269689 
L 95.690598 493.665727 
L 97.001858 493.904967 
L 98.313119 494.035101 
L 99.62438 494.082354 
L 100.93564 494.059949 
L 102.246901 493.972318 
L 103.558162 493.816843 
L 104.869422 493.584185 
L 106.180683 493.257957 
L 106.718858 493.093931 
L 107.491944 492.967032 
L 108.803204 492.706245 
L 110.114465 492.374596 
L 111.425726 491.961165 
L 112.736986 491.46366 
L 112.782985 491.447187 
L 114.048247 491.132864 
L 115.359508 490.769707 
L 116.670768 490.380108 
L 117.982029 489.983239 
L 118.645498 489.800443 
L 119.29329 489.638334 
L 120.60455 489.341749 
L 121.915811 489.064933 
L 123.227072 488.805321 
L 124.538332 488.54613 
L 125.849593 488.262922 
L 126.299701 488.153699 
L 127.160854 487.912248 
L 128.472114 487.497392 
L 129.783375 487.020692 
L 131.050921 486.506955 
L 131.094636 486.473772 
L 132.405896 485.531511 
L 133.400774 484.860212 
L 133.225255 483.213468 
L 132.405896 482.669112 
L 131.094636 481.831164 
L 130.572942 481.566724 
L 129.783375 481.320842 
L 128.472114 481.043632 
L 127.160854 480.878929 
L 125.849593 480.764179 
L 124.538332 480.627462 
L 123.227072 480.401791 
L 121.915811 480.050319 
L 121.575017 479.91998 
L 120.60455 479.552544 
L 119.29329 478.98743 
L 117.982029 478.425557 
L 117.645572 478.273236 
L 116.670768 477.769436 
L 115.359508 477.155378 
L 114.048247 476.655105 
L 113.967335 476.626493 
L 112.736986 476.02366 
L 111.425726 475.540447 
L 110.114465 475.200977 
L 108.803204 474.979749 
L 108.803204 474.979749 
L 107.491944 474.735264 
L 106.180683 474.641694 
L 104.869422 474.696612 
L 103.558162 474.920348 
L 103.363635 474.979749 
L 102.246901 475.168979 
L 100.93564 475.53311 
L 99.62438 476.107363 
L 98.785612 476.626493 
L 98.313119 476.819225 
L 97.001858 477.530322 
L 96.047628 478.273236 
L 95.690598 478.487114 
L 94.379337 479.48696 
L 93.923443 479.91998 
L 93.068076 480.669685 
L 92.236988 481.566724 
L 91.756816 482.143624 
L 90.921515 483.213468 
L 90.445555 484.069217 
L 89.960521 484.860212 
L 89.389092 486.506955 
L 89.25508 488.153699 
L 89.632687 489.800443 
L 90.445555 490.94158 
L 90.899891 491.447187 
L 91.756816 492.12587 
L 93.068076 492.807062 
L 93.953613 493.093931 
z
M 93.938197 491.447187 
L 93.068076 490.921323 
L 91.902275 489.800443 
L 91.756816 489.50488 
L 91.153 488.153699 
L 91.160179 486.506955 
L 91.756816 484.860212 
L 91.756816 484.860212 
L 92.713912 483.213468 
L 93.068076 482.781345 
L 94.168376 481.566724 
L 94.379337 481.354981 
L 95.690598 480.20956 
L 96.110164 479.91998 
L 97.001858 479.224215 
L 98.313119 478.486779 
L 98.812075 478.273236 
L 99.62438 477.796427 
L 100.93564 477.247135 
L 102.246901 476.892839 
L 103.558162 476.675345 
L 104.119227 476.626493 
L 104.869422 476.514156 
L 106.180683 476.479366 
L 107.491944 476.597819 
L 107.637061 476.626493 
L 108.803204 476.775466 
L 110.114465 477.054418 
L 111.425726 477.466419 
L 112.736986 478.034727 
L 113.207841 478.273236 
L 114.048247 478.641061 
L 115.359508 479.333818 
L 116.311822 479.91998 
L 116.670768 480.172256 
L 117.982029 481.106448 
L 118.635923 481.566724 
L 119.29329 482.300917 
L 120.282863 483.213468 
L 120.60455 484.303931 
L 120.862671 484.860212 
L 120.60455 485.150896 
L 119.585743 486.506955 
L 119.29329 486.662421 
L 117.982029 487.460902 
L 116.776922 488.153699 
L 116.670768 488.201579 
L 115.359508 488.853474 
L 114.048247 489.429521 
L 113.113968 489.800443 
L 112.736986 489.966314 
L 111.425726 490.528972 
L 110.114465 490.98408 
L 108.803204 491.34618 
L 108.386054 491.447187 
L 107.491944 491.763078 
L 106.180683 492.132285 
L 104.869422 492.404289 
L 103.558162 492.59737 
L 102.246901 492.722721 
L 100.93564 492.784811 
L 99.62438 492.78133 
L 98.313119 492.702016 
L 97.001858 492.525355 
L 95.690598 492.211458 
L 94.379337 491.688072 
z
" clip-path="url(#p1e89a170c4)" style="fill: #dbdbf4"/>
    <path d="M 94.379337 491.688072 
L 95.690598 492.211458 
L 97.001858 492.525355 
L 98.313119 492.702016 
L 99.62438 492.78133 
L 100.93564 492.784811 
L 102.246901 492.722721 
L 103.558162 492.59737 
L 104.869422 492.404289 
L 106.180683 492.132285 
L 107.491944 491.763078 
L 108.386054 491.447187 
L 108.803204 491.34618 
L 110.114465 490.98408 
L 111.425726 490.528972 
L 112.736986 489.966314 
L 113.113968 489.800443 
L 114.048247 489.429521 
L 115.359508 488.853474 
L 116.670768 488.201579 
L 116.776922 488.153699 
L 117.982029 487.460902 
L 119.29329 486.662421 
L 119.585743 486.506955 
L 120.60455 485.150896 
L 120.862671 484.860212 
L 120.60455 484.303931 
L 120.282863 483.213468 
L 119.29329 482.300917 
L 118.635923 481.566724 
L 117.982029 481.106448 
L 116.670768 480.172256 
L 116.311822 479.91998 
L 115.359508 479.333818 
L 114.048247 478.641061 
L 113.207841 478.273236 
L 112.736986 478.034727 
L 111.425726 477.466419 
L 110.114465 477.054418 
L 108.803204 476.775466 
L 107.637061 476.626493 
L 107.491944 476.597819 
L 106.180683 476.479366 
L 104.869422 476.514156 
L 104.119227 476.626493 
L 103.558162 476.675345 
L 102.246901 476.892839 
L 100.93564 477.247135 
L 99.62438 477.796427 
L 98.812075 478.273236 
L 98.313119 478.486779 
L 97.001858 479.224215 
L 96.110164 479.91998 
L 95.690598 480.20956 
L 94.379337 481.354981 
L 94.168376 481.566724 
L 93.068076 482.781345 
L 92.713912 483.213468 
L 91.756816 484.860212 
L 91.756816 484.860212 
L 91.160179 486.506955 
L 91.153 488.153699 
L 91.756816 489.50488 
L 91.902275 489.800443 
L 93.068076 490.921323 
L 93.938197 491.447187 
z
M 98.596065 491.447187 
L 98.313119 491.418073 
L 97.001858 491.160335 
L 95.690598 490.698796 
L 94.379337 489.903164 
L 94.248238 489.800443 
L 93.068076 488.153699 
L 93.068076 488.153699 
L 92.880186 486.506955 
L 93.068076 485.935568 
L 93.364898 484.860212 
L 94.379337 483.293856 
L 94.431641 483.213468 
L 95.690598 481.87175 
L 96.031127 481.566724 
L 97.001858 480.762811 
L 98.313119 479.969689 
L 98.41295 479.91998 
L 99.62438 479.215859 
L 100.93564 478.698915 
L 102.246901 478.356048 
L 102.740462 478.273236 
L 103.558162 478.073041 
L 104.869422 477.921011 
L 106.180683 477.923535 
L 107.491944 478.076643 
L 108.340258 478.273236 
L 108.803204 478.35653 
L 110.114465 478.71081 
L 111.425726 479.220714 
L 112.736986 479.915501 
L 112.744723 479.91998 
L 114.048247 480.763066 
L 115.056055 481.566724 
L 115.359508 481.989593 
L 116.252932 483.213468 
L 116.371766 484.860212 
L 115.359508 486.420877 
L 115.307161 486.506955 
L 114.048247 487.504179 
L 113.115754 488.153699 
L 112.736986 488.366987 
L 111.425726 489.066877 
L 110.114465 489.627524 
L 109.658283 489.800443 
L 108.803204 490.16373 
L 107.491944 490.619329 
L 106.180683 490.964666 
L 104.869422 491.221791 
L 103.558162 491.404975 
L 103.086766 491.447187 
L 102.246901 491.560463 
L 100.93564 491.629485 
L 99.62438 491.584009 
z
" clip-path="url(#p1e89a170c4)" style="fill: #c5c5f5"/>
    <path d="M 99.62438 491.584009 
L 100.93564 491.629485 
L 102.246901 491.560463 
L 103.086766 491.447187 
L 103.558162 491.404975 
L 104.869422 491.221791 
L 106.180683 490.964666 
L 107.491944 490.619329 
L 108.803204 490.16373 
L 109.658283 489.800443 
L 110.114465 489.627524 
L 111.425726 489.066877 
L 112.736986 488.366987 
L 113.115754 488.153699 
L 114.048247 487.504179 
L 115.307161 486.506955 
L 115.359508 486.420877 
L 116.371766 484.860212 
L 116.252932 483.213468 
L 115.359508 481.989593 
L 115.056055 481.566724 
L 114.048247 480.763066 
L 112.744723 479.91998 
L 112.736986 479.915501 
L 111.425726 479.220714 
L 110.114465 478.71081 
L 108.803204 478.35653 
L 108.340258 478.273236 
L 107.491944 478.076643 
L 106.180683 477.923535 
L 104.869422 477.921011 
L 103.558162 478.073041 
L 102.740462 478.273236 
L 102.246901 478.356048 
L 100.93564 478.698915 
L 99.62438 479.215859 
L 98.41295 479.91998 
L 98.313119 479.969689 
L 97.001858 480.762811 
L 96.031127 481.566724 
L 95.690598 481.87175 
L 94.431641 483.213468 
L 94.379337 483.293856 
L 93.364898 484.860212 
L 93.068076 485.935568 
L 92.880186 486.506955 
L 93.068076 488.153699 
L 93.068076 488.153699 
L 94.248238 489.800443 
L 94.379337 489.903164 
L 95.690598 490.698796 
L 97.001858 491.160335 
L 98.313119 491.418073 
L 98.596065 491.447187 
z
M 96.863686 489.800443 
L 95.690598 489.033007 
L 94.849886 488.153699 
L 94.441323 486.506955 
L 94.855205 484.860212 
L 95.690598 483.619862 
L 95.976147 483.213468 
L 97.001858 482.220423 
L 97.838706 481.566724 
L 98.313119 481.222424 
L 99.62438 480.471871 
L 100.93564 479.948841 
L 101.035061 479.91998 
L 102.246901 479.498607 
L 103.558162 479.231603 
L 104.869422 479.123746 
L 106.180683 479.163942 
L 107.491944 479.356154 
L 108.803204 479.715061 
L 109.334369 479.91998 
L 110.114465 480.227372 
L 111.425726 480.92886 
L 112.346347 481.566724 
L 112.736986 482.015054 
L 113.664558 483.213468 
L 113.780935 484.860212 
L 112.736986 486.506955 
L 112.736986 486.506955 
L 111.425726 487.541737 
L 110.510154 488.153699 
L 110.114465 488.369126 
L 108.803204 489.002771 
L 107.491944 489.495818 
L 106.469118 489.800443 
L 106.180683 489.897514 
L 104.869422 490.248281 
L 103.558162 490.484542 
L 102.246901 490.616678 
L 100.93564 490.643989 
L 99.62438 490.553173 
L 98.313119 490.313615 
L 97.001858 489.86689 
z
" clip-path="url(#p1e89a170c4)" style="fill: #a9a9f6"/>
    <path d="M 97.001858 489.86689 
L 98.313119 490.313615 
L 99.62438 490.553173 
L 100.93564 490.643989 
L 102.246901 490.616678 
L 103.558162 490.484542 
L 104.869422 490.248281 
L 106.180683 489.897514 
L 106.469118 489.800443 
L 107.491944 489.495818 
L 108.803204 489.002771 
L 110.114465 488.369126 
L 110.510154 488.153699 
L 111.425726 487.541737 
L 112.736986 486.506955 
L 112.736986 486.506955 
L 113.780935 484.860212 
L 113.664558 483.213468 
L 112.736986 482.015054 
L 112.346347 481.566724 
L 111.425726 480.92886 
L 110.114465 480.227372 
L 109.334369 479.91998 
L 108.803204 479.715061 
L 107.491944 479.356154 
L 106.180683 479.163942 
L 104.869422 479.123746 
L 103.558162 479.231603 
L 102.246901 479.498607 
L 101.035061 479.91998 
L 100.93564 479.948841 
L 99.62438 480.471871 
L 98.313119 481.222424 
L 97.838706 481.566724 
L 97.001858 482.220423 
L 95.976147 483.213468 
L 95.690598 483.619862 
L 94.855205 484.860212 
L 94.441323 486.506955 
L 94.849886 488.153699 
L 95.690598 489.033007 
L 96.863686 489.800443 
z
M 100.858749 489.800443 
L 99.62438 489.66789 
L 98.313119 489.321083 
L 97.001858 488.65372 
L 96.373036 488.153699 
L 95.690598 486.573246 
L 95.667642 486.506955 
L 95.690598 486.412213 
L 96.030776 484.860212 
L 97.001858 483.499456 
L 97.224041 483.213468 
L 98.313119 482.283753 
L 99.405068 481.566724 
L 99.62438 481.432536 
L 100.93564 480.809723 
L 102.246901 480.399292 
L 103.558162 480.159269 
L 104.869422 480.074231 
L 106.180683 480.145871 
L 107.491944 480.387471 
L 108.803204 480.821301 
L 110.114465 481.479682 
L 110.257147 481.566724 
L 111.425726 482.693272 
L 111.870878 483.213468 
L 112.068 484.860212 
L 111.425726 485.868439 
L 111.018803 486.506955 
L 110.114465 487.189098 
L 108.803204 488.023391 
L 108.569925 488.153699 
L 107.491944 488.643504 
L 106.180683 489.105012 
L 104.869422 489.444253 
L 103.558162 489.675385 
L 102.246901 489.800443 
L 102.246901 489.800443 
L 100.93564 489.808585 
z
" clip-path="url(#p1e89a170c4)" style="fill: #8c8cf8"/>
    <path d="M 100.93564 489.808585 
L 102.246901 489.800443 
L 102.246901 489.800443 
L 103.558162 489.675385 
L 104.869422 489.444253 
L 106.180683 489.105012 
L 107.491944 488.643504 
L 108.569925 488.153699 
L 108.803204 488.023391 
L 110.114465 487.189098 
L 111.018803 486.506955 
L 111.425726 485.868439 
L 112.068 484.860212 
L 111.870878 483.213468 
L 111.425726 482.693272 
L 110.257147 481.566724 
L 110.114465 481.479682 
L 108.803204 480.821301 
L 107.491944 480.387471 
L 106.180683 480.145871 
L 104.869422 480.074231 
L 103.558162 480.159269 
L 102.246901 480.399292 
L 100.93564 480.809723 
L 99.62438 481.432536 
L 99.405068 481.566724 
L 98.313119 482.283753 
L 97.224041 483.213468 
L 97.001858 483.499456 
L 96.030776 484.860212 
L 95.690598 486.412213 
L 95.667642 486.506955 
L 95.690598 486.573246 
L 96.373036 488.153699 
L 97.001858 488.65372 
L 98.313119 489.321083 
L 99.62438 489.66789 
L 100.858749 489.800443 
z
M 98.418186 488.153699 
L 98.313119 488.073504 
L 97.128314 486.506955 
L 97.398585 484.860212 
L 98.313119 483.685215 
L 98.734052 483.213468 
L 99.62438 482.572768 
L 100.93564 481.871311 
L 101.755418 481.566724 
L 102.246901 481.396287 
L 103.558162 481.141409 
L 104.869422 481.082151 
L 106.180683 481.218578 
L 107.491944 481.566046 
L 107.493656 481.566724 
L 108.803204 482.304169 
L 109.878135 483.213468 
L 110.114465 484.281712 
L 110.229931 484.860212 
L 110.114465 485.037881 
L 109.128946 486.506955 
L 108.803204 486.734507 
L 107.491944 487.529312 
L 106.180683 488.153699 
L 106.180683 488.153699 
L 104.869422 488.550608 
L 103.558162 488.803718 
L 102.246901 488.915118 
L 100.93564 488.869116 
L 99.62438 488.625766 
z
" clip-path="url(#p1e89a170c4)" style="fill: #6c6cf9"/>
    <path d="M 99.62438 488.625766 
L 100.93564 488.869116 
L 102.246901 488.915118 
L 103.558162 488.803718 
L 104.869422 488.550608 
L 106.180683 488.153699 
L 106.180683 488.153699 
L 107.491944 487.529312 
L 108.803204 486.734507 
L 109.128946 486.506955 
L 110.114465 485.037881 
L 110.229931 484.860212 
L 110.114465 484.281712 
L 109.878135 483.213468 
L 108.803204 482.304169 
L 107.493656 481.566724 
L 107.491944 481.566046 
L 106.180683 481.218578 
L 104.869422 481.082151 
L 103.558162 481.141409 
L 102.246901 481.396287 
L 101.755418 481.566724 
L 100.93564 481.871311 
L 99.62438 482.572768 
L 98.734052 483.213468 
L 98.313119 483.685215 
L 97.398585 484.860212 
L 97.128314 486.506955 
L 98.313119 488.073504 
L 98.418186 488.153699 
z
M 101.051952 488.153699 
L 100.93564 488.142142 
L 99.62438 487.648675 
L 98.313119 486.506955 
L 98.476483 484.860212 
L 99.62438 483.570589 
L 100.015223 483.213468 
L 100.93564 482.694655 
L 102.246901 482.198148 
L 103.558162 481.9319 
L 104.869422 481.900989 
L 106.180683 482.13328 
L 107.491944 482.675688 
L 108.305891 483.213468 
L 108.803204 484.60673 
L 108.876016 484.860212 
L 108.803204 484.967755 
L 107.683467 486.506955 
L 107.491944 486.626062 
L 106.180683 487.303173 
L 104.869422 487.80097 
L 103.558162 488.12607 
L 103.270814 488.153699 
L 102.246901 488.232733 
z
" clip-path="url(#p1e89a170c4)" style="fill: #4e4efb"/>
    <path d="M 102.246901 488.232733 
L 103.270814 488.153699 
L 103.558162 488.12607 
L 104.869422 487.80097 
L 106.180683 487.303173 
L 107.491944 486.626062 
L 107.683467 486.506955 
L 108.803204 484.967755 
L 108.876016 484.860212 
L 108.803204 484.60673 
L 108.305891 483.213468 
L 107.491944 482.675688 
L 106.180683 482.13328 
L 104.869422 481.900989 
L 103.558162 481.9319 
L 102.246901 482.198148 
L 100.93564 482.694655 
L 100.015223 483.213468 
L 99.62438 483.570589 
L 98.476483 484.860212 
L 98.313119 486.506955 
L 99.62438 487.648675 
L 100.93564 488.142142 
L 101.051952 488.153699 
z
M 100.702907 486.506955 
L 100.40693 484.860212 
L 100.93564 484.383382 
L 102.246901 483.55339 
L 103.281808 483.213468 
L 103.558162 483.163169 
L 104.869422 483.213468 
L 104.869422 483.213468 
L 106.180683 484.180431 
L 106.627044 484.860212 
L 106.180683 485.398229 
L 105.03323 486.506955 
L 104.869422 486.571266 
L 103.558162 486.870286 
L 102.246901 486.915176 
L 100.93564 486.62758 
z
" clip-path="url(#p1e89a170c4)" style="fill: #2e2efd"/>
    <path d="M 100.93564 486.62758 
L 102.246901 486.915176 
L 103.558162 486.870286 
L 104.869422 486.571266 
L 105.03323 486.506955 
L 106.180683 485.398229 
L 106.627044 484.860212 
L 106.180683 484.180431 
L 104.869422 483.213468 
L 104.869422 483.213468 
L 103.558162 483.163169 
L 103.281808 483.213468 
L 102.246901 483.55339 
L 100.93564 484.383382 
L 100.40693 484.860212 
L 100.702907 486.506955 
z
" clip-path="url(#p1e89a170c4)" style="fill: #0d0dfe"/>
   </g>
   <g id="QuadContourSet_2">
    <path d="M 95.114067 506.616897 
L 97.966338 507.416228 
L 100.818609 507.717839 
L 103.67088 507.732728 
L 106.523151 507.546155 
L 109.375422 507.164501 
L 112.227693 506.579253 
L 114.293192 506.044371 
L 115.079964 505.92886 
L 117.932235 505.453707 
L 120.784506 504.796093 
L 123.636777 503.858159 
L 124.669759 503.475342 
L 126.489048 503.020812 
L 129.341319 502.198631 
L 132.19359 501.14263 
L 132.760619 500.906314 
L 135.045861 500.189662 
L 137.898132 498.984181 
L 139.299004 498.337285 
L 140.750403 497.767584 
L 143.602674 496.634312 
L 145.612051 495.768257 
L 146.454945 495.441496 
L 149.307216 494.249796 
L 151.401678 493.199228 
L 152.159487 492.82592 
L 155.011758 491.192337 
L 155.806128 490.6302 
L 157.864029 488.987059 
L 158.878936 488.061171 
L 160.7163 485.899901 
L 161.108182 485.492143 
L 162.96412 482.923114 
L 163.568571 481.673367 
L 164.54129 480.354086 
L 165.703776 477.785057 
L 166.35524 475.216029 
L 166.420842 474.74944 
L 166.887756 472.647 
L 167.080501 470.077972 
L 167.044214 467.508943 
L 166.872779 464.939914 
L 166.641673 462.370886 
L 166.420842 459.801857 
L 166.420842 459.801857 
L 166.307153 457.232829 
L 166.248114 454.6638 
L 166.2243 452.094772 
L 166.221442 449.525743 
L 166.23792 446.956715 
L 166.276394 444.387686 
L 166.334374 441.818658 
L 166.401417 439.249629 
L 166.420842 438.441991 
L 166.479553 436.680601 
L 166.539495 434.111572 
L 166.579456 431.542544 
L 166.615048 428.973515 
L 166.659791 426.404487 
L 166.718519 423.835458 
L 166.787208 421.26643 
L 166.85605 418.697401 
L 166.912244 416.128373 
L 166.942228 413.559344 
L 166.934463 410.990316 
L 166.882843 408.421287 
L 166.790195 405.852258 
L 166.670862 403.28323 
L 166.549517 400.714201 
L 166.453706 398.145173 
L 166.420842 396.451425 
L 166.410024 395.576144 
L 166.411983 393.007116 
L 166.420842 392.323425 
L 166.457624 390.438087 
L 166.539934 387.869059 
L 166.632412 385.30003 
L 166.713637 382.731002 
L 166.763495 380.161973 
L 166.759235 377.592945 
L 166.670611 375.023916 
L 166.459621 372.454888 
L 166.420842 372.177535 
L 166.09291 369.885859 
L 165.520469 367.316831 
L 164.754736 364.747802 
L 163.832568 362.178774 
L 163.568571 361.498181 
L 162.783883 359.609745 
L 161.557399 357.040717 
L 160.7163 355.433495 
L 160.283335 354.471688 
L 159.104295 351.90266 
L 157.871456 349.333631 
L 157.864029 349.316366 
L 156.859685 346.764603 
L 155.979113 344.195574 
L 155.169151 341.626545 
L 155.011758 341.1275 
L 154.591496 339.057517 
L 153.999432 336.488488 
L 153.25213 333.91946 
L 152.26011 331.350431 
L 152.159487 331.122542 
L 150.970323 328.781403 
L 149.307216 326.255441 
L 149.272989 326.212374 
L 147.428288 323.643346 
L 146.454945 322.218438 
L 145.573169 321.074317 
L 143.674534 318.505289 
L 143.602674 318.395096 
L 142.020156 315.93626 
L 140.750403 313.48842 
L 140.568779 313.367232 
L 137.898132 312.024066 
L 135.045861 313.251756 
L 134.637883 313.367232 
L 132.19359 313.903241 
L 129.341319 313.709637 
L 126.489048 313.510979 
L 123.636777 313.38021 
L 123.556841 313.367232 
L 120.784506 312.873008 
L 117.932235 312.52304 
L 115.079964 312.654059 
L 112.227693 312.864305 
L 110.092375 313.367232 
L 109.375422 313.526159 
L 106.523151 315.839488 
L 106.457806 315.93626 
L 104.769961 318.505289 
L 103.67088 320.351446 
L 103.322809 321.074317 
L 102.105224 323.643346 
L 100.989271 326.212374 
L 100.818609 326.597067 
L 99.918739 328.781403 
L 98.968082 331.350431 
L 98.139241 333.91946 
L 97.966338 334.471332 
L 97.314731 336.488488 
L 96.552103 339.057517 
L 95.857558 341.626545 
L 95.217177 344.195574 
L 95.114067 344.609676 
L 94.491143 346.764603 
L 93.84115 349.333631 
L 93.290184 351.90266 
L 92.821105 354.471688 
L 92.414336 357.040717 
L 92.261796 358.073377 
L 91.942501 359.609745 
L 91.438153 362.178774 
L 90.969817 364.747802 
L 90.546352 367.316831 
L 90.184223 369.885859 
L 89.894066 372.454888 
L 89.674431 375.023916 
L 89.511582 377.592945 
L 89.409525 379.621133 
L 89.36069 380.161973 
L 89.142149 382.731002 
L 88.921913 385.30003 
L 88.699078 387.869059 
L 88.486755 390.438087 
L 88.298696 393.007116 
L 88.141117 395.576144 
L 88.012073 398.145173 
L 87.904493 400.714201 
L 87.809255 403.28323 
L 87.717597 405.852258 
L 87.623506 408.421287 
L 87.525755 410.990316 
L 87.428126 413.559344 
L 87.337204 416.128373 
L 87.258863 418.697401 
L 87.195352 421.26643 
L 87.144383 423.835458 
L 87.100599 426.404487 
L 87.058448 428.973515 
L 87.014579 431.542544 
L 86.968417 434.111572 
L 86.921079 436.680601 
L 86.873663 439.249629 
L 86.825825 441.818658 
L 86.775025 444.387686 
L 86.716531 446.956715 
L 86.644406 449.525743 
L 86.557254 451.98749 
L 86.548962 452.094772 
L 86.292688 454.6638 
L 85.997606 457.232829 
L 85.680821 459.801857 
L 85.358666 462.370886 
L 85.040911 464.939914 
L 84.731459 467.508943 
L 84.433761 470.077972 
L 84.15565 472.647 
L 83.908846 475.216029 
L 83.704983 477.772821 
L 83.702449 477.785057 
L 83.239697 480.354086 
L 82.946528 482.923114 
L 82.830978 485.492143 
L 82.914825 488.061171 
L 83.255078 490.6302 
L 83.704983 492.348533 
L 83.80917 493.199228 
L 84.350009 495.768257 
L 85.411118 498.337285 
L 86.557254 500.026004 
L 87.100666 500.906314 
L 89.409525 503.324404 
L 89.604672 503.475342 
L 92.261796 505.418645 
L 93.941539 506.044371 
z
M 95.310854 500.906314 
L 95.114067 500.834305 
L 92.261796 498.991816 
L 91.582262 498.337285 
L 89.601608 495.768257 
L 89.409525 495.39436 
L 88.19764 493.199228 
L 87.415361 490.6302 
L 87.031286 488.061171 
L 86.890445 485.492143 
L 86.918874 482.923114 
L 87.083372 480.354086 
L 87.370505 477.785057 
L 87.772416 475.216029 
L 88.275564 472.647 
L 88.855402 470.077972 
L 89.409525 467.769731 
L 89.448691 467.508943 
L 89.801494 464.939914 
L 90.16209 462.370886 
L 90.525063 459.801857 
L 90.881856 457.232829 
L 91.219699 454.6638 
L 91.525698 452.094772 
L 91.792753 449.525743 
L 92.021937 446.956715 
L 92.219704 444.387686 
L 92.261796 443.746897 
L 92.352467 441.818658 
L 92.462708 439.249629 
L 92.567927 436.680601 
L 92.672135 434.111572 
L 92.778917 431.542544 
L 92.890327 428.973515 
L 93.006514 426.404487 
L 93.126949 423.835458 
L 93.252419 421.26643 
L 93.385883 418.697401 
L 93.531075 416.128373 
L 93.689795 413.559344 
L 93.86027 410.990316 
L 94.0385 408.421287 
L 94.222021 405.852258 
L 94.413031 403.28323 
L 94.617863 400.714201 
L 94.842876 398.145173 
L 95.089885 395.576144 
L 95.114067 395.334399 
L 95.307999 393.007116 
L 95.527757 390.438087 
L 95.749254 387.869059 
L 95.973512 385.30003 
L 96.209332 382.731002 
L 96.473455 380.161973 
L 96.789081 377.592945 
L 97.182837 375.023916 
L 97.680077 372.454888 
L 97.966338 371.221089 
L 98.267083 369.885859 
L 98.928037 367.316831 
L 99.681803 364.747802 
L 100.531276 362.178774 
L 100.818609 361.356846 
L 101.466515 359.609745 
L 102.509502 357.040717 
L 103.67088 354.574974 
L 103.728542 354.471688 
L 105.193762 351.90266 
L 106.523151 349.773188 
L 106.88256 349.333631 
L 108.93279 346.764603 
L 109.375422 346.201874 
L 112.227693 344.284792 
L 115.079964 344.428929 
L 117.932235 345.982328 
L 119.116502 346.764603 
L 120.784506 347.768433 
L 123.636777 349.333631 
L 123.636777 349.333631 
L 126.489048 351.09957 
L 127.333158 351.90266 
L 129.341319 353.97097 
L 129.790859 354.471688 
L 131.939573 357.040717 
L 132.19359 357.377614 
L 133.979645 359.609745 
L 135.045861 361.412717 
L 135.487987 362.178774 
L 136.624039 364.747802 
L 137.476448 367.316831 
L 137.898132 368.805853 
L 138.193173 369.885859 
L 138.851944 372.454888 
L 139.471625 375.023916 
L 140.063312 377.592945 
L 140.624738 380.161973 
L 140.750403 380.782992 
L 141.149202 382.731002 
L 141.57369 385.30003 
L 141.880117 387.869059 
L 142.091231 390.438087 
L 142.258235 393.007116 
L 142.447765 395.576144 
L 142.72631 398.145173 
L 143.133396 400.714201 
L 143.602674 403.114702 
L 143.641126 403.28323 
L 144.098355 405.852258 
L 144.339135 408.421287 
L 144.407134 410.990316 
L 144.390065 413.559344 
L 144.367665 416.128373 
L 144.384869 418.697401 
L 144.447066 421.26643 
L 144.534286 423.835458 
L 144.622681 426.404487 
L 144.699739 428.973515 
L 144.76851 431.542544 
L 144.843431 434.111572 
L 144.941835 436.680601 
L 145.075376 439.249629 
L 145.245901 441.818658 
L 145.447951 444.387686 
L 145.673485 446.956715 
L 145.911273 449.525743 
L 146.142685 452.094772 
L 146.344212 454.6638 
L 146.454945 456.460166 
L 146.509101 457.232829 
L 146.649046 459.801857 
L 146.760946 462.370886 
L 146.877035 464.939914 
L 147.025301 467.508943 
L 147.202469 470.077972 
L 147.351793 472.647 
L 147.359794 475.216029 
L 147.066206 477.785057 
L 146.454945 479.769919 
L 146.314244 480.354086 
L 145.129639 482.923114 
L 143.602674 484.842954 
L 143.181718 485.492143 
L 140.750403 487.95241 
L 140.655837 488.061171 
L 137.898132 490.418101 
L 137.641718 490.6302 
L 135.045861 492.447616 
L 133.75737 493.199228 
L 132.19359 494.077563 
L 129.341319 495.422494 
L 128.575409 495.768257 
L 126.489048 496.775558 
L 123.636777 497.945125 
L 122.500454 498.337285 
L 120.784506 499.055101 
L 117.932235 499.981562 
L 115.079964 500.661526 
L 113.880329 500.906314 
L 112.227693 501.387433 
L 109.375422 502.046454 
L 106.523151 502.460628 
L 103.67088 502.640494 
L 100.818609 502.552791 
L 97.966338 502.048828 
z
" clip-path="url(#p1e89a170c4)" style="fill: #e5f0e5; fill-opacity: 0.5"/>
    <path d="M 97.966338 502.048828 
L 100.818609 502.552791 
L 103.67088 502.640494 
L 106.523151 502.460628 
L 109.375422 502.046454 
L 112.227693 501.387433 
L 113.880329 500.906314 
L 115.079964 500.661526 
L 117.932235 499.981562 
L 120.784506 499.055101 
L 122.500454 498.337285 
L 123.636777 497.945125 
L 126.489048 496.775558 
L 128.575409 495.768257 
L 129.341319 495.422494 
L 132.19359 494.077563 
L 133.75737 493.199228 
L 135.045861 492.447616 
L 137.641718 490.6302 
L 137.898132 490.418101 
L 140.655837 488.061171 
L 140.750403 487.95241 
L 143.181718 485.492143 
L 143.602674 484.842954 
L 145.129639 482.923114 
L 146.314244 480.354086 
L 146.454945 479.769919 
L 147.066206 477.785057 
L 147.359794 475.216029 
L 147.351793 472.647 
L 147.202469 470.077972 
L 147.025301 467.508943 
L 146.877035 464.939914 
L 146.760946 462.370886 
L 146.649046 459.801857 
L 146.509101 457.232829 
L 146.454945 456.460166 
L 146.344212 454.6638 
L 146.142685 452.094772 
L 145.911273 449.525743 
L 145.673485 446.956715 
L 145.447951 444.387686 
L 145.245901 441.818658 
L 145.075376 439.249629 
L 144.941835 436.680601 
L 144.843431 434.111572 
L 144.76851 431.542544 
L 144.699739 428.973515 
L 144.622681 426.404487 
L 144.534286 423.835458 
L 144.447066 421.26643 
L 144.384869 418.697401 
L 144.367665 416.128373 
L 144.390065 413.559344 
L 144.407134 410.990316 
L 144.339135 408.421287 
L 144.098355 405.852258 
L 143.641126 403.28323 
L 143.602674 403.114702 
L 143.133396 400.714201 
L 142.72631 398.145173 
L 142.447765 395.576144 
L 142.258235 393.007116 
L 142.091231 390.438087 
L 141.880117 387.869059 
L 141.57369 385.30003 
L 141.149202 382.731002 
L 140.750403 380.782992 
L 140.624738 380.161973 
L 140.063312 377.592945 
L 139.471625 375.023916 
L 138.851944 372.454888 
L 138.193173 369.885859 
L 137.898132 368.805853 
L 137.476448 367.316831 
L 136.624039 364.747802 
L 135.487987 362.178774 
L 135.045861 361.412717 
L 133.979645 359.609745 
L 132.19359 357.377614 
L 131.939573 357.040717 
L 129.790859 354.471688 
L 129.341319 353.97097 
L 127.333158 351.90266 
L 126.489048 351.09957 
L 123.636777 349.333631 
L 123.636777 349.333631 
L 120.784506 347.768433 
L 119.116502 346.764603 
L 117.932235 345.982328 
L 115.079964 344.428929 
L 112.227693 344.284792 
L 109.375422 346.201874 
L 108.93279 346.764603 
L 106.88256 349.333631 
L 106.523151 349.773188 
L 105.193762 351.90266 
L 103.728542 354.471688 
L 103.67088 354.574974 
L 102.509502 357.040717 
L 101.466515 359.609745 
L 100.818609 361.356846 
L 100.531276 362.178774 
L 99.681803 364.747802 
L 98.928037 367.316831 
L 98.267083 369.885859 
L 97.966338 371.221089 
L 97.680077 372.454888 
L 97.182837 375.023916 
L 96.789081 377.592945 
L 96.473455 380.161973 
L 96.209332 382.731002 
L 95.973512 385.30003 
L 95.749254 387.869059 
L 95.527757 390.438087 
L 95.307999 393.007116 
L 95.114067 395.334399 
L 95.089885 395.576144 
L 94.842876 398.145173 
L 94.617863 400.714201 
L 94.413031 403.28323 
L 94.222021 405.852258 
L 94.0385 408.421287 
L 93.86027 410.990316 
L 93.689795 413.559344 
L 93.531075 416.128373 
L 93.385883 418.697401 
L 93.252419 421.26643 
L 93.126949 423.835458 
L 93.006514 426.404487 
L 92.890327 428.973515 
L 92.778917 431.542544 
L 92.672135 434.111572 
L 92.567927 436.680601 
L 92.462708 439.249629 
L 92.352467 441.818658 
L 92.261796 443.746897 
L 92.219704 444.387686 
L 92.021937 446.956715 
L 91.792753 449.525743 
L 91.525698 452.094772 
L 91.219699 454.6638 
L 90.881856 457.232829 
L 90.525063 459.801857 
L 90.16209 462.370886 
L 89.801494 464.939914 
L 89.448691 467.508943 
L 89.409525 467.769731 
L 88.855402 470.077972 
L 88.275564 472.647 
L 87.772416 475.216029 
L 87.370505 477.785057 
L 87.083372 480.354086 
L 86.918874 482.923114 
L 86.890445 485.492143 
L 87.031286 488.061171 
L 87.415361 490.6302 
L 88.19764 493.199228 
L 89.409525 495.39436 
L 89.601608 495.768257 
L 91.582262 498.337285 
L 92.261796 498.991816 
L 95.114067 500.834305 
L 95.310854 500.906314 
z
M 95.716286 498.337285 
L 95.114067 498.038109 
L 92.505875 495.768257 
L 92.261796 495.477244 
L 90.66292 493.199228 
L 89.694123 490.6302 
L 89.409525 489.206953 
L 89.098104 488.061171 
L 88.780967 485.492143 
L 88.782462 482.923114 
L 89.043229 480.354086 
L 89.409525 478.412022 
L 89.481762 477.785057 
L 89.873253 475.216029 
L 90.366589 472.647 
L 90.941381 470.077972 
L 91.569622 467.508943 
L 92.224934 464.939914 
L 92.261796 464.780796 
L 92.68064 462.370886 
L 93.12203 459.801857 
L 93.553867 457.232829 
L 93.966198 454.6638 
L 94.349008 452.094772 
L 94.697383 449.525743 
L 95.014385 446.956715 
L 95.114067 446.054628 
L 95.27418 444.387686 
L 95.50397 441.818658 
L 95.723093 439.249629 
L 95.93092 436.680601 
L 96.126725 434.111572 
L 96.310975 431.542544 
L 96.485195 428.973515 
L 96.651557 426.404487 
L 96.813616 423.835458 
L 96.977808 421.26643 
L 97.153641 418.697401 
L 97.351119 416.128373 
L 97.576357 413.559344 
L 97.828319 410.990316 
L 97.966338 409.660504 
L 98.089576 408.421287 
L 98.351795 405.852258 
L 98.621987 403.28323 
L 98.900616 400.714201 
L 99.190017 398.145173 
L 99.490566 395.576144 
L 99.799 393.007116 
L 100.110941 390.438087 
L 100.426457 387.869059 
L 100.755326 385.30003 
L 100.818609 384.840464 
L 101.149427 382.731002 
L 101.62686 380.161973 
L 102.206956 377.592945 
L 102.900957 375.023916 
L 103.67088 372.562959 
L 103.714101 372.454888 
L 104.819595 369.885859 
L 106.011363 367.316831 
L 106.523151 366.271912 
L 107.476408 364.747802 
L 109.268128 362.178774 
L 109.375422 362.036893 
L 112.227693 359.707303 
L 112.837413 359.609745 
L 115.079964 359.273699 
L 115.795416 359.609745 
L 117.932235 360.701506 
L 119.351376 362.178774 
L 120.784506 364.009674 
L 121.334963 364.747802 
L 122.957837 367.316831 
L 123.636777 368.623281 
L 124.360345 369.885859 
L 125.515736 372.454888 
L 126.382285 375.023916 
L 126.489048 375.412263 
L 127.115215 377.592945 
L 127.761682 380.161973 
L 128.374053 382.731002 
L 128.977702 385.30003 
L 129.341319 386.867428 
L 129.579678 387.869059 
L 130.160898 390.438087 
L 130.678504 393.007116 
L 131.1171 395.576144 
L 131.479806 398.145173 
L 131.789256 400.714201 
L 132.077037 403.28323 
L 132.19359 404.289393 
L 132.376241 405.852258 
L 132.68453 408.421287 
L 132.988859 410.990316 
L 133.283835 413.559344 
L 133.573774 416.128373 
L 133.870596 418.697401 
L 134.181973 421.26643 
L 134.496601 423.835458 
L 134.777009 426.404487 
L 134.972989 428.973515 
L 135.045861 431.223274 
L 135.0572 431.542544 
L 135.045861 434.111572 
L 135.045861 434.111572 
L 135.001381 436.680601 
L 134.98844 439.249629 
L 135.045861 441.404905 
L 135.059358 441.818658 
L 135.286962 444.387686 
L 135.663332 446.956715 
L 136.163662 449.525743 
L 136.745447 452.094772 
L 137.361482 454.6638 
L 137.898132 456.92455 
L 137.980302 457.232829 
L 138.622439 459.801857 
L 139.166577 462.370886 
L 139.610097 464.939914 
L 139.963197 467.508943 
L 140.230209 470.077972 
L 140.392528 472.647 
L 140.402359 475.216029 
L 140.182403 477.785057 
L 139.619189 480.354086 
L 138.537483 482.923114 
L 137.898132 483.875427 
L 136.897016 485.492143 
L 135.045861 487.477662 
L 134.486795 488.061171 
L 132.19359 489.874579 
L 131.176224 490.6302 
L 129.341319 491.792786 
L 126.923272 493.199228 
L 126.489048 493.439463 
L 123.636777 494.982858 
L 121.794117 495.768257 
L 120.784506 496.235421 
L 117.932235 497.321665 
L 115.079964 498.126003 
L 114.219974 498.337285 
L 112.227693 498.963669 
L 109.375422 499.651462 
L 106.523151 500.076682 
L 103.67088 500.247568 
L 100.818609 500.11086 
L 97.966338 499.476426 
z
" clip-path="url(#p1e89a170c4)" style="fill: #d9ead9; fill-opacity: 0.5"/>
    <path d="M 97.966338 499.476426 
L 100.818609 500.11086 
L 103.67088 500.247568 
L 106.523151 500.076682 
L 109.375422 499.651462 
L 112.227693 498.963669 
L 114.219974 498.337285 
L 115.079964 498.126003 
L 117.932235 497.321665 
L 120.784506 496.235421 
L 121.794117 495.768257 
L 123.636777 494.982858 
L 126.489048 493.439463 
L 126.923272 493.199228 
L 129.341319 491.792786 
L 131.176224 490.6302 
L 132.19359 489.874579 
L 134.486795 488.061171 
L 135.045861 487.477662 
L 136.897016 485.492143 
L 137.898132 483.875427 
L 138.537483 482.923114 
L 139.619189 480.354086 
L 140.182403 477.785057 
L 140.402359 475.216029 
L 140.392528 472.647 
L 140.230209 470.077972 
L 139.963197 467.508943 
L 139.610097 464.939914 
L 139.166577 462.370886 
L 138.622439 459.801857 
L 137.980302 457.232829 
L 137.898132 456.92455 
L 137.361482 454.6638 
L 136.745447 452.094772 
L 136.163662 449.525743 
L 135.663332 446.956715 
L 135.286962 444.387686 
L 135.059358 441.818658 
L 135.045861 441.404905 
L 134.98844 439.249629 
L 135.001381 436.680601 
L 135.045861 434.111572 
L 135.045861 434.111572 
L 135.0572 431.542544 
L 135.045861 431.223274 
L 134.972989 428.973515 
L 134.777009 426.404487 
L 134.496601 423.835458 
L 134.181973 421.26643 
L 133.870596 418.697401 
L 133.573774 416.128373 
L 133.283835 413.559344 
L 132.988859 410.990316 
L 132.68453 408.421287 
L 132.376241 405.852258 
L 132.19359 404.289393 
L 132.077037 403.28323 
L 131.789256 400.714201 
L 131.479806 398.145173 
L 131.1171 395.576144 
L 130.678504 393.007116 
L 130.160898 390.438087 
L 129.579678 387.869059 
L 129.341319 386.867428 
L 128.977702 385.30003 
L 128.374053 382.731002 
L 127.761682 380.161973 
L 127.115215 377.592945 
L 126.489048 375.412263 
L 126.382285 375.023916 
L 125.515736 372.454888 
L 124.360345 369.885859 
L 123.636777 368.623281 
L 122.957837 367.316831 
L 121.334963 364.747802 
L 120.784506 364.009674 
L 119.351376 362.178774 
L 117.932235 360.701506 
L 115.795416 359.609745 
L 115.079964 359.273699 
L 112.837413 359.609745 
L 112.227693 359.707303 
L 109.375422 362.036893 
L 109.268128 362.178774 
L 107.476408 364.747802 
L 106.523151 366.271912 
L 106.011363 367.316831 
L 104.819595 369.885859 
L 103.714101 372.454888 
L 103.67088 372.562959 
L 102.900957 375.023916 
L 102.206956 377.592945 
L 101.62686 380.161973 
L 101.149427 382.731002 
L 100.818609 384.840464 
L 100.755326 385.30003 
L 100.426457 387.869059 
L 100.110941 390.438087 
L 99.799 393.007116 
L 99.490566 395.576144 
L 99.190017 398.145173 
L 98.900616 400.714201 
L 98.621987 403.28323 
L 98.351795 405.852258 
L 98.089576 408.421287 
L 97.966338 409.660504 
L 97.828319 410.990316 
L 97.576357 413.559344 
L 97.351119 416.128373 
L 97.153641 418.697401 
L 96.977808 421.26643 
L 96.813616 423.835458 
L 96.651557 426.404487 
L 96.485195 428.973515 
L 96.310975 431.542544 
L 96.126725 434.111572 
L 95.93092 436.680601 
L 95.723093 439.249629 
L 95.50397 441.818658 
L 95.27418 444.387686 
L 95.114067 446.054628 
L 95.014385 446.956715 
L 94.697383 449.525743 
L 94.349008 452.094772 
L 93.966198 454.6638 
L 93.553867 457.232829 
L 93.12203 459.801857 
L 92.68064 462.370886 
L 92.261796 464.780796 
L 92.224934 464.939914 
L 91.569622 467.508943 
L 90.941381 470.077972 
L 90.366589 472.647 
L 89.873253 475.216029 
L 89.481762 477.785057 
L 89.409525 478.412022 
L 89.043229 480.354086 
L 88.782462 482.923114 
L 88.780967 485.492143 
L 89.098104 488.061171 
L 89.409525 489.206953 
L 89.694123 490.6302 
L 90.66292 493.199228 
L 92.261796 495.477244 
L 92.505875 495.768257 
L 95.114067 498.038109 
L 95.716286 498.337285 
z
M 100.818609 498.337285 
L 100.818609 498.337285 
L 97.966338 497.654215 
L 95.114067 495.974089 
L 94.877553 495.768257 
L 92.5695 493.199228 
L 92.261796 492.655001 
L 91.184124 490.6302 
L 90.443626 488.061171 
L 90.129214 485.492143 
L 90.097734 482.923114 
L 90.282457 480.354086 
L 90.654892 477.785057 
L 91.201438 475.216029 
L 91.90546 472.647 
L 92.261796 471.446868 
L 92.579888 470.077972 
L 93.189073 467.508943 
L 93.822801 464.939914 
L 94.462215 462.370886 
L 95.096683 459.801857 
L 95.114067 459.723281 
L 95.605896 457.232829 
L 96.089941 454.6638 
L 96.547943 452.094772 
L 96.977339 449.525743 
L 97.378822 446.956715 
L 97.75643 444.387686 
L 97.966338 442.85238 
L 98.113017 441.818658 
L 98.446357 439.249629 
L 98.754778 436.680601 
L 99.035992 434.111572 
L 99.290673 431.542544 
L 99.521766 428.973515 
L 99.733572 426.404487 
L 99.932593 423.835458 
L 100.12973 421.26643 
L 100.340975 418.697401 
L 100.584236 416.128373 
L 100.818609 414.034659 
L 100.882863 413.559344 
L 101.273711 410.990316 
L 101.69739 408.421287 
L 102.13474 405.852258 
L 102.568458 403.28323 
L 102.98921 400.714201 
L 103.398342 398.145173 
L 103.67088 396.417672 
L 103.847005 395.576144 
L 104.379029 393.007116 
L 104.924327 390.438087 
L 105.506104 387.869059 
L 106.154182 385.30003 
L 106.523151 384.011462 
L 107.02261 382.731002 
L 108.098657 380.161973 
L 109.279472 377.592945 
L 109.375422 377.401732 
L 111.146639 375.023916 
L 112.227693 373.569506 
L 115.079964 373.08659 
L 116.459049 375.023916 
L 117.81793 377.592945 
L 117.932235 377.870373 
L 118.560719 380.161973 
L 119.15906 382.731002 
L 119.726835 385.30003 
L 120.323765 387.869059 
L 120.784506 389.672614 
L 120.978766 390.438087 
L 121.664902 393.007116 
L 122.361075 395.576144 
L 123.049477 398.145173 
L 123.636777 400.424559 
L 123.707676 400.714201 
L 124.282728 403.28323 
L 124.781605 405.852258 
L 125.218805 408.421287 
L 125.610396 410.990316 
L 125.967423 413.559344 
L 126.295281 416.128373 
L 126.489048 417.773902 
L 126.60427 418.697401 
L 126.903339 421.26643 
L 127.19996 423.835458 
L 127.50376 426.404487 
L 127.806835 428.973515 
L 128.092823 431.542544 
L 128.352569 434.111572 
L 128.591939 436.680601 
L 128.830476 439.249629 
L 129.096676 441.818658 
L 129.341319 443.747213 
L 129.425809 444.387686 
L 129.841309 446.956715 
L 130.329049 449.525743 
L 130.872478 452.094772 
L 131.439855 454.6638 
L 132.001244 457.232829 
L 132.19359 458.108357 
L 132.616205 459.801857 
L 133.277233 462.370886 
L 133.953478 464.939914 
L 134.623796 467.508943 
L 135.045861 469.241388 
L 135.270584 470.077972 
L 135.827934 472.647 
L 136.121132 475.216029 
L 136.065321 477.785057 
L 135.55211 480.354086 
L 135.045861 481.533444 
L 134.511304 482.923114 
L 132.77582 485.492143 
L 132.19359 486.082994 
L 130.289404 488.061171 
L 129.341319 488.797242 
L 126.982642 490.6302 
L 126.489048 490.95265 
L 123.636777 492.76028 
L 122.825902 493.199228 
L 120.784506 494.268738 
L 117.932235 495.402959 
L 116.827771 495.768257 
L 115.079964 496.42121 
L 112.227693 497.307292 
L 109.375422 497.949027 
L 106.58006 498.337285 
L 106.523151 498.348066 
L 103.67088 498.569613 
z
" clip-path="url(#p1e89a170c4)" style="fill: #cde5cd; fill-opacity: 0.5"/>
    <path d="M 103.67088 498.569613 
L 106.523151 498.348066 
L 106.58006 498.337285 
L 109.375422 497.949027 
L 112.227693 497.307292 
L 115.079964 496.42121 
L 116.827771 495.768257 
L 117.932235 495.402959 
L 120.784506 494.268738 
L 122.825902 493.199228 
L 123.636777 492.76028 
L 126.489048 490.95265 
L 126.982642 490.6302 
L 129.341319 488.797242 
L 130.289404 488.061171 
L 132.19359 486.082994 
L 132.77582 485.492143 
L 134.511304 482.923114 
L 135.045861 481.533444 
L 135.55211 480.354086 
L 136.065321 477.785057 
L 136.121132 475.216029 
L 135.827934 472.647 
L 135.270584 470.077972 
L 135.045861 469.241388 
L 134.623796 467.508943 
L 133.953478 464.939914 
L 133.277233 462.370886 
L 132.616205 459.801857 
L 132.19359 458.108357 
L 132.001244 457.232829 
L 131.439855 454.6638 
L 130.872478 452.094772 
L 130.329049 449.525743 
L 129.841309 446.956715 
L 129.425809 444.387686 
L 129.341319 443.747213 
L 129.096676 441.818658 
L 128.830476 439.249629 
L 128.591939 436.680601 
L 128.352569 434.111572 
L 128.092823 431.542544 
L 127.806835 428.973515 
L 127.50376 426.404487 
L 127.19996 423.835458 
L 126.903339 421.26643 
L 126.60427 418.697401 
L 126.489048 417.773902 
L 126.295281 416.128373 
L 125.967423 413.559344 
L 125.610396 410.990316 
L 125.218805 408.421287 
L 124.781605 405.852258 
L 124.282728 403.28323 
L 123.707676 400.714201 
L 123.636777 400.424559 
L 123.049477 398.145173 
L 122.361075 395.576144 
L 121.664902 393.007116 
L 120.978766 390.438087 
L 120.784506 389.672614 
L 120.323765 387.869059 
L 119.726835 385.30003 
L 119.15906 382.731002 
L 118.560719 380.161973 
L 117.932235 377.870373 
L 117.81793 377.592945 
L 116.459049 375.023916 
L 115.079964 373.08659 
L 112.227693 373.569506 
L 111.146639 375.023916 
L 109.375422 377.401732 
L 109.279472 377.592945 
L 108.098657 380.161973 
L 107.02261 382.731002 
L 106.523151 384.011462 
L 106.154182 385.30003 
L 105.506104 387.869059 
L 104.924327 390.438087 
L 104.379029 393.007116 
L 103.847005 395.576144 
L 103.67088 396.417672 
L 103.398342 398.145173 
L 102.98921 400.714201 
L 102.568458 403.28323 
L 102.13474 405.852258 
L 101.69739 408.421287 
L 101.273711 410.990316 
L 100.882863 413.559344 
L 100.818609 414.034659 
L 100.584236 416.128373 
L 100.340975 418.697401 
L 100.12973 421.26643 
L 99.932593 423.835458 
L 99.733572 426.404487 
L 99.521766 428.973515 
L 99.290673 431.542544 
L 99.035992 434.111572 
L 98.754778 436.680601 
L 98.446357 439.249629 
L 98.113017 441.818658 
L 97.966338 442.85238 
L 97.75643 444.387686 
L 97.378822 446.956715 
L 96.977339 449.525743 
L 96.547943 452.094772 
L 96.089941 454.6638 
L 95.605896 457.232829 
L 95.114067 459.723281 
L 95.096683 459.801857 
L 94.462215 462.370886 
L 93.822801 464.939914 
L 93.189073 467.508943 
L 92.579888 470.077972 
L 92.261796 471.446868 
L 91.90546 472.647 
L 91.201438 475.216029 
L 90.654892 477.785057 
L 90.282457 480.354086 
L 90.097734 482.923114 
L 90.129214 485.492143 
L 90.443626 488.061171 
L 91.184124 490.6302 
L 92.261796 492.655001 
L 92.5695 493.199228 
L 94.877553 495.768257 
L 95.114067 495.974089 
L 97.966338 497.654215 
L 100.818609 498.337285 
L 100.818609 498.337285 
z
M 97.016097 495.768257 
L 95.114067 494.443516 
L 93.958078 493.199228 
L 92.440239 490.6302 
L 92.261796 490.112735 
L 91.515662 488.061171 
L 91.084816 485.492143 
L 91.017222 482.923114 
L 91.228748 480.354086 
L 91.684052 477.785057 
L 92.261796 475.570873 
L 92.333419 475.216029 
L 92.9332 472.647 
L 93.636438 470.077972 
L 94.40877 467.508943 
L 95.114067 465.223374 
L 95.196976 464.939914 
L 95.865892 462.370886 
L 96.518831 459.801857 
L 97.152173 457.232829 
L 97.764529 454.6638 
L 97.966338 453.738187 
L 98.351525 452.094772 
L 98.904766 449.525743 
L 99.426156 446.956715 
L 99.916297 444.387686 
L 100.373025 441.818658 
L 100.793382 439.249629 
L 100.818609 439.075244 
L 101.241436 436.680601 
L 101.647811 434.111572 
L 102.013455 431.542544 
L 102.347004 428.973515 
L 102.657277 426.404487 
L 102.952435 423.835458 
L 103.242706 421.26643 
L 103.543946 418.697401 
L 103.67088 417.711069 
L 104.01426 416.128373 
L 104.653853 413.559344 
L 105.358214 410.990316 
L 106.077686 408.421287 
L 106.523151 406.760123 
L 107.084388 405.852258 
L 108.371711 403.28323 
L 109.302889 400.714201 
L 109.375422 400.473122 
L 112.227693 398.145173 
L 114.009707 400.714201 
L 115.079964 401.910419 
L 115.664681 403.28323 
L 117.056097 405.852258 
L 117.932235 407.289473 
L 118.31989 408.421287 
L 119.107783 410.990316 
L 119.716218 413.559344 
L 120.150622 416.128373 
L 120.474993 418.697401 
L 120.778461 421.26643 
L 120.784506 421.307299 
L 121.118576 423.835458 
L 121.579566 426.404487 
L 122.155404 428.973515 
L 122.788677 431.542544 
L 123.399786 434.111572 
L 123.636777 435.236418 
L 123.902157 436.680601 
L 124.291394 439.249629 
L 124.622314 441.818658 
L 124.950432 444.387686 
L 125.338861 446.956715 
L 125.843252 449.525743 
L 126.487309 452.094772 
L 126.489048 452.100486 
L 127.268084 454.6638 
L 128.066496 457.232829 
L 128.828645 459.801857 
L 129.341319 461.595207 
L 129.563422 462.370886 
L 130.347917 464.939914 
L 131.136603 467.508943 
L 131.876649 470.077972 
L 132.19359 471.365692 
L 132.556489 472.647 
L 133.032226 475.216029 
L 133.111447 477.785057 
L 132.673798 480.354086 
L 132.19359 481.482137 
L 131.677251 482.923114 
L 129.978615 485.492143 
L 129.341319 486.136032 
L 127.584158 488.061171 
L 126.489048 488.942017 
L 124.336744 490.6302 
L 123.636777 491.091299 
L 120.784506 492.747253 
L 119.822914 493.199228 
L 117.932235 494.078875 
L 115.079964 495.144039 
L 113.013456 495.768257 
L 112.227693 496.039792 
L 109.375422 496.837209 
L 106.523151 497.319263 
L 103.67088 497.489327 
L 100.818609 497.256229 
L 97.966338 496.347065 
z
" clip-path="url(#p1e89a170c4)" style="fill: #c1dfc1; fill-opacity: 0.5"/>
    <path d="M 97.966338 496.347065 
L 100.818609 497.256229 
L 103.67088 497.489327 
L 106.523151 497.319263 
L 109.375422 496.837209 
L 112.227693 496.039792 
L 113.013456 495.768257 
L 115.079964 495.144039 
L 117.932235 494.078875 
L 119.822914 493.199228 
L 120.784506 492.747253 
L 123.636777 491.091299 
L 124.336744 490.6302 
L 126.489048 488.942017 
L 127.584158 488.061171 
L 129.341319 486.136032 
L 129.978615 485.492143 
L 131.677251 482.923114 
L 132.19359 481.482137 
L 132.673798 480.354086 
L 133.111447 477.785057 
L 133.032226 475.216029 
L 132.556489 472.647 
L 132.19359 471.365692 
L 131.876649 470.077972 
L 131.136603 467.508943 
L 130.347917 464.939914 
L 129.563422 462.370886 
L 129.341319 461.595207 
L 128.828645 459.801857 
L 128.066496 457.232829 
L 127.268084 454.6638 
L 126.489048 452.100486 
L 126.487309 452.094772 
L 125.843252 449.525743 
L 125.338861 446.956715 
L 124.950432 444.387686 
L 124.622314 441.818658 
L 124.291394 439.249629 
L 123.902157 436.680601 
L 123.636777 435.236418 
L 123.399786 434.111572 
L 122.788677 431.542544 
L 122.155404 428.973515 
L 121.579566 426.404487 
L 121.118576 423.835458 
L 120.784506 421.307299 
L 120.778461 421.26643 
L 120.474993 418.697401 
L 120.150622 416.128373 
L 119.716218 413.559344 
L 119.107783 410.990316 
L 118.31989 408.421287 
L 117.932235 407.289473 
L 117.056097 405.852258 
L 115.664681 403.28323 
L 115.079964 401.910419 
L 114.009707 400.714201 
L 112.227693 398.145173 
L 109.375422 400.473122 
L 109.302889 400.714201 
L 108.371711 403.28323 
L 107.084388 405.852258 
L 106.523151 406.760123 
L 106.077686 408.421287 
L 105.358214 410.990316 
L 104.653853 413.559344 
L 104.01426 416.128373 
L 103.67088 417.711069 
L 103.543946 418.697401 
L 103.242706 421.26643 
L 102.952435 423.835458 
L 102.657277 426.404487 
L 102.347004 428.973515 
L 102.013455 431.542544 
L 101.647811 434.111572 
L 101.241436 436.680601 
L 100.818609 439.075244 
L 100.793382 439.249629 
L 100.373025 441.818658 
L 99.916297 444.387686 
L 99.426156 446.956715 
L 98.904766 449.525743 
L 98.351525 452.094772 
L 97.966338 453.738187 
L 97.764529 454.6638 
L 97.152173 457.232829 
L 96.518831 459.801857 
L 95.865892 462.370886 
L 95.196976 464.939914 
L 95.114067 465.223374 
L 94.40877 467.508943 
L 93.636438 470.077972 
L 92.9332 472.647 
L 92.333419 475.216029 
L 92.261796 475.570873 
L 91.684052 477.785057 
L 91.228748 480.354086 
L 91.017222 482.923114 
L 91.084816 485.492143 
L 91.515662 488.061171 
L 92.261796 490.112735 
L 92.440239 490.6302 
L 93.958078 493.199228 
L 95.114067 494.443516 
L 97.016097 495.768257 
z
M 100.219043 495.768257 
L 97.966338 494.991468 
L 95.598039 493.199228 
L 95.114067 492.702484 
L 93.639837 490.6302 
L 92.655477 488.061171 
L 92.261796 485.739169 
L 92.212576 485.492143 
L 92.102361 482.923114 
L 92.261796 481.222059 
L 92.321031 480.354086 
L 92.703758 477.785057 
L 93.272956 475.216029 
L 94.009705 472.647 
L 94.883331 470.077972 
L 95.114067 469.394014 
L 95.728041 467.508943 
L 96.561317 464.939914 
L 97.387981 462.370886 
L 97.966338 460.477655 
L 98.201012 459.801857 
L 98.996708 457.232829 
L 99.752525 454.6638 
L 100.47604 452.094772 
L 100.818609 450.788072 
L 101.256444 449.525743 
L 102.055981 446.956715 
L 102.791816 444.387686 
L 103.466804 441.818658 
L 103.67088 440.940827 
L 104.294887 439.249629 
L 105.123397 436.680601 
L 105.860839 434.111572 
L 106.523151 431.563309 
L 106.536364 431.542544 
L 108.003977 428.973515 
L 109.375422 426.404487 
L 112.227693 426.972515 
L 113.419929 428.973515 
L 115.079964 431.47933 
L 115.106102 431.542544 
L 116.243254 434.111572 
L 117.358641 436.680601 
L 117.932235 438.11722 
L 118.274875 439.249629 
L 118.984303 441.818658 
L 119.638457 444.387686 
L 120.287033 446.956715 
L 120.784506 448.752934 
L 120.959724 449.525743 
L 121.695399 452.094772 
L 122.590036 454.6638 
L 123.613975 457.232829 
L 123.636777 457.282593 
L 124.752942 459.801857 
L 125.844058 462.370886 
L 126.489048 463.945571 
L 126.873848 464.939914 
L 127.877151 467.508943 
L 128.776003 470.077972 
L 129.341319 472.043303 
L 129.535091 472.647 
L 130.125776 475.216029 
L 130.306339 477.785057 
L 129.955068 480.354086 
L 129.341319 481.879958 
L 129.002999 482.923114 
L 127.435733 485.492143 
L 126.489048 486.490141 
L 125.065341 488.061171 
L 123.636777 489.217132 
L 121.663281 490.6302 
L 120.784506 491.168595 
L 117.932235 492.629208 
L 116.583732 493.199228 
L 115.079964 493.836511 
L 112.227693 494.853608 
L 109.375422 495.584513 
L 108.243817 495.768257 
L 106.523151 496.109235 
L 103.67088 496.301063 
L 100.818609 495.980414 
z
" clip-path="url(#p1e89a170c4)" style="fill: #b5d9b5; fill-opacity: 0.5"/>
    <path d="M 100.818609 495.980414 
L 103.67088 496.301063 
L 106.523151 496.109235 
L 108.243817 495.768257 
L 109.375422 495.584513 
L 112.227693 494.853608 
L 115.079964 493.836511 
L 116.583732 493.199228 
L 117.932235 492.629208 
L 120.784506 491.168595 
L 121.663281 490.6302 
L 123.636777 489.217132 
L 125.065341 488.061171 
L 126.489048 486.490141 
L 127.435733 485.492143 
L 129.002999 482.923114 
L 129.341319 481.879958 
L 129.955068 480.354086 
L 130.306339 477.785057 
L 130.125776 475.216029 
L 129.535091 472.647 
L 129.341319 472.043303 
L 128.776003 470.077972 
L 127.877151 467.508943 
L 126.873848 464.939914 
L 126.489048 463.945571 
L 125.844058 462.370886 
L 124.752942 459.801857 
L 123.636777 457.282593 
L 123.613975 457.232829 
L 122.590036 454.6638 
L 121.695399 452.094772 
L 120.959724 449.525743 
L 120.784506 448.752934 
L 120.287033 446.956715 
L 119.638457 444.387686 
L 118.984303 441.818658 
L 118.274875 439.249629 
L 117.932235 438.11722 
L 117.358641 436.680601 
L 116.243254 434.111572 
L 115.106102 431.542544 
L 115.079964 431.47933 
L 113.419929 428.973515 
L 112.227693 426.972515 
L 109.375422 426.404487 
L 108.003977 428.973515 
L 106.536364 431.542544 
L 106.523151 431.563309 
L 105.860839 434.111572 
L 105.123397 436.680601 
L 104.294887 439.249629 
L 103.67088 440.940827 
L 103.466804 441.818658 
L 102.791816 444.387686 
L 102.055981 446.956715 
L 101.256444 449.525743 
L 100.818609 450.788072 
L 100.47604 452.094772 
L 99.752525 454.6638 
L 98.996708 457.232829 
L 98.201012 459.801857 
L 97.966338 460.477655 
L 97.387981 462.370886 
L 96.561317 464.939914 
L 95.728041 467.508943 
L 95.114067 469.394014 
L 94.883331 470.077972 
L 94.009705 472.647 
L 93.272956 475.216029 
L 92.703758 477.785057 
L 92.321031 480.354086 
L 92.261796 481.222059 
L 92.102361 482.923114 
L 92.212576 485.492143 
L 92.261796 485.739169 
L 92.655477 488.061171 
L 93.639837 490.6302 
L 95.114067 492.702484 
L 95.598039 493.199228 
L 97.966338 494.991468 
L 100.219043 495.768257 
z
M 98.386571 493.199228 
L 97.966338 492.981775 
L 95.583328 490.6302 
L 95.114067 489.857739 
L 94.219439 488.061171 
L 93.585885 485.492143 
L 93.425319 482.923114 
L 93.608744 480.354086 
L 94.077539 477.785057 
L 94.8042 475.216029 
L 95.114067 474.308593 
L 95.666048 472.647 
L 96.630514 470.077972 
L 97.690023 467.508943 
L 97.966338 466.798069 
L 98.826442 464.939914 
L 99.952672 462.370886 
L 100.818609 460.25568 
L 101.094262 459.801857 
L 102.444135 457.232829 
L 103.67088 454.6638 
L 103.67088 454.6638 
L 105.741494 452.094772 
L 106.523151 450.944473 
L 109.375422 449.953678 
L 112.227693 451.445555 
L 112.763975 452.094772 
L 115.058947 454.6638 
L 115.079964 454.68504 
L 116.866133 457.232829 
L 117.932235 458.714395 
L 118.59977 459.801857 
L 120.277611 462.370886 
L 120.784506 463.110665 
L 121.908362 464.939914 
L 123.386154 467.508943 
L 123.636777 467.965779 
L 124.710177 470.077972 
L 125.764575 472.647 
L 126.461038 475.216029 
L 126.489048 475.458476 
L 126.787491 477.785057 
L 126.542227 480.354086 
L 126.489048 480.500275 
L 125.741462 482.923114 
L 124.154932 485.492143 
L 123.636777 486.042859 
L 121.636836 488.061171 
L 120.784506 488.70116 
L 117.932235 490.509074 
L 117.718045 490.6302 
L 115.079964 491.943581 
L 112.227693 493.057441 
L 111.76731 493.199228 
L 109.375422 493.968618 
L 106.523151 494.521233 
L 103.67088 494.680686 
L 100.818609 494.2955 
z
" clip-path="url(#p1e89a170c4)" style="fill: #a5d1a5; fill-opacity: 0.5"/>
    <path d="M 100.818609 494.2955 
L 103.67088 494.680686 
L 106.523151 494.521233 
L 109.375422 493.968618 
L 111.76731 493.199228 
L 112.227693 493.057441 
L 115.079964 491.943581 
L 117.718045 490.6302 
L 117.932235 490.509074 
L 120.784506 488.70116 
L 121.636836 488.061171 
L 123.636777 486.042859 
L 124.154932 485.492143 
L 125.741462 482.923114 
L 126.489048 480.500275 
L 126.542227 480.354086 
L 126.787491 477.785057 
L 126.489048 475.458476 
L 126.461038 475.216029 
L 125.764575 472.647 
L 124.710177 470.077972 
L 123.636777 467.965779 
L 123.386154 467.508943 
L 121.908362 464.939914 
L 120.784506 463.110665 
L 120.277611 462.370886 
L 118.59977 459.801857 
L 117.932235 458.714395 
L 116.866133 457.232829 
L 115.079964 454.68504 
L 115.058947 454.6638 
L 112.763975 452.094772 
L 112.227693 451.445555 
L 109.375422 449.953678 
L 106.523151 450.944473 
L 105.741494 452.094772 
L 103.67088 454.6638 
L 103.67088 454.6638 
L 102.444135 457.232829 
L 101.094262 459.801857 
L 100.818609 460.25568 
L 99.952672 462.370886 
L 98.826442 464.939914 
L 97.966338 466.798069 
L 97.690023 467.508943 
L 96.630514 470.077972 
L 95.666048 472.647 
L 95.114067 474.308593 
L 94.8042 475.216029 
L 94.077539 477.785057 
L 93.608744 480.354086 
L 93.425319 482.923114 
L 93.585885 485.492143 
L 94.219439 488.061171 
L 95.114067 489.857739 
L 95.583328 490.6302 
L 97.966338 492.981775 
L 98.386571 493.199228 
z
M 99.672092 490.6302 
L 97.966338 489.207711 
L 97.142872 488.061171 
L 96.14045 485.492143 
L 95.82809 482.923114 
L 95.991697 480.354086 
L 96.530049 477.785057 
L 97.394608 475.216029 
L 97.966338 473.86463 
L 98.589349 472.647 
L 100.058517 470.077972 
L 100.818609 468.788249 
L 101.990123 467.508943 
L 103.67088 465.552402 
L 104.810079 464.939914 
L 106.523151 463.839323 
L 109.375422 463.560019 
L 112.227693 464.704547 
L 112.513485 464.939914 
L 115.079964 466.952103 
L 115.604705 467.508943 
L 117.932235 470.077972 
L 117.932235 470.077972 
L 119.721037 472.647 
L 120.784506 474.848628 
L 120.95045 475.216029 
L 121.605476 477.785057 
L 121.564614 480.354086 
L 120.784506 482.707637 
L 120.715817 482.923114 
L 118.930754 485.492143 
L 117.932235 486.384824 
L 115.871574 488.061171 
L 115.079964 488.548428 
L 112.227693 490.074124 
L 110.840154 490.6302 
L 109.375422 491.16889 
L 106.523151 491.806257 
L 103.67088 491.937725 
L 100.818609 491.316083 
z
" clip-path="url(#p1e89a170c4)" style="fill: #87c287; fill-opacity: 0.5"/>
    <path d="M 100.818609 491.316083 
L 103.67088 491.937725 
L 106.523151 491.806257 
L 109.375422 491.16889 
L 110.840154 490.6302 
L 112.227693 490.074124 
L 115.079964 488.548428 
L 115.871574 488.061171 
L 117.932235 486.384824 
L 118.930754 485.492143 
L 120.715817 482.923114 
L 120.784506 482.707637 
L 121.564614 480.354086 
L 121.605476 477.785057 
L 120.95045 475.216029 
L 120.784506 474.848628 
L 119.721037 472.647 
L 117.932235 470.077972 
L 117.932235 470.077972 
L 115.604705 467.508943 
L 115.079964 466.952103 
L 112.513485 464.939914 
L 112.227693 464.704547 
L 109.375422 463.560019 
L 106.523151 463.839323 
L 104.810079 464.939914 
L 103.67088 465.552402 
L 101.990123 467.508943 
L 100.818609 468.788249 
L 100.058517 470.077972 
L 98.589349 472.647 
L 97.966338 473.86463 
L 97.394608 475.216029 
L 96.530049 477.785057 
L 95.991697 480.354086 
L 95.82809 482.923114 
L 96.14045 485.492143 
L 97.142872 488.061171 
L 97.966338 489.207711 
L 99.672092 490.6302 
z
M 102.33015 488.061171 
L 100.818609 487.21622 
L 99.559392 485.492143 
L 98.844779 482.923114 
L 98.95953 480.354086 
L 99.679179 477.785057 
L 100.818609 475.370944 
L 100.933117 475.216029 
L 103.253009 472.647 
L 103.67088 472.214681 
L 106.523151 470.952032 
L 109.375422 471.1305 
L 112.169761 472.647 
L 112.227693 472.684943 
L 114.538081 475.216029 
L 115.079964 476.249057 
L 115.746374 477.785057 
L 115.941014 480.354086 
L 115.079964 482.923114 
L 115.079964 482.923114 
L 112.926734 485.492143 
L 112.227693 486.011594 
L 109.375422 487.650816 
L 108.153112 488.061171 
L 106.523151 488.503167 
L 103.67088 488.555349 
z
" clip-path="url(#p1e89a170c4)" style="fill: #59ac59; fill-opacity: 0.5"/>
    <path d="M 103.67088 488.555349 
L 106.523151 488.503167 
L 108.153112 488.061171 
L 109.375422 487.650816 
L 112.227693 486.011594 
L 112.926734 485.492143 
L 115.079964 482.923114 
L 115.079964 482.923114 
L 115.941014 480.354086 
L 115.746374 477.785057 
L 115.079964 476.249057 
L 114.538081 475.216029 
L 112.227693 472.684943 
L 112.169761 472.647 
L 109.375422 471.1305 
L 106.523151 470.952032 
L 103.67088 472.214681 
L 103.253009 472.647 
L 100.933117 475.216029 
L 100.818609 475.370944 
L 99.679179 477.785057 
L 98.95953 480.354086 
L 98.844779 482.923114 
L 99.559392 485.492143 
L 100.818609 487.21622 
L 102.33015 488.061171 
z
" clip-path="url(#p1e89a170c4)" style="fill: #1f8f1f; fill-opacity: 0.5"/>
   </g>
   <g id="matplotlib.axis_1">
    <g id="xtick_1">
     <g id="line2d_1">
      <defs>
       <path id="m9d1593c6b3" d="M 0 0 
L 0 3.5 
" style="stroke: #000000; stroke-width: 0.8"/>
      </defs>
      <g>
       <use xlink:href="#m9d1593c6b3" x="99.31244" y="499.48" style="stroke: #000000; stroke-width: 0.8"/>
      </g>
     </g>
     <g id="text_1">
      <!-- 0 -->
      <g transform="translate(92.31369 523.196563) scale(0.22 -0.22)">
       <defs>
        <path id="DejaVuSans-30" d="M 2034 4250 
Q 1547 4250 1301 3770 
Q 1056 3291 1056 2328 
Q 1056 1369 1301 889 
Q 1547 409 2034 409 
Q 2525 409 2770 889 
Q 3016 1369 3016 2328 
Q 3016 3291 2770 3770 
Q 2525 4250 2034 4250 
z
M 2034 4750 
Q 2819 4750 3233 4129 
Q 3647 3509 3647 2328 
Q 3647 1150 3233 529 
Q 2819 -91 2034 -91 
Q 1250 -91 836 529 
Q 422 1150 422 2328 
Q 422 3509 836 4129 
Q 1250 4750 2034 4750 
z
" transform="scale(0.015625)"/>
       </defs>
       <use xlink:href="#DejaVuSans-30"/>
      </g>
     </g>
    </g>
    <g id="xtick_2">
     <g id="line2d_2">
      <g>
       <use xlink:href="#m9d1593c6b3" x="225.179847" y="499.48" style="stroke: #000000; stroke-width: 0.8"/>
      </g>
     </g>
     <g id="text_2">
      <!-- 20 -->
      <g transform="translate(211.182347 523.196563) scale(0.22 -0.22)">
       <defs>
        <path id="DejaVuSans-32" d="M 1228 531 
L 3431 531 
L 3431 0 
L 469 0 
L 469 531 
Q 828 903 1448 1529 
Q 2069 2156 2228 2338 
Q 2531 2678 2651 2914 
Q 2772 3150 2772 3378 
Q 2772 3750 2511 3984 
Q 2250 4219 1831 4219 
Q 1534 4219 1204 4116 
Q 875 4013 500 3803 
L 500 4441 
Q 881 4594 1212 4672 
Q 1544 4750 1819 4750 
Q 2544 4750 2975 4387 
Q 3406 4025 3406 3419 
Q 3406 3131 3298 2873 
Q 3191 2616 2906 2266 
Q 2828 2175 2409 1742 
Q 1991 1309 1228 531 
z
" transform="scale(0.015625)"/>
       </defs>
       <use xlink:href="#DejaVuSans-32"/>
       <use xlink:href="#DejaVuSans-30" x="63.623047"/>
      </g>
     </g>
    </g>
    <g id="xtick_3">
     <g id="line2d_3">
      <g>
       <use xlink:href="#m9d1593c6b3" x="351.047254" y="499.48" style="stroke: #000000; stroke-width: 0.8"/>
      </g>
     </g>
     <g id="text_3">
      <!-- 40 -->
      <g transform="translate(337.049754 523.196563) scale(0.22 -0.22)">
       <defs>
        <path id="DejaVuSans-34" d="M 2419 4116 
L 825 1625 
L 2419 1625 
L 2419 4116 
z
M 2253 4666 
L 3047 4666 
L 3047 1625 
L 3713 1625 
L 3713 1100 
L 3047 1100 
L 3047 0 
L 2419 0 
L 2419 1100 
L 313 1100 
L 313 1709 
L 2253 4666 
z
" transform="scale(0.015625)"/>
       </defs>
       <use xlink:href="#DejaVuSans-34"/>
       <use xlink:href="#DejaVuSans-30" x="63.623047"/>
      </g>
     </g>
    </g>
    <g id="xtick_4">
     <g id="line2d_4">
      <g>
       <use xlink:href="#m9d1593c6b3" x="476.914661" y="499.48" style="stroke: #000000; stroke-width: 0.8"/>
      </g>
     </g>
     <g id="text_4">
      <!-- 60 -->
      <g transform="translate(462.917161 523.196563) scale(0.22 -0.22)">
       <defs>
        <path id="DejaVuSans-36" d="M 2113 2584 
Q 1688 2584 1439 2293 
Q 1191 2003 1191 1497 
Q 1191 994 1439 701 
Q 1688 409 2113 409 
Q 2538 409 2786 701 
Q 3034 994 3034 1497 
Q 3034 2003 2786 2293 
Q 2538 2584 2113 2584 
z
M 3366 4563 
L 3366 3988 
Q 3128 4100 2886 4159 
Q 2644 4219 2406 4219 
Q 1781 4219 1451 3797 
Q 1122 3375 1075 2522 
Q 1259 2794 1537 2939 
Q 1816 3084 2150 3084 
Q 2853 3084 3261 2657 
Q 3669 2231 3669 1497 
Q 3669 778 3244 343 
Q 2819 -91 2113 -91 
Q 1303 -91 875 529 
Q 447 1150 447 2328 
Q 447 3434 972 4092 
Q 1497 4750 2381 4750 
Q 2619 4750 2861 4703 
Q 3103 4656 3366 4563 
z
" transform="scale(0.015625)"/>
       </defs>
       <use xlink:href="#DejaVuSans-36"/>
       <use xlink:href="#DejaVuSans-30" x="63.623047"/>
      </g>
     </g>
    </g>
    <g id="xtick_5">
     <g id="line2d_5">
      <g>
       <use xlink:href="#m9d1593c6b3" x="602.782068" y="499.48" style="stroke: #000000; stroke-width: 0.8"/>
      </g>
     </g>
     <g id="text_5">
      <!-- 80 -->
      <g transform="translate(588.784568 523.196563) scale(0.22 -0.22)">
       <defs>
        <path id="DejaVuSans-38" d="M 2034 2216 
Q 1584 2216 1326 1975 
Q 1069 1734 1069 1313 
Q 1069 891 1326 650 
Q 1584 409 2034 409 
Q 2484 409 2743 651 
Q 3003 894 3003 1313 
Q 3003 1734 2745 1975 
Q 2488 2216 2034 2216 
z
M 1403 2484 
Q 997 2584 770 2862 
Q 544 3141 544 3541 
Q 544 4100 942 4425 
Q 1341 4750 2034 4750 
Q 2731 4750 3128 4425 
Q 3525 4100 3525 3541 
Q 3525 3141 3298 2862 
Q 3072 2584 2669 2484 
Q 3125 2378 3379 2068 
Q 3634 1759 3634 1313 
Q 3634 634 3220 271 
Q 2806 -91 2034 -91 
Q 1263 -91 848 271 
Q 434 634 434 1313 
Q 434 1759 690 2068 
Q 947 2378 1403 2484 
z
M 1172 3481 
Q 1172 3119 1398 2916 
Q 1625 2713 2034 2713 
Q 2441 2713 2670 2916 
Q 2900 3119 2900 3481 
Q 2900 3844 2670 4047 
Q 2441 4250 2034 4250 
Q 1625 4250 1398 4047 
Q 1172 3844 1172 3481 
z
" transform="scale(0.015625)"/>
       </defs>
       <use xlink:href="#DejaVuSans-38"/>
       <use xlink:href="#DejaVuSans-30" x="63.623047"/>
      </g>
     </g>
    </g>
    <g id="text_6">
     <!-- Force Uncertainties -->
     <g transform="translate(283.426094 548.488438) scale(0.22 -0.22)">
      <defs>
       <path id="DejaVuSans-46" d="M 628 4666 
L 3309 4666 
L 3309 4134 
L 1259 4134 
L 1259 2759 
L 3109 2759 
L 3109 2228 
L 1259 2228 
L 1259 0 
L 628 0 
L 628 4666 
z
" transform="scale(0.015625)"/>
       <path id="DejaVuSans-6f" d="M 1959 3097 
Q 1497 3097 1228 2736 
Q 959 2375 959 1747 
Q 959 1119 1226 758 
Q 1494 397 1959 397 
Q 2419 397 2687 759 
Q 2956 1122 2956 1747 
Q 2956 2369 2687 2733 
Q 2419 3097 1959 3097 
z
M 1959 3584 
Q 2709 3584 3137 3096 
Q 3566 2609 3566 1747 
Q 3566 888 3137 398 
Q 2709 -91 1959 -91 
Q 1206 -91 779 398 
Q 353 888 353 1747 
Q 353 2609 779 3096 
Q 1206 3584 1959 3584 
z
" transform="scale(0.015625)"/>
       <path id="DejaVuSans-72" d="M 2631 2963 
Q 2534 3019 2420 3045 
Q 2306 3072 2169 3072 
Q 1681 3072 1420 2755 
Q 1159 2438 1159 1844 
L 1159 0 
L 581 0 
L 581 3500 
L 1159 3500 
L 1159 2956 
Q 1341 3275 1631 3429 
Q 1922 3584 2338 3584 
Q 2397 3584 2469 3576 
Q 2541 3569 2628 3553 
L 2631 2963 
z
" transform="scale(0.015625)"/>
       <path id="DejaVuSans-63" d="M 3122 3366 
L 3122 2828 
Q 2878 2963 2633 3030 
Q 2388 3097 2138 3097 
Q 1578 3097 1268 2742 
Q 959 2388 959 1747 
Q 959 1106 1268 751 
Q 1578 397 2138 397 
Q 2388 397 2633 464 
Q 2878 531 3122 666 
L 3122 134 
Q 2881 22 2623 -34 
Q 2366 -91 2075 -91 
Q 1284 -91 818 406 
Q 353 903 353 1747 
Q 353 2603 823 3093 
Q 1294 3584 2113 3584 
Q 2378 3584 2631 3529 
Q 2884 3475 3122 3366 
z
" transform="scale(0.015625)"/>
       <path id="DejaVuSans-65" d="M 3597 1894 
L 3597 1613 
L 953 1613 
Q 991 1019 1311 708 
Q 1631 397 2203 397 
Q 2534 397 2845 478 
Q 3156 559 3463 722 
L 3463 178 
Q 3153 47 2828 -22 
Q 2503 -91 2169 -91 
Q 1331 -91 842 396 
Q 353 884 353 1716 
Q 353 2575 817 3079 
Q 1281 3584 2069 3584 
Q 2775 3584 3186 3129 
Q 3597 2675 3597 1894 
z
M 3022 2063 
Q 3016 2534 2758 2815 
Q 2500 3097 2075 3097 
Q 1594 3097 1305 2825 
Q 1016 2553 972 2059 
L 3022 2063 
z
" transform="scale(0.015625)"/>
       <path id="DejaVuSans-20" transform="scale(0.015625)"/>
       <path id="DejaVuSans-55" d="M 556 4666 
L 1191 4666 
L 1191 1831 
Q 1191 1081 1462 751 
Q 1734 422 2344 422 
Q 2950 422 3222 751 
Q 3494 1081 3494 1831 
L 3494 4666 
L 4128 4666 
L 4128 1753 
Q 4128 841 3676 375 
Q 3225 -91 2344 -91 
Q 1459 -91 1007 375 
Q 556 841 556 1753 
L 556 4666 
z
" transform="scale(0.015625)"/>
       <path id="DejaVuSans-6e" d="M 3513 2113 
L 3513 0 
L 2938 0 
L 2938 2094 
Q 2938 2591 2744 2837 
Q 2550 3084 2163 3084 
Q 1697 3084 1428 2787 
Q 1159 2491 1159 1978 
L 1159 0 
L 581 0 
L 581 3500 
L 1159 3500 
L 1159 2956 
Q 1366 3272 1645 3428 
Q 1925 3584 2291 3584 
Q 2894 3584 3203 3211 
Q 3513 2838 3513 2113 
z
" transform="scale(0.015625)"/>
       <path id="DejaVuSans-74" d="M 1172 4494 
L 1172 3500 
L 2356 3500 
L 2356 3053 
L 1172 3053 
L 1172 1153 
Q 1172 725 1289 603 
Q 1406 481 1766 481 
L 2356 481 
L 2356 0 
L 1766 0 
Q 1100 0 847 248 
Q 594 497 594 1153 
L 594 3053 
L 172 3053 
L 172 3500 
L 594 3500 
L 594 4494 
L 1172 4494 
z
" transform="scale(0.015625)"/>
       <path id="DejaVuSans-61" d="M 2194 1759 
Q 1497 1759 1228 1600 
Q 959 1441 959 1056 
Q 959 750 1161 570 
Q 1363 391 1709 391 
Q 2188 391 2477 730 
Q 2766 1069 2766 1631 
L 2766 1759 
L 2194 1759 
z
M 3341 1997 
L 3341 0 
L 2766 0 
L 2766 531 
Q 2569 213 2275 61 
Q 1981 -91 1556 -91 
Q 1019 -91 701 211 
Q 384 513 384 1019 
Q 384 1609 779 1909 
Q 1175 2209 1959 2209 
L 2766 2209 
L 2766 2266 
Q 2766 2663 2505 2880 
Q 2244 3097 1772 3097 
Q 1472 3097 1187 3025 
Q 903 2953 641 2809 
L 641 3341 
Q 956 3463 1253 3523 
Q 1550 3584 1831 3584 
Q 2591 3584 2966 3190 
Q 3341 2797 3341 1997 
z
" transform="scale(0.015625)"/>
       <path id="DejaVuSans-69" d="M 603 3500 
L 1178 3500 
L 1178 0 
L 603 0 
L 603 3500 
z
M 603 4863 
L 1178 4863 
L 1178 4134 
L 603 4134 
L 603 4863 
z
" transform="scale(0.015625)"/>
       <path id="DejaVuSans-73" d="M 2834 3397 
L 2834 2853 
Q 2591 2978 2328 3040 
Q 2066 3103 1784 3103 
Q 1356 3103 1142 2972 
Q 928 2841 928 2578 
Q 928 2378 1081 2264 
Q 1234 2150 1697 2047 
L 1894 2003 
Q 2506 1872 2764 1633 
Q 3022 1394 3022 966 
Q 3022 478 2636 193 
Q 2250 -91 1575 -91 
Q 1294 -91 989 -36 
Q 684 19 347 128 
L 347 722 
Q 666 556 975 473 
Q 1284 391 1588 391 
Q 1994 391 2212 530 
Q 2431 669 2431 922 
Q 2431 1156 2273 1281 
Q 2116 1406 1581 1522 
L 1381 1569 
Q 847 1681 609 1914 
Q 372 2147 372 2553 
Q 372 3047 722 3315 
Q 1072 3584 1716 3584 
Q 2034 3584 2315 3537 
Q 2597 3491 2834 3397 
z
" transform="scale(0.015625)"/>
      </defs>
      <use xlink:href="#DejaVuSans-46"/>
      <use xlink:href="#DejaVuSans-6f" x="53.894531"/>
      <use xlink:href="#DejaVuSans-72" x="115.076172"/>
      <use xlink:href="#DejaVuSans-63" x="153.939453"/>
      <use xlink:href="#DejaVuSans-65" x="208.919922"/>
      <use xlink:href="#DejaVuSans-20" x="270.443359"/>
      <use xlink:href="#DejaVuSans-55" x="302.230469"/>
      <use xlink:href="#DejaVuSans-6e" x="375.423828"/>
      <use xlink:href="#DejaVuSans-63" x="438.802734"/>
      <use xlink:href="#DejaVuSans-65" x="493.783203"/>
      <use xlink:href="#DejaVuSans-72" x="555.306641"/>
      <use xlink:href="#DejaVuSans-74" x="596.419922"/>
      <use xlink:href="#DejaVuSans-61" x="635.628906"/>
      <use xlink:href="#DejaVuSans-69" x="696.908203"/>
      <use xlink:href="#DejaVuSans-6e" x="724.691406"/>
      <use xlink:href="#DejaVuSans-74" x="788.070312"/>
      <use xlink:href="#DejaVuSans-69" x="827.279297"/>
      <use xlink:href="#DejaVuSans-65" x="855.0625"/>
      <use xlink:href="#DejaVuSans-73" x="916.585938"/>
     </g>
    </g>
   </g>
   <g id="matplotlib.axis_2">
    <g id="ytick_1">
     <g id="line2d_6">
      <defs>
       <path id="mfb5adce160" d="M 0 0 
L -3.5 0 
" style="stroke: #000000; stroke-width: 0.8"/>
      </defs>
      <g>
       <use xlink:href="#mfb5adce160" x="83.72" y="487.36997" style="stroke: #000000; stroke-width: 0.8"/>
      </g>
     </g>
     <g id="text_7">
      <!-- 0 -->
      <g transform="translate(62.7225 495.728251) scale(0.22 -0.22)">
       <use xlink:href="#DejaVuSans-30"/>
      </g>
     </g>
    </g>
    <g id="ytick_2">
     <g id="line2d_7">
      <g>
       <use xlink:href="#mfb5adce160" x="83.72" y="389.613745" style="stroke: #000000; stroke-width: 0.8"/>
      </g>
     </g>
     <g id="text_8">
      <!-- 20 -->
      <g transform="translate(48.725 397.972027) scale(0.22 -0.22)">
       <use xlink:href="#DejaVuSans-32"/>
       <use xlink:href="#DejaVuSans-30" x="63.623047"/>
      </g>
     </g>
    </g>
    <g id="ytick_3">
     <g id="line2d_8">
      <g>
       <use xlink:href="#mfb5adce160" x="83.72" y="291.85752" style="stroke: #000000; stroke-width: 0.8"/>
      </g>
     </g>
     <g id="text_9">
      <!-- 40 -->
      <g transform="translate(48.725 300.215802) scale(0.22 -0.22)">
       <use xlink:href="#DejaVuSans-34"/>
       <use xlink:href="#DejaVuSans-30" x="63.623047"/>
      </g>
     </g>
    </g>
    <g id="ytick_4">
     <g id="line2d_9">
      <g>
       <use xlink:href="#mfb5adce160" x="83.72" y="194.101296" style="stroke: #000000; stroke-width: 0.8"/>
      </g>
     </g>
     <g id="text_10">
      <!-- 60 -->
      <g transform="translate(48.725 202.459577) scale(0.22 -0.22)">
       <use xlink:href="#DejaVuSans-36"/>
       <use xlink:href="#DejaVuSans-30" x="63.623047"/>
      </g>
     </g>
    </g>
    <g id="ytick_5">
     <g id="line2d_10">
      <g>
       <use xlink:href="#mfb5adce160" x="83.72" y="96.345071" style="stroke: #000000; stroke-width: 0.8"/>
      </g>
     </g>
     <g id="text_11">
      <!-- 80 -->
      <g transform="translate(48.725 104.703352) scale(0.22 -0.22)">
       <use xlink:href="#DejaVuSans-38"/>
       <use xlink:href="#DejaVuSans-30" x="63.623047"/>
      </g>
     </g>
    </g>
    <g id="text_12">
     <!-- Energy Errors[kJ/mol] -->
     <g transform="translate(40.149688 378.572344) rotate(-90) scale(0.22 -0.22)">
      <defs>
       <path id="DejaVuSans-45" d="M 628 4666 
L 3578 4666 
L 3578 4134 
L 1259 4134 
L 1259 2753 
L 3481 2753 
L 3481 2222 
L 1259 2222 
L 1259 531 
L 3634 531 
L 3634 0 
L 628 0 
L 628 4666 
z
" transform="scale(0.015625)"/>
       <path id="DejaVuSans-67" d="M 2906 1791 
Q 2906 2416 2648 2759 
Q 2391 3103 1925 3103 
Q 1463 3103 1205 2759 
Q 947 2416 947 1791 
Q 947 1169 1205 825 
Q 1463 481 1925 481 
Q 2391 481 2648 825 
Q 2906 1169 2906 1791 
z
M 3481 434 
Q 3481 -459 3084 -895 
Q 2688 -1331 1869 -1331 
Q 1566 -1331 1297 -1286 
Q 1028 -1241 775 -1147 
L 775 -588 
Q 1028 -725 1275 -790 
Q 1522 -856 1778 -856 
Q 2344 -856 2625 -561 
Q 2906 -266 2906 331 
L 2906 616 
Q 2728 306 2450 153 
Q 2172 0 1784 0 
Q 1141 0 747 490 
Q 353 981 353 1791 
Q 353 2603 747 3093 
Q 1141 3584 1784 3584 
Q 2172 3584 2450 3431 
Q 2728 3278 2906 2969 
L 2906 3500 
L 3481 3500 
L 3481 434 
z
" transform="scale(0.015625)"/>
       <path id="DejaVuSans-79" d="M 2059 -325 
Q 1816 -950 1584 -1140 
Q 1353 -1331 966 -1331 
L 506 -1331 
L 506 -850 
L 844 -850 
Q 1081 -850 1212 -737 
Q 1344 -625 1503 -206 
L 1606 56 
L 191 3500 
L 800 3500 
L 1894 763 
L 2988 3500 
L 3597 3500 
L 2059 -325 
z
" transform="scale(0.015625)"/>
       <path id="DejaVuSans-5b" d="M 550 4863 
L 1875 4863 
L 1875 4416 
L 1125 4416 
L 1125 -397 
L 1875 -397 
L 1875 -844 
L 550 -844 
L 550 4863 
z
" transform="scale(0.015625)"/>
       <path id="DejaVuSans-6b" d="M 581 4863 
L 1159 4863 
L 1159 1991 
L 2875 3500 
L 3609 3500 
L 1753 1863 
L 3688 0 
L 2938 0 
L 1159 1709 
L 1159 0 
L 581 0 
L 581 4863 
z
" transform="scale(0.015625)"/>
       <path id="DejaVuSans-4a" d="M 628 4666 
L 1259 4666 
L 1259 325 
Q 1259 -519 939 -900 
Q 619 -1281 -91 -1281 
L -331 -1281 
L -331 -750 
L -134 -750 
Q 284 -750 456 -515 
Q 628 -281 628 325 
L 628 4666 
z
" transform="scale(0.015625)"/>
       <path id="DejaVuSans-2f" d="M 1625 4666 
L 2156 4666 
L 531 -594 
L 0 -594 
L 1625 4666 
z
" transform="scale(0.015625)"/>
       <path id="DejaVuSans-6d" d="M 3328 2828 
Q 3544 3216 3844 3400 
Q 4144 3584 4550 3584 
Q 5097 3584 5394 3201 
Q 5691 2819 5691 2113 
L 5691 0 
L 5113 0 
L 5113 2094 
Q 5113 2597 4934 2840 
Q 4756 3084 4391 3084 
Q 3944 3084 3684 2787 
Q 3425 2491 3425 1978 
L 3425 0 
L 2847 0 
L 2847 2094 
Q 2847 2600 2669 2842 
Q 2491 3084 2119 3084 
Q 1678 3084 1418 2786 
Q 1159 2488 1159 1978 
L 1159 0 
L 581 0 
L 581 3500 
L 1159 3500 
L 1159 2956 
Q 1356 3278 1631 3431 
Q 1906 3584 2284 3584 
Q 2666 3584 2933 3390 
Q 3200 3197 3328 2828 
z
" transform="scale(0.015625)"/>
       <path id="DejaVuSans-6c" d="M 603 4863 
L 1178 4863 
L 1178 0 
L 603 0 
L 603 4863 
z
" transform="scale(0.015625)"/>
       <path id="DejaVuSans-5d" d="M 1947 4863 
L 1947 -844 
L 622 -844 
L 622 -397 
L 1369 -397 
L 1369 4416 
L 622 4416 
L 622 4863 
L 1947 4863 
z
" transform="scale(0.015625)"/>
      </defs>
      <use xlink:href="#DejaVuSans-45"/>
      <use xlink:href="#DejaVuSans-6e" x="63.183594"/>
      <use xlink:href="#DejaVuSans-65" x="126.5625"/>
      <use xlink:href="#DejaVuSans-72" x="188.085938"/>
      <use xlink:href="#DejaVuSans-67" x="227.449219"/>
      <use xlink:href="#DejaVuSans-79" x="290.925781"/>
      <use xlink:href="#DejaVuSans-20" x="350.105469"/>
      <use xlink:href="#DejaVuSans-45" x="381.892578"/>
      <use xlink:href="#DejaVuSans-72" x="445.076172"/>
      <use xlink:href="#DejaVuSans-72" x="484.439453"/>
      <use xlink:href="#DejaVuSans-6f" x="523.302734"/>
      <use xlink:href="#DejaVuSans-72" x="584.484375"/>
      <use xlink:href="#DejaVuSans-73" x="625.597656"/>
      <use xlink:href="#DejaVuSans-5b" x="677.697266"/>
      <use xlink:href="#DejaVuSans-6b" x="716.710938"/>
      <use xlink:href="#DejaVuSans-4a" x="774.621094"/>
      <use xlink:href="#DejaVuSans-2f" x="804.113281"/>
      <use xlink:href="#DejaVuSans-6d" x="837.804688"/>
      <use xlink:href="#DejaVuSans-6f" x="935.216797"/>
      <use xlink:href="#DejaVuSans-6c" x="996.398438"/>
      <use xlink:href="#DejaVuSans-5d" x="1024.181641"/>
     </g>
    </g>
   </g>
   <g id="line2d_11">
    <path d="M 83.72 499.48 
L 696.24 23.76 
" clip-path="url(#p1e89a170c4)" style="fill: none; stroke-dasharray: 5.55,2.4; stroke-dashoffset: 0; stroke: #ff0000; stroke-width: 1.5"/>
   </g>
   <g id="patch_3">
    <path d="M 83.72 499.48 
L 83.72 23.76 
" style="fill: none; stroke: #000000; stroke-width: 0.8; stroke-linejoin: miter; stroke-linecap: square"/>
   </g>
   <g id="patch_4">
    <path d="M 696.24 499.48 
L 696.24 23.76 
" style="fill: none; stroke: #000000; stroke-width: 0.8; stroke-linejoin: miter; stroke-linecap: square"/>
   </g>
   <g id="patch_5">
    <path d="M 83.72 499.48 
L 696.24 499.48 
" style="fill: none; stroke: #000000; stroke-width: 0.8; stroke-linejoin: miter; stroke-linecap: square"/>
   </g>
   <g id="patch_6">
    <path d="M 83.72 23.76 
L 696.24 23.76 
" style="fill: none; stroke: #000000; stroke-width: 0.8; stroke-linejoin: miter; stroke-linecap: square"/>
   </g>
   <g id="text_13">
    <!-- Correlation in: 0.420 -->
    <g transform="translate(132.7216 46.696812) scale(0.22 -0.22)">
     <defs>
      <path id="DejaVuSans-43" d="M 4122 4306 
L 4122 3641 
Q 3803 3938 3442 4084 
Q 3081 4231 2675 4231 
Q 1875 4231 1450 3742 
Q 1025 3253 1025 2328 
Q 1025 1406 1450 917 
Q 1875 428 2675 428 
Q 3081 428 3442 575 
Q 3803 722 4122 1019 
L 4122 359 
Q 3791 134 3420 21 
Q 3050 -91 2638 -91 
Q 1578 -91 968 557 
Q 359 1206 359 2328 
Q 359 3453 968 4101 
Q 1578 4750 2638 4750 
Q 3056 4750 3426 4639 
Q 3797 4528 4122 4306 
z
" transform="scale(0.015625)"/>
      <path id="DejaVuSans-3a" d="M 750 794 
L 1409 794 
L 1409 0 
L 750 0 
L 750 794 
z
M 750 3309 
L 1409 3309 
L 1409 2516 
L 750 2516 
L 750 3309 
z
" transform="scale(0.015625)"/>
      <path id="DejaVuSans-2e" d="M 684 794 
L 1344 794 
L 1344 0 
L 684 0 
L 684 794 
z
" transform="scale(0.015625)"/>
     </defs>
     <use xlink:href="#DejaVuSans-43"/>
     <use xlink:href="#DejaVuSans-6f" x="69.824219"/>
     <use xlink:href="#DejaVuSans-72" x="131.005859"/>
     <use xlink:href="#DejaVuSans-72" x="170.369141"/>
     <use xlink:href="#DejaVuSans-65" x="209.232422"/>
     <use xlink:href="#DejaVuSans-6c" x="270.755859"/>
     <use xlink:href="#DejaVuSans-61" x="298.539062"/>
     <use xlink:href="#DejaVuSans-74" x="359.818359"/>
     <use xlink:href="#DejaVuSans-69" x="399.027344"/>
     <use xlink:href="#DejaVuSans-6f" x="426.810547"/>
     <use xlink:href="#DejaVuSans-6e" x="487.992188"/>
     <use xlink:href="#DejaVuSans-20" x="551.371094"/>
     <use xlink:href="#DejaVuSans-69" x="583.158203"/>
     <use xlink:href="#DejaVuSans-6e" x="610.941406"/>
     <use xlink:href="#DejaVuSans-3a" x="674.320312"/>
     <use xlink:href="#DejaVuSans-20" x="708.011719"/>
     <use xlink:href="#DejaVuSans-30" x="739.798828"/>
     <use xlink:href="#DejaVuSans-2e" x="803.421875"/>
     <use xlink:href="#DejaVuSans-34" x="835.208984"/>
     <use xlink:href="#DejaVuSans-32" x="898.832031"/>
     <use xlink:href="#DejaVuSans-30" x="962.455078"/>
    </g>
    <!-- Correlation Out: 0.285 -->
    <g transform="translate(132.7216 71.332) scale(0.22 -0.22)">
     <defs>
      <path id="DejaVuSans-4f" d="M 2522 4238 
Q 1834 4238 1429 3725 
Q 1025 3213 1025 2328 
Q 1025 1447 1429 934 
Q 1834 422 2522 422 
Q 3209 422 3611 934 
Q 4013 1447 4013 2328 
Q 4013 3213 3611 3725 
Q 3209 4238 2522 4238 
z
M 2522 4750 
Q 3503 4750 4090 4092 
Q 4678 3434 4678 2328 
Q 4678 1225 4090 567 
Q 3503 -91 2522 -91 
Q 1538 -91 948 565 
Q 359 1222 359 2328 
Q 359 3434 948 4092 
Q 1538 4750 2522 4750 
z
" transform="scale(0.015625)"/>
      <path id="DejaVuSans-75" d="M 544 1381 
L 544 3500 
L 1119 3500 
L 1119 1403 
Q 1119 906 1312 657 
Q 1506 409 1894 409 
Q 2359 409 2629 706 
Q 2900 1003 2900 1516 
L 2900 3500 
L 3475 3500 
L 3475 0 
L 2900 0 
L 2900 538 
Q 2691 219 2414 64 
Q 2138 -91 1772 -91 
Q 1169 -91 856 284 
Q 544 659 544 1381 
z
M 1991 3584 
L 1991 3584 
z
" transform="scale(0.015625)"/>
      <path id="DejaVuSans-35" d="M 691 4666 
L 3169 4666 
L 3169 4134 
L 1269 4134 
L 1269 2991 
Q 1406 3038 1543 3061 
Q 1681 3084 1819 3084 
Q 2600 3084 3056 2656 
Q 3513 2228 3513 1497 
Q 3513 744 3044 326 
Q 2575 -91 1722 -91 
Q 1428 -91 1123 -41 
Q 819 9 494 109 
L 494 744 
Q 775 591 1075 516 
Q 1375 441 1709 441 
Q 2250 441 2565 725 
Q 2881 1009 2881 1497 
Q 2881 1984 2565 2268 
Q 2250 2553 1709 2553 
Q 1456 2553 1204 2497 
Q 953 2441 691 2322 
L 691 4666 
z
" transform="scale(0.015625)"/>
     </defs>
     <use xlink:href="#DejaVuSans-43"/>
     <use xlink:href="#DejaVuSans-6f" x="69.824219"/>
     <use xlink:href="#DejaVuSans-72" x="131.005859"/>
     <use xlink:href="#DejaVuSans-72" x="170.369141"/>
     <use xlink:href="#DejaVuSans-65" x="209.232422"/>
     <use xlink:href="#DejaVuSans-6c" x="270.755859"/>
     <use xlink:href="#DejaVuSans-61" x="298.539062"/>
     <use xlink:href="#DejaVuSans-74" x="359.818359"/>
     <use xlink:href="#DejaVuSans-69" x="399.027344"/>
     <use xlink:href="#DejaVuSans-6f" x="426.810547"/>
     <use xlink:href="#DejaVuSans-6e" x="487.992188"/>
     <use xlink:href="#DejaVuSans-20" x="551.371094"/>
     <use xlink:href="#DejaVuSans-4f" x="583.158203"/>
     <use xlink:href="#DejaVuSans-75" x="661.869141"/>
     <use xlink:href="#DejaVuSans-74" x="725.248047"/>
     <use xlink:href="#DejaVuSans-3a" x="764.457031"/>
     <use xlink:href="#DejaVuSans-20" x="798.148438"/>
     <use xlink:href="#DejaVuSans-30" x="829.935547"/>
     <use xlink:href="#DejaVuSans-2e" x="893.558594"/>
     <use xlink:href="#DejaVuSans-32" x="925.345703"/>
     <use xlink:href="#DejaVuSans-38" x="988.96875"/>
     <use xlink:href="#DejaVuSans-35" x="1052.591797"/>
    </g>
   </g>
   <g id="legend_1">
    <g id="patch_7">
     <path d="M 407.0225 105.94375 
L 680.84 105.94375 
Q 685.24 105.94375 685.24 101.54375 
L 685.24 39.16 
Q 685.24 34.76 680.84 34.76 
L 407.0225 34.76 
Q 402.6225 34.76 402.6225 39.16 
L 402.6225 101.54375 
Q 402.6225 105.94375 407.0225 105.94375 
z
" style="fill: #ffffff; opacity: 0.8; stroke: #cccccc; stroke-linejoin: miter"/>
    </g>
    <g id="line2d_12">
     <defs>
      <path id="m5ab442e342" d="M 0 2.5 
C 0.663008 2.5 1.29895 2.236584 1.767767 1.767767 
C 2.236584 1.29895 2.5 0.663008 2.5 0 
C 2.5 -0.663008 2.236584 -1.29895 1.767767 -1.767767 
C 1.29895 -2.236584 0.663008 -2.5 0 -2.5 
C -0.663008 -2.5 -1.29895 -2.236584 -1.767767 -1.767767 
C -2.236584 -1.29895 -2.5 -0.663008 -2.5 0 
C -2.5 0.663008 -2.236584 1.29895 -1.767767 1.767767 
C -1.29895 2.236584 -0.663008 2.5 0 2.5 
z
" style="stroke: #ffffff"/>
     </defs>
     <g>
      <use xlink:href="#m5ab442e342" x="433.4225" y="52.576562" style="fill: #0000ff; stroke: #ffffff"/>
     </g>
    </g>
    <g id="text_14">
     <!-- In Distribution -->
     <g transform="translate(473.0225 60.276562) scale(0.22 -0.22)">
      <defs>
       <path id="DejaVuSans-49" d="M 628 4666 
L 1259 4666 
L 1259 0 
L 628 0 
L 628 4666 
z
" transform="scale(0.015625)"/>
       <path id="DejaVuSans-44" d="M 1259 4147 
L 1259 519 
L 2022 519 
Q 2988 519 3436 956 
Q 3884 1394 3884 2338 
Q 3884 3275 3436 3711 
Q 2988 4147 2022 4147 
L 1259 4147 
z
M 628 4666 
L 1925 4666 
Q 3281 4666 3915 4102 
Q 4550 3538 4550 2338 
Q 4550 1131 3912 565 
Q 3275 0 1925 0 
L 628 0 
L 628 4666 
z
" transform="scale(0.015625)"/>
       <path id="DejaVuSans-62" d="M 3116 1747 
Q 3116 2381 2855 2742 
Q 2594 3103 2138 3103 
Q 1681 3103 1420 2742 
Q 1159 2381 1159 1747 
Q 1159 1113 1420 752 
Q 1681 391 2138 391 
Q 2594 391 2855 752 
Q 3116 1113 3116 1747 
z
M 1159 2969 
Q 1341 3281 1617 3432 
Q 1894 3584 2278 3584 
Q 2916 3584 3314 3078 
Q 3713 2572 3713 1747 
Q 3713 922 3314 415 
Q 2916 -91 2278 -91 
Q 1894 -91 1617 61 
Q 1341 213 1159 525 
L 1159 0 
L 581 0 
L 581 4863 
L 1159 4863 
L 1159 2969 
z
" transform="scale(0.015625)"/>
      </defs>
      <use xlink:href="#DejaVuSans-49"/>
      <use xlink:href="#DejaVuSans-6e" x="29.492188"/>
      <use xlink:href="#DejaVuSans-20" x="92.871094"/>
      <use xlink:href="#DejaVuSans-44" x="124.658203"/>
      <use xlink:href="#DejaVuSans-69" x="201.660156"/>
      <use xlink:href="#DejaVuSans-73" x="229.443359"/>
      <use xlink:href="#DejaVuSans-74" x="281.542969"/>
      <use xlink:href="#DejaVuSans-72" x="320.751953"/>
      <use xlink:href="#DejaVuSans-69" x="361.865234"/>
      <use xlink:href="#DejaVuSans-62" x="389.648438"/>
      <use xlink:href="#DejaVuSans-75" x="453.125"/>
      <use xlink:href="#DejaVuSans-74" x="516.503906"/>
      <use xlink:href="#DejaVuSans-69" x="555.712891"/>
      <use xlink:href="#DejaVuSans-6f" x="583.496094"/>
      <use xlink:href="#DejaVuSans-6e" x="644.677734"/>
     </g>
    </g>
    <g id="line2d_13">
     <defs>
      <path id="m7d9f2b07ff" d="M 0 2.5 
C 0.663008 2.5 1.29895 2.236584 1.767767 1.767767 
C 2.236584 1.29895 2.5 0.663008 2.5 0 
C 2.5 -0.663008 2.236584 -1.29895 1.767767 -1.767767 
C 1.29895 -2.236584 0.663008 -2.5 0 -2.5 
C -0.663008 -2.5 -1.29895 -2.236584 -1.767767 -1.767767 
C -2.236584 -1.29895 -2.5 -0.663008 -2.5 0 
C -2.5 0.663008 -2.236584 1.29895 -1.767767 1.767767 
C -1.29895 2.236584 -0.663008 2.5 0 2.5 
z
" style="stroke: #ffffff"/>
     </defs>
     <g>
      <use xlink:href="#m7d9f2b07ff" x="433.4225" y="84.868437" style="fill: #008000; stroke: #ffffff"/>
     </g>
    </g>
    <g id="text_15">
     <!-- Out of Distribution -->
     <g transform="translate(473.0225 92.568437) scale(0.22 -0.22)">
      <defs>
       <path id="DejaVuSans-66" d="M 2375 4863 
L 2375 4384 
L 1825 4384 
Q 1516 4384 1395 4259 
Q 1275 4134 1275 3809 
L 1275 3500 
L 2222 3500 
L 2222 3053 
L 1275 3053 
L 1275 0 
L 697 0 
L 697 3053 
L 147 3053 
L 147 3500 
L 697 3500 
L 697 3744 
Q 697 4328 969 4595 
Q 1241 4863 1831 4863 
L 2375 4863 
z
" transform="scale(0.015625)"/>
      </defs>
      <use xlink:href="#DejaVuSans-4f"/>
      <use xlink:href="#DejaVuSans-75" x="78.710938"/>
      <use xlink:href="#DejaVuSans-74" x="142.089844"/>
      <use xlink:href="#DejaVuSans-20" x="181.298828"/>
      <use xlink:href="#DejaVuSans-6f" x="213.085938"/>
      <use xlink:href="#DejaVuSans-66" x="274.267578"/>
      <use xlink:href="#DejaVuSans-20" x="309.472656"/>
      <use xlink:href="#DejaVuSans-44" x="341.259766"/>
      <use xlink:href="#DejaVuSans-69" x="418.261719"/>
      <use xlink:href="#DejaVuSans-73" x="446.044922"/>
      <use xlink:href="#DejaVuSans-74" x="498.144531"/>
      <use xlink:href="#DejaVuSans-72" x="537.353516"/>
      <use xlink:href="#DejaVuSans-69" x="578.466797"/>
      <use xlink:href="#DejaVuSans-62" x="606.25"/>
      <use xlink:href="#DejaVuSans-75" x="669.726562"/>
      <use xlink:href="#DejaVuSans-74" x="733.105469"/>
      <use xlink:href="#DejaVuSans-69" x="772.314453"/>
      <use xlink:href="#DejaVuSans-6f" x="800.097656"/>
      <use xlink:href="#DejaVuSans-6e" x="861.279297"/>
     </g>
    </g>
   </g>
  </g>
 </g>
 <defs>
  <clipPath id="p1e89a170c4">
   <rect x="83.72" y="23.76" width="612.52" height="475.72"/>
  </clipPath>
 </defs>
</svg>
