<?xml version="1.0" encoding="utf-8" standalone="no"?>
<!DOCTYPE svg PUBLIC "-//W3C//DTD SVG 1.1//EN"
  "http://www.w3.org/Graphics/SVG/1.1/DTD/svg11.dtd">
<svg xmlns:xlink="http://www.w3.org/1999/xlink" width="720pt" height="576pt" viewBox="0 0 720 576" xmlns="http://www.w3.org/2000/svg" version="1.1">
 <metadata>
  <rdf:RDF xmlns:dc="http://purl.org/dc/elements/1.1/" xmlns:cc="http://creativecommons.org/ns#" xmlns:rdf="http://www.w3.org/1999/02/22-rdf-syntax-ns#">
   <cc:Work>
    <dc:type rdf:resource="http://purl.org/dc/dcmitype/StillImage"/>
    <dc:date>2024-12-07T20:00:14.869598</dc:date>
    <dc:format>image/svg+xml</dc:format>
    <dc:creator>
     <cc:Agent>
      <dc:title>Matplotlib v3.8.4, https://matplotlib.org/</dc:title>
     </cc:Agent>
    </dc:creator>
   </cc:Work>
  </rdf:RDF>
 </metadata>
 <defs>
  <style type="text/css">*{stroke-linejoin: round; stroke-linecap: butt}</style>
 </defs>
 <g id="figure_1">
  <g id="patch_1">
   <path d="M 0 576 
L 720 576 
L 720 0 
L 0 0 
z
" style="fill: #ffffff"/>
  </g>
  <g id="axes_1">
   <g id="patch_2">
    <path d="M 83.72 499.48 
L 696.24 499.48 
L 696.24 23.76 
L 83.72 23.76 
z
" style="fill: #ffffff"/>
   </g>
   <g id="QuadContourSet_1">
    <path d="M 81.101617 500.330309 
L 84.477337 500.477728 
L 87.853057 500.325829 
L 87.853057 500.325829 
L 91.228777 500.228574 
L 94.604497 500.213113 
L 97.980217 500.278808 
L 101.355937 500.303113 
L 104.731657 500.213306 
L 108.107377 500.01785 
L 111.483097 499.711848 
L 114.858817 499.243844 
L 118.234537 498.503366 
L 120.161197 497.874157 
L 121.610257 497.591421 
L 124.985977 496.678801 
L 127.894451 495.422485 
L 128.361697 495.28273 
L 131.737417 494.086348 
L 133.94771 492.970813 
L 135.113137 492.502443 
L 138.488857 490.787919 
L 138.975357 490.519141 
L 141.864578 489.09929 
L 143.614469 488.067469 
L 145.240298 487.104773 
L 147.571373 485.615797 
L 148.616018 484.858722 
L 151.014723 483.164125 
L 151.991738 482.27756 
L 153.940029 480.712453 
L 155.367458 479.038127 
L 156.188404 478.260781 
L 157.658766 475.809109 
L 157.694505 473.357437 
L 156.015708 470.905765 
L 155.367458 470.288351 
L 153.978617 468.454093 
L 151.991738 466.77257 
L 150.895813 466.002421 
L 148.616018 464.790637 
L 145.240298 463.814594 
L 142.998186 463.550749 
L 141.864578 463.38391 
L 138.488857 463.207629 
L 135.113137 463.177793 
L 131.737417 463.144798 
L 128.361697 463.03012 
L 124.985977 462.895518 
L 121.610257 462.901526 
L 118.234537 463.158699 
L 115.914442 463.550749 
L 114.858817 463.650249 
L 111.483097 464.168888 
L 108.107377 465.065964 
L 105.860443 466.002421 
L 104.731657 466.313644 
L 101.355937 467.654111 
L 99.896679 468.454093 
L 97.980217 469.257126 
L 95.197089 470.905765 
L 94.604497 471.198443 
L 91.228777 473.349765 
L 91.217471 473.357437 
L 87.853057 475.544224 
L 87.484495 475.809109 
L 84.477337 478.086193 
L 84.248578 478.260781 
L 81.307679 480.712453 
L 81.101617 480.921305 
L 78.548261 483.164125 
L 77.725897 484.193534 
L 76.260689 485.615797 
L 74.605157 488.067469 
L 74.350177 488.64361 
L 73.054859 490.519141 
L 72.281353 492.970813 
L 72.388516 495.422485 
L 74.017877 497.874157 
L 74.350177 498.132421 
L 77.725897 499.807182 
L 81.075939 500.325829 
z
M 84.694579 495.422485 
L 84.477337 495.382901 
L 81.101617 493.390293 
L 80.715438 492.970813 
L 80.133712 490.519141 
L 80.927156 488.067469 
L 81.101617 487.831024 
L 82.333787 485.615797 
L 84.477337 483.320379 
L 84.601204 483.164125 
L 87.175233 480.712453 
L 87.853057 480.17962 
L 90.336168 478.260781 
L 91.228777 477.629006 
L 94.143466 475.809109 
L 94.604497 475.513458 
L 97.980217 473.658285 
L 98.67926 473.357437 
L 101.355937 472.001209 
L 104.593765 470.905765 
L 104.731657 470.844784 
L 108.107377 469.681846 
L 111.483097 468.975302 
L 114.858817 468.557594 
L 116.75431 468.454093 
L 118.234537 468.331368 
L 121.610257 468.322356 
L 124.985977 468.412409 
L 128.361697 468.454093 
L 128.361697 468.454093 
L 128.361697 468.454093 
L 131.737417 468.447089 
L 132.013277 468.454093 
L 135.113137 468.514117 
L 138.488857 468.867373 
L 141.864578 469.924288 
L 143.541423 470.905765 
L 145.240298 472.739837 
L 145.717506 473.357437 
L 146.396502 475.809109 
L 145.896068 478.260781 
L 145.240298 479.226969 
L 144.465315 480.712453 
L 142.058334 483.164125 
L 141.864578 483.310543 
L 138.967134 485.615797 
L 138.488857 485.926461 
L 135.113137 487.992288 
L 134.980598 488.067469 
L 131.737417 489.827875 
L 130.109901 490.519141 
L 128.361697 491.342698 
L 124.985977 492.543134 
L 123.374623 492.970813 
L 121.610257 493.573607 
L 118.234537 494.408187 
L 114.858817 494.971332 
L 111.483097 495.353083 
L 110.41919 495.422485 
L 108.107377 495.650157 
L 104.731657 495.693904 
L 101.355937 495.540454 
L 97.980217 495.473126 
L 94.604497 495.659192 
L 91.228777 495.895146 
L 87.853057 495.903816 
z
" clip-path="url(#p63dc821891)" style="fill: #e8f1fa"/>
    <path d="M 87.853057 495.903816 
L 91.228777 495.895146 
L 94.604497 495.659192 
L 97.980217 495.473126 
L 101.355937 495.540454 
L 104.731657 495.693904 
L 108.107377 495.650157 
L 110.41919 495.422485 
L 111.483097 495.353083 
L 114.858817 494.971332 
L 118.234537 494.408187 
L 121.610257 493.573607 
L 123.374623 492.970813 
L 124.985977 492.543134 
L 128.361697 491.342698 
L 130.109901 490.519141 
L 131.737417 489.827875 
L 134.980598 488.067469 
L 135.113137 487.992288 
L 138.488857 485.926461 
L 138.967134 485.615797 
L 141.864578 483.310543 
L 142.058334 483.164125 
L 144.465315 480.712453 
L 145.240298 479.226969 
L 145.896068 478.260781 
L 146.396502 475.809109 
L 145.717506 473.357437 
L 145.240298 472.739837 
L 143.541423 470.905765 
L 141.864578 469.924288 
L 138.488857 468.867373 
L 135.113137 468.514117 
L 132.013277 468.454093 
L 131.737417 468.447089 
L 128.361697 468.454093 
L 128.361697 468.454093 
L 128.361697 468.454093 
L 124.985977 468.412409 
L 121.610257 468.322356 
L 118.234537 468.331368 
L 116.75431 468.454093 
L 114.858817 468.557594 
L 111.483097 468.975302 
L 108.107377 469.681846 
L 104.731657 470.844784 
L 104.593765 470.905765 
L 101.355937 472.001209 
L 98.67926 473.357437 
L 97.980217 473.658285 
L 94.604497 475.513458 
L 94.143466 475.809109 
L 91.228777 477.629006 
L 90.336168 478.260781 
L 87.853057 480.17962 
L 87.175233 480.712453 
L 84.601204 483.164125 
L 84.477337 483.320379 
L 82.333787 485.615797 
L 81.101617 487.831024 
L 80.927156 488.067469 
L 80.133712 490.519141 
L 80.715438 492.970813 
L 81.101617 493.390293 
L 84.477337 495.382901 
L 84.694579 495.422485 
z
M 86.849007 492.970813 
L 84.477337 491.038633 
L 84.128736 490.519141 
L 84.205926 488.067469 
L 84.477337 487.606567 
L 85.401173 485.615797 
L 87.45721 483.164125 
L 87.853057 482.812914 
L 90.111916 480.712453 
L 91.228777 479.866922 
L 93.499752 478.260781 
L 94.604497 477.534138 
L 97.748277 475.809109 
L 97.980217 475.675314 
L 101.355937 474.03892 
L 103.319049 473.357437 
L 104.731657 472.770442 
L 108.107377 471.786989 
L 111.483097 471.175316 
L 114.276524 470.905765 
L 114.858817 470.829364 
L 118.234537 470.732812 
L 121.610257 470.825333 
L 124.985977 470.905765 
L 124.985977 470.905765 
L 124.985977 470.905765 
L 128.361697 470.893285 
L 130.161783 470.905765 
L 131.737417 470.914851 
L 135.113137 471.211105 
L 138.488857 472.285806 
L 140.135245 473.357437 
L 141.654296 475.809109 
L 141.602948 478.260781 
L 140.464426 480.712453 
L 138.488857 482.830022 
L 138.201864 483.164125 
L 135.113137 485.548238 
L 135.021903 485.615797 
L 131.737417 487.584373 
L 130.785309 488.067469 
L 128.361697 489.244404 
L 124.985977 490.475335 
L 124.839174 490.519141 
L 121.610257 491.594624 
L 118.234537 492.375724 
L 114.858817 492.921601 
L 114.376244 492.970813 
L 111.483097 493.355632 
L 108.107377 493.480061 
L 104.731657 493.342114 
L 101.355937 493.220852 
L 97.980217 493.373876 
L 94.604497 493.642772 
L 91.228777 493.735265 
L 87.853057 493.327531 
z
" clip-path="url(#p63dc821891)" style="fill: #cddff1"/>
    <path d="M 87.853057 493.327531 
L 91.228777 493.735265 
L 94.604497 493.642772 
L 97.980217 493.373876 
L 101.355937 493.220852 
L 104.731657 493.342114 
L 108.107377 493.480061 
L 111.483097 493.355632 
L 114.376244 492.970813 
L 114.858817 492.921601 
L 118.234537 492.375724 
L 121.610257 491.594624 
L 124.839174 490.519141 
L 124.985977 490.475335 
L 128.361697 489.244404 
L 130.785309 488.067469 
L 131.737417 487.584373 
L 135.021903 485.615797 
L 135.113137 485.548238 
L 138.201864 483.164125 
L 138.488857 482.830022 
L 140.464426 480.712453 
L 141.602948 478.260781 
L 141.654296 475.809109 
L 140.135245 473.357437 
L 138.488857 472.285806 
L 135.113137 471.211105 
L 131.737417 470.914851 
L 130.161783 470.905765 
L 128.361697 470.893285 
L 124.985977 470.905765 
L 124.985977 470.905765 
L 124.985977 470.905765 
L 121.610257 470.825333 
L 118.234537 470.732812 
L 114.858817 470.829364 
L 114.276524 470.905765 
L 111.483097 471.175316 
L 108.107377 471.786989 
L 104.731657 472.770442 
L 103.319049 473.357437 
L 101.355937 474.03892 
L 97.980217 475.675314 
L 97.748277 475.809109 
L 94.604497 477.534138 
L 93.499752 478.260781 
L 91.228777 479.866922 
L 90.111916 480.712453 
L 87.853057 482.812914 
L 87.45721 483.164125 
L 85.401173 485.615797 
L 84.477337 487.606567 
L 84.205926 488.067469 
L 84.128736 490.519141 
L 84.477337 491.038633 
L 86.849007 492.970813 
z
M 87.853057 490.519141 
L 87.853057 490.519141 
L 86.960252 488.067469 
L 87.853057 485.685506 
L 87.874628 485.615797 
L 89.73936 483.164125 
L 91.228777 481.842099 
L 92.502256 480.712453 
L 94.604497 479.216877 
L 96.11703 478.260781 
L 97.980217 477.165775 
L 100.89965 475.809109 
L 101.355937 475.584084 
L 104.731657 474.293077 
L 108.107377 473.424666 
L 108.534718 473.357437 
L 111.483097 472.799993 
L 114.858817 472.560482 
L 118.234537 472.608932 
L 121.610257 472.73759 
L 124.985977 472.75674 
L 128.361697 472.723113 
L 131.737417 472.887648 
L 134.00702 473.357437 
L 135.113137 473.709668 
L 137.787092 475.809109 
L 138.27498 478.260781 
L 137.338931 480.712453 
L 135.164922 483.164125 
L 135.113137 483.204096 
L 131.8563 485.615797 
L 131.737417 485.68705 
L 128.361697 487.495618 
L 127.054098 488.067469 
L 124.985977 488.92837 
L 121.610257 489.997827 
L 119.412269 490.519141 
L 118.234537 490.831267 
L 114.858817 491.432393 
L 111.483097 491.703819 
L 108.107377 491.657243 
L 104.731657 491.486819 
L 101.355937 491.540848 
L 97.980217 491.797382 
L 94.604497 491.996733 
L 91.228777 491.81762 
z
" clip-path="url(#p63dc821891)" style="fill: #a8cee4"/>
    <path d="M 91.228777 491.81762 
L 94.604497 491.996733 
L 97.980217 491.797382 
L 101.355937 491.540848 
L 104.731657 491.486819 
L 108.107377 491.657243 
L 111.483097 491.703819 
L 114.858817 491.432393 
L 118.234537 490.831267 
L 119.412269 490.519141 
L 121.610257 489.997827 
L 124.985977 488.92837 
L 127.054098 488.067469 
L 128.361697 487.495618 
L 131.737417 485.68705 
L 131.8563 485.615797 
L 135.113137 483.204096 
L 135.164922 483.164125 
L 137.338931 480.712453 
L 138.27498 478.260781 
L 137.787092 475.809109 
L 135.113137 473.709668 
L 134.00702 473.357437 
L 131.737417 472.887648 
L 128.361697 472.723113 
L 124.985977 472.75674 
L 121.610257 472.73759 
L 118.234537 472.608932 
L 114.858817 472.560482 
L 111.483097 472.799993 
L 108.534718 473.357437 
L 108.107377 473.424666 
L 104.731657 474.293077 
L 101.355937 475.584084 
L 100.89965 475.809109 
L 97.980217 477.165775 
L 96.11703 478.260781 
L 94.604497 479.216877 
L 92.502256 480.712453 
L 91.228777 481.842099 
L 89.73936 483.164125 
L 87.874628 485.615797 
L 87.853057 485.685506 
L 86.960252 488.067469 
L 87.853057 490.519141 
L 87.853057 490.519141 
z
M 91.99255 490.519141 
L 91.228777 490.32604 
L 89.063948 488.067469 
L 89.562072 485.615797 
L 91.228777 483.389011 
L 91.385773 483.164125 
L 94.157747 480.712453 
L 94.604497 480.394626 
L 97.980217 478.260781 
L 97.980217 478.260781 
L 101.355937 476.593579 
L 103.4874 475.809109 
L 104.731657 475.323888 
L 108.107377 474.441367 
L 111.483097 473.954796 
L 114.858817 473.829076 
L 118.234537 473.962968 
L 121.610257 474.079505 
L 124.985977 474.051699 
L 128.361697 474.05064 
L 131.737417 474.442689 
L 134.825282 475.809109 
L 135.113137 476.250906 
L 135.958432 478.260781 
L 135.182493 480.712453 
L 135.113137 480.790563 
L 133.078463 483.164125 
L 131.737417 484.154737 
L 129.582111 485.615797 
L 128.361697 486.273338 
L 124.985977 487.781447 
L 124.200151 488.067469 
L 121.610257 488.958326 
L 118.234537 489.784042 
L 114.858817 490.318807 
L 111.483097 490.515349 
L 108.107377 490.342979 
L 104.731657 490.195776 
L 101.355937 490.357951 
L 99.682908 490.519141 
L 97.980217 490.695273 
L 94.604497 490.855198 
z
" clip-path="url(#p63dc821891)" style="fill: #7cb7da"/>
    <path d="M 94.604497 490.855198 
L 97.980217 490.695273 
L 99.682908 490.519141 
L 101.355937 490.357951 
L 104.731657 490.195776 
L 108.107377 490.342979 
L 111.483097 490.515349 
L 114.858817 490.318807 
L 118.234537 489.784042 
L 121.610257 488.958326 
L 124.200151 488.067469 
L 124.985977 487.781447 
L 128.361697 486.273338 
L 129.582111 485.615797 
L 131.737417 484.154737 
L 133.078463 483.164125 
L 135.113137 480.790563 
L 135.182493 480.712453 
L 135.958432 478.260781 
L 135.113137 476.250906 
L 134.825282 475.809109 
L 131.737417 474.442689 
L 128.361697 474.05064 
L 124.985977 474.051699 
L 121.610257 474.079505 
L 118.234537 473.962968 
L 114.858817 473.829076 
L 111.483097 473.954796 
L 108.107377 474.441367 
L 104.731657 475.323888 
L 103.4874 475.809109 
L 101.355937 476.593579 
L 97.980217 478.260781 
L 97.980217 478.260781 
L 94.604497 480.394626 
L 94.157747 480.712453 
L 91.385773 483.164125 
L 91.228777 483.389011 
L 89.562072 485.615797 
L 89.063948 488.067469 
L 91.228777 490.32604 
L 91.99255 490.519141 
z
M 93.04456 488.067469 
L 92.380278 485.615797 
L 93.908185 483.164125 
L 94.604497 482.553125 
L 96.813432 480.712453 
L 97.980217 479.964194 
L 101.137157 478.260781 
L 101.355937 478.15273 
L 104.731657 476.911855 
L 108.107377 476.091838 
L 110.642555 475.809109 
L 111.483097 475.715365 
L 114.858817 475.809109 
L 114.858817 475.809109 
L 118.234537 476.104141 
L 121.610257 476.139734 
L 124.985977 476.03152 
L 128.361697 476.216451 
L 131.737417 477.843307 
L 132.107337 478.260781 
L 131.861874 480.712453 
L 131.737417 480.857148 
L 129.742596 483.164125 
L 128.361697 484.105402 
L 125.849916 485.615797 
L 124.985977 486.018606 
L 121.610257 487.263257 
L 118.651239 488.067469 
L 118.234537 488.173023 
L 114.858817 488.579466 
L 111.483097 488.518288 
L 108.107377 488.253289 
L 104.731657 488.33438 
L 101.355937 488.712836 
L 97.980217 488.999445 
L 94.604497 488.756915 
z
" clip-path="url(#p63dc821891)" style="fill: #4f9bcb"/>
    <path d="M 94.604497 488.756915 
L 97.980217 488.999445 
L 101.355937 488.712836 
L 104.731657 488.33438 
L 108.107377 488.253289 
L 111.483097 488.518288 
L 114.858817 488.579466 
L 118.234537 488.173023 
L 118.651239 488.067469 
L 121.610257 487.263257 
L 124.985977 486.018606 
L 125.849916 485.615797 
L 128.361697 484.105402 
L 129.742596 483.164125 
L 131.737417 480.857148 
L 131.861874 480.712453 
L 132.107337 478.260781 
L 131.737417 477.843307 
L 128.361697 476.216451 
L 124.985977 476.03152 
L 121.610257 476.139734 
L 118.234537 476.104141 
L 114.858817 475.809109 
L 114.858817 475.809109 
L 111.483097 475.715365 
L 110.642555 475.809109 
L 108.107377 476.091838 
L 104.731657 476.911855 
L 101.355937 478.15273 
L 101.137157 478.260781 
L 97.980217 479.964194 
L 96.813432 480.712453 
L 94.604497 482.553125 
L 93.908185 483.164125 
L 92.380278 485.615797 
L 93.04456 488.067469 
z
M 96.343544 488.067469 
L 94.604497 487.370542 
L 93.698531 485.615797 
L 94.604497 484.024489 
L 95.088603 483.164125 
L 97.980217 480.712453 
L 97.980217 480.712453 
L 101.355937 478.916094 
L 102.927563 478.260781 
L 104.731657 477.597698 
L 108.107377 476.865166 
L 111.483097 476.635405 
L 114.858817 476.882514 
L 118.234537 477.13576 
L 121.610257 477.075128 
L 124.985977 476.988432 
L 128.361697 477.426274 
L 129.942051 478.260781 
L 130.268389 480.712453 
L 128.361697 483.050852 
L 128.263743 483.164125 
L 124.985977 485.126462 
L 124.004061 485.615797 
L 121.610257 486.503971 
L 118.234537 487.343054 
L 114.858817 487.720683 
L 111.483097 487.50264 
L 108.107377 487.267252 
L 104.731657 487.501139 
L 101.355937 487.976156 
L 100.363675 488.067469 
L 97.980217 488.257948 
z
" clip-path="url(#p63dc821891)" style="fill: #2f7fbc"/>
    <path d="M 97.980217 488.257948 
L 100.363675 488.067469 
L 101.355937 487.976156 
L 104.731657 487.501139 
L 108.107377 487.267252 
L 111.483097 487.50264 
L 114.858817 487.720683 
L 118.234537 487.343054 
L 121.610257 486.503971 
L 124.004061 485.615797 
L 124.985977 485.126462 
L 128.263743 483.164125 
L 128.361697 483.050852 
L 130.268389 480.712453 
L 129.942051 478.260781 
L 128.361697 477.426274 
L 124.985977 476.988432 
L 121.610257 477.075128 
L 118.234537 477.13576 
L 114.858817 476.882514 
L 111.483097 476.635405 
L 108.107377 476.865166 
L 104.731657 477.597698 
L 102.927563 478.260781 
L 101.355937 478.916094 
L 97.980217 480.712453 
L 97.980217 480.712453 
L 95.088603 483.164125 
L 94.604497 484.024489 
L 93.698531 485.615797 
L 94.604497 487.370542 
L 96.343544 488.067469 
z
M 96.717198 485.615797 
L 97.340768 483.164125 
L 97.980217 482.621964 
L 100.507706 480.712453 
L 101.355937 480.261074 
L 104.731657 478.98942 
L 107.80093 478.260781 
L 108.107377 478.20196 
L 111.483097 478.260781 
L 111.483097 478.260781 
L 114.858817 479.061835 
L 118.234537 479.167426 
L 121.610257 478.893311 
L 124.985977 479.024485 
L 127.077383 480.712453 
L 125.319098 483.164125 
L 124.985977 483.363558 
L 121.610257 484.912479 
L 119.413867 485.615797 
L 118.234537 485.87129 
L 114.858817 485.903484 
L 112.417752 485.615797 
L 111.483097 485.407974 
L 108.107377 485.498841 
L 107.639606 485.615797 
L 104.731657 486.047721 
L 101.355937 486.500185 
L 97.980217 486.344588 
z
" clip-path="url(#p63dc821891)" style="fill: #1967ad"/>
    <path d="M 97.980217 486.344588 
L 101.355937 486.500185 
L 104.731657 486.047721 
L 107.639606 485.615797 
L 108.107377 485.498841 
L 111.483097 485.407974 
L 112.417752 485.615797 
L 114.858817 485.903484 
L 118.234537 485.87129 
L 119.413867 485.615797 
L 121.610257 484.912479 
L 124.985977 483.363558 
L 125.319098 483.164125 
L 127.077383 480.712453 
L 124.985977 479.024485 
L 121.610257 478.893311 
L 118.234537 479.167426 
L 114.858817 479.061835 
L 111.483097 478.260781 
L 111.483097 478.260781 
L 108.107377 478.20196 
L 107.80093 478.260781 
L 104.731657 478.98942 
L 101.355937 480.261074 
L 100.507706 480.712453 
L 97.980217 482.621964 
L 97.340768 483.164125 
L 96.717198 485.615797 
z
M 99.295261 483.164125 
L 101.355937 481.574818 
L 102.757912 480.712453 
L 104.731657 480.029441 
L 108.107377 479.660158 
L 111.483097 480.345437 
L 113.265031 480.712453 
L 114.858817 482.06968 
L 118.234537 480.712453 
L 118.234537 480.712453 
L 121.610257 480.385011 
L 123.424133 480.712453 
L 122.464058 483.164125 
L 121.610257 483.544082 
L 118.234537 484.111279 
L 114.858817 483.519785 
L 111.483097 483.251322 
L 108.107377 483.959852 
L 104.731657 484.806309 
L 101.355937 485.487568 
z
" clip-path="url(#p63dc821891)" style="fill: #084e98"/>
    <path d="M 101.355937 485.487568 
L 104.731657 484.806309 
L 108.107377 483.959852 
L 111.483097 483.251322 
L 114.858817 483.519785 
L 118.234537 484.111279 
L 121.610257 483.544082 
L 122.464058 483.164125 
L 123.424133 480.712453 
L 121.610257 480.385011 
L 118.234537 480.712453 
L 118.234537 480.712453 
L 114.858817 482.06968 
L 113.265031 480.712453 
L 111.483097 480.345437 
L 108.107377 479.660158 
L 104.731657 480.029441 
L 102.757912 480.712453 
L 101.355937 481.574818 
L 99.295261 483.164125 
z
" clip-path="url(#p63dc821891)" style="fill: #083a7a"/>
   </g>
   <g id="matplotlib.axis_1">
    <g id="xtick_1">
     <g id="line2d_1">
      <defs>
       <path id="m6aaed93d73" d="M 0 0 
L 0 3.5 
" style="stroke: #000000; stroke-width: 0.8"/>
      </defs>
      <g>
       <use xlink:href="#m6aaed93d73" x="85.629225" y="499.48" style="stroke: #000000; stroke-width: 0.8"/>
      </g>
     </g>
     <g id="text_1">
      <!-- 0 -->
      <g transform="translate(78.630475 523.196563) scale(0.22 -0.22)">
       <defs>
        <path id="DejaVuSans-30" d="M 2034 4250 
Q 1547 4250 1301 3770 
Q 1056 3291 1056 2328 
Q 1056 1369 1301 889 
Q 1547 409 2034 409 
Q 2525 409 2770 889 
Q 3016 1369 3016 2328 
Q 3016 3291 2770 3770 
Q 2525 4250 2034 4250 
z
M 2034 4750 
Q 2819 4750 3233 4129 
Q 3647 3509 3647 2328 
Q 3647 1150 3233 529 
Q 2819 -91 2034 -91 
Q 1250 -91 836 529 
Q 422 1150 422 2328 
Q 422 3509 836 4129 
Q 1250 4750 2034 4750 
z
" transform="scale(0.015625)"/>
       </defs>
       <use xlink:href="#DejaVuSans-30"/>
      </g>
     </g>
    </g>
    <g id="xtick_2">
     <g id="line2d_2">
      <g>
       <use xlink:href="#m6aaed93d73" x="170.601022" y="499.48" style="stroke: #000000; stroke-width: 0.8"/>
      </g>
     </g>
     <g id="text_2">
      <!-- 10 -->
      <g transform="translate(156.603522 523.196563) scale(0.22 -0.22)">
       <defs>
        <path id="DejaVuSans-31" d="M 794 531 
L 1825 531 
L 1825 4091 
L 703 3866 
L 703 4441 
L 1819 4666 
L 2450 4666 
L 2450 531 
L 3481 531 
L 3481 0 
L 794 0 
L 794 531 
z
" transform="scale(0.015625)"/>
       </defs>
       <use xlink:href="#DejaVuSans-31"/>
       <use xlink:href="#DejaVuSans-30" x="63.623047"/>
      </g>
     </g>
    </g>
    <g id="xtick_3">
     <g id="line2d_3">
      <g>
       <use xlink:href="#m6aaed93d73" x="255.572819" y="499.48" style="stroke: #000000; stroke-width: 0.8"/>
      </g>
     </g>
     <g id="text_3">
      <!-- 20 -->
      <g transform="translate(241.575319 523.196563) scale(0.22 -0.22)">
       <defs>
        <path id="DejaVuSans-32" d="M 1228 531 
L 3431 531 
L 3431 0 
L 469 0 
L 469 531 
Q 828 903 1448 1529 
Q 2069 2156 2228 2338 
Q 2531 2678 2651 2914 
Q 2772 3150 2772 3378 
Q 2772 3750 2511 3984 
Q 2250 4219 1831 4219 
Q 1534 4219 1204 4116 
Q 875 4013 500 3803 
L 500 4441 
Q 881 4594 1212 4672 
Q 1544 4750 1819 4750 
Q 2544 4750 2975 4387 
Q 3406 4025 3406 3419 
Q 3406 3131 3298 2873 
Q 3191 2616 2906 2266 
Q 2828 2175 2409 1742 
Q 1991 1309 1228 531 
z
" transform="scale(0.015625)"/>
       </defs>
       <use xlink:href="#DejaVuSans-32"/>
       <use xlink:href="#DejaVuSans-30" x="63.623047"/>
      </g>
     </g>
    </g>
    <g id="xtick_4">
     <g id="line2d_4">
      <g>
       <use xlink:href="#m6aaed93d73" x="340.544616" y="499.48" style="stroke: #000000; stroke-width: 0.8"/>
      </g>
     </g>
     <g id="text_4">
      <!-- 30 -->
      <g transform="translate(326.547116 523.196563) scale(0.22 -0.22)">
       <defs>
        <path id="DejaVuSans-33" d="M 2597 2516 
Q 3050 2419 3304 2112 
Q 3559 1806 3559 1356 
Q 3559 666 3084 287 
Q 2609 -91 1734 -91 
Q 1441 -91 1130 -33 
Q 819 25 488 141 
L 488 750 
Q 750 597 1062 519 
Q 1375 441 1716 441 
Q 2309 441 2620 675 
Q 2931 909 2931 1356 
Q 2931 1769 2642 2001 
Q 2353 2234 1838 2234 
L 1294 2234 
L 1294 2753 
L 1863 2753 
Q 2328 2753 2575 2939 
Q 2822 3125 2822 3475 
Q 2822 3834 2567 4026 
Q 2313 4219 1838 4219 
Q 1578 4219 1281 4162 
Q 984 4106 628 3988 
L 628 4550 
Q 988 4650 1302 4700 
Q 1616 4750 1894 4750 
Q 2613 4750 3031 4423 
Q 3450 4097 3450 3541 
Q 3450 3153 3228 2886 
Q 3006 2619 2597 2516 
z
" transform="scale(0.015625)"/>
       </defs>
       <use xlink:href="#DejaVuSans-33"/>
       <use xlink:href="#DejaVuSans-30" x="63.623047"/>
      </g>
     </g>
    </g>
    <g id="xtick_5">
     <g id="line2d_5">
      <g>
       <use xlink:href="#m6aaed93d73" x="425.516413" y="499.48" style="stroke: #000000; stroke-width: 0.8"/>
      </g>
     </g>
     <g id="text_5">
      <!-- 40 -->
      <g transform="translate(411.518913 523.196563) scale(0.22 -0.22)">
       <defs>
        <path id="DejaVuSans-34" d="M 2419 4116 
L 825 1625 
L 2419 1625 
L 2419 4116 
z
M 2253 4666 
L 3047 4666 
L 3047 1625 
L 3713 1625 
L 3713 1100 
L 3047 1100 
L 3047 0 
L 2419 0 
L 2419 1100 
L 313 1100 
L 313 1709 
L 2253 4666 
z
" transform="scale(0.015625)"/>
       </defs>
       <use xlink:href="#DejaVuSans-34"/>
       <use xlink:href="#DejaVuSans-30" x="63.623047"/>
      </g>
     </g>
    </g>
    <g id="xtick_6">
     <g id="line2d_6">
      <g>
       <use xlink:href="#m6aaed93d73" x="510.48821" y="499.48" style="stroke: #000000; stroke-width: 0.8"/>
      </g>
     </g>
     <g id="text_6">
      <!-- 50 -->
      <g transform="translate(496.49071 523.196563) scale(0.22 -0.22)">
       <defs>
        <path id="DejaVuSans-35" d="M 691 4666 
L 3169 4666 
L 3169 4134 
L 1269 4134 
L 1269 2991 
Q 1406 3038 1543 3061 
Q 1681 3084 1819 3084 
Q 2600 3084 3056 2656 
Q 3513 2228 3513 1497 
Q 3513 744 3044 326 
Q 2575 -91 1722 -91 
Q 1428 -91 1123 -41 
Q 819 9 494 109 
L 494 744 
Q 775 591 1075 516 
Q 1375 441 1709 441 
Q 2250 441 2565 725 
Q 2881 1009 2881 1497 
Q 2881 1984 2565 2268 
Q 2250 2553 1709 2553 
Q 1456 2553 1204 2497 
Q 953 2441 691 2322 
L 691 4666 
z
" transform="scale(0.015625)"/>
       </defs>
       <use xlink:href="#DejaVuSans-35"/>
       <use xlink:href="#DejaVuSans-30" x="63.623047"/>
      </g>
     </g>
    </g>
    <g id="xtick_7">
     <g id="line2d_7">
      <g>
       <use xlink:href="#m6aaed93d73" x="595.460007" y="499.48" style="stroke: #000000; stroke-width: 0.8"/>
      </g>
     </g>
     <g id="text_7">
      <!-- 60 -->
      <g transform="translate(581.462507 523.196563) scale(0.22 -0.22)">
       <defs>
        <path id="DejaVuSans-36" d="M 2113 2584 
Q 1688 2584 1439 2293 
Q 1191 2003 1191 1497 
Q 1191 994 1439 701 
Q 1688 409 2113 409 
Q 2538 409 2786 701 
Q 3034 994 3034 1497 
Q 3034 2003 2786 2293 
Q 2538 2584 2113 2584 
z
M 3366 4563 
L 3366 3988 
Q 3128 4100 2886 4159 
Q 2644 4219 2406 4219 
Q 1781 4219 1451 3797 
Q 1122 3375 1075 2522 
Q 1259 2794 1537 2939 
Q 1816 3084 2150 3084 
Q 2853 3084 3261 2657 
Q 3669 2231 3669 1497 
Q 3669 778 3244 343 
Q 2819 -91 2113 -91 
Q 1303 -91 875 529 
Q 447 1150 447 2328 
Q 447 3434 972 4092 
Q 1497 4750 2381 4750 
Q 2619 4750 2861 4703 
Q 3103 4656 3366 4563 
z
" transform="scale(0.015625)"/>
       </defs>
       <use xlink:href="#DejaVuSans-36"/>
       <use xlink:href="#DejaVuSans-30" x="63.623047"/>
      </g>
     </g>
    </g>
    <g id="xtick_8">
     <g id="line2d_8">
      <g>
       <use xlink:href="#m6aaed93d73" x="680.431805" y="499.48" style="stroke: #000000; stroke-width: 0.8"/>
      </g>
     </g>
     <g id="text_8">
      <!-- 70 -->
      <g transform="translate(666.434305 523.196563) scale(0.22 -0.22)">
       <defs>
        <path id="DejaVuSans-37" d="M 525 4666 
L 3525 4666 
L 3525 4397 
L 1831 0 
L 1172 0 
L 2766 4134 
L 525 4134 
L 525 4666 
z
" transform="scale(0.015625)"/>
       </defs>
       <use xlink:href="#DejaVuSans-37"/>
       <use xlink:href="#DejaVuSans-30" x="63.623047"/>
      </g>
     </g>
    </g>
    <g id="text_9">
     <!-- Force Uncertainties -->
     <g transform="translate(283.426094 548.488438) scale(0.22 -0.22)">
      <defs>
       <path id="DejaVuSans-46" d="M 628 4666 
L 3309 4666 
L 3309 4134 
L 1259 4134 
L 1259 2759 
L 3109 2759 
L 3109 2228 
L 1259 2228 
L 1259 0 
L 628 0 
L 628 4666 
z
" transform="scale(0.015625)"/>
       <path id="DejaVuSans-6f" d="M 1959 3097 
Q 1497 3097 1228 2736 
Q 959 2375 959 1747 
Q 959 1119 1226 758 
Q 1494 397 1959 397 
Q 2419 397 2687 759 
Q 2956 1122 2956 1747 
Q 2956 2369 2687 2733 
Q 2419 3097 1959 3097 
z
M 1959 3584 
Q 2709 3584 3137 3096 
Q 3566 2609 3566 1747 
Q 3566 888 3137 398 
Q 2709 -91 1959 -91 
Q 1206 -91 779 398 
Q 353 888 353 1747 
Q 353 2609 779 3096 
Q 1206 3584 1959 3584 
z
" transform="scale(0.015625)"/>
       <path id="DejaVuSans-72" d="M 2631 2963 
Q 2534 3019 2420 3045 
Q 2306 3072 2169 3072 
Q 1681 3072 1420 2755 
Q 1159 2438 1159 1844 
L 1159 0 
L 581 0 
L 581 3500 
L 1159 3500 
L 1159 2956 
Q 1341 3275 1631 3429 
Q 1922 3584 2338 3584 
Q 2397 3584 2469 3576 
Q 2541 3569 2628 3553 
L 2631 2963 
z
" transform="scale(0.015625)"/>
       <path id="DejaVuSans-63" d="M 3122 3366 
L 3122 2828 
Q 2878 2963 2633 3030 
Q 2388 3097 2138 3097 
Q 1578 3097 1268 2742 
Q 959 2388 959 1747 
Q 959 1106 1268 751 
Q 1578 397 2138 397 
Q 2388 397 2633 464 
Q 2878 531 3122 666 
L 3122 134 
Q 2881 22 2623 -34 
Q 2366 -91 2075 -91 
Q 1284 -91 818 406 
Q 353 903 353 1747 
Q 353 2603 823 3093 
Q 1294 3584 2113 3584 
Q 2378 3584 2631 3529 
Q 2884 3475 3122 3366 
z
" transform="scale(0.015625)"/>
       <path id="DejaVuSans-65" d="M 3597 1894 
L 3597 1613 
L 953 1613 
Q 991 1019 1311 708 
Q 1631 397 2203 397 
Q 2534 397 2845 478 
Q 3156 559 3463 722 
L 3463 178 
Q 3153 47 2828 -22 
Q 2503 -91 2169 -91 
Q 1331 -91 842 396 
Q 353 884 353 1716 
Q 353 2575 817 3079 
Q 1281 3584 2069 3584 
Q 2775 3584 3186 3129 
Q 3597 2675 3597 1894 
z
M 3022 2063 
Q 3016 2534 2758 2815 
Q 2500 3097 2075 3097 
Q 1594 3097 1305 2825 
Q 1016 2553 972 2059 
L 3022 2063 
z
" transform="scale(0.015625)"/>
       <path id="DejaVuSans-20" transform="scale(0.015625)"/>
       <path id="DejaVuSans-55" d="M 556 4666 
L 1191 4666 
L 1191 1831 
Q 1191 1081 1462 751 
Q 1734 422 2344 422 
Q 2950 422 3222 751 
Q 3494 1081 3494 1831 
L 3494 4666 
L 4128 4666 
L 4128 1753 
Q 4128 841 3676 375 
Q 3225 -91 2344 -91 
Q 1459 -91 1007 375 
Q 556 841 556 1753 
L 556 4666 
z
" transform="scale(0.015625)"/>
       <path id="DejaVuSans-6e" d="M 3513 2113 
L 3513 0 
L 2938 0 
L 2938 2094 
Q 2938 2591 2744 2837 
Q 2550 3084 2163 3084 
Q 1697 3084 1428 2787 
Q 1159 2491 1159 1978 
L 1159 0 
L 581 0 
L 581 3500 
L 1159 3500 
L 1159 2956 
Q 1366 3272 1645 3428 
Q 1925 3584 2291 3584 
Q 2894 3584 3203 3211 
Q 3513 2838 3513 2113 
z
" transform="scale(0.015625)"/>
       <path id="DejaVuSans-74" d="M 1172 4494 
L 1172 3500 
L 2356 3500 
L 2356 3053 
L 1172 3053 
L 1172 1153 
Q 1172 725 1289 603 
Q 1406 481 1766 481 
L 2356 481 
L 2356 0 
L 1766 0 
Q 1100 0 847 248 
Q 594 497 594 1153 
L 594 3053 
L 172 3053 
L 172 3500 
L 594 3500 
L 594 4494 
L 1172 4494 
z
" transform="scale(0.015625)"/>
       <path id="DejaVuSans-61" d="M 2194 1759 
Q 1497 1759 1228 1600 
Q 959 1441 959 1056 
Q 959 750 1161 570 
Q 1363 391 1709 391 
Q 2188 391 2477 730 
Q 2766 1069 2766 1631 
L 2766 1759 
L 2194 1759 
z
M 3341 1997 
L 3341 0 
L 2766 0 
L 2766 531 
Q 2569 213 2275 61 
Q 1981 -91 1556 -91 
Q 1019 -91 701 211 
Q 384 513 384 1019 
Q 384 1609 779 1909 
Q 1175 2209 1959 2209 
L 2766 2209 
L 2766 2266 
Q 2766 2663 2505 2880 
Q 2244 3097 1772 3097 
Q 1472 3097 1187 3025 
Q 903 2953 641 2809 
L 641 3341 
Q 956 3463 1253 3523 
Q 1550 3584 1831 3584 
Q 2591 3584 2966 3190 
Q 3341 2797 3341 1997 
z
" transform="scale(0.015625)"/>
       <path id="DejaVuSans-69" d="M 603 3500 
L 1178 3500 
L 1178 0 
L 603 0 
L 603 3500 
z
M 603 4863 
L 1178 4863 
L 1178 4134 
L 603 4134 
L 603 4863 
z
" transform="scale(0.015625)"/>
       <path id="DejaVuSans-73" d="M 2834 3397 
L 2834 2853 
Q 2591 2978 2328 3040 
Q 2066 3103 1784 3103 
Q 1356 3103 1142 2972 
Q 928 2841 928 2578 
Q 928 2378 1081 2264 
Q 1234 2150 1697 2047 
L 1894 2003 
Q 2506 1872 2764 1633 
Q 3022 1394 3022 966 
Q 3022 478 2636 193 
Q 2250 -91 1575 -91 
Q 1294 -91 989 -36 
Q 684 19 347 128 
L 347 722 
Q 666 556 975 473 
Q 1284 391 1588 391 
Q 1994 391 2212 530 
Q 2431 669 2431 922 
Q 2431 1156 2273 1281 
Q 2116 1406 1581 1522 
L 1381 1569 
Q 847 1681 609 1914 
Q 372 2147 372 2553 
Q 372 3047 722 3315 
Q 1072 3584 1716 3584 
Q 2034 3584 2315 3537 
Q 2597 3491 2834 3397 
z
" transform="scale(0.015625)"/>
      </defs>
      <use xlink:href="#DejaVuSans-46"/>
      <use xlink:href="#DejaVuSans-6f" x="53.894531"/>
      <use xlink:href="#DejaVuSans-72" x="115.076172"/>
      <use xlink:href="#DejaVuSans-63" x="153.939453"/>
      <use xlink:href="#DejaVuSans-65" x="208.919922"/>
      <use xlink:href="#DejaVuSans-20" x="270.443359"/>
      <use xlink:href="#DejaVuSans-55" x="302.230469"/>
      <use xlink:href="#DejaVuSans-6e" x="375.423828"/>
      <use xlink:href="#DejaVuSans-63" x="438.802734"/>
      <use xlink:href="#DejaVuSans-65" x="493.783203"/>
      <use xlink:href="#DejaVuSans-72" x="555.306641"/>
      <use xlink:href="#DejaVuSans-74" x="596.419922"/>
      <use xlink:href="#DejaVuSans-61" x="635.628906"/>
      <use xlink:href="#DejaVuSans-69" x="696.908203"/>
      <use xlink:href="#DejaVuSans-6e" x="724.691406"/>
      <use xlink:href="#DejaVuSans-74" x="788.070312"/>
      <use xlink:href="#DejaVuSans-69" x="827.279297"/>
      <use xlink:href="#DejaVuSans-65" x="855.0625"/>
      <use xlink:href="#DejaVuSans-73" x="916.585938"/>
     </g>
    </g>
   </g>
   <g id="matplotlib.axis_2">
    <g id="ytick_1">
     <g id="line2d_9">
      <defs>
       <path id="md29fcedae5" d="M 0 0 
L -3.5 0 
" style="stroke: #000000; stroke-width: 0.8"/>
      </defs>
      <g>
       <use xlink:href="#md29fcedae5" x="83.72" y="497.997181" style="stroke: #000000; stroke-width: 0.8"/>
      </g>
     </g>
     <g id="text_10">
      <!-- 0 -->
      <g transform="translate(62.7225 506.355462) scale(0.22 -0.22)">
       <use xlink:href="#DejaVuSans-30"/>
      </g>
     </g>
    </g>
    <g id="ytick_2">
     <g id="line2d_10">
      <g>
       <use xlink:href="#md29fcedae5" x="83.72" y="432.002955" style="stroke: #000000; stroke-width: 0.8"/>
      </g>
     </g>
     <g id="text_11">
      <!-- 10 -->
      <g transform="translate(48.725 440.361236) scale(0.22 -0.22)">
       <use xlink:href="#DejaVuSans-31"/>
       <use xlink:href="#DejaVuSans-30" x="63.623047"/>
      </g>
     </g>
    </g>
    <g id="ytick_3">
     <g id="line2d_11">
      <g>
       <use xlink:href="#md29fcedae5" x="83.72" y="366.008729" style="stroke: #000000; stroke-width: 0.8"/>
      </g>
     </g>
     <g id="text_12">
      <!-- 20 -->
      <g transform="translate(48.725 374.36701) scale(0.22 -0.22)">
       <use xlink:href="#DejaVuSans-32"/>
       <use xlink:href="#DejaVuSans-30" x="63.623047"/>
      </g>
     </g>
    </g>
    <g id="ytick_4">
     <g id="line2d_12">
      <g>
       <use xlink:href="#md29fcedae5" x="83.72" y="300.014503" style="stroke: #000000; stroke-width: 0.8"/>
      </g>
     </g>
     <g id="text_13">
      <!-- 30 -->
      <g transform="translate(48.725 308.372784) scale(0.22 -0.22)">
       <use xlink:href="#DejaVuSans-33"/>
       <use xlink:href="#DejaVuSans-30" x="63.623047"/>
      </g>
     </g>
    </g>
    <g id="ytick_5">
     <g id="line2d_13">
      <g>
       <use xlink:href="#md29fcedae5" x="83.72" y="234.020277" style="stroke: #000000; stroke-width: 0.8"/>
      </g>
     </g>
     <g id="text_14">
      <!-- 40 -->
      <g transform="translate(48.725 242.378558) scale(0.22 -0.22)">
       <use xlink:href="#DejaVuSans-34"/>
       <use xlink:href="#DejaVuSans-30" x="63.623047"/>
      </g>
     </g>
    </g>
    <g id="ytick_6">
     <g id="line2d_14">
      <g>
       <use xlink:href="#md29fcedae5" x="83.72" y="168.026051" style="stroke: #000000; stroke-width: 0.8"/>
      </g>
     </g>
     <g id="text_15">
      <!-- 50 -->
      <g transform="translate(48.725 176.384332) scale(0.22 -0.22)">
       <use xlink:href="#DejaVuSans-35"/>
       <use xlink:href="#DejaVuSans-30" x="63.623047"/>
      </g>
     </g>
    </g>
    <g id="ytick_7">
     <g id="line2d_15">
      <g>
       <use xlink:href="#md29fcedae5" x="83.72" y="102.031825" style="stroke: #000000; stroke-width: 0.8"/>
      </g>
     </g>
     <g id="text_16">
      <!-- 60 -->
      <g transform="translate(48.725 110.390106) scale(0.22 -0.22)">
       <use xlink:href="#DejaVuSans-36"/>
       <use xlink:href="#DejaVuSans-30" x="63.623047"/>
      </g>
     </g>
    </g>
    <g id="ytick_8">
     <g id="line2d_16">
      <g>
       <use xlink:href="#md29fcedae5" x="83.72" y="36.037599" style="stroke: #000000; stroke-width: 0.8"/>
      </g>
     </g>
     <g id="text_17">
      <!-- 70 -->
      <g transform="translate(48.725 44.39588) scale(0.22 -0.22)">
       <use xlink:href="#DejaVuSans-37"/>
       <use xlink:href="#DejaVuSans-30" x="63.623047"/>
      </g>
     </g>
    </g>
    <g id="text_18">
     <!-- Force Errors [kJ/(mol*A)] -->
     <g transform="translate(40.149688 394.9125) rotate(-90) scale(0.22 -0.22)">
      <defs>
       <path id="DejaVuSans-45" d="M 628 4666 
L 3578 4666 
L 3578 4134 
L 1259 4134 
L 1259 2753 
L 3481 2753 
L 3481 2222 
L 1259 2222 
L 1259 531 
L 3634 531 
L 3634 0 
L 628 0 
L 628 4666 
z
" transform="scale(0.015625)"/>
       <path id="DejaVuSans-5b" d="M 550 4863 
L 1875 4863 
L 1875 4416 
L 1125 4416 
L 1125 -397 
L 1875 -397 
L 1875 -844 
L 550 -844 
L 550 4863 
z
" transform="scale(0.015625)"/>
       <path id="DejaVuSans-6b" d="M 581 4863 
L 1159 4863 
L 1159 1991 
L 2875 3500 
L 3609 3500 
L 1753 1863 
L 3688 0 
L 2938 0 
L 1159 1709 
L 1159 0 
L 581 0 
L 581 4863 
z
" transform="scale(0.015625)"/>
       <path id="DejaVuSans-4a" d="M 628 4666 
L 1259 4666 
L 1259 325 
Q 1259 -519 939 -900 
Q 619 -1281 -91 -1281 
L -331 -1281 
L -331 -750 
L -134 -750 
Q 284 -750 456 -515 
Q 628 -281 628 325 
L 628 4666 
z
" transform="scale(0.015625)"/>
       <path id="DejaVuSans-2f" d="M 1625 4666 
L 2156 4666 
L 531 -594 
L 0 -594 
L 1625 4666 
z
" transform="scale(0.015625)"/>
       <path id="DejaVuSans-28" d="M 1984 4856 
Q 1566 4138 1362 3434 
Q 1159 2731 1159 2009 
Q 1159 1288 1364 580 
Q 1569 -128 1984 -844 
L 1484 -844 
Q 1016 -109 783 600 
Q 550 1309 550 2009 
Q 550 2706 781 3412 
Q 1013 4119 1484 4856 
L 1984 4856 
z
" transform="scale(0.015625)"/>
       <path id="DejaVuSans-6d" d="M 3328 2828 
Q 3544 3216 3844 3400 
Q 4144 3584 4550 3584 
Q 5097 3584 5394 3201 
Q 5691 2819 5691 2113 
L 5691 0 
L 5113 0 
L 5113 2094 
Q 5113 2597 4934 2840 
Q 4756 3084 4391 3084 
Q 3944 3084 3684 2787 
Q 3425 2491 3425 1978 
L 3425 0 
L 2847 0 
L 2847 2094 
Q 2847 2600 2669 2842 
Q 2491 3084 2119 3084 
Q 1678 3084 1418 2786 
Q 1159 2488 1159 1978 
L 1159 0 
L 581 0 
L 581 3500 
L 1159 3500 
L 1159 2956 
Q 1356 3278 1631 3431 
Q 1906 3584 2284 3584 
Q 2666 3584 2933 3390 
Q 3200 3197 3328 2828 
z
" transform="scale(0.015625)"/>
       <path id="DejaVuSans-6c" d="M 603 4863 
L 1178 4863 
L 1178 0 
L 603 0 
L 603 4863 
z
" transform="scale(0.015625)"/>
       <path id="DejaVuSans-2a" d="M 3009 3897 
L 1888 3291 
L 3009 2681 
L 2828 2375 
L 1778 3009 
L 1778 1831 
L 1422 1831 
L 1422 3009 
L 372 2375 
L 191 2681 
L 1313 3291 
L 191 3897 
L 372 4206 
L 1422 3572 
L 1422 4750 
L 1778 4750 
L 1778 3572 
L 2828 4206 
L 3009 3897 
z
" transform="scale(0.015625)"/>
       <path id="DejaVuSans-41" d="M 2188 4044 
L 1331 1722 
L 3047 1722 
L 2188 4044 
z
M 1831 4666 
L 2547 4666 
L 4325 0 
L 3669 0 
L 3244 1197 
L 1141 1197 
L 716 0 
L 50 0 
L 1831 4666 
z
" transform="scale(0.015625)"/>
       <path id="DejaVuSans-29" d="M 513 4856 
L 1013 4856 
Q 1481 4119 1714 3412 
Q 1947 2706 1947 2009 
Q 1947 1309 1714 600 
Q 1481 -109 1013 -844 
L 513 -844 
Q 928 -128 1133 580 
Q 1338 1288 1338 2009 
Q 1338 2731 1133 3434 
Q 928 4138 513 4856 
z
" transform="scale(0.015625)"/>
       <path id="DejaVuSans-5d" d="M 1947 4863 
L 1947 -844 
L 622 -844 
L 622 -397 
L 1369 -397 
L 1369 4416 
L 622 4416 
L 622 4863 
L 1947 4863 
z
" transform="scale(0.015625)"/>
      </defs>
      <use xlink:href="#DejaVuSans-46"/>
      <use xlink:href="#DejaVuSans-6f" x="53.894531"/>
      <use xlink:href="#DejaVuSans-72" x="115.076172"/>
      <use xlink:href="#DejaVuSans-63" x="153.939453"/>
      <use xlink:href="#DejaVuSans-65" x="208.919922"/>
      <use xlink:href="#DejaVuSans-20" x="270.443359"/>
      <use xlink:href="#DejaVuSans-45" x="302.230469"/>
      <use xlink:href="#DejaVuSans-72" x="365.414062"/>
      <use xlink:href="#DejaVuSans-72" x="404.777344"/>
      <use xlink:href="#DejaVuSans-6f" x="443.640625"/>
      <use xlink:href="#DejaVuSans-72" x="504.822266"/>
      <use xlink:href="#DejaVuSans-73" x="545.935547"/>
      <use xlink:href="#DejaVuSans-20" x="598.035156"/>
      <use xlink:href="#DejaVuSans-5b" x="629.822266"/>
      <use xlink:href="#DejaVuSans-6b" x="668.835938"/>
      <use xlink:href="#DejaVuSans-4a" x="726.746094"/>
      <use xlink:href="#DejaVuSans-2f" x="756.238281"/>
      <use xlink:href="#DejaVuSans-28" x="789.929688"/>
      <use xlink:href="#DejaVuSans-6d" x="828.943359"/>
      <use xlink:href="#DejaVuSans-6f" x="926.355469"/>
      <use xlink:href="#DejaVuSans-6c" x="987.537109"/>
      <use xlink:href="#DejaVuSans-2a" x="1015.320312"/>
      <use xlink:href="#DejaVuSans-41" x="1065.320312"/>
      <use xlink:href="#DejaVuSans-29" x="1133.728516"/>
      <use xlink:href="#DejaVuSans-5d" x="1172.742188"/>
     </g>
    </g>
   </g>
   <g id="line2d_17">
    <path d="M 83.72 499.48 
L 696.24 23.76 
" clip-path="url(#p63dc821891)" style="fill: none; stroke-dasharray: 5.55,2.4; stroke-dashoffset: 0; stroke: #ff0000; stroke-width: 1.5"/>
   </g>
   <g id="patch_3">
    <path d="M 83.72 499.48 
L 83.72 23.76 
" style="fill: none; stroke: #000000; stroke-width: 0.8; stroke-linejoin: miter; stroke-linecap: square"/>
   </g>
   <g id="patch_4">
    <path d="M 696.24 499.48 
L 696.24 23.76 
" style="fill: none; stroke: #000000; stroke-width: 0.8; stroke-linejoin: miter; stroke-linecap: square"/>
   </g>
   <g id="patch_5">
    <path d="M 83.72 499.48 
L 696.24 499.48 
" style="fill: none; stroke: #000000; stroke-width: 0.8; stroke-linejoin: miter; stroke-linecap: square"/>
   </g>
   <g id="patch_6">
    <path d="M 83.72 23.76 
L 696.24 23.76 
" style="fill: none; stroke: #000000; stroke-width: 0.8; stroke-linejoin: miter; stroke-linecap: square"/>
   </g>
   <g id="text_19">
    <!-- Correlation in: 0.807 -->
    <g transform="translate(144.972 71.332) scale(0.22 -0.22)">
     <defs>
      <path id="DejaVuSans-43" d="M 4122 4306 
L 4122 3641 
Q 3803 3938 3442 4084 
Q 3081 4231 2675 4231 
Q 1875 4231 1450 3742 
Q 1025 3253 1025 2328 
Q 1025 1406 1450 917 
Q 1875 428 2675 428 
Q 3081 428 3442 575 
Q 3803 722 4122 1019 
L 4122 359 
Q 3791 134 3420 21 
Q 3050 -91 2638 -91 
Q 1578 -91 968 557 
Q 359 1206 359 2328 
Q 359 3453 968 4101 
Q 1578 4750 2638 4750 
Q 3056 4750 3426 4639 
Q 3797 4528 4122 4306 
z
" transform="scale(0.015625)"/>
      <path id="DejaVuSans-3a" d="M 750 794 
L 1409 794 
L 1409 0 
L 750 0 
L 750 794 
z
M 750 3309 
L 1409 3309 
L 1409 2516 
L 750 2516 
L 750 3309 
z
" transform="scale(0.015625)"/>
      <path id="DejaVuSans-2e" d="M 684 794 
L 1344 794 
L 1344 0 
L 684 0 
L 684 794 
z
" transform="scale(0.015625)"/>
      <path id="DejaVuSans-38" d="M 2034 2216 
Q 1584 2216 1326 1975 
Q 1069 1734 1069 1313 
Q 1069 891 1326 650 
Q 1584 409 2034 409 
Q 2484 409 2743 651 
Q 3003 894 3003 1313 
Q 3003 1734 2745 1975 
Q 2488 2216 2034 2216 
z
M 1403 2484 
Q 997 2584 770 2862 
Q 544 3141 544 3541 
Q 544 4100 942 4425 
Q 1341 4750 2034 4750 
Q 2731 4750 3128 4425 
Q 3525 4100 3525 3541 
Q 3525 3141 3298 2862 
Q 3072 2584 2669 2484 
Q 3125 2378 3379 2068 
Q 3634 1759 3634 1313 
Q 3634 634 3220 271 
Q 2806 -91 2034 -91 
Q 1263 -91 848 271 
Q 434 634 434 1313 
Q 434 1759 690 2068 
Q 947 2378 1403 2484 
z
M 1172 3481 
Q 1172 3119 1398 2916 
Q 1625 2713 2034 2713 
Q 2441 2713 2670 2916 
Q 2900 3119 2900 3481 
Q 2900 3844 2670 4047 
Q 2441 4250 2034 4250 
Q 1625 4250 1398 4047 
Q 1172 3844 1172 3481 
z
" transform="scale(0.015625)"/>
     </defs>
     <use xlink:href="#DejaVuSans-43"/>
     <use xlink:href="#DejaVuSans-6f" x="69.824219"/>
     <use xlink:href="#DejaVuSans-72" x="131.005859"/>
     <use xlink:href="#DejaVuSans-72" x="170.369141"/>
     <use xlink:href="#DejaVuSans-65" x="209.232422"/>
     <use xlink:href="#DejaVuSans-6c" x="270.755859"/>
     <use xlink:href="#DejaVuSans-61" x="298.539062"/>
     <use xlink:href="#DejaVuSans-74" x="359.818359"/>
     <use xlink:href="#DejaVuSans-69" x="399.027344"/>
     <use xlink:href="#DejaVuSans-6f" x="426.810547"/>
     <use xlink:href="#DejaVuSans-6e" x="487.992188"/>
     <use xlink:href="#DejaVuSans-20" x="551.371094"/>
     <use xlink:href="#DejaVuSans-69" x="583.158203"/>
     <use xlink:href="#DejaVuSans-6e" x="610.941406"/>
     <use xlink:href="#DejaVuSans-3a" x="674.320312"/>
     <use xlink:href="#DejaVuSans-20" x="708.011719"/>
     <use xlink:href="#DejaVuSans-30" x="739.798828"/>
     <use xlink:href="#DejaVuSans-2e" x="803.421875"/>
     <use xlink:href="#DejaVuSans-38" x="835.208984"/>
     <use xlink:href="#DejaVuSans-30" x="898.832031"/>
     <use xlink:href="#DejaVuSans-37" x="962.455078"/>
    </g>
   </g>
  </g>
 </g>
 <defs>
  <clipPath id="p63dc821891">
   <rect x="83.72" y="23.76" width="612.52" height="475.72"/>
  </clipPath>
 </defs>
</svg>
