<?xml version="1.0" encoding="utf-8" standalone="no"?>
<!DOCTYPE svg PUBLIC "-//W3C//DTD SVG 1.1//EN"
  "http://www.w3.org/Graphics/SVG/1.1/DTD/svg11.dtd">
<svg xmlns:xlink="http://www.w3.org/1999/xlink" width="720pt" height="576pt" viewBox="0 0 720 576" xmlns="http://www.w3.org/2000/svg" version="1.1">
 <metadata>
  <rdf:RDF xmlns:dc="http://purl.org/dc/elements/1.1/" xmlns:cc="http://creativecommons.org/ns#" xmlns:rdf="http://www.w3.org/1999/02/22-rdf-syntax-ns#">
   <cc:Work>
    <dc:type rdf:resource="http://purl.org/dc/dcmitype/StillImage"/>
    <dc:date>2024-12-07T15:12:32.562746</dc:date>
    <dc:format>image/svg+xml</dc:format>
    <dc:creator>
     <cc:Agent>
      <dc:title>Matplotlib v3.8.4, https://matplotlib.org/</dc:title>
     </cc:Agent>
    </dc:creator>
   </cc:Work>
  </rdf:RDF>
 </metadata>
 <defs>
  <style type="text/css">*{stroke-linejoin: round; stroke-linecap: butt}</style>
 </defs>
 <g id="figure_1">
  <g id="patch_1">
   <path d="M 0 576 
L 720 576 
L 720 0 
L 0 0 
z
" style="fill: #ffffff"/>
  </g>
  <g id="axes_1">
   <g id="patch_2">
    <path d="M 97.76 499.48 
L 696.24 499.48 
L 696.24 23.76 
L 97.76 23.76 
z
" style="fill: #ffffff"/>
   </g>
   <g id="QuadContourSet_1">
    <path d="M 133.637526 491.16909 
L 135.099754 491.308955 
L 136.561982 491.29022 
L 138.003978 491.125974 
L 138.02421 491.124541 
L 139.486438 490.929628 
L 140.948666 490.635133 
L 142.410894 490.201443 
L 143.327588 489.82522 
L 143.873122 489.675187 
L 145.33535 489.169832 
L 146.637192 488.524465 
L 146.797578 488.4677 
L 148.259806 487.894101 
L 149.485383 487.223711 
L 149.722034 487.125348 
L 151.184262 486.467908 
L 152.136169 485.922956 
L 152.64649 485.687863 
L 154.108718 484.895394 
L 154.55535 484.622202 
L 155.570946 484.095625 
L 156.757316 483.321447 
L 157.033174 483.160288 
L 158.495402 482.192145 
L 158.731641 482.020693 
L 159.95763 481.177968 
L 160.550279 480.719938 
L 161.419858 480.04789 
L 162.18205 479.419184 
L 162.882086 478.810002 
L 163.664997 478.118429 
L 164.344314 477.451324 
L 165.01101 476.817675 
L 165.806542 475.933274 
L 166.211135 475.51692 
L 167.246849 474.216166 
L 167.26877 474.182998 
L 168.253368 472.915411 
L 168.730998 472.063991 
L 169.038904 471.614657 
L 169.686288 470.313902 
L 170.067804 469.013148 
L 170.193226 467.791324 
L 170.205017 467.712393 
L 170.193226 467.55735 
L 170.133517 466.411639 
L 169.861361 465.110884 
L 169.20899 463.81013 
L 168.730998 463.293413 
L 167.690914 462.509375 
L 167.26877 462.263875 
L 165.806542 461.588883 
L 164.672224 461.208621 
L 164.344314 461.088911 
L 162.882086 460.741376 
L 161.419858 460.589028 
L 159.95763 460.538822 
L 158.495402 460.556854 
L 157.033174 460.65143 
L 155.570946 460.827404 
L 154.108718 461.072081 
L 153.375473 461.208621 
L 152.64649 461.301628 
L 151.184262 461.493631 
L 149.722034 461.71573 
L 148.259806 461.993603 
L 146.797578 462.357287 
L 146.260023 462.509375 
L 145.33535 462.704701 
L 143.873122 463.112962 
L 142.410894 463.683444 
L 142.13736 463.81013 
L 140.948666 464.271889 
L 139.486438 465.034094 
L 139.356528 465.110884 
L 138.02421 465.813926 
L 137.10869 466.411639 
L 136.561982 466.736415 
L 135.203415 467.712393 
L 135.099754 467.781538 
L 133.637526 468.907546 
L 133.514765 469.013148 
L 132.175298 470.14402 
L 131.992973 470.313902 
L 130.71307 471.514743 
L 130.613079 471.614657 
L 129.330628 472.915411 
L 129.250843 472.99884 
L 128.106197 474.216166 
L 127.788615 474.587206 
L 126.968935 475.51692 
L 126.326387 476.356341 
L 125.944478 476.817675 
L 125.027125 478.118429 
L 124.864159 478.402434 
L 124.180901 479.419184 
L 123.546817 480.719938 
L 123.401931 481.191497 
L 123.074686 482.020693 
L 122.834282 483.321447 
L 122.816524 484.622202 
L 122.977932 485.922956 
L 123.401931 487.223711 
L 123.401931 487.223711 
L 124.432489 488.524465 
L 124.864159 488.81339 
L 126.326387 489.386269 
L 127.788615 489.694683 
L 128.448891 489.82522 
L 129.250843 490.03379 
L 130.71307 490.496497 
L 132.175298 490.90849 
L 133.424518 491.125974 
z
M 134.331356 487.223711 
L 133.637526 486.951031 
L 132.175298 486.404683 
L 130.71307 485.922956 
L 130.71307 485.922956 
L 129.250843 485.272326 
L 128.506675 484.622202 
L 128.014642 483.321447 
L 128.081694 482.020693 
L 128.419187 480.719938 
L 129.007954 479.419184 
L 129.250843 479.022569 
L 129.72563 478.118429 
L 130.696101 476.817675 
L 130.71307 476.79777 
L 131.740078 475.51692 
L 132.175298 475.071037 
L 132.997504 474.216166 
L 133.637526 473.631841 
L 134.447483 472.915411 
L 135.099754 472.376946 
L 136.098448 471.614657 
L 136.561982 471.265274 
L 137.993921 470.313902 
L 138.02421 470.292958 
L 139.486438 469.32698 
L 140.061568 469.013148 
L 140.948666 468.476342 
L 142.410894 467.773712 
L 142.55644 467.712393 
L 143.873122 467.059618 
L 145.33535 466.524956 
L 145.710846 466.411639 
L 146.797578 466.007224 
L 148.259806 465.586546 
L 149.722034 465.25321 
L 150.445038 465.110884 
L 151.184262 464.924931 
L 152.64649 464.616911 
L 154.108718 464.386685 
L 155.570946 464.234769 
L 157.033174 464.15788 
L 158.495402 464.163071 
L 159.95763 464.300456 
L 161.419858 464.664829 
L 162.466453 465.110884 
L 162.882086 465.308849 
L 164.344314 466.332992 
L 164.425208 466.411639 
L 165.150558 467.712393 
L 165.262485 469.013148 
L 165.037567 470.313902 
L 164.528477 471.614657 
L 164.344314 471.931196 
L 163.886029 472.915411 
L 162.987062 474.216166 
L 162.882086 474.341509 
L 162.015379 475.51692 
L 161.419858 476.144814 
L 160.828582 476.817675 
L 159.95763 477.64187 
L 159.46685 478.118429 
L 158.495402 478.95371 
L 157.940755 479.419184 
L 157.033174 480.135325 
L 156.235485 480.719938 
L 155.570946 481.205271 
L 154.308037 482.020693 
L 154.108718 482.156446 
L 152.64649 483.09365 
L 152.237872 483.321447 
L 151.184262 483.980175 
L 149.887103 484.622202 
L 149.722034 484.719113 
L 148.259806 485.493009 
L 147.187492 485.922956 
L 146.797578 486.120313 
L 145.33535 486.727011 
L 143.873122 487.165639 
L 143.618847 487.223711 
L 142.410894 487.595564 
L 140.948666 487.887153 
L 139.486438 488.041803 
L 138.02421 488.057357 
L 136.561982 487.903307 
L 135.099754 487.522959 
z
" clip-path="url(#pf298f9ae1e)" style="fill: #e4e4f3"/>
    <path d="M 135.099754 487.522959 
L 136.561982 487.903307 
L 138.02421 488.057357 
L 139.486438 488.041803 
L 140.948666 487.887153 
L 142.410894 487.595564 
L 143.618847 487.223711 
L 143.873122 487.165639 
L 145.33535 486.727011 
L 146.797578 486.120313 
L 147.187492 485.922956 
L 148.259806 485.493009 
L 149.722034 484.719113 
L 149.887103 484.622202 
L 151.184262 483.980175 
L 152.237872 483.321447 
L 152.64649 483.09365 
L 154.108718 482.156446 
L 154.308037 482.020693 
L 155.570946 481.205271 
L 156.235485 480.719938 
L 157.033174 480.135325 
L 157.940755 479.419184 
L 158.495402 478.95371 
L 159.46685 478.118429 
L 159.95763 477.64187 
L 160.828582 476.817675 
L 161.419858 476.144814 
L 162.015379 475.51692 
L 162.882086 474.341509 
L 162.987062 474.216166 
L 163.886029 472.915411 
L 164.344314 471.931196 
L 164.528477 471.614657 
L 165.037567 470.313902 
L 165.262485 469.013148 
L 165.150558 467.712393 
L 164.425208 466.411639 
L 164.344314 466.332992 
L 162.882086 465.308849 
L 162.466453 465.110884 
L 161.419858 464.664829 
L 159.95763 464.300456 
L 158.495402 464.163071 
L 157.033174 464.15788 
L 155.570946 464.234769 
L 154.108718 464.386685 
L 152.64649 464.616911 
L 151.184262 464.924931 
L 150.445038 465.110884 
L 149.722034 465.25321 
L 148.259806 465.586546 
L 146.797578 466.007224 
L 145.710846 466.411639 
L 145.33535 466.524956 
L 143.873122 467.059618 
L 142.55644 467.712393 
L 142.410894 467.773712 
L 140.948666 468.476342 
L 140.061568 469.013148 
L 139.486438 469.32698 
L 138.02421 470.292958 
L 137.993921 470.313902 
L 136.561982 471.265274 
L 136.098448 471.614657 
L 135.099754 472.376946 
L 134.447483 472.915411 
L 133.637526 473.631841 
L 132.997504 474.216166 
L 132.175298 475.071037 
L 131.740078 475.51692 
L 130.71307 476.79777 
L 130.696101 476.817675 
L 129.72563 478.118429 
L 129.250843 479.022569 
L 129.007954 479.419184 
L 128.419187 480.719938 
L 128.081694 482.020693 
L 128.014642 483.321447 
L 128.506675 484.622202 
L 129.250843 485.272326 
L 130.71307 485.922956 
L 130.71307 485.922956 
L 132.175298 486.404683 
L 133.637526 486.951031 
L 134.331356 487.223711 
z
M 137.935456 485.922956 
L 136.561982 485.452261 
L 135.099754 484.713013 
L 134.906255 484.622202 
L 133.637526 484.029466 
L 132.175298 483.321447 
L 132.175298 483.321447 
L 131.153259 482.020693 
L 131.122455 480.719938 
L 131.535665 479.419184 
L 132.175298 478.29802 
L 132.266732 478.118429 
L 133.177241 476.817675 
L 133.637526 476.302141 
L 134.314105 475.51692 
L 135.099754 474.752916 
L 135.660086 474.216166 
L 136.561982 473.441793 
L 137.216718 472.915411 
L 138.02421 472.29642 
L 139.023846 471.614657 
L 139.486438 471.296035 
L 140.948666 470.427025 
L 141.167589 470.313902 
L 142.410894 469.628722 
L 143.8322 469.013148 
L 143.873122 468.993255 
L 145.33535 468.393234 
L 146.797578 467.922333 
L 147.565916 467.712393 
L 148.259806 467.493119 
L 149.722034 467.09307 
L 151.184262 466.766236 
L 152.64649 466.512048 
L 153.44808 466.411639 
L 154.108718 466.308034 
L 155.570946 466.174843 
L 157.033174 466.165082 
L 158.495402 466.344708 
L 158.735456 466.411639 
L 159.95763 466.803236 
L 161.419858 467.667098 
L 161.476749 467.712393 
L 162.420969 469.013148 
L 162.569522 470.313902 
L 162.293884 471.614657 
L 161.710556 472.915411 
L 161.419858 473.348256 
L 160.920693 474.216166 
L 159.95763 475.417573 
L 159.885917 475.51692 
L 158.721607 476.817675 
L 158.495402 477.031556 
L 157.366693 478.118429 
L 157.033174 478.403555 
L 155.806906 479.419184 
L 155.570946 479.603541 
L 154.108718 480.671901 
L 154.039237 480.719938 
L 152.64649 481.686188 
L 152.087485 482.020693 
L 151.184262 482.595778 
L 149.79224 483.321447 
L 149.722034 483.362699 
L 148.259806 484.125264 
L 147.015144 484.622202 
L 146.797578 484.726214 
L 145.33535 485.289786 
L 143.873122 485.694326 
L 142.673081 485.922956 
L 142.410894 485.98659 
L 140.948666 486.16795 
L 139.486438 486.168684 
L 138.02421 485.9491 
z
" clip-path="url(#pf298f9ae1e)" style="fill: #cacaf5"/>
    <path d="M 138.02421 485.9491 
L 139.486438 486.168684 
L 140.948666 486.16795 
L 142.410894 485.98659 
L 142.673081 485.922956 
L 143.873122 485.694326 
L 145.33535 485.289786 
L 146.797578 484.726214 
L 147.015144 484.622202 
L 148.259806 484.125264 
L 149.722034 483.362699 
L 149.79224 483.321447 
L 151.184262 482.595778 
L 152.087485 482.020693 
L 152.64649 481.686188 
L 154.039237 480.719938 
L 154.108718 480.671901 
L 155.570946 479.603541 
L 155.806906 479.419184 
L 157.033174 478.403555 
L 157.366693 478.118429 
L 158.495402 477.031556 
L 158.721607 476.817675 
L 159.885917 475.51692 
L 159.95763 475.417573 
L 160.920693 474.216166 
L 161.419858 473.348256 
L 161.710556 472.915411 
L 162.293884 471.614657 
L 162.569522 470.313902 
L 162.420969 469.013148 
L 161.476749 467.712393 
L 161.419858 467.667098 
L 159.95763 466.803236 
L 158.735456 466.411639 
L 158.495402 466.344708 
L 157.033174 466.165082 
L 155.570946 466.174843 
L 154.108718 466.308034 
L 153.44808 466.411639 
L 152.64649 466.512048 
L 151.184262 466.766236 
L 149.722034 467.09307 
L 148.259806 467.493119 
L 147.565916 467.712393 
L 146.797578 467.922333 
L 145.33535 468.393234 
L 143.873122 468.993255 
L 143.8322 469.013148 
L 142.410894 469.628722 
L 141.167589 470.313902 
L 140.948666 470.427025 
L 139.486438 471.296035 
L 139.023846 471.614657 
L 138.02421 472.29642 
L 137.216718 472.915411 
L 136.561982 473.441793 
L 135.660086 474.216166 
L 135.099754 474.752916 
L 134.314105 475.51692 
L 133.637526 476.302141 
L 133.177241 476.817675 
L 132.266732 478.118429 
L 132.175298 478.29802 
L 131.535665 479.419184 
L 131.122455 480.719938 
L 131.153259 482.020693 
L 132.175298 483.321447 
L 132.175298 483.321447 
L 133.637526 484.029466 
L 134.906255 484.622202 
L 135.099754 484.713013 
L 136.561982 485.452261 
L 137.935456 485.922956 
z
M 139.411159 484.622202 
L 138.02421 484.097407 
L 136.724795 483.321447 
L 136.561982 483.20121 
L 135.099754 482.265683 
L 134.70101 482.020693 
L 133.637526 480.813311 
L 133.585387 480.719938 
L 133.583016 479.419184 
L 133.637526 479.299706 
L 134.128695 478.118429 
L 134.993758 476.817675 
L 135.099754 476.698467 
L 136.138152 475.51692 
L 136.561982 475.114895 
L 137.546987 474.216166 
L 138.02421 473.826817 
L 139.245443 472.915411 
L 139.486438 472.74406 
L 140.948666 471.826746 
L 141.336723 471.614657 
L 142.410894 471.030846 
L 143.873122 470.373408 
L 144.024528 470.313902 
L 145.33535 469.781375 
L 146.797578 469.282761 
L 147.704092 469.013148 
L 148.259806 468.832968 
L 149.722034 468.413727 
L 151.184262 468.076406 
L 152.64649 467.822277 
L 153.599099 467.712393 
L 154.108718 467.642278 
L 155.570946 467.576772 
L 157.033174 467.712393 
L 157.033174 467.712393 
L 158.495402 468.179798 
L 159.775205 469.013148 
L 159.95763 469.234699 
L 160.567143 470.313902 
L 160.594052 471.614657 
L 160.172778 472.915411 
L 159.95763 473.271753 
L 159.461112 474.216166 
L 158.495402 475.49458 
L 158.479959 475.51692 
L 157.332401 476.817675 
L 157.033174 477.10042 
L 155.96093 478.118429 
L 155.570946 478.447292 
L 154.364626 479.419184 
L 154.108718 479.614029 
L 152.64649 480.640347 
L 152.523028 480.719938 
L 151.184262 481.58465 
L 150.385573 482.020693 
L 149.722034 482.406356 
L 148.259806 483.108006 
L 147.716057 483.321447 
L 146.797578 483.728365 
L 145.33535 484.215715 
L 143.873122 484.564034 
L 143.448698 484.622202 
L 142.410894 484.792455 
L 140.948666 484.836675 
L 139.486438 484.644373 
z
" clip-path="url(#pf298f9ae1e)" style="fill: #aeaef6"/>
    <path d="M 139.486438 484.644373 
L 140.948666 484.836675 
L 142.410894 484.792455 
L 143.448698 484.622202 
L 143.873122 484.564034 
L 145.33535 484.215715 
L 146.797578 483.728365 
L 147.716057 483.321447 
L 148.259806 483.108006 
L 149.722034 482.406356 
L 150.385573 482.020693 
L 151.184262 481.58465 
L 152.523028 480.719938 
L 152.64649 480.640347 
L 154.108718 479.614029 
L 154.364626 479.419184 
L 155.570946 478.447292 
L 155.96093 478.118429 
L 157.033174 477.10042 
L 157.332401 476.817675 
L 158.479959 475.51692 
L 158.495402 475.49458 
L 159.461112 474.216166 
L 159.95763 473.271753 
L 160.172778 472.915411 
L 160.594052 471.614657 
L 160.567143 470.313902 
L 159.95763 469.234699 
L 159.775205 469.013148 
L 158.495402 468.179798 
L 157.033174 467.712393 
L 157.033174 467.712393 
L 155.570946 467.576772 
L 154.108718 467.642278 
L 153.599099 467.712393 
L 152.64649 467.822277 
L 151.184262 468.076406 
L 149.722034 468.413727 
L 148.259806 468.832968 
L 147.704092 469.013148 
L 146.797578 469.282761 
L 145.33535 469.781375 
L 144.024528 470.313902 
L 143.873122 470.373408 
L 142.410894 471.030846 
L 141.336723 471.614657 
L 140.948666 471.826746 
L 139.486438 472.74406 
L 139.245443 472.915411 
L 138.02421 473.826817 
L 137.546987 474.216166 
L 136.561982 475.114895 
L 136.138152 475.51692 
L 135.099754 476.698467 
L 134.993758 476.817675 
L 134.128695 478.118429 
L 133.637526 479.299706 
L 133.583016 479.419184 
L 133.585387 480.719938 
L 133.637526 480.813311 
L 134.70101 482.020693 
L 135.099754 482.265683 
L 136.561982 483.20121 
L 136.724795 483.321447 
L 138.02421 484.097407 
L 139.411159 484.622202 
z
M 140.002804 483.321447 
L 139.486438 483.100406 
L 138.02421 482.054507 
L 137.979073 482.020693 
L 136.608632 480.719938 
L 136.561982 480.645846 
L 135.869228 479.419184 
L 136.024468 478.118429 
L 136.561982 477.1434 
L 136.734835 476.817675 
L 137.860406 475.51692 
L 138.02421 475.367508 
L 139.357127 474.216166 
L 139.486438 474.118953 
L 140.948666 473.127921 
L 141.29336 472.915411 
L 142.410894 472.294379 
L 143.812838 471.614657 
L 143.873122 471.586321 
L 145.33535 470.964358 
L 146.797578 470.42555 
L 147.128455 470.313902 
L 148.259806 469.92247 
L 149.722034 469.493262 
L 151.184262 469.153877 
L 152.014295 469.013148 
L 152.64649 468.893043 
L 154.108718 468.753394 
L 155.570946 468.810331 
L 156.442565 469.013148 
L 157.033174 469.202161 
L 158.495402 470.253239 
L 158.550319 470.313902 
L 159.01991 471.614657 
L 158.831511 472.915411 
L 158.495402 473.595559 
L 158.224018 474.216166 
L 157.329696 475.51692 
L 157.033174 475.843324 
L 156.181639 476.817675 
L 155.570946 477.39193 
L 154.789089 478.118429 
L 154.108718 478.67562 
L 153.141493 479.419184 
L 152.64649 479.777297 
L 151.184262 480.719938 
L 151.184262 480.719938 
L 149.722034 481.56107 
L 148.753055 482.020693 
L 148.259806 482.268891 
L 146.797578 482.852547 
L 145.33535 483.292722 
L 145.185112 483.321447 
L 143.873122 483.602556 
L 142.410894 483.720915 
L 140.948666 483.599812 
z
" clip-path="url(#pf298f9ae1e)" style="fill: #9494f7"/>
    <path d="M 140.948666 483.599812 
L 142.410894 483.720915 
L 143.873122 483.602556 
L 145.185112 483.321447 
L 145.33535 483.292722 
L 146.797578 482.852547 
L 148.259806 482.268891 
L 148.753055 482.020693 
L 149.722034 481.56107 
L 151.184262 480.719938 
L 151.184262 480.719938 
L 152.64649 479.777297 
L 153.141493 479.419184 
L 154.108718 478.67562 
L 154.789089 478.118429 
L 155.570946 477.39193 
L 156.181639 476.817675 
L 157.033174 475.843324 
L 157.329696 475.51692 
L 158.224018 474.216166 
L 158.495402 473.595559 
L 158.831511 472.915411 
L 159.01991 471.614657 
L 158.550319 470.313902 
L 158.495402 470.253239 
L 157.033174 469.202161 
L 156.442565 469.013148 
L 155.570946 468.810331 
L 154.108718 468.753394 
L 152.64649 468.893043 
L 152.014295 469.013148 
L 151.184262 469.153877 
L 149.722034 469.493262 
L 148.259806 469.92247 
L 147.128455 470.313902 
L 146.797578 470.42555 
L 145.33535 470.964358 
L 143.873122 471.586321 
L 143.812838 471.614657 
L 142.410894 472.294379 
L 141.29336 472.915411 
L 140.948666 473.127921 
L 139.486438 474.118953 
L 139.357127 474.216166 
L 138.02421 475.367508 
L 137.860406 475.51692 
L 136.734835 476.817675 
L 136.561982 477.1434 
L 136.024468 478.118429 
L 135.869228 479.419184 
L 136.561982 480.645846 
L 136.608632 480.719938 
L 137.979073 482.020693 
L 138.02421 482.054507 
L 139.486438 483.100406 
L 140.002804 483.321447 
z
M 140.566782 482.020693 
L 139.486438 481.016994 
L 139.206225 480.719938 
L 138.462809 479.419184 
L 138.272719 478.118429 
L 138.771805 476.817675 
L 139.486438 475.953409 
L 139.841914 475.51692 
L 140.948666 474.612883 
L 141.447991 474.216166 
L 142.410894 473.617706 
L 143.625048 472.915411 
L 143.873122 472.790171 
L 145.33535 472.090837 
L 146.447791 471.614657 
L 146.797578 471.472569 
L 148.259806 470.927441 
L 149.722034 470.480445 
L 150.415605 470.313902 
L 151.184262 470.120754 
L 152.64649 469.892839 
L 154.108718 469.855116 
L 155.570946 470.121941 
L 156.001421 470.313902 
L 157.033174 471.177937 
L 157.336112 471.614657 
L 157.473113 472.915411 
L 157.039177 474.216166 
L 157.033174 474.22495 
L 156.211581 475.51692 
L 155.570946 476.24675 
L 155.080157 476.817675 
L 154.108718 477.718442 
L 153.663676 478.118429 
L 152.64649 478.908682 
L 151.931643 479.419184 
L 151.184262 479.91539 
L 149.792944 480.719938 
L 149.722034 480.760729 
L 148.259806 481.46214 
L 146.797578 482.020693 
L 146.797578 482.020693 
L 145.33535 482.424603 
L 143.873122 482.637869 
L 142.410894 482.61203 
L 140.948666 482.222867 
z
" clip-path="url(#pf298f9ae1e)" style="fill: #7a7af9"/>
    <path d="M 140.948666 482.222867 
L 142.410894 482.61203 
L 143.873122 482.637869 
L 145.33535 482.424603 
L 146.797578 482.020693 
L 146.797578 482.020693 
L 148.259806 481.46214 
L 149.722034 480.760729 
L 149.792944 480.719938 
L 151.184262 479.91539 
L 151.931643 479.419184 
L 152.64649 478.908682 
L 153.663676 478.118429 
L 154.108718 477.718442 
L 155.080157 476.817675 
L 155.570946 476.24675 
L 156.211581 475.51692 
L 157.033174 474.22495 
L 157.039177 474.216166 
L 157.473113 472.915411 
L 157.336112 471.614657 
L 157.033174 471.177937 
L 156.001421 470.313902 
L 155.570946 470.121941 
L 154.108718 469.855116 
L 152.64649 469.892839 
L 151.184262 470.120754 
L 150.415605 470.313902 
L 149.722034 470.480445 
L 148.259806 470.927441 
L 146.797578 471.472569 
L 146.447791 471.614657 
L 145.33535 472.090837 
L 143.873122 472.790171 
L 143.625048 472.915411 
L 142.410894 473.617706 
L 141.447991 474.216166 
L 140.948666 474.612883 
L 139.841914 475.51692 
L 139.486438 475.953409 
L 138.771805 476.817675 
L 138.272719 478.118429 
L 138.462809 479.419184 
L 139.206225 480.719938 
L 139.486438 481.016994 
L 140.566782 482.020693 
z
M 141.164324 480.719938 
L 140.948666 480.390432 
L 140.417745 479.419184 
L 140.281718 478.118429 
L 140.728435 476.817675 
L 140.948666 476.54687 
L 141.75679 475.51692 
L 142.410894 474.993984 
L 143.398754 474.216166 
L 143.873122 473.930808 
L 145.33535 473.091013 
L 145.662844 472.915411 
L 146.797578 472.383873 
L 148.259806 471.794013 
L 148.792813 471.614657 
L 149.722034 471.311757 
L 151.184262 470.97345 
L 152.64649 470.811713 
L 154.108718 470.935653 
L 155.570632 471.614657 
L 155.570946 471.615035 
L 156.158418 472.915411 
L 155.932994 474.216166 
L 155.570946 474.840832 
L 155.198871 475.51692 
L 154.108718 476.817675 
L 154.108718 476.817675 
L 152.661444 478.118429 
L 152.64649 478.130047 
L 151.184262 479.16997 
L 150.79183 479.419184 
L 149.722034 480.038522 
L 148.326557 480.719938 
L 148.259806 480.751984 
L 146.797578 481.273138 
L 145.33535 481.615992 
L 143.873122 481.732322 
L 142.410894 481.475157 
z
" clip-path="url(#pf298f9ae1e)" style="fill: #6060fa"/>
    <path d="M 142.410894 481.475157 
L 143.873122 481.732322 
L 145.33535 481.615992 
L 146.797578 481.273138 
L 148.259806 480.751984 
L 148.326557 480.719938 
L 149.722034 480.038522 
L 150.79183 479.419184 
L 151.184262 479.16997 
L 152.64649 478.130047 
L 152.661444 478.118429 
L 154.108718 476.817675 
L 154.108718 476.817675 
L 155.198871 475.51692 
L 155.570946 474.840832 
L 155.932994 474.216166 
L 156.158418 472.915411 
L 155.570946 471.615035 
L 155.570632 471.614657 
L 154.108718 470.935653 
L 152.64649 470.811713 
L 151.184262 470.97345 
L 149.722034 471.311757 
L 148.792813 471.614657 
L 148.259806 471.794013 
L 146.797578 472.383873 
L 145.662844 472.915411 
L 145.33535 473.091013 
L 143.873122 473.930808 
L 143.398754 474.216166 
L 142.410894 474.993984 
L 141.75679 475.51692 
L 140.948666 476.54687 
L 140.728435 476.817675 
L 140.281718 478.118429 
L 140.417745 479.419184 
L 140.948666 480.390432 
L 141.164324 480.719938 
z
M 142.295185 479.419184 
L 142.126052 478.118429 
L 142.410894 477.348277 
L 142.599392 476.817675 
L 143.65059 475.51692 
L 143.873122 475.339276 
L 145.33535 474.216166 
L 145.33535 474.216166 
L 146.797578 473.399288 
L 147.809656 472.915411 
L 148.259806 472.725208 
L 149.722034 472.24473 
L 151.184262 471.938724 
L 152.64649 471.909181 
L 154.108718 472.515045 
L 154.479789 472.915411 
L 154.613549 474.216166 
L 154.108718 475.378918 
L 154.049936 475.51692 
L 152.966475 476.817675 
L 152.64649 477.105415 
L 151.453944 478.118429 
L 151.184262 478.310187 
L 149.722034 479.221196 
L 149.340364 479.419184 
L 148.259806 479.916926 
L 146.797578 480.414733 
L 145.33535 480.702398 
L 143.873122 480.599875 
L 142.410894 479.573277 
z
" clip-path="url(#pf298f9ae1e)" style="fill: #4848fb"/>
    <path d="M 142.410894 479.573277 
L 143.873122 480.599875 
L 145.33535 480.702398 
L 146.797578 480.414733 
L 148.259806 479.916926 
L 149.340364 479.419184 
L 149.722034 479.221196 
L 151.184262 478.310187 
L 151.453944 478.118429 
L 152.64649 477.105415 
L 152.966475 476.817675 
L 154.049936 475.51692 
L 154.108718 475.378918 
L 154.613549 474.216166 
L 154.479789 472.915411 
L 154.108718 472.515045 
L 152.64649 471.909181 
L 151.184262 471.938724 
L 149.722034 472.24473 
L 148.259806 472.725208 
L 147.809656 472.915411 
L 146.797578 473.399288 
L 145.33535 474.216166 
L 145.33535 474.216166 
L 143.873122 475.339276 
L 143.65059 475.51692 
L 142.599392 476.817675 
L 142.410894 477.348277 
L 142.126052 478.118429 
L 142.295185 479.419184 
z
M 144.066015 478.118429 
L 144.44874 476.817675 
L 145.33535 475.747641 
L 145.543598 475.51692 
L 146.797578 474.630307 
L 147.483906 474.216166 
L 148.259806 473.851891 
L 149.722034 473.373049 
L 151.184262 473.188922 
L 152.64649 473.873128 
L 152.85856 474.216166 
L 152.64649 475.248042 
L 152.588796 475.51692 
L 151.534692 476.817675 
L 151.184262 477.113257 
L 149.867265 478.118429 
L 149.722034 478.207057 
L 148.259806 478.879663 
L 146.797578 479.363345 
L 145.33535 479.419184 
z
" clip-path="url(#pf298f9ae1e)" style="fill: #2d2dfd"/>
    <path d="M 145.33535 479.419184 
L 146.797578 479.363345 
L 148.259806 478.879663 
L 149.722034 478.207057 
L 149.867265 478.118429 
L 151.184262 477.113257 
L 151.534692 476.817675 
L 152.588796 475.51692 
L 152.64649 475.248042 
L 152.85856 474.216166 
L 152.64649 473.873128 
L 151.184262 473.188922 
L 149.722034 473.373049 
L 148.259806 473.851891 
L 147.483906 474.216166 
L 146.797578 474.630307 
L 145.543598 475.51692 
L 145.33535 475.747641 
L 144.44874 476.817675 
L 144.066015 478.118429 
z
" clip-path="url(#pf298f9ae1e)" style="fill: #0f0ffe"/>
   </g>
   <g id="QuadContourSet_2">
    <path d="M 119.766364 485.140897 
L 122.898947 485.640348 
L 126.031531 485.911923 
L 129.164114 486.070923 
L 132.296698 486.125795 
L 135.429281 486.062324 
L 138.561865 485.888847 
L 141.694448 485.606538 
L 144.827032 485.215361 
L 146.634772 484.958618 
L 147.959615 484.850241 
L 151.092199 484.587953 
L 154.224782 484.306194 
L 157.357365 483.965583 
L 160.489949 483.471041 
L 161.177401 483.342484 
L 163.622532 483.019387 
L 166.755116 482.493552 
L 169.887699 481.776136 
L 170.076477 481.726349 
L 173.020283 481.050287 
L 175.752258 480.110215 
L 176.152866 479.964766 
L 179.28545 478.589787 
L 179.493966 478.494081 
L 182.335016 476.877946 
L 182.418033 476.81352 
L 184.943476 475.261812 
L 185.550617 474.735631 
L 187.179896 473.645677 
L 188.6832 472.235534 
L 188.90462 472.029543 
L 190.239723 470.413409 
L 191.26714 468.797274 
L 191.815783 467.879802 
L 192.223259 467.18114 
L 193.172594 465.565006 
L 194.132428 463.948871 
L 194.948367 462.594684 
L 195.141864 462.332737 
L 196.300767 460.716602 
L 197.4318 459.100468 
L 198.08095 458.204854 
L 198.79377 457.484334 
L 200.354585 455.868199 
L 201.213534 454.941413 
L 202.052563 454.252065 
L 203.905009 452.635931 
L 204.346117 452.225492 
L 205.82631 451.019796 
L 207.478701 449.633051 
L 207.751557 449.403662 
L 209.4652 447.787528 
L 210.611284 446.480873 
L 210.900198 446.171393 
L 211.91808 444.555259 
L 212.561438 442.939124 
L 213.059484 441.32299 
L 213.593978 439.706856 
L 213.743868 439.342897 
L 214.520634 438.090721 
L 215.447377 436.474587 
L 216.253054 434.858453 
L 216.876451 433.393118 
L 216.946657 433.242318 
L 217.513262 431.626184 
L 217.900577 430.010049 
L 218.211998 428.393915 
L 218.527303 426.777781 
L 218.846909 425.161646 
L 219.106546 423.545512 
L 219.240701 421.929378 
L 219.165975 420.313243 
L 218.603863 418.697109 
L 216.876451 417.286892 
L 216.511559 417.080974 
L 213.743868 415.89988 
L 213.000541 415.46484 
L 210.776032 413.848706 
L 210.611284 413.67255 
L 208.909249 412.232571 
L 207.478701 410.728744 
L 207.380962 410.616437 
L 206.272033 409.000303 
L 205.138247 407.384168 
L 204.346117 406.397008 
L 203.884006 405.768034 
L 202.493246 404.1519 
L 201.213534 402.876736 
L 200.153037 402.535765 
L 198.08095 402.086879 
L 194.948367 401.49015 
L 193.820506 400.919631 
L 191.815783 400.096341 
L 190.302843 399.303496 
L 188.6832 398.651519 
L 186.030326 397.687362 
L 185.550617 397.512678 
L 182.418033 396.49814 
L 181.089431 396.071228 
L 179.28545 395.26962 
L 176.152866 394.455093 
L 176.152866 394.455093 
L 173.020283 394.296306 
L 169.887699 393.730972 
L 168.099836 392.838959 
L 166.755116 392.208654 
L 164.487571 391.222825 
L 163.622532 390.933373 
L 160.489949 390.156142 
L 158.137439 389.60669 
L 157.357365 389.364772 
L 154.224782 388.757233 
L 151.092199 388.594825 
L 147.959615 388.35626 
L 145.480693 387.990556 
L 144.827032 387.882013 
L 141.694448 387.644847 
L 139.759357 387.990556 
L 138.561865 388.212768 
L 135.429281 389.423847 
L 134.981888 389.60669 
L 132.296698 390.591196 
L 130.277605 391.222825 
L 129.164114 391.500402 
L 126.031531 392.262527 
L 124.680838 392.838959 
L 122.898947 393.559565 
L 121.684336 394.455093 
L 119.834655 396.071228 
L 119.766364 396.140534 
L 118.412766 397.687362 
L 117.31224 399.303496 
L 116.63378 400.568901 
L 116.402923 400.919631 
L 115.459309 402.535765 
L 114.740116 404.1519 
L 114.185956 405.768034 
L 113.738195 407.384168 
L 113.501197 408.372348 
L 113.291177 409.000303 
L 112.852725 410.616437 
L 112.560932 412.232571 
L 112.399805 413.848706 
L 112.321639 415.46484 
L 112.259656 417.080974 
L 112.165544 418.697109 
L 112.040446 420.313243 
L 111.930053 421.929378 
L 111.892166 423.545512 
L 111.966598 425.161646 
L 112.162948 426.777781 
L 112.458545 428.393915 
L 112.793849 430.010049 
L 113.07708 431.626184 
L 113.231993 433.242318 
L 113.26134 434.858453 
L 113.237615 436.474587 
L 113.231985 438.090721 
L 113.269736 439.706856 
L 113.33491 441.32299 
L 113.389337 442.939124 
L 113.384018 444.555259 
L 113.274667 446.171393 
L 113.053253 447.787528 
L 112.766906 449.403662 
L 112.490792 451.019796 
L 112.273923 452.635931 
L 112.09773 454.252065 
L 111.884892 455.868199 
L 111.569507 457.484334 
L 111.150017 459.100468 
L 110.66958 460.716602 
L 110.368614 461.663533 
L 110.042194 462.332737 
L 109.273025 463.948871 
L 108.578403 465.565006 
L 107.936833 467.18114 
L 107.357341 468.797274 
L 107.23603 469.162177 
L 106.579703 470.413409 
L 105.928269 472.029543 
L 105.536056 473.645677 
L 105.427355 475.261812 
L 105.652205 476.877946 
L 106.352302 478.494081 
L 107.23603 479.536252 
L 107.618451 480.110215 
L 109.573636 481.726349 
L 110.368614 482.179912 
L 112.967244 483.342484 
L 113.501197 483.554994 
L 116.63378 484.535373 
L 118.992994 484.958618 
z
M 129.284214 483.342484 
L 129.164114 483.339366 
L 126.031531 483.134607 
L 122.898947 482.752837 
L 119.766364 482.029052 
L 118.853255 481.726349 
L 116.63378 480.909396 
L 115.034298 480.110215 
L 113.501197 478.927351 
L 112.971884 478.494081 
L 111.820229 476.877946 
L 111.42149 475.261812 
L 111.490929 473.645677 
L 111.89978 472.029543 
L 112.584849 470.413409 
L 113.501197 468.797274 
L 113.501197 468.797274 
L 114.183502 467.18114 
L 114.941414 465.565006 
L 115.755381 463.948871 
L 116.602121 462.332737 
L 116.63378 462.267013 
L 117.175717 460.716602 
L 117.717034 459.100468 
L 118.216706 457.484334 
L 118.65141 455.868199 
L 119.007937 454.252065 
L 119.294606 452.635931 
L 119.532101 451.019796 
L 119.72682 449.403662 
L 119.766364 448.920035 
L 119.832868 447.787528 
L 119.870561 446.171393 
L 119.857819 444.555259 
L 119.826389 442.939124 
L 119.811408 441.32299 
L 119.833851 439.706856 
L 119.898698 438.090721 
L 119.995884 436.474587 
L 120.098367 434.858453 
L 120.167754 433.242318 
L 120.172755 431.626184 
L 120.109369 430.010049 
L 120.004576 428.393915 
L 119.897748 426.777781 
L 119.820503 425.161646 
L 119.795214 423.545512 
L 119.841924 421.929378 
L 119.973862 420.313243 
L 120.189614 418.697109 
L 120.480775 417.080974 
L 120.842953 415.46484 
L 121.272562 413.848706 
L 121.757084 412.232571 
L 122.277741 410.616437 
L 122.833766 409.000303 
L 122.898947 408.832685 
L 123.544721 407.384168 
L 124.456142 405.768034 
L 125.649846 404.1519 
L 126.031531 403.750071 
L 127.611658 402.535765 
L 129.164114 401.611923 
L 131.11971 400.919631 
L 132.296698 400.567521 
L 135.429281 400.111469 
L 138.561865 399.954453 
L 141.694448 400.069962 
L 144.827032 400.631435 
L 145.75276 400.919631 
L 147.959615 401.668802 
L 150.304006 402.535765 
L 151.092199 402.826174 
L 154.224782 403.698733 
L 156.452391 404.1519 
L 157.357365 404.317188 
L 160.489949 404.92437 
L 163.174581 405.768034 
L 163.622532 405.935196 
L 166.391625 407.384168 
L 166.755116 407.61813 
L 169.637194 409.000303 
L 169.887699 409.108372 
L 173.020283 409.974331 
L 174.527771 410.616437 
L 176.152866 411.365521 
L 177.457729 412.232571 
L 179.28545 413.813506 
L 179.322162 413.848706 
L 180.954754 415.46484 
L 182.418033 416.640708 
L 183.092831 417.080974 
L 185.550617 418.594206 
L 185.720709 418.697109 
L 187.676982 420.313243 
L 188.6832 421.596359 
L 188.978096 421.929378 
L 190.299965 423.545512 
L 191.479948 425.161646 
L 191.815783 425.851603 
L 192.21748 426.777781 
L 192.488936 428.393915 
L 192.45567 430.010049 
L 192.286988 431.626184 
L 192.075786 433.242318 
L 191.838596 434.858453 
L 191.815783 434.994014 
L 191.61873 436.474587 
L 191.3151 438.090721 
L 190.87871 439.706856 
L 190.315917 441.32299 
L 189.697067 442.939124 
L 189.104478 444.555259 
L 188.6832 445.762824 
L 188.571179 446.171393 
L 188.039116 447.787528 
L 187.422297 449.403662 
L 186.674533 451.019796 
L 185.68065 452.635931 
L 185.550617 452.797857 
L 184.153455 454.252065 
L 182.418033 455.727376 
L 182.272354 455.868199 
L 180.681489 457.484334 
L 179.404882 459.100468 
L 179.28545 459.304977 
L 178.691677 460.716602 
L 178.217507 462.332737 
L 177.910766 463.948871 
L 177.707768 465.565006 
L 177.530243 467.18114 
L 177.286803 468.797274 
L 176.86869 470.413409 
L 176.152866 471.994481 
L 176.139641 472.029543 
L 175.115215 473.645677 
L 173.367427 475.261812 
L 173.020283 475.486228 
L 170.722493 476.877946 
L 169.887699 477.246682 
L 166.755116 478.425347 
L 166.555112 478.494081 
L 163.622532 479.386202 
L 160.489949 480.106435 
L 160.470781 480.110215 
L 157.357365 480.771767 
L 154.224782 481.251678 
L 151.092199 481.646852 
L 150.433771 481.726349 
L 147.959615 482.113812 
L 144.827032 482.540783 
L 141.694448 482.905633 
L 138.561865 483.18645 
L 135.803528 483.342484 
L 135.429281 483.375563 
L 132.296698 483.465734 
z
" clip-path="url(#pf298f9ae1e)" style="fill: #e1eee1; fill-opacity: 0.5"/>
    <path d="M 132.296698 483.465734 
L 135.429281 483.375563 
L 135.803528 483.342484 
L 138.561865 483.18645 
L 141.694448 482.905633 
L 144.827032 482.540783 
L 147.959615 482.113812 
L 150.433771 481.726349 
L 151.092199 481.646852 
L 154.224782 481.251678 
L 157.357365 480.771767 
L 160.470781 480.110215 
L 160.489949 480.106435 
L 163.622532 479.386202 
L 166.555112 478.494081 
L 166.755116 478.425347 
L 169.887699 477.246682 
L 170.722493 476.877946 
L 173.020283 475.486228 
L 173.367427 475.261812 
L 175.115215 473.645677 
L 176.139641 472.029543 
L 176.152866 471.994481 
L 176.86869 470.413409 
L 177.286803 468.797274 
L 177.530243 467.18114 
L 177.707768 465.565006 
L 177.910766 463.948871 
L 178.217507 462.332737 
L 178.691677 460.716602 
L 179.28545 459.304977 
L 179.404882 459.100468 
L 180.681489 457.484334 
L 182.272354 455.868199 
L 182.418033 455.727376 
L 184.153455 454.252065 
L 185.550617 452.797857 
L 185.68065 452.635931 
L 186.674533 451.019796 
L 187.422297 449.403662 
L 188.039116 447.787528 
L 188.571179 446.171393 
L 188.6832 445.762824 
L 189.104478 444.555259 
L 189.697067 442.939124 
L 190.315917 441.32299 
L 190.87871 439.706856 
L 191.3151 438.090721 
L 191.61873 436.474587 
L 191.815783 434.994014 
L 191.838596 434.858453 
L 192.075786 433.242318 
L 192.286988 431.626184 
L 192.45567 430.010049 
L 192.488936 428.393915 
L 192.21748 426.777781 
L 191.815783 425.851603 
L 191.479948 425.161646 
L 190.299965 423.545512 
L 188.978096 421.929378 
L 188.6832 421.596359 
L 187.676982 420.313243 
L 185.720709 418.697109 
L 185.550617 418.594206 
L 183.092831 417.080974 
L 182.418033 416.640708 
L 180.954754 415.46484 
L 179.322162 413.848706 
L 179.28545 413.813506 
L 177.457729 412.232571 
L 176.152866 411.365521 
L 174.527771 410.616437 
L 173.020283 409.974331 
L 169.887699 409.108372 
L 169.637194 409.000303 
L 166.755116 407.61813 
L 166.391625 407.384168 
L 163.622532 405.935196 
L 163.174581 405.768034 
L 160.489949 404.92437 
L 157.357365 404.317188 
L 156.452391 404.1519 
L 154.224782 403.698733 
L 151.092199 402.826174 
L 150.304006 402.535765 
L 147.959615 401.668802 
L 145.75276 400.919631 
L 144.827032 400.631435 
L 141.694448 400.069962 
L 138.561865 399.954453 
L 135.429281 400.111469 
L 132.296698 400.567521 
L 131.11971 400.919631 
L 129.164114 401.611923 
L 127.611658 402.535765 
L 126.031531 403.750071 
L 125.649846 404.1519 
L 124.456142 405.768034 
L 123.544721 407.384168 
L 122.898947 408.832685 
L 122.833766 409.000303 
L 122.277741 410.616437 
L 121.757084 412.232571 
L 121.272562 413.848706 
L 120.842953 415.46484 
L 120.480775 417.080974 
L 120.189614 418.697109 
L 119.973862 420.313243 
L 119.841924 421.929378 
L 119.795214 423.545512 
L 119.820503 425.161646 
L 119.897748 426.777781 
L 120.004576 428.393915 
L 120.109369 430.010049 
L 120.172755 431.626184 
L 120.167754 433.242318 
L 120.098367 434.858453 
L 119.995884 436.474587 
L 119.898698 438.090721 
L 119.833851 439.706856 
L 119.811408 441.32299 
L 119.826389 442.939124 
L 119.857819 444.555259 
L 119.870561 446.171393 
L 119.832868 447.787528 
L 119.766364 448.920035 
L 119.72682 449.403662 
L 119.532101 451.019796 
L 119.294606 452.635931 
L 119.007937 454.252065 
L 118.65141 455.868199 
L 118.216706 457.484334 
L 117.717034 459.100468 
L 117.175717 460.716602 
L 116.63378 462.267013 
L 116.602121 462.332737 
L 115.755381 463.948871 
L 114.941414 465.565006 
L 114.183502 467.18114 
L 113.501197 468.797274 
L 113.501197 468.797274 
L 112.584849 470.413409 
L 111.89978 472.029543 
L 111.490929 473.645677 
L 111.42149 475.261812 
L 111.820229 476.877946 
L 112.971884 478.494081 
L 113.501197 478.927351 
L 115.034298 480.110215 
L 116.63378 480.909396 
L 118.853255 481.726349 
L 119.766364 482.029052 
L 122.898947 482.752837 
L 126.031531 483.134607 
L 129.164114 483.339366 
L 129.284214 483.342484 
z
M 126.751781 481.726349 
L 126.031531 481.655575 
L 122.898947 481.124887 
L 119.766364 480.114439 
L 119.756171 480.110215 
L 116.831338 478.494081 
L 116.63378 478.298772 
L 115.244579 476.877946 
L 114.620725 475.261812 
L 114.596921 473.645677 
L 114.976552 472.029543 
L 115.659756 470.413409 
L 116.587751 468.797274 
L 116.63378 468.722234 
L 117.387676 467.18114 
L 118.253224 465.565006 
L 119.157234 463.948871 
L 119.766364 462.824077 
L 119.994206 462.332737 
L 120.644354 460.716602 
L 121.220739 459.100468 
L 121.72646 457.484334 
L 122.169805 455.868199 
L 122.55989 454.252065 
L 122.898947 452.674347 
L 122.905413 452.635931 
L 123.138454 451.019796 
L 123.341314 449.403662 
L 123.495034 447.787528 
L 123.576578 446.171393 
L 123.590943 444.555259 
L 123.585395 442.939124 
L 123.619975 441.32299 
L 123.724485 439.706856 
L 123.886431 438.090721 
L 124.068271 436.474587 
L 124.232334 434.858453 
L 124.357272 433.242318 
L 124.439033 431.626184 
L 124.489353 430.010049 
L 124.541295 428.393915 
L 124.645571 426.777781 
L 124.847097 425.161646 
L 125.164168 423.545512 
L 125.589104 421.929378 
L 126.031531 420.520042 
L 126.098383 420.313243 
L 126.670421 418.697109 
L 127.386411 417.080974 
L 128.288526 415.46484 
L 129.164114 414.139799 
L 129.38148 413.848706 
L 130.720771 412.232571 
L 132.296698 410.616437 
L 132.296698 410.616437 
L 134.843008 409.000303 
L 135.429281 408.675123 
L 138.561865 407.976477 
L 141.694448 407.988048 
L 144.827032 408.512537 
L 146.882384 409.000303 
L 147.959615 409.218802 
L 151.092199 409.910563 
L 153.351315 410.616437 
L 154.224782 410.941433 
L 157.062156 412.232571 
L 157.357365 412.38421 
L 160.150609 413.848706 
L 160.489949 414.023043 
L 162.767816 415.46484 
L 163.622532 416.003908 
L 165.511371 417.080974 
L 166.755116 417.866941 
L 168.276067 418.697109 
L 169.887699 419.874976 
L 170.391146 420.313243 
L 171.959322 421.929378 
L 173.020283 423.052151 
L 173.678302 423.545512 
L 176.152866 425.108676 
L 176.227112 425.161646 
L 178.133581 426.777781 
L 179.28545 428.25562 
L 179.372552 428.393915 
L 180.17061 430.010049 
L 180.651702 431.626184 
L 180.820627 433.242318 
L 180.738847 434.858453 
L 180.517478 436.474587 
L 180.263899 438.090721 
L 180.012886 439.706856 
L 179.725531 441.32299 
L 179.339951 442.939124 
L 179.28545 443.110621 
L 178.871341 444.555259 
L 178.30699 446.171393 
L 177.620216 447.787528 
L 176.777124 449.403662 
L 176.152866 450.413357 
L 175.861883 451.019796 
L 175.008242 452.635931 
L 174.08343 454.252065 
L 173.143833 455.868199 
L 173.020283 456.095693 
L 172.373488 457.484334 
L 171.71722 459.100468 
L 171.217245 460.716602 
L 170.924333 462.332737 
L 170.84887 463.948871 
L 170.928681 465.565006 
L 171.042108 467.18114 
L 171.055482 468.797274 
L 170.836749 470.413409 
L 170.217315 472.029543 
L 169.887699 472.470268 
L 169.100809 473.645677 
L 167.079435 475.261812 
L 166.755116 475.436519 
L 163.885021 476.877946 
L 163.622532 476.977873 
L 160.489949 478.063928 
L 158.901381 478.494081 
L 157.357365 478.881675 
L 154.224782 479.525852 
L 151.092199 480.054072 
L 150.735039 480.110215 
L 147.959615 480.595314 
L 144.827032 481.063196 
L 141.694448 481.469758 
L 139.218089 481.726349 
L 138.561865 481.815105 
L 135.429281 482.099041 
L 132.296698 482.168277 
L 129.164114 482.013252 
z
" clip-path="url(#pf298f9ae1e)" style="fill: #cee5ce; fill-opacity: 0.5"/>
    <path d="M 129.164114 482.013252 
L 132.296698 482.168277 
L 135.429281 482.099041 
L 138.561865 481.815105 
L 139.218089 481.726349 
L 141.694448 481.469758 
L 144.827032 481.063196 
L 147.959615 480.595314 
L 150.735039 480.110215 
L 151.092199 480.054072 
L 154.224782 479.525852 
L 157.357365 478.881675 
L 158.901381 478.494081 
L 160.489949 478.063928 
L 163.622532 476.977873 
L 163.885021 476.877946 
L 166.755116 475.436519 
L 167.079435 475.261812 
L 169.100809 473.645677 
L 169.887699 472.470268 
L 170.217315 472.029543 
L 170.836749 470.413409 
L 171.055482 468.797274 
L 171.042108 467.18114 
L 170.928681 465.565006 
L 170.84887 463.948871 
L 170.924333 462.332737 
L 171.217245 460.716602 
L 171.71722 459.100468 
L 172.373488 457.484334 
L 173.020283 456.095693 
L 173.143833 455.868199 
L 174.08343 454.252065 
L 175.008242 452.635931 
L 175.861883 451.019796 
L 176.152866 450.413357 
L 176.777124 449.403662 
L 177.620216 447.787528 
L 178.30699 446.171393 
L 178.871341 444.555259 
L 179.28545 443.110621 
L 179.339951 442.939124 
L 179.725531 441.32299 
L 180.012886 439.706856 
L 180.263899 438.090721 
L 180.517478 436.474587 
L 180.738847 434.858453 
L 180.820627 433.242318 
L 180.651702 431.626184 
L 180.17061 430.010049 
L 179.372552 428.393915 
L 179.28545 428.25562 
L 178.133581 426.777781 
L 176.227112 425.161646 
L 176.152866 425.108676 
L 173.678302 423.545512 
L 173.020283 423.052151 
L 171.959322 421.929378 
L 170.391146 420.313243 
L 169.887699 419.874976 
L 168.276067 418.697109 
L 166.755116 417.866941 
L 165.511371 417.080974 
L 163.622532 416.003908 
L 162.767816 415.46484 
L 160.489949 414.023043 
L 160.150609 413.848706 
L 157.357365 412.38421 
L 157.062156 412.232571 
L 154.224782 410.941433 
L 153.351315 410.616437 
L 151.092199 409.910563 
L 147.959615 409.218802 
L 146.882384 409.000303 
L 144.827032 408.512537 
L 141.694448 407.988048 
L 138.561865 407.976477 
L 135.429281 408.675123 
L 134.843008 409.000303 
L 132.296698 410.616437 
L 132.296698 410.616437 
L 130.720771 412.232571 
L 129.38148 413.848706 
L 129.164114 414.139799 
L 128.288526 415.46484 
L 127.386411 417.080974 
L 126.670421 418.697109 
L 126.098383 420.313243 
L 126.031531 420.520042 
L 125.589104 421.929378 
L 125.164168 423.545512 
L 124.847097 425.161646 
L 124.645571 426.777781 
L 124.541295 428.393915 
L 124.489353 430.010049 
L 124.439033 431.626184 
L 124.357272 433.242318 
L 124.232334 434.858453 
L 124.068271 436.474587 
L 123.886431 438.090721 
L 123.724485 439.706856 
L 123.619975 441.32299 
L 123.585395 442.939124 
L 123.590943 444.555259 
L 123.576578 446.171393 
L 123.495034 447.787528 
L 123.341314 449.403662 
L 123.138454 451.019796 
L 122.905413 452.635931 
L 122.898947 452.674347 
L 122.55989 454.252065 
L 122.169805 455.868199 
L 121.72646 457.484334 
L 121.220739 459.100468 
L 120.644354 460.716602 
L 119.994206 462.332737 
L 119.766364 462.824077 
L 119.157234 463.948871 
L 118.253224 465.565006 
L 117.387676 467.18114 
L 116.63378 468.722234 
L 116.587751 468.797274 
L 115.659756 470.413409 
L 114.976552 472.029543 
L 114.596921 473.645677 
L 114.620725 475.261812 
L 115.244579 476.877946 
L 116.63378 478.298772 
L 116.831338 478.494081 
L 119.756171 480.110215 
L 119.766364 480.114439 
L 122.898947 481.124887 
L 126.031531 481.655575 
L 126.751781 481.726349 
z
M 123.867058 480.110215 
L 122.898947 479.857691 
L 119.766364 478.509402 
L 119.738605 478.494081 
L 117.76559 476.877946 
L 116.9723 475.261812 
L 116.860084 473.645677 
L 117.182641 472.029543 
L 117.812716 470.413409 
L 118.677972 468.797274 
L 119.723114 467.18114 
L 119.766364 467.113823 
L 120.671186 465.565006 
L 121.626063 463.948871 
L 122.525415 462.332737 
L 122.898947 461.553688 
L 123.272185 460.716602 
L 123.853142 459.100468 
L 124.317876 457.484334 
L 124.700431 455.868199 
L 125.040113 454.252065 
L 125.368173 452.635931 
L 125.700647 451.019796 
L 126.031531 449.403662 
L 126.031531 449.403662 
L 126.280215 447.787528 
L 126.475134 446.171393 
L 126.605616 444.555259 
L 126.69849 442.939124 
L 126.814283 441.32299 
L 126.999863 439.706856 
L 127.249483 438.090721 
L 127.517553 436.474587 
L 127.757949 434.858453 
L 127.955086 433.242318 
L 128.126446 431.626184 
L 128.301616 430.010049 
L 128.509977 428.393915 
L 128.787227 426.777781 
L 129.164114 425.220094 
L 129.180167 425.161646 
L 129.782459 423.545512 
L 130.567696 421.929378 
L 131.513551 420.313243 
L 132.296698 419.157447 
L 132.722387 418.697109 
L 134.358165 417.080974 
L 135.429281 416.149087 
L 136.900455 415.46484 
L 138.561865 414.747076 
L 141.694448 414.334977 
L 144.827032 414.366662 
L 147.959615 414.667312 
L 150.31893 415.46484 
L 151.092199 415.745262 
L 153.467282 417.080974 
L 154.224782 417.496055 
L 156.788926 418.697109 
L 157.357365 418.963579 
L 159.773642 420.313243 
L 160.489949 420.783697 
L 161.914152 421.929378 
L 163.586509 423.545512 
L 163.622532 423.585924 
L 165.070645 425.161646 
L 166.272987 426.777781 
L 166.755116 427.459984 
L 167.61364 428.393915 
L 169.362828 430.010049 
L 169.887699 430.482252 
L 171.33522 431.626184 
L 172.429291 433.242318 
L 172.737659 434.858453 
L 172.686528 436.474587 
L 172.544684 438.090721 
L 172.447764 439.706856 
L 172.429171 441.32299 
L 172.418811 442.939124 
L 172.305703 444.555259 
L 172.035822 446.171393 
L 171.615131 447.787528 
L 171.058077 449.403662 
L 170.368374 451.019796 
L 169.887699 451.979517 
L 169.569358 452.635931 
L 168.728395 454.252065 
L 167.879244 455.868199 
L 167.089502 457.484334 
L 166.755116 458.315225 
L 166.436342 459.100468 
L 166.004008 460.716602 
L 165.838975 462.332737 
L 165.934222 463.948871 
L 166.215585 465.565006 
L 166.542113 467.18114 
L 166.743532 468.797274 
L 166.658266 470.413409 
L 166.120714 472.029543 
L 164.889512 473.645677 
L 163.622532 474.571003 
L 162.62594 475.261812 
L 160.489949 476.249276 
L 158.879421 476.877946 
L 157.357365 477.349517 
L 154.224782 478.166456 
L 152.816854 478.494081 
L 151.092199 478.868958 
L 147.959615 479.459314 
L 144.827032 479.95851 
L 143.833809 480.110215 
L 141.694448 480.473008 
L 138.561865 480.90186 
L 135.429281 481.156331 
L 132.296698 481.205702 
L 129.164114 481.033815 
L 126.031531 480.616065 
z
" clip-path="url(#pf298f9ae1e)" style="fill: #bcdcbc; fill-opacity: 0.5"/>
    <path d="M 126.031531 480.616065 
L 129.164114 481.033815 
L 132.296698 481.205702 
L 135.429281 481.156331 
L 138.561865 480.90186 
L 141.694448 480.473008 
L 143.833809 480.110215 
L 144.827032 479.95851 
L 147.959615 479.459314 
L 151.092199 478.868958 
L 152.816854 478.494081 
L 154.224782 478.166456 
L 157.357365 477.349517 
L 158.879421 476.877946 
L 160.489949 476.249276 
L 162.62594 475.261812 
L 163.622532 474.571003 
L 164.889512 473.645677 
L 166.120714 472.029543 
L 166.658266 470.413409 
L 166.743532 468.797274 
L 166.542113 467.18114 
L 166.215585 465.565006 
L 165.934222 463.948871 
L 165.838975 462.332737 
L 166.004008 460.716602 
L 166.436342 459.100468 
L 166.755116 458.315225 
L 167.089502 457.484334 
L 167.879244 455.868199 
L 168.728395 454.252065 
L 169.569358 452.635931 
L 169.887699 451.979517 
L 170.368374 451.019796 
L 171.058077 449.403662 
L 171.615131 447.787528 
L 172.035822 446.171393 
L 172.305703 444.555259 
L 172.418811 442.939124 
L 172.429171 441.32299 
L 172.447764 439.706856 
L 172.544684 438.090721 
L 172.686528 436.474587 
L 172.737659 434.858453 
L 172.429291 433.242318 
L 171.33522 431.626184 
L 169.887699 430.482252 
L 169.362828 430.010049 
L 167.61364 428.393915 
L 166.755116 427.459984 
L 166.272987 426.777781 
L 165.070645 425.161646 
L 163.622532 423.585924 
L 163.586509 423.545512 
L 161.914152 421.929378 
L 160.489949 420.783697 
L 159.773642 420.313243 
L 157.357365 418.963579 
L 156.788926 418.697109 
L 154.224782 417.496055 
L 153.467282 417.080974 
L 151.092199 415.745262 
L 150.31893 415.46484 
L 147.959615 414.667312 
L 144.827032 414.366662 
L 141.694448 414.334977 
L 138.561865 414.747076 
L 136.900455 415.46484 
L 135.429281 416.149087 
L 134.358165 417.080974 
L 132.722387 418.697109 
L 132.296698 419.157447 
L 131.513551 420.313243 
L 130.567696 421.929378 
L 129.782459 423.545512 
L 129.180167 425.161646 
L 129.164114 425.220094 
L 128.787227 426.777781 
L 128.509977 428.393915 
L 128.301616 430.010049 
L 128.126446 431.626184 
L 127.955086 433.242318 
L 127.757949 434.858453 
L 127.517553 436.474587 
L 127.249483 438.090721 
L 126.999863 439.706856 
L 126.814283 441.32299 
L 126.69849 442.939124 
L 126.605616 444.555259 
L 126.475134 446.171393 
L 126.280215 447.787528 
L 126.031531 449.403662 
L 126.031531 449.403662 
L 125.700647 451.019796 
L 125.368173 452.635931 
L 125.040113 454.252065 
L 124.700431 455.868199 
L 124.317876 457.484334 
L 123.853142 459.100468 
L 123.272185 460.716602 
L 122.898947 461.553688 
L 122.525415 462.332737 
L 121.626063 463.948871 
L 120.671186 465.565006 
L 119.766364 467.113823 
L 119.723114 467.18114 
L 118.677972 468.797274 
L 117.812716 470.413409 
L 117.182641 472.029543 
L 116.860084 473.645677 
L 116.9723 475.261812 
L 117.76559 476.877946 
L 119.738605 478.494081 
L 119.766364 478.509402 
L 122.898947 479.857691 
L 123.867058 480.110215 
z
M 130.05628 480.110215 
L 129.164114 480.047467 
L 126.031531 479.544182 
L 122.898947 478.567688 
L 122.728466 478.494081 
L 120.206836 476.877946 
L 119.766364 476.263108 
L 119.090173 475.261812 
L 118.829263 473.645677 
L 119.155481 472.029543 
L 119.766364 470.7007 
L 119.883323 470.413409 
L 120.77101 468.797274 
L 121.845834 467.18114 
L 122.898947 465.729667 
L 123.018362 465.565006 
L 124.088775 463.948871 
L 125.073163 462.332737 
L 125.889364 460.716602 
L 126.031531 460.340535 
L 126.501068 459.100468 
L 126.940744 457.484334 
L 127.266204 455.868199 
L 127.547025 454.252065 
L 127.835358 452.635931 
L 128.158289 451.019796 
L 128.521105 449.403662 
L 128.910354 447.787528 
L 129.164114 446.700843 
L 129.289261 446.171393 
L 129.612962 444.555259 
L 129.888333 442.939124 
L 130.142907 441.32299 
L 130.418691 439.706856 
L 130.736471 438.090721 
L 131.08318 436.474587 
L 131.433259 434.858453 
L 131.774453 433.242318 
L 132.122506 431.626184 
L 132.296698 430.891233 
L 132.542491 430.010049 
L 133.090395 428.393915 
L 133.799589 426.777781 
L 134.739711 425.161646 
L 135.429281 424.216261 
L 136.127217 423.545512 
L 138.278142 421.929378 
L 138.561865 421.749181 
L 141.694448 420.596816 
L 143.527897 420.313243 
L 144.827032 420.117948 
L 146.634737 420.313243 
L 147.959615 420.469777 
L 151.092199 421.881204 
L 151.182545 421.929378 
L 154.169209 423.545512 
L 154.224782 423.575853 
L 156.749509 425.161646 
L 157.357365 425.62394 
L 158.496009 426.777781 
L 159.698034 428.393915 
L 160.489949 429.802586 
L 160.610962 430.010049 
L 161.557161 431.626184 
L 162.68214 433.242318 
L 163.622532 434.482443 
L 163.930052 434.858453 
L 164.84728 436.474587 
L 165.224087 438.090721 
L 165.266985 439.706856 
L 165.205435 441.32299 
L 165.194847 442.939124 
L 165.287391 444.555259 
L 165.410899 446.171393 
L 165.413035 447.787528 
L 165.174467 449.403662 
L 164.671767 451.019796 
L 163.948468 452.635931 
L 163.622532 453.236055 
L 163.025586 454.252065 
L 162.027564 455.868199 
L 161.128131 457.484334 
L 160.489949 459.100468 
L 160.489949 459.100468 
L 160.227984 460.716602 
L 160.368139 462.332737 
L 160.489949 462.735869 
L 160.825009 463.948871 
L 161.469501 465.565006 
L 162.134911 467.18114 
L 162.617613 468.797274 
L 162.701429 470.413409 
L 162.174897 472.029543 
L 160.784712 473.645677 
L 160.489949 473.842379 
L 158.168488 475.261812 
L 157.357365 475.593139 
L 154.224782 476.744649 
L 153.839838 476.877946 
L 151.092199 477.626985 
L 147.959615 478.327882 
L 147.170542 478.494081 
L 144.827032 478.96031 
L 141.694448 479.523636 
L 138.561865 479.956806 
L 136.721639 480.110215 
L 135.429281 480.236419 
L 132.296698 480.281986 
z
" clip-path="url(#pf298f9ae1e)" style="fill: #a8d2a8; fill-opacity: 0.5"/>
    <path d="M 132.296698 480.281986 
L 135.429281 480.236419 
L 136.721639 480.110215 
L 138.561865 479.956806 
L 141.694448 479.523636 
L 144.827032 478.96031 
L 147.170542 478.494081 
L 147.959615 478.327882 
L 151.092199 477.626985 
L 153.839838 476.877946 
L 154.224782 476.744649 
L 157.357365 475.593139 
L 158.168488 475.261812 
L 160.489949 473.842379 
L 160.784712 473.645677 
L 162.174897 472.029543 
L 162.701429 470.413409 
L 162.617613 468.797274 
L 162.134911 467.18114 
L 161.469501 465.565006 
L 160.825009 463.948871 
L 160.489949 462.735869 
L 160.368139 462.332737 
L 160.227984 460.716602 
L 160.489949 459.100468 
L 160.489949 459.100468 
L 161.128131 457.484334 
L 162.027564 455.868199 
L 163.025586 454.252065 
L 163.622532 453.236055 
L 163.948468 452.635931 
L 164.671767 451.019796 
L 165.174467 449.403662 
L 165.413035 447.787528 
L 165.410899 446.171393 
L 165.287391 444.555259 
L 165.194847 442.939124 
L 165.205435 441.32299 
L 165.266985 439.706856 
L 165.224087 438.090721 
L 164.84728 436.474587 
L 163.930052 434.858453 
L 163.622532 434.482443 
L 162.68214 433.242318 
L 161.557161 431.626184 
L 160.610962 430.010049 
L 160.489949 429.802586 
L 159.698034 428.393915 
L 158.496009 426.777781 
L 157.357365 425.62394 
L 156.749509 425.161646 
L 154.224782 423.575853 
L 154.169209 423.545512 
L 151.182545 421.929378 
L 151.092199 421.881204 
L 147.959615 420.469777 
L 146.634737 420.313243 
L 144.827032 420.117948 
L 143.527897 420.313243 
L 141.694448 420.596816 
L 138.561865 421.749181 
L 138.278142 421.929378 
L 136.127217 423.545512 
L 135.429281 424.216261 
L 134.739711 425.161646 
L 133.799589 426.777781 
L 133.090395 428.393915 
L 132.542491 430.010049 
L 132.296698 430.891233 
L 132.122506 431.626184 
L 131.774453 433.242318 
L 131.433259 434.858453 
L 131.08318 436.474587 
L 130.736471 438.090721 
L 130.418691 439.706856 
L 130.142907 441.32299 
L 129.888333 442.939124 
L 129.612962 444.555259 
L 129.289261 446.171393 
L 129.164114 446.700843 
L 128.910354 447.787528 
L 128.521105 449.403662 
L 128.158289 451.019796 
L 127.835358 452.635931 
L 127.547025 454.252065 
L 127.266204 455.868199 
L 126.940744 457.484334 
L 126.501068 459.100468 
L 126.031531 460.340535 
L 125.889364 460.716602 
L 125.073163 462.332737 
L 124.088775 463.948871 
L 123.018362 465.565006 
L 122.898947 465.729667 
L 121.845834 467.18114 
L 120.77101 468.797274 
L 119.883323 470.413409 
L 119.766364 470.7007 
L 119.155481 472.029543 
L 118.829263 473.645677 
L 119.090173 475.261812 
L 119.766364 476.263108 
L 120.206836 476.877946 
L 122.728466 478.494081 
L 122.898947 478.567688 
L 126.031531 479.544182 
L 129.164114 480.047467 
L 130.05628 480.110215 
z
M 125.594911 478.494081 
L 122.898947 477.29211 
L 122.241898 476.877946 
L 120.864726 475.261812 
L 120.499902 473.645677 
L 120.765325 472.029543 
L 121.465834 470.413409 
L 122.492326 468.797274 
L 122.898947 468.241101 
L 123.677324 467.18114 
L 124.932937 465.565006 
L 126.031531 464.143122 
L 126.190399 463.948871 
L 127.301134 462.332737 
L 128.219699 460.716602 
L 128.875463 459.100468 
L 129.164114 457.939773 
L 129.290886 457.484334 
L 129.56878 455.868199 
L 129.795818 454.252065 
L 130.055738 452.635931 
L 130.38126 451.019796 
L 130.77389 449.403662 
L 131.220701 447.787528 
L 131.700728 446.171393 
L 132.186342 444.555259 
L 132.296698 444.146575 
L 132.678264 442.939124 
L 133.112641 441.32299 
L 133.508657 439.706856 
L 133.911643 438.090721 
L 134.356192 436.474587 
L 134.859934 434.858453 
L 135.429281 433.242318 
L 135.429281 433.242318 
L 136.277692 431.626184 
L 137.249035 430.010049 
L 138.375741 428.393915 
L 138.561865 428.16143 
L 140.570413 426.777781 
L 141.694448 426.097238 
L 144.827032 425.61816 
L 147.959615 426.386326 
L 148.81777 426.777781 
L 151.092199 427.733851 
L 152.18671 428.393915 
L 154.224782 429.912378 
L 154.311844 430.010049 
L 155.423485 431.626184 
L 156.272306 433.242318 
L 157.034758 434.858453 
L 157.357365 435.547617 
L 157.840631 436.474587 
L 158.627647 438.090721 
L 159.213511 439.706856 
L 159.542346 441.32299 
L 159.680535 442.939124 
L 159.711596 444.555259 
L 159.678309 446.171393 
L 159.577281 447.787528 
L 159.360553 449.403662 
L 158.953962 451.019796 
L 158.309173 452.635931 
L 157.442946 454.252065 
L 157.357365 454.391736 
L 156.550566 455.868199 
L 155.700338 457.484334 
L 155.119338 459.100468 
L 155.021476 460.716602 
L 155.451538 462.332737 
L 156.263275 463.948871 
L 157.230422 465.565006 
L 157.357365 465.77429 
L 158.206328 467.18114 
L 158.933981 468.797274 
L 159.186299 470.413409 
L 158.714835 472.029543 
L 157.357365 473.497332 
L 157.227599 473.645677 
L 154.456182 475.261812 
L 154.224782 475.350337 
L 151.092199 476.493179 
L 149.89677 476.877946 
L 147.959615 477.37064 
L 144.827032 478.090885 
L 142.900988 478.494081 
L 141.694448 478.733744 
L 138.561865 479.245488 
L 135.429281 479.53427 
L 132.296698 479.55706 
L 129.164114 479.279927 
L 126.031531 478.632438 
z
" clip-path="url(#pf298f9ae1e)" style="fill: #95c995; fill-opacity: 0.5"/>
    <path d="M 126.031531 478.632438 
L 129.164114 479.279927 
L 132.296698 479.55706 
L 135.429281 479.53427 
L 138.561865 479.245488 
L 141.694448 478.733744 
L 142.900988 478.494081 
L 144.827032 478.090885 
L 147.959615 477.37064 
L 149.89677 476.877946 
L 151.092199 476.493179 
L 154.224782 475.350337 
L 154.456182 475.261812 
L 157.227599 473.645677 
L 157.357365 473.497332 
L 158.714835 472.029543 
L 159.186299 470.413409 
L 158.933981 468.797274 
L 158.206328 467.18114 
L 157.357365 465.77429 
L 157.230422 465.565006 
L 156.263275 463.948871 
L 155.451538 462.332737 
L 155.021476 460.716602 
L 155.119338 459.100468 
L 155.700338 457.484334 
L 156.550566 455.868199 
L 157.357365 454.391736 
L 157.442946 454.252065 
L 158.309173 452.635931 
L 158.953962 451.019796 
L 159.360553 449.403662 
L 159.577281 447.787528 
L 159.678309 446.171393 
L 159.711596 444.555259 
L 159.680535 442.939124 
L 159.542346 441.32299 
L 159.213511 439.706856 
L 158.627647 438.090721 
L 157.840631 436.474587 
L 157.357365 435.547617 
L 157.034758 434.858453 
L 156.272306 433.242318 
L 155.423485 431.626184 
L 154.311844 430.010049 
L 154.224782 429.912378 
L 152.18671 428.393915 
L 151.092199 427.733851 
L 148.81777 426.777781 
L 147.959615 426.386326 
L 144.827032 425.61816 
L 141.694448 426.097238 
L 140.570413 426.777781 
L 138.561865 428.16143 
L 138.375741 428.393915 
L 137.249035 430.010049 
L 136.277692 431.626184 
L 135.429281 433.242318 
L 135.429281 433.242318 
L 134.859934 434.858453 
L 134.356192 436.474587 
L 133.911643 438.090721 
L 133.508657 439.706856 
L 133.112641 441.32299 
L 132.678264 442.939124 
L 132.296698 444.146575 
L 132.186342 444.555259 
L 131.700728 446.171393 
L 131.220701 447.787528 
L 130.77389 449.403662 
L 130.38126 451.019796 
L 130.055738 452.635931 
L 129.795818 454.252065 
L 129.56878 455.868199 
L 129.290886 457.484334 
L 129.164114 457.939773 
L 128.875463 459.100468 
L 128.219699 460.716602 
L 127.301134 462.332737 
L 126.190399 463.948871 
L 126.031531 464.143122 
L 124.932937 465.565006 
L 123.677324 467.18114 
L 122.898947 468.241101 
L 122.492326 468.797274 
L 121.465834 470.413409 
L 120.765325 472.029543 
L 120.499902 473.645677 
L 120.864726 475.261812 
L 122.241898 476.877946 
L 122.898947 477.29211 
L 125.594911 478.494081 
z
M 129.189798 478.494081 
L 129.164114 478.490816 
L 126.031531 477.645266 
L 124.374239 476.877946 
L 122.898947 475.577618 
L 122.608462 475.261812 
L 122.088674 473.645677 
L 122.325632 472.029543 
L 122.898947 470.808907 
L 123.080538 470.413409 
L 124.149554 468.797274 
L 125.454637 467.18114 
L 126.031531 466.49667 
L 126.878259 465.565006 
L 128.273722 463.948871 
L 129.164114 462.802256 
L 129.601226 462.332737 
L 130.763731 460.716602 
L 131.57833 459.100468 
L 132.022837 457.484334 
L 132.202343 455.868199 
L 132.296698 454.252065 
L 132.296698 454.252065 
L 132.500637 452.635931 
L 132.849957 451.019796 
L 133.334644 449.403662 
L 133.912907 447.787528 
L 134.53849 446.171393 
L 135.170308 444.555259 
L 135.429281 443.849458 
L 135.942298 442.939124 
L 136.694291 441.32299 
L 137.329452 439.706856 
L 137.933037 438.090721 
L 138.561865 436.569566 
L 138.635029 436.474587 
L 140.080955 434.858453 
L 141.694448 433.346448 
L 142.044906 433.242318 
L 144.827032 432.502432 
L 147.959615 433.105595 
L 148.176904 433.242318 
L 149.979557 434.858453 
L 151.092199 436.399605 
L 151.127739 436.474587 
L 151.795725 438.090721 
L 152.56276 439.706856 
L 153.498112 441.32299 
L 154.224782 442.588075 
L 154.360953 442.939124 
L 154.742671 444.555259 
L 154.821466 446.171393 
L 154.663988 447.787528 
L 154.344064 449.403662 
L 154.224782 449.835478 
L 153.861208 451.019796 
L 153.272222 452.635931 
L 152.542043 454.252065 
L 151.681356 455.868199 
L 151.092199 457.011213 
L 150.838821 457.484334 
L 150.321623 459.100468 
L 150.40175 460.716602 
L 151.088608 462.332737 
L 151.092199 462.337722 
L 152.154818 463.948871 
L 153.339838 465.565006 
L 154.224782 466.85712 
L 154.457703 467.18114 
L 155.380174 468.797274 
L 155.770175 470.413409 
L 155.385239 472.029543 
L 154.224782 473.295623 
L 153.923054 473.645677 
L 151.092199 475.242811 
L 151.057268 475.261812 
L 147.959615 476.336383 
L 146.253412 476.877946 
L 144.827032 477.235147 
L 141.694448 477.962859 
L 138.679938 478.494081 
L 138.561865 478.514268 
L 135.429281 478.836532 
L 132.296698 478.841533 
z
" clip-path="url(#pf298f9ae1e)" style="fill: #82c082; fill-opacity: 0.5"/>
    <path d="M 132.296698 478.841533 
L 135.429281 478.836532 
L 138.561865 478.514268 
L 138.679938 478.494081 
L 141.694448 477.962859 
L 144.827032 477.235147 
L 146.253412 476.877946 
L 147.959615 476.336383 
L 151.057268 475.261812 
L 151.092199 475.242811 
L 153.923054 473.645677 
L 154.224782 473.295623 
L 155.385239 472.029543 
L 155.770175 470.413409 
L 155.380174 468.797274 
L 154.457703 467.18114 
L 154.224782 466.85712 
L 153.339838 465.565006 
L 152.154818 463.948871 
L 151.092199 462.337722 
L 151.088608 462.332737 
L 150.40175 460.716602 
L 150.321623 459.100468 
L 150.838821 457.484334 
L 151.092199 457.011213 
L 151.681356 455.868199 
L 152.542043 454.252065 
L 153.272222 452.635931 
L 153.861208 451.019796 
L 154.224782 449.835478 
L 154.344064 449.403662 
L 154.663988 447.787528 
L 154.821466 446.171393 
L 154.742671 444.555259 
L 154.360953 442.939124 
L 154.224782 442.588075 
L 153.498112 441.32299 
L 152.56276 439.706856 
L 151.795725 438.090721 
L 151.127739 436.474587 
L 151.092199 436.399605 
L 149.979557 434.858453 
L 148.176904 433.242318 
L 147.959615 433.105595 
L 144.827032 432.502432 
L 142.044906 433.242318 
L 141.694448 433.346448 
L 140.080955 434.858453 
L 138.635029 436.474587 
L 138.561865 436.569566 
L 137.933037 438.090721 
L 137.329452 439.706856 
L 136.694291 441.32299 
L 135.942298 442.939124 
L 135.429281 443.849458 
L 135.170308 444.555259 
L 134.53849 446.171393 
L 133.912907 447.787528 
L 133.334644 449.403662 
L 132.849957 451.019796 
L 132.500637 452.635931 
L 132.296698 454.252065 
L 132.296698 454.252065 
L 132.202343 455.868199 
L 132.022837 457.484334 
L 131.57833 459.100468 
L 130.763731 460.716602 
L 129.601226 462.332737 
L 129.164114 462.802256 
L 128.273722 463.948871 
L 126.878259 465.565006 
L 126.031531 466.49667 
L 125.454637 467.18114 
L 124.149554 468.797274 
L 123.080538 470.413409 
L 122.898947 470.808907 
L 122.325632 472.029543 
L 122.088674 473.645677 
L 122.608462 475.261812 
L 122.898947 475.577618 
L 124.374239 476.877946 
L 126.031531 477.645266 
L 129.164114 478.490816 
L 129.189798 478.494081 
z
M 126.296647 476.877946 
L 126.031531 476.73854 
L 124.132757 475.261812 
L 123.46415 473.645677 
L 123.65556 472.029543 
L 124.412416 470.413409 
L 125.567399 468.797274 
L 126.031531 468.243667 
L 127.009247 467.18114 
L 128.551733 465.565006 
L 129.164114 464.890262 
L 130.218534 463.948871 
L 131.782169 462.332737 
L 132.296698 461.665672 
L 133.359203 460.716602 
L 134.533365 459.100468 
L 135.136284 457.484334 
L 135.318958 455.868199 
L 135.32797 454.252065 
L 135.386097 452.635931 
L 135.429281 452.323607 
L 135.756133 451.019796 
L 136.470009 449.403662 
L 137.367408 447.787528 
L 138.302707 446.171393 
L 138.561865 445.711642 
L 140.244504 444.555259 
L 141.694448 443.223965 
L 144.827032 443.558001 
L 145.923376 444.555259 
L 147.299246 446.171393 
L 147.959615 447.398412 
L 148.101306 447.787528 
L 148.45924 449.403662 
L 148.573574 451.019796 
L 148.417048 452.635931 
L 147.959615 454.252065 
L 147.959615 454.252065 
L 147.071003 455.868199 
L 146.272136 457.484334 
L 145.900069 459.100468 
L 146.225687 460.716602 
L 147.347089 462.332737 
L 147.959615 462.893961 
L 148.866009 463.948871 
L 150.334477 465.565006 
L 151.092199 466.518213 
L 151.613175 467.18114 
L 152.609448 468.797274 
L 153.072261 470.413409 
L 152.751858 472.029543 
L 151.290763 473.645677 
L 151.092199 473.757705 
L 148.327085 475.261812 
L 147.959615 475.389287 
L 144.827032 476.449174 
L 143.430117 476.877946 
L 141.694448 477.304755 
L 138.561865 477.908014 
L 135.429281 478.233998 
L 132.296698 478.215988 
L 129.164114 477.780786 
z
" clip-path="url(#pf298f9ae1e)" style="fill: #70b770; fill-opacity: 0.5"/>
    <path d="M 129.164114 477.780786 
L 132.296698 478.215988 
L 135.429281 478.233998 
L 138.561865 477.908014 
L 141.694448 477.304755 
L 143.430117 476.877946 
L 144.827032 476.449174 
L 147.959615 475.389287 
L 148.327085 475.261812 
L 151.092199 473.757705 
L 151.290763 473.645677 
L 152.751858 472.029543 
L 153.072261 470.413409 
L 152.609448 468.797274 
L 151.613175 467.18114 
L 151.092199 466.518213 
L 150.334477 465.565006 
L 148.866009 463.948871 
L 147.959615 462.893961 
L 147.347089 462.332737 
L 146.225687 460.716602 
L 145.900069 459.100468 
L 146.272136 457.484334 
L 147.071003 455.868199 
L 147.959615 454.252065 
L 147.959615 454.252065 
L 148.417048 452.635931 
L 148.573574 451.019796 
L 148.45924 449.403662 
L 148.101306 447.787528 
L 147.959615 447.398412 
L 147.299246 446.171393 
L 145.923376 444.555259 
L 144.827032 443.558001 
L 141.694448 443.223965 
L 140.244504 444.555259 
L 138.561865 445.711642 
L 138.302707 446.171393 
L 137.367408 447.787528 
L 136.470009 449.403662 
L 135.756133 451.019796 
L 135.429281 452.323607 
L 135.386097 452.635931 
L 135.32797 454.252065 
L 135.318958 455.868199 
L 135.136284 457.484334 
L 134.533365 459.100468 
L 133.359203 460.716602 
L 132.296698 461.665672 
L 131.782169 462.332737 
L 130.218534 463.948871 
L 129.164114 464.890262 
L 128.551733 465.565006 
L 127.009247 467.18114 
L 126.031531 468.243667 
L 125.567399 468.797274 
L 124.412416 470.413409 
L 123.65556 472.029543 
L 123.46415 473.645677 
L 124.132757 475.261812 
L 126.031531 476.73854 
L 126.296647 476.877946 
z
M 130.724423 476.877946 
L 129.164114 476.479023 
L 126.839691 475.261812 
L 126.031531 474.115807 
L 125.776958 473.645677 
L 125.878911 472.029543 
L 126.031531 471.716512 
L 126.726901 470.413409 
L 128.05686 468.797274 
L 129.164114 467.660931 
L 129.778807 467.18114 
L 131.816754 465.565006 
L 132.296698 465.148289 
L 134.542885 463.948871 
L 135.429281 463.358742 
L 138.561865 462.696853 
L 141.694448 463.582751 
L 142.286826 463.948871 
L 144.827032 465.263187 
L 145.23839 465.565006 
L 147.229603 467.18114 
L 147.959615 468.06554 
L 148.488822 468.797274 
L 149.061225 470.413409 
L 148.771963 472.029543 
L 147.959615 472.90118 
L 147.307324 473.645677 
L 144.827032 474.974212 
L 144.253434 475.261812 
L 141.694448 476.103422 
L 138.561865 476.877946 
L 138.561865 476.877946 
L 135.429281 477.223172 
L 132.296698 477.1497 
z
" clip-path="url(#pf298f9ae1e)" style="fill: #5aac5a; fill-opacity: 0.5"/>
    <path d="M 132.296698 477.1497 
L 135.429281 477.223172 
L 138.561865 476.877946 
L 138.561865 476.877946 
L 141.694448 476.103422 
L 144.253434 475.261812 
L 144.827032 474.974212 
L 147.307324 473.645677 
L 147.959615 472.90118 
L 148.771963 472.029543 
L 149.061225 470.413409 
L 148.488822 468.797274 
L 147.959615 468.06554 
L 147.229603 467.18114 
L 145.23839 465.565006 
L 144.827032 465.263187 
L 142.286826 463.948871 
L 141.694448 463.582751 
L 138.561865 462.696853 
L 135.429281 463.358742 
L 134.542885 463.948871 
L 132.296698 465.148289 
L 131.816754 465.565006 
L 129.778807 467.18114 
L 129.164114 467.660931 
L 128.05686 468.797274 
L 126.726901 470.413409 
L 126.031531 471.716512 
L 125.878911 472.029543 
L 125.776958 473.645677 
L 126.031531 474.115807 
L 126.839691 475.261812 
L 129.164114 476.479023 
L 130.724423 476.877946 
z
" clip-path="url(#pf298f9ae1e)" style="fill: #269226; fill-opacity: 0.5"/>
   </g>
   <g id="matplotlib.axis_1">
    <g id="xtick_1">
     <g id="line2d_1">
      <defs>
       <path id="med98b69fdb" d="M 0 0 
L 0 3.5 
" style="stroke: #000000; stroke-width: 0.8"/>
      </defs>
      <g>
       <use xlink:href="#med98b69fdb" x="113.748646" y="499.48" style="stroke: #000000; stroke-width: 0.8"/>
      </g>
     </g>
     <g id="text_1">
      <!-- 0 -->
      <g transform="translate(106.749896 523.196563) scale(0.22 -0.22)">
       <defs>
        <path id="DejaVuSans-30" d="M 2034 4250 
Q 1547 4250 1301 3770 
Q 1056 3291 1056 2328 
Q 1056 1369 1301 889 
Q 1547 409 2034 409 
Q 2525 409 2770 889 
Q 3016 1369 3016 2328 
Q 3016 3291 2770 3770 
Q 2525 4250 2034 4250 
z
M 2034 4750 
Q 2819 4750 3233 4129 
Q 3647 3509 3647 2328 
Q 3647 1150 3233 529 
Q 2819 -91 2034 -91 
Q 1250 -91 836 529 
Q 422 1150 422 2328 
Q 422 3509 836 4129 
Q 1250 4750 2034 4750 
z
" transform="scale(0.015625)"/>
       </defs>
       <use xlink:href="#DejaVuSans-30"/>
      </g>
     </g>
    </g>
    <g id="xtick_2">
     <g id="line2d_2">
      <g>
       <use xlink:href="#med98b69fdb" x="212.602366" y="499.48" style="stroke: #000000; stroke-width: 0.8"/>
      </g>
     </g>
     <g id="text_2">
      <!-- 20 -->
      <g transform="translate(198.604866 523.196563) scale(0.22 -0.22)">
       <defs>
        <path id="DejaVuSans-32" d="M 1228 531 
L 3431 531 
L 3431 0 
L 469 0 
L 469 531 
Q 828 903 1448 1529 
Q 2069 2156 2228 2338 
Q 2531 2678 2651 2914 
Q 2772 3150 2772 3378 
Q 2772 3750 2511 3984 
Q 2250 4219 1831 4219 
Q 1534 4219 1204 4116 
Q 875 4013 500 3803 
L 500 4441 
Q 881 4594 1212 4672 
Q 1544 4750 1819 4750 
Q 2544 4750 2975 4387 
Q 3406 4025 3406 3419 
Q 3406 3131 3298 2873 
Q 3191 2616 2906 2266 
Q 2828 2175 2409 1742 
Q 1991 1309 1228 531 
z
" transform="scale(0.015625)"/>
       </defs>
       <use xlink:href="#DejaVuSans-32"/>
       <use xlink:href="#DejaVuSans-30" x="63.623047"/>
      </g>
     </g>
    </g>
    <g id="xtick_3">
     <g id="line2d_3">
      <g>
       <use xlink:href="#med98b69fdb" x="311.456087" y="499.48" style="stroke: #000000; stroke-width: 0.8"/>
      </g>
     </g>
     <g id="text_3">
      <!-- 40 -->
      <g transform="translate(297.458587 523.196563) scale(0.22 -0.22)">
       <defs>
        <path id="DejaVuSans-34" d="M 2419 4116 
L 825 1625 
L 2419 1625 
L 2419 4116 
z
M 2253 4666 
L 3047 4666 
L 3047 1625 
L 3713 1625 
L 3713 1100 
L 3047 1100 
L 3047 0 
L 2419 0 
L 2419 1100 
L 313 1100 
L 313 1709 
L 2253 4666 
z
" transform="scale(0.015625)"/>
       </defs>
       <use xlink:href="#DejaVuSans-34"/>
       <use xlink:href="#DejaVuSans-30" x="63.623047"/>
      </g>
     </g>
    </g>
    <g id="xtick_4">
     <g id="line2d_4">
      <g>
       <use xlink:href="#med98b69fdb" x="410.309807" y="499.48" style="stroke: #000000; stroke-width: 0.8"/>
      </g>
     </g>
     <g id="text_4">
      <!-- 60 -->
      <g transform="translate(396.312307 523.196563) scale(0.22 -0.22)">
       <defs>
        <path id="DejaVuSans-36" d="M 2113 2584 
Q 1688 2584 1439 2293 
Q 1191 2003 1191 1497 
Q 1191 994 1439 701 
Q 1688 409 2113 409 
Q 2538 409 2786 701 
Q 3034 994 3034 1497 
Q 3034 2003 2786 2293 
Q 2538 2584 2113 2584 
z
M 3366 4563 
L 3366 3988 
Q 3128 4100 2886 4159 
Q 2644 4219 2406 4219 
Q 1781 4219 1451 3797 
Q 1122 3375 1075 2522 
Q 1259 2794 1537 2939 
Q 1816 3084 2150 3084 
Q 2853 3084 3261 2657 
Q 3669 2231 3669 1497 
Q 3669 778 3244 343 
Q 2819 -91 2113 -91 
Q 1303 -91 875 529 
Q 447 1150 447 2328 
Q 447 3434 972 4092 
Q 1497 4750 2381 4750 
Q 2619 4750 2861 4703 
Q 3103 4656 3366 4563 
z
" transform="scale(0.015625)"/>
       </defs>
       <use xlink:href="#DejaVuSans-36"/>
       <use xlink:href="#DejaVuSans-30" x="63.623047"/>
      </g>
     </g>
    </g>
    <g id="xtick_5">
     <g id="line2d_5">
      <g>
       <use xlink:href="#med98b69fdb" x="509.163528" y="499.48" style="stroke: #000000; stroke-width: 0.8"/>
      </g>
     </g>
     <g id="text_5">
      <!-- 80 -->
      <g transform="translate(495.166028 523.196563) scale(0.22 -0.22)">
       <defs>
        <path id="DejaVuSans-38" d="M 2034 2216 
Q 1584 2216 1326 1975 
Q 1069 1734 1069 1313 
Q 1069 891 1326 650 
Q 1584 409 2034 409 
Q 2484 409 2743 651 
Q 3003 894 3003 1313 
Q 3003 1734 2745 1975 
Q 2488 2216 2034 2216 
z
M 1403 2484 
Q 997 2584 770 2862 
Q 544 3141 544 3541 
Q 544 4100 942 4425 
Q 1341 4750 2034 4750 
Q 2731 4750 3128 4425 
Q 3525 4100 3525 3541 
Q 3525 3141 3298 2862 
Q 3072 2584 2669 2484 
Q 3125 2378 3379 2068 
Q 3634 1759 3634 1313 
Q 3634 634 3220 271 
Q 2806 -91 2034 -91 
Q 1263 -91 848 271 
Q 434 634 434 1313 
Q 434 1759 690 2068 
Q 947 2378 1403 2484 
z
M 1172 3481 
Q 1172 3119 1398 2916 
Q 1625 2713 2034 2713 
Q 2441 2713 2670 2916 
Q 2900 3119 2900 3481 
Q 2900 3844 2670 4047 
Q 2441 4250 2034 4250 
Q 1625 4250 1398 4047 
Q 1172 3844 1172 3481 
z
" transform="scale(0.015625)"/>
       </defs>
       <use xlink:href="#DejaVuSans-38"/>
       <use xlink:href="#DejaVuSans-30" x="63.623047"/>
      </g>
     </g>
    </g>
    <g id="xtick_6">
     <g id="line2d_6">
      <g>
       <use xlink:href="#med98b69fdb" x="608.017248" y="499.48" style="stroke: #000000; stroke-width: 0.8"/>
      </g>
     </g>
     <g id="text_6">
      <!-- 100 -->
      <g transform="translate(587.020998 523.196563) scale(0.22 -0.22)">
       <defs>
        <path id="DejaVuSans-31" d="M 794 531 
L 1825 531 
L 1825 4091 
L 703 3866 
L 703 4441 
L 1819 4666 
L 2450 4666 
L 2450 531 
L 3481 531 
L 3481 0 
L 794 0 
L 794 531 
z
" transform="scale(0.015625)"/>
       </defs>
       <use xlink:href="#DejaVuSans-31"/>
       <use xlink:href="#DejaVuSans-30" x="63.623047"/>
       <use xlink:href="#DejaVuSans-30" x="127.246094"/>
      </g>
     </g>
    </g>
    <g id="text_7">
     <!-- Force Uncertainties -->
     <g transform="translate(290.446094 548.488438) scale(0.22 -0.22)">
      <defs>
       <path id="DejaVuSans-46" d="M 628 4666 
L 3309 4666 
L 3309 4134 
L 1259 4134 
L 1259 2759 
L 3109 2759 
L 3109 2228 
L 1259 2228 
L 1259 0 
L 628 0 
L 628 4666 
z
" transform="scale(0.015625)"/>
       <path id="DejaVuSans-6f" d="M 1959 3097 
Q 1497 3097 1228 2736 
Q 959 2375 959 1747 
Q 959 1119 1226 758 
Q 1494 397 1959 397 
Q 2419 397 2687 759 
Q 2956 1122 2956 1747 
Q 2956 2369 2687 2733 
Q 2419 3097 1959 3097 
z
M 1959 3584 
Q 2709 3584 3137 3096 
Q 3566 2609 3566 1747 
Q 3566 888 3137 398 
Q 2709 -91 1959 -91 
Q 1206 -91 779 398 
Q 353 888 353 1747 
Q 353 2609 779 3096 
Q 1206 3584 1959 3584 
z
" transform="scale(0.015625)"/>
       <path id="DejaVuSans-72" d="M 2631 2963 
Q 2534 3019 2420 3045 
Q 2306 3072 2169 3072 
Q 1681 3072 1420 2755 
Q 1159 2438 1159 1844 
L 1159 0 
L 581 0 
L 581 3500 
L 1159 3500 
L 1159 2956 
Q 1341 3275 1631 3429 
Q 1922 3584 2338 3584 
Q 2397 3584 2469 3576 
Q 2541 3569 2628 3553 
L 2631 2963 
z
" transform="scale(0.015625)"/>
       <path id="DejaVuSans-63" d="M 3122 3366 
L 3122 2828 
Q 2878 2963 2633 3030 
Q 2388 3097 2138 3097 
Q 1578 3097 1268 2742 
Q 959 2388 959 1747 
Q 959 1106 1268 751 
Q 1578 397 2138 397 
Q 2388 397 2633 464 
Q 2878 531 3122 666 
L 3122 134 
Q 2881 22 2623 -34 
Q 2366 -91 2075 -91 
Q 1284 -91 818 406 
Q 353 903 353 1747 
Q 353 2603 823 3093 
Q 1294 3584 2113 3584 
Q 2378 3584 2631 3529 
Q 2884 3475 3122 3366 
z
" transform="scale(0.015625)"/>
       <path id="DejaVuSans-65" d="M 3597 1894 
L 3597 1613 
L 953 1613 
Q 991 1019 1311 708 
Q 1631 397 2203 397 
Q 2534 397 2845 478 
Q 3156 559 3463 722 
L 3463 178 
Q 3153 47 2828 -22 
Q 2503 -91 2169 -91 
Q 1331 -91 842 396 
Q 353 884 353 1716 
Q 353 2575 817 3079 
Q 1281 3584 2069 3584 
Q 2775 3584 3186 3129 
Q 3597 2675 3597 1894 
z
M 3022 2063 
Q 3016 2534 2758 2815 
Q 2500 3097 2075 3097 
Q 1594 3097 1305 2825 
Q 1016 2553 972 2059 
L 3022 2063 
z
" transform="scale(0.015625)"/>
       <path id="DejaVuSans-20" transform="scale(0.015625)"/>
       <path id="DejaVuSans-55" d="M 556 4666 
L 1191 4666 
L 1191 1831 
Q 1191 1081 1462 751 
Q 1734 422 2344 422 
Q 2950 422 3222 751 
Q 3494 1081 3494 1831 
L 3494 4666 
L 4128 4666 
L 4128 1753 
Q 4128 841 3676 375 
Q 3225 -91 2344 -91 
Q 1459 -91 1007 375 
Q 556 841 556 1753 
L 556 4666 
z
" transform="scale(0.015625)"/>
       <path id="DejaVuSans-6e" d="M 3513 2113 
L 3513 0 
L 2938 0 
L 2938 2094 
Q 2938 2591 2744 2837 
Q 2550 3084 2163 3084 
Q 1697 3084 1428 2787 
Q 1159 2491 1159 1978 
L 1159 0 
L 581 0 
L 581 3500 
L 1159 3500 
L 1159 2956 
Q 1366 3272 1645 3428 
Q 1925 3584 2291 3584 
Q 2894 3584 3203 3211 
Q 3513 2838 3513 2113 
z
" transform="scale(0.015625)"/>
       <path id="DejaVuSans-74" d="M 1172 4494 
L 1172 3500 
L 2356 3500 
L 2356 3053 
L 1172 3053 
L 1172 1153 
Q 1172 725 1289 603 
Q 1406 481 1766 481 
L 2356 481 
L 2356 0 
L 1766 0 
Q 1100 0 847 248 
Q 594 497 594 1153 
L 594 3053 
L 172 3053 
L 172 3500 
L 594 3500 
L 594 4494 
L 1172 4494 
z
" transform="scale(0.015625)"/>
       <path id="DejaVuSans-61" d="M 2194 1759 
Q 1497 1759 1228 1600 
Q 959 1441 959 1056 
Q 959 750 1161 570 
Q 1363 391 1709 391 
Q 2188 391 2477 730 
Q 2766 1069 2766 1631 
L 2766 1759 
L 2194 1759 
z
M 3341 1997 
L 3341 0 
L 2766 0 
L 2766 531 
Q 2569 213 2275 61 
Q 1981 -91 1556 -91 
Q 1019 -91 701 211 
Q 384 513 384 1019 
Q 384 1609 779 1909 
Q 1175 2209 1959 2209 
L 2766 2209 
L 2766 2266 
Q 2766 2663 2505 2880 
Q 2244 3097 1772 3097 
Q 1472 3097 1187 3025 
Q 903 2953 641 2809 
L 641 3341 
Q 956 3463 1253 3523 
Q 1550 3584 1831 3584 
Q 2591 3584 2966 3190 
Q 3341 2797 3341 1997 
z
" transform="scale(0.015625)"/>
       <path id="DejaVuSans-69" d="M 603 3500 
L 1178 3500 
L 1178 0 
L 603 0 
L 603 3500 
z
M 603 4863 
L 1178 4863 
L 1178 4134 
L 603 4134 
L 603 4863 
z
" transform="scale(0.015625)"/>
       <path id="DejaVuSans-73" d="M 2834 3397 
L 2834 2853 
Q 2591 2978 2328 3040 
Q 2066 3103 1784 3103 
Q 1356 3103 1142 2972 
Q 928 2841 928 2578 
Q 928 2378 1081 2264 
Q 1234 2150 1697 2047 
L 1894 2003 
Q 2506 1872 2764 1633 
Q 3022 1394 3022 966 
Q 3022 478 2636 193 
Q 2250 -91 1575 -91 
Q 1294 -91 989 -36 
Q 684 19 347 128 
L 347 722 
Q 666 556 975 473 
Q 1284 391 1588 391 
Q 1994 391 2212 530 
Q 2431 669 2431 922 
Q 2431 1156 2273 1281 
Q 2116 1406 1581 1522 
L 1381 1569 
Q 847 1681 609 1914 
Q 372 2147 372 2553 
Q 372 3047 722 3315 
Q 1072 3584 1716 3584 
Q 2034 3584 2315 3537 
Q 2597 3491 2834 3397 
z
" transform="scale(0.015625)"/>
      </defs>
      <use xlink:href="#DejaVuSans-46"/>
      <use xlink:href="#DejaVuSans-6f" x="53.894531"/>
      <use xlink:href="#DejaVuSans-72" x="115.076172"/>
      <use xlink:href="#DejaVuSans-63" x="153.939453"/>
      <use xlink:href="#DejaVuSans-65" x="208.919922"/>
      <use xlink:href="#DejaVuSans-20" x="270.443359"/>
      <use xlink:href="#DejaVuSans-55" x="302.230469"/>
      <use xlink:href="#DejaVuSans-6e" x="375.423828"/>
      <use xlink:href="#DejaVuSans-63" x="438.802734"/>
      <use xlink:href="#DejaVuSans-65" x="493.783203"/>
      <use xlink:href="#DejaVuSans-72" x="555.306641"/>
      <use xlink:href="#DejaVuSans-74" x="596.419922"/>
      <use xlink:href="#DejaVuSans-61" x="635.628906"/>
      <use xlink:href="#DejaVuSans-69" x="696.908203"/>
      <use xlink:href="#DejaVuSans-6e" x="724.691406"/>
      <use xlink:href="#DejaVuSans-74" x="788.070312"/>
      <use xlink:href="#DejaVuSans-69" x="827.279297"/>
      <use xlink:href="#DejaVuSans-65" x="855.0625"/>
      <use xlink:href="#DejaVuSans-73" x="916.585938"/>
     </g>
    </g>
   </g>
   <g id="matplotlib.axis_2">
    <g id="ytick_1">
     <g id="line2d_7">
      <defs>
       <path id="m329f46905e" d="M 0 0 
L -3.5 0 
" style="stroke: #000000; stroke-width: 0.8"/>
      </defs>
      <g>
       <use xlink:href="#m329f46905e" x="97.76" y="486.770939" style="stroke: #000000; stroke-width: 0.8"/>
      </g>
     </g>
     <g id="text_8">
      <!-- 0 -->
      <g transform="translate(76.7625 495.12922) scale(0.22 -0.22)">
       <use xlink:href="#DejaVuSans-30"/>
      </g>
     </g>
    </g>
    <g id="ytick_2">
     <g id="line2d_8">
      <g>
       <use xlink:href="#m329f46905e" x="97.76" y="408.194058" style="stroke: #000000; stroke-width: 0.8"/>
      </g>
     </g>
     <g id="text_9">
      <!-- 20 -->
      <g transform="translate(62.765 416.552339) scale(0.22 -0.22)">
       <use xlink:href="#DejaVuSans-32"/>
       <use xlink:href="#DejaVuSans-30" x="63.623047"/>
      </g>
     </g>
    </g>
    <g id="ytick_3">
     <g id="line2d_9">
      <g>
       <use xlink:href="#m329f46905e" x="97.76" y="329.617177" style="stroke: #000000; stroke-width: 0.8"/>
      </g>
     </g>
     <g id="text_10">
      <!-- 40 -->
      <g transform="translate(62.765 337.975458) scale(0.22 -0.22)">
       <use xlink:href="#DejaVuSans-34"/>
       <use xlink:href="#DejaVuSans-30" x="63.623047"/>
      </g>
     </g>
    </g>
    <g id="ytick_4">
     <g id="line2d_10">
      <g>
       <use xlink:href="#m329f46905e" x="97.76" y="251.040296" style="stroke: #000000; stroke-width: 0.8"/>
      </g>
     </g>
     <g id="text_11">
      <!-- 60 -->
      <g transform="translate(62.765 259.398577) scale(0.22 -0.22)">
       <use xlink:href="#DejaVuSans-36"/>
       <use xlink:href="#DejaVuSans-30" x="63.623047"/>
      </g>
     </g>
    </g>
    <g id="ytick_5">
     <g id="line2d_11">
      <g>
       <use xlink:href="#m329f46905e" x="97.76" y="172.463414" style="stroke: #000000; stroke-width: 0.8"/>
      </g>
     </g>
     <g id="text_12">
      <!-- 80 -->
      <g transform="translate(62.765 180.821696) scale(0.22 -0.22)">
       <use xlink:href="#DejaVuSans-38"/>
       <use xlink:href="#DejaVuSans-30" x="63.623047"/>
      </g>
     </g>
    </g>
    <g id="ytick_6">
     <g id="line2d_12">
      <g>
       <use xlink:href="#m329f46905e" x="97.76" y="93.886533" style="stroke: #000000; stroke-width: 0.8"/>
      </g>
     </g>
     <g id="text_13">
      <!-- 100 -->
      <g transform="translate(48.7675 102.244815) scale(0.22 -0.22)">
       <use xlink:href="#DejaVuSans-31"/>
       <use xlink:href="#DejaVuSans-30" x="63.623047"/>
       <use xlink:href="#DejaVuSans-30" x="127.246094"/>
      </g>
     </g>
    </g>
    <g id="text_14">
     <!-- Force Errors [kJ/(mol*A)] -->
     <g transform="translate(40.192188 394.9125) rotate(-90) scale(0.22 -0.22)">
      <defs>
       <path id="DejaVuSans-45" d="M 628 4666 
L 3578 4666 
L 3578 4134 
L 1259 4134 
L 1259 2753 
L 3481 2753 
L 3481 2222 
L 1259 2222 
L 1259 531 
L 3634 531 
L 3634 0 
L 628 0 
L 628 4666 
z
" transform="scale(0.015625)"/>
       <path id="DejaVuSans-5b" d="M 550 4863 
L 1875 4863 
L 1875 4416 
L 1125 4416 
L 1125 -397 
L 1875 -397 
L 1875 -844 
L 550 -844 
L 550 4863 
z
" transform="scale(0.015625)"/>
       <path id="DejaVuSans-6b" d="M 581 4863 
L 1159 4863 
L 1159 1991 
L 2875 3500 
L 3609 3500 
L 1753 1863 
L 3688 0 
L 2938 0 
L 1159 1709 
L 1159 0 
L 581 0 
L 581 4863 
z
" transform="scale(0.015625)"/>
       <path id="DejaVuSans-4a" d="M 628 4666 
L 1259 4666 
L 1259 325 
Q 1259 -519 939 -900 
Q 619 -1281 -91 -1281 
L -331 -1281 
L -331 -750 
L -134 -750 
Q 284 -750 456 -515 
Q 628 -281 628 325 
L 628 4666 
z
" transform="scale(0.015625)"/>
       <path id="DejaVuSans-2f" d="M 1625 4666 
L 2156 4666 
L 531 -594 
L 0 -594 
L 1625 4666 
z
" transform="scale(0.015625)"/>
       <path id="DejaVuSans-28" d="M 1984 4856 
Q 1566 4138 1362 3434 
Q 1159 2731 1159 2009 
Q 1159 1288 1364 580 
Q 1569 -128 1984 -844 
L 1484 -844 
Q 1016 -109 783 600 
Q 550 1309 550 2009 
Q 550 2706 781 3412 
Q 1013 4119 1484 4856 
L 1984 4856 
z
" transform="scale(0.015625)"/>
       <path id="DejaVuSans-6d" d="M 3328 2828 
Q 3544 3216 3844 3400 
Q 4144 3584 4550 3584 
Q 5097 3584 5394 3201 
Q 5691 2819 5691 2113 
L 5691 0 
L 5113 0 
L 5113 2094 
Q 5113 2597 4934 2840 
Q 4756 3084 4391 3084 
Q 3944 3084 3684 2787 
Q 3425 2491 3425 1978 
L 3425 0 
L 2847 0 
L 2847 2094 
Q 2847 2600 2669 2842 
Q 2491 3084 2119 3084 
Q 1678 3084 1418 2786 
Q 1159 2488 1159 1978 
L 1159 0 
L 581 0 
L 581 3500 
L 1159 3500 
L 1159 2956 
Q 1356 3278 1631 3431 
Q 1906 3584 2284 3584 
Q 2666 3584 2933 3390 
Q 3200 3197 3328 2828 
z
" transform="scale(0.015625)"/>
       <path id="DejaVuSans-6c" d="M 603 4863 
L 1178 4863 
L 1178 0 
L 603 0 
L 603 4863 
z
" transform="scale(0.015625)"/>
       <path id="DejaVuSans-2a" d="M 3009 3897 
L 1888 3291 
L 3009 2681 
L 2828 2375 
L 1778 3009 
L 1778 1831 
L 1422 1831 
L 1422 3009 
L 372 2375 
L 191 2681 
L 1313 3291 
L 191 3897 
L 372 4206 
L 1422 3572 
L 1422 4750 
L 1778 4750 
L 1778 3572 
L 2828 4206 
L 3009 3897 
z
" transform="scale(0.015625)"/>
       <path id="DejaVuSans-41" d="M 2188 4044 
L 1331 1722 
L 3047 1722 
L 2188 4044 
z
M 1831 4666 
L 2547 4666 
L 4325 0 
L 3669 0 
L 3244 1197 
L 1141 1197 
L 716 0 
L 50 0 
L 1831 4666 
z
" transform="scale(0.015625)"/>
       <path id="DejaVuSans-29" d="M 513 4856 
L 1013 4856 
Q 1481 4119 1714 3412 
Q 1947 2706 1947 2009 
Q 1947 1309 1714 600 
Q 1481 -109 1013 -844 
L 513 -844 
Q 928 -128 1133 580 
Q 1338 1288 1338 2009 
Q 1338 2731 1133 3434 
Q 928 4138 513 4856 
z
" transform="scale(0.015625)"/>
       <path id="DejaVuSans-5d" d="M 1947 4863 
L 1947 -844 
L 622 -844 
L 622 -397 
L 1369 -397 
L 1369 4416 
L 622 4416 
L 622 4863 
L 1947 4863 
z
" transform="scale(0.015625)"/>
      </defs>
      <use xlink:href="#DejaVuSans-46"/>
      <use xlink:href="#DejaVuSans-6f" x="53.894531"/>
      <use xlink:href="#DejaVuSans-72" x="115.076172"/>
      <use xlink:href="#DejaVuSans-63" x="153.939453"/>
      <use xlink:href="#DejaVuSans-65" x="208.919922"/>
      <use xlink:href="#DejaVuSans-20" x="270.443359"/>
      <use xlink:href="#DejaVuSans-45" x="302.230469"/>
      <use xlink:href="#DejaVuSans-72" x="365.414062"/>
      <use xlink:href="#DejaVuSans-72" x="404.777344"/>
      <use xlink:href="#DejaVuSans-6f" x="443.640625"/>
      <use xlink:href="#DejaVuSans-72" x="504.822266"/>
      <use xlink:href="#DejaVuSans-73" x="545.935547"/>
      <use xlink:href="#DejaVuSans-20" x="598.035156"/>
      <use xlink:href="#DejaVuSans-5b" x="629.822266"/>
      <use xlink:href="#DejaVuSans-6b" x="668.835938"/>
      <use xlink:href="#DejaVuSans-4a" x="726.746094"/>
      <use xlink:href="#DejaVuSans-2f" x="756.238281"/>
      <use xlink:href="#DejaVuSans-28" x="789.929688"/>
      <use xlink:href="#DejaVuSans-6d" x="828.943359"/>
      <use xlink:href="#DejaVuSans-6f" x="926.355469"/>
      <use xlink:href="#DejaVuSans-6c" x="987.537109"/>
      <use xlink:href="#DejaVuSans-2a" x="1015.320312"/>
      <use xlink:href="#DejaVuSans-41" x="1065.320312"/>
      <use xlink:href="#DejaVuSans-29" x="1133.728516"/>
      <use xlink:href="#DejaVuSans-5d" x="1172.742188"/>
     </g>
    </g>
   </g>
   <g id="line2d_13">
    <path d="M 97.76 499.48 
L 696.24 23.76 
" clip-path="url(#pf298f9ae1e)" style="fill: none; stroke-dasharray: 5.55,2.4; stroke-dashoffset: 0; stroke: #ff0000; stroke-width: 1.5"/>
   </g>
   <g id="patch_3">
    <path d="M 97.76 499.48 
L 97.76 23.76 
" style="fill: none; stroke: #000000; stroke-width: 0.8; stroke-linejoin: miter; stroke-linecap: square"/>
   </g>
   <g id="patch_4">
    <path d="M 696.24 499.48 
L 696.24 23.76 
" style="fill: none; stroke: #000000; stroke-width: 0.8; stroke-linejoin: miter; stroke-linecap: square"/>
   </g>
   <g id="patch_5">
    <path d="M 97.76 499.48 
L 696.24 499.48 
" style="fill: none; stroke: #000000; stroke-width: 0.8; stroke-linejoin: miter; stroke-linecap: square"/>
   </g>
   <g id="patch_6">
    <path d="M 97.76 23.76 
L 696.24 23.76 
" style="fill: none; stroke: #000000; stroke-width: 0.8; stroke-linejoin: miter; stroke-linecap: square"/>
   </g>
   <g id="text_15">
    <!-- Correlation in: 0.879 -->
    <g transform="translate(145.6384 46.696812) scale(0.22 -0.22)">
     <defs>
      <path id="DejaVuSans-43" d="M 4122 4306 
L 4122 3641 
Q 3803 3938 3442 4084 
Q 3081 4231 2675 4231 
Q 1875 4231 1450 3742 
Q 1025 3253 1025 2328 
Q 1025 1406 1450 917 
Q 1875 428 2675 428 
Q 3081 428 3442 575 
Q 3803 722 4122 1019 
L 4122 359 
Q 3791 134 3420 21 
Q 3050 -91 2638 -91 
Q 1578 -91 968 557 
Q 359 1206 359 2328 
Q 359 3453 968 4101 
Q 1578 4750 2638 4750 
Q 3056 4750 3426 4639 
Q 3797 4528 4122 4306 
z
" transform="scale(0.015625)"/>
      <path id="DejaVuSans-3a" d="M 750 794 
L 1409 794 
L 1409 0 
L 750 0 
L 750 794 
z
M 750 3309 
L 1409 3309 
L 1409 2516 
L 750 2516 
L 750 3309 
z
" transform="scale(0.015625)"/>
      <path id="DejaVuSans-2e" d="M 684 794 
L 1344 794 
L 1344 0 
L 684 0 
L 684 794 
z
" transform="scale(0.015625)"/>
      <path id="DejaVuSans-37" d="M 525 4666 
L 3525 4666 
L 3525 4397 
L 1831 0 
L 1172 0 
L 2766 4134 
L 525 4134 
L 525 4666 
z
" transform="scale(0.015625)"/>
      <path id="DejaVuSans-39" d="M 703 97 
L 703 672 
Q 941 559 1184 500 
Q 1428 441 1663 441 
Q 2288 441 2617 861 
Q 2947 1281 2994 2138 
Q 2813 1869 2534 1725 
Q 2256 1581 1919 1581 
Q 1219 1581 811 2004 
Q 403 2428 403 3163 
Q 403 3881 828 4315 
Q 1253 4750 1959 4750 
Q 2769 4750 3195 4129 
Q 3622 3509 3622 2328 
Q 3622 1225 3098 567 
Q 2575 -91 1691 -91 
Q 1453 -91 1209 -44 
Q 966 3 703 97 
z
M 1959 2075 
Q 2384 2075 2632 2365 
Q 2881 2656 2881 3163 
Q 2881 3666 2632 3958 
Q 2384 4250 1959 4250 
Q 1534 4250 1286 3958 
Q 1038 3666 1038 3163 
Q 1038 2656 1286 2365 
Q 1534 2075 1959 2075 
z
" transform="scale(0.015625)"/>
     </defs>
     <use xlink:href="#DejaVuSans-43"/>
     <use xlink:href="#DejaVuSans-6f" x="69.824219"/>
     <use xlink:href="#DejaVuSans-72" x="131.005859"/>
     <use xlink:href="#DejaVuSans-72" x="170.369141"/>
     <use xlink:href="#DejaVuSans-65" x="209.232422"/>
     <use xlink:href="#DejaVuSans-6c" x="270.755859"/>
     <use xlink:href="#DejaVuSans-61" x="298.539062"/>
     <use xlink:href="#DejaVuSans-74" x="359.818359"/>
     <use xlink:href="#DejaVuSans-69" x="399.027344"/>
     <use xlink:href="#DejaVuSans-6f" x="426.810547"/>
     <use xlink:href="#DejaVuSans-6e" x="487.992188"/>
     <use xlink:href="#DejaVuSans-20" x="551.371094"/>
     <use xlink:href="#DejaVuSans-69" x="583.158203"/>
     <use xlink:href="#DejaVuSans-6e" x="610.941406"/>
     <use xlink:href="#DejaVuSans-3a" x="674.320312"/>
     <use xlink:href="#DejaVuSans-20" x="708.011719"/>
     <use xlink:href="#DejaVuSans-30" x="739.798828"/>
     <use xlink:href="#DejaVuSans-2e" x="803.421875"/>
     <use xlink:href="#DejaVuSans-38" x="835.208984"/>
     <use xlink:href="#DejaVuSans-37" x="898.832031"/>
     <use xlink:href="#DejaVuSans-39" x="962.455078"/>
    </g>
    <!-- Correlation Out: 0.297 -->
    <g transform="translate(145.6384 71.332) scale(0.22 -0.22)">
     <defs>
      <path id="DejaVuSans-4f" d="M 2522 4238 
Q 1834 4238 1429 3725 
Q 1025 3213 1025 2328 
Q 1025 1447 1429 934 
Q 1834 422 2522 422 
Q 3209 422 3611 934 
Q 4013 1447 4013 2328 
Q 4013 3213 3611 3725 
Q 3209 4238 2522 4238 
z
M 2522 4750 
Q 3503 4750 4090 4092 
Q 4678 3434 4678 2328 
Q 4678 1225 4090 567 
Q 3503 -91 2522 -91 
Q 1538 -91 948 565 
Q 359 1222 359 2328 
Q 359 3434 948 4092 
Q 1538 4750 2522 4750 
z
" transform="scale(0.015625)"/>
      <path id="DejaVuSans-75" d="M 544 1381 
L 544 3500 
L 1119 3500 
L 1119 1403 
Q 1119 906 1312 657 
Q 1506 409 1894 409 
Q 2359 409 2629 706 
Q 2900 1003 2900 1516 
L 2900 3500 
L 3475 3500 
L 3475 0 
L 2900 0 
L 2900 538 
Q 2691 219 2414 64 
Q 2138 -91 1772 -91 
Q 1169 -91 856 284 
Q 544 659 544 1381 
z
M 1991 3584 
L 1991 3584 
z
" transform="scale(0.015625)"/>
     </defs>
     <use xlink:href="#DejaVuSans-43"/>
     <use xlink:href="#DejaVuSans-6f" x="69.824219"/>
     <use xlink:href="#DejaVuSans-72" x="131.005859"/>
     <use xlink:href="#DejaVuSans-72" x="170.369141"/>
     <use xlink:href="#DejaVuSans-65" x="209.232422"/>
     <use xlink:href="#DejaVuSans-6c" x="270.755859"/>
     <use xlink:href="#DejaVuSans-61" x="298.539062"/>
     <use xlink:href="#DejaVuSans-74" x="359.818359"/>
     <use xlink:href="#DejaVuSans-69" x="399.027344"/>
     <use xlink:href="#DejaVuSans-6f" x="426.810547"/>
     <use xlink:href="#DejaVuSans-6e" x="487.992188"/>
     <use xlink:href="#DejaVuSans-20" x="551.371094"/>
     <use xlink:href="#DejaVuSans-4f" x="583.158203"/>
     <use xlink:href="#DejaVuSans-75" x="661.869141"/>
     <use xlink:href="#DejaVuSans-74" x="725.248047"/>
     <use xlink:href="#DejaVuSans-3a" x="764.457031"/>
     <use xlink:href="#DejaVuSans-20" x="798.148438"/>
     <use xlink:href="#DejaVuSans-30" x="829.935547"/>
     <use xlink:href="#DejaVuSans-2e" x="893.558594"/>
     <use xlink:href="#DejaVuSans-32" x="925.345703"/>
     <use xlink:href="#DejaVuSans-39" x="988.96875"/>
     <use xlink:href="#DejaVuSans-37" x="1052.591797"/>
    </g>
   </g>
   <g id="legend_1">
    <g id="patch_7">
     <path d="M 407.0225 105.94375 
L 680.84 105.94375 
Q 685.24 105.94375 685.24 101.54375 
L 685.24 39.16 
Q 685.24 34.76 680.84 34.76 
L 407.0225 34.76 
Q 402.6225 34.76 402.6225 39.16 
L 402.6225 101.54375 
Q 402.6225 105.94375 407.0225 105.94375 
z
" style="fill: #ffffff; opacity: 0.8; stroke: #cccccc; stroke-linejoin: miter"/>
    </g>
    <g id="line2d_14">
     <defs>
      <path id="mbb7387c7d9" d="M 0 2.5 
C 0.663008 2.5 1.29895 2.236584 1.767767 1.767767 
C 2.236584 1.29895 2.5 0.663008 2.5 0 
C 2.5 -0.663008 2.236584 -1.29895 1.767767 -1.767767 
C 1.29895 -2.236584 0.663008 -2.5 0 -2.5 
C -0.663008 -2.5 -1.29895 -2.236584 -1.767767 -1.767767 
C -2.236584 -1.29895 -2.5 -0.663008 -2.5 0 
C -2.5 0.663008 -2.236584 1.29895 -1.767767 1.767767 
C -1.29895 2.236584 -0.663008 2.5 0 2.5 
z
" style="stroke: #ffffff"/>
     </defs>
     <g>
      <use xlink:href="#mbb7387c7d9" x="433.4225" y="52.576562" style="fill: #0000ff; stroke: #ffffff"/>
     </g>
    </g>
    <g id="text_16">
     <!-- In Distribution -->
     <g transform="translate(473.0225 60.276562) scale(0.22 -0.22)">
      <defs>
       <path id="DejaVuSans-49" d="M 628 4666 
L 1259 4666 
L 1259 0 
L 628 0 
L 628 4666 
z
" transform="scale(0.015625)"/>
       <path id="DejaVuSans-44" d="M 1259 4147 
L 1259 519 
L 2022 519 
Q 2988 519 3436 956 
Q 3884 1394 3884 2338 
Q 3884 3275 3436 3711 
Q 2988 4147 2022 4147 
L 1259 4147 
z
M 628 4666 
L 1925 4666 
Q 3281 4666 3915 4102 
Q 4550 3538 4550 2338 
Q 4550 1131 3912 565 
Q 3275 0 1925 0 
L 628 0 
L 628 4666 
z
" transform="scale(0.015625)"/>
       <path id="DejaVuSans-62" d="M 3116 1747 
Q 3116 2381 2855 2742 
Q 2594 3103 2138 3103 
Q 1681 3103 1420 2742 
Q 1159 2381 1159 1747 
Q 1159 1113 1420 752 
Q 1681 391 2138 391 
Q 2594 391 2855 752 
Q 3116 1113 3116 1747 
z
M 1159 2969 
Q 1341 3281 1617 3432 
Q 1894 3584 2278 3584 
Q 2916 3584 3314 3078 
Q 3713 2572 3713 1747 
Q 3713 922 3314 415 
Q 2916 -91 2278 -91 
Q 1894 -91 1617 61 
Q 1341 213 1159 525 
L 1159 0 
L 581 0 
L 581 4863 
L 1159 4863 
L 1159 2969 
z
" transform="scale(0.015625)"/>
      </defs>
      <use xlink:href="#DejaVuSans-49"/>
      <use xlink:href="#DejaVuSans-6e" x="29.492188"/>
      <use xlink:href="#DejaVuSans-20" x="92.871094"/>
      <use xlink:href="#DejaVuSans-44" x="124.658203"/>
      <use xlink:href="#DejaVuSans-69" x="201.660156"/>
      <use xlink:href="#DejaVuSans-73" x="229.443359"/>
      <use xlink:href="#DejaVuSans-74" x="281.542969"/>
      <use xlink:href="#DejaVuSans-72" x="320.751953"/>
      <use xlink:href="#DejaVuSans-69" x="361.865234"/>
      <use xlink:href="#DejaVuSans-62" x="389.648438"/>
      <use xlink:href="#DejaVuSans-75" x="453.125"/>
      <use xlink:href="#DejaVuSans-74" x="516.503906"/>
      <use xlink:href="#DejaVuSans-69" x="555.712891"/>
      <use xlink:href="#DejaVuSans-6f" x="583.496094"/>
      <use xlink:href="#DejaVuSans-6e" x="644.677734"/>
     </g>
    </g>
    <g id="line2d_15">
     <defs>
      <path id="m25e258b069" d="M 0 2.5 
C 0.663008 2.5 1.29895 2.236584 1.767767 1.767767 
C 2.236584 1.29895 2.5 0.663008 2.5 0 
C 2.5 -0.663008 2.236584 -1.29895 1.767767 -1.767767 
C 1.29895 -2.236584 0.663008 -2.5 0 -2.5 
C -0.663008 -2.5 -1.29895 -2.236584 -1.767767 -1.767767 
C -2.236584 -1.29895 -2.5 -0.663008 -2.5 0 
C -2.5 0.663008 -2.236584 1.29895 -1.767767 1.767767 
C -1.29895 2.236584 -0.663008 2.5 0 2.5 
z
" style="stroke: #ffffff"/>
     </defs>
     <g>
      <use xlink:href="#m25e258b069" x="433.4225" y="84.868437" style="fill: #008000; stroke: #ffffff"/>
     </g>
    </g>
    <g id="text_17">
     <!-- Out of Distribution -->
     <g transform="translate(473.0225 92.568437) scale(0.22 -0.22)">
      <defs>
       <path id="DejaVuSans-66" d="M 2375 4863 
L 2375 4384 
L 1825 4384 
Q 1516 4384 1395 4259 
Q 1275 4134 1275 3809 
L 1275 3500 
L 2222 3500 
L 2222 3053 
L 1275 3053 
L 1275 0 
L 697 0 
L 697 3053 
L 147 3053 
L 147 3500 
L 697 3500 
L 697 3744 
Q 697 4328 969 4595 
Q 1241 4863 1831 4863 
L 2375 4863 
z
" transform="scale(0.015625)"/>
      </defs>
      <use xlink:href="#DejaVuSans-4f"/>
      <use xlink:href="#DejaVuSans-75" x="78.710938"/>
      <use xlink:href="#DejaVuSans-74" x="142.089844"/>
      <use xlink:href="#DejaVuSans-20" x="181.298828"/>
      <use xlink:href="#DejaVuSans-6f" x="213.085938"/>
      <use xlink:href="#DejaVuSans-66" x="274.267578"/>
      <use xlink:href="#DejaVuSans-20" x="309.472656"/>
      <use xlink:href="#DejaVuSans-44" x="341.259766"/>
      <use xlink:href="#DejaVuSans-69" x="418.261719"/>
      <use xlink:href="#DejaVuSans-73" x="446.044922"/>
      <use xlink:href="#DejaVuSans-74" x="498.144531"/>
      <use xlink:href="#DejaVuSans-72" x="537.353516"/>
      <use xlink:href="#DejaVuSans-69" x="578.466797"/>
      <use xlink:href="#DejaVuSans-62" x="606.25"/>
      <use xlink:href="#DejaVuSans-75" x="669.726562"/>
      <use xlink:href="#DejaVuSans-74" x="733.105469"/>
      <use xlink:href="#DejaVuSans-69" x="772.314453"/>
      <use xlink:href="#DejaVuSans-6f" x="800.097656"/>
      <use xlink:href="#DejaVuSans-6e" x="861.279297"/>
     </g>
    </g>
   </g>
  </g>
 </g>
 <defs>
  <clipPath id="pf298f9ae1e">
   <rect x="97.76" y="23.76" width="598.48" height="475.72"/>
  </clipPath>
 </defs>
</svg>
