<?xml version="1.0" encoding="utf-8" standalone="no"?>
<!DOCTYPE svg PUBLIC "-//W3C//DTD SVG 1.1//EN"
  "http://www.w3.org/Graphics/SVG/1.1/DTD/svg11.dtd">
<svg xmlns:xlink="http://www.w3.org/1999/xlink" width="720pt" height="576pt" viewBox="0 0 720 576" xmlns="http://www.w3.org/2000/svg" version="1.1">
 <metadata>
  <rdf:RDF xmlns:dc="http://purl.org/dc/elements/1.1/" xmlns:cc="http://creativecommons.org/ns#" xmlns:rdf="http://www.w3.org/1999/02/22-rdf-syntax-ns#">
   <cc:Work>
    <dc:type rdf:resource="http://purl.org/dc/dcmitype/StillImage"/>
    <dc:date>2024-12-07T15:04:01.487829</dc:date>
    <dc:format>image/svg+xml</dc:format>
    <dc:creator>
     <cc:Agent>
      <dc:title>Matplotlib v3.8.4, https://matplotlib.org/</dc:title>
     </cc:Agent>
    </dc:creator>
   </cc:Work>
  </rdf:RDF>
 </metadata>
 <defs>
  <style type="text/css">*{stroke-linejoin: round; stroke-linecap: butt}</style>
 </defs>
 <g id="figure_1">
  <g id="patch_1">
   <path d="M 0 576 
L 720 576 
L 720 0 
L 0 0 
z
" style="fill: #ffffff"/>
  </g>
  <g id="axes_1">
   <g id="patch_2">
    <path d="M 83.72 499.48 
L 691.036567 499.48 
L 691.036567 25.016354 
L 83.72 25.016354 
z
" style="fill: #ffffff"/>
   </g>
   <g id="QuadContourSet_1">
    <path d="M 137.459365 511.342855 
L 140.441459 511.30076 
L 141.667704 511.192812 
L 143.423552 511.097144 
L 146.405646 510.807242 
L 149.38774 510.380881 
L 152.369834 509.787379 
L 155.351927 508.970366 
L 156.689668 508.513009 
L 158.334021 508.134402 
L 161.316115 507.279873 
L 164.298209 506.107525 
L 164.91068 505.833206 
L 167.280302 505.066866 
L 170.262396 503.789447 
L 171.50964 503.153403 
L 173.24449 502.473214 
L 176.226584 500.986958 
L 177.125578 500.4736 
L 179.208677 499.500521 
L 182.008494 497.793797 
L 182.190771 497.69746 
L 185.172865 496.015107 
L 186.505698 495.113994 
L 188.154959 494.085814 
L 190.428958 492.434191 
L 191.137052 491.931185 
L 193.90925 489.754388 
L 194.119146 489.583259 
L 197.052349 487.074585 
L 197.10124 487.028441 
L 199.90347 484.394782 
L 200.083333 484.196208 
L 202.460275 481.714979 
L 203.065427 480.923379 
L 204.672748 479.035177 
L 206.047521 476.869579 
L 206.430087 476.355374 
L 208.003474 473.675571 
L 209.029615 470.995768 
L 209.029615 470.995768 
L 209.902962 468.315965 
L 210.2703 465.636162 
L 210.137547 462.956359 
L 209.400104 460.276556 
L 209.029615 459.551755 
L 208.035637 457.596753 
L 206.047521 455.351127 
L 205.590835 454.91695 
L 203.065427 453.093688 
L 201.343218 452.237147 
L 200.083333 451.647162 
L 197.10124 450.649958 
L 194.119146 450.052958 
L 191.137052 449.72692 
L 188.154959 449.593145 
L 185.172865 449.605652 
L 182.190771 449.74096 
L 179.208677 449.992555 
L 176.226584 450.368477 
L 173.24449 450.89134 
L 170.262396 451.600702 
L 168.175452 452.237147 
L 167.280302 452.43103 
L 164.298209 453.200697 
L 161.316115 454.225937 
L 159.643119 454.91695 
L 158.334021 455.330321 
L 155.351927 456.424568 
L 152.749326 457.596753 
L 152.369834 457.735956 
L 149.38774 458.778165 
L 146.405646 459.84281 
L 144.239494 460.276556 
L 143.423552 460.422854 
L 142.106201 460.276556 
L 140.441459 459.977142 
L 137.459365 458.099315 
L 136.895264 457.596753 
L 134.477271 455.731262 
L 133.297443 454.91695 
L 131.495177 453.843758 
L 128.513084 452.564931 
L 127.371481 452.237147 
L 125.53099 451.676243 
L 122.548896 451.125104 
L 119.566802 450.892755 
L 116.584709 450.919241 
L 113.602615 451.178291 
L 110.620521 451.673699 
L 108.380915 452.237147 
L 107.638427 452.370646 
L 104.656334 453.080896 
L 101.67424 454.057503 
L 99.658994 454.91695 
L 98.692146 455.234849 
L 95.710052 456.431833 
L 93.497449 457.596753 
L 92.727959 457.927631 
L 89.745865 459.452312 
L 88.420669 460.276556 
L 86.763771 461.168761 
L 84.107553 462.956359 
L 83.781678 463.153998 
L 80.799584 465.191258 
L 80.219353 465.636162 
L 77.81749 467.397828 
L 76.700585 468.315965 
L 74.835396 469.846676 
L 73.531084 470.995768 
L 71.853303 472.539734 
L 70.651602 473.675571 
L 68.871209 475.519815 
L 68.049441 476.355374 
L 65.889115 478.888584 
L 65.755687 479.035177 
L 63.531158 481.714979 
L 62.907021 482.663819 
L 61.592207 484.394782 
L 60.069955 487.074585 
L 59.924928 487.399018 
L 58.600633 489.754388 
L 57.596333 492.434191 
L 56.993753 495.113994 
L 56.942834 495.747651 
L 56.707701 497.793797 
L 56.942834 499.833359 
L 57.00652 500.4736 
L 57.970795 503.153403 
L 59.924928 505.542957 
L 60.227774 505.833206 
L 62.907021 507.612091 
L 65.294236 508.513009 
L 65.889115 508.725125 
L 68.871209 509.409213 
L 71.853303 509.708758 
L 74.835396 509.733135 
L 77.81749 509.533788 
L 80.799584 509.121594 
L 83.610632 508.513009 
L 83.781678 508.488263 
L 86.763771 507.929303 
L 89.745865 507.18012 
L 92.727959 506.164496 
L 93.562513 505.833206 
L 95.710052 505.214271 
L 98.692146 504.13994 
L 100.914343 503.153403 
L 101.67424 502.890903 
L 104.656334 501.813002 
L 107.638427 500.531362 
L 107.825652 500.4736 
L 110.620521 499.735357 
L 113.602615 499.405627 
L 116.388282 500.4736 
L 116.584709 500.603945 
L 118.586618 503.153403 
L 119.566802 504.242304 
L 120.954604 505.833206 
L 122.548896 507.152095 
L 124.728271 508.513009 
L 125.53099 508.942346 
L 128.513084 510.123347 
L 131.495177 510.80362 
L 134.477271 511.158496 
L 135.185962 511.192812 
z
M 77.254409 503.153403 
L 74.835396 502.924735 
L 71.853303 502.147785 
L 68.871209 500.500479 
L 68.836633 500.4736 
L 66.675568 497.793797 
L 65.959598 495.113994 
L 66.037666 492.434191 
L 66.655804 489.754388 
L 67.767284 487.074585 
L 68.871209 485.267429 
L 69.333279 484.394782 
L 71.207184 481.714979 
L 71.853303 480.958871 
L 73.404986 479.035177 
L 74.835396 477.551388 
L 75.979667 476.355374 
L 77.81749 474.646499 
L 78.906147 473.675571 
L 80.799584 472.084786 
L 82.218109 470.995768 
L 83.781678 469.802522 
L 86.017507 468.315965 
L 86.763771 467.797117 
L 89.745865 465.985062 
L 90.415348 465.636162 
L 92.727959 464.296962 
L 95.710052 462.962184 
L 95.725108 462.956359 
L 98.692146 461.601859 
L 101.67424 460.597881 
L 102.908396 460.276556 
L 104.656334 459.706487 
L 107.638427 459.016549 
L 110.620521 458.597105 
L 113.602615 458.440496 
L 116.584709 458.583701 
L 119.566802 459.119681 
L 122.548896 460.22138 
L 122.654231 460.276556 
L 125.53099 462.212289 
L 126.328971 462.956359 
L 128.127301 465.636162 
L 128.513084 466.812289 
L 129.086521 468.315965 
L 129.558888 470.995768 
L 129.736605 473.675571 
L 130.105045 476.355374 
L 131.495177 477.340455 
L 132.761288 476.355374 
L 134.477271 475.590115 
L 137.459365 473.68825 
L 137.475198 473.675571 
L 140.441459 471.637845 
L 141.38186 470.995768 
L 143.423552 469.689263 
L 145.730059 468.315965 
L 146.405646 467.91095 
L 149.38774 466.164705 
L 150.40513 465.636162 
L 152.369834 464.519449 
L 155.351927 463.127789 
L 155.759181 462.956359 
L 158.334021 461.686413 
L 161.316115 460.553607 
L 162.17497 460.276556 
L 164.298209 459.421616 
L 167.280302 458.479383 
L 170.262396 457.770729 
L 171.190306 457.596753 
L 173.24449 457.080292 
L 176.226584 456.545355 
L 179.208677 456.213112 
L 182.190771 456.074878 
L 185.172865 456.148822 
L 188.154959 456.48576 
L 191.137052 457.181936 
L 192.279454 457.596753 
L 194.119146 458.326639 
L 197.10124 460.276556 
L 197.10124 460.276556 
L 199.370746 462.956359 
L 200.083333 464.756191 
L 200.421953 465.636162 
L 200.71986 468.315965 
L 200.360011 470.995768 
L 200.083333 471.772722 
L 199.543228 473.675571 
L 198.27985 476.355374 
L 197.10124 478.075705 
L 196.527096 479.035177 
L 194.361926 481.714979 
L 194.119146 481.967538 
L 191.879779 484.394782 
L 191.137052 485.077622 
L 188.941551 487.074585 
L 188.154959 487.722758 
L 185.529427 489.754388 
L 185.172865 490.020711 
L 182.190771 492.113096 
L 181.688607 492.434191 
L 179.208677 494.065266 
L 177.304394 495.113994 
L 176.226584 495.76315 
L 173.24449 497.321862 
L 172.190653 497.793797 
L 170.262396 498.800461 
L 167.280302 500.054039 
L 166.09642 500.4736 
L 164.298209 501.266013 
L 161.316115 502.32366 
L 158.334021 503.128739 
L 158.225393 503.153403 
L 155.351927 504.023605 
L 152.369834 504.679483 
L 149.38774 505.137117 
L 146.405646 505.419474 
L 143.423552 505.522653 
L 140.441459 505.412974 
L 137.459365 505.01651 
L 134.477271 504.19711 
L 132.23593 503.153403 
L 131.495177 502.719524 
L 128.884089 500.4736 
L 128.513084 499.919621 
L 127.216912 497.793797 
L 126.447659 495.113994 
L 126.19613 492.434191 
L 126.224352 489.754388 
L 126.351789 487.074585 
L 126.19958 484.394782 
L 125.53099 483.500965 
L 124.331773 484.394782 
L 122.548896 485.035905 
L 119.566802 486.919511 
L 119.374655 487.074585 
L 116.584709 488.916415 
L 115.340861 489.754388 
L 113.602615 490.815289 
L 110.804244 492.434191 
L 110.620521 492.538815 
L 107.638427 494.301883 
L 106.045823 495.113994 
L 104.656334 495.87553 
L 101.67424 497.302061 
L 100.481214 497.793797 
L 98.692146 498.646128 
L 95.710052 499.80792 
L 93.568251 500.4736 
L 92.727959 500.796933 
L 89.745865 501.731757 
L 86.763771 502.410892 
L 83.781678 502.88199 
L 80.81624 503.153403 
L 80.799584 503.155443 
L 77.81749 503.208363 
z
" clip-path="url(#p296d551afe)" style="fill: #eef5fc"/>
    <path d="M 77.81749 503.208363 
L 80.799584 503.155443 
L 80.81624 503.153403 
L 83.781678 502.88199 
L 86.763771 502.410892 
L 89.745865 501.731757 
L 92.727959 500.796933 
L 93.568251 500.4736 
L 95.710052 499.80792 
L 98.692146 498.646128 
L 100.481214 497.793797 
L 101.67424 497.302061 
L 104.656334 495.87553 
L 106.045823 495.113994 
L 107.638427 494.301883 
L 110.620521 492.538815 
L 110.804244 492.434191 
L 113.602615 490.815289 
L 115.340861 489.754388 
L 116.584709 488.916415 
L 119.374655 487.074585 
L 119.566802 486.919511 
L 122.548896 485.035905 
L 124.331773 484.394782 
L 125.53099 483.500965 
L 126.19958 484.394782 
L 126.351789 487.074585 
L 126.224352 489.754388 
L 126.19613 492.434191 
L 126.447659 495.113994 
L 127.216912 497.793797 
L 128.513084 499.919621 
L 128.884089 500.4736 
L 131.495177 502.719524 
L 132.23593 503.153403 
L 134.477271 504.19711 
L 137.459365 505.01651 
L 140.441459 505.412974 
L 143.423552 505.522653 
L 146.405646 505.419474 
L 149.38774 505.137117 
L 152.369834 504.679483 
L 155.351927 504.023605 
L 158.225393 503.153403 
L 158.334021 503.128739 
L 161.316115 502.32366 
L 164.298209 501.266013 
L 166.09642 500.4736 
L 167.280302 500.054039 
L 170.262396 498.800461 
L 172.190653 497.793797 
L 173.24449 497.321862 
L 176.226584 495.76315 
L 177.304394 495.113994 
L 179.208677 494.065266 
L 181.688607 492.434191 
L 182.190771 492.113096 
L 185.172865 490.020711 
L 185.529427 489.754388 
L 188.154959 487.722758 
L 188.941551 487.074585 
L 191.137052 485.077622 
L 191.879779 484.394782 
L 194.119146 481.967538 
L 194.361926 481.714979 
L 196.527096 479.035177 
L 197.10124 478.075705 
L 198.27985 476.355374 
L 199.543228 473.675571 
L 200.083333 471.772722 
L 200.360011 470.995768 
L 200.71986 468.315965 
L 200.421953 465.636162 
L 200.083333 464.756191 
L 199.370746 462.956359 
L 197.10124 460.276556 
L 197.10124 460.276556 
L 194.119146 458.326639 
L 192.279454 457.596753 
L 191.137052 457.181936 
L 188.154959 456.48576 
L 185.172865 456.148822 
L 182.190771 456.074878 
L 179.208677 456.213112 
L 176.226584 456.545355 
L 173.24449 457.080292 
L 171.190306 457.596753 
L 170.262396 457.770729 
L 167.280302 458.479383 
L 164.298209 459.421616 
L 162.17497 460.276556 
L 161.316115 460.553607 
L 158.334021 461.686413 
L 155.759181 462.956359 
L 155.351927 463.127789 
L 152.369834 464.519449 
L 150.40513 465.636162 
L 149.38774 466.164705 
L 146.405646 467.91095 
L 145.730059 468.315965 
L 143.423552 469.689263 
L 141.38186 470.995768 
L 140.441459 471.637845 
L 137.475198 473.675571 
L 137.459365 473.68825 
L 134.477271 475.590115 
L 132.761288 476.355374 
L 131.495177 477.340455 
L 130.105045 476.355374 
L 129.736605 473.675571 
L 129.558888 470.995768 
L 129.086521 468.315965 
L 128.513084 466.812289 
L 128.127301 465.636162 
L 126.328971 462.956359 
L 125.53099 462.212289 
L 122.654231 460.276556 
L 122.548896 460.22138 
L 119.566802 459.119681 
L 116.584709 458.583701 
L 113.602615 458.440496 
L 110.620521 458.597105 
L 107.638427 459.016549 
L 104.656334 459.706487 
L 102.908396 460.276556 
L 101.67424 460.597881 
L 98.692146 461.601859 
L 95.725108 462.956359 
L 95.710052 462.962184 
L 92.727959 464.296962 
L 90.415348 465.636162 
L 89.745865 465.985062 
L 86.763771 467.797117 
L 86.017507 468.315965 
L 83.781678 469.802522 
L 82.218109 470.995768 
L 80.799584 472.084786 
L 78.906147 473.675571 
L 77.81749 474.646499 
L 75.979667 476.355374 
L 74.835396 477.551388 
L 73.404986 479.035177 
L 71.853303 480.958871 
L 71.207184 481.714979 
L 69.333279 484.394782 
L 68.871209 485.267429 
L 67.767284 487.074585 
L 66.655804 489.754388 
L 66.037666 492.434191 
L 65.959598 495.113994 
L 66.675568 497.793797 
L 68.836633 500.4736 
L 68.871209 500.500479 
L 71.853303 502.147785 
L 74.835396 502.924735 
L 77.254409 503.153403 
z
M 136.082572 500.4736 
L 134.477271 499.373212 
L 132.886944 497.793797 
L 131.592642 495.113994 
L 131.495177 494.405554 
L 131.203345 492.434191 
L 131.495177 489.862228 
L 131.504781 489.754388 
L 132.207948 487.074585 
L 133.432318 484.394782 
L 134.477271 482.885304 
L 135.188941 481.714979 
L 137.459365 479.093287 
L 137.506275 479.035177 
L 140.188194 476.355374 
L 140.441459 476.144297 
L 143.423552 473.675571 
L 143.423552 473.675571 
L 146.405646 471.439434 
L 147.059099 470.995768 
L 149.38774 469.432764 
L 151.328067 468.315965 
L 152.369834 467.686107 
L 155.351927 466.108289 
L 156.397084 465.636162 
L 158.334021 464.65194 
L 161.316115 463.429596 
L 162.721285 462.956359 
L 164.298209 462.319367 
L 167.280302 461.354623 
L 170.262396 460.633079 
L 172.236596 460.276556 
L 173.24449 460.042354 
L 176.226584 459.576363 
L 179.208677 459.348152 
L 182.190771 459.371345 
L 185.172865 459.699084 
L 187.571657 460.276556 
L 188.154959 460.426185 
L 191.137052 461.733392 
L 192.868868 462.956359 
L 194.119146 464.365815 
L 195.017586 465.636162 
L 195.876544 468.315965 
L 195.902025 470.995768 
L 195.288808 473.675571 
L 194.119146 476.212258 
L 194.063327 476.355374 
L 192.500195 479.035177 
L 191.137052 480.712159 
L 190.381093 481.714979 
L 188.154959 484.017545 
L 187.798752 484.394782 
L 185.172865 486.736156 
L 184.78226 487.074585 
L 182.190771 489.103734 
L 181.28925 489.754388 
L 179.208677 491.205362 
L 177.192553 492.434191 
L 176.226584 493.040865 
L 173.24449 494.69241 
L 172.375105 495.113994 
L 170.262396 496.240757 
L 167.280302 497.522856 
L 166.553621 497.793797 
L 164.298209 498.781383 
L 161.316115 499.811116 
L 158.874831 500.4736 
L 158.334021 500.657704 
L 155.351927 501.471114 
L 152.369834 502.044998 
L 149.38774 502.411153 
L 146.405646 502.56879 
L 143.423552 502.481303 
L 140.441459 502.063545 
L 137.459365 501.15418 
z
M 73.675713 497.793797 
L 71.853303 495.854739 
L 71.367082 495.113994 
L 70.748811 492.434191 
L 71.036856 489.754388 
L 71.853303 487.519259 
L 71.991737 487.074585 
L 73.36048 484.394782 
L 74.835396 482.347989 
L 75.259869 481.714979 
L 77.546988 479.035177 
L 77.81749 478.76145 
L 80.223739 476.355374 
L 80.799584 475.840929 
L 83.37903 473.675571 
L 83.781678 473.354939 
L 86.763771 471.189984 
L 87.062205 470.995768 
L 89.745865 469.230781 
L 91.421754 468.315965 
L 92.727959 467.554804 
L 95.710052 466.118199 
L 96.941925 465.636162 
L 98.692146 464.858708 
L 101.67424 463.838932 
L 104.656334 463.101173 
L 105.548836 462.956359 
L 107.638427 462.543773 
L 110.620521 462.290303 
L 113.602615 462.409749 
L 116.34542 462.956359 
L 116.584709 463.010258 
L 119.566802 464.371391 
L 121.16526 465.636162 
L 122.548896 467.668637 
L 122.910276 468.315965 
L 123.481338 470.995768 
L 123.256293 473.675571 
L 122.548896 475.70191 
L 122.359845 476.355374 
L 121.022304 479.035177 
L 119.566802 480.888545 
L 118.98248 481.714979 
L 116.584709 484.177149 
L 116.38193 484.394782 
L 113.602615 486.801308 
L 113.282196 487.074585 
L 110.620521 489.069485 
L 109.63697 489.754388 
L 107.638427 491.072937 
L 105.285374 492.434191 
L 104.656334 492.803742 
L 101.67424 494.388221 
L 100.044005 495.113994 
L 98.692146 495.770629 
L 95.710052 496.974878 
L 93.13359 497.793797 
L 92.727959 497.944454 
L 89.745865 498.820207 
L 86.763771 499.422579 
L 83.781678 499.769735 
L 80.799584 499.825823 
L 77.81749 499.478882 
L 74.835396 498.485279 
z
" clip-path="url(#p296d551afe)" style="fill: #ddeaf7"/>
    <path d="M 137.459365 501.15418 
L 140.441459 502.063545 
L 143.423552 502.481303 
L 146.405646 502.56879 
L 149.38774 502.411153 
L 152.369834 502.044998 
L 155.351927 501.471114 
L 158.334021 500.657704 
L 158.874831 500.4736 
L 161.316115 499.811116 
L 164.298209 498.781383 
L 166.553621 497.793797 
L 167.280302 497.522856 
L 170.262396 496.240757 
L 172.375105 495.113994 
L 173.24449 494.69241 
L 176.226584 493.040865 
L 177.192553 492.434191 
L 179.208677 491.205362 
L 181.28925 489.754388 
L 182.190771 489.103734 
L 184.78226 487.074585 
L 185.172865 486.736156 
L 187.798752 484.394782 
L 188.154959 484.017545 
L 190.381093 481.714979 
L 191.137052 480.712159 
L 192.500195 479.035177 
L 194.063327 476.355374 
L 194.119146 476.212258 
L 195.288808 473.675571 
L 195.902025 470.995768 
L 195.876544 468.315965 
L 195.017586 465.636162 
L 194.119146 464.365815 
L 192.868868 462.956359 
L 191.137052 461.733392 
L 188.154959 460.426185 
L 187.571657 460.276556 
L 185.172865 459.699084 
L 182.190771 459.371345 
L 179.208677 459.348152 
L 176.226584 459.576363 
L 173.24449 460.042354 
L 172.236596 460.276556 
L 170.262396 460.633079 
L 167.280302 461.354623 
L 164.298209 462.319367 
L 162.721285 462.956359 
L 161.316115 463.429596 
L 158.334021 464.65194 
L 156.397084 465.636162 
L 155.351927 466.108289 
L 152.369834 467.686107 
L 151.328067 468.315965 
L 149.38774 469.432764 
L 147.059099 470.995768 
L 146.405646 471.439434 
L 143.423552 473.675571 
L 143.423552 473.675571 
L 140.441459 476.144297 
L 140.188194 476.355374 
L 137.506275 479.035177 
L 137.459365 479.093287 
L 135.188941 481.714979 
L 134.477271 482.885304 
L 133.432318 484.394782 
L 132.207948 487.074585 
L 131.504781 489.754388 
L 131.495177 489.862228 
L 131.203345 492.434191 
L 131.495177 494.405554 
L 131.592642 495.113994 
L 132.886944 497.793797 
L 134.477271 499.373212 
L 136.082572 500.4736 
z
M 138.507597 497.793797 
L 137.459365 496.915545 
L 135.958623 495.113994 
L 135.100414 492.434191 
L 135.149801 489.754388 
L 135.837093 487.074585 
L 137.148771 484.394782 
L 137.459365 483.947713 
L 138.866887 481.714979 
L 140.441459 479.897686 
L 141.158785 479.035177 
L 143.423552 476.847516 
L 143.94054 476.355374 
L 146.405646 474.309402 
L 147.224377 473.675571 
L 149.38774 472.106533 
L 151.121644 470.995768 
L 152.369834 470.19604 
L 155.351927 468.550826 
L 155.833575 468.315965 
L 158.334021 467.009546 
L 161.316115 465.782497 
L 161.73291 465.636162 
L 164.298209 464.605897 
L 167.280302 463.690201 
L 170.262396 463.002933 
L 170.543102 462.956359 
L 173.24449 462.407177 
L 176.226584 462.061921 
L 179.208677 461.985905 
L 182.190771 462.230136 
L 185.172865 462.90654 
L 185.308397 462.956359 
L 188.154959 464.283871 
L 189.88127 465.636162 
L 191.137052 467.492408 
L 191.586985 468.315965 
L 192.059832 470.995768 
L 191.692007 473.675571 
L 191.137052 475.048421 
L 190.685164 476.355374 
L 189.15666 479.035177 
L 188.154959 480.288127 
L 187.08609 481.714979 
L 185.172865 483.684018 
L 184.491096 484.394782 
L 182.190771 486.401989 
L 181.388613 487.074585 
L 179.208677 488.722343 
L 177.710065 489.754388 
L 176.226584 490.741413 
L 173.279957 492.434191 
L 173.24449 492.455218 
L 170.262396 494.0936 
L 167.961893 495.113994 
L 167.280302 495.447326 
L 164.298209 496.707697 
L 161.316115 497.689229 
L 160.930828 497.793797 
L 158.334021 498.626465 
L 155.351927 499.327256 
L 152.369834 499.803064 
L 149.38774 500.058034 
L 146.405646 500.055967 
L 143.423552 499.705275 
L 140.441459 498.824948 
z
M 74.835396 498.485279 
L 77.81749 499.478882 
L 80.799584 499.825823 
L 83.781678 499.769735 
L 86.763771 499.422579 
L 89.745865 498.820207 
L 92.727959 497.944454 
L 93.13359 497.793797 
L 95.710052 496.974878 
L 98.692146 495.770629 
L 100.044005 495.113994 
L 101.67424 494.388221 
L 104.656334 492.803742 
L 105.285374 492.434191 
L 107.638427 491.072937 
L 109.63697 489.754388 
L 110.620521 489.069485 
L 113.282196 487.074585 
L 113.602615 486.801308 
L 116.38193 484.394782 
L 116.584709 484.177149 
L 118.98248 481.714979 
L 119.566802 480.888545 
L 121.022304 479.035177 
L 122.359845 476.355374 
L 122.548896 475.70191 
L 123.256293 473.675571 
L 123.481338 470.995768 
L 122.910276 468.315965 
L 122.548896 467.668637 
L 121.16526 465.636162 
L 119.566802 464.371391 
L 116.584709 463.010258 
L 116.34542 462.956359 
L 113.602615 462.409749 
L 110.620521 462.290303 
L 107.638427 462.543773 
L 105.548836 462.956359 
L 104.656334 463.101173 
L 101.67424 463.838932 
L 98.692146 464.858708 
L 96.941925 465.636162 
L 95.710052 466.118199 
L 92.727959 467.554804 
L 91.421754 468.315965 
L 89.745865 469.230781 
L 87.062205 470.995768 
L 86.763771 471.189984 
L 83.781678 473.354939 
L 83.37903 473.675571 
L 80.799584 475.840929 
L 80.223739 476.355374 
L 77.81749 478.76145 
L 77.546988 479.035177 
L 75.259869 481.714979 
L 74.835396 482.347989 
L 73.36048 484.394782 
L 71.991737 487.074585 
L 71.853303 487.519259 
L 71.036856 489.754388 
L 70.748811 492.434191 
L 71.367082 495.113994 
L 71.853303 495.854739 
L 73.675713 497.793797 
z
M 77.371268 495.113994 
L 75.334911 492.434191 
L 75.037656 489.754388 
L 75.650519 487.074585 
L 76.91927 484.394782 
L 77.81749 483.11342 
L 78.748203 481.714979 
L 80.799584 479.374933 
L 81.097905 479.035177 
L 83.781678 476.503488 
L 83.947548 476.355374 
L 86.763771 474.10988 
L 87.370638 473.675571 
L 89.745865 472.052039 
L 91.5619 470.995768 
L 92.727959 470.306777 
L 95.710052 468.840138 
L 97.030723 468.315965 
L 98.692146 467.602517 
L 101.67424 466.639095 
L 104.656334 465.976818 
L 107.489677 465.636162 
L 107.638427 465.615493 
L 110.620521 465.636162 
L 110.620521 465.636162 
L 113.602615 466.233488 
L 116.584709 467.833857 
L 117.130354 468.315965 
L 118.635276 470.995768 
L 118.822849 473.675571 
L 118.178745 476.355374 
L 116.807589 479.035177 
L 116.584709 479.328317 
L 114.894864 481.714979 
L 113.602615 483.061468 
L 112.341151 484.394782 
L 110.620521 485.875763 
L 109.167416 487.074585 
L 107.638427 488.190598 
L 105.273061 489.754388 
L 104.656334 490.142947 
L 101.67424 491.827744 
L 100.420953 492.434191 
L 98.692146 493.290472 
L 95.710052 494.494928 
L 93.784392 495.113994 
L 92.727959 495.486429 
L 89.745865 496.252844 
L 86.763771 496.720833 
L 83.781678 496.853459 
L 80.799584 496.517931 
L 77.81749 495.406781 
z
" clip-path="url(#p296d551afe)" style="fill: #cddff1"/>
    <path d="M 140.441459 498.824948 
L 143.423552 499.705275 
L 146.405646 500.055967 
L 149.38774 500.058034 
L 152.369834 499.803064 
L 155.351927 499.327256 
L 158.334021 498.626465 
L 160.930828 497.793797 
L 161.316115 497.689229 
L 164.298209 496.707697 
L 167.280302 495.447326 
L 167.961893 495.113994 
L 170.262396 494.0936 
L 173.24449 492.455218 
L 173.279957 492.434191 
L 176.226584 490.741413 
L 177.710065 489.754388 
L 179.208677 488.722343 
L 181.388613 487.074585 
L 182.190771 486.401989 
L 184.491096 484.394782 
L 185.172865 483.684018 
L 187.08609 481.714979 
L 188.154959 480.288127 
L 189.15666 479.035177 
L 190.685164 476.355374 
L 191.137052 475.048421 
L 191.692007 473.675571 
L 192.059832 470.995768 
L 191.586985 468.315965 
L 191.137052 467.492408 
L 189.88127 465.636162 
L 188.154959 464.283871 
L 185.308397 462.956359 
L 185.172865 462.90654 
L 182.190771 462.230136 
L 179.208677 461.985905 
L 176.226584 462.061921 
L 173.24449 462.407177 
L 170.543102 462.956359 
L 170.262396 463.002933 
L 167.280302 463.690201 
L 164.298209 464.605897 
L 161.73291 465.636162 
L 161.316115 465.782497 
L 158.334021 467.009546 
L 155.833575 468.315965 
L 155.351927 468.550826 
L 152.369834 470.19604 
L 151.121644 470.995768 
L 149.38774 472.106533 
L 147.224377 473.675571 
L 146.405646 474.309402 
L 143.94054 476.355374 
L 143.423552 476.847516 
L 141.158785 479.035177 
L 140.441459 479.897686 
L 138.866887 481.714979 
L 137.459365 483.947713 
L 137.148771 484.394782 
L 135.837093 487.074585 
L 135.149801 489.754388 
L 135.100414 492.434191 
L 135.958623 495.113994 
L 137.459365 496.915545 
L 138.507597 497.793797 
z
M 146.405646 497.793797 
L 146.405646 497.793797 
L 143.423552 497.03949 
L 140.441459 495.336722 
L 140.180943 495.113994 
L 138.529738 492.434191 
L 138.234719 489.754388 
L 138.769219 487.074585 
L 139.986979 484.394782 
L 140.441459 483.731986 
L 141.72582 481.714979 
L 143.423552 479.768037 
L 144.050768 479.035177 
L 146.405646 476.816047 
L 146.912613 476.355374 
L 149.38774 474.385027 
L 150.364108 473.675571 
L 152.369834 472.302146 
L 154.577552 470.995768 
L 155.351927 470.534238 
L 158.334021 468.983184 
L 159.88071 468.315965 
L 161.316115 467.648708 
L 164.298209 466.52193 
L 167.280302 465.655428 
L 167.367666 465.636162 
L 170.262396 464.899351 
L 173.24449 464.414565 
L 176.226584 464.202339 
L 179.208677 464.308993 
L 182.190771 464.848021 
L 184.288907 465.636162 
L 185.172865 466.104557 
L 187.620805 468.315965 
L 188.154959 469.522116 
L 188.688453 470.995768 
L 188.639812 473.675571 
L 188.154959 475.137593 
L 187.804982 476.355374 
L 186.369721 479.035177 
L 185.172865 480.562665 
L 184.31659 481.714979 
L 182.190771 483.88592 
L 181.692636 484.394782 
L 179.208677 486.50073 
L 178.494964 487.074585 
L 176.226584 488.712262 
L 174.620287 489.754388 
L 173.24449 490.615854 
L 170.262396 492.233037 
L 169.845966 492.434191 
L 167.280302 493.714646 
L 164.298209 494.910045 
L 163.692641 495.113994 
L 161.316115 495.999141 
L 158.334021 496.846554 
L 155.351927 497.462293 
L 152.829686 497.793797 
L 152.369834 497.865366 
L 149.38774 498.013255 
z
M 77.81749 495.406781 
L 80.799584 496.517931 
L 83.781678 496.853459 
L 86.763771 496.720833 
L 89.745865 496.252844 
L 92.727959 495.486429 
L 93.784392 495.113994 
L 95.710052 494.494928 
L 98.692146 493.290472 
L 100.420953 492.434191 
L 101.67424 491.827744 
L 104.656334 490.142947 
L 105.273061 489.754388 
L 107.638427 488.190598 
L 109.167416 487.074585 
L 110.620521 485.875763 
L 112.341151 484.394782 
L 113.602615 483.061468 
L 114.894864 481.714979 
L 116.584709 479.328317 
L 116.807589 479.035177 
L 118.178745 476.355374 
L 118.822849 473.675571 
L 118.635276 470.995768 
L 117.130354 468.315965 
L 116.584709 467.833857 
L 113.602615 466.233488 
L 110.620521 465.636162 
L 110.620521 465.636162 
L 107.638427 465.615493 
L 107.489677 465.636162 
L 104.656334 465.976818 
L 101.67424 466.639095 
L 98.692146 467.602517 
L 97.030723 468.315965 
L 95.710052 468.840138 
L 92.727959 470.306777 
L 91.5619 470.995768 
L 89.745865 472.052039 
L 87.370638 473.675571 
L 86.763771 474.10988 
L 83.947548 476.355374 
L 83.781678 476.503488 
L 81.097905 479.035177 
L 80.799584 479.374933 
L 78.748203 481.714979 
L 77.81749 483.11342 
L 76.91927 484.394782 
L 75.650519 487.074585 
L 75.037656 489.754388 
L 75.334911 492.434191 
L 77.371268 495.113994 
z
M 80.401215 492.434191 
L 78.925719 489.754388 
L 79.073601 487.074585 
L 80.137159 484.394782 
L 80.799584 483.411392 
L 81.9092 481.714979 
L 83.781678 479.609467 
L 84.305668 479.035177 
L 86.763771 476.83915 
L 87.350886 476.355374 
L 89.745865 474.605653 
L 91.20523 473.675571 
L 92.727959 472.749935 
L 95.710052 471.248344 
L 96.335031 470.995768 
L 98.692146 470.02615 
L 101.67424 469.144124 
L 104.656334 468.600895 
L 107.638427 468.477953 
L 110.620521 469.018195 
L 113.602615 470.808149 
L 113.784201 470.995768 
L 114.823807 473.675571 
L 114.548248 476.355374 
L 113.602615 478.474183 
L 113.369744 479.035177 
L 111.487707 481.714979 
L 110.620521 482.616881 
L 108.891502 484.394782 
L 107.638427 485.43885 
L 105.538575 487.074585 
L 104.656334 487.681515 
L 101.67424 489.509051 
L 101.216532 489.754388 
L 98.692146 491.039053 
L 95.710052 492.268369 
L 95.191286 492.434191 
L 92.727959 493.235901 
L 89.745865 493.875056 
L 86.763771 494.147034 
L 83.781678 493.897128 
L 80.799584 492.732143 
z
" clip-path="url(#p296d551afe)" style="fill: #b3d3e8"/>
    <path d="M 149.38774 498.013255 
L 152.369834 497.865366 
L 152.829686 497.793797 
L 155.351927 497.462293 
L 158.334021 496.846554 
L 161.316115 495.999141 
L 163.692641 495.113994 
L 164.298209 494.910045 
L 167.280302 493.714646 
L 169.845966 492.434191 
L 170.262396 492.233037 
L 173.24449 490.615854 
L 174.620287 489.754388 
L 176.226584 488.712262 
L 178.494964 487.074585 
L 179.208677 486.50073 
L 181.692636 484.394782 
L 182.190771 483.88592 
L 184.31659 481.714979 
L 185.172865 480.562665 
L 186.369721 479.035177 
L 187.804982 476.355374 
L 188.154959 475.137593 
L 188.639812 473.675571 
L 188.688453 470.995768 
L 188.154959 469.522116 
L 187.620805 468.315965 
L 185.172865 466.104557 
L 184.288907 465.636162 
L 182.190771 464.848021 
L 179.208677 464.308993 
L 176.226584 464.202339 
L 173.24449 464.414565 
L 170.262396 464.899351 
L 167.367666 465.636162 
L 167.280302 465.655428 
L 164.298209 466.52193 
L 161.316115 467.648708 
L 159.88071 468.315965 
L 158.334021 468.983184 
L 155.351927 470.534238 
L 154.577552 470.995768 
L 152.369834 472.302146 
L 150.364108 473.675571 
L 149.38774 474.385027 
L 146.912613 476.355374 
L 146.405646 476.816047 
L 144.050768 479.035177 
L 143.423552 479.768037 
L 141.72582 481.714979 
L 140.441459 483.731986 
L 139.986979 484.394782 
L 138.769219 487.074585 
L 138.234719 489.754388 
L 138.529738 492.434191 
L 140.180943 495.113994 
L 140.441459 495.336722 
L 143.423552 497.03949 
L 146.405646 497.793797 
L 146.405646 497.793797 
z
M 145.600932 495.113994 
L 143.423552 493.820488 
L 142.089365 492.434191 
L 141.230446 489.754388 
L 141.521307 487.074585 
L 142.602308 484.394782 
L 143.423552 483.164725 
L 144.340772 481.714979 
L 146.405646 479.370672 
L 146.701632 479.035177 
L 149.38774 476.597839 
L 149.670637 476.355374 
L 152.369834 474.333176 
L 153.35212 473.675571 
L 155.351927 472.412383 
L 158.005287 470.995768 
L 158.334021 470.818333 
L 161.316115 469.427631 
L 164.298209 468.333796 
L 164.359518 468.315965 
L 167.280302 467.396449 
L 170.262396 466.744762 
L 173.24449 466.367826 
L 176.226584 466.306789 
L 179.208677 466.679165 
L 182.190771 467.731134 
L 183.139606 468.315965 
L 185.172865 470.774911 
L 185.30161 470.995768 
L 185.690553 473.675571 
L 185.172865 475.879959 
L 185.074581 476.355374 
L 183.745557 479.035177 
L 182.190771 481.070202 
L 181.716841 481.714979 
L 179.208677 484.245284 
L 179.058287 484.394782 
L 176.226584 486.702243 
L 175.737098 487.074585 
L 173.24449 488.766447 
L 171.597651 489.754388 
L 170.262396 490.525599 
L 167.280302 492.003942 
L 166.262181 492.434191 
L 164.298209 493.290625 
L 161.316115 494.326387 
L 158.370695 495.113994 
L 158.334021 495.124836 
L 155.351927 495.728305 
L 152.369834 496.025597 
L 149.38774 495.965833 
L 146.405646 495.416132 
z
M 80.799584 492.732143 
L 83.781678 493.897128 
L 86.763771 494.147034 
L 89.745865 493.875056 
L 92.727959 493.235901 
L 95.191286 492.434191 
L 95.710052 492.268369 
L 98.692146 491.039053 
L 101.216532 489.754388 
L 101.67424 489.509051 
L 104.656334 487.681515 
L 105.538575 487.074585 
L 107.638427 485.43885 
L 108.891502 484.394782 
L 110.620521 482.616881 
L 111.487707 481.714979 
L 113.369744 479.035177 
L 113.602615 478.474183 
L 114.548248 476.355374 
L 114.823807 473.675571 
L 113.784201 470.995768 
L 113.602615 470.808149 
L 110.620521 469.018195 
L 107.638427 468.477953 
L 104.656334 468.600895 
L 101.67424 469.144124 
L 98.692146 470.02615 
L 96.335031 470.995768 
L 95.710052 471.248344 
L 92.727959 472.749935 
L 91.20523 473.675571 
L 89.745865 474.605653 
L 87.350886 476.355374 
L 86.763771 476.83915 
L 84.305668 479.035177 
L 83.781678 479.609467 
L 81.9092 481.714979 
L 80.799584 483.411392 
L 80.137159 484.394782 
L 79.073601 487.074585 
L 78.925719 489.754388 
L 80.401215 492.434191 
z
M 83.740645 489.754388 
L 82.858615 487.074585 
L 83.524145 484.394782 
L 83.781678 483.987993 
L 85.217262 481.714979 
L 86.763771 480.013695 
L 87.703785 479.035177 
L 89.745865 477.351293 
L 91.099274 476.355374 
L 92.727959 475.307916 
L 95.710052 473.697498 
L 95.762989 473.675571 
L 98.692146 472.540075 
L 101.67424 471.768797 
L 104.656334 471.470721 
L 107.638427 471.967778 
L 110.10721 473.675571 
L 110.620521 475.662063 
L 110.731234 476.355374 
L 110.620521 476.680988 
L 109.852457 479.035177 
L 108.061908 481.714979 
L 107.638427 482.148761 
L 105.359774 484.394782 
L 104.656334 484.946742 
L 101.67424 487.074585 
L 101.67424 487.074585 
L 98.692146 488.6651 
L 96.214213 489.754388 
L 95.710052 489.962758 
L 92.727959 490.819842 
L 89.745865 491.266943 
L 86.763771 491.111234 
L 83.781678 489.791482 
z
" clip-path="url(#p296d551afe)" style="fill: #94c4df"/>
    <path d="M 146.405646 495.416132 
L 149.38774 495.965833 
L 152.369834 496.025597 
L 155.351927 495.728305 
L 158.334021 495.124836 
L 158.370695 495.113994 
L 161.316115 494.326387 
L 164.298209 493.290625 
L 166.262181 492.434191 
L 167.280302 492.003942 
L 170.262396 490.525599 
L 171.597651 489.754388 
L 173.24449 488.766447 
L 175.737098 487.074585 
L 176.226584 486.702243 
L 179.058287 484.394782 
L 179.208677 484.245284 
L 181.716841 481.714979 
L 182.190771 481.070202 
L 183.745557 479.035177 
L 185.074581 476.355374 
L 185.172865 475.879959 
L 185.690553 473.675571 
L 185.30161 470.995768 
L 185.172865 470.774911 
L 183.139606 468.315965 
L 182.190771 467.731134 
L 179.208677 466.679165 
L 176.226584 466.306789 
L 173.24449 466.367826 
L 170.262396 466.744762 
L 167.280302 467.396449 
L 164.359518 468.315965 
L 164.298209 468.333796 
L 161.316115 469.427631 
L 158.334021 470.818333 
L 158.005287 470.995768 
L 155.351927 472.412383 
L 153.35212 473.675571 
L 152.369834 474.333176 
L 149.670637 476.355374 
L 149.38774 476.597839 
L 146.701632 479.035177 
L 146.405646 479.370672 
L 144.340772 481.714979 
L 143.423552 483.164725 
L 142.602308 484.394782 
L 141.521307 487.074585 
L 141.230446 489.754388 
L 142.089365 492.434191 
L 143.423552 493.820488 
L 145.600932 495.113994 
z
M 145.962438 492.434191 
L 144.143516 489.754388 
L 144.078856 487.074585 
L 145.000796 484.394782 
L 146.405646 482.196768 
L 146.703501 481.714979 
L 149.082511 479.035177 
L 149.38774 478.758216 
L 152.191263 476.355374 
L 152.369834 476.221591 
L 155.351927 474.179136 
L 156.189761 473.675571 
L 158.334021 472.463139 
L 161.316115 471.070521 
L 161.51031 470.995768 
L 164.298209 469.912535 
L 167.280302 469.050314 
L 170.262396 468.46006 
L 171.851752 468.315965 
L 173.24449 468.180164 
L 176.226584 468.315965 
L 176.226584 468.315965 
L 179.208677 469.169316 
L 181.796654 470.995768 
L 182.190771 471.775288 
L 182.866994 473.675571 
L 182.559019 476.355374 
L 182.190771 477.121088 
L 181.336596 479.035177 
L 179.357783 481.714979 
L 179.208677 481.865401 
L 176.664205 484.394782 
L 176.226584 484.751385 
L 173.24449 487.023505 
L 173.172019 487.074585 
L 170.262396 488.88669 
L 168.652852 489.754388 
L 167.280302 490.463522 
L 164.298209 491.748762 
L 162.330822 492.434191 
L 161.316115 492.797806 
L 158.334021 493.58111 
L 155.351927 494.067368 
L 152.369834 494.210052 
L 149.38774 493.868945 
L 146.405646 492.732468 
z
M 83.781678 489.791482 
L 86.763771 491.111234 
L 89.745865 491.266943 
L 92.727959 490.819842 
L 95.710052 489.962758 
L 96.214213 489.754388 
L 98.692146 488.6651 
L 101.67424 487.074585 
L 101.67424 487.074585 
L 104.656334 484.946742 
L 105.359774 484.394782 
L 107.638427 482.148761 
L 108.061908 481.714979 
L 109.852457 479.035177 
L 110.620521 476.680988 
L 110.731234 476.355374 
L 110.620521 475.662063 
L 110.10721 473.675571 
L 107.638427 471.967778 
L 104.656334 471.470721 
L 101.67424 471.768797 
L 98.692146 472.540075 
L 95.762989 473.675571 
L 95.710052 473.697498 
L 92.727959 475.307916 
L 91.099274 476.355374 
L 89.745865 477.351293 
L 87.703785 479.035177 
L 86.763771 480.013695 
L 85.217262 481.714979 
L 83.781678 483.987993 
L 83.524145 484.394782 
L 82.858615 487.074585 
L 83.740645 489.754388 
z
M 87.971812 487.074585 
L 87.427953 484.394782 
L 88.853359 481.714979 
L 89.745865 480.76933 
L 91.549348 479.035177 
L 92.727959 478.182132 
L 95.699112 476.355374 
L 95.710052 476.349645 
L 98.692146 475.30228 
L 101.67424 474.806636 
L 104.656334 475.358467 
L 105.837425 476.355374 
L 105.926949 479.035177 
L 104.656334 481.237635 
L 104.363047 481.714979 
L 101.67424 484.204512 
L 101.440807 484.394782 
L 98.692146 486.011663 
L 96.493251 487.074585 
L 95.710052 487.389332 
L 92.727959 488.048438 
L 89.745865 487.965585 
z
" clip-path="url(#p296d551afe)" style="fill: #6caed6"/>
    <path d="M 146.405646 492.732468 
L 149.38774 493.868945 
L 152.369834 494.210052 
L 155.351927 494.067368 
L 158.334021 493.58111 
L 161.316115 492.797806 
L 162.330822 492.434191 
L 164.298209 491.748762 
L 167.280302 490.463522 
L 168.652852 489.754388 
L 170.262396 488.88669 
L 173.172019 487.074585 
L 173.24449 487.023505 
L 176.226584 484.751385 
L 176.664205 484.394782 
L 179.208677 481.865401 
L 179.357783 481.714979 
L 181.336596 479.035177 
L 182.190771 477.121088 
L 182.559019 476.355374 
L 182.866994 473.675571 
L 182.190771 471.775288 
L 181.796654 470.995768 
L 179.208677 469.169316 
L 176.226584 468.315965 
L 176.226584 468.315965 
L 173.24449 468.180164 
L 171.851752 468.315965 
L 170.262396 468.46006 
L 167.280302 469.050314 
L 164.298209 469.912535 
L 161.51031 470.995768 
L 161.316115 471.070521 
L 158.334021 472.463139 
L 156.189761 473.675571 
L 155.351927 474.179136 
L 152.369834 476.221591 
L 152.191263 476.355374 
L 149.38774 478.758216 
L 149.082511 479.035177 
L 146.703501 481.714979 
L 146.405646 482.196768 
L 145.000796 484.394782 
L 144.078856 487.074585 
L 144.143516 489.754388 
L 145.962438 492.434191 
z
M 147.400216 489.754388 
L 146.695471 487.074585 
L 147.409045 484.394782 
L 149.021039 481.714979 
L 149.38774 481.304407 
L 151.461448 479.035177 
L 152.369834 478.253753 
L 154.758832 476.355374 
L 155.351927 475.94693 
L 158.334021 474.139347 
L 159.230767 473.675571 
L 161.316115 472.668577 
L 164.298209 471.527577 
L 166.1597 470.995768 
L 167.280302 470.6746 
L 170.262396 470.181815 
L 173.24449 470.101214 
L 176.226584 470.600051 
L 177.183041 470.995768 
L 179.208677 472.7206 
L 179.834429 473.675571 
L 179.978098 476.355374 
L 179.208677 478.323223 
L 178.944935 479.035177 
L 177.018186 481.714979 
L 176.226584 482.498107 
L 174.244626 484.394782 
L 173.24449 485.164886 
L 170.535107 487.074585 
L 170.262396 487.244429 
L 167.280302 488.877066 
L 165.381437 489.754388 
L 164.298209 490.230321 
L 161.316115 491.251242 
L 158.334021 491.983747 
L 155.351927 492.389053 
L 152.369834 492.315547 
L 149.38774 491.376537 
z
M 89.745865 487.965585 
L 92.727959 488.048438 
L 95.710052 487.389332 
L 96.493251 487.074585 
L 98.692146 486.011663 
L 101.440807 484.394782 
L 101.67424 484.204512 
L 104.363047 481.714979 
L 104.656334 481.237635 
L 105.926949 479.035177 
L 105.837425 476.355374 
L 104.656334 475.358467 
L 101.67424 474.806636 
L 98.692146 475.30228 
L 95.710052 476.349645 
L 95.699112 476.355374 
L 92.727959 478.182132 
L 91.549348 479.035177 
L 89.745865 480.76933 
L 88.853359 481.714979 
L 87.427953 484.394782 
L 87.971812 487.074585 
z
" clip-path="url(#p296d551afe)" style="fill: #4d99ca"/>
    <path d="M 149.38774 491.376537 
L 152.369834 492.315547 
L 155.351927 492.389053 
L 158.334021 491.983747 
L 161.316115 491.251242 
L 164.298209 490.230321 
L 165.381437 489.754388 
L 167.280302 488.877066 
L 170.262396 487.244429 
L 170.535107 487.074585 
L 173.24449 485.164886 
L 174.244626 484.394782 
L 176.226584 482.498107 
L 177.018186 481.714979 
L 178.944935 479.035177 
L 179.208677 478.323223 
L 179.978098 476.355374 
L 179.834429 473.675571 
L 179.208677 472.7206 
L 177.183041 470.995768 
L 176.226584 470.600051 
L 173.24449 470.101214 
L 170.262396 470.181815 
L 167.280302 470.6746 
L 166.1597 470.995768 
L 164.298209 471.527577 
L 161.316115 472.668577 
L 159.230767 473.675571 
L 158.334021 474.139347 
L 155.351927 475.94693 
L 154.758832 476.355374 
L 152.369834 478.253753 
L 151.461448 479.035177 
L 149.38774 481.304407 
L 149.021039 481.714979 
L 147.409045 484.394782 
L 146.695471 487.074585 
L 147.400216 489.754388 
z
M 152.39732 487.074585 
L 152.369834 486.926118 
L 152.124708 484.394782 
L 152.369834 483.926396 
L 153.551584 481.714979 
L 155.351927 479.801841 
L 156.135193 479.035177 
L 158.334021 477.483087 
L 160.181378 476.355374 
L 161.316115 475.780181 
L 164.298209 474.640364 
L 167.280302 473.870675 
L 170.262396 473.675571 
L 173.24449 474.77382 
L 174.534689 476.355374 
L 174.244628 479.035177 
L 173.24449 480.566645 
L 172.469956 481.714979 
L 170.262396 483.713356 
L 169.437174 484.394782 
L 167.280302 485.725127 
L 164.729596 487.074585 
L 164.298209 487.268586 
L 161.316115 488.216277 
L 158.334021 488.745267 
L 155.351927 488.608342 
z
" clip-path="url(#p296d551afe)" style="fill: #2676b8"/>
    <path d="M 155.351927 488.608342 
L 158.334021 488.745267 
L 161.316115 488.216277 
L 164.298209 487.268586 
L 164.729596 487.074585 
L 167.280302 485.725127 
L 169.437174 484.394782 
L 170.262396 483.713356 
L 172.469956 481.714979 
L 173.24449 480.566645 
L 174.244628 479.035177 
L 174.534689 476.355374 
L 173.24449 474.77382 
L 170.262396 473.675571 
L 167.280302 473.870675 
L 164.298209 474.640364 
L 161.316115 475.780181 
L 160.181378 476.355374 
L 158.334021 477.483087 
L 156.135193 479.035177 
L 155.351927 479.801841 
L 153.551584 481.714979 
L 152.369834 483.926396 
L 152.124708 484.394782 
L 152.369834 486.926118 
L 152.39732 487.074585 
z
" clip-path="url(#p296d551afe)" style="fill: #08488e"/>
   </g>
   <g id="matplotlib.axis_1">
    <g id="xtick_1">
     <g id="line2d_1">
      <defs>
       <path id="mc2a88b0369" d="M 0 0 
L 0 3.5 
" style="stroke: #000000; stroke-width: 0.8"/>
      </defs>
      <g>
       <use xlink:href="#mc2a88b0369" x="180.767013" y="499.48" style="stroke: #000000; stroke-width: 0.8"/>
      </g>
     </g>
     <g id="text_1">
      <!-- 10 -->
      <g transform="translate(166.769513 523.196563) scale(0.22 -0.22)">
       <defs>
        <path id="DejaVuSans-31" d="M 794 531 
L 1825 531 
L 1825 4091 
L 703 3866 
L 703 4441 
L 1819 4666 
L 2450 4666 
L 2450 531 
L 3481 531 
L 3481 0 
L 794 0 
L 794 531 
z
" transform="scale(0.015625)"/>
        <path id="DejaVuSans-30" d="M 2034 4250 
Q 1547 4250 1301 3770 
Q 1056 3291 1056 2328 
Q 1056 1369 1301 889 
Q 1547 409 2034 409 
Q 2525 409 2770 889 
Q 3016 1369 3016 2328 
Q 3016 3291 2770 3770 
Q 2525 4250 2034 4250 
z
M 2034 4750 
Q 2819 4750 3233 4129 
Q 3647 3509 3647 2328 
Q 3647 1150 3233 529 
Q 2819 -91 2034 -91 
Q 1250 -91 836 529 
Q 422 1150 422 2328 
Q 422 3509 836 4129 
Q 1250 4750 2034 4750 
z
" transform="scale(0.015625)"/>
       </defs>
       <use xlink:href="#DejaVuSans-31"/>
       <use xlink:href="#DejaVuSans-30" x="63.623047"/>
      </g>
     </g>
    </g>
    <g id="xtick_2">
     <g id="line2d_2">
      <g>
       <use xlink:href="#mc2a88b0369" x="280.897414" y="499.48" style="stroke: #000000; stroke-width: 0.8"/>
      </g>
     </g>
     <g id="text_2">
      <!-- 20 -->
      <g transform="translate(266.899914 523.196563) scale(0.22 -0.22)">
       <defs>
        <path id="DejaVuSans-32" d="M 1228 531 
L 3431 531 
L 3431 0 
L 469 0 
L 469 531 
Q 828 903 1448 1529 
Q 2069 2156 2228 2338 
Q 2531 2678 2651 2914 
Q 2772 3150 2772 3378 
Q 2772 3750 2511 3984 
Q 2250 4219 1831 4219 
Q 1534 4219 1204 4116 
Q 875 4013 500 3803 
L 500 4441 
Q 881 4594 1212 4672 
Q 1544 4750 1819 4750 
Q 2544 4750 2975 4387 
Q 3406 4025 3406 3419 
Q 3406 3131 3298 2873 
Q 3191 2616 2906 2266 
Q 2828 2175 2409 1742 
Q 1991 1309 1228 531 
z
" transform="scale(0.015625)"/>
       </defs>
       <use xlink:href="#DejaVuSans-32"/>
       <use xlink:href="#DejaVuSans-30" x="63.623047"/>
      </g>
     </g>
    </g>
    <g id="xtick_3">
     <g id="line2d_3">
      <g>
       <use xlink:href="#mc2a88b0369" x="381.027814" y="499.48" style="stroke: #000000; stroke-width: 0.8"/>
      </g>
     </g>
     <g id="text_3">
      <!-- 30 -->
      <g transform="translate(367.030314 523.196563) scale(0.22 -0.22)">
       <defs>
        <path id="DejaVuSans-33" d="M 2597 2516 
Q 3050 2419 3304 2112 
Q 3559 1806 3559 1356 
Q 3559 666 3084 287 
Q 2609 -91 1734 -91 
Q 1441 -91 1130 -33 
Q 819 25 488 141 
L 488 750 
Q 750 597 1062 519 
Q 1375 441 1716 441 
Q 2309 441 2620 675 
Q 2931 909 2931 1356 
Q 2931 1769 2642 2001 
Q 2353 2234 1838 2234 
L 1294 2234 
L 1294 2753 
L 1863 2753 
Q 2328 2753 2575 2939 
Q 2822 3125 2822 3475 
Q 2822 3834 2567 4026 
Q 2313 4219 1838 4219 
Q 1578 4219 1281 4162 
Q 984 4106 628 3988 
L 628 4550 
Q 988 4650 1302 4700 
Q 1616 4750 1894 4750 
Q 2613 4750 3031 4423 
Q 3450 4097 3450 3541 
Q 3450 3153 3228 2886 
Q 3006 2619 2597 2516 
z
" transform="scale(0.015625)"/>
       </defs>
       <use xlink:href="#DejaVuSans-33"/>
       <use xlink:href="#DejaVuSans-30" x="63.623047"/>
      </g>
     </g>
    </g>
    <g id="xtick_4">
     <g id="line2d_4">
      <g>
       <use xlink:href="#mc2a88b0369" x="481.158215" y="499.48" style="stroke: #000000; stroke-width: 0.8"/>
      </g>
     </g>
     <g id="text_4">
      <!-- 40 -->
      <g transform="translate(467.160715 523.196563) scale(0.22 -0.22)">
       <defs>
        <path id="DejaVuSans-34" d="M 2419 4116 
L 825 1625 
L 2419 1625 
L 2419 4116 
z
M 2253 4666 
L 3047 4666 
L 3047 1625 
L 3713 1625 
L 3713 1100 
L 3047 1100 
L 3047 0 
L 2419 0 
L 2419 1100 
L 313 1100 
L 313 1709 
L 2253 4666 
z
" transform="scale(0.015625)"/>
       </defs>
       <use xlink:href="#DejaVuSans-34"/>
       <use xlink:href="#DejaVuSans-30" x="63.623047"/>
      </g>
     </g>
    </g>
    <g id="xtick_5">
     <g id="line2d_5">
      <g>
       <use xlink:href="#mc2a88b0369" x="581.288615" y="499.48" style="stroke: #000000; stroke-width: 0.8"/>
      </g>
     </g>
     <g id="text_5">
      <!-- 50 -->
      <g transform="translate(567.291115 523.196563) scale(0.22 -0.22)">
       <defs>
        <path id="DejaVuSans-35" d="M 691 4666 
L 3169 4666 
L 3169 4134 
L 1269 4134 
L 1269 2991 
Q 1406 3038 1543 3061 
Q 1681 3084 1819 3084 
Q 2600 3084 3056 2656 
Q 3513 2228 3513 1497 
Q 3513 744 3044 326 
Q 2575 -91 1722 -91 
Q 1428 -91 1123 -41 
Q 819 9 494 109 
L 494 744 
Q 775 591 1075 516 
Q 1375 441 1709 441 
Q 2250 441 2565 725 
Q 2881 1009 2881 1497 
Q 2881 1984 2565 2268 
Q 2250 2553 1709 2553 
Q 1456 2553 1204 2497 
Q 953 2441 691 2322 
L 691 4666 
z
" transform="scale(0.015625)"/>
       </defs>
       <use xlink:href="#DejaVuSans-35"/>
       <use xlink:href="#DejaVuSans-30" x="63.623047"/>
      </g>
     </g>
    </g>
    <g id="xtick_6">
     <g id="line2d_6">
      <g>
       <use xlink:href="#mc2a88b0369" x="681.419016" y="499.48" style="stroke: #000000; stroke-width: 0.8"/>
      </g>
     </g>
     <g id="text_6">
      <!-- 60 -->
      <g transform="translate(667.421516 523.196563) scale(0.22 -0.22)">
       <defs>
        <path id="DejaVuSans-36" d="M 2113 2584 
Q 1688 2584 1439 2293 
Q 1191 2003 1191 1497 
Q 1191 994 1439 701 
Q 1688 409 2113 409 
Q 2538 409 2786 701 
Q 3034 994 3034 1497 
Q 3034 2003 2786 2293 
Q 2538 2584 2113 2584 
z
M 3366 4563 
L 3366 3988 
Q 3128 4100 2886 4159 
Q 2644 4219 2406 4219 
Q 1781 4219 1451 3797 
Q 1122 3375 1075 2522 
Q 1259 2794 1537 2939 
Q 1816 3084 2150 3084 
Q 2853 3084 3261 2657 
Q 3669 2231 3669 1497 
Q 3669 778 3244 343 
Q 2819 -91 2113 -91 
Q 1303 -91 875 529 
Q 447 1150 447 2328 
Q 447 3434 972 4092 
Q 1497 4750 2381 4750 
Q 2619 4750 2861 4703 
Q 3103 4656 3366 4563 
z
" transform="scale(0.015625)"/>
       </defs>
       <use xlink:href="#DejaVuSans-36"/>
       <use xlink:href="#DejaVuSans-30" x="63.623047"/>
      </g>
     </g>
    </g>
    <g id="text_7">
     <!-- Force Uncertainties -->
     <g transform="translate(280.824377 548.488438) scale(0.22 -0.22)">
      <defs>
       <path id="DejaVuSans-46" d="M 628 4666 
L 3309 4666 
L 3309 4134 
L 1259 4134 
L 1259 2759 
L 3109 2759 
L 3109 2228 
L 1259 2228 
L 1259 0 
L 628 0 
L 628 4666 
z
" transform="scale(0.015625)"/>
       <path id="DejaVuSans-6f" d="M 1959 3097 
Q 1497 3097 1228 2736 
Q 959 2375 959 1747 
Q 959 1119 1226 758 
Q 1494 397 1959 397 
Q 2419 397 2687 759 
Q 2956 1122 2956 1747 
Q 2956 2369 2687 2733 
Q 2419 3097 1959 3097 
z
M 1959 3584 
Q 2709 3584 3137 3096 
Q 3566 2609 3566 1747 
Q 3566 888 3137 398 
Q 2709 -91 1959 -91 
Q 1206 -91 779 398 
Q 353 888 353 1747 
Q 353 2609 779 3096 
Q 1206 3584 1959 3584 
z
" transform="scale(0.015625)"/>
       <path id="DejaVuSans-72" d="M 2631 2963 
Q 2534 3019 2420 3045 
Q 2306 3072 2169 3072 
Q 1681 3072 1420 2755 
Q 1159 2438 1159 1844 
L 1159 0 
L 581 0 
L 581 3500 
L 1159 3500 
L 1159 2956 
Q 1341 3275 1631 3429 
Q 1922 3584 2338 3584 
Q 2397 3584 2469 3576 
Q 2541 3569 2628 3553 
L 2631 2963 
z
" transform="scale(0.015625)"/>
       <path id="DejaVuSans-63" d="M 3122 3366 
L 3122 2828 
Q 2878 2963 2633 3030 
Q 2388 3097 2138 3097 
Q 1578 3097 1268 2742 
Q 959 2388 959 1747 
Q 959 1106 1268 751 
Q 1578 397 2138 397 
Q 2388 397 2633 464 
Q 2878 531 3122 666 
L 3122 134 
Q 2881 22 2623 -34 
Q 2366 -91 2075 -91 
Q 1284 -91 818 406 
Q 353 903 353 1747 
Q 353 2603 823 3093 
Q 1294 3584 2113 3584 
Q 2378 3584 2631 3529 
Q 2884 3475 3122 3366 
z
" transform="scale(0.015625)"/>
       <path id="DejaVuSans-65" d="M 3597 1894 
L 3597 1613 
L 953 1613 
Q 991 1019 1311 708 
Q 1631 397 2203 397 
Q 2534 397 2845 478 
Q 3156 559 3463 722 
L 3463 178 
Q 3153 47 2828 -22 
Q 2503 -91 2169 -91 
Q 1331 -91 842 396 
Q 353 884 353 1716 
Q 353 2575 817 3079 
Q 1281 3584 2069 3584 
Q 2775 3584 3186 3129 
Q 3597 2675 3597 1894 
z
M 3022 2063 
Q 3016 2534 2758 2815 
Q 2500 3097 2075 3097 
Q 1594 3097 1305 2825 
Q 1016 2553 972 2059 
L 3022 2063 
z
" transform="scale(0.015625)"/>
       <path id="DejaVuSans-20" transform="scale(0.015625)"/>
       <path id="DejaVuSans-55" d="M 556 4666 
L 1191 4666 
L 1191 1831 
Q 1191 1081 1462 751 
Q 1734 422 2344 422 
Q 2950 422 3222 751 
Q 3494 1081 3494 1831 
L 3494 4666 
L 4128 4666 
L 4128 1753 
Q 4128 841 3676 375 
Q 3225 -91 2344 -91 
Q 1459 -91 1007 375 
Q 556 841 556 1753 
L 556 4666 
z
" transform="scale(0.015625)"/>
       <path id="DejaVuSans-6e" d="M 3513 2113 
L 3513 0 
L 2938 0 
L 2938 2094 
Q 2938 2591 2744 2837 
Q 2550 3084 2163 3084 
Q 1697 3084 1428 2787 
Q 1159 2491 1159 1978 
L 1159 0 
L 581 0 
L 581 3500 
L 1159 3500 
L 1159 2956 
Q 1366 3272 1645 3428 
Q 1925 3584 2291 3584 
Q 2894 3584 3203 3211 
Q 3513 2838 3513 2113 
z
" transform="scale(0.015625)"/>
       <path id="DejaVuSans-74" d="M 1172 4494 
L 1172 3500 
L 2356 3500 
L 2356 3053 
L 1172 3053 
L 1172 1153 
Q 1172 725 1289 603 
Q 1406 481 1766 481 
L 2356 481 
L 2356 0 
L 1766 0 
Q 1100 0 847 248 
Q 594 497 594 1153 
L 594 3053 
L 172 3053 
L 172 3500 
L 594 3500 
L 594 4494 
L 1172 4494 
z
" transform="scale(0.015625)"/>
       <path id="DejaVuSans-61" d="M 2194 1759 
Q 1497 1759 1228 1600 
Q 959 1441 959 1056 
Q 959 750 1161 570 
Q 1363 391 1709 391 
Q 2188 391 2477 730 
Q 2766 1069 2766 1631 
L 2766 1759 
L 2194 1759 
z
M 3341 1997 
L 3341 0 
L 2766 0 
L 2766 531 
Q 2569 213 2275 61 
Q 1981 -91 1556 -91 
Q 1019 -91 701 211 
Q 384 513 384 1019 
Q 384 1609 779 1909 
Q 1175 2209 1959 2209 
L 2766 2209 
L 2766 2266 
Q 2766 2663 2505 2880 
Q 2244 3097 1772 3097 
Q 1472 3097 1187 3025 
Q 903 2953 641 2809 
L 641 3341 
Q 956 3463 1253 3523 
Q 1550 3584 1831 3584 
Q 2591 3584 2966 3190 
Q 3341 2797 3341 1997 
z
" transform="scale(0.015625)"/>
       <path id="DejaVuSans-69" d="M 603 3500 
L 1178 3500 
L 1178 0 
L 603 0 
L 603 3500 
z
M 603 4863 
L 1178 4863 
L 1178 4134 
L 603 4134 
L 603 4863 
z
" transform="scale(0.015625)"/>
       <path id="DejaVuSans-73" d="M 2834 3397 
L 2834 2853 
Q 2591 2978 2328 3040 
Q 2066 3103 1784 3103 
Q 1356 3103 1142 2972 
Q 928 2841 928 2578 
Q 928 2378 1081 2264 
Q 1234 2150 1697 2047 
L 1894 2003 
Q 2506 1872 2764 1633 
Q 3022 1394 3022 966 
Q 3022 478 2636 193 
Q 2250 -91 1575 -91 
Q 1294 -91 989 -36 
Q 684 19 347 128 
L 347 722 
Q 666 556 975 473 
Q 1284 391 1588 391 
Q 1994 391 2212 530 
Q 2431 669 2431 922 
Q 2431 1156 2273 1281 
Q 2116 1406 1581 1522 
L 1381 1569 
Q 847 1681 609 1914 
Q 372 2147 372 2553 
Q 372 3047 722 3315 
Q 1072 3584 1716 3584 
Q 2034 3584 2315 3537 
Q 2597 3491 2834 3397 
z
" transform="scale(0.015625)"/>
      </defs>
      <use xlink:href="#DejaVuSans-46"/>
      <use xlink:href="#DejaVuSans-6f" x="53.894531"/>
      <use xlink:href="#DejaVuSans-72" x="115.076172"/>
      <use xlink:href="#DejaVuSans-63" x="153.939453"/>
      <use xlink:href="#DejaVuSans-65" x="208.919922"/>
      <use xlink:href="#DejaVuSans-20" x="270.443359"/>
      <use xlink:href="#DejaVuSans-55" x="302.230469"/>
      <use xlink:href="#DejaVuSans-6e" x="375.423828"/>
      <use xlink:href="#DejaVuSans-63" x="438.802734"/>
      <use xlink:href="#DejaVuSans-65" x="493.783203"/>
      <use xlink:href="#DejaVuSans-72" x="555.306641"/>
      <use xlink:href="#DejaVuSans-74" x="596.419922"/>
      <use xlink:href="#DejaVuSans-61" x="635.628906"/>
      <use xlink:href="#DejaVuSans-69" x="696.908203"/>
      <use xlink:href="#DejaVuSans-6e" x="724.691406"/>
      <use xlink:href="#DejaVuSans-74" x="788.070312"/>
      <use xlink:href="#DejaVuSans-69" x="827.279297"/>
      <use xlink:href="#DejaVuSans-65" x="855.0625"/>
      <use xlink:href="#DejaVuSans-73" x="916.585938"/>
     </g>
    </g>
   </g>
   <g id="matplotlib.axis_2">
    <g id="ytick_1">
     <g id="line2d_7">
      <defs>
       <path id="m509cf40074" d="M 0 0 
L -3.5 0 
" style="stroke: #000000; stroke-width: 0.8"/>
      </defs>
      <g>
       <use xlink:href="#m509cf40074" x="83.72" y="423.662408" style="stroke: #000000; stroke-width: 0.8"/>
      </g>
     </g>
     <g id="text_8">
      <!-- 10 -->
      <g transform="translate(48.725 432.020689) scale(0.22 -0.22)">
       <use xlink:href="#DejaVuSans-31"/>
       <use xlink:href="#DejaVuSans-30" x="63.623047"/>
      </g>
     </g>
    </g>
    <g id="ytick_2">
     <g id="line2d_8">
      <g>
       <use xlink:href="#m509cf40074" x="83.72" y="345.435932" style="stroke: #000000; stroke-width: 0.8"/>
      </g>
     </g>
     <g id="text_9">
      <!-- 20 -->
      <g transform="translate(48.725 353.794213) scale(0.22 -0.22)">
       <use xlink:href="#DejaVuSans-32"/>
       <use xlink:href="#DejaVuSans-30" x="63.623047"/>
      </g>
     </g>
    </g>
    <g id="ytick_3">
     <g id="line2d_9">
      <g>
       <use xlink:href="#m509cf40074" x="83.72" y="267.209456" style="stroke: #000000; stroke-width: 0.8"/>
      </g>
     </g>
     <g id="text_10">
      <!-- 30 -->
      <g transform="translate(48.725 275.567737) scale(0.22 -0.22)">
       <use xlink:href="#DejaVuSans-33"/>
       <use xlink:href="#DejaVuSans-30" x="63.623047"/>
      </g>
     </g>
    </g>
    <g id="ytick_4">
     <g id="line2d_10">
      <g>
       <use xlink:href="#m509cf40074" x="83.72" y="188.98298" style="stroke: #000000; stroke-width: 0.8"/>
      </g>
     </g>
     <g id="text_11">
      <!-- 40 -->
      <g transform="translate(48.725 197.341261) scale(0.22 -0.22)">
       <use xlink:href="#DejaVuSans-34"/>
       <use xlink:href="#DejaVuSans-30" x="63.623047"/>
      </g>
     </g>
    </g>
    <g id="ytick_5">
     <g id="line2d_11">
      <g>
       <use xlink:href="#m509cf40074" x="83.72" y="110.756504" style="stroke: #000000; stroke-width: 0.8"/>
      </g>
     </g>
     <g id="text_12">
      <!-- 50 -->
      <g transform="translate(48.725 119.114785) scale(0.22 -0.22)">
       <use xlink:href="#DejaVuSans-35"/>
       <use xlink:href="#DejaVuSans-30" x="63.623047"/>
      </g>
     </g>
    </g>
    <g id="ytick_6">
     <g id="line2d_12">
      <g>
       <use xlink:href="#m509cf40074" x="83.72" y="32.530028" style="stroke: #000000; stroke-width: 0.8"/>
      </g>
     </g>
     <g id="text_13">
      <!-- 60 -->
      <g transform="translate(48.725 40.888309) scale(0.22 -0.22)">
       <use xlink:href="#DejaVuSans-36"/>
       <use xlink:href="#DejaVuSans-30" x="63.623047"/>
      </g>
     </g>
    </g>
    <g id="text_14">
     <!-- Force Errors [kJ/(mol*A)] -->
     <g transform="translate(40.149688 395.540677) rotate(-90) scale(0.22 -0.22)">
      <defs>
       <path id="DejaVuSans-45" d="M 628 4666 
L 3578 4666 
L 3578 4134 
L 1259 4134 
L 1259 2753 
L 3481 2753 
L 3481 2222 
L 1259 2222 
L 1259 531 
L 3634 531 
L 3634 0 
L 628 0 
L 628 4666 
z
" transform="scale(0.015625)"/>
       <path id="DejaVuSans-5b" d="M 550 4863 
L 1875 4863 
L 1875 4416 
L 1125 4416 
L 1125 -397 
L 1875 -397 
L 1875 -844 
L 550 -844 
L 550 4863 
z
" transform="scale(0.015625)"/>
       <path id="DejaVuSans-6b" d="M 581 4863 
L 1159 4863 
L 1159 1991 
L 2875 3500 
L 3609 3500 
L 1753 1863 
L 3688 0 
L 2938 0 
L 1159 1709 
L 1159 0 
L 581 0 
L 581 4863 
z
" transform="scale(0.015625)"/>
       <path id="DejaVuSans-4a" d="M 628 4666 
L 1259 4666 
L 1259 325 
Q 1259 -519 939 -900 
Q 619 -1281 -91 -1281 
L -331 -1281 
L -331 -750 
L -134 -750 
Q 284 -750 456 -515 
Q 628 -281 628 325 
L 628 4666 
z
" transform="scale(0.015625)"/>
       <path id="DejaVuSans-2f" d="M 1625 4666 
L 2156 4666 
L 531 -594 
L 0 -594 
L 1625 4666 
z
" transform="scale(0.015625)"/>
       <path id="DejaVuSans-28" d="M 1984 4856 
Q 1566 4138 1362 3434 
Q 1159 2731 1159 2009 
Q 1159 1288 1364 580 
Q 1569 -128 1984 -844 
L 1484 -844 
Q 1016 -109 783 600 
Q 550 1309 550 2009 
Q 550 2706 781 3412 
Q 1013 4119 1484 4856 
L 1984 4856 
z
" transform="scale(0.015625)"/>
       <path id="DejaVuSans-6d" d="M 3328 2828 
Q 3544 3216 3844 3400 
Q 4144 3584 4550 3584 
Q 5097 3584 5394 3201 
Q 5691 2819 5691 2113 
L 5691 0 
L 5113 0 
L 5113 2094 
Q 5113 2597 4934 2840 
Q 4756 3084 4391 3084 
Q 3944 3084 3684 2787 
Q 3425 2491 3425 1978 
L 3425 0 
L 2847 0 
L 2847 2094 
Q 2847 2600 2669 2842 
Q 2491 3084 2119 3084 
Q 1678 3084 1418 2786 
Q 1159 2488 1159 1978 
L 1159 0 
L 581 0 
L 581 3500 
L 1159 3500 
L 1159 2956 
Q 1356 3278 1631 3431 
Q 1906 3584 2284 3584 
Q 2666 3584 2933 3390 
Q 3200 3197 3328 2828 
z
" transform="scale(0.015625)"/>
       <path id="DejaVuSans-6c" d="M 603 4863 
L 1178 4863 
L 1178 0 
L 603 0 
L 603 4863 
z
" transform="scale(0.015625)"/>
       <path id="DejaVuSans-2a" d="M 3009 3897 
L 1888 3291 
L 3009 2681 
L 2828 2375 
L 1778 3009 
L 1778 1831 
L 1422 1831 
L 1422 3009 
L 372 2375 
L 191 2681 
L 1313 3291 
L 191 3897 
L 372 4206 
L 1422 3572 
L 1422 4750 
L 1778 4750 
L 1778 3572 
L 2828 4206 
L 3009 3897 
z
" transform="scale(0.015625)"/>
       <path id="DejaVuSans-41" d="M 2188 4044 
L 1331 1722 
L 3047 1722 
L 2188 4044 
z
M 1831 4666 
L 2547 4666 
L 4325 0 
L 3669 0 
L 3244 1197 
L 1141 1197 
L 716 0 
L 50 0 
L 1831 4666 
z
" transform="scale(0.015625)"/>
       <path id="DejaVuSans-29" d="M 513 4856 
L 1013 4856 
Q 1481 4119 1714 3412 
Q 1947 2706 1947 2009 
Q 1947 1309 1714 600 
Q 1481 -109 1013 -844 
L 513 -844 
Q 928 -128 1133 580 
Q 1338 1288 1338 2009 
Q 1338 2731 1133 3434 
Q 928 4138 513 4856 
z
" transform="scale(0.015625)"/>
       <path id="DejaVuSans-5d" d="M 1947 4863 
L 1947 -844 
L 622 -844 
L 622 -397 
L 1369 -397 
L 1369 4416 
L 622 4416 
L 622 4863 
L 1947 4863 
z
" transform="scale(0.015625)"/>
      </defs>
      <use xlink:href="#DejaVuSans-46"/>
      <use xlink:href="#DejaVuSans-6f" x="53.894531"/>
      <use xlink:href="#DejaVuSans-72" x="115.076172"/>
      <use xlink:href="#DejaVuSans-63" x="153.939453"/>
      <use xlink:href="#DejaVuSans-65" x="208.919922"/>
      <use xlink:href="#DejaVuSans-20" x="270.443359"/>
      <use xlink:href="#DejaVuSans-45" x="302.230469"/>
      <use xlink:href="#DejaVuSans-72" x="365.414062"/>
      <use xlink:href="#DejaVuSans-72" x="404.777344"/>
      <use xlink:href="#DejaVuSans-6f" x="443.640625"/>
      <use xlink:href="#DejaVuSans-72" x="504.822266"/>
      <use xlink:href="#DejaVuSans-73" x="545.935547"/>
      <use xlink:href="#DejaVuSans-20" x="598.035156"/>
      <use xlink:href="#DejaVuSans-5b" x="629.822266"/>
      <use xlink:href="#DejaVuSans-6b" x="668.835938"/>
      <use xlink:href="#DejaVuSans-4a" x="726.746094"/>
      <use xlink:href="#DejaVuSans-2f" x="756.238281"/>
      <use xlink:href="#DejaVuSans-28" x="789.929688"/>
      <use xlink:href="#DejaVuSans-6d" x="828.943359"/>
      <use xlink:href="#DejaVuSans-6f" x="926.355469"/>
      <use xlink:href="#DejaVuSans-6c" x="987.537109"/>
      <use xlink:href="#DejaVuSans-2a" x="1015.320312"/>
      <use xlink:href="#DejaVuSans-41" x="1065.320312"/>
      <use xlink:href="#DejaVuSans-29" x="1133.728516"/>
      <use xlink:href="#DejaVuSans-5d" x="1172.742188"/>
     </g>
    </g>
   </g>
   <g id="line2d_13">
    <path d="M 83.72 499.48 
L 691.036567 25.016354 
" clip-path="url(#p296d551afe)" style="fill: none; stroke-dasharray: 5.55,2.4; stroke-dashoffset: 0; stroke: #ff0000; stroke-width: 1.5"/>
   </g>
   <g id="patch_3">
    <path d="M 83.72 499.48 
L 83.72 25.016354 
" style="fill: none; stroke: #000000; stroke-width: 0.8; stroke-linejoin: miter; stroke-linecap: square"/>
   </g>
   <g id="patch_4">
    <path d="M 691.036567 499.48 
L 691.036567 25.016354 
" style="fill: none; stroke: #000000; stroke-width: 0.8; stroke-linejoin: miter; stroke-linecap: square"/>
   </g>
   <g id="patch_5">
    <path d="M 83.72 499.48 
L 691.036567 499.48 
" style="fill: none; stroke: #000000; stroke-width: 0.8; stroke-linejoin: miter; stroke-linecap: square"/>
   </g>
   <g id="patch_6">
    <path d="M 83.72 25.016354 
L 691.036567 25.016354 
" style="fill: none; stroke: #000000; stroke-width: 0.8; stroke-linejoin: miter; stroke-linecap: square"/>
   </g>
   <g id="text_15">
    <!-- Correlation in: 0.627 -->
    <g transform="translate(144.451657 72.462719) scale(0.22 -0.22)">
     <defs>
      <path id="DejaVuSans-43" d="M 4122 4306 
L 4122 3641 
Q 3803 3938 3442 4084 
Q 3081 4231 2675 4231 
Q 1875 4231 1450 3742 
Q 1025 3253 1025 2328 
Q 1025 1406 1450 917 
Q 1875 428 2675 428 
Q 3081 428 3442 575 
Q 3803 722 4122 1019 
L 4122 359 
Q 3791 134 3420 21 
Q 3050 -91 2638 -91 
Q 1578 -91 968 557 
Q 359 1206 359 2328 
Q 359 3453 968 4101 
Q 1578 4750 2638 4750 
Q 3056 4750 3426 4639 
Q 3797 4528 4122 4306 
z
" transform="scale(0.015625)"/>
      <path id="DejaVuSans-3a" d="M 750 794 
L 1409 794 
L 1409 0 
L 750 0 
L 750 794 
z
M 750 3309 
L 1409 3309 
L 1409 2516 
L 750 2516 
L 750 3309 
z
" transform="scale(0.015625)"/>
      <path id="DejaVuSans-2e" d="M 684 794 
L 1344 794 
L 1344 0 
L 684 0 
L 684 794 
z
" transform="scale(0.015625)"/>
      <path id="DejaVuSans-37" d="M 525 4666 
L 3525 4666 
L 3525 4397 
L 1831 0 
L 1172 0 
L 2766 4134 
L 525 4134 
L 525 4666 
z
" transform="scale(0.015625)"/>
     </defs>
     <use xlink:href="#DejaVuSans-43"/>
     <use xlink:href="#DejaVuSans-6f" x="69.824219"/>
     <use xlink:href="#DejaVuSans-72" x="131.005859"/>
     <use xlink:href="#DejaVuSans-72" x="170.369141"/>
     <use xlink:href="#DejaVuSans-65" x="209.232422"/>
     <use xlink:href="#DejaVuSans-6c" x="270.755859"/>
     <use xlink:href="#DejaVuSans-61" x="298.539062"/>
     <use xlink:href="#DejaVuSans-74" x="359.818359"/>
     <use xlink:href="#DejaVuSans-69" x="399.027344"/>
     <use xlink:href="#DejaVuSans-6f" x="426.810547"/>
     <use xlink:href="#DejaVuSans-6e" x="487.992188"/>
     <use xlink:href="#DejaVuSans-20" x="551.371094"/>
     <use xlink:href="#DejaVuSans-69" x="583.158203"/>
     <use xlink:href="#DejaVuSans-6e" x="610.941406"/>
     <use xlink:href="#DejaVuSans-3a" x="674.320312"/>
     <use xlink:href="#DejaVuSans-20" x="708.011719"/>
     <use xlink:href="#DejaVuSans-30" x="739.798828"/>
     <use xlink:href="#DejaVuSans-2e" x="803.421875"/>
     <use xlink:href="#DejaVuSans-36" x="835.208984"/>
     <use xlink:href="#DejaVuSans-32" x="898.832031"/>
     <use xlink:href="#DejaVuSans-37" x="962.455078"/>
    </g>
   </g>
  </g>
 </g>
 <defs>
  <clipPath id="p296d551afe">
   <rect x="83.72" y="25.016354" width="607.316567" height="474.463646"/>
  </clipPath>
 </defs>
</svg>
