<?xml version="1.0" encoding="utf-8" standalone="no"?>
<!DOCTYPE svg PUBLIC "-//W3C//DTD SVG 1.1//EN"
  "http://www.w3.org/Graphics/SVG/1.1/DTD/svg11.dtd">
<svg xmlns:xlink="http://www.w3.org/1999/xlink" width="720pt" height="576pt" viewBox="0 0 720 576" xmlns="http://www.w3.org/2000/svg" version="1.1">
 <metadata>
  <rdf:RDF xmlns:dc="http://purl.org/dc/elements/1.1/" xmlns:cc="http://creativecommons.org/ns#" xmlns:rdf="http://www.w3.org/1999/02/22-rdf-syntax-ns#">
   <cc:Work>
    <dc:type rdf:resource="http://purl.org/dc/dcmitype/StillImage"/>
    <dc:date>2024-12-08T03:33:02.655380</dc:date>
    <dc:format>image/svg+xml</dc:format>
    <dc:creator>
     <cc:Agent>
      <dc:title>Matplotlib v3.8.4, https://matplotlib.org/</dc:title>
     </cc:Agent>
    </dc:creator>
   </cc:Work>
  </rdf:RDF>
 </metadata>
 <defs>
  <style type="text/css">*{stroke-linejoin: round; stroke-linecap: butt}</style>
 </defs>
 <g id="figure_1">
  <g id="patch_1">
   <path d="M 0 576 
L 720 576 
L 720 0 
L 0 0 
z
" style="fill: #ffffff"/>
  </g>
  <g id="axes_1">
   <g id="patch_2">
    <path d="M 102.17 499.48 
L 682.2 499.48 
L 682.2 32.04 
L 102.17 32.04 
z
" style="fill: #ffffff"/>
   </g>
   <g id="QuadContourSet_1">
    <path d="M 251.071068 373.373045 
L 254.887806 370.655262 
L 260.29384 368.063144 
L 265.845859 364.120031 
L 269.516613 362.105515 
L 275.890009 357.5848 
L 278.739385 355.813203 
L 285.459124 351.049569 
L 287.962158 349.305233 
L 294.722044 344.514338 
L 297.184931 342.612598 
L 303.723416 337.979107 
L 306.407703 335.708885 
L 312.426477 331.443876 
L 315.630476 328.505593 
L 320.706575 324.908645 
L 324.853248 320.815883 
L 328.300143 318.373414 
L 334.076021 312.275895 
L 334.693736 311.838183 
L 343.158943 305.302952 
L 343.298794 305.2178 
L 352.30654 298.767721 
L 352.521566 298.621985 
L 361.487534 292.23249 
L 361.744339 292.040173 
L 370.669314 285.697259 
L 370.967112 285.452393 
L 379.829296 279.162028 
L 380.189884 278.838661 
L 388.941633 272.626797 
L 389.412657 272.169982 
L 397.96796 266.091566 
L 398.635429 265.399869 
L 406.847715 259.556335 
L 407.858202 258.456922 
L 415.487673 253.021104 
L 417.080975 251.242455 
L 423.754947 246.485872 
L 426.303747 243.632598 
L 431.474406 239.950641 
L 435.52652 235.456899 
L 438.397917 233.41541 
L 444.711507 226.880179 
L 444.749292 226.84511 
L 453.683683 220.344948 
L 453.972065 220.056681 
L 462.572712 213.809717 
L 463.194838 213.145568 
L 471.282593 207.274486 
L 472.41761 205.989629 
L 479.657133 200.739255 
L 481.640383 198.377366 
L 487.407673 194.204024 
L 490.863155 189.942367 
L 494.01706 187.668793 
L 499.807486 181.133562 
L 500.085928 180.895501 
L 508.166579 174.598331 
L 509.308701 173.561228 
L 516.617716 168.0631 
L 518.531473 166.203133 
L 524.833869 161.527869 
L 527.754246 158.466618 
L 532.433909 154.992638 
L 536.977018 149.897434 
L 538.899946 148.457407 
L 536.977018 143.513989 
L 531.189561 148.457407 
L 527.754246 149.372697 
L 520.858438 154.992638 
L 518.531473 155.977525 
L 511.414287 161.527869 
L 509.308701 162.592972 
L 502.039956 168.0631 
L 500.085928 169.158801 
L 492.669043 174.598331 
L 490.863155 175.689801 
L 483.316054 181.133562 
L 481.640383 182.218815 
L 474.01293 187.668793 
L 472.41761 188.782637 
L 464.794831 194.204024 
L 463.194838 195.419062 
L 455.700545 200.739255 
L 453.972065 202.173753 
L 446.784073 207.274486 
L 444.749292 209.113417 
L 438.132619 213.809717 
L 435.52652 216.33862 
L 429.883546 220.344948 
L 426.303747 223.98481 
L 422.225705 226.880179 
L 417.080975 232.205311 
L 415.376048 233.41541 
L 407.923794 239.950641 
L 407.858202 239.99742 
L 398.810147 246.485872 
L 398.635429 246.62302 
L 389.69206 253.021104 
L 389.412657 253.262485 
L 380.606825 259.556335 
L 380.189884 259.953162 
L 371.597756 266.091566 
L 370.967112 266.754559 
L 362.743622 272.626797 
L 361.744339 273.792322 
L 354.219223 279.162028 
L 352.521566 281.37164 
L 346.453909 285.697259 
L 343.298794 290.310505 
L 340.599898 292.23249 
L 334.223456 298.767721 
L 334.076021 298.889243 
L 325.183801 305.302952 
L 324.853248 305.606222 
L 316.139016 311.838183 
L 315.630476 312.359507 
L 307.18259 318.373414 
L 306.407703 319.264609 
L 298.460481 324.908645 
L 297.184931 326.560876 
L 290.301075 331.443876 
L 287.962158 334.868641 
L 283.574615 337.979107 
L 279.326092 344.514338 
L 278.739385 344.93904 
L 271.41544 351.049569 
L 269.516613 352.60242 
L 262.945503 357.5848 
L 260.29384 360.032229 
L 254.691244 364.120031 
L 251.071068 367.923406 
L 247.264583 370.655262 
z
M 278.435514 351.049569 
L 278.739385 350.796042 
L 279.018188 351.049569 
L 278.739385 351.247212 
z
M 287.417266 344.514338 
L 287.962158 343.898294 
L 288.388673 344.514338 
L 287.962158 344.816619 
z
M 296.319988 331.443876 
L 297.184931 330.830337 
L 300.394389 331.443876 
L 297.184931 336.229757 
z
M 301.756576 324.908645 
L 306.407703 321.605462 
L 309.217942 318.373414 
L 315.630476 313.80844 
L 317.552416 311.838183 
L 324.853248 306.617012 
L 326.285517 305.302952 
L 334.076021 299.68388 
L 335.187535 298.767721 
L 343.298794 292.825471 
L 344.097761 292.23249 
L 352.521566 285.88341 
L 352.800988 285.697259 
L 358.70749 279.162028 
L 361.744339 276.99502 
L 365.48951 272.626797 
L 370.967112 268.715345 
L 373.46287 266.091566 
L 380.189884 261.28564 
L 382.006841 259.556335 
L 389.412657 254.263127 
L 390.850325 253.021104 
L 398.635429 247.451641 
L 399.865767 246.485872 
L 407.858202 240.754416 
L 408.985233 239.950641 
L 417.080975 234.113325 
L 418.158972 233.41541 
L 426.303747 227.477212 
L 427.322911 226.880179 
L 435.52652 220.773255 
L 436.345233 220.344948 
L 444.749292 213.848716 
L 444.837089 213.809717 
L 452.108859 207.274486 
L 453.972065 205.95232 
L 460.253483 200.739255 
L 463.194838 198.65119 
L 469.050981 194.204024 
L 472.41761 191.809648 
L 478.661193 194.204024 
L 474.028311 200.739255 
L 472.41761 201.907396 
L 467.676426 207.274486 
L 463.194838 210.527772 
L 460.120553 213.809717 
L 453.972065 218.275589 
L 451.901884 220.344948 
L 444.749292 225.548773 
L 443.314743 226.880179 
L 435.52652 232.573501 
L 434.540755 233.41541 
L 426.303747 239.502551 
L 425.728699 239.950641 
L 417.080975 246.485872 
L 417.080975 246.485872 
L 411.226758 253.021104 
L 407.858202 255.421121 
L 404.057463 259.556335 
L 398.635429 263.414438 
L 396.052067 266.091566 
L 389.412657 270.808769 
L 387.53808 272.626797 
L 380.189884 277.842439 
L 378.718402 279.162028 
L 370.967112 284.663882 
L 369.710352 285.697259 
L 361.744339 291.358646 
L 360.577475 292.23249 
L 352.521566 297.973442 
L 351.349641 298.767721 
L 343.298794 304.532604 
L 342.033599 305.302952 
L 334.076021 311.048368 
L 332.615296 311.838183 
L 324.853248 317.527669 
L 323.045975 318.373414 
L 315.630476 323.977026 
L 313.133789 324.908645 
L 306.407703 330.396717 
z
M 478.348415 187.668793 
L 481.640383 185.316612 
L 486.128549 187.668793 
L 481.640383 192.034116 
z
M 488.09917 181.133562 
L 490.863155 179.139886 
L 494.13885 181.133562 
L 490.863155 183.872389 
z
M 498.37737 174.598331 
L 500.085928 173.345278 
L 501.947391 174.598331 
L 500.085928 176.048951 
z
" clip-path="url(#p1567649773)" style="fill: #eef5fc"/>
    <path d="M 278.739385 351.247212 
L 279.018188 351.049569 
L 278.739385 350.796042 
L 278.435514 351.049569 
z
M 287.962158 344.816619 
L 288.388673 344.514338 
L 287.962158 343.898294 
L 287.417266 344.514338 
z
M 297.184931 336.229757 
L 300.394389 331.443876 
L 297.184931 330.830337 
L 296.319988 331.443876 
z
M 306.407703 330.396717 
L 313.133789 324.908645 
L 315.630476 323.977026 
L 323.045975 318.373414 
L 324.853248 317.527669 
L 332.615296 311.838183 
L 334.076021 311.048368 
L 342.033599 305.302952 
L 343.298794 304.532604 
L 351.349641 298.767721 
L 352.521566 297.973442 
L 360.577475 292.23249 
L 361.744339 291.358646 
L 369.710352 285.697259 
L 370.967112 284.663882 
L 378.718402 279.162028 
L 380.189884 277.842439 
L 387.53808 272.626797 
L 389.412657 270.808769 
L 396.052067 266.091566 
L 398.635429 263.414438 
L 404.057463 259.556335 
L 407.858202 255.421121 
L 411.226758 253.021104 
L 417.080975 246.485872 
L 417.080975 246.485872 
L 425.728699 239.950641 
L 426.303747 239.502551 
L 434.540755 233.41541 
L 435.52652 232.573501 
L 443.314743 226.880179 
L 444.749292 225.548773 
L 451.901884 220.344948 
L 453.972065 218.275589 
L 460.120553 213.809717 
L 463.194838 210.527772 
L 467.676426 207.274486 
L 472.41761 201.907396 
L 474.028311 200.739255 
L 478.661193 194.204024 
L 472.41761 191.809648 
L 469.050981 194.204024 
L 463.194838 198.65119 
L 460.253483 200.739255 
L 453.972065 205.95232 
L 452.108859 207.274486 
L 444.837089 213.809717 
L 444.749292 213.848716 
L 436.345233 220.344948 
L 435.52652 220.773255 
L 427.322911 226.880179 
L 426.303747 227.477212 
L 418.158972 233.41541 
L 417.080975 234.113325 
L 408.985233 239.950641 
L 407.858202 240.754416 
L 399.865767 246.485872 
L 398.635429 247.451641 
L 390.850325 253.021104 
L 389.412657 254.263127 
L 382.006841 259.556335 
L 380.189884 261.28564 
L 373.46287 266.091566 
L 370.967112 268.715345 
L 365.48951 272.626797 
L 361.744339 276.99502 
L 358.70749 279.162028 
L 352.800988 285.697259 
L 352.521566 285.88341 
L 344.097761 292.23249 
L 343.298794 292.825471 
L 335.187535 298.767721 
L 334.076021 299.68388 
L 326.285517 305.302952 
L 324.853248 306.617012 
L 317.552416 311.838183 
L 315.630476 313.80844 
L 309.217942 318.373414 
L 306.407703 321.605462 
L 301.756576 324.908645 
z
M 304.3638 324.908645 
L 306.407703 323.457085 
L 309.363432 324.908645 
L 306.407703 327.320338 
z
M 310.827912 318.373414 
L 315.630476 314.95455 
L 318.67042 311.838183 
L 324.853248 307.41655 
L 327.156979 305.302952 
L 334.076021 300.312441 
L 335.950125 298.767721 
L 343.298794 293.384139 
L 344.850495 292.23249 
L 352.521566 286.450751 
L 353.652595 285.697259 
L 361.744339 279.259996 
L 361.911766 279.162028 
L 367.661517 272.626797 
L 370.967112 270.266334 
L 374.938182 266.091566 
L 380.189884 262.339635 
L 383.114259 259.556335 
L 389.412657 255.054639 
L 391.766516 253.021104 
L 398.635429 248.107084 
L 400.700767 246.485872 
L 407.858202 241.353203 
L 409.824835 239.950641 
L 417.080975 234.718708 
L 419.094046 233.41541 
L 426.303747 228.158956 
L 428.486683 226.880179 
L 435.52652 221.639589 
L 438.001243 220.344948 
L 444.749292 215.12879 
L 447.718904 213.809717 
L 453.972065 208.610608 
L 458.180886 213.809717 
L 453.972065 216.866738 
L 450.492475 220.344948 
L 444.749292 224.523366 
L 442.209898 226.880179 
L 435.52652 231.76584 
L 433.595092 233.41541 
L 426.303747 238.803707 
L 424.831851 239.950641 
L 417.080975 245.80811 
L 416.117437 246.485872 
L 407.858202 253.020687 
L 407.85753 253.021104 
L 401.850364 259.556335 
L 398.635429 261.843954 
L 394.53659 266.091566 
L 389.412657 269.732044 
L 386.427864 272.626797 
L 380.189884 277.054424 
L 377.839681 279.162028 
L 370.967112 284.040167 
L 368.95181 285.697259 
L 361.744339 290.819556 
L 359.857616 292.23249 
L 352.521566 297.460442 
L 350.592731 298.767721 
L 343.298794 303.990611 
L 341.143448 305.302952 
L 334.076021 310.405674 
L 331.426664 311.838183 
L 324.853248 316.656416 
L 321.184194 318.373414 
L 315.630476 322.570149 
z
M 458.528385 207.274486 
L 463.194838 202.32694 
L 464.823936 207.274486 
L 463.194838 208.457085 
z
M 481.640383 192.034116 
L 486.128549 187.668793 
L 481.640383 185.316612 
L 478.348415 187.668793 
z
M 490.863155 183.872389 
L 494.13885 181.133562 
L 490.863155 179.139886 
L 488.09917 181.133562 
z
M 500.085928 176.048951 
L 501.947391 174.598331 
L 500.085928 173.345278 
L 498.37737 174.598331 
z
" clip-path="url(#p1567649773)" style="fill: #dbe9f6"/>
    <path d="M 306.407703 327.320338 
L 309.363432 324.908645 
L 306.407703 323.457085 
L 304.3638 324.908645 
z
M 315.630476 322.570149 
L 321.184194 318.373414 
L 324.853248 316.656416 
L 331.426664 311.838183 
L 334.076021 310.405674 
L 341.143448 305.302952 
L 343.298794 303.990611 
L 350.592731 298.767721 
L 352.521566 297.460442 
L 359.857616 292.23249 
L 361.744339 290.819556 
L 368.95181 285.697259 
L 370.967112 284.040167 
L 377.839681 279.162028 
L 380.189884 277.054424 
L 386.427864 272.626797 
L 389.412657 269.732044 
L 394.53659 266.091566 
L 398.635429 261.843954 
L 401.850364 259.556335 
L 407.85753 253.021104 
L 407.858202 253.020687 
L 416.117437 246.485872 
L 417.080975 245.80811 
L 424.831851 239.950641 
L 426.303747 238.803707 
L 433.595092 233.41541 
L 435.52652 231.76584 
L 442.209898 226.880179 
L 444.749292 224.523366 
L 450.492475 220.344948 
L 453.972065 216.866738 
L 458.180886 213.809717 
L 453.972065 208.610608 
L 447.718904 213.809717 
L 444.749292 215.12879 
L 438.001243 220.344948 
L 435.52652 221.639589 
L 428.486683 226.880179 
L 426.303747 228.158956 
L 419.094046 233.41541 
L 417.080975 234.718708 
L 409.824835 239.950641 
L 407.858202 241.353203 
L 400.700767 246.485872 
L 398.635429 248.107084 
L 391.766516 253.021104 
L 389.412657 255.054639 
L 383.114259 259.556335 
L 380.189884 262.339635 
L 374.938182 266.091566 
L 370.967112 270.266334 
L 367.661517 272.626797 
L 361.911766 279.162028 
L 361.744339 279.259996 
L 353.652595 285.697259 
L 352.521566 286.450751 
L 344.850495 292.23249 
L 343.298794 293.384139 
L 335.950125 298.767721 
L 334.076021 300.312441 
L 327.156979 305.302952 
L 324.853248 307.41655 
L 318.67042 311.838183 
L 315.630476 314.95455 
L 310.827912 318.373414 
z
M 322.005442 311.838183 
L 324.853248 309.801582 
L 327.880959 311.838183 
L 324.853248 314.057457 
z
M 329.756561 305.302952 
L 334.076021 302.187446 
L 338.224941 298.767721 
L 343.298794 295.050653 
L 347.095911 292.23249 
L 352.521566 288.143136 
L 356.192948 285.697259 
L 361.744339 281.280935 
L 365.365525 279.162028 
L 370.967112 274.14265 
L 374.256372 272.626797 
L 379.339058 266.091566 
L 380.189884 265.483717 
L 386.417701 259.556335 
L 389.412657 257.41573 
L 394.499526 253.021104 
L 398.635429 250.062279 
L 403.191581 246.485872 
L 407.858202 243.139391 
L 412.329379 239.950641 
L 417.080975 236.524573 
L 421.883385 233.41541 
L 426.303747 230.192609 
L 430.774167 233.41541 
L 426.303747 236.719046 
L 422.156543 239.950641 
L 417.080975 243.786334 
L 413.243193 246.485872 
L 407.858202 250.746547 
L 404.188231 253.021104 
L 398.635429 257.904972 
L 395.308079 259.556335 
L 390.015899 266.091566 
L 389.412657 266.52016 
L 383.116075 272.626797 
L 380.189884 274.703764 
L 375.218444 279.162028 
L 370.967112 282.179617 
L 366.689068 285.697259 
L 361.744339 289.211442 
L 357.710264 292.23249 
L 352.521566 295.930157 
L 348.334857 298.767721 
L 343.298794 302.37384 
L 338.488116 305.302952 
L 334.076021 308.488509 
z
M 431.958231 226.880179 
L 435.52652 224.223876 
L 438.91413 226.880179 
L 435.52652 229.356579 
z
M 442.941141 220.344948 
L 444.749292 218.94727 
L 446.288188 220.344948 
L 444.749292 221.464563 
z
M 463.194838 208.457085 
L 464.823936 207.274486 
L 463.194838 202.32694 
L 458.528385 207.274486 
z
" clip-path="url(#p1567649773)" style="fill: #b5d4e9"/>
    <path d="M 324.853248 314.057457 
L 327.880959 311.838183 
L 324.853248 309.801582 
L 322.005442 311.838183 
z
M 334.076021 308.488509 
L 338.488116 305.302952 
L 343.298794 302.37384 
L 348.334857 298.767721 
L 352.521566 295.930157 
L 357.710264 292.23249 
L 361.744339 289.211442 
L 366.689068 285.697259 
L 370.967112 282.179617 
L 375.218444 279.162028 
L 380.189884 274.703764 
L 383.116075 272.626797 
L 389.412657 266.52016 
L 390.015899 266.091566 
L 395.308079 259.556335 
L 398.635429 257.904972 
L 404.188231 253.021104 
L 407.858202 250.746547 
L 413.243193 246.485872 
L 417.080975 243.786334 
L 422.156543 239.950641 
L 426.303747 236.719046 
L 430.774167 233.41541 
L 426.303747 230.192609 
L 421.883385 233.41541 
L 417.080975 236.524573 
L 412.329379 239.950641 
L 407.858202 243.139391 
L 403.191581 246.485872 
L 398.635429 250.062279 
L 394.499526 253.021104 
L 389.412657 257.41573 
L 386.417701 259.556335 
L 380.189884 265.483717 
L 379.339058 266.091566 
L 374.256372 272.626797 
L 370.967112 274.14265 
L 365.365525 279.162028 
L 361.744339 281.280935 
L 356.192948 285.697259 
L 352.521566 288.143136 
L 347.095911 292.23249 
L 343.298794 295.050653 
L 338.224941 298.767721 
L 334.076021 302.187446 
L 329.756561 305.302952 
z
M 331.976368 305.302952 
L 334.076021 303.788531 
L 336.220703 305.302952 
L 334.076021 306.851424 
z
M 340.167427 298.767721 
L 343.298794 296.473704 
L 346.406838 298.767721 
L 343.298794 300.993264 
z
M 349.013293 292.23249 
L 352.521566 289.58828 
L 355.876621 292.23249 
L 352.521566 294.623431 
z
M 358.36218 285.697259 
L 361.744339 283.006634 
L 364.756892 285.697259 
L 361.744339 287.838258 
z
M 368.314723 279.162028 
L 370.967112 276.785319 
L 372.980146 279.162028 
L 370.967112 280.590877 
z
M 379.990714 272.626797 
L 380.189884 272.345985 
L 380.288108 272.626797 
L 380.189884 272.696514 
z
M 389.23854 259.556335 
L 389.412657 259.431887 
L 389.755396 259.556335 
L 389.412657 260.001843 
z
M 396.833269 253.021104 
L 398.635429 251.731838 
L 401.054983 253.021104 
L 398.635429 255.149179 
z
M 405.318509 246.485872 
L 407.858202 244.664633 
L 410.788849 246.485872 
L 407.858202 248.804639 
z
M 414.468033 239.950641 
L 417.080975 238.066618 
L 419.872072 239.950641 
L 417.080975 242.05992 
z
M 424.265226 233.41541 
L 426.303747 231.929164 
L 428.365353 233.41541 
L 426.303747 234.938935 
z
M 435.52652 229.356579 
L 438.91413 226.880179 
L 435.52652 224.223876 
L 431.958231 226.880179 
z
M 434.922618 226.880179 
L 435.52652 226.430623 
L 436.099844 226.880179 
L 435.52652 227.299289 
z
M 444.749292 221.464563 
L 446.288188 220.344948 
L 444.749292 218.94727 
L 442.941141 220.344948 
z
" clip-path="url(#p1567649773)" style="fill: #63a8d3"/>
    <path d="M 334.076021 306.851424 
L 336.220703 305.302952 
L 334.076021 303.788531 
L 331.976368 305.302952 
z
M 332.428585 305.302952 
L 334.076021 304.114702 
L 335.758788 305.302952 
L 334.076021 306.517919 
z
M 343.298794 300.993264 
L 346.406838 298.767721 
L 343.298794 296.473704 
L 340.167427 298.767721 
z
M 340.563149 298.767721 
L 343.298794 296.763607 
L 346.014064 298.767721 
L 343.298794 300.712015 
z
M 352.521566 294.623431 
L 355.876621 292.23249 
L 352.521566 289.58828 
L 349.013293 292.23249 
z
M 349.403901 292.23249 
L 352.521566 289.882684 
L 355.503073 292.23249 
L 352.521566 294.357226 
z
M 361.744339 287.838258 
L 364.756892 285.697259 
L 361.744339 283.006634 
L 358.36218 285.697259 
z
M 358.804094 285.697259 
L 361.744339 283.358192 
L 364.363271 285.697259 
L 361.744339 287.558515 
z
M 370.967112 280.590877 
L 372.980146 279.162028 
L 370.967112 276.785319 
L 368.314723 279.162028 
z
M 368.91553 279.162028 
L 370.967112 277.323681 
L 372.524162 279.162028 
L 370.967112 280.26722 
z
M 380.189884 272.696514 
L 380.288108 272.626797 
L 380.189884 272.345985 
L 379.990714 272.626797 
z
M 389.412657 260.001843 
L 389.755396 259.556335 
L 389.412657 259.431887 
L 389.23854 259.556335 
z
M 398.635429 255.149179 
L 401.054983 253.021104 
L 398.635429 251.731838 
L 396.833269 253.021104 
z
M 397.308697 253.021104 
L 398.635429 252.07196 
L 400.41668 253.021104 
L 398.635429 254.587771 
z
M 407.858202 248.804639 
L 410.788849 246.485872 
L 407.858202 244.664633 
L 405.318509 246.485872 
z
M 405.751806 246.485872 
L 407.858202 244.975354 
L 410.288852 246.485872 
L 407.858202 248.409035 
z
M 417.080975 242.05992 
L 419.872072 239.950641 
L 417.080975 238.066618 
L 414.468033 239.950641 
z
M 414.903718 239.950641 
L 417.080975 238.380762 
L 419.406681 239.950641 
L 417.080975 241.708217 
z
M 426.303747 234.938935 
L 428.365353 233.41541 
L 426.303747 231.929164 
L 424.265226 233.41541 
z
M 424.750453 233.41541 
L 426.303747 232.282934 
L 427.874631 233.41541 
L 426.303747 234.576292 
z
M 435.52652 227.299289 
L 436.099844 226.880179 
L 435.52652 226.430623 
L 434.922618 226.880179 
z
" clip-path="url(#p1567649773)" style="fill: #3c8cc3"/>
    <path d="M 334.076021 306.517919 
L 335.758788 305.302952 
L 334.076021 304.114702 
L 332.428585 305.302952 
z
M 333.972773 305.302952 
L 334.076021 305.228481 
L 334.181484 305.302952 
L 334.076021 305.379096 
z
M 343.298794 300.712015 
L 346.014064 298.767721 
L 343.298794 296.763607 
L 340.563149 298.767721 
z
M 341.914421 298.767721 
L 343.298794 297.753539 
L 344.672856 298.767721 
L 343.298794 299.75163 
z
M 352.521566 294.357226 
L 355.503073 292.23249 
L 352.521566 289.882684 
L 349.403901 292.23249 
z
M 350.737709 292.23249 
L 352.521566 290.887984 
L 354.227516 292.23249 
L 352.521566 293.448215 
z
M 361.744339 287.558515 
L 364.363271 285.697259 
L 361.744339 283.358192 
L 358.804094 285.697259 
z
M 360.313099 285.697259 
L 361.744339 284.558658 
L 363.019171 285.697259 
L 361.744339 286.603273 
z
M 370.967112 280.26722 
L 372.524162 279.162028 
L 370.967112 277.323681 
L 368.91553 279.162028 
z
M 398.635429 254.587771 
L 400.41668 253.021104 
L 398.635429 252.07196 
L 397.308697 253.021104 
z
M 407.858202 248.409035 
L 410.288852 246.485872 
L 407.858202 244.975354 
L 405.751806 246.485872 
z
M 407.231383 246.485872 
L 407.858202 246.036375 
L 408.581512 246.485872 
L 407.858202 247.058164 
z
M 417.080975 241.708217 
L 419.406681 239.950641 
L 417.080975 238.380762 
L 414.903718 239.950641 
z
M 416.391452 239.950641 
L 417.080975 239.453471 
L 417.817511 239.950641 
L 417.080975 240.507254 
z
M 426.303747 234.576292 
L 427.874631 233.41541 
L 426.303747 232.282934 
L 424.750453 233.41541 
z
" clip-path="url(#p1567649773)" style="fill: #2373b6"/>
    <path d="M 334.076021 305.379096 
L 334.181484 305.302952 
L 334.076021 305.228481 
L 333.972773 305.302952 
z
M 343.298794 299.75163 
L 344.672856 298.767721 
L 343.298794 297.753539 
L 341.914421 298.767721 
z
M 342.486884 298.767721 
L 343.298794 298.172921 
L 344.104657 298.767721 
L 343.298794 299.344766 
z
M 352.521566 293.448215 
L 354.227516 292.23249 
L 352.521566 290.887984 
L 350.737709 292.23249 
z
M 351.302773 292.23249 
L 352.521566 291.313877 
L 353.687131 292.23249 
L 352.521566 293.063116 
z
M 361.744339 286.603273 
L 363.019171 285.697259 
L 361.744339 284.558658 
L 360.313099 285.697259 
z
M 360.952385 285.697259 
L 361.744339 285.067231 
L 362.449748 285.697259 
L 361.744339 286.198588 
z
M 407.858202 247.058164 
L 408.581512 246.485872 
L 407.858202 246.036375 
L 407.231383 246.485872 
z
M 417.080975 240.507254 
L 417.817511 239.950641 
L 417.080975 239.453471 
L 416.391452 239.950641 
z
M 417.021725 239.950641 
L 417.080975 239.907921 
L 417.144264 239.950641 
L 417.080975 239.99847 
z
" clip-path="url(#p1567649773)" style="fill: #0e59a2"/>
    <path d="M 343.298794 299.344766 
L 344.104657 298.767721 
L 343.298794 298.172921 
L 342.486884 298.767721 
z
M 343.196057 298.767721 
L 343.298794 298.692456 
L 343.400766 298.767721 
L 343.298794 298.840739 
z
M 352.521566 293.063116 
L 353.687131 292.23249 
L 352.521566 291.313877 
L 351.302773 292.23249 
z
M 352.002781 292.23249 
L 352.521566 291.841477 
L 353.017695 292.23249 
L 352.521566 292.58605 
z
M 361.744339 286.198588 
L 362.449748 285.697259 
L 361.744339 285.067231 
L 360.952385 285.697259 
z
M 417.080975 239.99847 
L 417.144264 239.950641 
L 417.080975 239.907921 
L 417.021725 239.950641 
z
" clip-path="url(#p1567649773)" style="fill: #08488e"/>
    <path d="M 343.298794 298.840739 
L 343.400766 298.767721 
L 343.298794 298.692456 
L 343.196057 298.767721 
z
M 352.521566 292.58605 
L 353.017695 292.23249 
L 352.521566 291.841477 
L 352.002781 292.23249 
z
" clip-path="url(#p1567649773)" style="fill: #083776"/>
   </g>
   <g id="matplotlib.axis_1">
    <g id="xtick_1">
     <g id="line2d_1">
      <defs>
       <path id="m7f5f24a469" d="M 0 0 
L 0 3.5 
" style="stroke: #000000; stroke-width: 0.8"/>
      </defs>
      <g>
       <use xlink:href="#m7f5f24a469" x="102.17" y="499.48" style="stroke: #000000; stroke-width: 0.8"/>
      </g>
     </g>
     <g id="text_1">
      <!-- −80 -->
      <g transform="translate(78.954844 523.196563) scale(0.22 -0.22)">
       <defs>
        <path id="DejaVuSans-2212" d="M 678 2272 
L 4684 2272 
L 4684 1741 
L 678 1741 
L 678 2272 
z
" transform="scale(0.015625)"/>
        <path id="DejaVuSans-38" d="M 2034 2216 
Q 1584 2216 1326 1975 
Q 1069 1734 1069 1313 
Q 1069 891 1326 650 
Q 1584 409 2034 409 
Q 2484 409 2743 651 
Q 3003 894 3003 1313 
Q 3003 1734 2745 1975 
Q 2488 2216 2034 2216 
z
M 1403 2484 
Q 997 2584 770 2862 
Q 544 3141 544 3541 
Q 544 4100 942 4425 
Q 1341 4750 2034 4750 
Q 2731 4750 3128 4425 
Q 3525 4100 3525 3541 
Q 3525 3141 3298 2862 
Q 3072 2584 2669 2484 
Q 3125 2378 3379 2068 
Q 3634 1759 3634 1313 
Q 3634 634 3220 271 
Q 2806 -91 2034 -91 
Q 1263 -91 848 271 
Q 434 634 434 1313 
Q 434 1759 690 2068 
Q 947 2378 1403 2484 
z
M 1172 3481 
Q 1172 3119 1398 2916 
Q 1625 2713 2034 2713 
Q 2441 2713 2670 2916 
Q 2900 3119 2900 3481 
Q 2900 3844 2670 4047 
Q 2441 4250 2034 4250 
Q 1625 4250 1398 4047 
Q 1172 3844 1172 3481 
z
" transform="scale(0.015625)"/>
        <path id="DejaVuSans-30" d="M 2034 4250 
Q 1547 4250 1301 3770 
Q 1056 3291 1056 2328 
Q 1056 1369 1301 889 
Q 1547 409 2034 409 
Q 2525 409 2770 889 
Q 3016 1369 3016 2328 
Q 3016 3291 2770 3770 
Q 2525 4250 2034 4250 
z
M 2034 4750 
Q 2819 4750 3233 4129 
Q 3647 3509 3647 2328 
Q 3647 1150 3233 529 
Q 2819 -91 2034 -91 
Q 1250 -91 836 529 
Q 422 1150 422 2328 
Q 422 3509 836 4129 
Q 1250 4750 2034 4750 
z
" transform="scale(0.015625)"/>
       </defs>
       <use xlink:href="#DejaVuSans-2212"/>
       <use xlink:href="#DejaVuSans-38" x="83.789062"/>
       <use xlink:href="#DejaVuSans-30" x="147.412109"/>
      </g>
     </g>
    </g>
    <g id="xtick_2">
     <g id="line2d_2">
      <g>
       <use xlink:href="#m7f5f24a469" x="174.67375" y="499.48" style="stroke: #000000; stroke-width: 0.8"/>
      </g>
     </g>
     <g id="text_2">
      <!-- −60 -->
      <g transform="translate(151.458594 523.196563) scale(0.22 -0.22)">
       <defs>
        <path id="DejaVuSans-36" d="M 2113 2584 
Q 1688 2584 1439 2293 
Q 1191 2003 1191 1497 
Q 1191 994 1439 701 
Q 1688 409 2113 409 
Q 2538 409 2786 701 
Q 3034 994 3034 1497 
Q 3034 2003 2786 2293 
Q 2538 2584 2113 2584 
z
M 3366 4563 
L 3366 3988 
Q 3128 4100 2886 4159 
Q 2644 4219 2406 4219 
Q 1781 4219 1451 3797 
Q 1122 3375 1075 2522 
Q 1259 2794 1537 2939 
Q 1816 3084 2150 3084 
Q 2853 3084 3261 2657 
Q 3669 2231 3669 1497 
Q 3669 778 3244 343 
Q 2819 -91 2113 -91 
Q 1303 -91 875 529 
Q 447 1150 447 2328 
Q 447 3434 972 4092 
Q 1497 4750 2381 4750 
Q 2619 4750 2861 4703 
Q 3103 4656 3366 4563 
z
" transform="scale(0.015625)"/>
       </defs>
       <use xlink:href="#DejaVuSans-2212"/>
       <use xlink:href="#DejaVuSans-36" x="83.789062"/>
       <use xlink:href="#DejaVuSans-30" x="147.412109"/>
      </g>
     </g>
    </g>
    <g id="xtick_3">
     <g id="line2d_3">
      <g>
       <use xlink:href="#m7f5f24a469" x="247.1775" y="499.48" style="stroke: #000000; stroke-width: 0.8"/>
      </g>
     </g>
     <g id="text_3">
      <!-- −40 -->
      <g transform="translate(223.962344 523.196563) scale(0.22 -0.22)">
       <defs>
        <path id="DejaVuSans-34" d="M 2419 4116 
L 825 1625 
L 2419 1625 
L 2419 4116 
z
M 2253 4666 
L 3047 4666 
L 3047 1625 
L 3713 1625 
L 3713 1100 
L 3047 1100 
L 3047 0 
L 2419 0 
L 2419 1100 
L 313 1100 
L 313 1709 
L 2253 4666 
z
" transform="scale(0.015625)"/>
       </defs>
       <use xlink:href="#DejaVuSans-2212"/>
       <use xlink:href="#DejaVuSans-34" x="83.789062"/>
       <use xlink:href="#DejaVuSans-30" x="147.412109"/>
      </g>
     </g>
    </g>
    <g id="xtick_4">
     <g id="line2d_4">
      <g>
       <use xlink:href="#m7f5f24a469" x="319.68125" y="499.48" style="stroke: #000000; stroke-width: 0.8"/>
      </g>
     </g>
     <g id="text_4">
      <!-- −20 -->
      <g transform="translate(296.466094 523.196563) scale(0.22 -0.22)">
       <defs>
        <path id="DejaVuSans-32" d="M 1228 531 
L 3431 531 
L 3431 0 
L 469 0 
L 469 531 
Q 828 903 1448 1529 
Q 2069 2156 2228 2338 
Q 2531 2678 2651 2914 
Q 2772 3150 2772 3378 
Q 2772 3750 2511 3984 
Q 2250 4219 1831 4219 
Q 1534 4219 1204 4116 
Q 875 4013 500 3803 
L 500 4441 
Q 881 4594 1212 4672 
Q 1544 4750 1819 4750 
Q 2544 4750 2975 4387 
Q 3406 4025 3406 3419 
Q 3406 3131 3298 2873 
Q 3191 2616 2906 2266 
Q 2828 2175 2409 1742 
Q 1991 1309 1228 531 
z
" transform="scale(0.015625)"/>
       </defs>
       <use xlink:href="#DejaVuSans-2212"/>
       <use xlink:href="#DejaVuSans-32" x="83.789062"/>
       <use xlink:href="#DejaVuSans-30" x="147.412109"/>
      </g>
     </g>
    </g>
    <g id="xtick_5">
     <g id="line2d_5">
      <g>
       <use xlink:href="#m7f5f24a469" x="392.185" y="499.48" style="stroke: #000000; stroke-width: 0.8"/>
      </g>
     </g>
     <g id="text_5">
      <!-- 0 -->
      <g transform="translate(385.18625 523.196563) scale(0.22 -0.22)">
       <use xlink:href="#DejaVuSans-30"/>
      </g>
     </g>
    </g>
    <g id="xtick_6">
     <g id="line2d_6">
      <g>
       <use xlink:href="#m7f5f24a469" x="464.68875" y="499.48" style="stroke: #000000; stroke-width: 0.8"/>
      </g>
     </g>
     <g id="text_6">
      <!-- 20 -->
      <g transform="translate(450.69125 523.196563) scale(0.22 -0.22)">
       <use xlink:href="#DejaVuSans-32"/>
       <use xlink:href="#DejaVuSans-30" x="63.623047"/>
      </g>
     </g>
    </g>
    <g id="xtick_7">
     <g id="line2d_7">
      <g>
       <use xlink:href="#m7f5f24a469" x="537.1925" y="499.48" style="stroke: #000000; stroke-width: 0.8"/>
      </g>
     </g>
     <g id="text_7">
      <!-- 40 -->
      <g transform="translate(523.195 523.196563) scale(0.22 -0.22)">
       <use xlink:href="#DejaVuSans-34"/>
       <use xlink:href="#DejaVuSans-30" x="63.623047"/>
      </g>
     </g>
    </g>
    <g id="xtick_8">
     <g id="line2d_8">
      <g>
       <use xlink:href="#m7f5f24a469" x="609.69625" y="499.48" style="stroke: #000000; stroke-width: 0.8"/>
      </g>
     </g>
     <g id="text_8">
      <!-- 60 -->
      <g transform="translate(595.69875 523.196563) scale(0.22 -0.22)">
       <use xlink:href="#DejaVuSans-36"/>
       <use xlink:href="#DejaVuSans-30" x="63.623047"/>
      </g>
     </g>
    </g>
    <g id="xtick_9">
     <g id="line2d_9">
      <g>
       <use xlink:href="#m7f5f24a469" x="682.2" y="499.48" style="stroke: #000000; stroke-width: 0.8"/>
      </g>
     </g>
     <g id="text_9">
      <!-- 80 -->
      <g transform="translate(668.2025 523.196563) scale(0.22 -0.22)">
       <use xlink:href="#DejaVuSans-38"/>
       <use xlink:href="#DejaVuSans-30" x="63.623047"/>
      </g>
     </g>
    </g>
    <g id="text_10">
     <!-- Ground Truth Energy [kJ/mol] -->
     <g transform="translate(232.45125 548.488438) scale(0.22 -0.22)">
      <defs>
       <path id="DejaVuSans-47" d="M 3809 666 
L 3809 1919 
L 2778 1919 
L 2778 2438 
L 4434 2438 
L 4434 434 
Q 4069 175 3628 42 
Q 3188 -91 2688 -91 
Q 1594 -91 976 548 
Q 359 1188 359 2328 
Q 359 3472 976 4111 
Q 1594 4750 2688 4750 
Q 3144 4750 3555 4637 
Q 3966 4525 4313 4306 
L 4313 3634 
Q 3963 3931 3569 4081 
Q 3175 4231 2741 4231 
Q 1884 4231 1454 3753 
Q 1025 3275 1025 2328 
Q 1025 1384 1454 906 
Q 1884 428 2741 428 
Q 3075 428 3337 486 
Q 3600 544 3809 666 
z
" transform="scale(0.015625)"/>
       <path id="DejaVuSans-72" d="M 2631 2963 
Q 2534 3019 2420 3045 
Q 2306 3072 2169 3072 
Q 1681 3072 1420 2755 
Q 1159 2438 1159 1844 
L 1159 0 
L 581 0 
L 581 3500 
L 1159 3500 
L 1159 2956 
Q 1341 3275 1631 3429 
Q 1922 3584 2338 3584 
Q 2397 3584 2469 3576 
Q 2541 3569 2628 3553 
L 2631 2963 
z
" transform="scale(0.015625)"/>
       <path id="DejaVuSans-6f" d="M 1959 3097 
Q 1497 3097 1228 2736 
Q 959 2375 959 1747 
Q 959 1119 1226 758 
Q 1494 397 1959 397 
Q 2419 397 2687 759 
Q 2956 1122 2956 1747 
Q 2956 2369 2687 2733 
Q 2419 3097 1959 3097 
z
M 1959 3584 
Q 2709 3584 3137 3096 
Q 3566 2609 3566 1747 
Q 3566 888 3137 398 
Q 2709 -91 1959 -91 
Q 1206 -91 779 398 
Q 353 888 353 1747 
Q 353 2609 779 3096 
Q 1206 3584 1959 3584 
z
" transform="scale(0.015625)"/>
       <path id="DejaVuSans-75" d="M 544 1381 
L 544 3500 
L 1119 3500 
L 1119 1403 
Q 1119 906 1312 657 
Q 1506 409 1894 409 
Q 2359 409 2629 706 
Q 2900 1003 2900 1516 
L 2900 3500 
L 3475 3500 
L 3475 0 
L 2900 0 
L 2900 538 
Q 2691 219 2414 64 
Q 2138 -91 1772 -91 
Q 1169 -91 856 284 
Q 544 659 544 1381 
z
M 1991 3584 
L 1991 3584 
z
" transform="scale(0.015625)"/>
       <path id="DejaVuSans-6e" d="M 3513 2113 
L 3513 0 
L 2938 0 
L 2938 2094 
Q 2938 2591 2744 2837 
Q 2550 3084 2163 3084 
Q 1697 3084 1428 2787 
Q 1159 2491 1159 1978 
L 1159 0 
L 581 0 
L 581 3500 
L 1159 3500 
L 1159 2956 
Q 1366 3272 1645 3428 
Q 1925 3584 2291 3584 
Q 2894 3584 3203 3211 
Q 3513 2838 3513 2113 
z
" transform="scale(0.015625)"/>
       <path id="DejaVuSans-64" d="M 2906 2969 
L 2906 4863 
L 3481 4863 
L 3481 0 
L 2906 0 
L 2906 525 
Q 2725 213 2448 61 
Q 2172 -91 1784 -91 
Q 1150 -91 751 415 
Q 353 922 353 1747 
Q 353 2572 751 3078 
Q 1150 3584 1784 3584 
Q 2172 3584 2448 3432 
Q 2725 3281 2906 2969 
z
M 947 1747 
Q 947 1113 1208 752 
Q 1469 391 1925 391 
Q 2381 391 2643 752 
Q 2906 1113 2906 1747 
Q 2906 2381 2643 2742 
Q 2381 3103 1925 3103 
Q 1469 3103 1208 2742 
Q 947 2381 947 1747 
z
" transform="scale(0.015625)"/>
       <path id="DejaVuSans-20" transform="scale(0.015625)"/>
       <path id="DejaVuSans-54" d="M -19 4666 
L 3928 4666 
L 3928 4134 
L 2272 4134 
L 2272 0 
L 1638 0 
L 1638 4134 
L -19 4134 
L -19 4666 
z
" transform="scale(0.015625)"/>
       <path id="DejaVuSans-74" d="M 1172 4494 
L 1172 3500 
L 2356 3500 
L 2356 3053 
L 1172 3053 
L 1172 1153 
Q 1172 725 1289 603 
Q 1406 481 1766 481 
L 2356 481 
L 2356 0 
L 1766 0 
Q 1100 0 847 248 
Q 594 497 594 1153 
L 594 3053 
L 172 3053 
L 172 3500 
L 594 3500 
L 594 4494 
L 1172 4494 
z
" transform="scale(0.015625)"/>
       <path id="DejaVuSans-68" d="M 3513 2113 
L 3513 0 
L 2938 0 
L 2938 2094 
Q 2938 2591 2744 2837 
Q 2550 3084 2163 3084 
Q 1697 3084 1428 2787 
Q 1159 2491 1159 1978 
L 1159 0 
L 581 0 
L 581 4863 
L 1159 4863 
L 1159 2956 
Q 1366 3272 1645 3428 
Q 1925 3584 2291 3584 
Q 2894 3584 3203 3211 
Q 3513 2838 3513 2113 
z
" transform="scale(0.015625)"/>
       <path id="DejaVuSans-45" d="M 628 4666 
L 3578 4666 
L 3578 4134 
L 1259 4134 
L 1259 2753 
L 3481 2753 
L 3481 2222 
L 1259 2222 
L 1259 531 
L 3634 531 
L 3634 0 
L 628 0 
L 628 4666 
z
" transform="scale(0.015625)"/>
       <path id="DejaVuSans-65" d="M 3597 1894 
L 3597 1613 
L 953 1613 
Q 991 1019 1311 708 
Q 1631 397 2203 397 
Q 2534 397 2845 478 
Q 3156 559 3463 722 
L 3463 178 
Q 3153 47 2828 -22 
Q 2503 -91 2169 -91 
Q 1331 -91 842 396 
Q 353 884 353 1716 
Q 353 2575 817 3079 
Q 1281 3584 2069 3584 
Q 2775 3584 3186 3129 
Q 3597 2675 3597 1894 
z
M 3022 2063 
Q 3016 2534 2758 2815 
Q 2500 3097 2075 3097 
Q 1594 3097 1305 2825 
Q 1016 2553 972 2059 
L 3022 2063 
z
" transform="scale(0.015625)"/>
       <path id="DejaVuSans-67" d="M 2906 1791 
Q 2906 2416 2648 2759 
Q 2391 3103 1925 3103 
Q 1463 3103 1205 2759 
Q 947 2416 947 1791 
Q 947 1169 1205 825 
Q 1463 481 1925 481 
Q 2391 481 2648 825 
Q 2906 1169 2906 1791 
z
M 3481 434 
Q 3481 -459 3084 -895 
Q 2688 -1331 1869 -1331 
Q 1566 -1331 1297 -1286 
Q 1028 -1241 775 -1147 
L 775 -588 
Q 1028 -725 1275 -790 
Q 1522 -856 1778 -856 
Q 2344 -856 2625 -561 
Q 2906 -266 2906 331 
L 2906 616 
Q 2728 306 2450 153 
Q 2172 0 1784 0 
Q 1141 0 747 490 
Q 353 981 353 1791 
Q 353 2603 747 3093 
Q 1141 3584 1784 3584 
Q 2172 3584 2450 3431 
Q 2728 3278 2906 2969 
L 2906 3500 
L 3481 3500 
L 3481 434 
z
" transform="scale(0.015625)"/>
       <path id="DejaVuSans-79" d="M 2059 -325 
Q 1816 -950 1584 -1140 
Q 1353 -1331 966 -1331 
L 506 -1331 
L 506 -850 
L 844 -850 
Q 1081 -850 1212 -737 
Q 1344 -625 1503 -206 
L 1606 56 
L 191 3500 
L 800 3500 
L 1894 763 
L 2988 3500 
L 3597 3500 
L 2059 -325 
z
" transform="scale(0.015625)"/>
       <path id="DejaVuSans-5b" d="M 550 4863 
L 1875 4863 
L 1875 4416 
L 1125 4416 
L 1125 -397 
L 1875 -397 
L 1875 -844 
L 550 -844 
L 550 4863 
z
" transform="scale(0.015625)"/>
       <path id="DejaVuSans-6b" d="M 581 4863 
L 1159 4863 
L 1159 1991 
L 2875 3500 
L 3609 3500 
L 1753 1863 
L 3688 0 
L 2938 0 
L 1159 1709 
L 1159 0 
L 581 0 
L 581 4863 
z
" transform="scale(0.015625)"/>
       <path id="DejaVuSans-4a" d="M 628 4666 
L 1259 4666 
L 1259 325 
Q 1259 -519 939 -900 
Q 619 -1281 -91 -1281 
L -331 -1281 
L -331 -750 
L -134 -750 
Q 284 -750 456 -515 
Q 628 -281 628 325 
L 628 4666 
z
" transform="scale(0.015625)"/>
       <path id="DejaVuSans-2f" d="M 1625 4666 
L 2156 4666 
L 531 -594 
L 0 -594 
L 1625 4666 
z
" transform="scale(0.015625)"/>
       <path id="DejaVuSans-6d" d="M 3328 2828 
Q 3544 3216 3844 3400 
Q 4144 3584 4550 3584 
Q 5097 3584 5394 3201 
Q 5691 2819 5691 2113 
L 5691 0 
L 5113 0 
L 5113 2094 
Q 5113 2597 4934 2840 
Q 4756 3084 4391 3084 
Q 3944 3084 3684 2787 
Q 3425 2491 3425 1978 
L 3425 0 
L 2847 0 
L 2847 2094 
Q 2847 2600 2669 2842 
Q 2491 3084 2119 3084 
Q 1678 3084 1418 2786 
Q 1159 2488 1159 1978 
L 1159 0 
L 581 0 
L 581 3500 
L 1159 3500 
L 1159 2956 
Q 1356 3278 1631 3431 
Q 1906 3584 2284 3584 
Q 2666 3584 2933 3390 
Q 3200 3197 3328 2828 
z
" transform="scale(0.015625)"/>
       <path id="DejaVuSans-6c" d="M 603 4863 
L 1178 4863 
L 1178 0 
L 603 0 
L 603 4863 
z
" transform="scale(0.015625)"/>
       <path id="DejaVuSans-5d" d="M 1947 4863 
L 1947 -844 
L 622 -844 
L 622 -397 
L 1369 -397 
L 1369 4416 
L 622 4416 
L 622 4863 
L 1947 4863 
z
" transform="scale(0.015625)"/>
      </defs>
      <use xlink:href="#DejaVuSans-47"/>
      <use xlink:href="#DejaVuSans-72" x="77.490234"/>
      <use xlink:href="#DejaVuSans-6f" x="116.353516"/>
      <use xlink:href="#DejaVuSans-75" x="177.535156"/>
      <use xlink:href="#DejaVuSans-6e" x="240.914062"/>
      <use xlink:href="#DejaVuSans-64" x="304.292969"/>
      <use xlink:href="#DejaVuSans-20" x="367.769531"/>
      <use xlink:href="#DejaVuSans-54" x="399.556641"/>
      <use xlink:href="#DejaVuSans-72" x="445.890625"/>
      <use xlink:href="#DejaVuSans-75" x="487.003906"/>
      <use xlink:href="#DejaVuSans-74" x="550.382812"/>
      <use xlink:href="#DejaVuSans-68" x="589.591797"/>
      <use xlink:href="#DejaVuSans-20" x="652.970703"/>
      <use xlink:href="#DejaVuSans-45" x="684.757812"/>
      <use xlink:href="#DejaVuSans-6e" x="747.941406"/>
      <use xlink:href="#DejaVuSans-65" x="811.320312"/>
      <use xlink:href="#DejaVuSans-72" x="872.84375"/>
      <use xlink:href="#DejaVuSans-67" x="912.207031"/>
      <use xlink:href="#DejaVuSans-79" x="975.683594"/>
      <use xlink:href="#DejaVuSans-20" x="1034.863281"/>
      <use xlink:href="#DejaVuSans-5b" x="1066.650391"/>
      <use xlink:href="#DejaVuSans-6b" x="1105.664062"/>
      <use xlink:href="#DejaVuSans-4a" x="1163.574219"/>
      <use xlink:href="#DejaVuSans-2f" x="1193.066406"/>
      <use xlink:href="#DejaVuSans-6d" x="1226.757812"/>
      <use xlink:href="#DejaVuSans-6f" x="1324.169922"/>
      <use xlink:href="#DejaVuSans-6c" x="1385.351562"/>
      <use xlink:href="#DejaVuSans-5d" x="1413.134766"/>
     </g>
    </g>
   </g>
   <g id="matplotlib.axis_2">
    <g id="ytick_1">
     <g id="line2d_10">
      <defs>
       <path id="ma6c549c078" d="M 0 0 
L -3.5 0 
" style="stroke: #000000; stroke-width: 0.8"/>
      </defs>
      <g>
       <use xlink:href="#ma6c549c078" x="102.17" y="499.48" style="stroke: #000000; stroke-width: 0.8"/>
      </g>
     </g>
     <g id="text_11">
      <!-- −80 -->
      <g transform="translate(48.739688 507.838281) scale(0.22 -0.22)">
       <use xlink:href="#DejaVuSans-2212"/>
       <use xlink:href="#DejaVuSans-38" x="83.789062"/>
       <use xlink:href="#DejaVuSans-30" x="147.412109"/>
      </g>
     </g>
    </g>
    <g id="ytick_2">
     <g id="line2d_11">
      <g>
       <use xlink:href="#ma6c549c078" x="102.17" y="441.05" style="stroke: #000000; stroke-width: 0.8"/>
      </g>
     </g>
     <g id="text_12">
      <!-- −60 -->
      <g transform="translate(48.739688 449.408281) scale(0.22 -0.22)">
       <use xlink:href="#DejaVuSans-2212"/>
       <use xlink:href="#DejaVuSans-36" x="83.789062"/>
       <use xlink:href="#DejaVuSans-30" x="147.412109"/>
      </g>
     </g>
    </g>
    <g id="ytick_3">
     <g id="line2d_12">
      <g>
       <use xlink:href="#ma6c549c078" x="102.17" y="382.62" style="stroke: #000000; stroke-width: 0.8"/>
      </g>
     </g>
     <g id="text_13">
      <!-- −40 -->
      <g transform="translate(48.739688 390.978281) scale(0.22 -0.22)">
       <use xlink:href="#DejaVuSans-2212"/>
       <use xlink:href="#DejaVuSans-34" x="83.789062"/>
       <use xlink:href="#DejaVuSans-30" x="147.412109"/>
      </g>
     </g>
    </g>
    <g id="ytick_4">
     <g id="line2d_13">
      <g>
       <use xlink:href="#ma6c549c078" x="102.17" y="324.19" style="stroke: #000000; stroke-width: 0.8"/>
      </g>
     </g>
     <g id="text_14">
      <!-- −20 -->
      <g transform="translate(48.739688 332.548281) scale(0.22 -0.22)">
       <use xlink:href="#DejaVuSans-2212"/>
       <use xlink:href="#DejaVuSans-32" x="83.789062"/>
       <use xlink:href="#DejaVuSans-30" x="147.412109"/>
      </g>
     </g>
    </g>
    <g id="ytick_5">
     <g id="line2d_14">
      <g>
       <use xlink:href="#ma6c549c078" x="102.17" y="265.76" style="stroke: #000000; stroke-width: 0.8"/>
      </g>
     </g>
     <g id="text_15">
      <!-- 0 -->
      <g transform="translate(81.1725 274.118281) scale(0.22 -0.22)">
       <use xlink:href="#DejaVuSans-30"/>
      </g>
     </g>
    </g>
    <g id="ytick_6">
     <g id="line2d_15">
      <g>
       <use xlink:href="#ma6c549c078" x="102.17" y="207.33" style="stroke: #000000; stroke-width: 0.8"/>
      </g>
     </g>
     <g id="text_16">
      <!-- 20 -->
      <g transform="translate(67.175 215.688281) scale(0.22 -0.22)">
       <use xlink:href="#DejaVuSans-32"/>
       <use xlink:href="#DejaVuSans-30" x="63.623047"/>
      </g>
     </g>
    </g>
    <g id="ytick_7">
     <g id="line2d_16">
      <g>
       <use xlink:href="#ma6c549c078" x="102.17" y="148.9" style="stroke: #000000; stroke-width: 0.8"/>
      </g>
     </g>
     <g id="text_17">
      <!-- 40 -->
      <g transform="translate(67.175 157.258281) scale(0.22 -0.22)">
       <use xlink:href="#DejaVuSans-34"/>
       <use xlink:href="#DejaVuSans-30" x="63.623047"/>
      </g>
     </g>
    </g>
    <g id="ytick_8">
     <g id="line2d_17">
      <g>
       <use xlink:href="#ma6c549c078" x="102.17" y="90.47" style="stroke: #000000; stroke-width: 0.8"/>
      </g>
     </g>
     <g id="text_18">
      <!-- 60 -->
      <g transform="translate(67.175 98.828281) scale(0.22 -0.22)">
       <use xlink:href="#DejaVuSans-36"/>
       <use xlink:href="#DejaVuSans-30" x="63.623047"/>
      </g>
     </g>
    </g>
    <g id="ytick_9">
     <g id="line2d_18">
      <g>
       <use xlink:href="#ma6c549c078" x="102.17" y="32.04" style="stroke: #000000; stroke-width: 0.8"/>
      </g>
     </g>
     <g id="text_19">
      <!-- 80 -->
      <g transform="translate(67.175 40.398281) scale(0.22 -0.22)">
       <use xlink:href="#DejaVuSans-38"/>
       <use xlink:href="#DejaVuSans-30" x="63.623047"/>
      </g>
     </g>
    </g>
    <g id="text_20">
     <!-- Predicted Energy [kJ/mol] -->
     <g transform="translate(40.164375 405.305313) rotate(-90) scale(0.22 -0.22)">
      <defs>
       <path id="DejaVuSans-50" d="M 1259 4147 
L 1259 2394 
L 2053 2394 
Q 2494 2394 2734 2622 
Q 2975 2850 2975 3272 
Q 2975 3691 2734 3919 
Q 2494 4147 2053 4147 
L 1259 4147 
z
M 628 4666 
L 2053 4666 
Q 2838 4666 3239 4311 
Q 3641 3956 3641 3272 
Q 3641 2581 3239 2228 
Q 2838 1875 2053 1875 
L 1259 1875 
L 1259 0 
L 628 0 
L 628 4666 
z
" transform="scale(0.015625)"/>
       <path id="DejaVuSans-69" d="M 603 3500 
L 1178 3500 
L 1178 0 
L 603 0 
L 603 3500 
z
M 603 4863 
L 1178 4863 
L 1178 4134 
L 603 4134 
L 603 4863 
z
" transform="scale(0.015625)"/>
       <path id="DejaVuSans-63" d="M 3122 3366 
L 3122 2828 
Q 2878 2963 2633 3030 
Q 2388 3097 2138 3097 
Q 1578 3097 1268 2742 
Q 959 2388 959 1747 
Q 959 1106 1268 751 
Q 1578 397 2138 397 
Q 2388 397 2633 464 
Q 2878 531 3122 666 
L 3122 134 
Q 2881 22 2623 -34 
Q 2366 -91 2075 -91 
Q 1284 -91 818 406 
Q 353 903 353 1747 
Q 353 2603 823 3093 
Q 1294 3584 2113 3584 
Q 2378 3584 2631 3529 
Q 2884 3475 3122 3366 
z
" transform="scale(0.015625)"/>
      </defs>
      <use xlink:href="#DejaVuSans-50"/>
      <use xlink:href="#DejaVuSans-72" x="58.552734"/>
      <use xlink:href="#DejaVuSans-65" x="97.416016"/>
      <use xlink:href="#DejaVuSans-64" x="158.939453"/>
      <use xlink:href="#DejaVuSans-69" x="222.416016"/>
      <use xlink:href="#DejaVuSans-63" x="250.199219"/>
      <use xlink:href="#DejaVuSans-74" x="305.179688"/>
      <use xlink:href="#DejaVuSans-65" x="344.388672"/>
      <use xlink:href="#DejaVuSans-64" x="405.912109"/>
      <use xlink:href="#DejaVuSans-20" x="469.388672"/>
      <use xlink:href="#DejaVuSans-45" x="501.175781"/>
      <use xlink:href="#DejaVuSans-6e" x="564.359375"/>
      <use xlink:href="#DejaVuSans-65" x="627.738281"/>
      <use xlink:href="#DejaVuSans-72" x="689.261719"/>
      <use xlink:href="#DejaVuSans-67" x="728.625"/>
      <use xlink:href="#DejaVuSans-79" x="792.101562"/>
      <use xlink:href="#DejaVuSans-20" x="851.28125"/>
      <use xlink:href="#DejaVuSans-5b" x="883.068359"/>
      <use xlink:href="#DejaVuSans-6b" x="922.082031"/>
      <use xlink:href="#DejaVuSans-4a" x="979.992188"/>
      <use xlink:href="#DejaVuSans-2f" x="1009.484375"/>
      <use xlink:href="#DejaVuSans-6d" x="1043.175781"/>
      <use xlink:href="#DejaVuSans-6f" x="1140.587891"/>
      <use xlink:href="#DejaVuSans-6c" x="1201.769531"/>
      <use xlink:href="#DejaVuSans-5d" x="1229.552734"/>
     </g>
    </g>
   </g>
   <g id="line2d_19">
    <path d="M 102.17 499.48 
L 682.2 32.04 
" clip-path="url(#p1567649773)" style="fill: none; stroke-dasharray: 5.55,2.4; stroke-dashoffset: 0; stroke: #ff0000; stroke-width: 1.5"/>
   </g>
   <g id="patch_3">
    <path d="M 102.17 499.48 
L 102.17 32.04 
" style="fill: none; stroke: #000000; stroke-width: 0.8; stroke-linejoin: miter; stroke-linecap: square"/>
   </g>
   <g id="patch_4">
    <path d="M 682.2 499.48 
L 682.2 32.04 
" style="fill: none; stroke: #000000; stroke-width: 0.8; stroke-linejoin: miter; stroke-linecap: square"/>
   </g>
   <g id="patch_5">
    <path d="M 102.17 499.48 
L 682.2 499.48 
" style="fill: none; stroke: #000000; stroke-width: 0.8; stroke-linejoin: miter; stroke-linecap: square"/>
   </g>
   <g id="patch_6">
    <path d="M 102.17 32.04 
L 682.2 32.04 
" style="fill: none; stroke: #000000; stroke-width: 0.8; stroke-linejoin: miter; stroke-linecap: square"/>
   </g>
   <g id="text_21">
    <!-- R2 Score: 0.982 -->
    <g transform="translate(160.173 78.784) scale(0.22 -0.22)">
     <defs>
      <path id="DejaVuSans-52" d="M 2841 2188 
Q 3044 2119 3236 1894 
Q 3428 1669 3622 1275 
L 4263 0 
L 3584 0 
L 2988 1197 
Q 2756 1666 2539 1819 
Q 2322 1972 1947 1972 
L 1259 1972 
L 1259 0 
L 628 0 
L 628 4666 
L 2053 4666 
Q 2853 4666 3247 4331 
Q 3641 3997 3641 3322 
Q 3641 2881 3436 2590 
Q 3231 2300 2841 2188 
z
M 1259 4147 
L 1259 2491 
L 2053 2491 
Q 2509 2491 2742 2702 
Q 2975 2913 2975 3322 
Q 2975 3731 2742 3939 
Q 2509 4147 2053 4147 
L 1259 4147 
z
" transform="scale(0.015625)"/>
      <path id="DejaVuSans-53" d="M 3425 4513 
L 3425 3897 
Q 3066 4069 2747 4153 
Q 2428 4238 2131 4238 
Q 1616 4238 1336 4038 
Q 1056 3838 1056 3469 
Q 1056 3159 1242 3001 
Q 1428 2844 1947 2747 
L 2328 2669 
Q 3034 2534 3370 2195 
Q 3706 1856 3706 1288 
Q 3706 609 3251 259 
Q 2797 -91 1919 -91 
Q 1588 -91 1214 -16 
Q 841 59 441 206 
L 441 856 
Q 825 641 1194 531 
Q 1563 422 1919 422 
Q 2459 422 2753 634 
Q 3047 847 3047 1241 
Q 3047 1584 2836 1778 
Q 2625 1972 2144 2069 
L 1759 2144 
Q 1053 2284 737 2584 
Q 422 2884 422 3419 
Q 422 4038 858 4394 
Q 1294 4750 2059 4750 
Q 2388 4750 2728 4690 
Q 3069 4631 3425 4513 
z
" transform="scale(0.015625)"/>
      <path id="DejaVuSans-3a" d="M 750 794 
L 1409 794 
L 1409 0 
L 750 0 
L 750 794 
z
M 750 3309 
L 1409 3309 
L 1409 2516 
L 750 2516 
L 750 3309 
z
" transform="scale(0.015625)"/>
      <path id="DejaVuSans-2e" d="M 684 794 
L 1344 794 
L 1344 0 
L 684 0 
L 684 794 
z
" transform="scale(0.015625)"/>
      <path id="DejaVuSans-39" d="M 703 97 
L 703 672 
Q 941 559 1184 500 
Q 1428 441 1663 441 
Q 2288 441 2617 861 
Q 2947 1281 2994 2138 
Q 2813 1869 2534 1725 
Q 2256 1581 1919 1581 
Q 1219 1581 811 2004 
Q 403 2428 403 3163 
Q 403 3881 828 4315 
Q 1253 4750 1959 4750 
Q 2769 4750 3195 4129 
Q 3622 3509 3622 2328 
Q 3622 1225 3098 567 
Q 2575 -91 1691 -91 
Q 1453 -91 1209 -44 
Q 966 3 703 97 
z
M 1959 2075 
Q 2384 2075 2632 2365 
Q 2881 2656 2881 3163 
Q 2881 3666 2632 3958 
Q 2384 4250 1959 4250 
Q 1534 4250 1286 3958 
Q 1038 3666 1038 3163 
Q 1038 2656 1286 2365 
Q 1534 2075 1959 2075 
z
" transform="scale(0.015625)"/>
     </defs>
     <use xlink:href="#DejaVuSans-52"/>
     <use xlink:href="#DejaVuSans-32" x="69.482422"/>
     <use xlink:href="#DejaVuSans-20" x="133.105469"/>
     <use xlink:href="#DejaVuSans-53" x="164.892578"/>
     <use xlink:href="#DejaVuSans-63" x="228.369141"/>
     <use xlink:href="#DejaVuSans-6f" x="283.349609"/>
     <use xlink:href="#DejaVuSans-72" x="344.53125"/>
     <use xlink:href="#DejaVuSans-65" x="383.394531"/>
     <use xlink:href="#DejaVuSans-3a" x="444.917969"/>
     <use xlink:href="#DejaVuSans-20" x="478.609375"/>
     <use xlink:href="#DejaVuSans-30" x="510.396484"/>
     <use xlink:href="#DejaVuSans-2e" x="574.019531"/>
     <use xlink:href="#DejaVuSans-39" x="605.806641"/>
     <use xlink:href="#DejaVuSans-38" x="669.429688"/>
     <use xlink:href="#DejaVuSans-32" x="733.052734"/>
    </g>
   </g>
  </g>
 </g>
 <defs>
  <clipPath id="p1567649773">
   <rect x="102.17" y="32.04" width="580.03" height="467.44"/>
  </clipPath>
 </defs>
</svg>
