<?xml version="1.0" encoding="utf-8" standalone="no"?>
<!DOCTYPE svg PUBLIC "-//W3C//DTD SVG 1.1//EN"
  "http://www.w3.org/Graphics/SVG/1.1/DTD/svg11.dtd">
<svg xmlns:xlink="http://www.w3.org/1999/xlink" width="720pt" height="576pt" viewBox="0 0 720 576" xmlns="http://www.w3.org/2000/svg" version="1.1">
 <metadata>
  <rdf:RDF xmlns:dc="http://purl.org/dc/elements/1.1/" xmlns:cc="http://creativecommons.org/ns#" xmlns:rdf="http://www.w3.org/1999/02/22-rdf-syntax-ns#">
   <cc:Work>
    <dc:type rdf:resource="http://purl.org/dc/dcmitype/StillImage"/>
    <dc:date>2024-12-07T21:51:17.644855</dc:date>
    <dc:format>image/svg+xml</dc:format>
    <dc:creator>
     <cc:Agent>
      <dc:title>Matplotlib v3.8.4, https://matplotlib.org/</dc:title>
     </cc:Agent>
    </dc:creator>
   </cc:Work>
  </rdf:RDF>
 </metadata>
 <defs>
  <style type="text/css">*{stroke-linejoin: round; stroke-linecap: butt}</style>
 </defs>
 <g id="figure_1">
  <g id="patch_1">
   <path d="M 0 576 
L 720 576 
L 720 0 
L 0 0 
z
" style="fill: #ffffff"/>
  </g>
  <g id="axes_1">
   <g id="patch_2">
    <path d="M 97.76 499.48 
L 696.24 499.48 
L 696.24 23.76 
L 97.76 23.76 
z
" style="fill: #ffffff"/>
   </g>
   <g id="QuadContourSet_1">
    <path d="M 115.920466 483.947052 
L 116.859702 484.24178 
L 117.798938 484.414476 
L 118.738175 484.482009 
L 119.677411 484.452603 
L 120.616647 484.319027 
L 121.555883 484.065467 
L 122.49512 483.663619 
L 122.49574 483.663325 
L 123.434356 483.35175 
L 124.373592 482.956788 
L 125.303228 482.477226 
L 125.312829 482.473314 
L 126.252065 482.108025 
L 127.191301 481.566023 
L 127.556596 481.291128 
L 128.130537 480.901055 
L 128.965594 480.105029 
L 129.069774 480.013002 
L 130.00901 478.998945 
L 130.077271 478.91893 
L 130.948246 477.953763 
L 131.142495 477.732831 
L 131.887483 476.944109 
L 132.273087 476.546732 
L 132.826719 476.003435 
L 133.516478 475.360633 
L 133.765955 475.123104 
L 134.705191 474.305278 
L 134.871281 474.174534 
L 135.644428 473.481631 
L 136.215052 472.988435 
L 136.583664 472.547102 
L 137.248811 471.802337 
L 137.5229 471.188543 
L 137.809411 470.616238 
L 137.914967 469.430139 
L 137.741875 468.24404 
L 137.5229 467.364732 
L 137.469852 467.057941 
L 137.081502 465.871842 
L 136.583664 465.147931 
L 136.216507 464.685743 
L 135.644428 464.205386 
L 134.705191 463.575291 
L 134.577114 463.499644 
L 133.765955 463.001831 
L 132.826719 462.540916 
L 132.315243 462.313546 
L 131.887483 462.051552 
L 130.948246 461.487155 
L 130.189086 461.127447 
L 130.00901 461.029704 
L 129.069774 460.644543 
L 128.130537 460.387602 
L 127.191301 460.198285 
L 126.252065 460.058145 
L 125.312829 459.967514 
L 124.373592 459.943253 
L 123.434356 460.013223 
L 122.49512 460.192955 
L 121.555883 460.486188 
L 120.616647 460.915601 
L 120.226934 461.127447 
L 119.677411 461.299778 
L 118.738175 461.662346 
L 117.798938 462.176908 
L 117.573131 462.313546 
L 116.859702 462.597703 
L 115.920466 463.124703 
L 115.394327 463.499644 
L 114.98123 463.722195 
L 114.041993 464.399134 
L 113.720064 464.685743 
L 113.102757 465.167707 
L 112.417455 465.871842 
L 112.163521 466.124178 
L 111.381346 467.057941 
L 111.224284 467.257654 
L 110.510277 468.24404 
L 110.285048 468.609323 
L 109.76742 469.430139 
L 109.345812 470.297618 
L 109.169443 470.616238 
L 108.614201 471.802337 
L 108.406576 472.409077 
L 108.145689 472.988435 
L 107.757552 474.174534 
L 107.521004 475.360633 
L 107.467339 475.95284 
L 107.379899 476.546732 
L 107.467339 477.732831 
L 107.467339 477.732831 
L 107.852809 478.91893 
L 108.406576 479.677809 
L 108.86877 480.105029 
L 109.345812 480.470198 
L 110.285048 481.029603 
L 110.747208 481.291128 
L 111.224284 481.623857 
L 112.163521 482.252622 
L 112.574632 482.477226 
L 113.102757 482.826346 
L 114.041993 483.273053 
L 114.98123 483.586376 
L 115.247383 483.663325 
z
M 115.009561 480.105029 
L 114.98123 480.096177 
L 114.041993 479.67695 
L 113.102757 479.052579 
L 112.926027 478.91893 
L 112.163521 478.370424 
L 111.422437 477.732831 
L 111.224284 477.528273 
L 110.493384 476.546732 
L 110.285048 475.838628 
L 110.15939 475.360633 
L 110.194899 474.174534 
L 110.285048 473.841974 
L 110.459247 472.988435 
L 110.906217 471.802337 
L 111.224284 471.224176 
L 111.526363 470.616238 
L 112.163521 469.669764 
L 112.324259 469.430139 
L 113.102757 468.459554 
L 113.292536 468.24404 
L 114.041993 467.443642 
L 114.477925 467.057941 
L 114.98123 466.590489 
L 115.920466 465.912581 
L 115.981962 465.871842 
L 116.859702 465.187218 
L 117.798938 464.685743 
L 117.798938 464.685743 
L 118.738175 464.077083 
L 119.677411 463.665876 
L 120.179995 463.499644 
L 120.616647 463.283769 
L 121.555883 462.958988 
L 122.49512 462.771478 
L 123.434356 462.697905 
L 124.373592 462.736304 
L 125.312829 462.90041 
L 126.252065 463.203036 
L 126.913237 463.499644 
L 127.191301 463.614357 
L 128.130537 464.094849 
L 129.014163 464.685743 
L 129.069774 464.722 
L 130.00901 465.279846 
L 130.948246 465.866027 
L 130.957076 465.871842 
L 131.887483 466.639334 
L 132.265971 467.057941 
L 132.760065 468.24404 
L 132.779543 469.430139 
L 132.506903 470.616238 
L 131.967114 471.802337 
L 131.887483 471.92707 
L 131.275999 472.988435 
L 130.948246 473.428953 
L 130.415339 474.174534 
L 130.00901 474.66658 
L 129.42444 475.360633 
L 129.069774 475.757485 
L 128.307051 476.546732 
L 128.130537 476.730112 
L 127.191301 477.615705 
L 127.054811 477.732831 
L 126.252065 478.45093 
L 125.609875 478.91893 
L 125.312829 479.155759 
L 124.373592 479.779827 
L 123.730673 480.105029 
L 123.434356 480.280472 
L 122.49512 480.675332 
L 121.555883 480.906243 
L 120.616647 480.998038 
L 119.677411 480.986325 
L 118.738175 480.915617 
L 117.798938 480.810937 
L 116.859702 480.666527 
L 115.920466 480.447351 
z
" clip-path="url(#p280243ee27)" style="fill: #e4e4f3"/>
    <path d="M 115.920466 480.447351 
L 116.859702 480.666527 
L 117.798938 480.810937 
L 118.738175 480.915617 
L 119.677411 480.986325 
L 120.616647 480.998038 
L 121.555883 480.906243 
L 122.49512 480.675332 
L 123.434356 480.280472 
L 123.730673 480.105029 
L 124.373592 479.779827 
L 125.312829 479.155759 
L 125.609875 478.91893 
L 126.252065 478.45093 
L 127.054811 477.732831 
L 127.191301 477.615705 
L 128.130537 476.730112 
L 128.307051 476.546732 
L 129.069774 475.757485 
L 129.42444 475.360633 
L 130.00901 474.66658 
L 130.415339 474.174534 
L 130.948246 473.428953 
L 131.275999 472.988435 
L 131.887483 471.92707 
L 131.967114 471.802337 
L 132.506903 470.616238 
L 132.779543 469.430139 
L 132.760065 468.24404 
L 132.265971 467.057941 
L 131.887483 466.639334 
L 130.957076 465.871842 
L 130.948246 465.866027 
L 130.00901 465.279846 
L 129.069774 464.722 
L 129.014163 464.685743 
L 128.130537 464.094849 
L 127.191301 463.614357 
L 126.913237 463.499644 
L 126.252065 463.203036 
L 125.312829 462.90041 
L 124.373592 462.736304 
L 123.434356 462.697905 
L 122.49512 462.771478 
L 121.555883 462.958988 
L 120.616647 463.283769 
L 120.179995 463.499644 
L 119.677411 463.665876 
L 118.738175 464.077083 
L 117.798938 464.685743 
L 117.798938 464.685743 
L 116.859702 465.187218 
L 115.981962 465.871842 
L 115.920466 465.912581 
L 114.98123 466.590489 
L 114.477925 467.057941 
L 114.041993 467.443642 
L 113.292536 468.24404 
L 113.102757 468.459554 
L 112.324259 469.430139 
L 112.163521 469.669764 
L 111.526363 470.616238 
L 111.224284 471.224176 
L 110.906217 471.802337 
L 110.459247 472.988435 
L 110.285048 473.841974 
L 110.194899 474.174534 
L 110.15939 475.360633 
L 110.285048 475.838628 
L 110.493384 476.546732 
L 111.224284 477.528273 
L 111.422437 477.732831 
L 112.163521 478.370424 
L 112.926027 478.91893 
L 113.102757 479.052579 
L 114.041993 479.67695 
L 114.98123 480.096177 
L 115.009561 480.105029 
z
M 116.903825 478.91893 
L 116.859702 478.913353 
L 115.920466 478.681587 
L 114.98123 478.28711 
L 114.115397 477.732831 
L 114.041993 477.685731 
L 113.102757 476.951308 
L 112.678816 476.546732 
L 112.163521 475.86593 
L 111.861989 475.360633 
L 111.618857 474.174534 
L 111.75594 472.988435 
L 112.163521 471.883748 
L 112.188324 471.802337 
L 112.790691 470.616238 
L 113.102757 470.172929 
L 113.623552 469.430139 
L 114.041993 468.938037 
L 114.688547 468.24404 
L 114.98123 467.94965 
L 115.920466 467.13687 
L 116.021236 467.057941 
L 116.859702 466.365637 
L 117.663403 465.871842 
L 117.798938 465.773117 
L 118.738175 465.186602 
L 119.677411 464.778568 
L 119.962162 464.685743 
L 120.616647 464.39819 
L 121.555883 464.143539 
L 122.49512 464.028529 
L 123.434356 464.051047 
L 124.373592 464.228176 
L 125.312829 464.570641 
L 125.555376 464.685743 
L 126.252065 465.012706 
L 127.191301 465.606773 
L 127.545805 465.871842 
L 128.130537 466.366741 
L 128.957119 467.057941 
L 129.069774 467.17698 
L 130.00901 468.197953 
L 130.045739 468.24404 
L 130.469444 469.430139 
L 130.401679 470.616238 
L 130.00901 471.758005 
L 129.995424 471.802337 
L 129.360356 472.988435 
L 129.069774 473.392871 
L 128.515453 474.174534 
L 128.130537 474.629523 
L 127.485517 475.360633 
L 127.191301 475.665822 
L 126.252065 476.546732 
L 126.252065 476.546732 
L 125.312829 477.313994 
L 124.669398 477.732831 
L 124.373592 477.934643 
L 123.434356 478.413828 
L 122.49512 478.728382 
L 121.555883 478.901898 
L 121.388429 478.91893 
L 120.616647 479.013403 
L 119.677411 479.081229 
L 118.738175 479.103572 
L 117.798938 479.058614 
z
" clip-path="url(#p280243ee27)" style="fill: #cbcbf5"/>
    <path d="M 117.798938 479.058614 
L 118.738175 479.103572 
L 119.677411 479.081229 
L 120.616647 479.013403 
L 121.388429 478.91893 
L 121.555883 478.901898 
L 122.49512 478.728382 
L 123.434356 478.413828 
L 124.373592 477.934643 
L 124.669398 477.732831 
L 125.312829 477.313994 
L 126.252065 476.546732 
L 126.252065 476.546732 
L 127.191301 475.665822 
L 127.485517 475.360633 
L 128.130537 474.629523 
L 128.515453 474.174534 
L 129.069774 473.392871 
L 129.360356 472.988435 
L 129.995424 471.802337 
L 130.00901 471.758005 
L 130.401679 470.616238 
L 130.469444 469.430139 
L 130.045739 468.24404 
L 130.00901 468.197953 
L 129.069774 467.17698 
L 128.957119 467.057941 
L 128.130537 466.366741 
L 127.545805 465.871842 
L 127.191301 465.606773 
L 126.252065 465.012706 
L 125.555376 464.685743 
L 125.312829 464.570641 
L 124.373592 464.228176 
L 123.434356 464.051047 
L 122.49512 464.028529 
L 121.555883 464.143539 
L 120.616647 464.39819 
L 119.962162 464.685743 
L 119.677411 464.778568 
L 118.738175 465.186602 
L 117.798938 465.773117 
L 117.663403 465.871842 
L 116.859702 466.365637 
L 116.021236 467.057941 
L 115.920466 467.13687 
L 114.98123 467.94965 
L 114.688547 468.24404 
L 114.041993 468.938037 
L 113.623552 469.430139 
L 113.102757 470.172929 
L 112.790691 470.616238 
L 112.188324 471.802337 
L 112.163521 471.883748 
L 111.75594 472.988435 
L 111.618857 474.174534 
L 111.861989 475.360633 
L 112.163521 475.86593 
L 112.678816 476.546732 
L 113.102757 476.951308 
L 114.041993 477.685731 
L 114.115397 477.732831 
L 114.98123 478.28711 
L 115.920466 478.681587 
L 116.859702 478.913353 
L 116.903825 478.91893 
z
M 116.859702 477.732831 
L 116.859702 477.732831 
L 115.920466 477.434834 
L 114.98123 476.942289 
L 114.442314 476.546732 
L 114.041993 476.218338 
L 113.244405 475.360633 
L 113.102757 475.092521 
L 112.718231 474.174534 
L 112.708476 472.988435 
L 113.065222 471.802337 
L 113.102757 471.733723 
L 113.656029 470.616238 
L 114.041993 470.081439 
L 114.509746 469.430139 
L 114.98123 468.900406 
L 115.622381 468.24404 
L 115.920466 467.960717 
L 116.859702 467.191252 
L 117.047041 467.057941 
L 117.798938 466.495963 
L 118.738175 465.972425 
L 118.966778 465.871842 
L 119.677411 465.499474 
L 120.616647 465.173494 
L 121.555883 464.989005 
L 122.49512 464.944935 
L 123.434356 465.064276 
L 124.373592 465.359713 
L 125.312829 465.815372 
L 125.409325 465.871842 
L 126.252065 466.429601 
L 126.966989 467.057941 
L 127.191301 467.332187 
L 127.965369 468.24404 
L 128.130537 468.564585 
L 128.604898 469.430139 
L 128.733988 470.616238 
L 128.45045 471.802337 
L 128.130537 472.428314 
L 127.851505 472.988435 
L 127.191301 473.900628 
L 126.98268 474.174534 
L 126.252065 474.955532 
L 125.819387 475.360633 
L 125.312829 475.792179 
L 124.373592 476.440157 
L 124.171714 476.546732 
L 123.434356 476.937176 
L 122.49512 477.301025 
L 121.555883 477.553782 
L 120.61882 477.732831 
L 120.616647 477.733309 
L 119.677411 477.889699 
L 118.738175 477.956028 
L 117.798938 477.91222 
z
" clip-path="url(#p280243ee27)" style="fill: #b0b0f6"/>
    <path d="M 117.798938 477.91222 
L 118.738175 477.956028 
L 119.677411 477.889699 
L 120.616647 477.733309 
L 120.61882 477.732831 
L 121.555883 477.553782 
L 122.49512 477.301025 
L 123.434356 476.937176 
L 124.171714 476.546732 
L 124.373592 476.440157 
L 125.312829 475.792179 
L 125.819387 475.360633 
L 126.252065 474.955532 
L 126.98268 474.174534 
L 127.191301 473.900628 
L 127.851505 472.988435 
L 128.130537 472.428314 
L 128.45045 471.802337 
L 128.733988 470.616238 
L 128.604898 469.430139 
L 128.130537 468.564585 
L 127.965369 468.24404 
L 127.191301 467.332187 
L 126.966989 467.057941 
L 126.252065 466.429601 
L 125.409325 465.871842 
L 125.312829 465.815372 
L 124.373592 465.359713 
L 123.434356 465.064276 
L 122.49512 464.944935 
L 121.555883 464.989005 
L 120.616647 465.173494 
L 119.677411 465.499474 
L 118.966778 465.871842 
L 118.738175 465.972425 
L 117.798938 466.495963 
L 117.047041 467.057941 
L 116.859702 467.191252 
L 115.920466 467.960717 
L 115.622381 468.24404 
L 114.98123 468.900406 
L 114.509746 469.430139 
L 114.041993 470.081439 
L 113.656029 470.616238 
L 113.102757 471.733723 
L 113.065222 471.802337 
L 112.708476 472.988435 
L 112.718231 474.174534 
L 113.102757 475.092521 
L 113.244405 475.360633 
L 114.041993 476.218338 
L 114.442314 476.546732 
L 114.98123 476.942289 
L 115.920466 477.434834 
L 116.859702 477.732831 
L 116.859702 477.732831 
z
M 116.561706 476.546732 
L 115.920466 476.279636 
L 114.98123 475.659443 
L 114.646359 475.360633 
L 114.041993 474.592343 
L 113.794737 474.174534 
L 113.598365 472.988435 
L 113.85129 471.802337 
L 114.041993 471.433925 
L 114.427428 470.616238 
L 114.98123 469.857147 
L 115.294193 469.430139 
L 115.920466 468.760349 
L 116.457724 468.24404 
L 116.859702 467.890199 
L 117.798938 467.20276 
L 118.038141 467.057941 
L 118.738175 466.616174 
L 119.677411 466.191475 
L 120.616647 465.905899 
L 120.859272 465.871842 
L 121.555883 465.756932 
L 122.49512 465.798782 
L 122.798933 465.871842 
L 123.434356 466.043479 
L 124.373592 466.46161 
L 125.312829 467.049886 
L 125.323409 467.057941 
L 126.252065 468.057961 
L 126.403508 468.24404 
L 126.968849 469.430139 
L 127.139248 470.616238 
L 126.917789 471.802337 
L 126.30262 472.988435 
L 126.252065 473.054655 
L 125.312829 474.174534 
L 125.312829 474.174534 
L 124.373592 474.974082 
L 123.796112 475.360633 
L 123.434356 475.58394 
L 122.49512 476.065624 
L 121.555883 476.419764 
L 121.11639 476.546732 
L 120.616647 476.702295 
L 119.677411 476.891257 
L 118.738175 476.956661 
L 117.798938 476.888147 
L 116.859702 476.667806 
z
" clip-path="url(#p280243ee27)" style="fill: #9696f7"/>
    <path d="M 116.859702 476.667806 
L 117.798938 476.888147 
L 118.738175 476.956661 
L 119.677411 476.891257 
L 120.616647 476.702295 
L 121.11639 476.546732 
L 121.555883 476.419764 
L 122.49512 476.065624 
L 123.434356 475.58394 
L 123.796112 475.360633 
L 124.373592 474.974082 
L 125.312829 474.174534 
L 125.312829 474.174534 
L 126.252065 473.054655 
L 126.30262 472.988435 
L 126.917789 471.802337 
L 127.139248 470.616238 
L 126.968849 469.430139 
L 126.403508 468.24404 
L 126.252065 468.057961 
L 125.323409 467.057941 
L 125.312829 467.049886 
L 124.373592 466.46161 
L 123.434356 466.043479 
L 122.798933 465.871842 
L 122.49512 465.798782 
L 121.555883 465.756932 
L 120.859272 465.871842 
L 120.616647 465.905899 
L 119.677411 466.191475 
L 118.738175 466.616174 
L 118.038141 467.057941 
L 117.798938 467.20276 
L 116.859702 467.890199 
L 116.457724 468.24404 
L 115.920466 468.760349 
L 115.294193 469.430139 
L 114.98123 469.857147 
L 114.427428 470.616238 
L 114.041993 471.433925 
L 113.85129 471.802337 
L 113.598365 472.988435 
L 113.794737 474.174534 
L 114.041993 474.592343 
L 114.646359 475.360633 
L 114.98123 475.659443 
L 115.920466 476.279636 
L 116.561706 476.546732 
z
M 115.991332 475.360633 
L 115.920466 475.31917 
L 114.98123 474.477893 
L 114.742233 474.174534 
L 114.34613 472.988435 
L 114.498732 471.802337 
L 114.98123 470.767788 
L 115.047085 470.616238 
L 115.920466 469.430139 
L 115.920466 469.430139 
L 116.859702 468.499371 
L 117.155461 468.24404 
L 117.798938 467.744853 
L 118.738175 467.173596 
L 118.992267 467.057941 
L 119.677411 466.736996 
L 120.616647 466.479476 
L 121.555883 466.405237 
L 122.49512 466.540124 
L 123.434356 466.885318 
L 123.770688 467.057941 
L 124.373592 467.438442 
L 125.270523 468.24404 
L 125.312829 468.317886 
L 125.862949 469.430139 
L 125.990207 470.616238 
L 125.723553 471.802337 
L 125.312829 472.527334 
L 125.042162 472.988435 
L 124.373592 473.722377 
L 123.895466 474.174534 
L 123.434356 474.529274 
L 122.49512 475.122055 
L 122.014036 475.360633 
L 121.555883 475.579961 
L 120.616647 475.909318 
L 119.677411 476.100013 
L 118.738175 476.151964 
L 117.798938 476.056135 
L 116.859702 475.795317 
z
" clip-path="url(#p280243ee27)" style="fill: #7d7df9"/>
    <path d="M 116.859702 475.795317 
L 117.798938 476.056135 
L 118.738175 476.151964 
L 119.677411 476.100013 
L 120.616647 475.909318 
L 121.555883 475.579961 
L 122.014036 475.360633 
L 122.49512 475.122055 
L 123.434356 474.529274 
L 123.895466 474.174534 
L 124.373592 473.722377 
L 125.042162 472.988435 
L 125.312829 472.527334 
L 125.723553 471.802337 
L 125.990207 470.616238 
L 125.862949 469.430139 
L 125.312829 468.317886 
L 125.270523 468.24404 
L 124.373592 467.438442 
L 123.770688 467.057941 
L 123.434356 466.885318 
L 122.49512 466.540124 
L 121.555883 466.405237 
L 120.616647 466.479476 
L 119.677411 466.736996 
L 118.992267 467.057941 
L 118.738175 467.173596 
L 117.798938 467.744853 
L 117.155461 468.24404 
L 116.859702 468.499371 
L 115.920466 469.430139 
L 115.920466 469.430139 
L 115.047085 470.616238 
L 114.98123 470.767788 
L 114.498732 471.802337 
L 114.34613 472.988435 
L 114.742233 474.174534 
L 114.98123 474.477893 
L 115.920466 475.31917 
L 115.991332 475.360633 
z
M 115.920466 474.174534 
L 115.920466 474.174534 
L 115.214368 472.988435 
L 115.226782 471.802337 
L 115.716289 470.616238 
L 115.920466 470.338954 
L 116.611087 469.430139 
L 116.859702 469.183765 
L 117.798938 468.373474 
L 117.981581 468.24404 
L 118.738175 467.774953 
L 119.677411 467.367662 
L 120.616647 467.139449 
L 121.555883 467.147644 
L 122.49512 467.42526 
L 123.434356 467.914165 
L 123.905182 468.24404 
L 124.373592 468.797389 
L 124.760464 469.430139 
L 124.899883 470.616238 
L 124.573229 471.802337 
L 124.373592 472.123854 
L 123.796614 472.988435 
L 123.434356 473.351769 
L 122.49512 474.133228 
L 122.433633 474.174534 
L 121.555883 474.679412 
L 120.616647 475.042956 
L 119.677411 475.244349 
L 118.738175 475.27707 
L 117.798938 475.137406 
L 116.859702 474.798952 
z
" clip-path="url(#p280243ee27)" style="fill: #6464fa"/>
    <path d="M 116.859702 474.798952 
L 117.798938 475.137406 
L 118.738175 475.27707 
L 119.677411 475.244349 
L 120.616647 475.042956 
L 121.555883 474.679412 
L 122.433633 474.174534 
L 122.49512 474.133228 
L 123.434356 473.351769 
L 123.796614 472.988435 
L 124.373592 472.123854 
L 124.573229 471.802337 
L 124.899883 470.616238 
L 124.760464 469.430139 
L 124.373592 468.797389 
L 123.905182 468.24404 
L 123.434356 467.914165 
L 122.49512 467.42526 
L 121.555883 467.147644 
L 120.616647 467.139449 
L 119.677411 467.367662 
L 118.738175 467.774953 
L 117.981581 468.24404 
L 117.798938 468.373474 
L 116.859702 469.183765 
L 116.611087 469.430139 
L 115.920466 470.338954 
L 115.716289 470.616238 
L 115.226782 471.802337 
L 115.214368 472.988435 
L 115.920466 474.174534 
L 115.920466 474.174534 
z
M 118.738175 474.174534 
L 118.738175 474.174534 
L 117.798938 473.9474 
L 116.859702 473.398619 
L 116.479086 472.988435 
L 116.194105 471.802337 
L 116.599152 470.616238 
L 116.859702 470.272491 
L 117.555029 469.430139 
L 117.798938 469.219992 
L 118.738175 468.587988 
L 119.46663 468.24404 
L 119.677411 468.15999 
L 120.616647 468.043563 
L 121.555883 468.19724 
L 121.675431 468.24404 
L 122.49512 468.733696 
L 123.296967 469.430139 
L 123.434356 469.810837 
L 123.635561 470.616238 
L 123.434356 471.320626 
L 123.283831 471.802337 
L 122.49512 472.809108 
L 122.318576 472.988435 
L 121.555883 473.519139 
L 120.616647 473.956406 
L 119.685147 474.174534 
L 119.677411 474.176087 
z
" clip-path="url(#p280243ee27)" style="fill: #4646fb"/>
    <path d="M 119.677411 474.176087 
L 119.685147 474.174534 
L 120.616647 473.956406 
L 121.555883 473.519139 
L 122.318576 472.988435 
L 122.49512 472.809108 
L 123.283831 471.802337 
L 123.434356 471.320626 
L 123.635561 470.616238 
L 123.434356 469.810837 
L 123.296967 469.430139 
L 122.49512 468.733696 
L 121.675431 468.24404 
L 121.555883 468.19724 
L 120.616647 468.043563 
L 119.677411 468.15999 
L 119.46663 468.24404 
L 118.738175 468.587988 
L 117.798938 469.219992 
L 117.555029 469.430139 
L 116.859702 470.272491 
L 116.599152 470.616238 
L 116.194105 471.802337 
L 116.479086 472.988435 
L 116.859702 473.398619 
L 117.798938 473.9474 
L 118.738175 474.174534 
L 118.738175 474.174534 
z
M 118.718706 472.988435 
L 117.798938 472.49269 
L 117.33899 471.802337 
L 117.586 470.616238 
L 117.798938 470.360502 
L 118.738175 469.430139 
L 118.738175 469.430139 
L 119.677411 469.126679 
L 120.616647 469.14746 
L 121.336504 469.430139 
L 121.555883 469.640642 
L 122.200689 470.616238 
L 121.865968 471.802337 
L 121.555883 472.112623 
L 120.616647 472.74477 
L 119.848061 472.988435 
L 119.677411 473.022997 
L 118.738175 472.994124 
z
" clip-path="url(#p280243ee27)" style="fill: #2727fd"/>
    <path d="M 118.738175 472.994124 
L 119.677411 473.022997 
L 119.848061 472.988435 
L 120.616647 472.74477 
L 121.555883 472.112623 
L 121.865968 471.802337 
L 122.200689 470.616238 
L 121.555883 469.640642 
L 121.336504 469.430139 
L 120.616647 469.14746 
L 119.677411 469.126679 
L 118.738175 469.430139 
L 118.738175 469.430139 
L 117.798938 470.360502 
L 117.586 470.616238 
L 117.33899 471.802337 
L 117.798938 472.49269 
L 118.718706 472.988435 
z
" clip-path="url(#p280243ee27)" style="fill: #0b0bfe"/>
   </g>
   <g id="QuadContourSet_2">
    <path d="M 114.94169 490.874525 
L 118.058357 491.520023 
L 121.175023 491.816284 
L 124.291689 491.883223 
L 127.408356 491.76513 
L 130.525022 491.520307 
L 133.641689 491.233049 
L 136.758355 490.884721 
L 139.569852 490.394296 
L 139.875021 490.357174 
L 142.991688 489.860777 
L 146.108354 489.158652 
L 147.245226 488.880656 
L 149.225021 488.483709 
L 152.341687 487.756897 
L 153.758848 487.367017 
L 155.458353 486.952155 
L 158.57502 485.867028 
L 158.608106 485.853377 
L 161.691686 484.474632 
L 161.978235 484.339737 
L 164.717363 482.826097 
L 164.808353 482.763711 
L 167.562866 481.312457 
L 167.925019 481.066479 
L 171.041685 479.798817 
L 171.041685 479.798817 
L 174.158352 479.102567 
L 177.180539 478.285177 
L 177.275018 478.24975 
L 180.014956 476.771537 
L 180.391685 476.38566 
L 181.489763 475.257897 
L 182.145537 473.744257 
L 182.320661 472.230617 
L 182.289341 470.716977 
L 182.202193 469.203337 
L 182.127974 467.689697 
L 182.092659 466.176057 
L 182.101354 464.662418 
L 182.144821 463.148778 
L 182.199052 461.635138 
L 182.228901 460.121498 
L 182.203841 458.607858 
L 182.123034 457.094218 
L 182.032413 455.580578 
L 182.012685 454.066938 
L 182.14049 452.553298 
L 182.455018 451.039658 
L 182.953366 449.526018 
L 183.508351 448.222307 
L 183.598317 448.012378 
L 184.240585 446.498738 
L 184.773254 444.985098 
L 185.119848 443.471458 
L 185.229528 441.957819 
L 185.084801 440.444179 
L 184.699239 438.930539 
L 184.099908 437.416899 
L 183.508351 436.269868 
L 183.312169 435.903259 
L 182.55233 434.389619 
L 181.966541 432.875979 
L 181.582796 431.362339 
L 181.410176 429.848699 
L 181.434979 428.335059 
L 181.618507 426.821419 
L 181.90013 425.307779 
L 182.205688 423.794139 
L 182.46192 422.280499 
L 182.612807 420.766859 
L 182.627288 419.253219 
L 182.491539 417.73958 
L 182.190317 416.22594 
L 181.686209 414.7123 
L 180.898795 413.19866 
L 180.391685 412.474718 
L 179.745196 411.68502 
L 178.369361 410.17138 
L 177.275018 408.953152 
L 177.153017 408.65774 
L 176.676433 407.1441 
L 176.306147 405.63046 
L 176.011551 404.11682 
L 175.771799 402.60318 
L 175.56754 401.08954 
L 175.374022 399.5759 
L 175.157889 398.06226 
L 174.874089 396.54862 
L 174.461644 395.034981 
L 174.158352 394.23769 
L 173.899188 393.521341 
L 173.172634 392.007701 
L 172.247668 390.494061 
L 171.234142 388.980421 
L 171.041685 388.681203 
L 170.459199 387.466781 
L 169.639176 385.953141 
L 168.558437 384.439501 
L 167.925019 383.754425 
L 167.058872 382.925861 
L 165.101292 381.412221 
L 164.808353 381.199637 
L 162.964899 379.898581 
L 161.691686 379.103105 
L 160.042396 378.384941 
L 158.57502 377.821393 
L 157.120752 376.871301 
L 155.458353 375.6382 
L 155.270903 375.357661 
L 154.305436 373.844021 
L 153.254941 372.330381 
L 152.341687 371.204306 
L 151.949311 370.816742 
L 150.167787 369.303102 
L 149.225021 368.612123 
L 147.88795 367.789462 
L 146.108354 366.782264 
L 145.368361 366.275822 
L 143.127137 364.762182 
L 142.991688 364.664324 
L 141.542366 363.248542 
L 140.160224 361.734902 
L 139.875021 361.390928 
L 138.205703 360.221262 
L 136.758355 359.279606 
L 133.641689 359.045345 
L 130.525022 359.225468 
L 127.408356 359.79751 
L 126.352489 360.221262 
L 124.291689 360.978259 
L 123.231287 361.734902 
L 121.278942 363.248542 
L 121.175023 363.332987 
L 120.008727 364.762182 
L 118.973351 366.275822 
L 118.07351 367.789462 
L 118.058357 367.81506 
L 117.202396 369.303102 
L 116.427271 370.816742 
L 115.711115 372.330381 
L 115.034318 373.844021 
L 114.94169 374.048173 
L 114.246703 375.357661 
L 113.55385 376.871301 
L 112.978877 378.384941 
L 112.506132 379.898581 
L 112.112384 381.412221 
L 111.825024 382.665864 
L 111.734121 382.925861 
L 111.22343 384.439501 
L 110.75988 385.953141 
L 110.329357 387.466781 
L 109.928806 388.980421 
L 109.564055 390.494061 
L 109.245437 392.007701 
L 108.982595 393.521341 
L 108.780084 395.034981 
L 108.708357 395.766541 
L 108.575972 396.54862 
L 108.394802 398.06226 
L 108.271049 399.5759 
L 108.184131 401.08954 
L 108.115307 402.60318 
L 108.048318 404.11682 
L 107.970832 405.63046 
L 107.875835 407.1441 
L 107.761696 408.65774 
L 107.630812 410.17138 
L 107.487955 411.68502 
L 107.339182 413.19866 
L 107.191182 414.7123 
L 107.050487 416.22594 
L 106.922335 417.73958 
L 106.809603 419.253219 
L 106.712457 420.766859 
L 106.629138 422.280499 
L 106.557434 423.794139 
L 106.495662 425.307779 
L 106.442253 426.821419 
L 106.394298 428.335059 
L 106.346502 429.848699 
L 106.291987 431.362339 
L 106.224922 432.875979 
L 106.143223 434.389619 
L 106.049257 435.903259 
L 105.948164 437.416899 
L 105.845324 438.930539 
L 105.744734 440.444179 
L 105.64882 441.957819 
L 105.591691 442.90445 
L 105.519396 443.471458 
L 105.33472 444.985098 
L 105.162072 446.498738 
L 104.996881 448.012378 
L 104.831951 449.526018 
L 104.659903 451.039658 
L 104.475331 452.553298 
L 104.275022 454.066938 
L 104.056227 455.580578 
L 103.814803 457.094218 
L 103.545845 458.607858 
L 103.248158 460.121498 
L 102.930054 461.635138 
L 102.61056 463.148778 
L 102.475025 463.779774 
L 102.065469 464.662418 
L 101.43685 466.176057 
L 100.950092 467.689697 
L 100.596683 469.203337 
L 100.360992 470.716977 
L 100.228748 472.230617 
L 100.191442 473.744257 
L 100.248597 475.257897 
L 100.409997 476.771537 
L 100.699803 478.285177 
L 101.164828 479.798817 
L 101.890784 481.312457 
L 102.475025 482.186538 
L 102.719739 482.826097 
L 103.536269 484.339737 
L 104.92766 485.853377 
L 105.591691 486.404808 
L 106.688636 487.367017 
L 108.708357 488.576691 
L 109.353939 488.880656 
L 111.825024 489.938353 
L 113.438869 490.394296 
z
M 115.945257 487.367017 
L 114.94169 487.080639 
L 112.143288 485.853377 
L 111.825024 485.691996 
L 109.624716 484.339737 
L 108.708357 483.525039 
L 107.921904 482.826097 
L 106.670895 481.312457 
L 105.892209 479.798817 
L 105.591691 478.938867 
L 105.253678 478.285177 
L 104.710178 476.771537 
L 104.397997 475.257897 
L 104.268853 473.744257 
L 104.301244 472.230617 
L 104.491764 470.716977 
L 104.849753 469.203337 
L 105.391883 467.689697 
L 105.591691 467.238669 
L 105.881321 466.176057 
L 106.376954 464.662418 
L 106.951438 463.148778 
L 107.565706 461.635138 
L 108.169644 460.121498 
L 108.708357 458.640514 
L 108.716686 458.607858 
L 109.023801 457.094218 
L 109.288572 455.580578 
L 109.519001 454.066938 
L 109.724855 452.553298 
L 109.91424 451.039658 
L 110.093355 449.526018 
L 110.267499 448.012378 
L 110.441547 446.498738 
L 110.619366 444.985098 
L 110.802842 443.471458 
L 110.991497 441.957819 
L 111.183156 440.444179 
L 111.375238 438.930539 
L 111.565712 437.416899 
L 111.753066 435.903259 
L 111.825024 435.296107 
L 111.899994 434.389619 
L 112.01721 432.875979 
L 112.127548 431.362339 
L 112.232678 429.848699 
L 112.335729 428.335059 
L 112.440345 426.821419 
L 112.549084 425.307779 
L 112.6621 423.794139 
L 112.777031 422.280499 
L 112.89036 420.766859 
L 112.999523 419.253219 
L 113.104523 417.73958 
L 113.208168 416.22594 
L 113.315025 414.7123 
L 113.430011 413.19866 
L 113.557563 411.68502 
L 113.701577 410.17138 
L 113.865574 408.65774 
L 114.052608 407.1441 
L 114.265011 405.63046 
L 114.504539 404.11682 
L 114.773378 402.60318 
L 114.94169 401.73811 
L 115.057348 401.08954 
L 115.355884 399.5759 
L 115.701883 398.06226 
L 116.101627 396.54862 
L 116.555789 395.034981 
L 117.059771 393.521341 
L 117.607385 392.007701 
L 118.058357 390.833681 
L 118.213005 390.494061 
L 118.932166 388.980421 
L 119.740642 387.466781 
L 120.679712 385.953141 
L 121.175023 385.245199 
L 122.048074 384.439501 
L 123.811136 382.925861 
L 124.291689 382.531781 
L 126.735515 381.412221 
L 127.408356 381.094524 
L 130.525022 380.942933 
L 131.552702 381.412221 
L 133.641689 382.421358 
L 134.322676 382.925861 
L 136.447622 384.439501 
L 136.758355 384.642437 
L 138.660401 385.953141 
L 139.875021 386.804839 
L 140.724078 387.466781 
L 142.457506 388.980421 
L 142.991688 389.537579 
L 144.071529 390.494061 
L 145.534451 392.007701 
L 146.108354 392.655235 
L 147.023502 393.521341 
L 148.721268 395.034981 
L 149.225021 395.455684 
L 150.246491 396.54862 
L 151.538967 398.06226 
L 152.341687 399.224522 
L 152.543549 399.5759 
L 153.215632 401.08954 
L 153.694096 402.60318 
L 154.06227 404.11682 
L 154.392812 405.63046 
L 154.741306 407.1441 
L 155.143411 408.65774 
L 155.458353 409.686149 
L 155.672146 410.17138 
L 156.394743 411.68502 
L 157.12479 413.19866 
L 157.773089 414.7123 
L 158.266788 416.22594 
L 158.57502 417.73958 
L 158.57502 417.73958 
L 158.69432 419.253219 
L 158.695763 420.766859 
L 158.60076 422.280499 
L 158.57502 422.526109 
L 158.446635 423.794139 
L 158.28171 425.307779 
L 158.143152 426.821419 
L 158.06223 428.335059 
L 158.057647 429.848699 
L 158.127471 431.362339 
L 158.246738 432.875979 
L 158.377282 434.389619 
L 158.485756 435.903259 
L 158.557047 437.416899 
L 158.57502 438.099704 
L 158.600023 438.930539 
L 158.629298 440.444179 
L 158.66808 441.957819 
L 158.741566 443.471458 
L 158.867889 444.985098 
L 159.053196 446.498738 
L 159.289495 448.012378 
L 159.557966 449.526018 
L 159.837304 451.039658 
L 160.112377 452.553298 
L 160.378257 454.066938 
L 160.638807 455.580578 
L 160.902771 457.094218 
L 161.180236 458.607858 
L 161.479582 460.121498 
L 161.691686 461.097875 
L 161.838827 461.635138 
L 162.281612 463.148778 
L 162.695187 464.662418 
L 163.028213 466.176057 
L 163.241402 467.689697 
L 163.311508 469.203337 
L 163.222568 470.716977 
L 162.953284 472.230617 
L 162.465384 473.744257 
L 161.691686 475.257486 
L 161.691519 475.257897 
L 160.82226 476.771537 
L 159.547237 478.285177 
L 158.57502 479.124153 
L 157.743239 479.798817 
L 155.458353 481.170751 
L 155.190206 481.312457 
L 152.341687 482.556152 
L 151.686139 482.826097 
L 149.225021 483.726455 
L 147.538101 484.339737 
L 146.108354 484.825342 
L 142.991688 485.792018 
L 142.764313 485.853377 
L 139.875021 486.669108 
L 136.758355 487.228653 
L 135.671036 487.367017 
L 133.641689 487.693354 
L 130.525022 488.130689 
L 127.408356 488.47689 
L 124.291689 488.622293 
L 121.175023 488.492145 
L 118.058357 488.005929 
z
" clip-path="url(#p280243ee27)" style="fill: #e5f0e5; fill-opacity: 0.5"/>
    <path d="M 118.058357 488.005929 
L 121.175023 488.492145 
L 124.291689 488.622293 
L 127.408356 488.47689 
L 130.525022 488.130689 
L 133.641689 487.693354 
L 135.671036 487.367017 
L 136.758355 487.228653 
L 139.875021 486.669108 
L 142.764313 485.853377 
L 142.991688 485.792018 
L 146.108354 484.825342 
L 147.538101 484.339737 
L 149.225021 483.726455 
L 151.686139 482.826097 
L 152.341687 482.556152 
L 155.190206 481.312457 
L 155.458353 481.170751 
L 157.743239 479.798817 
L 158.57502 479.124153 
L 159.547237 478.285177 
L 160.82226 476.771537 
L 161.691519 475.257897 
L 161.691686 475.257486 
L 162.465384 473.744257 
L 162.953284 472.230617 
L 163.222568 470.716977 
L 163.311508 469.203337 
L 163.241402 467.689697 
L 163.028213 466.176057 
L 162.695187 464.662418 
L 162.281612 463.148778 
L 161.838827 461.635138 
L 161.691686 461.097875 
L 161.479582 460.121498 
L 161.180236 458.607858 
L 160.902771 457.094218 
L 160.638807 455.580578 
L 160.378257 454.066938 
L 160.112377 452.553298 
L 159.837304 451.039658 
L 159.557966 449.526018 
L 159.289495 448.012378 
L 159.053196 446.498738 
L 158.867889 444.985098 
L 158.741566 443.471458 
L 158.66808 441.957819 
L 158.629298 440.444179 
L 158.600023 438.930539 
L 158.57502 438.099704 
L 158.557047 437.416899 
L 158.485756 435.903259 
L 158.377282 434.389619 
L 158.246738 432.875979 
L 158.127471 431.362339 
L 158.057647 429.848699 
L 158.06223 428.335059 
L 158.143152 426.821419 
L 158.28171 425.307779 
L 158.446635 423.794139 
L 158.57502 422.526109 
L 158.60076 422.280499 
L 158.695763 420.766859 
L 158.69432 419.253219 
L 158.57502 417.73958 
L 158.57502 417.73958 
L 158.266788 416.22594 
L 157.773089 414.7123 
L 157.12479 413.19866 
L 156.394743 411.68502 
L 155.672146 410.17138 
L 155.458353 409.686149 
L 155.143411 408.65774 
L 154.741306 407.1441 
L 154.392812 405.63046 
L 154.06227 404.11682 
L 153.694096 402.60318 
L 153.215632 401.08954 
L 152.543549 399.5759 
L 152.341687 399.224522 
L 151.538967 398.06226 
L 150.246491 396.54862 
L 149.225021 395.455684 
L 148.721268 395.034981 
L 147.023502 393.521341 
L 146.108354 392.655235 
L 145.534451 392.007701 
L 144.071529 390.494061 
L 142.991688 389.537579 
L 142.457506 388.980421 
L 140.724078 387.466781 
L 139.875021 386.804839 
L 138.660401 385.953141 
L 136.758355 384.642437 
L 136.447622 384.439501 
L 134.322676 382.925861 
L 133.641689 382.421358 
L 131.552702 381.412221 
L 130.525022 380.942933 
L 127.408356 381.094524 
L 126.735515 381.412221 
L 124.291689 382.531781 
L 123.811136 382.925861 
L 122.048074 384.439501 
L 121.175023 385.245199 
L 120.679712 385.953141 
L 119.740642 387.466781 
L 118.932166 388.980421 
L 118.213005 390.494061 
L 118.058357 390.833681 
L 117.607385 392.007701 
L 117.059771 393.521341 
L 116.555789 395.034981 
L 116.101627 396.54862 
L 115.701883 398.06226 
L 115.355884 399.5759 
L 115.057348 401.08954 
L 114.94169 401.73811 
L 114.773378 402.60318 
L 114.504539 404.11682 
L 114.265011 405.63046 
L 114.052608 407.1441 
L 113.865574 408.65774 
L 113.701577 410.17138 
L 113.557563 411.68502 
L 113.430011 413.19866 
L 113.315025 414.7123 
L 113.208168 416.22594 
L 113.104523 417.73958 
L 112.999523 419.253219 
L 112.89036 420.766859 
L 112.777031 422.280499 
L 112.6621 423.794139 
L 112.549084 425.307779 
L 112.440345 426.821419 
L 112.335729 428.335059 
L 112.232678 429.848699 
L 112.127548 431.362339 
L 112.01721 432.875979 
L 111.899994 434.389619 
L 111.825024 435.296107 
L 111.753066 435.903259 
L 111.565712 437.416899 
L 111.375238 438.930539 
L 111.183156 440.444179 
L 110.991497 441.957819 
L 110.802842 443.471458 
L 110.619366 444.985098 
L 110.441547 446.498738 
L 110.267499 448.012378 
L 110.093355 449.526018 
L 109.91424 451.039658 
L 109.724855 452.553298 
L 109.519001 454.066938 
L 109.288572 455.580578 
L 109.023801 457.094218 
L 108.716686 458.607858 
L 108.708357 458.640514 
L 108.169644 460.121498 
L 107.565706 461.635138 
L 106.951438 463.148778 
L 106.376954 464.662418 
L 105.881321 466.176057 
L 105.591691 467.238669 
L 105.391883 467.689697 
L 104.849753 469.203337 
L 104.491764 470.716977 
L 104.301244 472.230617 
L 104.268853 473.744257 
L 104.397997 475.257897 
L 104.710178 476.771537 
L 105.253678 478.285177 
L 105.591691 478.938867 
L 105.892209 479.798817 
L 106.670895 481.312457 
L 107.921904 482.826097 
L 108.708357 483.525039 
L 109.624716 484.339737 
L 111.825024 485.691996 
L 112.143288 485.853377 
L 114.94169 487.080639 
L 115.945257 487.367017 
z
M 117.280861 485.853377 
L 114.94169 485.036722 
L 113.546399 484.339737 
L 111.825024 483.257026 
L 111.220754 482.826097 
L 109.579189 481.312457 
L 108.708357 480.047296 
L 108.512364 479.798817 
L 107.593325 478.285177 
L 107.018471 476.771537 
L 106.685826 475.257897 
L 106.541156 473.744257 
L 106.55895 472.230617 
L 106.732213 470.716977 
L 107.066295 469.203337 
L 107.573234 467.689697 
L 108.263425 466.176057 
L 108.708357 465.346269 
L 108.976278 464.662418 
L 109.613542 463.148778 
L 110.300061 461.635138 
L 110.983947 460.121498 
L 111.613949 458.607858 
L 111.825024 457.992903 
L 112.070459 457.094218 
L 112.412358 455.580578 
L 112.704749 454.066938 
L 112.959428 452.553298 
L 113.187553 451.039658 
L 113.397922 449.526018 
L 113.597524 448.012378 
L 113.792354 446.498738 
L 113.987232 444.985098 
L 114.184832 443.471458 
L 114.384967 441.957819 
L 114.585017 440.444179 
L 114.781517 438.930539 
L 114.94169 437.655424 
L 114.968166 437.416899 
L 115.126016 435.903259 
L 115.276482 434.389619 
L 115.423931 432.875979 
L 115.573424 431.362339 
L 115.729817 429.848699 
L 115.896856 428.335059 
L 116.076089 426.821419 
L 116.26582 425.307779 
L 116.460731 423.794139 
L 116.65289 422.280499 
L 116.834223 420.766859 
L 116.999454 419.253219 
L 117.148048 417.73958 
L 117.284337 416.22594 
L 117.416165 414.7123 
L 117.553149 413.19866 
L 117.705548 411.68502 
L 117.884045 410.17138 
L 118.058357 408.945589 
L 118.10596 408.65774 
L 118.41013 407.1441 
L 118.782214 405.63046 
L 119.231128 404.11682 
L 119.766798 402.60318 
L 120.400578 401.08954 
L 121.142573 399.5759 
L 121.175023 399.514082 
L 122.321889 398.06226 
L 123.685422 396.54862 
L 124.291689 395.918967 
L 126.256257 395.034981 
L 127.408356 394.536655 
L 130.525022 394.434755 
L 133.593735 395.034981 
L 133.641689 395.044598 
L 136.333805 396.54862 
L 136.758355 396.819578 
L 137.825116 398.06226 
L 139.02349 399.5759 
L 139.875021 400.716628 
L 140.159324 401.08954 
L 141.277937 402.60318 
L 142.309158 404.11682 
L 142.991688 405.228497 
L 143.287887 405.63046 
L 144.200519 407.1441 
L 144.900719 408.65774 
L 145.457973 410.17138 
L 145.925794 411.68502 
L 146.108354 412.333104 
L 146.353344 413.19866 
L 146.75496 414.7123 
L 147.116357 416.22594 
L 147.428237 417.73958 
L 147.683504 419.253219 
L 147.881253 420.766859 
L 148.02784 422.280499 
L 148.135548 423.794139 
L 148.219423 425.307779 
L 148.293491 426.821419 
L 148.368268 428.335059 
L 148.450771 429.848699 
L 148.546115 431.362339 
L 148.658353 432.875979 
L 148.789023 434.389619 
L 148.934302 435.903259 
L 149.083943 437.416899 
L 149.225021 438.930539 
L 149.225021 438.930539 
L 149.373756 440.444179 
L 149.511816 441.957819 
L 149.659747 443.471458 
L 149.844613 444.985098 
L 150.086042 446.498738 
L 150.385024 448.012378 
L 150.724398 449.526018 
L 151.080773 451.039658 
L 151.437841 452.553298 
L 151.792525 454.066938 
L 152.153175 455.580578 
L 152.341687 456.309103 
L 152.592836 457.094218 
L 153.140035 458.607858 
L 153.727838 460.121498 
L 154.331232 461.635138 
L 154.922844 463.148778 
L 155.458353 464.60117 
L 155.483395 464.662418 
L 156.078798 466.176057 
L 156.576722 467.689697 
L 156.930262 469.203337 
L 157.088719 470.716977 
L 157.002163 472.230617 
L 156.617055 473.744257 
L 155.861715 475.257897 
L 155.458353 475.776504 
L 154.694116 476.771537 
L 152.934211 478.285177 
L 152.341687 478.664773 
L 150.691586 479.798817 
L 149.225021 480.554383 
L 147.957307 481.312457 
L 146.108354 482.175912 
L 144.753879 482.826097 
L 142.991688 483.541917 
L 140.590722 484.339737 
L 139.875021 484.568306 
L 136.758355 485.323461 
L 133.641689 485.814142 
L 133.374183 485.853377 
L 130.525022 486.343612 
L 127.408356 486.757853 
L 124.291689 486.920108 
L 121.175023 486.743422 
L 118.058357 486.117477 
z
" clip-path="url(#p280243ee27)" style="fill: #d8ead8; fill-opacity: 0.5"/>
    <path d="M 118.058357 486.117477 
L 121.175023 486.743422 
L 124.291689 486.920108 
L 127.408356 486.757853 
L 130.525022 486.343612 
L 133.374183 485.853377 
L 133.641689 485.814142 
L 136.758355 485.323461 
L 139.875021 484.568306 
L 140.590722 484.339737 
L 142.991688 483.541917 
L 144.753879 482.826097 
L 146.108354 482.175912 
L 147.957307 481.312457 
L 149.225021 480.554383 
L 150.691586 479.798817 
L 152.341687 478.664773 
L 152.934211 478.285177 
L 154.694116 476.771537 
L 155.458353 475.776504 
L 155.861715 475.257897 
L 156.617055 473.744257 
L 157.002163 472.230617 
L 157.088719 470.716977 
L 156.930262 469.203337 
L 156.576722 467.689697 
L 156.078798 466.176057 
L 155.483395 464.662418 
L 155.458353 464.60117 
L 154.922844 463.148778 
L 154.331232 461.635138 
L 153.727838 460.121498 
L 153.140035 458.607858 
L 152.592836 457.094218 
L 152.341687 456.309103 
L 152.153175 455.580578 
L 151.792525 454.066938 
L 151.437841 452.553298 
L 151.080773 451.039658 
L 150.724398 449.526018 
L 150.385024 448.012378 
L 150.086042 446.498738 
L 149.844613 444.985098 
L 149.659747 443.471458 
L 149.511816 441.957819 
L 149.373756 440.444179 
L 149.225021 438.930539 
L 149.225021 438.930539 
L 149.083943 437.416899 
L 148.934302 435.903259 
L 148.789023 434.389619 
L 148.658353 432.875979 
L 148.546115 431.362339 
L 148.450771 429.848699 
L 148.368268 428.335059 
L 148.293491 426.821419 
L 148.219423 425.307779 
L 148.135548 423.794139 
L 148.02784 422.280499 
L 147.881253 420.766859 
L 147.683504 419.253219 
L 147.428237 417.73958 
L 147.116357 416.22594 
L 146.75496 414.7123 
L 146.353344 413.19866 
L 146.108354 412.333104 
L 145.925794 411.68502 
L 145.457973 410.17138 
L 144.900719 408.65774 
L 144.200519 407.1441 
L 143.287887 405.63046 
L 142.991688 405.228497 
L 142.309158 404.11682 
L 141.277937 402.60318 
L 140.159324 401.08954 
L 139.875021 400.716628 
L 139.02349 399.5759 
L 137.825116 398.06226 
L 136.758355 396.819578 
L 136.333805 396.54862 
L 133.641689 395.044598 
L 133.593735 395.034981 
L 130.525022 394.434755 
L 127.408356 394.536655 
L 126.256257 395.034981 
L 124.291689 395.918967 
L 123.685422 396.54862 
L 122.321889 398.06226 
L 121.175023 399.514082 
L 121.142573 399.5759 
L 120.400578 401.08954 
L 119.766798 402.60318 
L 119.231128 404.11682 
L 118.782214 405.63046 
L 118.41013 407.1441 
L 118.10596 408.65774 
L 118.058357 408.945589 
L 117.884045 410.17138 
L 117.705548 411.68502 
L 117.553149 413.19866 
L 117.416165 414.7123 
L 117.284337 416.22594 
L 117.148048 417.73958 
L 116.999454 419.253219 
L 116.834223 420.766859 
L 116.65289 422.280499 
L 116.460731 423.794139 
L 116.26582 425.307779 
L 116.076089 426.821419 
L 115.896856 428.335059 
L 115.729817 429.848699 
L 115.573424 431.362339 
L 115.423931 432.875979 
L 115.276482 434.389619 
L 115.126016 435.903259 
L 114.968166 437.416899 
L 114.94169 437.655424 
L 114.781517 438.930539 
L 114.585017 440.444179 
L 114.384967 441.957819 
L 114.184832 443.471458 
L 113.987232 444.985098 
L 113.792354 446.498738 
L 113.597524 448.012378 
L 113.397922 449.526018 
L 113.187553 451.039658 
L 112.959428 452.553298 
L 112.704749 454.066938 
L 112.412358 455.580578 
L 112.070459 457.094218 
L 111.825024 457.992903 
L 111.613949 458.607858 
L 110.983947 460.121498 
L 110.300061 461.635138 
L 109.613542 463.148778 
L 108.976278 464.662418 
L 108.708357 465.346269 
L 108.263425 466.176057 
L 107.573234 467.689697 
L 107.066295 469.203337 
L 106.732213 470.716977 
L 106.55895 472.230617 
L 106.541156 473.744257 
L 106.685826 475.257897 
L 107.018471 476.771537 
L 107.593325 478.285177 
L 108.512364 479.798817 
L 108.708357 480.047296 
L 109.579189 481.312457 
L 111.220754 482.826097 
L 111.825024 483.257026 
L 113.546399 484.339737 
L 114.94169 485.036722 
L 117.280861 485.853377 
z
M 116.914668 484.339737 
L 114.94169 483.488332 
L 113.79589 482.826097 
L 111.86859 481.312457 
L 111.825024 481.268175 
L 110.387227 479.798817 
L 109.45279 478.285177 
L 108.874206 476.771537 
L 108.708357 476.053699 
L 108.459388 475.257897 
L 108.237819 473.744257 
L 108.250762 472.230617 
L 108.487755 470.716977 
L 108.708357 469.977021 
L 108.869749 469.203337 
L 109.330172 467.689697 
L 109.950639 466.176057 
L 110.727717 464.662418 
L 111.637439 463.148778 
L 111.825024 462.827907 
L 112.401554 461.635138 
L 113.116851 460.121498 
L 113.790956 458.607858 
L 114.390206 457.094218 
L 114.900861 455.580578 
L 114.94169 455.429153 
L 115.277615 454.066938 
L 115.600144 452.553298 
L 115.887747 451.039658 
L 116.151218 449.526018 
L 116.398804 448.012378 
L 116.636677 446.498738 
L 116.868568 444.985098 
L 117.094948 443.471458 
L 117.31303 441.957819 
L 117.518319 440.444179 
L 117.707187 438.930539 
L 117.879133 437.416899 
L 118.037811 435.903259 
L 118.058357 435.699887 
L 118.1959 434.389619 
L 118.358483 432.875979 
L 118.536027 431.362339 
L 118.737987 429.848699 
L 118.970209 428.335059 
L 119.233846 426.821419 
L 119.525059 425.307779 
L 119.835541 423.794139 
L 120.154074 422.280499 
L 120.469198 420.766859 
L 120.772389 419.253219 
L 121.060363 417.73958 
L 121.175023 417.094638 
L 121.371485 416.22594 
L 121.69804 414.7123 
L 122.032593 413.19866 
L 122.398973 411.68502 
L 122.823919 410.17138 
L 123.335659 408.65774 
L 123.961528 407.1441 
L 124.291689 406.471736 
L 125.148015 405.63046 
L 127.067512 404.11682 
L 127.408356 403.885236 
L 130.525022 403.856854 
L 131.158381 404.11682 
L 133.641689 405.284546 
L 133.975283 405.63046 
L 135.220542 407.1441 
L 136.274748 408.65774 
L 136.758355 409.396587 
L 137.187796 410.17138 
L 138.0294 411.68502 
L 138.845395 413.19866 
L 139.593607 414.7123 
L 139.875021 415.358217 
L 140.21054 416.22594 
L 140.701619 417.73958 
L 141.098392 419.253219 
L 141.412446 420.766859 
L 141.65914 422.280499 
L 141.85746 423.794139 
L 142.026136 425.307779 
L 142.178577 426.821419 
L 142.320214 428.335059 
L 142.44985 429.848699 
L 142.563963 431.362339 
L 142.661299 432.875979 
L 142.745312 434.389619 
L 142.823475 435.903259 
L 142.90399 437.416899 
L 142.991688 438.930539 
L 142.991688 438.930539 
L 143.096086 440.444179 
L 143.204498 441.957819 
L 143.323155 443.471458 
L 143.470752 444.985098 
L 143.676772 446.498738 
L 143.973096 448.012378 
L 144.38116 449.526018 
L 144.899387 451.039658 
L 145.498525 452.553298 
L 146.108354 454.00989 
L 146.133429 454.066938 
L 146.817673 455.580578 
L 147.458316 457.094218 
L 148.066836 458.607858 
L 148.657165 460.121498 
L 149.225021 461.615985 
L 149.233993 461.635138 
L 149.979858 463.148778 
L 150.676398 464.662418 
L 151.284154 466.176057 
L 151.770799 467.689697 
L 152.109115 469.203337 
L 152.269416 470.716977 
L 152.210691 472.230617 
L 151.871557 473.744257 
L 151.159104 475.257897 
L 149.93122 476.771537 
L 149.225021 477.364475 
L 148.392439 478.285177 
L 146.314303 479.798817 
L 146.108354 479.916002 
L 143.858825 481.312457 
L 142.991688 481.729991 
L 140.355821 482.826097 
L 139.875021 483.002838 
L 136.758355 483.885113 
L 134.395956 484.339737 
L 133.641689 484.494066 
L 130.525022 485.076181 
L 127.408356 485.508381 
L 124.291689 485.670493 
L 121.175023 485.470762 
L 118.058357 484.78176 
z
" clip-path="url(#p280243ee27)" style="fill: #cbe4cb; fill-opacity: 0.5"/>
    <path d="M 118.058357 484.78176 
L 121.175023 485.470762 
L 124.291689 485.670493 
L 127.408356 485.508381 
L 130.525022 485.076181 
L 133.641689 484.494066 
L 134.395956 484.339737 
L 136.758355 483.885113 
L 139.875021 483.002838 
L 140.355821 482.826097 
L 142.991688 481.729991 
L 143.858825 481.312457 
L 146.108354 479.916002 
L 146.314303 479.798817 
L 148.392439 478.285177 
L 149.225021 477.364475 
L 149.93122 476.771537 
L 151.159104 475.257897 
L 151.871557 473.744257 
L 152.210691 472.230617 
L 152.269416 470.716977 
L 152.109115 469.203337 
L 151.770799 467.689697 
L 151.284154 466.176057 
L 150.676398 464.662418 
L 149.979858 463.148778 
L 149.233993 461.635138 
L 149.225021 461.615985 
L 148.657165 460.121498 
L 148.066836 458.607858 
L 147.458316 457.094218 
L 146.817673 455.580578 
L 146.133429 454.066938 
L 146.108354 454.00989 
L 145.498525 452.553298 
L 144.899387 451.039658 
L 144.38116 449.526018 
L 143.973096 448.012378 
L 143.676772 446.498738 
L 143.470752 444.985098 
L 143.323155 443.471458 
L 143.204498 441.957819 
L 143.096086 440.444179 
L 142.991688 438.930539 
L 142.991688 438.930539 
L 142.90399 437.416899 
L 142.823475 435.903259 
L 142.745312 434.389619 
L 142.661299 432.875979 
L 142.563963 431.362339 
L 142.44985 429.848699 
L 142.320214 428.335059 
L 142.178577 426.821419 
L 142.026136 425.307779 
L 141.85746 423.794139 
L 141.65914 422.280499 
L 141.412446 420.766859 
L 141.098392 419.253219 
L 140.701619 417.73958 
L 140.21054 416.22594 
L 139.875021 415.358217 
L 139.593607 414.7123 
L 138.845395 413.19866 
L 138.0294 411.68502 
L 137.187796 410.17138 
L 136.758355 409.396587 
L 136.274748 408.65774 
L 135.220542 407.1441 
L 133.975283 405.63046 
L 133.641689 405.284546 
L 131.158381 404.11682 
L 130.525022 403.856854 
L 127.408356 403.885236 
L 127.067512 404.11682 
L 125.148015 405.63046 
L 124.291689 406.471736 
L 123.961528 407.1441 
L 123.335659 408.65774 
L 122.823919 410.17138 
L 122.398973 411.68502 
L 122.032593 413.19866 
L 121.69804 414.7123 
L 121.371485 416.22594 
L 121.175023 417.094638 
L 121.060363 417.73958 
L 120.772389 419.253219 
L 120.469198 420.766859 
L 120.154074 422.280499 
L 119.835541 423.794139 
L 119.525059 425.307779 
L 119.233846 426.821419 
L 118.970209 428.335059 
L 118.737987 429.848699 
L 118.536027 431.362339 
L 118.358483 432.875979 
L 118.1959 434.389619 
L 118.058357 435.699887 
L 118.037811 435.903259 
L 117.879133 437.416899 
L 117.707187 438.930539 
L 117.518319 440.444179 
L 117.31303 441.957819 
L 117.094948 443.471458 
L 116.868568 444.985098 
L 116.636677 446.498738 
L 116.398804 448.012378 
L 116.151218 449.526018 
L 115.887747 451.039658 
L 115.600144 452.553298 
L 115.277615 454.066938 
L 114.94169 455.429153 
L 114.900861 455.580578 
L 114.390206 457.094218 
L 113.790956 458.607858 
L 113.116851 460.121498 
L 112.401554 461.635138 
L 111.825024 462.827907 
L 111.637439 463.148778 
L 110.727717 464.662418 
L 109.950639 466.176057 
L 109.330172 467.689697 
L 108.869749 469.203337 
L 108.708357 469.977021 
L 108.487755 470.716977 
L 108.250762 472.230617 
L 108.237819 473.744257 
L 108.459388 475.257897 
L 108.708357 476.053699 
L 108.874206 476.771537 
L 109.45279 478.285177 
L 110.387227 479.798817 
L 111.825024 481.268175 
L 111.86859 481.312457 
L 113.79589 482.826097 
L 114.94169 483.488332 
L 116.914668 484.339737 
z
M 120.663204 484.339737 
L 118.058357 483.710464 
L 116.077416 482.826097 
L 114.94169 482.21218 
L 113.621706 481.312457 
L 112.066846 479.798817 
L 111.825024 479.473057 
L 110.899574 478.285177 
L 110.133396 476.771537 
L 109.687245 475.257897 
L 109.483145 473.744257 
L 109.482618 472.230617 
L 109.67147 470.716977 
L 110.050682 469.203337 
L 110.629463 467.689697 
L 111.417171 466.176057 
L 111.825024 465.504069 
L 112.25342 464.662418 
L 113.095725 463.148778 
L 114.010293 461.635138 
L 114.94169 460.121498 
L 114.94169 460.121498 
L 115.69136 458.607858 
L 116.366914 457.094218 
L 116.957165 455.580578 
L 117.465692 454.066938 
L 117.905388 452.553298 
L 118.058357 451.939511 
L 118.301438 451.039658 
L 118.6697 449.526018 
L 119.016262 448.012378 
L 119.346286 446.498738 
L 119.659629 444.985098 
L 119.951446 443.471458 
L 120.214486 441.957819 
L 120.443249 440.444179 
L 120.637836 438.930539 
L 120.804982 437.416899 
L 120.956146 435.903259 
L 121.10475 434.389619 
L 121.175023 433.724205 
L 121.300752 432.875979 
L 121.564992 431.362339 
L 121.886541 429.848699 
L 122.272978 428.335059 
L 122.720389 426.821419 
L 123.214467 425.307779 
L 123.734959 423.794139 
L 124.260755 422.280499 
L 124.291689 422.187881 
L 125.235407 420.766859 
L 126.103535 419.253219 
L 126.878528 417.73958 
L 127.408356 416.655259 
L 129.060122 416.22594 
L 130.525022 415.876278 
L 130.88077 416.22594 
L 132.425409 417.73958 
L 133.641689 418.920983 
L 133.824345 419.253219 
L 134.586729 420.766859 
L 135.271081 422.280499 
L 135.886527 423.794139 
L 136.440278 425.307779 
L 136.758355 426.269553 
L 136.88434 426.821419 
L 137.196392 428.335059 
L 137.464104 429.848699 
L 137.679367 431.362339 
L 137.835143 432.875979 
L 137.932407 434.389619 
L 137.984478 435.903259 
L 138.015962 437.416899 
L 138.056391 438.930539 
L 138.131152 440.444179 
L 138.254172 441.957819 
L 138.427401 443.471458 
L 138.648404 444.985098 
L 138.920498 446.498738 
L 139.257596 448.012378 
L 139.680842 449.526018 
L 139.875021 450.071015 
L 140.241687 451.039658 
L 140.943688 452.553298 
L 141.745492 454.066938 
L 142.603283 455.580578 
L 142.991688 456.232996 
L 143.501668 457.094218 
L 144.382873 458.607858 
L 145.206036 460.121498 
L 145.969185 461.635138 
L 146.108354 461.913321 
L 146.769137 463.148778 
L 147.5155 464.662418 
L 148.14744 466.176057 
L 148.634497 467.689697 
L 148.956518 469.203337 
L 149.097746 470.716977 
L 149.036341 472.230617 
L 148.732032 473.744257 
L 148.111222 475.257897 
L 147.046085 476.771537 
L 146.108354 477.650574 
L 145.544323 478.285177 
L 143.581603 479.798817 
L 142.991688 480.143794 
L 140.790422 481.312457 
L 139.875021 481.707848 
L 136.758355 482.709137 
L 136.277332 482.826097 
L 133.641689 483.451217 
L 130.525022 484.055105 
L 128.591628 484.339737 
L 127.408356 484.53431 
L 124.291689 484.732814 
L 121.175023 484.46566 
z
" clip-path="url(#p280243ee27)" style="fill: #beddbe; fill-opacity: 0.5"/>
    <path d="M 121.175023 484.46566 
L 124.291689 484.732814 
L 127.408356 484.53431 
L 128.591628 484.339737 
L 130.525022 484.055105 
L 133.641689 483.451217 
L 136.277332 482.826097 
L 136.758355 482.709137 
L 139.875021 481.707848 
L 140.790422 481.312457 
L 142.991688 480.143794 
L 143.581603 479.798817 
L 145.544323 478.285177 
L 146.108354 477.650574 
L 147.046085 476.771537 
L 148.111222 475.257897 
L 148.732032 473.744257 
L 149.036341 472.230617 
L 149.097746 470.716977 
L 148.956518 469.203337 
L 148.634497 467.689697 
L 148.14744 466.176057 
L 147.5155 464.662418 
L 146.769137 463.148778 
L 146.108354 461.913321 
L 145.969185 461.635138 
L 145.206036 460.121498 
L 144.382873 458.607858 
L 143.501668 457.094218 
L 142.991688 456.232996 
L 142.603283 455.580578 
L 141.745492 454.066938 
L 140.943688 452.553298 
L 140.241687 451.039658 
L 139.875021 450.071015 
L 139.680842 449.526018 
L 139.257596 448.012378 
L 138.920498 446.498738 
L 138.648404 444.985098 
L 138.427401 443.471458 
L 138.254172 441.957819 
L 138.131152 440.444179 
L 138.056391 438.930539 
L 138.015962 437.416899 
L 137.984478 435.903259 
L 137.932407 434.389619 
L 137.835143 432.875979 
L 137.679367 431.362339 
L 137.464104 429.848699 
L 137.196392 428.335059 
L 136.88434 426.821419 
L 136.758355 426.269553 
L 136.440278 425.307779 
L 135.886527 423.794139 
L 135.271081 422.280499 
L 134.586729 420.766859 
L 133.824345 419.253219 
L 133.641689 418.920983 
L 132.425409 417.73958 
L 130.88077 416.22594 
L 130.525022 415.876278 
L 129.060122 416.22594 
L 127.408356 416.655259 
L 126.878528 417.73958 
L 126.103535 419.253219 
L 125.235407 420.766859 
L 124.291689 422.187881 
L 124.260755 422.280499 
L 123.734959 423.794139 
L 123.214467 425.307779 
L 122.720389 426.821419 
L 122.272978 428.335059 
L 121.886541 429.848699 
L 121.564992 431.362339 
L 121.300752 432.875979 
L 121.175023 433.724205 
L 121.10475 434.389619 
L 120.956146 435.903259 
L 120.804982 437.416899 
L 120.637836 438.930539 
L 120.443249 440.444179 
L 120.214486 441.957819 
L 119.951446 443.471458 
L 119.659629 444.985098 
L 119.346286 446.498738 
L 119.016262 448.012378 
L 118.6697 449.526018 
L 118.301438 451.039658 
L 118.058357 451.939511 
L 117.905388 452.553298 
L 117.465692 454.066938 
L 116.957165 455.580578 
L 116.366914 457.094218 
L 115.69136 458.607858 
L 114.94169 460.121498 
L 114.94169 460.121498 
L 114.010293 461.635138 
L 113.095725 463.148778 
L 112.25342 464.662418 
L 111.825024 465.504069 
L 111.417171 466.176057 
L 110.629463 467.689697 
L 110.050682 469.203337 
L 109.67147 470.716977 
L 109.482618 472.230617 
L 109.483145 473.744257 
L 109.687245 475.257897 
L 110.133396 476.771537 
L 110.899574 478.285177 
L 111.825024 479.473057 
L 112.066846 479.798817 
L 113.621706 481.312457 
L 114.94169 482.21218 
L 116.077416 482.826097 
L 118.058357 483.710464 
L 120.663204 484.339737 
z
M 118.489501 482.826097 
L 118.058357 482.695308 
L 115.426286 481.312457 
L 114.94169 480.978032 
L 113.510648 479.798817 
L 112.290199 478.285177 
L 111.825024 477.408361 
L 111.45219 476.771537 
L 110.887763 475.257897 
L 110.623589 473.744257 
L 110.61098 472.230617 
L 110.831838 470.716977 
L 111.287514 469.203337 
L 111.825024 468.020249 
L 111.949112 467.689697 
L 112.660317 466.176057 
L 113.54152 464.662418 
L 114.568567 463.148778 
L 114.94169 462.601401 
L 115.586029 461.635138 
L 116.561345 460.121498 
L 117.495336 458.607858 
L 118.058357 457.578996 
L 118.359336 457.094218 
L 119.131222 455.580578 
L 119.800315 454.066938 
L 120.388869 452.553298 
L 120.918409 451.039658 
L 121.175023 450.225063 
L 121.467084 449.526018 
L 122.043505 448.012378 
L 122.589769 446.498738 
L 123.105 444.985098 
L 123.576693 443.471458 
L 123.98785 441.957819 
L 124.291689 440.604761 
L 124.367339 440.444179 
L 124.960186 438.930539 
L 125.500126 437.416899 
L 126.046736 435.903259 
L 126.664526 434.389619 
L 127.408356 432.875979 
L 130.525022 434.024309 
L 130.695788 434.389619 
L 131.289528 435.903259 
L 131.780725 437.416899 
L 132.222324 438.930539 
L 132.651955 440.444179 
L 133.090441 441.957819 
L 133.546469 443.471458 
L 133.641689 443.757617 
L 133.9435 444.985098 
L 134.360448 446.498738 
L 134.829208 448.012378 
L 135.367755 449.526018 
L 136.00018 451.039658 
L 136.750382 452.553298 
L 136.758355 452.566568 
L 137.652871 454.066938 
L 138.66462 455.580578 
L 139.74618 457.094218 
L 139.875021 457.259215 
L 140.89397 458.607858 
L 141.998972 460.121498 
L 142.991688 461.586386 
L 143.023522 461.635138 
L 144.023428 463.148778 
L 144.899665 464.662418 
L 145.621752 466.176057 
L 146.108354 467.515309 
L 146.181333 467.689697 
L 146.637363 469.203337 
L 146.850556 470.716977 
L 146.793244 472.230617 
L 146.416445 473.744257 
L 146.108354 474.362957 
L 145.760455 475.257897 
L 144.791176 476.771537 
L 143.240936 478.285177 
L 142.991688 478.467663 
L 141.078984 479.798817 
L 139.875021 480.425488 
L 137.659415 481.312457 
L 136.758355 481.623068 
L 133.641689 482.450489 
L 131.950663 482.826097 
L 130.525022 483.141751 
L 127.408356 483.677173 
L 124.291689 483.864738 
L 121.175023 483.59102 
z
" clip-path="url(#p280243ee27)" style="fill: #b1d7b1; fill-opacity: 0.5"/>
    <path d="M 121.175023 483.59102 
L 124.291689 483.864738 
L 127.408356 483.677173 
L 130.525022 483.141751 
L 131.950663 482.826097 
L 133.641689 482.450489 
L 136.758355 481.623068 
L 137.659415 481.312457 
L 139.875021 480.425488 
L 141.078984 479.798817 
L 142.991688 478.467663 
L 143.240936 478.285177 
L 144.791176 476.771537 
L 145.760455 475.257897 
L 146.108354 474.362957 
L 146.416445 473.744257 
L 146.793244 472.230617 
L 146.850556 470.716977 
L 146.637363 469.203337 
L 146.181333 467.689697 
L 146.108354 467.515309 
L 145.621752 466.176057 
L 144.899665 464.662418 
L 144.023428 463.148778 
L 143.023522 461.635138 
L 142.991688 461.586386 
L 141.998972 460.121498 
L 140.89397 458.607858 
L 139.875021 457.259215 
L 139.74618 457.094218 
L 138.66462 455.580578 
L 137.652871 454.066938 
L 136.758355 452.566568 
L 136.750382 452.553298 
L 136.00018 451.039658 
L 135.367755 449.526018 
L 134.829208 448.012378 
L 134.360448 446.498738 
L 133.9435 444.985098 
L 133.641689 443.757617 
L 133.546469 443.471458 
L 133.090441 441.957819 
L 132.651955 440.444179 
L 132.222324 438.930539 
L 131.780725 437.416899 
L 131.289528 435.903259 
L 130.695788 434.389619 
L 130.525022 434.024309 
L 127.408356 432.875979 
L 126.664526 434.389619 
L 126.046736 435.903259 
L 125.500126 437.416899 
L 124.960186 438.930539 
L 124.367339 440.444179 
L 124.291689 440.604761 
L 123.98785 441.957819 
L 123.576693 443.471458 
L 123.105 444.985098 
L 122.589769 446.498738 
L 122.043505 448.012378 
L 121.467084 449.526018 
L 121.175023 450.225063 
L 120.918409 451.039658 
L 120.388869 452.553298 
L 119.800315 454.066938 
L 119.131222 455.580578 
L 118.359336 457.094218 
L 118.058357 457.578996 
L 117.495336 458.607858 
L 116.561345 460.121498 
L 115.586029 461.635138 
L 114.94169 462.601401 
L 114.568567 463.148778 
L 113.54152 464.662418 
L 112.660317 466.176057 
L 111.949112 467.689697 
L 111.825024 468.020249 
L 111.287514 469.203337 
L 110.831838 470.716977 
L 110.61098 472.230617 
L 110.623589 473.744257 
L 110.887763 475.257897 
L 111.45219 476.771537 
L 111.825024 477.408361 
L 112.290199 478.285177 
L 113.510648 479.798817 
L 114.94169 480.978032 
L 115.426286 481.312457 
L 118.058357 482.695308 
L 118.489501 482.826097 
z
M 118.351952 481.312457 
L 118.058357 481.198561 
L 115.848994 479.798817 
L 114.94169 478.97522 
L 114.272911 478.285177 
L 113.252729 476.771537 
L 112.65163 475.257897 
L 112.363956 473.744257 
L 112.335274 472.230617 
L 112.541679 470.716977 
L 112.977188 469.203337 
L 113.644638 467.689697 
L 114.547183 466.176057 
L 114.94169 465.604706 
L 115.591202 464.662418 
L 116.736941 463.148778 
L 117.97648 461.635138 
L 118.058357 461.526484 
L 119.327297 460.121498 
L 120.599835 458.607858 
L 121.175023 457.823418 
L 121.987866 457.094218 
L 123.357109 455.580578 
L 124.291689 454.339923 
L 124.8424 454.066938 
L 127.229839 452.553298 
L 127.408356 452.413817 
L 127.698646 452.553298 
L 130.525022 453.766573 
L 130.776453 454.066938 
L 132.279509 455.580578 
L 133.641689 456.783846 
L 133.923082 457.094218 
L 135.485131 458.607858 
L 136.758355 459.793677 
L 137.073725 460.121498 
L 138.576094 461.635138 
L 139.875021 463.081229 
L 139.931789 463.148778 
L 141.167815 464.662418 
L 142.179875 466.176057 
L 142.949635 467.689697 
L 142.991688 467.803769 
L 143.527764 469.203337 
L 143.826941 470.716977 
L 143.827871 472.230617 
L 143.496767 473.744257 
L 142.991688 474.801439 
L 142.788136 475.257897 
L 141.666966 476.771537 
L 139.875021 478.285177 
L 139.875021 478.285177 
L 137.013426 479.798817 
L 136.758355 479.905006 
L 133.641689 480.953721 
L 132.364712 481.312457 
L 130.525022 481.787538 
L 127.408356 482.384382 
L 124.291689 482.585233 
L 121.175023 482.260289 
z
" clip-path="url(#p280243ee27)" style="fill: #9fce9f; fill-opacity: 0.5"/>
    <path d="M 121.175023 482.260289 
L 124.291689 482.585233 
L 127.408356 482.384382 
L 130.525022 481.787538 
L 132.364712 481.312457 
L 133.641689 480.953721 
L 136.758355 479.905006 
L 137.013426 479.798817 
L 139.875021 478.285177 
L 139.875021 478.285177 
L 141.666966 476.771537 
L 142.788136 475.257897 
L 142.991688 474.801439 
L 143.496767 473.744257 
L 143.827871 472.230617 
L 143.826941 470.716977 
L 143.527764 469.203337 
L 142.991688 467.803769 
L 142.949635 467.689697 
L 142.179875 466.176057 
L 141.167815 464.662418 
L 139.931789 463.148778 
L 139.875021 463.081229 
L 138.576094 461.635138 
L 137.073725 460.121498 
L 136.758355 459.793677 
L 135.485131 458.607858 
L 133.923082 457.094218 
L 133.641689 456.783846 
L 132.279509 455.580578 
L 130.776453 454.066938 
L 130.525022 453.766573 
L 127.698646 452.553298 
L 127.408356 452.413817 
L 127.229839 452.553298 
L 124.8424 454.066938 
L 124.291689 454.339923 
L 123.357109 455.580578 
L 121.987866 457.094218 
L 121.175023 457.823418 
L 120.599835 458.607858 
L 119.327297 460.121498 
L 118.058357 461.526484 
L 117.97648 461.635138 
L 116.736941 463.148778 
L 115.591202 464.662418 
L 114.94169 465.604706 
L 114.547183 466.176057 
L 113.644638 467.689697 
L 112.977188 469.203337 
L 112.541679 470.716977 
L 112.335274 472.230617 
L 112.363956 473.744257 
L 112.65163 475.257897 
L 113.252729 476.771537 
L 114.272911 478.285177 
L 114.94169 478.97522 
L 115.848994 479.798817 
L 118.058357 481.198561 
L 118.351952 481.312457 
z
M 120.370496 479.798817 
L 118.058357 478.618685 
L 117.636609 478.285177 
L 116.238089 476.771537 
L 115.401891 475.257897 
L 114.98688 473.744257 
L 114.94169 472.753896 
L 114.916836 472.230617 
L 114.94169 472.081894 
L 115.158765 470.716977 
L 115.690918 469.203337 
L 116.506267 467.689697 
L 117.595814 466.176057 
L 118.058357 465.618196 
L 119.075169 464.662418 
L 120.800976 463.148778 
L 121.175023 462.811811 
L 123.478043 461.635138 
L 124.291689 461.156608 
L 127.408356 460.7164 
L 130.525022 461.599847 
L 130.584478 461.635138 
L 133.188079 463.148778 
L 133.641689 463.430852 
L 135.190703 464.662418 
L 136.758355 466.176057 
L 136.758355 466.176057 
L 137.966174 467.689697 
L 138.799571 469.203337 
L 139.262664 470.716977 
L 139.342142 472.230617 
L 138.990596 473.744257 
L 138.107929 475.257897 
L 136.758355 476.559786 
L 136.514616 476.771537 
L 133.875633 478.285177 
L 133.641689 478.385797 
L 130.525022 479.561814 
L 129.650385 479.798817 
L 127.408356 480.337696 
L 124.291689 480.580484 
L 121.175023 480.124883 
z
" clip-path="url(#p280243ee27)" style="fill: #80bf80; fill-opacity: 0.5"/>
    <path d="M 121.175023 480.124883 
L 124.291689 480.580484 
L 127.408356 480.337696 
L 129.650385 479.798817 
L 130.525022 479.561814 
L 133.641689 478.385797 
L 133.875633 478.285177 
L 136.514616 476.771537 
L 136.758355 476.559786 
L 138.107929 475.257897 
L 138.990596 473.744257 
L 139.342142 472.230617 
L 139.262664 470.716977 
L 138.799571 469.203337 
L 137.966174 467.689697 
L 136.758355 466.176057 
L 136.758355 466.176057 
L 135.190703 464.662418 
L 133.641689 463.430852 
L 133.188079 463.148778 
L 130.584478 461.635138 
L 130.525022 461.599847 
L 127.408356 460.7164 
L 124.291689 461.156608 
L 123.478043 461.635138 
L 121.175023 462.811811 
L 120.800976 463.148778 
L 119.075169 464.662418 
L 118.058357 465.618196 
L 117.595814 466.176057 
L 116.506267 467.689697 
L 115.690918 469.203337 
L 115.158765 470.716977 
L 114.94169 472.081894 
L 114.916836 472.230617 
L 114.94169 472.753896 
L 114.98688 473.744257 
L 115.401891 475.257897 
L 116.238089 476.771537 
L 117.636609 478.285177 
L 118.058357 478.618685 
L 120.370496 479.798817 
z
M 120.355308 476.771537 
L 118.85275 475.257897 
L 118.085252 473.744257 
L 118.058357 473.510837 
L 117.945508 472.230617 
L 118.058357 471.60894 
L 118.264255 470.716977 
L 119.082523 469.203337 
L 120.326399 467.689697 
L 121.175023 466.872291 
L 122.632447 466.176057 
L 124.291689 465.425441 
L 127.408356 465.329333 
L 129.735563 466.176057 
L 130.525022 466.524479 
L 132.011852 467.689697 
L 133.333249 469.203337 
L 133.641689 469.840681 
L 134.026138 470.716977 
L 134.142913 472.230617 
L 133.641689 473.744257 
L 133.641689 473.744257 
L 132.376124 475.257897 
L 130.525022 476.532407 
L 130.050526 476.771537 
L 127.408356 477.741476 
L 124.291689 478.080725 
L 121.175023 477.317151 
z
" clip-path="url(#p280243ee27)" style="fill: #54a954; fill-opacity: 0.5"/>
    <path d="M 121.175023 477.317151 
L 124.291689 478.080725 
L 127.408356 477.741476 
L 130.050526 476.771537 
L 130.525022 476.532407 
L 132.376124 475.257897 
L 133.641689 473.744257 
L 133.641689 473.744257 
L 134.142913 472.230617 
L 134.026138 470.716977 
L 133.641689 469.840681 
L 133.333249 469.203337 
L 132.011852 467.689697 
L 130.525022 466.524479 
L 129.735563 466.176057 
L 127.408356 465.329333 
L 124.291689 465.425441 
L 122.632447 466.176057 
L 121.175023 466.872291 
L 120.326399 467.689697 
L 119.082523 469.203337 
L 118.264255 470.716977 
L 118.058357 471.60894 
L 117.945508 472.230617 
L 118.058357 473.510837 
L 118.085252 473.744257 
L 118.85275 475.257897 
L 120.355308 476.771537 
z
" clip-path="url(#p280243ee27)" style="fill: #1d8e1d; fill-opacity: 0.5"/>
   </g>
   <g id="matplotlib.axis_1">
    <g id="xtick_1">
     <g id="line2d_1">
      <defs>
       <path id="m702384ff0e" d="M 0 0 
L 0 3.5 
" style="stroke: #000000; stroke-width: 0.8"/>
      </defs>
      <g>
       <use xlink:href="#m702384ff0e" x="120.555745" y="499.48" style="stroke: #000000; stroke-width: 0.8"/>
      </g>
     </g>
     <g id="text_1">
      <!-- 0 -->
      <g transform="translate(113.556995 523.196563) scale(0.22 -0.22)">
       <defs>
        <path id="DejaVuSans-30" d="M 2034 4250 
Q 1547 4250 1301 3770 
Q 1056 3291 1056 2328 
Q 1056 1369 1301 889 
Q 1547 409 2034 409 
Q 2525 409 2770 889 
Q 3016 1369 3016 2328 
Q 3016 3291 2770 3770 
Q 2525 4250 2034 4250 
z
M 2034 4750 
Q 2819 4750 3233 4129 
Q 3647 3509 3647 2328 
Q 3647 1150 3233 529 
Q 2819 -91 2034 -91 
Q 1250 -91 836 529 
Q 422 1150 422 2328 
Q 422 3509 836 4129 
Q 1250 4750 2034 4750 
z
" transform="scale(0.015625)"/>
       </defs>
       <use xlink:href="#DejaVuSans-30"/>
      </g>
     </g>
    </g>
    <g id="xtick_2">
     <g id="line2d_2">
      <g>
       <use xlink:href="#m702384ff0e" x="206.691385" y="499.48" style="stroke: #000000; stroke-width: 0.8"/>
      </g>
     </g>
     <g id="text_2">
      <!-- 20 -->
      <g transform="translate(192.693885 523.196563) scale(0.22 -0.22)">
       <defs>
        <path id="DejaVuSans-32" d="M 1228 531 
L 3431 531 
L 3431 0 
L 469 0 
L 469 531 
Q 828 903 1448 1529 
Q 2069 2156 2228 2338 
Q 2531 2678 2651 2914 
Q 2772 3150 2772 3378 
Q 2772 3750 2511 3984 
Q 2250 4219 1831 4219 
Q 1534 4219 1204 4116 
Q 875 4013 500 3803 
L 500 4441 
Q 881 4594 1212 4672 
Q 1544 4750 1819 4750 
Q 2544 4750 2975 4387 
Q 3406 4025 3406 3419 
Q 3406 3131 3298 2873 
Q 3191 2616 2906 2266 
Q 2828 2175 2409 1742 
Q 1991 1309 1228 531 
z
" transform="scale(0.015625)"/>
       </defs>
       <use xlink:href="#DejaVuSans-32"/>
       <use xlink:href="#DejaVuSans-30" x="63.623047"/>
      </g>
     </g>
    </g>
    <g id="xtick_3">
     <g id="line2d_3">
      <g>
       <use xlink:href="#m702384ff0e" x="292.827024" y="499.48" style="stroke: #000000; stroke-width: 0.8"/>
      </g>
     </g>
     <g id="text_3">
      <!-- 40 -->
      <g transform="translate(278.829524 523.196563) scale(0.22 -0.22)">
       <defs>
        <path id="DejaVuSans-34" d="M 2419 4116 
L 825 1625 
L 2419 1625 
L 2419 4116 
z
M 2253 4666 
L 3047 4666 
L 3047 1625 
L 3713 1625 
L 3713 1100 
L 3047 1100 
L 3047 0 
L 2419 0 
L 2419 1100 
L 313 1100 
L 313 1709 
L 2253 4666 
z
" transform="scale(0.015625)"/>
       </defs>
       <use xlink:href="#DejaVuSans-34"/>
       <use xlink:href="#DejaVuSans-30" x="63.623047"/>
      </g>
     </g>
    </g>
    <g id="xtick_4">
     <g id="line2d_4">
      <g>
       <use xlink:href="#m702384ff0e" x="378.962664" y="499.48" style="stroke: #000000; stroke-width: 0.8"/>
      </g>
     </g>
     <g id="text_4">
      <!-- 60 -->
      <g transform="translate(364.965164 523.196563) scale(0.22 -0.22)">
       <defs>
        <path id="DejaVuSans-36" d="M 2113 2584 
Q 1688 2584 1439 2293 
Q 1191 2003 1191 1497 
Q 1191 994 1439 701 
Q 1688 409 2113 409 
Q 2538 409 2786 701 
Q 3034 994 3034 1497 
Q 3034 2003 2786 2293 
Q 2538 2584 2113 2584 
z
M 3366 4563 
L 3366 3988 
Q 3128 4100 2886 4159 
Q 2644 4219 2406 4219 
Q 1781 4219 1451 3797 
Q 1122 3375 1075 2522 
Q 1259 2794 1537 2939 
Q 1816 3084 2150 3084 
Q 2853 3084 3261 2657 
Q 3669 2231 3669 1497 
Q 3669 778 3244 343 
Q 2819 -91 2113 -91 
Q 1303 -91 875 529 
Q 447 1150 447 2328 
Q 447 3434 972 4092 
Q 1497 4750 2381 4750 
Q 2619 4750 2861 4703 
Q 3103 4656 3366 4563 
z
" transform="scale(0.015625)"/>
       </defs>
       <use xlink:href="#DejaVuSans-36"/>
       <use xlink:href="#DejaVuSans-30" x="63.623047"/>
      </g>
     </g>
    </g>
    <g id="xtick_5">
     <g id="line2d_5">
      <g>
       <use xlink:href="#m702384ff0e" x="465.098304" y="499.48" style="stroke: #000000; stroke-width: 0.8"/>
      </g>
     </g>
     <g id="text_5">
      <!-- 80 -->
      <g transform="translate(451.100804 523.196563) scale(0.22 -0.22)">
       <defs>
        <path id="DejaVuSans-38" d="M 2034 2216 
Q 1584 2216 1326 1975 
Q 1069 1734 1069 1313 
Q 1069 891 1326 650 
Q 1584 409 2034 409 
Q 2484 409 2743 651 
Q 3003 894 3003 1313 
Q 3003 1734 2745 1975 
Q 2488 2216 2034 2216 
z
M 1403 2484 
Q 997 2584 770 2862 
Q 544 3141 544 3541 
Q 544 4100 942 4425 
Q 1341 4750 2034 4750 
Q 2731 4750 3128 4425 
Q 3525 4100 3525 3541 
Q 3525 3141 3298 2862 
Q 3072 2584 2669 2484 
Q 3125 2378 3379 2068 
Q 3634 1759 3634 1313 
Q 3634 634 3220 271 
Q 2806 -91 2034 -91 
Q 1263 -91 848 271 
Q 434 634 434 1313 
Q 434 1759 690 2068 
Q 947 2378 1403 2484 
z
M 1172 3481 
Q 1172 3119 1398 2916 
Q 1625 2713 2034 2713 
Q 2441 2713 2670 2916 
Q 2900 3119 2900 3481 
Q 2900 3844 2670 4047 
Q 2441 4250 2034 4250 
Q 1625 4250 1398 4047 
Q 1172 3844 1172 3481 
z
" transform="scale(0.015625)"/>
       </defs>
       <use xlink:href="#DejaVuSans-38"/>
       <use xlink:href="#DejaVuSans-30" x="63.623047"/>
      </g>
     </g>
    </g>
    <g id="xtick_6">
     <g id="line2d_6">
      <g>
       <use xlink:href="#m702384ff0e" x="551.233944" y="499.48" style="stroke: #000000; stroke-width: 0.8"/>
      </g>
     </g>
     <g id="text_6">
      <!-- 100 -->
      <g transform="translate(530.237694 523.196563) scale(0.22 -0.22)">
       <defs>
        <path id="DejaVuSans-31" d="M 794 531 
L 1825 531 
L 1825 4091 
L 703 3866 
L 703 4441 
L 1819 4666 
L 2450 4666 
L 2450 531 
L 3481 531 
L 3481 0 
L 794 0 
L 794 531 
z
" transform="scale(0.015625)"/>
       </defs>
       <use xlink:href="#DejaVuSans-31"/>
       <use xlink:href="#DejaVuSans-30" x="63.623047"/>
       <use xlink:href="#DejaVuSans-30" x="127.246094"/>
      </g>
     </g>
    </g>
    <g id="xtick_7">
     <g id="line2d_7">
      <g>
       <use xlink:href="#m702384ff0e" x="637.369584" y="499.48" style="stroke: #000000; stroke-width: 0.8"/>
      </g>
     </g>
     <g id="text_7">
      <!-- 120 -->
      <g transform="translate(616.373334 523.196563) scale(0.22 -0.22)">
       <use xlink:href="#DejaVuSans-31"/>
       <use xlink:href="#DejaVuSans-32" x="63.623047"/>
       <use xlink:href="#DejaVuSans-30" x="127.246094"/>
      </g>
     </g>
    </g>
    <g id="text_8">
     <!-- Force Uncertainties -->
     <g transform="translate(290.446094 548.488438) scale(0.22 -0.22)">
      <defs>
       <path id="DejaVuSans-46" d="M 628 4666 
L 3309 4666 
L 3309 4134 
L 1259 4134 
L 1259 2759 
L 3109 2759 
L 3109 2228 
L 1259 2228 
L 1259 0 
L 628 0 
L 628 4666 
z
" transform="scale(0.015625)"/>
       <path id="DejaVuSans-6f" d="M 1959 3097 
Q 1497 3097 1228 2736 
Q 959 2375 959 1747 
Q 959 1119 1226 758 
Q 1494 397 1959 397 
Q 2419 397 2687 759 
Q 2956 1122 2956 1747 
Q 2956 2369 2687 2733 
Q 2419 3097 1959 3097 
z
M 1959 3584 
Q 2709 3584 3137 3096 
Q 3566 2609 3566 1747 
Q 3566 888 3137 398 
Q 2709 -91 1959 -91 
Q 1206 -91 779 398 
Q 353 888 353 1747 
Q 353 2609 779 3096 
Q 1206 3584 1959 3584 
z
" transform="scale(0.015625)"/>
       <path id="DejaVuSans-72" d="M 2631 2963 
Q 2534 3019 2420 3045 
Q 2306 3072 2169 3072 
Q 1681 3072 1420 2755 
Q 1159 2438 1159 1844 
L 1159 0 
L 581 0 
L 581 3500 
L 1159 3500 
L 1159 2956 
Q 1341 3275 1631 3429 
Q 1922 3584 2338 3584 
Q 2397 3584 2469 3576 
Q 2541 3569 2628 3553 
L 2631 2963 
z
" transform="scale(0.015625)"/>
       <path id="DejaVuSans-63" d="M 3122 3366 
L 3122 2828 
Q 2878 2963 2633 3030 
Q 2388 3097 2138 3097 
Q 1578 3097 1268 2742 
Q 959 2388 959 1747 
Q 959 1106 1268 751 
Q 1578 397 2138 397 
Q 2388 397 2633 464 
Q 2878 531 3122 666 
L 3122 134 
Q 2881 22 2623 -34 
Q 2366 -91 2075 -91 
Q 1284 -91 818 406 
Q 353 903 353 1747 
Q 353 2603 823 3093 
Q 1294 3584 2113 3584 
Q 2378 3584 2631 3529 
Q 2884 3475 3122 3366 
z
" transform="scale(0.015625)"/>
       <path id="DejaVuSans-65" d="M 3597 1894 
L 3597 1613 
L 953 1613 
Q 991 1019 1311 708 
Q 1631 397 2203 397 
Q 2534 397 2845 478 
Q 3156 559 3463 722 
L 3463 178 
Q 3153 47 2828 -22 
Q 2503 -91 2169 -91 
Q 1331 -91 842 396 
Q 353 884 353 1716 
Q 353 2575 817 3079 
Q 1281 3584 2069 3584 
Q 2775 3584 3186 3129 
Q 3597 2675 3597 1894 
z
M 3022 2063 
Q 3016 2534 2758 2815 
Q 2500 3097 2075 3097 
Q 1594 3097 1305 2825 
Q 1016 2553 972 2059 
L 3022 2063 
z
" transform="scale(0.015625)"/>
       <path id="DejaVuSans-20" transform="scale(0.015625)"/>
       <path id="DejaVuSans-55" d="M 556 4666 
L 1191 4666 
L 1191 1831 
Q 1191 1081 1462 751 
Q 1734 422 2344 422 
Q 2950 422 3222 751 
Q 3494 1081 3494 1831 
L 3494 4666 
L 4128 4666 
L 4128 1753 
Q 4128 841 3676 375 
Q 3225 -91 2344 -91 
Q 1459 -91 1007 375 
Q 556 841 556 1753 
L 556 4666 
z
" transform="scale(0.015625)"/>
       <path id="DejaVuSans-6e" d="M 3513 2113 
L 3513 0 
L 2938 0 
L 2938 2094 
Q 2938 2591 2744 2837 
Q 2550 3084 2163 3084 
Q 1697 3084 1428 2787 
Q 1159 2491 1159 1978 
L 1159 0 
L 581 0 
L 581 3500 
L 1159 3500 
L 1159 2956 
Q 1366 3272 1645 3428 
Q 1925 3584 2291 3584 
Q 2894 3584 3203 3211 
Q 3513 2838 3513 2113 
z
" transform="scale(0.015625)"/>
       <path id="DejaVuSans-74" d="M 1172 4494 
L 1172 3500 
L 2356 3500 
L 2356 3053 
L 1172 3053 
L 1172 1153 
Q 1172 725 1289 603 
Q 1406 481 1766 481 
L 2356 481 
L 2356 0 
L 1766 0 
Q 1100 0 847 248 
Q 594 497 594 1153 
L 594 3053 
L 172 3053 
L 172 3500 
L 594 3500 
L 594 4494 
L 1172 4494 
z
" transform="scale(0.015625)"/>
       <path id="DejaVuSans-61" d="M 2194 1759 
Q 1497 1759 1228 1600 
Q 959 1441 959 1056 
Q 959 750 1161 570 
Q 1363 391 1709 391 
Q 2188 391 2477 730 
Q 2766 1069 2766 1631 
L 2766 1759 
L 2194 1759 
z
M 3341 1997 
L 3341 0 
L 2766 0 
L 2766 531 
Q 2569 213 2275 61 
Q 1981 -91 1556 -91 
Q 1019 -91 701 211 
Q 384 513 384 1019 
Q 384 1609 779 1909 
Q 1175 2209 1959 2209 
L 2766 2209 
L 2766 2266 
Q 2766 2663 2505 2880 
Q 2244 3097 1772 3097 
Q 1472 3097 1187 3025 
Q 903 2953 641 2809 
L 641 3341 
Q 956 3463 1253 3523 
Q 1550 3584 1831 3584 
Q 2591 3584 2966 3190 
Q 3341 2797 3341 1997 
z
" transform="scale(0.015625)"/>
       <path id="DejaVuSans-69" d="M 603 3500 
L 1178 3500 
L 1178 0 
L 603 0 
L 603 3500 
z
M 603 4863 
L 1178 4863 
L 1178 4134 
L 603 4134 
L 603 4863 
z
" transform="scale(0.015625)"/>
       <path id="DejaVuSans-73" d="M 2834 3397 
L 2834 2853 
Q 2591 2978 2328 3040 
Q 2066 3103 1784 3103 
Q 1356 3103 1142 2972 
Q 928 2841 928 2578 
Q 928 2378 1081 2264 
Q 1234 2150 1697 2047 
L 1894 2003 
Q 2506 1872 2764 1633 
Q 3022 1394 3022 966 
Q 3022 478 2636 193 
Q 2250 -91 1575 -91 
Q 1294 -91 989 -36 
Q 684 19 347 128 
L 347 722 
Q 666 556 975 473 
Q 1284 391 1588 391 
Q 1994 391 2212 530 
Q 2431 669 2431 922 
Q 2431 1156 2273 1281 
Q 2116 1406 1581 1522 
L 1381 1569 
Q 847 1681 609 1914 
Q 372 2147 372 2553 
Q 372 3047 722 3315 
Q 1072 3584 1716 3584 
Q 2034 3584 2315 3537 
Q 2597 3491 2834 3397 
z
" transform="scale(0.015625)"/>
      </defs>
      <use xlink:href="#DejaVuSans-46"/>
      <use xlink:href="#DejaVuSans-6f" x="53.894531"/>
      <use xlink:href="#DejaVuSans-72" x="115.076172"/>
      <use xlink:href="#DejaVuSans-63" x="153.939453"/>
      <use xlink:href="#DejaVuSans-65" x="208.919922"/>
      <use xlink:href="#DejaVuSans-20" x="270.443359"/>
      <use xlink:href="#DejaVuSans-55" x="302.230469"/>
      <use xlink:href="#DejaVuSans-6e" x="375.423828"/>
      <use xlink:href="#DejaVuSans-63" x="438.802734"/>
      <use xlink:href="#DejaVuSans-65" x="493.783203"/>
      <use xlink:href="#DejaVuSans-72" x="555.306641"/>
      <use xlink:href="#DejaVuSans-74" x="596.419922"/>
      <use xlink:href="#DejaVuSans-61" x="635.628906"/>
      <use xlink:href="#DejaVuSans-69" x="696.908203"/>
      <use xlink:href="#DejaVuSans-6e" x="724.691406"/>
      <use xlink:href="#DejaVuSans-74" x="788.070312"/>
      <use xlink:href="#DejaVuSans-69" x="827.279297"/>
      <use xlink:href="#DejaVuSans-65" x="855.0625"/>
      <use xlink:href="#DejaVuSans-73" x="916.585938"/>
     </g>
    </g>
   </g>
   <g id="matplotlib.axis_2">
    <g id="ytick_1">
     <g id="line2d_8">
      <defs>
       <path id="m764344b219" d="M 0 0 
L -3.5 0 
" style="stroke: #000000; stroke-width: 0.8"/>
      </defs>
      <g>
       <use xlink:href="#m764344b219" x="97.76" y="481.36011" style="stroke: #000000; stroke-width: 0.8"/>
      </g>
     </g>
     <g id="text_9">
      <!-- 0 -->
      <g transform="translate(76.7625 489.718391) scale(0.22 -0.22)">
       <use xlink:href="#DejaVuSans-30"/>
      </g>
     </g>
    </g>
    <g id="ytick_2">
     <g id="line2d_9">
      <g>
       <use xlink:href="#m764344b219" x="97.76" y="412.892581" style="stroke: #000000; stroke-width: 0.8"/>
      </g>
     </g>
     <g id="text_10">
      <!-- 20 -->
      <g transform="translate(62.765 421.250863) scale(0.22 -0.22)">
       <use xlink:href="#DejaVuSans-32"/>
       <use xlink:href="#DejaVuSans-30" x="63.623047"/>
      </g>
     </g>
    </g>
    <g id="ytick_3">
     <g id="line2d_10">
      <g>
       <use xlink:href="#m764344b219" x="97.76" y="344.425053" style="stroke: #000000; stroke-width: 0.8"/>
      </g>
     </g>
     <g id="text_11">
      <!-- 40 -->
      <g transform="translate(62.765 352.783334) scale(0.22 -0.22)">
       <use xlink:href="#DejaVuSans-34"/>
       <use xlink:href="#DejaVuSans-30" x="63.623047"/>
      </g>
     </g>
    </g>
    <g id="ytick_4">
     <g id="line2d_11">
      <g>
       <use xlink:href="#m764344b219" x="97.76" y="275.957524" style="stroke: #000000; stroke-width: 0.8"/>
      </g>
     </g>
     <g id="text_12">
      <!-- 60 -->
      <g transform="translate(62.765 284.315805) scale(0.22 -0.22)">
       <use xlink:href="#DejaVuSans-36"/>
       <use xlink:href="#DejaVuSans-30" x="63.623047"/>
      </g>
     </g>
    </g>
    <g id="ytick_5">
     <g id="line2d_12">
      <g>
       <use xlink:href="#m764344b219" x="97.76" y="207.489995" style="stroke: #000000; stroke-width: 0.8"/>
      </g>
     </g>
     <g id="text_13">
      <!-- 80 -->
      <g transform="translate(62.765 215.848277) scale(0.22 -0.22)">
       <use xlink:href="#DejaVuSans-38"/>
       <use xlink:href="#DejaVuSans-30" x="63.623047"/>
      </g>
     </g>
    </g>
    <g id="ytick_6">
     <g id="line2d_13">
      <g>
       <use xlink:href="#m764344b219" x="97.76" y="139.022467" style="stroke: #000000; stroke-width: 0.8"/>
      </g>
     </g>
     <g id="text_14">
      <!-- 100 -->
      <g transform="translate(48.7675 147.380748) scale(0.22 -0.22)">
       <use xlink:href="#DejaVuSans-31"/>
       <use xlink:href="#DejaVuSans-30" x="63.623047"/>
       <use xlink:href="#DejaVuSans-30" x="127.246094"/>
      </g>
     </g>
    </g>
    <g id="ytick_7">
     <g id="line2d_14">
      <g>
       <use xlink:href="#m764344b219" x="97.76" y="70.554938" style="stroke: #000000; stroke-width: 0.8"/>
      </g>
     </g>
     <g id="text_15">
      <!-- 120 -->
      <g transform="translate(48.7675 78.913219) scale(0.22 -0.22)">
       <use xlink:href="#DejaVuSans-31"/>
       <use xlink:href="#DejaVuSans-32" x="63.623047"/>
       <use xlink:href="#DejaVuSans-30" x="127.246094"/>
      </g>
     </g>
    </g>
    <g id="text_16">
     <!-- Energy Errors[kJ/mol] -->
     <g transform="translate(40.192188 378.572344) rotate(-90) scale(0.22 -0.22)">
      <defs>
       <path id="DejaVuSans-45" d="M 628 4666 
L 3578 4666 
L 3578 4134 
L 1259 4134 
L 1259 2753 
L 3481 2753 
L 3481 2222 
L 1259 2222 
L 1259 531 
L 3634 531 
L 3634 0 
L 628 0 
L 628 4666 
z
" transform="scale(0.015625)"/>
       <path id="DejaVuSans-67" d="M 2906 1791 
Q 2906 2416 2648 2759 
Q 2391 3103 1925 3103 
Q 1463 3103 1205 2759 
Q 947 2416 947 1791 
Q 947 1169 1205 825 
Q 1463 481 1925 481 
Q 2391 481 2648 825 
Q 2906 1169 2906 1791 
z
M 3481 434 
Q 3481 -459 3084 -895 
Q 2688 -1331 1869 -1331 
Q 1566 -1331 1297 -1286 
Q 1028 -1241 775 -1147 
L 775 -588 
Q 1028 -725 1275 -790 
Q 1522 -856 1778 -856 
Q 2344 -856 2625 -561 
Q 2906 -266 2906 331 
L 2906 616 
Q 2728 306 2450 153 
Q 2172 0 1784 0 
Q 1141 0 747 490 
Q 353 981 353 1791 
Q 353 2603 747 3093 
Q 1141 3584 1784 3584 
Q 2172 3584 2450 3431 
Q 2728 3278 2906 2969 
L 2906 3500 
L 3481 3500 
L 3481 434 
z
" transform="scale(0.015625)"/>
       <path id="DejaVuSans-79" d="M 2059 -325 
Q 1816 -950 1584 -1140 
Q 1353 -1331 966 -1331 
L 506 -1331 
L 506 -850 
L 844 -850 
Q 1081 -850 1212 -737 
Q 1344 -625 1503 -206 
L 1606 56 
L 191 3500 
L 800 3500 
L 1894 763 
L 2988 3500 
L 3597 3500 
L 2059 -325 
z
" transform="scale(0.015625)"/>
       <path id="DejaVuSans-5b" d="M 550 4863 
L 1875 4863 
L 1875 4416 
L 1125 4416 
L 1125 -397 
L 1875 -397 
L 1875 -844 
L 550 -844 
L 550 4863 
z
" transform="scale(0.015625)"/>
       <path id="DejaVuSans-6b" d="M 581 4863 
L 1159 4863 
L 1159 1991 
L 2875 3500 
L 3609 3500 
L 1753 1863 
L 3688 0 
L 2938 0 
L 1159 1709 
L 1159 0 
L 581 0 
L 581 4863 
z
" transform="scale(0.015625)"/>
       <path id="DejaVuSans-4a" d="M 628 4666 
L 1259 4666 
L 1259 325 
Q 1259 -519 939 -900 
Q 619 -1281 -91 -1281 
L -331 -1281 
L -331 -750 
L -134 -750 
Q 284 -750 456 -515 
Q 628 -281 628 325 
L 628 4666 
z
" transform="scale(0.015625)"/>
       <path id="DejaVuSans-2f" d="M 1625 4666 
L 2156 4666 
L 531 -594 
L 0 -594 
L 1625 4666 
z
" transform="scale(0.015625)"/>
       <path id="DejaVuSans-6d" d="M 3328 2828 
Q 3544 3216 3844 3400 
Q 4144 3584 4550 3584 
Q 5097 3584 5394 3201 
Q 5691 2819 5691 2113 
L 5691 0 
L 5113 0 
L 5113 2094 
Q 5113 2597 4934 2840 
Q 4756 3084 4391 3084 
Q 3944 3084 3684 2787 
Q 3425 2491 3425 1978 
L 3425 0 
L 2847 0 
L 2847 2094 
Q 2847 2600 2669 2842 
Q 2491 3084 2119 3084 
Q 1678 3084 1418 2786 
Q 1159 2488 1159 1978 
L 1159 0 
L 581 0 
L 581 3500 
L 1159 3500 
L 1159 2956 
Q 1356 3278 1631 3431 
Q 1906 3584 2284 3584 
Q 2666 3584 2933 3390 
Q 3200 3197 3328 2828 
z
" transform="scale(0.015625)"/>
       <path id="DejaVuSans-6c" d="M 603 4863 
L 1178 4863 
L 1178 0 
L 603 0 
L 603 4863 
z
" transform="scale(0.015625)"/>
       <path id="DejaVuSans-5d" d="M 1947 4863 
L 1947 -844 
L 622 -844 
L 622 -397 
L 1369 -397 
L 1369 4416 
L 622 4416 
L 622 4863 
L 1947 4863 
z
" transform="scale(0.015625)"/>
      </defs>
      <use xlink:href="#DejaVuSans-45"/>
      <use xlink:href="#DejaVuSans-6e" x="63.183594"/>
      <use xlink:href="#DejaVuSans-65" x="126.5625"/>
      <use xlink:href="#DejaVuSans-72" x="188.085938"/>
      <use xlink:href="#DejaVuSans-67" x="227.449219"/>
      <use xlink:href="#DejaVuSans-79" x="290.925781"/>
      <use xlink:href="#DejaVuSans-20" x="350.105469"/>
      <use xlink:href="#DejaVuSans-45" x="381.892578"/>
      <use xlink:href="#DejaVuSans-72" x="445.076172"/>
      <use xlink:href="#DejaVuSans-72" x="484.439453"/>
      <use xlink:href="#DejaVuSans-6f" x="523.302734"/>
      <use xlink:href="#DejaVuSans-72" x="584.484375"/>
      <use xlink:href="#DejaVuSans-73" x="625.597656"/>
      <use xlink:href="#DejaVuSans-5b" x="677.697266"/>
      <use xlink:href="#DejaVuSans-6b" x="716.710938"/>
      <use xlink:href="#DejaVuSans-4a" x="774.621094"/>
      <use xlink:href="#DejaVuSans-2f" x="804.113281"/>
      <use xlink:href="#DejaVuSans-6d" x="837.804688"/>
      <use xlink:href="#DejaVuSans-6f" x="935.216797"/>
      <use xlink:href="#DejaVuSans-6c" x="996.398438"/>
      <use xlink:href="#DejaVuSans-5d" x="1024.181641"/>
     </g>
    </g>
   </g>
   <g id="line2d_15">
    <path d="M 97.76 499.48 
L 696.24 23.76 
" clip-path="url(#p280243ee27)" style="fill: none; stroke-dasharray: 5.55,2.4; stroke-dashoffset: 0; stroke: #ff0000; stroke-width: 1.5"/>
   </g>
   <g id="patch_3">
    <path d="M 97.76 499.48 
L 97.76 23.76 
" style="fill: none; stroke: #000000; stroke-width: 0.8; stroke-linejoin: miter; stroke-linecap: square"/>
   </g>
   <g id="patch_4">
    <path d="M 696.24 499.48 
L 696.24 23.76 
" style="fill: none; stroke: #000000; stroke-width: 0.8; stroke-linejoin: miter; stroke-linecap: square"/>
   </g>
   <g id="patch_5">
    <path d="M 97.76 499.48 
L 696.24 499.48 
" style="fill: none; stroke: #000000; stroke-width: 0.8; stroke-linejoin: miter; stroke-linecap: square"/>
   </g>
   <g id="patch_6">
    <path d="M 97.76 23.76 
L 696.24 23.76 
" style="fill: none; stroke: #000000; stroke-width: 0.8; stroke-linejoin: miter; stroke-linecap: square"/>
   </g>
   <g id="text_17">
    <!-- Correlation in: 0.728 -->
    <g transform="translate(145.6384 46.696813) scale(0.22 -0.22)">
     <defs>
      <path id="DejaVuSans-43" d="M 4122 4306 
L 4122 3641 
Q 3803 3938 3442 4084 
Q 3081 4231 2675 4231 
Q 1875 4231 1450 3742 
Q 1025 3253 1025 2328 
Q 1025 1406 1450 917 
Q 1875 428 2675 428 
Q 3081 428 3442 575 
Q 3803 722 4122 1019 
L 4122 359 
Q 3791 134 3420 21 
Q 3050 -91 2638 -91 
Q 1578 -91 968 557 
Q 359 1206 359 2328 
Q 359 3453 968 4101 
Q 1578 4750 2638 4750 
Q 3056 4750 3426 4639 
Q 3797 4528 4122 4306 
z
" transform="scale(0.015625)"/>
      <path id="DejaVuSans-3a" d="M 750 794 
L 1409 794 
L 1409 0 
L 750 0 
L 750 794 
z
M 750 3309 
L 1409 3309 
L 1409 2516 
L 750 2516 
L 750 3309 
z
" transform="scale(0.015625)"/>
      <path id="DejaVuSans-2e" d="M 684 794 
L 1344 794 
L 1344 0 
L 684 0 
L 684 794 
z
" transform="scale(0.015625)"/>
      <path id="DejaVuSans-37" d="M 525 4666 
L 3525 4666 
L 3525 4397 
L 1831 0 
L 1172 0 
L 2766 4134 
L 525 4134 
L 525 4666 
z
" transform="scale(0.015625)"/>
     </defs>
     <use xlink:href="#DejaVuSans-43"/>
     <use xlink:href="#DejaVuSans-6f" x="69.824219"/>
     <use xlink:href="#DejaVuSans-72" x="131.005859"/>
     <use xlink:href="#DejaVuSans-72" x="170.369141"/>
     <use xlink:href="#DejaVuSans-65" x="209.232422"/>
     <use xlink:href="#DejaVuSans-6c" x="270.755859"/>
     <use xlink:href="#DejaVuSans-61" x="298.539062"/>
     <use xlink:href="#DejaVuSans-74" x="359.818359"/>
     <use xlink:href="#DejaVuSans-69" x="399.027344"/>
     <use xlink:href="#DejaVuSans-6f" x="426.810547"/>
     <use xlink:href="#DejaVuSans-6e" x="487.992188"/>
     <use xlink:href="#DejaVuSans-20" x="551.371094"/>
     <use xlink:href="#DejaVuSans-69" x="583.158203"/>
     <use xlink:href="#DejaVuSans-6e" x="610.941406"/>
     <use xlink:href="#DejaVuSans-3a" x="674.320312"/>
     <use xlink:href="#DejaVuSans-20" x="708.011719"/>
     <use xlink:href="#DejaVuSans-30" x="739.798828"/>
     <use xlink:href="#DejaVuSans-2e" x="803.421875"/>
     <use xlink:href="#DejaVuSans-37" x="835.208984"/>
     <use xlink:href="#DejaVuSans-32" x="898.832031"/>
     <use xlink:href="#DejaVuSans-38" x="962.455078"/>
    </g>
    <!-- Correlation Out: 0.200 -->
    <g transform="translate(145.6384 71.332) scale(0.22 -0.22)">
     <defs>
      <path id="DejaVuSans-4f" d="M 2522 4238 
Q 1834 4238 1429 3725 
Q 1025 3213 1025 2328 
Q 1025 1447 1429 934 
Q 1834 422 2522 422 
Q 3209 422 3611 934 
Q 4013 1447 4013 2328 
Q 4013 3213 3611 3725 
Q 3209 4238 2522 4238 
z
M 2522 4750 
Q 3503 4750 4090 4092 
Q 4678 3434 4678 2328 
Q 4678 1225 4090 567 
Q 3503 -91 2522 -91 
Q 1538 -91 948 565 
Q 359 1222 359 2328 
Q 359 3434 948 4092 
Q 1538 4750 2522 4750 
z
" transform="scale(0.015625)"/>
      <path id="DejaVuSans-75" d="M 544 1381 
L 544 3500 
L 1119 3500 
L 1119 1403 
Q 1119 906 1312 657 
Q 1506 409 1894 409 
Q 2359 409 2629 706 
Q 2900 1003 2900 1516 
L 2900 3500 
L 3475 3500 
L 3475 0 
L 2900 0 
L 2900 538 
Q 2691 219 2414 64 
Q 2138 -91 1772 -91 
Q 1169 -91 856 284 
Q 544 659 544 1381 
z
M 1991 3584 
L 1991 3584 
z
" transform="scale(0.015625)"/>
     </defs>
     <use xlink:href="#DejaVuSans-43"/>
     <use xlink:href="#DejaVuSans-6f" x="69.824219"/>
     <use xlink:href="#DejaVuSans-72" x="131.005859"/>
     <use xlink:href="#DejaVuSans-72" x="170.369141"/>
     <use xlink:href="#DejaVuSans-65" x="209.232422"/>
     <use xlink:href="#DejaVuSans-6c" x="270.755859"/>
     <use xlink:href="#DejaVuSans-61" x="298.539062"/>
     <use xlink:href="#DejaVuSans-74" x="359.818359"/>
     <use xlink:href="#DejaVuSans-69" x="399.027344"/>
     <use xlink:href="#DejaVuSans-6f" x="426.810547"/>
     <use xlink:href="#DejaVuSans-6e" x="487.992188"/>
     <use xlink:href="#DejaVuSans-20" x="551.371094"/>
     <use xlink:href="#DejaVuSans-4f" x="583.158203"/>
     <use xlink:href="#DejaVuSans-75" x="661.869141"/>
     <use xlink:href="#DejaVuSans-74" x="725.248047"/>
     <use xlink:href="#DejaVuSans-3a" x="764.457031"/>
     <use xlink:href="#DejaVuSans-20" x="798.148438"/>
     <use xlink:href="#DejaVuSans-30" x="829.935547"/>
     <use xlink:href="#DejaVuSans-2e" x="893.558594"/>
     <use xlink:href="#DejaVuSans-32" x="925.345703"/>
     <use xlink:href="#DejaVuSans-30" x="988.96875"/>
     <use xlink:href="#DejaVuSans-30" x="1052.591797"/>
    </g>
   </g>
   <g id="legend_1">
    <g id="patch_7">
     <path d="M 407.0225 105.94375 
L 680.84 105.94375 
Q 685.24 105.94375 685.24 101.54375 
L 685.24 39.16 
Q 685.24 34.76 680.84 34.76 
L 407.0225 34.76 
Q 402.6225 34.76 402.6225 39.16 
L 402.6225 101.54375 
Q 402.6225 105.94375 407.0225 105.94375 
z
" style="fill: #ffffff; opacity: 0.8; stroke: #cccccc; stroke-linejoin: miter"/>
    </g>
    <g id="line2d_16">
     <defs>
      <path id="me89284aa9e" d="M 0 2.5 
C 0.663008 2.5 1.29895 2.236584 1.767767 1.767767 
C 2.236584 1.29895 2.5 0.663008 2.5 0 
C 2.5 -0.663008 2.236584 -1.29895 1.767767 -1.767767 
C 1.29895 -2.236584 0.663008 -2.5 0 -2.5 
C -0.663008 -2.5 -1.29895 -2.236584 -1.767767 -1.767767 
C -2.236584 -1.29895 -2.5 -0.663008 -2.5 0 
C -2.5 0.663008 -2.236584 1.29895 -1.767767 1.767767 
C -1.29895 2.236584 -0.663008 2.5 0 2.5 
z
" style="stroke: #ffffff"/>
     </defs>
     <g>
      <use xlink:href="#me89284aa9e" x="433.4225" y="52.576563" style="fill: #0000ff; stroke: #ffffff"/>
     </g>
    </g>
    <g id="text_18">
     <!-- In Distribution -->
     <g transform="translate(473.0225 60.276563) scale(0.22 -0.22)">
      <defs>
       <path id="DejaVuSans-49" d="M 628 4666 
L 1259 4666 
L 1259 0 
L 628 0 
L 628 4666 
z
" transform="scale(0.015625)"/>
       <path id="DejaVuSans-44" d="M 1259 4147 
L 1259 519 
L 2022 519 
Q 2988 519 3436 956 
Q 3884 1394 3884 2338 
Q 3884 3275 3436 3711 
Q 2988 4147 2022 4147 
L 1259 4147 
z
M 628 4666 
L 1925 4666 
Q 3281 4666 3915 4102 
Q 4550 3538 4550 2338 
Q 4550 1131 3912 565 
Q 3275 0 1925 0 
L 628 0 
L 628 4666 
z
" transform="scale(0.015625)"/>
       <path id="DejaVuSans-62" d="M 3116 1747 
Q 3116 2381 2855 2742 
Q 2594 3103 2138 3103 
Q 1681 3103 1420 2742 
Q 1159 2381 1159 1747 
Q 1159 1113 1420 752 
Q 1681 391 2138 391 
Q 2594 391 2855 752 
Q 3116 1113 3116 1747 
z
M 1159 2969 
Q 1341 3281 1617 3432 
Q 1894 3584 2278 3584 
Q 2916 3584 3314 3078 
Q 3713 2572 3713 1747 
Q 3713 922 3314 415 
Q 2916 -91 2278 -91 
Q 1894 -91 1617 61 
Q 1341 213 1159 525 
L 1159 0 
L 581 0 
L 581 4863 
L 1159 4863 
L 1159 2969 
z
" transform="scale(0.015625)"/>
      </defs>
      <use xlink:href="#DejaVuSans-49"/>
      <use xlink:href="#DejaVuSans-6e" x="29.492188"/>
      <use xlink:href="#DejaVuSans-20" x="92.871094"/>
      <use xlink:href="#DejaVuSans-44" x="124.658203"/>
      <use xlink:href="#DejaVuSans-69" x="201.660156"/>
      <use xlink:href="#DejaVuSans-73" x="229.443359"/>
      <use xlink:href="#DejaVuSans-74" x="281.542969"/>
      <use xlink:href="#DejaVuSans-72" x="320.751953"/>
      <use xlink:href="#DejaVuSans-69" x="361.865234"/>
      <use xlink:href="#DejaVuSans-62" x="389.648438"/>
      <use xlink:href="#DejaVuSans-75" x="453.125"/>
      <use xlink:href="#DejaVuSans-74" x="516.503906"/>
      <use xlink:href="#DejaVuSans-69" x="555.712891"/>
      <use xlink:href="#DejaVuSans-6f" x="583.496094"/>
      <use xlink:href="#DejaVuSans-6e" x="644.677734"/>
     </g>
    </g>
    <g id="line2d_17">
     <defs>
      <path id="mc6c8a5a117" d="M 0 2.5 
C 0.663008 2.5 1.29895 2.236584 1.767767 1.767767 
C 2.236584 1.29895 2.5 0.663008 2.5 0 
C 2.5 -0.663008 2.236584 -1.29895 1.767767 -1.767767 
C 1.29895 -2.236584 0.663008 -2.5 0 -2.5 
C -0.663008 -2.5 -1.29895 -2.236584 -1.767767 -1.767767 
C -2.236584 -1.29895 -2.5 -0.663008 -2.5 0 
C -2.5 0.663008 -2.236584 1.29895 -1.767767 1.767767 
C -1.29895 2.236584 -0.663008 2.5 0 2.5 
z
" style="stroke: #ffffff"/>
     </defs>
     <g>
      <use xlink:href="#mc6c8a5a117" x="433.4225" y="84.868438" style="fill: #008000; stroke: #ffffff"/>
     </g>
    </g>
    <g id="text_19">
     <!-- Out of Distribution -->
     <g transform="translate(473.0225 92.568438) scale(0.22 -0.22)">
      <defs>
       <path id="DejaVuSans-66" d="M 2375 4863 
L 2375 4384 
L 1825 4384 
Q 1516 4384 1395 4259 
Q 1275 4134 1275 3809 
L 1275 3500 
L 2222 3500 
L 2222 3053 
L 1275 3053 
L 1275 0 
L 697 0 
L 697 3053 
L 147 3053 
L 147 3500 
L 697 3500 
L 697 3744 
Q 697 4328 969 4595 
Q 1241 4863 1831 4863 
L 2375 4863 
z
" transform="scale(0.015625)"/>
      </defs>
      <use xlink:href="#DejaVuSans-4f"/>
      <use xlink:href="#DejaVuSans-75" x="78.710938"/>
      <use xlink:href="#DejaVuSans-74" x="142.089844"/>
      <use xlink:href="#DejaVuSans-20" x="181.298828"/>
      <use xlink:href="#DejaVuSans-6f" x="213.085938"/>
      <use xlink:href="#DejaVuSans-66" x="274.267578"/>
      <use xlink:href="#DejaVuSans-20" x="309.472656"/>
      <use xlink:href="#DejaVuSans-44" x="341.259766"/>
      <use xlink:href="#DejaVuSans-69" x="418.261719"/>
      <use xlink:href="#DejaVuSans-73" x="446.044922"/>
      <use xlink:href="#DejaVuSans-74" x="498.144531"/>
      <use xlink:href="#DejaVuSans-72" x="537.353516"/>
      <use xlink:href="#DejaVuSans-69" x="578.466797"/>
      <use xlink:href="#DejaVuSans-62" x="606.25"/>
      <use xlink:href="#DejaVuSans-75" x="669.726562"/>
      <use xlink:href="#DejaVuSans-74" x="733.105469"/>
      <use xlink:href="#DejaVuSans-69" x="772.314453"/>
      <use xlink:href="#DejaVuSans-6f" x="800.097656"/>
      <use xlink:href="#DejaVuSans-6e" x="861.279297"/>
     </g>
    </g>
   </g>
  </g>
 </g>
 <defs>
  <clipPath id="p280243ee27">
   <rect x="97.76" y="23.76" width="598.48" height="475.72"/>
  </clipPath>
 </defs>
</svg>
