<?xml version="1.0" encoding="utf-8" standalone="no"?>
<!DOCTYPE svg PUBLIC "-//W3C//DTD SVG 1.1//EN"
  "http://www.w3.org/Graphics/SVG/1.1/DTD/svg11.dtd">
<svg xmlns:xlink="http://www.w3.org/1999/xlink" width="720pt" height="576pt" viewBox="0 0 720 576" xmlns="http://www.w3.org/2000/svg" version="1.1">
 <metadata>
  <rdf:RDF xmlns:dc="http://purl.org/dc/elements/1.1/" xmlns:cc="http://creativecommons.org/ns#" xmlns:rdf="http://www.w3.org/1999/02/22-rdf-syntax-ns#">
   <cc:Work>
    <dc:type rdf:resource="http://purl.org/dc/dcmitype/StillImage"/>
    <dc:date>2024-12-07T20:55:05.378197</dc:date>
    <dc:format>image/svg+xml</dc:format>
    <dc:creator>
     <cc:Agent>
      <dc:title>Matplotlib v3.8.4, https://matplotlib.org/</dc:title>
     </cc:Agent>
    </dc:creator>
   </cc:Work>
  </rdf:RDF>
 </metadata>
 <defs>
  <style type="text/css">*{stroke-linejoin: round; stroke-linecap: butt}</style>
 </defs>
 <g id="figure_1">
  <g id="patch_1">
   <path d="M 0 576 
L 720 576 
L 720 0 
L 0 0 
z
" style="fill: #ffffff"/>
  </g>
  <g id="axes_1">
   <g id="patch_2">
    <path d="M 83.72 499.48 
L 696.24 499.48 
L 696.24 23.76 
L 83.72 23.76 
z
" style="fill: #ffffff"/>
   </g>
   <g id="QuadContourSet_1">
    <path d="M 79.11003 505.702837 
L 81.517655 506.972493 
L 83.925281 507.454447 
L 86.332906 507.48026 
L 88.740531 507.246531 
L 91.148157 506.819176 
L 93.555782 506.134475 
L 95.895705 505.098762 
L 95.963408 505.083557 
L 98.371033 504.51534 
L 100.778658 503.65763 
L 102.923236 502.525705 
L 103.186284 502.443958 
L 105.593909 501.531081 
L 108.001534 499.952648 
L 108.001534 499.952648 
L 110.40916 498.742944 
L 112.153526 497.379592 
L 112.816785 496.982729 
L 115.224411 495.148237 
L 115.627898 494.806535 
L 117.632036 493.335719 
L 118.871191 492.233478 
L 120.039661 491.202797 
L 121.658132 489.660422 
L 122.447287 488.803312 
L 124.082736 487.087365 
L 124.854912 486.019001 
L 126.109531 484.514308 
L 127.262538 482.381931 
L 127.567672 481.941251 
L 128.851532 479.368195 
L 129.493497 476.795138 
L 129.624942 474.222081 
L 128.428345 471.649025 
L 127.262538 470.703453 
L 124.854912 469.331565 
L 124.350023 469.075968 
L 122.447287 468.038945 
L 120.039661 467.360962 
L 117.632036 467.121917 
L 115.224411 467.045795 
L 112.816785 467.120943 
L 110.40916 467.43163 
L 108.001534 468.038815 
L 105.637178 469.075968 
L 105.593909 469.087147 
L 103.186284 469.872511 
L 100.778658 471.17852 
L 100.071063 471.649025 
L 98.371033 472.456682 
L 95.989493 474.222081 
L 95.963408 474.236956 
L 93.555782 475.841811 
L 92.504867 476.795138 
L 91.148157 477.877785 
L 89.653846 479.368195 
L 88.740531 480.243681 
L 87.179044 481.941251 
L 86.332906 482.915656 
L 84.978214 484.514308 
L 83.925281 485.976968 
L 83.058671 487.087365 
L 81.527823 489.660422 
L 81.517655 489.680201 
L 79.837309 492.233478 
L 79.11003 494.055899 
L 78.677501 494.806535 
L 77.612353 497.379592 
L 77.110004 499.952648 
L 77.135109 502.525705 
L 78.428388 505.098762 
z
M 86.37333 502.525705 
L 86.332906 502.517046 
L 83.925281 501.127716 
L 82.975012 499.952648 
L 82.57714 497.379592 
L 83.17554 494.806535 
L 83.925281 493.353359 
L 84.351821 492.233478 
L 85.912736 489.660422 
L 86.332906 489.112089 
L 87.754389 487.087365 
L 88.740531 485.944962 
L 90.01293 484.514308 
L 91.148157 483.333676 
L 92.691963 481.941251 
L 93.555782 481.130541 
L 95.963408 479.368195 
L 95.963408 479.368195 
L 98.371033 477.510393 
L 99.748852 476.795138 
L 100.778658 476.086271 
L 103.186284 474.850941 
L 105.065333 474.222081 
L 105.593909 473.95452 
L 108.001534 473.082112 
L 110.40916 472.60424 
L 112.816785 472.404239 
L 115.224411 472.479737 
L 117.632036 473.054496 
L 119.610774 474.222081 
L 120.039661 474.592329 
L 121.971828 476.795138 
L 122.447287 479.336745 
L 122.452638 479.368195 
L 122.447287 479.385346 
L 121.87195 481.941251 
L 120.54049 484.514308 
L 120.039661 485.161037 
L 118.699466 487.087365 
L 117.632036 488.24914 
L 116.32789 489.660422 
L 115.224411 490.706336 
L 113.408348 492.233478 
L 112.816785 492.733296 
L 110.40916 494.477735 
L 109.873099 494.806535 
L 108.001534 496.111959 
L 105.593909 497.306926 
L 105.435828 497.379592 
L 103.186284 498.721045 
L 100.778658 499.701757 
L 100.060487 499.952648 
L 98.371033 500.831645 
L 95.963408 501.725625 
L 93.555782 502.32559 
L 92.334086 502.525705 
L 91.148157 502.853048 
L 88.740531 503.00419 
z
" clip-path="url(#pe9429b934c)" style="fill: #edf4fc"/>
    <path d="M 88.740531 503.00419 
L 91.148157 502.853048 
L 92.334086 502.525705 
L 93.555782 502.32559 
L 95.963408 501.725625 
L 98.371033 500.831645 
L 100.060487 499.952648 
L 100.778658 499.701757 
L 103.186284 498.721045 
L 105.435828 497.379592 
L 105.593909 497.306926 
L 108.001534 496.111959 
L 109.873099 494.806535 
L 110.40916 494.477735 
L 112.816785 492.733296 
L 113.408348 492.233478 
L 115.224411 490.706336 
L 116.32789 489.660422 
L 117.632036 488.24914 
L 118.699466 487.087365 
L 120.039661 485.161037 
L 120.54049 484.514308 
L 121.87195 481.941251 
L 122.447287 479.385346 
L 122.452638 479.368195 
L 122.447287 479.336745 
L 121.971828 476.795138 
L 120.039661 474.592329 
L 119.610774 474.222081 
L 117.632036 473.054496 
L 115.224411 472.479737 
L 112.816785 472.404239 
L 110.40916 472.60424 
L 108.001534 473.082112 
L 105.593909 473.95452 
L 105.065333 474.222081 
L 103.186284 474.850941 
L 100.778658 476.086271 
L 99.748852 476.795138 
L 98.371033 477.510393 
L 95.963408 479.368195 
L 95.963408 479.368195 
L 93.555782 481.130541 
L 92.691963 481.941251 
L 91.148157 483.333676 
L 90.01293 484.514308 
L 88.740531 485.944962 
L 87.754389 487.087365 
L 86.332906 489.112089 
L 85.912736 489.660422 
L 84.351821 492.233478 
L 83.925281 493.353359 
L 83.17554 494.806535 
L 82.57714 497.379592 
L 82.975012 499.952648 
L 83.925281 501.127716 
L 86.332906 502.517046 
L 86.37333 502.525705 
z
M 87.654117 499.952648 
L 86.332906 498.900201 
L 85.410931 497.379592 
L 85.497704 494.806535 
L 86.332906 492.840452 
L 86.527417 492.233478 
L 87.970124 489.660422 
L 88.740531 488.675742 
L 89.914552 487.087365 
L 91.148157 485.728523 
L 92.322318 484.514308 
L 93.555782 483.318937 
L 95.257004 481.941251 
L 95.963408 481.331759 
L 98.371033 479.654265 
L 98.88729 479.368195 
L 100.778658 478.086724 
L 103.186284 476.998348 
L 103.792105 476.795138 
L 105.593909 475.951555 
L 108.001534 475.27009 
L 110.40916 474.92634 
L 112.816785 474.902245 
L 115.224411 475.418797 
L 117.320076 476.795138 
L 117.632036 477.238006 
L 118.803123 479.368195 
L 118.746809 481.941251 
L 117.632036 484.514308 
L 117.632036 484.514308 
L 115.920751 487.087365 
L 115.224411 487.838507 
L 113.514313 489.660422 
L 112.816785 490.291385 
L 110.40916 492.213881 
L 110.383951 492.233478 
L 108.001534 494.015793 
L 106.660726 494.806535 
L 105.593909 495.512565 
L 103.186284 496.838639 
L 101.965647 497.379592 
L 100.778658 498.057207 
L 98.371033 499.119979 
L 95.963408 499.861878 
L 95.538684 499.952648 
L 93.555782 500.567957 
L 91.148157 500.812147 
L 88.740531 500.44483 
z
" clip-path="url(#pe9429b934c)" style="fill: #d7e6f5"/>
    <path d="M 88.740531 500.44483 
L 91.148157 500.812147 
L 93.555782 500.567957 
L 95.538684 499.952648 
L 95.963408 499.861878 
L 98.371033 499.119979 
L 100.778658 498.057207 
L 101.965647 497.379592 
L 103.186284 496.838639 
L 105.593909 495.512565 
L 106.660726 494.806535 
L 108.001534 494.015793 
L 110.383951 492.233478 
L 110.40916 492.213881 
L 112.816785 490.291385 
L 113.514313 489.660422 
L 115.224411 487.838507 
L 115.920751 487.087365 
L 117.632036 484.514308 
L 117.632036 484.514308 
L 118.746809 481.941251 
L 118.803123 479.368195 
L 117.632036 477.238006 
L 117.320076 476.795138 
L 115.224411 475.418797 
L 112.816785 474.902245 
L 110.40916 474.92634 
L 108.001534 475.27009 
L 105.593909 475.951555 
L 103.792105 476.795138 
L 103.186284 476.998348 
L 100.778658 478.086724 
L 98.88729 479.368195 
L 98.371033 479.654265 
L 95.963408 481.331759 
L 95.257004 481.941251 
L 93.555782 483.318937 
L 92.322318 484.514308 
L 91.148157 485.728523 
L 89.914552 487.087365 
L 88.740531 488.675742 
L 87.970124 489.660422 
L 86.527417 492.233478 
L 86.332906 492.840452 
L 85.497704 494.806535 
L 85.410931 497.379592 
L 86.332906 498.900201 
L 87.654117 499.952648 
z
M 88.407211 497.379592 
L 87.578712 494.806535 
L 88.267088 492.233478 
L 88.740531 491.458945 
L 89.680996 489.660422 
L 91.148157 487.797986 
L 91.690639 487.087365 
L 93.555782 485.138704 
L 94.210995 484.514308 
L 95.963408 482.954309 
L 97.372666 481.941251 
L 98.371033 481.168928 
L 100.778658 479.741351 
L 101.601371 479.368195 
L 103.186284 478.485577 
L 105.593909 477.609842 
L 108.001534 477.079537 
L 110.40916 476.867462 
L 112.816785 477.170139 
L 115.224411 478.846069 
L 115.63421 479.368195 
L 116.081808 481.941251 
L 115.224411 484.514308 
L 115.224411 484.514308 
L 113.630233 487.087365 
L 112.816785 487.954663 
L 111.227617 489.660422 
L 110.40916 490.373536 
L 108.016611 492.233478 
L 108.001534 492.244757 
L 105.593909 493.982868 
L 104.159005 494.806535 
L 103.186284 495.424586 
L 100.778658 496.668807 
L 98.974024 497.379592 
L 98.371033 497.681445 
L 95.963408 498.521103 
L 93.555782 498.926279 
L 91.148157 498.790478 
L 88.740531 497.683009 
z
" clip-path="url(#pe9429b934c)" style="fill: #bfd8ed"/>
    <path d="M 88.740531 497.683009 
L 91.148157 498.790478 
L 93.555782 498.926279 
L 95.963408 498.521103 
L 98.371033 497.681445 
L 98.974024 497.379592 
L 100.778658 496.668807 
L 103.186284 495.424586 
L 104.159005 494.806535 
L 105.593909 493.982868 
L 108.001534 492.244757 
L 108.016611 492.233478 
L 110.40916 490.373536 
L 111.227617 489.660422 
L 112.816785 487.954663 
L 113.630233 487.087365 
L 115.224411 484.514308 
L 115.224411 484.514308 
L 116.081808 481.941251 
L 115.63421 479.368195 
L 115.224411 478.846069 
L 112.816785 477.170139 
L 110.40916 476.867462 
L 108.001534 477.079537 
L 105.593909 477.609842 
L 103.186284 478.485577 
L 101.601371 479.368195 
L 100.778658 479.741351 
L 98.371033 481.168928 
L 97.372666 481.941251 
L 95.963408 482.954309 
L 94.210995 484.514308 
L 93.555782 485.138704 
L 91.690639 487.087365 
L 91.148157 487.797986 
L 89.680996 489.660422 
L 88.740531 491.458945 
L 88.267088 492.233478 
L 87.578712 494.806535 
L 88.407211 497.379592 
z
M 93.20292 497.379592 
L 91.148157 496.708595 
L 89.573312 494.806535 
L 89.811018 492.233478 
L 91.148157 489.660422 
L 91.148157 489.660422 
L 93.112407 487.087365 
L 93.555782 486.624137 
L 95.769738 484.514308 
L 95.963408 484.341904 
L 98.371033 482.482928 
L 99.248299 481.941251 
L 100.778658 480.93552 
L 103.186284 479.816479 
L 104.559964 479.368195 
L 105.593909 478.962856 
L 108.001534 478.501403 
L 110.40916 478.54189 
L 112.613649 479.368195 
L 112.816785 479.568658 
L 113.913239 481.941251 
L 113.374043 484.514308 
L 112.816785 485.362937 
L 111.835639 487.087365 
L 110.40916 488.616966 
L 109.456411 489.660422 
L 108.001534 490.902259 
L 106.271387 492.233478 
L 105.593909 492.723447 
L 103.186284 494.234235 
L 102.092785 494.806535 
L 100.778658 495.552981 
L 98.371033 496.54171 
L 95.963408 497.211409 
L 94.157414 497.379592 
L 93.555782 497.446818 
z
" clip-path="url(#pe9429b934c)" style="fill: #9ac8e0"/>
    <path d="M 93.555782 497.446818 
L 94.157414 497.379592 
L 95.963408 497.211409 
L 98.371033 496.54171 
L 100.778658 495.552981 
L 102.092785 494.806535 
L 103.186284 494.234235 
L 105.593909 492.723447 
L 106.271387 492.233478 
L 108.001534 490.902259 
L 109.456411 489.660422 
L 110.40916 488.616966 
L 111.835639 487.087365 
L 112.816785 485.362937 
L 113.374043 484.514308 
L 113.913239 481.941251 
L 112.816785 479.568658 
L 112.613649 479.368195 
L 110.40916 478.54189 
L 108.001534 478.501403 
L 105.593909 478.962856 
L 104.559964 479.368195 
L 103.186284 479.816479 
L 100.778658 480.93552 
L 99.248299 481.941251 
L 98.371033 482.482928 
L 95.963408 484.341904 
L 95.769738 484.514308 
L 93.555782 486.624137 
L 93.112407 487.087365 
L 91.148157 489.660422 
L 91.148157 489.660422 
L 89.811018 492.233478 
L 89.573312 494.806535 
L 91.148157 496.708595 
L 93.20292 497.379592 
z
M 91.413276 494.806535 
L 91.148157 493.269195 
L 91.056362 492.233478 
L 91.148157 492.056837 
L 92.233403 489.660422 
L 93.555782 487.96405 
L 94.231258 487.087365 
L 95.963408 485.403322 
L 96.988484 484.514308 
L 98.371033 483.427863 
L 100.778658 481.941251 
L 100.778658 481.941251 
L 103.186284 480.76504 
L 105.593909 480.033023 
L 108.001534 479.716245 
L 110.40916 480.141353 
L 112.160824 481.941251 
L 111.957881 484.514308 
L 110.485355 487.087365 
L 110.40916 487.169069 
L 108.134378 489.660422 
L 108.001534 489.773813 
L 105.593909 491.722703 
L 104.893179 492.233478 
L 103.186284 493.368355 
L 100.778658 494.630563 
L 100.344706 494.806535 
L 98.371033 495.645233 
L 95.963408 496.172977 
L 93.555782 496.049574 
z
" clip-path="url(#pe9429b934c)" style="fill: #6fb0d7"/>
    <path d="M 93.555782 496.049574 
L 95.963408 496.172977 
L 98.371033 495.645233 
L 100.344706 494.806535 
L 100.778658 494.630563 
L 103.186284 493.368355 
L 104.893179 492.233478 
L 105.593909 491.722703 
L 108.001534 489.773813 
L 108.134378 489.660422 
L 110.40916 487.169069 
L 110.485355 487.087365 
L 111.957881 484.514308 
L 112.160824 481.941251 
L 110.40916 480.141353 
L 108.001534 479.716245 
L 105.593909 480.033023 
L 103.186284 480.76504 
L 100.778658 481.941251 
L 100.778658 481.941251 
L 98.371033 483.427863 
L 96.988484 484.514308 
L 95.963408 485.403322 
L 94.231258 487.087365 
L 93.555782 487.96405 
L 92.233403 489.660422 
L 91.148157 492.056837 
L 91.056362 492.233478 
L 91.148157 493.269195 
L 91.413276 494.806535 
z
M 95.934372 494.806535 
L 93.555782 493.59536 
L 92.883146 492.233478 
L 93.555782 490.075189 
L 93.672002 489.660422 
L 95.637147 487.087365 
L 95.963408 486.770165 
L 98.371033 484.691265 
L 98.609484 484.514308 
L 100.778658 483.156782 
L 103.186284 482.016794 
L 103.465536 481.941251 
L 105.593909 481.385472 
L 108.001534 481.368072 
L 109.367616 481.941251 
L 110.183347 484.514308 
L 108.937852 487.087365 
L 108.001534 488.109968 
L 106.595317 489.660422 
L 105.593909 490.478515 
L 103.186284 492.233478 
L 103.186284 492.233478 
L 100.778658 493.509319 
L 98.371033 494.411638 
L 95.996365 494.806535 
L 95.963408 494.811941 
z
" clip-path="url(#pe9429b934c)" style="fill: #4997c9"/>
    <path d="M 95.963408 494.811941 
L 95.996365 494.806535 
L 98.371033 494.411638 
L 100.778658 493.509319 
L 103.186284 492.233478 
L 103.186284 492.233478 
L 105.593909 490.478515 
L 106.595317 489.660422 
L 108.001534 488.109968 
L 108.937852 487.087365 
L 110.183347 484.514308 
L 109.367616 481.941251 
L 108.001534 481.368072 
L 105.593909 481.385472 
L 103.465536 481.941251 
L 103.186284 482.016794 
L 100.778658 483.156782 
L 98.609484 484.514308 
L 98.371033 484.691265 
L 95.963408 486.770165 
L 95.637147 487.087365 
L 93.672002 489.660422 
L 93.555782 490.075189 
L 92.883146 492.233478 
L 93.555782 493.59536 
L 95.934372 494.806535 
z
M 95.584515 492.233478 
L 95.517969 489.660422 
L 95.963408 489.059665 
L 97.452718 487.087365 
L 98.371033 486.30103 
L 100.778658 484.514308 
L 100.778658 484.514308 
L 103.186284 483.581535 
L 105.593909 483.244718 
L 108.001534 484.494539 
L 108.013117 484.514308 
L 108.001534 484.544157 
L 107.098961 487.087365 
L 105.593909 488.755618 
L 104.754725 489.660422 
L 103.186284 490.778639 
L 100.823224 492.233478 
L 100.778658 492.257094 
L 98.371033 492.870671 
L 95.963408 492.521455 
z
" clip-path="url(#pe9429b934c)" style="fill: #2474b7"/>
    <path d="M 95.963408 492.521455 
L 98.371033 492.870671 
L 100.778658 492.257094 
L 100.823224 492.233478 
L 103.186284 490.778639 
L 104.754725 489.660422 
L 105.593909 488.755618 
L 107.098961 487.087365 
L 108.001534 484.544157 
L 108.013117 484.514308 
L 108.001534 484.494539 
L 105.593909 483.244718 
L 103.186284 483.581535 
L 100.778658 484.514308 
L 100.778658 484.514308 
L 98.371033 486.30103 
L 97.452718 487.087365 
L 95.963408 489.059665 
L 95.517969 489.660422 
L 95.584515 492.233478 
z
M 97.05736 489.660422 
L 98.371033 487.654683 
L 98.7805 487.087365 
L 100.778658 485.795836 
L 103.186284 484.580012 
L 105.593909 484.514308 
L 105.877011 487.087365 
L 105.593909 487.401165 
L 103.498503 489.660422 
L 103.186284 489.883018 
L 100.778658 491.025118 
L 98.371033 491.435374 
z
" clip-path="url(#pe9429b934c)" style="fill: #0d57a1"/>
    <path d="M 98.371033 491.435374 
L 100.778658 491.025118 
L 103.186284 489.883018 
L 103.498503 489.660422 
L 105.593909 487.401165 
L 105.877011 487.087365 
L 105.593909 484.514308 
L 103.186284 484.580012 
L 100.778658 485.795836 
L 98.7805 487.087365 
L 98.371033 487.654683 
L 97.05736 489.660422 
z
" clip-path="url(#pe9429b934c)" style="fill: #083d7f"/>
   </g>
   <g id="matplotlib.axis_1">
    <g id="xtick_1">
     <g id="line2d_1">
      <defs>
       <path id="mcea7735465" d="M 0 0 
L 0 3.5 
" style="stroke: #000000; stroke-width: 0.8"/>
      </defs>
      <g>
       <use xlink:href="#mcea7735465" x="170.269716" y="499.48" style="stroke: #000000; stroke-width: 0.8"/>
      </g>
     </g>
     <g id="text_1">
      <!-- 10 -->
      <g transform="translate(156.272216 523.196563) scale(0.22 -0.22)">
       <defs>
        <path id="DejaVuSans-31" d="M 794 531 
L 1825 531 
L 1825 4091 
L 703 3866 
L 703 4441 
L 1819 4666 
L 2450 4666 
L 2450 531 
L 3481 531 
L 3481 0 
L 794 0 
L 794 531 
z
" transform="scale(0.015625)"/>
        <path id="DejaVuSans-30" d="M 2034 4250 
Q 1547 4250 1301 3770 
Q 1056 3291 1056 2328 
Q 1056 1369 1301 889 
Q 1547 409 2034 409 
Q 2525 409 2770 889 
Q 3016 1369 3016 2328 
Q 3016 3291 2770 3770 
Q 2525 4250 2034 4250 
z
M 2034 4750 
Q 2819 4750 3233 4129 
Q 3647 3509 3647 2328 
Q 3647 1150 3233 529 
Q 2819 -91 2034 -91 
Q 1250 -91 836 529 
Q 422 1150 422 2328 
Q 422 3509 836 4129 
Q 1250 4750 2034 4750 
z
" transform="scale(0.015625)"/>
       </defs>
       <use xlink:href="#DejaVuSans-31"/>
       <use xlink:href="#DejaVuSans-30" x="63.623047"/>
      </g>
     </g>
    </g>
    <g id="xtick_2">
     <g id="line2d_2">
      <g>
       <use xlink:href="#mcea7735465" x="261.099187" y="499.48" style="stroke: #000000; stroke-width: 0.8"/>
      </g>
     </g>
     <g id="text_2">
      <!-- 20 -->
      <g transform="translate(247.101687 523.196563) scale(0.22 -0.22)">
       <defs>
        <path id="DejaVuSans-32" d="M 1228 531 
L 3431 531 
L 3431 0 
L 469 0 
L 469 531 
Q 828 903 1448 1529 
Q 2069 2156 2228 2338 
Q 2531 2678 2651 2914 
Q 2772 3150 2772 3378 
Q 2772 3750 2511 3984 
Q 2250 4219 1831 4219 
Q 1534 4219 1204 4116 
Q 875 4013 500 3803 
L 500 4441 
Q 881 4594 1212 4672 
Q 1544 4750 1819 4750 
Q 2544 4750 2975 4387 
Q 3406 4025 3406 3419 
Q 3406 3131 3298 2873 
Q 3191 2616 2906 2266 
Q 2828 2175 2409 1742 
Q 1991 1309 1228 531 
z
" transform="scale(0.015625)"/>
       </defs>
       <use xlink:href="#DejaVuSans-32"/>
       <use xlink:href="#DejaVuSans-30" x="63.623047"/>
      </g>
     </g>
    </g>
    <g id="xtick_3">
     <g id="line2d_3">
      <g>
       <use xlink:href="#mcea7735465" x="351.928658" y="499.48" style="stroke: #000000; stroke-width: 0.8"/>
      </g>
     </g>
     <g id="text_3">
      <!-- 30 -->
      <g transform="translate(337.931158 523.196563) scale(0.22 -0.22)">
       <defs>
        <path id="DejaVuSans-33" d="M 2597 2516 
Q 3050 2419 3304 2112 
Q 3559 1806 3559 1356 
Q 3559 666 3084 287 
Q 2609 -91 1734 -91 
Q 1441 -91 1130 -33 
Q 819 25 488 141 
L 488 750 
Q 750 597 1062 519 
Q 1375 441 1716 441 
Q 2309 441 2620 675 
Q 2931 909 2931 1356 
Q 2931 1769 2642 2001 
Q 2353 2234 1838 2234 
L 1294 2234 
L 1294 2753 
L 1863 2753 
Q 2328 2753 2575 2939 
Q 2822 3125 2822 3475 
Q 2822 3834 2567 4026 
Q 2313 4219 1838 4219 
Q 1578 4219 1281 4162 
Q 984 4106 628 3988 
L 628 4550 
Q 988 4650 1302 4700 
Q 1616 4750 1894 4750 
Q 2613 4750 3031 4423 
Q 3450 4097 3450 3541 
Q 3450 3153 3228 2886 
Q 3006 2619 2597 2516 
z
" transform="scale(0.015625)"/>
       </defs>
       <use xlink:href="#DejaVuSans-33"/>
       <use xlink:href="#DejaVuSans-30" x="63.623047"/>
      </g>
     </g>
    </g>
    <g id="xtick_4">
     <g id="line2d_4">
      <g>
       <use xlink:href="#mcea7735465" x="442.758128" y="499.48" style="stroke: #000000; stroke-width: 0.8"/>
      </g>
     </g>
     <g id="text_4">
      <!-- 40 -->
      <g transform="translate(428.760628 523.196563) scale(0.22 -0.22)">
       <defs>
        <path id="DejaVuSans-34" d="M 2419 4116 
L 825 1625 
L 2419 1625 
L 2419 4116 
z
M 2253 4666 
L 3047 4666 
L 3047 1625 
L 3713 1625 
L 3713 1100 
L 3047 1100 
L 3047 0 
L 2419 0 
L 2419 1100 
L 313 1100 
L 313 1709 
L 2253 4666 
z
" transform="scale(0.015625)"/>
       </defs>
       <use xlink:href="#DejaVuSans-34"/>
       <use xlink:href="#DejaVuSans-30" x="63.623047"/>
      </g>
     </g>
    </g>
    <g id="xtick_5">
     <g id="line2d_5">
      <g>
       <use xlink:href="#mcea7735465" x="533.587599" y="499.48" style="stroke: #000000; stroke-width: 0.8"/>
      </g>
     </g>
     <g id="text_5">
      <!-- 50 -->
      <g transform="translate(519.590099 523.196563) scale(0.22 -0.22)">
       <defs>
        <path id="DejaVuSans-35" d="M 691 4666 
L 3169 4666 
L 3169 4134 
L 1269 4134 
L 1269 2991 
Q 1406 3038 1543 3061 
Q 1681 3084 1819 3084 
Q 2600 3084 3056 2656 
Q 3513 2228 3513 1497 
Q 3513 744 3044 326 
Q 2575 -91 1722 -91 
Q 1428 -91 1123 -41 
Q 819 9 494 109 
L 494 744 
Q 775 591 1075 516 
Q 1375 441 1709 441 
Q 2250 441 2565 725 
Q 2881 1009 2881 1497 
Q 2881 1984 2565 2268 
Q 2250 2553 1709 2553 
Q 1456 2553 1204 2497 
Q 953 2441 691 2322 
L 691 4666 
z
" transform="scale(0.015625)"/>
       </defs>
       <use xlink:href="#DejaVuSans-35"/>
       <use xlink:href="#DejaVuSans-30" x="63.623047"/>
      </g>
     </g>
    </g>
    <g id="xtick_6">
     <g id="line2d_6">
      <g>
       <use xlink:href="#mcea7735465" x="624.41707" y="499.48" style="stroke: #000000; stroke-width: 0.8"/>
      </g>
     </g>
     <g id="text_6">
      <!-- 60 -->
      <g transform="translate(610.41957 523.196563) scale(0.22 -0.22)">
       <defs>
        <path id="DejaVuSans-36" d="M 2113 2584 
Q 1688 2584 1439 2293 
Q 1191 2003 1191 1497 
Q 1191 994 1439 701 
Q 1688 409 2113 409 
Q 2538 409 2786 701 
Q 3034 994 3034 1497 
Q 3034 2003 2786 2293 
Q 2538 2584 2113 2584 
z
M 3366 4563 
L 3366 3988 
Q 3128 4100 2886 4159 
Q 2644 4219 2406 4219 
Q 1781 4219 1451 3797 
Q 1122 3375 1075 2522 
Q 1259 2794 1537 2939 
Q 1816 3084 2150 3084 
Q 2853 3084 3261 2657 
Q 3669 2231 3669 1497 
Q 3669 778 3244 343 
Q 2819 -91 2113 -91 
Q 1303 -91 875 529 
Q 447 1150 447 2328 
Q 447 3434 972 4092 
Q 1497 4750 2381 4750 
Q 2619 4750 2861 4703 
Q 3103 4656 3366 4563 
z
" transform="scale(0.015625)"/>
       </defs>
       <use xlink:href="#DejaVuSans-36"/>
       <use xlink:href="#DejaVuSans-30" x="63.623047"/>
      </g>
     </g>
    </g>
    <g id="text_7">
     <!-- Force Uncertainties -->
     <g transform="translate(283.426094 548.488438) scale(0.22 -0.22)">
      <defs>
       <path id="DejaVuSans-46" d="M 628 4666 
L 3309 4666 
L 3309 4134 
L 1259 4134 
L 1259 2759 
L 3109 2759 
L 3109 2228 
L 1259 2228 
L 1259 0 
L 628 0 
L 628 4666 
z
" transform="scale(0.015625)"/>
       <path id="DejaVuSans-6f" d="M 1959 3097 
Q 1497 3097 1228 2736 
Q 959 2375 959 1747 
Q 959 1119 1226 758 
Q 1494 397 1959 397 
Q 2419 397 2687 759 
Q 2956 1122 2956 1747 
Q 2956 2369 2687 2733 
Q 2419 3097 1959 3097 
z
M 1959 3584 
Q 2709 3584 3137 3096 
Q 3566 2609 3566 1747 
Q 3566 888 3137 398 
Q 2709 -91 1959 -91 
Q 1206 -91 779 398 
Q 353 888 353 1747 
Q 353 2609 779 3096 
Q 1206 3584 1959 3584 
z
" transform="scale(0.015625)"/>
       <path id="DejaVuSans-72" d="M 2631 2963 
Q 2534 3019 2420 3045 
Q 2306 3072 2169 3072 
Q 1681 3072 1420 2755 
Q 1159 2438 1159 1844 
L 1159 0 
L 581 0 
L 581 3500 
L 1159 3500 
L 1159 2956 
Q 1341 3275 1631 3429 
Q 1922 3584 2338 3584 
Q 2397 3584 2469 3576 
Q 2541 3569 2628 3553 
L 2631 2963 
z
" transform="scale(0.015625)"/>
       <path id="DejaVuSans-63" d="M 3122 3366 
L 3122 2828 
Q 2878 2963 2633 3030 
Q 2388 3097 2138 3097 
Q 1578 3097 1268 2742 
Q 959 2388 959 1747 
Q 959 1106 1268 751 
Q 1578 397 2138 397 
Q 2388 397 2633 464 
Q 2878 531 3122 666 
L 3122 134 
Q 2881 22 2623 -34 
Q 2366 -91 2075 -91 
Q 1284 -91 818 406 
Q 353 903 353 1747 
Q 353 2603 823 3093 
Q 1294 3584 2113 3584 
Q 2378 3584 2631 3529 
Q 2884 3475 3122 3366 
z
" transform="scale(0.015625)"/>
       <path id="DejaVuSans-65" d="M 3597 1894 
L 3597 1613 
L 953 1613 
Q 991 1019 1311 708 
Q 1631 397 2203 397 
Q 2534 397 2845 478 
Q 3156 559 3463 722 
L 3463 178 
Q 3153 47 2828 -22 
Q 2503 -91 2169 -91 
Q 1331 -91 842 396 
Q 353 884 353 1716 
Q 353 2575 817 3079 
Q 1281 3584 2069 3584 
Q 2775 3584 3186 3129 
Q 3597 2675 3597 1894 
z
M 3022 2063 
Q 3016 2534 2758 2815 
Q 2500 3097 2075 3097 
Q 1594 3097 1305 2825 
Q 1016 2553 972 2059 
L 3022 2063 
z
" transform="scale(0.015625)"/>
       <path id="DejaVuSans-20" transform="scale(0.015625)"/>
       <path id="DejaVuSans-55" d="M 556 4666 
L 1191 4666 
L 1191 1831 
Q 1191 1081 1462 751 
Q 1734 422 2344 422 
Q 2950 422 3222 751 
Q 3494 1081 3494 1831 
L 3494 4666 
L 4128 4666 
L 4128 1753 
Q 4128 841 3676 375 
Q 3225 -91 2344 -91 
Q 1459 -91 1007 375 
Q 556 841 556 1753 
L 556 4666 
z
" transform="scale(0.015625)"/>
       <path id="DejaVuSans-6e" d="M 3513 2113 
L 3513 0 
L 2938 0 
L 2938 2094 
Q 2938 2591 2744 2837 
Q 2550 3084 2163 3084 
Q 1697 3084 1428 2787 
Q 1159 2491 1159 1978 
L 1159 0 
L 581 0 
L 581 3500 
L 1159 3500 
L 1159 2956 
Q 1366 3272 1645 3428 
Q 1925 3584 2291 3584 
Q 2894 3584 3203 3211 
Q 3513 2838 3513 2113 
z
" transform="scale(0.015625)"/>
       <path id="DejaVuSans-74" d="M 1172 4494 
L 1172 3500 
L 2356 3500 
L 2356 3053 
L 1172 3053 
L 1172 1153 
Q 1172 725 1289 603 
Q 1406 481 1766 481 
L 2356 481 
L 2356 0 
L 1766 0 
Q 1100 0 847 248 
Q 594 497 594 1153 
L 594 3053 
L 172 3053 
L 172 3500 
L 594 3500 
L 594 4494 
L 1172 4494 
z
" transform="scale(0.015625)"/>
       <path id="DejaVuSans-61" d="M 2194 1759 
Q 1497 1759 1228 1600 
Q 959 1441 959 1056 
Q 959 750 1161 570 
Q 1363 391 1709 391 
Q 2188 391 2477 730 
Q 2766 1069 2766 1631 
L 2766 1759 
L 2194 1759 
z
M 3341 1997 
L 3341 0 
L 2766 0 
L 2766 531 
Q 2569 213 2275 61 
Q 1981 -91 1556 -91 
Q 1019 -91 701 211 
Q 384 513 384 1019 
Q 384 1609 779 1909 
Q 1175 2209 1959 2209 
L 2766 2209 
L 2766 2266 
Q 2766 2663 2505 2880 
Q 2244 3097 1772 3097 
Q 1472 3097 1187 3025 
Q 903 2953 641 2809 
L 641 3341 
Q 956 3463 1253 3523 
Q 1550 3584 1831 3584 
Q 2591 3584 2966 3190 
Q 3341 2797 3341 1997 
z
" transform="scale(0.015625)"/>
       <path id="DejaVuSans-69" d="M 603 3500 
L 1178 3500 
L 1178 0 
L 603 0 
L 603 3500 
z
M 603 4863 
L 1178 4863 
L 1178 4134 
L 603 4134 
L 603 4863 
z
" transform="scale(0.015625)"/>
       <path id="DejaVuSans-73" d="M 2834 3397 
L 2834 2853 
Q 2591 2978 2328 3040 
Q 2066 3103 1784 3103 
Q 1356 3103 1142 2972 
Q 928 2841 928 2578 
Q 928 2378 1081 2264 
Q 1234 2150 1697 2047 
L 1894 2003 
Q 2506 1872 2764 1633 
Q 3022 1394 3022 966 
Q 3022 478 2636 193 
Q 2250 -91 1575 -91 
Q 1294 -91 989 -36 
Q 684 19 347 128 
L 347 722 
Q 666 556 975 473 
Q 1284 391 1588 391 
Q 1994 391 2212 530 
Q 2431 669 2431 922 
Q 2431 1156 2273 1281 
Q 2116 1406 1581 1522 
L 1381 1569 
Q 847 1681 609 1914 
Q 372 2147 372 2553 
Q 372 3047 722 3315 
Q 1072 3584 1716 3584 
Q 2034 3584 2315 3537 
Q 2597 3491 2834 3397 
z
" transform="scale(0.015625)"/>
      </defs>
      <use xlink:href="#DejaVuSans-46"/>
      <use xlink:href="#DejaVuSans-6f" x="53.894531"/>
      <use xlink:href="#DejaVuSans-72" x="115.076172"/>
      <use xlink:href="#DejaVuSans-63" x="153.939453"/>
      <use xlink:href="#DejaVuSans-65" x="208.919922"/>
      <use xlink:href="#DejaVuSans-20" x="270.443359"/>
      <use xlink:href="#DejaVuSans-55" x="302.230469"/>
      <use xlink:href="#DejaVuSans-6e" x="375.423828"/>
      <use xlink:href="#DejaVuSans-63" x="438.802734"/>
      <use xlink:href="#DejaVuSans-65" x="493.783203"/>
      <use xlink:href="#DejaVuSans-72" x="555.306641"/>
      <use xlink:href="#DejaVuSans-74" x="596.419922"/>
      <use xlink:href="#DejaVuSans-61" x="635.628906"/>
      <use xlink:href="#DejaVuSans-69" x="696.908203"/>
      <use xlink:href="#DejaVuSans-6e" x="724.691406"/>
      <use xlink:href="#DejaVuSans-74" x="788.070312"/>
      <use xlink:href="#DejaVuSans-69" x="827.279297"/>
      <use xlink:href="#DejaVuSans-65" x="855.0625"/>
      <use xlink:href="#DejaVuSans-73" x="916.585938"/>
     </g>
    </g>
   </g>
   <g id="matplotlib.axis_2">
    <g id="ytick_1">
     <g id="line2d_7">
      <defs>
       <path id="mc40d76cbac" d="M 0 0 
L -3.5 0 
" style="stroke: #000000; stroke-width: 0.8"/>
      </defs>
      <g>
       <use xlink:href="#mc40d76cbac" x="83.72" y="432.260267" style="stroke: #000000; stroke-width: 0.8"/>
      </g>
     </g>
     <g id="text_8">
      <!-- 10 -->
      <g transform="translate(48.725 440.618548) scale(0.22 -0.22)">
       <use xlink:href="#DejaVuSans-31"/>
       <use xlink:href="#DejaVuSans-30" x="63.623047"/>
      </g>
     </g>
    </g>
    <g id="ytick_2">
     <g id="line2d_8">
      <g>
       <use xlink:href="#mc40d76cbac" x="83.72" y="361.716618" style="stroke: #000000; stroke-width: 0.8"/>
      </g>
     </g>
     <g id="text_9">
      <!-- 20 -->
      <g transform="translate(48.725 370.074899) scale(0.22 -0.22)">
       <use xlink:href="#DejaVuSans-32"/>
       <use xlink:href="#DejaVuSans-30" x="63.623047"/>
      </g>
     </g>
    </g>
    <g id="ytick_3">
     <g id="line2d_9">
      <g>
       <use xlink:href="#mc40d76cbac" x="83.72" y="291.172969" style="stroke: #000000; stroke-width: 0.8"/>
      </g>
     </g>
     <g id="text_10">
      <!-- 30 -->
      <g transform="translate(48.725 299.53125) scale(0.22 -0.22)">
       <use xlink:href="#DejaVuSans-33"/>
       <use xlink:href="#DejaVuSans-30" x="63.623047"/>
      </g>
     </g>
    </g>
    <g id="ytick_4">
     <g id="line2d_10">
      <g>
       <use xlink:href="#mc40d76cbac" x="83.72" y="220.62932" style="stroke: #000000; stroke-width: 0.8"/>
      </g>
     </g>
     <g id="text_11">
      <!-- 40 -->
      <g transform="translate(48.725 228.987601) scale(0.22 -0.22)">
       <use xlink:href="#DejaVuSans-34"/>
       <use xlink:href="#DejaVuSans-30" x="63.623047"/>
      </g>
     </g>
    </g>
    <g id="ytick_5">
     <g id="line2d_11">
      <g>
       <use xlink:href="#mc40d76cbac" x="83.72" y="150.085671" style="stroke: #000000; stroke-width: 0.8"/>
      </g>
     </g>
     <g id="text_12">
      <!-- 50 -->
      <g transform="translate(48.725 158.443952) scale(0.22 -0.22)">
       <use xlink:href="#DejaVuSans-35"/>
       <use xlink:href="#DejaVuSans-30" x="63.623047"/>
      </g>
     </g>
    </g>
    <g id="ytick_6">
     <g id="line2d_12">
      <g>
       <use xlink:href="#mc40d76cbac" x="83.72" y="79.542022" style="stroke: #000000; stroke-width: 0.8"/>
      </g>
     </g>
     <g id="text_13">
      <!-- 60 -->
      <g transform="translate(48.725 87.900304) scale(0.22 -0.22)">
       <use xlink:href="#DejaVuSans-36"/>
       <use xlink:href="#DejaVuSans-30" x="63.623047"/>
      </g>
     </g>
    </g>
    <g id="text_14">
     <!-- Force Errors [kJ/(mol*A)] -->
     <g transform="translate(40.149688 394.9125) rotate(-90) scale(0.22 -0.22)">
      <defs>
       <path id="DejaVuSans-45" d="M 628 4666 
L 3578 4666 
L 3578 4134 
L 1259 4134 
L 1259 2753 
L 3481 2753 
L 3481 2222 
L 1259 2222 
L 1259 531 
L 3634 531 
L 3634 0 
L 628 0 
L 628 4666 
z
" transform="scale(0.015625)"/>
       <path id="DejaVuSans-5b" d="M 550 4863 
L 1875 4863 
L 1875 4416 
L 1125 4416 
L 1125 -397 
L 1875 -397 
L 1875 -844 
L 550 -844 
L 550 4863 
z
" transform="scale(0.015625)"/>
       <path id="DejaVuSans-6b" d="M 581 4863 
L 1159 4863 
L 1159 1991 
L 2875 3500 
L 3609 3500 
L 1753 1863 
L 3688 0 
L 2938 0 
L 1159 1709 
L 1159 0 
L 581 0 
L 581 4863 
z
" transform="scale(0.015625)"/>
       <path id="DejaVuSans-4a" d="M 628 4666 
L 1259 4666 
L 1259 325 
Q 1259 -519 939 -900 
Q 619 -1281 -91 -1281 
L -331 -1281 
L -331 -750 
L -134 -750 
Q 284 -750 456 -515 
Q 628 -281 628 325 
L 628 4666 
z
" transform="scale(0.015625)"/>
       <path id="DejaVuSans-2f" d="M 1625 4666 
L 2156 4666 
L 531 -594 
L 0 -594 
L 1625 4666 
z
" transform="scale(0.015625)"/>
       <path id="DejaVuSans-28" d="M 1984 4856 
Q 1566 4138 1362 3434 
Q 1159 2731 1159 2009 
Q 1159 1288 1364 580 
Q 1569 -128 1984 -844 
L 1484 -844 
Q 1016 -109 783 600 
Q 550 1309 550 2009 
Q 550 2706 781 3412 
Q 1013 4119 1484 4856 
L 1984 4856 
z
" transform="scale(0.015625)"/>
       <path id="DejaVuSans-6d" d="M 3328 2828 
Q 3544 3216 3844 3400 
Q 4144 3584 4550 3584 
Q 5097 3584 5394 3201 
Q 5691 2819 5691 2113 
L 5691 0 
L 5113 0 
L 5113 2094 
Q 5113 2597 4934 2840 
Q 4756 3084 4391 3084 
Q 3944 3084 3684 2787 
Q 3425 2491 3425 1978 
L 3425 0 
L 2847 0 
L 2847 2094 
Q 2847 2600 2669 2842 
Q 2491 3084 2119 3084 
Q 1678 3084 1418 2786 
Q 1159 2488 1159 1978 
L 1159 0 
L 581 0 
L 581 3500 
L 1159 3500 
L 1159 2956 
Q 1356 3278 1631 3431 
Q 1906 3584 2284 3584 
Q 2666 3584 2933 3390 
Q 3200 3197 3328 2828 
z
" transform="scale(0.015625)"/>
       <path id="DejaVuSans-6c" d="M 603 4863 
L 1178 4863 
L 1178 0 
L 603 0 
L 603 4863 
z
" transform="scale(0.015625)"/>
       <path id="DejaVuSans-2a" d="M 3009 3897 
L 1888 3291 
L 3009 2681 
L 2828 2375 
L 1778 3009 
L 1778 1831 
L 1422 1831 
L 1422 3009 
L 372 2375 
L 191 2681 
L 1313 3291 
L 191 3897 
L 372 4206 
L 1422 3572 
L 1422 4750 
L 1778 4750 
L 1778 3572 
L 2828 4206 
L 3009 3897 
z
" transform="scale(0.015625)"/>
       <path id="DejaVuSans-41" d="M 2188 4044 
L 1331 1722 
L 3047 1722 
L 2188 4044 
z
M 1831 4666 
L 2547 4666 
L 4325 0 
L 3669 0 
L 3244 1197 
L 1141 1197 
L 716 0 
L 50 0 
L 1831 4666 
z
" transform="scale(0.015625)"/>
       <path id="DejaVuSans-29" d="M 513 4856 
L 1013 4856 
Q 1481 4119 1714 3412 
Q 1947 2706 1947 2009 
Q 1947 1309 1714 600 
Q 1481 -109 1013 -844 
L 513 -844 
Q 928 -128 1133 580 
Q 1338 1288 1338 2009 
Q 1338 2731 1133 3434 
Q 928 4138 513 4856 
z
" transform="scale(0.015625)"/>
       <path id="DejaVuSans-5d" d="M 1947 4863 
L 1947 -844 
L 622 -844 
L 622 -397 
L 1369 -397 
L 1369 4416 
L 622 4416 
L 622 4863 
L 1947 4863 
z
" transform="scale(0.015625)"/>
      </defs>
      <use xlink:href="#DejaVuSans-46"/>
      <use xlink:href="#DejaVuSans-6f" x="53.894531"/>
      <use xlink:href="#DejaVuSans-72" x="115.076172"/>
      <use xlink:href="#DejaVuSans-63" x="153.939453"/>
      <use xlink:href="#DejaVuSans-65" x="208.919922"/>
      <use xlink:href="#DejaVuSans-20" x="270.443359"/>
      <use xlink:href="#DejaVuSans-45" x="302.230469"/>
      <use xlink:href="#DejaVuSans-72" x="365.414062"/>
      <use xlink:href="#DejaVuSans-72" x="404.777344"/>
      <use xlink:href="#DejaVuSans-6f" x="443.640625"/>
      <use xlink:href="#DejaVuSans-72" x="504.822266"/>
      <use xlink:href="#DejaVuSans-73" x="545.935547"/>
      <use xlink:href="#DejaVuSans-20" x="598.035156"/>
      <use xlink:href="#DejaVuSans-5b" x="629.822266"/>
      <use xlink:href="#DejaVuSans-6b" x="668.835938"/>
      <use xlink:href="#DejaVuSans-4a" x="726.746094"/>
      <use xlink:href="#DejaVuSans-2f" x="756.238281"/>
      <use xlink:href="#DejaVuSans-28" x="789.929688"/>
      <use xlink:href="#DejaVuSans-6d" x="828.943359"/>
      <use xlink:href="#DejaVuSans-6f" x="926.355469"/>
      <use xlink:href="#DejaVuSans-6c" x="987.537109"/>
      <use xlink:href="#DejaVuSans-2a" x="1015.320312"/>
      <use xlink:href="#DejaVuSans-41" x="1065.320312"/>
      <use xlink:href="#DejaVuSans-29" x="1133.728516"/>
      <use xlink:href="#DejaVuSans-5d" x="1172.742188"/>
     </g>
    </g>
   </g>
   <g id="line2d_13">
    <path d="M 83.72 499.48 
L 696.24 23.76 
" clip-path="url(#pe9429b934c)" style="fill: none; stroke-dasharray: 5.55,2.4; stroke-dashoffset: 0; stroke: #ff0000; stroke-width: 1.5"/>
   </g>
   <g id="patch_3">
    <path d="M 83.72 499.48 
L 83.72 23.76 
" style="fill: none; stroke: #000000; stroke-width: 0.8; stroke-linejoin: miter; stroke-linecap: square"/>
   </g>
   <g id="patch_4">
    <path d="M 696.24 499.48 
L 696.24 23.76 
" style="fill: none; stroke: #000000; stroke-width: 0.8; stroke-linejoin: miter; stroke-linecap: square"/>
   </g>
   <g id="patch_5">
    <path d="M 83.72 499.48 
L 696.24 499.48 
" style="fill: none; stroke: #000000; stroke-width: 0.8; stroke-linejoin: miter; stroke-linecap: square"/>
   </g>
   <g id="patch_6">
    <path d="M 83.72 23.76 
L 696.24 23.76 
" style="fill: none; stroke: #000000; stroke-width: 0.8; stroke-linejoin: miter; stroke-linecap: square"/>
   </g>
   <g id="text_15">
    <!-- Correlation in: 0.883 -->
    <g transform="translate(144.972 71.332) scale(0.22 -0.22)">
     <defs>
      <path id="DejaVuSans-43" d="M 4122 4306 
L 4122 3641 
Q 3803 3938 3442 4084 
Q 3081 4231 2675 4231 
Q 1875 4231 1450 3742 
Q 1025 3253 1025 2328 
Q 1025 1406 1450 917 
Q 1875 428 2675 428 
Q 3081 428 3442 575 
Q 3803 722 4122 1019 
L 4122 359 
Q 3791 134 3420 21 
Q 3050 -91 2638 -91 
Q 1578 -91 968 557 
Q 359 1206 359 2328 
Q 359 3453 968 4101 
Q 1578 4750 2638 4750 
Q 3056 4750 3426 4639 
Q 3797 4528 4122 4306 
z
" transform="scale(0.015625)"/>
      <path id="DejaVuSans-3a" d="M 750 794 
L 1409 794 
L 1409 0 
L 750 0 
L 750 794 
z
M 750 3309 
L 1409 3309 
L 1409 2516 
L 750 2516 
L 750 3309 
z
" transform="scale(0.015625)"/>
      <path id="DejaVuSans-2e" d="M 684 794 
L 1344 794 
L 1344 0 
L 684 0 
L 684 794 
z
" transform="scale(0.015625)"/>
      <path id="DejaVuSans-38" d="M 2034 2216 
Q 1584 2216 1326 1975 
Q 1069 1734 1069 1313 
Q 1069 891 1326 650 
Q 1584 409 2034 409 
Q 2484 409 2743 651 
Q 3003 894 3003 1313 
Q 3003 1734 2745 1975 
Q 2488 2216 2034 2216 
z
M 1403 2484 
Q 997 2584 770 2862 
Q 544 3141 544 3541 
Q 544 4100 942 4425 
Q 1341 4750 2034 4750 
Q 2731 4750 3128 4425 
Q 3525 4100 3525 3541 
Q 3525 3141 3298 2862 
Q 3072 2584 2669 2484 
Q 3125 2378 3379 2068 
Q 3634 1759 3634 1313 
Q 3634 634 3220 271 
Q 2806 -91 2034 -91 
Q 1263 -91 848 271 
Q 434 634 434 1313 
Q 434 1759 690 2068 
Q 947 2378 1403 2484 
z
M 1172 3481 
Q 1172 3119 1398 2916 
Q 1625 2713 2034 2713 
Q 2441 2713 2670 2916 
Q 2900 3119 2900 3481 
Q 2900 3844 2670 4047 
Q 2441 4250 2034 4250 
Q 1625 4250 1398 4047 
Q 1172 3844 1172 3481 
z
" transform="scale(0.015625)"/>
     </defs>
     <use xlink:href="#DejaVuSans-43"/>
     <use xlink:href="#DejaVuSans-6f" x="69.824219"/>
     <use xlink:href="#DejaVuSans-72" x="131.005859"/>
     <use xlink:href="#DejaVuSans-72" x="170.369141"/>
     <use xlink:href="#DejaVuSans-65" x="209.232422"/>
     <use xlink:href="#DejaVuSans-6c" x="270.755859"/>
     <use xlink:href="#DejaVuSans-61" x="298.539062"/>
     <use xlink:href="#DejaVuSans-74" x="359.818359"/>
     <use xlink:href="#DejaVuSans-69" x="399.027344"/>
     <use xlink:href="#DejaVuSans-6f" x="426.810547"/>
     <use xlink:href="#DejaVuSans-6e" x="487.992188"/>
     <use xlink:href="#DejaVuSans-20" x="551.371094"/>
     <use xlink:href="#DejaVuSans-69" x="583.158203"/>
     <use xlink:href="#DejaVuSans-6e" x="610.941406"/>
     <use xlink:href="#DejaVuSans-3a" x="674.320312"/>
     <use xlink:href="#DejaVuSans-20" x="708.011719"/>
     <use xlink:href="#DejaVuSans-30" x="739.798828"/>
     <use xlink:href="#DejaVuSans-2e" x="803.421875"/>
     <use xlink:href="#DejaVuSans-38" x="835.208984"/>
     <use xlink:href="#DejaVuSans-38" x="898.832031"/>
     <use xlink:href="#DejaVuSans-33" x="962.455078"/>
    </g>
   </g>
  </g>
 </g>
 <defs>
  <clipPath id="pe9429b934c">
   <rect x="83.72" y="23.76" width="612.52" height="475.72"/>
  </clipPath>
 </defs>
</svg>
