<?xml version="1.0" encoding="utf-8" standalone="no"?>
<!DOCTYPE svg PUBLIC "-//W3C//DTD SVG 1.1//EN"
  "http://www.w3.org/Graphics/SVG/1.1/DTD/svg11.dtd">
<svg xmlns:xlink="http://www.w3.org/1999/xlink" width="720pt" height="576pt" viewBox="0 0 720 576" xmlns="http://www.w3.org/2000/svg" version="1.1">
 <metadata>
  <rdf:RDF xmlns:dc="http://purl.org/dc/elements/1.1/" xmlns:cc="http://creativecommons.org/ns#" xmlns:rdf="http://www.w3.org/1999/02/22-rdf-syntax-ns#">
   <cc:Work>
    <dc:type rdf:resource="http://purl.org/dc/dcmitype/StillImage"/>
    <dc:date>2024-12-07T17:29:44.983433</dc:date>
    <dc:format>image/svg+xml</dc:format>
    <dc:creator>
     <cc:Agent>
      <dc:title>Matplotlib v3.8.4, https://matplotlib.org/</dc:title>
     </cc:Agent>
    </dc:creator>
   </cc:Work>
  </rdf:RDF>
 </metadata>
 <defs>
  <style type="text/css">*{stroke-linejoin: round; stroke-linecap: butt}</style>
 </defs>
 <g id="figure_1">
  <g id="patch_1">
   <path d="M 0 576 
L 720 576 
L 720 0 
L 0 0 
z
" style="fill: #ffffff"/>
  </g>
  <g id="axes_1">
   <g id="patch_2">
    <path d="M 102.17 499.48 
L 682.2 499.48 
L 682.2 32.04 
L 102.17 32.04 
z
" style="fill: #ffffff"/>
   </g>
   <g id="QuadContourSet_1">
    <path d="M 226.022305 386.568102 
L 226.333139 386.346861 
L 226.022305 386.107819 
L 225.716347 386.346861 
z
M 235.487119 382.041662 
L 239.116991 379.444332 
L 244.951932 376.58202 
L 250.572772 372.541804 
L 254.416746 370.58236 
L 261.268153 365.639276 
L 263.88156 364.258695 
L 271.512964 358.736747 
L 273.346374 357.7345 
L 281.482574 351.834219 
L 282.811188 351.082905 
L 291.27939 344.931691 
L 292.276002 344.348444 
L 300.964682 338.029162 
L 301.740815 337.558695 
L 310.575737 331.126634 
L 311.205629 330.730831 
L 320.135503 324.224106 
L 320.670443 323.875479 
L 329.658216 317.321577 
L 330.135257 316.999111 
L 339.152751 310.419049 
L 339.600071 310.105536 
L 348.624625 303.516521 
L 349.064885 303.196825 
L 358.07713 296.613992 
L 358.529699 296.273828 
L 367.511898 289.711464 
L 367.994512 289.336377 
L 376.929033 282.808936 
L 377.459326 282.383199 
L 386.326877 275.906407 
L 386.92414 275.411533 
L 395.701363 269.003879 
L 396.388954 268.416341 
L 405.044811 262.101351 
L 405.853768 261.38892 
L 414.343883 255.198822 
L 415.318582 254.314562 
L 423.576277 248.296294 
L 424.783396 247.168744 
L 432.705594 241.393766 
L 434.248209 239.911155 
L 441.673781 234.491237 
L 443.713023 232.476852 
L 450.390738 227.588709 
L 453.177837 224.764046 
L 458.721095 220.686181 
L 462.642651 216.618292 
L 466.468136 213.783652 
L 472.107465 207.811601 
L 473.351603 206.881124 
L 481.34546 199.978595 
L 481.572279 199.758253 
L 490.390155 193.076067 
L 491.037092 192.437872 
L 499.321092 186.173539 
L 500.501906 184.997291 
L 508.088021 179.27101 
L 509.96672 177.394585 
L 516.638577 172.368482 
L 519.431534 169.59152 
L 524.922872 165.465954 
L 528.896348 161.553251 
L 532.89062 158.563425 
L 538.361162 153.233189 
L 540.471058 151.660897 
L 547.548513 144.758369 
L 547.825976 144.425556 
L 554.331396 137.85584 
L 557.290789 134.521305 
L 560.945349 130.953312 
L 557.290789 125.153462 
L 547.825976 130.953312 
L 547.825976 130.953312 
L 538.361162 137.659518 
L 538.092281 137.85584 
L 528.896348 144.595391 
L 528.676894 144.758369 
L 519.477479 151.660897 
L 519.431534 151.684614 
L 510.195077 158.563425 
L 509.96672 158.688305 
L 500.863264 165.465954 
L 500.501906 165.672883 
L 491.496851 172.368482 
L 491.037092 172.642118 
L 482.106992 179.27101 
L 481.572279 179.600274 
L 472.700675 186.173539 
L 472.107465 186.550632 
L 463.282964 193.076067 
L 462.642651 193.496086 
L 453.858825 199.978595 
L 453.177837 200.439896 
L 444.433912 206.881124 
L 443.713023 207.386079 
L 435.014671 213.783652 
L 434.248209 214.339568 
L 425.608293 220.686181 
L 424.783396 221.306396 
L 416.222964 227.588709 
L 415.318582 228.294159 
L 406.868648 234.491237 
L 405.853768 235.312955 
L 397.558552 241.393766 
L 396.388954 242.377064 
L 388.311575 248.296294 
L 386.92414 249.50779 
L 379.156293 255.198822 
L 377.459326 256.738271 
L 370.137585 262.101351 
L 367.994512 264.121759 
L 361.327973 269.003879 
L 358.529699 271.746242 
L 352.847637 275.906407 
L 349.064885 279.760925 
L 344.900684 282.808936 
L 339.600071 288.425532 
L 337.842668 289.711464 
L 330.225821 296.613992 
L 330.135257 296.695395 
L 320.953443 303.516521 
L 320.670443 303.780989 
L 311.71153 310.419049 
L 311.205629 310.910523 
L 302.533039 317.321577 
L 301.740815 318.121595 
L 293.468907 324.224106 
L 292.276002 325.476434 
L 284.60375 331.126634 
L 282.811188 333.083702 
L 276.085701 338.029162 
L 273.346374 341.14156 
L 268.185338 344.931691 
L 263.88156 350.025768 
L 261.416237 351.834219 
L 254.953771 358.736747 
L 254.416746 359.316957 
L 246.849753 365.639276 
L 244.951932 367.723921 
L 239.026781 372.541804 
L 235.487119 376.513927 
L 231.802826 379.444332 
z
M 272.21412 351.834219 
L 273.346374 350.813275 
L 274.24725 351.834219 
L 273.346374 352.487524 
z
M 278.907931 344.931691 
L 282.811188 341.209089 
L 285.646762 344.931691 
L 282.811188 346.991422 
z
M 285.832693 338.029162 
L 292.276002 331.377736 
L 292.514168 331.126634 
L 299.044008 324.224106 
L 301.740815 322.234565 
L 306.605937 317.321577 
L 311.205629 313.921339 
L 314.810726 310.419049 
L 320.670443 306.077323 
L 323.410678 303.516521 
L 330.135257 298.520863 
L 332.256739 296.613992 
L 339.600071 291.142528 
L 341.255601 289.711464 
L 349.064885 283.873757 
L 350.345872 282.808936 
L 358.529699 276.669476 
L 359.484329 275.906407 
L 367.994512 269.498129 
L 368.637583 269.003879 
L 377.459326 262.335759 
L 377.776622 262.101351 
L 386.679937 255.198822 
L 386.92414 255.01991 
L 394.624189 248.296294 
L 396.388954 247.003046 
L 403.060991 241.393766 
L 405.853768 239.34652 
L 411.850389 234.491237 
L 415.318582 231.947707 
L 420.906787 227.588709 
L 424.783396 224.743751 
L 430.180029 220.686181 
L 434.248209 217.697822 
L 439.644823 213.783652 
L 443.713023 210.791521 
L 449.295625 206.881124 
L 453.177837 204.021285 
L 459.145795 199.978595 
L 462.642651 197.397898 
L 469.231225 193.076067 
L 472.107465 190.94918 
L 479.620091 186.173539 
L 481.572279 184.727098 
L 490.432769 179.27101 
L 491.037092 178.822416 
L 492.983919 179.27101 
L 491.333749 186.173539 
L 491.037092 186.397869 
L 484.26742 193.076067 
L 481.572279 195.118445 
L 476.569271 199.978595 
L 472.107465 203.36914 
L 468.421988 206.881124 
L 462.642651 211.288401 
L 459.966703 213.783652 
L 453.177837 218.982617 
L 451.307878 220.686181 
L 443.713023 226.529771 
L 442.521702 227.588709 
L 434.248209 233.986208 
L 433.664975 234.491237 
L 424.783396 241.393766 
L 424.783396 241.393766 
L 417.393777 248.296294 
L 415.318582 249.808711 
L 409.377194 255.198822 
L 405.853768 257.767733 
L 400.932993 262.101351 
L 396.388954 265.416513 
L 392.190684 269.003879 
L 386.92414 272.848625 
L 383.233703 275.906407 
L 377.459326 280.123968 
L 374.114956 282.808936 
L 367.994512 287.28045 
L 364.866592 289.711464 
L 358.529699 294.341177 
L 355.505852 296.613992 
L 349.064885 301.318681 
L 346.038194 303.516521 
L 339.600071 308.217128 
L 336.458375 310.419049 
L 330.135257 315.033026 
L 326.749685 317.321577 
L 320.670443 321.754573 
L 316.881145 324.224106 
L 311.205629 328.359552 
L 306.802022 331.126634 
L 301.740815 334.811329 
L 296.432329 338.029162 
L 292.276002 341.052061 
z
M 566.755603 124.852905 
L 567.608178 124.050784 
L 566.755603 121.983398 
L 561.798843 124.050784 
z
" clip-path="url(#pd480ade6b3)" style="fill: #eaf2fb"/>
    <path d="M 273.346374 352.487524 
L 274.24725 351.834219 
L 273.346374 350.813275 
L 272.21412 351.834219 
z
M 282.811188 346.991422 
L 285.646762 344.931691 
L 282.811188 341.209089 
L 278.907931 344.931691 
z
M 292.276002 341.052061 
L 296.432329 338.029162 
L 301.740815 334.811329 
L 306.802022 331.126634 
L 311.205629 328.359552 
L 316.881145 324.224106 
L 320.670443 321.754573 
L 326.749685 317.321577 
L 330.135257 315.033026 
L 336.458375 310.419049 
L 339.600071 308.217128 
L 346.038194 303.516521 
L 349.064885 301.318681 
L 355.505852 296.613992 
L 358.529699 294.341177 
L 364.866592 289.711464 
L 367.994512 287.28045 
L 374.114956 282.808936 
L 377.459326 280.123968 
L 383.233703 275.906407 
L 386.92414 272.848625 
L 392.190684 269.003879 
L 396.388954 265.416513 
L 400.932993 262.101351 
L 405.853768 257.767733 
L 409.377194 255.198822 
L 415.318582 249.808711 
L 417.393777 248.296294 
L 424.783396 241.393766 
L 424.783396 241.393766 
L 433.664975 234.491237 
L 434.248209 233.986208 
L 442.521702 227.588709 
L 443.713023 226.529771 
L 451.307878 220.686181 
L 453.177837 218.982617 
L 459.966703 213.783652 
L 462.642651 211.288401 
L 468.421988 206.881124 
L 472.107465 203.36914 
L 476.569271 199.978595 
L 481.572279 195.118445 
L 484.26742 193.076067 
L 491.037092 186.397869 
L 491.333749 186.173539 
L 492.983919 179.27101 
L 491.037092 178.822416 
L 490.432769 179.27101 
L 481.572279 184.727098 
L 479.620091 186.173539 
L 472.107465 190.94918 
L 469.231225 193.076067 
L 462.642651 197.397898 
L 459.145795 199.978595 
L 453.177837 204.021285 
L 449.295625 206.881124 
L 443.713023 210.791521 
L 439.644823 213.783652 
L 434.248209 217.697822 
L 430.180029 220.686181 
L 424.783396 224.743751 
L 420.906787 227.588709 
L 415.318582 231.947707 
L 411.850389 234.491237 
L 405.853768 239.34652 
L 403.060991 241.393766 
L 396.388954 247.003046 
L 394.624189 248.296294 
L 386.92414 255.01991 
L 386.679937 255.198822 
L 377.776622 262.101351 
L 377.459326 262.335759 
L 368.637583 269.003879 
L 367.994512 269.498129 
L 359.484329 275.906407 
L 358.529699 276.669476 
L 350.345872 282.808936 
L 349.064885 283.873757 
L 341.255601 289.711464 
L 339.600071 291.142528 
L 332.256739 296.613992 
L 330.135257 298.520863 
L 323.410678 303.516521 
L 320.670443 306.077323 
L 314.810726 310.419049 
L 311.205629 313.921339 
L 306.605937 317.321577 
L 301.740815 322.234565 
L 299.044008 324.224106 
L 292.514168 331.126634 
L 292.276002 331.377736 
L 285.832693 338.029162 
z
M 290.47992 338.029162 
L 292.276002 336.175067 
L 293.434584 338.029162 
L 292.276002 338.8718 
z
M 297.064361 331.126634 
L 301.740815 325.654495 
L 304.306048 331.126634 
L 301.740815 332.994193 
z
M 303.07529 324.224106 
L 309.299794 317.321577 
L 311.205629 315.912723 
L 316.860566 310.419049 
L 320.670443 307.596141 
L 325.035918 303.516521 
L 330.135257 299.728246 
L 333.600008 296.613992 
L 339.600071 292.143389 
L 342.41345 289.711464 
L 349.064885 284.739289 
L 351.387112 282.808936 
L 358.529699 277.450608 
L 360.461557 275.906407 
L 367.994512 270.233995 
L 369.59502 269.003879 
L 377.459326 263.05946 
L 378.756225 262.101351 
L 386.92414 255.905449 
L 387.92008 255.198822 
L 396.388954 248.756274 
L 397.065268 248.296294 
L 405.853768 241.601356 
L 406.173333 241.393766 
L 415.145362 234.491237 
L 415.318582 234.3642 
L 424.004714 227.588709 
L 424.783396 227.017252 
L 433.203821 220.686181 
L 434.248209 219.919006 
L 442.707253 213.783652 
L 443.713023 213.043915 
L 452.511211 206.881124 
L 453.177837 206.390053 
L 462.642651 199.978595 
L 465.902848 206.881124 
L 462.642651 209.367325 
L 457.906509 213.783652 
L 453.177837 217.404905 
L 449.576063 220.686181 
L 443.713023 225.197287 
L 441.022638 227.588709 
L 434.248209 232.827053 
L 432.326322 234.491237 
L 424.783396 240.3534 
L 423.54731 241.393766 
L 415.318582 247.8208 
L 414.7355 248.296294 
L 406.092175 255.198822 
L 405.853768 255.372644 
L 398.213396 262.101351 
L 396.388954 263.432395 
L 389.868686 269.003879 
L 386.92414 271.153492 
L 381.187846 275.906407 
L 377.459326 278.62969 
L 372.253697 282.808936 
L 367.994512 285.920639 
L 363.116961 289.711464 
L 358.529699 293.062902 
L 353.805182 296.613992 
L 349.064885 300.076457 
L 344.327502 303.516521 
L 339.600071 306.968116 
L 334.676288 310.419049 
L 330.135257 313.732637 
L 324.825954 317.321577 
L 320.670443 320.351784 
L 314.728679 324.224106 
L 311.205629 326.791165 
z
M 462.642651 199.978595 
L 472.107465 195.800522 
L 473.410252 199.978595 
L 472.107465 200.968589 
z
" clip-path="url(#pd480ade6b3)" style="fill: #d3e3f3"/>
    <path d="M 292.276002 338.8718 
L 293.434584 338.029162 
L 292.276002 336.175067 
L 290.47992 338.029162 
z
M 301.740815 332.994193 
L 304.306048 331.126634 
L 301.740815 325.654495 
L 297.064361 331.126634 
z
M 300.283509 331.126634 
L 301.740815 329.421371 
L 302.54021 331.126634 
L 301.740815 331.708615 
z
M 311.205629 326.791165 
L 314.728679 324.224106 
L 320.670443 320.351784 
L 324.825954 317.321577 
L 330.135257 313.732637 
L 334.676288 310.419049 
L 339.600071 306.968116 
L 344.327502 303.516521 
L 349.064885 300.076457 
L 353.805182 296.613992 
L 358.529699 293.062902 
L 363.116961 289.711464 
L 367.994512 285.920639 
L 372.253697 282.808936 
L 377.459326 278.62969 
L 381.187846 275.906407 
L 386.92414 271.153492 
L 389.868686 269.003879 
L 396.388954 263.432395 
L 398.213396 262.101351 
L 405.853768 255.372644 
L 406.092175 255.198822 
L 414.7355 248.296294 
L 415.318582 247.8208 
L 423.54731 241.393766 
L 424.783396 240.3534 
L 432.326322 234.491237 
L 434.248209 232.827053 
L 441.022638 227.588709 
L 443.713023 225.197287 
L 449.576063 220.686181 
L 453.177837 217.404905 
L 457.906509 213.783652 
L 462.642651 209.367325 
L 465.902848 206.881124 
L 462.642651 199.978595 
L 453.177837 206.390053 
L 452.511211 206.881124 
L 443.713023 213.043915 
L 442.707253 213.783652 
L 434.248209 219.919006 
L 433.203821 220.686181 
L 424.783396 227.017252 
L 424.004714 227.588709 
L 415.318582 234.3642 
L 415.145362 234.491237 
L 406.173333 241.393766 
L 405.853768 241.601356 
L 397.065268 248.296294 
L 396.388954 248.756274 
L 387.92008 255.198822 
L 386.92414 255.905449 
L 378.756225 262.101351 
L 377.459326 263.05946 
L 369.59502 269.003879 
L 367.994512 270.233995 
L 360.461557 275.906407 
L 358.529699 277.450608 
L 351.387112 282.808936 
L 349.064885 284.739289 
L 342.41345 289.711464 
L 339.600071 292.143389 
L 333.600008 296.613992 
L 330.135257 299.728246 
L 325.035918 303.516521 
L 320.670443 307.596141 
L 316.860566 310.419049 
L 311.205629 315.912723 
L 309.299794 317.321577 
L 303.07529 324.224106 
z
M 306.589576 324.224106 
L 311.205629 317.321577 
L 313.205864 324.224106 
L 311.205629 325.68157 
z
M 311.205629 317.321577 
L 318.310776 310.419049 
L 320.670443 308.670666 
L 326.185734 303.516521 
L 330.135257 300.582439 
L 334.550338 296.613992 
L 339.600071 292.851472 
L 343.232598 289.711464 
L 349.064885 285.35163 
L 352.123763 282.808936 
L 358.529699 278.003239 
L 361.152922 275.906407 
L 367.994512 270.754601 
L 370.272383 269.003879 
L 377.459326 263.571461 
L 379.44927 262.101351 
L 386.92414 256.431169 
L 388.661045 255.198822 
L 396.388954 249.31995 
L 397.894048 248.296294 
L 405.853768 242.232707 
L 407.145235 241.393766 
L 415.318582 235.175692 
L 416.429005 234.491237 
L 424.783396 228.173544 
L 425.794955 227.588709 
L 434.248209 221.284999 
L 435.375497 220.686181 
L 443.713023 214.639512 
L 445.537102 213.783652 
L 453.177837 208.534614 
L 456.448974 213.783652 
L 453.177837 216.288714 
L 448.350847 220.686181 
L 443.713023 224.254589 
L 439.962089 227.588709 
L 434.248209 232.00698 
L 431.379258 234.491237 
L 424.783396 239.617367 
L 422.672811 241.393766 
L 415.318582 247.137774 
L 413.897928 248.296294 
L 405.853768 254.608962 
L 405.103884 255.198822 
L 396.388954 262.067258 
L 396.343742 262.101351 
L 388.22593 269.003879 
L 386.92414 269.954227 
L 379.740454 275.906407 
L 377.459326 277.572525 
L 370.936903 282.808936 
L 367.994512 284.958607 
L 361.87914 289.711464 
L 358.529699 292.158555 
L 352.602001 296.613992 
L 349.064885 299.197615 
L 343.11723 303.516521 
L 339.600071 306.084472 
L 333.415506 310.419049 
L 330.135257 312.812645 
L 323.464963 317.321577 
L 320.670443 319.359347 
z
M 457.533465 206.881124 
L 462.642651 203.751949 
L 464.120621 206.881124 
L 462.642651 208.008212 
z
M 472.107465 200.968589 
L 473.410252 199.978595 
L 472.107465 195.800522 
L 462.642651 199.978595 
z
" clip-path="url(#pd480ade6b3)" style="fill: #c2d9ee"/>
    <path d="M 301.740815 331.708615 
L 302.54021 331.126634 
L 301.740815 329.421371 
L 300.283509 331.126634 
z
M 311.205629 325.68157 
L 313.205864 324.224106 
L 311.205629 317.321577 
L 306.589576 324.224106 
z
M 320.670443 319.359347 
L 323.464963 317.321577 
L 330.135257 312.812645 
L 333.415506 310.419049 
L 339.600071 306.084472 
L 343.11723 303.516521 
L 349.064885 299.197615 
L 352.602001 296.613992 
L 358.529699 292.158555 
L 361.87914 289.711464 
L 367.994512 284.958607 
L 370.936903 282.808936 
L 377.459326 277.572525 
L 379.740454 275.906407 
L 386.92414 269.954227 
L 388.22593 269.003879 
L 396.343742 262.101351 
L 396.388954 262.067258 
L 405.103884 255.198822 
L 405.853768 254.608962 
L 413.897928 248.296294 
L 415.318582 247.137774 
L 422.672811 241.393766 
L 424.783396 239.617367 
L 431.379258 234.491237 
L 434.248209 232.00698 
L 439.962089 227.588709 
L 443.713023 224.254589 
L 448.350847 220.686181 
L 453.177837 216.288714 
L 456.448974 213.783652 
L 453.177837 208.534614 
L 445.537102 213.783652 
L 443.713023 214.639512 
L 435.375497 220.686181 
L 434.248209 221.284999 
L 425.794955 227.588709 
L 424.783396 228.173544 
L 416.429005 234.491237 
L 415.318582 235.175692 
L 407.145235 241.393766 
L 405.853768 242.232707 
L 397.894048 248.296294 
L 396.388954 249.31995 
L 388.661045 255.198822 
L 386.92414 256.431169 
L 379.44927 262.101351 
L 377.459326 263.571461 
L 370.272383 269.003879 
L 367.994512 270.754601 
L 361.152922 275.906407 
L 358.529699 278.003239 
L 352.123763 282.808936 
L 349.064885 285.35163 
L 343.232598 289.711464 
L 339.600071 292.851472 
L 334.550338 296.613992 
L 330.135257 300.582439 
L 326.185734 303.516521 
L 320.670443 308.670666 
L 318.310776 310.419049 
L 311.205629 317.321577 
z
M 324.809092 310.419049 
L 328.546649 303.516521 
L 330.135257 302.336351 
L 336.501647 296.613992 
L 339.600071 294.305378 
L 344.914553 289.711464 
L 349.064885 286.608949 
L 353.636326 282.808936 
L 358.529699 279.137956 
L 362.572498 275.906407 
L 367.994512 271.823561 
L 371.66321 269.003879 
L 377.459326 264.622749 
L 380.872296 262.101351 
L 386.92414 257.510628 
L 390.182466 255.198822 
L 396.388954 250.477344 
L 399.595778 248.296294 
L 405.853768 243.529058 
L 409.140837 241.393766 
L 415.318582 236.693895 
L 418.892059 234.491237 
L 424.783396 230.036136 
L 429.016585 227.588709 
L 434.248209 223.687414 
L 437.784465 227.588709 
L 434.248209 230.323127 
L 429.434656 234.491237 
L 424.783396 238.106074 
L 420.877204 241.393766 
L 415.318582 245.735318 
L 412.178145 248.296294 
L 405.853768 253.259359 
L 403.388145 255.198822 
L 396.388954 260.715045 
L 394.550488 262.101351 
L 386.92414 268.132971 
L 385.708611 269.003879 
L 377.459326 275.541749 
L 376.916368 275.906407 
L 368.233134 282.808936 
L 367.994512 282.98327 
L 359.337528 289.711464 
L 358.529699 290.301661 
L 350.131513 296.613992 
L 349.064885 297.393092 
L 340.632183 303.516521 
L 339.600071 304.270087 
L 330.826746 310.419049 
L 330.135257 310.923628 
z
M 439.898087 220.686181 
L 443.713023 217.919454 
L 445.835116 220.686181 
L 443.713023 222.318949 
z
M 452.527587 213.783652 
L 453.177837 213.336942 
L 453.456221 213.783652 
L 453.177837 213.996841 
z
M 462.642651 208.008212 
L 464.120621 206.881124 
L 462.642651 203.751949 
L 457.533465 206.881124 
z
" clip-path="url(#pd480ade6b3)" style="fill: #a1cbe2"/>
    <path d="M 330.135257 310.923628 
L 330.826746 310.419049 
L 339.600071 304.270087 
L 340.632183 303.516521 
L 349.064885 297.393092 
L 350.131513 296.613992 
L 358.529699 290.301661 
L 359.337528 289.711464 
L 367.994512 282.98327 
L 368.233134 282.808936 
L 376.916368 275.906407 
L 377.459326 275.541749 
L 385.708611 269.003879 
L 386.92414 268.132971 
L 394.550488 262.101351 
L 396.388954 260.715045 
L 403.388145 255.198822 
L 405.853768 253.259359 
L 412.178145 248.296294 
L 415.318582 245.735318 
L 420.877204 241.393766 
L 424.783396 238.106074 
L 429.434656 234.491237 
L 434.248209 230.323127 
L 437.784465 227.588709 
L 434.248209 223.687414 
L 429.016585 227.588709 
L 424.783396 230.036136 
L 418.892059 234.491237 
L 415.318582 236.693895 
L 409.140837 241.393766 
L 405.853768 243.529058 
L 399.595778 248.296294 
L 396.388954 250.477344 
L 390.182466 255.198822 
L 386.92414 257.510628 
L 380.872296 262.101351 
L 377.459326 264.622749 
L 371.66321 269.003879 
L 367.994512 271.823561 
L 362.572498 275.906407 
L 358.529699 279.137956 
L 353.636326 282.808936 
L 349.064885 286.608949 
L 344.914553 289.711464 
L 339.600071 294.305378 
L 336.501647 296.613992 
L 330.135257 302.336351 
L 328.546649 303.516521 
L 324.809092 310.419049 
z
M 329.565969 303.516521 
L 330.135257 303.093599 
L 338.996679 303.516521 
L 330.135257 307.61841 
z
M 337.34412 296.613992 
L 339.600071 294.9331 
L 349.064885 296.613992 
L 339.600071 303.419865 
z
M 345.640735 289.711464 
L 349.064885 287.151795 
L 354.289372 282.808936 
L 358.529699 279.627867 
L 363.185398 275.906407 
L 367.994512 272.285082 
L 372.263697 269.003879 
L 377.459326 265.076641 
L 381.486685 262.101351 
L 386.92414 257.976683 
L 390.839336 255.198822 
L 396.388954 250.977047 
L 400.330498 248.296294 
L 405.853768 244.088756 
L 410.002435 241.393766 
L 415.318582 237.349377 
L 419.955478 234.491237 
L 424.783396 230.840306 
L 428.595078 234.491237 
L 424.783396 237.453576 
L 420.101954 241.393766 
L 415.318582 245.129811 
L 411.435631 248.296294 
L 405.853768 252.67667 
L 402.647377 255.198822 
L 396.388954 260.131229 
L 393.776254 262.101351 
L 386.92414 267.520635 
L 384.853972 269.003879 
L 377.459326 274.864415 
L 375.907849 275.906407 
L 367.994512 282.173492 
L 366.961401 282.808936 
L 358.529699 289.441953 
L 358.028188 289.711464 
L 349.064885 296.613992 
z
M 430.407518 227.588709 
L 434.248209 224.724652 
L 436.84428 227.588709 
L 434.248209 229.596127 
z
M 443.713023 222.318949 
L 445.835116 220.686181 
L 443.713023 217.919454 
L 439.898087 220.686181 
z
M 441.850707 220.686181 
L 443.713023 219.335563 
L 444.748953 220.686181 
L 443.713023 221.48324 
z
M 453.177837 213.996841 
L 453.456221 213.783652 
L 453.177837 213.336942 
L 452.527587 213.783652 
z
" clip-path="url(#pd480ade6b3)" style="fill: #7cb7da"/>
    <path d="M 330.135257 307.61841 
L 338.996679 303.516521 
L 330.135257 303.093599 
L 329.565969 303.516521 
z
M 339.600071 303.419865 
L 349.064885 296.613992 
L 339.600071 294.9331 
L 337.34412 296.613992 
z
M 349.064885 296.613992 
L 358.028188 289.711464 
L 358.529699 289.441953 
L 366.961401 282.808936 
L 367.994512 282.173492 
L 375.907849 275.906407 
L 377.459326 274.864415 
L 384.853972 269.003879 
L 386.92414 267.520635 
L 393.776254 262.101351 
L 396.388954 260.131229 
L 402.647377 255.198822 
L 405.853768 252.67667 
L 411.435631 248.296294 
L 415.318582 245.129811 
L 420.101954 241.393766 
L 424.783396 237.453576 
L 428.595078 234.491237 
L 424.783396 230.840306 
L 419.955478 234.491237 
L 415.318582 237.349377 
L 410.002435 241.393766 
L 405.853768 244.088756 
L 400.330498 248.296294 
L 396.388954 250.977047 
L 390.839336 255.198822 
L 386.92414 257.976683 
L 381.486685 262.101351 
L 377.459326 265.076641 
L 372.263697 269.003879 
L 367.994512 272.285082 
L 363.185398 275.906407 
L 358.529699 279.627867 
L 354.289372 282.808936 
L 349.064885 287.151795 
L 345.640735 289.711464 
z
M 347.64589 289.711464 
L 349.064885 288.650717 
L 352.779347 289.711464 
L 349.064885 292.571925 
z
M 356.092586 282.808936 
L 358.529699 280.980628 
L 363.37579 282.808936 
L 358.529699 286.621239 
z
M 364.877757 275.906407 
L 367.994512 273.55945 
L 373.123094 275.906407 
L 367.994512 279.968064 
z
M 373.921782 269.003879 
L 377.459326 266.329944 
L 382.494113 269.003879 
L 377.459326 272.994138 
z
M 383.183157 262.101351 
L 386.92414 259.263568 
L 391.638412 262.101351 
L 386.92414 265.829832 
z
M 392.65311 255.198822 
L 396.388954 252.356844 
L 400.601946 255.198822 
L 396.388954 258.519178 
z
M 402.359229 248.296294 
L 405.853768 245.634211 
L 409.385378 248.296294 
L 405.853768 251.067731 
z
M 412.381507 241.393766 
L 415.318582 239.159314 
L 417.961308 241.393766 
L 415.318582 243.457862 
z
M 422.891827 234.491237 
L 424.783396 233.060809 
L 426.276805 234.491237 
L 424.783396 235.651876 
z
M 434.248209 229.596127 
L 436.84428 227.588709 
L 434.248209 224.724652 
L 430.407518 227.588709 
z
M 443.713023 221.48324 
L 444.748953 220.686181 
L 443.713023 219.335563 
L 441.850707 220.686181 
z
" clip-path="url(#pd480ade6b3)" style="fill: #549fcd"/>
    <path d="M 349.064885 292.571925 
L 352.779347 289.711464 
L 349.064885 288.650717 
L 347.64589 289.711464 
z
M 358.529699 286.621239 
L 363.37579 282.808936 
L 358.529699 280.980628 
L 356.092586 282.808936 
z
M 367.994512 279.968064 
L 373.123094 275.906407 
L 367.994512 273.55945 
L 364.877757 275.906407 
z
M 367.165045 275.906407 
L 367.994512 275.281808 
L 369.35939 275.906407 
L 367.994512 276.987342 
z
M 377.459326 272.994138 
L 382.494113 269.003879 
L 377.459326 266.329944 
L 373.921782 269.003879 
z
M 376.162748 269.003879 
L 377.459326 268.02383 
L 379.304674 269.003879 
L 377.459326 270.466386 
z
M 386.92414 265.829832 
L 391.638412 262.101351 
L 386.92414 259.263568 
L 383.183157 262.101351 
z
M 385.476004 262.101351 
L 386.92414 261.002844 
L 388.749037 262.101351 
L 386.92414 263.544648 
z
M 396.388954 258.519178 
L 400.601946 255.198822 
L 396.388954 252.356844 
L 392.65311 255.198822 
z
M 395.104494 255.198822 
L 396.388954 254.221692 
L 397.837467 255.198822 
L 396.388954 256.340428 
z
M 405.853768 251.067731 
L 409.385378 248.296294 
L 405.853768 245.634211 
L 402.359229 248.296294 
z
M 405.101138 248.296294 
L 405.853768 247.722952 
L 406.614382 248.296294 
L 405.853768 248.893187 
z
M 415.318582 243.457862 
L 417.961308 241.393766 
L 415.318582 239.159314 
L 412.381507 241.393766 
z
M 424.783396 235.651876 
L 426.276805 234.491237 
L 424.783396 233.060809 
L 422.891827 234.491237 
z
" clip-path="url(#pd480ade6b3)" style="fill: #206fb4"/>
    <path d="M 367.994512 276.987342 
L 369.35939 275.906407 
L 367.994512 275.281808 
L 367.165045 275.906407 
z
M 377.459326 270.466386 
L 379.304674 269.003879 
L 377.459326 268.02383 
L 376.162748 269.003879 
z
M 377.336953 269.003879 
L 377.459326 268.91138 
L 377.633493 269.003879 
L 377.459326 269.141913 
z
M 386.92414 263.544648 
L 388.749037 262.101351 
L 386.92414 261.002844 
L 385.476004 262.101351 
z
M 386.677394 262.101351 
L 386.92414 261.914177 
L 387.235082 262.101351 
L 386.92414 262.347272 
z
M 396.388954 256.340428 
L 397.837467 255.198822 
L 396.388954 254.221692 
L 395.104494 255.198822 
z
M 405.853768 248.893187 
L 406.614382 248.296294 
L 405.853768 247.722952 
L 405.101138 248.296294 
z
" clip-path="url(#pd480ade6b3)" style="fill: #08458a"/>
    <path d="M 377.459326 269.141913 
L 377.633493 269.003879 
L 377.459326 268.91138 
L 377.336953 269.003879 
z
M 386.92414 262.347272 
L 387.235082 262.101351 
L 386.92414 261.914177 
L 386.677394 262.101351 
z
" clip-path="url(#pd480ade6b3)" style="fill: #08326e"/>
   </g>
   <g id="matplotlib.axis_1">
    <g id="xtick_1">
     <g id="line2d_1">
      <defs>
       <path id="mbbabc51984" d="M 0 0 
L 0 3.5 
" style="stroke: #000000; stroke-width: 0.8"/>
      </defs>
      <g>
       <use xlink:href="#mbbabc51984" x="102.17" y="499.48" style="stroke: #000000; stroke-width: 0.8"/>
      </g>
     </g>
     <g id="text_1">
      <!-- −80 -->
      <g transform="translate(78.954844 523.196563) scale(0.22 -0.22)">
       <defs>
        <path id="DejaVuSans-2212" d="M 678 2272 
L 4684 2272 
L 4684 1741 
L 678 1741 
L 678 2272 
z
" transform="scale(0.015625)"/>
        <path id="DejaVuSans-38" d="M 2034 2216 
Q 1584 2216 1326 1975 
Q 1069 1734 1069 1313 
Q 1069 891 1326 650 
Q 1584 409 2034 409 
Q 2484 409 2743 651 
Q 3003 894 3003 1313 
Q 3003 1734 2745 1975 
Q 2488 2216 2034 2216 
z
M 1403 2484 
Q 997 2584 770 2862 
Q 544 3141 544 3541 
Q 544 4100 942 4425 
Q 1341 4750 2034 4750 
Q 2731 4750 3128 4425 
Q 3525 4100 3525 3541 
Q 3525 3141 3298 2862 
Q 3072 2584 2669 2484 
Q 3125 2378 3379 2068 
Q 3634 1759 3634 1313 
Q 3634 634 3220 271 
Q 2806 -91 2034 -91 
Q 1263 -91 848 271 
Q 434 634 434 1313 
Q 434 1759 690 2068 
Q 947 2378 1403 2484 
z
M 1172 3481 
Q 1172 3119 1398 2916 
Q 1625 2713 2034 2713 
Q 2441 2713 2670 2916 
Q 2900 3119 2900 3481 
Q 2900 3844 2670 4047 
Q 2441 4250 2034 4250 
Q 1625 4250 1398 4047 
Q 1172 3844 1172 3481 
z
" transform="scale(0.015625)"/>
        <path id="DejaVuSans-30" d="M 2034 4250 
Q 1547 4250 1301 3770 
Q 1056 3291 1056 2328 
Q 1056 1369 1301 889 
Q 1547 409 2034 409 
Q 2525 409 2770 889 
Q 3016 1369 3016 2328 
Q 3016 3291 2770 3770 
Q 2525 4250 2034 4250 
z
M 2034 4750 
Q 2819 4750 3233 4129 
Q 3647 3509 3647 2328 
Q 3647 1150 3233 529 
Q 2819 -91 2034 -91 
Q 1250 -91 836 529 
Q 422 1150 422 2328 
Q 422 3509 836 4129 
Q 1250 4750 2034 4750 
z
" transform="scale(0.015625)"/>
       </defs>
       <use xlink:href="#DejaVuSans-2212"/>
       <use xlink:href="#DejaVuSans-38" x="83.789062"/>
       <use xlink:href="#DejaVuSans-30" x="147.412109"/>
      </g>
     </g>
    </g>
    <g id="xtick_2">
     <g id="line2d_2">
      <g>
       <use xlink:href="#mbbabc51984" x="174.67375" y="499.48" style="stroke: #000000; stroke-width: 0.8"/>
      </g>
     </g>
     <g id="text_2">
      <!-- −60 -->
      <g transform="translate(151.458594 523.196563) scale(0.22 -0.22)">
       <defs>
        <path id="DejaVuSans-36" d="M 2113 2584 
Q 1688 2584 1439 2293 
Q 1191 2003 1191 1497 
Q 1191 994 1439 701 
Q 1688 409 2113 409 
Q 2538 409 2786 701 
Q 3034 994 3034 1497 
Q 3034 2003 2786 2293 
Q 2538 2584 2113 2584 
z
M 3366 4563 
L 3366 3988 
Q 3128 4100 2886 4159 
Q 2644 4219 2406 4219 
Q 1781 4219 1451 3797 
Q 1122 3375 1075 2522 
Q 1259 2794 1537 2939 
Q 1816 3084 2150 3084 
Q 2853 3084 3261 2657 
Q 3669 2231 3669 1497 
Q 3669 778 3244 343 
Q 2819 -91 2113 -91 
Q 1303 -91 875 529 
Q 447 1150 447 2328 
Q 447 3434 972 4092 
Q 1497 4750 2381 4750 
Q 2619 4750 2861 4703 
Q 3103 4656 3366 4563 
z
" transform="scale(0.015625)"/>
       </defs>
       <use xlink:href="#DejaVuSans-2212"/>
       <use xlink:href="#DejaVuSans-36" x="83.789062"/>
       <use xlink:href="#DejaVuSans-30" x="147.412109"/>
      </g>
     </g>
    </g>
    <g id="xtick_3">
     <g id="line2d_3">
      <g>
       <use xlink:href="#mbbabc51984" x="247.1775" y="499.48" style="stroke: #000000; stroke-width: 0.8"/>
      </g>
     </g>
     <g id="text_3">
      <!-- −40 -->
      <g transform="translate(223.962344 523.196563) scale(0.22 -0.22)">
       <defs>
        <path id="DejaVuSans-34" d="M 2419 4116 
L 825 1625 
L 2419 1625 
L 2419 4116 
z
M 2253 4666 
L 3047 4666 
L 3047 1625 
L 3713 1625 
L 3713 1100 
L 3047 1100 
L 3047 0 
L 2419 0 
L 2419 1100 
L 313 1100 
L 313 1709 
L 2253 4666 
z
" transform="scale(0.015625)"/>
       </defs>
       <use xlink:href="#DejaVuSans-2212"/>
       <use xlink:href="#DejaVuSans-34" x="83.789062"/>
       <use xlink:href="#DejaVuSans-30" x="147.412109"/>
      </g>
     </g>
    </g>
    <g id="xtick_4">
     <g id="line2d_4">
      <g>
       <use xlink:href="#mbbabc51984" x="319.68125" y="499.48" style="stroke: #000000; stroke-width: 0.8"/>
      </g>
     </g>
     <g id="text_4">
      <!-- −20 -->
      <g transform="translate(296.466094 523.196563) scale(0.22 -0.22)">
       <defs>
        <path id="DejaVuSans-32" d="M 1228 531 
L 3431 531 
L 3431 0 
L 469 0 
L 469 531 
Q 828 903 1448 1529 
Q 2069 2156 2228 2338 
Q 2531 2678 2651 2914 
Q 2772 3150 2772 3378 
Q 2772 3750 2511 3984 
Q 2250 4219 1831 4219 
Q 1534 4219 1204 4116 
Q 875 4013 500 3803 
L 500 4441 
Q 881 4594 1212 4672 
Q 1544 4750 1819 4750 
Q 2544 4750 2975 4387 
Q 3406 4025 3406 3419 
Q 3406 3131 3298 2873 
Q 3191 2616 2906 2266 
Q 2828 2175 2409 1742 
Q 1991 1309 1228 531 
z
" transform="scale(0.015625)"/>
       </defs>
       <use xlink:href="#DejaVuSans-2212"/>
       <use xlink:href="#DejaVuSans-32" x="83.789062"/>
       <use xlink:href="#DejaVuSans-30" x="147.412109"/>
      </g>
     </g>
    </g>
    <g id="xtick_5">
     <g id="line2d_5">
      <g>
       <use xlink:href="#mbbabc51984" x="392.185" y="499.48" style="stroke: #000000; stroke-width: 0.8"/>
      </g>
     </g>
     <g id="text_5">
      <!-- 0 -->
      <g transform="translate(385.18625 523.196563) scale(0.22 -0.22)">
       <use xlink:href="#DejaVuSans-30"/>
      </g>
     </g>
    </g>
    <g id="xtick_6">
     <g id="line2d_6">
      <g>
       <use xlink:href="#mbbabc51984" x="464.68875" y="499.48" style="stroke: #000000; stroke-width: 0.8"/>
      </g>
     </g>
     <g id="text_6">
      <!-- 20 -->
      <g transform="translate(450.69125 523.196563) scale(0.22 -0.22)">
       <use xlink:href="#DejaVuSans-32"/>
       <use xlink:href="#DejaVuSans-30" x="63.623047"/>
      </g>
     </g>
    </g>
    <g id="xtick_7">
     <g id="line2d_7">
      <g>
       <use xlink:href="#mbbabc51984" x="537.1925" y="499.48" style="stroke: #000000; stroke-width: 0.8"/>
      </g>
     </g>
     <g id="text_7">
      <!-- 40 -->
      <g transform="translate(523.195 523.196563) scale(0.22 -0.22)">
       <use xlink:href="#DejaVuSans-34"/>
       <use xlink:href="#DejaVuSans-30" x="63.623047"/>
      </g>
     </g>
    </g>
    <g id="xtick_8">
     <g id="line2d_8">
      <g>
       <use xlink:href="#mbbabc51984" x="609.69625" y="499.48" style="stroke: #000000; stroke-width: 0.8"/>
      </g>
     </g>
     <g id="text_8">
      <!-- 60 -->
      <g transform="translate(595.69875 523.196563) scale(0.22 -0.22)">
       <use xlink:href="#DejaVuSans-36"/>
       <use xlink:href="#DejaVuSans-30" x="63.623047"/>
      </g>
     </g>
    </g>
    <g id="xtick_9">
     <g id="line2d_9">
      <g>
       <use xlink:href="#mbbabc51984" x="682.2" y="499.48" style="stroke: #000000; stroke-width: 0.8"/>
      </g>
     </g>
     <g id="text_9">
      <!-- 80 -->
      <g transform="translate(668.2025 523.196563) scale(0.22 -0.22)">
       <use xlink:href="#DejaVuSans-38"/>
       <use xlink:href="#DejaVuSans-30" x="63.623047"/>
      </g>
     </g>
    </g>
    <g id="text_10">
     <!-- Ground Truth Energy [kJ/mol] -->
     <g transform="translate(232.45125 548.488438) scale(0.22 -0.22)">
      <defs>
       <path id="DejaVuSans-47" d="M 3809 666 
L 3809 1919 
L 2778 1919 
L 2778 2438 
L 4434 2438 
L 4434 434 
Q 4069 175 3628 42 
Q 3188 -91 2688 -91 
Q 1594 -91 976 548 
Q 359 1188 359 2328 
Q 359 3472 976 4111 
Q 1594 4750 2688 4750 
Q 3144 4750 3555 4637 
Q 3966 4525 4313 4306 
L 4313 3634 
Q 3963 3931 3569 4081 
Q 3175 4231 2741 4231 
Q 1884 4231 1454 3753 
Q 1025 3275 1025 2328 
Q 1025 1384 1454 906 
Q 1884 428 2741 428 
Q 3075 428 3337 486 
Q 3600 544 3809 666 
z
" transform="scale(0.015625)"/>
       <path id="DejaVuSans-72" d="M 2631 2963 
Q 2534 3019 2420 3045 
Q 2306 3072 2169 3072 
Q 1681 3072 1420 2755 
Q 1159 2438 1159 1844 
L 1159 0 
L 581 0 
L 581 3500 
L 1159 3500 
L 1159 2956 
Q 1341 3275 1631 3429 
Q 1922 3584 2338 3584 
Q 2397 3584 2469 3576 
Q 2541 3569 2628 3553 
L 2631 2963 
z
" transform="scale(0.015625)"/>
       <path id="DejaVuSans-6f" d="M 1959 3097 
Q 1497 3097 1228 2736 
Q 959 2375 959 1747 
Q 959 1119 1226 758 
Q 1494 397 1959 397 
Q 2419 397 2687 759 
Q 2956 1122 2956 1747 
Q 2956 2369 2687 2733 
Q 2419 3097 1959 3097 
z
M 1959 3584 
Q 2709 3584 3137 3096 
Q 3566 2609 3566 1747 
Q 3566 888 3137 398 
Q 2709 -91 1959 -91 
Q 1206 -91 779 398 
Q 353 888 353 1747 
Q 353 2609 779 3096 
Q 1206 3584 1959 3584 
z
" transform="scale(0.015625)"/>
       <path id="DejaVuSans-75" d="M 544 1381 
L 544 3500 
L 1119 3500 
L 1119 1403 
Q 1119 906 1312 657 
Q 1506 409 1894 409 
Q 2359 409 2629 706 
Q 2900 1003 2900 1516 
L 2900 3500 
L 3475 3500 
L 3475 0 
L 2900 0 
L 2900 538 
Q 2691 219 2414 64 
Q 2138 -91 1772 -91 
Q 1169 -91 856 284 
Q 544 659 544 1381 
z
M 1991 3584 
L 1991 3584 
z
" transform="scale(0.015625)"/>
       <path id="DejaVuSans-6e" d="M 3513 2113 
L 3513 0 
L 2938 0 
L 2938 2094 
Q 2938 2591 2744 2837 
Q 2550 3084 2163 3084 
Q 1697 3084 1428 2787 
Q 1159 2491 1159 1978 
L 1159 0 
L 581 0 
L 581 3500 
L 1159 3500 
L 1159 2956 
Q 1366 3272 1645 3428 
Q 1925 3584 2291 3584 
Q 2894 3584 3203 3211 
Q 3513 2838 3513 2113 
z
" transform="scale(0.015625)"/>
       <path id="DejaVuSans-64" d="M 2906 2969 
L 2906 4863 
L 3481 4863 
L 3481 0 
L 2906 0 
L 2906 525 
Q 2725 213 2448 61 
Q 2172 -91 1784 -91 
Q 1150 -91 751 415 
Q 353 922 353 1747 
Q 353 2572 751 3078 
Q 1150 3584 1784 3584 
Q 2172 3584 2448 3432 
Q 2725 3281 2906 2969 
z
M 947 1747 
Q 947 1113 1208 752 
Q 1469 391 1925 391 
Q 2381 391 2643 752 
Q 2906 1113 2906 1747 
Q 2906 2381 2643 2742 
Q 2381 3103 1925 3103 
Q 1469 3103 1208 2742 
Q 947 2381 947 1747 
z
" transform="scale(0.015625)"/>
       <path id="DejaVuSans-20" transform="scale(0.015625)"/>
       <path id="DejaVuSans-54" d="M -19 4666 
L 3928 4666 
L 3928 4134 
L 2272 4134 
L 2272 0 
L 1638 0 
L 1638 4134 
L -19 4134 
L -19 4666 
z
" transform="scale(0.015625)"/>
       <path id="DejaVuSans-74" d="M 1172 4494 
L 1172 3500 
L 2356 3500 
L 2356 3053 
L 1172 3053 
L 1172 1153 
Q 1172 725 1289 603 
Q 1406 481 1766 481 
L 2356 481 
L 2356 0 
L 1766 0 
Q 1100 0 847 248 
Q 594 497 594 1153 
L 594 3053 
L 172 3053 
L 172 3500 
L 594 3500 
L 594 4494 
L 1172 4494 
z
" transform="scale(0.015625)"/>
       <path id="DejaVuSans-68" d="M 3513 2113 
L 3513 0 
L 2938 0 
L 2938 2094 
Q 2938 2591 2744 2837 
Q 2550 3084 2163 3084 
Q 1697 3084 1428 2787 
Q 1159 2491 1159 1978 
L 1159 0 
L 581 0 
L 581 4863 
L 1159 4863 
L 1159 2956 
Q 1366 3272 1645 3428 
Q 1925 3584 2291 3584 
Q 2894 3584 3203 3211 
Q 3513 2838 3513 2113 
z
" transform="scale(0.015625)"/>
       <path id="DejaVuSans-45" d="M 628 4666 
L 3578 4666 
L 3578 4134 
L 1259 4134 
L 1259 2753 
L 3481 2753 
L 3481 2222 
L 1259 2222 
L 1259 531 
L 3634 531 
L 3634 0 
L 628 0 
L 628 4666 
z
" transform="scale(0.015625)"/>
       <path id="DejaVuSans-65" d="M 3597 1894 
L 3597 1613 
L 953 1613 
Q 991 1019 1311 708 
Q 1631 397 2203 397 
Q 2534 397 2845 478 
Q 3156 559 3463 722 
L 3463 178 
Q 3153 47 2828 -22 
Q 2503 -91 2169 -91 
Q 1331 -91 842 396 
Q 353 884 353 1716 
Q 353 2575 817 3079 
Q 1281 3584 2069 3584 
Q 2775 3584 3186 3129 
Q 3597 2675 3597 1894 
z
M 3022 2063 
Q 3016 2534 2758 2815 
Q 2500 3097 2075 3097 
Q 1594 3097 1305 2825 
Q 1016 2553 972 2059 
L 3022 2063 
z
" transform="scale(0.015625)"/>
       <path id="DejaVuSans-67" d="M 2906 1791 
Q 2906 2416 2648 2759 
Q 2391 3103 1925 3103 
Q 1463 3103 1205 2759 
Q 947 2416 947 1791 
Q 947 1169 1205 825 
Q 1463 481 1925 481 
Q 2391 481 2648 825 
Q 2906 1169 2906 1791 
z
M 3481 434 
Q 3481 -459 3084 -895 
Q 2688 -1331 1869 -1331 
Q 1566 -1331 1297 -1286 
Q 1028 -1241 775 -1147 
L 775 -588 
Q 1028 -725 1275 -790 
Q 1522 -856 1778 -856 
Q 2344 -856 2625 -561 
Q 2906 -266 2906 331 
L 2906 616 
Q 2728 306 2450 153 
Q 2172 0 1784 0 
Q 1141 0 747 490 
Q 353 981 353 1791 
Q 353 2603 747 3093 
Q 1141 3584 1784 3584 
Q 2172 3584 2450 3431 
Q 2728 3278 2906 2969 
L 2906 3500 
L 3481 3500 
L 3481 434 
z
" transform="scale(0.015625)"/>
       <path id="DejaVuSans-79" d="M 2059 -325 
Q 1816 -950 1584 -1140 
Q 1353 -1331 966 -1331 
L 506 -1331 
L 506 -850 
L 844 -850 
Q 1081 -850 1212 -737 
Q 1344 -625 1503 -206 
L 1606 56 
L 191 3500 
L 800 3500 
L 1894 763 
L 2988 3500 
L 3597 3500 
L 2059 -325 
z
" transform="scale(0.015625)"/>
       <path id="DejaVuSans-5b" d="M 550 4863 
L 1875 4863 
L 1875 4416 
L 1125 4416 
L 1125 -397 
L 1875 -397 
L 1875 -844 
L 550 -844 
L 550 4863 
z
" transform="scale(0.015625)"/>
       <path id="DejaVuSans-6b" d="M 581 4863 
L 1159 4863 
L 1159 1991 
L 2875 3500 
L 3609 3500 
L 1753 1863 
L 3688 0 
L 2938 0 
L 1159 1709 
L 1159 0 
L 581 0 
L 581 4863 
z
" transform="scale(0.015625)"/>
       <path id="DejaVuSans-4a" d="M 628 4666 
L 1259 4666 
L 1259 325 
Q 1259 -519 939 -900 
Q 619 -1281 -91 -1281 
L -331 -1281 
L -331 -750 
L -134 -750 
Q 284 -750 456 -515 
Q 628 -281 628 325 
L 628 4666 
z
" transform="scale(0.015625)"/>
       <path id="DejaVuSans-2f" d="M 1625 4666 
L 2156 4666 
L 531 -594 
L 0 -594 
L 1625 4666 
z
" transform="scale(0.015625)"/>
       <path id="DejaVuSans-6d" d="M 3328 2828 
Q 3544 3216 3844 3400 
Q 4144 3584 4550 3584 
Q 5097 3584 5394 3201 
Q 5691 2819 5691 2113 
L 5691 0 
L 5113 0 
L 5113 2094 
Q 5113 2597 4934 2840 
Q 4756 3084 4391 3084 
Q 3944 3084 3684 2787 
Q 3425 2491 3425 1978 
L 3425 0 
L 2847 0 
L 2847 2094 
Q 2847 2600 2669 2842 
Q 2491 3084 2119 3084 
Q 1678 3084 1418 2786 
Q 1159 2488 1159 1978 
L 1159 0 
L 581 0 
L 581 3500 
L 1159 3500 
L 1159 2956 
Q 1356 3278 1631 3431 
Q 1906 3584 2284 3584 
Q 2666 3584 2933 3390 
Q 3200 3197 3328 2828 
z
" transform="scale(0.015625)"/>
       <path id="DejaVuSans-6c" d="M 603 4863 
L 1178 4863 
L 1178 0 
L 603 0 
L 603 4863 
z
" transform="scale(0.015625)"/>
       <path id="DejaVuSans-5d" d="M 1947 4863 
L 1947 -844 
L 622 -844 
L 622 -397 
L 1369 -397 
L 1369 4416 
L 622 4416 
L 622 4863 
L 1947 4863 
z
" transform="scale(0.015625)"/>
      </defs>
      <use xlink:href="#DejaVuSans-47"/>
      <use xlink:href="#DejaVuSans-72" x="77.490234"/>
      <use xlink:href="#DejaVuSans-6f" x="116.353516"/>
      <use xlink:href="#DejaVuSans-75" x="177.535156"/>
      <use xlink:href="#DejaVuSans-6e" x="240.914062"/>
      <use xlink:href="#DejaVuSans-64" x="304.292969"/>
      <use xlink:href="#DejaVuSans-20" x="367.769531"/>
      <use xlink:href="#DejaVuSans-54" x="399.556641"/>
      <use xlink:href="#DejaVuSans-72" x="445.890625"/>
      <use xlink:href="#DejaVuSans-75" x="487.003906"/>
      <use xlink:href="#DejaVuSans-74" x="550.382812"/>
      <use xlink:href="#DejaVuSans-68" x="589.591797"/>
      <use xlink:href="#DejaVuSans-20" x="652.970703"/>
      <use xlink:href="#DejaVuSans-45" x="684.757812"/>
      <use xlink:href="#DejaVuSans-6e" x="747.941406"/>
      <use xlink:href="#DejaVuSans-65" x="811.320312"/>
      <use xlink:href="#DejaVuSans-72" x="872.84375"/>
      <use xlink:href="#DejaVuSans-67" x="912.207031"/>
      <use xlink:href="#DejaVuSans-79" x="975.683594"/>
      <use xlink:href="#DejaVuSans-20" x="1034.863281"/>
      <use xlink:href="#DejaVuSans-5b" x="1066.650391"/>
      <use xlink:href="#DejaVuSans-6b" x="1105.664062"/>
      <use xlink:href="#DejaVuSans-4a" x="1163.574219"/>
      <use xlink:href="#DejaVuSans-2f" x="1193.066406"/>
      <use xlink:href="#DejaVuSans-6d" x="1226.757812"/>
      <use xlink:href="#DejaVuSans-6f" x="1324.169922"/>
      <use xlink:href="#DejaVuSans-6c" x="1385.351562"/>
      <use xlink:href="#DejaVuSans-5d" x="1413.134766"/>
     </g>
    </g>
   </g>
   <g id="matplotlib.axis_2">
    <g id="ytick_1">
     <g id="line2d_10">
      <defs>
       <path id="m5d9738a821" d="M 0 0 
L -3.5 0 
" style="stroke: #000000; stroke-width: 0.8"/>
      </defs>
      <g>
       <use xlink:href="#m5d9738a821" x="102.17" y="499.48" style="stroke: #000000; stroke-width: 0.8"/>
      </g>
     </g>
     <g id="text_11">
      <!-- −80 -->
      <g transform="translate(48.739688 507.838281) scale(0.22 -0.22)">
       <use xlink:href="#DejaVuSans-2212"/>
       <use xlink:href="#DejaVuSans-38" x="83.789062"/>
       <use xlink:href="#DejaVuSans-30" x="147.412109"/>
      </g>
     </g>
    </g>
    <g id="ytick_2">
     <g id="line2d_11">
      <g>
       <use xlink:href="#m5d9738a821" x="102.17" y="441.05" style="stroke: #000000; stroke-width: 0.8"/>
      </g>
     </g>
     <g id="text_12">
      <!-- −60 -->
      <g transform="translate(48.739688 449.408281) scale(0.22 -0.22)">
       <use xlink:href="#DejaVuSans-2212"/>
       <use xlink:href="#DejaVuSans-36" x="83.789062"/>
       <use xlink:href="#DejaVuSans-30" x="147.412109"/>
      </g>
     </g>
    </g>
    <g id="ytick_3">
     <g id="line2d_12">
      <g>
       <use xlink:href="#m5d9738a821" x="102.17" y="382.62" style="stroke: #000000; stroke-width: 0.8"/>
      </g>
     </g>
     <g id="text_13">
      <!-- −40 -->
      <g transform="translate(48.739688 390.978281) scale(0.22 -0.22)">
       <use xlink:href="#DejaVuSans-2212"/>
       <use xlink:href="#DejaVuSans-34" x="83.789062"/>
       <use xlink:href="#DejaVuSans-30" x="147.412109"/>
      </g>
     </g>
    </g>
    <g id="ytick_4">
     <g id="line2d_13">
      <g>
       <use xlink:href="#m5d9738a821" x="102.17" y="324.19" style="stroke: #000000; stroke-width: 0.8"/>
      </g>
     </g>
     <g id="text_14">
      <!-- −20 -->
      <g transform="translate(48.739688 332.548281) scale(0.22 -0.22)">
       <use xlink:href="#DejaVuSans-2212"/>
       <use xlink:href="#DejaVuSans-32" x="83.789062"/>
       <use xlink:href="#DejaVuSans-30" x="147.412109"/>
      </g>
     </g>
    </g>
    <g id="ytick_5">
     <g id="line2d_14">
      <g>
       <use xlink:href="#m5d9738a821" x="102.17" y="265.76" style="stroke: #000000; stroke-width: 0.8"/>
      </g>
     </g>
     <g id="text_15">
      <!-- 0 -->
      <g transform="translate(81.1725 274.118281) scale(0.22 -0.22)">
       <use xlink:href="#DejaVuSans-30"/>
      </g>
     </g>
    </g>
    <g id="ytick_6">
     <g id="line2d_15">
      <g>
       <use xlink:href="#m5d9738a821" x="102.17" y="207.33" style="stroke: #000000; stroke-width: 0.8"/>
      </g>
     </g>
     <g id="text_16">
      <!-- 20 -->
      <g transform="translate(67.175 215.688281) scale(0.22 -0.22)">
       <use xlink:href="#DejaVuSans-32"/>
       <use xlink:href="#DejaVuSans-30" x="63.623047"/>
      </g>
     </g>
    </g>
    <g id="ytick_7">
     <g id="line2d_16">
      <g>
       <use xlink:href="#m5d9738a821" x="102.17" y="148.9" style="stroke: #000000; stroke-width: 0.8"/>
      </g>
     </g>
     <g id="text_17">
      <!-- 40 -->
      <g transform="translate(67.175 157.258281) scale(0.22 -0.22)">
       <use xlink:href="#DejaVuSans-34"/>
       <use xlink:href="#DejaVuSans-30" x="63.623047"/>
      </g>
     </g>
    </g>
    <g id="ytick_8">
     <g id="line2d_17">
      <g>
       <use xlink:href="#m5d9738a821" x="102.17" y="90.47" style="stroke: #000000; stroke-width: 0.8"/>
      </g>
     </g>
     <g id="text_18">
      <!-- 60 -->
      <g transform="translate(67.175 98.828281) scale(0.22 -0.22)">
       <use xlink:href="#DejaVuSans-36"/>
       <use xlink:href="#DejaVuSans-30" x="63.623047"/>
      </g>
     </g>
    </g>
    <g id="ytick_9">
     <g id="line2d_18">
      <g>
       <use xlink:href="#m5d9738a821" x="102.17" y="32.04" style="stroke: #000000; stroke-width: 0.8"/>
      </g>
     </g>
     <g id="text_19">
      <!-- 80 -->
      <g transform="translate(67.175 40.398281) scale(0.22 -0.22)">
       <use xlink:href="#DejaVuSans-38"/>
       <use xlink:href="#DejaVuSans-30" x="63.623047"/>
      </g>
     </g>
    </g>
    <g id="text_20">
     <!-- Predicted Energy [kJ/mol] -->
     <g transform="translate(40.164375 405.305313) rotate(-90) scale(0.22 -0.22)">
      <defs>
       <path id="DejaVuSans-50" d="M 1259 4147 
L 1259 2394 
L 2053 2394 
Q 2494 2394 2734 2622 
Q 2975 2850 2975 3272 
Q 2975 3691 2734 3919 
Q 2494 4147 2053 4147 
L 1259 4147 
z
M 628 4666 
L 2053 4666 
Q 2838 4666 3239 4311 
Q 3641 3956 3641 3272 
Q 3641 2581 3239 2228 
Q 2838 1875 2053 1875 
L 1259 1875 
L 1259 0 
L 628 0 
L 628 4666 
z
" transform="scale(0.015625)"/>
       <path id="DejaVuSans-69" d="M 603 3500 
L 1178 3500 
L 1178 0 
L 603 0 
L 603 3500 
z
M 603 4863 
L 1178 4863 
L 1178 4134 
L 603 4134 
L 603 4863 
z
" transform="scale(0.015625)"/>
       <path id="DejaVuSans-63" d="M 3122 3366 
L 3122 2828 
Q 2878 2963 2633 3030 
Q 2388 3097 2138 3097 
Q 1578 3097 1268 2742 
Q 959 2388 959 1747 
Q 959 1106 1268 751 
Q 1578 397 2138 397 
Q 2388 397 2633 464 
Q 2878 531 3122 666 
L 3122 134 
Q 2881 22 2623 -34 
Q 2366 -91 2075 -91 
Q 1284 -91 818 406 
Q 353 903 353 1747 
Q 353 2603 823 3093 
Q 1294 3584 2113 3584 
Q 2378 3584 2631 3529 
Q 2884 3475 3122 3366 
z
" transform="scale(0.015625)"/>
      </defs>
      <use xlink:href="#DejaVuSans-50"/>
      <use xlink:href="#DejaVuSans-72" x="58.552734"/>
      <use xlink:href="#DejaVuSans-65" x="97.416016"/>
      <use xlink:href="#DejaVuSans-64" x="158.939453"/>
      <use xlink:href="#DejaVuSans-69" x="222.416016"/>
      <use xlink:href="#DejaVuSans-63" x="250.199219"/>
      <use xlink:href="#DejaVuSans-74" x="305.179688"/>
      <use xlink:href="#DejaVuSans-65" x="344.388672"/>
      <use xlink:href="#DejaVuSans-64" x="405.912109"/>
      <use xlink:href="#DejaVuSans-20" x="469.388672"/>
      <use xlink:href="#DejaVuSans-45" x="501.175781"/>
      <use xlink:href="#DejaVuSans-6e" x="564.359375"/>
      <use xlink:href="#DejaVuSans-65" x="627.738281"/>
      <use xlink:href="#DejaVuSans-72" x="689.261719"/>
      <use xlink:href="#DejaVuSans-67" x="728.625"/>
      <use xlink:href="#DejaVuSans-79" x="792.101562"/>
      <use xlink:href="#DejaVuSans-20" x="851.28125"/>
      <use xlink:href="#DejaVuSans-5b" x="883.068359"/>
      <use xlink:href="#DejaVuSans-6b" x="922.082031"/>
      <use xlink:href="#DejaVuSans-4a" x="979.992188"/>
      <use xlink:href="#DejaVuSans-2f" x="1009.484375"/>
      <use xlink:href="#DejaVuSans-6d" x="1043.175781"/>
      <use xlink:href="#DejaVuSans-6f" x="1140.587891"/>
      <use xlink:href="#DejaVuSans-6c" x="1201.769531"/>
      <use xlink:href="#DejaVuSans-5d" x="1229.552734"/>
     </g>
    </g>
   </g>
   <g id="line2d_19">
    <path d="M 102.17 499.48 
L 682.2 32.04 
" clip-path="url(#pd480ade6b3)" style="fill: none; stroke-dasharray: 5.55,2.4; stroke-dashoffset: 0; stroke: #ff0000; stroke-width: 1.5"/>
   </g>
   <g id="patch_3">
    <path d="M 102.17 499.48 
L 102.17 32.04 
" style="fill: none; stroke: #000000; stroke-width: 0.8; stroke-linejoin: miter; stroke-linecap: square"/>
   </g>
   <g id="patch_4">
    <path d="M 682.2 499.48 
L 682.2 32.04 
" style="fill: none; stroke: #000000; stroke-width: 0.8; stroke-linejoin: miter; stroke-linecap: square"/>
   </g>
   <g id="patch_5">
    <path d="M 102.17 499.48 
L 682.2 499.48 
" style="fill: none; stroke: #000000; stroke-width: 0.8; stroke-linejoin: miter; stroke-linecap: square"/>
   </g>
   <g id="patch_6">
    <path d="M 102.17 32.04 
L 682.2 32.04 
" style="fill: none; stroke: #000000; stroke-width: 0.8; stroke-linejoin: miter; stroke-linecap: square"/>
   </g>
   <g id="text_21">
    <!-- R2 Score: 0.978 -->
    <g transform="translate(160.173 78.784) scale(0.22 -0.22)">
     <defs>
      <path id="DejaVuSans-52" d="M 2841 2188 
Q 3044 2119 3236 1894 
Q 3428 1669 3622 1275 
L 4263 0 
L 3584 0 
L 2988 1197 
Q 2756 1666 2539 1819 
Q 2322 1972 1947 1972 
L 1259 1972 
L 1259 0 
L 628 0 
L 628 4666 
L 2053 4666 
Q 2853 4666 3247 4331 
Q 3641 3997 3641 3322 
Q 3641 2881 3436 2590 
Q 3231 2300 2841 2188 
z
M 1259 4147 
L 1259 2491 
L 2053 2491 
Q 2509 2491 2742 2702 
Q 2975 2913 2975 3322 
Q 2975 3731 2742 3939 
Q 2509 4147 2053 4147 
L 1259 4147 
z
" transform="scale(0.015625)"/>
      <path id="DejaVuSans-53" d="M 3425 4513 
L 3425 3897 
Q 3066 4069 2747 4153 
Q 2428 4238 2131 4238 
Q 1616 4238 1336 4038 
Q 1056 3838 1056 3469 
Q 1056 3159 1242 3001 
Q 1428 2844 1947 2747 
L 2328 2669 
Q 3034 2534 3370 2195 
Q 3706 1856 3706 1288 
Q 3706 609 3251 259 
Q 2797 -91 1919 -91 
Q 1588 -91 1214 -16 
Q 841 59 441 206 
L 441 856 
Q 825 641 1194 531 
Q 1563 422 1919 422 
Q 2459 422 2753 634 
Q 3047 847 3047 1241 
Q 3047 1584 2836 1778 
Q 2625 1972 2144 2069 
L 1759 2144 
Q 1053 2284 737 2584 
Q 422 2884 422 3419 
Q 422 4038 858 4394 
Q 1294 4750 2059 4750 
Q 2388 4750 2728 4690 
Q 3069 4631 3425 4513 
z
" transform="scale(0.015625)"/>
      <path id="DejaVuSans-3a" d="M 750 794 
L 1409 794 
L 1409 0 
L 750 0 
L 750 794 
z
M 750 3309 
L 1409 3309 
L 1409 2516 
L 750 2516 
L 750 3309 
z
" transform="scale(0.015625)"/>
      <path id="DejaVuSans-2e" d="M 684 794 
L 1344 794 
L 1344 0 
L 684 0 
L 684 794 
z
" transform="scale(0.015625)"/>
      <path id="DejaVuSans-39" d="M 703 97 
L 703 672 
Q 941 559 1184 500 
Q 1428 441 1663 441 
Q 2288 441 2617 861 
Q 2947 1281 2994 2138 
Q 2813 1869 2534 1725 
Q 2256 1581 1919 1581 
Q 1219 1581 811 2004 
Q 403 2428 403 3163 
Q 403 3881 828 4315 
Q 1253 4750 1959 4750 
Q 2769 4750 3195 4129 
Q 3622 3509 3622 2328 
Q 3622 1225 3098 567 
Q 2575 -91 1691 -91 
Q 1453 -91 1209 -44 
Q 966 3 703 97 
z
M 1959 2075 
Q 2384 2075 2632 2365 
Q 2881 2656 2881 3163 
Q 2881 3666 2632 3958 
Q 2384 4250 1959 4250 
Q 1534 4250 1286 3958 
Q 1038 3666 1038 3163 
Q 1038 2656 1286 2365 
Q 1534 2075 1959 2075 
z
" transform="scale(0.015625)"/>
      <path id="DejaVuSans-37" d="M 525 4666 
L 3525 4666 
L 3525 4397 
L 1831 0 
L 1172 0 
L 2766 4134 
L 525 4134 
L 525 4666 
z
" transform="scale(0.015625)"/>
     </defs>
     <use xlink:href="#DejaVuSans-52"/>
     <use xlink:href="#DejaVuSans-32" x="69.482422"/>
     <use xlink:href="#DejaVuSans-20" x="133.105469"/>
     <use xlink:href="#DejaVuSans-53" x="164.892578"/>
     <use xlink:href="#DejaVuSans-63" x="228.369141"/>
     <use xlink:href="#DejaVuSans-6f" x="283.349609"/>
     <use xlink:href="#DejaVuSans-72" x="344.53125"/>
     <use xlink:href="#DejaVuSans-65" x="383.394531"/>
     <use xlink:href="#DejaVuSans-3a" x="444.917969"/>
     <use xlink:href="#DejaVuSans-20" x="478.609375"/>
     <use xlink:href="#DejaVuSans-30" x="510.396484"/>
     <use xlink:href="#DejaVuSans-2e" x="574.019531"/>
     <use xlink:href="#DejaVuSans-39" x="605.806641"/>
     <use xlink:href="#DejaVuSans-37" x="669.429688"/>
     <use xlink:href="#DejaVuSans-38" x="733.052734"/>
    </g>
   </g>
  </g>
 </g>
 <defs>
  <clipPath id="pd480ade6b3">
   <rect x="102.17" y="32.04" width="580.03" height="467.44"/>
  </clipPath>
 </defs>
</svg>
