<?xml version="1.0" encoding="utf-8" standalone="no"?>
<!DOCTYPE svg PUBLIC "-//W3C//DTD SVG 1.1//EN"
  "http://www.w3.org/Graphics/SVG/1.1/DTD/svg11.dtd">
<svg xmlns:xlink="http://www.w3.org/1999/xlink" width="720pt" height="576pt" viewBox="0 0 720 576" xmlns="http://www.w3.org/2000/svg" version="1.1">
 <metadata>
  <rdf:RDF xmlns:dc="http://purl.org/dc/elements/1.1/" xmlns:cc="http://creativecommons.org/ns#" xmlns:rdf="http://www.w3.org/1999/02/22-rdf-syntax-ns#">
   <cc:Work>
    <dc:type rdf:resource="http://purl.org/dc/dcmitype/StillImage"/>
    <dc:date>2024-12-07T19:19:21.057383</dc:date>
    <dc:format>image/svg+xml</dc:format>
    <dc:creator>
     <cc:Agent>
      <dc:title>Matplotlib v3.8.4, https://matplotlib.org/</dc:title>
     </cc:Agent>
    </dc:creator>
   </cc:Work>
  </rdf:RDF>
 </metadata>
 <defs>
  <style type="text/css">*{stroke-linejoin: round; stroke-linecap: butt}</style>
 </defs>
 <g id="figure_1">
  <g id="patch_1">
   <path d="M 0 576 
L 720 576 
L 720 0 
L 0 0 
z
" style="fill: #ffffff"/>
  </g>
  <g id="axes_1">
   <g id="patch_2">
    <path d="M 102.17 499.48 
L 682.2 499.48 
L 682.2 32.04 
L 102.17 32.04 
z
" style="fill: #ffffff"/>
   </g>
   <g id="QuadContourSet_1">
    <path d="M 244.40811 388.263468 
L 246.260372 386.97747 
L 244.40811 382.236895 
L 241.46358 386.97747 
z
M 253.77435 382.764099 
L 257.070668 380.474748 
L 263.140589 376.835941 
L 267.263494 373.972027 
L 272.506828 370.625426 
L 277.050134 367.469305 
L 281.873068 364.206707 
L 286.537363 360.966584 
L 291.239307 357.611319 
L 295.770458 354.463862 
L 300.605546 350.841144 
L 304.751976 347.96114 
L 309.971786 343.871497 
L 313.44624 341.458419 
L 319.338025 336.646201 
L 321.77226 334.955697 
L 328.704264 329.063204 
L 329.583013 328.452975 
L 338.004141 321.950254 
L 338.070504 321.905778 
L 347.272254 315.447532 
L 347.436743 315.33046 
L 356.548662 308.944811 
L 356.802982 308.753107 
L 365.819782 302.442089 
L 366.169222 302.163895 
L 375.072196 295.939367 
L 375.535461 295.551089 
L 384.289524 289.436646 
L 384.901701 288.898612 
L 393.448944 282.933924 
L 394.26794 282.182858 
L 402.516642 276.431202 
L 403.634179 275.368359 
L 411.441594 269.928481 
L 413.000419 268.401885 
L 420.147094 263.425759 
L 422.366658 261.204532 
L 428.519386 256.923038 
L 431.732897 253.660927 
L 436.392177 250.420316 
L 441.099137 245.603527 
L 443.524118 243.917594 
L 450.390247 237.414873 
L 450.465376 237.340223 
L 459.378544 230.912151 
L 459.831615 230.441594 
L 468.202148 224.409429 
L 469.197855 223.329508 
L 476.714419 217.906708 
L 478.564094 215.812897 
L 484.656562 211.403986 
L 487.930333 207.536416 
L 491.553309 204.901264 
L 497.175325 198.398543 
L 497.296573 198.278563 
L 505.650409 191.895821 
L 506.662812 190.876261 
L 513.977555 185.3931 
L 516.029052 183.308122 
L 522.018267 178.890378 
L 525.395291 175.459827 
L 529.618945 172.387656 
L 534.76153 167.212083 
L 536.608266 165.884935 
L 543.178172 159.382213 
L 544.12777 158.340539 
L 550.061903 152.879491 
L 553.494009 149.154635 
L 556.62883 146.37677 
L 553.494009 142.323741 
L 547.931794 146.37677 
L 544.12777 147.858029 
L 537.423935 152.879491 
L 534.76153 154.116454 
L 527.691662 159.382213 
L 525.395291 160.573336 
L 518.173218 165.884935 
L 516.029052 167.093925 
L 508.739226 172.387656 
L 506.662812 173.644429 
L 499.358898 178.890378 
L 497.296573 180.220943 
L 490.029524 185.3931 
L 487.930333 186.829951 
L 480.758897 191.895821 
L 478.564094 193.483575 
L 471.56234 198.398543 
L 469.197855 200.20034 
L 462.465536 204.901264 
L 459.831615 207.0095 
L 453.511611 211.403986 
L 450.465376 213.959719 
L 444.773565 217.906708 
L 441.099137 221.134791 
L 436.375043 224.409429 
L 431.732897 228.681744 
L 428.524953 230.912151 
L 422.366658 236.861403 
L 421.576635 237.414873 
L 413.151176 243.917594 
L 413.000419 244.03315 
L 403.970882 250.420316 
L 403.634179 250.694309 
L 394.804957 256.923038 
L 394.26794 257.387271 
L 385.690488 263.425759 
L 384.901701 264.150891 
L 376.681307 269.928481 
L 375.535461 271.050158 
L 367.869121 276.431202 
L 366.169222 278.205792 
L 359.425729 282.933924 
L 356.802982 285.858298 
L 351.69466 289.436646 
L 347.436743 294.514929 
L 345.40163 295.939367 
L 338.220493 302.442089 
L 338.070504 302.58 
L 329.117213 308.944811 
L 328.704264 309.349276 
L 320.075974 315.447532 
L 319.338025 316.218235 
L 311.19122 321.950254 
L 309.971786 323.30947 
L 302.636031 328.452975 
L 300.605546 330.870269 
L 294.76349 334.955697 
L 291.239307 339.439611 
L 288.346765 341.458419 
L 282.15308 347.96114 
L 281.873068 348.243657 
L 273.455471 354.463862 
L 272.506828 355.476857 
L 264.955706 360.966584 
L 263.140589 363.022032 
L 256.948801 367.469305 
L 253.77435 371.289328 
L 250.005507 373.972027 
L 245.759702 380.474748 
z
M 270.75246 360.966584 
L 272.506828 359.691144 
L 275.53824 360.966584 
L 272.506828 363.029495 
z
M 277.402039 354.463862 
L 281.873068 351.159984 
L 285.043556 347.96114 
L 291.239307 343.280761 
L 293.147716 341.458419 
L 300.605546 335.651789 
L 301.375032 334.955697 
L 308.270818 328.452975 
L 309.971786 327.260333 
L 314.735774 321.950254 
L 319.338025 318.712152 
L 322.4639 315.447532 
L 328.704264 311.037002 
L 330.840337 308.944811 
L 338.070504 303.804953 
L 339.55272 302.442089 
L 347.436743 296.795889 
L 348.428131 295.939367 
L 356.802982 289.885753 
L 357.355916 289.436646 
L 366.169222 282.99211 
L 366.245456 282.933924 
L 372.797277 276.431202 
L 375.535461 274.509257 
L 380.214938 269.928481 
L 384.901701 266.634454 
L 388.39207 263.425759 
L 394.26794 259.289173 
L 397.005041 256.923038 
L 403.634179 252.246397 
L 405.878201 250.420316 
L 413.000419 245.382318 
L 414.911347 243.917594 
L 422.366658 238.625606 
L 424.043515 237.414873 
L 431.732897 231.932095 
L 433.233773 230.912151 
L 441.099137 225.271487 
L 442.450116 224.409429 
L 450.465376 218.62001 
L 451.662182 217.906708 
L 459.831615 211.95649 
L 460.835476 211.403986 
L 469.197855 205.261606 
L 469.925226 204.901264 
L 478.564094 198.524421 
L 478.86544 198.398543 
L 487.800479 191.895821 
L 487.930333 191.804093 
L 497.296573 185.3931 
L 499.83005 191.895821 
L 497.296573 193.831523 
L 492.681289 198.398543 
L 487.930333 202.115478 
L 485.045723 204.901264 
L 478.564094 210.132355 
L 477.207472 211.403986 
L 469.847812 217.906708 
L 469.197855 218.375617 
L 463.634572 224.409429 
L 459.831615 227.150003 
L 456.209262 230.912151 
L 450.465376 235.054575 
L 448.089931 237.414873 
L 441.099137 242.469839 
L 439.574221 243.917594 
L 431.732897 249.614072 
L 430.842706 250.420316 
L 422.366658 256.621243 
L 422.01663 256.923038 
L 414.091047 263.425759 
L 413.000419 264.185148 
L 407.135835 269.928481 
L 403.634179 272.368287 
L 399.362187 276.431202 
L 394.26794 279.98332 
L 391.050471 282.933924 
L 384.901701 287.224839 
L 382.385102 289.436646 
L 375.535461 294.220909 
L 373.485118 295.939367 
L 366.169222 301.054288 
L 364.426003 302.442089 
L 356.802982 307.777576 
L 355.254487 308.944811 
L 347.436743 314.423501 
L 345.997951 315.447532 
L 338.070504 321.011409 
L 336.669627 321.950254 
L 328.704264 327.550769 
L 327.26999 328.452975 
L 319.338025 334.041798 
L 317.783067 334.955697 
L 309.971786 340.472112 
L 308.162261 341.458419 
L 300.605546 346.805143 
L 298.28704 347.96114 
L 291.239307 352.946455 
L 287.816494 354.463862 
L 281.873068 358.636924 
z
" clip-path="url(#pf4c001b639)" style="fill: #eef5fc"/>
    <path d="M 272.506828 363.029495 
L 275.53824 360.966584 
L 272.506828 359.691144 
L 270.75246 360.966584 
z
M 281.873068 358.636924 
L 287.816494 354.463862 
L 291.239307 352.946455 
L 298.28704 347.96114 
L 300.605546 346.805143 
L 308.162261 341.458419 
L 309.971786 340.472112 
L 317.783067 334.955697 
L 319.338025 334.041798 
L 327.26999 328.452975 
L 328.704264 327.550769 
L 336.669627 321.950254 
L 338.070504 321.011409 
L 345.997951 315.447532 
L 347.436743 314.423501 
L 355.254487 308.944811 
L 356.802982 307.777576 
L 364.426003 302.442089 
L 366.169222 301.054288 
L 373.485118 295.939367 
L 375.535461 294.220909 
L 382.385102 289.436646 
L 384.901701 287.224839 
L 391.050471 282.933924 
L 394.26794 279.98332 
L 399.362187 276.431202 
L 403.634179 272.368287 
L 407.135835 269.928481 
L 413.000419 264.185148 
L 414.091047 263.425759 
L 422.01663 256.923038 
L 422.366658 256.621243 
L 430.842706 250.420316 
L 431.732897 249.614072 
L 439.574221 243.917594 
L 441.099137 242.469839 
L 448.089931 237.414873 
L 450.465376 235.054575 
L 456.209262 230.912151 
L 459.831615 227.150003 
L 463.634572 224.409429 
L 469.197855 218.375617 
L 469.847812 217.906708 
L 477.207472 211.403986 
L 478.564094 210.132355 
L 485.045723 204.901264 
L 487.930333 202.115478 
L 492.681289 198.398543 
L 497.296573 193.831523 
L 499.83005 191.895821 
L 497.296573 185.3931 
L 487.930333 191.804093 
L 487.800479 191.895821 
L 478.86544 198.398543 
L 478.564094 198.524421 
L 469.925226 204.901264 
L 469.197855 205.261606 
L 460.835476 211.403986 
L 459.831615 211.95649 
L 451.662182 217.906708 
L 450.465376 218.62001 
L 442.450116 224.409429 
L 441.099137 225.271487 
L 433.233773 230.912151 
L 431.732897 231.932095 
L 424.043515 237.414873 
L 422.366658 238.625606 
L 414.911347 243.917594 
L 413.000419 245.382318 
L 405.878201 250.420316 
L 403.634179 252.246397 
L 397.005041 256.923038 
L 394.26794 259.289173 
L 388.39207 263.425759 
L 384.901701 266.634454 
L 380.214938 269.928481 
L 375.535461 274.509257 
L 372.797277 276.431202 
L 366.245456 282.933924 
L 366.169222 282.99211 
L 357.355916 289.436646 
L 356.802982 289.885753 
L 348.428131 295.939367 
L 347.436743 296.795889 
L 339.55272 302.442089 
L 338.070504 303.804953 
L 330.840337 308.944811 
L 328.704264 311.037002 
L 322.4639 315.447532 
L 319.338025 318.712152 
L 314.735774 321.950254 
L 309.971786 327.260333 
L 308.270818 328.452975 
L 301.375032 334.955697 
L 300.605546 335.651789 
L 293.147716 341.458419 
L 291.239307 343.280761 
L 285.043556 347.96114 
L 281.873068 351.159984 
L 277.402039 354.463862 
z
M 290.189601 347.96114 
L 291.239307 347.168174 
L 292.433359 347.96114 
L 291.239307 348.80577 
z
M 297.218728 341.458419 
L 300.605546 338.821459 
L 304.037271 341.458419 
L 300.605546 343.886522 
z
M 304.878903 334.955697 
L 309.971786 330.817368 
L 312.732697 328.452975 
L 319.338025 322.730015 
L 320.304553 321.950254 
L 326.715233 315.447532 
L 328.704264 314.041736 
L 333.908092 308.944811 
L 338.070504 305.985791 
L 341.924544 302.442089 
L 347.436743 298.494488 
L 350.394189 295.939367 
L 356.802982 291.306884 
L 359.105588 289.436646 
L 366.169222 284.271519 
L 367.921696 282.933924 
L 375.535461 277.286507 
L 376.730858 276.431202 
L 384.901701 270.26301 
L 385.403751 269.928481 
L 393.201818 263.425759 
L 394.26794 262.675214 
L 400.921951 256.923038 
L 403.634179 255.009649 
L 409.273887 250.420316 
L 413.000419 247.784303 
L 418.045058 243.917594 
L 422.366658 240.850002 
L 427.124289 237.414873 
L 431.732897 234.128786 
L 436.466264 230.912151 
L 441.099137 227.589676 
L 446.083082 224.409429 
L 450.465376 221.2441 
L 456.064983 217.906708 
L 459.831615 215.163276 
L 464.27744 217.906708 
L 459.831615 221.91517 
L 456.963778 224.409429 
L 450.566848 230.912151 
L 450.465376 230.985331 
L 443.994573 237.414873 
L 441.099137 239.508531 
L 436.455085 243.917594 
L 431.732897 247.348117 
L 428.340816 250.420316 
L 422.366658 254.790904 
L 419.893761 256.923038 
L 413.000419 262.01599 
L 411.277715 263.425759 
L 403.634179 269.148948 
L 402.625842 269.928481 
L 394.26794 276.299735 
L 394.08646 276.431202 
L 386.780361 282.933924 
L 384.901701 284.244946 
L 378.994572 289.436646 
L 375.535461 291.852728 
L 370.659573 295.939367 
L 366.169222 299.078803 
L 361.944595 302.442089 
L 356.802982 306.040795 
L 352.95041 308.944811 
L 347.436743 312.808799 
L 343.729252 315.447532 
L 338.070504 319.419123 
L 334.293731 321.950254 
L 328.704264 325.880256 
L 324.614308 328.452975 
L 319.338025 332.170618 
L 314.599339 334.955697 
L 309.971786 338.223728 
z
M 466.661982 211.403986 
L 469.197855 209.541323 
L 471.626753 211.403986 
L 469.197855 213.45178 
z
" clip-path="url(#pf4c001b639)" style="fill: #d6e5f4"/>
    <path d="M 291.239307 348.80577 
L 292.433359 347.96114 
L 291.239307 347.168174 
L 290.189601 347.96114 
z
M 300.605546 343.886522 
L 304.037271 341.458419 
L 300.605546 338.821459 
L 297.218728 341.458419 
z
M 300.096952 341.458419 
L 300.605546 341.06243 
L 301.120884 341.458419 
L 300.605546 341.823044 
z
M 309.971786 338.223728 
L 314.599339 334.955697 
L 319.338025 332.170618 
L 324.614308 328.452975 
L 328.704264 325.880256 
L 334.293731 321.950254 
L 338.070504 319.419123 
L 343.729252 315.447532 
L 347.436743 312.808799 
L 352.95041 308.944811 
L 356.802982 306.040795 
L 361.944595 302.442089 
L 366.169222 299.078803 
L 370.659573 295.939367 
L 375.535461 291.852728 
L 378.994572 289.436646 
L 384.901701 284.244946 
L 386.780361 282.933924 
L 394.08646 276.431202 
L 394.26794 276.299735 
L 402.625842 269.928481 
L 403.634179 269.148948 
L 411.277715 263.425759 
L 413.000419 262.01599 
L 419.893761 256.923038 
L 422.366658 254.790904 
L 428.340816 250.420316 
L 431.732897 247.348117 
L 436.455085 243.917594 
L 441.099137 239.508531 
L 443.994573 237.414873 
L 450.465376 230.985331 
L 450.566848 230.912151 
L 456.963778 224.409429 
L 459.831615 221.91517 
L 464.27744 217.906708 
L 459.831615 215.163276 
L 456.064983 217.906708 
L 450.465376 221.2441 
L 446.083082 224.409429 
L 441.099137 227.589676 
L 436.466264 230.912151 
L 431.732897 234.128786 
L 427.124289 237.414873 
L 422.366658 240.850002 
L 418.045058 243.917594 
L 413.000419 247.784303 
L 409.273887 250.420316 
L 403.634179 255.009649 
L 400.921951 256.923038 
L 394.26794 262.675214 
L 393.201818 263.425759 
L 385.403751 269.928481 
L 384.901701 270.26301 
L 376.730858 276.431202 
L 375.535461 277.286507 
L 367.921696 282.933924 
L 366.169222 284.271519 
L 359.105588 289.436646 
L 356.802982 291.306884 
L 350.394189 295.939367 
L 347.436743 298.494488 
L 341.924544 302.442089 
L 338.070504 305.985791 
L 333.908092 308.944811 
L 328.704264 314.041736 
L 326.715233 315.447532 
L 320.304553 321.950254 
L 319.338025 322.730015 
L 312.732697 328.452975 
L 309.971786 330.817368 
L 304.878903 334.955697 
z
M 307.356156 334.955697 
L 309.971786 332.830312 
L 312.34843 334.955697 
L 309.971786 336.63411 
z
M 315.08322 328.452975 
L 319.338025 324.766545 
L 322.736729 328.452975 
L 319.338025 330.847685 
z
M 322.828869 321.950254 
L 328.704264 316.272638 
L 329.809609 315.447532 
L 336.077009 308.944811 
L 338.070504 307.527654 
L 343.601435 302.442089 
L 347.436743 299.695405 
L 351.784201 295.939367 
L 356.802982 292.311629 
L 360.342614 289.436646 
L 366.169222 285.176067 
L 369.106805 282.933924 
L 375.535461 278.165548 
L 377.959429 276.431202 
L 384.901701 271.190462 
L 386.795641 269.928481 
L 394.26794 264.163009 
L 395.474871 263.425759 
L 403.634179 256.951773 
L 403.687573 256.923038 
L 411.674653 250.420316 
L 413.000419 249.482518 
L 420.260606 243.917594 
L 422.366658 242.42266 
L 429.302411 237.414873 
L 431.732897 235.681857 
L 441.099137 237.414873 
L 434.249842 243.917594 
L 431.732897 245.746076 
L 426.571967 250.420316 
L 422.366658 253.496846 
L 418.392884 256.923038 
L 413.000419 260.907108 
L 409.92269 263.425759 
L 403.634179 268.134356 
L 401.313452 269.928481 
L 394.26794 275.299296 
L 392.705436 276.431202 
L 384.901701 282.526487 
L 384.291971 282.933924 
L 376.597452 289.436646 
L 375.535461 290.178414 
L 368.661899 295.939367 
L 366.169222 297.682127 
L 360.190228 302.442089 
L 356.802982 304.812882 
L 351.321417 308.944811 
L 347.436743 311.667198 
L 342.125271 315.447532 
L 338.070504 318.293369 
L 332.613961 321.950254 
L 328.704264 324.699196 
z
M 438.751651 230.912151 
L 441.099137 229.228646 
L 445.905337 230.912151 
L 441.099137 237.414873 
z
M 448.651606 224.409429 
L 450.465376 223.099344 
L 453.154974 224.409429 
L 450.465376 227.141548 
z
M 459.177784 217.906708 
L 459.831615 217.430488 
L 460.603345 217.906708 
L 459.831615 218.602518 
z
M 469.197855 213.45178 
L 471.626753 211.403986 
L 469.197855 209.541323 
L 466.661982 211.403986 
z
" clip-path="url(#pf4c001b639)" style="fill: #b4d3e9"/>
    <path d="M 300.605546 341.823044 
L 301.120884 341.458419 
L 300.605546 341.06243 
L 300.096952 341.458419 
z
M 309.971786 336.63411 
L 312.34843 334.955697 
L 309.971786 332.830312 
L 307.356156 334.955697 
z
M 309.710978 334.955697 
L 309.971786 334.743772 
L 310.208764 334.955697 
L 309.971786 335.123054 
z
M 319.338025 330.847685 
L 322.736729 328.452975 
L 319.338025 324.766545 
L 315.08322 328.452975 
z
M 317.317576 328.452975 
L 319.338025 326.702427 
L 320.951943 328.452975 
L 319.338025 329.590134 
z
M 328.704264 324.699196 
L 332.613961 321.950254 
L 338.070504 318.293369 
L 342.125271 315.447532 
L 347.436743 311.667198 
L 351.321417 308.944811 
L 356.802982 304.812882 
L 360.190228 302.442089 
L 366.169222 297.682127 
L 368.661899 295.939367 
L 375.535461 290.178414 
L 376.597452 289.436646 
L 384.291971 282.933924 
L 384.901701 282.526487 
L 392.705436 276.431202 
L 394.26794 275.299296 
L 401.313452 269.928481 
L 403.634179 268.134356 
L 409.92269 263.425759 
L 413.000419 260.907108 
L 418.392884 256.923038 
L 422.366658 253.496846 
L 426.571967 250.420316 
L 431.732897 245.746076 
L 434.249842 243.917594 
L 441.099137 237.414873 
L 431.732897 235.681857 
L 429.302411 237.414873 
L 422.366658 242.42266 
L 420.260606 243.917594 
L 413.000419 249.482518 
L 411.674653 250.420316 
L 403.687573 256.923038 
L 403.634179 256.951773 
L 395.474871 263.425759 
L 394.26794 264.163009 
L 386.795641 269.928481 
L 384.901701 271.190462 
L 377.959429 276.431202 
L 375.535461 278.165548 
L 369.106805 282.933924 
L 366.169222 285.176067 
L 360.342614 289.436646 
L 356.802982 292.311629 
L 351.784201 295.939367 
L 347.436743 299.695405 
L 343.601435 302.442089 
L 338.070504 307.527654 
L 336.077009 308.944811 
L 329.809609 315.447532 
L 328.704264 316.272638 
L 322.828869 321.950254 
z
M 325.228428 321.950254 
L 328.704264 318.591423 
L 331.017209 321.950254 
L 328.704264 323.576505 
z
M 332.915943 315.447532 
L 338.070504 309.071961 
L 340.600562 315.447532 
L 338.070504 317.223253 
z
M 338.271544 308.944811 
L 345.195451 302.442089 
L 347.436743 300.836971 
L 353.105515 295.939367 
L 356.802982 293.266718 
L 361.518503 289.436646 
L 366.169222 286.03591 
L 370.233344 282.933924 
L 375.535461 279.001144 
L 379.127281 276.431202 
L 384.901701 272.072076 
L 388.11874 269.928481 
L 394.26794 265.183885 
L 397.146118 263.425759 
L 403.634179 258.277821 
L 406.151502 256.923038 
L 413.000419 251.272231 
L 415.044609 250.420316 
L 422.366658 243.917594 
L 424.890539 250.420316 
L 422.366658 252.266743 
L 416.966182 256.923038 
L 413.000419 259.85303 
L 408.634632 263.425759 
L 403.634179 267.169908 
L 400.065922 269.928481 
L 394.26794 274.348301 
L 391.392666 276.431202 
L 384.901701 281.501118 
L 382.757505 282.933924 
L 375.535461 288.774102 
L 374.421406 289.436646 
L 366.762955 295.939367 
L 366.169222 296.354477 
L 358.522566 302.442089 
L 356.802982 303.645656 
L 349.772932 308.944811 
L 347.436743 310.582016 
z
M 422.366658 243.917594 
L 431.372885 237.414873 
L 431.732897 237.158172 
L 433.120258 237.414873 
L 432.153586 243.917594 
L 431.732897 244.223212 
z
M 441.099137 237.414873 
L 445.905337 230.912151 
L 441.099137 229.228646 
L 438.751651 230.912151 
z
M 440.924089 230.912151 
L 441.099137 230.786615 
L 441.457527 230.912151 
L 441.099137 231.397048 
z
M 450.465376 227.141548 
L 453.154974 224.409429 
L 450.465376 223.099344 
L 448.651606 224.409429 
z
M 459.831615 218.602518 
L 460.603345 217.906708 
L 459.831615 217.430488 
L 459.177784 217.906708 
z
" clip-path="url(#pf4c001b639)" style="fill: #8dc1dd"/>
    <path d="M 309.971786 335.123054 
L 310.208764 334.955697 
L 309.971786 334.743772 
L 309.710978 334.955697 
z
M 319.338025 329.590134 
L 320.951943 328.452975 
L 319.338025 326.702427 
L 317.317576 328.452975 
z
M 318.016181 328.452975 
L 319.338025 327.307708 
L 320.393904 328.452975 
L 319.338025 329.196942 
z
M 328.704264 323.576505 
L 331.017209 321.950254 
L 328.704264 318.591423 
L 325.228428 321.950254 
z
M 325.978685 321.950254 
L 328.704264 319.316425 
L 330.517961 321.950254 
L 328.704264 323.22548 
z
M 338.070504 317.223253 
L 340.600562 315.447532 
L 338.070504 309.071961 
L 332.915943 315.447532 
z
M 333.887184 315.447532 
L 338.070504 310.27327 
L 340.123839 315.447532 
L 338.070504 316.888665 
z
M 347.436743 310.582016 
L 349.772932 308.944811 
L 356.802982 303.645656 
L 358.522566 302.442089 
L 366.169222 296.354477 
L 366.762955 295.939367 
L 374.421406 289.436646 
L 375.535461 288.774102 
L 382.757505 282.933924 
L 384.901701 281.501118 
L 391.392666 276.431202 
L 394.26794 274.348301 
L 400.065922 269.928481 
L 403.634179 267.169908 
L 408.634632 263.425759 
L 413.000419 259.85303 
L 416.966182 256.923038 
L 422.366658 252.266743 
L 424.890539 250.420316 
L 422.366658 243.917594 
L 415.044609 250.420316 
L 413.000419 251.272231 
L 406.151502 256.923038 
L 403.634179 258.277821 
L 397.146118 263.425759 
L 394.26794 265.183885 
L 388.11874 269.928481 
L 384.901701 272.072076 
L 379.127281 276.431202 
L 375.535461 279.001144 
L 370.233344 282.933924 
L 366.169222 286.03591 
L 361.518503 289.436646 
L 356.802982 293.266718 
L 353.105515 295.939367 
L 347.436743 300.836971 
L 345.195451 302.442089 
L 338.271544 308.944811 
z
M 340.170959 308.944811 
L 345.693843 302.442089 
L 347.436743 301.193899 
L 353.518644 295.939367 
L 356.802982 293.565341 
L 361.886162 289.436646 
L 366.169222 286.304753 
L 370.585573 282.933924 
L 375.535461 279.262406 
L 379.492427 276.431202 
L 384.901701 272.347726 
L 388.532426 269.928481 
L 394.26794 265.503077 
L 397.668659 263.425759 
L 403.634179 258.69243 
L 406.921886 256.923038 
L 413.000419 251.907848 
L 416.520103 256.923038 
L 413.000419 259.523457 
L 408.231902 263.425759 
L 403.634179 266.868359 
L 399.675864 269.928481 
L 394.26794 274.050958 
L 390.982209 276.431202 
L 384.901701 281.180521 
L 382.277732 282.933924 
L 375.535461 288.386129 
L 373.769036 289.436646 
L 366.169222 295.939367 
L 366.169222 295.939367 
L 358.001147 302.442089 
L 356.802982 303.280705 
L 349.288776 308.944811 
L 347.436743 310.242718 
z
M 416.569788 250.420316 
L 422.366658 245.272108 
L 424.364816 250.420316 
L 422.366658 251.882133 
z
M 431.732897 244.223212 
L 432.153586 243.917594 
L 433.120258 237.414873 
L 431.732897 237.158172 
L 431.372885 237.414873 
L 422.366658 243.917594 
z
M 441.099137 231.397048 
L 441.457527 230.912151 
L 441.099137 230.786615 
L 440.924089 230.912151 
z
" clip-path="url(#pf4c001b639)" style="fill: #71b1d7"/>
    <path d="M 319.338025 329.196942 
L 320.393904 328.452975 
L 319.338025 327.307708 
L 318.016181 328.452975 
z
M 328.704264 323.22548 
L 330.517961 321.950254 
L 328.704264 319.316425 
L 325.978685 321.950254 
z
M 338.070504 316.888665 
L 340.123839 315.447532 
L 338.070504 310.27327 
L 333.887184 315.447532 
z
M 337.578657 315.447532 
L 338.070504 314.839177 
L 338.311921 315.447532 
L 338.070504 315.616971 
z
M 347.436743 310.242718 
L 349.288776 308.944811 
L 356.802982 303.280705 
L 358.001147 302.442089 
L 366.169222 295.939367 
L 366.169222 295.939367 
L 373.769036 289.436646 
L 375.535461 288.386129 
L 382.277732 282.933924 
L 384.901701 281.180521 
L 390.982209 276.431202 
L 394.26794 274.050958 
L 399.675864 269.928481 
L 403.634179 266.868359 
L 408.231902 263.425759 
L 413.000419 259.523457 
L 416.520103 256.923038 
L 413.000419 251.907848 
L 406.921886 256.923038 
L 403.634179 258.69243 
L 397.668659 263.425759 
L 394.26794 265.503077 
L 388.532426 269.928481 
L 384.901701 272.347726 
L 379.492427 276.431202 
L 375.535461 279.262406 
L 370.585573 282.933924 
L 366.169222 286.304753 
L 361.886162 289.436646 
L 356.802982 293.565341 
L 353.518644 295.939367 
L 347.436743 301.193899 
L 345.693843 302.442089 
L 340.170959 308.944811 
z
M 347.390214 308.944811 
L 347.436743 308.459504 
L 347.448603 308.944811 
L 347.436743 308.953122 
z
M 355.088854 295.939367 
L 356.802982 294.70034 
L 361.691315 295.939367 
L 356.802982 300.712999 
z
M 363.283553 289.436646 
L 366.169222 287.326564 
L 371.28952 289.436646 
L 366.169222 293.817789 
z
M 371.924318 282.933924 
L 375.535461 280.255403 
L 380.45422 282.933924 
L 375.535461 286.911528 
z
M 380.880267 276.431202 
L 384.901701 273.395411 
L 389.422152 276.431202 
L 384.901701 279.962004 
z
M 390.104757 269.928481 
L 394.26794 266.716255 
L 398.193339 269.928481 
L 394.26794 272.920824 
z
M 399.654719 263.425759 
L 403.634179 260.268265 
L 406.701214 263.425759 
L 403.634179 265.722238 
z
M 409.849945 256.923038 
L 413.000419 254.323689 
L 414.824654 256.923038 
L 413.000419 258.270822 
z
M 422.366658 251.882133 
L 424.364816 250.420316 
L 422.366658 245.272108 
L 416.569788 250.420316 
z
" clip-path="url(#pf4c001b639)" style="fill: #549fcd"/>
    <path d="M 338.070504 315.616971 
L 338.311921 315.447532 
L 338.070504 314.839177 
L 337.578657 315.447532 
z
M 347.436743 308.953122 
L 347.448603 308.944811 
L 347.436743 308.459504 
L 347.390214 308.944811 
z
M 356.802982 300.712999 
L 361.691315 295.939367 
L 356.802982 294.70034 
L 355.088854 295.939367 
z
M 366.169222 293.817789 
L 371.28952 289.436646 
L 366.169222 287.326564 
L 363.283553 289.436646 
z
M 364.809023 289.436646 
L 366.169222 288.442031 
L 368.582743 289.436646 
L 366.169222 291.501756 
z
M 375.535461 286.911528 
L 380.45422 282.933924 
L 375.535461 280.255403 
L 371.924318 282.933924 
z
M 373.385766 282.933924 
L 375.535461 281.339414 
L 378.463573 282.933924 
L 375.535461 285.301771 
z
M 384.901701 279.962004 
L 389.422152 276.431202 
L 384.901701 273.395411 
L 380.880267 276.431202 
z
M 382.39531 276.431202 
L 384.901701 274.539121 
L 387.719108 276.431202 
L 384.901701 278.631803 
z
M 394.26794 272.920824 
L 398.193339 269.928481 
L 394.26794 266.716255 
L 390.104757 269.928481 
z
M 391.821201 269.928481 
L 394.26794 268.040627 
L 396.574931 269.928481 
L 394.26794 271.687107 
z
M 403.634179 265.722238 
L 406.701214 263.425759 
L 403.634179 260.268265 
L 399.654719 263.425759 
z
M 401.822812 263.425759 
L 403.634179 261.988534 
L 405.030229 263.425759 
L 403.634179 264.471068 
z
M 413.000419 258.270822 
L 414.824654 256.923038 
L 413.000419 254.323689 
L 409.849945 256.923038 
z
" clip-path="url(#pf4c001b639)" style="fill: #2e7ebc"/>
    <path d="M 366.169222 291.501756 
L 368.582743 289.436646 
L 366.169222 288.442031 
L 364.809023 289.436646 
z
M 375.535461 285.301771 
L 378.463573 282.933924 
L 375.535461 281.339414 
L 373.385766 282.933924 
z
M 375.469017 282.933924 
L 375.535461 282.88464 
L 375.625965 282.933924 
L 375.535461 283.007111 
z
M 384.901701 278.631803 
L 387.719108 276.431202 
L 384.901701 274.539121 
L 382.39531 276.431202 
z
M 384.554959 276.431202 
L 384.901701 276.169446 
L 385.29147 276.431202 
L 384.901701 276.73564 
z
M 394.26794 271.687107 
L 396.574931 269.928481 
L 394.26794 268.040627 
L 391.821201 269.928481 
z
M 403.634179 264.471068 
L 405.030229 263.425759 
L 403.634179 261.988534 
L 401.822812 263.425759 
z
" clip-path="url(#pf4c001b639)" style="fill: #09529d"/>
    <path d="M 375.535461 283.007111 
L 375.625965 282.933924 
L 375.535461 282.88464 
L 375.469017 282.933924 
z
M 384.901701 276.73564 
L 385.29147 276.431202 
L 384.901701 276.169446 
L 384.554959 276.431202 
z
" clip-path="url(#pf4c001b639)" style="fill: #083471"/>
   </g>
   <g id="matplotlib.axis_1">
    <g id="xtick_1">
     <g id="line2d_1">
      <defs>
       <path id="md909c61136" d="M 0 0 
L 0 3.5 
" style="stroke: #000000; stroke-width: 0.8"/>
      </defs>
      <g>
       <use xlink:href="#md909c61136" x="102.17" y="499.48" style="stroke: #000000; stroke-width: 0.8"/>
      </g>
     </g>
     <g id="text_1">
      <!-- −80 -->
      <g transform="translate(78.954844 523.196563) scale(0.22 -0.22)">
       <defs>
        <path id="DejaVuSans-2212" d="M 678 2272 
L 4684 2272 
L 4684 1741 
L 678 1741 
L 678 2272 
z
" transform="scale(0.015625)"/>
        <path id="DejaVuSans-38" d="M 2034 2216 
Q 1584 2216 1326 1975 
Q 1069 1734 1069 1313 
Q 1069 891 1326 650 
Q 1584 409 2034 409 
Q 2484 409 2743 651 
Q 3003 894 3003 1313 
Q 3003 1734 2745 1975 
Q 2488 2216 2034 2216 
z
M 1403 2484 
Q 997 2584 770 2862 
Q 544 3141 544 3541 
Q 544 4100 942 4425 
Q 1341 4750 2034 4750 
Q 2731 4750 3128 4425 
Q 3525 4100 3525 3541 
Q 3525 3141 3298 2862 
Q 3072 2584 2669 2484 
Q 3125 2378 3379 2068 
Q 3634 1759 3634 1313 
Q 3634 634 3220 271 
Q 2806 -91 2034 -91 
Q 1263 -91 848 271 
Q 434 634 434 1313 
Q 434 1759 690 2068 
Q 947 2378 1403 2484 
z
M 1172 3481 
Q 1172 3119 1398 2916 
Q 1625 2713 2034 2713 
Q 2441 2713 2670 2916 
Q 2900 3119 2900 3481 
Q 2900 3844 2670 4047 
Q 2441 4250 2034 4250 
Q 1625 4250 1398 4047 
Q 1172 3844 1172 3481 
z
" transform="scale(0.015625)"/>
        <path id="DejaVuSans-30" d="M 2034 4250 
Q 1547 4250 1301 3770 
Q 1056 3291 1056 2328 
Q 1056 1369 1301 889 
Q 1547 409 2034 409 
Q 2525 409 2770 889 
Q 3016 1369 3016 2328 
Q 3016 3291 2770 3770 
Q 2525 4250 2034 4250 
z
M 2034 4750 
Q 2819 4750 3233 4129 
Q 3647 3509 3647 2328 
Q 3647 1150 3233 529 
Q 2819 -91 2034 -91 
Q 1250 -91 836 529 
Q 422 1150 422 2328 
Q 422 3509 836 4129 
Q 1250 4750 2034 4750 
z
" transform="scale(0.015625)"/>
       </defs>
       <use xlink:href="#DejaVuSans-2212"/>
       <use xlink:href="#DejaVuSans-38" x="83.789062"/>
       <use xlink:href="#DejaVuSans-30" x="147.412109"/>
      </g>
     </g>
    </g>
    <g id="xtick_2">
     <g id="line2d_2">
      <g>
       <use xlink:href="#md909c61136" x="174.67375" y="499.48" style="stroke: #000000; stroke-width: 0.8"/>
      </g>
     </g>
     <g id="text_2">
      <!-- −60 -->
      <g transform="translate(151.458594 523.196563) scale(0.22 -0.22)">
       <defs>
        <path id="DejaVuSans-36" d="M 2113 2584 
Q 1688 2584 1439 2293 
Q 1191 2003 1191 1497 
Q 1191 994 1439 701 
Q 1688 409 2113 409 
Q 2538 409 2786 701 
Q 3034 994 3034 1497 
Q 3034 2003 2786 2293 
Q 2538 2584 2113 2584 
z
M 3366 4563 
L 3366 3988 
Q 3128 4100 2886 4159 
Q 2644 4219 2406 4219 
Q 1781 4219 1451 3797 
Q 1122 3375 1075 2522 
Q 1259 2794 1537 2939 
Q 1816 3084 2150 3084 
Q 2853 3084 3261 2657 
Q 3669 2231 3669 1497 
Q 3669 778 3244 343 
Q 2819 -91 2113 -91 
Q 1303 -91 875 529 
Q 447 1150 447 2328 
Q 447 3434 972 4092 
Q 1497 4750 2381 4750 
Q 2619 4750 2861 4703 
Q 3103 4656 3366 4563 
z
" transform="scale(0.015625)"/>
       </defs>
       <use xlink:href="#DejaVuSans-2212"/>
       <use xlink:href="#DejaVuSans-36" x="83.789062"/>
       <use xlink:href="#DejaVuSans-30" x="147.412109"/>
      </g>
     </g>
    </g>
    <g id="xtick_3">
     <g id="line2d_3">
      <g>
       <use xlink:href="#md909c61136" x="247.1775" y="499.48" style="stroke: #000000; stroke-width: 0.8"/>
      </g>
     </g>
     <g id="text_3">
      <!-- −40 -->
      <g transform="translate(223.962344 523.196563) scale(0.22 -0.22)">
       <defs>
        <path id="DejaVuSans-34" d="M 2419 4116 
L 825 1625 
L 2419 1625 
L 2419 4116 
z
M 2253 4666 
L 3047 4666 
L 3047 1625 
L 3713 1625 
L 3713 1100 
L 3047 1100 
L 3047 0 
L 2419 0 
L 2419 1100 
L 313 1100 
L 313 1709 
L 2253 4666 
z
" transform="scale(0.015625)"/>
       </defs>
       <use xlink:href="#DejaVuSans-2212"/>
       <use xlink:href="#DejaVuSans-34" x="83.789062"/>
       <use xlink:href="#DejaVuSans-30" x="147.412109"/>
      </g>
     </g>
    </g>
    <g id="xtick_4">
     <g id="line2d_4">
      <g>
       <use xlink:href="#md909c61136" x="319.68125" y="499.48" style="stroke: #000000; stroke-width: 0.8"/>
      </g>
     </g>
     <g id="text_4">
      <!-- −20 -->
      <g transform="translate(296.466094 523.196563) scale(0.22 -0.22)">
       <defs>
        <path id="DejaVuSans-32" d="M 1228 531 
L 3431 531 
L 3431 0 
L 469 0 
L 469 531 
Q 828 903 1448 1529 
Q 2069 2156 2228 2338 
Q 2531 2678 2651 2914 
Q 2772 3150 2772 3378 
Q 2772 3750 2511 3984 
Q 2250 4219 1831 4219 
Q 1534 4219 1204 4116 
Q 875 4013 500 3803 
L 500 4441 
Q 881 4594 1212 4672 
Q 1544 4750 1819 4750 
Q 2544 4750 2975 4387 
Q 3406 4025 3406 3419 
Q 3406 3131 3298 2873 
Q 3191 2616 2906 2266 
Q 2828 2175 2409 1742 
Q 1991 1309 1228 531 
z
" transform="scale(0.015625)"/>
       </defs>
       <use xlink:href="#DejaVuSans-2212"/>
       <use xlink:href="#DejaVuSans-32" x="83.789062"/>
       <use xlink:href="#DejaVuSans-30" x="147.412109"/>
      </g>
     </g>
    </g>
    <g id="xtick_5">
     <g id="line2d_5">
      <g>
       <use xlink:href="#md909c61136" x="392.185" y="499.48" style="stroke: #000000; stroke-width: 0.8"/>
      </g>
     </g>
     <g id="text_5">
      <!-- 0 -->
      <g transform="translate(385.18625 523.196563) scale(0.22 -0.22)">
       <use xlink:href="#DejaVuSans-30"/>
      </g>
     </g>
    </g>
    <g id="xtick_6">
     <g id="line2d_6">
      <g>
       <use xlink:href="#md909c61136" x="464.68875" y="499.48" style="stroke: #000000; stroke-width: 0.8"/>
      </g>
     </g>
     <g id="text_6">
      <!-- 20 -->
      <g transform="translate(450.69125 523.196563) scale(0.22 -0.22)">
       <use xlink:href="#DejaVuSans-32"/>
       <use xlink:href="#DejaVuSans-30" x="63.623047"/>
      </g>
     </g>
    </g>
    <g id="xtick_7">
     <g id="line2d_7">
      <g>
       <use xlink:href="#md909c61136" x="537.1925" y="499.48" style="stroke: #000000; stroke-width: 0.8"/>
      </g>
     </g>
     <g id="text_7">
      <!-- 40 -->
      <g transform="translate(523.195 523.196563) scale(0.22 -0.22)">
       <use xlink:href="#DejaVuSans-34"/>
       <use xlink:href="#DejaVuSans-30" x="63.623047"/>
      </g>
     </g>
    </g>
    <g id="xtick_8">
     <g id="line2d_8">
      <g>
       <use xlink:href="#md909c61136" x="609.69625" y="499.48" style="stroke: #000000; stroke-width: 0.8"/>
      </g>
     </g>
     <g id="text_8">
      <!-- 60 -->
      <g transform="translate(595.69875 523.196563) scale(0.22 -0.22)">
       <use xlink:href="#DejaVuSans-36"/>
       <use xlink:href="#DejaVuSans-30" x="63.623047"/>
      </g>
     </g>
    </g>
    <g id="xtick_9">
     <g id="line2d_9">
      <g>
       <use xlink:href="#md909c61136" x="682.2" y="499.48" style="stroke: #000000; stroke-width: 0.8"/>
      </g>
     </g>
     <g id="text_9">
      <!-- 80 -->
      <g transform="translate(668.2025 523.196563) scale(0.22 -0.22)">
       <use xlink:href="#DejaVuSans-38"/>
       <use xlink:href="#DejaVuSans-30" x="63.623047"/>
      </g>
     </g>
    </g>
    <g id="text_10">
     <!-- Ground Truth Energy [kJ/mol] -->
     <g transform="translate(232.45125 548.488438) scale(0.22 -0.22)">
      <defs>
       <path id="DejaVuSans-47" d="M 3809 666 
L 3809 1919 
L 2778 1919 
L 2778 2438 
L 4434 2438 
L 4434 434 
Q 4069 175 3628 42 
Q 3188 -91 2688 -91 
Q 1594 -91 976 548 
Q 359 1188 359 2328 
Q 359 3472 976 4111 
Q 1594 4750 2688 4750 
Q 3144 4750 3555 4637 
Q 3966 4525 4313 4306 
L 4313 3634 
Q 3963 3931 3569 4081 
Q 3175 4231 2741 4231 
Q 1884 4231 1454 3753 
Q 1025 3275 1025 2328 
Q 1025 1384 1454 906 
Q 1884 428 2741 428 
Q 3075 428 3337 486 
Q 3600 544 3809 666 
z
" transform="scale(0.015625)"/>
       <path id="DejaVuSans-72" d="M 2631 2963 
Q 2534 3019 2420 3045 
Q 2306 3072 2169 3072 
Q 1681 3072 1420 2755 
Q 1159 2438 1159 1844 
L 1159 0 
L 581 0 
L 581 3500 
L 1159 3500 
L 1159 2956 
Q 1341 3275 1631 3429 
Q 1922 3584 2338 3584 
Q 2397 3584 2469 3576 
Q 2541 3569 2628 3553 
L 2631 2963 
z
" transform="scale(0.015625)"/>
       <path id="DejaVuSans-6f" d="M 1959 3097 
Q 1497 3097 1228 2736 
Q 959 2375 959 1747 
Q 959 1119 1226 758 
Q 1494 397 1959 397 
Q 2419 397 2687 759 
Q 2956 1122 2956 1747 
Q 2956 2369 2687 2733 
Q 2419 3097 1959 3097 
z
M 1959 3584 
Q 2709 3584 3137 3096 
Q 3566 2609 3566 1747 
Q 3566 888 3137 398 
Q 2709 -91 1959 -91 
Q 1206 -91 779 398 
Q 353 888 353 1747 
Q 353 2609 779 3096 
Q 1206 3584 1959 3584 
z
" transform="scale(0.015625)"/>
       <path id="DejaVuSans-75" d="M 544 1381 
L 544 3500 
L 1119 3500 
L 1119 1403 
Q 1119 906 1312 657 
Q 1506 409 1894 409 
Q 2359 409 2629 706 
Q 2900 1003 2900 1516 
L 2900 3500 
L 3475 3500 
L 3475 0 
L 2900 0 
L 2900 538 
Q 2691 219 2414 64 
Q 2138 -91 1772 -91 
Q 1169 -91 856 284 
Q 544 659 544 1381 
z
M 1991 3584 
L 1991 3584 
z
" transform="scale(0.015625)"/>
       <path id="DejaVuSans-6e" d="M 3513 2113 
L 3513 0 
L 2938 0 
L 2938 2094 
Q 2938 2591 2744 2837 
Q 2550 3084 2163 3084 
Q 1697 3084 1428 2787 
Q 1159 2491 1159 1978 
L 1159 0 
L 581 0 
L 581 3500 
L 1159 3500 
L 1159 2956 
Q 1366 3272 1645 3428 
Q 1925 3584 2291 3584 
Q 2894 3584 3203 3211 
Q 3513 2838 3513 2113 
z
" transform="scale(0.015625)"/>
       <path id="DejaVuSans-64" d="M 2906 2969 
L 2906 4863 
L 3481 4863 
L 3481 0 
L 2906 0 
L 2906 525 
Q 2725 213 2448 61 
Q 2172 -91 1784 -91 
Q 1150 -91 751 415 
Q 353 922 353 1747 
Q 353 2572 751 3078 
Q 1150 3584 1784 3584 
Q 2172 3584 2448 3432 
Q 2725 3281 2906 2969 
z
M 947 1747 
Q 947 1113 1208 752 
Q 1469 391 1925 391 
Q 2381 391 2643 752 
Q 2906 1113 2906 1747 
Q 2906 2381 2643 2742 
Q 2381 3103 1925 3103 
Q 1469 3103 1208 2742 
Q 947 2381 947 1747 
z
" transform="scale(0.015625)"/>
       <path id="DejaVuSans-20" transform="scale(0.015625)"/>
       <path id="DejaVuSans-54" d="M -19 4666 
L 3928 4666 
L 3928 4134 
L 2272 4134 
L 2272 0 
L 1638 0 
L 1638 4134 
L -19 4134 
L -19 4666 
z
" transform="scale(0.015625)"/>
       <path id="DejaVuSans-74" d="M 1172 4494 
L 1172 3500 
L 2356 3500 
L 2356 3053 
L 1172 3053 
L 1172 1153 
Q 1172 725 1289 603 
Q 1406 481 1766 481 
L 2356 481 
L 2356 0 
L 1766 0 
Q 1100 0 847 248 
Q 594 497 594 1153 
L 594 3053 
L 172 3053 
L 172 3500 
L 594 3500 
L 594 4494 
L 1172 4494 
z
" transform="scale(0.015625)"/>
       <path id="DejaVuSans-68" d="M 3513 2113 
L 3513 0 
L 2938 0 
L 2938 2094 
Q 2938 2591 2744 2837 
Q 2550 3084 2163 3084 
Q 1697 3084 1428 2787 
Q 1159 2491 1159 1978 
L 1159 0 
L 581 0 
L 581 4863 
L 1159 4863 
L 1159 2956 
Q 1366 3272 1645 3428 
Q 1925 3584 2291 3584 
Q 2894 3584 3203 3211 
Q 3513 2838 3513 2113 
z
" transform="scale(0.015625)"/>
       <path id="DejaVuSans-45" d="M 628 4666 
L 3578 4666 
L 3578 4134 
L 1259 4134 
L 1259 2753 
L 3481 2753 
L 3481 2222 
L 1259 2222 
L 1259 531 
L 3634 531 
L 3634 0 
L 628 0 
L 628 4666 
z
" transform="scale(0.015625)"/>
       <path id="DejaVuSans-65" d="M 3597 1894 
L 3597 1613 
L 953 1613 
Q 991 1019 1311 708 
Q 1631 397 2203 397 
Q 2534 397 2845 478 
Q 3156 559 3463 722 
L 3463 178 
Q 3153 47 2828 -22 
Q 2503 -91 2169 -91 
Q 1331 -91 842 396 
Q 353 884 353 1716 
Q 353 2575 817 3079 
Q 1281 3584 2069 3584 
Q 2775 3584 3186 3129 
Q 3597 2675 3597 1894 
z
M 3022 2063 
Q 3016 2534 2758 2815 
Q 2500 3097 2075 3097 
Q 1594 3097 1305 2825 
Q 1016 2553 972 2059 
L 3022 2063 
z
" transform="scale(0.015625)"/>
       <path id="DejaVuSans-67" d="M 2906 1791 
Q 2906 2416 2648 2759 
Q 2391 3103 1925 3103 
Q 1463 3103 1205 2759 
Q 947 2416 947 1791 
Q 947 1169 1205 825 
Q 1463 481 1925 481 
Q 2391 481 2648 825 
Q 2906 1169 2906 1791 
z
M 3481 434 
Q 3481 -459 3084 -895 
Q 2688 -1331 1869 -1331 
Q 1566 -1331 1297 -1286 
Q 1028 -1241 775 -1147 
L 775 -588 
Q 1028 -725 1275 -790 
Q 1522 -856 1778 -856 
Q 2344 -856 2625 -561 
Q 2906 -266 2906 331 
L 2906 616 
Q 2728 306 2450 153 
Q 2172 0 1784 0 
Q 1141 0 747 490 
Q 353 981 353 1791 
Q 353 2603 747 3093 
Q 1141 3584 1784 3584 
Q 2172 3584 2450 3431 
Q 2728 3278 2906 2969 
L 2906 3500 
L 3481 3500 
L 3481 434 
z
" transform="scale(0.015625)"/>
       <path id="DejaVuSans-79" d="M 2059 -325 
Q 1816 -950 1584 -1140 
Q 1353 -1331 966 -1331 
L 506 -1331 
L 506 -850 
L 844 -850 
Q 1081 -850 1212 -737 
Q 1344 -625 1503 -206 
L 1606 56 
L 191 3500 
L 800 3500 
L 1894 763 
L 2988 3500 
L 3597 3500 
L 2059 -325 
z
" transform="scale(0.015625)"/>
       <path id="DejaVuSans-5b" d="M 550 4863 
L 1875 4863 
L 1875 4416 
L 1125 4416 
L 1125 -397 
L 1875 -397 
L 1875 -844 
L 550 -844 
L 550 4863 
z
" transform="scale(0.015625)"/>
       <path id="DejaVuSans-6b" d="M 581 4863 
L 1159 4863 
L 1159 1991 
L 2875 3500 
L 3609 3500 
L 1753 1863 
L 3688 0 
L 2938 0 
L 1159 1709 
L 1159 0 
L 581 0 
L 581 4863 
z
" transform="scale(0.015625)"/>
       <path id="DejaVuSans-4a" d="M 628 4666 
L 1259 4666 
L 1259 325 
Q 1259 -519 939 -900 
Q 619 -1281 -91 -1281 
L -331 -1281 
L -331 -750 
L -134 -750 
Q 284 -750 456 -515 
Q 628 -281 628 325 
L 628 4666 
z
" transform="scale(0.015625)"/>
       <path id="DejaVuSans-2f" d="M 1625 4666 
L 2156 4666 
L 531 -594 
L 0 -594 
L 1625 4666 
z
" transform="scale(0.015625)"/>
       <path id="DejaVuSans-6d" d="M 3328 2828 
Q 3544 3216 3844 3400 
Q 4144 3584 4550 3584 
Q 5097 3584 5394 3201 
Q 5691 2819 5691 2113 
L 5691 0 
L 5113 0 
L 5113 2094 
Q 5113 2597 4934 2840 
Q 4756 3084 4391 3084 
Q 3944 3084 3684 2787 
Q 3425 2491 3425 1978 
L 3425 0 
L 2847 0 
L 2847 2094 
Q 2847 2600 2669 2842 
Q 2491 3084 2119 3084 
Q 1678 3084 1418 2786 
Q 1159 2488 1159 1978 
L 1159 0 
L 581 0 
L 581 3500 
L 1159 3500 
L 1159 2956 
Q 1356 3278 1631 3431 
Q 1906 3584 2284 3584 
Q 2666 3584 2933 3390 
Q 3200 3197 3328 2828 
z
" transform="scale(0.015625)"/>
       <path id="DejaVuSans-6c" d="M 603 4863 
L 1178 4863 
L 1178 0 
L 603 0 
L 603 4863 
z
" transform="scale(0.015625)"/>
       <path id="DejaVuSans-5d" d="M 1947 4863 
L 1947 -844 
L 622 -844 
L 622 -397 
L 1369 -397 
L 1369 4416 
L 622 4416 
L 622 4863 
L 1947 4863 
z
" transform="scale(0.015625)"/>
      </defs>
      <use xlink:href="#DejaVuSans-47"/>
      <use xlink:href="#DejaVuSans-72" x="77.490234"/>
      <use xlink:href="#DejaVuSans-6f" x="116.353516"/>
      <use xlink:href="#DejaVuSans-75" x="177.535156"/>
      <use xlink:href="#DejaVuSans-6e" x="240.914062"/>
      <use xlink:href="#DejaVuSans-64" x="304.292969"/>
      <use xlink:href="#DejaVuSans-20" x="367.769531"/>
      <use xlink:href="#DejaVuSans-54" x="399.556641"/>
      <use xlink:href="#DejaVuSans-72" x="445.890625"/>
      <use xlink:href="#DejaVuSans-75" x="487.003906"/>
      <use xlink:href="#DejaVuSans-74" x="550.382812"/>
      <use xlink:href="#DejaVuSans-68" x="589.591797"/>
      <use xlink:href="#DejaVuSans-20" x="652.970703"/>
      <use xlink:href="#DejaVuSans-45" x="684.757812"/>
      <use xlink:href="#DejaVuSans-6e" x="747.941406"/>
      <use xlink:href="#DejaVuSans-65" x="811.320312"/>
      <use xlink:href="#DejaVuSans-72" x="872.84375"/>
      <use xlink:href="#DejaVuSans-67" x="912.207031"/>
      <use xlink:href="#DejaVuSans-79" x="975.683594"/>
      <use xlink:href="#DejaVuSans-20" x="1034.863281"/>
      <use xlink:href="#DejaVuSans-5b" x="1066.650391"/>
      <use xlink:href="#DejaVuSans-6b" x="1105.664062"/>
      <use xlink:href="#DejaVuSans-4a" x="1163.574219"/>
      <use xlink:href="#DejaVuSans-2f" x="1193.066406"/>
      <use xlink:href="#DejaVuSans-6d" x="1226.757812"/>
      <use xlink:href="#DejaVuSans-6f" x="1324.169922"/>
      <use xlink:href="#DejaVuSans-6c" x="1385.351562"/>
      <use xlink:href="#DejaVuSans-5d" x="1413.134766"/>
     </g>
    </g>
   </g>
   <g id="matplotlib.axis_2">
    <g id="ytick_1">
     <g id="line2d_10">
      <defs>
       <path id="m6b148ed122" d="M 0 0 
L -3.5 0 
" style="stroke: #000000; stroke-width: 0.8"/>
      </defs>
      <g>
       <use xlink:href="#m6b148ed122" x="102.17" y="499.48" style="stroke: #000000; stroke-width: 0.8"/>
      </g>
     </g>
     <g id="text_11">
      <!-- −80 -->
      <g transform="translate(48.739688 507.838281) scale(0.22 -0.22)">
       <use xlink:href="#DejaVuSans-2212"/>
       <use xlink:href="#DejaVuSans-38" x="83.789062"/>
       <use xlink:href="#DejaVuSans-30" x="147.412109"/>
      </g>
     </g>
    </g>
    <g id="ytick_2">
     <g id="line2d_11">
      <g>
       <use xlink:href="#m6b148ed122" x="102.17" y="441.05" style="stroke: #000000; stroke-width: 0.8"/>
      </g>
     </g>
     <g id="text_12">
      <!-- −60 -->
      <g transform="translate(48.739688 449.408281) scale(0.22 -0.22)">
       <use xlink:href="#DejaVuSans-2212"/>
       <use xlink:href="#DejaVuSans-36" x="83.789062"/>
       <use xlink:href="#DejaVuSans-30" x="147.412109"/>
      </g>
     </g>
    </g>
    <g id="ytick_3">
     <g id="line2d_12">
      <g>
       <use xlink:href="#m6b148ed122" x="102.17" y="382.62" style="stroke: #000000; stroke-width: 0.8"/>
      </g>
     </g>
     <g id="text_13">
      <!-- −40 -->
      <g transform="translate(48.739688 390.978281) scale(0.22 -0.22)">
       <use xlink:href="#DejaVuSans-2212"/>
       <use xlink:href="#DejaVuSans-34" x="83.789062"/>
       <use xlink:href="#DejaVuSans-30" x="147.412109"/>
      </g>
     </g>
    </g>
    <g id="ytick_4">
     <g id="line2d_13">
      <g>
       <use xlink:href="#m6b148ed122" x="102.17" y="324.19" style="stroke: #000000; stroke-width: 0.8"/>
      </g>
     </g>
     <g id="text_14">
      <!-- −20 -->
      <g transform="translate(48.739688 332.548281) scale(0.22 -0.22)">
       <use xlink:href="#DejaVuSans-2212"/>
       <use xlink:href="#DejaVuSans-32" x="83.789062"/>
       <use xlink:href="#DejaVuSans-30" x="147.412109"/>
      </g>
     </g>
    </g>
    <g id="ytick_5">
     <g id="line2d_14">
      <g>
       <use xlink:href="#m6b148ed122" x="102.17" y="265.76" style="stroke: #000000; stroke-width: 0.8"/>
      </g>
     </g>
     <g id="text_15">
      <!-- 0 -->
      <g transform="translate(81.1725 274.118281) scale(0.22 -0.22)">
       <use xlink:href="#DejaVuSans-30"/>
      </g>
     </g>
    </g>
    <g id="ytick_6">
     <g id="line2d_15">
      <g>
       <use xlink:href="#m6b148ed122" x="102.17" y="207.33" style="stroke: #000000; stroke-width: 0.8"/>
      </g>
     </g>
     <g id="text_16">
      <!-- 20 -->
      <g transform="translate(67.175 215.688281) scale(0.22 -0.22)">
       <use xlink:href="#DejaVuSans-32"/>
       <use xlink:href="#DejaVuSans-30" x="63.623047"/>
      </g>
     </g>
    </g>
    <g id="ytick_7">
     <g id="line2d_16">
      <g>
       <use xlink:href="#m6b148ed122" x="102.17" y="148.9" style="stroke: #000000; stroke-width: 0.8"/>
      </g>
     </g>
     <g id="text_17">
      <!-- 40 -->
      <g transform="translate(67.175 157.258281) scale(0.22 -0.22)">
       <use xlink:href="#DejaVuSans-34"/>
       <use xlink:href="#DejaVuSans-30" x="63.623047"/>
      </g>
     </g>
    </g>
    <g id="ytick_8">
     <g id="line2d_17">
      <g>
       <use xlink:href="#m6b148ed122" x="102.17" y="90.47" style="stroke: #000000; stroke-width: 0.8"/>
      </g>
     </g>
     <g id="text_18">
      <!-- 60 -->
      <g transform="translate(67.175 98.828281) scale(0.22 -0.22)">
       <use xlink:href="#DejaVuSans-36"/>
       <use xlink:href="#DejaVuSans-30" x="63.623047"/>
      </g>
     </g>
    </g>
    <g id="ytick_9">
     <g id="line2d_18">
      <g>
       <use xlink:href="#m6b148ed122" x="102.17" y="32.04" style="stroke: #000000; stroke-width: 0.8"/>
      </g>
     </g>
     <g id="text_19">
      <!-- 80 -->
      <g transform="translate(67.175 40.398281) scale(0.22 -0.22)">
       <use xlink:href="#DejaVuSans-38"/>
       <use xlink:href="#DejaVuSans-30" x="63.623047"/>
      </g>
     </g>
    </g>
    <g id="text_20">
     <!-- Predicted Energy [kJ/mol] -->
     <g transform="translate(40.164375 405.305313) rotate(-90) scale(0.22 -0.22)">
      <defs>
       <path id="DejaVuSans-50" d="M 1259 4147 
L 1259 2394 
L 2053 2394 
Q 2494 2394 2734 2622 
Q 2975 2850 2975 3272 
Q 2975 3691 2734 3919 
Q 2494 4147 2053 4147 
L 1259 4147 
z
M 628 4666 
L 2053 4666 
Q 2838 4666 3239 4311 
Q 3641 3956 3641 3272 
Q 3641 2581 3239 2228 
Q 2838 1875 2053 1875 
L 1259 1875 
L 1259 0 
L 628 0 
L 628 4666 
z
" transform="scale(0.015625)"/>
       <path id="DejaVuSans-69" d="M 603 3500 
L 1178 3500 
L 1178 0 
L 603 0 
L 603 3500 
z
M 603 4863 
L 1178 4863 
L 1178 4134 
L 603 4134 
L 603 4863 
z
" transform="scale(0.015625)"/>
       <path id="DejaVuSans-63" d="M 3122 3366 
L 3122 2828 
Q 2878 2963 2633 3030 
Q 2388 3097 2138 3097 
Q 1578 3097 1268 2742 
Q 959 2388 959 1747 
Q 959 1106 1268 751 
Q 1578 397 2138 397 
Q 2388 397 2633 464 
Q 2878 531 3122 666 
L 3122 134 
Q 2881 22 2623 -34 
Q 2366 -91 2075 -91 
Q 1284 -91 818 406 
Q 353 903 353 1747 
Q 353 2603 823 3093 
Q 1294 3584 2113 3584 
Q 2378 3584 2631 3529 
Q 2884 3475 3122 3366 
z
" transform="scale(0.015625)"/>
      </defs>
      <use xlink:href="#DejaVuSans-50"/>
      <use xlink:href="#DejaVuSans-72" x="58.552734"/>
      <use xlink:href="#DejaVuSans-65" x="97.416016"/>
      <use xlink:href="#DejaVuSans-64" x="158.939453"/>
      <use xlink:href="#DejaVuSans-69" x="222.416016"/>
      <use xlink:href="#DejaVuSans-63" x="250.199219"/>
      <use xlink:href="#DejaVuSans-74" x="305.179688"/>
      <use xlink:href="#DejaVuSans-65" x="344.388672"/>
      <use xlink:href="#DejaVuSans-64" x="405.912109"/>
      <use xlink:href="#DejaVuSans-20" x="469.388672"/>
      <use xlink:href="#DejaVuSans-45" x="501.175781"/>
      <use xlink:href="#DejaVuSans-6e" x="564.359375"/>
      <use xlink:href="#DejaVuSans-65" x="627.738281"/>
      <use xlink:href="#DejaVuSans-72" x="689.261719"/>
      <use xlink:href="#DejaVuSans-67" x="728.625"/>
      <use xlink:href="#DejaVuSans-79" x="792.101562"/>
      <use xlink:href="#DejaVuSans-20" x="851.28125"/>
      <use xlink:href="#DejaVuSans-5b" x="883.068359"/>
      <use xlink:href="#DejaVuSans-6b" x="922.082031"/>
      <use xlink:href="#DejaVuSans-4a" x="979.992188"/>
      <use xlink:href="#DejaVuSans-2f" x="1009.484375"/>
      <use xlink:href="#DejaVuSans-6d" x="1043.175781"/>
      <use xlink:href="#DejaVuSans-6f" x="1140.587891"/>
      <use xlink:href="#DejaVuSans-6c" x="1201.769531"/>
      <use xlink:href="#DejaVuSans-5d" x="1229.552734"/>
     </g>
    </g>
   </g>
   <g id="line2d_19">
    <path d="M 102.17 499.48 
L 682.2 32.04 
" clip-path="url(#pf4c001b639)" style="fill: none; stroke-dasharray: 5.55,2.4; stroke-dashoffset: 0; stroke: #ff0000; stroke-width: 1.5"/>
   </g>
   <g id="patch_3">
    <path d="M 102.17 499.48 
L 102.17 32.04 
" style="fill: none; stroke: #000000; stroke-width: 0.8; stroke-linejoin: miter; stroke-linecap: square"/>
   </g>
   <g id="patch_4">
    <path d="M 682.2 499.48 
L 682.2 32.04 
" style="fill: none; stroke: #000000; stroke-width: 0.8; stroke-linejoin: miter; stroke-linecap: square"/>
   </g>
   <g id="patch_5">
    <path d="M 102.17 499.48 
L 682.2 499.48 
" style="fill: none; stroke: #000000; stroke-width: 0.8; stroke-linejoin: miter; stroke-linecap: square"/>
   </g>
   <g id="patch_6">
    <path d="M 102.17 32.04 
L 682.2 32.04 
" style="fill: none; stroke: #000000; stroke-width: 0.8; stroke-linejoin: miter; stroke-linecap: square"/>
   </g>
   <g id="text_21">
    <!-- R2 Score: 0.973 -->
    <g transform="translate(160.173 78.784) scale(0.22 -0.22)">
     <defs>
      <path id="DejaVuSans-52" d="M 2841 2188 
Q 3044 2119 3236 1894 
Q 3428 1669 3622 1275 
L 4263 0 
L 3584 0 
L 2988 1197 
Q 2756 1666 2539 1819 
Q 2322 1972 1947 1972 
L 1259 1972 
L 1259 0 
L 628 0 
L 628 4666 
L 2053 4666 
Q 2853 4666 3247 4331 
Q 3641 3997 3641 3322 
Q 3641 2881 3436 2590 
Q 3231 2300 2841 2188 
z
M 1259 4147 
L 1259 2491 
L 2053 2491 
Q 2509 2491 2742 2702 
Q 2975 2913 2975 3322 
Q 2975 3731 2742 3939 
Q 2509 4147 2053 4147 
L 1259 4147 
z
" transform="scale(0.015625)"/>
      <path id="DejaVuSans-53" d="M 3425 4513 
L 3425 3897 
Q 3066 4069 2747 4153 
Q 2428 4238 2131 4238 
Q 1616 4238 1336 4038 
Q 1056 3838 1056 3469 
Q 1056 3159 1242 3001 
Q 1428 2844 1947 2747 
L 2328 2669 
Q 3034 2534 3370 2195 
Q 3706 1856 3706 1288 
Q 3706 609 3251 259 
Q 2797 -91 1919 -91 
Q 1588 -91 1214 -16 
Q 841 59 441 206 
L 441 856 
Q 825 641 1194 531 
Q 1563 422 1919 422 
Q 2459 422 2753 634 
Q 3047 847 3047 1241 
Q 3047 1584 2836 1778 
Q 2625 1972 2144 2069 
L 1759 2144 
Q 1053 2284 737 2584 
Q 422 2884 422 3419 
Q 422 4038 858 4394 
Q 1294 4750 2059 4750 
Q 2388 4750 2728 4690 
Q 3069 4631 3425 4513 
z
" transform="scale(0.015625)"/>
      <path id="DejaVuSans-3a" d="M 750 794 
L 1409 794 
L 1409 0 
L 750 0 
L 750 794 
z
M 750 3309 
L 1409 3309 
L 1409 2516 
L 750 2516 
L 750 3309 
z
" transform="scale(0.015625)"/>
      <path id="DejaVuSans-2e" d="M 684 794 
L 1344 794 
L 1344 0 
L 684 0 
L 684 794 
z
" transform="scale(0.015625)"/>
      <path id="DejaVuSans-39" d="M 703 97 
L 703 672 
Q 941 559 1184 500 
Q 1428 441 1663 441 
Q 2288 441 2617 861 
Q 2947 1281 2994 2138 
Q 2813 1869 2534 1725 
Q 2256 1581 1919 1581 
Q 1219 1581 811 2004 
Q 403 2428 403 3163 
Q 403 3881 828 4315 
Q 1253 4750 1959 4750 
Q 2769 4750 3195 4129 
Q 3622 3509 3622 2328 
Q 3622 1225 3098 567 
Q 2575 -91 1691 -91 
Q 1453 -91 1209 -44 
Q 966 3 703 97 
z
M 1959 2075 
Q 2384 2075 2632 2365 
Q 2881 2656 2881 3163 
Q 2881 3666 2632 3958 
Q 2384 4250 1959 4250 
Q 1534 4250 1286 3958 
Q 1038 3666 1038 3163 
Q 1038 2656 1286 2365 
Q 1534 2075 1959 2075 
z
" transform="scale(0.015625)"/>
      <path id="DejaVuSans-37" d="M 525 4666 
L 3525 4666 
L 3525 4397 
L 1831 0 
L 1172 0 
L 2766 4134 
L 525 4134 
L 525 4666 
z
" transform="scale(0.015625)"/>
      <path id="DejaVuSans-33" d="M 2597 2516 
Q 3050 2419 3304 2112 
Q 3559 1806 3559 1356 
Q 3559 666 3084 287 
Q 2609 -91 1734 -91 
Q 1441 -91 1130 -33 
Q 819 25 488 141 
L 488 750 
Q 750 597 1062 519 
Q 1375 441 1716 441 
Q 2309 441 2620 675 
Q 2931 909 2931 1356 
Q 2931 1769 2642 2001 
Q 2353 2234 1838 2234 
L 1294 2234 
L 1294 2753 
L 1863 2753 
Q 2328 2753 2575 2939 
Q 2822 3125 2822 3475 
Q 2822 3834 2567 4026 
Q 2313 4219 1838 4219 
Q 1578 4219 1281 4162 
Q 984 4106 628 3988 
L 628 4550 
Q 988 4650 1302 4700 
Q 1616 4750 1894 4750 
Q 2613 4750 3031 4423 
Q 3450 4097 3450 3541 
Q 3450 3153 3228 2886 
Q 3006 2619 2597 2516 
z
" transform="scale(0.015625)"/>
     </defs>
     <use xlink:href="#DejaVuSans-52"/>
     <use xlink:href="#DejaVuSans-32" x="69.482422"/>
     <use xlink:href="#DejaVuSans-20" x="133.105469"/>
     <use xlink:href="#DejaVuSans-53" x="164.892578"/>
     <use xlink:href="#DejaVuSans-63" x="228.369141"/>
     <use xlink:href="#DejaVuSans-6f" x="283.349609"/>
     <use xlink:href="#DejaVuSans-72" x="344.53125"/>
     <use xlink:href="#DejaVuSans-65" x="383.394531"/>
     <use xlink:href="#DejaVuSans-3a" x="444.917969"/>
     <use xlink:href="#DejaVuSans-20" x="478.609375"/>
     <use xlink:href="#DejaVuSans-30" x="510.396484"/>
     <use xlink:href="#DejaVuSans-2e" x="574.019531"/>
     <use xlink:href="#DejaVuSans-39" x="605.806641"/>
     <use xlink:href="#DejaVuSans-37" x="669.429688"/>
     <use xlink:href="#DejaVuSans-33" x="733.052734"/>
    </g>
   </g>
  </g>
 </g>
 <defs>
  <clipPath id="pf4c001b639">
   <rect x="102.17" y="32.04" width="580.03" height="467.44"/>
  </clipPath>
 </defs>
</svg>
