<?xml version="1.0" encoding="utf-8" standalone="no"?>
<!DOCTYPE svg PUBLIC "-//W3C//DTD SVG 1.1//EN"
  "http://www.w3.org/Graphics/SVG/1.1/DTD/svg11.dtd">
<svg xmlns:xlink="http://www.w3.org/1999/xlink" width="720pt" height="576pt" viewBox="0 0 720 576" xmlns="http://www.w3.org/2000/svg" version="1.1">
 <metadata>
  <rdf:RDF xmlns:dc="http://purl.org/dc/elements/1.1/" xmlns:cc="http://creativecommons.org/ns#" xmlns:rdf="http://www.w3.org/1999/02/22-rdf-syntax-ns#">
   <cc:Work>
    <dc:type rdf:resource="http://purl.org/dc/dcmitype/StillImage"/>
    <dc:date>2024-12-07T22:40:10.136357</dc:date>
    <dc:format>image/svg+xml</dc:format>
    <dc:creator>
     <cc:Agent>
      <dc:title>Matplotlib v3.8.4, https://matplotlib.org/</dc:title>
     </cc:Agent>
    </dc:creator>
   </cc:Work>
  </rdf:RDF>
 </metadata>
 <defs>
  <style type="text/css">*{stroke-linejoin: round; stroke-linecap: butt}</style>
 </defs>
 <g id="figure_1">
  <g id="patch_1">
   <path d="M 0 576 
L 720 576 
L 720 0 
L 0 0 
z
" style="fill: #ffffff"/>
  </g>
  <g id="axes_1">
   <g id="patch_2">
    <path d="M 83.72 499.48 
L 696.24 499.48 
L 696.24 23.76 
L 83.72 23.76 
z
" style="fill: #ffffff"/>
   </g>
   <g id="QuadContourSet_1">
    <path d="M 76.927295 499.631304 
L 81.468001 499.720388 
L 86.008706 499.782664 
L 90.549412 499.819551 
L 95.090117 499.831932 
L 99.630823 499.820185 
L 104.171529 499.784205 
L 108.712234 499.723402 
L 113.25294 499.636701 
L 114.310805 499.610704 
L 117.793645 499.574767 
L 122.334351 499.5163 
L 126.875057 499.444852 
L 131.415762 499.359104 
L 135.956468 499.257448 
L 140.497173 499.13796 
L 145.037879 498.998369 
L 149.578584 498.836027 
L 154.11929 498.647891 
L 158.659996 498.430509 
L 163.200701 498.180044 
L 167.741407 497.892323 
L 172.282112 497.562958 
L 176.822818 497.187536 
L 177.932216 497.091429 
L 181.363524 496.934288 
L 185.904229 496.706461 
L 190.444935 496.452953 
L 194.98564 496.173729 
L 199.526346 495.869932 
L 204.067052 495.544148 
L 208.607757 495.200536 
L 213.148463 494.844768 
L 216.645331 494.572153 
L 217.689168 494.521974 
L 222.229874 494.318607 
L 226.77058 494.120837 
L 231.311285 493.932004 
L 235.851991 493.754465 
L 240.392696 493.589362 
L 244.933402 493.436565 
L 249.474108 493.294786 
L 254.014813 493.161811 
L 258.555519 493.034779 
L 263.096224 492.910454 
L 267.63693 492.785452 
L 272.177636 492.656404 
L 276.718341 492.520059 
L 281.259047 492.373338 
L 285.799752 492.213354 
L 289.954537 492.052878 
L 290.340458 492.042034 
L 294.881164 491.905484 
L 299.421869 491.753941 
L 303.962575 491.585886 
L 308.50328 491.400004 
L 313.043986 491.195274 
L 317.584692 490.971088 
L 322.125397 490.727425 
L 326.666103 490.465084 
L 331.206808 490.185961 
L 335.747514 489.893379 
L 340.28822 489.592415 
L 341.209038 489.533602 
L 344.828925 489.312948 
L 349.369631 489.045145 
L 353.910336 488.793804 
L 358.451042 488.570944 
L 362.991748 488.389346 
L 367.532453 488.261289 
L 372.073159 488.196999 
L 376.613864 488.203116 
L 381.15457 488.281558 
L 385.695276 488.429114 
L 390.235981 488.637911 
L 394.776687 488.896607 
L 399.317392 489.191998 
L 403.858098 489.510633 
L 404.15738 489.533602 
L 408.398803 489.867768 
L 412.939509 490.228407 
L 417.480215 490.581659 
L 422.02092 490.921019 
L 426.561626 491.242096 
L 431.102331 491.54226 
L 435.643037 491.820255 
L 439.749366 492.052878 
L 440.183743 492.084538 
L 444.724448 492.407364 
L 449.265154 492.702229 
L 453.805859 492.970528 
L 458.346565 493.213862 
L 462.887271 493.43391 
L 467.427976 493.63235 
L 471.968682 493.810793 
L 476.509387 493.970754 
L 481.050093 494.11363 
L 485.590799 494.240687 
L 490.131504 494.353058 
L 494.67221 494.451746 
L 499.212915 494.537623 
L 501.304779 494.572153 
L 503.753621 494.63916 
L 508.294327 494.745604 
L 512.835032 494.83344 
L 517.375738 494.903319 
L 521.916443 494.955713 
L 526.457149 494.990914 
L 530.997855 495.00903 
L 535.53856 495.00998 
L 540.079266 494.993487 
L 544.619971 494.959061 
L 549.160677 494.905986 
L 553.701383 494.833298 
L 558.242088 494.739755 
L 562.782794 494.623808 
L 564.48811 494.572153 
L 567.323499 494.520253 
L 571.864205 494.422514 
L 576.404911 494.307588 
L 580.945616 494.173552 
L 585.486322 494.018117 
L 590.027027 493.838566 
L 594.567733 493.63167 
L 599.108439 493.393591 
L 603.649144 493.119766 
L 608.18985 492.80476 
L 612.730555 492.442083 
L 616.981028 492.052878 
L 617.271261 492.032346 
L 621.811967 491.689569 
L 626.352672 491.293388 
L 630.893378 490.834425 
L 635.434083 490.301351 
L 639.974789 489.680442 
L 640.979757 489.533602 
L 644.515494 489.022994 
L 649.0562 488.274096 
L 653.596906 487.395323 
L 655.405221 487.014327 
L 658.137611 486.250463 
L 662.678317 484.827184 
L 663.676835 484.495051 
L 667.096961 481.975776 
L 666.230357 479.4565 
L 662.678317 477.740356 
L 660.870805 476.937225 
L 658.137611 476.201144 
L 653.596906 475.126084 
L 650.109818 474.417949 
L 649.0562 474.23027 
L 644.515494 473.47759 
L 639.974789 472.839295 
L 635.434083 472.295665 
L 631.617521 471.898674 
L 630.893378 471.813096 
L 626.352672 471.308477 
L 621.811967 470.871158 
L 617.271261 470.491068 
L 612.730555 470.159845 
L 608.18985 469.870528 
L 603.649144 469.617308 
L 599.108439 469.395331 
L 598.757418 469.379398 
L 594.567733 469.10497 
L 590.027027 468.841931 
L 585.486322 468.610565 
L 580.945616 468.407373 
L 576.404911 468.229392 
L 571.864205 468.074121 
L 567.323499 467.939453 
L 562.782794 467.823624 
L 558.242088 467.72517 
L 553.701383 467.642886 
L 549.160677 467.575799 
L 544.619971 467.523139 
L 540.079266 467.484319 
L 535.53856 467.45892 
L 530.997855 467.446671 
L 526.457149 467.447443 
L 521.916443 467.461235 
L 517.375738 467.488171 
L 512.835032 467.528489 
L 508.294327 467.582544 
L 503.753621 467.650799 
L 499.212915 467.733826 
L 494.67221 467.832306 
L 490.131504 467.947029 
L 485.590799 468.078895 
L 481.050093 468.228913 
L 476.509387 468.398204 
L 471.968682 468.587999 
L 467.427976 468.799637 
L 462.887271 469.034553 
L 458.346565 469.294268 
L 456.942894 469.379398 
L 453.805859 469.514515 
L 449.265154 469.727366 
L 444.724448 469.962506 
L 440.183743 470.221398 
L 435.643037 470.505313 
L 431.102331 470.815157 
L 426.561626 471.15125 
L 422.02092 471.513026 
L 417.480215 471.898674 
L 417.480215 471.898674 
L 412.939509 472.235676 
L 408.398803 472.587231 
L 403.858098 472.945899 
L 399.317392 473.301612 
L 394.776687 473.641813 
L 390.235981 473.952084 
L 385.695276 474.217306 
L 381.269692 474.417949 
L 381.15457 474.423335 
L 376.613864 474.559027 
L 372.073159 474.615609 
L 367.532453 474.592885 
L 362.991748 474.496329 
L 360.812719 474.417949 
L 358.451042 474.33401 
L 353.910336 474.115803 
L 349.369631 473.856666 
L 344.828925 473.570322 
L 340.28822 473.269351 
L 335.747514 472.964462 
L 331.206808 472.664183 
L 326.666103 472.374884 
L 322.125397 472.100985 
L 318.576211 471.898674 
L 317.584692 471.829976 
L 313.043986 471.525777 
L 308.50328 471.246841 
L 303.962575 470.993075 
L 299.421869 470.763584 
L 294.881164 470.556892 
L 290.340458 470.371106 
L 285.799752 470.204029 
L 281.259047 470.053235 
L 276.718341 469.916116 
L 272.177636 469.789921 
L 267.63693 469.671785 
L 263.096224 469.558774 
L 258.555519 469.447948 
L 255.803908 469.379398 
L 254.014813 469.313846 
L 249.474108 469.138272 
L 244.933402 468.95375 
L 240.392696 468.757724 
L 235.851991 468.548776 
L 231.311285 468.326826 
L 226.77058 468.093208 
L 222.229874 467.850578 
L 217.689168 467.602643 
L 213.148463 467.353762 
L 208.607757 467.108477 
L 204.067052 466.871066 
L 203.864509 466.860123 
L 199.526346 466.478869 
L 194.98564 466.102948 
L 190.444935 465.755194 
L 185.904229 465.437494 
L 181.363524 465.150395 
L 176.822818 464.893398 
L 172.282112 464.665244 
L 167.741407 464.464185 
L 164.632528 464.340847 
L 163.200701 464.236267 
L 158.659996 463.931734 
L 154.11929 463.66788 
L 149.578584 463.440852 
L 145.037879 463.247123 
L 140.497173 463.083555 
L 135.956468 462.947413 
L 131.415762 462.836367 
L 126.875057 462.748489 
L 122.334351 462.682232 
L 117.793645 462.636423 
L 113.25294 462.610246 
L 108.712234 462.603242 
L 104.171529 462.615301 
L 99.630823 462.646678 
L 95.090117 462.698005 
L 90.549412 462.770321 
L 86.008706 462.865116 
L 81.468001 462.984382 
L 76.927295 463.130694 
L 72.386589 463.307303 
L 67.845884 463.518264 
L 63.305178 463.768595 
L 58.764473 464.064479 
L 55.111931 464.340847 
L 54.223767 464.375788 
L 49.683061 464.573188 
L 45.142356 464.80525 
L 40.60165 465.07857 
L 36.060945 465.401302 
L 31.520239 465.783567 
L 26.979533 466.23796 
L 22.438828 466.780227 
L 21.812636 466.860123 
L 17.898122 467.159173 
L 13.357417 467.568353 
L 8.816711 468.061772 
L 4.276005 468.659886 
L -0.214601 469.379398 
L -0.2647 469.384954 
L -4.805406 469.911695 
L -9.346111 470.558629 
L -13.886817 471.357942 
L -16.563701 471.898674 
L -18.427523 472.209133 
L -22.968228 473.058779 
L -27.508934 474.124262 
L -28.667534 474.417949 
L -32.049639 475.288153 
L -36.590345 476.697341 
L -37.319776 476.937225 
L -41.131051 478.601175 
L -42.94942 479.4565 
L -45.513431 481.975776 
L -45.267403 484.495051 
L -41.959612 487.014327 
L -41.131051 487.351303 
L -36.590345 489.073108 
L -35.235909 489.533602 
L -32.049639 490.406215 
L -27.508934 491.450478 
L -24.372804 492.052878 
L -22.968228 492.341173 
L -18.427523 493.191925 
L -13.886817 493.873552 
L -9.346111 494.422409 
L -7.975474 494.572153 
L -4.805406 495.048255 
L -0.2647 495.633855 
L 4.276005 496.113758 
L 8.816711 496.508788 
L 13.357417 496.835305 
L 17.618939 497.091429 
L 17.898122 497.120714 
L 22.438828 497.567924 
L 26.979533 497.94261 
L 31.520239 498.2574 
L 36.060945 498.52244 
L 40.60165 498.745908 
L 45.142356 498.934417 
L 49.683061 499.093325 
L 54.223767 499.226982 
L 58.764473 499.338924 
L 63.305178 499.432016 
L 67.845884 499.508581 
L 72.386589 499.570483 
L 76.112823 499.610704 
z
M 83.514506 497.091429 
L 81.468001 497.074399 
L 76.927295 497.02177 
L 72.386589 496.952601 
L 67.845884 496.865232 
L 63.305178 496.757552 
L 58.764473 496.626913 
L 54.223767 496.470032 
L 49.683061 496.282851 
L 45.142356 496.060374 
L 40.60165 495.796449 
L 36.060945 495.483499 
L 31.520239 495.112166 
L 26.979533 494.670874 
L 26.046516 494.572153 
L 22.438828 494.310867 
L 17.898122 493.925507 
L 13.357417 493.462325 
L 8.816711 492.90363 
L 4.276005 492.227088 
L 3.197018 492.052878 
L -0.2647 491.557308 
L -4.805406 490.786853 
L -9.346111 489.838092 
L -10.679832 489.533602 
L -13.886817 488.667681 
L -18.427523 487.207864 
L -18.994147 487.014327 
L -22.968228 484.568679 
L -23.085106 484.495051 
L -23.587857 481.975776 
L -22.968228 481.457529 
L -20.663695 479.4565 
L -18.427523 478.533541 
L -14.121373 476.937225 
L -13.886817 476.870408 
L -9.346111 475.629097 
L -4.805406 474.619712 
L -3.824211 474.417949 
L -0.2647 473.675716 
L 4.276005 472.870561 
L 8.816711 472.207146 
L 11.206784 471.898674 
L 13.357417 471.551624 
L 17.898122 470.894728 
L 22.438828 470.347076 
L 26.979533 469.888372 
L 31.520239 469.502477 
L 33.121725 469.379398 
L 36.060945 469.041063 
L 40.60165 468.581701 
L 45.142356 468.192667 
L 49.683061 467.862449 
L 54.223767 467.58173 
L 58.764473 467.342954 
L 63.305178 467.139983 
L 67.845884 466.967829 
L 71.162498 466.860123 
L 72.386589 466.789933 
L 76.927295 466.563457 
L 81.468001 466.376553 
L 86.008706 466.225101 
L 90.549412 466.105856 
L 95.090117 466.016322 
L 99.630823 465.954665 
L 104.171529 465.919634 
L 108.712234 465.910518 
L 113.25294 465.927106 
L 117.793645 465.969668 
L 122.334351 466.038951 
L 126.875057 466.136177 
L 131.415762 466.263052 
L 135.956468 466.421788 
L 140.497173 466.615117 
L 145.037879 466.846311 
L 145.280296 466.860123 
L 149.578584 467.003924 
L 154.11929 467.181526 
L 158.659996 467.388099 
L 163.200701 467.626717 
L 167.741407 467.900617 
L 172.282112 468.213085 
L 176.822818 468.567265 
L 181.363524 468.965904 
L 185.60721 469.379398 
L 185.904229 469.399661 
L 190.444935 469.715776 
L 194.98564 470.06306 
L 199.526346 470.439937 
L 204.067052 470.843348 
L 208.607757 471.268674 
L 213.148463 471.709867 
L 215.139263 471.898674 
L 217.689168 472.098908 
L 222.229874 472.445586 
L 226.77058 472.788331 
L 231.311285 473.122107 
L 235.851991 473.443238 
L 240.392696 473.749787 
L 244.933402 474.041705 
L 249.474108 474.320739 
L 251.154077 474.417949 
L 254.014813 474.582943 
L 258.555519 474.835875 
L 263.096224 475.088567 
L 267.63693 475.346499 
L 272.177636 475.615372 
L 276.718341 475.90092 
L 281.259047 476.208797 
L 285.799752 476.544516 
L 290.340458 476.913408 
L 290.617183 476.937225 
L 294.881164 477.44045 
L 299.421869 478.029586 
L 303.962575 478.679232 
L 308.50328 479.394813 
L 308.877108 479.4565 
L 313.043986 481.716762 
L 313.506874 481.975776 
L 313.043986 482.135508 
L 308.50328 483.626999 
L 305.61136 484.495051 
L 303.962575 484.701563 
L 299.421869 485.230795 
L 294.881164 485.706114 
L 290.340458 486.132804 
L 285.799752 486.516481 
L 281.259047 486.863018 
L 279.124335 487.014327 
L 276.718341 487.151642 
L 272.177636 487.395691 
L 267.63693 487.625542 
L 263.096224 487.846703 
L 258.555519 488.064782 
L 254.014813 488.285326 
L 249.474108 488.513585 
L 244.933402 488.754176 
L 240.392696 489.010699 
L 235.851991 489.285334 
L 232.040189 489.533602 
L 231.311285 489.585167 
L 226.77058 489.941233 
L 222.229874 490.312667 
L 217.689168 490.693527 
L 213.148463 491.0768 
L 208.607757 491.455193 
L 204.067052 491.821899 
L 201.16205 492.052878 
L 199.526346 492.222294 
L 194.98564 492.689998 
L 190.444935 493.120573 
L 185.904229 493.512185 
L 181.363524 493.86477 
L 176.822818 494.179597 
L 172.282112 494.458843 
L 170.298614 494.572153 
L 167.741407 494.801997 
L 163.200701 495.174681 
L 158.659996 495.49956 
L 154.11929 495.781866 
L 149.578584 496.026434 
L 145.037879 496.237626 
L 140.497173 496.4193 
L 135.956468 496.574817 
L 131.415762 496.707064 
L 126.875057 496.818487 
L 122.334351 496.911128 
L 117.793645 496.98666 
L 113.25294 497.04642 
L 108.712756 497.091429 
L 108.712234 497.091439 
L 104.171529 497.154611 
L 99.630823 497.190044 
L 95.090117 497.198275 
L 90.549412 497.179305 
L 86.008706 497.132585 
z
M 479.179137 489.533602 
L 476.509387 489.378461 
L 471.968682 489.087499 
L 467.427976 488.761458 
L 462.887271 488.397164 
L 458.346565 487.991204 
L 453.805859 487.539988 
L 449.265154 487.039866 
L 449.04131 487.014327 
L 444.724448 486.374563 
L 440.183743 485.63528 
L 435.643037 484.824221 
L 433.87563 484.495051 
L 431.102331 483.300478 
L 428.099435 481.975776 
L 430.686816 479.4565 
L 431.102331 479.353551 
L 435.643037 478.252164 
L 440.183743 477.256825 
L 441.728044 476.937225 
L 444.724448 476.517732 
L 449.265154 475.930723 
L 453.805859 475.404043 
L 458.346565 474.93273 
L 462.887271 474.511895 
L 463.974305 474.417949 
L 467.427976 474.130308 
L 471.968682 473.787577 
L 476.509387 473.48219 
L 481.050093 473.211007 
L 485.590799 472.971217 
L 490.131504 472.760337 
L 494.67221 472.576191 
L 499.212915 472.416897 
L 503.753621 472.280846 
L 508.294327 472.166686 
L 512.835032 472.073308 
L 517.375738 471.999829 
L 521.916443 471.945589 
L 526.457149 471.910137 
L 529.53074 471.898674 
L 530.997855 471.891651 
L 535.53856 471.893743 
L 536.393184 471.898674 
L 540.079266 471.915188 
L 544.619971 471.954649 
L 549.160677 472.013898 
L 553.701383 472.093852 
L 558.242088 472.195721 
L 562.782794 472.321035 
L 567.323499 472.471686 
L 571.864205 472.649988 
L 576.404911 472.858733 
L 580.945616 473.101275 
L 585.486322 473.381629 
L 590.027027 473.704585 
L 594.567733 474.075863 
L 598.254679 474.417949 
L 599.108439 474.500336 
L 603.649144 474.979591 
L 608.18985 475.532012 
L 612.730555 476.169635 
L 617.271261 476.906998 
L 617.446336 476.937225 
L 621.811967 478.076562 
L 626.352672 479.4565 
L 626.352672 479.4565 
L 628.251183 481.975776 
L 626.352672 483.033454 
L 623.603317 484.495051 
L 621.811967 484.914796 
L 617.271261 485.891778 
L 612.730555 486.741536 
L 611.137452 487.014327 
L 608.18985 487.407259 
L 603.649144 487.94893 
L 599.108439 488.420618 
L 594.567733 488.831424 
L 590.027027 489.189006 
L 585.486322 489.499816 
L 584.941096 489.533602 
L 580.945616 489.798158 
L 576.404911 490.059217 
L 571.864205 490.283245 
L 567.323499 490.473935 
L 562.782794 490.634383 
L 558.242088 490.767162 
L 553.701383 490.874396 
L 549.160677 490.957811 
L 544.619971 491.018787 
L 540.079266 491.058386 
L 535.53856 491.077386 
L 530.997855 491.076301 
L 526.457149 491.055398 
L 521.916443 491.014708 
L 517.375738 490.954032 
L 512.835032 490.872947 
L 508.294327 490.7708 
L 503.753621 490.646711 
L 499.212915 490.499559 
L 494.67221 490.327981 
L 490.131504 490.130352 
L 485.590799 489.904782 
L 481.050093 489.649099 
z
" clip-path="url(#p6595e54d7a)" style="fill: #f2f8fd"/>
    <path d="M 86.008706 497.132585 
L 90.549412 497.179305 
L 95.090117 497.198275 
L 99.630823 497.190044 
L 104.171529 497.154611 
L 108.712234 497.091439 
L 108.712756 497.091429 
L 113.25294 497.04642 
L 117.793645 496.98666 
L 122.334351 496.911128 
L 126.875057 496.818487 
L 131.415762 496.707064 
L 135.956468 496.574817 
L 140.497173 496.4193 
L 145.037879 496.237626 
L 149.578584 496.026434 
L 154.11929 495.781866 
L 158.659996 495.49956 
L 163.200701 495.174681 
L 167.741407 494.801997 
L 170.298614 494.572153 
L 172.282112 494.458843 
L 176.822818 494.179597 
L 181.363524 493.86477 
L 185.904229 493.512185 
L 190.444935 493.120573 
L 194.98564 492.689998 
L 199.526346 492.222294 
L 201.16205 492.052878 
L 204.067052 491.821899 
L 208.607757 491.455193 
L 213.148463 491.0768 
L 217.689168 490.693527 
L 222.229874 490.312667 
L 226.77058 489.941233 
L 231.311285 489.585167 
L 232.040189 489.533602 
L 235.851991 489.285334 
L 240.392696 489.010699 
L 244.933402 488.754176 
L 249.474108 488.513585 
L 254.014813 488.285326 
L 258.555519 488.064782 
L 263.096224 487.846703 
L 267.63693 487.625542 
L 272.177636 487.395691 
L 276.718341 487.151642 
L 279.124335 487.014327 
L 281.259047 486.863018 
L 285.799752 486.516481 
L 290.340458 486.132804 
L 294.881164 485.706114 
L 299.421869 485.230795 
L 303.962575 484.701563 
L 305.61136 484.495051 
L 308.50328 483.626999 
L 313.043986 482.135508 
L 313.506874 481.975776 
L 313.043986 481.716762 
L 308.877108 479.4565 
L 308.50328 479.394813 
L 303.962575 478.679232 
L 299.421869 478.029586 
L 294.881164 477.44045 
L 290.617183 476.937225 
L 290.340458 476.913408 
L 285.799752 476.544516 
L 281.259047 476.208797 
L 276.718341 475.90092 
L 272.177636 475.615372 
L 267.63693 475.346499 
L 263.096224 475.088567 
L 258.555519 474.835875 
L 254.014813 474.582943 
L 251.154077 474.417949 
L 249.474108 474.320739 
L 244.933402 474.041705 
L 240.392696 473.749787 
L 235.851991 473.443238 
L 231.311285 473.122107 
L 226.77058 472.788331 
L 222.229874 472.445586 
L 217.689168 472.098908 
L 215.139263 471.898674 
L 213.148463 471.709867 
L 208.607757 471.268674 
L 204.067052 470.843348 
L 199.526346 470.439937 
L 194.98564 470.06306 
L 190.444935 469.715776 
L 185.904229 469.399661 
L 185.60721 469.379398 
L 181.363524 468.965904 
L 176.822818 468.567265 
L 172.282112 468.213085 
L 167.741407 467.900617 
L 163.200701 467.626717 
L 158.659996 467.388099 
L 154.11929 467.181526 
L 149.578584 467.003924 
L 145.280296 466.860123 
L 145.037879 466.846311 
L 140.497173 466.615117 
L 135.956468 466.421788 
L 131.415762 466.263052 
L 126.875057 466.136177 
L 122.334351 466.038951 
L 117.793645 465.969668 
L 113.25294 465.927106 
L 108.712234 465.910518 
L 104.171529 465.919634 
L 99.630823 465.954665 
L 95.090117 466.016322 
L 90.549412 466.105856 
L 86.008706 466.225101 
L 81.468001 466.376553 
L 76.927295 466.563457 
L 72.386589 466.789933 
L 71.162498 466.860123 
L 67.845884 466.967829 
L 63.305178 467.139983 
L 58.764473 467.342954 
L 54.223767 467.58173 
L 49.683061 467.862449 
L 45.142356 468.192667 
L 40.60165 468.581701 
L 36.060945 469.041063 
L 33.121725 469.379398 
L 31.520239 469.502477 
L 26.979533 469.888372 
L 22.438828 470.347076 
L 17.898122 470.894728 
L 13.357417 471.551624 
L 11.206784 471.898674 
L 8.816711 472.207146 
L 4.276005 472.870561 
L -0.2647 473.675716 
L -3.824211 474.417949 
L -4.805406 474.619712 
L -9.346111 475.629097 
L -13.886817 476.870408 
L -14.121373 476.937225 
L -18.427523 478.533541 
L -20.663695 479.4565 
L -22.968228 481.457529 
L -23.587857 481.975776 
L -23.085106 484.495051 
L -22.968228 484.568679 
L -18.994147 487.014327 
L -18.427523 487.207864 
L -13.886817 488.667681 
L -10.679832 489.533602 
L -9.346111 489.838092 
L -4.805406 490.786853 
L -0.2647 491.557308 
L 3.197018 492.052878 
L 4.276005 492.227088 
L 8.816711 492.90363 
L 13.357417 493.462325 
L 17.898122 493.925507 
L 22.438828 494.310867 
L 26.046516 494.572153 
L 26.979533 494.670874 
L 31.520239 495.112166 
L 36.060945 495.483499 
L 40.60165 495.796449 
L 45.142356 496.060374 
L 49.683061 496.282851 
L 54.223767 496.470032 
L 58.764473 496.626913 
L 63.305178 496.757552 
L 67.845884 496.865232 
L 72.386589 496.952601 
L 76.927295 497.02177 
L 81.468001 497.074399 
L 83.514506 497.091429 
z
M 53.367837 494.572153 
L 49.683061 494.412638 
L 45.142356 494.181685 
L 40.60165 493.907275 
L 36.060945 493.581375 
L 31.520239 493.194061 
L 26.979533 492.733047 
L 22.438828 492.183063 
L 21.450386 492.052878 
L 17.898122 491.652676 
L 13.357417 491.051848 
L 8.816711 490.325511 
L 4.681011 489.533602 
L 4.276005 489.445357 
L -0.2647 488.383615 
L -4.805406 487.077895 
L -5.015478 487.014327 
L -9.346111 484.737273 
L -9.782575 484.495051 
L -10.443545 481.975776 
L -9.346111 481.122374 
L -7.239813 479.4565 
L -4.805406 478.541733 
L -0.2647 477.025604 
L 0.013977 476.937225 
L 4.276005 475.882222 
L 8.816711 474.944631 
L 11.747486 474.417949 
L 13.357417 474.120338 
L 17.898122 473.354761 
L 22.438828 472.715324 
L 26.979533 472.178734 
L 29.669356 471.898674 
L 31.520239 471.652815 
L 36.060945 471.107933 
L 40.60165 470.647122 
L 45.142356 470.2563 
L 49.683061 469.9241 
L 54.223767 469.641319 
L 58.764473 469.40049 
L 59.205061 469.379398 
L 63.305178 469.076329 
L 67.845884 468.790668 
L 72.386589 468.550389 
L 76.927295 468.349932 
L 81.468001 468.184826 
L 86.008706 468.051504 
L 90.549412 467.947178 
L 95.090117 467.869725 
L 99.630823 467.81761 
L 104.171529 467.789828 
L 108.712234 467.785857 
L 113.25294 467.805636 
L 117.793645 467.849548 
L 122.334351 467.918413 
L 126.875057 468.0135 
L 131.415762 468.136531 
L 135.956468 468.289706 
L 140.497173 468.475721 
L 145.037879 468.697782 
L 149.578584 468.959622 
L 154.11929 469.265491 
L 155.646502 469.379398 
L 158.659996 469.531799 
L 163.200701 469.791289 
L 167.741407 470.089559 
L 172.282112 470.430333 
L 176.822818 470.8172 
L 181.363524 471.253341 
L 185.904229 471.741164 
L 187.314419 471.898674 
L 190.444935 472.188944 
L 194.98564 472.639968 
L 199.526346 473.130911 
L 204.067052 473.657988 
L 208.607757 474.215319 
L 210.281766 474.417949 
L 213.148463 474.777328 
L 217.689168 475.344097 
L 222.229874 475.915478 
L 226.77058 476.481515 
L 230.559158 476.937225 
L 231.311285 477.066548 
L 235.851991 477.780635 
L 240.392696 478.461991 
L 244.933402 479.109122 
L 247.540269 479.4565 
L 249.474108 480.41494 
L 252.898252 481.975776 
L 249.474108 482.733014 
L 244.933402 483.783257 
L 242.051379 484.495051 
L 240.392696 484.679491 
L 235.851991 485.231328 
L 231.311285 485.816166 
L 226.77058 486.431691 
L 222.666301 487.014327 
L 222.229874 487.06351 
L 217.689168 487.620279 
L 213.148463 488.180217 
L 208.607757 488.733307 
L 204.067052 489.270123 
L 201.837584 489.533602 
L 199.526346 489.816696 
L 194.98564 490.362571 
L 190.444935 490.866397 
L 185.904229 491.325945 
L 181.363524 491.740975 
L 177.615581 492.052878 
L 176.822818 492.137686 
L 172.282112 492.604956 
L 167.741407 493.016591 
L 163.200701 493.377606 
L 158.659996 493.693058 
L 154.11929 493.967807 
L 149.578584 494.206365 
L 145.037879 494.412816 
L 141.000212 494.572153 
L 140.497173 494.603963 
L 135.956468 494.864081 
L 131.415762 495.084813 
L 126.875057 495.270298 
L 122.334351 495.423991 
L 117.793645 495.548721 
L 113.25294 495.64675 
L 108.712234 495.719813 
L 104.171529 495.76916 
L 99.630823 495.795576 
L 95.090117 495.799402 
L 90.549412 495.78053 
L 86.008706 495.738398 
L 81.468001 495.67196 
L 76.927295 495.579648 
L 72.386589 495.459316 
L 67.845884 495.308151 
L 63.305178 495.122576 
L 58.764473 494.898106 
L 54.223767 494.629177 
z
M 481.050093 489.649099 
L 485.590799 489.904782 
L 490.131504 490.130352 
L 494.67221 490.327981 
L 499.212915 490.499559 
L 503.753621 490.646711 
L 508.294327 490.7708 
L 512.835032 490.872947 
L 517.375738 490.954032 
L 521.916443 491.014708 
L 526.457149 491.055398 
L 530.997855 491.076301 
L 535.53856 491.077386 
L 540.079266 491.058386 
L 544.619971 491.018787 
L 549.160677 490.957811 
L 553.701383 490.874396 
L 558.242088 490.767162 
L 562.782794 490.634383 
L 567.323499 490.473935 
L 571.864205 490.283245 
L 576.404911 490.059217 
L 580.945616 489.798158 
L 584.941096 489.533602 
L 585.486322 489.499816 
L 590.027027 489.189006 
L 594.567733 488.831424 
L 599.108439 488.420618 
L 603.649144 487.94893 
L 608.18985 487.407259 
L 611.137452 487.014327 
L 612.730555 486.741536 
L 617.271261 485.891778 
L 621.811967 484.914796 
L 623.603317 484.495051 
L 626.352672 483.033454 
L 628.251183 481.975776 
L 626.352672 479.4565 
L 626.352672 479.4565 
L 621.811967 478.076562 
L 617.446336 476.937225 
L 617.271261 476.906998 
L 612.730555 476.169635 
L 608.18985 475.532012 
L 603.649144 474.979591 
L 599.108439 474.500336 
L 598.254679 474.417949 
L 594.567733 474.075863 
L 590.027027 473.704585 
L 585.486322 473.381629 
L 580.945616 473.101275 
L 576.404911 472.858733 
L 571.864205 472.649988 
L 567.323499 472.471686 
L 562.782794 472.321035 
L 558.242088 472.195721 
L 553.701383 472.093852 
L 549.160677 472.013898 
L 544.619971 471.954649 
L 540.079266 471.915188 
L 536.393184 471.898674 
L 535.53856 471.893743 
L 530.997855 471.891651 
L 529.53074 471.898674 
L 526.457149 471.910137 
L 521.916443 471.945589 
L 517.375738 471.999829 
L 512.835032 472.073308 
L 508.294327 472.166686 
L 503.753621 472.280846 
L 499.212915 472.416897 
L 494.67221 472.576191 
L 490.131504 472.760337 
L 485.590799 472.971217 
L 481.050093 473.211007 
L 476.509387 473.48219 
L 471.968682 473.787577 
L 467.427976 474.130308 
L 463.974305 474.417949 
L 462.887271 474.511895 
L 458.346565 474.93273 
L 453.805859 475.404043 
L 449.265154 475.930723 
L 444.724448 476.517732 
L 441.728044 476.937225 
L 440.183743 477.256825 
L 435.643037 478.252164 
L 431.102331 479.353551 
L 430.686816 479.4565 
L 428.099435 481.975776 
L 431.102331 483.300478 
L 433.87563 484.495051 
L 435.643037 484.824221 
L 440.183743 485.63528 
L 444.724448 486.374563 
L 449.04131 487.014327 
L 449.265154 487.039866 
L 453.805859 487.539988 
L 458.346565 487.991204 
L 462.887271 488.397164 
L 467.427976 488.761458 
L 471.968682 489.087499 
L 476.509387 489.378461 
L 479.179137 489.533602 
z
M 496.882603 487.014327 
L 494.67221 486.856875 
L 490.131504 486.489932 
L 485.590799 486.070241 
L 481.050093 485.593471 
L 476.509387 485.054696 
L 472.301929 484.495051 
L 471.968682 484.392706 
L 467.427976 482.904236 
L 464.8238 481.975776 
L 467.427976 480.194181 
L 468.566743 479.4565 
L 471.968682 478.855054 
L 476.509387 478.133856 
L 481.050093 477.497275 
L 485.590799 476.937225 
L 485.590799 476.937225 
L 490.131504 476.571536 
L 494.67221 476.25248 
L 499.212915 475.976472 
L 503.753621 475.740463 
L 508.294327 475.541896 
L 512.835032 475.378674 
L 517.375738 475.249134 
L 521.916443 475.152023 
L 526.457149 475.086478 
L 530.997855 475.052026 
L 535.53856 475.048574 
L 540.079266 475.076418 
L 544.619971 475.136262 
L 549.160677 475.229231 
L 553.701383 475.356916 
L 558.242088 475.521409 
L 562.782794 475.725369 
L 567.323499 475.97209 
L 571.864205 476.265593 
L 576.404911 476.610745 
L 580.117213 476.937225 
L 580.945616 477.040505 
L 585.486322 477.675176 
L 590.027027 478.411279 
L 594.567733 479.263206 
L 595.507036 479.4565 
L 598.667152 481.975776 
L 594.567733 483.541583 
L 591.797968 484.495051 
L 590.027027 484.764987 
L 585.486322 485.38928 
L 580.945616 485.931308 
L 576.404911 486.400065 
L 571.864205 486.803133 
L 569.111856 487.014327 
L 567.323499 487.124884 
L 562.782794 487.366333 
L 558.242088 487.566224 
L 553.701383 487.727699 
L 549.160677 487.853307 
L 544.619971 487.945074 
L 540.079266 488.004551 
L 535.53856 488.03286 
L 530.997855 488.030724 
L 526.457149 487.998488 
L 521.916443 487.936134 
L 517.375738 487.843295 
L 512.835032 487.719248 
L 508.294327 487.562919 
L 503.753621 487.372868 
L 499.212915 487.14728 
z
" clip-path="url(#p6595e54d7a)" style="fill: #e9f2fa"/>
    <path d="M 54.223767 494.629177 
L 58.764473 494.898106 
L 63.305178 495.122576 
L 67.845884 495.308151 
L 72.386589 495.459316 
L 76.927295 495.579648 
L 81.468001 495.67196 
L 86.008706 495.738398 
L 90.549412 495.78053 
L 95.090117 495.799402 
L 99.630823 495.795576 
L 104.171529 495.76916 
L 108.712234 495.719813 
L 113.25294 495.64675 
L 117.793645 495.548721 
L 122.334351 495.423991 
L 126.875057 495.270298 
L 131.415762 495.084813 
L 135.956468 494.864081 
L 140.497173 494.603963 
L 141.000212 494.572153 
L 145.037879 494.412816 
L 149.578584 494.206365 
L 154.11929 493.967807 
L 158.659996 493.693058 
L 163.200701 493.377606 
L 167.741407 493.016591 
L 172.282112 492.604956 
L 176.822818 492.137686 
L 177.615581 492.052878 
L 181.363524 491.740975 
L 185.904229 491.325945 
L 190.444935 490.866397 
L 194.98564 490.362571 
L 199.526346 489.816696 
L 201.837584 489.533602 
L 204.067052 489.270123 
L 208.607757 488.733307 
L 213.148463 488.180217 
L 217.689168 487.620279 
L 222.229874 487.06351 
L 222.666301 487.014327 
L 226.77058 486.431691 
L 231.311285 485.816166 
L 235.851991 485.231328 
L 240.392696 484.679491 
L 242.051379 484.495051 
L 244.933402 483.783257 
L 249.474108 482.733014 
L 252.898252 481.975776 
L 249.474108 480.41494 
L 247.540269 479.4565 
L 244.933402 479.109122 
L 240.392696 478.461991 
L 235.851991 477.780635 
L 231.311285 477.066548 
L 230.559158 476.937225 
L 226.77058 476.481515 
L 222.229874 475.915478 
L 217.689168 475.344097 
L 213.148463 474.777328 
L 210.281766 474.417949 
L 208.607757 474.215319 
L 204.067052 473.657988 
L 199.526346 473.130911 
L 194.98564 472.639968 
L 190.444935 472.188944 
L 187.314419 471.898674 
L 185.904229 471.741164 
L 181.363524 471.253341 
L 176.822818 470.8172 
L 172.282112 470.430333 
L 167.741407 470.089559 
L 163.200701 469.791289 
L 158.659996 469.531799 
L 155.646502 469.379398 
L 154.11929 469.265491 
L 149.578584 468.959622 
L 145.037879 468.697782 
L 140.497173 468.475721 
L 135.956468 468.289706 
L 131.415762 468.136531 
L 126.875057 468.0135 
L 122.334351 467.918413 
L 117.793645 467.849548 
L 113.25294 467.805636 
L 108.712234 467.785857 
L 104.171529 467.789828 
L 99.630823 467.81761 
L 95.090117 467.869725 
L 90.549412 467.947178 
L 86.008706 468.051504 
L 81.468001 468.184826 
L 76.927295 468.349932 
L 72.386589 468.550389 
L 67.845884 468.790668 
L 63.305178 469.076329 
L 59.205061 469.379398 
L 58.764473 469.40049 
L 54.223767 469.641319 
L 49.683061 469.9241 
L 45.142356 470.2563 
L 40.60165 470.647122 
L 36.060945 471.107933 
L 31.520239 471.652815 
L 29.669356 471.898674 
L 26.979533 472.178734 
L 22.438828 472.715324 
L 17.898122 473.354761 
L 13.357417 474.120338 
L 11.747486 474.417949 
L 8.816711 474.944631 
L 4.276005 475.882222 
L 0.013977 476.937225 
L -0.2647 477.025604 
L -4.805406 478.541733 
L -7.239813 479.4565 
L -9.346111 481.122374 
L -10.443545 481.975776 
L -9.782575 484.495051 
L -9.346111 484.737273 
L -5.015478 487.014327 
L -4.805406 487.077895 
L -0.2647 488.383615 
L 4.276005 489.445357 
L 4.681011 489.533602 
L 8.816711 490.325511 
L 13.357417 491.051848 
L 17.898122 491.652676 
L 21.450386 492.052878 
L 22.438828 492.183063 
L 26.979533 492.733047 
L 31.520239 493.194061 
L 36.060945 493.581375 
L 40.60165 493.907275 
L 45.142356 494.181685 
L 49.683061 494.412638 
L 53.367837 494.572153 
z
M 37.081944 492.052878 
L 36.060945 491.967346 
L 31.520239 491.545701 
L 26.979533 491.042519 
L 22.438828 490.440744 
L 17.898122 489.719084 
L 16.825617 489.533602 
L 13.357417 488.864104 
L 8.816711 487.83165 
L 5.717402 487.014327 
L 4.276005 486.377115 
L 0.370163 484.495051 
L -0.2647 482.367371 
L -0.390602 481.975776 
L -0.2647 481.883184 
L 3.026061 479.4565 
L 4.276005 479.01895 
L 8.816711 477.547249 
L 10.920023 476.937225 
L 13.357417 476.381203 
L 17.898122 475.458666 
L 22.438828 474.685918 
L 24.182197 474.417949 
L 26.979533 473.969326 
L 31.520239 473.326707 
L 36.060945 472.783872 
L 40.60165 472.323749 
L 45.142356 471.932591 
L 45.570575 471.898674 
L 49.683061 471.474724 
L 54.223767 471.073617 
L 58.764473 470.732761 
L 63.305178 470.44345 
L 67.845884 470.198607 
L 72.386589 469.992489 
L 76.927295 469.820453 
L 81.468001 469.678773 
L 86.008706 469.564491 
L 90.549412 469.475311 
L 95.090117 469.409505 
L 98.212135 469.379398 
L 99.630823 469.357425 
L 104.171529 469.321433 
L 108.712234 469.319614 
L 113.25294 469.351874 
L 115.138003 469.379398 
L 117.793645 469.403852 
L 122.334351 469.467828 
L 126.875057 469.555526 
L 131.415762 469.668629 
L 135.956468 469.809265 
L 140.497173 469.980018 
L 145.037879 470.183957 
L 149.578584 470.424645 
L 154.11929 470.706138 
L 158.659996 471.032961 
L 163.200701 471.410046 
L 167.741407 471.842611 
L 168.296802 471.898674 
L 172.282112 472.226686 
L 176.822818 472.648057 
L 181.363524 473.124631 
L 185.904229 473.659375 
L 190.444935 474.253941 
L 191.665231 474.417949 
L 194.98564 474.880124 
L 199.526346 475.554047 
L 204.067052 476.280549 
L 207.98451 476.937225 
L 208.607757 477.088922 
L 213.148463 478.160997 
L 217.689168 479.26635 
L 218.512686 479.4565 
L 221.393291 481.975776 
L 217.689168 483.566555 
L 215.668828 484.495051 
L 213.148463 484.997101 
L 208.607757 485.924095 
L 204.067052 486.826795 
L 203.150319 487.014327 
L 199.526346 487.582268 
L 194.98564 488.263274 
L 190.444935 488.894104 
L 185.904229 489.471859 
L 185.412784 489.533602 
L 181.363524 490.053491 
L 176.822818 490.580902 
L 172.282112 491.049601 
L 167.741407 491.463876 
L 163.200701 491.828447 
L 160.092732 492.052878 
L 158.659996 492.186506 
L 154.11929 492.577377 
L 149.578584 492.91635 
L 145.037879 493.209282 
L 140.497173 493.461371 
L 135.956468 493.677153 
L 131.415762 493.860529 
L 126.875057 494.014802 
L 122.334351 494.14273 
L 117.793645 494.246562 
L 113.25294 494.328084 
L 108.712234 494.388652 
L 104.171529 494.429218 
L 99.630823 494.450348 
L 95.090117 494.452231 
L 90.549412 494.434676 
L 86.008706 494.397102 
L 81.468001 494.33851 
L 76.927295 494.257443 
L 72.386589 494.151938 
L 67.845884 494.019445 
L 63.305178 493.856733 
L 58.764473 493.659766 
L 54.223767 493.423542 
L 49.683061 493.141891 
L 45.142356 492.807215 
L 40.60165 492.41016 
z
M 499.212915 487.14728 
L 503.753621 487.372868 
L 508.294327 487.562919 
L 512.835032 487.719248 
L 517.375738 487.843295 
L 521.916443 487.936134 
L 526.457149 487.998488 
L 530.997855 488.030724 
L 535.53856 488.03286 
L 540.079266 488.004551 
L 544.619971 487.945074 
L 549.160677 487.853307 
L 553.701383 487.727699 
L 558.242088 487.566224 
L 562.782794 487.366333 
L 567.323499 487.124884 
L 569.111856 487.014327 
L 571.864205 486.803133 
L 576.404911 486.400065 
L 580.945616 485.931308 
L 585.486322 485.38928 
L 590.027027 484.764987 
L 591.797968 484.495051 
L 594.567733 483.541583 
L 598.667152 481.975776 
L 595.507036 479.4565 
L 594.567733 479.263206 
L 590.027027 478.411279 
L 585.486322 477.675176 
L 580.945616 477.040505 
L 580.117213 476.937225 
L 576.404911 476.610745 
L 571.864205 476.265593 
L 567.323499 475.97209 
L 562.782794 475.725369 
L 558.242088 475.521409 
L 553.701383 475.356916 
L 549.160677 475.229231 
L 544.619971 475.136262 
L 540.079266 475.076418 
L 535.53856 475.048574 
L 530.997855 475.052026 
L 526.457149 475.086478 
L 521.916443 475.152023 
L 517.375738 475.249134 
L 512.835032 475.378674 
L 508.294327 475.541896 
L 503.753621 475.740463 
L 499.212915 475.976472 
L 494.67221 476.25248 
L 490.131504 476.571536 
L 485.590799 476.937225 
L 485.590799 476.937225 
L 481.050093 477.497275 
L 476.509387 478.133856 
L 471.968682 478.855054 
L 468.566743 479.4565 
L 467.427976 480.194181 
L 464.8238 481.975776 
L 467.427976 482.904236 
L 471.968682 484.392706 
L 472.301929 484.495051 
L 476.509387 485.054696 
L 481.050093 485.593471 
L 485.590799 486.070241 
L 490.131504 486.489932 
L 494.67221 486.856875 
L 496.882603 487.014327 
z
M 526.457149 484.495051 
L 526.457149 484.495051 
L 521.916443 484.253189 
L 517.375738 483.894319 
L 512.835032 483.415456 
L 508.294327 482.81239 
L 503.753621 482.079658 
L 503.196626 481.975776 
L 503.753621 481.78754 
L 508.294327 480.462986 
L 512.488917 479.4565 
L 512.835032 479.432311 
L 517.375738 479.174713 
L 521.916443 478.98098 
L 526.457149 478.849288 
L 530.997855 478.778623 
L 535.53856 478.768777 
L 540.079266 478.820354 
L 544.619971 478.934797 
L 549.160677 479.114434 
L 553.701383 479.362544 
L 555.051728 479.4565 
L 558.242088 480.236406 
L 562.782794 481.618676 
L 563.76893 481.975776 
L 562.782794 482.164546 
L 558.242088 482.902944 
L 553.701383 483.501462 
L 549.160677 483.968209 
L 544.619971 484.309546 
L 540.807226 484.495051 
L 540.079266 484.5111 
L 535.53856 484.558158 
L 530.997855 484.552646 
z
" clip-path="url(#p6595e54d7a)" style="fill: #deebf7"/>
    <path d="M 40.60165 492.41016 
L 45.142356 492.807215 
L 49.683061 493.141891 
L 54.223767 493.423542 
L 58.764473 493.659766 
L 63.305178 493.856733 
L 67.845884 494.019445 
L 72.386589 494.151938 
L 76.927295 494.257443 
L 81.468001 494.33851 
L 86.008706 494.397102 
L 90.549412 494.434676 
L 95.090117 494.452231 
L 99.630823 494.450348 
L 104.171529 494.429218 
L 108.712234 494.388652 
L 113.25294 494.328084 
L 117.793645 494.246562 
L 122.334351 494.14273 
L 126.875057 494.014802 
L 131.415762 493.860529 
L 135.956468 493.677153 
L 140.497173 493.461371 
L 145.037879 493.209282 
L 149.578584 492.91635 
L 154.11929 492.577377 
L 158.659996 492.186506 
L 160.092732 492.052878 
L 163.200701 491.828447 
L 167.741407 491.463876 
L 172.282112 491.049601 
L 176.822818 490.580902 
L 181.363524 490.053491 
L 185.412784 489.533602 
L 185.904229 489.471859 
L 190.444935 488.894104 
L 194.98564 488.263274 
L 199.526346 487.582268 
L 203.150319 487.014327 
L 204.067052 486.826795 
L 208.607757 485.924095 
L 213.148463 484.997101 
L 215.668828 484.495051 
L 217.689168 483.566555 
L 221.393291 481.975776 
L 218.512686 479.4565 
L 217.689168 479.26635 
L 213.148463 478.160997 
L 208.607757 477.088922 
L 207.98451 476.937225 
L 204.067052 476.280549 
L 199.526346 475.554047 
L 194.98564 474.880124 
L 191.665231 474.417949 
L 190.444935 474.253941 
L 185.904229 473.659375 
L 181.363524 473.124631 
L 176.822818 472.648057 
L 172.282112 472.226686 
L 168.296802 471.898674 
L 167.741407 471.842611 
L 163.200701 471.410046 
L 158.659996 471.032961 
L 154.11929 470.706138 
L 149.578584 470.424645 
L 145.037879 470.183957 
L 140.497173 469.980018 
L 135.956468 469.809265 
L 131.415762 469.668629 
L 126.875057 469.555526 
L 122.334351 469.467828 
L 117.793645 469.403852 
L 115.138003 469.379398 
L 113.25294 469.351874 
L 108.712234 469.319614 
L 104.171529 469.321433 
L 99.630823 469.357425 
L 98.212135 469.379398 
L 95.090117 469.409505 
L 90.549412 469.475311 
L 86.008706 469.564491 
L 81.468001 469.678773 
L 76.927295 469.820453 
L 72.386589 469.992489 
L 67.845884 470.198607 
L 63.305178 470.44345 
L 58.764473 470.732761 
L 54.223767 471.073617 
L 49.683061 471.474724 
L 45.570575 471.898674 
L 45.142356 471.932591 
L 40.60165 472.323749 
L 36.060945 472.783872 
L 31.520239 473.326707 
L 26.979533 473.969326 
L 24.182197 474.417949 
L 22.438828 474.685918 
L 17.898122 475.458666 
L 13.357417 476.381203 
L 10.920023 476.937225 
L 8.816711 477.547249 
L 4.276005 479.01895 
L 3.026061 479.4565 
L -0.2647 481.883184 
L -0.390602 481.975776 
L -0.2647 482.367371 
L 0.370163 484.495051 
L 4.276005 486.377115 
L 5.717402 487.014327 
L 8.816711 487.83165 
L 13.357417 488.864104 
L 16.825617 489.533602 
L 17.898122 489.719084 
L 22.438828 490.440744 
L 26.979533 491.042519 
L 31.520239 491.545701 
L 36.060945 491.967346 
L 37.081944 492.052878 
z
M 72.386589 492.052878 
L 72.386589 492.052878 
L 67.845884 491.885264 
L 63.305178 491.679517 
L 58.764473 491.430399 
L 54.223767 491.131434 
L 49.683061 490.774637 
L 45.142356 490.350177 
L 40.60165 489.84595 
L 38.126907 489.533602 
L 36.060945 489.256183 
L 31.520239 488.564383 
L 26.979533 487.736678 
L 23.571175 487.014327 
L 22.438828 486.630603 
L 17.898122 484.925431 
L 16.849678 484.495051 
L 15.728689 481.975776 
L 17.898122 480.581118 
L 19.69637 479.4565 
L 22.438828 478.64489 
L 26.979533 477.452476 
L 29.171094 476.937225 
L 31.520239 476.496221 
L 36.060945 475.734348 
L 40.60165 475.08741 
L 45.142356 474.53648 
L 46.218205 474.417949 
L 49.683061 474.010231 
L 54.223767 473.546357 
L 58.764473 473.151886 
L 63.305178 472.81692 
L 67.845884 472.533422 
L 72.386589 472.294872 
L 76.927295 472.09601 
L 81.468001 471.932629 
L 82.618239 471.898674 
L 86.008706 471.763207 
L 90.549412 471.622268 
L 95.090117 471.520366 
L 99.630823 471.455463 
L 104.171529 471.426284 
L 108.712234 471.432263 
L 113.25294 471.473509 
L 117.793645 471.550788 
L 122.334351 471.665525 
L 126.875057 471.819818 
L 128.735572 471.898674 
L 131.415762 471.985132 
L 135.956468 472.163759 
L 140.497173 472.380218 
L 145.037879 472.63855 
L 149.578584 472.943447 
L 154.11929 473.300259 
L 158.659996 473.714972 
L 163.200701 474.194133 
L 165.137228 474.417949 
L 167.741407 474.720199 
L 172.282112 475.304979 
L 176.822818 475.973162 
L 181.363524 476.7314 
L 182.540411 476.937225 
L 185.904229 477.77667 
L 190.444935 479.021604 
L 191.970159 479.4565 
L 194.500917 481.975776 
L 190.444935 484.410341 
L 190.307704 484.495051 
L 185.904229 485.589552 
L 181.363524 486.622171 
L 179.557314 487.014327 
L 176.822818 487.459289 
L 172.282112 488.143975 
L 167.741407 488.751296 
L 163.200701 489.287654 
L 160.925188 489.533602 
L 158.659996 489.784069 
L 154.11929 490.240826 
L 149.578584 490.637767 
L 145.037879 490.981455 
L 140.497173 491.277734 
L 135.956468 491.531711 
L 131.415762 491.747786 
L 126.875057 491.929685 
L 123.191226 492.052878 
L 122.334351 492.090992 
L 117.793645 492.259235 
L 113.25294 492.390295 
L 108.712234 492.486428 
L 104.171529 492.549217 
L 99.630823 492.579604 
L 95.090117 492.577899 
L 90.549412 492.543781 
L 86.008706 492.476278 
L 81.468001 492.373721 
L 76.927295 492.23368 
z
M 530.997855 484.552646 
L 535.53856 484.558158 
L 540.079266 484.5111 
L 540.807226 484.495051 
L 544.619971 484.309546 
L 549.160677 483.968209 
L 553.701383 483.501462 
L 558.242088 482.902944 
L 562.782794 482.164546 
L 563.76893 481.975776 
L 562.782794 481.618676 
L 558.242088 480.236406 
L 555.051728 479.4565 
L 553.701383 479.362544 
L 549.160677 479.114434 
L 544.619971 478.934797 
L 540.079266 478.820354 
L 535.53856 478.768777 
L 530.997855 478.778623 
L 526.457149 478.849288 
L 521.916443 478.98098 
L 517.375738 479.174713 
L 512.835032 479.432311 
L 512.488917 479.4565 
L 508.294327 480.462986 
L 503.753621 481.78754 
L 503.196626 481.975776 
L 503.753621 482.079658 
L 508.294327 482.81239 
L 512.835032 483.415456 
L 517.375738 483.894319 
L 521.916443 484.253189 
L 526.457149 484.495051 
L 526.457149 484.495051 
z
" clip-path="url(#p6595e54d7a)" style="fill: #cde0f1"/>
    <path d="M 76.927295 492.23368 
L 81.468001 492.373721 
L 86.008706 492.476278 
L 90.549412 492.543781 
L 95.090117 492.577899 
L 99.630823 492.579604 
L 104.171529 492.549217 
L 108.712234 492.486428 
L 113.25294 492.390295 
L 117.793645 492.259235 
L 122.334351 492.090992 
L 123.191226 492.052878 
L 126.875057 491.929685 
L 131.415762 491.747786 
L 135.956468 491.531711 
L 140.497173 491.277734 
L 145.037879 490.981455 
L 149.578584 490.637767 
L 154.11929 490.240826 
L 158.659996 489.784069 
L 160.925188 489.533602 
L 163.200701 489.287654 
L 167.741407 488.751296 
L 172.282112 488.143975 
L 176.822818 487.459289 
L 179.557314 487.014327 
L 181.363524 486.622171 
L 185.904229 485.589552 
L 190.307704 484.495051 
L 190.444935 484.410341 
L 194.500917 481.975776 
L 191.970159 479.4565 
L 190.444935 479.021604 
L 185.904229 477.77667 
L 182.540411 476.937225 
L 181.363524 476.7314 
L 176.822818 475.973162 
L 172.282112 475.304979 
L 167.741407 474.720199 
L 165.137228 474.417949 
L 163.200701 474.194133 
L 158.659996 473.714972 
L 154.11929 473.300259 
L 149.578584 472.943447 
L 145.037879 472.63855 
L 140.497173 472.380218 
L 135.956468 472.163759 
L 131.415762 471.985132 
L 128.735572 471.898674 
L 126.875057 471.819818 
L 122.334351 471.665525 
L 117.793645 471.550788 
L 113.25294 471.473509 
L 108.712234 471.432263 
L 104.171529 471.426284 
L 99.630823 471.455463 
L 95.090117 471.520366 
L 90.549412 471.622268 
L 86.008706 471.763207 
L 82.618239 471.898674 
L 81.468001 471.932629 
L 76.927295 472.09601 
L 72.386589 472.294872 
L 67.845884 472.533422 
L 63.305178 472.81692 
L 58.764473 473.151886 
L 54.223767 473.546357 
L 49.683061 474.010231 
L 46.218205 474.417949 
L 45.142356 474.53648 
L 40.60165 475.08741 
L 36.060945 475.734348 
L 31.520239 476.496221 
L 29.171094 476.937225 
L 26.979533 477.452476 
L 22.438828 478.64489 
L 19.69637 479.4565 
L 17.898122 480.581118 
L 15.728689 481.975776 
L 16.849678 484.495051 
L 17.898122 484.925431 
L 22.438828 486.630603 
L 23.571175 487.014327 
L 26.979533 487.736678 
L 31.520239 488.564383 
L 36.060945 489.256183 
L 38.126907 489.533602 
L 40.60165 489.84595 
L 45.142356 490.350177 
L 49.683061 490.774637 
L 54.223767 491.131434 
L 58.764473 491.430399 
L 63.305178 491.679517 
L 67.845884 491.885264 
L 72.386589 492.052878 
L 72.386589 492.052878 
z
M 62.955914 489.533602 
L 58.764473 489.19794 
L 54.223767 488.762737 
L 49.683061 488.242261 
L 45.142356 487.621711 
L 41.351602 487.014327 
L 40.60165 486.830961 
L 36.060945 485.597577 
L 32.592034 484.495051 
L 31.520239 482.760808 
L 31.039377 481.975776 
L 31.520239 481.703865 
L 35.710144 479.4565 
L 36.060945 479.367794 
L 40.60165 478.29489 
L 45.142356 477.378025 
L 47.602729 476.937225 
L 49.683061 476.635231 
L 54.223767 476.047786 
L 58.764473 475.547505 
L 63.305178 475.122157 
L 67.845884 474.761812 
L 72.386589 474.458432 
L 73.089392 474.417949 
L 76.927295 474.175269 
L 81.468001 473.939331 
L 86.008706 473.751541 
L 90.549412 473.608078 
L 95.090117 473.506117 
L 99.630823 473.443719 
L 104.171529 473.41976 
L 108.712234 473.433875 
L 113.25294 473.486428 
L 117.793645 473.578511 
L 122.334351 473.711944 
L 126.875057 473.889304 
L 131.415762 474.113958 
L 135.956468 474.39011 
L 136.354472 474.417949 
L 140.497173 474.694885 
L 145.037879 475.055838 
L 149.578584 475.482547 
L 154.11929 475.982965 
L 158.659996 476.566025 
L 161.245713 476.937225 
L 163.200701 477.321399 
L 167.741407 478.31116 
L 172.282112 479.4565 
L 172.282112 479.4565 
L 175.375675 481.975776 
L 172.282112 483.885859 
L 171.287867 484.495051 
L 167.741407 485.328619 
L 163.200701 486.295178 
L 159.433031 487.014327 
L 158.659996 487.124419 
L 154.11929 487.729186 
L 149.578584 488.256377 
L 145.037879 488.714198 
L 140.497173 489.109975 
L 135.956468 489.450134 
L 134.692767 489.533602 
L 131.415762 489.75881 
L 126.875057 490.024211 
L 122.334351 490.243204 
L 117.793645 490.419547 
L 113.25294 490.556197 
L 108.712234 490.655361 
L 104.171529 490.718532 
L 99.630823 490.746519 
L 95.090117 490.739448 
L 90.549412 490.696757 
L 86.008706 490.617163 
L 81.468001 490.498607 
L 76.927295 490.338179 
L 72.386589 490.132004 
L 67.845884 489.875098 
L 63.305178 489.561178 
z
" clip-path="url(#p6595e54d7a)" style="fill: #a8cee4"/>
    <path d="M 63.305178 489.561178 
L 67.845884 489.875098 
L 72.386589 490.132004 
L 76.927295 490.338179 
L 81.468001 490.498607 
L 86.008706 490.617163 
L 90.549412 490.696757 
L 95.090117 490.739448 
L 99.630823 490.746519 
L 104.171529 490.718532 
L 108.712234 490.655361 
L 113.25294 490.556197 
L 117.793645 490.419547 
L 122.334351 490.243204 
L 126.875057 490.024211 
L 131.415762 489.75881 
L 134.692767 489.533602 
L 135.956468 489.450134 
L 140.497173 489.109975 
L 145.037879 488.714198 
L 149.578584 488.256377 
L 154.11929 487.729186 
L 158.659996 487.124419 
L 159.433031 487.014327 
L 163.200701 486.295178 
L 167.741407 485.328619 
L 171.287867 484.495051 
L 172.282112 483.885859 
L 175.375675 481.975776 
L 172.282112 479.4565 
L 172.282112 479.4565 
L 167.741407 478.31116 
L 163.200701 477.321399 
L 161.245713 476.937225 
L 158.659996 476.566025 
L 154.11929 475.982965 
L 149.578584 475.482547 
L 145.037879 475.055838 
L 140.497173 474.694885 
L 136.354472 474.417949 
L 135.956468 474.39011 
L 131.415762 474.113958 
L 126.875057 473.889304 
L 122.334351 473.711944 
L 117.793645 473.578511 
L 113.25294 473.486428 
L 108.712234 473.433875 
L 104.171529 473.41976 
L 99.630823 473.443719 
L 95.090117 473.506117 
L 90.549412 473.608078 
L 86.008706 473.751541 
L 81.468001 473.939331 
L 76.927295 474.175269 
L 73.089392 474.417949 
L 72.386589 474.458432 
L 67.845884 474.761812 
L 63.305178 475.122157 
L 58.764473 475.547505 
L 54.223767 476.047786 
L 49.683061 476.635231 
L 47.602729 476.937225 
L 45.142356 477.378025 
L 40.60165 478.29489 
L 36.060945 479.367794 
L 35.710144 479.4565 
L 31.520239 481.703865 
L 31.039377 481.975776 
L 31.520239 482.760808 
L 32.592034 484.495051 
L 36.060945 485.597577 
L 40.60165 486.830961 
L 41.351602 487.014327 
L 45.142356 487.621711 
L 49.683061 488.242261 
L 54.223767 488.762737 
L 58.764473 489.19794 
L 62.955914 489.533602 
z
M 55.132709 487.014327 
L 54.223767 486.851557 
L 49.683061 485.927979 
L 45.142356 484.819691 
L 43.951003 484.495051 
L 41.918595 481.975776 
L 45.142356 480.427448 
L 47.336787 479.4565 
L 49.683061 478.969569 
L 54.223767 478.131801 
L 58.764473 477.415328 
L 62.26749 476.937225 
L 63.305178 476.821242 
L 67.845884 476.371656 
L 72.386589 475.994411 
L 76.927295 475.681304 
L 81.468001 475.425802 
L 86.008706 475.222794 
L 90.549412 475.068394 
L 95.090117 474.959796 
L 99.630823 474.895169 
L 104.171529 474.87358 
L 108.712234 474.894953 
L 113.25294 474.960042 
L 117.793645 475.070437 
L 122.334351 475.228587 
L 126.875057 475.437835 
L 131.415762 475.702482 
L 135.956468 476.027845 
L 140.497173 476.420341 
L 145.037879 476.887555 
L 145.472464 476.937225 
L 149.578584 477.560583 
L 154.11929 478.369002 
L 158.659996 479.317184 
L 159.276361 479.4565 
L 163.01878 481.975776 
L 158.659996 484.495051 
L 158.659996 484.495051 
L 154.11929 485.431851 
L 149.578584 486.253933 
L 145.037879 486.972716 
L 144.750854 487.014327 
L 140.497173 487.475873 
L 135.956468 487.899947 
L 131.415762 488.260533 
L 126.875057 488.563564 
L 122.334351 488.813958 
L 117.793645 489.015682 
L 113.25294 489.17181 
L 108.712234 489.284572 
L 104.171529 489.355387 
L 99.630823 489.38488 
L 95.090117 489.372882 
L 90.549412 489.318401 
L 86.008706 489.21958 
L 81.468001 489.073617 
L 76.927295 488.87666 
L 72.386589 488.623661 
L 67.845884 488.308184 
L 63.305178 487.92216 
L 58.764473 487.455563 
z
" clip-path="url(#p6595e54d7a)" style="fill: #72b2d8"/>
    <path d="M 58.764473 487.455563 
L 63.305178 487.92216 
L 67.845884 488.308184 
L 72.386589 488.623661 
L 76.927295 488.87666 
L 81.468001 489.073617 
L 86.008706 489.21958 
L 90.549412 489.318401 
L 95.090117 489.372882 
L 99.630823 489.38488 
L 104.171529 489.355387 
L 108.712234 489.284572 
L 113.25294 489.17181 
L 117.793645 489.015682 
L 122.334351 488.813958 
L 126.875057 488.563564 
L 131.415762 488.260533 
L 135.956468 487.899947 
L 140.497173 487.475873 
L 144.750854 487.014327 
L 145.037879 486.972716 
L 149.578584 486.253933 
L 154.11929 485.431851 
L 158.659996 484.495051 
L 158.659996 484.495051 
L 163.01878 481.975776 
L 159.276361 479.4565 
L 158.659996 479.317184 
L 154.11929 478.369002 
L 149.578584 477.560583 
L 145.472464 476.937225 
L 145.037879 476.887555 
L 140.497173 476.420341 
L 135.956468 476.027845 
L 131.415762 475.702482 
L 126.875057 475.437835 
L 122.334351 475.228587 
L 117.793645 475.070437 
L 113.25294 474.960042 
L 108.712234 474.894953 
L 104.171529 474.87358 
L 99.630823 474.895169 
L 95.090117 474.959796 
L 90.549412 475.068394 
L 86.008706 475.222794 
L 81.468001 475.425802 
L 76.927295 475.681304 
L 72.386589 475.994411 
L 67.845884 476.371656 
L 63.305178 476.821242 
L 62.26749 476.937225 
L 58.764473 477.415328 
L 54.223767 478.131801 
L 49.683061 478.969569 
L 47.336787 479.4565 
L 45.142356 480.427448 
L 41.918595 481.975776 
L 43.951003 484.495051 
L 45.142356 484.819691 
L 49.683061 485.927979 
L 54.223767 486.851557 
L 55.132709 487.014327 
z
M 78.279489 487.014327 
L 76.927295 486.906833 
L 72.386589 486.454588 
L 67.845884 485.88889 
L 63.305178 485.194021 
L 59.500588 484.495051 
L 58.764473 483.9384 
L 56.440865 481.975776 
L 58.764473 481.078043 
L 63.305178 479.517507 
L 63.502915 479.4565 
L 67.845884 478.833778 
L 72.386589 478.285059 
L 76.927295 477.828926 
L 81.468001 477.456508 
L 86.008706 477.160964 
L 90.549412 476.937225 
L 90.549412 476.937225 
L 95.090117 476.805837 
L 99.630823 476.731277 
L 104.171529 476.712347 
L 108.712234 476.748948 
L 113.25294 476.842061 
L 116.124768 476.937225 
L 117.793645 477.005407 
L 122.334351 477.264218 
L 126.875057 477.60556 
L 131.415762 478.037323 
L 135.956468 478.569187 
L 140.497173 479.212792 
L 141.99992 479.4565 
L 145.037879 480.799398 
L 147.371884 481.975776 
L 145.037879 483.143989 
L 142.124811 484.495051 
L 140.497173 484.766234 
L 135.956468 485.441405 
L 131.415762 486.01815 
L 126.875057 486.504881 
L 122.334351 486.908504 
L 120.88303 487.014327 
L 117.793645 487.184509 
L 113.25294 487.378052 
L 108.712234 487.515668 
L 104.171529 487.599179 
L 99.630823 487.629386 
L 95.090117 487.606065 
L 90.549412 487.527932 
L 86.008706 487.392587 
L 81.468001 487.196411 
z
" clip-path="url(#p6595e54d7a)" style="fill: #4292c6"/>
    <path d="M 81.468001 487.196411 
L 86.008706 487.392587 
L 90.549412 487.527932 
L 95.090117 487.606065 
L 99.630823 487.629386 
L 104.171529 487.599179 
L 108.712234 487.515668 
L 113.25294 487.378052 
L 117.793645 487.184509 
L 120.88303 487.014327 
L 122.334351 486.908504 
L 126.875057 486.504881 
L 131.415762 486.01815 
L 135.956468 485.441405 
L 140.497173 484.766234 
L 142.124811 484.495051 
L 145.037879 483.143989 
L 147.371884 481.975776 
L 145.037879 480.799398 
L 141.99992 479.4565 
L 140.497173 479.212792 
L 135.956468 478.569187 
L 131.415762 478.037323 
L 126.875057 477.60556 
L 122.334351 477.264218 
L 117.793645 477.005407 
L 116.124768 476.937225 
L 113.25294 476.842061 
L 108.712234 476.748948 
L 104.171529 476.712347 
L 99.630823 476.731277 
L 95.090117 476.805837 
L 90.549412 476.937225 
L 90.549412 476.937225 
L 86.008706 477.160964 
L 81.468001 477.456508 
L 76.927295 477.828926 
L 72.386589 478.285059 
L 67.845884 478.833778 
L 63.502915 479.4565 
L 63.305178 479.517507 
L 58.764473 481.078043 
L 56.440865 481.975776 
L 58.764473 483.9384 
L 59.500588 484.495051 
L 63.305178 485.194021 
L 67.845884 485.88889 
L 72.386589 486.454588 
L 76.927295 486.906833 
L 78.279489 487.014327 
z
M 77.362736 484.495051 
L 76.927295 484.340712 
L 72.386589 482.308706 
L 71.773316 481.975776 
L 72.386589 481.802495 
L 76.927295 480.692032 
L 81.468001 479.775022 
L 83.421263 479.4565 
L 86.008706 479.262847 
L 90.549412 479.006923 
L 95.090117 478.834019 
L 99.630823 478.741683 
L 104.171529 478.729117 
L 108.712234 478.797122 
L 113.25294 478.9481 
L 117.793645 479.186086 
L 121.527822 479.4565 
L 122.334351 479.599628 
L 126.875057 480.638572 
L 131.415762 481.975776 
L 126.875057 483.546703 
L 123.666802 484.495051 
L 122.334351 484.630598 
L 117.793645 485.008166 
L 113.25294 485.296578 
L 108.712234 485.49916 
L 104.171529 485.617655 
L 99.630823 485.652219 
L 95.090117 485.601377 
L 90.549412 485.461936 
L 86.008706 485.228847 
L 81.468001 484.895003 
z
" clip-path="url(#p6595e54d7a)" style="fill: #1a68ae"/>
    <path d="M 81.468001 484.895003 
L 86.008706 485.228847 
L 90.549412 485.461936 
L 95.090117 485.601377 
L 99.630823 485.652219 
L 104.171529 485.617655 
L 108.712234 485.49916 
L 113.25294 485.296578 
L 117.793645 485.008166 
L 122.334351 484.630598 
L 123.666802 484.495051 
L 126.875057 483.546703 
L 131.415762 481.975776 
L 126.875057 480.638572 
L 122.334351 479.599628 
L 121.527822 479.4565 
L 117.793645 479.186086 
L 113.25294 478.9481 
L 108.712234 478.797122 
L 104.171529 478.729117 
L 99.630823 478.741683 
L 95.090117 478.834019 
L 90.549412 479.006923 
L 86.008706 479.262847 
L 83.421263 479.4565 
L 81.468001 479.775022 
L 76.927295 480.692032 
L 72.386589 481.802495 
L 71.773316 481.975776 
L 72.386589 482.308706 
L 76.927295 484.340712 
L 77.362736 484.495051 
z
" clip-path="url(#p6595e54d7a)" style="fill: #084285"/>
   </g>
   <g id="matplotlib.axis_1">
    <g id="xtick_1">
     <g id="line2d_1">
      <defs>
       <path id="mb8bcd072c2" d="M 0 0 
L 0 3.5 
" style="stroke: #000000; stroke-width: 0.8"/>
      </defs>
      <g>
       <use xlink:href="#mb8bcd072c2" x="89.275814" y="499.48" style="stroke: #000000; stroke-width: 0.8"/>
      </g>
     </g>
     <g id="text_1">
      <!-- 0 -->
      <g transform="translate(82.277064 523.196563) scale(0.22 -0.22)">
       <defs>
        <path id="DejaVuSans-30" d="M 2034 4250 
Q 1547 4250 1301 3770 
Q 1056 3291 1056 2328 
Q 1056 1369 1301 889 
Q 1547 409 2034 409 
Q 2525 409 2770 889 
Q 3016 1369 3016 2328 
Q 3016 3291 2770 3770 
Q 2525 4250 2034 4250 
z
M 2034 4750 
Q 2819 4750 3233 4129 
Q 3647 3509 3647 2328 
Q 3647 1150 3233 529 
Q 2819 -91 2034 -91 
Q 1250 -91 836 529 
Q 422 1150 422 2328 
Q 422 3509 836 4129 
Q 1250 4750 2034 4750 
z
" transform="scale(0.015625)"/>
       </defs>
       <use xlink:href="#DejaVuSans-30"/>
      </g>
     </g>
    </g>
    <g id="xtick_2">
     <g id="line2d_2">
      <g>
       <use xlink:href="#mb8bcd072c2" x="171.87904" y="499.48" style="stroke: #000000; stroke-width: 0.8"/>
      </g>
     </g>
     <g id="text_2">
      <!-- 10 -->
      <g transform="translate(157.88154 523.196563) scale(0.22 -0.22)">
       <defs>
        <path id="DejaVuSans-31" d="M 794 531 
L 1825 531 
L 1825 4091 
L 703 3866 
L 703 4441 
L 1819 4666 
L 2450 4666 
L 2450 531 
L 3481 531 
L 3481 0 
L 794 0 
L 794 531 
z
" transform="scale(0.015625)"/>
       </defs>
       <use xlink:href="#DejaVuSans-31"/>
       <use xlink:href="#DejaVuSans-30" x="63.623047"/>
      </g>
     </g>
    </g>
    <g id="xtick_3">
     <g id="line2d_3">
      <g>
       <use xlink:href="#mb8bcd072c2" x="254.482267" y="499.48" style="stroke: #000000; stroke-width: 0.8"/>
      </g>
     </g>
     <g id="text_3">
      <!-- 20 -->
      <g transform="translate(240.484767 523.196563) scale(0.22 -0.22)">
       <defs>
        <path id="DejaVuSans-32" d="M 1228 531 
L 3431 531 
L 3431 0 
L 469 0 
L 469 531 
Q 828 903 1448 1529 
Q 2069 2156 2228 2338 
Q 2531 2678 2651 2914 
Q 2772 3150 2772 3378 
Q 2772 3750 2511 3984 
Q 2250 4219 1831 4219 
Q 1534 4219 1204 4116 
Q 875 4013 500 3803 
L 500 4441 
Q 881 4594 1212 4672 
Q 1544 4750 1819 4750 
Q 2544 4750 2975 4387 
Q 3406 4025 3406 3419 
Q 3406 3131 3298 2873 
Q 3191 2616 2906 2266 
Q 2828 2175 2409 1742 
Q 1991 1309 1228 531 
z
" transform="scale(0.015625)"/>
       </defs>
       <use xlink:href="#DejaVuSans-32"/>
       <use xlink:href="#DejaVuSans-30" x="63.623047"/>
      </g>
     </g>
    </g>
    <g id="xtick_4">
     <g id="line2d_4">
      <g>
       <use xlink:href="#mb8bcd072c2" x="337.085493" y="499.48" style="stroke: #000000; stroke-width: 0.8"/>
      </g>
     </g>
     <g id="text_4">
      <!-- 30 -->
      <g transform="translate(323.087993 523.196563) scale(0.22 -0.22)">
       <defs>
        <path id="DejaVuSans-33" d="M 2597 2516 
Q 3050 2419 3304 2112 
Q 3559 1806 3559 1356 
Q 3559 666 3084 287 
Q 2609 -91 1734 -91 
Q 1441 -91 1130 -33 
Q 819 25 488 141 
L 488 750 
Q 750 597 1062 519 
Q 1375 441 1716 441 
Q 2309 441 2620 675 
Q 2931 909 2931 1356 
Q 2931 1769 2642 2001 
Q 2353 2234 1838 2234 
L 1294 2234 
L 1294 2753 
L 1863 2753 
Q 2328 2753 2575 2939 
Q 2822 3125 2822 3475 
Q 2822 3834 2567 4026 
Q 2313 4219 1838 4219 
Q 1578 4219 1281 4162 
Q 984 4106 628 3988 
L 628 4550 
Q 988 4650 1302 4700 
Q 1616 4750 1894 4750 
Q 2613 4750 3031 4423 
Q 3450 4097 3450 3541 
Q 3450 3153 3228 2886 
Q 3006 2619 2597 2516 
z
" transform="scale(0.015625)"/>
       </defs>
       <use xlink:href="#DejaVuSans-33"/>
       <use xlink:href="#DejaVuSans-30" x="63.623047"/>
      </g>
     </g>
    </g>
    <g id="xtick_5">
     <g id="line2d_5">
      <g>
       <use xlink:href="#mb8bcd072c2" x="419.688719" y="499.48" style="stroke: #000000; stroke-width: 0.8"/>
      </g>
     </g>
     <g id="text_5">
      <!-- 40 -->
      <g transform="translate(405.691219 523.196563) scale(0.22 -0.22)">
       <defs>
        <path id="DejaVuSans-34" d="M 2419 4116 
L 825 1625 
L 2419 1625 
L 2419 4116 
z
M 2253 4666 
L 3047 4666 
L 3047 1625 
L 3713 1625 
L 3713 1100 
L 3047 1100 
L 3047 0 
L 2419 0 
L 2419 1100 
L 313 1100 
L 313 1709 
L 2253 4666 
z
" transform="scale(0.015625)"/>
       </defs>
       <use xlink:href="#DejaVuSans-34"/>
       <use xlink:href="#DejaVuSans-30" x="63.623047"/>
      </g>
     </g>
    </g>
    <g id="xtick_6">
     <g id="line2d_6">
      <g>
       <use xlink:href="#mb8bcd072c2" x="502.291945" y="499.48" style="stroke: #000000; stroke-width: 0.8"/>
      </g>
     </g>
     <g id="text_6">
      <!-- 50 -->
      <g transform="translate(488.294445 523.196563) scale(0.22 -0.22)">
       <defs>
        <path id="DejaVuSans-35" d="M 691 4666 
L 3169 4666 
L 3169 4134 
L 1269 4134 
L 1269 2991 
Q 1406 3038 1543 3061 
Q 1681 3084 1819 3084 
Q 2600 3084 3056 2656 
Q 3513 2228 3513 1497 
Q 3513 744 3044 326 
Q 2575 -91 1722 -91 
Q 1428 -91 1123 -41 
Q 819 9 494 109 
L 494 744 
Q 775 591 1075 516 
Q 1375 441 1709 441 
Q 2250 441 2565 725 
Q 2881 1009 2881 1497 
Q 2881 1984 2565 2268 
Q 2250 2553 1709 2553 
Q 1456 2553 1204 2497 
Q 953 2441 691 2322 
L 691 4666 
z
" transform="scale(0.015625)"/>
       </defs>
       <use xlink:href="#DejaVuSans-35"/>
       <use xlink:href="#DejaVuSans-30" x="63.623047"/>
      </g>
     </g>
    </g>
    <g id="xtick_7">
     <g id="line2d_7">
      <g>
       <use xlink:href="#mb8bcd072c2" x="584.895172" y="499.48" style="stroke: #000000; stroke-width: 0.8"/>
      </g>
     </g>
     <g id="text_7">
      <!-- 60 -->
      <g transform="translate(570.897672 523.196563) scale(0.22 -0.22)">
       <defs>
        <path id="DejaVuSans-36" d="M 2113 2584 
Q 1688 2584 1439 2293 
Q 1191 2003 1191 1497 
Q 1191 994 1439 701 
Q 1688 409 2113 409 
Q 2538 409 2786 701 
Q 3034 994 3034 1497 
Q 3034 2003 2786 2293 
Q 2538 2584 2113 2584 
z
M 3366 4563 
L 3366 3988 
Q 3128 4100 2886 4159 
Q 2644 4219 2406 4219 
Q 1781 4219 1451 3797 
Q 1122 3375 1075 2522 
Q 1259 2794 1537 2939 
Q 1816 3084 2150 3084 
Q 2853 3084 3261 2657 
Q 3669 2231 3669 1497 
Q 3669 778 3244 343 
Q 2819 -91 2113 -91 
Q 1303 -91 875 529 
Q 447 1150 447 2328 
Q 447 3434 972 4092 
Q 1497 4750 2381 4750 
Q 2619 4750 2861 4703 
Q 3103 4656 3366 4563 
z
" transform="scale(0.015625)"/>
       </defs>
       <use xlink:href="#DejaVuSans-36"/>
       <use xlink:href="#DejaVuSans-30" x="63.623047"/>
      </g>
     </g>
    </g>
    <g id="xtick_8">
     <g id="line2d_8">
      <g>
       <use xlink:href="#mb8bcd072c2" x="667.498398" y="499.48" style="stroke: #000000; stroke-width: 0.8"/>
      </g>
     </g>
     <g id="text_8">
      <!-- 70 -->
      <g transform="translate(653.500898 523.196563) scale(0.22 -0.22)">
       <defs>
        <path id="DejaVuSans-37" d="M 525 4666 
L 3525 4666 
L 3525 4397 
L 1831 0 
L 1172 0 
L 2766 4134 
L 525 4134 
L 525 4666 
z
" transform="scale(0.015625)"/>
       </defs>
       <use xlink:href="#DejaVuSans-37"/>
       <use xlink:href="#DejaVuSans-30" x="63.623047"/>
      </g>
     </g>
    </g>
    <g id="text_9">
     <!-- Force Uncertainties -->
     <g transform="translate(283.426094 548.488438) scale(0.22 -0.22)">
      <defs>
       <path id="DejaVuSans-46" d="M 628 4666 
L 3309 4666 
L 3309 4134 
L 1259 4134 
L 1259 2759 
L 3109 2759 
L 3109 2228 
L 1259 2228 
L 1259 0 
L 628 0 
L 628 4666 
z
" transform="scale(0.015625)"/>
       <path id="DejaVuSans-6f" d="M 1959 3097 
Q 1497 3097 1228 2736 
Q 959 2375 959 1747 
Q 959 1119 1226 758 
Q 1494 397 1959 397 
Q 2419 397 2687 759 
Q 2956 1122 2956 1747 
Q 2956 2369 2687 2733 
Q 2419 3097 1959 3097 
z
M 1959 3584 
Q 2709 3584 3137 3096 
Q 3566 2609 3566 1747 
Q 3566 888 3137 398 
Q 2709 -91 1959 -91 
Q 1206 -91 779 398 
Q 353 888 353 1747 
Q 353 2609 779 3096 
Q 1206 3584 1959 3584 
z
" transform="scale(0.015625)"/>
       <path id="DejaVuSans-72" d="M 2631 2963 
Q 2534 3019 2420 3045 
Q 2306 3072 2169 3072 
Q 1681 3072 1420 2755 
Q 1159 2438 1159 1844 
L 1159 0 
L 581 0 
L 581 3500 
L 1159 3500 
L 1159 2956 
Q 1341 3275 1631 3429 
Q 1922 3584 2338 3584 
Q 2397 3584 2469 3576 
Q 2541 3569 2628 3553 
L 2631 2963 
z
" transform="scale(0.015625)"/>
       <path id="DejaVuSans-63" d="M 3122 3366 
L 3122 2828 
Q 2878 2963 2633 3030 
Q 2388 3097 2138 3097 
Q 1578 3097 1268 2742 
Q 959 2388 959 1747 
Q 959 1106 1268 751 
Q 1578 397 2138 397 
Q 2388 397 2633 464 
Q 2878 531 3122 666 
L 3122 134 
Q 2881 22 2623 -34 
Q 2366 -91 2075 -91 
Q 1284 -91 818 406 
Q 353 903 353 1747 
Q 353 2603 823 3093 
Q 1294 3584 2113 3584 
Q 2378 3584 2631 3529 
Q 2884 3475 3122 3366 
z
" transform="scale(0.015625)"/>
       <path id="DejaVuSans-65" d="M 3597 1894 
L 3597 1613 
L 953 1613 
Q 991 1019 1311 708 
Q 1631 397 2203 397 
Q 2534 397 2845 478 
Q 3156 559 3463 722 
L 3463 178 
Q 3153 47 2828 -22 
Q 2503 -91 2169 -91 
Q 1331 -91 842 396 
Q 353 884 353 1716 
Q 353 2575 817 3079 
Q 1281 3584 2069 3584 
Q 2775 3584 3186 3129 
Q 3597 2675 3597 1894 
z
M 3022 2063 
Q 3016 2534 2758 2815 
Q 2500 3097 2075 3097 
Q 1594 3097 1305 2825 
Q 1016 2553 972 2059 
L 3022 2063 
z
" transform="scale(0.015625)"/>
       <path id="DejaVuSans-20" transform="scale(0.015625)"/>
       <path id="DejaVuSans-55" d="M 556 4666 
L 1191 4666 
L 1191 1831 
Q 1191 1081 1462 751 
Q 1734 422 2344 422 
Q 2950 422 3222 751 
Q 3494 1081 3494 1831 
L 3494 4666 
L 4128 4666 
L 4128 1753 
Q 4128 841 3676 375 
Q 3225 -91 2344 -91 
Q 1459 -91 1007 375 
Q 556 841 556 1753 
L 556 4666 
z
" transform="scale(0.015625)"/>
       <path id="DejaVuSans-6e" d="M 3513 2113 
L 3513 0 
L 2938 0 
L 2938 2094 
Q 2938 2591 2744 2837 
Q 2550 3084 2163 3084 
Q 1697 3084 1428 2787 
Q 1159 2491 1159 1978 
L 1159 0 
L 581 0 
L 581 3500 
L 1159 3500 
L 1159 2956 
Q 1366 3272 1645 3428 
Q 1925 3584 2291 3584 
Q 2894 3584 3203 3211 
Q 3513 2838 3513 2113 
z
" transform="scale(0.015625)"/>
       <path id="DejaVuSans-74" d="M 1172 4494 
L 1172 3500 
L 2356 3500 
L 2356 3053 
L 1172 3053 
L 1172 1153 
Q 1172 725 1289 603 
Q 1406 481 1766 481 
L 2356 481 
L 2356 0 
L 1766 0 
Q 1100 0 847 248 
Q 594 497 594 1153 
L 594 3053 
L 172 3053 
L 172 3500 
L 594 3500 
L 594 4494 
L 1172 4494 
z
" transform="scale(0.015625)"/>
       <path id="DejaVuSans-61" d="M 2194 1759 
Q 1497 1759 1228 1600 
Q 959 1441 959 1056 
Q 959 750 1161 570 
Q 1363 391 1709 391 
Q 2188 391 2477 730 
Q 2766 1069 2766 1631 
L 2766 1759 
L 2194 1759 
z
M 3341 1997 
L 3341 0 
L 2766 0 
L 2766 531 
Q 2569 213 2275 61 
Q 1981 -91 1556 -91 
Q 1019 -91 701 211 
Q 384 513 384 1019 
Q 384 1609 779 1909 
Q 1175 2209 1959 2209 
L 2766 2209 
L 2766 2266 
Q 2766 2663 2505 2880 
Q 2244 3097 1772 3097 
Q 1472 3097 1187 3025 
Q 903 2953 641 2809 
L 641 3341 
Q 956 3463 1253 3523 
Q 1550 3584 1831 3584 
Q 2591 3584 2966 3190 
Q 3341 2797 3341 1997 
z
" transform="scale(0.015625)"/>
       <path id="DejaVuSans-69" d="M 603 3500 
L 1178 3500 
L 1178 0 
L 603 0 
L 603 3500 
z
M 603 4863 
L 1178 4863 
L 1178 4134 
L 603 4134 
L 603 4863 
z
" transform="scale(0.015625)"/>
       <path id="DejaVuSans-73" d="M 2834 3397 
L 2834 2853 
Q 2591 2978 2328 3040 
Q 2066 3103 1784 3103 
Q 1356 3103 1142 2972 
Q 928 2841 928 2578 
Q 928 2378 1081 2264 
Q 1234 2150 1697 2047 
L 1894 2003 
Q 2506 1872 2764 1633 
Q 3022 1394 3022 966 
Q 3022 478 2636 193 
Q 2250 -91 1575 -91 
Q 1294 -91 989 -36 
Q 684 19 347 128 
L 347 722 
Q 666 556 975 473 
Q 1284 391 1588 391 
Q 1994 391 2212 530 
Q 2431 669 2431 922 
Q 2431 1156 2273 1281 
Q 2116 1406 1581 1522 
L 1381 1569 
Q 847 1681 609 1914 
Q 372 2147 372 2553 
Q 372 3047 722 3315 
Q 1072 3584 1716 3584 
Q 2034 3584 2315 3537 
Q 2597 3491 2834 3397 
z
" transform="scale(0.015625)"/>
      </defs>
      <use xlink:href="#DejaVuSans-46"/>
      <use xlink:href="#DejaVuSans-6f" x="53.894531"/>
      <use xlink:href="#DejaVuSans-72" x="115.076172"/>
      <use xlink:href="#DejaVuSans-63" x="153.939453"/>
      <use xlink:href="#DejaVuSans-65" x="208.919922"/>
      <use xlink:href="#DejaVuSans-20" x="270.443359"/>
      <use xlink:href="#DejaVuSans-55" x="302.230469"/>
      <use xlink:href="#DejaVuSans-6e" x="375.423828"/>
      <use xlink:href="#DejaVuSans-63" x="438.802734"/>
      <use xlink:href="#DejaVuSans-65" x="493.783203"/>
      <use xlink:href="#DejaVuSans-72" x="555.306641"/>
      <use xlink:href="#DejaVuSans-74" x="596.419922"/>
      <use xlink:href="#DejaVuSans-61" x="635.628906"/>
      <use xlink:href="#DejaVuSans-69" x="696.908203"/>
      <use xlink:href="#DejaVuSans-6e" x="724.691406"/>
      <use xlink:href="#DejaVuSans-74" x="788.070312"/>
      <use xlink:href="#DejaVuSans-69" x="827.279297"/>
      <use xlink:href="#DejaVuSans-65" x="855.0625"/>
      <use xlink:href="#DejaVuSans-73" x="916.585938"/>
     </g>
    </g>
   </g>
   <g id="matplotlib.axis_2">
    <g id="ytick_1">
     <g id="line2d_9">
      <defs>
       <path id="m3822723b94" d="M 0 0 
L -3.5 0 
" style="stroke: #000000; stroke-width: 0.8"/>
      </defs>
      <g>
       <use xlink:href="#m3822723b94" x="83.72" y="495.16502" style="stroke: #000000; stroke-width: 0.8"/>
      </g>
     </g>
     <g id="text_10">
      <!-- 0 -->
      <g transform="translate(62.7225 503.523301) scale(0.22 -0.22)">
       <use xlink:href="#DejaVuSans-30"/>
      </g>
     </g>
    </g>
    <g id="ytick_2">
     <g id="line2d_10">
      <g>
       <use xlink:href="#m3822723b94" x="83.72" y="431.010369" style="stroke: #000000; stroke-width: 0.8"/>
      </g>
     </g>
     <g id="text_11">
      <!-- 10 -->
      <g transform="translate(48.725 439.36865) scale(0.22 -0.22)">
       <use xlink:href="#DejaVuSans-31"/>
       <use xlink:href="#DejaVuSans-30" x="63.623047"/>
      </g>
     </g>
    </g>
    <g id="ytick_3">
     <g id="line2d_11">
      <g>
       <use xlink:href="#m3822723b94" x="83.72" y="366.855718" style="stroke: #000000; stroke-width: 0.8"/>
      </g>
     </g>
     <g id="text_12">
      <!-- 20 -->
      <g transform="translate(48.725 375.213999) scale(0.22 -0.22)">
       <use xlink:href="#DejaVuSans-32"/>
       <use xlink:href="#DejaVuSans-30" x="63.623047"/>
      </g>
     </g>
    </g>
    <g id="ytick_4">
     <g id="line2d_12">
      <g>
       <use xlink:href="#m3822723b94" x="83.72" y="302.701067" style="stroke: #000000; stroke-width: 0.8"/>
      </g>
     </g>
     <g id="text_13">
      <!-- 30 -->
      <g transform="translate(48.725 311.059348) scale(0.22 -0.22)">
       <use xlink:href="#DejaVuSans-33"/>
       <use xlink:href="#DejaVuSans-30" x="63.623047"/>
      </g>
     </g>
    </g>
    <g id="ytick_5">
     <g id="line2d_13">
      <g>
       <use xlink:href="#m3822723b94" x="83.72" y="238.546416" style="stroke: #000000; stroke-width: 0.8"/>
      </g>
     </g>
     <g id="text_14">
      <!-- 40 -->
      <g transform="translate(48.725 246.904697) scale(0.22 -0.22)">
       <use xlink:href="#DejaVuSans-34"/>
       <use xlink:href="#DejaVuSans-30" x="63.623047"/>
      </g>
     </g>
    </g>
    <g id="ytick_6">
     <g id="line2d_14">
      <g>
       <use xlink:href="#m3822723b94" x="83.72" y="174.391765" style="stroke: #000000; stroke-width: 0.8"/>
      </g>
     </g>
     <g id="text_15">
      <!-- 50 -->
      <g transform="translate(48.725 182.750046) scale(0.22 -0.22)">
       <use xlink:href="#DejaVuSans-35"/>
       <use xlink:href="#DejaVuSans-30" x="63.623047"/>
      </g>
     </g>
    </g>
    <g id="ytick_7">
     <g id="line2d_15">
      <g>
       <use xlink:href="#m3822723b94" x="83.72" y="110.237114" style="stroke: #000000; stroke-width: 0.8"/>
      </g>
     </g>
     <g id="text_16">
      <!-- 60 -->
      <g transform="translate(48.725 118.595395) scale(0.22 -0.22)">
       <use xlink:href="#DejaVuSans-36"/>
       <use xlink:href="#DejaVuSans-30" x="63.623047"/>
      </g>
     </g>
    </g>
    <g id="ytick_8">
     <g id="line2d_16">
      <g>
       <use xlink:href="#m3822723b94" x="83.72" y="46.082463" style="stroke: #000000; stroke-width: 0.8"/>
      </g>
     </g>
     <g id="text_17">
      <!-- 70 -->
      <g transform="translate(48.725 54.440744) scale(0.22 -0.22)">
       <use xlink:href="#DejaVuSans-37"/>
       <use xlink:href="#DejaVuSans-30" x="63.623047"/>
      </g>
     </g>
    </g>
    <g id="text_18">
     <!-- Force Errors [kJ/(mol*A)] -->
     <g transform="translate(40.149688 394.9125) rotate(-90) scale(0.22 -0.22)">
      <defs>
       <path id="DejaVuSans-45" d="M 628 4666 
L 3578 4666 
L 3578 4134 
L 1259 4134 
L 1259 2753 
L 3481 2753 
L 3481 2222 
L 1259 2222 
L 1259 531 
L 3634 531 
L 3634 0 
L 628 0 
L 628 4666 
z
" transform="scale(0.015625)"/>
       <path id="DejaVuSans-5b" d="M 550 4863 
L 1875 4863 
L 1875 4416 
L 1125 4416 
L 1125 -397 
L 1875 -397 
L 1875 -844 
L 550 -844 
L 550 4863 
z
" transform="scale(0.015625)"/>
       <path id="DejaVuSans-6b" d="M 581 4863 
L 1159 4863 
L 1159 1991 
L 2875 3500 
L 3609 3500 
L 1753 1863 
L 3688 0 
L 2938 0 
L 1159 1709 
L 1159 0 
L 581 0 
L 581 4863 
z
" transform="scale(0.015625)"/>
       <path id="DejaVuSans-4a" d="M 628 4666 
L 1259 4666 
L 1259 325 
Q 1259 -519 939 -900 
Q 619 -1281 -91 -1281 
L -331 -1281 
L -331 -750 
L -134 -750 
Q 284 -750 456 -515 
Q 628 -281 628 325 
L 628 4666 
z
" transform="scale(0.015625)"/>
       <path id="DejaVuSans-2f" d="M 1625 4666 
L 2156 4666 
L 531 -594 
L 0 -594 
L 1625 4666 
z
" transform="scale(0.015625)"/>
       <path id="DejaVuSans-28" d="M 1984 4856 
Q 1566 4138 1362 3434 
Q 1159 2731 1159 2009 
Q 1159 1288 1364 580 
Q 1569 -128 1984 -844 
L 1484 -844 
Q 1016 -109 783 600 
Q 550 1309 550 2009 
Q 550 2706 781 3412 
Q 1013 4119 1484 4856 
L 1984 4856 
z
" transform="scale(0.015625)"/>
       <path id="DejaVuSans-6d" d="M 3328 2828 
Q 3544 3216 3844 3400 
Q 4144 3584 4550 3584 
Q 5097 3584 5394 3201 
Q 5691 2819 5691 2113 
L 5691 0 
L 5113 0 
L 5113 2094 
Q 5113 2597 4934 2840 
Q 4756 3084 4391 3084 
Q 3944 3084 3684 2787 
Q 3425 2491 3425 1978 
L 3425 0 
L 2847 0 
L 2847 2094 
Q 2847 2600 2669 2842 
Q 2491 3084 2119 3084 
Q 1678 3084 1418 2786 
Q 1159 2488 1159 1978 
L 1159 0 
L 581 0 
L 581 3500 
L 1159 3500 
L 1159 2956 
Q 1356 3278 1631 3431 
Q 1906 3584 2284 3584 
Q 2666 3584 2933 3390 
Q 3200 3197 3328 2828 
z
" transform="scale(0.015625)"/>
       <path id="DejaVuSans-6c" d="M 603 4863 
L 1178 4863 
L 1178 0 
L 603 0 
L 603 4863 
z
" transform="scale(0.015625)"/>
       <path id="DejaVuSans-2a" d="M 3009 3897 
L 1888 3291 
L 3009 2681 
L 2828 2375 
L 1778 3009 
L 1778 1831 
L 1422 1831 
L 1422 3009 
L 372 2375 
L 191 2681 
L 1313 3291 
L 191 3897 
L 372 4206 
L 1422 3572 
L 1422 4750 
L 1778 4750 
L 1778 3572 
L 2828 4206 
L 3009 3897 
z
" transform="scale(0.015625)"/>
       <path id="DejaVuSans-41" d="M 2188 4044 
L 1331 1722 
L 3047 1722 
L 2188 4044 
z
M 1831 4666 
L 2547 4666 
L 4325 0 
L 3669 0 
L 3244 1197 
L 1141 1197 
L 716 0 
L 50 0 
L 1831 4666 
z
" transform="scale(0.015625)"/>
       <path id="DejaVuSans-29" d="M 513 4856 
L 1013 4856 
Q 1481 4119 1714 3412 
Q 1947 2706 1947 2009 
Q 1947 1309 1714 600 
Q 1481 -109 1013 -844 
L 513 -844 
Q 928 -128 1133 580 
Q 1338 1288 1338 2009 
Q 1338 2731 1133 3434 
Q 928 4138 513 4856 
z
" transform="scale(0.015625)"/>
       <path id="DejaVuSans-5d" d="M 1947 4863 
L 1947 -844 
L 622 -844 
L 622 -397 
L 1369 -397 
L 1369 4416 
L 622 4416 
L 622 4863 
L 1947 4863 
z
" transform="scale(0.015625)"/>
      </defs>
      <use xlink:href="#DejaVuSans-46"/>
      <use xlink:href="#DejaVuSans-6f" x="53.894531"/>
      <use xlink:href="#DejaVuSans-72" x="115.076172"/>
      <use xlink:href="#DejaVuSans-63" x="153.939453"/>
      <use xlink:href="#DejaVuSans-65" x="208.919922"/>
      <use xlink:href="#DejaVuSans-20" x="270.443359"/>
      <use xlink:href="#DejaVuSans-45" x="302.230469"/>
      <use xlink:href="#DejaVuSans-72" x="365.414062"/>
      <use xlink:href="#DejaVuSans-72" x="404.777344"/>
      <use xlink:href="#DejaVuSans-6f" x="443.640625"/>
      <use xlink:href="#DejaVuSans-72" x="504.822266"/>
      <use xlink:href="#DejaVuSans-73" x="545.935547"/>
      <use xlink:href="#DejaVuSans-20" x="598.035156"/>
      <use xlink:href="#DejaVuSans-5b" x="629.822266"/>
      <use xlink:href="#DejaVuSans-6b" x="668.835938"/>
      <use xlink:href="#DejaVuSans-4a" x="726.746094"/>
      <use xlink:href="#DejaVuSans-2f" x="756.238281"/>
      <use xlink:href="#DejaVuSans-28" x="789.929688"/>
      <use xlink:href="#DejaVuSans-6d" x="828.943359"/>
      <use xlink:href="#DejaVuSans-6f" x="926.355469"/>
      <use xlink:href="#DejaVuSans-6c" x="987.537109"/>
      <use xlink:href="#DejaVuSans-2a" x="1015.320312"/>
      <use xlink:href="#DejaVuSans-41" x="1065.320312"/>
      <use xlink:href="#DejaVuSans-29" x="1133.728516"/>
      <use xlink:href="#DejaVuSans-5d" x="1172.742188"/>
     </g>
    </g>
   </g>
   <g id="line2d_17">
    <path d="M 83.72 499.48 
L 696.24 23.76 
" clip-path="url(#p6595e54d7a)" style="fill: none; stroke-dasharray: 5.55,2.4; stroke-dashoffset: 0; stroke: #ff0000; stroke-width: 1.5"/>
   </g>
   <g id="patch_3">
    <path d="M 83.72 499.48 
L 83.72 23.76 
" style="fill: none; stroke: #000000; stroke-width: 0.8; stroke-linejoin: miter; stroke-linecap: square"/>
   </g>
   <g id="patch_4">
    <path d="M 696.24 499.48 
L 696.24 23.76 
" style="fill: none; stroke: #000000; stroke-width: 0.8; stroke-linejoin: miter; stroke-linecap: square"/>
   </g>
   <g id="patch_5">
    <path d="M 83.72 499.48 
L 696.24 499.48 
" style="fill: none; stroke: #000000; stroke-width: 0.8; stroke-linejoin: miter; stroke-linecap: square"/>
   </g>
   <g id="patch_6">
    <path d="M 83.72 23.76 
L 696.24 23.76 
" style="fill: none; stroke: #000000; stroke-width: 0.8; stroke-linejoin: miter; stroke-linecap: square"/>
   </g>
   <g id="text_19">
    <!-- Correlation in: 0.040 -->
    <g transform="translate(144.972 71.332) scale(0.22 -0.22)">
     <defs>
      <path id="DejaVuSans-43" d="M 4122 4306 
L 4122 3641 
Q 3803 3938 3442 4084 
Q 3081 4231 2675 4231 
Q 1875 4231 1450 3742 
Q 1025 3253 1025 2328 
Q 1025 1406 1450 917 
Q 1875 428 2675 428 
Q 3081 428 3442 575 
Q 3803 722 4122 1019 
L 4122 359 
Q 3791 134 3420 21 
Q 3050 -91 2638 -91 
Q 1578 -91 968 557 
Q 359 1206 359 2328 
Q 359 3453 968 4101 
Q 1578 4750 2638 4750 
Q 3056 4750 3426 4639 
Q 3797 4528 4122 4306 
z
" transform="scale(0.015625)"/>
      <path id="DejaVuSans-3a" d="M 750 794 
L 1409 794 
L 1409 0 
L 750 0 
L 750 794 
z
M 750 3309 
L 1409 3309 
L 1409 2516 
L 750 2516 
L 750 3309 
z
" transform="scale(0.015625)"/>
      <path id="DejaVuSans-2e" d="M 684 794 
L 1344 794 
L 1344 0 
L 684 0 
L 684 794 
z
" transform="scale(0.015625)"/>
     </defs>
     <use xlink:href="#DejaVuSans-43"/>
     <use xlink:href="#DejaVuSans-6f" x="69.824219"/>
     <use xlink:href="#DejaVuSans-72" x="131.005859"/>
     <use xlink:href="#DejaVuSans-72" x="170.369141"/>
     <use xlink:href="#DejaVuSans-65" x="209.232422"/>
     <use xlink:href="#DejaVuSans-6c" x="270.755859"/>
     <use xlink:href="#DejaVuSans-61" x="298.539062"/>
     <use xlink:href="#DejaVuSans-74" x="359.818359"/>
     <use xlink:href="#DejaVuSans-69" x="399.027344"/>
     <use xlink:href="#DejaVuSans-6f" x="426.810547"/>
     <use xlink:href="#DejaVuSans-6e" x="487.992188"/>
     <use xlink:href="#DejaVuSans-20" x="551.371094"/>
     <use xlink:href="#DejaVuSans-69" x="583.158203"/>
     <use xlink:href="#DejaVuSans-6e" x="610.941406"/>
     <use xlink:href="#DejaVuSans-3a" x="674.320312"/>
     <use xlink:href="#DejaVuSans-20" x="708.011719"/>
     <use xlink:href="#DejaVuSans-30" x="739.798828"/>
     <use xlink:href="#DejaVuSans-2e" x="803.421875"/>
     <use xlink:href="#DejaVuSans-30" x="835.208984"/>
     <use xlink:href="#DejaVuSans-34" x="898.832031"/>
     <use xlink:href="#DejaVuSans-30" x="962.455078"/>
    </g>
   </g>
  </g>
 </g>
 <defs>
  <clipPath id="p6595e54d7a">
   <rect x="83.72" y="23.76" width="612.52" height="475.72"/>
  </clipPath>
 </defs>
</svg>
