<?xml version="1.0" encoding="utf-8" standalone="no"?>
<!DOCTYPE svg PUBLIC "-//W3C//DTD SVG 1.1//EN"
  "http://www.w3.org/Graphics/SVG/1.1/DTD/svg11.dtd">
<svg xmlns:xlink="http://www.w3.org/1999/xlink" width="720pt" height="576pt" viewBox="0 0 720 576" xmlns="http://www.w3.org/2000/svg" version="1.1">
 <metadata>
  <rdf:RDF xmlns:dc="http://purl.org/dc/elements/1.1/" xmlns:cc="http://creativecommons.org/ns#" xmlns:rdf="http://www.w3.org/1999/02/22-rdf-syntax-ns#">
   <cc:Work>
    <dc:type rdf:resource="http://purl.org/dc/dcmitype/StillImage"/>
    <dc:date>2024-12-08T05:25:09.026490</dc:date>
    <dc:format>image/svg+xml</dc:format>
    <dc:creator>
     <cc:Agent>
      <dc:title>Matplotlib v3.8.4, https://matplotlib.org/</dc:title>
     </cc:Agent>
    </dc:creator>
   </cc:Work>
  </rdf:RDF>
 </metadata>
 <defs>
  <style type="text/css">*{stroke-linejoin: round; stroke-linecap: butt}</style>
 </defs>
 <g id="figure_1">
  <g id="patch_1">
   <path d="M 0 576 
L 720 576 
L 720 0 
L 0 0 
z
" style="fill: #ffffff"/>
  </g>
  <g id="axes_1">
   <g id="patch_2">
    <path d="M 83.72 499.48 
L 696.24 499.48 
L 696.24 23.76 
L 83.72 23.76 
z
" style="fill: #ffffff"/>
   </g>
   <g id="QuadContourSet_1">
    <path d="M 90.901468 505.362978 
L 92.442633 505.950374 
L 93.983798 506.300721 
L 95.524963 506.458652 
L 97.066128 506.445219 
L 98.607293 506.27026 
L 100.148458 505.940336 
L 101.689624 505.470425 
L 102.084196 505.338264 
L 103.230789 505.177513 
L 104.771954 504.933551 
L 106.313119 504.630231 
L 107.854284 504.226881 
L 109.395449 503.676543 
L 110.936614 502.941641 
L 111.222008 502.798463 
L 112.477779 502.481122 
L 114.018944 502.003948 
L 115.560109 501.389344 
L 117.101274 500.618222 
L 117.805744 500.258662 
L 118.642439 499.993074 
L 120.183604 499.486771 
L 121.724769 498.859596 
L 123.265934 497.984959 
L 123.653715 497.718861 
L 124.807099 497.116666 
L 126.348264 496.071879 
L 127.458612 495.17906 
L 127.889429 494.844272 
L 129.430594 493.698321 
L 130.854435 492.639259 
L 130.971759 492.524008 
L 132.512924 491.477205 
L 134.054089 490.658735 
L 135.595254 490.099458 
L 135.595254 490.099458 
L 136.480662 487.559657 
L 135.595254 486.734088 
L 134.771122 485.019856 
L 134.054089 484.206783 
L 133.287207 482.480055 
L 132.512924 481.328535 
L 131.640475 479.940254 
L 130.971759 479.222238 
L 129.430594 478.227392 
L 127.889429 477.646081 
L 127.328426 477.400453 
L 126.348264 476.799444 
L 124.807099 475.731677 
L 123.265934 474.975484 
L 122.942164 474.860652 
L 121.724769 474.323876 
L 120.183604 473.757666 
L 118.642439 473.337298 
L 117.101274 473.121552 
L 115.560109 473.053364 
L 114.018944 473.01498 
L 112.477779 472.9182 
L 110.936614 472.790243 
L 109.395449 472.762969 
L 107.854284 472.935458 
L 106.313119 473.345925 
L 104.771954 474.0332 
L 103.453444 474.860652 
L 103.230789 474.933761 
L 101.689624 475.46365 
L 100.148458 476.118293 
L 98.607293 476.941431 
L 97.893536 477.400453 
L 97.066128 477.71143 
L 95.524963 478.490198 
L 93.983798 479.707802 
L 93.733798 479.940254 
L 92.442633 480.78436 
L 90.901468 482.340648 
L 90.773152 482.480055 
L 89.360303 483.797799 
L 88.378378 485.019856 
L 87.819138 485.743764 
L 86.596788 487.559657 
L 86.277973 488.172283 
L 85.253062 490.099458 
L 84.736808 491.731573 
L 84.39022 492.639259 
L 83.871671 495.17906 
L 83.860185 497.718861 
L 84.544853 500.258662 
L 84.736808 500.604359 
L 86.277973 502.760353 
L 86.317143 502.798463 
L 87.819138 504.085858 
L 89.360303 504.867375 
L 90.849469 505.338264 
z
M 95.245411 502.798463 
L 93.983798 502.532057 
L 92.442633 501.95374 
L 90.901468 501.024166 
L 89.980781 500.258662 
L 89.360303 499.573989 
L 88.179851 497.718861 
L 87.819138 495.505435 
L 87.766344 495.17906 
L 87.819138 494.859924 
L 88.094804 492.639259 
L 89.032763 490.099458 
L 89.360303 489.527155 
L 90.538889 487.559657 
L 90.901468 487.067358 
L 92.442633 485.284694 
L 92.719492 485.019856 
L 93.983798 483.758218 
L 95.524963 482.685343 
L 95.879393 482.480055 
L 97.066128 481.598557 
L 98.607293 480.707321 
L 100.148458 480.025386 
L 100.346697 479.940254 
L 101.689624 479.068827 
L 103.230789 478.304852 
L 104.771954 477.76184 
L 106.313119 477.40416 
L 106.346295 477.400453 
L 107.854284 477.094902 
L 109.395449 477.078107 
L 110.936614 477.209635 
L 112.477779 477.34611 
L 113.098683 477.400453 
L 114.018944 477.452342 
L 115.560109 477.62965 
L 117.101274 478.006601 
L 118.642439 478.650253 
L 120.183604 479.612097 
L 120.613548 479.940254 
L 121.724769 480.936778 
L 123.122712 482.480055 
L 123.265934 482.706919 
L 124.807099 484.620356 
L 125.181667 485.019856 
L 125.835214 487.559657 
L 124.865156 490.099458 
L 124.807099 490.170488 
L 123.265934 491.927295 
L 122.61795 492.639259 
L 121.724769 493.342035 
L 120.183604 494.488776 
L 119.202255 495.17906 
L 118.642439 495.561234 
L 117.101274 496.598316 
L 115.560109 497.434939 
L 114.982272 497.718861 
L 114.018944 498.31641 
L 112.477779 499.132638 
L 110.936614 499.764757 
L 109.395449 500.258662 
L 109.395449 500.258662 
L 107.854284 500.954516 
L 106.313119 501.475311 
L 104.771954 501.895449 
L 103.230789 502.252482 
L 101.689624 502.551718 
L 100.148458 502.782976 
L 99.98268 502.798463 
L 98.607293 503.044719 
L 97.066128 503.089722 
L 95.524963 502.879681 
z
" clip-path="url(#p8619b92b84)" style="fill: #eef5fc"/>
    <path d="M 95.524963 502.879681 
L 97.066128 503.089722 
L 98.607293 503.044719 
L 99.98268 502.798463 
L 100.148458 502.782976 
L 101.689624 502.551718 
L 103.230789 502.252482 
L 104.771954 501.895449 
L 106.313119 501.475311 
L 107.854284 500.954516 
L 109.395449 500.258662 
L 109.395449 500.258662 
L 110.936614 499.764757 
L 112.477779 499.132638 
L 114.018944 498.31641 
L 114.982272 497.718861 
L 115.560109 497.434939 
L 117.101274 496.598316 
L 118.642439 495.561234 
L 119.202255 495.17906 
L 120.183604 494.488776 
L 121.724769 493.342035 
L 122.61795 492.639259 
L 123.265934 491.927295 
L 124.807099 490.170488 
L 124.865156 490.099458 
L 125.835214 487.559657 
L 125.181667 485.019856 
L 124.807099 484.620356 
L 123.265934 482.706919 
L 123.122712 482.480055 
L 121.724769 480.936778 
L 120.613548 479.940254 
L 120.183604 479.612097 
L 118.642439 478.650253 
L 117.101274 478.006601 
L 115.560109 477.62965 
L 114.018944 477.452342 
L 113.098683 477.400453 
L 112.477779 477.34611 
L 110.936614 477.209635 
L 109.395449 477.078107 
L 107.854284 477.094902 
L 106.346295 477.400453 
L 106.313119 477.40416 
L 104.771954 477.76184 
L 103.230789 478.304852 
L 101.689624 479.068827 
L 100.346697 479.940254 
L 100.148458 480.025386 
L 98.607293 480.707321 
L 97.066128 481.598557 
L 95.879393 482.480055 
L 95.524963 482.685343 
L 93.983798 483.758218 
L 92.719492 485.019856 
L 92.442633 485.284694 
L 90.901468 487.067358 
L 90.538889 487.559657 
L 89.360303 489.527155 
L 89.032763 490.099458 
L 88.094804 492.639259 
L 87.819138 494.859924 
L 87.766344 495.17906 
L 87.819138 495.505435 
L 88.179851 497.718861 
L 89.360303 499.573989 
L 89.980781 500.258662 
L 90.901468 501.024166 
L 92.442633 501.95374 
L 93.983798 502.532057 
L 95.245411 502.798463 
z
M 94.2227 500.258662 
L 93.983798 500.141281 
L 92.442633 499.051223 
L 91.192417 497.718861 
L 90.901468 497.066856 
L 90.188237 495.17906 
L 90.328717 492.639259 
L 90.901468 491.150464 
L 91.281275 490.099458 
L 92.442633 488.301306 
L 92.980119 487.559657 
L 93.983798 486.437361 
L 95.524963 485.108812 
L 95.637315 485.019856 
L 97.066128 483.846873 
L 98.607293 482.877986 
L 99.327391 482.480055 
L 100.148458 481.903242 
L 101.689624 480.991725 
L 103.230789 480.325781 
L 104.477535 479.940254 
L 104.771954 479.80013 
L 106.313119 479.368091 
L 107.854284 479.23619 
L 109.395449 479.307633 
L 110.936614 479.463233 
L 112.477779 479.65324 
L 113.995246 479.940254 
L 114.018944 479.944035 
L 115.560109 480.363259 
L 117.101274 481.100975 
L 118.642439 482.291344 
L 118.84085 482.480055 
L 120.183604 484.581181 
L 120.439017 485.019856 
L 120.891366 487.559657 
L 120.183604 489.920349 
L 120.138449 490.099458 
L 118.642439 492.180061 
L 118.305981 492.639259 
L 117.101274 493.770644 
L 115.560109 494.988997 
L 115.306217 495.17906 
L 114.018944 496.111909 
L 112.477779 497.010572 
L 110.936614 497.718861 
L 110.936614 497.718861 
L 109.395449 498.517314 
L 107.854284 499.117643 
L 106.313119 499.596387 
L 104.771954 500.003367 
L 103.702934 500.258662 
L 103.230789 500.429944 
L 101.689624 500.910723 
L 100.148458 501.227038 
L 98.607293 501.351722 
L 97.066128 501.249342 
L 95.524963 500.86553 
z
" clip-path="url(#p8619b92b84)" style="fill: #dce9f6"/>
    <path d="M 95.524963 500.86553 
L 97.066128 501.249342 
L 98.607293 501.351722 
L 100.148458 501.227038 
L 101.689624 500.910723 
L 103.230789 500.429944 
L 103.702934 500.258662 
L 104.771954 500.003367 
L 106.313119 499.596387 
L 107.854284 499.117643 
L 109.395449 498.517314 
L 110.936614 497.718861 
L 110.936614 497.718861 
L 112.477779 497.010572 
L 114.018944 496.111909 
L 115.306217 495.17906 
L 115.560109 494.988997 
L 117.101274 493.770644 
L 118.305981 492.639259 
L 118.642439 492.180061 
L 120.138449 490.099458 
L 120.183604 489.920349 
L 120.891366 487.559657 
L 120.439017 485.019856 
L 120.183604 484.581181 
L 118.84085 482.480055 
L 118.642439 482.291344 
L 117.101274 481.100975 
L 115.560109 480.363259 
L 114.018944 479.944035 
L 113.995246 479.940254 
L 112.477779 479.65324 
L 110.936614 479.463233 
L 109.395449 479.307633 
L 107.854284 479.23619 
L 106.313119 479.368091 
L 104.771954 479.80013 
L 104.477535 479.940254 
L 103.230789 480.325781 
L 101.689624 480.991725 
L 100.148458 481.903242 
L 99.327391 482.480055 
L 98.607293 482.877986 
L 97.066128 483.846873 
L 95.637315 485.019856 
L 95.524963 485.108812 
L 93.983798 486.437361 
L 92.980119 487.559657 
L 92.442633 488.301306 
L 91.281275 490.099458 
L 90.901468 491.150464 
L 90.328717 492.639259 
L 90.188237 495.17906 
L 90.901468 497.066856 
L 91.192417 497.718861 
L 92.442633 499.051223 
L 93.983798 500.141281 
L 94.2227 500.258662 
z
M 93.927937 497.718861 
L 92.442633 495.17906 
L 92.442633 495.17906 
L 92.356636 492.639259 
L 92.442633 492.41364 
L 93.272861 490.099458 
L 93.983798 489.080539 
L 95.160534 487.559657 
L 95.524963 487.187424 
L 97.066128 485.765052 
L 98.024163 485.019856 
L 98.607293 484.554718 
L 100.148458 483.46761 
L 101.689624 482.63968 
L 102.057898 482.480055 
L 103.230789 481.829049 
L 104.771954 481.283175 
L 106.313119 481.020811 
L 107.854284 480.995633 
L 109.395449 481.127758 
L 110.936614 481.34247 
L 112.477779 481.646292 
L 114.018944 482.131879 
L 114.748073 482.480055 
L 115.560109 482.968043 
L 117.101274 484.46185 
L 117.520782 485.019856 
L 118.101192 487.559657 
L 117.434055 490.099458 
L 117.101274 490.572674 
L 115.58393 492.639259 
L 115.560109 492.661608 
L 114.018944 494.054086 
L 112.477779 495.163228 
L 112.453836 495.17906 
L 110.936614 496.132812 
L 109.395449 496.877038 
L 107.854284 497.472263 
L 107.138442 497.718861 
L 106.313119 498.061312 
L 104.771954 498.641477 
L 103.230789 499.1277 
L 101.689624 499.498667 
L 100.148458 499.724169 
L 98.607293 499.757537 
L 97.066128 499.522775 
L 95.524963 498.907459 
L 93.983798 497.769799 
z
" clip-path="url(#p8619b92b84)" style="fill: #c7dcef"/>
    <path d="M 93.983798 497.769799 
L 95.524963 498.907459 
L 97.066128 499.522775 
L 98.607293 499.757537 
L 100.148458 499.724169 
L 101.689624 499.498667 
L 103.230789 499.1277 
L 104.771954 498.641477 
L 106.313119 498.061312 
L 107.138442 497.718861 
L 107.854284 497.472263 
L 109.395449 496.877038 
L 110.936614 496.132812 
L 112.453836 495.17906 
L 112.477779 495.163228 
L 114.018944 494.054086 
L 115.560109 492.661608 
L 115.58393 492.639259 
L 117.101274 490.572674 
L 117.434055 490.099458 
L 118.101192 487.559657 
L 117.520782 485.019856 
L 117.101274 484.46185 
L 115.560109 482.968043 
L 114.748073 482.480055 
L 114.018944 482.131879 
L 112.477779 481.646292 
L 110.936614 481.34247 
L 109.395449 481.127758 
L 107.854284 480.995633 
L 106.313119 481.020811 
L 104.771954 481.283175 
L 103.230789 481.829049 
L 102.057898 482.480055 
L 101.689624 482.63968 
L 100.148458 483.46761 
L 98.607293 484.554718 
L 98.024163 485.019856 
L 97.066128 485.765052 
L 95.524963 487.187424 
L 95.160534 487.559657 
L 93.983798 489.080539 
L 93.272861 490.099458 
L 92.442633 492.41364 
L 92.356636 492.639259 
L 92.442633 495.17906 
L 92.442633 495.17906 
L 93.927937 497.718861 
z
M 96.262277 497.718861 
L 95.524963 497.094638 
L 94.142554 495.17906 
L 93.983798 493.453781 
L 93.908342 492.639259 
L 93.983798 492.439696 
L 94.798181 490.099458 
L 95.524963 489.110009 
L 96.751992 487.559657 
L 97.066128 487.253545 
L 98.607293 485.860133 
L 99.729735 485.019856 
L 100.148458 484.700167 
L 101.689624 483.708356 
L 103.230789 483.009299 
L 104.771954 482.562541 
L 105.448074 482.480055 
L 106.313119 482.344141 
L 107.854284 482.38582 
L 108.549182 482.480055 
L 109.395449 482.588792 
L 110.936614 482.897895 
L 112.477779 483.376759 
L 114.018944 484.160213 
L 115.096941 485.019856 
L 115.560109 485.946933 
L 116.147848 487.559657 
L 115.560109 490.099458 
L 115.560109 490.099458 
L 114.018944 492.200903 
L 113.674435 492.639259 
L 112.477779 493.644358 
L 110.936614 494.709073 
L 110.144087 495.17906 
L 109.395449 495.591322 
L 107.854284 496.312048 
L 106.313119 496.928158 
L 104.771954 497.4734 
L 104.000228 497.718861 
L 103.230789 498.005189 
L 101.689624 498.434166 
L 100.148458 498.646978 
L 98.607293 498.58589 
L 97.066128 498.157211 
z
" clip-path="url(#p8619b92b84)" style="fill: #a5cde3"/>
    <path d="M 97.066128 498.157211 
L 98.607293 498.58589 
L 100.148458 498.646978 
L 101.689624 498.434166 
L 103.230789 498.005189 
L 104.000228 497.718861 
L 104.771954 497.4734 
L 106.313119 496.928158 
L 107.854284 496.312048 
L 109.395449 495.591322 
L 110.144087 495.17906 
L 110.936614 494.709073 
L 112.477779 493.644358 
L 113.674435 492.639259 
L 114.018944 492.200903 
L 115.560109 490.099458 
L 115.560109 490.099458 
L 116.147848 487.559657 
L 115.560109 485.946933 
L 115.096941 485.019856 
L 114.018944 484.160213 
L 112.477779 483.376759 
L 110.936614 482.897895 
L 109.395449 482.588792 
L 108.549182 482.480055 
L 107.854284 482.38582 
L 106.313119 482.344141 
L 105.448074 482.480055 
L 104.771954 482.562541 
L 103.230789 483.009299 
L 101.689624 483.708356 
L 100.148458 484.700167 
L 99.729735 485.019856 
L 98.607293 485.860133 
L 97.066128 487.253545 
L 96.751992 487.559657 
L 95.524963 489.110009 
L 94.798181 490.099458 
L 93.983798 492.439696 
L 93.908342 492.639259 
L 93.983798 493.453781 
L 94.142554 495.17906 
L 95.524963 497.094638 
L 96.262277 497.718861 
z
M 95.634247 495.17906 
L 95.524963 494.585667 
L 95.208748 492.639259 
L 95.524963 491.774581 
L 96.081111 490.099458 
L 97.066128 488.789131 
L 98.055681 487.559657 
L 98.607293 487.040323 
L 100.148458 485.772586 
L 101.290438 485.019856 
L 101.689624 484.751952 
L 103.230789 483.995052 
L 104.771954 483.56596 
L 106.313119 483.437197 
L 107.854284 483.563461 
L 109.395449 483.875076 
L 110.936614 484.34864 
L 112.415617 485.019856 
L 112.477779 485.071166 
L 114.018944 486.987733 
L 114.320972 487.559657 
L 114.018944 489.383515 
L 113.91005 490.099458 
L 112.477779 491.941967 
L 111.89549 492.639259 
L 110.936614 493.356992 
L 109.395449 494.334653 
L 107.854284 495.17906 
L 107.854284 495.17906 
L 106.313119 495.905376 
L 104.771954 496.536466 
L 103.230789 497.057421 
L 101.689624 497.434164 
L 100.148458 497.60052 
L 98.607293 497.428145 
L 97.066128 496.686022 
z
" clip-path="url(#p8619b92b84)" style="fill: #7db8da"/>
    <path d="M 97.066128 496.686022 
L 98.607293 497.428145 
L 100.148458 497.60052 
L 101.689624 497.434164 
L 103.230789 497.057421 
L 104.771954 496.536466 
L 106.313119 495.905376 
L 107.854284 495.17906 
L 107.854284 495.17906 
L 109.395449 494.334653 
L 110.936614 493.356992 
L 111.89549 492.639259 
L 112.477779 491.941967 
L 113.91005 490.099458 
L 114.018944 489.383515 
L 114.320972 487.559657 
L 114.018944 486.987733 
L 112.477779 485.071166 
L 112.415617 485.019856 
L 110.936614 484.34864 
L 109.395449 483.875076 
L 107.854284 483.563461 
L 106.313119 483.437197 
L 104.771954 483.56596 
L 103.230789 483.995052 
L 101.689624 484.751952 
L 101.290438 485.019856 
L 100.148458 485.772586 
L 98.607293 487.040323 
L 98.055681 487.559657 
L 97.066128 488.789131 
L 96.081111 490.099458 
L 95.524963 491.774581 
L 95.208748 492.639259 
L 95.524963 494.585667 
L 95.634247 495.17906 
z
M 97.702141 495.17906 
L 97.066128 493.616358 
L 96.799532 492.639259 
L 97.066128 491.845026 
L 97.608355 490.099458 
L 98.607293 488.811683 
L 99.681417 487.559657 
L 100.148458 487.154777 
L 101.689624 486.081978 
L 103.230789 485.330849 
L 104.393871 485.019856 
L 104.771954 484.919096 
L 106.313119 484.879636 
L 107.196691 485.019856 
L 107.854284 485.164658 
L 109.395449 485.828597 
L 110.936614 486.905677 
L 111.600993 487.559657 
L 111.583255 490.099458 
L 110.936614 490.874465 
L 109.395449 492.639259 
L 109.395449 492.639259 
L 107.854284 493.604831 
L 106.313119 494.480304 
L 104.981121 495.17906 
L 104.771954 495.272986 
L 103.230789 495.850088 
L 101.689624 496.203203 
L 100.148458 496.24448 
L 98.607293 495.809541 
z
" clip-path="url(#p8619b92b84)" style="fill: #539ecd"/>
    <path d="M 98.607293 495.809541 
L 100.148458 496.24448 
L 101.689624 496.203203 
L 103.230789 495.850088 
L 104.771954 495.272986 
L 104.981121 495.17906 
L 106.313119 494.480304 
L 107.854284 493.604831 
L 109.395449 492.639259 
L 109.395449 492.639259 
L 110.936614 490.874465 
L 111.583255 490.099458 
L 111.600993 487.559657 
L 110.936614 486.905677 
L 109.395449 485.828597 
L 107.854284 485.164658 
L 107.196691 485.019856 
L 106.313119 484.879636 
L 104.771954 484.919096 
L 104.393871 485.019856 
L 103.230789 485.330849 
L 101.689624 486.081978 
L 100.148458 487.154777 
L 99.681417 487.559657 
L 98.607293 488.811683 
L 97.608355 490.099458 
L 97.066128 491.845026 
L 96.799532 492.639259 
L 97.066128 493.616358 
L 97.702141 495.17906 
z
M 99.923311 495.17906 
L 98.607293 494.036986 
L 97.949963 492.639259 
L 98.607293 490.296844 
L 98.661552 490.099458 
L 100.148458 488.353742 
L 100.952588 487.559657 
L 101.689624 487.036756 
L 103.230789 486.318938 
L 104.771954 485.998218 
L 106.313119 486.100021 
L 107.854284 486.621339 
L 109.395449 487.559657 
L 109.395449 487.559657 
L 109.770359 490.099458 
L 109.395449 490.529529 
L 107.854284 492.306469 
L 107.576043 492.639259 
L 106.313119 493.406026 
L 104.771954 494.235929 
L 103.230789 494.918113 
L 102.270936 495.17906 
L 101.689624 495.307299 
L 100.148458 495.257541 
z
" clip-path="url(#p8619b92b84)" style="fill: #3181bd"/>
    <path d="M 100.148458 495.257541 
L 101.689624 495.307299 
L 102.270936 495.17906 
L 103.230789 494.918113 
L 104.771954 494.235929 
L 106.313119 493.406026 
L 107.576043 492.639259 
L 107.854284 492.306469 
L 109.395449 490.529529 
L 109.770359 490.099458 
L 109.395449 487.559657 
L 109.395449 487.559657 
L 107.854284 486.621339 
L 106.313119 486.100021 
L 104.771954 485.998218 
L 103.230789 486.318938 
L 101.689624 487.036756 
L 100.952588 487.559657 
L 100.148458 488.353742 
L 98.661552 490.099458 
L 98.607293 490.296844 
L 97.949963 492.639259 
L 98.607293 494.036986 
L 99.923311 495.17906 
z
M 99.70844 492.639259 
L 100.148458 490.099458 
L 100.148458 490.099458 
L 101.689624 488.687481 
L 103.230789 487.665704 
L 103.735078 487.559657 
L 104.771954 487.429865 
L 105.472841 487.559657 
L 106.313119 488.102737 
L 107.329875 490.099458 
L 106.313119 491.284781 
L 105.166537 492.639259 
L 104.771954 492.856098 
L 103.230789 493.467794 
L 101.689624 493.68456 
L 100.148458 493.132736 
z
" clip-path="url(#p8619b92b84)" style="fill: #1663aa"/>
    <path d="M 100.148458 493.132736 
L 101.689624 493.68456 
L 103.230789 493.467794 
L 104.771954 492.856098 
L 105.166537 492.639259 
L 106.313119 491.284781 
L 107.329875 490.099458 
L 106.313119 488.102737 
L 105.472841 487.559657 
L 104.771954 487.429865 
L 103.735078 487.559657 
L 103.230789 487.665704 
L 101.689624 488.687481 
L 100.148458 490.099458 
L 100.148458 490.099458 
L 99.70844 492.639259 
z
" clip-path="url(#p8619b92b84)" style="fill: #084184"/>
   </g>
   <g id="matplotlib.axis_1">
    <g id="xtick_1">
     <g id="line2d_1">
      <defs>
       <path id="mdea1c305af" d="M 0 0 
L 0 3.5 
" style="stroke: #000000; stroke-width: 0.8"/>
      </defs>
      <g>
       <use xlink:href="#mdea1c305af" x="176.17768" y="499.48" style="stroke: #000000; stroke-width: 0.8"/>
      </g>
     </g>
     <g id="text_1">
      <!-- 10 -->
      <g transform="translate(162.18018 523.196563) scale(0.22 -0.22)">
       <defs>
        <path id="DejaVuSans-31" d="M 794 531 
L 1825 531 
L 1825 4091 
L 703 3866 
L 703 4441 
L 1819 4666 
L 2450 4666 
L 2450 531 
L 3481 531 
L 3481 0 
L 794 0 
L 794 531 
z
" transform="scale(0.015625)"/>
        <path id="DejaVuSans-30" d="M 2034 4250 
Q 1547 4250 1301 3770 
Q 1056 3291 1056 2328 
Q 1056 1369 1301 889 
Q 1547 409 2034 409 
Q 2525 409 2770 889 
Q 3016 1369 3016 2328 
Q 3016 3291 2770 3770 
Q 2525 4250 2034 4250 
z
M 2034 4750 
Q 2819 4750 3233 4129 
Q 3647 3509 3647 2328 
Q 3647 1150 3233 529 
Q 2819 -91 2034 -91 
Q 1250 -91 836 529 
Q 422 1150 422 2328 
Q 422 3509 836 4129 
Q 1250 4750 2034 4750 
z
" transform="scale(0.015625)"/>
       </defs>
       <use xlink:href="#DejaVuSans-31"/>
       <use xlink:href="#DejaVuSans-30" x="63.623047"/>
      </g>
     </g>
    </g>
    <g id="xtick_2">
     <g id="line2d_2">
      <g>
       <use xlink:href="#mdea1c305af" x="273.868272" y="499.48" style="stroke: #000000; stroke-width: 0.8"/>
      </g>
     </g>
     <g id="text_2">
      <!-- 20 -->
      <g transform="translate(259.870772 523.196563) scale(0.22 -0.22)">
       <defs>
        <path id="DejaVuSans-32" d="M 1228 531 
L 3431 531 
L 3431 0 
L 469 0 
L 469 531 
Q 828 903 1448 1529 
Q 2069 2156 2228 2338 
Q 2531 2678 2651 2914 
Q 2772 3150 2772 3378 
Q 2772 3750 2511 3984 
Q 2250 4219 1831 4219 
Q 1534 4219 1204 4116 
Q 875 4013 500 3803 
L 500 4441 
Q 881 4594 1212 4672 
Q 1544 4750 1819 4750 
Q 2544 4750 2975 4387 
Q 3406 4025 3406 3419 
Q 3406 3131 3298 2873 
Q 3191 2616 2906 2266 
Q 2828 2175 2409 1742 
Q 1991 1309 1228 531 
z
" transform="scale(0.015625)"/>
       </defs>
       <use xlink:href="#DejaVuSans-32"/>
       <use xlink:href="#DejaVuSans-30" x="63.623047"/>
      </g>
     </g>
    </g>
    <g id="xtick_3">
     <g id="line2d_3">
      <g>
       <use xlink:href="#mdea1c305af" x="371.558864" y="499.48" style="stroke: #000000; stroke-width: 0.8"/>
      </g>
     </g>
     <g id="text_3">
      <!-- 30 -->
      <g transform="translate(357.561364 523.196563) scale(0.22 -0.22)">
       <defs>
        <path id="DejaVuSans-33" d="M 2597 2516 
Q 3050 2419 3304 2112 
Q 3559 1806 3559 1356 
Q 3559 666 3084 287 
Q 2609 -91 1734 -91 
Q 1441 -91 1130 -33 
Q 819 25 488 141 
L 488 750 
Q 750 597 1062 519 
Q 1375 441 1716 441 
Q 2309 441 2620 675 
Q 2931 909 2931 1356 
Q 2931 1769 2642 2001 
Q 2353 2234 1838 2234 
L 1294 2234 
L 1294 2753 
L 1863 2753 
Q 2328 2753 2575 2939 
Q 2822 3125 2822 3475 
Q 2822 3834 2567 4026 
Q 2313 4219 1838 4219 
Q 1578 4219 1281 4162 
Q 984 4106 628 3988 
L 628 4550 
Q 988 4650 1302 4700 
Q 1616 4750 1894 4750 
Q 2613 4750 3031 4423 
Q 3450 4097 3450 3541 
Q 3450 3153 3228 2886 
Q 3006 2619 2597 2516 
z
" transform="scale(0.015625)"/>
       </defs>
       <use xlink:href="#DejaVuSans-33"/>
       <use xlink:href="#DejaVuSans-30" x="63.623047"/>
      </g>
     </g>
    </g>
    <g id="xtick_4">
     <g id="line2d_4">
      <g>
       <use xlink:href="#mdea1c305af" x="469.249456" y="499.48" style="stroke: #000000; stroke-width: 0.8"/>
      </g>
     </g>
     <g id="text_4">
      <!-- 40 -->
      <g transform="translate(455.251956 523.196563) scale(0.22 -0.22)">
       <defs>
        <path id="DejaVuSans-34" d="M 2419 4116 
L 825 1625 
L 2419 1625 
L 2419 4116 
z
M 2253 4666 
L 3047 4666 
L 3047 1625 
L 3713 1625 
L 3713 1100 
L 3047 1100 
L 3047 0 
L 2419 0 
L 2419 1100 
L 313 1100 
L 313 1709 
L 2253 4666 
z
" transform="scale(0.015625)"/>
       </defs>
       <use xlink:href="#DejaVuSans-34"/>
       <use xlink:href="#DejaVuSans-30" x="63.623047"/>
      </g>
     </g>
    </g>
    <g id="xtick_5">
     <g id="line2d_5">
      <g>
       <use xlink:href="#mdea1c305af" x="566.940048" y="499.48" style="stroke: #000000; stroke-width: 0.8"/>
      </g>
     </g>
     <g id="text_5">
      <!-- 50 -->
      <g transform="translate(552.942548 523.196563) scale(0.22 -0.22)">
       <defs>
        <path id="DejaVuSans-35" d="M 691 4666 
L 3169 4666 
L 3169 4134 
L 1269 4134 
L 1269 2991 
Q 1406 3038 1543 3061 
Q 1681 3084 1819 3084 
Q 2600 3084 3056 2656 
Q 3513 2228 3513 1497 
Q 3513 744 3044 326 
Q 2575 -91 1722 -91 
Q 1428 -91 1123 -41 
Q 819 9 494 109 
L 494 744 
Q 775 591 1075 516 
Q 1375 441 1709 441 
Q 2250 441 2565 725 
Q 2881 1009 2881 1497 
Q 2881 1984 2565 2268 
Q 2250 2553 1709 2553 
Q 1456 2553 1204 2497 
Q 953 2441 691 2322 
L 691 4666 
z
" transform="scale(0.015625)"/>
       </defs>
       <use xlink:href="#DejaVuSans-35"/>
       <use xlink:href="#DejaVuSans-30" x="63.623047"/>
      </g>
     </g>
    </g>
    <g id="xtick_6">
     <g id="line2d_6">
      <g>
       <use xlink:href="#mdea1c305af" x="664.63064" y="499.48" style="stroke: #000000; stroke-width: 0.8"/>
      </g>
     </g>
     <g id="text_6">
      <!-- 60 -->
      <g transform="translate(650.63314 523.196563) scale(0.22 -0.22)">
       <defs>
        <path id="DejaVuSans-36" d="M 2113 2584 
Q 1688 2584 1439 2293 
Q 1191 2003 1191 1497 
Q 1191 994 1439 701 
Q 1688 409 2113 409 
Q 2538 409 2786 701 
Q 3034 994 3034 1497 
Q 3034 2003 2786 2293 
Q 2538 2584 2113 2584 
z
M 3366 4563 
L 3366 3988 
Q 3128 4100 2886 4159 
Q 2644 4219 2406 4219 
Q 1781 4219 1451 3797 
Q 1122 3375 1075 2522 
Q 1259 2794 1537 2939 
Q 1816 3084 2150 3084 
Q 2853 3084 3261 2657 
Q 3669 2231 3669 1497 
Q 3669 778 3244 343 
Q 2819 -91 2113 -91 
Q 1303 -91 875 529 
Q 447 1150 447 2328 
Q 447 3434 972 4092 
Q 1497 4750 2381 4750 
Q 2619 4750 2861 4703 
Q 3103 4656 3366 4563 
z
" transform="scale(0.015625)"/>
       </defs>
       <use xlink:href="#DejaVuSans-36"/>
       <use xlink:href="#DejaVuSans-30" x="63.623047"/>
      </g>
     </g>
    </g>
    <g id="text_7">
     <!-- Force Uncertainties -->
     <g transform="translate(283.426094 548.488438) scale(0.22 -0.22)">
      <defs>
       <path id="DejaVuSans-46" d="M 628 4666 
L 3309 4666 
L 3309 4134 
L 1259 4134 
L 1259 2759 
L 3109 2759 
L 3109 2228 
L 1259 2228 
L 1259 0 
L 628 0 
L 628 4666 
z
" transform="scale(0.015625)"/>
       <path id="DejaVuSans-6f" d="M 1959 3097 
Q 1497 3097 1228 2736 
Q 959 2375 959 1747 
Q 959 1119 1226 758 
Q 1494 397 1959 397 
Q 2419 397 2687 759 
Q 2956 1122 2956 1747 
Q 2956 2369 2687 2733 
Q 2419 3097 1959 3097 
z
M 1959 3584 
Q 2709 3584 3137 3096 
Q 3566 2609 3566 1747 
Q 3566 888 3137 398 
Q 2709 -91 1959 -91 
Q 1206 -91 779 398 
Q 353 888 353 1747 
Q 353 2609 779 3096 
Q 1206 3584 1959 3584 
z
" transform="scale(0.015625)"/>
       <path id="DejaVuSans-72" d="M 2631 2963 
Q 2534 3019 2420 3045 
Q 2306 3072 2169 3072 
Q 1681 3072 1420 2755 
Q 1159 2438 1159 1844 
L 1159 0 
L 581 0 
L 581 3500 
L 1159 3500 
L 1159 2956 
Q 1341 3275 1631 3429 
Q 1922 3584 2338 3584 
Q 2397 3584 2469 3576 
Q 2541 3569 2628 3553 
L 2631 2963 
z
" transform="scale(0.015625)"/>
       <path id="DejaVuSans-63" d="M 3122 3366 
L 3122 2828 
Q 2878 2963 2633 3030 
Q 2388 3097 2138 3097 
Q 1578 3097 1268 2742 
Q 959 2388 959 1747 
Q 959 1106 1268 751 
Q 1578 397 2138 397 
Q 2388 397 2633 464 
Q 2878 531 3122 666 
L 3122 134 
Q 2881 22 2623 -34 
Q 2366 -91 2075 -91 
Q 1284 -91 818 406 
Q 353 903 353 1747 
Q 353 2603 823 3093 
Q 1294 3584 2113 3584 
Q 2378 3584 2631 3529 
Q 2884 3475 3122 3366 
z
" transform="scale(0.015625)"/>
       <path id="DejaVuSans-65" d="M 3597 1894 
L 3597 1613 
L 953 1613 
Q 991 1019 1311 708 
Q 1631 397 2203 397 
Q 2534 397 2845 478 
Q 3156 559 3463 722 
L 3463 178 
Q 3153 47 2828 -22 
Q 2503 -91 2169 -91 
Q 1331 -91 842 396 
Q 353 884 353 1716 
Q 353 2575 817 3079 
Q 1281 3584 2069 3584 
Q 2775 3584 3186 3129 
Q 3597 2675 3597 1894 
z
M 3022 2063 
Q 3016 2534 2758 2815 
Q 2500 3097 2075 3097 
Q 1594 3097 1305 2825 
Q 1016 2553 972 2059 
L 3022 2063 
z
" transform="scale(0.015625)"/>
       <path id="DejaVuSans-20" transform="scale(0.015625)"/>
       <path id="DejaVuSans-55" d="M 556 4666 
L 1191 4666 
L 1191 1831 
Q 1191 1081 1462 751 
Q 1734 422 2344 422 
Q 2950 422 3222 751 
Q 3494 1081 3494 1831 
L 3494 4666 
L 4128 4666 
L 4128 1753 
Q 4128 841 3676 375 
Q 3225 -91 2344 -91 
Q 1459 -91 1007 375 
Q 556 841 556 1753 
L 556 4666 
z
" transform="scale(0.015625)"/>
       <path id="DejaVuSans-6e" d="M 3513 2113 
L 3513 0 
L 2938 0 
L 2938 2094 
Q 2938 2591 2744 2837 
Q 2550 3084 2163 3084 
Q 1697 3084 1428 2787 
Q 1159 2491 1159 1978 
L 1159 0 
L 581 0 
L 581 3500 
L 1159 3500 
L 1159 2956 
Q 1366 3272 1645 3428 
Q 1925 3584 2291 3584 
Q 2894 3584 3203 3211 
Q 3513 2838 3513 2113 
z
" transform="scale(0.015625)"/>
       <path id="DejaVuSans-74" d="M 1172 4494 
L 1172 3500 
L 2356 3500 
L 2356 3053 
L 1172 3053 
L 1172 1153 
Q 1172 725 1289 603 
Q 1406 481 1766 481 
L 2356 481 
L 2356 0 
L 1766 0 
Q 1100 0 847 248 
Q 594 497 594 1153 
L 594 3053 
L 172 3053 
L 172 3500 
L 594 3500 
L 594 4494 
L 1172 4494 
z
" transform="scale(0.015625)"/>
       <path id="DejaVuSans-61" d="M 2194 1759 
Q 1497 1759 1228 1600 
Q 959 1441 959 1056 
Q 959 750 1161 570 
Q 1363 391 1709 391 
Q 2188 391 2477 730 
Q 2766 1069 2766 1631 
L 2766 1759 
L 2194 1759 
z
M 3341 1997 
L 3341 0 
L 2766 0 
L 2766 531 
Q 2569 213 2275 61 
Q 1981 -91 1556 -91 
Q 1019 -91 701 211 
Q 384 513 384 1019 
Q 384 1609 779 1909 
Q 1175 2209 1959 2209 
L 2766 2209 
L 2766 2266 
Q 2766 2663 2505 2880 
Q 2244 3097 1772 3097 
Q 1472 3097 1187 3025 
Q 903 2953 641 2809 
L 641 3341 
Q 956 3463 1253 3523 
Q 1550 3584 1831 3584 
Q 2591 3584 2966 3190 
Q 3341 2797 3341 1997 
z
" transform="scale(0.015625)"/>
       <path id="DejaVuSans-69" d="M 603 3500 
L 1178 3500 
L 1178 0 
L 603 0 
L 603 3500 
z
M 603 4863 
L 1178 4863 
L 1178 4134 
L 603 4134 
L 603 4863 
z
" transform="scale(0.015625)"/>
       <path id="DejaVuSans-73" d="M 2834 3397 
L 2834 2853 
Q 2591 2978 2328 3040 
Q 2066 3103 1784 3103 
Q 1356 3103 1142 2972 
Q 928 2841 928 2578 
Q 928 2378 1081 2264 
Q 1234 2150 1697 2047 
L 1894 2003 
Q 2506 1872 2764 1633 
Q 3022 1394 3022 966 
Q 3022 478 2636 193 
Q 2250 -91 1575 -91 
Q 1294 -91 989 -36 
Q 684 19 347 128 
L 347 722 
Q 666 556 975 473 
Q 1284 391 1588 391 
Q 1994 391 2212 530 
Q 2431 669 2431 922 
Q 2431 1156 2273 1281 
Q 2116 1406 1581 1522 
L 1381 1569 
Q 847 1681 609 1914 
Q 372 2147 372 2553 
Q 372 3047 722 3315 
Q 1072 3584 1716 3584 
Q 2034 3584 2315 3537 
Q 2597 3491 2834 3397 
z
" transform="scale(0.015625)"/>
      </defs>
      <use xlink:href="#DejaVuSans-46"/>
      <use xlink:href="#DejaVuSans-6f" x="53.894531"/>
      <use xlink:href="#DejaVuSans-72" x="115.076172"/>
      <use xlink:href="#DejaVuSans-63" x="153.939453"/>
      <use xlink:href="#DejaVuSans-65" x="208.919922"/>
      <use xlink:href="#DejaVuSans-20" x="270.443359"/>
      <use xlink:href="#DejaVuSans-55" x="302.230469"/>
      <use xlink:href="#DejaVuSans-6e" x="375.423828"/>
      <use xlink:href="#DejaVuSans-63" x="438.802734"/>
      <use xlink:href="#DejaVuSans-65" x="493.783203"/>
      <use xlink:href="#DejaVuSans-72" x="555.306641"/>
      <use xlink:href="#DejaVuSans-74" x="596.419922"/>
      <use xlink:href="#DejaVuSans-61" x="635.628906"/>
      <use xlink:href="#DejaVuSans-69" x="696.908203"/>
      <use xlink:href="#DejaVuSans-6e" x="724.691406"/>
      <use xlink:href="#DejaVuSans-74" x="788.070312"/>
      <use xlink:href="#DejaVuSans-69" x="827.279297"/>
      <use xlink:href="#DejaVuSans-65" x="855.0625"/>
      <use xlink:href="#DejaVuSans-73" x="916.585938"/>
     </g>
    </g>
   </g>
   <g id="matplotlib.axis_2">
    <g id="ytick_1">
     <g id="line2d_7">
      <defs>
       <path id="m774ba62359" d="M 0 0 
L -3.5 0 
" style="stroke: #000000; stroke-width: 0.8"/>
      </defs>
      <g>
       <use xlink:href="#m774ba62359" x="83.72" y="427.671785" style="stroke: #000000; stroke-width: 0.8"/>
      </g>
     </g>
     <g id="text_8">
      <!-- 10 -->
      <g transform="translate(48.725 436.030067) scale(0.22 -0.22)">
       <use xlink:href="#DejaVuSans-31"/>
       <use xlink:href="#DejaVuSans-30" x="63.623047"/>
      </g>
     </g>
    </g>
    <g id="ytick_2">
     <g id="line2d_8">
      <g>
       <use xlink:href="#m774ba62359" x="83.72" y="351.799376" style="stroke: #000000; stroke-width: 0.8"/>
      </g>
     </g>
     <g id="text_9">
      <!-- 20 -->
      <g transform="translate(48.725 360.157657) scale(0.22 -0.22)">
       <use xlink:href="#DejaVuSans-32"/>
       <use xlink:href="#DejaVuSans-30" x="63.623047"/>
      </g>
     </g>
    </g>
    <g id="ytick_3">
     <g id="line2d_9">
      <g>
       <use xlink:href="#m774ba62359" x="83.72" y="275.926966" style="stroke: #000000; stroke-width: 0.8"/>
      </g>
     </g>
     <g id="text_10">
      <!-- 30 -->
      <g transform="translate(48.725 284.285247) scale(0.22 -0.22)">
       <use xlink:href="#DejaVuSans-33"/>
       <use xlink:href="#DejaVuSans-30" x="63.623047"/>
      </g>
     </g>
    </g>
    <g id="ytick_4">
     <g id="line2d_10">
      <g>
       <use xlink:href="#m774ba62359" x="83.72" y="200.054556" style="stroke: #000000; stroke-width: 0.8"/>
      </g>
     </g>
     <g id="text_11">
      <!-- 40 -->
      <g transform="translate(48.725 208.412837) scale(0.22 -0.22)">
       <use xlink:href="#DejaVuSans-34"/>
       <use xlink:href="#DejaVuSans-30" x="63.623047"/>
      </g>
     </g>
    </g>
    <g id="ytick_5">
     <g id="line2d_11">
      <g>
       <use xlink:href="#m774ba62359" x="83.72" y="124.182146" style="stroke: #000000; stroke-width: 0.8"/>
      </g>
     </g>
     <g id="text_12">
      <!-- 50 -->
      <g transform="translate(48.725 132.540427) scale(0.22 -0.22)">
       <use xlink:href="#DejaVuSans-35"/>
       <use xlink:href="#DejaVuSans-30" x="63.623047"/>
      </g>
     </g>
    </g>
    <g id="ytick_6">
     <g id="line2d_12">
      <g>
       <use xlink:href="#m774ba62359" x="83.72" y="48.309736" style="stroke: #000000; stroke-width: 0.8"/>
      </g>
     </g>
     <g id="text_13">
      <!-- 60 -->
      <g transform="translate(48.725 56.668018) scale(0.22 -0.22)">
       <use xlink:href="#DejaVuSans-36"/>
       <use xlink:href="#DejaVuSans-30" x="63.623047"/>
      </g>
     </g>
    </g>
    <g id="text_14">
     <!-- Force Errors [kJ/(mol*A)] -->
     <g transform="translate(40.149688 394.9125) rotate(-90) scale(0.22 -0.22)">
      <defs>
       <path id="DejaVuSans-45" d="M 628 4666 
L 3578 4666 
L 3578 4134 
L 1259 4134 
L 1259 2753 
L 3481 2753 
L 3481 2222 
L 1259 2222 
L 1259 531 
L 3634 531 
L 3634 0 
L 628 0 
L 628 4666 
z
" transform="scale(0.015625)"/>
       <path id="DejaVuSans-5b" d="M 550 4863 
L 1875 4863 
L 1875 4416 
L 1125 4416 
L 1125 -397 
L 1875 -397 
L 1875 -844 
L 550 -844 
L 550 4863 
z
" transform="scale(0.015625)"/>
       <path id="DejaVuSans-6b" d="M 581 4863 
L 1159 4863 
L 1159 1991 
L 2875 3500 
L 3609 3500 
L 1753 1863 
L 3688 0 
L 2938 0 
L 1159 1709 
L 1159 0 
L 581 0 
L 581 4863 
z
" transform="scale(0.015625)"/>
       <path id="DejaVuSans-4a" d="M 628 4666 
L 1259 4666 
L 1259 325 
Q 1259 -519 939 -900 
Q 619 -1281 -91 -1281 
L -331 -1281 
L -331 -750 
L -134 -750 
Q 284 -750 456 -515 
Q 628 -281 628 325 
L 628 4666 
z
" transform="scale(0.015625)"/>
       <path id="DejaVuSans-2f" d="M 1625 4666 
L 2156 4666 
L 531 -594 
L 0 -594 
L 1625 4666 
z
" transform="scale(0.015625)"/>
       <path id="DejaVuSans-28" d="M 1984 4856 
Q 1566 4138 1362 3434 
Q 1159 2731 1159 2009 
Q 1159 1288 1364 580 
Q 1569 -128 1984 -844 
L 1484 -844 
Q 1016 -109 783 600 
Q 550 1309 550 2009 
Q 550 2706 781 3412 
Q 1013 4119 1484 4856 
L 1984 4856 
z
" transform="scale(0.015625)"/>
       <path id="DejaVuSans-6d" d="M 3328 2828 
Q 3544 3216 3844 3400 
Q 4144 3584 4550 3584 
Q 5097 3584 5394 3201 
Q 5691 2819 5691 2113 
L 5691 0 
L 5113 0 
L 5113 2094 
Q 5113 2597 4934 2840 
Q 4756 3084 4391 3084 
Q 3944 3084 3684 2787 
Q 3425 2491 3425 1978 
L 3425 0 
L 2847 0 
L 2847 2094 
Q 2847 2600 2669 2842 
Q 2491 3084 2119 3084 
Q 1678 3084 1418 2786 
Q 1159 2488 1159 1978 
L 1159 0 
L 581 0 
L 581 3500 
L 1159 3500 
L 1159 2956 
Q 1356 3278 1631 3431 
Q 1906 3584 2284 3584 
Q 2666 3584 2933 3390 
Q 3200 3197 3328 2828 
z
" transform="scale(0.015625)"/>
       <path id="DejaVuSans-6c" d="M 603 4863 
L 1178 4863 
L 1178 0 
L 603 0 
L 603 4863 
z
" transform="scale(0.015625)"/>
       <path id="DejaVuSans-2a" d="M 3009 3897 
L 1888 3291 
L 3009 2681 
L 2828 2375 
L 1778 3009 
L 1778 1831 
L 1422 1831 
L 1422 3009 
L 372 2375 
L 191 2681 
L 1313 3291 
L 191 3897 
L 372 4206 
L 1422 3572 
L 1422 4750 
L 1778 4750 
L 1778 3572 
L 2828 4206 
L 3009 3897 
z
" transform="scale(0.015625)"/>
       <path id="DejaVuSans-41" d="M 2188 4044 
L 1331 1722 
L 3047 1722 
L 2188 4044 
z
M 1831 4666 
L 2547 4666 
L 4325 0 
L 3669 0 
L 3244 1197 
L 1141 1197 
L 716 0 
L 50 0 
L 1831 4666 
z
" transform="scale(0.015625)"/>
       <path id="DejaVuSans-29" d="M 513 4856 
L 1013 4856 
Q 1481 4119 1714 3412 
Q 1947 2706 1947 2009 
Q 1947 1309 1714 600 
Q 1481 -109 1013 -844 
L 513 -844 
Q 928 -128 1133 580 
Q 1338 1288 1338 2009 
Q 1338 2731 1133 3434 
Q 928 4138 513 4856 
z
" transform="scale(0.015625)"/>
       <path id="DejaVuSans-5d" d="M 1947 4863 
L 1947 -844 
L 622 -844 
L 622 -397 
L 1369 -397 
L 1369 4416 
L 622 4416 
L 622 4863 
L 1947 4863 
z
" transform="scale(0.015625)"/>
      </defs>
      <use xlink:href="#DejaVuSans-46"/>
      <use xlink:href="#DejaVuSans-6f" x="53.894531"/>
      <use xlink:href="#DejaVuSans-72" x="115.076172"/>
      <use xlink:href="#DejaVuSans-63" x="153.939453"/>
      <use xlink:href="#DejaVuSans-65" x="208.919922"/>
      <use xlink:href="#DejaVuSans-20" x="270.443359"/>
      <use xlink:href="#DejaVuSans-45" x="302.230469"/>
      <use xlink:href="#DejaVuSans-72" x="365.414062"/>
      <use xlink:href="#DejaVuSans-72" x="404.777344"/>
      <use xlink:href="#DejaVuSans-6f" x="443.640625"/>
      <use xlink:href="#DejaVuSans-72" x="504.822266"/>
      <use xlink:href="#DejaVuSans-73" x="545.935547"/>
      <use xlink:href="#DejaVuSans-20" x="598.035156"/>
      <use xlink:href="#DejaVuSans-5b" x="629.822266"/>
      <use xlink:href="#DejaVuSans-6b" x="668.835938"/>
      <use xlink:href="#DejaVuSans-4a" x="726.746094"/>
      <use xlink:href="#DejaVuSans-2f" x="756.238281"/>
      <use xlink:href="#DejaVuSans-28" x="789.929688"/>
      <use xlink:href="#DejaVuSans-6d" x="828.943359"/>
      <use xlink:href="#DejaVuSans-6f" x="926.355469"/>
      <use xlink:href="#DejaVuSans-6c" x="987.537109"/>
      <use xlink:href="#DejaVuSans-2a" x="1015.320312"/>
      <use xlink:href="#DejaVuSans-41" x="1065.320312"/>
      <use xlink:href="#DejaVuSans-29" x="1133.728516"/>
      <use xlink:href="#DejaVuSans-5d" x="1172.742188"/>
     </g>
    </g>
   </g>
   <g id="line2d_13">
    <path d="M 83.72 499.48 
L 696.24 23.76 
" clip-path="url(#p8619b92b84)" style="fill: none; stroke-dasharray: 5.55,2.4; stroke-dashoffset: 0; stroke: #ff0000; stroke-width: 1.5"/>
   </g>
   <g id="patch_3">
    <path d="M 83.72 499.48 
L 83.72 23.76 
" style="fill: none; stroke: #000000; stroke-width: 0.8; stroke-linejoin: miter; stroke-linecap: square"/>
   </g>
   <g id="patch_4">
    <path d="M 696.24 499.48 
L 696.24 23.76 
" style="fill: none; stroke: #000000; stroke-width: 0.8; stroke-linejoin: miter; stroke-linecap: square"/>
   </g>
   <g id="patch_5">
    <path d="M 83.72 499.48 
L 696.24 499.48 
" style="fill: none; stroke: #000000; stroke-width: 0.8; stroke-linejoin: miter; stroke-linecap: square"/>
   </g>
   <g id="patch_6">
    <path d="M 83.72 23.76 
L 696.24 23.76 
" style="fill: none; stroke: #000000; stroke-width: 0.8; stroke-linejoin: miter; stroke-linecap: square"/>
   </g>
   <g id="text_15">
    <!-- Correlation in: 0.641 -->
    <g transform="translate(144.972 71.332) scale(0.22 -0.22)">
     <defs>
      <path id="DejaVuSans-43" d="M 4122 4306 
L 4122 3641 
Q 3803 3938 3442 4084 
Q 3081 4231 2675 4231 
Q 1875 4231 1450 3742 
Q 1025 3253 1025 2328 
Q 1025 1406 1450 917 
Q 1875 428 2675 428 
Q 3081 428 3442 575 
Q 3803 722 4122 1019 
L 4122 359 
Q 3791 134 3420 21 
Q 3050 -91 2638 -91 
Q 1578 -91 968 557 
Q 359 1206 359 2328 
Q 359 3453 968 4101 
Q 1578 4750 2638 4750 
Q 3056 4750 3426 4639 
Q 3797 4528 4122 4306 
z
" transform="scale(0.015625)"/>
      <path id="DejaVuSans-3a" d="M 750 794 
L 1409 794 
L 1409 0 
L 750 0 
L 750 794 
z
M 750 3309 
L 1409 3309 
L 1409 2516 
L 750 2516 
L 750 3309 
z
" transform="scale(0.015625)"/>
      <path id="DejaVuSans-2e" d="M 684 794 
L 1344 794 
L 1344 0 
L 684 0 
L 684 794 
z
" transform="scale(0.015625)"/>
     </defs>
     <use xlink:href="#DejaVuSans-43"/>
     <use xlink:href="#DejaVuSans-6f" x="69.824219"/>
     <use xlink:href="#DejaVuSans-72" x="131.005859"/>
     <use xlink:href="#DejaVuSans-72" x="170.369141"/>
     <use xlink:href="#DejaVuSans-65" x="209.232422"/>
     <use xlink:href="#DejaVuSans-6c" x="270.755859"/>
     <use xlink:href="#DejaVuSans-61" x="298.539062"/>
     <use xlink:href="#DejaVuSans-74" x="359.818359"/>
     <use xlink:href="#DejaVuSans-69" x="399.027344"/>
     <use xlink:href="#DejaVuSans-6f" x="426.810547"/>
     <use xlink:href="#DejaVuSans-6e" x="487.992188"/>
     <use xlink:href="#DejaVuSans-20" x="551.371094"/>
     <use xlink:href="#DejaVuSans-69" x="583.158203"/>
     <use xlink:href="#DejaVuSans-6e" x="610.941406"/>
     <use xlink:href="#DejaVuSans-3a" x="674.320312"/>
     <use xlink:href="#DejaVuSans-20" x="708.011719"/>
     <use xlink:href="#DejaVuSans-30" x="739.798828"/>
     <use xlink:href="#DejaVuSans-2e" x="803.421875"/>
     <use xlink:href="#DejaVuSans-36" x="835.208984"/>
     <use xlink:href="#DejaVuSans-34" x="898.832031"/>
     <use xlink:href="#DejaVuSans-31" x="962.455078"/>
    </g>
   </g>
  </g>
 </g>
 <defs>
  <clipPath id="p8619b92b84">
   <rect x="83.72" y="23.76" width="612.52" height="475.72"/>
  </clipPath>
 </defs>
</svg>
