<?xml version="1.0" encoding="utf-8" standalone="no"?>
<!DOCTYPE svg PUBLIC "-//W3C//DTD SVG 1.1//EN"
  "http://www.w3.org/Graphics/SVG/1.1/DTD/svg11.dtd">
<svg xmlns:xlink="http://www.w3.org/1999/xlink" width="720pt" height="576pt" viewBox="0 0 720 576" xmlns="http://www.w3.org/2000/svg" version="1.1">
 <metadata>
  <rdf:RDF xmlns:dc="http://purl.org/dc/elements/1.1/" xmlns:cc="http://creativecommons.org/ns#" xmlns:rdf="http://www.w3.org/1999/02/22-rdf-syntax-ns#">
   <cc:Work>
    <dc:type rdf:resource="http://purl.org/dc/dcmitype/StillImage"/>
    <dc:date>2024-12-07T21:32:54.264198</dc:date>
    <dc:format>image/svg+xml</dc:format>
    <dc:creator>
     <cc:Agent>
      <dc:title>Matplotlib v3.8.4, https://matplotlib.org/</dc:title>
     </cc:Agent>
    </dc:creator>
   </cc:Work>
  </rdf:RDF>
 </metadata>
 <defs>
  <style type="text/css">*{stroke-linejoin: round; stroke-linecap: butt}</style>
 </defs>
 <g id="figure_1">
  <g id="patch_1">
   <path d="M 0 576 
L 720 576 
L 720 0 
L 0 0 
z
" style="fill: #ffffff"/>
  </g>
  <g id="axes_1">
   <g id="patch_2">
    <path d="M 83.72 499.48 
L 692.016497 499.48 
L 692.016497 24.237468 
L 83.72 24.237468 
z
" style="fill: #ffffff"/>
   </g>
   <g id="QuadContourSet_1">
    <path d="M 85.921562 498.993129 
L 86.764346 499.472418 
L 87.60713 499.81021 
L 88.449914 500.042683 
L 89.292697 500.194387 
L 90.135481 500.281832 
L 90.978265 500.315795 
L 91.821049 500.30278 
L 92.663833 500.245932 
L 93.506617 500.145532 
L 94.349401 499.999211 
L 95.192184 499.801909 
L 96.034968 499.545632 
L 96.877752 499.219061 
L 97.720536 498.807149 
L 98.448052 498.369849 
L 98.56332 498.333454 
L 99.406104 498.041709 
L 100.248887 497.690605 
L 101.091671 497.272914 
L 101.934455 496.788469 
L 102.777239 496.254106 
L 103.449353 495.840113 
L 103.620023 495.775341 
L 104.462807 495.529421 
L 105.30559 495.377804 
L 106.148374 495.384123 
L 106.991158 495.58 
L 107.609686 495.840113 
L 107.833942 495.975282 
L 108.676726 496.569 
L 109.51951 497.119005 
L 110.362293 497.578824 
L 111.205077 497.939497 
L 112.047861 498.210213 
L 112.723279 498.369849 
L 112.890645 498.431997 
L 113.733429 498.670046 
L 114.576213 498.827471 
L 115.418996 498.915768 
L 116.26178 498.942485 
L 117.104564 498.911783 
L 117.947348 498.824855 
L 118.790132 498.680159 
L 119.632916 498.473445 
L 119.960943 498.369849 
L 120.475699 498.283377 
L 121.318483 498.108687 
L 122.161267 497.892884 
L 123.004051 497.628067 
L 123.846835 497.303437 
L 124.689619 496.904376 
L 125.532402 496.41117 
L 126.323627 495.840113 
L 126.375186 495.816781 
L 127.21797 495.403328 
L 128.060754 494.891047 
L 128.903538 494.248334 
L 129.746322 493.432178 
L 129.862772 493.310377 
L 130.589105 492.744686 
L 131.431889 491.93135 
L 132.274673 490.886532 
L 132.355465 490.780641 
L 133.117457 489.893713 
L 133.960241 488.661622 
L 134.217577 488.250905 
L 134.803025 487.24684 
L 135.56668 485.721169 
L 135.645808 485.50652 
L 136.479716 483.191433 
L 136.488592 483.143404 
L 136.996184 480.661697 
L 137.064808 478.131961 
L 136.702604 475.602225 
L 136.488592 474.91951 
L 135.864545 473.072489 
L 135.645808 472.629009 
L 134.803025 471.133132 
L 134.392338 470.542753 
L 133.960241 469.96228 
L 133.117457 469.012732 
L 132.274673 468.29019 
L 131.88369 468.013017 
L 131.431889 467.623703 
L 130.589105 467.018227 
L 129.746322 466.552725 
L 128.903538 466.200796 
L 128.060754 465.941692 
L 127.21797 465.758865 
L 126.375186 465.639137 
L 125.532402 465.572248 
L 124.689619 465.550602 
L 123.846835 465.569115 
L 123.004051 465.625104 
L 122.161267 465.718158 
L 121.318483 465.849912 
L 120.475699 466.023645 
L 119.632916 466.243554 
L 118.790132 466.513522 
L 117.947348 466.835097 
L 117.104564 467.204307 
L 116.26178 467.606996 
L 115.418996 468.013017 
L 115.418996 468.013017 
L 114.576213 468.228385 
L 113.733429 468.384642 
L 112.890645 468.433852 
L 112.047861 468.336976 
L 111.205077 468.087989 
L 111.038106 468.013017 
L 110.362293 467.605051 
L 109.51951 467.039789 
L 108.676726 466.500749 
L 107.833942 466.030531 
L 106.991158 465.64363 
L 106.575311 465.483281 
L 106.148374 465.24154 
L 105.30559 464.839398 
L 104.462807 464.523632 
L 103.620023 464.281807 
L 102.777239 464.104437 
L 101.934455 463.984988 
L 101.091671 463.919479 
L 100.248887 463.906034 
L 99.406104 463.944598 
L 98.56332 464.036905 
L 97.720536 464.186765 
L 96.877752 464.400689 
L 96.034968 464.688921 
L 95.192184 465.066982 
L 94.467111 465.483281 
L 94.349401 465.52036 
L 93.506617 465.832281 
L 92.663833 466.229907 
L 91.821049 466.742828 
L 90.978265 467.414395 
L 90.379584 468.013017 
L 90.135481 468.165664 
L 89.292697 468.780333 
L 88.449914 469.608744 
L 87.731524 470.542753 
L 87.60713 470.657972 
L 86.764346 471.535339 
L 85.921562 472.765229 
L 85.734089 473.072489 
L 85.078778 473.952721 
L 84.235994 475.477988 
L 84.171724 475.602225 
L 83.393211 477.027837 
L 82.898116 478.131961 
L 82.550427 478.996203 
L 81.932287 480.661697 
L 81.707643 481.487704 
L 81.224327 483.191433 
L 80.864859 485.500623 
L 80.824164 485.721169 
L 80.674192 488.250905 
L 80.864859 490.422708 
L 80.891941 490.780641 
L 81.494927 493.310377 
L 81.707643 493.836076 
L 82.550427 495.560601 
L 82.722139 495.840113 
L 83.393211 496.83482 
L 84.235994 497.730554 
L 85.078778 498.33804 
L 85.133104 498.369849 
z
M 88.336189 495.840113 
L 87.60713 495.493169 
L 86.764346 494.912267 
L 85.921562 494.064892 
L 85.363423 493.310377 
L 85.078778 492.834758 
L 84.235994 490.961284 
L 84.166811 490.780641 
L 83.67597 488.250905 
L 83.674831 485.721169 
L 84.067946 483.191433 
L 84.235994 482.618152 
L 84.803441 480.661697 
L 85.078778 479.983052 
L 85.921562 478.131961 
L 85.921562 478.131961 
L 86.764346 476.55623 
L 87.418515 475.602225 
L 87.60713 475.306978 
L 88.449914 474.133307 
L 89.292697 473.25071 
L 89.487471 473.072489 
L 90.135481 472.324311 
L 90.978265 471.552567 
L 91.821049 470.958357 
L 92.565396 470.542753 
L 92.663833 470.462501 
L 93.506617 469.868208 
L 94.349401 469.410079 
L 95.192184 469.057736 
L 96.034968 468.790116 
L 96.877752 468.592837 
L 97.720536 468.456455 
L 98.56332 468.37533 
L 99.406104 468.346937 
L 100.248887 468.371533 
L 101.091671 468.452121 
L 101.934455 468.594691 
L 102.777239 468.808708 
L 103.620023 469.107725 
L 104.462807 469.509912 
L 105.30559 470.037949 
L 105.952058 470.542753 
L 106.148374 470.685223 
L 106.991158 471.393526 
L 107.833942 472.261309 
L 108.547375 473.072489 
L 108.676726 473.238307 
L 109.51951 474.151475 
L 110.362293 474.792579 
L 111.205077 475.053082 
L 112.047861 474.960167 
L 112.890645 474.626133 
L 113.733429 474.171257 
L 114.576213 473.682711 
L 115.418996 473.210192 
L 115.666888 473.072489 
L 116.26178 472.661558 
L 117.104564 472.132158 
L 117.947348 471.680309 
L 118.790132 471.301903 
L 119.632916 470.990004 
L 120.475699 470.737812 
L 121.307178 470.542753 
L 121.318483 470.538927 
L 122.161267 470.326298 
L 123.004051 470.195885 
L 123.846835 470.147301 
L 124.689619 470.184062 
L 125.532402 470.313846 
L 126.354561 470.542753 
L 126.375186 470.547322 
L 127.21797 470.820926 
L 128.060754 471.21599 
L 128.903538 471.760687 
L 129.746322 472.491854 
L 130.281697 473.072489 
L 130.589105 473.456071 
L 131.431889 474.749067 
L 131.882771 475.602225 
L 132.274673 476.921701 
L 132.599522 478.131961 
L 132.692984 480.661697 
L 132.274673 482.952301 
L 132.234175 483.191433 
L 131.431889 485.291051 
L 131.25877 485.721169 
L 130.589105 486.895551 
L 129.746322 488.144261 
L 129.669646 488.250905 
L 128.903538 489.223752 
L 128.060754 490.103317 
L 127.276336 490.780641 
L 127.21797 490.837156 
L 126.375186 491.589343 
L 125.532402 492.201314 
L 124.689619 492.703462 
L 123.846835 493.118377 
L 123.391837 493.310377 
L 123.004051 493.530191 
L 122.161267 493.932777 
L 121.318483 494.252859 
L 120.475699 494.501871 
L 119.632916 494.687536 
L 118.790132 494.81441 
L 117.947348 494.884156 
L 117.104564 494.895557 
L 116.26178 494.844269 
L 115.418996 494.722342 
L 114.576213 494.517545 
L 113.733429 494.212674 
L 112.890645 493.785299 
L 112.182592 493.310377 
L 112.047861 493.221373 
L 111.205077 492.556845 
L 110.362293 491.736945 
L 109.51951 490.832343 
L 109.463901 490.780641 
L 108.676726 490.019655 
L 107.833942 489.58529 
L 106.991158 489.56375 
L 106.148374 489.853735 
L 105.30559 490.317524 
L 104.584878 490.780641 
L 104.462807 490.869732 
L 103.620023 491.583612 
L 102.777239 492.243363 
L 101.934455 492.824857 
L 101.12139 493.310377 
L 101.091671 493.334733 
L 100.248887 493.999628 
L 99.406104 494.545486 
L 98.56332 494.991669 
L 97.720536 495.355608 
L 96.877752 495.651583 
L 96.222061 495.840113 
L 96.034968 495.927151 
L 95.192184 496.247471 
L 94.349401 496.4837 
L 93.506617 496.644266 
L 92.663833 496.733176 
L 91.821049 496.750105 
L 90.978265 496.690086 
L 90.135481 496.542703 
L 89.292697 496.290655 
L 88.449914 495.907393 
z
" clip-path="url(#p746a899334)" style="fill: #edf4fc"/>
    <path d="M 88.449914 495.907393 
L 89.292697 496.290655 
L 90.135481 496.542703 
L 90.978265 496.690086 
L 91.821049 496.750105 
L 92.663833 496.733176 
L 93.506617 496.644266 
L 94.349401 496.4837 
L 95.192184 496.247471 
L 96.034968 495.927151 
L 96.222061 495.840113 
L 96.877752 495.651583 
L 97.720536 495.355608 
L 98.56332 494.991669 
L 99.406104 494.545486 
L 100.248887 493.999628 
L 101.091671 493.334733 
L 101.12139 493.310377 
L 101.934455 492.824857 
L 102.777239 492.243363 
L 103.620023 491.583612 
L 104.462807 490.869732 
L 104.584878 490.780641 
L 105.30559 490.317524 
L 106.148374 489.853735 
L 106.991158 489.56375 
L 107.833942 489.58529 
L 108.676726 490.019655 
L 109.463901 490.780641 
L 109.51951 490.832343 
L 110.362293 491.736945 
L 111.205077 492.556845 
L 112.047861 493.221373 
L 112.182592 493.310377 
L 112.890645 493.785299 
L 113.733429 494.212674 
L 114.576213 494.517545 
L 115.418996 494.722342 
L 116.26178 494.844269 
L 117.104564 494.895557 
L 117.947348 494.884156 
L 118.790132 494.81441 
L 119.632916 494.687536 
L 120.475699 494.501871 
L 121.318483 494.252859 
L 122.161267 493.932777 
L 123.004051 493.530191 
L 123.391837 493.310377 
L 123.846835 493.118377 
L 124.689619 492.703462 
L 125.532402 492.201314 
L 126.375186 491.589343 
L 127.21797 490.837156 
L 127.276336 490.780641 
L 128.060754 490.103317 
L 128.903538 489.223752 
L 129.669646 488.250905 
L 129.746322 488.144261 
L 130.589105 486.895551 
L 131.25877 485.721169 
L 131.431889 485.291051 
L 132.234175 483.191433 
L 132.274673 482.952301 
L 132.692984 480.661697 
L 132.599522 478.131961 
L 132.274673 476.921701 
L 131.882771 475.602225 
L 131.431889 474.749067 
L 130.589105 473.456071 
L 130.281697 473.072489 
L 129.746322 472.491854 
L 128.903538 471.760687 
L 128.060754 471.21599 
L 127.21797 470.820926 
L 126.375186 470.547322 
L 126.354561 470.542753 
L 125.532402 470.313846 
L 124.689619 470.184062 
L 123.846835 470.147301 
L 123.004051 470.195885 
L 122.161267 470.326298 
L 121.318483 470.538927 
L 121.307178 470.542753 
L 120.475699 470.737812 
L 119.632916 470.990004 
L 118.790132 471.301903 
L 117.947348 471.680309 
L 117.104564 472.132158 
L 116.26178 472.661558 
L 115.666888 473.072489 
L 115.418996 473.210192 
L 114.576213 473.682711 
L 113.733429 474.171257 
L 112.890645 474.626133 
L 112.047861 474.960167 
L 111.205077 475.053082 
L 110.362293 474.792579 
L 109.51951 474.151475 
L 108.676726 473.238307 
L 108.547375 473.072489 
L 107.833942 472.261309 
L 106.991158 471.393526 
L 106.148374 470.685223 
L 105.952058 470.542753 
L 105.30559 470.037949 
L 104.462807 469.509912 
L 103.620023 469.107725 
L 102.777239 468.808708 
L 101.934455 468.594691 
L 101.091671 468.452121 
L 100.248887 468.371533 
L 99.406104 468.346937 
L 98.56332 468.37533 
L 97.720536 468.456455 
L 96.877752 468.592837 
L 96.034968 468.790116 
L 95.192184 469.057736 
L 94.349401 469.410079 
L 93.506617 469.868208 
L 92.663833 470.462501 
L 92.565396 470.542753 
L 91.821049 470.958357 
L 90.978265 471.552567 
L 90.135481 472.324311 
L 89.487471 473.072489 
L 89.292697 473.25071 
L 88.449914 474.133307 
L 87.60713 475.306978 
L 87.418515 475.602225 
L 86.764346 476.55623 
L 85.921562 478.131961 
L 85.921562 478.131961 
L 85.078778 479.983052 
L 84.803441 480.661697 
L 84.235994 482.618152 
L 84.067946 483.191433 
L 83.674831 485.721169 
L 83.67597 488.250905 
L 84.166811 490.780641 
L 84.235994 490.961284 
L 85.078778 492.834758 
L 85.363423 493.310377 
L 85.921562 494.064892 
L 86.764346 494.912267 
L 87.60713 495.493169 
L 88.336189 495.840113 
z
M 87.740338 493.310377 
L 87.60713 493.197314 
L 86.764346 492.259303 
L 85.921562 490.849244 
L 85.886736 490.780641 
L 85.17267 488.250905 
L 85.078778 485.721169 
L 85.420498 483.191433 
L 85.921562 481.542442 
L 86.19214 480.661697 
L 86.764346 479.365746 
L 87.390245 478.131961 
L 87.60713 477.749875 
L 88.449914 476.429302 
L 89.110414 475.602225 
L 89.292697 475.355871 
L 90.135481 474.350418 
L 90.978265 473.57469 
L 91.657478 473.072489 
L 91.821049 472.918404 
L 92.663833 472.233854 
L 93.506617 471.703859 
L 94.349401 471.29261 
L 95.192184 470.975292 
L 96.034968 470.734971 
L 96.877752 470.560547 
L 97.007933 470.542753 
L 97.720536 470.397539 
L 98.56332 470.314168 
L 99.406104 470.31593 
L 100.248887 470.403592 
L 100.911676 470.542753 
L 101.091671 470.571378 
L 101.934455 470.778385 
L 102.777239 471.081995 
L 103.620023 471.505138 
L 104.462807 472.077374 
L 105.30559 472.833712 
L 105.5357 473.072489 
L 106.148374 473.81755 
L 106.991158 475.064633 
L 107.332183 475.602225 
L 107.833942 476.831545 
L 108.464903 478.131961 
L 108.676726 479.019229 
L 109.51951 480.462698 
L 110.362293 480.424708 
L 111.205077 479.779415 
L 112.047861 478.931303 
L 112.795658 478.131961 
L 112.890645 478.051312 
L 113.733429 477.231001 
L 114.576213 476.470472 
L 115.418996 475.788008 
L 115.6611 475.602225 
L 116.26178 475.115741 
L 117.104564 474.515732 
L 117.947348 474.011881 
L 118.790132 473.593054 
L 119.632916 473.249355 
L 120.168463 473.072489 
L 120.475699 472.945962 
L 121.318483 472.683713 
L 122.161267 472.511369 
L 123.004051 472.42778 
L 123.846835 472.436293 
L 124.689619 472.544962 
L 125.532402 472.766886 
L 126.267184 473.072489 
L 126.375186 473.116253 
L 127.21797 473.589055 
L 128.060754 474.258568 
L 128.903538 475.176855 
L 129.222605 475.602225 
L 129.746322 476.671852 
L 130.322114 478.131961 
L 130.565196 480.661697 
L 130.159577 483.191433 
L 129.746322 484.215495 
L 129.09827 485.721169 
L 128.903538 486.032524 
L 128.060754 487.270502 
L 127.268764 488.250905 
L 127.21797 488.307799 
L 126.375186 489.177558 
L 125.532402 489.894936 
L 124.689619 490.491933 
L 124.217426 490.780641 
L 123.846835 491.032654 
L 123.004051 491.520329 
L 122.161267 491.912848 
L 121.318483 492.223775 
L 120.475699 492.462209 
L 119.632916 492.63344 
L 118.790132 492.739265 
L 117.947348 492.777978 
L 117.104564 492.744035 
L 116.26178 492.627387 
L 115.418996 492.412539 
L 114.576213 492.077521 
L 113.733429 491.593371 
L 112.890645 490.925598 
L 112.737033 490.780641 
L 112.047861 489.931034 
L 111.205077 488.659055 
L 110.941257 488.250905 
L 110.362293 486.713547 
L 109.817172 485.721169 
L 109.51951 484.595484 
L 108.676726 484.106941 
L 107.833942 484.747774 
L 106.996249 485.721169 
L 106.991158 485.724728 
L 106.148374 486.622066 
L 105.30559 487.549424 
L 104.665451 488.250905 
L 104.462807 488.455952 
L 103.620023 489.347291 
L 102.777239 490.134091 
L 101.98629 490.780641 
L 101.934455 490.82917 
L 101.091671 491.592358 
L 100.248887 492.226194 
L 99.406104 492.751545 
L 98.56332 493.187243 
L 98.290954 493.310377 
L 97.720536 493.661867 
L 96.877752 494.088492 
L 96.034968 494.423086 
L 95.192184 494.678328 
L 94.349401 494.862393 
L 93.506617 494.979307 
L 92.663833 495.028986 
L 91.821049 495.006904 
L 90.978265 494.903279 
L 90.135481 494.701643 
L 89.292697 494.376509 
L 88.449914 493.889709 
z
" clip-path="url(#p746a899334)" style="fill: #dae8f6"/>
    <path d="M 88.449914 493.889709 
L 89.292697 494.376509 
L 90.135481 494.701643 
L 90.978265 494.903279 
L 91.821049 495.006904 
L 92.663833 495.028986 
L 93.506617 494.979307 
L 94.349401 494.862393 
L 95.192184 494.678328 
L 96.034968 494.423086 
L 96.877752 494.088492 
L 97.720536 493.661867 
L 98.290954 493.310377 
L 98.56332 493.187243 
L 99.406104 492.751545 
L 100.248887 492.226194 
L 101.091671 491.592358 
L 101.934455 490.82917 
L 101.98629 490.780641 
L 102.777239 490.134091 
L 103.620023 489.347291 
L 104.462807 488.455952 
L 104.665451 488.250905 
L 105.30559 487.549424 
L 106.148374 486.622066 
L 106.991158 485.724728 
L 106.996249 485.721169 
L 107.833942 484.747774 
L 108.676726 484.106941 
L 109.51951 484.595484 
L 109.817172 485.721169 
L 110.362293 486.713547 
L 110.941257 488.250905 
L 111.205077 488.659055 
L 112.047861 489.931034 
L 112.737033 490.780641 
L 112.890645 490.925598 
L 113.733429 491.593371 
L 114.576213 492.077521 
L 115.418996 492.412539 
L 116.26178 492.627387 
L 117.104564 492.744035 
L 117.947348 492.777978 
L 118.790132 492.739265 
L 119.632916 492.63344 
L 120.475699 492.462209 
L 121.318483 492.223775 
L 122.161267 491.912848 
L 123.004051 491.520329 
L 123.846835 491.032654 
L 124.217426 490.780641 
L 124.689619 490.491933 
L 125.532402 489.894936 
L 126.375186 489.177558 
L 127.21797 488.307799 
L 127.268764 488.250905 
L 128.060754 487.270502 
L 128.903538 486.032524 
L 129.09827 485.721169 
L 129.746322 484.215495 
L 130.159577 483.191433 
L 130.565196 480.661697 
L 130.322114 478.131961 
L 129.746322 476.671852 
L 129.222605 475.602225 
L 128.903538 475.176855 
L 128.060754 474.258568 
L 127.21797 473.589055 
L 126.375186 473.116253 
L 126.267184 473.072489 
L 125.532402 472.766886 
L 124.689619 472.544962 
L 123.846835 472.436293 
L 123.004051 472.42778 
L 122.161267 472.511369 
L 121.318483 472.683713 
L 120.475699 472.945962 
L 120.168463 473.072489 
L 119.632916 473.249355 
L 118.790132 473.593054 
L 117.947348 474.011881 
L 117.104564 474.515732 
L 116.26178 475.115741 
L 115.6611 475.602225 
L 115.418996 475.788008 
L 114.576213 476.470472 
L 113.733429 477.231001 
L 112.890645 478.051312 
L 112.795658 478.131961 
L 112.047861 478.931303 
L 111.205077 479.779415 
L 110.362293 480.424708 
L 109.51951 480.462698 
L 108.676726 479.019229 
L 108.464903 478.131961 
L 107.833942 476.831545 
L 107.332183 475.602225 
L 106.991158 475.064633 
L 106.148374 473.81755 
L 105.5357 473.072489 
L 105.30559 472.833712 
L 104.462807 472.077374 
L 103.620023 471.505138 
L 102.777239 471.081995 
L 101.934455 470.778385 
L 101.091671 470.571378 
L 100.911676 470.542753 
L 100.248887 470.403592 
L 99.406104 470.31593 
L 98.56332 470.314168 
L 97.720536 470.397539 
L 97.007933 470.542753 
L 96.877752 470.560547 
L 96.034968 470.734971 
L 95.192184 470.975292 
L 94.349401 471.29261 
L 93.506617 471.703859 
L 92.663833 472.233854 
L 91.821049 472.918404 
L 91.657478 473.072489 
L 90.978265 473.57469 
L 90.135481 474.350418 
L 89.292697 475.355871 
L 89.110414 475.602225 
L 88.449914 476.429302 
L 87.60713 477.749875 
L 87.390245 478.131961 
L 86.764346 479.365746 
L 86.19214 480.661697 
L 85.921562 481.542442 
L 85.420498 483.191433 
L 85.078778 485.721169 
L 85.17267 488.250905 
L 85.886736 490.780641 
L 85.921562 490.849244 
L 86.764346 492.259303 
L 87.60713 493.197314 
L 87.740338 493.310377 
z
M 90.078428 493.310377 
L 89.292697 492.940382 
L 88.449914 492.336305 
L 87.60713 491.435364 
L 87.149825 490.780641 
L 86.764346 489.906966 
L 86.198092 488.250905 
L 86.01157 485.721169 
L 86.335959 483.191433 
L 86.764346 481.814235 
L 87.130744 480.661697 
L 87.60713 479.63746 
L 88.421098 478.131961 
L 88.449914 478.084503 
L 89.292697 476.806214 
L 90.135481 475.808386 
L 90.334354 475.602225 
L 90.978265 474.880225 
L 91.821049 474.120337 
L 92.663833 473.523663 
L 93.465076 473.072489 
L 93.506617 473.042507 
L 94.349401 472.531544 
L 95.192184 472.145114 
L 96.034968 471.861195 
L 96.877752 471.665402 
L 97.720536 471.549283 
L 98.56332 471.509303 
L 99.406104 471.546353 
L 100.248887 471.665727 
L 101.091671 471.877515 
L 101.934455 472.197397 
L 102.777239 472.64773 
L 103.382978 473.072489 
L 103.620023 473.248839 
L 104.462807 474.039815 
L 105.30559 475.108182 
L 105.63764 475.602225 
L 106.148374 476.864629 
L 106.627196 478.131961 
L 106.867741 480.661697 
L 106.370099 483.191433 
L 106.148374 483.614159 
L 105.30559 485.27753 
L 105.08241 485.721169 
L 104.462807 486.585108 
L 103.620023 487.67287 
L 103.139199 488.250905 
L 102.777239 488.655441 
L 101.934455 489.530253 
L 101.091671 490.270587 
L 100.421428 490.780641 
L 100.248887 490.930171 
L 99.406104 491.591905 
L 98.56332 492.13272 
L 97.720536 492.573761 
L 96.877752 492.931228 
L 96.034968 493.216851 
L 95.684279 493.310377 
L 95.192184 493.48824 
L 94.349401 493.704159 
L 93.506617 493.830572 
L 92.663833 493.867123 
L 91.821049 493.807596 
L 90.978265 493.638879 
L 90.135481 493.339087 
z
M 115.677724 490.780641 
L 115.418996 490.666959 
L 114.576213 490.127098 
L 113.733429 489.339998 
L 112.890645 488.250905 
L 112.890645 488.250905 
L 112.057371 485.721169 
L 112.115725 483.191433 
L 112.890645 481.138375 
L 113.077438 480.661697 
L 113.733429 479.709457 
L 114.576213 478.606184 
L 114.966692 478.131961 
L 115.418996 477.66896 
L 116.26178 476.892493 
L 117.104564 476.232791 
L 117.947348 475.672697 
L 118.068691 475.602225 
L 118.790132 475.16275 
L 119.632916 474.752048 
L 120.475699 474.438034 
L 121.318483 474.214745 
L 122.161267 474.081134 
L 123.004051 474.041215 
L 123.846835 474.104292 
L 124.689619 474.285388 
L 125.532402 474.605969 
L 126.375186 475.095149 
L 127.006231 475.602225 
L 127.21797 475.83057 
L 128.060754 477.021697 
L 128.648205 478.131961 
L 128.903538 479.602734 
L 129.067077 480.661697 
L 128.903538 481.718912 
L 128.686506 483.191433 
L 128.060754 484.628603 
L 127.54691 485.721169 
L 127.21797 486.187577 
L 126.375186 487.25658 
L 125.532402 488.162533 
L 125.441566 488.250905 
L 124.689619 488.90056 
L 123.846835 489.505494 
L 123.004051 490.002986 
L 122.161267 490.409089 
L 121.318483 490.734526 
L 121.164231 490.780641 
L 120.475699 491.005896 
L 119.632916 491.192716 
L 118.790132 491.291409 
L 117.947348 491.299429 
L 117.104564 491.209167 
L 116.26178 491.007142 
z
" clip-path="url(#p746a899334)" style="fill: #cbdef1"/>
    <path d="M 90.135481 493.339087 
L 90.978265 493.638879 
L 91.821049 493.807596 
L 92.663833 493.867123 
L 93.506617 493.830572 
L 94.349401 493.704159 
L 95.192184 493.48824 
L 95.684279 493.310377 
L 96.034968 493.216851 
L 96.877752 492.931228 
L 97.720536 492.573761 
L 98.56332 492.13272 
L 99.406104 491.591905 
L 100.248887 490.930171 
L 100.421428 490.780641 
L 101.091671 490.270587 
L 101.934455 489.530253 
L 102.777239 488.655441 
L 103.139199 488.250905 
L 103.620023 487.67287 
L 104.462807 486.585108 
L 105.08241 485.721169 
L 105.30559 485.27753 
L 106.148374 483.614159 
L 106.370099 483.191433 
L 106.867741 480.661697 
L 106.627196 478.131961 
L 106.148374 476.864629 
L 105.63764 475.602225 
L 105.30559 475.108182 
L 104.462807 474.039815 
L 103.620023 473.248839 
L 103.382978 473.072489 
L 102.777239 472.64773 
L 101.934455 472.197397 
L 101.091671 471.877515 
L 100.248887 471.665727 
L 99.406104 471.546353 
L 98.56332 471.509303 
L 97.720536 471.549283 
L 96.877752 471.665402 
L 96.034968 471.861195 
L 95.192184 472.145114 
L 94.349401 472.531544 
L 93.506617 473.042507 
L 93.465076 473.072489 
L 92.663833 473.523663 
L 91.821049 474.120337 
L 90.978265 474.880225 
L 90.334354 475.602225 
L 90.135481 475.808386 
L 89.292697 476.806214 
L 88.449914 478.084503 
L 88.421098 478.131961 
L 87.60713 479.63746 
L 87.130744 480.661697 
L 86.764346 481.814235 
L 86.335959 483.191433 
L 86.01157 485.721169 
L 86.198092 488.250905 
L 86.764346 489.906966 
L 87.149825 490.780641 
L 87.60713 491.435364 
L 88.449914 492.336305 
L 89.292697 492.940382 
L 90.078428 493.310377 
z
M 88.481874 490.780641 
L 88.449914 490.738112 
L 87.60713 489.25086 
L 87.195432 488.250905 
L 86.895212 485.721169 
L 87.19322 483.191433 
L 87.60713 481.897413 
L 88.015474 480.661697 
L 88.449914 479.782074 
L 89.292697 478.305074 
L 89.401743 478.131961 
L 90.135481 477.106565 
L 90.978265 476.160336 
L 91.581349 475.602225 
L 91.821049 475.362397 
L 92.663833 474.646935 
L 93.506617 474.088927 
L 94.349401 473.654505 
L 95.192184 473.320668 
L 96.034968 473.072489 
L 96.034968 473.072489 
L 96.877752 472.853713 
L 97.720536 472.736506 
L 98.56332 472.716594 
L 99.406104 472.795306 
L 100.248887 472.979552 
L 100.51975 473.072489 
L 101.091671 473.256641 
L 101.934455 473.658441 
L 102.777239 474.235113 
L 103.620023 475.03546 
L 104.092337 475.602225 
L 104.462807 476.295855 
L 105.246607 478.131961 
L 105.30559 478.748774 
L 105.496328 480.661697 
L 105.30559 481.588628 
L 105.002793 483.191433 
L 104.462807 484.343848 
L 103.787893 485.721169 
L 103.620023 485.962218 
L 102.777239 487.136081 
L 101.934455 488.14982 
L 101.846281 488.250905 
L 101.091671 489.046577 
L 100.248887 489.798867 
L 99.406104 490.429457 
L 98.862242 490.780641 
L 98.56332 490.998543 
L 97.720536 491.525043 
L 96.877752 491.944758 
L 96.034968 492.272407 
L 95.192184 492.517484 
L 94.349401 492.684616 
L 93.506617 492.77353 
L 92.663833 492.778554 
L 91.821049 492.687505 
L 90.978265 492.479762 
L 90.135481 492.123155 
L 89.292697 491.569046 
z
M 116.26178 491.007142 
L 117.104564 491.209167 
L 117.947348 491.299429 
L 118.790132 491.291409 
L 119.632916 491.192716 
L 120.475699 491.005896 
L 121.164231 490.780641 
L 121.318483 490.734526 
L 122.161267 490.409089 
L 123.004051 490.002986 
L 123.846835 489.505494 
L 124.689619 488.90056 
L 125.441566 488.250905 
L 125.532402 488.162533 
L 126.375186 487.25658 
L 127.21797 486.187577 
L 127.54691 485.721169 
L 128.060754 484.628603 
L 128.686506 483.191433 
L 128.903538 481.718912 
L 129.067077 480.661697 
L 128.903538 479.602734 
L 128.648205 478.131961 
L 128.060754 477.021697 
L 127.21797 475.83057 
L 127.006231 475.602225 
L 126.375186 475.095149 
L 125.532402 474.605969 
L 124.689619 474.285388 
L 123.846835 474.104292 
L 123.004051 474.041215 
L 122.161267 474.081134 
L 121.318483 474.214745 
L 120.475699 474.438034 
L 119.632916 474.752048 
L 118.790132 475.16275 
L 118.068691 475.602225 
L 117.947348 475.672697 
L 117.104564 476.232791 
L 116.26178 476.892493 
L 115.418996 477.66896 
L 114.966692 478.131961 
L 114.576213 478.606184 
L 113.733429 479.709457 
L 113.077438 480.661697 
L 112.890645 481.138375 
L 112.115725 483.191433 
L 112.057371 485.721169 
L 112.890645 488.250905 
L 112.890645 488.250905 
L 113.733429 489.339998 
L 114.576213 490.127098 
L 115.418996 490.666959 
L 115.677724 490.780641 
z
M 114.918729 488.250905 
L 114.576213 487.682642 
L 113.733429 485.738549 
L 113.72707 485.721169 
L 113.733429 485.494828 
L 113.793615 483.191433 
L 114.576213 481.209019 
L 114.80411 480.661697 
L 115.418996 479.815777 
L 116.26178 478.795701 
L 116.884619 478.131961 
L 117.104564 477.936051 
L 117.947348 477.282263 
L 118.790132 476.749461 
L 119.632916 476.324298 
L 120.475699 475.999987 
L 121.318483 475.77634 
L 122.161267 475.659984 
L 123.004051 475.664891 
L 123.846835 475.813315 
L 124.689619 476.137279 
L 125.532402 476.680879 
L 126.375186 477.503838 
L 126.850722 478.131961 
L 127.21797 479.315117 
L 127.55114 480.661697 
L 127.218925 483.191433 
L 127.21797 483.193521 
L 126.375186 484.93373 
L 125.957806 485.721169 
L 125.532402 486.235192 
L 124.689619 487.124509 
L 123.846835 487.876266 
L 123.356362 488.250905 
L 123.004051 488.485737 
L 122.161267 488.947002 
L 121.318483 489.303185 
L 120.475699 489.561483 
L 119.632916 489.723569 
L 118.790132 489.785416 
L 117.947348 489.736555 
L 117.104564 489.558727 
L 116.26178 489.223979 
L 115.418996 488.69254 
z
" clip-path="url(#p746a899334)" style="fill: #b5d4e9"/>
    <path d="M 89.292697 491.569046 
L 90.135481 492.123155 
L 90.978265 492.479762 
L 91.821049 492.687505 
L 92.663833 492.778554 
L 93.506617 492.77353 
L 94.349401 492.684616 
L 95.192184 492.517484 
L 96.034968 492.272407 
L 96.877752 491.944758 
L 97.720536 491.525043 
L 98.56332 490.998543 
L 98.862242 490.780641 
L 99.406104 490.429457 
L 100.248887 489.798867 
L 101.091671 489.046577 
L 101.846281 488.250905 
L 101.934455 488.14982 
L 102.777239 487.136081 
L 103.620023 485.962218 
L 103.787893 485.721169 
L 104.462807 484.343848 
L 105.002793 483.191433 
L 105.30559 481.588628 
L 105.496328 480.661697 
L 105.30559 478.748774 
L 105.246607 478.131961 
L 104.462807 476.295855 
L 104.092337 475.602225 
L 103.620023 475.03546 
L 102.777239 474.235113 
L 101.934455 473.658441 
L 101.091671 473.256641 
L 100.51975 473.072489 
L 100.248887 472.979552 
L 99.406104 472.795306 
L 98.56332 472.716594 
L 97.720536 472.736506 
L 96.877752 472.853713 
L 96.034968 473.072489 
L 96.034968 473.072489 
L 95.192184 473.320668 
L 94.349401 473.654505 
L 93.506617 474.088927 
L 92.663833 474.646935 
L 91.821049 475.362397 
L 91.581349 475.602225 
L 90.978265 476.160336 
L 90.135481 477.106565 
L 89.401743 478.131961 
L 89.292697 478.305074 
L 88.449914 479.782074 
L 88.015474 480.661697 
L 87.60713 481.897413 
L 87.19322 483.191433 
L 86.895212 485.721169 
L 87.195432 488.250905 
L 87.60713 489.25086 
L 88.449914 490.738112 
L 88.481874 490.780641 
z
M 90.271432 490.780641 
L 90.135481 490.686507 
L 89.292697 489.84202 
L 88.449914 488.523423 
L 88.313552 488.250905 
L 87.847635 485.721169 
L 88.107699 483.191433 
L 88.449914 482.156739 
L 88.966304 480.661697 
L 89.292697 480.045356 
L 90.135481 478.645371 
L 90.490495 478.131961 
L 90.978265 477.516044 
L 91.821049 476.629281 
L 92.663833 475.920096 
L 93.121227 475.602225 
L 93.506617 475.313918 
L 94.349401 474.810696 
L 95.192184 474.434561 
L 96.034968 474.167253 
L 96.877752 473.998343 
L 97.720536 473.923964 
L 98.56332 473.946271 
L 99.406104 474.073536 
L 100.248887 474.320869 
L 101.091671 474.711599 
L 101.934455 475.279257 
L 102.304231 475.602225 
L 102.777239 476.183235 
L 103.620023 477.593087 
L 103.880739 478.131961 
L 104.226672 480.661697 
L 103.761165 483.191433 
L 103.620023 483.495619 
L 102.777239 485.268544 
L 102.553022 485.721169 
L 101.934455 486.579347 
L 101.091671 487.611556 
L 100.501973 488.250905 
L 100.248887 488.501073 
L 99.406104 489.243859 
L 98.56332 489.858317 
L 97.720536 490.365528 
L 96.877752 490.780641 
L 96.877752 490.780641 
L 96.034968 491.157885 
L 95.192184 491.430803 
L 94.349401 491.60484 
L 93.506617 491.679288 
L 92.663833 491.646672 
L 91.821049 491.491401 
L 90.978265 491.187377 
z
M 115.418996 488.69254 
L 116.26178 489.223979 
L 117.104564 489.558727 
L 117.947348 489.736555 
L 118.790132 489.785416 
L 119.632916 489.723569 
L 120.475699 489.561483 
L 121.318483 489.303185 
L 122.161267 488.947002 
L 123.004051 488.485737 
L 123.356362 488.250905 
L 123.846835 487.876266 
L 124.689619 487.124509 
L 125.532402 486.235192 
L 125.957806 485.721169 
L 126.375186 484.93373 
L 127.21797 483.193521 
L 127.218925 483.191433 
L 127.55114 480.661697 
L 127.21797 479.315117 
L 126.850722 478.131961 
L 126.375186 477.503838 
L 125.532402 476.680879 
L 124.689619 476.137279 
L 123.846835 475.813315 
L 123.004051 475.664891 
L 122.161267 475.659984 
L 121.318483 475.77634 
L 120.475699 475.999987 
L 119.632916 476.324298 
L 118.790132 476.749461 
L 117.947348 477.282263 
L 117.104564 477.936051 
L 116.884619 478.131961 
L 116.26178 478.795701 
L 115.418996 479.815777 
L 114.80411 480.661697 
L 114.576213 481.209019 
L 113.793615 483.191433 
L 113.733429 485.494828 
L 113.72707 485.721169 
L 113.733429 485.738549 
L 114.576213 487.682642 
L 114.918729 488.250905 
z
M 115.701052 485.721169 
L 115.576826 483.191433 
L 116.26178 481.622432 
L 116.709494 480.661697 
L 117.104564 480.207131 
L 117.947348 479.375457 
L 118.790132 478.682846 
L 119.614474 478.131961 
L 119.632916 478.122121 
L 120.475699 477.799449 
L 121.318483 477.610803 
L 122.161267 477.563845 
L 123.004051 477.675378 
L 123.846835 477.972486 
L 124.120298 478.131961 
L 124.689619 478.757799 
L 125.532402 480.272198 
L 125.690284 480.661697 
L 125.532402 482.407046 
L 125.462593 483.191433 
L 124.689619 484.554436 
L 123.95416 485.721169 
L 123.846835 485.824462 
L 123.004051 486.514467 
L 122.161267 487.069245 
L 121.318483 487.497384 
L 120.475699 487.79883 
L 119.632916 487.963781 
L 118.790132 487.970249 
L 117.947348 487.779842 
L 117.104564 487.331289 
L 116.26178 486.531662 
z
" clip-path="url(#p746a899334)" style="fill: #99c7e0"/>
    <path d="M 90.978265 491.187377 
L 91.821049 491.491401 
L 92.663833 491.646672 
L 93.506617 491.679288 
L 94.349401 491.60484 
L 95.192184 491.430803 
L 96.034968 491.157885 
L 96.877752 490.780641 
L 96.877752 490.780641 
L 97.720536 490.365528 
L 98.56332 489.858317 
L 99.406104 489.243859 
L 100.248887 488.501073 
L 100.501973 488.250905 
L 101.091671 487.611556 
L 101.934455 486.579347 
L 102.553022 485.721169 
L 102.777239 485.268544 
L 103.620023 483.495619 
L 103.761165 483.191433 
L 104.226672 480.661697 
L 103.880739 478.131961 
L 103.620023 477.593087 
L 102.777239 476.183235 
L 102.304231 475.602225 
L 101.934455 475.279257 
L 101.091671 474.711599 
L 100.248887 474.320869 
L 99.406104 474.073536 
L 98.56332 473.946271 
L 97.720536 473.923964 
L 96.877752 473.998343 
L 96.034968 474.167253 
L 95.192184 474.434561 
L 94.349401 474.810696 
L 93.506617 475.313918 
L 93.121227 475.602225 
L 92.663833 475.920096 
L 91.821049 476.629281 
L 90.978265 477.516044 
L 90.490495 478.131961 
L 90.135481 478.645371 
L 89.292697 480.045356 
L 88.966304 480.661697 
L 88.449914 482.156739 
L 88.107699 483.191433 
L 87.847635 485.721169 
L 88.313552 488.250905 
L 88.449914 488.523423 
L 89.292697 489.84202 
L 90.135481 490.686507 
L 90.271432 490.780641 
z
M 89.304195 488.250905 
L 89.292697 488.217614 
L 88.649158 485.721169 
L 88.864915 483.191433 
L 89.292697 481.949273 
L 89.760868 480.661697 
L 90.135481 480.009875 
L 90.978265 478.734972 
L 91.443262 478.131961 
L 91.821049 477.708448 
L 92.663833 476.920177 
L 93.506617 476.296166 
L 94.349401 475.805106 
L 94.799475 475.602225 
L 95.192184 475.413465 
L 96.034968 475.129347 
L 96.877752 474.9624 
L 97.720536 474.908311 
L 98.56332 474.969859 
L 99.406104 475.157038 
L 100.248887 475.487919 
L 100.454531 475.602225 
L 101.091671 476.049399 
L 101.934455 476.919221 
L 102.746234 478.131961 
L 102.777239 478.266119 
L 103.239606 480.661697 
L 102.80947 483.191433 
L 102.777239 483.260351 
L 101.934455 485.017595 
L 101.576052 485.721169 
L 101.091671 486.360586 
L 100.248887 487.349539 
L 99.406104 488.199898 
L 99.350101 488.250905 
L 98.56332 488.890143 
L 97.720536 489.450074 
L 96.877752 489.899386 
L 96.034968 490.249282 
L 95.192184 490.504843 
L 94.349401 490.664783 
L 93.506617 490.720477 
L 92.663833 490.654044 
L 91.821049 490.435071 
L 90.978265 490.01527 
L 90.135481 489.319856 
z
M 116.26178 486.531662 
L 117.104564 487.331289 
L 117.947348 487.779842 
L 118.790132 487.970249 
L 119.632916 487.963781 
L 120.475699 487.79883 
L 121.318483 487.497384 
L 122.161267 487.069245 
L 123.004051 486.514467 
L 123.846835 485.824462 
L 123.95416 485.721169 
L 124.689619 484.554436 
L 125.462593 483.191433 
L 125.532402 482.407046 
L 125.690284 480.661697 
L 125.532402 480.272198 
L 124.689619 478.757799 
L 124.120298 478.131961 
L 123.846835 477.972486 
L 123.004051 477.675378 
L 122.161267 477.563845 
L 121.318483 477.610803 
L 120.475699 477.799449 
L 119.632916 478.122121 
L 119.614474 478.131961 
L 118.790132 478.682846 
L 117.947348 479.375457 
L 117.104564 480.207131 
L 116.709494 480.661697 
L 116.26178 481.622432 
L 115.576826 483.191433 
L 115.701052 485.721169 
z
M 118.262756 485.721169 
L 117.947348 485.19255 
L 117.383864 483.191433 
L 117.947348 482.126317 
L 118.790132 480.661697 
L 118.790132 480.661697 
L 119.632916 480.143187 
L 120.475699 479.801584 
L 121.318483 479.657892 
L 122.161267 479.753111 
L 123.004051 480.154124 
L 123.556949 480.661697 
L 123.620619 483.191433 
L 123.004051 484.023611 
L 122.161267 484.980321 
L 121.358563 485.721169 
L 121.318483 485.740952 
L 120.475699 485.993487 
L 119.632916 486.072159 
L 118.790132 485.948186 
z
" clip-path="url(#p746a899334)" style="fill: #75b4d8"/>
    <path d="M 90.135481 489.319856 
L 90.978265 490.01527 
L 91.821049 490.435071 
L 92.663833 490.654044 
L 93.506617 490.720477 
L 94.349401 490.664783 
L 95.192184 490.504843 
L 96.034968 490.249282 
L 96.877752 489.899386 
L 97.720536 489.450074 
L 98.56332 488.890143 
L 99.350101 488.250905 
L 99.406104 488.199898 
L 100.248887 487.349539 
L 101.091671 486.360586 
L 101.576052 485.721169 
L 101.934455 485.017595 
L 102.777239 483.260351 
L 102.80947 483.191433 
L 103.239606 480.661697 
L 102.777239 478.266119 
L 102.746234 478.131961 
L 101.934455 476.919221 
L 101.091671 476.049399 
L 100.454531 475.602225 
L 100.248887 475.487919 
L 99.406104 475.157038 
L 98.56332 474.969859 
L 97.720536 474.908311 
L 96.877752 474.9624 
L 96.034968 475.129347 
L 95.192184 475.413465 
L 94.799475 475.602225 
L 94.349401 475.805106 
L 93.506617 476.296166 
L 92.663833 476.920177 
L 91.821049 477.708448 
L 91.443262 478.131961 
L 90.978265 478.734972 
L 90.135481 480.009875 
L 89.760868 480.661697 
L 89.292697 481.949273 
L 88.864915 483.191433 
L 88.649158 485.721169 
L 89.292697 488.217614 
L 89.304195 488.250905 
z
M 90.897983 488.250905 
L 90.135481 486.744297 
L 89.785009 485.721169 
L 89.912844 483.191433 
L 90.135481 482.576268 
L 90.875347 480.661697 
L 90.978265 480.499234 
L 91.821049 479.327236 
L 92.663833 478.358853 
L 92.898047 478.131961 
L 93.506617 477.635588 
L 94.349401 477.102517 
L 95.192184 476.710871 
L 96.034968 476.448172 
L 96.877752 476.311474 
L 97.720536 476.307001 
L 98.56332 476.45086 
L 99.406104 476.770938 
L 100.248887 477.310242 
L 101.091671 478.131961 
L 101.091671 478.131961 
L 101.912952 480.661697 
L 101.556904 483.191433 
L 101.091671 484.129695 
L 100.248887 485.71611 
L 100.246037 485.721169 
L 99.406104 486.666032 
L 98.56332 487.468269 
L 97.720536 488.146069 
L 97.565215 488.250905 
L 96.877752 488.653953 
L 96.034968 489.027925 
L 95.192184 489.283738 
L 94.349401 489.419024 
L 93.506617 489.422378 
L 92.663833 489.271044 
L 91.821049 488.926932 
L 90.978265 488.330134 
z
M 118.790132 485.948186 
L 119.632916 486.072159 
L 120.475699 485.993487 
L 121.318483 485.740952 
L 121.358563 485.721169 
L 122.161267 484.980321 
L 123.004051 484.023611 
L 123.620619 483.191433 
L 123.556949 480.661697 
L 123.004051 480.154124 
L 122.161267 479.753111 
L 121.318483 479.657892 
L 120.475699 479.801584 
L 119.632916 480.143187 
L 118.790132 480.661697 
L 118.790132 480.661697 
L 117.947348 482.126317 
L 117.383864 483.191433 
L 117.947348 485.19255 
L 118.262756 485.721169 
z
" clip-path="url(#p746a899334)" style="fill: #539ecd"/>
    <path d="M 90.978265 488.330134 
L 91.821049 488.926932 
L 92.663833 489.271044 
L 93.506617 489.422378 
L 94.349401 489.419024 
L 95.192184 489.283738 
L 96.034968 489.027925 
L 96.877752 488.653953 
L 97.565215 488.250905 
L 97.720536 488.146069 
L 98.56332 487.468269 
L 99.406104 486.666032 
L 100.246037 485.721169 
L 100.248887 485.71611 
L 101.091671 484.129695 
L 101.556904 483.191433 
L 101.912952 480.661697 
L 101.091671 478.131961 
L 101.091671 478.131961 
L 100.248887 477.310242 
L 99.406104 476.770938 
L 98.56332 476.45086 
L 97.720536 476.307001 
L 96.877752 476.311474 
L 96.034968 476.448172 
L 95.192184 476.710871 
L 94.349401 477.102517 
L 93.506617 477.635588 
L 92.898047 478.131961 
L 92.663833 478.358853 
L 91.821049 479.327236 
L 90.978265 480.499234 
L 90.875347 480.661697 
L 90.135481 482.576268 
L 89.912844 483.191433 
L 89.785009 485.721169 
L 90.135481 486.744297 
L 90.897983 488.250905 
z
M 91.821049 485.721169 
L 91.821049 485.721169 
L 91.665786 483.191433 
L 91.821049 482.819722 
L 92.663833 480.99366 
L 92.836226 480.661697 
L 93.506617 479.99192 
L 94.349401 479.340156 
L 95.192184 478.868331 
L 96.034968 478.580511 
L 96.877752 478.499642 
L 97.720536 478.672715 
L 98.56332 479.18094 
L 99.406104 480.158366 
L 99.694292 480.661697 
L 99.5542 483.191433 
L 99.406104 483.455319 
L 98.56332 484.817472 
L 97.945151 485.721169 
L 97.720536 485.912924 
L 96.877752 486.489199 
L 96.034968 486.913224 
L 95.192184 487.176432 
L 94.349401 487.254432 
L 93.506617 487.100549 
L 92.663833 486.634331 
z
" clip-path="url(#p746a899334)" style="fill: #2979b9"/>
    <path d="M 92.663833 486.634331 
L 93.506617 487.100549 
L 94.349401 487.254432 
L 95.192184 487.176432 
L 96.034968 486.913224 
L 96.877752 486.489199 
L 97.720536 485.912924 
L 97.945151 485.721169 
L 98.56332 484.817472 
L 99.406104 483.455319 
L 99.5542 483.191433 
L 99.694292 480.661697 
L 99.406104 480.158366 
L 98.56332 479.18094 
L 97.720536 478.672715 
L 96.877752 478.499642 
L 96.034968 478.580511 
L 95.192184 478.868331 
L 94.349401 479.340156 
L 93.506617 479.99192 
L 92.836226 480.661697 
L 92.663833 480.99366 
L 91.821049 482.819722 
L 91.665786 483.191433 
L 91.821049 485.721169 
L 91.821049 485.721169 
z
" clip-path="url(#p746a899334)" style="fill: #084990"/>
   </g>
   <g id="matplotlib.axis_1">
    <g id="xtick_1">
     <g id="line2d_1">
      <defs>
       <path id="m312490809f" d="M 0 0 
L 0 3.5 
" style="stroke: #000000; stroke-width: 0.8"/>
      </defs>
      <g>
       <use xlink:href="#m312490809f" x="86.455816" y="499.48" style="stroke: #000000; stroke-width: 0.8"/>
      </g>
     </g>
     <g id="text_1">
      <!-- 0 -->
      <g transform="translate(79.457066 523.196563) scale(0.22 -0.22)">
       <defs>
        <path id="DejaVuSans-30" d="M 2034 4250 
Q 1547 4250 1301 3770 
Q 1056 3291 1056 2328 
Q 1056 1369 1301 889 
Q 1547 409 2034 409 
Q 2525 409 2770 889 
Q 3016 1369 3016 2328 
Q 3016 3291 2770 3770 
Q 2525 4250 2034 4250 
z
M 2034 4750 
Q 2819 4750 3233 4129 
Q 3647 3509 3647 2328 
Q 3647 1150 3233 529 
Q 2819 -91 2034 -91 
Q 1250 -91 836 529 
Q 422 1150 422 2328 
Q 422 3509 836 4129 
Q 1250 4750 2034 4750 
z
" transform="scale(0.015625)"/>
       </defs>
       <use xlink:href="#DejaVuSans-30"/>
      </g>
     </g>
    </g>
    <g id="xtick_2">
     <g id="line2d_2">
      <g>
       <use xlink:href="#m312490809f" x="171.435724" y="499.48" style="stroke: #000000; stroke-width: 0.8"/>
      </g>
     </g>
     <g id="text_2">
      <!-- 10 -->
      <g transform="translate(157.438224 523.196563) scale(0.22 -0.22)">
       <defs>
        <path id="DejaVuSans-31" d="M 794 531 
L 1825 531 
L 1825 4091 
L 703 3866 
L 703 4441 
L 1819 4666 
L 2450 4666 
L 2450 531 
L 3481 531 
L 3481 0 
L 794 0 
L 794 531 
z
" transform="scale(0.015625)"/>
       </defs>
       <use xlink:href="#DejaVuSans-31"/>
       <use xlink:href="#DejaVuSans-30" x="63.623047"/>
      </g>
     </g>
    </g>
    <g id="xtick_3">
     <g id="line2d_3">
      <g>
       <use xlink:href="#m312490809f" x="256.415631" y="499.48" style="stroke: #000000; stroke-width: 0.8"/>
      </g>
     </g>
     <g id="text_3">
      <!-- 20 -->
      <g transform="translate(242.418131 523.196563) scale(0.22 -0.22)">
       <defs>
        <path id="DejaVuSans-32" d="M 1228 531 
L 3431 531 
L 3431 0 
L 469 0 
L 469 531 
Q 828 903 1448 1529 
Q 2069 2156 2228 2338 
Q 2531 2678 2651 2914 
Q 2772 3150 2772 3378 
Q 2772 3750 2511 3984 
Q 2250 4219 1831 4219 
Q 1534 4219 1204 4116 
Q 875 4013 500 3803 
L 500 4441 
Q 881 4594 1212 4672 
Q 1544 4750 1819 4750 
Q 2544 4750 2975 4387 
Q 3406 4025 3406 3419 
Q 3406 3131 3298 2873 
Q 3191 2616 2906 2266 
Q 2828 2175 2409 1742 
Q 1991 1309 1228 531 
z
" transform="scale(0.015625)"/>
       </defs>
       <use xlink:href="#DejaVuSans-32"/>
       <use xlink:href="#DejaVuSans-30" x="63.623047"/>
      </g>
     </g>
    </g>
    <g id="xtick_4">
     <g id="line2d_4">
      <g>
       <use xlink:href="#m312490809f" x="341.395539" y="499.48" style="stroke: #000000; stroke-width: 0.8"/>
      </g>
     </g>
     <g id="text_4">
      <!-- 30 -->
      <g transform="translate(327.398039 523.196563) scale(0.22 -0.22)">
       <defs>
        <path id="DejaVuSans-33" d="M 2597 2516 
Q 3050 2419 3304 2112 
Q 3559 1806 3559 1356 
Q 3559 666 3084 287 
Q 2609 -91 1734 -91 
Q 1441 -91 1130 -33 
Q 819 25 488 141 
L 488 750 
Q 750 597 1062 519 
Q 1375 441 1716 441 
Q 2309 441 2620 675 
Q 2931 909 2931 1356 
Q 2931 1769 2642 2001 
Q 2353 2234 1838 2234 
L 1294 2234 
L 1294 2753 
L 1863 2753 
Q 2328 2753 2575 2939 
Q 2822 3125 2822 3475 
Q 2822 3834 2567 4026 
Q 2313 4219 1838 4219 
Q 1578 4219 1281 4162 
Q 984 4106 628 3988 
L 628 4550 
Q 988 4650 1302 4700 
Q 1616 4750 1894 4750 
Q 2613 4750 3031 4423 
Q 3450 4097 3450 3541 
Q 3450 3153 3228 2886 
Q 3006 2619 2597 2516 
z
" transform="scale(0.015625)"/>
       </defs>
       <use xlink:href="#DejaVuSans-33"/>
       <use xlink:href="#DejaVuSans-30" x="63.623047"/>
      </g>
     </g>
    </g>
    <g id="xtick_5">
     <g id="line2d_5">
      <g>
       <use xlink:href="#m312490809f" x="426.375447" y="499.48" style="stroke: #000000; stroke-width: 0.8"/>
      </g>
     </g>
     <g id="text_5">
      <!-- 40 -->
      <g transform="translate(412.377947 523.196563) scale(0.22 -0.22)">
       <defs>
        <path id="DejaVuSans-34" d="M 2419 4116 
L 825 1625 
L 2419 1625 
L 2419 4116 
z
M 2253 4666 
L 3047 4666 
L 3047 1625 
L 3713 1625 
L 3713 1100 
L 3047 1100 
L 3047 0 
L 2419 0 
L 2419 1100 
L 313 1100 
L 313 1709 
L 2253 4666 
z
" transform="scale(0.015625)"/>
       </defs>
       <use xlink:href="#DejaVuSans-34"/>
       <use xlink:href="#DejaVuSans-30" x="63.623047"/>
      </g>
     </g>
    </g>
    <g id="xtick_6">
     <g id="line2d_6">
      <g>
       <use xlink:href="#m312490809f" x="511.355354" y="499.48" style="stroke: #000000; stroke-width: 0.8"/>
      </g>
     </g>
     <g id="text_6">
      <!-- 50 -->
      <g transform="translate(497.357854 523.196563) scale(0.22 -0.22)">
       <defs>
        <path id="DejaVuSans-35" d="M 691 4666 
L 3169 4666 
L 3169 4134 
L 1269 4134 
L 1269 2991 
Q 1406 3038 1543 3061 
Q 1681 3084 1819 3084 
Q 2600 3084 3056 2656 
Q 3513 2228 3513 1497 
Q 3513 744 3044 326 
Q 2575 -91 1722 -91 
Q 1428 -91 1123 -41 
Q 819 9 494 109 
L 494 744 
Q 775 591 1075 516 
Q 1375 441 1709 441 
Q 2250 441 2565 725 
Q 2881 1009 2881 1497 
Q 2881 1984 2565 2268 
Q 2250 2553 1709 2553 
Q 1456 2553 1204 2497 
Q 953 2441 691 2322 
L 691 4666 
z
" transform="scale(0.015625)"/>
       </defs>
       <use xlink:href="#DejaVuSans-35"/>
       <use xlink:href="#DejaVuSans-30" x="63.623047"/>
      </g>
     </g>
    </g>
    <g id="xtick_7">
     <g id="line2d_7">
      <g>
       <use xlink:href="#m312490809f" x="596.335262" y="499.48" style="stroke: #000000; stroke-width: 0.8"/>
      </g>
     </g>
     <g id="text_7">
      <!-- 60 -->
      <g transform="translate(582.337762 523.196563) scale(0.22 -0.22)">
       <defs>
        <path id="DejaVuSans-36" d="M 2113 2584 
Q 1688 2584 1439 2293 
Q 1191 2003 1191 1497 
Q 1191 994 1439 701 
Q 1688 409 2113 409 
Q 2538 409 2786 701 
Q 3034 994 3034 1497 
Q 3034 2003 2786 2293 
Q 2538 2584 2113 2584 
z
M 3366 4563 
L 3366 3988 
Q 3128 4100 2886 4159 
Q 2644 4219 2406 4219 
Q 1781 4219 1451 3797 
Q 1122 3375 1075 2522 
Q 1259 2794 1537 2939 
Q 1816 3084 2150 3084 
Q 2853 3084 3261 2657 
Q 3669 2231 3669 1497 
Q 3669 778 3244 343 
Q 2819 -91 2113 -91 
Q 1303 -91 875 529 
Q 447 1150 447 2328 
Q 447 3434 972 4092 
Q 1497 4750 2381 4750 
Q 2619 4750 2861 4703 
Q 3103 4656 3366 4563 
z
" transform="scale(0.015625)"/>
       </defs>
       <use xlink:href="#DejaVuSans-36"/>
       <use xlink:href="#DejaVuSans-30" x="63.623047"/>
      </g>
     </g>
    </g>
    <g id="xtick_8">
     <g id="line2d_8">
      <g>
       <use xlink:href="#m312490809f" x="681.31517" y="499.48" style="stroke: #000000; stroke-width: 0.8"/>
      </g>
     </g>
     <g id="text_8">
      <!-- 70 -->
      <g transform="translate(667.31767 523.196563) scale(0.22 -0.22)">
       <defs>
        <path id="DejaVuSans-37" d="M 525 4666 
L 3525 4666 
L 3525 4397 
L 1831 0 
L 1172 0 
L 2766 4134 
L 525 4134 
L 525 4666 
z
" transform="scale(0.015625)"/>
       </defs>
       <use xlink:href="#DejaVuSans-37"/>
       <use xlink:href="#DejaVuSans-30" x="63.623047"/>
      </g>
     </g>
    </g>
    <g id="text_9">
     <!-- Force Uncertainties -->
     <g transform="translate(281.314342 548.488438) scale(0.22 -0.22)">
      <defs>
       <path id="DejaVuSans-46" d="M 628 4666 
L 3309 4666 
L 3309 4134 
L 1259 4134 
L 1259 2759 
L 3109 2759 
L 3109 2228 
L 1259 2228 
L 1259 0 
L 628 0 
L 628 4666 
z
" transform="scale(0.015625)"/>
       <path id="DejaVuSans-6f" d="M 1959 3097 
Q 1497 3097 1228 2736 
Q 959 2375 959 1747 
Q 959 1119 1226 758 
Q 1494 397 1959 397 
Q 2419 397 2687 759 
Q 2956 1122 2956 1747 
Q 2956 2369 2687 2733 
Q 2419 3097 1959 3097 
z
M 1959 3584 
Q 2709 3584 3137 3096 
Q 3566 2609 3566 1747 
Q 3566 888 3137 398 
Q 2709 -91 1959 -91 
Q 1206 -91 779 398 
Q 353 888 353 1747 
Q 353 2609 779 3096 
Q 1206 3584 1959 3584 
z
" transform="scale(0.015625)"/>
       <path id="DejaVuSans-72" d="M 2631 2963 
Q 2534 3019 2420 3045 
Q 2306 3072 2169 3072 
Q 1681 3072 1420 2755 
Q 1159 2438 1159 1844 
L 1159 0 
L 581 0 
L 581 3500 
L 1159 3500 
L 1159 2956 
Q 1341 3275 1631 3429 
Q 1922 3584 2338 3584 
Q 2397 3584 2469 3576 
Q 2541 3569 2628 3553 
L 2631 2963 
z
" transform="scale(0.015625)"/>
       <path id="DejaVuSans-63" d="M 3122 3366 
L 3122 2828 
Q 2878 2963 2633 3030 
Q 2388 3097 2138 3097 
Q 1578 3097 1268 2742 
Q 959 2388 959 1747 
Q 959 1106 1268 751 
Q 1578 397 2138 397 
Q 2388 397 2633 464 
Q 2878 531 3122 666 
L 3122 134 
Q 2881 22 2623 -34 
Q 2366 -91 2075 -91 
Q 1284 -91 818 406 
Q 353 903 353 1747 
Q 353 2603 823 3093 
Q 1294 3584 2113 3584 
Q 2378 3584 2631 3529 
Q 2884 3475 3122 3366 
z
" transform="scale(0.015625)"/>
       <path id="DejaVuSans-65" d="M 3597 1894 
L 3597 1613 
L 953 1613 
Q 991 1019 1311 708 
Q 1631 397 2203 397 
Q 2534 397 2845 478 
Q 3156 559 3463 722 
L 3463 178 
Q 3153 47 2828 -22 
Q 2503 -91 2169 -91 
Q 1331 -91 842 396 
Q 353 884 353 1716 
Q 353 2575 817 3079 
Q 1281 3584 2069 3584 
Q 2775 3584 3186 3129 
Q 3597 2675 3597 1894 
z
M 3022 2063 
Q 3016 2534 2758 2815 
Q 2500 3097 2075 3097 
Q 1594 3097 1305 2825 
Q 1016 2553 972 2059 
L 3022 2063 
z
" transform="scale(0.015625)"/>
       <path id="DejaVuSans-20" transform="scale(0.015625)"/>
       <path id="DejaVuSans-55" d="M 556 4666 
L 1191 4666 
L 1191 1831 
Q 1191 1081 1462 751 
Q 1734 422 2344 422 
Q 2950 422 3222 751 
Q 3494 1081 3494 1831 
L 3494 4666 
L 4128 4666 
L 4128 1753 
Q 4128 841 3676 375 
Q 3225 -91 2344 -91 
Q 1459 -91 1007 375 
Q 556 841 556 1753 
L 556 4666 
z
" transform="scale(0.015625)"/>
       <path id="DejaVuSans-6e" d="M 3513 2113 
L 3513 0 
L 2938 0 
L 2938 2094 
Q 2938 2591 2744 2837 
Q 2550 3084 2163 3084 
Q 1697 3084 1428 2787 
Q 1159 2491 1159 1978 
L 1159 0 
L 581 0 
L 581 3500 
L 1159 3500 
L 1159 2956 
Q 1366 3272 1645 3428 
Q 1925 3584 2291 3584 
Q 2894 3584 3203 3211 
Q 3513 2838 3513 2113 
z
" transform="scale(0.015625)"/>
       <path id="DejaVuSans-74" d="M 1172 4494 
L 1172 3500 
L 2356 3500 
L 2356 3053 
L 1172 3053 
L 1172 1153 
Q 1172 725 1289 603 
Q 1406 481 1766 481 
L 2356 481 
L 2356 0 
L 1766 0 
Q 1100 0 847 248 
Q 594 497 594 1153 
L 594 3053 
L 172 3053 
L 172 3500 
L 594 3500 
L 594 4494 
L 1172 4494 
z
" transform="scale(0.015625)"/>
       <path id="DejaVuSans-61" d="M 2194 1759 
Q 1497 1759 1228 1600 
Q 959 1441 959 1056 
Q 959 750 1161 570 
Q 1363 391 1709 391 
Q 2188 391 2477 730 
Q 2766 1069 2766 1631 
L 2766 1759 
L 2194 1759 
z
M 3341 1997 
L 3341 0 
L 2766 0 
L 2766 531 
Q 2569 213 2275 61 
Q 1981 -91 1556 -91 
Q 1019 -91 701 211 
Q 384 513 384 1019 
Q 384 1609 779 1909 
Q 1175 2209 1959 2209 
L 2766 2209 
L 2766 2266 
Q 2766 2663 2505 2880 
Q 2244 3097 1772 3097 
Q 1472 3097 1187 3025 
Q 903 2953 641 2809 
L 641 3341 
Q 956 3463 1253 3523 
Q 1550 3584 1831 3584 
Q 2591 3584 2966 3190 
Q 3341 2797 3341 1997 
z
" transform="scale(0.015625)"/>
       <path id="DejaVuSans-69" d="M 603 3500 
L 1178 3500 
L 1178 0 
L 603 0 
L 603 3500 
z
M 603 4863 
L 1178 4863 
L 1178 4134 
L 603 4134 
L 603 4863 
z
" transform="scale(0.015625)"/>
       <path id="DejaVuSans-73" d="M 2834 3397 
L 2834 2853 
Q 2591 2978 2328 3040 
Q 2066 3103 1784 3103 
Q 1356 3103 1142 2972 
Q 928 2841 928 2578 
Q 928 2378 1081 2264 
Q 1234 2150 1697 2047 
L 1894 2003 
Q 2506 1872 2764 1633 
Q 3022 1394 3022 966 
Q 3022 478 2636 193 
Q 2250 -91 1575 -91 
Q 1294 -91 989 -36 
Q 684 19 347 128 
L 347 722 
Q 666 556 975 473 
Q 1284 391 1588 391 
Q 1994 391 2212 530 
Q 2431 669 2431 922 
Q 2431 1156 2273 1281 
Q 2116 1406 1581 1522 
L 1381 1569 
Q 847 1681 609 1914 
Q 372 2147 372 2553 
Q 372 3047 722 3315 
Q 1072 3584 1716 3584 
Q 2034 3584 2315 3537 
Q 2597 3491 2834 3397 
z
" transform="scale(0.015625)"/>
      </defs>
      <use xlink:href="#DejaVuSans-46"/>
      <use xlink:href="#DejaVuSans-6f" x="53.894531"/>
      <use xlink:href="#DejaVuSans-72" x="115.076172"/>
      <use xlink:href="#DejaVuSans-63" x="153.939453"/>
      <use xlink:href="#DejaVuSans-65" x="208.919922"/>
      <use xlink:href="#DejaVuSans-20" x="270.443359"/>
      <use xlink:href="#DejaVuSans-55" x="302.230469"/>
      <use xlink:href="#DejaVuSans-6e" x="375.423828"/>
      <use xlink:href="#DejaVuSans-63" x="438.802734"/>
      <use xlink:href="#DejaVuSans-65" x="493.783203"/>
      <use xlink:href="#DejaVuSans-72" x="555.306641"/>
      <use xlink:href="#DejaVuSans-74" x="596.419922"/>
      <use xlink:href="#DejaVuSans-61" x="635.628906"/>
      <use xlink:href="#DejaVuSans-69" x="696.908203"/>
      <use xlink:href="#DejaVuSans-6e" x="724.691406"/>
      <use xlink:href="#DejaVuSans-74" x="788.070312"/>
      <use xlink:href="#DejaVuSans-69" x="827.279297"/>
      <use xlink:href="#DejaVuSans-65" x="855.0625"/>
      <use xlink:href="#DejaVuSans-73" x="916.585938"/>
     </g>
    </g>
   </g>
   <g id="matplotlib.axis_2">
    <g id="ytick_1">
     <g id="line2d_9">
      <defs>
       <path id="mc178cb29d9" d="M 0 0 
L -3.5 0 
" style="stroke: #000000; stroke-width: 0.8"/>
      </defs>
      <g>
       <use xlink:href="#mc178cb29d9" x="83.72" y="497.342595" style="stroke: #000000; stroke-width: 0.8"/>
      </g>
     </g>
     <g id="text_10">
      <!-- 0 -->
      <g transform="translate(62.7225 505.700876) scale(0.22 -0.22)">
       <use xlink:href="#DejaVuSans-30"/>
      </g>
     </g>
    </g>
    <g id="ytick_2">
     <g id="line2d_10">
      <g>
       <use xlink:href="#mc178cb29d9" x="83.72" y="430.95052" style="stroke: #000000; stroke-width: 0.8"/>
      </g>
     </g>
     <g id="text_11">
      <!-- 10 -->
      <g transform="translate(48.725 439.308801) scale(0.22 -0.22)">
       <use xlink:href="#DejaVuSans-31"/>
       <use xlink:href="#DejaVuSans-30" x="63.623047"/>
      </g>
     </g>
    </g>
    <g id="ytick_3">
     <g id="line2d_11">
      <g>
       <use xlink:href="#mc178cb29d9" x="83.72" y="364.558445" style="stroke: #000000; stroke-width: 0.8"/>
      </g>
     </g>
     <g id="text_12">
      <!-- 20 -->
      <g transform="translate(48.725 372.916727) scale(0.22 -0.22)">
       <use xlink:href="#DejaVuSans-32"/>
       <use xlink:href="#DejaVuSans-30" x="63.623047"/>
      </g>
     </g>
    </g>
    <g id="ytick_4">
     <g id="line2d_12">
      <g>
       <use xlink:href="#mc178cb29d9" x="83.72" y="298.166371" style="stroke: #000000; stroke-width: 0.8"/>
      </g>
     </g>
     <g id="text_13">
      <!-- 30 -->
      <g transform="translate(48.725 306.524652) scale(0.22 -0.22)">
       <use xlink:href="#DejaVuSans-33"/>
       <use xlink:href="#DejaVuSans-30" x="63.623047"/>
      </g>
     </g>
    </g>
    <g id="ytick_5">
     <g id="line2d_13">
      <g>
       <use xlink:href="#mc178cb29d9" x="83.72" y="231.774296" style="stroke: #000000; stroke-width: 0.8"/>
      </g>
     </g>
     <g id="text_14">
      <!-- 40 -->
      <g transform="translate(48.725 240.132577) scale(0.22 -0.22)">
       <use xlink:href="#DejaVuSans-34"/>
       <use xlink:href="#DejaVuSans-30" x="63.623047"/>
      </g>
     </g>
    </g>
    <g id="ytick_6">
     <g id="line2d_14">
      <g>
       <use xlink:href="#mc178cb29d9" x="83.72" y="165.382221" style="stroke: #000000; stroke-width: 0.8"/>
      </g>
     </g>
     <g id="text_15">
      <!-- 50 -->
      <g transform="translate(48.725 173.740503) scale(0.22 -0.22)">
       <use xlink:href="#DejaVuSans-35"/>
       <use xlink:href="#DejaVuSans-30" x="63.623047"/>
      </g>
     </g>
    </g>
    <g id="ytick_7">
     <g id="line2d_15">
      <g>
       <use xlink:href="#mc178cb29d9" x="83.72" y="98.990147" style="stroke: #000000; stroke-width: 0.8"/>
      </g>
     </g>
     <g id="text_16">
      <!-- 60 -->
      <g transform="translate(48.725 107.348428) scale(0.22 -0.22)">
       <use xlink:href="#DejaVuSans-36"/>
       <use xlink:href="#DejaVuSans-30" x="63.623047"/>
      </g>
     </g>
    </g>
    <g id="ytick_8">
     <g id="line2d_16">
      <g>
       <use xlink:href="#mc178cb29d9" x="83.72" y="32.598072" style="stroke: #000000; stroke-width: 0.8"/>
      </g>
     </g>
     <g id="text_17">
      <!-- 70 -->
      <g transform="translate(48.725 40.956353) scale(0.22 -0.22)">
       <use xlink:href="#DejaVuSans-37"/>
       <use xlink:href="#DejaVuSans-30" x="63.623047"/>
      </g>
     </g>
    </g>
    <g id="text_18">
     <!-- Force Errors [kJ/(mol*A)] -->
     <g transform="translate(40.149688 395.151234) rotate(-90) scale(0.22 -0.22)">
      <defs>
       <path id="DejaVuSans-45" d="M 628 4666 
L 3578 4666 
L 3578 4134 
L 1259 4134 
L 1259 2753 
L 3481 2753 
L 3481 2222 
L 1259 2222 
L 1259 531 
L 3634 531 
L 3634 0 
L 628 0 
L 628 4666 
z
" transform="scale(0.015625)"/>
       <path id="DejaVuSans-5b" d="M 550 4863 
L 1875 4863 
L 1875 4416 
L 1125 4416 
L 1125 -397 
L 1875 -397 
L 1875 -844 
L 550 -844 
L 550 4863 
z
" transform="scale(0.015625)"/>
       <path id="DejaVuSans-6b" d="M 581 4863 
L 1159 4863 
L 1159 1991 
L 2875 3500 
L 3609 3500 
L 1753 1863 
L 3688 0 
L 2938 0 
L 1159 1709 
L 1159 0 
L 581 0 
L 581 4863 
z
" transform="scale(0.015625)"/>
       <path id="DejaVuSans-4a" d="M 628 4666 
L 1259 4666 
L 1259 325 
Q 1259 -519 939 -900 
Q 619 -1281 -91 -1281 
L -331 -1281 
L -331 -750 
L -134 -750 
Q 284 -750 456 -515 
Q 628 -281 628 325 
L 628 4666 
z
" transform="scale(0.015625)"/>
       <path id="DejaVuSans-2f" d="M 1625 4666 
L 2156 4666 
L 531 -594 
L 0 -594 
L 1625 4666 
z
" transform="scale(0.015625)"/>
       <path id="DejaVuSans-28" d="M 1984 4856 
Q 1566 4138 1362 3434 
Q 1159 2731 1159 2009 
Q 1159 1288 1364 580 
Q 1569 -128 1984 -844 
L 1484 -844 
Q 1016 -109 783 600 
Q 550 1309 550 2009 
Q 550 2706 781 3412 
Q 1013 4119 1484 4856 
L 1984 4856 
z
" transform="scale(0.015625)"/>
       <path id="DejaVuSans-6d" d="M 3328 2828 
Q 3544 3216 3844 3400 
Q 4144 3584 4550 3584 
Q 5097 3584 5394 3201 
Q 5691 2819 5691 2113 
L 5691 0 
L 5113 0 
L 5113 2094 
Q 5113 2597 4934 2840 
Q 4756 3084 4391 3084 
Q 3944 3084 3684 2787 
Q 3425 2491 3425 1978 
L 3425 0 
L 2847 0 
L 2847 2094 
Q 2847 2600 2669 2842 
Q 2491 3084 2119 3084 
Q 1678 3084 1418 2786 
Q 1159 2488 1159 1978 
L 1159 0 
L 581 0 
L 581 3500 
L 1159 3500 
L 1159 2956 
Q 1356 3278 1631 3431 
Q 1906 3584 2284 3584 
Q 2666 3584 2933 3390 
Q 3200 3197 3328 2828 
z
" transform="scale(0.015625)"/>
       <path id="DejaVuSans-6c" d="M 603 4863 
L 1178 4863 
L 1178 0 
L 603 0 
L 603 4863 
z
" transform="scale(0.015625)"/>
       <path id="DejaVuSans-2a" d="M 3009 3897 
L 1888 3291 
L 3009 2681 
L 2828 2375 
L 1778 3009 
L 1778 1831 
L 1422 1831 
L 1422 3009 
L 372 2375 
L 191 2681 
L 1313 3291 
L 191 3897 
L 372 4206 
L 1422 3572 
L 1422 4750 
L 1778 4750 
L 1778 3572 
L 2828 4206 
L 3009 3897 
z
" transform="scale(0.015625)"/>
       <path id="DejaVuSans-41" d="M 2188 4044 
L 1331 1722 
L 3047 1722 
L 2188 4044 
z
M 1831 4666 
L 2547 4666 
L 4325 0 
L 3669 0 
L 3244 1197 
L 1141 1197 
L 716 0 
L 50 0 
L 1831 4666 
z
" transform="scale(0.015625)"/>
       <path id="DejaVuSans-29" d="M 513 4856 
L 1013 4856 
Q 1481 4119 1714 3412 
Q 1947 2706 1947 2009 
Q 1947 1309 1714 600 
Q 1481 -109 1013 -844 
L 513 -844 
Q 928 -128 1133 580 
Q 1338 1288 1338 2009 
Q 1338 2731 1133 3434 
Q 928 4138 513 4856 
z
" transform="scale(0.015625)"/>
       <path id="DejaVuSans-5d" d="M 1947 4863 
L 1947 -844 
L 622 -844 
L 622 -397 
L 1369 -397 
L 1369 4416 
L 622 4416 
L 622 4863 
L 1947 4863 
z
" transform="scale(0.015625)"/>
      </defs>
      <use xlink:href="#DejaVuSans-46"/>
      <use xlink:href="#DejaVuSans-6f" x="53.894531"/>
      <use xlink:href="#DejaVuSans-72" x="115.076172"/>
      <use xlink:href="#DejaVuSans-63" x="153.939453"/>
      <use xlink:href="#DejaVuSans-65" x="208.919922"/>
      <use xlink:href="#DejaVuSans-20" x="270.443359"/>
      <use xlink:href="#DejaVuSans-45" x="302.230469"/>
      <use xlink:href="#DejaVuSans-72" x="365.414062"/>
      <use xlink:href="#DejaVuSans-72" x="404.777344"/>
      <use xlink:href="#DejaVuSans-6f" x="443.640625"/>
      <use xlink:href="#DejaVuSans-72" x="504.822266"/>
      <use xlink:href="#DejaVuSans-73" x="545.935547"/>
      <use xlink:href="#DejaVuSans-20" x="598.035156"/>
      <use xlink:href="#DejaVuSans-5b" x="629.822266"/>
      <use xlink:href="#DejaVuSans-6b" x="668.835938"/>
      <use xlink:href="#DejaVuSans-4a" x="726.746094"/>
      <use xlink:href="#DejaVuSans-2f" x="756.238281"/>
      <use xlink:href="#DejaVuSans-28" x="789.929688"/>
      <use xlink:href="#DejaVuSans-6d" x="828.943359"/>
      <use xlink:href="#DejaVuSans-6f" x="926.355469"/>
      <use xlink:href="#DejaVuSans-6c" x="987.537109"/>
      <use xlink:href="#DejaVuSans-2a" x="1015.320312"/>
      <use xlink:href="#DejaVuSans-41" x="1065.320312"/>
      <use xlink:href="#DejaVuSans-29" x="1133.728516"/>
      <use xlink:href="#DejaVuSans-5d" x="1172.742188"/>
     </g>
    </g>
   </g>
   <g id="line2d_17">
    <path d="M 83.72 499.48 
L 692.016497 24.237468 
" clip-path="url(#p746a899334)" style="fill: none; stroke-dasharray: 5.55,2.4; stroke-dashoffset: 0; stroke: #ff0000; stroke-width: 1.5"/>
   </g>
   <g id="patch_3">
    <path d="M 83.72 499.48 
L 83.72 24.237468 
" style="fill: none; stroke: #000000; stroke-width: 0.8; stroke-linejoin: miter; stroke-linecap: square"/>
   </g>
   <g id="patch_4">
    <path d="M 692.016497 499.48 
L 692.016497 24.237468 
" style="fill: none; stroke: #000000; stroke-width: 0.8; stroke-linejoin: miter; stroke-linecap: square"/>
   </g>
   <g id="patch_5">
    <path d="M 83.72 499.48 
L 692.016497 499.48 
" style="fill: none; stroke: #000000; stroke-width: 0.8; stroke-linejoin: miter; stroke-linecap: square"/>
   </g>
   <g id="patch_6">
    <path d="M 83.72 24.237468 
L 692.016497 24.237468 
" style="fill: none; stroke: #000000; stroke-width: 0.8; stroke-linejoin: miter; stroke-linecap: square"/>
   </g>
   <g id="text_19">
    <!-- Correlation in: 0.370 -->
    <g transform="translate(144.54965 71.761722) scale(0.22 -0.22)">
     <defs>
      <path id="DejaVuSans-43" d="M 4122 4306 
L 4122 3641 
Q 3803 3938 3442 4084 
Q 3081 4231 2675 4231 
Q 1875 4231 1450 3742 
Q 1025 3253 1025 2328 
Q 1025 1406 1450 917 
Q 1875 428 2675 428 
Q 3081 428 3442 575 
Q 3803 722 4122 1019 
L 4122 359 
Q 3791 134 3420 21 
Q 3050 -91 2638 -91 
Q 1578 -91 968 557 
Q 359 1206 359 2328 
Q 359 3453 968 4101 
Q 1578 4750 2638 4750 
Q 3056 4750 3426 4639 
Q 3797 4528 4122 4306 
z
" transform="scale(0.015625)"/>
      <path id="DejaVuSans-3a" d="M 750 794 
L 1409 794 
L 1409 0 
L 750 0 
L 750 794 
z
M 750 3309 
L 1409 3309 
L 1409 2516 
L 750 2516 
L 750 3309 
z
" transform="scale(0.015625)"/>
      <path id="DejaVuSans-2e" d="M 684 794 
L 1344 794 
L 1344 0 
L 684 0 
L 684 794 
z
" transform="scale(0.015625)"/>
     </defs>
     <use xlink:href="#DejaVuSans-43"/>
     <use xlink:href="#DejaVuSans-6f" x="69.824219"/>
     <use xlink:href="#DejaVuSans-72" x="131.005859"/>
     <use xlink:href="#DejaVuSans-72" x="170.369141"/>
     <use xlink:href="#DejaVuSans-65" x="209.232422"/>
     <use xlink:href="#DejaVuSans-6c" x="270.755859"/>
     <use xlink:href="#DejaVuSans-61" x="298.539062"/>
     <use xlink:href="#DejaVuSans-74" x="359.818359"/>
     <use xlink:href="#DejaVuSans-69" x="399.027344"/>
     <use xlink:href="#DejaVuSans-6f" x="426.810547"/>
     <use xlink:href="#DejaVuSans-6e" x="487.992188"/>
     <use xlink:href="#DejaVuSans-20" x="551.371094"/>
     <use xlink:href="#DejaVuSans-69" x="583.158203"/>
     <use xlink:href="#DejaVuSans-6e" x="610.941406"/>
     <use xlink:href="#DejaVuSans-3a" x="674.320312"/>
     <use xlink:href="#DejaVuSans-20" x="708.011719"/>
     <use xlink:href="#DejaVuSans-30" x="739.798828"/>
     <use xlink:href="#DejaVuSans-2e" x="803.421875"/>
     <use xlink:href="#DejaVuSans-33" x="835.208984"/>
     <use xlink:href="#DejaVuSans-37" x="898.832031"/>
     <use xlink:href="#DejaVuSans-30" x="962.455078"/>
    </g>
   </g>
  </g>
 </g>
 <defs>
  <clipPath id="p746a899334">
   <rect x="83.72" y="24.237468" width="608.296497" height="475.242532"/>
  </clipPath>
 </defs>
</svg>
