<?xml version="1.0" encoding="utf-8" standalone="no"?>
<!DOCTYPE svg PUBLIC "-//W3C//DTD SVG 1.1//EN"
  "http://www.w3.org/Graphics/SVG/1.1/DTD/svg11.dtd">
<svg xmlns:xlink="http://www.w3.org/1999/xlink" width="720pt" height="576pt" viewBox="0 0 720 576" xmlns="http://www.w3.org/2000/svg" version="1.1">
 <metadata>
  <rdf:RDF xmlns:dc="http://purl.org/dc/elements/1.1/" xmlns:cc="http://creativecommons.org/ns#" xmlns:rdf="http://www.w3.org/1999/02/22-rdf-syntax-ns#">
   <cc:Work>
    <dc:type rdf:resource="http://purl.org/dc/dcmitype/StillImage"/>
    <dc:date>2024-12-07T16:57:45.795480</dc:date>
    <dc:format>image/svg+xml</dc:format>
    <dc:creator>
     <cc:Agent>
      <dc:title>Matplotlib v3.8.4, https://matplotlib.org/</dc:title>
     </cc:Agent>
    </dc:creator>
   </cc:Work>
  </rdf:RDF>
 </metadata>
 <defs>
  <style type="text/css">*{stroke-linejoin: round; stroke-linecap: butt}</style>
 </defs>
 <g id="figure_1">
  <g id="patch_1">
   <path d="M 0 576 
L 720 576 
L 720 0 
L 0 0 
z
" style="fill: #ffffff"/>
  </g>
  <g id="axes_1">
   <g id="patch_2">
    <path d="M 83.72 499.48 
L 696.24 499.48 
L 696.24 23.76 
L 83.72 23.76 
z
" style="fill: #ffffff"/>
   </g>
   <g id="QuadContourSet_1">
    <path d="M 87.525517 501.724984 
L 88.889593 502.266953 
L 90.253668 502.348911 
L 91.617744 502.167912 
L 92.98182 501.793632 
L 94.345895 501.23494 
L 94.895955 500.941318 
L 95.709971 500.686873 
L 97.074047 500.114276 
L 98.438123 499.281233 
L 99.489444 498.339452 
L 99.802198 498.162791 
L 101.166274 497.212461 
L 102.517014 495.737586 
L 102.53035 495.727677 
L 103.894425 494.630701 
L 105.104573 493.135719 
L 105.258501 492.996556 
L 106.622577 491.615497 
L 107.405657 490.533853 
L 107.986652 489.905616 
L 109.340228 487.931987 
L 109.350728 487.91907 
L 110.714804 486.118608 
L 111.194133 485.33012 
L 112.07888 484.015295 
L 112.821278 482.728254 
L 113.442955 481.681678 
L 114.292153 480.126388 
L 114.807031 479.143282 
L 115.64177 477.524522 
L 116.171107 476.376912 
L 116.877834 474.922655 
L 117.535182 473.302654 
L 117.983917 472.320789 
L 118.899258 469.752933 
L 118.913843 469.718923 
L 119.854918 467.117057 
L 120.263334 465.424955 
L 120.558331 464.51519 
L 121.058562 461.913324 
L 121.172799 459.311458 
L 120.641043 456.709591 
L 120.263334 455.810593 
L 119.545468 454.107725 
L 118.899258 452.872638 
L 118.103001 451.505859 
L 117.535182 450.605729 
L 116.171107 449.218851 
L 115.06603 448.903993 
L 114.807031 448.828341 
L 113.442955 448.903993 
L 113.442955 448.903993 
L 112.07888 449.065816 
L 110.714804 449.32521 
L 109.350728 449.785972 
L 107.986652 450.482183 
L 106.622577 451.497409 
L 106.611657 451.505859 
L 105.258501 452.189848 
L 103.894425 452.890128 
L 102.53035 453.463185 
L 101.166274 453.633306 
L 99.802198 453.768785 
L 98.979599 454.107725 
L 98.438123 454.253415 
L 97.074047 454.9383 
L 95.709971 456.048383 
L 95.120753 456.709591 
L 94.345895 457.372277 
L 92.98182 459.060033 
L 92.817396 459.311458 
L 91.617744 460.825463 
L 90.943971 461.913324 
L 90.253668 462.861099 
L 89.272132 464.51519 
L 88.889593 465.089142 
L 87.733672 467.117057 
L 87.525517 467.461721 
L 86.29515 469.718923 
L 86.161441 469.96658 
L 84.945774 472.320789 
L 84.797366 472.633252 
L 83.691684 474.922655 
L 83.43329 475.552398 
L 82.556267 477.524522 
L 82.069214 478.927184 
L 81.587146 480.126388 
L 80.841238 482.728254 
L 80.705138 483.583492 
L 80.33846 485.33012 
L 80.275372 487.931987 
L 80.705138 489.899329 
L 80.872796 490.533853 
L 82.069214 492.826448 
L 82.214337 493.135719 
L 83.412817 495.737586 
L 83.43329 495.779038 
L 84.778487 498.339452 
L 84.797366 498.369304 
L 86.161441 500.426907 
L 86.645616 500.941318 
z
M 89.548094 495.737586 
L 88.889593 494.679462 
L 88.15394 493.135719 
L 87.525517 491.255368 
L 87.264275 490.533853 
L 86.628507 487.931987 
L 86.199541 485.33012 
L 86.161441 484.97687 
L 85.864708 482.728254 
L 86.025484 480.126388 
L 86.161441 479.607604 
L 86.639417 477.524522 
L 87.525517 475.185521 
L 87.61919 474.922655 
L 88.889593 472.320789 
L 88.889593 472.320789 
L 90.253668 470.016849 
L 90.446143 469.718923 
L 91.617744 468.028178 
L 92.363293 467.117057 
L 92.98182 466.339469 
L 94.345895 464.957028 
L 94.897136 464.51519 
L 95.709971 463.785753 
L 97.074047 462.805104 
L 98.438123 462.025148 
L 98.611855 461.913324 
L 99.802198 460.994762 
L 101.166274 460.033916 
L 102.290097 459.311458 
L 102.53035 459.114628 
L 103.894425 458.059408 
L 105.258501 457.233734 
L 106.392735 456.709591 
L 106.622577 456.564409 
L 107.986652 455.883354 
L 109.350728 455.373723 
L 110.714804 455.053514 
L 112.07888 455.02048 
L 113.442955 455.595344 
L 114.453028 456.709591 
L 114.807031 457.201202 
L 115.904841 459.311458 
L 116.171107 460.174653 
L 116.665142 461.913324 
L 116.928283 464.51519 
L 116.722837 467.117057 
L 116.171107 469.440393 
L 116.119944 469.718923 
L 115.315193 472.320789 
L 114.807031 473.51878 
L 114.274717 474.922655 
L 113.442955 476.656639 
L 113.046064 477.524522 
L 112.07888 479.337732 
L 111.650579 480.126388 
L 110.714804 481.725417 
L 110.075911 482.728254 
L 109.350728 483.870384 
L 108.270657 485.33012 
L 107.986652 485.746297 
L 106.622577 487.521401 
L 106.255178 487.931987 
L 105.258501 489.223126 
L 103.904455 490.533853 
L 103.894425 490.546044 
L 102.53035 492.029932 
L 101.166274 493.063765 
L 101.051077 493.135719 
L 99.802198 494.189081 
L 98.438123 495.008167 
L 97.074047 495.608646 
L 96.711654 495.737586 
L 95.709971 496.25659 
L 94.345895 496.766341 
L 92.98182 497.050608 
L 91.617744 497.031224 
L 90.253668 496.458537 
z
" clip-path="url(#pd366c078fb)" style="fill: #eef5fc"/>
    <path d="M 90.253668 496.458537 
L 91.617744 497.031224 
L 92.98182 497.050608 
L 94.345895 496.766341 
L 95.709971 496.25659 
L 96.711654 495.737586 
L 97.074047 495.608646 
L 98.438123 495.008167 
L 99.802198 494.189081 
L 101.051077 493.135719 
L 101.166274 493.063765 
L 102.53035 492.029932 
L 103.894425 490.546044 
L 103.904455 490.533853 
L 105.258501 489.223126 
L 106.255178 487.931987 
L 106.622577 487.521401 
L 107.986652 485.746297 
L 108.270657 485.33012 
L 109.350728 483.870384 
L 110.075911 482.728254 
L 110.714804 481.725417 
L 111.650579 480.126388 
L 112.07888 479.337732 
L 113.046064 477.524522 
L 113.442955 476.656639 
L 114.274717 474.922655 
L 114.807031 473.51878 
L 115.315193 472.320789 
L 116.119944 469.718923 
L 116.171107 469.440393 
L 116.722837 467.117057 
L 116.928283 464.51519 
L 116.665142 461.913324 
L 116.171107 460.174653 
L 115.904841 459.311458 
L 114.807031 457.201202 
L 114.453028 456.709591 
L 113.442955 455.595344 
L 112.07888 455.02048 
L 110.714804 455.053514 
L 109.350728 455.373723 
L 107.986652 455.883354 
L 106.622577 456.564409 
L 106.392735 456.709591 
L 105.258501 457.233734 
L 103.894425 458.059408 
L 102.53035 459.114628 
L 102.290097 459.311458 
L 101.166274 460.033916 
L 99.802198 460.994762 
L 98.611855 461.913324 
L 98.438123 462.025148 
L 97.074047 462.805104 
L 95.709971 463.785753 
L 94.897136 464.51519 
L 94.345895 464.957028 
L 92.98182 466.339469 
L 92.363293 467.117057 
L 91.617744 468.028178 
L 90.446143 469.718923 
L 90.253668 470.016849 
L 88.889593 472.320789 
L 88.889593 472.320789 
L 87.61919 474.922655 
L 87.525517 475.185521 
L 86.639417 477.524522 
L 86.161441 479.607604 
L 86.025484 480.126388 
L 85.864708 482.728254 
L 86.161441 484.97687 
L 86.199541 485.33012 
L 86.628507 487.931987 
L 87.264275 490.533853 
L 87.525517 491.255368 
L 88.15394 493.135719 
L 88.889593 494.679462 
L 89.548094 495.737586 
z
M 91.408244 493.135719 
L 90.253668 490.679141 
L 90.199312 490.533853 
L 89.561467 487.931987 
L 89.231596 485.33012 
L 89.19239 482.728254 
L 89.397823 480.126388 
L 89.934865 477.524522 
L 90.253668 476.613945 
L 90.83261 474.922655 
L 91.617744 473.395167 
L 92.19942 472.320789 
L 92.98182 471.172241 
L 94.106421 469.718923 
L 94.345895 469.438957 
L 95.709971 467.903088 
L 96.509609 467.117057 
L 97.074047 466.556629 
L 98.438123 465.265436 
L 99.324519 464.51519 
L 99.802198 464.069133 
L 101.166274 462.891063 
L 102.53035 461.924526 
L 102.548376 461.913324 
L 103.894425 460.900842 
L 105.258501 460.091481 
L 106.622577 459.471161 
L 107.04907 459.311458 
L 107.986652 458.845525 
L 109.350728 458.431131 
L 110.714804 458.438301 
L 112.07888 459.191506 
L 112.191066 459.311458 
L 113.442955 461.152188 
L 113.801864 461.913324 
L 114.45187 464.51519 
L 114.548799 467.117057 
L 114.240035 469.718923 
L 113.544806 472.320789 
L 113.442955 472.576477 
L 112.620257 474.922655 
L 112.07888 476.073034 
L 111.435723 477.524522 
L 110.714804 478.864003 
L 110.02965 480.126388 
L 109.350728 481.25469 
L 108.392044 482.728254 
L 107.986652 483.340975 
L 106.622577 485.163454 
L 106.486126 485.33012 
L 105.258501 486.917223 
L 104.269137 487.931987 
L 103.894425 488.374602 
L 102.53035 489.708196 
L 101.419522 490.533853 
L 101.166274 490.76815 
L 99.802198 491.78917 
L 98.438123 492.550446 
L 97.074047 493.135719 
L 97.074047 493.135719 
L 95.709971 493.751152 
L 94.345895 494.0962 
L 92.98182 494.074647 
L 91.617744 493.370011 
z
" clip-path="url(#pd366c078fb)" style="fill: #dae8f6"/>
    <path d="M 91.617744 493.370011 
L 92.98182 494.074647 
L 94.345895 494.0962 
L 95.709971 493.751152 
L 97.074047 493.135719 
L 97.074047 493.135719 
L 98.438123 492.550446 
L 99.802198 491.78917 
L 101.166274 490.76815 
L 101.419522 490.533853 
L 102.53035 489.708196 
L 103.894425 488.374602 
L 104.269137 487.931987 
L 105.258501 486.917223 
L 106.486126 485.33012 
L 106.622577 485.163454 
L 107.986652 483.340975 
L 108.392044 482.728254 
L 109.350728 481.25469 
L 110.02965 480.126388 
L 110.714804 478.864003 
L 111.435723 477.524522 
L 112.07888 476.073034 
L 112.620257 474.922655 
L 113.442955 472.576477 
L 113.544806 472.320789 
L 114.240035 469.718923 
L 114.548799 467.117057 
L 114.45187 464.51519 
L 113.801864 461.913324 
L 113.442955 461.152188 
L 112.191066 459.311458 
L 112.07888 459.191506 
L 110.714804 458.438301 
L 109.350728 458.431131 
L 107.986652 458.845525 
L 107.04907 459.311458 
L 106.622577 459.471161 
L 105.258501 460.091481 
L 103.894425 460.900842 
L 102.548376 461.913324 
L 102.53035 461.924526 
L 101.166274 462.891063 
L 99.802198 464.069133 
L 99.324519 464.51519 
L 98.438123 465.265436 
L 97.074047 466.556629 
L 96.509609 467.117057 
L 95.709971 467.903088 
L 94.345895 469.438957 
L 94.106421 469.718923 
L 92.98182 471.172241 
L 92.19942 472.320789 
L 91.617744 473.395167 
L 90.83261 474.922655 
L 90.253668 476.613945 
L 89.934865 477.524522 
L 89.397823 480.126388 
L 89.19239 482.728254 
L 89.231596 485.33012 
L 89.561467 487.931987 
L 90.199312 490.533853 
L 90.253668 490.679141 
L 91.408244 493.135719 
z
M 92.427836 490.533853 
L 91.617744 487.9828 
L 91.604427 487.931987 
L 91.290764 485.33012 
L 91.278004 482.728254 
L 91.617744 480.126388 
L 91.617744 480.126388 
L 92.247872 477.524522 
L 92.98182 475.723972 
L 93.30316 474.922655 
L 94.345895 473.038351 
L 94.761132 472.320789 
L 95.709971 470.959225 
L 96.667748 469.718923 
L 97.074047 469.231971 
L 98.438123 467.710114 
L 99.031885 467.117057 
L 99.802198 466.329122 
L 101.166274 465.116616 
L 101.971654 464.51519 
L 102.53035 464.045013 
L 103.894425 463.049382 
L 105.258501 462.269712 
L 106.019491 461.913324 
L 106.622577 461.562289 
L 107.986652 461.042583 
L 109.350728 460.955313 
L 110.714804 461.607606 
L 111.00263 461.913324 
L 112.07888 463.715179 
L 112.399914 464.51519 
L 112.817442 467.117057 
L 112.688306 469.718923 
L 112.132 472.320789 
L 112.07888 472.466646 
L 111.290791 474.922655 
L 110.714804 476.190676 
L 110.141903 477.524522 
L 109.350728 478.991791 
L 108.729453 480.126388 
L 107.986652 481.323978 
L 107.036299 482.728254 
L 106.622577 483.320845 
L 105.258501 485.033859 
L 104.988658 485.33012 
L 103.894425 486.591145 
L 102.53035 487.825274 
L 102.390585 487.931987 
L 101.166274 488.993461 
L 99.802198 489.902516 
L 98.599458 490.533853 
L 98.438123 490.638071 
L 97.074047 491.337108 
L 95.709971 491.76802 
L 94.345895 491.844772 
L 92.98182 491.228567 
z
" clip-path="url(#pd366c078fb)" style="fill: #c7dbef"/>
    <path d="M 92.98182 491.228567 
L 94.345895 491.844772 
L 95.709971 491.76802 
L 97.074047 491.337108 
L 98.438123 490.638071 
L 98.599458 490.533853 
L 99.802198 489.902516 
L 101.166274 488.993461 
L 102.390585 487.931987 
L 102.53035 487.825274 
L 103.894425 486.591145 
L 104.988658 485.33012 
L 105.258501 485.033859 
L 106.622577 483.320845 
L 107.036299 482.728254 
L 107.986652 481.323978 
L 108.729453 480.126388 
L 109.350728 478.991791 
L 110.141903 477.524522 
L 110.714804 476.190676 
L 111.290791 474.922655 
L 112.07888 472.466646 
L 112.132 472.320789 
L 112.688306 469.718923 
L 112.817442 467.117057 
L 112.399914 464.51519 
L 112.07888 463.715179 
L 111.00263 461.913324 
L 110.714804 461.607606 
L 109.350728 460.955313 
L 107.986652 461.042583 
L 106.622577 461.562289 
L 106.019491 461.913324 
L 105.258501 462.269712 
L 103.894425 463.049382 
L 102.53035 464.045013 
L 101.971654 464.51519 
L 101.166274 465.116616 
L 99.802198 466.329122 
L 99.031885 467.117057 
L 98.438123 467.710114 
L 97.074047 469.231971 
L 96.667748 469.718923 
L 95.709971 470.959225 
L 94.761132 472.320789 
L 94.345895 473.038351 
L 93.30316 474.922655 
L 92.98182 475.723972 
L 92.247872 477.524522 
L 91.617744 480.126388 
L 91.617744 480.126388 
L 91.278004 482.728254 
L 91.290764 485.33012 
L 91.604427 487.931987 
L 91.617744 487.9828 
L 92.427836 490.533853 
z
M 92.98182 487.931987 
L 92.98182 487.931987 
L 92.622828 485.33012 
L 92.65989 482.728254 
L 92.98182 480.440025 
L 93.020795 480.126388 
L 93.692092 477.524522 
L 94.345895 475.972632 
L 94.784517 474.922655 
L 95.709971 473.29153 
L 96.290464 472.320789 
L 97.074047 471.21885 
L 98.265268 469.718923 
L 98.438123 469.515387 
L 99.802198 468.008785 
L 100.767608 467.117057 
L 101.166274 466.733849 
L 102.53035 465.558402 
L 103.894425 464.628968 
L 104.087237 464.51519 
L 105.258501 463.715801 
L 106.622577 463.071944 
L 107.986652 462.775345 
L 109.350728 463.109815 
L 110.635188 464.51519 
L 110.714804 464.686127 
L 111.460036 467.117057 
L 111.520864 469.718923 
L 111.096098 472.320789 
L 110.714804 473.490129 
L 110.293733 474.922655 
L 109.350728 477.084324 
L 109.164913 477.524522 
L 107.986652 479.686873 
L 107.737832 480.126388 
L 106.622577 481.834809 
L 105.9719 482.728254 
L 105.258501 483.666478 
L 103.894425 485.178792 
L 103.736807 485.33012 
L 102.53035 486.532001 
L 101.166274 487.603028 
L 100.663817 487.931987 
L 99.802198 488.566871 
L 98.438123 489.35152 
L 97.074047 489.908678 
L 95.709971 490.19819 
L 94.345895 489.92363 
z
" clip-path="url(#pd366c078fb)" style="fill: #a9cfe5"/>
    <path d="M 94.345895 489.92363 
L 95.709971 490.19819 
L 97.074047 489.908678 
L 98.438123 489.35152 
L 99.802198 488.566871 
L 100.663817 487.931987 
L 101.166274 487.603028 
L 102.53035 486.532001 
L 103.736807 485.33012 
L 103.894425 485.178792 
L 105.258501 483.666478 
L 105.9719 482.728254 
L 106.622577 481.834809 
L 107.737832 480.126388 
L 107.986652 479.686873 
L 109.164913 477.524522 
L 109.350728 477.084324 
L 110.293733 474.922655 
L 110.714804 473.490129 
L 111.096098 472.320789 
L 111.520864 469.718923 
L 111.460036 467.117057 
L 110.714804 464.686127 
L 110.635188 464.51519 
L 109.350728 463.109815 
L 107.986652 462.775345 
L 106.622577 463.071944 
L 105.258501 463.715801 
L 104.087237 464.51519 
L 103.894425 464.628968 
L 102.53035 465.558402 
L 101.166274 466.733849 
L 100.767608 467.117057 
L 99.802198 468.008785 
L 98.438123 469.515387 
L 98.265268 469.718923 
L 97.074047 471.21885 
L 96.290464 472.320789 
L 95.709971 473.29153 
L 94.784517 474.922655 
L 94.345895 475.972632 
L 93.692092 477.524522 
L 93.020795 480.126388 
L 92.98182 480.440025 
L 92.65989 482.728254 
L 92.622828 485.33012 
L 92.98182 487.931987 
L 92.98182 487.931987 
z
M 95.309257 487.931987 
L 94.345895 486.277465 
L 94.101903 485.33012 
L 94.111677 482.728254 
L 94.345895 481.278664 
L 94.513297 480.126388 
L 95.244877 477.524522 
L 95.709971 476.453222 
L 96.381945 474.922655 
L 97.074047 473.737785 
L 97.967212 472.320789 
L 98.438123 471.680954 
L 99.802198 470.01033 
L 100.066968 469.718923 
L 101.166274 468.545191 
L 102.53035 467.356861 
L 102.847458 467.117057 
L 103.894425 466.271282 
L 105.258501 465.465592 
L 106.622577 464.975722 
L 107.986652 465.076567 
L 109.350728 466.507906 
L 109.6453 467.117057 
L 110.062569 469.718923 
L 109.808413 472.320789 
L 109.350728 473.9245 
L 109.086977 474.922655 
L 107.986652 477.524522 
L 107.986652 477.524522 
L 106.622577 479.943502 
L 106.513072 480.126388 
L 105.258501 481.898042 
L 104.589885 482.728254 
L 103.894425 483.541619 
L 102.53035 484.88454 
L 101.998785 485.33012 
L 101.166274 486.044206 
L 99.802198 486.983457 
L 98.438123 487.708238 
L 97.784344 487.931987 
L 97.074047 488.199271 
L 95.709971 488.182006 
z
" clip-path="url(#pd366c078fb)" style="fill: #81badb"/>
    <path d="M 95.709971 488.182006 
L 97.074047 488.199271 
L 97.784344 487.931987 
L 98.438123 487.708238 
L 99.802198 486.983457 
L 101.166274 486.044206 
L 101.998785 485.33012 
L 102.53035 484.88454 
L 103.894425 483.541619 
L 104.589885 482.728254 
L 105.258501 481.898042 
L 106.513072 480.126388 
L 106.622577 479.943502 
L 107.986652 477.524522 
L 107.986652 477.524522 
L 109.086977 474.922655 
L 109.350728 473.9245 
L 109.808413 472.320789 
L 110.062569 469.718923 
L 109.6453 467.117057 
L 109.350728 466.507906 
L 107.986652 465.076567 
L 106.622577 464.975722 
L 105.258501 465.465592 
L 103.894425 466.271282 
L 102.847458 467.117057 
L 102.53035 467.356861 
L 101.166274 468.545191 
L 100.066968 469.718923 
L 99.802198 470.01033 
L 98.438123 471.680954 
L 97.967212 472.320789 
L 97.074047 473.737785 
L 96.381945 474.922655 
L 95.709971 476.453222 
L 95.244877 477.524522 
L 94.513297 480.126388 
L 94.345895 481.278664 
L 94.111677 482.728254 
L 94.101903 485.33012 
L 94.345895 486.277465 
L 95.309257 487.931987 
z
M 95.709971 485.33012 
L 95.709971 485.33012 
L 95.403002 482.728254 
L 95.709971 480.738911 
L 95.796606 480.126388 
L 96.571662 477.524522 
L 97.074047 476.41827 
L 97.776952 474.922655 
L 98.438123 473.835136 
L 99.457595 472.320789 
L 99.802198 471.872377 
L 101.166274 470.290225 
L 101.740293 469.718923 
L 102.53035 468.95065 
L 103.894425 467.925179 
L 105.258501 467.174354 
L 105.693242 467.117057 
L 106.622577 466.991079 
L 106.888792 467.117057 
L 107.986652 468.302659 
L 108.488836 469.718923 
L 108.484435 472.320789 
L 107.986652 474.407567 
L 107.871128 474.922655 
L 106.784914 477.524522 
L 106.622577 477.812403 
L 105.258501 480.091064 
L 105.235895 480.126388 
L 103.894425 481.835681 
L 103.092792 482.728254 
L 102.53035 483.305285 
L 101.166274 484.476998 
L 99.959832 485.33012 
L 99.802198 485.442493 
L 98.438123 486.096526 
L 97.074047 486.26704 
z
" clip-path="url(#pd366c078fb)" style="fill: #56a0ce"/>
    <path d="M 97.074047 486.26704 
L 98.438123 486.096526 
L 99.802198 485.442493 
L 99.959832 485.33012 
L 101.166274 484.476998 
L 102.53035 483.305285 
L 103.092792 482.728254 
L 103.894425 481.835681 
L 105.235895 480.126388 
L 105.258501 480.091064 
L 106.622577 477.812403 
L 106.784914 477.524522 
L 107.871128 474.922655 
L 107.986652 474.407567 
L 108.484435 472.320789 
L 108.488836 469.718923 
L 107.986652 468.302659 
L 106.888792 467.117057 
L 106.622577 466.991079 
L 105.693242 467.117057 
L 105.258501 467.174354 
L 103.894425 467.925179 
L 102.53035 468.95065 
L 101.740293 469.718923 
L 101.166274 470.290225 
L 99.802198 471.872377 
L 99.457595 472.320789 
L 98.438123 473.835136 
L 97.776952 474.922655 
L 97.074047 476.41827 
L 96.571662 477.524522 
L 95.796606 480.126388 
L 95.709971 480.738911 
L 95.403002 482.728254 
L 95.709971 485.33012 
L 95.709971 485.33012 
z
M 96.937395 482.728254 
L 97.074047 480.126388 
L 97.074047 480.126388 
L 97.873264 477.524522 
L 98.438123 476.338836 
L 99.150286 474.922655 
L 99.802198 473.918877 
L 100.974585 472.320789 
L 101.166274 472.090644 
L 102.53035 470.758073 
L 103.865906 469.718923 
L 103.894425 469.697605 
L 105.258501 469.337037 
L 106.084135 469.718923 
L 106.622577 470.72176 
L 106.918987 472.320789 
L 106.622577 474.025137 
L 106.474032 474.922655 
L 105.405905 477.524522 
L 105.258501 477.771184 
L 103.894425 479.894064 
L 103.732642 480.126388 
L 102.53035 481.472137 
L 101.236895 482.728254 
L 101.166274 482.789875 
L 99.802198 483.642864 
L 98.438123 484.012912 
L 97.074047 483.073691 
z
" clip-path="url(#pd366c078fb)" style="fill: #3080bd"/>
    <path d="M 97.074047 483.073691 
L 98.438123 484.012912 
L 99.802198 483.642864 
L 101.166274 482.789875 
L 101.236895 482.728254 
L 102.53035 481.472137 
L 103.732642 480.126388 
L 103.894425 479.894064 
L 105.258501 477.771184 
L 105.405905 477.524522 
L 106.474032 474.922655 
L 106.622577 474.025137 
L 106.918987 472.320789 
L 106.622577 470.72176 
L 106.084135 469.718923 
L 105.258501 469.337037 
L 103.894425 469.697605 
L 103.865906 469.718923 
L 102.53035 470.758073 
L 101.166274 472.090644 
L 100.974585 472.320789 
L 99.802198 473.918877 
L 99.150286 474.922655 
L 98.438123 476.338836 
L 97.873264 477.524522 
L 97.074047 480.126388 
L 97.074047 480.126388 
L 96.937395 482.728254 
z
M 98.30934 480.126388 
L 98.438123 479.647207 
L 99.015067 477.524522 
L 99.802198 475.95072 
L 100.360877 474.922655 
L 101.166274 473.850705 
L 102.506647 472.320789 
L 102.53035 472.297732 
L 103.894425 471.676898 
L 105.258501 472.320789 
L 105.169003 474.922655 
L 104.126198 477.524522 
L 103.894425 477.883614 
L 102.53035 479.784298 
L 102.244643 480.126388 
L 101.166274 481.057662 
L 99.802198 481.758584 
L 98.438123 480.744121 
z
" clip-path="url(#pd366c078fb)" style="fill: #135fa7"/>
    <path d="M 98.438123 480.744121 
L 99.802198 481.758584 
L 101.166274 481.057662 
L 102.244643 480.126388 
L 102.53035 479.784298 
L 103.894425 477.883614 
L 104.126198 477.524522 
L 105.169003 474.922655 
L 105.258501 472.320789 
L 103.894425 471.676898 
L 102.53035 472.297732 
L 102.506647 472.320789 
L 101.166274 473.850705 
L 100.360877 474.922655 
L 99.802198 475.95072 
L 99.015067 477.524522 
L 98.438123 479.647207 
L 98.30934 480.126388 
z
" clip-path="url(#pd366c078fb)" style="fill: #084184"/>
   </g>
   <g id="matplotlib.axis_1">
    <g id="xtick_1">
     <g id="line2d_1">
      <defs>
       <path id="m037c4e8471" d="M 0 0 
L 0 3.5 
" style="stroke: #000000; stroke-width: 0.8"/>
      </defs>
      <g>
       <use xlink:href="#m037c4e8471" x="86.460483" y="499.48" style="stroke: #000000; stroke-width: 0.8"/>
      </g>
     </g>
     <g id="text_1">
      <!-- 0 -->
      <g transform="translate(79.461733 523.196563) scale(0.22 -0.22)">
       <defs>
        <path id="DejaVuSans-30" d="M 2034 4250 
Q 1547 4250 1301 3770 
Q 1056 3291 1056 2328 
Q 1056 1369 1301 889 
Q 1547 409 2034 409 
Q 2525 409 2770 889 
Q 3016 1369 3016 2328 
Q 3016 3291 2770 3770 
Q 2525 4250 2034 4250 
z
M 2034 4750 
Q 2819 4750 3233 4129 
Q 3647 3509 3647 2328 
Q 3647 1150 3233 529 
Q 2819 -91 2034 -91 
Q 1250 -91 836 529 
Q 422 1150 422 2328 
Q 422 3509 836 4129 
Q 1250 4750 2034 4750 
z
" transform="scale(0.015625)"/>
       </defs>
       <use xlink:href="#DejaVuSans-30"/>
      </g>
     </g>
    </g>
    <g id="xtick_2">
     <g id="line2d_2">
      <g>
       <use xlink:href="#m037c4e8471" x="189.635538" y="499.48" style="stroke: #000000; stroke-width: 0.8"/>
      </g>
     </g>
     <g id="text_2">
      <!-- 10 -->
      <g transform="translate(175.638038 523.196563) scale(0.22 -0.22)">
       <defs>
        <path id="DejaVuSans-31" d="M 794 531 
L 1825 531 
L 1825 4091 
L 703 3866 
L 703 4441 
L 1819 4666 
L 2450 4666 
L 2450 531 
L 3481 531 
L 3481 0 
L 794 0 
L 794 531 
z
" transform="scale(0.015625)"/>
       </defs>
       <use xlink:href="#DejaVuSans-31"/>
       <use xlink:href="#DejaVuSans-30" x="63.623047"/>
      </g>
     </g>
    </g>
    <g id="xtick_3">
     <g id="line2d_3">
      <g>
       <use xlink:href="#m037c4e8471" x="292.810594" y="499.48" style="stroke: #000000; stroke-width: 0.8"/>
      </g>
     </g>
     <g id="text_3">
      <!-- 20 -->
      <g transform="translate(278.813094 523.196563) scale(0.22 -0.22)">
       <defs>
        <path id="DejaVuSans-32" d="M 1228 531 
L 3431 531 
L 3431 0 
L 469 0 
L 469 531 
Q 828 903 1448 1529 
Q 2069 2156 2228 2338 
Q 2531 2678 2651 2914 
Q 2772 3150 2772 3378 
Q 2772 3750 2511 3984 
Q 2250 4219 1831 4219 
Q 1534 4219 1204 4116 
Q 875 4013 500 3803 
L 500 4441 
Q 881 4594 1212 4672 
Q 1544 4750 1819 4750 
Q 2544 4750 2975 4387 
Q 3406 4025 3406 3419 
Q 3406 3131 3298 2873 
Q 3191 2616 2906 2266 
Q 2828 2175 2409 1742 
Q 1991 1309 1228 531 
z
" transform="scale(0.015625)"/>
       </defs>
       <use xlink:href="#DejaVuSans-32"/>
       <use xlink:href="#DejaVuSans-30" x="63.623047"/>
      </g>
     </g>
    </g>
    <g id="xtick_4">
     <g id="line2d_4">
      <g>
       <use xlink:href="#m037c4e8471" x="395.985649" y="499.48" style="stroke: #000000; stroke-width: 0.8"/>
      </g>
     </g>
     <g id="text_4">
      <!-- 30 -->
      <g transform="translate(381.988149 523.196563) scale(0.22 -0.22)">
       <defs>
        <path id="DejaVuSans-33" d="M 2597 2516 
Q 3050 2419 3304 2112 
Q 3559 1806 3559 1356 
Q 3559 666 3084 287 
Q 2609 -91 1734 -91 
Q 1441 -91 1130 -33 
Q 819 25 488 141 
L 488 750 
Q 750 597 1062 519 
Q 1375 441 1716 441 
Q 2309 441 2620 675 
Q 2931 909 2931 1356 
Q 2931 1769 2642 2001 
Q 2353 2234 1838 2234 
L 1294 2234 
L 1294 2753 
L 1863 2753 
Q 2328 2753 2575 2939 
Q 2822 3125 2822 3475 
Q 2822 3834 2567 4026 
Q 2313 4219 1838 4219 
Q 1578 4219 1281 4162 
Q 984 4106 628 3988 
L 628 4550 
Q 988 4650 1302 4700 
Q 1616 4750 1894 4750 
Q 2613 4750 3031 4423 
Q 3450 4097 3450 3541 
Q 3450 3153 3228 2886 
Q 3006 2619 2597 2516 
z
" transform="scale(0.015625)"/>
       </defs>
       <use xlink:href="#DejaVuSans-33"/>
       <use xlink:href="#DejaVuSans-30" x="63.623047"/>
      </g>
     </g>
    </g>
    <g id="xtick_5">
     <g id="line2d_5">
      <g>
       <use xlink:href="#m037c4e8471" x="499.160704" y="499.48" style="stroke: #000000; stroke-width: 0.8"/>
      </g>
     </g>
     <g id="text_5">
      <!-- 40 -->
      <g transform="translate(485.163204 523.196563) scale(0.22 -0.22)">
       <defs>
        <path id="DejaVuSans-34" d="M 2419 4116 
L 825 1625 
L 2419 1625 
L 2419 4116 
z
M 2253 4666 
L 3047 4666 
L 3047 1625 
L 3713 1625 
L 3713 1100 
L 3047 1100 
L 3047 0 
L 2419 0 
L 2419 1100 
L 313 1100 
L 313 1709 
L 2253 4666 
z
" transform="scale(0.015625)"/>
       </defs>
       <use xlink:href="#DejaVuSans-34"/>
       <use xlink:href="#DejaVuSans-30" x="63.623047"/>
      </g>
     </g>
    </g>
    <g id="xtick_6">
     <g id="line2d_6">
      <g>
       <use xlink:href="#m037c4e8471" x="602.335759" y="499.48" style="stroke: #000000; stroke-width: 0.8"/>
      </g>
     </g>
     <g id="text_6">
      <!-- 50 -->
      <g transform="translate(588.338259 523.196563) scale(0.22 -0.22)">
       <defs>
        <path id="DejaVuSans-35" d="M 691 4666 
L 3169 4666 
L 3169 4134 
L 1269 4134 
L 1269 2991 
Q 1406 3038 1543 3061 
Q 1681 3084 1819 3084 
Q 2600 3084 3056 2656 
Q 3513 2228 3513 1497 
Q 3513 744 3044 326 
Q 2575 -91 1722 -91 
Q 1428 -91 1123 -41 
Q 819 9 494 109 
L 494 744 
Q 775 591 1075 516 
Q 1375 441 1709 441 
Q 2250 441 2565 725 
Q 2881 1009 2881 1497 
Q 2881 1984 2565 2268 
Q 2250 2553 1709 2553 
Q 1456 2553 1204 2497 
Q 953 2441 691 2322 
L 691 4666 
z
" transform="scale(0.015625)"/>
       </defs>
       <use xlink:href="#DejaVuSans-35"/>
       <use xlink:href="#DejaVuSans-30" x="63.623047"/>
      </g>
     </g>
    </g>
    <g id="text_7">
     <!-- Force Uncertainties -->
     <g transform="translate(283.426094 548.488438) scale(0.22 -0.22)">
      <defs>
       <path id="DejaVuSans-46" d="M 628 4666 
L 3309 4666 
L 3309 4134 
L 1259 4134 
L 1259 2759 
L 3109 2759 
L 3109 2228 
L 1259 2228 
L 1259 0 
L 628 0 
L 628 4666 
z
" transform="scale(0.015625)"/>
       <path id="DejaVuSans-6f" d="M 1959 3097 
Q 1497 3097 1228 2736 
Q 959 2375 959 1747 
Q 959 1119 1226 758 
Q 1494 397 1959 397 
Q 2419 397 2687 759 
Q 2956 1122 2956 1747 
Q 2956 2369 2687 2733 
Q 2419 3097 1959 3097 
z
M 1959 3584 
Q 2709 3584 3137 3096 
Q 3566 2609 3566 1747 
Q 3566 888 3137 398 
Q 2709 -91 1959 -91 
Q 1206 -91 779 398 
Q 353 888 353 1747 
Q 353 2609 779 3096 
Q 1206 3584 1959 3584 
z
" transform="scale(0.015625)"/>
       <path id="DejaVuSans-72" d="M 2631 2963 
Q 2534 3019 2420 3045 
Q 2306 3072 2169 3072 
Q 1681 3072 1420 2755 
Q 1159 2438 1159 1844 
L 1159 0 
L 581 0 
L 581 3500 
L 1159 3500 
L 1159 2956 
Q 1341 3275 1631 3429 
Q 1922 3584 2338 3584 
Q 2397 3584 2469 3576 
Q 2541 3569 2628 3553 
L 2631 2963 
z
" transform="scale(0.015625)"/>
       <path id="DejaVuSans-63" d="M 3122 3366 
L 3122 2828 
Q 2878 2963 2633 3030 
Q 2388 3097 2138 3097 
Q 1578 3097 1268 2742 
Q 959 2388 959 1747 
Q 959 1106 1268 751 
Q 1578 397 2138 397 
Q 2388 397 2633 464 
Q 2878 531 3122 666 
L 3122 134 
Q 2881 22 2623 -34 
Q 2366 -91 2075 -91 
Q 1284 -91 818 406 
Q 353 903 353 1747 
Q 353 2603 823 3093 
Q 1294 3584 2113 3584 
Q 2378 3584 2631 3529 
Q 2884 3475 3122 3366 
z
" transform="scale(0.015625)"/>
       <path id="DejaVuSans-65" d="M 3597 1894 
L 3597 1613 
L 953 1613 
Q 991 1019 1311 708 
Q 1631 397 2203 397 
Q 2534 397 2845 478 
Q 3156 559 3463 722 
L 3463 178 
Q 3153 47 2828 -22 
Q 2503 -91 2169 -91 
Q 1331 -91 842 396 
Q 353 884 353 1716 
Q 353 2575 817 3079 
Q 1281 3584 2069 3584 
Q 2775 3584 3186 3129 
Q 3597 2675 3597 1894 
z
M 3022 2063 
Q 3016 2534 2758 2815 
Q 2500 3097 2075 3097 
Q 1594 3097 1305 2825 
Q 1016 2553 972 2059 
L 3022 2063 
z
" transform="scale(0.015625)"/>
       <path id="DejaVuSans-20" transform="scale(0.015625)"/>
       <path id="DejaVuSans-55" d="M 556 4666 
L 1191 4666 
L 1191 1831 
Q 1191 1081 1462 751 
Q 1734 422 2344 422 
Q 2950 422 3222 751 
Q 3494 1081 3494 1831 
L 3494 4666 
L 4128 4666 
L 4128 1753 
Q 4128 841 3676 375 
Q 3225 -91 2344 -91 
Q 1459 -91 1007 375 
Q 556 841 556 1753 
L 556 4666 
z
" transform="scale(0.015625)"/>
       <path id="DejaVuSans-6e" d="M 3513 2113 
L 3513 0 
L 2938 0 
L 2938 2094 
Q 2938 2591 2744 2837 
Q 2550 3084 2163 3084 
Q 1697 3084 1428 2787 
Q 1159 2491 1159 1978 
L 1159 0 
L 581 0 
L 581 3500 
L 1159 3500 
L 1159 2956 
Q 1366 3272 1645 3428 
Q 1925 3584 2291 3584 
Q 2894 3584 3203 3211 
Q 3513 2838 3513 2113 
z
" transform="scale(0.015625)"/>
       <path id="DejaVuSans-74" d="M 1172 4494 
L 1172 3500 
L 2356 3500 
L 2356 3053 
L 1172 3053 
L 1172 1153 
Q 1172 725 1289 603 
Q 1406 481 1766 481 
L 2356 481 
L 2356 0 
L 1766 0 
Q 1100 0 847 248 
Q 594 497 594 1153 
L 594 3053 
L 172 3053 
L 172 3500 
L 594 3500 
L 594 4494 
L 1172 4494 
z
" transform="scale(0.015625)"/>
       <path id="DejaVuSans-61" d="M 2194 1759 
Q 1497 1759 1228 1600 
Q 959 1441 959 1056 
Q 959 750 1161 570 
Q 1363 391 1709 391 
Q 2188 391 2477 730 
Q 2766 1069 2766 1631 
L 2766 1759 
L 2194 1759 
z
M 3341 1997 
L 3341 0 
L 2766 0 
L 2766 531 
Q 2569 213 2275 61 
Q 1981 -91 1556 -91 
Q 1019 -91 701 211 
Q 384 513 384 1019 
Q 384 1609 779 1909 
Q 1175 2209 1959 2209 
L 2766 2209 
L 2766 2266 
Q 2766 2663 2505 2880 
Q 2244 3097 1772 3097 
Q 1472 3097 1187 3025 
Q 903 2953 641 2809 
L 641 3341 
Q 956 3463 1253 3523 
Q 1550 3584 1831 3584 
Q 2591 3584 2966 3190 
Q 3341 2797 3341 1997 
z
" transform="scale(0.015625)"/>
       <path id="DejaVuSans-69" d="M 603 3500 
L 1178 3500 
L 1178 0 
L 603 0 
L 603 3500 
z
M 603 4863 
L 1178 4863 
L 1178 4134 
L 603 4134 
L 603 4863 
z
" transform="scale(0.015625)"/>
       <path id="DejaVuSans-73" d="M 2834 3397 
L 2834 2853 
Q 2591 2978 2328 3040 
Q 2066 3103 1784 3103 
Q 1356 3103 1142 2972 
Q 928 2841 928 2578 
Q 928 2378 1081 2264 
Q 1234 2150 1697 2047 
L 1894 2003 
Q 2506 1872 2764 1633 
Q 3022 1394 3022 966 
Q 3022 478 2636 193 
Q 2250 -91 1575 -91 
Q 1294 -91 989 -36 
Q 684 19 347 128 
L 347 722 
Q 666 556 975 473 
Q 1284 391 1588 391 
Q 1994 391 2212 530 
Q 2431 669 2431 922 
Q 2431 1156 2273 1281 
Q 2116 1406 1581 1522 
L 1381 1569 
Q 847 1681 609 1914 
Q 372 2147 372 2553 
Q 372 3047 722 3315 
Q 1072 3584 1716 3584 
Q 2034 3584 2315 3537 
Q 2597 3491 2834 3397 
z
" transform="scale(0.015625)"/>
      </defs>
      <use xlink:href="#DejaVuSans-46"/>
      <use xlink:href="#DejaVuSans-6f" x="53.894531"/>
      <use xlink:href="#DejaVuSans-72" x="115.076172"/>
      <use xlink:href="#DejaVuSans-63" x="153.939453"/>
      <use xlink:href="#DejaVuSans-65" x="208.919922"/>
      <use xlink:href="#DejaVuSans-20" x="270.443359"/>
      <use xlink:href="#DejaVuSans-55" x="302.230469"/>
      <use xlink:href="#DejaVuSans-6e" x="375.423828"/>
      <use xlink:href="#DejaVuSans-63" x="438.802734"/>
      <use xlink:href="#DejaVuSans-65" x="493.783203"/>
      <use xlink:href="#DejaVuSans-72" x="555.306641"/>
      <use xlink:href="#DejaVuSans-74" x="596.419922"/>
      <use xlink:href="#DejaVuSans-61" x="635.628906"/>
      <use xlink:href="#DejaVuSans-69" x="696.908203"/>
      <use xlink:href="#DejaVuSans-6e" x="724.691406"/>
      <use xlink:href="#DejaVuSans-74" x="788.070312"/>
      <use xlink:href="#DejaVuSans-69" x="827.279297"/>
      <use xlink:href="#DejaVuSans-65" x="855.0625"/>
      <use xlink:href="#DejaVuSans-73" x="916.585938"/>
     </g>
    </g>
   </g>
   <g id="matplotlib.axis_2">
    <g id="ytick_1">
     <g id="line2d_7">
      <defs>
       <path id="mc4af3a9d3b" d="M 0 0 
L -3.5 0 
" style="stroke: #000000; stroke-width: 0.8"/>
      </defs>
      <g>
       <use xlink:href="#mc4af3a9d3b" x="83.72" y="497.351575" style="stroke: #000000; stroke-width: 0.8"/>
      </g>
     </g>
     <g id="text_8">
      <!-- 0 -->
      <g transform="translate(62.7225 505.709857) scale(0.22 -0.22)">
       <use xlink:href="#DejaVuSans-30"/>
      </g>
     </g>
    </g>
    <g id="ytick_2">
     <g id="line2d_8">
      <g>
       <use xlink:href="#mc4af3a9d3b" x="83.72" y="417.2196" style="stroke: #000000; stroke-width: 0.8"/>
      </g>
     </g>
     <g id="text_9">
      <!-- 10 -->
      <g transform="translate(48.725 425.577882) scale(0.22 -0.22)">
       <use xlink:href="#DejaVuSans-31"/>
       <use xlink:href="#DejaVuSans-30" x="63.623047"/>
      </g>
     </g>
    </g>
    <g id="ytick_3">
     <g id="line2d_9">
      <g>
       <use xlink:href="#mc4af3a9d3b" x="83.72" y="337.087626" style="stroke: #000000; stroke-width: 0.8"/>
      </g>
     </g>
     <g id="text_10">
      <!-- 20 -->
      <g transform="translate(48.725 345.445907) scale(0.22 -0.22)">
       <use xlink:href="#DejaVuSans-32"/>
       <use xlink:href="#DejaVuSans-30" x="63.623047"/>
      </g>
     </g>
    </g>
    <g id="ytick_4">
     <g id="line2d_10">
      <g>
       <use xlink:href="#mc4af3a9d3b" x="83.72" y="256.955651" style="stroke: #000000; stroke-width: 0.8"/>
      </g>
     </g>
     <g id="text_11">
      <!-- 30 -->
      <g transform="translate(48.725 265.313932) scale(0.22 -0.22)">
       <use xlink:href="#DejaVuSans-33"/>
       <use xlink:href="#DejaVuSans-30" x="63.623047"/>
      </g>
     </g>
    </g>
    <g id="ytick_5">
     <g id="line2d_11">
      <g>
       <use xlink:href="#mc4af3a9d3b" x="83.72" y="176.823676" style="stroke: #000000; stroke-width: 0.8"/>
      </g>
     </g>
     <g id="text_12">
      <!-- 40 -->
      <g transform="translate(48.725 185.181957) scale(0.22 -0.22)">
       <use xlink:href="#DejaVuSans-34"/>
       <use xlink:href="#DejaVuSans-30" x="63.623047"/>
      </g>
     </g>
    </g>
    <g id="ytick_6">
     <g id="line2d_12">
      <g>
       <use xlink:href="#mc4af3a9d3b" x="83.72" y="96.691701" style="stroke: #000000; stroke-width: 0.8"/>
      </g>
     </g>
     <g id="text_13">
      <!-- 50 -->
      <g transform="translate(48.725 105.049982) scale(0.22 -0.22)">
       <use xlink:href="#DejaVuSans-35"/>
       <use xlink:href="#DejaVuSans-30" x="63.623047"/>
      </g>
     </g>
    </g>
    <g id="text_14">
     <!-- Force Errors [kJ/(mol*A)] -->
     <g transform="translate(40.149688 394.9125) rotate(-90) scale(0.22 -0.22)">
      <defs>
       <path id="DejaVuSans-45" d="M 628 4666 
L 3578 4666 
L 3578 4134 
L 1259 4134 
L 1259 2753 
L 3481 2753 
L 3481 2222 
L 1259 2222 
L 1259 531 
L 3634 531 
L 3634 0 
L 628 0 
L 628 4666 
z
" transform="scale(0.015625)"/>
       <path id="DejaVuSans-5b" d="M 550 4863 
L 1875 4863 
L 1875 4416 
L 1125 4416 
L 1125 -397 
L 1875 -397 
L 1875 -844 
L 550 -844 
L 550 4863 
z
" transform="scale(0.015625)"/>
       <path id="DejaVuSans-6b" d="M 581 4863 
L 1159 4863 
L 1159 1991 
L 2875 3500 
L 3609 3500 
L 1753 1863 
L 3688 0 
L 2938 0 
L 1159 1709 
L 1159 0 
L 581 0 
L 581 4863 
z
" transform="scale(0.015625)"/>
       <path id="DejaVuSans-4a" d="M 628 4666 
L 1259 4666 
L 1259 325 
Q 1259 -519 939 -900 
Q 619 -1281 -91 -1281 
L -331 -1281 
L -331 -750 
L -134 -750 
Q 284 -750 456 -515 
Q 628 -281 628 325 
L 628 4666 
z
" transform="scale(0.015625)"/>
       <path id="DejaVuSans-2f" d="M 1625 4666 
L 2156 4666 
L 531 -594 
L 0 -594 
L 1625 4666 
z
" transform="scale(0.015625)"/>
       <path id="DejaVuSans-28" d="M 1984 4856 
Q 1566 4138 1362 3434 
Q 1159 2731 1159 2009 
Q 1159 1288 1364 580 
Q 1569 -128 1984 -844 
L 1484 -844 
Q 1016 -109 783 600 
Q 550 1309 550 2009 
Q 550 2706 781 3412 
Q 1013 4119 1484 4856 
L 1984 4856 
z
" transform="scale(0.015625)"/>
       <path id="DejaVuSans-6d" d="M 3328 2828 
Q 3544 3216 3844 3400 
Q 4144 3584 4550 3584 
Q 5097 3584 5394 3201 
Q 5691 2819 5691 2113 
L 5691 0 
L 5113 0 
L 5113 2094 
Q 5113 2597 4934 2840 
Q 4756 3084 4391 3084 
Q 3944 3084 3684 2787 
Q 3425 2491 3425 1978 
L 3425 0 
L 2847 0 
L 2847 2094 
Q 2847 2600 2669 2842 
Q 2491 3084 2119 3084 
Q 1678 3084 1418 2786 
Q 1159 2488 1159 1978 
L 1159 0 
L 581 0 
L 581 3500 
L 1159 3500 
L 1159 2956 
Q 1356 3278 1631 3431 
Q 1906 3584 2284 3584 
Q 2666 3584 2933 3390 
Q 3200 3197 3328 2828 
z
" transform="scale(0.015625)"/>
       <path id="DejaVuSans-6c" d="M 603 4863 
L 1178 4863 
L 1178 0 
L 603 0 
L 603 4863 
z
" transform="scale(0.015625)"/>
       <path id="DejaVuSans-2a" d="M 3009 3897 
L 1888 3291 
L 3009 2681 
L 2828 2375 
L 1778 3009 
L 1778 1831 
L 1422 1831 
L 1422 3009 
L 372 2375 
L 191 2681 
L 1313 3291 
L 191 3897 
L 372 4206 
L 1422 3572 
L 1422 4750 
L 1778 4750 
L 1778 3572 
L 2828 4206 
L 3009 3897 
z
" transform="scale(0.015625)"/>
       <path id="DejaVuSans-41" d="M 2188 4044 
L 1331 1722 
L 3047 1722 
L 2188 4044 
z
M 1831 4666 
L 2547 4666 
L 4325 0 
L 3669 0 
L 3244 1197 
L 1141 1197 
L 716 0 
L 50 0 
L 1831 4666 
z
" transform="scale(0.015625)"/>
       <path id="DejaVuSans-29" d="M 513 4856 
L 1013 4856 
Q 1481 4119 1714 3412 
Q 1947 2706 1947 2009 
Q 1947 1309 1714 600 
Q 1481 -109 1013 -844 
L 513 -844 
Q 928 -128 1133 580 
Q 1338 1288 1338 2009 
Q 1338 2731 1133 3434 
Q 928 4138 513 4856 
z
" transform="scale(0.015625)"/>
       <path id="DejaVuSans-5d" d="M 1947 4863 
L 1947 -844 
L 622 -844 
L 622 -397 
L 1369 -397 
L 1369 4416 
L 622 4416 
L 622 4863 
L 1947 4863 
z
" transform="scale(0.015625)"/>
      </defs>
      <use xlink:href="#DejaVuSans-46"/>
      <use xlink:href="#DejaVuSans-6f" x="53.894531"/>
      <use xlink:href="#DejaVuSans-72" x="115.076172"/>
      <use xlink:href="#DejaVuSans-63" x="153.939453"/>
      <use xlink:href="#DejaVuSans-65" x="208.919922"/>
      <use xlink:href="#DejaVuSans-20" x="270.443359"/>
      <use xlink:href="#DejaVuSans-45" x="302.230469"/>
      <use xlink:href="#DejaVuSans-72" x="365.414062"/>
      <use xlink:href="#DejaVuSans-72" x="404.777344"/>
      <use xlink:href="#DejaVuSans-6f" x="443.640625"/>
      <use xlink:href="#DejaVuSans-72" x="504.822266"/>
      <use xlink:href="#DejaVuSans-73" x="545.935547"/>
      <use xlink:href="#DejaVuSans-20" x="598.035156"/>
      <use xlink:href="#DejaVuSans-5b" x="629.822266"/>
      <use xlink:href="#DejaVuSans-6b" x="668.835938"/>
      <use xlink:href="#DejaVuSans-4a" x="726.746094"/>
      <use xlink:href="#DejaVuSans-2f" x="756.238281"/>
      <use xlink:href="#DejaVuSans-28" x="789.929688"/>
      <use xlink:href="#DejaVuSans-6d" x="828.943359"/>
      <use xlink:href="#DejaVuSans-6f" x="926.355469"/>
      <use xlink:href="#DejaVuSans-6c" x="987.537109"/>
      <use xlink:href="#DejaVuSans-2a" x="1015.320312"/>
      <use xlink:href="#DejaVuSans-41" x="1065.320312"/>
      <use xlink:href="#DejaVuSans-29" x="1133.728516"/>
      <use xlink:href="#DejaVuSans-5d" x="1172.742188"/>
     </g>
    </g>
   </g>
   <g id="line2d_13">
    <path d="M 83.72 499.48 
L 696.24 23.76 
" clip-path="url(#pd366c078fb)" style="fill: none; stroke-dasharray: 5.55,2.4; stroke-dashoffset: 0; stroke: #ff0000; stroke-width: 1.5"/>
   </g>
   <g id="patch_3">
    <path d="M 83.72 499.48 
L 83.72 23.76 
" style="fill: none; stroke: #000000; stroke-width: 0.8; stroke-linejoin: miter; stroke-linecap: square"/>
   </g>
   <g id="patch_4">
    <path d="M 696.24 499.48 
L 696.24 23.76 
" style="fill: none; stroke: #000000; stroke-width: 0.8; stroke-linejoin: miter; stroke-linecap: square"/>
   </g>
   <g id="patch_5">
    <path d="M 83.72 499.48 
L 696.24 499.48 
" style="fill: none; stroke: #000000; stroke-width: 0.8; stroke-linejoin: miter; stroke-linecap: square"/>
   </g>
   <g id="patch_6">
    <path d="M 83.72 23.76 
L 696.24 23.76 
" style="fill: none; stroke: #000000; stroke-width: 0.8; stroke-linejoin: miter; stroke-linecap: square"/>
   </g>
   <g id="text_15">
    <!-- Correlation in: 0.897 -->
    <g transform="translate(144.972 71.332) scale(0.22 -0.22)">
     <defs>
      <path id="DejaVuSans-43" d="M 4122 4306 
L 4122 3641 
Q 3803 3938 3442 4084 
Q 3081 4231 2675 4231 
Q 1875 4231 1450 3742 
Q 1025 3253 1025 2328 
Q 1025 1406 1450 917 
Q 1875 428 2675 428 
Q 3081 428 3442 575 
Q 3803 722 4122 1019 
L 4122 359 
Q 3791 134 3420 21 
Q 3050 -91 2638 -91 
Q 1578 -91 968 557 
Q 359 1206 359 2328 
Q 359 3453 968 4101 
Q 1578 4750 2638 4750 
Q 3056 4750 3426 4639 
Q 3797 4528 4122 4306 
z
" transform="scale(0.015625)"/>
      <path id="DejaVuSans-3a" d="M 750 794 
L 1409 794 
L 1409 0 
L 750 0 
L 750 794 
z
M 750 3309 
L 1409 3309 
L 1409 2516 
L 750 2516 
L 750 3309 
z
" transform="scale(0.015625)"/>
      <path id="DejaVuSans-2e" d="M 684 794 
L 1344 794 
L 1344 0 
L 684 0 
L 684 794 
z
" transform="scale(0.015625)"/>
      <path id="DejaVuSans-38" d="M 2034 2216 
Q 1584 2216 1326 1975 
Q 1069 1734 1069 1313 
Q 1069 891 1326 650 
Q 1584 409 2034 409 
Q 2484 409 2743 651 
Q 3003 894 3003 1313 
Q 3003 1734 2745 1975 
Q 2488 2216 2034 2216 
z
M 1403 2484 
Q 997 2584 770 2862 
Q 544 3141 544 3541 
Q 544 4100 942 4425 
Q 1341 4750 2034 4750 
Q 2731 4750 3128 4425 
Q 3525 4100 3525 3541 
Q 3525 3141 3298 2862 
Q 3072 2584 2669 2484 
Q 3125 2378 3379 2068 
Q 3634 1759 3634 1313 
Q 3634 634 3220 271 
Q 2806 -91 2034 -91 
Q 1263 -91 848 271 
Q 434 634 434 1313 
Q 434 1759 690 2068 
Q 947 2378 1403 2484 
z
M 1172 3481 
Q 1172 3119 1398 2916 
Q 1625 2713 2034 2713 
Q 2441 2713 2670 2916 
Q 2900 3119 2900 3481 
Q 2900 3844 2670 4047 
Q 2441 4250 2034 4250 
Q 1625 4250 1398 4047 
Q 1172 3844 1172 3481 
z
" transform="scale(0.015625)"/>
      <path id="DejaVuSans-39" d="M 703 97 
L 703 672 
Q 941 559 1184 500 
Q 1428 441 1663 441 
Q 2288 441 2617 861 
Q 2947 1281 2994 2138 
Q 2813 1869 2534 1725 
Q 2256 1581 1919 1581 
Q 1219 1581 811 2004 
Q 403 2428 403 3163 
Q 403 3881 828 4315 
Q 1253 4750 1959 4750 
Q 2769 4750 3195 4129 
Q 3622 3509 3622 2328 
Q 3622 1225 3098 567 
Q 2575 -91 1691 -91 
Q 1453 -91 1209 -44 
Q 966 3 703 97 
z
M 1959 2075 
Q 2384 2075 2632 2365 
Q 2881 2656 2881 3163 
Q 2881 3666 2632 3958 
Q 2384 4250 1959 4250 
Q 1534 4250 1286 3958 
Q 1038 3666 1038 3163 
Q 1038 2656 1286 2365 
Q 1534 2075 1959 2075 
z
" transform="scale(0.015625)"/>
      <path id="DejaVuSans-37" d="M 525 4666 
L 3525 4666 
L 3525 4397 
L 1831 0 
L 1172 0 
L 2766 4134 
L 525 4134 
L 525 4666 
z
" transform="scale(0.015625)"/>
     </defs>
     <use xlink:href="#DejaVuSans-43"/>
     <use xlink:href="#DejaVuSans-6f" x="69.824219"/>
     <use xlink:href="#DejaVuSans-72" x="131.005859"/>
     <use xlink:href="#DejaVuSans-72" x="170.369141"/>
     <use xlink:href="#DejaVuSans-65" x="209.232422"/>
     <use xlink:href="#DejaVuSans-6c" x="270.755859"/>
     <use xlink:href="#DejaVuSans-61" x="298.539062"/>
     <use xlink:href="#DejaVuSans-74" x="359.818359"/>
     <use xlink:href="#DejaVuSans-69" x="399.027344"/>
     <use xlink:href="#DejaVuSans-6f" x="426.810547"/>
     <use xlink:href="#DejaVuSans-6e" x="487.992188"/>
     <use xlink:href="#DejaVuSans-20" x="551.371094"/>
     <use xlink:href="#DejaVuSans-69" x="583.158203"/>
     <use xlink:href="#DejaVuSans-6e" x="610.941406"/>
     <use xlink:href="#DejaVuSans-3a" x="674.320312"/>
     <use xlink:href="#DejaVuSans-20" x="708.011719"/>
     <use xlink:href="#DejaVuSans-30" x="739.798828"/>
     <use xlink:href="#DejaVuSans-2e" x="803.421875"/>
     <use xlink:href="#DejaVuSans-38" x="835.208984"/>
     <use xlink:href="#DejaVuSans-39" x="898.832031"/>
     <use xlink:href="#DejaVuSans-37" x="962.455078"/>
    </g>
   </g>
  </g>
 </g>
 <defs>
  <clipPath id="pd366c078fb">
   <rect x="83.72" y="23.76" width="612.52" height="475.72"/>
  </clipPath>
 </defs>
</svg>
