<?xml version="1.0" encoding="utf-8" standalone="no"?>
<!DOCTYPE svg PUBLIC "-//W3C//DTD SVG 1.1//EN"
  "http://www.w3.org/Graphics/SVG/1.1/DTD/svg11.dtd">
<svg xmlns:xlink="http://www.w3.org/1999/xlink" width="720pt" height="576pt" viewBox="0 0 720 576" xmlns="http://www.w3.org/2000/svg" version="1.1">
 <metadata>
  <rdf:RDF xmlns:dc="http://purl.org/dc/elements/1.1/" xmlns:cc="http://creativecommons.org/ns#" xmlns:rdf="http://www.w3.org/1999/02/22-rdf-syntax-ns#">
   <cc:Work>
    <dc:type rdf:resource="http://purl.org/dc/dcmitype/StillImage"/>
    <dc:date>2024-12-07T15:47:35.827296</dc:date>
    <dc:format>image/svg+xml</dc:format>
    <dc:creator>
     <cc:Agent>
      <dc:title>Matplotlib v3.8.4, https://matplotlib.org/</dc:title>
     </cc:Agent>
    </dc:creator>
   </cc:Work>
  </rdf:RDF>
 </metadata>
 <defs>
  <style type="text/css">*{stroke-linejoin: round; stroke-linecap: butt}</style>
 </defs>
 <g id="figure_1">
  <g id="patch_1">
   <path d="M 0 576 
L 720 576 
L 720 0 
L 0 0 
z
" style="fill: #ffffff"/>
  </g>
  <g id="axes_1">
   <g id="patch_2">
    <path d="M 83.72 499.48 
L 696.24 499.48 
L 696.24 23.76 
L 83.72 23.76 
z
" style="fill: #ffffff"/>
   </g>
   <g id="QuadContourSet_1">
    <path d="M 96.045268 497.907121 
L 99.299073 497.867313 
L 102.552877 497.508836 
L 102.632386 497.494433 
L 105.806681 497.145975 
L 109.060486 496.642894 
L 112.31429 495.943696 
L 115.568095 494.975641 
L 115.83461 494.890589 
L 118.821899 494.256022 
L 122.075704 493.358154 
L 125.091741 492.286746 
L 125.329508 492.226031 
L 128.583313 491.357121 
L 131.837117 490.238274 
L 133.361549 489.682902 
L 135.090922 489.186361 
L 138.344726 488.155924 
L 141.22998 487.079059 
L 141.598531 486.963512 
L 144.852335 485.834579 
L 147.867118 484.475215 
L 148.10614 484.380618 
L 151.359944 482.878553 
L 153.096867 481.871372 
L 154.613749 481.066186 
L 157.43322 479.267528 
L 157.867553 478.997989 
L 161.121358 476.706098 
L 161.177183 476.663684 
L 164.375162 474.150955 
L 164.485902 474.059841 
L 167.409307 471.455997 
L 167.628967 471.228719 
L 170.016965 468.852154 
L 170.882771 467.779189 
L 172.246425 466.24831 
L 173.987894 463.644466 
L 174.136576 463.298616 
L 175.289161 461.040623 
L 175.722782 458.436779 
L 174.760572 455.832936 
L 174.136576 454.935261 
L 173.352107 453.229092 
L 172.910031 450.625249 
L 172.640153 448.021405 
L 171.735665 445.417561 
L 170.882771 444.44004 
L 168.946653 442.813718 
L 167.628967 442.165411 
L 164.375162 441.159359 
L 161.121358 440.581087 
L 158.650967 440.209874 
L 157.867553 440.044255 
L 154.613749 439.399712 
L 151.359944 438.927387 
L 148.10614 438.511013 
L 144.852335 438.0866 
L 141.598531 437.951437 
L 138.344726 438.35071 
L 135.090922 439.227726 
L 132.747765 440.209874 
L 131.837117 440.48089 
L 128.583313 441.648524 
L 126.086225 442.813718 
L 125.329508 443.083346 
L 122.075704 444.282246 
L 119.688735 445.417561 
L 118.821899 445.745955 
L 115.568095 447.2368 
L 114.260141 448.021405 
L 112.31429 449.006364 
L 109.939633 450.625249 
L 109.060486 451.159378 
L 106.306578 453.229092 
L 105.806681 453.58369 
L 103.03121 455.832936 
L 102.552877 456.221254 
L 99.978621 458.436779 
L 99.299073 459.059879 
L 97.112089 461.040623 
L 96.045268 462.138071 
L 94.459891 463.644466 
L 92.791464 465.570377 
L 92.113965 466.24831 
L 89.923782 468.852154 
L 89.537659 469.420598 
L 87.803866 471.455997 
L 86.307149 474.059841 
L 86.283855 474.107406 
L 84.569313 476.663684 
L 83.456378 479.267528 
L 83.03005 480.660952 
L 82.476985 481.871372 
L 81.735388 484.475215 
L 81.480513 487.079059 
L 81.831548 489.682902 
L 83.03005 492.019047 
L 83.184457 492.286746 
L 86.116724 494.890589 
L 86.283855 494.998749 
L 89.537659 496.646956 
L 92.791464 497.494433 
L 92.791464 497.494433 
z
M 94.147354 489.682902 
L 92.791464 488.660706 
L 91.263582 487.079059 
L 90.144975 484.475215 
L 90.034309 481.871372 
L 90.538698 479.267528 
L 91.537019 476.663684 
L 92.791464 474.564397 
L 93.032386 474.059841 
L 94.655397 471.455997 
L 96.045268 469.800051 
L 96.736903 468.852154 
L 99.139861 466.24831 
L 99.299073 466.092481 
L 101.66708 463.644466 
L 102.552877 462.84918 
L 104.58484 461.040623 
L 105.806681 460.034917 
L 107.889342 458.436779 
L 109.060486 457.554891 
L 111.660901 455.832936 
L 112.31429 455.38392 
L 115.568095 453.437831 
L 115.965696 453.229092 
L 118.821899 451.56935 
L 120.876939 450.625249 
L 122.075704 449.985088 
L 125.329508 448.564574 
L 126.949354 448.021405 
L 128.583313 447.335045 
L 131.837117 446.394468 
L 135.090922 445.872038 
L 138.344726 445.706304 
L 141.598531 445.705381 
L 144.852335 445.759621 
L 148.10614 445.918304 
L 151.359944 446.250012 
L 154.613749 446.781061 
L 157.867553 447.678017 
L 158.628827 448.021405 
L 161.121358 450.041328 
L 161.570718 450.625249 
L 162.240757 453.229092 
L 162.035 455.832936 
L 161.309478 458.436779 
L 161.121358 458.927899 
L 160.489769 461.040623 
L 159.474861 463.644466 
L 157.935785 466.24831 
L 157.867553 466.349441 
L 156.408954 468.852154 
L 154.613749 470.745665 
L 153.999689 471.455997 
L 151.359944 473.66167 
L 150.899835 474.059841 
L 148.10614 476.019805 
L 147.166143 476.663684 
L 144.852335 478.075576 
L 142.728361 479.267528 
L 141.598531 479.881119 
L 138.344726 481.544405 
L 137.657229 481.871372 
L 135.090922 483.177453 
L 131.87299 484.475215 
L 131.837117 484.491775 
L 128.583313 485.983016 
L 125.329508 487.079059 
L 125.329508 487.079059 
L 122.075704 488.397936 
L 118.821899 489.359624 
L 117.487013 489.682902 
L 115.568095 490.314294 
L 112.31429 491.111734 
L 109.060486 491.656464 
L 105.806681 491.99064 
L 102.552877 492.07474 
L 99.299073 491.740963 
L 96.045268 490.716971 
z
" clip-path="url(#p6b7da18b99)" style="fill: #eef5fc"/>
    <path d="M 96.045268 490.716971 
L 99.299073 491.740963 
L 102.552877 492.07474 
L 105.806681 491.99064 
L 109.060486 491.656464 
L 112.31429 491.111734 
L 115.568095 490.314294 
L 117.487013 489.682902 
L 118.821899 489.359624 
L 122.075704 488.397936 
L 125.329508 487.079059 
L 125.329508 487.079059 
L 128.583313 485.983016 
L 131.837117 484.491775 
L 131.87299 484.475215 
L 135.090922 483.177453 
L 137.657229 481.871372 
L 138.344726 481.544405 
L 141.598531 479.881119 
L 142.728361 479.267528 
L 144.852335 478.075576 
L 147.166143 476.663684 
L 148.10614 476.019805 
L 150.899835 474.059841 
L 151.359944 473.66167 
L 153.999689 471.455997 
L 154.613749 470.745665 
L 156.408954 468.852154 
L 157.867553 466.349441 
L 157.935785 466.24831 
L 159.474861 463.644466 
L 160.489769 461.040623 
L 161.121358 458.927899 
L 161.309478 458.436779 
L 162.035 455.832936 
L 162.240757 453.229092 
L 161.570718 450.625249 
L 161.121358 450.041328 
L 158.628827 448.021405 
L 157.867553 447.678017 
L 154.613749 446.781061 
L 151.359944 446.250012 
L 148.10614 445.918304 
L 144.852335 445.759621 
L 141.598531 445.705381 
L 138.344726 445.706304 
L 135.090922 445.872038 
L 131.837117 446.394468 
L 128.583313 447.335045 
L 126.949354 448.021405 
L 125.329508 448.564574 
L 122.075704 449.985088 
L 120.876939 450.625249 
L 118.821899 451.56935 
L 115.965696 453.229092 
L 115.568095 453.437831 
L 112.31429 455.38392 
L 111.660901 455.832936 
L 109.060486 457.554891 
L 107.889342 458.436779 
L 105.806681 460.034917 
L 104.58484 461.040623 
L 102.552877 462.84918 
L 101.66708 463.644466 
L 99.299073 466.092481 
L 99.139861 466.24831 
L 96.736903 468.852154 
L 96.045268 469.800051 
L 94.655397 471.455997 
L 93.032386 474.059841 
L 92.791464 474.564397 
L 91.537019 476.663684 
L 90.538698 479.267528 
L 90.034309 481.871372 
L 90.144975 484.475215 
L 91.263582 487.079059 
L 92.791464 488.660706 
L 94.147354 489.682902 
z
M 100.077922 487.079059 
L 99.299073 486.652454 
L 96.733327 484.475215 
L 96.045268 483.197125 
L 95.465473 481.871372 
L 95.355799 479.267528 
L 96.045268 476.663684 
L 96.045268 476.663684 
L 97.16429 474.059841 
L 98.816005 471.455997 
L 99.299073 470.864663 
L 100.788295 468.852154 
L 102.552877 466.974175 
L 103.209085 466.24831 
L 105.806681 463.827992 
L 106.007568 463.644466 
L 109.060486 461.140015 
L 109.191179 461.040623 
L 112.31429 458.773505 
L 112.842235 458.436779 
L 115.568095 456.677192 
L 117.135091 455.832936 
L 118.821899 454.859941 
L 122.075704 453.355184 
L 122.422737 453.229092 
L 125.329508 452.002097 
L 128.583313 451.048921 
L 130.958946 450.625249 
L 131.837117 450.428286 
L 135.090922 450.020706 
L 138.344726 449.793108 
L 141.598531 449.695157 
L 144.852335 449.774046 
L 148.10614 450.101027 
L 150.766976 450.625249 
L 151.359944 450.753442 
L 154.613749 452.285123 
L 155.598996 453.229092 
L 156.413648 455.832936 
L 156.093235 458.436779 
L 155.09955 461.040623 
L 154.613749 461.881772 
L 153.765007 463.644466 
L 151.981201 466.24831 
L 151.359944 466.96952 
L 149.876481 468.852154 
L 148.10614 470.568532 
L 147.221437 471.455997 
L 144.852335 473.418686 
L 144.061566 474.059841 
L 141.598531 475.833922 
L 140.353371 476.663684 
L 138.344726 477.938732 
L 135.949554 479.267528 
L 135.090922 479.753074 
L 131.837117 481.428057 
L 130.850925 481.871372 
L 128.583313 482.997994 
L 125.329508 484.281752 
L 124.769483 484.475215 
L 122.075704 485.586873 
L 118.821899 486.58959 
L 116.751498 487.079059 
L 115.568095 487.43746 
L 112.31429 488.130026 
L 109.060486 488.519502 
L 105.806681 488.558325 
L 102.552877 488.051523 
z
" clip-path="url(#p6b7da18b99)" style="fill: #d9e8f5"/>
    <path d="M 102.552877 488.051523 
L 105.806681 488.558325 
L 109.060486 488.519502 
L 112.31429 488.130026 
L 115.568095 487.43746 
L 116.751498 487.079059 
L 118.821899 486.58959 
L 122.075704 485.586873 
L 124.769483 484.475215 
L 125.329508 484.281752 
L 128.583313 482.997994 
L 130.850925 481.871372 
L 131.837117 481.428057 
L 135.090922 479.753074 
L 135.949554 479.267528 
L 138.344726 477.938732 
L 140.353371 476.663684 
L 141.598531 475.833922 
L 144.061566 474.059841 
L 144.852335 473.418686 
L 147.221437 471.455997 
L 148.10614 470.568532 
L 149.876481 468.852154 
L 151.359944 466.96952 
L 151.981201 466.24831 
L 153.765007 463.644466 
L 154.613749 461.881772 
L 155.09955 461.040623 
L 156.093235 458.436779 
L 156.413648 455.832936 
L 155.598996 453.229092 
L 154.613749 452.285123 
L 151.359944 450.753442 
L 150.766976 450.625249 
L 148.10614 450.101027 
L 144.852335 449.774046 
L 141.598531 449.695157 
L 138.344726 449.793108 
L 135.090922 450.020706 
L 131.837117 450.428286 
L 130.958946 450.625249 
L 128.583313 451.048921 
L 125.329508 452.002097 
L 122.422737 453.229092 
L 122.075704 453.355184 
L 118.821899 454.859941 
L 117.135091 455.832936 
L 115.568095 456.677192 
L 112.842235 458.436779 
L 112.31429 458.773505 
L 109.191179 461.040623 
L 109.060486 461.140015 
L 106.007568 463.644466 
L 105.806681 463.827992 
L 103.209085 466.24831 
L 102.552877 466.974175 
L 100.788295 468.852154 
L 99.299073 470.864663 
L 98.816005 471.455997 
L 97.16429 474.059841 
L 96.045268 476.663684 
L 96.045268 476.663684 
L 95.355799 479.267528 
L 95.465473 481.871372 
L 96.045268 483.197125 
L 96.733327 484.475215 
L 99.299073 486.652454 
L 100.077922 487.079059 
z
M 103.317957 484.475215 
L 102.552877 483.991639 
L 100.385221 481.871372 
L 99.443438 479.267528 
L 99.627257 476.663684 
L 100.533992 474.059841 
L 102.042912 471.455997 
L 102.552877 470.810919 
L 104.006752 468.852154 
L 105.806681 466.949162 
L 106.467876 466.24831 
L 109.060486 463.925913 
L 109.393224 463.644466 
L 112.31429 461.405641 
L 112.849683 461.040623 
L 115.568095 459.24621 
L 117.032031 458.436779 
L 118.821899 457.415967 
L 122.075704 455.947018 
L 122.409143 455.832936 
L 125.329508 454.716849 
L 128.583313 453.867102 
L 131.837117 453.326388 
L 132.708018 453.229092 
L 135.090922 452.910282 
L 138.344726 452.644206 
L 141.598531 452.587687 
L 144.852335 452.822285 
L 146.992136 453.229092 
L 148.10614 453.489035 
L 151.359944 455.459371 
L 151.676304 455.832936 
L 152.181324 458.436779 
L 151.490944 461.040623 
L 151.359944 461.275558 
L 150.248194 463.644466 
L 148.394252 466.24831 
L 148.10614 466.570357 
L 146.212905 468.852154 
L 144.852335 470.131931 
L 143.47357 471.455997 
L 141.598531 472.970432 
L 140.201811 474.059841 
L 138.344726 475.367911 
L 136.328483 476.663684 
L 135.090922 477.433067 
L 131.837117 479.195097 
L 131.692142 479.267528 
L 128.583313 480.893178 
L 126.222804 481.871372 
L 125.329508 482.285535 
L 122.075704 483.534681 
L 118.821899 484.475215 
L 118.821899 484.475215 
L 115.568095 485.311801 
L 112.31429 485.809381 
L 109.060486 485.932489 
L 105.806681 485.477025 
z
" clip-path="url(#p6b7da18b99)" style="fill: #c3daee"/>
    <path d="M 105.806681 485.477025 
L 109.060486 485.932489 
L 112.31429 485.809381 
L 115.568095 485.311801 
L 118.821899 484.475215 
L 118.821899 484.475215 
L 122.075704 483.534681 
L 125.329508 482.285535 
L 126.222804 481.871372 
L 128.583313 480.893178 
L 131.692142 479.267528 
L 131.837117 479.195097 
L 135.090922 477.433067 
L 136.328483 476.663684 
L 138.344726 475.367911 
L 140.201811 474.059841 
L 141.598531 472.970432 
L 143.47357 471.455997 
L 144.852335 470.131931 
L 146.212905 468.852154 
L 148.10614 466.570357 
L 148.394252 466.24831 
L 150.248194 463.644466 
L 151.359944 461.275558 
L 151.490944 461.040623 
L 152.181324 458.436779 
L 151.676304 455.832936 
L 151.359944 455.459371 
L 148.10614 453.489035 
L 146.992136 453.229092 
L 144.852335 452.822285 
L 141.598531 452.587687 
L 138.344726 452.644206 
L 135.090922 452.910282 
L 132.708018 453.229092 
L 131.837117 453.326388 
L 128.583313 453.867102 
L 125.329508 454.716849 
L 122.409143 455.832936 
L 122.075704 455.947018 
L 118.821899 457.415967 
L 117.032031 458.436779 
L 115.568095 459.24621 
L 112.849683 461.040623 
L 112.31429 461.405641 
L 109.393224 463.644466 
L 109.060486 463.925913 
L 106.467876 466.24831 
L 105.806681 466.949162 
L 104.006752 468.852154 
L 102.552877 470.810919 
L 102.042912 471.455997 
L 100.533992 474.059841 
L 99.627257 476.663684 
L 99.443438 479.267528 
L 100.385221 481.871372 
L 102.552877 483.991639 
L 103.317957 484.475215 
z
M 105.806681 481.871372 
L 105.806681 481.871372 
L 103.655498 479.267528 
L 103.192274 476.663684 
L 103.780222 474.059841 
L 105.111353 471.455997 
L 105.806681 470.545016 
L 107.063506 468.852154 
L 109.060486 466.779291 
L 109.590978 466.24831 
L 112.31429 463.955853 
L 112.723814 463.644466 
L 115.568095 461.67659 
L 116.656896 461.040623 
L 118.821899 459.80317 
L 121.863215 458.436779 
L 122.075704 458.336778 
L 125.329508 457.166588 
L 128.583313 456.347287 
L 131.517493 455.832936 
L 131.837117 455.770096 
L 135.090922 455.319668 
L 138.344726 455.105277 
L 141.598531 455.209646 
L 144.852335 455.79318 
L 144.962724 455.832936 
L 148.10614 458.173533 
L 148.274428 458.436779 
L 148.297456 461.040623 
L 148.10614 461.456579 
L 147.245646 463.644466 
L 145.539192 466.24831 
L 144.852335 467.009429 
L 143.289648 468.852154 
L 141.598531 470.411683 
L 140.472191 471.455997 
L 138.344726 473.125437 
L 137.089706 474.059841 
L 135.090922 475.415762 
L 133.034137 476.663684 
L 131.837117 477.373716 
L 128.583313 479.032115 
L 128.047686 479.267528 
L 125.329508 480.520363 
L 122.075704 481.681406 
L 121.383604 481.871372 
L 118.821899 482.655496 
L 115.568095 483.297945 
L 112.31429 483.562335 
L 109.060486 483.238391 
z
" clip-path="url(#p6b7da18b99)" style="fill: #9dcae1"/>
    <path d="M 109.060486 483.238391 
L 112.31429 483.562335 
L 115.568095 483.297945 
L 118.821899 482.655496 
L 121.383604 481.871372 
L 122.075704 481.681406 
L 125.329508 480.520363 
L 128.047686 479.267528 
L 128.583313 479.032115 
L 131.837117 477.373716 
L 133.034137 476.663684 
L 135.090922 475.415762 
L 137.089706 474.059841 
L 138.344726 473.125437 
L 140.472191 471.455997 
L 141.598531 470.411683 
L 143.289648 468.852154 
L 144.852335 467.009429 
L 145.539192 466.24831 
L 147.245646 463.644466 
L 148.10614 461.456579 
L 148.297456 461.040623 
L 148.274428 458.436779 
L 148.10614 458.173533 
L 144.962724 455.832936 
L 144.852335 455.79318 
L 141.598531 455.209646 
L 138.344726 455.105277 
L 135.090922 455.319668 
L 131.837117 455.770096 
L 131.517493 455.832936 
L 128.583313 456.347287 
L 125.329508 457.166588 
L 122.075704 458.336778 
L 121.863215 458.436779 
L 118.821899 459.80317 
L 116.656896 461.040623 
L 115.568095 461.67659 
L 112.723814 463.644466 
L 112.31429 463.955853 
L 109.590978 466.24831 
L 109.060486 466.779291 
L 107.063506 468.852154 
L 105.806681 470.545016 
L 105.111353 471.455997 
L 103.780222 474.059841 
L 103.192274 476.663684 
L 103.655498 479.267528 
L 105.806681 481.871372 
L 105.806681 481.871372 
z
M 107.422487 479.267528 
L 106.230828 476.663684 
L 106.463788 474.059841 
L 107.635113 471.455997 
L 109.060486 469.515957 
L 109.552847 468.852154 
L 112.160131 466.24831 
L 112.31429 466.11854 
L 115.568095 463.644466 
L 115.568095 463.644466 
L 118.821899 461.714456 
L 120.239169 461.040623 
L 122.075704 460.187529 
L 125.329508 459.041281 
L 127.659676 458.436779 
L 128.583313 458.186427 
L 131.837117 457.537423 
L 135.090922 457.13721 
L 138.344726 457.044414 
L 141.598531 457.43837 
L 144.13123 458.436779 
L 144.852335 459.265615 
L 145.583811 461.040623 
L 144.95467 463.644466 
L 144.852335 463.798973 
L 143.383273 466.24831 
L 141.598531 468.293011 
L 141.130099 468.852154 
L 138.344726 471.39647 
L 138.278377 471.455997 
L 135.090922 473.850073 
L 134.789056 474.059841 
L 131.837117 475.920425 
L 130.483136 476.663684 
L 128.583313 477.682667 
L 125.329508 479.115146 
L 124.899172 479.267528 
L 122.075704 480.304075 
L 118.821899 481.154291 
L 115.568095 481.671434 
L 112.31429 481.662067 
L 109.060486 480.556568 
z
" clip-path="url(#p6b7da18b99)" style="fill: #71b1d7"/>
    <path d="M 109.060486 480.556568 
L 112.31429 481.662067 
L 115.568095 481.671434 
L 118.821899 481.154291 
L 122.075704 480.304075 
L 124.899172 479.267528 
L 125.329508 479.115146 
L 128.583313 477.682667 
L 130.483136 476.663684 
L 131.837117 475.920425 
L 134.789056 474.059841 
L 135.090922 473.850073 
L 138.278377 471.455997 
L 138.344726 471.39647 
L 141.130099 468.852154 
L 141.598531 468.293011 
L 143.383273 466.24831 
L 144.852335 463.798973 
L 144.95467 463.644466 
L 145.583811 461.040623 
L 144.852335 459.265615 
L 144.13123 458.436779 
L 141.598531 457.43837 
L 138.344726 457.044414 
L 135.090922 457.13721 
L 131.837117 457.537423 
L 128.583313 458.186427 
L 127.659676 458.436779 
L 125.329508 459.041281 
L 122.075704 460.187529 
L 120.239169 461.040623 
L 118.821899 461.714456 
L 115.568095 463.644466 
L 115.568095 463.644466 
L 112.31429 466.11854 
L 112.160131 466.24831 
L 109.552847 468.852154 
L 109.060486 469.515957 
L 107.635113 471.455997 
L 106.463788 474.059841 
L 106.230828 476.663684 
L 107.422487 479.267528 
z
M 114.026359 479.267528 
L 112.31429 478.651513 
L 110.32746 476.663684 
L 109.953497 474.059841 
L 110.87391 471.455997 
L 112.31429 469.435126 
L 112.747563 468.852154 
L 115.557683 466.24831 
L 115.568095 466.240379 
L 118.821899 464.095147 
L 119.641054 463.644466 
L 122.075704 462.460148 
L 125.329508 461.227654 
L 125.963454 461.040623 
L 128.583313 460.29917 
L 131.837117 459.666161 
L 135.090922 459.364756 
L 138.344726 459.594287 
L 141.598531 461.040623 
L 141.598531 461.040623 
L 142.006655 463.644466 
L 141.598531 464.451983 
L 140.756074 466.24831 
L 138.656239 468.852154 
L 138.344726 469.136706 
L 135.759646 471.455997 
L 135.090922 471.958271 
L 132.066668 474.059841 
L 131.837117 474.204525 
L 128.583313 475.988951 
L 127.128939 476.663684 
L 125.329508 477.464632 
L 122.075704 478.561082 
L 119.09876 479.267528 
L 118.821899 479.334262 
L 115.568095 479.53525 
z
" clip-path="url(#p6b7da18b99)" style="fill: #4a98c9"/>
    <path d="M 115.568095 479.53525 
L 118.821899 479.334262 
L 119.09876 479.267528 
L 122.075704 478.561082 
L 125.329508 477.464632 
L 127.128939 476.663684 
L 128.583313 475.988951 
L 131.837117 474.204525 
L 132.066668 474.059841 
L 135.090922 471.958271 
L 135.759646 471.455997 
L 138.344726 469.136706 
L 138.656239 468.852154 
L 140.756074 466.24831 
L 141.598531 464.451983 
L 142.006655 463.644466 
L 141.598531 461.040623 
L 141.598531 461.040623 
L 138.344726 459.594287 
L 135.090922 459.364756 
L 131.837117 459.666161 
L 128.583313 460.29917 
L 125.963454 461.040623 
L 125.329508 461.227654 
L 122.075704 462.460148 
L 119.641054 463.644466 
L 118.821899 464.095147 
L 115.568095 466.240379 
L 115.557683 466.24831 
L 112.747563 468.852154 
L 112.31429 469.435126 
L 110.87391 471.455997 
L 109.953497 474.059841 
L 110.32746 476.663684 
L 112.31429 478.651513 
L 114.026359 479.267528 
z
M 114.831286 476.663684 
L 113.353725 474.059841 
L 113.977345 471.455997 
L 115.568095 469.213659 
L 115.841916 468.852154 
L 118.821899 466.377067 
L 118.999106 466.24831 
L 122.075704 464.541247 
L 124.061029 463.644466 
L 125.329508 463.147096 
L 128.583313 462.190949 
L 131.837117 461.584205 
L 135.090922 461.509655 
L 138.344726 462.963959 
L 138.827325 463.644466 
L 138.344726 466.24831 
L 138.344726 466.24831 
L 136.309314 468.852154 
L 135.090922 469.95478 
L 133.355581 471.455997 
L 131.837117 472.506106 
L 129.339573 474.059841 
L 128.583313 474.474497 
L 125.329508 475.900355 
L 123.088586 476.663684 
L 122.075704 476.983651 
L 118.821899 477.442035 
L 115.568095 477.036681 
z
" clip-path="url(#p6b7da18b99)" style="fill: #2a7ab9"/>
    <path d="M 115.568095 477.036681 
L 118.821899 477.442035 
L 122.075704 476.983651 
L 123.088586 476.663684 
L 125.329508 475.900355 
L 128.583313 474.474497 
L 129.339573 474.059841 
L 131.837117 472.506106 
L 133.355581 471.455997 
L 135.090922 469.95478 
L 136.309314 468.852154 
L 138.344726 466.24831 
L 138.344726 466.24831 
L 138.827325 463.644466 
L 138.344726 462.963959 
L 135.090922 461.509655 
L 131.837117 461.584205 
L 128.583313 462.190949 
L 125.329508 463.147096 
L 124.061029 463.644466 
L 122.075704 464.541247 
L 118.999106 466.24831 
L 118.821899 466.377067 
L 115.841916 468.852154 
L 115.568095 469.213659 
L 113.977345 471.455997 
L 113.353725 474.059841 
L 114.831286 476.663684 
z
M 117.894487 474.059841 
L 117.679116 471.455997 
L 118.821899 469.836831 
L 119.588891 468.852154 
L 122.075704 467.056307 
L 123.407845 466.24831 
L 125.329508 465.392959 
L 128.583313 464.378391 
L 131.837117 463.938811 
L 135.090922 466.24831 
L 133.419933 468.852154 
L 131.837117 470.254121 
L 130.364337 471.455997 
L 128.583313 472.503929 
L 125.51823 474.059841 
L 125.329508 474.139579 
L 122.075704 474.864422 
L 118.821899 474.633307 
z
" clip-path="url(#p6b7da18b99)" style="fill: #125da6"/>
    <path d="M 118.821899 474.633307 
L 122.075704 474.864422 
L 125.329508 474.139579 
L 125.51823 474.059841 
L 128.583313 472.503929 
L 130.364337 471.455997 
L 131.837117 470.254121 
L 133.419933 468.852154 
L 135.090922 466.24831 
L 131.837117 463.938811 
L 128.583313 464.378391 
L 125.329508 465.392959 
L 123.407845 466.24831 
L 122.075704 467.056307 
L 119.588891 468.852154 
L 118.821899 469.836831 
L 117.679116 471.455997 
L 117.894487 474.059841 
z
" clip-path="url(#p6b7da18b99)" style="fill: #083e81"/>
   </g>
   <g id="matplotlib.axis_1">
    <g id="xtick_1">
     <g id="line2d_1">
      <defs>
       <path id="md522bfa81e" d="M 0 0 
L 0 3.5 
" style="stroke: #000000; stroke-width: 0.8"/>
      </defs>
      <g>
       <use xlink:href="#md522bfa81e" x="95.584422" y="499.48" style="stroke: #000000; stroke-width: 0.8"/>
      </g>
     </g>
     <g id="text_1">
      <!-- 0 -->
      <g transform="translate(88.585672 523.196563) scale(0.22 -0.22)">
       <defs>
        <path id="DejaVuSans-30" d="M 2034 4250 
Q 1547 4250 1301 3770 
Q 1056 3291 1056 2328 
Q 1056 1369 1301 889 
Q 1547 409 2034 409 
Q 2525 409 2770 889 
Q 3016 1369 3016 2328 
Q 3016 3291 2770 3770 
Q 2525 4250 2034 4250 
z
M 2034 4750 
Q 2819 4750 3233 4129 
Q 3647 3509 3647 2328 
Q 3647 1150 3233 529 
Q 2819 -91 2034 -91 
Q 1250 -91 836 529 
Q 422 1150 422 2328 
Q 422 3509 836 4129 
Q 1250 4750 2034 4750 
z
" transform="scale(0.015625)"/>
       </defs>
       <use xlink:href="#DejaVuSans-30"/>
      </g>
     </g>
    </g>
    <g id="xtick_2">
     <g id="line2d_2">
      <g>
       <use xlink:href="#md522bfa81e" x="201.275787" y="499.48" style="stroke: #000000; stroke-width: 0.8"/>
      </g>
     </g>
     <g id="text_2">
      <!-- 10 -->
      <g transform="translate(187.278287 523.196563) scale(0.22 -0.22)">
       <defs>
        <path id="DejaVuSans-31" d="M 794 531 
L 1825 531 
L 1825 4091 
L 703 3866 
L 703 4441 
L 1819 4666 
L 2450 4666 
L 2450 531 
L 3481 531 
L 3481 0 
L 794 0 
L 794 531 
z
" transform="scale(0.015625)"/>
       </defs>
       <use xlink:href="#DejaVuSans-31"/>
       <use xlink:href="#DejaVuSans-30" x="63.623047"/>
      </g>
     </g>
    </g>
    <g id="xtick_3">
     <g id="line2d_3">
      <g>
       <use xlink:href="#md522bfa81e" x="306.967152" y="499.48" style="stroke: #000000; stroke-width: 0.8"/>
      </g>
     </g>
     <g id="text_3">
      <!-- 20 -->
      <g transform="translate(292.969652 523.196563) scale(0.22 -0.22)">
       <defs>
        <path id="DejaVuSans-32" d="M 1228 531 
L 3431 531 
L 3431 0 
L 469 0 
L 469 531 
Q 828 903 1448 1529 
Q 2069 2156 2228 2338 
Q 2531 2678 2651 2914 
Q 2772 3150 2772 3378 
Q 2772 3750 2511 3984 
Q 2250 4219 1831 4219 
Q 1534 4219 1204 4116 
Q 875 4013 500 3803 
L 500 4441 
Q 881 4594 1212 4672 
Q 1544 4750 1819 4750 
Q 2544 4750 2975 4387 
Q 3406 4025 3406 3419 
Q 3406 3131 3298 2873 
Q 3191 2616 2906 2266 
Q 2828 2175 2409 1742 
Q 1991 1309 1228 531 
z
" transform="scale(0.015625)"/>
       </defs>
       <use xlink:href="#DejaVuSans-32"/>
       <use xlink:href="#DejaVuSans-30" x="63.623047"/>
      </g>
     </g>
    </g>
    <g id="xtick_4">
     <g id="line2d_4">
      <g>
       <use xlink:href="#md522bfa81e" x="412.658517" y="499.48" style="stroke: #000000; stroke-width: 0.8"/>
      </g>
     </g>
     <g id="text_4">
      <!-- 30 -->
      <g transform="translate(398.661017 523.196563) scale(0.22 -0.22)">
       <defs>
        <path id="DejaVuSans-33" d="M 2597 2516 
Q 3050 2419 3304 2112 
Q 3559 1806 3559 1356 
Q 3559 666 3084 287 
Q 2609 -91 1734 -91 
Q 1441 -91 1130 -33 
Q 819 25 488 141 
L 488 750 
Q 750 597 1062 519 
Q 1375 441 1716 441 
Q 2309 441 2620 675 
Q 2931 909 2931 1356 
Q 2931 1769 2642 2001 
Q 2353 2234 1838 2234 
L 1294 2234 
L 1294 2753 
L 1863 2753 
Q 2328 2753 2575 2939 
Q 2822 3125 2822 3475 
Q 2822 3834 2567 4026 
Q 2313 4219 1838 4219 
Q 1578 4219 1281 4162 
Q 984 4106 628 3988 
L 628 4550 
Q 988 4650 1302 4700 
Q 1616 4750 1894 4750 
Q 2613 4750 3031 4423 
Q 3450 4097 3450 3541 
Q 3450 3153 3228 2886 
Q 3006 2619 2597 2516 
z
" transform="scale(0.015625)"/>
       </defs>
       <use xlink:href="#DejaVuSans-33"/>
       <use xlink:href="#DejaVuSans-30" x="63.623047"/>
      </g>
     </g>
    </g>
    <g id="xtick_5">
     <g id="line2d_5">
      <g>
       <use xlink:href="#md522bfa81e" x="518.349882" y="499.48" style="stroke: #000000; stroke-width: 0.8"/>
      </g>
     </g>
     <g id="text_5">
      <!-- 40 -->
      <g transform="translate(504.352382 523.196563) scale(0.22 -0.22)">
       <defs>
        <path id="DejaVuSans-34" d="M 2419 4116 
L 825 1625 
L 2419 1625 
L 2419 4116 
z
M 2253 4666 
L 3047 4666 
L 3047 1625 
L 3713 1625 
L 3713 1100 
L 3047 1100 
L 3047 0 
L 2419 0 
L 2419 1100 
L 313 1100 
L 313 1709 
L 2253 4666 
z
" transform="scale(0.015625)"/>
       </defs>
       <use xlink:href="#DejaVuSans-34"/>
       <use xlink:href="#DejaVuSans-30" x="63.623047"/>
      </g>
     </g>
    </g>
    <g id="xtick_6">
     <g id="line2d_6">
      <g>
       <use xlink:href="#md522bfa81e" x="624.041247" y="499.48" style="stroke: #000000; stroke-width: 0.8"/>
      </g>
     </g>
     <g id="text_6">
      <!-- 50 -->
      <g transform="translate(610.043747 523.196563) scale(0.22 -0.22)">
       <defs>
        <path id="DejaVuSans-35" d="M 691 4666 
L 3169 4666 
L 3169 4134 
L 1269 4134 
L 1269 2991 
Q 1406 3038 1543 3061 
Q 1681 3084 1819 3084 
Q 2600 3084 3056 2656 
Q 3513 2228 3513 1497 
Q 3513 744 3044 326 
Q 2575 -91 1722 -91 
Q 1428 -91 1123 -41 
Q 819 9 494 109 
L 494 744 
Q 775 591 1075 516 
Q 1375 441 1709 441 
Q 2250 441 2565 725 
Q 2881 1009 2881 1497 
Q 2881 1984 2565 2268 
Q 2250 2553 1709 2553 
Q 1456 2553 1204 2497 
Q 953 2441 691 2322 
L 691 4666 
z
" transform="scale(0.015625)"/>
       </defs>
       <use xlink:href="#DejaVuSans-35"/>
       <use xlink:href="#DejaVuSans-30" x="63.623047"/>
      </g>
     </g>
    </g>
    <g id="text_7">
     <!-- Force Uncertainties -->
     <g transform="translate(283.426094 548.488438) scale(0.22 -0.22)">
      <defs>
       <path id="DejaVuSans-46" d="M 628 4666 
L 3309 4666 
L 3309 4134 
L 1259 4134 
L 1259 2759 
L 3109 2759 
L 3109 2228 
L 1259 2228 
L 1259 0 
L 628 0 
L 628 4666 
z
" transform="scale(0.015625)"/>
       <path id="DejaVuSans-6f" d="M 1959 3097 
Q 1497 3097 1228 2736 
Q 959 2375 959 1747 
Q 959 1119 1226 758 
Q 1494 397 1959 397 
Q 2419 397 2687 759 
Q 2956 1122 2956 1747 
Q 2956 2369 2687 2733 
Q 2419 3097 1959 3097 
z
M 1959 3584 
Q 2709 3584 3137 3096 
Q 3566 2609 3566 1747 
Q 3566 888 3137 398 
Q 2709 -91 1959 -91 
Q 1206 -91 779 398 
Q 353 888 353 1747 
Q 353 2609 779 3096 
Q 1206 3584 1959 3584 
z
" transform="scale(0.015625)"/>
       <path id="DejaVuSans-72" d="M 2631 2963 
Q 2534 3019 2420 3045 
Q 2306 3072 2169 3072 
Q 1681 3072 1420 2755 
Q 1159 2438 1159 1844 
L 1159 0 
L 581 0 
L 581 3500 
L 1159 3500 
L 1159 2956 
Q 1341 3275 1631 3429 
Q 1922 3584 2338 3584 
Q 2397 3584 2469 3576 
Q 2541 3569 2628 3553 
L 2631 2963 
z
" transform="scale(0.015625)"/>
       <path id="DejaVuSans-63" d="M 3122 3366 
L 3122 2828 
Q 2878 2963 2633 3030 
Q 2388 3097 2138 3097 
Q 1578 3097 1268 2742 
Q 959 2388 959 1747 
Q 959 1106 1268 751 
Q 1578 397 2138 397 
Q 2388 397 2633 464 
Q 2878 531 3122 666 
L 3122 134 
Q 2881 22 2623 -34 
Q 2366 -91 2075 -91 
Q 1284 -91 818 406 
Q 353 903 353 1747 
Q 353 2603 823 3093 
Q 1294 3584 2113 3584 
Q 2378 3584 2631 3529 
Q 2884 3475 3122 3366 
z
" transform="scale(0.015625)"/>
       <path id="DejaVuSans-65" d="M 3597 1894 
L 3597 1613 
L 953 1613 
Q 991 1019 1311 708 
Q 1631 397 2203 397 
Q 2534 397 2845 478 
Q 3156 559 3463 722 
L 3463 178 
Q 3153 47 2828 -22 
Q 2503 -91 2169 -91 
Q 1331 -91 842 396 
Q 353 884 353 1716 
Q 353 2575 817 3079 
Q 1281 3584 2069 3584 
Q 2775 3584 3186 3129 
Q 3597 2675 3597 1894 
z
M 3022 2063 
Q 3016 2534 2758 2815 
Q 2500 3097 2075 3097 
Q 1594 3097 1305 2825 
Q 1016 2553 972 2059 
L 3022 2063 
z
" transform="scale(0.015625)"/>
       <path id="DejaVuSans-20" transform="scale(0.015625)"/>
       <path id="DejaVuSans-55" d="M 556 4666 
L 1191 4666 
L 1191 1831 
Q 1191 1081 1462 751 
Q 1734 422 2344 422 
Q 2950 422 3222 751 
Q 3494 1081 3494 1831 
L 3494 4666 
L 4128 4666 
L 4128 1753 
Q 4128 841 3676 375 
Q 3225 -91 2344 -91 
Q 1459 -91 1007 375 
Q 556 841 556 1753 
L 556 4666 
z
" transform="scale(0.015625)"/>
       <path id="DejaVuSans-6e" d="M 3513 2113 
L 3513 0 
L 2938 0 
L 2938 2094 
Q 2938 2591 2744 2837 
Q 2550 3084 2163 3084 
Q 1697 3084 1428 2787 
Q 1159 2491 1159 1978 
L 1159 0 
L 581 0 
L 581 3500 
L 1159 3500 
L 1159 2956 
Q 1366 3272 1645 3428 
Q 1925 3584 2291 3584 
Q 2894 3584 3203 3211 
Q 3513 2838 3513 2113 
z
" transform="scale(0.015625)"/>
       <path id="DejaVuSans-74" d="M 1172 4494 
L 1172 3500 
L 2356 3500 
L 2356 3053 
L 1172 3053 
L 1172 1153 
Q 1172 725 1289 603 
Q 1406 481 1766 481 
L 2356 481 
L 2356 0 
L 1766 0 
Q 1100 0 847 248 
Q 594 497 594 1153 
L 594 3053 
L 172 3053 
L 172 3500 
L 594 3500 
L 594 4494 
L 1172 4494 
z
" transform="scale(0.015625)"/>
       <path id="DejaVuSans-61" d="M 2194 1759 
Q 1497 1759 1228 1600 
Q 959 1441 959 1056 
Q 959 750 1161 570 
Q 1363 391 1709 391 
Q 2188 391 2477 730 
Q 2766 1069 2766 1631 
L 2766 1759 
L 2194 1759 
z
M 3341 1997 
L 3341 0 
L 2766 0 
L 2766 531 
Q 2569 213 2275 61 
Q 1981 -91 1556 -91 
Q 1019 -91 701 211 
Q 384 513 384 1019 
Q 384 1609 779 1909 
Q 1175 2209 1959 2209 
L 2766 2209 
L 2766 2266 
Q 2766 2663 2505 2880 
Q 2244 3097 1772 3097 
Q 1472 3097 1187 3025 
Q 903 2953 641 2809 
L 641 3341 
Q 956 3463 1253 3523 
Q 1550 3584 1831 3584 
Q 2591 3584 2966 3190 
Q 3341 2797 3341 1997 
z
" transform="scale(0.015625)"/>
       <path id="DejaVuSans-69" d="M 603 3500 
L 1178 3500 
L 1178 0 
L 603 0 
L 603 3500 
z
M 603 4863 
L 1178 4863 
L 1178 4134 
L 603 4134 
L 603 4863 
z
" transform="scale(0.015625)"/>
       <path id="DejaVuSans-73" d="M 2834 3397 
L 2834 2853 
Q 2591 2978 2328 3040 
Q 2066 3103 1784 3103 
Q 1356 3103 1142 2972 
Q 928 2841 928 2578 
Q 928 2378 1081 2264 
Q 1234 2150 1697 2047 
L 1894 2003 
Q 2506 1872 2764 1633 
Q 3022 1394 3022 966 
Q 3022 478 2636 193 
Q 2250 -91 1575 -91 
Q 1294 -91 989 -36 
Q 684 19 347 128 
L 347 722 
Q 666 556 975 473 
Q 1284 391 1588 391 
Q 1994 391 2212 530 
Q 2431 669 2431 922 
Q 2431 1156 2273 1281 
Q 2116 1406 1581 1522 
L 1381 1569 
Q 847 1681 609 1914 
Q 372 2147 372 2553 
Q 372 3047 722 3315 
Q 1072 3584 1716 3584 
Q 2034 3584 2315 3537 
Q 2597 3491 2834 3397 
z
" transform="scale(0.015625)"/>
      </defs>
      <use xlink:href="#DejaVuSans-46"/>
      <use xlink:href="#DejaVuSans-6f" x="53.894531"/>
      <use xlink:href="#DejaVuSans-72" x="115.076172"/>
      <use xlink:href="#DejaVuSans-63" x="153.939453"/>
      <use xlink:href="#DejaVuSans-65" x="208.919922"/>
      <use xlink:href="#DejaVuSans-20" x="270.443359"/>
      <use xlink:href="#DejaVuSans-55" x="302.230469"/>
      <use xlink:href="#DejaVuSans-6e" x="375.423828"/>
      <use xlink:href="#DejaVuSans-63" x="438.802734"/>
      <use xlink:href="#DejaVuSans-65" x="493.783203"/>
      <use xlink:href="#DejaVuSans-72" x="555.306641"/>
      <use xlink:href="#DejaVuSans-74" x="596.419922"/>
      <use xlink:href="#DejaVuSans-61" x="635.628906"/>
      <use xlink:href="#DejaVuSans-69" x="696.908203"/>
      <use xlink:href="#DejaVuSans-6e" x="724.691406"/>
      <use xlink:href="#DejaVuSans-74" x="788.070312"/>
      <use xlink:href="#DejaVuSans-69" x="827.279297"/>
      <use xlink:href="#DejaVuSans-65" x="855.0625"/>
      <use xlink:href="#DejaVuSans-73" x="916.585938"/>
     </g>
    </g>
   </g>
   <g id="matplotlib.axis_2">
    <g id="ytick_1">
     <g id="line2d_7">
      <defs>
       <path id="m707b7c6d7d" d="M 0 0 
L -3.5 0 
" style="stroke: #000000; stroke-width: 0.8"/>
      </defs>
      <g>
       <use xlink:href="#m707b7c6d7d" x="83.72" y="490.265374" style="stroke: #000000; stroke-width: 0.8"/>
      </g>
     </g>
     <g id="text_8">
      <!-- 0 -->
      <g transform="translate(62.7225 498.623655) scale(0.22 -0.22)">
       <use xlink:href="#DejaVuSans-30"/>
      </g>
     </g>
    </g>
    <g id="ytick_2">
     <g id="line2d_8">
      <g>
       <use xlink:href="#m707b7c6d7d" x="83.72" y="408.179081" style="stroke: #000000; stroke-width: 0.8"/>
      </g>
     </g>
     <g id="text_9">
      <!-- 10 -->
      <g transform="translate(48.725 416.537362) scale(0.22 -0.22)">
       <use xlink:href="#DejaVuSans-31"/>
       <use xlink:href="#DejaVuSans-30" x="63.623047"/>
      </g>
     </g>
    </g>
    <g id="ytick_3">
     <g id="line2d_9">
      <g>
       <use xlink:href="#m707b7c6d7d" x="83.72" y="326.092788" style="stroke: #000000; stroke-width: 0.8"/>
      </g>
     </g>
     <g id="text_10">
      <!-- 20 -->
      <g transform="translate(48.725 334.451069) scale(0.22 -0.22)">
       <use xlink:href="#DejaVuSans-32"/>
       <use xlink:href="#DejaVuSans-30" x="63.623047"/>
      </g>
     </g>
    </g>
    <g id="ytick_4">
     <g id="line2d_10">
      <g>
       <use xlink:href="#m707b7c6d7d" x="83.72" y="244.006495" style="stroke: #000000; stroke-width: 0.8"/>
      </g>
     </g>
     <g id="text_11">
      <!-- 30 -->
      <g transform="translate(48.725 252.364776) scale(0.22 -0.22)">
       <use xlink:href="#DejaVuSans-33"/>
       <use xlink:href="#DejaVuSans-30" x="63.623047"/>
      </g>
     </g>
    </g>
    <g id="ytick_5">
     <g id="line2d_11">
      <g>
       <use xlink:href="#m707b7c6d7d" x="83.72" y="161.920202" style="stroke: #000000; stroke-width: 0.8"/>
      </g>
     </g>
     <g id="text_12">
      <!-- 40 -->
      <g transform="translate(48.725 170.278483) scale(0.22 -0.22)">
       <use xlink:href="#DejaVuSans-34"/>
       <use xlink:href="#DejaVuSans-30" x="63.623047"/>
      </g>
     </g>
    </g>
    <g id="ytick_6">
     <g id="line2d_12">
      <g>
       <use xlink:href="#m707b7c6d7d" x="83.72" y="79.833909" style="stroke: #000000; stroke-width: 0.8"/>
      </g>
     </g>
     <g id="text_13">
      <!-- 50 -->
      <g transform="translate(48.725 88.19219) scale(0.22 -0.22)">
       <use xlink:href="#DejaVuSans-35"/>
       <use xlink:href="#DejaVuSans-30" x="63.623047"/>
      </g>
     </g>
    </g>
    <g id="text_14">
     <!-- Force Errors [kJ/(mol*A)] -->
     <g transform="translate(40.149688 394.9125) rotate(-90) scale(0.22 -0.22)">
      <defs>
       <path id="DejaVuSans-45" d="M 628 4666 
L 3578 4666 
L 3578 4134 
L 1259 4134 
L 1259 2753 
L 3481 2753 
L 3481 2222 
L 1259 2222 
L 1259 531 
L 3634 531 
L 3634 0 
L 628 0 
L 628 4666 
z
" transform="scale(0.015625)"/>
       <path id="DejaVuSans-5b" d="M 550 4863 
L 1875 4863 
L 1875 4416 
L 1125 4416 
L 1125 -397 
L 1875 -397 
L 1875 -844 
L 550 -844 
L 550 4863 
z
" transform="scale(0.015625)"/>
       <path id="DejaVuSans-6b" d="M 581 4863 
L 1159 4863 
L 1159 1991 
L 2875 3500 
L 3609 3500 
L 1753 1863 
L 3688 0 
L 2938 0 
L 1159 1709 
L 1159 0 
L 581 0 
L 581 4863 
z
" transform="scale(0.015625)"/>
       <path id="DejaVuSans-4a" d="M 628 4666 
L 1259 4666 
L 1259 325 
Q 1259 -519 939 -900 
Q 619 -1281 -91 -1281 
L -331 -1281 
L -331 -750 
L -134 -750 
Q 284 -750 456 -515 
Q 628 -281 628 325 
L 628 4666 
z
" transform="scale(0.015625)"/>
       <path id="DejaVuSans-2f" d="M 1625 4666 
L 2156 4666 
L 531 -594 
L 0 -594 
L 1625 4666 
z
" transform="scale(0.015625)"/>
       <path id="DejaVuSans-28" d="M 1984 4856 
Q 1566 4138 1362 3434 
Q 1159 2731 1159 2009 
Q 1159 1288 1364 580 
Q 1569 -128 1984 -844 
L 1484 -844 
Q 1016 -109 783 600 
Q 550 1309 550 2009 
Q 550 2706 781 3412 
Q 1013 4119 1484 4856 
L 1984 4856 
z
" transform="scale(0.015625)"/>
       <path id="DejaVuSans-6d" d="M 3328 2828 
Q 3544 3216 3844 3400 
Q 4144 3584 4550 3584 
Q 5097 3584 5394 3201 
Q 5691 2819 5691 2113 
L 5691 0 
L 5113 0 
L 5113 2094 
Q 5113 2597 4934 2840 
Q 4756 3084 4391 3084 
Q 3944 3084 3684 2787 
Q 3425 2491 3425 1978 
L 3425 0 
L 2847 0 
L 2847 2094 
Q 2847 2600 2669 2842 
Q 2491 3084 2119 3084 
Q 1678 3084 1418 2786 
Q 1159 2488 1159 1978 
L 1159 0 
L 581 0 
L 581 3500 
L 1159 3500 
L 1159 2956 
Q 1356 3278 1631 3431 
Q 1906 3584 2284 3584 
Q 2666 3584 2933 3390 
Q 3200 3197 3328 2828 
z
" transform="scale(0.015625)"/>
       <path id="DejaVuSans-6c" d="M 603 4863 
L 1178 4863 
L 1178 0 
L 603 0 
L 603 4863 
z
" transform="scale(0.015625)"/>
       <path id="DejaVuSans-2a" d="M 3009 3897 
L 1888 3291 
L 3009 2681 
L 2828 2375 
L 1778 3009 
L 1778 1831 
L 1422 1831 
L 1422 3009 
L 372 2375 
L 191 2681 
L 1313 3291 
L 191 3897 
L 372 4206 
L 1422 3572 
L 1422 4750 
L 1778 4750 
L 1778 3572 
L 2828 4206 
L 3009 3897 
z
" transform="scale(0.015625)"/>
       <path id="DejaVuSans-41" d="M 2188 4044 
L 1331 1722 
L 3047 1722 
L 2188 4044 
z
M 1831 4666 
L 2547 4666 
L 4325 0 
L 3669 0 
L 3244 1197 
L 1141 1197 
L 716 0 
L 50 0 
L 1831 4666 
z
" transform="scale(0.015625)"/>
       <path id="DejaVuSans-29" d="M 513 4856 
L 1013 4856 
Q 1481 4119 1714 3412 
Q 1947 2706 1947 2009 
Q 1947 1309 1714 600 
Q 1481 -109 1013 -844 
L 513 -844 
Q 928 -128 1133 580 
Q 1338 1288 1338 2009 
Q 1338 2731 1133 3434 
Q 928 4138 513 4856 
z
" transform="scale(0.015625)"/>
       <path id="DejaVuSans-5d" d="M 1947 4863 
L 1947 -844 
L 622 -844 
L 622 -397 
L 1369 -397 
L 1369 4416 
L 622 4416 
L 622 4863 
L 1947 4863 
z
" transform="scale(0.015625)"/>
      </defs>
      <use xlink:href="#DejaVuSans-46"/>
      <use xlink:href="#DejaVuSans-6f" x="53.894531"/>
      <use xlink:href="#DejaVuSans-72" x="115.076172"/>
      <use xlink:href="#DejaVuSans-63" x="153.939453"/>
      <use xlink:href="#DejaVuSans-65" x="208.919922"/>
      <use xlink:href="#DejaVuSans-20" x="270.443359"/>
      <use xlink:href="#DejaVuSans-45" x="302.230469"/>
      <use xlink:href="#DejaVuSans-72" x="365.414062"/>
      <use xlink:href="#DejaVuSans-72" x="404.777344"/>
      <use xlink:href="#DejaVuSans-6f" x="443.640625"/>
      <use xlink:href="#DejaVuSans-72" x="504.822266"/>
      <use xlink:href="#DejaVuSans-73" x="545.935547"/>
      <use xlink:href="#DejaVuSans-20" x="598.035156"/>
      <use xlink:href="#DejaVuSans-5b" x="629.822266"/>
      <use xlink:href="#DejaVuSans-6b" x="668.835938"/>
      <use xlink:href="#DejaVuSans-4a" x="726.746094"/>
      <use xlink:href="#DejaVuSans-2f" x="756.238281"/>
      <use xlink:href="#DejaVuSans-28" x="789.929688"/>
      <use xlink:href="#DejaVuSans-6d" x="828.943359"/>
      <use xlink:href="#DejaVuSans-6f" x="926.355469"/>
      <use xlink:href="#DejaVuSans-6c" x="987.537109"/>
      <use xlink:href="#DejaVuSans-2a" x="1015.320312"/>
      <use xlink:href="#DejaVuSans-41" x="1065.320312"/>
      <use xlink:href="#DejaVuSans-29" x="1133.728516"/>
      <use xlink:href="#DejaVuSans-5d" x="1172.742188"/>
     </g>
    </g>
   </g>
   <g id="line2d_13">
    <path d="M 83.72 499.48 
L 696.24 23.76 
" clip-path="url(#p6b7da18b99)" style="fill: none; stroke-dasharray: 5.55,2.4; stroke-dashoffset: 0; stroke: #ff0000; stroke-width: 1.5"/>
   </g>
   <g id="patch_3">
    <path d="M 83.72 499.48 
L 83.72 23.76 
" style="fill: none; stroke: #000000; stroke-width: 0.8; stroke-linejoin: miter; stroke-linecap: square"/>
   </g>
   <g id="patch_4">
    <path d="M 696.24 499.48 
L 696.24 23.76 
" style="fill: none; stroke: #000000; stroke-width: 0.8; stroke-linejoin: miter; stroke-linecap: square"/>
   </g>
   <g id="patch_5">
    <path d="M 83.72 499.48 
L 696.24 499.48 
" style="fill: none; stroke: #000000; stroke-width: 0.8; stroke-linejoin: miter; stroke-linecap: square"/>
   </g>
   <g id="patch_6">
    <path d="M 83.72 23.76 
L 696.24 23.76 
" style="fill: none; stroke: #000000; stroke-width: 0.8; stroke-linejoin: miter; stroke-linecap: square"/>
   </g>
   <g id="text_15">
    <!-- Correlation in: 0.890 -->
    <g transform="translate(144.972 71.332) scale(0.22 -0.22)">
     <defs>
      <path id="DejaVuSans-43" d="M 4122 4306 
L 4122 3641 
Q 3803 3938 3442 4084 
Q 3081 4231 2675 4231 
Q 1875 4231 1450 3742 
Q 1025 3253 1025 2328 
Q 1025 1406 1450 917 
Q 1875 428 2675 428 
Q 3081 428 3442 575 
Q 3803 722 4122 1019 
L 4122 359 
Q 3791 134 3420 21 
Q 3050 -91 2638 -91 
Q 1578 -91 968 557 
Q 359 1206 359 2328 
Q 359 3453 968 4101 
Q 1578 4750 2638 4750 
Q 3056 4750 3426 4639 
Q 3797 4528 4122 4306 
z
" transform="scale(0.015625)"/>
      <path id="DejaVuSans-3a" d="M 750 794 
L 1409 794 
L 1409 0 
L 750 0 
L 750 794 
z
M 750 3309 
L 1409 3309 
L 1409 2516 
L 750 2516 
L 750 3309 
z
" transform="scale(0.015625)"/>
      <path id="DejaVuSans-2e" d="M 684 794 
L 1344 794 
L 1344 0 
L 684 0 
L 684 794 
z
" transform="scale(0.015625)"/>
      <path id="DejaVuSans-38" d="M 2034 2216 
Q 1584 2216 1326 1975 
Q 1069 1734 1069 1313 
Q 1069 891 1326 650 
Q 1584 409 2034 409 
Q 2484 409 2743 651 
Q 3003 894 3003 1313 
Q 3003 1734 2745 1975 
Q 2488 2216 2034 2216 
z
M 1403 2484 
Q 997 2584 770 2862 
Q 544 3141 544 3541 
Q 544 4100 942 4425 
Q 1341 4750 2034 4750 
Q 2731 4750 3128 4425 
Q 3525 4100 3525 3541 
Q 3525 3141 3298 2862 
Q 3072 2584 2669 2484 
Q 3125 2378 3379 2068 
Q 3634 1759 3634 1313 
Q 3634 634 3220 271 
Q 2806 -91 2034 -91 
Q 1263 -91 848 271 
Q 434 634 434 1313 
Q 434 1759 690 2068 
Q 947 2378 1403 2484 
z
M 1172 3481 
Q 1172 3119 1398 2916 
Q 1625 2713 2034 2713 
Q 2441 2713 2670 2916 
Q 2900 3119 2900 3481 
Q 2900 3844 2670 4047 
Q 2441 4250 2034 4250 
Q 1625 4250 1398 4047 
Q 1172 3844 1172 3481 
z
" transform="scale(0.015625)"/>
      <path id="DejaVuSans-39" d="M 703 97 
L 703 672 
Q 941 559 1184 500 
Q 1428 441 1663 441 
Q 2288 441 2617 861 
Q 2947 1281 2994 2138 
Q 2813 1869 2534 1725 
Q 2256 1581 1919 1581 
Q 1219 1581 811 2004 
Q 403 2428 403 3163 
Q 403 3881 828 4315 
Q 1253 4750 1959 4750 
Q 2769 4750 3195 4129 
Q 3622 3509 3622 2328 
Q 3622 1225 3098 567 
Q 2575 -91 1691 -91 
Q 1453 -91 1209 -44 
Q 966 3 703 97 
z
M 1959 2075 
Q 2384 2075 2632 2365 
Q 2881 2656 2881 3163 
Q 2881 3666 2632 3958 
Q 2384 4250 1959 4250 
Q 1534 4250 1286 3958 
Q 1038 3666 1038 3163 
Q 1038 2656 1286 2365 
Q 1534 2075 1959 2075 
z
" transform="scale(0.015625)"/>
     </defs>
     <use xlink:href="#DejaVuSans-43"/>
     <use xlink:href="#DejaVuSans-6f" x="69.824219"/>
     <use xlink:href="#DejaVuSans-72" x="131.005859"/>
     <use xlink:href="#DejaVuSans-72" x="170.369141"/>
     <use xlink:href="#DejaVuSans-65" x="209.232422"/>
     <use xlink:href="#DejaVuSans-6c" x="270.755859"/>
     <use xlink:href="#DejaVuSans-61" x="298.539062"/>
     <use xlink:href="#DejaVuSans-74" x="359.818359"/>
     <use xlink:href="#DejaVuSans-69" x="399.027344"/>
     <use xlink:href="#DejaVuSans-6f" x="426.810547"/>
     <use xlink:href="#DejaVuSans-6e" x="487.992188"/>
     <use xlink:href="#DejaVuSans-20" x="551.371094"/>
     <use xlink:href="#DejaVuSans-69" x="583.158203"/>
     <use xlink:href="#DejaVuSans-6e" x="610.941406"/>
     <use xlink:href="#DejaVuSans-3a" x="674.320312"/>
     <use xlink:href="#DejaVuSans-20" x="708.011719"/>
     <use xlink:href="#DejaVuSans-30" x="739.798828"/>
     <use xlink:href="#DejaVuSans-2e" x="803.421875"/>
     <use xlink:href="#DejaVuSans-38" x="835.208984"/>
     <use xlink:href="#DejaVuSans-39" x="898.832031"/>
     <use xlink:href="#DejaVuSans-30" x="962.455078"/>
    </g>
   </g>
  </g>
 </g>
 <defs>
  <clipPath id="p6b7da18b99">
   <rect x="83.72" y="23.76" width="612.52" height="475.72"/>
  </clipPath>
 </defs>
</svg>
