<?xml version="1.0" encoding="utf-8" standalone="no"?>
<!DOCTYPE svg PUBLIC "-//W3C//DTD SVG 1.1//EN"
  "http://www.w3.org/Graphics/SVG/1.1/DTD/svg11.dtd">
<svg xmlns:xlink="http://www.w3.org/1999/xlink" width="720pt" height="576pt" viewBox="0 0 720 576" xmlns="http://www.w3.org/2000/svg" version="1.1">
 <metadata>
  <rdf:RDF xmlns:dc="http://purl.org/dc/elements/1.1/" xmlns:cc="http://creativecommons.org/ns#" xmlns:rdf="http://www.w3.org/1999/02/22-rdf-syntax-ns#">
   <cc:Work>
    <dc:type rdf:resource="http://purl.org/dc/dcmitype/StillImage"/>
    <dc:date>2024-12-07T17:21:01.937107</dc:date>
    <dc:format>image/svg+xml</dc:format>
    <dc:creator>
     <cc:Agent>
      <dc:title>Matplotlib v3.8.4, https://matplotlib.org/</dc:title>
     </cc:Agent>
    </dc:creator>
   </cc:Work>
  </rdf:RDF>
 </metadata>
 <defs>
  <style type="text/css">*{stroke-linejoin: round; stroke-linecap: butt}</style>
 </defs>
 <g id="figure_1">
  <g id="patch_1">
   <path d="M 0 576 
L 720 576 
L 720 0 
L 0 0 
z
" style="fill: #ffffff"/>
  </g>
  <g id="axes_1">
   <g id="patch_2">
    <path d="M 102.17 499.48 
L 682.2 499.48 
L 682.2 32.04 
L 102.17 32.04 
z
" style="fill: #ffffff"/>
   </g>
   <g id="QuadContourSet_1">
    <path d="M 234.638091 399.186244 
L 238.025807 396.730863 
L 234.638091 394.105546 
L 231.258777 396.730863 
z
M 244.112287 393.71042 
L 249.566249 389.74634 
L 253.586482 387.682594 
L 260.3399 382.761818 
L 263.060677 381.320324 
L 270.651946 375.777295 
L 272.534873 374.748594 
L 280.676991 368.792772 
L 282.009068 368.042064 
L 290.518573 361.808249 
L 291.483264 361.246811 
L 300.239945 354.823726 
L 300.957459 354.391898 
L 309.880635 347.839203 
L 310.431654 347.495868 
L 319.465787 340.85468 
L 319.90585 340.570608 
L 329.011676 333.870157 
L 329.380045 333.623779 
L 338.529075 326.885634 
L 338.85424 326.660397 
L 348.02532 319.901112 
L 348.328436 319.683834 
L 357.505518 312.916589 
L 357.802631 312.696409 
L 366.973165 305.932066 
L 367.276826 305.699642 
L 376.430324 298.947543 
L 376.751022 298.694227 
L 385.877494 291.96302 
L 386.225217 291.679757 
L 395.3132 284.978497 
L 395.699413 284.654201 
L 404.733314 277.993974 
L 405.173608 277.613084 
L 414.130006 271.009451 
L 414.647803 270.548246 
L 423.490197 264.024928 
L 424.121999 263.445989 
L 432.793298 257.040406 
L 433.596194 256.284365 
L 442.008033 250.055883 
L 443.070389 249.029299 
L 451.088082 243.07136 
L 452.544585 241.629066 
L 459.965982 236.086837 
L 462.01878 234.006107 
L 468.543882 229.102314 
L 471.492975 226.043723 
L 476.677754 222.117791 
L 480.967171 217.562553 
L 484.148477 215.133268 
L 490.441366 208.277888 
L 490.608978 208.148745 
L 499.400904 201.164223 
L 499.915562 200.662337 
L 508.246353 194.1797 
L 509.389757 193.071412 
L 516.985615 187.195177 
L 518.863952 185.394668 
L 525.610689 180.210654 
L 528.338148 177.63014 
L 534.111732 173.226131 
L 537.812343 169.765483 
L 542.464924 166.241608 
L 547.286538 161.768169 
L 550.622428 159.257085 
L 556.760734 153.581541 
L 558.508059 152.272562 
L 556.760734 146.548871 
L 547.286538 151.045162 
L 545.646811 152.272562 
L 537.812343 156.817035 
L 534.562182 159.257085 
L 528.338148 162.937106 
L 523.92965 166.241608 
L 518.863952 169.303158 
L 513.612112 173.226131 
L 509.389757 175.840471 
L 503.517174 180.210654 
L 499.915562 182.497862 
L 493.583175 187.195177 
L 490.441366 189.241961 
L 483.769425 194.1797 
L 480.967171 196.052062 
L 474.049651 201.164223 
L 471.492975 202.916262 
L 464.407684 208.148745 
L 462.01878 209.828796 
L 454.834695 215.133268 
L 452.544585 216.788366 
L 445.327583 222.117791 
L 443.070389 223.797388 
L 435.888378 229.102314 
L 433.596194 230.862133 
L 426.524656 236.086837 
L 424.121999 237.993845 
L 417.251092 243.07136 
L 414.647803 245.211017 
L 408.092487 250.055883 
L 405.173608 252.543333 
L 399.089015 257.040406 
L 395.699413 260.038336 
L 390.305183 264.024928 
L 386.225217 267.772857 
L 381.845252 271.009451 
L 376.751022 275.873005 
L 373.880292 277.993974 
L 367.276826 284.549942 
L 366.696659 284.978497 
L 357.904272 291.96302 
L 357.802631 292.046967 
L 348.553293 298.947543 
L 348.328436 299.140227 
L 339.209338 305.932066 
L 338.85424 306.247971 
L 329.886688 312.916589 
L 329.380045 313.384736 
L 320.605108 319.901112 
L 319.90585 320.572415 
L 311.39422 326.885634 
L 310.431654 327.845839 
L 302.301102 333.870157 
L 300.957459 335.262891 
L 293.40402 340.85468 
L 291.483264 342.923335 
L 284.837965 347.839203 
L 282.009068 351.004931 
L 276.843631 354.823726 
L 272.534873 359.834849 
L 269.864228 361.808249 
L 263.354087 368.792772 
L 263.060677 369.099261 
L 254.84316 375.777295 
L 253.586482 377.115077 
L 246.514652 382.761818 
L 244.112287 385.372999 
L 238.552958 389.74634 
z
M 261.750322 375.777295 
L 263.060677 374.712424 
L 264.271172 375.777295 
L 263.060677 376.661179 
z
M 268.727709 368.792772 
L 272.534873 365.633987 
L 275.911313 368.792772 
L 272.534873 371.262581 
z
M 276.265524 361.808249 
L 282.009068 356.923755 
L 284.096149 354.823726 
L 291.483264 348.350234 
L 292.001434 347.839203 
L 298.82944 340.85468 
L 300.957459 339.279314 
L 306.175956 333.870157 
L 310.431654 330.716905 
L 314.272346 326.885634 
L 319.90585 322.70717 
L 322.828761 319.901112 
L 329.380045 315.036048 
L 331.673785 312.916589 
L 338.85424 307.576925 
L 340.703171 305.932066 
L 348.328436 300.252823 
L 349.851663 298.947543 
L 357.802631 293.015631 
L 359.077111 291.96302 
L 367.276826 285.834424 
L 368.351335 284.978497 
L 376.751022 278.688774 
L 377.654795 277.993974 
L 386.225217 271.564902 
L 386.973491 271.009451 
L 395.699413 264.453506 
L 396.297249 264.024928 
L 405.173608 257.348638 
L 405.618952 257.040406 
L 414.647803 250.24728 
L 414.934499 250.055883 
L 424.121999 243.149477 
L 424.243522 243.07136 
L 433.438634 236.086837 
L 433.596194 235.970426 
L 442.541989 229.102314 
L 443.070389 228.712016 
L 451.932304 222.117791 
L 452.544585 221.66565 
L 461.583248 215.133268 
L 462.01878 214.811687 
L 471.492975 208.148745 
L 471.492975 208.148745 
L 480.967171 201.591976 
L 481.912316 201.164223 
L 490.441366 195.565139 
L 494.554214 201.164223 
L 490.441366 204.38053 
L 486.574075 208.148745 
L 480.967171 212.553015 
L 478.297909 215.133268 
L 471.492975 220.502884 
L 469.798463 222.117791 
L 462.01878 228.287984 
L 461.147818 229.102314 
L 452.544585 235.966708 
L 452.413131 236.086837 
L 445.084073 243.07136 
L 443.070389 244.567726 
L 437.390994 250.055883 
L 433.596194 252.865714 
L 429.162778 257.040406 
L 424.121999 260.764084 
L 420.563415 264.024928 
L 414.647803 268.389065 
L 411.705886 271.009451 
L 405.173608 275.825759 
L 402.667237 277.993974 
L 395.699413 283.130989 
L 393.499172 284.978497 
L 386.225217 290.342136 
L 384.235481 291.96302 
L 376.751022 297.483164 
L 374.89712 298.947543 
L 367.276826 304.56867 
L 365.495551 305.932066 
L 357.802631 311.606496 
L 356.034779 312.916589 
L 348.328436 318.5993 
L 346.512325 319.901112 
L 338.85424 325.545287 
L 336.919237 326.885634 
L 329.380045 332.438154 
L 327.239005 333.870157 
L 319.90585 339.266201 
L 317.445107 340.85468 
L 310.431654 346.010422 
L 307.496638 347.839203 
L 300.957459 352.64122 
L 297.331062 354.823726 
L 291.483264 359.113126 
L 286.852371 361.808249 
L 282.009068 365.356311 
z
M 493.862132 194.1797 
L 499.915562 190.532255 
L 502.172464 194.1797 
L 499.915562 195.935917 
z
" clip-path="url(#p140b648cae)" style="fill: #ecf4fb"/>
    <path d="M 263.060677 376.661179 
L 264.271172 375.777295 
L 263.060677 374.712424 
L 261.750322 375.777295 
z
M 272.534873 371.262581 
L 275.911313 368.792772 
L 272.534873 365.633987 
L 268.727709 368.792772 
z
M 282.009068 365.356311 
L 286.852371 361.808249 
L 291.483264 359.113126 
L 297.331062 354.823726 
L 300.957459 352.64122 
L 307.496638 347.839203 
L 310.431654 346.010422 
L 317.445107 340.85468 
L 319.90585 339.266201 
L 327.239005 333.870157 
L 329.380045 332.438154 
L 336.919237 326.885634 
L 338.85424 325.545287 
L 346.512325 319.901112 
L 348.328436 318.5993 
L 356.034779 312.916589 
L 357.802631 311.606496 
L 365.495551 305.932066 
L 367.276826 304.56867 
L 374.89712 298.947543 
L 376.751022 297.483164 
L 384.235481 291.96302 
L 386.225217 290.342136 
L 393.499172 284.978497 
L 395.699413 283.130989 
L 402.667237 277.993974 
L 405.173608 275.825759 
L 411.705886 271.009451 
L 414.647803 268.389065 
L 420.563415 264.024928 
L 424.121999 260.764084 
L 429.162778 257.040406 
L 433.596194 252.865714 
L 437.390994 250.055883 
L 443.070389 244.567726 
L 445.084073 243.07136 
L 452.413131 236.086837 
L 452.544585 235.966708 
L 461.147818 229.102314 
L 462.01878 228.287984 
L 469.798463 222.117791 
L 471.492975 220.502884 
L 478.297909 215.133268 
L 480.967171 212.553015 
L 486.574075 208.148745 
L 490.441366 204.38053 
L 494.554214 201.164223 
L 490.441366 195.565139 
L 481.912316 201.164223 
L 480.967171 201.591976 
L 471.492975 208.148745 
L 471.492975 208.148745 
L 462.01878 214.811687 
L 461.583248 215.133268 
L 452.544585 221.66565 
L 451.932304 222.117791 
L 443.070389 228.712016 
L 442.541989 229.102314 
L 433.596194 235.970426 
L 433.438634 236.086837 
L 424.243522 243.07136 
L 424.121999 243.149477 
L 414.934499 250.055883 
L 414.647803 250.24728 
L 405.618952 257.040406 
L 405.173608 257.348638 
L 396.297249 264.024928 
L 395.699413 264.453506 
L 386.973491 271.009451 
L 386.225217 271.564902 
L 377.654795 277.993974 
L 376.751022 278.688774 
L 368.351335 284.978497 
L 367.276826 285.834424 
L 359.077111 291.96302 
L 357.802631 293.015631 
L 349.851663 298.947543 
L 348.328436 300.252823 
L 340.703171 305.932066 
L 338.85424 307.576925 
L 331.673785 312.916589 
L 329.380045 315.036048 
L 322.828761 319.901112 
L 319.90585 322.70717 
L 314.272346 326.885634 
L 310.431654 330.716905 
L 306.175956 333.870157 
L 300.957459 339.279314 
L 298.82944 340.85468 
L 292.001434 347.839203 
L 291.483264 348.350234 
L 284.096149 354.823726 
L 282.009068 356.923755 
L 276.265524 361.808249 
z
M 289.198113 354.823726 
L 291.483264 352.821198 
L 293.292238 354.823726 
L 291.483264 356.150621 
z
M 296.534861 347.839203 
L 300.957459 343.814664 
L 304.186588 347.839203 
L 300.957459 350.2105 
z
M 304.023239 340.85468 
L 310.431654 334.724353 
L 311.336386 333.870157 
L 318.268467 326.885634 
L 319.90585 325.67116 
L 325.916182 319.901112 
L 329.380045 317.328805 
L 334.155071 312.916589 
L 338.85424 309.422105 
L 342.777277 305.932066 
L 348.328436 301.797602 
L 351.654381 298.947543 
L 357.802631 294.360569 
L 360.705534 291.96302 
L 367.276826 287.051533 
L 369.879262 284.978497 
L 376.751022 279.832892 
L 379.143026 277.993974 
L 386.225217 272.681294 
L 388.477434 271.009451 
L 395.699413 265.583447 
L 397.87344 264.024928 
L 405.173608 258.534158 
L 407.331832 257.040406 
L 414.647803 251.536016 
L 416.864911 250.055883 
L 424.121999 244.600602 
L 426.500968 243.07136 
L 433.596194 237.75161 
L 436.29329 236.086837 
L 443.070389 231.030974 
L 446.337667 229.102314 
L 452.544585 224.510404 
L 456.807297 222.117791 
L 462.01878 218.313018 
L 466.164703 222.117791 
L 462.01878 225.40599 
L 458.065396 229.102314 
L 452.544585 233.507288 
L 449.72186 236.086837 
L 443.070389 241.431281 
L 441.228616 243.07136 
L 433.596194 249.253328 
L 432.668562 250.055883 
L 424.121999 257.040406 
L 424.121999 257.040406 
L 416.499739 264.024928 
L 414.647803 265.39116 
L 408.340128 271.009451 
L 405.173608 273.344155 
L 399.798601 277.993974 
L 395.699413 281.016093 
L 390.980493 284.978497 
L 386.225217 288.484923 
L 381.955636 291.96302 
L 376.751022 295.80167 
L 372.768349 298.947543 
L 367.276826 302.998378 
L 363.443965 305.932066 
L 357.802631 310.093211 
L 353.992737 312.916589 
L 348.328436 317.093484 
L 344.411615 319.901112 
L 338.85424 323.997018 
L 334.684065 326.885634 
L 329.380045 330.791978 
L 324.777747 333.870157 
L 319.90585 337.455104 
L 314.639503 340.85468 
L 310.431654 343.947961 
z
M 468.025061 215.133268 
L 471.492975 212.653309 
L 473.909169 215.133268 
L 471.492975 217.039831 
z
M 480.61895 208.148745 
L 480.967171 207.907754 
L 481.173251 208.148745 
L 480.967171 208.310623 
z
M 499.915562 195.935917 
L 502.172464 194.1797 
L 499.915562 190.532255 
L 493.862132 194.1797 
z
" clip-path="url(#p140b648cae)" style="fill: #d3e3f3"/>
    <path d="M 291.483264 356.150621 
L 293.292238 354.823726 
L 291.483264 352.821198 
L 289.198113 354.823726 
z
M 300.957459 350.2105 
L 304.186588 347.839203 
L 300.957459 343.814664 
L 296.534861 347.839203 
z
M 310.431654 343.947961 
L 314.639503 340.85468 
L 319.90585 337.455104 
L 324.777747 333.870157 
L 329.380045 330.791978 
L 334.684065 326.885634 
L 338.85424 323.997018 
L 344.411615 319.901112 
L 348.328436 317.093484 
L 353.992737 312.916589 
L 357.802631 310.093211 
L 363.443965 305.932066 
L 367.276826 302.998378 
L 372.768349 298.947543 
L 376.751022 295.80167 
L 381.955636 291.96302 
L 386.225217 288.484923 
L 390.980493 284.978497 
L 395.699413 281.016093 
L 399.798601 277.993974 
L 405.173608 273.344155 
L 408.340128 271.009451 
L 414.647803 265.39116 
L 416.499739 264.024928 
L 424.121999 257.040406 
L 424.121999 257.040406 
L 432.668562 250.055883 
L 433.596194 249.253328 
L 441.228616 243.07136 
L 443.070389 241.431281 
L 449.72186 236.086837 
L 452.544585 233.507288 
L 458.065396 229.102314 
L 462.01878 225.40599 
L 466.164703 222.117791 
L 462.01878 218.313018 
L 456.807297 222.117791 
L 452.544585 224.510404 
L 446.337667 229.102314 
L 443.070389 231.030974 
L 436.29329 236.086837 
L 433.596194 237.75161 
L 426.500968 243.07136 
L 424.121999 244.600602 
L 416.864911 250.055883 
L 414.647803 251.536016 
L 407.331832 257.040406 
L 405.173608 258.534158 
L 397.87344 264.024928 
L 395.699413 265.583447 
L 388.477434 271.009451 
L 386.225217 272.681294 
L 379.143026 277.993974 
L 376.751022 279.832892 
L 369.879262 284.978497 
L 367.276826 287.051533 
L 360.705534 291.96302 
L 357.802631 294.360569 
L 351.654381 298.947543 
L 348.328436 301.797602 
L 342.777277 305.932066 
L 338.85424 309.422105 
L 334.155071 312.916589 
L 329.380045 317.328805 
L 325.916182 319.901112 
L 319.90585 325.67116 
L 318.268467 326.885634 
L 311.336386 333.870157 
L 310.431654 334.724353 
L 304.023239 340.85468 
z
M 308.81706 340.85468 
L 310.431654 339.31015 
L 311.491818 340.85468 
L 310.431654 341.634029 
z
M 316.19349 333.870157 
L 319.90585 330.054582 
L 322.016394 333.870157 
L 319.90585 335.423185 
z
M 323.342711 326.885634 
L 329.380045 319.901112 
L 332.176364 326.885634 
L 329.380045 328.945088 
z
M 329.380045 319.901112 
L 336.938895 312.916589 
L 338.85424 311.492264 
L 345.104273 305.932066 
L 348.328436 303.530732 
L 353.676899 298.947543 
L 357.802631 295.869492 
L 362.532507 291.96302 
L 367.276826 288.417042 
L 371.593485 284.978497 
L 376.751022 281.11651 
L 380.812715 277.993974 
L 386.225217 273.933804 
L 390.16475 271.009451 
L 395.699413 266.851158 
L 399.641811 264.024928 
L 405.173608 259.864226 
L 409.253558 257.040406 
L 414.647803 252.981884 
L 419.030693 250.055883 
L 424.121999 246.228658 
L 429.033659 243.07136 
L 433.596194 239.650533 
L 438.504169 243.07136 
L 433.596194 247.046631 
L 430.117953 250.055883 
L 424.121999 254.955967 
L 421.63336 257.040406 
L 414.647803 262.805384 
L 413.136309 264.024928 
L 405.173608 270.666684 
L 404.72919 271.009451 
L 396.5802 277.993974 
L 395.699413 278.643333 
L 388.154717 284.978497 
L 386.225217 286.401264 
L 379.397815 291.96302 
L 376.751022 293.915156 
L 370.380023 298.947543 
L 367.276826 301.236623 
L 361.142235 305.932066 
L 357.802631 308.395415 
L 351.701714 312.916589 
L 348.328436 315.404068 
L 342.05477 319.901112 
L 338.85424 322.259972 
z
M 439.369729 236.086837 
L 443.070389 233.326065 
L 446.702449 236.086837 
L 443.070389 239.00519 
z
M 450.225701 229.102314 
L 452.544585 227.386792 
L 454.607141 229.102314 
L 452.544585 230.747998 
z
M 461.931911 222.117791 
L 462.01878 222.05437 
L 462.087888 222.117791 
L 462.01878 222.172602 
z
M 471.492975 217.039831 
L 473.909169 215.133268 
L 471.492975 212.653309 
L 468.025061 215.133268 
z
M 480.967171 208.310623 
L 481.173251 208.148745 
L 480.967171 207.907754 
L 480.61895 208.148745 
z
" clip-path="url(#p140b648cae)" style="fill: #a6cee4"/>
    <path d="M 310.431654 341.634029 
L 311.491818 340.85468 
L 310.431654 339.31015 
L 308.81706 340.85468 
z
M 319.90585 335.423185 
L 322.016394 333.870157 
L 319.90585 330.054582 
L 316.19349 333.870157 
z
M 319.535307 333.870157 
L 319.90585 333.489313 
L 320.11651 333.870157 
L 319.90585 334.02517 
z
M 329.380045 328.945088 
L 332.176364 326.885634 
L 329.380045 319.901112 
L 323.342711 326.885634 
z
M 327.067825 326.885634 
L 329.380045 324.210653 
L 330.450999 326.885634 
L 329.380045 327.674378 
z
M 338.85424 322.259972 
L 342.05477 319.901112 
L 348.328436 315.404068 
L 351.701714 312.916589 
L 357.802631 308.395415 
L 361.142235 305.932066 
L 367.276826 301.236623 
L 370.380023 298.947543 
L 376.751022 293.915156 
L 379.397815 291.96302 
L 386.225217 286.401264 
L 388.154717 284.978497 
L 395.699413 278.643333 
L 396.5802 277.993974 
L 404.72919 271.009451 
L 405.173608 270.666684 
L 413.136309 264.024928 
L 414.647803 262.805384 
L 421.63336 257.040406 
L 424.121999 254.955967 
L 430.117953 250.055883 
L 433.596194 247.046631 
L 438.504169 243.07136 
L 433.596194 239.650533 
L 429.033659 243.07136 
L 424.121999 246.228658 
L 419.030693 250.055883 
L 414.647803 252.981884 
L 409.253558 257.040406 
L 405.173608 259.864226 
L 399.641811 264.024928 
L 395.699413 266.851158 
L 390.16475 271.009451 
L 386.225217 273.933804 
L 380.812715 277.993974 
L 376.751022 281.11651 
L 371.593485 284.978497 
L 367.276826 288.417042 
L 362.532507 291.96302 
L 357.802631 295.869492 
L 353.676899 298.947543 
L 348.328436 303.530732 
L 345.104273 305.932066 
L 338.85424 311.492264 
L 336.938895 312.916589 
L 329.380045 319.901112 
z
M 334.180216 319.901112 
L 338.85424 312.916589 
L 340.433198 319.901112 
L 338.85424 321.064838 
z
M 338.85424 312.916589 
L 346.705308 305.932066 
L 348.328436 304.723172 
L 355.068445 298.947543 
L 357.802631 296.907672 
L 363.789514 291.96302 
L 367.276826 289.356548 
L 372.772916 284.978497 
L 376.751022 281.999674 
L 381.961505 277.993974 
L 386.225217 274.795565 
L 391.325669 271.009451 
L 395.699413 267.723377 
L 400.858498 264.024928 
L 405.173608 260.779349 
L 410.575758 257.040406 
L 414.647803 253.97668 
L 419.921109 257.040406 
L 414.647803 261.392313 
L 411.384959 264.024928 
L 405.173608 269.205868 
L 402.835156 271.009451 
L 395.699413 277.031366 
L 394.376725 277.993974 
L 386.225217 284.964288 
L 386.204013 284.978497 
L 377.637965 291.96302 
L 376.751022 292.617183 
L 368.736791 298.947543 
L 367.276826 300.024489 
L 359.558583 305.932066 
L 357.802631 307.227286 
L 350.125429 312.916589 
L 348.328436 314.241704 
z
M 420.520809 250.055883 
L 424.121999 247.348805 
L 428.363066 250.055883 
L 424.121999 253.521817 
z
M 430.776219 243.07136 
L 433.596194 240.957042 
L 436.629676 243.07136 
L 433.596194 245.528364 
z
M 443.070389 239.00519 
L 446.702449 236.086837 
L 443.070389 233.326065 
L 439.369729 236.086837 
z
M 441.486402 236.086837 
L 443.070389 234.905148 
L 444.625014 236.086837 
L 443.070389 237.335975 
z
M 452.544585 230.747998 
L 454.607141 229.102314 
L 452.544585 227.386792 
L 450.225701 229.102314 
z
M 462.01878 222.172602 
L 462.087888 222.117791 
L 462.01878 222.05437 
L 461.931911 222.117791 
z
" clip-path="url(#p140b648cae)" style="fill: #6dafd7"/>
    <path d="M 319.90585 334.02517 
L 320.11651 333.870157 
L 319.90585 333.489313 
L 319.535307 333.870157 
z
M 329.380045 327.674378 
L 330.450999 326.885634 
L 329.380045 324.210653 
L 327.067825 326.885634 
z
M 338.85424 321.064838 
L 340.433198 319.901112 
L 338.85424 312.916589 
L 334.180216 319.901112 
z
M 337.772368 319.901112 
L 338.85424 318.28444 
L 339.219714 319.901112 
L 338.85424 320.170473 
z
M 348.328436 314.241704 
L 350.125429 312.916589 
L 357.802631 307.227286 
L 359.558583 305.932066 
L 367.276826 300.024489 
L 368.736791 298.947543 
L 376.751022 292.617183 
L 377.637965 291.96302 
L 386.204013 284.978497 
L 386.225217 284.964288 
L 394.376725 277.993974 
L 395.699413 277.031366 
L 402.835156 271.009451 
L 405.173608 269.205868 
L 411.384959 264.024928 
L 414.647803 261.392313 
L 419.921109 257.040406 
L 414.647803 253.97668 
L 410.575758 257.040406 
L 405.173608 260.779349 
L 400.858498 264.024928 
L 395.699413 267.723377 
L 391.325669 271.009451 
L 386.225217 274.795565 
L 381.961505 277.993974 
L 376.751022 281.999674 
L 372.772916 284.978497 
L 367.276826 289.356548 
L 363.789514 291.96302 
L 357.802631 296.907672 
L 355.068445 298.947543 
L 348.328436 304.723172 
L 346.705308 305.932066 
L 338.85424 312.916589 
z
M 345.073355 312.916589 
L 347.903425 305.932066 
L 348.328436 305.615521 
L 356.109793 298.947543 
L 357.802631 297.684581 
L 364.73018 291.96302 
L 367.276826 290.059616 
L 375.73133 291.96302 
L 367.507097 298.947543 
L 367.276826 299.117403 
L 358.373475 305.932066 
L 357.802631 306.35313 
L 348.945835 312.916589 
L 348.328436 313.371863 
z
M 373.65553 284.978497 
L 376.751022 282.660579 
L 384.106698 284.978497 
L 376.751022 291.368137 
z
M 382.821189 277.993974 
L 386.225217 275.440454 
L 392.733153 277.993974 
L 386.225217 283.558878 
z
M 392.194428 271.009451 
L 395.699413 268.376093 
L 401.417779 271.009451 
L 395.699413 275.835229 
z
M 401.768991 264.024928 
L 405.173608 261.46417 
L 410.074356 264.024928 
L 405.173608 268.112684 
z
M 411.56521 257.040406 
L 414.647803 254.721124 
L 418.639767 257.040406 
L 414.647803 260.334858 
z
M 424.121999 253.521817 
L 428.363066 250.055883 
L 424.121999 247.348805 
L 420.520809 250.055883 
z
M 421.63592 250.055883 
L 424.121999 248.187053 
L 427.049816 250.055883 
L 424.121999 252.448588 
z
M 433.596194 245.528364 
L 436.629676 243.07136 
L 433.596194 240.957042 
L 430.776219 243.07136 
z
M 432.080243 243.07136 
L 433.596194 241.934753 
L 435.226922 243.07136 
L 433.596194 244.392187 
z
M 443.070389 237.335975 
L 444.625014 236.086837 
L 443.070389 234.905148 
L 441.486402 236.086837 
z
" clip-path="url(#p140b648cae)" style="fill: #4a98c9"/>
    <path d="M 338.85424 320.170473 
L 339.219714 319.901112 
L 338.85424 318.28444 
L 337.772368 319.901112 
z
M 348.328436 313.371863 
L 348.945835 312.916589 
L 357.802631 306.35313 
L 358.373475 305.932066 
L 367.276826 299.117403 
L 367.507097 298.947543 
L 375.73133 291.96302 
L 367.276826 290.059616 
L 364.73018 291.96302 
L 357.802631 297.684581 
L 356.109793 298.947543 
L 348.328436 305.615521 
L 347.903425 305.932066 
L 345.073355 312.916589 
z
M 356.654834 298.947543 
L 357.802631 298.091215 
L 365.06274 298.947543 
L 357.802631 305.677349 
z
M 365.222524 291.96302 
L 367.276826 290.427602 
L 374.096818 291.96302 
L 367.276826 298.015892 
z
M 376.751022 291.368137 
L 384.106698 284.978497 
L 376.751022 282.660579 
L 373.65553 284.978497 
z
M 374.117489 284.978497 
L 376.751022 283.006496 
L 383.008965 284.978497 
L 376.751022 290.414571 
z
M 386.225217 283.558878 
L 392.733153 277.993974 
L 386.225217 275.440454 
L 382.821189 277.993974 
z
M 383.271147 277.993974 
L 386.225217 275.777989 
L 391.872908 277.993974 
L 386.225217 282.823287 
z
M 395.699413 275.835229 
L 401.417779 271.009451 
L 395.699413 268.376093 
L 392.194428 271.009451 
z
M 392.649137 271.009451 
L 395.699413 268.717723 
L 400.675924 271.009451 
L 395.699413 275.209172 
z
M 405.173608 268.112684 
L 410.074356 264.024928 
L 405.173608 261.46417 
L 401.768991 264.024928 
z
M 402.245543 264.024928 
L 405.173608 261.822605 
L 409.388388 264.024928 
L 405.173608 267.540512 
z
M 414.647803 260.334858 
L 418.639767 257.040406 
L 414.647803 254.721124 
L 411.56521 257.040406 
z
M 412.083089 257.040406 
L 414.647803 255.110766 
L 417.969113 257.040406 
L 414.647803 259.781387 
z
M 424.121999 252.448588 
L 427.049816 250.055883 
L 424.121999 248.187053 
L 421.63592 250.055883 
z
M 422.219568 250.055883 
L 424.121999 248.625792 
L 426.362462 250.055883 
L 424.121999 251.886861 
z
M 433.596194 244.392187 
L 435.226922 243.07136 
L 433.596194 241.934753 
L 432.080243 243.07136 
z
M 432.762768 243.07136 
L 433.596194 242.446486 
L 434.492721 243.07136 
L 433.596194 243.797512 
z
" clip-path="url(#p140b648cae)" style="fill: #3787c0"/>
    <path d="M 357.802631 305.677349 
L 365.06274 298.947543 
L 357.802631 298.091215 
L 356.654834 298.947543 
z
M 367.276826 298.015892 
L 374.096818 291.96302 
L 367.276826 290.427602 
L 365.222524 291.96302 
z
M 366.827343 291.96302 
L 367.276826 291.627069 
L 368.769048 291.96302 
L 367.276826 293.287395 
z
M 376.751022 290.414571 
L 383.008965 284.978497 
L 376.751022 283.006496 
L 374.117489 284.978497 
z
M 375.623268 284.978497 
L 376.751022 284.13403 
L 379.430851 284.978497 
L 376.751022 287.306378 
z
M 386.225217 282.823287 
L 391.872908 277.993974 
L 386.225217 275.777989 
L 383.271147 277.993974 
z
M 384.737806 277.993974 
L 386.225217 276.878198 
L 389.068899 277.993974 
L 386.225217 280.425593 
z
M 395.699413 275.209172 
L 400.675924 271.009451 
L 395.699413 268.717723 
L 392.649137 271.009451 
z
M 394.131281 271.009451 
L 395.699413 269.831285 
L 398.257813 271.009451 
L 395.699413 273.168507 
z
M 405.173608 267.540512 
L 409.388388 264.024928 
L 405.173608 261.822605 
L 402.245543 264.024928 
z
M 403.798886 264.024928 
L 405.173608 262.990941 
L 407.15244 264.024928 
L 405.173608 265.675489 
z
M 414.647803 259.781387 
L 417.969113 257.040406 
L 414.647803 255.110766 
L 412.083089 257.040406 
z
M 413.77114 257.040406 
L 414.647803 256.380822 
L 415.783084 257.040406 
L 414.647803 257.97732 
z
M 424.121999 251.886861 
L 426.362462 250.055883 
L 424.121999 248.625792 
L 422.219568 250.055883 
z
M 433.596194 243.797512 
L 434.492721 243.07136 
L 433.596194 242.446486 
L 432.762768 243.07136 
z
" clip-path="url(#p140b648cae)" style="fill: #1e6db2"/>
    <path d="M 367.276826 293.287395 
L 368.769048 291.96302 
L 367.276826 291.627069 
L 366.827343 291.96302 
z
M 376.751022 287.306378 
L 379.430851 284.978497 
L 376.751022 284.13403 
L 375.623268 284.978497 
z
M 386.225217 280.425593 
L 389.068899 277.993974 
L 386.225217 276.878198 
L 384.737806 277.993974 
z
M 386.035812 277.993974 
L 386.225217 277.851893 
L 386.587328 277.993974 
L 386.225217 278.303613 
z
M 395.699413 273.168507 
L 398.257813 271.009451 
L 395.699413 269.831285 
L 394.131281 271.009451 
z
M 395.442991 271.009451 
L 395.699413 270.816797 
L 396.117764 271.009451 
L 395.699413 271.362502 
z
M 405.173608 265.675489 
L 407.15244 264.024928 
L 405.173608 262.990941 
L 403.798886 264.024928 
z
M 414.647803 257.97732 
L 415.783084 257.040406 
L 414.647803 256.380822 
L 413.77114 257.040406 
z
" clip-path="url(#p140b648cae)" style="fill: #08488e"/>
    <path d="M 386.225217 278.303613 
L 386.587328 277.993974 
L 386.225217 277.851893 
L 386.035812 277.993974 
z
M 395.699413 271.362502 
L 396.117764 271.009451 
L 395.699413 270.816797 
L 395.442991 271.009451 
z
" clip-path="url(#p140b648cae)" style="fill: #083370"/>
   </g>
   <g id="matplotlib.axis_1">
    <g id="xtick_1">
     <g id="line2d_1">
      <defs>
       <path id="m65ff4836cd" d="M 0 0 
L 0 3.5 
" style="stroke: #000000; stroke-width: 0.8"/>
      </defs>
      <g>
       <use xlink:href="#m65ff4836cd" x="102.17" y="499.48" style="stroke: #000000; stroke-width: 0.8"/>
      </g>
     </g>
     <g id="text_1">
      <!-- −80 -->
      <g transform="translate(78.954844 523.196563) scale(0.22 -0.22)">
       <defs>
        <path id="DejaVuSans-2212" d="M 678 2272 
L 4684 2272 
L 4684 1741 
L 678 1741 
L 678 2272 
z
" transform="scale(0.015625)"/>
        <path id="DejaVuSans-38" d="M 2034 2216 
Q 1584 2216 1326 1975 
Q 1069 1734 1069 1313 
Q 1069 891 1326 650 
Q 1584 409 2034 409 
Q 2484 409 2743 651 
Q 3003 894 3003 1313 
Q 3003 1734 2745 1975 
Q 2488 2216 2034 2216 
z
M 1403 2484 
Q 997 2584 770 2862 
Q 544 3141 544 3541 
Q 544 4100 942 4425 
Q 1341 4750 2034 4750 
Q 2731 4750 3128 4425 
Q 3525 4100 3525 3541 
Q 3525 3141 3298 2862 
Q 3072 2584 2669 2484 
Q 3125 2378 3379 2068 
Q 3634 1759 3634 1313 
Q 3634 634 3220 271 
Q 2806 -91 2034 -91 
Q 1263 -91 848 271 
Q 434 634 434 1313 
Q 434 1759 690 2068 
Q 947 2378 1403 2484 
z
M 1172 3481 
Q 1172 3119 1398 2916 
Q 1625 2713 2034 2713 
Q 2441 2713 2670 2916 
Q 2900 3119 2900 3481 
Q 2900 3844 2670 4047 
Q 2441 4250 2034 4250 
Q 1625 4250 1398 4047 
Q 1172 3844 1172 3481 
z
" transform="scale(0.015625)"/>
        <path id="DejaVuSans-30" d="M 2034 4250 
Q 1547 4250 1301 3770 
Q 1056 3291 1056 2328 
Q 1056 1369 1301 889 
Q 1547 409 2034 409 
Q 2525 409 2770 889 
Q 3016 1369 3016 2328 
Q 3016 3291 2770 3770 
Q 2525 4250 2034 4250 
z
M 2034 4750 
Q 2819 4750 3233 4129 
Q 3647 3509 3647 2328 
Q 3647 1150 3233 529 
Q 2819 -91 2034 -91 
Q 1250 -91 836 529 
Q 422 1150 422 2328 
Q 422 3509 836 4129 
Q 1250 4750 2034 4750 
z
" transform="scale(0.015625)"/>
       </defs>
       <use xlink:href="#DejaVuSans-2212"/>
       <use xlink:href="#DejaVuSans-38" x="83.789062"/>
       <use xlink:href="#DejaVuSans-30" x="147.412109"/>
      </g>
     </g>
    </g>
    <g id="xtick_2">
     <g id="line2d_2">
      <g>
       <use xlink:href="#m65ff4836cd" x="174.67375" y="499.48" style="stroke: #000000; stroke-width: 0.8"/>
      </g>
     </g>
     <g id="text_2">
      <!-- −60 -->
      <g transform="translate(151.458594 523.196563) scale(0.22 -0.22)">
       <defs>
        <path id="DejaVuSans-36" d="M 2113 2584 
Q 1688 2584 1439 2293 
Q 1191 2003 1191 1497 
Q 1191 994 1439 701 
Q 1688 409 2113 409 
Q 2538 409 2786 701 
Q 3034 994 3034 1497 
Q 3034 2003 2786 2293 
Q 2538 2584 2113 2584 
z
M 3366 4563 
L 3366 3988 
Q 3128 4100 2886 4159 
Q 2644 4219 2406 4219 
Q 1781 4219 1451 3797 
Q 1122 3375 1075 2522 
Q 1259 2794 1537 2939 
Q 1816 3084 2150 3084 
Q 2853 3084 3261 2657 
Q 3669 2231 3669 1497 
Q 3669 778 3244 343 
Q 2819 -91 2113 -91 
Q 1303 -91 875 529 
Q 447 1150 447 2328 
Q 447 3434 972 4092 
Q 1497 4750 2381 4750 
Q 2619 4750 2861 4703 
Q 3103 4656 3366 4563 
z
" transform="scale(0.015625)"/>
       </defs>
       <use xlink:href="#DejaVuSans-2212"/>
       <use xlink:href="#DejaVuSans-36" x="83.789062"/>
       <use xlink:href="#DejaVuSans-30" x="147.412109"/>
      </g>
     </g>
    </g>
    <g id="xtick_3">
     <g id="line2d_3">
      <g>
       <use xlink:href="#m65ff4836cd" x="247.1775" y="499.48" style="stroke: #000000; stroke-width: 0.8"/>
      </g>
     </g>
     <g id="text_3">
      <!-- −40 -->
      <g transform="translate(223.962344 523.196563) scale(0.22 -0.22)">
       <defs>
        <path id="DejaVuSans-34" d="M 2419 4116 
L 825 1625 
L 2419 1625 
L 2419 4116 
z
M 2253 4666 
L 3047 4666 
L 3047 1625 
L 3713 1625 
L 3713 1100 
L 3047 1100 
L 3047 0 
L 2419 0 
L 2419 1100 
L 313 1100 
L 313 1709 
L 2253 4666 
z
" transform="scale(0.015625)"/>
       </defs>
       <use xlink:href="#DejaVuSans-2212"/>
       <use xlink:href="#DejaVuSans-34" x="83.789062"/>
       <use xlink:href="#DejaVuSans-30" x="147.412109"/>
      </g>
     </g>
    </g>
    <g id="xtick_4">
     <g id="line2d_4">
      <g>
       <use xlink:href="#m65ff4836cd" x="319.68125" y="499.48" style="stroke: #000000; stroke-width: 0.8"/>
      </g>
     </g>
     <g id="text_4">
      <!-- −20 -->
      <g transform="translate(296.466094 523.196563) scale(0.22 -0.22)">
       <defs>
        <path id="DejaVuSans-32" d="M 1228 531 
L 3431 531 
L 3431 0 
L 469 0 
L 469 531 
Q 828 903 1448 1529 
Q 2069 2156 2228 2338 
Q 2531 2678 2651 2914 
Q 2772 3150 2772 3378 
Q 2772 3750 2511 3984 
Q 2250 4219 1831 4219 
Q 1534 4219 1204 4116 
Q 875 4013 500 3803 
L 500 4441 
Q 881 4594 1212 4672 
Q 1544 4750 1819 4750 
Q 2544 4750 2975 4387 
Q 3406 4025 3406 3419 
Q 3406 3131 3298 2873 
Q 3191 2616 2906 2266 
Q 2828 2175 2409 1742 
Q 1991 1309 1228 531 
z
" transform="scale(0.015625)"/>
       </defs>
       <use xlink:href="#DejaVuSans-2212"/>
       <use xlink:href="#DejaVuSans-32" x="83.789062"/>
       <use xlink:href="#DejaVuSans-30" x="147.412109"/>
      </g>
     </g>
    </g>
    <g id="xtick_5">
     <g id="line2d_5">
      <g>
       <use xlink:href="#m65ff4836cd" x="392.185" y="499.48" style="stroke: #000000; stroke-width: 0.8"/>
      </g>
     </g>
     <g id="text_5">
      <!-- 0 -->
      <g transform="translate(385.18625 523.196563) scale(0.22 -0.22)">
       <use xlink:href="#DejaVuSans-30"/>
      </g>
     </g>
    </g>
    <g id="xtick_6">
     <g id="line2d_6">
      <g>
       <use xlink:href="#m65ff4836cd" x="464.68875" y="499.48" style="stroke: #000000; stroke-width: 0.8"/>
      </g>
     </g>
     <g id="text_6">
      <!-- 20 -->
      <g transform="translate(450.69125 523.196563) scale(0.22 -0.22)">
       <use xlink:href="#DejaVuSans-32"/>
       <use xlink:href="#DejaVuSans-30" x="63.623047"/>
      </g>
     </g>
    </g>
    <g id="xtick_7">
     <g id="line2d_7">
      <g>
       <use xlink:href="#m65ff4836cd" x="537.1925" y="499.48" style="stroke: #000000; stroke-width: 0.8"/>
      </g>
     </g>
     <g id="text_7">
      <!-- 40 -->
      <g transform="translate(523.195 523.196563) scale(0.22 -0.22)">
       <use xlink:href="#DejaVuSans-34"/>
       <use xlink:href="#DejaVuSans-30" x="63.623047"/>
      </g>
     </g>
    </g>
    <g id="xtick_8">
     <g id="line2d_8">
      <g>
       <use xlink:href="#m65ff4836cd" x="609.69625" y="499.48" style="stroke: #000000; stroke-width: 0.8"/>
      </g>
     </g>
     <g id="text_8">
      <!-- 60 -->
      <g transform="translate(595.69875 523.196563) scale(0.22 -0.22)">
       <use xlink:href="#DejaVuSans-36"/>
       <use xlink:href="#DejaVuSans-30" x="63.623047"/>
      </g>
     </g>
    </g>
    <g id="xtick_9">
     <g id="line2d_9">
      <g>
       <use xlink:href="#m65ff4836cd" x="682.2" y="499.48" style="stroke: #000000; stroke-width: 0.8"/>
      </g>
     </g>
     <g id="text_9">
      <!-- 80 -->
      <g transform="translate(668.2025 523.196563) scale(0.22 -0.22)">
       <use xlink:href="#DejaVuSans-38"/>
       <use xlink:href="#DejaVuSans-30" x="63.623047"/>
      </g>
     </g>
    </g>
    <g id="text_10">
     <!-- Ground Truth Energy [kJ/mol] -->
     <g transform="translate(232.45125 548.488438) scale(0.22 -0.22)">
      <defs>
       <path id="DejaVuSans-47" d="M 3809 666 
L 3809 1919 
L 2778 1919 
L 2778 2438 
L 4434 2438 
L 4434 434 
Q 4069 175 3628 42 
Q 3188 -91 2688 -91 
Q 1594 -91 976 548 
Q 359 1188 359 2328 
Q 359 3472 976 4111 
Q 1594 4750 2688 4750 
Q 3144 4750 3555 4637 
Q 3966 4525 4313 4306 
L 4313 3634 
Q 3963 3931 3569 4081 
Q 3175 4231 2741 4231 
Q 1884 4231 1454 3753 
Q 1025 3275 1025 2328 
Q 1025 1384 1454 906 
Q 1884 428 2741 428 
Q 3075 428 3337 486 
Q 3600 544 3809 666 
z
" transform="scale(0.015625)"/>
       <path id="DejaVuSans-72" d="M 2631 2963 
Q 2534 3019 2420 3045 
Q 2306 3072 2169 3072 
Q 1681 3072 1420 2755 
Q 1159 2438 1159 1844 
L 1159 0 
L 581 0 
L 581 3500 
L 1159 3500 
L 1159 2956 
Q 1341 3275 1631 3429 
Q 1922 3584 2338 3584 
Q 2397 3584 2469 3576 
Q 2541 3569 2628 3553 
L 2631 2963 
z
" transform="scale(0.015625)"/>
       <path id="DejaVuSans-6f" d="M 1959 3097 
Q 1497 3097 1228 2736 
Q 959 2375 959 1747 
Q 959 1119 1226 758 
Q 1494 397 1959 397 
Q 2419 397 2687 759 
Q 2956 1122 2956 1747 
Q 2956 2369 2687 2733 
Q 2419 3097 1959 3097 
z
M 1959 3584 
Q 2709 3584 3137 3096 
Q 3566 2609 3566 1747 
Q 3566 888 3137 398 
Q 2709 -91 1959 -91 
Q 1206 -91 779 398 
Q 353 888 353 1747 
Q 353 2609 779 3096 
Q 1206 3584 1959 3584 
z
" transform="scale(0.015625)"/>
       <path id="DejaVuSans-75" d="M 544 1381 
L 544 3500 
L 1119 3500 
L 1119 1403 
Q 1119 906 1312 657 
Q 1506 409 1894 409 
Q 2359 409 2629 706 
Q 2900 1003 2900 1516 
L 2900 3500 
L 3475 3500 
L 3475 0 
L 2900 0 
L 2900 538 
Q 2691 219 2414 64 
Q 2138 -91 1772 -91 
Q 1169 -91 856 284 
Q 544 659 544 1381 
z
M 1991 3584 
L 1991 3584 
z
" transform="scale(0.015625)"/>
       <path id="DejaVuSans-6e" d="M 3513 2113 
L 3513 0 
L 2938 0 
L 2938 2094 
Q 2938 2591 2744 2837 
Q 2550 3084 2163 3084 
Q 1697 3084 1428 2787 
Q 1159 2491 1159 1978 
L 1159 0 
L 581 0 
L 581 3500 
L 1159 3500 
L 1159 2956 
Q 1366 3272 1645 3428 
Q 1925 3584 2291 3584 
Q 2894 3584 3203 3211 
Q 3513 2838 3513 2113 
z
" transform="scale(0.015625)"/>
       <path id="DejaVuSans-64" d="M 2906 2969 
L 2906 4863 
L 3481 4863 
L 3481 0 
L 2906 0 
L 2906 525 
Q 2725 213 2448 61 
Q 2172 -91 1784 -91 
Q 1150 -91 751 415 
Q 353 922 353 1747 
Q 353 2572 751 3078 
Q 1150 3584 1784 3584 
Q 2172 3584 2448 3432 
Q 2725 3281 2906 2969 
z
M 947 1747 
Q 947 1113 1208 752 
Q 1469 391 1925 391 
Q 2381 391 2643 752 
Q 2906 1113 2906 1747 
Q 2906 2381 2643 2742 
Q 2381 3103 1925 3103 
Q 1469 3103 1208 2742 
Q 947 2381 947 1747 
z
" transform="scale(0.015625)"/>
       <path id="DejaVuSans-20" transform="scale(0.015625)"/>
       <path id="DejaVuSans-54" d="M -19 4666 
L 3928 4666 
L 3928 4134 
L 2272 4134 
L 2272 0 
L 1638 0 
L 1638 4134 
L -19 4134 
L -19 4666 
z
" transform="scale(0.015625)"/>
       <path id="DejaVuSans-74" d="M 1172 4494 
L 1172 3500 
L 2356 3500 
L 2356 3053 
L 1172 3053 
L 1172 1153 
Q 1172 725 1289 603 
Q 1406 481 1766 481 
L 2356 481 
L 2356 0 
L 1766 0 
Q 1100 0 847 248 
Q 594 497 594 1153 
L 594 3053 
L 172 3053 
L 172 3500 
L 594 3500 
L 594 4494 
L 1172 4494 
z
" transform="scale(0.015625)"/>
       <path id="DejaVuSans-68" d="M 3513 2113 
L 3513 0 
L 2938 0 
L 2938 2094 
Q 2938 2591 2744 2837 
Q 2550 3084 2163 3084 
Q 1697 3084 1428 2787 
Q 1159 2491 1159 1978 
L 1159 0 
L 581 0 
L 581 4863 
L 1159 4863 
L 1159 2956 
Q 1366 3272 1645 3428 
Q 1925 3584 2291 3584 
Q 2894 3584 3203 3211 
Q 3513 2838 3513 2113 
z
" transform="scale(0.015625)"/>
       <path id="DejaVuSans-45" d="M 628 4666 
L 3578 4666 
L 3578 4134 
L 1259 4134 
L 1259 2753 
L 3481 2753 
L 3481 2222 
L 1259 2222 
L 1259 531 
L 3634 531 
L 3634 0 
L 628 0 
L 628 4666 
z
" transform="scale(0.015625)"/>
       <path id="DejaVuSans-65" d="M 3597 1894 
L 3597 1613 
L 953 1613 
Q 991 1019 1311 708 
Q 1631 397 2203 397 
Q 2534 397 2845 478 
Q 3156 559 3463 722 
L 3463 178 
Q 3153 47 2828 -22 
Q 2503 -91 2169 -91 
Q 1331 -91 842 396 
Q 353 884 353 1716 
Q 353 2575 817 3079 
Q 1281 3584 2069 3584 
Q 2775 3584 3186 3129 
Q 3597 2675 3597 1894 
z
M 3022 2063 
Q 3016 2534 2758 2815 
Q 2500 3097 2075 3097 
Q 1594 3097 1305 2825 
Q 1016 2553 972 2059 
L 3022 2063 
z
" transform="scale(0.015625)"/>
       <path id="DejaVuSans-67" d="M 2906 1791 
Q 2906 2416 2648 2759 
Q 2391 3103 1925 3103 
Q 1463 3103 1205 2759 
Q 947 2416 947 1791 
Q 947 1169 1205 825 
Q 1463 481 1925 481 
Q 2391 481 2648 825 
Q 2906 1169 2906 1791 
z
M 3481 434 
Q 3481 -459 3084 -895 
Q 2688 -1331 1869 -1331 
Q 1566 -1331 1297 -1286 
Q 1028 -1241 775 -1147 
L 775 -588 
Q 1028 -725 1275 -790 
Q 1522 -856 1778 -856 
Q 2344 -856 2625 -561 
Q 2906 -266 2906 331 
L 2906 616 
Q 2728 306 2450 153 
Q 2172 0 1784 0 
Q 1141 0 747 490 
Q 353 981 353 1791 
Q 353 2603 747 3093 
Q 1141 3584 1784 3584 
Q 2172 3584 2450 3431 
Q 2728 3278 2906 2969 
L 2906 3500 
L 3481 3500 
L 3481 434 
z
" transform="scale(0.015625)"/>
       <path id="DejaVuSans-79" d="M 2059 -325 
Q 1816 -950 1584 -1140 
Q 1353 -1331 966 -1331 
L 506 -1331 
L 506 -850 
L 844 -850 
Q 1081 -850 1212 -737 
Q 1344 -625 1503 -206 
L 1606 56 
L 191 3500 
L 800 3500 
L 1894 763 
L 2988 3500 
L 3597 3500 
L 2059 -325 
z
" transform="scale(0.015625)"/>
       <path id="DejaVuSans-5b" d="M 550 4863 
L 1875 4863 
L 1875 4416 
L 1125 4416 
L 1125 -397 
L 1875 -397 
L 1875 -844 
L 550 -844 
L 550 4863 
z
" transform="scale(0.015625)"/>
       <path id="DejaVuSans-6b" d="M 581 4863 
L 1159 4863 
L 1159 1991 
L 2875 3500 
L 3609 3500 
L 1753 1863 
L 3688 0 
L 2938 0 
L 1159 1709 
L 1159 0 
L 581 0 
L 581 4863 
z
" transform="scale(0.015625)"/>
       <path id="DejaVuSans-4a" d="M 628 4666 
L 1259 4666 
L 1259 325 
Q 1259 -519 939 -900 
Q 619 -1281 -91 -1281 
L -331 -1281 
L -331 -750 
L -134 -750 
Q 284 -750 456 -515 
Q 628 -281 628 325 
L 628 4666 
z
" transform="scale(0.015625)"/>
       <path id="DejaVuSans-2f" d="M 1625 4666 
L 2156 4666 
L 531 -594 
L 0 -594 
L 1625 4666 
z
" transform="scale(0.015625)"/>
       <path id="DejaVuSans-6d" d="M 3328 2828 
Q 3544 3216 3844 3400 
Q 4144 3584 4550 3584 
Q 5097 3584 5394 3201 
Q 5691 2819 5691 2113 
L 5691 0 
L 5113 0 
L 5113 2094 
Q 5113 2597 4934 2840 
Q 4756 3084 4391 3084 
Q 3944 3084 3684 2787 
Q 3425 2491 3425 1978 
L 3425 0 
L 2847 0 
L 2847 2094 
Q 2847 2600 2669 2842 
Q 2491 3084 2119 3084 
Q 1678 3084 1418 2786 
Q 1159 2488 1159 1978 
L 1159 0 
L 581 0 
L 581 3500 
L 1159 3500 
L 1159 2956 
Q 1356 3278 1631 3431 
Q 1906 3584 2284 3584 
Q 2666 3584 2933 3390 
Q 3200 3197 3328 2828 
z
" transform="scale(0.015625)"/>
       <path id="DejaVuSans-6c" d="M 603 4863 
L 1178 4863 
L 1178 0 
L 603 0 
L 603 4863 
z
" transform="scale(0.015625)"/>
       <path id="DejaVuSans-5d" d="M 1947 4863 
L 1947 -844 
L 622 -844 
L 622 -397 
L 1369 -397 
L 1369 4416 
L 622 4416 
L 622 4863 
L 1947 4863 
z
" transform="scale(0.015625)"/>
      </defs>
      <use xlink:href="#DejaVuSans-47"/>
      <use xlink:href="#DejaVuSans-72" x="77.490234"/>
      <use xlink:href="#DejaVuSans-6f" x="116.353516"/>
      <use xlink:href="#DejaVuSans-75" x="177.535156"/>
      <use xlink:href="#DejaVuSans-6e" x="240.914062"/>
      <use xlink:href="#DejaVuSans-64" x="304.292969"/>
      <use xlink:href="#DejaVuSans-20" x="367.769531"/>
      <use xlink:href="#DejaVuSans-54" x="399.556641"/>
      <use xlink:href="#DejaVuSans-72" x="445.890625"/>
      <use xlink:href="#DejaVuSans-75" x="487.003906"/>
      <use xlink:href="#DejaVuSans-74" x="550.382812"/>
      <use xlink:href="#DejaVuSans-68" x="589.591797"/>
      <use xlink:href="#DejaVuSans-20" x="652.970703"/>
      <use xlink:href="#DejaVuSans-45" x="684.757812"/>
      <use xlink:href="#DejaVuSans-6e" x="747.941406"/>
      <use xlink:href="#DejaVuSans-65" x="811.320312"/>
      <use xlink:href="#DejaVuSans-72" x="872.84375"/>
      <use xlink:href="#DejaVuSans-67" x="912.207031"/>
      <use xlink:href="#DejaVuSans-79" x="975.683594"/>
      <use xlink:href="#DejaVuSans-20" x="1034.863281"/>
      <use xlink:href="#DejaVuSans-5b" x="1066.650391"/>
      <use xlink:href="#DejaVuSans-6b" x="1105.664062"/>
      <use xlink:href="#DejaVuSans-4a" x="1163.574219"/>
      <use xlink:href="#DejaVuSans-2f" x="1193.066406"/>
      <use xlink:href="#DejaVuSans-6d" x="1226.757812"/>
      <use xlink:href="#DejaVuSans-6f" x="1324.169922"/>
      <use xlink:href="#DejaVuSans-6c" x="1385.351562"/>
      <use xlink:href="#DejaVuSans-5d" x="1413.134766"/>
     </g>
    </g>
   </g>
   <g id="matplotlib.axis_2">
    <g id="ytick_1">
     <g id="line2d_10">
      <defs>
       <path id="m035ceec452" d="M 0 0 
L -3.5 0 
" style="stroke: #000000; stroke-width: 0.8"/>
      </defs>
      <g>
       <use xlink:href="#m035ceec452" x="102.17" y="499.48" style="stroke: #000000; stroke-width: 0.8"/>
      </g>
     </g>
     <g id="text_11">
      <!-- −80 -->
      <g transform="translate(48.739688 507.838281) scale(0.22 -0.22)">
       <use xlink:href="#DejaVuSans-2212"/>
       <use xlink:href="#DejaVuSans-38" x="83.789062"/>
       <use xlink:href="#DejaVuSans-30" x="147.412109"/>
      </g>
     </g>
    </g>
    <g id="ytick_2">
     <g id="line2d_11">
      <g>
       <use xlink:href="#m035ceec452" x="102.17" y="441.05" style="stroke: #000000; stroke-width: 0.8"/>
      </g>
     </g>
     <g id="text_12">
      <!-- −60 -->
      <g transform="translate(48.739688 449.408281) scale(0.22 -0.22)">
       <use xlink:href="#DejaVuSans-2212"/>
       <use xlink:href="#DejaVuSans-36" x="83.789062"/>
       <use xlink:href="#DejaVuSans-30" x="147.412109"/>
      </g>
     </g>
    </g>
    <g id="ytick_3">
     <g id="line2d_12">
      <g>
       <use xlink:href="#m035ceec452" x="102.17" y="382.62" style="stroke: #000000; stroke-width: 0.8"/>
      </g>
     </g>
     <g id="text_13">
      <!-- −40 -->
      <g transform="translate(48.739688 390.978281) scale(0.22 -0.22)">
       <use xlink:href="#DejaVuSans-2212"/>
       <use xlink:href="#DejaVuSans-34" x="83.789062"/>
       <use xlink:href="#DejaVuSans-30" x="147.412109"/>
      </g>
     </g>
    </g>
    <g id="ytick_4">
     <g id="line2d_13">
      <g>
       <use xlink:href="#m035ceec452" x="102.17" y="324.19" style="stroke: #000000; stroke-width: 0.8"/>
      </g>
     </g>
     <g id="text_14">
      <!-- −20 -->
      <g transform="translate(48.739688 332.548281) scale(0.22 -0.22)">
       <use xlink:href="#DejaVuSans-2212"/>
       <use xlink:href="#DejaVuSans-32" x="83.789062"/>
       <use xlink:href="#DejaVuSans-30" x="147.412109"/>
      </g>
     </g>
    </g>
    <g id="ytick_5">
     <g id="line2d_14">
      <g>
       <use xlink:href="#m035ceec452" x="102.17" y="265.76" style="stroke: #000000; stroke-width: 0.8"/>
      </g>
     </g>
     <g id="text_15">
      <!-- 0 -->
      <g transform="translate(81.1725 274.118281) scale(0.22 -0.22)">
       <use xlink:href="#DejaVuSans-30"/>
      </g>
     </g>
    </g>
    <g id="ytick_6">
     <g id="line2d_15">
      <g>
       <use xlink:href="#m035ceec452" x="102.17" y="207.33" style="stroke: #000000; stroke-width: 0.8"/>
      </g>
     </g>
     <g id="text_16">
      <!-- 20 -->
      <g transform="translate(67.175 215.688281) scale(0.22 -0.22)">
       <use xlink:href="#DejaVuSans-32"/>
       <use xlink:href="#DejaVuSans-30" x="63.623047"/>
      </g>
     </g>
    </g>
    <g id="ytick_7">
     <g id="line2d_16">
      <g>
       <use xlink:href="#m035ceec452" x="102.17" y="148.9" style="stroke: #000000; stroke-width: 0.8"/>
      </g>
     </g>
     <g id="text_17">
      <!-- 40 -->
      <g transform="translate(67.175 157.258281) scale(0.22 -0.22)">
       <use xlink:href="#DejaVuSans-34"/>
       <use xlink:href="#DejaVuSans-30" x="63.623047"/>
      </g>
     </g>
    </g>
    <g id="ytick_8">
     <g id="line2d_17">
      <g>
       <use xlink:href="#m035ceec452" x="102.17" y="90.47" style="stroke: #000000; stroke-width: 0.8"/>
      </g>
     </g>
     <g id="text_18">
      <!-- 60 -->
      <g transform="translate(67.175 98.828281) scale(0.22 -0.22)">
       <use xlink:href="#DejaVuSans-36"/>
       <use xlink:href="#DejaVuSans-30" x="63.623047"/>
      </g>
     </g>
    </g>
    <g id="ytick_9">
     <g id="line2d_18">
      <g>
       <use xlink:href="#m035ceec452" x="102.17" y="32.04" style="stroke: #000000; stroke-width: 0.8"/>
      </g>
     </g>
     <g id="text_19">
      <!-- 80 -->
      <g transform="translate(67.175 40.398281) scale(0.22 -0.22)">
       <use xlink:href="#DejaVuSans-38"/>
       <use xlink:href="#DejaVuSans-30" x="63.623047"/>
      </g>
     </g>
    </g>
    <g id="text_20">
     <!-- Predicted Energy [kJ/mol] -->
     <g transform="translate(40.164375 405.305313) rotate(-90) scale(0.22 -0.22)">
      <defs>
       <path id="DejaVuSans-50" d="M 1259 4147 
L 1259 2394 
L 2053 2394 
Q 2494 2394 2734 2622 
Q 2975 2850 2975 3272 
Q 2975 3691 2734 3919 
Q 2494 4147 2053 4147 
L 1259 4147 
z
M 628 4666 
L 2053 4666 
Q 2838 4666 3239 4311 
Q 3641 3956 3641 3272 
Q 3641 2581 3239 2228 
Q 2838 1875 2053 1875 
L 1259 1875 
L 1259 0 
L 628 0 
L 628 4666 
z
" transform="scale(0.015625)"/>
       <path id="DejaVuSans-69" d="M 603 3500 
L 1178 3500 
L 1178 0 
L 603 0 
L 603 3500 
z
M 603 4863 
L 1178 4863 
L 1178 4134 
L 603 4134 
L 603 4863 
z
" transform="scale(0.015625)"/>
       <path id="DejaVuSans-63" d="M 3122 3366 
L 3122 2828 
Q 2878 2963 2633 3030 
Q 2388 3097 2138 3097 
Q 1578 3097 1268 2742 
Q 959 2388 959 1747 
Q 959 1106 1268 751 
Q 1578 397 2138 397 
Q 2388 397 2633 464 
Q 2878 531 3122 666 
L 3122 134 
Q 2881 22 2623 -34 
Q 2366 -91 2075 -91 
Q 1284 -91 818 406 
Q 353 903 353 1747 
Q 353 2603 823 3093 
Q 1294 3584 2113 3584 
Q 2378 3584 2631 3529 
Q 2884 3475 3122 3366 
z
" transform="scale(0.015625)"/>
      </defs>
      <use xlink:href="#DejaVuSans-50"/>
      <use xlink:href="#DejaVuSans-72" x="58.552734"/>
      <use xlink:href="#DejaVuSans-65" x="97.416016"/>
      <use xlink:href="#DejaVuSans-64" x="158.939453"/>
      <use xlink:href="#DejaVuSans-69" x="222.416016"/>
      <use xlink:href="#DejaVuSans-63" x="250.199219"/>
      <use xlink:href="#DejaVuSans-74" x="305.179688"/>
      <use xlink:href="#DejaVuSans-65" x="344.388672"/>
      <use xlink:href="#DejaVuSans-64" x="405.912109"/>
      <use xlink:href="#DejaVuSans-20" x="469.388672"/>
      <use xlink:href="#DejaVuSans-45" x="501.175781"/>
      <use xlink:href="#DejaVuSans-6e" x="564.359375"/>
      <use xlink:href="#DejaVuSans-65" x="627.738281"/>
      <use xlink:href="#DejaVuSans-72" x="689.261719"/>
      <use xlink:href="#DejaVuSans-67" x="728.625"/>
      <use xlink:href="#DejaVuSans-79" x="792.101562"/>
      <use xlink:href="#DejaVuSans-20" x="851.28125"/>
      <use xlink:href="#DejaVuSans-5b" x="883.068359"/>
      <use xlink:href="#DejaVuSans-6b" x="922.082031"/>
      <use xlink:href="#DejaVuSans-4a" x="979.992188"/>
      <use xlink:href="#DejaVuSans-2f" x="1009.484375"/>
      <use xlink:href="#DejaVuSans-6d" x="1043.175781"/>
      <use xlink:href="#DejaVuSans-6f" x="1140.587891"/>
      <use xlink:href="#DejaVuSans-6c" x="1201.769531"/>
      <use xlink:href="#DejaVuSans-5d" x="1229.552734"/>
     </g>
    </g>
   </g>
   <g id="line2d_19">
    <path d="M 102.17 499.48 
L 682.2 32.04 
" clip-path="url(#p140b648cae)" style="fill: none; stroke-dasharray: 5.55,2.4; stroke-dashoffset: 0; stroke: #ff0000; stroke-width: 1.5"/>
   </g>
   <g id="patch_3">
    <path d="M 102.17 499.48 
L 102.17 32.04 
" style="fill: none; stroke: #000000; stroke-width: 0.8; stroke-linejoin: miter; stroke-linecap: square"/>
   </g>
   <g id="patch_4">
    <path d="M 682.2 499.48 
L 682.2 32.04 
" style="fill: none; stroke: #000000; stroke-width: 0.8; stroke-linejoin: miter; stroke-linecap: square"/>
   </g>
   <g id="patch_5">
    <path d="M 102.17 499.48 
L 682.2 499.48 
" style="fill: none; stroke: #000000; stroke-width: 0.8; stroke-linejoin: miter; stroke-linecap: square"/>
   </g>
   <g id="patch_6">
    <path d="M 102.17 32.04 
L 682.2 32.04 
" style="fill: none; stroke: #000000; stroke-width: 0.8; stroke-linejoin: miter; stroke-linecap: square"/>
   </g>
   <g id="text_21">
    <!-- R2 Score: 0.971 -->
    <g transform="translate(160.173 78.784) scale(0.22 -0.22)">
     <defs>
      <path id="DejaVuSans-52" d="M 2841 2188 
Q 3044 2119 3236 1894 
Q 3428 1669 3622 1275 
L 4263 0 
L 3584 0 
L 2988 1197 
Q 2756 1666 2539 1819 
Q 2322 1972 1947 1972 
L 1259 1972 
L 1259 0 
L 628 0 
L 628 4666 
L 2053 4666 
Q 2853 4666 3247 4331 
Q 3641 3997 3641 3322 
Q 3641 2881 3436 2590 
Q 3231 2300 2841 2188 
z
M 1259 4147 
L 1259 2491 
L 2053 2491 
Q 2509 2491 2742 2702 
Q 2975 2913 2975 3322 
Q 2975 3731 2742 3939 
Q 2509 4147 2053 4147 
L 1259 4147 
z
" transform="scale(0.015625)"/>
      <path id="DejaVuSans-53" d="M 3425 4513 
L 3425 3897 
Q 3066 4069 2747 4153 
Q 2428 4238 2131 4238 
Q 1616 4238 1336 4038 
Q 1056 3838 1056 3469 
Q 1056 3159 1242 3001 
Q 1428 2844 1947 2747 
L 2328 2669 
Q 3034 2534 3370 2195 
Q 3706 1856 3706 1288 
Q 3706 609 3251 259 
Q 2797 -91 1919 -91 
Q 1588 -91 1214 -16 
Q 841 59 441 206 
L 441 856 
Q 825 641 1194 531 
Q 1563 422 1919 422 
Q 2459 422 2753 634 
Q 3047 847 3047 1241 
Q 3047 1584 2836 1778 
Q 2625 1972 2144 2069 
L 1759 2144 
Q 1053 2284 737 2584 
Q 422 2884 422 3419 
Q 422 4038 858 4394 
Q 1294 4750 2059 4750 
Q 2388 4750 2728 4690 
Q 3069 4631 3425 4513 
z
" transform="scale(0.015625)"/>
      <path id="DejaVuSans-3a" d="M 750 794 
L 1409 794 
L 1409 0 
L 750 0 
L 750 794 
z
M 750 3309 
L 1409 3309 
L 1409 2516 
L 750 2516 
L 750 3309 
z
" transform="scale(0.015625)"/>
      <path id="DejaVuSans-2e" d="M 684 794 
L 1344 794 
L 1344 0 
L 684 0 
L 684 794 
z
" transform="scale(0.015625)"/>
      <path id="DejaVuSans-39" d="M 703 97 
L 703 672 
Q 941 559 1184 500 
Q 1428 441 1663 441 
Q 2288 441 2617 861 
Q 2947 1281 2994 2138 
Q 2813 1869 2534 1725 
Q 2256 1581 1919 1581 
Q 1219 1581 811 2004 
Q 403 2428 403 3163 
Q 403 3881 828 4315 
Q 1253 4750 1959 4750 
Q 2769 4750 3195 4129 
Q 3622 3509 3622 2328 
Q 3622 1225 3098 567 
Q 2575 -91 1691 -91 
Q 1453 -91 1209 -44 
Q 966 3 703 97 
z
M 1959 2075 
Q 2384 2075 2632 2365 
Q 2881 2656 2881 3163 
Q 2881 3666 2632 3958 
Q 2384 4250 1959 4250 
Q 1534 4250 1286 3958 
Q 1038 3666 1038 3163 
Q 1038 2656 1286 2365 
Q 1534 2075 1959 2075 
z
" transform="scale(0.015625)"/>
      <path id="DejaVuSans-37" d="M 525 4666 
L 3525 4666 
L 3525 4397 
L 1831 0 
L 1172 0 
L 2766 4134 
L 525 4134 
L 525 4666 
z
" transform="scale(0.015625)"/>
      <path id="DejaVuSans-31" d="M 794 531 
L 1825 531 
L 1825 4091 
L 703 3866 
L 703 4441 
L 1819 4666 
L 2450 4666 
L 2450 531 
L 3481 531 
L 3481 0 
L 794 0 
L 794 531 
z
" transform="scale(0.015625)"/>
     </defs>
     <use xlink:href="#DejaVuSans-52"/>
     <use xlink:href="#DejaVuSans-32" x="69.482422"/>
     <use xlink:href="#DejaVuSans-20" x="133.105469"/>
     <use xlink:href="#DejaVuSans-53" x="164.892578"/>
     <use xlink:href="#DejaVuSans-63" x="228.369141"/>
     <use xlink:href="#DejaVuSans-6f" x="283.349609"/>
     <use xlink:href="#DejaVuSans-72" x="344.53125"/>
     <use xlink:href="#DejaVuSans-65" x="383.394531"/>
     <use xlink:href="#DejaVuSans-3a" x="444.917969"/>
     <use xlink:href="#DejaVuSans-20" x="478.609375"/>
     <use xlink:href="#DejaVuSans-30" x="510.396484"/>
     <use xlink:href="#DejaVuSans-2e" x="574.019531"/>
     <use xlink:href="#DejaVuSans-39" x="605.806641"/>
     <use xlink:href="#DejaVuSans-37" x="669.429688"/>
     <use xlink:href="#DejaVuSans-31" x="733.052734"/>
    </g>
   </g>
  </g>
 </g>
 <defs>
  <clipPath id="p140b648cae">
   <rect x="102.17" y="32.04" width="580.03" height="467.44"/>
  </clipPath>
 </defs>
</svg>
