<?xml version="1.0" encoding="utf-8" standalone="no"?>
<!DOCTYPE svg PUBLIC "-//W3C//DTD SVG 1.1//EN"
  "http://www.w3.org/Graphics/SVG/1.1/DTD/svg11.dtd">
<svg xmlns:xlink="http://www.w3.org/1999/xlink" width="720pt" height="576pt" viewBox="0 0 720 576" xmlns="http://www.w3.org/2000/svg" version="1.1">
 <metadata>
  <rdf:RDF xmlns:dc="http://purl.org/dc/elements/1.1/" xmlns:cc="http://creativecommons.org/ns#" xmlns:rdf="http://www.w3.org/1999/02/22-rdf-syntax-ns#">
   <cc:Work>
    <dc:type rdf:resource="http://purl.org/dc/dcmitype/StillImage"/>
    <dc:date>2024-12-07T23:00:25.609610</dc:date>
    <dc:format>image/svg+xml</dc:format>
    <dc:creator>
     <cc:Agent>
      <dc:title>Matplotlib v3.8.4, https://matplotlib.org/</dc:title>
     </cc:Agent>
    </dc:creator>
   </cc:Work>
  </rdf:RDF>
 </metadata>
 <defs>
  <style type="text/css">*{stroke-linejoin: round; stroke-linecap: butt}</style>
 </defs>
 <g id="figure_1">
  <g id="patch_1">
   <path d="M 0 576 
L 720 576 
L 720 0 
L 0 0 
z
" style="fill: #ffffff"/>
  </g>
  <g id="axes_1">
   <g id="patch_2">
    <path d="M 83.72 499.48 
L 696.24 499.48 
L 696.24 23.76 
L 83.72 23.76 
z
" style="fill: #ffffff"/>
   </g>
   <g id="QuadContourSet_1">
    <path d="M 84.844163 499.834255 
L 86.254287 500.63932 
L 87.66441 501.17064 
L 89.074534 501.559306 
L 90.484657 501.841591 
L 91.894781 502.042716 
L 93.304905 502.174018 
L 94.715028 502.219811 
L 96.125152 502.156754 
L 97.535275 501.968953 
L 98.945399 501.63352 
L 100.355523 501.089549 
L 101.765646 500.208144 
L 102.3852 499.717622 
L 103.17577 499.402896 
L 104.585893 498.698879 
L 105.996017 497.697086 
L 106.663615 497.186765 
L 107.406141 496.846189 
L 108.816264 496.1 
L 110.226388 495.113517 
L 110.805632 494.655908 
L 111.636511 494.183834 
L 113.046635 493.223525 
L 114.321443 492.125051 
L 114.456759 492.023877 
L 115.866882 491.028512 
L 117.277006 489.870591 
L 117.642516 489.594194 
L 118.687129 488.761876 
L 120.097253 487.583825 
L 120.69498 487.063337 
L 121.507377 486.091685 
L 122.822068 484.53248 
L 122.9175 484.239091 
L 123.788778 482.001622 
L 122.946792 479.470765 
L 122.9175 479.435892 
L 121.669507 476.939908 
L 121.507377 476.681009 
L 120.097253 474.607486 
L 119.954764 474.409051 
L 118.687129 473.124937 
L 117.49736 471.878194 
L 117.277006 471.645329 
L 115.866882 469.94528 
L 115.21215 469.347337 
L 114.456759 468.646794 
L 113.046635 467.872171 
L 111.636511 467.471713 
L 110.226388 467.246079 
L 108.816264 467.129964 
L 107.406141 467.092662 
L 105.996017 467.119778 
L 104.585893 467.223573 
L 103.17577 467.43725 
L 101.765646 467.807983 
L 100.355523 468.403365 
L 98.945399 469.347337 
L 98.945399 469.347337 
L 97.535275 469.960447 
L 96.125152 470.891953 
L 95.120326 471.878194 
L 94.715028 472.116433 
L 93.304905 473.149772 
L 92.216952 474.409051 
L 91.894781 474.658133 
L 90.484657 475.977266 
L 89.747355 476.939908 
L 89.074534 477.609095 
L 87.748675 479.470765 
L 87.66441 479.577756 
L 86.254287 481.546568 
L 85.974701 482.001622 
L 84.844163 483.987756 
L 84.548208 484.53248 
L 83.47871 487.063337 
L 83.434039 487.224202 
L 82.577774 489.594194 
L 82.161427 492.125051 
L 82.09346 494.655908 
L 82.583956 497.186765 
L 83.434039 498.622952 
L 84.693524 499.717622 
z
M 90.140539 497.186765 
L 89.074534 496.724668 
L 87.66441 495.796816 
L 86.625469 494.655908 
L 86.254287 493.758801 
L 85.766073 492.125051 
L 85.884382 489.594194 
L 86.254287 488.366548 
L 86.569357 487.063337 
L 87.66441 484.658043 
L 87.717537 484.53248 
L 89.074534 482.248131 
L 89.2313 482.001622 
L 90.484657 480.249655 
L 91.167758 479.470765 
L 91.894781 478.580933 
L 93.304905 477.244211 
L 93.690487 476.939908 
L 94.715028 475.929086 
L 96.125152 474.91039 
L 97.03986 474.409051 
L 97.535275 474.016617 
L 98.945399 473.142752 
L 100.355523 472.560199 
L 101.765646 472.183379 
L 103.17577 471.960928 
L 104.239314 471.878194 
L 104.585893 471.831869 
L 105.996017 471.78745 
L 107.406141 471.878194 
L 107.406141 471.878194 
L 108.816264 472.027727 
L 110.226388 472.315513 
L 111.636511 472.908552 
L 113.046635 474.242164 
L 113.172774 474.409051 
L 114.379907 476.939908 
L 114.456759 477.352923 
L 114.967327 479.470765 
L 114.899165 482.001622 
L 114.456759 483.449893 
L 114.181845 484.53248 
L 113.046635 486.589403 
L 112.793146 487.063337 
L 111.636511 488.586405 
L 110.772027 489.594194 
L 110.226388 490.177625 
L 108.816264 491.580174 
L 108.187455 492.125051 
L 107.406141 492.894459 
L 105.996017 494.076426 
L 105.122369 494.655908 
L 104.585893 495.145888 
L 103.17577 496.227705 
L 101.765646 496.950627 
L 101.157132 497.186765 
L 100.355523 497.703403 
L 98.945399 498.278245 
L 97.535275 498.567353 
L 96.125152 498.639468 
L 94.715028 498.537354 
L 93.304905 498.294149 
L 91.894781 497.912604 
L 90.484657 497.355319 
z
" clip-path="url(#pa984a87bb4)" style="fill: #edf4fc"/>
    <path d="M 90.484657 497.355319 
L 91.894781 497.912604 
L 93.304905 498.294149 
L 94.715028 498.537354 
L 96.125152 498.639468 
L 97.535275 498.567353 
L 98.945399 498.278245 
L 100.355523 497.703403 
L 101.157132 497.186765 
L 101.765646 496.950627 
L 103.17577 496.227705 
L 104.585893 495.145888 
L 105.122369 494.655908 
L 105.996017 494.076426 
L 107.406141 492.894459 
L 108.187455 492.125051 
L 108.816264 491.580174 
L 110.226388 490.177625 
L 110.772027 489.594194 
L 111.636511 488.586405 
L 112.793146 487.063337 
L 113.046635 486.589403 
L 114.181845 484.53248 
L 114.456759 483.449893 
L 114.899165 482.001622 
L 114.967327 479.470765 
L 114.456759 477.352923 
L 114.379907 476.939908 
L 113.172774 474.409051 
L 113.046635 474.242164 
L 111.636511 472.908552 
L 110.226388 472.315513 
L 108.816264 472.027727 
L 107.406141 471.878194 
L 107.406141 471.878194 
L 105.996017 471.78745 
L 104.585893 471.831869 
L 104.239314 471.878194 
L 103.17577 471.960928 
L 101.765646 472.183379 
L 100.355523 472.560199 
L 98.945399 473.142752 
L 97.535275 474.016617 
L 97.03986 474.409051 
L 96.125152 474.91039 
L 94.715028 475.929086 
L 93.690487 476.939908 
L 93.304905 477.244211 
L 91.894781 478.580933 
L 91.167758 479.470765 
L 90.484657 480.249655 
L 89.2313 482.001622 
L 89.074534 482.248131 
L 87.717537 484.53248 
L 87.66441 484.658043 
L 86.569357 487.063337 
L 86.254287 488.366548 
L 85.884382 489.594194 
L 85.766073 492.125051 
L 86.254287 493.758801 
L 86.625469 494.655908 
L 87.66441 495.796816 
L 89.074534 496.724668 
L 90.140539 497.186765 
z
M 90.495473 494.655908 
L 90.484657 494.648666 
L 89.074534 493.356429 
L 88.26266 492.125051 
L 87.906349 489.594194 
L 88.387771 487.063337 
L 89.074534 485.501248 
L 89.475131 484.53248 
L 90.484657 482.898531 
L 91.083168 482.001622 
L 91.894781 480.953308 
L 93.304905 479.474984 
L 93.309297 479.470765 
L 94.715028 478.072144 
L 96.125152 477.054715 
L 96.312395 476.939908 
L 97.535275 476.012573 
L 98.945399 475.256601 
L 100.355523 474.740695 
L 101.765646 474.410526 
L 101.776518 474.409051 
L 103.17577 474.127342 
L 104.585893 474.007519 
L 105.996017 474.034685 
L 107.406141 474.218277 
L 108.165643 474.409051 
L 108.816264 474.545704 
L 110.226388 475.147314 
L 111.636511 476.63128 
L 111.827507 476.939908 
L 112.516644 479.470765 
L 112.428907 482.001622 
L 111.636511 484.53248 
L 111.636511 484.53248 
L 110.322796 487.063337 
L 110.226388 487.19531 
L 108.816264 489.136474 
L 108.454869 489.594194 
L 107.406141 490.810918 
L 105.996017 492.08498 
L 105.949596 492.125051 
L 104.585893 493.452858 
L 103.17577 494.399969 
L 102.69805 494.655908 
L 101.765646 495.339882 
L 100.355523 496.022604 
L 98.945399 496.416565 
L 97.535275 496.582174 
L 96.125152 496.552039 
L 94.715028 496.358086 
L 93.304905 496.007598 
L 91.894781 495.461291 
z
" clip-path="url(#pa984a87bb4)" style="fill: #d8e7f5"/>
    <path d="M 91.894781 495.461291 
L 93.304905 496.007598 
L 94.715028 496.358086 
L 96.125152 496.552039 
L 97.535275 496.582174 
L 98.945399 496.416565 
L 100.355523 496.022604 
L 101.765646 495.339882 
L 102.69805 494.655908 
L 103.17577 494.399969 
L 104.585893 493.452858 
L 105.949596 492.125051 
L 105.996017 492.08498 
L 107.406141 490.810918 
L 108.454869 489.594194 
L 108.816264 489.136474 
L 110.226388 487.19531 
L 110.322796 487.063337 
L 111.636511 484.53248 
L 111.636511 484.53248 
L 112.428907 482.001622 
L 112.516644 479.470765 
L 111.827507 476.939908 
L 111.636511 476.63128 
L 110.226388 475.147314 
L 108.816264 474.545704 
L 108.165643 474.409051 
L 107.406141 474.218277 
L 105.996017 474.034685 
L 104.585893 474.007519 
L 103.17577 474.127342 
L 101.776518 474.409051 
L 101.765646 474.410526 
L 100.355523 474.740695 
L 98.945399 475.256601 
L 97.535275 476.012573 
L 96.312395 476.939908 
L 96.125152 477.054715 
L 94.715028 478.072144 
L 93.309297 479.470765 
L 93.304905 479.474984 
L 91.894781 480.953308 
L 91.083168 482.001622 
L 90.484657 482.898531 
L 89.475131 484.53248 
L 89.074534 485.501248 
L 88.387771 487.063337 
L 87.906349 489.594194 
L 88.26266 492.125051 
L 89.074534 493.356429 
L 90.484657 494.648666 
L 90.495473 494.655908 
z
M 96.125152 494.655908 
L 96.125152 494.655908 
L 94.715028 494.344482 
L 93.304905 493.79865 
L 91.894781 492.919311 
L 91.014782 492.125051 
L 90.484657 491.105987 
L 89.930787 489.594194 
L 90.17818 487.063337 
L 90.484657 486.339541 
L 91.204094 484.53248 
L 91.894781 483.464011 
L 92.917911 482.001622 
L 93.304905 481.54084 
L 94.715028 480.074268 
L 95.411178 479.470765 
L 96.125152 478.837431 
L 97.535275 477.855387 
L 98.945399 477.144012 
L 99.514515 476.939908 
L 100.355523 476.56686 
L 101.765646 476.169716 
L 103.17577 475.954157 
L 104.585893 475.89766 
L 105.996017 476.005152 
L 107.406141 476.303186 
L 108.816264 476.904155 
L 108.866459 476.939908 
L 110.226388 478.618492 
L 110.594469 479.470765 
L 110.670078 482.001622 
L 110.226388 483.518824 
L 109.981257 484.53248 
L 108.816264 486.784605 
L 108.677702 487.063337 
L 107.406141 488.851536 
L 106.813172 489.594194 
L 105.996017 490.523558 
L 104.585893 491.812233 
L 104.177859 492.125051 
L 103.17577 492.982061 
L 101.765646 493.825975 
L 100.355523 494.383512 
L 99.126047 494.655908 
L 98.945399 494.709603 
L 97.535275 494.808341 
z
" clip-path="url(#pa984a87bb4)" style="fill: #bed8ec"/>
    <path d="M 97.535275 494.808341 
L 98.945399 494.709603 
L 99.126047 494.655908 
L 100.355523 494.383512 
L 101.765646 493.825975 
L 103.17577 492.982061 
L 104.177859 492.125051 
L 104.585893 491.812233 
L 105.996017 490.523558 
L 106.813172 489.594194 
L 107.406141 488.851536 
L 108.677702 487.063337 
L 108.816264 486.784605 
L 109.981257 484.53248 
L 110.226388 483.518824 
L 110.670078 482.001622 
L 110.594469 479.470765 
L 110.226388 478.618492 
L 108.866459 476.939908 
L 108.816264 476.904155 
L 107.406141 476.303186 
L 105.996017 476.005152 
L 104.585893 475.89766 
L 103.17577 475.954157 
L 101.765646 476.169716 
L 100.355523 476.56686 
L 99.514515 476.939908 
L 98.945399 477.144012 
L 97.535275 477.855387 
L 96.125152 478.837431 
L 95.411178 479.470765 
L 94.715028 480.074268 
L 93.304905 481.54084 
L 92.917911 482.001622 
L 91.894781 483.464011 
L 91.204094 484.53248 
L 90.484657 486.339541 
L 90.17818 487.063337 
L 89.930787 489.594194 
L 90.484657 491.105987 
L 91.014782 492.125051 
L 91.894781 492.919311 
L 93.304905 493.79865 
L 94.715028 494.344482 
L 96.125152 494.655908 
L 96.125152 494.655908 
z
M 93.623464 492.125051 
L 93.304905 491.856234 
L 91.894781 490.017409 
L 91.669699 489.594194 
L 91.633489 487.063337 
L 91.894781 486.413823 
L 92.605341 484.53248 
L 93.304905 483.499931 
L 94.410723 482.001622 
L 94.715028 481.669559 
L 96.125152 480.346598 
L 97.309708 479.470765 
L 97.535275 479.302157 
L 98.945399 478.495958 
L 100.355523 477.947642 
L 101.765646 477.602305 
L 103.17577 477.426562 
L 104.585893 477.419954 
L 105.996017 477.612447 
L 107.406141 478.096651 
L 108.816264 479.254147 
L 108.966448 479.470765 
L 109.417152 482.001622 
L 108.816264 484.53248 
L 108.816264 484.53248 
L 107.558136 487.063337 
L 107.406141 487.277088 
L 105.996017 489.13494 
L 105.603025 489.594194 
L 104.585893 490.648386 
L 103.17577 491.759752 
L 102.568752 492.125051 
L 101.765646 492.652688 
L 100.355523 493.218488 
L 98.945399 493.476869 
L 97.535275 493.469693 
L 96.125152 493.225817 
L 94.715028 492.733439 
z
" clip-path="url(#pa984a87bb4)" style="fill: #94c4df"/>
    <path d="M 94.715028 492.733439 
L 96.125152 493.225817 
L 97.535275 493.469693 
L 98.945399 493.476869 
L 100.355523 493.218488 
L 101.765646 492.652688 
L 102.568752 492.125051 
L 103.17577 491.759752 
L 104.585893 490.648386 
L 105.603025 489.594194 
L 105.996017 489.13494 
L 107.406141 487.277088 
L 107.558136 487.063337 
L 108.816264 484.53248 
L 108.816264 484.53248 
L 109.417152 482.001622 
L 108.966448 479.470765 
L 108.816264 479.254147 
L 107.406141 478.096651 
L 105.996017 477.612447 
L 104.585893 477.419954 
L 103.17577 477.426562 
L 101.765646 477.602305 
L 100.355523 477.947642 
L 98.945399 478.495958 
L 97.535275 479.302157 
L 97.309708 479.470765 
L 96.125152 480.346598 
L 94.715028 481.669559 
L 94.410723 482.001622 
L 93.304905 483.499931 
L 92.605341 484.53248 
L 91.894781 486.413823 
L 91.633489 487.063337 
L 91.669699 489.594194 
L 91.894781 490.017409 
L 93.304905 491.856234 
L 93.623464 492.125051 
z
M 97.049895 492.125051 
L 96.125152 491.848073 
L 94.715028 491.025711 
L 93.326146 489.594194 
L 93.304905 489.486897 
L 92.951962 487.063337 
L 93.304905 486.109671 
L 93.861036 484.53248 
L 94.715028 483.349766 
L 95.80109 482.001622 
L 96.125152 481.689736 
L 97.535275 480.582974 
L 98.945399 479.75518 
L 99.62219 479.470765 
L 100.355523 479.165055 
L 101.765646 478.793607 
L 103.17577 478.633556 
L 104.585893 478.694491 
L 105.996017 479.014222 
L 106.927148 479.470765 
L 107.406141 479.922386 
L 108.290906 482.001622 
L 107.881416 484.53248 
L 107.406141 485.475972 
L 106.621576 487.063337 
L 105.996017 487.903307 
L 104.585893 489.552542 
L 104.544234 489.594194 
L 103.17577 490.751086 
L 101.765646 491.587967 
L 100.355523 492.125051 
L 100.355523 492.125051 
L 98.945399 492.33091 
L 97.535275 492.24106 
z
" clip-path="url(#pa984a87bb4)" style="fill: #65aad4"/>
    <path d="M 97.535275 492.24106 
L 98.945399 492.33091 
L 100.355523 492.125051 
L 100.355523 492.125051 
L 101.765646 491.587967 
L 103.17577 490.751086 
L 104.544234 489.594194 
L 104.585893 489.552542 
L 105.996017 487.903307 
L 106.621576 487.063337 
L 107.406141 485.475972 
L 107.881416 484.53248 
L 108.290906 482.001622 
L 107.406141 479.922386 
L 106.927148 479.470765 
L 105.996017 479.014222 
L 104.585893 478.694491 
L 103.17577 478.633556 
L 101.765646 478.793607 
L 100.355523 479.165055 
L 99.62219 479.470765 
L 98.945399 479.75518 
L 97.535275 480.582974 
L 96.125152 481.689736 
L 95.80109 482.001622 
L 94.715028 483.349766 
L 93.861036 484.53248 
L 93.304905 486.109671 
L 92.951962 487.063337 
L 93.304905 489.486897 
L 93.326146 489.594194 
L 94.715028 491.025711 
L 96.125152 491.848073 
L 97.049895 492.125051 
z
M 94.702761 489.594194 
L 94.00096 487.063337 
L 94.715028 484.903738 
L 94.836179 484.53248 
L 96.125152 482.922302 
L 96.984263 482.001622 
L 97.535275 481.562504 
L 98.945399 480.701802 
L 100.355523 480.098195 
L 101.765646 479.720646 
L 103.17577 479.573174 
L 104.585893 479.710728 
L 105.996017 480.279308 
L 107.406141 482.001622 
L 107.144998 484.53248 
L 105.996017 486.881889 
L 105.906319 487.063337 
L 104.585893 488.632396 
L 103.623913 489.594194 
L 103.17577 489.973052 
L 101.765646 490.792574 
L 100.355523 491.268897 
L 98.945399 491.408303 
L 97.535275 491.216503 
L 96.125152 490.660422 
L 94.715028 489.606838 
z
" clip-path="url(#pa984a87bb4)" style="fill: #4594c7"/>
    <path d="M 94.715028 489.606838 
L 96.125152 490.660422 
L 97.535275 491.216503 
L 98.945399 491.408303 
L 100.355523 491.268897 
L 101.765646 490.792574 
L 103.17577 489.973052 
L 103.623913 489.594194 
L 104.585893 488.632396 
L 105.906319 487.063337 
L 105.996017 486.881889 
L 107.144998 484.53248 
L 107.406141 482.001622 
L 105.996017 480.279308 
L 104.585893 479.710728 
L 103.17577 479.573174 
L 101.765646 479.720646 
L 100.355523 480.098195 
L 98.945399 480.701802 
L 97.535275 481.562504 
L 96.984263 482.001622 
L 96.125152 482.922302 
L 94.836179 484.53248 
L 94.715028 484.903738 
L 94.00096 487.063337 
L 94.702761 489.594194 
z
M 98.055576 489.594194 
L 97.535275 489.316537 
L 96.125152 487.445489 
L 95.953608 487.063337 
L 96.125152 486.483132 
L 96.721616 484.53248 
L 97.535275 483.662294 
L 98.945399 482.44768 
L 99.641324 482.001622 
L 100.355523 481.684546 
L 101.765646 481.34028 
L 103.17577 481.306386 
L 104.585893 481.655637 
L 105.135818 482.001622 
L 105.783986 484.53248 
L 104.585893 487.063337 
L 104.585893 487.063337 
L 103.17577 488.363129 
L 101.765646 489.360562 
L 101.142592 489.594194 
L 100.355523 489.808959 
L 98.945399 489.815026 
z
" clip-path="url(#pa984a87bb4)" style="fill: #2575b7"/>
    <path d="M 98.945399 489.815026 
L 100.355523 489.808959 
L 101.142592 489.594194 
L 101.765646 489.360562 
L 103.17577 488.363129 
L 104.585893 487.063337 
L 104.585893 487.063337 
L 105.783986 484.53248 
L 105.135818 482.001622 
L 104.585893 481.655637 
L 103.17577 481.306386 
L 101.765646 481.34028 
L 100.355523 481.684546 
L 99.641324 482.001622 
L 98.945399 482.44768 
L 97.535275 483.662294 
L 96.721616 484.53248 
L 96.125152 486.483132 
L 95.953608 487.063337 
L 96.125152 487.445489 
L 97.535275 489.316537 
L 98.055576 489.594194 
z
M 97.615953 487.063337 
L 98.326931 484.53248 
L 98.945399 484.006077 
L 100.355523 483.175248 
L 101.765646 482.757028 
L 103.17577 482.95098 
L 104.585893 484.53248 
L 103.313878 487.063337 
L 103.17577 487.190639 
L 101.765646 487.9954 
L 100.355523 488.345986 
L 98.945399 488.098786 
z
" clip-path="url(#pa984a87bb4)" style="fill: #0b559f"/>
    <path d="M 98.945399 488.098786 
L 100.355523 488.345986 
L 101.765646 487.9954 
L 103.17577 487.190639 
L 103.313878 487.063337 
L 104.585893 484.53248 
L 103.17577 482.95098 
L 101.765646 482.757028 
L 100.355523 483.175248 
L 98.945399 484.006077 
L 98.326931 484.53248 
L 97.615953 487.063337 
z
" clip-path="url(#pa984a87bb4)" style="fill: #083c7d"/>
   </g>
   <g id="matplotlib.axis_1">
    <g id="xtick_1">
     <g id="line2d_1">
      <defs>
       <path id="m824ed135c7" d="M 0 0 
L 0 3.5 
" style="stroke: #000000; stroke-width: 0.8"/>
      </defs>
      <g>
       <use xlink:href="#m824ed135c7" x="85.236285" y="499.48" style="stroke: #000000; stroke-width: 0.8"/>
      </g>
     </g>
     <g id="text_1">
      <!-- 0 -->
      <g transform="translate(78.237535 523.196563) scale(0.22 -0.22)">
       <defs>
        <path id="DejaVuSans-30" d="M 2034 4250 
Q 1547 4250 1301 3770 
Q 1056 3291 1056 2328 
Q 1056 1369 1301 889 
Q 1547 409 2034 409 
Q 2525 409 2770 889 
Q 3016 1369 3016 2328 
Q 3016 3291 2770 3770 
Q 2525 4250 2034 4250 
z
M 2034 4750 
Q 2819 4750 3233 4129 
Q 3647 3509 3647 2328 
Q 3647 1150 3233 529 
Q 2819 -91 2034 -91 
Q 1250 -91 836 529 
Q 422 1150 422 2328 
Q 422 3509 836 4129 
Q 1250 4750 2034 4750 
z
" transform="scale(0.015625)"/>
       </defs>
       <use xlink:href="#DejaVuSans-30"/>
      </g>
     </g>
    </g>
    <g id="xtick_2">
     <g id="line2d_2">
      <g>
       <use xlink:href="#m824ed135c7" x="166.949282" y="499.48" style="stroke: #000000; stroke-width: 0.8"/>
      </g>
     </g>
     <g id="text_2">
      <!-- 10 -->
      <g transform="translate(152.951782 523.196563) scale(0.22 -0.22)">
       <defs>
        <path id="DejaVuSans-31" d="M 794 531 
L 1825 531 
L 1825 4091 
L 703 3866 
L 703 4441 
L 1819 4666 
L 2450 4666 
L 2450 531 
L 3481 531 
L 3481 0 
L 794 0 
L 794 531 
z
" transform="scale(0.015625)"/>
       </defs>
       <use xlink:href="#DejaVuSans-31"/>
       <use xlink:href="#DejaVuSans-30" x="63.623047"/>
      </g>
     </g>
    </g>
    <g id="xtick_3">
     <g id="line2d_3">
      <g>
       <use xlink:href="#m824ed135c7" x="248.66228" y="499.48" style="stroke: #000000; stroke-width: 0.8"/>
      </g>
     </g>
     <g id="text_3">
      <!-- 20 -->
      <g transform="translate(234.66478 523.196563) scale(0.22 -0.22)">
       <defs>
        <path id="DejaVuSans-32" d="M 1228 531 
L 3431 531 
L 3431 0 
L 469 0 
L 469 531 
Q 828 903 1448 1529 
Q 2069 2156 2228 2338 
Q 2531 2678 2651 2914 
Q 2772 3150 2772 3378 
Q 2772 3750 2511 3984 
Q 2250 4219 1831 4219 
Q 1534 4219 1204 4116 
Q 875 4013 500 3803 
L 500 4441 
Q 881 4594 1212 4672 
Q 1544 4750 1819 4750 
Q 2544 4750 2975 4387 
Q 3406 4025 3406 3419 
Q 3406 3131 3298 2873 
Q 3191 2616 2906 2266 
Q 2828 2175 2409 1742 
Q 1991 1309 1228 531 
z
" transform="scale(0.015625)"/>
       </defs>
       <use xlink:href="#DejaVuSans-32"/>
       <use xlink:href="#DejaVuSans-30" x="63.623047"/>
      </g>
     </g>
    </g>
    <g id="xtick_4">
     <g id="line2d_4">
      <g>
       <use xlink:href="#m824ed135c7" x="330.375277" y="499.48" style="stroke: #000000; stroke-width: 0.8"/>
      </g>
     </g>
     <g id="text_4">
      <!-- 30 -->
      <g transform="translate(316.377777 523.196563) scale(0.22 -0.22)">
       <defs>
        <path id="DejaVuSans-33" d="M 2597 2516 
Q 3050 2419 3304 2112 
Q 3559 1806 3559 1356 
Q 3559 666 3084 287 
Q 2609 -91 1734 -91 
Q 1441 -91 1130 -33 
Q 819 25 488 141 
L 488 750 
Q 750 597 1062 519 
Q 1375 441 1716 441 
Q 2309 441 2620 675 
Q 2931 909 2931 1356 
Q 2931 1769 2642 2001 
Q 2353 2234 1838 2234 
L 1294 2234 
L 1294 2753 
L 1863 2753 
Q 2328 2753 2575 2939 
Q 2822 3125 2822 3475 
Q 2822 3834 2567 4026 
Q 2313 4219 1838 4219 
Q 1578 4219 1281 4162 
Q 984 4106 628 3988 
L 628 4550 
Q 988 4650 1302 4700 
Q 1616 4750 1894 4750 
Q 2613 4750 3031 4423 
Q 3450 4097 3450 3541 
Q 3450 3153 3228 2886 
Q 3006 2619 2597 2516 
z
" transform="scale(0.015625)"/>
       </defs>
       <use xlink:href="#DejaVuSans-33"/>
       <use xlink:href="#DejaVuSans-30" x="63.623047"/>
      </g>
     </g>
    </g>
    <g id="xtick_5">
     <g id="line2d_5">
      <g>
       <use xlink:href="#m824ed135c7" x="412.088275" y="499.48" style="stroke: #000000; stroke-width: 0.8"/>
      </g>
     </g>
     <g id="text_5">
      <!-- 40 -->
      <g transform="translate(398.090775 523.196563) scale(0.22 -0.22)">
       <defs>
        <path id="DejaVuSans-34" d="M 2419 4116 
L 825 1625 
L 2419 1625 
L 2419 4116 
z
M 2253 4666 
L 3047 4666 
L 3047 1625 
L 3713 1625 
L 3713 1100 
L 3047 1100 
L 3047 0 
L 2419 0 
L 2419 1100 
L 313 1100 
L 313 1709 
L 2253 4666 
z
" transform="scale(0.015625)"/>
       </defs>
       <use xlink:href="#DejaVuSans-34"/>
       <use xlink:href="#DejaVuSans-30" x="63.623047"/>
      </g>
     </g>
    </g>
    <g id="xtick_6">
     <g id="line2d_6">
      <g>
       <use xlink:href="#m824ed135c7" x="493.801273" y="499.48" style="stroke: #000000; stroke-width: 0.8"/>
      </g>
     </g>
     <g id="text_6">
      <!-- 50 -->
      <g transform="translate(479.803773 523.196563) scale(0.22 -0.22)">
       <defs>
        <path id="DejaVuSans-35" d="M 691 4666 
L 3169 4666 
L 3169 4134 
L 1269 4134 
L 1269 2991 
Q 1406 3038 1543 3061 
Q 1681 3084 1819 3084 
Q 2600 3084 3056 2656 
Q 3513 2228 3513 1497 
Q 3513 744 3044 326 
Q 2575 -91 1722 -91 
Q 1428 -91 1123 -41 
Q 819 9 494 109 
L 494 744 
Q 775 591 1075 516 
Q 1375 441 1709 441 
Q 2250 441 2565 725 
Q 2881 1009 2881 1497 
Q 2881 1984 2565 2268 
Q 2250 2553 1709 2553 
Q 1456 2553 1204 2497 
Q 953 2441 691 2322 
L 691 4666 
z
" transform="scale(0.015625)"/>
       </defs>
       <use xlink:href="#DejaVuSans-35"/>
       <use xlink:href="#DejaVuSans-30" x="63.623047"/>
      </g>
     </g>
    </g>
    <g id="xtick_7">
     <g id="line2d_7">
      <g>
       <use xlink:href="#m824ed135c7" x="575.51427" y="499.48" style="stroke: #000000; stroke-width: 0.8"/>
      </g>
     </g>
     <g id="text_7">
      <!-- 60 -->
      <g transform="translate(561.51677 523.196563) scale(0.22 -0.22)">
       <defs>
        <path id="DejaVuSans-36" d="M 2113 2584 
Q 1688 2584 1439 2293 
Q 1191 2003 1191 1497 
Q 1191 994 1439 701 
Q 1688 409 2113 409 
Q 2538 409 2786 701 
Q 3034 994 3034 1497 
Q 3034 2003 2786 2293 
Q 2538 2584 2113 2584 
z
M 3366 4563 
L 3366 3988 
Q 3128 4100 2886 4159 
Q 2644 4219 2406 4219 
Q 1781 4219 1451 3797 
Q 1122 3375 1075 2522 
Q 1259 2794 1537 2939 
Q 1816 3084 2150 3084 
Q 2853 3084 3261 2657 
Q 3669 2231 3669 1497 
Q 3669 778 3244 343 
Q 2819 -91 2113 -91 
Q 1303 -91 875 529 
Q 447 1150 447 2328 
Q 447 3434 972 4092 
Q 1497 4750 2381 4750 
Q 2619 4750 2861 4703 
Q 3103 4656 3366 4563 
z
" transform="scale(0.015625)"/>
       </defs>
       <use xlink:href="#DejaVuSans-36"/>
       <use xlink:href="#DejaVuSans-30" x="63.623047"/>
      </g>
     </g>
    </g>
    <g id="xtick_8">
     <g id="line2d_8">
      <g>
       <use xlink:href="#m824ed135c7" x="657.227268" y="499.48" style="stroke: #000000; stroke-width: 0.8"/>
      </g>
     </g>
     <g id="text_8">
      <!-- 70 -->
      <g transform="translate(643.229768 523.196563) scale(0.22 -0.22)">
       <defs>
        <path id="DejaVuSans-37" d="M 525 4666 
L 3525 4666 
L 3525 4397 
L 1831 0 
L 1172 0 
L 2766 4134 
L 525 4134 
L 525 4666 
z
" transform="scale(0.015625)"/>
       </defs>
       <use xlink:href="#DejaVuSans-37"/>
       <use xlink:href="#DejaVuSans-30" x="63.623047"/>
      </g>
     </g>
    </g>
    <g id="text_9">
     <!-- Force Uncertainties -->
     <g transform="translate(283.426094 548.488438) scale(0.22 -0.22)">
      <defs>
       <path id="DejaVuSans-46" d="M 628 4666 
L 3309 4666 
L 3309 4134 
L 1259 4134 
L 1259 2759 
L 3109 2759 
L 3109 2228 
L 1259 2228 
L 1259 0 
L 628 0 
L 628 4666 
z
" transform="scale(0.015625)"/>
       <path id="DejaVuSans-6f" d="M 1959 3097 
Q 1497 3097 1228 2736 
Q 959 2375 959 1747 
Q 959 1119 1226 758 
Q 1494 397 1959 397 
Q 2419 397 2687 759 
Q 2956 1122 2956 1747 
Q 2956 2369 2687 2733 
Q 2419 3097 1959 3097 
z
M 1959 3584 
Q 2709 3584 3137 3096 
Q 3566 2609 3566 1747 
Q 3566 888 3137 398 
Q 2709 -91 1959 -91 
Q 1206 -91 779 398 
Q 353 888 353 1747 
Q 353 2609 779 3096 
Q 1206 3584 1959 3584 
z
" transform="scale(0.015625)"/>
       <path id="DejaVuSans-72" d="M 2631 2963 
Q 2534 3019 2420 3045 
Q 2306 3072 2169 3072 
Q 1681 3072 1420 2755 
Q 1159 2438 1159 1844 
L 1159 0 
L 581 0 
L 581 3500 
L 1159 3500 
L 1159 2956 
Q 1341 3275 1631 3429 
Q 1922 3584 2338 3584 
Q 2397 3584 2469 3576 
Q 2541 3569 2628 3553 
L 2631 2963 
z
" transform="scale(0.015625)"/>
       <path id="DejaVuSans-63" d="M 3122 3366 
L 3122 2828 
Q 2878 2963 2633 3030 
Q 2388 3097 2138 3097 
Q 1578 3097 1268 2742 
Q 959 2388 959 1747 
Q 959 1106 1268 751 
Q 1578 397 2138 397 
Q 2388 397 2633 464 
Q 2878 531 3122 666 
L 3122 134 
Q 2881 22 2623 -34 
Q 2366 -91 2075 -91 
Q 1284 -91 818 406 
Q 353 903 353 1747 
Q 353 2603 823 3093 
Q 1294 3584 2113 3584 
Q 2378 3584 2631 3529 
Q 2884 3475 3122 3366 
z
" transform="scale(0.015625)"/>
       <path id="DejaVuSans-65" d="M 3597 1894 
L 3597 1613 
L 953 1613 
Q 991 1019 1311 708 
Q 1631 397 2203 397 
Q 2534 397 2845 478 
Q 3156 559 3463 722 
L 3463 178 
Q 3153 47 2828 -22 
Q 2503 -91 2169 -91 
Q 1331 -91 842 396 
Q 353 884 353 1716 
Q 353 2575 817 3079 
Q 1281 3584 2069 3584 
Q 2775 3584 3186 3129 
Q 3597 2675 3597 1894 
z
M 3022 2063 
Q 3016 2534 2758 2815 
Q 2500 3097 2075 3097 
Q 1594 3097 1305 2825 
Q 1016 2553 972 2059 
L 3022 2063 
z
" transform="scale(0.015625)"/>
       <path id="DejaVuSans-20" transform="scale(0.015625)"/>
       <path id="DejaVuSans-55" d="M 556 4666 
L 1191 4666 
L 1191 1831 
Q 1191 1081 1462 751 
Q 1734 422 2344 422 
Q 2950 422 3222 751 
Q 3494 1081 3494 1831 
L 3494 4666 
L 4128 4666 
L 4128 1753 
Q 4128 841 3676 375 
Q 3225 -91 2344 -91 
Q 1459 -91 1007 375 
Q 556 841 556 1753 
L 556 4666 
z
" transform="scale(0.015625)"/>
       <path id="DejaVuSans-6e" d="M 3513 2113 
L 3513 0 
L 2938 0 
L 2938 2094 
Q 2938 2591 2744 2837 
Q 2550 3084 2163 3084 
Q 1697 3084 1428 2787 
Q 1159 2491 1159 1978 
L 1159 0 
L 581 0 
L 581 3500 
L 1159 3500 
L 1159 2956 
Q 1366 3272 1645 3428 
Q 1925 3584 2291 3584 
Q 2894 3584 3203 3211 
Q 3513 2838 3513 2113 
z
" transform="scale(0.015625)"/>
       <path id="DejaVuSans-74" d="M 1172 4494 
L 1172 3500 
L 2356 3500 
L 2356 3053 
L 1172 3053 
L 1172 1153 
Q 1172 725 1289 603 
Q 1406 481 1766 481 
L 2356 481 
L 2356 0 
L 1766 0 
Q 1100 0 847 248 
Q 594 497 594 1153 
L 594 3053 
L 172 3053 
L 172 3500 
L 594 3500 
L 594 4494 
L 1172 4494 
z
" transform="scale(0.015625)"/>
       <path id="DejaVuSans-61" d="M 2194 1759 
Q 1497 1759 1228 1600 
Q 959 1441 959 1056 
Q 959 750 1161 570 
Q 1363 391 1709 391 
Q 2188 391 2477 730 
Q 2766 1069 2766 1631 
L 2766 1759 
L 2194 1759 
z
M 3341 1997 
L 3341 0 
L 2766 0 
L 2766 531 
Q 2569 213 2275 61 
Q 1981 -91 1556 -91 
Q 1019 -91 701 211 
Q 384 513 384 1019 
Q 384 1609 779 1909 
Q 1175 2209 1959 2209 
L 2766 2209 
L 2766 2266 
Q 2766 2663 2505 2880 
Q 2244 3097 1772 3097 
Q 1472 3097 1187 3025 
Q 903 2953 641 2809 
L 641 3341 
Q 956 3463 1253 3523 
Q 1550 3584 1831 3584 
Q 2591 3584 2966 3190 
Q 3341 2797 3341 1997 
z
" transform="scale(0.015625)"/>
       <path id="DejaVuSans-69" d="M 603 3500 
L 1178 3500 
L 1178 0 
L 603 0 
L 603 3500 
z
M 603 4863 
L 1178 4863 
L 1178 4134 
L 603 4134 
L 603 4863 
z
" transform="scale(0.015625)"/>
       <path id="DejaVuSans-73" d="M 2834 3397 
L 2834 2853 
Q 2591 2978 2328 3040 
Q 2066 3103 1784 3103 
Q 1356 3103 1142 2972 
Q 928 2841 928 2578 
Q 928 2378 1081 2264 
Q 1234 2150 1697 2047 
L 1894 2003 
Q 2506 1872 2764 1633 
Q 3022 1394 3022 966 
Q 3022 478 2636 193 
Q 2250 -91 1575 -91 
Q 1294 -91 989 -36 
Q 684 19 347 128 
L 347 722 
Q 666 556 975 473 
Q 1284 391 1588 391 
Q 1994 391 2212 530 
Q 2431 669 2431 922 
Q 2431 1156 2273 1281 
Q 2116 1406 1581 1522 
L 1381 1569 
Q 847 1681 609 1914 
Q 372 2147 372 2553 
Q 372 3047 722 3315 
Q 1072 3584 1716 3584 
Q 2034 3584 2315 3537 
Q 2597 3491 2834 3397 
z
" transform="scale(0.015625)"/>
      </defs>
      <use xlink:href="#DejaVuSans-46"/>
      <use xlink:href="#DejaVuSans-6f" x="53.894531"/>
      <use xlink:href="#DejaVuSans-72" x="115.076172"/>
      <use xlink:href="#DejaVuSans-63" x="153.939453"/>
      <use xlink:href="#DejaVuSans-65" x="208.919922"/>
      <use xlink:href="#DejaVuSans-20" x="270.443359"/>
      <use xlink:href="#DejaVuSans-55" x="302.230469"/>
      <use xlink:href="#DejaVuSans-6e" x="375.423828"/>
      <use xlink:href="#DejaVuSans-63" x="438.802734"/>
      <use xlink:href="#DejaVuSans-65" x="493.783203"/>
      <use xlink:href="#DejaVuSans-72" x="555.306641"/>
      <use xlink:href="#DejaVuSans-74" x="596.419922"/>
      <use xlink:href="#DejaVuSans-61" x="635.628906"/>
      <use xlink:href="#DejaVuSans-69" x="696.908203"/>
      <use xlink:href="#DejaVuSans-6e" x="724.691406"/>
      <use xlink:href="#DejaVuSans-74" x="788.070312"/>
      <use xlink:href="#DejaVuSans-69" x="827.279297"/>
      <use xlink:href="#DejaVuSans-65" x="855.0625"/>
      <use xlink:href="#DejaVuSans-73" x="916.585938"/>
     </g>
    </g>
   </g>
   <g id="matplotlib.axis_2">
    <g id="ytick_1">
     <g id="line2d_9">
      <defs>
       <path id="m2d26b4ea62" d="M 0 0 
L -3.5 0 
" style="stroke: #000000; stroke-width: 0.8"/>
      </defs>
      <g>
       <use xlink:href="#m2d26b4ea62" x="83.72" y="498.302362" style="stroke: #000000; stroke-width: 0.8"/>
      </g>
     </g>
     <g id="text_10">
      <!-- 0 -->
      <g transform="translate(62.7225 506.660643) scale(0.22 -0.22)">
       <use xlink:href="#DejaVuSans-30"/>
      </g>
     </g>
    </g>
    <g id="ytick_2">
     <g id="line2d_10">
      <g>
       <use xlink:href="#m2d26b4ea62" x="83.72" y="434.839116" style="stroke: #000000; stroke-width: 0.8"/>
      </g>
     </g>
     <g id="text_11">
      <!-- 10 -->
      <g transform="translate(48.725 443.197397) scale(0.22 -0.22)">
       <use xlink:href="#DejaVuSans-31"/>
       <use xlink:href="#DejaVuSans-30" x="63.623047"/>
      </g>
     </g>
    </g>
    <g id="ytick_3">
     <g id="line2d_11">
      <g>
       <use xlink:href="#m2d26b4ea62" x="83.72" y="371.375871" style="stroke: #000000; stroke-width: 0.8"/>
      </g>
     </g>
     <g id="text_12">
      <!-- 20 -->
      <g transform="translate(48.725 379.734152) scale(0.22 -0.22)">
       <use xlink:href="#DejaVuSans-32"/>
       <use xlink:href="#DejaVuSans-30" x="63.623047"/>
      </g>
     </g>
    </g>
    <g id="ytick_4">
     <g id="line2d_12">
      <g>
       <use xlink:href="#m2d26b4ea62" x="83.72" y="307.912625" style="stroke: #000000; stroke-width: 0.8"/>
      </g>
     </g>
     <g id="text_13">
      <!-- 30 -->
      <g transform="translate(48.725 316.270906) scale(0.22 -0.22)">
       <use xlink:href="#DejaVuSans-33"/>
       <use xlink:href="#DejaVuSans-30" x="63.623047"/>
      </g>
     </g>
    </g>
    <g id="ytick_5">
     <g id="line2d_13">
      <g>
       <use xlink:href="#m2d26b4ea62" x="83.72" y="244.449379" style="stroke: #000000; stroke-width: 0.8"/>
      </g>
     </g>
     <g id="text_14">
      <!-- 40 -->
      <g transform="translate(48.725 252.807661) scale(0.22 -0.22)">
       <use xlink:href="#DejaVuSans-34"/>
       <use xlink:href="#DejaVuSans-30" x="63.623047"/>
      </g>
     </g>
    </g>
    <g id="ytick_6">
     <g id="line2d_14">
      <g>
       <use xlink:href="#m2d26b4ea62" x="83.72" y="180.986134" style="stroke: #000000; stroke-width: 0.8"/>
      </g>
     </g>
     <g id="text_15">
      <!-- 50 -->
      <g transform="translate(48.725 189.344415) scale(0.22 -0.22)">
       <use xlink:href="#DejaVuSans-35"/>
       <use xlink:href="#DejaVuSans-30" x="63.623047"/>
      </g>
     </g>
    </g>
    <g id="ytick_7">
     <g id="line2d_15">
      <g>
       <use xlink:href="#m2d26b4ea62" x="83.72" y="117.522888" style="stroke: #000000; stroke-width: 0.8"/>
      </g>
     </g>
     <g id="text_16">
      <!-- 60 -->
      <g transform="translate(48.725 125.881169) scale(0.22 -0.22)">
       <use xlink:href="#DejaVuSans-36"/>
       <use xlink:href="#DejaVuSans-30" x="63.623047"/>
      </g>
     </g>
    </g>
    <g id="ytick_8">
     <g id="line2d_16">
      <g>
       <use xlink:href="#m2d26b4ea62" x="83.72" y="54.059642" style="stroke: #000000; stroke-width: 0.8"/>
      </g>
     </g>
     <g id="text_17">
      <!-- 70 -->
      <g transform="translate(48.725 62.417924) scale(0.22 -0.22)">
       <use xlink:href="#DejaVuSans-37"/>
       <use xlink:href="#DejaVuSans-30" x="63.623047"/>
      </g>
     </g>
    </g>
    <g id="text_18">
     <!-- Force Errors [kJ/(mol*A)] -->
     <g transform="translate(40.149688 394.9125) rotate(-90) scale(0.22 -0.22)">
      <defs>
       <path id="DejaVuSans-45" d="M 628 4666 
L 3578 4666 
L 3578 4134 
L 1259 4134 
L 1259 2753 
L 3481 2753 
L 3481 2222 
L 1259 2222 
L 1259 531 
L 3634 531 
L 3634 0 
L 628 0 
L 628 4666 
z
" transform="scale(0.015625)"/>
       <path id="DejaVuSans-5b" d="M 550 4863 
L 1875 4863 
L 1875 4416 
L 1125 4416 
L 1125 -397 
L 1875 -397 
L 1875 -844 
L 550 -844 
L 550 4863 
z
" transform="scale(0.015625)"/>
       <path id="DejaVuSans-6b" d="M 581 4863 
L 1159 4863 
L 1159 1991 
L 2875 3500 
L 3609 3500 
L 1753 1863 
L 3688 0 
L 2938 0 
L 1159 1709 
L 1159 0 
L 581 0 
L 581 4863 
z
" transform="scale(0.015625)"/>
       <path id="DejaVuSans-4a" d="M 628 4666 
L 1259 4666 
L 1259 325 
Q 1259 -519 939 -900 
Q 619 -1281 -91 -1281 
L -331 -1281 
L -331 -750 
L -134 -750 
Q 284 -750 456 -515 
Q 628 -281 628 325 
L 628 4666 
z
" transform="scale(0.015625)"/>
       <path id="DejaVuSans-2f" d="M 1625 4666 
L 2156 4666 
L 531 -594 
L 0 -594 
L 1625 4666 
z
" transform="scale(0.015625)"/>
       <path id="DejaVuSans-28" d="M 1984 4856 
Q 1566 4138 1362 3434 
Q 1159 2731 1159 2009 
Q 1159 1288 1364 580 
Q 1569 -128 1984 -844 
L 1484 -844 
Q 1016 -109 783 600 
Q 550 1309 550 2009 
Q 550 2706 781 3412 
Q 1013 4119 1484 4856 
L 1984 4856 
z
" transform="scale(0.015625)"/>
       <path id="DejaVuSans-6d" d="M 3328 2828 
Q 3544 3216 3844 3400 
Q 4144 3584 4550 3584 
Q 5097 3584 5394 3201 
Q 5691 2819 5691 2113 
L 5691 0 
L 5113 0 
L 5113 2094 
Q 5113 2597 4934 2840 
Q 4756 3084 4391 3084 
Q 3944 3084 3684 2787 
Q 3425 2491 3425 1978 
L 3425 0 
L 2847 0 
L 2847 2094 
Q 2847 2600 2669 2842 
Q 2491 3084 2119 3084 
Q 1678 3084 1418 2786 
Q 1159 2488 1159 1978 
L 1159 0 
L 581 0 
L 581 3500 
L 1159 3500 
L 1159 2956 
Q 1356 3278 1631 3431 
Q 1906 3584 2284 3584 
Q 2666 3584 2933 3390 
Q 3200 3197 3328 2828 
z
" transform="scale(0.015625)"/>
       <path id="DejaVuSans-6c" d="M 603 4863 
L 1178 4863 
L 1178 0 
L 603 0 
L 603 4863 
z
" transform="scale(0.015625)"/>
       <path id="DejaVuSans-2a" d="M 3009 3897 
L 1888 3291 
L 3009 2681 
L 2828 2375 
L 1778 3009 
L 1778 1831 
L 1422 1831 
L 1422 3009 
L 372 2375 
L 191 2681 
L 1313 3291 
L 191 3897 
L 372 4206 
L 1422 3572 
L 1422 4750 
L 1778 4750 
L 1778 3572 
L 2828 4206 
L 3009 3897 
z
" transform="scale(0.015625)"/>
       <path id="DejaVuSans-41" d="M 2188 4044 
L 1331 1722 
L 3047 1722 
L 2188 4044 
z
M 1831 4666 
L 2547 4666 
L 4325 0 
L 3669 0 
L 3244 1197 
L 1141 1197 
L 716 0 
L 50 0 
L 1831 4666 
z
" transform="scale(0.015625)"/>
       <path id="DejaVuSans-29" d="M 513 4856 
L 1013 4856 
Q 1481 4119 1714 3412 
Q 1947 2706 1947 2009 
Q 1947 1309 1714 600 
Q 1481 -109 1013 -844 
L 513 -844 
Q 928 -128 1133 580 
Q 1338 1288 1338 2009 
Q 1338 2731 1133 3434 
Q 928 4138 513 4856 
z
" transform="scale(0.015625)"/>
       <path id="DejaVuSans-5d" d="M 1947 4863 
L 1947 -844 
L 622 -844 
L 622 -397 
L 1369 -397 
L 1369 4416 
L 622 4416 
L 622 4863 
L 1947 4863 
z
" transform="scale(0.015625)"/>
      </defs>
      <use xlink:href="#DejaVuSans-46"/>
      <use xlink:href="#DejaVuSans-6f" x="53.894531"/>
      <use xlink:href="#DejaVuSans-72" x="115.076172"/>
      <use xlink:href="#DejaVuSans-63" x="153.939453"/>
      <use xlink:href="#DejaVuSans-65" x="208.919922"/>
      <use xlink:href="#DejaVuSans-20" x="270.443359"/>
      <use xlink:href="#DejaVuSans-45" x="302.230469"/>
      <use xlink:href="#DejaVuSans-72" x="365.414062"/>
      <use xlink:href="#DejaVuSans-72" x="404.777344"/>
      <use xlink:href="#DejaVuSans-6f" x="443.640625"/>
      <use xlink:href="#DejaVuSans-72" x="504.822266"/>
      <use xlink:href="#DejaVuSans-73" x="545.935547"/>
      <use xlink:href="#DejaVuSans-20" x="598.035156"/>
      <use xlink:href="#DejaVuSans-5b" x="629.822266"/>
      <use xlink:href="#DejaVuSans-6b" x="668.835938"/>
      <use xlink:href="#DejaVuSans-4a" x="726.746094"/>
      <use xlink:href="#DejaVuSans-2f" x="756.238281"/>
      <use xlink:href="#DejaVuSans-28" x="789.929688"/>
      <use xlink:href="#DejaVuSans-6d" x="828.943359"/>
      <use xlink:href="#DejaVuSans-6f" x="926.355469"/>
      <use xlink:href="#DejaVuSans-6c" x="987.537109"/>
      <use xlink:href="#DejaVuSans-2a" x="1015.320312"/>
      <use xlink:href="#DejaVuSans-41" x="1065.320312"/>
      <use xlink:href="#DejaVuSans-29" x="1133.728516"/>
      <use xlink:href="#DejaVuSans-5d" x="1172.742188"/>
     </g>
    </g>
   </g>
   <g id="line2d_17">
    <path d="M 83.72 499.48 
L 696.24 23.76 
" clip-path="url(#pa984a87bb4)" style="fill: none; stroke-dasharray: 5.55,2.4; stroke-dashoffset: 0; stroke: #ff0000; stroke-width: 1.5"/>
   </g>
   <g id="patch_3">
    <path d="M 83.72 499.48 
L 83.72 23.76 
" style="fill: none; stroke: #000000; stroke-width: 0.8; stroke-linejoin: miter; stroke-linecap: square"/>
   </g>
   <g id="patch_4">
    <path d="M 696.24 499.48 
L 696.24 23.76 
" style="fill: none; stroke: #000000; stroke-width: 0.8; stroke-linejoin: miter; stroke-linecap: square"/>
   </g>
   <g id="patch_5">
    <path d="M 83.72 499.48 
L 696.24 499.48 
" style="fill: none; stroke: #000000; stroke-width: 0.8; stroke-linejoin: miter; stroke-linecap: square"/>
   </g>
   <g id="patch_6">
    <path d="M 83.72 23.76 
L 696.24 23.76 
" style="fill: none; stroke: #000000; stroke-width: 0.8; stroke-linejoin: miter; stroke-linecap: square"/>
   </g>
   <g id="text_19">
    <!-- Correlation in: 0.771 -->
    <g transform="translate(144.972 71.332) scale(0.22 -0.22)">
     <defs>
      <path id="DejaVuSans-43" d="M 4122 4306 
L 4122 3641 
Q 3803 3938 3442 4084 
Q 3081 4231 2675 4231 
Q 1875 4231 1450 3742 
Q 1025 3253 1025 2328 
Q 1025 1406 1450 917 
Q 1875 428 2675 428 
Q 3081 428 3442 575 
Q 3803 722 4122 1019 
L 4122 359 
Q 3791 134 3420 21 
Q 3050 -91 2638 -91 
Q 1578 -91 968 557 
Q 359 1206 359 2328 
Q 359 3453 968 4101 
Q 1578 4750 2638 4750 
Q 3056 4750 3426 4639 
Q 3797 4528 4122 4306 
z
" transform="scale(0.015625)"/>
      <path id="DejaVuSans-3a" d="M 750 794 
L 1409 794 
L 1409 0 
L 750 0 
L 750 794 
z
M 750 3309 
L 1409 3309 
L 1409 2516 
L 750 2516 
L 750 3309 
z
" transform="scale(0.015625)"/>
      <path id="DejaVuSans-2e" d="M 684 794 
L 1344 794 
L 1344 0 
L 684 0 
L 684 794 
z
" transform="scale(0.015625)"/>
     </defs>
     <use xlink:href="#DejaVuSans-43"/>
     <use xlink:href="#DejaVuSans-6f" x="69.824219"/>
     <use xlink:href="#DejaVuSans-72" x="131.005859"/>
     <use xlink:href="#DejaVuSans-72" x="170.369141"/>
     <use xlink:href="#DejaVuSans-65" x="209.232422"/>
     <use xlink:href="#DejaVuSans-6c" x="270.755859"/>
     <use xlink:href="#DejaVuSans-61" x="298.539062"/>
     <use xlink:href="#DejaVuSans-74" x="359.818359"/>
     <use xlink:href="#DejaVuSans-69" x="399.027344"/>
     <use xlink:href="#DejaVuSans-6f" x="426.810547"/>
     <use xlink:href="#DejaVuSans-6e" x="487.992188"/>
     <use xlink:href="#DejaVuSans-20" x="551.371094"/>
     <use xlink:href="#DejaVuSans-69" x="583.158203"/>
     <use xlink:href="#DejaVuSans-6e" x="610.941406"/>
     <use xlink:href="#DejaVuSans-3a" x="674.320312"/>
     <use xlink:href="#DejaVuSans-20" x="708.011719"/>
     <use xlink:href="#DejaVuSans-30" x="739.798828"/>
     <use xlink:href="#DejaVuSans-2e" x="803.421875"/>
     <use xlink:href="#DejaVuSans-37" x="835.208984"/>
     <use xlink:href="#DejaVuSans-37" x="898.832031"/>
     <use xlink:href="#DejaVuSans-31" x="962.455078"/>
    </g>
   </g>
  </g>
 </g>
 <defs>
  <clipPath id="pa984a87bb4">
   <rect x="83.72" y="23.76" width="612.52" height="475.72"/>
  </clipPath>
 </defs>
</svg>
