<?xml version="1.0" encoding="utf-8" standalone="no"?>
<!DOCTYPE svg PUBLIC "-//W3C//DTD SVG 1.1//EN"
  "http://www.w3.org/Graphics/SVG/1.1/DTD/svg11.dtd">
<svg xmlns:xlink="http://www.w3.org/1999/xlink" width="720pt" height="576pt" viewBox="0 0 720 576" xmlns="http://www.w3.org/2000/svg" version="1.1">
 <metadata>
  <rdf:RDF xmlns:dc="http://purl.org/dc/elements/1.1/" xmlns:cc="http://creativecommons.org/ns#" xmlns:rdf="http://www.w3.org/1999/02/22-rdf-syntax-ns#">
   <cc:Work>
    <dc:type rdf:resource="http://purl.org/dc/dcmitype/StillImage"/>
    <dc:date>2024-12-07T14:18:57.574182</dc:date>
    <dc:format>image/svg+xml</dc:format>
    <dc:creator>
     <cc:Agent>
      <dc:title>Matplotlib v3.8.4, https://matplotlib.org/</dc:title>
     </cc:Agent>
    </dc:creator>
   </cc:Work>
  </rdf:RDF>
 </metadata>
 <defs>
  <style type="text/css">*{stroke-linejoin: round; stroke-linecap: butt}</style>
 </defs>
 <g id="figure_1">
  <g id="patch_1">
   <path d="M 0 576 
L 720 576 
L 720 0 
L 0 0 
z
" style="fill: #ffffff"/>
  </g>
  <g id="axes_1">
   <g id="patch_2">
    <path d="M 102.17 499.48 
L 682.2 499.48 
L 682.2 32.04 
L 102.17 32.04 
z
" style="fill: #ffffff"/>
   </g>
   <g id="QuadContourSet_1">
    <path d="M 216.438639 400.44586 
L 218.365736 399.121581 
L 216.438639 397.947912 
L 214.937705 399.121581 
z
M 226.222037 395.221019 
L 231.596682 391.567011 
L 236.005435 389.352999 
L 243.9355 384.012441 
L 245.788833 383.071392 
L 255.572231 376.636566 
L 255.803707 376.457871 
L 265.35563 371.329079 
L 268.498194 368.903301 
L 275.139028 365.218372 
L 280.152662 361.348731 
L 284.922426 358.613599 
L 291.16752 353.794161 
L 294.705824 351.697523 
L 301.779501 346.239591 
L 304.489222 344.580672 
L 312.131789 338.685021 
L 314.27262 337.331363 
L 322.31292 331.130451 
L 324.056018 329.992734 
L 332.378833 323.575881 
L 333.839417 322.592615 
L 342.365653 316.021311 
L 343.622815 315.149362 
L 352.297242 308.466741 
L 353.406213 307.675378 
L 362.189743 300.912171 
L 363.189611 300.179256 
L 372.054323 293.357601 
L 372.973009 292.667091 
L 381.898805 285.803031 
L 382.756407 285.143221 
L 391.728564 278.248461 
L 392.539805 277.610597 
L 401.546901 270.693891 
L 402.323203 270.070851 
L 411.355051 263.139321 
L 412.106602 262.524133 
L 421.151915 255.584751 
L 421.89 254.968761 
L 430.933611 248.030181 
L 431.673398 247.400698 
L 440.692909 240.475611 
L 441.456796 239.81288 
L 450.418618 232.921041 
L 451.240194 232.194458 
L 460.095081 225.36647 
L 461.023592 224.53016 
L 469.702104 217.8119 
L 470.80699 216.800251 
L 479.215894 210.25733 
L 480.590389 208.981883 
L 488.611685 202.70276 
L 490.373787 201.052579 
L 497.868315 195.14819 
L 500.157185 192.995846 
L 506.973864 187.59362 
L 509.940583 184.807063 
L 515.929904 180.03905 
L 519.723981 176.496122 
L 524.7513 172.48448 
L 529.507379 168.083694 
L 533.460048 164.92991 
L 539.290777 159.591283 
L 542.074568 157.37534 
L 549.074175 151.028923 
L 550.597935 149.82077 
L 558.857574 142.385094 
L 559.008239 142.2662 
L 567.237822 134.71163 
L 568.640972 132.986073 
L 574.792974 127.15706 
L 568.640972 124.282164 
L 564.621719 127.15706 
L 558.857574 130.54049 
L 553.057727 134.71163 
L 549.074175 137.063178 
L 541.87474 142.2662 
L 539.290777 143.794538 
L 530.99117 149.82077 
L 529.507379 150.698302 
L 520.357216 157.37534 
L 519.723981 157.749681 
L 509.940583 164.92991 
L 509.940583 164.92991 
L 500.157185 171.448231 
L 498.81497 172.48448 
L 490.373787 178.188554 
L 487.976855 180.03905 
L 480.590389 185.115244 
L 477.380105 187.59362 
L 470.80699 192.198285 
L 466.985865 195.14819 
L 461.023592 199.412921 
L 456.762091 202.70276 
L 451.240194 206.739553 
L 446.683417 210.25733 
L 441.456796 214.163471 
L 436.730814 217.8119 
L 431.673398 221.674422 
L 426.891022 225.36647 
L 421.89 229.266107 
L 417.155892 232.921041 
L 412.106602 236.935731 
L 407.521801 240.475611 
L 402.323203 244.683696 
L 397.989243 248.030181 
L 392.539805 252.513503 
L 388.562695 255.584751 
L 382.756407 260.43194 
L 379.250872 263.139321 
L 372.973009 268.449676 
L 370.067505 270.693891 
L 363.189611 276.58241 
L 361.032849 278.248461 
L 353.406213 284.852784 
L 352.176181 285.803031 
L 343.622815 293.293336 
L 343.539632 293.357601 
L 333.892434 300.912171 
L 333.839417 300.957456 
L 324.173296 308.466741 
L 324.056018 308.569371 
L 314.466677 316.021311 
L 314.27262 316.195272 
L 304.778838 323.575881 
L 304.489222 323.84177 
L 295.118224 331.130451 
L 294.705824 331.51806 
L 285.496508 338.685021 
L 284.922426 339.237115 
L 275.930126 346.239591 
L 275.139028 347.017503 
L 266.442589 353.794161 
L 265.35563 354.886143 
L 257.06801 361.348731 
L 255.572231 362.882651 
L 247.856668 368.903301 
L 245.788833 371.066394 
L 238.884047 376.457871 
L 236.005435 379.528344 
L 230.266042 384.012441 
L 226.222037 388.411619 
L 222.18527 391.567011 
z
M 253.977117 368.903301 
L 255.572231 367.658593 
L 257.936709 368.903301 
L 255.572231 370.476788 
z
M 261.725195 361.348731 
L 265.35563 358.517761 
L 270.057502 353.794161 
L 275.139028 349.834407 
L 278.79478 346.239591 
L 284.922426 341.467876 
L 287.816113 338.685021 
L 294.705824 333.323245 
L 297.03887 331.130451 
L 304.489222 325.335632 
L 306.406004 323.575881 
L 314.27262 317.460255 
L 315.877795 316.021311 
L 324.056018 309.66596 
L 325.426391 308.466741 
L 333.839417 301.930943 
L 335.032149 300.912171 
L 343.622815 294.239885 
L 344.681195 293.357601 
L 353.406213 286.58204 
L 354.363793 285.803031 
L 363.189611 278.949968 
L 364.073294 278.248461 
L 372.973009 271.338716 
L 373.805503 270.693891 
L 382.756407 263.745344 
L 383.558376 263.139321 
L 392.539805 256.168704 
L 393.332015 255.584751 
L 402.323203 248.609462 
L 403.128972 248.030181 
L 412.106602 241.070344 
L 412.954883 240.475611 
L 421.89 233.556611 
L 422.819508 232.921041 
L 431.673398 226.076791 
L 432.738212 225.36647 
L 441.456796 218.643645 
L 442.733866 217.8119 
L 451.240194 211.275303 
L 452.838979 210.25733 
L 461.023592 203.996347 
L 463.097544 202.70276 
L 470.80699 196.838491 
L 473.565742 195.14819 
L 480.590389 189.840351 
L 484.310504 187.59362 
L 490.373787 183.045978 
L 495.405542 180.03905 
L 500.157185 176.502397 
L 506.118067 180.03905 
L 500.157185 185.262785 
L 498.025395 187.59362 
L 490.373787 194.259507 
L 489.549742 195.14819 
L 480.956217 202.70276 
L 480.590389 202.989133 
L 472.757767 210.25733 
L 470.80699 211.775219 
L 464.213944 217.8119 
L 461.023592 220.281634 
L 455.37817 225.36647 
L 451.240194 228.557257 
L 446.305888 232.921041 
L 441.456796 236.650099 
L 437.047377 240.475611 
L 431.673398 244.601696 
L 427.644144 248.030181 
L 421.89 252.444964 
L 418.127879 255.584751 
L 412.106602 260.204153 
L 408.520824 263.139321 
L 402.323203 267.895711 
L 398.836697 270.693891 
L 392.539805 275.529384 
L 389.081659 278.248461 
L 382.756407 283.109175 
L 379.255013 285.803031 
L 372.973009 290.633978 
L 369.349376 293.357601 
L 363.189611 298.09772 
L 359.350036 300.912171 
L 353.406213 305.48884 
L 349.233153 308.466741 
L 343.622815 312.788844 
L 338.962294 316.021311 
L 333.839417 319.969593 
L 328.482489 323.575881 
L 324.056018 326.98867 
L 317.710389 331.130451 
L 314.27262 333.781758 
L 306.518036 338.685021 
L 304.489222 340.250095 
L 294.705824 346.239591 
L 294.705824 346.239591 
L 284.922426 352.805774 
L 283.099127 353.794161 
L 275.139028 359.100618 
L 270.901876 361.348731 
L 265.35563 365.035671 
z
M 506.926035 172.48448 
L 509.940583 170.257265 
L 513.724753 172.48448 
L 509.940583 175.816262 
z
M 518.945153 164.92991 
L 519.723981 164.358313 
L 520.710365 164.92991 
L 519.723981 165.801964 
z
M 578.42437 122.407157 
L 581.254332 119.60249 
L 578.42437 118.375781 
L 576.698978 119.60249 
z
" clip-path="url(#p72d07d277e)" style="fill: #eef5fc"/>
    <path d="M 255.572231 370.476788 
L 257.936709 368.903301 
L 255.572231 367.658593 
L 253.977117 368.903301 
z
M 265.35563 365.035671 
L 270.901876 361.348731 
L 275.139028 359.100618 
L 283.099127 353.794161 
L 284.922426 352.805774 
L 294.705824 346.239591 
L 294.705824 346.239591 
L 304.489222 340.250095 
L 306.518036 338.685021 
L 314.27262 333.781758 
L 317.710389 331.130451 
L 324.056018 326.98867 
L 328.482489 323.575881 
L 333.839417 319.969593 
L 338.962294 316.021311 
L 343.622815 312.788844 
L 349.233153 308.466741 
L 353.406213 305.48884 
L 359.350036 300.912171 
L 363.189611 298.09772 
L 369.349376 293.357601 
L 372.973009 290.633978 
L 379.255013 285.803031 
L 382.756407 283.109175 
L 389.081659 278.248461 
L 392.539805 275.529384 
L 398.836697 270.693891 
L 402.323203 267.895711 
L 408.520824 263.139321 
L 412.106602 260.204153 
L 418.127879 255.584751 
L 421.89 252.444964 
L 427.644144 248.030181 
L 431.673398 244.601696 
L 437.047377 240.475611 
L 441.456796 236.650099 
L 446.305888 232.921041 
L 451.240194 228.557257 
L 455.37817 225.36647 
L 461.023592 220.281634 
L 464.213944 217.8119 
L 470.80699 211.775219 
L 472.757767 210.25733 
L 480.590389 202.989133 
L 480.956217 202.70276 
L 489.549742 195.14819 
L 490.373787 194.259507 
L 498.025395 187.59362 
L 500.157185 185.262785 
L 506.118067 180.03905 
L 500.157185 176.502397 
L 495.405542 180.03905 
L 490.373787 183.045978 
L 484.310504 187.59362 
L 480.590389 189.840351 
L 473.565742 195.14819 
L 470.80699 196.838491 
L 463.097544 202.70276 
L 461.023592 203.996347 
L 452.838979 210.25733 
L 451.240194 211.275303 
L 442.733866 217.8119 
L 441.456796 218.643645 
L 432.738212 225.36647 
L 431.673398 226.076791 
L 422.819508 232.921041 
L 421.89 233.556611 
L 412.954883 240.475611 
L 412.106602 241.070344 
L 403.128972 248.030181 
L 402.323203 248.609462 
L 393.332015 255.584751 
L 392.539805 256.168704 
L 383.558376 263.139321 
L 382.756407 263.745344 
L 373.805503 270.693891 
L 372.973009 271.338716 
L 364.073294 278.248461 
L 363.189611 278.949968 
L 354.363793 285.803031 
L 353.406213 286.58204 
L 344.681195 293.357601 
L 343.622815 294.239885 
L 335.032149 300.912171 
L 333.839417 301.930943 
L 325.426391 308.466741 
L 324.056018 309.66596 
L 315.877795 316.021311 
L 314.27262 317.460255 
L 306.406004 323.575881 
L 304.489222 325.335632 
L 297.03887 331.130451 
L 294.705824 333.323245 
L 287.816113 338.685021 
L 284.922426 341.467876 
L 278.79478 346.239591 
L 275.139028 349.834407 
L 270.057502 353.794161 
L 265.35563 358.517761 
L 261.725195 361.348731 
z
M 274.841285 353.794161 
L 275.139028 353.562146 
L 275.605435 353.794161 
L 275.139028 354.105083 
z
M 282.58571 346.239591 
L 284.922426 344.419946 
L 288.653226 346.239591 
L 284.922426 348.743539 
z
M 290.885754 338.685021 
L 294.705824 335.71213 
L 299.58055 331.130451 
L 304.489222 327.312528 
L 308.559308 323.575881 
L 314.27262 319.134266 
L 317.745194 316.021311 
L 324.056018 311.117128 
L 327.08467 308.466741 
L 333.839417 303.219205 
L 336.540387 300.912171 
L 343.622815 295.411319 
L 346.086436 293.357601 
L 353.406213 287.673304 
L 355.705204 285.803031 
L 363.189611 279.991546 
L 365.385362 278.248461 
L 372.973009 272.357407 
L 375.120671 270.693891 
L 382.756407 264.766303 
L 384.909442 263.139321 
L 392.539805 257.217285 
L 394.754556 255.584751 
L 402.323203 249.713057 
L 404.664048 248.030181 
L 412.106602 242.2604 
L 414.652284 240.475611 
L 421.89 234.871011 
L 424.74179 232.921041 
L 431.673398 227.562756 
L 434.965767 225.36647 
L 441.456796 220.361294 
L 445.371162 217.8119 
L 451.240194 213.301905 
L 456.021875 210.25733 
L 461.023592 206.431167 
L 467.001185 202.70276 
L 470.80699 199.807835 
L 475.726563 202.70276 
L 470.80699 206.919468 
L 467.584762 210.25733 
L 461.023592 215.825171 
L 459.054625 217.8119 
L 451.240194 224.37269 
L 450.2258 225.36647 
L 441.456796 232.648539 
L 441.169629 232.921041 
L 432.223074 240.475611 
L 431.673398 240.897646 
L 423.291037 248.030181 
L 421.89 249.105106 
L 414.126029 255.584751 
L 412.106602 257.134015 
L 404.770159 263.139321 
L 402.323203 265.017247 
L 395.250158 270.693891 
L 392.539805 272.775218 
L 385.578885 278.248461 
L 382.756407 280.417427 
L 375.756358 285.803031 
L 372.973009 287.943464 
L 365.769793 293.357601 
L 363.189611 295.343126 
L 355.59212 300.912171 
L 353.406213 302.595292 
L 345.178302 308.466741 
L 343.622815 309.66506 
L 334.458471 316.021311 
L 333.839417 316.498426 
L 324.056018 323.272224 
L 323.560594 323.575881 
L 314.27262 330.065142 
L 312.472164 331.130451 
L 304.489222 336.61915 
L 300.881789 338.685021 
L 294.705824 342.873729 
z
M 478.412028 195.14819 
L 480.590389 193.502216 
L 483.368706 195.14819 
L 480.590389 197.550734 
z
M 509.940583 175.816262 
L 513.724753 172.48448 
L 509.940583 170.257265 
L 506.926035 172.48448 
z
M 519.723981 165.801964 
L 520.710365 164.92991 
L 519.723981 164.358313 
L 518.945153 164.92991 
z
" clip-path="url(#p72d07d277e)" style="fill: #d6e6f4"/>
    <path d="M 275.139028 354.105083 
L 275.605435 353.794161 
L 275.139028 353.562146 
L 274.841285 353.794161 
z
M 284.922426 348.743539 
L 288.653226 346.239591 
L 284.922426 344.419946 
L 282.58571 346.239591 
z
M 294.705824 342.873729 
L 300.881789 338.685021 
L 304.489222 336.61915 
L 312.472164 331.130451 
L 314.27262 330.065142 
L 323.560594 323.575881 
L 324.056018 323.272224 
L 333.839417 316.498426 
L 334.458471 316.021311 
L 343.622815 309.66506 
L 345.178302 308.466741 
L 353.406213 302.595292 
L 355.59212 300.912171 
L 363.189611 295.343126 
L 365.769793 293.357601 
L 372.973009 287.943464 
L 375.756358 285.803031 
L 382.756407 280.417427 
L 385.578885 278.248461 
L 392.539805 272.775218 
L 395.250158 270.693891 
L 402.323203 265.017247 
L 404.770159 263.139321 
L 412.106602 257.134015 
L 414.126029 255.584751 
L 421.89 249.105106 
L 423.291037 248.030181 
L 431.673398 240.897646 
L 432.223074 240.475611 
L 441.169629 232.921041 
L 441.456796 232.648539 
L 450.2258 225.36647 
L 451.240194 224.37269 
L 459.054625 217.8119 
L 461.023592 215.825171 
L 467.584762 210.25733 
L 470.80699 206.919468 
L 475.726563 202.70276 
L 470.80699 199.807835 
L 467.001185 202.70276 
L 461.023592 206.431167 
L 456.021875 210.25733 
L 451.240194 213.301905 
L 445.371162 217.8119 
L 441.456796 220.361294 
L 434.965767 225.36647 
L 431.673398 227.562756 
L 424.74179 232.921041 
L 421.89 234.871011 
L 414.652284 240.475611 
L 412.106602 242.2604 
L 404.664048 248.030181 
L 402.323203 249.713057 
L 394.754556 255.584751 
L 392.539805 257.217285 
L 384.909442 263.139321 
L 382.756407 264.766303 
L 375.120671 270.693891 
L 372.973009 272.357407 
L 365.385362 278.248461 
L 363.189611 279.991546 
L 355.705204 285.803031 
L 353.406213 287.673304 
L 346.086436 293.357601 
L 343.622815 295.411319 
L 336.540387 300.912171 
L 333.839417 303.219205 
L 327.08467 308.466741 
L 324.056018 311.117128 
L 317.745194 316.021311 
L 314.27262 319.134266 
L 308.559308 323.575881 
L 304.489222 327.312528 
L 299.58055 331.130451 
L 294.705824 335.71213 
L 290.885754 338.685021 
z
M 292.777871 338.685021 
L 294.705824 337.184631 
L 297.822776 338.685021 
L 294.705824 340.799023 
z
M 301.147232 331.130451 
L 304.489222 328.53108 
L 309.924278 331.130451 
L 304.489222 334.867342 
z
M 309.886597 323.575881 
L 314.27262 320.16612 
L 318.896251 316.021311 
L 324.056018 312.011622 
L 328.106827 308.466741 
L 333.839417 304.013284 
L 337.47006 300.912171 
L 343.622815 296.133387 
L 346.952622 293.357601 
L 353.406213 288.345956 
L 356.532046 285.803031 
L 363.189611 280.633571 
L 366.194116 278.248461 
L 372.973009 272.985324 
L 375.931336 270.693891 
L 382.756407 265.395619 
L 385.742234 263.139321 
L 392.539805 257.863628 
L 395.631405 255.584751 
L 402.323203 250.39331 
L 405.610264 248.030181 
L 412.106602 242.993946 
L 415.698556 240.475611 
L 421.89 235.681203 
L 425.926677 232.921041 
L 431.673398 228.4787 
L 436.338824 225.36647 
L 441.456796 221.420046 
L 446.996783 217.8119 
L 451.240194 214.551096 
L 456.890163 217.8119 
L 451.240194 222.555465 
L 448.370879 225.36647 
L 441.456796 231.108152 
L 439.546345 232.921041 
L 431.673398 239.388593 
L 430.488899 240.475611 
L 421.89 247.46572 
L 421.253371 248.030181 
L 412.106602 255.390355 
L 411.879537 255.584751 
L 402.458262 263.139321 
L 402.323203 263.242972 
L 393.039428 270.693891 
L 392.539805 271.077559 
L 383.419788 278.248461 
L 382.756407 278.758243 
L 373.599799 285.803031 
L 372.973009 286.285041 
L 363.56335 293.357601 
L 363.189611 293.645204 
L 353.406213 300.855493 
L 353.323659 300.912171 
L 343.622815 308.058925 
L 343.005581 308.466741 
L 333.839417 315.102021 
L 332.39411 316.021311 
L 324.056018 321.9497 
L 321.402856 323.575881 
L 314.27262 328.557588 
z
M 457.983801 210.25733 
L 461.023592 207.931981 
L 465.01114 210.25733 
L 461.023592 213.641183 
z
M 469.407375 202.70276 
L 470.80699 201.638129 
L 472.616202 202.70276 
L 470.80699 204.253488 
z
M 480.590389 197.550734 
L 483.368706 195.14819 
L 480.590389 193.502216 
L 478.412028 195.14819 
z
" clip-path="url(#p72d07d277e)" style="fill: #bfd8ed"/>
    <path d="M 294.705824 340.799023 
L 297.822776 338.685021 
L 294.705824 337.184631 
L 292.777871 338.685021 
z
M 304.489222 334.867342 
L 309.924278 331.130451 
L 304.489222 328.53108 
L 301.147232 331.130451 
z
M 302.743589 331.130451 
L 304.489222 329.772712 
L 307.328134 331.130451 
L 304.489222 333.082355 
z
M 314.27262 328.557588 
L 321.402856 323.575881 
L 324.056018 321.9497 
L 332.39411 316.021311 
L 333.839417 315.102021 
L 343.005581 308.466741 
L 343.622815 308.058925 
L 353.323659 300.912171 
L 353.406213 300.855493 
L 363.189611 293.645204 
L 363.56335 293.357601 
L 372.973009 286.285041 
L 373.599799 285.803031 
L 382.756407 278.758243 
L 383.419788 278.248461 
L 392.539805 271.077559 
L 393.039428 270.693891 
L 402.323203 263.242972 
L 402.458262 263.139321 
L 411.879537 255.584751 
L 412.106602 255.390355 
L 421.253371 248.030181 
L 421.89 247.46572 
L 430.488899 240.475611 
L 431.673398 239.388593 
L 439.546345 232.921041 
L 441.456796 231.108152 
L 448.370879 225.36647 
L 451.240194 222.555465 
L 456.890163 217.8119 
L 451.240194 214.551096 
L 446.996783 217.8119 
L 441.456796 221.420046 
L 436.338824 225.36647 
L 431.673398 228.4787 
L 425.926677 232.921041 
L 421.89 235.681203 
L 415.698556 240.475611 
L 412.106602 242.993946 
L 405.610264 248.030181 
L 402.323203 250.39331 
L 395.631405 255.584751 
L 392.539805 257.863628 
L 385.742234 263.139321 
L 382.756407 265.395619 
L 375.931336 270.693891 
L 372.973009 272.985324 
L 366.194116 278.248461 
L 363.189611 280.633571 
L 356.532046 285.803031 
L 353.406213 288.345956 
L 346.952622 293.357601 
L 343.622815 296.133387 
L 337.47006 300.912171 
L 333.839417 304.013284 
L 328.106827 308.466741 
L 324.056018 312.011622 
L 318.896251 316.021311 
L 314.27262 320.16612 
L 309.886597 323.575881 
z
M 311.239026 323.575881 
L 314.27262 321.217519 
L 319.204251 323.575881 
L 314.27262 327.021481 
z
M 320.069111 316.021311 
L 324.056018 312.923059 
L 329.148345 308.466741 
L 333.839417 304.822404 
L 338.417341 300.912171 
L 343.622815 296.869131 
L 347.835214 293.357601 
L 353.406213 289.031347 
L 357.374548 285.803031 
L 363.189611 281.287756 
L 367.018189 278.248461 
L 372.973009 273.625134 
L 376.757356 270.693891 
L 382.756407 266.036854 
L 386.5908 263.139321 
L 392.539805 258.522212 
L 396.524862 255.584751 
L 402.323203 251.086446 
L 406.574401 248.030181 
L 412.106602 243.741386 
L 416.764645 240.475611 
L 421.89 236.506739 
L 427.134007 232.921041 
L 431.673398 229.411993 
L 437.892316 232.921041 
L 431.673398 238.029824 
L 429.008276 240.475611 
L 421.89 246.262111 
L 419.895876 248.030181 
L 412.106602 254.298014 
L 410.603621 255.584751 
L 402.323203 262.181165 
L 401.163627 263.139321 
L 392.539805 269.939097 
L 391.592952 270.693891 
L 382.756407 277.585662 
L 381.894108 278.248461 
L 372.973009 285.123041 
L 372.054948 285.803031 
L 363.189611 292.543381 
L 362.048105 293.357601 
L 353.406213 299.830082 
L 351.830112 300.912171 
L 343.622815 306.958607 
L 341.340239 308.466741 
L 333.839417 313.8965 
L 330.498791 316.021311 
L 324.056018 320.602126 
z
M 437.737887 225.36647 
L 441.456796 222.498852 
L 446.480826 225.36647 
L 441.456796 229.53859 
z
M 448.653192 217.8119 
L 451.240194 215.823946 
L 454.684706 217.8119 
L 451.240194 220.703821 
z
M 461.023592 213.641183 
L 465.01114 210.25733 
L 461.023592 207.931981 
L 457.983801 210.25733 
z
M 459.982886 210.25733 
L 461.023592 209.461222 
L 462.388773 210.25733 
L 461.023592 211.41583 
z
M 470.80699 204.253488 
L 472.616202 202.70276 
L 470.80699 201.638129 
L 469.407375 202.70276 
z
" clip-path="url(#p72d07d277e)" style="fill: #a5cde3"/>
    <path d="M 304.489222 333.082355 
L 307.328134 331.130451 
L 304.489222 329.772712 
L 302.743589 331.130451 
z
M 314.27262 327.021481 
L 319.204251 323.575881 
L 314.27262 321.217519 
L 311.239026 323.575881 
z
M 324.056018 320.602126 
L 330.498791 316.021311 
L 333.839417 313.8965 
L 341.340239 308.466741 
L 343.622815 306.958607 
L 351.830112 300.912171 
L 353.406213 299.830082 
L 362.048105 293.357601 
L 363.189611 292.543381 
L 372.054948 285.803031 
L 372.973009 285.123041 
L 381.894108 278.248461 
L 382.756407 277.585662 
L 391.592952 270.693891 
L 392.539805 269.939097 
L 401.163627 263.139321 
L 402.323203 262.181165 
L 410.603621 255.584751 
L 412.106602 254.298014 
L 419.895876 248.030181 
L 421.89 246.262111 
L 429.008276 240.475611 
L 431.673398 238.029824 
L 437.892316 232.921041 
L 431.673398 229.411993 
L 427.134007 232.921041 
L 421.89 236.506739 
L 416.764645 240.475611 
L 412.106602 243.741386 
L 406.574401 248.030181 
L 402.323203 251.086446 
L 396.524862 255.584751 
L 392.539805 258.522212 
L 386.5908 263.139321 
L 382.756407 266.036854 
L 376.757356 270.693891 
L 372.973009 273.625134 
L 367.018189 278.248461 
L 363.189611 281.287756 
L 357.374548 285.803031 
L 353.406213 289.031347 
L 347.835214 293.357601 
L 343.622815 296.869131 
L 338.417341 300.912171 
L 333.839417 304.822404 
L 329.148345 308.466741 
L 324.056018 312.923059 
L 320.069111 316.021311 
z
M 323.186737 316.021311 
L 324.056018 315.345787 
L 325.460761 316.021311 
L 324.056018 317.020084 
z
M 331.916846 308.466741 
L 333.839417 306.97316 
L 336.913525 308.466741 
L 333.839417 310.692052 
z
M 340.935349 300.912171 
L 343.622815 298.824843 
L 347.860052 300.912171 
L 343.622815 304.033806 
z
M 350.181268 293.357601 
L 353.406213 290.853216 
L 358.408838 293.357601 
L 353.406213 297.104396 
z
M 359.614038 285.803031 
L 363.189611 283.026674 
L 368.64074 285.803031 
L 363.189611 289.947545 
z
M 369.20869 278.248461 
L 372.973009 275.325841 
L 378.612451 278.248461 
L 372.973009 282.594203 
z
M 378.953033 270.693891 
L 382.756407 267.741348 
L 388.358741 270.693891 
L 382.756407 275.063246 
z
M 388.846409 263.139321 
L 392.539805 260.272822 
L 397.893842 263.139321 
L 392.539805 267.360912 
z
M 398.899797 255.584751 
L 402.323203 252.928901 
L 407.212055 255.584751 
L 402.323203 259.479348 
z
M 409.137215 248.030181 
L 412.106602 245.728187 
L 416.287463 248.030181 
L 412.106602 251.394415 
z
M 419.598461 240.475611 
L 421.89 238.701134 
L 425.072571 240.475611 
L 421.89 243.062747 
z
M 430.343262 232.921041 
L 431.673398 231.892816 
L 433.49567 232.921041 
L 431.673398 234.41802 
z
M 441.456796 229.53859 
L 446.480826 225.36647 
L 441.456796 222.498852 
L 437.737887 225.36647 
z
M 451.240194 220.703821 
L 454.684706 217.8119 
L 451.240194 215.823946 
L 448.653192 217.8119 
z
M 461.023592 211.41583 
L 462.388773 210.25733 
L 461.023592 209.461222 
L 459.982886 210.25733 
z
" clip-path="url(#p72d07d277e)" style="fill: #69add5"/>
    <path d="M 324.056018 317.020084 
L 325.460761 316.021311 
L 324.056018 315.345787 
L 323.186737 316.021311 
z
M 333.839417 310.692052 
L 336.913525 308.466741 
L 333.839417 306.97316 
L 331.916846 308.466741 
z
M 343.622815 304.033806 
L 347.860052 300.912171 
L 343.622815 298.824843 
L 340.935349 300.912171 
z
M 342.971513 300.912171 
L 343.622815 300.406311 
L 344.6497 300.912171 
L 343.622815 301.668692 
z
M 353.406213 297.104396 
L 358.408838 293.357601 
L 353.406213 290.853216 
L 350.181268 293.357601 
z
M 352.078384 293.357601 
L 353.406213 292.326453 
L 355.465979 293.357601 
L 353.406213 294.900295 
z
M 363.189611 289.947545 
L 368.64074 285.803031 
L 363.189611 283.026674 
L 359.614038 285.803031 
z
M 361.424982 285.803031 
L 363.189611 284.432833 
L 365.879871 285.803031 
L 363.189611 287.848446 
z
M 372.973009 282.594203 
L 378.612451 278.248461 
L 372.973009 275.325841 
L 369.20869 278.248461 
z
M 370.980019 278.248461 
L 372.973009 276.701102 
L 375.958769 278.248461 
L 372.973009 280.549281 
z
M 382.756407 275.063246 
L 388.358741 270.693891 
L 382.756407 267.741348 
L 378.953033 270.693891 
z
M 380.728547 270.693891 
L 382.756407 269.119672 
L 385.743426 270.693891 
L 382.756407 273.023518 
z
M 392.539805 267.360912 
L 397.893842 263.139321 
L 392.539805 260.272822 
L 388.846409 263.139321 
z
M 390.670386 263.139321 
L 392.539805 261.688437 
L 395.249761 263.139321 
L 392.539805 265.276087 
z
M 402.323203 259.479348 
L 407.212055 255.584751 
L 402.323203 252.928901 
L 398.899797 255.584751 
z
M 400.820267 255.584751 
L 402.323203 254.418785 
L 404.469497 255.584751 
L 402.323203 257.294548 
z
M 412.106602 251.394415 
L 416.287463 248.030181 
L 412.106602 245.728187 
L 409.137215 248.030181 
z
M 411.209611 248.030181 
L 412.106602 247.334796 
L 413.369553 248.030181 
L 412.106602 249.046446 
z
M 421.89 243.062747 
L 425.072571 240.475611 
L 421.89 238.701134 
L 419.598461 240.475611 
z
M 431.673398 234.41802 
L 433.49567 232.921041 
L 431.673398 231.892816 
L 430.343262 232.921041 
z
" clip-path="url(#p72d07d277e)" style="fill: #2d7dbb"/>
    <path d="M 343.622815 301.668692 
L 344.6497 300.912171 
L 343.622815 300.406311 
L 342.971513 300.912171 
z
M 353.406213 294.900295 
L 355.465979 293.357601 
L 353.406213 292.326453 
L 352.078384 293.357601 
z
M 363.189611 287.848446 
L 365.879871 285.803031 
L 363.189611 284.432833 
L 361.424982 285.803031 
z
M 362.692497 285.803031 
L 363.189611 285.417032 
L 363.947484 285.803031 
L 363.189611 286.379245 
z
M 372.973009 280.549281 
L 375.958769 278.248461 
L 372.973009 276.701102 
L 370.980019 278.248461 
z
M 372.219807 278.248461 
L 372.973009 277.663674 
L 374.101404 278.248461 
L 372.973009 279.118 
z
M 382.756407 273.023518 
L 385.743426 270.693891 
L 382.756407 269.119672 
L 380.728547 270.693891 
z
M 381.971265 270.693891 
L 382.756407 270.084388 
L 383.912915 270.693891 
L 382.756407 271.595871 
z
M 392.539805 265.276087 
L 395.249761 263.139321 
L 392.539805 261.688437 
L 390.670386 263.139321 
z
M 391.947024 263.139321 
L 392.539805 262.679255 
L 393.399115 263.139321 
L 392.539805 263.816876 
z
M 402.323203 257.294548 
L 404.469497 255.584751 
L 402.323203 254.418785 
L 400.820267 255.584751 
z
M 402.164442 255.584751 
L 402.323203 255.461585 
L 402.549925 255.584751 
L 402.323203 255.765363 
z
M 412.106602 249.046446 
L 413.369553 248.030181 
L 412.106602 247.334796 
L 411.209611 248.030181 
z
" clip-path="url(#p72d07d277e)" style="fill: #0b559f"/>
    <path d="M 363.189611 286.379245 
L 363.947484 285.803031 
L 363.189611 285.417032 
L 362.692497 285.803031 
z
M 372.973009 279.118 
L 374.101404 278.248461 
L 372.973009 277.663674 
L 372.219807 278.248461 
z
M 372.795478 278.248461 
L 372.973009 278.110625 
L 373.238974 278.248461 
L 372.973009 278.453413 
z
M 382.756407 271.595871 
L 383.912915 270.693891 
L 382.756407 270.084388 
L 381.971265 270.693891 
z
M 382.548295 270.693891 
L 382.756407 270.532334 
L 383.062954 270.693891 
L 382.756407 270.932972 
z
M 392.539805 263.816876 
L 393.399115 263.139321 
L 392.539805 262.679255 
L 391.947024 263.139321 
z
M 402.323203 255.765363 
L 402.549925 255.584751 
L 402.323203 255.461585 
L 402.164442 255.584751 
z
" clip-path="url(#p72d07d277e)" style="fill: #083c7d"/>
    <path d="M 372.973009 278.453413 
L 373.238974 278.248461 
L 372.973009 278.110625 
L 372.795478 278.248461 
z
M 382.756407 270.932972 
L 383.062954 270.693891 
L 382.756407 270.532334 
L 382.548295 270.693891 
z
" clip-path="url(#p72d07d277e)" style="fill: #08326e"/>
   </g>
   <g id="matplotlib.axis_1">
    <g id="xtick_1">
     <g id="line2d_1">
      <defs>
       <path id="m4ba023c975" d="M 0 0 
L 0 3.5 
" style="stroke: #000000; stroke-width: 0.8"/>
      </defs>
      <g>
       <use xlink:href="#m4ba023c975" x="102.17" y="499.48" style="stroke: #000000; stroke-width: 0.8"/>
      </g>
     </g>
     <g id="text_1">
      <!-- −80 -->
      <g transform="translate(78.954844 523.196563) scale(0.22 -0.22)">
       <defs>
        <path id="DejaVuSans-2212" d="M 678 2272 
L 4684 2272 
L 4684 1741 
L 678 1741 
L 678 2272 
z
" transform="scale(0.015625)"/>
        <path id="DejaVuSans-38" d="M 2034 2216 
Q 1584 2216 1326 1975 
Q 1069 1734 1069 1313 
Q 1069 891 1326 650 
Q 1584 409 2034 409 
Q 2484 409 2743 651 
Q 3003 894 3003 1313 
Q 3003 1734 2745 1975 
Q 2488 2216 2034 2216 
z
M 1403 2484 
Q 997 2584 770 2862 
Q 544 3141 544 3541 
Q 544 4100 942 4425 
Q 1341 4750 2034 4750 
Q 2731 4750 3128 4425 
Q 3525 4100 3525 3541 
Q 3525 3141 3298 2862 
Q 3072 2584 2669 2484 
Q 3125 2378 3379 2068 
Q 3634 1759 3634 1313 
Q 3634 634 3220 271 
Q 2806 -91 2034 -91 
Q 1263 -91 848 271 
Q 434 634 434 1313 
Q 434 1759 690 2068 
Q 947 2378 1403 2484 
z
M 1172 3481 
Q 1172 3119 1398 2916 
Q 1625 2713 2034 2713 
Q 2441 2713 2670 2916 
Q 2900 3119 2900 3481 
Q 2900 3844 2670 4047 
Q 2441 4250 2034 4250 
Q 1625 4250 1398 4047 
Q 1172 3844 1172 3481 
z
" transform="scale(0.015625)"/>
        <path id="DejaVuSans-30" d="M 2034 4250 
Q 1547 4250 1301 3770 
Q 1056 3291 1056 2328 
Q 1056 1369 1301 889 
Q 1547 409 2034 409 
Q 2525 409 2770 889 
Q 3016 1369 3016 2328 
Q 3016 3291 2770 3770 
Q 2525 4250 2034 4250 
z
M 2034 4750 
Q 2819 4750 3233 4129 
Q 3647 3509 3647 2328 
Q 3647 1150 3233 529 
Q 2819 -91 2034 -91 
Q 1250 -91 836 529 
Q 422 1150 422 2328 
Q 422 3509 836 4129 
Q 1250 4750 2034 4750 
z
" transform="scale(0.015625)"/>
       </defs>
       <use xlink:href="#DejaVuSans-2212"/>
       <use xlink:href="#DejaVuSans-38" x="83.789062"/>
       <use xlink:href="#DejaVuSans-30" x="147.412109"/>
      </g>
     </g>
    </g>
    <g id="xtick_2">
     <g id="line2d_2">
      <g>
       <use xlink:href="#m4ba023c975" x="174.67375" y="499.48" style="stroke: #000000; stroke-width: 0.8"/>
      </g>
     </g>
     <g id="text_2">
      <!-- −60 -->
      <g transform="translate(151.458594 523.196563) scale(0.22 -0.22)">
       <defs>
        <path id="DejaVuSans-36" d="M 2113 2584 
Q 1688 2584 1439 2293 
Q 1191 2003 1191 1497 
Q 1191 994 1439 701 
Q 1688 409 2113 409 
Q 2538 409 2786 701 
Q 3034 994 3034 1497 
Q 3034 2003 2786 2293 
Q 2538 2584 2113 2584 
z
M 3366 4563 
L 3366 3988 
Q 3128 4100 2886 4159 
Q 2644 4219 2406 4219 
Q 1781 4219 1451 3797 
Q 1122 3375 1075 2522 
Q 1259 2794 1537 2939 
Q 1816 3084 2150 3084 
Q 2853 3084 3261 2657 
Q 3669 2231 3669 1497 
Q 3669 778 3244 343 
Q 2819 -91 2113 -91 
Q 1303 -91 875 529 
Q 447 1150 447 2328 
Q 447 3434 972 4092 
Q 1497 4750 2381 4750 
Q 2619 4750 2861 4703 
Q 3103 4656 3366 4563 
z
" transform="scale(0.015625)"/>
       </defs>
       <use xlink:href="#DejaVuSans-2212"/>
       <use xlink:href="#DejaVuSans-36" x="83.789062"/>
       <use xlink:href="#DejaVuSans-30" x="147.412109"/>
      </g>
     </g>
    </g>
    <g id="xtick_3">
     <g id="line2d_3">
      <g>
       <use xlink:href="#m4ba023c975" x="247.1775" y="499.48" style="stroke: #000000; stroke-width: 0.8"/>
      </g>
     </g>
     <g id="text_3">
      <!-- −40 -->
      <g transform="translate(223.962344 523.196563) scale(0.22 -0.22)">
       <defs>
        <path id="DejaVuSans-34" d="M 2419 4116 
L 825 1625 
L 2419 1625 
L 2419 4116 
z
M 2253 4666 
L 3047 4666 
L 3047 1625 
L 3713 1625 
L 3713 1100 
L 3047 1100 
L 3047 0 
L 2419 0 
L 2419 1100 
L 313 1100 
L 313 1709 
L 2253 4666 
z
" transform="scale(0.015625)"/>
       </defs>
       <use xlink:href="#DejaVuSans-2212"/>
       <use xlink:href="#DejaVuSans-34" x="83.789062"/>
       <use xlink:href="#DejaVuSans-30" x="147.412109"/>
      </g>
     </g>
    </g>
    <g id="xtick_4">
     <g id="line2d_4">
      <g>
       <use xlink:href="#m4ba023c975" x="319.68125" y="499.48" style="stroke: #000000; stroke-width: 0.8"/>
      </g>
     </g>
     <g id="text_4">
      <!-- −20 -->
      <g transform="translate(296.466094 523.196563) scale(0.22 -0.22)">
       <defs>
        <path id="DejaVuSans-32" d="M 1228 531 
L 3431 531 
L 3431 0 
L 469 0 
L 469 531 
Q 828 903 1448 1529 
Q 2069 2156 2228 2338 
Q 2531 2678 2651 2914 
Q 2772 3150 2772 3378 
Q 2772 3750 2511 3984 
Q 2250 4219 1831 4219 
Q 1534 4219 1204 4116 
Q 875 4013 500 3803 
L 500 4441 
Q 881 4594 1212 4672 
Q 1544 4750 1819 4750 
Q 2544 4750 2975 4387 
Q 3406 4025 3406 3419 
Q 3406 3131 3298 2873 
Q 3191 2616 2906 2266 
Q 2828 2175 2409 1742 
Q 1991 1309 1228 531 
z
" transform="scale(0.015625)"/>
       </defs>
       <use xlink:href="#DejaVuSans-2212"/>
       <use xlink:href="#DejaVuSans-32" x="83.789062"/>
       <use xlink:href="#DejaVuSans-30" x="147.412109"/>
      </g>
     </g>
    </g>
    <g id="xtick_5">
     <g id="line2d_5">
      <g>
       <use xlink:href="#m4ba023c975" x="392.185" y="499.48" style="stroke: #000000; stroke-width: 0.8"/>
      </g>
     </g>
     <g id="text_5">
      <!-- 0 -->
      <g transform="translate(385.18625 523.196563) scale(0.22 -0.22)">
       <use xlink:href="#DejaVuSans-30"/>
      </g>
     </g>
    </g>
    <g id="xtick_6">
     <g id="line2d_6">
      <g>
       <use xlink:href="#m4ba023c975" x="464.68875" y="499.48" style="stroke: #000000; stroke-width: 0.8"/>
      </g>
     </g>
     <g id="text_6">
      <!-- 20 -->
      <g transform="translate(450.69125 523.196563) scale(0.22 -0.22)">
       <use xlink:href="#DejaVuSans-32"/>
       <use xlink:href="#DejaVuSans-30" x="63.623047"/>
      </g>
     </g>
    </g>
    <g id="xtick_7">
     <g id="line2d_7">
      <g>
       <use xlink:href="#m4ba023c975" x="537.1925" y="499.48" style="stroke: #000000; stroke-width: 0.8"/>
      </g>
     </g>
     <g id="text_7">
      <!-- 40 -->
      <g transform="translate(523.195 523.196563) scale(0.22 -0.22)">
       <use xlink:href="#DejaVuSans-34"/>
       <use xlink:href="#DejaVuSans-30" x="63.623047"/>
      </g>
     </g>
    </g>
    <g id="xtick_8">
     <g id="line2d_8">
      <g>
       <use xlink:href="#m4ba023c975" x="609.69625" y="499.48" style="stroke: #000000; stroke-width: 0.8"/>
      </g>
     </g>
     <g id="text_8">
      <!-- 60 -->
      <g transform="translate(595.69875 523.196563) scale(0.22 -0.22)">
       <use xlink:href="#DejaVuSans-36"/>
       <use xlink:href="#DejaVuSans-30" x="63.623047"/>
      </g>
     </g>
    </g>
    <g id="xtick_9">
     <g id="line2d_9">
      <g>
       <use xlink:href="#m4ba023c975" x="682.2" y="499.48" style="stroke: #000000; stroke-width: 0.8"/>
      </g>
     </g>
     <g id="text_9">
      <!-- 80 -->
      <g transform="translate(668.2025 523.196563) scale(0.22 -0.22)">
       <use xlink:href="#DejaVuSans-38"/>
       <use xlink:href="#DejaVuSans-30" x="63.623047"/>
      </g>
     </g>
    </g>
    <g id="text_10">
     <!-- Ground Truth Energy [kJ/mol] -->
     <g transform="translate(232.45125 548.488438) scale(0.22 -0.22)">
      <defs>
       <path id="DejaVuSans-47" d="M 3809 666 
L 3809 1919 
L 2778 1919 
L 2778 2438 
L 4434 2438 
L 4434 434 
Q 4069 175 3628 42 
Q 3188 -91 2688 -91 
Q 1594 -91 976 548 
Q 359 1188 359 2328 
Q 359 3472 976 4111 
Q 1594 4750 2688 4750 
Q 3144 4750 3555 4637 
Q 3966 4525 4313 4306 
L 4313 3634 
Q 3963 3931 3569 4081 
Q 3175 4231 2741 4231 
Q 1884 4231 1454 3753 
Q 1025 3275 1025 2328 
Q 1025 1384 1454 906 
Q 1884 428 2741 428 
Q 3075 428 3337 486 
Q 3600 544 3809 666 
z
" transform="scale(0.015625)"/>
       <path id="DejaVuSans-72" d="M 2631 2963 
Q 2534 3019 2420 3045 
Q 2306 3072 2169 3072 
Q 1681 3072 1420 2755 
Q 1159 2438 1159 1844 
L 1159 0 
L 581 0 
L 581 3500 
L 1159 3500 
L 1159 2956 
Q 1341 3275 1631 3429 
Q 1922 3584 2338 3584 
Q 2397 3584 2469 3576 
Q 2541 3569 2628 3553 
L 2631 2963 
z
" transform="scale(0.015625)"/>
       <path id="DejaVuSans-6f" d="M 1959 3097 
Q 1497 3097 1228 2736 
Q 959 2375 959 1747 
Q 959 1119 1226 758 
Q 1494 397 1959 397 
Q 2419 397 2687 759 
Q 2956 1122 2956 1747 
Q 2956 2369 2687 2733 
Q 2419 3097 1959 3097 
z
M 1959 3584 
Q 2709 3584 3137 3096 
Q 3566 2609 3566 1747 
Q 3566 888 3137 398 
Q 2709 -91 1959 -91 
Q 1206 -91 779 398 
Q 353 888 353 1747 
Q 353 2609 779 3096 
Q 1206 3584 1959 3584 
z
" transform="scale(0.015625)"/>
       <path id="DejaVuSans-75" d="M 544 1381 
L 544 3500 
L 1119 3500 
L 1119 1403 
Q 1119 906 1312 657 
Q 1506 409 1894 409 
Q 2359 409 2629 706 
Q 2900 1003 2900 1516 
L 2900 3500 
L 3475 3500 
L 3475 0 
L 2900 0 
L 2900 538 
Q 2691 219 2414 64 
Q 2138 -91 1772 -91 
Q 1169 -91 856 284 
Q 544 659 544 1381 
z
M 1991 3584 
L 1991 3584 
z
" transform="scale(0.015625)"/>
       <path id="DejaVuSans-6e" d="M 3513 2113 
L 3513 0 
L 2938 0 
L 2938 2094 
Q 2938 2591 2744 2837 
Q 2550 3084 2163 3084 
Q 1697 3084 1428 2787 
Q 1159 2491 1159 1978 
L 1159 0 
L 581 0 
L 581 3500 
L 1159 3500 
L 1159 2956 
Q 1366 3272 1645 3428 
Q 1925 3584 2291 3584 
Q 2894 3584 3203 3211 
Q 3513 2838 3513 2113 
z
" transform="scale(0.015625)"/>
       <path id="DejaVuSans-64" d="M 2906 2969 
L 2906 4863 
L 3481 4863 
L 3481 0 
L 2906 0 
L 2906 525 
Q 2725 213 2448 61 
Q 2172 -91 1784 -91 
Q 1150 -91 751 415 
Q 353 922 353 1747 
Q 353 2572 751 3078 
Q 1150 3584 1784 3584 
Q 2172 3584 2448 3432 
Q 2725 3281 2906 2969 
z
M 947 1747 
Q 947 1113 1208 752 
Q 1469 391 1925 391 
Q 2381 391 2643 752 
Q 2906 1113 2906 1747 
Q 2906 2381 2643 2742 
Q 2381 3103 1925 3103 
Q 1469 3103 1208 2742 
Q 947 2381 947 1747 
z
" transform="scale(0.015625)"/>
       <path id="DejaVuSans-20" transform="scale(0.015625)"/>
       <path id="DejaVuSans-54" d="M -19 4666 
L 3928 4666 
L 3928 4134 
L 2272 4134 
L 2272 0 
L 1638 0 
L 1638 4134 
L -19 4134 
L -19 4666 
z
" transform="scale(0.015625)"/>
       <path id="DejaVuSans-74" d="M 1172 4494 
L 1172 3500 
L 2356 3500 
L 2356 3053 
L 1172 3053 
L 1172 1153 
Q 1172 725 1289 603 
Q 1406 481 1766 481 
L 2356 481 
L 2356 0 
L 1766 0 
Q 1100 0 847 248 
Q 594 497 594 1153 
L 594 3053 
L 172 3053 
L 172 3500 
L 594 3500 
L 594 4494 
L 1172 4494 
z
" transform="scale(0.015625)"/>
       <path id="DejaVuSans-68" d="M 3513 2113 
L 3513 0 
L 2938 0 
L 2938 2094 
Q 2938 2591 2744 2837 
Q 2550 3084 2163 3084 
Q 1697 3084 1428 2787 
Q 1159 2491 1159 1978 
L 1159 0 
L 581 0 
L 581 4863 
L 1159 4863 
L 1159 2956 
Q 1366 3272 1645 3428 
Q 1925 3584 2291 3584 
Q 2894 3584 3203 3211 
Q 3513 2838 3513 2113 
z
" transform="scale(0.015625)"/>
       <path id="DejaVuSans-45" d="M 628 4666 
L 3578 4666 
L 3578 4134 
L 1259 4134 
L 1259 2753 
L 3481 2753 
L 3481 2222 
L 1259 2222 
L 1259 531 
L 3634 531 
L 3634 0 
L 628 0 
L 628 4666 
z
" transform="scale(0.015625)"/>
       <path id="DejaVuSans-65" d="M 3597 1894 
L 3597 1613 
L 953 1613 
Q 991 1019 1311 708 
Q 1631 397 2203 397 
Q 2534 397 2845 478 
Q 3156 559 3463 722 
L 3463 178 
Q 3153 47 2828 -22 
Q 2503 -91 2169 -91 
Q 1331 -91 842 396 
Q 353 884 353 1716 
Q 353 2575 817 3079 
Q 1281 3584 2069 3584 
Q 2775 3584 3186 3129 
Q 3597 2675 3597 1894 
z
M 3022 2063 
Q 3016 2534 2758 2815 
Q 2500 3097 2075 3097 
Q 1594 3097 1305 2825 
Q 1016 2553 972 2059 
L 3022 2063 
z
" transform="scale(0.015625)"/>
       <path id="DejaVuSans-67" d="M 2906 1791 
Q 2906 2416 2648 2759 
Q 2391 3103 1925 3103 
Q 1463 3103 1205 2759 
Q 947 2416 947 1791 
Q 947 1169 1205 825 
Q 1463 481 1925 481 
Q 2391 481 2648 825 
Q 2906 1169 2906 1791 
z
M 3481 434 
Q 3481 -459 3084 -895 
Q 2688 -1331 1869 -1331 
Q 1566 -1331 1297 -1286 
Q 1028 -1241 775 -1147 
L 775 -588 
Q 1028 -725 1275 -790 
Q 1522 -856 1778 -856 
Q 2344 -856 2625 -561 
Q 2906 -266 2906 331 
L 2906 616 
Q 2728 306 2450 153 
Q 2172 0 1784 0 
Q 1141 0 747 490 
Q 353 981 353 1791 
Q 353 2603 747 3093 
Q 1141 3584 1784 3584 
Q 2172 3584 2450 3431 
Q 2728 3278 2906 2969 
L 2906 3500 
L 3481 3500 
L 3481 434 
z
" transform="scale(0.015625)"/>
       <path id="DejaVuSans-79" d="M 2059 -325 
Q 1816 -950 1584 -1140 
Q 1353 -1331 966 -1331 
L 506 -1331 
L 506 -850 
L 844 -850 
Q 1081 -850 1212 -737 
Q 1344 -625 1503 -206 
L 1606 56 
L 191 3500 
L 800 3500 
L 1894 763 
L 2988 3500 
L 3597 3500 
L 2059 -325 
z
" transform="scale(0.015625)"/>
       <path id="DejaVuSans-5b" d="M 550 4863 
L 1875 4863 
L 1875 4416 
L 1125 4416 
L 1125 -397 
L 1875 -397 
L 1875 -844 
L 550 -844 
L 550 4863 
z
" transform="scale(0.015625)"/>
       <path id="DejaVuSans-6b" d="M 581 4863 
L 1159 4863 
L 1159 1991 
L 2875 3500 
L 3609 3500 
L 1753 1863 
L 3688 0 
L 2938 0 
L 1159 1709 
L 1159 0 
L 581 0 
L 581 4863 
z
" transform="scale(0.015625)"/>
       <path id="DejaVuSans-4a" d="M 628 4666 
L 1259 4666 
L 1259 325 
Q 1259 -519 939 -900 
Q 619 -1281 -91 -1281 
L -331 -1281 
L -331 -750 
L -134 -750 
Q 284 -750 456 -515 
Q 628 -281 628 325 
L 628 4666 
z
" transform="scale(0.015625)"/>
       <path id="DejaVuSans-2f" d="M 1625 4666 
L 2156 4666 
L 531 -594 
L 0 -594 
L 1625 4666 
z
" transform="scale(0.015625)"/>
       <path id="DejaVuSans-6d" d="M 3328 2828 
Q 3544 3216 3844 3400 
Q 4144 3584 4550 3584 
Q 5097 3584 5394 3201 
Q 5691 2819 5691 2113 
L 5691 0 
L 5113 0 
L 5113 2094 
Q 5113 2597 4934 2840 
Q 4756 3084 4391 3084 
Q 3944 3084 3684 2787 
Q 3425 2491 3425 1978 
L 3425 0 
L 2847 0 
L 2847 2094 
Q 2847 2600 2669 2842 
Q 2491 3084 2119 3084 
Q 1678 3084 1418 2786 
Q 1159 2488 1159 1978 
L 1159 0 
L 581 0 
L 581 3500 
L 1159 3500 
L 1159 2956 
Q 1356 3278 1631 3431 
Q 1906 3584 2284 3584 
Q 2666 3584 2933 3390 
Q 3200 3197 3328 2828 
z
" transform="scale(0.015625)"/>
       <path id="DejaVuSans-6c" d="M 603 4863 
L 1178 4863 
L 1178 0 
L 603 0 
L 603 4863 
z
" transform="scale(0.015625)"/>
       <path id="DejaVuSans-5d" d="M 1947 4863 
L 1947 -844 
L 622 -844 
L 622 -397 
L 1369 -397 
L 1369 4416 
L 622 4416 
L 622 4863 
L 1947 4863 
z
" transform="scale(0.015625)"/>
      </defs>
      <use xlink:href="#DejaVuSans-47"/>
      <use xlink:href="#DejaVuSans-72" x="77.490234"/>
      <use xlink:href="#DejaVuSans-6f" x="116.353516"/>
      <use xlink:href="#DejaVuSans-75" x="177.535156"/>
      <use xlink:href="#DejaVuSans-6e" x="240.914062"/>
      <use xlink:href="#DejaVuSans-64" x="304.292969"/>
      <use xlink:href="#DejaVuSans-20" x="367.769531"/>
      <use xlink:href="#DejaVuSans-54" x="399.556641"/>
      <use xlink:href="#DejaVuSans-72" x="445.890625"/>
      <use xlink:href="#DejaVuSans-75" x="487.003906"/>
      <use xlink:href="#DejaVuSans-74" x="550.382812"/>
      <use xlink:href="#DejaVuSans-68" x="589.591797"/>
      <use xlink:href="#DejaVuSans-20" x="652.970703"/>
      <use xlink:href="#DejaVuSans-45" x="684.757812"/>
      <use xlink:href="#DejaVuSans-6e" x="747.941406"/>
      <use xlink:href="#DejaVuSans-65" x="811.320312"/>
      <use xlink:href="#DejaVuSans-72" x="872.84375"/>
      <use xlink:href="#DejaVuSans-67" x="912.207031"/>
      <use xlink:href="#DejaVuSans-79" x="975.683594"/>
      <use xlink:href="#DejaVuSans-20" x="1034.863281"/>
      <use xlink:href="#DejaVuSans-5b" x="1066.650391"/>
      <use xlink:href="#DejaVuSans-6b" x="1105.664062"/>
      <use xlink:href="#DejaVuSans-4a" x="1163.574219"/>
      <use xlink:href="#DejaVuSans-2f" x="1193.066406"/>
      <use xlink:href="#DejaVuSans-6d" x="1226.757812"/>
      <use xlink:href="#DejaVuSans-6f" x="1324.169922"/>
      <use xlink:href="#DejaVuSans-6c" x="1385.351562"/>
      <use xlink:href="#DejaVuSans-5d" x="1413.134766"/>
     </g>
    </g>
   </g>
   <g id="matplotlib.axis_2">
    <g id="ytick_1">
     <g id="line2d_10">
      <defs>
       <path id="m4061f6baa8" d="M 0 0 
L -3.5 0 
" style="stroke: #000000; stroke-width: 0.8"/>
      </defs>
      <g>
       <use xlink:href="#m4061f6baa8" x="102.17" y="499.48" style="stroke: #000000; stroke-width: 0.8"/>
      </g>
     </g>
     <g id="text_11">
      <!-- −80 -->
      <g transform="translate(48.739688 507.838281) scale(0.22 -0.22)">
       <use xlink:href="#DejaVuSans-2212"/>
       <use xlink:href="#DejaVuSans-38" x="83.789062"/>
       <use xlink:href="#DejaVuSans-30" x="147.412109"/>
      </g>
     </g>
    </g>
    <g id="ytick_2">
     <g id="line2d_11">
      <g>
       <use xlink:href="#m4061f6baa8" x="102.17" y="441.05" style="stroke: #000000; stroke-width: 0.8"/>
      </g>
     </g>
     <g id="text_12">
      <!-- −60 -->
      <g transform="translate(48.739688 449.408281) scale(0.22 -0.22)">
       <use xlink:href="#DejaVuSans-2212"/>
       <use xlink:href="#DejaVuSans-36" x="83.789062"/>
       <use xlink:href="#DejaVuSans-30" x="147.412109"/>
      </g>
     </g>
    </g>
    <g id="ytick_3">
     <g id="line2d_12">
      <g>
       <use xlink:href="#m4061f6baa8" x="102.17" y="382.62" style="stroke: #000000; stroke-width: 0.8"/>
      </g>
     </g>
     <g id="text_13">
      <!-- −40 -->
      <g transform="translate(48.739688 390.978281) scale(0.22 -0.22)">
       <use xlink:href="#DejaVuSans-2212"/>
       <use xlink:href="#DejaVuSans-34" x="83.789062"/>
       <use xlink:href="#DejaVuSans-30" x="147.412109"/>
      </g>
     </g>
    </g>
    <g id="ytick_4">
     <g id="line2d_13">
      <g>
       <use xlink:href="#m4061f6baa8" x="102.17" y="324.19" style="stroke: #000000; stroke-width: 0.8"/>
      </g>
     </g>
     <g id="text_14">
      <!-- −20 -->
      <g transform="translate(48.739688 332.548281) scale(0.22 -0.22)">
       <use xlink:href="#DejaVuSans-2212"/>
       <use xlink:href="#DejaVuSans-32" x="83.789062"/>
       <use xlink:href="#DejaVuSans-30" x="147.412109"/>
      </g>
     </g>
    </g>
    <g id="ytick_5">
     <g id="line2d_14">
      <g>
       <use xlink:href="#m4061f6baa8" x="102.17" y="265.76" style="stroke: #000000; stroke-width: 0.8"/>
      </g>
     </g>
     <g id="text_15">
      <!-- 0 -->
      <g transform="translate(81.1725 274.118281) scale(0.22 -0.22)">
       <use xlink:href="#DejaVuSans-30"/>
      </g>
     </g>
    </g>
    <g id="ytick_6">
     <g id="line2d_15">
      <g>
       <use xlink:href="#m4061f6baa8" x="102.17" y="207.33" style="stroke: #000000; stroke-width: 0.8"/>
      </g>
     </g>
     <g id="text_16">
      <!-- 20 -->
      <g transform="translate(67.175 215.688281) scale(0.22 -0.22)">
       <use xlink:href="#DejaVuSans-32"/>
       <use xlink:href="#DejaVuSans-30" x="63.623047"/>
      </g>
     </g>
    </g>
    <g id="ytick_7">
     <g id="line2d_16">
      <g>
       <use xlink:href="#m4061f6baa8" x="102.17" y="148.9" style="stroke: #000000; stroke-width: 0.8"/>
      </g>
     </g>
     <g id="text_17">
      <!-- 40 -->
      <g transform="translate(67.175 157.258281) scale(0.22 -0.22)">
       <use xlink:href="#DejaVuSans-34"/>
       <use xlink:href="#DejaVuSans-30" x="63.623047"/>
      </g>
     </g>
    </g>
    <g id="ytick_8">
     <g id="line2d_17">
      <g>
       <use xlink:href="#m4061f6baa8" x="102.17" y="90.47" style="stroke: #000000; stroke-width: 0.8"/>
      </g>
     </g>
     <g id="text_18">
      <!-- 60 -->
      <g transform="translate(67.175 98.828281) scale(0.22 -0.22)">
       <use xlink:href="#DejaVuSans-36"/>
       <use xlink:href="#DejaVuSans-30" x="63.623047"/>
      </g>
     </g>
    </g>
    <g id="ytick_9">
     <g id="line2d_18">
      <g>
       <use xlink:href="#m4061f6baa8" x="102.17" y="32.04" style="stroke: #000000; stroke-width: 0.8"/>
      </g>
     </g>
     <g id="text_19">
      <!-- 80 -->
      <g transform="translate(67.175 40.398281) scale(0.22 -0.22)">
       <use xlink:href="#DejaVuSans-38"/>
       <use xlink:href="#DejaVuSans-30" x="63.623047"/>
      </g>
     </g>
    </g>
    <g id="text_20">
     <!-- Predicted Energy [kJ/mol] -->
     <g transform="translate(40.164375 405.305313) rotate(-90) scale(0.22 -0.22)">
      <defs>
       <path id="DejaVuSans-50" d="M 1259 4147 
L 1259 2394 
L 2053 2394 
Q 2494 2394 2734 2622 
Q 2975 2850 2975 3272 
Q 2975 3691 2734 3919 
Q 2494 4147 2053 4147 
L 1259 4147 
z
M 628 4666 
L 2053 4666 
Q 2838 4666 3239 4311 
Q 3641 3956 3641 3272 
Q 3641 2581 3239 2228 
Q 2838 1875 2053 1875 
L 1259 1875 
L 1259 0 
L 628 0 
L 628 4666 
z
" transform="scale(0.015625)"/>
       <path id="DejaVuSans-69" d="M 603 3500 
L 1178 3500 
L 1178 0 
L 603 0 
L 603 3500 
z
M 603 4863 
L 1178 4863 
L 1178 4134 
L 603 4134 
L 603 4863 
z
" transform="scale(0.015625)"/>
       <path id="DejaVuSans-63" d="M 3122 3366 
L 3122 2828 
Q 2878 2963 2633 3030 
Q 2388 3097 2138 3097 
Q 1578 3097 1268 2742 
Q 959 2388 959 1747 
Q 959 1106 1268 751 
Q 1578 397 2138 397 
Q 2388 397 2633 464 
Q 2878 531 3122 666 
L 3122 134 
Q 2881 22 2623 -34 
Q 2366 -91 2075 -91 
Q 1284 -91 818 406 
Q 353 903 353 1747 
Q 353 2603 823 3093 
Q 1294 3584 2113 3584 
Q 2378 3584 2631 3529 
Q 2884 3475 3122 3366 
z
" transform="scale(0.015625)"/>
      </defs>
      <use xlink:href="#DejaVuSans-50"/>
      <use xlink:href="#DejaVuSans-72" x="58.552734"/>
      <use xlink:href="#DejaVuSans-65" x="97.416016"/>
      <use xlink:href="#DejaVuSans-64" x="158.939453"/>
      <use xlink:href="#DejaVuSans-69" x="222.416016"/>
      <use xlink:href="#DejaVuSans-63" x="250.199219"/>
      <use xlink:href="#DejaVuSans-74" x="305.179688"/>
      <use xlink:href="#DejaVuSans-65" x="344.388672"/>
      <use xlink:href="#DejaVuSans-64" x="405.912109"/>
      <use xlink:href="#DejaVuSans-20" x="469.388672"/>
      <use xlink:href="#DejaVuSans-45" x="501.175781"/>
      <use xlink:href="#DejaVuSans-6e" x="564.359375"/>
      <use xlink:href="#DejaVuSans-65" x="627.738281"/>
      <use xlink:href="#DejaVuSans-72" x="689.261719"/>
      <use xlink:href="#DejaVuSans-67" x="728.625"/>
      <use xlink:href="#DejaVuSans-79" x="792.101562"/>
      <use xlink:href="#DejaVuSans-20" x="851.28125"/>
      <use xlink:href="#DejaVuSans-5b" x="883.068359"/>
      <use xlink:href="#DejaVuSans-6b" x="922.082031"/>
      <use xlink:href="#DejaVuSans-4a" x="979.992188"/>
      <use xlink:href="#DejaVuSans-2f" x="1009.484375"/>
      <use xlink:href="#DejaVuSans-6d" x="1043.175781"/>
      <use xlink:href="#DejaVuSans-6f" x="1140.587891"/>
      <use xlink:href="#DejaVuSans-6c" x="1201.769531"/>
      <use xlink:href="#DejaVuSans-5d" x="1229.552734"/>
     </g>
    </g>
   </g>
   <g id="line2d_19">
    <path d="M 102.17 499.48 
L 682.2 32.04 
" clip-path="url(#p72d07d277e)" style="fill: none; stroke-dasharray: 5.55,2.4; stroke-dashoffset: 0; stroke: #ff0000; stroke-width: 1.5"/>
   </g>
   <g id="patch_3">
    <path d="M 102.17 499.48 
L 102.17 32.04 
" style="fill: none; stroke: #000000; stroke-width: 0.8; stroke-linejoin: miter; stroke-linecap: square"/>
   </g>
   <g id="patch_4">
    <path d="M 682.2 499.48 
L 682.2 32.04 
" style="fill: none; stroke: #000000; stroke-width: 0.8; stroke-linejoin: miter; stroke-linecap: square"/>
   </g>
   <g id="patch_5">
    <path d="M 102.17 499.48 
L 682.2 499.48 
" style="fill: none; stroke: #000000; stroke-width: 0.8; stroke-linejoin: miter; stroke-linecap: square"/>
   </g>
   <g id="patch_6">
    <path d="M 102.17 32.04 
L 682.2 32.04 
" style="fill: none; stroke: #000000; stroke-width: 0.8; stroke-linejoin: miter; stroke-linecap: square"/>
   </g>
   <g id="text_21">
    <!-- R2 Score: 0.993 -->
    <g transform="translate(160.173 78.784) scale(0.22 -0.22)">
     <defs>
      <path id="DejaVuSans-52" d="M 2841 2188 
Q 3044 2119 3236 1894 
Q 3428 1669 3622 1275 
L 4263 0 
L 3584 0 
L 2988 1197 
Q 2756 1666 2539 1819 
Q 2322 1972 1947 1972 
L 1259 1972 
L 1259 0 
L 628 0 
L 628 4666 
L 2053 4666 
Q 2853 4666 3247 4331 
Q 3641 3997 3641 3322 
Q 3641 2881 3436 2590 
Q 3231 2300 2841 2188 
z
M 1259 4147 
L 1259 2491 
L 2053 2491 
Q 2509 2491 2742 2702 
Q 2975 2913 2975 3322 
Q 2975 3731 2742 3939 
Q 2509 4147 2053 4147 
L 1259 4147 
z
" transform="scale(0.015625)"/>
      <path id="DejaVuSans-53" d="M 3425 4513 
L 3425 3897 
Q 3066 4069 2747 4153 
Q 2428 4238 2131 4238 
Q 1616 4238 1336 4038 
Q 1056 3838 1056 3469 
Q 1056 3159 1242 3001 
Q 1428 2844 1947 2747 
L 2328 2669 
Q 3034 2534 3370 2195 
Q 3706 1856 3706 1288 
Q 3706 609 3251 259 
Q 2797 -91 1919 -91 
Q 1588 -91 1214 -16 
Q 841 59 441 206 
L 441 856 
Q 825 641 1194 531 
Q 1563 422 1919 422 
Q 2459 422 2753 634 
Q 3047 847 3047 1241 
Q 3047 1584 2836 1778 
Q 2625 1972 2144 2069 
L 1759 2144 
Q 1053 2284 737 2584 
Q 422 2884 422 3419 
Q 422 4038 858 4394 
Q 1294 4750 2059 4750 
Q 2388 4750 2728 4690 
Q 3069 4631 3425 4513 
z
" transform="scale(0.015625)"/>
      <path id="DejaVuSans-3a" d="M 750 794 
L 1409 794 
L 1409 0 
L 750 0 
L 750 794 
z
M 750 3309 
L 1409 3309 
L 1409 2516 
L 750 2516 
L 750 3309 
z
" transform="scale(0.015625)"/>
      <path id="DejaVuSans-2e" d="M 684 794 
L 1344 794 
L 1344 0 
L 684 0 
L 684 794 
z
" transform="scale(0.015625)"/>
      <path id="DejaVuSans-39" d="M 703 97 
L 703 672 
Q 941 559 1184 500 
Q 1428 441 1663 441 
Q 2288 441 2617 861 
Q 2947 1281 2994 2138 
Q 2813 1869 2534 1725 
Q 2256 1581 1919 1581 
Q 1219 1581 811 2004 
Q 403 2428 403 3163 
Q 403 3881 828 4315 
Q 1253 4750 1959 4750 
Q 2769 4750 3195 4129 
Q 3622 3509 3622 2328 
Q 3622 1225 3098 567 
Q 2575 -91 1691 -91 
Q 1453 -91 1209 -44 
Q 966 3 703 97 
z
M 1959 2075 
Q 2384 2075 2632 2365 
Q 2881 2656 2881 3163 
Q 2881 3666 2632 3958 
Q 2384 4250 1959 4250 
Q 1534 4250 1286 3958 
Q 1038 3666 1038 3163 
Q 1038 2656 1286 2365 
Q 1534 2075 1959 2075 
z
" transform="scale(0.015625)"/>
      <path id="DejaVuSans-33" d="M 2597 2516 
Q 3050 2419 3304 2112 
Q 3559 1806 3559 1356 
Q 3559 666 3084 287 
Q 2609 -91 1734 -91 
Q 1441 -91 1130 -33 
Q 819 25 488 141 
L 488 750 
Q 750 597 1062 519 
Q 1375 441 1716 441 
Q 2309 441 2620 675 
Q 2931 909 2931 1356 
Q 2931 1769 2642 2001 
Q 2353 2234 1838 2234 
L 1294 2234 
L 1294 2753 
L 1863 2753 
Q 2328 2753 2575 2939 
Q 2822 3125 2822 3475 
Q 2822 3834 2567 4026 
Q 2313 4219 1838 4219 
Q 1578 4219 1281 4162 
Q 984 4106 628 3988 
L 628 4550 
Q 988 4650 1302 4700 
Q 1616 4750 1894 4750 
Q 2613 4750 3031 4423 
Q 3450 4097 3450 3541 
Q 3450 3153 3228 2886 
Q 3006 2619 2597 2516 
z
" transform="scale(0.015625)"/>
     </defs>
     <use xlink:href="#DejaVuSans-52"/>
     <use xlink:href="#DejaVuSans-32" x="69.482422"/>
     <use xlink:href="#DejaVuSans-20" x="133.105469"/>
     <use xlink:href="#DejaVuSans-53" x="164.892578"/>
     <use xlink:href="#DejaVuSans-63" x="228.369141"/>
     <use xlink:href="#DejaVuSans-6f" x="283.349609"/>
     <use xlink:href="#DejaVuSans-72" x="344.53125"/>
     <use xlink:href="#DejaVuSans-65" x="383.394531"/>
     <use xlink:href="#DejaVuSans-3a" x="444.917969"/>
     <use xlink:href="#DejaVuSans-20" x="478.609375"/>
     <use xlink:href="#DejaVuSans-30" x="510.396484"/>
     <use xlink:href="#DejaVuSans-2e" x="574.019531"/>
     <use xlink:href="#DejaVuSans-39" x="605.806641"/>
     <use xlink:href="#DejaVuSans-39" x="669.429688"/>
     <use xlink:href="#DejaVuSans-33" x="733.052734"/>
    </g>
   </g>
  </g>
 </g>
 <defs>
  <clipPath id="p72d07d277e">
   <rect x="102.17" y="32.04" width="580.03" height="467.44"/>
  </clipPath>
 </defs>
</svg>
