<?xml version="1.0" encoding="utf-8" standalone="no"?>
<!DOCTYPE svg PUBLIC "-//W3C//DTD SVG 1.1//EN"
  "http://www.w3.org/Graphics/SVG/1.1/DTD/svg11.dtd">
<svg xmlns:xlink="http://www.w3.org/1999/xlink" width="720pt" height="576pt" viewBox="0 0 720 576" xmlns="http://www.w3.org/2000/svg" version="1.1">
 <metadata>
  <rdf:RDF xmlns:dc="http://purl.org/dc/elements/1.1/" xmlns:cc="http://creativecommons.org/ns#" xmlns:rdf="http://www.w3.org/1999/02/22-rdf-syntax-ns#">
   <cc:Work>
    <dc:type rdf:resource="http://purl.org/dc/dcmitype/StillImage"/>
    <dc:date>2024-12-07T16:40:23.504030</dc:date>
    <dc:format>image/svg+xml</dc:format>
    <dc:creator>
     <cc:Agent>
      <dc:title>Matplotlib v3.8.4, https://matplotlib.org/</dc:title>
     </cc:Agent>
    </dc:creator>
   </cc:Work>
  </rdf:RDF>
 </metadata>
 <defs>
  <style type="text/css">*{stroke-linejoin: round; stroke-linecap: butt}</style>
 </defs>
 <g id="figure_1">
  <g id="patch_1">
   <path d="M 0 576 
L 720 576 
L 720 0 
L 0 0 
z
" style="fill: #ffffff"/>
  </g>
  <g id="axes_1">
   <g id="patch_2">
    <path d="M 83.72 499.48 
L 696.24 499.48 
L 696.24 23.76 
L 83.72 23.76 
z
" style="fill: #ffffff"/>
   </g>
   <g id="QuadContourSet_1">
    <path d="M 87.736396 514.964968 
L 89.674085 515.212908 
L 91.611775 515.214977 
L 93.549464 514.958632 
L 94.669509 514.660086 
L 95.487154 514.52973 
L 97.424843 514.070849 
L 99.362533 513.404538 
L 101.300222 512.422303 
L 101.986954 511.977457 
L 103.237912 511.439453 
L 105.175601 510.331299 
L 106.53527 509.294827 
L 107.113291 508.97585 
L 109.05098 507.732283 
L 110.394141 506.612198 
L 110.98867 506.223755 
L 112.926359 504.74564 
L 113.807902 503.929569 
L 114.864049 503.10489 
L 116.704694 501.246939 
L 116.801738 501.15792 
L 118.739428 499.232603 
L 119.316524 498.56431 
L 120.677117 497.00048 
L 121.551713 495.88168 
L 122.614807 494.424598 
L 123.47591 493.199051 
L 124.552496 491.429803 
L 125.125494 490.516422 
L 126.484937 487.833792 
L 126.490186 487.821521 
L 127.814423 485.151163 
L 128.427875 483.39902 
L 128.82942 482.468534 
L 129.69886 479.785904 
L 130.252732 477.103275 
L 130.365565 476.054647 
L 130.622972 474.420645 
L 130.716106 471.738016 
L 130.503823 469.055387 
L 130.365565 468.376189 
L 129.994578 466.372757 
L 128.554599 463.690128 
L 128.427875 463.550609 
L 126.490186 462.26631 
L 124.552496 461.678259 
L 122.614807 461.316576 
L 120.683637 461.007499 
L 120.677117 461.00599 
L 118.739428 460.528 
L 116.801738 460.095115 
L 114.864049 459.74554 
L 112.926359 459.55562 
L 110.98867 459.675882 
L 109.05098 460.218862 
L 107.590938 461.007499 
L 107.113291 461.184598 
L 105.175601 462.220106 
L 103.329148 463.690128 
L 103.237912 463.74378 
L 101.300222 465.037655 
L 99.807979 466.372757 
L 99.362533 466.684893 
L 97.424843 468.226066 
L 96.567943 469.055387 
L 95.487154 469.913266 
L 93.736018 471.738016 
L 93.549464 471.905324 
L 91.611775 473.944852 
L 91.230257 474.420645 
L 89.674085 476.231587 
L 89.027285 477.103275 
L 87.736396 478.837784 
L 87.082808 479.785904 
L 85.798706 481.778775 
L 85.355968 482.468534 
L 83.861017 485.151163 
L 83.861017 485.151163 
L 82.36041 487.833792 
L 81.923327 488.854017 
L 81.077691 490.516422 
L 80.084454 493.199051 
L 79.985638 493.5379 
L 79.08085 495.88168 
L 78.412505 498.56431 
L 78.047949 500.967831 
L 77.985306 501.246939 
L 77.760351 503.929569 
L 77.969493 506.612198 
L 78.047949 506.927468 
L 78.652281 509.294827 
L 79.985638 511.524756 
L 80.392926 511.977457 
L 81.923327 513.234873 
L 83.861017 514.08227 
L 85.798706 514.556874 
L 86.410692 514.660086 
z
M 91.517115 509.294827 
L 89.674085 508.948524 
L 87.736396 508.313107 
L 85.798706 507.196531 
L 85.159864 506.612198 
L 83.861017 504.636267 
L 83.535018 503.929569 
L 83.000729 501.246939 
L 83.031757 498.56431 
L 83.475324 495.88168 
L 83.861017 494.630157 
L 84.219441 493.199051 
L 85.219116 490.516422 
L 85.798706 489.349997 
L 86.482875 487.833792 
L 87.736396 485.668381 
L 88.026997 485.151163 
L 89.674085 482.67748 
L 89.81776 482.468534 
L 91.611775 480.096151 
L 91.868153 479.785904 
L 93.549464 477.801065 
L 94.22874 477.103275 
L 95.487154 475.756182 
L 96.985897 474.420645 
L 97.424843 473.987179 
L 99.362533 472.303356 
L 100.156203 471.738016 
L 101.300222 470.767699 
L 103.237912 469.497525 
L 104.151676 469.055387 
L 105.175601 468.414031 
L 107.113291 467.612978 
L 109.05098 467.168313 
L 110.98867 466.97405 
L 112.926359 466.936591 
L 114.864049 467.037697 
L 116.801738 467.305345 
L 118.739428 467.752175 
L 120.677117 468.404755 
L 121.976771 469.055387 
L 122.614807 469.441985 
L 124.435472 471.738016 
L 124.552496 472.183965 
L 124.995381 474.420645 
L 124.927101 477.103275 
L 124.552496 479.203559 
L 124.473486 479.785904 
L 123.839912 482.468534 
L 122.828452 485.151163 
L 122.614807 485.589498 
L 121.649208 487.833792 
L 120.677117 489.506957 
L 120.124982 490.516422 
L 118.739428 492.560995 
L 118.30588 493.199051 
L 116.801738 495.138426 
L 116.186683 495.88168 
L 114.864049 497.397393 
L 113.708044 498.56431 
L 112.926359 499.372687 
L 110.98867 501.090028 
L 110.796297 501.246939 
L 109.05098 502.833294 
L 107.464808 503.929569 
L 107.113291 504.221758 
L 105.175601 505.614806 
L 103.237912 506.612198 
L 103.237912 506.612198 
L 101.300222 507.698729 
L 99.362533 508.453778 
L 97.424843 508.974712 
L 95.51879 509.294827 
L 95.487154 509.302488 
L 93.549464 509.468418 
L 91.611775 509.315337 
z
" clip-path="url(#p85412f4023)" style="fill: #ecf4fb"/>
    <path d="M 91.611775 509.315337 
L 93.549464 509.468418 
L 95.487154 509.302488 
L 95.51879 509.294827 
L 97.424843 508.974712 
L 99.362533 508.453778 
L 101.300222 507.698729 
L 103.237912 506.612198 
L 103.237912 506.612198 
L 105.175601 505.614806 
L 107.113291 504.221758 
L 107.464808 503.929569 
L 109.05098 502.833294 
L 110.796297 501.246939 
L 110.98867 501.090028 
L 112.926359 499.372687 
L 113.708044 498.56431 
L 114.864049 497.397393 
L 116.186683 495.88168 
L 116.801738 495.138426 
L 118.30588 493.199051 
L 118.739428 492.560995 
L 120.124982 490.516422 
L 120.677117 489.506957 
L 121.649208 487.833792 
L 122.614807 485.589498 
L 122.828452 485.151163 
L 123.839912 482.468534 
L 124.473486 479.785904 
L 124.552496 479.203559 
L 124.927101 477.103275 
L 124.995381 474.420645 
L 124.552496 472.183965 
L 124.435472 471.738016 
L 122.614807 469.441985 
L 121.976771 469.055387 
L 120.677117 468.404755 
L 118.739428 467.752175 
L 116.801738 467.305345 
L 114.864049 467.037697 
L 112.926359 466.936591 
L 110.98867 466.97405 
L 109.05098 467.168313 
L 107.113291 467.612978 
L 105.175601 468.414031 
L 104.151676 469.055387 
L 103.237912 469.497525 
L 101.300222 470.767699 
L 100.156203 471.738016 
L 99.362533 472.303356 
L 97.424843 473.987179 
L 96.985897 474.420645 
L 95.487154 475.756182 
L 94.22874 477.103275 
L 93.549464 477.801065 
L 91.868153 479.785904 
L 91.611775 480.096151 
L 89.81776 482.468534 
L 89.674085 482.67748 
L 88.026997 485.151163 
L 87.736396 485.668381 
L 86.482875 487.833792 
L 85.798706 489.349997 
L 85.219116 490.516422 
L 84.219441 493.199051 
L 83.861017 494.630157 
L 83.475324 495.88168 
L 83.031757 498.56431 
L 83.000729 501.246939 
L 83.535018 503.929569 
L 83.861017 504.636267 
L 85.159864 506.612198 
L 85.798706 507.196531 
L 87.736396 508.313107 
L 89.674085 508.948524 
L 91.517115 509.294827 
z
M 88.124709 503.929569 
L 87.736396 503.522674 
L 86.426446 501.246939 
L 86.012288 498.56431 
L 86.188977 495.88168 
L 86.775327 493.199051 
L 87.736396 490.617709 
L 87.769861 490.516422 
L 88.99798 487.833792 
L 89.674085 486.690778 
L 90.573245 485.151163 
L 91.611775 483.657458 
L 92.476345 482.468534 
L 93.549464 481.127015 
L 94.733852 479.785904 
L 95.487154 478.951025 
L 97.424843 477.103275 
L 97.424843 477.103275 
L 99.362533 475.341766 
L 100.66214 474.420645 
L 101.300222 473.904434 
L 103.237912 472.676 
L 105.175601 471.827395 
L 105.482987 471.738016 
L 107.113291 471.139751 
L 109.05098 470.712892 
L 110.98867 470.503338 
L 112.926359 470.506627 
L 114.864049 470.766313 
L 116.801738 471.320631 
L 117.782892 471.738016 
L 118.739428 472.198758 
L 120.677117 473.804099 
L 121.111848 474.420645 
L 121.849179 477.103275 
L 121.744277 479.785904 
L 121.167502 482.468534 
L 120.677117 483.78777 
L 120.242859 485.151163 
L 118.999023 487.833792 
L 118.739428 488.275252 
L 117.48695 490.516422 
L 116.801738 491.507721 
L 115.620098 493.199051 
L 114.864049 494.150485 
L 113.383447 495.88168 
L 112.926359 496.391134 
L 110.98867 498.336656 
L 110.736621 498.56431 
L 109.05098 500.145706 
L 107.571107 501.246939 
L 107.113291 501.629676 
L 105.175601 502.985311 
L 103.372039 503.929569 
L 103.237912 504.015082 
L 101.300222 505.00243 
L 99.362533 505.6896 
L 97.424843 506.131057 
L 95.487154 506.325271 
L 93.549464 506.230018 
L 91.611775 505.805557 
L 89.674085 505.007593 
z
" clip-path="url(#p85412f4023)" style="fill: #d6e5f4"/>
    <path d="M 89.674085 505.007593 
L 91.611775 505.805557 
L 93.549464 506.230018 
L 95.487154 506.325271 
L 97.424843 506.131057 
L 99.362533 505.6896 
L 101.300222 505.00243 
L 103.237912 504.015082 
L 103.372039 503.929569 
L 105.175601 502.985311 
L 107.113291 501.629676 
L 107.571107 501.246939 
L 109.05098 500.145706 
L 110.736621 498.56431 
L 110.98867 498.336656 
L 112.926359 496.391134 
L 113.383447 495.88168 
L 114.864049 494.150485 
L 115.620098 493.199051 
L 116.801738 491.507721 
L 117.48695 490.516422 
L 118.739428 488.275252 
L 118.999023 487.833792 
L 120.242859 485.151163 
L 120.677117 483.78777 
L 121.167502 482.468534 
L 121.744277 479.785904 
L 121.849179 477.103275 
L 121.111848 474.420645 
L 120.677117 473.804099 
L 118.739428 472.198758 
L 117.782892 471.738016 
L 116.801738 471.320631 
L 114.864049 470.766313 
L 112.926359 470.506627 
L 110.98867 470.503338 
L 109.05098 470.712892 
L 107.113291 471.139751 
L 105.482987 471.738016 
L 105.175601 471.827395 
L 103.237912 472.676 
L 101.300222 473.904434 
L 100.66214 474.420645 
L 99.362533 475.341766 
L 97.424843 477.103275 
L 97.424843 477.103275 
L 95.487154 478.951025 
L 94.733852 479.785904 
L 93.549464 481.127015 
L 92.476345 482.468534 
L 91.611775 483.657458 
L 90.573245 485.151163 
L 89.674085 486.690778 
L 88.99798 487.833792 
L 87.769861 490.516422 
L 87.736396 490.617709 
L 86.775327 493.199051 
L 86.188977 495.88168 
L 86.012288 498.56431 
L 86.426446 501.246939 
L 87.736396 503.522674 
L 88.124709 503.929569 
z
M 89.934196 501.246939 
L 89.674085 500.881547 
L 88.636136 498.56431 
L 88.483398 495.88168 
L 88.929002 493.199051 
L 89.674085 491.039441 
L 89.837474 490.516422 
L 91.084446 487.833792 
L 91.611775 486.962079 
L 92.712538 485.151163 
L 93.549464 483.998826 
L 94.735335 482.468534 
L 95.487154 481.583052 
L 97.215491 479.785904 
L 97.424843 479.570734 
L 99.362533 477.821256 
L 100.360985 477.103275 
L 101.300222 476.372539 
L 103.237912 475.223509 
L 105.175601 474.420645 
L 105.175601 474.420645 
L 107.113291 473.759343 
L 109.05098 473.363104 
L 110.98867 473.221928 
L 112.926359 473.387716 
L 114.864049 473.936154 
L 115.880686 474.420645 
L 116.801738 474.981716 
L 118.739428 477.075907 
L 118.755519 477.103275 
L 119.317093 479.785904 
L 119.01851 482.468534 
L 118.739428 483.320178 
L 118.214759 485.151163 
L 117.014718 487.833792 
L 116.801738 488.195179 
L 115.479633 490.516422 
L 114.864049 491.390951 
L 113.553925 493.199051 
L 112.926359 493.963248 
L 111.194973 495.88168 
L 110.98867 496.100799 
L 109.05098 497.9544 
L 108.294944 498.56431 
L 107.113291 499.55379 
L 105.175601 500.846367 
L 104.430106 501.246939 
L 103.237912 501.965197 
L 101.300222 502.835657 
L 99.362533 503.434978 
L 97.424843 503.770526 
L 95.487154 503.789119 
L 93.549464 503.410891 
L 91.611775 502.562122 
z
" clip-path="url(#p85412f4023)" style="fill: #bcd7eb"/>
    <path d="M 91.611775 502.562122 
L 93.549464 503.410891 
L 95.487154 503.789119 
L 97.424843 503.770526 
L 99.362533 503.434978 
L 101.300222 502.835657 
L 103.237912 501.965197 
L 104.430106 501.246939 
L 105.175601 500.846367 
L 107.113291 499.55379 
L 108.294944 498.56431 
L 109.05098 497.9544 
L 110.98867 496.100799 
L 111.194973 495.88168 
L 112.926359 493.963248 
L 113.553925 493.199051 
L 114.864049 491.390951 
L 115.479633 490.516422 
L 116.801738 488.195179 
L 117.014718 487.833792 
L 118.214759 485.151163 
L 118.739428 483.320178 
L 119.01851 482.468534 
L 119.317093 479.785904 
L 118.755519 477.103275 
L 118.739428 477.075907 
L 116.801738 474.981716 
L 115.880686 474.420645 
L 114.864049 473.936154 
L 112.926359 473.387716 
L 110.98867 473.221928 
L 109.05098 473.363104 
L 107.113291 473.759343 
L 105.175601 474.420645 
L 105.175601 474.420645 
L 103.237912 475.223509 
L 101.300222 476.372539 
L 100.360985 477.103275 
L 99.362533 477.821256 
L 97.424843 479.570734 
L 97.215491 479.785904 
L 95.487154 481.583052 
L 94.735335 482.468534 
L 93.549464 483.998826 
L 92.712538 485.151163 
L 91.611775 486.962079 
L 91.084446 487.833792 
L 89.837474 490.516422 
L 89.674085 491.039441 
L 88.929002 493.199051 
L 88.483398 495.88168 
L 88.636136 498.56431 
L 89.674085 500.881547 
L 89.934196 501.246939 
z
M 94.941678 501.246939 
L 93.549464 500.616197 
L 91.611775 498.891877 
L 91.377505 498.56431 
L 90.646376 495.88168 
L 90.863177 493.199051 
L 91.611775 490.739242 
L 91.674775 490.516422 
L 92.921257 487.833792 
L 93.549464 486.821756 
L 94.620327 485.151163 
L 95.487154 484.021753 
L 96.803619 482.468534 
L 97.424843 481.795319 
L 99.362533 480.003587 
L 99.647475 479.785904 
L 101.300222 478.518283 
L 103.237912 477.405664 
L 103.950249 477.103275 
L 105.175601 476.53704 
L 107.113291 475.932175 
L 109.05098 475.608951 
L 110.98867 475.614379 
L 112.926359 476.065036 
L 114.864049 477.095446 
L 114.874325 477.103275 
L 116.801738 479.785904 
L 116.801738 479.785904 
L 116.999827 482.468534 
L 116.801738 483.28252 
L 116.3979 485.151163 
L 115.292605 487.833792 
L 114.864049 488.566978 
L 113.739253 490.516422 
L 112.926359 491.638771 
L 111.736366 493.199051 
L 110.98867 494.056822 
L 109.197733 495.88168 
L 109.05098 496.024472 
L 107.113291 497.666061 
L 105.815671 498.56431 
L 105.175601 499.020169 
L 103.237912 500.113702 
L 101.300222 500.92053 
L 100.102468 501.246939 
L 99.362533 501.472595 
L 97.424843 501.676602 
L 95.487154 501.436954 
z
" clip-path="url(#p85412f4023)" style="fill: #92c4de"/>
    <path d="M 95.487154 501.436954 
L 97.424843 501.676602 
L 99.362533 501.472595 
L 100.102468 501.246939 
L 101.300222 500.92053 
L 103.237912 500.113702 
L 105.175601 499.020169 
L 105.815671 498.56431 
L 107.113291 497.666061 
L 109.05098 496.024472 
L 109.197733 495.88168 
L 110.98867 494.056822 
L 111.736366 493.199051 
L 112.926359 491.638771 
L 113.739253 490.516422 
L 114.864049 488.566978 
L 115.292605 487.833792 
L 116.3979 485.151163 
L 116.801738 483.28252 
L 116.999827 482.468534 
L 116.801738 479.785904 
L 116.801738 479.785904 
L 114.874325 477.103275 
L 114.864049 477.095446 
L 112.926359 476.065036 
L 110.98867 475.614379 
L 109.05098 475.608951 
L 107.113291 475.932175 
L 105.175601 476.53704 
L 103.950249 477.103275 
L 103.237912 477.405664 
L 101.300222 478.518283 
L 99.647475 479.785904 
L 99.362533 480.003587 
L 97.424843 481.795319 
L 96.803619 482.468534 
L 95.487154 484.021753 
L 94.620327 485.151163 
L 93.549464 486.821756 
L 92.921257 487.833792 
L 91.674775 490.516422 
L 91.611775 490.739242 
L 90.863177 493.199051 
L 90.646376 495.88168 
L 91.377505 498.56431 
L 91.611775 498.891877 
L 93.549464 500.616197 
L 94.941678 501.246939 
z
M 93.714015 498.56431 
L 93.549464 498.379304 
L 92.24366 495.88168 
L 92.212038 493.199051 
L 92.915085 490.516422 
L 93.549464 489.164855 
L 94.171726 487.833792 
L 95.487154 485.795862 
L 95.932218 485.151163 
L 97.424843 483.367777 
L 98.291439 482.468534 
L 99.362533 481.450095 
L 101.300222 479.962375 
L 101.590555 479.785904 
L 103.237912 478.78848 
L 105.175601 477.942792 
L 107.113291 477.377105 
L 109.05098 477.103275 
L 110.98867 477.261049 
L 112.926359 478.096468 
L 114.732103 479.785904 
L 114.864049 480.111934 
L 115.482809 482.468534 
L 115.1297 485.151163 
L 114.864049 485.8092 
L 114.093332 487.833792 
L 112.926359 489.858886 
L 112.545785 490.516422 
L 110.98867 492.562545 
L 110.46905 493.199051 
L 109.05098 494.677813 
L 107.725087 495.88168 
L 107.113291 496.403607 
L 105.175601 497.773468 
L 103.773593 498.56431 
L 103.237912 498.872187 
L 101.300222 499.673294 
L 99.362533 500.129898 
L 97.424843 500.170828 
L 95.487154 499.661879 
z
" clip-path="url(#p85412f4023)" style="fill: #69add5"/>
    <path d="M 95.487154 499.661879 
L 97.424843 500.170828 
L 99.362533 500.129898 
L 101.300222 499.673294 
L 103.237912 498.872187 
L 103.773593 498.56431 
L 105.175601 497.773468 
L 107.113291 496.403607 
L 107.725087 495.88168 
L 109.05098 494.677813 
L 110.46905 493.199051 
L 110.98867 492.562545 
L 112.545785 490.516422 
L 112.926359 489.858886 
L 114.093332 487.833792 
L 114.864049 485.8092 
L 115.1297 485.151163 
L 115.482809 482.468534 
L 114.864049 480.111934 
L 114.732103 479.785904 
L 112.926359 478.096468 
L 110.98867 477.261049 
L 109.05098 477.103275 
L 107.113291 477.377105 
L 105.175601 477.942792 
L 103.237912 478.78848 
L 101.590555 479.785904 
L 101.300222 479.962375 
L 99.362533 481.450095 
L 98.291439 482.468534 
L 97.424843 483.367777 
L 95.932218 485.151163 
L 95.487154 485.795862 
L 94.171726 487.833792 
L 93.549464 489.164855 
L 92.915085 490.516422 
L 92.212038 493.199051 
L 92.24366 495.88168 
L 93.549464 498.379304 
L 93.714015 498.56431 
z
M 94.841377 495.88168 
L 94.217871 493.199051 
L 94.725196 490.516422 
L 95.487154 488.83623 
L 95.953043 487.833792 
L 97.424843 485.700738 
L 97.843439 485.151163 
L 99.362533 483.562552 
L 100.611039 482.468534 
L 101.300222 481.924789 
L 103.237912 480.730526 
L 105.175601 479.84773 
L 105.398864 479.785904 
L 107.113291 479.32082 
L 109.05098 479.24199 
L 110.98867 479.785904 
L 110.98867 479.785904 
L 112.926359 482.075718 
L 113.118716 482.468534 
L 113.215823 485.151163 
L 112.926359 486.02492 
L 112.355939 487.833792 
L 110.98867 490.246783 
L 110.833201 490.516422 
L 109.05098 492.692292 
L 108.597855 493.199051 
L 107.113291 494.557259 
L 105.411923 495.88168 
L 105.175601 496.050966 
L 103.237912 497.128963 
L 101.300222 497.869263 
L 99.362533 498.198256 
L 97.424843 497.903667 
L 95.487154 496.652065 
z
" clip-path="url(#p85412f4023)" style="fill: #4896c8"/>
    <path d="M 95.487154 496.652065 
L 97.424843 497.903667 
L 99.362533 498.198256 
L 101.300222 497.869263 
L 103.237912 497.128963 
L 105.175601 496.050966 
L 105.411923 495.88168 
L 107.113291 494.557259 
L 108.597855 493.199051 
L 109.05098 492.692292 
L 110.833201 490.516422 
L 110.98867 490.246783 
L 112.355939 487.833792 
L 112.926359 486.02492 
L 113.215823 485.151163 
L 113.118716 482.468534 
L 112.926359 482.075718 
L 110.98867 479.785904 
L 110.98867 479.785904 
L 109.05098 479.24199 
L 107.113291 479.32082 
L 105.398864 479.785904 
L 105.175601 479.84773 
L 103.237912 480.730526 
L 101.300222 481.924789 
L 100.611039 482.468534 
L 99.362533 483.562552 
L 97.843439 485.151163 
L 97.424843 485.700738 
L 95.953043 487.833792 
L 95.487154 488.83623 
L 94.725196 490.516422 
L 94.217871 493.199051 
L 94.841377 495.88168 
z
M 98.307876 495.88168 
L 97.424843 495.215837 
L 96.315165 493.199051 
L 96.517243 490.516422 
L 97.424843 488.425541 
L 97.694076 487.833792 
L 99.362533 485.650341 
L 99.795255 485.151163 
L 101.300222 483.83729 
L 103.237912 482.468534 
L 103.237912 482.468534 
L 105.175601 481.635668 
L 107.113291 481.251125 
L 109.05098 481.537456 
L 110.406666 482.468534 
L 110.98867 483.900648 
L 111.272338 485.151163 
L 110.98867 486.353133 
L 110.650422 487.833792 
L 109.14435 490.516422 
L 109.05098 490.630415 
L 107.113291 492.769156 
L 106.669503 493.199051 
L 105.175601 494.336305 
L 103.237912 495.491874 
L 102.199623 495.88168 
L 101.300222 496.181188 
L 99.362533 496.244691 
z
" clip-path="url(#p85412f4023)" style="fill: #2777b8"/>
    <path d="M 99.362533 496.244691 
L 101.300222 496.181188 
L 102.199623 495.88168 
L 103.237912 495.491874 
L 105.175601 494.336305 
L 106.669503 493.199051 
L 107.113291 492.769156 
L 109.05098 490.630415 
L 109.14435 490.516422 
L 110.650422 487.833792 
L 110.98867 486.353133 
L 111.272338 485.151163 
L 110.98867 483.900648 
L 110.406666 482.468534 
L 109.05098 481.537456 
L 107.113291 481.251125 
L 105.175601 481.635668 
L 103.237912 482.468534 
L 103.237912 482.468534 
L 101.300222 483.83729 
L 99.795255 485.151163 
L 99.362533 485.650341 
L 97.694076 487.833792 
L 97.424843 488.425541 
L 96.517243 490.516422 
L 96.315165 493.199051 
L 97.424843 495.215837 
L 98.307876 495.88168 
z
M 99.362533 493.199051 
L 99.362533 493.199051 
L 98.832508 490.516422 
L 99.362533 489.213786 
L 99.975273 487.833792 
L 101.300222 486.339009 
L 102.566353 485.151163 
L 103.237912 484.699847 
L 105.175601 483.924109 
L 107.113291 483.927335 
L 108.563638 485.151163 
L 108.453074 487.833792 
L 107.113291 490.273453 
L 106.962589 490.516422 
L 105.175601 492.136538 
L 103.697609 493.199051 
L 103.237912 493.446977 
L 101.300222 493.828686 
z
" clip-path="url(#p85412f4023)" style="fill: #0f5aa3"/>
    <path d="M 101.300222 493.828686 
L 103.237912 493.446977 
L 103.697609 493.199051 
L 105.175601 492.136538 
L 106.962589 490.516422 
L 107.113291 490.273453 
L 108.453074 487.833792 
L 108.563638 485.151163 
L 107.113291 483.927335 
L 105.175601 483.924109 
L 103.237912 484.699847 
L 102.566353 485.151163 
L 101.300222 486.339009 
L 99.975273 487.833792 
L 99.362533 489.213786 
L 98.832508 490.516422 
L 99.362533 493.199051 
L 99.362533 493.199051 
z
" clip-path="url(#p85412f4023)" style="fill: #083d7f"/>
   </g>
   <g id="matplotlib.axis_1">
    <g id="xtick_1">
     <g id="line2d_1">
      <defs>
       <path id="m230c1419bf" d="M 0 0 
L 0 3.5 
" style="stroke: #000000; stroke-width: 0.8"/>
      </defs>
      <g>
       <use xlink:href="#m230c1419bf" x="178.374553" y="499.48" style="stroke: #000000; stroke-width: 0.8"/>
      </g>
     </g>
     <g id="text_1">
      <!-- 10 -->
      <g transform="translate(164.377053 523.196563) scale(0.22 -0.22)">
       <defs>
        <path id="DejaVuSans-31" d="M 794 531 
L 1825 531 
L 1825 4091 
L 703 3866 
L 703 4441 
L 1819 4666 
L 2450 4666 
L 2450 531 
L 3481 531 
L 3481 0 
L 794 0 
L 794 531 
z
" transform="scale(0.015625)"/>
        <path id="DejaVuSans-30" d="M 2034 4250 
Q 1547 4250 1301 3770 
Q 1056 3291 1056 2328 
Q 1056 1369 1301 889 
Q 1547 409 2034 409 
Q 2525 409 2770 889 
Q 3016 1369 3016 2328 
Q 3016 3291 2770 3770 
Q 2525 4250 2034 4250 
z
M 2034 4750 
Q 2819 4750 3233 4129 
Q 3647 3509 3647 2328 
Q 3647 1150 3233 529 
Q 2819 -91 2034 -91 
Q 1250 -91 836 529 
Q 422 1150 422 2328 
Q 422 3509 836 4129 
Q 1250 4750 2034 4750 
z
" transform="scale(0.015625)"/>
       </defs>
       <use xlink:href="#DejaVuSans-31"/>
       <use xlink:href="#DejaVuSans-30" x="63.623047"/>
      </g>
     </g>
    </g>
    <g id="xtick_2">
     <g id="line2d_2">
      <g>
       <use xlink:href="#m230c1419bf" x="286.117127" y="499.48" style="stroke: #000000; stroke-width: 0.8"/>
      </g>
     </g>
     <g id="text_2">
      <!-- 20 -->
      <g transform="translate(272.119627 523.196563) scale(0.22 -0.22)">
       <defs>
        <path id="DejaVuSans-32" d="M 1228 531 
L 3431 531 
L 3431 0 
L 469 0 
L 469 531 
Q 828 903 1448 1529 
Q 2069 2156 2228 2338 
Q 2531 2678 2651 2914 
Q 2772 3150 2772 3378 
Q 2772 3750 2511 3984 
Q 2250 4219 1831 4219 
Q 1534 4219 1204 4116 
Q 875 4013 500 3803 
L 500 4441 
Q 881 4594 1212 4672 
Q 1544 4750 1819 4750 
Q 2544 4750 2975 4387 
Q 3406 4025 3406 3419 
Q 3406 3131 3298 2873 
Q 3191 2616 2906 2266 
Q 2828 2175 2409 1742 
Q 1991 1309 1228 531 
z
" transform="scale(0.015625)"/>
       </defs>
       <use xlink:href="#DejaVuSans-32"/>
       <use xlink:href="#DejaVuSans-30" x="63.623047"/>
      </g>
     </g>
    </g>
    <g id="xtick_3">
     <g id="line2d_3">
      <g>
       <use xlink:href="#m230c1419bf" x="393.859701" y="499.48" style="stroke: #000000; stroke-width: 0.8"/>
      </g>
     </g>
     <g id="text_3">
      <!-- 30 -->
      <g transform="translate(379.862201 523.196563) scale(0.22 -0.22)">
       <defs>
        <path id="DejaVuSans-33" d="M 2597 2516 
Q 3050 2419 3304 2112 
Q 3559 1806 3559 1356 
Q 3559 666 3084 287 
Q 2609 -91 1734 -91 
Q 1441 -91 1130 -33 
Q 819 25 488 141 
L 488 750 
Q 750 597 1062 519 
Q 1375 441 1716 441 
Q 2309 441 2620 675 
Q 2931 909 2931 1356 
Q 2931 1769 2642 2001 
Q 2353 2234 1838 2234 
L 1294 2234 
L 1294 2753 
L 1863 2753 
Q 2328 2753 2575 2939 
Q 2822 3125 2822 3475 
Q 2822 3834 2567 4026 
Q 2313 4219 1838 4219 
Q 1578 4219 1281 4162 
Q 984 4106 628 3988 
L 628 4550 
Q 988 4650 1302 4700 
Q 1616 4750 1894 4750 
Q 2613 4750 3031 4423 
Q 3450 4097 3450 3541 
Q 3450 3153 3228 2886 
Q 3006 2619 2597 2516 
z
" transform="scale(0.015625)"/>
       </defs>
       <use xlink:href="#DejaVuSans-33"/>
       <use xlink:href="#DejaVuSans-30" x="63.623047"/>
      </g>
     </g>
    </g>
    <g id="xtick_4">
     <g id="line2d_4">
      <g>
       <use xlink:href="#m230c1419bf" x="501.602274" y="499.48" style="stroke: #000000; stroke-width: 0.8"/>
      </g>
     </g>
     <g id="text_4">
      <!-- 40 -->
      <g transform="translate(487.604774 523.196563) scale(0.22 -0.22)">
       <defs>
        <path id="DejaVuSans-34" d="M 2419 4116 
L 825 1625 
L 2419 1625 
L 2419 4116 
z
M 2253 4666 
L 3047 4666 
L 3047 1625 
L 3713 1625 
L 3713 1100 
L 3047 1100 
L 3047 0 
L 2419 0 
L 2419 1100 
L 313 1100 
L 313 1709 
L 2253 4666 
z
" transform="scale(0.015625)"/>
       </defs>
       <use xlink:href="#DejaVuSans-34"/>
       <use xlink:href="#DejaVuSans-30" x="63.623047"/>
      </g>
     </g>
    </g>
    <g id="xtick_5">
     <g id="line2d_5">
      <g>
       <use xlink:href="#m230c1419bf" x="609.344848" y="499.48" style="stroke: #000000; stroke-width: 0.8"/>
      </g>
     </g>
     <g id="text_5">
      <!-- 50 -->
      <g transform="translate(595.347348 523.196563) scale(0.22 -0.22)">
       <defs>
        <path id="DejaVuSans-35" d="M 691 4666 
L 3169 4666 
L 3169 4134 
L 1269 4134 
L 1269 2991 
Q 1406 3038 1543 3061 
Q 1681 3084 1819 3084 
Q 2600 3084 3056 2656 
Q 3513 2228 3513 1497 
Q 3513 744 3044 326 
Q 2575 -91 1722 -91 
Q 1428 -91 1123 -41 
Q 819 9 494 109 
L 494 744 
Q 775 591 1075 516 
Q 1375 441 1709 441 
Q 2250 441 2565 725 
Q 2881 1009 2881 1497 
Q 2881 1984 2565 2268 
Q 2250 2553 1709 2553 
Q 1456 2553 1204 2497 
Q 953 2441 691 2322 
L 691 4666 
z
" transform="scale(0.015625)"/>
       </defs>
       <use xlink:href="#DejaVuSans-35"/>
       <use xlink:href="#DejaVuSans-30" x="63.623047"/>
      </g>
     </g>
    </g>
    <g id="text_6">
     <!-- Force Uncertainties -->
     <g transform="translate(283.426094 548.488438) scale(0.22 -0.22)">
      <defs>
       <path id="DejaVuSans-46" d="M 628 4666 
L 3309 4666 
L 3309 4134 
L 1259 4134 
L 1259 2759 
L 3109 2759 
L 3109 2228 
L 1259 2228 
L 1259 0 
L 628 0 
L 628 4666 
z
" transform="scale(0.015625)"/>
       <path id="DejaVuSans-6f" d="M 1959 3097 
Q 1497 3097 1228 2736 
Q 959 2375 959 1747 
Q 959 1119 1226 758 
Q 1494 397 1959 397 
Q 2419 397 2687 759 
Q 2956 1122 2956 1747 
Q 2956 2369 2687 2733 
Q 2419 3097 1959 3097 
z
M 1959 3584 
Q 2709 3584 3137 3096 
Q 3566 2609 3566 1747 
Q 3566 888 3137 398 
Q 2709 -91 1959 -91 
Q 1206 -91 779 398 
Q 353 888 353 1747 
Q 353 2609 779 3096 
Q 1206 3584 1959 3584 
z
" transform="scale(0.015625)"/>
       <path id="DejaVuSans-72" d="M 2631 2963 
Q 2534 3019 2420 3045 
Q 2306 3072 2169 3072 
Q 1681 3072 1420 2755 
Q 1159 2438 1159 1844 
L 1159 0 
L 581 0 
L 581 3500 
L 1159 3500 
L 1159 2956 
Q 1341 3275 1631 3429 
Q 1922 3584 2338 3584 
Q 2397 3584 2469 3576 
Q 2541 3569 2628 3553 
L 2631 2963 
z
" transform="scale(0.015625)"/>
       <path id="DejaVuSans-63" d="M 3122 3366 
L 3122 2828 
Q 2878 2963 2633 3030 
Q 2388 3097 2138 3097 
Q 1578 3097 1268 2742 
Q 959 2388 959 1747 
Q 959 1106 1268 751 
Q 1578 397 2138 397 
Q 2388 397 2633 464 
Q 2878 531 3122 666 
L 3122 134 
Q 2881 22 2623 -34 
Q 2366 -91 2075 -91 
Q 1284 -91 818 406 
Q 353 903 353 1747 
Q 353 2603 823 3093 
Q 1294 3584 2113 3584 
Q 2378 3584 2631 3529 
Q 2884 3475 3122 3366 
z
" transform="scale(0.015625)"/>
       <path id="DejaVuSans-65" d="M 3597 1894 
L 3597 1613 
L 953 1613 
Q 991 1019 1311 708 
Q 1631 397 2203 397 
Q 2534 397 2845 478 
Q 3156 559 3463 722 
L 3463 178 
Q 3153 47 2828 -22 
Q 2503 -91 2169 -91 
Q 1331 -91 842 396 
Q 353 884 353 1716 
Q 353 2575 817 3079 
Q 1281 3584 2069 3584 
Q 2775 3584 3186 3129 
Q 3597 2675 3597 1894 
z
M 3022 2063 
Q 3016 2534 2758 2815 
Q 2500 3097 2075 3097 
Q 1594 3097 1305 2825 
Q 1016 2553 972 2059 
L 3022 2063 
z
" transform="scale(0.015625)"/>
       <path id="DejaVuSans-20" transform="scale(0.015625)"/>
       <path id="DejaVuSans-55" d="M 556 4666 
L 1191 4666 
L 1191 1831 
Q 1191 1081 1462 751 
Q 1734 422 2344 422 
Q 2950 422 3222 751 
Q 3494 1081 3494 1831 
L 3494 4666 
L 4128 4666 
L 4128 1753 
Q 4128 841 3676 375 
Q 3225 -91 2344 -91 
Q 1459 -91 1007 375 
Q 556 841 556 1753 
L 556 4666 
z
" transform="scale(0.015625)"/>
       <path id="DejaVuSans-6e" d="M 3513 2113 
L 3513 0 
L 2938 0 
L 2938 2094 
Q 2938 2591 2744 2837 
Q 2550 3084 2163 3084 
Q 1697 3084 1428 2787 
Q 1159 2491 1159 1978 
L 1159 0 
L 581 0 
L 581 3500 
L 1159 3500 
L 1159 2956 
Q 1366 3272 1645 3428 
Q 1925 3584 2291 3584 
Q 2894 3584 3203 3211 
Q 3513 2838 3513 2113 
z
" transform="scale(0.015625)"/>
       <path id="DejaVuSans-74" d="M 1172 4494 
L 1172 3500 
L 2356 3500 
L 2356 3053 
L 1172 3053 
L 1172 1153 
Q 1172 725 1289 603 
Q 1406 481 1766 481 
L 2356 481 
L 2356 0 
L 1766 0 
Q 1100 0 847 248 
Q 594 497 594 1153 
L 594 3053 
L 172 3053 
L 172 3500 
L 594 3500 
L 594 4494 
L 1172 4494 
z
" transform="scale(0.015625)"/>
       <path id="DejaVuSans-61" d="M 2194 1759 
Q 1497 1759 1228 1600 
Q 959 1441 959 1056 
Q 959 750 1161 570 
Q 1363 391 1709 391 
Q 2188 391 2477 730 
Q 2766 1069 2766 1631 
L 2766 1759 
L 2194 1759 
z
M 3341 1997 
L 3341 0 
L 2766 0 
L 2766 531 
Q 2569 213 2275 61 
Q 1981 -91 1556 -91 
Q 1019 -91 701 211 
Q 384 513 384 1019 
Q 384 1609 779 1909 
Q 1175 2209 1959 2209 
L 2766 2209 
L 2766 2266 
Q 2766 2663 2505 2880 
Q 2244 3097 1772 3097 
Q 1472 3097 1187 3025 
Q 903 2953 641 2809 
L 641 3341 
Q 956 3463 1253 3523 
Q 1550 3584 1831 3584 
Q 2591 3584 2966 3190 
Q 3341 2797 3341 1997 
z
" transform="scale(0.015625)"/>
       <path id="DejaVuSans-69" d="M 603 3500 
L 1178 3500 
L 1178 0 
L 603 0 
L 603 3500 
z
M 603 4863 
L 1178 4863 
L 1178 4134 
L 603 4134 
L 603 4863 
z
" transform="scale(0.015625)"/>
       <path id="DejaVuSans-73" d="M 2834 3397 
L 2834 2853 
Q 2591 2978 2328 3040 
Q 2066 3103 1784 3103 
Q 1356 3103 1142 2972 
Q 928 2841 928 2578 
Q 928 2378 1081 2264 
Q 1234 2150 1697 2047 
L 1894 2003 
Q 2506 1872 2764 1633 
Q 3022 1394 3022 966 
Q 3022 478 2636 193 
Q 2250 -91 1575 -91 
Q 1294 -91 989 -36 
Q 684 19 347 128 
L 347 722 
Q 666 556 975 473 
Q 1284 391 1588 391 
Q 1994 391 2212 530 
Q 2431 669 2431 922 
Q 2431 1156 2273 1281 
Q 2116 1406 1581 1522 
L 1381 1569 
Q 847 1681 609 1914 
Q 372 2147 372 2553 
Q 372 3047 722 3315 
Q 1072 3584 1716 3584 
Q 2034 3584 2315 3537 
Q 2597 3491 2834 3397 
z
" transform="scale(0.015625)"/>
      </defs>
      <use xlink:href="#DejaVuSans-46"/>
      <use xlink:href="#DejaVuSans-6f" x="53.894531"/>
      <use xlink:href="#DejaVuSans-72" x="115.076172"/>
      <use xlink:href="#DejaVuSans-63" x="153.939453"/>
      <use xlink:href="#DejaVuSans-65" x="208.919922"/>
      <use xlink:href="#DejaVuSans-20" x="270.443359"/>
      <use xlink:href="#DejaVuSans-55" x="302.230469"/>
      <use xlink:href="#DejaVuSans-6e" x="375.423828"/>
      <use xlink:href="#DejaVuSans-63" x="438.802734"/>
      <use xlink:href="#DejaVuSans-65" x="493.783203"/>
      <use xlink:href="#DejaVuSans-72" x="555.306641"/>
      <use xlink:href="#DejaVuSans-74" x="596.419922"/>
      <use xlink:href="#DejaVuSans-61" x="635.628906"/>
      <use xlink:href="#DejaVuSans-69" x="696.908203"/>
      <use xlink:href="#DejaVuSans-6e" x="724.691406"/>
      <use xlink:href="#DejaVuSans-74" x="788.070312"/>
      <use xlink:href="#DejaVuSans-69" x="827.279297"/>
      <use xlink:href="#DejaVuSans-65" x="855.0625"/>
      <use xlink:href="#DejaVuSans-73" x="916.585938"/>
     </g>
    </g>
   </g>
   <g id="matplotlib.axis_2">
    <g id="ytick_1">
     <g id="line2d_6">
      <defs>
       <path id="m260b3ec610" d="M 0 0 
L -3.5 0 
" style="stroke: #000000; stroke-width: 0.8"/>
      </defs>
      <g>
       <use xlink:href="#m260b3ec610" x="83.72" y="425.965561" style="stroke: #000000; stroke-width: 0.8"/>
      </g>
     </g>
     <g id="text_7">
      <!-- 10 -->
      <g transform="translate(48.725 434.323843) scale(0.22 -0.22)">
       <use xlink:href="#DejaVuSans-31"/>
       <use xlink:href="#DejaVuSans-30" x="63.623047"/>
      </g>
     </g>
    </g>
    <g id="ytick_2">
     <g id="line2d_7">
      <g>
       <use xlink:href="#m260b3ec610" x="83.72" y="342.286176" style="stroke: #000000; stroke-width: 0.8"/>
      </g>
     </g>
     <g id="text_8">
      <!-- 20 -->
      <g transform="translate(48.725 350.644457) scale(0.22 -0.22)">
       <use xlink:href="#DejaVuSans-32"/>
       <use xlink:href="#DejaVuSans-30" x="63.623047"/>
      </g>
     </g>
    </g>
    <g id="ytick_3">
     <g id="line2d_8">
      <g>
       <use xlink:href="#m260b3ec610" x="83.72" y="258.60679" style="stroke: #000000; stroke-width: 0.8"/>
      </g>
     </g>
     <g id="text_9">
      <!-- 30 -->
      <g transform="translate(48.725 266.965072) scale(0.22 -0.22)">
       <use xlink:href="#DejaVuSans-33"/>
       <use xlink:href="#DejaVuSans-30" x="63.623047"/>
      </g>
     </g>
    </g>
    <g id="ytick_4">
     <g id="line2d_9">
      <g>
       <use xlink:href="#m260b3ec610" x="83.72" y="174.927405" style="stroke: #000000; stroke-width: 0.8"/>
      </g>
     </g>
     <g id="text_10">
      <!-- 40 -->
      <g transform="translate(48.725 183.285686) scale(0.22 -0.22)">
       <use xlink:href="#DejaVuSans-34"/>
       <use xlink:href="#DejaVuSans-30" x="63.623047"/>
      </g>
     </g>
    </g>
    <g id="ytick_5">
     <g id="line2d_10">
      <g>
       <use xlink:href="#m260b3ec610" x="83.72" y="91.248019" style="stroke: #000000; stroke-width: 0.8"/>
      </g>
     </g>
     <g id="text_11">
      <!-- 50 -->
      <g transform="translate(48.725 99.606301) scale(0.22 -0.22)">
       <use xlink:href="#DejaVuSans-35"/>
       <use xlink:href="#DejaVuSans-30" x="63.623047"/>
      </g>
     </g>
    </g>
    <g id="text_12">
     <!-- Force Errors [kJ/(mol*A)] -->
     <g transform="translate(40.149688 394.9125) rotate(-90) scale(0.22 -0.22)">
      <defs>
       <path id="DejaVuSans-45" d="M 628 4666 
L 3578 4666 
L 3578 4134 
L 1259 4134 
L 1259 2753 
L 3481 2753 
L 3481 2222 
L 1259 2222 
L 1259 531 
L 3634 531 
L 3634 0 
L 628 0 
L 628 4666 
z
" transform="scale(0.015625)"/>
       <path id="DejaVuSans-5b" d="M 550 4863 
L 1875 4863 
L 1875 4416 
L 1125 4416 
L 1125 -397 
L 1875 -397 
L 1875 -844 
L 550 -844 
L 550 4863 
z
" transform="scale(0.015625)"/>
       <path id="DejaVuSans-6b" d="M 581 4863 
L 1159 4863 
L 1159 1991 
L 2875 3500 
L 3609 3500 
L 1753 1863 
L 3688 0 
L 2938 0 
L 1159 1709 
L 1159 0 
L 581 0 
L 581 4863 
z
" transform="scale(0.015625)"/>
       <path id="DejaVuSans-4a" d="M 628 4666 
L 1259 4666 
L 1259 325 
Q 1259 -519 939 -900 
Q 619 -1281 -91 -1281 
L -331 -1281 
L -331 -750 
L -134 -750 
Q 284 -750 456 -515 
Q 628 -281 628 325 
L 628 4666 
z
" transform="scale(0.015625)"/>
       <path id="DejaVuSans-2f" d="M 1625 4666 
L 2156 4666 
L 531 -594 
L 0 -594 
L 1625 4666 
z
" transform="scale(0.015625)"/>
       <path id="DejaVuSans-28" d="M 1984 4856 
Q 1566 4138 1362 3434 
Q 1159 2731 1159 2009 
Q 1159 1288 1364 580 
Q 1569 -128 1984 -844 
L 1484 -844 
Q 1016 -109 783 600 
Q 550 1309 550 2009 
Q 550 2706 781 3412 
Q 1013 4119 1484 4856 
L 1984 4856 
z
" transform="scale(0.015625)"/>
       <path id="DejaVuSans-6d" d="M 3328 2828 
Q 3544 3216 3844 3400 
Q 4144 3584 4550 3584 
Q 5097 3584 5394 3201 
Q 5691 2819 5691 2113 
L 5691 0 
L 5113 0 
L 5113 2094 
Q 5113 2597 4934 2840 
Q 4756 3084 4391 3084 
Q 3944 3084 3684 2787 
Q 3425 2491 3425 1978 
L 3425 0 
L 2847 0 
L 2847 2094 
Q 2847 2600 2669 2842 
Q 2491 3084 2119 3084 
Q 1678 3084 1418 2786 
Q 1159 2488 1159 1978 
L 1159 0 
L 581 0 
L 581 3500 
L 1159 3500 
L 1159 2956 
Q 1356 3278 1631 3431 
Q 1906 3584 2284 3584 
Q 2666 3584 2933 3390 
Q 3200 3197 3328 2828 
z
" transform="scale(0.015625)"/>
       <path id="DejaVuSans-6c" d="M 603 4863 
L 1178 4863 
L 1178 0 
L 603 0 
L 603 4863 
z
" transform="scale(0.015625)"/>
       <path id="DejaVuSans-2a" d="M 3009 3897 
L 1888 3291 
L 3009 2681 
L 2828 2375 
L 1778 3009 
L 1778 1831 
L 1422 1831 
L 1422 3009 
L 372 2375 
L 191 2681 
L 1313 3291 
L 191 3897 
L 372 4206 
L 1422 3572 
L 1422 4750 
L 1778 4750 
L 1778 3572 
L 2828 4206 
L 3009 3897 
z
" transform="scale(0.015625)"/>
       <path id="DejaVuSans-41" d="M 2188 4044 
L 1331 1722 
L 3047 1722 
L 2188 4044 
z
M 1831 4666 
L 2547 4666 
L 4325 0 
L 3669 0 
L 3244 1197 
L 1141 1197 
L 716 0 
L 50 0 
L 1831 4666 
z
" transform="scale(0.015625)"/>
       <path id="DejaVuSans-29" d="M 513 4856 
L 1013 4856 
Q 1481 4119 1714 3412 
Q 1947 2706 1947 2009 
Q 1947 1309 1714 600 
Q 1481 -109 1013 -844 
L 513 -844 
Q 928 -128 1133 580 
Q 1338 1288 1338 2009 
Q 1338 2731 1133 3434 
Q 928 4138 513 4856 
z
" transform="scale(0.015625)"/>
       <path id="DejaVuSans-5d" d="M 1947 4863 
L 1947 -844 
L 622 -844 
L 622 -397 
L 1369 -397 
L 1369 4416 
L 622 4416 
L 622 4863 
L 1947 4863 
z
" transform="scale(0.015625)"/>
      </defs>
      <use xlink:href="#DejaVuSans-46"/>
      <use xlink:href="#DejaVuSans-6f" x="53.894531"/>
      <use xlink:href="#DejaVuSans-72" x="115.076172"/>
      <use xlink:href="#DejaVuSans-63" x="153.939453"/>
      <use xlink:href="#DejaVuSans-65" x="208.919922"/>
      <use xlink:href="#DejaVuSans-20" x="270.443359"/>
      <use xlink:href="#DejaVuSans-45" x="302.230469"/>
      <use xlink:href="#DejaVuSans-72" x="365.414062"/>
      <use xlink:href="#DejaVuSans-72" x="404.777344"/>
      <use xlink:href="#DejaVuSans-6f" x="443.640625"/>
      <use xlink:href="#DejaVuSans-72" x="504.822266"/>
      <use xlink:href="#DejaVuSans-73" x="545.935547"/>
      <use xlink:href="#DejaVuSans-20" x="598.035156"/>
      <use xlink:href="#DejaVuSans-5b" x="629.822266"/>
      <use xlink:href="#DejaVuSans-6b" x="668.835938"/>
      <use xlink:href="#DejaVuSans-4a" x="726.746094"/>
      <use xlink:href="#DejaVuSans-2f" x="756.238281"/>
      <use xlink:href="#DejaVuSans-28" x="789.929688"/>
      <use xlink:href="#DejaVuSans-6d" x="828.943359"/>
      <use xlink:href="#DejaVuSans-6f" x="926.355469"/>
      <use xlink:href="#DejaVuSans-6c" x="987.537109"/>
      <use xlink:href="#DejaVuSans-2a" x="1015.320312"/>
      <use xlink:href="#DejaVuSans-41" x="1065.320312"/>
      <use xlink:href="#DejaVuSans-29" x="1133.728516"/>
      <use xlink:href="#DejaVuSans-5d" x="1172.742188"/>
     </g>
    </g>
   </g>
   <g id="line2d_11">
    <path d="M 83.72 499.48 
L 696.24 23.76 
" clip-path="url(#p85412f4023)" style="fill: none; stroke-dasharray: 5.55,2.4; stroke-dashoffset: 0; stroke: #ff0000; stroke-width: 1.5"/>
   </g>
   <g id="patch_3">
    <path d="M 83.72 499.48 
L 83.72 23.76 
" style="fill: none; stroke: #000000; stroke-width: 0.8; stroke-linejoin: miter; stroke-linecap: square"/>
   </g>
   <g id="patch_4">
    <path d="M 696.24 499.48 
L 696.24 23.76 
" style="fill: none; stroke: #000000; stroke-width: 0.8; stroke-linejoin: miter; stroke-linecap: square"/>
   </g>
   <g id="patch_5">
    <path d="M 83.72 499.48 
L 696.24 499.48 
" style="fill: none; stroke: #000000; stroke-width: 0.8; stroke-linejoin: miter; stroke-linecap: square"/>
   </g>
   <g id="patch_6">
    <path d="M 83.72 23.76 
L 696.24 23.76 
" style="fill: none; stroke: #000000; stroke-width: 0.8; stroke-linejoin: miter; stroke-linecap: square"/>
   </g>
   <g id="text_13">
    <!-- Correlation in: 0.834 -->
    <g transform="translate(144.972 71.332) scale(0.22 -0.22)">
     <defs>
      <path id="DejaVuSans-43" d="M 4122 4306 
L 4122 3641 
Q 3803 3938 3442 4084 
Q 3081 4231 2675 4231 
Q 1875 4231 1450 3742 
Q 1025 3253 1025 2328 
Q 1025 1406 1450 917 
Q 1875 428 2675 428 
Q 3081 428 3442 575 
Q 3803 722 4122 1019 
L 4122 359 
Q 3791 134 3420 21 
Q 3050 -91 2638 -91 
Q 1578 -91 968 557 
Q 359 1206 359 2328 
Q 359 3453 968 4101 
Q 1578 4750 2638 4750 
Q 3056 4750 3426 4639 
Q 3797 4528 4122 4306 
z
" transform="scale(0.015625)"/>
      <path id="DejaVuSans-3a" d="M 750 794 
L 1409 794 
L 1409 0 
L 750 0 
L 750 794 
z
M 750 3309 
L 1409 3309 
L 1409 2516 
L 750 2516 
L 750 3309 
z
" transform="scale(0.015625)"/>
      <path id="DejaVuSans-2e" d="M 684 794 
L 1344 794 
L 1344 0 
L 684 0 
L 684 794 
z
" transform="scale(0.015625)"/>
      <path id="DejaVuSans-38" d="M 2034 2216 
Q 1584 2216 1326 1975 
Q 1069 1734 1069 1313 
Q 1069 891 1326 650 
Q 1584 409 2034 409 
Q 2484 409 2743 651 
Q 3003 894 3003 1313 
Q 3003 1734 2745 1975 
Q 2488 2216 2034 2216 
z
M 1403 2484 
Q 997 2584 770 2862 
Q 544 3141 544 3541 
Q 544 4100 942 4425 
Q 1341 4750 2034 4750 
Q 2731 4750 3128 4425 
Q 3525 4100 3525 3541 
Q 3525 3141 3298 2862 
Q 3072 2584 2669 2484 
Q 3125 2378 3379 2068 
Q 3634 1759 3634 1313 
Q 3634 634 3220 271 
Q 2806 -91 2034 -91 
Q 1263 -91 848 271 
Q 434 634 434 1313 
Q 434 1759 690 2068 
Q 947 2378 1403 2484 
z
M 1172 3481 
Q 1172 3119 1398 2916 
Q 1625 2713 2034 2713 
Q 2441 2713 2670 2916 
Q 2900 3119 2900 3481 
Q 2900 3844 2670 4047 
Q 2441 4250 2034 4250 
Q 1625 4250 1398 4047 
Q 1172 3844 1172 3481 
z
" transform="scale(0.015625)"/>
     </defs>
     <use xlink:href="#DejaVuSans-43"/>
     <use xlink:href="#DejaVuSans-6f" x="69.824219"/>
     <use xlink:href="#DejaVuSans-72" x="131.005859"/>
     <use xlink:href="#DejaVuSans-72" x="170.369141"/>
     <use xlink:href="#DejaVuSans-65" x="209.232422"/>
     <use xlink:href="#DejaVuSans-6c" x="270.755859"/>
     <use xlink:href="#DejaVuSans-61" x="298.539062"/>
     <use xlink:href="#DejaVuSans-74" x="359.818359"/>
     <use xlink:href="#DejaVuSans-69" x="399.027344"/>
     <use xlink:href="#DejaVuSans-6f" x="426.810547"/>
     <use xlink:href="#DejaVuSans-6e" x="487.992188"/>
     <use xlink:href="#DejaVuSans-20" x="551.371094"/>
     <use xlink:href="#DejaVuSans-69" x="583.158203"/>
     <use xlink:href="#DejaVuSans-6e" x="610.941406"/>
     <use xlink:href="#DejaVuSans-3a" x="674.320312"/>
     <use xlink:href="#DejaVuSans-20" x="708.011719"/>
     <use xlink:href="#DejaVuSans-30" x="739.798828"/>
     <use xlink:href="#DejaVuSans-2e" x="803.421875"/>
     <use xlink:href="#DejaVuSans-38" x="835.208984"/>
     <use xlink:href="#DejaVuSans-33" x="898.832031"/>
     <use xlink:href="#DejaVuSans-34" x="962.455078"/>
    </g>
   </g>
  </g>
 </g>
 <defs>
  <clipPath id="p85412f4023">
   <rect x="83.72" y="23.76" width="612.52" height="475.72"/>
  </clipPath>
 </defs>
</svg>
