<?xml version="1.0" encoding="utf-8" standalone="no"?>
<!DOCTYPE svg PUBLIC "-//W3C//DTD SVG 1.1//EN"
  "http://www.w3.org/Graphics/SVG/1.1/DTD/svg11.dtd">
<svg xmlns:xlink="http://www.w3.org/1999/xlink" width="720pt" height="576pt" viewBox="0 0 720 576" xmlns="http://www.w3.org/2000/svg" version="1.1">
 <metadata>
  <rdf:RDF xmlns:dc="http://purl.org/dc/elements/1.1/" xmlns:cc="http://creativecommons.org/ns#" xmlns:rdf="http://www.w3.org/1999/02/22-rdf-syntax-ns#">
   <cc:Work>
    <dc:type rdf:resource="http://purl.org/dc/dcmitype/StillImage"/>
    <dc:date>2024-12-08T01:30:22.237707</dc:date>
    <dc:format>image/svg+xml</dc:format>
    <dc:creator>
     <cc:Agent>
      <dc:title>Matplotlib v3.8.4, https://matplotlib.org/</dc:title>
     </cc:Agent>
    </dc:creator>
   </cc:Work>
  </rdf:RDF>
 </metadata>
 <defs>
  <style type="text/css">*{stroke-linejoin: round; stroke-linecap: butt}</style>
 </defs>
 <g id="figure_1">
  <g id="patch_1">
   <path d="M 0 576 
L 720 576 
L 720 0 
L 0 0 
z
" style="fill: #ffffff"/>
  </g>
  <g id="axes_1">
   <g id="patch_2">
    <path d="M 83.72 499.48 
L 696.24 499.48 
L 696.24 23.76 
L 83.72 23.76 
z
" style="fill: #ffffff"/>
   </g>
   <g id="QuadContourSet_1">
    <path d="M 87.971731 494.861458 
L 88.629143 495.471332 
L 89.286555 495.90893 
L 89.943967 496.225809 
L 90.60138 496.458607 
L 91.258792 496.633611 
L 91.916204 496.768972 
L 92.573616 496.8755 
L 93.231028 496.957426 
L 93.888441 497.014274 
L 94.545853 497.043782 
L 95.203265 497.044623 
L 95.860677 497.017873 
L 96.518089 496.967295 
L 97.175501 496.899007 
L 97.832914 496.820706 
L 98.490326 496.739991 
L 99.147738 496.661413 
L 99.80515 496.583144 
L 100.462562 496.495576 
L 101.119975 496.383136 
L 101.777387 496.227461 
L 102.434799 496.009078 
L 103.092211 495.706971 
L 103.749623 495.297694 
L 104.407035 494.756357 
L 104.454299 494.71388 
L 105.064448 494.440751 
L 105.72186 494.087411 
L 106.379272 493.67386 
L 107.036684 493.21369 
L 107.694096 492.726451 
L 108.351509 492.218854 
L 108.351509 492.218854 
L 109.008921 491.929209 
L 109.666333 491.601661 
L 110.323745 491.213159 
L 110.981157 490.736123 
L 111.638569 490.142914 
L 112.042575 489.723828 
L 112.295982 489.538211 
L 112.953394 489.023124 
L 113.610806 488.417303 
L 114.268218 487.703918 
L 114.661877 487.228802 
L 114.92563 486.941185 
L 115.583043 486.164421 
L 116.240455 485.244783 
L 116.56956 484.733776 
L 116.897867 484.121342 
L 117.555279 482.816295 
L 117.828703 482.23875 
L 118.212691 480.729089 
L 118.479714 479.743724 
L 118.425502 477.248698 
L 118.212691 476.586172 
L 117.597914 474.753672 
L 117.555279 474.668152 
L 116.897867 473.354209 
L 116.240455 472.356933 
L 116.155037 472.258646 
L 115.583043 471.687988 
L 114.92563 471.281368 
L 114.268218 471.028899 
L 113.610806 470.830858 
L 112.953394 470.602654 
L 112.295982 470.283746 
L 111.638569 469.861645 
L 111.512392 469.76362 
L 110.981157 469.15645 
L 110.323745 468.468735 
L 109.666333 467.922487 
L 109.008921 467.515422 
L 108.474331 467.268594 
L 108.351509 467.181662 
L 107.694096 466.799012 
L 107.036684 466.510362 
L 106.379272 466.295562 
L 105.72186 466.138146 
L 105.064448 466.016822 
L 104.407035 465.903731 
L 103.749623 465.769878 
L 103.092211 465.596488 
L 102.434799 465.387242 
L 101.777387 465.171985 
L 101.119975 464.995577 
L 100.462562 464.897666 
L 99.80515 464.898293 
L 99.147738 464.998517 
L 98.490326 465.191715 
L 97.832914 465.475445 
L 97.175501 465.857908 
L 96.518089 466.358519 
L 95.860677 467.004363 
L 95.623134 467.268594 
L 95.203265 467.50414 
L 94.545853 467.922975 
L 93.888441 468.431317 
L 93.231028 469.060294 
L 92.637452 469.76362 
L 92.573616 469.806258 
L 91.916204 470.276249 
L 91.258792 470.904205 
L 90.60138 471.767411 
L 90.291001 472.258646 
L 89.943967 472.623323 
L 89.286555 473.477704 
L 88.629143 474.663698 
L 88.581319 474.753672 
L 87.971731 475.665884 
L 87.314319 476.986109 
L 87.189664 477.248698 
L 86.656906 478.359557 
L 86.117168 479.743724 
L 85.999494 480.134076 
L 85.403697 482.23875 
L 85.342082 482.666664 
L 85.013865 484.733776 
L 84.960818 487.228802 
L 85.248491 489.723828 
L 85.342082 490.076784 
L 85.999494 492.163533 
L 86.021096 492.218854 
L 86.656906 493.432228 
L 87.314319 494.258598 
L 87.838092 494.71388 
z
M 90.147754 492.218854 
L 89.943967 492.072655 
L 89.286555 491.442242 
L 88.629143 490.495508 
L 88.231282 489.723828 
L 87.971731 488.810377 
L 87.601936 487.228802 
L 87.583265 484.733776 
L 87.971731 482.487266 
L 88.011018 482.23875 
L 88.629143 480.252767 
L 88.800608 479.743724 
L 89.286555 478.599411 
L 89.943967 477.352376 
L 90.002462 477.248698 
L 90.60138 476.152766 
L 91.258792 475.227609 
L 91.665754 474.753672 
L 91.916204 474.382577 
L 92.573616 473.531223 
L 93.231028 472.8715 
L 93.888441 472.34611 
L 94.008242 472.258646 
L 94.545853 471.664968 
L 95.203265 471.076301 
L 95.860677 470.609901 
L 96.518089 470.240053 
L 97.175501 469.951957 
L 97.75692 469.76362 
L 97.832914 469.720834 
L 98.490326 469.479341 
L 99.147738 469.367689 
L 99.80515 469.371472 
L 100.462562 469.470083 
L 101.119975 469.633445 
L 101.567807 469.76362 
L 101.777387 469.797874 
L 102.434799 469.90324 
L 103.092211 470.002241 
L 103.749623 470.100762 
L 104.407035 470.214719 
L 105.064448 470.366122 
L 105.72186 470.577801 
L 106.379272 470.868553 
L 107.036684 471.251825 
L 107.694096 471.74067 
L 108.257358 472.258646 
L 108.351509 472.33421 
L 109.008921 472.942067 
L 109.666333 473.70237 
L 110.323745 474.572131 
L 110.471453 474.753672 
L 110.981157 475.442543 
L 111.638569 476.172411 
L 112.295982 476.816628 
L 112.700698 477.248698 
L 112.953394 477.897877 
L 113.410591 479.743724 
L 112.953394 482.23875 
L 112.953394 482.23875 
L 112.295982 483.541509 
L 111.638569 484.714059 
L 111.626763 484.733776 
L 110.981157 485.490832 
L 110.323745 486.149594 
L 109.666333 486.746446 
L 109.115637 487.228802 
L 109.008921 487.321097 
L 108.351509 487.94529 
L 107.694096 488.576626 
L 107.036684 489.183516 
L 106.398947 489.723828 
L 106.379272 489.745106 
L 105.72186 490.473302 
L 105.064448 491.074082 
L 104.407035 491.555337 
L 103.749623 491.934381 
L 103.116111 492.218854 
L 103.092211 492.236136 
L 102.434799 492.621602 
L 101.777387 492.899922 
L 101.119975 493.10417 
L 100.462562 493.263933 
L 99.80515 493.402916 
L 99.147738 493.535183 
L 98.490326 493.663592 
L 97.832914 493.782334 
L 97.175501 493.881616 
L 96.518089 493.951594 
L 95.860677 493.984537 
L 95.203265 493.975788 
L 94.545853 493.924038 
L 93.888441 493.830645 
L 93.231028 493.697287 
L 92.573616 493.521962 
L 91.916204 493.294729 
L 91.258792 492.994756 
L 90.60138 492.588622 
z
" clip-path="url(#p36f17fdd8c)" style="fill: #edf4fc"/>
    <path d="M 90.60138 492.588622 
L 91.258792 492.994756 
L 91.916204 493.294729 
L 92.573616 493.521962 
L 93.231028 493.697287 
L 93.888441 493.830645 
L 94.545853 493.924038 
L 95.203265 493.975788 
L 95.860677 493.984537 
L 96.518089 493.951594 
L 97.175501 493.881616 
L 97.832914 493.782334 
L 98.490326 493.663592 
L 99.147738 493.535183 
L 99.80515 493.402916 
L 100.462562 493.263933 
L 101.119975 493.10417 
L 101.777387 492.899922 
L 102.434799 492.621602 
L 103.092211 492.236136 
L 103.116111 492.218854 
L 103.749623 491.934381 
L 104.407035 491.555337 
L 105.064448 491.074082 
L 105.72186 490.473302 
L 106.379272 489.745106 
L 106.398947 489.723828 
L 107.036684 489.183516 
L 107.694096 488.576626 
L 108.351509 487.94529 
L 109.008921 487.321097 
L 109.115637 487.228802 
L 109.666333 486.746446 
L 110.323745 486.149594 
L 110.981157 485.490832 
L 111.626763 484.733776 
L 111.638569 484.714059 
L 112.295982 483.541509 
L 112.953394 482.23875 
L 112.953394 482.23875 
L 113.410591 479.743724 
L 112.953394 477.897877 
L 112.700698 477.248698 
L 112.295982 476.816628 
L 111.638569 476.172411 
L 110.981157 475.442543 
L 110.471453 474.753672 
L 110.323745 474.572131 
L 109.666333 473.70237 
L 109.008921 472.942067 
L 108.351509 472.33421 
L 108.257358 472.258646 
L 107.694096 471.74067 
L 107.036684 471.251825 
L 106.379272 470.868553 
L 105.72186 470.577801 
L 105.064448 470.366122 
L 104.407035 470.214719 
L 103.749623 470.100762 
L 103.092211 470.002241 
L 102.434799 469.90324 
L 101.777387 469.797874 
L 101.567807 469.76362 
L 101.119975 469.633445 
L 100.462562 469.470083 
L 99.80515 469.371472 
L 99.147738 469.367689 
L 98.490326 469.479341 
L 97.832914 469.720834 
L 97.75692 469.76362 
L 97.175501 469.951957 
L 96.518089 470.240053 
L 95.860677 470.609901 
L 95.203265 471.076301 
L 94.545853 471.664968 
L 94.008242 472.258646 
L 93.888441 472.34611 
L 93.231028 472.8715 
L 92.573616 473.531223 
L 91.916204 474.382577 
L 91.665754 474.753672 
L 91.258792 475.227609 
L 90.60138 476.152766 
L 90.002462 477.248698 
L 89.943967 477.352376 
L 89.286555 478.599411 
L 88.800608 479.743724 
L 88.629143 480.252767 
L 88.011018 482.23875 
L 87.971731 482.487266 
L 87.583265 484.733776 
L 87.601936 487.228802 
L 87.971731 488.810377 
L 88.231282 489.723828 
L 88.629143 490.495508 
L 89.286555 491.442242 
L 89.943967 492.072655 
L 90.147754 492.218854 
z
M 90.180621 489.723828 
L 89.943967 489.328934 
L 89.286555 487.786842 
L 89.10241 487.228802 
L 88.935608 484.733776 
L 89.286555 482.536077 
L 89.329622 482.23875 
L 89.943967 480.366701 
L 90.164504 479.743724 
L 90.60138 478.801848 
L 91.258792 477.612908 
L 91.483814 477.248698 
L 91.916204 476.539786 
L 92.573616 475.642449 
L 93.231028 474.92853 
L 93.410448 474.753672 
L 93.888441 474.17124 
L 94.545853 473.515392 
L 95.203265 472.995025 
L 95.860677 472.57893 
L 96.498345 472.258646 
L 96.518089 472.243859 
L 97.175501 471.85977 
L 97.832914 471.5997 
L 98.490326 471.448059 
L 99.147738 471.391266 
L 99.80515 471.413564 
L 100.462562 471.495459 
L 101.119975 471.615616 
L 101.777387 471.755557 
L 102.434799 471.905345 
L 103.092211 472.067729 
L 103.749623 472.258646 
L 103.749623 472.258646 
L 104.407035 472.436693 
L 105.064448 472.681685 
L 105.72186 473.013079 
L 106.379272 473.446379 
L 107.036684 473.998305 
L 107.694096 474.695943 
L 107.742844 474.753672 
L 108.351509 475.620413 
L 109.008921 476.825129 
L 109.226575 477.248698 
L 109.666333 479.098328 
L 109.855068 479.743724 
L 109.666333 481.556524 
L 109.604932 482.23875 
L 109.008921 483.49769 
L 108.415814 484.733776 
L 108.351509 484.821773 
L 107.694096 485.82263 
L 107.036684 486.744024 
L 106.676004 487.228802 
L 106.379272 487.61502 
L 105.72186 488.409493 
L 105.064448 489.063897 
L 104.407035 489.597315 
L 104.224881 489.723828 
L 103.749623 490.13746 
L 103.092211 490.580581 
L 102.434799 490.909897 
L 101.777387 491.155391 
L 101.119975 491.344258 
L 100.462562 491.50025 
L 99.80515 491.640722 
L 99.147738 491.773941 
L 98.490326 491.899242 
L 97.832914 492.009852 
L 97.175501 492.096383 
L 96.518089 492.149601 
L 95.860677 492.162312 
L 95.203265 492.130552 
L 94.545853 492.053751 
L 93.888441 491.932925 
L 93.231028 491.766439 
L 92.573616 491.544531 
L 91.916204 491.244566 
L 91.258792 490.827591 
L 90.60138 490.234724 
z
" clip-path="url(#p36f17fdd8c)" style="fill: #d9e7f5"/>
    <path d="M 90.60138 490.234724 
L 91.258792 490.827591 
L 91.916204 491.244566 
L 92.573616 491.544531 
L 93.231028 491.766439 
L 93.888441 491.932925 
L 94.545853 492.053751 
L 95.203265 492.130552 
L 95.860677 492.162312 
L 96.518089 492.149601 
L 97.175501 492.096383 
L 97.832914 492.009852 
L 98.490326 491.899242 
L 99.147738 491.773941 
L 99.80515 491.640722 
L 100.462562 491.50025 
L 101.119975 491.344258 
L 101.777387 491.155391 
L 102.434799 490.909897 
L 103.092211 490.580581 
L 103.749623 490.13746 
L 104.224881 489.723828 
L 104.407035 489.597315 
L 105.064448 489.063897 
L 105.72186 488.409493 
L 106.379272 487.61502 
L 106.676004 487.228802 
L 107.036684 486.744024 
L 107.694096 485.82263 
L 108.351509 484.821773 
L 108.415814 484.733776 
L 109.008921 483.49769 
L 109.604932 482.23875 
L 109.666333 481.556524 
L 109.855068 479.743724 
L 109.666333 479.098328 
L 109.226575 477.248698 
L 109.008921 476.825129 
L 108.351509 475.620413 
L 107.742844 474.753672 
L 107.694096 474.695943 
L 107.036684 473.998305 
L 106.379272 473.446379 
L 105.72186 473.013079 
L 105.064448 472.681685 
L 104.407035 472.436693 
L 103.749623 472.258646 
L 103.749623 472.258646 
L 103.092211 472.067729 
L 102.434799 471.905345 
L 101.777387 471.755557 
L 101.119975 471.615616 
L 100.462562 471.495459 
L 99.80515 471.413564 
L 99.147738 471.391266 
L 98.490326 471.448059 
L 97.832914 471.5997 
L 97.175501 471.85977 
L 96.518089 472.243859 
L 96.498345 472.258646 
L 95.860677 472.57893 
L 95.203265 472.995025 
L 94.545853 473.515392 
L 93.888441 474.17124 
L 93.410448 474.753672 
L 93.231028 474.92853 
L 92.573616 475.642449 
L 91.916204 476.539786 
L 91.483814 477.248698 
L 91.258792 477.612908 
L 90.60138 478.801848 
L 90.164504 479.743724 
L 89.943967 480.366701 
L 89.329622 482.23875 
L 89.286555 482.536077 
L 88.935608 484.733776 
L 89.10241 487.228802 
L 89.286555 487.786842 
L 89.943967 489.328934 
L 90.180621 489.723828 
z
M 92.69506 489.723828 
L 92.573616 489.656125 
L 91.916204 489.167132 
L 91.258792 488.429944 
L 90.60138 487.299579 
L 90.567934 487.228802 
L 90.176726 484.733776 
L 90.509614 482.23875 
L 90.60138 481.966256 
L 91.258792 480.099069 
L 91.390065 479.743724 
L 91.916204 478.719843 
L 92.573616 477.649387 
L 92.84946 477.248698 
L 93.231028 476.703943 
L 93.888441 475.91295 
L 94.545853 475.27545 
L 95.203265 474.753672 
L 95.203265 474.753672 
L 95.860677 474.213416 
L 96.518089 473.807797 
L 97.175501 473.515016 
L 97.832914 473.320738 
L 98.490326 473.213317 
L 99.147738 473.180431 
L 99.80515 473.20814 
L 100.462562 473.282023 
L 101.119975 473.389534 
L 101.777387 473.523032 
L 102.434799 473.682768 
L 103.092211 473.878543 
L 103.749623 474.12895 
L 104.407035 474.458091 
L 104.868494 474.753672 
L 105.064448 474.881979 
L 105.72186 475.409766 
L 106.379272 476.095572 
L 107.036684 476.995292 
L 107.194247 477.248698 
L 107.694096 478.975351 
L 107.882022 479.743724 
L 107.694096 481.703471 
L 107.650106 482.23875 
L 107.036684 483.860242 
L 106.697607 484.733776 
L 106.379272 485.266706 
L 105.72186 486.27274 
L 105.064448 487.128145 
L 104.978626 487.228802 
L 104.407035 487.853274 
L 103.749623 488.420812 
L 103.092211 488.859371 
L 102.434799 489.195827 
L 101.777387 489.455203 
L 101.119975 489.662486 
L 100.899834 489.723828 
L 100.462562 489.875033 
L 99.80515 490.086602 
L 99.147738 490.28325 
L 98.490326 490.458356 
L 97.832914 490.600336 
L 97.175501 490.697362 
L 96.518089 490.73995 
L 95.860677 490.722141 
L 95.203265 490.641777 
L 94.545853 490.499308 
L 93.888441 490.294123 
L 93.231028 490.018557 
z
" clip-path="url(#p36f17fdd8c)" style="fill: #c1d9ed"/>
    <path d="M 93.231028 490.018557 
L 93.888441 490.294123 
L 94.545853 490.499308 
L 95.203265 490.641777 
L 95.860677 490.722141 
L 96.518089 490.73995 
L 97.175501 490.697362 
L 97.832914 490.600336 
L 98.490326 490.458356 
L 99.147738 490.28325 
L 99.80515 490.086602 
L 100.462562 489.875033 
L 100.899834 489.723828 
L 101.119975 489.662486 
L 101.777387 489.455203 
L 102.434799 489.195827 
L 103.092211 488.859371 
L 103.749623 488.420812 
L 104.407035 487.853274 
L 104.978626 487.228802 
L 105.064448 487.128145 
L 105.72186 486.27274 
L 106.379272 485.266706 
L 106.697607 484.733776 
L 107.036684 483.860242 
L 107.650106 482.23875 
L 107.694096 481.703471 
L 107.882022 479.743724 
L 107.694096 478.975351 
L 107.194247 477.248698 
L 107.036684 476.995292 
L 106.379272 476.095572 
L 105.72186 475.409766 
L 105.064448 474.881979 
L 104.868494 474.753672 
L 104.407035 474.458091 
L 103.749623 474.12895 
L 103.092211 473.878543 
L 102.434799 473.682768 
L 101.777387 473.523032 
L 101.119975 473.389534 
L 100.462562 473.282023 
L 99.80515 473.20814 
L 99.147738 473.180431 
L 98.490326 473.213317 
L 97.832914 473.320738 
L 97.175501 473.515016 
L 96.518089 473.807797 
L 95.860677 474.213416 
L 95.203265 474.753672 
L 95.203265 474.753672 
L 94.545853 475.27545 
L 93.888441 475.91295 
L 93.231028 476.703943 
L 92.84946 477.248698 
L 92.573616 477.649387 
L 91.916204 478.719843 
L 91.390065 479.743724 
L 91.258792 480.099069 
L 90.60138 481.966256 
L 90.509614 482.23875 
L 90.176726 484.733776 
L 90.567934 487.228802 
L 90.60138 487.299579 
L 91.258792 488.429944 
L 91.916204 489.167132 
L 92.573616 489.656125 
L 92.69506 489.723828 
z
M 91.771892 487.228802 
L 91.258792 485.512142 
L 91.090342 484.733776 
L 91.258792 483.225412 
L 91.356965 482.23875 
L 91.916204 480.670414 
L 92.26707 479.743724 
L 92.573616 479.18465 
L 93.231028 478.13383 
L 93.888441 477.248698 
L 93.888441 477.248698 
L 94.545853 476.493454 
L 95.203265 475.895901 
L 95.860677 475.424096 
L 96.518089 475.060445 
L 97.175501 474.795484 
L 97.332978 474.753672 
L 97.832914 474.594394 
L 98.490326 474.483188 
L 99.147738 474.45413 
L 99.80515 474.491739 
L 100.462562 474.582164 
L 101.119975 474.714892 
L 101.272605 474.753672 
L 101.777387 474.869761 
L 102.434799 475.062935 
L 103.092211 475.314095 
L 103.749623 475.6439 
L 104.407035 476.076429 
L 105.064448 476.638178 
L 105.62751 477.248698 
L 105.72186 477.414151 
L 106.379272 478.876264 
L 106.673315 479.743724 
L 106.556489 482.23875 
L 106.379272 482.712629 
L 105.72186 484.424558 
L 105.598545 484.733776 
L 105.064448 485.536886 
L 104.407035 486.367 
L 103.749623 487.048351 
L 103.539334 487.228802 
L 103.092211 487.576233 
L 102.434799 487.976229 
L 101.777387 488.290474 
L 101.119975 488.549425 
L 100.462562 488.775884 
L 99.80515 488.982284 
L 99.147738 489.170536 
L 98.490326 489.334548 
L 97.832914 489.463717 
L 97.175501 489.546133 
L 96.518089 489.571237 
L 95.860677 489.531865 
L 95.203265 489.424858 
L 94.545853 489.248483 
L 93.888441 488.995705 
L 93.231028 488.644832 
L 92.573616 488.150105 
L 91.916204 487.432496 
z
" clip-path="url(#p36f17fdd8c)" style="fill: #9cc9e1"/>
    <path d="M 91.916204 487.432496 
L 92.573616 488.150105 
L 93.231028 488.644832 
L 93.888441 488.995705 
L 94.545853 489.248483 
L 95.203265 489.424858 
L 95.860677 489.531865 
L 96.518089 489.571237 
L 97.175501 489.546133 
L 97.832914 489.463717 
L 98.490326 489.334548 
L 99.147738 489.170536 
L 99.80515 488.982284 
L 100.462562 488.775884 
L 101.119975 488.549425 
L 101.777387 488.290474 
L 102.434799 487.976229 
L 103.092211 487.576233 
L 103.539334 487.228802 
L 103.749623 487.048351 
L 104.407035 486.367 
L 105.064448 485.536886 
L 105.598545 484.733776 
L 105.72186 484.424558 
L 106.379272 482.712629 
L 106.556489 482.23875 
L 106.673315 479.743724 
L 106.379272 478.876264 
L 105.72186 477.414151 
L 105.62751 477.248698 
L 105.064448 476.638178 
L 104.407035 476.076429 
L 103.749623 475.6439 
L 103.092211 475.314095 
L 102.434799 475.062935 
L 101.777387 474.869761 
L 101.272605 474.753672 
L 101.119975 474.714892 
L 100.462562 474.582164 
L 99.80515 474.491739 
L 99.147738 474.45413 
L 98.490326 474.483188 
L 97.832914 474.594394 
L 97.332978 474.753672 
L 97.175501 474.795484 
L 96.518089 475.060445 
L 95.860677 475.424096 
L 95.203265 475.895901 
L 94.545853 476.493454 
L 93.888441 477.248698 
L 93.888441 477.248698 
L 93.231028 478.13383 
L 92.573616 479.18465 
L 92.26707 479.743724 
L 91.916204 480.670414 
L 91.356965 482.23875 
L 91.258792 483.225412 
L 91.090342 484.733776 
L 91.258792 485.512142 
L 91.771892 487.228802 
z
M 93.463054 487.228802 
L 93.231028 486.965123 
L 92.573616 485.860799 
L 92.142688 484.733776 
L 92.291153 482.23875 
L 92.573616 481.475517 
L 93.231028 479.794162 
L 93.251705 479.743724 
L 93.888441 478.778828 
L 94.545853 477.948357 
L 95.203265 477.251276 
L 95.206191 477.248698 
L 95.860677 476.72578 
L 96.518089 476.333329 
L 97.175501 476.054858 
L 97.832914 475.876275 
L 98.490326 475.784898 
L 99.147738 475.768711 
L 99.80515 475.8172 
L 100.462562 475.92246 
L 101.119975 476.080519 
L 101.777387 476.293123 
L 102.434799 476.569275 
L 103.092211 476.925423 
L 103.565971 477.248698 
L 103.749623 477.431636 
L 104.407035 478.237088 
L 105.064448 479.306695 
L 105.27955 479.743724 
L 105.347103 482.23875 
L 105.064448 482.953297 
L 104.407035 484.499832 
L 104.297082 484.733776 
L 103.749623 485.367091 
L 103.092211 485.984683 
L 102.434799 486.481264 
L 101.777387 486.885921 
L 101.119975 487.228802 
L 101.119975 487.228802 
L 100.462562 487.512914 
L 99.80515 487.76931 
L 99.147738 487.995006 
L 98.490326 488.180426 
L 97.832914 488.313563 
L 97.175501 488.382829 
L 96.518089 488.37905 
L 95.860677 488.296621 
L 95.203265 488.132732 
L 94.545853 487.882942 
L 93.888441 487.532818 
z
" clip-path="url(#p36f17fdd8c)" style="fill: #6caed6"/>
    <path d="M 93.888441 487.532818 
L 94.545853 487.882942 
L 95.203265 488.132732 
L 95.860677 488.296621 
L 96.518089 488.37905 
L 97.175501 488.382829 
L 97.832914 488.313563 
L 98.490326 488.180426 
L 99.147738 487.995006 
L 99.80515 487.76931 
L 100.462562 487.512914 
L 101.119975 487.228802 
L 101.119975 487.228802 
L 101.777387 486.885921 
L 102.434799 486.481264 
L 103.092211 485.984683 
L 103.749623 485.367091 
L 104.297082 484.733776 
L 104.407035 484.499832 
L 105.064448 482.953297 
L 105.347103 482.23875 
L 105.27955 479.743724 
L 105.064448 479.306695 
L 104.407035 478.237088 
L 103.749623 477.431636 
L 103.565971 477.248698 
L 103.092211 476.925423 
L 102.434799 476.569275 
L 101.777387 476.293123 
L 101.119975 476.080519 
L 100.462562 475.92246 
L 99.80515 475.8172 
L 99.147738 475.768711 
L 98.490326 475.784898 
L 97.832914 475.876275 
L 97.175501 476.054858 
L 96.518089 476.333329 
L 95.860677 476.72578 
L 95.206191 477.248698 
L 95.203265 477.251276 
L 94.545853 477.948357 
L 93.888441 478.778828 
L 93.251705 479.743724 
L 93.231028 479.794162 
L 92.573616 481.475517 
L 92.291153 482.23875 
L 92.142688 484.733776 
L 92.573616 485.860799 
L 93.231028 486.965123 
L 93.463054 487.228802 
z
M 96.376081 487.228802 
L 95.860677 487.107391 
L 95.203265 486.827368 
L 94.545853 486.396758 
L 93.888441 485.754773 
L 93.231028 484.771228 
L 93.212133 484.733776 
L 93.183801 482.23875 
L 93.231028 482.117183 
L 93.888441 480.530218 
L 94.234113 479.743724 
L 94.545853 479.330624 
L 95.203265 478.605456 
L 95.860677 478.021654 
L 96.518089 477.569091 
L 97.161654 477.248698 
L 97.175501 477.242628 
L 97.832914 477.059796 
L 98.490326 476.9703 
L 99.147738 476.962702 
L 99.80515 477.028608 
L 100.462562 477.162684 
L 100.749527 477.248698 
L 101.119975 477.395264 
L 101.777387 477.753423 
L 102.434799 478.232261 
L 103.092211 478.853536 
L 103.749623 479.650121 
L 103.814814 479.743724 
L 104.1013 482.23875 
L 103.749623 482.989421 
L 103.092211 484.227823 
L 102.781984 484.733776 
L 102.434799 485.022996 
L 101.777387 485.490483 
L 101.119975 485.893477 
L 100.462562 486.250253 
L 99.80515 486.568757 
L 99.147738 486.846503 
L 98.490326 487.072231 
L 97.832914 487.228802 
L 97.832914 487.228802 
L 97.175501 487.285667 
L 96.518089 487.254648 
z
" clip-path="url(#p36f17fdd8c)" style="fill: #4493c7"/>
    <path d="M 96.518089 487.254648 
L 97.175501 487.285667 
L 97.832914 487.228802 
L 97.832914 487.228802 
L 98.490326 487.072231 
L 99.147738 486.846503 
L 99.80515 486.568757 
L 100.462562 486.250253 
L 101.119975 485.893477 
L 101.777387 485.490483 
L 102.434799 485.022996 
L 102.781984 484.733776 
L 103.092211 484.227823 
L 103.749623 482.989421 
L 104.1013 482.23875 
L 103.814814 479.743724 
L 103.749623 479.650121 
L 103.092211 478.853536 
L 102.434799 478.232261 
L 101.777387 477.753423 
L 101.119975 477.395264 
L 100.749527 477.248698 
L 100.462562 477.162684 
L 99.80515 477.028608 
L 99.147738 476.962702 
L 98.490326 476.9703 
L 97.832914 477.059796 
L 97.175501 477.242628 
L 97.161654 477.248698 
L 96.518089 477.569091 
L 95.860677 478.021654 
L 95.203265 478.605456 
L 94.545853 479.330624 
L 94.234113 479.743724 
L 93.888441 480.530218 
L 93.231028 482.117183 
L 93.183801 482.23875 
L 93.212133 484.733776 
L 93.231028 484.771228 
L 93.888441 485.754773 
L 94.545853 486.396758 
L 95.203265 486.827368 
L 95.860677 487.107391 
L 96.376081 487.228802 
z
M 94.333929 484.733776 
L 94.025021 482.23875 
L 94.545853 481.092762 
L 95.203265 479.743724 
L 95.203265 479.743724 
L 95.860677 479.153448 
L 96.518089 478.702936 
L 97.175501 478.381364 
L 97.832914 478.17951 
L 98.490326 478.088535 
L 99.147738 478.102096 
L 99.80515 478.218115 
L 100.462562 478.439001 
L 101.119975 478.771321 
L 101.777387 479.225613 
L 102.35866 479.743724 
L 102.434799 480.068305 
L 102.85752 482.23875 
L 102.434799 482.955996 
L 101.777387 483.936947 
L 101.176242 484.733776 
L 101.119975 484.771058 
L 100.462562 485.170089 
L 99.80515 485.517055 
L 99.147738 485.806259 
L 98.490326 486.025649 
L 97.832914 486.159071 
L 97.175501 486.18938 
L 96.518089 486.101717 
L 95.860677 485.884114 
L 95.203265 485.520818 
L 94.545853 484.975505 
z
" clip-path="url(#p36f17fdd8c)" style="fill: #2676b8"/>
    <path d="M 94.545853 484.975505 
L 95.203265 485.520818 
L 95.860677 485.884114 
L 96.518089 486.101717 
L 97.175501 486.18938 
L 97.832914 486.159071 
L 98.490326 486.025649 
L 99.147738 485.806259 
L 99.80515 485.517055 
L 100.462562 485.170089 
L 101.119975 484.771058 
L 101.176242 484.733776 
L 101.777387 483.936947 
L 102.434799 482.955996 
L 102.85752 482.23875 
L 102.434799 480.068305 
L 102.35866 479.743724 
L 101.777387 479.225613 
L 101.119975 478.771321 
L 100.462562 478.439001 
L 99.80515 478.218115 
L 99.147738 478.102096 
L 98.490326 478.088535 
L 97.832914 478.17951 
L 97.175501 478.381364 
L 96.518089 478.702936 
L 95.860677 479.153448 
L 95.203265 479.743724 
L 95.203265 479.743724 
L 94.545853 481.092762 
L 94.025021 482.23875 
L 94.333929 484.733776 
z
M 96.518089 484.733776 
L 96.518089 484.733776 
L 95.860677 483.78856 
L 95.290154 482.23875 
L 95.860677 481.305558 
L 96.518089 480.402441 
L 97.140042 479.743724 
L 97.175501 479.726664 
L 97.832914 479.535902 
L 98.490326 479.464387 
L 99.147738 479.511037 
L 99.80515 479.678081 
L 99.958261 479.743724 
L 100.462562 480.540185 
L 101.110034 482.23875 
L 100.462562 483.048056 
L 99.80515 483.768923 
L 99.147738 484.38652 
L 98.664443 484.733776 
L 98.490326 484.790152 
L 97.832914 484.896246 
L 97.175501 484.881702 
z
" clip-path="url(#p36f17fdd8c)" style="fill: #105ba4"/>
    <path d="M 97.175501 484.881702 
L 97.832914 484.896246 
L 98.490326 484.790152 
L 98.664443 484.733776 
L 99.147738 484.38652 
L 99.80515 483.768923 
L 100.462562 483.048056 
L 101.110034 482.23875 
L 100.462562 480.540185 
L 99.958261 479.743724 
L 99.80515 479.678081 
L 99.147738 479.511037 
L 98.490326 479.464387 
L 97.832914 479.535902 
L 97.175501 479.726664 
L 97.140042 479.743724 
L 96.518089 480.402441 
L 95.860677 481.305558 
L 95.290154 482.23875 
L 95.860677 483.78856 
L 96.518089 484.733776 
L 96.518089 484.733776 
z
" clip-path="url(#p36f17fdd8c)" style="fill: #083d7f"/>
   </g>
   <g id="matplotlib.axis_1">
    <g id="xtick_1">
     <g id="line2d_1">
      <defs>
       <path id="m895bcea9d7" d="M 0 0 
L 0 3.5 
" style="stroke: #000000; stroke-width: 0.8"/>
      </defs>
      <g>
       <use xlink:href="#m895bcea9d7" x="88.87057" y="499.48" style="stroke: #000000; stroke-width: 0.8"/>
      </g>
     </g>
     <g id="text_1">
      <!-- 0 -->
      <g transform="translate(81.87182 523.196563) scale(0.22 -0.22)">
       <defs>
        <path id="DejaVuSans-30" d="M 2034 4250 
Q 1547 4250 1301 3770 
Q 1056 3291 1056 2328 
Q 1056 1369 1301 889 
Q 1547 409 2034 409 
Q 2525 409 2770 889 
Q 3016 1369 3016 2328 
Q 3016 3291 2770 3770 
Q 2525 4250 2034 4250 
z
M 2034 4750 
Q 2819 4750 3233 4129 
Q 3647 3509 3647 2328 
Q 3647 1150 3233 529 
Q 2819 -91 2034 -91 
Q 1250 -91 836 529 
Q 422 1150 422 2328 
Q 422 3509 836 4129 
Q 1250 4750 2034 4750 
z
" transform="scale(0.015625)"/>
       </defs>
       <use xlink:href="#DejaVuSans-30"/>
      </g>
     </g>
    </g>
    <g id="xtick_2">
     <g id="line2d_2">
      <g>
       <use xlink:href="#m895bcea9d7" x="176.256138" y="499.48" style="stroke: #000000; stroke-width: 0.8"/>
      </g>
     </g>
     <g id="text_2">
      <!-- 10 -->
      <g transform="translate(162.258638 523.196563) scale(0.22 -0.22)">
       <defs>
        <path id="DejaVuSans-31" d="M 794 531 
L 1825 531 
L 1825 4091 
L 703 3866 
L 703 4441 
L 1819 4666 
L 2450 4666 
L 2450 531 
L 3481 531 
L 3481 0 
L 794 0 
L 794 531 
z
" transform="scale(0.015625)"/>
       </defs>
       <use xlink:href="#DejaVuSans-31"/>
       <use xlink:href="#DejaVuSans-30" x="63.623047"/>
      </g>
     </g>
    </g>
    <g id="xtick_3">
     <g id="line2d_3">
      <g>
       <use xlink:href="#m895bcea9d7" x="263.641705" y="499.48" style="stroke: #000000; stroke-width: 0.8"/>
      </g>
     </g>
     <g id="text_3">
      <!-- 20 -->
      <g transform="translate(249.644205 523.196563) scale(0.22 -0.22)">
       <defs>
        <path id="DejaVuSans-32" d="M 1228 531 
L 3431 531 
L 3431 0 
L 469 0 
L 469 531 
Q 828 903 1448 1529 
Q 2069 2156 2228 2338 
Q 2531 2678 2651 2914 
Q 2772 3150 2772 3378 
Q 2772 3750 2511 3984 
Q 2250 4219 1831 4219 
Q 1534 4219 1204 4116 
Q 875 4013 500 3803 
L 500 4441 
Q 881 4594 1212 4672 
Q 1544 4750 1819 4750 
Q 2544 4750 2975 4387 
Q 3406 4025 3406 3419 
Q 3406 3131 3298 2873 
Q 3191 2616 2906 2266 
Q 2828 2175 2409 1742 
Q 1991 1309 1228 531 
z
" transform="scale(0.015625)"/>
       </defs>
       <use xlink:href="#DejaVuSans-32"/>
       <use xlink:href="#DejaVuSans-30" x="63.623047"/>
      </g>
     </g>
    </g>
    <g id="xtick_4">
     <g id="line2d_4">
      <g>
       <use xlink:href="#m895bcea9d7" x="351.027273" y="499.48" style="stroke: #000000; stroke-width: 0.8"/>
      </g>
     </g>
     <g id="text_4">
      <!-- 30 -->
      <g transform="translate(337.029773 523.196563) scale(0.22 -0.22)">
       <defs>
        <path id="DejaVuSans-33" d="M 2597 2516 
Q 3050 2419 3304 2112 
Q 3559 1806 3559 1356 
Q 3559 666 3084 287 
Q 2609 -91 1734 -91 
Q 1441 -91 1130 -33 
Q 819 25 488 141 
L 488 750 
Q 750 597 1062 519 
Q 1375 441 1716 441 
Q 2309 441 2620 675 
Q 2931 909 2931 1356 
Q 2931 1769 2642 2001 
Q 2353 2234 1838 2234 
L 1294 2234 
L 1294 2753 
L 1863 2753 
Q 2328 2753 2575 2939 
Q 2822 3125 2822 3475 
Q 2822 3834 2567 4026 
Q 2313 4219 1838 4219 
Q 1578 4219 1281 4162 
Q 984 4106 628 3988 
L 628 4550 
Q 988 4650 1302 4700 
Q 1616 4750 1894 4750 
Q 2613 4750 3031 4423 
Q 3450 4097 3450 3541 
Q 3450 3153 3228 2886 
Q 3006 2619 2597 2516 
z
" transform="scale(0.015625)"/>
       </defs>
       <use xlink:href="#DejaVuSans-33"/>
       <use xlink:href="#DejaVuSans-30" x="63.623047"/>
      </g>
     </g>
    </g>
    <g id="xtick_5">
     <g id="line2d_5">
      <g>
       <use xlink:href="#m895bcea9d7" x="438.412841" y="499.48" style="stroke: #000000; stroke-width: 0.8"/>
      </g>
     </g>
     <g id="text_5">
      <!-- 40 -->
      <g transform="translate(424.415341 523.196563) scale(0.22 -0.22)">
       <defs>
        <path id="DejaVuSans-34" d="M 2419 4116 
L 825 1625 
L 2419 1625 
L 2419 4116 
z
M 2253 4666 
L 3047 4666 
L 3047 1625 
L 3713 1625 
L 3713 1100 
L 3047 1100 
L 3047 0 
L 2419 0 
L 2419 1100 
L 313 1100 
L 313 1709 
L 2253 4666 
z
" transform="scale(0.015625)"/>
       </defs>
       <use xlink:href="#DejaVuSans-34"/>
       <use xlink:href="#DejaVuSans-30" x="63.623047"/>
      </g>
     </g>
    </g>
    <g id="xtick_6">
     <g id="line2d_6">
      <g>
       <use xlink:href="#m895bcea9d7" x="525.798408" y="499.48" style="stroke: #000000; stroke-width: 0.8"/>
      </g>
     </g>
     <g id="text_6">
      <!-- 50 -->
      <g transform="translate(511.800908 523.196563) scale(0.22 -0.22)">
       <defs>
        <path id="DejaVuSans-35" d="M 691 4666 
L 3169 4666 
L 3169 4134 
L 1269 4134 
L 1269 2991 
Q 1406 3038 1543 3061 
Q 1681 3084 1819 3084 
Q 2600 3084 3056 2656 
Q 3513 2228 3513 1497 
Q 3513 744 3044 326 
Q 2575 -91 1722 -91 
Q 1428 -91 1123 -41 
Q 819 9 494 109 
L 494 744 
Q 775 591 1075 516 
Q 1375 441 1709 441 
Q 2250 441 2565 725 
Q 2881 1009 2881 1497 
Q 2881 1984 2565 2268 
Q 2250 2553 1709 2553 
Q 1456 2553 1204 2497 
Q 953 2441 691 2322 
L 691 4666 
z
" transform="scale(0.015625)"/>
       </defs>
       <use xlink:href="#DejaVuSans-35"/>
       <use xlink:href="#DejaVuSans-30" x="63.623047"/>
      </g>
     </g>
    </g>
    <g id="xtick_7">
     <g id="line2d_7">
      <g>
       <use xlink:href="#m895bcea9d7" x="613.183976" y="499.48" style="stroke: #000000; stroke-width: 0.8"/>
      </g>
     </g>
     <g id="text_7">
      <!-- 60 -->
      <g transform="translate(599.186476 523.196563) scale(0.22 -0.22)">
       <defs>
        <path id="DejaVuSans-36" d="M 2113 2584 
Q 1688 2584 1439 2293 
Q 1191 2003 1191 1497 
Q 1191 994 1439 701 
Q 1688 409 2113 409 
Q 2538 409 2786 701 
Q 3034 994 3034 1497 
Q 3034 2003 2786 2293 
Q 2538 2584 2113 2584 
z
M 3366 4563 
L 3366 3988 
Q 3128 4100 2886 4159 
Q 2644 4219 2406 4219 
Q 1781 4219 1451 3797 
Q 1122 3375 1075 2522 
Q 1259 2794 1537 2939 
Q 1816 3084 2150 3084 
Q 2853 3084 3261 2657 
Q 3669 2231 3669 1497 
Q 3669 778 3244 343 
Q 2819 -91 2113 -91 
Q 1303 -91 875 529 
Q 447 1150 447 2328 
Q 447 3434 972 4092 
Q 1497 4750 2381 4750 
Q 2619 4750 2861 4703 
Q 3103 4656 3366 4563 
z
" transform="scale(0.015625)"/>
       </defs>
       <use xlink:href="#DejaVuSans-36"/>
       <use xlink:href="#DejaVuSans-30" x="63.623047"/>
      </g>
     </g>
    </g>
    <g id="text_8">
     <!-- Force Uncertainties -->
     <g transform="translate(283.426094 548.488438) scale(0.22 -0.22)">
      <defs>
       <path id="DejaVuSans-46" d="M 628 4666 
L 3309 4666 
L 3309 4134 
L 1259 4134 
L 1259 2759 
L 3109 2759 
L 3109 2228 
L 1259 2228 
L 1259 0 
L 628 0 
L 628 4666 
z
" transform="scale(0.015625)"/>
       <path id="DejaVuSans-6f" d="M 1959 3097 
Q 1497 3097 1228 2736 
Q 959 2375 959 1747 
Q 959 1119 1226 758 
Q 1494 397 1959 397 
Q 2419 397 2687 759 
Q 2956 1122 2956 1747 
Q 2956 2369 2687 2733 
Q 2419 3097 1959 3097 
z
M 1959 3584 
Q 2709 3584 3137 3096 
Q 3566 2609 3566 1747 
Q 3566 888 3137 398 
Q 2709 -91 1959 -91 
Q 1206 -91 779 398 
Q 353 888 353 1747 
Q 353 2609 779 3096 
Q 1206 3584 1959 3584 
z
" transform="scale(0.015625)"/>
       <path id="DejaVuSans-72" d="M 2631 2963 
Q 2534 3019 2420 3045 
Q 2306 3072 2169 3072 
Q 1681 3072 1420 2755 
Q 1159 2438 1159 1844 
L 1159 0 
L 581 0 
L 581 3500 
L 1159 3500 
L 1159 2956 
Q 1341 3275 1631 3429 
Q 1922 3584 2338 3584 
Q 2397 3584 2469 3576 
Q 2541 3569 2628 3553 
L 2631 2963 
z
" transform="scale(0.015625)"/>
       <path id="DejaVuSans-63" d="M 3122 3366 
L 3122 2828 
Q 2878 2963 2633 3030 
Q 2388 3097 2138 3097 
Q 1578 3097 1268 2742 
Q 959 2388 959 1747 
Q 959 1106 1268 751 
Q 1578 397 2138 397 
Q 2388 397 2633 464 
Q 2878 531 3122 666 
L 3122 134 
Q 2881 22 2623 -34 
Q 2366 -91 2075 -91 
Q 1284 -91 818 406 
Q 353 903 353 1747 
Q 353 2603 823 3093 
Q 1294 3584 2113 3584 
Q 2378 3584 2631 3529 
Q 2884 3475 3122 3366 
z
" transform="scale(0.015625)"/>
       <path id="DejaVuSans-65" d="M 3597 1894 
L 3597 1613 
L 953 1613 
Q 991 1019 1311 708 
Q 1631 397 2203 397 
Q 2534 397 2845 478 
Q 3156 559 3463 722 
L 3463 178 
Q 3153 47 2828 -22 
Q 2503 -91 2169 -91 
Q 1331 -91 842 396 
Q 353 884 353 1716 
Q 353 2575 817 3079 
Q 1281 3584 2069 3584 
Q 2775 3584 3186 3129 
Q 3597 2675 3597 1894 
z
M 3022 2063 
Q 3016 2534 2758 2815 
Q 2500 3097 2075 3097 
Q 1594 3097 1305 2825 
Q 1016 2553 972 2059 
L 3022 2063 
z
" transform="scale(0.015625)"/>
       <path id="DejaVuSans-20" transform="scale(0.015625)"/>
       <path id="DejaVuSans-55" d="M 556 4666 
L 1191 4666 
L 1191 1831 
Q 1191 1081 1462 751 
Q 1734 422 2344 422 
Q 2950 422 3222 751 
Q 3494 1081 3494 1831 
L 3494 4666 
L 4128 4666 
L 4128 1753 
Q 4128 841 3676 375 
Q 3225 -91 2344 -91 
Q 1459 -91 1007 375 
Q 556 841 556 1753 
L 556 4666 
z
" transform="scale(0.015625)"/>
       <path id="DejaVuSans-6e" d="M 3513 2113 
L 3513 0 
L 2938 0 
L 2938 2094 
Q 2938 2591 2744 2837 
Q 2550 3084 2163 3084 
Q 1697 3084 1428 2787 
Q 1159 2491 1159 1978 
L 1159 0 
L 581 0 
L 581 3500 
L 1159 3500 
L 1159 2956 
Q 1366 3272 1645 3428 
Q 1925 3584 2291 3584 
Q 2894 3584 3203 3211 
Q 3513 2838 3513 2113 
z
" transform="scale(0.015625)"/>
       <path id="DejaVuSans-74" d="M 1172 4494 
L 1172 3500 
L 2356 3500 
L 2356 3053 
L 1172 3053 
L 1172 1153 
Q 1172 725 1289 603 
Q 1406 481 1766 481 
L 2356 481 
L 2356 0 
L 1766 0 
Q 1100 0 847 248 
Q 594 497 594 1153 
L 594 3053 
L 172 3053 
L 172 3500 
L 594 3500 
L 594 4494 
L 1172 4494 
z
" transform="scale(0.015625)"/>
       <path id="DejaVuSans-61" d="M 2194 1759 
Q 1497 1759 1228 1600 
Q 959 1441 959 1056 
Q 959 750 1161 570 
Q 1363 391 1709 391 
Q 2188 391 2477 730 
Q 2766 1069 2766 1631 
L 2766 1759 
L 2194 1759 
z
M 3341 1997 
L 3341 0 
L 2766 0 
L 2766 531 
Q 2569 213 2275 61 
Q 1981 -91 1556 -91 
Q 1019 -91 701 211 
Q 384 513 384 1019 
Q 384 1609 779 1909 
Q 1175 2209 1959 2209 
L 2766 2209 
L 2766 2266 
Q 2766 2663 2505 2880 
Q 2244 3097 1772 3097 
Q 1472 3097 1187 3025 
Q 903 2953 641 2809 
L 641 3341 
Q 956 3463 1253 3523 
Q 1550 3584 1831 3584 
Q 2591 3584 2966 3190 
Q 3341 2797 3341 1997 
z
" transform="scale(0.015625)"/>
       <path id="DejaVuSans-69" d="M 603 3500 
L 1178 3500 
L 1178 0 
L 603 0 
L 603 3500 
z
M 603 4863 
L 1178 4863 
L 1178 4134 
L 603 4134 
L 603 4863 
z
" transform="scale(0.015625)"/>
       <path id="DejaVuSans-73" d="M 2834 3397 
L 2834 2853 
Q 2591 2978 2328 3040 
Q 2066 3103 1784 3103 
Q 1356 3103 1142 2972 
Q 928 2841 928 2578 
Q 928 2378 1081 2264 
Q 1234 2150 1697 2047 
L 1894 2003 
Q 2506 1872 2764 1633 
Q 3022 1394 3022 966 
Q 3022 478 2636 193 
Q 2250 -91 1575 -91 
Q 1294 -91 989 -36 
Q 684 19 347 128 
L 347 722 
Q 666 556 975 473 
Q 1284 391 1588 391 
Q 1994 391 2212 530 
Q 2431 669 2431 922 
Q 2431 1156 2273 1281 
Q 2116 1406 1581 1522 
L 1381 1569 
Q 847 1681 609 1914 
Q 372 2147 372 2553 
Q 372 3047 722 3315 
Q 1072 3584 1716 3584 
Q 2034 3584 2315 3537 
Q 2597 3491 2834 3397 
z
" transform="scale(0.015625)"/>
      </defs>
      <use xlink:href="#DejaVuSans-46"/>
      <use xlink:href="#DejaVuSans-6f" x="53.894531"/>
      <use xlink:href="#DejaVuSans-72" x="115.076172"/>
      <use xlink:href="#DejaVuSans-63" x="153.939453"/>
      <use xlink:href="#DejaVuSans-65" x="208.919922"/>
      <use xlink:href="#DejaVuSans-20" x="270.443359"/>
      <use xlink:href="#DejaVuSans-55" x="302.230469"/>
      <use xlink:href="#DejaVuSans-6e" x="375.423828"/>
      <use xlink:href="#DejaVuSans-63" x="438.802734"/>
      <use xlink:href="#DejaVuSans-65" x="493.783203"/>
      <use xlink:href="#DejaVuSans-72" x="555.306641"/>
      <use xlink:href="#DejaVuSans-74" x="596.419922"/>
      <use xlink:href="#DejaVuSans-61" x="635.628906"/>
      <use xlink:href="#DejaVuSans-69" x="696.908203"/>
      <use xlink:href="#DejaVuSans-6e" x="724.691406"/>
      <use xlink:href="#DejaVuSans-74" x="788.070312"/>
      <use xlink:href="#DejaVuSans-69" x="827.279297"/>
      <use xlink:href="#DejaVuSans-65" x="855.0625"/>
      <use xlink:href="#DejaVuSans-73" x="916.585938"/>
     </g>
    </g>
   </g>
   <g id="matplotlib.axis_2">
    <g id="ytick_1">
     <g id="line2d_8">
      <defs>
       <path id="m4312feee92" d="M 0 0 
L -3.5 0 
" style="stroke: #000000; stroke-width: 0.8"/>
      </defs>
      <g>
       <use xlink:href="#m4312feee92" x="83.72" y="495.479756" style="stroke: #000000; stroke-width: 0.8"/>
      </g>
     </g>
     <g id="text_9">
      <!-- 0 -->
      <g transform="translate(62.7225 503.838037) scale(0.22 -0.22)">
       <use xlink:href="#DejaVuSans-30"/>
      </g>
     </g>
    </g>
    <g id="ytick_2">
     <g id="line2d_9">
      <g>
       <use xlink:href="#m4312feee92" x="83.72" y="427.61085" style="stroke: #000000; stroke-width: 0.8"/>
      </g>
     </g>
     <g id="text_10">
      <!-- 10 -->
      <g transform="translate(48.725 435.969132) scale(0.22 -0.22)">
       <use xlink:href="#DejaVuSans-31"/>
       <use xlink:href="#DejaVuSans-30" x="63.623047"/>
      </g>
     </g>
    </g>
    <g id="ytick_3">
     <g id="line2d_10">
      <g>
       <use xlink:href="#m4312feee92" x="83.72" y="359.741945" style="stroke: #000000; stroke-width: 0.8"/>
      </g>
     </g>
     <g id="text_11">
      <!-- 20 -->
      <g transform="translate(48.725 368.100226) scale(0.22 -0.22)">
       <use xlink:href="#DejaVuSans-32"/>
       <use xlink:href="#DejaVuSans-30" x="63.623047"/>
      </g>
     </g>
    </g>
    <g id="ytick_4">
     <g id="line2d_11">
      <g>
       <use xlink:href="#m4312feee92" x="83.72" y="291.873039" style="stroke: #000000; stroke-width: 0.8"/>
      </g>
     </g>
     <g id="text_12">
      <!-- 30 -->
      <g transform="translate(48.725 300.23132) scale(0.22 -0.22)">
       <use xlink:href="#DejaVuSans-33"/>
       <use xlink:href="#DejaVuSans-30" x="63.623047"/>
      </g>
     </g>
    </g>
    <g id="ytick_5">
     <g id="line2d_12">
      <g>
       <use xlink:href="#m4312feee92" x="83.72" y="224.004133" style="stroke: #000000; stroke-width: 0.8"/>
      </g>
     </g>
     <g id="text_13">
      <!-- 40 -->
      <g transform="translate(48.725 232.362414) scale(0.22 -0.22)">
       <use xlink:href="#DejaVuSans-34"/>
       <use xlink:href="#DejaVuSans-30" x="63.623047"/>
      </g>
     </g>
    </g>
    <g id="ytick_6">
     <g id="line2d_13">
      <g>
       <use xlink:href="#m4312feee92" x="83.72" y="156.135227" style="stroke: #000000; stroke-width: 0.8"/>
      </g>
     </g>
     <g id="text_14">
      <!-- 50 -->
      <g transform="translate(48.725 164.493508) scale(0.22 -0.22)">
       <use xlink:href="#DejaVuSans-35"/>
       <use xlink:href="#DejaVuSans-30" x="63.623047"/>
      </g>
     </g>
    </g>
    <g id="ytick_7">
     <g id="line2d_14">
      <g>
       <use xlink:href="#m4312feee92" x="83.72" y="88.266321" style="stroke: #000000; stroke-width: 0.8"/>
      </g>
     </g>
     <g id="text_15">
      <!-- 60 -->
      <g transform="translate(48.725 96.624603) scale(0.22 -0.22)">
       <use xlink:href="#DejaVuSans-36"/>
       <use xlink:href="#DejaVuSans-30" x="63.623047"/>
      </g>
     </g>
    </g>
    <g id="text_16">
     <!-- Force Errors [kJ/(mol*A)] -->
     <g transform="translate(40.149688 394.9125) rotate(-90) scale(0.22 -0.22)">
      <defs>
       <path id="DejaVuSans-45" d="M 628 4666 
L 3578 4666 
L 3578 4134 
L 1259 4134 
L 1259 2753 
L 3481 2753 
L 3481 2222 
L 1259 2222 
L 1259 531 
L 3634 531 
L 3634 0 
L 628 0 
L 628 4666 
z
" transform="scale(0.015625)"/>
       <path id="DejaVuSans-5b" d="M 550 4863 
L 1875 4863 
L 1875 4416 
L 1125 4416 
L 1125 -397 
L 1875 -397 
L 1875 -844 
L 550 -844 
L 550 4863 
z
" transform="scale(0.015625)"/>
       <path id="DejaVuSans-6b" d="M 581 4863 
L 1159 4863 
L 1159 1991 
L 2875 3500 
L 3609 3500 
L 1753 1863 
L 3688 0 
L 2938 0 
L 1159 1709 
L 1159 0 
L 581 0 
L 581 4863 
z
" transform="scale(0.015625)"/>
       <path id="DejaVuSans-4a" d="M 628 4666 
L 1259 4666 
L 1259 325 
Q 1259 -519 939 -900 
Q 619 -1281 -91 -1281 
L -331 -1281 
L -331 -750 
L -134 -750 
Q 284 -750 456 -515 
Q 628 -281 628 325 
L 628 4666 
z
" transform="scale(0.015625)"/>
       <path id="DejaVuSans-2f" d="M 1625 4666 
L 2156 4666 
L 531 -594 
L 0 -594 
L 1625 4666 
z
" transform="scale(0.015625)"/>
       <path id="DejaVuSans-28" d="M 1984 4856 
Q 1566 4138 1362 3434 
Q 1159 2731 1159 2009 
Q 1159 1288 1364 580 
Q 1569 -128 1984 -844 
L 1484 -844 
Q 1016 -109 783 600 
Q 550 1309 550 2009 
Q 550 2706 781 3412 
Q 1013 4119 1484 4856 
L 1984 4856 
z
" transform="scale(0.015625)"/>
       <path id="DejaVuSans-6d" d="M 3328 2828 
Q 3544 3216 3844 3400 
Q 4144 3584 4550 3584 
Q 5097 3584 5394 3201 
Q 5691 2819 5691 2113 
L 5691 0 
L 5113 0 
L 5113 2094 
Q 5113 2597 4934 2840 
Q 4756 3084 4391 3084 
Q 3944 3084 3684 2787 
Q 3425 2491 3425 1978 
L 3425 0 
L 2847 0 
L 2847 2094 
Q 2847 2600 2669 2842 
Q 2491 3084 2119 3084 
Q 1678 3084 1418 2786 
Q 1159 2488 1159 1978 
L 1159 0 
L 581 0 
L 581 3500 
L 1159 3500 
L 1159 2956 
Q 1356 3278 1631 3431 
Q 1906 3584 2284 3584 
Q 2666 3584 2933 3390 
Q 3200 3197 3328 2828 
z
" transform="scale(0.015625)"/>
       <path id="DejaVuSans-6c" d="M 603 4863 
L 1178 4863 
L 1178 0 
L 603 0 
L 603 4863 
z
" transform="scale(0.015625)"/>
       <path id="DejaVuSans-2a" d="M 3009 3897 
L 1888 3291 
L 3009 2681 
L 2828 2375 
L 1778 3009 
L 1778 1831 
L 1422 1831 
L 1422 3009 
L 372 2375 
L 191 2681 
L 1313 3291 
L 191 3897 
L 372 4206 
L 1422 3572 
L 1422 4750 
L 1778 4750 
L 1778 3572 
L 2828 4206 
L 3009 3897 
z
" transform="scale(0.015625)"/>
       <path id="DejaVuSans-41" d="M 2188 4044 
L 1331 1722 
L 3047 1722 
L 2188 4044 
z
M 1831 4666 
L 2547 4666 
L 4325 0 
L 3669 0 
L 3244 1197 
L 1141 1197 
L 716 0 
L 50 0 
L 1831 4666 
z
" transform="scale(0.015625)"/>
       <path id="DejaVuSans-29" d="M 513 4856 
L 1013 4856 
Q 1481 4119 1714 3412 
Q 1947 2706 1947 2009 
Q 1947 1309 1714 600 
Q 1481 -109 1013 -844 
L 513 -844 
Q 928 -128 1133 580 
Q 1338 1288 1338 2009 
Q 1338 2731 1133 3434 
Q 928 4138 513 4856 
z
" transform="scale(0.015625)"/>
       <path id="DejaVuSans-5d" d="M 1947 4863 
L 1947 -844 
L 622 -844 
L 622 -397 
L 1369 -397 
L 1369 4416 
L 622 4416 
L 622 4863 
L 1947 4863 
z
" transform="scale(0.015625)"/>
      </defs>
      <use xlink:href="#DejaVuSans-46"/>
      <use xlink:href="#DejaVuSans-6f" x="53.894531"/>
      <use xlink:href="#DejaVuSans-72" x="115.076172"/>
      <use xlink:href="#DejaVuSans-63" x="153.939453"/>
      <use xlink:href="#DejaVuSans-65" x="208.919922"/>
      <use xlink:href="#DejaVuSans-20" x="270.443359"/>
      <use xlink:href="#DejaVuSans-45" x="302.230469"/>
      <use xlink:href="#DejaVuSans-72" x="365.414062"/>
      <use xlink:href="#DejaVuSans-72" x="404.777344"/>
      <use xlink:href="#DejaVuSans-6f" x="443.640625"/>
      <use xlink:href="#DejaVuSans-72" x="504.822266"/>
      <use xlink:href="#DejaVuSans-73" x="545.935547"/>
      <use xlink:href="#DejaVuSans-20" x="598.035156"/>
      <use xlink:href="#DejaVuSans-5b" x="629.822266"/>
      <use xlink:href="#DejaVuSans-6b" x="668.835938"/>
      <use xlink:href="#DejaVuSans-4a" x="726.746094"/>
      <use xlink:href="#DejaVuSans-2f" x="756.238281"/>
      <use xlink:href="#DejaVuSans-28" x="789.929688"/>
      <use xlink:href="#DejaVuSans-6d" x="828.943359"/>
      <use xlink:href="#DejaVuSans-6f" x="926.355469"/>
      <use xlink:href="#DejaVuSans-6c" x="987.537109"/>
      <use xlink:href="#DejaVuSans-2a" x="1015.320312"/>
      <use xlink:href="#DejaVuSans-41" x="1065.320312"/>
      <use xlink:href="#DejaVuSans-29" x="1133.728516"/>
      <use xlink:href="#DejaVuSans-5d" x="1172.742188"/>
     </g>
    </g>
   </g>
   <g id="line2d_15">
    <path d="M 83.72 499.48 
L 696.24 23.76 
" clip-path="url(#p36f17fdd8c)" style="fill: none; stroke-dasharray: 5.55,2.4; stroke-dashoffset: 0; stroke: #ff0000; stroke-width: 1.5"/>
   </g>
   <g id="patch_3">
    <path d="M 83.72 499.48 
L 83.72 23.76 
" style="fill: none; stroke: #000000; stroke-width: 0.8; stroke-linejoin: miter; stroke-linecap: square"/>
   </g>
   <g id="patch_4">
    <path d="M 696.24 499.48 
L 696.24 23.76 
" style="fill: none; stroke: #000000; stroke-width: 0.8; stroke-linejoin: miter; stroke-linecap: square"/>
   </g>
   <g id="patch_5">
    <path d="M 83.72 499.48 
L 696.24 499.48 
" style="fill: none; stroke: #000000; stroke-width: 0.8; stroke-linejoin: miter; stroke-linecap: square"/>
   </g>
   <g id="patch_6">
    <path d="M 83.72 23.76 
L 696.24 23.76 
" style="fill: none; stroke: #000000; stroke-width: 0.8; stroke-linejoin: miter; stroke-linecap: square"/>
   </g>
   <g id="text_17">
    <!-- Correlation in: 0.531 -->
    <g transform="translate(144.972 71.332) scale(0.22 -0.22)">
     <defs>
      <path id="DejaVuSans-43" d="M 4122 4306 
L 4122 3641 
Q 3803 3938 3442 4084 
Q 3081 4231 2675 4231 
Q 1875 4231 1450 3742 
Q 1025 3253 1025 2328 
Q 1025 1406 1450 917 
Q 1875 428 2675 428 
Q 3081 428 3442 575 
Q 3803 722 4122 1019 
L 4122 359 
Q 3791 134 3420 21 
Q 3050 -91 2638 -91 
Q 1578 -91 968 557 
Q 359 1206 359 2328 
Q 359 3453 968 4101 
Q 1578 4750 2638 4750 
Q 3056 4750 3426 4639 
Q 3797 4528 4122 4306 
z
" transform="scale(0.015625)"/>
      <path id="DejaVuSans-3a" d="M 750 794 
L 1409 794 
L 1409 0 
L 750 0 
L 750 794 
z
M 750 3309 
L 1409 3309 
L 1409 2516 
L 750 2516 
L 750 3309 
z
" transform="scale(0.015625)"/>
      <path id="DejaVuSans-2e" d="M 684 794 
L 1344 794 
L 1344 0 
L 684 0 
L 684 794 
z
" transform="scale(0.015625)"/>
     </defs>
     <use xlink:href="#DejaVuSans-43"/>
     <use xlink:href="#DejaVuSans-6f" x="69.824219"/>
     <use xlink:href="#DejaVuSans-72" x="131.005859"/>
     <use xlink:href="#DejaVuSans-72" x="170.369141"/>
     <use xlink:href="#DejaVuSans-65" x="209.232422"/>
     <use xlink:href="#DejaVuSans-6c" x="270.755859"/>
     <use xlink:href="#DejaVuSans-61" x="298.539062"/>
     <use xlink:href="#DejaVuSans-74" x="359.818359"/>
     <use xlink:href="#DejaVuSans-69" x="399.027344"/>
     <use xlink:href="#DejaVuSans-6f" x="426.810547"/>
     <use xlink:href="#DejaVuSans-6e" x="487.992188"/>
     <use xlink:href="#DejaVuSans-20" x="551.371094"/>
     <use xlink:href="#DejaVuSans-69" x="583.158203"/>
     <use xlink:href="#DejaVuSans-6e" x="610.941406"/>
     <use xlink:href="#DejaVuSans-3a" x="674.320312"/>
     <use xlink:href="#DejaVuSans-20" x="708.011719"/>
     <use xlink:href="#DejaVuSans-30" x="739.798828"/>
     <use xlink:href="#DejaVuSans-2e" x="803.421875"/>
     <use xlink:href="#DejaVuSans-35" x="835.208984"/>
     <use xlink:href="#DejaVuSans-33" x="898.832031"/>
     <use xlink:href="#DejaVuSans-31" x="962.455078"/>
    </g>
   </g>
  </g>
 </g>
 <defs>
  <clipPath id="p36f17fdd8c">
   <rect x="83.72" y="23.76" width="612.52" height="475.72"/>
  </clipPath>
 </defs>
</svg>
