<?xml version="1.0" encoding="utf-8" standalone="no"?>
<!DOCTYPE svg PUBLIC "-//W3C//DTD SVG 1.1//EN"
  "http://www.w3.org/Graphics/SVG/1.1/DTD/svg11.dtd">
<svg xmlns:xlink="http://www.w3.org/1999/xlink" width="720pt" height="576pt" viewBox="0 0 720 576" xmlns="http://www.w3.org/2000/svg" version="1.1">
 <metadata>
  <rdf:RDF xmlns:dc="http://purl.org/dc/elements/1.1/" xmlns:cc="http://creativecommons.org/ns#" xmlns:rdf="http://www.w3.org/1999/02/22-rdf-syntax-ns#">
   <cc:Work>
    <dc:type rdf:resource="http://purl.org/dc/dcmitype/StillImage"/>
    <dc:date>2024-12-08T05:35:27.054976</dc:date>
    <dc:format>image/svg+xml</dc:format>
    <dc:creator>
     <cc:Agent>
      <dc:title>Matplotlib v3.8.4, https://matplotlib.org/</dc:title>
     </cc:Agent>
    </dc:creator>
   </cc:Work>
  </rdf:RDF>
 </metadata>
 <defs>
  <style type="text/css">*{stroke-linejoin: round; stroke-linecap: butt}</style>
 </defs>
 <g id="figure_1">
  <g id="patch_1">
   <path d="M 0 576 
L 720 576 
L 720 0 
L 0 0 
z
" style="fill: #ffffff"/>
  </g>
  <g id="axes_1">
   <g id="patch_2">
    <path d="M 83.72 499.48 
L 696.24 499.48 
L 696.24 23.76 
L 83.72 23.76 
z
" style="fill: #ffffff"/>
   </g>
   <g id="QuadContourSet_1">
    <path d="M 85.949551 491.393273 
L 89.066562 492.585592 
L 92.183574 493.096379 
L 95.300585 493.311039 
L 98.417597 493.408141 
L 101.534608 493.446275 
L 104.651619 493.424566 
L 107.768631 493.335103 
L 110.885642 493.178932 
L 114.002654 492.954419 
L 117.119665 492.65315 
L 120.236676 492.271218 
L 123.353688 491.832599 
L 126.470699 491.41784 
L 129.58771 491.143787 
L 130.080954 491.122054 
L 132.704722 491.062522 
L 135.821733 490.95496 
L 138.938745 490.730405 
L 142.055756 490.37028 
L 145.172767 489.859687 
L 148.289779 489.166941 
L 150.156491 488.64412 
L 151.40679 488.41876 
L 154.523802 487.692609 
L 157.640813 486.574234 
L 158.526719 486.166187 
L 160.757824 485.344247 
L 163.874836 483.704712 
L 163.903472 483.688254 
L 166.991847 481.956402 
L 168.131305 481.21032 
L 170.108858 479.625758 
L 171.243041 478.732387 
L 173.22587 476.254453 
L 173.22587 476.254453 
L 174.080977 473.77652 
L 173.22587 472.247037 
L 172.529272 471.298586 
L 170.108858 470.021717 
L 167.075147 468.820653 
L 166.991847 468.789469 
L 163.874836 467.633453 
L 160.757824 466.808194 
L 158.329698 466.34272 
L 157.640813 466.1477 
L 154.523802 465.376617 
L 151.40679 464.728065 
L 148.289779 464.224564 
L 145.172767 463.931101 
L 143.695674 463.864786 
L 142.055756 463.748889 
L 138.938745 463.623799 
L 135.821733 463.539645 
L 132.704722 463.476972 
L 129.58771 463.378612 
L 126.470699 463.205275 
L 123.353688 463.038081 
L 120.236676 463.025824 
L 117.119665 463.303566 
L 114.552978 463.864786 
L 114.002654 463.927639 
L 110.885642 464.495117 
L 107.768631 465.390623 
L 105.371439 466.34272 
L 104.651619 466.521638 
L 101.534608 467.423892 
L 98.518263 468.820653 
L 98.417597 468.854169 
L 95.300585 470.108019 
L 93.368478 471.298586 
L 92.183574 471.938365 
L 89.614024 473.77652 
L 89.066562 474.189545 
L 86.602244 476.254453 
L 85.949551 476.964623 
L 84.191933 478.732387 
L 82.83254 480.974342 
L 82.645768 481.21032 
L 81.451455 483.688254 
L 81.295758 486.166187 
L 82.459419 488.64412 
L 82.83254 489.016638 
L 85.450447 491.122054 
z
M 90.74466 488.64412 
L 89.066562 487.315365 
L 87.996163 486.166187 
L 87.383907 483.688254 
L 88.077794 481.21032 
L 89.066562 479.876717 
L 89.793148 478.732387 
L 92.183574 476.534547 
L 92.496802 476.254453 
L 95.300585 474.292835 
L 96.200787 473.77652 
L 98.417597 472.520542 
L 101.475131 471.298586 
L 101.534608 471.26999 
L 104.651619 469.902228 
L 107.768631 468.993231 
L 108.509119 468.820653 
L 110.885642 468.00116 
L 114.002654 467.300696 
L 117.119665 466.916632 
L 120.236676 466.77122 
L 123.353688 466.793937 
L 126.470699 466.888586 
L 129.58771 466.98401 
L 132.704722 467.080735 
L 135.821733 467.215125 
L 138.938745 467.433308 
L 142.055756 467.820927 
L 145.172767 468.489583 
L 146.406231 468.820653 
L 148.289779 469.276278 
L 151.40679 469.91361 
L 154.523802 470.49433 
L 157.640813 471.298586 
L 157.640813 471.298586 
L 160.757824 472.783432 
L 162.228062 473.77652 
L 163.428136 476.254453 
L 162.372141 478.732387 
L 160.757824 480.049446 
L 159.314536 481.21032 
L 157.640813 482.110604 
L 154.523802 483.505497 
L 154.065834 483.688254 
L 151.40679 484.670555 
L 148.289779 485.55741 
L 145.534292 486.166187 
L 145.172767 486.263793 
L 142.055756 486.913456 
L 138.938745 487.279711 
L 135.821733 487.461573 
L 132.704722 487.62894 
L 129.58771 487.908568 
L 126.470699 488.276982 
L 123.494792 488.64412 
L 123.353688 488.670629 
L 120.236676 489.281925 
L 117.119665 489.769422 
L 114.002654 490.132489 
L 110.885642 490.383443 
L 107.768631 490.530833 
L 104.651619 490.580583 
L 101.534608 490.54346 
L 98.417597 490.410717 
L 95.300585 490.087278 
L 92.183574 489.304425 
z
" clip-path="url(#pb24646d29a)" style="fill: #edf4fc"/>
    <path d="M 92.183574 489.304425 
L 95.300585 490.087278 
L 98.417597 490.410717 
L 101.534608 490.54346 
L 104.651619 490.580583 
L 107.768631 490.530833 
L 110.885642 490.383443 
L 114.002654 490.132489 
L 117.119665 489.769422 
L 120.236676 489.281925 
L 123.353688 488.670629 
L 123.494792 488.64412 
L 126.470699 488.276982 
L 129.58771 487.908568 
L 132.704722 487.62894 
L 135.821733 487.461573 
L 138.938745 487.279711 
L 142.055756 486.913456 
L 145.172767 486.263793 
L 145.534292 486.166187 
L 148.289779 485.55741 
L 151.40679 484.670555 
L 154.065834 483.688254 
L 154.523802 483.505497 
L 157.640813 482.110604 
L 159.314536 481.21032 
L 160.757824 480.049446 
L 162.372141 478.732387 
L 163.428136 476.254453 
L 162.228062 473.77652 
L 160.757824 472.783432 
L 157.640813 471.298586 
L 157.640813 471.298586 
L 154.523802 470.49433 
L 151.40679 469.91361 
L 148.289779 469.276278 
L 146.406231 468.820653 
L 145.172767 468.489583 
L 142.055756 467.820927 
L 138.938745 467.433308 
L 135.821733 467.215125 
L 132.704722 467.080735 
L 129.58771 466.98401 
L 126.470699 466.888586 
L 123.353688 466.793937 
L 120.236676 466.77122 
L 117.119665 466.916632 
L 114.002654 467.300696 
L 110.885642 468.00116 
L 108.509119 468.820653 
L 107.768631 468.993231 
L 104.651619 469.902228 
L 101.534608 471.26999 
L 101.475131 471.298586 
L 98.417597 472.520542 
L 96.200787 473.77652 
L 95.300585 474.292835 
L 92.496802 476.254453 
L 92.183574 476.534547 
L 89.793148 478.732387 
L 89.066562 479.876717 
L 88.077794 481.21032 
L 87.383907 483.688254 
L 87.996163 486.166187 
L 89.066562 487.315365 
L 90.74466 488.64412 
z
M 99.455068 488.64412 
L 98.417597 488.567938 
L 95.300585 487.963531 
L 92.183574 486.295906 
L 92.020018 486.166187 
L 90.795565 483.688254 
L 91.282252 481.21032 
L 92.183574 479.975027 
L 92.984539 478.732387 
L 95.300585 476.729221 
L 95.87825 476.254453 
L 98.417597 474.629931 
L 100.066539 473.77652 
L 101.534608 473.019715 
L 104.651619 471.743276 
L 106.042934 471.298586 
L 107.768631 470.613022 
L 110.885642 469.705607 
L 114.002654 469.135517 
L 117.119665 468.820653 
L 117.119665 468.820653 
L 120.236676 468.673328 
L 123.353688 468.750844 
L 124.788703 468.820653 
L 126.470699 468.878524 
L 129.58771 468.994854 
L 132.704722 469.145129 
L 135.821733 469.383808 
L 138.938745 469.803833 
L 142.055756 470.531305 
L 144.487244 471.298586 
L 145.172767 471.545859 
L 148.289779 472.385868 
L 151.40679 472.99954 
L 154.363277 473.77652 
L 154.523802 473.852513 
L 157.130086 476.254453 
L 156.419251 478.732387 
L 154.523802 480.211618 
L 153.175689 481.21032 
L 151.40679 482.033066 
L 148.289779 483.222241 
L 146.76328 483.688254 
L 145.172767 484.131661 
L 142.055756 484.685682 
L 138.938745 484.981392 
L 135.821733 485.197271 
L 132.704722 485.5186 
L 129.58771 485.959833 
L 128.388863 486.166187 
L 126.470699 486.561091 
L 123.353688 487.202421 
L 120.236676 487.738645 
L 117.119665 488.161781 
L 114.002654 488.480766 
L 111.690074 488.64412 
L 110.885642 488.730386 
L 107.768631 488.902687 
L 104.651619 488.92789 
L 101.534608 488.826871 
z
" clip-path="url(#pb24646d29a)" style="fill: #d8e7f5"/>
    <path d="M 101.534608 488.826871 
L 104.651619 488.92789 
L 107.768631 488.902687 
L 110.885642 488.730386 
L 111.690074 488.64412 
L 114.002654 488.480766 
L 117.119665 488.161781 
L 120.236676 487.738645 
L 123.353688 487.202421 
L 126.470699 486.561091 
L 128.388863 486.166187 
L 129.58771 485.959833 
L 132.704722 485.5186 
L 135.821733 485.197271 
L 138.938745 484.981392 
L 142.055756 484.685682 
L 145.172767 484.131661 
L 146.76328 483.688254 
L 148.289779 483.222241 
L 151.40679 482.033066 
L 153.175689 481.21032 
L 154.523802 480.211618 
L 156.419251 478.732387 
L 157.130086 476.254453 
L 154.523802 473.852513 
L 154.363277 473.77652 
L 151.40679 472.99954 
L 148.289779 472.385868 
L 145.172767 471.545859 
L 144.487244 471.298586 
L 142.055756 470.531305 
L 138.938745 469.803833 
L 135.821733 469.383808 
L 132.704722 469.145129 
L 129.58771 468.994854 
L 126.470699 468.878524 
L 124.788703 468.820653 
L 123.353688 468.750844 
L 120.236676 468.673328 
L 117.119665 468.820653 
L 117.119665 468.820653 
L 114.002654 469.135517 
L 110.885642 469.705607 
L 107.768631 470.613022 
L 106.042934 471.298586 
L 104.651619 471.743276 
L 101.534608 473.019715 
L 100.066539 473.77652 
L 98.417597 474.629931 
L 95.87825 476.254453 
L 95.300585 476.729221 
L 92.984539 478.732387 
L 92.183574 479.975027 
L 91.282252 481.21032 
L 90.795565 483.688254 
L 92.020018 486.166187 
L 92.183574 486.295906 
L 95.300585 487.963531 
L 98.417597 488.567938 
L 99.455068 488.64412 
z
M 95.497957 486.166187 
L 95.300585 486.021553 
L 93.419073 483.688254 
L 93.676461 481.21032 
L 95.300585 478.96832 
L 95.455168 478.732387 
L 98.417597 476.318265 
L 98.501775 476.254453 
L 101.534608 474.466533 
L 103.014491 473.77652 
L 104.651619 473.006671 
L 107.768631 471.878166 
L 110.005016 471.298586 
L 110.885642 471.009338 
L 114.002654 470.327651 
L 117.119665 470.006112 
L 120.236676 469.953138 
L 123.353688 470.058549 
L 126.470699 470.220309 
L 129.58771 470.414713 
L 132.704722 470.686931 
L 135.821733 471.121671 
L 136.67412 471.298586 
L 138.938745 471.916796 
L 142.055756 473.16105 
L 143.666931 473.77652 
L 145.172767 474.518887 
L 148.289779 475.39168 
L 150.948704 476.254453 
L 151.40679 478.732387 
L 148.289779 480.782086 
L 147.509436 481.21032 
L 145.172767 481.897219 
L 142.055756 482.453479 
L 138.938745 482.825674 
L 135.821733 483.259995 
L 133.65169 483.688254 
L 132.704722 483.850108 
L 129.58771 484.569031 
L 126.470699 485.269422 
L 123.353688 485.892202 
L 121.827172 486.166187 
L 120.236676 486.507544 
L 117.119665 487.046199 
L 114.002654 487.425153 
L 110.885642 487.661031 
L 107.768631 487.766317 
L 104.651619 487.753677 
L 101.534608 487.603842 
L 98.417597 487.177405 
z
" clip-path="url(#pb24646d29a)" style="fill: #c3daee"/>
    <path d="M 98.417597 487.177405 
L 101.534608 487.603842 
L 104.651619 487.753677 
L 107.768631 487.766317 
L 110.885642 487.661031 
L 114.002654 487.425153 
L 117.119665 487.046199 
L 120.236676 486.507544 
L 121.827172 486.166187 
L 123.353688 485.892202 
L 126.470699 485.269422 
L 129.58771 484.569031 
L 132.704722 483.850108 
L 133.65169 483.688254 
L 135.821733 483.259995 
L 138.938745 482.825674 
L 142.055756 482.453479 
L 145.172767 481.897219 
L 147.509436 481.21032 
L 148.289779 480.782086 
L 151.40679 478.732387 
L 150.948704 476.254453 
L 148.289779 475.39168 
L 145.172767 474.518887 
L 143.666931 473.77652 
L 142.055756 473.16105 
L 138.938745 471.916796 
L 136.67412 471.298586 
L 135.821733 471.121671 
L 132.704722 470.686931 
L 129.58771 470.414713 
L 126.470699 470.220309 
L 123.353688 470.058549 
L 120.236676 469.953138 
L 117.119665 470.006112 
L 114.002654 470.327651 
L 110.885642 471.009338 
L 110.005016 471.298586 
L 107.768631 471.878166 
L 104.651619 473.006671 
L 103.014491 473.77652 
L 101.534608 474.466533 
L 98.501775 476.254453 
L 98.417597 476.318265 
L 95.455168 478.732387 
L 95.300585 478.96832 
L 93.676461 481.21032 
L 93.419073 483.688254 
L 95.300585 486.021553 
L 95.497957 486.166187 
z
M 99.122858 486.166187 
L 98.417597 485.969072 
L 95.410076 483.688254 
L 95.480615 481.21032 
L 97.117602 478.732387 
L 98.417597 477.673004 
L 100.288908 476.254453 
L 101.534608 475.520086 
L 104.651619 474.010433 
L 105.235834 473.77652 
L 107.768631 472.743306 
L 110.885642 471.874778 
L 114.002654 471.3233 
L 114.302993 471.298586 
L 117.119665 471.003115 
L 120.236676 470.988291 
L 123.353688 471.139427 
L 125.747513 471.298586 
L 126.470699 471.342706 
L 129.58771 471.583751 
L 132.704722 471.970866 
L 135.821733 472.659359 
L 138.804071 473.77652 
L 138.938745 473.890876 
L 142.055756 476.254453 
L 142.055756 476.254453 
L 143.987489 478.732387 
L 142.055756 479.448332 
L 138.938745 480.661319 
L 137.711451 481.21032 
L 135.821733 481.639746 
L 132.704722 482.534788 
L 129.58771 483.419295 
L 128.677406 483.688254 
L 126.470699 484.280439 
L 123.353688 485.026333 
L 120.236676 485.634974 
L 117.119665 486.119117 
L 116.716798 486.166187 
L 114.002654 486.537353 
L 110.885642 486.787188 
L 107.768631 486.883433 
L 104.651619 486.843607 
L 101.534608 486.621009 
z
" clip-path="url(#pb24646d29a)" style="fill: #a5cde3"/>
    <path d="M 101.534608 486.621009 
L 104.651619 486.843607 
L 107.768631 486.883433 
L 110.885642 486.787188 
L 114.002654 486.537353 
L 116.716798 486.166187 
L 117.119665 486.119117 
L 120.236676 485.634974 
L 123.353688 485.026333 
L 126.470699 484.280439 
L 128.677406 483.688254 
L 129.58771 483.419295 
L 132.704722 482.534788 
L 135.821733 481.639746 
L 137.711451 481.21032 
L 138.938745 480.661319 
L 142.055756 479.448332 
L 143.987489 478.732387 
L 142.055756 476.254453 
L 142.055756 476.254453 
L 138.938745 473.890876 
L 138.804071 473.77652 
L 135.821733 472.659359 
L 132.704722 471.970866 
L 129.58771 471.583751 
L 126.470699 471.342706 
L 125.747513 471.298586 
L 123.353688 471.139427 
L 120.236676 470.988291 
L 117.119665 471.003115 
L 114.302993 471.298586 
L 114.002654 471.3233 
L 110.885642 471.874778 
L 107.768631 472.743306 
L 105.235834 473.77652 
L 104.651619 474.010433 
L 101.534608 475.520086 
L 100.288908 476.254453 
L 98.417597 477.673004 
L 97.117602 478.732387 
L 95.480615 481.21032 
L 95.410076 483.688254 
L 98.417597 485.969072 
L 99.122858 486.166187 
z
M 98.135425 483.688254 
L 97.675541 481.21032 
L 98.417597 480.14582 
L 99.334828 478.732387 
L 101.534608 477.049662 
L 102.691113 476.254453 
L 104.651619 475.215307 
L 107.768631 473.949836 
L 108.335393 473.77652 
L 110.885642 472.985318 
L 114.002654 472.433003 
L 117.119665 472.226399 
L 120.236676 472.281953 
L 123.353688 472.478023 
L 126.470699 472.749993 
L 129.58771 473.141071 
L 132.704722 473.77652 
L 132.704722 473.77652 
L 135.821733 475.791253 
L 136.373451 476.254453 
L 135.821733 478.116741 
L 135.661458 478.732387 
L 132.704722 480.486913 
L 131.464146 481.21032 
L 129.58771 481.874262 
L 126.470699 482.899067 
L 123.769977 483.688254 
L 123.353688 483.797716 
L 120.236676 484.510481 
L 117.119665 485.042824 
L 114.002654 485.41293 
L 110.885642 485.6268 
L 107.768631 485.691959 
L 104.651619 485.597242 
L 101.534608 485.190814 
L 98.417597 483.902244 
z
" clip-path="url(#pb24646d29a)" style="fill: #7db8da"/>
    <path d="M 98.417597 483.902244 
L 101.534608 485.190814 
L 104.651619 485.597242 
L 107.768631 485.691959 
L 110.885642 485.6268 
L 114.002654 485.41293 
L 117.119665 485.042824 
L 120.236676 484.510481 
L 123.353688 483.797716 
L 123.769977 483.688254 
L 126.470699 482.899067 
L 129.58771 481.874262 
L 131.464146 481.21032 
L 132.704722 480.486913 
L 135.661458 478.732387 
L 135.821733 478.116741 
L 136.373451 476.254453 
L 135.821733 475.791253 
L 132.704722 473.77652 
L 132.704722 473.77652 
L 129.58771 473.141071 
L 126.470699 472.749993 
L 123.353688 472.478023 
L 120.236676 472.281953 
L 117.119665 472.226399 
L 114.002654 472.433003 
L 110.885642 472.985318 
L 108.335393 473.77652 
L 107.768631 473.949836 
L 104.651619 475.215307 
L 102.691113 476.254453 
L 101.534608 477.049662 
L 99.334828 478.732387 
L 98.417597 480.14582 
L 97.675541 481.21032 
L 98.135425 483.688254 
z
M 101.749989 483.688254 
L 101.534608 483.556161 
L 100.036283 481.21032 
L 101.534608 478.732387 
L 101.534608 478.732387 
L 104.651619 476.570996 
L 105.188604 476.254453 
L 107.768631 475.128292 
L 110.885642 474.185826 
L 113.163608 473.77652 
L 114.002654 473.627686 
L 117.119665 473.488962 
L 120.236676 473.624178 
L 122.03261 473.77652 
L 123.353688 473.921015 
L 126.470699 474.416506 
L 129.58771 475.297903 
L 131.524766 476.254453 
L 131.228545 478.732387 
L 129.58771 479.722878 
L 127.089655 481.21032 
L 126.470699 481.429151 
L 123.353688 482.423345 
L 120.236676 483.250959 
L 118.195239 483.688254 
L 117.119665 483.884108 
L 114.002654 484.263248 
L 110.885642 484.463471 
L 107.768631 484.497614 
L 104.651619 484.308853 
z
" clip-path="url(#pb24646d29a)" style="fill: #529dcc"/>
    <path d="M 104.651619 484.308853 
L 107.768631 484.497614 
L 110.885642 484.463471 
L 114.002654 484.263248 
L 117.119665 483.884108 
L 118.195239 483.688254 
L 120.236676 483.250959 
L 123.353688 482.423345 
L 126.470699 481.429151 
L 127.089655 481.21032 
L 129.58771 479.722878 
L 131.228545 478.732387 
L 131.524766 476.254453 
L 129.58771 475.297903 
L 126.470699 474.416506 
L 123.353688 473.921015 
L 122.03261 473.77652 
L 120.236676 473.624178 
L 117.119665 473.488962 
L 114.002654 473.627686 
L 113.163608 473.77652 
L 110.885642 474.185826 
L 107.768631 475.128292 
L 105.188604 476.254453 
L 104.651619 476.570996 
L 101.534608 478.732387 
L 101.534608 478.732387 
L 100.036283 481.21032 
L 101.534608 483.556161 
L 101.749989 483.688254 
z
M 102.282871 481.21032 
L 103.55347 478.732387 
L 104.651619 477.97091 
L 107.563429 476.254453 
L 107.768631 476.164884 
L 110.885642 475.25029 
L 114.002654 474.786075 
L 117.119665 474.739412 
L 120.236676 474.994993 
L 123.353688 475.443366 
L 126.470699 476.162338 
L 126.7408 476.254453 
L 127.567309 478.732387 
L 126.470699 479.38316 
L 123.353688 481.21032 
L 123.353688 481.21032 
L 120.236676 482.051969 
L 117.119665 482.698036 
L 114.002654 483.142965 
L 110.885642 483.371255 
L 107.768631 483.358894 
L 104.651619 482.847222 
z
" clip-path="url(#pb24646d29a)" style="fill: #2f7fbc"/>
    <path d="M 104.651619 482.847222 
L 107.768631 483.358894 
L 110.885642 483.371255 
L 114.002654 483.142965 
L 117.119665 482.698036 
L 120.236676 482.051969 
L 123.353688 481.21032 
L 123.353688 481.21032 
L 126.470699 479.38316 
L 127.567309 478.732387 
L 126.7408 476.254453 
L 126.470699 476.162338 
L 123.353688 475.443366 
L 120.236676 474.994993 
L 117.119665 474.739412 
L 114.002654 474.786075 
L 110.885642 475.25029 
L 107.768631 476.164884 
L 107.563429 476.254453 
L 104.651619 477.97091 
L 103.55347 478.732387 
L 102.282871 481.21032 
z
M 106.334205 481.21032 
L 106.535497 478.732387 
L 107.768631 478.03855 
L 110.885642 476.80688 
L 113.647442 476.254453 
L 114.002654 476.213556 
L 115.31709 476.254453 
L 117.119665 476.403594 
L 120.236676 477.415055 
L 122.241747 478.732387 
L 120.236676 479.748597 
L 117.119665 481.21032 
L 117.119665 481.21032 
L 114.002654 481.608912 
L 110.885642 481.784186 
L 107.768631 481.617822 
z
" clip-path="url(#pb24646d29a)" style="fill: #125ea6"/>
    <path d="M 107.768631 481.617822 
L 110.885642 481.784186 
L 114.002654 481.608912 
L 117.119665 481.21032 
L 117.119665 481.21032 
L 120.236676 479.748597 
L 122.241747 478.732387 
L 120.236676 477.415055 
L 117.119665 476.403594 
L 115.31709 476.254453 
L 114.002654 476.213556 
L 113.647442 476.254453 
L 110.885642 476.80688 
L 107.768631 478.03855 
L 106.535497 478.732387 
L 106.334205 481.21032 
z
" clip-path="url(#pb24646d29a)" style="fill: #083e81"/>
   </g>
   <g id="matplotlib.axis_1">
    <g id="xtick_1">
     <g id="line2d_1">
      <defs>
       <path id="m7d9ad3f9ce" d="M 0 0 
L 0 3.5 
" style="stroke: #000000; stroke-width: 0.8"/>
      </defs>
      <g>
       <use xlink:href="#m7d9ad3f9ce" x="91.804227" y="499.48" style="stroke: #000000; stroke-width: 0.8"/>
      </g>
     </g>
     <g id="text_1">
      <!-- 0 -->
      <g transform="translate(84.805477 523.196563) scale(0.22 -0.22)">
       <defs>
        <path id="DejaVuSans-30" d="M 2034 4250 
Q 1547 4250 1301 3770 
Q 1056 3291 1056 2328 
Q 1056 1369 1301 889 
Q 1547 409 2034 409 
Q 2525 409 2770 889 
Q 3016 1369 3016 2328 
Q 3016 3291 2770 3770 
Q 2525 4250 2034 4250 
z
M 2034 4750 
Q 2819 4750 3233 4129 
Q 3647 3509 3647 2328 
Q 3647 1150 3233 529 
Q 2819 -91 2034 -91 
Q 1250 -91 836 529 
Q 422 1150 422 2328 
Q 422 3509 836 4129 
Q 1250 4750 2034 4750 
z
" transform="scale(0.015625)"/>
       </defs>
       <use xlink:href="#DejaVuSans-30"/>
      </g>
     </g>
    </g>
    <g id="xtick_2">
     <g id="line2d_2">
      <g>
       <use xlink:href="#m7d9ad3f9ce" x="188.361318" y="499.48" style="stroke: #000000; stroke-width: 0.8"/>
      </g>
     </g>
     <g id="text_2">
      <!-- 10 -->
      <g transform="translate(174.363818 523.196563) scale(0.22 -0.22)">
       <defs>
        <path id="DejaVuSans-31" d="M 794 531 
L 1825 531 
L 1825 4091 
L 703 3866 
L 703 4441 
L 1819 4666 
L 2450 4666 
L 2450 531 
L 3481 531 
L 3481 0 
L 794 0 
L 794 531 
z
" transform="scale(0.015625)"/>
       </defs>
       <use xlink:href="#DejaVuSans-31"/>
       <use xlink:href="#DejaVuSans-30" x="63.623047"/>
      </g>
     </g>
    </g>
    <g id="xtick_3">
     <g id="line2d_3">
      <g>
       <use xlink:href="#m7d9ad3f9ce" x="284.91841" y="499.48" style="stroke: #000000; stroke-width: 0.8"/>
      </g>
     </g>
     <g id="text_3">
      <!-- 20 -->
      <g transform="translate(270.92091 523.196563) scale(0.22 -0.22)">
       <defs>
        <path id="DejaVuSans-32" d="M 1228 531 
L 3431 531 
L 3431 0 
L 469 0 
L 469 531 
Q 828 903 1448 1529 
Q 2069 2156 2228 2338 
Q 2531 2678 2651 2914 
Q 2772 3150 2772 3378 
Q 2772 3750 2511 3984 
Q 2250 4219 1831 4219 
Q 1534 4219 1204 4116 
Q 875 4013 500 3803 
L 500 4441 
Q 881 4594 1212 4672 
Q 1544 4750 1819 4750 
Q 2544 4750 2975 4387 
Q 3406 4025 3406 3419 
Q 3406 3131 3298 2873 
Q 3191 2616 2906 2266 
Q 2828 2175 2409 1742 
Q 1991 1309 1228 531 
z
" transform="scale(0.015625)"/>
       </defs>
       <use xlink:href="#DejaVuSans-32"/>
       <use xlink:href="#DejaVuSans-30" x="63.623047"/>
      </g>
     </g>
    </g>
    <g id="xtick_4">
     <g id="line2d_4">
      <g>
       <use xlink:href="#m7d9ad3f9ce" x="381.475501" y="499.48" style="stroke: #000000; stroke-width: 0.8"/>
      </g>
     </g>
     <g id="text_4">
      <!-- 30 -->
      <g transform="translate(367.478001 523.196563) scale(0.22 -0.22)">
       <defs>
        <path id="DejaVuSans-33" d="M 2597 2516 
Q 3050 2419 3304 2112 
Q 3559 1806 3559 1356 
Q 3559 666 3084 287 
Q 2609 -91 1734 -91 
Q 1441 -91 1130 -33 
Q 819 25 488 141 
L 488 750 
Q 750 597 1062 519 
Q 1375 441 1716 441 
Q 2309 441 2620 675 
Q 2931 909 2931 1356 
Q 2931 1769 2642 2001 
Q 2353 2234 1838 2234 
L 1294 2234 
L 1294 2753 
L 1863 2753 
Q 2328 2753 2575 2939 
Q 2822 3125 2822 3475 
Q 2822 3834 2567 4026 
Q 2313 4219 1838 4219 
Q 1578 4219 1281 4162 
Q 984 4106 628 3988 
L 628 4550 
Q 988 4650 1302 4700 
Q 1616 4750 1894 4750 
Q 2613 4750 3031 4423 
Q 3450 4097 3450 3541 
Q 3450 3153 3228 2886 
Q 3006 2619 2597 2516 
z
" transform="scale(0.015625)"/>
       </defs>
       <use xlink:href="#DejaVuSans-33"/>
       <use xlink:href="#DejaVuSans-30" x="63.623047"/>
      </g>
     </g>
    </g>
    <g id="xtick_5">
     <g id="line2d_5">
      <g>
       <use xlink:href="#m7d9ad3f9ce" x="478.032592" y="499.48" style="stroke: #000000; stroke-width: 0.8"/>
      </g>
     </g>
     <g id="text_5">
      <!-- 40 -->
      <g transform="translate(464.035092 523.196563) scale(0.22 -0.22)">
       <defs>
        <path id="DejaVuSans-34" d="M 2419 4116 
L 825 1625 
L 2419 1625 
L 2419 4116 
z
M 2253 4666 
L 3047 4666 
L 3047 1625 
L 3713 1625 
L 3713 1100 
L 3047 1100 
L 3047 0 
L 2419 0 
L 2419 1100 
L 313 1100 
L 313 1709 
L 2253 4666 
z
" transform="scale(0.015625)"/>
       </defs>
       <use xlink:href="#DejaVuSans-34"/>
       <use xlink:href="#DejaVuSans-30" x="63.623047"/>
      </g>
     </g>
    </g>
    <g id="xtick_6">
     <g id="line2d_6">
      <g>
       <use xlink:href="#m7d9ad3f9ce" x="574.589683" y="499.48" style="stroke: #000000; stroke-width: 0.8"/>
      </g>
     </g>
     <g id="text_6">
      <!-- 50 -->
      <g transform="translate(560.592183 523.196563) scale(0.22 -0.22)">
       <defs>
        <path id="DejaVuSans-35" d="M 691 4666 
L 3169 4666 
L 3169 4134 
L 1269 4134 
L 1269 2991 
Q 1406 3038 1543 3061 
Q 1681 3084 1819 3084 
Q 2600 3084 3056 2656 
Q 3513 2228 3513 1497 
Q 3513 744 3044 326 
Q 2575 -91 1722 -91 
Q 1428 -91 1123 -41 
Q 819 9 494 109 
L 494 744 
Q 775 591 1075 516 
Q 1375 441 1709 441 
Q 2250 441 2565 725 
Q 2881 1009 2881 1497 
Q 2881 1984 2565 2268 
Q 2250 2553 1709 2553 
Q 1456 2553 1204 2497 
Q 953 2441 691 2322 
L 691 4666 
z
" transform="scale(0.015625)"/>
       </defs>
       <use xlink:href="#DejaVuSans-35"/>
       <use xlink:href="#DejaVuSans-30" x="63.623047"/>
      </g>
     </g>
    </g>
    <g id="xtick_7">
     <g id="line2d_7">
      <g>
       <use xlink:href="#m7d9ad3f9ce" x="671.146774" y="499.48" style="stroke: #000000; stroke-width: 0.8"/>
      </g>
     </g>
     <g id="text_7">
      <!-- 60 -->
      <g transform="translate(657.149274 523.196563) scale(0.22 -0.22)">
       <defs>
        <path id="DejaVuSans-36" d="M 2113 2584 
Q 1688 2584 1439 2293 
Q 1191 2003 1191 1497 
Q 1191 994 1439 701 
Q 1688 409 2113 409 
Q 2538 409 2786 701 
Q 3034 994 3034 1497 
Q 3034 2003 2786 2293 
Q 2538 2584 2113 2584 
z
M 3366 4563 
L 3366 3988 
Q 3128 4100 2886 4159 
Q 2644 4219 2406 4219 
Q 1781 4219 1451 3797 
Q 1122 3375 1075 2522 
Q 1259 2794 1537 2939 
Q 1816 3084 2150 3084 
Q 2853 3084 3261 2657 
Q 3669 2231 3669 1497 
Q 3669 778 3244 343 
Q 2819 -91 2113 -91 
Q 1303 -91 875 529 
Q 447 1150 447 2328 
Q 447 3434 972 4092 
Q 1497 4750 2381 4750 
Q 2619 4750 2861 4703 
Q 3103 4656 3366 4563 
z
" transform="scale(0.015625)"/>
       </defs>
       <use xlink:href="#DejaVuSans-36"/>
       <use xlink:href="#DejaVuSans-30" x="63.623047"/>
      </g>
     </g>
    </g>
    <g id="text_8">
     <!-- Force Uncertainties -->
     <g transform="translate(283.426094 548.488438) scale(0.22 -0.22)">
      <defs>
       <path id="DejaVuSans-46" d="M 628 4666 
L 3309 4666 
L 3309 4134 
L 1259 4134 
L 1259 2759 
L 3109 2759 
L 3109 2228 
L 1259 2228 
L 1259 0 
L 628 0 
L 628 4666 
z
" transform="scale(0.015625)"/>
       <path id="DejaVuSans-6f" d="M 1959 3097 
Q 1497 3097 1228 2736 
Q 959 2375 959 1747 
Q 959 1119 1226 758 
Q 1494 397 1959 397 
Q 2419 397 2687 759 
Q 2956 1122 2956 1747 
Q 2956 2369 2687 2733 
Q 2419 3097 1959 3097 
z
M 1959 3584 
Q 2709 3584 3137 3096 
Q 3566 2609 3566 1747 
Q 3566 888 3137 398 
Q 2709 -91 1959 -91 
Q 1206 -91 779 398 
Q 353 888 353 1747 
Q 353 2609 779 3096 
Q 1206 3584 1959 3584 
z
" transform="scale(0.015625)"/>
       <path id="DejaVuSans-72" d="M 2631 2963 
Q 2534 3019 2420 3045 
Q 2306 3072 2169 3072 
Q 1681 3072 1420 2755 
Q 1159 2438 1159 1844 
L 1159 0 
L 581 0 
L 581 3500 
L 1159 3500 
L 1159 2956 
Q 1341 3275 1631 3429 
Q 1922 3584 2338 3584 
Q 2397 3584 2469 3576 
Q 2541 3569 2628 3553 
L 2631 2963 
z
" transform="scale(0.015625)"/>
       <path id="DejaVuSans-63" d="M 3122 3366 
L 3122 2828 
Q 2878 2963 2633 3030 
Q 2388 3097 2138 3097 
Q 1578 3097 1268 2742 
Q 959 2388 959 1747 
Q 959 1106 1268 751 
Q 1578 397 2138 397 
Q 2388 397 2633 464 
Q 2878 531 3122 666 
L 3122 134 
Q 2881 22 2623 -34 
Q 2366 -91 2075 -91 
Q 1284 -91 818 406 
Q 353 903 353 1747 
Q 353 2603 823 3093 
Q 1294 3584 2113 3584 
Q 2378 3584 2631 3529 
Q 2884 3475 3122 3366 
z
" transform="scale(0.015625)"/>
       <path id="DejaVuSans-65" d="M 3597 1894 
L 3597 1613 
L 953 1613 
Q 991 1019 1311 708 
Q 1631 397 2203 397 
Q 2534 397 2845 478 
Q 3156 559 3463 722 
L 3463 178 
Q 3153 47 2828 -22 
Q 2503 -91 2169 -91 
Q 1331 -91 842 396 
Q 353 884 353 1716 
Q 353 2575 817 3079 
Q 1281 3584 2069 3584 
Q 2775 3584 3186 3129 
Q 3597 2675 3597 1894 
z
M 3022 2063 
Q 3016 2534 2758 2815 
Q 2500 3097 2075 3097 
Q 1594 3097 1305 2825 
Q 1016 2553 972 2059 
L 3022 2063 
z
" transform="scale(0.015625)"/>
       <path id="DejaVuSans-20" transform="scale(0.015625)"/>
       <path id="DejaVuSans-55" d="M 556 4666 
L 1191 4666 
L 1191 1831 
Q 1191 1081 1462 751 
Q 1734 422 2344 422 
Q 2950 422 3222 751 
Q 3494 1081 3494 1831 
L 3494 4666 
L 4128 4666 
L 4128 1753 
Q 4128 841 3676 375 
Q 3225 -91 2344 -91 
Q 1459 -91 1007 375 
Q 556 841 556 1753 
L 556 4666 
z
" transform="scale(0.015625)"/>
       <path id="DejaVuSans-6e" d="M 3513 2113 
L 3513 0 
L 2938 0 
L 2938 2094 
Q 2938 2591 2744 2837 
Q 2550 3084 2163 3084 
Q 1697 3084 1428 2787 
Q 1159 2491 1159 1978 
L 1159 0 
L 581 0 
L 581 3500 
L 1159 3500 
L 1159 2956 
Q 1366 3272 1645 3428 
Q 1925 3584 2291 3584 
Q 2894 3584 3203 3211 
Q 3513 2838 3513 2113 
z
" transform="scale(0.015625)"/>
       <path id="DejaVuSans-74" d="M 1172 4494 
L 1172 3500 
L 2356 3500 
L 2356 3053 
L 1172 3053 
L 1172 1153 
Q 1172 725 1289 603 
Q 1406 481 1766 481 
L 2356 481 
L 2356 0 
L 1766 0 
Q 1100 0 847 248 
Q 594 497 594 1153 
L 594 3053 
L 172 3053 
L 172 3500 
L 594 3500 
L 594 4494 
L 1172 4494 
z
" transform="scale(0.015625)"/>
       <path id="DejaVuSans-61" d="M 2194 1759 
Q 1497 1759 1228 1600 
Q 959 1441 959 1056 
Q 959 750 1161 570 
Q 1363 391 1709 391 
Q 2188 391 2477 730 
Q 2766 1069 2766 1631 
L 2766 1759 
L 2194 1759 
z
M 3341 1997 
L 3341 0 
L 2766 0 
L 2766 531 
Q 2569 213 2275 61 
Q 1981 -91 1556 -91 
Q 1019 -91 701 211 
Q 384 513 384 1019 
Q 384 1609 779 1909 
Q 1175 2209 1959 2209 
L 2766 2209 
L 2766 2266 
Q 2766 2663 2505 2880 
Q 2244 3097 1772 3097 
Q 1472 3097 1187 3025 
Q 903 2953 641 2809 
L 641 3341 
Q 956 3463 1253 3523 
Q 1550 3584 1831 3584 
Q 2591 3584 2966 3190 
Q 3341 2797 3341 1997 
z
" transform="scale(0.015625)"/>
       <path id="DejaVuSans-69" d="M 603 3500 
L 1178 3500 
L 1178 0 
L 603 0 
L 603 3500 
z
M 603 4863 
L 1178 4863 
L 1178 4134 
L 603 4134 
L 603 4863 
z
" transform="scale(0.015625)"/>
       <path id="DejaVuSans-73" d="M 2834 3397 
L 2834 2853 
Q 2591 2978 2328 3040 
Q 2066 3103 1784 3103 
Q 1356 3103 1142 2972 
Q 928 2841 928 2578 
Q 928 2378 1081 2264 
Q 1234 2150 1697 2047 
L 1894 2003 
Q 2506 1872 2764 1633 
Q 3022 1394 3022 966 
Q 3022 478 2636 193 
Q 2250 -91 1575 -91 
Q 1294 -91 989 -36 
Q 684 19 347 128 
L 347 722 
Q 666 556 975 473 
Q 1284 391 1588 391 
Q 1994 391 2212 530 
Q 2431 669 2431 922 
Q 2431 1156 2273 1281 
Q 2116 1406 1581 1522 
L 1381 1569 
Q 847 1681 609 1914 
Q 372 2147 372 2553 
Q 372 3047 722 3315 
Q 1072 3584 1716 3584 
Q 2034 3584 2315 3537 
Q 2597 3491 2834 3397 
z
" transform="scale(0.015625)"/>
      </defs>
      <use xlink:href="#DejaVuSans-46"/>
      <use xlink:href="#DejaVuSans-6f" x="53.894531"/>
      <use xlink:href="#DejaVuSans-72" x="115.076172"/>
      <use xlink:href="#DejaVuSans-63" x="153.939453"/>
      <use xlink:href="#DejaVuSans-65" x="208.919922"/>
      <use xlink:href="#DejaVuSans-20" x="270.443359"/>
      <use xlink:href="#DejaVuSans-55" x="302.230469"/>
      <use xlink:href="#DejaVuSans-6e" x="375.423828"/>
      <use xlink:href="#DejaVuSans-63" x="438.802734"/>
      <use xlink:href="#DejaVuSans-65" x="493.783203"/>
      <use xlink:href="#DejaVuSans-72" x="555.306641"/>
      <use xlink:href="#DejaVuSans-74" x="596.419922"/>
      <use xlink:href="#DejaVuSans-61" x="635.628906"/>
      <use xlink:href="#DejaVuSans-69" x="696.908203"/>
      <use xlink:href="#DejaVuSans-6e" x="724.691406"/>
      <use xlink:href="#DejaVuSans-74" x="788.070312"/>
      <use xlink:href="#DejaVuSans-69" x="827.279297"/>
      <use xlink:href="#DejaVuSans-65" x="855.0625"/>
      <use xlink:href="#DejaVuSans-73" x="916.585938"/>
     </g>
    </g>
   </g>
   <g id="matplotlib.axis_2">
    <g id="ytick_1">
     <g id="line2d_8">
      <defs>
       <path id="ma8a0a7e8f0" d="M 0 0 
L -3.5 0 
" style="stroke: #000000; stroke-width: 0.8"/>
      </defs>
      <g>
       <use xlink:href="#ma8a0a7e8f0" x="83.72" y="493.201301" style="stroke: #000000; stroke-width: 0.8"/>
      </g>
     </g>
     <g id="text_9">
      <!-- 0 -->
      <g transform="translate(62.7225 501.559582) scale(0.22 -0.22)">
       <use xlink:href="#DejaVuSans-30"/>
      </g>
     </g>
    </g>
    <g id="ytick_2">
     <g id="line2d_9">
      <g>
       <use xlink:href="#ma8a0a7e8f0" x="83.72" y="418.209237" style="stroke: #000000; stroke-width: 0.8"/>
      </g>
     </g>
     <g id="text_10">
      <!-- 10 -->
      <g transform="translate(48.725 426.567518) scale(0.22 -0.22)">
       <use xlink:href="#DejaVuSans-31"/>
       <use xlink:href="#DejaVuSans-30" x="63.623047"/>
      </g>
     </g>
    </g>
    <g id="ytick_3">
     <g id="line2d_10">
      <g>
       <use xlink:href="#ma8a0a7e8f0" x="83.72" y="343.217172" style="stroke: #000000; stroke-width: 0.8"/>
      </g>
     </g>
     <g id="text_11">
      <!-- 20 -->
      <g transform="translate(48.725 351.575453) scale(0.22 -0.22)">
       <use xlink:href="#DejaVuSans-32"/>
       <use xlink:href="#DejaVuSans-30" x="63.623047"/>
      </g>
     </g>
    </g>
    <g id="ytick_4">
     <g id="line2d_11">
      <g>
       <use xlink:href="#ma8a0a7e8f0" x="83.72" y="268.225108" style="stroke: #000000; stroke-width: 0.8"/>
      </g>
     </g>
     <g id="text_12">
      <!-- 30 -->
      <g transform="translate(48.725 276.583389) scale(0.22 -0.22)">
       <use xlink:href="#DejaVuSans-33"/>
       <use xlink:href="#DejaVuSans-30" x="63.623047"/>
      </g>
     </g>
    </g>
    <g id="ytick_5">
     <g id="line2d_12">
      <g>
       <use xlink:href="#ma8a0a7e8f0" x="83.72" y="193.233043" style="stroke: #000000; stroke-width: 0.8"/>
      </g>
     </g>
     <g id="text_13">
      <!-- 40 -->
      <g transform="translate(48.725 201.591324) scale(0.22 -0.22)">
       <use xlink:href="#DejaVuSans-34"/>
       <use xlink:href="#DejaVuSans-30" x="63.623047"/>
      </g>
     </g>
    </g>
    <g id="ytick_6">
     <g id="line2d_13">
      <g>
       <use xlink:href="#ma8a0a7e8f0" x="83.72" y="118.240979" style="stroke: #000000; stroke-width: 0.8"/>
      </g>
     </g>
     <g id="text_14">
      <!-- 50 -->
      <g transform="translate(48.725 126.59926) scale(0.22 -0.22)">
       <use xlink:href="#DejaVuSans-35"/>
       <use xlink:href="#DejaVuSans-30" x="63.623047"/>
      </g>
     </g>
    </g>
    <g id="ytick_7">
     <g id="line2d_14">
      <g>
       <use xlink:href="#ma8a0a7e8f0" x="83.72" y="43.248914" style="stroke: #000000; stroke-width: 0.8"/>
      </g>
     </g>
     <g id="text_15">
      <!-- 60 -->
      <g transform="translate(48.725 51.607195) scale(0.22 -0.22)">
       <use xlink:href="#DejaVuSans-36"/>
       <use xlink:href="#DejaVuSans-30" x="63.623047"/>
      </g>
     </g>
    </g>
    <g id="text_16">
     <!-- Force Errors [kJ/(mol*A)] -->
     <g transform="translate(40.149688 394.9125) rotate(-90) scale(0.22 -0.22)">
      <defs>
       <path id="DejaVuSans-45" d="M 628 4666 
L 3578 4666 
L 3578 4134 
L 1259 4134 
L 1259 2753 
L 3481 2753 
L 3481 2222 
L 1259 2222 
L 1259 531 
L 3634 531 
L 3634 0 
L 628 0 
L 628 4666 
z
" transform="scale(0.015625)"/>
       <path id="DejaVuSans-5b" d="M 550 4863 
L 1875 4863 
L 1875 4416 
L 1125 4416 
L 1125 -397 
L 1875 -397 
L 1875 -844 
L 550 -844 
L 550 4863 
z
" transform="scale(0.015625)"/>
       <path id="DejaVuSans-6b" d="M 581 4863 
L 1159 4863 
L 1159 1991 
L 2875 3500 
L 3609 3500 
L 1753 1863 
L 3688 0 
L 2938 0 
L 1159 1709 
L 1159 0 
L 581 0 
L 581 4863 
z
" transform="scale(0.015625)"/>
       <path id="DejaVuSans-4a" d="M 628 4666 
L 1259 4666 
L 1259 325 
Q 1259 -519 939 -900 
Q 619 -1281 -91 -1281 
L -331 -1281 
L -331 -750 
L -134 -750 
Q 284 -750 456 -515 
Q 628 -281 628 325 
L 628 4666 
z
" transform="scale(0.015625)"/>
       <path id="DejaVuSans-2f" d="M 1625 4666 
L 2156 4666 
L 531 -594 
L 0 -594 
L 1625 4666 
z
" transform="scale(0.015625)"/>
       <path id="DejaVuSans-28" d="M 1984 4856 
Q 1566 4138 1362 3434 
Q 1159 2731 1159 2009 
Q 1159 1288 1364 580 
Q 1569 -128 1984 -844 
L 1484 -844 
Q 1016 -109 783 600 
Q 550 1309 550 2009 
Q 550 2706 781 3412 
Q 1013 4119 1484 4856 
L 1984 4856 
z
" transform="scale(0.015625)"/>
       <path id="DejaVuSans-6d" d="M 3328 2828 
Q 3544 3216 3844 3400 
Q 4144 3584 4550 3584 
Q 5097 3584 5394 3201 
Q 5691 2819 5691 2113 
L 5691 0 
L 5113 0 
L 5113 2094 
Q 5113 2597 4934 2840 
Q 4756 3084 4391 3084 
Q 3944 3084 3684 2787 
Q 3425 2491 3425 1978 
L 3425 0 
L 2847 0 
L 2847 2094 
Q 2847 2600 2669 2842 
Q 2491 3084 2119 3084 
Q 1678 3084 1418 2786 
Q 1159 2488 1159 1978 
L 1159 0 
L 581 0 
L 581 3500 
L 1159 3500 
L 1159 2956 
Q 1356 3278 1631 3431 
Q 1906 3584 2284 3584 
Q 2666 3584 2933 3390 
Q 3200 3197 3328 2828 
z
" transform="scale(0.015625)"/>
       <path id="DejaVuSans-6c" d="M 603 4863 
L 1178 4863 
L 1178 0 
L 603 0 
L 603 4863 
z
" transform="scale(0.015625)"/>
       <path id="DejaVuSans-2a" d="M 3009 3897 
L 1888 3291 
L 3009 2681 
L 2828 2375 
L 1778 3009 
L 1778 1831 
L 1422 1831 
L 1422 3009 
L 372 2375 
L 191 2681 
L 1313 3291 
L 191 3897 
L 372 4206 
L 1422 3572 
L 1422 4750 
L 1778 4750 
L 1778 3572 
L 2828 4206 
L 3009 3897 
z
" transform="scale(0.015625)"/>
       <path id="DejaVuSans-41" d="M 2188 4044 
L 1331 1722 
L 3047 1722 
L 2188 4044 
z
M 1831 4666 
L 2547 4666 
L 4325 0 
L 3669 0 
L 3244 1197 
L 1141 1197 
L 716 0 
L 50 0 
L 1831 4666 
z
" transform="scale(0.015625)"/>
       <path id="DejaVuSans-29" d="M 513 4856 
L 1013 4856 
Q 1481 4119 1714 3412 
Q 1947 2706 1947 2009 
Q 1947 1309 1714 600 
Q 1481 -109 1013 -844 
L 513 -844 
Q 928 -128 1133 580 
Q 1338 1288 1338 2009 
Q 1338 2731 1133 3434 
Q 928 4138 513 4856 
z
" transform="scale(0.015625)"/>
       <path id="DejaVuSans-5d" d="M 1947 4863 
L 1947 -844 
L 622 -844 
L 622 -397 
L 1369 -397 
L 1369 4416 
L 622 4416 
L 622 4863 
L 1947 4863 
z
" transform="scale(0.015625)"/>
      </defs>
      <use xlink:href="#DejaVuSans-46"/>
      <use xlink:href="#DejaVuSans-6f" x="53.894531"/>
      <use xlink:href="#DejaVuSans-72" x="115.076172"/>
      <use xlink:href="#DejaVuSans-63" x="153.939453"/>
      <use xlink:href="#DejaVuSans-65" x="208.919922"/>
      <use xlink:href="#DejaVuSans-20" x="270.443359"/>
      <use xlink:href="#DejaVuSans-45" x="302.230469"/>
      <use xlink:href="#DejaVuSans-72" x="365.414062"/>
      <use xlink:href="#DejaVuSans-72" x="404.777344"/>
      <use xlink:href="#DejaVuSans-6f" x="443.640625"/>
      <use xlink:href="#DejaVuSans-72" x="504.822266"/>
      <use xlink:href="#DejaVuSans-73" x="545.935547"/>
      <use xlink:href="#DejaVuSans-20" x="598.035156"/>
      <use xlink:href="#DejaVuSans-5b" x="629.822266"/>
      <use xlink:href="#DejaVuSans-6b" x="668.835938"/>
      <use xlink:href="#DejaVuSans-4a" x="726.746094"/>
      <use xlink:href="#DejaVuSans-2f" x="756.238281"/>
      <use xlink:href="#DejaVuSans-28" x="789.929688"/>
      <use xlink:href="#DejaVuSans-6d" x="828.943359"/>
      <use xlink:href="#DejaVuSans-6f" x="926.355469"/>
      <use xlink:href="#DejaVuSans-6c" x="987.537109"/>
      <use xlink:href="#DejaVuSans-2a" x="1015.320312"/>
      <use xlink:href="#DejaVuSans-41" x="1065.320312"/>
      <use xlink:href="#DejaVuSans-29" x="1133.728516"/>
      <use xlink:href="#DejaVuSans-5d" x="1172.742188"/>
     </g>
    </g>
   </g>
   <g id="line2d_15">
    <path d="M 83.72 499.48 
L 696.24 23.76 
" clip-path="url(#pb24646d29a)" style="fill: none; stroke-dasharray: 5.55,2.4; stroke-dashoffset: 0; stroke: #ff0000; stroke-width: 1.5"/>
   </g>
   <g id="patch_3">
    <path d="M 83.72 499.48 
L 83.72 23.76 
" style="fill: none; stroke: #000000; stroke-width: 0.8; stroke-linejoin: miter; stroke-linecap: square"/>
   </g>
   <g id="patch_4">
    <path d="M 696.24 499.48 
L 696.24 23.76 
" style="fill: none; stroke: #000000; stroke-width: 0.8; stroke-linejoin: miter; stroke-linecap: square"/>
   </g>
   <g id="patch_5">
    <path d="M 83.72 499.48 
L 696.24 499.48 
" style="fill: none; stroke: #000000; stroke-width: 0.8; stroke-linejoin: miter; stroke-linecap: square"/>
   </g>
   <g id="patch_6">
    <path d="M 83.72 23.76 
L 696.24 23.76 
" style="fill: none; stroke: #000000; stroke-width: 0.8; stroke-linejoin: miter; stroke-linecap: square"/>
   </g>
   <g id="text_17">
    <!-- Correlation in: 0.687 -->
    <g transform="translate(144.972 71.332) scale(0.22 -0.22)">
     <defs>
      <path id="DejaVuSans-43" d="M 4122 4306 
L 4122 3641 
Q 3803 3938 3442 4084 
Q 3081 4231 2675 4231 
Q 1875 4231 1450 3742 
Q 1025 3253 1025 2328 
Q 1025 1406 1450 917 
Q 1875 428 2675 428 
Q 3081 428 3442 575 
Q 3803 722 4122 1019 
L 4122 359 
Q 3791 134 3420 21 
Q 3050 -91 2638 -91 
Q 1578 -91 968 557 
Q 359 1206 359 2328 
Q 359 3453 968 4101 
Q 1578 4750 2638 4750 
Q 3056 4750 3426 4639 
Q 3797 4528 4122 4306 
z
" transform="scale(0.015625)"/>
      <path id="DejaVuSans-3a" d="M 750 794 
L 1409 794 
L 1409 0 
L 750 0 
L 750 794 
z
M 750 3309 
L 1409 3309 
L 1409 2516 
L 750 2516 
L 750 3309 
z
" transform="scale(0.015625)"/>
      <path id="DejaVuSans-2e" d="M 684 794 
L 1344 794 
L 1344 0 
L 684 0 
L 684 794 
z
" transform="scale(0.015625)"/>
      <path id="DejaVuSans-38" d="M 2034 2216 
Q 1584 2216 1326 1975 
Q 1069 1734 1069 1313 
Q 1069 891 1326 650 
Q 1584 409 2034 409 
Q 2484 409 2743 651 
Q 3003 894 3003 1313 
Q 3003 1734 2745 1975 
Q 2488 2216 2034 2216 
z
M 1403 2484 
Q 997 2584 770 2862 
Q 544 3141 544 3541 
Q 544 4100 942 4425 
Q 1341 4750 2034 4750 
Q 2731 4750 3128 4425 
Q 3525 4100 3525 3541 
Q 3525 3141 3298 2862 
Q 3072 2584 2669 2484 
Q 3125 2378 3379 2068 
Q 3634 1759 3634 1313 
Q 3634 634 3220 271 
Q 2806 -91 2034 -91 
Q 1263 -91 848 271 
Q 434 634 434 1313 
Q 434 1759 690 2068 
Q 947 2378 1403 2484 
z
M 1172 3481 
Q 1172 3119 1398 2916 
Q 1625 2713 2034 2713 
Q 2441 2713 2670 2916 
Q 2900 3119 2900 3481 
Q 2900 3844 2670 4047 
Q 2441 4250 2034 4250 
Q 1625 4250 1398 4047 
Q 1172 3844 1172 3481 
z
" transform="scale(0.015625)"/>
      <path id="DejaVuSans-37" d="M 525 4666 
L 3525 4666 
L 3525 4397 
L 1831 0 
L 1172 0 
L 2766 4134 
L 525 4134 
L 525 4666 
z
" transform="scale(0.015625)"/>
     </defs>
     <use xlink:href="#DejaVuSans-43"/>
     <use xlink:href="#DejaVuSans-6f" x="69.824219"/>
     <use xlink:href="#DejaVuSans-72" x="131.005859"/>
     <use xlink:href="#DejaVuSans-72" x="170.369141"/>
     <use xlink:href="#DejaVuSans-65" x="209.232422"/>
     <use xlink:href="#DejaVuSans-6c" x="270.755859"/>
     <use xlink:href="#DejaVuSans-61" x="298.539062"/>
     <use xlink:href="#DejaVuSans-74" x="359.818359"/>
     <use xlink:href="#DejaVuSans-69" x="399.027344"/>
     <use xlink:href="#DejaVuSans-6f" x="426.810547"/>
     <use xlink:href="#DejaVuSans-6e" x="487.992188"/>
     <use xlink:href="#DejaVuSans-20" x="551.371094"/>
     <use xlink:href="#DejaVuSans-69" x="583.158203"/>
     <use xlink:href="#DejaVuSans-6e" x="610.941406"/>
     <use xlink:href="#DejaVuSans-3a" x="674.320312"/>
     <use xlink:href="#DejaVuSans-20" x="708.011719"/>
     <use xlink:href="#DejaVuSans-30" x="739.798828"/>
     <use xlink:href="#DejaVuSans-2e" x="803.421875"/>
     <use xlink:href="#DejaVuSans-36" x="835.208984"/>
     <use xlink:href="#DejaVuSans-38" x="898.832031"/>
     <use xlink:href="#DejaVuSans-37" x="962.455078"/>
    </g>
   </g>
  </g>
 </g>
 <defs>
  <clipPath id="pb24646d29a">
   <rect x="83.72" y="23.76" width="612.52" height="475.72"/>
  </clipPath>
 </defs>
</svg>
