<?xml version="1.0" encoding="utf-8" standalone="no"?>
<!DOCTYPE svg PUBLIC "-//W3C//DTD SVG 1.1//EN"
  "http://www.w3.org/Graphics/SVG/1.1/DTD/svg11.dtd">
<svg xmlns:xlink="http://www.w3.org/1999/xlink" width="720pt" height="576pt" viewBox="0 0 720 576" xmlns="http://www.w3.org/2000/svg" version="1.1">
 <metadata>
  <rdf:RDF xmlns:dc="http://purl.org/dc/elements/1.1/" xmlns:cc="http://creativecommons.org/ns#" xmlns:rdf="http://www.w3.org/1999/02/22-rdf-syntax-ns#">
   <cc:Work>
    <dc:type rdf:resource="http://purl.org/dc/dcmitype/StillImage"/>
    <dc:date>2024-12-07T15:08:42.210346</dc:date>
    <dc:format>image/svg+xml</dc:format>
    <dc:creator>
     <cc:Agent>
      <dc:title>Matplotlib v3.8.4, https://matplotlib.org/</dc:title>
     </cc:Agent>
    </dc:creator>
   </cc:Work>
  </rdf:RDF>
 </metadata>
 <defs>
  <style type="text/css">*{stroke-linejoin: round; stroke-linecap: butt}</style>
 </defs>
 <g id="figure_1">
  <g id="patch_1">
   <path d="M 0 576 
L 720 576 
L 720 0 
L 0 0 
z
" style="fill: #ffffff"/>
  </g>
  <g id="axes_1">
   <g id="patch_2">
    <path d="M 102.17 499.48 
L 682.2 499.48 
L 682.2 32.04 
L 102.17 32.04 
z
" style="fill: #ffffff"/>
   </g>
   <g id="QuadContourSet_1">
    <path d="M 216.92407 398.006639 
L 217.496889 397.643241 
L 216.92407 397.35329 
L 216.55271 397.643241 
z
M 226.594 393.512436 
L 231.937614 390.161355 
L 236.263931 388.174853 
L 245.098563 382.679469 
L 245.933861 382.291334 
L 255.603791 376.947883 
L 257.866664 375.197583 
L 265.273722 371.149642 
L 269.713712 367.715697 
L 274.943652 364.768573 
L 280.807745 360.233811 
L 284.613583 358.024823 
L 291.433452 352.751925 
L 294.283513 351.048902 
L 301.759691 345.270039 
L 303.953443 343.920592 
L 311.889759 337.788153 
L 313.623374 336.690139 
L 321.888757 330.306267 
L 323.293304 329.390111 
L 331.798879 322.824381 
L 332.963235 322.042216 
L 341.648166 315.342495 
L 342.633165 314.661296 
L 351.455614 307.860609 
L 352.303096 307.257706 
L 361.234189 300.378723 
L 361.973026 299.838697 
L 370.992571 292.896837 
L 371.642956 292.409178 
L 380.736138 285.414951 
L 381.312887 284.972067 
L 390.467499 277.933065 
L 390.982817 277.528422 
L 400.186822 270.451179 
L 400.652748 270.077493 
L 409.892136 262.969293 
L 410.322678 262.616811 
L 419.579672 255.487407 
L 419.992608 255.14234 
L 429.2442 248.005521 
L 429.662539 247.648609 
L 438.879186 240.523635 
L 439.332469 240.128716 
L 448.476632 233.041749 
L 449.0024 232.574117 
L 458.026626 225.559863 
L 458.67233 224.974319 
L 467.516844 218.077977 
L 468.34226 217.316772 
L 476.932549 210.596091 
L 478.012191 209.587523 
L 486.257726 203.114205 
L 487.682121 201.773087 
L 495.477759 195.632319 
L 497.352052 193.863521 
L 504.5832 188.150433 
L 507.021982 185.855502 
L 513.572778 180.668548 
L 516.691912 177.753121 
L 522.452984 173.186662 
L 526.361843 169.564374 
L 531.232556 165.704776 
L 536.031773 161.293374 
L 539.912774 158.22289 
L 545.701704 152.930751 
L 548.47658 150.741004 
L 555.371634 144.445176 
L 556.879289 143.259118 
L 565.041565 135.777232 
L 565.041565 135.777232 
L 570.264023 128.295346 
L 565.041565 125.05642 
L 559.953756 128.295346 
L 555.371634 130.269905 
L 547.477287 135.777232 
L 545.701704 136.623136 
L 536.591367 143.259118 
L 536.031773 143.542661 
L 526.361843 150.711076 
L 526.323144 150.741004 
L 516.691912 157.750351 
L 516.080963 158.22289 
L 507.021982 164.761182 
L 505.802186 165.704776 
L 497.352052 171.75766 
L 495.505 173.186662 
L 487.682121 178.76922 
L 485.227353 180.668548 
L 478.012191 185.823105 
L 475.004352 188.150433 
L 468.34226 192.93594 
L 464.857438 195.632319 
L 458.67233 200.113897 
L 454.794612 203.114205 
L 449.0024 207.356631 
L 444.815499 210.596091 
L 439.332469 214.66128 
L 434.916478 218.077977 
L 429.662539 222.025219 
L 425.094196 225.559863 
L 419.992608 229.44762 
L 415.347586 233.041749 
L 410.322678 236.930347 
L 405.679019 240.523635 
L 400.652748 244.478626 
L 396.095193 248.005521 
L 390.982817 252.101776 
L 386.608085 255.487407 
L 381.312887 259.814147 
L 377.23619 262.969293 
L 371.642956 267.636425 
L 368.00621 270.451179 
L 361.973026 275.597466 
L 358.955423 277.933065 
L 352.303096 283.7369 
L 350.135053 285.414951 
L 342.633165 292.108918 
L 341.61516 292.896837 
L 332.985691 300.378723 
L 332.963235 300.398013 
L 323.394603 307.860609 
L 323.293304 307.949846 
L 313.816573 315.342495 
L 313.623374 315.516976 
L 304.25758 322.824381 
L 303.953443 323.105859 
L 294.726254 330.306267 
L 294.283513 330.726001 
L 285.235025 337.788153 
L 284.613583 338.391347 
L 275.801837 345.270039 
L 274.943652 346.122367 
L 266.452795 352.751925 
L 265.273722 353.949278 
L 257.226333 360.233811 
L 255.603791 361.917261 
L 248.179977 367.715697 
L 245.933861 370.095231 
L 239.401717 375.197583 
L 236.263931 378.59116 
L 231.029805 382.679469 
L 226.594 387.579709 
L 223.288318 390.161355 
z
M 255.101715 367.715697 
L 255.603791 367.323545 
L 256.512648 367.715697 
L 255.603791 368.278543 
z
M 262.437013 360.233811 
L 265.273722 358.01851 
L 270.541973 360.233811 
L 265.273722 363.509035 
z
M 270.459904 352.751925 
L 274.943652 349.251069 
L 278.952037 345.270039 
L 284.613583 340.85048 
L 287.768549 337.788153 
L 294.283513 332.703363 
L 296.812002 330.306267 
L 303.953443 324.733466 
L 306.016205 322.824381 
L 313.623374 316.889095 
L 315.335896 315.342495 
L 323.293304 309.135046 
L 324.740004 307.860609 
L 332.963235 301.447294 
L 334.207194 300.378723 
L 342.633165 293.809451 
L 343.722902 292.896837 
L 352.303096 286.210376 
L 353.277344 285.414951 
L 361.973026 278.642574 
L 362.864196 277.933065 
L 371.642956 271.10114 
L 372.479736 270.451179 
L 381.312887 263.583105 
L 382.122349 262.969293 
L 390.982817 256.087088 
L 391.792332 255.487407 
L 400.652748 248.613192 
L 401.491995 248.005521 
L 410.322678 241.163139 
L 411.226094 240.523635 
L 419.992608 233.740633 
L 421.002651 233.041749 
L 429.662539 226.351994 
L 430.834264 225.559863 
L 439.332469 219.00713 
L 440.740076 218.077977 
L 449.0024 211.720947 
L 450.748618 210.596091 
L 458.67233 204.515317 
L 460.901836 203.114205 
L 468.34226 197.421776 
L 471.26071 195.632319 
L 478.012191 190.485251 
L 481.913264 188.150433 
L 487.682121 183.769597 
L 492.986901 180.668548 
L 497.352052 177.36685 
L 503.536294 180.668548 
L 497.352052 186.385883 
L 495.878556 188.150433 
L 487.682121 195.632319 
L 487.682121 195.632319 
L 479.735648 203.114205 
L 478.012191 204.467239 
L 471.451441 210.596091 
L 468.34226 213.028583 
L 462.866922 218.077977 
L 458.67233 221.348631 
L 454.028431 225.559863 
L 449.0024 229.466443 
L 444.982615 233.041749 
L 439.332469 237.420761 
L 435.77103 240.523635 
L 429.662539 245.245834 
L 426.427894 248.005521 
L 419.992608 252.969799 
L 416.979825 255.487407 
L 410.322678 260.614502 
L 407.446396 262.969293 
L 400.652748 268.195896 
L 397.840781 270.451179 
L 390.982817 275.724478 
L 388.170155 277.933065 
L 381.312887 283.205634 
L 378.43579 285.414951 
L 371.642956 290.639813 
L 368.632788 292.896837 
L 361.973026 298.022499 
L 358.749355 300.378723 
L 352.303096 305.343816 
L 348.765322 307.860609 
L 342.633165 312.587514 
L 338.64952 315.342495 
L 332.963235 319.729003 
L 328.355359 322.824381 
L 323.293304 326.731946 
L 317.813557 330.306267 
L 313.623374 333.542607 
L 306.920234 337.788153 
L 303.953443 340.08061 
L 295.517152 345.270039 
L 294.283513 346.223605 
L 284.613583 352.156245 
L 283.43396 352.751925 
L 274.943652 358.071425 
z
M 504.669955 173.186662 
L 507.021982 171.414271 
L 510.361135 173.186662 
L 507.021982 176.323562 
z
" clip-path="url(#p97c1b627f2)" style="fill: #edf4fc"/>
    <path d="M 255.603791 368.278543 
L 256.512648 367.715697 
L 255.603791 367.323545 
L 255.101715 367.715697 
z
M 265.273722 363.509035 
L 270.541973 360.233811 
L 265.273722 358.01851 
L 262.437013 360.233811 
z
M 274.943652 358.071425 
L 283.43396 352.751925 
L 284.613583 352.156245 
L 294.283513 346.223605 
L 295.517152 345.270039 
L 303.953443 340.08061 
L 306.920234 337.788153 
L 313.623374 333.542607 
L 317.813557 330.306267 
L 323.293304 326.731946 
L 328.355359 322.824381 
L 332.963235 319.729003 
L 338.64952 315.342495 
L 342.633165 312.587514 
L 348.765322 307.860609 
L 352.303096 305.343816 
L 358.749355 300.378723 
L 361.973026 298.022499 
L 368.632788 292.896837 
L 371.642956 290.639813 
L 378.43579 285.414951 
L 381.312887 283.205634 
L 388.170155 277.933065 
L 390.982817 275.724478 
L 397.840781 270.451179 
L 400.652748 268.195896 
L 407.446396 262.969293 
L 410.322678 260.614502 
L 416.979825 255.487407 
L 419.992608 252.969799 
L 426.427894 248.005521 
L 429.662539 245.245834 
L 435.77103 240.523635 
L 439.332469 237.420761 
L 444.982615 233.041749 
L 449.0024 229.466443 
L 454.028431 225.559863 
L 458.67233 221.348631 
L 462.866922 218.077977 
L 468.34226 213.028583 
L 471.451441 210.596091 
L 478.012191 204.467239 
L 479.735648 203.114205 
L 487.682121 195.632319 
L 487.682121 195.632319 
L 495.878556 188.150433 
L 497.352052 186.385883 
L 503.536294 180.668548 
L 497.352052 177.36685 
L 492.986901 180.668548 
L 487.682121 183.769597 
L 481.913264 188.150433 
L 478.012191 190.485251 
L 471.26071 195.632319 
L 468.34226 197.421776 
L 460.901836 203.114205 
L 458.67233 204.515317 
L 450.748618 210.596091 
L 449.0024 211.720947 
L 440.740076 218.077977 
L 439.332469 219.00713 
L 430.834264 225.559863 
L 429.662539 226.351994 
L 421.002651 233.041749 
L 419.992608 233.740633 
L 411.226094 240.523635 
L 410.322678 241.163139 
L 401.491995 248.005521 
L 400.652748 248.613192 
L 391.792332 255.487407 
L 390.982817 256.087088 
L 382.122349 262.969293 
L 381.312887 263.583105 
L 372.479736 270.451179 
L 371.642956 271.10114 
L 362.864196 277.933065 
L 361.973026 278.642574 
L 353.277344 285.414951 
L 352.303096 286.210376 
L 343.722902 292.896837 
L 342.633165 293.809451 
L 334.207194 300.378723 
L 332.963235 301.447294 
L 324.740004 307.860609 
L 323.293304 309.135046 
L 315.335896 315.342495 
L 313.623374 316.889095 
L 306.016205 322.824381 
L 303.953443 324.733466 
L 296.812002 330.306267 
L 294.283513 332.703363 
L 287.768549 337.788153 
L 284.613583 340.85048 
L 278.952037 345.270039 
L 274.943652 349.251069 
L 270.459904 352.751925 
z
M 283.582903 345.270039 
L 284.613583 344.465462 
L 286.591471 345.270039 
L 284.613583 346.523666 
z
M 291.492889 337.788153 
L 294.283513 335.610131 
L 299.677889 337.788153 
L 294.283513 341.259737 
z
M 299.878099 330.306267 
L 303.953443 327.126085 
L 308.601424 322.824381 
L 313.623374 318.906141 
L 317.569335 315.342495 
L 323.293304 310.877317 
L 326.717774 307.860609 
L 332.963235 302.989761 
L 336.002833 300.378723 
L 342.633165 295.209413 
L 345.394574 292.896837 
L 352.303096 287.513094 
L 354.872933 285.414951 
L 361.973026 279.885251 
L 364.425045 277.933065 
L 371.642956 272.315845 
L 374.043585 270.451179 
L 381.312887 264.799051 
L 383.725873 262.969293 
L 390.982817 257.332596 
L 393.473654 255.487407 
L 400.652748 249.91762 
L 403.293525 248.005521 
L 410.322678 242.55904 
L 413.198059 240.523635 
L 419.992608 235.266421 
L 423.207755 233.041749 
L 429.662539 228.055434 
L 433.354006 225.559863 
L 439.332469 220.950034 
L 443.683449 218.077977 
L 449.0024 213.985578 
L 454.264213 210.596091 
L 458.67233 207.213237 
L 465.163187 210.596091 
L 458.67233 216.315638 
L 456.969079 218.077977 
L 449.0024 225.004611 
L 448.445981 225.559863 
L 439.846329 233.041749 
L 439.332469 233.440004 
L 431.20197 240.523635 
L 429.662539 241.7137 
L 422.287859 248.005521 
L 419.992608 249.776113 
L 413.157989 255.487407 
L 410.322678 257.671062 
L 403.851102 262.969293 
L 400.652748 265.429904 
L 394.392045 270.451179 
L 390.982817 273.072639 
L 384.793006 277.933065 
L 381.312887 280.608937 
L 375.054224 285.414951 
L 371.642956 288.038805 
L 365.163853 292.896837 
L 361.973026 295.352646 
L 355.096592 300.378723 
L 352.303096 302.530354 
L 344.810529 307.860609 
L 342.633165 309.539006 
L 334.241441 315.342495 
L 332.963235 316.328528 
L 323.293304 322.824381 
L 323.293304 322.824381 
L 313.623374 329.303799 
L 311.84008 330.306267 
L 303.953443 335.477558 
z
M 465.194875 203.114205 
L 468.34226 200.706242 
L 472.906109 203.114205 
L 468.34226 207.185626 
z
M 476.617394 195.632319 
L 478.012191 194.56898 
L 480.009914 195.632319 
L 478.012191 197.435133 
z
M 507.021982 176.323562 
L 510.361135 173.186662 
L 507.021982 171.414271 
L 504.669955 173.186662 
z
" clip-path="url(#p97c1b627f2)" style="fill: #d3e3f3"/>
    <path d="M 284.613583 346.523666 
L 286.591471 345.270039 
L 284.613583 344.465462 
L 283.582903 345.270039 
z
M 294.283513 341.259737 
L 299.677889 337.788153 
L 294.283513 335.610131 
L 291.492889 337.788153 
z
M 294.22334 337.788153 
L 294.283513 337.741189 
L 294.39983 337.788153 
L 294.283513 337.863009 
z
M 303.953443 335.477558 
L 311.84008 330.306267 
L 313.623374 329.303799 
L 323.293304 322.824381 
L 323.293304 322.824381 
L 332.963235 316.328528 
L 334.241441 315.342495 
L 342.633165 309.539006 
L 344.810529 307.860609 
L 352.303096 302.530354 
L 355.096592 300.378723 
L 361.973026 295.352646 
L 365.163853 292.896837 
L 371.642956 288.038805 
L 375.054224 285.414951 
L 381.312887 280.608937 
L 384.793006 277.933065 
L 390.982817 273.072639 
L 394.392045 270.451179 
L 400.652748 265.429904 
L 403.851102 262.969293 
L 410.322678 257.671062 
L 413.157989 255.487407 
L 419.992608 249.776113 
L 422.287859 248.005521 
L 429.662539 241.7137 
L 431.20197 240.523635 
L 439.332469 233.440004 
L 439.846329 233.041749 
L 448.445981 225.559863 
L 449.0024 225.004611 
L 456.969079 218.077977 
L 458.67233 216.315638 
L 465.163187 210.596091 
L 458.67233 207.213237 
L 454.264213 210.596091 
L 449.0024 213.985578 
L 443.683449 218.077977 
L 439.332469 220.950034 
L 433.354006 225.559863 
L 429.662539 228.055434 
L 423.207755 233.041749 
L 419.992608 235.266421 
L 413.198059 240.523635 
L 410.322678 242.55904 
L 403.293525 248.005521 
L 400.652748 249.91762 
L 393.473654 255.487407 
L 390.982817 257.332596 
L 383.725873 262.969293 
L 381.312887 264.799051 
L 374.043585 270.451179 
L 371.642956 272.315845 
L 364.425045 277.933065 
L 361.973026 279.885251 
L 354.872933 285.414951 
L 352.303096 287.513094 
L 345.394574 292.896837 
L 342.633165 295.209413 
L 336.002833 300.378723 
L 332.963235 302.989761 
L 326.717774 307.860609 
L 323.293304 310.877317 
L 317.569335 315.342495 
L 313.623374 318.906141 
L 308.601424 322.824381 
L 303.953443 327.126085 
L 299.878099 330.306267 
z
M 302.125967 330.306267 
L 303.953443 328.880202 
L 307.489989 330.306267 
L 303.953443 332.62519 
z
M 310.496743 322.824381 
L 313.623374 320.384912 
L 319.643805 322.824381 
L 313.623374 326.858421 
z
M 319.206752 315.342495 
L 323.293304 312.15464 
L 328.167751 307.860609 
L 332.963235 304.120601 
L 337.319282 300.378723 
L 342.633165 296.235777 
L 346.620138 292.896837 
L 352.303096 288.468164 
L 356.042717 285.414951 
L 361.973026 280.796304 
L 365.569361 277.933065 
L 371.642956 273.20639 
L 375.1901 270.451179 
L 381.312887 265.690506 
L 384.901475 262.969293 
L 390.982817 258.245723 
L 394.706293 255.487407 
L 400.652748 250.873944 
L 404.614293 248.005521 
L 410.322678 243.582426 
L 414.643779 240.523635 
L 419.992608 236.385032 
L 424.824397 233.041749 
L 429.662539 229.304289 
L 435.201321 225.559863 
L 439.332469 222.374448 
L 445.629952 225.559863 
L 439.332469 230.95748 
L 437.16706 233.041749 
L 429.662539 239.379198 
L 428.430061 240.523635 
L 419.992608 247.542989 
L 419.476281 248.005521 
L 410.356061 255.487407 
L 410.322678 255.513117 
L 401.215259 262.969293 
L 400.652748 263.402054 
L 391.863651 270.451179 
L 390.982817 271.128479 
L 382.317095 277.933065 
L 381.312887 278.705203 
L 372.575074 285.414951 
L 371.642956 286.13191 
L 362.62065 292.896837 
L 361.973026 293.395278 
L 352.418618 300.378723 
L 352.303096 300.467702 
L 342.633165 307.425843 
L 341.95603 307.860609 
L 332.963235 314.186326 
L 331.077785 315.342495 
L 323.293304 320.684089 
z
M 445.841344 218.077977 
L 449.0024 215.645862 
L 453.737002 218.077977 
L 449.0024 222.19448 
z
M 456.841626 210.596091 
L 458.67233 209.191182 
L 461.368003 210.596091 
L 458.67233 212.971436 
z
M 468.34226 207.185626 
L 472.906109 203.114205 
L 468.34226 200.706242 
L 465.194875 203.114205 
z
M 478.012191 197.435133 
L 480.009914 195.632319 
L 478.012191 194.56898 
L 476.617394 195.632319 
z
" clip-path="url(#p97c1b627f2)" style="fill: #afd1e7"/>
    <path d="M 294.283513 337.863009 
L 294.39983 337.788153 
L 294.283513 337.741189 
L 294.22334 337.788153 
z
M 303.953443 332.62519 
L 307.489989 330.306267 
L 303.953443 328.880202 
L 302.125967 330.306267 
z
M 302.971127 330.306267 
L 303.953443 329.539719 
L 305.854429 330.306267 
L 303.953443 331.552749 
z
M 313.623374 326.858421 
L 319.643805 322.824381 
L 313.623374 320.384912 
L 310.496743 322.824381 
z
M 311.20935 322.824381 
L 313.623374 320.940905 
L 318.271656 322.824381 
L 313.623374 325.939001 
z
M 323.293304 320.684089 
L 331.077785 315.342495 
L 332.963235 314.186326 
L 341.95603 307.860609 
L 342.633165 307.425843 
L 352.303096 300.467702 
L 352.418618 300.378723 
L 361.973026 293.395278 
L 362.62065 292.896837 
L 371.642956 286.13191 
L 372.575074 285.414951 
L 381.312887 278.705203 
L 382.317095 277.933065 
L 390.982817 271.128479 
L 391.863651 270.451179 
L 400.652748 263.402054 
L 401.215259 262.969293 
L 410.322678 255.513117 
L 410.356061 255.487407 
L 419.476281 248.005521 
L 419.992608 247.542989 
L 428.430061 240.523635 
L 429.662539 239.379198 
L 437.16706 233.041749 
L 439.332469 230.95748 
L 445.629952 225.559863 
L 439.332469 222.374448 
L 435.201321 225.559863 
L 429.662539 229.304289 
L 424.824397 233.041749 
L 419.992608 236.385032 
L 414.643779 240.523635 
L 410.322678 243.582426 
L 404.614293 248.005521 
L 400.652748 250.873944 
L 394.706293 255.487407 
L 390.982817 258.245723 
L 384.901475 262.969293 
L 381.312887 265.690506 
L 375.1901 270.451179 
L 371.642956 273.20639 
L 365.569361 277.933065 
L 361.973026 280.796304 
L 356.042717 285.414951 
L 352.303096 288.468164 
L 346.620138 292.896837 
L 342.633165 296.235777 
L 337.319282 300.378723 
L 332.963235 304.120601 
L 328.167751 307.860609 
L 323.293304 312.15464 
L 319.206752 315.342495 
z
M 319.822392 315.342495 
L 323.293304 312.634891 
L 328.712917 307.860609 
L 332.963235 304.545777 
L 337.814244 300.378723 
L 342.633165 296.621672 
L 347.080929 292.896837 
L 352.303096 288.827254 
L 356.482536 285.414951 
L 361.973026 281.138843 
L 365.999604 277.933065 
L 371.642956 273.54122 
L 375.62117 270.451179 
L 381.312887 266.025677 
L 385.343481 262.969293 
L 390.982817 258.589043 
L 395.169745 255.487407 
L 400.652748 251.233505 
L 405.110879 248.005521 
L 410.322678 243.967201 
L 415.187345 240.523635 
L 419.992608 236.805611 
L 425.432227 233.041749 
L 429.662539 229.773837 
L 436.224245 233.041749 
L 429.662539 238.583006 
L 427.572619 240.523635 
L 419.992608 246.829659 
L 418.679988 248.005521 
L 410.322678 254.855423 
L 409.591104 255.487407 
L 400.652748 262.705484 
L 400.335767 262.969293 
L 390.982817 270.408368 
L 390.929341 270.451179 
L 381.386195 277.933065 
L 381.312887 277.989432 
L 371.642956 285.414951 
L 371.642956 285.414951 
L 361.973026 292.708297 
L 361.705296 292.896837 
L 352.303096 299.83663 
L 351.497117 300.378723 
L 342.633165 306.769438 
L 340.9337 307.860609 
L 332.963235 313.467198 
L 329.905051 315.342495 
L 323.293304 319.879376 
z
M 435.89588 225.559863 
L 439.332469 222.910003 
L 444.571174 225.559863 
L 439.332469 230.049993 
z
M 449.0024 222.19448 
L 453.737002 218.077977 
L 449.0024 215.645862 
L 445.841344 218.077977 
z
M 446.652675 218.077977 
L 449.0024 216.2701 
L 452.521797 218.077977 
L 449.0024 221.137919 
z
M 458.67233 212.971436 
L 461.368003 210.596091 
L 458.67233 209.191182 
L 456.841626 210.596091 
z
M 457.810689 210.596091 
L 458.67233 209.934855 
L 459.941079 210.596091 
L 458.67233 211.714074 
z
" clip-path="url(#p97c1b627f2)" style="fill: #92c4de"/>
    <path d="M 303.953443 331.552749 
L 305.854429 330.306267 
L 303.953443 329.539719 
L 302.971127 330.306267 
z
M 313.623374 325.939001 
L 318.271656 322.824381 
L 313.623374 320.940905 
L 311.20935 322.824381 
z
M 323.293304 319.879376 
L 329.905051 315.342495 
L 332.963235 313.467198 
L 340.9337 307.860609 
L 342.633165 306.769438 
L 351.497117 300.378723 
L 352.303096 299.83663 
L 361.705296 292.896837 
L 361.973026 292.708297 
L 371.642956 285.414951 
L 371.642956 285.414951 
L 381.312887 277.989432 
L 381.386195 277.933065 
L 390.929341 270.451179 
L 390.982817 270.408368 
L 400.335767 262.969293 
L 400.652748 262.705484 
L 409.591104 255.487407 
L 410.322678 254.855423 
L 418.679988 248.005521 
L 419.992608 246.829659 
L 427.572619 240.523635 
L 429.662539 238.583006 
L 436.224245 233.041749 
L 429.662539 229.773837 
L 425.432227 233.041749 
L 419.992608 236.805611 
L 415.187345 240.523635 
L 410.322678 243.967201 
L 405.110879 248.005521 
L 400.652748 251.233505 
L 395.169745 255.487407 
L 390.982817 258.589043 
L 385.343481 262.969293 
L 381.312887 266.025677 
L 375.62117 270.451179 
L 371.642956 273.54122 
L 365.999604 277.933065 
L 361.973026 281.138843 
L 356.482536 285.414951 
L 352.303096 288.827254 
L 347.080929 292.896837 
L 342.633165 296.621672 
L 337.814244 300.378723 
L 332.963235 304.545777 
L 328.712917 307.860609 
L 323.293304 312.634891 
L 319.822392 315.342495 
z
M 321.907931 315.342495 
L 323.293304 314.261787 
L 325.932304 315.342495 
L 323.293304 317.153337 
z
M 330.559717 307.860609 
L 332.963235 305.986101 
L 337.470463 307.860609 
L 332.963235 311.031086 
z
M 339.490974 300.378723 
L 342.633165 297.928927 
L 348.41293 300.378723 
L 342.633165 304.545807 
z
M 348.641901 292.896837 
L 352.303096 290.043704 
L 357.972463 285.414951 
L 361.973026 282.29923 
L 367.457093 277.933065 
L 371.642956 274.675486 
L 377.08146 270.451179 
L 381.312887 267.161102 
L 386.840818 262.969293 
L 390.982817 259.752072 
L 396.739728 255.487407 
L 400.652748 252.451552 
L 407.031727 255.487407 
L 400.652748 260.638685 
L 397.852404 262.969293 
L 390.982817 268.43317 
L 388.462105 270.451179 
L 381.312887 276.046856 
L 378.85879 277.933065 
L 371.642956 283.482631 
L 369.018875 285.414951 
L 361.973026 290.729138 
L 358.894858 292.896837 
L 352.303096 297.762237 
z
M 406.79311 248.005521 
L 410.322678 245.270664 
L 415.982469 248.005521 
L 410.322678 252.644456 
z
M 417.028724 240.523635 
L 419.992608 238.23036 
L 424.667955 240.523635 
L 419.992608 244.413187 
z
M 427.491306 233.041749 
L 429.662539 231.364474 
L 433.030373 233.041749 
L 429.662539 235.885832 
z
M 439.332469 230.049993 
L 444.571174 225.559863 
L 439.332469 222.910003 
L 435.89588 225.559863 
z
M 438.248762 225.559863 
L 439.332469 224.724246 
L 440.984463 225.559863 
L 439.332469 226.975798 
z
M 449.0024 221.137919 
L 452.521797 218.077977 
L 449.0024 216.2701 
L 446.652675 218.077977 
z
M 458.67233 211.714074 
L 459.941079 210.596091 
L 458.67233 209.934855 
L 457.810689 210.596091 
z
" clip-path="url(#p97c1b627f2)" style="fill: #6caed6"/>
    <path d="M 323.293304 317.153337 
L 325.932304 315.342495 
L 323.293304 314.261787 
L 321.907931 315.342495 
z
M 332.963235 311.031086 
L 337.470463 307.860609 
L 332.963235 305.986101 
L 330.559717 307.860609 
z
M 342.633165 304.545807 
L 348.41293 300.378723 
L 342.633165 297.928927 
L 339.490974 300.378723 
z
M 341.673153 300.378723 
L 342.633165 299.630254 
L 344.399016 300.378723 
L 342.633165 301.651863 
z
M 352.303096 297.762237 
L 358.894858 292.896837 
L 361.973026 290.729138 
L 369.018875 285.414951 
L 371.642956 283.482631 
L 378.85879 277.933065 
L 381.312887 276.046856 
L 388.462105 270.451179 
L 390.982817 268.43317 
L 397.852404 262.969293 
L 400.652748 260.638685 
L 407.031727 255.487407 
L 400.652748 252.451552 
L 396.739728 255.487407 
L 390.982817 259.752072 
L 386.840818 262.969293 
L 381.312887 267.161102 
L 377.08146 270.451179 
L 371.642956 274.675486 
L 367.457093 277.933065 
L 361.973026 282.29923 
L 357.972463 285.414951 
L 352.303096 290.043704 
L 348.641901 292.896837 
z
M 350.673427 292.896837 
L 352.303096 291.626853 
L 355.237216 292.896837 
L 352.303096 295.062521 
z
M 359.911527 285.414951 
L 361.973026 283.809413 
L 365.603767 285.414951 
L 361.973026 288.153363 
z
M 369.353941 277.933065 
L 371.642956 276.151677 
L 375.588894 277.933065 
L 371.642956 280.967814 
z
M 378.981953 270.451179 
L 381.312887 268.6388 
L 385.251122 270.451179 
L 381.312887 273.533627 
z
M 388.789526 262.969293 
L 390.982817 261.265695 
L 394.620433 262.969293 
L 390.982817 265.862551 
z
M 398.782982 255.487407 
L 400.652748 254.036779 
L 403.700827 255.487407 
L 400.652748 257.948852 
z
M 410.322678 252.644456 
L 415.982469 248.005521 
L 410.322678 245.270664 
L 406.79311 248.005521 
z
M 408.982448 248.005521 
L 410.322678 246.967055 
L 412.471785 248.005521 
L 410.322678 249.766994 
z
M 419.992608 244.413187 
L 424.667955 240.523635 
L 419.992608 238.23036 
L 417.028724 240.523635 
z
M 419.425187 240.523635 
L 419.992608 240.084598 
L 420.887682 240.523635 
L 419.992608 241.268272 
z
M 429.662539 235.885832 
L 433.030373 233.041749 
L 429.662539 231.364474 
L 427.491306 233.041749 
z
M 439.332469 226.975798 
L 440.984463 225.559863 
L 439.332469 224.724246 
L 438.248762 225.559863 
z
" clip-path="url(#p97c1b627f2)" style="fill: #3686c0"/>
    <path d="M 342.633165 301.651863 
L 344.399016 300.378723 
L 342.633165 299.630254 
L 341.673153 300.378723 
z
M 352.303096 295.062521 
L 355.237216 292.896837 
L 352.303096 291.626853 
L 350.673427 292.896837 
z
M 361.973026 288.153363 
L 365.603767 285.414951 
L 361.973026 283.809413 
L 359.911527 285.414951 
z
M 361.467024 285.414951 
L 361.973026 285.020866 
L 362.864204 285.414951 
L 361.973026 286.087104 
z
M 371.642956 280.967814 
L 375.588894 277.933065 
L 371.642956 276.151677 
L 369.353941 277.933065 
z
M 370.875571 277.933065 
L 371.642956 277.33586 
L 372.965819 277.933065 
L 371.642956 278.950455 
z
M 381.312887 273.533627 
L 385.251122 270.451179 
L 381.312887 268.6388 
L 378.981953 270.451179 
z
M 380.506508 270.451179 
L 381.312887 269.824192 
L 382.675306 270.451179 
L 381.312887 271.517541 
z
M 390.982817 265.862551 
L 394.620433 262.969293 
L 390.982817 261.265695 
L 388.789526 262.969293 
z
M 390.352759 262.969293 
L 390.982817 262.479907 
L 392.027781 262.969293 
L 390.982817 263.800428 
z
M 400.652748 257.948852 
L 403.700827 255.487407 
L 400.652748 254.036779 
L 398.782982 255.487407 
z
M 400.422058 255.487407 
L 400.652748 255.30843 
L 401.028816 255.487407 
L 400.652748 255.791097 
z
M 410.322678 249.766994 
L 412.471785 248.005521 
L 410.322678 246.967055 
L 408.982448 248.005521 
z
M 419.992608 241.268272 
L 420.887682 240.523635 
L 419.992608 240.084598 
L 419.425187 240.523635 
z
" clip-path="url(#p97c1b627f2)" style="fill: #0e59a2"/>
    <path d="M 361.973026 286.087104 
L 362.864204 285.414951 
L 361.973026 285.020866 
L 361.467024 285.414951 
z
M 371.642956 278.950455 
L 372.965819 277.933065 
L 371.642956 277.33586 
L 370.875571 277.933065 
z
M 371.488862 277.933065 
L 371.642956 277.813144 
L 371.908593 277.933065 
L 371.642956 278.137362 
z
M 381.312887 271.517541 
L 382.675306 270.451179 
L 381.312887 269.824192 
L 380.506508 270.451179 
z
M 381.120978 270.451179 
L 381.312887 270.301963 
L 381.637127 270.451179 
L 381.312887 270.704962 
z
M 390.982817 263.800428 
L 392.027781 262.969293 
L 390.982817 262.479907 
L 390.352759 262.969293 
z
M 400.652748 255.791097 
L 401.028816 255.487407 
L 400.652748 255.30843 
L 400.422058 255.487407 
z
" clip-path="url(#p97c1b627f2)" style="fill: #083c7d"/>
    <path d="M 371.642956 278.137362 
L 371.908593 277.933065 
L 371.642956 277.813144 
L 371.488862 277.933065 
z
M 381.312887 270.704962 
L 381.637127 270.451179 
L 381.312887 270.301963 
L 381.120978 270.451179 
z
" clip-path="url(#p97c1b627f2)" style="fill: #08326e"/>
   </g>
   <g id="matplotlib.axis_1">
    <g id="xtick_1">
     <g id="line2d_1">
      <defs>
       <path id="mb1fe119258" d="M 0 0 
L 0 3.5 
" style="stroke: #000000; stroke-width: 0.8"/>
      </defs>
      <g>
       <use xlink:href="#mb1fe119258" x="102.17" y="499.48" style="stroke: #000000; stroke-width: 0.8"/>
      </g>
     </g>
     <g id="text_1">
      <!-- −80 -->
      <g transform="translate(78.954844 523.196563) scale(0.22 -0.22)">
       <defs>
        <path id="DejaVuSans-2212" d="M 678 2272 
L 4684 2272 
L 4684 1741 
L 678 1741 
L 678 2272 
z
" transform="scale(0.015625)"/>
        <path id="DejaVuSans-38" d="M 2034 2216 
Q 1584 2216 1326 1975 
Q 1069 1734 1069 1313 
Q 1069 891 1326 650 
Q 1584 409 2034 409 
Q 2484 409 2743 651 
Q 3003 894 3003 1313 
Q 3003 1734 2745 1975 
Q 2488 2216 2034 2216 
z
M 1403 2484 
Q 997 2584 770 2862 
Q 544 3141 544 3541 
Q 544 4100 942 4425 
Q 1341 4750 2034 4750 
Q 2731 4750 3128 4425 
Q 3525 4100 3525 3541 
Q 3525 3141 3298 2862 
Q 3072 2584 2669 2484 
Q 3125 2378 3379 2068 
Q 3634 1759 3634 1313 
Q 3634 634 3220 271 
Q 2806 -91 2034 -91 
Q 1263 -91 848 271 
Q 434 634 434 1313 
Q 434 1759 690 2068 
Q 947 2378 1403 2484 
z
M 1172 3481 
Q 1172 3119 1398 2916 
Q 1625 2713 2034 2713 
Q 2441 2713 2670 2916 
Q 2900 3119 2900 3481 
Q 2900 3844 2670 4047 
Q 2441 4250 2034 4250 
Q 1625 4250 1398 4047 
Q 1172 3844 1172 3481 
z
" transform="scale(0.015625)"/>
        <path id="DejaVuSans-30" d="M 2034 4250 
Q 1547 4250 1301 3770 
Q 1056 3291 1056 2328 
Q 1056 1369 1301 889 
Q 1547 409 2034 409 
Q 2525 409 2770 889 
Q 3016 1369 3016 2328 
Q 3016 3291 2770 3770 
Q 2525 4250 2034 4250 
z
M 2034 4750 
Q 2819 4750 3233 4129 
Q 3647 3509 3647 2328 
Q 3647 1150 3233 529 
Q 2819 -91 2034 -91 
Q 1250 -91 836 529 
Q 422 1150 422 2328 
Q 422 3509 836 4129 
Q 1250 4750 2034 4750 
z
" transform="scale(0.015625)"/>
       </defs>
       <use xlink:href="#DejaVuSans-2212"/>
       <use xlink:href="#DejaVuSans-38" x="83.789062"/>
       <use xlink:href="#DejaVuSans-30" x="147.412109"/>
      </g>
     </g>
    </g>
    <g id="xtick_2">
     <g id="line2d_2">
      <g>
       <use xlink:href="#mb1fe119258" x="174.67375" y="499.48" style="stroke: #000000; stroke-width: 0.8"/>
      </g>
     </g>
     <g id="text_2">
      <!-- −60 -->
      <g transform="translate(151.458594 523.196563) scale(0.22 -0.22)">
       <defs>
        <path id="DejaVuSans-36" d="M 2113 2584 
Q 1688 2584 1439 2293 
Q 1191 2003 1191 1497 
Q 1191 994 1439 701 
Q 1688 409 2113 409 
Q 2538 409 2786 701 
Q 3034 994 3034 1497 
Q 3034 2003 2786 2293 
Q 2538 2584 2113 2584 
z
M 3366 4563 
L 3366 3988 
Q 3128 4100 2886 4159 
Q 2644 4219 2406 4219 
Q 1781 4219 1451 3797 
Q 1122 3375 1075 2522 
Q 1259 2794 1537 2939 
Q 1816 3084 2150 3084 
Q 2853 3084 3261 2657 
Q 3669 2231 3669 1497 
Q 3669 778 3244 343 
Q 2819 -91 2113 -91 
Q 1303 -91 875 529 
Q 447 1150 447 2328 
Q 447 3434 972 4092 
Q 1497 4750 2381 4750 
Q 2619 4750 2861 4703 
Q 3103 4656 3366 4563 
z
" transform="scale(0.015625)"/>
       </defs>
       <use xlink:href="#DejaVuSans-2212"/>
       <use xlink:href="#DejaVuSans-36" x="83.789062"/>
       <use xlink:href="#DejaVuSans-30" x="147.412109"/>
      </g>
     </g>
    </g>
    <g id="xtick_3">
     <g id="line2d_3">
      <g>
       <use xlink:href="#mb1fe119258" x="247.1775" y="499.48" style="stroke: #000000; stroke-width: 0.8"/>
      </g>
     </g>
     <g id="text_3">
      <!-- −40 -->
      <g transform="translate(223.962344 523.196563) scale(0.22 -0.22)">
       <defs>
        <path id="DejaVuSans-34" d="M 2419 4116 
L 825 1625 
L 2419 1625 
L 2419 4116 
z
M 2253 4666 
L 3047 4666 
L 3047 1625 
L 3713 1625 
L 3713 1100 
L 3047 1100 
L 3047 0 
L 2419 0 
L 2419 1100 
L 313 1100 
L 313 1709 
L 2253 4666 
z
" transform="scale(0.015625)"/>
       </defs>
       <use xlink:href="#DejaVuSans-2212"/>
       <use xlink:href="#DejaVuSans-34" x="83.789062"/>
       <use xlink:href="#DejaVuSans-30" x="147.412109"/>
      </g>
     </g>
    </g>
    <g id="xtick_4">
     <g id="line2d_4">
      <g>
       <use xlink:href="#mb1fe119258" x="319.68125" y="499.48" style="stroke: #000000; stroke-width: 0.8"/>
      </g>
     </g>
     <g id="text_4">
      <!-- −20 -->
      <g transform="translate(296.466094 523.196563) scale(0.22 -0.22)">
       <defs>
        <path id="DejaVuSans-32" d="M 1228 531 
L 3431 531 
L 3431 0 
L 469 0 
L 469 531 
Q 828 903 1448 1529 
Q 2069 2156 2228 2338 
Q 2531 2678 2651 2914 
Q 2772 3150 2772 3378 
Q 2772 3750 2511 3984 
Q 2250 4219 1831 4219 
Q 1534 4219 1204 4116 
Q 875 4013 500 3803 
L 500 4441 
Q 881 4594 1212 4672 
Q 1544 4750 1819 4750 
Q 2544 4750 2975 4387 
Q 3406 4025 3406 3419 
Q 3406 3131 3298 2873 
Q 3191 2616 2906 2266 
Q 2828 2175 2409 1742 
Q 1991 1309 1228 531 
z
" transform="scale(0.015625)"/>
       </defs>
       <use xlink:href="#DejaVuSans-2212"/>
       <use xlink:href="#DejaVuSans-32" x="83.789062"/>
       <use xlink:href="#DejaVuSans-30" x="147.412109"/>
      </g>
     </g>
    </g>
    <g id="xtick_5">
     <g id="line2d_5">
      <g>
       <use xlink:href="#mb1fe119258" x="392.185" y="499.48" style="stroke: #000000; stroke-width: 0.8"/>
      </g>
     </g>
     <g id="text_5">
      <!-- 0 -->
      <g transform="translate(385.18625 523.196563) scale(0.22 -0.22)">
       <use xlink:href="#DejaVuSans-30"/>
      </g>
     </g>
    </g>
    <g id="xtick_6">
     <g id="line2d_6">
      <g>
       <use xlink:href="#mb1fe119258" x="464.68875" y="499.48" style="stroke: #000000; stroke-width: 0.8"/>
      </g>
     </g>
     <g id="text_6">
      <!-- 20 -->
      <g transform="translate(450.69125 523.196563) scale(0.22 -0.22)">
       <use xlink:href="#DejaVuSans-32"/>
       <use xlink:href="#DejaVuSans-30" x="63.623047"/>
      </g>
     </g>
    </g>
    <g id="xtick_7">
     <g id="line2d_7">
      <g>
       <use xlink:href="#mb1fe119258" x="537.1925" y="499.48" style="stroke: #000000; stroke-width: 0.8"/>
      </g>
     </g>
     <g id="text_7">
      <!-- 40 -->
      <g transform="translate(523.195 523.196563) scale(0.22 -0.22)">
       <use xlink:href="#DejaVuSans-34"/>
       <use xlink:href="#DejaVuSans-30" x="63.623047"/>
      </g>
     </g>
    </g>
    <g id="xtick_8">
     <g id="line2d_8">
      <g>
       <use xlink:href="#mb1fe119258" x="609.69625" y="499.48" style="stroke: #000000; stroke-width: 0.8"/>
      </g>
     </g>
     <g id="text_8">
      <!-- 60 -->
      <g transform="translate(595.69875 523.196563) scale(0.22 -0.22)">
       <use xlink:href="#DejaVuSans-36"/>
       <use xlink:href="#DejaVuSans-30" x="63.623047"/>
      </g>
     </g>
    </g>
    <g id="xtick_9">
     <g id="line2d_9">
      <g>
       <use xlink:href="#mb1fe119258" x="682.2" y="499.48" style="stroke: #000000; stroke-width: 0.8"/>
      </g>
     </g>
     <g id="text_9">
      <!-- 80 -->
      <g transform="translate(668.2025 523.196563) scale(0.22 -0.22)">
       <use xlink:href="#DejaVuSans-38"/>
       <use xlink:href="#DejaVuSans-30" x="63.623047"/>
      </g>
     </g>
    </g>
    <g id="text_10">
     <!-- Ground Truth Energy [kJ/mol] -->
     <g transform="translate(232.45125 548.488438) scale(0.22 -0.22)">
      <defs>
       <path id="DejaVuSans-47" d="M 3809 666 
L 3809 1919 
L 2778 1919 
L 2778 2438 
L 4434 2438 
L 4434 434 
Q 4069 175 3628 42 
Q 3188 -91 2688 -91 
Q 1594 -91 976 548 
Q 359 1188 359 2328 
Q 359 3472 976 4111 
Q 1594 4750 2688 4750 
Q 3144 4750 3555 4637 
Q 3966 4525 4313 4306 
L 4313 3634 
Q 3963 3931 3569 4081 
Q 3175 4231 2741 4231 
Q 1884 4231 1454 3753 
Q 1025 3275 1025 2328 
Q 1025 1384 1454 906 
Q 1884 428 2741 428 
Q 3075 428 3337 486 
Q 3600 544 3809 666 
z
" transform="scale(0.015625)"/>
       <path id="DejaVuSans-72" d="M 2631 2963 
Q 2534 3019 2420 3045 
Q 2306 3072 2169 3072 
Q 1681 3072 1420 2755 
Q 1159 2438 1159 1844 
L 1159 0 
L 581 0 
L 581 3500 
L 1159 3500 
L 1159 2956 
Q 1341 3275 1631 3429 
Q 1922 3584 2338 3584 
Q 2397 3584 2469 3576 
Q 2541 3569 2628 3553 
L 2631 2963 
z
" transform="scale(0.015625)"/>
       <path id="DejaVuSans-6f" d="M 1959 3097 
Q 1497 3097 1228 2736 
Q 959 2375 959 1747 
Q 959 1119 1226 758 
Q 1494 397 1959 397 
Q 2419 397 2687 759 
Q 2956 1122 2956 1747 
Q 2956 2369 2687 2733 
Q 2419 3097 1959 3097 
z
M 1959 3584 
Q 2709 3584 3137 3096 
Q 3566 2609 3566 1747 
Q 3566 888 3137 398 
Q 2709 -91 1959 -91 
Q 1206 -91 779 398 
Q 353 888 353 1747 
Q 353 2609 779 3096 
Q 1206 3584 1959 3584 
z
" transform="scale(0.015625)"/>
       <path id="DejaVuSans-75" d="M 544 1381 
L 544 3500 
L 1119 3500 
L 1119 1403 
Q 1119 906 1312 657 
Q 1506 409 1894 409 
Q 2359 409 2629 706 
Q 2900 1003 2900 1516 
L 2900 3500 
L 3475 3500 
L 3475 0 
L 2900 0 
L 2900 538 
Q 2691 219 2414 64 
Q 2138 -91 1772 -91 
Q 1169 -91 856 284 
Q 544 659 544 1381 
z
M 1991 3584 
L 1991 3584 
z
" transform="scale(0.015625)"/>
       <path id="DejaVuSans-6e" d="M 3513 2113 
L 3513 0 
L 2938 0 
L 2938 2094 
Q 2938 2591 2744 2837 
Q 2550 3084 2163 3084 
Q 1697 3084 1428 2787 
Q 1159 2491 1159 1978 
L 1159 0 
L 581 0 
L 581 3500 
L 1159 3500 
L 1159 2956 
Q 1366 3272 1645 3428 
Q 1925 3584 2291 3584 
Q 2894 3584 3203 3211 
Q 3513 2838 3513 2113 
z
" transform="scale(0.015625)"/>
       <path id="DejaVuSans-64" d="M 2906 2969 
L 2906 4863 
L 3481 4863 
L 3481 0 
L 2906 0 
L 2906 525 
Q 2725 213 2448 61 
Q 2172 -91 1784 -91 
Q 1150 -91 751 415 
Q 353 922 353 1747 
Q 353 2572 751 3078 
Q 1150 3584 1784 3584 
Q 2172 3584 2448 3432 
Q 2725 3281 2906 2969 
z
M 947 1747 
Q 947 1113 1208 752 
Q 1469 391 1925 391 
Q 2381 391 2643 752 
Q 2906 1113 2906 1747 
Q 2906 2381 2643 2742 
Q 2381 3103 1925 3103 
Q 1469 3103 1208 2742 
Q 947 2381 947 1747 
z
" transform="scale(0.015625)"/>
       <path id="DejaVuSans-20" transform="scale(0.015625)"/>
       <path id="DejaVuSans-54" d="M -19 4666 
L 3928 4666 
L 3928 4134 
L 2272 4134 
L 2272 0 
L 1638 0 
L 1638 4134 
L -19 4134 
L -19 4666 
z
" transform="scale(0.015625)"/>
       <path id="DejaVuSans-74" d="M 1172 4494 
L 1172 3500 
L 2356 3500 
L 2356 3053 
L 1172 3053 
L 1172 1153 
Q 1172 725 1289 603 
Q 1406 481 1766 481 
L 2356 481 
L 2356 0 
L 1766 0 
Q 1100 0 847 248 
Q 594 497 594 1153 
L 594 3053 
L 172 3053 
L 172 3500 
L 594 3500 
L 594 4494 
L 1172 4494 
z
" transform="scale(0.015625)"/>
       <path id="DejaVuSans-68" d="M 3513 2113 
L 3513 0 
L 2938 0 
L 2938 2094 
Q 2938 2591 2744 2837 
Q 2550 3084 2163 3084 
Q 1697 3084 1428 2787 
Q 1159 2491 1159 1978 
L 1159 0 
L 581 0 
L 581 4863 
L 1159 4863 
L 1159 2956 
Q 1366 3272 1645 3428 
Q 1925 3584 2291 3584 
Q 2894 3584 3203 3211 
Q 3513 2838 3513 2113 
z
" transform="scale(0.015625)"/>
       <path id="DejaVuSans-45" d="M 628 4666 
L 3578 4666 
L 3578 4134 
L 1259 4134 
L 1259 2753 
L 3481 2753 
L 3481 2222 
L 1259 2222 
L 1259 531 
L 3634 531 
L 3634 0 
L 628 0 
L 628 4666 
z
" transform="scale(0.015625)"/>
       <path id="DejaVuSans-65" d="M 3597 1894 
L 3597 1613 
L 953 1613 
Q 991 1019 1311 708 
Q 1631 397 2203 397 
Q 2534 397 2845 478 
Q 3156 559 3463 722 
L 3463 178 
Q 3153 47 2828 -22 
Q 2503 -91 2169 -91 
Q 1331 -91 842 396 
Q 353 884 353 1716 
Q 353 2575 817 3079 
Q 1281 3584 2069 3584 
Q 2775 3584 3186 3129 
Q 3597 2675 3597 1894 
z
M 3022 2063 
Q 3016 2534 2758 2815 
Q 2500 3097 2075 3097 
Q 1594 3097 1305 2825 
Q 1016 2553 972 2059 
L 3022 2063 
z
" transform="scale(0.015625)"/>
       <path id="DejaVuSans-67" d="M 2906 1791 
Q 2906 2416 2648 2759 
Q 2391 3103 1925 3103 
Q 1463 3103 1205 2759 
Q 947 2416 947 1791 
Q 947 1169 1205 825 
Q 1463 481 1925 481 
Q 2391 481 2648 825 
Q 2906 1169 2906 1791 
z
M 3481 434 
Q 3481 -459 3084 -895 
Q 2688 -1331 1869 -1331 
Q 1566 -1331 1297 -1286 
Q 1028 -1241 775 -1147 
L 775 -588 
Q 1028 -725 1275 -790 
Q 1522 -856 1778 -856 
Q 2344 -856 2625 -561 
Q 2906 -266 2906 331 
L 2906 616 
Q 2728 306 2450 153 
Q 2172 0 1784 0 
Q 1141 0 747 490 
Q 353 981 353 1791 
Q 353 2603 747 3093 
Q 1141 3584 1784 3584 
Q 2172 3584 2450 3431 
Q 2728 3278 2906 2969 
L 2906 3500 
L 3481 3500 
L 3481 434 
z
" transform="scale(0.015625)"/>
       <path id="DejaVuSans-79" d="M 2059 -325 
Q 1816 -950 1584 -1140 
Q 1353 -1331 966 -1331 
L 506 -1331 
L 506 -850 
L 844 -850 
Q 1081 -850 1212 -737 
Q 1344 -625 1503 -206 
L 1606 56 
L 191 3500 
L 800 3500 
L 1894 763 
L 2988 3500 
L 3597 3500 
L 2059 -325 
z
" transform="scale(0.015625)"/>
       <path id="DejaVuSans-5b" d="M 550 4863 
L 1875 4863 
L 1875 4416 
L 1125 4416 
L 1125 -397 
L 1875 -397 
L 1875 -844 
L 550 -844 
L 550 4863 
z
" transform="scale(0.015625)"/>
       <path id="DejaVuSans-6b" d="M 581 4863 
L 1159 4863 
L 1159 1991 
L 2875 3500 
L 3609 3500 
L 1753 1863 
L 3688 0 
L 2938 0 
L 1159 1709 
L 1159 0 
L 581 0 
L 581 4863 
z
" transform="scale(0.015625)"/>
       <path id="DejaVuSans-4a" d="M 628 4666 
L 1259 4666 
L 1259 325 
Q 1259 -519 939 -900 
Q 619 -1281 -91 -1281 
L -331 -1281 
L -331 -750 
L -134 -750 
Q 284 -750 456 -515 
Q 628 -281 628 325 
L 628 4666 
z
" transform="scale(0.015625)"/>
       <path id="DejaVuSans-2f" d="M 1625 4666 
L 2156 4666 
L 531 -594 
L 0 -594 
L 1625 4666 
z
" transform="scale(0.015625)"/>
       <path id="DejaVuSans-6d" d="M 3328 2828 
Q 3544 3216 3844 3400 
Q 4144 3584 4550 3584 
Q 5097 3584 5394 3201 
Q 5691 2819 5691 2113 
L 5691 0 
L 5113 0 
L 5113 2094 
Q 5113 2597 4934 2840 
Q 4756 3084 4391 3084 
Q 3944 3084 3684 2787 
Q 3425 2491 3425 1978 
L 3425 0 
L 2847 0 
L 2847 2094 
Q 2847 2600 2669 2842 
Q 2491 3084 2119 3084 
Q 1678 3084 1418 2786 
Q 1159 2488 1159 1978 
L 1159 0 
L 581 0 
L 581 3500 
L 1159 3500 
L 1159 2956 
Q 1356 3278 1631 3431 
Q 1906 3584 2284 3584 
Q 2666 3584 2933 3390 
Q 3200 3197 3328 2828 
z
" transform="scale(0.015625)"/>
       <path id="DejaVuSans-6c" d="M 603 4863 
L 1178 4863 
L 1178 0 
L 603 0 
L 603 4863 
z
" transform="scale(0.015625)"/>
       <path id="DejaVuSans-5d" d="M 1947 4863 
L 1947 -844 
L 622 -844 
L 622 -397 
L 1369 -397 
L 1369 4416 
L 622 4416 
L 622 4863 
L 1947 4863 
z
" transform="scale(0.015625)"/>
      </defs>
      <use xlink:href="#DejaVuSans-47"/>
      <use xlink:href="#DejaVuSans-72" x="77.490234"/>
      <use xlink:href="#DejaVuSans-6f" x="116.353516"/>
      <use xlink:href="#DejaVuSans-75" x="177.535156"/>
      <use xlink:href="#DejaVuSans-6e" x="240.914062"/>
      <use xlink:href="#DejaVuSans-64" x="304.292969"/>
      <use xlink:href="#DejaVuSans-20" x="367.769531"/>
      <use xlink:href="#DejaVuSans-54" x="399.556641"/>
      <use xlink:href="#DejaVuSans-72" x="445.890625"/>
      <use xlink:href="#DejaVuSans-75" x="487.003906"/>
      <use xlink:href="#DejaVuSans-74" x="550.382812"/>
      <use xlink:href="#DejaVuSans-68" x="589.591797"/>
      <use xlink:href="#DejaVuSans-20" x="652.970703"/>
      <use xlink:href="#DejaVuSans-45" x="684.757812"/>
      <use xlink:href="#DejaVuSans-6e" x="747.941406"/>
      <use xlink:href="#DejaVuSans-65" x="811.320312"/>
      <use xlink:href="#DejaVuSans-72" x="872.84375"/>
      <use xlink:href="#DejaVuSans-67" x="912.207031"/>
      <use xlink:href="#DejaVuSans-79" x="975.683594"/>
      <use xlink:href="#DejaVuSans-20" x="1034.863281"/>
      <use xlink:href="#DejaVuSans-5b" x="1066.650391"/>
      <use xlink:href="#DejaVuSans-6b" x="1105.664062"/>
      <use xlink:href="#DejaVuSans-4a" x="1163.574219"/>
      <use xlink:href="#DejaVuSans-2f" x="1193.066406"/>
      <use xlink:href="#DejaVuSans-6d" x="1226.757812"/>
      <use xlink:href="#DejaVuSans-6f" x="1324.169922"/>
      <use xlink:href="#DejaVuSans-6c" x="1385.351562"/>
      <use xlink:href="#DejaVuSans-5d" x="1413.134766"/>
     </g>
    </g>
   </g>
   <g id="matplotlib.axis_2">
    <g id="ytick_1">
     <g id="line2d_10">
      <defs>
       <path id="m13c434615c" d="M 0 0 
L -3.5 0 
" style="stroke: #000000; stroke-width: 0.8"/>
      </defs>
      <g>
       <use xlink:href="#m13c434615c" x="102.17" y="499.48" style="stroke: #000000; stroke-width: 0.8"/>
      </g>
     </g>
     <g id="text_11">
      <!-- −80 -->
      <g transform="translate(48.739688 507.838281) scale(0.22 -0.22)">
       <use xlink:href="#DejaVuSans-2212"/>
       <use xlink:href="#DejaVuSans-38" x="83.789062"/>
       <use xlink:href="#DejaVuSans-30" x="147.412109"/>
      </g>
     </g>
    </g>
    <g id="ytick_2">
     <g id="line2d_11">
      <g>
       <use xlink:href="#m13c434615c" x="102.17" y="441.05" style="stroke: #000000; stroke-width: 0.8"/>
      </g>
     </g>
     <g id="text_12">
      <!-- −60 -->
      <g transform="translate(48.739688 449.408281) scale(0.22 -0.22)">
       <use xlink:href="#DejaVuSans-2212"/>
       <use xlink:href="#DejaVuSans-36" x="83.789062"/>
       <use xlink:href="#DejaVuSans-30" x="147.412109"/>
      </g>
     </g>
    </g>
    <g id="ytick_3">
     <g id="line2d_12">
      <g>
       <use xlink:href="#m13c434615c" x="102.17" y="382.62" style="stroke: #000000; stroke-width: 0.8"/>
      </g>
     </g>
     <g id="text_13">
      <!-- −40 -->
      <g transform="translate(48.739688 390.978281) scale(0.22 -0.22)">
       <use xlink:href="#DejaVuSans-2212"/>
       <use xlink:href="#DejaVuSans-34" x="83.789062"/>
       <use xlink:href="#DejaVuSans-30" x="147.412109"/>
      </g>
     </g>
    </g>
    <g id="ytick_4">
     <g id="line2d_13">
      <g>
       <use xlink:href="#m13c434615c" x="102.17" y="324.19" style="stroke: #000000; stroke-width: 0.8"/>
      </g>
     </g>
     <g id="text_14">
      <!-- −20 -->
      <g transform="translate(48.739688 332.548281) scale(0.22 -0.22)">
       <use xlink:href="#DejaVuSans-2212"/>
       <use xlink:href="#DejaVuSans-32" x="83.789062"/>
       <use xlink:href="#DejaVuSans-30" x="147.412109"/>
      </g>
     </g>
    </g>
    <g id="ytick_5">
     <g id="line2d_14">
      <g>
       <use xlink:href="#m13c434615c" x="102.17" y="265.76" style="stroke: #000000; stroke-width: 0.8"/>
      </g>
     </g>
     <g id="text_15">
      <!-- 0 -->
      <g transform="translate(81.1725 274.118281) scale(0.22 -0.22)">
       <use xlink:href="#DejaVuSans-30"/>
      </g>
     </g>
    </g>
    <g id="ytick_6">
     <g id="line2d_15">
      <g>
       <use xlink:href="#m13c434615c" x="102.17" y="207.33" style="stroke: #000000; stroke-width: 0.8"/>
      </g>
     </g>
     <g id="text_16">
      <!-- 20 -->
      <g transform="translate(67.175 215.688281) scale(0.22 -0.22)">
       <use xlink:href="#DejaVuSans-32"/>
       <use xlink:href="#DejaVuSans-30" x="63.623047"/>
      </g>
     </g>
    </g>
    <g id="ytick_7">
     <g id="line2d_16">
      <g>
       <use xlink:href="#m13c434615c" x="102.17" y="148.9" style="stroke: #000000; stroke-width: 0.8"/>
      </g>
     </g>
     <g id="text_17">
      <!-- 40 -->
      <g transform="translate(67.175 157.258281) scale(0.22 -0.22)">
       <use xlink:href="#DejaVuSans-34"/>
       <use xlink:href="#DejaVuSans-30" x="63.623047"/>
      </g>
     </g>
    </g>
    <g id="ytick_8">
     <g id="line2d_17">
      <g>
       <use xlink:href="#m13c434615c" x="102.17" y="90.47" style="stroke: #000000; stroke-width: 0.8"/>
      </g>
     </g>
     <g id="text_18">
      <!-- 60 -->
      <g transform="translate(67.175 98.828281) scale(0.22 -0.22)">
       <use xlink:href="#DejaVuSans-36"/>
       <use xlink:href="#DejaVuSans-30" x="63.623047"/>
      </g>
     </g>
    </g>
    <g id="ytick_9">
     <g id="line2d_18">
      <g>
       <use xlink:href="#m13c434615c" x="102.17" y="32.04" style="stroke: #000000; stroke-width: 0.8"/>
      </g>
     </g>
     <g id="text_19">
      <!-- 80 -->
      <g transform="translate(67.175 40.398281) scale(0.22 -0.22)">
       <use xlink:href="#DejaVuSans-38"/>
       <use xlink:href="#DejaVuSans-30" x="63.623047"/>
      </g>
     </g>
    </g>
    <g id="text_20">
     <!-- Predicted Energy [kJ/mol] -->
     <g transform="translate(40.164375 405.305313) rotate(-90) scale(0.22 -0.22)">
      <defs>
       <path id="DejaVuSans-50" d="M 1259 4147 
L 1259 2394 
L 2053 2394 
Q 2494 2394 2734 2622 
Q 2975 2850 2975 3272 
Q 2975 3691 2734 3919 
Q 2494 4147 2053 4147 
L 1259 4147 
z
M 628 4666 
L 2053 4666 
Q 2838 4666 3239 4311 
Q 3641 3956 3641 3272 
Q 3641 2581 3239 2228 
Q 2838 1875 2053 1875 
L 1259 1875 
L 1259 0 
L 628 0 
L 628 4666 
z
" transform="scale(0.015625)"/>
       <path id="DejaVuSans-69" d="M 603 3500 
L 1178 3500 
L 1178 0 
L 603 0 
L 603 3500 
z
M 603 4863 
L 1178 4863 
L 1178 4134 
L 603 4134 
L 603 4863 
z
" transform="scale(0.015625)"/>
       <path id="DejaVuSans-63" d="M 3122 3366 
L 3122 2828 
Q 2878 2963 2633 3030 
Q 2388 3097 2138 3097 
Q 1578 3097 1268 2742 
Q 959 2388 959 1747 
Q 959 1106 1268 751 
Q 1578 397 2138 397 
Q 2388 397 2633 464 
Q 2878 531 3122 666 
L 3122 134 
Q 2881 22 2623 -34 
Q 2366 -91 2075 -91 
Q 1284 -91 818 406 
Q 353 903 353 1747 
Q 353 2603 823 3093 
Q 1294 3584 2113 3584 
Q 2378 3584 2631 3529 
Q 2884 3475 3122 3366 
z
" transform="scale(0.015625)"/>
      </defs>
      <use xlink:href="#DejaVuSans-50"/>
      <use xlink:href="#DejaVuSans-72" x="58.552734"/>
      <use xlink:href="#DejaVuSans-65" x="97.416016"/>
      <use xlink:href="#DejaVuSans-64" x="158.939453"/>
      <use xlink:href="#DejaVuSans-69" x="222.416016"/>
      <use xlink:href="#DejaVuSans-63" x="250.199219"/>
      <use xlink:href="#DejaVuSans-74" x="305.179688"/>
      <use xlink:href="#DejaVuSans-65" x="344.388672"/>
      <use xlink:href="#DejaVuSans-64" x="405.912109"/>
      <use xlink:href="#DejaVuSans-20" x="469.388672"/>
      <use xlink:href="#DejaVuSans-45" x="501.175781"/>
      <use xlink:href="#DejaVuSans-6e" x="564.359375"/>
      <use xlink:href="#DejaVuSans-65" x="627.738281"/>
      <use xlink:href="#DejaVuSans-72" x="689.261719"/>
      <use xlink:href="#DejaVuSans-67" x="728.625"/>
      <use xlink:href="#DejaVuSans-79" x="792.101562"/>
      <use xlink:href="#DejaVuSans-20" x="851.28125"/>
      <use xlink:href="#DejaVuSans-5b" x="883.068359"/>
      <use xlink:href="#DejaVuSans-6b" x="922.082031"/>
      <use xlink:href="#DejaVuSans-4a" x="979.992188"/>
      <use xlink:href="#DejaVuSans-2f" x="1009.484375"/>
      <use xlink:href="#DejaVuSans-6d" x="1043.175781"/>
      <use xlink:href="#DejaVuSans-6f" x="1140.587891"/>
      <use xlink:href="#DejaVuSans-6c" x="1201.769531"/>
      <use xlink:href="#DejaVuSans-5d" x="1229.552734"/>
     </g>
    </g>
   </g>
   <g id="line2d_19">
    <path d="M 102.17 499.48 
L 682.2 32.04 
" clip-path="url(#p97c1b627f2)" style="fill: none; stroke-dasharray: 5.55,2.4; stroke-dashoffset: 0; stroke: #ff0000; stroke-width: 1.5"/>
   </g>
   <g id="patch_3">
    <path d="M 102.17 499.48 
L 102.17 32.04 
" style="fill: none; stroke: #000000; stroke-width: 0.8; stroke-linejoin: miter; stroke-linecap: square"/>
   </g>
   <g id="patch_4">
    <path d="M 682.2 499.48 
L 682.2 32.04 
" style="fill: none; stroke: #000000; stroke-width: 0.8; stroke-linejoin: miter; stroke-linecap: square"/>
   </g>
   <g id="patch_5">
    <path d="M 102.17 499.48 
L 682.2 499.48 
" style="fill: none; stroke: #000000; stroke-width: 0.8; stroke-linejoin: miter; stroke-linecap: square"/>
   </g>
   <g id="patch_6">
    <path d="M 102.17 32.04 
L 682.2 32.04 
" style="fill: none; stroke: #000000; stroke-width: 0.8; stroke-linejoin: miter; stroke-linecap: square"/>
   </g>
   <g id="text_21">
    <!-- R2 Score: 0.992 -->
    <g transform="translate(160.173 78.784) scale(0.22 -0.22)">
     <defs>
      <path id="DejaVuSans-52" d="M 2841 2188 
Q 3044 2119 3236 1894 
Q 3428 1669 3622 1275 
L 4263 0 
L 3584 0 
L 2988 1197 
Q 2756 1666 2539 1819 
Q 2322 1972 1947 1972 
L 1259 1972 
L 1259 0 
L 628 0 
L 628 4666 
L 2053 4666 
Q 2853 4666 3247 4331 
Q 3641 3997 3641 3322 
Q 3641 2881 3436 2590 
Q 3231 2300 2841 2188 
z
M 1259 4147 
L 1259 2491 
L 2053 2491 
Q 2509 2491 2742 2702 
Q 2975 2913 2975 3322 
Q 2975 3731 2742 3939 
Q 2509 4147 2053 4147 
L 1259 4147 
z
" transform="scale(0.015625)"/>
      <path id="DejaVuSans-53" d="M 3425 4513 
L 3425 3897 
Q 3066 4069 2747 4153 
Q 2428 4238 2131 4238 
Q 1616 4238 1336 4038 
Q 1056 3838 1056 3469 
Q 1056 3159 1242 3001 
Q 1428 2844 1947 2747 
L 2328 2669 
Q 3034 2534 3370 2195 
Q 3706 1856 3706 1288 
Q 3706 609 3251 259 
Q 2797 -91 1919 -91 
Q 1588 -91 1214 -16 
Q 841 59 441 206 
L 441 856 
Q 825 641 1194 531 
Q 1563 422 1919 422 
Q 2459 422 2753 634 
Q 3047 847 3047 1241 
Q 3047 1584 2836 1778 
Q 2625 1972 2144 2069 
L 1759 2144 
Q 1053 2284 737 2584 
Q 422 2884 422 3419 
Q 422 4038 858 4394 
Q 1294 4750 2059 4750 
Q 2388 4750 2728 4690 
Q 3069 4631 3425 4513 
z
" transform="scale(0.015625)"/>
      <path id="DejaVuSans-3a" d="M 750 794 
L 1409 794 
L 1409 0 
L 750 0 
L 750 794 
z
M 750 3309 
L 1409 3309 
L 1409 2516 
L 750 2516 
L 750 3309 
z
" transform="scale(0.015625)"/>
      <path id="DejaVuSans-2e" d="M 684 794 
L 1344 794 
L 1344 0 
L 684 0 
L 684 794 
z
" transform="scale(0.015625)"/>
      <path id="DejaVuSans-39" d="M 703 97 
L 703 672 
Q 941 559 1184 500 
Q 1428 441 1663 441 
Q 2288 441 2617 861 
Q 2947 1281 2994 2138 
Q 2813 1869 2534 1725 
Q 2256 1581 1919 1581 
Q 1219 1581 811 2004 
Q 403 2428 403 3163 
Q 403 3881 828 4315 
Q 1253 4750 1959 4750 
Q 2769 4750 3195 4129 
Q 3622 3509 3622 2328 
Q 3622 1225 3098 567 
Q 2575 -91 1691 -91 
Q 1453 -91 1209 -44 
Q 966 3 703 97 
z
M 1959 2075 
Q 2384 2075 2632 2365 
Q 2881 2656 2881 3163 
Q 2881 3666 2632 3958 
Q 2384 4250 1959 4250 
Q 1534 4250 1286 3958 
Q 1038 3666 1038 3163 
Q 1038 2656 1286 2365 
Q 1534 2075 1959 2075 
z
" transform="scale(0.015625)"/>
     </defs>
     <use xlink:href="#DejaVuSans-52"/>
     <use xlink:href="#DejaVuSans-32" x="69.482422"/>
     <use xlink:href="#DejaVuSans-20" x="133.105469"/>
     <use xlink:href="#DejaVuSans-53" x="164.892578"/>
     <use xlink:href="#DejaVuSans-63" x="228.369141"/>
     <use xlink:href="#DejaVuSans-6f" x="283.349609"/>
     <use xlink:href="#DejaVuSans-72" x="344.53125"/>
     <use xlink:href="#DejaVuSans-65" x="383.394531"/>
     <use xlink:href="#DejaVuSans-3a" x="444.917969"/>
     <use xlink:href="#DejaVuSans-20" x="478.609375"/>
     <use xlink:href="#DejaVuSans-30" x="510.396484"/>
     <use xlink:href="#DejaVuSans-2e" x="574.019531"/>
     <use xlink:href="#DejaVuSans-39" x="605.806641"/>
     <use xlink:href="#DejaVuSans-39" x="669.429688"/>
     <use xlink:href="#DejaVuSans-32" x="733.052734"/>
    </g>
   </g>
  </g>
 </g>
 <defs>
  <clipPath id="p97c1b627f2">
   <rect x="102.17" y="32.04" width="580.03" height="467.44"/>
  </clipPath>
 </defs>
</svg>
