<?xml version="1.0" encoding="utf-8" standalone="no"?>
<!DOCTYPE svg PUBLIC "-//W3C//DTD SVG 1.1//EN"
  "http://www.w3.org/Graphics/SVG/1.1/DTD/svg11.dtd">
<svg xmlns:xlink="http://www.w3.org/1999/xlink" width="720pt" height="576pt" viewBox="0 0 720 576" xmlns="http://www.w3.org/2000/svg" version="1.1">
 <metadata>
  <rdf:RDF xmlns:dc="http://purl.org/dc/elements/1.1/" xmlns:cc="http://creativecommons.org/ns#" xmlns:rdf="http://www.w3.org/1999/02/22-rdf-syntax-ns#">
   <cc:Work>
    <dc:type rdf:resource="http://purl.org/dc/dcmitype/StillImage"/>
    <dc:date>2024-12-07T23:06:09.673984</dc:date>
    <dc:format>image/svg+xml</dc:format>
    <dc:creator>
     <cc:Agent>
      <dc:title>Matplotlib v3.8.4, https://matplotlib.org/</dc:title>
     </cc:Agent>
    </dc:creator>
   </cc:Work>
  </rdf:RDF>
 </metadata>
 <defs>
  <style type="text/css">*{stroke-linejoin: round; stroke-linecap: butt}</style>
 </defs>
 <g id="figure_1">
  <g id="patch_1">
   <path d="M 0 576 
L 720 576 
L 720 0 
L 0 0 
z
" style="fill: #ffffff"/>
  </g>
  <g id="axes_1">
   <g id="patch_2">
    <path d="M 102.17 499.48 
L 682.2 499.48 
L 682.2 32.04 
L 102.17 32.04 
z
" style="fill: #ffffff"/>
   </g>
   <g id="QuadContourSet_1">
    <path d="M 244.026316 386.301316 
L 244.320867 386.092322 
L 244.026316 385.850792 
L 243.72537 386.092322 
z
M 253.326931 381.625821 
L 256.21838 379.57762 
L 253.326931 376.659569 
L 250.066312 379.57762 
z
M 262.627547 376.031276 
L 266.830462 373.062917 
L 271.928162 369.947238 
L 276.754188 366.548214 
L 281.228777 363.54977 
L 286.231773 360.033512 
L 290.529392 356.896541 
L 295.34216 353.518809 
L 299.830007 349.97197 
L 304.062543 347.004106 
L 309.130622 342.690733 
L 312.271608 340.489403 
L 318.431238 334.869105 
L 319.707783 333.974701 
L 327.625079 327.459998 
L 327.731853 327.39601 
L 336.796761 320.945295 
L 337.032468 320.790496 
L 346.012542 314.430593 
L 346.333083 314.201227 
L 355.23735 307.91589 
L 355.633698 307.608325 
L 364.447393 301.401187 
L 364.934313 300.993316 
L 373.619124 294.886485 
L 374.234929 294.332457 
L 382.720497 288.371782 
L 383.535544 287.58875 
L 391.700096 281.857079 
L 392.836159 280.699773 
L 400.470119 275.342377 
L 402.136774 273.557701 
L 408.87798 268.827674 
L 411.437389 265.975387 
L 416.657766 262.312971 
L 420.738004 257.623255 
L 423.339789 255.798268 
L 429.946374 249.283566 
L 430.03862 249.198336 
L 438.984913 242.768863 
L 439.339235 242.422413 
L 447.959723 236.25416 
L 448.63985 235.556955 
L 456.796567 229.739458 
L 457.940465 228.523163 
L 465.39104 223.224755 
L 467.24108 221.203915 
L 473.579135 216.710052 
L 476.541695 213.401995 
L 481.077913 210.19535 
L 485.842311 204.743556 
L 487.350093 203.680647 
L 494.630824 197.165944 
L 495.142926 196.638334 
L 503.019582 190.651241 
L 504.443541 189.134039 
L 511.094703 184.136539 
L 513.744156 181.273107 
L 518.662016 177.621836 
L 523.044771 172.936937 
L 525.542515 171.107133 
L 531.79354 164.592431 
L 532.345386 164.021904 
L 538.690445 158.077728 
L 541.646002 154.810169 
L 545.286561 151.563025 
L 541.646002 148.608276 
L 537.753551 151.563025 
L 532.345386 154.11295 
L 527.049135 158.077728 
L 523.044771 160.240245 
L 517.162429 164.592431 
L 513.744156 166.646217 
L 507.655745 171.107133 
L 504.443541 173.219166 
L 498.382558 177.621836 
L 495.142926 179.925397 
L 489.299192 184.136539 
L 485.842311 186.770114 
L 480.416522 190.651241 
L 476.541695 193.78983 
L 471.790403 197.165944 
L 467.24108 201.053714 
L 463.523339 203.680647 
L 457.940465 208.656369 
L 455.753308 210.19535 
L 448.63985 216.667306 
L 448.57896 216.710052 
L 439.504822 223.224755 
L 439.339235 223.339664 
L 430.307262 229.739458 
L 430.03862 229.941771 
L 421.091114 236.25416 
L 420.738004 236.54304 
L 411.900288 242.768863 
L 411.437389 243.180906 
L 402.791054 249.283566 
L 402.136774 249.918652 
L 393.855216 255.798268 
L 392.836159 256.880245 
L 385.262508 262.312971 
L 383.535544 264.326858 
L 377.353573 268.827674 
L 374.234929 272.842198 
L 370.865441 275.342377 
L 365.014705 281.857079 
L 364.934313 281.924708 
L 355.919144 288.371782 
L 355.633698 288.632072 
L 346.828984 294.886485 
L 346.333083 295.377326 
L 337.81314 301.401187 
L 337.032468 302.241311 
L 328.980589 307.91589 
L 327.731853 309.379279 
L 320.548624 314.430593 
L 318.431238 317.136342 
L 313.006802 320.945295 
L 309.130622 326.352544 
L 307.551968 327.459998 
L 300.187493 333.974701 
L 299.830007 334.326978 
L 291.361771 340.489403 
L 290.529392 341.381097 
L 282.702083 347.004106 
L 281.228777 348.721046 
L 274.492468 353.518809 
L 271.928162 356.772814 
L 267.323527 360.033512 
L 262.627547 366.53055 
L 262.602506 366.548214 
L 257.039343 373.062917 
z
M 286.819043 347.004106 
L 290.529392 344.338653 
L 294.122592 340.489403 
L 299.830007 336.336057 
L 302.22628 333.974701 
L 309.130622 328.85142 
L 310.66535 327.459998 
L 318.431238 321.521471 
L 319.122983 320.945295 
L 325.983305 314.430593 
L 327.731853 313.200998 
L 332.241729 307.91589 
L 337.032468 304.539606 
L 339.948795 301.401187 
L 346.333083 296.887299 
L 348.354525 294.886485 
L 355.633698 289.715737 
L 357.107537 288.371782 
L 364.934313 282.774571 
L 366.024945 281.857079 
L 374.234929 275.929216 
L 374.9907 275.342377 
L 383.535544 269.087481 
L 383.898616 268.827674 
L 391.465812 262.312971 
L 392.836159 261.329995 
L 398.046202 255.798268 
L 402.136774 252.894106 
L 405.856431 249.283566 
L 411.437389 245.344476 
L 414.330893 242.768863 
L 420.738004 238.255306 
L 423.184085 236.25416 
L 430.03862 231.418344 
L 432.26793 229.739458 
L 439.339235 224.728936 
L 441.506807 223.224755 
L 448.63985 218.134941 
L 450.868455 216.710052 
L 457.940465 211.614445 
L 460.356617 210.19535 
L 467.24108 205.170725 
L 470.030958 203.680647 
L 476.541695 198.849246 
L 480.110575 197.165944 
L 485.842311 192.823688 
L 490.175648 197.165944 
L 485.842311 200.506301 
L 482.613598 203.680647 
L 476.541695 208.461545 
L 474.675737 210.19535 
L 467.24108 216.264832 
L 466.729487 216.710052 
L 460.347829 223.224755 
L 457.940465 224.93673 
L 453.423606 229.739458 
L 448.63985 233.151307 
L 445.613003 236.25416 
L 439.339235 240.743254 
L 437.267601 242.768863 
L 430.03862 247.964148 
L 428.610586 249.283566 
L 420.738004 254.979104 
L 419.792739 255.798268 
L 411.437389 261.906106 
L 410.933674 262.312971 
L 402.31705 268.827674 
L 402.136774 268.954166 
L 396.171014 275.342377 
L 392.836159 277.682727 
L 388.738429 281.857079 
L 383.535544 285.509604 
L 380.556342 288.371782 
L 374.234929 292.812249 
L 371.929406 294.886485 
L 364.934313 299.80517 
L 363.028973 301.401187 
L 355.633698 306.609388 
L 353.950053 307.91589 
L 346.333083 313.292551 
L 344.742657 314.430593 
L 337.032468 319.891134 
L 335.427335 320.945295 
L 327.731853 326.421507 
L 325.998985 327.459998 
L 318.431238 332.882396 
L 316.414733 333.974701 
L 309.130622 339.244828 
L 306.536265 340.489403 
L 299.830007 345.405385 
L 295.856275 347.004106 
L 290.529392 350.967829 
z
M 491.564233 190.651241 
L 495.142926 187.879961 
L 496.980824 190.651241 
L 495.142926 192.048238 
z
" clip-path="url(#p193ca821b2)" style="fill: #eef5fc"/>
    <path d="M 290.529392 350.967829 
L 295.856275 347.004106 
L 299.830007 345.405385 
L 306.536265 340.489403 
L 309.130622 339.244828 
L 316.414733 333.974701 
L 318.431238 332.882396 
L 325.998985 327.459998 
L 327.731853 326.421507 
L 335.427335 320.945295 
L 337.032468 319.891134 
L 344.742657 314.430593 
L 346.333083 313.292551 
L 353.950053 307.91589 
L 355.633698 306.609388 
L 363.028973 301.401187 
L 364.934313 299.80517 
L 371.929406 294.886485 
L 374.234929 292.812249 
L 380.556342 288.371782 
L 383.535544 285.509604 
L 388.738429 281.857079 
L 392.836159 277.682727 
L 396.171014 275.342377 
L 402.136774 268.954166 
L 402.31705 268.827674 
L 410.933674 262.312971 
L 411.437389 261.906106 
L 419.792739 255.798268 
L 420.738004 254.979104 
L 428.610586 249.283566 
L 430.03862 247.964148 
L 437.267601 242.768863 
L 439.339235 240.743254 
L 445.613003 236.25416 
L 448.63985 233.151307 
L 453.423606 229.739458 
L 457.940465 224.93673 
L 460.347829 223.224755 
L 466.729487 216.710052 
L 467.24108 216.264832 
L 474.675737 210.19535 
L 476.541695 208.461545 
L 482.613598 203.680647 
L 485.842311 200.506301 
L 490.175648 197.165944 
L 485.842311 192.823688 
L 480.110575 197.165944 
L 476.541695 198.849246 
L 470.030958 203.680647 
L 467.24108 205.170725 
L 460.356617 210.19535 
L 457.940465 211.614445 
L 450.868455 216.710052 
L 448.63985 218.134941 
L 441.506807 223.224755 
L 439.339235 224.728936 
L 432.26793 229.739458 
L 430.03862 231.418344 
L 423.184085 236.25416 
L 420.738004 238.255306 
L 414.330893 242.768863 
L 411.437389 245.344476 
L 405.856431 249.283566 
L 402.136774 252.894106 
L 398.046202 255.798268 
L 392.836159 261.329995 
L 391.465812 262.312971 
L 383.898616 268.827674 
L 383.535544 269.087481 
L 374.9907 275.342377 
L 374.234929 275.929216 
L 366.024945 281.857079 
L 364.934313 282.774571 
L 357.107537 288.371782 
L 355.633698 289.715737 
L 348.354525 294.886485 
L 346.333083 296.887299 
L 339.948795 301.401187 
L 337.032468 304.539606 
L 332.241729 307.91589 
L 327.731853 313.200998 
L 325.983305 314.430593 
L 319.122983 320.945295 
L 318.431238 321.521471 
L 310.66535 327.459998 
L 309.130622 328.85142 
L 302.22628 333.974701 
L 299.830007 336.336057 
L 294.122592 340.489403 
L 290.529392 344.338653 
L 286.819043 347.004106 
z
M 298.921615 340.489403 
L 299.830007 339.828357 
L 300.897375 340.489403 
L 299.830007 341.271831 
z
M 305.770219 333.974701 
L 309.130622 331.481156 
L 312.675862 333.974701 
L 309.130622 336.539717 
z
M 313.565928 327.459998 
L 318.431238 323.739526 
L 321.785935 320.945295 
L 327.731853 316.172502 
L 330.02314 314.430593 
L 337.032468 308.296962 
L 337.595401 307.91589 
L 343.661117 301.401187 
L 346.333083 299.512026 
L 351.00631 294.886485 
L 355.633698 291.599428 
L 359.173272 288.371782 
L 364.934313 284.251853 
L 367.781003 281.857079 
L 374.234929 277.197145 
L 376.623624 275.342377 
L 383.535544 270.282795 
L 385.569027 268.827674 
L 392.836159 263.40168 
L 394.497324 262.312971 
L 402.136774 256.439798 
L 403.224651 255.798268 
L 411.184851 249.283566 
L 411.437389 249.105322 
L 418.555915 242.768863 
L 420.738004 241.231667 
L 426.822211 236.25416 
L 430.03862 233.985011 
L 435.67608 229.739458 
L 439.339235 227.143852 
L 444.986775 223.224755 
L 448.63985 220.618087 
L 454.139872 223.224755 
L 448.63985 228.767461 
L 447.279837 229.739458 
L 441.533794 236.25416 
L 439.339235 237.824442 
L 434.282469 242.768863 
L 430.03862 245.81881 
L 426.288641 249.283566 
L 420.738004 253.299258 
L 417.854298 255.798268 
L 411.437389 260.489088 
L 409.179349 262.312971 
L 402.136774 267.54497 
L 400.420913 268.827674 
L 392.836159 274.606795 
L 391.760204 275.342377 
L 383.590285 281.857079 
L 383.535544 281.895508 
L 376.794479 288.371782 
L 374.234929 290.169735 
L 368.992237 294.886485 
L 364.934313 297.739864 
L 360.563393 301.401187 
L 355.633698 304.872977 
L 351.712399 307.91589 
L 346.333083 311.713037 
L 342.53527 314.430593 
L 337.032468 318.327809 
L 333.046917 320.945295 
L 327.731853 324.727569 
L 323.172413 327.459998 
L 318.431238 330.857117 
z
M 454.752236 216.710052 
L 457.940465 214.412832 
L 461.902763 216.710052 
L 457.940465 220.168623 
z
M 465.121153 210.19535 
L 467.24108 208.648121 
L 469.530428 210.19535 
L 467.24108 212.064321 
z
M 495.142926 192.048238 
L 496.980824 190.651241 
L 495.142926 187.879961 
L 491.564233 190.651241 
z
" clip-path="url(#p193ca821b2)" style="fill: #d3e4f3"/>
    <path d="M 299.830007 341.271831 
L 300.897375 340.489403 
L 299.830007 339.828357 
L 298.921615 340.489403 
z
M 309.130622 336.539717 
L 312.675862 333.974701 
L 309.130622 331.481156 
L 305.770219 333.974701 
z
M 308.181496 333.974701 
L 309.130622 333.270414 
L 310.131954 333.974701 
L 309.130622 334.699175 
z
M 318.431238 330.857117 
L 323.172413 327.459998 
L 327.731853 324.727569 
L 333.046917 320.945295 
L 337.032468 318.327809 
L 342.53527 314.430593 
L 346.333083 311.713037 
L 351.712399 307.91589 
L 355.633698 304.872977 
L 360.563393 301.401187 
L 364.934313 297.739864 
L 368.992237 294.886485 
L 374.234929 290.169735 
L 376.794479 288.371782 
L 383.535544 281.895508 
L 383.590285 281.857079 
L 391.760204 275.342377 
L 392.836159 274.606795 
L 400.420913 268.827674 
L 402.136774 267.54497 
L 409.179349 262.312971 
L 411.437389 260.489088 
L 417.854298 255.798268 
L 420.738004 253.299258 
L 426.288641 249.283566 
L 430.03862 245.81881 
L 434.282469 242.768863 
L 439.339235 237.824442 
L 441.533794 236.25416 
L 447.279837 229.739458 
L 448.63985 228.767461 
L 454.139872 223.224755 
L 448.63985 220.618087 
L 444.986775 223.224755 
L 439.339235 227.143852 
L 435.67608 229.739458 
L 430.03862 233.985011 
L 426.822211 236.25416 
L 420.738004 241.231667 
L 418.555915 242.768863 
L 411.437389 249.105322 
L 411.184851 249.283566 
L 403.224651 255.798268 
L 402.136774 256.439798 
L 394.497324 262.312971 
L 392.836159 263.40168 
L 385.569027 268.827674 
L 383.535544 270.282795 
L 376.623624 275.342377 
L 374.234929 277.197145 
L 367.781003 281.857079 
L 364.934313 284.251853 
L 359.173272 288.371782 
L 355.633698 291.599428 
L 351.00631 294.886485 
L 346.333083 299.512026 
L 343.661117 301.401187 
L 337.595401 307.91589 
L 337.032468 308.296962 
L 330.02314 314.430593 
L 327.731853 316.172502 
L 321.785935 320.945295 
L 318.431238 323.739526 
L 313.565928 327.459998 
z
M 315.539466 327.459998 
L 318.431238 325.248678 
L 321.249228 327.459998 
L 318.431238 329.479128 
z
M 323.597794 320.945295 
L 327.731853 317.626883 
L 331.427294 320.945295 
L 327.731853 323.575023 
z
M 331.936215 314.430593 
L 337.032468 309.97103 
L 340.068396 307.91589 
L 346.186962 301.401187 
L 346.333083 301.297875 
L 352.810571 294.886485 
L 355.633698 292.881081 
L 360.578788 288.371782 
L 364.934313 285.256988 
L 368.975817 281.857079 
L 374.234929 278.059837 
L 377.734656 275.342377 
L 383.535544 271.09608 
L 386.705566 268.827674 
L 392.836159 264.250275 
L 395.79212 262.312971 
L 402.136774 257.435231 
L 404.912663 255.798268 
L 411.437389 250.547393 
L 413.949978 249.283566 
L 420.738004 243.338717 
L 424.708802 249.283566 
L 420.738004 252.156299 
L 416.535393 255.798268 
L 411.437389 259.524956 
L 407.985716 262.312971 
L 402.136774 266.658208 
L 399.2347 268.827674 
L 392.836159 273.702973 
L 390.43816 275.342377 
L 383.535544 280.823665 
L 381.835714 281.857079 
L 374.234929 288.371782 
L 374.234929 288.371782 
L 366.993804 294.886485 
L 364.934313 296.334641 
L 358.885825 301.401187 
L 355.633698 303.691532 
L 350.18991 307.91589 
L 346.333083 310.638344 
L 341.033375 314.430593 
L 337.032468 317.264131 
z
M 422.422301 242.768863 
L 429.297572 236.25416 
L 430.03862 235.731358 
L 435.512325 236.25416 
L 432.251402 242.768863 
L 430.03862 244.359133 
z
M 437.994966 229.739458 
L 439.339235 228.786948 
L 442.253198 229.739458 
L 439.339235 234.525984 
z
M 447.354527 223.224755 
L 448.63985 222.307607 
L 450.575015 223.224755 
L 448.63985 225.174939 
z
M 457.940465 220.168623 
L 461.902763 216.710052 
L 457.940465 214.412832 
L 454.752236 216.710052 
z
M 457.39474 216.710052 
L 457.940465 216.31684 
L 458.618686 216.710052 
L 457.940465 217.302051 
z
M 467.24108 212.064321 
L 469.530428 210.19535 
L 467.24108 208.648121 
L 465.121153 210.19535 
z
" clip-path="url(#p193ca821b2)" style="fill: #afd1e7"/>
    <path d="M 309.130622 334.699175 
L 310.131954 333.974701 
L 309.130622 333.270414 
L 308.181496 333.974701 
z
M 318.431238 329.479128 
L 321.249228 327.459998 
L 318.431238 325.248678 
L 315.539466 327.459998 
z
M 316.610791 327.459998 
L 318.431238 326.067914 
L 320.205237 327.459998 
L 318.431238 328.731093 
z
M 327.731853 323.575023 
L 331.427294 320.945295 
L 327.731853 317.626883 
L 323.597794 320.945295 
z
M 324.581353 320.945295 
L 327.731853 318.416386 
L 330.548089 320.945295 
L 327.731853 322.949368 
z
M 337.032468 317.264131 
L 341.033375 314.430593 
L 346.333083 310.638344 
L 350.18991 307.91589 
L 355.633698 303.691532 
L 358.885825 301.401187 
L 364.934313 296.334641 
L 366.993804 294.886485 
L 374.234929 288.371782 
L 374.234929 288.371782 
L 381.835714 281.857079 
L 383.535544 280.823665 
L 390.43816 275.342377 
L 392.836159 273.702973 
L 399.2347 268.827674 
L 402.136774 266.658208 
L 407.985716 262.312971 
L 411.437389 259.524956 
L 416.535393 255.798268 
L 420.738004 252.156299 
L 424.708802 249.283566 
L 420.738004 243.338717 
L 413.949978 249.283566 
L 411.437389 250.547393 
L 404.912663 255.798268 
L 402.136774 257.435231 
L 395.79212 262.312971 
L 392.836159 264.250275 
L 386.705566 268.827674 
L 383.535544 271.09608 
L 377.734656 275.342377 
L 374.234929 278.059837 
L 368.975817 281.857079 
L 364.934313 285.256988 
L 360.578788 288.371782 
L 355.633698 292.881081 
L 352.810571 294.886485 
L 346.333083 301.297875 
L 346.186962 301.401187 
L 340.068396 307.91589 
L 337.032468 309.97103 
L 331.936215 314.430593 
z
M 332.974719 314.430593 
L 337.032468 310.879791 
L 340.218078 314.430593 
L 337.032468 316.686718 
z
M 341.410849 307.91589 
L 346.333083 302.677592 
L 349.363435 307.91589 
L 346.333083 310.054952 
z
M 348.731466 301.401187 
L 353.790005 294.886485 
L 355.633698 293.576821 
L 361.341765 288.371782 
L 364.934313 285.802621 
L 369.624415 281.857079 
L 374.234929 278.528146 
L 378.337775 275.342377 
L 383.535544 271.537567 
L 387.322531 268.827674 
L 392.836159 264.710931 
L 396.494994 262.312971 
L 402.136774 257.975597 
L 405.828992 255.798268 
L 411.437389 251.284824 
L 415.416048 249.283566 
L 420.738004 244.622678 
L 423.851194 249.283566 
L 420.738004 251.53585 
L 415.819432 255.798268 
L 411.437389 259.001582 
L 407.337758 262.312971 
L 402.136774 266.176834 
L 398.59077 268.827674 
L 392.836159 273.212337 
L 389.720495 275.342377 
L 383.535544 280.253775 
L 380.898321 281.857079 
L 374.234929 287.568333 
L 372.605697 288.371782 
L 365.908964 294.886485 
L 364.934313 295.571822 
L 357.975165 301.401187 
L 355.633698 303.05019 
z
M 430.03862 244.359133 
L 432.251402 242.768863 
L 435.512325 236.25416 
L 430.03862 235.731358 
L 429.297572 236.25416 
L 422.422301 242.768863 
z
M 426.217258 242.768863 
L 430.03862 238.261725 
L 431.148846 242.768863 
L 430.03862 243.566755 
z
M 439.339235 234.525984 
L 442.253198 229.739458 
L 439.339235 228.786948 
L 437.994966 229.739458 
z
M 439.253763 229.739458 
L 439.339235 229.678895 
L 439.524511 229.739458 
L 439.339235 230.043796 
z
M 448.63985 225.174939 
L 450.575015 223.224755 
L 448.63985 222.307607 
L 447.354527 223.224755 
z
M 457.940465 217.302051 
L 458.618686 216.710052 
L 457.940465 216.31684 
L 457.39474 216.710052 
z
" clip-path="url(#p193ca821b2)" style="fill: #8fc2de"/>
    <path d="M 318.431238 328.731093 
L 320.205237 327.459998 
L 318.431238 326.067914 
L 316.610791 327.459998 
z
M 327.731853 322.949368 
L 330.548089 320.945295 
L 327.731853 318.416386 
L 324.581353 320.945295 
z
M 326.43281 320.945295 
L 327.731853 319.902553 
L 328.893069 320.945295 
L 327.731853 321.771633 
z
M 337.032468 316.686718 
L 340.218078 314.430593 
L 337.032468 310.879791 
L 332.974719 314.430593 
z
M 334.929605 314.430593 
L 337.032468 312.590447 
L 338.683359 314.430593 
L 337.032468 315.599793 
z
M 346.333083 310.054952 
L 349.363435 307.91589 
L 346.333083 302.677592 
L 341.410849 307.91589 
z
M 343.937892 307.91589 
L 346.333083 305.3669 
L 347.807672 307.91589 
L 346.333083 308.956771 
z
M 355.633698 303.05019 
L 357.975165 301.401187 
L 364.934313 295.571822 
L 365.908964 294.886485 
L 372.605697 288.371782 
L 374.234929 287.568333 
L 380.898321 281.857079 
L 383.535544 280.253775 
L 389.720495 275.342377 
L 392.836159 273.212337 
L 398.59077 268.827674 
L 402.136774 266.176834 
L 407.337758 262.312971 
L 411.437389 259.001582 
L 415.819432 255.798268 
L 420.738004 251.53585 
L 423.851194 249.283566 
L 420.738004 244.622678 
L 415.416048 249.283566 
L 411.437389 251.284824 
L 405.828992 255.798268 
L 402.136774 257.975597 
L 396.494994 262.312971 
L 392.836159 264.710931 
L 387.322531 268.827674 
L 383.535544 271.537567 
L 378.337775 275.342377 
L 374.234929 278.528146 
L 369.624415 281.857079 
L 364.934313 285.802621 
L 361.341765 288.371782 
L 355.633698 293.576821 
L 353.790005 294.886485 
L 348.731466 301.401187 
z
M 353.784719 301.401187 
L 355.633698 294.886485 
L 356.260933 301.401187 
L 355.633698 301.842924 
z
M 362.777998 288.371782 
L 364.934313 286.829723 
L 369.538822 288.371782 
L 364.934313 293.204056 
z
M 370.845341 281.857079 
L 374.234929 279.409692 
L 379.133765 281.857079 
L 374.234929 286.055916 
z
M 379.473089 275.342377 
L 383.535544 272.368627 
L 388.369556 275.342377 
L 383.535544 279.181011 
z
M 388.483909 268.827674 
L 392.836159 265.578073 
L 397.378631 268.827674 
L 392.836159 272.288761 
z
M 397.818089 262.312971 
L 402.136774 258.992786 
L 406.118037 262.312971 
L 402.136774 265.270691 
z
M 407.553896 255.798268 
L 411.437389 252.672967 
L 414.471702 255.798268 
L 411.437389 258.016379 
z
M 418.175787 249.283566 
L 420.738004 247.039615 
L 422.236827 249.283566 
L 420.738004 250.367911 
z
M 430.03862 243.566755 
L 431.148846 242.768863 
L 430.03862 238.261725 
L 426.217258 242.768863 
z
M 439.339235 230.043796 
L 439.524511 229.739458 
L 439.339235 229.678895 
L 439.253763 229.739458 
z
" clip-path="url(#p193ca821b2)" style="fill: #6aaed6"/>
    <path d="M 327.731853 321.771633 
L 328.893069 320.945295 
L 327.731853 319.902553 
L 326.43281 320.945295 
z
M 337.032468 315.599793 
L 338.683359 314.430593 
L 337.032468 312.590447 
L 334.929605 314.430593 
z
M 336.744574 314.430593 
L 337.032468 314.178667 
L 337.258484 314.430593 
L 337.032468 314.590663 
z
M 346.333083 308.956771 
L 347.807672 307.91589 
L 346.333083 305.3669 
L 343.937892 307.91589 
z
M 346.284068 307.91589 
L 346.333083 307.863728 
L 346.363259 307.91589 
L 346.333083 307.93719 
z
M 355.633698 301.842924 
L 356.260933 301.401187 
L 355.633698 294.886485 
L 353.784719 301.401187 
z
M 364.934313 293.204056 
L 369.538822 288.371782 
L 364.934313 286.829723 
L 362.777998 288.371782 
z
M 364.111437 288.371782 
L 364.934313 287.783313 
L 366.691452 288.371782 
L 364.934313 290.215838 
z
M 374.234929 286.055916 
L 379.133765 281.857079 
L 374.234929 279.409692 
L 370.845341 281.857079 
z
M 371.978882 281.857079 
L 374.234929 280.228144 
L 377.495503 281.857079 
L 374.234929 284.651747 
z
M 383.535544 279.181011 
L 388.369556 275.342377 
L 383.535544 272.368627 
L 379.473089 275.342377 
z
M 380.527146 275.342377 
L 383.535544 273.140205 
L 387.115308 275.342377 
L 383.535544 278.185027 
z
M 392.836159 272.288761 
L 397.378631 268.827674 
L 392.836159 265.578073 
L 388.483909 268.827674 
z
M 389.562164 268.827674 
L 392.836159 266.38315 
L 396.253249 268.827674 
L 392.836159 271.431288 
z
M 402.136774 265.270691 
L 406.118037 262.312971 
L 402.136774 258.992786 
L 397.818089 262.312971 
z
M 399.046486 262.312971 
L 402.136774 259.937172 
L 404.985616 262.312971 
L 402.136774 264.429404 
z
M 411.437389 258.016379 
L 414.471702 255.798268 
L 411.437389 252.672967 
L 407.553896 255.798268 
z
M 409.155344 255.798268 
L 411.437389 253.961757 
L 413.220433 255.798268 
L 411.437389 257.10169 
z
M 420.738004 250.367911 
L 422.236827 249.283566 
L 420.738004 247.039615 
L 418.175787 249.283566 
z
" clip-path="url(#p193ca821b2)" style="fill: #4594c7"/>
    <path d="M 337.032468 314.590663 
L 337.258484 314.430593 
L 337.032468 314.178667 
L 336.744574 314.430593 
z
M 346.333083 307.93719 
L 346.363259 307.91589 
L 346.333083 307.863728 
L 346.284068 307.91589 
z
M 364.934313 290.215838 
L 366.691452 288.371782 
L 364.934313 287.783313 
L 364.111437 288.371782 
z
M 374.234929 284.651747 
L 377.495503 281.857079 
L 374.234929 280.228144 
L 371.978882 281.857079 
z
M 372.678401 281.857079 
L 374.234929 280.733218 
L 376.484516 281.857079 
L 374.234929 283.785221 
z
M 383.535544 278.185027 
L 387.115308 275.342377 
L 383.535544 273.140205 
L 380.527146 275.342377 
z
M 381.177614 275.342377 
L 383.535544 273.616353 
L 386.341301 275.342377 
L 383.535544 277.570396 
z
M 392.836159 271.431288 
L 396.253249 268.827674 
L 392.836159 266.38315 
L 389.562164 268.827674 
z
M 390.227565 268.827674 
L 392.836159 266.879971 
L 395.558765 268.827674 
L 392.836159 270.902134 
z
M 402.136774 264.429404 
L 404.985616 262.312971 
L 402.136774 259.937172 
L 399.046486 262.312971 
z
M 399.804541 262.312971 
L 402.136774 260.519962 
L 404.286788 262.312971 
L 402.136774 263.910238 
z
M 411.437389 257.10169 
L 413.220433 255.798268 
L 411.437389 253.961757 
L 409.155344 255.798268 
z
M 410.143613 255.798268 
L 411.437389 254.757081 
L 412.448264 255.798268 
L 411.437389 256.537227 
z
" clip-path="url(#p193ca821b2)" style="fill: #2e7ebc"/>
    <path d="M 374.234929 283.785221 
L 376.484516 281.857079 
L 374.234929 280.733218 
L 372.678401 281.857079 
z
M 383.535544 277.570396 
L 386.341301 275.342377 
L 383.535544 273.616353 
L 381.177614 275.342377 
z
M 383.178845 275.342377 
L 383.535544 275.08127 
L 383.959988 275.342377 
L 383.535544 275.679423 
z
M 392.836159 270.902134 
L 395.558765 268.827674 
L 392.836159 266.879971 
L 390.227565 268.827674 
z
M 392.274739 268.827674 
L 392.836159 268.408491 
L 393.422116 268.827674 
L 392.836159 269.274138 
z
M 402.136774 263.910238 
L 404.286788 262.312971 
L 402.136774 260.519962 
L 399.804541 262.312971 
z
M 411.437389 256.537227 
L 412.448264 255.798268 
L 411.437389 254.757081 
L 410.143613 255.798268 
z
" clip-path="url(#p193ca821b2)" style="fill: #0e59a2"/>
    <path d="M 383.535544 275.679423 
L 383.959988 275.342377 
L 383.535544 275.08127 
L 383.178845 275.342377 
z
M 392.836159 269.274138 
L 393.422116 268.827674 
L 392.836159 268.408491 
L 392.274739 268.827674 
z
" clip-path="url(#p193ca821b2)" style="fill: #083776"/>
   </g>
   <g id="matplotlib.axis_1">
    <g id="xtick_1">
     <g id="line2d_1">
      <defs>
       <path id="m23825fb09e" d="M 0 0 
L 0 3.5 
" style="stroke: #000000; stroke-width: 0.8"/>
      </defs>
      <g>
       <use xlink:href="#m23825fb09e" x="102.17" y="499.48" style="stroke: #000000; stroke-width: 0.8"/>
      </g>
     </g>
     <g id="text_1">
      <!-- −80 -->
      <g transform="translate(78.954844 523.196563) scale(0.22 -0.22)">
       <defs>
        <path id="DejaVuSans-2212" d="M 678 2272 
L 4684 2272 
L 4684 1741 
L 678 1741 
L 678 2272 
z
" transform="scale(0.015625)"/>
        <path id="DejaVuSans-38" d="M 2034 2216 
Q 1584 2216 1326 1975 
Q 1069 1734 1069 1313 
Q 1069 891 1326 650 
Q 1584 409 2034 409 
Q 2484 409 2743 651 
Q 3003 894 3003 1313 
Q 3003 1734 2745 1975 
Q 2488 2216 2034 2216 
z
M 1403 2484 
Q 997 2584 770 2862 
Q 544 3141 544 3541 
Q 544 4100 942 4425 
Q 1341 4750 2034 4750 
Q 2731 4750 3128 4425 
Q 3525 4100 3525 3541 
Q 3525 3141 3298 2862 
Q 3072 2584 2669 2484 
Q 3125 2378 3379 2068 
Q 3634 1759 3634 1313 
Q 3634 634 3220 271 
Q 2806 -91 2034 -91 
Q 1263 -91 848 271 
Q 434 634 434 1313 
Q 434 1759 690 2068 
Q 947 2378 1403 2484 
z
M 1172 3481 
Q 1172 3119 1398 2916 
Q 1625 2713 2034 2713 
Q 2441 2713 2670 2916 
Q 2900 3119 2900 3481 
Q 2900 3844 2670 4047 
Q 2441 4250 2034 4250 
Q 1625 4250 1398 4047 
Q 1172 3844 1172 3481 
z
" transform="scale(0.015625)"/>
        <path id="DejaVuSans-30" d="M 2034 4250 
Q 1547 4250 1301 3770 
Q 1056 3291 1056 2328 
Q 1056 1369 1301 889 
Q 1547 409 2034 409 
Q 2525 409 2770 889 
Q 3016 1369 3016 2328 
Q 3016 3291 2770 3770 
Q 2525 4250 2034 4250 
z
M 2034 4750 
Q 2819 4750 3233 4129 
Q 3647 3509 3647 2328 
Q 3647 1150 3233 529 
Q 2819 -91 2034 -91 
Q 1250 -91 836 529 
Q 422 1150 422 2328 
Q 422 3509 836 4129 
Q 1250 4750 2034 4750 
z
" transform="scale(0.015625)"/>
       </defs>
       <use xlink:href="#DejaVuSans-2212"/>
       <use xlink:href="#DejaVuSans-38" x="83.789062"/>
       <use xlink:href="#DejaVuSans-30" x="147.412109"/>
      </g>
     </g>
    </g>
    <g id="xtick_2">
     <g id="line2d_2">
      <g>
       <use xlink:href="#m23825fb09e" x="174.67375" y="499.48" style="stroke: #000000; stroke-width: 0.8"/>
      </g>
     </g>
     <g id="text_2">
      <!-- −60 -->
      <g transform="translate(151.458594 523.196563) scale(0.22 -0.22)">
       <defs>
        <path id="DejaVuSans-36" d="M 2113 2584 
Q 1688 2584 1439 2293 
Q 1191 2003 1191 1497 
Q 1191 994 1439 701 
Q 1688 409 2113 409 
Q 2538 409 2786 701 
Q 3034 994 3034 1497 
Q 3034 2003 2786 2293 
Q 2538 2584 2113 2584 
z
M 3366 4563 
L 3366 3988 
Q 3128 4100 2886 4159 
Q 2644 4219 2406 4219 
Q 1781 4219 1451 3797 
Q 1122 3375 1075 2522 
Q 1259 2794 1537 2939 
Q 1816 3084 2150 3084 
Q 2853 3084 3261 2657 
Q 3669 2231 3669 1497 
Q 3669 778 3244 343 
Q 2819 -91 2113 -91 
Q 1303 -91 875 529 
Q 447 1150 447 2328 
Q 447 3434 972 4092 
Q 1497 4750 2381 4750 
Q 2619 4750 2861 4703 
Q 3103 4656 3366 4563 
z
" transform="scale(0.015625)"/>
       </defs>
       <use xlink:href="#DejaVuSans-2212"/>
       <use xlink:href="#DejaVuSans-36" x="83.789062"/>
       <use xlink:href="#DejaVuSans-30" x="147.412109"/>
      </g>
     </g>
    </g>
    <g id="xtick_3">
     <g id="line2d_3">
      <g>
       <use xlink:href="#m23825fb09e" x="247.1775" y="499.48" style="stroke: #000000; stroke-width: 0.8"/>
      </g>
     </g>
     <g id="text_3">
      <!-- −40 -->
      <g transform="translate(223.962344 523.196563) scale(0.22 -0.22)">
       <defs>
        <path id="DejaVuSans-34" d="M 2419 4116 
L 825 1625 
L 2419 1625 
L 2419 4116 
z
M 2253 4666 
L 3047 4666 
L 3047 1625 
L 3713 1625 
L 3713 1100 
L 3047 1100 
L 3047 0 
L 2419 0 
L 2419 1100 
L 313 1100 
L 313 1709 
L 2253 4666 
z
" transform="scale(0.015625)"/>
       </defs>
       <use xlink:href="#DejaVuSans-2212"/>
       <use xlink:href="#DejaVuSans-34" x="83.789062"/>
       <use xlink:href="#DejaVuSans-30" x="147.412109"/>
      </g>
     </g>
    </g>
    <g id="xtick_4">
     <g id="line2d_4">
      <g>
       <use xlink:href="#m23825fb09e" x="319.68125" y="499.48" style="stroke: #000000; stroke-width: 0.8"/>
      </g>
     </g>
     <g id="text_4">
      <!-- −20 -->
      <g transform="translate(296.466094 523.196563) scale(0.22 -0.22)">
       <defs>
        <path id="DejaVuSans-32" d="M 1228 531 
L 3431 531 
L 3431 0 
L 469 0 
L 469 531 
Q 828 903 1448 1529 
Q 2069 2156 2228 2338 
Q 2531 2678 2651 2914 
Q 2772 3150 2772 3378 
Q 2772 3750 2511 3984 
Q 2250 4219 1831 4219 
Q 1534 4219 1204 4116 
Q 875 4013 500 3803 
L 500 4441 
Q 881 4594 1212 4672 
Q 1544 4750 1819 4750 
Q 2544 4750 2975 4387 
Q 3406 4025 3406 3419 
Q 3406 3131 3298 2873 
Q 3191 2616 2906 2266 
Q 2828 2175 2409 1742 
Q 1991 1309 1228 531 
z
" transform="scale(0.015625)"/>
       </defs>
       <use xlink:href="#DejaVuSans-2212"/>
       <use xlink:href="#DejaVuSans-32" x="83.789062"/>
       <use xlink:href="#DejaVuSans-30" x="147.412109"/>
      </g>
     </g>
    </g>
    <g id="xtick_5">
     <g id="line2d_5">
      <g>
       <use xlink:href="#m23825fb09e" x="392.185" y="499.48" style="stroke: #000000; stroke-width: 0.8"/>
      </g>
     </g>
     <g id="text_5">
      <!-- 0 -->
      <g transform="translate(385.18625 523.196563) scale(0.22 -0.22)">
       <use xlink:href="#DejaVuSans-30"/>
      </g>
     </g>
    </g>
    <g id="xtick_6">
     <g id="line2d_6">
      <g>
       <use xlink:href="#m23825fb09e" x="464.68875" y="499.48" style="stroke: #000000; stroke-width: 0.8"/>
      </g>
     </g>
     <g id="text_6">
      <!-- 20 -->
      <g transform="translate(450.69125 523.196563) scale(0.22 -0.22)">
       <use xlink:href="#DejaVuSans-32"/>
       <use xlink:href="#DejaVuSans-30" x="63.623047"/>
      </g>
     </g>
    </g>
    <g id="xtick_7">
     <g id="line2d_7">
      <g>
       <use xlink:href="#m23825fb09e" x="537.1925" y="499.48" style="stroke: #000000; stroke-width: 0.8"/>
      </g>
     </g>
     <g id="text_7">
      <!-- 40 -->
      <g transform="translate(523.195 523.196563) scale(0.22 -0.22)">
       <use xlink:href="#DejaVuSans-34"/>
       <use xlink:href="#DejaVuSans-30" x="63.623047"/>
      </g>
     </g>
    </g>
    <g id="xtick_8">
     <g id="line2d_8">
      <g>
       <use xlink:href="#m23825fb09e" x="609.69625" y="499.48" style="stroke: #000000; stroke-width: 0.8"/>
      </g>
     </g>
     <g id="text_8">
      <!-- 60 -->
      <g transform="translate(595.69875 523.196563) scale(0.22 -0.22)">
       <use xlink:href="#DejaVuSans-36"/>
       <use xlink:href="#DejaVuSans-30" x="63.623047"/>
      </g>
     </g>
    </g>
    <g id="xtick_9">
     <g id="line2d_9">
      <g>
       <use xlink:href="#m23825fb09e" x="682.2" y="499.48" style="stroke: #000000; stroke-width: 0.8"/>
      </g>
     </g>
     <g id="text_9">
      <!-- 80 -->
      <g transform="translate(668.2025 523.196563) scale(0.22 -0.22)">
       <use xlink:href="#DejaVuSans-38"/>
       <use xlink:href="#DejaVuSans-30" x="63.623047"/>
      </g>
     </g>
    </g>
    <g id="text_10">
     <!-- Ground Truth Energy [kJ/mol] -->
     <g transform="translate(232.45125 548.488438) scale(0.22 -0.22)">
      <defs>
       <path id="DejaVuSans-47" d="M 3809 666 
L 3809 1919 
L 2778 1919 
L 2778 2438 
L 4434 2438 
L 4434 434 
Q 4069 175 3628 42 
Q 3188 -91 2688 -91 
Q 1594 -91 976 548 
Q 359 1188 359 2328 
Q 359 3472 976 4111 
Q 1594 4750 2688 4750 
Q 3144 4750 3555 4637 
Q 3966 4525 4313 4306 
L 4313 3634 
Q 3963 3931 3569 4081 
Q 3175 4231 2741 4231 
Q 1884 4231 1454 3753 
Q 1025 3275 1025 2328 
Q 1025 1384 1454 906 
Q 1884 428 2741 428 
Q 3075 428 3337 486 
Q 3600 544 3809 666 
z
" transform="scale(0.015625)"/>
       <path id="DejaVuSans-72" d="M 2631 2963 
Q 2534 3019 2420 3045 
Q 2306 3072 2169 3072 
Q 1681 3072 1420 2755 
Q 1159 2438 1159 1844 
L 1159 0 
L 581 0 
L 581 3500 
L 1159 3500 
L 1159 2956 
Q 1341 3275 1631 3429 
Q 1922 3584 2338 3584 
Q 2397 3584 2469 3576 
Q 2541 3569 2628 3553 
L 2631 2963 
z
" transform="scale(0.015625)"/>
       <path id="DejaVuSans-6f" d="M 1959 3097 
Q 1497 3097 1228 2736 
Q 959 2375 959 1747 
Q 959 1119 1226 758 
Q 1494 397 1959 397 
Q 2419 397 2687 759 
Q 2956 1122 2956 1747 
Q 2956 2369 2687 2733 
Q 2419 3097 1959 3097 
z
M 1959 3584 
Q 2709 3584 3137 3096 
Q 3566 2609 3566 1747 
Q 3566 888 3137 398 
Q 2709 -91 1959 -91 
Q 1206 -91 779 398 
Q 353 888 353 1747 
Q 353 2609 779 3096 
Q 1206 3584 1959 3584 
z
" transform="scale(0.015625)"/>
       <path id="DejaVuSans-75" d="M 544 1381 
L 544 3500 
L 1119 3500 
L 1119 1403 
Q 1119 906 1312 657 
Q 1506 409 1894 409 
Q 2359 409 2629 706 
Q 2900 1003 2900 1516 
L 2900 3500 
L 3475 3500 
L 3475 0 
L 2900 0 
L 2900 538 
Q 2691 219 2414 64 
Q 2138 -91 1772 -91 
Q 1169 -91 856 284 
Q 544 659 544 1381 
z
M 1991 3584 
L 1991 3584 
z
" transform="scale(0.015625)"/>
       <path id="DejaVuSans-6e" d="M 3513 2113 
L 3513 0 
L 2938 0 
L 2938 2094 
Q 2938 2591 2744 2837 
Q 2550 3084 2163 3084 
Q 1697 3084 1428 2787 
Q 1159 2491 1159 1978 
L 1159 0 
L 581 0 
L 581 3500 
L 1159 3500 
L 1159 2956 
Q 1366 3272 1645 3428 
Q 1925 3584 2291 3584 
Q 2894 3584 3203 3211 
Q 3513 2838 3513 2113 
z
" transform="scale(0.015625)"/>
       <path id="DejaVuSans-64" d="M 2906 2969 
L 2906 4863 
L 3481 4863 
L 3481 0 
L 2906 0 
L 2906 525 
Q 2725 213 2448 61 
Q 2172 -91 1784 -91 
Q 1150 -91 751 415 
Q 353 922 353 1747 
Q 353 2572 751 3078 
Q 1150 3584 1784 3584 
Q 2172 3584 2448 3432 
Q 2725 3281 2906 2969 
z
M 947 1747 
Q 947 1113 1208 752 
Q 1469 391 1925 391 
Q 2381 391 2643 752 
Q 2906 1113 2906 1747 
Q 2906 2381 2643 2742 
Q 2381 3103 1925 3103 
Q 1469 3103 1208 2742 
Q 947 2381 947 1747 
z
" transform="scale(0.015625)"/>
       <path id="DejaVuSans-20" transform="scale(0.015625)"/>
       <path id="DejaVuSans-54" d="M -19 4666 
L 3928 4666 
L 3928 4134 
L 2272 4134 
L 2272 0 
L 1638 0 
L 1638 4134 
L -19 4134 
L -19 4666 
z
" transform="scale(0.015625)"/>
       <path id="DejaVuSans-74" d="M 1172 4494 
L 1172 3500 
L 2356 3500 
L 2356 3053 
L 1172 3053 
L 1172 1153 
Q 1172 725 1289 603 
Q 1406 481 1766 481 
L 2356 481 
L 2356 0 
L 1766 0 
Q 1100 0 847 248 
Q 594 497 594 1153 
L 594 3053 
L 172 3053 
L 172 3500 
L 594 3500 
L 594 4494 
L 1172 4494 
z
" transform="scale(0.015625)"/>
       <path id="DejaVuSans-68" d="M 3513 2113 
L 3513 0 
L 2938 0 
L 2938 2094 
Q 2938 2591 2744 2837 
Q 2550 3084 2163 3084 
Q 1697 3084 1428 2787 
Q 1159 2491 1159 1978 
L 1159 0 
L 581 0 
L 581 4863 
L 1159 4863 
L 1159 2956 
Q 1366 3272 1645 3428 
Q 1925 3584 2291 3584 
Q 2894 3584 3203 3211 
Q 3513 2838 3513 2113 
z
" transform="scale(0.015625)"/>
       <path id="DejaVuSans-45" d="M 628 4666 
L 3578 4666 
L 3578 4134 
L 1259 4134 
L 1259 2753 
L 3481 2753 
L 3481 2222 
L 1259 2222 
L 1259 531 
L 3634 531 
L 3634 0 
L 628 0 
L 628 4666 
z
" transform="scale(0.015625)"/>
       <path id="DejaVuSans-65" d="M 3597 1894 
L 3597 1613 
L 953 1613 
Q 991 1019 1311 708 
Q 1631 397 2203 397 
Q 2534 397 2845 478 
Q 3156 559 3463 722 
L 3463 178 
Q 3153 47 2828 -22 
Q 2503 -91 2169 -91 
Q 1331 -91 842 396 
Q 353 884 353 1716 
Q 353 2575 817 3079 
Q 1281 3584 2069 3584 
Q 2775 3584 3186 3129 
Q 3597 2675 3597 1894 
z
M 3022 2063 
Q 3016 2534 2758 2815 
Q 2500 3097 2075 3097 
Q 1594 3097 1305 2825 
Q 1016 2553 972 2059 
L 3022 2063 
z
" transform="scale(0.015625)"/>
       <path id="DejaVuSans-67" d="M 2906 1791 
Q 2906 2416 2648 2759 
Q 2391 3103 1925 3103 
Q 1463 3103 1205 2759 
Q 947 2416 947 1791 
Q 947 1169 1205 825 
Q 1463 481 1925 481 
Q 2391 481 2648 825 
Q 2906 1169 2906 1791 
z
M 3481 434 
Q 3481 -459 3084 -895 
Q 2688 -1331 1869 -1331 
Q 1566 -1331 1297 -1286 
Q 1028 -1241 775 -1147 
L 775 -588 
Q 1028 -725 1275 -790 
Q 1522 -856 1778 -856 
Q 2344 -856 2625 -561 
Q 2906 -266 2906 331 
L 2906 616 
Q 2728 306 2450 153 
Q 2172 0 1784 0 
Q 1141 0 747 490 
Q 353 981 353 1791 
Q 353 2603 747 3093 
Q 1141 3584 1784 3584 
Q 2172 3584 2450 3431 
Q 2728 3278 2906 2969 
L 2906 3500 
L 3481 3500 
L 3481 434 
z
" transform="scale(0.015625)"/>
       <path id="DejaVuSans-79" d="M 2059 -325 
Q 1816 -950 1584 -1140 
Q 1353 -1331 966 -1331 
L 506 -1331 
L 506 -850 
L 844 -850 
Q 1081 -850 1212 -737 
Q 1344 -625 1503 -206 
L 1606 56 
L 191 3500 
L 800 3500 
L 1894 763 
L 2988 3500 
L 3597 3500 
L 2059 -325 
z
" transform="scale(0.015625)"/>
       <path id="DejaVuSans-5b" d="M 550 4863 
L 1875 4863 
L 1875 4416 
L 1125 4416 
L 1125 -397 
L 1875 -397 
L 1875 -844 
L 550 -844 
L 550 4863 
z
" transform="scale(0.015625)"/>
       <path id="DejaVuSans-6b" d="M 581 4863 
L 1159 4863 
L 1159 1991 
L 2875 3500 
L 3609 3500 
L 1753 1863 
L 3688 0 
L 2938 0 
L 1159 1709 
L 1159 0 
L 581 0 
L 581 4863 
z
" transform="scale(0.015625)"/>
       <path id="DejaVuSans-4a" d="M 628 4666 
L 1259 4666 
L 1259 325 
Q 1259 -519 939 -900 
Q 619 -1281 -91 -1281 
L -331 -1281 
L -331 -750 
L -134 -750 
Q 284 -750 456 -515 
Q 628 -281 628 325 
L 628 4666 
z
" transform="scale(0.015625)"/>
       <path id="DejaVuSans-2f" d="M 1625 4666 
L 2156 4666 
L 531 -594 
L 0 -594 
L 1625 4666 
z
" transform="scale(0.015625)"/>
       <path id="DejaVuSans-6d" d="M 3328 2828 
Q 3544 3216 3844 3400 
Q 4144 3584 4550 3584 
Q 5097 3584 5394 3201 
Q 5691 2819 5691 2113 
L 5691 0 
L 5113 0 
L 5113 2094 
Q 5113 2597 4934 2840 
Q 4756 3084 4391 3084 
Q 3944 3084 3684 2787 
Q 3425 2491 3425 1978 
L 3425 0 
L 2847 0 
L 2847 2094 
Q 2847 2600 2669 2842 
Q 2491 3084 2119 3084 
Q 1678 3084 1418 2786 
Q 1159 2488 1159 1978 
L 1159 0 
L 581 0 
L 581 3500 
L 1159 3500 
L 1159 2956 
Q 1356 3278 1631 3431 
Q 1906 3584 2284 3584 
Q 2666 3584 2933 3390 
Q 3200 3197 3328 2828 
z
" transform="scale(0.015625)"/>
       <path id="DejaVuSans-6c" d="M 603 4863 
L 1178 4863 
L 1178 0 
L 603 0 
L 603 4863 
z
" transform="scale(0.015625)"/>
       <path id="DejaVuSans-5d" d="M 1947 4863 
L 1947 -844 
L 622 -844 
L 622 -397 
L 1369 -397 
L 1369 4416 
L 622 4416 
L 622 4863 
L 1947 4863 
z
" transform="scale(0.015625)"/>
      </defs>
      <use xlink:href="#DejaVuSans-47"/>
      <use xlink:href="#DejaVuSans-72" x="77.490234"/>
      <use xlink:href="#DejaVuSans-6f" x="116.353516"/>
      <use xlink:href="#DejaVuSans-75" x="177.535156"/>
      <use xlink:href="#DejaVuSans-6e" x="240.914062"/>
      <use xlink:href="#DejaVuSans-64" x="304.292969"/>
      <use xlink:href="#DejaVuSans-20" x="367.769531"/>
      <use xlink:href="#DejaVuSans-54" x="399.556641"/>
      <use xlink:href="#DejaVuSans-72" x="445.890625"/>
      <use xlink:href="#DejaVuSans-75" x="487.003906"/>
      <use xlink:href="#DejaVuSans-74" x="550.382812"/>
      <use xlink:href="#DejaVuSans-68" x="589.591797"/>
      <use xlink:href="#DejaVuSans-20" x="652.970703"/>
      <use xlink:href="#DejaVuSans-45" x="684.757812"/>
      <use xlink:href="#DejaVuSans-6e" x="747.941406"/>
      <use xlink:href="#DejaVuSans-65" x="811.320312"/>
      <use xlink:href="#DejaVuSans-72" x="872.84375"/>
      <use xlink:href="#DejaVuSans-67" x="912.207031"/>
      <use xlink:href="#DejaVuSans-79" x="975.683594"/>
      <use xlink:href="#DejaVuSans-20" x="1034.863281"/>
      <use xlink:href="#DejaVuSans-5b" x="1066.650391"/>
      <use xlink:href="#DejaVuSans-6b" x="1105.664062"/>
      <use xlink:href="#DejaVuSans-4a" x="1163.574219"/>
      <use xlink:href="#DejaVuSans-2f" x="1193.066406"/>
      <use xlink:href="#DejaVuSans-6d" x="1226.757812"/>
      <use xlink:href="#DejaVuSans-6f" x="1324.169922"/>
      <use xlink:href="#DejaVuSans-6c" x="1385.351562"/>
      <use xlink:href="#DejaVuSans-5d" x="1413.134766"/>
     </g>
    </g>
   </g>
   <g id="matplotlib.axis_2">
    <g id="ytick_1">
     <g id="line2d_10">
      <defs>
       <path id="m9fa91f2a40" d="M 0 0 
L -3.5 0 
" style="stroke: #000000; stroke-width: 0.8"/>
      </defs>
      <g>
       <use xlink:href="#m9fa91f2a40" x="102.17" y="499.48" style="stroke: #000000; stroke-width: 0.8"/>
      </g>
     </g>
     <g id="text_11">
      <!-- −80 -->
      <g transform="translate(48.739688 507.838281) scale(0.22 -0.22)">
       <use xlink:href="#DejaVuSans-2212"/>
       <use xlink:href="#DejaVuSans-38" x="83.789062"/>
       <use xlink:href="#DejaVuSans-30" x="147.412109"/>
      </g>
     </g>
    </g>
    <g id="ytick_2">
     <g id="line2d_11">
      <g>
       <use xlink:href="#m9fa91f2a40" x="102.17" y="441.05" style="stroke: #000000; stroke-width: 0.8"/>
      </g>
     </g>
     <g id="text_12">
      <!-- −60 -->
      <g transform="translate(48.739688 449.408281) scale(0.22 -0.22)">
       <use xlink:href="#DejaVuSans-2212"/>
       <use xlink:href="#DejaVuSans-36" x="83.789062"/>
       <use xlink:href="#DejaVuSans-30" x="147.412109"/>
      </g>
     </g>
    </g>
    <g id="ytick_3">
     <g id="line2d_12">
      <g>
       <use xlink:href="#m9fa91f2a40" x="102.17" y="382.62" style="stroke: #000000; stroke-width: 0.8"/>
      </g>
     </g>
     <g id="text_13">
      <!-- −40 -->
      <g transform="translate(48.739688 390.978281) scale(0.22 -0.22)">
       <use xlink:href="#DejaVuSans-2212"/>
       <use xlink:href="#DejaVuSans-34" x="83.789062"/>
       <use xlink:href="#DejaVuSans-30" x="147.412109"/>
      </g>
     </g>
    </g>
    <g id="ytick_4">
     <g id="line2d_13">
      <g>
       <use xlink:href="#m9fa91f2a40" x="102.17" y="324.19" style="stroke: #000000; stroke-width: 0.8"/>
      </g>
     </g>
     <g id="text_14">
      <!-- −20 -->
      <g transform="translate(48.739688 332.548281) scale(0.22 -0.22)">
       <use xlink:href="#DejaVuSans-2212"/>
       <use xlink:href="#DejaVuSans-32" x="83.789062"/>
       <use xlink:href="#DejaVuSans-30" x="147.412109"/>
      </g>
     </g>
    </g>
    <g id="ytick_5">
     <g id="line2d_14">
      <g>
       <use xlink:href="#m9fa91f2a40" x="102.17" y="265.76" style="stroke: #000000; stroke-width: 0.8"/>
      </g>
     </g>
     <g id="text_15">
      <!-- 0 -->
      <g transform="translate(81.1725 274.118281) scale(0.22 -0.22)">
       <use xlink:href="#DejaVuSans-30"/>
      </g>
     </g>
    </g>
    <g id="ytick_6">
     <g id="line2d_15">
      <g>
       <use xlink:href="#m9fa91f2a40" x="102.17" y="207.33" style="stroke: #000000; stroke-width: 0.8"/>
      </g>
     </g>
     <g id="text_16">
      <!-- 20 -->
      <g transform="translate(67.175 215.688281) scale(0.22 -0.22)">
       <use xlink:href="#DejaVuSans-32"/>
       <use xlink:href="#DejaVuSans-30" x="63.623047"/>
      </g>
     </g>
    </g>
    <g id="ytick_7">
     <g id="line2d_16">
      <g>
       <use xlink:href="#m9fa91f2a40" x="102.17" y="148.9" style="stroke: #000000; stroke-width: 0.8"/>
      </g>
     </g>
     <g id="text_17">
      <!-- 40 -->
      <g transform="translate(67.175 157.258281) scale(0.22 -0.22)">
       <use xlink:href="#DejaVuSans-34"/>
       <use xlink:href="#DejaVuSans-30" x="63.623047"/>
      </g>
     </g>
    </g>
    <g id="ytick_8">
     <g id="line2d_17">
      <g>
       <use xlink:href="#m9fa91f2a40" x="102.17" y="90.47" style="stroke: #000000; stroke-width: 0.8"/>
      </g>
     </g>
     <g id="text_18">
      <!-- 60 -->
      <g transform="translate(67.175 98.828281) scale(0.22 -0.22)">
       <use xlink:href="#DejaVuSans-36"/>
       <use xlink:href="#DejaVuSans-30" x="63.623047"/>
      </g>
     </g>
    </g>
    <g id="ytick_9">
     <g id="line2d_18">
      <g>
       <use xlink:href="#m9fa91f2a40" x="102.17" y="32.04" style="stroke: #000000; stroke-width: 0.8"/>
      </g>
     </g>
     <g id="text_19">
      <!-- 80 -->
      <g transform="translate(67.175 40.398281) scale(0.22 -0.22)">
       <use xlink:href="#DejaVuSans-38"/>
       <use xlink:href="#DejaVuSans-30" x="63.623047"/>
      </g>
     </g>
    </g>
    <g id="text_20">
     <!-- Predicted Energy [kJ/mol] -->
     <g transform="translate(40.164375 405.305313) rotate(-90) scale(0.22 -0.22)">
      <defs>
       <path id="DejaVuSans-50" d="M 1259 4147 
L 1259 2394 
L 2053 2394 
Q 2494 2394 2734 2622 
Q 2975 2850 2975 3272 
Q 2975 3691 2734 3919 
Q 2494 4147 2053 4147 
L 1259 4147 
z
M 628 4666 
L 2053 4666 
Q 2838 4666 3239 4311 
Q 3641 3956 3641 3272 
Q 3641 2581 3239 2228 
Q 2838 1875 2053 1875 
L 1259 1875 
L 1259 0 
L 628 0 
L 628 4666 
z
" transform="scale(0.015625)"/>
       <path id="DejaVuSans-69" d="M 603 3500 
L 1178 3500 
L 1178 0 
L 603 0 
L 603 3500 
z
M 603 4863 
L 1178 4863 
L 1178 4134 
L 603 4134 
L 603 4863 
z
" transform="scale(0.015625)"/>
       <path id="DejaVuSans-63" d="M 3122 3366 
L 3122 2828 
Q 2878 2963 2633 3030 
Q 2388 3097 2138 3097 
Q 1578 3097 1268 2742 
Q 959 2388 959 1747 
Q 959 1106 1268 751 
Q 1578 397 2138 397 
Q 2388 397 2633 464 
Q 2878 531 3122 666 
L 3122 134 
Q 2881 22 2623 -34 
Q 2366 -91 2075 -91 
Q 1284 -91 818 406 
Q 353 903 353 1747 
Q 353 2603 823 3093 
Q 1294 3584 2113 3584 
Q 2378 3584 2631 3529 
Q 2884 3475 3122 3366 
z
" transform="scale(0.015625)"/>
      </defs>
      <use xlink:href="#DejaVuSans-50"/>
      <use xlink:href="#DejaVuSans-72" x="58.552734"/>
      <use xlink:href="#DejaVuSans-65" x="97.416016"/>
      <use xlink:href="#DejaVuSans-64" x="158.939453"/>
      <use xlink:href="#DejaVuSans-69" x="222.416016"/>
      <use xlink:href="#DejaVuSans-63" x="250.199219"/>
      <use xlink:href="#DejaVuSans-74" x="305.179688"/>
      <use xlink:href="#DejaVuSans-65" x="344.388672"/>
      <use xlink:href="#DejaVuSans-64" x="405.912109"/>
      <use xlink:href="#DejaVuSans-20" x="469.388672"/>
      <use xlink:href="#DejaVuSans-45" x="501.175781"/>
      <use xlink:href="#DejaVuSans-6e" x="564.359375"/>
      <use xlink:href="#DejaVuSans-65" x="627.738281"/>
      <use xlink:href="#DejaVuSans-72" x="689.261719"/>
      <use xlink:href="#DejaVuSans-67" x="728.625"/>
      <use xlink:href="#DejaVuSans-79" x="792.101562"/>
      <use xlink:href="#DejaVuSans-20" x="851.28125"/>
      <use xlink:href="#DejaVuSans-5b" x="883.068359"/>
      <use xlink:href="#DejaVuSans-6b" x="922.082031"/>
      <use xlink:href="#DejaVuSans-4a" x="979.992188"/>
      <use xlink:href="#DejaVuSans-2f" x="1009.484375"/>
      <use xlink:href="#DejaVuSans-6d" x="1043.175781"/>
      <use xlink:href="#DejaVuSans-6f" x="1140.587891"/>
      <use xlink:href="#DejaVuSans-6c" x="1201.769531"/>
      <use xlink:href="#DejaVuSans-5d" x="1229.552734"/>
     </g>
    </g>
   </g>
   <g id="line2d_19">
    <path d="M 102.17 499.48 
L 682.2 32.04 
" clip-path="url(#p193ca821b2)" style="fill: none; stroke-dasharray: 5.55,2.4; stroke-dashoffset: 0; stroke: #ff0000; stroke-width: 1.5"/>
   </g>
   <g id="patch_3">
    <path d="M 102.17 499.48 
L 102.17 32.04 
" style="fill: none; stroke: #000000; stroke-width: 0.8; stroke-linejoin: miter; stroke-linecap: square"/>
   </g>
   <g id="patch_4">
    <path d="M 682.2 499.48 
L 682.2 32.04 
" style="fill: none; stroke: #000000; stroke-width: 0.8; stroke-linejoin: miter; stroke-linecap: square"/>
   </g>
   <g id="patch_5">
    <path d="M 102.17 499.48 
L 682.2 499.48 
" style="fill: none; stroke: #000000; stroke-width: 0.8; stroke-linejoin: miter; stroke-linecap: square"/>
   </g>
   <g id="patch_6">
    <path d="M 102.17 32.04 
L 682.2 32.04 
" style="fill: none; stroke: #000000; stroke-width: 0.8; stroke-linejoin: miter; stroke-linecap: square"/>
   </g>
   <g id="text_21">
    <!-- R2 Score: 0.979 -->
    <g transform="translate(160.173 78.784) scale(0.22 -0.22)">
     <defs>
      <path id="DejaVuSans-52" d="M 2841 2188 
Q 3044 2119 3236 1894 
Q 3428 1669 3622 1275 
L 4263 0 
L 3584 0 
L 2988 1197 
Q 2756 1666 2539 1819 
Q 2322 1972 1947 1972 
L 1259 1972 
L 1259 0 
L 628 0 
L 628 4666 
L 2053 4666 
Q 2853 4666 3247 4331 
Q 3641 3997 3641 3322 
Q 3641 2881 3436 2590 
Q 3231 2300 2841 2188 
z
M 1259 4147 
L 1259 2491 
L 2053 2491 
Q 2509 2491 2742 2702 
Q 2975 2913 2975 3322 
Q 2975 3731 2742 3939 
Q 2509 4147 2053 4147 
L 1259 4147 
z
" transform="scale(0.015625)"/>
      <path id="DejaVuSans-53" d="M 3425 4513 
L 3425 3897 
Q 3066 4069 2747 4153 
Q 2428 4238 2131 4238 
Q 1616 4238 1336 4038 
Q 1056 3838 1056 3469 
Q 1056 3159 1242 3001 
Q 1428 2844 1947 2747 
L 2328 2669 
Q 3034 2534 3370 2195 
Q 3706 1856 3706 1288 
Q 3706 609 3251 259 
Q 2797 -91 1919 -91 
Q 1588 -91 1214 -16 
Q 841 59 441 206 
L 441 856 
Q 825 641 1194 531 
Q 1563 422 1919 422 
Q 2459 422 2753 634 
Q 3047 847 3047 1241 
Q 3047 1584 2836 1778 
Q 2625 1972 2144 2069 
L 1759 2144 
Q 1053 2284 737 2584 
Q 422 2884 422 3419 
Q 422 4038 858 4394 
Q 1294 4750 2059 4750 
Q 2388 4750 2728 4690 
Q 3069 4631 3425 4513 
z
" transform="scale(0.015625)"/>
      <path id="DejaVuSans-3a" d="M 750 794 
L 1409 794 
L 1409 0 
L 750 0 
L 750 794 
z
M 750 3309 
L 1409 3309 
L 1409 2516 
L 750 2516 
L 750 3309 
z
" transform="scale(0.015625)"/>
      <path id="DejaVuSans-2e" d="M 684 794 
L 1344 794 
L 1344 0 
L 684 0 
L 684 794 
z
" transform="scale(0.015625)"/>
      <path id="DejaVuSans-39" d="M 703 97 
L 703 672 
Q 941 559 1184 500 
Q 1428 441 1663 441 
Q 2288 441 2617 861 
Q 2947 1281 2994 2138 
Q 2813 1869 2534 1725 
Q 2256 1581 1919 1581 
Q 1219 1581 811 2004 
Q 403 2428 403 3163 
Q 403 3881 828 4315 
Q 1253 4750 1959 4750 
Q 2769 4750 3195 4129 
Q 3622 3509 3622 2328 
Q 3622 1225 3098 567 
Q 2575 -91 1691 -91 
Q 1453 -91 1209 -44 
Q 966 3 703 97 
z
M 1959 2075 
Q 2384 2075 2632 2365 
Q 2881 2656 2881 3163 
Q 2881 3666 2632 3958 
Q 2384 4250 1959 4250 
Q 1534 4250 1286 3958 
Q 1038 3666 1038 3163 
Q 1038 2656 1286 2365 
Q 1534 2075 1959 2075 
z
" transform="scale(0.015625)"/>
      <path id="DejaVuSans-37" d="M 525 4666 
L 3525 4666 
L 3525 4397 
L 1831 0 
L 1172 0 
L 2766 4134 
L 525 4134 
L 525 4666 
z
" transform="scale(0.015625)"/>
     </defs>
     <use xlink:href="#DejaVuSans-52"/>
     <use xlink:href="#DejaVuSans-32" x="69.482422"/>
     <use xlink:href="#DejaVuSans-20" x="133.105469"/>
     <use xlink:href="#DejaVuSans-53" x="164.892578"/>
     <use xlink:href="#DejaVuSans-63" x="228.369141"/>
     <use xlink:href="#DejaVuSans-6f" x="283.349609"/>
     <use xlink:href="#DejaVuSans-72" x="344.53125"/>
     <use xlink:href="#DejaVuSans-65" x="383.394531"/>
     <use xlink:href="#DejaVuSans-3a" x="444.917969"/>
     <use xlink:href="#DejaVuSans-20" x="478.609375"/>
     <use xlink:href="#DejaVuSans-30" x="510.396484"/>
     <use xlink:href="#DejaVuSans-2e" x="574.019531"/>
     <use xlink:href="#DejaVuSans-39" x="605.806641"/>
     <use xlink:href="#DejaVuSans-37" x="669.429688"/>
     <use xlink:href="#DejaVuSans-39" x="733.052734"/>
    </g>
   </g>
  </g>
 </g>
 <defs>
  <clipPath id="p193ca821b2">
   <rect x="102.17" y="32.04" width="580.03" height="467.44"/>
  </clipPath>
 </defs>
</svg>
