<?xml version="1.0" encoding="utf-8" standalone="no"?>
<!DOCTYPE svg PUBLIC "-//W3C//DTD SVG 1.1//EN"
  "http://www.w3.org/Graphics/SVG/1.1/DTD/svg11.dtd">
<svg xmlns:xlink="http://www.w3.org/1999/xlink" width="720pt" height="576pt" viewBox="0 0 720 576" xmlns="http://www.w3.org/2000/svg" version="1.1">
 <metadata>
  <rdf:RDF xmlns:dc="http://purl.org/dc/elements/1.1/" xmlns:cc="http://creativecommons.org/ns#" xmlns:rdf="http://www.w3.org/1999/02/22-rdf-syntax-ns#">
   <cc:Work>
    <dc:type rdf:resource="http://purl.org/dc/dcmitype/StillImage"/>
    <dc:date>2024-12-07T19:32:15.101434</dc:date>
    <dc:format>image/svg+xml</dc:format>
    <dc:creator>
     <cc:Agent>
      <dc:title>Matplotlib v3.8.4, https://matplotlib.org/</dc:title>
     </cc:Agent>
    </dc:creator>
   </cc:Work>
  </rdf:RDF>
 </metadata>
 <defs>
  <style type="text/css">*{stroke-linejoin: round; stroke-linecap: butt}</style>
 </defs>
 <g id="figure_1">
  <g id="patch_1">
   <path d="M 0 576 
L 720 576 
L 720 0 
L 0 0 
z
" style="fill: #ffffff"/>
  </g>
  <g id="axes_1">
   <g id="patch_2">
    <path d="M 83.72 499.48 
L 696.24 499.48 
L 696.24 23.76 
L 83.72 23.76 
z
" style="fill: #ffffff"/>
   </g>
   <g id="QuadContourSet_1">
    <path d="M 95.986328 512.121398 
L 99.27922 512.297399 
L 102.572111 512.220767 
L 105.865003 512.060107 
L 109.157895 511.661178 
L 111.118703 511.151913 
L 112.450787 510.965027 
L 115.743679 510.272656 
L 119.03657 509.098526 
L 119.825274 508.738348 
L 122.329462 508.038878 
L 125.622354 506.546283 
L 126.074802 506.324783 
L 128.915246 505.362451 
L 131.717718 503.911217 
L 132.208138 503.71469 
L 135.501029 502.268933 
L 136.938117 501.497652 
L 138.793921 500.626625 
L 141.380412 499.084087 
L 142.086813 498.671343 
L 145.072491 496.670522 
L 145.379705 496.444626 
L 148.256289 494.256956 
L 148.672597 493.867841 
L 150.997975 491.843391 
L 151.965488 490.680842 
L 153.209833 489.429826 
L 154.923085 487.01626 
L 155.25838 486.371058 
L 156.566337 484.602695 
L 157.642824 482.18913 
L 158.073807 479.775565 
L 157.718552 477.361999 
L 156.240294 474.948434 
L 155.25838 474.048743 
L 151.965488 472.681813 
L 150.712377 472.534869 
L 148.672597 472.242333 
L 145.379705 471.5683 
L 142.086813 471.016298 
L 138.793921 470.989143 
L 135.501029 471.263749 
L 132.208138 471.819127 
L 129.773551 472.534869 
L 128.915246 472.695061 
L 125.622354 473.58675 
L 122.431879 474.948434 
L 122.329462 474.980029 
L 119.03657 476.18624 
L 116.873669 477.361999 
L 115.743679 477.861666 
L 112.581703 479.775565 
L 112.450787 479.846636 
L 109.157895 481.952773 
L 108.831274 482.18913 
L 105.865003 484.408891 
L 105.616061 484.602695 
L 102.762849 487.01626 
L 102.572111 487.206809 
L 100.085636 489.429826 
L 99.27922 490.416919 
L 97.827684 491.843391 
L 96.143499 494.256956 
L 95.986328 494.53413 
L 94.260619 496.670522 
L 93.029365 499.084087 
L 92.693436 499.945405 
L 91.699126 501.497652 
L 90.670808 503.911217 
L 90.171279 506.324783 
L 90.365257 508.738348 
L 92.693436 511.151913 
L 92.693436 511.151913 
z
M 98.046472 506.324783 
L 96.827428 503.911217 
L 97.166741 501.497652 
L 98.226898 499.084087 
L 99.27922 497.621324 
L 99.780446 496.670522 
L 101.507435 494.256956 
L 102.572111 493.125133 
L 103.598244 491.843391 
L 105.865003 489.712521 
L 106.150677 489.429826 
L 109.004926 487.01626 
L 109.157895 486.896751 
L 112.335002 484.602695 
L 112.450787 484.522536 
L 115.743679 482.468361 
L 116.319709 482.18913 
L 119.03657 480.704051 
L 121.480124 479.775565 
L 122.329462 479.376777 
L 125.622354 478.190419 
L 128.915246 477.465193 
L 129.625032 477.361999 
L 132.208138 476.798565 
L 135.501029 476.514401 
L 138.793921 476.741298 
L 142.086813 477.361999 
L 142.086813 477.361999 
L 145.379705 478.071623 
L 148.523408 479.775565 
L 148.672597 479.969318 
L 149.841169 482.18913 
L 149.624647 484.602695 
L 148.672597 486.269198 
L 148.367774 487.01626 
L 146.651676 489.429826 
L 145.379705 490.624939 
L 144.279046 491.843391 
L 142.086813 493.630454 
L 141.366701 494.256956 
L 138.793921 496.116936 
L 138.000891 496.670522 
L 135.501029 498.300261 
L 134.123438 499.084087 
L 132.208138 500.225179 
L 129.498671 501.497652 
L 128.915246 501.818819 
L 125.622354 503.361234 
L 124.037112 503.911217 
L 122.329462 504.689636 
L 119.03657 505.754036 
L 116.448022 506.324783 
L 115.743679 506.553452 
L 112.450787 507.180203 
L 109.157895 507.497 
L 105.865003 507.696027 
L 102.572111 507.710107 
L 99.27922 507.062401 
z
" clip-path="url(#p3e29c08714)" style="fill: #ecf4fb"/>
    <path d="M 99.27922 507.062401 
L 102.572111 507.710107 
L 105.865003 507.696027 
L 109.157895 507.497 
L 112.450787 507.180203 
L 115.743679 506.553452 
L 116.448022 506.324783 
L 119.03657 505.754036 
L 122.329462 504.689636 
L 124.037112 503.911217 
L 125.622354 503.361234 
L 128.915246 501.818819 
L 129.498671 501.497652 
L 132.208138 500.225179 
L 134.123438 499.084087 
L 135.501029 498.300261 
L 138.000891 496.670522 
L 138.793921 496.116936 
L 141.366701 494.256956 
L 142.086813 493.630454 
L 144.279046 491.843391 
L 145.379705 490.624939 
L 146.651676 489.429826 
L 148.367774 487.01626 
L 148.672597 486.269198 
L 149.624647 484.602695 
L 149.841169 482.18913 
L 148.672597 479.969318 
L 148.523408 479.775565 
L 145.379705 478.071623 
L 142.086813 477.361999 
L 142.086813 477.361999 
L 138.793921 476.741298 
L 135.501029 476.514401 
L 132.208138 476.798565 
L 129.625032 477.361999 
L 128.915246 477.465193 
L 125.622354 478.190419 
L 122.329462 479.376777 
L 121.480124 479.775565 
L 119.03657 480.704051 
L 116.319709 482.18913 
L 115.743679 482.468361 
L 112.450787 484.522536 
L 112.335002 484.602695 
L 109.157895 486.896751 
L 109.004926 487.01626 
L 106.150677 489.429826 
L 105.865003 489.712521 
L 103.598244 491.843391 
L 102.572111 493.125133 
L 101.507435 494.256956 
L 99.780446 496.670522 
L 99.27922 497.621324 
L 98.226898 499.084087 
L 97.166741 501.497652 
L 96.827428 503.911217 
L 98.046472 506.324783 
z
M 101.015466 503.911217 
L 100.281198 501.497652 
L 100.945041 499.084087 
L 102.448689 496.670522 
L 102.572111 496.523629 
L 104.132866 494.256956 
L 105.865003 492.48026 
L 106.433919 491.843391 
L 109.157895 489.429826 
L 109.157895 489.429826 
L 112.241781 487.01626 
L 112.450787 486.864451 
L 115.743679 484.755949 
L 116.042811 484.602695 
L 119.03657 482.933944 
L 120.948642 482.18913 
L 122.329462 481.54382 
L 125.622354 480.43316 
L 128.713001 479.775565 
L 128.915246 479.716471 
L 132.208138 479.184726 
L 135.501029 479.224977 
L 138.654443 479.775565 
L 138.793921 479.800969 
L 142.086813 480.757595 
L 144.493263 482.18913 
L 145.379705 483.946685 
L 145.603981 484.602695 
L 145.379705 485.372631 
L 145.024756 487.01626 
L 143.54687 489.429826 
L 142.086813 490.890759 
L 141.260006 491.843391 
L 138.793921 493.887139 
L 138.365822 494.256956 
L 135.501029 496.287741 
L 134.928306 496.670522 
L 132.208138 498.358287 
L 130.835571 499.084087 
L 128.915246 500.145353 
L 125.737104 501.497652 
L 125.622354 501.554924 
L 122.329462 502.909936 
L 119.03657 503.829982 
L 118.5881 503.911217 
L 115.743679 504.583818 
L 112.450787 505.015656 
L 109.157895 505.304117 
L 105.865003 505.416278 
L 102.572111 504.901772 
z
" clip-path="url(#p3e29c08714)" style="fill: #d6e5f4"/>
    <path d="M 102.572111 504.901772 
L 105.865003 505.416278 
L 109.157895 505.304117 
L 112.450787 505.015656 
L 115.743679 504.583818 
L 118.5881 503.911217 
L 119.03657 503.829982 
L 122.329462 502.909936 
L 125.622354 501.554924 
L 125.737104 501.497652 
L 128.915246 500.145353 
L 130.835571 499.084087 
L 132.208138 498.358287 
L 134.928306 496.670522 
L 135.501029 496.287741 
L 138.365822 494.256956 
L 138.793921 493.887139 
L 141.260006 491.843391 
L 142.086813 490.890759 
L 143.54687 489.429826 
L 145.024756 487.01626 
L 145.379705 485.372631 
L 145.603981 484.602695 
L 145.379705 483.946685 
L 144.493263 482.18913 
L 142.086813 480.757595 
L 138.793921 479.800969 
L 138.654443 479.775565 
L 135.501029 479.224977 
L 132.208138 479.184726 
L 128.915246 479.716471 
L 128.713001 479.775565 
L 125.622354 480.43316 
L 122.329462 481.54382 
L 120.948642 482.18913 
L 119.03657 482.933944 
L 116.042811 484.602695 
L 115.743679 484.755949 
L 112.450787 486.864451 
L 112.241781 487.01626 
L 109.157895 489.429826 
L 109.157895 489.429826 
L 106.433919 491.843391 
L 105.865003 492.48026 
L 104.132866 494.256956 
L 102.572111 496.523629 
L 102.448689 496.670522 
L 100.945041 499.084087 
L 100.281198 501.497652 
L 101.015466 503.911217 
z
M 103.127329 501.497652 
L 103.244767 499.084087 
L 104.375341 496.670522 
L 105.865003 494.809124 
L 106.249933 494.256956 
L 108.506148 491.843391 
L 109.157895 491.265914 
L 111.280467 489.429826 
L 112.450787 488.535432 
L 114.726748 487.01626 
L 115.743679 486.349453 
L 119.03657 484.647969 
L 119.146461 484.602695 
L 122.329462 483.126955 
L 125.460576 482.18913 
L 125.622354 482.128704 
L 128.915246 481.328593 
L 132.208138 481.096599 
L 135.501029 481.48545 
L 137.982719 482.18913 
L 138.793921 482.512667 
L 141.738088 484.602695 
L 142.086813 487.01626 
L 140.952499 489.429826 
L 138.846181 491.843391 
L 138.793921 491.886701 
L 136.050124 494.256956 
L 135.501029 494.646196 
L 132.472195 496.670522 
L 132.208138 496.83436 
L 128.915246 498.653985 
L 127.988631 499.084087 
L 125.622354 500.213167 
L 122.329462 501.388803 
L 121.899577 501.497652 
L 119.03657 502.331442 
L 115.743679 502.919714 
L 112.450787 503.301511 
L 109.157895 503.557505 
L 105.865003 503.403044 
z
" clip-path="url(#p3e29c08714)" style="fill: #bcd7eb"/>
    <path d="M 105.865003 503.403044 
L 109.157895 503.557505 
L 112.450787 503.301511 
L 115.743679 502.919714 
L 119.03657 502.331442 
L 121.899577 501.497652 
L 122.329462 501.388803 
L 125.622354 500.213167 
L 127.988631 499.084087 
L 128.915246 498.653985 
L 132.208138 496.83436 
L 132.472195 496.670522 
L 135.501029 494.646196 
L 136.050124 494.256956 
L 138.793921 491.886701 
L 138.846181 491.843391 
L 140.952499 489.429826 
L 142.086813 487.01626 
L 141.738088 484.602695 
L 138.793921 482.512667 
L 137.982719 482.18913 
L 135.501029 481.48545 
L 132.208138 481.096599 
L 128.915246 481.328593 
L 125.622354 482.128704 
L 125.460576 482.18913 
L 122.329462 483.126955 
L 119.146461 484.602695 
L 119.03657 484.647969 
L 115.743679 486.349453 
L 114.726748 487.01626 
L 112.450787 488.535432 
L 111.280467 489.429826 
L 109.157895 491.265914 
L 108.506148 491.843391 
L 106.249933 494.256956 
L 105.865003 494.809124 
L 104.375341 496.670522 
L 103.244767 499.084087 
L 103.127329 501.497652 
z
M 106.27297 501.497652 
L 105.865003 501.116355 
L 105.171614 499.084087 
L 105.865003 497.41805 
L 106.120984 496.670522 
L 107.797423 494.256956 
L 109.157895 492.88353 
L 110.161809 491.843391 
L 112.450787 489.94713 
L 113.131819 489.429826 
L 115.743679 487.64156 
L 116.860029 487.01626 
L 119.03657 485.785044 
L 121.906383 484.602695 
L 122.329462 484.406542 
L 125.622354 483.318903 
L 128.915246 482.752539 
L 132.208138 482.784973 
L 135.501029 483.638471 
L 137.521247 484.602695 
L 138.793921 486.057466 
L 139.299573 487.01626 
L 138.793921 488.992693 
L 138.698895 489.429826 
L 136.827887 491.843391 
L 135.501029 492.974134 
L 134.015563 494.256956 
L 132.208138 495.480144 
L 130.2902 496.670522 
L 128.915246 497.440855 
L 125.622354 498.968621 
L 125.302531 499.084087 
L 122.329462 500.162638 
L 119.03657 500.983058 
L 115.743679 501.497652 
L 115.743679 501.497652 
L 112.450787 501.981132 
L 109.157895 502.163305 
z
" clip-path="url(#p3e29c08714)" style="fill: #97c6df"/>
    <path d="M 109.157895 502.163305 
L 112.450787 501.981132 
L 115.743679 501.497652 
L 115.743679 501.497652 
L 119.03657 500.983058 
L 122.329462 500.162638 
L 125.302531 499.084087 
L 125.622354 498.968621 
L 128.915246 497.440855 
L 130.2902 496.670522 
L 132.208138 495.480144 
L 134.015563 494.256956 
L 135.501029 492.974134 
L 136.827887 491.843391 
L 138.698895 489.429826 
L 138.793921 488.992693 
L 139.299573 487.01626 
L 138.793921 486.057466 
L 137.521247 484.602695 
L 135.501029 483.638471 
L 132.208138 482.784973 
L 128.915246 482.752539 
L 125.622354 483.318903 
L 122.329462 484.406542 
L 121.906383 484.602695 
L 119.03657 485.785044 
L 116.860029 487.01626 
L 115.743679 487.64156 
L 113.131819 489.429826 
L 112.450787 489.94713 
L 110.161809 491.843391 
L 109.157895 492.88353 
L 107.797423 494.256956 
L 106.120984 496.670522 
L 105.865003 497.41805 
L 105.171614 499.084087 
L 105.865003 501.116355 
L 106.27297 501.497652 
z
M 107.538979 499.084087 
L 107.837622 496.670522 
L 109.157895 494.731192 
L 109.455653 494.256956 
L 111.794461 491.843391 
L 112.450787 491.29967 
L 114.912443 489.429826 
L 115.743679 488.860702 
L 119.03657 487.01626 
L 119.03657 487.01626 
L 122.329462 485.559351 
L 125.585557 484.602695 
L 125.622354 484.590361 
L 128.915246 484.184015 
L 132.079134 484.602695 
L 132.208138 484.633515 
L 135.501029 486.681012 
L 135.842187 487.01626 
L 136.134531 489.429826 
L 135.501029 490.36425 
L 134.562629 491.843391 
L 132.208138 493.919618 
L 131.812093 494.256956 
L 128.915246 496.038624 
L 127.733985 496.670522 
L 125.622354 497.647325 
L 122.329462 498.821097 
L 121.265633 499.084087 
L 119.03657 499.620004 
L 115.743679 500.237033 
L 112.450787 500.627029 
L 109.157895 500.377651 
z
" clip-path="url(#p3e29c08714)" style="fill: #69add5"/>
    <path d="M 109.157895 500.377651 
L 112.450787 500.627029 
L 115.743679 500.237033 
L 119.03657 499.620004 
L 121.265633 499.084087 
L 122.329462 498.821097 
L 125.622354 497.647325 
L 127.733985 496.670522 
L 128.915246 496.038624 
L 131.812093 494.256956 
L 132.208138 493.919618 
L 134.562629 491.843391 
L 135.501029 490.36425 
L 136.134531 489.429826 
L 135.842187 487.01626 
L 135.501029 486.681012 
L 132.208138 484.633515 
L 132.079134 484.602695 
L 128.915246 484.184015 
L 125.622354 484.590361 
L 125.585557 484.602695 
L 122.329462 485.559351 
L 119.03657 487.01626 
L 119.03657 487.01626 
L 115.743679 488.860702 
L 114.912443 489.429826 
L 112.450787 491.29967 
L 111.794461 491.843391 
L 109.455653 494.256956 
L 109.157895 494.731192 
L 107.837622 496.670522 
L 107.538979 499.084087 
z
M 110.883532 499.084087 
L 109.499376 496.670522 
L 110.915341 494.256956 
L 112.450787 492.685786 
L 113.303125 491.843391 
L 115.743679 489.99491 
L 116.613206 489.429826 
L 119.03657 488.032126 
L 121.358883 487.01626 
L 122.329462 486.586836 
L 125.622354 485.769366 
L 128.915246 485.728452 
L 132.208138 487.01626 
L 132.208138 487.01626 
L 133.376643 489.429826 
L 132.350158 491.843391 
L 132.208138 491.968627 
L 129.521572 494.256956 
L 128.915246 494.629869 
L 125.622354 496.355234 
L 124.865734 496.670522 
L 122.329462 497.5289 
L 119.03657 498.395663 
L 115.743679 499.074067 
L 115.649387 499.084087 
L 112.450787 499.414178 
z
" clip-path="url(#p3e29c08714)" style="fill: #4594c7"/>
    <path d="M 112.450787 499.414178 
L 115.649387 499.084087 
L 115.743679 499.074067 
L 119.03657 498.395663 
L 122.329462 497.5289 
L 124.865734 496.670522 
L 125.622354 496.355234 
L 128.915246 494.629869 
L 129.521572 494.256956 
L 132.208138 491.968627 
L 132.350158 491.843391 
L 133.376643 489.429826 
L 132.208138 487.01626 
L 132.208138 487.01626 
L 128.915246 485.728452 
L 125.622354 485.769366 
L 122.329462 486.586836 
L 121.358883 487.01626 
L 119.03657 488.032126 
L 116.613206 489.429826 
L 115.743679 489.99491 
L 113.303125 491.843391 
L 112.450787 492.685786 
L 110.915341 494.256956 
L 109.499376 496.670522 
L 110.883532 499.084087 
z
M 111.677212 496.670522 
L 112.450787 494.292518 
L 112.462476 494.256956 
L 114.90133 491.843391 
L 115.743679 491.205394 
L 118.475847 489.429826 
L 119.03657 489.106423 
L 122.329462 487.795123 
L 125.622354 487.01626 
L 128.915246 488.067113 
L 130.080208 489.429826 
L 129.373107 491.843391 
L 128.915246 492.249582 
L 126.438647 494.256956 
L 125.622354 494.672706 
L 122.329462 496.076499 
L 120.654343 496.670522 
L 119.03657 497.126356 
L 115.743679 497.753301 
L 112.450787 497.451422 
z
" clip-path="url(#p3e29c08714)" style="fill: #2676b8"/>
    <path d="M 112.450787 497.451422 
L 115.743679 497.753301 
L 119.03657 497.126356 
L 120.654343 496.670522 
L 122.329462 496.076499 
L 125.622354 494.672706 
L 126.438647 494.256956 
L 128.915246 492.249582 
L 129.373107 491.843391 
L 130.080208 489.429826 
L 128.915246 488.067113 
L 125.622354 487.01626 
L 122.329462 487.795123 
L 119.03657 489.106423 
L 118.475847 489.429826 
L 115.743679 491.205394 
L 114.90133 491.843391 
L 112.462476 494.256956 
L 112.450787 494.292518 
L 111.677212 496.670522 
z
M 114.942751 494.256956 
L 115.743679 493.345709 
L 117.268234 491.843391 
L 119.03657 490.739739 
L 121.845691 489.429826 
L 122.329462 489.246621 
L 125.622354 489.39285 
L 125.694028 489.429826 
L 125.622354 491.843391 
L 125.622354 491.843391 
L 122.37343 494.256956 
L 122.329462 494.275981 
L 119.03657 495.371865 
L 115.743679 495.565626 
z
" clip-path="url(#p3e29c08714)" style="fill: #0d57a1"/>
    <path d="M 115.743679 495.565626 
L 119.03657 495.371865 
L 122.329462 494.275981 
L 122.37343 494.256956 
L 125.622354 491.843391 
L 125.622354 491.843391 
L 125.694028 489.429826 
L 125.622354 489.39285 
L 122.329462 489.246621 
L 121.845691 489.429826 
L 119.03657 490.739739 
L 117.268234 491.843391 
L 115.743679 493.345709 
L 114.942751 494.256956 
z
" clip-path="url(#p3e29c08714)" style="fill: #083b7c"/>
   </g>
   <g id="matplotlib.axis_1">
    <g id="xtick_1">
     <g id="line2d_1">
      <defs>
       <path id="md132da59a6" d="M 0 0 
L 0 3.5 
" style="stroke: #000000; stroke-width: 0.8"/>
      </defs>
      <g>
       <use xlink:href="#md132da59a6" x="162.746122" y="499.48" style="stroke: #000000; stroke-width: 0.8"/>
      </g>
     </g>
     <g id="text_1">
      <!-- 10 -->
      <g transform="translate(148.748622 523.196563) scale(0.22 -0.22)">
       <defs>
        <path id="DejaVuSans-31" d="M 794 531 
L 1825 531 
L 1825 4091 
L 703 3866 
L 703 4441 
L 1819 4666 
L 2450 4666 
L 2450 531 
L 3481 531 
L 3481 0 
L 794 0 
L 794 531 
z
" transform="scale(0.015625)"/>
        <path id="DejaVuSans-30" d="M 2034 4250 
Q 1547 4250 1301 3770 
Q 1056 3291 1056 2328 
Q 1056 1369 1301 889 
Q 1547 409 2034 409 
Q 2525 409 2770 889 
Q 3016 1369 3016 2328 
Q 3016 3291 2770 3770 
Q 2525 4250 2034 4250 
z
M 2034 4750 
Q 2819 4750 3233 4129 
Q 3647 3509 3647 2328 
Q 3647 1150 3233 529 
Q 2819 -91 2034 -91 
Q 1250 -91 836 529 
Q 422 1150 422 2328 
Q 422 3509 836 4129 
Q 1250 4750 2034 4750 
z
" transform="scale(0.015625)"/>
       </defs>
       <use xlink:href="#DejaVuSans-31"/>
       <use xlink:href="#DejaVuSans-30" x="63.623047"/>
      </g>
     </g>
    </g>
    <g id="xtick_2">
     <g id="line2d_2">
      <g>
       <use xlink:href="#md132da59a6" x="253.259101" y="499.48" style="stroke: #000000; stroke-width: 0.8"/>
      </g>
     </g>
     <g id="text_2">
      <!-- 20 -->
      <g transform="translate(239.261601 523.196563) scale(0.22 -0.22)">
       <defs>
        <path id="DejaVuSans-32" d="M 1228 531 
L 3431 531 
L 3431 0 
L 469 0 
L 469 531 
Q 828 903 1448 1529 
Q 2069 2156 2228 2338 
Q 2531 2678 2651 2914 
Q 2772 3150 2772 3378 
Q 2772 3750 2511 3984 
Q 2250 4219 1831 4219 
Q 1534 4219 1204 4116 
Q 875 4013 500 3803 
L 500 4441 
Q 881 4594 1212 4672 
Q 1544 4750 1819 4750 
Q 2544 4750 2975 4387 
Q 3406 4025 3406 3419 
Q 3406 3131 3298 2873 
Q 3191 2616 2906 2266 
Q 2828 2175 2409 1742 
Q 1991 1309 1228 531 
z
" transform="scale(0.015625)"/>
       </defs>
       <use xlink:href="#DejaVuSans-32"/>
       <use xlink:href="#DejaVuSans-30" x="63.623047"/>
      </g>
     </g>
    </g>
    <g id="xtick_3">
     <g id="line2d_3">
      <g>
       <use xlink:href="#md132da59a6" x="343.77208" y="499.48" style="stroke: #000000; stroke-width: 0.8"/>
      </g>
     </g>
     <g id="text_3">
      <!-- 30 -->
      <g transform="translate(329.77458 523.196563) scale(0.22 -0.22)">
       <defs>
        <path id="DejaVuSans-33" d="M 2597 2516 
Q 3050 2419 3304 2112 
Q 3559 1806 3559 1356 
Q 3559 666 3084 287 
Q 2609 -91 1734 -91 
Q 1441 -91 1130 -33 
Q 819 25 488 141 
L 488 750 
Q 750 597 1062 519 
Q 1375 441 1716 441 
Q 2309 441 2620 675 
Q 2931 909 2931 1356 
Q 2931 1769 2642 2001 
Q 2353 2234 1838 2234 
L 1294 2234 
L 1294 2753 
L 1863 2753 
Q 2328 2753 2575 2939 
Q 2822 3125 2822 3475 
Q 2822 3834 2567 4026 
Q 2313 4219 1838 4219 
Q 1578 4219 1281 4162 
Q 984 4106 628 3988 
L 628 4550 
Q 988 4650 1302 4700 
Q 1616 4750 1894 4750 
Q 2613 4750 3031 4423 
Q 3450 4097 3450 3541 
Q 3450 3153 3228 2886 
Q 3006 2619 2597 2516 
z
" transform="scale(0.015625)"/>
       </defs>
       <use xlink:href="#DejaVuSans-33"/>
       <use xlink:href="#DejaVuSans-30" x="63.623047"/>
      </g>
     </g>
    </g>
    <g id="xtick_4">
     <g id="line2d_4">
      <g>
       <use xlink:href="#md132da59a6" x="434.285059" y="499.48" style="stroke: #000000; stroke-width: 0.8"/>
      </g>
     </g>
     <g id="text_4">
      <!-- 40 -->
      <g transform="translate(420.287559 523.196563) scale(0.22 -0.22)">
       <defs>
        <path id="DejaVuSans-34" d="M 2419 4116 
L 825 1625 
L 2419 1625 
L 2419 4116 
z
M 2253 4666 
L 3047 4666 
L 3047 1625 
L 3713 1625 
L 3713 1100 
L 3047 1100 
L 3047 0 
L 2419 0 
L 2419 1100 
L 313 1100 
L 313 1709 
L 2253 4666 
z
" transform="scale(0.015625)"/>
       </defs>
       <use xlink:href="#DejaVuSans-34"/>
       <use xlink:href="#DejaVuSans-30" x="63.623047"/>
      </g>
     </g>
    </g>
    <g id="xtick_5">
     <g id="line2d_5">
      <g>
       <use xlink:href="#md132da59a6" x="524.798037" y="499.48" style="stroke: #000000; stroke-width: 0.8"/>
      </g>
     </g>
     <g id="text_5">
      <!-- 50 -->
      <g transform="translate(510.800537 523.196563) scale(0.22 -0.22)">
       <defs>
        <path id="DejaVuSans-35" d="M 691 4666 
L 3169 4666 
L 3169 4134 
L 1269 4134 
L 1269 2991 
Q 1406 3038 1543 3061 
Q 1681 3084 1819 3084 
Q 2600 3084 3056 2656 
Q 3513 2228 3513 1497 
Q 3513 744 3044 326 
Q 2575 -91 1722 -91 
Q 1428 -91 1123 -41 
Q 819 9 494 109 
L 494 744 
Q 775 591 1075 516 
Q 1375 441 1709 441 
Q 2250 441 2565 725 
Q 2881 1009 2881 1497 
Q 2881 1984 2565 2268 
Q 2250 2553 1709 2553 
Q 1456 2553 1204 2497 
Q 953 2441 691 2322 
L 691 4666 
z
" transform="scale(0.015625)"/>
       </defs>
       <use xlink:href="#DejaVuSans-35"/>
       <use xlink:href="#DejaVuSans-30" x="63.623047"/>
      </g>
     </g>
    </g>
    <g id="xtick_6">
     <g id="line2d_6">
      <g>
       <use xlink:href="#md132da59a6" x="615.311016" y="499.48" style="stroke: #000000; stroke-width: 0.8"/>
      </g>
     </g>
     <g id="text_6">
      <!-- 60 -->
      <g transform="translate(601.313516 523.196563) scale(0.22 -0.22)">
       <defs>
        <path id="DejaVuSans-36" d="M 2113 2584 
Q 1688 2584 1439 2293 
Q 1191 2003 1191 1497 
Q 1191 994 1439 701 
Q 1688 409 2113 409 
Q 2538 409 2786 701 
Q 3034 994 3034 1497 
Q 3034 2003 2786 2293 
Q 2538 2584 2113 2584 
z
M 3366 4563 
L 3366 3988 
Q 3128 4100 2886 4159 
Q 2644 4219 2406 4219 
Q 1781 4219 1451 3797 
Q 1122 3375 1075 2522 
Q 1259 2794 1537 2939 
Q 1816 3084 2150 3084 
Q 2853 3084 3261 2657 
Q 3669 2231 3669 1497 
Q 3669 778 3244 343 
Q 2819 -91 2113 -91 
Q 1303 -91 875 529 
Q 447 1150 447 2328 
Q 447 3434 972 4092 
Q 1497 4750 2381 4750 
Q 2619 4750 2861 4703 
Q 3103 4656 3366 4563 
z
" transform="scale(0.015625)"/>
       </defs>
       <use xlink:href="#DejaVuSans-36"/>
       <use xlink:href="#DejaVuSans-30" x="63.623047"/>
      </g>
     </g>
    </g>
    <g id="text_7">
     <!-- Force Uncertainties -->
     <g transform="translate(283.426094 548.488438) scale(0.22 -0.22)">
      <defs>
       <path id="DejaVuSans-46" d="M 628 4666 
L 3309 4666 
L 3309 4134 
L 1259 4134 
L 1259 2759 
L 3109 2759 
L 3109 2228 
L 1259 2228 
L 1259 0 
L 628 0 
L 628 4666 
z
" transform="scale(0.015625)"/>
       <path id="DejaVuSans-6f" d="M 1959 3097 
Q 1497 3097 1228 2736 
Q 959 2375 959 1747 
Q 959 1119 1226 758 
Q 1494 397 1959 397 
Q 2419 397 2687 759 
Q 2956 1122 2956 1747 
Q 2956 2369 2687 2733 
Q 2419 3097 1959 3097 
z
M 1959 3584 
Q 2709 3584 3137 3096 
Q 3566 2609 3566 1747 
Q 3566 888 3137 398 
Q 2709 -91 1959 -91 
Q 1206 -91 779 398 
Q 353 888 353 1747 
Q 353 2609 779 3096 
Q 1206 3584 1959 3584 
z
" transform="scale(0.015625)"/>
       <path id="DejaVuSans-72" d="M 2631 2963 
Q 2534 3019 2420 3045 
Q 2306 3072 2169 3072 
Q 1681 3072 1420 2755 
Q 1159 2438 1159 1844 
L 1159 0 
L 581 0 
L 581 3500 
L 1159 3500 
L 1159 2956 
Q 1341 3275 1631 3429 
Q 1922 3584 2338 3584 
Q 2397 3584 2469 3576 
Q 2541 3569 2628 3553 
L 2631 2963 
z
" transform="scale(0.015625)"/>
       <path id="DejaVuSans-63" d="M 3122 3366 
L 3122 2828 
Q 2878 2963 2633 3030 
Q 2388 3097 2138 3097 
Q 1578 3097 1268 2742 
Q 959 2388 959 1747 
Q 959 1106 1268 751 
Q 1578 397 2138 397 
Q 2388 397 2633 464 
Q 2878 531 3122 666 
L 3122 134 
Q 2881 22 2623 -34 
Q 2366 -91 2075 -91 
Q 1284 -91 818 406 
Q 353 903 353 1747 
Q 353 2603 823 3093 
Q 1294 3584 2113 3584 
Q 2378 3584 2631 3529 
Q 2884 3475 3122 3366 
z
" transform="scale(0.015625)"/>
       <path id="DejaVuSans-65" d="M 3597 1894 
L 3597 1613 
L 953 1613 
Q 991 1019 1311 708 
Q 1631 397 2203 397 
Q 2534 397 2845 478 
Q 3156 559 3463 722 
L 3463 178 
Q 3153 47 2828 -22 
Q 2503 -91 2169 -91 
Q 1331 -91 842 396 
Q 353 884 353 1716 
Q 353 2575 817 3079 
Q 1281 3584 2069 3584 
Q 2775 3584 3186 3129 
Q 3597 2675 3597 1894 
z
M 3022 2063 
Q 3016 2534 2758 2815 
Q 2500 3097 2075 3097 
Q 1594 3097 1305 2825 
Q 1016 2553 972 2059 
L 3022 2063 
z
" transform="scale(0.015625)"/>
       <path id="DejaVuSans-20" transform="scale(0.015625)"/>
       <path id="DejaVuSans-55" d="M 556 4666 
L 1191 4666 
L 1191 1831 
Q 1191 1081 1462 751 
Q 1734 422 2344 422 
Q 2950 422 3222 751 
Q 3494 1081 3494 1831 
L 3494 4666 
L 4128 4666 
L 4128 1753 
Q 4128 841 3676 375 
Q 3225 -91 2344 -91 
Q 1459 -91 1007 375 
Q 556 841 556 1753 
L 556 4666 
z
" transform="scale(0.015625)"/>
       <path id="DejaVuSans-6e" d="M 3513 2113 
L 3513 0 
L 2938 0 
L 2938 2094 
Q 2938 2591 2744 2837 
Q 2550 3084 2163 3084 
Q 1697 3084 1428 2787 
Q 1159 2491 1159 1978 
L 1159 0 
L 581 0 
L 581 3500 
L 1159 3500 
L 1159 2956 
Q 1366 3272 1645 3428 
Q 1925 3584 2291 3584 
Q 2894 3584 3203 3211 
Q 3513 2838 3513 2113 
z
" transform="scale(0.015625)"/>
       <path id="DejaVuSans-74" d="M 1172 4494 
L 1172 3500 
L 2356 3500 
L 2356 3053 
L 1172 3053 
L 1172 1153 
Q 1172 725 1289 603 
Q 1406 481 1766 481 
L 2356 481 
L 2356 0 
L 1766 0 
Q 1100 0 847 248 
Q 594 497 594 1153 
L 594 3053 
L 172 3053 
L 172 3500 
L 594 3500 
L 594 4494 
L 1172 4494 
z
" transform="scale(0.015625)"/>
       <path id="DejaVuSans-61" d="M 2194 1759 
Q 1497 1759 1228 1600 
Q 959 1441 959 1056 
Q 959 750 1161 570 
Q 1363 391 1709 391 
Q 2188 391 2477 730 
Q 2766 1069 2766 1631 
L 2766 1759 
L 2194 1759 
z
M 3341 1997 
L 3341 0 
L 2766 0 
L 2766 531 
Q 2569 213 2275 61 
Q 1981 -91 1556 -91 
Q 1019 -91 701 211 
Q 384 513 384 1019 
Q 384 1609 779 1909 
Q 1175 2209 1959 2209 
L 2766 2209 
L 2766 2266 
Q 2766 2663 2505 2880 
Q 2244 3097 1772 3097 
Q 1472 3097 1187 3025 
Q 903 2953 641 2809 
L 641 3341 
Q 956 3463 1253 3523 
Q 1550 3584 1831 3584 
Q 2591 3584 2966 3190 
Q 3341 2797 3341 1997 
z
" transform="scale(0.015625)"/>
       <path id="DejaVuSans-69" d="M 603 3500 
L 1178 3500 
L 1178 0 
L 603 0 
L 603 3500 
z
M 603 4863 
L 1178 4863 
L 1178 4134 
L 603 4134 
L 603 4863 
z
" transform="scale(0.015625)"/>
       <path id="DejaVuSans-73" d="M 2834 3397 
L 2834 2853 
Q 2591 2978 2328 3040 
Q 2066 3103 1784 3103 
Q 1356 3103 1142 2972 
Q 928 2841 928 2578 
Q 928 2378 1081 2264 
Q 1234 2150 1697 2047 
L 1894 2003 
Q 2506 1872 2764 1633 
Q 3022 1394 3022 966 
Q 3022 478 2636 193 
Q 2250 -91 1575 -91 
Q 1294 -91 989 -36 
Q 684 19 347 128 
L 347 722 
Q 666 556 975 473 
Q 1284 391 1588 391 
Q 1994 391 2212 530 
Q 2431 669 2431 922 
Q 2431 1156 2273 1281 
Q 2116 1406 1581 1522 
L 1381 1569 
Q 847 1681 609 1914 
Q 372 2147 372 2553 
Q 372 3047 722 3315 
Q 1072 3584 1716 3584 
Q 2034 3584 2315 3537 
Q 2597 3491 2834 3397 
z
" transform="scale(0.015625)"/>
      </defs>
      <use xlink:href="#DejaVuSans-46"/>
      <use xlink:href="#DejaVuSans-6f" x="53.894531"/>
      <use xlink:href="#DejaVuSans-72" x="115.076172"/>
      <use xlink:href="#DejaVuSans-63" x="153.939453"/>
      <use xlink:href="#DejaVuSans-65" x="208.919922"/>
      <use xlink:href="#DejaVuSans-20" x="270.443359"/>
      <use xlink:href="#DejaVuSans-55" x="302.230469"/>
      <use xlink:href="#DejaVuSans-6e" x="375.423828"/>
      <use xlink:href="#DejaVuSans-63" x="438.802734"/>
      <use xlink:href="#DejaVuSans-65" x="493.783203"/>
      <use xlink:href="#DejaVuSans-72" x="555.306641"/>
      <use xlink:href="#DejaVuSans-74" x="596.419922"/>
      <use xlink:href="#DejaVuSans-61" x="635.628906"/>
      <use xlink:href="#DejaVuSans-69" x="696.908203"/>
      <use xlink:href="#DejaVuSans-6e" x="724.691406"/>
      <use xlink:href="#DejaVuSans-74" x="788.070312"/>
      <use xlink:href="#DejaVuSans-69" x="827.279297"/>
      <use xlink:href="#DejaVuSans-65" x="855.0625"/>
      <use xlink:href="#DejaVuSans-73" x="916.585938"/>
     </g>
    </g>
   </g>
   <g id="matplotlib.axis_2">
    <g id="ytick_1">
     <g id="line2d_7">
      <defs>
       <path id="mb318f22442" d="M 0 0 
L -3.5 0 
" style="stroke: #000000; stroke-width: 0.8"/>
      </defs>
      <g>
       <use xlink:href="#mb318f22442" x="83.72" y="438.103544" style="stroke: #000000; stroke-width: 0.8"/>
      </g>
     </g>
     <g id="text_8">
      <!-- 10 -->
      <g transform="translate(48.725 446.461826) scale(0.22 -0.22)">
       <use xlink:href="#DejaVuSans-31"/>
       <use xlink:href="#DejaVuSans-30" x="63.623047"/>
      </g>
     </g>
    </g>
    <g id="ytick_2">
     <g id="line2d_8">
      <g>
       <use xlink:href="#mb318f22442" x="83.72" y="367.805702" style="stroke: #000000; stroke-width: 0.8"/>
      </g>
     </g>
     <g id="text_9">
      <!-- 20 -->
      <g transform="translate(48.725 376.163983) scale(0.22 -0.22)">
       <use xlink:href="#DejaVuSans-32"/>
       <use xlink:href="#DejaVuSans-30" x="63.623047"/>
      </g>
     </g>
    </g>
    <g id="ytick_3">
     <g id="line2d_9">
      <g>
       <use xlink:href="#mb318f22442" x="83.72" y="297.50786" style="stroke: #000000; stroke-width: 0.8"/>
      </g>
     </g>
     <g id="text_10">
      <!-- 30 -->
      <g transform="translate(48.725 305.866141) scale(0.22 -0.22)">
       <use xlink:href="#DejaVuSans-33"/>
       <use xlink:href="#DejaVuSans-30" x="63.623047"/>
      </g>
     </g>
    </g>
    <g id="ytick_4">
     <g id="line2d_10">
      <g>
       <use xlink:href="#mb318f22442" x="83.72" y="227.210018" style="stroke: #000000; stroke-width: 0.8"/>
      </g>
     </g>
     <g id="text_11">
      <!-- 40 -->
      <g transform="translate(48.725 235.568299) scale(0.22 -0.22)">
       <use xlink:href="#DejaVuSans-34"/>
       <use xlink:href="#DejaVuSans-30" x="63.623047"/>
      </g>
     </g>
    </g>
    <g id="ytick_5">
     <g id="line2d_11">
      <g>
       <use xlink:href="#mb318f22442" x="83.72" y="156.912175" style="stroke: #000000; stroke-width: 0.8"/>
      </g>
     </g>
     <g id="text_12">
      <!-- 50 -->
      <g transform="translate(48.725 165.270457) scale(0.22 -0.22)">
       <use xlink:href="#DejaVuSans-35"/>
       <use xlink:href="#DejaVuSans-30" x="63.623047"/>
      </g>
     </g>
    </g>
    <g id="ytick_6">
     <g id="line2d_12">
      <g>
       <use xlink:href="#mb318f22442" x="83.72" y="86.614333" style="stroke: #000000; stroke-width: 0.8"/>
      </g>
     </g>
     <g id="text_13">
      <!-- 60 -->
      <g transform="translate(48.725 94.972614) scale(0.22 -0.22)">
       <use xlink:href="#DejaVuSans-36"/>
       <use xlink:href="#DejaVuSans-30" x="63.623047"/>
      </g>
     </g>
    </g>
    <g id="text_14">
     <!-- Force Errors [kJ/(mol*A)] -->
     <g transform="translate(40.149688 394.9125) rotate(-90) scale(0.22 -0.22)">
      <defs>
       <path id="DejaVuSans-45" d="M 628 4666 
L 3578 4666 
L 3578 4134 
L 1259 4134 
L 1259 2753 
L 3481 2753 
L 3481 2222 
L 1259 2222 
L 1259 531 
L 3634 531 
L 3634 0 
L 628 0 
L 628 4666 
z
" transform="scale(0.015625)"/>
       <path id="DejaVuSans-5b" d="M 550 4863 
L 1875 4863 
L 1875 4416 
L 1125 4416 
L 1125 -397 
L 1875 -397 
L 1875 -844 
L 550 -844 
L 550 4863 
z
" transform="scale(0.015625)"/>
       <path id="DejaVuSans-6b" d="M 581 4863 
L 1159 4863 
L 1159 1991 
L 2875 3500 
L 3609 3500 
L 1753 1863 
L 3688 0 
L 2938 0 
L 1159 1709 
L 1159 0 
L 581 0 
L 581 4863 
z
" transform="scale(0.015625)"/>
       <path id="DejaVuSans-4a" d="M 628 4666 
L 1259 4666 
L 1259 325 
Q 1259 -519 939 -900 
Q 619 -1281 -91 -1281 
L -331 -1281 
L -331 -750 
L -134 -750 
Q 284 -750 456 -515 
Q 628 -281 628 325 
L 628 4666 
z
" transform="scale(0.015625)"/>
       <path id="DejaVuSans-2f" d="M 1625 4666 
L 2156 4666 
L 531 -594 
L 0 -594 
L 1625 4666 
z
" transform="scale(0.015625)"/>
       <path id="DejaVuSans-28" d="M 1984 4856 
Q 1566 4138 1362 3434 
Q 1159 2731 1159 2009 
Q 1159 1288 1364 580 
Q 1569 -128 1984 -844 
L 1484 -844 
Q 1016 -109 783 600 
Q 550 1309 550 2009 
Q 550 2706 781 3412 
Q 1013 4119 1484 4856 
L 1984 4856 
z
" transform="scale(0.015625)"/>
       <path id="DejaVuSans-6d" d="M 3328 2828 
Q 3544 3216 3844 3400 
Q 4144 3584 4550 3584 
Q 5097 3584 5394 3201 
Q 5691 2819 5691 2113 
L 5691 0 
L 5113 0 
L 5113 2094 
Q 5113 2597 4934 2840 
Q 4756 3084 4391 3084 
Q 3944 3084 3684 2787 
Q 3425 2491 3425 1978 
L 3425 0 
L 2847 0 
L 2847 2094 
Q 2847 2600 2669 2842 
Q 2491 3084 2119 3084 
Q 1678 3084 1418 2786 
Q 1159 2488 1159 1978 
L 1159 0 
L 581 0 
L 581 3500 
L 1159 3500 
L 1159 2956 
Q 1356 3278 1631 3431 
Q 1906 3584 2284 3584 
Q 2666 3584 2933 3390 
Q 3200 3197 3328 2828 
z
" transform="scale(0.015625)"/>
       <path id="DejaVuSans-6c" d="M 603 4863 
L 1178 4863 
L 1178 0 
L 603 0 
L 603 4863 
z
" transform="scale(0.015625)"/>
       <path id="DejaVuSans-2a" d="M 3009 3897 
L 1888 3291 
L 3009 2681 
L 2828 2375 
L 1778 3009 
L 1778 1831 
L 1422 1831 
L 1422 3009 
L 372 2375 
L 191 2681 
L 1313 3291 
L 191 3897 
L 372 4206 
L 1422 3572 
L 1422 4750 
L 1778 4750 
L 1778 3572 
L 2828 4206 
L 3009 3897 
z
" transform="scale(0.015625)"/>
       <path id="DejaVuSans-41" d="M 2188 4044 
L 1331 1722 
L 3047 1722 
L 2188 4044 
z
M 1831 4666 
L 2547 4666 
L 4325 0 
L 3669 0 
L 3244 1197 
L 1141 1197 
L 716 0 
L 50 0 
L 1831 4666 
z
" transform="scale(0.015625)"/>
       <path id="DejaVuSans-29" d="M 513 4856 
L 1013 4856 
Q 1481 4119 1714 3412 
Q 1947 2706 1947 2009 
Q 1947 1309 1714 600 
Q 1481 -109 1013 -844 
L 513 -844 
Q 928 -128 1133 580 
Q 1338 1288 1338 2009 
Q 1338 2731 1133 3434 
Q 928 4138 513 4856 
z
" transform="scale(0.015625)"/>
       <path id="DejaVuSans-5d" d="M 1947 4863 
L 1947 -844 
L 622 -844 
L 622 -397 
L 1369 -397 
L 1369 4416 
L 622 4416 
L 622 4863 
L 1947 4863 
z
" transform="scale(0.015625)"/>
      </defs>
      <use xlink:href="#DejaVuSans-46"/>
      <use xlink:href="#DejaVuSans-6f" x="53.894531"/>
      <use xlink:href="#DejaVuSans-72" x="115.076172"/>
      <use xlink:href="#DejaVuSans-63" x="153.939453"/>
      <use xlink:href="#DejaVuSans-65" x="208.919922"/>
      <use xlink:href="#DejaVuSans-20" x="270.443359"/>
      <use xlink:href="#DejaVuSans-45" x="302.230469"/>
      <use xlink:href="#DejaVuSans-72" x="365.414062"/>
      <use xlink:href="#DejaVuSans-72" x="404.777344"/>
      <use xlink:href="#DejaVuSans-6f" x="443.640625"/>
      <use xlink:href="#DejaVuSans-72" x="504.822266"/>
      <use xlink:href="#DejaVuSans-73" x="545.935547"/>
      <use xlink:href="#DejaVuSans-20" x="598.035156"/>
      <use xlink:href="#DejaVuSans-5b" x="629.822266"/>
      <use xlink:href="#DejaVuSans-6b" x="668.835938"/>
      <use xlink:href="#DejaVuSans-4a" x="726.746094"/>
      <use xlink:href="#DejaVuSans-2f" x="756.238281"/>
      <use xlink:href="#DejaVuSans-28" x="789.929688"/>
      <use xlink:href="#DejaVuSans-6d" x="828.943359"/>
      <use xlink:href="#DejaVuSans-6f" x="926.355469"/>
      <use xlink:href="#DejaVuSans-6c" x="987.537109"/>
      <use xlink:href="#DejaVuSans-2a" x="1015.320312"/>
      <use xlink:href="#DejaVuSans-41" x="1065.320312"/>
      <use xlink:href="#DejaVuSans-29" x="1133.728516"/>
      <use xlink:href="#DejaVuSans-5d" x="1172.742188"/>
     </g>
    </g>
   </g>
   <g id="line2d_13">
    <path d="M 83.72 499.48 
L 696.24 23.76 
" clip-path="url(#p3e29c08714)" style="fill: none; stroke-dasharray: 5.55,2.4; stroke-dashoffset: 0; stroke: #ff0000; stroke-width: 1.5"/>
   </g>
   <g id="patch_3">
    <path d="M 83.72 499.48 
L 83.72 23.76 
" style="fill: none; stroke: #000000; stroke-width: 0.8; stroke-linejoin: miter; stroke-linecap: square"/>
   </g>
   <g id="patch_4">
    <path d="M 696.24 499.48 
L 696.24 23.76 
" style="fill: none; stroke: #000000; stroke-width: 0.8; stroke-linejoin: miter; stroke-linecap: square"/>
   </g>
   <g id="patch_5">
    <path d="M 83.72 499.48 
L 696.24 499.48 
" style="fill: none; stroke: #000000; stroke-width: 0.8; stroke-linejoin: miter; stroke-linecap: square"/>
   </g>
   <g id="patch_6">
    <path d="M 83.72 23.76 
L 696.24 23.76 
" style="fill: none; stroke: #000000; stroke-width: 0.8; stroke-linejoin: miter; stroke-linecap: square"/>
   </g>
   <g id="text_15">
    <!-- Correlation in: 0.907 -->
    <g transform="translate(144.972 71.332) scale(0.22 -0.22)">
     <defs>
      <path id="DejaVuSans-43" d="M 4122 4306 
L 4122 3641 
Q 3803 3938 3442 4084 
Q 3081 4231 2675 4231 
Q 1875 4231 1450 3742 
Q 1025 3253 1025 2328 
Q 1025 1406 1450 917 
Q 1875 428 2675 428 
Q 3081 428 3442 575 
Q 3803 722 4122 1019 
L 4122 359 
Q 3791 134 3420 21 
Q 3050 -91 2638 -91 
Q 1578 -91 968 557 
Q 359 1206 359 2328 
Q 359 3453 968 4101 
Q 1578 4750 2638 4750 
Q 3056 4750 3426 4639 
Q 3797 4528 4122 4306 
z
" transform="scale(0.015625)"/>
      <path id="DejaVuSans-3a" d="M 750 794 
L 1409 794 
L 1409 0 
L 750 0 
L 750 794 
z
M 750 3309 
L 1409 3309 
L 1409 2516 
L 750 2516 
L 750 3309 
z
" transform="scale(0.015625)"/>
      <path id="DejaVuSans-2e" d="M 684 794 
L 1344 794 
L 1344 0 
L 684 0 
L 684 794 
z
" transform="scale(0.015625)"/>
      <path id="DejaVuSans-39" d="M 703 97 
L 703 672 
Q 941 559 1184 500 
Q 1428 441 1663 441 
Q 2288 441 2617 861 
Q 2947 1281 2994 2138 
Q 2813 1869 2534 1725 
Q 2256 1581 1919 1581 
Q 1219 1581 811 2004 
Q 403 2428 403 3163 
Q 403 3881 828 4315 
Q 1253 4750 1959 4750 
Q 2769 4750 3195 4129 
Q 3622 3509 3622 2328 
Q 3622 1225 3098 567 
Q 2575 -91 1691 -91 
Q 1453 -91 1209 -44 
Q 966 3 703 97 
z
M 1959 2075 
Q 2384 2075 2632 2365 
Q 2881 2656 2881 3163 
Q 2881 3666 2632 3958 
Q 2384 4250 1959 4250 
Q 1534 4250 1286 3958 
Q 1038 3666 1038 3163 
Q 1038 2656 1286 2365 
Q 1534 2075 1959 2075 
z
" transform="scale(0.015625)"/>
      <path id="DejaVuSans-37" d="M 525 4666 
L 3525 4666 
L 3525 4397 
L 1831 0 
L 1172 0 
L 2766 4134 
L 525 4134 
L 525 4666 
z
" transform="scale(0.015625)"/>
     </defs>
     <use xlink:href="#DejaVuSans-43"/>
     <use xlink:href="#DejaVuSans-6f" x="69.824219"/>
     <use xlink:href="#DejaVuSans-72" x="131.005859"/>
     <use xlink:href="#DejaVuSans-72" x="170.369141"/>
     <use xlink:href="#DejaVuSans-65" x="209.232422"/>
     <use xlink:href="#DejaVuSans-6c" x="270.755859"/>
     <use xlink:href="#DejaVuSans-61" x="298.539062"/>
     <use xlink:href="#DejaVuSans-74" x="359.818359"/>
     <use xlink:href="#DejaVuSans-69" x="399.027344"/>
     <use xlink:href="#DejaVuSans-6f" x="426.810547"/>
     <use xlink:href="#DejaVuSans-6e" x="487.992188"/>
     <use xlink:href="#DejaVuSans-20" x="551.371094"/>
     <use xlink:href="#DejaVuSans-69" x="583.158203"/>
     <use xlink:href="#DejaVuSans-6e" x="610.941406"/>
     <use xlink:href="#DejaVuSans-3a" x="674.320312"/>
     <use xlink:href="#DejaVuSans-20" x="708.011719"/>
     <use xlink:href="#DejaVuSans-30" x="739.798828"/>
     <use xlink:href="#DejaVuSans-2e" x="803.421875"/>
     <use xlink:href="#DejaVuSans-39" x="835.208984"/>
     <use xlink:href="#DejaVuSans-30" x="898.832031"/>
     <use xlink:href="#DejaVuSans-37" x="962.455078"/>
    </g>
   </g>
  </g>
 </g>
 <defs>
  <clipPath id="p3e29c08714">
   <rect x="83.72" y="23.76" width="612.52" height="475.72"/>
  </clipPath>
 </defs>
</svg>
