<?xml version="1.0" encoding="utf-8" standalone="no"?>
<!DOCTYPE svg PUBLIC "-//W3C//DTD SVG 1.1//EN"
  "http://www.w3.org/Graphics/SVG/1.1/DTD/svg11.dtd">
<svg xmlns:xlink="http://www.w3.org/1999/xlink" width="720pt" height="576pt" viewBox="0 0 720 576" xmlns="http://www.w3.org/2000/svg" version="1.1">
 <metadata>
  <rdf:RDF xmlns:dc="http://purl.org/dc/elements/1.1/" xmlns:cc="http://creativecommons.org/ns#" xmlns:rdf="http://www.w3.org/1999/02/22-rdf-syntax-ns#">
   <cc:Work>
    <dc:type rdf:resource="http://purl.org/dc/dcmitype/StillImage"/>
    <dc:date>2024-12-08T04:08:21.458471</dc:date>
    <dc:format>image/svg+xml</dc:format>
    <dc:creator>
     <cc:Agent>
      <dc:title>Matplotlib v3.8.4, https://matplotlib.org/</dc:title>
     </cc:Agent>
    </dc:creator>
   </cc:Work>
  </rdf:RDF>
 </metadata>
 <defs>
  <style type="text/css">*{stroke-linejoin: round; stroke-linecap: butt}</style>
 </defs>
 <g id="figure_1">
  <g id="patch_1">
   <path d="M 0 576 
L 720 576 
L 720 0 
L 0 0 
z
" style="fill: #ffffff"/>
  </g>
  <g id="axes_1">
   <g id="patch_2">
    <path d="M 83.72 499.48 
L 696.24 499.48 
L 696.24 23.76 
L 83.72 23.76 
z
" style="fill: #ffffff"/>
   </g>
   <g id="QuadContourSet_1">
    <path d="M 81.1709 500.614407 
L 83.674058 501.158387 
L 86.177216 501.291664 
L 88.680373 501.183465 
L 91.183531 500.872263 
L 93.686689 500.32325 
L 96.189847 499.466817 
L 96.189847 499.466817 
L 98.693004 499.094871 
L 101.196162 498.623913 
L 103.69932 498.088769 
L 106.202478 497.565992 
L 108.705635 497.126966 
L 110.027425 496.960891 
L 111.208793 496.8881 
L 113.711951 496.773664 
L 116.215109 496.673071 
L 118.718266 496.582511 
L 121.221424 496.506412 
L 123.724582 496.422135 
L 126.22774 496.261663 
L 128.730897 495.951199 
L 131.234055 495.431994 
L 133.737213 494.627905 
L 134.186287 494.454965 
L 136.240371 493.929232 
L 138.743528 493.133467 
L 141.246686 492.090083 
L 141.585622 491.949039 
L 143.749844 491.216072 
L 146.253002 490.207214 
L 147.928663 489.443113 
L 148.756159 489.041766 
L 151.259317 487.743758 
L 152.630515 486.937187 
L 153.762475 485.913129 
L 155.374091 484.431261 
L 156.106586 481.925335 
L 154.853684 479.419409 
L 153.762475 478.652743 
L 151.259317 477.224725 
L 150.655641 476.913483 
L 148.756159 476.00757 
L 146.253002 474.903862 
L 145.134299 474.407557 
L 143.749844 473.723776 
L 141.246686 472.675408 
L 138.743528 472.097797 
L 136.336455 471.901631 
L 136.240371 471.891308 
L 133.737213 471.863047 
L 132.4952 471.901631 
L 131.234055 471.921985 
L 128.730897 471.942342 
L 127.083854 471.901631 
L 126.22774 471.857626 
L 123.724582 471.468257 
L 121.221424 470.839724 
L 118.718266 470.109577 
L 116.215109 469.446977 
L 116.006178 469.395706 
L 113.711951 468.547662 
L 111.208793 467.900519 
L 108.705635 467.531616 
L 106.202478 467.432703 
L 103.69932 467.633179 
L 101.196162 468.233752 
L 98.82701 469.395706 
L 98.693004 469.430598 
L 96.189847 470.381727 
L 94.003767 471.901631 
L 93.686689 472.036417 
L 91.183531 473.433484 
L 89.979537 474.407557 
L 88.680373 475.161011 
L 86.584866 476.913483 
L 86.177216 477.199401 
L 83.689181 479.419409 
L 83.674058 479.433055 
L 81.1709 481.853081 
L 81.098937 481.925335 
L 78.895756 484.431261 
L 78.667742 484.828816 
L 77.080512 486.937187 
L 76.164585 489.381439 
L 76.127866 489.443113 
L 75.315005 491.949039 
L 75.365579 494.454965 
L 76.164585 496.338606 
L 76.389192 496.960891 
L 78.667742 499.280892 
L 78.983896 499.466817 
z
M 83.020307 496.960891 
L 81.1709 495.481711 
L 80.350106 494.454965 
L 79.679446 491.949039 
L 79.982213 489.443113 
L 81.1709 486.954146 
L 81.176515 486.937187 
L 82.632861 484.431261 
L 83.674058 483.272071 
L 84.835318 481.925335 
L 86.177216 480.650584 
L 87.657864 479.419409 
L 88.680373 478.558258 
L 91.183531 476.956189 
L 91.262173 476.913483 
L 93.686689 475.245427 
L 95.704124 474.407557 
L 96.189847 474.104072 
L 98.693004 472.931015 
L 101.196162 472.2851 
L 103.69932 471.955735 
L 105.32901 471.901631 
L 106.202478 471.843974 
L 106.722345 471.901631 
L 108.705635 472.037112 
L 111.208793 472.514732 
L 113.711951 473.381705 
L 115.846461 474.407557 
L 116.215109 474.579547 
L 118.718266 475.550246 
L 121.221424 476.185789 
L 123.724582 476.454268 
L 126.22774 476.530533 
L 128.730897 476.591025 
L 131.234055 476.774838 
L 132.052002 476.913483 
L 133.737213 477.261007 
L 136.240371 478.344203 
L 137.906005 479.419409 
L 138.743528 480.301141 
L 140.366354 481.925335 
L 140.792721 484.431261 
L 138.743528 486.937187 
L 138.743528 486.937187 
L 136.240371 488.395976 
L 134.105662 489.443113 
L 133.737213 489.589193 
L 131.234055 490.373668 
L 128.730897 490.933901 
L 126.22774 491.334727 
L 123.724582 491.652466 
L 121.221424 491.935641 
L 121.098891 491.949039 
L 118.718266 492.27098 
L 116.215109 492.561951 
L 113.711951 492.840531 
L 111.208793 493.168515 
L 108.705635 493.589905 
L 106.202478 494.086173 
L 104.497356 494.454965 
L 103.69932 494.711874 
L 101.196162 495.602462 
L 98.693004 496.312972 
L 96.189847 496.838195 
L 95.474763 496.960891 
L 93.686689 497.540845 
L 91.183531 498.040462 
L 88.680373 498.227948 
L 86.177216 498.062773 
L 83.674058 497.319365 
z
" clip-path="url(#paae021957f)" style="fill: #f0f6fd"/>
    <path d="M 83.674058 497.319365 
L 86.177216 498.062773 
L 88.680373 498.227948 
L 91.183531 498.040462 
L 93.686689 497.540845 
L 95.474763 496.960891 
L 96.189847 496.838195 
L 98.693004 496.312972 
L 101.196162 495.602462 
L 103.69932 494.711874 
L 104.497356 494.454965 
L 106.202478 494.086173 
L 108.705635 493.589905 
L 111.208793 493.168515 
L 113.711951 492.840531 
L 116.215109 492.561951 
L 118.718266 492.27098 
L 121.098891 491.949039 
L 121.221424 491.935641 
L 123.724582 491.652466 
L 126.22774 491.334727 
L 128.730897 490.933901 
L 131.234055 490.373668 
L 133.737213 489.589193 
L 134.105662 489.443113 
L 136.240371 488.395976 
L 138.743528 486.937187 
L 138.743528 486.937187 
L 140.792721 484.431261 
L 140.366354 481.925335 
L 138.743528 480.301141 
L 137.906005 479.419409 
L 136.240371 478.344203 
L 133.737213 477.261007 
L 132.052002 476.913483 
L 131.234055 476.774838 
L 128.730897 476.591025 
L 126.22774 476.530533 
L 123.724582 476.454268 
L 121.221424 476.185789 
L 118.718266 475.550246 
L 116.215109 474.579547 
L 115.846461 474.407557 
L 113.711951 473.381705 
L 111.208793 472.514732 
L 108.705635 472.037112 
L 106.722345 471.901631 
L 106.202478 471.843974 
L 105.32901 471.901631 
L 103.69932 471.955735 
L 101.196162 472.2851 
L 98.693004 472.931015 
L 96.189847 474.104072 
L 95.704124 474.407557 
L 93.686689 475.245427 
L 91.262173 476.913483 
L 91.183531 476.956189 
L 88.680373 478.558258 
L 87.657864 479.419409 
L 86.177216 480.650584 
L 84.835318 481.925335 
L 83.674058 483.272071 
L 82.632861 484.431261 
L 81.176515 486.937187 
L 81.1709 486.954146 
L 79.982213 489.443113 
L 79.679446 491.949039 
L 80.350106 494.454965 
L 81.1709 495.481711 
L 83.020307 496.960891 
z
M 83.267488 494.454965 
L 81.994625 491.949039 
L 82.067668 489.443113 
L 83.017891 486.937187 
L 83.674058 486.006365 
L 84.608156 484.431261 
L 86.177216 482.716138 
L 86.910727 481.925335 
L 88.680373 480.331265 
L 89.905685 479.419409 
L 91.183531 478.429275 
L 93.686689 477.021626 
L 93.930871 476.913483 
L 96.189847 475.599856 
L 98.693004 474.728279 
L 100.193122 474.407557 
L 101.196162 474.057229 
L 103.69932 473.637778 
L 106.202478 473.647456 
L 108.705635 474.097049 
L 109.61869 474.407557 
L 111.208793 474.920039 
L 113.711951 476.196742 
L 114.9636 476.913483 
L 116.215109 477.725063 
L 118.718266 478.765181 
L 121.221424 479.23348 
L 123.724582 479.419409 
L 123.724582 479.419409 
L 126.22774 479.645276 
L 128.730897 480.193751 
L 131.234055 481.497458 
L 131.762419 481.925335 
L 131.919655 484.431261 
L 131.234055 485.091876 
L 128.873331 486.937187 
L 128.730897 486.994646 
L 126.22774 487.902625 
L 123.724582 488.603416 
L 121.221424 489.169776 
L 119.790472 489.443113 
L 118.718266 489.623515 
L 116.215109 489.989992 
L 113.711951 490.378492 
L 111.208793 490.878834 
L 108.705635 491.502275 
L 107.170992 491.949039 
L 106.202478 492.270249 
L 103.69932 493.22175 
L 101.196162 494.021161 
L 99.603347 494.454965 
L 98.693004 494.821012 
L 96.189847 495.66841 
L 93.686689 496.211771 
L 91.183531 496.514257 
L 88.680373 496.557437 
L 86.177216 496.167757 
L 83.674058 494.817415 
z
" clip-path="url(#paae021957f)" style="fill: #e2edf8"/>
    <path d="M 83.674058 494.817415 
L 86.177216 496.167757 
L 88.680373 496.557437 
L 91.183531 496.514257 
L 93.686689 496.211771 
L 96.189847 495.66841 
L 98.693004 494.821012 
L 99.603347 494.454965 
L 101.196162 494.021161 
L 103.69932 493.22175 
L 106.202478 492.270249 
L 107.170992 491.949039 
L 108.705635 491.502275 
L 111.208793 490.878834 
L 113.711951 490.378492 
L 116.215109 489.989992 
L 118.718266 489.623515 
L 119.790472 489.443113 
L 121.221424 489.169776 
L 123.724582 488.603416 
L 126.22774 487.902625 
L 128.730897 486.994646 
L 128.873331 486.937187 
L 131.234055 485.091876 
L 131.919655 484.431261 
L 131.762419 481.925335 
L 131.234055 481.497458 
L 128.730897 480.193751 
L 126.22774 479.645276 
L 123.724582 479.419409 
L 123.724582 479.419409 
L 121.221424 479.23348 
L 118.718266 478.765181 
L 116.215109 477.725063 
L 114.9636 476.913483 
L 113.711951 476.196742 
L 111.208793 474.920039 
L 109.61869 474.407557 
L 108.705635 474.097049 
L 106.202478 473.647456 
L 103.69932 473.637778 
L 101.196162 474.057229 
L 100.193122 474.407557 
L 98.693004 474.728279 
L 96.189847 475.599856 
L 93.930871 476.913483 
L 93.686689 477.021626 
L 91.183531 478.429275 
L 89.905685 479.419409 
L 88.680373 480.331265 
L 86.910727 481.925335 
L 86.177216 482.716138 
L 84.608156 484.431261 
L 83.674058 486.006365 
L 83.017891 486.937187 
L 82.067668 489.443113 
L 81.994625 491.949039 
L 83.267488 494.454965 
z
M 85.804865 494.454965 
L 83.744083 491.949039 
L 83.674058 490.298623 
L 83.63431 489.443113 
L 83.674058 489.346222 
L 84.397692 486.937187 
L 86.103395 484.431261 
L 86.177216 484.350568 
L 88.426747 481.925335 
L 88.680373 481.696872 
L 91.183531 479.697644 
L 91.619438 479.419409 
L 93.686689 478.004325 
L 96.149765 476.913483 
L 96.189847 476.890175 
L 98.693004 475.775346 
L 101.196162 475.170284 
L 103.69932 474.927149 
L 106.202478 475.039025 
L 108.705635 475.608449 
L 111.208793 476.804396 
L 111.396769 476.913483 
L 113.711951 478.704943 
L 114.750663 479.419409 
L 116.215109 480.787106 
L 118.718266 481.833065 
L 119.230597 481.925335 
L 121.221424 482.853308 
L 123.724582 484.431261 
L 121.221424 485.646517 
L 118.718266 486.845641 
L 118.54597 486.937187 
L 116.215109 487.425893 
L 113.711951 488.102044 
L 111.208793 488.976425 
L 110.154099 489.443113 
L 108.705635 489.963698 
L 106.202478 491.003784 
L 103.69932 491.921326 
L 103.629145 491.949039 
L 101.196162 493.045754 
L 98.693004 493.888131 
L 96.417689 494.454965 
L 96.189847 494.539292 
L 93.686689 495.231629 
L 91.183531 495.544038 
L 88.680373 495.444271 
L 86.177216 494.675419 
z
" clip-path="url(#paae021957f)" style="fill: #d4e4f4"/>
    <path d="M 86.177216 494.675419 
L 88.680373 495.444271 
L 91.183531 495.544038 
L 93.686689 495.231629 
L 96.189847 494.539292 
L 96.417689 494.454965 
L 98.693004 493.888131 
L 101.196162 493.045754 
L 103.629145 491.949039 
L 103.69932 491.921326 
L 106.202478 491.003784 
L 108.705635 489.963698 
L 110.154099 489.443113 
L 111.208793 488.976425 
L 113.711951 488.102044 
L 116.215109 487.425893 
L 118.54597 486.937187 
L 118.718266 486.845641 
L 121.221424 485.646517 
L 123.724582 484.431261 
L 121.221424 482.853308 
L 119.230597 481.925335 
L 118.718266 481.833065 
L 116.215109 480.787106 
L 114.750663 479.419409 
L 113.711951 478.704943 
L 111.396769 476.913483 
L 111.208793 476.804396 
L 108.705635 475.608449 
L 106.202478 475.039025 
L 103.69932 474.927149 
L 101.196162 475.170284 
L 98.693004 475.775346 
L 96.189847 476.890175 
L 96.149765 476.913483 
L 93.686689 478.004325 
L 91.619438 479.419409 
L 91.183531 479.697644 
L 88.680373 481.696872 
L 88.426747 481.925335 
L 86.177216 484.350568 
L 86.103395 484.431261 
L 84.397692 486.937187 
L 83.674058 489.346222 
L 83.63431 489.443113 
L 83.674058 490.298623 
L 83.744083 491.949039 
L 85.804865 494.454965 
z
M 85.352664 491.949039 
L 84.901873 489.443113 
L 85.687488 486.937187 
L 86.177216 486.224884 
L 87.277349 484.431261 
L 88.680373 482.955537 
L 89.738627 481.925335 
L 91.183531 480.727928 
L 93.23357 479.419409 
L 93.686689 479.109238 
L 96.189847 477.765235 
L 98.693004 476.939099 
L 98.821137 476.913483 
L 101.196162 476.248744 
L 103.69932 476.038087 
L 106.202478 476.314368 
L 107.999983 476.913483 
L 108.705635 477.205099 
L 111.208793 478.998041 
L 111.719999 479.419409 
L 113.352438 481.925335 
L 113.5497 484.431261 
L 111.208793 486.802443 
L 111.095413 486.937187 
L 108.705635 488.345188 
L 106.75787 489.443113 
L 106.202478 489.702504 
L 103.69932 490.960501 
L 101.196162 491.949039 
L 101.196162 491.949039 
L 98.693004 493.033595 
L 96.189847 493.76799 
L 93.686689 494.241283 
L 91.183531 494.453591 
L 88.680373 494.219627 
L 86.177216 492.879039 
z
" clip-path="url(#paae021957f)" style="fill: #c6dbef"/>
    <path d="M 86.177216 492.879039 
L 88.680373 494.219627 
L 91.183531 494.453591 
L 93.686689 494.241283 
L 96.189847 493.76799 
L 98.693004 493.033595 
L 101.196162 491.949039 
L 101.196162 491.949039 
L 103.69932 490.960501 
L 106.202478 489.702504 
L 106.75787 489.443113 
L 108.705635 488.345188 
L 111.095413 486.937187 
L 111.208793 486.802443 
L 113.5497 484.431261 
L 113.352438 481.925335 
L 111.719999 479.419409 
L 111.208793 478.998041 
L 108.705635 477.205099 
L 107.999983 476.913483 
L 106.202478 476.314368 
L 103.69932 476.038087 
L 101.196162 476.248744 
L 98.821137 476.913483 
L 98.693004 476.939099 
L 96.189847 477.765235 
L 93.686689 479.109238 
L 93.23357 479.419409 
L 91.183531 480.727928 
L 89.738627 481.925335 
L 88.680373 482.955537 
L 87.277349 484.431261 
L 86.177216 486.224884 
L 85.687488 486.937187 
L 84.901873 489.443113 
L 85.352664 491.949039 
z
M 87.946169 491.949039 
L 86.788917 489.443113 
L 87.349433 486.937187 
L 88.680373 484.955075 
L 89.015777 484.431261 
L 91.183531 482.306289 
L 91.636023 481.925335 
L 93.686689 480.439943 
L 95.680621 479.419409 
L 96.189847 479.132331 
L 98.693004 478.15563 
L 101.196162 477.664572 
L 103.69932 477.622024 
L 106.202478 478.186049 
L 108.348551 479.419409 
L 108.705635 479.911542 
L 109.956951 481.925335 
L 109.660474 484.431261 
L 108.705635 485.505547 
L 107.570334 486.937187 
L 106.202478 487.87311 
L 103.69932 489.443113 
L 103.69932 489.443113 
L 101.196162 490.772932 
L 98.693004 491.750548 
L 98.047648 491.949039 
L 96.189847 492.60589 
L 93.686689 493.098319 
L 91.183531 493.143517 
L 88.680373 492.446191 
z
" clip-path="url(#paae021957f)" style="fill: #a5cde3"/>
    <path d="M 88.680373 492.446191 
L 91.183531 493.143517 
L 93.686689 493.098319 
L 96.189847 492.60589 
L 98.047648 491.949039 
L 98.693004 491.750548 
L 101.196162 490.772932 
L 103.69932 489.443113 
L 103.69932 489.443113 
L 106.202478 487.87311 
L 107.570334 486.937187 
L 108.705635 485.505547 
L 109.660474 484.431261 
L 109.956951 481.925335 
L 108.705635 479.911542 
L 108.348551 479.419409 
L 106.202478 478.186049 
L 103.69932 477.622024 
L 101.196162 477.664572 
L 98.693004 478.15563 
L 96.189847 479.132331 
L 95.680621 479.419409 
L 93.686689 480.439943 
L 91.636023 481.925335 
L 91.183531 482.306289 
L 89.015777 484.431261 
L 88.680373 484.955075 
L 87.349433 486.937187 
L 86.788917 489.443113 
L 87.946169 491.949039 
z
M 88.731098 489.443113 
L 89.064076 486.937187 
L 90.679742 484.431261 
L 91.183531 483.937414 
L 93.57345 481.925335 
L 93.686689 481.843311 
L 96.189847 480.419055 
L 98.693004 479.520439 
L 99.289193 479.419409 
L 101.196162 479.057467 
L 103.69932 479.220975 
L 104.294533 479.419409 
L 106.202478 480.647336 
L 107.23471 481.925335 
L 107.032464 484.431261 
L 106.202478 485.423834 
L 105.021175 486.937187 
L 103.69932 487.880322 
L 101.196162 489.443113 
L 101.196162 489.443113 
L 98.693004 490.607508 
L 96.189847 491.383219 
L 93.686689 491.802249 
L 91.183531 491.582559 
z
" clip-path="url(#paae021957f)" style="fill: #71b1d7"/>
    <path d="M 91.183531 491.582559 
L 93.686689 491.802249 
L 96.189847 491.383219 
L 98.693004 490.607508 
L 101.196162 489.443113 
L 101.196162 489.443113 
L 103.69932 487.880322 
L 105.021175 486.937187 
L 106.202478 485.423834 
L 107.032464 484.431261 
L 107.23471 481.925335 
L 106.202478 480.647336 
L 104.294533 479.419409 
L 103.69932 479.220975 
L 101.196162 479.057467 
L 99.289193 479.419409 
L 98.693004 479.520439 
L 96.189847 480.419055 
L 93.686689 481.843311 
L 93.57345 481.925335 
L 91.183531 483.937414 
L 90.679742 484.431261 
L 89.064076 486.937187 
L 88.731098 489.443113 
z
M 91.556316 489.443113 
L 91.183531 488.099576 
L 91.048343 486.937187 
L 91.183531 486.729329 
L 92.728833 484.431261 
L 93.686689 483.606881 
L 96.189847 481.925335 
L 96.189847 481.925335 
L 98.693004 481.046317 
L 101.196162 480.838027 
L 103.69932 481.63066 
L 104.082574 481.925335 
L 104.43178 484.431261 
L 103.69932 485.350522 
L 102.444675 486.937187 
L 101.196162 487.778776 
L 98.693004 489.152924 
L 97.944003 489.443113 
L 96.189847 489.995022 
L 93.686689 490.175284 
z
" clip-path="url(#paae021957f)" style="fill: #3d8dc4"/>
    <path d="M 93.686689 490.175284 
L 96.189847 489.995022 
L 97.944003 489.443113 
L 98.693004 489.152924 
L 101.196162 487.778776 
L 102.444675 486.937187 
L 103.69932 485.350522 
L 104.43178 484.431261 
L 104.082574 481.925335 
L 103.69932 481.63066 
L 101.196162 480.838027 
L 98.693004 481.046317 
L 96.189847 481.925335 
L 96.189847 481.925335 
L 93.686689 483.606881 
L 92.728833 484.431261 
L 91.183531 486.729329 
L 91.048343 486.937187 
L 91.183531 488.099576 
L 91.556316 489.443113 
z
M 92.49834 486.937187 
L 93.686689 484.984444 
L 94.080393 484.431261 
L 96.189847 483.055588 
L 98.693004 481.994803 
L 101.196162 481.925335 
L 102.813737 484.431261 
L 101.196162 486.565668 
L 100.884345 486.937187 
L 98.693004 488.120199 
L 96.189847 488.990217 
L 93.686689 488.838327 
z
" clip-path="url(#paae021957f)" style="fill: #1b69af"/>
    <path d="M 93.686689 488.838327 
L 96.189847 488.990217 
L 98.693004 488.120199 
L 100.884345 486.937187 
L 101.196162 486.565668 
L 102.813737 484.431261 
L 101.196162 481.925335 
L 98.693004 481.994803 
L 96.189847 483.055588 
L 94.080393 484.431261 
L 93.686689 484.984444 
L 92.49834 486.937187 
z
" clip-path="url(#paae021957f)" style="fill: #08468b"/>
   </g>
   <g id="matplotlib.axis_1">
    <g id="xtick_1">
     <g id="line2d_1">
      <defs>
       <path id="m2c71734637" d="M 0 0 
L 0 3.5 
" style="stroke: #000000; stroke-width: 0.8"/>
      </defs>
      <g>
       <use xlink:href="#m2c71734637" x="83.95354" y="499.48" style="stroke: #000000; stroke-width: 0.8"/>
      </g>
     </g>
     <g id="text_1">
      <!-- 0 -->
      <g transform="translate(76.95479 523.196563) scale(0.22 -0.22)">
       <defs>
        <path id="DejaVuSans-30" d="M 2034 4250 
Q 1547 4250 1301 3770 
Q 1056 3291 1056 2328 
Q 1056 1369 1301 889 
Q 1547 409 2034 409 
Q 2525 409 2770 889 
Q 3016 1369 3016 2328 
Q 3016 3291 2770 3770 
Q 2525 4250 2034 4250 
z
M 2034 4750 
Q 2819 4750 3233 4129 
Q 3647 3509 3647 2328 
Q 3647 1150 3233 529 
Q 2819 -91 2034 -91 
Q 1250 -91 836 529 
Q 422 1150 422 2328 
Q 422 3509 836 4129 
Q 1250 4750 2034 4750 
z
" transform="scale(0.015625)"/>
       </defs>
       <use xlink:href="#DejaVuSans-30"/>
      </g>
     </g>
    </g>
    <g id="xtick_2">
     <g id="line2d_2">
      <g>
       <use xlink:href="#m2c71734637" x="177.559793" y="499.48" style="stroke: #000000; stroke-width: 0.8"/>
      </g>
     </g>
     <g id="text_2">
      <!-- 10 -->
      <g transform="translate(163.562293 523.196563) scale(0.22 -0.22)">
       <defs>
        <path id="DejaVuSans-31" d="M 794 531 
L 1825 531 
L 1825 4091 
L 703 3866 
L 703 4441 
L 1819 4666 
L 2450 4666 
L 2450 531 
L 3481 531 
L 3481 0 
L 794 0 
L 794 531 
z
" transform="scale(0.015625)"/>
       </defs>
       <use xlink:href="#DejaVuSans-31"/>
       <use xlink:href="#DejaVuSans-30" x="63.623047"/>
      </g>
     </g>
    </g>
    <g id="xtick_3">
     <g id="line2d_3">
      <g>
       <use xlink:href="#m2c71734637" x="271.166045" y="499.48" style="stroke: #000000; stroke-width: 0.8"/>
      </g>
     </g>
     <g id="text_3">
      <!-- 20 -->
      <g transform="translate(257.168545 523.196563) scale(0.22 -0.22)">
       <defs>
        <path id="DejaVuSans-32" d="M 1228 531 
L 3431 531 
L 3431 0 
L 469 0 
L 469 531 
Q 828 903 1448 1529 
Q 2069 2156 2228 2338 
Q 2531 2678 2651 2914 
Q 2772 3150 2772 3378 
Q 2772 3750 2511 3984 
Q 2250 4219 1831 4219 
Q 1534 4219 1204 4116 
Q 875 4013 500 3803 
L 500 4441 
Q 881 4594 1212 4672 
Q 1544 4750 1819 4750 
Q 2544 4750 2975 4387 
Q 3406 4025 3406 3419 
Q 3406 3131 3298 2873 
Q 3191 2616 2906 2266 
Q 2828 2175 2409 1742 
Q 1991 1309 1228 531 
z
" transform="scale(0.015625)"/>
       </defs>
       <use xlink:href="#DejaVuSans-32"/>
       <use xlink:href="#DejaVuSans-30" x="63.623047"/>
      </g>
     </g>
    </g>
    <g id="xtick_4">
     <g id="line2d_4">
      <g>
       <use xlink:href="#m2c71734637" x="364.772298" y="499.48" style="stroke: #000000; stroke-width: 0.8"/>
      </g>
     </g>
     <g id="text_4">
      <!-- 30 -->
      <g transform="translate(350.774798 523.196563) scale(0.22 -0.22)">
       <defs>
        <path id="DejaVuSans-33" d="M 2597 2516 
Q 3050 2419 3304 2112 
Q 3559 1806 3559 1356 
Q 3559 666 3084 287 
Q 2609 -91 1734 -91 
Q 1441 -91 1130 -33 
Q 819 25 488 141 
L 488 750 
Q 750 597 1062 519 
Q 1375 441 1716 441 
Q 2309 441 2620 675 
Q 2931 909 2931 1356 
Q 2931 1769 2642 2001 
Q 2353 2234 1838 2234 
L 1294 2234 
L 1294 2753 
L 1863 2753 
Q 2328 2753 2575 2939 
Q 2822 3125 2822 3475 
Q 2822 3834 2567 4026 
Q 2313 4219 1838 4219 
Q 1578 4219 1281 4162 
Q 984 4106 628 3988 
L 628 4550 
Q 988 4650 1302 4700 
Q 1616 4750 1894 4750 
Q 2613 4750 3031 4423 
Q 3450 4097 3450 3541 
Q 3450 3153 3228 2886 
Q 3006 2619 2597 2516 
z
" transform="scale(0.015625)"/>
       </defs>
       <use xlink:href="#DejaVuSans-33"/>
       <use xlink:href="#DejaVuSans-30" x="63.623047"/>
      </g>
     </g>
    </g>
    <g id="xtick_5">
     <g id="line2d_5">
      <g>
       <use xlink:href="#m2c71734637" x="458.378551" y="499.48" style="stroke: #000000; stroke-width: 0.8"/>
      </g>
     </g>
     <g id="text_5">
      <!-- 40 -->
      <g transform="translate(444.381051 523.196563) scale(0.22 -0.22)">
       <defs>
        <path id="DejaVuSans-34" d="M 2419 4116 
L 825 1625 
L 2419 1625 
L 2419 4116 
z
M 2253 4666 
L 3047 4666 
L 3047 1625 
L 3713 1625 
L 3713 1100 
L 3047 1100 
L 3047 0 
L 2419 0 
L 2419 1100 
L 313 1100 
L 313 1709 
L 2253 4666 
z
" transform="scale(0.015625)"/>
       </defs>
       <use xlink:href="#DejaVuSans-34"/>
       <use xlink:href="#DejaVuSans-30" x="63.623047"/>
      </g>
     </g>
    </g>
    <g id="xtick_6">
     <g id="line2d_6">
      <g>
       <use xlink:href="#m2c71734637" x="551.984803" y="499.48" style="stroke: #000000; stroke-width: 0.8"/>
      </g>
     </g>
     <g id="text_6">
      <!-- 50 -->
      <g transform="translate(537.987303 523.196563) scale(0.22 -0.22)">
       <defs>
        <path id="DejaVuSans-35" d="M 691 4666 
L 3169 4666 
L 3169 4134 
L 1269 4134 
L 1269 2991 
Q 1406 3038 1543 3061 
Q 1681 3084 1819 3084 
Q 2600 3084 3056 2656 
Q 3513 2228 3513 1497 
Q 3513 744 3044 326 
Q 2575 -91 1722 -91 
Q 1428 -91 1123 -41 
Q 819 9 494 109 
L 494 744 
Q 775 591 1075 516 
Q 1375 441 1709 441 
Q 2250 441 2565 725 
Q 2881 1009 2881 1497 
Q 2881 1984 2565 2268 
Q 2250 2553 1709 2553 
Q 1456 2553 1204 2497 
Q 953 2441 691 2322 
L 691 4666 
z
" transform="scale(0.015625)"/>
       </defs>
       <use xlink:href="#DejaVuSans-35"/>
       <use xlink:href="#DejaVuSans-30" x="63.623047"/>
      </g>
     </g>
    </g>
    <g id="xtick_7">
     <g id="line2d_7">
      <g>
       <use xlink:href="#m2c71734637" x="645.591056" y="499.48" style="stroke: #000000; stroke-width: 0.8"/>
      </g>
     </g>
     <g id="text_7">
      <!-- 60 -->
      <g transform="translate(631.593556 523.196563) scale(0.22 -0.22)">
       <defs>
        <path id="DejaVuSans-36" d="M 2113 2584 
Q 1688 2584 1439 2293 
Q 1191 2003 1191 1497 
Q 1191 994 1439 701 
Q 1688 409 2113 409 
Q 2538 409 2786 701 
Q 3034 994 3034 1497 
Q 3034 2003 2786 2293 
Q 2538 2584 2113 2584 
z
M 3366 4563 
L 3366 3988 
Q 3128 4100 2886 4159 
Q 2644 4219 2406 4219 
Q 1781 4219 1451 3797 
Q 1122 3375 1075 2522 
Q 1259 2794 1537 2939 
Q 1816 3084 2150 3084 
Q 2853 3084 3261 2657 
Q 3669 2231 3669 1497 
Q 3669 778 3244 343 
Q 2819 -91 2113 -91 
Q 1303 -91 875 529 
Q 447 1150 447 2328 
Q 447 3434 972 4092 
Q 1497 4750 2381 4750 
Q 2619 4750 2861 4703 
Q 3103 4656 3366 4563 
z
" transform="scale(0.015625)"/>
       </defs>
       <use xlink:href="#DejaVuSans-36"/>
       <use xlink:href="#DejaVuSans-30" x="63.623047"/>
      </g>
     </g>
    </g>
    <g id="text_8">
     <!-- Force Uncertainties -->
     <g transform="translate(283.426094 548.488438) scale(0.22 -0.22)">
      <defs>
       <path id="DejaVuSans-46" d="M 628 4666 
L 3309 4666 
L 3309 4134 
L 1259 4134 
L 1259 2759 
L 3109 2759 
L 3109 2228 
L 1259 2228 
L 1259 0 
L 628 0 
L 628 4666 
z
" transform="scale(0.015625)"/>
       <path id="DejaVuSans-6f" d="M 1959 3097 
Q 1497 3097 1228 2736 
Q 959 2375 959 1747 
Q 959 1119 1226 758 
Q 1494 397 1959 397 
Q 2419 397 2687 759 
Q 2956 1122 2956 1747 
Q 2956 2369 2687 2733 
Q 2419 3097 1959 3097 
z
M 1959 3584 
Q 2709 3584 3137 3096 
Q 3566 2609 3566 1747 
Q 3566 888 3137 398 
Q 2709 -91 1959 -91 
Q 1206 -91 779 398 
Q 353 888 353 1747 
Q 353 2609 779 3096 
Q 1206 3584 1959 3584 
z
" transform="scale(0.015625)"/>
       <path id="DejaVuSans-72" d="M 2631 2963 
Q 2534 3019 2420 3045 
Q 2306 3072 2169 3072 
Q 1681 3072 1420 2755 
Q 1159 2438 1159 1844 
L 1159 0 
L 581 0 
L 581 3500 
L 1159 3500 
L 1159 2956 
Q 1341 3275 1631 3429 
Q 1922 3584 2338 3584 
Q 2397 3584 2469 3576 
Q 2541 3569 2628 3553 
L 2631 2963 
z
" transform="scale(0.015625)"/>
       <path id="DejaVuSans-63" d="M 3122 3366 
L 3122 2828 
Q 2878 2963 2633 3030 
Q 2388 3097 2138 3097 
Q 1578 3097 1268 2742 
Q 959 2388 959 1747 
Q 959 1106 1268 751 
Q 1578 397 2138 397 
Q 2388 397 2633 464 
Q 2878 531 3122 666 
L 3122 134 
Q 2881 22 2623 -34 
Q 2366 -91 2075 -91 
Q 1284 -91 818 406 
Q 353 903 353 1747 
Q 353 2603 823 3093 
Q 1294 3584 2113 3584 
Q 2378 3584 2631 3529 
Q 2884 3475 3122 3366 
z
" transform="scale(0.015625)"/>
       <path id="DejaVuSans-65" d="M 3597 1894 
L 3597 1613 
L 953 1613 
Q 991 1019 1311 708 
Q 1631 397 2203 397 
Q 2534 397 2845 478 
Q 3156 559 3463 722 
L 3463 178 
Q 3153 47 2828 -22 
Q 2503 -91 2169 -91 
Q 1331 -91 842 396 
Q 353 884 353 1716 
Q 353 2575 817 3079 
Q 1281 3584 2069 3584 
Q 2775 3584 3186 3129 
Q 3597 2675 3597 1894 
z
M 3022 2063 
Q 3016 2534 2758 2815 
Q 2500 3097 2075 3097 
Q 1594 3097 1305 2825 
Q 1016 2553 972 2059 
L 3022 2063 
z
" transform="scale(0.015625)"/>
       <path id="DejaVuSans-20" transform="scale(0.015625)"/>
       <path id="DejaVuSans-55" d="M 556 4666 
L 1191 4666 
L 1191 1831 
Q 1191 1081 1462 751 
Q 1734 422 2344 422 
Q 2950 422 3222 751 
Q 3494 1081 3494 1831 
L 3494 4666 
L 4128 4666 
L 4128 1753 
Q 4128 841 3676 375 
Q 3225 -91 2344 -91 
Q 1459 -91 1007 375 
Q 556 841 556 1753 
L 556 4666 
z
" transform="scale(0.015625)"/>
       <path id="DejaVuSans-6e" d="M 3513 2113 
L 3513 0 
L 2938 0 
L 2938 2094 
Q 2938 2591 2744 2837 
Q 2550 3084 2163 3084 
Q 1697 3084 1428 2787 
Q 1159 2491 1159 1978 
L 1159 0 
L 581 0 
L 581 3500 
L 1159 3500 
L 1159 2956 
Q 1366 3272 1645 3428 
Q 1925 3584 2291 3584 
Q 2894 3584 3203 3211 
Q 3513 2838 3513 2113 
z
" transform="scale(0.015625)"/>
       <path id="DejaVuSans-74" d="M 1172 4494 
L 1172 3500 
L 2356 3500 
L 2356 3053 
L 1172 3053 
L 1172 1153 
Q 1172 725 1289 603 
Q 1406 481 1766 481 
L 2356 481 
L 2356 0 
L 1766 0 
Q 1100 0 847 248 
Q 594 497 594 1153 
L 594 3053 
L 172 3053 
L 172 3500 
L 594 3500 
L 594 4494 
L 1172 4494 
z
" transform="scale(0.015625)"/>
       <path id="DejaVuSans-61" d="M 2194 1759 
Q 1497 1759 1228 1600 
Q 959 1441 959 1056 
Q 959 750 1161 570 
Q 1363 391 1709 391 
Q 2188 391 2477 730 
Q 2766 1069 2766 1631 
L 2766 1759 
L 2194 1759 
z
M 3341 1997 
L 3341 0 
L 2766 0 
L 2766 531 
Q 2569 213 2275 61 
Q 1981 -91 1556 -91 
Q 1019 -91 701 211 
Q 384 513 384 1019 
Q 384 1609 779 1909 
Q 1175 2209 1959 2209 
L 2766 2209 
L 2766 2266 
Q 2766 2663 2505 2880 
Q 2244 3097 1772 3097 
Q 1472 3097 1187 3025 
Q 903 2953 641 2809 
L 641 3341 
Q 956 3463 1253 3523 
Q 1550 3584 1831 3584 
Q 2591 3584 2966 3190 
Q 3341 2797 3341 1997 
z
" transform="scale(0.015625)"/>
       <path id="DejaVuSans-69" d="M 603 3500 
L 1178 3500 
L 1178 0 
L 603 0 
L 603 3500 
z
M 603 4863 
L 1178 4863 
L 1178 4134 
L 603 4134 
L 603 4863 
z
" transform="scale(0.015625)"/>
       <path id="DejaVuSans-73" d="M 2834 3397 
L 2834 2853 
Q 2591 2978 2328 3040 
Q 2066 3103 1784 3103 
Q 1356 3103 1142 2972 
Q 928 2841 928 2578 
Q 928 2378 1081 2264 
Q 1234 2150 1697 2047 
L 1894 2003 
Q 2506 1872 2764 1633 
Q 3022 1394 3022 966 
Q 3022 478 2636 193 
Q 2250 -91 1575 -91 
Q 1294 -91 989 -36 
Q 684 19 347 128 
L 347 722 
Q 666 556 975 473 
Q 1284 391 1588 391 
Q 1994 391 2212 530 
Q 2431 669 2431 922 
Q 2431 1156 2273 1281 
Q 2116 1406 1581 1522 
L 1381 1569 
Q 847 1681 609 1914 
Q 372 2147 372 2553 
Q 372 3047 722 3315 
Q 1072 3584 1716 3584 
Q 2034 3584 2315 3537 
Q 2597 3491 2834 3397 
z
" transform="scale(0.015625)"/>
      </defs>
      <use xlink:href="#DejaVuSans-46"/>
      <use xlink:href="#DejaVuSans-6f" x="53.894531"/>
      <use xlink:href="#DejaVuSans-72" x="115.076172"/>
      <use xlink:href="#DejaVuSans-63" x="153.939453"/>
      <use xlink:href="#DejaVuSans-65" x="208.919922"/>
      <use xlink:href="#DejaVuSans-20" x="270.443359"/>
      <use xlink:href="#DejaVuSans-55" x="302.230469"/>
      <use xlink:href="#DejaVuSans-6e" x="375.423828"/>
      <use xlink:href="#DejaVuSans-63" x="438.802734"/>
      <use xlink:href="#DejaVuSans-65" x="493.783203"/>
      <use xlink:href="#DejaVuSans-72" x="555.306641"/>
      <use xlink:href="#DejaVuSans-74" x="596.419922"/>
      <use xlink:href="#DejaVuSans-61" x="635.628906"/>
      <use xlink:href="#DejaVuSans-69" x="696.908203"/>
      <use xlink:href="#DejaVuSans-6e" x="724.691406"/>
      <use xlink:href="#DejaVuSans-74" x="788.070312"/>
      <use xlink:href="#DejaVuSans-69" x="827.279297"/>
      <use xlink:href="#DejaVuSans-65" x="855.0625"/>
      <use xlink:href="#DejaVuSans-73" x="916.585938"/>
     </g>
    </g>
   </g>
   <g id="matplotlib.axis_2">
    <g id="ytick_1">
     <g id="line2d_8">
      <defs>
       <path id="mf41080ee82" d="M 0 0 
L -3.5 0 
" style="stroke: #000000; stroke-width: 0.8"/>
      </defs>
      <g>
       <use xlink:href="#mf41080ee82" x="83.72" y="499.298619" style="stroke: #000000; stroke-width: 0.8"/>
      </g>
     </g>
     <g id="text_9">
      <!-- 0 -->
      <g transform="translate(62.7225 507.6569) scale(0.22 -0.22)">
       <use xlink:href="#DejaVuSans-30"/>
      </g>
     </g>
    </g>
    <g id="ytick_2">
     <g id="line2d_9">
      <g>
       <use xlink:href="#mf41080ee82" x="83.72" y="426.598353" style="stroke: #000000; stroke-width: 0.8"/>
      </g>
     </g>
     <g id="text_10">
      <!-- 10 -->
      <g transform="translate(48.725 434.956635) scale(0.22 -0.22)">
       <use xlink:href="#DejaVuSans-31"/>
       <use xlink:href="#DejaVuSans-30" x="63.623047"/>
      </g>
     </g>
    </g>
    <g id="ytick_3">
     <g id="line2d_10">
      <g>
       <use xlink:href="#mf41080ee82" x="83.72" y="353.898088" style="stroke: #000000; stroke-width: 0.8"/>
      </g>
     </g>
     <g id="text_11">
      <!-- 20 -->
      <g transform="translate(48.725 362.256369) scale(0.22 -0.22)">
       <use xlink:href="#DejaVuSans-32"/>
       <use xlink:href="#DejaVuSans-30" x="63.623047"/>
      </g>
     </g>
    </g>
    <g id="ytick_4">
     <g id="line2d_11">
      <g>
       <use xlink:href="#mf41080ee82" x="83.72" y="281.197823" style="stroke: #000000; stroke-width: 0.8"/>
      </g>
     </g>
     <g id="text_12">
      <!-- 30 -->
      <g transform="translate(48.725 289.556104) scale(0.22 -0.22)">
       <use xlink:href="#DejaVuSans-33"/>
       <use xlink:href="#DejaVuSans-30" x="63.623047"/>
      </g>
     </g>
    </g>
    <g id="ytick_5">
     <g id="line2d_12">
      <g>
       <use xlink:href="#mf41080ee82" x="83.72" y="208.497557" style="stroke: #000000; stroke-width: 0.8"/>
      </g>
     </g>
     <g id="text_13">
      <!-- 40 -->
      <g transform="translate(48.725 216.855839) scale(0.22 -0.22)">
       <use xlink:href="#DejaVuSans-34"/>
       <use xlink:href="#DejaVuSans-30" x="63.623047"/>
      </g>
     </g>
    </g>
    <g id="ytick_6">
     <g id="line2d_13">
      <g>
       <use xlink:href="#mf41080ee82" x="83.72" y="135.797292" style="stroke: #000000; stroke-width: 0.8"/>
      </g>
     </g>
     <g id="text_14">
      <!-- 50 -->
      <g transform="translate(48.725 144.155573) scale(0.22 -0.22)">
       <use xlink:href="#DejaVuSans-35"/>
       <use xlink:href="#DejaVuSans-30" x="63.623047"/>
      </g>
     </g>
    </g>
    <g id="ytick_7">
     <g id="line2d_14">
      <g>
       <use xlink:href="#mf41080ee82" x="83.72" y="63.097027" style="stroke: #000000; stroke-width: 0.8"/>
      </g>
     </g>
     <g id="text_15">
      <!-- 60 -->
      <g transform="translate(48.725 71.455308) scale(0.22 -0.22)">
       <use xlink:href="#DejaVuSans-36"/>
       <use xlink:href="#DejaVuSans-30" x="63.623047"/>
      </g>
     </g>
    </g>
    <g id="text_16">
     <!-- Force Errors [kJ/(mol*A)] -->
     <g transform="translate(40.149688 394.9125) rotate(-90) scale(0.22 -0.22)">
      <defs>
       <path id="DejaVuSans-45" d="M 628 4666 
L 3578 4666 
L 3578 4134 
L 1259 4134 
L 1259 2753 
L 3481 2753 
L 3481 2222 
L 1259 2222 
L 1259 531 
L 3634 531 
L 3634 0 
L 628 0 
L 628 4666 
z
" transform="scale(0.015625)"/>
       <path id="DejaVuSans-5b" d="M 550 4863 
L 1875 4863 
L 1875 4416 
L 1125 4416 
L 1125 -397 
L 1875 -397 
L 1875 -844 
L 550 -844 
L 550 4863 
z
" transform="scale(0.015625)"/>
       <path id="DejaVuSans-6b" d="M 581 4863 
L 1159 4863 
L 1159 1991 
L 2875 3500 
L 3609 3500 
L 1753 1863 
L 3688 0 
L 2938 0 
L 1159 1709 
L 1159 0 
L 581 0 
L 581 4863 
z
" transform="scale(0.015625)"/>
       <path id="DejaVuSans-4a" d="M 628 4666 
L 1259 4666 
L 1259 325 
Q 1259 -519 939 -900 
Q 619 -1281 -91 -1281 
L -331 -1281 
L -331 -750 
L -134 -750 
Q 284 -750 456 -515 
Q 628 -281 628 325 
L 628 4666 
z
" transform="scale(0.015625)"/>
       <path id="DejaVuSans-2f" d="M 1625 4666 
L 2156 4666 
L 531 -594 
L 0 -594 
L 1625 4666 
z
" transform="scale(0.015625)"/>
       <path id="DejaVuSans-28" d="M 1984 4856 
Q 1566 4138 1362 3434 
Q 1159 2731 1159 2009 
Q 1159 1288 1364 580 
Q 1569 -128 1984 -844 
L 1484 -844 
Q 1016 -109 783 600 
Q 550 1309 550 2009 
Q 550 2706 781 3412 
Q 1013 4119 1484 4856 
L 1984 4856 
z
" transform="scale(0.015625)"/>
       <path id="DejaVuSans-6d" d="M 3328 2828 
Q 3544 3216 3844 3400 
Q 4144 3584 4550 3584 
Q 5097 3584 5394 3201 
Q 5691 2819 5691 2113 
L 5691 0 
L 5113 0 
L 5113 2094 
Q 5113 2597 4934 2840 
Q 4756 3084 4391 3084 
Q 3944 3084 3684 2787 
Q 3425 2491 3425 1978 
L 3425 0 
L 2847 0 
L 2847 2094 
Q 2847 2600 2669 2842 
Q 2491 3084 2119 3084 
Q 1678 3084 1418 2786 
Q 1159 2488 1159 1978 
L 1159 0 
L 581 0 
L 581 3500 
L 1159 3500 
L 1159 2956 
Q 1356 3278 1631 3431 
Q 1906 3584 2284 3584 
Q 2666 3584 2933 3390 
Q 3200 3197 3328 2828 
z
" transform="scale(0.015625)"/>
       <path id="DejaVuSans-6c" d="M 603 4863 
L 1178 4863 
L 1178 0 
L 603 0 
L 603 4863 
z
" transform="scale(0.015625)"/>
       <path id="DejaVuSans-2a" d="M 3009 3897 
L 1888 3291 
L 3009 2681 
L 2828 2375 
L 1778 3009 
L 1778 1831 
L 1422 1831 
L 1422 3009 
L 372 2375 
L 191 2681 
L 1313 3291 
L 191 3897 
L 372 4206 
L 1422 3572 
L 1422 4750 
L 1778 4750 
L 1778 3572 
L 2828 4206 
L 3009 3897 
z
" transform="scale(0.015625)"/>
       <path id="DejaVuSans-41" d="M 2188 4044 
L 1331 1722 
L 3047 1722 
L 2188 4044 
z
M 1831 4666 
L 2547 4666 
L 4325 0 
L 3669 0 
L 3244 1197 
L 1141 1197 
L 716 0 
L 50 0 
L 1831 4666 
z
" transform="scale(0.015625)"/>
       <path id="DejaVuSans-29" d="M 513 4856 
L 1013 4856 
Q 1481 4119 1714 3412 
Q 1947 2706 1947 2009 
Q 1947 1309 1714 600 
Q 1481 -109 1013 -844 
L 513 -844 
Q 928 -128 1133 580 
Q 1338 1288 1338 2009 
Q 1338 2731 1133 3434 
Q 928 4138 513 4856 
z
" transform="scale(0.015625)"/>
       <path id="DejaVuSans-5d" d="M 1947 4863 
L 1947 -844 
L 622 -844 
L 622 -397 
L 1369 -397 
L 1369 4416 
L 622 4416 
L 622 4863 
L 1947 4863 
z
" transform="scale(0.015625)"/>
      </defs>
      <use xlink:href="#DejaVuSans-46"/>
      <use xlink:href="#DejaVuSans-6f" x="53.894531"/>
      <use xlink:href="#DejaVuSans-72" x="115.076172"/>
      <use xlink:href="#DejaVuSans-63" x="153.939453"/>
      <use xlink:href="#DejaVuSans-65" x="208.919922"/>
      <use xlink:href="#DejaVuSans-20" x="270.443359"/>
      <use xlink:href="#DejaVuSans-45" x="302.230469"/>
      <use xlink:href="#DejaVuSans-72" x="365.414062"/>
      <use xlink:href="#DejaVuSans-72" x="404.777344"/>
      <use xlink:href="#DejaVuSans-6f" x="443.640625"/>
      <use xlink:href="#DejaVuSans-72" x="504.822266"/>
      <use xlink:href="#DejaVuSans-73" x="545.935547"/>
      <use xlink:href="#DejaVuSans-20" x="598.035156"/>
      <use xlink:href="#DejaVuSans-5b" x="629.822266"/>
      <use xlink:href="#DejaVuSans-6b" x="668.835938"/>
      <use xlink:href="#DejaVuSans-4a" x="726.746094"/>
      <use xlink:href="#DejaVuSans-2f" x="756.238281"/>
      <use xlink:href="#DejaVuSans-28" x="789.929688"/>
      <use xlink:href="#DejaVuSans-6d" x="828.943359"/>
      <use xlink:href="#DejaVuSans-6f" x="926.355469"/>
      <use xlink:href="#DejaVuSans-6c" x="987.537109"/>
      <use xlink:href="#DejaVuSans-2a" x="1015.320312"/>
      <use xlink:href="#DejaVuSans-41" x="1065.320312"/>
      <use xlink:href="#DejaVuSans-29" x="1133.728516"/>
      <use xlink:href="#DejaVuSans-5d" x="1172.742188"/>
     </g>
    </g>
   </g>
   <g id="line2d_15">
    <path d="M 83.72 499.48 
L 696.24 23.76 
" clip-path="url(#paae021957f)" style="fill: none; stroke-dasharray: 5.55,2.4; stroke-dashoffset: 0; stroke: #ff0000; stroke-width: 1.5"/>
   </g>
   <g id="patch_3">
    <path d="M 83.72 499.48 
L 83.72 23.76 
" style="fill: none; stroke: #000000; stroke-width: 0.8; stroke-linejoin: miter; stroke-linecap: square"/>
   </g>
   <g id="patch_4">
    <path d="M 696.24 499.48 
L 696.24 23.76 
" style="fill: none; stroke: #000000; stroke-width: 0.8; stroke-linejoin: miter; stroke-linecap: square"/>
   </g>
   <g id="patch_5">
    <path d="M 83.72 499.48 
L 696.24 499.48 
" style="fill: none; stroke: #000000; stroke-width: 0.8; stroke-linejoin: miter; stroke-linecap: square"/>
   </g>
   <g id="patch_6">
    <path d="M 83.72 23.76 
L 696.24 23.76 
" style="fill: none; stroke: #000000; stroke-width: 0.8; stroke-linejoin: miter; stroke-linecap: square"/>
   </g>
   <g id="text_17">
    <!-- Correlation in: 0.656 -->
    <g transform="translate(144.972 71.332) scale(0.22 -0.22)">
     <defs>
      <path id="DejaVuSans-43" d="M 4122 4306 
L 4122 3641 
Q 3803 3938 3442 4084 
Q 3081 4231 2675 4231 
Q 1875 4231 1450 3742 
Q 1025 3253 1025 2328 
Q 1025 1406 1450 917 
Q 1875 428 2675 428 
Q 3081 428 3442 575 
Q 3803 722 4122 1019 
L 4122 359 
Q 3791 134 3420 21 
Q 3050 -91 2638 -91 
Q 1578 -91 968 557 
Q 359 1206 359 2328 
Q 359 3453 968 4101 
Q 1578 4750 2638 4750 
Q 3056 4750 3426 4639 
Q 3797 4528 4122 4306 
z
" transform="scale(0.015625)"/>
      <path id="DejaVuSans-3a" d="M 750 794 
L 1409 794 
L 1409 0 
L 750 0 
L 750 794 
z
M 750 3309 
L 1409 3309 
L 1409 2516 
L 750 2516 
L 750 3309 
z
" transform="scale(0.015625)"/>
      <path id="DejaVuSans-2e" d="M 684 794 
L 1344 794 
L 1344 0 
L 684 0 
L 684 794 
z
" transform="scale(0.015625)"/>
     </defs>
     <use xlink:href="#DejaVuSans-43"/>
     <use xlink:href="#DejaVuSans-6f" x="69.824219"/>
     <use xlink:href="#DejaVuSans-72" x="131.005859"/>
     <use xlink:href="#DejaVuSans-72" x="170.369141"/>
     <use xlink:href="#DejaVuSans-65" x="209.232422"/>
     <use xlink:href="#DejaVuSans-6c" x="270.755859"/>
     <use xlink:href="#DejaVuSans-61" x="298.539062"/>
     <use xlink:href="#DejaVuSans-74" x="359.818359"/>
     <use xlink:href="#DejaVuSans-69" x="399.027344"/>
     <use xlink:href="#DejaVuSans-6f" x="426.810547"/>
     <use xlink:href="#DejaVuSans-6e" x="487.992188"/>
     <use xlink:href="#DejaVuSans-20" x="551.371094"/>
     <use xlink:href="#DejaVuSans-69" x="583.158203"/>
     <use xlink:href="#DejaVuSans-6e" x="610.941406"/>
     <use xlink:href="#DejaVuSans-3a" x="674.320312"/>
     <use xlink:href="#DejaVuSans-20" x="708.011719"/>
     <use xlink:href="#DejaVuSans-30" x="739.798828"/>
     <use xlink:href="#DejaVuSans-2e" x="803.421875"/>
     <use xlink:href="#DejaVuSans-36" x="835.208984"/>
     <use xlink:href="#DejaVuSans-35" x="898.832031"/>
     <use xlink:href="#DejaVuSans-36" x="962.455078"/>
    </g>
   </g>
  </g>
 </g>
 <defs>
  <clipPath id="paae021957f">
   <rect x="83.72" y="23.76" width="612.52" height="475.72"/>
  </clipPath>
 </defs>
</svg>
