<?xml version="1.0" encoding="utf-8" standalone="no"?>
<!DOCTYPE svg PUBLIC "-//W3C//DTD SVG 1.1//EN"
  "http://www.w3.org/Graphics/SVG/1.1/DTD/svg11.dtd">
<svg xmlns:xlink="http://www.w3.org/1999/xlink" width="720pt" height="576pt" viewBox="0 0 720 576" xmlns="http://www.w3.org/2000/svg" version="1.1">
 <metadata>
  <rdf:RDF xmlns:dc="http://purl.org/dc/elements/1.1/" xmlns:cc="http://creativecommons.org/ns#" xmlns:rdf="http://www.w3.org/1999/02/22-rdf-syntax-ns#">
   <cc:Work>
    <dc:type rdf:resource="http://purl.org/dc/dcmitype/StillImage"/>
    <dc:date>2024-12-07T13:08:59.612770</dc:date>
    <dc:format>image/svg+xml</dc:format>
    <dc:creator>
     <cc:Agent>
      <dc:title>Matplotlib v3.8.4, https://matplotlib.org/</dc:title>
     </cc:Agent>
    </dc:creator>
   </cc:Work>
  </rdf:RDF>
 </metadata>
 <defs>
  <style type="text/css">*{stroke-linejoin: round; stroke-linecap: butt}</style>
 </defs>
 <g id="figure_1">
  <g id="patch_1">
   <path d="M 0 576 
L 720 576 
L 720 0 
L 0 0 
z
" style="fill: #ffffff"/>
  </g>
  <g id="axes_1">
   <g id="patch_2">
    <path d="M 83.72 499.48 
L 696.24 499.48 
L 696.24 23.76 
L 83.72 23.76 
z
" style="fill: #ffffff"/>
   </g>
   <g id="QuadContourSet_1">
    <path d="M 71.313529 511.991842 
L 73.333807 512.839842 
L 75.354085 513.088157 
L 77.374363 513.137313 
L 79.394641 513.022647 
L 81.414919 512.661769 
L 83.435197 512.012527 
L 85.455475 510.995157 
L 85.743441 510.813928 
L 87.475753 510.065805 
L 89.496031 508.915587 
L 90.693448 508.074538 
L 91.516309 507.659812 
L 93.536587 506.494046 
L 95.142671 505.335148 
L 95.556865 505.111389 
L 97.577143 504.001329 
L 99.597422 502.595757 
L 99.597422 502.595757 
L 101.6177 501.564595 
L 103.637978 500.231965 
L 104.120898 499.856367 
L 105.658256 498.911138 
L 107.678534 497.271276 
L 107.838264 497.116977 
L 109.698812 495.649917 
L 110.958101 494.377586 
L 111.71909 493.726936 
L 113.695095 491.638196 
L 113.739368 491.597139 
L 115.759646 489.571758 
L 116.339729 488.898806 
L 117.779924 487.362644 
L 118.779521 486.159415 
L 119.800202 484.988589 
L 121.053969 483.420025 
L 121.82048 482.472854 
L 123.196318 480.680635 
L 123.840758 479.821286 
L 125.224352 477.941244 
L 125.861036 477.023375 
L 127.143799 475.201854 
L 127.881314 474.050279 
L 128.949423 472.462464 
L 129.901592 470.849315 
L 130.62408 469.723073 
L 131.92187 467.333417 
L 132.135503 466.983683 
L 133.626228 464.244293 
L 133.942148 463.540814 
L 135.026817 461.504902 
L 135.962426 459.208157 
L 136.183908 458.765512 
L 137.174994 456.026122 
L 137.794895 453.286731 
L 137.667216 450.547341 
L 136.130737 447.807951 
L 135.962426 447.596107 
L 133.994009 445.06856 
L 133.942148 445.004772 
L 132.459986 442.32917 
L 131.92187 441.278568 
L 130.968988 439.58978 
L 129.901592 438.5083 
L 127.881314 437.80222 
L 125.861036 437.88084 
L 123.840758 438.318888 
L 121.82048 439.004115 
L 120.455204 439.58978 
L 119.800202 439.783058 
L 117.779924 440.407055 
L 115.759646 441.097867 
L 113.739368 441.847772 
L 112.302815 442.32917 
L 111.71909 442.461046 
L 109.698812 442.770825 
L 107.678534 443.258479 
L 105.658256 444.227761 
L 104.47202 445.06856 
L 103.637978 445.532264 
L 101.6177 447.115636 
L 100.904186 447.807951 
L 99.597422 448.887535 
L 97.950965 450.547341 
L 97.577143 450.874902 
L 95.556865 452.966777 
L 95.284017 453.286731 
L 93.536587 455.154079 
L 92.817163 456.026122 
L 91.516309 457.503079 
L 90.511493 458.765512 
L 89.496031 459.996421 
L 88.339662 461.504902 
L 87.475753 462.626677 
L 86.282646 464.244293 
L 85.455475 465.3974 
L 84.330288 466.983683 
L 83.435197 468.3252 
L 82.481762 469.723073 
L 81.414919 471.443636 
L 80.746679 472.462464 
L 79.394641 474.810148 
L 79.147538 475.201854 
L 77.607563 477.941244 
L 77.374363 478.415473 
L 76.11521 480.680635 
L 75.354085 482.366795 
L 74.79631 483.420025 
L 73.57478 486.159415 
L 73.333807 486.7816 
L 72.331179 488.898806 
L 71.350726 491.638196 
L 71.313529 491.753275 
L 70.218014 494.377586 
L 69.406305 497.116977 
L 69.293251 497.621554 
L 68.605309 499.856367 
L 68.141941 502.595757 
L 68.109507 505.335148 
L 68.708741 508.074538 
L 69.293251 509.362797 
L 70.124172 510.813928 
z
M 80.133685 505.335148 
L 79.394641 505.267852 
L 77.374363 504.51002 
L 75.785309 502.595757 
L 75.354085 501.196634 
L 75.014908 499.856367 
L 74.876489 497.116977 
L 75.236072 494.377586 
L 75.354085 493.989784 
L 75.921562 491.638196 
L 76.882686 488.898806 
L 77.374363 487.8277 
L 78.023836 486.159415 
L 79.394641 483.420025 
L 79.394641 483.420025 
L 80.732948 480.680635 
L 81.414919 479.496677 
L 82.256727 477.941244 
L 83.435197 476.022545 
L 83.927425 475.201854 
L 85.455475 472.870571 
L 85.726956 472.462464 
L 87.475753 469.965388 
L 87.654769 469.723073 
L 89.496031 467.266661 
L 89.728652 466.983683 
L 91.516309 464.76048 
L 91.98975 464.244293 
L 93.536587 462.456322 
L 94.513956 461.504902 
L 95.556865 460.388878 
L 97.435066 458.765512 
L 97.577143 458.625519 
L 99.597422 456.800299 
L 100.701955 456.026122 
L 101.6177 455.255393 
L 103.637978 453.853531 
L 104.627475 453.286731 
L 105.658256 452.551 
L 107.678534 451.352299 
L 109.369928 450.547341 
L 109.698812 450.346558 
L 111.71909 449.220685 
L 113.739368 448.328581 
L 115.123337 447.807951 
L 115.759646 447.493903 
L 117.779924 446.689006 
L 119.800202 446.162884 
L 121.82048 446.005672 
L 123.840758 446.612019 
L 125.02415 447.807951 
L 125.861036 449.7215 
L 126.146142 450.547341 
L 126.776063 453.286731 
L 127.281034 456.026122 
L 127.576939 458.765512 
L 127.660892 461.504902 
L 127.397318 464.244293 
L 126.573052 466.983683 
L 125.861036 468.537421 
L 125.362494 469.723073 
L 123.864352 472.462464 
L 123.840758 472.498376 
L 122.096656 475.201854 
L 121.82048 475.589606 
L 120.118733 477.941244 
L 119.800202 478.355422 
L 117.920172 480.680635 
L 117.779924 480.850125 
L 115.759646 483.096584 
L 115.447251 483.420025 
L 113.739368 485.153646 
L 112.639976 486.159415 
L 111.71909 487.020389 
L 109.698812 488.712412 
L 109.473383 488.898806 
L 107.678534 490.445987 
L 106.08847 491.638196 
L 105.658256 491.989369 
L 103.637978 493.658907 
L 102.663129 494.377586 
L 101.6177 495.252395 
L 99.597422 496.757698 
L 99.080724 497.116977 
L 97.577143 498.356493 
L 95.556865 499.696016 
L 95.296407 499.856367 
L 93.536587 501.199486 
L 91.516309 502.373132 
L 91.058737 502.595757 
L 89.496031 503.583625 
L 87.475753 504.487654 
L 85.455475 505.087278 
L 83.751691 505.335148 
L 83.435197 505.397459 
L 81.414919 505.455664 
z
" clip-path="url(#pd9d4a6ad3d)" style="fill: #eef5fc"/>
    <path d="M 81.414919 505.455664 
L 83.435197 505.397459 
L 83.751691 505.335148 
L 85.455475 505.087278 
L 87.475753 504.487654 
L 89.496031 503.583625 
L 91.058737 502.595757 
L 91.516309 502.373132 
L 93.536587 501.199486 
L 95.296407 499.856367 
L 95.556865 499.696016 
L 97.577143 498.356493 
L 99.080724 497.116977 
L 99.597422 496.757698 
L 101.6177 495.252395 
L 102.663129 494.377586 
L 103.637978 493.658907 
L 105.658256 491.989369 
L 106.08847 491.638196 
L 107.678534 490.445987 
L 109.473383 488.898806 
L 109.698812 488.712412 
L 111.71909 487.020389 
L 112.639976 486.159415 
L 113.739368 485.153646 
L 115.447251 483.420025 
L 115.759646 483.096584 
L 117.779924 480.850125 
L 117.920172 480.680635 
L 119.800202 478.355422 
L 120.118733 477.941244 
L 121.82048 475.589606 
L 122.096656 475.201854 
L 123.840758 472.498376 
L 123.864352 472.462464 
L 125.362494 469.723073 
L 125.861036 468.537421 
L 126.573052 466.983683 
L 127.397318 464.244293 
L 127.660892 461.504902 
L 127.576939 458.765512 
L 127.281034 456.026122 
L 126.776063 453.286731 
L 126.146142 450.547341 
L 125.861036 449.7215 
L 125.02415 447.807951 
L 123.840758 446.612019 
L 121.82048 446.005672 
L 119.800202 446.162884 
L 117.779924 446.689006 
L 115.759646 447.493903 
L 115.123337 447.807951 
L 113.739368 448.328581 
L 111.71909 449.220685 
L 109.698812 450.346558 
L 109.369928 450.547341 
L 107.678534 451.352299 
L 105.658256 452.551 
L 104.627475 453.286731 
L 103.637978 453.853531 
L 101.6177 455.255393 
L 100.701955 456.026122 
L 99.597422 456.800299 
L 97.577143 458.625519 
L 97.435066 458.765512 
L 95.556865 460.388878 
L 94.513956 461.504902 
L 93.536587 462.456322 
L 91.98975 464.244293 
L 91.516309 464.76048 
L 89.728652 466.983683 
L 89.496031 467.266661 
L 87.654769 469.723073 
L 87.475753 469.965388 
L 85.726956 472.462464 
L 85.455475 472.870571 
L 83.927425 475.201854 
L 83.435197 476.022545 
L 82.256727 477.941244 
L 81.414919 479.496677 
L 80.732948 480.680635 
L 79.394641 483.420025 
L 79.394641 483.420025 
L 78.023836 486.159415 
L 77.374363 487.8277 
L 76.882686 488.898806 
L 75.921562 491.638196 
L 75.354085 493.989784 
L 75.236072 494.377586 
L 74.876489 497.116977 
L 75.014908 499.856367 
L 75.354085 501.196634 
L 75.785309 502.595757 
L 77.374363 504.51002 
L 79.394641 505.267852 
L 80.133685 505.335148 
z
M 80.052395 499.856367 
L 79.394641 498.791831 
L 78.81401 497.116977 
L 78.636984 494.377586 
L 78.949767 491.638196 
L 79.394641 489.997759 
L 79.641356 488.898806 
L 80.603329 486.159415 
L 81.414919 484.429929 
L 81.835334 483.420025 
L 83.256927 480.680635 
L 83.435197 480.377725 
L 84.798083 477.941244 
L 85.455475 476.907223 
L 86.525857 475.201854 
L 87.475753 473.816278 
L 88.427619 472.462464 
L 89.496031 471.015512 
L 90.513032 469.723073 
L 91.516309 468.460915 
L 92.817208 466.983683 
L 93.536587 466.143257 
L 95.410232 464.244293 
L 95.556865 464.08542 
L 97.577143 462.085657 
L 98.268453 461.504902 
L 99.597422 460.268483 
L 101.6177 458.765512 
L 101.6177 458.765512 
L 103.637978 457.173733 
L 105.517576 456.026122 
L 105.658256 455.924047 
L 107.678534 454.591635 
L 109.698812 453.540052 
L 110.250262 453.286731 
L 111.71909 452.463417 
L 113.739368 451.569274 
L 115.759646 450.893509 
L 117.462434 450.547341 
L 117.779924 450.466441 
L 119.222938 450.547341 
L 119.800202 450.591004 
L 121.82048 452.319941 
L 122.296369 453.286731 
L 122.805392 456.026122 
L 122.886846 458.765512 
L 122.715508 461.504902 
L 122.251521 464.244293 
L 121.82048 465.713802 
L 121.511854 466.983683 
L 120.519203 469.723073 
L 119.800202 471.132181 
L 119.193859 472.462464 
L 117.779924 474.745701 
L 117.518938 475.201854 
L 115.759646 477.654096 
L 115.562652 477.941244 
L 113.739368 480.20379 
L 113.358816 480.680635 
L 111.71909 482.531872 
L 110.911829 483.420025 
L 109.698812 484.685891 
L 108.196737 486.159415 
L 107.678534 486.665245 
L 105.658256 488.576125 
L 105.306124 488.898806 
L 103.637978 490.494278 
L 102.262239 491.638196 
L 101.6177 492.222405 
L 99.597422 493.901082 
L 98.956844 494.377586 
L 97.577143 495.548389 
L 95.556865 496.945125 
L 95.274007 497.116977 
L 93.536587 498.379993 
L 91.516309 499.490096 
L 90.6218 499.856367 
L 89.496031 500.43325 
L 87.475753 501.04841 
L 85.455475 501.309077 
L 83.435197 501.262693 
L 81.414919 500.802552 
z
" clip-path="url(#pd9d4a6ad3d)" style="fill: #dae8f6"/>
    <path d="M 81.414919 500.802552 
L 83.435197 501.262693 
L 85.455475 501.309077 
L 87.475753 501.04841 
L 89.496031 500.43325 
L 90.6218 499.856367 
L 91.516309 499.490096 
L 93.536587 498.379993 
L 95.274007 497.116977 
L 95.556865 496.945125 
L 97.577143 495.548389 
L 98.956844 494.377586 
L 99.597422 493.901082 
L 101.6177 492.222405 
L 102.262239 491.638196 
L 103.637978 490.494278 
L 105.306124 488.898806 
L 105.658256 488.576125 
L 107.678534 486.665245 
L 108.196737 486.159415 
L 109.698812 484.685891 
L 110.911829 483.420025 
L 111.71909 482.531872 
L 113.358816 480.680635 
L 113.739368 480.20379 
L 115.562652 477.941244 
L 115.759646 477.654096 
L 117.518938 475.201854 
L 117.779924 474.745701 
L 119.193859 472.462464 
L 119.800202 471.132181 
L 120.519203 469.723073 
L 121.511854 466.983683 
L 121.82048 465.713802 
L 122.251521 464.244293 
L 122.715508 461.504902 
L 122.886846 458.765512 
L 122.805392 456.026122 
L 122.296369 453.286731 
L 121.82048 452.319941 
L 119.800202 450.591004 
L 119.222938 450.547341 
L 117.779924 450.466441 
L 117.462434 450.547341 
L 115.759646 450.893509 
L 113.739368 451.569274 
L 111.71909 452.463417 
L 110.250262 453.286731 
L 109.698812 453.540052 
L 107.678534 454.591635 
L 105.658256 455.924047 
L 105.517576 456.026122 
L 103.637978 457.173733 
L 101.6177 458.765512 
L 101.6177 458.765512 
L 99.597422 460.268483 
L 98.268453 461.504902 
L 97.577143 462.085657 
L 95.556865 464.08542 
L 95.410232 464.244293 
L 93.536587 466.143257 
L 92.817208 466.983683 
L 91.516309 468.460915 
L 90.513032 469.723073 
L 89.496031 471.015512 
L 88.427619 472.462464 
L 87.475753 473.816278 
L 86.525857 475.201854 
L 85.455475 476.907223 
L 84.798083 477.941244 
L 83.435197 480.377725 
L 83.256927 480.680635 
L 81.835334 483.420025 
L 81.414919 484.429929 
L 80.603329 486.159415 
L 79.641356 488.898806 
L 79.394641 489.997759 
L 78.949767 491.638196 
L 78.636984 494.377586 
L 78.81401 497.116977 
L 79.394641 498.791831 
L 80.052395 499.856367 
z
M 83.415947 497.116977 
L 81.854773 494.377586 
L 81.747802 491.638196 
L 82.146539 488.898806 
L 82.930353 486.159415 
L 83.435197 484.957965 
L 84.011175 483.420025 
L 85.36675 480.680635 
L 85.455475 480.529287 
L 86.905379 477.941244 
L 87.475753 477.059958 
L 88.668554 475.201854 
L 89.496031 474.036641 
L 90.646977 472.462464 
L 91.516309 471.341362 
L 92.857622 469.723073 
L 93.536587 468.918192 
L 95.348182 466.983683 
L 95.556865 466.755693 
L 97.577143 464.741425 
L 98.140719 464.244293 
L 99.597422 462.888122 
L 101.373667 461.504902 
L 101.6177 461.296081 
L 103.637978 459.737962 
L 105.166309 458.765512 
L 105.658256 458.409875 
L 107.678534 457.129211 
L 109.698812 456.089316 
L 109.845714 456.026122 
L 111.71909 455.08585 
L 113.739368 454.380997 
L 115.759646 454.040437 
L 117.779924 454.441572 
L 119.243985 456.026122 
L 119.800202 458.765512 
L 119.649772 461.504902 
L 119.2113 464.244293 
L 118.455031 466.983683 
L 117.779924 468.625749 
L 117.392276 469.723073 
L 116.047637 472.462464 
L 115.759646 472.932123 
L 114.47748 475.201854 
L 113.739368 476.255961 
L 112.612107 477.941244 
L 111.71909 479.086426 
L 110.487295 480.680635 
L 109.698812 481.604862 
L 108.106728 483.420025 
L 107.678534 483.88482 
L 105.658256 485.992796 
L 105.495008 486.159415 
L 103.637978 488.055919 
L 102.714788 488.898806 
L 101.6177 489.947124 
L 99.597422 491.612903 
L 99.56439 491.638196 
L 97.577143 493.311239 
L 96.011292 494.377586 
L 95.556865 494.732657 
L 93.536587 496.002152 
L 91.516309 496.949321 
L 90.928348 497.116977 
L 89.496031 497.604159 
L 87.475753 497.873859 
L 85.455475 497.78114 
L 83.435197 497.131441 
z
" clip-path="url(#pd9d4a6ad3d)" style="fill: #c7dbef"/>
    <path d="M 83.435197 497.131441 
L 85.455475 497.78114 
L 87.475753 497.873859 
L 89.496031 497.604159 
L 90.928348 497.116977 
L 91.516309 496.949321 
L 93.536587 496.002152 
L 95.556865 494.732657 
L 96.011292 494.377586 
L 97.577143 493.311239 
L 99.56439 491.638196 
L 99.597422 491.612903 
L 101.6177 489.947124 
L 102.714788 488.898806 
L 103.637978 488.055919 
L 105.495008 486.159415 
L 105.658256 485.992796 
L 107.678534 483.88482 
L 108.106728 483.420025 
L 109.698812 481.604862 
L 110.487295 480.680635 
L 111.71909 479.086426 
L 112.612107 477.941244 
L 113.739368 476.255961 
L 114.47748 475.201854 
L 115.759646 472.932123 
L 116.047637 472.462464 
L 117.392276 469.723073 
L 117.779924 468.625749 
L 118.455031 466.983683 
L 119.2113 464.244293 
L 119.649772 461.504902 
L 119.800202 458.765512 
L 119.243985 456.026122 
L 117.779924 454.441572 
L 115.759646 454.040437 
L 113.739368 454.380997 
L 111.71909 455.08585 
L 109.845714 456.026122 
L 109.698812 456.089316 
L 107.678534 457.129211 
L 105.658256 458.409875 
L 105.166309 458.765512 
L 103.637978 459.737962 
L 101.6177 461.296081 
L 101.373667 461.504902 
L 99.597422 462.888122 
L 98.140719 464.244293 
L 97.577143 464.741425 
L 95.556865 466.755693 
L 95.348182 466.983683 
L 93.536587 468.918192 
L 92.857622 469.723073 
L 91.516309 471.341362 
L 90.646977 472.462464 
L 89.496031 474.036641 
L 88.668554 475.201854 
L 87.475753 477.059958 
L 86.905379 477.941244 
L 85.455475 480.529287 
L 85.36675 480.680635 
L 84.011175 483.420025 
L 83.435197 484.957965 
L 82.930353 486.159415 
L 82.146539 488.898806 
L 81.747802 491.638196 
L 81.854773 494.377586 
L 83.415947 497.116977 
z
M 86.948214 494.377586 
L 85.455475 493.376862 
L 84.645246 491.638196 
L 84.633947 488.898806 
L 85.218523 486.159415 
L 85.455475 485.52077 
L 86.154696 483.420025 
L 87.426332 480.680635 
L 87.475753 480.594458 
L 88.935221 477.941244 
L 89.496031 477.081113 
L 90.715077 475.201854 
L 91.516309 474.107276 
L 92.758753 472.462464 
L 93.536587 471.506594 
L 95.089996 469.723073 
L 95.556865 469.202953 
L 97.577143 467.151512 
L 97.755353 466.983683 
L 99.597422 465.242044 
L 100.813686 464.244293 
L 101.6177 463.553205 
L 103.637978 462.037862 
L 104.448812 461.504902 
L 105.658256 460.642124 
L 107.678534 459.45051 
L 109.079935 458.765512 
L 109.698812 458.426537 
L 111.71909 457.67377 
L 113.739368 457.367048 
L 115.759646 457.959737 
L 116.468662 458.765512 
L 117.088209 461.504902 
L 116.821087 464.244293 
L 116.108837 466.983683 
L 115.759646 467.855202 
L 115.105935 469.723073 
L 113.753339 472.462464 
L 113.739368 472.48573 
L 112.229944 475.201854 
L 111.71909 475.947928 
L 110.407673 477.941244 
L 109.698812 478.869403 
L 108.318622 480.680635 
L 107.678534 481.443965 
L 105.96135 483.420025 
L 105.658256 483.75306 
L 103.637978 485.87517 
L 103.348466 486.159415 
L 101.6177 487.869726 
L 100.427504 488.898806 
L 99.597422 489.654271 
L 97.577143 491.219626 
L 96.924884 491.638196 
L 95.556865 492.606141 
L 93.536587 493.662153 
L 91.516309 494.377586 
L 91.516309 494.377586 
L 89.496031 494.680088 
L 87.475753 494.559062 
z
" clip-path="url(#pd9d4a6ad3d)" style="fill: #a1cbe2"/>
    <path d="M 87.475753 494.559062 
L 89.496031 494.680088 
L 91.516309 494.377586 
L 91.516309 494.377586 
L 93.536587 493.662153 
L 95.556865 492.606141 
L 96.924884 491.638196 
L 97.577143 491.219626 
L 99.597422 489.654271 
L 100.427504 488.898806 
L 101.6177 487.869726 
L 103.348466 486.159415 
L 103.637978 485.87517 
L 105.658256 483.75306 
L 105.96135 483.420025 
L 107.678534 481.443965 
L 108.318622 480.680635 
L 109.698812 478.869403 
L 110.407673 477.941244 
L 111.71909 475.947928 
L 112.229944 475.201854 
L 113.739368 472.48573 
L 113.753339 472.462464 
L 115.105935 469.723073 
L 115.759646 467.855202 
L 116.108837 466.983683 
L 116.821087 464.244293 
L 117.088209 461.504902 
L 116.468662 458.765512 
L 115.759646 457.959737 
L 113.739368 457.367048 
L 111.71909 457.67377 
L 109.698812 458.426537 
L 109.079935 458.765512 
L 107.678534 459.45051 
L 105.658256 460.642124 
L 104.448812 461.504902 
L 103.637978 462.037862 
L 101.6177 463.553205 
L 100.813686 464.244293 
L 99.597422 465.242044 
L 97.755353 466.983683 
L 97.577143 467.151512 
L 95.556865 469.202953 
L 95.089996 469.723073 
L 93.536587 471.506594 
L 92.758753 472.462464 
L 91.516309 474.107276 
L 90.715077 475.201854 
L 89.496031 477.081113 
L 88.935221 477.941244 
L 87.475753 480.594458 
L 87.426332 480.680635 
L 86.154696 483.420025 
L 85.455475 485.52077 
L 85.218523 486.159415 
L 84.633947 488.898806 
L 84.645246 491.638196 
L 85.455475 493.376862 
L 86.948214 494.377586 
z
M 88.735273 491.638196 
L 87.475753 490.498613 
L 86.919966 488.898806 
L 87.152108 486.159415 
L 87.475753 485.138276 
L 87.969032 483.420025 
L 89.147363 480.680635 
L 89.496031 480.057365 
L 90.638085 477.941244 
L 91.516309 476.601813 
L 92.434332 475.201854 
L 93.536587 473.738925 
L 94.533518 472.462464 
L 95.556865 471.26266 
L 96.967335 469.723073 
L 97.577143 469.084035 
L 99.597422 467.164061 
L 99.803472 466.983683 
L 101.6177 465.402566 
L 103.153286 464.244293 
L 103.637978 463.863867 
L 105.658256 462.512726 
L 107.451155 461.504902 
L 107.678534 461.36762 
L 109.698812 460.523594 
L 111.71909 460.136666 
L 113.739368 460.691104 
L 114.407001 461.504902 
L 114.820062 464.244293 
L 114.349348 466.983683 
L 113.739368 468.681581 
L 113.402463 469.723073 
L 112.162952 472.462464 
L 111.71909 473.221849 
L 110.628672 475.201854 
L 109.698812 476.585975 
L 108.807546 477.941244 
L 107.678534 479.431982 
L 106.716551 480.680635 
L 105.658256 481.93749 
L 104.33838 483.420025 
L 103.637978 484.175886 
L 101.6177 486.159415 
L 101.6177 486.159415 
L 99.597422 487.95035 
L 98.331377 488.898806 
L 97.577143 489.495063 
L 95.556865 490.70755 
L 93.536587 491.588482 
L 93.277267 491.638196 
L 91.516309 491.997417 
L 89.496031 491.921327 
z
" clip-path="url(#pd9d4a6ad3d)" style="fill: #72b2d8"/>
    <path d="M 89.496031 491.921327 
L 91.516309 491.997417 
L 93.277267 491.638196 
L 93.536587 491.588482 
L 95.556865 490.70755 
L 97.577143 489.495063 
L 98.331377 488.898806 
L 99.597422 487.95035 
L 101.6177 486.159415 
L 101.6177 486.159415 
L 103.637978 484.175886 
L 104.33838 483.420025 
L 105.658256 481.93749 
L 106.716551 480.680635 
L 107.678534 479.431982 
L 108.807546 477.941244 
L 109.698812 476.585975 
L 110.628672 475.201854 
L 111.71909 473.221849 
L 112.162952 472.462464 
L 113.402463 469.723073 
L 113.739368 468.681581 
L 114.349348 466.983683 
L 114.820062 464.244293 
L 114.407001 461.504902 
L 113.739368 460.691104 
L 111.71909 460.136666 
L 109.698812 460.523594 
L 107.678534 461.36762 
L 107.451155 461.504902 
L 105.658256 462.512726 
L 103.637978 463.863867 
L 103.153286 464.244293 
L 101.6177 465.402566 
L 99.803472 466.983683 
L 99.597422 467.164061 
L 97.577143 469.084035 
L 96.967335 469.723073 
L 95.556865 471.26266 
L 94.533518 472.462464 
L 93.536587 473.738925 
L 92.434332 475.201854 
L 91.516309 476.601813 
L 90.638085 477.941244 
L 89.496031 480.057365 
L 89.147363 480.680635 
L 87.969032 483.420025 
L 87.475753 485.138276 
L 87.152108 486.159415 
L 86.919966 488.898806 
L 87.475753 490.498613 
L 88.735273 491.638196 
z
M 90.115651 488.898806 
L 89.496031 487.99593 
L 89.098939 486.159415 
L 89.496031 484.189251 
L 89.637881 483.420025 
L 90.720841 480.680635 
L 91.516309 479.214933 
L 92.188838 477.941244 
L 93.536587 475.896698 
L 93.998188 475.201854 
L 95.556865 473.198467 
L 96.154406 472.462464 
L 97.577143 470.880097 
L 98.700724 469.723073 
L 99.597422 468.845967 
L 101.6177 467.078098 
L 101.739281 466.983683 
L 103.637978 465.540576 
L 105.615964 464.244293 
L 105.658256 464.215829 
L 107.678534 463.248782 
L 109.698812 462.722183 
L 111.71909 463.13844 
L 112.538944 464.244293 
L 112.64293 466.983683 
L 111.935007 469.723073 
L 111.71909 470.195005 
L 110.748806 472.462464 
L 109.698812 474.344687 
L 109.234075 475.201854 
L 107.678534 477.554355 
L 107.420076 477.941244 
L 105.658256 480.233137 
L 105.296865 480.680635 
L 103.637978 482.562581 
L 102.812063 483.420025 
L 101.6177 484.613462 
L 99.858639 486.159415 
L 99.597422 486.390979 
L 97.577143 487.792579 
L 95.556865 488.898806 
L 95.556865 488.898806 
L 93.536587 489.454097 
L 91.516309 489.474085 
z
" clip-path="url(#pd9d4a6ad3d)" style="fill: #4d99ca"/>
    <path d="M 91.516309 489.474085 
L 93.536587 489.454097 
L 95.556865 488.898806 
L 95.556865 488.898806 
L 97.577143 487.792579 
L 99.597422 486.390979 
L 99.858639 486.159415 
L 101.6177 484.613462 
L 102.812063 483.420025 
L 103.637978 482.562581 
L 105.296865 480.680635 
L 105.658256 480.233137 
L 107.420076 477.941244 
L 107.678534 477.554355 
L 109.234075 475.201854 
L 109.698812 474.344687 
L 110.748806 472.462464 
L 111.71909 470.195005 
L 111.935007 469.723073 
L 112.64293 466.983683 
L 112.538944 464.244293 
L 111.71909 463.13844 
L 109.698812 462.722183 
L 107.678534 463.248782 
L 105.658256 464.215829 
L 105.615964 464.244293 
L 103.637978 465.540576 
L 101.739281 466.983683 
L 101.6177 467.078098 
L 99.597422 468.845967 
L 98.700724 469.723073 
L 97.577143 470.880097 
L 96.154406 472.462464 
L 95.556865 473.198467 
L 93.998188 475.201854 
L 93.536587 475.896698 
L 92.188838 477.941244 
L 91.516309 479.214933 
L 90.720841 480.680635 
L 89.637881 483.420025 
L 89.496031 484.189251 
L 89.098939 486.159415 
L 89.496031 487.99593 
L 90.115651 488.898806 
z
M 92.891662 486.159415 
L 91.849877 483.420025 
L 92.64548 480.680635 
L 93.536587 478.901686 
L 94.008601 477.941244 
L 95.556865 475.584837 
L 95.812377 475.201854 
L 97.577143 473.041976 
L 98.074534 472.462464 
L 99.597422 470.909392 
L 100.861002 469.723073 
L 101.6177 469.063355 
L 103.637978 467.581585 
L 104.645277 466.983683 
L 105.658256 466.414114 
L 107.678534 465.836745 
L 109.698812 466.397875 
L 110.072286 466.983683 
L 110.038246 469.723073 
L 109.698812 470.646833 
L 109.049443 472.462464 
L 107.678534 475.184239 
L 107.669551 475.201854 
L 105.841019 477.941244 
L 105.658256 478.178995 
L 103.637978 480.680635 
L 103.637978 480.680635 
L 101.6177 482.680367 
L 100.763322 483.420025 
L 99.597422 484.372554 
L 97.577143 485.646649 
L 96.258752 486.159415 
L 95.556865 486.418891 
L 93.536587 486.45986 
z
" clip-path="url(#pd9d4a6ad3d)" style="fill: #2d7dbb"/>
    <path d="M 93.536587 486.45986 
L 95.556865 486.418891 
L 96.258752 486.159415 
L 97.577143 485.646649 
L 99.597422 484.372554 
L 100.763322 483.420025 
L 101.6177 482.680367 
L 103.637978 480.680635 
L 103.637978 480.680635 
L 105.658256 478.178995 
L 105.841019 477.941244 
L 107.669551 475.201854 
L 107.678534 475.184239 
L 109.049443 472.462464 
L 109.698812 470.646833 
L 110.038246 469.723073 
L 110.072286 466.983683 
L 109.698812 466.397875 
L 107.678534 465.836745 
L 105.658256 466.414114 
L 104.645277 466.983683 
L 103.637978 467.581585 
L 101.6177 469.063355 
L 100.861002 469.723073 
L 99.597422 470.909392 
L 98.074534 472.462464 
L 97.577143 473.041976 
L 95.812377 475.201854 
L 95.556865 475.584837 
L 94.008601 477.941244 
L 93.536587 478.901686 
L 92.64548 480.680635 
L 91.849877 483.420025 
L 92.891662 486.159415 
z
M 94.903374 480.680635 
L 95.556865 478.954467 
L 95.937356 477.941244 
L 97.577143 475.368088 
L 97.685991 475.201854 
L 99.597422 473.091817 
L 100.204198 472.462464 
L 101.6177 471.269598 
L 103.637978 469.723073 
L 103.637978 469.723073 
L 105.658256 469.124784 
L 107.185663 469.723073 
L 107.106983 472.462464 
L 105.92377 475.201854 
L 105.658256 475.607731 
L 104.049648 477.941244 
L 103.637978 478.44216 
L 101.619243 480.680635 
L 101.6177 480.682162 
L 99.597422 482.08039 
L 97.577143 483.11368 
L 95.556865 482.971434 
z
" clip-path="url(#pd9d4a6ad3d)" style="fill: #125da6"/>
    <path d="M 95.556865 482.971434 
L 97.577143 483.11368 
L 99.597422 482.08039 
L 101.6177 480.682162 
L 101.619243 480.680635 
L 103.637978 478.44216 
L 104.049648 477.941244 
L 105.658256 475.607731 
L 105.92377 475.201854 
L 107.106983 472.462464 
L 107.185663 469.723073 
L 105.658256 469.124784 
L 103.637978 469.723073 
L 103.637978 469.723073 
L 101.6177 471.269598 
L 100.204198 472.462464 
L 99.597422 473.091817 
L 97.685991 475.201854 
L 97.577143 475.368088 
L 95.937356 477.941244 
L 95.556865 478.954467 
L 94.903374 480.680635 
z
" clip-path="url(#pd9d4a6ad3d)" style="fill: #083e81"/>
   </g>
   <g id="matplotlib.axis_1">
    <g id="xtick_1">
     <g id="line2d_1">
      <defs>
       <path id="m777599b889" d="M 0 0 
L 0 3.5 
" style="stroke: #000000; stroke-width: 0.8"/>
      </defs>
      <g>
       <use xlink:href="#m777599b889" x="87.085134" y="499.48" style="stroke: #000000; stroke-width: 0.8"/>
      </g>
     </g>
     <g id="text_1">
      <!-- 0 -->
      <g transform="translate(80.086384 523.196563) scale(0.22 -0.22)">
       <defs>
        <path id="DejaVuSans-30" d="M 2034 4250 
Q 1547 4250 1301 3770 
Q 1056 3291 1056 2328 
Q 1056 1369 1301 889 
Q 1547 409 2034 409 
Q 2525 409 2770 889 
Q 3016 1369 3016 2328 
Q 3016 3291 2770 3770 
Q 2525 4250 2034 4250 
z
M 2034 4750 
Q 2819 4750 3233 4129 
Q 3647 3509 3647 2328 
Q 3647 1150 3233 529 
Q 2819 -91 2034 -91 
Q 1250 -91 836 529 
Q 422 1150 422 2328 
Q 422 3509 836 4129 
Q 1250 4750 2034 4750 
z
" transform="scale(0.015625)"/>
       </defs>
       <use xlink:href="#DejaVuSans-30"/>
      </g>
     </g>
    </g>
    <g id="xtick_2">
     <g id="line2d_2">
      <g>
       <use xlink:href="#m777599b889" x="176.07702" y="499.48" style="stroke: #000000; stroke-width: 0.8"/>
      </g>
     </g>
     <g id="text_2">
      <!-- 10 -->
      <g transform="translate(162.07952 523.196563) scale(0.22 -0.22)">
       <defs>
        <path id="DejaVuSans-31" d="M 794 531 
L 1825 531 
L 1825 4091 
L 703 3866 
L 703 4441 
L 1819 4666 
L 2450 4666 
L 2450 531 
L 3481 531 
L 3481 0 
L 794 0 
L 794 531 
z
" transform="scale(0.015625)"/>
       </defs>
       <use xlink:href="#DejaVuSans-31"/>
       <use xlink:href="#DejaVuSans-30" x="63.623047"/>
      </g>
     </g>
    </g>
    <g id="xtick_3">
     <g id="line2d_3">
      <g>
       <use xlink:href="#m777599b889" x="265.068906" y="499.48" style="stroke: #000000; stroke-width: 0.8"/>
      </g>
     </g>
     <g id="text_3">
      <!-- 20 -->
      <g transform="translate(251.071406 523.196563) scale(0.22 -0.22)">
       <defs>
        <path id="DejaVuSans-32" d="M 1228 531 
L 3431 531 
L 3431 0 
L 469 0 
L 469 531 
Q 828 903 1448 1529 
Q 2069 2156 2228 2338 
Q 2531 2678 2651 2914 
Q 2772 3150 2772 3378 
Q 2772 3750 2511 3984 
Q 2250 4219 1831 4219 
Q 1534 4219 1204 4116 
Q 875 4013 500 3803 
L 500 4441 
Q 881 4594 1212 4672 
Q 1544 4750 1819 4750 
Q 2544 4750 2975 4387 
Q 3406 4025 3406 3419 
Q 3406 3131 3298 2873 
Q 3191 2616 2906 2266 
Q 2828 2175 2409 1742 
Q 1991 1309 1228 531 
z
" transform="scale(0.015625)"/>
       </defs>
       <use xlink:href="#DejaVuSans-32"/>
       <use xlink:href="#DejaVuSans-30" x="63.623047"/>
      </g>
     </g>
    </g>
    <g id="xtick_4">
     <g id="line2d_4">
      <g>
       <use xlink:href="#m777599b889" x="354.060793" y="499.48" style="stroke: #000000; stroke-width: 0.8"/>
      </g>
     </g>
     <g id="text_4">
      <!-- 30 -->
      <g transform="translate(340.063293 523.196563) scale(0.22 -0.22)">
       <defs>
        <path id="DejaVuSans-33" d="M 2597 2516 
Q 3050 2419 3304 2112 
Q 3559 1806 3559 1356 
Q 3559 666 3084 287 
Q 2609 -91 1734 -91 
Q 1441 -91 1130 -33 
Q 819 25 488 141 
L 488 750 
Q 750 597 1062 519 
Q 1375 441 1716 441 
Q 2309 441 2620 675 
Q 2931 909 2931 1356 
Q 2931 1769 2642 2001 
Q 2353 2234 1838 2234 
L 1294 2234 
L 1294 2753 
L 1863 2753 
Q 2328 2753 2575 2939 
Q 2822 3125 2822 3475 
Q 2822 3834 2567 4026 
Q 2313 4219 1838 4219 
Q 1578 4219 1281 4162 
Q 984 4106 628 3988 
L 628 4550 
Q 988 4650 1302 4700 
Q 1616 4750 1894 4750 
Q 2613 4750 3031 4423 
Q 3450 4097 3450 3541 
Q 3450 3153 3228 2886 
Q 3006 2619 2597 2516 
z
" transform="scale(0.015625)"/>
       </defs>
       <use xlink:href="#DejaVuSans-33"/>
       <use xlink:href="#DejaVuSans-30" x="63.623047"/>
      </g>
     </g>
    </g>
    <g id="xtick_5">
     <g id="line2d_5">
      <g>
       <use xlink:href="#m777599b889" x="443.052679" y="499.48" style="stroke: #000000; stroke-width: 0.8"/>
      </g>
     </g>
     <g id="text_5">
      <!-- 40 -->
      <g transform="translate(429.055179 523.196563) scale(0.22 -0.22)">
       <defs>
        <path id="DejaVuSans-34" d="M 2419 4116 
L 825 1625 
L 2419 1625 
L 2419 4116 
z
M 2253 4666 
L 3047 4666 
L 3047 1625 
L 3713 1625 
L 3713 1100 
L 3047 1100 
L 3047 0 
L 2419 0 
L 2419 1100 
L 313 1100 
L 313 1709 
L 2253 4666 
z
" transform="scale(0.015625)"/>
       </defs>
       <use xlink:href="#DejaVuSans-34"/>
       <use xlink:href="#DejaVuSans-30" x="63.623047"/>
      </g>
     </g>
    </g>
    <g id="xtick_6">
     <g id="line2d_6">
      <g>
       <use xlink:href="#m777599b889" x="532.044565" y="499.48" style="stroke: #000000; stroke-width: 0.8"/>
      </g>
     </g>
     <g id="text_6">
      <!-- 50 -->
      <g transform="translate(518.047065 523.196563) scale(0.22 -0.22)">
       <defs>
        <path id="DejaVuSans-35" d="M 691 4666 
L 3169 4666 
L 3169 4134 
L 1269 4134 
L 1269 2991 
Q 1406 3038 1543 3061 
Q 1681 3084 1819 3084 
Q 2600 3084 3056 2656 
Q 3513 2228 3513 1497 
Q 3513 744 3044 326 
Q 2575 -91 1722 -91 
Q 1428 -91 1123 -41 
Q 819 9 494 109 
L 494 744 
Q 775 591 1075 516 
Q 1375 441 1709 441 
Q 2250 441 2565 725 
Q 2881 1009 2881 1497 
Q 2881 1984 2565 2268 
Q 2250 2553 1709 2553 
Q 1456 2553 1204 2497 
Q 953 2441 691 2322 
L 691 4666 
z
" transform="scale(0.015625)"/>
       </defs>
       <use xlink:href="#DejaVuSans-35"/>
       <use xlink:href="#DejaVuSans-30" x="63.623047"/>
      </g>
     </g>
    </g>
    <g id="xtick_7">
     <g id="line2d_7">
      <g>
       <use xlink:href="#m777599b889" x="621.036452" y="499.48" style="stroke: #000000; stroke-width: 0.8"/>
      </g>
     </g>
     <g id="text_7">
      <!-- 60 -->
      <g transform="translate(607.038952 523.196563) scale(0.22 -0.22)">
       <defs>
        <path id="DejaVuSans-36" d="M 2113 2584 
Q 1688 2584 1439 2293 
Q 1191 2003 1191 1497 
Q 1191 994 1439 701 
Q 1688 409 2113 409 
Q 2538 409 2786 701 
Q 3034 994 3034 1497 
Q 3034 2003 2786 2293 
Q 2538 2584 2113 2584 
z
M 3366 4563 
L 3366 3988 
Q 3128 4100 2886 4159 
Q 2644 4219 2406 4219 
Q 1781 4219 1451 3797 
Q 1122 3375 1075 2522 
Q 1259 2794 1537 2939 
Q 1816 3084 2150 3084 
Q 2853 3084 3261 2657 
Q 3669 2231 3669 1497 
Q 3669 778 3244 343 
Q 2819 -91 2113 -91 
Q 1303 -91 875 529 
Q 447 1150 447 2328 
Q 447 3434 972 4092 
Q 1497 4750 2381 4750 
Q 2619 4750 2861 4703 
Q 3103 4656 3366 4563 
z
" transform="scale(0.015625)"/>
       </defs>
       <use xlink:href="#DejaVuSans-36"/>
       <use xlink:href="#DejaVuSans-30" x="63.623047"/>
      </g>
     </g>
    </g>
    <g id="text_8">
     <!-- Force Uncertainties -->
     <g transform="translate(283.426094 548.488438) scale(0.22 -0.22)">
      <defs>
       <path id="DejaVuSans-46" d="M 628 4666 
L 3309 4666 
L 3309 4134 
L 1259 4134 
L 1259 2759 
L 3109 2759 
L 3109 2228 
L 1259 2228 
L 1259 0 
L 628 0 
L 628 4666 
z
" transform="scale(0.015625)"/>
       <path id="DejaVuSans-6f" d="M 1959 3097 
Q 1497 3097 1228 2736 
Q 959 2375 959 1747 
Q 959 1119 1226 758 
Q 1494 397 1959 397 
Q 2419 397 2687 759 
Q 2956 1122 2956 1747 
Q 2956 2369 2687 2733 
Q 2419 3097 1959 3097 
z
M 1959 3584 
Q 2709 3584 3137 3096 
Q 3566 2609 3566 1747 
Q 3566 888 3137 398 
Q 2709 -91 1959 -91 
Q 1206 -91 779 398 
Q 353 888 353 1747 
Q 353 2609 779 3096 
Q 1206 3584 1959 3584 
z
" transform="scale(0.015625)"/>
       <path id="DejaVuSans-72" d="M 2631 2963 
Q 2534 3019 2420 3045 
Q 2306 3072 2169 3072 
Q 1681 3072 1420 2755 
Q 1159 2438 1159 1844 
L 1159 0 
L 581 0 
L 581 3500 
L 1159 3500 
L 1159 2956 
Q 1341 3275 1631 3429 
Q 1922 3584 2338 3584 
Q 2397 3584 2469 3576 
Q 2541 3569 2628 3553 
L 2631 2963 
z
" transform="scale(0.015625)"/>
       <path id="DejaVuSans-63" d="M 3122 3366 
L 3122 2828 
Q 2878 2963 2633 3030 
Q 2388 3097 2138 3097 
Q 1578 3097 1268 2742 
Q 959 2388 959 1747 
Q 959 1106 1268 751 
Q 1578 397 2138 397 
Q 2388 397 2633 464 
Q 2878 531 3122 666 
L 3122 134 
Q 2881 22 2623 -34 
Q 2366 -91 2075 -91 
Q 1284 -91 818 406 
Q 353 903 353 1747 
Q 353 2603 823 3093 
Q 1294 3584 2113 3584 
Q 2378 3584 2631 3529 
Q 2884 3475 3122 3366 
z
" transform="scale(0.015625)"/>
       <path id="DejaVuSans-65" d="M 3597 1894 
L 3597 1613 
L 953 1613 
Q 991 1019 1311 708 
Q 1631 397 2203 397 
Q 2534 397 2845 478 
Q 3156 559 3463 722 
L 3463 178 
Q 3153 47 2828 -22 
Q 2503 -91 2169 -91 
Q 1331 -91 842 396 
Q 353 884 353 1716 
Q 353 2575 817 3079 
Q 1281 3584 2069 3584 
Q 2775 3584 3186 3129 
Q 3597 2675 3597 1894 
z
M 3022 2063 
Q 3016 2534 2758 2815 
Q 2500 3097 2075 3097 
Q 1594 3097 1305 2825 
Q 1016 2553 972 2059 
L 3022 2063 
z
" transform="scale(0.015625)"/>
       <path id="DejaVuSans-20" transform="scale(0.015625)"/>
       <path id="DejaVuSans-55" d="M 556 4666 
L 1191 4666 
L 1191 1831 
Q 1191 1081 1462 751 
Q 1734 422 2344 422 
Q 2950 422 3222 751 
Q 3494 1081 3494 1831 
L 3494 4666 
L 4128 4666 
L 4128 1753 
Q 4128 841 3676 375 
Q 3225 -91 2344 -91 
Q 1459 -91 1007 375 
Q 556 841 556 1753 
L 556 4666 
z
" transform="scale(0.015625)"/>
       <path id="DejaVuSans-6e" d="M 3513 2113 
L 3513 0 
L 2938 0 
L 2938 2094 
Q 2938 2591 2744 2837 
Q 2550 3084 2163 3084 
Q 1697 3084 1428 2787 
Q 1159 2491 1159 1978 
L 1159 0 
L 581 0 
L 581 3500 
L 1159 3500 
L 1159 2956 
Q 1366 3272 1645 3428 
Q 1925 3584 2291 3584 
Q 2894 3584 3203 3211 
Q 3513 2838 3513 2113 
z
" transform="scale(0.015625)"/>
       <path id="DejaVuSans-74" d="M 1172 4494 
L 1172 3500 
L 2356 3500 
L 2356 3053 
L 1172 3053 
L 1172 1153 
Q 1172 725 1289 603 
Q 1406 481 1766 481 
L 2356 481 
L 2356 0 
L 1766 0 
Q 1100 0 847 248 
Q 594 497 594 1153 
L 594 3053 
L 172 3053 
L 172 3500 
L 594 3500 
L 594 4494 
L 1172 4494 
z
" transform="scale(0.015625)"/>
       <path id="DejaVuSans-61" d="M 2194 1759 
Q 1497 1759 1228 1600 
Q 959 1441 959 1056 
Q 959 750 1161 570 
Q 1363 391 1709 391 
Q 2188 391 2477 730 
Q 2766 1069 2766 1631 
L 2766 1759 
L 2194 1759 
z
M 3341 1997 
L 3341 0 
L 2766 0 
L 2766 531 
Q 2569 213 2275 61 
Q 1981 -91 1556 -91 
Q 1019 -91 701 211 
Q 384 513 384 1019 
Q 384 1609 779 1909 
Q 1175 2209 1959 2209 
L 2766 2209 
L 2766 2266 
Q 2766 2663 2505 2880 
Q 2244 3097 1772 3097 
Q 1472 3097 1187 3025 
Q 903 2953 641 2809 
L 641 3341 
Q 956 3463 1253 3523 
Q 1550 3584 1831 3584 
Q 2591 3584 2966 3190 
Q 3341 2797 3341 1997 
z
" transform="scale(0.015625)"/>
       <path id="DejaVuSans-69" d="M 603 3500 
L 1178 3500 
L 1178 0 
L 603 0 
L 603 3500 
z
M 603 4863 
L 1178 4863 
L 1178 4134 
L 603 4134 
L 603 4863 
z
" transform="scale(0.015625)"/>
       <path id="DejaVuSans-73" d="M 2834 3397 
L 2834 2853 
Q 2591 2978 2328 3040 
Q 2066 3103 1784 3103 
Q 1356 3103 1142 2972 
Q 928 2841 928 2578 
Q 928 2378 1081 2264 
Q 1234 2150 1697 2047 
L 1894 2003 
Q 2506 1872 2764 1633 
Q 3022 1394 3022 966 
Q 3022 478 2636 193 
Q 2250 -91 1575 -91 
Q 1294 -91 989 -36 
Q 684 19 347 128 
L 347 722 
Q 666 556 975 473 
Q 1284 391 1588 391 
Q 1994 391 2212 530 
Q 2431 669 2431 922 
Q 2431 1156 2273 1281 
Q 2116 1406 1581 1522 
L 1381 1569 
Q 847 1681 609 1914 
Q 372 2147 372 2553 
Q 372 3047 722 3315 
Q 1072 3584 1716 3584 
Q 2034 3584 2315 3537 
Q 2597 3491 2834 3397 
z
" transform="scale(0.015625)"/>
      </defs>
      <use xlink:href="#DejaVuSans-46"/>
      <use xlink:href="#DejaVuSans-6f" x="53.894531"/>
      <use xlink:href="#DejaVuSans-72" x="115.076172"/>
      <use xlink:href="#DejaVuSans-63" x="153.939453"/>
      <use xlink:href="#DejaVuSans-65" x="208.919922"/>
      <use xlink:href="#DejaVuSans-20" x="270.443359"/>
      <use xlink:href="#DejaVuSans-55" x="302.230469"/>
      <use xlink:href="#DejaVuSans-6e" x="375.423828"/>
      <use xlink:href="#DejaVuSans-63" x="438.802734"/>
      <use xlink:href="#DejaVuSans-65" x="493.783203"/>
      <use xlink:href="#DejaVuSans-72" x="555.306641"/>
      <use xlink:href="#DejaVuSans-74" x="596.419922"/>
      <use xlink:href="#DejaVuSans-61" x="635.628906"/>
      <use xlink:href="#DejaVuSans-69" x="696.908203"/>
      <use xlink:href="#DejaVuSans-6e" x="724.691406"/>
      <use xlink:href="#DejaVuSans-74" x="788.070312"/>
      <use xlink:href="#DejaVuSans-69" x="827.279297"/>
      <use xlink:href="#DejaVuSans-65" x="855.0625"/>
      <use xlink:href="#DejaVuSans-73" x="916.585938"/>
     </g>
    </g>
   </g>
   <g id="matplotlib.axis_2">
    <g id="ytick_1">
     <g id="line2d_8">
      <defs>
       <path id="mec3c14d6a0" d="M 0 0 
L -3.5 0 
" style="stroke: #000000; stroke-width: 0.8"/>
      </defs>
      <g>
       <use xlink:href="#mec3c14d6a0" x="83.72" y="496.866434" style="stroke: #000000; stroke-width: 0.8"/>
      </g>
     </g>
     <g id="text_9">
      <!-- 0 -->
      <g transform="translate(62.7225 505.224715) scale(0.22 -0.22)">
       <use xlink:href="#DejaVuSans-30"/>
      </g>
     </g>
    </g>
    <g id="ytick_2">
     <g id="line2d_9">
      <g>
       <use xlink:href="#mec3c14d6a0" x="83.72" y="427.749964" style="stroke: #000000; stroke-width: 0.8"/>
      </g>
     </g>
     <g id="text_10">
      <!-- 10 -->
      <g transform="translate(48.725 436.108245) scale(0.22 -0.22)">
       <use xlink:href="#DejaVuSans-31"/>
       <use xlink:href="#DejaVuSans-30" x="63.623047"/>
      </g>
     </g>
    </g>
    <g id="ytick_3">
     <g id="line2d_10">
      <g>
       <use xlink:href="#mec3c14d6a0" x="83.72" y="358.633494" style="stroke: #000000; stroke-width: 0.8"/>
      </g>
     </g>
     <g id="text_11">
      <!-- 20 -->
      <g transform="translate(48.725 366.991775) scale(0.22 -0.22)">
       <use xlink:href="#DejaVuSans-32"/>
       <use xlink:href="#DejaVuSans-30" x="63.623047"/>
      </g>
     </g>
    </g>
    <g id="ytick_4">
     <g id="line2d_11">
      <g>
       <use xlink:href="#mec3c14d6a0" x="83.72" y="289.517024" style="stroke: #000000; stroke-width: 0.8"/>
      </g>
     </g>
     <g id="text_12">
      <!-- 30 -->
      <g transform="translate(48.725 297.875305) scale(0.22 -0.22)">
       <use xlink:href="#DejaVuSans-33"/>
       <use xlink:href="#DejaVuSans-30" x="63.623047"/>
      </g>
     </g>
    </g>
    <g id="ytick_5">
     <g id="line2d_12">
      <g>
       <use xlink:href="#mec3c14d6a0" x="83.72" y="220.400554" style="stroke: #000000; stroke-width: 0.8"/>
      </g>
     </g>
     <g id="text_13">
      <!-- 40 -->
      <g transform="translate(48.725 228.758836) scale(0.22 -0.22)">
       <use xlink:href="#DejaVuSans-34"/>
       <use xlink:href="#DejaVuSans-30" x="63.623047"/>
      </g>
     </g>
    </g>
    <g id="ytick_6">
     <g id="line2d_13">
      <g>
       <use xlink:href="#mec3c14d6a0" x="83.72" y="151.284084" style="stroke: #000000; stroke-width: 0.8"/>
      </g>
     </g>
     <g id="text_14">
      <!-- 50 -->
      <g transform="translate(48.725 159.642366) scale(0.22 -0.22)">
       <use xlink:href="#DejaVuSans-35"/>
       <use xlink:href="#DejaVuSans-30" x="63.623047"/>
      </g>
     </g>
    </g>
    <g id="ytick_7">
     <g id="line2d_14">
      <g>
       <use xlink:href="#mec3c14d6a0" x="83.72" y="82.167615" style="stroke: #000000; stroke-width: 0.8"/>
      </g>
     </g>
     <g id="text_15">
      <!-- 60 -->
      <g transform="translate(48.725 90.525896) scale(0.22 -0.22)">
       <use xlink:href="#DejaVuSans-36"/>
       <use xlink:href="#DejaVuSans-30" x="63.623047"/>
      </g>
     </g>
    </g>
    <g id="text_16">
     <!-- Force Errors [kJ/(mol*A)] -->
     <g transform="translate(40.149688 394.9125) rotate(-90) scale(0.22 -0.22)">
      <defs>
       <path id="DejaVuSans-45" d="M 628 4666 
L 3578 4666 
L 3578 4134 
L 1259 4134 
L 1259 2753 
L 3481 2753 
L 3481 2222 
L 1259 2222 
L 1259 531 
L 3634 531 
L 3634 0 
L 628 0 
L 628 4666 
z
" transform="scale(0.015625)"/>
       <path id="DejaVuSans-5b" d="M 550 4863 
L 1875 4863 
L 1875 4416 
L 1125 4416 
L 1125 -397 
L 1875 -397 
L 1875 -844 
L 550 -844 
L 550 4863 
z
" transform="scale(0.015625)"/>
       <path id="DejaVuSans-6b" d="M 581 4863 
L 1159 4863 
L 1159 1991 
L 2875 3500 
L 3609 3500 
L 1753 1863 
L 3688 0 
L 2938 0 
L 1159 1709 
L 1159 0 
L 581 0 
L 581 4863 
z
" transform="scale(0.015625)"/>
       <path id="DejaVuSans-4a" d="M 628 4666 
L 1259 4666 
L 1259 325 
Q 1259 -519 939 -900 
Q 619 -1281 -91 -1281 
L -331 -1281 
L -331 -750 
L -134 -750 
Q 284 -750 456 -515 
Q 628 -281 628 325 
L 628 4666 
z
" transform="scale(0.015625)"/>
       <path id="DejaVuSans-2f" d="M 1625 4666 
L 2156 4666 
L 531 -594 
L 0 -594 
L 1625 4666 
z
" transform="scale(0.015625)"/>
       <path id="DejaVuSans-28" d="M 1984 4856 
Q 1566 4138 1362 3434 
Q 1159 2731 1159 2009 
Q 1159 1288 1364 580 
Q 1569 -128 1984 -844 
L 1484 -844 
Q 1016 -109 783 600 
Q 550 1309 550 2009 
Q 550 2706 781 3412 
Q 1013 4119 1484 4856 
L 1984 4856 
z
" transform="scale(0.015625)"/>
       <path id="DejaVuSans-6d" d="M 3328 2828 
Q 3544 3216 3844 3400 
Q 4144 3584 4550 3584 
Q 5097 3584 5394 3201 
Q 5691 2819 5691 2113 
L 5691 0 
L 5113 0 
L 5113 2094 
Q 5113 2597 4934 2840 
Q 4756 3084 4391 3084 
Q 3944 3084 3684 2787 
Q 3425 2491 3425 1978 
L 3425 0 
L 2847 0 
L 2847 2094 
Q 2847 2600 2669 2842 
Q 2491 3084 2119 3084 
Q 1678 3084 1418 2786 
Q 1159 2488 1159 1978 
L 1159 0 
L 581 0 
L 581 3500 
L 1159 3500 
L 1159 2956 
Q 1356 3278 1631 3431 
Q 1906 3584 2284 3584 
Q 2666 3584 2933 3390 
Q 3200 3197 3328 2828 
z
" transform="scale(0.015625)"/>
       <path id="DejaVuSans-6c" d="M 603 4863 
L 1178 4863 
L 1178 0 
L 603 0 
L 603 4863 
z
" transform="scale(0.015625)"/>
       <path id="DejaVuSans-2a" d="M 3009 3897 
L 1888 3291 
L 3009 2681 
L 2828 2375 
L 1778 3009 
L 1778 1831 
L 1422 1831 
L 1422 3009 
L 372 2375 
L 191 2681 
L 1313 3291 
L 191 3897 
L 372 4206 
L 1422 3572 
L 1422 4750 
L 1778 4750 
L 1778 3572 
L 2828 4206 
L 3009 3897 
z
" transform="scale(0.015625)"/>
       <path id="DejaVuSans-41" d="M 2188 4044 
L 1331 1722 
L 3047 1722 
L 2188 4044 
z
M 1831 4666 
L 2547 4666 
L 4325 0 
L 3669 0 
L 3244 1197 
L 1141 1197 
L 716 0 
L 50 0 
L 1831 4666 
z
" transform="scale(0.015625)"/>
       <path id="DejaVuSans-29" d="M 513 4856 
L 1013 4856 
Q 1481 4119 1714 3412 
Q 1947 2706 1947 2009 
Q 1947 1309 1714 600 
Q 1481 -109 1013 -844 
L 513 -844 
Q 928 -128 1133 580 
Q 1338 1288 1338 2009 
Q 1338 2731 1133 3434 
Q 928 4138 513 4856 
z
" transform="scale(0.015625)"/>
       <path id="DejaVuSans-5d" d="M 1947 4863 
L 1947 -844 
L 622 -844 
L 622 -397 
L 1369 -397 
L 1369 4416 
L 622 4416 
L 622 4863 
L 1947 4863 
z
" transform="scale(0.015625)"/>
      </defs>
      <use xlink:href="#DejaVuSans-46"/>
      <use xlink:href="#DejaVuSans-6f" x="53.894531"/>
      <use xlink:href="#DejaVuSans-72" x="115.076172"/>
      <use xlink:href="#DejaVuSans-63" x="153.939453"/>
      <use xlink:href="#DejaVuSans-65" x="208.919922"/>
      <use xlink:href="#DejaVuSans-20" x="270.443359"/>
      <use xlink:href="#DejaVuSans-45" x="302.230469"/>
      <use xlink:href="#DejaVuSans-72" x="365.414062"/>
      <use xlink:href="#DejaVuSans-72" x="404.777344"/>
      <use xlink:href="#DejaVuSans-6f" x="443.640625"/>
      <use xlink:href="#DejaVuSans-72" x="504.822266"/>
      <use xlink:href="#DejaVuSans-73" x="545.935547"/>
      <use xlink:href="#DejaVuSans-20" x="598.035156"/>
      <use xlink:href="#DejaVuSans-5b" x="629.822266"/>
      <use xlink:href="#DejaVuSans-6b" x="668.835938"/>
      <use xlink:href="#DejaVuSans-4a" x="726.746094"/>
      <use xlink:href="#DejaVuSans-2f" x="756.238281"/>
      <use xlink:href="#DejaVuSans-28" x="789.929688"/>
      <use xlink:href="#DejaVuSans-6d" x="828.943359"/>
      <use xlink:href="#DejaVuSans-6f" x="926.355469"/>
      <use xlink:href="#DejaVuSans-6c" x="987.537109"/>
      <use xlink:href="#DejaVuSans-2a" x="1015.320312"/>
      <use xlink:href="#DejaVuSans-41" x="1065.320312"/>
      <use xlink:href="#DejaVuSans-29" x="1133.728516"/>
      <use xlink:href="#DejaVuSans-5d" x="1172.742188"/>
     </g>
    </g>
   </g>
   <g id="line2d_15">
    <path d="M 83.72 499.48 
L 696.24 23.76 
" clip-path="url(#pd9d4a6ad3d)" style="fill: none; stroke-dasharray: 5.55,2.4; stroke-dashoffset: 0; stroke: #ff0000; stroke-width: 1.5"/>
   </g>
   <g id="patch_3">
    <path d="M 83.72 499.48 
L 83.72 23.76 
" style="fill: none; stroke: #000000; stroke-width: 0.8; stroke-linejoin: miter; stroke-linecap: square"/>
   </g>
   <g id="patch_4">
    <path d="M 696.24 499.48 
L 696.24 23.76 
" style="fill: none; stroke: #000000; stroke-width: 0.8; stroke-linejoin: miter; stroke-linecap: square"/>
   </g>
   <g id="patch_5">
    <path d="M 83.72 499.48 
L 696.24 499.48 
" style="fill: none; stroke: #000000; stroke-width: 0.8; stroke-linejoin: miter; stroke-linecap: square"/>
   </g>
   <g id="patch_6">
    <path d="M 83.72 23.76 
L 696.24 23.76 
" style="fill: none; stroke: #000000; stroke-width: 0.8; stroke-linejoin: miter; stroke-linecap: square"/>
   </g>
   <g id="text_17">
    <!-- Correlation in: 0.941 -->
    <g transform="translate(144.972 71.332) scale(0.22 -0.22)">
     <defs>
      <path id="DejaVuSans-43" d="M 4122 4306 
L 4122 3641 
Q 3803 3938 3442 4084 
Q 3081 4231 2675 4231 
Q 1875 4231 1450 3742 
Q 1025 3253 1025 2328 
Q 1025 1406 1450 917 
Q 1875 428 2675 428 
Q 3081 428 3442 575 
Q 3803 722 4122 1019 
L 4122 359 
Q 3791 134 3420 21 
Q 3050 -91 2638 -91 
Q 1578 -91 968 557 
Q 359 1206 359 2328 
Q 359 3453 968 4101 
Q 1578 4750 2638 4750 
Q 3056 4750 3426 4639 
Q 3797 4528 4122 4306 
z
" transform="scale(0.015625)"/>
      <path id="DejaVuSans-3a" d="M 750 794 
L 1409 794 
L 1409 0 
L 750 0 
L 750 794 
z
M 750 3309 
L 1409 3309 
L 1409 2516 
L 750 2516 
L 750 3309 
z
" transform="scale(0.015625)"/>
      <path id="DejaVuSans-2e" d="M 684 794 
L 1344 794 
L 1344 0 
L 684 0 
L 684 794 
z
" transform="scale(0.015625)"/>
      <path id="DejaVuSans-39" d="M 703 97 
L 703 672 
Q 941 559 1184 500 
Q 1428 441 1663 441 
Q 2288 441 2617 861 
Q 2947 1281 2994 2138 
Q 2813 1869 2534 1725 
Q 2256 1581 1919 1581 
Q 1219 1581 811 2004 
Q 403 2428 403 3163 
Q 403 3881 828 4315 
Q 1253 4750 1959 4750 
Q 2769 4750 3195 4129 
Q 3622 3509 3622 2328 
Q 3622 1225 3098 567 
Q 2575 -91 1691 -91 
Q 1453 -91 1209 -44 
Q 966 3 703 97 
z
M 1959 2075 
Q 2384 2075 2632 2365 
Q 2881 2656 2881 3163 
Q 2881 3666 2632 3958 
Q 2384 4250 1959 4250 
Q 1534 4250 1286 3958 
Q 1038 3666 1038 3163 
Q 1038 2656 1286 2365 
Q 1534 2075 1959 2075 
z
" transform="scale(0.015625)"/>
     </defs>
     <use xlink:href="#DejaVuSans-43"/>
     <use xlink:href="#DejaVuSans-6f" x="69.824219"/>
     <use xlink:href="#DejaVuSans-72" x="131.005859"/>
     <use xlink:href="#DejaVuSans-72" x="170.369141"/>
     <use xlink:href="#DejaVuSans-65" x="209.232422"/>
     <use xlink:href="#DejaVuSans-6c" x="270.755859"/>
     <use xlink:href="#DejaVuSans-61" x="298.539062"/>
     <use xlink:href="#DejaVuSans-74" x="359.818359"/>
     <use xlink:href="#DejaVuSans-69" x="399.027344"/>
     <use xlink:href="#DejaVuSans-6f" x="426.810547"/>
     <use xlink:href="#DejaVuSans-6e" x="487.992188"/>
     <use xlink:href="#DejaVuSans-20" x="551.371094"/>
     <use xlink:href="#DejaVuSans-69" x="583.158203"/>
     <use xlink:href="#DejaVuSans-6e" x="610.941406"/>
     <use xlink:href="#DejaVuSans-3a" x="674.320312"/>
     <use xlink:href="#DejaVuSans-20" x="708.011719"/>
     <use xlink:href="#DejaVuSans-30" x="739.798828"/>
     <use xlink:href="#DejaVuSans-2e" x="803.421875"/>
     <use xlink:href="#DejaVuSans-39" x="835.208984"/>
     <use xlink:href="#DejaVuSans-34" x="898.832031"/>
     <use xlink:href="#DejaVuSans-31" x="962.455078"/>
    </g>
   </g>
  </g>
 </g>
 <defs>
  <clipPath id="pd9d4a6ad3d">
   <rect x="83.72" y="23.76" width="612.52" height="475.72"/>
  </clipPath>
 </defs>
</svg>
