<?xml version="1.0" encoding="utf-8" standalone="no"?>
<!DOCTYPE svg PUBLIC "-//W3C//DTD SVG 1.1//EN"
  "http://www.w3.org/Graphics/SVG/1.1/DTD/svg11.dtd">
<svg xmlns:xlink="http://www.w3.org/1999/xlink" width="720pt" height="576pt" viewBox="0 0 720 576" xmlns="http://www.w3.org/2000/svg" version="1.1">
 <metadata>
  <rdf:RDF xmlns:dc="http://purl.org/dc/elements/1.1/" xmlns:cc="http://creativecommons.org/ns#" xmlns:rdf="http://www.w3.org/1999/02/22-rdf-syntax-ns#">
   <cc:Work>
    <dc:type rdf:resource="http://purl.org/dc/dcmitype/StillImage"/>
    <dc:date>2024-12-07T15:43:53.229635</dc:date>
    <dc:format>image/svg+xml</dc:format>
    <dc:creator>
     <cc:Agent>
      <dc:title>Matplotlib v3.8.4, https://matplotlib.org/</dc:title>
     </cc:Agent>
    </dc:creator>
   </cc:Work>
  </rdf:RDF>
 </metadata>
 <defs>
  <style type="text/css">*{stroke-linejoin: round; stroke-linecap: butt}</style>
 </defs>
 <g id="figure_1">
  <g id="patch_1">
   <path d="M 0 576 
L 720 576 
L 720 0 
L 0 0 
z
" style="fill: #ffffff"/>
  </g>
  <g id="axes_1">
   <g id="patch_2">
    <path d="M 102.17 499.48 
L 682.2 499.48 
L 682.2 32.04 
L 102.17 32.04 
z
" style="fill: #ffffff"/>
   </g>
   <g id="QuadContourSet_1">
    <path d="M 222.773549 392.736796 
L 223.801383 392.042575 
L 222.773549 391.442539 
L 221.998042 392.042575 
z
M 232.378844 387.993796 
L 237.274627 384.692294 
L 241.984139 382.433234 
L 249.522901 377.342013 
L 251.589435 376.333259 
L 260.94192 369.991733 
L 261.19473 369.865745 
L 270.800025 364.424264 
L 273.141916 362.641452 
L 280.40532 358.569677 
L 284.713615 355.291171 
L 290.010616 352.241985 
L 295.663594 347.94089 
L 299.615911 345.606465 
L 306.207746 340.59061 
L 309.221206 338.763802 
L 316.478013 333.240329 
L 318.826502 331.777461 
L 326.558142 325.890048 
L 328.431797 324.688887 
L 336.503364 318.539767 
L 338.037092 317.526047 
L 346.351297 311.189486 
L 347.642387 310.308293 
L 356.12804 303.839206 
L 357.247683 303.049155 
L 365.851664 296.488925 
L 366.852978 295.757962 
L 375.534308 289.138644 
L 376.458273 288.440797 
L 385.183488 281.788363 
L 386.063569 281.101041 
L 394.802983 274.438082 
L 395.668864 273.739695 
L 404.393428 267.087802 
L 405.274159 266.355538 
L 413.952682 259.737521 
L 414.879454 258.945179 
L 423.475879 252.38724 
L 424.48475 251.502869 
L 432.954981 245.036959 
L 434.090045 244.019863 
L 442.37754 237.686679 
L 443.69534 236.482965 
L 451.724466 230.336398 
L 453.300636 228.871945 
L 460.966907 222.986117 
L 462.905931 221.155877 
L 470.062934 215.635836 
L 472.511226 213.289166 
L 478.955265 208.285555 
L 482.116521 205.208874 
L 487.571449 200.935275 
L 491.721817 196.835788 
L 495.827438 193.584994 
L 501.327112 188.081851 
L 503.634525 186.234713 
L 510.927641 178.884432 
L 510.932407 178.879643 
L 519.95372 171.534152 
L 520.537703 170.949208 
L 528.859184 164.183871 
L 530.142998 162.907292 
L 537.635084 156.83359 
L 539.748293 154.754017 
L 546.27433 149.483309 
L 549.353588 146.489209 
L 554.768474 142.133028 
L 558.958884 138.105341 
L 563.102308 134.782748 
L 558.958884 129.260229 
L 550.748421 134.782748 
L 549.353588 135.501914 
L 539.748293 142.104547 
L 539.710944 142.133028 
L 530.142998 148.683626 
L 529.095047 149.483309 
L 520.537703 155.302369 
L 518.531798 156.83359 
L 510.932407 161.969763 
L 508.031701 164.183871 
L 501.327112 168.69892 
L 497.61108 171.534152 
L 491.721817 175.498304 
L 487.281145 178.884432 
L 482.116521 182.370372 
L 477.04618 186.234713 
L 472.511226 189.313879 
L 466.906042 193.584994 
L 462.905931 196.326309 
L 456.858703 200.935275 
L 453.300636 203.405069 
L 446.901339 208.285555 
L 443.69534 210.547703 
L 437.030481 215.635836 
L 434.090045 217.751859 
L 427.242154 222.986117 
L 424.48475 225.015491 
L 417.532471 230.336398 
L 414.879454 232.337376 
L 407.898643 237.686679 
L 405.274159 239.717852 
L 398.340164 245.036959 
L 395.668864 247.159701 
L 388.860059 252.38724 
L 386.063569 254.669157 
L 379.46619 259.737521 
L 376.458273 262.25712 
L 370.172765 267.087802 
L 366.852978 269.940704 
L 361.002263 274.438082 
L 357.247683 277.745323 
L 351.98808 281.788363 
L 347.642387 285.707652 
L 343.178362 289.138644 
L 338.037092 293.880066 
L 334.641807 296.488925 
L 328.431797 302.337619 
L 326.476824 303.839206 
L 318.826502 311.189486 
L 318.826502 311.189486 
L 309.341121 318.539767 
L 309.221206 318.649526 
L 299.876174 325.890048 
L 299.615911 326.135005 
L 290.444741 333.240329 
L 290.010616 333.660306 
L 281.065429 340.59061 
L 280.40532 341.246419 
L 271.765095 347.94089 
L 270.800025 348.9241 
L 262.582977 355.291171 
L 261.19473 356.738717 
L 253.577094 362.641452 
L 251.589435 364.758138 
L 244.834665 369.991733 
L 241.984139 373.086455 
L 236.490177 377.342013 
L 232.378844 381.889359 
L 228.758543 384.692294 
z
M 258.491664 362.641452 
L 261.19473 360.546907 
L 264.953612 362.641452 
L 261.19473 365.204942 
z
M 266.235162 355.291171 
L 270.800025 351.754036 
L 274.542821 347.94089 
L 280.40532 343.398609 
L 283.231728 340.59061 
L 290.010616 335.338651 
L 292.179627 333.240329 
L 299.615911 327.4791 
L 301.304252 325.890048 
L 309.221206 319.755999 
L 310.549982 318.539767 
L 318.826502 312.12624 
L 319.879031 311.189486 
L 328.431797 304.560749 
L 329.265587 303.839206 
L 338.037092 297.039921 
L 338.69194 296.488925 
L 347.642387 289.550577 
L 348.145932 289.138644 
L 357.247683 282.083958 
L 357.619339 281.788363 
L 366.852978 274.634451 
L 367.106912 274.438082 
L 376.458273 267.198854 
L 376.605937 267.087802 
L 386.063569 259.776042 
L 386.11621 259.737521 
L 395.469527 252.38724 
L 395.668864 252.234197 
L 404.726008 245.036959 
L 405.274159 244.616469 
L 414.228156 237.686679 
L 414.879454 237.187597 
L 423.963185 230.336398 
L 424.48475 229.93722 
L 433.929531 222.986117 
L 434.090045 222.863426 
L 443.69534 215.71092 
L 443.814582 215.635836 
L 453.300636 208.527889 
L 453.694912 208.285555 
L 462.905931 201.432848 
L 463.735186 200.935275 
L 472.511226 194.454706 
L 473.994944 193.584994 
L 482.116521 187.634097 
L 484.556753 186.234713 
L 491.721817 181.027011 
L 495.532466 178.884432 
L 501.327112 174.70793 
L 506.012345 178.884432 
L 501.327112 182.69995 
L 497.802672 186.234713 
L 491.721817 191.182267 
L 489.309784 193.584994 
L 482.116521 199.428648 
L 480.586997 200.935275 
L 472.511226 207.484587 
L 471.686086 208.285555 
L 462.905931 215.394595 
L 462.65315 215.635836 
L 454.224386 222.986117 
L 453.300636 223.695333 
L 446.152955 230.336398 
L 443.69534 232.217785 
L 437.708111 237.686679 
L 434.090045 240.451552 
L 428.972802 245.036959 
L 424.48475 248.462998 
L 420.008064 252.38724 
L 414.879454 256.299693 
L 410.858354 259.737521 
L 405.274159 263.995884 
L 401.55535 267.087802 
L 395.668864 271.575851 
L 392.120188 274.438082 
L 386.063569 279.05567 
L 382.564494 281.788363 
L 376.458273 286.443977 
L 372.890473 289.138644 
L 366.852978 293.742098 
L 363.09022 296.488925 
L 357.247683 300.943652 
L 353.144165 303.839206 
L 347.642387 308.033518 
L 343.018384 311.189486 
L 338.037092 314.985912 
L 332.660216 318.539767 
L 328.431797 321.761081 
L 321.991145 325.890048 
L 318.826502 328.29983 
L 310.89502 333.240329 
L 309.221206 334.514342 
L 299.615911 340.489762 
L 299.436306 340.59061 
L 290.010616 347.156152 
L 288.564657 347.94089 
L 280.40532 353.582834 
L 277.155738 355.291171 
L 270.800025 359.65484 
z
M 507.069059 171.534152 
L 510.932407 168.773149 
L 513.888403 171.534152 
L 510.932407 173.941034 
z
M 519.35656 164.183871 
L 520.537703 163.346754 
L 521.386459 164.183871 
L 520.537703 164.873907 
z
M 568.564179 129.576887 
L 571.243211 127.432467 
L 568.564179 123.562285 
L 562.596352 127.432467 
z
M 578.169474 120.845095 
L 579.122656 120.082186 
L 578.169474 118.611556 
L 575.770047 120.082186 
z
" clip-path="url(#pf76875a1fc)" style="fill: #eff6fc"/>
    <path d="M 261.19473 365.204942 
L 264.953612 362.641452 
L 261.19473 360.546907 
L 258.491664 362.641452 
z
M 270.800025 359.65484 
L 277.155738 355.291171 
L 280.40532 353.582834 
L 288.564657 347.94089 
L 290.010616 347.156152 
L 299.436306 340.59061 
L 299.615911 340.489762 
L 309.221206 334.514342 
L 310.89502 333.240329 
L 318.826502 328.29983 
L 321.991145 325.890048 
L 328.431797 321.761081 
L 332.660216 318.539767 
L 338.037092 314.985912 
L 343.018384 311.189486 
L 347.642387 308.033518 
L 353.144165 303.839206 
L 357.247683 300.943652 
L 363.09022 296.488925 
L 366.852978 293.742098 
L 372.890473 289.138644 
L 376.458273 286.443977 
L 382.564494 281.788363 
L 386.063569 279.05567 
L 392.120188 274.438082 
L 395.668864 271.575851 
L 401.55535 267.087802 
L 405.274159 263.995884 
L 410.858354 259.737521 
L 414.879454 256.299693 
L 420.008064 252.38724 
L 424.48475 248.462998 
L 428.972802 245.036959 
L 434.090045 240.451552 
L 437.708111 237.686679 
L 443.69534 232.217785 
L 446.152955 230.336398 
L 453.300636 223.695333 
L 454.224386 222.986117 
L 462.65315 215.635836 
L 462.905931 215.394595 
L 471.686086 208.285555 
L 472.511226 207.484587 
L 480.586997 200.935275 
L 482.116521 199.428648 
L 489.309784 193.584994 
L 491.721817 191.182267 
L 497.802672 186.234713 
L 501.327112 182.69995 
L 506.012345 178.884432 
L 501.327112 174.70793 
L 495.532466 178.884432 
L 491.721817 181.027011 
L 484.556753 186.234713 
L 482.116521 187.634097 
L 473.994944 193.584994 
L 472.511226 194.454706 
L 463.735186 200.935275 
L 462.905931 201.432848 
L 453.694912 208.285555 
L 453.300636 208.527889 
L 443.814582 215.635836 
L 443.69534 215.71092 
L 434.090045 222.863426 
L 433.929531 222.986117 
L 424.48475 229.93722 
L 423.963185 230.336398 
L 414.879454 237.187597 
L 414.228156 237.686679 
L 405.274159 244.616469 
L 404.726008 245.036959 
L 395.668864 252.234197 
L 395.469527 252.38724 
L 386.11621 259.737521 
L 386.063569 259.776042 
L 376.605937 267.087802 
L 376.458273 267.198854 
L 367.106912 274.438082 
L 366.852978 274.634451 
L 357.619339 281.788363 
L 357.247683 282.083958 
L 348.145932 289.138644 
L 347.642387 289.550577 
L 338.69194 296.488925 
L 338.037092 297.039921 
L 329.265587 303.839206 
L 328.431797 304.560749 
L 319.879031 311.189486 
L 318.826502 312.12624 
L 310.549982 318.539767 
L 309.221206 319.755999 
L 301.304252 325.890048 
L 299.615911 327.4791 
L 292.179627 333.240329 
L 290.010616 335.338651 
L 283.231728 340.59061 
L 280.40532 343.398609 
L 274.542821 347.94089 
L 270.800025 351.754036 
L 266.235162 355.291171 
z
M 278.014698 347.94089 
L 280.40532 346.088629 
L 283.732552 347.94089 
L 280.40532 350.241574 
z
M 285.939382 340.59061 
L 290.010616 337.436412 
L 294.348058 333.240329 
L 299.615911 329.159083 
L 303.089205 325.890048 
L 309.221206 321.138979 
L 312.060936 318.539767 
L 318.826502 313.297088 
L 321.194586 311.189486 
L 328.431797 305.580357 
L 330.443811 303.839206 
L 338.037092 297.953228 
L 339.777387 296.488925 
L 347.642387 290.392011 
L 349.174495 289.138644 
L 357.247683 282.881188 
L 358.62171 281.788363 
L 366.852978 275.411054 
L 368.111178 274.438082 
L 376.458273 267.976293 
L 377.639674 267.087802 
L 386.063569 260.575231 
L 387.20835 259.737521 
L 395.668864 253.209578 
L 396.823004 252.38724 
L 405.274159 245.884477 
L 406.494774 245.036959 
L 414.879454 238.608761 
L 416.241135 237.686679 
L 424.48475 231.395346 
L 426.087241 230.336398 
L 434.090045 224.261907 
L 436.067858 222.986117 
L 443.69534 217.232143 
L 446.230456 215.635836 
L 453.300636 210.338115 
L 456.640148 208.285555 
L 462.905931 203.624011 
L 467.386971 200.935275 
L 472.511226 197.151326 
L 477.226599 200.935275 
L 472.511226 204.759362 
L 468.878619 208.285555 
L 462.905931 213.12147 
L 460.271285 215.635836 
L 453.300636 221.271497 
L 451.470396 222.986117 
L 443.69534 229.262637 
L 442.526361 230.336398 
L 434.090045 237.133476 
L 433.474993 237.686679 
L 424.48475 244.909166 
L 424.339394 245.036959 
L 415.673645 252.38724 
L 414.879454 252.993103 
L 406.990757 259.737521 
L 405.274159 261.046555 
L 398.008038 267.087802 
L 395.668864 268.871264 
L 388.766966 274.438082 
L 386.063569 276.499162 
L 379.291016 281.788363 
L 376.458273 283.948153 
L 369.585947 289.138644 
L 366.852978 291.222471 
L 359.638693 296.488925 
L 357.247683 298.311985 
L 349.414622 303.839206 
L 347.642387 305.190279 
L 338.852579 311.189486 
L 338.037092 311.810999 
L 328.431797 318.383202 
L 328.181647 318.539767 
L 318.826502 325.224776 
L 317.723646 325.890048 
L 309.221206 331.90862 
L 306.93201 333.240329 
L 299.615911 338.375817 
L 295.671454 340.59061 
L 290.010616 344.533713 
z
M 478.595344 193.584994 
L 482.116521 191.004933 
L 485.23522 193.584994 
L 482.116521 196.118558 
z
M 490.434785 186.234713 
L 491.721817 185.299275 
L 492.814096 186.234713 
L 491.721817 187.123422 
z
M 510.932407 173.941034 
L 513.888403 171.534152 
L 510.932407 168.773149 
L 507.069059 171.534152 
z
M 520.537703 164.873907 
L 521.386459 164.183871 
L 520.537703 163.346754 
L 519.35656 164.183871 
z
" clip-path="url(#pf76875a1fc)" style="fill: #deebf7"/>
    <path d="M 280.40532 350.241574 
L 283.732552 347.94089 
L 280.40532 346.088629 
L 278.014698 347.94089 
z
M 290.010616 344.533713 
L 295.671454 340.59061 
L 299.615911 338.375817 
L 306.93201 333.240329 
L 309.221206 331.90862 
L 317.723646 325.890048 
L 318.826502 325.224776 
L 328.181647 318.539767 
L 328.431797 318.383202 
L 338.037092 311.810999 
L 338.852579 311.189486 
L 347.642387 305.190279 
L 349.414622 303.839206 
L 357.247683 298.311985 
L 359.638693 296.488925 
L 366.852978 291.222471 
L 369.585947 289.138644 
L 376.458273 283.948153 
L 379.291016 281.788363 
L 386.063569 276.499162 
L 388.766966 274.438082 
L 395.668864 268.871264 
L 398.008038 267.087802 
L 405.274159 261.046555 
L 406.990757 259.737521 
L 414.879454 252.993103 
L 415.673645 252.38724 
L 424.339394 245.036959 
L 424.48475 244.909166 
L 433.474993 237.686679 
L 434.090045 237.133476 
L 442.526361 230.336398 
L 443.69534 229.262637 
L 451.470396 222.986117 
L 453.300636 221.271497 
L 460.271285 215.635836 
L 462.905931 213.12147 
L 468.878619 208.285555 
L 472.511226 204.759362 
L 477.226599 200.935275 
L 472.511226 197.151326 
L 467.386971 200.935275 
L 462.905931 203.624011 
L 456.640148 208.285555 
L 453.300636 210.338115 
L 446.230456 215.635836 
L 443.69534 217.232143 
L 436.067858 222.986117 
L 434.090045 224.261907 
L 426.087241 230.336398 
L 424.48475 231.395346 
L 416.241135 237.686679 
L 414.879454 238.608761 
L 406.494774 245.036959 
L 405.274159 245.884477 
L 396.823004 252.38724 
L 395.668864 253.209578 
L 387.20835 259.737521 
L 386.063569 260.575231 
L 377.639674 267.087802 
L 376.458273 267.976293 
L 368.111178 274.438082 
L 366.852978 275.411054 
L 358.62171 281.788363 
L 357.247683 282.881188 
L 349.174495 289.138644 
L 347.642387 290.392011 
L 339.777387 296.488925 
L 338.037092 297.953228 
L 330.443811 303.839206 
L 328.431797 305.580357 
L 321.194586 311.189486 
L 318.826502 313.297088 
L 312.060936 318.539767 
L 309.221206 321.138979 
L 303.089205 325.890048 
L 299.615911 329.159083 
L 294.348058 333.240329 
L 290.010616 337.436412 
L 285.939382 340.59061 
z
M 288.122316 340.59061 
L 290.010616 339.127645 
L 292.636198 340.59061 
L 290.010616 342.41948 
z
M 296.096267 333.240329 
L 299.615911 330.5135 
L 304.504063 333.240329 
L 299.615911 336.671535 
z
M 304.52825 325.890048 
L 309.221206 322.25395 
L 313.279081 318.539767 
L 318.826502 314.241036 
L 322.255199 311.189486 
L 328.431797 306.402374 
L 331.393705 303.839206 
L 338.037092 298.689545 
L 340.652483 296.488925 
L 347.642387 291.070382 
L 350.003732 289.138644 
L 357.247683 283.523922 
L 359.429831 281.788363 
L 366.852978 276.037159 
L 368.920825 274.438082 
L 376.458273 268.60307 
L 378.473082 267.087802 
L 386.063569 261.219545 
L 388.088842 259.737521 
L 395.668864 253.888946 
L 397.776489 252.38724 
L 405.274159 246.618139 
L 407.551411 245.036959 
L 414.879454 239.418841 
L 417.437419 237.686679 
L 424.48475 232.308322 
L 427.468834 230.336398 
L 434.090045 225.310599 
L 437.693607 222.986117 
L 443.69534 218.458567 
L 448.178154 215.635836 
L 453.300636 211.797536 
L 458.351005 215.635836 
L 453.300636 219.718981 
L 449.813192 222.986117 
L 443.69534 227.924836 
L 441.069927 230.336398 
L 434.090045 235.960038 
L 432.170361 237.686679 
L 424.48475 243.861065 
L 423.147254 245.036959 
L 414.879454 251.650372 
L 414.020013 252.38724 
L 405.274159 259.340098 
L 404.797547 259.737521 
L 395.668864 266.935568 
L 395.48061 267.087802 
L 386.063569 274.438082 
L 386.063569 274.438082 
L 376.651909 281.788363 
L 376.458273 281.935999 
L 366.921809 289.138644 
L 366.852978 289.191126 
L 357.247683 296.372379 
L 357.081365 296.488925 
L 347.642387 303.479848 
L 347.109755 303.839206 
L 338.037092 310.471445 
L 336.931906 311.189486 
L 328.431797 317.328964 
L 326.497247 318.539767 
L 318.826502 324.021135 
L 315.728312 325.890048 
L 309.221206 330.496194 
z
M 459.014624 208.285555 
L 462.905931 205.390546 
L 466.615214 208.285555 
L 462.905931 211.288856 
z
M 470.331072 200.935275 
L 472.511226 199.325364 
L 474.517418 200.935275 
L 472.511226 202.562262 
z
M 482.116521 196.118558 
L 485.23522 193.584994 
L 482.116521 191.004933 
L 478.595344 193.584994 
z
M 491.721817 187.123422 
L 492.814096 186.234713 
L 491.721817 185.299275 
L 490.434785 186.234713 
z
" clip-path="url(#pf76875a1fc)" style="fill: #cddff1"/>
    <path d="M 290.010616 342.41948 
L 292.636198 340.59061 
L 290.010616 339.127645 
L 288.122316 340.59061 
z
M 299.615911 336.671535 
L 304.504063 333.240329 
L 299.615911 330.5135 
L 296.096267 333.240329 
z
M 309.221206 330.496194 
L 315.728312 325.890048 
L 318.826502 324.021135 
L 326.497247 318.539767 
L 328.431797 317.328964 
L 336.931906 311.189486 
L 338.037092 310.471445 
L 347.109755 303.839206 
L 347.642387 303.479848 
L 357.081365 296.488925 
L 357.247683 296.372379 
L 366.852978 289.191126 
L 366.921809 289.138644 
L 376.458273 281.935999 
L 376.651909 281.788363 
L 386.063569 274.438082 
L 386.063569 274.438082 
L 395.48061 267.087802 
L 395.668864 266.935568 
L 404.797547 259.737521 
L 405.274159 259.340098 
L 414.020013 252.38724 
L 414.879454 251.650372 
L 423.147254 245.036959 
L 424.48475 243.861065 
L 432.170361 237.686679 
L 434.090045 235.960038 
L 441.069927 230.336398 
L 443.69534 227.924836 
L 449.813192 222.986117 
L 453.300636 219.718981 
L 458.351005 215.635836 
L 453.300636 211.797536 
L 448.178154 215.635836 
L 443.69534 218.458567 
L 437.693607 222.986117 
L 434.090045 225.310599 
L 427.468834 230.336398 
L 424.48475 232.308322 
L 417.437419 237.686679 
L 414.879454 239.418841 
L 407.551411 245.036959 
L 405.274159 246.618139 
L 397.776489 252.38724 
L 395.668864 253.888946 
L 388.088842 259.737521 
L 386.063569 261.219545 
L 378.473082 267.087802 
L 376.458273 268.60307 
L 368.920825 274.438082 
L 366.852978 276.037159 
L 359.429831 281.788363 
L 357.247683 283.523922 
L 350.003732 289.138644 
L 347.642387 291.070382 
L 340.652483 296.488925 
L 338.037092 298.689545 
L 331.393705 303.839206 
L 328.431797 306.402374 
L 322.255199 311.189486 
L 318.826502 314.241036 
L 313.279081 318.539767 
L 309.221206 322.25395 
L 304.52825 325.890048 
z
M 308.312963 325.890048 
L 309.221206 325.186342 
L 310.480547 325.890048 
L 309.221206 326.78149 
z
M 316.482822 318.539767 
L 318.826502 316.723635 
L 322.067245 318.539767 
L 318.826502 320.855541 
z
M 325.044627 311.189486 
L 328.431797 308.564294 
L 333.093151 311.189486 
L 328.431797 314.5563 
z
M 333.891944 303.839206 
L 338.037092 300.626069 
L 342.954003 296.488925 
L 347.642387 292.85451 
L 352.184638 289.138644 
L 357.247683 285.214324 
L 361.555201 281.788363 
L 366.852978 277.683824 
L 371.050213 274.438082 
L 376.458273 270.251507 
L 380.66496 267.087802 
L 386.063569 262.914101 
L 390.404554 259.737521 
L 395.668864 255.675697 
L 400.284171 252.38724 
L 405.274159 248.547681 
L 410.330383 245.036959 
L 414.879454 241.549368 
L 420.011903 245.036959 
L 414.879454 249.142405 
L 411.094862 252.38724 
L 405.274159 257.014635 
L 402.008716 259.737521 
L 395.668864 264.736551 
L 392.761285 267.087802 
L 386.063569 272.315568 
L 383.349998 274.438082 
L 376.458273 279.753747 
L 373.763314 281.788363 
L 366.852978 287.048932 
L 363.981065 289.138644 
L 357.247683 294.194548 
L 353.973454 296.488925 
L 347.642387 301.177992 
L 343.697989 303.839206 
L 338.037092 307.977398 
z
M 420.583667 237.686679 
L 424.48475 234.709464 
L 428.739156 237.686679 
L 424.48475 241.104539 
z
M 431.102447 230.336398 
L 434.090045 228.068676 
L 437.239481 230.336398 
L 434.090045 232.873875 
z
M 441.969358 222.986117 
L 443.69534 221.684081 
L 445.454716 222.986117 
L 443.69534 224.406397 
z
M 462.905931 211.288856 
L 466.615214 208.285555 
L 462.905931 205.390546 
L 459.014624 208.285555 
z
M 472.511226 202.562262 
L 474.517418 200.935275 
L 472.511226 199.325364 
L 470.331072 200.935275 
z
" clip-path="url(#pf76875a1fc)" style="fill: #a3cce3"/>
    <path d="M 309.221206 326.78149 
L 310.480547 325.890048 
L 309.221206 325.186342 
L 308.312963 325.890048 
z
M 318.826502 320.855541 
L 322.067245 318.539767 
L 318.826502 316.723635 
L 316.482822 318.539767 
z
M 328.431797 314.5563 
L 333.093151 311.189486 
L 328.431797 308.564294 
L 325.044627 311.189486 
z
M 327.338127 311.189486 
L 328.431797 310.341848 
L 329.936883 311.189486 
L 328.431797 312.276584 
z
M 338.037092 307.977398 
L 343.697989 303.839206 
L 347.642387 301.177992 
L 353.973454 296.488925 
L 357.247683 294.194548 
L 363.981065 289.138644 
L 366.852978 287.048932 
L 373.763314 281.788363 
L 376.458273 279.753747 
L 383.349998 274.438082 
L 386.063569 272.315568 
L 392.761285 267.087802 
L 395.668864 264.736551 
L 402.008716 259.737521 
L 405.274159 257.014635 
L 411.094862 252.38724 
L 414.879454 249.142405 
L 420.011903 245.036959 
L 414.879454 241.549368 
L 410.330383 245.036959 
L 405.274159 248.547681 
L 400.284171 252.38724 
L 395.668864 255.675697 
L 390.404554 259.737521 
L 386.063569 262.914101 
L 380.66496 267.087802 
L 376.458273 270.251507 
L 371.050213 274.438082 
L 366.852978 277.683824 
L 361.555201 281.788363 
L 357.247683 285.214324 
L 352.184638 289.138644 
L 347.642387 292.85451 
L 342.954003 296.488925 
L 338.037092 300.626069 
L 333.891944 303.839206 
z
M 335.946024 303.839206 
L 338.037092 302.218302 
L 340.892797 303.839206 
L 338.037092 305.926765 
z
M 344.846339 296.488925 
L 347.642387 294.32144 
L 351.418096 296.488925 
L 347.642387 299.285381 
z
M 353.977804 289.138644 
L 357.247683 286.60419 
L 361.59632 289.138644 
L 357.247683 292.403911 
z
M 363.302705 281.788363 
L 366.852978 279.037731 
L 371.483899 281.788363 
L 366.852978 285.313702 
z
M 372.801019 274.438082 
L 376.458273 271.606869 
L 381.11887 274.438082 
L 376.458273 278.032853 
z
M 382.467146 267.087802 
L 386.063569 264.307383 
L 390.525425 267.087802 
L 386.063569 270.570413 
z
M 392.308558 259.737521 
L 395.668864 257.144784 
L 399.715709 259.737521 
L 395.668864 262.928494 
z
M 402.346015 252.38724 
L 405.274159 250.134172 
L 408.68977 252.38724 
L 405.274159 255.102613 
z
M 412.615285 245.036959 
L 414.879454 243.301111 
L 417.433983 245.036959 
L 414.879454 247.080327 
z
M 424.48475 241.104539 
L 428.739156 237.686679 
L 424.48475 234.709464 
L 420.583667 237.686679 
z
M 423.170546 237.686679 
L 424.48475 236.683709 
L 425.917981 237.686679 
L 424.48475 238.838093 
z
M 434.090045 232.873875 
L 437.239481 230.336398 
L 434.090045 228.068676 
L 431.102447 230.336398 
z
M 443.69534 224.406397 
L 445.454716 222.986117 
L 443.69534 221.684081 
L 441.969358 222.986117 
z
" clip-path="url(#pf76875a1fc)" style="fill: #5aa2cf"/>
    <path d="M 328.431797 312.276584 
L 329.936883 311.189486 
L 328.431797 310.341848 
L 327.338127 311.189486 
z
M 338.037092 305.926765 
L 340.892797 303.839206 
L 338.037092 302.218302 
L 335.946024 303.839206 
z
M 347.642387 299.285381 
L 351.418096 296.488925 
L 347.642387 294.32144 
L 344.846339 296.488925 
z
M 346.77275 296.488925 
L 347.642387 295.814786 
L 348.816723 296.488925 
L 347.642387 297.358689 
z
M 357.247683 292.403911 
L 361.59632 289.138644 
L 357.247683 286.60419 
L 353.977804 289.138644 
z
M 355.80326 289.138644 
L 357.247683 288.019085 
L 359.168632 289.138644 
L 357.247683 290.58103 
z
M 366.852978 285.313702 
L 371.483899 281.788363 
L 366.852978 279.037731 
L 363.302705 281.788363 
z
M 365.081676 281.788363 
L 366.852978 280.416018 
L 369.163437 281.788363 
L 366.852978 283.547225 
z
M 376.458273 278.032853 
L 381.11887 274.438082 
L 376.458273 271.606869 
L 372.801019 274.438082 
z
M 374.583352 274.438082 
L 376.458273 272.986638 
L 378.847566 274.438082 
L 376.458273 276.280971 
z
M 386.063569 270.570413 
L 390.525425 267.087802 
L 386.063569 264.307383 
L 382.467146 267.087802 
z
M 384.301785 267.087802 
L 386.063569 265.725755 
L 388.249303 267.087802 
L 386.063569 268.793832 
z
M 395.668864 262.928494 
L 399.715709 259.737521 
L 395.668864 257.144784 
L 392.308558 259.737521 
z
M 394.246847 259.737521 
L 395.668864 258.640325 
L 397.38141 259.737521 
L 395.668864 261.087879 
z
M 405.274159 255.102613 
L 408.68977 252.38724 
L 405.274159 250.134172 
L 402.346015 252.38724 
z
M 404.444987 252.38724 
L 405.274159 251.749231 
L 406.241369 252.38724 
L 405.274159 253.156161 
z
M 414.879454 247.080327 
L 417.433983 245.036959 
L 414.879454 243.301111 
L 412.615285 245.036959 
z
M 424.48475 238.838093 
L 425.917981 237.686679 
L 424.48475 236.683709 
L 423.170546 237.686679 
z
" clip-path="url(#pf76875a1fc)" style="fill: #2676b8"/>
    <path d="M 347.642387 297.358689 
L 348.816723 296.488925 
L 347.642387 295.814786 
L 346.77275 296.488925 
z
M 357.247683 290.58103 
L 359.168632 289.138644 
L 357.247683 288.019085 
L 355.80326 289.138644 
z
M 356.627324 289.138644 
L 357.247683 288.657809 
L 358.072703 289.138644 
L 357.247683 289.758128 
z
M 366.852978 283.547225 
L 369.163437 281.788363 
L 366.852978 280.416018 
L 365.081676 281.788363 
z
M 365.884755 281.788363 
L 366.852978 281.038217 
L 368.115913 281.788363 
L 366.852978 282.749786 
z
M 376.458273 276.280971 
L 378.847566 274.438082 
L 376.458273 272.986638 
L 374.583352 274.438082 
z
M 375.387949 274.438082 
L 376.458273 273.609506 
L 377.822234 274.438082 
L 376.458273 275.49012 
z
M 386.063569 268.793832 
L 388.249303 267.087802 
L 386.063569 265.725755 
L 384.301785 267.087802 
z
M 385.129994 267.087802 
L 386.063569 266.366049 
L 387.221796 267.087802 
L 386.063569 267.991832 
z
M 395.668864 261.087879 
L 397.38141 259.737521 
L 395.668864 258.640325 
L 394.246847 259.737521 
z
M 395.121847 259.737521 
L 395.668864 259.315455 
L 396.327641 259.737521 
L 395.668864 260.256972 
z
M 405.274159 253.156161 
L 406.241369 252.38724 
L 405.274159 251.749231 
L 404.444987 252.38724 
z
" clip-path="url(#pf76875a1fc)" style="fill: #0c56a0"/>
    <path d="M 357.247683 289.758128 
L 358.072703 289.138644 
L 357.247683 288.657809 
L 356.627324 289.138644 
z
M 366.852978 282.749786 
L 368.115913 281.788363 
L 366.852978 281.038217 
L 365.884755 281.788363 
z
M 366.790002 281.788363 
L 366.852978 281.739572 
L 366.935123 281.788363 
L 366.852978 281.850897 
z
M 376.458273 275.49012 
L 377.822234 274.438082 
L 376.458273 273.609506 
L 375.387949 274.438082 
z
M 376.294907 274.438082 
L 376.458273 274.311615 
L 376.666458 274.438082 
L 376.458273 274.598658 
z
M 386.063569 267.991832 
L 387.221796 267.087802 
L 386.063569 266.366049 
L 385.129994 267.087802 
z
M 395.668864 260.256972 
L 396.327641 259.737521 
L 395.668864 259.315455 
L 395.121847 259.737521 
z
" clip-path="url(#pf76875a1fc)" style="fill: #084082"/>
    <path d="M 366.852978 281.850897 
L 366.935123 281.788363 
L 366.852978 281.739572 
L 366.790002 281.788363 
z
M 376.458273 274.598658 
L 376.666458 274.438082 
L 376.458273 274.311615 
L 376.294907 274.438082 
z
" clip-path="url(#pf76875a1fc)" style="fill: #08326e"/>
   </g>
   <g id="matplotlib.axis_1">
    <g id="xtick_1">
     <g id="line2d_1">
      <defs>
       <path id="mb845c7b565" d="M 0 0 
L 0 3.5 
" style="stroke: #000000; stroke-width: 0.8"/>
      </defs>
      <g>
       <use xlink:href="#mb845c7b565" x="102.17" y="499.48" style="stroke: #000000; stroke-width: 0.8"/>
      </g>
     </g>
     <g id="text_1">
      <!-- −80 -->
      <g transform="translate(78.954844 523.196563) scale(0.22 -0.22)">
       <defs>
        <path id="DejaVuSans-2212" d="M 678 2272 
L 4684 2272 
L 4684 1741 
L 678 1741 
L 678 2272 
z
" transform="scale(0.015625)"/>
        <path id="DejaVuSans-38" d="M 2034 2216 
Q 1584 2216 1326 1975 
Q 1069 1734 1069 1313 
Q 1069 891 1326 650 
Q 1584 409 2034 409 
Q 2484 409 2743 651 
Q 3003 894 3003 1313 
Q 3003 1734 2745 1975 
Q 2488 2216 2034 2216 
z
M 1403 2484 
Q 997 2584 770 2862 
Q 544 3141 544 3541 
Q 544 4100 942 4425 
Q 1341 4750 2034 4750 
Q 2731 4750 3128 4425 
Q 3525 4100 3525 3541 
Q 3525 3141 3298 2862 
Q 3072 2584 2669 2484 
Q 3125 2378 3379 2068 
Q 3634 1759 3634 1313 
Q 3634 634 3220 271 
Q 2806 -91 2034 -91 
Q 1263 -91 848 271 
Q 434 634 434 1313 
Q 434 1759 690 2068 
Q 947 2378 1403 2484 
z
M 1172 3481 
Q 1172 3119 1398 2916 
Q 1625 2713 2034 2713 
Q 2441 2713 2670 2916 
Q 2900 3119 2900 3481 
Q 2900 3844 2670 4047 
Q 2441 4250 2034 4250 
Q 1625 4250 1398 4047 
Q 1172 3844 1172 3481 
z
" transform="scale(0.015625)"/>
        <path id="DejaVuSans-30" d="M 2034 4250 
Q 1547 4250 1301 3770 
Q 1056 3291 1056 2328 
Q 1056 1369 1301 889 
Q 1547 409 2034 409 
Q 2525 409 2770 889 
Q 3016 1369 3016 2328 
Q 3016 3291 2770 3770 
Q 2525 4250 2034 4250 
z
M 2034 4750 
Q 2819 4750 3233 4129 
Q 3647 3509 3647 2328 
Q 3647 1150 3233 529 
Q 2819 -91 2034 -91 
Q 1250 -91 836 529 
Q 422 1150 422 2328 
Q 422 3509 836 4129 
Q 1250 4750 2034 4750 
z
" transform="scale(0.015625)"/>
       </defs>
       <use xlink:href="#DejaVuSans-2212"/>
       <use xlink:href="#DejaVuSans-38" x="83.789062"/>
       <use xlink:href="#DejaVuSans-30" x="147.412109"/>
      </g>
     </g>
    </g>
    <g id="xtick_2">
     <g id="line2d_2">
      <g>
       <use xlink:href="#mb845c7b565" x="174.67375" y="499.48" style="stroke: #000000; stroke-width: 0.8"/>
      </g>
     </g>
     <g id="text_2">
      <!-- −60 -->
      <g transform="translate(151.458594 523.196563) scale(0.22 -0.22)">
       <defs>
        <path id="DejaVuSans-36" d="M 2113 2584 
Q 1688 2584 1439 2293 
Q 1191 2003 1191 1497 
Q 1191 994 1439 701 
Q 1688 409 2113 409 
Q 2538 409 2786 701 
Q 3034 994 3034 1497 
Q 3034 2003 2786 2293 
Q 2538 2584 2113 2584 
z
M 3366 4563 
L 3366 3988 
Q 3128 4100 2886 4159 
Q 2644 4219 2406 4219 
Q 1781 4219 1451 3797 
Q 1122 3375 1075 2522 
Q 1259 2794 1537 2939 
Q 1816 3084 2150 3084 
Q 2853 3084 3261 2657 
Q 3669 2231 3669 1497 
Q 3669 778 3244 343 
Q 2819 -91 2113 -91 
Q 1303 -91 875 529 
Q 447 1150 447 2328 
Q 447 3434 972 4092 
Q 1497 4750 2381 4750 
Q 2619 4750 2861 4703 
Q 3103 4656 3366 4563 
z
" transform="scale(0.015625)"/>
       </defs>
       <use xlink:href="#DejaVuSans-2212"/>
       <use xlink:href="#DejaVuSans-36" x="83.789062"/>
       <use xlink:href="#DejaVuSans-30" x="147.412109"/>
      </g>
     </g>
    </g>
    <g id="xtick_3">
     <g id="line2d_3">
      <g>
       <use xlink:href="#mb845c7b565" x="247.1775" y="499.48" style="stroke: #000000; stroke-width: 0.8"/>
      </g>
     </g>
     <g id="text_3">
      <!-- −40 -->
      <g transform="translate(223.962344 523.196563) scale(0.22 -0.22)">
       <defs>
        <path id="DejaVuSans-34" d="M 2419 4116 
L 825 1625 
L 2419 1625 
L 2419 4116 
z
M 2253 4666 
L 3047 4666 
L 3047 1625 
L 3713 1625 
L 3713 1100 
L 3047 1100 
L 3047 0 
L 2419 0 
L 2419 1100 
L 313 1100 
L 313 1709 
L 2253 4666 
z
" transform="scale(0.015625)"/>
       </defs>
       <use xlink:href="#DejaVuSans-2212"/>
       <use xlink:href="#DejaVuSans-34" x="83.789062"/>
       <use xlink:href="#DejaVuSans-30" x="147.412109"/>
      </g>
     </g>
    </g>
    <g id="xtick_4">
     <g id="line2d_4">
      <g>
       <use xlink:href="#mb845c7b565" x="319.68125" y="499.48" style="stroke: #000000; stroke-width: 0.8"/>
      </g>
     </g>
     <g id="text_4">
      <!-- −20 -->
      <g transform="translate(296.466094 523.196563) scale(0.22 -0.22)">
       <defs>
        <path id="DejaVuSans-32" d="M 1228 531 
L 3431 531 
L 3431 0 
L 469 0 
L 469 531 
Q 828 903 1448 1529 
Q 2069 2156 2228 2338 
Q 2531 2678 2651 2914 
Q 2772 3150 2772 3378 
Q 2772 3750 2511 3984 
Q 2250 4219 1831 4219 
Q 1534 4219 1204 4116 
Q 875 4013 500 3803 
L 500 4441 
Q 881 4594 1212 4672 
Q 1544 4750 1819 4750 
Q 2544 4750 2975 4387 
Q 3406 4025 3406 3419 
Q 3406 3131 3298 2873 
Q 3191 2616 2906 2266 
Q 2828 2175 2409 1742 
Q 1991 1309 1228 531 
z
" transform="scale(0.015625)"/>
       </defs>
       <use xlink:href="#DejaVuSans-2212"/>
       <use xlink:href="#DejaVuSans-32" x="83.789062"/>
       <use xlink:href="#DejaVuSans-30" x="147.412109"/>
      </g>
     </g>
    </g>
    <g id="xtick_5">
     <g id="line2d_5">
      <g>
       <use xlink:href="#mb845c7b565" x="392.185" y="499.48" style="stroke: #000000; stroke-width: 0.8"/>
      </g>
     </g>
     <g id="text_5">
      <!-- 0 -->
      <g transform="translate(385.18625 523.196563) scale(0.22 -0.22)">
       <use xlink:href="#DejaVuSans-30"/>
      </g>
     </g>
    </g>
    <g id="xtick_6">
     <g id="line2d_6">
      <g>
       <use xlink:href="#mb845c7b565" x="464.68875" y="499.48" style="stroke: #000000; stroke-width: 0.8"/>
      </g>
     </g>
     <g id="text_6">
      <!-- 20 -->
      <g transform="translate(450.69125 523.196563) scale(0.22 -0.22)">
       <use xlink:href="#DejaVuSans-32"/>
       <use xlink:href="#DejaVuSans-30" x="63.623047"/>
      </g>
     </g>
    </g>
    <g id="xtick_7">
     <g id="line2d_7">
      <g>
       <use xlink:href="#mb845c7b565" x="537.1925" y="499.48" style="stroke: #000000; stroke-width: 0.8"/>
      </g>
     </g>
     <g id="text_7">
      <!-- 40 -->
      <g transform="translate(523.195 523.196563) scale(0.22 -0.22)">
       <use xlink:href="#DejaVuSans-34"/>
       <use xlink:href="#DejaVuSans-30" x="63.623047"/>
      </g>
     </g>
    </g>
    <g id="xtick_8">
     <g id="line2d_8">
      <g>
       <use xlink:href="#mb845c7b565" x="609.69625" y="499.48" style="stroke: #000000; stroke-width: 0.8"/>
      </g>
     </g>
     <g id="text_8">
      <!-- 60 -->
      <g transform="translate(595.69875 523.196563) scale(0.22 -0.22)">
       <use xlink:href="#DejaVuSans-36"/>
       <use xlink:href="#DejaVuSans-30" x="63.623047"/>
      </g>
     </g>
    </g>
    <g id="xtick_9">
     <g id="line2d_9">
      <g>
       <use xlink:href="#mb845c7b565" x="682.2" y="499.48" style="stroke: #000000; stroke-width: 0.8"/>
      </g>
     </g>
     <g id="text_9">
      <!-- 80 -->
      <g transform="translate(668.2025 523.196563) scale(0.22 -0.22)">
       <use xlink:href="#DejaVuSans-38"/>
       <use xlink:href="#DejaVuSans-30" x="63.623047"/>
      </g>
     </g>
    </g>
    <g id="text_10">
     <!-- Ground Truth Energy [kJ/mol] -->
     <g transform="translate(232.45125 548.488438) scale(0.22 -0.22)">
      <defs>
       <path id="DejaVuSans-47" d="M 3809 666 
L 3809 1919 
L 2778 1919 
L 2778 2438 
L 4434 2438 
L 4434 434 
Q 4069 175 3628 42 
Q 3188 -91 2688 -91 
Q 1594 -91 976 548 
Q 359 1188 359 2328 
Q 359 3472 976 4111 
Q 1594 4750 2688 4750 
Q 3144 4750 3555 4637 
Q 3966 4525 4313 4306 
L 4313 3634 
Q 3963 3931 3569 4081 
Q 3175 4231 2741 4231 
Q 1884 4231 1454 3753 
Q 1025 3275 1025 2328 
Q 1025 1384 1454 906 
Q 1884 428 2741 428 
Q 3075 428 3337 486 
Q 3600 544 3809 666 
z
" transform="scale(0.015625)"/>
       <path id="DejaVuSans-72" d="M 2631 2963 
Q 2534 3019 2420 3045 
Q 2306 3072 2169 3072 
Q 1681 3072 1420 2755 
Q 1159 2438 1159 1844 
L 1159 0 
L 581 0 
L 581 3500 
L 1159 3500 
L 1159 2956 
Q 1341 3275 1631 3429 
Q 1922 3584 2338 3584 
Q 2397 3584 2469 3576 
Q 2541 3569 2628 3553 
L 2631 2963 
z
" transform="scale(0.015625)"/>
       <path id="DejaVuSans-6f" d="M 1959 3097 
Q 1497 3097 1228 2736 
Q 959 2375 959 1747 
Q 959 1119 1226 758 
Q 1494 397 1959 397 
Q 2419 397 2687 759 
Q 2956 1122 2956 1747 
Q 2956 2369 2687 2733 
Q 2419 3097 1959 3097 
z
M 1959 3584 
Q 2709 3584 3137 3096 
Q 3566 2609 3566 1747 
Q 3566 888 3137 398 
Q 2709 -91 1959 -91 
Q 1206 -91 779 398 
Q 353 888 353 1747 
Q 353 2609 779 3096 
Q 1206 3584 1959 3584 
z
" transform="scale(0.015625)"/>
       <path id="DejaVuSans-75" d="M 544 1381 
L 544 3500 
L 1119 3500 
L 1119 1403 
Q 1119 906 1312 657 
Q 1506 409 1894 409 
Q 2359 409 2629 706 
Q 2900 1003 2900 1516 
L 2900 3500 
L 3475 3500 
L 3475 0 
L 2900 0 
L 2900 538 
Q 2691 219 2414 64 
Q 2138 -91 1772 -91 
Q 1169 -91 856 284 
Q 544 659 544 1381 
z
M 1991 3584 
L 1991 3584 
z
" transform="scale(0.015625)"/>
       <path id="DejaVuSans-6e" d="M 3513 2113 
L 3513 0 
L 2938 0 
L 2938 2094 
Q 2938 2591 2744 2837 
Q 2550 3084 2163 3084 
Q 1697 3084 1428 2787 
Q 1159 2491 1159 1978 
L 1159 0 
L 581 0 
L 581 3500 
L 1159 3500 
L 1159 2956 
Q 1366 3272 1645 3428 
Q 1925 3584 2291 3584 
Q 2894 3584 3203 3211 
Q 3513 2838 3513 2113 
z
" transform="scale(0.015625)"/>
       <path id="DejaVuSans-64" d="M 2906 2969 
L 2906 4863 
L 3481 4863 
L 3481 0 
L 2906 0 
L 2906 525 
Q 2725 213 2448 61 
Q 2172 -91 1784 -91 
Q 1150 -91 751 415 
Q 353 922 353 1747 
Q 353 2572 751 3078 
Q 1150 3584 1784 3584 
Q 2172 3584 2448 3432 
Q 2725 3281 2906 2969 
z
M 947 1747 
Q 947 1113 1208 752 
Q 1469 391 1925 391 
Q 2381 391 2643 752 
Q 2906 1113 2906 1747 
Q 2906 2381 2643 2742 
Q 2381 3103 1925 3103 
Q 1469 3103 1208 2742 
Q 947 2381 947 1747 
z
" transform="scale(0.015625)"/>
       <path id="DejaVuSans-20" transform="scale(0.015625)"/>
       <path id="DejaVuSans-54" d="M -19 4666 
L 3928 4666 
L 3928 4134 
L 2272 4134 
L 2272 0 
L 1638 0 
L 1638 4134 
L -19 4134 
L -19 4666 
z
" transform="scale(0.015625)"/>
       <path id="DejaVuSans-74" d="M 1172 4494 
L 1172 3500 
L 2356 3500 
L 2356 3053 
L 1172 3053 
L 1172 1153 
Q 1172 725 1289 603 
Q 1406 481 1766 481 
L 2356 481 
L 2356 0 
L 1766 0 
Q 1100 0 847 248 
Q 594 497 594 1153 
L 594 3053 
L 172 3053 
L 172 3500 
L 594 3500 
L 594 4494 
L 1172 4494 
z
" transform="scale(0.015625)"/>
       <path id="DejaVuSans-68" d="M 3513 2113 
L 3513 0 
L 2938 0 
L 2938 2094 
Q 2938 2591 2744 2837 
Q 2550 3084 2163 3084 
Q 1697 3084 1428 2787 
Q 1159 2491 1159 1978 
L 1159 0 
L 581 0 
L 581 4863 
L 1159 4863 
L 1159 2956 
Q 1366 3272 1645 3428 
Q 1925 3584 2291 3584 
Q 2894 3584 3203 3211 
Q 3513 2838 3513 2113 
z
" transform="scale(0.015625)"/>
       <path id="DejaVuSans-45" d="M 628 4666 
L 3578 4666 
L 3578 4134 
L 1259 4134 
L 1259 2753 
L 3481 2753 
L 3481 2222 
L 1259 2222 
L 1259 531 
L 3634 531 
L 3634 0 
L 628 0 
L 628 4666 
z
" transform="scale(0.015625)"/>
       <path id="DejaVuSans-65" d="M 3597 1894 
L 3597 1613 
L 953 1613 
Q 991 1019 1311 708 
Q 1631 397 2203 397 
Q 2534 397 2845 478 
Q 3156 559 3463 722 
L 3463 178 
Q 3153 47 2828 -22 
Q 2503 -91 2169 -91 
Q 1331 -91 842 396 
Q 353 884 353 1716 
Q 353 2575 817 3079 
Q 1281 3584 2069 3584 
Q 2775 3584 3186 3129 
Q 3597 2675 3597 1894 
z
M 3022 2063 
Q 3016 2534 2758 2815 
Q 2500 3097 2075 3097 
Q 1594 3097 1305 2825 
Q 1016 2553 972 2059 
L 3022 2063 
z
" transform="scale(0.015625)"/>
       <path id="DejaVuSans-67" d="M 2906 1791 
Q 2906 2416 2648 2759 
Q 2391 3103 1925 3103 
Q 1463 3103 1205 2759 
Q 947 2416 947 1791 
Q 947 1169 1205 825 
Q 1463 481 1925 481 
Q 2391 481 2648 825 
Q 2906 1169 2906 1791 
z
M 3481 434 
Q 3481 -459 3084 -895 
Q 2688 -1331 1869 -1331 
Q 1566 -1331 1297 -1286 
Q 1028 -1241 775 -1147 
L 775 -588 
Q 1028 -725 1275 -790 
Q 1522 -856 1778 -856 
Q 2344 -856 2625 -561 
Q 2906 -266 2906 331 
L 2906 616 
Q 2728 306 2450 153 
Q 2172 0 1784 0 
Q 1141 0 747 490 
Q 353 981 353 1791 
Q 353 2603 747 3093 
Q 1141 3584 1784 3584 
Q 2172 3584 2450 3431 
Q 2728 3278 2906 2969 
L 2906 3500 
L 3481 3500 
L 3481 434 
z
" transform="scale(0.015625)"/>
       <path id="DejaVuSans-79" d="M 2059 -325 
Q 1816 -950 1584 -1140 
Q 1353 -1331 966 -1331 
L 506 -1331 
L 506 -850 
L 844 -850 
Q 1081 -850 1212 -737 
Q 1344 -625 1503 -206 
L 1606 56 
L 191 3500 
L 800 3500 
L 1894 763 
L 2988 3500 
L 3597 3500 
L 2059 -325 
z
" transform="scale(0.015625)"/>
       <path id="DejaVuSans-5b" d="M 550 4863 
L 1875 4863 
L 1875 4416 
L 1125 4416 
L 1125 -397 
L 1875 -397 
L 1875 -844 
L 550 -844 
L 550 4863 
z
" transform="scale(0.015625)"/>
       <path id="DejaVuSans-6b" d="M 581 4863 
L 1159 4863 
L 1159 1991 
L 2875 3500 
L 3609 3500 
L 1753 1863 
L 3688 0 
L 2938 0 
L 1159 1709 
L 1159 0 
L 581 0 
L 581 4863 
z
" transform="scale(0.015625)"/>
       <path id="DejaVuSans-4a" d="M 628 4666 
L 1259 4666 
L 1259 325 
Q 1259 -519 939 -900 
Q 619 -1281 -91 -1281 
L -331 -1281 
L -331 -750 
L -134 -750 
Q 284 -750 456 -515 
Q 628 -281 628 325 
L 628 4666 
z
" transform="scale(0.015625)"/>
       <path id="DejaVuSans-2f" d="M 1625 4666 
L 2156 4666 
L 531 -594 
L 0 -594 
L 1625 4666 
z
" transform="scale(0.015625)"/>
       <path id="DejaVuSans-6d" d="M 3328 2828 
Q 3544 3216 3844 3400 
Q 4144 3584 4550 3584 
Q 5097 3584 5394 3201 
Q 5691 2819 5691 2113 
L 5691 0 
L 5113 0 
L 5113 2094 
Q 5113 2597 4934 2840 
Q 4756 3084 4391 3084 
Q 3944 3084 3684 2787 
Q 3425 2491 3425 1978 
L 3425 0 
L 2847 0 
L 2847 2094 
Q 2847 2600 2669 2842 
Q 2491 3084 2119 3084 
Q 1678 3084 1418 2786 
Q 1159 2488 1159 1978 
L 1159 0 
L 581 0 
L 581 3500 
L 1159 3500 
L 1159 2956 
Q 1356 3278 1631 3431 
Q 1906 3584 2284 3584 
Q 2666 3584 2933 3390 
Q 3200 3197 3328 2828 
z
" transform="scale(0.015625)"/>
       <path id="DejaVuSans-6c" d="M 603 4863 
L 1178 4863 
L 1178 0 
L 603 0 
L 603 4863 
z
" transform="scale(0.015625)"/>
       <path id="DejaVuSans-5d" d="M 1947 4863 
L 1947 -844 
L 622 -844 
L 622 -397 
L 1369 -397 
L 1369 4416 
L 622 4416 
L 622 4863 
L 1947 4863 
z
" transform="scale(0.015625)"/>
      </defs>
      <use xlink:href="#DejaVuSans-47"/>
      <use xlink:href="#DejaVuSans-72" x="77.490234"/>
      <use xlink:href="#DejaVuSans-6f" x="116.353516"/>
      <use xlink:href="#DejaVuSans-75" x="177.535156"/>
      <use xlink:href="#DejaVuSans-6e" x="240.914062"/>
      <use xlink:href="#DejaVuSans-64" x="304.292969"/>
      <use xlink:href="#DejaVuSans-20" x="367.769531"/>
      <use xlink:href="#DejaVuSans-54" x="399.556641"/>
      <use xlink:href="#DejaVuSans-72" x="445.890625"/>
      <use xlink:href="#DejaVuSans-75" x="487.003906"/>
      <use xlink:href="#DejaVuSans-74" x="550.382812"/>
      <use xlink:href="#DejaVuSans-68" x="589.591797"/>
      <use xlink:href="#DejaVuSans-20" x="652.970703"/>
      <use xlink:href="#DejaVuSans-45" x="684.757812"/>
      <use xlink:href="#DejaVuSans-6e" x="747.941406"/>
      <use xlink:href="#DejaVuSans-65" x="811.320312"/>
      <use xlink:href="#DejaVuSans-72" x="872.84375"/>
      <use xlink:href="#DejaVuSans-67" x="912.207031"/>
      <use xlink:href="#DejaVuSans-79" x="975.683594"/>
      <use xlink:href="#DejaVuSans-20" x="1034.863281"/>
      <use xlink:href="#DejaVuSans-5b" x="1066.650391"/>
      <use xlink:href="#DejaVuSans-6b" x="1105.664062"/>
      <use xlink:href="#DejaVuSans-4a" x="1163.574219"/>
      <use xlink:href="#DejaVuSans-2f" x="1193.066406"/>
      <use xlink:href="#DejaVuSans-6d" x="1226.757812"/>
      <use xlink:href="#DejaVuSans-6f" x="1324.169922"/>
      <use xlink:href="#DejaVuSans-6c" x="1385.351562"/>
      <use xlink:href="#DejaVuSans-5d" x="1413.134766"/>
     </g>
    </g>
   </g>
   <g id="matplotlib.axis_2">
    <g id="ytick_1">
     <g id="line2d_10">
      <defs>
       <path id="m23cb0f1034" d="M 0 0 
L -3.5 0 
" style="stroke: #000000; stroke-width: 0.8"/>
      </defs>
      <g>
       <use xlink:href="#m23cb0f1034" x="102.17" y="499.48" style="stroke: #000000; stroke-width: 0.8"/>
      </g>
     </g>
     <g id="text_11">
      <!-- −80 -->
      <g transform="translate(48.739688 507.838281) scale(0.22 -0.22)">
       <use xlink:href="#DejaVuSans-2212"/>
       <use xlink:href="#DejaVuSans-38" x="83.789062"/>
       <use xlink:href="#DejaVuSans-30" x="147.412109"/>
      </g>
     </g>
    </g>
    <g id="ytick_2">
     <g id="line2d_11">
      <g>
       <use xlink:href="#m23cb0f1034" x="102.17" y="441.05" style="stroke: #000000; stroke-width: 0.8"/>
      </g>
     </g>
     <g id="text_12">
      <!-- −60 -->
      <g transform="translate(48.739688 449.408281) scale(0.22 -0.22)">
       <use xlink:href="#DejaVuSans-2212"/>
       <use xlink:href="#DejaVuSans-36" x="83.789062"/>
       <use xlink:href="#DejaVuSans-30" x="147.412109"/>
      </g>
     </g>
    </g>
    <g id="ytick_3">
     <g id="line2d_12">
      <g>
       <use xlink:href="#m23cb0f1034" x="102.17" y="382.62" style="stroke: #000000; stroke-width: 0.8"/>
      </g>
     </g>
     <g id="text_13">
      <!-- −40 -->
      <g transform="translate(48.739688 390.978281) scale(0.22 -0.22)">
       <use xlink:href="#DejaVuSans-2212"/>
       <use xlink:href="#DejaVuSans-34" x="83.789062"/>
       <use xlink:href="#DejaVuSans-30" x="147.412109"/>
      </g>
     </g>
    </g>
    <g id="ytick_4">
     <g id="line2d_13">
      <g>
       <use xlink:href="#m23cb0f1034" x="102.17" y="324.19" style="stroke: #000000; stroke-width: 0.8"/>
      </g>
     </g>
     <g id="text_14">
      <!-- −20 -->
      <g transform="translate(48.739688 332.548281) scale(0.22 -0.22)">
       <use xlink:href="#DejaVuSans-2212"/>
       <use xlink:href="#DejaVuSans-32" x="83.789062"/>
       <use xlink:href="#DejaVuSans-30" x="147.412109"/>
      </g>
     </g>
    </g>
    <g id="ytick_5">
     <g id="line2d_14">
      <g>
       <use xlink:href="#m23cb0f1034" x="102.17" y="265.76" style="stroke: #000000; stroke-width: 0.8"/>
      </g>
     </g>
     <g id="text_15">
      <!-- 0 -->
      <g transform="translate(81.1725 274.118281) scale(0.22 -0.22)">
       <use xlink:href="#DejaVuSans-30"/>
      </g>
     </g>
    </g>
    <g id="ytick_6">
     <g id="line2d_15">
      <g>
       <use xlink:href="#m23cb0f1034" x="102.17" y="207.33" style="stroke: #000000; stroke-width: 0.8"/>
      </g>
     </g>
     <g id="text_16">
      <!-- 20 -->
      <g transform="translate(67.175 215.688281) scale(0.22 -0.22)">
       <use xlink:href="#DejaVuSans-32"/>
       <use xlink:href="#DejaVuSans-30" x="63.623047"/>
      </g>
     </g>
    </g>
    <g id="ytick_7">
     <g id="line2d_16">
      <g>
       <use xlink:href="#m23cb0f1034" x="102.17" y="148.9" style="stroke: #000000; stroke-width: 0.8"/>
      </g>
     </g>
     <g id="text_17">
      <!-- 40 -->
      <g transform="translate(67.175 157.258281) scale(0.22 -0.22)">
       <use xlink:href="#DejaVuSans-34"/>
       <use xlink:href="#DejaVuSans-30" x="63.623047"/>
      </g>
     </g>
    </g>
    <g id="ytick_8">
     <g id="line2d_17">
      <g>
       <use xlink:href="#m23cb0f1034" x="102.17" y="90.47" style="stroke: #000000; stroke-width: 0.8"/>
      </g>
     </g>
     <g id="text_18">
      <!-- 60 -->
      <g transform="translate(67.175 98.828281) scale(0.22 -0.22)">
       <use xlink:href="#DejaVuSans-36"/>
       <use xlink:href="#DejaVuSans-30" x="63.623047"/>
      </g>
     </g>
    </g>
    <g id="ytick_9">
     <g id="line2d_18">
      <g>
       <use xlink:href="#m23cb0f1034" x="102.17" y="32.04" style="stroke: #000000; stroke-width: 0.8"/>
      </g>
     </g>
     <g id="text_19">
      <!-- 80 -->
      <g transform="translate(67.175 40.398281) scale(0.22 -0.22)">
       <use xlink:href="#DejaVuSans-38"/>
       <use xlink:href="#DejaVuSans-30" x="63.623047"/>
      </g>
     </g>
    </g>
    <g id="text_20">
     <!-- Predicted Energy [kJ/mol] -->
     <g transform="translate(40.164375 405.305313) rotate(-90) scale(0.22 -0.22)">
      <defs>
       <path id="DejaVuSans-50" d="M 1259 4147 
L 1259 2394 
L 2053 2394 
Q 2494 2394 2734 2622 
Q 2975 2850 2975 3272 
Q 2975 3691 2734 3919 
Q 2494 4147 2053 4147 
L 1259 4147 
z
M 628 4666 
L 2053 4666 
Q 2838 4666 3239 4311 
Q 3641 3956 3641 3272 
Q 3641 2581 3239 2228 
Q 2838 1875 2053 1875 
L 1259 1875 
L 1259 0 
L 628 0 
L 628 4666 
z
" transform="scale(0.015625)"/>
       <path id="DejaVuSans-69" d="M 603 3500 
L 1178 3500 
L 1178 0 
L 603 0 
L 603 3500 
z
M 603 4863 
L 1178 4863 
L 1178 4134 
L 603 4134 
L 603 4863 
z
" transform="scale(0.015625)"/>
       <path id="DejaVuSans-63" d="M 3122 3366 
L 3122 2828 
Q 2878 2963 2633 3030 
Q 2388 3097 2138 3097 
Q 1578 3097 1268 2742 
Q 959 2388 959 1747 
Q 959 1106 1268 751 
Q 1578 397 2138 397 
Q 2388 397 2633 464 
Q 2878 531 3122 666 
L 3122 134 
Q 2881 22 2623 -34 
Q 2366 -91 2075 -91 
Q 1284 -91 818 406 
Q 353 903 353 1747 
Q 353 2603 823 3093 
Q 1294 3584 2113 3584 
Q 2378 3584 2631 3529 
Q 2884 3475 3122 3366 
z
" transform="scale(0.015625)"/>
      </defs>
      <use xlink:href="#DejaVuSans-50"/>
      <use xlink:href="#DejaVuSans-72" x="58.552734"/>
      <use xlink:href="#DejaVuSans-65" x="97.416016"/>
      <use xlink:href="#DejaVuSans-64" x="158.939453"/>
      <use xlink:href="#DejaVuSans-69" x="222.416016"/>
      <use xlink:href="#DejaVuSans-63" x="250.199219"/>
      <use xlink:href="#DejaVuSans-74" x="305.179688"/>
      <use xlink:href="#DejaVuSans-65" x="344.388672"/>
      <use xlink:href="#DejaVuSans-64" x="405.912109"/>
      <use xlink:href="#DejaVuSans-20" x="469.388672"/>
      <use xlink:href="#DejaVuSans-45" x="501.175781"/>
      <use xlink:href="#DejaVuSans-6e" x="564.359375"/>
      <use xlink:href="#DejaVuSans-65" x="627.738281"/>
      <use xlink:href="#DejaVuSans-72" x="689.261719"/>
      <use xlink:href="#DejaVuSans-67" x="728.625"/>
      <use xlink:href="#DejaVuSans-79" x="792.101562"/>
      <use xlink:href="#DejaVuSans-20" x="851.28125"/>
      <use xlink:href="#DejaVuSans-5b" x="883.068359"/>
      <use xlink:href="#DejaVuSans-6b" x="922.082031"/>
      <use xlink:href="#DejaVuSans-4a" x="979.992188"/>
      <use xlink:href="#DejaVuSans-2f" x="1009.484375"/>
      <use xlink:href="#DejaVuSans-6d" x="1043.175781"/>
      <use xlink:href="#DejaVuSans-6f" x="1140.587891"/>
      <use xlink:href="#DejaVuSans-6c" x="1201.769531"/>
      <use xlink:href="#DejaVuSans-5d" x="1229.552734"/>
     </g>
    </g>
   </g>
   <g id="line2d_19">
    <path d="M 102.17 499.48 
L 682.2 32.04 
" clip-path="url(#pf76875a1fc)" style="fill: none; stroke-dasharray: 5.55,2.4; stroke-dashoffset: 0; stroke: #ff0000; stroke-width: 1.5"/>
   </g>
   <g id="patch_3">
    <path d="M 102.17 499.48 
L 102.17 32.04 
" style="fill: none; stroke: #000000; stroke-width: 0.8; stroke-linejoin: miter; stroke-linecap: square"/>
   </g>
   <g id="patch_4">
    <path d="M 682.2 499.48 
L 682.2 32.04 
" style="fill: none; stroke: #000000; stroke-width: 0.8; stroke-linejoin: miter; stroke-linecap: square"/>
   </g>
   <g id="patch_5">
    <path d="M 102.17 499.48 
L 682.2 499.48 
" style="fill: none; stroke: #000000; stroke-width: 0.8; stroke-linejoin: miter; stroke-linecap: square"/>
   </g>
   <g id="patch_6">
    <path d="M 102.17 32.04 
L 682.2 32.04 
" style="fill: none; stroke: #000000; stroke-width: 0.8; stroke-linejoin: miter; stroke-linecap: square"/>
   </g>
   <g id="text_21">
    <!-- R2 Score: 0.990 -->
    <g transform="translate(160.173 78.784) scale(0.22 -0.22)">
     <defs>
      <path id="DejaVuSans-52" d="M 2841 2188 
Q 3044 2119 3236 1894 
Q 3428 1669 3622 1275 
L 4263 0 
L 3584 0 
L 2988 1197 
Q 2756 1666 2539 1819 
Q 2322 1972 1947 1972 
L 1259 1972 
L 1259 0 
L 628 0 
L 628 4666 
L 2053 4666 
Q 2853 4666 3247 4331 
Q 3641 3997 3641 3322 
Q 3641 2881 3436 2590 
Q 3231 2300 2841 2188 
z
M 1259 4147 
L 1259 2491 
L 2053 2491 
Q 2509 2491 2742 2702 
Q 2975 2913 2975 3322 
Q 2975 3731 2742 3939 
Q 2509 4147 2053 4147 
L 1259 4147 
z
" transform="scale(0.015625)"/>
      <path id="DejaVuSans-53" d="M 3425 4513 
L 3425 3897 
Q 3066 4069 2747 4153 
Q 2428 4238 2131 4238 
Q 1616 4238 1336 4038 
Q 1056 3838 1056 3469 
Q 1056 3159 1242 3001 
Q 1428 2844 1947 2747 
L 2328 2669 
Q 3034 2534 3370 2195 
Q 3706 1856 3706 1288 
Q 3706 609 3251 259 
Q 2797 -91 1919 -91 
Q 1588 -91 1214 -16 
Q 841 59 441 206 
L 441 856 
Q 825 641 1194 531 
Q 1563 422 1919 422 
Q 2459 422 2753 634 
Q 3047 847 3047 1241 
Q 3047 1584 2836 1778 
Q 2625 1972 2144 2069 
L 1759 2144 
Q 1053 2284 737 2584 
Q 422 2884 422 3419 
Q 422 4038 858 4394 
Q 1294 4750 2059 4750 
Q 2388 4750 2728 4690 
Q 3069 4631 3425 4513 
z
" transform="scale(0.015625)"/>
      <path id="DejaVuSans-3a" d="M 750 794 
L 1409 794 
L 1409 0 
L 750 0 
L 750 794 
z
M 750 3309 
L 1409 3309 
L 1409 2516 
L 750 2516 
L 750 3309 
z
" transform="scale(0.015625)"/>
      <path id="DejaVuSans-2e" d="M 684 794 
L 1344 794 
L 1344 0 
L 684 0 
L 684 794 
z
" transform="scale(0.015625)"/>
      <path id="DejaVuSans-39" d="M 703 97 
L 703 672 
Q 941 559 1184 500 
Q 1428 441 1663 441 
Q 2288 441 2617 861 
Q 2947 1281 2994 2138 
Q 2813 1869 2534 1725 
Q 2256 1581 1919 1581 
Q 1219 1581 811 2004 
Q 403 2428 403 3163 
Q 403 3881 828 4315 
Q 1253 4750 1959 4750 
Q 2769 4750 3195 4129 
Q 3622 3509 3622 2328 
Q 3622 1225 3098 567 
Q 2575 -91 1691 -91 
Q 1453 -91 1209 -44 
Q 966 3 703 97 
z
M 1959 2075 
Q 2384 2075 2632 2365 
Q 2881 2656 2881 3163 
Q 2881 3666 2632 3958 
Q 2384 4250 1959 4250 
Q 1534 4250 1286 3958 
Q 1038 3666 1038 3163 
Q 1038 2656 1286 2365 
Q 1534 2075 1959 2075 
z
" transform="scale(0.015625)"/>
     </defs>
     <use xlink:href="#DejaVuSans-52"/>
     <use xlink:href="#DejaVuSans-32" x="69.482422"/>
     <use xlink:href="#DejaVuSans-20" x="133.105469"/>
     <use xlink:href="#DejaVuSans-53" x="164.892578"/>
     <use xlink:href="#DejaVuSans-63" x="228.369141"/>
     <use xlink:href="#DejaVuSans-6f" x="283.349609"/>
     <use xlink:href="#DejaVuSans-72" x="344.53125"/>
     <use xlink:href="#DejaVuSans-65" x="383.394531"/>
     <use xlink:href="#DejaVuSans-3a" x="444.917969"/>
     <use xlink:href="#DejaVuSans-20" x="478.609375"/>
     <use xlink:href="#DejaVuSans-30" x="510.396484"/>
     <use xlink:href="#DejaVuSans-2e" x="574.019531"/>
     <use xlink:href="#DejaVuSans-39" x="605.806641"/>
     <use xlink:href="#DejaVuSans-39" x="669.429688"/>
     <use xlink:href="#DejaVuSans-30" x="733.052734"/>
    </g>
   </g>
  </g>
 </g>
 <defs>
  <clipPath id="pf76875a1fc">
   <rect x="102.17" y="32.04" width="580.03" height="467.44"/>
  </clipPath>
 </defs>
</svg>
