<?xml version="1.0" encoding="utf-8" standalone="no"?>
<!DOCTYPE svg PUBLIC "-//W3C//DTD SVG 1.1//EN"
  "http://www.w3.org/Graphics/SVG/1.1/DTD/svg11.dtd">
<svg xmlns:xlink="http://www.w3.org/1999/xlink" width="720pt" height="576pt" viewBox="0 0 720 576" xmlns="http://www.w3.org/2000/svg" version="1.1">
 <metadata>
  <rdf:RDF xmlns:dc="http://purl.org/dc/elements/1.1/" xmlns:cc="http://creativecommons.org/ns#" xmlns:rdf="http://www.w3.org/1999/02/22-rdf-syntax-ns#">
   <cc:Work>
    <dc:type rdf:resource="http://purl.org/dc/dcmitype/StillImage"/>
    <dc:date>2024-12-07T18:19:30.550492</dc:date>
    <dc:format>image/svg+xml</dc:format>
    <dc:creator>
     <cc:Agent>
      <dc:title>Matplotlib v3.8.4, https://matplotlib.org/</dc:title>
     </cc:Agent>
    </dc:creator>
   </cc:Work>
  </rdf:RDF>
 </metadata>
 <defs>
  <style type="text/css">*{stroke-linejoin: round; stroke-linecap: butt}</style>
 </defs>
 <g id="figure_1">
  <g id="patch_1">
   <path d="M 0 576 
L 720 576 
L 720 0 
L 0 0 
z
" style="fill: #ffffff"/>
  </g>
  <g id="axes_1">
   <g id="patch_2">
    <path d="M 83.72 499.48 
L 696.24 499.48 
L 696.24 23.76 
L 83.72 23.76 
z
" style="fill: #ffffff"/>
   </g>
   <g id="QuadContourSet_1">
    <path d="M 109.720924 493.49994 
L 111.918052 493.453499 
L 112.968909 493.307247 
L 114.115181 493.222153 
L 116.31231 492.914213 
L 118.509438 492.433143 
L 120.706567 491.725897 
L 122.795418 490.780048 
L 122.903696 490.748735 
L 125.100824 490.074722 
L 127.297953 489.204035 
L 129.278845 488.252849 
L 129.495081 488.177844 
L 131.69221 487.424017 
L 133.889339 486.443288 
L 135.185342 485.725651 
L 136.086467 485.330999 
L 138.283596 484.129888 
L 139.579813 483.198452 
L 140.480725 482.63094 
L 142.677853 480.875819 
L 142.905083 480.671253 
L 144.874982 478.93551 
L 145.652905 478.144054 
L 147.07211 476.573191 
L 147.892543 475.616855 
L 149.269239 473.662715 
L 149.689943 473.089656 
L 151.112695 470.562458 
L 151.466368 469.60159 
L 152.166638 468.035259 
L 152.733465 465.50806 
L 152.709537 462.980861 
L 151.812287 460.453662 
L 151.466368 459.971028 
L 149.524127 457.926464 
L 149.269239 457.717606 
L 147.07211 455.957957 
L 146.431366 455.399265 
L 144.874982 454.015905 
L 143.530083 452.872066 
L 142.677853 452.16336 
L 140.480725 450.711612 
L 139.730257 450.344867 
L 138.283596 449.517283 
L 136.086467 448.593909 
L 133.889339 448.010872 
L 132.5138 447.817668 
L 131.69221 447.659824 
L 129.495081 447.538006 
L 127.297953 447.661233 
L 126.175959 447.817668 
L 125.100824 447.905481 
L 122.903696 448.156791 
L 120.706567 448.474801 
L 118.509438 448.864675 
L 116.31231 449.345468 
L 114.115181 449.959705 
L 113.03333 450.344867 
L 111.918052 450.603909 
L 109.720924 451.263793 
L 107.523795 452.155805 
L 106.149317 452.872066 
L 105.326667 453.172174 
L 103.129538 454.150799 
L 101.122274 455.399265 
L 100.932409 455.489474 
L 98.735281 456.687856 
L 97.101324 457.926464 
L 96.538152 458.292024 
L 94.341023 460.058694 
L 93.916794 460.453662 
L 92.143895 462.054721 
L 91.265951 462.980861 
L 89.946766 464.470101 
L 89.079573 465.50806 
L 87.749638 467.391982 
L 87.277923 468.035259 
L 85.781793 470.562458 
L 85.552509 471.090978 
L 84.49349 473.089656 
L 83.658134 475.616855 
L 83.35538 477.331533 
L 83.147611 478.144054 
L 82.981152 480.671253 
L 83.338203 483.198452 
L 83.35538 483.248353 
L 84.093543 485.725651 
L 85.552509 487.92309 
L 85.834708 488.252849 
L 87.749638 489.817331 
L 89.946766 490.684416 
L 90.415927 490.780048 
L 92.143895 491.219428 
L 94.341023 491.521393 
L 96.538152 491.740834 
L 98.735281 492.002905 
L 100.932409 492.349907 
L 103.129538 492.734696 
L 105.326667 493.07361 
L 107.523795 493.307247 
L 107.523795 493.307247 
z
M 107.615419 488.252849 
L 107.523795 488.238617 
L 105.326667 487.780052 
L 103.129538 487.247805 
L 100.932409 486.75685 
L 98.735281 486.367429 
L 96.538152 486.008153 
L 95.299211 485.725651 
L 94.341023 485.516868 
L 92.143895 484.5573 
L 90.618571 483.198452 
L 89.946766 482.007712 
L 89.369537 480.671253 
L 89.101234 478.144054 
L 89.457163 475.616855 
L 89.946766 474.247078 
L 90.287848 473.089656 
L 91.513998 470.562458 
L 92.143895 469.628657 
L 93.193118 468.035259 
L 94.341023 466.658037 
L 95.381269 465.50806 
L 96.538152 464.358556 
L 98.203113 462.980861 
L 98.735281 462.536035 
L 100.932409 460.999928 
L 101.941766 460.453662 
L 103.129538 459.713716 
L 105.326667 458.663165 
L 107.412792 457.926464 
L 107.523795 457.876345 
L 109.720924 457.054822 
L 111.918052 456.403575 
L 114.115181 455.846189 
L 116.057643 455.399265 
L 116.31231 455.320193 
L 118.509438 454.648158 
L 120.706567 454.100195 
L 122.903696 453.703686 
L 125.100824 453.482597 
L 127.297953 453.469714 
L 129.495081 453.705593 
L 131.69221 454.227182 
L 133.889339 455.07587 
L 134.526756 455.399265 
L 136.086467 456.170815 
L 138.283596 457.844044 
L 138.373467 457.926464 
L 140.480725 460.453662 
L 140.480725 460.453662 
L 142.053076 462.980861 
L 142.677853 464.613434 
L 143.114462 465.50806 
L 143.532163 468.035259 
L 143.046483 470.562458 
L 142.677853 471.263931 
L 141.790766 473.089656 
L 140.480725 474.719509 
L 139.766211 475.616855 
L 138.283596 477.003112 
L 136.982636 478.144054 
L 136.086467 478.824898 
L 133.889339 480.36295 
L 133.440106 480.671253 
L 131.69221 481.838288 
L 129.495081 483.070869 
L 129.265012 483.198452 
L 127.297953 484.405092 
L 125.100824 485.453466 
L 124.441951 485.725651 
L 122.903696 486.529432 
L 120.706567 487.400738 
L 118.509438 488.005722 
L 117.175133 488.252849 
L 116.31231 488.489729 
L 114.115181 488.812696 
L 111.918052 488.86686 
L 109.720924 488.670202 
z
" clip-path="url(#p0a2ca92796)" style="fill: #edf4fc"/>
    <path d="M 109.720924 488.670202 
L 111.918052 488.86686 
L 114.115181 488.812696 
L 116.31231 488.489729 
L 117.175133 488.252849 
L 118.509438 488.005722 
L 120.706567 487.400738 
L 122.903696 486.529432 
L 124.441951 485.725651 
L 125.100824 485.453466 
L 127.297953 484.405092 
L 129.265012 483.198452 
L 129.495081 483.070869 
L 131.69221 481.838288 
L 133.440106 480.671253 
L 133.889339 480.36295 
L 136.086467 478.824898 
L 136.982636 478.144054 
L 138.283596 477.003112 
L 139.766211 475.616855 
L 140.480725 474.719509 
L 141.790766 473.089656 
L 142.677853 471.263931 
L 143.046483 470.562458 
L 143.532163 468.035259 
L 143.114462 465.50806 
L 142.677853 464.613434 
L 142.053076 462.980861 
L 140.480725 460.453662 
L 140.480725 460.453662 
L 138.373467 457.926464 
L 138.283596 457.844044 
L 136.086467 456.170815 
L 134.526756 455.399265 
L 133.889339 455.07587 
L 131.69221 454.227182 
L 129.495081 453.705593 
L 127.297953 453.469714 
L 125.100824 453.482597 
L 122.903696 453.703686 
L 120.706567 454.100195 
L 118.509438 454.648158 
L 116.31231 455.320193 
L 116.057643 455.399265 
L 114.115181 455.846189 
L 111.918052 456.403575 
L 109.720924 457.054822 
L 107.523795 457.876345 
L 107.412792 457.926464 
L 105.326667 458.663165 
L 103.129538 459.713716 
L 101.941766 460.453662 
L 100.932409 460.999928 
L 98.735281 462.536035 
L 98.203113 462.980861 
L 96.538152 464.358556 
L 95.381269 465.50806 
L 94.341023 466.658037 
L 93.193118 468.035259 
L 92.143895 469.628657 
L 91.513998 470.562458 
L 90.287848 473.089656 
L 89.946766 474.247078 
L 89.457163 475.616855 
L 89.101234 478.144054 
L 89.369537 480.671253 
L 89.946766 482.007712 
L 90.618571 483.198452 
L 92.143895 484.5573 
L 94.341023 485.516868 
L 95.299211 485.725651 
L 96.538152 486.008153 
L 98.735281 486.367429 
L 100.932409 486.75685 
L 103.129538 487.247805 
L 105.326667 487.780052 
L 107.523795 488.238617 
L 107.615419 488.252849 
z
M 108.630806 485.725651 
L 107.523795 485.464466 
L 105.326667 484.816647 
L 103.129538 484.144668 
L 100.932409 483.575543 
L 99.189812 483.198452 
L 98.735281 483.102322 
L 96.538152 482.520517 
L 94.341023 481.323305 
L 93.675476 480.671253 
L 92.586488 478.144054 
L 92.627399 475.616855 
L 93.335425 473.089656 
L 94.341023 471.171649 
L 94.651982 470.562458 
L 96.530903 468.035259 
L 96.538152 468.027167 
L 98.735281 465.815118 
L 99.100766 465.50806 
L 100.932409 464.071714 
L 102.755024 462.980861 
L 103.129538 462.74504 
L 105.326667 461.635971 
L 107.523795 460.803995 
L 108.634316 460.453662 
L 109.720924 460.057355 
L 111.918052 459.333533 
L 114.115181 458.665542 
L 116.31231 458.051818 
L 116.789311 457.926464 
L 118.509438 457.365831 
L 120.706567 456.804336 
L 122.903696 456.446162 
L 125.100824 456.321373 
L 127.297953 456.466415 
L 129.495081 456.918561 
L 131.69221 457.724924 
L 132.096513 457.926464 
L 133.889339 458.875314 
L 135.791761 460.453662 
L 136.086467 460.81438 
L 137.552119 462.980861 
L 138.283596 465.327172 
L 138.348676 465.50806 
L 138.572605 468.035259 
L 138.283596 469.426673 
L 138.098367 470.562458 
L 136.961823 473.089656 
L 136.086467 474.197517 
L 135.04171 475.616855 
L 133.889339 476.733173 
L 132.39998 478.144054 
L 131.69221 478.711799 
L 129.495081 480.368993 
L 129.064319 480.671253 
L 127.297953 481.8935 
L 125.100824 483.091624 
L 124.876877 483.198452 
L 122.903696 484.27082 
L 120.706567 485.130798 
L 118.509438 485.725651 
L 118.509438 485.725651 
L 116.31231 486.231975 
L 114.115181 486.435029 
L 111.918052 486.359391 
L 109.720924 486.010783 
z
" clip-path="url(#p0a2ca92796)" style="fill: #d8e7f5"/>
    <path d="M 109.720924 486.010783 
L 111.918052 486.359391 
L 114.115181 486.435029 
L 116.31231 486.231975 
L 118.509438 485.725651 
L 118.509438 485.725651 
L 120.706567 485.130798 
L 122.903696 484.27082 
L 124.876877 483.198452 
L 125.100824 483.091624 
L 127.297953 481.8935 
L 129.064319 480.671253 
L 129.495081 480.368993 
L 131.69221 478.711799 
L 132.39998 478.144054 
L 133.889339 476.733173 
L 135.04171 475.616855 
L 136.086467 474.197517 
L 136.961823 473.089656 
L 138.098367 470.562458 
L 138.283596 469.426673 
L 138.572605 468.035259 
L 138.348676 465.50806 
L 138.283596 465.327172 
L 137.552119 462.980861 
L 136.086467 460.81438 
L 135.791761 460.453662 
L 133.889339 458.875314 
L 132.096513 457.926464 
L 131.69221 457.724924 
L 129.495081 456.918561 
L 127.297953 456.466415 
L 125.100824 456.321373 
L 122.903696 456.446162 
L 120.706567 456.804336 
L 118.509438 457.365831 
L 116.789311 457.926464 
L 116.31231 458.051818 
L 114.115181 458.665542 
L 111.918052 459.333533 
L 109.720924 460.057355 
L 108.634316 460.453662 
L 107.523795 460.803995 
L 105.326667 461.635971 
L 103.129538 462.74504 
L 102.755024 462.980861 
L 100.932409 464.071714 
L 99.100766 465.50806 
L 98.735281 465.815118 
L 96.538152 468.027167 
L 96.530903 468.035259 
L 94.651982 470.562458 
L 94.341023 471.171649 
L 93.335425 473.089656 
L 92.627399 475.616855 
L 92.586488 478.144054 
L 93.675476 480.671253 
L 94.341023 481.323305 
L 96.538152 482.520517 
L 98.735281 483.102322 
L 99.189812 483.198452 
L 100.932409 483.575543 
L 103.129538 484.144668 
L 105.326667 484.816647 
L 107.523795 485.464466 
L 108.630806 485.725651 
z
M 107.876928 483.198452 
L 107.523795 483.072662 
L 105.326667 482.219441 
L 103.129538 481.415101 
L 100.932409 480.748796 
L 100.662099 480.671253 
L 98.735281 479.978925 
L 96.538152 478.519185 
L 96.217785 478.144054 
L 95.572639 475.616855 
L 96.083607 473.089656 
L 96.538152 472.219586 
L 97.429134 470.562458 
L 98.735281 468.953621 
L 99.584193 468.035259 
L 100.932409 466.8618 
L 102.867395 465.50806 
L 103.129538 465.336981 
L 105.326667 464.188077 
L 107.523795 463.278963 
L 108.323101 462.980861 
L 109.720924 462.45121 
L 111.918052 461.653268 
L 114.115181 460.895017 
L 115.460072 460.453662 
L 116.31231 460.140898 
L 118.509438 459.426933 
L 120.706567 458.907884 
L 122.903696 458.617125 
L 125.100824 458.592986 
L 127.297953 458.87786 
L 129.495081 459.523805 
L 131.378795 460.453662 
L 131.69221 460.636875 
L 133.889339 462.588393 
L 134.215497 462.980861 
L 135.367973 465.50806 
L 135.599137 468.035259 
L 135.139958 470.562458 
L 133.889339 473.089656 
L 133.889339 473.089656 
L 132.057543 475.616855 
L 131.69221 475.981338 
L 129.495081 478.089819 
L 129.435644 478.144054 
L 127.297953 479.837932 
L 126.017173 480.671253 
L 125.100824 481.267965 
L 122.903696 482.436814 
L 120.947409 483.198452 
L 120.706567 483.307089 
L 118.509438 484.019075 
L 116.31231 484.4087 
L 114.115181 484.506124 
L 111.918052 484.313171 
L 109.720924 483.824596 
z
" clip-path="url(#p0a2ca92796)" style="fill: #c2d9ee"/>
    <path d="M 109.720924 483.824596 
L 111.918052 484.313171 
L 114.115181 484.506124 
L 116.31231 484.4087 
L 118.509438 484.019075 
L 120.706567 483.307089 
L 120.947409 483.198452 
L 122.903696 482.436814 
L 125.100824 481.267965 
L 126.017173 480.671253 
L 127.297953 479.837932 
L 129.435644 478.144054 
L 129.495081 478.089819 
L 131.69221 475.981338 
L 132.057543 475.616855 
L 133.889339 473.089656 
L 133.889339 473.089656 
L 135.139958 470.562458 
L 135.599137 468.035259 
L 135.367973 465.50806 
L 134.215497 462.980861 
L 133.889339 462.588393 
L 131.69221 460.636875 
L 131.378795 460.453662 
L 129.495081 459.523805 
L 127.297953 458.87786 
L 125.100824 458.592986 
L 122.903696 458.617125 
L 120.706567 458.907884 
L 118.509438 459.426933 
L 116.31231 460.140898 
L 115.460072 460.453662 
L 114.115181 460.895017 
L 111.918052 461.653268 
L 109.720924 462.45121 
L 108.323101 462.980861 
L 107.523795 463.278963 
L 105.326667 464.188077 
L 103.129538 465.336981 
L 102.867395 465.50806 
L 100.932409 466.8618 
L 99.584193 468.035259 
L 98.735281 468.953621 
L 97.429134 470.562458 
L 96.538152 472.219586 
L 96.083607 473.089656 
L 95.572639 475.616855 
L 96.217785 478.144054 
L 96.538152 478.519185 
L 98.735281 479.978925 
L 100.662099 480.671253 
L 100.932409 480.748796 
L 103.129538 481.415101 
L 105.326667 482.219441 
L 107.523795 483.072662 
L 107.876928 483.198452 
z
M 106.808625 480.671253 
L 105.326667 479.863519 
L 103.129538 478.842971 
L 101.407644 478.144054 
L 100.932409 477.834481 
L 98.735281 475.69234 
L 98.691123 475.616855 
L 98.735281 474.025568 
L 98.761433 473.089656 
L 100.170953 470.562458 
L 100.932409 469.73849 
L 102.772088 468.035259 
L 103.129538 467.778683 
L 105.326667 466.490583 
L 107.273833 465.50806 
L 107.523795 465.396526 
L 109.720924 464.453858 
L 111.918052 463.538246 
L 113.262898 462.980861 
L 114.115181 462.631635 
L 116.31231 461.773588 
L 118.509438 461.080125 
L 120.706567 460.59155 
L 121.989444 460.453662 
L 122.903696 460.337951 
L 125.100824 460.408563 
L 125.334954 460.453662 
L 127.297953 460.835046 
L 129.495081 461.722018 
L 131.305233 462.980861 
L 131.69221 463.408895 
L 133.044221 465.50806 
L 133.473203 468.035259 
L 133.072616 470.562458 
L 131.888877 473.089656 
L 131.69221 473.350829 
L 130.020092 475.616855 
L 129.495081 476.139251 
L 127.297953 478.144054 
L 127.297953 478.144054 
L 125.100824 479.736813 
L 123.434794 480.671253 
L 122.903696 480.973533 
L 120.706567 481.936543 
L 118.509438 482.561566 
L 116.31231 482.884804 
L 114.115181 482.903075 
L 111.918052 482.593932 
L 109.720924 481.942337 
L 107.523795 480.996345 
z
" clip-path="url(#p0a2ca92796)" style="fill: #a0cbe2"/>
    <path d="M 107.523795 480.996345 
L 109.720924 481.942337 
L 111.918052 482.593932 
L 114.115181 482.903075 
L 116.31231 482.884804 
L 118.509438 482.561566 
L 120.706567 481.936543 
L 122.903696 480.973533 
L 123.434794 480.671253 
L 125.100824 479.736813 
L 127.297953 478.144054 
L 127.297953 478.144054 
L 129.495081 476.139251 
L 130.020092 475.616855 
L 131.69221 473.350829 
L 131.888877 473.089656 
L 133.072616 470.562458 
L 133.473203 468.035259 
L 133.044221 465.50806 
L 131.69221 463.408895 
L 131.305233 462.980861 
L 129.495081 461.722018 
L 127.297953 460.835046 
L 125.334954 460.453662 
L 125.100824 460.408563 
L 122.903696 460.337951 
L 121.989444 460.453662 
L 120.706567 460.59155 
L 118.509438 461.080125 
L 116.31231 461.773588 
L 114.115181 462.631635 
L 113.262898 462.980861 
L 111.918052 463.538246 
L 109.720924 464.453858 
L 107.523795 465.396526 
L 107.273833 465.50806 
L 105.326667 466.490583 
L 103.129538 467.778683 
L 102.772088 468.035259 
L 100.932409 469.73849 
L 100.170953 470.562458 
L 98.761433 473.089656 
L 98.735281 474.025568 
L 98.691123 475.616855 
L 98.735281 475.69234 
L 100.932409 477.834481 
L 101.407644 478.144054 
L 103.129538 478.842971 
L 105.326667 479.863519 
L 106.808625 480.671253 
z
M 111.637625 480.671253 
L 109.720924 479.790752 
L 107.523795 478.449292 
L 107.006806 478.144054 
L 105.326667 476.638813 
L 103.933956 475.616855 
L 103.129538 473.742803 
L 102.883877 473.089656 
L 103.129538 472.605003 
L 104.166637 470.562458 
L 105.326667 469.632141 
L 107.362477 468.035259 
L 107.523795 467.949047 
L 109.720924 466.721063 
L 111.918052 465.50806 
L 111.918052 465.50806 
L 114.115181 464.433322 
L 116.31231 463.497888 
L 117.817927 462.980861 
L 118.509438 462.740144 
L 120.706567 462.230368 
L 122.903696 462.047458 
L 125.100824 462.241824 
L 127.297953 462.888605 
L 127.486431 462.980861 
L 129.495081 464.338505 
L 130.541522 465.50806 
L 131.365316 468.035259 
L 131.089653 470.562458 
L 129.968421 473.089656 
L 129.495081 473.71545 
L 128.017801 475.616855 
L 127.297953 476.300602 
L 125.100824 478.118912 
L 125.064716 478.144054 
L 122.903696 479.469059 
L 120.706567 480.437775 
L 119.893344 480.671253 
L 118.509438 481.082066 
L 116.31231 481.360237 
L 114.115181 481.263859 
L 111.918052 480.7733 
z
" clip-path="url(#p0a2ca92796)" style="fill: #74b3d8"/>
    <path d="M 111.918052 480.7733 
L 114.115181 481.263859 
L 116.31231 481.360237 
L 118.509438 481.082066 
L 119.893344 480.671253 
L 120.706567 480.437775 
L 122.903696 479.469059 
L 125.064716 478.144054 
L 125.100824 478.118912 
L 127.297953 476.300602 
L 128.017801 475.616855 
L 129.495081 473.71545 
L 129.968421 473.089656 
L 131.089653 470.562458 
L 131.365316 468.035259 
L 130.541522 465.50806 
L 129.495081 464.338505 
L 127.486431 462.980861 
L 127.297953 462.888605 
L 125.100824 462.241824 
L 122.903696 462.047458 
L 120.706567 462.230368 
L 118.509438 462.740144 
L 117.817927 462.980861 
L 116.31231 463.497888 
L 114.115181 464.433322 
L 111.918052 465.50806 
L 111.918052 465.50806 
L 109.720924 466.721063 
L 107.523795 467.949047 
L 107.362477 468.035259 
L 105.326667 469.632141 
L 104.166637 470.562458 
L 103.129538 472.605003 
L 102.883877 473.089656 
L 103.129538 473.742803 
L 103.933956 475.616855 
L 105.326667 476.638813 
L 107.006806 478.144054 
L 107.523795 478.449292 
L 109.720924 479.790752 
L 111.637625 480.671253 
z
M 110.003779 478.144054 
L 109.720924 477.881336 
L 107.523795 475.616855 
L 107.523795 475.616855 
L 106.582465 473.089656 
L 107.523795 471.020551 
L 107.701917 470.562458 
L 109.720924 468.769944 
L 110.507153 468.035259 
L 111.918052 467.166641 
L 114.115181 465.863159 
L 114.776306 465.50806 
L 116.31231 464.797959 
L 118.509438 464.010748 
L 120.706567 463.523755 
L 122.903696 463.400105 
L 125.100824 463.729894 
L 127.297953 464.673159 
L 128.379045 465.50806 
L 129.495081 467.429107 
L 129.741294 468.035259 
L 129.622394 470.562458 
L 129.495081 470.846793 
L 128.519856 473.089656 
L 127.297953 474.64841 
L 126.471262 475.616855 
L 125.100824 476.790325 
L 123.156618 478.144054 
L 122.903696 478.29913 
L 120.706567 479.301785 
L 118.509438 479.913505 
L 116.31231 480.132298 
L 114.115181 479.912513 
L 111.918052 479.1935 
z
" clip-path="url(#p0a2ca92796)" style="fill: #519ccc"/>
    <path d="M 111.918052 479.1935 
L 114.115181 479.912513 
L 116.31231 480.132298 
L 118.509438 479.913505 
L 120.706567 479.301785 
L 122.903696 478.29913 
L 123.156618 478.144054 
L 125.100824 476.790325 
L 126.471262 475.616855 
L 127.297953 474.64841 
L 128.519856 473.089656 
L 129.495081 470.846793 
L 129.622394 470.562458 
L 129.741294 468.035259 
L 129.495081 467.429107 
L 128.379045 465.50806 
L 127.297953 464.673159 
L 125.100824 463.729894 
L 122.903696 463.400105 
L 120.706567 463.523755 
L 118.509438 464.010748 
L 116.31231 464.797959 
L 114.776306 465.50806 
L 114.115181 465.863159 
L 111.918052 467.166641 
L 110.507153 468.035259 
L 109.720924 468.769944 
L 107.701917 470.562458 
L 107.523795 471.020551 
L 106.582465 473.089656 
L 107.523795 475.616855 
L 107.523795 475.616855 
L 109.720924 477.881336 
L 110.003779 478.144054 
z
M 115.27431 478.144054 
L 114.115181 477.816136 
L 111.918052 476.344975 
L 111.15972 475.616855 
L 110.420083 473.089656 
L 111.423845 470.562458 
L 111.918052 470.089165 
L 114.115181 468.035259 
L 114.115181 468.035259 
L 116.31231 466.793038 
L 118.509438 465.870807 
L 120.040591 465.50806 
L 120.706567 465.368696 
L 122.903696 465.366869 
L 123.507227 465.50806 
L 125.100824 466.075722 
L 127.199259 468.035259 
L 127.297953 468.728529 
L 127.473127 470.562458 
L 127.297953 470.986594 
L 126.397711 473.089656 
L 125.100824 474.608909 
L 124.087374 475.616855 
L 122.903696 476.455156 
L 120.706567 477.583078 
L 118.863065 478.144054 
L 118.509438 478.237697 
L 116.31231 478.333015 
z
" clip-path="url(#p0a2ca92796)" style="fill: #3181bd"/>
    <path d="M 116.31231 478.333015 
L 118.509438 478.237697 
L 118.863065 478.144054 
L 120.706567 477.583078 
L 122.903696 476.455156 
L 124.087374 475.616855 
L 125.100824 474.608909 
L 126.397711 473.089656 
L 127.297953 470.986594 
L 127.473127 470.562458 
L 127.297953 468.728529 
L 127.199259 468.035259 
L 125.100824 466.075722 
L 123.507227 465.50806 
L 122.903696 465.366869 
L 120.706567 465.368696 
L 120.040591 465.50806 
L 118.509438 465.870807 
L 116.31231 466.793038 
L 114.115181 468.035259 
L 114.115181 468.035259 
L 111.918052 470.089165 
L 111.423845 470.562458 
L 110.420083 473.089656 
L 111.15972 475.616855 
L 111.918052 476.344975 
L 114.115181 477.816136 
L 115.27431 478.144054 
z
M 115.475095 475.616855 
L 114.115181 473.869329 
L 113.768418 473.089656 
L 114.115181 472.187466 
L 114.816143 470.562458 
L 116.31231 469.328435 
L 118.432804 468.035259 
L 118.509438 468.003442 
L 120.706567 467.609455 
L 122.903696 467.87887 
L 123.224147 468.035259 
L 124.850938 470.562458 
L 123.836025 473.089656 
L 122.903696 474.005093 
L 120.706567 475.616855 
L 120.706567 475.616855 
L 118.509438 476.11935 
L 116.31231 475.96091 
z
" clip-path="url(#p0a2ca92796)" style="fill: #125ea6"/>
    <path d="M 116.31231 475.96091 
L 118.509438 476.11935 
L 120.706567 475.616855 
L 120.706567 475.616855 
L 122.903696 474.005093 
L 123.836025 473.089656 
L 124.850938 470.562458 
L 123.224147 468.035259 
L 122.903696 467.87887 
L 120.706567 467.609455 
L 118.509438 468.003442 
L 118.432804 468.035259 
L 116.31231 469.328435 
L 114.816143 470.562458 
L 114.115181 472.187466 
L 113.768418 473.089656 
L 114.115181 473.869329 
L 115.475095 475.616855 
z
" clip-path="url(#p0a2ca92796)" style="fill: #083e81"/>
   </g>
   <g id="matplotlib.axis_1">
    <g id="xtick_1">
     <g id="line2d_1">
      <defs>
       <path id="m4754a3ecc4" d="M 0 0 
L 0 3.5 
" style="stroke: #000000; stroke-width: 0.8"/>
      </defs>
      <g>
       <use xlink:href="#m4754a3ecc4" x="96.217962" y="499.48" style="stroke: #000000; stroke-width: 0.8"/>
      </g>
     </g>
     <g id="text_1">
      <!-- 0 -->
      <g transform="translate(89.219212 523.196563) scale(0.22 -0.22)">
       <defs>
        <path id="DejaVuSans-30" d="M 2034 4250 
Q 1547 4250 1301 3770 
Q 1056 3291 1056 2328 
Q 1056 1369 1301 889 
Q 1547 409 2034 409 
Q 2525 409 2770 889 
Q 3016 1369 3016 2328 
Q 3016 3291 2770 3770 
Q 2525 4250 2034 4250 
z
M 2034 4750 
Q 2819 4750 3233 4129 
Q 3647 3509 3647 2328 
Q 3647 1150 3233 529 
Q 2819 -91 2034 -91 
Q 1250 -91 836 529 
Q 422 1150 422 2328 
Q 422 3509 836 4129 
Q 1250 4750 2034 4750 
z
" transform="scale(0.015625)"/>
       </defs>
       <use xlink:href="#DejaVuSans-30"/>
      </g>
     </g>
    </g>
    <g id="xtick_2">
     <g id="line2d_2">
      <g>
       <use xlink:href="#m4754a3ecc4" x="191.240334" y="499.48" style="stroke: #000000; stroke-width: 0.8"/>
      </g>
     </g>
     <g id="text_2">
      <!-- 10 -->
      <g transform="translate(177.242834 523.196563) scale(0.22 -0.22)">
       <defs>
        <path id="DejaVuSans-31" d="M 794 531 
L 1825 531 
L 1825 4091 
L 703 3866 
L 703 4441 
L 1819 4666 
L 2450 4666 
L 2450 531 
L 3481 531 
L 3481 0 
L 794 0 
L 794 531 
z
" transform="scale(0.015625)"/>
       </defs>
       <use xlink:href="#DejaVuSans-31"/>
       <use xlink:href="#DejaVuSans-30" x="63.623047"/>
      </g>
     </g>
    </g>
    <g id="xtick_3">
     <g id="line2d_3">
      <g>
       <use xlink:href="#m4754a3ecc4" x="286.262707" y="499.48" style="stroke: #000000; stroke-width: 0.8"/>
      </g>
     </g>
     <g id="text_3">
      <!-- 20 -->
      <g transform="translate(272.265207 523.196563) scale(0.22 -0.22)">
       <defs>
        <path id="DejaVuSans-32" d="M 1228 531 
L 3431 531 
L 3431 0 
L 469 0 
L 469 531 
Q 828 903 1448 1529 
Q 2069 2156 2228 2338 
Q 2531 2678 2651 2914 
Q 2772 3150 2772 3378 
Q 2772 3750 2511 3984 
Q 2250 4219 1831 4219 
Q 1534 4219 1204 4116 
Q 875 4013 500 3803 
L 500 4441 
Q 881 4594 1212 4672 
Q 1544 4750 1819 4750 
Q 2544 4750 2975 4387 
Q 3406 4025 3406 3419 
Q 3406 3131 3298 2873 
Q 3191 2616 2906 2266 
Q 2828 2175 2409 1742 
Q 1991 1309 1228 531 
z
" transform="scale(0.015625)"/>
       </defs>
       <use xlink:href="#DejaVuSans-32"/>
       <use xlink:href="#DejaVuSans-30" x="63.623047"/>
      </g>
     </g>
    </g>
    <g id="xtick_4">
     <g id="line2d_4">
      <g>
       <use xlink:href="#m4754a3ecc4" x="381.285079" y="499.48" style="stroke: #000000; stroke-width: 0.8"/>
      </g>
     </g>
     <g id="text_4">
      <!-- 30 -->
      <g transform="translate(367.287579 523.196563) scale(0.22 -0.22)">
       <defs>
        <path id="DejaVuSans-33" d="M 2597 2516 
Q 3050 2419 3304 2112 
Q 3559 1806 3559 1356 
Q 3559 666 3084 287 
Q 2609 -91 1734 -91 
Q 1441 -91 1130 -33 
Q 819 25 488 141 
L 488 750 
Q 750 597 1062 519 
Q 1375 441 1716 441 
Q 2309 441 2620 675 
Q 2931 909 2931 1356 
Q 2931 1769 2642 2001 
Q 2353 2234 1838 2234 
L 1294 2234 
L 1294 2753 
L 1863 2753 
Q 2328 2753 2575 2939 
Q 2822 3125 2822 3475 
Q 2822 3834 2567 4026 
Q 2313 4219 1838 4219 
Q 1578 4219 1281 4162 
Q 984 4106 628 3988 
L 628 4550 
Q 988 4650 1302 4700 
Q 1616 4750 1894 4750 
Q 2613 4750 3031 4423 
Q 3450 4097 3450 3541 
Q 3450 3153 3228 2886 
Q 3006 2619 2597 2516 
z
" transform="scale(0.015625)"/>
       </defs>
       <use xlink:href="#DejaVuSans-33"/>
       <use xlink:href="#DejaVuSans-30" x="63.623047"/>
      </g>
     </g>
    </g>
    <g id="xtick_5">
     <g id="line2d_5">
      <g>
       <use xlink:href="#m4754a3ecc4" x="476.307452" y="499.48" style="stroke: #000000; stroke-width: 0.8"/>
      </g>
     </g>
     <g id="text_5">
      <!-- 40 -->
      <g transform="translate(462.309952 523.196563) scale(0.22 -0.22)">
       <defs>
        <path id="DejaVuSans-34" d="M 2419 4116 
L 825 1625 
L 2419 1625 
L 2419 4116 
z
M 2253 4666 
L 3047 4666 
L 3047 1625 
L 3713 1625 
L 3713 1100 
L 3047 1100 
L 3047 0 
L 2419 0 
L 2419 1100 
L 313 1100 
L 313 1709 
L 2253 4666 
z
" transform="scale(0.015625)"/>
       </defs>
       <use xlink:href="#DejaVuSans-34"/>
       <use xlink:href="#DejaVuSans-30" x="63.623047"/>
      </g>
     </g>
    </g>
    <g id="xtick_6">
     <g id="line2d_6">
      <g>
       <use xlink:href="#m4754a3ecc4" x="571.329825" y="499.48" style="stroke: #000000; stroke-width: 0.8"/>
      </g>
     </g>
     <g id="text_6">
      <!-- 50 -->
      <g transform="translate(557.332325 523.196563) scale(0.22 -0.22)">
       <defs>
        <path id="DejaVuSans-35" d="M 691 4666 
L 3169 4666 
L 3169 4134 
L 1269 4134 
L 1269 2991 
Q 1406 3038 1543 3061 
Q 1681 3084 1819 3084 
Q 2600 3084 3056 2656 
Q 3513 2228 3513 1497 
Q 3513 744 3044 326 
Q 2575 -91 1722 -91 
Q 1428 -91 1123 -41 
Q 819 9 494 109 
L 494 744 
Q 775 591 1075 516 
Q 1375 441 1709 441 
Q 2250 441 2565 725 
Q 2881 1009 2881 1497 
Q 2881 1984 2565 2268 
Q 2250 2553 1709 2553 
Q 1456 2553 1204 2497 
Q 953 2441 691 2322 
L 691 4666 
z
" transform="scale(0.015625)"/>
       </defs>
       <use xlink:href="#DejaVuSans-35"/>
       <use xlink:href="#DejaVuSans-30" x="63.623047"/>
      </g>
     </g>
    </g>
    <g id="xtick_7">
     <g id="line2d_7">
      <g>
       <use xlink:href="#m4754a3ecc4" x="666.352197" y="499.48" style="stroke: #000000; stroke-width: 0.8"/>
      </g>
     </g>
     <g id="text_7">
      <!-- 60 -->
      <g transform="translate(652.354697 523.196563) scale(0.22 -0.22)">
       <defs>
        <path id="DejaVuSans-36" d="M 2113 2584 
Q 1688 2584 1439 2293 
Q 1191 2003 1191 1497 
Q 1191 994 1439 701 
Q 1688 409 2113 409 
Q 2538 409 2786 701 
Q 3034 994 3034 1497 
Q 3034 2003 2786 2293 
Q 2538 2584 2113 2584 
z
M 3366 4563 
L 3366 3988 
Q 3128 4100 2886 4159 
Q 2644 4219 2406 4219 
Q 1781 4219 1451 3797 
Q 1122 3375 1075 2522 
Q 1259 2794 1537 2939 
Q 1816 3084 2150 3084 
Q 2853 3084 3261 2657 
Q 3669 2231 3669 1497 
Q 3669 778 3244 343 
Q 2819 -91 2113 -91 
Q 1303 -91 875 529 
Q 447 1150 447 2328 
Q 447 3434 972 4092 
Q 1497 4750 2381 4750 
Q 2619 4750 2861 4703 
Q 3103 4656 3366 4563 
z
" transform="scale(0.015625)"/>
       </defs>
       <use xlink:href="#DejaVuSans-36"/>
       <use xlink:href="#DejaVuSans-30" x="63.623047"/>
      </g>
     </g>
    </g>
    <g id="text_8">
     <!-- Force Uncertainties -->
     <g transform="translate(283.426094 548.488438) scale(0.22 -0.22)">
      <defs>
       <path id="DejaVuSans-46" d="M 628 4666 
L 3309 4666 
L 3309 4134 
L 1259 4134 
L 1259 2759 
L 3109 2759 
L 3109 2228 
L 1259 2228 
L 1259 0 
L 628 0 
L 628 4666 
z
" transform="scale(0.015625)"/>
       <path id="DejaVuSans-6f" d="M 1959 3097 
Q 1497 3097 1228 2736 
Q 959 2375 959 1747 
Q 959 1119 1226 758 
Q 1494 397 1959 397 
Q 2419 397 2687 759 
Q 2956 1122 2956 1747 
Q 2956 2369 2687 2733 
Q 2419 3097 1959 3097 
z
M 1959 3584 
Q 2709 3584 3137 3096 
Q 3566 2609 3566 1747 
Q 3566 888 3137 398 
Q 2709 -91 1959 -91 
Q 1206 -91 779 398 
Q 353 888 353 1747 
Q 353 2609 779 3096 
Q 1206 3584 1959 3584 
z
" transform="scale(0.015625)"/>
       <path id="DejaVuSans-72" d="M 2631 2963 
Q 2534 3019 2420 3045 
Q 2306 3072 2169 3072 
Q 1681 3072 1420 2755 
Q 1159 2438 1159 1844 
L 1159 0 
L 581 0 
L 581 3500 
L 1159 3500 
L 1159 2956 
Q 1341 3275 1631 3429 
Q 1922 3584 2338 3584 
Q 2397 3584 2469 3576 
Q 2541 3569 2628 3553 
L 2631 2963 
z
" transform="scale(0.015625)"/>
       <path id="DejaVuSans-63" d="M 3122 3366 
L 3122 2828 
Q 2878 2963 2633 3030 
Q 2388 3097 2138 3097 
Q 1578 3097 1268 2742 
Q 959 2388 959 1747 
Q 959 1106 1268 751 
Q 1578 397 2138 397 
Q 2388 397 2633 464 
Q 2878 531 3122 666 
L 3122 134 
Q 2881 22 2623 -34 
Q 2366 -91 2075 -91 
Q 1284 -91 818 406 
Q 353 903 353 1747 
Q 353 2603 823 3093 
Q 1294 3584 2113 3584 
Q 2378 3584 2631 3529 
Q 2884 3475 3122 3366 
z
" transform="scale(0.015625)"/>
       <path id="DejaVuSans-65" d="M 3597 1894 
L 3597 1613 
L 953 1613 
Q 991 1019 1311 708 
Q 1631 397 2203 397 
Q 2534 397 2845 478 
Q 3156 559 3463 722 
L 3463 178 
Q 3153 47 2828 -22 
Q 2503 -91 2169 -91 
Q 1331 -91 842 396 
Q 353 884 353 1716 
Q 353 2575 817 3079 
Q 1281 3584 2069 3584 
Q 2775 3584 3186 3129 
Q 3597 2675 3597 1894 
z
M 3022 2063 
Q 3016 2534 2758 2815 
Q 2500 3097 2075 3097 
Q 1594 3097 1305 2825 
Q 1016 2553 972 2059 
L 3022 2063 
z
" transform="scale(0.015625)"/>
       <path id="DejaVuSans-20" transform="scale(0.015625)"/>
       <path id="DejaVuSans-55" d="M 556 4666 
L 1191 4666 
L 1191 1831 
Q 1191 1081 1462 751 
Q 1734 422 2344 422 
Q 2950 422 3222 751 
Q 3494 1081 3494 1831 
L 3494 4666 
L 4128 4666 
L 4128 1753 
Q 4128 841 3676 375 
Q 3225 -91 2344 -91 
Q 1459 -91 1007 375 
Q 556 841 556 1753 
L 556 4666 
z
" transform="scale(0.015625)"/>
       <path id="DejaVuSans-6e" d="M 3513 2113 
L 3513 0 
L 2938 0 
L 2938 2094 
Q 2938 2591 2744 2837 
Q 2550 3084 2163 3084 
Q 1697 3084 1428 2787 
Q 1159 2491 1159 1978 
L 1159 0 
L 581 0 
L 581 3500 
L 1159 3500 
L 1159 2956 
Q 1366 3272 1645 3428 
Q 1925 3584 2291 3584 
Q 2894 3584 3203 3211 
Q 3513 2838 3513 2113 
z
" transform="scale(0.015625)"/>
       <path id="DejaVuSans-74" d="M 1172 4494 
L 1172 3500 
L 2356 3500 
L 2356 3053 
L 1172 3053 
L 1172 1153 
Q 1172 725 1289 603 
Q 1406 481 1766 481 
L 2356 481 
L 2356 0 
L 1766 0 
Q 1100 0 847 248 
Q 594 497 594 1153 
L 594 3053 
L 172 3053 
L 172 3500 
L 594 3500 
L 594 4494 
L 1172 4494 
z
" transform="scale(0.015625)"/>
       <path id="DejaVuSans-61" d="M 2194 1759 
Q 1497 1759 1228 1600 
Q 959 1441 959 1056 
Q 959 750 1161 570 
Q 1363 391 1709 391 
Q 2188 391 2477 730 
Q 2766 1069 2766 1631 
L 2766 1759 
L 2194 1759 
z
M 3341 1997 
L 3341 0 
L 2766 0 
L 2766 531 
Q 2569 213 2275 61 
Q 1981 -91 1556 -91 
Q 1019 -91 701 211 
Q 384 513 384 1019 
Q 384 1609 779 1909 
Q 1175 2209 1959 2209 
L 2766 2209 
L 2766 2266 
Q 2766 2663 2505 2880 
Q 2244 3097 1772 3097 
Q 1472 3097 1187 3025 
Q 903 2953 641 2809 
L 641 3341 
Q 956 3463 1253 3523 
Q 1550 3584 1831 3584 
Q 2591 3584 2966 3190 
Q 3341 2797 3341 1997 
z
" transform="scale(0.015625)"/>
       <path id="DejaVuSans-69" d="M 603 3500 
L 1178 3500 
L 1178 0 
L 603 0 
L 603 3500 
z
M 603 4863 
L 1178 4863 
L 1178 4134 
L 603 4134 
L 603 4863 
z
" transform="scale(0.015625)"/>
       <path id="DejaVuSans-73" d="M 2834 3397 
L 2834 2853 
Q 2591 2978 2328 3040 
Q 2066 3103 1784 3103 
Q 1356 3103 1142 2972 
Q 928 2841 928 2578 
Q 928 2378 1081 2264 
Q 1234 2150 1697 2047 
L 1894 2003 
Q 2506 1872 2764 1633 
Q 3022 1394 3022 966 
Q 3022 478 2636 193 
Q 2250 -91 1575 -91 
Q 1294 -91 989 -36 
Q 684 19 347 128 
L 347 722 
Q 666 556 975 473 
Q 1284 391 1588 391 
Q 1994 391 2212 530 
Q 2431 669 2431 922 
Q 2431 1156 2273 1281 
Q 2116 1406 1581 1522 
L 1381 1569 
Q 847 1681 609 1914 
Q 372 2147 372 2553 
Q 372 3047 722 3315 
Q 1072 3584 1716 3584 
Q 2034 3584 2315 3537 
Q 2597 3491 2834 3397 
z
" transform="scale(0.015625)"/>
      </defs>
      <use xlink:href="#DejaVuSans-46"/>
      <use xlink:href="#DejaVuSans-6f" x="53.894531"/>
      <use xlink:href="#DejaVuSans-72" x="115.076172"/>
      <use xlink:href="#DejaVuSans-63" x="153.939453"/>
      <use xlink:href="#DejaVuSans-65" x="208.919922"/>
      <use xlink:href="#DejaVuSans-20" x="270.443359"/>
      <use xlink:href="#DejaVuSans-55" x="302.230469"/>
      <use xlink:href="#DejaVuSans-6e" x="375.423828"/>
      <use xlink:href="#DejaVuSans-63" x="438.802734"/>
      <use xlink:href="#DejaVuSans-65" x="493.783203"/>
      <use xlink:href="#DejaVuSans-72" x="555.306641"/>
      <use xlink:href="#DejaVuSans-74" x="596.419922"/>
      <use xlink:href="#DejaVuSans-61" x="635.628906"/>
      <use xlink:href="#DejaVuSans-69" x="696.908203"/>
      <use xlink:href="#DejaVuSans-6e" x="724.691406"/>
      <use xlink:href="#DejaVuSans-74" x="788.070312"/>
      <use xlink:href="#DejaVuSans-69" x="827.279297"/>
      <use xlink:href="#DejaVuSans-65" x="855.0625"/>
      <use xlink:href="#DejaVuSans-73" x="916.585938"/>
     </g>
    </g>
   </g>
   <g id="matplotlib.axis_2">
    <g id="ytick_1">
     <g id="line2d_8">
      <defs>
       <path id="m0d064885b3" d="M 0 0 
L -3.5 0 
" style="stroke: #000000; stroke-width: 0.8"/>
      </defs>
      <g>
       <use xlink:href="#m0d064885b3" x="83.72" y="489.773329" style="stroke: #000000; stroke-width: 0.8"/>
      </g>
     </g>
     <g id="text_9">
      <!-- 0 -->
      <g transform="translate(62.7225 498.13161) scale(0.22 -0.22)">
       <use xlink:href="#DejaVuSans-30"/>
      </g>
     </g>
    </g>
    <g id="ytick_2">
     <g id="line2d_9">
      <g>
       <use xlink:href="#m0d064885b3" x="83.72" y="415.973219" style="stroke: #000000; stroke-width: 0.8"/>
      </g>
     </g>
     <g id="text_10">
      <!-- 10 -->
      <g transform="translate(48.725 424.3315) scale(0.22 -0.22)">
       <use xlink:href="#DejaVuSans-31"/>
       <use xlink:href="#DejaVuSans-30" x="63.623047"/>
      </g>
     </g>
    </g>
    <g id="ytick_3">
     <g id="line2d_10">
      <g>
       <use xlink:href="#m0d064885b3" x="83.72" y="342.17311" style="stroke: #000000; stroke-width: 0.8"/>
      </g>
     </g>
     <g id="text_11">
      <!-- 20 -->
      <g transform="translate(48.725 350.531391) scale(0.22 -0.22)">
       <use xlink:href="#DejaVuSans-32"/>
       <use xlink:href="#DejaVuSans-30" x="63.623047"/>
      </g>
     </g>
    </g>
    <g id="ytick_4">
     <g id="line2d_11">
      <g>
       <use xlink:href="#m0d064885b3" x="83.72" y="268.373" style="stroke: #000000; stroke-width: 0.8"/>
      </g>
     </g>
     <g id="text_12">
      <!-- 30 -->
      <g transform="translate(48.725 276.731281) scale(0.22 -0.22)">
       <use xlink:href="#DejaVuSans-33"/>
       <use xlink:href="#DejaVuSans-30" x="63.623047"/>
      </g>
     </g>
    </g>
    <g id="ytick_5">
     <g id="line2d_12">
      <g>
       <use xlink:href="#m0d064885b3" x="83.72" y="194.572891" style="stroke: #000000; stroke-width: 0.8"/>
      </g>
     </g>
     <g id="text_13">
      <!-- 40 -->
      <g transform="translate(48.725 202.931172) scale(0.22 -0.22)">
       <use xlink:href="#DejaVuSans-34"/>
       <use xlink:href="#DejaVuSans-30" x="63.623047"/>
      </g>
     </g>
    </g>
    <g id="ytick_6">
     <g id="line2d_13">
      <g>
       <use xlink:href="#m0d064885b3" x="83.72" y="120.772781" style="stroke: #000000; stroke-width: 0.8"/>
      </g>
     </g>
     <g id="text_14">
      <!-- 50 -->
      <g transform="translate(48.725 129.131062) scale(0.22 -0.22)">
       <use xlink:href="#DejaVuSans-35"/>
       <use xlink:href="#DejaVuSans-30" x="63.623047"/>
      </g>
     </g>
    </g>
    <g id="ytick_7">
     <g id="line2d_14">
      <g>
       <use xlink:href="#m0d064885b3" x="83.72" y="46.972672" style="stroke: #000000; stroke-width: 0.8"/>
      </g>
     </g>
     <g id="text_15">
      <!-- 60 -->
      <g transform="translate(48.725 55.330953) scale(0.22 -0.22)">
       <use xlink:href="#DejaVuSans-36"/>
       <use xlink:href="#DejaVuSans-30" x="63.623047"/>
      </g>
     </g>
    </g>
    <g id="text_16">
     <!-- Force Errors [kJ/(mol*A)] -->
     <g transform="translate(40.149688 394.9125) rotate(-90) scale(0.22 -0.22)">
      <defs>
       <path id="DejaVuSans-45" d="M 628 4666 
L 3578 4666 
L 3578 4134 
L 1259 4134 
L 1259 2753 
L 3481 2753 
L 3481 2222 
L 1259 2222 
L 1259 531 
L 3634 531 
L 3634 0 
L 628 0 
L 628 4666 
z
" transform="scale(0.015625)"/>
       <path id="DejaVuSans-5b" d="M 550 4863 
L 1875 4863 
L 1875 4416 
L 1125 4416 
L 1125 -397 
L 1875 -397 
L 1875 -844 
L 550 -844 
L 550 4863 
z
" transform="scale(0.015625)"/>
       <path id="DejaVuSans-6b" d="M 581 4863 
L 1159 4863 
L 1159 1991 
L 2875 3500 
L 3609 3500 
L 1753 1863 
L 3688 0 
L 2938 0 
L 1159 1709 
L 1159 0 
L 581 0 
L 581 4863 
z
" transform="scale(0.015625)"/>
       <path id="DejaVuSans-4a" d="M 628 4666 
L 1259 4666 
L 1259 325 
Q 1259 -519 939 -900 
Q 619 -1281 -91 -1281 
L -331 -1281 
L -331 -750 
L -134 -750 
Q 284 -750 456 -515 
Q 628 -281 628 325 
L 628 4666 
z
" transform="scale(0.015625)"/>
       <path id="DejaVuSans-2f" d="M 1625 4666 
L 2156 4666 
L 531 -594 
L 0 -594 
L 1625 4666 
z
" transform="scale(0.015625)"/>
       <path id="DejaVuSans-28" d="M 1984 4856 
Q 1566 4138 1362 3434 
Q 1159 2731 1159 2009 
Q 1159 1288 1364 580 
Q 1569 -128 1984 -844 
L 1484 -844 
Q 1016 -109 783 600 
Q 550 1309 550 2009 
Q 550 2706 781 3412 
Q 1013 4119 1484 4856 
L 1984 4856 
z
" transform="scale(0.015625)"/>
       <path id="DejaVuSans-6d" d="M 3328 2828 
Q 3544 3216 3844 3400 
Q 4144 3584 4550 3584 
Q 5097 3584 5394 3201 
Q 5691 2819 5691 2113 
L 5691 0 
L 5113 0 
L 5113 2094 
Q 5113 2597 4934 2840 
Q 4756 3084 4391 3084 
Q 3944 3084 3684 2787 
Q 3425 2491 3425 1978 
L 3425 0 
L 2847 0 
L 2847 2094 
Q 2847 2600 2669 2842 
Q 2491 3084 2119 3084 
Q 1678 3084 1418 2786 
Q 1159 2488 1159 1978 
L 1159 0 
L 581 0 
L 581 3500 
L 1159 3500 
L 1159 2956 
Q 1356 3278 1631 3431 
Q 1906 3584 2284 3584 
Q 2666 3584 2933 3390 
Q 3200 3197 3328 2828 
z
" transform="scale(0.015625)"/>
       <path id="DejaVuSans-6c" d="M 603 4863 
L 1178 4863 
L 1178 0 
L 603 0 
L 603 4863 
z
" transform="scale(0.015625)"/>
       <path id="DejaVuSans-2a" d="M 3009 3897 
L 1888 3291 
L 3009 2681 
L 2828 2375 
L 1778 3009 
L 1778 1831 
L 1422 1831 
L 1422 3009 
L 372 2375 
L 191 2681 
L 1313 3291 
L 191 3897 
L 372 4206 
L 1422 3572 
L 1422 4750 
L 1778 4750 
L 1778 3572 
L 2828 4206 
L 3009 3897 
z
" transform="scale(0.015625)"/>
       <path id="DejaVuSans-41" d="M 2188 4044 
L 1331 1722 
L 3047 1722 
L 2188 4044 
z
M 1831 4666 
L 2547 4666 
L 4325 0 
L 3669 0 
L 3244 1197 
L 1141 1197 
L 716 0 
L 50 0 
L 1831 4666 
z
" transform="scale(0.015625)"/>
       <path id="DejaVuSans-29" d="M 513 4856 
L 1013 4856 
Q 1481 4119 1714 3412 
Q 1947 2706 1947 2009 
Q 1947 1309 1714 600 
Q 1481 -109 1013 -844 
L 513 -844 
Q 928 -128 1133 580 
Q 1338 1288 1338 2009 
Q 1338 2731 1133 3434 
Q 928 4138 513 4856 
z
" transform="scale(0.015625)"/>
       <path id="DejaVuSans-5d" d="M 1947 4863 
L 1947 -844 
L 622 -844 
L 622 -397 
L 1369 -397 
L 1369 4416 
L 622 4416 
L 622 4863 
L 1947 4863 
z
" transform="scale(0.015625)"/>
      </defs>
      <use xlink:href="#DejaVuSans-46"/>
      <use xlink:href="#DejaVuSans-6f" x="53.894531"/>
      <use xlink:href="#DejaVuSans-72" x="115.076172"/>
      <use xlink:href="#DejaVuSans-63" x="153.939453"/>
      <use xlink:href="#DejaVuSans-65" x="208.919922"/>
      <use xlink:href="#DejaVuSans-20" x="270.443359"/>
      <use xlink:href="#DejaVuSans-45" x="302.230469"/>
      <use xlink:href="#DejaVuSans-72" x="365.414062"/>
      <use xlink:href="#DejaVuSans-72" x="404.777344"/>
      <use xlink:href="#DejaVuSans-6f" x="443.640625"/>
      <use xlink:href="#DejaVuSans-72" x="504.822266"/>
      <use xlink:href="#DejaVuSans-73" x="545.935547"/>
      <use xlink:href="#DejaVuSans-20" x="598.035156"/>
      <use xlink:href="#DejaVuSans-5b" x="629.822266"/>
      <use xlink:href="#DejaVuSans-6b" x="668.835938"/>
      <use xlink:href="#DejaVuSans-4a" x="726.746094"/>
      <use xlink:href="#DejaVuSans-2f" x="756.238281"/>
      <use xlink:href="#DejaVuSans-28" x="789.929688"/>
      <use xlink:href="#DejaVuSans-6d" x="828.943359"/>
      <use xlink:href="#DejaVuSans-6f" x="926.355469"/>
      <use xlink:href="#DejaVuSans-6c" x="987.537109"/>
      <use xlink:href="#DejaVuSans-2a" x="1015.320312"/>
      <use xlink:href="#DejaVuSans-41" x="1065.320312"/>
      <use xlink:href="#DejaVuSans-29" x="1133.728516"/>
      <use xlink:href="#DejaVuSans-5d" x="1172.742188"/>
     </g>
    </g>
   </g>
   <g id="line2d_15">
    <path d="M 83.72 499.48 
L 696.24 23.76 
" clip-path="url(#p0a2ca92796)" style="fill: none; stroke-dasharray: 5.55,2.4; stroke-dashoffset: 0; stroke: #ff0000; stroke-width: 1.5"/>
   </g>
   <g id="patch_3">
    <path d="M 83.72 499.48 
L 83.72 23.76 
" style="fill: none; stroke: #000000; stroke-width: 0.8; stroke-linejoin: miter; stroke-linecap: square"/>
   </g>
   <g id="patch_4">
    <path d="M 696.24 499.48 
L 696.24 23.76 
" style="fill: none; stroke: #000000; stroke-width: 0.8; stroke-linejoin: miter; stroke-linecap: square"/>
   </g>
   <g id="patch_5">
    <path d="M 83.72 499.48 
L 696.24 499.48 
" style="fill: none; stroke: #000000; stroke-width: 0.8; stroke-linejoin: miter; stroke-linecap: square"/>
   </g>
   <g id="patch_6">
    <path d="M 83.72 23.76 
L 696.24 23.76 
" style="fill: none; stroke: #000000; stroke-width: 0.8; stroke-linejoin: miter; stroke-linecap: square"/>
   </g>
   <g id="text_17">
    <!-- Correlation in: 0.615 -->
    <g transform="translate(144.972 71.332) scale(0.22 -0.22)">
     <defs>
      <path id="DejaVuSans-43" d="M 4122 4306 
L 4122 3641 
Q 3803 3938 3442 4084 
Q 3081 4231 2675 4231 
Q 1875 4231 1450 3742 
Q 1025 3253 1025 2328 
Q 1025 1406 1450 917 
Q 1875 428 2675 428 
Q 3081 428 3442 575 
Q 3803 722 4122 1019 
L 4122 359 
Q 3791 134 3420 21 
Q 3050 -91 2638 -91 
Q 1578 -91 968 557 
Q 359 1206 359 2328 
Q 359 3453 968 4101 
Q 1578 4750 2638 4750 
Q 3056 4750 3426 4639 
Q 3797 4528 4122 4306 
z
" transform="scale(0.015625)"/>
      <path id="DejaVuSans-3a" d="M 750 794 
L 1409 794 
L 1409 0 
L 750 0 
L 750 794 
z
M 750 3309 
L 1409 3309 
L 1409 2516 
L 750 2516 
L 750 3309 
z
" transform="scale(0.015625)"/>
      <path id="DejaVuSans-2e" d="M 684 794 
L 1344 794 
L 1344 0 
L 684 0 
L 684 794 
z
" transform="scale(0.015625)"/>
     </defs>
     <use xlink:href="#DejaVuSans-43"/>
     <use xlink:href="#DejaVuSans-6f" x="69.824219"/>
     <use xlink:href="#DejaVuSans-72" x="131.005859"/>
     <use xlink:href="#DejaVuSans-72" x="170.369141"/>
     <use xlink:href="#DejaVuSans-65" x="209.232422"/>
     <use xlink:href="#DejaVuSans-6c" x="270.755859"/>
     <use xlink:href="#DejaVuSans-61" x="298.539062"/>
     <use xlink:href="#DejaVuSans-74" x="359.818359"/>
     <use xlink:href="#DejaVuSans-69" x="399.027344"/>
     <use xlink:href="#DejaVuSans-6f" x="426.810547"/>
     <use xlink:href="#DejaVuSans-6e" x="487.992188"/>
     <use xlink:href="#DejaVuSans-20" x="551.371094"/>
     <use xlink:href="#DejaVuSans-69" x="583.158203"/>
     <use xlink:href="#DejaVuSans-6e" x="610.941406"/>
     <use xlink:href="#DejaVuSans-3a" x="674.320312"/>
     <use xlink:href="#DejaVuSans-20" x="708.011719"/>
     <use xlink:href="#DejaVuSans-30" x="739.798828"/>
     <use xlink:href="#DejaVuSans-2e" x="803.421875"/>
     <use xlink:href="#DejaVuSans-36" x="835.208984"/>
     <use xlink:href="#DejaVuSans-31" x="898.832031"/>
     <use xlink:href="#DejaVuSans-35" x="962.455078"/>
    </g>
   </g>
  </g>
 </g>
 <defs>
  <clipPath id="p0a2ca92796">
   <rect x="83.72" y="23.76" width="612.52" height="475.72"/>
  </clipPath>
 </defs>
</svg>
