<?xml version="1.0" encoding="utf-8" standalone="no"?>
<!DOCTYPE svg PUBLIC "-//W3C//DTD SVG 1.1//EN"
  "http://www.w3.org/Graphics/SVG/1.1/DTD/svg11.dtd">
<svg xmlns:xlink="http://www.w3.org/1999/xlink" width="720pt" height="576pt" viewBox="0 0 720 576" xmlns="http://www.w3.org/2000/svg" version="1.1">
 <metadata>
  <rdf:RDF xmlns:dc="http://purl.org/dc/elements/1.1/" xmlns:cc="http://creativecommons.org/ns#" xmlns:rdf="http://www.w3.org/1999/02/22-rdf-syntax-ns#">
   <cc:Work>
    <dc:type rdf:resource="http://purl.org/dc/dcmitype/StillImage"/>
    <dc:date>2024-12-07T16:31:31.671076</dc:date>
    <dc:format>image/svg+xml</dc:format>
    <dc:creator>
     <cc:Agent>
      <dc:title>Matplotlib v3.8.4, https://matplotlib.org/</dc:title>
     </cc:Agent>
    </dc:creator>
   </cc:Work>
  </rdf:RDF>
 </metadata>
 <defs>
  <style type="text/css">*{stroke-linejoin: round; stroke-linecap: butt}</style>
 </defs>
 <g id="figure_1">
  <g id="patch_1">
   <path d="M 0 576 
L 720 576 
L 720 0 
L 0 0 
z
" style="fill: #ffffff"/>
  </g>
  <g id="axes_1">
   <g id="patch_2">
    <path d="M 83.72 499.48 
L 696.24 499.48 
L 696.24 23.76 
L 83.72 23.76 
z
" style="fill: #ffffff"/>
   </g>
   <g id="QuadContourSet_1">
    <path d="M 81.288196 495.338269 
L 83.631689 496.070223 
L 85.975181 496.562625 
L 88.318674 496.885107 
L 90.662167 497.082618 
L 93.00566 497.183977 
L 95.349152 497.20714 
L 97.692645 497.162462 
L 100.036138 497.054734 
L 102.37963 496.884447 
L 104.723123 496.648629 
L 107.066616 496.341556 
L 109.410108 495.955778 
L 111.753601 495.484159 
L 114.097094 494.924046 
L 115.189335 494.645624 
L 116.440586 494.434545 
L 118.784079 494.035998 
L 121.127572 493.648167 
L 123.471065 493.328645 
L 125.814557 493.15362 
L 128.15805 493.19134 
L 130.501543 493.460229 
L 132.845035 493.906085 
L 135.188528 494.427367 
L 136.153808 494.645624 
L 137.532021 495.041999 
L 139.875513 495.63006 
L 142.219006 496.084299 
L 144.562499 496.413863 
L 146.905991 496.636151 
L 149.249484 496.768638 
L 151.592977 496.82543 
L 153.93647 496.816215 
L 156.279962 496.746194 
L 158.623455 496.616286 
L 160.966948 496.423257 
L 163.31044 496.159568 
L 165.653933 495.812821 
L 167.997426 495.364654 
L 170.340918 494.788935 
L 170.84166 494.645624 
L 172.684411 494.295685 
L 175.027904 493.750145 
L 177.371396 493.060137 
L 179.714889 492.178158 
L 179.999243 492.060969 
L 182.058382 491.444989 
L 184.401875 490.572145 
L 186.698914 489.476313 
L 186.745367 489.458839 
L 189.08886 488.534739 
L 191.432353 487.346733 
L 192.243666 486.891658 
L 193.775845 486.152991 
L 196.119338 484.79697 
L 196.890854 484.307003 
L 198.462831 483.371734 
L 200.76183 481.722347 
L 200.806323 481.689709 
L 203.149816 479.927068 
L 204.086079 479.137692 
L 205.493309 477.802299 
L 206.739592 476.553037 
L 207.836801 475.183449 
L 208.819101 473.968381 
L 210.180294 471.616862 
L 210.325271 471.383726 
L 211.457766 468.799071 
L 212.050969 466.214415 
L 212.195313 463.62976 
L 211.86257 461.045105 
L 210.881178 458.460449 
L 210.180294 457.421661 
L 209.0385 455.875794 
L 207.836801 454.763735 
L 205.858464 453.291139 
L 205.493309 453.059153 
L 203.149816 451.754706 
L 200.806323 450.793088 
L 200.561623 450.706483 
L 198.462831 449.895084 
L 196.119338 449.184408 
L 193.775845 448.643035 
L 191.432353 448.241871 
L 190.490251 448.121828 
L 189.08886 447.883299 
L 186.745367 447.610639 
L 184.401875 447.460565 
L 182.058382 447.418624 
L 179.714889 447.472929 
L 177.371396 447.613775 
L 175.027904 447.832847 
L 172.684411 448.121828 
L 172.684411 448.121828 
L 170.340918 448.335145 
L 167.997426 448.572588 
L 165.653933 448.82304 
L 163.31044 449.070324 
L 160.966948 449.291462 
L 158.623455 449.456582 
L 156.279962 449.532096 
L 153.93647 449.488099 
L 151.592977 449.308543 
L 149.249484 448.999874 
L 146.905991 448.593024 
L 144.562499 448.136656 
L 144.490425 448.121828 
L 142.219006 447.525136 
L 139.875513 446.981772 
L 137.532021 446.544526 
L 135.188528 446.22712 
L 132.845035 446.02956 
L 130.501543 445.94424 
L 128.15805 445.961285 
L 125.814557 446.072438 
L 123.471065 446.273623 
L 121.127572 446.566693 
L 118.784079 446.960905 
L 116.440586 447.474639 
L 114.14902 448.121828 
L 114.097094 448.131635 
L 111.753601 448.641803 
L 109.410108 449.278195 
L 107.066616 450.087036 
L 105.592787 450.706483 
L 104.723123 450.964786 
L 102.37963 451.775605 
L 100.036138 452.835081 
L 99.169889 453.291139 
L 97.692645 453.879611 
L 95.349152 455.037332 
L 93.967457 455.875794 
L 93.00566 456.349149 
L 90.662167 457.726977 
L 89.614178 458.460449 
L 88.318674 459.251191 
L 85.97867 461.045105 
L 85.975181 461.047602 
L 83.631689 462.820563 
L 82.716874 463.62976 
L 81.288196 464.906155 
L 79.958046 466.214415 
L 78.944703 467.300117 
L 77.592114 468.799071 
L 76.601211 470.096951 
L 75.588779 471.383726 
L 74.257718 473.571562 
L 73.992133 473.968381 
L 72.64678 476.553037 
L 71.914225 478.819516 
L 71.786497 479.137692 
L 71.217169 481.722347 
L 71.172845 484.307003 
L 71.741489 486.891658 
L 71.914225 487.260932 
L 72.965778 489.476313 
L 74.257718 491.013396 
L 75.328201 492.060969 
L 76.601211 493.031048 
L 78.944703 494.339764 
L 79.683897 494.645624 
z
M 85.824907 489.476313 
L 83.631689 488.202632 
L 82.061164 486.891658 
L 81.288196 485.87207 
L 80.28864 484.307003 
L 79.619252 481.722347 
L 79.699543 479.137692 
L 80.379904 476.553037 
L 81.288196 474.706545 
L 81.61392 473.968381 
L 83.306019 471.383726 
L 83.631689 470.991194 
L 85.469509 468.799071 
L 85.975181 468.287223 
L 88.180259 466.214415 
L 88.318674 466.093607 
L 90.662167 464.175327 
L 91.425589 463.62976 
L 93.00566 462.489001 
L 95.349152 461.101293 
L 95.452859 461.045105 
L 97.692645 459.717725 
L 100.036138 458.631591 
L 100.453996 458.460449 
L 102.37963 457.531143 
L 104.723123 456.621891 
L 107.066616 455.896098 
L 107.141951 455.875794 
L 109.410108 455.101553 
L 111.753601 454.472572 
L 114.097094 453.980696 
L 116.440586 453.603058 
L 118.784079 453.326908 
L 119.258531 453.291139 
L 121.127572 453.099879 
L 123.471065 452.997532 
L 125.814557 453.034857 
L 128.15805 453.219789 
L 128.673556 453.291139 
L 130.501543 453.507826 
L 132.845035 453.92024 
L 135.188528 454.471166 
L 137.532021 455.139637 
L 139.875513 455.875794 
L 139.875513 455.875794 
L 142.219006 456.482901 
L 144.562499 456.966341 
L 146.905991 457.254418 
L 149.249484 457.322913 
L 151.592977 457.196489 
L 153.93647 456.928917 
L 156.279962 456.578873 
L 158.623455 456.194485 
L 160.52865 455.875794 
L 160.966948 455.78408 
L 163.31044 455.286297 
L 165.653933 454.840193 
L 167.997426 454.456218 
L 170.340918 454.139682 
L 172.684411 453.894339 
L 175.027904 453.724679 
L 177.371396 453.637315 
L 179.714889 453.641846 
L 182.058382 453.751505 
L 184.401875 453.983872 
L 186.745367 454.361968 
L 189.08886 454.916133 
L 191.432353 455.68723 
L 191.904899 455.875794 
L 193.775845 456.651013 
L 196.119338 457.962435 
L 196.853457 458.460449 
L 198.462831 459.906884 
L 199.511725 461.045105 
L 200.806103 463.62976 
L 200.806323 463.631163 
L 201.2264 466.214415 
L 200.865454 468.799071 
L 200.806323 468.943842 
L 199.921896 471.383726 
L 198.462831 473.67144 
L 198.283839 473.968381 
L 196.119338 476.465116 
L 196.042518 476.553037 
L 193.775845 478.623185 
L 193.169663 479.137692 
L 191.432353 480.452707 
L 189.503273 481.722347 
L 189.08886 481.990531 
L 186.745367 483.398181 
L 184.924386 484.307003 
L 184.401875 484.587876 
L 182.058382 485.730523 
L 179.714889 486.647238 
L 179.006137 486.891658 
L 177.371396 487.556121 
L 175.027904 488.346021 
L 172.684411 488.979251 
L 170.40562 489.476313 
L 170.340918 489.494507 
L 167.997426 490.056229 
L 165.653933 490.489432 
L 163.31044 490.814749 
L 160.966948 491.045404 
L 158.623455 491.188327 
L 156.279962 491.244594 
L 153.93647 491.209392 
L 151.592977 491.071751 
L 149.249484 490.814456 
L 146.905991 490.415 
L 144.562499 489.849183 
L 143.331672 489.476313 
L 142.219006 489.156576 
L 139.875513 488.380411 
L 137.532021 487.543711 
L 135.497708 486.891658 
L 135.188528 486.802711 
L 132.845035 486.386501 
L 130.501543 486.276354 
L 128.15805 486.435745 
L 125.814557 486.781037 
L 125.283597 486.891658 
L 123.471065 487.336013 
L 121.127572 487.970648 
L 118.784079 488.586008 
L 116.440586 489.149165 
L 114.948313 489.476313 
L 114.097094 489.7161 
L 111.753601 490.306787 
L 109.410108 490.788283 
L 107.066616 491.169139 
L 104.723123 491.45691 
L 102.37963 491.656105 
L 100.036138 491.766902 
L 97.692645 491.783894 
L 95.349152 491.694365 
L 93.00566 491.475559 
L 90.662167 491.090251 
L 88.318674 490.479552 
L 85.975181 489.551043 
z
" clip-path="url(#p89f0011c85)" style="fill: #eaf2fb"/>
    <path d="M 85.975181 489.551043 
L 88.318674 490.479552 
L 90.662167 491.090251 
L 93.00566 491.475559 
L 95.349152 491.694365 
L 97.692645 491.783894 
L 100.036138 491.766902 
L 102.37963 491.656105 
L 104.723123 491.45691 
L 107.066616 491.169139 
L 109.410108 490.788283 
L 111.753601 490.306787 
L 114.097094 489.7161 
L 114.948313 489.476313 
L 116.440586 489.149165 
L 118.784079 488.586008 
L 121.127572 487.970648 
L 123.471065 487.336013 
L 125.283597 486.891658 
L 125.814557 486.781037 
L 128.15805 486.435745 
L 130.501543 486.276354 
L 132.845035 486.386501 
L 135.188528 486.802711 
L 135.497708 486.891658 
L 137.532021 487.543711 
L 139.875513 488.380411 
L 142.219006 489.156576 
L 143.331672 489.476313 
L 144.562499 489.849183 
L 146.905991 490.415 
L 149.249484 490.814456 
L 151.592977 491.071751 
L 153.93647 491.209392 
L 156.279962 491.244594 
L 158.623455 491.188327 
L 160.966948 491.045404 
L 163.31044 490.814749 
L 165.653933 490.489432 
L 167.997426 490.056229 
L 170.340918 489.494507 
L 170.40562 489.476313 
L 172.684411 488.979251 
L 175.027904 488.346021 
L 177.371396 487.556121 
L 179.006137 486.891658 
L 179.714889 486.647238 
L 182.058382 485.730523 
L 184.401875 484.587876 
L 184.924386 484.307003 
L 186.745367 483.398181 
L 189.08886 481.990531 
L 189.503273 481.722347 
L 191.432353 480.452707 
L 193.169663 479.137692 
L 193.775845 478.623185 
L 196.042518 476.553037 
L 196.119338 476.465116 
L 198.283839 473.968381 
L 198.462831 473.67144 
L 199.921896 471.383726 
L 200.806323 468.943842 
L 200.865454 468.799071 
L 201.2264 466.214415 
L 200.806323 463.631163 
L 200.806103 463.62976 
L 199.511725 461.045105 
L 198.462831 459.906884 
L 196.853457 458.460449 
L 196.119338 457.962435 
L 193.775845 456.651013 
L 191.904899 455.875794 
L 191.432353 455.68723 
L 189.08886 454.916133 
L 186.745367 454.361968 
L 184.401875 453.983872 
L 182.058382 453.751505 
L 179.714889 453.641846 
L 177.371396 453.637315 
L 175.027904 453.724679 
L 172.684411 453.894339 
L 170.340918 454.139682 
L 167.997426 454.456218 
L 165.653933 454.840193 
L 163.31044 455.286297 
L 160.966948 455.78408 
L 160.52865 455.875794 
L 158.623455 456.194485 
L 156.279962 456.578873 
L 153.93647 456.928917 
L 151.592977 457.196489 
L 149.249484 457.322913 
L 146.905991 457.254418 
L 144.562499 456.966341 
L 142.219006 456.482901 
L 139.875513 455.875794 
L 139.875513 455.875794 
L 137.532021 455.139637 
L 135.188528 454.471166 
L 132.845035 453.92024 
L 130.501543 453.507826 
L 128.673556 453.291139 
L 128.15805 453.219789 
L 125.814557 453.034857 
L 123.471065 452.997532 
L 121.127572 453.099879 
L 119.258531 453.291139 
L 118.784079 453.326908 
L 116.440586 453.603058 
L 114.097094 453.980696 
L 111.753601 454.472572 
L 109.410108 455.101553 
L 107.141951 455.875794 
L 107.066616 455.896098 
L 104.723123 456.621891 
L 102.37963 457.531143 
L 100.453996 458.460449 
L 100.036138 458.631591 
L 97.692645 459.717725 
L 95.452859 461.045105 
L 95.349152 461.101293 
L 93.00566 462.489001 
L 91.425589 463.62976 
L 90.662167 464.175327 
L 88.318674 466.093607 
L 88.180259 466.214415 
L 85.975181 468.287223 
L 85.469509 468.799071 
L 83.631689 470.991194 
L 83.306019 471.383726 
L 81.61392 473.968381 
L 81.288196 474.706545 
L 80.379904 476.553037 
L 79.699543 479.137692 
L 79.619252 481.722347 
L 80.28864 484.307003 
L 81.288196 485.87207 
L 82.061164 486.891658 
L 83.631689 488.202632 
L 85.824907 489.476313 
z
M 89.77983 486.891658 
L 88.318674 486.095941 
L 86.122233 484.307003 
L 85.975181 484.093598 
L 84.634999 481.722347 
L 84.301937 479.137692 
L 84.762671 476.553037 
L 85.921883 473.968381 
L 85.975181 473.889423 
L 87.618707 471.383726 
L 88.318674 470.585432 
L 89.943134 468.799071 
L 90.662167 468.132477 
L 92.947647 466.214415 
L 93.00566 466.169134 
L 95.349152 464.468567 
L 96.717098 463.62976 
L 97.692645 463.022723 
L 100.036138 461.765298 
L 101.650483 461.045105 
L 102.37963 460.68716 
L 104.723123 459.699184 
L 107.066616 458.910136 
L 108.699545 458.460449 
L 109.410108 458.227759 
L 111.753601 457.605568 
L 114.097094 457.136692 
L 116.440586 456.802802 
L 118.784079 456.596195 
L 121.127572 456.517966 
L 123.471065 456.576644 
L 125.814557 456.786566 
L 128.15805 457.164997 
L 130.501543 457.726676 
L 132.805392 458.460449 
L 132.845035 458.473678 
L 135.188528 459.33709 
L 137.532021 460.277832 
L 139.576688 461.045105 
L 139.875513 461.163869 
L 142.219006 461.815511 
L 144.562499 462.114708 
L 146.905991 462.079476 
L 149.249484 461.794333 
L 151.592977 461.357482 
L 152.967643 461.045105 
L 153.93647 460.814465 
L 156.279962 460.195349 
L 158.623455 459.598605 
L 160.966948 459.049357 
L 163.31044 458.559042 
L 163.832281 458.460449 
L 165.653933 458.057007 
L 167.997426 457.627265 
L 170.340918 457.295292 
L 172.684411 457.063529 
L 175.027904 456.937619 
L 177.371396 456.927575 
L 179.714889 457.048717 
L 182.058382 457.322808 
L 184.401875 457.779759 
L 186.745367 458.460449 
L 186.745367 458.460449 
L 189.08886 459.399116 
L 191.432353 460.741849 
L 191.866962 461.045105 
L 193.775845 462.999991 
L 194.285001 463.62976 
L 195.282217 466.214415 
L 195.273771 468.799071 
L 194.442316 471.383726 
L 193.775845 472.450346 
L 192.868353 473.968381 
L 191.432353 475.576219 
L 190.540905 476.553037 
L 189.08886 477.802301 
L 187.393199 479.137692 
L 186.745367 479.58981 
L 184.401875 481.081052 
L 183.255607 481.722347 
L 182.058382 482.379408 
L 179.714889 483.495299 
L 177.664647 484.307003 
L 177.371396 484.432306 
L 175.027904 485.319198 
L 172.684411 486.033029 
L 170.340918 486.608024 
L 168.918151 486.891658 
L 167.997426 487.109298 
L 165.653933 487.543599 
L 163.31044 487.856455 
L 160.966948 488.0576 
L 158.623455 488.149407 
L 156.279962 488.126931 
L 153.93647 487.977575 
L 151.592977 487.680913 
L 149.249484 487.209635 
L 148.089008 486.891658 
L 146.905991 486.554555 
L 144.562499 485.70009 
L 142.219006 484.652924 
L 141.462351 484.307003 
L 139.875513 483.509781 
L 137.532021 482.550379 
L 135.188528 481.984855 
L 132.845035 481.874553 
L 130.501543 482.150075 
L 128.15805 482.681843 
L 125.814557 483.346002 
L 123.471065 484.053214 
L 122.672806 484.307003 
L 121.127572 484.832793 
L 118.784079 485.595533 
L 116.440586 486.272267 
L 114.097094 486.859323 
L 113.952799 486.891658 
L 111.753601 487.472279 
L 109.410108 487.968889 
L 107.066616 488.349434 
L 104.723123 488.619354 
L 102.37963 488.778885 
L 100.036138 488.821401 
L 97.692645 488.731178 
L 95.349152 488.479881 
L 93.00566 488.020819 
L 90.662167 487.279461 
z
" clip-path="url(#p89f0011c85)" style="fill: #d0e1f2"/>
    <path d="M 90.662167 487.279461 
L 93.00566 488.020819 
L 95.349152 488.479881 
L 97.692645 488.731178 
L 100.036138 488.821401 
L 102.37963 488.778885 
L 104.723123 488.619354 
L 107.066616 488.349434 
L 109.410108 487.968889 
L 111.753601 487.472279 
L 113.952799 486.891658 
L 114.097094 486.859323 
L 116.440586 486.272267 
L 118.784079 485.595533 
L 121.127572 484.832793 
L 122.672806 484.307003 
L 123.471065 484.053214 
L 125.814557 483.346002 
L 128.15805 482.681843 
L 130.501543 482.150075 
L 132.845035 481.874553 
L 135.188528 481.984855 
L 137.532021 482.550379 
L 139.875513 483.509781 
L 141.462351 484.307003 
L 142.219006 484.652924 
L 144.562499 485.70009 
L 146.905991 486.554555 
L 148.089008 486.891658 
L 149.249484 487.209635 
L 151.592977 487.680913 
L 153.93647 487.977575 
L 156.279962 488.126931 
L 158.623455 488.149407 
L 160.966948 488.0576 
L 163.31044 487.856455 
L 165.653933 487.543599 
L 167.997426 487.109298 
L 168.918151 486.891658 
L 170.340918 486.608024 
L 172.684411 486.033029 
L 175.027904 485.319198 
L 177.371396 484.432306 
L 177.664647 484.307003 
L 179.714889 483.495299 
L 182.058382 482.379408 
L 183.255607 481.722347 
L 184.401875 481.081052 
L 186.745367 479.58981 
L 187.393199 479.137692 
L 189.08886 477.802301 
L 190.540905 476.553037 
L 191.432353 475.576219 
L 192.868353 473.968381 
L 193.775845 472.450346 
L 194.442316 471.383726 
L 195.273771 468.799071 
L 195.282217 466.214415 
L 194.285001 463.62976 
L 193.775845 462.999991 
L 191.866962 461.045105 
L 191.432353 460.741849 
L 189.08886 459.399116 
L 186.745367 458.460449 
L 186.745367 458.460449 
L 184.401875 457.779759 
L 182.058382 457.322808 
L 179.714889 457.048717 
L 177.371396 456.927575 
L 175.027904 456.937619 
L 172.684411 457.063529 
L 170.340918 457.295292 
L 167.997426 457.627265 
L 165.653933 458.057007 
L 163.832281 458.460449 
L 163.31044 458.559042 
L 160.966948 459.049357 
L 158.623455 459.598605 
L 156.279962 460.195349 
L 153.93647 460.814465 
L 152.967643 461.045105 
L 151.592977 461.357482 
L 149.249484 461.794333 
L 146.905991 462.079476 
L 144.562499 462.114708 
L 142.219006 461.815511 
L 139.875513 461.163869 
L 139.576688 461.045105 
L 137.532021 460.277832 
L 135.188528 459.33709 
L 132.845035 458.473678 
L 132.805392 458.460449 
L 130.501543 457.726676 
L 128.15805 457.164997 
L 125.814557 456.786566 
L 123.471065 456.576644 
L 121.127572 456.517966 
L 118.784079 456.596195 
L 116.440586 456.802802 
L 114.097094 457.136692 
L 111.753601 457.605568 
L 109.410108 458.227759 
L 108.699545 458.460449 
L 107.066616 458.910136 
L 104.723123 459.699184 
L 102.37963 460.68716 
L 101.650483 461.045105 
L 100.036138 461.765298 
L 97.692645 463.022723 
L 96.717098 463.62976 
L 95.349152 464.468567 
L 93.00566 466.169134 
L 92.947647 466.214415 
L 90.662167 468.132477 
L 89.943134 468.799071 
L 88.318674 470.585432 
L 87.618707 471.383726 
L 85.975181 473.889423 
L 85.921883 473.968381 
L 84.762671 476.553037 
L 84.301937 479.137692 
L 84.634999 481.722347 
L 85.975181 484.093598 
L 86.122233 484.307003 
L 88.318674 486.095941 
L 89.77983 486.891658 
z
M 90.795911 484.307003 
L 90.662167 484.209421 
L 88.318674 481.761926 
L 88.289562 481.722347 
L 87.506364 479.137692 
L 87.765612 476.553037 
L 88.318674 475.240931 
L 88.818888 473.968381 
L 90.582634 471.383726 
L 90.662167 471.29623 
L 93.00566 468.837144 
L 93.044111 468.799071 
L 95.349152 466.904881 
L 96.300897 466.214415 
L 97.692645 465.279036 
L 100.036138 463.936723 
L 100.648014 463.62976 
L 102.37963 462.747783 
L 104.723123 461.76422 
L 106.823188 461.045105 
L 107.066616 460.953081 
L 109.410108 460.215916 
L 111.753601 459.650816 
L 114.097094 459.235358 
L 116.440586 458.95953 
L 118.784079 458.82381 
L 121.127572 458.838034 
L 123.471065 459.020286 
L 125.814557 459.39467 
L 128.15805 459.986243 
L 130.501543 460.810746 
L 131.071071 461.045105 
L 132.845035 461.913879 
L 135.188528 463.191252 
L 136.041402 463.62976 
L 137.532021 464.602783 
L 139.875513 465.67106 
L 142.219006 466.1321 
L 144.562499 466.044256 
L 146.905991 465.578169 
L 149.249484 464.90641 
L 151.592977 464.152902 
L 153.141826 463.62976 
L 153.93647 463.375201 
L 156.279962 462.600584 
L 158.623455 461.890405 
L 160.966948 461.255685 
L 161.825809 461.045105 
L 163.31044 460.653941 
L 165.653933 460.129609 
L 167.997426 459.712831 
L 170.340918 459.40448 
L 172.684411 459.209391 
L 175.027904 459.137724 
L 177.371396 459.206127 
L 179.714889 459.439187 
L 182.058382 459.871658 
L 184.401875 460.552114 
L 185.633166 461.045105 
L 186.745367 461.60028 
L 189.08886 463.220784 
L 189.559184 463.62976 
L 191.180597 466.214415 
L 191.432353 468.316177 
L 191.487135 468.799071 
L 191.432353 468.993465 
L 190.818484 471.383726 
L 189.256593 473.968381 
L 189.08886 474.152312 
L 186.832081 476.553037 
L 186.745367 476.624656 
L 184.401875 478.457476 
L 183.436363 479.137692 
L 182.058382 479.989148 
L 179.714889 481.248336 
L 178.709044 481.722347 
L 177.371396 482.338219 
L 175.027904 483.25387 
L 172.684411 484.002237 
L 171.537739 484.307003 
L 170.340918 484.650139 
L 167.997426 485.186096 
L 165.653933 485.587327 
L 163.31044 485.865664 
L 160.966948 486.024826 
L 158.623455 486.060394 
L 156.279962 485.959235 
L 153.93647 485.698877 
L 151.592977 485.247893 
L 149.249484 484.569411 
L 148.540598 484.307003 
L 146.905991 483.582136 
L 144.562499 482.302257 
L 143.566315 481.722347 
L 142.219006 480.697865 
L 139.875513 479.23292 
L 139.634384 479.137692 
L 137.532021 478.196346 
L 135.188528 478.017097 
L 132.845035 478.412972 
L 130.501543 479.137692 
L 130.501543 479.137692 
L 128.15805 479.987536 
L 125.814557 480.900967 
L 123.722567 481.722347 
L 123.471065 481.817229 
L 121.127572 482.734561 
L 118.784079 483.563846 
L 116.440586 484.298458 
L 116.410905 484.307003 
L 114.097094 485.019825 
L 111.753601 485.612937 
L 109.410108 486.084629 
L 107.066616 486.440026 
L 104.723123 486.679005 
L 102.37963 486.794169 
L 100.036138 486.768179 
L 97.692645 486.569576 
L 95.349152 486.145815 
L 93.00566 485.411494 
z
" clip-path="url(#p89f0011c85)" style="fill: #b0d2e7"/>
    <path d="M 93.00566 485.411494 
L 95.349152 486.145815 
L 97.692645 486.569576 
L 100.036138 486.768179 
L 102.37963 486.794169 
L 104.723123 486.679005 
L 107.066616 486.440026 
L 109.410108 486.084629 
L 111.753601 485.612937 
L 114.097094 485.019825 
L 116.410905 484.307003 
L 116.440586 484.298458 
L 118.784079 483.563846 
L 121.127572 482.734561 
L 123.471065 481.817229 
L 123.722567 481.722347 
L 125.814557 480.900967 
L 128.15805 479.987536 
L 130.501543 479.137692 
L 130.501543 479.137692 
L 132.845035 478.412972 
L 135.188528 478.017097 
L 137.532021 478.196346 
L 139.634384 479.137692 
L 139.875513 479.23292 
L 142.219006 480.697865 
L 143.566315 481.722347 
L 144.562499 482.302257 
L 146.905991 483.582136 
L 148.540598 484.307003 
L 149.249484 484.569411 
L 151.592977 485.247893 
L 153.93647 485.698877 
L 156.279962 485.959235 
L 158.623455 486.060394 
L 160.966948 486.024826 
L 163.31044 485.865664 
L 165.653933 485.587327 
L 167.997426 485.186096 
L 170.340918 484.650139 
L 171.537739 484.307003 
L 172.684411 484.002237 
L 175.027904 483.25387 
L 177.371396 482.338219 
L 178.709044 481.722347 
L 179.714889 481.248336 
L 182.058382 479.989148 
L 183.436363 479.137692 
L 184.401875 478.457476 
L 186.745367 476.624656 
L 186.832081 476.553037 
L 189.08886 474.152312 
L 189.256593 473.968381 
L 190.818484 471.383726 
L 191.432353 468.993465 
L 191.487135 468.799071 
L 191.432353 468.316177 
L 191.180597 466.214415 
L 189.559184 463.62976 
L 189.08886 463.220784 
L 186.745367 461.60028 
L 185.633166 461.045105 
L 184.401875 460.552114 
L 182.058382 459.871658 
L 179.714889 459.439187 
L 177.371396 459.206127 
L 175.027904 459.137724 
L 172.684411 459.209391 
L 170.340918 459.40448 
L 167.997426 459.712831 
L 165.653933 460.129609 
L 163.31044 460.653941 
L 161.825809 461.045105 
L 160.966948 461.255685 
L 158.623455 461.890405 
L 156.279962 462.600584 
L 153.93647 463.375201 
L 153.141826 463.62976 
L 151.592977 464.152902 
L 149.249484 464.90641 
L 146.905991 465.578169 
L 144.562499 466.044256 
L 142.219006 466.1321 
L 139.875513 465.67106 
L 137.532021 464.602783 
L 136.041402 463.62976 
L 135.188528 463.191252 
L 132.845035 461.913879 
L 131.071071 461.045105 
L 130.501543 460.810746 
L 128.15805 459.986243 
L 125.814557 459.39467 
L 123.471065 459.020286 
L 121.127572 458.838034 
L 118.784079 458.82381 
L 116.440586 458.95953 
L 114.097094 459.235358 
L 111.753601 459.650816 
L 109.410108 460.215916 
L 107.066616 460.953081 
L 106.823188 461.045105 
L 104.723123 461.76422 
L 102.37963 462.747783 
L 100.648014 463.62976 
L 100.036138 463.936723 
L 97.692645 465.279036 
L 96.300897 466.214415 
L 95.349152 466.904881 
L 93.044111 468.799071 
L 93.00566 468.837144 
L 90.662167 471.29623 
L 90.582634 471.383726 
L 88.818888 473.968381 
L 88.318674 475.240931 
L 87.765612 476.553037 
L 87.506364 479.137692 
L 88.289562 481.722347 
L 88.318674 481.761926 
L 90.662167 484.209421 
L 90.795911 484.307003 
z
M 95.488959 484.307003 
L 95.349152 484.261093 
L 93.00566 483.072941 
L 91.322564 481.722347 
L 90.662167 480.554991 
L 90.027386 479.137692 
L 90.065404 476.553037 
L 90.662167 475.010851 
L 91.043269 473.968381 
L 92.823363 471.383726 
L 93.00566 471.19169 
L 95.349152 468.865381 
L 95.420677 468.799071 
L 97.692645 467.071797 
L 98.986858 466.214415 
L 100.036138 465.573191 
L 102.37963 464.342198 
L 103.994913 463.62976 
L 104.723123 463.304071 
L 107.066616 462.428227 
L 109.410108 461.737129 
L 111.753601 461.204172 
L 112.726082 461.045105 
L 114.097094 460.797467 
L 116.440586 460.546883 
L 118.784079 460.470771 
L 121.127572 460.58078 
L 123.471065 460.897743 
L 124.140193 461.045105 
L 125.814557 461.461739 
L 128.15805 462.321784 
L 130.501543 463.491002 
L 130.751937 463.62976 
L 132.845035 465.284226 
L 134.023088 466.214415 
L 135.188528 467.868116 
L 136.115874 468.799071 
L 136.95211 471.383726 
L 135.188528 473.339841 
L 134.739763 473.968381 
L 132.845035 475.012552 
L 130.501543 476.496625 
L 130.426341 476.553037 
L 128.15805 477.731162 
L 125.814557 478.953521 
L 125.478897 479.137692 
L 123.471065 480.069313 
L 121.127572 481.090327 
L 119.569677 481.722347 
L 118.784079 482.029111 
L 116.440586 482.868179 
L 114.097094 483.580434 
L 111.753601 484.172971 
L 111.098968 484.307003 
L 109.410108 484.675861 
L 107.066616 485.045006 
L 104.723123 485.266743 
L 102.37963 485.331535 
L 100.036138 485.217271 
L 97.692645 484.884152 
z
M 156.694371 484.307003 
L 156.279962 484.272436 
L 153.93647 483.878267 
L 151.592977 483.225136 
L 149.249484 482.264139 
L 148.199755 481.722347 
L 146.905991 480.762635 
L 144.930005 479.137692 
L 144.562499 478.598734 
L 142.856946 476.553037 
L 142.219006 474.773027 
L 141.613348 473.968381 
L 142.219006 472.487897 
L 142.587769 471.383726 
L 144.562499 470.168692 
L 146.598145 468.799071 
L 146.905991 468.674189 
L 149.249484 467.511165 
L 151.592977 466.380038 
L 151.923728 466.214415 
L 153.93647 465.369714 
L 156.279962 464.453991 
L 158.623455 463.62976 
L 158.623455 463.62976 
L 160.966948 462.877884 
L 163.31044 462.241592 
L 165.653933 461.717536 
L 167.997426 461.304923 
L 170.050188 461.045105 
L 170.340918 461.005385 
L 172.684411 460.827601 
L 175.027904 460.805547 
L 177.371396 460.958252 
L 177.972253 461.045105 
L 179.714889 461.320351 
L 182.058382 461.956207 
L 184.401875 462.951558 
L 185.563557 463.62976 
L 186.745367 464.731534 
L 187.967179 466.214415 
L 188.616589 468.799071 
L 188.088142 471.383726 
L 186.745367 473.632472 
L 186.547926 473.968381 
L 184.401875 476.179577 
L 184.020105 476.553037 
L 182.058382 478.000016 
L 180.318589 479.137692 
L 179.714889 479.481625 
L 177.371396 480.666475 
L 175.027904 481.656393 
L 174.847882 481.722347 
L 172.684411 482.491941 
L 170.340918 483.160014 
L 167.997426 483.682393 
L 165.653933 484.072929 
L 163.569536 484.307003 
L 163.31044 484.338269 
L 160.966948 484.474878 
L 158.623455 484.458435 
z
" clip-path="url(#p89f0011c85)" style="fill: #8dc1dd"/>
    <path d="M 97.692645 484.884152 
L 100.036138 485.217271 
L 102.37963 485.331535 
L 104.723123 485.266743 
L 107.066616 485.045006 
L 109.410108 484.675861 
L 111.098968 484.307003 
L 111.753601 484.172971 
L 114.097094 483.580434 
L 116.440586 482.868179 
L 118.784079 482.029111 
L 119.569677 481.722347 
L 121.127572 481.090327 
L 123.471065 480.069313 
L 125.478897 479.137692 
L 125.814557 478.953521 
L 128.15805 477.731162 
L 130.426341 476.553037 
L 130.501543 476.496625 
L 132.845035 475.012552 
L 134.739763 473.968381 
L 135.188528 473.339841 
L 136.95211 471.383726 
L 136.115874 468.799071 
L 135.188528 467.868116 
L 134.023088 466.214415 
L 132.845035 465.284226 
L 130.751937 463.62976 
L 130.501543 463.491002 
L 128.15805 462.321784 
L 125.814557 461.461739 
L 124.140193 461.045105 
L 123.471065 460.897743 
L 121.127572 460.58078 
L 118.784079 460.470771 
L 116.440586 460.546883 
L 114.097094 460.797467 
L 112.726082 461.045105 
L 111.753601 461.204172 
L 109.410108 461.737129 
L 107.066616 462.428227 
L 104.723123 463.304071 
L 103.994913 463.62976 
L 102.37963 464.342198 
L 100.036138 465.573191 
L 98.986858 466.214415 
L 97.692645 467.071797 
L 95.420677 468.799071 
L 95.349152 468.865381 
L 93.00566 471.19169 
L 92.823363 471.383726 
L 91.043269 473.968381 
L 90.662167 475.010851 
L 90.065404 476.553037 
L 90.027386 479.137692 
L 90.662167 480.554991 
L 91.322564 481.722347 
L 93.00566 483.072941 
L 95.349152 484.261093 
L 95.488959 484.307003 
z
M 94.72732 481.722347 
L 93.00566 479.7535 
L 92.616196 479.137692 
L 92.362049 476.553037 
L 93.00566 474.675525 
L 93.237779 473.968381 
L 95.046172 471.383726 
L 95.349152 471.080951 
L 97.692645 468.902584 
L 97.81349 468.799071 
L 100.036138 467.261485 
L 101.797959 466.214415 
L 102.37963 465.897407 
L 104.723123 464.80422 
L 107.066616 463.915182 
L 107.997848 463.62976 
L 109.410108 463.193232 
L 111.753601 462.652924 
L 114.097094 462.291128 
L 116.440586 462.108504 
L 118.784079 462.119185 
L 121.127572 462.350286 
L 123.471065 462.840371 
L 125.802723 463.62976 
L 125.814557 463.635261 
L 128.15805 465.065547 
L 129.638747 466.214415 
L 130.501543 467.622316 
L 131.233944 468.799071 
L 131.204605 471.383726 
L 130.501543 472.403026 
L 129.527605 473.968381 
L 128.15805 475.054098 
L 126.320891 476.553037 
L 125.814557 476.844022 
L 123.471065 478.215564 
L 121.80869 479.137692 
L 121.127572 479.45735 
L 118.784079 480.495116 
L 116.440586 481.405519 
L 115.516061 481.722347 
L 114.097094 482.187789 
L 111.753601 482.820458 
L 109.410108 483.307308 
L 107.066616 483.647242 
L 104.723123 483.829214 
L 102.37963 483.828259 
L 100.036138 483.599027 
L 97.692645 483.064633 
L 95.349152 482.096863 
z
M 158.623455 484.458435 
L 160.966948 484.474878 
L 163.31044 484.338269 
L 163.569536 484.307003 
L 165.653933 484.072929 
L 167.997426 483.682393 
L 170.340918 483.160014 
L 172.684411 482.491941 
L 174.847882 481.722347 
L 175.027904 481.656393 
L 177.371396 480.666475 
L 179.714889 479.481625 
L 180.318589 479.137692 
L 182.058382 478.000016 
L 184.020105 476.553037 
L 184.401875 476.179577 
L 186.547926 473.968381 
L 186.745367 473.632472 
L 188.088142 471.383726 
L 188.616589 468.799071 
L 187.967179 466.214415 
L 186.745367 464.731534 
L 185.563557 463.62976 
L 184.401875 462.951558 
L 182.058382 461.956207 
L 179.714889 461.320351 
L 177.972253 461.045105 
L 177.371396 460.958252 
L 175.027904 460.805547 
L 172.684411 460.827601 
L 170.340918 461.005385 
L 170.050188 461.045105 
L 167.997426 461.304923 
L 165.653933 461.717536 
L 163.31044 462.241592 
L 160.966948 462.877884 
L 158.623455 463.62976 
L 158.623455 463.62976 
L 156.279962 464.453991 
L 153.93647 465.369714 
L 151.923728 466.214415 
L 151.592977 466.380038 
L 149.249484 467.511165 
L 146.905991 468.674189 
L 146.598145 468.799071 
L 144.562499 470.168692 
L 142.587769 471.383726 
L 142.219006 472.487897 
L 141.613348 473.968381 
L 142.219006 474.773027 
L 142.856946 476.553037 
L 144.562499 478.598734 
L 144.930005 479.137692 
L 146.905991 480.762635 
L 148.199755 481.722347 
L 149.249484 482.264139 
L 151.592977 483.225136 
L 153.93647 483.878267 
L 156.279962 484.272436 
L 156.694371 484.307003 
z
M 153.214821 481.722347 
L 151.592977 480.943654 
L 149.249484 479.372504 
L 148.949016 479.137692 
L 147.239894 476.553037 
L 147.04946 473.968381 
L 148.411759 471.383726 
L 149.249484 470.690493 
L 151.592977 468.799071 
L 151.592977 468.799071 
L 153.93647 467.482 
L 156.279962 466.304962 
L 156.470596 466.214415 
L 158.623455 465.341453 
L 160.966948 464.519061 
L 163.31044 463.821102 
L 164.082082 463.62976 
L 165.653933 463.250769 
L 167.997426 462.823853 
L 170.340918 462.543849 
L 172.684411 462.422031 
L 175.027904 462.479503 
L 177.371396 462.74951 
L 179.714889 463.281129 
L 180.722995 463.62976 
L 182.058382 464.27703 
L 184.401875 466.00562 
L 184.618676 466.214415 
L 185.733108 468.799071 
L 185.39109 471.383726 
L 184.401875 473.068655 
L 183.875337 473.968381 
L 182.058382 475.756214 
L 181.194197 476.553037 
L 179.714889 477.562603 
L 177.371396 478.969091 
L 177.055053 479.137692 
L 175.027904 480.06336 
L 172.684411 480.949171 
L 170.340918 481.671005 
L 170.130823 481.722347 
L 167.997426 482.224108 
L 165.653933 482.617258 
L 163.31044 482.856234 
L 160.966948 482.935139 
L 158.623455 482.836332 
L 156.279962 482.529144 
L 153.93647 481.969692 
z
" clip-path="url(#p89f0011c85)" style="fill: #68acd5"/>
    <path d="M 95.349152 482.096863 
L 97.692645 483.064633 
L 100.036138 483.599027 
L 102.37963 483.828259 
L 104.723123 483.829214 
L 107.066616 483.647242 
L 109.410108 483.307308 
L 111.753601 482.820458 
L 114.097094 482.187789 
L 115.516061 481.722347 
L 116.440586 481.405519 
L 118.784079 480.495116 
L 121.127572 479.45735 
L 121.80869 479.137692 
L 123.471065 478.215564 
L 125.814557 476.844022 
L 126.320891 476.553037 
L 128.15805 475.054098 
L 129.527605 473.968381 
L 130.501543 472.403026 
L 131.204605 471.383726 
L 131.233944 468.799071 
L 130.501543 467.622316 
L 129.638747 466.214415 
L 128.15805 465.065547 
L 125.814557 463.635261 
L 125.802723 463.62976 
L 123.471065 462.840371 
L 121.127572 462.350286 
L 118.784079 462.119185 
L 116.440586 462.108504 
L 114.097094 462.291128 
L 111.753601 462.652924 
L 109.410108 463.193232 
L 107.997848 463.62976 
L 107.066616 463.915182 
L 104.723123 464.80422 
L 102.37963 465.897407 
L 101.797959 466.214415 
L 100.036138 467.261485 
L 97.81349 468.799071 
L 97.692645 468.902584 
L 95.349152 471.080951 
L 95.046172 471.383726 
L 93.237779 473.968381 
L 93.00566 474.675525 
L 92.362049 476.553037 
L 92.616196 479.137692 
L 93.00566 479.7535 
L 94.72732 481.722347 
z
M 99.536085 481.722347 
L 97.692645 480.900603 
L 95.504149 479.137692 
L 95.349152 478.684703 
L 94.802351 476.553037 
L 95.349152 474.629041 
L 95.531593 473.968381 
L 97.38333 471.383726 
L 97.692645 471.09412 
L 100.036138 469.08028 
L 100.39837 468.799071 
L 102.37963 467.580354 
L 104.723123 466.360008 
L 105.056055 466.214415 
L 107.066616 465.42202 
L 109.410108 464.703064 
L 111.753601 464.175255 
L 114.097094 463.839609 
L 116.440586 463.715214 
L 118.784079 463.841059 
L 121.127572 464.278028 
L 123.471065 465.107739 
L 125.487635 466.214415 
L 125.814557 466.566775 
L 127.469827 468.799071 
L 127.510099 471.383726 
L 125.947693 473.968381 
L 125.814557 474.080384 
L 123.471065 476.083298 
L 122.911308 476.553037 
L 121.127572 477.603742 
L 118.784079 478.870817 
L 118.246266 479.137692 
L 116.440586 479.887088 
L 114.097094 480.714635 
L 111.753601 481.393186 
L 110.278825 481.722347 
L 109.410108 481.905665 
L 107.066616 482.222992 
L 104.723123 482.347133 
L 102.37963 482.247353 
L 100.036138 481.868304 
z
M 153.93647 481.969692 
L 156.279962 482.529144 
L 158.623455 482.836332 
L 160.966948 482.935139 
L 163.31044 482.856234 
L 165.653933 482.617258 
L 167.997426 482.224108 
L 170.130823 481.722347 
L 170.340918 481.671005 
L 172.684411 480.949171 
L 175.027904 480.06336 
L 177.055053 479.137692 
L 177.371396 478.969091 
L 179.714889 477.562603 
L 181.194197 476.553037 
L 182.058382 475.756214 
L 183.875337 473.968381 
L 184.401875 473.068655 
L 185.39109 471.383726 
L 185.733108 468.799071 
L 184.618676 466.214415 
L 184.401875 466.00562 
L 182.058382 464.27703 
L 180.722995 463.62976 
L 179.714889 463.281129 
L 177.371396 462.74951 
L 175.027904 462.479503 
L 172.684411 462.422031 
L 170.340918 462.543849 
L 167.997426 462.823853 
L 165.653933 463.250769 
L 164.082082 463.62976 
L 163.31044 463.821102 
L 160.966948 464.519061 
L 158.623455 465.341453 
L 156.470596 466.214415 
L 156.279962 466.304962 
L 153.93647 467.482 
L 151.592977 468.799071 
L 151.592977 468.799071 
L 149.249484 470.690493 
L 148.411759 471.383726 
L 147.04946 473.968381 
L 147.239894 476.553037 
L 148.949016 479.137692 
L 149.249484 479.372504 
L 151.592977 480.943654 
L 153.214821 481.722347 
z
M 153.15128 479.137692 
L 151.592977 477.413227 
L 150.954397 476.553037 
L 150.801065 473.968381 
L 151.592977 472.610236 
L 152.311235 471.383726 
L 153.93647 470.037725 
L 155.543963 468.799071 
L 156.279962 468.397451 
L 158.623455 467.22882 
L 160.966948 466.214415 
L 160.966948 466.214415 
L 163.31044 465.466717 
L 165.653933 464.876533 
L 167.997426 464.445052 
L 170.340918 464.184823 
L 172.684411 464.122102 
L 175.027904 464.300519 
L 177.371396 464.787291 
L 179.714889 465.68396 
L 180.646813 466.214415 
L 182.058382 467.884287 
L 182.622937 468.799071 
L 182.553672 471.383726 
L 182.058382 472.242493 
L 181.051609 473.968381 
L 179.714889 475.206436 
L 178.139653 476.553037 
L 177.371396 477.028658 
L 175.027904 478.298279 
L 173.209485 479.137692 
L 172.684411 479.343221 
L 170.340918 480.089675 
L 167.997426 480.6583 
L 165.653933 481.054586 
L 163.31044 481.270804 
L 160.966948 481.283748 
L 158.623455 481.05134 
L 156.279962 480.509553 
L 153.93647 479.57373 
z
" clip-path="url(#p89f0011c85)" style="fill: #4997c9"/>
    <path d="M 100.036138 481.868304 
L 102.37963 482.247353 
L 104.723123 482.347133 
L 107.066616 482.222992 
L 109.410108 481.905665 
L 110.278825 481.722347 
L 111.753601 481.393186 
L 114.097094 480.714635 
L 116.440586 479.887088 
L 118.246266 479.137692 
L 118.784079 478.870817 
L 121.127572 477.603742 
L 122.911308 476.553037 
L 123.471065 476.083298 
L 125.814557 474.080384 
L 125.947693 473.968381 
L 127.510099 471.383726 
L 127.469827 468.799071 
L 125.814557 466.566775 
L 125.487635 466.214415 
L 123.471065 465.107739 
L 121.127572 464.278028 
L 118.784079 463.841059 
L 116.440586 463.715214 
L 114.097094 463.839609 
L 111.753601 464.175255 
L 109.410108 464.703064 
L 107.066616 465.42202 
L 105.056055 466.214415 
L 104.723123 466.360008 
L 102.37963 467.580354 
L 100.39837 468.799071 
L 100.036138 469.08028 
L 97.692645 471.09412 
L 97.38333 471.383726 
L 95.531593 473.968381 
L 95.349152 474.629041 
L 94.802351 476.553037 
L 95.349152 478.684703 
L 95.504149 479.137692 
L 97.692645 480.900603 
L 99.536085 481.722347 
z
M 99.620716 479.137692 
L 97.836339 476.553037 
L 98.332819 473.968381 
L 100.036138 471.641645 
L 100.23604 471.383726 
L 102.37963 469.725599 
L 103.736065 468.799071 
L 104.723123 468.277351 
L 107.066616 467.264358 
L 109.410108 466.465827 
L 110.460342 466.214415 
L 111.753601 465.94275 
L 114.097094 465.691802 
L 116.440586 465.701528 
L 118.784079 466.018964 
L 119.496528 466.214415 
L 121.127572 466.967219 
L 123.382398 468.799071 
L 123.471065 469.274849 
L 123.790738 471.383726 
L 123.471065 471.944665 
L 122.348646 473.968381 
L 121.127572 475.000167 
L 119.206737 476.553037 
L 118.784079 476.788843 
L 116.440586 477.966386 
L 114.097094 478.986446 
L 113.671928 479.137692 
L 111.753601 479.693106 
L 109.410108 480.178015 
L 107.066616 480.45018 
L 104.723123 480.467451 
L 102.37963 480.152035 
L 100.036138 479.366885 
z
M 153.93647 479.57373 
L 156.279962 480.509553 
L 158.623455 481.05134 
L 160.966948 481.283748 
L 163.31044 481.270804 
L 165.653933 481.054586 
L 167.997426 480.6583 
L 170.340918 480.089675 
L 172.684411 479.343221 
L 173.209485 479.137692 
L 175.027904 478.298279 
L 177.371396 477.028658 
L 178.139653 476.553037 
L 179.714889 475.206436 
L 181.051609 473.968381 
L 182.058382 472.242493 
L 182.553672 471.383726 
L 182.622937 468.799071 
L 182.058382 467.884287 
L 180.646813 466.214415 
L 179.714889 465.68396 
L 177.371396 464.787291 
L 175.027904 464.300519 
L 172.684411 464.122102 
L 170.340918 464.184823 
L 167.997426 464.445052 
L 165.653933 464.876533 
L 163.31044 465.466717 
L 160.966948 466.214415 
L 160.966948 466.214415 
L 158.623455 467.22882 
L 156.279962 468.397451 
L 155.543963 468.799071 
L 153.93647 470.037725 
L 152.311235 471.383726 
L 151.592977 472.610236 
L 150.801065 473.968381 
L 150.954397 476.553037 
L 151.592977 477.413227 
L 153.15128 479.137692 
z
M 160.530755 479.137692 
L 158.623455 478.621078 
L 156.279962 477.339053 
L 155.34781 476.553037 
L 154.846027 473.968381 
L 156.279962 471.58669 
L 156.40805 471.383726 
L 158.623455 469.781305 
L 160.148002 468.799071 
L 160.966948 468.430306 
L 163.31044 467.55257 
L 165.653933 466.864865 
L 167.997426 466.38136 
L 169.660803 466.214415 
L 170.340918 466.158208 
L 172.684411 466.214415 
L 172.684411 466.214415 
L 175.027904 466.724173 
L 177.371396 467.873573 
L 178.497509 468.799071 
L 179.010512 471.383726 
L 177.564764 473.968381 
L 177.371396 474.133613 
L 175.027904 475.931854 
L 174.111213 476.553037 
L 172.684411 477.214816 
L 170.340918 478.091009 
L 167.997426 478.760075 
L 166.001024 479.137692 
L 165.653933 479.191046 
L 163.31044 479.324571 
L 160.966948 479.209559 
z
" clip-path="url(#p89f0011c85)" style="fill: #2d7dbb"/>
    <path d="M 100.036138 479.366885 
L 102.37963 480.152035 
L 104.723123 480.467451 
L 107.066616 480.45018 
L 109.410108 480.178015 
L 111.753601 479.693106 
L 113.671928 479.137692 
L 114.097094 478.986446 
L 116.440586 477.966386 
L 118.784079 476.788843 
L 119.206737 476.553037 
L 121.127572 475.000167 
L 122.348646 473.968381 
L 123.471065 471.944665 
L 123.790738 471.383726 
L 123.471065 469.274849 
L 123.382398 468.799071 
L 121.127572 466.967219 
L 119.496528 466.214415 
L 118.784079 466.018964 
L 116.440586 465.701528 
L 114.097094 465.691802 
L 111.753601 465.94275 
L 110.460342 466.214415 
L 109.410108 466.465827 
L 107.066616 467.264358 
L 104.723123 468.277351 
L 103.736065 468.799071 
L 102.37963 469.725599 
L 100.23604 471.383726 
L 100.036138 471.641645 
L 98.332819 473.968381 
L 97.836339 476.553037 
L 99.620716 479.137692 
z
M 101.555493 476.553037 
L 101.464279 473.968381 
L 102.37963 472.763641 
L 103.516945 471.383726 
L 104.723123 470.580917 
L 107.066616 469.274979 
L 108.159071 468.799071 
L 109.410108 468.404493 
L 111.753601 467.952918 
L 114.097094 467.81855 
L 116.440586 468.087276 
L 118.518706 468.799071 
L 118.784079 469.078603 
L 119.999464 471.383726 
L 118.784079 473.922779 
L 118.761649 473.968381 
L 116.440586 475.662986 
L 115.090579 476.553037 
L 114.097094 476.975986 
L 111.753601 477.747856 
L 109.410108 478.274011 
L 107.066616 478.484843 
L 104.723123 478.238198 
L 102.37963 477.247052 
z
M 160.966948 479.209559 
L 163.31044 479.324571 
L 165.653933 479.191046 
L 166.001024 479.137692 
L 167.997426 478.760075 
L 170.340918 478.091009 
L 172.684411 477.214816 
L 174.111213 476.553037 
L 175.027904 475.931854 
L 177.371396 474.133613 
L 177.564764 473.968381 
L 179.010512 471.383726 
L 178.497509 468.799071 
L 177.371396 467.873573 
L 175.027904 466.724173 
L 172.684411 466.214415 
L 172.684411 466.214415 
L 170.340918 466.158208 
L 169.660803 466.214415 
L 167.997426 466.38136 
L 165.653933 466.864865 
L 163.31044 467.55257 
L 160.966948 468.430306 
L 160.148002 468.799071 
L 158.623455 469.781305 
L 156.40805 471.383726 
L 156.279962 471.58669 
L 154.846027 473.968381 
L 155.34781 476.553037 
L 156.279962 477.339053 
L 158.623455 478.621078 
L 160.530755 479.137692 
z
M 161.823972 476.553037 
L 160.966948 476.081862 
L 159.369687 473.968381 
L 160.959219 471.383726 
L 160.966948 471.378825 
L 163.31044 470.173478 
L 165.653933 469.224046 
L 167.312981 468.799071 
L 167.997426 468.687994 
L 170.340918 468.633602 
L 171.520587 468.799071 
L 172.684411 469.218223 
L 174.724321 471.383726 
L 173.281663 473.968381 
L 172.684411 474.358719 
L 170.340918 475.590045 
L 167.997426 476.553037 
L 167.997426 476.553037 
L 165.653933 476.857252 
L 163.31044 476.829683 
z
" clip-path="url(#p89f0011c85)" style="fill: #1460a8"/>
    <path d="M 102.37963 477.247052 
L 104.723123 478.238198 
L 107.066616 478.484843 
L 109.410108 478.274011 
L 111.753601 477.747856 
L 114.097094 476.975986 
L 115.090579 476.553037 
L 116.440586 475.662986 
L 118.761649 473.968381 
L 118.784079 473.922779 
L 119.999464 471.383726 
L 118.784079 469.078603 
L 118.518706 468.799071 
L 116.440586 468.087276 
L 114.097094 467.81855 
L 111.753601 467.952918 
L 109.410108 468.404493 
L 108.159071 468.799071 
L 107.066616 469.274979 
L 104.723123 470.580917 
L 103.516945 471.383726 
L 102.37963 472.763641 
L 101.464279 473.968381 
L 101.555493 476.553037 
z
M 163.31044 476.829683 
L 165.653933 476.857252 
L 167.997426 476.553037 
L 167.997426 476.553037 
L 170.340918 475.590045 
L 172.684411 474.358719 
L 173.281663 473.968381 
L 174.724321 471.383726 
L 172.684411 469.218223 
L 171.520587 468.799071 
L 170.340918 468.633602 
L 167.997426 468.687994 
L 167.312981 468.799071 
L 165.653933 469.224046 
L 163.31044 470.173478 
L 160.966948 471.378825 
L 160.959219 471.383726 
L 159.369687 473.968381 
L 160.966948 476.081862 
L 161.823972 476.553037 
z
" clip-path="url(#p89f0011c85)" style="fill: #084285"/>
   </g>
   <g id="matplotlib.axis_1">
    <g id="xtick_1">
     <g id="line2d_1">
      <defs>
       <path id="mcb7ba86017" d="M 0 0 
L 0 3.5 
" style="stroke: #000000; stroke-width: 0.8"/>
      </defs>
      <g>
       <use xlink:href="#mcb7ba86017" x="91.618601" y="499.48" style="stroke: #000000; stroke-width: 0.8"/>
      </g>
     </g>
     <g id="text_1">
      <!-- 0 -->
      <g transform="translate(84.619851 523.196563) scale(0.22 -0.22)">
       <defs>
        <path id="DejaVuSans-30" d="M 2034 4250 
Q 1547 4250 1301 3770 
Q 1056 3291 1056 2328 
Q 1056 1369 1301 889 
Q 1547 409 2034 409 
Q 2525 409 2770 889 
Q 3016 1369 3016 2328 
Q 3016 3291 2770 3770 
Q 2525 4250 2034 4250 
z
M 2034 4750 
Q 2819 4750 3233 4129 
Q 3647 3509 3647 2328 
Q 3647 1150 3233 529 
Q 2819 -91 2034 -91 
Q 1250 -91 836 529 
Q 422 1150 422 2328 
Q 422 3509 836 4129 
Q 1250 4750 2034 4750 
z
" transform="scale(0.015625)"/>
       </defs>
       <use xlink:href="#DejaVuSans-30"/>
      </g>
     </g>
    </g>
    <g id="xtick_2">
     <g id="line2d_2">
      <g>
       <use xlink:href="#mcb7ba86017" x="192.445983" y="499.48" style="stroke: #000000; stroke-width: 0.8"/>
      </g>
     </g>
     <g id="text_2">
      <!-- 10 -->
      <g transform="translate(178.448483 523.196563) scale(0.22 -0.22)">
       <defs>
        <path id="DejaVuSans-31" d="M 794 531 
L 1825 531 
L 1825 4091 
L 703 3866 
L 703 4441 
L 1819 4666 
L 2450 4666 
L 2450 531 
L 3481 531 
L 3481 0 
L 794 0 
L 794 531 
z
" transform="scale(0.015625)"/>
       </defs>
       <use xlink:href="#DejaVuSans-31"/>
       <use xlink:href="#DejaVuSans-30" x="63.623047"/>
      </g>
     </g>
    </g>
    <g id="xtick_3">
     <g id="line2d_3">
      <g>
       <use xlink:href="#mcb7ba86017" x="293.273365" y="499.48" style="stroke: #000000; stroke-width: 0.8"/>
      </g>
     </g>
     <g id="text_3">
      <!-- 20 -->
      <g transform="translate(279.275865 523.196563) scale(0.22 -0.22)">
       <defs>
        <path id="DejaVuSans-32" d="M 1228 531 
L 3431 531 
L 3431 0 
L 469 0 
L 469 531 
Q 828 903 1448 1529 
Q 2069 2156 2228 2338 
Q 2531 2678 2651 2914 
Q 2772 3150 2772 3378 
Q 2772 3750 2511 3984 
Q 2250 4219 1831 4219 
Q 1534 4219 1204 4116 
Q 875 4013 500 3803 
L 500 4441 
Q 881 4594 1212 4672 
Q 1544 4750 1819 4750 
Q 2544 4750 2975 4387 
Q 3406 4025 3406 3419 
Q 3406 3131 3298 2873 
Q 3191 2616 2906 2266 
Q 2828 2175 2409 1742 
Q 1991 1309 1228 531 
z
" transform="scale(0.015625)"/>
       </defs>
       <use xlink:href="#DejaVuSans-32"/>
       <use xlink:href="#DejaVuSans-30" x="63.623047"/>
      </g>
     </g>
    </g>
    <g id="xtick_4">
     <g id="line2d_4">
      <g>
       <use xlink:href="#mcb7ba86017" x="394.100747" y="499.48" style="stroke: #000000; stroke-width: 0.8"/>
      </g>
     </g>
     <g id="text_4">
      <!-- 30 -->
      <g transform="translate(380.103247 523.196563) scale(0.22 -0.22)">
       <defs>
        <path id="DejaVuSans-33" d="M 2597 2516 
Q 3050 2419 3304 2112 
Q 3559 1806 3559 1356 
Q 3559 666 3084 287 
Q 2609 -91 1734 -91 
Q 1441 -91 1130 -33 
Q 819 25 488 141 
L 488 750 
Q 750 597 1062 519 
Q 1375 441 1716 441 
Q 2309 441 2620 675 
Q 2931 909 2931 1356 
Q 2931 1769 2642 2001 
Q 2353 2234 1838 2234 
L 1294 2234 
L 1294 2753 
L 1863 2753 
Q 2328 2753 2575 2939 
Q 2822 3125 2822 3475 
Q 2822 3834 2567 4026 
Q 2313 4219 1838 4219 
Q 1578 4219 1281 4162 
Q 984 4106 628 3988 
L 628 4550 
Q 988 4650 1302 4700 
Q 1616 4750 1894 4750 
Q 2613 4750 3031 4423 
Q 3450 4097 3450 3541 
Q 3450 3153 3228 2886 
Q 3006 2619 2597 2516 
z
" transform="scale(0.015625)"/>
       </defs>
       <use xlink:href="#DejaVuSans-33"/>
       <use xlink:href="#DejaVuSans-30" x="63.623047"/>
      </g>
     </g>
    </g>
    <g id="xtick_5">
     <g id="line2d_5">
      <g>
       <use xlink:href="#mcb7ba86017" x="494.92813" y="499.48" style="stroke: #000000; stroke-width: 0.8"/>
      </g>
     </g>
     <g id="text_5">
      <!-- 40 -->
      <g transform="translate(480.93063 523.196563) scale(0.22 -0.22)">
       <defs>
        <path id="DejaVuSans-34" d="M 2419 4116 
L 825 1625 
L 2419 1625 
L 2419 4116 
z
M 2253 4666 
L 3047 4666 
L 3047 1625 
L 3713 1625 
L 3713 1100 
L 3047 1100 
L 3047 0 
L 2419 0 
L 2419 1100 
L 313 1100 
L 313 1709 
L 2253 4666 
z
" transform="scale(0.015625)"/>
       </defs>
       <use xlink:href="#DejaVuSans-34"/>
       <use xlink:href="#DejaVuSans-30" x="63.623047"/>
      </g>
     </g>
    </g>
    <g id="xtick_6">
     <g id="line2d_6">
      <g>
       <use xlink:href="#mcb7ba86017" x="595.755512" y="499.48" style="stroke: #000000; stroke-width: 0.8"/>
      </g>
     </g>
     <g id="text_6">
      <!-- 50 -->
      <g transform="translate(581.758012 523.196563) scale(0.22 -0.22)">
       <defs>
        <path id="DejaVuSans-35" d="M 691 4666 
L 3169 4666 
L 3169 4134 
L 1269 4134 
L 1269 2991 
Q 1406 3038 1543 3061 
Q 1681 3084 1819 3084 
Q 2600 3084 3056 2656 
Q 3513 2228 3513 1497 
Q 3513 744 3044 326 
Q 2575 -91 1722 -91 
Q 1428 -91 1123 -41 
Q 819 9 494 109 
L 494 744 
Q 775 591 1075 516 
Q 1375 441 1709 441 
Q 2250 441 2565 725 
Q 2881 1009 2881 1497 
Q 2881 1984 2565 2268 
Q 2250 2553 1709 2553 
Q 1456 2553 1204 2497 
Q 953 2441 691 2322 
L 691 4666 
z
" transform="scale(0.015625)"/>
       </defs>
       <use xlink:href="#DejaVuSans-35"/>
       <use xlink:href="#DejaVuSans-30" x="63.623047"/>
      </g>
     </g>
    </g>
    <g id="text_7">
     <!-- Force Uncertainties -->
     <g transform="translate(283.426094 548.488438) scale(0.22 -0.22)">
      <defs>
       <path id="DejaVuSans-46" d="M 628 4666 
L 3309 4666 
L 3309 4134 
L 1259 4134 
L 1259 2759 
L 3109 2759 
L 3109 2228 
L 1259 2228 
L 1259 0 
L 628 0 
L 628 4666 
z
" transform="scale(0.015625)"/>
       <path id="DejaVuSans-6f" d="M 1959 3097 
Q 1497 3097 1228 2736 
Q 959 2375 959 1747 
Q 959 1119 1226 758 
Q 1494 397 1959 397 
Q 2419 397 2687 759 
Q 2956 1122 2956 1747 
Q 2956 2369 2687 2733 
Q 2419 3097 1959 3097 
z
M 1959 3584 
Q 2709 3584 3137 3096 
Q 3566 2609 3566 1747 
Q 3566 888 3137 398 
Q 2709 -91 1959 -91 
Q 1206 -91 779 398 
Q 353 888 353 1747 
Q 353 2609 779 3096 
Q 1206 3584 1959 3584 
z
" transform="scale(0.015625)"/>
       <path id="DejaVuSans-72" d="M 2631 2963 
Q 2534 3019 2420 3045 
Q 2306 3072 2169 3072 
Q 1681 3072 1420 2755 
Q 1159 2438 1159 1844 
L 1159 0 
L 581 0 
L 581 3500 
L 1159 3500 
L 1159 2956 
Q 1341 3275 1631 3429 
Q 1922 3584 2338 3584 
Q 2397 3584 2469 3576 
Q 2541 3569 2628 3553 
L 2631 2963 
z
" transform="scale(0.015625)"/>
       <path id="DejaVuSans-63" d="M 3122 3366 
L 3122 2828 
Q 2878 2963 2633 3030 
Q 2388 3097 2138 3097 
Q 1578 3097 1268 2742 
Q 959 2388 959 1747 
Q 959 1106 1268 751 
Q 1578 397 2138 397 
Q 2388 397 2633 464 
Q 2878 531 3122 666 
L 3122 134 
Q 2881 22 2623 -34 
Q 2366 -91 2075 -91 
Q 1284 -91 818 406 
Q 353 903 353 1747 
Q 353 2603 823 3093 
Q 1294 3584 2113 3584 
Q 2378 3584 2631 3529 
Q 2884 3475 3122 3366 
z
" transform="scale(0.015625)"/>
       <path id="DejaVuSans-65" d="M 3597 1894 
L 3597 1613 
L 953 1613 
Q 991 1019 1311 708 
Q 1631 397 2203 397 
Q 2534 397 2845 478 
Q 3156 559 3463 722 
L 3463 178 
Q 3153 47 2828 -22 
Q 2503 -91 2169 -91 
Q 1331 -91 842 396 
Q 353 884 353 1716 
Q 353 2575 817 3079 
Q 1281 3584 2069 3584 
Q 2775 3584 3186 3129 
Q 3597 2675 3597 1894 
z
M 3022 2063 
Q 3016 2534 2758 2815 
Q 2500 3097 2075 3097 
Q 1594 3097 1305 2825 
Q 1016 2553 972 2059 
L 3022 2063 
z
" transform="scale(0.015625)"/>
       <path id="DejaVuSans-20" transform="scale(0.015625)"/>
       <path id="DejaVuSans-55" d="M 556 4666 
L 1191 4666 
L 1191 1831 
Q 1191 1081 1462 751 
Q 1734 422 2344 422 
Q 2950 422 3222 751 
Q 3494 1081 3494 1831 
L 3494 4666 
L 4128 4666 
L 4128 1753 
Q 4128 841 3676 375 
Q 3225 -91 2344 -91 
Q 1459 -91 1007 375 
Q 556 841 556 1753 
L 556 4666 
z
" transform="scale(0.015625)"/>
       <path id="DejaVuSans-6e" d="M 3513 2113 
L 3513 0 
L 2938 0 
L 2938 2094 
Q 2938 2591 2744 2837 
Q 2550 3084 2163 3084 
Q 1697 3084 1428 2787 
Q 1159 2491 1159 1978 
L 1159 0 
L 581 0 
L 581 3500 
L 1159 3500 
L 1159 2956 
Q 1366 3272 1645 3428 
Q 1925 3584 2291 3584 
Q 2894 3584 3203 3211 
Q 3513 2838 3513 2113 
z
" transform="scale(0.015625)"/>
       <path id="DejaVuSans-74" d="M 1172 4494 
L 1172 3500 
L 2356 3500 
L 2356 3053 
L 1172 3053 
L 1172 1153 
Q 1172 725 1289 603 
Q 1406 481 1766 481 
L 2356 481 
L 2356 0 
L 1766 0 
Q 1100 0 847 248 
Q 594 497 594 1153 
L 594 3053 
L 172 3053 
L 172 3500 
L 594 3500 
L 594 4494 
L 1172 4494 
z
" transform="scale(0.015625)"/>
       <path id="DejaVuSans-61" d="M 2194 1759 
Q 1497 1759 1228 1600 
Q 959 1441 959 1056 
Q 959 750 1161 570 
Q 1363 391 1709 391 
Q 2188 391 2477 730 
Q 2766 1069 2766 1631 
L 2766 1759 
L 2194 1759 
z
M 3341 1997 
L 3341 0 
L 2766 0 
L 2766 531 
Q 2569 213 2275 61 
Q 1981 -91 1556 -91 
Q 1019 -91 701 211 
Q 384 513 384 1019 
Q 384 1609 779 1909 
Q 1175 2209 1959 2209 
L 2766 2209 
L 2766 2266 
Q 2766 2663 2505 2880 
Q 2244 3097 1772 3097 
Q 1472 3097 1187 3025 
Q 903 2953 641 2809 
L 641 3341 
Q 956 3463 1253 3523 
Q 1550 3584 1831 3584 
Q 2591 3584 2966 3190 
Q 3341 2797 3341 1997 
z
" transform="scale(0.015625)"/>
       <path id="DejaVuSans-69" d="M 603 3500 
L 1178 3500 
L 1178 0 
L 603 0 
L 603 3500 
z
M 603 4863 
L 1178 4863 
L 1178 4134 
L 603 4134 
L 603 4863 
z
" transform="scale(0.015625)"/>
       <path id="DejaVuSans-73" d="M 2834 3397 
L 2834 2853 
Q 2591 2978 2328 3040 
Q 2066 3103 1784 3103 
Q 1356 3103 1142 2972 
Q 928 2841 928 2578 
Q 928 2378 1081 2264 
Q 1234 2150 1697 2047 
L 1894 2003 
Q 2506 1872 2764 1633 
Q 3022 1394 3022 966 
Q 3022 478 2636 193 
Q 2250 -91 1575 -91 
Q 1294 -91 989 -36 
Q 684 19 347 128 
L 347 722 
Q 666 556 975 473 
Q 1284 391 1588 391 
Q 1994 391 2212 530 
Q 2431 669 2431 922 
Q 2431 1156 2273 1281 
Q 2116 1406 1581 1522 
L 1381 1569 
Q 847 1681 609 1914 
Q 372 2147 372 2553 
Q 372 3047 722 3315 
Q 1072 3584 1716 3584 
Q 2034 3584 2315 3537 
Q 2597 3491 2834 3397 
z
" transform="scale(0.015625)"/>
      </defs>
      <use xlink:href="#DejaVuSans-46"/>
      <use xlink:href="#DejaVuSans-6f" x="53.894531"/>
      <use xlink:href="#DejaVuSans-72" x="115.076172"/>
      <use xlink:href="#DejaVuSans-63" x="153.939453"/>
      <use xlink:href="#DejaVuSans-65" x="208.919922"/>
      <use xlink:href="#DejaVuSans-20" x="270.443359"/>
      <use xlink:href="#DejaVuSans-55" x="302.230469"/>
      <use xlink:href="#DejaVuSans-6e" x="375.423828"/>
      <use xlink:href="#DejaVuSans-63" x="438.802734"/>
      <use xlink:href="#DejaVuSans-65" x="493.783203"/>
      <use xlink:href="#DejaVuSans-72" x="555.306641"/>
      <use xlink:href="#DejaVuSans-74" x="596.419922"/>
      <use xlink:href="#DejaVuSans-61" x="635.628906"/>
      <use xlink:href="#DejaVuSans-69" x="696.908203"/>
      <use xlink:href="#DejaVuSans-6e" x="724.691406"/>
      <use xlink:href="#DejaVuSans-74" x="788.070312"/>
      <use xlink:href="#DejaVuSans-69" x="827.279297"/>
      <use xlink:href="#DejaVuSans-65" x="855.0625"/>
      <use xlink:href="#DejaVuSans-73" x="916.585938"/>
     </g>
    </g>
   </g>
   <g id="matplotlib.axis_2">
    <g id="ytick_1">
     <g id="line2d_7">
      <defs>
       <path id="m3955133bf3" d="M 0 0 
L -3.5 0 
" style="stroke: #000000; stroke-width: 0.8"/>
      </defs>
      <g>
       <use xlink:href="#m3955133bf3" x="83.72" y="493.34547" style="stroke: #000000; stroke-width: 0.8"/>
      </g>
     </g>
     <g id="text_8">
      <!-- 0 -->
      <g transform="translate(62.7225 501.703751) scale(0.22 -0.22)">
       <use xlink:href="#DejaVuSans-30"/>
      </g>
     </g>
    </g>
    <g id="ytick_2">
     <g id="line2d_8">
      <g>
       <use xlink:href="#m3955133bf3" x="83.72" y="415.03684" style="stroke: #000000; stroke-width: 0.8"/>
      </g>
     </g>
     <g id="text_9">
      <!-- 10 -->
      <g transform="translate(48.725 423.395121) scale(0.22 -0.22)">
       <use xlink:href="#DejaVuSans-31"/>
       <use xlink:href="#DejaVuSans-30" x="63.623047"/>
      </g>
     </g>
    </g>
    <g id="ytick_3">
     <g id="line2d_9">
      <g>
       <use xlink:href="#m3955133bf3" x="83.72" y="336.728209" style="stroke: #000000; stroke-width: 0.8"/>
      </g>
     </g>
     <g id="text_10">
      <!-- 20 -->
      <g transform="translate(48.725 345.08649) scale(0.22 -0.22)">
       <use xlink:href="#DejaVuSans-32"/>
       <use xlink:href="#DejaVuSans-30" x="63.623047"/>
      </g>
     </g>
    </g>
    <g id="ytick_4">
     <g id="line2d_10">
      <g>
       <use xlink:href="#m3955133bf3" x="83.72" y="258.419579" style="stroke: #000000; stroke-width: 0.8"/>
      </g>
     </g>
     <g id="text_11">
      <!-- 30 -->
      <g transform="translate(48.725 266.77786) scale(0.22 -0.22)">
       <use xlink:href="#DejaVuSans-33"/>
       <use xlink:href="#DejaVuSans-30" x="63.623047"/>
      </g>
     </g>
    </g>
    <g id="ytick_5">
     <g id="line2d_11">
      <g>
       <use xlink:href="#m3955133bf3" x="83.72" y="180.110949" style="stroke: #000000; stroke-width: 0.8"/>
      </g>
     </g>
     <g id="text_12">
      <!-- 40 -->
      <g transform="translate(48.725 188.46923) scale(0.22 -0.22)">
       <use xlink:href="#DejaVuSans-34"/>
       <use xlink:href="#DejaVuSans-30" x="63.623047"/>
      </g>
     </g>
    </g>
    <g id="ytick_6">
     <g id="line2d_12">
      <g>
       <use xlink:href="#m3955133bf3" x="83.72" y="101.802318" style="stroke: #000000; stroke-width: 0.8"/>
      </g>
     </g>
     <g id="text_13">
      <!-- 50 -->
      <g transform="translate(48.725 110.160599) scale(0.22 -0.22)">
       <use xlink:href="#DejaVuSans-35"/>
       <use xlink:href="#DejaVuSans-30" x="63.623047"/>
      </g>
     </g>
    </g>
    <g id="text_14">
     <!-- Force Errors [kJ/(mol*A)] -->
     <g transform="translate(40.149688 394.9125) rotate(-90) scale(0.22 -0.22)">
      <defs>
       <path id="DejaVuSans-45" d="M 628 4666 
L 3578 4666 
L 3578 4134 
L 1259 4134 
L 1259 2753 
L 3481 2753 
L 3481 2222 
L 1259 2222 
L 1259 531 
L 3634 531 
L 3634 0 
L 628 0 
L 628 4666 
z
" transform="scale(0.015625)"/>
       <path id="DejaVuSans-5b" d="M 550 4863 
L 1875 4863 
L 1875 4416 
L 1125 4416 
L 1125 -397 
L 1875 -397 
L 1875 -844 
L 550 -844 
L 550 4863 
z
" transform="scale(0.015625)"/>
       <path id="DejaVuSans-6b" d="M 581 4863 
L 1159 4863 
L 1159 1991 
L 2875 3500 
L 3609 3500 
L 1753 1863 
L 3688 0 
L 2938 0 
L 1159 1709 
L 1159 0 
L 581 0 
L 581 4863 
z
" transform="scale(0.015625)"/>
       <path id="DejaVuSans-4a" d="M 628 4666 
L 1259 4666 
L 1259 325 
Q 1259 -519 939 -900 
Q 619 -1281 -91 -1281 
L -331 -1281 
L -331 -750 
L -134 -750 
Q 284 -750 456 -515 
Q 628 -281 628 325 
L 628 4666 
z
" transform="scale(0.015625)"/>
       <path id="DejaVuSans-2f" d="M 1625 4666 
L 2156 4666 
L 531 -594 
L 0 -594 
L 1625 4666 
z
" transform="scale(0.015625)"/>
       <path id="DejaVuSans-28" d="M 1984 4856 
Q 1566 4138 1362 3434 
Q 1159 2731 1159 2009 
Q 1159 1288 1364 580 
Q 1569 -128 1984 -844 
L 1484 -844 
Q 1016 -109 783 600 
Q 550 1309 550 2009 
Q 550 2706 781 3412 
Q 1013 4119 1484 4856 
L 1984 4856 
z
" transform="scale(0.015625)"/>
       <path id="DejaVuSans-6d" d="M 3328 2828 
Q 3544 3216 3844 3400 
Q 4144 3584 4550 3584 
Q 5097 3584 5394 3201 
Q 5691 2819 5691 2113 
L 5691 0 
L 5113 0 
L 5113 2094 
Q 5113 2597 4934 2840 
Q 4756 3084 4391 3084 
Q 3944 3084 3684 2787 
Q 3425 2491 3425 1978 
L 3425 0 
L 2847 0 
L 2847 2094 
Q 2847 2600 2669 2842 
Q 2491 3084 2119 3084 
Q 1678 3084 1418 2786 
Q 1159 2488 1159 1978 
L 1159 0 
L 581 0 
L 581 3500 
L 1159 3500 
L 1159 2956 
Q 1356 3278 1631 3431 
Q 1906 3584 2284 3584 
Q 2666 3584 2933 3390 
Q 3200 3197 3328 2828 
z
" transform="scale(0.015625)"/>
       <path id="DejaVuSans-6c" d="M 603 4863 
L 1178 4863 
L 1178 0 
L 603 0 
L 603 4863 
z
" transform="scale(0.015625)"/>
       <path id="DejaVuSans-2a" d="M 3009 3897 
L 1888 3291 
L 3009 2681 
L 2828 2375 
L 1778 3009 
L 1778 1831 
L 1422 1831 
L 1422 3009 
L 372 2375 
L 191 2681 
L 1313 3291 
L 191 3897 
L 372 4206 
L 1422 3572 
L 1422 4750 
L 1778 4750 
L 1778 3572 
L 2828 4206 
L 3009 3897 
z
" transform="scale(0.015625)"/>
       <path id="DejaVuSans-41" d="M 2188 4044 
L 1331 1722 
L 3047 1722 
L 2188 4044 
z
M 1831 4666 
L 2547 4666 
L 4325 0 
L 3669 0 
L 3244 1197 
L 1141 1197 
L 716 0 
L 50 0 
L 1831 4666 
z
" transform="scale(0.015625)"/>
       <path id="DejaVuSans-29" d="M 513 4856 
L 1013 4856 
Q 1481 4119 1714 3412 
Q 1947 2706 1947 2009 
Q 1947 1309 1714 600 
Q 1481 -109 1013 -844 
L 513 -844 
Q 928 -128 1133 580 
Q 1338 1288 1338 2009 
Q 1338 2731 1133 3434 
Q 928 4138 513 4856 
z
" transform="scale(0.015625)"/>
       <path id="DejaVuSans-5d" d="M 1947 4863 
L 1947 -844 
L 622 -844 
L 622 -397 
L 1369 -397 
L 1369 4416 
L 622 4416 
L 622 4863 
L 1947 4863 
z
" transform="scale(0.015625)"/>
      </defs>
      <use xlink:href="#DejaVuSans-46"/>
      <use xlink:href="#DejaVuSans-6f" x="53.894531"/>
      <use xlink:href="#DejaVuSans-72" x="115.076172"/>
      <use xlink:href="#DejaVuSans-63" x="153.939453"/>
      <use xlink:href="#DejaVuSans-65" x="208.919922"/>
      <use xlink:href="#DejaVuSans-20" x="270.443359"/>
      <use xlink:href="#DejaVuSans-45" x="302.230469"/>
      <use xlink:href="#DejaVuSans-72" x="365.414062"/>
      <use xlink:href="#DejaVuSans-72" x="404.777344"/>
      <use xlink:href="#DejaVuSans-6f" x="443.640625"/>
      <use xlink:href="#DejaVuSans-72" x="504.822266"/>
      <use xlink:href="#DejaVuSans-73" x="545.935547"/>
      <use xlink:href="#DejaVuSans-20" x="598.035156"/>
      <use xlink:href="#DejaVuSans-5b" x="629.822266"/>
      <use xlink:href="#DejaVuSans-6b" x="668.835938"/>
      <use xlink:href="#DejaVuSans-4a" x="726.746094"/>
      <use xlink:href="#DejaVuSans-2f" x="756.238281"/>
      <use xlink:href="#DejaVuSans-28" x="789.929688"/>
      <use xlink:href="#DejaVuSans-6d" x="828.943359"/>
      <use xlink:href="#DejaVuSans-6f" x="926.355469"/>
      <use xlink:href="#DejaVuSans-6c" x="987.537109"/>
      <use xlink:href="#DejaVuSans-2a" x="1015.320312"/>
      <use xlink:href="#DejaVuSans-41" x="1065.320312"/>
      <use xlink:href="#DejaVuSans-29" x="1133.728516"/>
      <use xlink:href="#DejaVuSans-5d" x="1172.742188"/>
     </g>
    </g>
   </g>
   <g id="line2d_13">
    <path d="M 83.72 499.48 
L 696.24 23.76 
" clip-path="url(#p89f0011c85)" style="fill: none; stroke-dasharray: 5.55,2.4; stroke-dashoffset: 0; stroke: #ff0000; stroke-width: 1.5"/>
   </g>
   <g id="patch_3">
    <path d="M 83.72 499.48 
L 83.72 23.76 
" style="fill: none; stroke: #000000; stroke-width: 0.8; stroke-linejoin: miter; stroke-linecap: square"/>
   </g>
   <g id="patch_4">
    <path d="M 696.24 499.48 
L 696.24 23.76 
" style="fill: none; stroke: #000000; stroke-width: 0.8; stroke-linejoin: miter; stroke-linecap: square"/>
   </g>
   <g id="patch_5">
    <path d="M 83.72 499.48 
L 696.24 499.48 
" style="fill: none; stroke: #000000; stroke-width: 0.8; stroke-linejoin: miter; stroke-linecap: square"/>
   </g>
   <g id="patch_6">
    <path d="M 83.72 23.76 
L 696.24 23.76 
" style="fill: none; stroke: #000000; stroke-width: 0.8; stroke-linejoin: miter; stroke-linecap: square"/>
   </g>
   <g id="text_15">
    <!-- Correlation in: 0.471 -->
    <g transform="translate(144.972 71.332) scale(0.22 -0.22)">
     <defs>
      <path id="DejaVuSans-43" d="M 4122 4306 
L 4122 3641 
Q 3803 3938 3442 4084 
Q 3081 4231 2675 4231 
Q 1875 4231 1450 3742 
Q 1025 3253 1025 2328 
Q 1025 1406 1450 917 
Q 1875 428 2675 428 
Q 3081 428 3442 575 
Q 3803 722 4122 1019 
L 4122 359 
Q 3791 134 3420 21 
Q 3050 -91 2638 -91 
Q 1578 -91 968 557 
Q 359 1206 359 2328 
Q 359 3453 968 4101 
Q 1578 4750 2638 4750 
Q 3056 4750 3426 4639 
Q 3797 4528 4122 4306 
z
" transform="scale(0.015625)"/>
      <path id="DejaVuSans-3a" d="M 750 794 
L 1409 794 
L 1409 0 
L 750 0 
L 750 794 
z
M 750 3309 
L 1409 3309 
L 1409 2516 
L 750 2516 
L 750 3309 
z
" transform="scale(0.015625)"/>
      <path id="DejaVuSans-2e" d="M 684 794 
L 1344 794 
L 1344 0 
L 684 0 
L 684 794 
z
" transform="scale(0.015625)"/>
      <path id="DejaVuSans-37" d="M 525 4666 
L 3525 4666 
L 3525 4397 
L 1831 0 
L 1172 0 
L 2766 4134 
L 525 4134 
L 525 4666 
z
" transform="scale(0.015625)"/>
     </defs>
     <use xlink:href="#DejaVuSans-43"/>
     <use xlink:href="#DejaVuSans-6f" x="69.824219"/>
     <use xlink:href="#DejaVuSans-72" x="131.005859"/>
     <use xlink:href="#DejaVuSans-72" x="170.369141"/>
     <use xlink:href="#DejaVuSans-65" x="209.232422"/>
     <use xlink:href="#DejaVuSans-6c" x="270.755859"/>
     <use xlink:href="#DejaVuSans-61" x="298.539062"/>
     <use xlink:href="#DejaVuSans-74" x="359.818359"/>
     <use xlink:href="#DejaVuSans-69" x="399.027344"/>
     <use xlink:href="#DejaVuSans-6f" x="426.810547"/>
     <use xlink:href="#DejaVuSans-6e" x="487.992188"/>
     <use xlink:href="#DejaVuSans-20" x="551.371094"/>
     <use xlink:href="#DejaVuSans-69" x="583.158203"/>
     <use xlink:href="#DejaVuSans-6e" x="610.941406"/>
     <use xlink:href="#DejaVuSans-3a" x="674.320312"/>
     <use xlink:href="#DejaVuSans-20" x="708.011719"/>
     <use xlink:href="#DejaVuSans-30" x="739.798828"/>
     <use xlink:href="#DejaVuSans-2e" x="803.421875"/>
     <use xlink:href="#DejaVuSans-34" x="835.208984"/>
     <use xlink:href="#DejaVuSans-37" x="898.832031"/>
     <use xlink:href="#DejaVuSans-31" x="962.455078"/>
    </g>
   </g>
  </g>
 </g>
 <defs>
  <clipPath id="p89f0011c85">
   <rect x="83.72" y="23.76" width="612.52" height="475.72"/>
  </clipPath>
 </defs>
</svg>
