<?xml version="1.0" encoding="utf-8" standalone="no"?>
<!DOCTYPE svg PUBLIC "-//W3C//DTD SVG 1.1//EN"
  "http://www.w3.org/Graphics/SVG/1.1/DTD/svg11.dtd">
<svg xmlns:xlink="http://www.w3.org/1999/xlink" width="720pt" height="576pt" viewBox="0 0 720 576" xmlns="http://www.w3.org/2000/svg" version="1.1">
 <metadata>
  <rdf:RDF xmlns:dc="http://purl.org/dc/elements/1.1/" xmlns:cc="http://creativecommons.org/ns#" xmlns:rdf="http://www.w3.org/1999/02/22-rdf-syntax-ns#">
   <cc:Work>
    <dc:type rdf:resource="http://purl.org/dc/dcmitype/StillImage"/>
    <dc:date>2024-12-07T20:45:55.309080</dc:date>
    <dc:format>image/svg+xml</dc:format>
    <dc:creator>
     <cc:Agent>
      <dc:title>Matplotlib v3.8.4, https://matplotlib.org/</dc:title>
     </cc:Agent>
    </dc:creator>
   </cc:Work>
  </rdf:RDF>
 </metadata>
 <defs>
  <style type="text/css">*{stroke-linejoin: round; stroke-linecap: butt}</style>
 </defs>
 <g id="figure_1">
  <g id="patch_1">
   <path d="M 0 576 
L 720 576 
L 720 0 
L 0 0 
z
" style="fill: #ffffff"/>
  </g>
  <g id="axes_1">
   <g id="patch_2">
    <path d="M 97.76 499.48 
L 696.24 499.48 
L 696.24 23.76 
L 97.76 23.76 
z
" style="fill: #ffffff"/>
   </g>
   <g id="QuadContourSet_1">
    <path d="M 112.770133 494.238807 
L 113.755541 494.466691 
L 114.740949 494.591363 
L 115.726358 494.623598 
L 116.711766 494.566742 
L 117.697174 494.424964 
L 118.682582 494.189398 
L 119.012255 494.089276 
L 119.66799 493.989894 
L 120.653399 493.790758 
L 121.638807 493.485986 
L 122.271165 493.193851 
L 122.624215 493.102235 
L 123.609623 492.771405 
L 124.474958 492.298426 
L 124.595031 492.256661 
L 125.580439 491.894946 
L 126.461397 491.403001 
L 126.565848 491.360836 
L 127.551256 490.976459 
L 128.408424 490.507576 
L 128.536664 490.449933 
L 129.522072 489.961332 
L 130.05641 489.61215 
L 130.50748 489.339293 
L 131.347901 488.716725 
L 131.492889 488.601006 
L 132.400116 487.8213 
L 132.478297 487.735905 
L 133.262356 486.925875 
L 133.463705 486.605415 
L 133.899527 486.03045 
L 134.221092 485.135025 
L 134.183233 484.2396 
L 133.947555 483.344175 
L 133.580907 482.44875 
L 133.463705 482.273856 
L 132.69335 481.553325 
L 132.478297 481.441856 
L 131.492889 481.169183 
L 130.50748 481.00985 
L 129.522072 480.834697 
L 128.536664 480.660381 
L 128.519481 480.6579 
L 127.551256 480.424625 
L 126.565848 480.376385 
L 125.580439 480.558136 
L 125.339344 480.6579 
L 124.595031 480.833314 
L 123.609623 481.171674 
L 122.850721 481.553325 
L 122.624215 481.624107 
L 121.638807 481.964035 
L 120.700852 482.44875 
L 120.653399 482.464953 
L 119.66799 482.803649 
L 118.682582 483.344175 
L 118.682582 483.344175 
L 117.697174 483.719644 
L 116.800462 484.2396 
L 116.711766 484.279607 
L 115.726358 484.750027 
L 115.130656 485.135025 
L 114.740949 485.351113 
L 113.796414 486.03045 
L 113.755541 486.058777 
L 112.770133 486.821035 
L 112.650713 486.925875 
L 111.784725 487.736616 
L 111.696942 487.8213 
L 110.901738 488.716725 
L 110.799317 488.888965 
L 110.273756 489.61215 
L 109.938826 490.507576 
L 109.930149 491.403001 
L 110.277044 492.298426 
L 110.799317 493.039296 
L 110.899661 493.193851 
L 111.784725 493.880096 
L 112.341501 494.089276 
z
M 113.617337 492.298426 
L 112.998328 491.403001 
L 112.875695 490.507576 
L 112.98425 489.61215 
L 113.4181 488.716725 
L 113.755541 488.333104 
L 114.155321 487.8213 
L 114.740949 487.300298 
L 115.157332 486.925875 
L 115.726358 486.495976 
L 116.404316 486.03045 
L 116.711766 485.823236 
L 117.697174 485.238901 
L 117.887403 485.135025 
L 118.682582 484.662142 
L 119.614951 484.2396 
L 119.66799 484.210054 
L 120.653399 483.69219 
L 121.569903 483.344175 
L 121.638807 483.309071 
L 122.624215 482.87279 
L 123.609623 482.584208 
L 124.405351 482.44875 
L 124.595031 482.398581 
L 125.580439 482.32001 
L 126.565848 482.363892 
L 127.181633 482.44875 
L 127.551256 482.484805 
L 128.536664 482.644181 
L 129.522072 482.883445 
L 130.50748 483.306308 
L 130.566933 483.344175 
L 131.301748 484.2396 
L 131.364638 485.135025 
L 131.116874 486.03045 
L 130.50748 486.925875 
L 130.50748 486.925875 
L 129.734078 487.8213 
L 129.522072 487.997716 
L 128.64285 488.716725 
L 128.536664 488.79238 
L 127.551256 489.486249 
L 127.356051 489.61215 
L 126.565848 490.132677 
L 125.83445 490.507576 
L 125.580439 490.661968 
L 124.595031 491.171113 
L 123.993497 491.403001 
L 123.609623 491.602304 
L 122.624215 491.993882 
L 121.638807 492.263136 
L 121.485749 492.298426 
L 120.653399 492.587509 
L 119.66799 492.834675 
L 118.682582 493.004257 
L 117.697174 493.108251 
L 116.711766 493.131728 
L 115.726358 493.050556 
L 114.740949 492.837887 
L 113.755541 492.39273 
z
" clip-path="url(#pa39ed71c64)" style="fill: #e4e4f3"/>
    <path d="M 113.755541 492.39273 
L 114.740949 492.837887 
L 115.726358 493.050556 
L 116.711766 493.131728 
L 117.697174 493.108251 
L 118.682582 493.004257 
L 119.66799 492.834675 
L 120.653399 492.587509 
L 121.485749 492.298426 
L 121.638807 492.263136 
L 122.624215 491.993882 
L 123.609623 491.602304 
L 123.993497 491.403001 
L 124.595031 491.171113 
L 125.580439 490.661968 
L 125.83445 490.507576 
L 126.565848 490.132677 
L 127.356051 489.61215 
L 127.551256 489.486249 
L 128.536664 488.79238 
L 128.64285 488.716725 
L 129.522072 487.997716 
L 129.734078 487.8213 
L 130.50748 486.925875 
L 130.50748 486.925875 
L 131.116874 486.03045 
L 131.364638 485.135025 
L 131.301748 484.2396 
L 130.566933 483.344175 
L 130.50748 483.306308 
L 129.522072 482.883445 
L 128.536664 482.644181 
L 127.551256 482.484805 
L 127.181633 482.44875 
L 126.565848 482.363892 
L 125.580439 482.32001 
L 124.595031 482.398581 
L 124.405351 482.44875 
L 123.609623 482.584208 
L 122.624215 482.87279 
L 121.638807 483.309071 
L 121.569903 483.344175 
L 120.653399 483.69219 
L 119.66799 484.210054 
L 119.614951 484.2396 
L 118.682582 484.662142 
L 117.887403 485.135025 
L 117.697174 485.238901 
L 116.711766 485.823236 
L 116.404316 486.03045 
L 115.726358 486.495976 
L 115.157332 486.925875 
L 114.740949 487.300298 
L 114.155321 487.8213 
L 113.755541 488.333104 
L 113.4181 488.716725 
L 112.98425 489.61215 
L 112.875695 490.507576 
L 112.998328 491.403001 
L 113.617337 492.298426 
z
M 117.099808 492.298426 
L 116.711766 492.268484 
L 115.726358 492.029746 
L 114.740949 491.459186 
L 114.678006 491.403001 
L 114.323288 490.507576 
L 114.449176 489.61215 
L 114.740949 489.025892 
L 114.867779 488.716725 
L 115.559828 487.8213 
L 115.726358 487.671187 
L 116.539995 486.925875 
L 116.711766 486.798094 
L 117.697174 486.098942 
L 117.79835 486.03045 
L 118.682582 485.464637 
L 119.299207 485.135025 
L 119.66799 484.922927 
L 120.653399 484.433676 
L 121.14013 484.2396 
L 121.638807 483.996077 
L 122.624215 483.640403 
L 123.609623 483.415313 
L 124.265148 483.344175 
L 124.595031 483.291942 
L 125.580439 483.262408 
L 126.565848 483.344175 
L 126.565848 483.344175 
L 127.551256 483.509267 
L 128.536664 483.82149 
L 129.303133 484.2396 
L 129.522072 484.483874 
L 129.911994 485.135025 
L 129.832117 486.03045 
L 129.522072 486.549901 
L 129.339239 486.925875 
L 128.538885 487.8213 
L 128.536664 487.823196 
L 127.551256 488.670325 
L 127.496328 488.716725 
L 126.565848 489.382187 
L 126.197626 489.61215 
L 125.580439 489.997421 
L 124.595031 490.479609 
L 124.530099 490.507576 
L 123.609623 490.957166 
L 122.624215 491.305077 
L 122.290779 491.403001 
L 121.638807 491.651255 
L 120.653399 491.938382 
L 119.66799 492.143521 
L 118.682582 492.282165 
L 118.355169 492.298426 
L 117.697174 492.346251 
z
" clip-path="url(#pa39ed71c64)" style="fill: #cbcbf5"/>
    <path d="M 117.697174 492.346251 
L 118.355169 492.298426 
L 118.682582 492.282165 
L 119.66799 492.143521 
L 120.653399 491.938382 
L 121.638807 491.651255 
L 122.290779 491.403001 
L 122.624215 491.305077 
L 123.609623 490.957166 
L 124.530099 490.507576 
L 124.595031 490.479609 
L 125.580439 489.997421 
L 126.197626 489.61215 
L 126.565848 489.382187 
L 127.496328 488.716725 
L 127.551256 488.670325 
L 128.536664 487.823196 
L 128.538885 487.8213 
L 129.339239 486.925875 
L 129.522072 486.549901 
L 129.832117 486.03045 
L 129.911994 485.135025 
L 129.522072 484.483874 
L 129.303133 484.2396 
L 128.536664 483.82149 
L 127.551256 483.509267 
L 126.565848 483.344175 
L 126.565848 483.344175 
L 125.580439 483.262408 
L 124.595031 483.291942 
L 124.265148 483.344175 
L 123.609623 483.415313 
L 122.624215 483.640403 
L 121.638807 483.996077 
L 121.14013 484.2396 
L 120.653399 484.433676 
L 119.66799 484.922927 
L 119.299207 485.135025 
L 118.682582 485.464637 
L 117.79835 486.03045 
L 117.697174 486.098942 
L 116.711766 486.798094 
L 116.539995 486.925875 
L 115.726358 487.671187 
L 115.559828 487.8213 
L 114.867779 488.716725 
L 114.740949 489.025892 
L 114.449176 489.61215 
L 114.323288 490.507576 
L 114.678006 491.403001 
L 114.740949 491.459186 
L 115.726358 492.029746 
L 116.711766 492.268484 
L 117.099808 492.298426 
z
M 116.711766 491.403001 
L 116.711766 491.403001 
L 115.726358 490.662286 
L 115.610928 490.507576 
L 115.588532 489.61215 
L 115.726358 489.331629 
L 115.977812 488.716725 
L 116.696904 487.8213 
L 116.711766 487.807714 
L 117.677347 486.925875 
L 117.697174 486.911154 
L 118.682582 486.192491 
L 118.933748 486.03045 
L 119.66799 485.575139 
L 120.553872 485.135025 
L 120.653399 485.080975 
L 121.638807 484.635769 
L 122.624215 484.332648 
L 123.123976 484.2396 
L 123.609623 484.12288 
L 124.595031 484.01878 
L 125.580439 484.038909 
L 126.565848 484.199186 
L 126.70453 484.2396 
L 127.551256 484.572483 
L 128.321282 485.135025 
L 128.536664 485.759738 
L 128.607331 486.03045 
L 128.536664 486.199562 
L 128.287336 486.925875 
L 127.560952 487.8213 
L 127.551256 487.82964 
L 126.565848 488.66713 
L 126.506287 488.716725 
L 125.580439 489.3327 
L 125.098137 489.61215 
L 124.595031 489.892778 
L 123.609623 490.344354 
L 123.188067 490.507576 
L 122.624215 490.748916 
L 121.638807 491.085782 
L 120.653399 491.34121 
L 120.328523 491.403001 
L 119.66799 491.561531 
L 118.682582 491.668568 
L 117.697174 491.628973 
z
" clip-path="url(#pa39ed71c64)" style="fill: #aeaef6"/>
    <path d="M 117.697174 491.628973 
L 118.682582 491.668568 
L 119.66799 491.561531 
L 120.328523 491.403001 
L 120.653399 491.34121 
L 121.638807 491.085782 
L 122.624215 490.748916 
L 123.188067 490.507576 
L 123.609623 490.344354 
L 124.595031 489.892778 
L 125.098137 489.61215 
L 125.580439 489.3327 
L 126.506287 488.716725 
L 126.565848 488.66713 
L 127.551256 487.82964 
L 127.560952 487.8213 
L 128.287336 486.925875 
L 128.536664 486.199562 
L 128.607331 486.03045 
L 128.536664 485.759738 
L 128.321282 485.135025 
L 127.551256 484.572483 
L 126.70453 484.2396 
L 126.565848 484.199186 
L 125.580439 484.038909 
L 124.595031 484.01878 
L 123.609623 484.12288 
L 123.123976 484.2396 
L 122.624215 484.332648 
L 121.638807 484.635769 
L 120.653399 485.080975 
L 120.553872 485.135025 
L 119.66799 485.575139 
L 118.933748 486.03045 
L 118.682582 486.192491 
L 117.697174 486.911154 
L 117.677347 486.925875 
L 116.711766 487.807714 
L 116.696904 487.8213 
L 115.977812 488.716725 
L 115.726358 489.331629 
L 115.588532 489.61215 
L 115.610928 490.507576 
L 115.726358 490.662286 
L 116.711766 491.403001 
L 116.711766 491.403001 
z
M 116.657118 490.507576 
L 116.369937 489.61215 
L 116.711766 488.716725 
L 116.711766 488.716725 
L 117.380821 487.8213 
L 117.697174 487.532752 
L 118.381341 486.925875 
L 118.682582 486.705092 
L 119.66799 486.063821 
L 119.72654 486.03045 
L 120.653399 485.518453 
L 121.587568 485.135025 
L 121.638807 485.111548 
L 122.624215 484.788717 
L 123.609623 484.605189 
L 124.595031 484.54532 
L 125.580439 484.626401 
L 126.565848 484.914635 
L 126.986246 485.135025 
L 127.551256 485.885669 
L 127.629231 486.03045 
L 127.551256 486.429725 
L 127.472191 486.925875 
L 126.81394 487.8213 
L 126.565848 488.032346 
L 125.74395 488.716725 
L 125.580439 488.825511 
L 124.595031 489.419925 
L 124.238214 489.61215 
L 123.609623 489.925751 
L 122.624215 490.32982 
L 122.108908 490.507576 
L 121.638807 490.683269 
L 120.653399 490.957461 
L 119.66799 491.127166 
L 118.682582 491.171417 
L 117.697174 491.025835 
L 116.711766 490.551918 
z
" clip-path="url(#pa39ed71c64)" style="fill: #9393f8"/>
    <path d="M 116.711766 490.551918 
L 117.697174 491.025835 
L 118.682582 491.171417 
L 119.66799 491.127166 
L 120.653399 490.957461 
L 121.638807 490.683269 
L 122.108908 490.507576 
L 122.624215 490.32982 
L 123.609623 489.925751 
L 124.238214 489.61215 
L 124.595031 489.419925 
L 125.580439 488.825511 
L 125.74395 488.716725 
L 126.565848 488.032346 
L 126.81394 487.8213 
L 127.472191 486.925875 
L 127.551256 486.429725 
L 127.629231 486.03045 
L 127.551256 485.885669 
L 126.986246 485.135025 
L 126.565848 484.914635 
L 125.580439 484.626401 
L 124.595031 484.54532 
L 123.609623 484.605189 
L 122.624215 484.788717 
L 121.638807 485.111548 
L 121.587568 485.135025 
L 120.653399 485.518453 
L 119.72654 486.03045 
L 119.66799 486.063821 
L 118.682582 486.705092 
L 118.381341 486.925875 
L 117.697174 487.532752 
L 117.380821 487.8213 
L 116.711766 488.716725 
L 116.711766 488.716725 
L 116.369937 489.61215 
L 116.657118 490.507576 
z
M 118.181305 490.507576 
L 117.697174 490.233991 
L 117.231018 489.61215 
L 117.419887 488.716725 
L 117.697174 488.35568 
L 118.085195 487.8213 
L 118.682582 487.289693 
L 119.117796 486.925875 
L 119.66799 486.550308 
L 120.580081 486.03045 
L 120.653399 485.98995 
L 121.638807 485.563923 
L 122.624215 485.277393 
L 123.473405 485.135025 
L 123.609623 485.109647 
L 124.595031 485.085167 
L 124.915039 485.135025 
L 125.580439 485.295088 
L 126.565848 486.03045 
L 126.565848 486.03045 
L 126.590392 486.925875 
L 126.565848 486.960144 
L 126.006074 487.8213 
L 125.580439 488.17724 
L 124.925216 488.716725 
L 124.595031 488.919863 
L 123.609623 489.464325 
L 123.312048 489.61215 
L 122.624215 489.918823 
L 121.638807 490.265831 
L 120.741863 490.507576 
L 120.653399 490.532926 
L 119.66799 490.673491 
L 118.682582 490.637483 
z
" clip-path="url(#pa39ed71c64)" style="fill: #7878f9"/>
    <path d="M 118.682582 490.637483 
L 119.66799 490.673491 
L 120.653399 490.532926 
L 120.741863 490.507576 
L 121.638807 490.265831 
L 122.624215 489.918823 
L 123.312048 489.61215 
L 123.609623 489.464325 
L 124.595031 488.919863 
L 124.925216 488.716725 
L 125.580439 488.17724 
L 126.006074 487.8213 
L 126.565848 486.960144 
L 126.590392 486.925875 
L 126.565848 486.03045 
L 126.565848 486.03045 
L 125.580439 485.295088 
L 124.915039 485.135025 
L 124.595031 485.085167 
L 123.609623 485.109647 
L 123.473405 485.135025 
L 122.624215 485.277393 
L 121.638807 485.563923 
L 120.653399 485.98995 
L 120.580081 486.03045 
L 119.66799 486.550308 
L 119.117796 486.925875 
L 118.682582 487.289693 
L 118.085195 487.8213 
L 117.697174 488.35568 
L 117.419887 488.716725 
L 117.231018 489.61215 
L 117.697174 490.233991 
L 118.181305 490.507576 
z
M 117.950322 489.61215 
L 117.981078 488.716725 
L 118.602042 487.8213 
L 118.682582 487.749628 
L 119.66799 486.925875 
L 119.66799 486.925875 
L 120.653399 486.352954 
L 121.362593 486.03045 
L 121.638807 485.91049 
L 122.624215 485.627843 
L 123.609623 485.495116 
L 124.595031 485.550615 
L 125.580439 485.938548 
L 125.703592 486.03045 
L 125.922216 486.925875 
L 125.580439 487.482834 
L 125.391366 487.8213 
L 124.595031 488.478906 
L 124.301117 488.716725 
L 123.609623 489.110803 
L 122.624215 489.600273 
L 122.595644 489.61215 
L 121.638807 489.957583 
L 120.653399 490.195925 
L 119.66799 490.289067 
L 118.682582 490.118535 
z
" clip-path="url(#pa39ed71c64)" style="fill: #5f5ffa"/>
    <path d="M 118.682582 490.118535 
L 119.66799 490.289067 
L 120.653399 490.195925 
L 121.638807 489.957583 
L 122.595644 489.61215 
L 122.624215 489.600273 
L 123.609623 489.110803 
L 124.301117 488.716725 
L 124.595031 488.478906 
L 125.391366 487.8213 
L 125.580439 487.482834 
L 125.922216 486.925875 
L 125.703592 486.03045 
L 125.580439 485.938548 
L 124.595031 485.550615 
L 123.609623 485.495116 
L 122.624215 485.627843 
L 121.638807 485.91049 
L 121.362593 486.03045 
L 120.653399 486.352954 
L 119.66799 486.925875 
L 119.66799 486.925875 
L 118.682582 487.749628 
L 118.602042 487.8213 
L 117.981078 488.716725 
L 117.950322 489.61215 
z
M 119.240968 489.61215 
L 118.750039 488.716725 
L 119.330163 487.8213 
L 119.66799 487.539338 
L 120.485701 486.925875 
L 120.653399 486.828375 
L 121.638807 486.397446 
L 122.624215 486.10226 
L 123.283858 486.03045 
L 123.609623 485.999766 
L 123.819885 486.03045 
L 124.595031 486.33468 
L 125.005821 486.925875 
L 124.595031 487.8213 
L 124.595031 487.8213 
L 123.609623 488.610725 
L 123.469531 488.716725 
L 122.624215 489.135247 
L 121.638807 489.534396 
L 121.331505 489.61215 
L 120.653399 489.753392 
L 119.66799 489.745103 
z
" clip-path="url(#pa39ed71c64)" style="fill: #4646fb"/>
    <path d="M 119.66799 489.745103 
L 120.653399 489.753392 
L 121.331505 489.61215 
L 121.638807 489.534396 
L 122.624215 489.135247 
L 123.469531 488.716725 
L 123.609623 488.610725 
L 124.595031 487.8213 
L 124.595031 487.8213 
L 125.005821 486.925875 
L 124.595031 486.33468 
L 123.819885 486.03045 
L 123.609623 485.999766 
L 123.283858 486.03045 
L 122.624215 486.10226 
L 121.638807 486.397446 
L 120.653399 486.828375 
L 120.485701 486.925875 
L 119.66799 487.539338 
L 119.330163 487.8213 
L 118.750039 488.716725 
L 119.240968 489.61215 
z
M 119.835767 488.716725 
L 120.252633 487.8213 
L 120.653399 487.530377 
L 121.638807 486.925875 
L 121.638807 486.925875 
L 122.624215 486.720199 
L 123.609623 486.829676 
L 123.768813 486.925875 
L 123.655168 487.8213 
L 123.609623 487.857787 
L 122.624215 488.564444 
L 122.371199 488.716725 
L 121.638807 488.96486 
L 120.653399 489.068606 
z
" clip-path="url(#pa39ed71c64)" style="fill: #2929fd"/>
    <path d="M 120.653399 489.068606 
L 121.638807 488.96486 
L 122.371199 488.716725 
L 122.624215 488.564444 
L 123.609623 487.857787 
L 123.655168 487.8213 
L 123.768813 486.925875 
L 123.609623 486.829676 
L 122.624215 486.720199 
L 121.638807 486.925875 
L 121.638807 486.925875 
L 120.653399 487.530377 
L 120.252633 487.8213 
L 119.835767 488.716725 
z
" clip-path="url(#pa39ed71c64)" style="fill: #0c0cfe"/>
   </g>
   <g id="QuadContourSet_2">
    <path d="M 111.846095 493.630753 
L 114.92884 493.940519 
L 118.011585 493.948431 
L 121.09433 493.672554 
L 122.306081 493.48087 
L 124.177075 493.257602 
L 127.25982 492.67839 
L 127.461364 492.632687 
L 130.342565 491.971793 
L 131.014286 491.784503 
L 133.42531 490.978564 
L 133.549324 490.936319 
L 135.761695 490.088135 
L 136.508055 489.663586 
L 137.417301 489.239952 
L 138.735367 488.391768 
L 139.553602 487.543584 
L 139.5908 487.493811 
L 140.673403 486.695401 
L 141.452748 485.847217 
L 142.028404 484.999033 
L 142.503152 484.150849 
L 142.673544 483.816253 
L 143.124664 483.302666 
L 143.799821 482.454482 
L 144.421987 481.606298 
L 144.998668 480.758115 
L 145.534362 479.909931 
L 145.756289 479.537763 
L 146.142377 479.061747 
L 146.795384 478.213563 
L 147.445792 477.36538 
L 148.11209 476.517196 
L 148.791076 475.669012 
L 148.839034 475.61016 
L 149.826467 474.820829 
L 150.645719 473.972645 
L 151.305847 473.124461 
L 151.890735 472.276277 
L 151.921779 472.233005 
L 152.619992 471.428094 
L 153.275938 470.57991 
L 153.849464 469.731726 
L 154.345668 468.883543 
L 154.766404 468.035359 
L 155.004524 467.424459 
L 155.12763 467.187175 
L 155.394888 466.338991 
L 155.479321 465.490808 
L 155.408633 464.642624 
L 155.258415 463.79444 
L 155.133264 462.946257 
L 155.115673 462.098073 
L 155.22098 461.249889 
L 155.391716 460.401705 
L 155.523558 459.553522 
L 155.52118 458.705338 
L 155.386031 457.857154 
L 155.223038 457.008971 
L 155.115133 456.160787 
L 155.056762 455.312603 
L 155.004524 454.678925 
L 154.992888 454.464419 
L 154.866046 453.616236 
L 154.559143 452.768052 
L 153.967361 451.919868 
L 153.022943 451.071685 
L 151.921779 450.339616 
L 151.740382 450.223501 
L 150.341501 449.375317 
L 148.842862 448.527133 
L 148.839034 448.525046 
L 148.044882 447.67895 
L 147.156631 446.830766 
L 146.168856 445.982582 
L 145.756289 445.64674 
L 145.137832 445.134398 
L 143.982176 444.286215 
L 142.673544 443.495583 
L 142.609378 443.438031 
L 141.694239 442.589847 
L 140.702218 441.741664 
L 139.5908 440.922032 
L 139.557892 440.89348 
L 138.500702 440.045296 
L 137.195741 439.197112 
L 136.508055 438.791762 
L 135.935658 438.348929 
L 134.878183 437.500745 
L 133.826541 436.652561 
L 133.42531 436.318754 
L 132.830093 435.804378 
L 131.603479 434.956194 
L 130.342565 434.288819 
L 129.615824 434.10801 
L 127.25982 433.633787 
L 125.338065 433.259826 
L 124.177075 433.055621 
L 121.09433 432.535478 
L 118.011585 432.433555 
L 114.92884 432.809006 
L 113.790026 433.259826 
L 111.846095 434.097814 
L 111.830156 434.10801 
L 110.576881 434.956194 
L 109.587883 435.804378 
L 108.808573 436.652561 
L 108.76335 436.706272 
L 108.014961 437.500745 
L 107.335585 438.348929 
L 106.771438 439.197112 
L 106.312343 440.045296 
L 105.948446 440.89348 
L 105.680605 441.702561 
L 105.65912 441.741664 
L 105.234374 442.589847 
L 104.869411 443.438031 
L 104.542446 444.286215 
L 104.237555 445.134398 
L 103.950488 445.982582 
L 103.687799 446.830766 
L 103.460853 447.67895 
L 103.279951 448.527133 
L 103.151187 449.375317 
L 103.075617 450.223501 
L 103.049624 451.071685 
L 103.065621 451.919868 
L 103.11232 452.768052 
L 103.174751 453.616236 
L 103.236228 454.464419 
L 103.284599 455.312603 
L 103.320146 456.160787 
L 103.357683 457.008971 
L 103.419831 457.857154 
L 103.526587 458.705338 
L 103.687117 459.553522 
L 103.896832 460.401705 
L 104.141705 461.249889 
L 104.408547 462.098073 
L 104.693193 462.946257 
L 104.996851 463.79444 
L 105.309203 464.642624 
L 105.590042 465.490808 
L 105.680605 465.917778 
L 105.715333 466.338991 
L 105.72664 467.187175 
L 105.680605 468.035359 
L 105.680605 468.035359 
L 105.458579 468.883543 
L 105.203785 469.731726 
L 104.966746 470.57991 
L 104.7732 471.428094 
L 104.627303 472.276277 
L 104.516371 473.124461 
L 104.415866 473.972645 
L 104.297935 474.820829 
L 104.143825 475.669012 
L 103.951917 476.517196 
L 103.733054 477.36538 
L 103.498873 478.213563 
L 103.255949 479.061747 
L 103.008704 479.909931 
L 102.763955 480.758115 
L 102.597861 481.337904 
L 102.413035 481.606298 
L 101.842491 482.454482 
L 101.372249 483.302666 
L 101.003512 484.150849 
L 100.729211 484.999033 
L 100.543718 485.847217 
L 100.449201 486.695401 
L 100.460473 487.543584 
L 100.612541 488.391768 
L 100.976895 489.239952 
L 101.698046 490.088135 
L 102.597861 490.706022 
L 102.850241 490.936319 
L 104.352856 491.784503 
L 105.680605 492.251414 
L 106.948527 492.632687 
L 108.76335 493.093976 
L 111.056554 493.48087 
z
M 111.967125 491.784503 
L 111.846095 491.767657 
L 108.802615 490.936319 
L 108.76335 490.922155 
L 106.715306 490.088135 
L 105.680605 489.284719 
L 105.613674 489.239952 
L 104.726598 488.391768 
L 104.298832 487.543584 
L 104.155823 486.695401 
L 104.210663 485.847217 
L 104.420694 484.999033 
L 104.766595 484.150849 
L 105.241679 483.302666 
L 105.680605 482.665202 
L 105.771895 482.454482 
L 106.168047 481.606298 
L 106.611599 480.758115 
L 107.086996 479.909931 
L 107.570573 479.061747 
L 108.029766 478.213563 
L 108.428712 477.36538 
L 108.740601 476.517196 
L 108.76335 476.426939 
L 108.870565 475.669012 
L 108.943145 474.820829 
L 108.991835 473.972645 
L 109.039678 473.124461 
L 109.105212 472.276277 
L 109.200152 471.428094 
L 109.327293 470.57991 
L 109.478056 469.731726 
L 109.631202 468.883543 
L 109.756553 468.035359 
L 109.82558 467.187175 
L 109.823186 466.338991 
L 109.752202 465.490808 
L 109.629078 464.642624 
L 109.475735 463.79444 
L 109.312213 462.946257 
L 109.152414 462.098073 
L 109.003835 461.249889 
L 108.870556 460.401705 
L 108.76335 459.603779 
L 108.751717 459.553522 
L 108.595938 458.705338 
L 108.487316 457.857154 
L 108.420548 457.008971 
L 108.37941 456.160787 
L 108.342036 455.312603 
L 108.291235 454.464419 
L 108.223352 453.616236 
L 108.1499 452.768052 
L 108.091485 451.919868 
L 108.069249 451.071685 
L 108.099477 450.223501 
L 108.192577 449.375317 
L 108.35439 448.527133 
L 108.588502 447.67895 
L 108.76335 447.194092 
L 108.860143 446.830766 
L 109.139222 445.982582 
L 109.483117 445.134398 
L 109.907952 444.286215 
L 110.439379 443.438031 
L 111.108417 442.589847 
L 111.846095 441.829566 
L 111.949936 441.741664 
L 113.044245 440.89348 
L 114.438983 440.045296 
L 114.92884 439.780499 
L 117.090993 439.197112 
L 118.011585 438.967505 
L 121.09433 438.956035 
L 121.901668 439.197112 
L 124.177075 439.986977 
L 124.294489 440.045296 
L 125.768108 440.89348 
L 126.884089 441.741664 
L 127.25982 442.063658 
L 128.020243 442.589847 
L 129.223324 443.438031 
L 130.342565 444.286215 
L 130.342565 444.286215 
L 131.475187 445.134398 
L 132.427429 445.982582 
L 133.25997 446.830766 
L 133.42531 447.008119 
L 134.042851 447.67895 
L 134.779282 448.527133 
L 135.483954 449.375317 
L 136.162129 450.223501 
L 136.508055 450.673304 
L 136.904901 451.071685 
L 137.635842 451.919868 
L 138.230265 452.768052 
L 138.719719 453.616236 
L 139.132552 454.464419 
L 139.490923 455.312603 
L 139.5908 455.571155 
L 139.948097 456.160787 
L 140.398834 457.008971 
L 140.778485 457.857154 
L 141.098957 458.705338 
L 141.376725 459.553522 
L 141.619685 460.401705 
L 141.819101 461.249889 
L 141.954778 462.098073 
L 142.011428 462.946257 
L 141.992791 463.79444 
L 141.922113 464.642624 
L 141.830702 465.490808 
L 141.742395 466.338991 
L 141.660638 467.187175 
L 141.56517 468.035359 
L 141.422523 468.883543 
L 141.20423 469.731726 
L 140.900314 470.57991 
L 140.520364 471.428094 
L 140.082139 472.276277 
L 139.594238 473.124461 
L 139.5908 473.129991 
L 139.231357 473.972645 
L 138.833493 474.820829 
L 138.404447 475.669012 
L 137.959805 476.517196 
L 137.522411 477.36538 
L 137.118819 478.213563 
L 136.776018 479.061747 
L 136.514469 479.909931 
L 136.508055 479.940602 
L 136.399939 480.758115 
L 136.332586 481.606298 
L 136.280709 482.454482 
L 136.212308 483.302666 
L 136.091678 484.150849 
L 135.874986 484.999033 
L 135.503016 485.847217 
L 134.888775 486.695401 
L 133.893135 487.543584 
L 133.42531 487.830489 
L 132.74584 488.391768 
L 131.166292 489.239952 
L 130.342565 489.566839 
L 129.144518 490.088135 
L 127.25982 490.683948 
L 126.302648 490.936319 
L 124.177075 491.437354 
L 122.089534 491.784503 
L 121.09433 491.964036 
L 118.011585 492.272661 
L 114.92884 492.223617 
z
" clip-path="url(#pa39ed71c64)" style="fill: #e0eee0; fill-opacity: 0.5"/>
    <path d="M 114.92884 492.223617 
L 118.011585 492.272661 
L 121.09433 491.964036 
L 122.089534 491.784503 
L 124.177075 491.437354 
L 126.302648 490.936319 
L 127.25982 490.683948 
L 129.144518 490.088135 
L 130.342565 489.566839 
L 131.166292 489.239952 
L 132.74584 488.391768 
L 133.42531 487.830489 
L 133.893135 487.543584 
L 134.888775 486.695401 
L 135.503016 485.847217 
L 135.874986 484.999033 
L 136.091678 484.150849 
L 136.212308 483.302666 
L 136.280709 482.454482 
L 136.332586 481.606298 
L 136.399939 480.758115 
L 136.508055 479.940602 
L 136.514469 479.909931 
L 136.776018 479.061747 
L 137.118819 478.213563 
L 137.522411 477.36538 
L 137.959805 476.517196 
L 138.404447 475.669012 
L 138.833493 474.820829 
L 139.231357 473.972645 
L 139.5908 473.129991 
L 139.594238 473.124461 
L 140.082139 472.276277 
L 140.520364 471.428094 
L 140.900314 470.57991 
L 141.20423 469.731726 
L 141.422523 468.883543 
L 141.56517 468.035359 
L 141.660638 467.187175 
L 141.742395 466.338991 
L 141.830702 465.490808 
L 141.922113 464.642624 
L 141.992791 463.79444 
L 142.011428 462.946257 
L 141.954778 462.098073 
L 141.819101 461.249889 
L 141.619685 460.401705 
L 141.376725 459.553522 
L 141.098957 458.705338 
L 140.778485 457.857154 
L 140.398834 457.008971 
L 139.948097 456.160787 
L 139.5908 455.571155 
L 139.490923 455.312603 
L 139.132552 454.464419 
L 138.719719 453.616236 
L 138.230265 452.768052 
L 137.635842 451.919868 
L 136.904901 451.071685 
L 136.508055 450.673304 
L 136.162129 450.223501 
L 135.483954 449.375317 
L 134.779282 448.527133 
L 134.042851 447.67895 
L 133.42531 447.008119 
L 133.25997 446.830766 
L 132.427429 445.982582 
L 131.475187 445.134398 
L 130.342565 444.286215 
L 130.342565 444.286215 
L 129.223324 443.438031 
L 128.020243 442.589847 
L 127.25982 442.063658 
L 126.884089 441.741664 
L 125.768108 440.89348 
L 124.294489 440.045296 
L 124.177075 439.986977 
L 121.901668 439.197112 
L 121.09433 438.956035 
L 118.011585 438.967505 
L 117.090993 439.197112 
L 114.92884 439.780499 
L 114.438983 440.045296 
L 113.044245 440.89348 
L 111.949936 441.741664 
L 111.846095 441.829566 
L 111.108417 442.589847 
L 110.439379 443.438031 
L 109.907952 444.286215 
L 109.483117 445.134398 
L 109.139222 445.982582 
L 108.860143 446.830766 
L 108.76335 447.194092 
L 108.588502 447.67895 
L 108.35439 448.527133 
L 108.192577 449.375317 
L 108.099477 450.223501 
L 108.069249 451.071685 
L 108.091485 451.919868 
L 108.1499 452.768052 
L 108.223352 453.616236 
L 108.291235 454.464419 
L 108.342036 455.312603 
L 108.37941 456.160787 
L 108.420548 457.008971 
L 108.487316 457.857154 
L 108.595938 458.705338 
L 108.751717 459.553522 
L 108.76335 459.603779 
L 108.870556 460.401705 
L 109.003835 461.249889 
L 109.152414 462.098073 
L 109.312213 462.946257 
L 109.475735 463.79444 
L 109.629078 464.642624 
L 109.752202 465.490808 
L 109.823186 466.338991 
L 109.82558 467.187175 
L 109.756553 468.035359 
L 109.631202 468.883543 
L 109.478056 469.731726 
L 109.327293 470.57991 
L 109.200152 471.428094 
L 109.105212 472.276277 
L 109.039678 473.124461 
L 108.991835 473.972645 
L 108.943145 474.820829 
L 108.870565 475.669012 
L 108.76335 476.426939 
L 108.740601 476.517196 
L 108.428712 477.36538 
L 108.029766 478.213563 
L 107.570573 479.061747 
L 107.086996 479.909931 
L 106.611599 480.758115 
L 106.168047 481.606298 
L 105.771895 482.454482 
L 105.680605 482.665202 
L 105.241679 483.302666 
L 104.766595 484.150849 
L 104.420694 484.999033 
L 104.210663 485.847217 
L 104.155823 486.695401 
L 104.298832 487.543584 
L 104.726598 488.391768 
L 105.613674 489.239952 
L 105.680605 489.284719 
L 106.715306 490.088135 
L 108.76335 490.922155 
L 108.802615 490.936319 
L 111.846095 491.767657 
L 111.967125 491.784503 
z
M 112.878382 490.936319 
L 111.846095 490.739284 
L 109.851803 490.088135 
L 108.76335 489.542713 
L 108.178041 489.239952 
L 107.100485 488.391768 
L 106.562653 487.543584 
L 106.354229 486.695401 
L 106.367767 485.847217 
L 106.548267 484.999033 
L 106.86771 484.150849 
L 107.310935 483.302666 
L 107.867731 482.454482 
L 108.528424 481.606298 
L 108.76335 481.318135 
L 109.114074 480.758115 
L 109.646833 479.909931 
L 110.155463 479.061747 
L 110.588914 478.213563 
L 110.906643 477.36538 
L 111.098327 476.517196 
L 111.188585 475.669012 
L 111.222932 474.820829 
L 111.24906 473.972645 
L 111.305694 473.124461 
L 111.41894 472.276277 
L 111.60078 471.428094 
L 111.846095 470.57991 
L 111.846095 470.57991 
L 112.041742 469.731726 
L 112.227129 468.883543 
L 112.371851 468.035359 
L 112.448908 467.187175 
L 112.445183 466.338991 
L 112.367508 465.490808 
L 112.237996 464.642624 
L 112.082546 463.79444 
L 111.921391 462.946257 
L 111.846095 462.536805 
L 111.737986 462.098073 
L 111.547685 461.249889 
L 111.380468 460.401705 
L 111.237755 459.553522 
L 111.122703 458.705338 
L 111.038947 457.857154 
L 110.986822 457.008971 
L 110.960781 456.160787 
L 110.950577 455.312603 
L 110.945723 454.464419 
L 110.940664 453.616236 
L 110.93801 452.768052 
L 110.948418 451.919868 
L 110.987324 451.071685 
L 111.070298 450.223501 
L 111.209225 449.375317 
L 111.410903 448.527133 
L 111.679114 447.67895 
L 111.846095 447.255857 
L 112.052242 446.830766 
L 112.557122 445.982582 
L 113.185198 445.134398 
L 113.96879 444.286215 
L 114.92884 443.458634 
L 114.985736 443.438031 
L 117.497165 442.589847 
L 118.011585 442.425629 
L 119.122207 442.589847 
L 121.09433 442.938695 
L 122.040178 443.438031 
L 123.475328 444.286215 
L 124.177075 444.730136 
L 124.667245 445.134398 
L 125.598846 445.982582 
L 126.409954 446.830766 
L 127.134669 447.67895 
L 127.25982 447.828978 
L 128.047286 448.527133 
L 128.975843 449.375317 
L 129.875266 450.223501 
L 130.342565 450.668484 
L 130.773646 451.071685 
L 131.654674 451.919868 
L 132.447348 452.768052 
L 133.127225 453.616236 
L 133.42531 454.051324 
L 133.732916 454.464419 
L 134.268035 455.312603 
L 134.712471 456.160787 
L 135.10468 457.008971 
L 135.472165 457.857154 
L 135.820742 458.705338 
L 136.136216 459.553522 
L 136.397519 460.401705 
L 136.508055 460.885179 
L 136.609333 461.249889 
L 136.759295 462.098073 
L 136.832149 462.946257 
L 136.842903 463.79444 
L 136.811601 464.642624 
L 136.760204 465.490808 
L 136.704993 466.338991 
L 136.649931 467.187175 
L 136.585278 468.035359 
L 136.508055 468.738433 
L 136.496053 468.883543 
L 136.388325 469.731726 
L 136.228978 470.57991 
L 136.009185 471.428094 
L 135.72447 472.276277 
L 135.372401 473.124461 
L 134.954289 473.972645 
L 134.483055 474.820829 
L 133.991512 475.669012 
L 133.530055 476.517196 
L 133.42531 476.750144 
L 133.204561 477.36538 
L 132.984281 478.213563 
L 132.866828 479.061747 
L 132.846786 479.909931 
L 132.895757 480.758115 
L 132.975127 481.606298 
L 133.046182 482.454482 
L 133.073018 483.302666 
L 133.020417 484.150849 
L 132.848542 484.999033 
L 132.503857 485.847217 
L 131.903548 486.695401 
L 130.907183 487.543584 
L 130.342565 487.877882 
L 129.653381 488.391768 
L 127.91176 489.239952 
L 127.25982 489.480369 
L 125.430402 490.088135 
L 124.177075 490.423639 
L 121.633233 490.936319 
L 121.09433 491.042829 
L 118.011585 491.385596 
L 114.92884 491.296937 
z
" clip-path="url(#pa39ed71c64)" style="fill: #cbe4cb; fill-opacity: 0.5"/>
    <path d="M 114.92884 491.296937 
L 118.011585 491.385596 
L 121.09433 491.042829 
L 121.633233 490.936319 
L 124.177075 490.423639 
L 125.430402 490.088135 
L 127.25982 489.480369 
L 127.91176 489.239952 
L 129.653381 488.391768 
L 130.342565 487.877882 
L 130.907183 487.543584 
L 131.903548 486.695401 
L 132.503857 485.847217 
L 132.848542 484.999033 
L 133.020417 484.150849 
L 133.073018 483.302666 
L 133.046182 482.454482 
L 132.975127 481.606298 
L 132.895757 480.758115 
L 132.846786 479.909931 
L 132.866828 479.061747 
L 132.984281 478.213563 
L 133.204561 477.36538 
L 133.42531 476.750144 
L 133.530055 476.517196 
L 133.991512 475.669012 
L 134.483055 474.820829 
L 134.954289 473.972645 
L 135.372401 473.124461 
L 135.72447 472.276277 
L 136.009185 471.428094 
L 136.228978 470.57991 
L 136.388325 469.731726 
L 136.496053 468.883543 
L 136.508055 468.738433 
L 136.585278 468.035359 
L 136.649931 467.187175 
L 136.704993 466.338991 
L 136.760204 465.490808 
L 136.811601 464.642624 
L 136.842903 463.79444 
L 136.832149 462.946257 
L 136.759295 462.098073 
L 136.609333 461.249889 
L 136.508055 460.885179 
L 136.397519 460.401705 
L 136.136216 459.553522 
L 135.820742 458.705338 
L 135.472165 457.857154 
L 135.10468 457.008971 
L 134.712471 456.160787 
L 134.268035 455.312603 
L 133.732916 454.464419 
L 133.42531 454.051324 
L 133.127225 453.616236 
L 132.447348 452.768052 
L 131.654674 451.919868 
L 130.773646 451.071685 
L 130.342565 450.668484 
L 129.875266 450.223501 
L 128.975843 449.375317 
L 128.047286 448.527133 
L 127.25982 447.828978 
L 127.134669 447.67895 
L 126.409954 446.830766 
L 125.598846 445.982582 
L 124.667245 445.134398 
L 124.177075 444.730136 
L 123.475328 444.286215 
L 122.040178 443.438031 
L 121.09433 442.938695 
L 119.122207 442.589847 
L 118.011585 442.425629 
L 117.497165 442.589847 
L 114.985736 443.438031 
L 114.92884 443.458634 
L 113.96879 444.286215 
L 113.185198 445.134398 
L 112.557122 445.982582 
L 112.052242 446.830766 
L 111.846095 447.255857 
L 111.679114 447.67895 
L 111.410903 448.527133 
L 111.209225 449.375317 
L 111.070298 450.223501 
L 110.987324 451.071685 
L 110.948418 451.919868 
L 110.93801 452.768052 
L 110.940664 453.616236 
L 110.945723 454.464419 
L 110.950577 455.312603 
L 110.960781 456.160787 
L 110.986822 457.008971 
L 111.038947 457.857154 
L 111.122703 458.705338 
L 111.237755 459.553522 
L 111.380468 460.401705 
L 111.547685 461.249889 
L 111.737986 462.098073 
L 111.846095 462.536805 
L 111.921391 462.946257 
L 112.082546 463.79444 
L 112.237996 464.642624 
L 112.367508 465.490808 
L 112.445183 466.338991 
L 112.448908 467.187175 
L 112.371851 468.035359 
L 112.227129 468.883543 
L 112.041742 469.731726 
L 111.846095 470.57991 
L 111.846095 470.57991 
L 111.60078 471.428094 
L 111.41894 472.276277 
L 111.305694 473.124461 
L 111.24906 473.972645 
L 111.222932 474.820829 
L 111.188585 475.669012 
L 111.098327 476.517196 
L 110.906643 477.36538 
L 110.588914 478.213563 
L 110.155463 479.061747 
L 109.646833 479.909931 
L 109.114074 480.758115 
L 108.76335 481.318135 
L 108.528424 481.606298 
L 107.867731 482.454482 
L 107.310935 483.302666 
L 106.86771 484.150849 
L 106.548267 484.999033 
L 106.367767 485.847217 
L 106.354229 486.695401 
L 106.562653 487.543584 
L 107.100485 488.391768 
L 108.178041 489.239952 
L 108.76335 489.542713 
L 109.851803 490.088135 
L 111.846095 490.739284 
L 112.878382 490.936319 
z
M 112.274396 490.088135 
L 111.846095 489.971572 
L 110.056483 489.239952 
L 108.886658 488.391768 
L 108.76335 488.237412 
L 108.127942 487.543584 
L 107.795062 486.695401 
L 107.77938 485.847217 
L 108.003041 484.999033 
L 108.424872 484.150849 
L 108.76335 483.650099 
L 108.945643 483.302666 
L 109.472607 482.454482 
L 110.087588 481.606298 
L 110.76565 480.758115 
L 111.464468 479.909931 
L 111.846095 479.4013 
L 112.056538 479.061747 
L 112.465805 478.213563 
L 112.755109 477.36538 
L 112.922902 476.517196 
L 112.990934 475.669012 
L 113.000692 474.820829 
L 113.000364 473.972645 
L 113.030528 473.124461 
L 113.11616 472.276277 
L 113.265383 471.428094 
L 113.471238 470.57991 
L 113.713148 469.731726 
L 113.957477 468.883543 
L 114.160632 468.035359 
L 114.280094 467.187175 
L 114.292204 466.338991 
L 114.203948 465.490808 
L 114.047312 464.642624 
L 113.861721 463.79444 
L 113.678951 462.946257 
L 113.517326 462.098073 
L 113.383071 461.249889 
L 113.2748 460.401705 
L 113.188594 459.553522 
L 113.122075 458.705338 
L 113.076072 457.857154 
L 113.053288 457.008971 
L 113.055453 456.160787 
L 113.081839 455.312603 
L 113.130491 454.464419 
L 113.200846 453.616236 
L 113.295856 452.768052 
L 113.422821 451.919868 
L 113.59279 451.071685 
L 113.818347 450.223501 
L 114.110426 449.375317 
L 114.476344 448.527133 
L 114.921432 447.67895 
L 114.92884 447.666706 
L 116.282179 446.830766 
L 117.944214 445.982582 
L 118.011585 445.952314 
L 118.129553 445.982582 
L 121.09433 446.718896 
L 121.261133 446.830766 
L 122.458567 447.67895 
L 123.576437 448.527133 
L 124.177075 448.99539 
L 124.524175 449.375317 
L 125.332011 450.223501 
L 126.213778 451.071685 
L 127.201182 451.919868 
L 127.25982 451.965877 
L 128.272239 452.768052 
L 129.226715 453.616236 
L 130.042611 454.464419 
L 130.342565 454.828839 
L 130.731437 455.312603 
L 131.289536 456.160787 
L 131.742548 457.008971 
L 132.13102 457.857154 
L 132.483861 458.705338 
L 132.809628 459.553522 
L 133.094555 460.401705 
L 133.312578 461.249889 
L 133.42531 461.967514 
L 133.445759 462.098073 
L 133.501353 462.946257 
L 133.508962 463.79444 
L 133.502119 464.642624 
L 133.504808 465.490808 
L 133.521556 466.338991 
L 133.538147 467.187175 
L 133.530771 468.035359 
L 133.475498 468.883543 
L 133.42531 469.233159 
L 133.363389 469.731726 
L 133.19924 470.57991 
L 132.975773 471.428094 
L 132.690251 472.276277 
L 132.341245 473.124461 
L 131.93197 473.972645 
L 131.474306 474.820829 
L 130.994329 475.669012 
L 130.538512 476.517196 
L 130.342565 476.976202 
L 130.207347 477.36538 
L 130.043705 478.213563 
L 130.029161 479.061747 
L 130.14589 479.909931 
L 130.342565 480.758115 
L 130.342565 480.758115 
L 130.624252 481.606298 
L 130.872702 482.454482 
L 131.035845 483.302666 
L 131.066175 484.150849 
L 130.910614 484.999033 
L 130.496872 485.847217 
L 130.342565 486.025983 
L 129.925805 486.695401 
L 129.058065 487.543584 
L 127.630491 488.391768 
L 127.25982 488.557006 
L 125.676838 489.239952 
L 124.177075 489.709088 
L 122.663648 490.088135 
L 121.09433 490.436155 
L 118.011585 490.775807 
L 114.92884 490.658215 
z
" clip-path="url(#pa39ed71c64)" style="fill: #b7dab7; fill-opacity: 0.5"/>
    <path d="M 114.92884 490.658215 
L 118.011585 490.775807 
L 121.09433 490.436155 
L 122.663648 490.088135 
L 124.177075 489.709088 
L 125.676838 489.239952 
L 127.25982 488.557006 
L 127.630491 488.391768 
L 129.058065 487.543584 
L 129.925805 486.695401 
L 130.342565 486.025983 
L 130.496872 485.847217 
L 130.910614 484.999033 
L 131.066175 484.150849 
L 131.035845 483.302666 
L 130.872702 482.454482 
L 130.624252 481.606298 
L 130.342565 480.758115 
L 130.342565 480.758115 
L 130.14589 479.909931 
L 130.029161 479.061747 
L 130.043705 478.213563 
L 130.207347 477.36538 
L 130.342565 476.976202 
L 130.538512 476.517196 
L 130.994329 475.669012 
L 131.474306 474.820829 
L 131.93197 473.972645 
L 132.341245 473.124461 
L 132.690251 472.276277 
L 132.975773 471.428094 
L 133.19924 470.57991 
L 133.363389 469.731726 
L 133.42531 469.233159 
L 133.475498 468.883543 
L 133.530771 468.035359 
L 133.538147 467.187175 
L 133.521556 466.338991 
L 133.504808 465.490808 
L 133.502119 464.642624 
L 133.508962 463.79444 
L 133.501353 462.946257 
L 133.445759 462.098073 
L 133.42531 461.967514 
L 133.312578 461.249889 
L 133.094555 460.401705 
L 132.809628 459.553522 
L 132.483861 458.705338 
L 132.13102 457.857154 
L 131.742548 457.008971 
L 131.289536 456.160787 
L 130.731437 455.312603 
L 130.342565 454.828839 
L 130.042611 454.464419 
L 129.226715 453.616236 
L 128.272239 452.768052 
L 127.25982 451.965877 
L 127.201182 451.919868 
L 126.213778 451.071685 
L 125.332011 450.223501 
L 124.524175 449.375317 
L 124.177075 448.99539 
L 123.576437 448.527133 
L 122.458567 447.67895 
L 121.261133 446.830766 
L 121.09433 446.718896 
L 118.129553 445.982582 
L 118.011585 445.952314 
L 117.944214 445.982582 
L 116.282179 446.830766 
L 114.92884 447.666706 
L 114.921432 447.67895 
L 114.476344 448.527133 
L 114.110426 449.375317 
L 113.818347 450.223501 
L 113.59279 451.071685 
L 113.422821 451.919868 
L 113.295856 452.768052 
L 113.200846 453.616236 
L 113.130491 454.464419 
L 113.081839 455.312603 
L 113.055453 456.160787 
L 113.053288 457.008971 
L 113.076072 457.857154 
L 113.122075 458.705338 
L 113.188594 459.553522 
L 113.2748 460.401705 
L 113.383071 461.249889 
L 113.517326 462.098073 
L 113.678951 462.946257 
L 113.861721 463.79444 
L 114.047312 464.642624 
L 114.203948 465.490808 
L 114.292204 466.338991 
L 114.280094 467.187175 
L 114.160632 468.035359 
L 113.957477 468.883543 
L 113.713148 469.731726 
L 113.471238 470.57991 
L 113.265383 471.428094 
L 113.11616 472.276277 
L 113.030528 473.124461 
L 113.000364 473.972645 
L 113.000692 474.820829 
L 112.990934 475.669012 
L 112.922902 476.517196 
L 112.755109 477.36538 
L 112.465805 478.213563 
L 112.056538 479.061747 
L 111.846095 479.4013 
L 111.464468 479.909931 
L 110.76565 480.758115 
L 110.087588 481.606298 
L 109.472607 482.454482 
L 108.945643 483.302666 
L 108.76335 483.650099 
L 108.424872 484.150849 
L 108.003041 484.999033 
L 107.77938 485.847217 
L 107.795062 486.695401 
L 108.127942 487.543584 
L 108.76335 488.237412 
L 108.886658 488.391768 
L 110.056483 489.239952 
L 111.846095 489.971572 
L 112.274396 490.088135 
z
M 114.553038 490.088135 
L 111.846095 489.351432 
L 111.573403 489.239952 
L 110.083017 488.391768 
L 109.310415 487.543584 
L 108.980219 486.695401 
L 108.947856 485.847217 
L 109.134402 484.999033 
L 109.495443 484.150849 
L 110.004704 483.302666 
L 110.643286 482.454482 
L 111.390219 481.606298 
L 111.846095 481.114312 
L 112.1423 480.758115 
L 112.793137 479.909931 
L 113.372063 479.061747 
L 113.842298 478.213563 
L 114.178494 477.36538 
L 114.373659 476.517196 
L 114.447692 475.669012 
L 114.44611 474.820829 
L 114.4256 473.972645 
L 114.436415 473.124461 
L 114.511881 472.276277 
L 114.666105 471.428094 
L 114.895183 470.57991 
L 114.92884 470.476312 
L 115.193986 469.731726 
L 115.490645 468.883543 
L 115.735192 468.035359 
L 115.889053 467.187175 
L 115.929247 466.338991 
L 115.855332 465.490808 
L 115.691229 464.642624 
L 115.47808 463.79444 
L 115.260316 462.946257 
L 115.071848 462.098073 
L 114.92884 461.249889 
L 114.92884 461.249889 
L 114.846799 460.401705 
L 114.798166 459.553522 
L 114.774487 458.705338 
L 114.770476 457.857154 
L 114.786055 457.008971 
L 114.825994 456.160787 
L 114.897751 455.312603 
L 114.92884 455.070032 
L 115.061788 454.464419 
L 115.337048 453.616236 
L 115.725504 452.768052 
L 116.258205 451.919868 
L 116.977695 451.071685 
L 117.925051 450.223501 
L 118.011585 450.154646 
L 119.146515 450.223501 
L 121.09433 450.320833 
L 122.130158 451.071685 
L 123.415266 451.919868 
L 124.177075 452.357558 
L 124.683039 452.768052 
L 125.793361 453.616236 
L 126.925112 454.464419 
L 127.25982 454.730054 
L 127.826175 455.312603 
L 128.495552 456.160787 
L 129.024472 457.008971 
L 129.444722 457.857154 
L 129.782882 458.705338 
L 130.056018 459.553522 
L 130.271601 460.401705 
L 130.342565 460.775537 
L 130.441179 461.249889 
L 130.563925 462.098073 
L 130.638173 462.946257 
L 130.679657 463.79444 
L 130.712668 464.642624 
L 130.76149 465.490808 
L 130.839315 466.338991 
L 130.939041 467.187175 
L 131.033646 468.035359 
L 131.08819 468.883543 
L 131.073595 469.731726 
L 130.972153 470.57991 
L 130.775521 471.428094 
L 130.481298 472.276277 
L 130.342565 472.581793 
L 130.11114 473.124461 
L 129.691145 473.972645 
L 129.238802 474.820829 
L 128.788742 475.669012 
L 128.387128 476.517196 
L 128.090335 477.36538 
L 127.955005 478.213563 
L 128.014962 479.061747 
L 128.255477 479.909931 
L 128.61055 480.758115 
L 128.991977 481.606298 
L 129.323579 482.454482 
L 129.553365 483.302666 
L 129.645078 484.150849 
L 129.563615 484.999033 
L 129.260786 485.847217 
L 128.65747 486.695401 
L 127.612127 487.543584 
L 127.25982 487.74335 
L 126.153236 488.391768 
L 124.177075 489.143558 
L 123.87782 489.239952 
L 121.09433 489.954894 
L 119.996145 490.088135 
L 118.011585 490.33704 
L 114.92884 490.168844 
z
" clip-path="url(#pa39ed71c64)" style="fill: #a5d1a5; fill-opacity: 0.5"/>
    <path d="M 114.92884 490.168844 
L 118.011585 490.33704 
L 119.996145 490.088135 
L 121.09433 489.954894 
L 123.87782 489.239952 
L 124.177075 489.143558 
L 126.153236 488.391768 
L 127.25982 487.74335 
L 127.612127 487.543584 
L 128.65747 486.695401 
L 129.260786 485.847217 
L 129.563615 484.999033 
L 129.645078 484.150849 
L 129.553365 483.302666 
L 129.323579 482.454482 
L 128.991977 481.606298 
L 128.61055 480.758115 
L 128.255477 479.909931 
L 128.014962 479.061747 
L 127.955005 478.213563 
L 128.090335 477.36538 
L 128.387128 476.517196 
L 128.788742 475.669012 
L 129.238802 474.820829 
L 129.691145 473.972645 
L 130.11114 473.124461 
L 130.342565 472.581793 
L 130.481298 472.276277 
L 130.775521 471.428094 
L 130.972153 470.57991 
L 131.073595 469.731726 
L 131.08819 468.883543 
L 131.033646 468.035359 
L 130.939041 467.187175 
L 130.839315 466.338991 
L 130.76149 465.490808 
L 130.712668 464.642624 
L 130.679657 463.79444 
L 130.638173 462.946257 
L 130.563925 462.098073 
L 130.441179 461.249889 
L 130.342565 460.775537 
L 130.271601 460.401705 
L 130.056018 459.553522 
L 129.782882 458.705338 
L 129.444722 457.857154 
L 129.024472 457.008971 
L 128.495552 456.160787 
L 127.826175 455.312603 
L 127.25982 454.730054 
L 126.925112 454.464419 
L 125.793361 453.616236 
L 124.683039 452.768052 
L 124.177075 452.357558 
L 123.415266 451.919868 
L 122.130158 451.071685 
L 121.09433 450.320833 
L 119.146515 450.223501 
L 118.011585 450.154646 
L 117.925051 450.223501 
L 116.977695 451.071685 
L 116.258205 451.919868 
L 115.725504 452.768052 
L 115.337048 453.616236 
L 115.061788 454.464419 
L 114.92884 455.070032 
L 114.897751 455.312603 
L 114.825994 456.160787 
L 114.786055 457.008971 
L 114.770476 457.857154 
L 114.774487 458.705338 
L 114.798166 459.553522 
L 114.846799 460.401705 
L 114.92884 461.249889 
L 114.92884 461.249889 
L 115.071848 462.098073 
L 115.260316 462.946257 
L 115.47808 463.79444 
L 115.691229 464.642624 
L 115.855332 465.490808 
L 115.929247 466.338991 
L 115.889053 467.187175 
L 115.735192 468.035359 
L 115.490645 468.883543 
L 115.193986 469.731726 
L 114.92884 470.476312 
L 114.895183 470.57991 
L 114.666105 471.428094 
L 114.511881 472.276277 
L 114.436415 473.124461 
L 114.4256 473.972645 
L 114.44611 474.820829 
L 114.447692 475.669012 
L 114.373659 476.517196 
L 114.178494 477.36538 
L 113.842298 478.213563 
L 113.372063 479.061747 
L 112.793137 479.909931 
L 112.1423 480.758115 
L 111.846095 481.114312 
L 111.390219 481.606298 
L 110.643286 482.454482 
L 110.004704 483.302666 
L 109.495443 484.150849 
L 109.134402 484.999033 
L 108.947856 485.847217 
L 108.980219 486.695401 
L 109.310415 487.543584 
L 110.083017 488.391768 
L 111.573403 489.239952 
L 111.846095 489.351432 
L 114.553038 490.088135 
z
M 113.078092 489.239952 
L 111.846095 488.732677 
L 111.223906 488.391768 
L 110.282454 487.543584 
L 109.867787 486.695401 
L 109.80844 485.847217 
L 110.011296 484.999033 
L 110.423935 484.150849 
L 111.014662 483.302666 
L 111.759687 482.454482 
L 111.846095 482.362074 
L 112.502917 481.606298 
L 113.257135 480.758115 
L 113.980882 479.909931 
L 114.626593 479.061747 
L 114.92884 478.567187 
L 115.21735 478.213563 
L 115.67954 477.36538 
L 115.930949 476.517196 
L 116.013938 475.669012 
L 115.993016 474.820829 
L 115.942227 473.972645 
L 115.927298 473.124461 
L 115.991542 472.276277 
L 116.149994 471.428094 
L 116.390883 470.57991 
L 116.682381 469.731726 
L 116.981706 468.883543 
L 117.243381 468.035359 
L 117.426312 467.187175 
L 117.501946 466.338991 
L 117.463223 465.490808 
L 117.32892 464.642624 
L 117.138377 463.79444 
L 116.938463 462.946257 
L 116.769873 462.098073 
L 116.658965 461.249889 
L 116.616993 460.401705 
L 116.644271 459.553522 
L 116.735262 458.705338 
L 116.882411 457.857154 
L 117.079445 457.008971 
L 117.325951 456.160787 
L 117.633151 455.312603 
L 118.011585 454.497052 
L 118.091431 454.464419 
L 121.09433 453.714751 
L 122.548585 454.464419 
L 124.177075 455.140518 
L 124.389925 455.312603 
L 125.334635 456.160787 
L 126.13519 457.008971 
L 126.773201 457.857154 
L 127.25982 458.705338 
L 127.25982 458.705338 
L 127.542603 459.553522 
L 127.771274 460.401705 
L 127.952908 461.249889 
L 128.087212 462.098073 
L 128.174499 462.946257 
L 128.223384 463.79444 
L 128.254617 464.642624 
L 128.298434 465.490808 
L 128.383204 466.338991 
L 128.5178 467.187175 
L 128.679729 468.035359 
L 128.822226 468.883543 
L 128.896267 469.731726 
L 128.868989 470.57991 
L 128.728273 471.428094 
L 128.47809 472.276277 
L 128.132813 473.124461 
L 127.714412 473.972645 
L 127.25982 474.807569 
L 127.251137 474.820829 
L 126.722411 475.669012 
L 126.311796 476.517196 
L 126.075282 477.36538 
L 126.040267 478.213563 
L 126.20643 479.061747 
L 126.545026 479.909931 
L 126.995016 480.758115 
L 127.25982 481.208483 
L 127.499973 481.606298 
L 127.976979 482.454482 
L 128.322808 483.302666 
L 128.493117 484.150849 
L 128.447347 484.999033 
L 128.129933 485.847217 
L 127.447942 486.695401 
L 127.25982 486.841974 
L 126.437875 487.543584 
L 124.818914 488.391768 
L 124.177075 488.635943 
L 122.301917 489.239952 
L 121.09433 489.550122 
L 118.011585 489.942148 
L 114.92884 489.745291 
z
" clip-path="url(#pa39ed71c64)" style="fill: #93c893; fill-opacity: 0.5"/>
    <path d="M 114.92884 489.745291 
L 118.011585 489.942148 
L 121.09433 489.550122 
L 122.301917 489.239952 
L 124.177075 488.635943 
L 124.818914 488.391768 
L 126.437875 487.543584 
L 127.25982 486.841974 
L 127.447942 486.695401 
L 128.129933 485.847217 
L 128.447347 484.999033 
L 128.493117 484.150849 
L 128.322808 483.302666 
L 127.976979 482.454482 
L 127.499973 481.606298 
L 127.25982 481.208483 
L 126.995016 480.758115 
L 126.545026 479.909931 
L 126.20643 479.061747 
L 126.040267 478.213563 
L 126.075282 477.36538 
L 126.311796 476.517196 
L 126.722411 475.669012 
L 127.251137 474.820829 
L 127.25982 474.807569 
L 127.714412 473.972645 
L 128.132813 473.124461 
L 128.47809 472.276277 
L 128.728273 471.428094 
L 128.868989 470.57991 
L 128.896267 469.731726 
L 128.822226 468.883543 
L 128.679729 468.035359 
L 128.5178 467.187175 
L 128.383204 466.338991 
L 128.298434 465.490808 
L 128.254617 464.642624 
L 128.223384 463.79444 
L 128.174499 462.946257 
L 128.087212 462.098073 
L 127.952908 461.249889 
L 127.771274 460.401705 
L 127.542603 459.553522 
L 127.25982 458.705338 
L 127.25982 458.705338 
L 126.773201 457.857154 
L 126.13519 457.008971 
L 125.334635 456.160787 
L 124.389925 455.312603 
L 124.177075 455.140518 
L 122.548585 454.464419 
L 121.09433 453.714751 
L 118.091431 454.464419 
L 118.011585 454.497052 
L 117.633151 455.312603 
L 117.325951 456.160787 
L 117.079445 457.008971 
L 116.882411 457.857154 
L 116.735262 458.705338 
L 116.644271 459.553522 
L 116.616993 460.401705 
L 116.658965 461.249889 
L 116.769873 462.098073 
L 116.938463 462.946257 
L 117.138377 463.79444 
L 117.32892 464.642624 
L 117.463223 465.490808 
L 117.501946 466.338991 
L 117.426312 467.187175 
L 117.243381 468.035359 
L 116.981706 468.883543 
L 116.682381 469.731726 
L 116.390883 470.57991 
L 116.149994 471.428094 
L 115.991542 472.276277 
L 115.927298 473.124461 
L 115.942227 473.972645 
L 115.993016 474.820829 
L 116.013938 475.669012 
L 115.930949 476.517196 
L 115.67954 477.36538 
L 115.21735 478.213563 
L 114.92884 478.567187 
L 114.626593 479.061747 
L 113.980882 479.909931 
L 113.257135 480.758115 
L 112.502917 481.606298 
L 111.846095 482.362074 
L 111.759687 482.454482 
L 111.014662 483.302666 
L 110.423935 484.150849 
L 110.011296 484.999033 
L 109.80844 485.847217 
L 109.867787 486.695401 
L 110.282454 487.543584 
L 111.223906 488.391768 
L 111.846095 488.732677 
L 113.078092 489.239952 
z
M 114.28978 489.239952 
L 112.138673 488.391768 
L 111.846095 488.190136 
L 111.058254 487.543584 
L 110.57617 486.695401 
L 110.495286 485.847217 
L 110.711159 484.999033 
L 111.164979 484.150849 
L 111.820725 483.302666 
L 111.846095 483.274099 
L 112.538008 482.454482 
L 113.331044 481.606298 
L 114.146902 480.758115 
L 114.92884 479.909931 
L 114.92884 479.909931 
L 115.85366 479.061747 
L 116.554015 478.213563 
L 117.019268 477.36538 
L 117.266819 476.517196 
L 117.338849 475.669012 
L 117.30011 474.820829 
L 117.226566 473.972645 
L 117.186774 473.124461 
L 117.226605 472.276277 
L 117.363253 471.428094 
L 117.587419 470.57991 
L 117.870294 469.731726 
L 118.011585 469.333802 
L 118.353073 468.883543 
L 118.892597 468.035359 
L 119.241572 467.187175 
L 119.381838 466.338991 
L 119.337433 465.490808 
L 119.152215 464.642624 
L 118.874909 463.79444 
L 118.557562 462.946257 
L 118.264693 462.098073 
L 118.079732 461.249889 
L 118.090568 460.401705 
L 118.3566 459.553522 
L 118.89235 458.705338 
L 119.695632 457.857154 
L 120.81199 457.008971 
L 121.09433 456.837256 
L 121.526964 457.008971 
L 123.615577 457.857154 
L 124.177075 458.113216 
L 124.575255 458.705338 
L 125.036731 459.553522 
L 125.402913 460.401705 
L 125.68613 461.249889 
L 125.889197 462.098073 
L 126.011921 462.946257 
L 126.062214 463.79444 
L 126.06635 464.642624 
L 126.073262 465.490808 
L 126.145121 466.338991 
L 126.326982 467.187175 
L 126.606824 468.035359 
L 126.905179 468.883543 
L 127.117676 469.731726 
L 127.172074 470.57991 
L 127.048635 471.428094 
L 126.764477 472.276277 
L 126.353651 473.124461 
L 125.862182 473.972645 
L 125.353669 474.820829 
L 124.906962 475.669012 
L 124.596122 476.517196 
L 124.469159 477.36538 
L 124.545084 478.213563 
L 124.821063 479.061747 
L 125.270776 479.909931 
L 125.835207 480.758115 
L 126.425585 481.606298 
L 126.947817 482.454482 
L 127.25982 483.134413 
L 127.340681 483.302666 
L 127.573719 484.150849 
L 127.556435 484.999033 
L 127.25982 485.764575 
L 127.233097 485.847217 
L 126.62876 486.695401 
L 125.556737 487.543584 
L 124.177075 488.220106 
L 123.782913 488.391768 
L 121.09433 489.227649 
L 121.011336 489.239952 
L 118.011585 489.654555 
L 114.92884 489.414445 
z
" clip-path="url(#pa39ed71c64)" style="fill: #84c184; fill-opacity: 0.5"/>
    <path d="M 114.92884 489.414445 
L 118.011585 489.654555 
L 121.011336 489.239952 
L 121.09433 489.227649 
L 123.782913 488.391768 
L 124.177075 488.220106 
L 125.556737 487.543584 
L 126.62876 486.695401 
L 127.233097 485.847217 
L 127.25982 485.764575 
L 127.556435 484.999033 
L 127.573719 484.150849 
L 127.340681 483.302666 
L 127.25982 483.134413 
L 126.947817 482.454482 
L 126.425585 481.606298 
L 125.835207 480.758115 
L 125.270776 479.909931 
L 124.821063 479.061747 
L 124.545084 478.213563 
L 124.469159 477.36538 
L 124.596122 476.517196 
L 124.906962 475.669012 
L 125.353669 474.820829 
L 125.862182 473.972645 
L 126.353651 473.124461 
L 126.764477 472.276277 
L 127.048635 471.428094 
L 127.172074 470.57991 
L 127.117676 469.731726 
L 126.905179 468.883543 
L 126.606824 468.035359 
L 126.326982 467.187175 
L 126.145121 466.338991 
L 126.073262 465.490808 
L 126.06635 464.642624 
L 126.062214 463.79444 
L 126.011921 462.946257 
L 125.889197 462.098073 
L 125.68613 461.249889 
L 125.402913 460.401705 
L 125.036731 459.553522 
L 124.575255 458.705338 
L 124.177075 458.113216 
L 123.615577 457.857154 
L 121.526964 457.008971 
L 121.09433 456.837256 
L 120.81199 457.008971 
L 119.695632 457.857154 
L 118.89235 458.705338 
L 118.3566 459.553522 
L 118.090568 460.401705 
L 118.079732 461.249889 
L 118.264693 462.098073 
L 118.557562 462.946257 
L 118.874909 463.79444 
L 119.152215 464.642624 
L 119.337433 465.490808 
L 119.381838 466.338991 
L 119.241572 467.187175 
L 118.892597 468.035359 
L 118.353073 468.883543 
L 118.011585 469.333802 
L 117.870294 469.731726 
L 117.587419 470.57991 
L 117.363253 471.428094 
L 117.226605 472.276277 
L 117.186774 473.124461 
L 117.226566 473.972645 
L 117.30011 474.820829 
L 117.338849 475.669012 
L 117.266819 476.517196 
L 117.019268 477.36538 
L 116.554015 478.213563 
L 115.85366 479.061747 
L 114.92884 479.909931 
L 114.92884 479.909931 
L 114.146902 480.758115 
L 113.331044 481.606298 
L 112.538008 482.454482 
L 111.846095 483.274099 
L 111.820725 483.302666 
L 111.164979 484.150849 
L 110.711159 484.999033 
L 110.495286 485.847217 
L 110.57617 486.695401 
L 111.058254 487.543584 
L 111.846095 488.190136 
L 112.138673 488.391768 
L 114.28978 489.239952 
z
M 116.198929 489.239952 
L 114.92884 489.111791 
L 112.973888 488.391768 
L 111.846095 487.614541 
L 111.759633 487.543584 
L 111.216598 486.695401 
L 111.116244 485.847217 
L 111.343885 484.999033 
L 111.834936 484.150849 
L 111.846095 484.13646 
L 112.465455 483.302666 
L 113.230723 482.454482 
L 114.079729 481.606298 
L 114.92884 480.778508 
L 114.960532 480.758115 
L 116.103114 479.909931 
L 117.051288 479.061747 
L 117.762457 478.213563 
L 118.011585 477.761591 
L 118.867904 477.36538 
L 119.576529 476.517196 
L 119.589284 475.669012 
L 119.299271 474.820829 
L 118.972495 473.972645 
L 118.776193 473.124461 
L 118.79619 472.276277 
L 119.053752 471.428094 
L 119.512873 470.57991 
L 120.084127 469.731726 
L 120.647016 468.883543 
L 121.094064 468.035359 
L 121.09433 468.034562 
L 121.151968 468.035359 
L 124.177075 468.07015 
L 124.529875 468.883543 
L 124.860263 469.731726 
L 125.048657 470.57991 
L 125.047818 471.428094 
L 124.860657 472.276277 
L 124.521306 473.124461 
L 124.177075 473.792507 
L 123.973186 473.972645 
L 123.06254 474.820829 
L 122.418589 475.669012 
L 122.134716 476.517196 
L 122.236038 477.36538 
L 122.658735 478.213563 
L 123.306697 479.061747 
L 124.098633 479.909931 
L 124.177075 479.977866 
L 124.786657 480.758115 
L 125.480847 481.606298 
L 126.100028 482.454482 
L 126.56342 483.302666 
L 126.820038 484.150849 
L 126.834122 484.999033 
L 126.560909 485.847217 
L 125.920145 486.695401 
L 124.760126 487.543584 
L 124.177075 487.829485 
L 122.885989 488.391768 
L 121.09433 488.948795 
L 119.130146 489.239952 
L 118.011585 489.394551 
z
M 121.040761 462.946257 
L 120.996766 462.098073 
L 121.09433 461.249889 
L 121.556957 462.098073 
L 121.505262 462.946257 
L 121.09433 463.299256 
z
" clip-path="url(#pa39ed71c64)" style="fill: #78bb78; fill-opacity: 0.5"/>
    <path d="M 118.011585 489.394551 
L 119.130146 489.239952 
L 121.09433 488.948795 
L 122.885989 488.391768 
L 124.177075 487.829485 
L 124.760126 487.543584 
L 125.920145 486.695401 
L 126.560909 485.847217 
L 126.834122 484.999033 
L 126.820038 484.150849 
L 126.56342 483.302666 
L 126.100028 482.454482 
L 125.480847 481.606298 
L 124.786657 480.758115 
L 124.177075 479.977866 
L 124.098633 479.909931 
L 123.306697 479.061747 
L 122.658735 478.213563 
L 122.236038 477.36538 
L 122.134716 476.517196 
L 122.418589 475.669012 
L 123.06254 474.820829 
L 123.973186 473.972645 
L 124.177075 473.792507 
L 124.521306 473.124461 
L 124.860657 472.276277 
L 125.047818 471.428094 
L 125.048657 470.57991 
L 124.860263 469.731726 
L 124.529875 468.883543 
L 124.177075 468.07015 
L 121.151968 468.035359 
L 121.09433 468.034562 
L 121.094064 468.035359 
L 120.647016 468.883543 
L 120.084127 469.731726 
L 119.512873 470.57991 
L 119.053752 471.428094 
L 118.79619 472.276277 
L 118.776193 473.124461 
L 118.972495 473.972645 
L 119.299271 474.820829 
L 119.589284 475.669012 
L 119.576529 476.517196 
L 118.867904 477.36538 
L 118.011585 477.761591 
L 117.762457 478.213563 
L 117.051288 479.061747 
L 116.103114 479.909931 
L 114.960532 480.758115 
L 114.92884 480.778508 
L 114.079729 481.606298 
L 113.230723 482.454482 
L 112.465455 483.302666 
L 111.846095 484.13646 
L 111.834936 484.150849 
L 111.343885 484.999033 
L 111.116244 485.847217 
L 111.216598 486.695401 
L 111.759633 487.543584 
L 111.846095 487.614541 
L 112.973888 488.391768 
L 114.92884 489.111791 
L 116.198929 489.239952 
z
M 115.166094 488.391768 
L 114.92884 488.346808 
L 113.459093 487.543584 
L 112.752343 486.695401 
L 112.59243 485.847217 
L 112.812032 484.999033 
L 113.31687 484.150849 
L 114.043927 483.302666 
L 114.92884 482.45964 
L 114.937434 482.454482 
L 116.359491 481.606298 
L 117.750631 480.758115 
L 118.011585 480.574829 
L 121.09433 480.387984 
L 121.639452 480.758115 
L 122.900717 481.606298 
L 123.978763 482.454482 
L 124.177075 482.646511 
L 124.678764 483.302666 
L 125.081824 484.150849 
L 125.176563 484.999033 
L 124.90744 485.847217 
L 124.177075 486.695401 
L 124.177075 486.695401 
L 122.848981 487.543584 
L 121.09433 488.248938 
L 120.340947 488.391768 
L 118.011585 488.759742 
z
M 121.09433 463.299256 
L 121.505262 462.946257 
L 121.556957 462.098073 
L 121.09433 461.249889 
L 120.996766 462.098073 
L 121.040761 462.946257 
z
" clip-path="url(#pa39ed71c64)" style="fill: #63b163; fill-opacity: 0.5"/>
    <path d="M 118.011585 488.759742 
L 120.340947 488.391768 
L 121.09433 488.248938 
L 122.848981 487.543584 
L 124.177075 486.695401 
L 124.177075 486.695401 
L 124.90744 485.847217 
L 125.176563 484.999033 
L 125.081824 484.150849 
L 124.678764 483.302666 
L 124.177075 482.646511 
L 123.978763 482.454482 
L 122.900717 481.606298 
L 121.639452 480.758115 
L 121.09433 480.387984 
L 118.011585 480.574829 
L 117.750631 480.758115 
L 116.359491 481.606298 
L 114.937434 482.454482 
L 114.92884 482.45964 
L 114.043927 483.302666 
L 113.31687 484.150849 
L 112.812032 484.999033 
L 112.59243 485.847217 
L 112.752343 486.695401 
L 113.459093 487.543584 
L 114.92884 488.346808 
L 115.166094 488.391768 
z
" clip-path="url(#pa39ed71c64)" style="fill: #2a952a; fill-opacity: 0.5"/>
   </g>
   <g id="matplotlib.axis_1">
    <g id="xtick_1">
     <g id="line2d_1">
      <defs>
       <path id="meb53af99cc" d="M 0 0 
L 0 3.5 
" style="stroke: #000000; stroke-width: 0.8"/>
      </defs>
      <g>
       <use xlink:href="#meb53af99cc" x="105.666825" y="499.48" style="stroke: #000000; stroke-width: 0.8"/>
      </g>
     </g>
     <g id="text_1">
      <!-- 0 -->
      <g transform="translate(98.668075 523.196563) scale(0.22 -0.22)">
       <defs>
        <path id="DejaVuSans-30" d="M 2034 4250 
Q 1547 4250 1301 3770 
Q 1056 3291 1056 2328 
Q 1056 1369 1301 889 
Q 1547 409 2034 409 
Q 2525 409 2770 889 
Q 3016 1369 3016 2328 
Q 3016 3291 2770 3770 
Q 2525 4250 2034 4250 
z
M 2034 4750 
Q 2819 4750 3233 4129 
Q 3647 3509 3647 2328 
Q 3647 1150 3233 529 
Q 2819 -91 2034 -91 
Q 1250 -91 836 529 
Q 422 1150 422 2328 
Q 422 3509 836 4129 
Q 1250 4750 2034 4750 
z
" transform="scale(0.015625)"/>
       </defs>
       <use xlink:href="#DejaVuSans-30"/>
      </g>
     </g>
    </g>
    <g id="xtick_2">
     <g id="line2d_2">
      <g>
       <use xlink:href="#meb53af99cc" x="179.715195" y="499.48" style="stroke: #000000; stroke-width: 0.8"/>
      </g>
     </g>
     <g id="text_2">
      <!-- 25 -->
      <g transform="translate(165.717695 523.196563) scale(0.22 -0.22)">
       <defs>
        <path id="DejaVuSans-32" d="M 1228 531 
L 3431 531 
L 3431 0 
L 469 0 
L 469 531 
Q 828 903 1448 1529 
Q 2069 2156 2228 2338 
Q 2531 2678 2651 2914 
Q 2772 3150 2772 3378 
Q 2772 3750 2511 3984 
Q 2250 4219 1831 4219 
Q 1534 4219 1204 4116 
Q 875 4013 500 3803 
L 500 4441 
Q 881 4594 1212 4672 
Q 1544 4750 1819 4750 
Q 2544 4750 2975 4387 
Q 3406 4025 3406 3419 
Q 3406 3131 3298 2873 
Q 3191 2616 2906 2266 
Q 2828 2175 2409 1742 
Q 1991 1309 1228 531 
z
" transform="scale(0.015625)"/>
        <path id="DejaVuSans-35" d="M 691 4666 
L 3169 4666 
L 3169 4134 
L 1269 4134 
L 1269 2991 
Q 1406 3038 1543 3061 
Q 1681 3084 1819 3084 
Q 2600 3084 3056 2656 
Q 3513 2228 3513 1497 
Q 3513 744 3044 326 
Q 2575 -91 1722 -91 
Q 1428 -91 1123 -41 
Q 819 9 494 109 
L 494 744 
Q 775 591 1075 516 
Q 1375 441 1709 441 
Q 2250 441 2565 725 
Q 2881 1009 2881 1497 
Q 2881 1984 2565 2268 
Q 2250 2553 1709 2553 
Q 1456 2553 1204 2497 
Q 953 2441 691 2322 
L 691 4666 
z
" transform="scale(0.015625)"/>
       </defs>
       <use xlink:href="#DejaVuSans-32"/>
       <use xlink:href="#DejaVuSans-35" x="63.623047"/>
      </g>
     </g>
    </g>
    <g id="xtick_3">
     <g id="line2d_3">
      <g>
       <use xlink:href="#meb53af99cc" x="253.763565" y="499.48" style="stroke: #000000; stroke-width: 0.8"/>
      </g>
     </g>
     <g id="text_3">
      <!-- 50 -->
      <g transform="translate(239.766065 523.196563) scale(0.22 -0.22)">
       <use xlink:href="#DejaVuSans-35"/>
       <use xlink:href="#DejaVuSans-30" x="63.623047"/>
      </g>
     </g>
    </g>
    <g id="xtick_4">
     <g id="line2d_4">
      <g>
       <use xlink:href="#meb53af99cc" x="327.811936" y="499.48" style="stroke: #000000; stroke-width: 0.8"/>
      </g>
     </g>
     <g id="text_4">
      <!-- 75 -->
      <g transform="translate(313.814436 523.196563) scale(0.22 -0.22)">
       <defs>
        <path id="DejaVuSans-37" d="M 525 4666 
L 3525 4666 
L 3525 4397 
L 1831 0 
L 1172 0 
L 2766 4134 
L 525 4134 
L 525 4666 
z
" transform="scale(0.015625)"/>
       </defs>
       <use xlink:href="#DejaVuSans-37"/>
       <use xlink:href="#DejaVuSans-35" x="63.623047"/>
      </g>
     </g>
    </g>
    <g id="xtick_5">
     <g id="line2d_5">
      <g>
       <use xlink:href="#meb53af99cc" x="401.860306" y="499.48" style="stroke: #000000; stroke-width: 0.8"/>
      </g>
     </g>
     <g id="text_5">
      <!-- 100 -->
      <g transform="translate(380.864056 523.196563) scale(0.22 -0.22)">
       <defs>
        <path id="DejaVuSans-31" d="M 794 531 
L 1825 531 
L 1825 4091 
L 703 3866 
L 703 4441 
L 1819 4666 
L 2450 4666 
L 2450 531 
L 3481 531 
L 3481 0 
L 794 0 
L 794 531 
z
" transform="scale(0.015625)"/>
       </defs>
       <use xlink:href="#DejaVuSans-31"/>
       <use xlink:href="#DejaVuSans-30" x="63.623047"/>
       <use xlink:href="#DejaVuSans-30" x="127.246094"/>
      </g>
     </g>
    </g>
    <g id="xtick_6">
     <g id="line2d_6">
      <g>
       <use xlink:href="#meb53af99cc" x="475.908676" y="499.48" style="stroke: #000000; stroke-width: 0.8"/>
      </g>
     </g>
     <g id="text_6">
      <!-- 125 -->
      <g transform="translate(454.912426 523.196563) scale(0.22 -0.22)">
       <use xlink:href="#DejaVuSans-31"/>
       <use xlink:href="#DejaVuSans-32" x="63.623047"/>
       <use xlink:href="#DejaVuSans-35" x="127.246094"/>
      </g>
     </g>
    </g>
    <g id="xtick_7">
     <g id="line2d_7">
      <g>
       <use xlink:href="#meb53af99cc" x="549.957047" y="499.48" style="stroke: #000000; stroke-width: 0.8"/>
      </g>
     </g>
     <g id="text_7">
      <!-- 150 -->
      <g transform="translate(528.960797 523.196563) scale(0.22 -0.22)">
       <use xlink:href="#DejaVuSans-31"/>
       <use xlink:href="#DejaVuSans-35" x="63.623047"/>
       <use xlink:href="#DejaVuSans-30" x="127.246094"/>
      </g>
     </g>
    </g>
    <g id="xtick_8">
     <g id="line2d_8">
      <g>
       <use xlink:href="#meb53af99cc" x="624.005417" y="499.48" style="stroke: #000000; stroke-width: 0.8"/>
      </g>
     </g>
     <g id="text_8">
      <!-- 175 -->
      <g transform="translate(603.009167 523.196563) scale(0.22 -0.22)">
       <use xlink:href="#DejaVuSans-31"/>
       <use xlink:href="#DejaVuSans-37" x="63.623047"/>
       <use xlink:href="#DejaVuSans-35" x="127.246094"/>
      </g>
     </g>
    </g>
    <g id="text_9">
     <!-- Force Uncertainties -->
     <g transform="translate(290.446094 548.488438) scale(0.22 -0.22)">
      <defs>
       <path id="DejaVuSans-46" d="M 628 4666 
L 3309 4666 
L 3309 4134 
L 1259 4134 
L 1259 2759 
L 3109 2759 
L 3109 2228 
L 1259 2228 
L 1259 0 
L 628 0 
L 628 4666 
z
" transform="scale(0.015625)"/>
       <path id="DejaVuSans-6f" d="M 1959 3097 
Q 1497 3097 1228 2736 
Q 959 2375 959 1747 
Q 959 1119 1226 758 
Q 1494 397 1959 397 
Q 2419 397 2687 759 
Q 2956 1122 2956 1747 
Q 2956 2369 2687 2733 
Q 2419 3097 1959 3097 
z
M 1959 3584 
Q 2709 3584 3137 3096 
Q 3566 2609 3566 1747 
Q 3566 888 3137 398 
Q 2709 -91 1959 -91 
Q 1206 -91 779 398 
Q 353 888 353 1747 
Q 353 2609 779 3096 
Q 1206 3584 1959 3584 
z
" transform="scale(0.015625)"/>
       <path id="DejaVuSans-72" d="M 2631 2963 
Q 2534 3019 2420 3045 
Q 2306 3072 2169 3072 
Q 1681 3072 1420 2755 
Q 1159 2438 1159 1844 
L 1159 0 
L 581 0 
L 581 3500 
L 1159 3500 
L 1159 2956 
Q 1341 3275 1631 3429 
Q 1922 3584 2338 3584 
Q 2397 3584 2469 3576 
Q 2541 3569 2628 3553 
L 2631 2963 
z
" transform="scale(0.015625)"/>
       <path id="DejaVuSans-63" d="M 3122 3366 
L 3122 2828 
Q 2878 2963 2633 3030 
Q 2388 3097 2138 3097 
Q 1578 3097 1268 2742 
Q 959 2388 959 1747 
Q 959 1106 1268 751 
Q 1578 397 2138 397 
Q 2388 397 2633 464 
Q 2878 531 3122 666 
L 3122 134 
Q 2881 22 2623 -34 
Q 2366 -91 2075 -91 
Q 1284 -91 818 406 
Q 353 903 353 1747 
Q 353 2603 823 3093 
Q 1294 3584 2113 3584 
Q 2378 3584 2631 3529 
Q 2884 3475 3122 3366 
z
" transform="scale(0.015625)"/>
       <path id="DejaVuSans-65" d="M 3597 1894 
L 3597 1613 
L 953 1613 
Q 991 1019 1311 708 
Q 1631 397 2203 397 
Q 2534 397 2845 478 
Q 3156 559 3463 722 
L 3463 178 
Q 3153 47 2828 -22 
Q 2503 -91 2169 -91 
Q 1331 -91 842 396 
Q 353 884 353 1716 
Q 353 2575 817 3079 
Q 1281 3584 2069 3584 
Q 2775 3584 3186 3129 
Q 3597 2675 3597 1894 
z
M 3022 2063 
Q 3016 2534 2758 2815 
Q 2500 3097 2075 3097 
Q 1594 3097 1305 2825 
Q 1016 2553 972 2059 
L 3022 2063 
z
" transform="scale(0.015625)"/>
       <path id="DejaVuSans-20" transform="scale(0.015625)"/>
       <path id="DejaVuSans-55" d="M 556 4666 
L 1191 4666 
L 1191 1831 
Q 1191 1081 1462 751 
Q 1734 422 2344 422 
Q 2950 422 3222 751 
Q 3494 1081 3494 1831 
L 3494 4666 
L 4128 4666 
L 4128 1753 
Q 4128 841 3676 375 
Q 3225 -91 2344 -91 
Q 1459 -91 1007 375 
Q 556 841 556 1753 
L 556 4666 
z
" transform="scale(0.015625)"/>
       <path id="DejaVuSans-6e" d="M 3513 2113 
L 3513 0 
L 2938 0 
L 2938 2094 
Q 2938 2591 2744 2837 
Q 2550 3084 2163 3084 
Q 1697 3084 1428 2787 
Q 1159 2491 1159 1978 
L 1159 0 
L 581 0 
L 581 3500 
L 1159 3500 
L 1159 2956 
Q 1366 3272 1645 3428 
Q 1925 3584 2291 3584 
Q 2894 3584 3203 3211 
Q 3513 2838 3513 2113 
z
" transform="scale(0.015625)"/>
       <path id="DejaVuSans-74" d="M 1172 4494 
L 1172 3500 
L 2356 3500 
L 2356 3053 
L 1172 3053 
L 1172 1153 
Q 1172 725 1289 603 
Q 1406 481 1766 481 
L 2356 481 
L 2356 0 
L 1766 0 
Q 1100 0 847 248 
Q 594 497 594 1153 
L 594 3053 
L 172 3053 
L 172 3500 
L 594 3500 
L 594 4494 
L 1172 4494 
z
" transform="scale(0.015625)"/>
       <path id="DejaVuSans-61" d="M 2194 1759 
Q 1497 1759 1228 1600 
Q 959 1441 959 1056 
Q 959 750 1161 570 
Q 1363 391 1709 391 
Q 2188 391 2477 730 
Q 2766 1069 2766 1631 
L 2766 1759 
L 2194 1759 
z
M 3341 1997 
L 3341 0 
L 2766 0 
L 2766 531 
Q 2569 213 2275 61 
Q 1981 -91 1556 -91 
Q 1019 -91 701 211 
Q 384 513 384 1019 
Q 384 1609 779 1909 
Q 1175 2209 1959 2209 
L 2766 2209 
L 2766 2266 
Q 2766 2663 2505 2880 
Q 2244 3097 1772 3097 
Q 1472 3097 1187 3025 
Q 903 2953 641 2809 
L 641 3341 
Q 956 3463 1253 3523 
Q 1550 3584 1831 3584 
Q 2591 3584 2966 3190 
Q 3341 2797 3341 1997 
z
" transform="scale(0.015625)"/>
       <path id="DejaVuSans-69" d="M 603 3500 
L 1178 3500 
L 1178 0 
L 603 0 
L 603 3500 
z
M 603 4863 
L 1178 4863 
L 1178 4134 
L 603 4134 
L 603 4863 
z
" transform="scale(0.015625)"/>
       <path id="DejaVuSans-73" d="M 2834 3397 
L 2834 2853 
Q 2591 2978 2328 3040 
Q 2066 3103 1784 3103 
Q 1356 3103 1142 2972 
Q 928 2841 928 2578 
Q 928 2378 1081 2264 
Q 1234 2150 1697 2047 
L 1894 2003 
Q 2506 1872 2764 1633 
Q 3022 1394 3022 966 
Q 3022 478 2636 193 
Q 2250 -91 1575 -91 
Q 1294 -91 989 -36 
Q 684 19 347 128 
L 347 722 
Q 666 556 975 473 
Q 1284 391 1588 391 
Q 1994 391 2212 530 
Q 2431 669 2431 922 
Q 2431 1156 2273 1281 
Q 2116 1406 1581 1522 
L 1381 1569 
Q 847 1681 609 1914 
Q 372 2147 372 2553 
Q 372 3047 722 3315 
Q 1072 3584 1716 3584 
Q 2034 3584 2315 3537 
Q 2597 3491 2834 3397 
z
" transform="scale(0.015625)"/>
      </defs>
      <use xlink:href="#DejaVuSans-46"/>
      <use xlink:href="#DejaVuSans-6f" x="53.894531"/>
      <use xlink:href="#DejaVuSans-72" x="115.076172"/>
      <use xlink:href="#DejaVuSans-63" x="153.939453"/>
      <use xlink:href="#DejaVuSans-65" x="208.919922"/>
      <use xlink:href="#DejaVuSans-20" x="270.443359"/>
      <use xlink:href="#DejaVuSans-55" x="302.230469"/>
      <use xlink:href="#DejaVuSans-6e" x="375.423828"/>
      <use xlink:href="#DejaVuSans-63" x="438.802734"/>
      <use xlink:href="#DejaVuSans-65" x="493.783203"/>
      <use xlink:href="#DejaVuSans-72" x="555.306641"/>
      <use xlink:href="#DejaVuSans-74" x="596.419922"/>
      <use xlink:href="#DejaVuSans-61" x="635.628906"/>
      <use xlink:href="#DejaVuSans-69" x="696.908203"/>
      <use xlink:href="#DejaVuSans-6e" x="724.691406"/>
      <use xlink:href="#DejaVuSans-74" x="788.070312"/>
      <use xlink:href="#DejaVuSans-69" x="827.279297"/>
      <use xlink:href="#DejaVuSans-65" x="855.0625"/>
      <use xlink:href="#DejaVuSans-73" x="916.585938"/>
     </g>
    </g>
   </g>
   <g id="matplotlib.axis_2">
    <g id="ytick_1">
     <g id="line2d_9">
      <defs>
       <path id="m4fbe373610" d="M 0 0 
L -3.5 0 
" style="stroke: #000000; stroke-width: 0.8"/>
      </defs>
      <g>
       <use xlink:href="#m4fbe373610" x="97.76" y="493.19502" style="stroke: #000000; stroke-width: 0.8"/>
      </g>
     </g>
     <g id="text_10">
      <!-- 0 -->
      <g transform="translate(76.7625 501.553302) scale(0.22 -0.22)">
       <use xlink:href="#DejaVuSans-30"/>
      </g>
     </g>
    </g>
    <g id="ytick_2">
     <g id="line2d_10">
      <g>
       <use xlink:href="#m4fbe373610" x="97.76" y="434.335425" style="stroke: #000000; stroke-width: 0.8"/>
      </g>
     </g>
     <g id="text_11">
      <!-- 25 -->
      <g transform="translate(62.765 442.693706) scale(0.22 -0.22)">
       <use xlink:href="#DejaVuSans-32"/>
       <use xlink:href="#DejaVuSans-35" x="63.623047"/>
      </g>
     </g>
    </g>
    <g id="ytick_3">
     <g id="line2d_11">
      <g>
       <use xlink:href="#m4fbe373610" x="97.76" y="375.475829" style="stroke: #000000; stroke-width: 0.8"/>
      </g>
     </g>
     <g id="text_12">
      <!-- 50 -->
      <g transform="translate(62.765 383.834111) scale(0.22 -0.22)">
       <use xlink:href="#DejaVuSans-35"/>
       <use xlink:href="#DejaVuSans-30" x="63.623047"/>
      </g>
     </g>
    </g>
    <g id="ytick_4">
     <g id="line2d_12">
      <g>
       <use xlink:href="#m4fbe373610" x="97.76" y="316.616234" style="stroke: #000000; stroke-width: 0.8"/>
      </g>
     </g>
     <g id="text_13">
      <!-- 75 -->
      <g transform="translate(62.765 324.974515) scale(0.22 -0.22)">
       <use xlink:href="#DejaVuSans-37"/>
       <use xlink:href="#DejaVuSans-35" x="63.623047"/>
      </g>
     </g>
    </g>
    <g id="ytick_5">
     <g id="line2d_13">
      <g>
       <use xlink:href="#m4fbe373610" x="97.76" y="257.756638" style="stroke: #000000; stroke-width: 0.8"/>
      </g>
     </g>
     <g id="text_14">
      <!-- 100 -->
      <g transform="translate(48.7675 266.114919) scale(0.22 -0.22)">
       <use xlink:href="#DejaVuSans-31"/>
       <use xlink:href="#DejaVuSans-30" x="63.623047"/>
       <use xlink:href="#DejaVuSans-30" x="127.246094"/>
      </g>
     </g>
    </g>
    <g id="ytick_6">
     <g id="line2d_14">
      <g>
       <use xlink:href="#m4fbe373610" x="97.76" y="198.897043" style="stroke: #000000; stroke-width: 0.8"/>
      </g>
     </g>
     <g id="text_15">
      <!-- 125 -->
      <g transform="translate(48.7675 207.255324) scale(0.22 -0.22)">
       <use xlink:href="#DejaVuSans-31"/>
       <use xlink:href="#DejaVuSans-32" x="63.623047"/>
       <use xlink:href="#DejaVuSans-35" x="127.246094"/>
      </g>
     </g>
    </g>
    <g id="ytick_7">
     <g id="line2d_15">
      <g>
       <use xlink:href="#m4fbe373610" x="97.76" y="140.037447" style="stroke: #000000; stroke-width: 0.8"/>
      </g>
     </g>
     <g id="text_16">
      <!-- 150 -->
      <g transform="translate(48.7675 148.395728) scale(0.22 -0.22)">
       <use xlink:href="#DejaVuSans-31"/>
       <use xlink:href="#DejaVuSans-35" x="63.623047"/>
       <use xlink:href="#DejaVuSans-30" x="127.246094"/>
      </g>
     </g>
    </g>
    <g id="ytick_8">
     <g id="line2d_16">
      <g>
       <use xlink:href="#m4fbe373610" x="97.76" y="81.177852" style="stroke: #000000; stroke-width: 0.8"/>
      </g>
     </g>
     <g id="text_17">
      <!-- 175 -->
      <g transform="translate(48.7675 89.536133) scale(0.22 -0.22)">
       <use xlink:href="#DejaVuSans-31"/>
       <use xlink:href="#DejaVuSans-37" x="63.623047"/>
       <use xlink:href="#DejaVuSans-35" x="127.246094"/>
      </g>
     </g>
    </g>
    <g id="text_18">
     <!-- Force Errors [kJ/(mol*A)] -->
     <g transform="translate(40.192188 394.9125) rotate(-90) scale(0.22 -0.22)">
      <defs>
       <path id="DejaVuSans-45" d="M 628 4666 
L 3578 4666 
L 3578 4134 
L 1259 4134 
L 1259 2753 
L 3481 2753 
L 3481 2222 
L 1259 2222 
L 1259 531 
L 3634 531 
L 3634 0 
L 628 0 
L 628 4666 
z
" transform="scale(0.015625)"/>
       <path id="DejaVuSans-5b" d="M 550 4863 
L 1875 4863 
L 1875 4416 
L 1125 4416 
L 1125 -397 
L 1875 -397 
L 1875 -844 
L 550 -844 
L 550 4863 
z
" transform="scale(0.015625)"/>
       <path id="DejaVuSans-6b" d="M 581 4863 
L 1159 4863 
L 1159 1991 
L 2875 3500 
L 3609 3500 
L 1753 1863 
L 3688 0 
L 2938 0 
L 1159 1709 
L 1159 0 
L 581 0 
L 581 4863 
z
" transform="scale(0.015625)"/>
       <path id="DejaVuSans-4a" d="M 628 4666 
L 1259 4666 
L 1259 325 
Q 1259 -519 939 -900 
Q 619 -1281 -91 -1281 
L -331 -1281 
L -331 -750 
L -134 -750 
Q 284 -750 456 -515 
Q 628 -281 628 325 
L 628 4666 
z
" transform="scale(0.015625)"/>
       <path id="DejaVuSans-2f" d="M 1625 4666 
L 2156 4666 
L 531 -594 
L 0 -594 
L 1625 4666 
z
" transform="scale(0.015625)"/>
       <path id="DejaVuSans-28" d="M 1984 4856 
Q 1566 4138 1362 3434 
Q 1159 2731 1159 2009 
Q 1159 1288 1364 580 
Q 1569 -128 1984 -844 
L 1484 -844 
Q 1016 -109 783 600 
Q 550 1309 550 2009 
Q 550 2706 781 3412 
Q 1013 4119 1484 4856 
L 1984 4856 
z
" transform="scale(0.015625)"/>
       <path id="DejaVuSans-6d" d="M 3328 2828 
Q 3544 3216 3844 3400 
Q 4144 3584 4550 3584 
Q 5097 3584 5394 3201 
Q 5691 2819 5691 2113 
L 5691 0 
L 5113 0 
L 5113 2094 
Q 5113 2597 4934 2840 
Q 4756 3084 4391 3084 
Q 3944 3084 3684 2787 
Q 3425 2491 3425 1978 
L 3425 0 
L 2847 0 
L 2847 2094 
Q 2847 2600 2669 2842 
Q 2491 3084 2119 3084 
Q 1678 3084 1418 2786 
Q 1159 2488 1159 1978 
L 1159 0 
L 581 0 
L 581 3500 
L 1159 3500 
L 1159 2956 
Q 1356 3278 1631 3431 
Q 1906 3584 2284 3584 
Q 2666 3584 2933 3390 
Q 3200 3197 3328 2828 
z
" transform="scale(0.015625)"/>
       <path id="DejaVuSans-6c" d="M 603 4863 
L 1178 4863 
L 1178 0 
L 603 0 
L 603 4863 
z
" transform="scale(0.015625)"/>
       <path id="DejaVuSans-2a" d="M 3009 3897 
L 1888 3291 
L 3009 2681 
L 2828 2375 
L 1778 3009 
L 1778 1831 
L 1422 1831 
L 1422 3009 
L 372 2375 
L 191 2681 
L 1313 3291 
L 191 3897 
L 372 4206 
L 1422 3572 
L 1422 4750 
L 1778 4750 
L 1778 3572 
L 2828 4206 
L 3009 3897 
z
" transform="scale(0.015625)"/>
       <path id="DejaVuSans-41" d="M 2188 4044 
L 1331 1722 
L 3047 1722 
L 2188 4044 
z
M 1831 4666 
L 2547 4666 
L 4325 0 
L 3669 0 
L 3244 1197 
L 1141 1197 
L 716 0 
L 50 0 
L 1831 4666 
z
" transform="scale(0.015625)"/>
       <path id="DejaVuSans-29" d="M 513 4856 
L 1013 4856 
Q 1481 4119 1714 3412 
Q 1947 2706 1947 2009 
Q 1947 1309 1714 600 
Q 1481 -109 1013 -844 
L 513 -844 
Q 928 -128 1133 580 
Q 1338 1288 1338 2009 
Q 1338 2731 1133 3434 
Q 928 4138 513 4856 
z
" transform="scale(0.015625)"/>
       <path id="DejaVuSans-5d" d="M 1947 4863 
L 1947 -844 
L 622 -844 
L 622 -397 
L 1369 -397 
L 1369 4416 
L 622 4416 
L 622 4863 
L 1947 4863 
z
" transform="scale(0.015625)"/>
      </defs>
      <use xlink:href="#DejaVuSans-46"/>
      <use xlink:href="#DejaVuSans-6f" x="53.894531"/>
      <use xlink:href="#DejaVuSans-72" x="115.076172"/>
      <use xlink:href="#DejaVuSans-63" x="153.939453"/>
      <use xlink:href="#DejaVuSans-65" x="208.919922"/>
      <use xlink:href="#DejaVuSans-20" x="270.443359"/>
      <use xlink:href="#DejaVuSans-45" x="302.230469"/>
      <use xlink:href="#DejaVuSans-72" x="365.414062"/>
      <use xlink:href="#DejaVuSans-72" x="404.777344"/>
      <use xlink:href="#DejaVuSans-6f" x="443.640625"/>
      <use xlink:href="#DejaVuSans-72" x="504.822266"/>
      <use xlink:href="#DejaVuSans-73" x="545.935547"/>
      <use xlink:href="#DejaVuSans-20" x="598.035156"/>
      <use xlink:href="#DejaVuSans-5b" x="629.822266"/>
      <use xlink:href="#DejaVuSans-6b" x="668.835938"/>
      <use xlink:href="#DejaVuSans-4a" x="726.746094"/>
      <use xlink:href="#DejaVuSans-2f" x="756.238281"/>
      <use xlink:href="#DejaVuSans-28" x="789.929688"/>
      <use xlink:href="#DejaVuSans-6d" x="828.943359"/>
      <use xlink:href="#DejaVuSans-6f" x="926.355469"/>
      <use xlink:href="#DejaVuSans-6c" x="987.537109"/>
      <use xlink:href="#DejaVuSans-2a" x="1015.320312"/>
      <use xlink:href="#DejaVuSans-41" x="1065.320312"/>
      <use xlink:href="#DejaVuSans-29" x="1133.728516"/>
      <use xlink:href="#DejaVuSans-5d" x="1172.742188"/>
     </g>
    </g>
   </g>
   <g id="line2d_17">
    <path d="M 97.76 499.48 
L 696.24 23.76 
" clip-path="url(#pa39ed71c64)" style="fill: none; stroke-dasharray: 5.55,2.4; stroke-dashoffset: 0; stroke: #ff0000; stroke-width: 1.5"/>
   </g>
   <g id="patch_3">
    <path d="M 97.76 499.48 
L 97.76 23.76 
" style="fill: none; stroke: #000000; stroke-width: 0.8; stroke-linejoin: miter; stroke-linecap: square"/>
   </g>
   <g id="patch_4">
    <path d="M 696.24 499.48 
L 696.24 23.76 
" style="fill: none; stroke: #000000; stroke-width: 0.8; stroke-linejoin: miter; stroke-linecap: square"/>
   </g>
   <g id="patch_5">
    <path d="M 97.76 499.48 
L 696.24 499.48 
" style="fill: none; stroke: #000000; stroke-width: 0.8; stroke-linejoin: miter; stroke-linecap: square"/>
   </g>
   <g id="patch_6">
    <path d="M 97.76 23.76 
L 696.24 23.76 
" style="fill: none; stroke: #000000; stroke-width: 0.8; stroke-linejoin: miter; stroke-linecap: square"/>
   </g>
   <g id="text_19">
    <!-- Correlation in: 0.891 -->
    <g transform="translate(145.6384 46.696812) scale(0.22 -0.22)">
     <defs>
      <path id="DejaVuSans-43" d="M 4122 4306 
L 4122 3641 
Q 3803 3938 3442 4084 
Q 3081 4231 2675 4231 
Q 1875 4231 1450 3742 
Q 1025 3253 1025 2328 
Q 1025 1406 1450 917 
Q 1875 428 2675 428 
Q 3081 428 3442 575 
Q 3803 722 4122 1019 
L 4122 359 
Q 3791 134 3420 21 
Q 3050 -91 2638 -91 
Q 1578 -91 968 557 
Q 359 1206 359 2328 
Q 359 3453 968 4101 
Q 1578 4750 2638 4750 
Q 3056 4750 3426 4639 
Q 3797 4528 4122 4306 
z
" transform="scale(0.015625)"/>
      <path id="DejaVuSans-3a" d="M 750 794 
L 1409 794 
L 1409 0 
L 750 0 
L 750 794 
z
M 750 3309 
L 1409 3309 
L 1409 2516 
L 750 2516 
L 750 3309 
z
" transform="scale(0.015625)"/>
      <path id="DejaVuSans-2e" d="M 684 794 
L 1344 794 
L 1344 0 
L 684 0 
L 684 794 
z
" transform="scale(0.015625)"/>
      <path id="DejaVuSans-38" d="M 2034 2216 
Q 1584 2216 1326 1975 
Q 1069 1734 1069 1313 
Q 1069 891 1326 650 
Q 1584 409 2034 409 
Q 2484 409 2743 651 
Q 3003 894 3003 1313 
Q 3003 1734 2745 1975 
Q 2488 2216 2034 2216 
z
M 1403 2484 
Q 997 2584 770 2862 
Q 544 3141 544 3541 
Q 544 4100 942 4425 
Q 1341 4750 2034 4750 
Q 2731 4750 3128 4425 
Q 3525 4100 3525 3541 
Q 3525 3141 3298 2862 
Q 3072 2584 2669 2484 
Q 3125 2378 3379 2068 
Q 3634 1759 3634 1313 
Q 3634 634 3220 271 
Q 2806 -91 2034 -91 
Q 1263 -91 848 271 
Q 434 634 434 1313 
Q 434 1759 690 2068 
Q 947 2378 1403 2484 
z
M 1172 3481 
Q 1172 3119 1398 2916 
Q 1625 2713 2034 2713 
Q 2441 2713 2670 2916 
Q 2900 3119 2900 3481 
Q 2900 3844 2670 4047 
Q 2441 4250 2034 4250 
Q 1625 4250 1398 4047 
Q 1172 3844 1172 3481 
z
" transform="scale(0.015625)"/>
      <path id="DejaVuSans-39" d="M 703 97 
L 703 672 
Q 941 559 1184 500 
Q 1428 441 1663 441 
Q 2288 441 2617 861 
Q 2947 1281 2994 2138 
Q 2813 1869 2534 1725 
Q 2256 1581 1919 1581 
Q 1219 1581 811 2004 
Q 403 2428 403 3163 
Q 403 3881 828 4315 
Q 1253 4750 1959 4750 
Q 2769 4750 3195 4129 
Q 3622 3509 3622 2328 
Q 3622 1225 3098 567 
Q 2575 -91 1691 -91 
Q 1453 -91 1209 -44 
Q 966 3 703 97 
z
M 1959 2075 
Q 2384 2075 2632 2365 
Q 2881 2656 2881 3163 
Q 2881 3666 2632 3958 
Q 2384 4250 1959 4250 
Q 1534 4250 1286 3958 
Q 1038 3666 1038 3163 
Q 1038 2656 1286 2365 
Q 1534 2075 1959 2075 
z
" transform="scale(0.015625)"/>
     </defs>
     <use xlink:href="#DejaVuSans-43"/>
     <use xlink:href="#DejaVuSans-6f" x="69.824219"/>
     <use xlink:href="#DejaVuSans-72" x="131.005859"/>
     <use xlink:href="#DejaVuSans-72" x="170.369141"/>
     <use xlink:href="#DejaVuSans-65" x="209.232422"/>
     <use xlink:href="#DejaVuSans-6c" x="270.755859"/>
     <use xlink:href="#DejaVuSans-61" x="298.539062"/>
     <use xlink:href="#DejaVuSans-74" x="359.818359"/>
     <use xlink:href="#DejaVuSans-69" x="399.027344"/>
     <use xlink:href="#DejaVuSans-6f" x="426.810547"/>
     <use xlink:href="#DejaVuSans-6e" x="487.992188"/>
     <use xlink:href="#DejaVuSans-20" x="551.371094"/>
     <use xlink:href="#DejaVuSans-69" x="583.158203"/>
     <use xlink:href="#DejaVuSans-6e" x="610.941406"/>
     <use xlink:href="#DejaVuSans-3a" x="674.320312"/>
     <use xlink:href="#DejaVuSans-20" x="708.011719"/>
     <use xlink:href="#DejaVuSans-30" x="739.798828"/>
     <use xlink:href="#DejaVuSans-2e" x="803.421875"/>
     <use xlink:href="#DejaVuSans-38" x="835.208984"/>
     <use xlink:href="#DejaVuSans-39" x="898.832031"/>
     <use xlink:href="#DejaVuSans-31" x="962.455078"/>
    </g>
    <!-- Correlation Out: 0.177 -->
    <g transform="translate(145.6384 71.332) scale(0.22 -0.22)">
     <defs>
      <path id="DejaVuSans-4f" d="M 2522 4238 
Q 1834 4238 1429 3725 
Q 1025 3213 1025 2328 
Q 1025 1447 1429 934 
Q 1834 422 2522 422 
Q 3209 422 3611 934 
Q 4013 1447 4013 2328 
Q 4013 3213 3611 3725 
Q 3209 4238 2522 4238 
z
M 2522 4750 
Q 3503 4750 4090 4092 
Q 4678 3434 4678 2328 
Q 4678 1225 4090 567 
Q 3503 -91 2522 -91 
Q 1538 -91 948 565 
Q 359 1222 359 2328 
Q 359 3434 948 4092 
Q 1538 4750 2522 4750 
z
" transform="scale(0.015625)"/>
      <path id="DejaVuSans-75" d="M 544 1381 
L 544 3500 
L 1119 3500 
L 1119 1403 
Q 1119 906 1312 657 
Q 1506 409 1894 409 
Q 2359 409 2629 706 
Q 2900 1003 2900 1516 
L 2900 3500 
L 3475 3500 
L 3475 0 
L 2900 0 
L 2900 538 
Q 2691 219 2414 64 
Q 2138 -91 1772 -91 
Q 1169 -91 856 284 
Q 544 659 544 1381 
z
M 1991 3584 
L 1991 3584 
z
" transform="scale(0.015625)"/>
     </defs>
     <use xlink:href="#DejaVuSans-43"/>
     <use xlink:href="#DejaVuSans-6f" x="69.824219"/>
     <use xlink:href="#DejaVuSans-72" x="131.005859"/>
     <use xlink:href="#DejaVuSans-72" x="170.369141"/>
     <use xlink:href="#DejaVuSans-65" x="209.232422"/>
     <use xlink:href="#DejaVuSans-6c" x="270.755859"/>
     <use xlink:href="#DejaVuSans-61" x="298.539062"/>
     <use xlink:href="#DejaVuSans-74" x="359.818359"/>
     <use xlink:href="#DejaVuSans-69" x="399.027344"/>
     <use xlink:href="#DejaVuSans-6f" x="426.810547"/>
     <use xlink:href="#DejaVuSans-6e" x="487.992188"/>
     <use xlink:href="#DejaVuSans-20" x="551.371094"/>
     <use xlink:href="#DejaVuSans-4f" x="583.158203"/>
     <use xlink:href="#DejaVuSans-75" x="661.869141"/>
     <use xlink:href="#DejaVuSans-74" x="725.248047"/>
     <use xlink:href="#DejaVuSans-3a" x="764.457031"/>
     <use xlink:href="#DejaVuSans-20" x="798.148438"/>
     <use xlink:href="#DejaVuSans-30" x="829.935547"/>
     <use xlink:href="#DejaVuSans-2e" x="893.558594"/>
     <use xlink:href="#DejaVuSans-31" x="925.345703"/>
     <use xlink:href="#DejaVuSans-37" x="988.96875"/>
     <use xlink:href="#DejaVuSans-37" x="1052.591797"/>
    </g>
   </g>
   <g id="legend_1">
    <g id="patch_7">
     <path d="M 407.0225 105.94375 
L 680.84 105.94375 
Q 685.24 105.94375 685.24 101.54375 
L 685.24 39.16 
Q 685.24 34.76 680.84 34.76 
L 407.0225 34.76 
Q 402.6225 34.76 402.6225 39.16 
L 402.6225 101.54375 
Q 402.6225 105.94375 407.0225 105.94375 
z
" style="fill: #ffffff; opacity: 0.8; stroke: #cccccc; stroke-linejoin: miter"/>
    </g>
    <g id="line2d_18">
     <defs>
      <path id="m5c067cc6bf" d="M 0 2.5 
C 0.663008 2.5 1.29895 2.236584 1.767767 1.767767 
C 2.236584 1.29895 2.5 0.663008 2.5 0 
C 2.5 -0.663008 2.236584 -1.29895 1.767767 -1.767767 
C 1.29895 -2.236584 0.663008 -2.5 0 -2.5 
C -0.663008 -2.5 -1.29895 -2.236584 -1.767767 -1.767767 
C -2.236584 -1.29895 -2.5 -0.663008 -2.5 0 
C -2.5 0.663008 -2.236584 1.29895 -1.767767 1.767767 
C -1.29895 2.236584 -0.663008 2.5 0 2.5 
z
" style="stroke: #ffffff"/>
     </defs>
     <g>
      <use xlink:href="#m5c067cc6bf" x="433.4225" y="52.576562" style="fill: #0000ff; stroke: #ffffff"/>
     </g>
    </g>
    <g id="text_20">
     <!-- In Distribution -->
     <g transform="translate(473.0225 60.276562) scale(0.22 -0.22)">
      <defs>
       <path id="DejaVuSans-49" d="M 628 4666 
L 1259 4666 
L 1259 0 
L 628 0 
L 628 4666 
z
" transform="scale(0.015625)"/>
       <path id="DejaVuSans-44" d="M 1259 4147 
L 1259 519 
L 2022 519 
Q 2988 519 3436 956 
Q 3884 1394 3884 2338 
Q 3884 3275 3436 3711 
Q 2988 4147 2022 4147 
L 1259 4147 
z
M 628 4666 
L 1925 4666 
Q 3281 4666 3915 4102 
Q 4550 3538 4550 2338 
Q 4550 1131 3912 565 
Q 3275 0 1925 0 
L 628 0 
L 628 4666 
z
" transform="scale(0.015625)"/>
       <path id="DejaVuSans-62" d="M 3116 1747 
Q 3116 2381 2855 2742 
Q 2594 3103 2138 3103 
Q 1681 3103 1420 2742 
Q 1159 2381 1159 1747 
Q 1159 1113 1420 752 
Q 1681 391 2138 391 
Q 2594 391 2855 752 
Q 3116 1113 3116 1747 
z
M 1159 2969 
Q 1341 3281 1617 3432 
Q 1894 3584 2278 3584 
Q 2916 3584 3314 3078 
Q 3713 2572 3713 1747 
Q 3713 922 3314 415 
Q 2916 -91 2278 -91 
Q 1894 -91 1617 61 
Q 1341 213 1159 525 
L 1159 0 
L 581 0 
L 581 4863 
L 1159 4863 
L 1159 2969 
z
" transform="scale(0.015625)"/>
      </defs>
      <use xlink:href="#DejaVuSans-49"/>
      <use xlink:href="#DejaVuSans-6e" x="29.492188"/>
      <use xlink:href="#DejaVuSans-20" x="92.871094"/>
      <use xlink:href="#DejaVuSans-44" x="124.658203"/>
      <use xlink:href="#DejaVuSans-69" x="201.660156"/>
      <use xlink:href="#DejaVuSans-73" x="229.443359"/>
      <use xlink:href="#DejaVuSans-74" x="281.542969"/>
      <use xlink:href="#DejaVuSans-72" x="320.751953"/>
      <use xlink:href="#DejaVuSans-69" x="361.865234"/>
      <use xlink:href="#DejaVuSans-62" x="389.648438"/>
      <use xlink:href="#DejaVuSans-75" x="453.125"/>
      <use xlink:href="#DejaVuSans-74" x="516.503906"/>
      <use xlink:href="#DejaVuSans-69" x="555.712891"/>
      <use xlink:href="#DejaVuSans-6f" x="583.496094"/>
      <use xlink:href="#DejaVuSans-6e" x="644.677734"/>
     </g>
    </g>
    <g id="line2d_19">
     <defs>
      <path id="m078c180433" d="M 0 2.5 
C 0.663008 2.5 1.29895 2.236584 1.767767 1.767767 
C 2.236584 1.29895 2.5 0.663008 2.5 0 
C 2.5 -0.663008 2.236584 -1.29895 1.767767 -1.767767 
C 1.29895 -2.236584 0.663008 -2.5 0 -2.5 
C -0.663008 -2.5 -1.29895 -2.236584 -1.767767 -1.767767 
C -2.236584 -1.29895 -2.5 -0.663008 -2.5 0 
C -2.5 0.663008 -2.236584 1.29895 -1.767767 1.767767 
C -1.29895 2.236584 -0.663008 2.5 0 2.5 
z
" style="stroke: #ffffff"/>
     </defs>
     <g>
      <use xlink:href="#m078c180433" x="433.4225" y="84.868437" style="fill: #008000; stroke: #ffffff"/>
     </g>
    </g>
    <g id="text_21">
     <!-- Out of Distribution -->
     <g transform="translate(473.0225 92.568437) scale(0.22 -0.22)">
      <defs>
       <path id="DejaVuSans-66" d="M 2375 4863 
L 2375 4384 
L 1825 4384 
Q 1516 4384 1395 4259 
Q 1275 4134 1275 3809 
L 1275 3500 
L 2222 3500 
L 2222 3053 
L 1275 3053 
L 1275 0 
L 697 0 
L 697 3053 
L 147 3053 
L 147 3500 
L 697 3500 
L 697 3744 
Q 697 4328 969 4595 
Q 1241 4863 1831 4863 
L 2375 4863 
z
" transform="scale(0.015625)"/>
      </defs>
      <use xlink:href="#DejaVuSans-4f"/>
      <use xlink:href="#DejaVuSans-75" x="78.710938"/>
      <use xlink:href="#DejaVuSans-74" x="142.089844"/>
      <use xlink:href="#DejaVuSans-20" x="181.298828"/>
      <use xlink:href="#DejaVuSans-6f" x="213.085938"/>
      <use xlink:href="#DejaVuSans-66" x="274.267578"/>
      <use xlink:href="#DejaVuSans-20" x="309.472656"/>
      <use xlink:href="#DejaVuSans-44" x="341.259766"/>
      <use xlink:href="#DejaVuSans-69" x="418.261719"/>
      <use xlink:href="#DejaVuSans-73" x="446.044922"/>
      <use xlink:href="#DejaVuSans-74" x="498.144531"/>
      <use xlink:href="#DejaVuSans-72" x="537.353516"/>
      <use xlink:href="#DejaVuSans-69" x="578.466797"/>
      <use xlink:href="#DejaVuSans-62" x="606.25"/>
      <use xlink:href="#DejaVuSans-75" x="669.726562"/>
      <use xlink:href="#DejaVuSans-74" x="733.105469"/>
      <use xlink:href="#DejaVuSans-69" x="772.314453"/>
      <use xlink:href="#DejaVuSans-6f" x="800.097656"/>
      <use xlink:href="#DejaVuSans-6e" x="861.279297"/>
     </g>
    </g>
   </g>
  </g>
 </g>
 <defs>
  <clipPath id="pa39ed71c64">
   <rect x="97.76" y="23.76" width="598.48" height="475.72"/>
  </clipPath>
 </defs>
</svg>
