<?xml version="1.0" encoding="utf-8" standalone="no"?>
<!DOCTYPE svg PUBLIC "-//W3C//DTD SVG 1.1//EN"
  "http://www.w3.org/Graphics/SVG/1.1/DTD/svg11.dtd">
<svg xmlns:xlink="http://www.w3.org/1999/xlink" width="720pt" height="576pt" viewBox="0 0 720 576" xmlns="http://www.w3.org/2000/svg" version="1.1">
 <metadata>
  <rdf:RDF xmlns:dc="http://purl.org/dc/elements/1.1/" xmlns:cc="http://creativecommons.org/ns#" xmlns:rdf="http://www.w3.org/1999/02/22-rdf-syntax-ns#">
   <cc:Work>
    <dc:type rdf:resource="http://purl.org/dc/dcmitype/StillImage"/>
    <dc:date>2024-12-07T18:19:29.926236</dc:date>
    <dc:format>image/svg+xml</dc:format>
    <dc:creator>
     <cc:Agent>
      <dc:title>Matplotlib v3.8.4, https://matplotlib.org/</dc:title>
     </cc:Agent>
    </dc:creator>
   </cc:Work>
  </rdf:RDF>
 </metadata>
 <defs>
  <style type="text/css">*{stroke-linejoin: round; stroke-linecap: butt}</style>
 </defs>
 <g id="figure_1">
  <g id="patch_1">
   <path d="M 0 576 
L 720 576 
L 720 0 
L 0 0 
z
" style="fill: #ffffff"/>
  </g>
  <g id="axes_1">
   <g id="patch_2">
    <path d="M 83.72 499.48 
L 696.24 499.48 
L 696.24 23.76 
L 83.72 23.76 
z
" style="fill: #ffffff"/>
   </g>
   <g id="QuadContourSet_1">
    <path d="M 111.111796 488.487381 
L 112.701078 488.453788 
L 113.46121 488.347998 
L 114.29036 488.286446 
L 115.879643 488.063699 
L 117.468925 487.715719 
L 119.058207 487.204136 
L 120.569168 486.519961 
L 120.64749 486.49731 
L 122.236772 486.009766 
L 123.826055 485.379959 
L 125.258923 484.691924 
L 125.415337 484.637669 
L 127.004619 484.092392 
L 128.593902 483.382986 
L 129.531359 482.863886 
L 130.183184 482.578417 
L 131.772467 481.709599 
L 132.710079 481.035849 
L 133.361749 480.625342 
L 134.951031 479.355784 
L 135.115397 479.207812 
L 136.540314 477.952271 
L 137.103021 477.379775 
L 138.129596 476.243499 
L 138.723052 475.551738 
L 139.718878 474.138221 
L 140.023192 473.723701 
L 141.052334 471.895664 
L 141.308161 471.200625 
L 141.814698 470.067627 
L 142.22471 468.23959 
L 142.207401 466.411553 
L 141.55838 464.583516 
L 141.308161 464.234405 
L 139.90325 462.755479 
L 139.718878 462.604403 
L 138.129596 461.331569 
L 137.666117 460.927442 
L 136.540314 459.926795 
L 135.567488 459.099405 
L 134.951031 458.586766 
L 133.361749 457.536651 
L 132.818902 457.271368 
L 131.772467 456.672739 
L 130.183184 456.00482 
L 128.593902 455.583084 
L 127.598913 455.443331 
L 127.004619 455.329155 
L 125.415337 455.241038 
L 123.826055 455.330174 
L 123.014466 455.443331 
L 122.236772 455.506849 
L 120.64749 455.688634 
L 119.058207 455.918664 
L 117.468925 456.200678 
L 115.879643 456.548457 
L 114.29036 456.992762 
L 113.507809 457.271368 
L 112.701078 457.458744 
L 111.111796 457.936068 
L 109.522513 458.581301 
L 108.528291 459.099405 
L 107.933231 459.316486 
L 106.343948 460.02437 
L 104.892004 460.927442 
L 104.754666 460.992694 
L 103.165384 461.859538 
L 101.983469 462.755479 
L 101.576101 463.019906 
L 99.986819 464.297817 
L 99.679954 464.583516 
L 98.397537 465.741634 
L 97.76248 466.411553 
L 96.808254 467.488787 
L 96.180974 468.23959 
L 95.218972 469.602316 
L 94.877759 470.067627 
L 93.795541 471.895664 
L 93.629689 472.277967 
L 92.863653 473.723701 
L 92.259403 475.551738 
L 92.040407 476.792042 
L 91.890118 477.379775 
L 91.769711 479.207812 
L 92.027982 481.035849 
L 92.040407 481.071945 
L 92.574353 482.863886 
L 93.629689 484.453394 
L 93.833817 484.691924 
L 95.218972 485.823584 
L 96.808254 486.450786 
L 97.14762 486.519961 
L 98.397537 486.837784 
L 99.986819 487.056209 
L 101.576101 487.21494 
L 103.165384 487.404508 
L 104.754666 487.655511 
L 106.343948 487.933845 
L 107.933231 488.178997 
L 109.522513 488.347998 
L 109.522513 488.347998 
z
M 109.588789 484.691924 
L 109.522513 484.681629 
L 107.933231 484.349928 
L 106.343948 483.96493 
L 104.754666 483.609799 
L 103.165384 483.328114 
L 101.576101 483.068233 
L 100.679919 482.863886 
L 99.986819 482.712865 
L 98.397537 482.018766 
L 97.294201 481.035849 
L 96.808254 480.174534 
L 96.390718 479.207812 
L 96.196643 477.379775 
L 96.454102 475.551738 
L 96.808254 474.560916 
L 97.054974 473.723701 
L 97.941903 471.895664 
L 98.397537 471.220204 
L 99.156487 470.067627 
L 99.986819 469.07142 
L 100.739275 468.23959 
L 101.576101 467.408102 
L 102.780442 466.411553 
L 103.165384 466.08979 
L 104.754666 464.978655 
L 105.484779 464.583516 
L 106.343948 464.048279 
L 107.933231 463.288368 
L 109.442219 462.755479 
L 109.522513 462.719226 
L 111.111796 462.124981 
L 112.701078 461.653905 
L 114.29036 461.250722 
L 115.695431 460.927442 
L 115.879643 460.870245 
L 117.468925 460.384133 
L 119.058207 459.987766 
L 120.64749 459.700953 
L 122.236772 459.54103 
L 123.826055 459.531711 
L 125.415337 459.702333 
L 127.004619 460.079621 
L 128.593902 460.693516 
L 129.054975 460.927442 
L 130.183184 461.485539 
L 131.772467 462.695861 
L 131.837474 462.755479 
L 133.361749 464.583516 
L 133.361749 464.583516 
L 134.499102 466.411553 
L 134.951031 467.592466 
L 135.26685 468.23959 
L 135.568992 470.067627 
L 135.217678 471.895664 
L 134.951031 472.403071 
L 134.309361 473.723701 
L 133.361749 474.902647 
L 132.844909 475.551738 
L 131.772467 476.55448 
L 130.831423 477.379775 
L 130.183184 477.87226 
L 128.593902 478.984803 
L 128.268952 479.207812 
L 127.004619 480.051982 
L 125.415337 480.943563 
L 125.248917 481.035849 
L 123.826055 481.908667 
L 122.236772 482.667003 
L 121.76018 482.863886 
L 120.64749 483.445298 
L 119.058207 484.075553 
L 117.468925 484.513165 
L 116.503762 484.691924 
L 115.879643 484.863269 
L 114.29036 485.096886 
L 112.701078 485.136066 
L 111.111796 484.993814 
z
" clip-path="url(#p5e872d55bc)" style="fill: #e4e4f3"/>
    <path d="M 111.111796 484.993814 
L 112.701078 485.136066 
L 114.29036 485.096886 
L 115.879643 484.863269 
L 116.503762 484.691924 
L 117.468925 484.513165 
L 119.058207 484.075553 
L 120.64749 483.445298 
L 121.76018 482.863886 
L 122.236772 482.667003 
L 123.826055 481.908667 
L 125.248917 481.035849 
L 125.415337 480.943563 
L 127.004619 480.051982 
L 128.268952 479.207812 
L 128.593902 478.984803 
L 130.183184 477.87226 
L 130.831423 477.379775 
L 131.772467 476.55448 
L 132.844909 475.551738 
L 133.361749 474.902647 
L 134.309361 473.723701 
L 134.951031 472.403071 
L 135.217678 471.895664 
L 135.568992 470.067627 
L 135.26685 468.23959 
L 134.951031 467.592466 
L 134.499102 466.411553 
L 133.361749 464.583516 
L 133.361749 464.583516 
L 131.837474 462.755479 
L 131.772467 462.695861 
L 130.183184 461.485539 
L 129.054975 460.927442 
L 128.593902 460.693516 
L 127.004619 460.079621 
L 125.415337 459.702333 
L 123.826055 459.531711 
L 122.236772 459.54103 
L 120.64749 459.700953 
L 119.058207 459.987766 
L 117.468925 460.384133 
L 115.879643 460.870245 
L 115.695431 460.927442 
L 114.29036 461.250722 
L 112.701078 461.653905 
L 111.111796 462.124981 
L 109.522513 462.719226 
L 109.442219 462.755479 
L 107.933231 463.288368 
L 106.343948 464.048279 
L 105.484779 464.583516 
L 104.754666 464.978655 
L 103.165384 466.08979 
L 102.780442 466.411553 
L 101.576101 467.408102 
L 100.739275 468.23959 
L 99.986819 469.07142 
L 99.156487 470.067627 
L 98.397537 471.220204 
L 97.941903 471.895664 
L 97.054974 473.723701 
L 96.808254 474.560916 
L 96.454102 475.551738 
L 96.196643 477.379775 
L 96.390718 479.207812 
L 96.808254 480.174534 
L 97.294201 481.035849 
L 98.397537 482.018766 
L 99.986819 482.712865 
L 100.679919 482.863886 
L 101.576101 483.068233 
L 103.165384 483.328114 
L 104.754666 483.609799 
L 106.343948 483.96493 
L 107.933231 484.349928 
L 109.522513 484.681629 
L 109.588789 484.691924 
z
M 110.323264 482.863886 
L 109.522513 482.67496 
L 107.933231 482.206363 
L 106.343948 481.72029 
L 104.754666 481.308617 
L 103.494167 481.035849 
L 103.165384 480.966314 
L 101.576101 480.545469 
L 99.986819 479.679471 
L 99.505398 479.207812 
L 98.717684 477.379775 
L 98.747277 475.551738 
L 99.259424 473.723701 
L 99.986819 472.33632 
L 100.211749 471.895664 
L 101.570858 470.067627 
L 101.576101 470.061774 
L 103.165384 468.461699 
L 103.429755 468.23959 
L 104.754666 467.200616 
L 106.073045 466.411553 
L 106.343948 466.240973 
L 107.933231 465.438733 
L 109.522513 464.836928 
L 110.325803 464.583516 
L 111.111796 464.296849 
L 112.701078 463.773276 
L 114.29036 463.290087 
L 115.879643 462.846153 
L 116.224679 462.755479 
L 117.468925 462.349948 
L 119.058207 461.943793 
L 120.64749 461.68471 
L 122.236772 461.594444 
L 123.826055 461.69936 
L 125.415337 462.026417 
L 127.004619 462.609696 
L 127.29707 462.755479 
L 128.593902 463.441825 
L 129.97001 464.583516 
L 130.183184 464.844439 
L 131.243356 466.411553 
L 131.772467 468.108746 
L 131.819542 468.23959 
L 131.98152 470.067627 
L 131.772467 471.0741 
L 131.638482 471.895664 
L 130.816369 473.723701 
L 130.183184 474.525067 
L 129.427464 475.551738 
L 128.593902 476.359221 
L 127.516582 477.379775 
L 127.004619 477.790451 
L 125.415337 478.989174 
L 125.103747 479.207812 
L 123.826055 480.091919 
L 122.236772 480.958576 
L 122.074781 481.035849 
L 120.64749 481.811542 
L 119.058207 482.433603 
L 117.468925 482.863886 
L 117.468925 482.863886 
L 115.879643 483.230134 
L 114.29036 483.377012 
L 112.701078 483.3223 
L 111.111796 483.070136 
z
" clip-path="url(#p5e872d55bc)" style="fill: #cbcbf5"/>
    <path d="M 111.111796 483.070136 
L 112.701078 483.3223 
L 114.29036 483.377012 
L 115.879643 483.230134 
L 117.468925 482.863886 
L 117.468925 482.863886 
L 119.058207 482.433603 
L 120.64749 481.811542 
L 122.074781 481.035849 
L 122.236772 480.958576 
L 123.826055 480.091919 
L 125.103747 479.207812 
L 125.415337 478.989174 
L 127.004619 477.790451 
L 127.516582 477.379775 
L 128.593902 476.359221 
L 129.427464 475.551738 
L 130.183184 474.525067 
L 130.816369 473.723701 
L 131.638482 471.895664 
L 131.772467 471.0741 
L 131.98152 470.067627 
L 131.819542 468.23959 
L 131.772467 468.108746 
L 131.243356 466.411553 
L 130.183184 464.844439 
L 129.97001 464.583516 
L 128.593902 463.441825 
L 127.29707 462.755479 
L 127.004619 462.609696 
L 125.415337 462.026417 
L 123.826055 461.69936 
L 122.236772 461.594444 
L 120.64749 461.68471 
L 119.058207 461.943793 
L 117.468925 462.349948 
L 116.224679 462.755479 
L 115.879643 462.846153 
L 114.29036 463.290087 
L 112.701078 463.773276 
L 111.111796 464.296849 
L 110.325803 464.583516 
L 109.522513 464.836928 
L 107.933231 465.438733 
L 106.343948 466.240973 
L 106.073045 466.411553 
L 104.754666 467.200616 
L 103.429755 468.23959 
L 103.165384 468.461699 
L 101.576101 470.061774 
L 101.570858 470.067627 
L 100.211749 471.895664 
L 99.986819 472.33632 
L 99.259424 473.723701 
L 98.747277 475.551738 
L 98.717684 477.379775 
L 99.505398 479.207812 
L 99.986819 479.679471 
L 101.576101 480.545469 
L 103.165384 480.966314 
L 103.494167 481.035849 
L 104.754666 481.308617 
L 106.343948 481.72029 
L 107.933231 482.206363 
L 109.522513 482.67496 
L 110.323264 482.863886 
z
M 109.77795 481.035849 
L 109.522513 480.94486 
L 107.933231 480.327687 
L 106.343948 479.745871 
L 104.754666 479.263903 
L 104.559138 479.207812 
L 103.165384 478.70702 
L 101.576101 477.651124 
L 101.344365 477.379775 
L 100.877702 475.551738 
L 101.247308 473.723701 
L 101.576101 473.09434 
L 102.220589 471.895664 
L 103.165384 470.73192 
L 103.77944 470.067627 
L 104.754666 469.218812 
L 106.154329 468.23959 
L 106.343948 468.115841 
L 107.933231 467.284787 
L 109.522513 466.627184 
L 110.100687 466.411553 
L 111.111796 466.028432 
L 112.701078 465.451245 
L 114.29036 464.902768 
L 115.263181 464.583516 
L 115.879643 464.357279 
L 117.468925 463.840836 
L 119.058207 463.465384 
L 120.64749 463.255065 
L 122.236772 463.237605 
L 123.826055 463.443667 
L 125.415337 463.910908 
L 126.777912 464.583516 
L 127.004619 464.716041 
L 128.593902 466.127663 
L 128.829827 466.411553 
L 129.663465 468.23959 
L 129.830676 470.067627 
L 129.498531 471.895664 
L 128.593902 473.723701 
L 128.593902 473.723701 
L 127.268881 475.551738 
L 127.004619 475.815385 
L 125.415337 477.340545 
L 125.372343 477.379775 
L 123.826055 478.605034 
L 122.899608 479.207812 
L 122.236772 479.639441 
L 120.64749 480.484922 
L 119.232419 481.035849 
L 119.058207 481.114432 
L 117.468925 481.629443 
L 115.879643 481.911276 
L 114.29036 481.981748 
L 112.701078 481.842176 
L 111.111796 481.488768 
z
" clip-path="url(#p5e872d55bc)" style="fill: #b1b1f6"/>
    <path d="M 111.111796 481.488768 
L 112.701078 481.842176 
L 114.29036 481.981748 
L 115.879643 481.911276 
L 117.468925 481.629443 
L 119.058207 481.114432 
L 119.232419 481.035849 
L 120.64749 480.484922 
L 122.236772 479.639441 
L 122.899608 479.207812 
L 123.826055 478.605034 
L 125.372343 477.379775 
L 125.415337 477.340545 
L 127.004619 475.815385 
L 127.268881 475.551738 
L 128.593902 473.723701 
L 128.593902 473.723701 
L 129.498531 471.895664 
L 129.830676 470.067627 
L 129.663465 468.23959 
L 128.829827 466.411553 
L 128.593902 466.127663 
L 127.004619 464.716041 
L 126.777912 464.583516 
L 125.415337 463.910908 
L 123.826055 463.443667 
L 122.236772 463.237605 
L 120.64749 463.255065 
L 119.058207 463.465384 
L 117.468925 463.840836 
L 115.879643 464.357279 
L 115.263181 464.583516 
L 114.29036 464.902768 
L 112.701078 465.451245 
L 111.111796 466.028432 
L 110.100687 466.411553 
L 109.522513 466.627184 
L 107.933231 467.284787 
L 106.343948 468.115841 
L 106.154329 468.23959 
L 104.754666 469.218812 
L 103.77944 470.067627 
L 103.165384 470.73192 
L 102.220589 471.895664 
L 101.576101 473.09434 
L 101.247308 473.723701 
L 100.877702 475.551738 
L 101.344365 477.379775 
L 101.576101 477.651124 
L 103.165384 478.70702 
L 104.559138 479.207812 
L 104.754666 479.263903 
L 106.343948 479.745871 
L 107.933231 480.327687 
L 109.522513 480.94486 
L 109.77795 481.035849 
z
M 109.005198 479.207812 
L 107.933231 478.623542 
L 106.343948 477.885333 
L 105.098425 477.379775 
L 104.754666 477.155847 
L 103.165384 475.60634 
L 103.133442 475.551738 
L 103.165384 474.400689 
L 103.184301 473.723701 
L 104.20387 471.895664 
L 104.754666 471.299651 
L 106.085389 470.067627 
L 106.343948 469.882034 
L 107.933231 468.950294 
L 109.341704 468.23959 
L 109.522513 468.158912 
L 111.111796 467.477038 
L 112.701078 466.814735 
L 113.673866 466.411553 
L 114.29036 466.158941 
L 115.879643 465.538277 
L 117.468925 465.036664 
L 119.058207 464.683256 
L 119.98617 464.583516 
L 120.64749 464.499817 
L 122.236772 464.550894 
L 122.406129 464.583516 
L 123.826055 464.859388 
L 125.415337 465.500975 
L 126.724702 466.411553 
L 127.004619 466.721169 
L 127.98259 468.23959 
L 128.292892 470.067627 
L 128.00313 471.895664 
L 127.146877 473.723701 
L 127.004619 473.912619 
L 125.795101 475.551738 
L 125.415337 475.929611 
L 123.826055 477.379775 
L 123.826055 477.379775 
L 122.236772 478.53189 
L 121.031658 479.207812 
L 120.64749 479.426465 
L 119.058207 480.123054 
L 117.468925 480.575161 
L 115.879643 480.808974 
L 114.29036 480.82219 
L 112.701078 480.598573 
L 111.111796 480.127245 
L 109.522513 479.442966 
z
" clip-path="url(#p5e872d55bc)" style="fill: #9898f7"/>
    <path d="M 109.522513 479.442966 
L 111.111796 480.127245 
L 112.701078 480.598573 
L 114.29036 480.82219 
L 115.879643 480.808974 
L 117.468925 480.575161 
L 119.058207 480.123054 
L 120.64749 479.426465 
L 121.031658 479.207812 
L 122.236772 478.53189 
L 123.826055 477.379775 
L 123.826055 477.379775 
L 125.415337 475.929611 
L 125.795101 475.551738 
L 127.004619 473.912619 
L 127.146877 473.723701 
L 128.00313 471.895664 
L 128.292892 470.067627 
L 127.98259 468.23959 
L 127.004619 466.721169 
L 126.724702 466.411553 
L 125.415337 465.500975 
L 123.826055 464.859388 
L 122.406129 464.583516 
L 122.236772 464.550894 
L 120.64749 464.499817 
L 119.98617 464.583516 
L 119.058207 464.683256 
L 117.468925 465.036664 
L 115.879643 465.538277 
L 114.29036 466.158941 
L 113.673866 466.411553 
L 112.701078 466.814735 
L 111.111796 467.477038 
L 109.522513 468.158912 
L 109.341704 468.23959 
L 107.933231 468.950294 
L 106.343948 469.882034 
L 106.085389 470.067627 
L 104.754666 471.299651 
L 104.20387 471.895664 
L 103.184301 473.723701 
L 103.165384 474.400689 
L 103.133442 475.551738 
L 103.165384 475.60634 
L 104.754666 477.155847 
L 105.098425 477.379775 
L 106.343948 477.885333 
L 107.933231 478.623542 
L 109.005198 479.207812 
z
M 112.498232 479.207812 
L 111.111796 478.570906 
L 109.522513 477.600568 
L 109.148552 477.379775 
L 107.933231 476.290967 
L 106.92582 475.551738 
L 106.343948 474.196151 
L 106.166251 473.723701 
L 106.343948 473.373129 
L 107.094129 471.895664 
L 107.933231 471.222724 
L 109.405825 470.067627 
L 109.522513 470.005266 
L 111.111796 469.11701 
L 112.701078 468.23959 
L 112.701078 468.23959 
L 114.29036 467.462184 
L 115.879643 466.785542 
L 116.968724 466.411553 
L 117.468925 466.237432 
L 119.058207 465.868688 
L 120.64749 465.73638 
L 122.236772 465.876974 
L 123.826055 466.34482 
L 123.96239 466.411553 
L 125.415337 467.393598 
L 126.172275 468.23959 
L 126.768162 470.067627 
L 126.568763 471.895664 
L 125.757725 473.723701 
L 125.415337 474.176366 
L 124.346753 475.551738 
L 123.826055 476.046323 
L 122.236772 477.361589 
L 122.210654 477.379775 
L 120.64749 478.338212 
L 119.058207 479.038927 
L 118.469966 479.207812 
L 117.468925 479.504972 
L 115.879643 479.706186 
L 114.29036 479.636471 
L 112.701078 479.281628 
z
" clip-path="url(#p5e872d55bc)" style="fill: #7d7df9"/>
    <path d="M 112.701078 479.281628 
L 114.29036 479.636471 
L 115.879643 479.706186 
L 117.468925 479.504972 
L 118.469966 479.207812 
L 119.058207 479.038927 
L 120.64749 478.338212 
L 122.210654 477.379775 
L 122.236772 477.361589 
L 123.826055 476.046323 
L 124.346753 475.551738 
L 125.415337 474.176366 
L 125.757725 473.723701 
L 126.568763 471.895664 
L 126.768162 470.067627 
L 126.172275 468.23959 
L 125.415337 467.393598 
L 123.96239 466.411553 
L 123.826055 466.34482 
L 122.236772 465.876974 
L 120.64749 465.73638 
L 119.058207 465.868688 
L 117.468925 466.237432 
L 116.968724 466.411553 
L 115.879643 466.785542 
L 114.29036 467.462184 
L 112.701078 468.23959 
L 112.701078 468.23959 
L 111.111796 469.11701 
L 109.522513 470.005266 
L 109.405825 470.067627 
L 107.933231 471.222724 
L 107.094129 471.895664 
L 106.343948 473.373129 
L 106.166251 473.723701 
L 106.343948 474.196151 
L 106.92582 475.551738 
L 107.933231 476.290967 
L 109.148552 477.379775 
L 109.522513 477.600568 
L 111.111796 478.570906 
L 112.498232 479.207812 
z
M 111.316398 477.379775 
L 111.111796 477.18974 
L 109.522513 475.551738 
L 109.522513 475.551738 
L 108.841606 473.723701 
L 109.522513 472.227024 
L 109.651357 471.895664 
L 111.111796 470.599058 
L 111.68051 470.067627 
L 112.701078 469.439317 
L 114.29036 468.496449 
L 114.768582 468.23959 
L 115.879643 467.725942 
L 117.468925 467.156517 
L 119.058207 466.804252 
L 120.64749 466.714811 
L 122.236772 466.953362 
L 123.826055 467.635668 
L 124.608058 468.23959 
L 125.415337 469.62917 
L 125.593434 470.067627 
L 125.507428 471.895664 
L 125.415337 472.101337 
L 124.709912 473.723701 
L 123.826055 474.851218 
L 123.228072 475.551738 
L 122.236772 476.400562 
L 120.83044 477.379775 
L 120.64749 477.491949 
L 119.058207 478.217214 
L 117.468925 478.659699 
L 115.879643 478.817962 
L 114.29036 478.658981 
L 112.701078 478.138887 
z
" clip-path="url(#p5e872d55bc)" style="fill: #6565fa"/>
    <path d="M 112.701078 478.138887 
L 114.29036 478.658981 
L 115.879643 478.817962 
L 117.468925 478.659699 
L 119.058207 478.217214 
L 120.64749 477.491949 
L 120.83044 477.379775 
L 122.236772 476.400562 
L 123.228072 475.551738 
L 123.826055 474.851218 
L 124.709912 473.723701 
L 125.415337 472.101337 
L 125.507428 471.895664 
L 125.593434 470.067627 
L 125.415337 469.62917 
L 124.608058 468.23959 
L 123.826055 467.635668 
L 122.236772 466.953362 
L 120.64749 466.714811 
L 119.058207 466.804252 
L 117.468925 467.156517 
L 115.879643 467.725942 
L 114.768582 468.23959 
L 114.29036 468.496449 
L 112.701078 469.439317 
L 111.68051 470.067627 
L 111.111796 470.599058 
L 109.651357 471.895664 
L 109.522513 472.227024 
L 108.841606 473.723701 
L 109.522513 475.551738 
L 109.522513 475.551738 
L 111.111796 477.18974 
L 111.316398 477.379775 
z
M 115.128811 477.379775 
L 114.29036 477.142578 
L 112.701078 476.07842 
L 112.152542 475.551738 
L 111.617529 473.723701 
L 112.343595 471.895664 
L 112.701078 471.55331 
L 114.29036 470.067627 
L 114.29036 470.067627 
L 115.879643 469.169072 
L 117.468925 468.501981 
L 118.576477 468.23959 
L 119.058207 468.138782 
L 120.64749 468.13746 
L 121.084052 468.23959 
L 122.236772 468.650205 
L 123.754665 470.067627 
L 123.826055 470.569101 
L 123.952766 471.895664 
L 123.826055 472.202461 
L 123.174869 473.723701 
L 122.236772 474.822645 
L 121.503698 475.551738 
L 120.64749 476.158119 
L 119.058207 476.973996 
L 117.724719 477.379775 
L 117.468925 477.447512 
L 115.879643 477.516459 
z
" clip-path="url(#p5e872d55bc)" style="fill: #4a4afb"/>
    <path d="M 115.879643 477.516459 
L 117.468925 477.447512 
L 117.724719 477.379775 
L 119.058207 476.973996 
L 120.64749 476.158119 
L 121.503698 475.551738 
L 122.236772 474.822645 
L 123.174869 473.723701 
L 123.826055 472.202461 
L 123.952766 471.895664 
L 123.826055 470.569101 
L 123.754665 470.067627 
L 122.236772 468.650205 
L 121.084052 468.23959 
L 120.64749 468.13746 
L 119.058207 468.138782 
L 118.576477 468.23959 
L 117.468925 468.501981 
L 115.879643 469.169072 
L 114.29036 470.067627 
L 114.29036 470.067627 
L 112.701078 471.55331 
L 112.343595 471.895664 
L 111.617529 473.723701 
L 112.152542 475.551738 
L 112.701078 476.07842 
L 114.29036 477.142578 
L 115.128811 477.379775 
z
M 115.274047 475.551738 
L 114.29036 474.287674 
L 114.039531 473.723701 
L 114.29036 473.071106 
L 114.797398 471.895664 
L 115.879643 471.00304 
L 117.413492 470.067627 
L 117.468925 470.044613 
L 119.058207 469.759624 
L 120.64749 469.954504 
L 120.879287 470.067627 
L 122.056019 471.895664 
L 121.321886 473.723701 
L 120.64749 474.385878 
L 119.058207 475.551738 
L 119.058207 475.551738 
L 117.468925 475.915215 
L 115.879643 475.800609 
z
" clip-path="url(#p5e872d55bc)" style="fill: #2a2afd"/>
    <path d="M 115.879643 475.800609 
L 117.468925 475.915215 
L 119.058207 475.551738 
L 119.058207 475.551738 
L 120.64749 474.385878 
L 121.321886 473.723701 
L 122.056019 471.895664 
L 120.879287 470.067627 
L 120.64749 469.954504 
L 119.058207 469.759624 
L 117.468925 470.044613 
L 117.413492 470.067627 
L 115.879643 471.00304 
L 114.797398 471.895664 
L 114.29036 473.071106 
L 114.039531 473.723701 
L 114.29036 474.287674 
L 115.274047 475.551738 
z
" clip-path="url(#p5e872d55bc)" style="fill: #0d0dfe"/>
   </g>
   <g id="QuadContourSet_2">
    <path d="M 97.519315 485.226688 
L 100.47392 485.987705 
L 103.428525 486.281574 
L 106.383129 486.37957 
L 109.337734 486.340865 
L 112.292339 486.173051 
L 115.246943 485.837645 
L 118.201548 485.266986 
L 119.377083 484.936795 
L 121.156152 484.648714 
L 124.110757 483.867381 
L 127.020199 482.488357 
L 127.065362 482.471605 
L 130.019966 481.233447 
L 132.126643 480.03992 
L 132.974571 479.568789 
L 135.929176 477.754166 
L 136.196884 477.591483 
L 138.88378 475.80611 
L 139.814348 475.143046 
L 141.838385 473.300465 
L 142.512917 472.694608 
L 144.513033 470.246171 
L 144.792989 469.744336 
L 146.137806 467.797734 
L 147.263124 465.349297 
L 147.747594 463.82904 
L 148.117881 462.900859 
L 148.941887 460.452422 
L 149.865431 458.003985 
L 150.702199 456.279046 
L 151.090942 455.555548 
L 152.460393 453.10711 
L 153.622042 450.658673 
L 153.656803 450.576448 
L 154.792926 448.210236 
L 155.862705 445.761799 
L 156.611408 444.063387 
L 157.182001 443.313362 
L 158.911375 440.864924 
L 159.566013 439.695242 
L 160.359211 438.416487 
L 161.453049 435.96805 
L 162.245149 433.519613 
L 162.520617 432.534383 
L 163.068658 431.071175 
L 164.101257 428.622738 
L 165.16642 426.174301 
L 165.475222 425.168302 
L 165.852284 423.725864 
L 166.109211 421.277426 
L 166.119166 418.828989 
L 166.021858 416.380552 
L 165.914294 413.932115 
L 165.873941 411.483677 
L 165.926127 409.03524 
L 166.025568 406.586803 
L 166.120027 404.138366 
L 166.179689 401.689928 
L 166.156681 399.241491 
L 165.916447 396.793054 
L 165.475222 395.19583 
L 165.301423 394.344617 
L 164.462086 391.896179 
L 163.369582 389.447742 
L 162.520617 387.446022 
L 162.360074 386.999305 
L 161.696965 384.550868 
L 161.079728 382.10243 
L 160.203266 379.653993 
L 159.566013 378.514845 
L 157.927989 377.205556 
L 156.611408 376.228598 
L 155.052303 374.757119 
L 153.656803 373.205983 
L 153.142352 372.308682 
L 151.265213 369.860244 
L 150.702199 369.330898 
L 147.747594 367.694475 
L 147.087392 367.411807 
L 144.792989 366.429635 
L 142.662417 364.96337 
L 141.838385 364.335711 
L 139.267172 362.514933 
L 138.88378 362.215377 
L 135.929176 360.301226 
L 135.69615 360.066495 
L 133.13416 357.618058 
L 132.974571 357.493788 
L 130.019966 355.479294 
L 129.422798 355.169621 
L 127.065362 353.844131 
L 124.677419 352.721184 
L 124.110757 352.426166 
L 121.156152 350.980272 
L 119.651703 350.272746 
L 118.201548 349.565233 
L 115.246943 348.203743 
L 113.895488 347.824309 
L 112.292339 347.360848 
L 109.337734 347.0153 
L 106.383129 347.223193 
L 105.180711 347.824309 
L 103.428525 348.725618 
L 102.161004 350.272746 
L 100.47392 352.658254 
L 100.440461 352.721184 
L 99.113355 355.169621 
L 97.819893 357.618058 
L 97.519315 358.142788 
L 96.434878 360.066495 
L 95.23895 362.514933 
L 94.564711 364.22978 
L 94.227761 364.96337 
L 93.324257 367.411807 
L 92.720364 369.860244 
L 92.326603 372.308682 
L 92.065543 374.757119 
L 91.876963 377.205556 
L 91.727525 379.653993 
L 91.610106 382.10243 
L 91.610106 382.10243 
L 91.465416 384.550868 
L 91.374 386.999305 
L 91.293731 389.447742 
L 91.19595 391.896179 
L 91.105527 394.344617 
L 91.08678 396.793054 
L 91.18919 399.241491 
L 91.400163 401.689928 
L 91.610106 403.865771 
L 91.624154 404.138366 
L 91.716187 406.586803 
L 91.779283 409.03524 
L 91.854769 411.483677 
L 91.982729 413.932115 
L 92.167558 416.380552 
L 92.383934 418.828989 
L 92.601682 421.277426 
L 92.791444 423.725864 
L 92.920591 426.174301 
L 92.963876 428.622738 
L 92.921035 431.071175 
L 92.817568 433.519613 
L 92.687606 435.96805 
L 92.555623 438.416487 
L 92.426328 440.864924 
L 92.28272 443.313362 
L 92.095874 445.761799 
L 91.848911 448.210236 
L 91.610106 450.178516 
L 91.490227 450.658673 
L 90.847383 453.10711 
L 90.302716 455.555548 
L 89.855226 458.003985 
L 89.483163 460.452422 
L 89.168249 462.900859 
L 88.906388 465.349297 
L 88.70717 467.797734 
L 88.655502 468.854025 
L 88.471525 470.246171 
L 88.467973 472.694608 
L 88.655502 473.801653 
L 88.757074 475.143046 
L 89.251427 477.591483 
L 90.430831 480.03992 
L 91.610106 481.425873 
L 92.600087 482.488357 
L 94.564711 484.018446 
L 96.910893 484.936795 
z
M 96.152505 480.03992 
L 94.564711 478.588035 
L 93.736686 477.591483 
L 92.521593 475.143046 
L 92.023785 472.694608 
L 91.902199 470.246171 
L 92.012121 467.797734 
L 92.288478 465.349297 
L 92.70008 462.900859 
L 93.232527 460.452422 
L 93.880767 458.003985 
L 94.564711 455.758216 
L 94.612484 455.555548 
L 95.151719 453.10711 
L 95.672568 450.658673 
L 96.120026 448.210236 
L 96.472733 445.761799 
L 96.75469 443.313362 
L 97.011539 440.864924 
L 97.278837 438.416487 
L 97.519315 436.325843 
L 97.549397 435.96805 
L 97.737984 433.519613 
L 97.887668 431.071175 
L 97.965939 428.622738 
L 97.953243 426.174301 
L 97.860856 423.725864 
L 97.731858 421.277426 
L 97.616747 418.828989 
L 97.541756 416.380552 
L 97.519315 415.137756 
L 97.48808 413.932115 
L 97.424978 411.483677 
L 97.328179 409.03524 
L 97.193014 406.586803 
L 97.029945 404.138366 
L 96.854225 401.689928 
L 96.69926 399.241491 
L 96.616461 396.793054 
L 96.641713 394.344617 
L 96.767518 391.896179 
L 96.952682 389.447742 
L 97.154269 386.999305 
L 97.354972 384.550868 
L 97.519315 382.670508 
L 97.561895 382.10243 
L 97.801148 379.653993 
L 98.163252 377.205556 
L 98.695063 374.757119 
L 99.43931 372.308682 
L 100.460004 369.860244 
L 100.47392 369.833011 
L 102.082393 367.411807 
L 103.428525 365.746118 
L 104.389393 364.96337 
L 106.383129 363.441479 
L 109.337734 362.694879 
L 112.292339 363.167439 
L 115.246943 363.914153 
L 117.733784 364.96337 
L 118.201548 365.164934 
L 121.099856 367.411807 
L 121.156152 367.461807 
L 123.419878 369.860244 
L 124.110757 370.796034 
L 125.100926 372.308682 
L 126.557553 374.757119 
L 127.065362 375.541575 
L 128.508053 377.205556 
L 130.019966 378.7364 
L 131.185836 379.653993 
L 132.974571 381.245367 
L 133.887082 382.10243 
L 135.91365 384.550868 
L 135.929176 384.571814 
L 138.119007 386.999305 
L 138.88378 387.800073 
L 140.551639 389.447742 
L 141.838385 390.964232 
L 142.487472 391.896179 
L 143.846451 394.344617 
L 144.792989 396.590888 
L 144.911371 396.793054 
L 146.078662 399.241491 
L 146.856974 401.689928 
L 147.31742 404.138366 
L 147.588176 406.586803 
L 147.747594 408.883049 
L 147.759845 409.03524 
L 147.843704 411.483677 
L 147.755422 413.932115 
L 147.747594 414.003158 
L 147.51342 416.380552 
L 147.174354 418.828989 
L 146.860612 421.277426 
L 146.646527 423.725864 
L 146.503874 426.174301 
L 146.33821 428.622738 
L 146.044698 431.071175 
L 145.55542 433.519613 
L 144.861594 435.96805 
L 144.792989 436.16257 
L 144.136475 438.416487 
L 143.334126 440.864924 
L 142.414782 443.313362 
L 141.838385 444.613564 
L 141.444767 445.761799 
L 140.528072 448.210236 
L 139.592487 450.658673 
L 138.88378 452.620549 
L 138.748628 453.10711 
L 138.216794 455.555548 
L 137.798542 458.003985 
L 137.432229 460.452422 
L 137.054147 462.900859 
L 136.547926 465.349297 
L 135.929176 467.153706 
L 135.783914 467.797734 
L 134.822414 470.246171 
L 132.974571 472.694608 
L 132.974571 472.694608 
L 130.754959 475.143046 
L 130.019966 475.724747 
L 127.47084 477.591483 
L 127.065362 477.85238 
L 124.110757 479.488343 
L 122.626266 480.03992 
L 121.156152 480.666151 
L 118.201548 481.516339 
L 115.246943 482.029886 
L 112.292339 482.328593 
L 109.337734 482.464019 
L 106.383129 482.470875 
L 103.428525 482.339569 
L 100.47392 481.971399 
L 97.519315 480.976221 
z
" clip-path="url(#p5e872d55bc)" style="fill: #e0eee0; fill-opacity: 0.5"/>
    <path d="M 97.519315 480.976221 
L 100.47392 481.971399 
L 103.428525 482.339569 
L 106.383129 482.470875 
L 109.337734 482.464019 
L 112.292339 482.328593 
L 115.246943 482.029886 
L 118.201548 481.516339 
L 121.156152 480.666151 
L 122.626266 480.03992 
L 124.110757 479.488343 
L 127.065362 477.85238 
L 127.47084 477.591483 
L 130.019966 475.724747 
L 130.754959 475.143046 
L 132.974571 472.694608 
L 132.974571 472.694608 
L 134.822414 470.246171 
L 135.783914 467.797734 
L 135.929176 467.153706 
L 136.547926 465.349297 
L 137.054147 462.900859 
L 137.432229 460.452422 
L 137.798542 458.003985 
L 138.216794 455.555548 
L 138.748628 453.10711 
L 138.88378 452.620549 
L 139.592487 450.658673 
L 140.528072 448.210236 
L 141.444767 445.761799 
L 141.838385 444.613564 
L 142.414782 443.313362 
L 143.334126 440.864924 
L 144.136475 438.416487 
L 144.792989 436.16257 
L 144.861594 435.96805 
L 145.55542 433.519613 
L 146.044698 431.071175 
L 146.33821 428.622738 
L 146.503874 426.174301 
L 146.646527 423.725864 
L 146.860612 421.277426 
L 147.174354 418.828989 
L 147.51342 416.380552 
L 147.747594 414.003158 
L 147.755422 413.932115 
L 147.843704 411.483677 
L 147.759845 409.03524 
L 147.747594 408.883049 
L 147.588176 406.586803 
L 147.31742 404.138366 
L 146.856974 401.689928 
L 146.078662 399.241491 
L 144.911371 396.793054 
L 144.792989 396.590888 
L 143.846451 394.344617 
L 142.487472 391.896179 
L 141.838385 390.964232 
L 140.551639 389.447742 
L 138.88378 387.800073 
L 138.119007 386.999305 
L 135.929176 384.571814 
L 135.91365 384.550868 
L 133.887082 382.10243 
L 132.974571 381.245367 
L 131.185836 379.653993 
L 130.019966 378.7364 
L 128.508053 377.205556 
L 127.065362 375.541575 
L 126.557553 374.757119 
L 125.100926 372.308682 
L 124.110757 370.796034 
L 123.419878 369.860244 
L 121.156152 367.461807 
L 121.099856 367.411807 
L 118.201548 365.164934 
L 117.733784 364.96337 
L 115.246943 363.914153 
L 112.292339 363.167439 
L 109.337734 362.694879 
L 106.383129 363.441479 
L 104.389393 364.96337 
L 103.428525 365.746118 
L 102.082393 367.411807 
L 100.47392 369.833011 
L 100.460004 369.860244 
L 99.43931 372.308682 
L 98.695063 374.757119 
L 98.163252 377.205556 
L 97.801148 379.653993 
L 97.561895 382.10243 
L 97.519315 382.670508 
L 97.354972 384.550868 
L 97.154269 386.999305 
L 96.952682 389.447742 
L 96.767518 391.896179 
L 96.641713 394.344617 
L 96.616461 396.793054 
L 96.69926 399.241491 
L 96.854225 401.689928 
L 97.029945 404.138366 
L 97.193014 406.586803 
L 97.328179 409.03524 
L 97.424978 411.483677 
L 97.48808 413.932115 
L 97.519315 415.137756 
L 97.541756 416.380552 
L 97.616747 418.828989 
L 97.731858 421.277426 
L 97.860856 423.725864 
L 97.953243 426.174301 
L 97.965939 428.622738 
L 97.887668 431.071175 
L 97.737984 433.519613 
L 97.549397 435.96805 
L 97.519315 436.325843 
L 97.278837 438.416487 
L 97.011539 440.864924 
L 96.75469 443.313362 
L 96.472733 445.761799 
L 96.120026 448.210236 
L 95.672568 450.658673 
L 95.151719 453.10711 
L 94.612484 455.555548 
L 94.564711 455.758216 
L 93.880767 458.003985 
L 93.232527 460.452422 
L 92.70008 462.900859 
L 92.288478 465.349297 
L 92.012121 467.797734 
L 91.902199 470.246171 
L 92.023785 472.694608 
L 92.521593 475.143046 
L 93.736686 477.591483 
L 94.564711 478.588035 
L 96.152505 480.03992 
z
M 102.100271 480.03992 
L 100.47392 479.739464 
L 97.519315 478.334927 
L 96.671736 477.591483 
L 94.922867 475.143046 
L 94.564711 474.053722 
L 94.077324 472.694608 
L 93.781677 470.246171 
L 93.906352 467.797734 
L 94.340106 465.349297 
L 94.564711 464.481798 
L 94.878132 462.900859 
L 95.493451 460.452422 
L 96.240686 458.003985 
L 97.084395 455.555548 
L 97.519315 454.257005 
L 97.89652 453.10711 
L 98.566827 450.658673 
L 99.071076 448.210236 
L 99.407571 445.761799 
L 99.64403 443.313362 
L 99.861064 440.864924 
L 100.11066 438.416487 
L 100.405819 435.96805 
L 100.47392 435.424734 
L 100.690633 433.519613 
L 100.939192 431.071175 
L 101.109406 428.622738 
L 101.159996 426.174301 
L 101.08574 423.725864 
L 100.93461 421.277426 
L 100.789648 418.828989 
L 100.715092 416.380552 
L 100.715119 413.932115 
L 100.744957 411.483677 
L 100.754631 409.03524 
L 100.723873 406.586803 
L 100.663924 404.138366 
L 100.593586 401.689928 
L 100.524615 399.241491 
L 100.47392 396.793054 
L 100.476024 394.344617 
L 100.565018 391.896179 
L 100.749382 389.447742 
L 101.024878 386.999305 
L 101.406934 384.550868 
L 101.944925 382.10243 
L 102.716863 379.653993 
L 103.428525 377.972057 
L 103.968044 377.205556 
L 106.020325 374.757119 
L 106.383129 374.367284 
L 109.337734 373.073002 
L 112.292339 372.888522 
L 115.246943 373.4467 
L 117.13607 374.757119 
L 118.201548 375.597154 
L 119.487485 377.205556 
L 121.156152 379.503373 
L 121.256889 379.653993 
L 122.989883 382.10243 
L 124.110757 383.605277 
L 124.951332 384.550868 
L 127.065362 386.842447 
L 127.219689 386.999305 
L 129.487637 389.447742 
L 130.019966 390.081585 
L 131.356159 391.896179 
L 132.950233 394.344617 
L 132.974571 394.386186 
L 134.677969 396.793054 
L 135.929176 398.936618 
L 136.116235 399.241491 
L 137.361879 401.689928 
L 138.339465 404.138366 
L 138.88378 406.081264 
L 139.019276 406.586803 
L 139.392272 409.03524 
L 139.506591 411.483677 
L 139.441435 413.932115 
L 139.28032 416.380552 
L 139.10465 418.828989 
L 138.979471 421.277426 
L 138.929074 423.725864 
L 138.91351 426.174301 
L 138.88378 427.189418 
L 138.853218 428.622738 
L 138.704617 431.071175 
L 138.442297 433.519613 
L 138.069476 435.96805 
L 137.588095 438.416487 
L 136.982299 440.864924 
L 136.225566 443.313362 
L 135.929176 444.155565 
L 135.427066 445.761799 
L 134.635036 448.210236 
L 133.970926 450.658673 
L 133.554945 453.10711 
L 133.350548 455.555548 
L 133.236509 458.003985 
L 133.112007 460.452422 
L 132.974571 462.014976 
L 132.918131 462.900859 
L 132.625517 465.349297 
L 132.073159 467.797734 
L 131.031823 470.246171 
L 130.019966 471.642445 
L 129.32737 472.694608 
L 127.065362 474.875188 
L 126.761684 475.143046 
L 124.110757 476.959182 
L 122.846859 477.591483 
L 121.156152 478.406114 
L 118.201548 479.363636 
L 115.246943 479.951199 
L 114.525223 480.03992 
L 112.292339 480.40666 
L 109.337734 480.611665 
L 106.383129 480.591136 
L 103.428525 480.329141 
z
" clip-path="url(#p5e872d55bc)" style="fill: #c9e3c9; fill-opacity: 0.5"/>
    <path d="M 103.428525 480.329141 
L 106.383129 480.591136 
L 109.337734 480.611665 
L 112.292339 480.40666 
L 114.525223 480.03992 
L 115.246943 479.951199 
L 118.201548 479.363636 
L 121.156152 478.406114 
L 122.846859 477.591483 
L 124.110757 476.959182 
L 126.761684 475.143046 
L 127.065362 474.875188 
L 129.32737 472.694608 
L 130.019966 471.642445 
L 131.031823 470.246171 
L 132.073159 467.797734 
L 132.625517 465.349297 
L 132.918131 462.900859 
L 132.974571 462.014976 
L 133.112007 460.452422 
L 133.236509 458.003985 
L 133.350548 455.555548 
L 133.554945 453.10711 
L 133.970926 450.658673 
L 134.635036 448.210236 
L 135.427066 445.761799 
L 135.929176 444.155565 
L 136.225566 443.313362 
L 136.982299 440.864924 
L 137.588095 438.416487 
L 138.069476 435.96805 
L 138.442297 433.519613 
L 138.704617 431.071175 
L 138.853218 428.622738 
L 138.88378 427.189418 
L 138.91351 426.174301 
L 138.929074 423.725864 
L 138.979471 421.277426 
L 139.10465 418.828989 
L 139.28032 416.380552 
L 139.441435 413.932115 
L 139.506591 411.483677 
L 139.392272 409.03524 
L 139.019276 406.586803 
L 138.88378 406.081264 
L 138.339465 404.138366 
L 137.361879 401.689928 
L 136.116235 399.241491 
L 135.929176 398.936618 
L 134.677969 396.793054 
L 132.974571 394.386186 
L 132.950233 394.344617 
L 131.356159 391.896179 
L 130.019966 390.081585 
L 129.487637 389.447742 
L 127.219689 386.999305 
L 127.065362 386.842447 
L 124.951332 384.550868 
L 124.110757 383.605277 
L 122.989883 382.10243 
L 121.256889 379.653993 
L 121.156152 379.503373 
L 119.487485 377.205556 
L 118.201548 375.597154 
L 117.13607 374.757119 
L 115.246943 373.4467 
L 112.292339 372.888522 
L 109.337734 373.073002 
L 106.383129 374.367284 
L 106.020325 374.757119 
L 103.968044 377.205556 
L 103.428525 377.972057 
L 102.716863 379.653993 
L 101.944925 382.10243 
L 101.406934 384.550868 
L 101.024878 386.999305 
L 100.749382 389.447742 
L 100.565018 391.896179 
L 100.476024 394.344617 
L 100.47392 396.793054 
L 100.524615 399.241491 
L 100.593586 401.689928 
L 100.663924 404.138366 
L 100.723873 406.586803 
L 100.754631 409.03524 
L 100.744957 411.483677 
L 100.715119 413.932115 
L 100.715092 416.380552 
L 100.789648 418.828989 
L 100.93461 421.277426 
L 101.08574 423.725864 
L 101.159996 426.174301 
L 101.109406 428.622738 
L 100.939192 431.071175 
L 100.690633 433.519613 
L 100.47392 435.424734 
L 100.405819 435.96805 
L 100.11066 438.416487 
L 99.861064 440.864924 
L 99.64403 443.313362 
L 99.407571 445.761799 
L 99.071076 448.210236 
L 98.566827 450.658673 
L 97.89652 453.10711 
L 97.519315 454.257005 
L 97.084395 455.555548 
L 96.240686 458.003985 
L 95.493451 460.452422 
L 94.878132 462.900859 
L 94.564711 464.481798 
L 94.340106 465.349297 
L 93.906352 467.797734 
L 93.781677 470.246171 
L 94.077324 472.694608 
L 94.564711 474.053722 
L 94.922867 475.143046 
L 96.671736 477.591483 
L 97.519315 478.334927 
L 100.47392 479.739464 
L 102.100271 480.03992 
z
M 99.450695 477.591483 
L 97.519315 476.169989 
L 96.673751 475.143046 
L 95.59027 472.694608 
L 95.240881 470.246171 
L 95.321998 467.797734 
L 95.70618 465.349297 
L 96.339032 462.900859 
L 97.189805 460.452422 
L 97.519315 459.586986 
L 98.138177 458.003985 
L 99.147951 455.555548 
L 100.147933 453.10711 
L 100.47392 452.118615 
L 100.995171 450.658673 
L 101.574502 448.210236 
L 101.893568 445.761799 
L 102.068559 443.313362 
L 102.228076 440.864924 
L 102.44815 438.416487 
L 102.74727 435.96805 
L 103.101328 433.519613 
L 103.428525 431.253702 
L 103.455581 431.071175 
L 103.729599 428.622738 
L 103.868903 426.174301 
L 103.857085 423.725864 
L 103.725922 421.277426 
L 103.55229 418.828989 
L 103.428525 416.380552 
L 103.428525 416.380552 
L 103.405066 413.932115 
L 103.428525 412.766282 
L 103.455647 411.483677 
L 103.532102 409.03524 
L 103.605511 406.586803 
L 103.686252 404.138366 
L 103.800412 401.689928 
L 103.959025 399.241491 
L 104.148524 396.793054 
L 104.351326 394.344617 
L 104.577278 391.896179 
L 104.884919 389.447742 
L 105.378753 386.999305 
L 106.183758 384.550868 
L 106.383129 384.136433 
L 108.63653 382.10243 
L 109.337734 381.636033 
L 112.292339 381.106036 
L 115.121639 382.10243 
L 115.246943 382.152347 
L 117.513 384.550868 
L 118.201548 385.251046 
L 119.634767 386.999305 
L 121.156152 388.680014 
L 121.77881 389.447742 
L 123.848207 391.896179 
L 124.110757 392.190079 
L 126.248951 394.344617 
L 127.065362 395.2637 
L 128.123084 396.793054 
L 129.410564 399.241491 
L 130.019966 400.764722 
L 130.430282 401.689928 
L 131.434592 404.138366 
L 132.410766 406.586803 
L 132.974571 408.217884 
L 133.261451 409.03524 
L 133.82633 411.483677 
L 134.082828 413.932115 
L 134.157179 416.380552 
L 134.16874 418.828989 
L 134.218821 421.277426 
L 134.369962 423.725864 
L 134.597102 426.174301 
L 134.787218 428.622738 
L 134.824007 431.071175 
L 134.65557 433.519613 
L 134.283395 435.96805 
L 133.721081 438.416487 
L 132.974571 440.850682 
L 132.970426 440.864924 
L 132.163958 443.313362 
L 131.300207 445.761799 
L 130.532193 448.210236 
L 130.020983 450.658673 
L 130.019966 450.671618 
L 129.865004 453.10711 
L 129.936828 455.555548 
L 130.019966 456.632463 
L 130.132787 458.003985 
L 130.31386 460.452422 
L 130.35093 462.900859 
L 130.13329 465.349297 
L 130.019966 465.794469 
L 129.604097 467.797734 
L 128.584011 470.246171 
L 127.065362 472.272574 
L 126.749716 472.694608 
L 124.110757 474.987059 
L 123.8921 475.143046 
L 121.156152 476.712709 
L 118.792133 477.591483 
L 118.201548 477.813168 
L 115.246943 478.613495 
L 112.292339 479.065565 
L 109.337734 479.240851 
L 106.383129 479.199861 
L 103.428525 478.916977 
L 100.47392 478.153247 
z
" clip-path="url(#p5e872d55bc)" style="fill: #b4d8b4; fill-opacity: 0.5"/>
    <path d="M 100.47392 478.153247 
L 103.428525 478.916977 
L 106.383129 479.199861 
L 109.337734 479.240851 
L 112.292339 479.065565 
L 115.246943 478.613495 
L 118.201548 477.813168 
L 118.792133 477.591483 
L 121.156152 476.712709 
L 123.8921 475.143046 
L 124.110757 474.987059 
L 126.749716 472.694608 
L 127.065362 472.272574 
L 128.584011 470.246171 
L 129.604097 467.797734 
L 130.019966 465.794469 
L 130.13329 465.349297 
L 130.35093 462.900859 
L 130.31386 460.452422 
L 130.132787 458.003985 
L 130.019966 456.632463 
L 129.936828 455.555548 
L 129.865004 453.10711 
L 130.019966 450.671618 
L 130.020983 450.658673 
L 130.532193 448.210236 
L 131.300207 445.761799 
L 132.163958 443.313362 
L 132.970426 440.864924 
L 132.974571 440.850682 
L 133.721081 438.416487 
L 134.283395 435.96805 
L 134.65557 433.519613 
L 134.824007 431.071175 
L 134.787218 428.622738 
L 134.597102 426.174301 
L 134.369962 423.725864 
L 134.218821 421.277426 
L 134.16874 418.828989 
L 134.157179 416.380552 
L 134.082828 413.932115 
L 133.82633 411.483677 
L 133.261451 409.03524 
L 132.974571 408.217884 
L 132.410766 406.586803 
L 131.434592 404.138366 
L 130.430282 401.689928 
L 130.019966 400.764722 
L 129.410564 399.241491 
L 128.123084 396.793054 
L 127.065362 395.2637 
L 126.248951 394.344617 
L 124.110757 392.190079 
L 123.848207 391.896179 
L 121.77881 389.447742 
L 121.156152 388.680014 
L 119.634767 386.999305 
L 118.201548 385.251046 
L 117.513 384.550868 
L 115.246943 382.152347 
L 115.121639 382.10243 
L 112.292339 381.106036 
L 109.337734 381.636033 
L 108.63653 382.10243 
L 106.383129 384.136433 
L 106.183758 384.550868 
L 105.378753 386.999305 
L 104.884919 389.447742 
L 104.577278 391.896179 
L 104.351326 394.344617 
L 104.148524 396.793054 
L 103.959025 399.241491 
L 103.800412 401.689928 
L 103.686252 404.138366 
L 103.605511 406.586803 
L 103.532102 409.03524 
L 103.455647 411.483677 
L 103.428525 412.766282 
L 103.405066 413.932115 
L 103.428525 416.380552 
L 103.428525 416.380552 
L 103.55229 418.828989 
L 103.725922 421.277426 
L 103.857085 423.725864 
L 103.868903 426.174301 
L 103.729599 428.622738 
L 103.455581 431.071175 
L 103.428525 431.253702 
L 103.101328 433.519613 
L 102.74727 435.96805 
L 102.44815 438.416487 
L 102.228076 440.864924 
L 102.068559 443.313362 
L 101.893568 445.761799 
L 101.574502 448.210236 
L 100.995171 450.658673 
L 100.47392 452.118615 
L 100.147933 453.10711 
L 99.147951 455.555548 
L 98.138177 458.003985 
L 97.519315 459.586986 
L 97.189805 460.452422 
L 96.339032 462.900859 
L 95.70618 465.349297 
L 95.321998 467.797734 
L 95.240881 470.246171 
L 95.59027 472.694608 
L 96.673751 475.143046 
L 97.519315 476.169989 
L 99.450695 477.591483 
z
M 103.43356 477.591483 
L 103.428525 477.59086 
L 100.47392 476.665587 
L 98.486357 475.143046 
L 97.519315 473.768435 
L 96.964935 472.694608 
L 96.463772 470.246171 
L 96.529178 467.797734 
L 96.997768 465.349297 
L 97.519315 463.686289 
L 97.765918 462.900859 
L 98.719976 460.452422 
L 99.877014 458.003985 
L 100.47392 456.771655 
L 101.168193 455.555548 
L 102.417383 453.10711 
L 103.428525 450.658673 
L 103.428525 450.658673 
L 104.124005 448.210236 
L 104.434516 445.761799 
L 104.533831 443.313362 
L 104.619667 440.864924 
L 104.807363 438.416487 
L 105.119137 435.96805 
L 105.516197 433.519613 
L 105.926117 431.071175 
L 106.267815 428.622738 
L 106.383129 427.282815 
L 106.489615 426.174301 
L 106.5629 423.725864 
L 106.508687 421.277426 
L 106.387867 418.828989 
L 106.383129 418.727078 
L 106.281788 416.380552 
L 106.238371 413.932115 
L 106.277778 411.483677 
L 106.383129 409.332001 
L 106.400604 409.03524 
L 106.643502 406.586803 
L 107.012896 404.138366 
L 107.541981 401.689928 
L 108.239675 399.241491 
L 109.071615 396.793054 
L 109.337734 396.030818 
L 110.676337 394.344617 
L 112.292339 392.678386 
L 115.246943 392.614682 
L 118.201548 393.900819 
L 118.654828 394.344617 
L 121.156152 396.751401 
L 121.19381 396.793054 
L 123.313633 399.241491 
L 124.110757 400.279803 
L 124.963008 401.689928 
L 126.105982 404.138366 
L 127.065362 406.484217 
L 127.104724 406.586803 
L 128.102656 409.03524 
L 129.005137 411.483677 
L 129.659532 413.932115 
L 130.019966 416.230427 
L 130.041799 416.380552 
L 130.226535 418.828989 
L 130.348373 421.277426 
L 130.526257 423.725864 
L 130.818448 426.174301 
L 131.158855 428.622738 
L 131.378165 431.071175 
L 131.339776 433.519613 
L 131.013669 435.96805 
L 130.425115 438.416487 
L 130.019966 439.649824 
L 129.613998 440.864924 
L 128.707799 443.313362 
L 127.84605 445.761799 
L 127.187582 448.210236 
L 127.065362 449.053107 
L 126.841793 450.658673 
L 126.825748 453.10711 
L 127.065362 455.465989 
L 127.074176 455.555548 
L 127.490364 458.003985 
L 127.899537 460.452422 
L 128.140617 462.900859 
L 128.081248 465.349297 
L 127.575116 467.797734 
L 127.065362 468.895236 
L 126.484423 470.246171 
L 124.555609 472.694608 
L 124.110757 473.081049 
L 121.220315 475.143046 
L 121.156152 475.179857 
L 118.201548 476.504428 
L 115.246943 477.331227 
L 113.668008 477.591483 
L 112.292339 477.841739 
L 109.337734 478.046824 
L 106.383129 477.974981 
z
" clip-path="url(#p5e872d55bc)" style="fill: #9fce9f; fill-opacity: 0.5"/>
    <path d="M 106.383129 477.974981 
L 109.337734 478.046824 
L 112.292339 477.841739 
L 113.668008 477.591483 
L 115.246943 477.331227 
L 118.201548 476.504428 
L 121.156152 475.179857 
L 121.220315 475.143046 
L 124.110757 473.081049 
L 124.555609 472.694608 
L 126.484423 470.246171 
L 127.065362 468.895236 
L 127.575116 467.797734 
L 128.081248 465.349297 
L 128.140617 462.900859 
L 127.899537 460.452422 
L 127.490364 458.003985 
L 127.074176 455.555548 
L 127.065362 455.465989 
L 126.825748 453.10711 
L 126.841793 450.658673 
L 127.065362 449.053107 
L 127.187582 448.210236 
L 127.84605 445.761799 
L 128.707799 443.313362 
L 129.613998 440.864924 
L 130.019966 439.649824 
L 130.425115 438.416487 
L 131.013669 435.96805 
L 131.339776 433.519613 
L 131.378165 431.071175 
L 131.158855 428.622738 
L 130.818448 426.174301 
L 130.526257 423.725864 
L 130.348373 421.277426 
L 130.226535 418.828989 
L 130.041799 416.380552 
L 130.019966 416.230427 
L 129.659532 413.932115 
L 129.005137 411.483677 
L 128.102656 409.03524 
L 127.104724 406.586803 
L 127.065362 406.484217 
L 126.105982 404.138366 
L 124.963008 401.689928 
L 124.110757 400.279803 
L 123.313633 399.241491 
L 121.19381 396.793054 
L 121.156152 396.751401 
L 118.654828 394.344617 
L 118.201548 393.900819 
L 115.246943 392.614682 
L 112.292339 392.678386 
L 110.676337 394.344617 
L 109.337734 396.030818 
L 109.071615 396.793054 
L 108.239675 399.241491 
L 107.541981 401.689928 
L 107.012896 404.138366 
L 106.643502 406.586803 
L 106.400604 409.03524 
L 106.383129 409.332001 
L 106.277778 411.483677 
L 106.238371 413.932115 
L 106.281788 416.380552 
L 106.383129 418.727078 
L 106.387867 418.828989 
L 106.508687 421.277426 
L 106.5629 423.725864 
L 106.489615 426.174301 
L 106.383129 427.282815 
L 106.267815 428.622738 
L 105.926117 431.071175 
L 105.516197 433.519613 
L 105.119137 435.96805 
L 104.807363 438.416487 
L 104.619667 440.864924 
L 104.533831 443.313362 
L 104.434516 445.761799 
L 104.124005 448.210236 
L 103.428525 450.658673 
L 103.428525 450.658673 
L 102.417383 453.10711 
L 101.168193 455.555548 
L 100.47392 456.771655 
L 99.877014 458.003985 
L 98.719976 460.452422 
L 97.765918 462.900859 
L 97.519315 463.686289 
L 96.997768 465.349297 
L 96.529178 467.797734 
L 96.463772 470.246171 
L 96.964935 472.694608 
L 97.519315 473.768435 
L 98.486357 475.143046 
L 100.47392 476.665587 
L 103.428525 477.59086 
L 103.43356 477.591483 
z
M 100.107383 475.143046 
L 98.166156 472.694608 
L 97.521945 470.246171 
L 97.570112 467.797734 
L 98.057707 465.349297 
L 98.88488 462.900859 
L 100.009998 460.452422 
L 100.47392 459.538017 
L 101.421637 458.003985 
L 102.941729 455.555548 
L 103.428525 454.671814 
L 104.497109 453.10711 
L 105.731793 450.658673 
L 106.383129 448.515875 
L 106.506781 448.210236 
L 106.854184 445.761799 
L 106.855601 443.313362 
L 106.835032 440.864924 
L 106.972667 438.416487 
L 107.296171 435.96805 
L 107.746406 433.519613 
L 108.230779 431.071175 
L 108.653224 428.622738 
L 108.941373 426.174301 
L 109.074696 423.725864 
L 109.088471 421.277426 
L 109.045448 418.828989 
L 109.005523 416.380552 
L 109.014807 413.932115 
L 109.111033 411.483677 
L 109.337734 409.03524 
L 109.337734 409.03524 
L 109.97203 406.586803 
L 110.993593 404.138366 
L 112.292339 401.978704 
L 112.750416 401.689928 
L 115.246943 400.29361 
L 118.201548 401.339224 
L 118.523116 401.689928 
L 120.649798 404.138366 
L 121.156152 404.696161 
L 122.392414 406.586803 
L 123.914543 409.03524 
L 124.110757 409.371046 
L 125.01996 411.483677 
L 125.864006 413.932115 
L 126.419303 416.380552 
L 126.73214 418.828989 
L 126.935729 421.277426 
L 127.065362 422.563582 
L 127.16241 423.725864 
L 127.478104 426.174301 
L 127.88638 428.622738 
L 128.240433 431.071175 
L 128.349444 433.519613 
L 128.117766 435.96805 
L 127.567142 438.416487 
L 127.065362 439.956391 
L 126.741925 440.864924 
L 125.778715 443.313362 
L 124.923703 445.761799 
L 124.339458 448.210236 
L 124.120762 450.658673 
L 124.268866 453.10711 
L 124.715562 455.555548 
L 125.331843 458.003985 
L 125.935726 460.452422 
L 126.341775 462.900859 
L 126.400546 465.349297 
L 125.973918 467.797734 
L 124.858801 470.246171 
L 124.110757 471.16525 
L 122.740175 472.694608 
L 121.156152 473.861283 
L 118.786353 475.143046 
L 118.201548 475.406474 
L 115.246943 476.371635 
L 112.292339 476.910242 
L 109.337734 477.097489 
L 106.383129 477.006064 
L 103.428525 476.582382 
L 100.47392 475.423826 
z
" clip-path="url(#p5e872d55bc)" style="fill: #8cc58c; fill-opacity: 0.5"/>
    <path d="M 100.47392 475.423826 
L 103.428525 476.582382 
L 106.383129 477.006064 
L 109.337734 477.097489 
L 112.292339 476.910242 
L 115.246943 476.371635 
L 118.201548 475.406474 
L 118.786353 475.143046 
L 121.156152 473.861283 
L 122.740175 472.694608 
L 124.110757 471.16525 
L 124.858801 470.246171 
L 125.973918 467.797734 
L 126.400546 465.349297 
L 126.341775 462.900859 
L 125.935726 460.452422 
L 125.331843 458.003985 
L 124.715562 455.555548 
L 124.268866 453.10711 
L 124.120762 450.658673 
L 124.339458 448.210236 
L 124.923703 445.761799 
L 125.778715 443.313362 
L 126.741925 440.864924 
L 127.065362 439.956391 
L 127.567142 438.416487 
L 128.117766 435.96805 
L 128.349444 433.519613 
L 128.240433 431.071175 
L 127.88638 428.622738 
L 127.478104 426.174301 
L 127.16241 423.725864 
L 127.065362 422.563582 
L 126.935729 421.277426 
L 126.73214 418.828989 
L 126.419303 416.380552 
L 125.864006 413.932115 
L 125.01996 411.483677 
L 124.110757 409.371046 
L 123.914543 409.03524 
L 122.392414 406.586803 
L 121.156152 404.696161 
L 120.649798 404.138366 
L 118.523116 401.689928 
L 118.201548 401.339224 
L 115.246943 400.29361 
L 112.750416 401.689928 
L 112.292339 401.978704 
L 110.993593 404.138366 
L 109.97203 406.586803 
L 109.337734 409.03524 
L 109.337734 409.03524 
L 109.111033 411.483677 
L 109.014807 413.932115 
L 109.005523 416.380552 
L 109.045448 418.828989 
L 109.088471 421.277426 
L 109.074696 423.725864 
L 108.941373 426.174301 
L 108.653224 428.622738 
L 108.230779 431.071175 
L 107.746406 433.519613 
L 107.296171 435.96805 
L 106.972667 438.416487 
L 106.835032 440.864924 
L 106.855601 443.313362 
L 106.854184 445.761799 
L 106.506781 448.210236 
L 106.383129 448.515875 
L 105.731793 450.658673 
L 104.497109 453.10711 
L 103.428525 454.671814 
L 102.941729 455.555548 
L 101.421637 458.003985 
L 100.47392 459.538017 
L 100.009998 460.452422 
L 98.88488 462.900859 
L 98.057707 465.349297 
L 97.570112 467.797734 
L 97.521945 470.246171 
L 98.166156 472.694608 
L 100.107383 475.143046 
z
M 102.258637 475.143046 
L 100.47392 474.085005 
L 99.318952 472.694608 
L 98.499815 470.246171 
L 98.496392 467.797734 
L 99.018307 465.349297 
L 99.949737 462.900859 
L 100.47392 461.819289 
L 101.300703 460.452422 
L 102.916532 458.003985 
L 103.428525 457.208427 
L 104.840399 455.555548 
L 106.383129 453.382861 
L 106.691226 453.10711 
L 108.509322 450.658673 
L 109.337734 448.449191 
L 109.487103 448.210236 
L 109.79968 445.761799 
L 109.512159 443.313362 
L 109.337734 441.839911 
L 109.265787 440.864924 
L 109.277994 438.416487 
L 109.337734 437.852801 
L 109.598636 435.96805 
L 110.175437 433.519613 
L 110.862056 431.071175 
L 111.515822 428.622738 
L 112.000202 426.174301 
L 112.248246 423.725864 
L 112.292339 421.845545 
L 112.316929 421.277426 
L 112.292339 418.828989 
L 112.364232 416.380552 
L 112.745864 413.932115 
L 113.701714 411.483677 
L 115.246943 409.420463 
L 118.201548 410.403744 
L 119.310531 411.483677 
L 121.156152 413.377316 
L 121.427607 413.932115 
L 122.221019 416.380552 
L 122.59755 418.828989 
L 122.732826 421.277426 
L 122.893703 423.725864 
L 123.322745 426.174301 
L 124.064632 428.622738 
L 124.110757 428.761663 
L 124.644206 431.071175 
L 124.983334 433.519613 
L 124.933625 435.96805 
L 124.490574 438.416487 
L 124.110757 439.653861 
L 123.686147 440.864924 
L 122.696097 443.313362 
L 121.840943 445.761799 
L 121.325607 448.210236 
L 121.270028 450.658673 
L 121.664472 453.10711 
L 122.393011 455.555548 
L 123.281237 458.003985 
L 124.110757 460.404465 
L 124.125161 460.452422 
L 124.718586 462.900859 
L 124.901539 465.349297 
L 124.510337 467.797734 
L 124.110757 468.644448 
L 123.343581 470.246171 
L 121.156152 472.583374 
L 121.029031 472.694608 
L 118.201548 474.349216 
L 116.180345 475.143046 
L 115.246943 475.458441 
L 112.292339 476.061348 
L 109.337734 476.256991 
L 106.383129 476.133122 
L 103.428525 475.622667 
z
" clip-path="url(#p5e872d55bc)" style="fill: #79bc79; fill-opacity: 0.5"/>
    <path d="M 103.428525 475.622667 
L 106.383129 476.133122 
L 109.337734 476.256991 
L 112.292339 476.061348 
L 115.246943 475.458441 
L 116.180345 475.143046 
L 118.201548 474.349216 
L 121.029031 472.694608 
L 121.156152 472.583374 
L 123.343581 470.246171 
L 124.110757 468.644448 
L 124.510337 467.797734 
L 124.901539 465.349297 
L 124.718586 462.900859 
L 124.125161 460.452422 
L 124.110757 460.404465 
L 123.281237 458.003985 
L 122.393011 455.555548 
L 121.664472 453.10711 
L 121.270028 450.658673 
L 121.325607 448.210236 
L 121.840943 445.761799 
L 122.696097 443.313362 
L 123.686147 440.864924 
L 124.110757 439.653861 
L 124.490574 438.416487 
L 124.933625 435.96805 
L 124.983334 433.519613 
L 124.644206 431.071175 
L 124.110757 428.761663 
L 124.064632 428.622738 
L 123.322745 426.174301 
L 122.893703 423.725864 
L 122.732826 421.277426 
L 122.59755 418.828989 
L 122.221019 416.380552 
L 121.427607 413.932115 
L 121.156152 413.377316 
L 119.310531 411.483677 
L 118.201548 410.403744 
L 115.246943 409.420463 
L 113.701714 411.483677 
L 112.745864 413.932115 
L 112.364232 416.380552 
L 112.292339 418.828989 
L 112.316929 421.277426 
L 112.292339 421.845545 
L 112.248246 423.725864 
L 112.000202 426.174301 
L 111.515822 428.622738 
L 110.862056 431.071175 
L 110.175437 433.519613 
L 109.598636 435.96805 
L 109.337734 437.852801 
L 109.277994 438.416487 
L 109.265787 440.864924 
L 109.337734 441.839911 
L 109.512159 443.313362 
L 109.79968 445.761799 
L 109.487103 448.210236 
L 109.337734 448.449191 
L 108.509322 450.658673 
L 106.691226 453.10711 
L 106.383129 453.382861 
L 104.840399 455.555548 
L 103.428525 457.208427 
L 102.916532 458.003985 
L 101.300703 460.452422 
L 100.47392 461.819289 
L 99.949737 462.900859 
L 99.018307 465.349297 
L 98.496392 467.797734 
L 98.499815 470.246171 
L 99.318952 472.694608 
L 100.47392 474.085005 
L 102.258637 475.143046 
z
M 104.722145 475.143046 
L 103.428525 474.84419 
L 100.47392 473.005966 
L 100.215283 472.694608 
L 99.260136 470.246171 
L 99.2166 467.797734 
L 99.7652 465.349297 
L 100.47392 463.583583 
L 100.820197 462.900859 
L 102.334046 460.452422 
L 103.428525 458.85031 
L 104.254779 458.003985 
L 106.383129 455.555548 
L 106.383129 455.555548 
L 109.118774 453.10711 
L 109.337734 452.807864 
L 112.272719 450.658673 
L 112.292339 450.621982 
L 114.758762 448.210236 
L 114.323482 445.761799 
L 112.840019 443.313362 
L 112.292339 442.372314 
L 111.933481 440.864924 
L 111.721624 438.416487 
L 111.939864 435.96805 
L 112.292339 434.393249 
L 112.667314 433.519613 
L 114.026006 431.071175 
L 115.246943 428.799998 
L 115.996119 428.622738 
L 118.201548 427.760321 
L 118.676034 428.622738 
L 120.342675 431.071175 
L 121.156152 432.582468 
L 121.439164 433.519613 
L 121.740648 435.96805 
L 121.511269 438.416487 
L 121.156152 439.747349 
L 120.711048 440.864924 
L 119.394435 443.313362 
L 118.291289 445.761799 
L 118.201548 446.197364 
L 116.279349 448.210236 
L 117.975791 450.658673 
L 118.201548 450.806152 
L 119.090286 453.10711 
L 120.402648 455.555548 
L 121.156152 456.801891 
L 121.661532 458.003985 
L 122.698128 460.452422 
L 123.453478 462.900859 
L 123.738513 465.349297 
L 123.388628 467.797734 
L 122.188605 470.246171 
L 121.156152 471.349316 
L 119.618723 472.694608 
L 118.201548 473.523921 
L 115.246943 474.734743 
L 113.513025 475.143046 
L 112.292339 475.40131 
L 109.337734 475.603482 
L 106.383129 475.454386 
z
" clip-path="url(#p5e872d55bc)" style="fill: #6bb46b; fill-opacity: 0.5"/>
    <path d="M 106.383129 475.454386 
L 109.337734 475.603482 
L 112.292339 475.40131 
L 113.513025 475.143046 
L 115.246943 474.734743 
L 118.201548 473.523921 
L 119.618723 472.694608 
L 121.156152 471.349316 
L 122.188605 470.246171 
L 123.388628 467.797734 
L 123.738513 465.349297 
L 123.453478 462.900859 
L 122.698128 460.452422 
L 121.661532 458.003985 
L 121.156152 456.801891 
L 120.402648 455.555548 
L 119.090286 453.10711 
L 118.201548 450.806152 
L 117.975791 450.658673 
L 116.279349 448.210236 
L 118.201548 446.197364 
L 118.291289 445.761799 
L 119.394435 443.313362 
L 120.711048 440.864924 
L 121.156152 439.747349 
L 121.511269 438.416487 
L 121.740648 435.96805 
L 121.439164 433.519613 
L 121.156152 432.582468 
L 120.342675 431.071175 
L 118.676034 428.622738 
L 118.201548 427.760321 
L 115.996119 428.622738 
L 115.246943 428.799998 
L 114.026006 431.071175 
L 112.667314 433.519613 
L 112.292339 434.393249 
L 111.939864 435.96805 
L 111.721624 438.416487 
L 111.933481 440.864924 
L 112.292339 442.372314 
L 112.840019 443.313362 
L 114.323482 445.761799 
L 114.758762 448.210236 
L 112.292339 450.621982 
L 112.272719 450.658673 
L 109.337734 452.807864 
L 109.118774 453.10711 
L 106.383129 455.555548 
L 106.383129 455.555548 
L 104.254779 458.003985 
L 103.428525 458.85031 
L 102.334046 460.452422 
L 100.820197 462.900859 
L 100.47392 463.583583 
L 99.7652 465.349297 
L 99.2166 467.797734 
L 99.260136 470.246171 
L 100.215283 472.694608 
L 100.47392 473.005966 
L 103.428525 474.84419 
L 104.722145 475.143046 
z
M 103.413136 472.694608 
L 101.475259 470.246171 
L 101.229058 467.797734 
L 101.930514 465.349297 
L 103.234201 462.900859 
L 103.428525 462.605096 
L 105.594636 460.452422 
L 106.383129 459.648797 
L 109.337734 458.003985 
L 109.337734 458.003985 
L 112.292339 457.314242 
L 115.246943 457.675299 
L 115.756198 458.003985 
L 118.201548 459.704375 
L 118.72924 460.452422 
L 120.099101 462.900859 
L 120.739873 465.349297 
L 120.489058 467.797734 
L 119.089009 470.246171 
L 118.201548 471.017588 
L 115.6127 472.694608 
L 115.246943 472.855778 
L 112.292339 473.632059 
L 109.337734 473.836839 
L 106.383129 473.581154 
L 103.428525 472.704547 
z
" clip-path="url(#p5e872d55bc)" style="fill: #53a953; fill-opacity: 0.5"/>
    <path d="M 103.428525 472.704547 
L 106.383129 473.581154 
L 109.337734 473.836839 
L 112.292339 473.632059 
L 115.246943 472.855778 
L 115.6127 472.694608 
L 118.201548 471.017588 
L 119.089009 470.246171 
L 120.489058 467.797734 
L 120.739873 465.349297 
L 120.099101 462.900859 
L 118.72924 460.452422 
L 118.201548 459.704375 
L 115.756198 458.003985 
L 115.246943 457.675299 
L 112.292339 457.314242 
L 109.337734 458.003985 
L 109.337734 458.003985 
L 106.383129 459.648797 
L 105.594636 460.452422 
L 103.428525 462.605096 
L 103.234201 462.900859 
L 101.930514 465.349297 
L 101.229058 467.797734 
L 101.475259 470.246171 
L 103.413136 472.694608 
z
" clip-path="url(#p5e872d55bc)" style="fill: #209020; fill-opacity: 0.5"/>
   </g>
   <g id="matplotlib.axis_1">
    <g id="xtick_1">
     <g id="line2d_1">
      <defs>
       <path id="m1a43b67ef9" d="M 0 0 
L 0 3.5 
" style="stroke: #000000; stroke-width: 0.8"/>
      </defs>
      <g>
       <use xlink:href="#m1a43b67ef9" x="101.344493" y="499.48" style="stroke: #000000; stroke-width: 0.8"/>
      </g>
     </g>
     <g id="text_1">
      <!-- 0 -->
      <g transform="translate(94.345743 523.196563) scale(0.22 -0.22)">
       <defs>
        <path id="DejaVuSans-30" d="M 2034 4250 
Q 1547 4250 1301 3770 
Q 1056 3291 1056 2328 
Q 1056 1369 1301 889 
Q 1547 409 2034 409 
Q 2525 409 2770 889 
Q 3016 1369 3016 2328 
Q 3016 3291 2770 3770 
Q 2525 4250 2034 4250 
z
M 2034 4750 
Q 2819 4750 3233 4129 
Q 3647 3509 3647 2328 
Q 3647 1150 3233 529 
Q 2819 -91 2034 -91 
Q 1250 -91 836 529 
Q 422 1150 422 2328 
Q 422 3509 836 4129 
Q 1250 4750 2034 4750 
z
" transform="scale(0.015625)"/>
       </defs>
       <use xlink:href="#DejaVuSans-30"/>
      </g>
     </g>
    </g>
    <g id="xtick_2">
     <g id="line2d_2">
      <g>
       <use xlink:href="#m1a43b67ef9" x="170.078468" y="499.48" style="stroke: #000000; stroke-width: 0.8"/>
      </g>
     </g>
     <g id="text_2">
      <!-- 10 -->
      <g transform="translate(156.080968 523.196563) scale(0.22 -0.22)">
       <defs>
        <path id="DejaVuSans-31" d="M 794 531 
L 1825 531 
L 1825 4091 
L 703 3866 
L 703 4441 
L 1819 4666 
L 2450 4666 
L 2450 531 
L 3481 531 
L 3481 0 
L 794 0 
L 794 531 
z
" transform="scale(0.015625)"/>
       </defs>
       <use xlink:href="#DejaVuSans-31"/>
       <use xlink:href="#DejaVuSans-30" x="63.623047"/>
      </g>
     </g>
    </g>
    <g id="xtick_3">
     <g id="line2d_3">
      <g>
       <use xlink:href="#m1a43b67ef9" x="238.812442" y="499.48" style="stroke: #000000; stroke-width: 0.8"/>
      </g>
     </g>
     <g id="text_3">
      <!-- 20 -->
      <g transform="translate(224.814942 523.196563) scale(0.22 -0.22)">
       <defs>
        <path id="DejaVuSans-32" d="M 1228 531 
L 3431 531 
L 3431 0 
L 469 0 
L 469 531 
Q 828 903 1448 1529 
Q 2069 2156 2228 2338 
Q 2531 2678 2651 2914 
Q 2772 3150 2772 3378 
Q 2772 3750 2511 3984 
Q 2250 4219 1831 4219 
Q 1534 4219 1204 4116 
Q 875 4013 500 3803 
L 500 4441 
Q 881 4594 1212 4672 
Q 1544 4750 1819 4750 
Q 2544 4750 2975 4387 
Q 3406 4025 3406 3419 
Q 3406 3131 3298 2873 
Q 3191 2616 2906 2266 
Q 2828 2175 2409 1742 
Q 1991 1309 1228 531 
z
" transform="scale(0.015625)"/>
       </defs>
       <use xlink:href="#DejaVuSans-32"/>
       <use xlink:href="#DejaVuSans-30" x="63.623047"/>
      </g>
     </g>
    </g>
    <g id="xtick_4">
     <g id="line2d_4">
      <g>
       <use xlink:href="#m1a43b67ef9" x="307.546417" y="499.48" style="stroke: #000000; stroke-width: 0.8"/>
      </g>
     </g>
     <g id="text_4">
      <!-- 30 -->
      <g transform="translate(293.548917 523.196563) scale(0.22 -0.22)">
       <defs>
        <path id="DejaVuSans-33" d="M 2597 2516 
Q 3050 2419 3304 2112 
Q 3559 1806 3559 1356 
Q 3559 666 3084 287 
Q 2609 -91 1734 -91 
Q 1441 -91 1130 -33 
Q 819 25 488 141 
L 488 750 
Q 750 597 1062 519 
Q 1375 441 1716 441 
Q 2309 441 2620 675 
Q 2931 909 2931 1356 
Q 2931 1769 2642 2001 
Q 2353 2234 1838 2234 
L 1294 2234 
L 1294 2753 
L 1863 2753 
Q 2328 2753 2575 2939 
Q 2822 3125 2822 3475 
Q 2822 3834 2567 4026 
Q 2313 4219 1838 4219 
Q 1578 4219 1281 4162 
Q 984 4106 628 3988 
L 628 4550 
Q 988 4650 1302 4700 
Q 1616 4750 1894 4750 
Q 2613 4750 3031 4423 
Q 3450 4097 3450 3541 
Q 3450 3153 3228 2886 
Q 3006 2619 2597 2516 
z
" transform="scale(0.015625)"/>
       </defs>
       <use xlink:href="#DejaVuSans-33"/>
       <use xlink:href="#DejaVuSans-30" x="63.623047"/>
      </g>
     </g>
    </g>
    <g id="xtick_5">
     <g id="line2d_5">
      <g>
       <use xlink:href="#m1a43b67ef9" x="376.280391" y="499.48" style="stroke: #000000; stroke-width: 0.8"/>
      </g>
     </g>
     <g id="text_5">
      <!-- 40 -->
      <g transform="translate(362.282891 523.196563) scale(0.22 -0.22)">
       <defs>
        <path id="DejaVuSans-34" d="M 2419 4116 
L 825 1625 
L 2419 1625 
L 2419 4116 
z
M 2253 4666 
L 3047 4666 
L 3047 1625 
L 3713 1625 
L 3713 1100 
L 3047 1100 
L 3047 0 
L 2419 0 
L 2419 1100 
L 313 1100 
L 313 1709 
L 2253 4666 
z
" transform="scale(0.015625)"/>
       </defs>
       <use xlink:href="#DejaVuSans-34"/>
       <use xlink:href="#DejaVuSans-30" x="63.623047"/>
      </g>
     </g>
    </g>
    <g id="xtick_6">
     <g id="line2d_6">
      <g>
       <use xlink:href="#m1a43b67ef9" x="445.014366" y="499.48" style="stroke: #000000; stroke-width: 0.8"/>
      </g>
     </g>
     <g id="text_6">
      <!-- 50 -->
      <g transform="translate(431.016866 523.196563) scale(0.22 -0.22)">
       <defs>
        <path id="DejaVuSans-35" d="M 691 4666 
L 3169 4666 
L 3169 4134 
L 1269 4134 
L 1269 2991 
Q 1406 3038 1543 3061 
Q 1681 3084 1819 3084 
Q 2600 3084 3056 2656 
Q 3513 2228 3513 1497 
Q 3513 744 3044 326 
Q 2575 -91 1722 -91 
Q 1428 -91 1123 -41 
Q 819 9 494 109 
L 494 744 
Q 775 591 1075 516 
Q 1375 441 1709 441 
Q 2250 441 2565 725 
Q 2881 1009 2881 1497 
Q 2881 1984 2565 2268 
Q 2250 2553 1709 2553 
Q 1456 2553 1204 2497 
Q 953 2441 691 2322 
L 691 4666 
z
" transform="scale(0.015625)"/>
       </defs>
       <use xlink:href="#DejaVuSans-35"/>
       <use xlink:href="#DejaVuSans-30" x="63.623047"/>
      </g>
     </g>
    </g>
    <g id="xtick_7">
     <g id="line2d_7">
      <g>
       <use xlink:href="#m1a43b67ef9" x="513.74834" y="499.48" style="stroke: #000000; stroke-width: 0.8"/>
      </g>
     </g>
     <g id="text_7">
      <!-- 60 -->
      <g transform="translate(499.75084 523.196563) scale(0.22 -0.22)">
       <defs>
        <path id="DejaVuSans-36" d="M 2113 2584 
Q 1688 2584 1439 2293 
Q 1191 2003 1191 1497 
Q 1191 994 1439 701 
Q 1688 409 2113 409 
Q 2538 409 2786 701 
Q 3034 994 3034 1497 
Q 3034 2003 2786 2293 
Q 2538 2584 2113 2584 
z
M 3366 4563 
L 3366 3988 
Q 3128 4100 2886 4159 
Q 2644 4219 2406 4219 
Q 1781 4219 1451 3797 
Q 1122 3375 1075 2522 
Q 1259 2794 1537 2939 
Q 1816 3084 2150 3084 
Q 2853 3084 3261 2657 
Q 3669 2231 3669 1497 
Q 3669 778 3244 343 
Q 2819 -91 2113 -91 
Q 1303 -91 875 529 
Q 447 1150 447 2328 
Q 447 3434 972 4092 
Q 1497 4750 2381 4750 
Q 2619 4750 2861 4703 
Q 3103 4656 3366 4563 
z
" transform="scale(0.015625)"/>
       </defs>
       <use xlink:href="#DejaVuSans-36"/>
       <use xlink:href="#DejaVuSans-30" x="63.623047"/>
      </g>
     </g>
    </g>
    <g id="xtick_8">
     <g id="line2d_8">
      <g>
       <use xlink:href="#m1a43b67ef9" x="582.482315" y="499.48" style="stroke: #000000; stroke-width: 0.8"/>
      </g>
     </g>
     <g id="text_8">
      <!-- 70 -->
      <g transform="translate(568.484815 523.196563) scale(0.22 -0.22)">
       <defs>
        <path id="DejaVuSans-37" d="M 525 4666 
L 3525 4666 
L 3525 4397 
L 1831 0 
L 1172 0 
L 2766 4134 
L 525 4134 
L 525 4666 
z
" transform="scale(0.015625)"/>
       </defs>
       <use xlink:href="#DejaVuSans-37"/>
       <use xlink:href="#DejaVuSans-30" x="63.623047"/>
      </g>
     </g>
    </g>
    <g id="xtick_9">
     <g id="line2d_9">
      <g>
       <use xlink:href="#m1a43b67ef9" x="651.216289" y="499.48" style="stroke: #000000; stroke-width: 0.8"/>
      </g>
     </g>
     <g id="text_9">
      <!-- 80 -->
      <g transform="translate(637.218789 523.196563) scale(0.22 -0.22)">
       <defs>
        <path id="DejaVuSans-38" d="M 2034 2216 
Q 1584 2216 1326 1975 
Q 1069 1734 1069 1313 
Q 1069 891 1326 650 
Q 1584 409 2034 409 
Q 2484 409 2743 651 
Q 3003 894 3003 1313 
Q 3003 1734 2745 1975 
Q 2488 2216 2034 2216 
z
M 1403 2484 
Q 997 2584 770 2862 
Q 544 3141 544 3541 
Q 544 4100 942 4425 
Q 1341 4750 2034 4750 
Q 2731 4750 3128 4425 
Q 3525 4100 3525 3541 
Q 3525 3141 3298 2862 
Q 3072 2584 2669 2484 
Q 3125 2378 3379 2068 
Q 3634 1759 3634 1313 
Q 3634 634 3220 271 
Q 2806 -91 2034 -91 
Q 1263 -91 848 271 
Q 434 634 434 1313 
Q 434 1759 690 2068 
Q 947 2378 1403 2484 
z
M 1172 3481 
Q 1172 3119 1398 2916 
Q 1625 2713 2034 2713 
Q 2441 2713 2670 2916 
Q 2900 3119 2900 3481 
Q 2900 3844 2670 4047 
Q 2441 4250 2034 4250 
Q 1625 4250 1398 4047 
Q 1172 3844 1172 3481 
z
" transform="scale(0.015625)"/>
       </defs>
       <use xlink:href="#DejaVuSans-38"/>
       <use xlink:href="#DejaVuSans-30" x="63.623047"/>
      </g>
     </g>
    </g>
    <g id="text_10">
     <!-- Force Uncertainties -->
     <g transform="translate(283.426094 548.488438) scale(0.22 -0.22)">
      <defs>
       <path id="DejaVuSans-46" d="M 628 4666 
L 3309 4666 
L 3309 4134 
L 1259 4134 
L 1259 2759 
L 3109 2759 
L 3109 2228 
L 1259 2228 
L 1259 0 
L 628 0 
L 628 4666 
z
" transform="scale(0.015625)"/>
       <path id="DejaVuSans-6f" d="M 1959 3097 
Q 1497 3097 1228 2736 
Q 959 2375 959 1747 
Q 959 1119 1226 758 
Q 1494 397 1959 397 
Q 2419 397 2687 759 
Q 2956 1122 2956 1747 
Q 2956 2369 2687 2733 
Q 2419 3097 1959 3097 
z
M 1959 3584 
Q 2709 3584 3137 3096 
Q 3566 2609 3566 1747 
Q 3566 888 3137 398 
Q 2709 -91 1959 -91 
Q 1206 -91 779 398 
Q 353 888 353 1747 
Q 353 2609 779 3096 
Q 1206 3584 1959 3584 
z
" transform="scale(0.015625)"/>
       <path id="DejaVuSans-72" d="M 2631 2963 
Q 2534 3019 2420 3045 
Q 2306 3072 2169 3072 
Q 1681 3072 1420 2755 
Q 1159 2438 1159 1844 
L 1159 0 
L 581 0 
L 581 3500 
L 1159 3500 
L 1159 2956 
Q 1341 3275 1631 3429 
Q 1922 3584 2338 3584 
Q 2397 3584 2469 3576 
Q 2541 3569 2628 3553 
L 2631 2963 
z
" transform="scale(0.015625)"/>
       <path id="DejaVuSans-63" d="M 3122 3366 
L 3122 2828 
Q 2878 2963 2633 3030 
Q 2388 3097 2138 3097 
Q 1578 3097 1268 2742 
Q 959 2388 959 1747 
Q 959 1106 1268 751 
Q 1578 397 2138 397 
Q 2388 397 2633 464 
Q 2878 531 3122 666 
L 3122 134 
Q 2881 22 2623 -34 
Q 2366 -91 2075 -91 
Q 1284 -91 818 406 
Q 353 903 353 1747 
Q 353 2603 823 3093 
Q 1294 3584 2113 3584 
Q 2378 3584 2631 3529 
Q 2884 3475 3122 3366 
z
" transform="scale(0.015625)"/>
       <path id="DejaVuSans-65" d="M 3597 1894 
L 3597 1613 
L 953 1613 
Q 991 1019 1311 708 
Q 1631 397 2203 397 
Q 2534 397 2845 478 
Q 3156 559 3463 722 
L 3463 178 
Q 3153 47 2828 -22 
Q 2503 -91 2169 -91 
Q 1331 -91 842 396 
Q 353 884 353 1716 
Q 353 2575 817 3079 
Q 1281 3584 2069 3584 
Q 2775 3584 3186 3129 
Q 3597 2675 3597 1894 
z
M 3022 2063 
Q 3016 2534 2758 2815 
Q 2500 3097 2075 3097 
Q 1594 3097 1305 2825 
Q 1016 2553 972 2059 
L 3022 2063 
z
" transform="scale(0.015625)"/>
       <path id="DejaVuSans-20" transform="scale(0.015625)"/>
       <path id="DejaVuSans-55" d="M 556 4666 
L 1191 4666 
L 1191 1831 
Q 1191 1081 1462 751 
Q 1734 422 2344 422 
Q 2950 422 3222 751 
Q 3494 1081 3494 1831 
L 3494 4666 
L 4128 4666 
L 4128 1753 
Q 4128 841 3676 375 
Q 3225 -91 2344 -91 
Q 1459 -91 1007 375 
Q 556 841 556 1753 
L 556 4666 
z
" transform="scale(0.015625)"/>
       <path id="DejaVuSans-6e" d="M 3513 2113 
L 3513 0 
L 2938 0 
L 2938 2094 
Q 2938 2591 2744 2837 
Q 2550 3084 2163 3084 
Q 1697 3084 1428 2787 
Q 1159 2491 1159 1978 
L 1159 0 
L 581 0 
L 581 3500 
L 1159 3500 
L 1159 2956 
Q 1366 3272 1645 3428 
Q 1925 3584 2291 3584 
Q 2894 3584 3203 3211 
Q 3513 2838 3513 2113 
z
" transform="scale(0.015625)"/>
       <path id="DejaVuSans-74" d="M 1172 4494 
L 1172 3500 
L 2356 3500 
L 2356 3053 
L 1172 3053 
L 1172 1153 
Q 1172 725 1289 603 
Q 1406 481 1766 481 
L 2356 481 
L 2356 0 
L 1766 0 
Q 1100 0 847 248 
Q 594 497 594 1153 
L 594 3053 
L 172 3053 
L 172 3500 
L 594 3500 
L 594 4494 
L 1172 4494 
z
" transform="scale(0.015625)"/>
       <path id="DejaVuSans-61" d="M 2194 1759 
Q 1497 1759 1228 1600 
Q 959 1441 959 1056 
Q 959 750 1161 570 
Q 1363 391 1709 391 
Q 2188 391 2477 730 
Q 2766 1069 2766 1631 
L 2766 1759 
L 2194 1759 
z
M 3341 1997 
L 3341 0 
L 2766 0 
L 2766 531 
Q 2569 213 2275 61 
Q 1981 -91 1556 -91 
Q 1019 -91 701 211 
Q 384 513 384 1019 
Q 384 1609 779 1909 
Q 1175 2209 1959 2209 
L 2766 2209 
L 2766 2266 
Q 2766 2663 2505 2880 
Q 2244 3097 1772 3097 
Q 1472 3097 1187 3025 
Q 903 2953 641 2809 
L 641 3341 
Q 956 3463 1253 3523 
Q 1550 3584 1831 3584 
Q 2591 3584 2966 3190 
Q 3341 2797 3341 1997 
z
" transform="scale(0.015625)"/>
       <path id="DejaVuSans-69" d="M 603 3500 
L 1178 3500 
L 1178 0 
L 603 0 
L 603 3500 
z
M 603 4863 
L 1178 4863 
L 1178 4134 
L 603 4134 
L 603 4863 
z
" transform="scale(0.015625)"/>
       <path id="DejaVuSans-73" d="M 2834 3397 
L 2834 2853 
Q 2591 2978 2328 3040 
Q 2066 3103 1784 3103 
Q 1356 3103 1142 2972 
Q 928 2841 928 2578 
Q 928 2378 1081 2264 
Q 1234 2150 1697 2047 
L 1894 2003 
Q 2506 1872 2764 1633 
Q 3022 1394 3022 966 
Q 3022 478 2636 193 
Q 2250 -91 1575 -91 
Q 1294 -91 989 -36 
Q 684 19 347 128 
L 347 722 
Q 666 556 975 473 
Q 1284 391 1588 391 
Q 1994 391 2212 530 
Q 2431 669 2431 922 
Q 2431 1156 2273 1281 
Q 2116 1406 1581 1522 
L 1381 1569 
Q 847 1681 609 1914 
Q 372 2147 372 2553 
Q 372 3047 722 3315 
Q 1072 3584 1716 3584 
Q 2034 3584 2315 3537 
Q 2597 3491 2834 3397 
z
" transform="scale(0.015625)"/>
      </defs>
      <use xlink:href="#DejaVuSans-46"/>
      <use xlink:href="#DejaVuSans-6f" x="53.894531"/>
      <use xlink:href="#DejaVuSans-72" x="115.076172"/>
      <use xlink:href="#DejaVuSans-63" x="153.939453"/>
      <use xlink:href="#DejaVuSans-65" x="208.919922"/>
      <use xlink:href="#DejaVuSans-20" x="270.443359"/>
      <use xlink:href="#DejaVuSans-55" x="302.230469"/>
      <use xlink:href="#DejaVuSans-6e" x="375.423828"/>
      <use xlink:href="#DejaVuSans-63" x="438.802734"/>
      <use xlink:href="#DejaVuSans-65" x="493.783203"/>
      <use xlink:href="#DejaVuSans-72" x="555.306641"/>
      <use xlink:href="#DejaVuSans-74" x="596.419922"/>
      <use xlink:href="#DejaVuSans-61" x="635.628906"/>
      <use xlink:href="#DejaVuSans-69" x="696.908203"/>
      <use xlink:href="#DejaVuSans-6e" x="724.691406"/>
      <use xlink:href="#DejaVuSans-74" x="788.070312"/>
      <use xlink:href="#DejaVuSans-69" x="827.279297"/>
      <use xlink:href="#DejaVuSans-65" x="855.0625"/>
      <use xlink:href="#DejaVuSans-73" x="916.585938"/>
     </g>
    </g>
   </g>
   <g id="matplotlib.axis_2">
    <g id="ytick_1">
     <g id="line2d_10">
      <defs>
       <path id="m1e0d8081c0" d="M 0 0 
L -3.5 0 
" style="stroke: #000000; stroke-width: 0.8"/>
      </defs>
      <g>
       <use xlink:href="#m1e0d8081c0" x="83.72" y="485.791755" style="stroke: #000000; stroke-width: 0.8"/>
      </g>
     </g>
     <g id="text_11">
      <!-- 0 -->
      <g transform="translate(62.7225 494.150036) scale(0.22 -0.22)">
       <use xlink:href="#DejaVuSans-30"/>
      </g>
     </g>
    </g>
    <g id="ytick_2">
     <g id="line2d_11">
      <g>
       <use xlink:href="#m1e0d8081c0" x="83.72" y="432.408802" style="stroke: #000000; stroke-width: 0.8"/>
      </g>
     </g>
     <g id="text_12">
      <!-- 10 -->
      <g transform="translate(48.725 440.767083) scale(0.22 -0.22)">
       <use xlink:href="#DejaVuSans-31"/>
       <use xlink:href="#DejaVuSans-30" x="63.623047"/>
      </g>
     </g>
    </g>
    <g id="ytick_3">
     <g id="line2d_12">
      <g>
       <use xlink:href="#m1e0d8081c0" x="83.72" y="379.025849" style="stroke: #000000; stroke-width: 0.8"/>
      </g>
     </g>
     <g id="text_13">
      <!-- 20 -->
      <g transform="translate(48.725 387.38413) scale(0.22 -0.22)">
       <use xlink:href="#DejaVuSans-32"/>
       <use xlink:href="#DejaVuSans-30" x="63.623047"/>
      </g>
     </g>
    </g>
    <g id="ytick_4">
     <g id="line2d_13">
      <g>
       <use xlink:href="#m1e0d8081c0" x="83.72" y="325.642896" style="stroke: #000000; stroke-width: 0.8"/>
      </g>
     </g>
     <g id="text_14">
      <!-- 30 -->
      <g transform="translate(48.725 334.001177) scale(0.22 -0.22)">
       <use xlink:href="#DejaVuSans-33"/>
       <use xlink:href="#DejaVuSans-30" x="63.623047"/>
      </g>
     </g>
    </g>
    <g id="ytick_5">
     <g id="line2d_14">
      <g>
       <use xlink:href="#m1e0d8081c0" x="83.72" y="272.259943" style="stroke: #000000; stroke-width: 0.8"/>
      </g>
     </g>
     <g id="text_15">
      <!-- 40 -->
      <g transform="translate(48.725 280.618224) scale(0.22 -0.22)">
       <use xlink:href="#DejaVuSans-34"/>
       <use xlink:href="#DejaVuSans-30" x="63.623047"/>
      </g>
     </g>
    </g>
    <g id="ytick_6">
     <g id="line2d_15">
      <g>
       <use xlink:href="#m1e0d8081c0" x="83.72" y="218.87699" style="stroke: #000000; stroke-width: 0.8"/>
      </g>
     </g>
     <g id="text_16">
      <!-- 50 -->
      <g transform="translate(48.725 227.235271) scale(0.22 -0.22)">
       <use xlink:href="#DejaVuSans-35"/>
       <use xlink:href="#DejaVuSans-30" x="63.623047"/>
      </g>
     </g>
    </g>
    <g id="ytick_7">
     <g id="line2d_16">
      <g>
       <use xlink:href="#m1e0d8081c0" x="83.72" y="165.494037" style="stroke: #000000; stroke-width: 0.8"/>
      </g>
     </g>
     <g id="text_17">
      <!-- 60 -->
      <g transform="translate(48.725 173.852318) scale(0.22 -0.22)">
       <use xlink:href="#DejaVuSans-36"/>
       <use xlink:href="#DejaVuSans-30" x="63.623047"/>
      </g>
     </g>
    </g>
    <g id="ytick_8">
     <g id="line2d_17">
      <g>
       <use xlink:href="#m1e0d8081c0" x="83.72" y="112.111084" style="stroke: #000000; stroke-width: 0.8"/>
      </g>
     </g>
     <g id="text_18">
      <!-- 70 -->
      <g transform="translate(48.725 120.469365) scale(0.22 -0.22)">
       <use xlink:href="#DejaVuSans-37"/>
       <use xlink:href="#DejaVuSans-30" x="63.623047"/>
      </g>
     </g>
    </g>
    <g id="ytick_9">
     <g id="line2d_18">
      <g>
       <use xlink:href="#m1e0d8081c0" x="83.72" y="58.728131" style="stroke: #000000; stroke-width: 0.8"/>
      </g>
     </g>
     <g id="text_19">
      <!-- 80 -->
      <g transform="translate(48.725 67.086412) scale(0.22 -0.22)">
       <use xlink:href="#DejaVuSans-38"/>
       <use xlink:href="#DejaVuSans-30" x="63.623047"/>
      </g>
     </g>
    </g>
    <g id="text_20">
     <!-- Force Errors [kJ/(mol*A)] -->
     <g transform="translate(40.149688 394.9125) rotate(-90) scale(0.22 -0.22)">
      <defs>
       <path id="DejaVuSans-45" d="M 628 4666 
L 3578 4666 
L 3578 4134 
L 1259 4134 
L 1259 2753 
L 3481 2753 
L 3481 2222 
L 1259 2222 
L 1259 531 
L 3634 531 
L 3634 0 
L 628 0 
L 628 4666 
z
" transform="scale(0.015625)"/>
       <path id="DejaVuSans-5b" d="M 550 4863 
L 1875 4863 
L 1875 4416 
L 1125 4416 
L 1125 -397 
L 1875 -397 
L 1875 -844 
L 550 -844 
L 550 4863 
z
" transform="scale(0.015625)"/>
       <path id="DejaVuSans-6b" d="M 581 4863 
L 1159 4863 
L 1159 1991 
L 2875 3500 
L 3609 3500 
L 1753 1863 
L 3688 0 
L 2938 0 
L 1159 1709 
L 1159 0 
L 581 0 
L 581 4863 
z
" transform="scale(0.015625)"/>
       <path id="DejaVuSans-4a" d="M 628 4666 
L 1259 4666 
L 1259 325 
Q 1259 -519 939 -900 
Q 619 -1281 -91 -1281 
L -331 -1281 
L -331 -750 
L -134 -750 
Q 284 -750 456 -515 
Q 628 -281 628 325 
L 628 4666 
z
" transform="scale(0.015625)"/>
       <path id="DejaVuSans-2f" d="M 1625 4666 
L 2156 4666 
L 531 -594 
L 0 -594 
L 1625 4666 
z
" transform="scale(0.015625)"/>
       <path id="DejaVuSans-28" d="M 1984 4856 
Q 1566 4138 1362 3434 
Q 1159 2731 1159 2009 
Q 1159 1288 1364 580 
Q 1569 -128 1984 -844 
L 1484 -844 
Q 1016 -109 783 600 
Q 550 1309 550 2009 
Q 550 2706 781 3412 
Q 1013 4119 1484 4856 
L 1984 4856 
z
" transform="scale(0.015625)"/>
       <path id="DejaVuSans-6d" d="M 3328 2828 
Q 3544 3216 3844 3400 
Q 4144 3584 4550 3584 
Q 5097 3584 5394 3201 
Q 5691 2819 5691 2113 
L 5691 0 
L 5113 0 
L 5113 2094 
Q 5113 2597 4934 2840 
Q 4756 3084 4391 3084 
Q 3944 3084 3684 2787 
Q 3425 2491 3425 1978 
L 3425 0 
L 2847 0 
L 2847 2094 
Q 2847 2600 2669 2842 
Q 2491 3084 2119 3084 
Q 1678 3084 1418 2786 
Q 1159 2488 1159 1978 
L 1159 0 
L 581 0 
L 581 3500 
L 1159 3500 
L 1159 2956 
Q 1356 3278 1631 3431 
Q 1906 3584 2284 3584 
Q 2666 3584 2933 3390 
Q 3200 3197 3328 2828 
z
" transform="scale(0.015625)"/>
       <path id="DejaVuSans-6c" d="M 603 4863 
L 1178 4863 
L 1178 0 
L 603 0 
L 603 4863 
z
" transform="scale(0.015625)"/>
       <path id="DejaVuSans-2a" d="M 3009 3897 
L 1888 3291 
L 3009 2681 
L 2828 2375 
L 1778 3009 
L 1778 1831 
L 1422 1831 
L 1422 3009 
L 372 2375 
L 191 2681 
L 1313 3291 
L 191 3897 
L 372 4206 
L 1422 3572 
L 1422 4750 
L 1778 4750 
L 1778 3572 
L 2828 4206 
L 3009 3897 
z
" transform="scale(0.015625)"/>
       <path id="DejaVuSans-41" d="M 2188 4044 
L 1331 1722 
L 3047 1722 
L 2188 4044 
z
M 1831 4666 
L 2547 4666 
L 4325 0 
L 3669 0 
L 3244 1197 
L 1141 1197 
L 716 0 
L 50 0 
L 1831 4666 
z
" transform="scale(0.015625)"/>
       <path id="DejaVuSans-29" d="M 513 4856 
L 1013 4856 
Q 1481 4119 1714 3412 
Q 1947 2706 1947 2009 
Q 1947 1309 1714 600 
Q 1481 -109 1013 -844 
L 513 -844 
Q 928 -128 1133 580 
Q 1338 1288 1338 2009 
Q 1338 2731 1133 3434 
Q 928 4138 513 4856 
z
" transform="scale(0.015625)"/>
       <path id="DejaVuSans-5d" d="M 1947 4863 
L 1947 -844 
L 622 -844 
L 622 -397 
L 1369 -397 
L 1369 4416 
L 622 4416 
L 622 4863 
L 1947 4863 
z
" transform="scale(0.015625)"/>
      </defs>
      <use xlink:href="#DejaVuSans-46"/>
      <use xlink:href="#DejaVuSans-6f" x="53.894531"/>
      <use xlink:href="#DejaVuSans-72" x="115.076172"/>
      <use xlink:href="#DejaVuSans-63" x="153.939453"/>
      <use xlink:href="#DejaVuSans-65" x="208.919922"/>
      <use xlink:href="#DejaVuSans-20" x="270.443359"/>
      <use xlink:href="#DejaVuSans-45" x="302.230469"/>
      <use xlink:href="#DejaVuSans-72" x="365.414062"/>
      <use xlink:href="#DejaVuSans-72" x="404.777344"/>
      <use xlink:href="#DejaVuSans-6f" x="443.640625"/>
      <use xlink:href="#DejaVuSans-72" x="504.822266"/>
      <use xlink:href="#DejaVuSans-73" x="545.935547"/>
      <use xlink:href="#DejaVuSans-20" x="598.035156"/>
      <use xlink:href="#DejaVuSans-5b" x="629.822266"/>
      <use xlink:href="#DejaVuSans-6b" x="668.835938"/>
      <use xlink:href="#DejaVuSans-4a" x="726.746094"/>
      <use xlink:href="#DejaVuSans-2f" x="756.238281"/>
      <use xlink:href="#DejaVuSans-28" x="789.929688"/>
      <use xlink:href="#DejaVuSans-6d" x="828.943359"/>
      <use xlink:href="#DejaVuSans-6f" x="926.355469"/>
      <use xlink:href="#DejaVuSans-6c" x="987.537109"/>
      <use xlink:href="#DejaVuSans-2a" x="1015.320312"/>
      <use xlink:href="#DejaVuSans-41" x="1065.320312"/>
      <use xlink:href="#DejaVuSans-29" x="1133.728516"/>
      <use xlink:href="#DejaVuSans-5d" x="1172.742188"/>
     </g>
    </g>
   </g>
   <g id="line2d_19">
    <path d="M 83.72 499.48 
L 696.24 23.76 
" clip-path="url(#p5e872d55bc)" style="fill: none; stroke-dasharray: 5.55,2.4; stroke-dashoffset: 0; stroke: #ff0000; stroke-width: 1.5"/>
   </g>
   <g id="patch_3">
    <path d="M 83.72 499.48 
L 83.72 23.76 
" style="fill: none; stroke: #000000; stroke-width: 0.8; stroke-linejoin: miter; stroke-linecap: square"/>
   </g>
   <g id="patch_4">
    <path d="M 696.24 499.48 
L 696.24 23.76 
" style="fill: none; stroke: #000000; stroke-width: 0.8; stroke-linejoin: miter; stroke-linecap: square"/>
   </g>
   <g id="patch_5">
    <path d="M 83.72 499.48 
L 696.24 499.48 
" style="fill: none; stroke: #000000; stroke-width: 0.8; stroke-linejoin: miter; stroke-linecap: square"/>
   </g>
   <g id="patch_6">
    <path d="M 83.72 23.76 
L 696.24 23.76 
" style="fill: none; stroke: #000000; stroke-width: 0.8; stroke-linejoin: miter; stroke-linecap: square"/>
   </g>
   <g id="text_21">
    <!-- Correlation in: 0.615 -->
    <g transform="translate(132.7216 46.696812) scale(0.22 -0.22)">
     <defs>
      <path id="DejaVuSans-43" d="M 4122 4306 
L 4122 3641 
Q 3803 3938 3442 4084 
Q 3081 4231 2675 4231 
Q 1875 4231 1450 3742 
Q 1025 3253 1025 2328 
Q 1025 1406 1450 917 
Q 1875 428 2675 428 
Q 3081 428 3442 575 
Q 3803 722 4122 1019 
L 4122 359 
Q 3791 134 3420 21 
Q 3050 -91 2638 -91 
Q 1578 -91 968 557 
Q 359 1206 359 2328 
Q 359 3453 968 4101 
Q 1578 4750 2638 4750 
Q 3056 4750 3426 4639 
Q 3797 4528 4122 4306 
z
" transform="scale(0.015625)"/>
      <path id="DejaVuSans-3a" d="M 750 794 
L 1409 794 
L 1409 0 
L 750 0 
L 750 794 
z
M 750 3309 
L 1409 3309 
L 1409 2516 
L 750 2516 
L 750 3309 
z
" transform="scale(0.015625)"/>
      <path id="DejaVuSans-2e" d="M 684 794 
L 1344 794 
L 1344 0 
L 684 0 
L 684 794 
z
" transform="scale(0.015625)"/>
     </defs>
     <use xlink:href="#DejaVuSans-43"/>
     <use xlink:href="#DejaVuSans-6f" x="69.824219"/>
     <use xlink:href="#DejaVuSans-72" x="131.005859"/>
     <use xlink:href="#DejaVuSans-72" x="170.369141"/>
     <use xlink:href="#DejaVuSans-65" x="209.232422"/>
     <use xlink:href="#DejaVuSans-6c" x="270.755859"/>
     <use xlink:href="#DejaVuSans-61" x="298.539062"/>
     <use xlink:href="#DejaVuSans-74" x="359.818359"/>
     <use xlink:href="#DejaVuSans-69" x="399.027344"/>
     <use xlink:href="#DejaVuSans-6f" x="426.810547"/>
     <use xlink:href="#DejaVuSans-6e" x="487.992188"/>
     <use xlink:href="#DejaVuSans-20" x="551.371094"/>
     <use xlink:href="#DejaVuSans-69" x="583.158203"/>
     <use xlink:href="#DejaVuSans-6e" x="610.941406"/>
     <use xlink:href="#DejaVuSans-3a" x="674.320312"/>
     <use xlink:href="#DejaVuSans-20" x="708.011719"/>
     <use xlink:href="#DejaVuSans-30" x="739.798828"/>
     <use xlink:href="#DejaVuSans-2e" x="803.421875"/>
     <use xlink:href="#DejaVuSans-36" x="835.208984"/>
     <use xlink:href="#DejaVuSans-31" x="898.832031"/>
     <use xlink:href="#DejaVuSans-35" x="962.455078"/>
    </g>
    <!-- Correlation Out: 0.228 -->
    <g transform="translate(132.7216 71.332) scale(0.22 -0.22)">
     <defs>
      <path id="DejaVuSans-4f" d="M 2522 4238 
Q 1834 4238 1429 3725 
Q 1025 3213 1025 2328 
Q 1025 1447 1429 934 
Q 1834 422 2522 422 
Q 3209 422 3611 934 
Q 4013 1447 4013 2328 
Q 4013 3213 3611 3725 
Q 3209 4238 2522 4238 
z
M 2522 4750 
Q 3503 4750 4090 4092 
Q 4678 3434 4678 2328 
Q 4678 1225 4090 567 
Q 3503 -91 2522 -91 
Q 1538 -91 948 565 
Q 359 1222 359 2328 
Q 359 3434 948 4092 
Q 1538 4750 2522 4750 
z
" transform="scale(0.015625)"/>
      <path id="DejaVuSans-75" d="M 544 1381 
L 544 3500 
L 1119 3500 
L 1119 1403 
Q 1119 906 1312 657 
Q 1506 409 1894 409 
Q 2359 409 2629 706 
Q 2900 1003 2900 1516 
L 2900 3500 
L 3475 3500 
L 3475 0 
L 2900 0 
L 2900 538 
Q 2691 219 2414 64 
Q 2138 -91 1772 -91 
Q 1169 -91 856 284 
Q 544 659 544 1381 
z
M 1991 3584 
L 1991 3584 
z
" transform="scale(0.015625)"/>
     </defs>
     <use xlink:href="#DejaVuSans-43"/>
     <use xlink:href="#DejaVuSans-6f" x="69.824219"/>
     <use xlink:href="#DejaVuSans-72" x="131.005859"/>
     <use xlink:href="#DejaVuSans-72" x="170.369141"/>
     <use xlink:href="#DejaVuSans-65" x="209.232422"/>
     <use xlink:href="#DejaVuSans-6c" x="270.755859"/>
     <use xlink:href="#DejaVuSans-61" x="298.539062"/>
     <use xlink:href="#DejaVuSans-74" x="359.818359"/>
     <use xlink:href="#DejaVuSans-69" x="399.027344"/>
     <use xlink:href="#DejaVuSans-6f" x="426.810547"/>
     <use xlink:href="#DejaVuSans-6e" x="487.992188"/>
     <use xlink:href="#DejaVuSans-20" x="551.371094"/>
     <use xlink:href="#DejaVuSans-4f" x="583.158203"/>
     <use xlink:href="#DejaVuSans-75" x="661.869141"/>
     <use xlink:href="#DejaVuSans-74" x="725.248047"/>
     <use xlink:href="#DejaVuSans-3a" x="764.457031"/>
     <use xlink:href="#DejaVuSans-20" x="798.148438"/>
     <use xlink:href="#DejaVuSans-30" x="829.935547"/>
     <use xlink:href="#DejaVuSans-2e" x="893.558594"/>
     <use xlink:href="#DejaVuSans-32" x="925.345703"/>
     <use xlink:href="#DejaVuSans-32" x="988.96875"/>
     <use xlink:href="#DejaVuSans-38" x="1052.591797"/>
    </g>
   </g>
   <g id="legend_1">
    <g id="patch_7">
     <path d="M 407.0225 105.94375 
L 680.84 105.94375 
Q 685.24 105.94375 685.24 101.54375 
L 685.24 39.16 
Q 685.24 34.76 680.84 34.76 
L 407.0225 34.76 
Q 402.6225 34.76 402.6225 39.16 
L 402.6225 101.54375 
Q 402.6225 105.94375 407.0225 105.94375 
z
" style="fill: #ffffff; opacity: 0.8; stroke: #cccccc; stroke-linejoin: miter"/>
    </g>
    <g id="line2d_20">
     <defs>
      <path id="m0ad0763c4d" d="M 0 2.5 
C 0.663008 2.5 1.29895 2.236584 1.767767 1.767767 
C 2.236584 1.29895 2.5 0.663008 2.5 0 
C 2.5 -0.663008 2.236584 -1.29895 1.767767 -1.767767 
C 1.29895 -2.236584 0.663008 -2.5 0 -2.5 
C -0.663008 -2.5 -1.29895 -2.236584 -1.767767 -1.767767 
C -2.236584 -1.29895 -2.5 -0.663008 -2.5 0 
C -2.5 0.663008 -2.236584 1.29895 -1.767767 1.767767 
C -1.29895 2.236584 -0.663008 2.5 0 2.5 
z
" style="stroke: #ffffff"/>
     </defs>
     <g>
      <use xlink:href="#m0ad0763c4d" x="433.4225" y="52.576562" style="fill: #0000ff; stroke: #ffffff"/>
     </g>
    </g>
    <g id="text_22">
     <!-- In Distribution -->
     <g transform="translate(473.0225 60.276562) scale(0.22 -0.22)">
      <defs>
       <path id="DejaVuSans-49" d="M 628 4666 
L 1259 4666 
L 1259 0 
L 628 0 
L 628 4666 
z
" transform="scale(0.015625)"/>
       <path id="DejaVuSans-44" d="M 1259 4147 
L 1259 519 
L 2022 519 
Q 2988 519 3436 956 
Q 3884 1394 3884 2338 
Q 3884 3275 3436 3711 
Q 2988 4147 2022 4147 
L 1259 4147 
z
M 628 4666 
L 1925 4666 
Q 3281 4666 3915 4102 
Q 4550 3538 4550 2338 
Q 4550 1131 3912 565 
Q 3275 0 1925 0 
L 628 0 
L 628 4666 
z
" transform="scale(0.015625)"/>
       <path id="DejaVuSans-62" d="M 3116 1747 
Q 3116 2381 2855 2742 
Q 2594 3103 2138 3103 
Q 1681 3103 1420 2742 
Q 1159 2381 1159 1747 
Q 1159 1113 1420 752 
Q 1681 391 2138 391 
Q 2594 391 2855 752 
Q 3116 1113 3116 1747 
z
M 1159 2969 
Q 1341 3281 1617 3432 
Q 1894 3584 2278 3584 
Q 2916 3584 3314 3078 
Q 3713 2572 3713 1747 
Q 3713 922 3314 415 
Q 2916 -91 2278 -91 
Q 1894 -91 1617 61 
Q 1341 213 1159 525 
L 1159 0 
L 581 0 
L 581 4863 
L 1159 4863 
L 1159 2969 
z
" transform="scale(0.015625)"/>
      </defs>
      <use xlink:href="#DejaVuSans-49"/>
      <use xlink:href="#DejaVuSans-6e" x="29.492188"/>
      <use xlink:href="#DejaVuSans-20" x="92.871094"/>
      <use xlink:href="#DejaVuSans-44" x="124.658203"/>
      <use xlink:href="#DejaVuSans-69" x="201.660156"/>
      <use xlink:href="#DejaVuSans-73" x="229.443359"/>
      <use xlink:href="#DejaVuSans-74" x="281.542969"/>
      <use xlink:href="#DejaVuSans-72" x="320.751953"/>
      <use xlink:href="#DejaVuSans-69" x="361.865234"/>
      <use xlink:href="#DejaVuSans-62" x="389.648438"/>
      <use xlink:href="#DejaVuSans-75" x="453.125"/>
      <use xlink:href="#DejaVuSans-74" x="516.503906"/>
      <use xlink:href="#DejaVuSans-69" x="555.712891"/>
      <use xlink:href="#DejaVuSans-6f" x="583.496094"/>
      <use xlink:href="#DejaVuSans-6e" x="644.677734"/>
     </g>
    </g>
    <g id="line2d_21">
     <defs>
      <path id="m3f35abe6e5" d="M 0 2.5 
C 0.663008 2.5 1.29895 2.236584 1.767767 1.767767 
C 2.236584 1.29895 2.5 0.663008 2.5 0 
C 2.5 -0.663008 2.236584 -1.29895 1.767767 -1.767767 
C 1.29895 -2.236584 0.663008 -2.5 0 -2.5 
C -0.663008 -2.5 -1.29895 -2.236584 -1.767767 -1.767767 
C -2.236584 -1.29895 -2.5 -0.663008 -2.5 0 
C -2.5 0.663008 -2.236584 1.29895 -1.767767 1.767767 
C -1.29895 2.236584 -0.663008 2.5 0 2.5 
z
" style="stroke: #ffffff"/>
     </defs>
     <g>
      <use xlink:href="#m3f35abe6e5" x="433.4225" y="84.868437" style="fill: #008000; stroke: #ffffff"/>
     </g>
    </g>
    <g id="text_23">
     <!-- Out of Distribution -->
     <g transform="translate(473.0225 92.568437) scale(0.22 -0.22)">
      <defs>
       <path id="DejaVuSans-66" d="M 2375 4863 
L 2375 4384 
L 1825 4384 
Q 1516 4384 1395 4259 
Q 1275 4134 1275 3809 
L 1275 3500 
L 2222 3500 
L 2222 3053 
L 1275 3053 
L 1275 0 
L 697 0 
L 697 3053 
L 147 3053 
L 147 3500 
L 697 3500 
L 697 3744 
Q 697 4328 969 4595 
Q 1241 4863 1831 4863 
L 2375 4863 
z
" transform="scale(0.015625)"/>
      </defs>
      <use xlink:href="#DejaVuSans-4f"/>
      <use xlink:href="#DejaVuSans-75" x="78.710938"/>
      <use xlink:href="#DejaVuSans-74" x="142.089844"/>
      <use xlink:href="#DejaVuSans-20" x="181.298828"/>
      <use xlink:href="#DejaVuSans-6f" x="213.085938"/>
      <use xlink:href="#DejaVuSans-66" x="274.267578"/>
      <use xlink:href="#DejaVuSans-20" x="309.472656"/>
      <use xlink:href="#DejaVuSans-44" x="341.259766"/>
      <use xlink:href="#DejaVuSans-69" x="418.261719"/>
      <use xlink:href="#DejaVuSans-73" x="446.044922"/>
      <use xlink:href="#DejaVuSans-74" x="498.144531"/>
      <use xlink:href="#DejaVuSans-72" x="537.353516"/>
      <use xlink:href="#DejaVuSans-69" x="578.466797"/>
      <use xlink:href="#DejaVuSans-62" x="606.25"/>
      <use xlink:href="#DejaVuSans-75" x="669.726562"/>
      <use xlink:href="#DejaVuSans-74" x="733.105469"/>
      <use xlink:href="#DejaVuSans-69" x="772.314453"/>
      <use xlink:href="#DejaVuSans-6f" x="800.097656"/>
      <use xlink:href="#DejaVuSans-6e" x="861.279297"/>
     </g>
    </g>
   </g>
  </g>
 </g>
 <defs>
  <clipPath id="p5e872d55bc">
   <rect x="83.72" y="23.76" width="612.52" height="475.72"/>
  </clipPath>
 </defs>
</svg>
