<?xml version="1.0" encoding="utf-8" standalone="no"?>
<!DOCTYPE svg PUBLIC "-//W3C//DTD SVG 1.1//EN"
  "http://www.w3.org/Graphics/SVG/1.1/DTD/svg11.dtd">
<svg xmlns:xlink="http://www.w3.org/1999/xlink" width="720pt" height="576pt" viewBox="0 0 720 576" xmlns="http://www.w3.org/2000/svg" version="1.1">
 <metadata>
  <rdf:RDF xmlns:dc="http://purl.org/dc/elements/1.1/" xmlns:cc="http://creativecommons.org/ns#" xmlns:rdf="http://www.w3.org/1999/02/22-rdf-syntax-ns#">
   <cc:Work>
    <dc:type rdf:resource="http://purl.org/dc/dcmitype/StillImage"/>
    <dc:date>2024-12-07T21:42:37.299528</dc:date>
    <dc:format>image/svg+xml</dc:format>
    <dc:creator>
     <cc:Agent>
      <dc:title>Matplotlib v3.8.4, https://matplotlib.org/</dc:title>
     </cc:Agent>
    </dc:creator>
   </cc:Work>
  </rdf:RDF>
 </metadata>
 <defs>
  <style type="text/css">*{stroke-linejoin: round; stroke-linecap: butt}</style>
 </defs>
 <g id="figure_1">
  <g id="patch_1">
   <path d="M 0 576 
L 720 576 
L 720 0 
L 0 0 
z
" style="fill: #ffffff"/>
  </g>
  <g id="axes_1">
   <g id="patch_2">
    <path d="M 83.72 499.48 
L 684.238926 499.48 
L 684.238926 30.419382 
L 83.72 30.419382 
z
" style="fill: #ffffff"/>
   </g>
   <g id="QuadContourSet_1">
    <path d="M 108.965692 489.101641 
L 111.079841 489.435471 
L 113.19399 489.561073 
L 115.308139 489.525961 
L 117.422288 489.352981 
L 119.536437 489.045854 
L 119.709743 489.012113 
L 121.650586 488.843262 
L 123.764735 488.600256 
L 125.878884 488.277478 
L 127.993033 487.841659 
L 130.107182 487.236677 
L 131.793571 486.57848 
L 132.221331 486.491716 
L 134.33548 485.986548 
L 136.449629 485.258259 
L 138.563778 484.155979 
L 138.583512 484.144846 
L 140.677927 483.433517 
L 142.792076 482.355394 
L 143.817966 481.711213 
L 144.906225 481.235831 
L 147.020374 480.088621 
L 148.261313 479.277579 
L 149.134523 478.822281 
L 151.248672 477.611888 
L 152.495141 476.843946 
L 153.362821 476.354447 
L 155.47697 475.195098 
L 156.948893 474.410312 
L 157.591119 474.036663 
L 159.705269 472.964904 
L 161.646018 471.976678 
L 161.819418 471.846212 
L 163.933567 470.351528 
L 164.979078 469.543045 
L 165.878367 467.109411 
L 165.180333 464.675778 
L 163.933567 462.61916 
L 163.792308 462.242144 
L 162.273137 459.808511 
L 161.819418 459.316803 
L 159.899841 457.374877 
L 159.705269 457.231277 
L 157.591119 455.90356 
L 155.47697 455.062711 
L 155.084245 454.941244 
L 153.362821 454.302947 
L 151.248672 453.695789 
L 149.134523 453.238938 
L 147.020374 452.908749 
L 144.906225 452.69523 
L 142.792076 452.591468 
L 140.677927 452.588201 
L 138.563778 452.673346 
L 136.449629 452.835037 
L 134.33548 453.064851 
L 132.221331 453.357656 
L 130.107182 453.705069 
L 127.993033 454.079915 
L 125.878884 454.415185 
L 123.764735 454.605363 
L 121.650586 454.574479 
L 119.536437 454.363932 
L 117.422288 454.101367 
L 115.308139 453.890625 
L 113.19399 453.772423 
L 111.079841 453.752802 
L 108.965692 453.835018 
L 106.851543 454.03489 
L 104.737394 454.385503 
L 102.623245 454.941244 
L 102.623245 454.941244 
L 100.509096 455.346137 
L 98.394947 455.927359 
L 96.280798 456.779362 
L 95.166537 457.374877 
L 94.166649 457.711799 
L 92.0525 458.642535 
L 90.257411 459.808511 
L 89.938351 459.955978 
L 87.824202 461.108674 
L 86.359765 462.242144 
L 85.710053 462.649891 
L 83.595904 464.327476 
L 83.21157 464.675778 
L 81.481755 466.141121 
L 80.520246 467.109411 
L 79.367606 468.359573 
L 78.332743 469.543045 
L 77.253457 471.097404 
L 76.596475 471.976678 
L 75.32281 474.410312 
L 75.139308 475.006067 
L 74.364807 476.843946 
L 73.985621 479.277579 
L 74.269279 481.711213 
L 75.139308 483.461573 
L 75.513217 484.144846 
L 77.253457 485.817367 
L 78.612121 486.57848 
L 79.367606 486.973517 
L 81.481755 487.68998 
L 83.595904 488.030812 
L 85.710053 488.136797 
L 87.824202 488.078131 
L 89.938351 487.887197 
L 92.0525 487.579816 
L 94.166649 487.181426 
L 96.280798 486.77522 
L 98.232442 486.57848 
L 98.394947 486.569724 
L 98.572188 486.57848 
L 100.509096 486.781947 
L 102.623245 487.42788 
L 104.737394 488.164386 
L 106.851543 488.723574 
L 108.612217 489.012113 
z
M 109.814017 484.144846 
L 108.965692 483.823379 
L 106.851543 482.763248 
L 104.803604 481.711213 
L 104.737394 481.681984 
L 102.623245 481.310472 
L 100.509096 481.409014 
L 98.459048 481.711213 
L 98.394947 481.723867 
L 96.280798 482.259363 
L 94.166649 482.706618 
L 92.0525 483.016322 
L 89.938351 483.160314 
L 87.824202 483.091368 
L 85.710053 482.710191 
L 83.595904 481.81439 
L 83.434427 481.711213 
L 81.481755 479.558456 
L 81.304608 479.277579 
L 80.893742 476.843946 
L 81.481755 474.410312 
L 81.481755 474.410312 
L 82.663471 471.976678 
L 83.595904 470.772225 
L 84.55107 469.543045 
L 85.710053 468.367467 
L 87.120193 467.109411 
L 87.824202 466.516307 
L 89.938351 465.024192 
L 90.532419 464.675778 
L 92.0525 463.689314 
L 94.166649 462.663896 
L 95.284345 462.242144 
L 96.280798 461.76192 
L 98.394947 460.987131 
L 100.509096 460.445553 
L 102.623245 460.072166 
L 104.737394 459.833735 
L 105.236606 459.808511 
L 106.851543 459.691582 
L 108.965692 459.730596 
L 109.72496 459.808511 
L 111.079841 459.92934 
L 113.19399 460.234924 
L 115.308139 460.517866 
L 117.422288 460.588523 
L 119.536437 460.408687 
L 121.650586 460.086253 
L 123.217861 459.808511 
L 123.764735 459.665379 
L 125.878884 459.076411 
L 127.993033 458.594721 
L 130.107182 458.225891 
L 132.221331 457.960968 
L 134.33548 457.79351 
L 136.449629 457.724015 
L 138.563778 457.75939 
L 140.677927 457.911392 
L 142.792076 458.196811 
L 144.906225 458.641579 
L 147.020374 459.290704 
L 148.286339 459.808511 
L 149.134523 460.191578 
L 151.248672 461.58526 
L 151.972974 462.242144 
L 153.084454 464.675778 
L 152.908889 467.109411 
L 151.805221 469.543045 
L 151.248672 470.228242 
L 149.95231 471.976678 
L 149.134523 472.76792 
L 147.379862 474.410312 
L 147.020374 474.705478 
L 144.906225 476.349616 
L 144.185785 476.843946 
L 142.792076 477.823877 
L 140.677927 479.001044 
L 140.108383 479.277579 
L 138.563778 480.175222 
L 136.449629 481.111235 
L 134.658834 481.711213 
L 134.33548 481.862953 
L 132.221331 482.718494 
L 130.107182 483.344214 
L 127.993033 483.81624 
L 126.107242 484.144846 
L 125.878884 484.209643 
L 123.764735 484.707256 
L 121.650586 485.062724 
L 119.536437 485.293475 
L 117.422288 485.399307 
L 115.308139 485.360526 
L 113.19399 485.131273 
L 111.079841 484.630214 
z
" clip-path="url(#p234df094c1)" style="fill: #edf4fc"/>
    <path d="M 111.079841 484.630214 
L 113.19399 485.131273 
L 115.308139 485.360526 
L 117.422288 485.399307 
L 119.536437 485.293475 
L 121.650586 485.062724 
L 123.764735 484.707256 
L 125.878884 484.209643 
L 126.107242 484.144846 
L 127.993033 483.81624 
L 130.107182 483.344214 
L 132.221331 482.718494 
L 134.33548 481.862953 
L 134.658834 481.711213 
L 136.449629 481.111235 
L 138.563778 480.175222 
L 140.108383 479.277579 
L 140.677927 479.001044 
L 142.792076 477.823877 
L 144.185785 476.843946 
L 144.906225 476.349616 
L 147.020374 474.705478 
L 147.379862 474.410312 
L 149.134523 472.76792 
L 149.95231 471.976678 
L 151.248672 470.228242 
L 151.805221 469.543045 
L 152.908889 467.109411 
L 153.084454 464.675778 
L 151.972974 462.242144 
L 151.248672 461.58526 
L 149.134523 460.191578 
L 148.286339 459.808511 
L 147.020374 459.290704 
L 144.906225 458.641579 
L 142.792076 458.196811 
L 140.677927 457.911392 
L 138.563778 457.75939 
L 136.449629 457.724015 
L 134.33548 457.79351 
L 132.221331 457.960968 
L 130.107182 458.225891 
L 127.993033 458.594721 
L 125.878884 459.076411 
L 123.764735 459.665379 
L 123.217861 459.808511 
L 121.650586 460.086253 
L 119.536437 460.408687 
L 117.422288 460.588523 
L 115.308139 460.517866 
L 113.19399 460.234924 
L 111.079841 459.92934 
L 109.72496 459.808511 
L 108.965692 459.730596 
L 106.851543 459.691582 
L 105.236606 459.808511 
L 104.737394 459.833735 
L 102.623245 460.072166 
L 100.509096 460.445553 
L 98.394947 460.987131 
L 96.280798 461.76192 
L 95.284345 462.242144 
L 94.166649 462.663896 
L 92.0525 463.689314 
L 90.532419 464.675778 
L 89.938351 465.024192 
L 87.824202 466.516307 
L 87.120193 467.109411 
L 85.710053 468.367467 
L 84.55107 469.543045 
L 83.595904 470.772225 
L 82.663471 471.976678 
L 81.481755 474.410312 
L 81.481755 474.410312 
L 80.893742 476.843946 
L 81.304608 479.277579 
L 81.481755 479.558456 
L 83.434427 481.711213 
L 83.595904 481.81439 
L 85.710053 482.710191 
L 87.824202 483.091368 
L 89.938351 483.160314 
L 92.0525 483.016322 
L 94.166649 482.706618 
L 96.280798 482.259363 
L 98.394947 481.723867 
L 98.459048 481.711213 
L 100.509096 481.409014 
L 102.623245 481.310472 
L 104.737394 481.681984 
L 104.803604 481.711213 
L 106.851543 482.763248 
L 108.965692 483.823379 
L 109.814017 484.144846 
z
M 110.331775 481.711213 
L 108.965692 480.775086 
L 106.865623 479.277579 
L 106.851543 479.266667 
L 104.737394 478.568238 
L 102.623245 478.64718 
L 100.509096 479.05214 
L 99.599324 479.277579 
L 98.394947 479.610738 
L 96.280798 480.151619 
L 94.166649 480.548636 
L 92.0525 480.764267 
L 89.938351 480.736472 
L 87.824202 480.333662 
L 85.710053 479.277579 
L 85.710053 479.277579 
L 84.301708 476.843946 
L 84.489256 474.410312 
L 85.67844 471.976678 
L 85.710053 471.936889 
L 87.667394 469.543045 
L 87.824202 469.394212 
L 89.938351 467.579935 
L 90.583668 467.109411 
L 92.0525 466.107526 
L 94.166649 464.990044 
L 94.904499 464.675778 
L 96.280798 464.029161 
L 98.394947 463.299584 
L 100.509096 462.792768 
L 102.623245 462.466958 
L 104.737394 462.316804 
L 106.851543 462.369475 
L 108.965692 462.660704 
L 111.079841 463.140284 
L 113.19399 463.549258 
L 115.308139 463.582643 
L 117.422288 463.241293 
L 119.536437 462.733837 
L 121.507852 462.242144 
L 121.650586 462.197086 
L 123.764735 461.476508 
L 125.878884 460.899227 
L 127.993033 460.458564 
L 130.107182 460.137708 
L 132.221331 459.926691 
L 134.33548 459.825475 
L 136.449629 459.842502 
L 138.563778 459.992923 
L 140.677927 460.299489 
L 142.792076 460.799059 
L 144.906225 461.55829 
L 146.272832 462.242144 
L 147.020374 462.782335 
L 148.804364 464.675778 
L 149.134523 466.658078 
L 149.20358 467.109411 
L 149.134523 467.289674 
L 148.438562 469.543045 
L 147.020374 471.517215 
L 146.718684 471.976678 
L 144.906225 473.771304 
L 144.233627 474.410312 
L 142.792076 475.545922 
L 140.826529 476.843946 
L 140.677927 476.942705 
L 138.563778 478.226203 
L 136.449629 479.189894 
L 136.234251 479.277579 
L 134.33548 480.182198 
L 132.221331 480.946545 
L 130.107182 481.533211 
L 129.342952 481.711213 
L 127.993033 482.143583 
L 125.878884 482.67583 
L 123.764735 483.068995 
L 121.650586 483.343196 
L 119.536437 483.500981 
L 117.422288 483.524712 
L 115.308139 483.368463 
L 113.19399 482.945183 
L 111.079841 482.119722 
z
" clip-path="url(#p234df094c1)" style="fill: #d9e8f5"/>
    <path d="M 111.079841 482.119722 
L 113.19399 482.945183 
L 115.308139 483.368463 
L 117.422288 483.524712 
L 119.536437 483.500981 
L 121.650586 483.343196 
L 123.764735 483.068995 
L 125.878884 482.67583 
L 127.993033 482.143583 
L 129.342952 481.711213 
L 130.107182 481.533211 
L 132.221331 480.946545 
L 134.33548 480.182198 
L 136.234251 479.277579 
L 136.449629 479.189894 
L 138.563778 478.226203 
L 140.677927 476.942705 
L 140.826529 476.843946 
L 142.792076 475.545922 
L 144.233627 474.410312 
L 144.906225 473.771304 
L 146.718684 471.976678 
L 147.020374 471.517215 
L 148.438562 469.543045 
L 149.134523 467.289674 
L 149.20358 467.109411 
L 149.134523 466.658078 
L 148.804364 464.675778 
L 147.020374 462.782335 
L 146.272832 462.242144 
L 144.906225 461.55829 
L 142.792076 460.799059 
L 140.677927 460.299489 
L 138.563778 459.992923 
L 136.449629 459.842502 
L 134.33548 459.825475 
L 132.221331 459.926691 
L 130.107182 460.137708 
L 127.993033 460.458564 
L 125.878884 460.899227 
L 123.764735 461.476508 
L 121.650586 462.197086 
L 121.507852 462.242144 
L 119.536437 462.733837 
L 117.422288 463.241293 
L 115.308139 463.582643 
L 113.19399 463.549258 
L 111.079841 463.140284 
L 108.965692 462.660704 
L 106.851543 462.369475 
L 104.737394 462.316804 
L 102.623245 462.466958 
L 100.509096 462.792768 
L 98.394947 463.299584 
L 96.280798 464.029161 
L 94.904499 464.675778 
L 94.166649 464.990044 
L 92.0525 466.107526 
L 90.583668 467.109411 
L 89.938351 467.579935 
L 87.824202 469.394212 
L 87.667394 469.543045 
L 85.710053 471.936889 
L 85.67844 471.976678 
L 84.489256 474.410312 
L 84.301708 476.843946 
L 85.710053 479.277579 
L 85.710053 479.277579 
L 87.824202 480.333662 
L 89.938351 480.736472 
L 92.0525 480.764267 
L 94.166649 480.548636 
L 96.280798 480.151619 
L 98.394947 479.610738 
L 99.599324 479.277579 
L 100.509096 479.05214 
L 102.623245 478.64718 
L 104.737394 478.568238 
L 106.851543 479.266667 
L 106.865623 479.277579 
L 108.965692 480.775086 
L 110.331775 481.711213 
z
M 116.035849 481.711213 
L 115.308139 481.593538 
L 113.19399 480.856016 
L 111.079841 479.470936 
L 110.831975 479.277579 
L 108.965692 477.087898 
L 108.634466 476.843946 
L 106.851543 475.575757 
L 104.737394 475.655054 
L 102.623245 476.24067 
L 100.904202 476.843946 
L 100.509096 476.967203 
L 98.394947 477.638962 
L 96.280798 478.165173 
L 94.166649 478.499483 
L 92.0525 478.555741 
L 89.938351 478.13572 
L 87.908001 476.843946 
L 87.824202 476.548504 
L 87.434329 474.410312 
L 87.824202 473.520592 
L 88.467334 471.976678 
L 89.938351 470.284684 
L 90.634825 469.543045 
L 92.0525 468.447739 
L 94.166649 467.109411 
L 94.166649 467.109411 
L 96.280798 466.115867 
L 98.394947 465.405311 
L 100.509096 464.924162 
L 102.620646 464.675778 
L 102.623245 464.675458 
L 102.640527 464.675778 
L 104.737394 464.725198 
L 106.851543 465.182388 
L 108.965692 466.014783 
L 111.079841 466.72078 
L 113.19399 466.716667 
L 115.308139 466.122972 
L 117.422288 465.348302 
L 119.272953 464.675778 
L 119.536437 464.574582 
L 121.650586 463.706623 
L 123.764735 463.011575 
L 125.878884 462.46757 
L 126.997523 462.242144 
L 127.993033 461.978214 
L 130.107182 461.596061 
L 132.221331 461.395052 
L 134.33548 461.366287 
L 136.449629 461.515251 
L 138.563778 461.859721 
L 140.036914 462.242144 
L 140.677927 462.423823 
L 142.792076 463.296342 
L 144.866054 464.675778 
L 144.906225 464.737252 
L 146.095867 467.109411 
L 145.659497 469.543045 
L 144.906225 470.667144 
L 144.10208 471.976678 
L 142.792076 473.260893 
L 141.564606 474.410312 
L 140.677927 475.074418 
L 138.563778 476.460423 
L 137.905144 476.843946 
L 136.449629 477.66327 
L 134.33548 478.626352 
L 132.556984 479.277579 
L 132.221331 479.419814 
L 130.107182 480.190675 
L 127.993033 480.781777 
L 125.878884 481.236809 
L 123.764735 481.580197 
L 122.59989 481.711213 
L 121.650586 481.856185 
L 119.536437 482.001556 
L 117.422288 481.932789 
z
" clip-path="url(#p234df094c1)" style="fill: #c7dcef"/>
    <path d="M 117.422288 481.932789 
L 119.536437 482.001556 
L 121.650586 481.856185 
L 122.59989 481.711213 
L 123.764735 481.580197 
L 125.878884 481.236809 
L 127.993033 480.781777 
L 130.107182 480.190675 
L 132.221331 479.419814 
L 132.556984 479.277579 
L 134.33548 478.626352 
L 136.449629 477.66327 
L 137.905144 476.843946 
L 138.563778 476.460423 
L 140.677927 475.074418 
L 141.564606 474.410312 
L 142.792076 473.260893 
L 144.10208 471.976678 
L 144.906225 470.667144 
L 145.659497 469.543045 
L 146.095867 467.109411 
L 144.906225 464.737252 
L 144.866054 464.675778 
L 142.792076 463.296342 
L 140.677927 462.423823 
L 140.036914 462.242144 
L 138.563778 461.859721 
L 136.449629 461.515251 
L 134.33548 461.366287 
L 132.221331 461.395052 
L 130.107182 461.596061 
L 127.993033 461.978214 
L 126.997523 462.242144 
L 125.878884 462.46757 
L 123.764735 463.011575 
L 121.650586 463.706623 
L 119.536437 464.574582 
L 119.272953 464.675778 
L 117.422288 465.348302 
L 115.308139 466.122972 
L 113.19399 466.716667 
L 111.079841 466.72078 
L 108.965692 466.014783 
L 106.851543 465.182388 
L 104.737394 464.725198 
L 102.640527 464.675778 
L 102.623245 464.675458 
L 102.620646 464.675778 
L 100.509096 464.924162 
L 98.394947 465.405311 
L 96.280798 466.115867 
L 94.166649 467.109411 
L 94.166649 467.109411 
L 92.0525 468.447739 
L 90.634825 469.543045 
L 89.938351 470.284684 
L 88.467334 471.976678 
L 87.824202 473.520592 
L 87.434329 474.410312 
L 87.824202 476.548504 
L 87.908001 476.843946 
L 89.938351 478.13572 
L 92.0525 478.555741 
L 94.166649 478.499483 
L 96.280798 478.165173 
L 98.394947 477.638962 
L 100.509096 476.967203 
L 100.904202 476.843946 
L 102.623245 476.24067 
L 104.737394 475.655054 
L 106.851543 475.575757 
L 108.634466 476.843946 
L 108.965692 477.087898 
L 110.831975 479.277579 
L 111.079841 479.470936 
L 113.19399 480.856016 
L 115.308139 481.593538 
L 116.035849 481.711213 
z
M 112.911352 479.277579 
L 111.079841 477.076824 
L 110.881019 476.843946 
L 109.726707 474.410312 
L 108.965692 472.099255 
L 106.851543 472.449262 
L 104.737394 473.506823 
L 103.242578 474.410312 
L 102.623245 474.645476 
L 100.509096 475.51167 
L 98.394947 476.27278 
L 96.436151 476.843946 
L 96.280798 476.883463 
L 94.166649 477.138444 
L 92.0525 476.99304 
L 91.586846 476.843946 
L 89.938351 475.283205 
L 89.53539 474.410312 
L 89.938351 473.271729 
L 90.385632 471.976678 
L 92.0525 470.205515 
L 92.74299 469.543045 
L 94.166649 468.613973 
L 96.280798 467.524226 
L 97.34822 467.109411 
L 98.394947 466.756683 
L 100.509096 466.358187 
L 102.623245 466.290567 
L 104.737394 466.635601 
L 106.021832 467.109411 
L 106.851543 467.919475 
L 108.645537 469.543045 
L 108.965692 471.462206 
L 111.079841 469.969496 
L 111.478884 469.543045 
L 113.19399 468.78109 
L 115.308139 467.63633 
L 116.225781 467.109411 
L 117.422288 466.532863 
L 119.536437 465.535272 
L 121.650586 464.71188 
L 121.751022 464.675778 
L 123.764735 463.879102 
L 125.878884 463.253176 
L 127.993033 462.803267 
L 130.107182 462.507682 
L 132.221331 462.364399 
L 134.33548 462.387335 
L 136.449629 462.603438 
L 138.563778 463.054546 
L 140.677927 463.81001 
L 142.298505 464.675778 
L 142.792076 465.171994 
L 144.172503 467.109411 
L 144.003157 469.543045 
L 142.792076 471.5052 
L 142.524637 471.976678 
L 140.677927 473.74995 
L 139.955035 474.410312 
L 138.563778 475.386357 
L 136.449629 476.644078 
L 136.077265 476.843946 
L 134.33548 477.729095 
L 132.221331 478.589551 
L 130.107182 479.277579 
L 130.107182 479.277579 
L 127.993033 479.956323 
L 125.878884 480.467173 
L 123.764735 480.835331 
L 121.650586 481.065105 
L 119.536437 481.135296 
L 117.422288 480.986336 
L 115.308139 480.498032 
L 113.19399 479.46869 
z
" clip-path="url(#p234df094c1)" style="fill: #add0e6"/>
    <path d="M 113.19399 479.46869 
L 115.308139 480.498032 
L 117.422288 480.986336 
L 119.536437 481.135296 
L 121.650586 481.065105 
L 123.764735 480.835331 
L 125.878884 480.467173 
L 127.993033 479.956323 
L 130.107182 479.277579 
L 130.107182 479.277579 
L 132.221331 478.589551 
L 134.33548 477.729095 
L 136.077265 476.843946 
L 136.449629 476.644078 
L 138.563778 475.386357 
L 139.955035 474.410312 
L 140.677927 473.74995 
L 142.524637 471.976678 
L 142.792076 471.5052 
L 144.003157 469.543045 
L 144.172503 467.109411 
L 142.792076 465.171994 
L 142.298505 464.675778 
L 140.677927 463.81001 
L 138.563778 463.054546 
L 136.449629 462.603438 
L 134.33548 462.387335 
L 132.221331 462.364399 
L 130.107182 462.507682 
L 127.993033 462.803267 
L 125.878884 463.253176 
L 123.764735 463.879102 
L 121.751022 464.675778 
L 121.650586 464.71188 
L 119.536437 465.535272 
L 117.422288 466.532863 
L 116.225781 467.109411 
L 115.308139 467.63633 
L 113.19399 468.78109 
L 111.478884 469.543045 
L 111.079841 469.969496 
L 108.965692 471.462206 
L 108.645537 469.543045 
L 106.851543 467.919475 
L 106.021832 467.109411 
L 104.737394 466.635601 
L 102.623245 466.290567 
L 100.509096 466.358187 
L 98.394947 466.756683 
L 97.34822 467.109411 
L 96.280798 467.524226 
L 94.166649 468.613973 
L 92.74299 469.543045 
L 92.0525 470.205515 
L 90.385632 471.976678 
L 89.938351 473.271729 
L 89.53539 474.410312 
L 89.938351 475.283205 
L 91.586846 476.843946 
L 92.0525 476.99304 
L 94.166649 477.138444 
L 96.280798 476.883463 
L 96.436151 476.843946 
L 98.394947 476.27278 
L 100.509096 475.51167 
L 102.623245 474.645476 
L 103.242578 474.410312 
L 104.737394 473.506823 
L 106.851543 472.449262 
L 108.965692 472.099255 
L 109.726707 474.410312 
L 110.881019 476.843946 
L 111.079841 477.076824 
L 112.911352 479.277579 
z
M 115.586906 479.277579 
L 115.308139 479.136782 
L 113.19399 477.223559 
L 112.875038 476.843946 
L 112.212758 474.410312 
L 112.861562 471.976678 
L 113.19399 471.607548 
L 115.0141 469.543045 
L 115.308139 469.350525 
L 117.422288 467.883805 
L 118.707785 467.109411 
L 119.536437 466.670805 
L 121.650586 465.66906 
L 123.764735 464.886508 
L 124.465999 464.675778 
L 125.878884 464.207195 
L 127.993033 463.718359 
L 130.107182 463.432655 
L 132.221331 463.342525 
L 134.33548 463.461013 
L 136.449629 463.818547 
L 138.563778 464.466342 
L 139.058433 464.675778 
L 140.677927 465.798901 
L 141.932343 467.109411 
L 142.116358 469.543045 
L 140.755945 471.976678 
L 140.677927 472.051594 
L 138.563778 474.016198 
L 138.11763 474.410312 
L 136.449629 475.493218 
L 134.33548 476.648145 
L 133.93505 476.843946 
L 132.221331 477.621413 
L 130.107182 478.39404 
L 127.993033 479.009187 
L 126.847076 479.277579 
L 125.878884 479.532546 
L 123.764735 479.930785 
L 121.650586 480.149197 
L 119.536437 480.157546 
L 117.422288 479.879563 
z
M 93.172542 474.410312 
L 93.182118 471.976678 
L 94.166649 471.060254 
L 96.028033 469.543045 
L 96.280798 469.416732 
L 98.394947 468.775695 
L 100.509096 468.584624 
L 102.623245 469.121564 
L 103.246621 469.543045 
L 102.623245 471.976678 
L 102.623245 471.976678 
L 100.509096 473.295385 
L 98.614585 474.410312 
L 98.394947 474.48859 
L 96.280798 474.916766 
L 94.166649 474.846312 
z
" clip-path="url(#p234df094c1)" style="fill: #92c4de"/>
    <path d="M 117.422288 479.879563 
L 119.536437 480.157546 
L 121.650586 480.149197 
L 123.764735 479.930785 
L 125.878884 479.532546 
L 126.847076 479.277579 
L 127.993033 479.009187 
L 130.107182 478.39404 
L 132.221331 477.621413 
L 133.93505 476.843946 
L 134.33548 476.648145 
L 136.449629 475.493218 
L 138.11763 474.410312 
L 138.563778 474.016198 
L 140.677927 472.051594 
L 140.755945 471.976678 
L 142.116358 469.543045 
L 141.932343 467.109411 
L 140.677927 465.798901 
L 139.058433 464.675778 
L 138.563778 464.466342 
L 136.449629 463.818547 
L 134.33548 463.461013 
L 132.221331 463.342525 
L 130.107182 463.432655 
L 127.993033 463.718359 
L 125.878884 464.207195 
L 124.465999 464.675778 
L 123.764735 464.886508 
L 121.650586 465.66906 
L 119.536437 466.670805 
L 118.707785 467.109411 
L 117.422288 467.883805 
L 115.308139 469.350525 
L 115.0141 469.543045 
L 113.19399 471.607548 
L 112.861562 471.976678 
L 112.212758 474.410312 
L 112.875038 476.843946 
L 113.19399 477.223559 
L 115.308139 479.136782 
L 115.586906 479.277579 
z
M 121.213062 479.277579 
L 119.536437 479.234866 
L 117.422288 478.764549 
L 115.308139 477.533094 
L 114.584573 476.843946 
L 113.884078 474.410312 
L 114.625083 471.976678 
L 115.308139 471.198139 
L 116.803477 469.543045 
L 117.422288 469.09987 
L 119.536437 467.703962 
L 120.58488 467.109411 
L 121.650586 466.569723 
L 123.764735 465.699884 
L 125.878884 465.050764 
L 127.59198 464.675778 
L 127.993033 464.579419 
L 130.107182 464.303011 
L 132.221331 464.262897 
L 134.33548 464.471295 
L 135.280809 464.675778 
L 136.449629 465.016054 
L 138.563778 466.09556 
L 139.836445 467.109411 
L 140.40594 469.543045 
L 139.17112 471.976678 
L 138.563778 472.542738 
L 136.449629 474.410312 
L 136.449629 474.410312 
L 134.33548 475.666285 
L 132.221331 476.710028 
L 131.914885 476.843946 
L 130.107182 477.56267 
L 127.993033 478.227045 
L 125.878884 478.734959 
L 123.764735 479.095576 
L 121.749051 479.277579 
L 121.650586 479.287369 
z
M 94.166649 474.846312 
L 96.280798 474.916766 
L 98.394947 474.48859 
L 98.614585 474.410312 
L 100.509096 473.295385 
L 102.623245 471.976678 
L 102.623245 471.976678 
L 103.246621 469.543045 
L 102.623245 469.121564 
L 100.509096 468.584624 
L 98.394947 468.775695 
L 96.280798 469.416732 
L 96.028033 469.543045 
L 94.166649 471.060254 
L 93.182118 471.976678 
L 93.172542 474.410312 
z
" clip-path="url(#p234df094c1)" style="fill: #72b2d8"/>
    <path d="M 121.650586 479.287369 
L 121.749051 479.277579 
L 123.764735 479.095576 
L 125.878884 478.734959 
L 127.993033 478.227045 
L 130.107182 477.56267 
L 131.914885 476.843946 
L 132.221331 476.710028 
L 134.33548 475.666285 
L 136.449629 474.410312 
L 136.449629 474.410312 
L 138.563778 472.542738 
L 139.17112 471.976678 
L 140.40594 469.543045 
L 139.836445 467.109411 
L 138.563778 466.09556 
L 136.449629 465.016054 
L 135.280809 464.675778 
L 134.33548 464.471295 
L 132.221331 464.262897 
L 130.107182 464.303011 
L 127.993033 464.579419 
L 127.59198 464.675778 
L 125.878884 465.050764 
L 123.764735 465.699884 
L 121.650586 466.569723 
L 120.58488 467.109411 
L 119.536437 467.703962 
L 117.422288 469.09987 
L 116.803477 469.543045 
L 115.308139 471.198139 
L 114.625083 471.976678 
L 113.884078 474.410312 
L 114.584573 476.843946 
L 115.308139 477.533094 
L 117.422288 478.764549 
L 119.536437 479.234866 
L 121.213062 479.277579 
z
M 119.251413 476.843946 
L 117.422288 474.848589 
L 117.194916 474.410312 
L 117.422288 473.638996 
L 117.890926 471.976678 
L 119.536437 470.24309 
L 120.268707 469.543045 
L 121.650586 468.684128 
L 123.764735 467.638812 
L 125.160054 467.109411 
L 125.878884 466.871674 
L 127.993033 466.449561 
L 130.107182 466.313021 
L 132.221331 466.496712 
L 134.33548 467.074975 
L 134.414656 467.109411 
L 136.449629 469.543045 
L 135.518202 471.976678 
L 134.33548 472.986134 
L 132.555342 474.410312 
L 132.221331 474.58897 
L 130.107182 475.566368 
L 127.993033 476.359282 
L 126.338128 476.843946 
L 125.878884 476.961182 
L 123.764735 477.278904 
L 121.650586 477.318027 
L 119.536437 476.957321 
z
" clip-path="url(#p234df094c1)" style="fill: #4695c8"/>
    <path d="M 119.536437 476.957321 
L 121.650586 477.318027 
L 123.764735 477.278904 
L 125.878884 476.961182 
L 126.338128 476.843946 
L 127.993033 476.359282 
L 130.107182 475.566368 
L 132.221331 474.58897 
L 132.555342 474.410312 
L 134.33548 472.986134 
L 135.518202 471.976678 
L 136.449629 469.543045 
L 134.414656 467.109411 
L 134.33548 467.074975 
L 132.221331 466.496712 
L 130.107182 466.313021 
L 127.993033 466.449561 
L 125.878884 466.871674 
L 125.160054 467.109411 
L 123.764735 467.638812 
L 121.650586 468.684128 
L 120.268707 469.543045 
L 119.536437 470.24309 
L 117.890926 471.976678 
L 117.422288 473.638996 
L 117.194916 474.410312 
L 117.422288 474.848589 
L 119.251413 476.843946 
z
M 120.539945 474.410312 
L 120.664523 471.976678 
L 121.650586 471.044355 
L 123.470483 469.543045 
L 123.764735 469.395656 
L 125.878884 468.682589 
L 127.993033 468.330782 
L 130.107182 468.447825 
L 132.221331 469.280244 
L 132.570287 469.543045 
L 132.221331 471.976678 
L 132.221331 471.976678 
L 130.107182 473.469276 
L 128.626059 474.410312 
L 127.993033 474.647876 
L 125.878884 475.180684 
L 123.764735 475.384857 
L 121.650586 475.051706 
z
" clip-path="url(#p234df094c1)" style="fill: #1b69af"/>
    <path d="M 121.650586 475.051706 
L 123.764735 475.384857 
L 125.878884 475.180684 
L 127.993033 474.647876 
L 128.626059 474.410312 
L 130.107182 473.469276 
L 132.221331 471.976678 
L 132.221331 471.976678 
L 132.570287 469.543045 
L 132.221331 469.280244 
L 130.107182 468.447825 
L 127.993033 468.330782 
L 125.878884 468.682589 
L 123.764735 469.395656 
L 123.470483 469.543045 
L 121.650586 471.044355 
L 120.664523 471.976678 
L 120.539945 474.410312 
z
" clip-path="url(#p234df094c1)" style="fill: #084387"/>
   </g>
   <g id="matplotlib.axis_1">
    <g id="xtick_1">
     <g id="line2d_1">
      <defs>
       <path id="m2f3887aeb7" d="M 0 0 
L 0 3.5 
" style="stroke: #000000; stroke-width: 0.8"/>
      </defs>
      <g>
       <use xlink:href="#m2f3887aeb7" x="101.600667" y="499.48" style="stroke: #000000; stroke-width: 0.8"/>
      </g>
     </g>
     <g id="text_1">
      <!-- 0 -->
      <g transform="translate(94.601917 523.196563) scale(0.22 -0.22)">
       <defs>
        <path id="DejaVuSans-30" d="M 2034 4250 
Q 1547 4250 1301 3770 
Q 1056 3291 1056 2328 
Q 1056 1369 1301 889 
Q 1547 409 2034 409 
Q 2525 409 2770 889 
Q 3016 1369 3016 2328 
Q 3016 3291 2770 3770 
Q 2525 4250 2034 4250 
z
M 2034 4750 
Q 2819 4750 3233 4129 
Q 3647 3509 3647 2328 
Q 3647 1150 3233 529 
Q 2819 -91 2034 -91 
Q 1250 -91 836 529 
Q 422 1150 422 2328 
Q 422 3509 836 4129 
Q 1250 4750 2034 4750 
z
" transform="scale(0.015625)"/>
       </defs>
       <use xlink:href="#DejaVuSans-30"/>
      </g>
     </g>
    </g>
    <g id="xtick_2">
     <g id="line2d_2">
      <g>
       <use xlink:href="#m2f3887aeb7" x="184.521234" y="499.48" style="stroke: #000000; stroke-width: 0.8"/>
      </g>
     </g>
     <g id="text_2">
      <!-- 10 -->
      <g transform="translate(170.523734 523.196563) scale(0.22 -0.22)">
       <defs>
        <path id="DejaVuSans-31" d="M 794 531 
L 1825 531 
L 1825 4091 
L 703 3866 
L 703 4441 
L 1819 4666 
L 2450 4666 
L 2450 531 
L 3481 531 
L 3481 0 
L 794 0 
L 794 531 
z
" transform="scale(0.015625)"/>
       </defs>
       <use xlink:href="#DejaVuSans-31"/>
       <use xlink:href="#DejaVuSans-30" x="63.623047"/>
      </g>
     </g>
    </g>
    <g id="xtick_3">
     <g id="line2d_3">
      <g>
       <use xlink:href="#m2f3887aeb7" x="267.441801" y="499.48" style="stroke: #000000; stroke-width: 0.8"/>
      </g>
     </g>
     <g id="text_3">
      <!-- 20 -->
      <g transform="translate(253.444301 523.196563) scale(0.22 -0.22)">
       <defs>
        <path id="DejaVuSans-32" d="M 1228 531 
L 3431 531 
L 3431 0 
L 469 0 
L 469 531 
Q 828 903 1448 1529 
Q 2069 2156 2228 2338 
Q 2531 2678 2651 2914 
Q 2772 3150 2772 3378 
Q 2772 3750 2511 3984 
Q 2250 4219 1831 4219 
Q 1534 4219 1204 4116 
Q 875 4013 500 3803 
L 500 4441 
Q 881 4594 1212 4672 
Q 1544 4750 1819 4750 
Q 2544 4750 2975 4387 
Q 3406 4025 3406 3419 
Q 3406 3131 3298 2873 
Q 3191 2616 2906 2266 
Q 2828 2175 2409 1742 
Q 1991 1309 1228 531 
z
" transform="scale(0.015625)"/>
       </defs>
       <use xlink:href="#DejaVuSans-32"/>
       <use xlink:href="#DejaVuSans-30" x="63.623047"/>
      </g>
     </g>
    </g>
    <g id="xtick_4">
     <g id="line2d_4">
      <g>
       <use xlink:href="#m2f3887aeb7" x="350.362368" y="499.48" style="stroke: #000000; stroke-width: 0.8"/>
      </g>
     </g>
     <g id="text_4">
      <!-- 30 -->
      <g transform="translate(336.364868 523.196563) scale(0.22 -0.22)">
       <defs>
        <path id="DejaVuSans-33" d="M 2597 2516 
Q 3050 2419 3304 2112 
Q 3559 1806 3559 1356 
Q 3559 666 3084 287 
Q 2609 -91 1734 -91 
Q 1441 -91 1130 -33 
Q 819 25 488 141 
L 488 750 
Q 750 597 1062 519 
Q 1375 441 1716 441 
Q 2309 441 2620 675 
Q 2931 909 2931 1356 
Q 2931 1769 2642 2001 
Q 2353 2234 1838 2234 
L 1294 2234 
L 1294 2753 
L 1863 2753 
Q 2328 2753 2575 2939 
Q 2822 3125 2822 3475 
Q 2822 3834 2567 4026 
Q 2313 4219 1838 4219 
Q 1578 4219 1281 4162 
Q 984 4106 628 3988 
L 628 4550 
Q 988 4650 1302 4700 
Q 1616 4750 1894 4750 
Q 2613 4750 3031 4423 
Q 3450 4097 3450 3541 
Q 3450 3153 3228 2886 
Q 3006 2619 2597 2516 
z
" transform="scale(0.015625)"/>
       </defs>
       <use xlink:href="#DejaVuSans-33"/>
       <use xlink:href="#DejaVuSans-30" x="63.623047"/>
      </g>
     </g>
    </g>
    <g id="xtick_5">
     <g id="line2d_5">
      <g>
       <use xlink:href="#m2f3887aeb7" x="433.282935" y="499.48" style="stroke: #000000; stroke-width: 0.8"/>
      </g>
     </g>
     <g id="text_5">
      <!-- 40 -->
      <g transform="translate(419.285435 523.196563) scale(0.22 -0.22)">
       <defs>
        <path id="DejaVuSans-34" d="M 2419 4116 
L 825 1625 
L 2419 1625 
L 2419 4116 
z
M 2253 4666 
L 3047 4666 
L 3047 1625 
L 3713 1625 
L 3713 1100 
L 3047 1100 
L 3047 0 
L 2419 0 
L 2419 1100 
L 313 1100 
L 313 1709 
L 2253 4666 
z
" transform="scale(0.015625)"/>
       </defs>
       <use xlink:href="#DejaVuSans-34"/>
       <use xlink:href="#DejaVuSans-30" x="63.623047"/>
      </g>
     </g>
    </g>
    <g id="xtick_6">
     <g id="line2d_6">
      <g>
       <use xlink:href="#m2f3887aeb7" x="516.203502" y="499.48" style="stroke: #000000; stroke-width: 0.8"/>
      </g>
     </g>
     <g id="text_6">
      <!-- 50 -->
      <g transform="translate(502.206002 523.196563) scale(0.22 -0.22)">
       <defs>
        <path id="DejaVuSans-35" d="M 691 4666 
L 3169 4666 
L 3169 4134 
L 1269 4134 
L 1269 2991 
Q 1406 3038 1543 3061 
Q 1681 3084 1819 3084 
Q 2600 3084 3056 2656 
Q 3513 2228 3513 1497 
Q 3513 744 3044 326 
Q 2575 -91 1722 -91 
Q 1428 -91 1123 -41 
Q 819 9 494 109 
L 494 744 
Q 775 591 1075 516 
Q 1375 441 1709 441 
Q 2250 441 2565 725 
Q 2881 1009 2881 1497 
Q 2881 1984 2565 2268 
Q 2250 2553 1709 2553 
Q 1456 2553 1204 2497 
Q 953 2441 691 2322 
L 691 4666 
z
" transform="scale(0.015625)"/>
       </defs>
       <use xlink:href="#DejaVuSans-35"/>
       <use xlink:href="#DejaVuSans-30" x="63.623047"/>
      </g>
     </g>
    </g>
    <g id="xtick_7">
     <g id="line2d_7">
      <g>
       <use xlink:href="#m2f3887aeb7" x="599.124069" y="499.48" style="stroke: #000000; stroke-width: 0.8"/>
      </g>
     </g>
     <g id="text_7">
      <!-- 60 -->
      <g transform="translate(585.126569 523.196563) scale(0.22 -0.22)">
       <defs>
        <path id="DejaVuSans-36" d="M 2113 2584 
Q 1688 2584 1439 2293 
Q 1191 2003 1191 1497 
Q 1191 994 1439 701 
Q 1688 409 2113 409 
Q 2538 409 2786 701 
Q 3034 994 3034 1497 
Q 3034 2003 2786 2293 
Q 2538 2584 2113 2584 
z
M 3366 4563 
L 3366 3988 
Q 3128 4100 2886 4159 
Q 2644 4219 2406 4219 
Q 1781 4219 1451 3797 
Q 1122 3375 1075 2522 
Q 1259 2794 1537 2939 
Q 1816 3084 2150 3084 
Q 2853 3084 3261 2657 
Q 3669 2231 3669 1497 
Q 3669 778 3244 343 
Q 2819 -91 2113 -91 
Q 1303 -91 875 529 
Q 447 1150 447 2328 
Q 447 3434 972 4092 
Q 1497 4750 2381 4750 
Q 2619 4750 2861 4703 
Q 3103 4656 3366 4563 
z
" transform="scale(0.015625)"/>
       </defs>
       <use xlink:href="#DejaVuSans-36"/>
       <use xlink:href="#DejaVuSans-30" x="63.623047"/>
      </g>
     </g>
    </g>
    <g id="xtick_8">
     <g id="line2d_8">
      <g>
       <use xlink:href="#m2f3887aeb7" x="682.044636" y="499.48" style="stroke: #000000; stroke-width: 0.8"/>
      </g>
     </g>
     <g id="text_8">
      <!-- 70 -->
      <g transform="translate(668.047136 523.196563) scale(0.22 -0.22)">
       <defs>
        <path id="DejaVuSans-37" d="M 525 4666 
L 3525 4666 
L 3525 4397 
L 1831 0 
L 1172 0 
L 2766 4134 
L 525 4134 
L 525 4666 
z
" transform="scale(0.015625)"/>
       </defs>
       <use xlink:href="#DejaVuSans-37"/>
       <use xlink:href="#DejaVuSans-30" x="63.623047"/>
      </g>
     </g>
    </g>
    <g id="text_9">
     <!-- Force Uncertainties -->
     <g transform="translate(277.425557 548.488438) scale(0.22 -0.22)">
      <defs>
       <path id="DejaVuSans-46" d="M 628 4666 
L 3309 4666 
L 3309 4134 
L 1259 4134 
L 1259 2759 
L 3109 2759 
L 3109 2228 
L 1259 2228 
L 1259 0 
L 628 0 
L 628 4666 
z
" transform="scale(0.015625)"/>
       <path id="DejaVuSans-6f" d="M 1959 3097 
Q 1497 3097 1228 2736 
Q 959 2375 959 1747 
Q 959 1119 1226 758 
Q 1494 397 1959 397 
Q 2419 397 2687 759 
Q 2956 1122 2956 1747 
Q 2956 2369 2687 2733 
Q 2419 3097 1959 3097 
z
M 1959 3584 
Q 2709 3584 3137 3096 
Q 3566 2609 3566 1747 
Q 3566 888 3137 398 
Q 2709 -91 1959 -91 
Q 1206 -91 779 398 
Q 353 888 353 1747 
Q 353 2609 779 3096 
Q 1206 3584 1959 3584 
z
" transform="scale(0.015625)"/>
       <path id="DejaVuSans-72" d="M 2631 2963 
Q 2534 3019 2420 3045 
Q 2306 3072 2169 3072 
Q 1681 3072 1420 2755 
Q 1159 2438 1159 1844 
L 1159 0 
L 581 0 
L 581 3500 
L 1159 3500 
L 1159 2956 
Q 1341 3275 1631 3429 
Q 1922 3584 2338 3584 
Q 2397 3584 2469 3576 
Q 2541 3569 2628 3553 
L 2631 2963 
z
" transform="scale(0.015625)"/>
       <path id="DejaVuSans-63" d="M 3122 3366 
L 3122 2828 
Q 2878 2963 2633 3030 
Q 2388 3097 2138 3097 
Q 1578 3097 1268 2742 
Q 959 2388 959 1747 
Q 959 1106 1268 751 
Q 1578 397 2138 397 
Q 2388 397 2633 464 
Q 2878 531 3122 666 
L 3122 134 
Q 2881 22 2623 -34 
Q 2366 -91 2075 -91 
Q 1284 -91 818 406 
Q 353 903 353 1747 
Q 353 2603 823 3093 
Q 1294 3584 2113 3584 
Q 2378 3584 2631 3529 
Q 2884 3475 3122 3366 
z
" transform="scale(0.015625)"/>
       <path id="DejaVuSans-65" d="M 3597 1894 
L 3597 1613 
L 953 1613 
Q 991 1019 1311 708 
Q 1631 397 2203 397 
Q 2534 397 2845 478 
Q 3156 559 3463 722 
L 3463 178 
Q 3153 47 2828 -22 
Q 2503 -91 2169 -91 
Q 1331 -91 842 396 
Q 353 884 353 1716 
Q 353 2575 817 3079 
Q 1281 3584 2069 3584 
Q 2775 3584 3186 3129 
Q 3597 2675 3597 1894 
z
M 3022 2063 
Q 3016 2534 2758 2815 
Q 2500 3097 2075 3097 
Q 1594 3097 1305 2825 
Q 1016 2553 972 2059 
L 3022 2063 
z
" transform="scale(0.015625)"/>
       <path id="DejaVuSans-20" transform="scale(0.015625)"/>
       <path id="DejaVuSans-55" d="M 556 4666 
L 1191 4666 
L 1191 1831 
Q 1191 1081 1462 751 
Q 1734 422 2344 422 
Q 2950 422 3222 751 
Q 3494 1081 3494 1831 
L 3494 4666 
L 4128 4666 
L 4128 1753 
Q 4128 841 3676 375 
Q 3225 -91 2344 -91 
Q 1459 -91 1007 375 
Q 556 841 556 1753 
L 556 4666 
z
" transform="scale(0.015625)"/>
       <path id="DejaVuSans-6e" d="M 3513 2113 
L 3513 0 
L 2938 0 
L 2938 2094 
Q 2938 2591 2744 2837 
Q 2550 3084 2163 3084 
Q 1697 3084 1428 2787 
Q 1159 2491 1159 1978 
L 1159 0 
L 581 0 
L 581 3500 
L 1159 3500 
L 1159 2956 
Q 1366 3272 1645 3428 
Q 1925 3584 2291 3584 
Q 2894 3584 3203 3211 
Q 3513 2838 3513 2113 
z
" transform="scale(0.015625)"/>
       <path id="DejaVuSans-74" d="M 1172 4494 
L 1172 3500 
L 2356 3500 
L 2356 3053 
L 1172 3053 
L 1172 1153 
Q 1172 725 1289 603 
Q 1406 481 1766 481 
L 2356 481 
L 2356 0 
L 1766 0 
Q 1100 0 847 248 
Q 594 497 594 1153 
L 594 3053 
L 172 3053 
L 172 3500 
L 594 3500 
L 594 4494 
L 1172 4494 
z
" transform="scale(0.015625)"/>
       <path id="DejaVuSans-61" d="M 2194 1759 
Q 1497 1759 1228 1600 
Q 959 1441 959 1056 
Q 959 750 1161 570 
Q 1363 391 1709 391 
Q 2188 391 2477 730 
Q 2766 1069 2766 1631 
L 2766 1759 
L 2194 1759 
z
M 3341 1997 
L 3341 0 
L 2766 0 
L 2766 531 
Q 2569 213 2275 61 
Q 1981 -91 1556 -91 
Q 1019 -91 701 211 
Q 384 513 384 1019 
Q 384 1609 779 1909 
Q 1175 2209 1959 2209 
L 2766 2209 
L 2766 2266 
Q 2766 2663 2505 2880 
Q 2244 3097 1772 3097 
Q 1472 3097 1187 3025 
Q 903 2953 641 2809 
L 641 3341 
Q 956 3463 1253 3523 
Q 1550 3584 1831 3584 
Q 2591 3584 2966 3190 
Q 3341 2797 3341 1997 
z
" transform="scale(0.015625)"/>
       <path id="DejaVuSans-69" d="M 603 3500 
L 1178 3500 
L 1178 0 
L 603 0 
L 603 3500 
z
M 603 4863 
L 1178 4863 
L 1178 4134 
L 603 4134 
L 603 4863 
z
" transform="scale(0.015625)"/>
       <path id="DejaVuSans-73" d="M 2834 3397 
L 2834 2853 
Q 2591 2978 2328 3040 
Q 2066 3103 1784 3103 
Q 1356 3103 1142 2972 
Q 928 2841 928 2578 
Q 928 2378 1081 2264 
Q 1234 2150 1697 2047 
L 1894 2003 
Q 2506 1872 2764 1633 
Q 3022 1394 3022 966 
Q 3022 478 2636 193 
Q 2250 -91 1575 -91 
Q 1294 -91 989 -36 
Q 684 19 347 128 
L 347 722 
Q 666 556 975 473 
Q 1284 391 1588 391 
Q 1994 391 2212 530 
Q 2431 669 2431 922 
Q 2431 1156 2273 1281 
Q 2116 1406 1581 1522 
L 1381 1569 
Q 847 1681 609 1914 
Q 372 2147 372 2553 
Q 372 3047 722 3315 
Q 1072 3584 1716 3584 
Q 2034 3584 2315 3537 
Q 2597 3491 2834 3397 
z
" transform="scale(0.015625)"/>
      </defs>
      <use xlink:href="#DejaVuSans-46"/>
      <use xlink:href="#DejaVuSans-6f" x="53.894531"/>
      <use xlink:href="#DejaVuSans-72" x="115.076172"/>
      <use xlink:href="#DejaVuSans-63" x="153.939453"/>
      <use xlink:href="#DejaVuSans-65" x="208.919922"/>
      <use xlink:href="#DejaVuSans-20" x="270.443359"/>
      <use xlink:href="#DejaVuSans-55" x="302.230469"/>
      <use xlink:href="#DejaVuSans-6e" x="375.423828"/>
      <use xlink:href="#DejaVuSans-63" x="438.802734"/>
      <use xlink:href="#DejaVuSans-65" x="493.783203"/>
      <use xlink:href="#DejaVuSans-72" x="555.306641"/>
      <use xlink:href="#DejaVuSans-74" x="596.419922"/>
      <use xlink:href="#DejaVuSans-61" x="635.628906"/>
      <use xlink:href="#DejaVuSans-69" x="696.908203"/>
      <use xlink:href="#DejaVuSans-6e" x="724.691406"/>
      <use xlink:href="#DejaVuSans-74" x="788.070312"/>
      <use xlink:href="#DejaVuSans-69" x="827.279297"/>
      <use xlink:href="#DejaVuSans-65" x="855.0625"/>
      <use xlink:href="#DejaVuSans-73" x="916.585938"/>
     </g>
    </g>
   </g>
   <g id="matplotlib.axis_2">
    <g id="ytick_1">
     <g id="line2d_9">
      <defs>
       <path id="madfa7a7978" d="M 0 0 
L -3.5 0 
" style="stroke: #000000; stroke-width: 0.8"/>
      </defs>
      <g>
       <use xlink:href="#madfa7a7978" x="83.72" y="485.513552" style="stroke: #000000; stroke-width: 0.8"/>
      </g>
     </g>
     <g id="text_10">
      <!-- 0 -->
      <g transform="translate(62.7225 493.871833) scale(0.22 -0.22)">
       <use xlink:href="#DejaVuSans-30"/>
      </g>
     </g>
    </g>
    <g id="ytick_2">
     <g id="line2d_10">
      <g>
       <use xlink:href="#madfa7a7978" x="83.72" y="420.744948" style="stroke: #000000; stroke-width: 0.8"/>
      </g>
     </g>
     <g id="text_11">
      <!-- 10 -->
      <g transform="translate(48.725 429.103229) scale(0.22 -0.22)">
       <use xlink:href="#DejaVuSans-31"/>
       <use xlink:href="#DejaVuSans-30" x="63.623047"/>
      </g>
     </g>
    </g>
    <g id="ytick_3">
     <g id="line2d_11">
      <g>
       <use xlink:href="#madfa7a7978" x="83.72" y="355.976344" style="stroke: #000000; stroke-width: 0.8"/>
      </g>
     </g>
     <g id="text_12">
      <!-- 20 -->
      <g transform="translate(48.725 364.334625) scale(0.22 -0.22)">
       <use xlink:href="#DejaVuSans-32"/>
       <use xlink:href="#DejaVuSans-30" x="63.623047"/>
      </g>
     </g>
    </g>
    <g id="ytick_4">
     <g id="line2d_12">
      <g>
       <use xlink:href="#madfa7a7978" x="83.72" y="291.20774" style="stroke: #000000; stroke-width: 0.8"/>
      </g>
     </g>
     <g id="text_13">
      <!-- 30 -->
      <g transform="translate(48.725 299.566022) scale(0.22 -0.22)">
       <use xlink:href="#DejaVuSans-33"/>
       <use xlink:href="#DejaVuSans-30" x="63.623047"/>
      </g>
     </g>
    </g>
    <g id="ytick_5">
     <g id="line2d_13">
      <g>
       <use xlink:href="#madfa7a7978" x="83.72" y="226.439137" style="stroke: #000000; stroke-width: 0.8"/>
      </g>
     </g>
     <g id="text_14">
      <!-- 40 -->
      <g transform="translate(48.725 234.797418) scale(0.22 -0.22)">
       <use xlink:href="#DejaVuSans-34"/>
       <use xlink:href="#DejaVuSans-30" x="63.623047"/>
      </g>
     </g>
    </g>
    <g id="ytick_6">
     <g id="line2d_14">
      <g>
       <use xlink:href="#madfa7a7978" x="83.72" y="161.670533" style="stroke: #000000; stroke-width: 0.8"/>
      </g>
     </g>
     <g id="text_15">
      <!-- 50 -->
      <g transform="translate(48.725 170.028814) scale(0.22 -0.22)">
       <use xlink:href="#DejaVuSans-35"/>
       <use xlink:href="#DejaVuSans-30" x="63.623047"/>
      </g>
     </g>
    </g>
    <g id="ytick_7">
     <g id="line2d_15">
      <g>
       <use xlink:href="#madfa7a7978" x="83.72" y="96.901929" style="stroke: #000000; stroke-width: 0.8"/>
      </g>
     </g>
     <g id="text_16">
      <!-- 60 -->
      <g transform="translate(48.725 105.26021) scale(0.22 -0.22)">
       <use xlink:href="#DejaVuSans-36"/>
       <use xlink:href="#DejaVuSans-30" x="63.623047"/>
      </g>
     </g>
    </g>
    <g id="ytick_8">
     <g id="line2d_16">
      <g>
       <use xlink:href="#madfa7a7978" x="83.72" y="32.133325" style="stroke: #000000; stroke-width: 0.8"/>
      </g>
     </g>
     <g id="text_17">
      <!-- 70 -->
      <g transform="translate(48.725 40.491606) scale(0.22 -0.22)">
       <use xlink:href="#DejaVuSans-37"/>
       <use xlink:href="#DejaVuSans-30" x="63.623047"/>
      </g>
     </g>
    </g>
    <g id="text_18">
     <!-- Force Errors [kJ/(mol*A)] -->
     <g transform="translate(40.149688 398.242191) rotate(-90) scale(0.22 -0.22)">
      <defs>
       <path id="DejaVuSans-45" d="M 628 4666 
L 3578 4666 
L 3578 4134 
L 1259 4134 
L 1259 2753 
L 3481 2753 
L 3481 2222 
L 1259 2222 
L 1259 531 
L 3634 531 
L 3634 0 
L 628 0 
L 628 4666 
z
" transform="scale(0.015625)"/>
       <path id="DejaVuSans-5b" d="M 550 4863 
L 1875 4863 
L 1875 4416 
L 1125 4416 
L 1125 -397 
L 1875 -397 
L 1875 -844 
L 550 -844 
L 550 4863 
z
" transform="scale(0.015625)"/>
       <path id="DejaVuSans-6b" d="M 581 4863 
L 1159 4863 
L 1159 1991 
L 2875 3500 
L 3609 3500 
L 1753 1863 
L 3688 0 
L 2938 0 
L 1159 1709 
L 1159 0 
L 581 0 
L 581 4863 
z
" transform="scale(0.015625)"/>
       <path id="DejaVuSans-4a" d="M 628 4666 
L 1259 4666 
L 1259 325 
Q 1259 -519 939 -900 
Q 619 -1281 -91 -1281 
L -331 -1281 
L -331 -750 
L -134 -750 
Q 284 -750 456 -515 
Q 628 -281 628 325 
L 628 4666 
z
" transform="scale(0.015625)"/>
       <path id="DejaVuSans-2f" d="M 1625 4666 
L 2156 4666 
L 531 -594 
L 0 -594 
L 1625 4666 
z
" transform="scale(0.015625)"/>
       <path id="DejaVuSans-28" d="M 1984 4856 
Q 1566 4138 1362 3434 
Q 1159 2731 1159 2009 
Q 1159 1288 1364 580 
Q 1569 -128 1984 -844 
L 1484 -844 
Q 1016 -109 783 600 
Q 550 1309 550 2009 
Q 550 2706 781 3412 
Q 1013 4119 1484 4856 
L 1984 4856 
z
" transform="scale(0.015625)"/>
       <path id="DejaVuSans-6d" d="M 3328 2828 
Q 3544 3216 3844 3400 
Q 4144 3584 4550 3584 
Q 5097 3584 5394 3201 
Q 5691 2819 5691 2113 
L 5691 0 
L 5113 0 
L 5113 2094 
Q 5113 2597 4934 2840 
Q 4756 3084 4391 3084 
Q 3944 3084 3684 2787 
Q 3425 2491 3425 1978 
L 3425 0 
L 2847 0 
L 2847 2094 
Q 2847 2600 2669 2842 
Q 2491 3084 2119 3084 
Q 1678 3084 1418 2786 
Q 1159 2488 1159 1978 
L 1159 0 
L 581 0 
L 581 3500 
L 1159 3500 
L 1159 2956 
Q 1356 3278 1631 3431 
Q 1906 3584 2284 3584 
Q 2666 3584 2933 3390 
Q 3200 3197 3328 2828 
z
" transform="scale(0.015625)"/>
       <path id="DejaVuSans-6c" d="M 603 4863 
L 1178 4863 
L 1178 0 
L 603 0 
L 603 4863 
z
" transform="scale(0.015625)"/>
       <path id="DejaVuSans-2a" d="M 3009 3897 
L 1888 3291 
L 3009 2681 
L 2828 2375 
L 1778 3009 
L 1778 1831 
L 1422 1831 
L 1422 3009 
L 372 2375 
L 191 2681 
L 1313 3291 
L 191 3897 
L 372 4206 
L 1422 3572 
L 1422 4750 
L 1778 4750 
L 1778 3572 
L 2828 4206 
L 3009 3897 
z
" transform="scale(0.015625)"/>
       <path id="DejaVuSans-41" d="M 2188 4044 
L 1331 1722 
L 3047 1722 
L 2188 4044 
z
M 1831 4666 
L 2547 4666 
L 4325 0 
L 3669 0 
L 3244 1197 
L 1141 1197 
L 716 0 
L 50 0 
L 1831 4666 
z
" transform="scale(0.015625)"/>
       <path id="DejaVuSans-29" d="M 513 4856 
L 1013 4856 
Q 1481 4119 1714 3412 
Q 1947 2706 1947 2009 
Q 1947 1309 1714 600 
Q 1481 -109 1013 -844 
L 513 -844 
Q 928 -128 1133 580 
Q 1338 1288 1338 2009 
Q 1338 2731 1133 3434 
Q 928 4138 513 4856 
z
" transform="scale(0.015625)"/>
       <path id="DejaVuSans-5d" d="M 1947 4863 
L 1947 -844 
L 622 -844 
L 622 -397 
L 1369 -397 
L 1369 4416 
L 622 4416 
L 622 4863 
L 1947 4863 
z
" transform="scale(0.015625)"/>
      </defs>
      <use xlink:href="#DejaVuSans-46"/>
      <use xlink:href="#DejaVuSans-6f" x="53.894531"/>
      <use xlink:href="#DejaVuSans-72" x="115.076172"/>
      <use xlink:href="#DejaVuSans-63" x="153.939453"/>
      <use xlink:href="#DejaVuSans-65" x="208.919922"/>
      <use xlink:href="#DejaVuSans-20" x="270.443359"/>
      <use xlink:href="#DejaVuSans-45" x="302.230469"/>
      <use xlink:href="#DejaVuSans-72" x="365.414062"/>
      <use xlink:href="#DejaVuSans-72" x="404.777344"/>
      <use xlink:href="#DejaVuSans-6f" x="443.640625"/>
      <use xlink:href="#DejaVuSans-72" x="504.822266"/>
      <use xlink:href="#DejaVuSans-73" x="545.935547"/>
      <use xlink:href="#DejaVuSans-20" x="598.035156"/>
      <use xlink:href="#DejaVuSans-5b" x="629.822266"/>
      <use xlink:href="#DejaVuSans-6b" x="668.835938"/>
      <use xlink:href="#DejaVuSans-4a" x="726.746094"/>
      <use xlink:href="#DejaVuSans-2f" x="756.238281"/>
      <use xlink:href="#DejaVuSans-28" x="789.929688"/>
      <use xlink:href="#DejaVuSans-6d" x="828.943359"/>
      <use xlink:href="#DejaVuSans-6f" x="926.355469"/>
      <use xlink:href="#DejaVuSans-6c" x="987.537109"/>
      <use xlink:href="#DejaVuSans-2a" x="1015.320312"/>
      <use xlink:href="#DejaVuSans-41" x="1065.320312"/>
      <use xlink:href="#DejaVuSans-29" x="1133.728516"/>
      <use xlink:href="#DejaVuSans-5d" x="1172.742188"/>
     </g>
    </g>
   </g>
   <g id="line2d_17">
    <path d="M 83.72 499.48 
L 684.238926 30.419382 
" clip-path="url(#p234df094c1)" style="fill: none; stroke-dasharray: 5.55,2.4; stroke-dashoffset: 0; stroke: #ff0000; stroke-width: 1.5"/>
   </g>
   <g id="patch_3">
    <path d="M 83.72 499.48 
L 83.72 30.419382 
" style="fill: none; stroke: #000000; stroke-width: 0.8; stroke-linejoin: miter; stroke-linecap: square"/>
   </g>
   <g id="patch_4">
    <path d="M 684.238926 499.48 
L 684.238926 30.419382 
" style="fill: none; stroke: #000000; stroke-width: 0.8; stroke-linejoin: miter; stroke-linecap: square"/>
   </g>
   <g id="patch_5">
    <path d="M 83.72 499.48 
L 684.238926 499.48 
" style="fill: none; stroke: #000000; stroke-width: 0.8; stroke-linejoin: miter; stroke-linecap: square"/>
   </g>
   <g id="patch_6">
    <path d="M 83.72 30.419382 
L 684.238926 30.419382 
" style="fill: none; stroke: #000000; stroke-width: 0.8; stroke-linejoin: miter; stroke-linecap: square"/>
   </g>
   <g id="text_19">
    <!-- Correlation in: 0.583 -->
    <g transform="translate(143.771893 77.325444) scale(0.22 -0.22)">
     <defs>
      <path id="DejaVuSans-43" d="M 4122 4306 
L 4122 3641 
Q 3803 3938 3442 4084 
Q 3081 4231 2675 4231 
Q 1875 4231 1450 3742 
Q 1025 3253 1025 2328 
Q 1025 1406 1450 917 
Q 1875 428 2675 428 
Q 3081 428 3442 575 
Q 3803 722 4122 1019 
L 4122 359 
Q 3791 134 3420 21 
Q 3050 -91 2638 -91 
Q 1578 -91 968 557 
Q 359 1206 359 2328 
Q 359 3453 968 4101 
Q 1578 4750 2638 4750 
Q 3056 4750 3426 4639 
Q 3797 4528 4122 4306 
z
" transform="scale(0.015625)"/>
      <path id="DejaVuSans-3a" d="M 750 794 
L 1409 794 
L 1409 0 
L 750 0 
L 750 794 
z
M 750 3309 
L 1409 3309 
L 1409 2516 
L 750 2516 
L 750 3309 
z
" transform="scale(0.015625)"/>
      <path id="DejaVuSans-2e" d="M 684 794 
L 1344 794 
L 1344 0 
L 684 0 
L 684 794 
z
" transform="scale(0.015625)"/>
      <path id="DejaVuSans-38" d="M 2034 2216 
Q 1584 2216 1326 1975 
Q 1069 1734 1069 1313 
Q 1069 891 1326 650 
Q 1584 409 2034 409 
Q 2484 409 2743 651 
Q 3003 894 3003 1313 
Q 3003 1734 2745 1975 
Q 2488 2216 2034 2216 
z
M 1403 2484 
Q 997 2584 770 2862 
Q 544 3141 544 3541 
Q 544 4100 942 4425 
Q 1341 4750 2034 4750 
Q 2731 4750 3128 4425 
Q 3525 4100 3525 3541 
Q 3525 3141 3298 2862 
Q 3072 2584 2669 2484 
Q 3125 2378 3379 2068 
Q 3634 1759 3634 1313 
Q 3634 634 3220 271 
Q 2806 -91 2034 -91 
Q 1263 -91 848 271 
Q 434 634 434 1313 
Q 434 1759 690 2068 
Q 947 2378 1403 2484 
z
M 1172 3481 
Q 1172 3119 1398 2916 
Q 1625 2713 2034 2713 
Q 2441 2713 2670 2916 
Q 2900 3119 2900 3481 
Q 2900 3844 2670 4047 
Q 2441 4250 2034 4250 
Q 1625 4250 1398 4047 
Q 1172 3844 1172 3481 
z
" transform="scale(0.015625)"/>
     </defs>
     <use xlink:href="#DejaVuSans-43"/>
     <use xlink:href="#DejaVuSans-6f" x="69.824219"/>
     <use xlink:href="#DejaVuSans-72" x="131.005859"/>
     <use xlink:href="#DejaVuSans-72" x="170.369141"/>
     <use xlink:href="#DejaVuSans-65" x="209.232422"/>
     <use xlink:href="#DejaVuSans-6c" x="270.755859"/>
     <use xlink:href="#DejaVuSans-61" x="298.539062"/>
     <use xlink:href="#DejaVuSans-74" x="359.818359"/>
     <use xlink:href="#DejaVuSans-69" x="399.027344"/>
     <use xlink:href="#DejaVuSans-6f" x="426.810547"/>
     <use xlink:href="#DejaVuSans-6e" x="487.992188"/>
     <use xlink:href="#DejaVuSans-20" x="551.371094"/>
     <use xlink:href="#DejaVuSans-69" x="583.158203"/>
     <use xlink:href="#DejaVuSans-6e" x="610.941406"/>
     <use xlink:href="#DejaVuSans-3a" x="674.320312"/>
     <use xlink:href="#DejaVuSans-20" x="708.011719"/>
     <use xlink:href="#DejaVuSans-30" x="739.798828"/>
     <use xlink:href="#DejaVuSans-2e" x="803.421875"/>
     <use xlink:href="#DejaVuSans-35" x="835.208984"/>
     <use xlink:href="#DejaVuSans-38" x="898.832031"/>
     <use xlink:href="#DejaVuSans-33" x="962.455078"/>
    </g>
   </g>
  </g>
 </g>
 <defs>
  <clipPath id="p234df094c1">
   <rect x="83.72" y="30.419382" width="600.518926" height="469.060618"/>
  </clipPath>
 </defs>
</svg>
