<?xml version="1.0" encoding="utf-8" standalone="no"?>
<!DOCTYPE svg PUBLIC "-//W3C//DTD SVG 1.1//EN"
  "http://www.w3.org/Graphics/SVG/1.1/DTD/svg11.dtd">
<svg xmlns:xlink="http://www.w3.org/1999/xlink" width="720pt" height="576pt" viewBox="0 0 720 576" xmlns="http://www.w3.org/2000/svg" version="1.1">
 <metadata>
  <rdf:RDF xmlns:dc="http://purl.org/dc/elements/1.1/" xmlns:cc="http://creativecommons.org/ns#" xmlns:rdf="http://www.w3.org/1999/02/22-rdf-syntax-ns#">
   <cc:Work>
    <dc:type rdf:resource="http://purl.org/dc/dcmitype/StillImage"/>
    <dc:date>2024-12-07T17:12:21.058174</dc:date>
    <dc:format>image/svg+xml</dc:format>
    <dc:creator>
     <cc:Agent>
      <dc:title>Matplotlib v3.8.4, https://matplotlib.org/</dc:title>
     </cc:Agent>
    </dc:creator>
   </cc:Work>
  </rdf:RDF>
 </metadata>
 <defs>
  <style type="text/css">*{stroke-linejoin: round; stroke-linecap: butt}</style>
 </defs>
 <g id="figure_1">
  <g id="patch_1">
   <path d="M 0 576 
L 720 576 
L 720 0 
L 0 0 
z
" style="fill: #ffffff"/>
  </g>
  <g id="axes_1">
   <g id="patch_2">
    <path d="M 102.17 499.48 
L 682.2 499.48 
L 682.2 32.04 
L 102.17 32.04 
z
" style="fill: #ffffff"/>
   </g>
   <g id="QuadContourSet_1">
    <path d="M 224.422286 399.695098 
L 226.814767 398.0078 
L 224.422286 396.225686 
L 222.132976 398.0078 
z
M 233.904586 394.686028 
L 238.981781 391.082806 
L 243.386887 388.936356 
L 250.080531 384.157813 
L 252.869187 382.74974 
L 260.556232 377.232819 
L 262.351487 376.29571 
L 270.657038 370.307826 
L 271.833788 369.673435 
L 280.527113 363.382833 
L 281.316088 362.943436 
L 290.253053 356.457839 
L 290.798389 356.143753 
L 299.887923 349.532846 
L 300.280689 349.298573 
L 309.464442 342.607852 
L 309.762989 342.423192 
L 319.002699 335.682859 
L 319.24529 335.527116 
L 328.514936 328.757866 
L 328.72759 328.616102 
L 338.008565 321.832872 
L 338.209891 321.693519 
L 347.488065 314.907879 
L 347.692191 314.761239 
L 356.956112 307.982885 
L 357.174491 307.820184 
L 366.414186 301.057892 
L 366.656792 300.870587 
L 375.862793 294.132899 
L 376.139092 293.912033 
L 385.301369 287.207905 
L 385.621393 286.943249 
L 394.727844 280.282912 
L 395.103693 279.96159 
L 404.137754 273.357918 
L 404.585993 272.962076 
L 413.522712 266.432925 
L 414.068294 265.935728 
L 422.867936 259.507931 
L 423.550594 258.866886 
L 432.148584 252.582938 
L 433.032895 251.729256 
L 441.32492 245.657945 
L 442.515195 244.480848 
L 450.337165 238.732951 
L 451.997495 237.05898 
L 459.102114 231.807958 
L 461.479796 229.377292 
L 467.513323 224.882964 
L 470.962096 221.324478 
L 475.441113 217.957971 
L 480.444397 212.755866 
L 482.716629 211.032978 
L 489.850946 204.107984 
L 489.926697 204.033415 
L 498.963479 197.182991 
L 499.408997 196.738252 
L 507.957935 190.257997 
L 508.891298 189.318226 
L 516.788315 183.333004 
L 518.373598 181.733037 
L 525.407104 176.408011 
L 527.855898 173.946483 
L 533.766837 169.483017 
L 537.338199 165.928086 
L 541.820188 162.558024 
L 546.820499 157.650613 
L 549.518459 155.63303 
L 556.3028 149.084314 
L 556.808925 148.708037 
L 563.513534 141.783044 
L 565.7851 139.254871 
L 570.24155 134.85805 
L 565.7851 129.284877 
L 556.521003 134.85805 
L 556.3028 134.946274 
L 546.820499 141.486477 
L 546.390863 141.783044 
L 537.338199 148.396656 
L 536.910743 148.708037 
L 527.855898 155.63303 
L 527.855898 155.63303 
L 518.576496 162.558024 
L 518.373598 162.668926 
L 509.213742 169.483017 
L 508.891298 169.666099 
L 499.791561 176.408011 
L 499.408997 176.632852 
L 490.335836 183.333004 
L 489.926697 183.581323 
L 480.865633 190.257997 
L 480.444397 190.521656 
L 471.393198 197.182991 
L 470.962096 197.461157 
L 461.926107 204.107984 
L 461.479796 204.405 
L 452.469369 211.032978 
L 451.997495 211.357218 
L 443.026935 217.957971 
L 442.515195 218.32155 
L 433.602662 224.882964 
L 433.032895 225.302096 
L 424.201014 231.807958 
L 423.550594 232.303914 
L 414.827809 238.732951 
L 414.068294 239.333749 
L 405.491293 245.657945 
L 404.585993 246.401169 
L 396.203798 252.582938 
L 395.103693 253.520409 
L 386.984367 259.507931 
L 385.621393 260.713398 
L 377.862909 266.432925 
L 376.139092 268.014752 
L 368.886991 273.357918 
L 366.656792 275.480161 
L 360.133212 280.282912 
L 357.174491 283.200846 
L 351.726866 287.207905 
L 347.692191 291.329188 
L 343.87691 294.132899 
L 338.209891 300.125572 
L 336.939987 301.057892 
L 328.819836 307.982885 
L 328.72759 308.066718 
L 319.494024 314.907879 
L 319.24529 315.142575 
L 310.199283 321.832872 
L 309.762989 322.260256 
L 300.963758 328.757866 
L 300.280689 329.452465 
L 291.831641 335.682859 
L 290.798389 336.773545 
L 282.876691 342.607852 
L 281.316088 344.318149 
L 274.227796 349.532846 
L 271.833788 352.257754 
L 266.118883 356.457839 
L 262.351487 360.914317 
L 258.989593 363.382833 
L 253.03636 370.307826 
L 252.869187 370.488447 
L 244.68789 377.232819 
L 243.386887 378.659925 
L 236.563951 384.157813 
L 233.904586 387.132123 
L 228.908027 391.082806 
z
M 269.637007 363.382833 
L 271.833788 361.458899 
L 273.67213 363.382833 
L 271.833788 364.713081 
z
M 276.569039 356.457839 
L 281.316088 352.125237 
L 283.794103 349.532846 
L 290.798389 342.786569 
L 290.970604 342.607852 
L 297.537375 335.682859 
L 300.280689 333.659917 
L 305.101369 328.757866 
L 309.762989 325.315589 
L 313.318309 321.832872 
L 319.24529 317.449362 
L 321.938785 314.907879 
L 328.72759 309.878045 
L 330.812936 307.982885 
L 338.209891 302.491433 
L 339.847655 301.057892 
L 347.692191 295.221041 
L 348.982819 294.132899 
L 357.174491 288.022767 
L 358.177737 287.207905 
L 366.656792 280.867056 
L 367.403215 280.282912 
L 376.139092 273.733213 
L 376.636795 273.357918 
L 385.621393 266.606089 
L 385.8598 266.432925 
L 394.842219 259.507931 
L 395.103693 259.31511 
L 403.003775 252.582938 
L 404.585993 251.416071 
L 411.599793 245.657945 
L 414.068294 243.837812 
L 420.521746 238.732951 
L 423.550594 236.50057 
L 429.704698 231.807958 
L 433.032895 229.356296 
L 439.113934 224.882964 
L 442.515195 222.378953 
L 448.73776 217.957971 
L 451.997495 215.55938 
L 458.58485 211.032978 
L 461.479796 208.903485 
L 468.685757 204.107984 
L 470.962096 202.433521 
L 479.099383 197.182991 
L 480.444397 196.193112 
L 489.926697 190.257997 
L 492.523602 197.182991 
L 489.926697 199.151601 
L 484.891777 204.107984 
L 480.444397 207.481883 
L 476.770799 211.032978 
L 470.962096 215.448258 
L 468.309964 217.957971 
L 461.479796 223.167265 
L 459.623688 224.882964 
L 451.997495 230.727052 
L 450.798411 231.807958 
L 442.515195 238.193053 
L 441.900148 238.732951 
L 433.032895 245.614552 
L 432.982048 245.657945 
L 425.671371 252.582938 
L 423.550594 254.132934 
L 417.826683 259.507931 
L 414.068294 262.253289 
L 409.481914 266.432925 
L 404.585993 270.009876 
L 400.794776 273.357918 
L 395.103693 277.517957 
L 391.869535 280.282912 
L 385.621393 284.85272 
L 382.773496 287.207905 
L 376.139092 292.062364 
L 373.548882 294.132899 
L 366.656792 299.177082 
L 364.220676 301.057892 
L 357.174491 306.214811 
L 354.801366 307.982885 
L 347.692191 313.184625 
L 345.293376 314.907879 
L 338.209891 320.088422 
L 335.689663 321.832872 
L 328.72759 326.921276 
L 325.972584 328.757866 
L 319.24529 333.670539 
L 316.110824 335.682859 
L 309.762989 340.31358 
L 306.053758 342.607852 
L 300.280689 346.813757 
L 295.722061 349.532846 
L 290.798389 353.113881 
L 284.9924 356.457839 
L 281.316088 359.125756 
z
M 489.926697 190.257997 
L 499.408997 189.954419 
L 499.477128 190.257997 
L 499.408997 190.309642 
z
M 575.2674 129.431504 
L 576.85838 127.933057 
L 575.2674 125.47855 
L 569.936952 127.933057 
z
" clip-path="url(#pcebd2d03f4)" style="fill: #eaf3fb"/>
    <path d="M 271.833788 364.713081 
L 273.67213 363.382833 
L 271.833788 361.458899 
L 269.637007 363.382833 
z
M 281.316088 359.125756 
L 284.9924 356.457839 
L 290.798389 353.113881 
L 295.722061 349.532846 
L 300.280689 346.813757 
L 306.053758 342.607852 
L 309.762989 340.31358 
L 316.110824 335.682859 
L 319.24529 333.670539 
L 325.972584 328.757866 
L 328.72759 326.921276 
L 335.689663 321.832872 
L 338.209891 320.088422 
L 345.293376 314.907879 
L 347.692191 313.184625 
L 354.801366 307.982885 
L 357.174491 306.214811 
L 364.220676 301.057892 
L 366.656792 299.177082 
L 373.548882 294.132899 
L 376.139092 292.062364 
L 382.773496 287.207905 
L 385.621393 284.85272 
L 391.869535 280.282912 
L 395.103693 277.517957 
L 400.794776 273.357918 
L 404.585993 270.009876 
L 409.481914 266.432925 
L 414.068294 262.253289 
L 417.826683 259.507931 
L 423.550594 254.132934 
L 425.671371 252.582938 
L 432.982048 245.657945 
L 433.032895 245.614552 
L 441.900148 238.732951 
L 442.515195 238.193053 
L 450.798411 231.807958 
L 451.997495 230.727052 
L 459.623688 224.882964 
L 461.479796 223.167265 
L 468.309964 217.957971 
L 470.962096 215.448258 
L 476.770799 211.032978 
L 480.444397 207.481883 
L 484.891777 204.107984 
L 489.926697 199.151601 
L 492.523602 197.182991 
L 489.926697 190.257997 
L 480.444397 196.193112 
L 479.099383 197.182991 
L 470.962096 202.433521 
L 468.685757 204.107984 
L 461.479796 208.903485 
L 458.58485 211.032978 
L 451.997495 215.55938 
L 448.73776 217.957971 
L 442.515195 222.378953 
L 439.113934 224.882964 
L 433.032895 229.356296 
L 429.704698 231.807958 
L 423.550594 236.50057 
L 420.521746 238.732951 
L 414.068294 243.837812 
L 411.599793 245.657945 
L 404.585993 251.416071 
L 403.003775 252.582938 
L 395.103693 259.31511 
L 394.842219 259.507931 
L 385.8598 266.432925 
L 385.621393 266.606089 
L 376.636795 273.357918 
L 376.139092 273.733213 
L 367.403215 280.282912 
L 366.656792 280.867056 
L 358.177737 287.207905 
L 357.174491 288.022767 
L 348.982819 294.132899 
L 347.692191 295.221041 
L 339.847655 301.057892 
L 338.209891 302.491433 
L 330.812936 307.982885 
L 328.72759 309.878045 
L 321.938785 314.907879 
L 319.24529 317.449362 
L 313.318309 321.832872 
L 309.762989 325.315589 
L 305.101369 328.757866 
L 300.280689 333.659917 
L 297.537375 335.682859 
L 290.970604 342.607852 
L 290.798389 342.786569 
L 283.794103 349.532846 
L 281.316088 352.125237 
L 276.569039 356.457839 
z
M 280.676814 356.457839 
L 281.316088 355.874377 
L 281.811169 356.457839 
L 281.316088 356.817122 
z
M 287.377832 349.532846 
L 290.798389 346.238288 
L 293.202874 349.532846 
L 290.798389 351.281651 
z
M 294.296769 342.607852 
L 300.280689 336.391003 
L 300.966155 335.682859 
L 307.603472 328.757866 
L 309.762989 327.163215 
L 315.204451 321.832872 
L 319.24529 318.844326 
L 323.417185 314.907879 
L 328.72759 310.973393 
L 332.018207 307.982885 
L 338.209891 303.386218 
L 340.869912 301.057892 
L 347.692191 295.981668 
L 349.884985 294.132899 
L 357.174491 288.695689 
L 359.006227 287.207905 
L 366.656792 281.486622 
L 368.1949 280.282912 
L 376.139092 274.326776 
L 377.423959 273.357918 
L 385.621393 267.197634 
L 386.674221 266.432925 
L 395.103693 260.087286 
L 395.932491 259.507931 
L 404.585993 252.989402 
L 405.191257 252.582938 
L 414.068294 245.903518 
L 414.450131 245.657945 
L 423.550594 238.836781 
L 423.720028 238.732951 
L 433.032895 231.807958 
L 433.032895 231.807958 
L 442.44672 224.882964 
L 442.515195 224.832553 
L 451.997495 218.056437 
L 452.196788 217.957971 
L 461.479796 211.564426 
L 462.701857 211.032978 
L 470.962096 205.713597 
L 474.417259 211.032978 
L 470.962096 213.659298 
L 466.419486 217.957971 
L 461.479796 221.725418 
L 458.063844 224.882964 
L 451.997495 229.531716 
L 449.472384 231.807958 
L 442.515195 237.170889 
L 440.73571 238.732951 
L 433.032895 244.710868 
L 431.923115 245.657945 
L 423.550594 252.203324 
L 423.092008 252.582938 
L 414.778128 259.507931 
L 414.068294 260.026438 
L 407.038356 266.432925 
L 404.585993 268.224617 
L 398.773204 273.357918 
L 395.103693 276.040239 
L 390.141054 280.282912 
L 385.621393 283.588532 
L 381.244836 287.207905 
L 376.139092 290.943828 
L 372.14961 294.132899 
L 366.656792 298.152983 
L 362.894214 301.057892 
L 357.174491 305.244008 
L 353.498344 307.982885 
L 347.692191 312.231212 
L 343.9662 314.907879 
L 338.209891 319.117785 
L 334.287373 321.832872 
L 328.72759 325.896377 
L 324.435169 328.757866 
L 319.24529 332.547826 
L 314.362045 335.682859 
L 309.762989 339.037852 
L 303.991244 342.607852 
L 300.280689 345.311136 
z
M 475.499138 204.107984 
L 480.444397 201.307566 
L 481.89286 204.107984 
L 480.444397 205.206826 
z
M 499.408997 190.309642 
L 499.477128 190.257997 
L 499.408997 189.954419 
L 489.926697 190.257997 
z
" clip-path="url(#pcebd2d03f4)" style="fill: #d6e6f4"/>
    <path d="M 281.316088 356.817122 
L 281.811169 356.457839 
L 281.316088 355.874377 
L 280.676814 356.457839 
z
M 290.798389 351.281651 
L 293.202874 349.532846 
L 290.798389 346.238288 
L 287.377832 349.532846 
z
M 300.280689 345.311136 
L 303.991244 342.607852 
L 309.762989 339.037852 
L 314.362045 335.682859 
L 319.24529 332.547826 
L 324.435169 328.757866 
L 328.72759 325.896377 
L 334.287373 321.832872 
L 338.209891 319.117785 
L 343.9662 314.907879 
L 347.692191 312.231212 
L 353.498344 307.982885 
L 357.174491 305.244008 
L 362.894214 301.057892 
L 366.656792 298.152983 
L 372.14961 294.132899 
L 376.139092 290.943828 
L 381.244836 287.207905 
L 385.621393 283.588532 
L 390.141054 280.282912 
L 395.103693 276.040239 
L 398.773204 273.357918 
L 404.585993 268.224617 
L 407.038356 266.432925 
L 414.068294 260.026438 
L 414.778128 259.507931 
L 423.092008 252.582938 
L 423.550594 252.203324 
L 431.923115 245.657945 
L 433.032895 244.710868 
L 440.73571 238.732951 
L 442.515195 237.170889 
L 449.472384 231.807958 
L 451.997495 229.531716 
L 458.063844 224.882964 
L 461.479796 221.725418 
L 466.419486 217.957971 
L 470.962096 213.659298 
L 474.417259 211.032978 
L 470.962096 205.713597 
L 462.701857 211.032978 
L 461.479796 211.564426 
L 452.196788 217.957971 
L 451.997495 218.056437 
L 442.515195 224.832553 
L 442.44672 224.882964 
L 433.032895 231.807958 
L 433.032895 231.807958 
L 423.720028 238.732951 
L 423.550594 238.836781 
L 414.450131 245.657945 
L 414.068294 245.903518 
L 405.191257 252.582938 
L 404.585993 252.989402 
L 395.932491 259.507931 
L 395.103693 260.087286 
L 386.674221 266.432925 
L 385.621393 267.197634 
L 377.423959 273.357918 
L 376.139092 274.326776 
L 368.1949 280.282912 
L 366.656792 281.486622 
L 359.006227 287.207905 
L 357.174491 288.695689 
L 349.884985 294.132899 
L 347.692191 295.981668 
L 340.869912 301.057892 
L 338.209891 303.386218 
L 332.018207 307.982885 
L 328.72759 310.973393 
L 323.417185 314.907879 
L 319.24529 318.844326 
L 315.204451 321.832872 
L 309.762989 327.163215 
L 307.603472 328.757866 
L 300.966155 335.682859 
L 300.280689 336.391003 
L 294.296769 342.607852 
z
M 307.037877 335.682859 
L 309.762989 332.489651 
L 311.1877 335.682859 
L 309.762989 336.72218 
z
M 313.356054 328.757866 
L 318.628135 321.832872 
L 319.24529 321.376433 
L 326.100743 314.907879 
L 328.72759 312.961644 
L 334.205987 307.982885 
L 338.209891 305.010413 
L 342.72549 301.057892 
L 347.692191 297.36234 
L 351.522577 294.132899 
L 357.174491 289.917161 
L 360.510083 287.207905 
L 366.656792 282.611243 
L 369.631948 280.282912 
L 376.139092 275.404199 
L 378.852801 273.357918 
L 385.621393 268.271394 
L 388.15254 266.432925 
L 395.103693 261.200153 
L 397.524508 259.507931 
L 404.585993 254.188641 
L 406.977034 252.582938 
L 414.068294 247.247205 
L 416.539401 245.657945 
L 423.550594 240.402773 
L 426.27549 238.732951 
L 433.032895 233.708185 
L 436.313479 231.807958 
L 442.515195 227.260993 
L 447.065411 231.807958 
L 442.515195 235.31548 
L 438.622048 238.732951 
L 433.032895 243.07052 
L 430.000965 245.657945 
L 423.550594 250.700647 
L 421.276724 252.582938 
L 414.068294 258.261375 
L 412.51082 259.507931 
L 404.585993 265.798804 
L 403.762641 266.432925 
L 395.103693 273.357918 
L 395.103693 273.357918 
L 387.003553 280.282912 
L 385.621393 281.293806 
L 378.470047 287.207905 
L 376.139092 288.913488 
L 369.609683 294.132899 
L 366.656792 296.29406 
L 360.486448 301.057892 
L 357.174491 303.481827 
L 351.133129 307.982885 
L 347.692191 310.500598 
L 341.557141 314.907879 
L 338.209891 317.355907 
L 331.741968 321.832872 
L 328.72759 324.036005 
L 321.644488 328.757866 
L 319.24529 330.509904 
z
M 446.914086 224.882964 
L 451.997495 221.242634 
L 455.232451 224.882964 
L 451.997495 227.361969 
z
M 458.645601 217.957971 
L 461.479796 216.005958 
L 462.987932 217.957971 
L 461.479796 219.10821 
z
M 480.444397 205.206826 
L 481.89286 204.107984 
L 480.444397 201.307566 
L 475.499138 204.107984 
z
" clip-path="url(#pcebd2d03f4)" style="fill: #bfd8ed"/>
    <path d="M 309.762989 336.72218 
L 311.1877 335.682859 
L 309.762989 332.489651 
L 307.037877 335.682859 
z
M 319.24529 330.509904 
L 321.644488 328.757866 
L 328.72759 324.036005 
L 331.741968 321.832872 
L 338.209891 317.355907 
L 341.557141 314.907879 
L 347.692191 310.500598 
L 351.133129 307.982885 
L 357.174491 303.481827 
L 360.486448 301.057892 
L 366.656792 296.29406 
L 369.609683 294.132899 
L 376.139092 288.913488 
L 378.470047 287.207905 
L 385.621393 281.293806 
L 387.003553 280.282912 
L 395.103693 273.357918 
L 395.103693 273.357918 
L 403.762641 266.432925 
L 404.585993 265.798804 
L 412.51082 259.507931 
L 414.068294 258.261375 
L 421.276724 252.582938 
L 423.550594 250.700647 
L 430.000965 245.657945 
L 433.032895 243.07052 
L 438.622048 238.732951 
L 442.515195 235.31548 
L 447.065411 231.807958 
L 442.515195 227.260993 
L 436.313479 231.807958 
L 433.032895 233.708185 
L 426.27549 238.732951 
L 423.550594 240.402773 
L 416.539401 245.657945 
L 414.068294 247.247205 
L 406.977034 252.582938 
L 404.585993 254.188641 
L 397.524508 259.507931 
L 395.103693 261.200153 
L 388.15254 266.432925 
L 385.621393 268.271394 
L 378.852801 273.357918 
L 376.139092 275.404199 
L 369.631948 280.282912 
L 366.656792 282.611243 
L 360.510083 287.207905 
L 357.174491 289.917161 
L 351.522577 294.132899 
L 347.692191 297.36234 
L 342.72549 301.057892 
L 338.209891 305.010413 
L 334.205987 307.982885 
L 328.72759 312.961644 
L 326.100743 314.907879 
L 319.24529 321.376433 
L 318.628135 321.832872 
L 313.356054 328.757866 
z
M 326.787884 321.832872 
L 328.72759 314.907879 
L 329.250354 321.832872 
L 328.72759 322.214947 
z
M 328.72759 314.907879 
L 336.347534 307.982885 
L 338.209891 306.600283 
L 344.541854 301.057892 
L 347.692191 298.713834 
L 353.125562 294.132899 
L 357.174491 291.11282 
L 361.98216 287.207905 
L 366.656792 283.712099 
L 371.038628 280.282912 
L 376.139092 276.458853 
L 380.251447 273.357918 
L 385.621393 269.322462 
L 389.599619 266.432925 
L 395.103693 262.289502 
L 399.082882 259.507931 
L 404.585993 255.362536 
L 408.725073 252.582938 
L 414.068294 248.562496 
L 418.584519 245.657945 
L 423.550594 241.935671 
L 428.119435 245.657945 
L 423.550594 249.229724 
L 419.499802 252.582938 
L 414.068294 256.861605 
L 410.761918 259.507931 
L 404.585993 264.410494 
L 401.960037 266.432925 
L 395.103693 271.916285 
L 393.144292 273.357918 
L 385.621393 279.415249 
L 384.372572 280.282912 
L 376.139092 286.947248 
L 375.733724 287.207905 
L 367.123431 294.132899 
L 366.656792 294.474422 
L 358.129566 301.057892 
L 357.174491 301.756886 
L 348.817896 307.982885 
L 347.692191 308.806557 
L 339.198991 314.907879 
L 338.209891 315.631262 
z
M 428.776949 238.732951 
L 433.032895 235.568255 
L 436.553053 238.732951 
L 433.032895 241.464837 
z
M 439.524735 231.807958 
L 442.515195 229.615417 
L 444.709303 231.807958 
L 442.515195 233.49928 
z
M 451.997495 227.361969 
L 455.232451 224.882964 
L 451.997495 221.242634 
L 446.914086 224.882964 
z
M 451.269314 224.882964 
L 451.997495 224.361499 
L 452.460892 224.882964 
L 451.997495 225.238073 
z
M 461.479796 219.10821 
L 462.987932 217.957971 
L 461.479796 216.005958 
L 458.645601 217.957971 
z
" clip-path="url(#pcebd2d03f4)" style="fill: #91c3de"/>
    <path d="M 328.72759 322.214947 
L 329.250354 321.832872 
L 328.72759 314.907879 
L 326.787884 321.832872 
z
M 338.209891 315.631262 
L 339.198991 314.907879 
L 347.692191 308.806557 
L 348.817896 307.982885 
L 357.174491 301.756886 
L 358.129566 301.057892 
L 366.656792 294.474422 
L 367.123431 294.132899 
L 375.733724 287.207905 
L 376.139092 286.947248 
L 384.372572 280.282912 
L 385.621393 279.415249 
L 393.144292 273.357918 
L 395.103693 271.916285 
L 401.960037 266.432925 
L 404.585993 264.410494 
L 410.761918 259.507931 
L 414.068294 256.861605 
L 419.499802 252.582938 
L 423.550594 249.229724 
L 428.119435 245.657945 
L 423.550594 241.935671 
L 418.584519 245.657945 
L 414.068294 248.562496 
L 408.725073 252.582938 
L 404.585993 255.362536 
L 399.082882 259.507931 
L 395.103693 262.289502 
L 389.599619 266.432925 
L 385.621393 269.322462 
L 380.251447 273.357918 
L 376.139092 276.458853 
L 371.038628 280.282912 
L 366.656792 283.712099 
L 361.98216 287.207905 
L 357.174491 291.11282 
L 353.125562 294.132899 
L 347.692191 298.713834 
L 344.541854 301.057892 
L 338.209891 306.600283 
L 336.347534 307.982885 
L 328.72759 314.907879 
z
M 337.245782 307.982885 
L 338.209891 307.267137 
L 345.303708 301.057892 
L 347.692191 299.280704 
L 357.073109 301.057892 
L 347.846797 307.982885 
L 347.692191 308.09601 
L 338.209891 314.907879 
z
M 353.797916 294.132899 
L 357.174491 291.614326 
L 362.599606 287.207905 
L 366.656792 284.17384 
L 371.628644 280.282912 
L 376.139092 276.901216 
L 380.838095 273.357918 
L 385.621393 269.763321 
L 390.20658 266.432925 
L 395.103693 262.746417 
L 399.736525 259.507931 
L 404.585993 255.854914 
L 409.458269 252.582938 
L 414.068294 249.114181 
L 418.754491 252.582938 
L 414.068294 256.274487 
L 410.02836 259.507931 
L 404.585993 263.828182 
L 401.203954 266.432925 
L 395.103693 271.311608 
L 392.322442 273.357918 
L 385.621393 278.753508 
L 383.420131 280.282912 
L 376.139092 286.176324 
L 374.534803 287.207905 
L 366.656792 293.595764 
L 365.716943 294.132899 
L 357.174491 301.011484 
z
M 419.442321 245.657945 
L 423.550594 242.578629 
L 427.330248 245.657945 
L 423.550594 248.612762 
z
M 433.032895 241.464837 
L 436.553053 238.732951 
L 433.032895 235.568255 
L 428.776949 238.732951 
z
M 429.826159 238.732951 
L 433.032895 236.348441 
L 435.685235 238.732951 
L 433.032895 240.791351 
z
M 442.515195 233.49928 
L 444.709303 231.807958 
L 442.515195 229.615417 
L 439.524735 231.807958 
z
M 440.871662 231.807958 
L 442.515195 230.602955 
L 443.72106 231.807958 
L 442.515195 232.737495 
z
M 451.997495 225.238073 
L 452.460892 224.882964 
L 451.997495 224.361499 
L 451.269314 224.882964 
z
" clip-path="url(#pcebd2d03f4)" style="fill: #69add5"/>
    <path d="M 338.209891 314.907879 
L 347.692191 308.09601 
L 347.846797 307.982885 
L 357.073109 301.057892 
L 347.692191 299.280704 
L 345.303708 301.057892 
L 338.209891 307.267137 
L 337.245782 307.982885 
z
M 347.63219 301.057892 
L 347.692191 301.013247 
L 347.927848 301.057892 
L 347.692191 301.241161 
z
M 357.174491 301.011484 
L 365.716943 294.132899 
L 366.656792 293.595764 
L 374.534803 287.207905 
L 376.139092 286.176324 
L 383.420131 280.282912 
L 385.621393 278.753508 
L 392.322442 273.357918 
L 395.103693 271.311608 
L 401.203954 266.432925 
L 404.585993 263.828182 
L 410.02836 259.507931 
L 414.068294 256.274487 
L 418.754491 252.582938 
L 414.068294 249.114181 
L 409.458269 252.582938 
L 404.585993 255.854914 
L 399.736525 259.507931 
L 395.103693 262.746417 
L 390.20658 266.432925 
L 385.621393 269.763321 
L 380.838095 273.357918 
L 376.139092 276.901216 
L 371.628644 280.282912 
L 366.656792 284.17384 
L 362.599606 287.207905 
L 357.174491 291.614326 
L 353.797916 294.132899 
z
M 355.852857 294.132899 
L 357.174491 293.147097 
L 360.518116 294.132899 
L 357.174491 296.825265 
z
M 364.486729 287.207905 
L 366.656792 285.585078 
L 370.870496 287.207905 
L 366.656792 290.624573 
z
M 373.431932 280.282912 
L 376.139092 278.253226 
L 380.509155 280.282912 
L 376.139092 283.820124 
z
M 382.631085 273.357918 
L 385.621393 271.110734 
L 389.810594 273.357918 
L 385.621393 276.731004 
z
M 392.061657 266.432925 
L 395.103693 264.142905 
L 398.893112 266.432925 
L 395.103693 269.463512 
z
M 401.734277 259.507931 
L 404.585993 257.359785 
L 407.786362 259.507931 
L 404.585993 262.048443 
z
M 411.699162 252.582938 
L 414.068294 250.800313 
L 416.476571 252.582938 
L 414.068294 254.480057 
z
M 423.550594 248.612762 
L 427.330248 245.657945 
L 423.550594 242.578629 
L 419.442321 245.657945 
z
M 422.064053 245.657945 
L 423.550594 244.543722 
L 424.918228 245.657945 
L 423.550594 246.727118 
z
M 433.032895 240.791351 
L 435.685235 238.732951 
L 433.032895 236.348441 
L 429.826159 238.732951 
z
M 442.515195 232.737495 
L 443.72106 231.807958 
L 442.515195 230.602955 
L 440.871662 231.807958 
z
" clip-path="url(#pcebd2d03f4)" style="fill: #4292c6"/>
    <path d="M 347.692191 301.241161 
L 347.927848 301.057892 
L 347.692191 301.013247 
L 347.63219 301.057892 
z
M 357.174491 296.825265 
L 360.518116 294.132899 
L 357.174491 293.147097 
L 355.852857 294.132899 
z
M 366.656792 290.624573 
L 370.870496 287.207905 
L 366.656792 285.585078 
L 364.486729 287.207905 
z
M 366.481846 287.207905 
L 366.656792 287.077076 
L 366.996492 287.207905 
L 366.656792 287.48335 
z
M 376.139092 283.820124 
L 380.509155 280.282912 
L 376.139092 278.253226 
L 373.431932 280.282912 
z
M 375.338416 280.282912 
L 376.139092 279.682607 
L 377.431592 280.282912 
L 376.139092 281.329086 
z
M 385.621393 276.731004 
L 389.810594 273.357918 
L 385.621393 271.110734 
L 382.631085 273.357918 
z
M 384.526682 273.357918 
L 385.621393 272.535255 
L 387.155002 273.357918 
L 385.621393 274.592758 
z
M 395.103693 269.463512 
L 398.893112 266.432925 
L 395.103693 264.142905 
L 392.061657 266.432925 
z
M 394.022895 266.432925 
L 395.103693 265.619309 
L 396.450027 266.432925 
L 395.103693 267.509656 
z
M 404.585993 262.048443 
L 407.786362 259.507931 
L 404.585993 257.359785 
L 401.734277 259.507931 
z
M 403.846354 259.507931 
L 404.585993 258.950775 
L 405.416061 259.507931 
L 404.585993 260.166854 
z
M 414.068294 254.480057 
L 416.476571 252.582938 
L 414.068294 250.800313 
L 411.699162 252.582938 
z
M 423.550594 246.727118 
L 424.918228 245.657945 
L 423.550594 244.543722 
L 422.064053 245.657945 
z
" clip-path="url(#pcebd2d03f4)" style="fill: #1663aa"/>
    <path d="M 366.656792 287.48335 
L 366.996492 287.207905 
L 366.656792 287.077076 
L 366.481846 287.207905 
z
M 376.139092 281.329086 
L 377.431592 280.282912 
L 376.139092 279.682607 
L 375.338416 280.282912 
z
M 385.621393 274.592758 
L 387.155002 273.357918 
L 385.621393 272.535255 
L 384.526682 273.357918 
z
M 385.322786 273.357918 
L 385.621393 273.133518 
L 386.039719 273.357918 
L 385.621393 273.694749 
z
M 395.103693 267.509656 
L 396.450027 266.432925 
L 395.103693 265.619309 
L 394.022895 266.432925 
z
M 394.846566 266.432925 
L 395.103693 266.239361 
L 395.423993 266.432925 
L 395.103693 266.689085 
z
M 404.585993 260.166854 
L 405.416061 259.507931 
L 404.585993 258.950775 
L 403.846354 259.507931 
z
" clip-path="url(#pcebd2d03f4)" style="fill: #084285"/>
    <path d="M 385.621393 273.694749 
L 386.039719 273.357918 
L 385.621393 273.133518 
L 385.322786 273.357918 
z
M 395.103693 266.689085 
L 395.423993 266.432925 
L 395.103693 266.239361 
L 394.846566 266.432925 
z
" clip-path="url(#pcebd2d03f4)" style="fill: #083370"/>
   </g>
   <g id="matplotlib.axis_1">
    <g id="xtick_1">
     <g id="line2d_1">
      <defs>
       <path id="ma9554cf14b" d="M 0 0 
L 0 3.5 
" style="stroke: #000000; stroke-width: 0.8"/>
      </defs>
      <g>
       <use xlink:href="#ma9554cf14b" x="102.17" y="499.48" style="stroke: #000000; stroke-width: 0.8"/>
      </g>
     </g>
     <g id="text_1">
      <!-- −80 -->
      <g transform="translate(78.954844 523.196563) scale(0.22 -0.22)">
       <defs>
        <path id="DejaVuSans-2212" d="M 678 2272 
L 4684 2272 
L 4684 1741 
L 678 1741 
L 678 2272 
z
" transform="scale(0.015625)"/>
        <path id="DejaVuSans-38" d="M 2034 2216 
Q 1584 2216 1326 1975 
Q 1069 1734 1069 1313 
Q 1069 891 1326 650 
Q 1584 409 2034 409 
Q 2484 409 2743 651 
Q 3003 894 3003 1313 
Q 3003 1734 2745 1975 
Q 2488 2216 2034 2216 
z
M 1403 2484 
Q 997 2584 770 2862 
Q 544 3141 544 3541 
Q 544 4100 942 4425 
Q 1341 4750 2034 4750 
Q 2731 4750 3128 4425 
Q 3525 4100 3525 3541 
Q 3525 3141 3298 2862 
Q 3072 2584 2669 2484 
Q 3125 2378 3379 2068 
Q 3634 1759 3634 1313 
Q 3634 634 3220 271 
Q 2806 -91 2034 -91 
Q 1263 -91 848 271 
Q 434 634 434 1313 
Q 434 1759 690 2068 
Q 947 2378 1403 2484 
z
M 1172 3481 
Q 1172 3119 1398 2916 
Q 1625 2713 2034 2713 
Q 2441 2713 2670 2916 
Q 2900 3119 2900 3481 
Q 2900 3844 2670 4047 
Q 2441 4250 2034 4250 
Q 1625 4250 1398 4047 
Q 1172 3844 1172 3481 
z
" transform="scale(0.015625)"/>
        <path id="DejaVuSans-30" d="M 2034 4250 
Q 1547 4250 1301 3770 
Q 1056 3291 1056 2328 
Q 1056 1369 1301 889 
Q 1547 409 2034 409 
Q 2525 409 2770 889 
Q 3016 1369 3016 2328 
Q 3016 3291 2770 3770 
Q 2525 4250 2034 4250 
z
M 2034 4750 
Q 2819 4750 3233 4129 
Q 3647 3509 3647 2328 
Q 3647 1150 3233 529 
Q 2819 -91 2034 -91 
Q 1250 -91 836 529 
Q 422 1150 422 2328 
Q 422 3509 836 4129 
Q 1250 4750 2034 4750 
z
" transform="scale(0.015625)"/>
       </defs>
       <use xlink:href="#DejaVuSans-2212"/>
       <use xlink:href="#DejaVuSans-38" x="83.789062"/>
       <use xlink:href="#DejaVuSans-30" x="147.412109"/>
      </g>
     </g>
    </g>
    <g id="xtick_2">
     <g id="line2d_2">
      <g>
       <use xlink:href="#ma9554cf14b" x="174.67375" y="499.48" style="stroke: #000000; stroke-width: 0.8"/>
      </g>
     </g>
     <g id="text_2">
      <!-- −60 -->
      <g transform="translate(151.458594 523.196563) scale(0.22 -0.22)">
       <defs>
        <path id="DejaVuSans-36" d="M 2113 2584 
Q 1688 2584 1439 2293 
Q 1191 2003 1191 1497 
Q 1191 994 1439 701 
Q 1688 409 2113 409 
Q 2538 409 2786 701 
Q 3034 994 3034 1497 
Q 3034 2003 2786 2293 
Q 2538 2584 2113 2584 
z
M 3366 4563 
L 3366 3988 
Q 3128 4100 2886 4159 
Q 2644 4219 2406 4219 
Q 1781 4219 1451 3797 
Q 1122 3375 1075 2522 
Q 1259 2794 1537 2939 
Q 1816 3084 2150 3084 
Q 2853 3084 3261 2657 
Q 3669 2231 3669 1497 
Q 3669 778 3244 343 
Q 2819 -91 2113 -91 
Q 1303 -91 875 529 
Q 447 1150 447 2328 
Q 447 3434 972 4092 
Q 1497 4750 2381 4750 
Q 2619 4750 2861 4703 
Q 3103 4656 3366 4563 
z
" transform="scale(0.015625)"/>
       </defs>
       <use xlink:href="#DejaVuSans-2212"/>
       <use xlink:href="#DejaVuSans-36" x="83.789062"/>
       <use xlink:href="#DejaVuSans-30" x="147.412109"/>
      </g>
     </g>
    </g>
    <g id="xtick_3">
     <g id="line2d_3">
      <g>
       <use xlink:href="#ma9554cf14b" x="247.1775" y="499.48" style="stroke: #000000; stroke-width: 0.8"/>
      </g>
     </g>
     <g id="text_3">
      <!-- −40 -->
      <g transform="translate(223.962344 523.196563) scale(0.22 -0.22)">
       <defs>
        <path id="DejaVuSans-34" d="M 2419 4116 
L 825 1625 
L 2419 1625 
L 2419 4116 
z
M 2253 4666 
L 3047 4666 
L 3047 1625 
L 3713 1625 
L 3713 1100 
L 3047 1100 
L 3047 0 
L 2419 0 
L 2419 1100 
L 313 1100 
L 313 1709 
L 2253 4666 
z
" transform="scale(0.015625)"/>
       </defs>
       <use xlink:href="#DejaVuSans-2212"/>
       <use xlink:href="#DejaVuSans-34" x="83.789062"/>
       <use xlink:href="#DejaVuSans-30" x="147.412109"/>
      </g>
     </g>
    </g>
    <g id="xtick_4">
     <g id="line2d_4">
      <g>
       <use xlink:href="#ma9554cf14b" x="319.68125" y="499.48" style="stroke: #000000; stroke-width: 0.8"/>
      </g>
     </g>
     <g id="text_4">
      <!-- −20 -->
      <g transform="translate(296.466094 523.196563) scale(0.22 -0.22)">
       <defs>
        <path id="DejaVuSans-32" d="M 1228 531 
L 3431 531 
L 3431 0 
L 469 0 
L 469 531 
Q 828 903 1448 1529 
Q 2069 2156 2228 2338 
Q 2531 2678 2651 2914 
Q 2772 3150 2772 3378 
Q 2772 3750 2511 3984 
Q 2250 4219 1831 4219 
Q 1534 4219 1204 4116 
Q 875 4013 500 3803 
L 500 4441 
Q 881 4594 1212 4672 
Q 1544 4750 1819 4750 
Q 2544 4750 2975 4387 
Q 3406 4025 3406 3419 
Q 3406 3131 3298 2873 
Q 3191 2616 2906 2266 
Q 2828 2175 2409 1742 
Q 1991 1309 1228 531 
z
" transform="scale(0.015625)"/>
       </defs>
       <use xlink:href="#DejaVuSans-2212"/>
       <use xlink:href="#DejaVuSans-32" x="83.789062"/>
       <use xlink:href="#DejaVuSans-30" x="147.412109"/>
      </g>
     </g>
    </g>
    <g id="xtick_5">
     <g id="line2d_5">
      <g>
       <use xlink:href="#ma9554cf14b" x="392.185" y="499.48" style="stroke: #000000; stroke-width: 0.8"/>
      </g>
     </g>
     <g id="text_5">
      <!-- 0 -->
      <g transform="translate(385.18625 523.196563) scale(0.22 -0.22)">
       <use xlink:href="#DejaVuSans-30"/>
      </g>
     </g>
    </g>
    <g id="xtick_6">
     <g id="line2d_6">
      <g>
       <use xlink:href="#ma9554cf14b" x="464.68875" y="499.48" style="stroke: #000000; stroke-width: 0.8"/>
      </g>
     </g>
     <g id="text_6">
      <!-- 20 -->
      <g transform="translate(450.69125 523.196563) scale(0.22 -0.22)">
       <use xlink:href="#DejaVuSans-32"/>
       <use xlink:href="#DejaVuSans-30" x="63.623047"/>
      </g>
     </g>
    </g>
    <g id="xtick_7">
     <g id="line2d_7">
      <g>
       <use xlink:href="#ma9554cf14b" x="537.1925" y="499.48" style="stroke: #000000; stroke-width: 0.8"/>
      </g>
     </g>
     <g id="text_7">
      <!-- 40 -->
      <g transform="translate(523.195 523.196563) scale(0.22 -0.22)">
       <use xlink:href="#DejaVuSans-34"/>
       <use xlink:href="#DejaVuSans-30" x="63.623047"/>
      </g>
     </g>
    </g>
    <g id="xtick_8">
     <g id="line2d_8">
      <g>
       <use xlink:href="#ma9554cf14b" x="609.69625" y="499.48" style="stroke: #000000; stroke-width: 0.8"/>
      </g>
     </g>
     <g id="text_8">
      <!-- 60 -->
      <g transform="translate(595.69875 523.196563) scale(0.22 -0.22)">
       <use xlink:href="#DejaVuSans-36"/>
       <use xlink:href="#DejaVuSans-30" x="63.623047"/>
      </g>
     </g>
    </g>
    <g id="xtick_9">
     <g id="line2d_9">
      <g>
       <use xlink:href="#ma9554cf14b" x="682.2" y="499.48" style="stroke: #000000; stroke-width: 0.8"/>
      </g>
     </g>
     <g id="text_9">
      <!-- 80 -->
      <g transform="translate(668.2025 523.196563) scale(0.22 -0.22)">
       <use xlink:href="#DejaVuSans-38"/>
       <use xlink:href="#DejaVuSans-30" x="63.623047"/>
      </g>
     </g>
    </g>
    <g id="text_10">
     <!-- Ground Truth Energy [kJ/mol] -->
     <g transform="translate(232.45125 548.488438) scale(0.22 -0.22)">
      <defs>
       <path id="DejaVuSans-47" d="M 3809 666 
L 3809 1919 
L 2778 1919 
L 2778 2438 
L 4434 2438 
L 4434 434 
Q 4069 175 3628 42 
Q 3188 -91 2688 -91 
Q 1594 -91 976 548 
Q 359 1188 359 2328 
Q 359 3472 976 4111 
Q 1594 4750 2688 4750 
Q 3144 4750 3555 4637 
Q 3966 4525 4313 4306 
L 4313 3634 
Q 3963 3931 3569 4081 
Q 3175 4231 2741 4231 
Q 1884 4231 1454 3753 
Q 1025 3275 1025 2328 
Q 1025 1384 1454 906 
Q 1884 428 2741 428 
Q 3075 428 3337 486 
Q 3600 544 3809 666 
z
" transform="scale(0.015625)"/>
       <path id="DejaVuSans-72" d="M 2631 2963 
Q 2534 3019 2420 3045 
Q 2306 3072 2169 3072 
Q 1681 3072 1420 2755 
Q 1159 2438 1159 1844 
L 1159 0 
L 581 0 
L 581 3500 
L 1159 3500 
L 1159 2956 
Q 1341 3275 1631 3429 
Q 1922 3584 2338 3584 
Q 2397 3584 2469 3576 
Q 2541 3569 2628 3553 
L 2631 2963 
z
" transform="scale(0.015625)"/>
       <path id="DejaVuSans-6f" d="M 1959 3097 
Q 1497 3097 1228 2736 
Q 959 2375 959 1747 
Q 959 1119 1226 758 
Q 1494 397 1959 397 
Q 2419 397 2687 759 
Q 2956 1122 2956 1747 
Q 2956 2369 2687 2733 
Q 2419 3097 1959 3097 
z
M 1959 3584 
Q 2709 3584 3137 3096 
Q 3566 2609 3566 1747 
Q 3566 888 3137 398 
Q 2709 -91 1959 -91 
Q 1206 -91 779 398 
Q 353 888 353 1747 
Q 353 2609 779 3096 
Q 1206 3584 1959 3584 
z
" transform="scale(0.015625)"/>
       <path id="DejaVuSans-75" d="M 544 1381 
L 544 3500 
L 1119 3500 
L 1119 1403 
Q 1119 906 1312 657 
Q 1506 409 1894 409 
Q 2359 409 2629 706 
Q 2900 1003 2900 1516 
L 2900 3500 
L 3475 3500 
L 3475 0 
L 2900 0 
L 2900 538 
Q 2691 219 2414 64 
Q 2138 -91 1772 -91 
Q 1169 -91 856 284 
Q 544 659 544 1381 
z
M 1991 3584 
L 1991 3584 
z
" transform="scale(0.015625)"/>
       <path id="DejaVuSans-6e" d="M 3513 2113 
L 3513 0 
L 2938 0 
L 2938 2094 
Q 2938 2591 2744 2837 
Q 2550 3084 2163 3084 
Q 1697 3084 1428 2787 
Q 1159 2491 1159 1978 
L 1159 0 
L 581 0 
L 581 3500 
L 1159 3500 
L 1159 2956 
Q 1366 3272 1645 3428 
Q 1925 3584 2291 3584 
Q 2894 3584 3203 3211 
Q 3513 2838 3513 2113 
z
" transform="scale(0.015625)"/>
       <path id="DejaVuSans-64" d="M 2906 2969 
L 2906 4863 
L 3481 4863 
L 3481 0 
L 2906 0 
L 2906 525 
Q 2725 213 2448 61 
Q 2172 -91 1784 -91 
Q 1150 -91 751 415 
Q 353 922 353 1747 
Q 353 2572 751 3078 
Q 1150 3584 1784 3584 
Q 2172 3584 2448 3432 
Q 2725 3281 2906 2969 
z
M 947 1747 
Q 947 1113 1208 752 
Q 1469 391 1925 391 
Q 2381 391 2643 752 
Q 2906 1113 2906 1747 
Q 2906 2381 2643 2742 
Q 2381 3103 1925 3103 
Q 1469 3103 1208 2742 
Q 947 2381 947 1747 
z
" transform="scale(0.015625)"/>
       <path id="DejaVuSans-20" transform="scale(0.015625)"/>
       <path id="DejaVuSans-54" d="M -19 4666 
L 3928 4666 
L 3928 4134 
L 2272 4134 
L 2272 0 
L 1638 0 
L 1638 4134 
L -19 4134 
L -19 4666 
z
" transform="scale(0.015625)"/>
       <path id="DejaVuSans-74" d="M 1172 4494 
L 1172 3500 
L 2356 3500 
L 2356 3053 
L 1172 3053 
L 1172 1153 
Q 1172 725 1289 603 
Q 1406 481 1766 481 
L 2356 481 
L 2356 0 
L 1766 0 
Q 1100 0 847 248 
Q 594 497 594 1153 
L 594 3053 
L 172 3053 
L 172 3500 
L 594 3500 
L 594 4494 
L 1172 4494 
z
" transform="scale(0.015625)"/>
       <path id="DejaVuSans-68" d="M 3513 2113 
L 3513 0 
L 2938 0 
L 2938 2094 
Q 2938 2591 2744 2837 
Q 2550 3084 2163 3084 
Q 1697 3084 1428 2787 
Q 1159 2491 1159 1978 
L 1159 0 
L 581 0 
L 581 4863 
L 1159 4863 
L 1159 2956 
Q 1366 3272 1645 3428 
Q 1925 3584 2291 3584 
Q 2894 3584 3203 3211 
Q 3513 2838 3513 2113 
z
" transform="scale(0.015625)"/>
       <path id="DejaVuSans-45" d="M 628 4666 
L 3578 4666 
L 3578 4134 
L 1259 4134 
L 1259 2753 
L 3481 2753 
L 3481 2222 
L 1259 2222 
L 1259 531 
L 3634 531 
L 3634 0 
L 628 0 
L 628 4666 
z
" transform="scale(0.015625)"/>
       <path id="DejaVuSans-65" d="M 3597 1894 
L 3597 1613 
L 953 1613 
Q 991 1019 1311 708 
Q 1631 397 2203 397 
Q 2534 397 2845 478 
Q 3156 559 3463 722 
L 3463 178 
Q 3153 47 2828 -22 
Q 2503 -91 2169 -91 
Q 1331 -91 842 396 
Q 353 884 353 1716 
Q 353 2575 817 3079 
Q 1281 3584 2069 3584 
Q 2775 3584 3186 3129 
Q 3597 2675 3597 1894 
z
M 3022 2063 
Q 3016 2534 2758 2815 
Q 2500 3097 2075 3097 
Q 1594 3097 1305 2825 
Q 1016 2553 972 2059 
L 3022 2063 
z
" transform="scale(0.015625)"/>
       <path id="DejaVuSans-67" d="M 2906 1791 
Q 2906 2416 2648 2759 
Q 2391 3103 1925 3103 
Q 1463 3103 1205 2759 
Q 947 2416 947 1791 
Q 947 1169 1205 825 
Q 1463 481 1925 481 
Q 2391 481 2648 825 
Q 2906 1169 2906 1791 
z
M 3481 434 
Q 3481 -459 3084 -895 
Q 2688 -1331 1869 -1331 
Q 1566 -1331 1297 -1286 
Q 1028 -1241 775 -1147 
L 775 -588 
Q 1028 -725 1275 -790 
Q 1522 -856 1778 -856 
Q 2344 -856 2625 -561 
Q 2906 -266 2906 331 
L 2906 616 
Q 2728 306 2450 153 
Q 2172 0 1784 0 
Q 1141 0 747 490 
Q 353 981 353 1791 
Q 353 2603 747 3093 
Q 1141 3584 1784 3584 
Q 2172 3584 2450 3431 
Q 2728 3278 2906 2969 
L 2906 3500 
L 3481 3500 
L 3481 434 
z
" transform="scale(0.015625)"/>
       <path id="DejaVuSans-79" d="M 2059 -325 
Q 1816 -950 1584 -1140 
Q 1353 -1331 966 -1331 
L 506 -1331 
L 506 -850 
L 844 -850 
Q 1081 -850 1212 -737 
Q 1344 -625 1503 -206 
L 1606 56 
L 191 3500 
L 800 3500 
L 1894 763 
L 2988 3500 
L 3597 3500 
L 2059 -325 
z
" transform="scale(0.015625)"/>
       <path id="DejaVuSans-5b" d="M 550 4863 
L 1875 4863 
L 1875 4416 
L 1125 4416 
L 1125 -397 
L 1875 -397 
L 1875 -844 
L 550 -844 
L 550 4863 
z
" transform="scale(0.015625)"/>
       <path id="DejaVuSans-6b" d="M 581 4863 
L 1159 4863 
L 1159 1991 
L 2875 3500 
L 3609 3500 
L 1753 1863 
L 3688 0 
L 2938 0 
L 1159 1709 
L 1159 0 
L 581 0 
L 581 4863 
z
" transform="scale(0.015625)"/>
       <path id="DejaVuSans-4a" d="M 628 4666 
L 1259 4666 
L 1259 325 
Q 1259 -519 939 -900 
Q 619 -1281 -91 -1281 
L -331 -1281 
L -331 -750 
L -134 -750 
Q 284 -750 456 -515 
Q 628 -281 628 325 
L 628 4666 
z
" transform="scale(0.015625)"/>
       <path id="DejaVuSans-2f" d="M 1625 4666 
L 2156 4666 
L 531 -594 
L 0 -594 
L 1625 4666 
z
" transform="scale(0.015625)"/>
       <path id="DejaVuSans-6d" d="M 3328 2828 
Q 3544 3216 3844 3400 
Q 4144 3584 4550 3584 
Q 5097 3584 5394 3201 
Q 5691 2819 5691 2113 
L 5691 0 
L 5113 0 
L 5113 2094 
Q 5113 2597 4934 2840 
Q 4756 3084 4391 3084 
Q 3944 3084 3684 2787 
Q 3425 2491 3425 1978 
L 3425 0 
L 2847 0 
L 2847 2094 
Q 2847 2600 2669 2842 
Q 2491 3084 2119 3084 
Q 1678 3084 1418 2786 
Q 1159 2488 1159 1978 
L 1159 0 
L 581 0 
L 581 3500 
L 1159 3500 
L 1159 2956 
Q 1356 3278 1631 3431 
Q 1906 3584 2284 3584 
Q 2666 3584 2933 3390 
Q 3200 3197 3328 2828 
z
" transform="scale(0.015625)"/>
       <path id="DejaVuSans-6c" d="M 603 4863 
L 1178 4863 
L 1178 0 
L 603 0 
L 603 4863 
z
" transform="scale(0.015625)"/>
       <path id="DejaVuSans-5d" d="M 1947 4863 
L 1947 -844 
L 622 -844 
L 622 -397 
L 1369 -397 
L 1369 4416 
L 622 4416 
L 622 4863 
L 1947 4863 
z
" transform="scale(0.015625)"/>
      </defs>
      <use xlink:href="#DejaVuSans-47"/>
      <use xlink:href="#DejaVuSans-72" x="77.490234"/>
      <use xlink:href="#DejaVuSans-6f" x="116.353516"/>
      <use xlink:href="#DejaVuSans-75" x="177.535156"/>
      <use xlink:href="#DejaVuSans-6e" x="240.914062"/>
      <use xlink:href="#DejaVuSans-64" x="304.292969"/>
      <use xlink:href="#DejaVuSans-20" x="367.769531"/>
      <use xlink:href="#DejaVuSans-54" x="399.556641"/>
      <use xlink:href="#DejaVuSans-72" x="445.890625"/>
      <use xlink:href="#DejaVuSans-75" x="487.003906"/>
      <use xlink:href="#DejaVuSans-74" x="550.382812"/>
      <use xlink:href="#DejaVuSans-68" x="589.591797"/>
      <use xlink:href="#DejaVuSans-20" x="652.970703"/>
      <use xlink:href="#DejaVuSans-45" x="684.757812"/>
      <use xlink:href="#DejaVuSans-6e" x="747.941406"/>
      <use xlink:href="#DejaVuSans-65" x="811.320312"/>
      <use xlink:href="#DejaVuSans-72" x="872.84375"/>
      <use xlink:href="#DejaVuSans-67" x="912.207031"/>
      <use xlink:href="#DejaVuSans-79" x="975.683594"/>
      <use xlink:href="#DejaVuSans-20" x="1034.863281"/>
      <use xlink:href="#DejaVuSans-5b" x="1066.650391"/>
      <use xlink:href="#DejaVuSans-6b" x="1105.664062"/>
      <use xlink:href="#DejaVuSans-4a" x="1163.574219"/>
      <use xlink:href="#DejaVuSans-2f" x="1193.066406"/>
      <use xlink:href="#DejaVuSans-6d" x="1226.757812"/>
      <use xlink:href="#DejaVuSans-6f" x="1324.169922"/>
      <use xlink:href="#DejaVuSans-6c" x="1385.351562"/>
      <use xlink:href="#DejaVuSans-5d" x="1413.134766"/>
     </g>
    </g>
   </g>
   <g id="matplotlib.axis_2">
    <g id="ytick_1">
     <g id="line2d_10">
      <defs>
       <path id="m61c2aa5450" d="M 0 0 
L -3.5 0 
" style="stroke: #000000; stroke-width: 0.8"/>
      </defs>
      <g>
       <use xlink:href="#m61c2aa5450" x="102.17" y="499.48" style="stroke: #000000; stroke-width: 0.8"/>
      </g>
     </g>
     <g id="text_11">
      <!-- −80 -->
      <g transform="translate(48.739688 507.838281) scale(0.22 -0.22)">
       <use xlink:href="#DejaVuSans-2212"/>
       <use xlink:href="#DejaVuSans-38" x="83.789062"/>
       <use xlink:href="#DejaVuSans-30" x="147.412109"/>
      </g>
     </g>
    </g>
    <g id="ytick_2">
     <g id="line2d_11">
      <g>
       <use xlink:href="#m61c2aa5450" x="102.17" y="441.05" style="stroke: #000000; stroke-width: 0.8"/>
      </g>
     </g>
     <g id="text_12">
      <!-- −60 -->
      <g transform="translate(48.739688 449.408281) scale(0.22 -0.22)">
       <use xlink:href="#DejaVuSans-2212"/>
       <use xlink:href="#DejaVuSans-36" x="83.789062"/>
       <use xlink:href="#DejaVuSans-30" x="147.412109"/>
      </g>
     </g>
    </g>
    <g id="ytick_3">
     <g id="line2d_12">
      <g>
       <use xlink:href="#m61c2aa5450" x="102.17" y="382.62" style="stroke: #000000; stroke-width: 0.8"/>
      </g>
     </g>
     <g id="text_13">
      <!-- −40 -->
      <g transform="translate(48.739688 390.978281) scale(0.22 -0.22)">
       <use xlink:href="#DejaVuSans-2212"/>
       <use xlink:href="#DejaVuSans-34" x="83.789062"/>
       <use xlink:href="#DejaVuSans-30" x="147.412109"/>
      </g>
     </g>
    </g>
    <g id="ytick_4">
     <g id="line2d_13">
      <g>
       <use xlink:href="#m61c2aa5450" x="102.17" y="324.19" style="stroke: #000000; stroke-width: 0.8"/>
      </g>
     </g>
     <g id="text_14">
      <!-- −20 -->
      <g transform="translate(48.739688 332.548281) scale(0.22 -0.22)">
       <use xlink:href="#DejaVuSans-2212"/>
       <use xlink:href="#DejaVuSans-32" x="83.789062"/>
       <use xlink:href="#DejaVuSans-30" x="147.412109"/>
      </g>
     </g>
    </g>
    <g id="ytick_5">
     <g id="line2d_14">
      <g>
       <use xlink:href="#m61c2aa5450" x="102.17" y="265.76" style="stroke: #000000; stroke-width: 0.8"/>
      </g>
     </g>
     <g id="text_15">
      <!-- 0 -->
      <g transform="translate(81.1725 274.118281) scale(0.22 -0.22)">
       <use xlink:href="#DejaVuSans-30"/>
      </g>
     </g>
    </g>
    <g id="ytick_6">
     <g id="line2d_15">
      <g>
       <use xlink:href="#m61c2aa5450" x="102.17" y="207.33" style="stroke: #000000; stroke-width: 0.8"/>
      </g>
     </g>
     <g id="text_16">
      <!-- 20 -->
      <g transform="translate(67.175 215.688281) scale(0.22 -0.22)">
       <use xlink:href="#DejaVuSans-32"/>
       <use xlink:href="#DejaVuSans-30" x="63.623047"/>
      </g>
     </g>
    </g>
    <g id="ytick_7">
     <g id="line2d_16">
      <g>
       <use xlink:href="#m61c2aa5450" x="102.17" y="148.9" style="stroke: #000000; stroke-width: 0.8"/>
      </g>
     </g>
     <g id="text_17">
      <!-- 40 -->
      <g transform="translate(67.175 157.258281) scale(0.22 -0.22)">
       <use xlink:href="#DejaVuSans-34"/>
       <use xlink:href="#DejaVuSans-30" x="63.623047"/>
      </g>
     </g>
    </g>
    <g id="ytick_8">
     <g id="line2d_17">
      <g>
       <use xlink:href="#m61c2aa5450" x="102.17" y="90.47" style="stroke: #000000; stroke-width: 0.8"/>
      </g>
     </g>
     <g id="text_18">
      <!-- 60 -->
      <g transform="translate(67.175 98.828281) scale(0.22 -0.22)">
       <use xlink:href="#DejaVuSans-36"/>
       <use xlink:href="#DejaVuSans-30" x="63.623047"/>
      </g>
     </g>
    </g>
    <g id="ytick_9">
     <g id="line2d_18">
      <g>
       <use xlink:href="#m61c2aa5450" x="102.17" y="32.04" style="stroke: #000000; stroke-width: 0.8"/>
      </g>
     </g>
     <g id="text_19">
      <!-- 80 -->
      <g transform="translate(67.175 40.398281) scale(0.22 -0.22)">
       <use xlink:href="#DejaVuSans-38"/>
       <use xlink:href="#DejaVuSans-30" x="63.623047"/>
      </g>
     </g>
    </g>
    <g id="text_20">
     <!-- Predicted Energy [kJ/mol] -->
     <g transform="translate(40.164375 405.305313) rotate(-90) scale(0.22 -0.22)">
      <defs>
       <path id="DejaVuSans-50" d="M 1259 4147 
L 1259 2394 
L 2053 2394 
Q 2494 2394 2734 2622 
Q 2975 2850 2975 3272 
Q 2975 3691 2734 3919 
Q 2494 4147 2053 4147 
L 1259 4147 
z
M 628 4666 
L 2053 4666 
Q 2838 4666 3239 4311 
Q 3641 3956 3641 3272 
Q 3641 2581 3239 2228 
Q 2838 1875 2053 1875 
L 1259 1875 
L 1259 0 
L 628 0 
L 628 4666 
z
" transform="scale(0.015625)"/>
       <path id="DejaVuSans-69" d="M 603 3500 
L 1178 3500 
L 1178 0 
L 603 0 
L 603 3500 
z
M 603 4863 
L 1178 4863 
L 1178 4134 
L 603 4134 
L 603 4863 
z
" transform="scale(0.015625)"/>
       <path id="DejaVuSans-63" d="M 3122 3366 
L 3122 2828 
Q 2878 2963 2633 3030 
Q 2388 3097 2138 3097 
Q 1578 3097 1268 2742 
Q 959 2388 959 1747 
Q 959 1106 1268 751 
Q 1578 397 2138 397 
Q 2388 397 2633 464 
Q 2878 531 3122 666 
L 3122 134 
Q 2881 22 2623 -34 
Q 2366 -91 2075 -91 
Q 1284 -91 818 406 
Q 353 903 353 1747 
Q 353 2603 823 3093 
Q 1294 3584 2113 3584 
Q 2378 3584 2631 3529 
Q 2884 3475 3122 3366 
z
" transform="scale(0.015625)"/>
      </defs>
      <use xlink:href="#DejaVuSans-50"/>
      <use xlink:href="#DejaVuSans-72" x="58.552734"/>
      <use xlink:href="#DejaVuSans-65" x="97.416016"/>
      <use xlink:href="#DejaVuSans-64" x="158.939453"/>
      <use xlink:href="#DejaVuSans-69" x="222.416016"/>
      <use xlink:href="#DejaVuSans-63" x="250.199219"/>
      <use xlink:href="#DejaVuSans-74" x="305.179688"/>
      <use xlink:href="#DejaVuSans-65" x="344.388672"/>
      <use xlink:href="#DejaVuSans-64" x="405.912109"/>
      <use xlink:href="#DejaVuSans-20" x="469.388672"/>
      <use xlink:href="#DejaVuSans-45" x="501.175781"/>
      <use xlink:href="#DejaVuSans-6e" x="564.359375"/>
      <use xlink:href="#DejaVuSans-65" x="627.738281"/>
      <use xlink:href="#DejaVuSans-72" x="689.261719"/>
      <use xlink:href="#DejaVuSans-67" x="728.625"/>
      <use xlink:href="#DejaVuSans-79" x="792.101562"/>
      <use xlink:href="#DejaVuSans-20" x="851.28125"/>
      <use xlink:href="#DejaVuSans-5b" x="883.068359"/>
      <use xlink:href="#DejaVuSans-6b" x="922.082031"/>
      <use xlink:href="#DejaVuSans-4a" x="979.992188"/>
      <use xlink:href="#DejaVuSans-2f" x="1009.484375"/>
      <use xlink:href="#DejaVuSans-6d" x="1043.175781"/>
      <use xlink:href="#DejaVuSans-6f" x="1140.587891"/>
      <use xlink:href="#DejaVuSans-6c" x="1201.769531"/>
      <use xlink:href="#DejaVuSans-5d" x="1229.552734"/>
     </g>
    </g>
   </g>
   <g id="line2d_19">
    <path d="M 102.17 499.48 
L 682.2 32.04 
" clip-path="url(#pcebd2d03f4)" style="fill: none; stroke-dasharray: 5.55,2.4; stroke-dashoffset: 0; stroke: #ff0000; stroke-width: 1.5"/>
   </g>
   <g id="patch_3">
    <path d="M 102.17 499.48 
L 102.17 32.04 
" style="fill: none; stroke: #000000; stroke-width: 0.8; stroke-linejoin: miter; stroke-linecap: square"/>
   </g>
   <g id="patch_4">
    <path d="M 682.2 499.48 
L 682.2 32.04 
" style="fill: none; stroke: #000000; stroke-width: 0.8; stroke-linejoin: miter; stroke-linecap: square"/>
   </g>
   <g id="patch_5">
    <path d="M 102.17 499.48 
L 682.2 499.48 
" style="fill: none; stroke: #000000; stroke-width: 0.8; stroke-linejoin: miter; stroke-linecap: square"/>
   </g>
   <g id="patch_6">
    <path d="M 102.17 32.04 
L 682.2 32.04 
" style="fill: none; stroke: #000000; stroke-width: 0.8; stroke-linejoin: miter; stroke-linecap: square"/>
   </g>
   <g id="text_21">
    <!-- R2 Score: 0.982 -->
    <g transform="translate(160.173 78.784) scale(0.22 -0.22)">
     <defs>
      <path id="DejaVuSans-52" d="M 2841 2188 
Q 3044 2119 3236 1894 
Q 3428 1669 3622 1275 
L 4263 0 
L 3584 0 
L 2988 1197 
Q 2756 1666 2539 1819 
Q 2322 1972 1947 1972 
L 1259 1972 
L 1259 0 
L 628 0 
L 628 4666 
L 2053 4666 
Q 2853 4666 3247 4331 
Q 3641 3997 3641 3322 
Q 3641 2881 3436 2590 
Q 3231 2300 2841 2188 
z
M 1259 4147 
L 1259 2491 
L 2053 2491 
Q 2509 2491 2742 2702 
Q 2975 2913 2975 3322 
Q 2975 3731 2742 3939 
Q 2509 4147 2053 4147 
L 1259 4147 
z
" transform="scale(0.015625)"/>
      <path id="DejaVuSans-53" d="M 3425 4513 
L 3425 3897 
Q 3066 4069 2747 4153 
Q 2428 4238 2131 4238 
Q 1616 4238 1336 4038 
Q 1056 3838 1056 3469 
Q 1056 3159 1242 3001 
Q 1428 2844 1947 2747 
L 2328 2669 
Q 3034 2534 3370 2195 
Q 3706 1856 3706 1288 
Q 3706 609 3251 259 
Q 2797 -91 1919 -91 
Q 1588 -91 1214 -16 
Q 841 59 441 206 
L 441 856 
Q 825 641 1194 531 
Q 1563 422 1919 422 
Q 2459 422 2753 634 
Q 3047 847 3047 1241 
Q 3047 1584 2836 1778 
Q 2625 1972 2144 2069 
L 1759 2144 
Q 1053 2284 737 2584 
Q 422 2884 422 3419 
Q 422 4038 858 4394 
Q 1294 4750 2059 4750 
Q 2388 4750 2728 4690 
Q 3069 4631 3425 4513 
z
" transform="scale(0.015625)"/>
      <path id="DejaVuSans-3a" d="M 750 794 
L 1409 794 
L 1409 0 
L 750 0 
L 750 794 
z
M 750 3309 
L 1409 3309 
L 1409 2516 
L 750 2516 
L 750 3309 
z
" transform="scale(0.015625)"/>
      <path id="DejaVuSans-2e" d="M 684 794 
L 1344 794 
L 1344 0 
L 684 0 
L 684 794 
z
" transform="scale(0.015625)"/>
      <path id="DejaVuSans-39" d="M 703 97 
L 703 672 
Q 941 559 1184 500 
Q 1428 441 1663 441 
Q 2288 441 2617 861 
Q 2947 1281 2994 2138 
Q 2813 1869 2534 1725 
Q 2256 1581 1919 1581 
Q 1219 1581 811 2004 
Q 403 2428 403 3163 
Q 403 3881 828 4315 
Q 1253 4750 1959 4750 
Q 2769 4750 3195 4129 
Q 3622 3509 3622 2328 
Q 3622 1225 3098 567 
Q 2575 -91 1691 -91 
Q 1453 -91 1209 -44 
Q 966 3 703 97 
z
M 1959 2075 
Q 2384 2075 2632 2365 
Q 2881 2656 2881 3163 
Q 2881 3666 2632 3958 
Q 2384 4250 1959 4250 
Q 1534 4250 1286 3958 
Q 1038 3666 1038 3163 
Q 1038 2656 1286 2365 
Q 1534 2075 1959 2075 
z
" transform="scale(0.015625)"/>
     </defs>
     <use xlink:href="#DejaVuSans-52"/>
     <use xlink:href="#DejaVuSans-32" x="69.482422"/>
     <use xlink:href="#DejaVuSans-20" x="133.105469"/>
     <use xlink:href="#DejaVuSans-53" x="164.892578"/>
     <use xlink:href="#DejaVuSans-63" x="228.369141"/>
     <use xlink:href="#DejaVuSans-6f" x="283.349609"/>
     <use xlink:href="#DejaVuSans-72" x="344.53125"/>
     <use xlink:href="#DejaVuSans-65" x="383.394531"/>
     <use xlink:href="#DejaVuSans-3a" x="444.917969"/>
     <use xlink:href="#DejaVuSans-20" x="478.609375"/>
     <use xlink:href="#DejaVuSans-30" x="510.396484"/>
     <use xlink:href="#DejaVuSans-2e" x="574.019531"/>
     <use xlink:href="#DejaVuSans-39" x="605.806641"/>
     <use xlink:href="#DejaVuSans-38" x="669.429688"/>
     <use xlink:href="#DejaVuSans-32" x="733.052734"/>
    </g>
   </g>
  </g>
 </g>
 <defs>
  <clipPath id="pcebd2d03f4">
   <rect x="102.17" y="32.04" width="580.03" height="467.44"/>
  </clipPath>
 </defs>
</svg>
