<?xml version="1.0" encoding="utf-8" standalone="no"?>
<!DOCTYPE svg PUBLIC "-//W3C//DTD SVG 1.1//EN"
  "http://www.w3.org/Graphics/SVG/1.1/DTD/svg11.dtd">
<svg xmlns:xlink="http://www.w3.org/1999/xlink" width="720pt" height="576pt" viewBox="0 0 720 576" xmlns="http://www.w3.org/2000/svg" version="1.1">
 <metadata>
  <rdf:RDF xmlns:dc="http://purl.org/dc/elements/1.1/" xmlns:cc="http://creativecommons.org/ns#" xmlns:rdf="http://www.w3.org/1999/02/22-rdf-syntax-ns#">
   <cc:Work>
    <dc:type rdf:resource="http://purl.org/dc/dcmitype/StillImage"/>
    <dc:date>2024-12-07T19:50:29.235220</dc:date>
    <dc:format>image/svg+xml</dc:format>
    <dc:creator>
     <cc:Agent>
      <dc:title>Matplotlib v3.8.4, https://matplotlib.org/</dc:title>
     </cc:Agent>
    </dc:creator>
   </cc:Work>
  </rdf:RDF>
 </metadata>
 <defs>
  <style type="text/css">*{stroke-linejoin: round; stroke-linecap: butt}</style>
 </defs>
 <g id="figure_1">
  <g id="patch_1">
   <path d="M 0 576 
L 720 576 
L 720 0 
L 0 0 
z
" style="fill: #ffffff"/>
  </g>
  <g id="axes_1">
   <g id="patch_2">
    <path d="M 83.72 499.48 
L 696.24 499.48 
L 696.24 23.76 
L 83.72 23.76 
z
" style="fill: #ffffff"/>
   </g>
   <g id="QuadContourSet_1">
    <path d="M 95.631732 494.933134 
L 97.652412 495.645795 
L 99.673091 495.936966 
L 101.693771 495.860248 
L 103.714451 495.439859 
L 105.152358 494.871727 
L 105.735131 494.749929 
L 107.755811 494.160732 
L 109.776491 493.252849 
L 111.182893 492.346525 
L 111.797171 492.105815 
L 113.817851 491.133622 
L 115.582067 489.821323 
L 115.838531 489.690373 
L 117.859211 488.517053 
L 119.290668 487.296122 
L 119.87989 486.905717 
L 121.90057 485.198022 
L 122.336547 484.77092 
L 123.92125 483.391501 
L 124.991003 482.245718 
L 125.94193 481.222214 
L 127.213595 479.720516 
L 127.96261 478.715044 
L 129.117033 477.195314 
L 129.98329 475.728921 
L 130.693975 474.670112 
L 131.907109 472.14491 
L 132.00397 471.871786 
L 133.081204 469.619709 
L 133.786378 467.094507 
L 134.02465 465.526548 
L 134.254062 464.569305 
L 134.276938 462.044103 
L 134.02465 461.151693 
L 133.494394 459.518901 
L 132.00397 457.734261 
L 130.977529 456.993699 
L 129.98329 456.371208 
L 127.96261 455.574525 
L 125.94193 455.222055 
L 123.92125 455.171477 
L 121.90057 455.349237 
L 119.87989 455.717288 
L 117.859211 456.234631 
L 115.838531 456.803563 
L 114.919456 456.993699 
L 113.817851 457.129832 
L 111.797171 457.240276 
L 109.776491 457.186832 
L 107.755811 457.01067 
L 107.390275 456.993699 
L 105.735131 456.871061 
L 104.949389 456.993699 
L 103.714451 457.104819 
L 101.693771 457.568249 
L 99.673091 458.319683 
L 97.652412 459.518901 
L 97.652412 459.518901 
L 95.631732 460.480183 
L 93.61844 462.044103 
L 93.611052 462.048543 
L 91.590372 463.42342 
L 90.414807 464.569305 
L 89.569692 465.305955 
L 87.982166 467.094507 
L 87.549012 467.574866 
L 85.960135 469.619709 
L 85.528332 470.223678 
L 84.20806 472.14491 
L 83.507652 473.370774 
L 82.711218 474.670112 
L 81.527296 477.195314 
L 81.486972 477.295283 
L 80.242601 479.720516 
L 79.466292 482.211332 
L 79.45105 482.245718 
L 78.639074 484.77092 
L 78.324012 487.296122 
L 78.544355 489.821323 
L 79.466292 491.947311 
L 79.685354 492.346525 
L 81.486972 494.052842 
L 83.507652 494.716862 
L 85.528332 494.779382 
L 87.549012 494.585011 
L 89.569692 494.310626 
L 91.590372 494.148549 
L 93.611052 494.362032 
L 95.481398 494.871727 
z
M 87.134662 489.821323 
L 85.528332 489.34531 
L 83.705314 487.296122 
L 83.507652 486.439281 
L 83.192003 484.77092 
L 83.507652 482.245718 
L 83.507652 482.245718 
L 84.210753 479.720516 
L 85.414472 477.195314 
L 85.528332 477.006705 
L 86.825875 474.670112 
L 87.549012 473.643513 
L 88.634486 472.14491 
L 89.569692 470.996289 
L 90.856522 469.619709 
L 91.590372 468.836744 
L 93.611052 467.136925 
L 93.672336 467.094507 
L 95.631732 465.538829 
L 97.489799 464.569305 
L 97.652412 464.460985 
L 99.673091 463.513685 
L 101.693771 463.018996 
L 103.714451 462.862012 
L 105.735131 462.895951 
L 107.755811 462.930434 
L 109.776491 462.815487 
L 111.797171 462.502827 
L 113.817851 462.071311 
L 113.925243 462.044103 
L 115.838531 461.363301 
L 117.859211 460.792564 
L 119.87989 460.442327 
L 121.90057 460.363172 
L 123.92125 460.659313 
L 125.94193 461.544989 
L 126.620094 462.044103 
L 127.96261 463.57948 
L 128.543402 464.569305 
L 128.981486 467.094507 
L 128.633227 469.619709 
L 127.96261 471.381441 
L 127.73928 472.14491 
L 126.526267 474.670112 
L 125.94193 475.54566 
L 124.921637 477.195314 
L 123.92125 478.46963 
L 122.910716 479.720516 
L 121.90057 480.83852 
L 120.446131 482.245718 
L 119.87989 482.800398 
L 117.859211 484.489699 
L 117.470559 484.77092 
L 115.838531 486.118413 
L 113.817851 487.293767 
L 113.813376 487.296122 
L 111.797171 488.665562 
L 109.776491 489.574596 
L 109.059162 489.821323 
L 107.755811 490.481222 
L 105.735131 491.129582 
L 103.714451 491.435793 
L 101.693771 491.385254 
L 99.673091 490.87354 
L 97.652412 489.880756 
L 97.517654 489.821323 
L 95.631732 489.211857 
L 93.611052 489.170184 
L 91.590372 489.467387 
L 89.569692 489.793171 
L 88.973495 489.821323 
L 87.549012 489.91886 
z
" clip-path="url(#p626e771f37)" style="fill: #ebf3fb"/>
    <path d="M 87.549012 489.91886 
L 88.973495 489.821323 
L 89.569692 489.793171 
L 91.590372 489.467387 
L 93.611052 489.170184 
L 95.631732 489.211857 
L 97.517654 489.821323 
L 97.652412 489.880756 
L 99.673091 490.87354 
L 101.693771 491.385254 
L 103.714451 491.435793 
L 105.735131 491.129582 
L 107.755811 490.481222 
L 109.059162 489.821323 
L 109.776491 489.574596 
L 111.797171 488.665562 
L 113.813376 487.296122 
L 113.817851 487.293767 
L 115.838531 486.118413 
L 117.470559 484.77092 
L 117.859211 484.489699 
L 119.87989 482.800398 
L 120.446131 482.245718 
L 121.90057 480.83852 
L 122.910716 479.720516 
L 123.92125 478.46963 
L 124.921637 477.195314 
L 125.94193 475.54566 
L 126.526267 474.670112 
L 127.73928 472.14491 
L 127.96261 471.381441 
L 128.633227 469.619709 
L 128.981486 467.094507 
L 128.543402 464.569305 
L 127.96261 463.57948 
L 126.620094 462.044103 
L 125.94193 461.544989 
L 123.92125 460.659313 
L 121.90057 460.363172 
L 119.87989 460.442327 
L 117.859211 460.792564 
L 115.838531 461.363301 
L 113.925243 462.044103 
L 113.817851 462.071311 
L 111.797171 462.502827 
L 109.776491 462.815487 
L 107.755811 462.930434 
L 105.735131 462.895951 
L 103.714451 462.862012 
L 101.693771 463.018996 
L 99.673091 463.513685 
L 97.652412 464.460985 
L 97.489799 464.569305 
L 95.631732 465.538829 
L 93.672336 467.094507 
L 93.611052 467.136925 
L 91.590372 468.836744 
L 90.856522 469.619709 
L 89.569692 470.996289 
L 88.634486 472.14491 
L 87.549012 473.643513 
L 86.825875 474.670112 
L 85.528332 477.006705 
L 85.414472 477.195314 
L 84.210753 479.720516 
L 83.507652 482.245718 
L 83.507652 482.245718 
L 83.192003 484.77092 
L 83.507652 486.439281 
L 83.705314 487.296122 
L 85.528332 489.34531 
L 87.134662 489.821323 
z
M 99.14722 487.296122 
L 97.652412 486.523128 
L 95.631732 486.316548 
L 93.611052 486.63185 
L 91.590372 487.03074 
L 89.569692 487.206877 
L 87.549012 486.561826 
L 86.180169 484.77092 
L 85.932929 482.245718 
L 86.469111 479.720516 
L 87.549012 477.289415 
L 87.587121 477.195314 
L 89.084066 474.670112 
L 89.569692 474.018206 
L 91.083592 472.14491 
L 91.590372 471.57731 
L 93.611052 469.700512 
L 93.720046 469.619709 
L 95.631732 468.14265 
L 97.652412 467.094507 
L 97.652412 467.094507 
L 99.673091 466.322759 
L 101.693771 465.988274 
L 103.714451 465.953165 
L 105.735131 466.025283 
L 107.755811 465.954117 
L 109.776491 465.581041 
L 111.797171 465.0152 
L 113.25372 464.569305 
L 113.817851 464.352313 
L 115.838531 463.626118 
L 117.859211 463.146833 
L 119.87989 462.964475 
L 121.90057 463.199086 
L 123.92125 464.127503 
L 124.459338 464.569305 
L 125.94193 467.035194 
L 125.967181 467.094507 
L 126.104247 469.619709 
L 125.94193 470.17937 
L 125.501489 472.14491 
L 124.348863 474.670112 
L 123.92125 475.31546 
L 122.754793 477.195314 
L 121.90057 478.255832 
L 120.676935 479.720516 
L 119.87989 480.563054 
L 118.048753 482.245718 
L 117.859211 482.420921 
L 115.838531 484.114572 
L 114.854663 484.77092 
L 113.817851 485.556596 
L 111.797171 486.747886 
L 110.566158 487.296122 
L 109.776491 487.751313 
L 107.755811 488.568849 
L 105.735131 489.01947 
L 103.714451 489.097408 
L 101.693771 488.663684 
L 99.673091 487.596389 
z
" clip-path="url(#p626e771f37)" style="fill: #d5e5f4"/>
    <path d="M 99.673091 487.596389 
L 101.693771 488.663684 
L 103.714451 489.097408 
L 105.735131 489.01947 
L 107.755811 488.568849 
L 109.776491 487.751313 
L 110.566158 487.296122 
L 111.797171 486.747886 
L 113.817851 485.556596 
L 114.854663 484.77092 
L 115.838531 484.114572 
L 117.859211 482.420921 
L 118.048753 482.245718 
L 119.87989 480.563054 
L 120.676935 479.720516 
L 121.90057 478.255832 
L 122.754793 477.195314 
L 123.92125 475.31546 
L 124.348863 474.670112 
L 125.501489 472.14491 
L 125.94193 470.17937 
L 126.104247 469.619709 
L 125.967181 467.094507 
L 125.94193 467.035194 
L 124.459338 464.569305 
L 123.92125 464.127503 
L 121.90057 463.199086 
L 119.87989 462.964475 
L 117.859211 463.146833 
L 115.838531 463.626118 
L 113.817851 464.352313 
L 113.25372 464.569305 
L 111.797171 465.0152 
L 109.776491 465.581041 
L 107.755811 465.954117 
L 105.735131 466.025283 
L 103.714451 465.953165 
L 101.693771 465.988274 
L 99.673091 466.322759 
L 97.652412 467.094507 
L 97.652412 467.094507 
L 95.631732 468.14265 
L 93.720046 469.619709 
L 93.611052 469.700512 
L 91.590372 471.57731 
L 91.083592 472.14491 
L 89.569692 474.018206 
L 89.084066 474.670112 
L 87.587121 477.195314 
L 87.549012 477.289415 
L 86.469111 479.720516 
L 85.932929 482.245718 
L 86.180169 484.77092 
L 87.549012 486.561826 
L 89.569692 487.206877 
L 91.590372 487.03074 
L 93.611052 486.63185 
L 95.631732 486.316548 
L 97.652412 486.523128 
L 99.14722 487.296122 
z
M 103.714451 487.296122 
L 103.714451 487.296122 
L 101.693771 486.3613 
L 99.673091 484.819285 
L 99.569434 484.77092 
L 97.652412 484.071129 
L 95.631732 484.279289 
L 93.648272 484.77092 
L 93.611052 484.780442 
L 91.590372 485.13453 
L 89.569692 484.842965 
L 89.453591 484.77092 
L 88.001345 482.245718 
L 88.262103 479.720516 
L 89.252574 477.195314 
L 89.569692 476.680846 
L 90.844406 474.670112 
L 91.590372 473.745527 
L 93.090155 472.14491 
L 93.611052 471.637665 
L 95.631732 470.114769 
L 96.580236 469.619709 
L 97.652412 469.031929 
L 99.673091 468.426661 
L 101.693771 468.239923 
L 103.714451 468.32965 
L 105.735131 468.392094 
L 107.755811 468.090476 
L 109.776491 467.480085 
L 110.792554 467.094507 
L 111.797171 466.674719 
L 113.817851 465.847303 
L 115.838531 465.228702 
L 117.859211 464.859868 
L 119.87989 464.853414 
L 121.90057 465.52104 
L 123.5539 467.094507 
L 123.92125 468.269936 
L 124.23498 469.619709 
L 123.92125 471.499174 
L 123.837627 472.14491 
L 122.826354 474.670112 
L 121.90057 476.093288 
L 121.226091 477.195314 
L 119.87989 478.823478 
L 119.106391 479.720516 
L 117.859211 480.97078 
L 116.385544 482.245718 
L 115.838531 482.71657 
L 113.817851 484.196646 
L 112.836645 484.77092 
L 111.797171 485.46017 
L 109.776491 486.447105 
L 107.755811 487.101985 
L 106.526059 487.296122 
L 105.735131 487.458462 
z
" clip-path="url(#p626e771f37)" style="fill: #bcd7eb"/>
    <path d="M 105.735131 487.458462 
L 106.526059 487.296122 
L 107.755811 487.101985 
L 109.776491 486.447105 
L 111.797171 485.46017 
L 112.836645 484.77092 
L 113.817851 484.196646 
L 115.838531 482.71657 
L 116.385544 482.245718 
L 117.859211 480.97078 
L 119.106391 479.720516 
L 119.87989 478.823478 
L 121.226091 477.195314 
L 121.90057 476.093288 
L 122.826354 474.670112 
L 123.837627 472.14491 
L 123.92125 471.499174 
L 124.23498 469.619709 
L 123.92125 468.269936 
L 123.5539 467.094507 
L 121.90057 465.52104 
L 119.87989 464.853414 
L 117.859211 464.859868 
L 115.838531 465.228702 
L 113.817851 465.847303 
L 111.797171 466.674719 
L 110.792554 467.094507 
L 109.776491 467.480085 
L 107.755811 468.090476 
L 105.735131 468.392094 
L 103.714451 468.32965 
L 101.693771 468.239923 
L 99.673091 468.426661 
L 97.652412 469.031929 
L 96.580236 469.619709 
L 95.631732 470.114769 
L 93.611052 471.637665 
L 93.090155 472.14491 
L 91.590372 473.745527 
L 90.844406 474.670112 
L 89.569692 476.680846 
L 89.252574 477.195314 
L 88.262103 479.720516 
L 88.001345 482.245718 
L 89.453591 484.77092 
L 89.569692 484.842965 
L 91.590372 485.13453 
L 93.611052 484.780442 
L 93.648272 484.77092 
L 95.631732 484.279289 
L 97.652412 484.071129 
L 99.569434 484.77092 
L 99.673091 484.819285 
L 101.693771 486.3613 
L 103.714451 487.296122 
L 103.714451 487.296122 
z
M 102.297812 484.77092 
L 101.693771 484.100159 
L 99.673091 482.319928 
L 98.943513 482.245718 
L 97.652412 482.143317 
L 97.327522 482.245718 
L 95.631732 482.683302 
L 93.611052 483.173734 
L 91.590372 483.169836 
L 90.204829 482.245718 
L 89.859184 479.720516 
L 90.76071 477.195314 
L 91.590372 475.888594 
L 92.450636 474.670112 
L 93.611052 473.422923 
L 95.123865 472.14491 
L 95.631732 471.756061 
L 97.652412 470.750792 
L 99.673091 470.254541 
L 101.693771 470.237729 
L 103.714451 470.478271 
L 105.735131 470.367513 
L 107.755811 469.760395 
L 108.040697 469.619709 
L 109.776491 468.821108 
L 111.797171 467.895275 
L 113.817851 467.112612 
L 113.880045 467.094507 
L 115.838531 466.43496 
L 117.859211 466.146532 
L 119.87989 466.402131 
L 121.17416 467.094507 
L 121.90057 467.921155 
L 122.687163 469.619709 
L 122.564149 472.14491 
L 121.90057 473.804793 
L 121.60399 474.670112 
L 120.0302 477.195314 
L 119.87989 477.377107 
L 117.859211 479.720516 
L 117.859211 479.720516 
L 115.838531 481.606967 
L 115.028582 482.245718 
L 113.817851 483.185282 
L 111.797171 484.404519 
L 111.000998 484.77092 
L 109.776491 485.40782 
L 107.755811 486.033679 
L 105.735131 486.196098 
L 103.714451 485.693107 
z
" clip-path="url(#p626e771f37)" style="fill: #9cc9e1"/>
    <path d="M 103.714451 485.693107 
L 105.735131 486.196098 
L 107.755811 486.033679 
L 109.776491 485.40782 
L 111.000998 484.77092 
L 111.797171 484.404519 
L 113.817851 483.185282 
L 115.028582 482.245718 
L 115.838531 481.606967 
L 117.859211 479.720516 
L 117.859211 479.720516 
L 119.87989 477.377107 
L 120.0302 477.195314 
L 121.60399 474.670112 
L 121.90057 473.804793 
L 122.564149 472.14491 
L 122.687163 469.619709 
L 121.90057 467.921155 
L 121.17416 467.094507 
L 119.87989 466.402131 
L 117.859211 466.146532 
L 115.838531 466.43496 
L 113.880045 467.094507 
L 113.817851 467.112612 
L 111.797171 467.895275 
L 109.776491 468.821108 
L 108.040697 469.619709 
L 107.755811 469.760395 
L 105.735131 470.367513 
L 103.714451 470.478271 
L 101.693771 470.237729 
L 99.673091 470.254541 
L 97.652412 470.750792 
L 95.631732 471.756061 
L 95.123865 472.14491 
L 93.611052 473.422923 
L 92.450636 474.670112 
L 91.590372 475.888594 
L 90.76071 477.195314 
L 89.859184 479.720516 
L 90.204829 482.245718 
L 91.590372 483.169836 
L 93.611052 483.173734 
L 95.631732 482.683302 
L 97.327522 482.245718 
L 97.652412 482.143317 
L 98.943513 482.245718 
L 99.673091 482.319928 
L 101.693771 484.100159 
L 102.297812 484.77092 
z
M 104.942402 484.77092 
L 103.714451 484.007563 
L 102.165245 482.245718 
L 101.693771 481.207513 
L 99.673091 479.887579 
L 97.652412 480.347917 
L 95.631732 481.014263 
L 93.611052 481.370621 
L 91.590372 479.827165 
L 91.552415 479.720516 
L 91.590372 479.58823 
L 92.323109 477.195314 
L 93.611052 475.33014 
L 94.174124 474.670112 
L 95.631732 473.488794 
L 97.652412 472.408959 
L 98.971383 472.14491 
L 99.673091 472.033242 
L 100.588842 472.14491 
L 101.693771 472.428734 
L 103.714451 472.784034 
L 105.735131 472.14491 
L 105.735131 472.14491 
L 107.755811 471.086076 
L 109.776491 469.993426 
L 110.471886 469.619709 
L 111.797171 468.925713 
L 113.817851 468.072959 
L 115.838531 467.508739 
L 117.859211 467.34446 
L 119.87989 468.015825 
L 121.23478 469.619709 
L 121.418395 472.14491 
L 120.598458 474.670112 
L 119.87989 475.813573 
L 119.053684 477.195314 
L 117.859211 478.59742 
L 116.84528 479.720516 
L 115.838531 480.660389 
L 113.828304 482.245718 
L 113.817851 482.25383 
L 111.797171 483.55763 
L 109.776491 484.476926 
L 108.682497 484.77092 
L 107.755811 485.049784 
L 105.735131 485.04891 
z
" clip-path="url(#p626e771f37)" style="fill: #77b5d9"/>
    <path d="M 105.735131 485.04891 
L 107.755811 485.049784 
L 108.682497 484.77092 
L 109.776491 484.476926 
L 111.797171 483.55763 
L 113.817851 482.25383 
L 113.828304 482.245718 
L 115.838531 480.660389 
L 116.84528 479.720516 
L 117.859211 478.59742 
L 119.053684 477.195314 
L 119.87989 475.813573 
L 120.598458 474.670112 
L 121.418395 472.14491 
L 121.23478 469.619709 
L 119.87989 468.015825 
L 117.859211 467.34446 
L 115.838531 467.508739 
L 113.817851 468.072959 
L 111.797171 468.925713 
L 110.471886 469.619709 
L 109.776491 469.993426 
L 107.755811 471.086076 
L 105.735131 472.14491 
L 105.735131 472.14491 
L 103.714451 472.784034 
L 101.693771 472.428734 
L 100.588842 472.14491 
L 99.673091 472.033242 
L 98.971383 472.14491 
L 97.652412 472.408959 
L 95.631732 473.488794 
L 94.174124 474.670112 
L 93.611052 475.33014 
L 92.323109 477.195314 
L 91.590372 479.58823 
L 91.552415 479.720516 
L 91.590372 479.827165 
L 93.611052 481.370621 
L 95.631732 481.014263 
L 97.652412 480.347917 
L 99.673091 479.887579 
L 101.693771 481.207513 
L 102.165245 482.245718 
L 103.714451 484.007563 
L 104.942402 484.77092 
z
M 103.627642 482.245718 
L 102.580229 479.720516 
L 102.163712 477.195314 
L 103.714451 475.361807 
L 104.153679 474.670112 
L 105.735131 473.634633 
L 107.755811 472.170246 
L 107.787026 472.14491 
L 109.776491 470.858259 
L 111.797171 469.758964 
L 112.108328 469.619709 
L 113.817851 468.858331 
L 115.838531 468.342464 
L 117.859211 468.366406 
L 119.87989 469.480035 
L 119.997881 469.619709 
L 120.510276 472.14491 
L 119.87989 474.281714 
L 119.779167 474.670112 
L 118.271229 477.195314 
L 117.859211 477.678953 
L 116.016087 479.720516 
L 115.838531 479.886278 
L 113.817851 481.540241 
L 112.756484 482.245718 
L 111.797171 482.865043 
L 109.776491 483.758373 
L 107.755811 484.208676 
L 105.735131 483.948245 
L 103.714451 482.344443 
z
M 94.000714 477.195314 
L 95.631732 475.35877 
L 96.563412 474.670112 
L 97.652412 474.238854 
L 99.673091 474.480331 
L 100.11437 474.670112 
L 99.673091 477.195314 
L 99.673091 477.195314 
L 97.652412 478.313672 
L 95.631732 479.331932 
z
" clip-path="url(#p626e771f37)" style="fill: #5ba3d0"/>
    <path d="M 103.714451 482.344443 
L 105.735131 483.948245 
L 107.755811 484.208676 
L 109.776491 483.758373 
L 111.797171 482.865043 
L 112.756484 482.245718 
L 113.817851 481.540241 
L 115.838531 479.886278 
L 116.016087 479.720516 
L 117.859211 477.678953 
L 118.271229 477.195314 
L 119.779167 474.670112 
L 119.87989 474.281714 
L 120.510276 472.14491 
L 119.997881 469.619709 
L 119.87989 469.480035 
L 117.859211 468.366406 
L 115.838531 468.342464 
L 113.817851 468.858331 
L 112.108328 469.619709 
L 111.797171 469.758964 
L 109.776491 470.858259 
L 107.787026 472.14491 
L 107.755811 472.170246 
L 105.735131 473.634633 
L 104.153679 474.670112 
L 103.714451 475.361807 
L 102.163712 477.195314 
L 102.580229 479.720516 
L 103.627642 482.245718 
z
M 105.735131 482.245718 
L 105.735131 482.245718 
L 104.617833 479.720516 
L 104.98311 477.195314 
L 105.735131 476.125097 
L 106.691603 474.670112 
L 107.755811 473.75086 
L 109.734422 472.14491 
L 109.776491 472.117703 
L 111.797171 470.908248 
L 113.817851 470.029628 
L 115.566648 469.619709 
L 115.838531 469.556606 
L 116.339015 469.619709 
L 117.859211 470.02416 
L 119.09721 472.14491 
L 118.61665 474.670112 
L 117.859211 475.94557 
L 117.130127 477.195314 
L 115.838531 478.634847 
L 114.764886 479.720516 
L 113.817851 480.501808 
L 111.797171 481.818953 
L 110.859244 482.245718 
L 109.776491 482.711954 
L 107.755811 482.955608 
z
M 95.631732 479.331932 
L 97.652412 478.313672 
L 99.673091 477.195314 
L 99.673091 477.195314 
L 100.11437 474.670112 
L 99.673091 474.480331 
L 97.652412 474.238854 
L 96.563412 474.670112 
L 95.631732 475.35877 
L 94.000714 477.195314 
z
" clip-path="url(#p626e771f37)" style="fill: #3f8fc5"/>
    <path d="M 107.755811 482.955608 
L 109.776491 482.711954 
L 110.859244 482.245718 
L 111.797171 481.818953 
L 113.817851 480.501808 
L 114.764886 479.720516 
L 115.838531 478.634847 
L 117.130127 477.195314 
L 117.859211 475.94557 
L 118.61665 474.670112 
L 119.09721 472.14491 
L 117.859211 470.02416 
L 116.339015 469.619709 
L 115.838531 469.556606 
L 115.566648 469.619709 
L 113.817851 470.029628 
L 111.797171 470.908248 
L 109.776491 472.117703 
L 109.734422 472.14491 
L 107.755811 473.75086 
L 106.691603 474.670112 
L 105.735131 476.125097 
L 104.98311 477.195314 
L 104.617833 479.720516 
L 105.735131 482.245718 
L 105.735131 482.245718 
z
M 107.650278 479.720516 
L 107.755811 477.195314 
L 107.755811 477.195314 
L 109.532351 474.670112 
L 109.776491 474.45981 
L 111.797171 473.062139 
L 113.658245 472.14491 
L 113.817851 472.082049 
L 115.337647 472.14491 
L 115.838531 472.241151 
L 116.433322 474.670112 
L 115.838531 475.781071 
L 115.040339 477.195314 
L 113.817851 478.393052 
L 112.192303 479.720516 
L 111.797171 479.968176 
L 109.776491 480.519055 
L 107.755811 479.842719 
z
" clip-path="url(#p626e771f37)" style="fill: #1c6bb0"/>
    <path d="M 107.755811 479.842719 
L 109.776491 480.519055 
L 111.797171 479.968176 
L 112.192303 479.720516 
L 113.817851 478.393052 
L 115.040339 477.195314 
L 115.838531 475.781071 
L 116.433322 474.670112 
L 115.838531 472.241151 
L 115.337647 472.14491 
L 113.817851 472.082049 
L 113.658245 472.14491 
L 111.797171 473.062139 
L 109.776491 474.45981 
L 109.532351 474.670112 
L 107.755811 477.195314 
L 107.755811 477.195314 
L 107.650278 479.720516 
z
" clip-path="url(#p626e771f37)" style="fill: #084387"/>
   </g>
   <g id="matplotlib.axis_1">
    <g id="xtick_1">
     <g id="line2d_1">
      <defs>
       <path id="m6f18be1961" d="M 0 0 
L 0 3.5 
" style="stroke: #000000; stroke-width: 0.8"/>
      </defs>
      <g>
       <use xlink:href="#m6f18be1961" x="92.950909" y="499.48" style="stroke: #000000; stroke-width: 0.8"/>
      </g>
     </g>
     <g id="text_1">
      <!-- 0 -->
      <g transform="translate(85.952159 523.196563) scale(0.22 -0.22)">
       <defs>
        <path id="DejaVuSans-30" d="M 2034 4250 
Q 1547 4250 1301 3770 
Q 1056 3291 1056 2328 
Q 1056 1369 1301 889 
Q 1547 409 2034 409 
Q 2525 409 2770 889 
Q 3016 1369 3016 2328 
Q 3016 3291 2770 3770 
Q 2525 4250 2034 4250 
z
M 2034 4750 
Q 2819 4750 3233 4129 
Q 3647 3509 3647 2328 
Q 3647 1150 3233 529 
Q 2819 -91 2034 -91 
Q 1250 -91 836 529 
Q 422 1150 422 2328 
Q 422 3509 836 4129 
Q 1250 4750 2034 4750 
z
" transform="scale(0.015625)"/>
       </defs>
       <use xlink:href="#DejaVuSans-30"/>
      </g>
     </g>
    </g>
    <g id="xtick_2">
     <g id="line2d_2">
      <g>
       <use xlink:href="#m6f18be1961" x="186.377128" y="499.48" style="stroke: #000000; stroke-width: 0.8"/>
      </g>
     </g>
     <g id="text_2">
      <!-- 10 -->
      <g transform="translate(172.379628 523.196563) scale(0.22 -0.22)">
       <defs>
        <path id="DejaVuSans-31" d="M 794 531 
L 1825 531 
L 1825 4091 
L 703 3866 
L 703 4441 
L 1819 4666 
L 2450 4666 
L 2450 531 
L 3481 531 
L 3481 0 
L 794 0 
L 794 531 
z
" transform="scale(0.015625)"/>
       </defs>
       <use xlink:href="#DejaVuSans-31"/>
       <use xlink:href="#DejaVuSans-30" x="63.623047"/>
      </g>
     </g>
    </g>
    <g id="xtick_3">
     <g id="line2d_3">
      <g>
       <use xlink:href="#m6f18be1961" x="279.803348" y="499.48" style="stroke: #000000; stroke-width: 0.8"/>
      </g>
     </g>
     <g id="text_3">
      <!-- 20 -->
      <g transform="translate(265.805848 523.196563) scale(0.22 -0.22)">
       <defs>
        <path id="DejaVuSans-32" d="M 1228 531 
L 3431 531 
L 3431 0 
L 469 0 
L 469 531 
Q 828 903 1448 1529 
Q 2069 2156 2228 2338 
Q 2531 2678 2651 2914 
Q 2772 3150 2772 3378 
Q 2772 3750 2511 3984 
Q 2250 4219 1831 4219 
Q 1534 4219 1204 4116 
Q 875 4013 500 3803 
L 500 4441 
Q 881 4594 1212 4672 
Q 1544 4750 1819 4750 
Q 2544 4750 2975 4387 
Q 3406 4025 3406 3419 
Q 3406 3131 3298 2873 
Q 3191 2616 2906 2266 
Q 2828 2175 2409 1742 
Q 1991 1309 1228 531 
z
" transform="scale(0.015625)"/>
       </defs>
       <use xlink:href="#DejaVuSans-32"/>
       <use xlink:href="#DejaVuSans-30" x="63.623047"/>
      </g>
     </g>
    </g>
    <g id="xtick_4">
     <g id="line2d_4">
      <g>
       <use xlink:href="#m6f18be1961" x="373.229567" y="499.48" style="stroke: #000000; stroke-width: 0.8"/>
      </g>
     </g>
     <g id="text_4">
      <!-- 30 -->
      <g transform="translate(359.232067 523.196563) scale(0.22 -0.22)">
       <defs>
        <path id="DejaVuSans-33" d="M 2597 2516 
Q 3050 2419 3304 2112 
Q 3559 1806 3559 1356 
Q 3559 666 3084 287 
Q 2609 -91 1734 -91 
Q 1441 -91 1130 -33 
Q 819 25 488 141 
L 488 750 
Q 750 597 1062 519 
Q 1375 441 1716 441 
Q 2309 441 2620 675 
Q 2931 909 2931 1356 
Q 2931 1769 2642 2001 
Q 2353 2234 1838 2234 
L 1294 2234 
L 1294 2753 
L 1863 2753 
Q 2328 2753 2575 2939 
Q 2822 3125 2822 3475 
Q 2822 3834 2567 4026 
Q 2313 4219 1838 4219 
Q 1578 4219 1281 4162 
Q 984 4106 628 3988 
L 628 4550 
Q 988 4650 1302 4700 
Q 1616 4750 1894 4750 
Q 2613 4750 3031 4423 
Q 3450 4097 3450 3541 
Q 3450 3153 3228 2886 
Q 3006 2619 2597 2516 
z
" transform="scale(0.015625)"/>
       </defs>
       <use xlink:href="#DejaVuSans-33"/>
       <use xlink:href="#DejaVuSans-30" x="63.623047"/>
      </g>
     </g>
    </g>
    <g id="xtick_5">
     <g id="line2d_5">
      <g>
       <use xlink:href="#m6f18be1961" x="466.655786" y="499.48" style="stroke: #000000; stroke-width: 0.8"/>
      </g>
     </g>
     <g id="text_5">
      <!-- 40 -->
      <g transform="translate(452.658286 523.196563) scale(0.22 -0.22)">
       <defs>
        <path id="DejaVuSans-34" d="M 2419 4116 
L 825 1625 
L 2419 1625 
L 2419 4116 
z
M 2253 4666 
L 3047 4666 
L 3047 1625 
L 3713 1625 
L 3713 1100 
L 3047 1100 
L 3047 0 
L 2419 0 
L 2419 1100 
L 313 1100 
L 313 1709 
L 2253 4666 
z
" transform="scale(0.015625)"/>
       </defs>
       <use xlink:href="#DejaVuSans-34"/>
       <use xlink:href="#DejaVuSans-30" x="63.623047"/>
      </g>
     </g>
    </g>
    <g id="xtick_6">
     <g id="line2d_6">
      <g>
       <use xlink:href="#m6f18be1961" x="560.082006" y="499.48" style="stroke: #000000; stroke-width: 0.8"/>
      </g>
     </g>
     <g id="text_6">
      <!-- 50 -->
      <g transform="translate(546.084506 523.196563) scale(0.22 -0.22)">
       <defs>
        <path id="DejaVuSans-35" d="M 691 4666 
L 3169 4666 
L 3169 4134 
L 1269 4134 
L 1269 2991 
Q 1406 3038 1543 3061 
Q 1681 3084 1819 3084 
Q 2600 3084 3056 2656 
Q 3513 2228 3513 1497 
Q 3513 744 3044 326 
Q 2575 -91 1722 -91 
Q 1428 -91 1123 -41 
Q 819 9 494 109 
L 494 744 
Q 775 591 1075 516 
Q 1375 441 1709 441 
Q 2250 441 2565 725 
Q 2881 1009 2881 1497 
Q 2881 1984 2565 2268 
Q 2250 2553 1709 2553 
Q 1456 2553 1204 2497 
Q 953 2441 691 2322 
L 691 4666 
z
" transform="scale(0.015625)"/>
       </defs>
       <use xlink:href="#DejaVuSans-35"/>
       <use xlink:href="#DejaVuSans-30" x="63.623047"/>
      </g>
     </g>
    </g>
    <g id="xtick_7">
     <g id="line2d_7">
      <g>
       <use xlink:href="#m6f18be1961" x="653.508225" y="499.48" style="stroke: #000000; stroke-width: 0.8"/>
      </g>
     </g>
     <g id="text_7">
      <!-- 60 -->
      <g transform="translate(639.510725 523.196563) scale(0.22 -0.22)">
       <defs>
        <path id="DejaVuSans-36" d="M 2113 2584 
Q 1688 2584 1439 2293 
Q 1191 2003 1191 1497 
Q 1191 994 1439 701 
Q 1688 409 2113 409 
Q 2538 409 2786 701 
Q 3034 994 3034 1497 
Q 3034 2003 2786 2293 
Q 2538 2584 2113 2584 
z
M 3366 4563 
L 3366 3988 
Q 3128 4100 2886 4159 
Q 2644 4219 2406 4219 
Q 1781 4219 1451 3797 
Q 1122 3375 1075 2522 
Q 1259 2794 1537 2939 
Q 1816 3084 2150 3084 
Q 2853 3084 3261 2657 
Q 3669 2231 3669 1497 
Q 3669 778 3244 343 
Q 2819 -91 2113 -91 
Q 1303 -91 875 529 
Q 447 1150 447 2328 
Q 447 3434 972 4092 
Q 1497 4750 2381 4750 
Q 2619 4750 2861 4703 
Q 3103 4656 3366 4563 
z
" transform="scale(0.015625)"/>
       </defs>
       <use xlink:href="#DejaVuSans-36"/>
       <use xlink:href="#DejaVuSans-30" x="63.623047"/>
      </g>
     </g>
    </g>
    <g id="text_8">
     <!-- Force Uncertainties -->
     <g transform="translate(283.426094 548.488438) scale(0.22 -0.22)">
      <defs>
       <path id="DejaVuSans-46" d="M 628 4666 
L 3309 4666 
L 3309 4134 
L 1259 4134 
L 1259 2759 
L 3109 2759 
L 3109 2228 
L 1259 2228 
L 1259 0 
L 628 0 
L 628 4666 
z
" transform="scale(0.015625)"/>
       <path id="DejaVuSans-6f" d="M 1959 3097 
Q 1497 3097 1228 2736 
Q 959 2375 959 1747 
Q 959 1119 1226 758 
Q 1494 397 1959 397 
Q 2419 397 2687 759 
Q 2956 1122 2956 1747 
Q 2956 2369 2687 2733 
Q 2419 3097 1959 3097 
z
M 1959 3584 
Q 2709 3584 3137 3096 
Q 3566 2609 3566 1747 
Q 3566 888 3137 398 
Q 2709 -91 1959 -91 
Q 1206 -91 779 398 
Q 353 888 353 1747 
Q 353 2609 779 3096 
Q 1206 3584 1959 3584 
z
" transform="scale(0.015625)"/>
       <path id="DejaVuSans-72" d="M 2631 2963 
Q 2534 3019 2420 3045 
Q 2306 3072 2169 3072 
Q 1681 3072 1420 2755 
Q 1159 2438 1159 1844 
L 1159 0 
L 581 0 
L 581 3500 
L 1159 3500 
L 1159 2956 
Q 1341 3275 1631 3429 
Q 1922 3584 2338 3584 
Q 2397 3584 2469 3576 
Q 2541 3569 2628 3553 
L 2631 2963 
z
" transform="scale(0.015625)"/>
       <path id="DejaVuSans-63" d="M 3122 3366 
L 3122 2828 
Q 2878 2963 2633 3030 
Q 2388 3097 2138 3097 
Q 1578 3097 1268 2742 
Q 959 2388 959 1747 
Q 959 1106 1268 751 
Q 1578 397 2138 397 
Q 2388 397 2633 464 
Q 2878 531 3122 666 
L 3122 134 
Q 2881 22 2623 -34 
Q 2366 -91 2075 -91 
Q 1284 -91 818 406 
Q 353 903 353 1747 
Q 353 2603 823 3093 
Q 1294 3584 2113 3584 
Q 2378 3584 2631 3529 
Q 2884 3475 3122 3366 
z
" transform="scale(0.015625)"/>
       <path id="DejaVuSans-65" d="M 3597 1894 
L 3597 1613 
L 953 1613 
Q 991 1019 1311 708 
Q 1631 397 2203 397 
Q 2534 397 2845 478 
Q 3156 559 3463 722 
L 3463 178 
Q 3153 47 2828 -22 
Q 2503 -91 2169 -91 
Q 1331 -91 842 396 
Q 353 884 353 1716 
Q 353 2575 817 3079 
Q 1281 3584 2069 3584 
Q 2775 3584 3186 3129 
Q 3597 2675 3597 1894 
z
M 3022 2063 
Q 3016 2534 2758 2815 
Q 2500 3097 2075 3097 
Q 1594 3097 1305 2825 
Q 1016 2553 972 2059 
L 3022 2063 
z
" transform="scale(0.015625)"/>
       <path id="DejaVuSans-20" transform="scale(0.015625)"/>
       <path id="DejaVuSans-55" d="M 556 4666 
L 1191 4666 
L 1191 1831 
Q 1191 1081 1462 751 
Q 1734 422 2344 422 
Q 2950 422 3222 751 
Q 3494 1081 3494 1831 
L 3494 4666 
L 4128 4666 
L 4128 1753 
Q 4128 841 3676 375 
Q 3225 -91 2344 -91 
Q 1459 -91 1007 375 
Q 556 841 556 1753 
L 556 4666 
z
" transform="scale(0.015625)"/>
       <path id="DejaVuSans-6e" d="M 3513 2113 
L 3513 0 
L 2938 0 
L 2938 2094 
Q 2938 2591 2744 2837 
Q 2550 3084 2163 3084 
Q 1697 3084 1428 2787 
Q 1159 2491 1159 1978 
L 1159 0 
L 581 0 
L 581 3500 
L 1159 3500 
L 1159 2956 
Q 1366 3272 1645 3428 
Q 1925 3584 2291 3584 
Q 2894 3584 3203 3211 
Q 3513 2838 3513 2113 
z
" transform="scale(0.015625)"/>
       <path id="DejaVuSans-74" d="M 1172 4494 
L 1172 3500 
L 2356 3500 
L 2356 3053 
L 1172 3053 
L 1172 1153 
Q 1172 725 1289 603 
Q 1406 481 1766 481 
L 2356 481 
L 2356 0 
L 1766 0 
Q 1100 0 847 248 
Q 594 497 594 1153 
L 594 3053 
L 172 3053 
L 172 3500 
L 594 3500 
L 594 4494 
L 1172 4494 
z
" transform="scale(0.015625)"/>
       <path id="DejaVuSans-61" d="M 2194 1759 
Q 1497 1759 1228 1600 
Q 959 1441 959 1056 
Q 959 750 1161 570 
Q 1363 391 1709 391 
Q 2188 391 2477 730 
Q 2766 1069 2766 1631 
L 2766 1759 
L 2194 1759 
z
M 3341 1997 
L 3341 0 
L 2766 0 
L 2766 531 
Q 2569 213 2275 61 
Q 1981 -91 1556 -91 
Q 1019 -91 701 211 
Q 384 513 384 1019 
Q 384 1609 779 1909 
Q 1175 2209 1959 2209 
L 2766 2209 
L 2766 2266 
Q 2766 2663 2505 2880 
Q 2244 3097 1772 3097 
Q 1472 3097 1187 3025 
Q 903 2953 641 2809 
L 641 3341 
Q 956 3463 1253 3523 
Q 1550 3584 1831 3584 
Q 2591 3584 2966 3190 
Q 3341 2797 3341 1997 
z
" transform="scale(0.015625)"/>
       <path id="DejaVuSans-69" d="M 603 3500 
L 1178 3500 
L 1178 0 
L 603 0 
L 603 3500 
z
M 603 4863 
L 1178 4863 
L 1178 4134 
L 603 4134 
L 603 4863 
z
" transform="scale(0.015625)"/>
       <path id="DejaVuSans-73" d="M 2834 3397 
L 2834 2853 
Q 2591 2978 2328 3040 
Q 2066 3103 1784 3103 
Q 1356 3103 1142 2972 
Q 928 2841 928 2578 
Q 928 2378 1081 2264 
Q 1234 2150 1697 2047 
L 1894 2003 
Q 2506 1872 2764 1633 
Q 3022 1394 3022 966 
Q 3022 478 2636 193 
Q 2250 -91 1575 -91 
Q 1294 -91 989 -36 
Q 684 19 347 128 
L 347 722 
Q 666 556 975 473 
Q 1284 391 1588 391 
Q 1994 391 2212 530 
Q 2431 669 2431 922 
Q 2431 1156 2273 1281 
Q 2116 1406 1581 1522 
L 1381 1569 
Q 847 1681 609 1914 
Q 372 2147 372 2553 
Q 372 3047 722 3315 
Q 1072 3584 1716 3584 
Q 2034 3584 2315 3537 
Q 2597 3491 2834 3397 
z
" transform="scale(0.015625)"/>
      </defs>
      <use xlink:href="#DejaVuSans-46"/>
      <use xlink:href="#DejaVuSans-6f" x="53.894531"/>
      <use xlink:href="#DejaVuSans-72" x="115.076172"/>
      <use xlink:href="#DejaVuSans-63" x="153.939453"/>
      <use xlink:href="#DejaVuSans-65" x="208.919922"/>
      <use xlink:href="#DejaVuSans-20" x="270.443359"/>
      <use xlink:href="#DejaVuSans-55" x="302.230469"/>
      <use xlink:href="#DejaVuSans-6e" x="375.423828"/>
      <use xlink:href="#DejaVuSans-63" x="438.802734"/>
      <use xlink:href="#DejaVuSans-65" x="493.783203"/>
      <use xlink:href="#DejaVuSans-72" x="555.306641"/>
      <use xlink:href="#DejaVuSans-74" x="596.419922"/>
      <use xlink:href="#DejaVuSans-61" x="635.628906"/>
      <use xlink:href="#DejaVuSans-69" x="696.908203"/>
      <use xlink:href="#DejaVuSans-6e" x="724.691406"/>
      <use xlink:href="#DejaVuSans-74" x="788.070312"/>
      <use xlink:href="#DejaVuSans-69" x="827.279297"/>
      <use xlink:href="#DejaVuSans-65" x="855.0625"/>
      <use xlink:href="#DejaVuSans-73" x="916.585938"/>
     </g>
    </g>
   </g>
   <g id="matplotlib.axis_2">
    <g id="ytick_1">
     <g id="line2d_8">
      <defs>
       <path id="m26e2b5e092" d="M 0 0 
L -3.5 0 
" style="stroke: #000000; stroke-width: 0.8"/>
      </defs>
      <g>
       <use xlink:href="#m26e2b5e092" x="83.72" y="492.310719" style="stroke: #000000; stroke-width: 0.8"/>
      </g>
     </g>
     <g id="text_9">
      <!-- 0 -->
      <g transform="translate(62.7225 500.669) scale(0.22 -0.22)">
       <use xlink:href="#DejaVuSans-30"/>
      </g>
     </g>
    </g>
    <g id="ytick_2">
     <g id="line2d_9">
      <g>
       <use xlink:href="#m26e2b5e092" x="83.72" y="419.750278" style="stroke: #000000; stroke-width: 0.8"/>
      </g>
     </g>
     <g id="text_10">
      <!-- 10 -->
      <g transform="translate(48.725 428.10856) scale(0.22 -0.22)">
       <use xlink:href="#DejaVuSans-31"/>
       <use xlink:href="#DejaVuSans-30" x="63.623047"/>
      </g>
     </g>
    </g>
    <g id="ytick_3">
     <g id="line2d_10">
      <g>
       <use xlink:href="#m26e2b5e092" x="83.72" y="347.189838" style="stroke: #000000; stroke-width: 0.8"/>
      </g>
     </g>
     <g id="text_11">
      <!-- 20 -->
      <g transform="translate(48.725 355.548119) scale(0.22 -0.22)">
       <use xlink:href="#DejaVuSans-32"/>
       <use xlink:href="#DejaVuSans-30" x="63.623047"/>
      </g>
     </g>
    </g>
    <g id="ytick_4">
     <g id="line2d_11">
      <g>
       <use xlink:href="#m26e2b5e092" x="83.72" y="274.629397" style="stroke: #000000; stroke-width: 0.8"/>
      </g>
     </g>
     <g id="text_12">
      <!-- 30 -->
      <g transform="translate(48.725 282.987679) scale(0.22 -0.22)">
       <use xlink:href="#DejaVuSans-33"/>
       <use xlink:href="#DejaVuSans-30" x="63.623047"/>
      </g>
     </g>
    </g>
    <g id="ytick_5">
     <g id="line2d_12">
      <g>
       <use xlink:href="#m26e2b5e092" x="83.72" y="202.068957" style="stroke: #000000; stroke-width: 0.8"/>
      </g>
     </g>
     <g id="text_13">
      <!-- 40 -->
      <g transform="translate(48.725 210.427238) scale(0.22 -0.22)">
       <use xlink:href="#DejaVuSans-34"/>
       <use xlink:href="#DejaVuSans-30" x="63.623047"/>
      </g>
     </g>
    </g>
    <g id="ytick_6">
     <g id="line2d_13">
      <g>
       <use xlink:href="#m26e2b5e092" x="83.72" y="129.508516" style="stroke: #000000; stroke-width: 0.8"/>
      </g>
     </g>
     <g id="text_14">
      <!-- 50 -->
      <g transform="translate(48.725 137.866797) scale(0.22 -0.22)">
       <use xlink:href="#DejaVuSans-35"/>
       <use xlink:href="#DejaVuSans-30" x="63.623047"/>
      </g>
     </g>
    </g>
    <g id="ytick_7">
     <g id="line2d_14">
      <g>
       <use xlink:href="#m26e2b5e092" x="83.72" y="56.948076" style="stroke: #000000; stroke-width: 0.8"/>
      </g>
     </g>
     <g id="text_15">
      <!-- 60 -->
      <g transform="translate(48.725 65.306357) scale(0.22 -0.22)">
       <use xlink:href="#DejaVuSans-36"/>
       <use xlink:href="#DejaVuSans-30" x="63.623047"/>
      </g>
     </g>
    </g>
    <g id="text_16">
     <!-- Force Errors [kJ/(mol*A)] -->
     <g transform="translate(40.149688 394.9125) rotate(-90) scale(0.22 -0.22)">
      <defs>
       <path id="DejaVuSans-45" d="M 628 4666 
L 3578 4666 
L 3578 4134 
L 1259 4134 
L 1259 2753 
L 3481 2753 
L 3481 2222 
L 1259 2222 
L 1259 531 
L 3634 531 
L 3634 0 
L 628 0 
L 628 4666 
z
" transform="scale(0.015625)"/>
       <path id="DejaVuSans-5b" d="M 550 4863 
L 1875 4863 
L 1875 4416 
L 1125 4416 
L 1125 -397 
L 1875 -397 
L 1875 -844 
L 550 -844 
L 550 4863 
z
" transform="scale(0.015625)"/>
       <path id="DejaVuSans-6b" d="M 581 4863 
L 1159 4863 
L 1159 1991 
L 2875 3500 
L 3609 3500 
L 1753 1863 
L 3688 0 
L 2938 0 
L 1159 1709 
L 1159 0 
L 581 0 
L 581 4863 
z
" transform="scale(0.015625)"/>
       <path id="DejaVuSans-4a" d="M 628 4666 
L 1259 4666 
L 1259 325 
Q 1259 -519 939 -900 
Q 619 -1281 -91 -1281 
L -331 -1281 
L -331 -750 
L -134 -750 
Q 284 -750 456 -515 
Q 628 -281 628 325 
L 628 4666 
z
" transform="scale(0.015625)"/>
       <path id="DejaVuSans-2f" d="M 1625 4666 
L 2156 4666 
L 531 -594 
L 0 -594 
L 1625 4666 
z
" transform="scale(0.015625)"/>
       <path id="DejaVuSans-28" d="M 1984 4856 
Q 1566 4138 1362 3434 
Q 1159 2731 1159 2009 
Q 1159 1288 1364 580 
Q 1569 -128 1984 -844 
L 1484 -844 
Q 1016 -109 783 600 
Q 550 1309 550 2009 
Q 550 2706 781 3412 
Q 1013 4119 1484 4856 
L 1984 4856 
z
" transform="scale(0.015625)"/>
       <path id="DejaVuSans-6d" d="M 3328 2828 
Q 3544 3216 3844 3400 
Q 4144 3584 4550 3584 
Q 5097 3584 5394 3201 
Q 5691 2819 5691 2113 
L 5691 0 
L 5113 0 
L 5113 2094 
Q 5113 2597 4934 2840 
Q 4756 3084 4391 3084 
Q 3944 3084 3684 2787 
Q 3425 2491 3425 1978 
L 3425 0 
L 2847 0 
L 2847 2094 
Q 2847 2600 2669 2842 
Q 2491 3084 2119 3084 
Q 1678 3084 1418 2786 
Q 1159 2488 1159 1978 
L 1159 0 
L 581 0 
L 581 3500 
L 1159 3500 
L 1159 2956 
Q 1356 3278 1631 3431 
Q 1906 3584 2284 3584 
Q 2666 3584 2933 3390 
Q 3200 3197 3328 2828 
z
" transform="scale(0.015625)"/>
       <path id="DejaVuSans-6c" d="M 603 4863 
L 1178 4863 
L 1178 0 
L 603 0 
L 603 4863 
z
" transform="scale(0.015625)"/>
       <path id="DejaVuSans-2a" d="M 3009 3897 
L 1888 3291 
L 3009 2681 
L 2828 2375 
L 1778 3009 
L 1778 1831 
L 1422 1831 
L 1422 3009 
L 372 2375 
L 191 2681 
L 1313 3291 
L 191 3897 
L 372 4206 
L 1422 3572 
L 1422 4750 
L 1778 4750 
L 1778 3572 
L 2828 4206 
L 3009 3897 
z
" transform="scale(0.015625)"/>
       <path id="DejaVuSans-41" d="M 2188 4044 
L 1331 1722 
L 3047 1722 
L 2188 4044 
z
M 1831 4666 
L 2547 4666 
L 4325 0 
L 3669 0 
L 3244 1197 
L 1141 1197 
L 716 0 
L 50 0 
L 1831 4666 
z
" transform="scale(0.015625)"/>
       <path id="DejaVuSans-29" d="M 513 4856 
L 1013 4856 
Q 1481 4119 1714 3412 
Q 1947 2706 1947 2009 
Q 1947 1309 1714 600 
Q 1481 -109 1013 -844 
L 513 -844 
Q 928 -128 1133 580 
Q 1338 1288 1338 2009 
Q 1338 2731 1133 3434 
Q 928 4138 513 4856 
z
" transform="scale(0.015625)"/>
       <path id="DejaVuSans-5d" d="M 1947 4863 
L 1947 -844 
L 622 -844 
L 622 -397 
L 1369 -397 
L 1369 4416 
L 622 4416 
L 622 4863 
L 1947 4863 
z
" transform="scale(0.015625)"/>
      </defs>
      <use xlink:href="#DejaVuSans-46"/>
      <use xlink:href="#DejaVuSans-6f" x="53.894531"/>
      <use xlink:href="#DejaVuSans-72" x="115.076172"/>
      <use xlink:href="#DejaVuSans-63" x="153.939453"/>
      <use xlink:href="#DejaVuSans-65" x="208.919922"/>
      <use xlink:href="#DejaVuSans-20" x="270.443359"/>
      <use xlink:href="#DejaVuSans-45" x="302.230469"/>
      <use xlink:href="#DejaVuSans-72" x="365.414062"/>
      <use xlink:href="#DejaVuSans-72" x="404.777344"/>
      <use xlink:href="#DejaVuSans-6f" x="443.640625"/>
      <use xlink:href="#DejaVuSans-72" x="504.822266"/>
      <use xlink:href="#DejaVuSans-73" x="545.935547"/>
      <use xlink:href="#DejaVuSans-20" x="598.035156"/>
      <use xlink:href="#DejaVuSans-5b" x="629.822266"/>
      <use xlink:href="#DejaVuSans-6b" x="668.835938"/>
      <use xlink:href="#DejaVuSans-4a" x="726.746094"/>
      <use xlink:href="#DejaVuSans-2f" x="756.238281"/>
      <use xlink:href="#DejaVuSans-28" x="789.929688"/>
      <use xlink:href="#DejaVuSans-6d" x="828.943359"/>
      <use xlink:href="#DejaVuSans-6f" x="926.355469"/>
      <use xlink:href="#DejaVuSans-6c" x="987.537109"/>
      <use xlink:href="#DejaVuSans-2a" x="1015.320312"/>
      <use xlink:href="#DejaVuSans-41" x="1065.320312"/>
      <use xlink:href="#DejaVuSans-29" x="1133.728516"/>
      <use xlink:href="#DejaVuSans-5d" x="1172.742188"/>
     </g>
    </g>
   </g>
   <g id="line2d_15">
    <path d="M 83.72 499.48 
L 696.24 23.76 
" clip-path="url(#p626e771f37)" style="fill: none; stroke-dasharray: 5.55,2.4; stroke-dashoffset: 0; stroke: #ff0000; stroke-width: 1.5"/>
   </g>
   <g id="patch_3">
    <path d="M 83.72 499.48 
L 83.72 23.76 
" style="fill: none; stroke: #000000; stroke-width: 0.8; stroke-linejoin: miter; stroke-linecap: square"/>
   </g>
   <g id="patch_4">
    <path d="M 696.24 499.48 
L 696.24 23.76 
" style="fill: none; stroke: #000000; stroke-width: 0.8; stroke-linejoin: miter; stroke-linecap: square"/>
   </g>
   <g id="patch_5">
    <path d="M 83.72 499.48 
L 696.24 499.48 
" style="fill: none; stroke: #000000; stroke-width: 0.8; stroke-linejoin: miter; stroke-linecap: square"/>
   </g>
   <g id="patch_6">
    <path d="M 83.72 23.76 
L 696.24 23.76 
" style="fill: none; stroke: #000000; stroke-width: 0.8; stroke-linejoin: miter; stroke-linecap: square"/>
   </g>
   <g id="text_17">
    <!-- Correlation in: 0.795 -->
    <g transform="translate(144.972 71.332) scale(0.22 -0.22)">
     <defs>
      <path id="DejaVuSans-43" d="M 4122 4306 
L 4122 3641 
Q 3803 3938 3442 4084 
Q 3081 4231 2675 4231 
Q 1875 4231 1450 3742 
Q 1025 3253 1025 2328 
Q 1025 1406 1450 917 
Q 1875 428 2675 428 
Q 3081 428 3442 575 
Q 3803 722 4122 1019 
L 4122 359 
Q 3791 134 3420 21 
Q 3050 -91 2638 -91 
Q 1578 -91 968 557 
Q 359 1206 359 2328 
Q 359 3453 968 4101 
Q 1578 4750 2638 4750 
Q 3056 4750 3426 4639 
Q 3797 4528 4122 4306 
z
" transform="scale(0.015625)"/>
      <path id="DejaVuSans-3a" d="M 750 794 
L 1409 794 
L 1409 0 
L 750 0 
L 750 794 
z
M 750 3309 
L 1409 3309 
L 1409 2516 
L 750 2516 
L 750 3309 
z
" transform="scale(0.015625)"/>
      <path id="DejaVuSans-2e" d="M 684 794 
L 1344 794 
L 1344 0 
L 684 0 
L 684 794 
z
" transform="scale(0.015625)"/>
      <path id="DejaVuSans-37" d="M 525 4666 
L 3525 4666 
L 3525 4397 
L 1831 0 
L 1172 0 
L 2766 4134 
L 525 4134 
L 525 4666 
z
" transform="scale(0.015625)"/>
      <path id="DejaVuSans-39" d="M 703 97 
L 703 672 
Q 941 559 1184 500 
Q 1428 441 1663 441 
Q 2288 441 2617 861 
Q 2947 1281 2994 2138 
Q 2813 1869 2534 1725 
Q 2256 1581 1919 1581 
Q 1219 1581 811 2004 
Q 403 2428 403 3163 
Q 403 3881 828 4315 
Q 1253 4750 1959 4750 
Q 2769 4750 3195 4129 
Q 3622 3509 3622 2328 
Q 3622 1225 3098 567 
Q 2575 -91 1691 -91 
Q 1453 -91 1209 -44 
Q 966 3 703 97 
z
M 1959 2075 
Q 2384 2075 2632 2365 
Q 2881 2656 2881 3163 
Q 2881 3666 2632 3958 
Q 2384 4250 1959 4250 
Q 1534 4250 1286 3958 
Q 1038 3666 1038 3163 
Q 1038 2656 1286 2365 
Q 1534 2075 1959 2075 
z
" transform="scale(0.015625)"/>
     </defs>
     <use xlink:href="#DejaVuSans-43"/>
     <use xlink:href="#DejaVuSans-6f" x="69.824219"/>
     <use xlink:href="#DejaVuSans-72" x="131.005859"/>
     <use xlink:href="#DejaVuSans-72" x="170.369141"/>
     <use xlink:href="#DejaVuSans-65" x="209.232422"/>
     <use xlink:href="#DejaVuSans-6c" x="270.755859"/>
     <use xlink:href="#DejaVuSans-61" x="298.539062"/>
     <use xlink:href="#DejaVuSans-74" x="359.818359"/>
     <use xlink:href="#DejaVuSans-69" x="399.027344"/>
     <use xlink:href="#DejaVuSans-6f" x="426.810547"/>
     <use xlink:href="#DejaVuSans-6e" x="487.992188"/>
     <use xlink:href="#DejaVuSans-20" x="551.371094"/>
     <use xlink:href="#DejaVuSans-69" x="583.158203"/>
     <use xlink:href="#DejaVuSans-6e" x="610.941406"/>
     <use xlink:href="#DejaVuSans-3a" x="674.320312"/>
     <use xlink:href="#DejaVuSans-20" x="708.011719"/>
     <use xlink:href="#DejaVuSans-30" x="739.798828"/>
     <use xlink:href="#DejaVuSans-2e" x="803.421875"/>
     <use xlink:href="#DejaVuSans-37" x="835.208984"/>
     <use xlink:href="#DejaVuSans-39" x="898.832031"/>
     <use xlink:href="#DejaVuSans-35" x="962.455078"/>
    </g>
   </g>
  </g>
 </g>
 <defs>
  <clipPath id="p626e771f37">
   <rect x="83.72" y="23.76" width="612.52" height="475.72"/>
  </clipPath>
 </defs>
</svg>
