<?xml version="1.0" encoding="utf-8" standalone="no"?>
<!DOCTYPE svg PUBLIC "-//W3C//DTD SVG 1.1//EN"
  "http://www.w3.org/Graphics/SVG/1.1/DTD/svg11.dtd">
<svg xmlns:xlink="http://www.w3.org/1999/xlink" width="720pt" height="576pt" viewBox="0 0 720 576" xmlns="http://www.w3.org/2000/svg" version="1.1">
 <metadata>
  <rdf:RDF xmlns:dc="http://purl.org/dc/elements/1.1/" xmlns:cc="http://creativecommons.org/ns#" xmlns:rdf="http://www.w3.org/1999/02/22-rdf-syntax-ns#">
   <cc:Work>
    <dc:type rdf:resource="http://purl.org/dc/dcmitype/StillImage"/>
    <dc:date>2024-12-08T03:36:55.521113</dc:date>
    <dc:format>image/svg+xml</dc:format>
    <dc:creator>
     <cc:Agent>
      <dc:title>Matplotlib v3.8.4, https://matplotlib.org/</dc:title>
     </cc:Agent>
    </dc:creator>
   </cc:Work>
  </rdf:RDF>
 </metadata>
 <defs>
  <style type="text/css">*{stroke-linejoin: round; stroke-linecap: butt}</style>
 </defs>
 <g id="figure_1">
  <g id="patch_1">
   <path d="M 0 576 
L 720 576 
L 720 0 
L 0 0 
z
" style="fill: #ffffff"/>
  </g>
  <g id="axes_1">
   <g id="patch_2">
    <path d="M 83.72 499.48 
L 696.24 499.48 
L 696.24 23.76 
L 83.72 23.76 
z
" style="fill: #ffffff"/>
   </g>
   <g id="QuadContourSet_1">
    <path d="M 92.73791 489.93527 
L 93.726262 490.242229 
L 94.714614 490.463993 
L 95.702967 490.619616 
L 96.691319 490.725966 
L 97.679672 490.795162 
L 98.668024 490.832999 
L 99.656376 490.83955 
L 100.644729 490.811529 
L 101.633081 490.745026 
L 102.621433 490.637319 
L 103.609786 490.487411 
L 104.598138 490.295617 
L 105.586491 490.06268 
L 106.416701 489.835392 
L 106.574843 489.817009 
L 107.563195 489.694186 
L 108.551548 489.556058 
L 109.5399 489.399429 
L 110.528253 489.218708 
L 111.516605 489.005793 
L 112.504957 488.75075 
L 113.49331 488.44323 
L 114.481662 488.073986 
L 115.470014 487.634882 
L 115.988217 487.380627 
L 116.458367 487.259752 
L 117.446719 486.974641 
L 118.435072 486.620429 
L 119.423424 486.165756 
L 120.411776 485.562198 
L 121.204032 484.925861 
L 121.400129 484.819263 
L 122.388481 484.198737 
L 123.376834 483.369771 
L 124.200501 482.471096 
L 124.365186 482.319378 
L 125.353538 481.360255 
L 126.341891 480.154007 
L 126.454031 480.016331 
L 127.330243 478.929398 
L 128.318596 477.561566 
L 128.318596 477.561566 
L 129.306948 475.908476 
L 129.803201 475.1068 
L 130.2953 473.437793 
L 130.580633 472.652035 
L 130.2953 470.481883 
L 130.253082 470.19727 
L 129.306948 468.981694 
L 128.318596 467.999593 
L 128.038268 467.742505 
L 127.330243 467.202157 
L 126.341891 466.488299 
L 125.353538 465.839095 
L 124.444887 465.287739 
L 124.365186 465.227403 
L 123.376834 464.46312 
L 122.388481 463.830165 
L 121.400129 463.341996 
L 120.411776 462.980099 
L 119.914055 462.832974 
L 119.423424 462.595304 
L 118.435072 462.156854 
L 117.446719 461.757379 
L 116.458367 461.408294 
L 115.470014 461.143401 
L 114.481662 460.987899 
L 113.49331 460.938054 
L 112.504957 460.962764 
L 111.516605 461.016725 
L 110.528253 461.055905 
L 109.5399 461.05472 
L 108.551548 461.018556 
L 107.563195 460.977368 
L 106.574843 460.963029 
L 105.586491 460.993008 
L 104.598138 461.070422 
L 103.609786 461.191717 
L 102.621433 461.353462 
L 101.633081 461.556639 
L 100.644729 461.809388 
L 99.656376 462.128512 
L 98.668024 462.539221 
L 98.091671 462.832974 
L 97.679672 462.940841 
L 96.691319 463.252961 
L 95.702967 463.661379 
L 94.714614 464.196353 
L 93.726262 464.902251 
L 93.280532 465.287739 
L 92.73791 465.569025 
L 91.749557 466.219257 
L 90.761205 467.144584 
L 90.261705 467.742505 
L 89.772852 468.165819 
L 88.7845 469.271385 
L 88.160296 470.19727 
L 87.796148 470.678482 
L 86.807795 472.283202 
L 86.604915 472.652035 
L 85.819443 474.27484 
L 85.448824 475.1068 
L 84.831091 477.270608 
L 84.739566 477.561566 
L 84.409861 480.016331 
L 84.624682 482.471096 
L 84.831091 483.113026 
L 85.488327 484.925861 
L 85.819443 485.48884 
L 86.807795 486.817528 
L 87.416623 487.380627 
L 87.796148 487.757215 
L 88.7845 488.527239 
L 89.772852 489.050102 
L 90.761205 489.418246 
L 91.749557 489.685885 
L 92.4772 489.835392 
z
M 97.567759 487.380627 
L 96.691319 487.301367 
L 95.702967 487.169835 
L 94.714614 486.980441 
L 93.726262 486.713203 
L 92.73791 486.342804 
L 91.749557 485.83404 
L 90.761205 485.130838 
L 90.522839 484.925861 
L 89.772852 484.202442 
L 88.7845 482.818127 
L 88.582215 482.471096 
L 87.925173 480.016331 
L 88.03526 477.561566 
L 88.7845 475.146429 
L 88.796598 475.1068 
L 89.772852 473.273911 
L 90.165546 472.652035 
L 90.761205 471.836008 
L 91.749557 470.751991 
L 92.386365 470.19727 
L 92.73791 469.846535 
L 93.726262 469.003647 
L 94.714614 468.355541 
L 95.702967 467.846022 
L 95.929322 467.742505 
L 96.691319 467.236134 
L 97.679672 466.702803 
L 98.668024 466.28377 
L 99.656376 465.952016 
L 100.644729 465.686702 
L 101.633081 465.47319 
L 102.621433 465.303031 
L 102.735675 465.287739 
L 103.609786 465.084989 
L 104.598138 464.939831 
L 105.586491 464.882536 
L 106.574843 464.907345 
L 107.563195 464.99192 
L 108.551548 465.097541 
L 109.5399 465.185824 
L 110.528253 465.242872 
L 111.516605 465.287739 
L 111.516605 465.287739 
L 112.504957 465.330902 
L 113.49331 465.413815 
L 114.481662 465.5497 
L 115.470014 465.741062 
L 116.458367 465.989303 
L 117.446719 466.307766 
L 118.435072 466.729133 
L 119.423424 467.303968 
L 120.01309 467.742505 
L 120.411776 468.046469 
L 121.400129 468.966702 
L 122.388481 470.123014 
L 122.45092 470.19727 
L 123.376834 471.86627 
L 123.77795 472.652035 
L 123.974553 475.1068 
L 123.376834 476.869681 
L 123.158587 477.561566 
L 122.388481 478.720398 
L 121.402529 480.016331 
L 121.400129 480.018888 
L 120.411776 481.006219 
L 119.423424 481.802349 
L 118.435072 482.447645 
L 118.397211 482.471096 
L 117.446719 483.132344 
L 116.458367 483.706753 
L 115.470014 484.184485 
L 114.481662 484.581947 
L 113.49331 484.913722 
L 113.453763 484.925861 
L 112.504957 485.360293 
L 111.516605 485.729366 
L 110.528253 486.034191 
L 109.5399 486.29293 
L 108.551548 486.518808 
L 107.563195 486.719684 
L 106.574843 486.898939 
L 105.586491 487.056998 
L 104.598138 487.192665 
L 103.609786 487.303965 
L 102.71808 487.380627 
L 102.621433 487.395767 
L 101.633081 487.499764 
L 100.644729 487.54942 
L 99.656376 487.547496 
L 98.668024 487.496793 
L 97.679672 487.39739 
z
" clip-path="url(#p1154db8e74)" style="fill: #ecf4fb"/>
    <path d="M 97.679672 487.39739 
L 98.668024 487.496793 
L 99.656376 487.547496 
L 100.644729 487.54942 
L 101.633081 487.499764 
L 102.621433 487.395767 
L 102.71808 487.380627 
L 103.609786 487.303965 
L 104.598138 487.192665 
L 105.586491 487.056998 
L 106.574843 486.898939 
L 107.563195 486.719684 
L 108.551548 486.518808 
L 109.5399 486.29293 
L 110.528253 486.034191 
L 111.516605 485.729366 
L 112.504957 485.360293 
L 113.453763 484.925861 
L 113.49331 484.913722 
L 114.481662 484.581947 
L 115.470014 484.184485 
L 116.458367 483.706753 
L 117.446719 483.132344 
L 118.397211 482.471096 
L 118.435072 482.447645 
L 119.423424 481.802349 
L 120.411776 481.006219 
L 121.400129 480.018888 
L 121.402529 480.016331 
L 122.388481 478.720398 
L 123.158587 477.561566 
L 123.376834 476.869681 
L 123.974553 475.1068 
L 123.77795 472.652035 
L 123.376834 471.86627 
L 122.45092 470.19727 
L 122.388481 470.123014 
L 121.400129 468.966702 
L 120.411776 468.046469 
L 120.01309 467.742505 
L 119.423424 467.303968 
L 118.435072 466.729133 
L 117.446719 466.307766 
L 116.458367 465.989303 
L 115.470014 465.741062 
L 114.481662 465.5497 
L 113.49331 465.413815 
L 112.504957 465.330902 
L 111.516605 465.287739 
L 111.516605 465.287739 
L 110.528253 465.242872 
L 109.5399 465.185824 
L 108.551548 465.097541 
L 107.563195 464.99192 
L 106.574843 464.907345 
L 105.586491 464.882536 
L 104.598138 464.939831 
L 103.609786 465.084989 
L 102.735675 465.287739 
L 102.621433 465.303031 
L 101.633081 465.47319 
L 100.644729 465.686702 
L 99.656376 465.952016 
L 98.668024 466.28377 
L 97.679672 466.702803 
L 96.691319 467.236134 
L 95.929322 467.742505 
L 95.702967 467.846022 
L 94.714614 468.355541 
L 93.726262 469.003647 
L 92.73791 469.846535 
L 92.386365 470.19727 
L 91.749557 470.751991 
L 90.761205 471.836008 
L 90.165546 472.652035 
L 89.772852 473.273911 
L 88.796598 475.1068 
L 88.7845 475.146429 
L 88.03526 477.561566 
L 87.925173 480.016331 
L 88.582215 482.471096 
L 88.7845 482.818127 
L 89.772852 484.202442 
L 90.522839 484.925861 
L 90.761205 485.130838 
L 91.749557 485.83404 
L 92.73791 486.342804 
L 93.726262 486.713203 
L 94.714614 486.980441 
L 95.702967 487.169835 
L 96.691319 487.301367 
L 97.567759 487.380627 
z
M 95.022013 484.925861 
L 94.714614 484.825631 
L 93.726262 484.398325 
L 92.73791 483.793029 
L 91.749557 482.935474 
L 91.327357 482.471096 
L 90.761205 481.376304 
L 90.204054 480.016331 
L 90.175954 477.561566 
L 90.761205 475.771678 
L 90.981137 475.1068 
L 91.749557 473.860535 
L 92.655927 472.652035 
L 92.73791 472.558166 
L 93.726262 471.527791 
L 94.714614 470.721148 
L 95.494786 470.19727 
L 95.702967 470.035698 
L 96.691319 469.357716 
L 97.679672 468.822866 
L 98.668024 468.396802 
L 99.656376 468.053541 
L 100.644729 467.774106 
L 100.776456 467.742505 
L 101.633081 467.447082 
L 102.621433 467.184998 
L 103.609786 467.003671 
L 104.598138 466.906092 
L 105.586491 466.891616 
L 106.574843 466.948025 
L 107.563195 467.048187 
L 108.551548 467.158716 
L 109.5399 467.258281 
L 110.528253 467.349376 
L 111.516605 467.453354 
L 112.504957 467.596018 
L 113.239404 467.742505 
L 113.49331 467.782654 
L 114.481662 467.984131 
L 115.470014 468.24759 
L 116.458367 468.60043 
L 117.446719 469.093173 
L 118.435072 469.796731 
L 118.873815 470.19727 
L 119.423424 470.941005 
L 120.411776 472.652035 
L 120.411776 472.652035 
L 120.758381 475.1068 
L 120.411776 476.213946 
L 119.996787 477.561566 
L 119.423424 478.353452 
L 118.435072 479.565087 
L 118.027735 480.016331 
L 117.446719 480.528541 
L 116.458367 481.296391 
L 115.470014 481.931057 
L 114.481662 482.460428 
L 114.459839 482.471096 
L 113.49331 483.002516 
L 112.504957 483.441633 
L 111.516605 483.801243 
L 110.528253 484.104001 
L 109.5399 484.367355 
L 108.551548 484.602793 
L 107.563195 484.816279 
L 107.01377 484.925861 
L 106.574843 485.049931 
L 105.586491 485.299905 
L 104.598138 485.508569 
L 103.609786 485.672939 
L 102.621433 485.790505 
L 101.633081 485.8596 
L 100.644729 485.879656 
L 99.656376 485.850915 
L 98.668024 485.773064 
L 97.679672 485.642708 
L 96.691319 485.450419 
L 95.702967 485.178598 
z
" clip-path="url(#p1154db8e74)" style="fill: #d4e4f4"/>
    <path d="M 95.702967 485.178598 
L 96.691319 485.450419 
L 97.679672 485.642708 
L 98.668024 485.773064 
L 99.656376 485.850915 
L 100.644729 485.879656 
L 101.633081 485.8596 
L 102.621433 485.790505 
L 103.609786 485.672939 
L 104.598138 485.508569 
L 105.586491 485.299905 
L 106.574843 485.049931 
L 107.01377 484.925861 
L 107.563195 484.816279 
L 108.551548 484.602793 
L 109.5399 484.367355 
L 110.528253 484.104001 
L 111.516605 483.801243 
L 112.504957 483.441633 
L 113.49331 483.002516 
L 114.459839 482.471096 
L 114.481662 482.460428 
L 115.470014 481.931057 
L 116.458367 481.296391 
L 117.446719 480.528541 
L 118.027735 480.016331 
L 118.435072 479.565087 
L 119.423424 478.353452 
L 119.996787 477.561566 
L 120.411776 476.213946 
L 120.758381 475.1068 
L 120.411776 472.652035 
L 120.411776 472.652035 
L 119.423424 470.941005 
L 118.873815 470.19727 
L 118.435072 469.796731 
L 117.446719 469.093173 
L 116.458367 468.60043 
L 115.470014 468.24759 
L 114.481662 467.984131 
L 113.49331 467.782654 
L 113.239404 467.742505 
L 112.504957 467.596018 
L 111.516605 467.453354 
L 110.528253 467.349376 
L 109.5399 467.258281 
L 108.551548 467.158716 
L 107.563195 467.048187 
L 106.574843 466.948025 
L 105.586491 466.891616 
L 104.598138 466.906092 
L 103.609786 467.003671 
L 102.621433 467.184998 
L 101.633081 467.447082 
L 100.776456 467.742505 
L 100.644729 467.774106 
L 99.656376 468.053541 
L 98.668024 468.396802 
L 97.679672 468.822866 
L 96.691319 469.357716 
L 95.702967 470.035698 
L 95.494786 470.19727 
L 94.714614 470.721148 
L 93.726262 471.527791 
L 92.73791 472.558166 
L 92.655927 472.652035 
L 91.749557 473.860535 
L 90.981137 475.1068 
L 90.761205 475.771678 
L 90.175954 477.561566 
L 90.204054 480.016331 
L 90.761205 481.376304 
L 91.327357 482.471096 
L 91.749557 482.935474 
L 92.73791 483.793029 
L 93.726262 484.398325 
L 94.714614 484.825631 
L 95.022013 484.925861 
z
M 93.354079 482.471096 
L 92.73791 481.719188 
L 91.75381 480.016331 
L 91.749557 479.949684 
L 91.603449 477.561566 
L 91.749557 477.12975 
L 92.445337 475.1068 
L 92.73791 474.665064 
L 93.726262 473.335596 
L 94.321782 472.652035 
L 94.714614 472.268435 
L 95.702967 471.433211 
L 96.691319 470.764976 
L 97.679672 470.221983 
L 97.730926 470.19727 
L 98.668024 469.680218 
L 99.656376 469.244739 
L 100.644729 468.895566 
L 101.633081 468.617842 
L 102.621433 468.406865 
L 103.609786 468.265335 
L 104.598138 468.198298 
L 105.586491 468.205325 
L 106.574843 468.272903 
L 107.563195 468.374929 
L 108.551548 468.485413 
L 109.5399 468.593488 
L 110.528253 468.707031 
L 111.516605 468.844052 
L 112.504957 469.021271 
L 113.49331 469.249335 
L 114.481662 469.539157 
L 115.470014 469.915136 
L 116.03827 470.19727 
L 116.458367 470.454362 
L 117.446719 471.313395 
L 118.435072 472.608739 
L 118.463012 472.652035 
L 118.893382 475.1068 
L 118.435072 476.514095 
L 118.092866 477.561566 
L 117.446719 478.395527 
L 116.458367 479.507825 
L 115.949152 480.016331 
L 115.470014 480.395976 
L 114.481662 481.072592 
L 113.49331 481.624713 
L 112.504957 482.082688 
L 111.516605 482.471096 
L 111.516605 482.471096 
L 110.528253 482.854181 
L 109.5399 483.186232 
L 108.551548 483.482855 
L 107.563195 483.750731 
L 106.574843 483.990586 
L 105.586491 484.200234 
L 104.598138 484.376323 
L 103.609786 484.515047 
L 102.621433 484.612627 
L 101.633081 484.665886 
L 100.644729 484.672516 
L 99.656376 484.63062 
L 98.668024 484.537231 
L 97.679672 484.385761 
L 96.691319 484.162737 
L 95.702967 483.844837 
L 94.714614 483.396914 
L 93.726262 482.769822 
z
" clip-path="url(#p1154db8e74)" style="fill: #b9d6ea"/>
    <path d="M 93.726262 482.769822 
L 94.714614 483.396914 
L 95.702967 483.844837 
L 96.691319 484.162737 
L 97.679672 484.385761 
L 98.668024 484.537231 
L 99.656376 484.63062 
L 100.644729 484.672516 
L 101.633081 484.665886 
L 102.621433 484.612627 
L 103.609786 484.515047 
L 104.598138 484.376323 
L 105.586491 484.200234 
L 106.574843 483.990586 
L 107.563195 483.750731 
L 108.551548 483.482855 
L 109.5399 483.186232 
L 110.528253 482.854181 
L 111.516605 482.471096 
L 111.516605 482.471096 
L 112.504957 482.082688 
L 113.49331 481.624713 
L 114.481662 481.072592 
L 115.470014 480.395976 
L 115.949152 480.016331 
L 116.458367 479.507825 
L 117.446719 478.395527 
L 118.092866 477.561566 
L 118.435072 476.514095 
L 118.893382 475.1068 
L 118.463012 472.652035 
L 118.435072 472.608739 
L 117.446719 471.313395 
L 116.458367 470.454362 
L 116.03827 470.19727 
L 115.470014 469.915136 
L 114.481662 469.539157 
L 113.49331 469.249335 
L 112.504957 469.021271 
L 111.516605 468.844052 
L 110.528253 468.707031 
L 109.5399 468.593488 
L 108.551548 468.485413 
L 107.563195 468.374929 
L 106.574843 468.272903 
L 105.586491 468.205325 
L 104.598138 468.198298 
L 103.609786 468.265335 
L 102.621433 468.406865 
L 101.633081 468.617842 
L 100.644729 468.895566 
L 99.656376 469.244739 
L 98.668024 469.680218 
L 97.730926 470.19727 
L 97.679672 470.221983 
L 96.691319 470.764976 
L 95.702967 471.433211 
L 94.714614 472.268435 
L 94.321782 472.652035 
L 93.726262 473.335596 
L 92.73791 474.665064 
L 92.445337 475.1068 
L 91.749557 477.12975 
L 91.603449 477.561566 
L 91.749557 479.949684 
L 91.75381 480.016331 
L 92.73791 481.719188 
L 93.354079 482.471096 
z
M 96.392037 482.471096 
L 95.702967 482.083895 
L 94.714614 481.294713 
L 93.726262 480.132013 
L 93.646288 480.016331 
L 93.280753 477.561566 
L 93.726262 476.320597 
L 94.172353 475.1068 
L 94.714614 474.401363 
L 95.702967 473.292142 
L 96.369568 472.652035 
L 96.691319 472.394352 
L 97.679672 471.718322 
L 98.668024 471.173679 
L 99.656376 470.728905 
L 100.644729 470.363284 
L 101.192559 470.19727 
L 101.633081 470.047758 
L 102.621433 469.797755 
L 103.609786 469.645064 
L 104.598138 469.591874 
L 105.586491 469.630416 
L 106.574843 469.737677 
L 107.563195 469.88119 
L 108.551548 470.035837 
L 109.5399 470.19727 
L 109.5399 470.19727 
L 110.528253 470.377333 
L 111.516605 470.601348 
L 112.504957 470.88126 
L 113.49331 471.229181 
L 114.481662 471.676949 
L 115.470014 472.294395 
L 115.893497 472.652035 
L 116.458367 474.036323 
L 116.776293 475.1068 
L 116.458367 476.050357 
L 115.941458 477.561566 
L 115.470014 478.091665 
L 114.481662 479.05862 
L 113.49331 479.885661 
L 113.318183 480.016331 
L 112.504957 480.470186 
L 111.516605 480.934543 
L 110.528253 481.337245 
L 109.5399 481.699491 
L 108.551548 482.032558 
L 107.563195 482.340125 
L 107.10931 482.471096 
L 106.574843 482.631035 
L 105.586491 482.890793 
L 104.598138 483.10418 
L 103.609786 483.266989 
L 102.621433 483.374755 
L 101.633081 483.423039 
L 100.644729 483.407956 
L 99.656376 483.326033 
L 98.668024 483.172533 
L 97.679672 482.937964 
L 96.691319 482.603532 
z
" clip-path="url(#p1154db8e74)" style="fill: #91c3de"/>
    <path d="M 96.691319 482.603532 
L 97.679672 482.937964 
L 98.668024 483.172533 
L 99.656376 483.326033 
L 100.644729 483.407956 
L 101.633081 483.423039 
L 102.621433 483.374755 
L 103.609786 483.266989 
L 104.598138 483.10418 
L 105.586491 482.890793 
L 106.574843 482.631035 
L 107.10931 482.471096 
L 107.563195 482.340125 
L 108.551548 482.032558 
L 109.5399 481.699491 
L 110.528253 481.337245 
L 111.516605 480.934543 
L 112.504957 480.470186 
L 113.318183 480.016331 
L 113.49331 479.885661 
L 114.481662 479.05862 
L 115.470014 478.091665 
L 115.941458 477.561566 
L 116.458367 476.050357 
L 116.776293 475.1068 
L 116.458367 474.036323 
L 115.893497 472.652035 
L 115.470014 472.294395 
L 114.481662 471.676949 
L 113.49331 471.229181 
L 112.504957 470.88126 
L 111.516605 470.601348 
L 110.528253 470.377333 
L 109.5399 470.19727 
L 109.5399 470.19727 
L 108.551548 470.035837 
L 107.563195 469.88119 
L 106.574843 469.737677 
L 105.586491 469.630416 
L 104.598138 469.591874 
L 103.609786 469.645064 
L 102.621433 469.797755 
L 101.633081 470.047758 
L 101.192559 470.19727 
L 100.644729 470.363284 
L 99.656376 470.728905 
L 98.668024 471.173679 
L 97.679672 471.718322 
L 96.691319 472.394352 
L 96.369568 472.652035 
L 95.702967 473.292142 
L 94.714614 474.401363 
L 94.172353 475.1068 
L 93.726262 476.320597 
L 93.280753 477.561566 
L 93.646288 480.016331 
L 93.726262 480.132013 
L 94.714614 481.294713 
L 95.702967 482.083895 
L 96.392037 482.471096 
z
M 99.533122 482.471096 
L 98.668024 482.290267 
L 97.679672 481.970561 
L 96.691319 481.50098 
L 95.702967 480.821279 
L 94.875074 480.016331 
L 94.714614 479.441239 
L 94.303463 477.561566 
L 94.714614 476.446395 
L 95.22378 475.1068 
L 95.702967 474.537982 
L 96.691319 473.52515 
L 97.679672 472.675762 
L 97.710966 472.652035 
L 98.668024 472.065687 
L 99.656376 471.575068 
L 100.644729 471.177467 
L 101.633081 470.862968 
L 102.621433 470.633104 
L 103.609786 470.496498 
L 104.598138 470.459995 
L 105.586491 470.517087 
L 106.574843 470.643173 
L 107.563195 470.806777 
L 108.551548 470.988926 
L 109.5399 471.191941 
L 110.528253 471.431533 
L 111.516605 471.72279 
L 112.504957 472.075287 
L 113.49331 472.505511 
L 113.770578 472.652035 
L 114.481662 473.46789 
L 115.395705 475.1068 
L 114.556307 477.561566 
L 114.481662 477.63685 
L 113.49331 478.510868 
L 112.504957 479.26321 
L 111.516605 479.93284 
L 111.384306 480.016331 
L 110.528253 480.398528 
L 109.5399 480.798611 
L 108.551548 481.16645 
L 107.563195 481.504115 
L 106.574843 481.808926 
L 105.586491 482.076029 
L 104.598138 482.299151 
L 103.609786 482.471096 
L 103.609786 482.471096 
L 102.621433 482.585358 
L 101.633081 482.63047 
L 100.644729 482.601539 
L 99.656376 482.494092 
z
" clip-path="url(#p1154db8e74)" style="fill: #65aad4"/>
    <path d="M 99.656376 482.494092 
L 100.644729 482.601539 
L 101.633081 482.63047 
L 102.621433 482.585358 
L 103.609786 482.471096 
L 103.609786 482.471096 
L 104.598138 482.299151 
L 105.586491 482.076029 
L 106.574843 481.808926 
L 107.563195 481.504115 
L 108.551548 481.16645 
L 109.5399 480.798611 
L 110.528253 480.398528 
L 111.384306 480.016331 
L 111.516605 479.93284 
L 112.504957 479.26321 
L 113.49331 478.510868 
L 114.481662 477.63685 
L 114.556307 477.561566 
L 115.395705 475.1068 
L 114.481662 473.46789 
L 113.770578 472.652035 
L 113.49331 472.505511 
L 112.504957 472.075287 
L 111.516605 471.72279 
L 110.528253 471.431533 
L 109.5399 471.191941 
L 108.551548 470.988926 
L 107.563195 470.806777 
L 106.574843 470.643173 
L 105.586491 470.517087 
L 104.598138 470.459995 
L 103.609786 470.496498 
L 102.621433 470.633104 
L 101.633081 470.862968 
L 100.644729 471.177467 
L 99.656376 471.575068 
L 98.668024 472.065687 
L 97.710966 472.652035 
L 97.679672 472.675762 
L 96.691319 473.52515 
L 95.702967 474.537982 
L 95.22378 475.1068 
L 94.714614 476.446395 
L 94.303463 477.561566 
L 94.714614 479.441239 
L 94.875074 480.016331 
L 95.702967 480.821279 
L 96.691319 481.50098 
L 97.679672 481.970561 
L 98.668024 482.290267 
L 99.533122 482.471096 
z
M 96.749807 480.016331 
L 96.691319 479.918227 
L 95.723064 477.561566 
L 96.691319 475.1068 
L 96.691319 475.1068 
L 97.679672 474.179561 
L 98.668024 473.403519 
L 99.656376 472.745471 
L 99.820679 472.652035 
L 100.644729 472.286595 
L 101.633081 471.947672 
L 102.621433 471.713424 
L 103.609786 471.591107 
L 104.598138 471.582716 
L 105.586491 471.675016 
L 106.574843 471.838958 
L 107.563195 472.044305 
L 108.551548 472.277808 
L 109.5399 472.54694 
L 109.876584 472.652035 
L 110.528253 473.009773 
L 111.516605 473.672733 
L 112.504957 474.503162 
L 113.074477 475.1068 
L 112.504957 476.926576 
L 112.31658 477.561566 
L 111.516605 478.125295 
L 110.528253 478.771494 
L 109.5399 479.384761 
L 108.551548 479.973103 
L 108.476407 480.016331 
L 107.563195 480.365255 
L 106.574843 480.702834 
L 105.586491 480.994018 
L 104.598138 481.232618 
L 103.609786 481.410549 
L 102.621433 481.517902 
L 101.633081 481.543908 
L 100.644729 481.47771 
L 99.656376 481.308039 
L 98.668024 481.020529 
L 97.679672 480.591207 
z
" clip-path="url(#p1154db8e74)" style="fill: #4493c7"/>
    <path d="M 97.679672 480.591207 
L 98.668024 481.020529 
L 99.656376 481.308039 
L 100.644729 481.47771 
L 101.633081 481.543908 
L 102.621433 481.517902 
L 103.609786 481.410549 
L 104.598138 481.232618 
L 105.586491 480.994018 
L 106.574843 480.702834 
L 107.563195 480.365255 
L 108.476407 480.016331 
L 108.551548 479.973103 
L 109.5399 479.384761 
L 110.528253 478.771494 
L 111.516605 478.125295 
L 112.31658 477.561566 
L 112.504957 476.926576 
L 113.074477 475.1068 
L 112.504957 474.503162 
L 111.516605 473.672733 
L 110.528253 473.009773 
L 109.876584 472.652035 
L 109.5399 472.54694 
L 108.551548 472.277808 
L 107.563195 472.044305 
L 106.574843 471.838958 
L 105.586491 471.675016 
L 104.598138 471.582716 
L 103.609786 471.591107 
L 102.621433 471.713424 
L 101.633081 471.947672 
L 100.644729 472.286595 
L 99.820679 472.652035 
L 99.656376 472.745471 
L 98.668024 473.403519 
L 97.679672 474.179561 
L 96.691319 475.1068 
L 96.691319 475.1068 
L 95.723064 477.561566 
L 96.691319 479.918227 
L 96.749807 480.016331 
z
M 99.042842 480.016331 
L 98.668024 479.717195 
L 97.679672 478.507688 
L 97.158668 477.561566 
L 97.679672 476.296237 
L 98.189574 475.1068 
L 98.668024 474.715737 
L 99.656376 474.030622 
L 100.644729 473.464426 
L 101.633081 473.016494 
L 102.621433 472.7034 
L 102.963569 472.652035 
L 103.609786 472.580178 
L 104.598138 472.597188 
L 105.042446 472.652035 
L 105.586491 472.753148 
L 106.574843 473.048427 
L 107.563195 473.425432 
L 108.551548 473.884995 
L 109.5399 474.454915 
L 110.455951 475.1068 
L 109.927086 477.561566 
L 109.5399 477.810767 
L 108.551548 478.42371 
L 107.563195 479.001475 
L 106.574843 479.536649 
L 105.586491 480.016331 
L 105.586491 480.016331 
L 104.598138 480.268916 
L 103.609786 480.452256 
L 102.621433 480.554216 
L 101.633081 480.561033 
L 100.644729 480.459159 
L 99.656376 480.235356 
z
" clip-path="url(#p1154db8e74)" style="fill: #2676b8"/>
    <path d="M 99.656376 480.235356 
L 100.644729 480.459159 
L 101.633081 480.561033 
L 102.621433 480.554216 
L 103.609786 480.452256 
L 104.598138 480.268916 
L 105.586491 480.016331 
L 105.586491 480.016331 
L 106.574843 479.536649 
L 107.563195 479.001475 
L 108.551548 478.42371 
L 109.5399 477.810767 
L 109.927086 477.561566 
L 110.455951 475.1068 
L 109.5399 474.454915 
L 108.551548 473.884995 
L 107.563195 473.425432 
L 106.574843 473.048427 
L 105.586491 472.753148 
L 105.042446 472.652035 
L 104.598138 472.597188 
L 103.609786 472.580178 
L 102.963569 472.652035 
L 102.621433 472.7034 
L 101.633081 473.016494 
L 100.644729 473.464426 
L 99.656376 474.030622 
L 98.668024 474.715737 
L 98.189574 475.1068 
L 97.679672 476.296237 
L 97.158668 477.561566 
L 97.679672 478.507688 
L 98.668024 479.717195 
L 99.042842 480.016331 
z
M 98.864359 477.561566 
L 99.656376 475.821628 
L 99.99919 475.1068 
L 100.644729 474.733428 
L 101.633081 474.30213 
L 102.621433 474.028714 
L 103.609786 473.933367 
L 104.598138 474.021234 
L 105.586491 474.269004 
L 106.574843 474.637985 
L 107.563195 475.1068 
L 107.409334 477.561566 
L 106.574843 478.016231 
L 105.586491 478.491899 
L 104.598138 478.885345 
L 103.609786 479.168341 
L 102.621433 479.30591 
L 101.633081 479.255269 
L 100.644729 478.962191 
L 99.656376 478.356395 
z
" clip-path="url(#p1154db8e74)" style="fill: #105ba4"/>
    <path d="M 99.656376 478.356395 
L 100.644729 478.962191 
L 101.633081 479.255269 
L 102.621433 479.30591 
L 103.609786 479.168341 
L 104.598138 478.885345 
L 105.586491 478.491899 
L 106.574843 478.016231 
L 107.409334 477.561566 
L 107.563195 475.1068 
L 106.574843 474.637985 
L 105.586491 474.269004 
L 104.598138 474.021234 
L 103.609786 473.933367 
L 102.621433 474.028714 
L 101.633081 474.30213 
L 100.644729 474.733428 
L 99.99919 475.1068 
L 99.656376 475.821628 
L 98.864359 477.561566 
z
" clip-path="url(#p1154db8e74)" style="fill: #083e81"/>
   </g>
   <g id="matplotlib.axis_1">
    <g id="xtick_1">
     <g id="line2d_1">
      <defs>
       <path id="m42636f9e17" d="M 0 0 
L 0 3.5 
" style="stroke: #000000; stroke-width: 0.8"/>
      </defs>
      <g>
       <use xlink:href="#m42636f9e17" x="95.998578" y="499.48" style="stroke: #000000; stroke-width: 0.8"/>
      </g>
     </g>
     <g id="text_1">
      <!-- 0 -->
      <g transform="translate(88.999828 523.196563) scale(0.22 -0.22)">
       <defs>
        <path id="DejaVuSans-30" d="M 2034 4250 
Q 1547 4250 1301 3770 
Q 1056 3291 1056 2328 
Q 1056 1369 1301 889 
Q 1547 409 2034 409 
Q 2525 409 2770 889 
Q 3016 1369 3016 2328 
Q 3016 3291 2770 3770 
Q 2525 4250 2034 4250 
z
M 2034 4750 
Q 2819 4750 3233 4129 
Q 3647 3509 3647 2328 
Q 3647 1150 3233 529 
Q 2819 -91 2034 -91 
Q 1250 -91 836 529 
Q 422 1150 422 2328 
Q 422 3509 836 4129 
Q 1250 4750 2034 4750 
z
" transform="scale(0.015625)"/>
       </defs>
       <use xlink:href="#DejaVuSans-30"/>
      </g>
     </g>
    </g>
    <g id="xtick_2">
     <g id="line2d_2">
      <g>
       <use xlink:href="#m42636f9e17" x="182.752369" y="499.48" style="stroke: #000000; stroke-width: 0.8"/>
      </g>
     </g>
     <g id="text_2">
      <!-- 10 -->
      <g transform="translate(168.754869 523.196563) scale(0.22 -0.22)">
       <defs>
        <path id="DejaVuSans-31" d="M 794 531 
L 1825 531 
L 1825 4091 
L 703 3866 
L 703 4441 
L 1819 4666 
L 2450 4666 
L 2450 531 
L 3481 531 
L 3481 0 
L 794 0 
L 794 531 
z
" transform="scale(0.015625)"/>
       </defs>
       <use xlink:href="#DejaVuSans-31"/>
       <use xlink:href="#DejaVuSans-30" x="63.623047"/>
      </g>
     </g>
    </g>
    <g id="xtick_3">
     <g id="line2d_3">
      <g>
       <use xlink:href="#m42636f9e17" x="269.506159" y="499.48" style="stroke: #000000; stroke-width: 0.8"/>
      </g>
     </g>
     <g id="text_3">
      <!-- 20 -->
      <g transform="translate(255.508659 523.196563) scale(0.22 -0.22)">
       <defs>
        <path id="DejaVuSans-32" d="M 1228 531 
L 3431 531 
L 3431 0 
L 469 0 
L 469 531 
Q 828 903 1448 1529 
Q 2069 2156 2228 2338 
Q 2531 2678 2651 2914 
Q 2772 3150 2772 3378 
Q 2772 3750 2511 3984 
Q 2250 4219 1831 4219 
Q 1534 4219 1204 4116 
Q 875 4013 500 3803 
L 500 4441 
Q 881 4594 1212 4672 
Q 1544 4750 1819 4750 
Q 2544 4750 2975 4387 
Q 3406 4025 3406 3419 
Q 3406 3131 3298 2873 
Q 3191 2616 2906 2266 
Q 2828 2175 2409 1742 
Q 1991 1309 1228 531 
z
" transform="scale(0.015625)"/>
       </defs>
       <use xlink:href="#DejaVuSans-32"/>
       <use xlink:href="#DejaVuSans-30" x="63.623047"/>
      </g>
     </g>
    </g>
    <g id="xtick_4">
     <g id="line2d_4">
      <g>
       <use xlink:href="#m42636f9e17" x="356.259949" y="499.48" style="stroke: #000000; stroke-width: 0.8"/>
      </g>
     </g>
     <g id="text_4">
      <!-- 30 -->
      <g transform="translate(342.262449 523.196563) scale(0.22 -0.22)">
       <defs>
        <path id="DejaVuSans-33" d="M 2597 2516 
Q 3050 2419 3304 2112 
Q 3559 1806 3559 1356 
Q 3559 666 3084 287 
Q 2609 -91 1734 -91 
Q 1441 -91 1130 -33 
Q 819 25 488 141 
L 488 750 
Q 750 597 1062 519 
Q 1375 441 1716 441 
Q 2309 441 2620 675 
Q 2931 909 2931 1356 
Q 2931 1769 2642 2001 
Q 2353 2234 1838 2234 
L 1294 2234 
L 1294 2753 
L 1863 2753 
Q 2328 2753 2575 2939 
Q 2822 3125 2822 3475 
Q 2822 3834 2567 4026 
Q 2313 4219 1838 4219 
Q 1578 4219 1281 4162 
Q 984 4106 628 3988 
L 628 4550 
Q 988 4650 1302 4700 
Q 1616 4750 1894 4750 
Q 2613 4750 3031 4423 
Q 3450 4097 3450 3541 
Q 3450 3153 3228 2886 
Q 3006 2619 2597 2516 
z
" transform="scale(0.015625)"/>
       </defs>
       <use xlink:href="#DejaVuSans-33"/>
       <use xlink:href="#DejaVuSans-30" x="63.623047"/>
      </g>
     </g>
    </g>
    <g id="xtick_5">
     <g id="line2d_5">
      <g>
       <use xlink:href="#m42636f9e17" x="443.01374" y="499.48" style="stroke: #000000; stroke-width: 0.8"/>
      </g>
     </g>
     <g id="text_5">
      <!-- 40 -->
      <g transform="translate(429.01624 523.196563) scale(0.22 -0.22)">
       <defs>
        <path id="DejaVuSans-34" d="M 2419 4116 
L 825 1625 
L 2419 1625 
L 2419 4116 
z
M 2253 4666 
L 3047 4666 
L 3047 1625 
L 3713 1625 
L 3713 1100 
L 3047 1100 
L 3047 0 
L 2419 0 
L 2419 1100 
L 313 1100 
L 313 1709 
L 2253 4666 
z
" transform="scale(0.015625)"/>
       </defs>
       <use xlink:href="#DejaVuSans-34"/>
       <use xlink:href="#DejaVuSans-30" x="63.623047"/>
      </g>
     </g>
    </g>
    <g id="xtick_6">
     <g id="line2d_6">
      <g>
       <use xlink:href="#m42636f9e17" x="529.76753" y="499.48" style="stroke: #000000; stroke-width: 0.8"/>
      </g>
     </g>
     <g id="text_6">
      <!-- 50 -->
      <g transform="translate(515.77003 523.196563) scale(0.22 -0.22)">
       <defs>
        <path id="DejaVuSans-35" d="M 691 4666 
L 3169 4666 
L 3169 4134 
L 1269 4134 
L 1269 2991 
Q 1406 3038 1543 3061 
Q 1681 3084 1819 3084 
Q 2600 3084 3056 2656 
Q 3513 2228 3513 1497 
Q 3513 744 3044 326 
Q 2575 -91 1722 -91 
Q 1428 -91 1123 -41 
Q 819 9 494 109 
L 494 744 
Q 775 591 1075 516 
Q 1375 441 1709 441 
Q 2250 441 2565 725 
Q 2881 1009 2881 1497 
Q 2881 1984 2565 2268 
Q 2250 2553 1709 2553 
Q 1456 2553 1204 2497 
Q 953 2441 691 2322 
L 691 4666 
z
" transform="scale(0.015625)"/>
       </defs>
       <use xlink:href="#DejaVuSans-35"/>
       <use xlink:href="#DejaVuSans-30" x="63.623047"/>
      </g>
     </g>
    </g>
    <g id="xtick_7">
     <g id="line2d_7">
      <g>
       <use xlink:href="#m42636f9e17" x="616.52132" y="499.48" style="stroke: #000000; stroke-width: 0.8"/>
      </g>
     </g>
     <g id="text_7">
      <!-- 60 -->
      <g transform="translate(602.52382 523.196563) scale(0.22 -0.22)">
       <defs>
        <path id="DejaVuSans-36" d="M 2113 2584 
Q 1688 2584 1439 2293 
Q 1191 2003 1191 1497 
Q 1191 994 1439 701 
Q 1688 409 2113 409 
Q 2538 409 2786 701 
Q 3034 994 3034 1497 
Q 3034 2003 2786 2293 
Q 2538 2584 2113 2584 
z
M 3366 4563 
L 3366 3988 
Q 3128 4100 2886 4159 
Q 2644 4219 2406 4219 
Q 1781 4219 1451 3797 
Q 1122 3375 1075 2522 
Q 1259 2794 1537 2939 
Q 1816 3084 2150 3084 
Q 2853 3084 3261 2657 
Q 3669 2231 3669 1497 
Q 3669 778 3244 343 
Q 2819 -91 2113 -91 
Q 1303 -91 875 529 
Q 447 1150 447 2328 
Q 447 3434 972 4092 
Q 1497 4750 2381 4750 
Q 2619 4750 2861 4703 
Q 3103 4656 3366 4563 
z
" transform="scale(0.015625)"/>
       </defs>
       <use xlink:href="#DejaVuSans-36"/>
       <use xlink:href="#DejaVuSans-30" x="63.623047"/>
      </g>
     </g>
    </g>
    <g id="text_8">
     <!-- Force Uncertainties -->
     <g transform="translate(283.426094 548.488438) scale(0.22 -0.22)">
      <defs>
       <path id="DejaVuSans-46" d="M 628 4666 
L 3309 4666 
L 3309 4134 
L 1259 4134 
L 1259 2759 
L 3109 2759 
L 3109 2228 
L 1259 2228 
L 1259 0 
L 628 0 
L 628 4666 
z
" transform="scale(0.015625)"/>
       <path id="DejaVuSans-6f" d="M 1959 3097 
Q 1497 3097 1228 2736 
Q 959 2375 959 1747 
Q 959 1119 1226 758 
Q 1494 397 1959 397 
Q 2419 397 2687 759 
Q 2956 1122 2956 1747 
Q 2956 2369 2687 2733 
Q 2419 3097 1959 3097 
z
M 1959 3584 
Q 2709 3584 3137 3096 
Q 3566 2609 3566 1747 
Q 3566 888 3137 398 
Q 2709 -91 1959 -91 
Q 1206 -91 779 398 
Q 353 888 353 1747 
Q 353 2609 779 3096 
Q 1206 3584 1959 3584 
z
" transform="scale(0.015625)"/>
       <path id="DejaVuSans-72" d="M 2631 2963 
Q 2534 3019 2420 3045 
Q 2306 3072 2169 3072 
Q 1681 3072 1420 2755 
Q 1159 2438 1159 1844 
L 1159 0 
L 581 0 
L 581 3500 
L 1159 3500 
L 1159 2956 
Q 1341 3275 1631 3429 
Q 1922 3584 2338 3584 
Q 2397 3584 2469 3576 
Q 2541 3569 2628 3553 
L 2631 2963 
z
" transform="scale(0.015625)"/>
       <path id="DejaVuSans-63" d="M 3122 3366 
L 3122 2828 
Q 2878 2963 2633 3030 
Q 2388 3097 2138 3097 
Q 1578 3097 1268 2742 
Q 959 2388 959 1747 
Q 959 1106 1268 751 
Q 1578 397 2138 397 
Q 2388 397 2633 464 
Q 2878 531 3122 666 
L 3122 134 
Q 2881 22 2623 -34 
Q 2366 -91 2075 -91 
Q 1284 -91 818 406 
Q 353 903 353 1747 
Q 353 2603 823 3093 
Q 1294 3584 2113 3584 
Q 2378 3584 2631 3529 
Q 2884 3475 3122 3366 
z
" transform="scale(0.015625)"/>
       <path id="DejaVuSans-65" d="M 3597 1894 
L 3597 1613 
L 953 1613 
Q 991 1019 1311 708 
Q 1631 397 2203 397 
Q 2534 397 2845 478 
Q 3156 559 3463 722 
L 3463 178 
Q 3153 47 2828 -22 
Q 2503 -91 2169 -91 
Q 1331 -91 842 396 
Q 353 884 353 1716 
Q 353 2575 817 3079 
Q 1281 3584 2069 3584 
Q 2775 3584 3186 3129 
Q 3597 2675 3597 1894 
z
M 3022 2063 
Q 3016 2534 2758 2815 
Q 2500 3097 2075 3097 
Q 1594 3097 1305 2825 
Q 1016 2553 972 2059 
L 3022 2063 
z
" transform="scale(0.015625)"/>
       <path id="DejaVuSans-20" transform="scale(0.015625)"/>
       <path id="DejaVuSans-55" d="M 556 4666 
L 1191 4666 
L 1191 1831 
Q 1191 1081 1462 751 
Q 1734 422 2344 422 
Q 2950 422 3222 751 
Q 3494 1081 3494 1831 
L 3494 4666 
L 4128 4666 
L 4128 1753 
Q 4128 841 3676 375 
Q 3225 -91 2344 -91 
Q 1459 -91 1007 375 
Q 556 841 556 1753 
L 556 4666 
z
" transform="scale(0.015625)"/>
       <path id="DejaVuSans-6e" d="M 3513 2113 
L 3513 0 
L 2938 0 
L 2938 2094 
Q 2938 2591 2744 2837 
Q 2550 3084 2163 3084 
Q 1697 3084 1428 2787 
Q 1159 2491 1159 1978 
L 1159 0 
L 581 0 
L 581 3500 
L 1159 3500 
L 1159 2956 
Q 1366 3272 1645 3428 
Q 1925 3584 2291 3584 
Q 2894 3584 3203 3211 
Q 3513 2838 3513 2113 
z
" transform="scale(0.015625)"/>
       <path id="DejaVuSans-74" d="M 1172 4494 
L 1172 3500 
L 2356 3500 
L 2356 3053 
L 1172 3053 
L 1172 1153 
Q 1172 725 1289 603 
Q 1406 481 1766 481 
L 2356 481 
L 2356 0 
L 1766 0 
Q 1100 0 847 248 
Q 594 497 594 1153 
L 594 3053 
L 172 3053 
L 172 3500 
L 594 3500 
L 594 4494 
L 1172 4494 
z
" transform="scale(0.015625)"/>
       <path id="DejaVuSans-61" d="M 2194 1759 
Q 1497 1759 1228 1600 
Q 959 1441 959 1056 
Q 959 750 1161 570 
Q 1363 391 1709 391 
Q 2188 391 2477 730 
Q 2766 1069 2766 1631 
L 2766 1759 
L 2194 1759 
z
M 3341 1997 
L 3341 0 
L 2766 0 
L 2766 531 
Q 2569 213 2275 61 
Q 1981 -91 1556 -91 
Q 1019 -91 701 211 
Q 384 513 384 1019 
Q 384 1609 779 1909 
Q 1175 2209 1959 2209 
L 2766 2209 
L 2766 2266 
Q 2766 2663 2505 2880 
Q 2244 3097 1772 3097 
Q 1472 3097 1187 3025 
Q 903 2953 641 2809 
L 641 3341 
Q 956 3463 1253 3523 
Q 1550 3584 1831 3584 
Q 2591 3584 2966 3190 
Q 3341 2797 3341 1997 
z
" transform="scale(0.015625)"/>
       <path id="DejaVuSans-69" d="M 603 3500 
L 1178 3500 
L 1178 0 
L 603 0 
L 603 3500 
z
M 603 4863 
L 1178 4863 
L 1178 4134 
L 603 4134 
L 603 4863 
z
" transform="scale(0.015625)"/>
       <path id="DejaVuSans-73" d="M 2834 3397 
L 2834 2853 
Q 2591 2978 2328 3040 
Q 2066 3103 1784 3103 
Q 1356 3103 1142 2972 
Q 928 2841 928 2578 
Q 928 2378 1081 2264 
Q 1234 2150 1697 2047 
L 1894 2003 
Q 2506 1872 2764 1633 
Q 3022 1394 3022 966 
Q 3022 478 2636 193 
Q 2250 -91 1575 -91 
Q 1294 -91 989 -36 
Q 684 19 347 128 
L 347 722 
Q 666 556 975 473 
Q 1284 391 1588 391 
Q 1994 391 2212 530 
Q 2431 669 2431 922 
Q 2431 1156 2273 1281 
Q 2116 1406 1581 1522 
L 1381 1569 
Q 847 1681 609 1914 
Q 372 2147 372 2553 
Q 372 3047 722 3315 
Q 1072 3584 1716 3584 
Q 2034 3584 2315 3537 
Q 2597 3491 2834 3397 
z
" transform="scale(0.015625)"/>
      </defs>
      <use xlink:href="#DejaVuSans-46"/>
      <use xlink:href="#DejaVuSans-6f" x="53.894531"/>
      <use xlink:href="#DejaVuSans-72" x="115.076172"/>
      <use xlink:href="#DejaVuSans-63" x="153.939453"/>
      <use xlink:href="#DejaVuSans-65" x="208.919922"/>
      <use xlink:href="#DejaVuSans-20" x="270.443359"/>
      <use xlink:href="#DejaVuSans-55" x="302.230469"/>
      <use xlink:href="#DejaVuSans-6e" x="375.423828"/>
      <use xlink:href="#DejaVuSans-63" x="438.802734"/>
      <use xlink:href="#DejaVuSans-65" x="493.783203"/>
      <use xlink:href="#DejaVuSans-72" x="555.306641"/>
      <use xlink:href="#DejaVuSans-74" x="596.419922"/>
      <use xlink:href="#DejaVuSans-61" x="635.628906"/>
      <use xlink:href="#DejaVuSans-69" x="696.908203"/>
      <use xlink:href="#DejaVuSans-6e" x="724.691406"/>
      <use xlink:href="#DejaVuSans-74" x="788.070312"/>
      <use xlink:href="#DejaVuSans-69" x="827.279297"/>
      <use xlink:href="#DejaVuSans-65" x="855.0625"/>
      <use xlink:href="#DejaVuSans-73" x="916.585938"/>
     </g>
    </g>
   </g>
   <g id="matplotlib.axis_2">
    <g id="ytick_1">
     <g id="line2d_8">
      <defs>
       <path id="m658757300c" d="M 0 0 
L -3.5 0 
" style="stroke: #000000; stroke-width: 0.8"/>
      </defs>
      <g>
       <use xlink:href="#m658757300c" x="83.72" y="489.943715" style="stroke: #000000; stroke-width: 0.8"/>
      </g>
     </g>
     <g id="text_9">
      <!-- 0 -->
      <g transform="translate(62.7225 498.301996) scale(0.22 -0.22)">
       <use xlink:href="#DejaVuSans-30"/>
      </g>
     </g>
    </g>
    <g id="ytick_2">
     <g id="line2d_9">
      <g>
       <use xlink:href="#m658757300c" x="83.72" y="422.565485" style="stroke: #000000; stroke-width: 0.8"/>
      </g>
     </g>
     <g id="text_10">
      <!-- 10 -->
      <g transform="translate(48.725 430.923767) scale(0.22 -0.22)">
       <use xlink:href="#DejaVuSans-31"/>
       <use xlink:href="#DejaVuSans-30" x="63.623047"/>
      </g>
     </g>
    </g>
    <g id="ytick_3">
     <g id="line2d_10">
      <g>
       <use xlink:href="#m658757300c" x="83.72" y="355.187256" style="stroke: #000000; stroke-width: 0.8"/>
      </g>
     </g>
     <g id="text_11">
      <!-- 20 -->
      <g transform="translate(48.725 363.545537) scale(0.22 -0.22)">
       <use xlink:href="#DejaVuSans-32"/>
       <use xlink:href="#DejaVuSans-30" x="63.623047"/>
      </g>
     </g>
    </g>
    <g id="ytick_4">
     <g id="line2d_11">
      <g>
       <use xlink:href="#m658757300c" x="83.72" y="287.809026" style="stroke: #000000; stroke-width: 0.8"/>
      </g>
     </g>
     <g id="text_12">
      <!-- 30 -->
      <g transform="translate(48.725 296.167308) scale(0.22 -0.22)">
       <use xlink:href="#DejaVuSans-33"/>
       <use xlink:href="#DejaVuSans-30" x="63.623047"/>
      </g>
     </g>
    </g>
    <g id="ytick_5">
     <g id="line2d_12">
      <g>
       <use xlink:href="#m658757300c" x="83.72" y="220.430797" style="stroke: #000000; stroke-width: 0.8"/>
      </g>
     </g>
     <g id="text_13">
      <!-- 40 -->
      <g transform="translate(48.725 228.789078) scale(0.22 -0.22)">
       <use xlink:href="#DejaVuSans-34"/>
       <use xlink:href="#DejaVuSans-30" x="63.623047"/>
      </g>
     </g>
    </g>
    <g id="ytick_6">
     <g id="line2d_13">
      <g>
       <use xlink:href="#m658757300c" x="83.72" y="153.052567" style="stroke: #000000; stroke-width: 0.8"/>
      </g>
     </g>
     <g id="text_14">
      <!-- 50 -->
      <g transform="translate(48.725 161.410849) scale(0.22 -0.22)">
       <use xlink:href="#DejaVuSans-35"/>
       <use xlink:href="#DejaVuSans-30" x="63.623047"/>
      </g>
     </g>
    </g>
    <g id="ytick_7">
     <g id="line2d_14">
      <g>
       <use xlink:href="#m658757300c" x="83.72" y="85.674338" style="stroke: #000000; stroke-width: 0.8"/>
      </g>
     </g>
     <g id="text_15">
      <!-- 60 -->
      <g transform="translate(48.725 94.032619) scale(0.22 -0.22)">
       <use xlink:href="#DejaVuSans-36"/>
       <use xlink:href="#DejaVuSans-30" x="63.623047"/>
      </g>
     </g>
    </g>
    <g id="text_16">
     <!-- Force Errors [kJ/(mol*A)] -->
     <g transform="translate(40.149688 394.9125) rotate(-90) scale(0.22 -0.22)">
      <defs>
       <path id="DejaVuSans-45" d="M 628 4666 
L 3578 4666 
L 3578 4134 
L 1259 4134 
L 1259 2753 
L 3481 2753 
L 3481 2222 
L 1259 2222 
L 1259 531 
L 3634 531 
L 3634 0 
L 628 0 
L 628 4666 
z
" transform="scale(0.015625)"/>
       <path id="DejaVuSans-5b" d="M 550 4863 
L 1875 4863 
L 1875 4416 
L 1125 4416 
L 1125 -397 
L 1875 -397 
L 1875 -844 
L 550 -844 
L 550 4863 
z
" transform="scale(0.015625)"/>
       <path id="DejaVuSans-6b" d="M 581 4863 
L 1159 4863 
L 1159 1991 
L 2875 3500 
L 3609 3500 
L 1753 1863 
L 3688 0 
L 2938 0 
L 1159 1709 
L 1159 0 
L 581 0 
L 581 4863 
z
" transform="scale(0.015625)"/>
       <path id="DejaVuSans-4a" d="M 628 4666 
L 1259 4666 
L 1259 325 
Q 1259 -519 939 -900 
Q 619 -1281 -91 -1281 
L -331 -1281 
L -331 -750 
L -134 -750 
Q 284 -750 456 -515 
Q 628 -281 628 325 
L 628 4666 
z
" transform="scale(0.015625)"/>
       <path id="DejaVuSans-2f" d="M 1625 4666 
L 2156 4666 
L 531 -594 
L 0 -594 
L 1625 4666 
z
" transform="scale(0.015625)"/>
       <path id="DejaVuSans-28" d="M 1984 4856 
Q 1566 4138 1362 3434 
Q 1159 2731 1159 2009 
Q 1159 1288 1364 580 
Q 1569 -128 1984 -844 
L 1484 -844 
Q 1016 -109 783 600 
Q 550 1309 550 2009 
Q 550 2706 781 3412 
Q 1013 4119 1484 4856 
L 1984 4856 
z
" transform="scale(0.015625)"/>
       <path id="DejaVuSans-6d" d="M 3328 2828 
Q 3544 3216 3844 3400 
Q 4144 3584 4550 3584 
Q 5097 3584 5394 3201 
Q 5691 2819 5691 2113 
L 5691 0 
L 5113 0 
L 5113 2094 
Q 5113 2597 4934 2840 
Q 4756 3084 4391 3084 
Q 3944 3084 3684 2787 
Q 3425 2491 3425 1978 
L 3425 0 
L 2847 0 
L 2847 2094 
Q 2847 2600 2669 2842 
Q 2491 3084 2119 3084 
Q 1678 3084 1418 2786 
Q 1159 2488 1159 1978 
L 1159 0 
L 581 0 
L 581 3500 
L 1159 3500 
L 1159 2956 
Q 1356 3278 1631 3431 
Q 1906 3584 2284 3584 
Q 2666 3584 2933 3390 
Q 3200 3197 3328 2828 
z
" transform="scale(0.015625)"/>
       <path id="DejaVuSans-6c" d="M 603 4863 
L 1178 4863 
L 1178 0 
L 603 0 
L 603 4863 
z
" transform="scale(0.015625)"/>
       <path id="DejaVuSans-2a" d="M 3009 3897 
L 1888 3291 
L 3009 2681 
L 2828 2375 
L 1778 3009 
L 1778 1831 
L 1422 1831 
L 1422 3009 
L 372 2375 
L 191 2681 
L 1313 3291 
L 191 3897 
L 372 4206 
L 1422 3572 
L 1422 4750 
L 1778 4750 
L 1778 3572 
L 2828 4206 
L 3009 3897 
z
" transform="scale(0.015625)"/>
       <path id="DejaVuSans-41" d="M 2188 4044 
L 1331 1722 
L 3047 1722 
L 2188 4044 
z
M 1831 4666 
L 2547 4666 
L 4325 0 
L 3669 0 
L 3244 1197 
L 1141 1197 
L 716 0 
L 50 0 
L 1831 4666 
z
" transform="scale(0.015625)"/>
       <path id="DejaVuSans-29" d="M 513 4856 
L 1013 4856 
Q 1481 4119 1714 3412 
Q 1947 2706 1947 2009 
Q 1947 1309 1714 600 
Q 1481 -109 1013 -844 
L 513 -844 
Q 928 -128 1133 580 
Q 1338 1288 1338 2009 
Q 1338 2731 1133 3434 
Q 928 4138 513 4856 
z
" transform="scale(0.015625)"/>
       <path id="DejaVuSans-5d" d="M 1947 4863 
L 1947 -844 
L 622 -844 
L 622 -397 
L 1369 -397 
L 1369 4416 
L 622 4416 
L 622 4863 
L 1947 4863 
z
" transform="scale(0.015625)"/>
      </defs>
      <use xlink:href="#DejaVuSans-46"/>
      <use xlink:href="#DejaVuSans-6f" x="53.894531"/>
      <use xlink:href="#DejaVuSans-72" x="115.076172"/>
      <use xlink:href="#DejaVuSans-63" x="153.939453"/>
      <use xlink:href="#DejaVuSans-65" x="208.919922"/>
      <use xlink:href="#DejaVuSans-20" x="270.443359"/>
      <use xlink:href="#DejaVuSans-45" x="302.230469"/>
      <use xlink:href="#DejaVuSans-72" x="365.414062"/>
      <use xlink:href="#DejaVuSans-72" x="404.777344"/>
      <use xlink:href="#DejaVuSans-6f" x="443.640625"/>
      <use xlink:href="#DejaVuSans-72" x="504.822266"/>
      <use xlink:href="#DejaVuSans-73" x="545.935547"/>
      <use xlink:href="#DejaVuSans-20" x="598.035156"/>
      <use xlink:href="#DejaVuSans-5b" x="629.822266"/>
      <use xlink:href="#DejaVuSans-6b" x="668.835938"/>
      <use xlink:href="#DejaVuSans-4a" x="726.746094"/>
      <use xlink:href="#DejaVuSans-2f" x="756.238281"/>
      <use xlink:href="#DejaVuSans-28" x="789.929688"/>
      <use xlink:href="#DejaVuSans-6d" x="828.943359"/>
      <use xlink:href="#DejaVuSans-6f" x="926.355469"/>
      <use xlink:href="#DejaVuSans-6c" x="987.537109"/>
      <use xlink:href="#DejaVuSans-2a" x="1015.320312"/>
      <use xlink:href="#DejaVuSans-41" x="1065.320312"/>
      <use xlink:href="#DejaVuSans-29" x="1133.728516"/>
      <use xlink:href="#DejaVuSans-5d" x="1172.742188"/>
     </g>
    </g>
   </g>
   <g id="line2d_15">
    <path d="M 83.72 499.48 
L 696.24 23.76 
" clip-path="url(#p1154db8e74)" style="fill: none; stroke-dasharray: 5.55,2.4; stroke-dashoffset: 0; stroke: #ff0000; stroke-width: 1.5"/>
   </g>
   <g id="patch_3">
    <path d="M 83.72 499.48 
L 83.72 23.76 
" style="fill: none; stroke: #000000; stroke-width: 0.8; stroke-linejoin: miter; stroke-linecap: square"/>
   </g>
   <g id="patch_4">
    <path d="M 696.24 499.48 
L 696.24 23.76 
" style="fill: none; stroke: #000000; stroke-width: 0.8; stroke-linejoin: miter; stroke-linecap: square"/>
   </g>
   <g id="patch_5">
    <path d="M 83.72 499.48 
L 696.24 499.48 
" style="fill: none; stroke: #000000; stroke-width: 0.8; stroke-linejoin: miter; stroke-linecap: square"/>
   </g>
   <g id="patch_6">
    <path d="M 83.72 23.76 
L 696.24 23.76 
" style="fill: none; stroke: #000000; stroke-width: 0.8; stroke-linejoin: miter; stroke-linecap: square"/>
   </g>
   <g id="text_17">
    <!-- Correlation in: 0.474 -->
    <g transform="translate(144.972 71.332) scale(0.22 -0.22)">
     <defs>
      <path id="DejaVuSans-43" d="M 4122 4306 
L 4122 3641 
Q 3803 3938 3442 4084 
Q 3081 4231 2675 4231 
Q 1875 4231 1450 3742 
Q 1025 3253 1025 2328 
Q 1025 1406 1450 917 
Q 1875 428 2675 428 
Q 3081 428 3442 575 
Q 3803 722 4122 1019 
L 4122 359 
Q 3791 134 3420 21 
Q 3050 -91 2638 -91 
Q 1578 -91 968 557 
Q 359 1206 359 2328 
Q 359 3453 968 4101 
Q 1578 4750 2638 4750 
Q 3056 4750 3426 4639 
Q 3797 4528 4122 4306 
z
" transform="scale(0.015625)"/>
      <path id="DejaVuSans-3a" d="M 750 794 
L 1409 794 
L 1409 0 
L 750 0 
L 750 794 
z
M 750 3309 
L 1409 3309 
L 1409 2516 
L 750 2516 
L 750 3309 
z
" transform="scale(0.015625)"/>
      <path id="DejaVuSans-2e" d="M 684 794 
L 1344 794 
L 1344 0 
L 684 0 
L 684 794 
z
" transform="scale(0.015625)"/>
      <path id="DejaVuSans-37" d="M 525 4666 
L 3525 4666 
L 3525 4397 
L 1831 0 
L 1172 0 
L 2766 4134 
L 525 4134 
L 525 4666 
z
" transform="scale(0.015625)"/>
     </defs>
     <use xlink:href="#DejaVuSans-43"/>
     <use xlink:href="#DejaVuSans-6f" x="69.824219"/>
     <use xlink:href="#DejaVuSans-72" x="131.005859"/>
     <use xlink:href="#DejaVuSans-72" x="170.369141"/>
     <use xlink:href="#DejaVuSans-65" x="209.232422"/>
     <use xlink:href="#DejaVuSans-6c" x="270.755859"/>
     <use xlink:href="#DejaVuSans-61" x="298.539062"/>
     <use xlink:href="#DejaVuSans-74" x="359.818359"/>
     <use xlink:href="#DejaVuSans-69" x="399.027344"/>
     <use xlink:href="#DejaVuSans-6f" x="426.810547"/>
     <use xlink:href="#DejaVuSans-6e" x="487.992188"/>
     <use xlink:href="#DejaVuSans-20" x="551.371094"/>
     <use xlink:href="#DejaVuSans-69" x="583.158203"/>
     <use xlink:href="#DejaVuSans-6e" x="610.941406"/>
     <use xlink:href="#DejaVuSans-3a" x="674.320312"/>
     <use xlink:href="#DejaVuSans-20" x="708.011719"/>
     <use xlink:href="#DejaVuSans-30" x="739.798828"/>
     <use xlink:href="#DejaVuSans-2e" x="803.421875"/>
     <use xlink:href="#DejaVuSans-34" x="835.208984"/>
     <use xlink:href="#DejaVuSans-37" x="898.832031"/>
     <use xlink:href="#DejaVuSans-34" x="962.455078"/>
    </g>
   </g>
  </g>
 </g>
 <defs>
  <clipPath id="p1154db8e74">
   <rect x="83.72" y="23.76" width="612.52" height="475.72"/>
  </clipPath>
 </defs>
</svg>
