<?xml version="1.0" encoding="utf-8" standalone="no"?>
<!DOCTYPE svg PUBLIC "-//W3C//DTD SVG 1.1//EN"
  "http://www.w3.org/Graphics/SVG/1.1/DTD/svg11.dtd">
<svg xmlns:xlink="http://www.w3.org/1999/xlink" width="720pt" height="576pt" viewBox="0 0 720 576" xmlns="http://www.w3.org/2000/svg" version="1.1">
 <metadata>
  <rdf:RDF xmlns:dc="http://purl.org/dc/elements/1.1/" xmlns:cc="http://creativecommons.org/ns#" xmlns:rdf="http://www.w3.org/1999/02/22-rdf-syntax-ns#">
   <cc:Work>
    <dc:type rdf:resource="http://purl.org/dc/dcmitype/StillImage"/>
    <dc:date>2024-12-07T13:37:32.143112</dc:date>
    <dc:format>image/svg+xml</dc:format>
    <dc:creator>
     <cc:Agent>
      <dc:title>Matplotlib v3.8.4, https://matplotlib.org/</dc:title>
     </cc:Agent>
    </dc:creator>
   </cc:Work>
  </rdf:RDF>
 </metadata>
 <defs>
  <style type="text/css">*{stroke-linejoin: round; stroke-linecap: butt}</style>
 </defs>
 <g id="figure_1">
  <g id="patch_1">
   <path d="M 0 576 
L 720 576 
L 720 0 
L 0 0 
z
" style="fill: #ffffff"/>
  </g>
  <g id="axes_1">
   <g id="patch_2">
    <path d="M 102.17 499.48 
L 682.2 499.48 
L 682.2 32.04 
L 102.17 32.04 
z
" style="fill: #ffffff"/>
   </g>
   <g id="QuadContourSet_1">
    <path d="M 216.163821 404.986757 
L 218.073127 403.6963 
L 216.163821 396.834203 
L 212.44335 403.6963 
z
M 226.060871 399.654159 
L 230.212624 396.834203 
L 235.957921 393.843062 
L 241.632617 389.972105 
L 245.854972 387.713532 
L 252.578997 383.110007 
L 255.752022 381.368 
L 263.207886 376.247909 
L 265.649072 374.873371 
L 273.620256 369.385811 
L 275.546123 368.274114 
L 283.882409 362.523713 
L 285.443173 361.600169 
L 294.038356 355.661615 
L 295.340223 354.871829 
L 304.117465 348.799517 
L 305.237274 348.102813 
L 314.139282 341.937419 
L 315.134324 341.302248 
L 324.116615 335.075321 
L 325.031374 334.47595 
L 334.057517 328.213223 
L 334.928424 327.627244 
L 343.966536 321.351125 
L 344.825475 320.757472 
L 353.845461 314.489027 
L 354.722525 313.866236 
L 363.693692 307.626929 
L 364.619575 306.951457 
L 373.5083 300.764831 
L 374.516626 300.009237 
L 383.283831 293.902733 
L 384.413676 293.033545 
L 393.011839 287.040635 
L 394.310726 286.015718 
L 402.680164 280.178537 
L 404.207776 278.943785 
L 412.271941 273.316439 
L 414.104827 271.801636 
L 421.764376 266.454341 
L 424.001877 264.568104 
L 431.127375 259.592243 
L 433.898927 257.21606 
L 440.32215 252.730145 
L 443.795978 249.711578 
L 449.299893 245.868048 
L 453.693028 242.012979 
L 458.00029 239.00595 
L 463.590078 234.068978 
L 466.348834 232.143852 
L 473.487129 225.814256 
L 474.250622 225.281754 
L 483.077409 218.419656 
L 483.384179 218.129102 
L 492.396181 211.557558 
L 493.281229 210.697525 
L 501.4874 204.69546 
L 503.178279 203.008534 
L 510.219927 197.833362 
L 513.07533 194.906179 
L 518.393043 190.971264 
L 522.97238 186.143202 
L 525.696883 184.109166 
L 532.573049 177.247068 
L 532.86943 176.96101 
L 541.275679 170.38497 
L 542.766481 168.938363 
L 549.777866 163.522872 
L 552.663531 160.706727 
L 557.962891 156.660774 
L 562.560581 152.14591 
L 565.667684 149.798676 
L 572.457631 143.085119 
L 572.656171 142.936578 
L 579.889773 136.07448 
L 582.354682 133.498487 
L 587.091405 129.212382 
L 582.354682 124.814913 
L 574.692029 129.212382 
L 572.457631 130.163521 
L 562.700878 136.07448 
L 562.560581 136.139348 
L 552.663531 142.287626 
L 551.722755 142.936578 
L 542.766481 148.581516 
L 541.005029 149.798676 
L 532.86943 155.003769 
L 530.475245 156.660774 
L 522.97238 161.533473 
L 520.10186 163.522872 
L 513.07533 168.158573 
L 509.86643 170.38497 
L 503.178279 174.873347 
L 499.759989 177.247068 
L 493.281229 181.677032 
L 489.781051 184.109166 
L 483.384179 188.573456 
L 479.935009 190.971264 
L 473.487129 195.57156 
L 470.234767 197.833362 
L 463.590078 202.686746 
L 460.702567 204.69546 
L 453.693028 209.943182 
L 451.37317 211.557558 
L 443.795978 217.377389 
L 442.298876 218.419656 
L 433.898927 225.043774 
L 433.557286 225.281754 
L 424.215645 232.143852 
L 424.001877 232.301025 
L 414.614007 239.00595 
L 414.104827 239.389108 
L 405.034542 245.868048 
L 404.207776 246.505001 
L 395.489051 252.730145 
L 394.310726 253.659959 
L 385.995089 259.592243 
L 384.413676 260.871018 
L 376.578125 266.454341 
L 374.516626 268.163471 
L 367.275107 273.316439 
L 364.619575 275.574908 
L 358.140275 280.178537 
L 354.722525 283.16185 
L 349.254703 287.040635 
L 344.825475 291.010711 
L 340.742025 293.902733 
L 334.928424 299.256174 
L 332.794767 300.764831 
L 325.096472 307.626929 
L 325.031374 307.683204 
L 315.537613 314.489027 
L 315.134324 314.847665 
L 306.050518 321.351125 
L 305.237274 322.094844 
L 296.679175 328.213223 
L 295.340223 329.472045 
L 287.490727 335.075321 
L 285.443173 337.053727 
L 278.590844 341.937419 
L 275.546123 344.960053 
L 270.150117 348.799517 
L 265.649072 353.38937 
L 262.450316 355.661615 
L 255.796673 362.523713 
L 255.752022 362.568248 
L 246.862337 369.385811 
L 245.854972 370.413875 
L 238.187072 376.247909 
L 235.957921 378.575028 
L 229.953198 383.110007 
L 226.060871 387.265249 
L 222.451954 389.972105 
L 216.163821 396.834203 
z
M 254.546986 369.385811 
L 255.752022 368.46166 
L 261.705486 362.523713 
L 265.649072 359.47338 
L 269.560587 355.661615 
L 275.546123 350.989053 
L 277.846465 348.799517 
L 285.443173 342.810234 
L 286.382395 341.937419 
L 294.587682 335.075321 
L 295.340223 334.538128 
L 302.067735 328.213223 
L 305.237274 325.947248 
L 310.263058 321.351125 
L 315.134324 317.863591 
L 318.929031 314.489027 
L 325.031374 310.114421 
L 327.908848 307.626929 
L 334.928424 302.588959 
L 337.099821 300.764831 
L 344.825475 295.214666 
L 346.433088 293.902733 
L 354.722525 287.94296 
L 355.861156 287.040635 
L 364.619575 280.740442 
L 365.350075 280.178537 
L 374.516626 273.583413 
L 374.874381 273.316439 
L 384.413676 266.454341 
L 384.413676 266.454341 
L 392.899777 259.592243 
L 394.310726 258.585687 
L 401.731281 252.730145 
L 404.207776 250.961935 
L 410.819647 245.868048 
L 414.104827 243.521431 
L 420.105466 239.00595 
L 424.001877 236.223088 
L 429.549973 232.143852 
L 433.898927 229.040383 
L 439.129859 225.281754 
L 443.795978 221.957613 
L 448.834213 218.419656 
L 453.693028 214.967573 
L 458.662946 211.557558 
L 463.590078 208.070215 
L 468.626339 204.69546 
L 473.487129 201.272048 
L 478.745676 197.833362 
L 483.384179 194.586301 
L 489.055263 190.971264 
L 493.281229 188.034075 
L 499.606616 184.109166 
L 503.178279 181.646943 
L 510.476261 177.247068 
L 513.07533 175.471753 
L 521.779716 170.38497 
L 522.97238 169.578773 
L 526.304434 170.38497 
L 523.772884 177.247068 
L 522.97238 177.882115 
L 516.487098 184.109166 
L 513.07533 186.857852 
L 508.769075 190.971264 
L 503.178279 195.553095 
L 500.778193 197.833362 
L 493.281229 204.095381 
L 492.645918 204.69546 
L 485.248809 211.557558 
L 483.384179 212.917244 
L 477.574668 218.419656 
L 473.487129 221.395703 
L 469.279709 225.281754 
L 463.590078 229.42261 
L 460.569549 232.143852 
L 453.693028 237.150488 
L 451.58162 239.00595 
L 443.795978 244.679251 
L 442.408781 245.868048 
L 433.898927 252.075002 
L 433.114602 252.730145 
L 424.001877 259.381904 
L 423.743329 259.592243 
L 414.9511 266.454341 
L 414.104827 267.045143 
L 406.516664 273.316439 
L 404.207776 274.92763 
L 397.711453 280.178537 
L 394.310726 282.55034 
L 388.620135 287.040635 
L 384.413676 289.972533 
L 379.304867 293.902733 
L 374.516626 297.237823 
L 369.809902 300.764831 
L 364.619575 304.377342 
L 360.165298 307.626929 
L 354.722525 311.412293 
L 350.389625 314.489027 
L 344.825475 318.355836 
L 340.491681 321.351125 
L 334.928424 325.214284 
L 330.471267 328.213223 
L 325.031374 331.987655 
L 320.318986 335.075321 
L 315.134324 338.669561 
L 310.014983 341.937419 
L 305.237274 345.246387 
L 299.526347 348.799517 
L 295.340223 351.69558 
L 288.802694 355.661615 
L 285.443173 357.982764 
L 277.769094 362.523713 
L 275.546123 364.057126 
L 266.31489 369.385811 
L 265.649072 369.844176 
L 255.752022 372.726931 
z
M 592.251732 123.822763 
L 593.932691 122.350284 
L 592.251732 120.533816 
L 588.818875 122.350284 
z
" clip-path="url(#pa40ccc1897)" style="fill: #eaf3fb"/>
    <path d="M 255.752022 372.726931 
L 265.649072 369.844176 
L 266.31489 369.385811 
L 275.546123 364.057126 
L 277.769094 362.523713 
L 285.443173 357.982764 
L 288.802694 355.661615 
L 295.340223 351.69558 
L 299.526347 348.799517 
L 305.237274 345.246387 
L 310.014983 341.937419 
L 315.134324 338.669561 
L 320.318986 335.075321 
L 325.031374 331.987655 
L 330.471267 328.213223 
L 334.928424 325.214284 
L 340.491681 321.351125 
L 344.825475 318.355836 
L 350.389625 314.489027 
L 354.722525 311.412293 
L 360.165298 307.626929 
L 364.619575 304.377342 
L 369.809902 300.764831 
L 374.516626 297.237823 
L 379.304867 293.902733 
L 384.413676 289.972533 
L 388.620135 287.040635 
L 394.310726 282.55034 
L 397.711453 280.178537 
L 404.207776 274.92763 
L 406.516664 273.316439 
L 414.104827 267.045143 
L 414.9511 266.454341 
L 423.743329 259.592243 
L 424.001877 259.381904 
L 433.114602 252.730145 
L 433.898927 252.075002 
L 442.408781 245.868048 
L 443.795978 244.679251 
L 451.58162 239.00595 
L 453.693028 237.150488 
L 460.569549 232.143852 
L 463.590078 229.42261 
L 469.279709 225.281754 
L 473.487129 221.395703 
L 477.574668 218.419656 
L 483.384179 212.917244 
L 485.248809 211.557558 
L 492.645918 204.69546 
L 493.281229 204.095381 
L 500.778193 197.833362 
L 503.178279 195.553095 
L 508.769075 190.971264 
L 513.07533 186.857852 
L 516.487098 184.109166 
L 522.97238 177.882115 
L 523.772884 177.247068 
L 526.304434 170.38497 
L 522.97238 169.578773 
L 521.779716 170.38497 
L 513.07533 175.471753 
L 510.476261 177.247068 
L 503.178279 181.646943 
L 499.606616 184.109166 
L 493.281229 188.034075 
L 489.055263 190.971264 
L 483.384179 194.586301 
L 478.745676 197.833362 
L 473.487129 201.272048 
L 468.626339 204.69546 
L 463.590078 208.070215 
L 458.662946 211.557558 
L 453.693028 214.967573 
L 448.834213 218.419656 
L 443.795978 221.957613 
L 439.129859 225.281754 
L 433.898927 229.040383 
L 429.549973 232.143852 
L 424.001877 236.223088 
L 420.105466 239.00595 
L 414.104827 243.521431 
L 410.819647 245.868048 
L 404.207776 250.961935 
L 401.731281 252.730145 
L 394.310726 258.585687 
L 392.899777 259.592243 
L 384.413676 266.454341 
L 384.413676 266.454341 
L 374.874381 273.316439 
L 374.516626 273.583413 
L 365.350075 280.178537 
L 364.619575 280.740442 
L 355.861156 287.040635 
L 354.722525 287.94296 
L 346.433088 293.902733 
L 344.825475 295.214666 
L 337.099821 300.764831 
L 334.928424 302.588959 
L 327.908848 307.626929 
L 325.031374 310.114421 
L 318.929031 314.489027 
L 315.134324 317.863591 
L 310.263058 321.351125 
L 305.237274 325.947248 
L 302.067735 328.213223 
L 295.340223 334.538128 
L 294.587682 335.075321 
L 286.382395 341.937419 
L 285.443173 342.810234 
L 277.846465 348.799517 
L 275.546123 350.989053 
L 269.560587 355.661615 
L 265.649072 359.47338 
L 261.705486 362.523713 
L 255.752022 368.46166 
L 254.546986 369.385811 
z
M 272.888346 355.661615 
L 275.546123 353.586842 
L 280.575722 348.799517 
L 285.443173 344.961994 
L 288.69787 341.937419 
L 295.340223 336.64462 
L 297.070963 335.075321 
L 305.237274 328.493685 
L 305.554599 328.213223 
L 313.252026 321.351125 
L 315.134324 320.003512 
L 321.335379 314.489027 
L 325.031374 311.839467 
L 329.904343 307.626929 
L 334.928424 304.021131 
L 338.804643 300.764831 
L 344.825475 296.439423 
L 347.933876 293.902733 
L 354.722525 289.021967 
L 357.22274 287.040635 
L 364.619575 281.71987 
L 366.623372 280.178537 
L 374.516626 274.499521 
L 376.102007 273.316439 
L 384.413676 267.337435 
L 385.634277 266.454341 
L 394.310726 260.217002 
L 395.202205 259.592243 
L 404.207776 253.126461 
L 404.792307 252.730145 
L 414.104827 246.057731 
L 414.394516 245.868048 
L 424.001877 239.00595 
L 424.001877 239.00595 
L 433.334895 232.143852 
L 433.898927 231.741351 
L 442.88883 225.281754 
L 443.795978 224.635502 
L 452.647665 218.419656 
L 453.693028 217.676948 
L 462.611716 211.557558 
L 463.590078 210.865089 
L 472.797223 204.69546 
L 473.487129 204.209565 
L 483.23782 197.833362 
L 483.384179 197.730907 
L 493.281229 191.833495 
L 497.024952 197.833362 
L 493.281229 200.960396 
L 489.32687 204.69546 
L 483.384179 209.766636 
L 481.47566 211.557558 
L 473.670251 218.419656 
L 473.487129 218.552983 
L 466.201902 225.281754 
L 463.590078 227.182613 
L 458.083193 232.143852 
L 453.693028 235.340229 
L 449.521652 239.00595 
L 443.795978 243.178178 
L 440.657191 245.868048 
L 433.898927 250.797419 
L 431.585105 252.730145 
L 424.001877 258.265461 
L 422.370998 259.592243 
L 414.104827 265.627747 
L 413.060513 266.454341 
L 404.207776 272.914938 
L 403.685709 273.316439 
L 394.310726 280.147558 
L 394.269198 280.178537 
L 385.504044 287.040635 
L 384.413676 287.800621 
L 376.481632 293.902733 
L 374.516626 295.271393 
L 367.18574 300.764831 
L 364.619575 302.550903 
L 357.661761 307.626929 
L 354.722525 309.671122 
L 347.93757 314.489027 
L 344.825475 316.651779 
L 338.026132 321.351125 
L 334.928424 323.502192 
L 327.926678 328.213223 
L 325.031374 330.222109 
L 317.624415 335.075321 
L 315.134324 336.801564 
L 307.088627 341.937419 
L 305.237274 343.219637 
L 296.268763 348.799517 
L 295.340223 349.441904 
L 285.443173 355.312261 
L 284.384493 355.661615 
L 275.546123 359.922698 
z
M 496.593916 190.971264 
L 503.178279 187.909399 
L 504.417968 190.971264 
L 503.178279 191.987228 
z
" clip-path="url(#pa40ccc1897)" style="fill: #d6e5f4"/>
    <path d="M 275.546123 359.922698 
L 284.384493 355.661615 
L 285.443173 355.312261 
L 295.340223 349.441904 
L 296.268763 348.799517 
L 305.237274 343.219637 
L 307.088627 341.937419 
L 315.134324 336.801564 
L 317.624415 335.075321 
L 325.031374 330.222109 
L 327.926678 328.213223 
L 334.928424 323.502192 
L 338.026132 321.351125 
L 344.825475 316.651779 
L 347.93757 314.489027 
L 354.722525 309.671122 
L 357.661761 307.626929 
L 364.619575 302.550903 
L 367.18574 300.764831 
L 374.516626 295.271393 
L 376.481632 293.902733 
L 384.413676 287.800621 
L 385.504044 287.040635 
L 394.269198 280.178537 
L 394.310726 280.147558 
L 403.685709 273.316439 
L 404.207776 272.914938 
L 413.060513 266.454341 
L 414.104827 265.627747 
L 422.370998 259.592243 
L 424.001877 258.265461 
L 431.585105 252.730145 
L 433.898927 250.797419 
L 440.657191 245.868048 
L 443.795978 243.178178 
L 449.521652 239.00595 
L 453.693028 235.340229 
L 458.083193 232.143852 
L 463.590078 227.182613 
L 466.201902 225.281754 
L 473.487129 218.552983 
L 473.670251 218.419656 
L 481.47566 211.557558 
L 483.384179 209.766636 
L 489.32687 204.69546 
L 493.281229 200.960396 
L 497.024952 197.833362 
L 493.281229 191.833495 
L 483.384179 197.730907 
L 483.23782 197.833362 
L 473.487129 204.209565 
L 472.797223 204.69546 
L 463.590078 210.865089 
L 462.611716 211.557558 
L 453.693028 217.676948 
L 452.647665 218.419656 
L 443.795978 224.635502 
L 442.88883 225.281754 
L 433.898927 231.741351 
L 433.334895 232.143852 
L 424.001877 239.00595 
L 424.001877 239.00595 
L 414.394516 245.868048 
L 414.104827 246.057731 
L 404.792307 252.730145 
L 404.207776 253.126461 
L 395.202205 259.592243 
L 394.310726 260.217002 
L 385.634277 266.454341 
L 384.413676 267.337435 
L 376.102007 273.316439 
L 374.516626 274.499521 
L 366.623372 280.178537 
L 364.619575 281.71987 
L 357.22274 287.040635 
L 354.722525 289.021967 
L 347.933876 293.902733 
L 344.825475 296.439423 
L 338.804643 300.764831 
L 334.928424 304.021131 
L 329.904343 307.626929 
L 325.031374 311.839467 
L 321.335379 314.489027 
L 315.134324 320.003512 
L 313.252026 321.351125 
L 305.554599 328.213223 
L 305.237274 328.493685 
L 297.070963 335.075321 
L 295.340223 336.64462 
L 288.69787 341.937419 
L 285.443173 344.961994 
L 280.575722 348.799517 
L 275.546123 353.586842 
L 272.888346 355.661615 
z
M 283.097867 348.799517 
L 285.443173 346.950465 
L 291.119071 348.799517 
L 285.443173 351.937582 
z
M 290.837632 341.937419 
L 295.340223 338.349638 
L 298.951384 335.075321 
L 305.237274 330.00921 
L 307.269322 328.213223 
L 315.134324 321.796734 
L 315.652357 321.351125 
L 323.559119 314.489027 
L 325.031374 313.433607 
L 331.748407 307.626929 
L 334.928424 305.344621 
L 340.380093 300.764831 
L 344.825475 297.571237 
L 349.320776 293.902733 
L 354.722525 290.019092 
L 358.480998 287.040635 
L 364.619575 282.624973 
L 367.800044 280.178537 
L 374.516626 275.346109 
L 377.236473 273.316439 
L 384.413676 268.153514 
L 386.762252 266.454341 
L 394.310726 261.027882 
L 396.359265 259.592243 
L 404.207776 253.957202 
L 406.017577 252.730145 
L 414.104827 246.935636 
L 415.735276 245.868048 
L 424.001877 239.963593 
L 425.520263 239.00595 
L 433.898927 233.049253 
L 435.395221 232.143852 
L 443.795978 226.212409 
L 445.40903 225.281754 
L 453.693028 219.492742 
L 455.663327 218.419656 
L 463.590078 212.967679 
L 466.380407 211.557558 
L 473.487129 206.793668 
L 478.10781 204.69546 
L 483.384179 201.313531 
L 486.25969 204.69546 
L 483.384179 207.149268 
L 478.686427 211.557558 
L 473.487129 216.104294 
L 471.001066 218.419656 
L 463.590078 225.089153 
L 463.381432 225.281754 
L 455.785517 232.143852 
L 453.693028 233.667345 
L 447.618006 239.00595 
L 443.795978 241.791015 
L 439.038521 245.868048 
L 433.898927 249.616787 
L 430.171676 252.730145 
L 424.001877 257.233739 
L 421.102807 259.592243 
L 414.104827 264.701784 
L 411.890658 266.454341 
L 404.207776 272.061195 
L 402.575595 273.316439 
L 394.310726 279.338669 
L 393.184863 280.178537 
L 384.413676 286.55113 
L 383.735767 287.040635 
L 374.516626 293.707973 
L 374.237264 293.902733 
L 364.760714 300.764831 
L 364.619575 300.863065 
L 355.348207 307.626929 
L 354.722525 308.062081 
L 345.671591 314.489027 
L 344.825475 315.077036 
L 335.747683 321.351125 
L 334.928424 321.920023 
L 325.575187 328.213223 
L 325.031374 328.590544 
L 315.134324 335.075321 
L 315.134324 335.075321 
L 305.237274 341.345788 
L 303.947195 341.937419 
L 295.340223 347.102147 
z
M 492.528859 197.833362 
L 493.281229 197.392152 
L 493.55653 197.833362 
L 493.281229 198.063313 
z
M 503.178279 191.987228 
L 504.417968 190.971264 
L 503.178279 187.909399 
L 496.593916 190.971264 
z
" clip-path="url(#pa40ccc1897)" style="fill: #c4daee"/>
    <path d="M 285.443173 351.937582 
L 291.119071 348.799517 
L 285.443173 346.950465 
L 283.097867 348.799517 
z
M 295.340223 347.102147 
L 303.947195 341.937419 
L 305.237274 341.345788 
L 315.134324 335.075321 
L 315.134324 335.075321 
L 325.031374 328.590544 
L 325.575187 328.213223 
L 334.928424 321.920023 
L 335.747683 321.351125 
L 344.825475 315.077036 
L 345.671591 314.489027 
L 354.722525 308.062081 
L 355.348207 307.626929 
L 364.619575 300.863065 
L 364.760714 300.764831 
L 374.237264 293.902733 
L 374.516626 293.707973 
L 383.735767 287.040635 
L 384.413676 286.55113 
L 393.184863 280.178537 
L 394.310726 279.338669 
L 402.575595 273.316439 
L 404.207776 272.061195 
L 411.890658 266.454341 
L 414.104827 264.701784 
L 421.102807 259.592243 
L 424.001877 257.233739 
L 430.171676 252.730145 
L 433.898927 249.616787 
L 439.038521 245.868048 
L 443.795978 241.791015 
L 447.618006 239.00595 
L 453.693028 233.667345 
L 455.785517 232.143852 
L 463.381432 225.281754 
L 463.590078 225.089153 
L 471.001066 218.419656 
L 473.487129 216.104294 
L 478.686427 211.557558 
L 483.384179 207.149268 
L 486.25969 204.69546 
L 483.384179 201.313531 
L 478.10781 204.69546 
L 473.487129 206.793668 
L 466.380407 211.557558 
L 463.590078 212.967679 
L 455.663327 218.419656 
L 453.693028 219.492742 
L 445.40903 225.281754 
L 443.795978 226.212409 
L 435.395221 232.143852 
L 433.898927 233.049253 
L 425.520263 239.00595 
L 424.001877 239.963593 
L 415.735276 245.868048 
L 414.104827 246.935636 
L 406.017577 252.730145 
L 404.207776 253.957202 
L 396.359265 259.592243 
L 394.310726 261.027882 
L 386.762252 266.454341 
L 384.413676 268.153514 
L 377.236473 273.316439 
L 374.516626 275.346109 
L 367.800044 280.178537 
L 364.619575 282.624973 
L 358.480998 287.040635 
L 354.722525 290.019092 
L 349.320776 293.902733 
L 344.825475 297.571237 
L 340.380093 300.764831 
L 334.928424 305.344621 
L 331.748407 307.626929 
L 325.031374 313.433607 
L 323.559119 314.489027 
L 315.652357 321.351125 
L 315.134324 321.796734 
L 307.269322 328.213223 
L 305.237274 330.00921 
L 298.951384 335.075321 
L 295.340223 338.349638 
L 290.837632 341.937419 
z
M 294.82628 341.937419 
L 295.340223 341.527895 
L 296.322657 341.937419 
L 295.340223 342.526941 
z
M 302.456602 335.075321 
L 305.237274 332.83424 
L 309.615404 335.075321 
L 305.237274 337.84917 
z
M 310.465671 328.213223 
L 315.134324 324.404404 
L 318.68385 321.351125 
L 325.031374 316.104717 
L 326.96598 314.489027 
L 334.928424 307.81525 
L 335.161592 307.626929 
L 343.316827 300.764831 
L 344.825475 299.681008 
L 351.906041 293.902733 
L 354.722525 291.877794 
L 360.826469 287.040635 
L 364.619575 284.31214 
L 369.993432 280.178537 
L 374.516626 276.924202 
L 379.351187 273.316439 
L 384.413676 269.674734 
L 388.864866 266.454341 
L 394.310726 262.539413 
L 398.516096 259.592243 
L 404.207776 255.505754 
L 408.301556 252.730145 
L 414.104827 248.572105 
L 418.234536 245.868048 
L 424.001877 241.7487 
L 428.350627 239.00595 
L 433.898927 235.061461 
L 438.720657 232.143852 
L 443.795978 228.560368 
L 449.478615 225.281754 
L 453.693028 222.336644 
L 458.621921 225.281754 
L 453.693028 229.875263 
L 451.208905 232.143852 
L 444.069495 239.00595 
L 443.795978 239.205258 
L 436.021223 245.868048 
L 433.898927 247.416017 
L 427.536957 252.730145 
L 424.001877 255.310548 
L 418.738823 259.592243 
L 414.104827 262.975733 
L 409.709976 266.454341 
L 404.207776 270.469766 
L 400.506275 273.316439 
L 394.310726 277.830851 
L 391.163597 280.178537 
L 384.413676 285.082605 
L 381.70203 287.040635 
L 374.516626 292.237162 
L 372.127548 293.902733 
L 364.619575 299.296518 
L 362.431219 300.764831 
L 354.722525 306.252239 
L 352.585228 307.626929 
L 344.825475 313.083263 
L 342.533845 314.489027 
L 334.928424 319.750924 
L 332.174874 321.351125 
L 325.031374 326.189261 
L 321.321137 328.213223 
L 315.134324 332.286554 
z
M 460.885026 218.419656 
L 463.590078 216.559136 
L 466.119123 218.419656 
L 463.590078 220.695662 
z
M 493.281229 198.063313 
L 493.55653 197.833362 
L 493.281229 197.392152 
L 492.528859 197.833362 
z
" clip-path="url(#pa40ccc1897)" style="fill: #9fcae1"/>
    <path d="M 295.340223 342.526941 
L 296.322657 341.937419 
L 295.340223 341.527895 
L 294.82628 341.937419 
z
M 305.237274 337.84917 
L 309.615404 335.075321 
L 305.237274 332.83424 
L 302.456602 335.075321 
z
M 315.134324 332.286554 
L 321.321137 328.213223 
L 325.031374 326.189261 
L 332.174874 321.351125 
L 334.928424 319.750924 
L 342.533845 314.489027 
L 344.825475 313.083263 
L 352.585228 307.626929 
L 354.722525 306.252239 
L 362.431219 300.764831 
L 364.619575 299.296518 
L 372.127548 293.902733 
L 374.516626 292.237162 
L 381.70203 287.040635 
L 384.413676 285.082605 
L 391.163597 280.178537 
L 394.310726 277.830851 
L 400.506275 273.316439 
L 404.207776 270.469766 
L 409.709976 266.454341 
L 414.104827 262.975733 
L 418.738823 259.592243 
L 424.001877 255.310548 
L 427.536957 252.730145 
L 433.898927 247.416017 
L 436.021223 245.868048 
L 443.795978 239.205258 
L 444.069495 239.00595 
L 451.208905 232.143852 
L 453.693028 229.875263 
L 458.621921 225.281754 
L 453.693028 222.336644 
L 449.478615 225.281754 
L 443.795978 228.560368 
L 438.720657 232.143852 
L 433.898927 235.061461 
L 428.350627 239.00595 
L 424.001877 241.7487 
L 418.234536 245.868048 
L 414.104827 248.572105 
L 408.301556 252.730145 
L 404.207776 255.505754 
L 398.516096 259.592243 
L 394.310726 262.539413 
L 388.864866 266.454341 
L 384.413676 269.674734 
L 379.351187 273.316439 
L 374.516626 276.924202 
L 369.993432 280.178537 
L 364.619575 284.31214 
L 360.826469 287.040635 
L 354.722525 291.877794 
L 351.906041 293.902733 
L 344.825475 299.681008 
L 343.316827 300.764831 
L 335.161592 307.626929 
L 334.928424 307.81525 
L 326.96598 314.489027 
L 325.031374 316.104717 
L 318.68385 321.351125 
L 315.134324 324.404404 
L 310.465671 328.213223 
z
M 313.94789 328.213223 
L 315.134324 327.245297 
L 316.706563 328.213223 
L 315.134324 329.248369 
z
M 321.98647 321.351125 
L 325.031374 318.834426 
L 328.458107 321.351125 
L 325.031374 323.671976 
z
M 330.234499 314.489027 
L 334.928424 310.554781 
L 338.553518 307.626929 
L 344.825475 302.290073 
L 346.791031 300.764831 
L 354.722525 293.902733 
L 354.722525 293.902733 
L 363.381711 287.040635 
L 364.619575 286.150203 
L 372.382989 280.178537 
L 374.516626 278.643434 
L 381.655034 273.316439 
L 384.413676 271.332008 
L 391.155531 266.454341 
L 394.310726 264.18613 
L 400.865827 259.592243 
L 404.207776 257.192804 
L 410.789807 252.730145 
L 414.104827 250.354936 
L 420.957321 245.868048 
L 424.001877 243.693461 
L 431.517206 245.868048 
L 424.666597 252.730145 
L 424.001877 253.215352 
L 416.163412 259.592243 
L 414.104827 261.095309 
L 407.334261 266.454341 
L 404.207776 268.736004 
L 398.251881 273.316439 
L 394.310726 276.188178 
L 388.961555 280.178537 
L 384.413676 283.48274 
L 379.486401 287.040635 
L 374.516626 290.634806 
L 369.829146 293.902733 
L 364.619575 297.645329 
L 359.970306 300.764831 
L 354.722525 304.500446 
L 349.861632 307.626929 
L 344.825475 311.168145 
L 339.411882 314.489027 
L 334.928424 317.590958 
z
M 431.43413 239.00595 
L 433.898927 237.253636 
L 438.475586 239.00595 
L 433.898927 243.760336 
z
M 442.343511 232.143852 
L 443.795978 231.118322 
L 445.917427 232.143852 
L 443.795978 234.212118 
z
M 463.590078 220.695662 
L 466.119123 218.419656 
L 463.590078 216.559136 
L 460.885026 218.419656 
z
" clip-path="url(#pa40ccc1897)" style="fill: #5fa6d1"/>
    <path d="M 315.134324 329.248369 
L 316.706563 328.213223 
L 315.134324 327.245297 
L 313.94789 328.213223 
z
M 325.031374 323.671976 
L 328.458107 321.351125 
L 325.031374 318.834426 
L 321.98647 321.351125 
z
M 324.626418 321.351125 
L 325.031374 321.016418 
L 325.487111 321.351125 
L 325.031374 321.659786 
z
M 334.928424 317.590958 
L 339.411882 314.489027 
L 344.825475 311.168145 
L 349.861632 307.626929 
L 354.722525 304.500446 
L 359.970306 300.764831 
L 364.619575 297.645329 
L 369.829146 293.902733 
L 374.516626 290.634806 
L 379.486401 287.040635 
L 384.413676 283.48274 
L 388.961555 280.178537 
L 394.310726 276.188178 
L 398.251881 273.316439 
L 404.207776 268.736004 
L 407.334261 266.454341 
L 414.104827 261.095309 
L 416.163412 259.592243 
L 424.001877 253.215352 
L 424.666597 252.730145 
L 431.517206 245.868048 
L 424.001877 243.693461 
L 420.957321 245.868048 
L 414.104827 250.354936 
L 410.789807 252.730145 
L 404.207776 257.192804 
L 400.865827 259.592243 
L 394.310726 264.18613 
L 391.155531 266.454341 
L 384.413676 271.332008 
L 381.655034 273.316439 
L 374.516626 278.643434 
L 372.382989 280.178537 
L 364.619575 286.150203 
L 363.381711 287.040635 
L 354.722525 293.902733 
L 354.722525 293.902733 
L 346.791031 300.764831 
L 344.825475 302.290073 
L 338.553518 307.626929 
L 334.928424 310.554781 
L 330.234499 314.489027 
z
M 332.847188 314.489027 
L 334.928424 312.744624 
L 336.916342 314.489027 
L 334.928424 315.86439 
z
M 341.264853 307.626929 
L 344.825475 304.597169 
L 347.684527 307.626929 
L 344.825475 309.637295 
z
M 349.76415 300.764831 
L 354.722525 296.47499 
L 358.003176 300.764831 
L 354.722525 303.100151 
z
M 358.212856 293.902733 
L 364.619575 288.253169 
L 367.99192 293.902733 
L 364.619575 296.325451 
z
M 366.391805 287.040635 
L 374.293081 280.178537 
L 374.516626 280.017702 
L 383.496614 273.316439 
L 384.413676 272.65675 
L 392.986573 266.454341 
L 394.310726 265.502432 
L 402.744083 259.592243 
L 404.207776 258.541347 
L 414.104399 259.592243 
L 405.435234 266.454341 
L 404.207776 267.350122 
L 396.449833 273.316439 
L 394.310726 274.875108 
L 387.201354 280.178537 
L 384.413676 282.203888 
L 377.715339 287.040635 
L 374.516626 289.353964 
z
M 412.778789 252.730145 
L 414.104827 251.78004 
L 418.896674 252.730145 
L 414.104827 259.591896 
z
M 423.133779 245.868048 
L 424.001877 245.248005 
L 426.144733 245.868048 
L 424.001877 248.335714 
z
M 433.898927 243.760336 
L 438.475586 239.00595 
L 433.898927 237.253636 
L 431.43413 239.00595 
z
M 443.795978 234.212118 
L 445.917427 232.143852 
L 443.795978 231.118322 
L 442.343511 232.143852 
z
" clip-path="url(#pa40ccc1897)" style="fill: #3282be"/>
    <path d="M 325.031374 321.659786 
L 325.487111 321.351125 
L 325.031374 321.016418 
L 324.626418 321.351125 
z
M 334.928424 315.86439 
L 336.916342 314.489027 
L 334.928424 312.744624 
L 332.847188 314.489027 
z
M 334.589046 314.489027 
L 334.928424 314.204574 
L 335.252586 314.489027 
L 334.928424 314.713302 
z
M 344.825475 309.637295 
L 347.684527 307.626929 
L 344.825475 304.597169 
L 341.264853 307.626929 
z
M 343.072477 307.626929 
L 344.825475 306.13529 
L 346.233069 307.626929 
L 344.825475 308.616691 
z
M 354.722525 303.100151 
L 358.003176 300.764831 
L 354.722525 296.47499 
L 349.76415 300.764831 
z
M 351.746304 300.764831 
L 354.722525 298.189891 
L 356.691707 300.764831 
L 354.722525 302.166587 
z
M 364.619575 296.325451 
L 367.99192 293.902733 
L 364.619575 288.253169 
L 358.212856 293.902733 
z
M 360.53983 293.902733 
L 364.619575 290.305138 
L 366.767056 293.902733 
L 364.619575 295.4455 
z
M 374.516626 289.353964 
L 377.715339 287.040635 
L 384.413676 282.203888 
L 387.201354 280.178537 
L 394.310726 274.875108 
L 396.449833 273.316439 
L 404.207776 267.350122 
L 405.435234 266.454341 
L 414.104399 259.592243 
L 404.207776 258.541347 
L 402.744083 259.592243 
L 394.310726 265.502432 
L 392.986573 266.454341 
L 384.413676 272.65675 
L 383.496614 273.316439 
L 374.516626 280.017702 
L 374.293081 280.178537 
L 366.391805 287.040635 
z
M 369.390948 287.040635 
L 374.516626 282.411611 
L 376.534587 287.040635 
L 374.516626 288.500037 
z
M 378.225646 280.178537 
L 384.413676 274.382746 
L 386.027842 280.178537 
L 384.413676 281.351289 
z
M 386.836938 273.316439 
L 394.207314 266.454341 
L 394.310726 266.38 
L 401.588103 266.454341 
L 395.248422 273.316439 
L 394.310726 273.999695 
z
M 403.996301 259.592243 
L 404.207776 259.440409 
L 405.637649 259.592243 
L 404.207776 265.404782 
z
M 414.104827 259.591896 
L 418.896674 252.730145 
L 414.104827 251.78004 
L 412.778789 252.730145 
z
M 424.001877 248.335714 
L 426.144733 245.868048 
L 424.001877 245.248005 
L 423.133779 245.868048 
z
" clip-path="url(#pa40ccc1897)" style="fill: #1764ab"/>
    <path d="M 334.928424 314.713302 
L 335.252586 314.489027 
L 334.928424 314.204574 
L 334.589046 314.489027 
z
M 344.825475 308.616691 
L 346.233069 307.626929 
L 344.825475 306.13529 
L 343.072477 307.626929 
z
M 354.722525 302.166587 
L 356.691707 300.764831 
L 354.722525 298.189891 
L 351.746304 300.764831 
z
M 353.668556 300.764831 
L 354.722525 299.852968 
L 355.419871 300.764831 
L 354.722525 301.261235 
z
M 364.619575 295.4455 
L 366.767056 293.902733 
L 364.619575 290.305138 
L 360.53983 293.902733 
z
M 362.796482 293.902733 
L 364.619575 292.295096 
L 365.579208 293.902733 
L 364.619575 294.59214 
z
M 374.516626 288.500037 
L 376.534587 287.040635 
L 374.516626 282.411611 
L 369.390948 287.040635 
z
M 372.299457 287.040635 
L 374.516626 285.038299 
L 375.389517 287.040635 
L 374.516626 287.671916 
z
M 384.413676 281.351289 
L 386.027842 280.178537 
L 384.413676 274.382746 
L 378.225646 280.178537 
z
M 382.588439 280.178537 
L 384.413676 278.468996 
L 384.889794 280.178537 
L 384.413676 280.524455 
z
M 394.310726 273.999695 
L 395.248422 273.316439 
L 401.588103 266.454341 
L 394.310726 266.38 
L 394.207314 266.454341 
L 386.836938 273.316439 
z
M 404.207776 265.404782 
L 405.637649 259.592243 
L 404.207776 259.440409 
L 403.996301 259.592243 
z
" clip-path="url(#pa40ccc1897)" style="fill: #084e98"/>
    <path d="M 354.722525 301.261235 
L 355.419871 300.764831 
L 354.722525 299.852968 
L 353.668556 300.764831 
z
M 364.619575 294.59214 
L 365.579208 293.902733 
L 364.619575 292.295096 
L 362.796482 293.902733 
z
M 374.516626 287.671916 
L 375.389517 287.040635 
L 374.516626 285.038299 
L 372.299457 287.040635 
z
M 384.413676 280.524455 
L 384.889794 280.178537 
L 384.413676 278.468996 
L 382.588439 280.178537 
z
" clip-path="url(#pa40ccc1897)" style="fill: #083877"/>
   </g>
   <g id="matplotlib.axis_1">
    <g id="xtick_1">
     <g id="line2d_1">
      <defs>
       <path id="m1ac2b4bdc3" d="M 0 0 
L 0 3.5 
" style="stroke: #000000; stroke-width: 0.8"/>
      </defs>
      <g>
       <use xlink:href="#m1ac2b4bdc3" x="102.17" y="499.48" style="stroke: #000000; stroke-width: 0.8"/>
      </g>
     </g>
     <g id="text_1">
      <!-- −80 -->
      <g transform="translate(78.954844 523.196563) scale(0.22 -0.22)">
       <defs>
        <path id="DejaVuSans-2212" d="M 678 2272 
L 4684 2272 
L 4684 1741 
L 678 1741 
L 678 2272 
z
" transform="scale(0.015625)"/>
        <path id="DejaVuSans-38" d="M 2034 2216 
Q 1584 2216 1326 1975 
Q 1069 1734 1069 1313 
Q 1069 891 1326 650 
Q 1584 409 2034 409 
Q 2484 409 2743 651 
Q 3003 894 3003 1313 
Q 3003 1734 2745 1975 
Q 2488 2216 2034 2216 
z
M 1403 2484 
Q 997 2584 770 2862 
Q 544 3141 544 3541 
Q 544 4100 942 4425 
Q 1341 4750 2034 4750 
Q 2731 4750 3128 4425 
Q 3525 4100 3525 3541 
Q 3525 3141 3298 2862 
Q 3072 2584 2669 2484 
Q 3125 2378 3379 2068 
Q 3634 1759 3634 1313 
Q 3634 634 3220 271 
Q 2806 -91 2034 -91 
Q 1263 -91 848 271 
Q 434 634 434 1313 
Q 434 1759 690 2068 
Q 947 2378 1403 2484 
z
M 1172 3481 
Q 1172 3119 1398 2916 
Q 1625 2713 2034 2713 
Q 2441 2713 2670 2916 
Q 2900 3119 2900 3481 
Q 2900 3844 2670 4047 
Q 2441 4250 2034 4250 
Q 1625 4250 1398 4047 
Q 1172 3844 1172 3481 
z
" transform="scale(0.015625)"/>
        <path id="DejaVuSans-30" d="M 2034 4250 
Q 1547 4250 1301 3770 
Q 1056 3291 1056 2328 
Q 1056 1369 1301 889 
Q 1547 409 2034 409 
Q 2525 409 2770 889 
Q 3016 1369 3016 2328 
Q 3016 3291 2770 3770 
Q 2525 4250 2034 4250 
z
M 2034 4750 
Q 2819 4750 3233 4129 
Q 3647 3509 3647 2328 
Q 3647 1150 3233 529 
Q 2819 -91 2034 -91 
Q 1250 -91 836 529 
Q 422 1150 422 2328 
Q 422 3509 836 4129 
Q 1250 4750 2034 4750 
z
" transform="scale(0.015625)"/>
       </defs>
       <use xlink:href="#DejaVuSans-2212"/>
       <use xlink:href="#DejaVuSans-38" x="83.789062"/>
       <use xlink:href="#DejaVuSans-30" x="147.412109"/>
      </g>
     </g>
    </g>
    <g id="xtick_2">
     <g id="line2d_2">
      <g>
       <use xlink:href="#m1ac2b4bdc3" x="174.67375" y="499.48" style="stroke: #000000; stroke-width: 0.8"/>
      </g>
     </g>
     <g id="text_2">
      <!-- −60 -->
      <g transform="translate(151.458594 523.196563) scale(0.22 -0.22)">
       <defs>
        <path id="DejaVuSans-36" d="M 2113 2584 
Q 1688 2584 1439 2293 
Q 1191 2003 1191 1497 
Q 1191 994 1439 701 
Q 1688 409 2113 409 
Q 2538 409 2786 701 
Q 3034 994 3034 1497 
Q 3034 2003 2786 2293 
Q 2538 2584 2113 2584 
z
M 3366 4563 
L 3366 3988 
Q 3128 4100 2886 4159 
Q 2644 4219 2406 4219 
Q 1781 4219 1451 3797 
Q 1122 3375 1075 2522 
Q 1259 2794 1537 2939 
Q 1816 3084 2150 3084 
Q 2853 3084 3261 2657 
Q 3669 2231 3669 1497 
Q 3669 778 3244 343 
Q 2819 -91 2113 -91 
Q 1303 -91 875 529 
Q 447 1150 447 2328 
Q 447 3434 972 4092 
Q 1497 4750 2381 4750 
Q 2619 4750 2861 4703 
Q 3103 4656 3366 4563 
z
" transform="scale(0.015625)"/>
       </defs>
       <use xlink:href="#DejaVuSans-2212"/>
       <use xlink:href="#DejaVuSans-36" x="83.789062"/>
       <use xlink:href="#DejaVuSans-30" x="147.412109"/>
      </g>
     </g>
    </g>
    <g id="xtick_3">
     <g id="line2d_3">
      <g>
       <use xlink:href="#m1ac2b4bdc3" x="247.1775" y="499.48" style="stroke: #000000; stroke-width: 0.8"/>
      </g>
     </g>
     <g id="text_3">
      <!-- −40 -->
      <g transform="translate(223.962344 523.196563) scale(0.22 -0.22)">
       <defs>
        <path id="DejaVuSans-34" d="M 2419 4116 
L 825 1625 
L 2419 1625 
L 2419 4116 
z
M 2253 4666 
L 3047 4666 
L 3047 1625 
L 3713 1625 
L 3713 1100 
L 3047 1100 
L 3047 0 
L 2419 0 
L 2419 1100 
L 313 1100 
L 313 1709 
L 2253 4666 
z
" transform="scale(0.015625)"/>
       </defs>
       <use xlink:href="#DejaVuSans-2212"/>
       <use xlink:href="#DejaVuSans-34" x="83.789062"/>
       <use xlink:href="#DejaVuSans-30" x="147.412109"/>
      </g>
     </g>
    </g>
    <g id="xtick_4">
     <g id="line2d_4">
      <g>
       <use xlink:href="#m1ac2b4bdc3" x="319.68125" y="499.48" style="stroke: #000000; stroke-width: 0.8"/>
      </g>
     </g>
     <g id="text_4">
      <!-- −20 -->
      <g transform="translate(296.466094 523.196563) scale(0.22 -0.22)">
       <defs>
        <path id="DejaVuSans-32" d="M 1228 531 
L 3431 531 
L 3431 0 
L 469 0 
L 469 531 
Q 828 903 1448 1529 
Q 2069 2156 2228 2338 
Q 2531 2678 2651 2914 
Q 2772 3150 2772 3378 
Q 2772 3750 2511 3984 
Q 2250 4219 1831 4219 
Q 1534 4219 1204 4116 
Q 875 4013 500 3803 
L 500 4441 
Q 881 4594 1212 4672 
Q 1544 4750 1819 4750 
Q 2544 4750 2975 4387 
Q 3406 4025 3406 3419 
Q 3406 3131 3298 2873 
Q 3191 2616 2906 2266 
Q 2828 2175 2409 1742 
Q 1991 1309 1228 531 
z
" transform="scale(0.015625)"/>
       </defs>
       <use xlink:href="#DejaVuSans-2212"/>
       <use xlink:href="#DejaVuSans-32" x="83.789062"/>
       <use xlink:href="#DejaVuSans-30" x="147.412109"/>
      </g>
     </g>
    </g>
    <g id="xtick_5">
     <g id="line2d_5">
      <g>
       <use xlink:href="#m1ac2b4bdc3" x="392.185" y="499.48" style="stroke: #000000; stroke-width: 0.8"/>
      </g>
     </g>
     <g id="text_5">
      <!-- 0 -->
      <g transform="translate(385.18625 523.196563) scale(0.22 -0.22)">
       <use xlink:href="#DejaVuSans-30"/>
      </g>
     </g>
    </g>
    <g id="xtick_6">
     <g id="line2d_6">
      <g>
       <use xlink:href="#m1ac2b4bdc3" x="464.68875" y="499.48" style="stroke: #000000; stroke-width: 0.8"/>
      </g>
     </g>
     <g id="text_6">
      <!-- 20 -->
      <g transform="translate(450.69125 523.196563) scale(0.22 -0.22)">
       <use xlink:href="#DejaVuSans-32"/>
       <use xlink:href="#DejaVuSans-30" x="63.623047"/>
      </g>
     </g>
    </g>
    <g id="xtick_7">
     <g id="line2d_7">
      <g>
       <use xlink:href="#m1ac2b4bdc3" x="537.1925" y="499.48" style="stroke: #000000; stroke-width: 0.8"/>
      </g>
     </g>
     <g id="text_7">
      <!-- 40 -->
      <g transform="translate(523.195 523.196563) scale(0.22 -0.22)">
       <use xlink:href="#DejaVuSans-34"/>
       <use xlink:href="#DejaVuSans-30" x="63.623047"/>
      </g>
     </g>
    </g>
    <g id="xtick_8">
     <g id="line2d_8">
      <g>
       <use xlink:href="#m1ac2b4bdc3" x="609.69625" y="499.48" style="stroke: #000000; stroke-width: 0.8"/>
      </g>
     </g>
     <g id="text_8">
      <!-- 60 -->
      <g transform="translate(595.69875 523.196563) scale(0.22 -0.22)">
       <use xlink:href="#DejaVuSans-36"/>
       <use xlink:href="#DejaVuSans-30" x="63.623047"/>
      </g>
     </g>
    </g>
    <g id="xtick_9">
     <g id="line2d_9">
      <g>
       <use xlink:href="#m1ac2b4bdc3" x="682.2" y="499.48" style="stroke: #000000; stroke-width: 0.8"/>
      </g>
     </g>
     <g id="text_9">
      <!-- 80 -->
      <g transform="translate(668.2025 523.196563) scale(0.22 -0.22)">
       <use xlink:href="#DejaVuSans-38"/>
       <use xlink:href="#DejaVuSans-30" x="63.623047"/>
      </g>
     </g>
    </g>
    <g id="text_10">
     <!-- Ground Truth Energy [kJ/mol] -->
     <g transform="translate(232.45125 548.488438) scale(0.22 -0.22)">
      <defs>
       <path id="DejaVuSans-47" d="M 3809 666 
L 3809 1919 
L 2778 1919 
L 2778 2438 
L 4434 2438 
L 4434 434 
Q 4069 175 3628 42 
Q 3188 -91 2688 -91 
Q 1594 -91 976 548 
Q 359 1188 359 2328 
Q 359 3472 976 4111 
Q 1594 4750 2688 4750 
Q 3144 4750 3555 4637 
Q 3966 4525 4313 4306 
L 4313 3634 
Q 3963 3931 3569 4081 
Q 3175 4231 2741 4231 
Q 1884 4231 1454 3753 
Q 1025 3275 1025 2328 
Q 1025 1384 1454 906 
Q 1884 428 2741 428 
Q 3075 428 3337 486 
Q 3600 544 3809 666 
z
" transform="scale(0.015625)"/>
       <path id="DejaVuSans-72" d="M 2631 2963 
Q 2534 3019 2420 3045 
Q 2306 3072 2169 3072 
Q 1681 3072 1420 2755 
Q 1159 2438 1159 1844 
L 1159 0 
L 581 0 
L 581 3500 
L 1159 3500 
L 1159 2956 
Q 1341 3275 1631 3429 
Q 1922 3584 2338 3584 
Q 2397 3584 2469 3576 
Q 2541 3569 2628 3553 
L 2631 2963 
z
" transform="scale(0.015625)"/>
       <path id="DejaVuSans-6f" d="M 1959 3097 
Q 1497 3097 1228 2736 
Q 959 2375 959 1747 
Q 959 1119 1226 758 
Q 1494 397 1959 397 
Q 2419 397 2687 759 
Q 2956 1122 2956 1747 
Q 2956 2369 2687 2733 
Q 2419 3097 1959 3097 
z
M 1959 3584 
Q 2709 3584 3137 3096 
Q 3566 2609 3566 1747 
Q 3566 888 3137 398 
Q 2709 -91 1959 -91 
Q 1206 -91 779 398 
Q 353 888 353 1747 
Q 353 2609 779 3096 
Q 1206 3584 1959 3584 
z
" transform="scale(0.015625)"/>
       <path id="DejaVuSans-75" d="M 544 1381 
L 544 3500 
L 1119 3500 
L 1119 1403 
Q 1119 906 1312 657 
Q 1506 409 1894 409 
Q 2359 409 2629 706 
Q 2900 1003 2900 1516 
L 2900 3500 
L 3475 3500 
L 3475 0 
L 2900 0 
L 2900 538 
Q 2691 219 2414 64 
Q 2138 -91 1772 -91 
Q 1169 -91 856 284 
Q 544 659 544 1381 
z
M 1991 3584 
L 1991 3584 
z
" transform="scale(0.015625)"/>
       <path id="DejaVuSans-6e" d="M 3513 2113 
L 3513 0 
L 2938 0 
L 2938 2094 
Q 2938 2591 2744 2837 
Q 2550 3084 2163 3084 
Q 1697 3084 1428 2787 
Q 1159 2491 1159 1978 
L 1159 0 
L 581 0 
L 581 3500 
L 1159 3500 
L 1159 2956 
Q 1366 3272 1645 3428 
Q 1925 3584 2291 3584 
Q 2894 3584 3203 3211 
Q 3513 2838 3513 2113 
z
" transform="scale(0.015625)"/>
       <path id="DejaVuSans-64" d="M 2906 2969 
L 2906 4863 
L 3481 4863 
L 3481 0 
L 2906 0 
L 2906 525 
Q 2725 213 2448 61 
Q 2172 -91 1784 -91 
Q 1150 -91 751 415 
Q 353 922 353 1747 
Q 353 2572 751 3078 
Q 1150 3584 1784 3584 
Q 2172 3584 2448 3432 
Q 2725 3281 2906 2969 
z
M 947 1747 
Q 947 1113 1208 752 
Q 1469 391 1925 391 
Q 2381 391 2643 752 
Q 2906 1113 2906 1747 
Q 2906 2381 2643 2742 
Q 2381 3103 1925 3103 
Q 1469 3103 1208 2742 
Q 947 2381 947 1747 
z
" transform="scale(0.015625)"/>
       <path id="DejaVuSans-20" transform="scale(0.015625)"/>
       <path id="DejaVuSans-54" d="M -19 4666 
L 3928 4666 
L 3928 4134 
L 2272 4134 
L 2272 0 
L 1638 0 
L 1638 4134 
L -19 4134 
L -19 4666 
z
" transform="scale(0.015625)"/>
       <path id="DejaVuSans-74" d="M 1172 4494 
L 1172 3500 
L 2356 3500 
L 2356 3053 
L 1172 3053 
L 1172 1153 
Q 1172 725 1289 603 
Q 1406 481 1766 481 
L 2356 481 
L 2356 0 
L 1766 0 
Q 1100 0 847 248 
Q 594 497 594 1153 
L 594 3053 
L 172 3053 
L 172 3500 
L 594 3500 
L 594 4494 
L 1172 4494 
z
" transform="scale(0.015625)"/>
       <path id="DejaVuSans-68" d="M 3513 2113 
L 3513 0 
L 2938 0 
L 2938 2094 
Q 2938 2591 2744 2837 
Q 2550 3084 2163 3084 
Q 1697 3084 1428 2787 
Q 1159 2491 1159 1978 
L 1159 0 
L 581 0 
L 581 4863 
L 1159 4863 
L 1159 2956 
Q 1366 3272 1645 3428 
Q 1925 3584 2291 3584 
Q 2894 3584 3203 3211 
Q 3513 2838 3513 2113 
z
" transform="scale(0.015625)"/>
       <path id="DejaVuSans-45" d="M 628 4666 
L 3578 4666 
L 3578 4134 
L 1259 4134 
L 1259 2753 
L 3481 2753 
L 3481 2222 
L 1259 2222 
L 1259 531 
L 3634 531 
L 3634 0 
L 628 0 
L 628 4666 
z
" transform="scale(0.015625)"/>
       <path id="DejaVuSans-65" d="M 3597 1894 
L 3597 1613 
L 953 1613 
Q 991 1019 1311 708 
Q 1631 397 2203 397 
Q 2534 397 2845 478 
Q 3156 559 3463 722 
L 3463 178 
Q 3153 47 2828 -22 
Q 2503 -91 2169 -91 
Q 1331 -91 842 396 
Q 353 884 353 1716 
Q 353 2575 817 3079 
Q 1281 3584 2069 3584 
Q 2775 3584 3186 3129 
Q 3597 2675 3597 1894 
z
M 3022 2063 
Q 3016 2534 2758 2815 
Q 2500 3097 2075 3097 
Q 1594 3097 1305 2825 
Q 1016 2553 972 2059 
L 3022 2063 
z
" transform="scale(0.015625)"/>
       <path id="DejaVuSans-67" d="M 2906 1791 
Q 2906 2416 2648 2759 
Q 2391 3103 1925 3103 
Q 1463 3103 1205 2759 
Q 947 2416 947 1791 
Q 947 1169 1205 825 
Q 1463 481 1925 481 
Q 2391 481 2648 825 
Q 2906 1169 2906 1791 
z
M 3481 434 
Q 3481 -459 3084 -895 
Q 2688 -1331 1869 -1331 
Q 1566 -1331 1297 -1286 
Q 1028 -1241 775 -1147 
L 775 -588 
Q 1028 -725 1275 -790 
Q 1522 -856 1778 -856 
Q 2344 -856 2625 -561 
Q 2906 -266 2906 331 
L 2906 616 
Q 2728 306 2450 153 
Q 2172 0 1784 0 
Q 1141 0 747 490 
Q 353 981 353 1791 
Q 353 2603 747 3093 
Q 1141 3584 1784 3584 
Q 2172 3584 2450 3431 
Q 2728 3278 2906 2969 
L 2906 3500 
L 3481 3500 
L 3481 434 
z
" transform="scale(0.015625)"/>
       <path id="DejaVuSans-79" d="M 2059 -325 
Q 1816 -950 1584 -1140 
Q 1353 -1331 966 -1331 
L 506 -1331 
L 506 -850 
L 844 -850 
Q 1081 -850 1212 -737 
Q 1344 -625 1503 -206 
L 1606 56 
L 191 3500 
L 800 3500 
L 1894 763 
L 2988 3500 
L 3597 3500 
L 2059 -325 
z
" transform="scale(0.015625)"/>
       <path id="DejaVuSans-5b" d="M 550 4863 
L 1875 4863 
L 1875 4416 
L 1125 4416 
L 1125 -397 
L 1875 -397 
L 1875 -844 
L 550 -844 
L 550 4863 
z
" transform="scale(0.015625)"/>
       <path id="DejaVuSans-6b" d="M 581 4863 
L 1159 4863 
L 1159 1991 
L 2875 3500 
L 3609 3500 
L 1753 1863 
L 3688 0 
L 2938 0 
L 1159 1709 
L 1159 0 
L 581 0 
L 581 4863 
z
" transform="scale(0.015625)"/>
       <path id="DejaVuSans-4a" d="M 628 4666 
L 1259 4666 
L 1259 325 
Q 1259 -519 939 -900 
Q 619 -1281 -91 -1281 
L -331 -1281 
L -331 -750 
L -134 -750 
Q 284 -750 456 -515 
Q 628 -281 628 325 
L 628 4666 
z
" transform="scale(0.015625)"/>
       <path id="DejaVuSans-2f" d="M 1625 4666 
L 2156 4666 
L 531 -594 
L 0 -594 
L 1625 4666 
z
" transform="scale(0.015625)"/>
       <path id="DejaVuSans-6d" d="M 3328 2828 
Q 3544 3216 3844 3400 
Q 4144 3584 4550 3584 
Q 5097 3584 5394 3201 
Q 5691 2819 5691 2113 
L 5691 0 
L 5113 0 
L 5113 2094 
Q 5113 2597 4934 2840 
Q 4756 3084 4391 3084 
Q 3944 3084 3684 2787 
Q 3425 2491 3425 1978 
L 3425 0 
L 2847 0 
L 2847 2094 
Q 2847 2600 2669 2842 
Q 2491 3084 2119 3084 
Q 1678 3084 1418 2786 
Q 1159 2488 1159 1978 
L 1159 0 
L 581 0 
L 581 3500 
L 1159 3500 
L 1159 2956 
Q 1356 3278 1631 3431 
Q 1906 3584 2284 3584 
Q 2666 3584 2933 3390 
Q 3200 3197 3328 2828 
z
" transform="scale(0.015625)"/>
       <path id="DejaVuSans-6c" d="M 603 4863 
L 1178 4863 
L 1178 0 
L 603 0 
L 603 4863 
z
" transform="scale(0.015625)"/>
       <path id="DejaVuSans-5d" d="M 1947 4863 
L 1947 -844 
L 622 -844 
L 622 -397 
L 1369 -397 
L 1369 4416 
L 622 4416 
L 622 4863 
L 1947 4863 
z
" transform="scale(0.015625)"/>
      </defs>
      <use xlink:href="#DejaVuSans-47"/>
      <use xlink:href="#DejaVuSans-72" x="77.490234"/>
      <use xlink:href="#DejaVuSans-6f" x="116.353516"/>
      <use xlink:href="#DejaVuSans-75" x="177.535156"/>
      <use xlink:href="#DejaVuSans-6e" x="240.914062"/>
      <use xlink:href="#DejaVuSans-64" x="304.292969"/>
      <use xlink:href="#DejaVuSans-20" x="367.769531"/>
      <use xlink:href="#DejaVuSans-54" x="399.556641"/>
      <use xlink:href="#DejaVuSans-72" x="445.890625"/>
      <use xlink:href="#DejaVuSans-75" x="487.003906"/>
      <use xlink:href="#DejaVuSans-74" x="550.382812"/>
      <use xlink:href="#DejaVuSans-68" x="589.591797"/>
      <use xlink:href="#DejaVuSans-20" x="652.970703"/>
      <use xlink:href="#DejaVuSans-45" x="684.757812"/>
      <use xlink:href="#DejaVuSans-6e" x="747.941406"/>
      <use xlink:href="#DejaVuSans-65" x="811.320312"/>
      <use xlink:href="#DejaVuSans-72" x="872.84375"/>
      <use xlink:href="#DejaVuSans-67" x="912.207031"/>
      <use xlink:href="#DejaVuSans-79" x="975.683594"/>
      <use xlink:href="#DejaVuSans-20" x="1034.863281"/>
      <use xlink:href="#DejaVuSans-5b" x="1066.650391"/>
      <use xlink:href="#DejaVuSans-6b" x="1105.664062"/>
      <use xlink:href="#DejaVuSans-4a" x="1163.574219"/>
      <use xlink:href="#DejaVuSans-2f" x="1193.066406"/>
      <use xlink:href="#DejaVuSans-6d" x="1226.757812"/>
      <use xlink:href="#DejaVuSans-6f" x="1324.169922"/>
      <use xlink:href="#DejaVuSans-6c" x="1385.351562"/>
      <use xlink:href="#DejaVuSans-5d" x="1413.134766"/>
     </g>
    </g>
   </g>
   <g id="matplotlib.axis_2">
    <g id="ytick_1">
     <g id="line2d_10">
      <defs>
       <path id="m1f38559a20" d="M 0 0 
L -3.5 0 
" style="stroke: #000000; stroke-width: 0.8"/>
      </defs>
      <g>
       <use xlink:href="#m1f38559a20" x="102.17" y="499.48" style="stroke: #000000; stroke-width: 0.8"/>
      </g>
     </g>
     <g id="text_11">
      <!-- −80 -->
      <g transform="translate(48.739688 507.838281) scale(0.22 -0.22)">
       <use xlink:href="#DejaVuSans-2212"/>
       <use xlink:href="#DejaVuSans-38" x="83.789062"/>
       <use xlink:href="#DejaVuSans-30" x="147.412109"/>
      </g>
     </g>
    </g>
    <g id="ytick_2">
     <g id="line2d_11">
      <g>
       <use xlink:href="#m1f38559a20" x="102.17" y="441.05" style="stroke: #000000; stroke-width: 0.8"/>
      </g>
     </g>
     <g id="text_12">
      <!-- −60 -->
      <g transform="translate(48.739688 449.408281) scale(0.22 -0.22)">
       <use xlink:href="#DejaVuSans-2212"/>
       <use xlink:href="#DejaVuSans-36" x="83.789062"/>
       <use xlink:href="#DejaVuSans-30" x="147.412109"/>
      </g>
     </g>
    </g>
    <g id="ytick_3">
     <g id="line2d_12">
      <g>
       <use xlink:href="#m1f38559a20" x="102.17" y="382.62" style="stroke: #000000; stroke-width: 0.8"/>
      </g>
     </g>
     <g id="text_13">
      <!-- −40 -->
      <g transform="translate(48.739688 390.978281) scale(0.22 -0.22)">
       <use xlink:href="#DejaVuSans-2212"/>
       <use xlink:href="#DejaVuSans-34" x="83.789062"/>
       <use xlink:href="#DejaVuSans-30" x="147.412109"/>
      </g>
     </g>
    </g>
    <g id="ytick_4">
     <g id="line2d_13">
      <g>
       <use xlink:href="#m1f38559a20" x="102.17" y="324.19" style="stroke: #000000; stroke-width: 0.8"/>
      </g>
     </g>
     <g id="text_14">
      <!-- −20 -->
      <g transform="translate(48.739688 332.548281) scale(0.22 -0.22)">
       <use xlink:href="#DejaVuSans-2212"/>
       <use xlink:href="#DejaVuSans-32" x="83.789062"/>
       <use xlink:href="#DejaVuSans-30" x="147.412109"/>
      </g>
     </g>
    </g>
    <g id="ytick_5">
     <g id="line2d_14">
      <g>
       <use xlink:href="#m1f38559a20" x="102.17" y="265.76" style="stroke: #000000; stroke-width: 0.8"/>
      </g>
     </g>
     <g id="text_15">
      <!-- 0 -->
      <g transform="translate(81.1725 274.118281) scale(0.22 -0.22)">
       <use xlink:href="#DejaVuSans-30"/>
      </g>
     </g>
    </g>
    <g id="ytick_6">
     <g id="line2d_15">
      <g>
       <use xlink:href="#m1f38559a20" x="102.17" y="207.33" style="stroke: #000000; stroke-width: 0.8"/>
      </g>
     </g>
     <g id="text_16">
      <!-- 20 -->
      <g transform="translate(67.175 215.688281) scale(0.22 -0.22)">
       <use xlink:href="#DejaVuSans-32"/>
       <use xlink:href="#DejaVuSans-30" x="63.623047"/>
      </g>
     </g>
    </g>
    <g id="ytick_7">
     <g id="line2d_16">
      <g>
       <use xlink:href="#m1f38559a20" x="102.17" y="148.9" style="stroke: #000000; stroke-width: 0.8"/>
      </g>
     </g>
     <g id="text_17">
      <!-- 40 -->
      <g transform="translate(67.175 157.258281) scale(0.22 -0.22)">
       <use xlink:href="#DejaVuSans-34"/>
       <use xlink:href="#DejaVuSans-30" x="63.623047"/>
      </g>
     </g>
    </g>
    <g id="ytick_8">
     <g id="line2d_17">
      <g>
       <use xlink:href="#m1f38559a20" x="102.17" y="90.47" style="stroke: #000000; stroke-width: 0.8"/>
      </g>
     </g>
     <g id="text_18">
      <!-- 60 -->
      <g transform="translate(67.175 98.828281) scale(0.22 -0.22)">
       <use xlink:href="#DejaVuSans-36"/>
       <use xlink:href="#DejaVuSans-30" x="63.623047"/>
      </g>
     </g>
    </g>
    <g id="ytick_9">
     <g id="line2d_18">
      <g>
       <use xlink:href="#m1f38559a20" x="102.17" y="32.04" style="stroke: #000000; stroke-width: 0.8"/>
      </g>
     </g>
     <g id="text_19">
      <!-- 80 -->
      <g transform="translate(67.175 40.398281) scale(0.22 -0.22)">
       <use xlink:href="#DejaVuSans-38"/>
       <use xlink:href="#DejaVuSans-30" x="63.623047"/>
      </g>
     </g>
    </g>
    <g id="text_20">
     <!-- Predicted Energy [kJ/mol] -->
     <g transform="translate(40.164375 405.305313) rotate(-90) scale(0.22 -0.22)">
      <defs>
       <path id="DejaVuSans-50" d="M 1259 4147 
L 1259 2394 
L 2053 2394 
Q 2494 2394 2734 2622 
Q 2975 2850 2975 3272 
Q 2975 3691 2734 3919 
Q 2494 4147 2053 4147 
L 1259 4147 
z
M 628 4666 
L 2053 4666 
Q 2838 4666 3239 4311 
Q 3641 3956 3641 3272 
Q 3641 2581 3239 2228 
Q 2838 1875 2053 1875 
L 1259 1875 
L 1259 0 
L 628 0 
L 628 4666 
z
" transform="scale(0.015625)"/>
       <path id="DejaVuSans-69" d="M 603 3500 
L 1178 3500 
L 1178 0 
L 603 0 
L 603 3500 
z
M 603 4863 
L 1178 4863 
L 1178 4134 
L 603 4134 
L 603 4863 
z
" transform="scale(0.015625)"/>
       <path id="DejaVuSans-63" d="M 3122 3366 
L 3122 2828 
Q 2878 2963 2633 3030 
Q 2388 3097 2138 3097 
Q 1578 3097 1268 2742 
Q 959 2388 959 1747 
Q 959 1106 1268 751 
Q 1578 397 2138 397 
Q 2388 397 2633 464 
Q 2878 531 3122 666 
L 3122 134 
Q 2881 22 2623 -34 
Q 2366 -91 2075 -91 
Q 1284 -91 818 406 
Q 353 903 353 1747 
Q 353 2603 823 3093 
Q 1294 3584 2113 3584 
Q 2378 3584 2631 3529 
Q 2884 3475 3122 3366 
z
" transform="scale(0.015625)"/>
      </defs>
      <use xlink:href="#DejaVuSans-50"/>
      <use xlink:href="#DejaVuSans-72" x="58.552734"/>
      <use xlink:href="#DejaVuSans-65" x="97.416016"/>
      <use xlink:href="#DejaVuSans-64" x="158.939453"/>
      <use xlink:href="#DejaVuSans-69" x="222.416016"/>
      <use xlink:href="#DejaVuSans-63" x="250.199219"/>
      <use xlink:href="#DejaVuSans-74" x="305.179688"/>
      <use xlink:href="#DejaVuSans-65" x="344.388672"/>
      <use xlink:href="#DejaVuSans-64" x="405.912109"/>
      <use xlink:href="#DejaVuSans-20" x="469.388672"/>
      <use xlink:href="#DejaVuSans-45" x="501.175781"/>
      <use xlink:href="#DejaVuSans-6e" x="564.359375"/>
      <use xlink:href="#DejaVuSans-65" x="627.738281"/>
      <use xlink:href="#DejaVuSans-72" x="689.261719"/>
      <use xlink:href="#DejaVuSans-67" x="728.625"/>
      <use xlink:href="#DejaVuSans-79" x="792.101562"/>
      <use xlink:href="#DejaVuSans-20" x="851.28125"/>
      <use xlink:href="#DejaVuSans-5b" x="883.068359"/>
      <use xlink:href="#DejaVuSans-6b" x="922.082031"/>
      <use xlink:href="#DejaVuSans-4a" x="979.992188"/>
      <use xlink:href="#DejaVuSans-2f" x="1009.484375"/>
      <use xlink:href="#DejaVuSans-6d" x="1043.175781"/>
      <use xlink:href="#DejaVuSans-6f" x="1140.587891"/>
      <use xlink:href="#DejaVuSans-6c" x="1201.769531"/>
      <use xlink:href="#DejaVuSans-5d" x="1229.552734"/>
     </g>
    </g>
   </g>
   <g id="line2d_19">
    <path d="M 102.17 499.48 
L 682.2 32.04 
" clip-path="url(#pa40ccc1897)" style="fill: none; stroke-dasharray: 5.55,2.4; stroke-dashoffset: 0; stroke: #ff0000; stroke-width: 1.5"/>
   </g>
   <g id="patch_3">
    <path d="M 102.17 499.48 
L 102.17 32.04 
" style="fill: none; stroke: #000000; stroke-width: 0.8; stroke-linejoin: miter; stroke-linecap: square"/>
   </g>
   <g id="patch_4">
    <path d="M 682.2 499.48 
L 682.2 32.04 
" style="fill: none; stroke: #000000; stroke-width: 0.8; stroke-linejoin: miter; stroke-linecap: square"/>
   </g>
   <g id="patch_5">
    <path d="M 102.17 499.48 
L 682.2 499.48 
" style="fill: none; stroke: #000000; stroke-width: 0.8; stroke-linejoin: miter; stroke-linecap: square"/>
   </g>
   <g id="patch_6">
    <path d="M 102.17 32.04 
L 682.2 32.04 
" style="fill: none; stroke: #000000; stroke-width: 0.8; stroke-linejoin: miter; stroke-linecap: square"/>
   </g>
   <g id="text_21">
    <!-- R2 Score: 0.968 -->
    <g transform="translate(160.173 78.784) scale(0.22 -0.22)">
     <defs>
      <path id="DejaVuSans-52" d="M 2841 2188 
Q 3044 2119 3236 1894 
Q 3428 1669 3622 1275 
L 4263 0 
L 3584 0 
L 2988 1197 
Q 2756 1666 2539 1819 
Q 2322 1972 1947 1972 
L 1259 1972 
L 1259 0 
L 628 0 
L 628 4666 
L 2053 4666 
Q 2853 4666 3247 4331 
Q 3641 3997 3641 3322 
Q 3641 2881 3436 2590 
Q 3231 2300 2841 2188 
z
M 1259 4147 
L 1259 2491 
L 2053 2491 
Q 2509 2491 2742 2702 
Q 2975 2913 2975 3322 
Q 2975 3731 2742 3939 
Q 2509 4147 2053 4147 
L 1259 4147 
z
" transform="scale(0.015625)"/>
      <path id="DejaVuSans-53" d="M 3425 4513 
L 3425 3897 
Q 3066 4069 2747 4153 
Q 2428 4238 2131 4238 
Q 1616 4238 1336 4038 
Q 1056 3838 1056 3469 
Q 1056 3159 1242 3001 
Q 1428 2844 1947 2747 
L 2328 2669 
Q 3034 2534 3370 2195 
Q 3706 1856 3706 1288 
Q 3706 609 3251 259 
Q 2797 -91 1919 -91 
Q 1588 -91 1214 -16 
Q 841 59 441 206 
L 441 856 
Q 825 641 1194 531 
Q 1563 422 1919 422 
Q 2459 422 2753 634 
Q 3047 847 3047 1241 
Q 3047 1584 2836 1778 
Q 2625 1972 2144 2069 
L 1759 2144 
Q 1053 2284 737 2584 
Q 422 2884 422 3419 
Q 422 4038 858 4394 
Q 1294 4750 2059 4750 
Q 2388 4750 2728 4690 
Q 3069 4631 3425 4513 
z
" transform="scale(0.015625)"/>
      <path id="DejaVuSans-3a" d="M 750 794 
L 1409 794 
L 1409 0 
L 750 0 
L 750 794 
z
M 750 3309 
L 1409 3309 
L 1409 2516 
L 750 2516 
L 750 3309 
z
" transform="scale(0.015625)"/>
      <path id="DejaVuSans-2e" d="M 684 794 
L 1344 794 
L 1344 0 
L 684 0 
L 684 794 
z
" transform="scale(0.015625)"/>
      <path id="DejaVuSans-39" d="M 703 97 
L 703 672 
Q 941 559 1184 500 
Q 1428 441 1663 441 
Q 2288 441 2617 861 
Q 2947 1281 2994 2138 
Q 2813 1869 2534 1725 
Q 2256 1581 1919 1581 
Q 1219 1581 811 2004 
Q 403 2428 403 3163 
Q 403 3881 828 4315 
Q 1253 4750 1959 4750 
Q 2769 4750 3195 4129 
Q 3622 3509 3622 2328 
Q 3622 1225 3098 567 
Q 2575 -91 1691 -91 
Q 1453 -91 1209 -44 
Q 966 3 703 97 
z
M 1959 2075 
Q 2384 2075 2632 2365 
Q 2881 2656 2881 3163 
Q 2881 3666 2632 3958 
Q 2384 4250 1959 4250 
Q 1534 4250 1286 3958 
Q 1038 3666 1038 3163 
Q 1038 2656 1286 2365 
Q 1534 2075 1959 2075 
z
" transform="scale(0.015625)"/>
     </defs>
     <use xlink:href="#DejaVuSans-52"/>
     <use xlink:href="#DejaVuSans-32" x="69.482422"/>
     <use xlink:href="#DejaVuSans-20" x="133.105469"/>
     <use xlink:href="#DejaVuSans-53" x="164.892578"/>
     <use xlink:href="#DejaVuSans-63" x="228.369141"/>
     <use xlink:href="#DejaVuSans-6f" x="283.349609"/>
     <use xlink:href="#DejaVuSans-72" x="344.53125"/>
     <use xlink:href="#DejaVuSans-65" x="383.394531"/>
     <use xlink:href="#DejaVuSans-3a" x="444.917969"/>
     <use xlink:href="#DejaVuSans-20" x="478.609375"/>
     <use xlink:href="#DejaVuSans-30" x="510.396484"/>
     <use xlink:href="#DejaVuSans-2e" x="574.019531"/>
     <use xlink:href="#DejaVuSans-39" x="605.806641"/>
     <use xlink:href="#DejaVuSans-36" x="669.429688"/>
     <use xlink:href="#DejaVuSans-38" x="733.052734"/>
    </g>
   </g>
  </g>
 </g>
 <defs>
  <clipPath id="pa40ccc1897">
   <rect x="102.17" y="32.04" width="580.03" height="467.44"/>
  </clipPath>
 </defs>
</svg>
