<?xml version="1.0" encoding="utf-8" standalone="no"?>
<!DOCTYPE svg PUBLIC "-//W3C//DTD SVG 1.1//EN"
  "http://www.w3.org/Graphics/SVG/1.1/DTD/svg11.dtd">
<svg xmlns:xlink="http://www.w3.org/1999/xlink" width="720pt" height="576pt" viewBox="0 0 720 576" xmlns="http://www.w3.org/2000/svg" version="1.1">
 <metadata>
  <rdf:RDF xmlns:dc="http://purl.org/dc/elements/1.1/" xmlns:cc="http://creativecommons.org/ns#" xmlns:rdf="http://www.w3.org/1999/02/22-rdf-syntax-ns#">
   <cc:Work>
    <dc:type rdf:resource="http://purl.org/dc/dcmitype/StillImage"/>
    <dc:date>2024-12-07T14:22:43.690686</dc:date>
    <dc:format>image/svg+xml</dc:format>
    <dc:creator>
     <cc:Agent>
      <dc:title>Matplotlib v3.8.4, https://matplotlib.org/</dc:title>
     </cc:Agent>
    </dc:creator>
   </cc:Work>
  </rdf:RDF>
 </metadata>
 <defs>
  <style type="text/css">*{stroke-linejoin: round; stroke-linecap: butt}</style>
 </defs>
 <g id="figure_1">
  <g id="patch_1">
   <path d="M 0 576 
L 720 576 
L 720 0 
L 0 0 
z
" style="fill: #ffffff"/>
  </g>
  <g id="axes_1">
   <g id="patch_2">
    <path d="M 83.72 499.48 
L 696.24 499.48 
L 696.24 23.76 
L 83.72 23.76 
z
" style="fill: #ffffff"/>
   </g>
   <g id="QuadContourSet_1">
    <path d="M 83.182796 512.311071 
L 84.983633 512.478875 
L 86.78447 512.585654 
L 88.585308 512.608456 
L 90.386145 512.514009 
L 92.186982 512.276601 
L 93.127358 512.072807 
L 93.987819 511.953711 
L 95.788656 511.616225 
L 97.589494 511.184273 
L 99.390331 510.642369 
L 101.191168 509.963793 
L 102.497867 509.367303 
L 102.992005 509.216496 
L 104.792843 508.596577 
L 106.59368 507.82006 
L 108.394517 506.831593 
L 108.680196 506.661799 
L 110.195354 506.028572 
L 111.996191 505.111519 
L 113.797029 503.961228 
L 113.804809 503.956294 
L 115.597866 503.113375 
L 117.398703 502.091303 
L 118.733216 501.25079 
L 119.19954 501.021837 
L 121.000378 500.152464 
L 122.801215 499.183951 
L 123.985441 498.545286 
L 124.602052 498.274252 
L 126.402889 497.538459 
L 128.203726 496.790929 
L 130.004564 496.061858 
L 130.635681 495.839781 
L 131.805401 495.485447 
L 133.606238 494.951348 
L 135.407075 494.358129 
L 137.207913 493.645639 
L 138.221419 493.134277 
L 139.00875 492.773721 
L 140.809587 491.741192 
L 142.610424 490.477827 
L 142.668996 490.428773 
L 144.411261 489.083237 
L 145.929003 487.723268 
L 146.212099 487.476067 
L 148.012936 485.762644 
L 148.717881 485.017764 
L 149.813773 483.860897 
L 151.184854 482.31226 
L 151.61461 481.799433 
L 153.405798 479.606755 
L 153.415448 479.593479 
L 155.216285 477.161074 
L 155.408192 476.901251 
L 157.017122 474.418303 
L 157.166611 474.195747 
L 158.644816 471.490242 
L 158.817959 471.01383 
L 159.746555 468.784738 
L 160.240084 466.079234 
L 158.817959 463.486862 
L 158.573259 463.373729 
L 157.017122 462.972518 
L 155.216285 462.628481 
L 153.415448 461.921962 
L 151.857523 460.668225 
L 151.61461 460.438221 
L 149.813773 458.329214 
L 149.52009 457.962721 
L 148.012936 456.224176 
L 147.223037 455.257216 
L 146.212099 454.037004 
L 145.118274 452.551712 
L 144.411261 451.656205 
L 143.025271 449.846208 
L 142.610424 449.370898 
L 140.809587 447.516835 
L 140.337399 447.140704 
L 139.00875 446.207119 
L 137.207913 445.459483 
L 135.407075 445.134917 
L 133.606238 445.064376 
L 131.805401 445.118033 
L 130.004564 445.196353 
L 128.203726 445.213081 
L 126.402889 445.096601 
L 124.602052 444.828833 
L 122.801215 444.491128 
L 122.427185 444.435199 
L 121.000378 444.122752 
L 119.19954 443.992348 
L 117.398703 444.098149 
L 115.597866 444.390411 
L 115.410937 444.435199 
L 113.797029 444.713249 
L 111.996191 445.114003 
L 110.195354 445.62143 
L 108.394517 446.276736 
L 106.59368 447.140704 
L 106.59368 447.140704 
L 104.792843 447.978627 
L 102.992005 449.12885 
L 102.109787 449.846208 
L 101.191168 450.459359 
L 99.390331 451.992822 
L 98.843042 452.551712 
L 97.589494 453.649729 
L 96.115808 455.257216 
L 95.788656 455.569796 
L 93.987819 457.571936 
L 93.67418 457.962721 
L 92.186982 459.656913 
L 91.409381 460.668225 
L 90.386145 461.91149 
L 89.30604 463.373729 
L 88.585308 464.306574 
L 87.32555 466.079234 
L 86.78447 466.826095 
L 85.445429 468.784738 
L 84.983633 469.466883 
L 83.655172 471.490242 
L 83.182796 472.241044 
L 81.954226 474.195747 
L 81.381959 475.181297 
L 80.351772 476.901251 
L 79.581121 478.35102 
L 78.86839 479.606755 
L 77.780284 481.862867 
L 77.540183 482.31226 
L 76.275656 485.017764 
L 75.979447 485.80324 
L 75.123084 487.723268 
L 74.232185 490.428773 
L 74.17861 490.637171 
L 73.360101 493.134277 
L 72.775101 495.839781 
L 72.43369 498.545286 
L 72.377773 500.058224 
L 72.314577 501.25079 
L 72.377773 501.97307 
L 72.532876 503.956294 
L 73.251015 506.661799 
L 74.17861 508.333281 
L 74.994742 509.367303 
L 75.979447 510.266876 
L 77.780284 511.267811 
L 79.581121 511.790561 
L 81.381959 512.069729 
L 81.413398 512.072807 
z
M 81.144128 503.956294 
L 79.581121 502.235959 
L 79.015535 501.25079 
L 78.301289 498.545286 
L 78.208738 495.839781 
L 78.492446 493.134277 
L 79.089194 490.428773 
L 79.581121 488.952726 
L 79.924643 487.723268 
L 80.951418 485.017764 
L 81.381959 484.105907 
L 82.149807 482.31226 
L 83.182796 480.352467 
L 83.554927 479.606755 
L 84.983633 477.14541 
L 85.123613 476.901251 
L 86.78447 474.275243 
L 86.836221 474.195747 
L 88.585308 471.636972 
L 88.69275 471.490242 
L 90.386145 469.184985 
L 90.713475 468.784738 
L 92.186982 466.912082 
L 92.944093 466.079234 
L 93.987819 464.840273 
L 95.466717 463.373729 
L 95.788656 463.017665 
L 97.589494 461.266687 
L 98.347139 460.668225 
L 99.390331 459.703821 
L 101.191168 458.366104 
L 101.85148 457.962721 
L 102.992005 457.10964 
L 104.792843 456.028939 
L 106.476867 455.257216 
L 106.59368 455.188797 
L 108.394517 454.27333 
L 110.195354 453.587882 
L 111.996191 453.088963 
L 113.797029 452.750679 
L 115.597866 452.555768 
L 115.693575 452.551712 
L 117.398703 452.449405 
L 119.19954 452.448951 
L 121.000378 452.472421 
L 122.801215 452.450272 
L 124.602052 452.366808 
L 126.402889 452.264006 
L 128.203726 452.218578 
L 130.004564 452.329826 
L 131.057714 452.551712 
L 131.805401 452.716932 
L 133.606238 453.57621 
L 135.407075 455.223008 
L 135.436135 455.257216 
L 137.048211 457.962721 
L 137.207913 458.41831 
L 138.016351 460.668225 
L 138.611576 463.373729 
L 139.00875 466.079234 
L 139.00875 466.079234 
L 139.349561 468.784738 
L 139.368491 471.490242 
L 139.00875 473.52687 
L 138.90239 474.195747 
L 137.903771 476.901251 
L 137.207913 478.037573 
L 136.265878 479.606755 
L 135.407075 480.641483 
L 133.997003 482.31226 
L 133.606238 482.690292 
L 131.805401 484.453941 
L 131.228457 485.017764 
L 130.004564 486.086875 
L 128.203726 487.577658 
L 128.037371 487.723268 
L 126.402889 489.101347 
L 124.643023 490.428773 
L 124.602052 490.460508 
L 122.801215 491.949616 
L 121.129029 493.134277 
L 121.000378 493.233738 
L 119.19954 494.662903 
L 117.398703 495.83548 
L 117.392092 495.839781 
L 115.597866 497.193193 
L 113.797029 498.285913 
L 113.331988 498.545286 
L 111.996191 499.456648 
L 110.195354 500.481552 
L 108.541615 501.25079 
L 108.394517 501.338875 
L 106.59368 502.322706 
L 104.792843 503.111602 
L 102.992005 503.755708 
L 102.343348 503.956294 
L 101.191168 504.435748 
L 99.390331 505.043029 
L 97.589494 505.505949 
L 95.788656 505.837236 
L 93.987819 506.042147 
L 92.186982 506.126947 
L 90.386145 506.108063 
L 88.585308 506.008484 
L 86.78447 505.835439 
L 84.983633 505.552682 
L 83.182796 505.056425 
L 81.381959 504.138846 
z
" clip-path="url(#p49c2ada093)" style="fill: #eef5fc"/>
    <path d="M 81.381959 504.138846 
L 83.182796 505.056425 
L 84.983633 505.552682 
L 86.78447 505.835439 
L 88.585308 506.008484 
L 90.386145 506.108063 
L 92.186982 506.126947 
L 93.987819 506.042147 
L 95.788656 505.837236 
L 97.589494 505.505949 
L 99.390331 505.043029 
L 101.191168 504.435748 
L 102.343348 503.956294 
L 102.992005 503.755708 
L 104.792843 503.111602 
L 106.59368 502.322706 
L 108.394517 501.338875 
L 108.541615 501.25079 
L 110.195354 500.481552 
L 111.996191 499.456648 
L 113.331988 498.545286 
L 113.797029 498.285913 
L 115.597866 497.193193 
L 117.392092 495.839781 
L 117.398703 495.83548 
L 119.19954 494.662903 
L 121.000378 493.233738 
L 121.129029 493.134277 
L 122.801215 491.949616 
L 124.602052 490.460508 
L 124.643023 490.428773 
L 126.402889 489.101347 
L 128.037371 487.723268 
L 128.203726 487.577658 
L 130.004564 486.086875 
L 131.228457 485.017764 
L 131.805401 484.453941 
L 133.606238 482.690292 
L 133.997003 482.31226 
L 135.407075 480.641483 
L 136.265878 479.606755 
L 137.207913 478.037573 
L 137.903771 476.901251 
L 138.90239 474.195747 
L 139.00875 473.52687 
L 139.368491 471.490242 
L 139.349561 468.784738 
L 139.00875 466.079234 
L 139.00875 466.079234 
L 138.611576 463.373729 
L 138.016351 460.668225 
L 137.207913 458.41831 
L 137.048211 457.962721 
L 135.436135 455.257216 
L 135.407075 455.223008 
L 133.606238 453.57621 
L 131.805401 452.716932 
L 131.057714 452.551712 
L 130.004564 452.329826 
L 128.203726 452.218578 
L 126.402889 452.264006 
L 124.602052 452.366808 
L 122.801215 452.450272 
L 121.000378 452.472421 
L 119.19954 452.448951 
L 117.398703 452.449405 
L 115.693575 452.551712 
L 115.597866 452.555768 
L 113.797029 452.750679 
L 111.996191 453.088963 
L 110.195354 453.587882 
L 108.394517 454.27333 
L 106.59368 455.188797 
L 106.476867 455.257216 
L 104.792843 456.028939 
L 102.992005 457.10964 
L 101.85148 457.962721 
L 101.191168 458.366104 
L 99.390331 459.703821 
L 98.347139 460.668225 
L 97.589494 461.266687 
L 95.788656 463.017665 
L 95.466717 463.373729 
L 93.987819 464.840273 
L 92.944093 466.079234 
L 92.186982 466.912082 
L 90.713475 468.784738 
L 90.386145 469.184985 
L 88.69275 471.490242 
L 88.585308 471.636972 
L 86.836221 474.195747 
L 86.78447 474.275243 
L 85.123613 476.901251 
L 84.983633 477.14541 
L 83.554927 479.606755 
L 83.182796 480.352467 
L 82.149807 482.31226 
L 81.381959 484.105907 
L 80.951418 485.017764 
L 79.924643 487.723268 
L 79.581121 488.952726 
L 79.089194 490.428773 
L 78.492446 493.134277 
L 78.208738 495.839781 
L 78.301289 498.545286 
L 79.015535 501.25079 
L 79.581121 502.235959 
L 81.144128 503.956294 
z
M 88.585308 501.25079 
L 88.585308 501.25079 
L 86.78447 500.806954 
L 84.983633 499.922852 
L 83.542397 498.545286 
L 83.182796 497.886164 
L 82.427653 495.839781 
L 82.249422 493.134277 
L 82.577645 490.428773 
L 83.182796 488.163903 
L 83.28315 487.723268 
L 84.204644 485.017764 
L 84.983633 483.317642 
L 85.410355 482.31226 
L 86.78447 479.73489 
L 86.85066 479.606755 
L 88.471833 476.901251 
L 88.585308 476.727829 
L 90.318071 474.195747 
L 90.386145 474.100642 
L 92.186982 471.731049 
L 92.387754 471.490242 
L 93.987819 469.558434 
L 94.728116 468.784738 
L 95.788656 467.61429 
L 97.465752 466.079234 
L 97.589494 465.954266 
L 99.390331 464.307745 
L 100.678263 463.373729 
L 101.191168 462.94344 
L 102.992005 461.644779 
L 104.745816 460.668225 
L 104.792843 460.636503 
L 106.59368 459.583174 
L 108.394517 458.791187 
L 110.195354 458.199952 
L 111.193316 457.962721 
L 111.996191 457.7184 
L 113.797029 457.364371 
L 115.597866 457.165185 
L 117.398703 457.060318 
L 119.19954 456.990772 
L 121.000378 456.923957 
L 122.801215 456.87033 
L 124.602052 456.882288 
L 126.402889 457.052632 
L 128.203726 457.527652 
L 129.071547 457.962721 
L 130.004564 458.597599 
L 131.716659 460.668225 
L 131.805401 460.869171 
L 132.714246 463.373729 
L 133.029886 466.079234 
L 132.9106 468.784738 
L 132.429097 471.490242 
L 131.805401 473.413976 
L 131.581004 474.195747 
L 130.419895 476.901251 
L 130.004564 477.608472 
L 128.885114 479.606755 
L 128.203726 480.558292 
L 126.95496 482.31226 
L 126.402889 482.972467 
L 124.628937 485.017764 
L 124.602052 485.046117 
L 122.801215 486.985771 
L 122.055095 487.723268 
L 121.000378 488.746121 
L 119.19954 490.302005 
L 119.047937 490.428773 
L 117.398703 491.865212 
L 115.644807 493.134277 
L 115.597866 493.17166 
L 113.797029 494.535102 
L 111.996191 495.643968 
L 111.646519 495.839781 
L 110.195354 496.77964 
L 108.394517 497.74995 
L 106.614555 498.545286 
L 106.59368 498.556622 
L 104.792843 499.430023 
L 102.992005 500.13262 
L 101.191168 500.694213 
L 99.390331 501.12959 
L 98.67764 501.25079 
L 97.589494 501.485158 
L 95.788656 501.700965 
L 93.987819 501.763597 
L 92.186982 501.700499 
L 90.386145 501.533857 
z
" clip-path="url(#p49c2ada093)" style="fill: #dae8f6"/>
    <path d="M 90.386145 501.533857 
L 92.186982 501.700499 
L 93.987819 501.763597 
L 95.788656 501.700965 
L 97.589494 501.485158 
L 98.67764 501.25079 
L 99.390331 501.12959 
L 101.191168 500.694213 
L 102.992005 500.13262 
L 104.792843 499.430023 
L 106.59368 498.556622 
L 106.614555 498.545286 
L 108.394517 497.74995 
L 110.195354 496.77964 
L 111.646519 495.839781 
L 111.996191 495.643968 
L 113.797029 494.535102 
L 115.597866 493.17166 
L 115.644807 493.134277 
L 117.398703 491.865212 
L 119.047937 490.428773 
L 119.19954 490.302005 
L 121.000378 488.746121 
L 122.055095 487.723268 
L 122.801215 486.985771 
L 124.602052 485.046117 
L 124.628937 485.017764 
L 126.402889 482.972467 
L 126.95496 482.31226 
L 128.203726 480.558292 
L 128.885114 479.606755 
L 130.004564 477.608472 
L 130.419895 476.901251 
L 131.581004 474.195747 
L 131.805401 473.413976 
L 132.429097 471.490242 
L 132.9106 468.784738 
L 133.029886 466.079234 
L 132.714246 463.373729 
L 131.805401 460.869171 
L 131.716659 460.668225 
L 130.004564 458.597599 
L 129.071547 457.962721 
L 128.203726 457.527652 
L 126.402889 457.052632 
L 124.602052 456.882288 
L 122.801215 456.87033 
L 121.000378 456.923957 
L 119.19954 456.990772 
L 117.398703 457.060318 
L 115.597866 457.165185 
L 113.797029 457.364371 
L 111.996191 457.7184 
L 111.193316 457.962721 
L 110.195354 458.199952 
L 108.394517 458.791187 
L 106.59368 459.583174 
L 104.792843 460.636503 
L 104.745816 460.668225 
L 102.992005 461.644779 
L 101.191168 462.94344 
L 100.678263 463.373729 
L 99.390331 464.307745 
L 97.589494 465.954266 
L 97.465752 466.079234 
L 95.788656 467.61429 
L 94.728116 468.784738 
L 93.987819 469.558434 
L 92.387754 471.490242 
L 92.186982 471.731049 
L 90.386145 474.100642 
L 90.318071 474.195747 
L 88.585308 476.727829 
L 88.471833 476.901251 
L 86.85066 479.606755 
L 86.78447 479.73489 
L 85.410355 482.31226 
L 84.983633 483.317642 
L 84.204644 485.017764 
L 83.28315 487.723268 
L 83.182796 488.163903 
L 82.577645 490.428773 
L 82.249422 493.134277 
L 82.427653 495.839781 
L 83.182796 497.886164 
L 83.542397 498.545286 
L 84.983633 499.922852 
L 86.78447 500.806954 
L 88.585308 501.25079 
L 88.585308 501.25079 
z
M 95.66116 498.545286 
L 93.987819 498.489577 
L 92.186982 498.316554 
L 90.386145 497.99308 
L 88.585308 497.378082 
L 86.78447 496.132007 
L 86.522531 495.839781 
L 85.38611 493.134277 
L 85.313244 490.428773 
L 85.779794 487.723268 
L 86.649964 485.017764 
L 86.78447 484.716978 
L 87.788231 482.31226 
L 88.585308 480.823957 
L 89.221909 479.606755 
L 90.386145 477.738152 
L 90.918791 476.901251 
L 92.186982 475.115223 
L 92.884507 474.195747 
L 93.987819 472.812062 
L 95.165391 471.490242 
L 95.788656 470.787042 
L 97.589494 469.008674 
L 97.84171 468.784738 
L 99.390331 467.334049 
L 101.043068 466.079234 
L 101.191168 465.954504 
L 102.992005 464.618254 
L 104.792843 463.570257 
L 105.197763 463.373729 
L 106.59368 462.587756 
L 108.394517 461.816799 
L 110.195354 461.253019 
L 111.996191 460.863636 
L 113.4319 460.668225 
L 113.797029 460.608529 
L 115.597866 460.437036 
L 117.398703 460.33017 
L 119.19954 460.257963 
L 121.000378 460.237233 
L 122.801215 460.33312 
L 124.602052 460.662086 
L 124.619358 460.668225 
L 126.402889 461.520124 
L 128.203726 463.373729 
L 128.203726 463.373729 
L 129.162702 466.079234 
L 129.311865 468.784738 
L 128.936368 471.490242 
L 128.203726 473.867788 
L 128.113002 474.195747 
L 126.967068 476.901251 
L 126.402889 477.880544 
L 125.439731 479.606755 
L 124.602052 480.810403 
L 123.545866 482.31226 
L 122.801215 483.228419 
L 121.266976 485.017764 
L 121.000378 485.305376 
L 119.19954 487.161554 
L 118.608416 487.723268 
L 117.398703 488.85094 
L 115.597866 490.314995 
L 115.448326 490.428773 
L 113.797029 491.728464 
L 111.996191 492.918437 
L 111.635987 493.134277 
L 110.195354 494.07398 
L 108.394517 495.063611 
L 106.72258 495.839781 
L 106.59368 495.908314 
L 104.792843 496.738362 
L 102.992005 497.398487 
L 101.191168 497.907676 
L 99.390331 498.270208 
L 97.589494 498.482672 
L 95.893669 498.545286 
L 95.788656 498.549881 
z
" clip-path="url(#p49c2ada093)" style="fill: #c3daee"/>
    <path d="M 95.788656 498.549881 
L 95.893669 498.545286 
L 97.589494 498.482672 
L 99.390331 498.270208 
L 101.191168 497.907676 
L 102.992005 497.398487 
L 104.792843 496.738362 
L 106.59368 495.908314 
L 106.72258 495.839781 
L 108.394517 495.063611 
L 110.195354 494.07398 
L 111.635987 493.134277 
L 111.996191 492.918437 
L 113.797029 491.728464 
L 115.448326 490.428773 
L 115.597866 490.314995 
L 117.398703 488.85094 
L 118.608416 487.723268 
L 119.19954 487.161554 
L 121.000378 485.305376 
L 121.266976 485.017764 
L 122.801215 483.228419 
L 123.545866 482.31226 
L 124.602052 480.810403 
L 125.439731 479.606755 
L 126.402889 477.880544 
L 126.967068 476.901251 
L 128.113002 474.195747 
L 128.203726 473.867788 
L 128.936368 471.490242 
L 129.311865 468.784738 
L 129.162702 466.079234 
L 128.203726 463.373729 
L 128.203726 463.373729 
L 126.402889 461.520124 
L 124.619358 460.668225 
L 124.602052 460.662086 
L 122.801215 460.33312 
L 121.000378 460.237233 
L 119.19954 460.257963 
L 117.398703 460.33017 
L 115.597866 460.437036 
L 113.797029 460.608529 
L 113.4319 460.668225 
L 111.996191 460.863636 
L 110.195354 461.253019 
L 108.394517 461.816799 
L 106.59368 462.587756 
L 105.197763 463.373729 
L 104.792843 463.570257 
L 102.992005 464.618254 
L 101.191168 465.954504 
L 101.043068 466.079234 
L 99.390331 467.334049 
L 97.84171 468.784738 
L 97.589494 469.008674 
L 95.788656 470.787042 
L 95.165391 471.490242 
L 93.987819 472.812062 
L 92.884507 474.195747 
L 92.186982 475.115223 
L 90.918791 476.901251 
L 90.386145 477.738152 
L 89.221909 479.606755 
L 88.585308 480.823957 
L 87.788231 482.31226 
L 86.78447 484.716978 
L 86.649964 485.017764 
L 85.779794 487.723268 
L 85.313244 490.428773 
L 85.38611 493.134277 
L 86.522531 495.839781 
L 86.78447 496.132007 
L 88.585308 497.378082 
L 90.386145 497.99308 
L 92.186982 498.316554 
L 93.987819 498.489577 
L 95.66116 498.545286 
z
M 88.840798 493.134277 
L 88.585308 492.618382 
L 87.928663 490.428773 
L 88.06307 487.723268 
L 88.585308 485.770319 
L 88.766778 485.017764 
L 89.853771 482.31226 
L 90.386145 481.316988 
L 91.284732 479.606755 
L 92.186982 478.196794 
L 93.038915 476.901251 
L 93.987819 475.626618 
L 95.133096 474.195747 
L 95.788656 473.423938 
L 97.589494 471.534645 
L 97.63551 471.490242 
L 99.390331 469.815158 
L 100.670527 468.784738 
L 101.191168 468.345332 
L 102.992005 467.04959 
L 104.647402 466.079234 
L 104.792843 465.985482 
L 106.59368 465.045256 
L 108.394517 464.341881 
L 110.195354 463.835702 
L 111.996191 463.498332 
L 113.084942 463.373729 
L 113.797029 463.282648 
L 115.597866 463.148019 
L 117.398703 463.077741 
L 119.19954 463.089139 
L 121.000378 463.255092 
L 121.509177 463.373729 
L 122.801215 463.773629 
L 124.602052 465.069116 
L 125.385459 466.079234 
L 126.171383 468.784738 
L 126.079076 471.490242 
L 125.433498 474.195747 
L 124.602052 476.187399 
L 124.321724 476.901251 
L 122.801215 479.606755 
L 122.801215 479.606755 
L 121.000378 482.158178 
L 120.889243 482.31226 
L 119.19954 484.303064 
L 118.552885 485.017764 
L 117.398703 486.182849 
L 115.700837 487.723268 
L 115.597866 487.814289 
L 113.797029 489.291067 
L 112.191903 490.428773 
L 111.996191 490.571181 
L 110.195354 491.753116 
L 108.394517 492.751881 
L 107.601147 493.134277 
L 106.59368 493.655572 
L 104.792843 494.420923 
L 102.992005 495.020155 
L 101.191168 495.458784 
L 99.390331 495.730587 
L 97.589494 495.834358 
L 95.788656 495.785713 
L 93.987819 495.595566 
L 92.186982 495.215422 
L 90.386145 494.460161 
z
" clip-path="url(#p49c2ada093)" style="fill: #9dcae1"/>
    <path d="M 90.386145 494.460161 
L 92.186982 495.215422 
L 93.987819 495.595566 
L 95.788656 495.785713 
L 97.589494 495.834358 
L 99.390331 495.730587 
L 101.191168 495.458784 
L 102.992005 495.020155 
L 104.792843 494.420923 
L 106.59368 493.655572 
L 107.601147 493.134277 
L 108.394517 492.751881 
L 110.195354 491.753116 
L 111.996191 490.571181 
L 112.191903 490.428773 
L 113.797029 489.291067 
L 115.597866 487.814289 
L 115.700837 487.723268 
L 117.398703 486.182849 
L 118.552885 485.017764 
L 119.19954 484.303064 
L 120.889243 482.31226 
L 121.000378 482.158178 
L 122.801215 479.606755 
L 122.801215 479.606755 
L 124.321724 476.901251 
L 124.602052 476.187399 
L 125.433498 474.195747 
L 126.079076 471.490242 
L 126.171383 468.784738 
L 125.385459 466.079234 
L 124.602052 465.069116 
L 122.801215 463.773629 
L 121.509177 463.373729 
L 121.000378 463.255092 
L 119.19954 463.089139 
L 117.398703 463.077741 
L 115.597866 463.148019 
L 113.797029 463.282648 
L 113.084942 463.373729 
L 111.996191 463.498332 
L 110.195354 463.835702 
L 108.394517 464.341881 
L 106.59368 465.045256 
L 104.792843 465.985482 
L 104.647402 466.079234 
L 102.992005 467.04959 
L 101.191168 468.345332 
L 100.670527 468.784738 
L 99.390331 469.815158 
L 97.63551 471.490242 
L 97.589494 471.534645 
L 95.788656 473.423938 
L 95.133096 474.195747 
L 93.987819 475.626618 
L 93.038915 476.901251 
L 92.186982 478.196794 
L 91.284732 479.606755 
L 90.386145 481.316988 
L 89.853771 482.31226 
L 88.766778 485.017764 
L 88.585308 485.770319 
L 88.06307 487.723268 
L 87.928663 490.428773 
L 88.585308 492.618382 
L 88.840798 493.134277 
z
M 97.289574 493.134277 
L 95.788656 492.958805 
L 93.987819 492.504303 
L 92.186982 491.540845 
L 91.152053 490.428773 
L 90.503241 487.723268 
L 90.925394 485.017764 
L 91.896287 482.31226 
L 92.186982 481.762639 
L 93.312024 479.606755 
L 93.987819 478.579865 
L 95.128182 476.901251 
L 95.788656 476.061793 
L 97.374876 474.195747 
L 97.589494 473.961446 
L 99.390331 472.188827 
L 100.192737 471.490242 
L 101.191168 470.643357 
L 102.992005 469.356094 
L 103.946248 468.784738 
L 104.792843 468.26612 
L 106.59368 467.409088 
L 108.394517 466.768922 
L 110.195354 466.321333 
L 111.728377 466.079234 
L 111.996191 466.035107 
L 113.797029 465.867847 
L 115.597866 465.795672 
L 117.398703 465.837917 
L 119.198184 466.079234 
L 119.19954 466.079473 
L 121.000378 466.896616 
L 122.701829 468.784738 
L 122.801215 469.197793 
L 123.189402 471.490242 
L 122.801215 474.195747 
L 122.801215 474.195747 
L 121.817354 476.901251 
L 121.000378 478.381432 
L 120.335296 479.606755 
L 119.19954 481.18713 
L 118.370986 482.31226 
L 117.398703 483.411205 
L 115.880167 485.017764 
L 115.597866 485.286701 
L 113.797029 486.870168 
L 112.723796 487.723268 
L 111.996191 488.274134 
L 110.195354 489.479915 
L 108.567908 490.428773 
L 108.394517 490.530605 
L 106.59368 491.425291 
L 104.792843 492.139154 
L 102.992005 492.679118 
L 101.191168 493.034346 
L 100.03915 493.134277 
L 99.390331 493.192405 
L 97.589494 493.165314 
z
" clip-path="url(#p49c2ada093)" style="fill: #6caed6"/>
    <path d="M 97.589494 493.165314 
L 99.390331 493.192405 
L 100.03915 493.134277 
L 101.191168 493.034346 
L 102.992005 492.679118 
L 104.792843 492.139154 
L 106.59368 491.425291 
L 108.394517 490.530605 
L 108.567908 490.428773 
L 110.195354 489.479915 
L 111.996191 488.274134 
L 112.723796 487.723268 
L 113.797029 486.870168 
L 115.597866 485.286701 
L 115.880167 485.017764 
L 117.398703 483.411205 
L 118.370986 482.31226 
L 119.19954 481.18713 
L 120.335296 479.606755 
L 121.000378 478.381432 
L 121.817354 476.901251 
L 122.801215 474.195747 
L 122.801215 474.195747 
L 123.189402 471.490242 
L 122.801215 469.197793 
L 122.701829 468.784738 
L 121.000378 466.896616 
L 119.19954 466.079473 
L 119.198184 466.079234 
L 117.398703 465.837917 
L 115.597866 465.795672 
L 113.797029 465.867847 
L 111.996191 466.035107 
L 111.728377 466.079234 
L 110.195354 466.321333 
L 108.394517 466.768922 
L 106.59368 467.409088 
L 104.792843 468.26612 
L 103.946248 468.784738 
L 102.992005 469.356094 
L 101.191168 470.643357 
L 100.192737 471.490242 
L 99.390331 472.188827 
L 97.589494 473.961446 
L 97.374876 474.195747 
L 95.788656 476.061793 
L 95.128182 476.901251 
L 93.987819 478.579865 
L 93.312024 479.606755 
L 92.186982 481.762639 
L 91.896287 482.31226 
L 90.925394 485.017764 
L 90.503241 487.723268 
L 91.152053 490.428773 
L 92.186982 491.540845 
L 93.987819 492.504303 
L 95.788656 492.958805 
L 97.289574 493.134277 
z
M 97.589494 490.428773 
L 97.589494 490.428773 
L 95.788656 489.862536 
L 93.987819 488.526996 
L 93.447059 487.723268 
L 93.218927 485.017764 
L 93.945915 482.31226 
L 93.987819 482.230828 
L 95.325322 479.606755 
L 95.788656 478.924838 
L 97.213797 476.901251 
L 97.589494 476.456095 
L 99.390331 474.50147 
L 99.700446 474.195747 
L 101.191168 472.903732 
L 102.992005 471.544024 
L 103.0788 471.490242 
L 104.792843 470.503955 
L 106.59368 469.698525 
L 108.394517 469.105018 
L 109.858556 468.784738 
L 110.195354 468.713765 
L 111.996191 468.500501 
L 113.797029 468.416508 
L 115.597866 468.485708 
L 117.258195 468.784738 
L 117.398703 468.824062 
L 119.19954 470.151509 
L 120.022717 471.490242 
L 120.141378 474.195747 
L 119.36846 476.901251 
L 119.19954 477.21494 
L 117.931012 479.606755 
L 117.398703 480.329968 
L 115.901692 482.31226 
L 115.597866 482.638004 
L 113.797029 484.442951 
L 113.182697 485.017764 
L 111.996191 485.978517 
L 110.195354 487.277474 
L 109.494285 487.723268 
L 108.394517 488.368682 
L 106.59368 489.233488 
L 104.792843 489.9141 
L 102.992005 490.392979 
L 102.715755 490.428773 
L 101.191168 490.616215 
L 99.390331 490.623777 
z
" clip-path="url(#p49c2ada093)" style="fill: #4292c6"/>
    <path d="M 99.390331 490.623777 
L 101.191168 490.616215 
L 102.715755 490.428773 
L 102.992005 490.392979 
L 104.792843 489.9141 
L 106.59368 489.233488 
L 108.394517 488.368682 
L 109.494285 487.723268 
L 110.195354 487.277474 
L 111.996191 485.978517 
L 113.182697 485.017764 
L 113.797029 484.442951 
L 115.597866 482.638004 
L 115.901692 482.31226 
L 117.398703 480.329968 
L 117.931012 479.606755 
L 119.19954 477.21494 
L 119.36846 476.901251 
L 120.141378 474.195747 
L 120.022717 471.490242 
L 119.19954 470.151509 
L 117.398703 468.824062 
L 117.258195 468.784738 
L 115.597866 468.485708 
L 113.797029 468.416508 
L 111.996191 468.500501 
L 110.195354 468.713765 
L 109.858556 468.784738 
L 108.394517 469.105018 
L 106.59368 469.698525 
L 104.792843 470.503955 
L 103.0788 471.490242 
L 102.992005 471.544024 
L 101.191168 472.903732 
L 99.700446 474.195747 
L 99.390331 474.50147 
L 97.589494 476.456095 
L 97.213797 476.901251 
L 95.788656 478.924838 
L 95.325322 479.606755 
L 93.987819 482.230828 
L 93.945915 482.31226 
L 93.218927 485.017764 
L 93.447059 487.723268 
L 93.987819 488.526996 
L 95.788656 489.862536 
L 97.589494 490.428773 
L 97.589494 490.428773 
z
M 98.62337 487.723268 
L 97.589494 487.232735 
L 95.834837 485.017764 
L 96.144836 482.31226 
L 97.38316 479.606755 
L 97.589494 479.315349 
L 99.369523 476.901251 
L 99.390331 476.878864 
L 101.191168 475.193585 
L 102.365125 474.195747 
L 102.992005 473.746639 
L 104.792843 472.726644 
L 106.59368 471.922968 
L 107.969549 471.490242 
L 108.394517 471.373741 
L 110.195354 471.089398 
L 111.996191 470.975933 
L 113.797029 471.068159 
L 115.528778 471.490242 
L 115.597866 471.524914 
L 117.356474 474.195747 
L 116.913957 476.901251 
L 115.597866 479.606755 
L 115.597866 479.606755 
L 113.797029 481.879914 
L 113.444636 482.31226 
L 111.996191 483.633445 
L 110.364879 485.017764 
L 110.195354 485.138859 
L 108.394517 486.207848 
L 106.59368 487.091499 
L 104.894587 487.723268 
L 104.792843 487.756513 
L 102.992005 488.065114 
L 101.191168 488.124012 
L 99.390331 487.928284 
z
" clip-path="url(#p49c2ada093)" style="fill: #2373b6"/>
    <path d="M 99.390331 487.928284 
L 101.191168 488.124012 
L 102.992005 488.065114 
L 104.792843 487.756513 
L 104.894587 487.723268 
L 106.59368 487.091499 
L 108.394517 486.207848 
L 110.195354 485.138859 
L 110.364879 485.017764 
L 111.996191 483.633445 
L 113.444636 482.31226 
L 113.797029 481.879914 
L 115.597866 479.606755 
L 115.597866 479.606755 
L 116.913957 476.901251 
L 117.356474 474.195747 
L 115.597866 471.524914 
L 115.528778 471.490242 
L 113.797029 471.068159 
L 111.996191 470.975933 
L 110.195354 471.089398 
L 108.394517 471.373741 
L 107.969549 471.490242 
L 106.59368 471.922968 
L 104.792843 472.726644 
L 102.992005 473.746639 
L 102.365125 474.195747 
L 101.191168 475.193585 
L 99.390331 476.878864 
L 99.369523 476.901251 
L 97.589494 479.315349 
L 97.38316 479.606755 
L 96.144836 482.31226 
L 95.834837 485.017764 
L 97.589494 487.232735 
L 98.62337 487.723268 
z
M 102.240874 485.017764 
L 101.191168 484.697193 
L 99.390331 482.62074 
L 99.280455 482.31226 
L 99.390331 481.999148 
L 100.23721 479.606755 
L 101.191168 478.456176 
L 102.55482 476.901251 
L 102.992005 476.570142 
L 104.792843 475.519052 
L 106.59368 474.69282 
L 108.222315 474.195747 
L 108.394517 474.158159 
L 110.195354 474.021222 
L 111.996191 474.195544 
L 111.996773 474.195747 
L 113.797029 476.901251 
L 112.656838 479.606755 
L 111.996191 480.385269 
L 110.306496 482.31226 
L 110.195354 482.39983 
L 108.394517 483.518738 
L 106.59368 484.433478 
L 104.855864 485.017764 
L 104.792843 485.033124 
L 102.992005 485.120001 
z
" clip-path="url(#p49c2ada093)" style="fill: #0c56a0"/>
    <path d="M 102.992005 485.120001 
L 104.792843 485.033124 
L 104.855864 485.017764 
L 106.59368 484.433478 
L 108.394517 483.518738 
L 110.195354 482.39983 
L 110.306496 482.31226 
L 111.996191 480.385269 
L 112.656838 479.606755 
L 113.797029 476.901251 
L 111.996773 474.195747 
L 111.996191 474.195544 
L 110.195354 474.021222 
L 108.394517 474.158159 
L 108.222315 474.195747 
L 106.59368 474.69282 
L 104.792843 475.519052 
L 102.992005 476.570142 
L 102.55482 476.901251 
L 101.191168 478.456176 
L 100.23721 479.606755 
L 99.390331 481.999148 
L 99.280455 482.31226 
L 99.390331 482.62074 
L 101.191168 484.697193 
L 102.240874 485.017764 
z
" clip-path="url(#p49c2ada093)" style="fill: #083b7c"/>
   </g>
   <g id="matplotlib.axis_1">
    <g id="xtick_1">
     <g id="line2d_1">
      <defs>
       <path id="m1ca319c8ff" d="M 0 0 
L 0 3.5 
" style="stroke: #000000; stroke-width: 0.8"/>
      </defs>
      <g>
       <use xlink:href="#m1ca319c8ff" x="186.726258" y="499.48" style="stroke: #000000; stroke-width: 0.8"/>
      </g>
     </g>
     <g id="text_1">
      <!-- 10 -->
      <g transform="translate(172.728758 523.196563) scale(0.22 -0.22)">
       <defs>
        <path id="DejaVuSans-31" d="M 794 531 
L 1825 531 
L 1825 4091 
L 703 3866 
L 703 4441 
L 1819 4666 
L 2450 4666 
L 2450 531 
L 3481 531 
L 3481 0 
L 794 0 
L 794 531 
z
" transform="scale(0.015625)"/>
        <path id="DejaVuSans-30" d="M 2034 4250 
Q 1547 4250 1301 3770 
Q 1056 3291 1056 2328 
Q 1056 1369 1301 889 
Q 1547 409 2034 409 
Q 2525 409 2770 889 
Q 3016 1369 3016 2328 
Q 3016 3291 2770 3770 
Q 2525 4250 2034 4250 
z
M 2034 4750 
Q 2819 4750 3233 4129 
Q 3647 3509 3647 2328 
Q 3647 1150 3233 529 
Q 2819 -91 2034 -91 
Q 1250 -91 836 529 
Q 422 1150 422 2328 
Q 422 3509 836 4129 
Q 1250 4750 2034 4750 
z
" transform="scale(0.015625)"/>
       </defs>
       <use xlink:href="#DejaVuSans-31"/>
       <use xlink:href="#DejaVuSans-30" x="63.623047"/>
      </g>
     </g>
    </g>
    <g id="xtick_2">
     <g id="line2d_2">
      <g>
       <use xlink:href="#m1ca319c8ff" x="292.554298" y="499.48" style="stroke: #000000; stroke-width: 0.8"/>
      </g>
     </g>
     <g id="text_2">
      <!-- 20 -->
      <g transform="translate(278.556798 523.196563) scale(0.22 -0.22)">
       <defs>
        <path id="DejaVuSans-32" d="M 1228 531 
L 3431 531 
L 3431 0 
L 469 0 
L 469 531 
Q 828 903 1448 1529 
Q 2069 2156 2228 2338 
Q 2531 2678 2651 2914 
Q 2772 3150 2772 3378 
Q 2772 3750 2511 3984 
Q 2250 4219 1831 4219 
Q 1534 4219 1204 4116 
Q 875 4013 500 3803 
L 500 4441 
Q 881 4594 1212 4672 
Q 1544 4750 1819 4750 
Q 2544 4750 2975 4387 
Q 3406 4025 3406 3419 
Q 3406 3131 3298 2873 
Q 3191 2616 2906 2266 
Q 2828 2175 2409 1742 
Q 1991 1309 1228 531 
z
" transform="scale(0.015625)"/>
       </defs>
       <use xlink:href="#DejaVuSans-32"/>
       <use xlink:href="#DejaVuSans-30" x="63.623047"/>
      </g>
     </g>
    </g>
    <g id="xtick_3">
     <g id="line2d_3">
      <g>
       <use xlink:href="#m1ca319c8ff" x="398.382337" y="499.48" style="stroke: #000000; stroke-width: 0.8"/>
      </g>
     </g>
     <g id="text_3">
      <!-- 30 -->
      <g transform="translate(384.384837 523.196563) scale(0.22 -0.22)">
       <defs>
        <path id="DejaVuSans-33" d="M 2597 2516 
Q 3050 2419 3304 2112 
Q 3559 1806 3559 1356 
Q 3559 666 3084 287 
Q 2609 -91 1734 -91 
Q 1441 -91 1130 -33 
Q 819 25 488 141 
L 488 750 
Q 750 597 1062 519 
Q 1375 441 1716 441 
Q 2309 441 2620 675 
Q 2931 909 2931 1356 
Q 2931 1769 2642 2001 
Q 2353 2234 1838 2234 
L 1294 2234 
L 1294 2753 
L 1863 2753 
Q 2328 2753 2575 2939 
Q 2822 3125 2822 3475 
Q 2822 3834 2567 4026 
Q 2313 4219 1838 4219 
Q 1578 4219 1281 4162 
Q 984 4106 628 3988 
L 628 4550 
Q 988 4650 1302 4700 
Q 1616 4750 1894 4750 
Q 2613 4750 3031 4423 
Q 3450 4097 3450 3541 
Q 3450 3153 3228 2886 
Q 3006 2619 2597 2516 
z
" transform="scale(0.015625)"/>
       </defs>
       <use xlink:href="#DejaVuSans-33"/>
       <use xlink:href="#DejaVuSans-30" x="63.623047"/>
      </g>
     </g>
    </g>
    <g id="xtick_4">
     <g id="line2d_4">
      <g>
       <use xlink:href="#m1ca319c8ff" x="504.210376" y="499.48" style="stroke: #000000; stroke-width: 0.8"/>
      </g>
     </g>
     <g id="text_4">
      <!-- 40 -->
      <g transform="translate(490.212876 523.196563) scale(0.22 -0.22)">
       <defs>
        <path id="DejaVuSans-34" d="M 2419 4116 
L 825 1625 
L 2419 1625 
L 2419 4116 
z
M 2253 4666 
L 3047 4666 
L 3047 1625 
L 3713 1625 
L 3713 1100 
L 3047 1100 
L 3047 0 
L 2419 0 
L 2419 1100 
L 313 1100 
L 313 1709 
L 2253 4666 
z
" transform="scale(0.015625)"/>
       </defs>
       <use xlink:href="#DejaVuSans-34"/>
       <use xlink:href="#DejaVuSans-30" x="63.623047"/>
      </g>
     </g>
    </g>
    <g id="xtick_5">
     <g id="line2d_5">
      <g>
       <use xlink:href="#m1ca319c8ff" x="610.038415" y="499.48" style="stroke: #000000; stroke-width: 0.8"/>
      </g>
     </g>
     <g id="text_5">
      <!-- 50 -->
      <g transform="translate(596.040915 523.196563) scale(0.22 -0.22)">
       <defs>
        <path id="DejaVuSans-35" d="M 691 4666 
L 3169 4666 
L 3169 4134 
L 1269 4134 
L 1269 2991 
Q 1406 3038 1543 3061 
Q 1681 3084 1819 3084 
Q 2600 3084 3056 2656 
Q 3513 2228 3513 1497 
Q 3513 744 3044 326 
Q 2575 -91 1722 -91 
Q 1428 -91 1123 -41 
Q 819 9 494 109 
L 494 744 
Q 775 591 1075 516 
Q 1375 441 1709 441 
Q 2250 441 2565 725 
Q 2881 1009 2881 1497 
Q 2881 1984 2565 2268 
Q 2250 2553 1709 2553 
Q 1456 2553 1204 2497 
Q 953 2441 691 2322 
L 691 4666 
z
" transform="scale(0.015625)"/>
       </defs>
       <use xlink:href="#DejaVuSans-35"/>
       <use xlink:href="#DejaVuSans-30" x="63.623047"/>
      </g>
     </g>
    </g>
    <g id="text_6">
     <!-- Force Uncertainties -->
     <g transform="translate(283.426094 548.488438) scale(0.22 -0.22)">
      <defs>
       <path id="DejaVuSans-46" d="M 628 4666 
L 3309 4666 
L 3309 4134 
L 1259 4134 
L 1259 2759 
L 3109 2759 
L 3109 2228 
L 1259 2228 
L 1259 0 
L 628 0 
L 628 4666 
z
" transform="scale(0.015625)"/>
       <path id="DejaVuSans-6f" d="M 1959 3097 
Q 1497 3097 1228 2736 
Q 959 2375 959 1747 
Q 959 1119 1226 758 
Q 1494 397 1959 397 
Q 2419 397 2687 759 
Q 2956 1122 2956 1747 
Q 2956 2369 2687 2733 
Q 2419 3097 1959 3097 
z
M 1959 3584 
Q 2709 3584 3137 3096 
Q 3566 2609 3566 1747 
Q 3566 888 3137 398 
Q 2709 -91 1959 -91 
Q 1206 -91 779 398 
Q 353 888 353 1747 
Q 353 2609 779 3096 
Q 1206 3584 1959 3584 
z
" transform="scale(0.015625)"/>
       <path id="DejaVuSans-72" d="M 2631 2963 
Q 2534 3019 2420 3045 
Q 2306 3072 2169 3072 
Q 1681 3072 1420 2755 
Q 1159 2438 1159 1844 
L 1159 0 
L 581 0 
L 581 3500 
L 1159 3500 
L 1159 2956 
Q 1341 3275 1631 3429 
Q 1922 3584 2338 3584 
Q 2397 3584 2469 3576 
Q 2541 3569 2628 3553 
L 2631 2963 
z
" transform="scale(0.015625)"/>
       <path id="DejaVuSans-63" d="M 3122 3366 
L 3122 2828 
Q 2878 2963 2633 3030 
Q 2388 3097 2138 3097 
Q 1578 3097 1268 2742 
Q 959 2388 959 1747 
Q 959 1106 1268 751 
Q 1578 397 2138 397 
Q 2388 397 2633 464 
Q 2878 531 3122 666 
L 3122 134 
Q 2881 22 2623 -34 
Q 2366 -91 2075 -91 
Q 1284 -91 818 406 
Q 353 903 353 1747 
Q 353 2603 823 3093 
Q 1294 3584 2113 3584 
Q 2378 3584 2631 3529 
Q 2884 3475 3122 3366 
z
" transform="scale(0.015625)"/>
       <path id="DejaVuSans-65" d="M 3597 1894 
L 3597 1613 
L 953 1613 
Q 991 1019 1311 708 
Q 1631 397 2203 397 
Q 2534 397 2845 478 
Q 3156 559 3463 722 
L 3463 178 
Q 3153 47 2828 -22 
Q 2503 -91 2169 -91 
Q 1331 -91 842 396 
Q 353 884 353 1716 
Q 353 2575 817 3079 
Q 1281 3584 2069 3584 
Q 2775 3584 3186 3129 
Q 3597 2675 3597 1894 
z
M 3022 2063 
Q 3016 2534 2758 2815 
Q 2500 3097 2075 3097 
Q 1594 3097 1305 2825 
Q 1016 2553 972 2059 
L 3022 2063 
z
" transform="scale(0.015625)"/>
       <path id="DejaVuSans-20" transform="scale(0.015625)"/>
       <path id="DejaVuSans-55" d="M 556 4666 
L 1191 4666 
L 1191 1831 
Q 1191 1081 1462 751 
Q 1734 422 2344 422 
Q 2950 422 3222 751 
Q 3494 1081 3494 1831 
L 3494 4666 
L 4128 4666 
L 4128 1753 
Q 4128 841 3676 375 
Q 3225 -91 2344 -91 
Q 1459 -91 1007 375 
Q 556 841 556 1753 
L 556 4666 
z
" transform="scale(0.015625)"/>
       <path id="DejaVuSans-6e" d="M 3513 2113 
L 3513 0 
L 2938 0 
L 2938 2094 
Q 2938 2591 2744 2837 
Q 2550 3084 2163 3084 
Q 1697 3084 1428 2787 
Q 1159 2491 1159 1978 
L 1159 0 
L 581 0 
L 581 3500 
L 1159 3500 
L 1159 2956 
Q 1366 3272 1645 3428 
Q 1925 3584 2291 3584 
Q 2894 3584 3203 3211 
Q 3513 2838 3513 2113 
z
" transform="scale(0.015625)"/>
       <path id="DejaVuSans-74" d="M 1172 4494 
L 1172 3500 
L 2356 3500 
L 2356 3053 
L 1172 3053 
L 1172 1153 
Q 1172 725 1289 603 
Q 1406 481 1766 481 
L 2356 481 
L 2356 0 
L 1766 0 
Q 1100 0 847 248 
Q 594 497 594 1153 
L 594 3053 
L 172 3053 
L 172 3500 
L 594 3500 
L 594 4494 
L 1172 4494 
z
" transform="scale(0.015625)"/>
       <path id="DejaVuSans-61" d="M 2194 1759 
Q 1497 1759 1228 1600 
Q 959 1441 959 1056 
Q 959 750 1161 570 
Q 1363 391 1709 391 
Q 2188 391 2477 730 
Q 2766 1069 2766 1631 
L 2766 1759 
L 2194 1759 
z
M 3341 1997 
L 3341 0 
L 2766 0 
L 2766 531 
Q 2569 213 2275 61 
Q 1981 -91 1556 -91 
Q 1019 -91 701 211 
Q 384 513 384 1019 
Q 384 1609 779 1909 
Q 1175 2209 1959 2209 
L 2766 2209 
L 2766 2266 
Q 2766 2663 2505 2880 
Q 2244 3097 1772 3097 
Q 1472 3097 1187 3025 
Q 903 2953 641 2809 
L 641 3341 
Q 956 3463 1253 3523 
Q 1550 3584 1831 3584 
Q 2591 3584 2966 3190 
Q 3341 2797 3341 1997 
z
" transform="scale(0.015625)"/>
       <path id="DejaVuSans-69" d="M 603 3500 
L 1178 3500 
L 1178 0 
L 603 0 
L 603 3500 
z
M 603 4863 
L 1178 4863 
L 1178 4134 
L 603 4134 
L 603 4863 
z
" transform="scale(0.015625)"/>
       <path id="DejaVuSans-73" d="M 2834 3397 
L 2834 2853 
Q 2591 2978 2328 3040 
Q 2066 3103 1784 3103 
Q 1356 3103 1142 2972 
Q 928 2841 928 2578 
Q 928 2378 1081 2264 
Q 1234 2150 1697 2047 
L 1894 2003 
Q 2506 1872 2764 1633 
Q 3022 1394 3022 966 
Q 3022 478 2636 193 
Q 2250 -91 1575 -91 
Q 1294 -91 989 -36 
Q 684 19 347 128 
L 347 722 
Q 666 556 975 473 
Q 1284 391 1588 391 
Q 1994 391 2212 530 
Q 2431 669 2431 922 
Q 2431 1156 2273 1281 
Q 2116 1406 1581 1522 
L 1381 1569 
Q 847 1681 609 1914 
Q 372 2147 372 2553 
Q 372 3047 722 3315 
Q 1072 3584 1716 3584 
Q 2034 3584 2315 3537 
Q 2597 3491 2834 3397 
z
" transform="scale(0.015625)"/>
      </defs>
      <use xlink:href="#DejaVuSans-46"/>
      <use xlink:href="#DejaVuSans-6f" x="53.894531"/>
      <use xlink:href="#DejaVuSans-72" x="115.076172"/>
      <use xlink:href="#DejaVuSans-63" x="153.939453"/>
      <use xlink:href="#DejaVuSans-65" x="208.919922"/>
      <use xlink:href="#DejaVuSans-20" x="270.443359"/>
      <use xlink:href="#DejaVuSans-55" x="302.230469"/>
      <use xlink:href="#DejaVuSans-6e" x="375.423828"/>
      <use xlink:href="#DejaVuSans-63" x="438.802734"/>
      <use xlink:href="#DejaVuSans-65" x="493.783203"/>
      <use xlink:href="#DejaVuSans-72" x="555.306641"/>
      <use xlink:href="#DejaVuSans-74" x="596.419922"/>
      <use xlink:href="#DejaVuSans-61" x="635.628906"/>
      <use xlink:href="#DejaVuSans-69" x="696.908203"/>
      <use xlink:href="#DejaVuSans-6e" x="724.691406"/>
      <use xlink:href="#DejaVuSans-74" x="788.070312"/>
      <use xlink:href="#DejaVuSans-69" x="827.279297"/>
      <use xlink:href="#DejaVuSans-65" x="855.0625"/>
      <use xlink:href="#DejaVuSans-73" x="916.585938"/>
     </g>
    </g>
   </g>
   <g id="matplotlib.axis_2">
    <g id="ytick_1">
     <g id="line2d_6">
      <defs>
       <path id="m8f1a593855" d="M 0 0 
L -3.5 0 
" style="stroke: #000000; stroke-width: 0.8"/>
      </defs>
      <g>
       <use xlink:href="#m8f1a593855" x="83.72" y="419.479123" style="stroke: #000000; stroke-width: 0.8"/>
      </g>
     </g>
     <g id="text_7">
      <!-- 10 -->
      <g transform="translate(48.725 427.837404) scale(0.22 -0.22)">
       <use xlink:href="#DejaVuSans-31"/>
       <use xlink:href="#DejaVuSans-30" x="63.623047"/>
      </g>
     </g>
    </g>
    <g id="ytick_2">
     <g id="line2d_7">
      <g>
       <use xlink:href="#m8f1a593855" x="83.72" y="337.286681" style="stroke: #000000; stroke-width: 0.8"/>
      </g>
     </g>
     <g id="text_8">
      <!-- 20 -->
      <g transform="translate(48.725 345.644962) scale(0.22 -0.22)">
       <use xlink:href="#DejaVuSans-32"/>
       <use xlink:href="#DejaVuSans-30" x="63.623047"/>
      </g>
     </g>
    </g>
    <g id="ytick_3">
     <g id="line2d_8">
      <g>
       <use xlink:href="#m8f1a593855" x="83.72" y="255.094238" style="stroke: #000000; stroke-width: 0.8"/>
      </g>
     </g>
     <g id="text_9">
      <!-- 30 -->
      <g transform="translate(48.725 263.45252) scale(0.22 -0.22)">
       <use xlink:href="#DejaVuSans-33"/>
       <use xlink:href="#DejaVuSans-30" x="63.623047"/>
      </g>
     </g>
    </g>
    <g id="ytick_4">
     <g id="line2d_9">
      <g>
       <use xlink:href="#m8f1a593855" x="83.72" y="172.901796" style="stroke: #000000; stroke-width: 0.8"/>
      </g>
     </g>
     <g id="text_10">
      <!-- 40 -->
      <g transform="translate(48.725 181.260077) scale(0.22 -0.22)">
       <use xlink:href="#DejaVuSans-34"/>
       <use xlink:href="#DejaVuSans-30" x="63.623047"/>
      </g>
     </g>
    </g>
    <g id="ytick_5">
     <g id="line2d_10">
      <g>
       <use xlink:href="#m8f1a593855" x="83.72" y="90.709354" style="stroke: #000000; stroke-width: 0.8"/>
      </g>
     </g>
     <g id="text_11">
      <!-- 50 -->
      <g transform="translate(48.725 99.067635) scale(0.22 -0.22)">
       <use xlink:href="#DejaVuSans-35"/>
       <use xlink:href="#DejaVuSans-30" x="63.623047"/>
      </g>
     </g>
    </g>
    <g id="text_12">
     <!-- Force Errors [kJ/(mol*A)] -->
     <g transform="translate(40.149688 394.9125) rotate(-90) scale(0.22 -0.22)">
      <defs>
       <path id="DejaVuSans-45" d="M 628 4666 
L 3578 4666 
L 3578 4134 
L 1259 4134 
L 1259 2753 
L 3481 2753 
L 3481 2222 
L 1259 2222 
L 1259 531 
L 3634 531 
L 3634 0 
L 628 0 
L 628 4666 
z
" transform="scale(0.015625)"/>
       <path id="DejaVuSans-5b" d="M 550 4863 
L 1875 4863 
L 1875 4416 
L 1125 4416 
L 1125 -397 
L 1875 -397 
L 1875 -844 
L 550 -844 
L 550 4863 
z
" transform="scale(0.015625)"/>
       <path id="DejaVuSans-6b" d="M 581 4863 
L 1159 4863 
L 1159 1991 
L 2875 3500 
L 3609 3500 
L 1753 1863 
L 3688 0 
L 2938 0 
L 1159 1709 
L 1159 0 
L 581 0 
L 581 4863 
z
" transform="scale(0.015625)"/>
       <path id="DejaVuSans-4a" d="M 628 4666 
L 1259 4666 
L 1259 325 
Q 1259 -519 939 -900 
Q 619 -1281 -91 -1281 
L -331 -1281 
L -331 -750 
L -134 -750 
Q 284 -750 456 -515 
Q 628 -281 628 325 
L 628 4666 
z
" transform="scale(0.015625)"/>
       <path id="DejaVuSans-2f" d="M 1625 4666 
L 2156 4666 
L 531 -594 
L 0 -594 
L 1625 4666 
z
" transform="scale(0.015625)"/>
       <path id="DejaVuSans-28" d="M 1984 4856 
Q 1566 4138 1362 3434 
Q 1159 2731 1159 2009 
Q 1159 1288 1364 580 
Q 1569 -128 1984 -844 
L 1484 -844 
Q 1016 -109 783 600 
Q 550 1309 550 2009 
Q 550 2706 781 3412 
Q 1013 4119 1484 4856 
L 1984 4856 
z
" transform="scale(0.015625)"/>
       <path id="DejaVuSans-6d" d="M 3328 2828 
Q 3544 3216 3844 3400 
Q 4144 3584 4550 3584 
Q 5097 3584 5394 3201 
Q 5691 2819 5691 2113 
L 5691 0 
L 5113 0 
L 5113 2094 
Q 5113 2597 4934 2840 
Q 4756 3084 4391 3084 
Q 3944 3084 3684 2787 
Q 3425 2491 3425 1978 
L 3425 0 
L 2847 0 
L 2847 2094 
Q 2847 2600 2669 2842 
Q 2491 3084 2119 3084 
Q 1678 3084 1418 2786 
Q 1159 2488 1159 1978 
L 1159 0 
L 581 0 
L 581 3500 
L 1159 3500 
L 1159 2956 
Q 1356 3278 1631 3431 
Q 1906 3584 2284 3584 
Q 2666 3584 2933 3390 
Q 3200 3197 3328 2828 
z
" transform="scale(0.015625)"/>
       <path id="DejaVuSans-6c" d="M 603 4863 
L 1178 4863 
L 1178 0 
L 603 0 
L 603 4863 
z
" transform="scale(0.015625)"/>
       <path id="DejaVuSans-2a" d="M 3009 3897 
L 1888 3291 
L 3009 2681 
L 2828 2375 
L 1778 3009 
L 1778 1831 
L 1422 1831 
L 1422 3009 
L 372 2375 
L 191 2681 
L 1313 3291 
L 191 3897 
L 372 4206 
L 1422 3572 
L 1422 4750 
L 1778 4750 
L 1778 3572 
L 2828 4206 
L 3009 3897 
z
" transform="scale(0.015625)"/>
       <path id="DejaVuSans-41" d="M 2188 4044 
L 1331 1722 
L 3047 1722 
L 2188 4044 
z
M 1831 4666 
L 2547 4666 
L 4325 0 
L 3669 0 
L 3244 1197 
L 1141 1197 
L 716 0 
L 50 0 
L 1831 4666 
z
" transform="scale(0.015625)"/>
       <path id="DejaVuSans-29" d="M 513 4856 
L 1013 4856 
Q 1481 4119 1714 3412 
Q 1947 2706 1947 2009 
Q 1947 1309 1714 600 
Q 1481 -109 1013 -844 
L 513 -844 
Q 928 -128 1133 580 
Q 1338 1288 1338 2009 
Q 1338 2731 1133 3434 
Q 928 4138 513 4856 
z
" transform="scale(0.015625)"/>
       <path id="DejaVuSans-5d" d="M 1947 4863 
L 1947 -844 
L 622 -844 
L 622 -397 
L 1369 -397 
L 1369 4416 
L 622 4416 
L 622 4863 
L 1947 4863 
z
" transform="scale(0.015625)"/>
      </defs>
      <use xlink:href="#DejaVuSans-46"/>
      <use xlink:href="#DejaVuSans-6f" x="53.894531"/>
      <use xlink:href="#DejaVuSans-72" x="115.076172"/>
      <use xlink:href="#DejaVuSans-63" x="153.939453"/>
      <use xlink:href="#DejaVuSans-65" x="208.919922"/>
      <use xlink:href="#DejaVuSans-20" x="270.443359"/>
      <use xlink:href="#DejaVuSans-45" x="302.230469"/>
      <use xlink:href="#DejaVuSans-72" x="365.414062"/>
      <use xlink:href="#DejaVuSans-72" x="404.777344"/>
      <use xlink:href="#DejaVuSans-6f" x="443.640625"/>
      <use xlink:href="#DejaVuSans-72" x="504.822266"/>
      <use xlink:href="#DejaVuSans-73" x="545.935547"/>
      <use xlink:href="#DejaVuSans-20" x="598.035156"/>
      <use xlink:href="#DejaVuSans-5b" x="629.822266"/>
      <use xlink:href="#DejaVuSans-6b" x="668.835938"/>
      <use xlink:href="#DejaVuSans-4a" x="726.746094"/>
      <use xlink:href="#DejaVuSans-2f" x="756.238281"/>
      <use xlink:href="#DejaVuSans-28" x="789.929688"/>
      <use xlink:href="#DejaVuSans-6d" x="828.943359"/>
      <use xlink:href="#DejaVuSans-6f" x="926.355469"/>
      <use xlink:href="#DejaVuSans-6c" x="987.537109"/>
      <use xlink:href="#DejaVuSans-2a" x="1015.320312"/>
      <use xlink:href="#DejaVuSans-41" x="1065.320312"/>
      <use xlink:href="#DejaVuSans-29" x="1133.728516"/>
      <use xlink:href="#DejaVuSans-5d" x="1172.742188"/>
     </g>
    </g>
   </g>
   <g id="line2d_11">
    <path d="M 83.72 499.48 
L 696.24 23.76 
" clip-path="url(#p49c2ada093)" style="fill: none; stroke-dasharray: 5.55,2.4; stroke-dashoffset: 0; stroke: #ff0000; stroke-width: 1.5"/>
   </g>
   <g id="patch_3">
    <path d="M 83.72 499.48 
L 83.72 23.76 
" style="fill: none; stroke: #000000; stroke-width: 0.8; stroke-linejoin: miter; stroke-linecap: square"/>
   </g>
   <g id="patch_4">
    <path d="M 696.24 499.48 
L 696.24 23.76 
" style="fill: none; stroke: #000000; stroke-width: 0.8; stroke-linejoin: miter; stroke-linecap: square"/>
   </g>
   <g id="patch_5">
    <path d="M 83.72 499.48 
L 696.24 499.48 
" style="fill: none; stroke: #000000; stroke-width: 0.8; stroke-linejoin: miter; stroke-linecap: square"/>
   </g>
   <g id="patch_6">
    <path d="M 83.72 23.76 
L 696.24 23.76 
" style="fill: none; stroke: #000000; stroke-width: 0.8; stroke-linejoin: miter; stroke-linecap: square"/>
   </g>
   <g id="text_13">
    <!-- Correlation in: 0.841 -->
    <g transform="translate(144.972 71.332) scale(0.22 -0.22)">
     <defs>
      <path id="DejaVuSans-43" d="M 4122 4306 
L 4122 3641 
Q 3803 3938 3442 4084 
Q 3081 4231 2675 4231 
Q 1875 4231 1450 3742 
Q 1025 3253 1025 2328 
Q 1025 1406 1450 917 
Q 1875 428 2675 428 
Q 3081 428 3442 575 
Q 3803 722 4122 1019 
L 4122 359 
Q 3791 134 3420 21 
Q 3050 -91 2638 -91 
Q 1578 -91 968 557 
Q 359 1206 359 2328 
Q 359 3453 968 4101 
Q 1578 4750 2638 4750 
Q 3056 4750 3426 4639 
Q 3797 4528 4122 4306 
z
" transform="scale(0.015625)"/>
      <path id="DejaVuSans-3a" d="M 750 794 
L 1409 794 
L 1409 0 
L 750 0 
L 750 794 
z
M 750 3309 
L 1409 3309 
L 1409 2516 
L 750 2516 
L 750 3309 
z
" transform="scale(0.015625)"/>
      <path id="DejaVuSans-2e" d="M 684 794 
L 1344 794 
L 1344 0 
L 684 0 
L 684 794 
z
" transform="scale(0.015625)"/>
      <path id="DejaVuSans-38" d="M 2034 2216 
Q 1584 2216 1326 1975 
Q 1069 1734 1069 1313 
Q 1069 891 1326 650 
Q 1584 409 2034 409 
Q 2484 409 2743 651 
Q 3003 894 3003 1313 
Q 3003 1734 2745 1975 
Q 2488 2216 2034 2216 
z
M 1403 2484 
Q 997 2584 770 2862 
Q 544 3141 544 3541 
Q 544 4100 942 4425 
Q 1341 4750 2034 4750 
Q 2731 4750 3128 4425 
Q 3525 4100 3525 3541 
Q 3525 3141 3298 2862 
Q 3072 2584 2669 2484 
Q 3125 2378 3379 2068 
Q 3634 1759 3634 1313 
Q 3634 634 3220 271 
Q 2806 -91 2034 -91 
Q 1263 -91 848 271 
Q 434 634 434 1313 
Q 434 1759 690 2068 
Q 947 2378 1403 2484 
z
M 1172 3481 
Q 1172 3119 1398 2916 
Q 1625 2713 2034 2713 
Q 2441 2713 2670 2916 
Q 2900 3119 2900 3481 
Q 2900 3844 2670 4047 
Q 2441 4250 2034 4250 
Q 1625 4250 1398 4047 
Q 1172 3844 1172 3481 
z
" transform="scale(0.015625)"/>
     </defs>
     <use xlink:href="#DejaVuSans-43"/>
     <use xlink:href="#DejaVuSans-6f" x="69.824219"/>
     <use xlink:href="#DejaVuSans-72" x="131.005859"/>
     <use xlink:href="#DejaVuSans-72" x="170.369141"/>
     <use xlink:href="#DejaVuSans-65" x="209.232422"/>
     <use xlink:href="#DejaVuSans-6c" x="270.755859"/>
     <use xlink:href="#DejaVuSans-61" x="298.539062"/>
     <use xlink:href="#DejaVuSans-74" x="359.818359"/>
     <use xlink:href="#DejaVuSans-69" x="399.027344"/>
     <use xlink:href="#DejaVuSans-6f" x="426.810547"/>
     <use xlink:href="#DejaVuSans-6e" x="487.992188"/>
     <use xlink:href="#DejaVuSans-20" x="551.371094"/>
     <use xlink:href="#DejaVuSans-69" x="583.158203"/>
     <use xlink:href="#DejaVuSans-6e" x="610.941406"/>
     <use xlink:href="#DejaVuSans-3a" x="674.320312"/>
     <use xlink:href="#DejaVuSans-20" x="708.011719"/>
     <use xlink:href="#DejaVuSans-30" x="739.798828"/>
     <use xlink:href="#DejaVuSans-2e" x="803.421875"/>
     <use xlink:href="#DejaVuSans-38" x="835.208984"/>
     <use xlink:href="#DejaVuSans-34" x="898.832031"/>
     <use xlink:href="#DejaVuSans-31" x="962.455078"/>
    </g>
   </g>
  </g>
 </g>
 <defs>
  <clipPath id="p49c2ada093">
   <rect x="83.72" y="23.76" width="612.52" height="475.72"/>
  </clipPath>
 </defs>
</svg>
