<?xml version="1.0" encoding="utf-8" standalone="no"?>
<!DOCTYPE svg PUBLIC "-//W3C//DTD SVG 1.1//EN"
  "http://www.w3.org/Graphics/SVG/1.1/DTD/svg11.dtd">
<svg xmlns:xlink="http://www.w3.org/1999/xlink" width="720pt" height="576pt" viewBox="0 0 720 576" xmlns="http://www.w3.org/2000/svg" version="1.1">
 <metadata>
  <rdf:RDF xmlns:dc="http://purl.org/dc/elements/1.1/" xmlns:cc="http://creativecommons.org/ns#" xmlns:rdf="http://www.w3.org/1999/02/22-rdf-syntax-ns#">
   <cc:Work>
    <dc:type rdf:resource="http://purl.org/dc/dcmitype/StillImage"/>
    <dc:date>2024-12-08T04:18:36.889236</dc:date>
    <dc:format>image/svg+xml</dc:format>
    <dc:creator>
     <cc:Agent>
      <dc:title>Matplotlib v3.8.4, https://matplotlib.org/</dc:title>
     </cc:Agent>
    </dc:creator>
   </cc:Work>
  </rdf:RDF>
 </metadata>
 <defs>
  <style type="text/css">*{stroke-linejoin: round; stroke-linecap: butt}</style>
 </defs>
 <g id="figure_1">
  <g id="patch_1">
   <path d="M 0 576 
L 720 576 
L 720 0 
L 0 0 
z
" style="fill: #ffffff"/>
  </g>
  <g id="axes_1">
   <g id="patch_2">
    <path d="M 83.72 499.48 
L 696.24 499.48 
L 696.24 23.76 
L 83.72 23.76 
z
" style="fill: #ffffff"/>
   </g>
   <g id="QuadContourSet_1">
    <path d="M 88.679483 498.71326 
L 89.741456 499.015746 
L 90.80343 499.217938 
L 91.865404 499.340697 
L 92.927377 499.387475 
L 93.989351 499.351639 
L 95.051325 499.221073 
L 96.113299 498.978695 
L 97.175272 498.599953 
L 97.342268 498.523222 
L 98.237246 498.354177 
L 99.29922 498.096679 
L 100.361193 497.76271 
L 101.423167 497.330838 
L 102.485141 496.78026 
L 103.547114 496.109284 
L 103.699018 496.022589 
L 104.609088 495.767511 
L 105.671062 495.506028 
L 106.733036 495.35881 
L 107.795009 495.410579 
L 108.856983 495.641744 
L 109.918957 495.920233 
L 110.403506 496.022589 
L 110.98093 496.213434 
L 112.042904 496.417015 
L 113.104878 496.464073 
L 114.166852 496.363298 
L 115.228825 496.11062 
L 115.46689 496.022589 
L 116.290799 495.869786 
L 117.352773 495.59904 
L 118.414746 495.233342 
L 119.47672 494.743842 
L 120.538694 494.090374 
L 121.280791 493.521956 
L 121.600667 493.36408 
L 122.662641 492.766537 
L 123.724615 491.970087 
L 124.681126 491.021323 
L 124.786589 490.93546 
L 125.848562 490.001558 
L 126.910536 488.722214 
L 127.065675 488.52069 
L 127.97251 487.274067 
L 128.725183 486.020057 
L 129.034483 485.290574 
L 129.773184 483.519424 
L 130.096457 481.885856 
L 130.295527 481.018791 
L 130.364126 478.518157 
L 130.096457 477.104954 
L 129.881671 476.017524 
L 129.034483 474.360912 
L 128.357122 473.516891 
L 127.97251 473.151344 
L 126.910536 472.414085 
L 125.848562 471.94356 
L 124.786589 471.637895 
L 123.724615 471.444038 
L 122.662641 471.331234 
L 121.600667 471.276274 
L 120.538694 471.256405 
L 119.47672 471.246387 
L 118.414746 471.218288 
L 117.352773 471.14596 
L 116.290799 471.016258 
L 116.290799 471.016258 
L 115.228825 470.732638 
L 114.166852 470.428196 
L 113.104878 470.115594 
L 112.042904 469.800986 
L 110.98093 469.499008 
L 109.918957 469.236012 
L 108.856983 469.038178 
L 107.795009 468.916381 
L 106.733036 468.861287 
L 105.671062 468.848584 
L 104.609088 468.846594 
L 103.547114 468.823748 
L 102.485141 468.759598 
L 101.423167 468.659097 
L 100.361193 468.557471 
L 99.525715 468.515625 
L 99.29922 468.490765 
L 98.963386 468.515625 
L 98.237246 468.540432 
L 97.175272 468.691179 
L 96.113299 468.977219 
L 95.051325 469.431249 
L 93.989351 470.114533 
L 93.028712 471.016258 
L 92.927377 471.067578 
L 91.865404 471.701335 
L 90.80343 472.63106 
L 90.061421 473.516891 
L 89.741456 473.757609 
L 88.679483 474.733879 
L 87.752044 476.017524 
L 87.617509 476.158558 
L 86.555535 477.438699 
L 85.904037 478.518157 
L 85.493562 479.148204 
L 84.517916 481.018791 
L 84.431588 481.208185 
L 83.434683 483.519424 
L 83.369614 483.741904 
L 82.618666 486.020057 
L 82.30764 488.014332 
L 82.200922 488.52069 
L 82.137007 491.021323 
L 82.30764 491.895756 
L 82.611245 493.521956 
L 83.369614 495.110176 
L 84.003513 496.022589 
L 84.431588 496.544558 
L 85.493562 497.495013 
L 86.555535 498.05937 
L 87.617509 498.400248 
L 88.19632 498.523222 
z
M 92.312072 496.022589 
L 91.865404 495.98749 
L 90.80343 495.84476 
L 89.741456 495.614106 
L 88.679483 495.240962 
L 87.617509 494.627172 
L 86.555535 493.601768 
L 86.489784 493.521956 
L 85.493562 491.725092 
L 85.209719 491.021323 
L 84.927394 488.52069 
L 85.254095 486.020057 
L 85.493562 485.279304 
L 86.014972 483.519424 
L 86.555535 482.345108 
L 87.223915 481.018791 
L 87.617509 480.341242 
L 88.679483 478.815792 
L 88.922506 478.518157 
L 89.741456 477.417063 
L 90.80343 476.375537 
L 91.260117 476.017524 
L 91.865404 475.373064 
L 92.927377 474.503814 
L 93.989351 473.894433 
L 94.902952 473.516891 
L 95.051325 473.415137 
L 96.113299 472.877527 
L 97.175272 472.553633 
L 98.237246 472.392329 
L 99.29922 472.349309 
L 100.361193 472.376718 
L 101.423167 472.427872 
L 102.485141 472.474009 
L 103.547114 472.516125 
L 104.609088 472.58104 
L 105.671062 472.708591 
L 106.733036 472.939521 
L 107.795009 473.305023 
L 108.266999 473.516891 
L 108.856983 473.735493 
L 109.918957 474.218977 
L 110.98093 474.794524 
L 112.042904 475.419598 
L 113.104878 476.010891 
L 113.121815 476.017524 
L 114.166852 476.353526 
L 115.228825 476.447446 
L 116.290799 476.37172 
L 117.352773 476.220876 
L 118.414746 476.063499 
L 118.836326 476.017524 
L 119.47672 475.922316 
L 120.538694 475.886482 
L 121.600667 476.017524 
L 121.600667 476.017524 
L 122.662641 476.334168 
L 123.724615 476.98296 
L 124.786589 478.152876 
L 125.031014 478.518157 
L 125.592701 481.018791 
L 125.223744 483.519424 
L 124.786589 484.496101 
L 124.091888 486.020057 
L 123.724615 486.547325 
L 122.662641 487.920623 
L 122.130222 488.52069 
L 121.600667 489.065483 
L 120.538694 489.994342 
L 119.47672 490.714449 
L 118.929387 491.021323 
L 118.414746 491.36723 
L 117.352773 491.914192 
L 116.290799 492.279997 
L 115.228825 492.485959 
L 114.166852 492.532697 
L 113.104878 492.402451 
L 112.042904 492.072285 
L 110.98093 491.560257 
L 109.935263 491.021323 
L 109.918957 491.013449 
L 108.856983 490.789165 
L 107.795009 490.907997 
L 107.478607 491.021323 
L 106.733036 491.348441 
L 105.671062 491.974671 
L 104.609088 492.585634 
L 103.547114 493.12469 
L 102.650491 493.521956 
L 102.485141 493.636941 
L 101.423167 494.324923 
L 100.361193 494.856607 
L 99.29922 495.265279 
L 98.237246 495.576462 
L 97.175272 495.807211 
L 96.113299 495.967229 
L 95.488767 496.022589 
L 95.051325 496.09584 
L 93.989351 496.15361 
L 92.927377 496.105327 
z
" clip-path="url(#p79fd688cfb)" style="fill: #edf4fc"/>
    <path d="M 92.927377 496.105327 
L 93.989351 496.15361 
L 95.051325 496.09584 
L 95.488767 496.022589 
L 96.113299 495.967229 
L 97.175272 495.807211 
L 98.237246 495.576462 
L 99.29922 495.265279 
L 100.361193 494.856607 
L 101.423167 494.324923 
L 102.485141 493.636941 
L 102.650491 493.521956 
L 103.547114 493.12469 
L 104.609088 492.585634 
L 105.671062 491.974671 
L 106.733036 491.348441 
L 107.478607 491.021323 
L 107.795009 490.907997 
L 108.856983 490.789165 
L 109.918957 491.013449 
L 109.935263 491.021323 
L 110.98093 491.560257 
L 112.042904 492.072285 
L 113.104878 492.402451 
L 114.166852 492.532697 
L 115.228825 492.485959 
L 116.290799 492.279997 
L 117.352773 491.914192 
L 118.414746 491.36723 
L 118.929387 491.021323 
L 119.47672 490.714449 
L 120.538694 489.994342 
L 121.600667 489.065483 
L 122.130222 488.52069 
L 122.662641 487.920623 
L 123.724615 486.547325 
L 124.091888 486.020057 
L 124.786589 484.496101 
L 125.223744 483.519424 
L 125.592701 481.018791 
L 125.031014 478.518157 
L 124.786589 478.152876 
L 123.724615 476.98296 
L 122.662641 476.334168 
L 121.600667 476.017524 
L 121.600667 476.017524 
L 120.538694 475.886482 
L 119.47672 475.922316 
L 118.836326 476.017524 
L 118.414746 476.063499 
L 117.352773 476.220876 
L 116.290799 476.37172 
L 115.228825 476.447446 
L 114.166852 476.353526 
L 113.121815 476.017524 
L 113.104878 476.010891 
L 112.042904 475.419598 
L 110.98093 474.794524 
L 109.918957 474.218977 
L 108.856983 473.735493 
L 108.266999 473.516891 
L 107.795009 473.305023 
L 106.733036 472.939521 
L 105.671062 472.708591 
L 104.609088 472.58104 
L 103.547114 472.516125 
L 102.485141 472.474009 
L 101.423167 472.427872 
L 100.361193 472.376718 
L 99.29922 472.349309 
L 98.237246 472.392329 
L 97.175272 472.553633 
L 96.113299 472.877527 
L 95.051325 473.415137 
L 94.902952 473.516891 
L 93.989351 473.894433 
L 92.927377 474.503814 
L 91.865404 475.373064 
L 91.260117 476.017524 
L 90.80343 476.375537 
L 89.741456 477.417063 
L 88.922506 478.518157 
L 88.679483 478.815792 
L 87.617509 480.341242 
L 87.223915 481.018791 
L 86.555535 482.345108 
L 86.014972 483.519424 
L 85.493562 485.279304 
L 85.254095 486.020057 
L 84.927394 488.52069 
L 85.209719 491.021323 
L 85.493562 491.725092 
L 86.489784 493.521956 
L 86.555535 493.601768 
L 87.617509 494.627172 
L 88.679483 495.240962 
L 89.741456 495.614106 
L 90.80343 495.84476 
L 91.865404 495.98749 
L 92.312072 496.022589 
z
M 89.203393 493.521956 
L 88.679483 493.207038 
L 87.617509 492.169699 
L 86.891736 491.021323 
L 86.555535 489.575063 
L 86.343195 488.52069 
L 86.555535 486.315687 
L 86.577791 486.020057 
L 87.325196 483.519424 
L 87.617509 482.910022 
L 88.626673 481.018791 
L 88.679483 480.933609 
L 89.741456 479.36786 
L 90.504367 478.518157 
L 90.80343 478.151651 
L 91.865404 477.063994 
L 92.927377 476.290107 
L 93.406462 476.017524 
L 93.989351 475.560213 
L 95.051325 474.951576 
L 96.113299 474.55187 
L 97.175272 474.311862 
L 98.237246 474.195274 
L 99.29922 474.166033 
L 100.361193 474.185844 
L 101.423167 474.22403 
L 102.485141 474.270479 
L 103.547114 474.339687 
L 104.609088 474.465021 
L 105.671062 474.68937 
L 106.733036 475.054943 
L 107.795009 475.592239 
L 108.459765 476.017524 
L 108.856983 476.299938 
L 109.918957 477.179412 
L 110.98093 478.187673 
L 111.374283 478.518157 
L 112.042904 479.281942 
L 113.104878 479.781021 
L 114.166852 479.723698 
L 115.228825 479.420615 
L 116.290799 479.059574 
L 117.352773 478.729026 
L 118.2609 478.518157 
L 118.414746 478.480671 
L 119.47672 478.38595 
L 120.538694 478.518157 
L 120.538694 478.518157 
L 121.600667 479.101729 
L 122.662641 480.505923 
L 122.908957 481.018791 
L 122.81196 483.519424 
L 122.662641 483.848846 
L 121.668057 486.020057 
L 121.600667 486.108189 
L 120.538694 487.377945 
L 119.47672 488.415346 
L 119.350515 488.52069 
L 118.414746 489.188932 
L 117.352773 489.724968 
L 116.290799 490.056788 
L 115.228825 490.17713 
L 114.166852 490.045405 
L 113.104878 489.607903 
L 112.042904 488.883925 
L 111.521661 488.52069 
L 110.98093 488.004503 
L 109.918957 487.72769 
L 108.856983 488.03921 
L 108.026149 488.52069 
L 107.795009 488.638693 
L 106.733036 489.408203 
L 105.671062 490.157632 
L 104.609088 490.83635 
L 104.315665 491.021323 
L 103.547114 491.607875 
L 102.485141 492.300499 
L 101.423167 492.857344 
L 100.361193 493.306593 
L 99.751593 493.521956 
L 99.29922 493.762149 
L 98.237246 494.202659 
L 97.175272 494.507979 
L 96.113299 494.699026 
L 95.051325 494.790317 
L 93.989351 494.792724 
L 92.927377 494.712954 
L 91.865404 494.547866 
L 90.80343 494.275078 
L 89.741456 493.842421 
z
" clip-path="url(#p79fd688cfb)" style="fill: #d9e8f5"/>
    <path d="M 89.741456 493.842421 
L 90.80343 494.275078 
L 91.865404 494.547866 
L 92.927377 494.712954 
L 93.989351 494.792724 
L 95.051325 494.790317 
L 96.113299 494.699026 
L 97.175272 494.507979 
L 98.237246 494.202659 
L 99.29922 493.762149 
L 99.751593 493.521956 
L 100.361193 493.306593 
L 101.423167 492.857344 
L 102.485141 492.300499 
L 103.547114 491.607875 
L 104.315665 491.021323 
L 104.609088 490.83635 
L 105.671062 490.157632 
L 106.733036 489.408203 
L 107.795009 488.638693 
L 108.026149 488.52069 
L 108.856983 488.03921 
L 109.918957 487.72769 
L 110.98093 488.004503 
L 111.521661 488.52069 
L 112.042904 488.883925 
L 113.104878 489.607903 
L 114.166852 490.045405 
L 115.228825 490.17713 
L 116.290799 490.056788 
L 117.352773 489.724968 
L 118.414746 489.188932 
L 119.350515 488.52069 
L 119.47672 488.415346 
L 120.538694 487.377945 
L 121.600667 486.108189 
L 121.668057 486.020057 
L 122.662641 483.848846 
L 122.81196 483.519424 
L 122.908957 481.018791 
L 122.662641 480.505923 
L 121.600667 479.101729 
L 120.538694 478.518157 
L 120.538694 478.518157 
L 119.47672 478.38595 
L 118.414746 478.480671 
L 118.2609 478.518157 
L 117.352773 478.729026 
L 116.290799 479.059574 
L 115.228825 479.420615 
L 114.166852 479.723698 
L 113.104878 479.781021 
L 112.042904 479.281942 
L 111.374283 478.518157 
L 110.98093 478.187673 
L 109.918957 477.179412 
L 108.856983 476.299938 
L 108.459765 476.017524 
L 107.795009 475.592239 
L 106.733036 475.054943 
L 105.671062 474.68937 
L 104.609088 474.465021 
L 103.547114 474.339687 
L 102.485141 474.270479 
L 101.423167 474.22403 
L 100.361193 474.185844 
L 99.29922 474.166033 
L 98.237246 474.195274 
L 97.175272 474.311862 
L 96.113299 474.55187 
L 95.051325 474.951576 
L 93.989351 475.560213 
L 93.406462 476.017524 
L 92.927377 476.290107 
L 91.865404 477.063994 
L 90.80343 478.151651 
L 90.504367 478.518157 
L 89.741456 479.36786 
L 88.679483 480.933609 
L 88.626673 481.018791 
L 87.617509 482.910022 
L 87.325196 483.519424 
L 86.577791 486.020057 
L 86.555535 486.315687 
L 86.343195 488.52069 
L 86.555535 489.575063 
L 86.891736 491.021323 
L 87.617509 492.169699 
L 88.679483 493.207038 
L 89.203393 493.521956 
z
M 92.487539 493.521956 
L 91.865404 493.417674 
L 90.80343 493.122686 
L 89.741456 492.621435 
L 88.679483 491.758686 
L 88.085367 491.021323 
L 87.617509 489.774548 
L 87.260953 488.52069 
L 87.398256 486.020057 
L 87.617509 485.325036 
L 88.155005 483.519424 
L 88.679483 482.478738 
L 89.511491 481.018791 
L 89.741456 480.675348 
L 90.80343 479.301034 
L 91.592933 478.518157 
L 91.865404 478.220664 
L 92.927377 477.26863 
L 93.989351 476.59233 
L 95.051325 476.111647 
L 95.347486 476.017524 
L 96.113299 475.678187 
L 97.175272 475.40019 
L 98.237246 475.27158 
L 99.29922 475.243305 
L 100.361193 475.269561 
L 101.423167 475.320093 
L 102.485141 475.392427 
L 103.547114 475.512213 
L 104.609088 475.723852 
L 105.501638 476.017524 
L 105.671062 476.070902 
L 106.733036 476.565422 
L 107.795009 477.302285 
L 108.856983 478.304192 
L 109.066081 478.518157 
L 109.918957 480.153135 
L 110.425185 481.018791 
L 110.6262 483.519424 
L 109.918957 484.453143 
L 108.856983 485.926244 
L 108.802109 486.020057 
L 107.795009 486.989888 
L 106.733036 487.984464 
L 106.167504 488.52069 
L 105.671062 488.946651 
L 104.609088 489.821497 
L 103.547114 490.564446 
L 102.810115 491.021323 
L 102.485141 491.260888 
L 101.423167 491.953373 
L 100.361193 492.496469 
L 99.29922 492.920062 
L 98.237246 493.243681 
L 97.175272 493.477493 
L 96.854649 493.521956 
L 96.113299 493.671762 
L 95.051325 493.760677 
L 93.989351 493.739002 
L 92.927377 493.615264 
z
M 112.95448 486.020057 
L 113.104878 484.610606 
L 113.229174 483.519424 
L 114.166852 482.638539 
L 115.228825 481.765092 
L 116.276627 481.018791 
L 116.290799 481.011707 
L 117.352773 480.594918 
L 118.414746 480.396431 
L 119.47672 480.488594 
L 120.538694 481.018791 
L 120.538694 481.018791 
L 121.047301 483.519424 
L 120.538694 484.612766 
L 119.867136 486.020057 
L 119.47672 486.430595 
L 118.414746 487.312308 
L 117.352773 487.953923 
L 116.290799 488.324526 
L 115.228825 488.29121 
L 114.166852 487.616484 
L 113.104878 486.221002 
z
" clip-path="url(#p79fd688cfb)" style="fill: #c9ddf0"/>
    <path d="M 92.927377 493.615264 
L 93.989351 493.739002 
L 95.051325 493.760677 
L 96.113299 493.671762 
L 96.854649 493.521956 
L 97.175272 493.477493 
L 98.237246 493.243681 
L 99.29922 492.920062 
L 100.361193 492.496469 
L 101.423167 491.953373 
L 102.485141 491.260888 
L 102.810115 491.021323 
L 103.547114 490.564446 
L 104.609088 489.821497 
L 105.671062 488.946651 
L 106.167504 488.52069 
L 106.733036 487.984464 
L 107.795009 486.989888 
L 108.802109 486.020057 
L 108.856983 485.926244 
L 109.918957 484.453143 
L 110.6262 483.519424 
L 110.425185 481.018791 
L 109.918957 480.153135 
L 109.066081 478.518157 
L 108.856983 478.304192 
L 107.795009 477.302285 
L 106.733036 476.565422 
L 105.671062 476.070902 
L 105.501638 476.017524 
L 104.609088 475.723852 
L 103.547114 475.512213 
L 102.485141 475.392427 
L 101.423167 475.320093 
L 100.361193 475.269561 
L 99.29922 475.243305 
L 98.237246 475.27158 
L 97.175272 475.40019 
L 96.113299 475.678187 
L 95.347486 476.017524 
L 95.051325 476.111647 
L 93.989351 476.59233 
L 92.927377 477.26863 
L 91.865404 478.220664 
L 91.592933 478.518157 
L 90.80343 479.301034 
L 89.741456 480.675348 
L 89.511491 481.018791 
L 88.679483 482.478738 
L 88.155005 483.519424 
L 87.617509 485.325036 
L 87.398256 486.020057 
L 87.260953 488.52069 
L 87.617509 489.774548 
L 88.085367 491.021323 
L 88.679483 491.758686 
L 89.741456 492.621435 
L 90.80343 493.122686 
L 91.865404 493.417674 
L 92.487539 493.521956 
z
M 89.069265 491.021323 
L 88.679483 490.366089 
L 87.958376 488.52069 
L 88.011099 486.020057 
L 88.679483 483.861956 
L 88.78118 483.519424 
L 89.741456 481.728275 
L 90.17948 481.018791 
L 90.80343 480.171666 
L 91.865404 479.026716 
L 92.460656 478.518157 
L 92.927377 478.079616 
L 93.989351 477.31296 
L 95.051325 476.781159 
L 96.113299 476.428129 
L 97.175272 476.218755 
L 98.237246 476.122212 
L 99.29922 476.103256 
L 100.361193 476.127249 
L 101.423167 476.17459 
L 102.485141 476.251283 
L 103.547114 476.389392 
L 104.609088 476.641131 
L 105.671062 477.069891 
L 106.733036 477.738324 
L 107.624261 478.518157 
L 107.795009 478.784683 
L 108.856983 480.802181 
L 108.966054 481.018791 
L 108.856983 483.519424 
L 108.856983 483.519424 
L 107.795009 485.471081 
L 107.508704 486.020057 
L 106.733036 486.875368 
L 105.671062 487.97678 
L 105.126342 488.52069 
L 104.609088 488.980402 
L 103.547114 489.839893 
L 102.485141 490.557434 
L 101.691471 491.021323 
L 101.423167 491.204174 
L 100.361193 491.82505 
L 99.29922 492.298627 
L 98.237246 492.649727 
L 97.175272 492.893209 
L 96.113299 493.037382 
L 95.051325 493.088455 
L 93.989351 493.052235 
L 92.927377 492.928552 
L 91.865404 492.698845 
L 90.80343 492.310985 
L 89.741456 491.660516 
z
M 113.104878 486.221002 
L 114.166852 487.616484 
L 115.228825 488.29121 
L 116.290799 488.324526 
L 117.352773 487.953923 
L 118.414746 487.312308 
L 119.47672 486.430595 
L 119.867136 486.020057 
L 120.538694 484.612766 
L 121.047301 483.519424 
L 120.538694 481.018791 
L 120.538694 481.018791 
L 119.47672 480.488594 
L 118.414746 480.396431 
L 117.352773 480.594918 
L 116.290799 481.011707 
L 116.276627 481.018791 
L 115.228825 481.765092 
L 114.166852 482.638539 
L 113.229174 483.519424 
L 113.104878 484.610606 
L 112.95448 486.020057 
z
M 115.653226 486.020057 
L 115.926454 483.519424 
L 116.290799 483.240806 
L 117.352773 482.780236 
L 118.414746 482.831366 
L 119.138353 483.519424 
L 118.414746 484.80675 
L 117.661678 486.020057 
L 117.352773 486.178443 
L 116.290799 486.282293 
z
" clip-path="url(#p79fd688cfb)" style="fill: #b5d4e9"/>
    <path d="M 89.741456 491.660516 
L 90.80343 492.310985 
L 91.865404 492.698845 
L 92.927377 492.928552 
L 93.989351 493.052235 
L 95.051325 493.088455 
L 96.113299 493.037382 
L 97.175272 492.893209 
L 98.237246 492.649727 
L 99.29922 492.298627 
L 100.361193 491.82505 
L 101.423167 491.204174 
L 101.691471 491.021323 
L 102.485141 490.557434 
L 103.547114 489.839893 
L 104.609088 488.980402 
L 105.126342 488.52069 
L 105.671062 487.97678 
L 106.733036 486.875368 
L 107.508704 486.020057 
L 107.795009 485.471081 
L 108.856983 483.519424 
L 108.856983 483.519424 
L 108.966054 481.018791 
L 108.856983 480.802181 
L 107.795009 478.784683 
L 107.624261 478.518157 
L 106.733036 477.738324 
L 105.671062 477.069891 
L 104.609088 476.641131 
L 103.547114 476.389392 
L 102.485141 476.251283 
L 101.423167 476.17459 
L 100.361193 476.127249 
L 99.29922 476.103256 
L 98.237246 476.122212 
L 97.175272 476.218755 
L 96.113299 476.428129 
L 95.051325 476.781159 
L 93.989351 477.31296 
L 92.927377 478.079616 
L 92.460656 478.518157 
L 91.865404 479.026716 
L 90.80343 480.171666 
L 90.17948 481.018791 
L 89.741456 481.728275 
L 88.78118 483.519424 
L 88.679483 483.861956 
L 88.011099 486.020057 
L 87.958376 488.52069 
L 88.679483 490.366089 
L 89.069265 491.021323 
z
M 92.368196 491.021323 
L 91.865404 490.818391 
L 90.80343 490.074837 
L 89.741456 488.671891 
L 89.660676 488.52069 
L 89.451296 486.020057 
L 89.741456 485.059306 
L 90.195629 483.519424 
L 90.80343 482.474298 
L 91.799618 481.018791 
L 91.865404 480.939834 
L 92.927377 479.868168 
L 93.989351 479.084263 
L 95.051325 478.518157 
L 95.051325 478.518157 
L 96.113299 478.101842 
L 97.175272 477.87306 
L 98.237246 477.780704 
L 99.29922 477.777568 
L 100.361193 477.829473 
L 101.423167 477.92919 
L 102.485141 478.101707 
L 103.547114 478.39931 
L 103.82554 478.518157 
L 104.609088 478.976098 
L 105.671062 480.016819 
L 106.361119 481.018791 
L 106.474971 483.519424 
L 105.671062 485.193825 
L 105.292604 486.020057 
L 104.609088 486.810162 
L 103.547114 487.929154 
L 102.938071 488.52069 
L 102.485141 488.890404 
L 101.423167 489.640133 
L 100.361193 490.245746 
L 99.29922 490.729809 
L 98.465063 491.021323 
L 98.237246 491.108759 
L 97.175272 491.377326 
L 96.113299 491.511744 
L 95.051325 491.526942 
L 93.989351 491.430532 
L 92.927377 491.213062 
z
M 116.290799 486.282293 
L 117.352773 486.178443 
L 117.661678 486.020057 
L 118.414746 484.80675 
L 119.138353 483.519424 
L 118.414746 482.831366 
L 117.352773 482.780236 
L 116.290799 483.240806 
L 115.926454 483.519424 
L 115.653226 486.020057 
z
" clip-path="url(#p79fd688cfb)" style="fill: #8dc1dd"/>
    <path d="M 92.927377 491.213062 
L 93.989351 491.430532 
L 95.051325 491.526942 
L 96.113299 491.511744 
L 97.175272 491.377326 
L 98.237246 491.108759 
L 98.465063 491.021323 
L 99.29922 490.729809 
L 100.361193 490.245746 
L 101.423167 489.640133 
L 102.485141 488.890404 
L 102.938071 488.52069 
L 103.547114 487.929154 
L 104.609088 486.810162 
L 105.292604 486.020057 
L 105.671062 485.193825 
L 106.474971 483.519424 
L 106.361119 481.018791 
L 105.671062 480.016819 
L 104.609088 478.976098 
L 103.82554 478.518157 
L 103.547114 478.39931 
L 102.485141 478.101707 
L 101.423167 477.92919 
L 100.361193 477.829473 
L 99.29922 477.777568 
L 98.237246 477.780704 
L 97.175272 477.87306 
L 96.113299 478.101842 
L 95.051325 478.518157 
L 95.051325 478.518157 
L 93.989351 479.084263 
L 92.927377 479.868168 
L 91.865404 480.939834 
L 91.799618 481.018791 
L 90.80343 482.474298 
L 90.195629 483.519424 
L 89.741456 485.059306 
L 89.451296 486.020057 
L 89.660676 488.52069 
L 89.741456 488.671891 
L 90.80343 490.074837 
L 91.865404 490.818391 
L 92.368196 491.021323 
z
M 90.88438 488.52069 
L 90.80343 488.238372 
L 90.386922 486.020057 
L 90.80343 484.592879 
L 91.116558 483.519424 
L 91.865404 482.368329 
L 92.927377 481.018791 
L 92.927377 481.018791 
L 93.989351 480.158976 
L 95.051325 479.560882 
L 96.113299 479.17359 
L 97.175272 478.960222 
L 98.237246 478.880541 
L 99.29922 478.892239 
L 100.361193 478.969994 
L 101.423167 479.124574 
L 102.485141 479.411098 
L 103.547114 479.93104 
L 104.609088 480.83273 
L 104.769613 481.018791 
L 105.17614 483.519424 
L 104.609088 484.757914 
L 104.058336 486.020057 
L 103.547114 486.590935 
L 102.485141 487.668637 
L 101.546647 488.52069 
L 101.423167 488.611537 
L 100.361193 489.274251 
L 99.29922 489.783168 
L 98.237246 490.153905 
L 97.175272 490.39217 
L 96.113299 490.500691 
L 95.051325 490.483256 
L 93.989351 490.336077 
L 92.927377 490.025276 
L 91.865404 489.456077 
z
" clip-path="url(#p79fd688cfb)" style="fill: #5aa2cf"/>
    <path d="M 91.865404 489.456077 
L 92.927377 490.025276 
L 93.989351 490.336077 
L 95.051325 490.483256 
L 96.113299 490.500691 
L 97.175272 490.39217 
L 98.237246 490.153905 
L 99.29922 489.783168 
L 100.361193 489.274251 
L 101.423167 488.611537 
L 101.546647 488.52069 
L 102.485141 487.668637 
L 103.547114 486.590935 
L 104.058336 486.020057 
L 104.609088 484.757914 
L 105.17614 483.519424 
L 104.769613 481.018791 
L 104.609088 480.83273 
L 103.547114 479.93104 
L 102.485141 479.411098 
L 101.423167 479.124574 
L 100.361193 478.969994 
L 99.29922 478.892239 
L 98.237246 478.880541 
L 97.175272 478.960222 
L 96.113299 479.17359 
L 95.051325 479.560882 
L 93.989351 480.158976 
L 92.927377 481.018791 
L 92.927377 481.018791 
L 91.865404 482.368329 
L 91.116558 483.519424 
L 90.80343 484.592879 
L 90.386922 486.020057 
L 90.80343 488.238372 
L 90.88438 488.52069 
z
M 93.752209 488.52069 
L 92.927377 487.797618 
L 91.977726 486.020057 
L 92.678776 483.519424 
L 92.927377 483.19382 
L 93.989351 482.090939 
L 95.051325 481.265065 
L 95.531221 481.018791 
L 96.113299 480.803048 
L 97.175272 480.604323 
L 98.237246 480.54883 
L 99.29922 480.597123 
L 100.361193 480.741456 
L 101.423167 481.018791 
L 101.423167 481.018791 
L 102.485141 482.123795 
L 103.142177 483.519424 
L 102.485141 485.102294 
L 102.121901 486.020057 
L 101.423167 486.670503 
L 100.361193 487.510071 
L 99.29922 488.206244 
L 98.65838 488.52069 
L 98.237246 488.667482 
L 97.175272 488.877443 
L 96.113299 488.939897 
L 95.051325 488.859397 
L 93.989351 488.617999 
z
" clip-path="url(#p79fd688cfb)" style="fill: #3080bd"/>
    <path d="M 93.989351 488.617999 
L 95.051325 488.859397 
L 96.113299 488.939897 
L 97.175272 488.877443 
L 98.237246 488.667482 
L 98.65838 488.52069 
L 99.29922 488.206244 
L 100.361193 487.510071 
L 101.423167 486.670503 
L 102.121901 486.020057 
L 102.485141 485.102294 
L 103.142177 483.519424 
L 102.485141 482.123795 
L 101.423167 481.018791 
L 101.423167 481.018791 
L 100.361193 480.741456 
L 99.29922 480.597123 
L 98.237246 480.54883 
L 97.175272 480.604323 
L 96.113299 480.803048 
L 95.531221 481.018791 
L 95.051325 481.265065 
L 93.989351 482.090939 
L 92.927377 483.19382 
L 92.678776 483.519424 
L 91.977726 486.020057 
L 92.927377 487.797618 
L 93.752209 488.52069 
z
M 93.49026 486.020057 
L 93.989351 483.97359 
L 94.116344 483.519424 
L 95.051325 482.832105 
L 96.113299 482.337386 
L 97.175272 482.095139 
L 98.237246 482.06376 
L 99.29922 482.224085 
L 100.361193 482.637896 
L 101.423167 483.519424 
L 100.492373 486.020057 
L 100.361193 486.122222 
L 99.29922 486.752871 
L 98.237246 487.197302 
L 97.175272 487.437537 
L 96.113299 487.453596 
L 95.051325 487.209036 
L 93.989351 486.585622 
z
" clip-path="url(#p79fd688cfb)" style="fill: #0f5aa3"/>
    <path d="M 93.989351 486.585622 
L 95.051325 487.209036 
L 96.113299 487.453596 
L 97.175272 487.437537 
L 98.237246 487.197302 
L 99.29922 486.752871 
L 100.361193 486.122222 
L 100.492373 486.020057 
L 101.423167 483.519424 
L 100.361193 482.637896 
L 99.29922 482.224085 
L 98.237246 482.06376 
L 97.175272 482.095139 
L 96.113299 482.337386 
L 95.051325 482.832105 
L 94.116344 483.519424 
L 93.989351 483.97359 
L 93.49026 486.020057 
z
" clip-path="url(#p79fd688cfb)" style="fill: #083d7f"/>
   </g>
   <g id="matplotlib.axis_1">
    <g id="xtick_1">
     <g id="line2d_1">
      <defs>
       <path id="m379c0e36f1" d="M 0 0 
L 0 3.5 
" style="stroke: #000000; stroke-width: 0.8"/>
      </defs>
      <g>
       <use xlink:href="#m379c0e36f1" x="86.620531" y="499.48" style="stroke: #000000; stroke-width: 0.8"/>
      </g>
     </g>
     <g id="text_1">
      <!-- 0 -->
      <g transform="translate(79.621781 523.196563) scale(0.22 -0.22)">
       <defs>
        <path id="DejaVuSans-30" d="M 2034 4250 
Q 1547 4250 1301 3770 
Q 1056 3291 1056 2328 
Q 1056 1369 1301 889 
Q 1547 409 2034 409 
Q 2525 409 2770 889 
Q 3016 1369 3016 2328 
Q 3016 3291 2770 3770 
Q 2525 4250 2034 4250 
z
M 2034 4750 
Q 2819 4750 3233 4129 
Q 3647 3509 3647 2328 
Q 3647 1150 3233 529 
Q 2819 -91 2034 -91 
Q 1250 -91 836 529 
Q 422 1150 422 2328 
Q 422 3509 836 4129 
Q 1250 4750 2034 4750 
z
" transform="scale(0.015625)"/>
       </defs>
       <use xlink:href="#DejaVuSans-30"/>
      </g>
     </g>
    </g>
    <g id="xtick_2">
     <g id="line2d_2">
      <g>
       <use xlink:href="#m379c0e36f1" x="177.952662" y="499.48" style="stroke: #000000; stroke-width: 0.8"/>
      </g>
     </g>
     <g id="text_2">
      <!-- 10 -->
      <g transform="translate(163.955162 523.196563) scale(0.22 -0.22)">
       <defs>
        <path id="DejaVuSans-31" d="M 794 531 
L 1825 531 
L 1825 4091 
L 703 3866 
L 703 4441 
L 1819 4666 
L 2450 4666 
L 2450 531 
L 3481 531 
L 3481 0 
L 794 0 
L 794 531 
z
" transform="scale(0.015625)"/>
       </defs>
       <use xlink:href="#DejaVuSans-31"/>
       <use xlink:href="#DejaVuSans-30" x="63.623047"/>
      </g>
     </g>
    </g>
    <g id="xtick_3">
     <g id="line2d_3">
      <g>
       <use xlink:href="#m379c0e36f1" x="269.284793" y="499.48" style="stroke: #000000; stroke-width: 0.8"/>
      </g>
     </g>
     <g id="text_3">
      <!-- 20 -->
      <g transform="translate(255.287293 523.196563) scale(0.22 -0.22)">
       <defs>
        <path id="DejaVuSans-32" d="M 1228 531 
L 3431 531 
L 3431 0 
L 469 0 
L 469 531 
Q 828 903 1448 1529 
Q 2069 2156 2228 2338 
Q 2531 2678 2651 2914 
Q 2772 3150 2772 3378 
Q 2772 3750 2511 3984 
Q 2250 4219 1831 4219 
Q 1534 4219 1204 4116 
Q 875 4013 500 3803 
L 500 4441 
Q 881 4594 1212 4672 
Q 1544 4750 1819 4750 
Q 2544 4750 2975 4387 
Q 3406 4025 3406 3419 
Q 3406 3131 3298 2873 
Q 3191 2616 2906 2266 
Q 2828 2175 2409 1742 
Q 1991 1309 1228 531 
z
" transform="scale(0.015625)"/>
       </defs>
       <use xlink:href="#DejaVuSans-32"/>
       <use xlink:href="#DejaVuSans-30" x="63.623047"/>
      </g>
     </g>
    </g>
    <g id="xtick_4">
     <g id="line2d_4">
      <g>
       <use xlink:href="#m379c0e36f1" x="360.616924" y="499.48" style="stroke: #000000; stroke-width: 0.8"/>
      </g>
     </g>
     <g id="text_4">
      <!-- 30 -->
      <g transform="translate(346.619424 523.196563) scale(0.22 -0.22)">
       <defs>
        <path id="DejaVuSans-33" d="M 2597 2516 
Q 3050 2419 3304 2112 
Q 3559 1806 3559 1356 
Q 3559 666 3084 287 
Q 2609 -91 1734 -91 
Q 1441 -91 1130 -33 
Q 819 25 488 141 
L 488 750 
Q 750 597 1062 519 
Q 1375 441 1716 441 
Q 2309 441 2620 675 
Q 2931 909 2931 1356 
Q 2931 1769 2642 2001 
Q 2353 2234 1838 2234 
L 1294 2234 
L 1294 2753 
L 1863 2753 
Q 2328 2753 2575 2939 
Q 2822 3125 2822 3475 
Q 2822 3834 2567 4026 
Q 2313 4219 1838 4219 
Q 1578 4219 1281 4162 
Q 984 4106 628 3988 
L 628 4550 
Q 988 4650 1302 4700 
Q 1616 4750 1894 4750 
Q 2613 4750 3031 4423 
Q 3450 4097 3450 3541 
Q 3450 3153 3228 2886 
Q 3006 2619 2597 2516 
z
" transform="scale(0.015625)"/>
       </defs>
       <use xlink:href="#DejaVuSans-33"/>
       <use xlink:href="#DejaVuSans-30" x="63.623047"/>
      </g>
     </g>
    </g>
    <g id="xtick_5">
     <g id="line2d_5">
      <g>
       <use xlink:href="#m379c0e36f1" x="451.949056" y="499.48" style="stroke: #000000; stroke-width: 0.8"/>
      </g>
     </g>
     <g id="text_5">
      <!-- 40 -->
      <g transform="translate(437.951556 523.196563) scale(0.22 -0.22)">
       <defs>
        <path id="DejaVuSans-34" d="M 2419 4116 
L 825 1625 
L 2419 1625 
L 2419 4116 
z
M 2253 4666 
L 3047 4666 
L 3047 1625 
L 3713 1625 
L 3713 1100 
L 3047 1100 
L 3047 0 
L 2419 0 
L 2419 1100 
L 313 1100 
L 313 1709 
L 2253 4666 
z
" transform="scale(0.015625)"/>
       </defs>
       <use xlink:href="#DejaVuSans-34"/>
       <use xlink:href="#DejaVuSans-30" x="63.623047"/>
      </g>
     </g>
    </g>
    <g id="xtick_6">
     <g id="line2d_6">
      <g>
       <use xlink:href="#m379c0e36f1" x="543.281187" y="499.48" style="stroke: #000000; stroke-width: 0.8"/>
      </g>
     </g>
     <g id="text_6">
      <!-- 50 -->
      <g transform="translate(529.283687 523.196563) scale(0.22 -0.22)">
       <defs>
        <path id="DejaVuSans-35" d="M 691 4666 
L 3169 4666 
L 3169 4134 
L 1269 4134 
L 1269 2991 
Q 1406 3038 1543 3061 
Q 1681 3084 1819 3084 
Q 2600 3084 3056 2656 
Q 3513 2228 3513 1497 
Q 3513 744 3044 326 
Q 2575 -91 1722 -91 
Q 1428 -91 1123 -41 
Q 819 9 494 109 
L 494 744 
Q 775 591 1075 516 
Q 1375 441 1709 441 
Q 2250 441 2565 725 
Q 2881 1009 2881 1497 
Q 2881 1984 2565 2268 
Q 2250 2553 1709 2553 
Q 1456 2553 1204 2497 
Q 953 2441 691 2322 
L 691 4666 
z
" transform="scale(0.015625)"/>
       </defs>
       <use xlink:href="#DejaVuSans-35"/>
       <use xlink:href="#DejaVuSans-30" x="63.623047"/>
      </g>
     </g>
    </g>
    <g id="xtick_7">
     <g id="line2d_7">
      <g>
       <use xlink:href="#m379c0e36f1" x="634.613318" y="499.48" style="stroke: #000000; stroke-width: 0.8"/>
      </g>
     </g>
     <g id="text_7">
      <!-- 60 -->
      <g transform="translate(620.615818 523.196563) scale(0.22 -0.22)">
       <defs>
        <path id="DejaVuSans-36" d="M 2113 2584 
Q 1688 2584 1439 2293 
Q 1191 2003 1191 1497 
Q 1191 994 1439 701 
Q 1688 409 2113 409 
Q 2538 409 2786 701 
Q 3034 994 3034 1497 
Q 3034 2003 2786 2293 
Q 2538 2584 2113 2584 
z
M 3366 4563 
L 3366 3988 
Q 3128 4100 2886 4159 
Q 2644 4219 2406 4219 
Q 1781 4219 1451 3797 
Q 1122 3375 1075 2522 
Q 1259 2794 1537 2939 
Q 1816 3084 2150 3084 
Q 2853 3084 3261 2657 
Q 3669 2231 3669 1497 
Q 3669 778 3244 343 
Q 2819 -91 2113 -91 
Q 1303 -91 875 529 
Q 447 1150 447 2328 
Q 447 3434 972 4092 
Q 1497 4750 2381 4750 
Q 2619 4750 2861 4703 
Q 3103 4656 3366 4563 
z
" transform="scale(0.015625)"/>
       </defs>
       <use xlink:href="#DejaVuSans-36"/>
       <use xlink:href="#DejaVuSans-30" x="63.623047"/>
      </g>
     </g>
    </g>
    <g id="text_8">
     <!-- Force Uncertainties -->
     <g transform="translate(283.426094 548.488438) scale(0.22 -0.22)">
      <defs>
       <path id="DejaVuSans-46" d="M 628 4666 
L 3309 4666 
L 3309 4134 
L 1259 4134 
L 1259 2759 
L 3109 2759 
L 3109 2228 
L 1259 2228 
L 1259 0 
L 628 0 
L 628 4666 
z
" transform="scale(0.015625)"/>
       <path id="DejaVuSans-6f" d="M 1959 3097 
Q 1497 3097 1228 2736 
Q 959 2375 959 1747 
Q 959 1119 1226 758 
Q 1494 397 1959 397 
Q 2419 397 2687 759 
Q 2956 1122 2956 1747 
Q 2956 2369 2687 2733 
Q 2419 3097 1959 3097 
z
M 1959 3584 
Q 2709 3584 3137 3096 
Q 3566 2609 3566 1747 
Q 3566 888 3137 398 
Q 2709 -91 1959 -91 
Q 1206 -91 779 398 
Q 353 888 353 1747 
Q 353 2609 779 3096 
Q 1206 3584 1959 3584 
z
" transform="scale(0.015625)"/>
       <path id="DejaVuSans-72" d="M 2631 2963 
Q 2534 3019 2420 3045 
Q 2306 3072 2169 3072 
Q 1681 3072 1420 2755 
Q 1159 2438 1159 1844 
L 1159 0 
L 581 0 
L 581 3500 
L 1159 3500 
L 1159 2956 
Q 1341 3275 1631 3429 
Q 1922 3584 2338 3584 
Q 2397 3584 2469 3576 
Q 2541 3569 2628 3553 
L 2631 2963 
z
" transform="scale(0.015625)"/>
       <path id="DejaVuSans-63" d="M 3122 3366 
L 3122 2828 
Q 2878 2963 2633 3030 
Q 2388 3097 2138 3097 
Q 1578 3097 1268 2742 
Q 959 2388 959 1747 
Q 959 1106 1268 751 
Q 1578 397 2138 397 
Q 2388 397 2633 464 
Q 2878 531 3122 666 
L 3122 134 
Q 2881 22 2623 -34 
Q 2366 -91 2075 -91 
Q 1284 -91 818 406 
Q 353 903 353 1747 
Q 353 2603 823 3093 
Q 1294 3584 2113 3584 
Q 2378 3584 2631 3529 
Q 2884 3475 3122 3366 
z
" transform="scale(0.015625)"/>
       <path id="DejaVuSans-65" d="M 3597 1894 
L 3597 1613 
L 953 1613 
Q 991 1019 1311 708 
Q 1631 397 2203 397 
Q 2534 397 2845 478 
Q 3156 559 3463 722 
L 3463 178 
Q 3153 47 2828 -22 
Q 2503 -91 2169 -91 
Q 1331 -91 842 396 
Q 353 884 353 1716 
Q 353 2575 817 3079 
Q 1281 3584 2069 3584 
Q 2775 3584 3186 3129 
Q 3597 2675 3597 1894 
z
M 3022 2063 
Q 3016 2534 2758 2815 
Q 2500 3097 2075 3097 
Q 1594 3097 1305 2825 
Q 1016 2553 972 2059 
L 3022 2063 
z
" transform="scale(0.015625)"/>
       <path id="DejaVuSans-20" transform="scale(0.015625)"/>
       <path id="DejaVuSans-55" d="M 556 4666 
L 1191 4666 
L 1191 1831 
Q 1191 1081 1462 751 
Q 1734 422 2344 422 
Q 2950 422 3222 751 
Q 3494 1081 3494 1831 
L 3494 4666 
L 4128 4666 
L 4128 1753 
Q 4128 841 3676 375 
Q 3225 -91 2344 -91 
Q 1459 -91 1007 375 
Q 556 841 556 1753 
L 556 4666 
z
" transform="scale(0.015625)"/>
       <path id="DejaVuSans-6e" d="M 3513 2113 
L 3513 0 
L 2938 0 
L 2938 2094 
Q 2938 2591 2744 2837 
Q 2550 3084 2163 3084 
Q 1697 3084 1428 2787 
Q 1159 2491 1159 1978 
L 1159 0 
L 581 0 
L 581 3500 
L 1159 3500 
L 1159 2956 
Q 1366 3272 1645 3428 
Q 1925 3584 2291 3584 
Q 2894 3584 3203 3211 
Q 3513 2838 3513 2113 
z
" transform="scale(0.015625)"/>
       <path id="DejaVuSans-74" d="M 1172 4494 
L 1172 3500 
L 2356 3500 
L 2356 3053 
L 1172 3053 
L 1172 1153 
Q 1172 725 1289 603 
Q 1406 481 1766 481 
L 2356 481 
L 2356 0 
L 1766 0 
Q 1100 0 847 248 
Q 594 497 594 1153 
L 594 3053 
L 172 3053 
L 172 3500 
L 594 3500 
L 594 4494 
L 1172 4494 
z
" transform="scale(0.015625)"/>
       <path id="DejaVuSans-61" d="M 2194 1759 
Q 1497 1759 1228 1600 
Q 959 1441 959 1056 
Q 959 750 1161 570 
Q 1363 391 1709 391 
Q 2188 391 2477 730 
Q 2766 1069 2766 1631 
L 2766 1759 
L 2194 1759 
z
M 3341 1997 
L 3341 0 
L 2766 0 
L 2766 531 
Q 2569 213 2275 61 
Q 1981 -91 1556 -91 
Q 1019 -91 701 211 
Q 384 513 384 1019 
Q 384 1609 779 1909 
Q 1175 2209 1959 2209 
L 2766 2209 
L 2766 2266 
Q 2766 2663 2505 2880 
Q 2244 3097 1772 3097 
Q 1472 3097 1187 3025 
Q 903 2953 641 2809 
L 641 3341 
Q 956 3463 1253 3523 
Q 1550 3584 1831 3584 
Q 2591 3584 2966 3190 
Q 3341 2797 3341 1997 
z
" transform="scale(0.015625)"/>
       <path id="DejaVuSans-69" d="M 603 3500 
L 1178 3500 
L 1178 0 
L 603 0 
L 603 3500 
z
M 603 4863 
L 1178 4863 
L 1178 4134 
L 603 4134 
L 603 4863 
z
" transform="scale(0.015625)"/>
       <path id="DejaVuSans-73" d="M 2834 3397 
L 2834 2853 
Q 2591 2978 2328 3040 
Q 2066 3103 1784 3103 
Q 1356 3103 1142 2972 
Q 928 2841 928 2578 
Q 928 2378 1081 2264 
Q 1234 2150 1697 2047 
L 1894 2003 
Q 2506 1872 2764 1633 
Q 3022 1394 3022 966 
Q 3022 478 2636 193 
Q 2250 -91 1575 -91 
Q 1294 -91 989 -36 
Q 684 19 347 128 
L 347 722 
Q 666 556 975 473 
Q 1284 391 1588 391 
Q 1994 391 2212 530 
Q 2431 669 2431 922 
Q 2431 1156 2273 1281 
Q 2116 1406 1581 1522 
L 1381 1569 
Q 847 1681 609 1914 
Q 372 2147 372 2553 
Q 372 3047 722 3315 
Q 1072 3584 1716 3584 
Q 2034 3584 2315 3537 
Q 2597 3491 2834 3397 
z
" transform="scale(0.015625)"/>
      </defs>
      <use xlink:href="#DejaVuSans-46"/>
      <use xlink:href="#DejaVuSans-6f" x="53.894531"/>
      <use xlink:href="#DejaVuSans-72" x="115.076172"/>
      <use xlink:href="#DejaVuSans-63" x="153.939453"/>
      <use xlink:href="#DejaVuSans-65" x="208.919922"/>
      <use xlink:href="#DejaVuSans-20" x="270.443359"/>
      <use xlink:href="#DejaVuSans-55" x="302.230469"/>
      <use xlink:href="#DejaVuSans-6e" x="375.423828"/>
      <use xlink:href="#DejaVuSans-63" x="438.802734"/>
      <use xlink:href="#DejaVuSans-65" x="493.783203"/>
      <use xlink:href="#DejaVuSans-72" x="555.306641"/>
      <use xlink:href="#DejaVuSans-74" x="596.419922"/>
      <use xlink:href="#DejaVuSans-61" x="635.628906"/>
      <use xlink:href="#DejaVuSans-69" x="696.908203"/>
      <use xlink:href="#DejaVuSans-6e" x="724.691406"/>
      <use xlink:href="#DejaVuSans-74" x="788.070312"/>
      <use xlink:href="#DejaVuSans-69" x="827.279297"/>
      <use xlink:href="#DejaVuSans-65" x="855.0625"/>
      <use xlink:href="#DejaVuSans-73" x="916.585938"/>
     </g>
    </g>
   </g>
   <g id="matplotlib.axis_2">
    <g id="ytick_1">
     <g id="line2d_8">
      <defs>
       <path id="m24fbd9d6f6" d="M 0 0 
L -3.5 0 
" style="stroke: #000000; stroke-width: 0.8"/>
      </defs>
      <g>
       <use xlink:href="#m24fbd9d6f6" x="83.72" y="497.227273" style="stroke: #000000; stroke-width: 0.8"/>
      </g>
     </g>
     <g id="text_9">
      <!-- 0 -->
      <g transform="translate(62.7225 505.585554) scale(0.22 -0.22)">
       <use xlink:href="#DejaVuSans-30"/>
      </g>
     </g>
    </g>
    <g id="ytick_2">
     <g id="line2d_9">
      <g>
       <use xlink:href="#m24fbd9d6f6" x="83.72" y="426.293227" style="stroke: #000000; stroke-width: 0.8"/>
      </g>
     </g>
     <g id="text_10">
      <!-- 10 -->
      <g transform="translate(48.725 434.651509) scale(0.22 -0.22)">
       <use xlink:href="#DejaVuSans-31"/>
       <use xlink:href="#DejaVuSans-30" x="63.623047"/>
      </g>
     </g>
    </g>
    <g id="ytick_3">
     <g id="line2d_10">
      <g>
       <use xlink:href="#m24fbd9d6f6" x="83.72" y="355.359182" style="stroke: #000000; stroke-width: 0.8"/>
      </g>
     </g>
     <g id="text_11">
      <!-- 20 -->
      <g transform="translate(48.725 363.717463) scale(0.22 -0.22)">
       <use xlink:href="#DejaVuSans-32"/>
       <use xlink:href="#DejaVuSans-30" x="63.623047"/>
      </g>
     </g>
    </g>
    <g id="ytick_4">
     <g id="line2d_11">
      <g>
       <use xlink:href="#m24fbd9d6f6" x="83.72" y="284.425137" style="stroke: #000000; stroke-width: 0.8"/>
      </g>
     </g>
     <g id="text_12">
      <!-- 30 -->
      <g transform="translate(48.725 292.783418) scale(0.22 -0.22)">
       <use xlink:href="#DejaVuSans-33"/>
       <use xlink:href="#DejaVuSans-30" x="63.623047"/>
      </g>
     </g>
    </g>
    <g id="ytick_5">
     <g id="line2d_12">
      <g>
       <use xlink:href="#m24fbd9d6f6" x="83.72" y="213.491091" style="stroke: #000000; stroke-width: 0.8"/>
      </g>
     </g>
     <g id="text_13">
      <!-- 40 -->
      <g transform="translate(48.725 221.849372) scale(0.22 -0.22)">
       <use xlink:href="#DejaVuSans-34"/>
       <use xlink:href="#DejaVuSans-30" x="63.623047"/>
      </g>
     </g>
    </g>
    <g id="ytick_6">
     <g id="line2d_13">
      <g>
       <use xlink:href="#m24fbd9d6f6" x="83.72" y="142.557046" style="stroke: #000000; stroke-width: 0.8"/>
      </g>
     </g>
     <g id="text_14">
      <!-- 50 -->
      <g transform="translate(48.725 150.915327) scale(0.22 -0.22)">
       <use xlink:href="#DejaVuSans-35"/>
       <use xlink:href="#DejaVuSans-30" x="63.623047"/>
      </g>
     </g>
    </g>
    <g id="ytick_7">
     <g id="line2d_14">
      <g>
       <use xlink:href="#m24fbd9d6f6" x="83.72" y="71.623" style="stroke: #000000; stroke-width: 0.8"/>
      </g>
     </g>
     <g id="text_15">
      <!-- 60 -->
      <g transform="translate(48.725 79.981282) scale(0.22 -0.22)">
       <use xlink:href="#DejaVuSans-36"/>
       <use xlink:href="#DejaVuSans-30" x="63.623047"/>
      </g>
     </g>
    </g>
    <g id="text_16">
     <!-- Force Errors [kJ/(mol*A)] -->
     <g transform="translate(40.149688 394.9125) rotate(-90) scale(0.22 -0.22)">
      <defs>
       <path id="DejaVuSans-45" d="M 628 4666 
L 3578 4666 
L 3578 4134 
L 1259 4134 
L 1259 2753 
L 3481 2753 
L 3481 2222 
L 1259 2222 
L 1259 531 
L 3634 531 
L 3634 0 
L 628 0 
L 628 4666 
z
" transform="scale(0.015625)"/>
       <path id="DejaVuSans-5b" d="M 550 4863 
L 1875 4863 
L 1875 4416 
L 1125 4416 
L 1125 -397 
L 1875 -397 
L 1875 -844 
L 550 -844 
L 550 4863 
z
" transform="scale(0.015625)"/>
       <path id="DejaVuSans-6b" d="M 581 4863 
L 1159 4863 
L 1159 1991 
L 2875 3500 
L 3609 3500 
L 1753 1863 
L 3688 0 
L 2938 0 
L 1159 1709 
L 1159 0 
L 581 0 
L 581 4863 
z
" transform="scale(0.015625)"/>
       <path id="DejaVuSans-4a" d="M 628 4666 
L 1259 4666 
L 1259 325 
Q 1259 -519 939 -900 
Q 619 -1281 -91 -1281 
L -331 -1281 
L -331 -750 
L -134 -750 
Q 284 -750 456 -515 
Q 628 -281 628 325 
L 628 4666 
z
" transform="scale(0.015625)"/>
       <path id="DejaVuSans-2f" d="M 1625 4666 
L 2156 4666 
L 531 -594 
L 0 -594 
L 1625 4666 
z
" transform="scale(0.015625)"/>
       <path id="DejaVuSans-28" d="M 1984 4856 
Q 1566 4138 1362 3434 
Q 1159 2731 1159 2009 
Q 1159 1288 1364 580 
Q 1569 -128 1984 -844 
L 1484 -844 
Q 1016 -109 783 600 
Q 550 1309 550 2009 
Q 550 2706 781 3412 
Q 1013 4119 1484 4856 
L 1984 4856 
z
" transform="scale(0.015625)"/>
       <path id="DejaVuSans-6d" d="M 3328 2828 
Q 3544 3216 3844 3400 
Q 4144 3584 4550 3584 
Q 5097 3584 5394 3201 
Q 5691 2819 5691 2113 
L 5691 0 
L 5113 0 
L 5113 2094 
Q 5113 2597 4934 2840 
Q 4756 3084 4391 3084 
Q 3944 3084 3684 2787 
Q 3425 2491 3425 1978 
L 3425 0 
L 2847 0 
L 2847 2094 
Q 2847 2600 2669 2842 
Q 2491 3084 2119 3084 
Q 1678 3084 1418 2786 
Q 1159 2488 1159 1978 
L 1159 0 
L 581 0 
L 581 3500 
L 1159 3500 
L 1159 2956 
Q 1356 3278 1631 3431 
Q 1906 3584 2284 3584 
Q 2666 3584 2933 3390 
Q 3200 3197 3328 2828 
z
" transform="scale(0.015625)"/>
       <path id="DejaVuSans-6c" d="M 603 4863 
L 1178 4863 
L 1178 0 
L 603 0 
L 603 4863 
z
" transform="scale(0.015625)"/>
       <path id="DejaVuSans-2a" d="M 3009 3897 
L 1888 3291 
L 3009 2681 
L 2828 2375 
L 1778 3009 
L 1778 1831 
L 1422 1831 
L 1422 3009 
L 372 2375 
L 191 2681 
L 1313 3291 
L 191 3897 
L 372 4206 
L 1422 3572 
L 1422 4750 
L 1778 4750 
L 1778 3572 
L 2828 4206 
L 3009 3897 
z
" transform="scale(0.015625)"/>
       <path id="DejaVuSans-41" d="M 2188 4044 
L 1331 1722 
L 3047 1722 
L 2188 4044 
z
M 1831 4666 
L 2547 4666 
L 4325 0 
L 3669 0 
L 3244 1197 
L 1141 1197 
L 716 0 
L 50 0 
L 1831 4666 
z
" transform="scale(0.015625)"/>
       <path id="DejaVuSans-29" d="M 513 4856 
L 1013 4856 
Q 1481 4119 1714 3412 
Q 1947 2706 1947 2009 
Q 1947 1309 1714 600 
Q 1481 -109 1013 -844 
L 513 -844 
Q 928 -128 1133 580 
Q 1338 1288 1338 2009 
Q 1338 2731 1133 3434 
Q 928 4138 513 4856 
z
" transform="scale(0.015625)"/>
       <path id="DejaVuSans-5d" d="M 1947 4863 
L 1947 -844 
L 622 -844 
L 622 -397 
L 1369 -397 
L 1369 4416 
L 622 4416 
L 622 4863 
L 1947 4863 
z
" transform="scale(0.015625)"/>
      </defs>
      <use xlink:href="#DejaVuSans-46"/>
      <use xlink:href="#DejaVuSans-6f" x="53.894531"/>
      <use xlink:href="#DejaVuSans-72" x="115.076172"/>
      <use xlink:href="#DejaVuSans-63" x="153.939453"/>
      <use xlink:href="#DejaVuSans-65" x="208.919922"/>
      <use xlink:href="#DejaVuSans-20" x="270.443359"/>
      <use xlink:href="#DejaVuSans-45" x="302.230469"/>
      <use xlink:href="#DejaVuSans-72" x="365.414062"/>
      <use xlink:href="#DejaVuSans-72" x="404.777344"/>
      <use xlink:href="#DejaVuSans-6f" x="443.640625"/>
      <use xlink:href="#DejaVuSans-72" x="504.822266"/>
      <use xlink:href="#DejaVuSans-73" x="545.935547"/>
      <use xlink:href="#DejaVuSans-20" x="598.035156"/>
      <use xlink:href="#DejaVuSans-5b" x="629.822266"/>
      <use xlink:href="#DejaVuSans-6b" x="668.835938"/>
      <use xlink:href="#DejaVuSans-4a" x="726.746094"/>
      <use xlink:href="#DejaVuSans-2f" x="756.238281"/>
      <use xlink:href="#DejaVuSans-28" x="789.929688"/>
      <use xlink:href="#DejaVuSans-6d" x="828.943359"/>
      <use xlink:href="#DejaVuSans-6f" x="926.355469"/>
      <use xlink:href="#DejaVuSans-6c" x="987.537109"/>
      <use xlink:href="#DejaVuSans-2a" x="1015.320312"/>
      <use xlink:href="#DejaVuSans-41" x="1065.320312"/>
      <use xlink:href="#DejaVuSans-29" x="1133.728516"/>
      <use xlink:href="#DejaVuSans-5d" x="1172.742188"/>
     </g>
    </g>
   </g>
   <g id="line2d_15">
    <path d="M 83.72 499.48 
L 696.24 23.76 
" clip-path="url(#p79fd688cfb)" style="fill: none; stroke-dasharray: 5.55,2.4; stroke-dashoffset: 0; stroke: #ff0000; stroke-width: 1.5"/>
   </g>
   <g id="patch_3">
    <path d="M 83.72 499.48 
L 83.72 23.76 
" style="fill: none; stroke: #000000; stroke-width: 0.8; stroke-linejoin: miter; stroke-linecap: square"/>
   </g>
   <g id="patch_4">
    <path d="M 696.24 499.48 
L 696.24 23.76 
" style="fill: none; stroke: #000000; stroke-width: 0.8; stroke-linejoin: miter; stroke-linecap: square"/>
   </g>
   <g id="patch_5">
    <path d="M 83.72 499.48 
L 696.24 499.48 
" style="fill: none; stroke: #000000; stroke-width: 0.8; stroke-linejoin: miter; stroke-linecap: square"/>
   </g>
   <g id="patch_6">
    <path d="M 83.72 23.76 
L 696.24 23.76 
" style="fill: none; stroke: #000000; stroke-width: 0.8; stroke-linejoin: miter; stroke-linecap: square"/>
   </g>
   <g id="text_17">
    <!-- Correlation in: 0.528 -->
    <g transform="translate(144.972 71.332) scale(0.22 -0.22)">
     <defs>
      <path id="DejaVuSans-43" d="M 4122 4306 
L 4122 3641 
Q 3803 3938 3442 4084 
Q 3081 4231 2675 4231 
Q 1875 4231 1450 3742 
Q 1025 3253 1025 2328 
Q 1025 1406 1450 917 
Q 1875 428 2675 428 
Q 3081 428 3442 575 
Q 3803 722 4122 1019 
L 4122 359 
Q 3791 134 3420 21 
Q 3050 -91 2638 -91 
Q 1578 -91 968 557 
Q 359 1206 359 2328 
Q 359 3453 968 4101 
Q 1578 4750 2638 4750 
Q 3056 4750 3426 4639 
Q 3797 4528 4122 4306 
z
" transform="scale(0.015625)"/>
      <path id="DejaVuSans-3a" d="M 750 794 
L 1409 794 
L 1409 0 
L 750 0 
L 750 794 
z
M 750 3309 
L 1409 3309 
L 1409 2516 
L 750 2516 
L 750 3309 
z
" transform="scale(0.015625)"/>
      <path id="DejaVuSans-2e" d="M 684 794 
L 1344 794 
L 1344 0 
L 684 0 
L 684 794 
z
" transform="scale(0.015625)"/>
      <path id="DejaVuSans-38" d="M 2034 2216 
Q 1584 2216 1326 1975 
Q 1069 1734 1069 1313 
Q 1069 891 1326 650 
Q 1584 409 2034 409 
Q 2484 409 2743 651 
Q 3003 894 3003 1313 
Q 3003 1734 2745 1975 
Q 2488 2216 2034 2216 
z
M 1403 2484 
Q 997 2584 770 2862 
Q 544 3141 544 3541 
Q 544 4100 942 4425 
Q 1341 4750 2034 4750 
Q 2731 4750 3128 4425 
Q 3525 4100 3525 3541 
Q 3525 3141 3298 2862 
Q 3072 2584 2669 2484 
Q 3125 2378 3379 2068 
Q 3634 1759 3634 1313 
Q 3634 634 3220 271 
Q 2806 -91 2034 -91 
Q 1263 -91 848 271 
Q 434 634 434 1313 
Q 434 1759 690 2068 
Q 947 2378 1403 2484 
z
M 1172 3481 
Q 1172 3119 1398 2916 
Q 1625 2713 2034 2713 
Q 2441 2713 2670 2916 
Q 2900 3119 2900 3481 
Q 2900 3844 2670 4047 
Q 2441 4250 2034 4250 
Q 1625 4250 1398 4047 
Q 1172 3844 1172 3481 
z
" transform="scale(0.015625)"/>
     </defs>
     <use xlink:href="#DejaVuSans-43"/>
     <use xlink:href="#DejaVuSans-6f" x="69.824219"/>
     <use xlink:href="#DejaVuSans-72" x="131.005859"/>
     <use xlink:href="#DejaVuSans-72" x="170.369141"/>
     <use xlink:href="#DejaVuSans-65" x="209.232422"/>
     <use xlink:href="#DejaVuSans-6c" x="270.755859"/>
     <use xlink:href="#DejaVuSans-61" x="298.539062"/>
     <use xlink:href="#DejaVuSans-74" x="359.818359"/>
     <use xlink:href="#DejaVuSans-69" x="399.027344"/>
     <use xlink:href="#DejaVuSans-6f" x="426.810547"/>
     <use xlink:href="#DejaVuSans-6e" x="487.992188"/>
     <use xlink:href="#DejaVuSans-20" x="551.371094"/>
     <use xlink:href="#DejaVuSans-69" x="583.158203"/>
     <use xlink:href="#DejaVuSans-6e" x="610.941406"/>
     <use xlink:href="#DejaVuSans-3a" x="674.320312"/>
     <use xlink:href="#DejaVuSans-20" x="708.011719"/>
     <use xlink:href="#DejaVuSans-30" x="739.798828"/>
     <use xlink:href="#DejaVuSans-2e" x="803.421875"/>
     <use xlink:href="#DejaVuSans-35" x="835.208984"/>
     <use xlink:href="#DejaVuSans-32" x="898.832031"/>
     <use xlink:href="#DejaVuSans-38" x="962.455078"/>
    </g>
   </g>
  </g>
 </g>
 <defs>
  <clipPath id="p79fd688cfb">
   <rect x="83.72" y="23.76" width="612.52" height="475.72"/>
  </clipPath>
 </defs>
</svg>
