<?xml version="1.0" encoding="utf-8" standalone="no"?>
<!DOCTYPE svg PUBLIC "-//W3C//DTD SVG 1.1//EN"
  "http://www.w3.org/Graphics/SVG/1.1/DTD/svg11.dtd">
<svg xmlns:xlink="http://www.w3.org/1999/xlink" width="720pt" height="576pt" viewBox="0 0 720 576" xmlns="http://www.w3.org/2000/svg" version="1.1">
 <metadata>
  <rdf:RDF xmlns:dc="http://purl.org/dc/elements/1.1/" xmlns:cc="http://creativecommons.org/ns#" xmlns:rdf="http://www.w3.org/1999/02/22-rdf-syntax-ns#">
   <cc:Work>
    <dc:type rdf:resource="http://purl.org/dc/dcmitype/StillImage"/>
    <dc:date>2024-12-08T04:39:35.684143</dc:date>
    <dc:format>image/svg+xml</dc:format>
    <dc:creator>
     <cc:Agent>
      <dc:title>Matplotlib v3.8.4, https://matplotlib.org/</dc:title>
     </cc:Agent>
    </dc:creator>
   </cc:Work>
  </rdf:RDF>
 </metadata>
 <defs>
  <style type="text/css">*{stroke-linejoin: round; stroke-linecap: butt}</style>
 </defs>
 <g id="figure_1">
  <g id="patch_1">
   <path d="M 0 576 
L 720 576 
L 720 0 
L 0 0 
z
" style="fill: #ffffff"/>
  </g>
  <g id="axes_1">
   <g id="patch_2">
    <path d="M 83.72 499.48 
L 696.24 499.48 
L 696.24 23.76 
L 83.72 23.76 
z
" style="fill: #ffffff"/>
   </g>
   <g id="QuadContourSet_1">
    <path d="M 88.602905 490.648856 
L 90.457899 491.215926 
L 92.312893 491.560629 
L 94.167887 491.75348 
L 96.02288 491.834644 
L 97.877874 491.826265 
L 99.732868 491.738716 
L 101.587862 491.573416 
L 103.442855 491.323538 
L 105.297849 490.973241 
L 107.152843 490.496169 
L 107.152843 490.496169 
L 109.007836 490.265189 
L 110.86283 489.964383 
L 112.717824 489.579047 
L 114.572818 489.099325 
L 116.427811 488.526488 
L 117.885339 488.037279 
L 118.282805 487.965117 
L 120.137799 487.647369 
L 121.992793 487.31077 
L 123.847786 486.963856 
L 125.70278 486.615192 
L 127.557774 486.273781 
L 129.412768 485.946035 
L 131.267761 485.62945 
L 131.581464 485.578389 
L 133.122755 485.423379 
L 134.977749 485.225954 
L 136.832743 485.001598 
L 138.687736 484.7441 
L 140.54273 484.463525 
L 142.397724 484.192597 
L 144.252717 483.981246 
L 146.107711 483.867202 
L 147.962705 483.838139 
L 149.817699 483.829441 
L 151.672692 483.761651 
L 153.527686 483.571279 
L 155.38268 483.212363 
L 155.706844 483.119499 
L 157.237674 482.752265 
L 159.092667 482.14977 
L 160.947661 481.355277 
L 162.247414 480.66061 
L 162.802655 480.335927 
L 164.657649 479.129689 
L 165.895375 478.20172 
L 166.512642 477.492933 
L 168.017266 475.74283 
L 168.367636 474.359766 
L 168.682332 473.283941 
L 168.367636 472.418012 
L 167.746542 470.825051 
L 166.512642 469.64745 
L 164.676494 468.366161 
L 164.657649 468.355786 
L 162.802655 467.531304 
L 160.947661 467.006511 
L 159.092667 466.722837 
L 157.237674 466.625056 
L 155.38268 466.649052 
L 153.527686 466.713956 
L 151.672692 466.727185 
L 149.817699 466.616591 
L 147.962705 466.38019 
L 146.107711 466.093007 
L 144.765445 465.907271 
L 144.252717 465.81263 
L 142.397724 465.551751 
L 140.54273 465.386939 
L 138.687736 465.281387 
L 136.832743 465.195082 
L 134.977749 465.095573 
L 133.122755 464.954991 
L 131.267761 464.742502 
L 129.412768 464.428175 
L 127.557774 464.005383 
L 125.70278 463.512002 
L 125.501032 463.448382 
L 123.847786 462.724457 
L 121.992793 462.001872 
L 120.137799 461.429401 
L 118.282805 461.001887 
L 118.219714 460.989492 
L 116.427811 460.383225 
L 114.572818 459.935236 
L 112.717824 459.630082 
L 110.86283 459.438322 
L 109.007836 459.341155 
L 107.152843 459.330579 
L 105.297849 459.411266 
L 103.442855 459.604486 
L 101.587862 459.954939 
L 99.732868 460.54298 
L 98.76398 460.989492 
L 97.877874 461.212911 
L 96.02288 461.896184 
L 94.167887 463.046166 
L 93.65868 463.448382 
L 92.312893 464.136657 
L 90.457899 465.65511 
L 90.19573 465.907271 
L 88.602905 467.043919 
L 87.315094 468.366161 
L 86.747912 468.868203 
L 85.008603 470.825051 
L 84.892918 470.960839 
L 83.084991 473.283941 
L 83.037924 473.362983 
L 81.506825 475.74283 
L 81.18293 476.608644 
L 80.412253 478.20172 
L 79.882281 480.66061 
L 79.960571 483.119499 
L 80.913394 485.578389 
L 81.18293 485.948456 
L 83.037924 487.972129 
L 83.118654 488.037279 
L 84.892918 489.341292 
L 86.747912 490.121848 
L 88.224867 490.496169 
z
M 90.254075 488.037279 
L 88.602905 487.490491 
L 86.747912 486.432821 
L 85.733247 485.578389 
L 84.892918 484.521378 
L 83.997635 483.119499 
L 83.528165 480.66061 
L 83.852904 478.20172 
L 84.892918 475.86393 
L 84.936961 475.74283 
L 86.482164 473.283941 
L 86.747912 472.95586 
L 88.602905 470.894223 
L 88.671826 470.825051 
L 90.457899 469.067509 
L 91.436198 468.366161 
L 92.312893 467.609991 
L 94.167887 466.397324 
L 95.221735 465.907271 
L 96.02288 465.366141 
L 97.877874 464.422438 
L 99.732868 463.819182 
L 101.467139 463.448382 
L 101.587862 463.402961 
L 103.442855 462.893814 
L 105.297849 462.603592 
L 107.152843 462.478959 
L 109.007836 462.495912 
L 110.86283 462.650824 
L 112.717824 462.956053 
L 114.572818 463.438658 
L 114.602676 463.448382 
L 116.427811 463.846809 
L 118.282805 464.424858 
L 120.137799 465.222237 
L 121.432934 465.907271 
L 121.992793 466.17274 
L 123.847786 467.103547 
L 125.70278 468.123691 
L 126.2115 468.366161 
L 127.557774 468.990473 
L 129.412768 469.659146 
L 131.267761 470.135777 
L 133.122755 470.444942 
L 134.977749 470.647788 
L 136.832743 470.825051 
L 136.832743 470.825051 
L 138.687736 471.104114 
L 140.54273 471.586416 
L 142.397724 472.380835 
L 143.921424 473.283941 
L 144.252717 474.349242 
L 144.744357 475.74283 
L 144.252717 476.164382 
L 142.397724 477.844497 
L 141.99694 478.20172 
L 140.54273 478.83535 
L 138.687736 479.535519 
L 136.832743 480.112259 
L 134.977749 480.593537 
L 134.691729 480.66061 
L 133.122755 480.973224 
L 131.267761 481.325293 
L 129.412768 481.701738 
L 127.557774 482.127695 
L 125.70278 482.602487 
L 123.847786 483.104561 
L 123.800347 483.119499 
L 121.992793 483.742789 
L 120.137799 484.369879 
L 118.282805 484.953874 
L 116.427811 485.473104 
L 116.05146 485.578389 
L 114.572818 486.170381 
L 112.717824 486.808041 
L 110.86283 487.314588 
L 109.007836 487.708641 
L 107.152843 488.011688 
L 106.968784 488.037279 
L 105.297849 488.475928 
L 103.442855 488.834996 
L 101.587862 489.082591 
L 99.732868 489.231361 
L 97.877874 489.283879 
L 96.02288 489.232016 
L 94.167887 489.054178 
L 92.312893 488.70902 
L 90.457899 488.122767 
z
" clip-path="url(#p26a02feb3a)" style="fill: #f2f7fd"/>
    <path d="M 90.457899 488.122767 
L 92.312893 488.70902 
L 94.167887 489.054178 
L 96.02288 489.232016 
L 97.877874 489.283879 
L 99.732868 489.231361 
L 101.587862 489.082591 
L 103.442855 488.834996 
L 105.297849 488.475928 
L 106.968784 488.037279 
L 107.152843 488.011688 
L 109.007836 487.708641 
L 110.86283 487.314588 
L 112.717824 486.808041 
L 114.572818 486.170381 
L 116.05146 485.578389 
L 116.427811 485.473104 
L 118.282805 484.953874 
L 120.137799 484.369879 
L 121.992793 483.742789 
L 123.800347 483.119499 
L 123.847786 483.104561 
L 125.70278 482.602487 
L 127.557774 482.127695 
L 129.412768 481.701738 
L 131.267761 481.325293 
L 133.122755 480.973224 
L 134.691729 480.66061 
L 134.977749 480.593537 
L 136.832743 480.112259 
L 138.687736 479.535519 
L 140.54273 478.83535 
L 141.99694 478.20172 
L 142.397724 477.844497 
L 144.252717 476.164382 
L 144.744357 475.74283 
L 144.252717 474.349242 
L 143.921424 473.283941 
L 142.397724 472.380835 
L 140.54273 471.586416 
L 138.687736 471.104114 
L 136.832743 470.825051 
L 136.832743 470.825051 
L 134.977749 470.647788 
L 133.122755 470.444942 
L 131.267761 470.135777 
L 129.412768 469.659146 
L 127.557774 468.990473 
L 126.2115 468.366161 
L 125.70278 468.123691 
L 123.847786 467.103547 
L 121.992793 466.17274 
L 121.432934 465.907271 
L 120.137799 465.222237 
L 118.282805 464.424858 
L 116.427811 463.846809 
L 114.602676 463.448382 
L 114.572818 463.438658 
L 112.717824 462.956053 
L 110.86283 462.650824 
L 109.007836 462.495912 
L 107.152843 462.478959 
L 105.297849 462.603592 
L 103.442855 462.893814 
L 101.587862 463.402961 
L 101.467139 463.448382 
L 99.732868 463.819182 
L 97.877874 464.422438 
L 96.02288 465.366141 
L 95.221735 465.907271 
L 94.167887 466.397324 
L 92.312893 467.609991 
L 91.436198 468.366161 
L 90.457899 469.067509 
L 88.671826 470.825051 
L 88.602905 470.894223 
L 86.747912 472.95586 
L 86.482164 473.283941 
L 84.936961 475.74283 
L 84.892918 475.86393 
L 83.852904 478.20172 
L 83.528165 480.66061 
L 83.997635 483.119499 
L 84.892918 484.521378 
L 85.733247 485.578389 
L 86.747912 486.432821 
L 88.602905 487.490491 
L 90.254075 488.037279 
z
M 89.825165 485.578389 
L 88.602905 484.776356 
L 87.021949 483.119499 
L 86.747912 482.42232 
L 86.101933 480.66061 
L 86.275195 478.20172 
L 86.747912 477.087107 
L 87.227678 475.74283 
L 88.602905 473.719062 
L 88.90273 473.283941 
L 90.457899 471.567648 
L 91.271999 470.825051 
L 92.312893 469.885956 
L 94.167887 468.622522 
L 94.635947 468.366161 
L 96.02288 467.423982 
L 97.877874 466.539859 
L 99.732868 465.947784 
L 99.899521 465.907271 
L 101.587862 465.274838 
L 103.442855 464.835746 
L 105.297849 464.588966 
L 107.152843 464.497072 
L 109.007836 464.546664 
L 110.86283 464.742087 
L 112.717824 465.102839 
L 114.572818 465.663722 
L 115.196327 465.907271 
L 116.427811 466.308888 
L 118.282805 467.126614 
L 120.137799 468.2473 
L 120.323147 468.366161 
L 121.992793 469.581565 
L 123.557329 470.825051 
L 123.847786 471.167925 
L 125.70278 472.969825 
L 126.120543 473.283941 
L 127.446432 475.74283 
L 125.934623 478.20172 
L 125.70278 478.326275 
L 123.847786 479.511162 
L 121.992793 480.66061 
L 121.992793 480.66061 
L 120.137799 481.630233 
L 118.282805 482.504063 
L 116.82583 483.119499 
L 116.427811 483.302083 
L 114.572818 484.140691 
L 112.717824 484.820051 
L 110.86283 485.358166 
L 109.965886 485.578389 
L 109.007836 485.92096 
L 107.152843 486.467379 
L 105.297849 486.873995 
L 103.442855 487.167342 
L 101.587862 487.364065 
L 99.732868 487.470933 
L 97.877874 487.484212 
L 96.02288 487.387576 
L 94.167887 487.147195 
L 92.312893 486.701349 
L 90.457899 485.939428 
z
" clip-path="url(#p26a02feb3a)" style="fill: #e5eff9"/>
    <path d="M 90.457899 485.939428 
L 92.312893 486.701349 
L 94.167887 487.147195 
L 96.02288 487.387576 
L 97.877874 487.484212 
L 99.732868 487.470933 
L 101.587862 487.364065 
L 103.442855 487.167342 
L 105.297849 486.873995 
L 107.152843 486.467379 
L 109.007836 485.92096 
L 109.965886 485.578389 
L 110.86283 485.358166 
L 112.717824 484.820051 
L 114.572818 484.140691 
L 116.427811 483.302083 
L 116.82583 483.119499 
L 118.282805 482.504063 
L 120.137799 481.630233 
L 121.992793 480.66061 
L 121.992793 480.66061 
L 123.847786 479.511162 
L 125.70278 478.326275 
L 125.934623 478.20172 
L 127.446432 475.74283 
L 126.120543 473.283941 
L 125.70278 472.969825 
L 123.847786 471.167925 
L 123.557329 470.825051 
L 121.992793 469.581565 
L 120.323147 468.366161 
L 120.137799 468.2473 
L 118.282805 467.126614 
L 116.427811 466.308888 
L 115.196327 465.907271 
L 114.572818 465.663722 
L 112.717824 465.102839 
L 110.86283 464.742087 
L 109.007836 464.546664 
L 107.152843 464.497072 
L 105.297849 464.588966 
L 103.442855 464.835746 
L 101.587862 465.274838 
L 99.899521 465.907271 
L 99.732868 465.947784 
L 97.877874 466.539859 
L 96.02288 467.423982 
L 94.635947 468.366161 
L 94.167887 468.622522 
L 92.312893 469.885956 
L 91.271999 470.825051 
L 90.457899 471.567648 
L 88.90273 473.283941 
L 88.602905 473.719062 
L 87.227678 475.74283 
L 86.747912 477.087107 
L 86.275195 478.20172 
L 86.101933 480.66061 
L 86.747912 482.42232 
L 87.021949 483.119499 
L 88.602905 484.776356 
L 89.825165 485.578389 
z
M 96.058815 485.578389 
L 96.02288 485.575055 
L 94.167887 485.222247 
L 92.312893 484.560391 
L 90.457899 483.384205 
L 90.145018 483.119499 
L 88.65726 480.66061 
L 88.602905 478.20172 
L 89.459071 475.74283 
L 90.457899 474.325711 
L 91.226327 473.283941 
L 92.312893 472.17379 
L 93.965836 470.825051 
L 94.167887 470.660853 
L 96.02288 469.369649 
L 97.877874 468.487748 
L 98.202183 468.366161 
L 99.732868 467.636007 
L 101.587862 467.037215 
L 103.442855 466.659533 
L 105.297849 466.453202 
L 107.152843 466.396926 
L 109.007836 466.489859 
L 110.86283 466.747917 
L 112.717824 467.202816 
L 114.572818 467.903433 
L 115.505023 468.366161 
L 116.427811 468.869633 
L 118.282805 470.179964 
L 119.060956 470.825051 
L 120.137799 472.315098 
L 120.8623 473.283941 
L 121.271572 475.74283 
L 120.137799 477.857803 
L 119.967306 478.20172 
L 118.282805 479.64354 
L 116.94645 480.66061 
L 116.427811 480.966913 
L 114.572818 482.010714 
L 112.717824 482.846543 
L 112.028017 483.119499 
L 110.86283 483.630719 
L 109.007836 484.301779 
L 107.152843 484.81211 
L 105.297849 485.194291 
L 103.442855 485.47107 
L 102.369676 485.578389 
L 101.587862 485.697137 
L 99.732868 485.829878 
L 97.877874 485.797767 
z
" clip-path="url(#p26a02feb3a)" style="fill: #d3e4f3"/>
    <path d="M 97.877874 485.797767 
L 99.732868 485.829878 
L 101.587862 485.697137 
L 102.369676 485.578389 
L 103.442855 485.47107 
L 105.297849 485.194291 
L 107.152843 484.81211 
L 109.007836 484.301779 
L 110.86283 483.630719 
L 112.028017 483.119499 
L 112.717824 482.846543 
L 114.572818 482.010714 
L 116.427811 480.966913 
L 116.94645 480.66061 
L 118.282805 479.64354 
L 119.967306 478.20172 
L 120.137799 477.857803 
L 121.271572 475.74283 
L 120.8623 473.283941 
L 120.137799 472.315098 
L 119.060956 470.825051 
L 118.282805 470.179964 
L 116.427811 468.869633 
L 115.505023 468.366161 
L 114.572818 467.903433 
L 112.717824 467.202816 
L 110.86283 466.747917 
L 109.007836 466.489859 
L 107.152843 466.396926 
L 105.297849 466.453202 
L 103.442855 466.659533 
L 101.587862 467.037215 
L 99.732868 467.636007 
L 98.202183 468.366161 
L 97.877874 468.487748 
L 96.02288 469.369649 
L 94.167887 470.660853 
L 93.965836 470.825051 
L 92.312893 472.17379 
L 91.226327 473.283941 
L 90.457899 474.325711 
L 89.459071 475.74283 
L 88.602905 478.20172 
L 88.65726 480.66061 
L 90.145018 483.119499 
L 90.457899 483.384205 
L 92.312893 484.560391 
L 94.167887 485.222247 
L 96.02288 485.575055 
L 96.058815 485.578389 
z
M 93.887851 483.119499 
L 92.312893 481.953947 
L 91.220586 480.66061 
L 90.834045 478.20172 
L 91.670903 475.74283 
L 92.312893 474.876515 
L 93.589461 473.283941 
L 94.167887 472.747354 
L 96.02288 471.318723 
L 96.836749 470.825051 
L 97.877874 470.190793 
L 99.732868 469.353437 
L 101.587862 468.785706 
L 103.442855 468.420818 
L 103.973837 468.366161 
L 105.297849 468.18727 
L 107.152843 468.163381 
L 109.007836 468.366161 
L 109.007836 468.366161 
L 110.86283 468.750997 
L 112.717824 469.416005 
L 114.572818 470.440043 
L 115.130713 470.825051 
L 116.427811 472.308679 
L 117.171566 473.283941 
L 117.486861 475.74283 
L 116.427811 477.688177 
L 116.15562 478.20172 
L 114.572818 479.555353 
L 113.042586 480.66061 
L 112.717824 480.846879 
L 110.86283 481.81408 
L 109.007836 482.563258 
L 107.232922 483.119499 
L 107.152843 483.147786 
L 105.297849 483.689623 
L 103.442855 484.062446 
L 101.587862 484.282479 
L 99.732868 484.349053 
L 97.877874 484.241176 
L 96.02288 483.909825 
L 94.167887 483.261748 
z
" clip-path="url(#p26a02feb3a)" style="fill: #b5d4e9"/>
    <path d="M 94.167887 483.261748 
L 96.02288 483.909825 
L 97.877874 484.241176 
L 99.732868 484.349053 
L 101.587862 484.282479 
L 103.442855 484.062446 
L 105.297849 483.689623 
L 107.152843 483.147786 
L 107.232922 483.119499 
L 109.007836 482.563258 
L 110.86283 481.81408 
L 112.717824 480.846879 
L 113.042586 480.66061 
L 114.572818 479.555353 
L 116.15562 478.20172 
L 116.427811 477.688177 
L 117.486861 475.74283 
L 117.171566 473.283941 
L 116.427811 472.308679 
L 115.130713 470.825051 
L 114.572818 470.440043 
L 112.717824 469.416005 
L 110.86283 468.750997 
L 109.007836 468.366161 
L 109.007836 468.366161 
L 107.152843 468.163381 
L 105.297849 468.18727 
L 103.973837 468.366161 
L 103.442855 468.420818 
L 101.587862 468.785706 
L 99.732868 469.353437 
L 97.877874 470.190793 
L 96.836749 470.825051 
L 96.02288 471.318723 
L 94.167887 472.747354 
L 93.589461 473.283941 
L 92.312893 474.876515 
L 91.670903 475.74283 
L 90.834045 478.20172 
L 91.220586 480.66061 
L 92.312893 481.953947 
L 93.887851 483.119499 
z
M 99.248589 483.119499 
L 97.877874 482.984285 
L 96.02288 482.483236 
L 94.167887 481.461704 
L 93.264833 480.66061 
L 92.513813 478.20172 
L 93.296532 475.74283 
L 94.167887 474.645045 
L 95.379285 473.283941 
L 96.02288 472.75602 
L 97.877874 471.528475 
L 99.309116 470.825051 
L 99.732868 470.615559 
L 101.587862 469.946174 
L 103.442855 469.540604 
L 105.297849 469.360046 
L 107.152843 469.39885 
L 109.007836 469.678346 
L 110.86283 470.244523 
L 112.096058 470.825051 
L 112.717824 471.264409 
L 114.572818 473.102814 
L 114.726226 473.283941 
L 115.135123 475.74283 
L 114.572818 476.753479 
L 113.767512 478.20172 
L 112.717824 479.059456 
L 110.86283 480.351864 
L 110.351605 480.66061 
L 109.007836 481.311677 
L 107.152843 482.019276 
L 105.297849 482.542398 
L 103.442855 482.907029 
L 101.587862 483.119499 
L 101.587862 483.119499 
L 99.732868 483.165769 
z
" clip-path="url(#p26a02feb3a)" style="fill: #89bedc"/>
    <path d="M 99.732868 483.165769 
L 101.587862 483.119499 
L 101.587862 483.119499 
L 103.442855 482.907029 
L 105.297849 482.542398 
L 107.152843 482.019276 
L 109.007836 481.311677 
L 110.351605 480.66061 
L 110.86283 480.351864 
L 112.717824 479.059456 
L 113.767512 478.20172 
L 114.572818 476.753479 
L 115.135123 475.74283 
L 114.726226 473.283941 
L 114.572818 473.102814 
L 112.717824 471.264409 
L 112.096058 470.825051 
L 110.86283 470.244523 
L 109.007836 469.678346 
L 107.152843 469.39885 
L 105.297849 469.360046 
L 103.442855 469.540604 
L 101.587862 469.946174 
L 99.732868 470.615559 
L 99.309116 470.825051 
L 97.877874 471.528475 
L 96.02288 472.75602 
L 95.379285 473.283941 
L 94.167887 474.645045 
L 93.296532 475.74283 
L 92.513813 478.20172 
L 93.264833 480.66061 
L 94.167887 481.461704 
L 96.02288 482.483236 
L 97.877874 482.984285 
L 99.248589 483.119499 
z
M 95.871991 480.66061 
L 94.438253 478.20172 
L 95.146559 475.74283 
L 96.02288 474.739503 
L 97.509196 473.283941 
L 97.877874 473.026639 
L 99.732868 472.011352 
L 101.587862 471.312394 
L 103.442855 470.878276 
L 104.033266 470.825051 
L 105.297849 470.711209 
L 107.152843 470.825051 
L 107.152843 470.825051 
L 109.007836 471.319053 
L 110.86283 472.30428 
L 112.059772 473.283941 
L 112.693885 475.74283 
L 111.241924 478.20172 
L 110.86283 478.489109 
L 109.007836 479.718031 
L 107.196192 480.66061 
L 107.152843 480.678712 
L 105.297849 481.296291 
L 103.442855 481.700364 
L 101.587862 481.89664 
L 99.732868 481.860612 
L 97.877874 481.525546 
L 96.02288 480.756901 
z
" clip-path="url(#p26a02feb3a)" style="fill: #5aa2cf"/>
    <path d="M 96.02288 480.756901 
L 97.877874 481.525546 
L 99.732868 481.860612 
L 101.587862 481.89664 
L 103.442855 481.700364 
L 105.297849 481.296291 
L 107.152843 480.678712 
L 107.196192 480.66061 
L 109.007836 479.718031 
L 110.86283 478.489109 
L 111.241924 478.20172 
L 112.693885 475.74283 
L 112.059772 473.283941 
L 110.86283 472.30428 
L 109.007836 471.319053 
L 107.152843 470.825051 
L 107.152843 470.825051 
L 105.297849 470.711209 
L 104.033266 470.825051 
L 103.442855 470.878276 
L 101.587862 471.312394 
L 99.732868 472.011352 
L 97.877874 473.026639 
L 97.509196 473.283941 
L 96.02288 474.739503 
L 95.146559 475.74283 
L 94.438253 478.20172 
L 95.871991 480.66061 
z
M 99.652944 480.66061 
L 97.877874 479.886013 
L 96.28403 478.20172 
L 96.884007 475.74283 
L 97.877874 474.751838 
L 99.693929 473.283941 
L 99.732868 473.262195 
L 101.587862 472.522145 
L 103.442855 472.106613 
L 105.297849 472.010274 
L 107.152843 472.2756 
L 109.007836 472.991767 
L 109.482485 473.283941 
L 110.576634 475.74283 
L 109.007836 478.20172 
L 109.007836 478.20172 
L 107.152843 479.267771 
L 105.297849 480.056085 
L 103.442855 480.588477 
L 102.868623 480.66061 
L 101.587862 480.786492 
L 99.732868 480.679063 
z
" clip-path="url(#p26a02feb3a)" style="fill: #3383be"/>
    <path d="M 99.732868 480.679063 
L 101.587862 480.786492 
L 102.868623 480.66061 
L 103.442855 480.588477 
L 105.297849 480.056085 
L 107.152843 479.267771 
L 109.007836 478.20172 
L 109.007836 478.20172 
L 110.576634 475.74283 
L 109.482485 473.283941 
L 109.007836 472.991767 
L 107.152843 472.2756 
L 105.297849 472.010274 
L 103.442855 472.106613 
L 101.587862 472.522145 
L 99.732868 473.262195 
L 99.693929 473.283941 
L 97.877874 474.751838 
L 96.884007 475.74283 
L 96.28403 478.20172 
L 97.877874 479.886013 
L 99.652944 480.66061 
z
M 98.525201 478.20172 
L 98.845008 475.74283 
L 99.732868 475.027991 
L 101.587862 473.955448 
L 103.442855 473.320187 
L 105.297849 473.283941 
L 107.152843 474.237132 
L 108.311614 475.74283 
L 107.152843 477.382225 
L 106.458089 478.20172 
L 105.297849 478.710775 
L 103.442855 479.20527 
L 101.587862 479.329134 
L 99.732868 478.940075 
z
" clip-path="url(#p26a02feb3a)" style="fill: #1663aa"/>
    <path d="M 99.732868 478.940075 
L 101.587862 479.329134 
L 103.442855 479.20527 
L 105.297849 478.710775 
L 106.458089 478.20172 
L 107.152843 477.382225 
L 108.311614 475.74283 
L 107.152843 474.237132 
L 105.297849 473.283941 
L 103.442855 473.320187 
L 101.587862 473.955448 
L 99.732868 475.027991 
L 98.845008 475.74283 
L 98.525201 478.20172 
z
" clip-path="url(#p26a02feb3a)" style="fill: #084285"/>
   </g>
   <g id="matplotlib.axis_1">
    <g id="xtick_1">
     <g id="line2d_1">
      <defs>
       <path id="md249ca8611" d="M 0 0 
L 0 3.5 
" style="stroke: #000000; stroke-width: 0.8"/>
      </defs>
      <g>
       <use xlink:href="#md249ca8611" x="97.436584" y="499.48" style="stroke: #000000; stroke-width: 0.8"/>
      </g>
     </g>
     <g id="text_1">
      <!-- 0 -->
      <g transform="translate(90.437834 523.196563) scale(0.22 -0.22)">
       <defs>
        <path id="DejaVuSans-30" d="M 2034 4250 
Q 1547 4250 1301 3770 
Q 1056 3291 1056 2328 
Q 1056 1369 1301 889 
Q 1547 409 2034 409 
Q 2525 409 2770 889 
Q 3016 1369 3016 2328 
Q 3016 3291 2770 3770 
Q 2525 4250 2034 4250 
z
M 2034 4750 
Q 2819 4750 3233 4129 
Q 3647 3509 3647 2328 
Q 3647 1150 3233 529 
Q 2819 -91 2034 -91 
Q 1250 -91 836 529 
Q 422 1150 422 2328 
Q 422 3509 836 4129 
Q 1250 4750 2034 4750 
z
" transform="scale(0.015625)"/>
       </defs>
       <use xlink:href="#DejaVuSans-30"/>
      </g>
     </g>
    </g>
    <g id="xtick_2">
     <g id="line2d_2">
      <g>
       <use xlink:href="#md249ca8611" x="186.466652" y="499.48" style="stroke: #000000; stroke-width: 0.8"/>
      </g>
     </g>
     <g id="text_2">
      <!-- 10 -->
      <g transform="translate(172.469152 523.196563) scale(0.22 -0.22)">
       <defs>
        <path id="DejaVuSans-31" d="M 794 531 
L 1825 531 
L 1825 4091 
L 703 3866 
L 703 4441 
L 1819 4666 
L 2450 4666 
L 2450 531 
L 3481 531 
L 3481 0 
L 794 0 
L 794 531 
z
" transform="scale(0.015625)"/>
       </defs>
       <use xlink:href="#DejaVuSans-31"/>
       <use xlink:href="#DejaVuSans-30" x="63.623047"/>
      </g>
     </g>
    </g>
    <g id="xtick_3">
     <g id="line2d_3">
      <g>
       <use xlink:href="#md249ca8611" x="275.496719" y="499.48" style="stroke: #000000; stroke-width: 0.8"/>
      </g>
     </g>
     <g id="text_3">
      <!-- 20 -->
      <g transform="translate(261.499219 523.196563) scale(0.22 -0.22)">
       <defs>
        <path id="DejaVuSans-32" d="M 1228 531 
L 3431 531 
L 3431 0 
L 469 0 
L 469 531 
Q 828 903 1448 1529 
Q 2069 2156 2228 2338 
Q 2531 2678 2651 2914 
Q 2772 3150 2772 3378 
Q 2772 3750 2511 3984 
Q 2250 4219 1831 4219 
Q 1534 4219 1204 4116 
Q 875 4013 500 3803 
L 500 4441 
Q 881 4594 1212 4672 
Q 1544 4750 1819 4750 
Q 2544 4750 2975 4387 
Q 3406 4025 3406 3419 
Q 3406 3131 3298 2873 
Q 3191 2616 2906 2266 
Q 2828 2175 2409 1742 
Q 1991 1309 1228 531 
z
" transform="scale(0.015625)"/>
       </defs>
       <use xlink:href="#DejaVuSans-32"/>
       <use xlink:href="#DejaVuSans-30" x="63.623047"/>
      </g>
     </g>
    </g>
    <g id="xtick_4">
     <g id="line2d_4">
      <g>
       <use xlink:href="#md249ca8611" x="364.526787" y="499.48" style="stroke: #000000; stroke-width: 0.8"/>
      </g>
     </g>
     <g id="text_4">
      <!-- 30 -->
      <g transform="translate(350.529287 523.196563) scale(0.22 -0.22)">
       <defs>
        <path id="DejaVuSans-33" d="M 2597 2516 
Q 3050 2419 3304 2112 
Q 3559 1806 3559 1356 
Q 3559 666 3084 287 
Q 2609 -91 1734 -91 
Q 1441 -91 1130 -33 
Q 819 25 488 141 
L 488 750 
Q 750 597 1062 519 
Q 1375 441 1716 441 
Q 2309 441 2620 675 
Q 2931 909 2931 1356 
Q 2931 1769 2642 2001 
Q 2353 2234 1838 2234 
L 1294 2234 
L 1294 2753 
L 1863 2753 
Q 2328 2753 2575 2939 
Q 2822 3125 2822 3475 
Q 2822 3834 2567 4026 
Q 2313 4219 1838 4219 
Q 1578 4219 1281 4162 
Q 984 4106 628 3988 
L 628 4550 
Q 988 4650 1302 4700 
Q 1616 4750 1894 4750 
Q 2613 4750 3031 4423 
Q 3450 4097 3450 3541 
Q 3450 3153 3228 2886 
Q 3006 2619 2597 2516 
z
" transform="scale(0.015625)"/>
       </defs>
       <use xlink:href="#DejaVuSans-33"/>
       <use xlink:href="#DejaVuSans-30" x="63.623047"/>
      </g>
     </g>
    </g>
    <g id="xtick_5">
     <g id="line2d_5">
      <g>
       <use xlink:href="#md249ca8611" x="453.556854" y="499.48" style="stroke: #000000; stroke-width: 0.8"/>
      </g>
     </g>
     <g id="text_5">
      <!-- 40 -->
      <g transform="translate(439.559354 523.196563) scale(0.22 -0.22)">
       <defs>
        <path id="DejaVuSans-34" d="M 2419 4116 
L 825 1625 
L 2419 1625 
L 2419 4116 
z
M 2253 4666 
L 3047 4666 
L 3047 1625 
L 3713 1625 
L 3713 1100 
L 3047 1100 
L 3047 0 
L 2419 0 
L 2419 1100 
L 313 1100 
L 313 1709 
L 2253 4666 
z
" transform="scale(0.015625)"/>
       </defs>
       <use xlink:href="#DejaVuSans-34"/>
       <use xlink:href="#DejaVuSans-30" x="63.623047"/>
      </g>
     </g>
    </g>
    <g id="xtick_6">
     <g id="line2d_6">
      <g>
       <use xlink:href="#md249ca8611" x="542.586922" y="499.48" style="stroke: #000000; stroke-width: 0.8"/>
      </g>
     </g>
     <g id="text_6">
      <!-- 50 -->
      <g transform="translate(528.589422 523.196563) scale(0.22 -0.22)">
       <defs>
        <path id="DejaVuSans-35" d="M 691 4666 
L 3169 4666 
L 3169 4134 
L 1269 4134 
L 1269 2991 
Q 1406 3038 1543 3061 
Q 1681 3084 1819 3084 
Q 2600 3084 3056 2656 
Q 3513 2228 3513 1497 
Q 3513 744 3044 326 
Q 2575 -91 1722 -91 
Q 1428 -91 1123 -41 
Q 819 9 494 109 
L 494 744 
Q 775 591 1075 516 
Q 1375 441 1709 441 
Q 2250 441 2565 725 
Q 2881 1009 2881 1497 
Q 2881 1984 2565 2268 
Q 2250 2553 1709 2553 
Q 1456 2553 1204 2497 
Q 953 2441 691 2322 
L 691 4666 
z
" transform="scale(0.015625)"/>
       </defs>
       <use xlink:href="#DejaVuSans-35"/>
       <use xlink:href="#DejaVuSans-30" x="63.623047"/>
      </g>
     </g>
    </g>
    <g id="xtick_7">
     <g id="line2d_7">
      <g>
       <use xlink:href="#md249ca8611" x="631.61699" y="499.48" style="stroke: #000000; stroke-width: 0.8"/>
      </g>
     </g>
     <g id="text_7">
      <!-- 60 -->
      <g transform="translate(617.61949 523.196563) scale(0.22 -0.22)">
       <defs>
        <path id="DejaVuSans-36" d="M 2113 2584 
Q 1688 2584 1439 2293 
Q 1191 2003 1191 1497 
Q 1191 994 1439 701 
Q 1688 409 2113 409 
Q 2538 409 2786 701 
Q 3034 994 3034 1497 
Q 3034 2003 2786 2293 
Q 2538 2584 2113 2584 
z
M 3366 4563 
L 3366 3988 
Q 3128 4100 2886 4159 
Q 2644 4219 2406 4219 
Q 1781 4219 1451 3797 
Q 1122 3375 1075 2522 
Q 1259 2794 1537 2939 
Q 1816 3084 2150 3084 
Q 2853 3084 3261 2657 
Q 3669 2231 3669 1497 
Q 3669 778 3244 343 
Q 2819 -91 2113 -91 
Q 1303 -91 875 529 
Q 447 1150 447 2328 
Q 447 3434 972 4092 
Q 1497 4750 2381 4750 
Q 2619 4750 2861 4703 
Q 3103 4656 3366 4563 
z
" transform="scale(0.015625)"/>
       </defs>
       <use xlink:href="#DejaVuSans-36"/>
       <use xlink:href="#DejaVuSans-30" x="63.623047"/>
      </g>
     </g>
    </g>
    <g id="text_8">
     <!-- Force Uncertainties -->
     <g transform="translate(283.426094 548.488438) scale(0.22 -0.22)">
      <defs>
       <path id="DejaVuSans-46" d="M 628 4666 
L 3309 4666 
L 3309 4134 
L 1259 4134 
L 1259 2759 
L 3109 2759 
L 3109 2228 
L 1259 2228 
L 1259 0 
L 628 0 
L 628 4666 
z
" transform="scale(0.015625)"/>
       <path id="DejaVuSans-6f" d="M 1959 3097 
Q 1497 3097 1228 2736 
Q 959 2375 959 1747 
Q 959 1119 1226 758 
Q 1494 397 1959 397 
Q 2419 397 2687 759 
Q 2956 1122 2956 1747 
Q 2956 2369 2687 2733 
Q 2419 3097 1959 3097 
z
M 1959 3584 
Q 2709 3584 3137 3096 
Q 3566 2609 3566 1747 
Q 3566 888 3137 398 
Q 2709 -91 1959 -91 
Q 1206 -91 779 398 
Q 353 888 353 1747 
Q 353 2609 779 3096 
Q 1206 3584 1959 3584 
z
" transform="scale(0.015625)"/>
       <path id="DejaVuSans-72" d="M 2631 2963 
Q 2534 3019 2420 3045 
Q 2306 3072 2169 3072 
Q 1681 3072 1420 2755 
Q 1159 2438 1159 1844 
L 1159 0 
L 581 0 
L 581 3500 
L 1159 3500 
L 1159 2956 
Q 1341 3275 1631 3429 
Q 1922 3584 2338 3584 
Q 2397 3584 2469 3576 
Q 2541 3569 2628 3553 
L 2631 2963 
z
" transform="scale(0.015625)"/>
       <path id="DejaVuSans-63" d="M 3122 3366 
L 3122 2828 
Q 2878 2963 2633 3030 
Q 2388 3097 2138 3097 
Q 1578 3097 1268 2742 
Q 959 2388 959 1747 
Q 959 1106 1268 751 
Q 1578 397 2138 397 
Q 2388 397 2633 464 
Q 2878 531 3122 666 
L 3122 134 
Q 2881 22 2623 -34 
Q 2366 -91 2075 -91 
Q 1284 -91 818 406 
Q 353 903 353 1747 
Q 353 2603 823 3093 
Q 1294 3584 2113 3584 
Q 2378 3584 2631 3529 
Q 2884 3475 3122 3366 
z
" transform="scale(0.015625)"/>
       <path id="DejaVuSans-65" d="M 3597 1894 
L 3597 1613 
L 953 1613 
Q 991 1019 1311 708 
Q 1631 397 2203 397 
Q 2534 397 2845 478 
Q 3156 559 3463 722 
L 3463 178 
Q 3153 47 2828 -22 
Q 2503 -91 2169 -91 
Q 1331 -91 842 396 
Q 353 884 353 1716 
Q 353 2575 817 3079 
Q 1281 3584 2069 3584 
Q 2775 3584 3186 3129 
Q 3597 2675 3597 1894 
z
M 3022 2063 
Q 3016 2534 2758 2815 
Q 2500 3097 2075 3097 
Q 1594 3097 1305 2825 
Q 1016 2553 972 2059 
L 3022 2063 
z
" transform="scale(0.015625)"/>
       <path id="DejaVuSans-20" transform="scale(0.015625)"/>
       <path id="DejaVuSans-55" d="M 556 4666 
L 1191 4666 
L 1191 1831 
Q 1191 1081 1462 751 
Q 1734 422 2344 422 
Q 2950 422 3222 751 
Q 3494 1081 3494 1831 
L 3494 4666 
L 4128 4666 
L 4128 1753 
Q 4128 841 3676 375 
Q 3225 -91 2344 -91 
Q 1459 -91 1007 375 
Q 556 841 556 1753 
L 556 4666 
z
" transform="scale(0.015625)"/>
       <path id="DejaVuSans-6e" d="M 3513 2113 
L 3513 0 
L 2938 0 
L 2938 2094 
Q 2938 2591 2744 2837 
Q 2550 3084 2163 3084 
Q 1697 3084 1428 2787 
Q 1159 2491 1159 1978 
L 1159 0 
L 581 0 
L 581 3500 
L 1159 3500 
L 1159 2956 
Q 1366 3272 1645 3428 
Q 1925 3584 2291 3584 
Q 2894 3584 3203 3211 
Q 3513 2838 3513 2113 
z
" transform="scale(0.015625)"/>
       <path id="DejaVuSans-74" d="M 1172 4494 
L 1172 3500 
L 2356 3500 
L 2356 3053 
L 1172 3053 
L 1172 1153 
Q 1172 725 1289 603 
Q 1406 481 1766 481 
L 2356 481 
L 2356 0 
L 1766 0 
Q 1100 0 847 248 
Q 594 497 594 1153 
L 594 3053 
L 172 3053 
L 172 3500 
L 594 3500 
L 594 4494 
L 1172 4494 
z
" transform="scale(0.015625)"/>
       <path id="DejaVuSans-61" d="M 2194 1759 
Q 1497 1759 1228 1600 
Q 959 1441 959 1056 
Q 959 750 1161 570 
Q 1363 391 1709 391 
Q 2188 391 2477 730 
Q 2766 1069 2766 1631 
L 2766 1759 
L 2194 1759 
z
M 3341 1997 
L 3341 0 
L 2766 0 
L 2766 531 
Q 2569 213 2275 61 
Q 1981 -91 1556 -91 
Q 1019 -91 701 211 
Q 384 513 384 1019 
Q 384 1609 779 1909 
Q 1175 2209 1959 2209 
L 2766 2209 
L 2766 2266 
Q 2766 2663 2505 2880 
Q 2244 3097 1772 3097 
Q 1472 3097 1187 3025 
Q 903 2953 641 2809 
L 641 3341 
Q 956 3463 1253 3523 
Q 1550 3584 1831 3584 
Q 2591 3584 2966 3190 
Q 3341 2797 3341 1997 
z
" transform="scale(0.015625)"/>
       <path id="DejaVuSans-69" d="M 603 3500 
L 1178 3500 
L 1178 0 
L 603 0 
L 603 3500 
z
M 603 4863 
L 1178 4863 
L 1178 4134 
L 603 4134 
L 603 4863 
z
" transform="scale(0.015625)"/>
       <path id="DejaVuSans-73" d="M 2834 3397 
L 2834 2853 
Q 2591 2978 2328 3040 
Q 2066 3103 1784 3103 
Q 1356 3103 1142 2972 
Q 928 2841 928 2578 
Q 928 2378 1081 2264 
Q 1234 2150 1697 2047 
L 1894 2003 
Q 2506 1872 2764 1633 
Q 3022 1394 3022 966 
Q 3022 478 2636 193 
Q 2250 -91 1575 -91 
Q 1294 -91 989 -36 
Q 684 19 347 128 
L 347 722 
Q 666 556 975 473 
Q 1284 391 1588 391 
Q 1994 391 2212 530 
Q 2431 669 2431 922 
Q 2431 1156 2273 1281 
Q 2116 1406 1581 1522 
L 1381 1569 
Q 847 1681 609 1914 
Q 372 2147 372 2553 
Q 372 3047 722 3315 
Q 1072 3584 1716 3584 
Q 2034 3584 2315 3537 
Q 2597 3491 2834 3397 
z
" transform="scale(0.015625)"/>
      </defs>
      <use xlink:href="#DejaVuSans-46"/>
      <use xlink:href="#DejaVuSans-6f" x="53.894531"/>
      <use xlink:href="#DejaVuSans-72" x="115.076172"/>
      <use xlink:href="#DejaVuSans-63" x="153.939453"/>
      <use xlink:href="#DejaVuSans-65" x="208.919922"/>
      <use xlink:href="#DejaVuSans-20" x="270.443359"/>
      <use xlink:href="#DejaVuSans-55" x="302.230469"/>
      <use xlink:href="#DejaVuSans-6e" x="375.423828"/>
      <use xlink:href="#DejaVuSans-63" x="438.802734"/>
      <use xlink:href="#DejaVuSans-65" x="493.783203"/>
      <use xlink:href="#DejaVuSans-72" x="555.306641"/>
      <use xlink:href="#DejaVuSans-74" x="596.419922"/>
      <use xlink:href="#DejaVuSans-61" x="635.628906"/>
      <use xlink:href="#DejaVuSans-69" x="696.908203"/>
      <use xlink:href="#DejaVuSans-6e" x="724.691406"/>
      <use xlink:href="#DejaVuSans-74" x="788.070312"/>
      <use xlink:href="#DejaVuSans-69" x="827.279297"/>
      <use xlink:href="#DejaVuSans-65" x="855.0625"/>
      <use xlink:href="#DejaVuSans-73" x="916.585938"/>
     </g>
    </g>
   </g>
   <g id="matplotlib.axis_2">
    <g id="ytick_1">
     <g id="line2d_8">
      <defs>
       <path id="mf1b80c8a97" d="M 0 0 
L -3.5 0 
" style="stroke: #000000; stroke-width: 0.8"/>
      </defs>
      <g>
       <use xlink:href="#mf1b80c8a97" x="83.72" y="488.826873" style="stroke: #000000; stroke-width: 0.8"/>
      </g>
     </g>
     <g id="text_9">
      <!-- 0 -->
      <g transform="translate(62.7225 497.185154) scale(0.22 -0.22)">
       <use xlink:href="#DejaVuSans-30"/>
      </g>
     </g>
    </g>
    <g id="ytick_2">
     <g id="line2d_9">
      <g>
       <use xlink:href="#mf1b80c8a97" x="83.72" y="419.680749" style="stroke: #000000; stroke-width: 0.8"/>
      </g>
     </g>
     <g id="text_10">
      <!-- 10 -->
      <g transform="translate(48.725 428.03903) scale(0.22 -0.22)">
       <use xlink:href="#DejaVuSans-31"/>
       <use xlink:href="#DejaVuSans-30" x="63.623047"/>
      </g>
     </g>
    </g>
    <g id="ytick_3">
     <g id="line2d_10">
      <g>
       <use xlink:href="#mf1b80c8a97" x="83.72" y="350.534625" style="stroke: #000000; stroke-width: 0.8"/>
      </g>
     </g>
     <g id="text_11">
      <!-- 20 -->
      <g transform="translate(48.725 358.892907) scale(0.22 -0.22)">
       <use xlink:href="#DejaVuSans-32"/>
       <use xlink:href="#DejaVuSans-30" x="63.623047"/>
      </g>
     </g>
    </g>
    <g id="ytick_4">
     <g id="line2d_11">
      <g>
       <use xlink:href="#mf1b80c8a97" x="83.72" y="281.388502" style="stroke: #000000; stroke-width: 0.8"/>
      </g>
     </g>
     <g id="text_12">
      <!-- 30 -->
      <g transform="translate(48.725 289.746783) scale(0.22 -0.22)">
       <use xlink:href="#DejaVuSans-33"/>
       <use xlink:href="#DejaVuSans-30" x="63.623047"/>
      </g>
     </g>
    </g>
    <g id="ytick_5">
     <g id="line2d_12">
      <g>
       <use xlink:href="#mf1b80c8a97" x="83.72" y="212.242378" style="stroke: #000000; stroke-width: 0.8"/>
      </g>
     </g>
     <g id="text_13">
      <!-- 40 -->
      <g transform="translate(48.725 220.600659) scale(0.22 -0.22)">
       <use xlink:href="#DejaVuSans-34"/>
       <use xlink:href="#DejaVuSans-30" x="63.623047"/>
      </g>
     </g>
    </g>
    <g id="ytick_6">
     <g id="line2d_13">
      <g>
       <use xlink:href="#mf1b80c8a97" x="83.72" y="143.096254" style="stroke: #000000; stroke-width: 0.8"/>
      </g>
     </g>
     <g id="text_14">
      <!-- 50 -->
      <g transform="translate(48.725 151.454535) scale(0.22 -0.22)">
       <use xlink:href="#DejaVuSans-35"/>
       <use xlink:href="#DejaVuSans-30" x="63.623047"/>
      </g>
     </g>
    </g>
    <g id="ytick_7">
     <g id="line2d_14">
      <g>
       <use xlink:href="#mf1b80c8a97" x="83.72" y="73.95013" style="stroke: #000000; stroke-width: 0.8"/>
      </g>
     </g>
     <g id="text_15">
      <!-- 60 -->
      <g transform="translate(48.725 82.308411) scale(0.22 -0.22)">
       <use xlink:href="#DejaVuSans-36"/>
       <use xlink:href="#DejaVuSans-30" x="63.623047"/>
      </g>
     </g>
    </g>
    <g id="text_16">
     <!-- Force Errors [kJ/(mol*A)] -->
     <g transform="translate(40.149688 394.9125) rotate(-90) scale(0.22 -0.22)">
      <defs>
       <path id="DejaVuSans-45" d="M 628 4666 
L 3578 4666 
L 3578 4134 
L 1259 4134 
L 1259 2753 
L 3481 2753 
L 3481 2222 
L 1259 2222 
L 1259 531 
L 3634 531 
L 3634 0 
L 628 0 
L 628 4666 
z
" transform="scale(0.015625)"/>
       <path id="DejaVuSans-5b" d="M 550 4863 
L 1875 4863 
L 1875 4416 
L 1125 4416 
L 1125 -397 
L 1875 -397 
L 1875 -844 
L 550 -844 
L 550 4863 
z
" transform="scale(0.015625)"/>
       <path id="DejaVuSans-6b" d="M 581 4863 
L 1159 4863 
L 1159 1991 
L 2875 3500 
L 3609 3500 
L 1753 1863 
L 3688 0 
L 2938 0 
L 1159 1709 
L 1159 0 
L 581 0 
L 581 4863 
z
" transform="scale(0.015625)"/>
       <path id="DejaVuSans-4a" d="M 628 4666 
L 1259 4666 
L 1259 325 
Q 1259 -519 939 -900 
Q 619 -1281 -91 -1281 
L -331 -1281 
L -331 -750 
L -134 -750 
Q 284 -750 456 -515 
Q 628 -281 628 325 
L 628 4666 
z
" transform="scale(0.015625)"/>
       <path id="DejaVuSans-2f" d="M 1625 4666 
L 2156 4666 
L 531 -594 
L 0 -594 
L 1625 4666 
z
" transform="scale(0.015625)"/>
       <path id="DejaVuSans-28" d="M 1984 4856 
Q 1566 4138 1362 3434 
Q 1159 2731 1159 2009 
Q 1159 1288 1364 580 
Q 1569 -128 1984 -844 
L 1484 -844 
Q 1016 -109 783 600 
Q 550 1309 550 2009 
Q 550 2706 781 3412 
Q 1013 4119 1484 4856 
L 1984 4856 
z
" transform="scale(0.015625)"/>
       <path id="DejaVuSans-6d" d="M 3328 2828 
Q 3544 3216 3844 3400 
Q 4144 3584 4550 3584 
Q 5097 3584 5394 3201 
Q 5691 2819 5691 2113 
L 5691 0 
L 5113 0 
L 5113 2094 
Q 5113 2597 4934 2840 
Q 4756 3084 4391 3084 
Q 3944 3084 3684 2787 
Q 3425 2491 3425 1978 
L 3425 0 
L 2847 0 
L 2847 2094 
Q 2847 2600 2669 2842 
Q 2491 3084 2119 3084 
Q 1678 3084 1418 2786 
Q 1159 2488 1159 1978 
L 1159 0 
L 581 0 
L 581 3500 
L 1159 3500 
L 1159 2956 
Q 1356 3278 1631 3431 
Q 1906 3584 2284 3584 
Q 2666 3584 2933 3390 
Q 3200 3197 3328 2828 
z
" transform="scale(0.015625)"/>
       <path id="DejaVuSans-6c" d="M 603 4863 
L 1178 4863 
L 1178 0 
L 603 0 
L 603 4863 
z
" transform="scale(0.015625)"/>
       <path id="DejaVuSans-2a" d="M 3009 3897 
L 1888 3291 
L 3009 2681 
L 2828 2375 
L 1778 3009 
L 1778 1831 
L 1422 1831 
L 1422 3009 
L 372 2375 
L 191 2681 
L 1313 3291 
L 191 3897 
L 372 4206 
L 1422 3572 
L 1422 4750 
L 1778 4750 
L 1778 3572 
L 2828 4206 
L 3009 3897 
z
" transform="scale(0.015625)"/>
       <path id="DejaVuSans-41" d="M 2188 4044 
L 1331 1722 
L 3047 1722 
L 2188 4044 
z
M 1831 4666 
L 2547 4666 
L 4325 0 
L 3669 0 
L 3244 1197 
L 1141 1197 
L 716 0 
L 50 0 
L 1831 4666 
z
" transform="scale(0.015625)"/>
       <path id="DejaVuSans-29" d="M 513 4856 
L 1013 4856 
Q 1481 4119 1714 3412 
Q 1947 2706 1947 2009 
Q 1947 1309 1714 600 
Q 1481 -109 1013 -844 
L 513 -844 
Q 928 -128 1133 580 
Q 1338 1288 1338 2009 
Q 1338 2731 1133 3434 
Q 928 4138 513 4856 
z
" transform="scale(0.015625)"/>
       <path id="DejaVuSans-5d" d="M 1947 4863 
L 1947 -844 
L 622 -844 
L 622 -397 
L 1369 -397 
L 1369 4416 
L 622 4416 
L 622 4863 
L 1947 4863 
z
" transform="scale(0.015625)"/>
      </defs>
      <use xlink:href="#DejaVuSans-46"/>
      <use xlink:href="#DejaVuSans-6f" x="53.894531"/>
      <use xlink:href="#DejaVuSans-72" x="115.076172"/>
      <use xlink:href="#DejaVuSans-63" x="153.939453"/>
      <use xlink:href="#DejaVuSans-65" x="208.919922"/>
      <use xlink:href="#DejaVuSans-20" x="270.443359"/>
      <use xlink:href="#DejaVuSans-45" x="302.230469"/>
      <use xlink:href="#DejaVuSans-72" x="365.414062"/>
      <use xlink:href="#DejaVuSans-72" x="404.777344"/>
      <use xlink:href="#DejaVuSans-6f" x="443.640625"/>
      <use xlink:href="#DejaVuSans-72" x="504.822266"/>
      <use xlink:href="#DejaVuSans-73" x="545.935547"/>
      <use xlink:href="#DejaVuSans-20" x="598.035156"/>
      <use xlink:href="#DejaVuSans-5b" x="629.822266"/>
      <use xlink:href="#DejaVuSans-6b" x="668.835938"/>
      <use xlink:href="#DejaVuSans-4a" x="726.746094"/>
      <use xlink:href="#DejaVuSans-2f" x="756.238281"/>
      <use xlink:href="#DejaVuSans-28" x="789.929688"/>
      <use xlink:href="#DejaVuSans-6d" x="828.943359"/>
      <use xlink:href="#DejaVuSans-6f" x="926.355469"/>
      <use xlink:href="#DejaVuSans-6c" x="987.537109"/>
      <use xlink:href="#DejaVuSans-2a" x="1015.320312"/>
      <use xlink:href="#DejaVuSans-41" x="1065.320312"/>
      <use xlink:href="#DejaVuSans-29" x="1133.728516"/>
      <use xlink:href="#DejaVuSans-5d" x="1172.742188"/>
     </g>
    </g>
   </g>
   <g id="line2d_15">
    <path d="M 83.72 499.48 
L 696.24 23.76 
" clip-path="url(#p26a02feb3a)" style="fill: none; stroke-dasharray: 5.55,2.4; stroke-dashoffset: 0; stroke: #ff0000; stroke-width: 1.5"/>
   </g>
   <g id="patch_3">
    <path d="M 83.72 499.48 
L 83.72 23.76 
" style="fill: none; stroke: #000000; stroke-width: 0.8; stroke-linejoin: miter; stroke-linecap: square"/>
   </g>
   <g id="patch_4">
    <path d="M 696.24 499.48 
L 696.24 23.76 
" style="fill: none; stroke: #000000; stroke-width: 0.8; stroke-linejoin: miter; stroke-linecap: square"/>
   </g>
   <g id="patch_5">
    <path d="M 83.72 499.48 
L 696.24 499.48 
" style="fill: none; stroke: #000000; stroke-width: 0.8; stroke-linejoin: miter; stroke-linecap: square"/>
   </g>
   <g id="patch_6">
    <path d="M 83.72 23.76 
L 696.24 23.76 
" style="fill: none; stroke: #000000; stroke-width: 0.8; stroke-linejoin: miter; stroke-linecap: square"/>
   </g>
   <g id="text_17">
    <!-- Correlation in: 0.379 -->
    <g transform="translate(144.972 71.332) scale(0.22 -0.22)">
     <defs>
      <path id="DejaVuSans-43" d="M 4122 4306 
L 4122 3641 
Q 3803 3938 3442 4084 
Q 3081 4231 2675 4231 
Q 1875 4231 1450 3742 
Q 1025 3253 1025 2328 
Q 1025 1406 1450 917 
Q 1875 428 2675 428 
Q 3081 428 3442 575 
Q 3803 722 4122 1019 
L 4122 359 
Q 3791 134 3420 21 
Q 3050 -91 2638 -91 
Q 1578 -91 968 557 
Q 359 1206 359 2328 
Q 359 3453 968 4101 
Q 1578 4750 2638 4750 
Q 3056 4750 3426 4639 
Q 3797 4528 4122 4306 
z
" transform="scale(0.015625)"/>
      <path id="DejaVuSans-3a" d="M 750 794 
L 1409 794 
L 1409 0 
L 750 0 
L 750 794 
z
M 750 3309 
L 1409 3309 
L 1409 2516 
L 750 2516 
L 750 3309 
z
" transform="scale(0.015625)"/>
      <path id="DejaVuSans-2e" d="M 684 794 
L 1344 794 
L 1344 0 
L 684 0 
L 684 794 
z
" transform="scale(0.015625)"/>
      <path id="DejaVuSans-37" d="M 525 4666 
L 3525 4666 
L 3525 4397 
L 1831 0 
L 1172 0 
L 2766 4134 
L 525 4134 
L 525 4666 
z
" transform="scale(0.015625)"/>
      <path id="DejaVuSans-39" d="M 703 97 
L 703 672 
Q 941 559 1184 500 
Q 1428 441 1663 441 
Q 2288 441 2617 861 
Q 2947 1281 2994 2138 
Q 2813 1869 2534 1725 
Q 2256 1581 1919 1581 
Q 1219 1581 811 2004 
Q 403 2428 403 3163 
Q 403 3881 828 4315 
Q 1253 4750 1959 4750 
Q 2769 4750 3195 4129 
Q 3622 3509 3622 2328 
Q 3622 1225 3098 567 
Q 2575 -91 1691 -91 
Q 1453 -91 1209 -44 
Q 966 3 703 97 
z
M 1959 2075 
Q 2384 2075 2632 2365 
Q 2881 2656 2881 3163 
Q 2881 3666 2632 3958 
Q 2384 4250 1959 4250 
Q 1534 4250 1286 3958 
Q 1038 3666 1038 3163 
Q 1038 2656 1286 2365 
Q 1534 2075 1959 2075 
z
" transform="scale(0.015625)"/>
     </defs>
     <use xlink:href="#DejaVuSans-43"/>
     <use xlink:href="#DejaVuSans-6f" x="69.824219"/>
     <use xlink:href="#DejaVuSans-72" x="131.005859"/>
     <use xlink:href="#DejaVuSans-72" x="170.369141"/>
     <use xlink:href="#DejaVuSans-65" x="209.232422"/>
     <use xlink:href="#DejaVuSans-6c" x="270.755859"/>
     <use xlink:href="#DejaVuSans-61" x="298.539062"/>
     <use xlink:href="#DejaVuSans-74" x="359.818359"/>
     <use xlink:href="#DejaVuSans-69" x="399.027344"/>
     <use xlink:href="#DejaVuSans-6f" x="426.810547"/>
     <use xlink:href="#DejaVuSans-6e" x="487.992188"/>
     <use xlink:href="#DejaVuSans-20" x="551.371094"/>
     <use xlink:href="#DejaVuSans-69" x="583.158203"/>
     <use xlink:href="#DejaVuSans-6e" x="610.941406"/>
     <use xlink:href="#DejaVuSans-3a" x="674.320312"/>
     <use xlink:href="#DejaVuSans-20" x="708.011719"/>
     <use xlink:href="#DejaVuSans-30" x="739.798828"/>
     <use xlink:href="#DejaVuSans-2e" x="803.421875"/>
     <use xlink:href="#DejaVuSans-33" x="835.208984"/>
     <use xlink:href="#DejaVuSans-37" x="898.832031"/>
     <use xlink:href="#DejaVuSans-39" x="962.455078"/>
    </g>
   </g>
  </g>
 </g>
 <defs>
  <clipPath id="p26a02feb3a">
   <rect x="83.72" y="23.76" width="612.52" height="475.72"/>
  </clipPath>
 </defs>
</svg>
