<?xml version="1.0" encoding="utf-8" standalone="no"?>
<!DOCTYPE svg PUBLIC "-//W3C//DTD SVG 1.1//EN"
  "http://www.w3.org/Graphics/SVG/1.1/DTD/svg11.dtd">
<svg xmlns:xlink="http://www.w3.org/1999/xlink" width="720pt" height="576pt" viewBox="0 0 720 576" xmlns="http://www.w3.org/2000/svg" version="1.1">
 <metadata>
  <rdf:RDF xmlns:dc="http://purl.org/dc/elements/1.1/" xmlns:cc="http://creativecommons.org/ns#" xmlns:rdf="http://www.w3.org/1999/02/22-rdf-syntax-ns#">
   <cc:Work>
    <dc:type rdf:resource="http://purl.org/dc/dcmitype/StillImage"/>
    <dc:date>2024-12-07T16:49:10.262560</dc:date>
    <dc:format>image/svg+xml</dc:format>
    <dc:creator>
     <cc:Agent>
      <dc:title>Matplotlib v3.8.4, https://matplotlib.org/</dc:title>
     </cc:Agent>
    </dc:creator>
   </cc:Work>
  </rdf:RDF>
 </metadata>
 <defs>
  <style type="text/css">*{stroke-linejoin: round; stroke-linecap: butt}</style>
 </defs>
 <g id="figure_1">
  <g id="patch_1">
   <path d="M 0 576 
L 720 576 
L 720 0 
L 0 0 
z
" style="fill: #ffffff"/>
  </g>
  <g id="axes_1">
   <g id="patch_2">
    <path d="M 83.72 499.48 
L 696.24 499.48 
L 696.24 23.76 
L 83.72 23.76 
z
" style="fill: #ffffff"/>
   </g>
   <g id="QuadContourSet_1">
    <path d="M 79.28368 512.395246 
L 82.118806 512.877099 
L 84.953931 512.96644 
L 87.789057 512.843485 
L 90.624182 512.580173 
L 93.459308 512.19311 
L 96.294433 511.672834 
L 98.598875 511.146294 
L 99.129559 511.073889 
L 101.964684 510.655167 
L 104.79981 510.153066 
L 107.634935 509.545711 
L 110.470061 508.79264 
L 111.484198 508.484963 
L 113.305186 508.122523 
L 116.140312 507.475151 
L 118.975437 506.704617 
L 121.810563 505.825416 
L 121.816823 505.823631 
L 124.645688 505.249038 
L 127.480814 504.55117 
L 130.315939 503.693447 
L 131.776752 503.162299 
L 133.151065 502.773218 
L 135.98619 501.810343 
L 138.821316 500.56965 
L 138.960952 500.500967 
L 141.656441 499.412796 
L 144.491567 497.945737 
L 144.682766 497.839636 
L 147.326692 496.553989 
L 149.615921 495.178304 
L 150.161818 494.865195 
L 152.996943 493.152188 
L 153.959752 492.516972 
L 155.832068 491.235906 
L 157.676628 489.85564 
L 158.667194 489.009771 
L 160.742662 487.194309 
L 161.502319 486.35168 
L 163.209314 484.532977 
L 164.337445 482.808522 
L 165.016982 481.871645 
L 166.228879 479.210313 
L 166.579376 476.548982 
L 165.424141 473.88765 
L 164.337445 472.795068 
L 163.039283 471.226318 
L 161.502319 469.475326 
L 160.68531 468.564986 
L 158.667194 467.022412 
L 157.106726 465.903655 
L 155.832068 464.805998 
L 154.488837 463.242323 
L 152.996943 461.440757 
L 152.25273 460.580991 
L 150.161818 458.775819 
L 148.545604 457.919659 
L 147.326692 457.396168 
L 144.491567 456.830496 
L 141.656441 456.761798 
L 138.821316 456.93492 
L 135.98619 457.181938 
L 133.151065 457.375522 
L 130.315939 457.503245 
L 127.480814 457.750306 
L 126.634543 457.919659 
L 124.645688 458.169277 
L 121.810563 458.742695 
L 118.975437 459.56114 
L 116.527689 460.580991 
L 116.140312 460.688696 
L 113.305186 461.581406 
L 110.470061 462.982115 
L 110.031116 463.242323 
L 107.634935 464.230473 
L 105.085374 465.903655 
L 104.79981 466.041748 
L 101.964684 467.712991 
L 100.886118 468.564986 
L 99.129559 469.668722 
L 97.253037 471.226318 
L 96.294433 471.897685 
L 93.998158 473.88765 
L 93.459308 474.30691 
L 90.977495 476.548982 
L 90.624182 476.854488 
L 88.124947 479.210313 
L 87.789057 479.53377 
L 85.416773 481.871645 
L 84.953931 482.369427 
L 82.85904 484.532977 
L 82.118806 485.424846 
L 80.487974 487.194309 
L 79.28368 488.824932 
L 78.381733 489.85564 
L 76.577145 492.516972 
L 76.448555 492.751733 
L 74.696545 495.178304 
L 73.613429 497.502329 
L 73.391977 497.839636 
L 72.249481 500.500967 
L 71.795039 503.162299 
L 72.130166 505.823631 
L 73.586666 508.484963 
L 73.613429 508.516512 
L 76.448555 511.146294 
L 76.448555 511.146294 
z
M 82.56515 505.823631 
L 82.118806 505.437903 
L 80.341656 503.162299 
L 79.545258 500.500967 
L 79.548639 497.839636 
L 80.232165 495.178304 
L 81.5256 492.516972 
L 82.118806 491.686614 
L 83.202575 489.85564 
L 84.953931 487.687735 
L 85.306504 487.194309 
L 87.678943 484.532977 
L 87.789057 484.421051 
L 90.259903 481.871645 
L 90.624182 481.52463 
L 93.175486 479.210313 
L 93.459308 478.956028 
L 96.294433 476.644453 
L 96.423603 476.548982 
L 99.129559 474.441713 
L 99.992129 473.88765 
L 101.964684 472.462267 
L 104.169933 471.226318 
L 104.79981 470.803151 
L 107.634935 469.221881 
L 109.159545 468.564986 
L 110.470061 467.850483 
L 113.305186 466.646046 
L 115.655592 465.903655 
L 116.140312 465.698324 
L 118.975437 464.782412 
L 121.810563 464.172387 
L 124.645688 463.789483 
L 127.480814 463.544881 
L 130.315939 463.362886 
L 133.151065 463.247175 
L 135.98619 463.302543 
L 138.821316 463.749148 
L 141.656441 464.949441 
L 142.973936 465.903655 
L 144.491567 467.570755 
L 145.27824 468.564986 
L 146.908686 471.226318 
L 147.326692 471.999703 
L 148.6637 473.88765 
L 150.127978 476.548982 
L 150.161818 476.741165 
L 150.621134 479.210313 
L 150.161818 481.871645 
L 150.161818 481.871645 
L 149.069229 484.532977 
L 147.326692 486.726545 
L 146.961145 487.194309 
L 144.491567 489.341028 
L 143.874124 489.85564 
L 141.656441 491.330352 
L 139.682123 492.516972 
L 138.821316 492.982634 
L 135.98619 494.444551 
L 134.384889 495.178304 
L 133.151065 495.748243 
L 130.315939 496.98672 
L 128.066231 497.839636 
L 127.480814 498.085054 
L 124.645688 499.26494 
L 121.810563 500.239767 
L 120.995507 500.500967 
L 118.975437 501.280076 
L 116.140312 502.205296 
L 113.305186 502.957885 
L 112.459085 503.162299 
L 110.470061 503.792039 
L 107.634935 504.589504 
L 104.79981 505.256638 
L 101.964684 505.810353 
L 101.889537 505.823631 
L 99.129559 506.526688 
L 96.294433 507.068232 
L 93.459308 507.445325 
L 90.624182 507.646487 
L 87.789057 507.592096 
L 84.953931 507.050682 
z
" clip-path="url(#p75b0c5dbdd)" style="fill: #eef5fc"/>
    <path d="M 84.953931 507.050682 
L 87.789057 507.592096 
L 90.624182 507.646487 
L 93.459308 507.445325 
L 96.294433 507.068232 
L 99.129559 506.526688 
L 101.889537 505.823631 
L 101.964684 505.810353 
L 104.79981 505.256638 
L 107.634935 504.589504 
L 110.470061 503.792039 
L 112.459085 503.162299 
L 113.305186 502.957885 
L 116.140312 502.205296 
L 118.975437 501.280076 
L 120.995507 500.500967 
L 121.810563 500.239767 
L 124.645688 499.26494 
L 127.480814 498.085054 
L 128.066231 497.839636 
L 130.315939 496.98672 
L 133.151065 495.748243 
L 134.384889 495.178304 
L 135.98619 494.444551 
L 138.821316 492.982634 
L 139.682123 492.516972 
L 141.656441 491.330352 
L 143.874124 489.85564 
L 144.491567 489.341028 
L 146.961145 487.194309 
L 147.326692 486.726545 
L 149.069229 484.532977 
L 150.161818 481.871645 
L 150.161818 481.871645 
L 150.621134 479.210313 
L 150.161818 476.741165 
L 150.127978 476.548982 
L 148.6637 473.88765 
L 147.326692 471.999703 
L 146.908686 471.226318 
L 145.27824 468.564986 
L 144.491567 467.570755 
L 142.973936 465.903655 
L 141.656441 464.949441 
L 138.821316 463.749148 
L 135.98619 463.302543 
L 133.151065 463.247175 
L 130.315939 463.362886 
L 127.480814 463.544881 
L 124.645688 463.789483 
L 121.810563 464.172387 
L 118.975437 464.782412 
L 116.140312 465.698324 
L 115.655592 465.903655 
L 113.305186 466.646046 
L 110.470061 467.850483 
L 109.159545 468.564986 
L 107.634935 469.221881 
L 104.79981 470.803151 
L 104.169933 471.226318 
L 101.964684 472.462267 
L 99.992129 473.88765 
L 99.129559 474.441713 
L 96.423603 476.548982 
L 96.294433 476.644453 
L 93.459308 478.956028 
L 93.175486 479.210313 
L 90.624182 481.52463 
L 90.259903 481.871645 
L 87.789057 484.421051 
L 87.678943 484.532977 
L 85.306504 487.194309 
L 84.953931 487.687735 
L 83.202575 489.85564 
L 82.118806 491.686614 
L 81.5256 492.516972 
L 80.232165 495.178304 
L 79.548639 497.839636 
L 79.545258 500.500967 
L 80.341656 503.162299 
L 82.118806 505.437903 
L 82.56515 505.823631 
z
M 86.808159 503.162299 
L 84.953931 501.01664 
L 84.6388 500.500967 
L 84.026929 497.839636 
L 84.241603 495.178304 
L 84.953931 493.166623 
L 85.139125 492.516972 
L 86.529473 489.85564 
L 87.789057 488.174915 
L 88.451014 487.194309 
L 90.624182 484.727344 
L 90.788584 484.532977 
L 93.459308 481.897018 
L 93.485592 481.871645 
L 96.294433 479.421259 
L 96.557358 479.210313 
L 99.129559 477.201092 
L 100.093574 476.548982 
L 101.964684 475.226658 
L 104.284931 473.88765 
L 104.79981 473.55572 
L 107.634935 471.999031 
L 109.42856 471.226318 
L 110.470061 470.692428 
L 113.305186 469.530252 
L 116.140312 468.683932 
L 116.674874 468.564986 
L 118.975437 467.897143 
L 121.810563 467.320528 
L 124.645688 466.940769 
L 127.480814 466.724072 
L 130.315939 466.705191 
L 133.151065 467.028236 
L 135.98619 467.976002 
L 137.000193 468.564986 
L 138.821316 470.314997 
L 139.55661 471.226318 
L 140.86137 473.88765 
L 141.600664 476.548982 
L 141.656441 477.0666 
L 141.958495 479.210313 
L 141.656441 481.258237 
L 141.579774 481.871645 
L 140.354797 484.532977 
L 138.821316 486.303923 
L 138.087093 487.194309 
L 135.98619 488.953277 
L 134.891142 489.85564 
L 133.151065 491.016051 
L 130.707635 492.516972 
L 130.315939 492.736421 
L 127.480814 494.284919 
L 125.615775 495.178304 
L 124.645688 495.647369 
L 121.810563 496.904969 
L 119.284681 497.839636 
L 118.975437 497.96636 
L 116.140312 499.070285 
L 113.305186 499.991965 
L 111.541163 500.500967 
L 110.470061 500.876269 
L 107.634935 501.801391 
L 104.79981 502.552942 
L 101.964684 503.162299 
L 101.964684 503.162299 
L 99.129559 503.844911 
L 96.294433 504.313887 
L 93.459308 504.552899 
L 90.624182 504.457165 
L 87.789057 503.719862 
z
" clip-path="url(#p75b0c5dbdd)" style="fill: #dceaf6"/>
    <path d="M 87.789057 503.719862 
L 90.624182 504.457165 
L 93.459308 504.552899 
L 96.294433 504.313887 
L 99.129559 503.844911 
L 101.964684 503.162299 
L 101.964684 503.162299 
L 104.79981 502.552942 
L 107.634935 501.801391 
L 110.470061 500.876269 
L 111.541163 500.500967 
L 113.305186 499.991965 
L 116.140312 499.070285 
L 118.975437 497.96636 
L 119.284681 497.839636 
L 121.810563 496.904969 
L 124.645688 495.647369 
L 125.615775 495.178304 
L 127.480814 494.284919 
L 130.315939 492.736421 
L 130.707635 492.516972 
L 133.151065 491.016051 
L 134.891142 489.85564 
L 135.98619 488.953277 
L 138.087093 487.194309 
L 138.821316 486.303923 
L 140.354797 484.532977 
L 141.579774 481.871645 
L 141.656441 481.258237 
L 141.958495 479.210313 
L 141.656441 477.0666 
L 141.600664 476.548982 
L 140.86137 473.88765 
L 139.55661 471.226318 
L 138.821316 470.314997 
L 137.000193 468.564986 
L 135.98619 467.976002 
L 133.151065 467.028236 
L 130.315939 466.705191 
L 127.480814 466.724072 
L 124.645688 466.940769 
L 121.810563 467.320528 
L 118.975437 467.897143 
L 116.674874 468.564986 
L 116.140312 468.683932 
L 113.305186 469.530252 
L 110.470061 470.692428 
L 109.42856 471.226318 
L 107.634935 471.999031 
L 104.79981 473.55572 
L 104.284931 473.88765 
L 101.964684 475.226658 
L 100.093574 476.548982 
L 99.129559 477.201092 
L 96.557358 479.210313 
L 96.294433 479.421259 
L 93.485592 481.871645 
L 93.459308 481.897018 
L 90.788584 484.532977 
L 90.624182 484.727344 
L 88.451014 487.194309 
L 87.789057 488.174915 
L 86.529473 489.85564 
L 85.139125 492.516972 
L 84.953931 493.166623 
L 84.241603 495.178304 
L 84.026929 497.839636 
L 84.6388 500.500967 
L 84.953931 501.01664 
L 86.808159 503.162299 
z
M 89.183273 500.500967 
L 87.789057 498.058813 
L 87.696593 497.839636 
L 87.567595 495.178304 
L 87.789057 494.308711 
L 88.16309 492.516972 
L 89.36272 489.85564 
L 90.624182 488.036214 
L 91.159429 487.194309 
L 93.459308 484.537108 
L 93.462802 484.532977 
L 96.220253 481.871645 
L 96.294433 481.806932 
L 99.129559 479.485121 
L 99.499335 479.210313 
L 101.964684 477.442837 
L 103.429307 476.548982 
L 104.79981 475.6795 
L 107.634935 474.190984 
L 108.328476 473.88765 
L 110.470061 472.834941 
L 113.305186 471.760567 
L 115.17101 471.226318 
L 116.140312 470.887294 
L 118.975437 470.132808 
L 121.810563 469.625782 
L 124.645688 469.336114 
L 127.480814 469.309925 
L 130.315939 469.730878 
L 133.151065 470.954124 
L 133.547771 471.226318 
L 135.638279 473.88765 
L 135.98619 475.052781 
L 136.449896 476.548982 
L 136.576143 479.210313 
L 135.98619 481.871645 
L 135.98619 481.871645 
L 134.710314 484.532977 
L 133.151065 486.355606 
L 132.450313 487.194309 
L 130.315939 488.994048 
L 129.25343 489.85564 
L 127.480814 491.029217 
L 124.989154 492.516972 
L 124.645688 492.704869 
L 121.810563 494.190666 
L 119.602894 495.178304 
L 118.975437 495.463271 
L 116.140312 496.697885 
L 113.305186 497.723152 
L 112.971495 497.839636 
L 110.470061 498.818928 
L 107.634935 499.737018 
L 104.79981 500.485936 
L 104.733184 500.500967 
L 101.964684 501.265589 
L 99.129559 501.822311 
L 96.294433 502.143824 
L 93.459308 502.128883 
L 90.624182 501.430999 
z
" clip-path="url(#p75b0c5dbdd)" style="fill: #caddf0"/>
    <path d="M 90.624182 501.430999 
L 93.459308 502.128883 
L 96.294433 502.143824 
L 99.129559 501.822311 
L 101.964684 501.265589 
L 104.733184 500.500967 
L 104.79981 500.485936 
L 107.634935 499.737018 
L 110.470061 498.818928 
L 112.971495 497.839636 
L 113.305186 497.723152 
L 116.140312 496.697885 
L 118.975437 495.463271 
L 119.602894 495.178304 
L 121.810563 494.190666 
L 124.645688 492.704869 
L 124.989154 492.516972 
L 127.480814 491.029217 
L 129.25343 489.85564 
L 130.315939 488.994048 
L 132.450313 487.194309 
L 133.151065 486.355606 
L 134.710314 484.532977 
L 135.98619 481.871645 
L 135.98619 481.871645 
L 136.576143 479.210313 
L 136.449896 476.548982 
L 135.98619 475.052781 
L 135.638279 473.88765 
L 133.547771 471.226318 
L 133.151065 470.954124 
L 130.315939 469.730878 
L 127.480814 469.309925 
L 124.645688 469.336114 
L 121.810563 469.625782 
L 118.975437 470.132808 
L 116.140312 470.887294 
L 115.17101 471.226318 
L 113.305186 471.760567 
L 110.470061 472.834941 
L 108.328476 473.88765 
L 107.634935 474.190984 
L 104.79981 475.6795 
L 103.429307 476.548982 
L 101.964684 477.442837 
L 99.499335 479.210313 
L 99.129559 479.485121 
L 96.294433 481.806932 
L 96.220253 481.871645 
L 93.462802 484.532977 
L 93.459308 484.537108 
L 91.159429 487.194309 
L 90.624182 488.036214 
L 89.36272 489.85564 
L 88.16309 492.516972 
L 87.789057 494.308711 
L 87.567595 495.178304 
L 87.696593 497.839636 
L 87.789057 498.058813 
L 89.183273 500.500967 
z
M 90.787482 497.839636 
L 90.624182 497.241055 
L 90.190892 495.178304 
L 90.624182 492.662864 
L 90.645136 492.516972 
L 91.706421 489.85564 
L 93.459308 487.194309 
L 93.459308 487.194309 
L 95.710657 484.532977 
L 96.294433 483.971511 
L 98.566404 481.871645 
L 99.129559 481.408569 
L 101.964684 479.289509 
L 102.081716 479.210313 
L 104.79981 477.434163 
L 106.439993 476.548982 
L 107.634935 475.875103 
L 110.470061 474.552092 
L 112.288067 473.88765 
L 113.305186 473.464541 
L 116.140312 472.537899 
L 118.975437 471.886156 
L 121.810563 471.456938 
L 124.645688 471.293095 
L 127.480814 471.62856 
L 130.315939 472.941842 
L 131.420279 473.88765 
L 132.68666 476.548982 
L 132.821003 479.210313 
L 132.216845 481.871645 
L 130.764847 484.532977 
L 130.315939 485.050346 
L 128.474222 487.194309 
L 127.480814 488.020235 
L 125.158536 489.85564 
L 124.645688 490.188921 
L 121.810563 491.952063 
L 120.824141 492.516972 
L 118.975437 493.496649 
L 116.140312 494.823713 
L 115.330404 495.178304 
L 113.305186 496.087245 
L 110.470061 497.17686 
L 108.447821 497.839636 
L 107.634935 498.139106 
L 104.79981 499.022299 
L 101.964684 499.684887 
L 99.129559 500.140723 
L 96.294433 500.320671 
L 93.459308 499.876145 
z
" clip-path="url(#p75b0c5dbdd)" style="fill: #add0e6"/>
    <path d="M 93.459308 499.876145 
L 96.294433 500.320671 
L 99.129559 500.140723 
L 101.964684 499.684887 
L 104.79981 499.022299 
L 107.634935 498.139106 
L 108.447821 497.839636 
L 110.470061 497.17686 
L 113.305186 496.087245 
L 115.330404 495.178304 
L 116.140312 494.823713 
L 118.975437 493.496649 
L 120.824141 492.516972 
L 121.810563 491.952063 
L 124.645688 490.188921 
L 125.158536 489.85564 
L 127.480814 488.020235 
L 128.474222 487.194309 
L 130.315939 485.050346 
L 130.764847 484.532977 
L 132.216845 481.871645 
L 132.821003 479.210313 
L 132.68666 476.548982 
L 131.420279 473.88765 
L 130.315939 472.941842 
L 127.480814 471.62856 
L 124.645688 471.293095 
L 121.810563 471.456938 
L 118.975437 471.886156 
L 116.140312 472.537899 
L 113.305186 473.464541 
L 112.288067 473.88765 
L 110.470061 474.552092 
L 107.634935 475.875103 
L 106.439993 476.548982 
L 104.79981 477.434163 
L 102.081716 479.210313 
L 101.964684 479.289509 
L 99.129559 481.408569 
L 98.566404 481.871645 
L 96.294433 483.971511 
L 95.710657 484.532977 
L 93.459308 487.194309 
L 93.459308 487.194309 
L 91.706421 489.85564 
L 90.645136 492.516972 
L 90.624182 492.662864 
L 90.190892 495.178304 
L 90.624182 497.241055 
L 90.787482 497.839636 
z
M 96.158871 497.839636 
L 93.459308 495.194012 
L 93.451539 495.178304 
L 93.459308 494.930817 
L 93.523459 492.516972 
L 94.479039 489.85564 
L 96.177353 487.194309 
L 96.294433 487.059182 
L 98.481409 484.532977 
L 99.129559 483.932728 
L 101.501904 481.871645 
L 101.964684 481.515751 
L 104.79981 479.54928 
L 105.360044 479.210313 
L 107.634935 477.874283 
L 110.470061 476.548982 
L 110.470061 476.548982 
L 113.305186 475.374158 
L 116.140312 474.522312 
L 118.975437 473.916943 
L 119.297069 473.88765 
L 121.810563 473.634796 
L 124.501331 473.88765 
L 124.645688 473.90908 
L 127.480814 475.639614 
L 128.255164 476.548982 
L 128.813637 479.210313 
L 128.216417 481.871645 
L 127.480814 483.135152 
L 126.721033 484.532977 
L 124.645688 486.808761 
L 124.297503 487.194309 
L 121.810563 489.193794 
L 120.943339 489.85564 
L 118.975437 491.105635 
L 116.479157 492.516972 
L 116.140312 492.695103 
L 113.305186 494.100216 
L 110.710272 495.178304 
L 110.470061 495.280715 
L 107.634935 496.343215 
L 104.79981 497.167049 
L 101.964684 497.787674 
L 101.492713 497.839636 
L 99.129559 498.124678 
L 96.294433 497.889061 
z
" clip-path="url(#p75b0c5dbdd)" style="fill: #84bcdb"/>
    <path d="M 96.294433 497.889061 
L 99.129559 498.124678 
L 101.492713 497.839636 
L 101.964684 497.787674 
L 104.79981 497.167049 
L 107.634935 496.343215 
L 110.470061 495.280715 
L 110.710272 495.178304 
L 113.305186 494.100216 
L 116.140312 492.695103 
L 116.479157 492.516972 
L 118.975437 491.105635 
L 120.943339 489.85564 
L 121.810563 489.193794 
L 124.297503 487.194309 
L 124.645688 486.808761 
L 126.721033 484.532977 
L 127.480814 483.135152 
L 128.216417 481.871645 
L 128.813637 479.210313 
L 128.255164 476.548982 
L 127.480814 475.639614 
L 124.645688 473.90908 
L 124.501331 473.88765 
L 121.810563 473.634796 
L 119.297069 473.88765 
L 118.975437 473.916943 
L 116.140312 474.522312 
L 113.305186 475.374158 
L 110.470061 476.548982 
L 110.470061 476.548982 
L 107.634935 477.874283 
L 105.360044 479.210313 
L 104.79981 479.54928 
L 101.964684 481.515751 
L 101.501904 481.871645 
L 99.129559 483.932728 
L 98.481409 484.532977 
L 96.294433 487.059182 
L 96.177353 487.194309 
L 94.479039 489.85564 
L 93.523459 492.516972 
L 93.459308 494.930817 
L 93.451539 495.178304 
L 93.459308 495.194012 
L 96.158871 497.839636 
z
M 97.531733 495.178304 
L 96.294433 492.516972 
L 97.056438 489.85564 
L 98.67691 487.194309 
L 99.129559 486.682662 
L 101.074209 484.532977 
L 101.964684 483.751659 
L 104.309847 481.871645 
L 104.79981 481.524184 
L 107.634935 479.759093 
L 108.678785 479.210313 
L 110.470061 478.299813 
L 113.305186 477.184735 
L 115.452236 476.548982 
L 116.140312 476.336868 
L 118.975437 475.913331 
L 121.810563 476.101212 
L 123.015833 476.548982 
L 124.645688 478.315906 
L 125.096928 479.210313 
L 124.803472 481.871645 
L 124.645688 482.149257 
L 123.380033 484.532977 
L 121.810563 486.239736 
L 120.938231 487.194309 
L 118.975437 488.736225 
L 117.465211 489.85564 
L 116.140312 490.669603 
L 113.305186 492.228364 
L 112.722614 492.516972 
L 110.470061 493.543623 
L 107.634935 494.597194 
L 105.67403 495.178304 
L 104.79981 495.439538 
L 101.964684 495.924483 
L 99.129559 495.84015 
z
" clip-path="url(#p75b0c5dbdd)" style="fill: #549fcd"/>
    <path d="M 99.129559 495.84015 
L 101.964684 495.924483 
L 104.79981 495.439538 
L 105.67403 495.178304 
L 107.634935 494.597194 
L 110.470061 493.543623 
L 112.722614 492.516972 
L 113.305186 492.228364 
L 116.140312 490.669603 
L 117.465211 489.85564 
L 118.975437 488.736225 
L 120.938231 487.194309 
L 121.810563 486.239736 
L 123.380033 484.532977 
L 124.645688 482.149257 
L 124.803472 481.871645 
L 125.096928 479.210313 
L 124.645688 478.315906 
L 123.015833 476.548982 
L 121.810563 476.101212 
L 118.975437 475.913331 
L 116.140312 476.336868 
L 115.452236 476.548982 
L 113.305186 477.184735 
L 110.470061 478.299813 
L 108.678785 479.210313 
L 107.634935 479.759093 
L 104.79981 481.524184 
L 104.309847 481.871645 
L 101.964684 483.751659 
L 101.074209 484.532977 
L 99.129559 486.682662 
L 98.67691 487.194309 
L 97.056438 489.85564 
L 96.294433 492.516972 
L 97.531733 495.178304 
z
M 99.129559 492.516972 
L 99.353813 489.85564 
L 100.890231 487.194309 
L 101.964684 486.014537 
L 103.373051 484.532977 
L 104.79981 483.375245 
L 106.875515 481.871645 
L 107.634935 481.391115 
L 110.470061 479.914195 
L 112.153158 479.210313 
L 113.305186 478.755545 
L 116.140312 478.10923 
L 118.975437 478.102675 
L 121.354473 479.210313 
L 121.810563 481.377608 
L 121.869598 481.871645 
L 121.810563 481.988062 
L 120.596423 484.532977 
L 118.975437 486.303547 
L 118.15658 487.194309 
L 116.140312 488.708898 
L 114.501623 489.85564 
L 113.305186 490.53679 
L 110.470061 491.933617 
L 109.066864 492.516972 
L 107.634935 493.053169 
L 104.79981 493.756785 
L 101.964684 493.925485 
z
" clip-path="url(#p75b0c5dbdd)" style="fill: #3181bd"/>
    <path d="M 101.964684 493.925485 
L 104.79981 493.756785 
L 107.634935 493.053169 
L 109.066864 492.516972 
L 110.470061 491.933617 
L 113.305186 490.53679 
L 114.501623 489.85564 
L 116.140312 488.708898 
L 118.15658 487.194309 
L 118.975437 486.303547 
L 120.596423 484.532977 
L 121.810563 481.988062 
L 121.869598 481.871645 
L 121.810563 481.377608 
L 121.354473 479.210313 
L 118.975437 478.102675 
L 116.140312 478.10923 
L 113.305186 478.755545 
L 112.153158 479.210313 
L 110.470061 479.914195 
L 107.634935 481.391115 
L 106.875515 481.871645 
L 104.79981 483.375245 
L 103.373051 484.532977 
L 101.964684 486.014537 
L 100.890231 487.194309 
L 99.353813 489.85564 
L 99.129559 492.516972 
z
M 102.766618 489.85564 
L 103.765857 487.194309 
L 104.79981 486.088598 
L 106.355718 484.532977 
L 107.634935 483.623736 
L 110.470061 481.871645 
L 110.470061 481.871645 
L 113.305186 480.995263 
L 116.140312 480.925902 
L 117.612393 481.871645 
L 117.14219 484.532977 
L 116.140312 485.645078 
L 114.711409 487.194309 
L 113.305186 488.160214 
L 110.595944 489.85564 
L 110.470061 489.917257 
L 107.634935 490.873754 
L 104.79981 491.20257 
z
" clip-path="url(#p75b0c5dbdd)" style="fill: #1460a8"/>
    <path d="M 104.79981 491.20257 
L 107.634935 490.873754 
L 110.470061 489.917257 
L 110.595944 489.85564 
L 113.305186 488.160214 
L 114.711409 487.194309 
L 116.140312 485.645078 
L 117.14219 484.532977 
L 117.612393 481.871645 
L 116.140312 480.925902 
L 113.305186 480.995263 
L 110.470061 481.871645 
L 110.470061 481.871645 
L 107.634935 483.623736 
L 106.355718 484.532977 
L 104.79981 486.088598 
L 103.765857 487.194309 
L 102.766618 489.85564 
z
" clip-path="url(#p75b0c5dbdd)" style="fill: #083e81"/>
   </g>
   <g id="matplotlib.axis_1">
    <g id="xtick_1">
     <g id="line2d_1">
      <defs>
       <path id="mca039da6dd" d="M 0 0 
L 0 3.5 
" style="stroke: #000000; stroke-width: 0.8"/>
      </defs>
      <g>
       <use xlink:href="#mca039da6dd" x="181.931658" y="499.48" style="stroke: #000000; stroke-width: 0.8"/>
      </g>
     </g>
     <g id="text_1">
      <!-- 10 -->
      <g transform="translate(167.934158 523.196563) scale(0.22 -0.22)">
       <defs>
        <path id="DejaVuSans-31" d="M 794 531 
L 1825 531 
L 1825 4091 
L 703 3866 
L 703 4441 
L 1819 4666 
L 2450 4666 
L 2450 531 
L 3481 531 
L 3481 0 
L 794 0 
L 794 531 
z
" transform="scale(0.015625)"/>
        <path id="DejaVuSans-30" d="M 2034 4250 
Q 1547 4250 1301 3770 
Q 1056 3291 1056 2328 
Q 1056 1369 1301 889 
Q 1547 409 2034 409 
Q 2525 409 2770 889 
Q 3016 1369 3016 2328 
Q 3016 3291 2770 3770 
Q 2525 4250 2034 4250 
z
M 2034 4750 
Q 2819 4750 3233 4129 
Q 3647 3509 3647 2328 
Q 3647 1150 3233 529 
Q 2819 -91 2034 -91 
Q 1250 -91 836 529 
Q 422 1150 422 2328 
Q 422 3509 836 4129 
Q 1250 4750 2034 4750 
z
" transform="scale(0.015625)"/>
       </defs>
       <use xlink:href="#DejaVuSans-31"/>
       <use xlink:href="#DejaVuSans-30" x="63.623047"/>
      </g>
     </g>
    </g>
    <g id="xtick_2">
     <g id="line2d_2">
      <g>
       <use xlink:href="#mca039da6dd" x="290.443174" y="499.48" style="stroke: #000000; stroke-width: 0.8"/>
      </g>
     </g>
     <g id="text_2">
      <!-- 20 -->
      <g transform="translate(276.445674 523.196563) scale(0.22 -0.22)">
       <defs>
        <path id="DejaVuSans-32" d="M 1228 531 
L 3431 531 
L 3431 0 
L 469 0 
L 469 531 
Q 828 903 1448 1529 
Q 2069 2156 2228 2338 
Q 2531 2678 2651 2914 
Q 2772 3150 2772 3378 
Q 2772 3750 2511 3984 
Q 2250 4219 1831 4219 
Q 1534 4219 1204 4116 
Q 875 4013 500 3803 
L 500 4441 
Q 881 4594 1212 4672 
Q 1544 4750 1819 4750 
Q 2544 4750 2975 4387 
Q 3406 4025 3406 3419 
Q 3406 3131 3298 2873 
Q 3191 2616 2906 2266 
Q 2828 2175 2409 1742 
Q 1991 1309 1228 531 
z
" transform="scale(0.015625)"/>
       </defs>
       <use xlink:href="#DejaVuSans-32"/>
       <use xlink:href="#DejaVuSans-30" x="63.623047"/>
      </g>
     </g>
    </g>
    <g id="xtick_3">
     <g id="line2d_3">
      <g>
       <use xlink:href="#mca039da6dd" x="398.95469" y="499.48" style="stroke: #000000; stroke-width: 0.8"/>
      </g>
     </g>
     <g id="text_3">
      <!-- 30 -->
      <g transform="translate(384.95719 523.196563) scale(0.22 -0.22)">
       <defs>
        <path id="DejaVuSans-33" d="M 2597 2516 
Q 3050 2419 3304 2112 
Q 3559 1806 3559 1356 
Q 3559 666 3084 287 
Q 2609 -91 1734 -91 
Q 1441 -91 1130 -33 
Q 819 25 488 141 
L 488 750 
Q 750 597 1062 519 
Q 1375 441 1716 441 
Q 2309 441 2620 675 
Q 2931 909 2931 1356 
Q 2931 1769 2642 2001 
Q 2353 2234 1838 2234 
L 1294 2234 
L 1294 2753 
L 1863 2753 
Q 2328 2753 2575 2939 
Q 2822 3125 2822 3475 
Q 2822 3834 2567 4026 
Q 2313 4219 1838 4219 
Q 1578 4219 1281 4162 
Q 984 4106 628 3988 
L 628 4550 
Q 988 4650 1302 4700 
Q 1616 4750 1894 4750 
Q 2613 4750 3031 4423 
Q 3450 4097 3450 3541 
Q 3450 3153 3228 2886 
Q 3006 2619 2597 2516 
z
" transform="scale(0.015625)"/>
       </defs>
       <use xlink:href="#DejaVuSans-33"/>
       <use xlink:href="#DejaVuSans-30" x="63.623047"/>
      </g>
     </g>
    </g>
    <g id="xtick_4">
     <g id="line2d_4">
      <g>
       <use xlink:href="#mca039da6dd" x="507.466206" y="499.48" style="stroke: #000000; stroke-width: 0.8"/>
      </g>
     </g>
     <g id="text_4">
      <!-- 40 -->
      <g transform="translate(493.468706 523.196563) scale(0.22 -0.22)">
       <defs>
        <path id="DejaVuSans-34" d="M 2419 4116 
L 825 1625 
L 2419 1625 
L 2419 4116 
z
M 2253 4666 
L 3047 4666 
L 3047 1625 
L 3713 1625 
L 3713 1100 
L 3047 1100 
L 3047 0 
L 2419 0 
L 2419 1100 
L 313 1100 
L 313 1709 
L 2253 4666 
z
" transform="scale(0.015625)"/>
       </defs>
       <use xlink:href="#DejaVuSans-34"/>
       <use xlink:href="#DejaVuSans-30" x="63.623047"/>
      </g>
     </g>
    </g>
    <g id="xtick_5">
     <g id="line2d_5">
      <g>
       <use xlink:href="#mca039da6dd" x="615.977723" y="499.48" style="stroke: #000000; stroke-width: 0.8"/>
      </g>
     </g>
     <g id="text_5">
      <!-- 50 -->
      <g transform="translate(601.980223 523.196563) scale(0.22 -0.22)">
       <defs>
        <path id="DejaVuSans-35" d="M 691 4666 
L 3169 4666 
L 3169 4134 
L 1269 4134 
L 1269 2991 
Q 1406 3038 1543 3061 
Q 1681 3084 1819 3084 
Q 2600 3084 3056 2656 
Q 3513 2228 3513 1497 
Q 3513 744 3044 326 
Q 2575 -91 1722 -91 
Q 1428 -91 1123 -41 
Q 819 9 494 109 
L 494 744 
Q 775 591 1075 516 
Q 1375 441 1709 441 
Q 2250 441 2565 725 
Q 2881 1009 2881 1497 
Q 2881 1984 2565 2268 
Q 2250 2553 1709 2553 
Q 1456 2553 1204 2497 
Q 953 2441 691 2322 
L 691 4666 
z
" transform="scale(0.015625)"/>
       </defs>
       <use xlink:href="#DejaVuSans-35"/>
       <use xlink:href="#DejaVuSans-30" x="63.623047"/>
      </g>
     </g>
    </g>
    <g id="text_6">
     <!-- Force Uncertainties -->
     <g transform="translate(283.426094 548.488438) scale(0.22 -0.22)">
      <defs>
       <path id="DejaVuSans-46" d="M 628 4666 
L 3309 4666 
L 3309 4134 
L 1259 4134 
L 1259 2759 
L 3109 2759 
L 3109 2228 
L 1259 2228 
L 1259 0 
L 628 0 
L 628 4666 
z
" transform="scale(0.015625)"/>
       <path id="DejaVuSans-6f" d="M 1959 3097 
Q 1497 3097 1228 2736 
Q 959 2375 959 1747 
Q 959 1119 1226 758 
Q 1494 397 1959 397 
Q 2419 397 2687 759 
Q 2956 1122 2956 1747 
Q 2956 2369 2687 2733 
Q 2419 3097 1959 3097 
z
M 1959 3584 
Q 2709 3584 3137 3096 
Q 3566 2609 3566 1747 
Q 3566 888 3137 398 
Q 2709 -91 1959 -91 
Q 1206 -91 779 398 
Q 353 888 353 1747 
Q 353 2609 779 3096 
Q 1206 3584 1959 3584 
z
" transform="scale(0.015625)"/>
       <path id="DejaVuSans-72" d="M 2631 2963 
Q 2534 3019 2420 3045 
Q 2306 3072 2169 3072 
Q 1681 3072 1420 2755 
Q 1159 2438 1159 1844 
L 1159 0 
L 581 0 
L 581 3500 
L 1159 3500 
L 1159 2956 
Q 1341 3275 1631 3429 
Q 1922 3584 2338 3584 
Q 2397 3584 2469 3576 
Q 2541 3569 2628 3553 
L 2631 2963 
z
" transform="scale(0.015625)"/>
       <path id="DejaVuSans-63" d="M 3122 3366 
L 3122 2828 
Q 2878 2963 2633 3030 
Q 2388 3097 2138 3097 
Q 1578 3097 1268 2742 
Q 959 2388 959 1747 
Q 959 1106 1268 751 
Q 1578 397 2138 397 
Q 2388 397 2633 464 
Q 2878 531 3122 666 
L 3122 134 
Q 2881 22 2623 -34 
Q 2366 -91 2075 -91 
Q 1284 -91 818 406 
Q 353 903 353 1747 
Q 353 2603 823 3093 
Q 1294 3584 2113 3584 
Q 2378 3584 2631 3529 
Q 2884 3475 3122 3366 
z
" transform="scale(0.015625)"/>
       <path id="DejaVuSans-65" d="M 3597 1894 
L 3597 1613 
L 953 1613 
Q 991 1019 1311 708 
Q 1631 397 2203 397 
Q 2534 397 2845 478 
Q 3156 559 3463 722 
L 3463 178 
Q 3153 47 2828 -22 
Q 2503 -91 2169 -91 
Q 1331 -91 842 396 
Q 353 884 353 1716 
Q 353 2575 817 3079 
Q 1281 3584 2069 3584 
Q 2775 3584 3186 3129 
Q 3597 2675 3597 1894 
z
M 3022 2063 
Q 3016 2534 2758 2815 
Q 2500 3097 2075 3097 
Q 1594 3097 1305 2825 
Q 1016 2553 972 2059 
L 3022 2063 
z
" transform="scale(0.015625)"/>
       <path id="DejaVuSans-20" transform="scale(0.015625)"/>
       <path id="DejaVuSans-55" d="M 556 4666 
L 1191 4666 
L 1191 1831 
Q 1191 1081 1462 751 
Q 1734 422 2344 422 
Q 2950 422 3222 751 
Q 3494 1081 3494 1831 
L 3494 4666 
L 4128 4666 
L 4128 1753 
Q 4128 841 3676 375 
Q 3225 -91 2344 -91 
Q 1459 -91 1007 375 
Q 556 841 556 1753 
L 556 4666 
z
" transform="scale(0.015625)"/>
       <path id="DejaVuSans-6e" d="M 3513 2113 
L 3513 0 
L 2938 0 
L 2938 2094 
Q 2938 2591 2744 2837 
Q 2550 3084 2163 3084 
Q 1697 3084 1428 2787 
Q 1159 2491 1159 1978 
L 1159 0 
L 581 0 
L 581 3500 
L 1159 3500 
L 1159 2956 
Q 1366 3272 1645 3428 
Q 1925 3584 2291 3584 
Q 2894 3584 3203 3211 
Q 3513 2838 3513 2113 
z
" transform="scale(0.015625)"/>
       <path id="DejaVuSans-74" d="M 1172 4494 
L 1172 3500 
L 2356 3500 
L 2356 3053 
L 1172 3053 
L 1172 1153 
Q 1172 725 1289 603 
Q 1406 481 1766 481 
L 2356 481 
L 2356 0 
L 1766 0 
Q 1100 0 847 248 
Q 594 497 594 1153 
L 594 3053 
L 172 3053 
L 172 3500 
L 594 3500 
L 594 4494 
L 1172 4494 
z
" transform="scale(0.015625)"/>
       <path id="DejaVuSans-61" d="M 2194 1759 
Q 1497 1759 1228 1600 
Q 959 1441 959 1056 
Q 959 750 1161 570 
Q 1363 391 1709 391 
Q 2188 391 2477 730 
Q 2766 1069 2766 1631 
L 2766 1759 
L 2194 1759 
z
M 3341 1997 
L 3341 0 
L 2766 0 
L 2766 531 
Q 2569 213 2275 61 
Q 1981 -91 1556 -91 
Q 1019 -91 701 211 
Q 384 513 384 1019 
Q 384 1609 779 1909 
Q 1175 2209 1959 2209 
L 2766 2209 
L 2766 2266 
Q 2766 2663 2505 2880 
Q 2244 3097 1772 3097 
Q 1472 3097 1187 3025 
Q 903 2953 641 2809 
L 641 3341 
Q 956 3463 1253 3523 
Q 1550 3584 1831 3584 
Q 2591 3584 2966 3190 
Q 3341 2797 3341 1997 
z
" transform="scale(0.015625)"/>
       <path id="DejaVuSans-69" d="M 603 3500 
L 1178 3500 
L 1178 0 
L 603 0 
L 603 3500 
z
M 603 4863 
L 1178 4863 
L 1178 4134 
L 603 4134 
L 603 4863 
z
" transform="scale(0.015625)"/>
       <path id="DejaVuSans-73" d="M 2834 3397 
L 2834 2853 
Q 2591 2978 2328 3040 
Q 2066 3103 1784 3103 
Q 1356 3103 1142 2972 
Q 928 2841 928 2578 
Q 928 2378 1081 2264 
Q 1234 2150 1697 2047 
L 1894 2003 
Q 2506 1872 2764 1633 
Q 3022 1394 3022 966 
Q 3022 478 2636 193 
Q 2250 -91 1575 -91 
Q 1294 -91 989 -36 
Q 684 19 347 128 
L 347 722 
Q 666 556 975 473 
Q 1284 391 1588 391 
Q 1994 391 2212 530 
Q 2431 669 2431 922 
Q 2431 1156 2273 1281 
Q 2116 1406 1581 1522 
L 1381 1569 
Q 847 1681 609 1914 
Q 372 2147 372 2553 
Q 372 3047 722 3315 
Q 1072 3584 1716 3584 
Q 2034 3584 2315 3537 
Q 2597 3491 2834 3397 
z
" transform="scale(0.015625)"/>
      </defs>
      <use xlink:href="#DejaVuSans-46"/>
      <use xlink:href="#DejaVuSans-6f" x="53.894531"/>
      <use xlink:href="#DejaVuSans-72" x="115.076172"/>
      <use xlink:href="#DejaVuSans-63" x="153.939453"/>
      <use xlink:href="#DejaVuSans-65" x="208.919922"/>
      <use xlink:href="#DejaVuSans-20" x="270.443359"/>
      <use xlink:href="#DejaVuSans-55" x="302.230469"/>
      <use xlink:href="#DejaVuSans-6e" x="375.423828"/>
      <use xlink:href="#DejaVuSans-63" x="438.802734"/>
      <use xlink:href="#DejaVuSans-65" x="493.783203"/>
      <use xlink:href="#DejaVuSans-72" x="555.306641"/>
      <use xlink:href="#DejaVuSans-74" x="596.419922"/>
      <use xlink:href="#DejaVuSans-61" x="635.628906"/>
      <use xlink:href="#DejaVuSans-69" x="696.908203"/>
      <use xlink:href="#DejaVuSans-6e" x="724.691406"/>
      <use xlink:href="#DejaVuSans-74" x="788.070312"/>
      <use xlink:href="#DejaVuSans-69" x="827.279297"/>
      <use xlink:href="#DejaVuSans-65" x="855.0625"/>
      <use xlink:href="#DejaVuSans-73" x="916.585938"/>
     </g>
    </g>
   </g>
   <g id="matplotlib.axis_2">
    <g id="ytick_1">
     <g id="line2d_6">
      <defs>
       <path id="m504bc7fd40" d="M 0 0 
L -3.5 0 
" style="stroke: #000000; stroke-width: 0.8"/>
      </defs>
      <g>
       <use xlink:href="#m504bc7fd40" x="83.72" y="423.202899" style="stroke: #000000; stroke-width: 0.8"/>
      </g>
     </g>
     <g id="text_7">
      <!-- 10 -->
      <g transform="translate(48.725 431.56118) scale(0.22 -0.22)">
       <use xlink:href="#DejaVuSans-31"/>
       <use xlink:href="#DejaVuSans-30" x="63.623047"/>
      </g>
     </g>
    </g>
    <g id="ytick_2">
     <g id="line2d_7">
      <g>
       <use xlink:href="#m504bc7fd40" x="83.72" y="338.926306" style="stroke: #000000; stroke-width: 0.8"/>
      </g>
     </g>
     <g id="text_8">
      <!-- 20 -->
      <g transform="translate(48.725 347.284588) scale(0.22 -0.22)">
       <use xlink:href="#DejaVuSans-32"/>
       <use xlink:href="#DejaVuSans-30" x="63.623047"/>
      </g>
     </g>
    </g>
    <g id="ytick_3">
     <g id="line2d_8">
      <g>
       <use xlink:href="#m504bc7fd40" x="83.72" y="254.649714" style="stroke: #000000; stroke-width: 0.8"/>
      </g>
     </g>
     <g id="text_9">
      <!-- 30 -->
      <g transform="translate(48.725 263.007995) scale(0.22 -0.22)">
       <use xlink:href="#DejaVuSans-33"/>
       <use xlink:href="#DejaVuSans-30" x="63.623047"/>
      </g>
     </g>
    </g>
    <g id="ytick_4">
     <g id="line2d_9">
      <g>
       <use xlink:href="#m504bc7fd40" x="83.72" y="170.373121" style="stroke: #000000; stroke-width: 0.8"/>
      </g>
     </g>
     <g id="text_10">
      <!-- 40 -->
      <g transform="translate(48.725 178.731403) scale(0.22 -0.22)">
       <use xlink:href="#DejaVuSans-34"/>
       <use xlink:href="#DejaVuSans-30" x="63.623047"/>
      </g>
     </g>
    </g>
    <g id="ytick_5">
     <g id="line2d_10">
      <g>
       <use xlink:href="#m504bc7fd40" x="83.72" y="86.096529" style="stroke: #000000; stroke-width: 0.8"/>
      </g>
     </g>
     <g id="text_11">
      <!-- 50 -->
      <g transform="translate(48.725 94.45481) scale(0.22 -0.22)">
       <use xlink:href="#DejaVuSans-35"/>
       <use xlink:href="#DejaVuSans-30" x="63.623047"/>
      </g>
     </g>
    </g>
    <g id="text_12">
     <!-- Force Errors [kJ/(mol*A)] -->
     <g transform="translate(40.149688 394.9125) rotate(-90) scale(0.22 -0.22)">
      <defs>
       <path id="DejaVuSans-45" d="M 628 4666 
L 3578 4666 
L 3578 4134 
L 1259 4134 
L 1259 2753 
L 3481 2753 
L 3481 2222 
L 1259 2222 
L 1259 531 
L 3634 531 
L 3634 0 
L 628 0 
L 628 4666 
z
" transform="scale(0.015625)"/>
       <path id="DejaVuSans-5b" d="M 550 4863 
L 1875 4863 
L 1875 4416 
L 1125 4416 
L 1125 -397 
L 1875 -397 
L 1875 -844 
L 550 -844 
L 550 4863 
z
" transform="scale(0.015625)"/>
       <path id="DejaVuSans-6b" d="M 581 4863 
L 1159 4863 
L 1159 1991 
L 2875 3500 
L 3609 3500 
L 1753 1863 
L 3688 0 
L 2938 0 
L 1159 1709 
L 1159 0 
L 581 0 
L 581 4863 
z
" transform="scale(0.015625)"/>
       <path id="DejaVuSans-4a" d="M 628 4666 
L 1259 4666 
L 1259 325 
Q 1259 -519 939 -900 
Q 619 -1281 -91 -1281 
L -331 -1281 
L -331 -750 
L -134 -750 
Q 284 -750 456 -515 
Q 628 -281 628 325 
L 628 4666 
z
" transform="scale(0.015625)"/>
       <path id="DejaVuSans-2f" d="M 1625 4666 
L 2156 4666 
L 531 -594 
L 0 -594 
L 1625 4666 
z
" transform="scale(0.015625)"/>
       <path id="DejaVuSans-28" d="M 1984 4856 
Q 1566 4138 1362 3434 
Q 1159 2731 1159 2009 
Q 1159 1288 1364 580 
Q 1569 -128 1984 -844 
L 1484 -844 
Q 1016 -109 783 600 
Q 550 1309 550 2009 
Q 550 2706 781 3412 
Q 1013 4119 1484 4856 
L 1984 4856 
z
" transform="scale(0.015625)"/>
       <path id="DejaVuSans-6d" d="M 3328 2828 
Q 3544 3216 3844 3400 
Q 4144 3584 4550 3584 
Q 5097 3584 5394 3201 
Q 5691 2819 5691 2113 
L 5691 0 
L 5113 0 
L 5113 2094 
Q 5113 2597 4934 2840 
Q 4756 3084 4391 3084 
Q 3944 3084 3684 2787 
Q 3425 2491 3425 1978 
L 3425 0 
L 2847 0 
L 2847 2094 
Q 2847 2600 2669 2842 
Q 2491 3084 2119 3084 
Q 1678 3084 1418 2786 
Q 1159 2488 1159 1978 
L 1159 0 
L 581 0 
L 581 3500 
L 1159 3500 
L 1159 2956 
Q 1356 3278 1631 3431 
Q 1906 3584 2284 3584 
Q 2666 3584 2933 3390 
Q 3200 3197 3328 2828 
z
" transform="scale(0.015625)"/>
       <path id="DejaVuSans-6c" d="M 603 4863 
L 1178 4863 
L 1178 0 
L 603 0 
L 603 4863 
z
" transform="scale(0.015625)"/>
       <path id="DejaVuSans-2a" d="M 3009 3897 
L 1888 3291 
L 3009 2681 
L 2828 2375 
L 1778 3009 
L 1778 1831 
L 1422 1831 
L 1422 3009 
L 372 2375 
L 191 2681 
L 1313 3291 
L 191 3897 
L 372 4206 
L 1422 3572 
L 1422 4750 
L 1778 4750 
L 1778 3572 
L 2828 4206 
L 3009 3897 
z
" transform="scale(0.015625)"/>
       <path id="DejaVuSans-41" d="M 2188 4044 
L 1331 1722 
L 3047 1722 
L 2188 4044 
z
M 1831 4666 
L 2547 4666 
L 4325 0 
L 3669 0 
L 3244 1197 
L 1141 1197 
L 716 0 
L 50 0 
L 1831 4666 
z
" transform="scale(0.015625)"/>
       <path id="DejaVuSans-29" d="M 513 4856 
L 1013 4856 
Q 1481 4119 1714 3412 
Q 1947 2706 1947 2009 
Q 1947 1309 1714 600 
Q 1481 -109 1013 -844 
L 513 -844 
Q 928 -128 1133 580 
Q 1338 1288 1338 2009 
Q 1338 2731 1133 3434 
Q 928 4138 513 4856 
z
" transform="scale(0.015625)"/>
       <path id="DejaVuSans-5d" d="M 1947 4863 
L 1947 -844 
L 622 -844 
L 622 -397 
L 1369 -397 
L 1369 4416 
L 622 4416 
L 622 4863 
L 1947 4863 
z
" transform="scale(0.015625)"/>
      </defs>
      <use xlink:href="#DejaVuSans-46"/>
      <use xlink:href="#DejaVuSans-6f" x="53.894531"/>
      <use xlink:href="#DejaVuSans-72" x="115.076172"/>
      <use xlink:href="#DejaVuSans-63" x="153.939453"/>
      <use xlink:href="#DejaVuSans-65" x="208.919922"/>
      <use xlink:href="#DejaVuSans-20" x="270.443359"/>
      <use xlink:href="#DejaVuSans-45" x="302.230469"/>
      <use xlink:href="#DejaVuSans-72" x="365.414062"/>
      <use xlink:href="#DejaVuSans-72" x="404.777344"/>
      <use xlink:href="#DejaVuSans-6f" x="443.640625"/>
      <use xlink:href="#DejaVuSans-72" x="504.822266"/>
      <use xlink:href="#DejaVuSans-73" x="545.935547"/>
      <use xlink:href="#DejaVuSans-20" x="598.035156"/>
      <use xlink:href="#DejaVuSans-5b" x="629.822266"/>
      <use xlink:href="#DejaVuSans-6b" x="668.835938"/>
      <use xlink:href="#DejaVuSans-4a" x="726.746094"/>
      <use xlink:href="#DejaVuSans-2f" x="756.238281"/>
      <use xlink:href="#DejaVuSans-28" x="789.929688"/>
      <use xlink:href="#DejaVuSans-6d" x="828.943359"/>
      <use xlink:href="#DejaVuSans-6f" x="926.355469"/>
      <use xlink:href="#DejaVuSans-6c" x="987.537109"/>
      <use xlink:href="#DejaVuSans-2a" x="1015.320312"/>
      <use xlink:href="#DejaVuSans-41" x="1065.320312"/>
      <use xlink:href="#DejaVuSans-29" x="1133.728516"/>
      <use xlink:href="#DejaVuSans-5d" x="1172.742188"/>
     </g>
    </g>
   </g>
   <g id="line2d_11">
    <path d="M 83.72 499.48 
L 696.24 23.76 
" clip-path="url(#p75b0c5dbdd)" style="fill: none; stroke-dasharray: 5.55,2.4; stroke-dashoffset: 0; stroke: #ff0000; stroke-width: 1.5"/>
   </g>
   <g id="patch_3">
    <path d="M 83.72 499.48 
L 83.72 23.76 
" style="fill: none; stroke: #000000; stroke-width: 0.8; stroke-linejoin: miter; stroke-linecap: square"/>
   </g>
   <g id="patch_4">
    <path d="M 696.24 499.48 
L 696.24 23.76 
" style="fill: none; stroke: #000000; stroke-width: 0.8; stroke-linejoin: miter; stroke-linecap: square"/>
   </g>
   <g id="patch_5">
    <path d="M 83.72 499.48 
L 696.24 499.48 
" style="fill: none; stroke: #000000; stroke-width: 0.8; stroke-linejoin: miter; stroke-linecap: square"/>
   </g>
   <g id="patch_6">
    <path d="M 83.72 23.76 
L 696.24 23.76 
" style="fill: none; stroke: #000000; stroke-width: 0.8; stroke-linejoin: miter; stroke-linecap: square"/>
   </g>
   <g id="text_13">
    <!-- Correlation in: 0.875 -->
    <g transform="translate(144.972 71.332) scale(0.22 -0.22)">
     <defs>
      <path id="DejaVuSans-43" d="M 4122 4306 
L 4122 3641 
Q 3803 3938 3442 4084 
Q 3081 4231 2675 4231 
Q 1875 4231 1450 3742 
Q 1025 3253 1025 2328 
Q 1025 1406 1450 917 
Q 1875 428 2675 428 
Q 3081 428 3442 575 
Q 3803 722 4122 1019 
L 4122 359 
Q 3791 134 3420 21 
Q 3050 -91 2638 -91 
Q 1578 -91 968 557 
Q 359 1206 359 2328 
Q 359 3453 968 4101 
Q 1578 4750 2638 4750 
Q 3056 4750 3426 4639 
Q 3797 4528 4122 4306 
z
" transform="scale(0.015625)"/>
      <path id="DejaVuSans-3a" d="M 750 794 
L 1409 794 
L 1409 0 
L 750 0 
L 750 794 
z
M 750 3309 
L 1409 3309 
L 1409 2516 
L 750 2516 
L 750 3309 
z
" transform="scale(0.015625)"/>
      <path id="DejaVuSans-2e" d="M 684 794 
L 1344 794 
L 1344 0 
L 684 0 
L 684 794 
z
" transform="scale(0.015625)"/>
      <path id="DejaVuSans-38" d="M 2034 2216 
Q 1584 2216 1326 1975 
Q 1069 1734 1069 1313 
Q 1069 891 1326 650 
Q 1584 409 2034 409 
Q 2484 409 2743 651 
Q 3003 894 3003 1313 
Q 3003 1734 2745 1975 
Q 2488 2216 2034 2216 
z
M 1403 2484 
Q 997 2584 770 2862 
Q 544 3141 544 3541 
Q 544 4100 942 4425 
Q 1341 4750 2034 4750 
Q 2731 4750 3128 4425 
Q 3525 4100 3525 3541 
Q 3525 3141 3298 2862 
Q 3072 2584 2669 2484 
Q 3125 2378 3379 2068 
Q 3634 1759 3634 1313 
Q 3634 634 3220 271 
Q 2806 -91 2034 -91 
Q 1263 -91 848 271 
Q 434 634 434 1313 
Q 434 1759 690 2068 
Q 947 2378 1403 2484 
z
M 1172 3481 
Q 1172 3119 1398 2916 
Q 1625 2713 2034 2713 
Q 2441 2713 2670 2916 
Q 2900 3119 2900 3481 
Q 2900 3844 2670 4047 
Q 2441 4250 2034 4250 
Q 1625 4250 1398 4047 
Q 1172 3844 1172 3481 
z
" transform="scale(0.015625)"/>
      <path id="DejaVuSans-37" d="M 525 4666 
L 3525 4666 
L 3525 4397 
L 1831 0 
L 1172 0 
L 2766 4134 
L 525 4134 
L 525 4666 
z
" transform="scale(0.015625)"/>
     </defs>
     <use xlink:href="#DejaVuSans-43"/>
     <use xlink:href="#DejaVuSans-6f" x="69.824219"/>
     <use xlink:href="#DejaVuSans-72" x="131.005859"/>
     <use xlink:href="#DejaVuSans-72" x="170.369141"/>
     <use xlink:href="#DejaVuSans-65" x="209.232422"/>
     <use xlink:href="#DejaVuSans-6c" x="270.755859"/>
     <use xlink:href="#DejaVuSans-61" x="298.539062"/>
     <use xlink:href="#DejaVuSans-74" x="359.818359"/>
     <use xlink:href="#DejaVuSans-69" x="399.027344"/>
     <use xlink:href="#DejaVuSans-6f" x="426.810547"/>
     <use xlink:href="#DejaVuSans-6e" x="487.992188"/>
     <use xlink:href="#DejaVuSans-20" x="551.371094"/>
     <use xlink:href="#DejaVuSans-69" x="583.158203"/>
     <use xlink:href="#DejaVuSans-6e" x="610.941406"/>
     <use xlink:href="#DejaVuSans-3a" x="674.320312"/>
     <use xlink:href="#DejaVuSans-20" x="708.011719"/>
     <use xlink:href="#DejaVuSans-30" x="739.798828"/>
     <use xlink:href="#DejaVuSans-2e" x="803.421875"/>
     <use xlink:href="#DejaVuSans-38" x="835.208984"/>
     <use xlink:href="#DejaVuSans-37" x="898.832031"/>
     <use xlink:href="#DejaVuSans-35" x="962.455078"/>
    </g>
   </g>
  </g>
 </g>
 <defs>
  <clipPath id="p75b0c5dbdd">
   <rect x="83.72" y="23.76" width="612.52" height="475.72"/>
  </clipPath>
 </defs>
</svg>
