<?xml version="1.0" encoding="utf-8" standalone="no"?>
<!DOCTYPE svg PUBLIC "-//W3C//DTD SVG 1.1//EN"
  "http://www.w3.org/Graphics/SVG/1.1/DTD/svg11.dtd">
<svg xmlns:xlink="http://www.w3.org/1999/xlink" width="720pt" height="576pt" viewBox="0 0 720 576" xmlns="http://www.w3.org/2000/svg" version="1.1">
 <metadata>
  <rdf:RDF xmlns:dc="http://purl.org/dc/elements/1.1/" xmlns:cc="http://creativecommons.org/ns#" xmlns:rdf="http://www.w3.org/1999/02/22-rdf-syntax-ns#">
   <cc:Work>
    <dc:type rdf:resource="http://purl.org/dc/dcmitype/StillImage"/>
    <dc:date>2024-12-08T01:50:44.767898</dc:date>
    <dc:format>image/svg+xml</dc:format>
    <dc:creator>
     <cc:Agent>
      <dc:title>Matplotlib v3.8.4, https://matplotlib.org/</dc:title>
     </cc:Agent>
    </dc:creator>
   </cc:Work>
  </rdf:RDF>
 </metadata>
 <defs>
  <style type="text/css">*{stroke-linejoin: round; stroke-linecap: butt}</style>
 </defs>
 <g id="figure_1">
  <g id="patch_1">
   <path d="M 0 576 
L 720 576 
L 720 0 
L 0 0 
z
" style="fill: #ffffff"/>
  </g>
  <g id="axes_1">
   <g id="patch_2">
    <path d="M 83.72 499.48 
L 693.301667 499.48 
L 693.301667 23.76 
L 83.72 23.76 
z
" style="fill: #ffffff"/>
   </g>
   <g id="QuadContourSet_1">
    <path d="M 84.546442 496.162939 
L 85.709872 496.516756 
L 86.873302 496.651474 
L 88.036732 496.684875 
L 89.200162 496.704922 
L 90.363592 496.771211 
L 91.527023 496.893333 
L 92.690453 497.032601 
L 93.853883 497.142352 
L 95.017313 497.201725 
L 96.180743 497.218439 
L 97.344173 497.217395 
L 98.507603 497.228906 
L 99.671033 497.276821 
L 100.834464 497.366994 
L 101.997894 497.481485 
L 103.161324 497.584153 
L 104.324754 497.637411 
L 105.488184 497.61743 
L 106.651614 497.51456 
L 107.815044 497.322987 
L 108.978475 497.030914 
L 110.141905 496.615185 
L 111.305335 496.038105 
L 111.899528 495.67477 
L 112.468765 495.500047 
L 113.632195 495.075709 
L 114.795625 494.517764 
L 115.959055 493.775998 
L 116.728038 493.174883 
L 117.122485 492.981429 
L 118.285916 492.329932 
L 119.449346 491.426805 
L 120.201063 490.674996 
L 120.612776 490.347762 
L 121.776206 489.23556 
L 122.602465 488.175109 
L 122.939636 487.731369 
L 124.103066 485.923559 
L 124.250415 485.675222 
L 125.266496 483.356867 
L 125.346087 483.175335 
L 125.984586 480.675448 
L 126.044618 478.17556 
L 125.28876 475.675673 
L 125.266496 475.637236 
L 124.103066 473.797525 
L 123.656116 473.175786 
L 122.939636 472.249439 
L 121.776206 471.127056 
L 121.033487 470.675899 
L 120.612776 470.386207 
L 119.449346 469.783256 
L 118.285916 469.327259 
L 117.122485 468.93511 
L 115.959055 468.59469 
L 114.795625 468.331753 
L 113.632195 468.176012 
L 113.632195 468.176012 
L 112.468765 468.101767 
L 111.896539 468.176012 
L 111.305335 468.213047 
L 110.141905 468.369178 
L 108.978475 468.568721 
L 107.815044 468.763108 
L 106.651614 468.907437 
L 105.488184 468.983384 
L 104.324754 469.006359 
L 103.161324 469.007677 
L 101.997894 469.020441 
L 100.834464 469.078698 
L 99.671033 469.212064 
L 98.507603 469.436876 
L 97.344173 469.758742 
L 96.180743 470.18308 
L 95.110255 470.675899 
L 95.017313 470.698514 
L 93.853883 471.00803 
L 92.690453 471.419973 
L 91.527023 472.0214 
L 90.363592 472.944939 
L 90.131097 473.175786 
L 89.200162 473.749816 
L 88.036732 474.845478 
L 87.399119 475.675673 
L 86.873302 476.183303 
L 85.709872 477.752987 
L 85.448666 478.17556 
L 84.546442 479.483024 
L 83.893108 480.675448 
L 83.383012 481.687934 
L 82.683466 483.175335 
L 82.219581 484.542095 
L 81.791747 485.675222 
L 81.264575 488.175109 
L 81.167678 490.674996 
L 81.667011 493.174883 
L 82.219581 494.201487 
L 83.383012 495.474125 
L 83.741916 495.67477 
z
M 91.783164 493.174883 
L 91.527023 493.147046 
L 90.363592 493.078749 
L 89.200162 493.046265 
L 88.036732 492.980225 
L 86.873302 492.758667 
L 85.709872 492.153342 
L 84.546442 490.674996 
L 84.546442 490.674996 
L 84.097491 488.175109 
L 84.477647 485.675222 
L 84.546442 485.489302 
L 85.350758 483.175335 
L 85.709872 482.477349 
L 86.757812 480.675448 
L 86.873302 480.495122 
L 88.036732 478.91015 
L 88.765584 478.17556 
L 89.200162 477.674538 
L 90.363592 476.637107 
L 91.527023 475.924726 
L 92.05029 475.675673 
L 92.690453 475.250765 
L 93.853883 474.676189 
L 95.017313 474.255218 
L 96.180743 473.932722 
L 97.344173 473.686136 
L 98.507603 473.509337 
L 99.671033 473.39363 
L 100.834464 473.319719 
L 101.997894 473.267749 
L 103.161324 473.225517 
L 104.324754 473.181063 
L 104.413629 473.175786 
L 105.488184 473.073524 
L 106.651614 472.894408 
L 107.815044 472.654857 
L 108.978475 472.403715 
L 110.141905 472.201012 
L 111.305335 472.0938 
L 112.468765 472.109113 
L 113.632195 472.253702 
L 114.795625 472.519495 
L 115.959055 472.899188 
L 116.616526 473.175786 
L 117.122485 473.342618 
L 118.285916 473.894151 
L 119.449346 474.813685 
L 120.178723 475.675673 
L 120.612776 476.459242 
L 121.425916 478.17556 
L 121.776206 480.349666 
L 121.833695 480.675448 
L 121.776206 481.013861 
L 121.469502 483.175335 
L 120.612776 485.01441 
L 120.302895 485.675222 
L 119.449346 486.854683 
L 118.285916 488.173657 
L 118.284597 488.175109 
L 117.122485 489.357421 
L 115.959055 490.263963 
L 115.341921 490.674996 
L 114.795625 491.120906 
L 113.632195 491.935267 
L 112.468765 492.553511 
L 111.305335 493.028612 
L 110.872699 493.174883 
L 110.141905 493.560171 
L 108.978475 494.013321 
L 107.815044 494.307493 
L 106.651614 494.463168 
L 105.488184 494.492878 
L 104.324754 494.414854 
L 103.161324 494.266259 
L 101.997894 494.10114 
L 100.834464 493.969763 
L 99.671033 493.896931 
L 98.507603 493.873785 
L 97.344173 493.864704 
L 96.180743 493.824607 
L 95.017313 493.71822 
L 93.853883 493.538159 
L 92.690453 493.319778 
z
" clip-path="url(#pd495614257)" style="fill: #eaf2fb"/>
    <path d="M 92.690453 493.319778 
L 93.853883 493.538159 
L 95.017313 493.71822 
L 96.180743 493.824607 
L 97.344173 493.864704 
L 98.507603 493.873785 
L 99.671033 493.896931 
L 100.834464 493.969763 
L 101.997894 494.10114 
L 103.161324 494.266259 
L 104.324754 494.414854 
L 105.488184 494.492878 
L 106.651614 494.463168 
L 107.815044 494.307493 
L 108.978475 494.013321 
L 110.141905 493.560171 
L 110.872699 493.174883 
L 111.305335 493.028612 
L 112.468765 492.553511 
L 113.632195 491.935267 
L 114.795625 491.120906 
L 115.341921 490.674996 
L 115.959055 490.263963 
L 117.122485 489.357421 
L 118.284597 488.175109 
L 118.285916 488.173657 
L 119.449346 486.854683 
L 120.302895 485.675222 
L 120.612776 485.01441 
L 121.469502 483.175335 
L 121.776206 481.013861 
L 121.833695 480.675448 
L 121.776206 480.349666 
L 121.425916 478.17556 
L 120.612776 476.459242 
L 120.178723 475.675673 
L 119.449346 474.813685 
L 118.285916 473.894151 
L 117.122485 473.342618 
L 116.616526 473.175786 
L 115.959055 472.899188 
L 114.795625 472.519495 
L 113.632195 472.253702 
L 112.468765 472.109113 
L 111.305335 472.0938 
L 110.141905 472.201012 
L 108.978475 472.403715 
L 107.815044 472.654857 
L 106.651614 472.894408 
L 105.488184 473.073524 
L 104.413629 473.175786 
L 104.324754 473.181063 
L 103.161324 473.225517 
L 101.997894 473.267749 
L 100.834464 473.319719 
L 99.671033 473.39363 
L 98.507603 473.509337 
L 97.344173 473.686136 
L 96.180743 473.932722 
L 95.017313 474.255218 
L 93.853883 474.676189 
L 92.690453 475.250765 
L 92.05029 475.675673 
L 91.527023 475.924726 
L 90.363592 476.637107 
L 89.200162 477.674538 
L 88.765584 478.17556 
L 88.036732 478.91015 
L 86.873302 480.495122 
L 86.757812 480.675448 
L 85.709872 482.477349 
L 85.350758 483.175335 
L 84.546442 485.489302 
L 84.477647 485.675222 
L 84.097491 488.175109 
L 84.546442 490.674996 
L 84.546442 490.674996 
L 85.709872 492.153342 
L 86.873302 492.758667 
L 88.036732 492.980225 
L 89.200162 493.046265 
L 90.363592 493.078749 
L 91.527023 493.147046 
L 91.783164 493.174883 
z
M 87.871571 490.674996 
L 86.873302 489.936227 
L 85.950331 488.175109 
L 86.059765 485.675222 
L 86.873302 483.394851 
L 86.949918 483.175335 
L 88.036732 481.368399 
L 88.528423 480.675448 
L 89.200162 479.857883 
L 90.363592 478.776559 
L 91.204946 478.17556 
L 91.527023 477.9203 
L 92.690453 477.222328 
L 93.853883 476.723842 
L 95.017313 476.351351 
L 96.180743 476.067945 
L 97.344173 475.856985 
L 98.507603 475.70319 
L 98.770865 475.675673 
L 99.671033 475.55448 
L 100.834464 475.419062 
L 101.997894 475.30326 
L 103.161324 475.203452 
L 104.324754 475.098305 
L 105.488184 474.956058 
L 106.651614 474.763087 
L 107.815044 474.541101 
L 108.978475 474.334517 
L 110.141905 474.188883 
L 111.305335 474.137948 
L 112.468765 474.198691 
L 113.632195 474.375365 
L 114.795625 474.674826 
L 115.959055 475.128123 
L 116.911554 475.675673 
L 117.122485 475.814521 
L 118.285916 476.983771 
L 119.040315 478.17556 
L 119.449346 480.05101 
L 119.583797 480.675448 
L 119.449346 481.633521 
L 119.265067 483.175335 
L 118.285916 485.253169 
L 118.083582 485.675222 
L 117.122485 486.931345 
L 115.959055 488.175109 
L 115.959055 488.175109 
L 114.795625 489.266592 
L 113.632195 490.107221 
L 112.656402 490.674996 
L 112.468765 490.807577 
L 111.305335 491.509912 
L 110.141905 492.020543 
L 108.978475 492.378266 
L 107.815044 492.601974 
L 106.651614 492.696993 
L 105.488184 492.669878 
L 104.324754 492.54755 
L 103.161324 492.381754 
L 101.997894 492.229213 
L 100.834464 492.126371 
L 99.671033 492.077208 
L 98.507603 492.055701 
L 97.344173 492.01919 
L 96.180743 491.926438 
L 95.017313 491.757777 
L 93.853883 491.535543 
L 92.690453 491.323897 
L 91.527023 491.182317 
L 90.363592 491.10505 
L 89.200162 491.009048 
L 88.036732 490.752773 
z
" clip-path="url(#pd495614257)" style="fill: #cfe1f2"/>
    <path d="M 88.036732 490.752773 
L 89.200162 491.009048 
L 90.363592 491.10505 
L 91.527023 491.182317 
L 92.690453 491.323897 
L 93.853883 491.535543 
L 95.017313 491.757777 
L 96.180743 491.926438 
L 97.344173 492.01919 
L 98.507603 492.055701 
L 99.671033 492.077208 
L 100.834464 492.126371 
L 101.997894 492.229213 
L 103.161324 492.381754 
L 104.324754 492.54755 
L 105.488184 492.669878 
L 106.651614 492.696993 
L 107.815044 492.601974 
L 108.978475 492.378266 
L 110.141905 492.020543 
L 111.305335 491.509912 
L 112.468765 490.807577 
L 112.656402 490.674996 
L 113.632195 490.107221 
L 114.795625 489.266592 
L 115.959055 488.175109 
L 115.959055 488.175109 
L 117.122485 486.931345 
L 118.083582 485.675222 
L 118.285916 485.253169 
L 119.265067 483.175335 
L 119.449346 481.633521 
L 119.583797 480.675448 
L 119.449346 480.05101 
L 119.040315 478.17556 
L 118.285916 476.983771 
L 117.122485 475.814521 
L 116.911554 475.675673 
L 115.959055 475.128123 
L 114.795625 474.674826 
L 113.632195 474.375365 
L 112.468765 474.198691 
L 111.305335 474.137948 
L 110.141905 474.188883 
L 108.978475 474.334517 
L 107.815044 474.541101 
L 106.651614 474.763087 
L 105.488184 474.956058 
L 104.324754 475.098305 
L 103.161324 475.203452 
L 101.997894 475.30326 
L 100.834464 475.419062 
L 99.671033 475.55448 
L 98.770865 475.675673 
L 98.507603 475.70319 
L 97.344173 475.856985 
L 96.180743 476.067945 
L 95.017313 476.351351 
L 93.853883 476.723842 
L 92.690453 477.222328 
L 91.527023 477.9203 
L 91.204946 478.17556 
L 90.363592 478.776559 
L 89.200162 479.857883 
L 88.528423 480.675448 
L 88.036732 481.368399 
L 86.949918 483.175335 
L 86.873302 483.394851 
L 86.059765 485.675222 
L 85.950331 488.175109 
L 86.873302 489.936227 
L 87.871571 490.674996 
z
M 99.671033 490.674996 
L 99.671033 490.674996 
L 98.507603 490.646894 
L 97.344173 490.57861 
L 96.180743 490.424412 
L 95.017313 490.18184 
L 93.853883 489.911637 
L 92.690453 489.696186 
L 91.527023 489.560655 
L 90.363592 489.440043 
L 89.200162 489.184211 
L 88.036732 488.511721 
L 87.741116 488.175109 
L 87.379902 485.675222 
L 88.036732 483.755421 
L 88.23347 483.175335 
L 89.200162 481.759368 
L 90.081282 480.675448 
L 90.363592 480.389587 
L 91.527023 479.479834 
L 92.690453 478.807081 
L 93.853883 478.290605 
L 94.198314 478.17556 
L 95.017313 477.901758 
L 96.180743 477.619854 
L 97.344173 477.398799 
L 98.507603 477.20763 
L 99.671033 477.034101 
L 100.834464 476.881139 
L 101.997894 476.75351 
L 103.161324 476.642977 
L 104.324754 476.523968 
L 105.488184 476.369174 
L 106.651614 476.173538 
L 107.815044 475.961412 
L 108.978475 475.774727 
L 109.951064 475.675673 
L 110.141905 475.650885 
L 111.305335 475.624011 
L 111.860574 475.675673 
L 112.468765 475.723004 
L 113.632195 475.935164 
L 114.795625 476.30954 
L 115.959055 476.939097 
L 117.122485 478.012054 
L 117.253582 478.17556 
L 118.087656 480.675448 
L 117.82054 483.175335 
L 117.122485 484.638795 
L 116.615023 485.675222 
L 115.959055 486.503414 
L 114.795625 487.767036 
L 114.371107 488.175109 
L 113.632195 488.817828 
L 112.468765 489.639274 
L 111.305335 490.272963 
L 110.358049 490.674996 
L 110.141905 490.784168 
L 108.978475 491.203012 
L 107.815044 491.434061 
L 106.651614 491.495037 
L 105.488184 491.409894 
L 104.324754 491.22624 
L 103.161324 491.012758 
L 101.997894 490.833825 
L 100.834464 490.723709 
z
" clip-path="url(#pd495614257)" style="fill: #aed1e7"/>
    <path d="M 100.834464 490.723709 
L 101.997894 490.833825 
L 103.161324 491.012758 
L 104.324754 491.22624 
L 105.488184 491.409894 
L 106.651614 491.495037 
L 107.815044 491.434061 
L 108.978475 491.203012 
L 110.141905 490.784168 
L 110.358049 490.674996 
L 111.305335 490.272963 
L 112.468765 489.639274 
L 113.632195 488.817828 
L 114.371107 488.175109 
L 114.795625 487.767036 
L 115.959055 486.503414 
L 116.615023 485.675222 
L 117.122485 484.638795 
L 117.82054 483.175335 
L 118.087656 480.675448 
L 117.253582 478.17556 
L 117.122485 478.012054 
L 115.959055 476.939097 
L 114.795625 476.30954 
L 113.632195 475.935164 
L 112.468765 475.723004 
L 111.860574 475.675673 
L 111.305335 475.624011 
L 110.141905 475.650885 
L 109.951064 475.675673 
L 108.978475 475.774727 
L 107.815044 475.961412 
L 106.651614 476.173538 
L 105.488184 476.369174 
L 104.324754 476.523968 
L 103.161324 476.642977 
L 101.997894 476.75351 
L 100.834464 476.881139 
L 99.671033 477.034101 
L 98.507603 477.20763 
L 97.344173 477.398799 
L 96.180743 477.619854 
L 95.017313 477.901758 
L 94.198314 478.17556 
L 93.853883 478.290605 
L 92.690453 478.807081 
L 91.527023 479.479834 
L 90.363592 480.389587 
L 90.081282 480.675448 
L 89.200162 481.759368 
L 88.23347 483.175335 
L 88.036732 483.755421 
L 87.379902 485.675222 
L 87.741116 488.175109 
L 88.036732 488.511721 
L 89.200162 489.184211 
L 90.363592 489.440043 
L 91.527023 489.560655 
L 92.690453 489.696186 
L 93.853883 489.911637 
L 95.017313 490.18184 
L 96.180743 490.424412 
L 97.344173 490.57861 
L 98.507603 490.646894 
L 99.671033 490.674996 
L 99.671033 490.674996 
z
M 91.527023 488.175109 
L 91.527023 488.175109 
L 90.363592 487.876136 
L 89.200162 486.890188 
L 88.687436 485.675222 
L 89.200162 484.028668 
L 89.463749 483.175335 
L 90.363592 482.076032 
L 91.527023 480.888518 
L 91.78421 480.675448 
L 92.690453 480.145696 
L 93.853883 479.662064 
L 95.017313 479.302722 
L 96.180743 479.016212 
L 97.344173 478.766162 
L 98.507603 478.532648 
L 99.671033 478.313392 
L 100.484218 478.17556 
L 100.834464 478.11686 
L 101.997894 477.952385 
L 103.161324 477.810116 
L 104.324754 477.654736 
L 105.488184 477.457318 
L 106.651614 477.221922 
L 107.815044 476.983842 
L 108.978475 476.789675 
L 110.141905 476.680826 
L 111.305335 476.685718 
L 112.468765 476.823447 
L 113.632195 477.121106 
L 114.795625 477.639202 
L 115.560714 478.17556 
L 115.959055 478.679672 
L 116.91246 480.675448 
L 116.724076 483.175335 
L 115.959055 484.74758 
L 115.49257 485.675222 
L 114.795625 486.505415 
L 113.632195 487.681967 
L 113.066328 488.175109 
L 112.468765 488.637437 
L 111.305335 489.353164 
L 110.141905 489.878155 
L 108.978475 490.236759 
L 107.815044 490.429351 
L 106.651614 490.451839 
L 105.488184 490.326895 
L 104.324754 490.117323 
L 103.161324 489.900951 
L 101.997894 489.734897 
L 100.834464 489.636732 
L 99.671033 489.582575 
L 98.507603 489.519822 
L 97.344173 489.389865 
L 96.180743 489.157699 
L 95.017313 488.845764 
L 93.853883 488.538726 
L 92.690453 488.317784 
z
" clip-path="url(#pd495614257)" style="fill: #85bcdc"/>
    <path d="M 92.690453 488.317784 
L 93.853883 488.538726 
L 95.017313 488.845764 
L 96.180743 489.157699 
L 97.344173 489.389865 
L 98.507603 489.519822 
L 99.671033 489.582575 
L 100.834464 489.636732 
L 101.997894 489.734897 
L 103.161324 489.900951 
L 104.324754 490.117323 
L 105.488184 490.326895 
L 106.651614 490.451839 
L 107.815044 490.429351 
L 108.978475 490.236759 
L 110.141905 489.878155 
L 111.305335 489.353164 
L 112.468765 488.637437 
L 113.066328 488.175109 
L 113.632195 487.681967 
L 114.795625 486.505415 
L 115.49257 485.675222 
L 115.959055 484.74758 
L 116.724076 483.175335 
L 116.91246 480.675448 
L 115.959055 478.679672 
L 115.560714 478.17556 
L 114.795625 477.639202 
L 113.632195 477.121106 
L 112.468765 476.823447 
L 111.305335 476.685718 
L 110.141905 476.680826 
L 108.978475 476.789675 
L 107.815044 476.983842 
L 106.651614 477.221922 
L 105.488184 477.457318 
L 104.324754 477.654736 
L 103.161324 477.810116 
L 101.997894 477.952385 
L 100.834464 478.11686 
L 100.484218 478.17556 
L 99.671033 478.313392 
L 98.507603 478.532648 
L 97.344173 478.766162 
L 96.180743 479.016212 
L 95.017313 479.302722 
L 93.853883 479.662064 
L 92.690453 480.145696 
L 91.78421 480.675448 
L 91.527023 480.888518 
L 90.363592 482.076032 
L 89.463749 483.175335 
L 89.200162 484.028668 
L 88.687436 485.675222 
L 89.200162 486.890188 
L 90.363592 487.876136 
L 91.527023 488.175109 
L 91.527023 488.175109 
z
M 98.387955 488.175109 
L 97.344173 487.902958 
L 96.180743 487.424111 
L 95.017313 486.888456 
L 93.853883 486.45676 
L 92.690453 486.151251 
L 91.527023 485.808063 
L 91.292422 485.675222 
L 91.466797 483.175335 
L 91.527023 483.118609 
L 92.690453 482.339416 
L 93.853883 481.706984 
L 95.017313 481.165715 
L 96.180743 480.675448 
L 96.180743 480.675448 
L 97.344173 480.377014 
L 98.507603 480.068375 
L 99.671033 479.782418 
L 100.834464 479.544131 
L 101.997894 479.353714 
L 103.161324 479.182624 
L 104.324754 478.987868 
L 105.488184 478.743697 
L 106.651614 478.461986 
L 107.815044 478.186153 
L 107.87278 478.17556 
L 108.978475 477.982741 
L 110.141905 477.885445 
L 111.305335 477.921545 
L 112.468765 478.117011 
L 112.651055 478.17556 
L 113.632195 478.595176 
L 114.795625 479.572679 
L 115.539266 480.675448 
L 115.530323 483.175335 
L 114.795625 484.642507 
L 114.258228 485.675222 
L 113.632195 486.355466 
L 112.468765 487.415655 
L 111.454839 488.175109 
L 111.305335 488.271947 
L 110.141905 488.837708 
L 108.978475 489.190902 
L 107.815044 489.34351 
L 106.651614 489.30844 
L 105.488184 489.127734 
L 104.324754 488.877633 
L 103.161324 488.639565 
L 101.997894 488.466787 
L 100.834464 488.366431 
L 99.671033 488.298441 
L 98.507603 488.194955 
z
" clip-path="url(#pd495614257)" style="fill: #5ba3d0"/>
    <path d="M 98.507603 488.194955 
L 99.671033 488.298441 
L 100.834464 488.366431 
L 101.997894 488.466787 
L 103.161324 488.639565 
L 104.324754 488.877633 
L 105.488184 489.127734 
L 106.651614 489.30844 
L 107.815044 489.34351 
L 108.978475 489.190902 
L 110.141905 488.837708 
L 111.305335 488.271947 
L 111.454839 488.175109 
L 112.468765 487.415655 
L 113.632195 486.355466 
L 114.258228 485.675222 
L 114.795625 484.642507 
L 115.530323 483.175335 
L 115.539266 480.675448 
L 114.795625 479.572679 
L 113.632195 478.595176 
L 112.651055 478.17556 
L 112.468765 478.117011 
L 111.305335 477.921545 
L 110.141905 477.885445 
L 108.978475 477.982741 
L 107.87278 478.17556 
L 107.815044 478.186153 
L 106.651614 478.461986 
L 105.488184 478.743697 
L 104.324754 478.987868 
L 103.161324 479.182624 
L 101.997894 479.353714 
L 100.834464 479.544131 
L 99.671033 479.782418 
L 98.507603 480.068375 
L 97.344173 480.377014 
L 96.180743 480.675448 
L 96.180743 480.675448 
L 95.017313 481.165715 
L 93.853883 481.706984 
L 92.690453 482.339416 
L 91.527023 483.118609 
L 91.466797 483.175335 
L 91.292422 485.675222 
L 91.527023 485.808063 
L 92.690453 486.151251 
L 93.853883 486.45676 
L 95.017313 486.888456 
L 96.180743 487.424111 
L 97.344173 487.902958 
L 98.387955 488.175109 
z
M 104.324754 488.175109 
L 104.324754 488.175109 
L 103.161324 487.841026 
L 101.997894 487.606878 
L 100.834464 487.461645 
L 99.671033 487.332555 
L 98.507603 487.114709 
L 97.344173 486.72277 
L 96.180743 486.172781 
L 95.139363 485.675222 
L 95.017313 485.26014 
L 94.113035 483.175335 
L 95.017313 482.794172 
L 96.180743 482.237984 
L 97.344173 481.651771 
L 98.507603 481.088917 
L 99.44551 480.675448 
L 99.671033 480.614906 
L 100.834464 480.352353 
L 101.997894 480.146992 
L 103.161324 479.960527 
L 104.324754 479.744778 
L 105.488184 479.477959 
L 106.651614 479.17964 
L 107.815044 478.897439 
L 108.978475 478.687027 
L 110.141905 478.596681 
L 111.305335 478.666273 
L 112.468765 478.951752 
L 113.632195 479.571288 
L 114.714204 480.675448 
L 114.795625 481.80308 
L 114.864587 483.175335 
L 114.795625 483.313049 
L 113.632195 485.545118 
L 113.560892 485.675222 
L 112.468765 486.707116 
L 111.305335 487.58274 
L 110.291026 488.175109 
L 110.141905 488.248093 
L 108.978475 488.598222 
L 107.815044 488.72817 
L 106.651614 488.660483 
L 105.488184 488.448177 
z
" clip-path="url(#pd495614257)" style="fill: #3c8cc3"/>
    <path d="M 105.488184 488.448177 
L 106.651614 488.660483 
L 107.815044 488.72817 
L 108.978475 488.598222 
L 110.141905 488.248093 
L 110.291026 488.175109 
L 111.305335 487.58274 
L 112.468765 486.707116 
L 113.560892 485.675222 
L 113.632195 485.545118 
L 114.795625 483.313049 
L 114.864587 483.175335 
L 114.795625 481.80308 
L 114.714204 480.675448 
L 113.632195 479.571288 
L 112.468765 478.951752 
L 111.305335 478.666273 
L 110.141905 478.596681 
L 108.978475 478.687027 
L 107.815044 478.897439 
L 106.651614 479.17964 
L 105.488184 479.477959 
L 104.324754 479.744778 
L 103.161324 479.960527 
L 101.997894 480.146992 
L 100.834464 480.352353 
L 99.671033 480.614906 
L 99.44551 480.675448 
L 98.507603 481.088917 
L 97.344173 481.651771 
L 96.180743 482.237984 
L 95.017313 482.794172 
L 94.113035 483.175335 
L 95.017313 485.26014 
L 95.139363 485.675222 
L 96.180743 486.172781 
L 97.344173 486.72277 
L 98.507603 487.114709 
L 99.671033 487.332555 
L 100.834464 487.461645 
L 101.997894 487.606878 
L 103.161324 487.841026 
L 104.324754 488.175109 
L 104.324754 488.175109 
z
M 99.010017 485.675222 
L 98.507603 484.028457 
L 98.336911 483.175335 
L 98.507603 483.079897 
L 99.671033 482.524897 
L 100.834464 482.096866 
L 101.997894 481.749588 
L 103.161324 481.401121 
L 104.324754 480.974813 
L 104.982273 480.675448 
L 105.488184 480.547314 
L 106.651614 480.224809 
L 107.815044 479.933332 
L 108.978475 479.729103 
L 110.141905 479.663272 
L 111.305335 479.787664 
L 112.468765 480.180296 
L 113.217431 480.675448 
L 113.632195 482.028674 
L 113.829071 483.175335 
L 113.632195 483.552366 
L 112.468765 485.675222 
L 112.468765 485.675222 
L 111.305335 486.558093 
L 110.141905 487.200352 
L 108.978475 487.593005 
L 107.815044 487.703471 
L 106.651614 487.539388 
L 105.488184 487.191386 
L 104.324754 486.792756 
L 103.161324 486.45187 
L 101.997894 486.21397 
L 100.834464 486.046463 
L 99.671033 485.855086 
z
" clip-path="url(#pd495614257)" style="fill: #2676b8"/>
    <path d="M 99.671033 485.855086 
L 100.834464 486.046463 
L 101.997894 486.21397 
L 103.161324 486.45187 
L 104.324754 486.792756 
L 105.488184 487.191386 
L 106.651614 487.539388 
L 107.815044 487.703471 
L 108.978475 487.593005 
L 110.141905 487.200352 
L 111.305335 486.558093 
L 112.468765 485.675222 
L 112.468765 485.675222 
L 113.632195 483.552366 
L 113.829071 483.175335 
L 113.632195 482.028674 
L 113.217431 480.675448 
L 112.468765 480.180296 
L 111.305335 479.787664 
L 110.141905 479.663272 
L 108.978475 479.729103 
L 107.815044 479.933332 
L 106.651614 480.224809 
L 105.488184 480.547314 
L 104.982273 480.675448 
L 104.324754 480.974813 
L 103.161324 481.401121 
L 101.997894 481.749588 
L 100.834464 482.096866 
L 99.671033 482.524897 
L 98.507603 483.079897 
L 98.336911 483.175335 
L 98.507603 484.028457 
L 99.010017 485.675222 
z
M 104.678937 485.675222 
L 104.324754 484.979186 
L 103.161324 483.175335 
L 104.324754 482.708863 
L 105.488184 482.144671 
L 106.651614 481.550645 
L 107.815044 481.023162 
L 108.941632 480.675448 
L 108.978475 480.66912 
L 110.141905 480.625403 
L 110.488932 480.675448 
L 111.305335 480.95632 
L 112.468765 482.421693 
L 112.738704 483.175335 
L 112.468765 483.65715 
L 111.305335 485.564465 
L 111.222818 485.675222 
L 110.141905 486.239384 
L 108.978475 486.563025 
L 107.815044 486.592222 
L 106.651614 486.358577 
L 105.488184 485.96587 
z
" clip-path="url(#pd495614257)" style="fill: #125da6"/>
    <path d="M 105.488184 485.96587 
L 106.651614 486.358577 
L 107.815044 486.592222 
L 108.978475 486.563025 
L 110.141905 486.239384 
L 111.222818 485.675222 
L 111.305335 485.564465 
L 112.468765 483.65715 
L 112.738704 483.175335 
L 112.468765 482.421693 
L 111.305335 480.95632 
L 110.488932 480.675448 
L 110.141905 480.625403 
L 108.978475 480.66912 
L 108.941632 480.675448 
L 107.815044 481.023162 
L 106.651614 481.550645 
L 105.488184 482.144671 
L 104.324754 482.708863 
L 103.161324 483.175335 
L 104.324754 484.979186 
L 104.678937 485.675222 
z
" clip-path="url(#pd495614257)" style="fill: #084184"/>
   </g>
   <g id="matplotlib.axis_1">
    <g id="xtick_1">
     <g id="line2d_1">
      <defs>
       <path id="m0605ef8ba5" d="M 0 0 
L 0 3.5 
" style="stroke: #000000; stroke-width: 0.8"/>
      </defs>
      <g>
       <use xlink:href="#m0605ef8ba5" x="88.082295" y="499.48" style="stroke: #000000; stroke-width: 0.8"/>
      </g>
     </g>
     <g id="text_1">
      <!-- 0 -->
      <g transform="translate(81.083545 523.196563) scale(0.22 -0.22)">
       <defs>
        <path id="DejaVuSans-30" d="M 2034 4250 
Q 1547 4250 1301 3770 
Q 1056 3291 1056 2328 
Q 1056 1369 1301 889 
Q 1547 409 2034 409 
Q 2525 409 2770 889 
Q 3016 1369 3016 2328 
Q 3016 3291 2770 3770 
Q 2525 4250 2034 4250 
z
M 2034 4750 
Q 2819 4750 3233 4129 
Q 3647 3509 3647 2328 
Q 3647 1150 3233 529 
Q 2819 -91 2034 -91 
Q 1250 -91 836 529 
Q 422 1150 422 2328 
Q 422 3509 836 4129 
Q 1250 4750 2034 4750 
z
" transform="scale(0.015625)"/>
       </defs>
       <use xlink:href="#DejaVuSans-30"/>
      </g>
     </g>
    </g>
    <g id="xtick_2">
     <g id="line2d_2">
      <g>
       <use xlink:href="#m0605ef8ba5" x="172.809647" y="499.48" style="stroke: #000000; stroke-width: 0.8"/>
      </g>
     </g>
     <g id="text_2">
      <!-- 10 -->
      <g transform="translate(158.812147 523.196563) scale(0.22 -0.22)">
       <defs>
        <path id="DejaVuSans-31" d="M 794 531 
L 1825 531 
L 1825 4091 
L 703 3866 
L 703 4441 
L 1819 4666 
L 2450 4666 
L 2450 531 
L 3481 531 
L 3481 0 
L 794 0 
L 794 531 
z
" transform="scale(0.015625)"/>
       </defs>
       <use xlink:href="#DejaVuSans-31"/>
       <use xlink:href="#DejaVuSans-30" x="63.623047"/>
      </g>
     </g>
    </g>
    <g id="xtick_3">
     <g id="line2d_3">
      <g>
       <use xlink:href="#m0605ef8ba5" x="257.536999" y="499.48" style="stroke: #000000; stroke-width: 0.8"/>
      </g>
     </g>
     <g id="text_3">
      <!-- 20 -->
      <g transform="translate(243.539499 523.196563) scale(0.22 -0.22)">
       <defs>
        <path id="DejaVuSans-32" d="M 1228 531 
L 3431 531 
L 3431 0 
L 469 0 
L 469 531 
Q 828 903 1448 1529 
Q 2069 2156 2228 2338 
Q 2531 2678 2651 2914 
Q 2772 3150 2772 3378 
Q 2772 3750 2511 3984 
Q 2250 4219 1831 4219 
Q 1534 4219 1204 4116 
Q 875 4013 500 3803 
L 500 4441 
Q 881 4594 1212 4672 
Q 1544 4750 1819 4750 
Q 2544 4750 2975 4387 
Q 3406 4025 3406 3419 
Q 3406 3131 3298 2873 
Q 3191 2616 2906 2266 
Q 2828 2175 2409 1742 
Q 1991 1309 1228 531 
z
" transform="scale(0.015625)"/>
       </defs>
       <use xlink:href="#DejaVuSans-32"/>
       <use xlink:href="#DejaVuSans-30" x="63.623047"/>
      </g>
     </g>
    </g>
    <g id="xtick_4">
     <g id="line2d_4">
      <g>
       <use xlink:href="#m0605ef8ba5" x="342.264351" y="499.48" style="stroke: #000000; stroke-width: 0.8"/>
      </g>
     </g>
     <g id="text_4">
      <!-- 30 -->
      <g transform="translate(328.266851 523.196563) scale(0.22 -0.22)">
       <defs>
        <path id="DejaVuSans-33" d="M 2597 2516 
Q 3050 2419 3304 2112 
Q 3559 1806 3559 1356 
Q 3559 666 3084 287 
Q 2609 -91 1734 -91 
Q 1441 -91 1130 -33 
Q 819 25 488 141 
L 488 750 
Q 750 597 1062 519 
Q 1375 441 1716 441 
Q 2309 441 2620 675 
Q 2931 909 2931 1356 
Q 2931 1769 2642 2001 
Q 2353 2234 1838 2234 
L 1294 2234 
L 1294 2753 
L 1863 2753 
Q 2328 2753 2575 2939 
Q 2822 3125 2822 3475 
Q 2822 3834 2567 4026 
Q 2313 4219 1838 4219 
Q 1578 4219 1281 4162 
Q 984 4106 628 3988 
L 628 4550 
Q 988 4650 1302 4700 
Q 1616 4750 1894 4750 
Q 2613 4750 3031 4423 
Q 3450 4097 3450 3541 
Q 3450 3153 3228 2886 
Q 3006 2619 2597 2516 
z
" transform="scale(0.015625)"/>
       </defs>
       <use xlink:href="#DejaVuSans-33"/>
       <use xlink:href="#DejaVuSans-30" x="63.623047"/>
      </g>
     </g>
    </g>
    <g id="xtick_5">
     <g id="line2d_5">
      <g>
       <use xlink:href="#m0605ef8ba5" x="426.991703" y="499.48" style="stroke: #000000; stroke-width: 0.8"/>
      </g>
     </g>
     <g id="text_5">
      <!-- 40 -->
      <g transform="translate(412.994203 523.196563) scale(0.22 -0.22)">
       <defs>
        <path id="DejaVuSans-34" d="M 2419 4116 
L 825 1625 
L 2419 1625 
L 2419 4116 
z
M 2253 4666 
L 3047 4666 
L 3047 1625 
L 3713 1625 
L 3713 1100 
L 3047 1100 
L 3047 0 
L 2419 0 
L 2419 1100 
L 313 1100 
L 313 1709 
L 2253 4666 
z
" transform="scale(0.015625)"/>
       </defs>
       <use xlink:href="#DejaVuSans-34"/>
       <use xlink:href="#DejaVuSans-30" x="63.623047"/>
      </g>
     </g>
    </g>
    <g id="xtick_6">
     <g id="line2d_6">
      <g>
       <use xlink:href="#m0605ef8ba5" x="511.719055" y="499.48" style="stroke: #000000; stroke-width: 0.8"/>
      </g>
     </g>
     <g id="text_6">
      <!-- 50 -->
      <g transform="translate(497.721555 523.196563) scale(0.22 -0.22)">
       <defs>
        <path id="DejaVuSans-35" d="M 691 4666 
L 3169 4666 
L 3169 4134 
L 1269 4134 
L 1269 2991 
Q 1406 3038 1543 3061 
Q 1681 3084 1819 3084 
Q 2600 3084 3056 2656 
Q 3513 2228 3513 1497 
Q 3513 744 3044 326 
Q 2575 -91 1722 -91 
Q 1428 -91 1123 -41 
Q 819 9 494 109 
L 494 744 
Q 775 591 1075 516 
Q 1375 441 1709 441 
Q 2250 441 2565 725 
Q 2881 1009 2881 1497 
Q 2881 1984 2565 2268 
Q 2250 2553 1709 2553 
Q 1456 2553 1204 2497 
Q 953 2441 691 2322 
L 691 4666 
z
" transform="scale(0.015625)"/>
       </defs>
       <use xlink:href="#DejaVuSans-35"/>
       <use xlink:href="#DejaVuSans-30" x="63.623047"/>
      </g>
     </g>
    </g>
    <g id="xtick_7">
     <g id="line2d_7">
      <g>
       <use xlink:href="#m0605ef8ba5" x="596.446407" y="499.48" style="stroke: #000000; stroke-width: 0.8"/>
      </g>
     </g>
     <g id="text_7">
      <!-- 60 -->
      <g transform="translate(582.448907 523.196563) scale(0.22 -0.22)">
       <defs>
        <path id="DejaVuSans-36" d="M 2113 2584 
Q 1688 2584 1439 2293 
Q 1191 2003 1191 1497 
Q 1191 994 1439 701 
Q 1688 409 2113 409 
Q 2538 409 2786 701 
Q 3034 994 3034 1497 
Q 3034 2003 2786 2293 
Q 2538 2584 2113 2584 
z
M 3366 4563 
L 3366 3988 
Q 3128 4100 2886 4159 
Q 2644 4219 2406 4219 
Q 1781 4219 1451 3797 
Q 1122 3375 1075 2522 
Q 1259 2794 1537 2939 
Q 1816 3084 2150 3084 
Q 2853 3084 3261 2657 
Q 3669 2231 3669 1497 
Q 3669 778 3244 343 
Q 2819 -91 2113 -91 
Q 1303 -91 875 529 
Q 447 1150 447 2328 
Q 447 3434 972 4092 
Q 1497 4750 2381 4750 
Q 2619 4750 2861 4703 
Q 3103 4656 3366 4563 
z
" transform="scale(0.015625)"/>
       </defs>
       <use xlink:href="#DejaVuSans-36"/>
       <use xlink:href="#DejaVuSans-30" x="63.623047"/>
      </g>
     </g>
    </g>
    <g id="xtick_8">
     <g id="line2d_8">
      <g>
       <use xlink:href="#m0605ef8ba5" x="681.173759" y="499.48" style="stroke: #000000; stroke-width: 0.8"/>
      </g>
     </g>
     <g id="text_8">
      <!-- 70 -->
      <g transform="translate(667.176259 523.196563) scale(0.22 -0.22)">
       <defs>
        <path id="DejaVuSans-37" d="M 525 4666 
L 3525 4666 
L 3525 4397 
L 1831 0 
L 1172 0 
L 2766 4134 
L 525 4134 
L 525 4666 
z
" transform="scale(0.015625)"/>
       </defs>
       <use xlink:href="#DejaVuSans-37"/>
       <use xlink:href="#DejaVuSans-30" x="63.623047"/>
      </g>
     </g>
    </g>
    <g id="text_9">
     <!-- Force Uncertainties -->
     <g transform="translate(281.956927 548.488438) scale(0.22 -0.22)">
      <defs>
       <path id="DejaVuSans-46" d="M 628 4666 
L 3309 4666 
L 3309 4134 
L 1259 4134 
L 1259 2759 
L 3109 2759 
L 3109 2228 
L 1259 2228 
L 1259 0 
L 628 0 
L 628 4666 
z
" transform="scale(0.015625)"/>
       <path id="DejaVuSans-6f" d="M 1959 3097 
Q 1497 3097 1228 2736 
Q 959 2375 959 1747 
Q 959 1119 1226 758 
Q 1494 397 1959 397 
Q 2419 397 2687 759 
Q 2956 1122 2956 1747 
Q 2956 2369 2687 2733 
Q 2419 3097 1959 3097 
z
M 1959 3584 
Q 2709 3584 3137 3096 
Q 3566 2609 3566 1747 
Q 3566 888 3137 398 
Q 2709 -91 1959 -91 
Q 1206 -91 779 398 
Q 353 888 353 1747 
Q 353 2609 779 3096 
Q 1206 3584 1959 3584 
z
" transform="scale(0.015625)"/>
       <path id="DejaVuSans-72" d="M 2631 2963 
Q 2534 3019 2420 3045 
Q 2306 3072 2169 3072 
Q 1681 3072 1420 2755 
Q 1159 2438 1159 1844 
L 1159 0 
L 581 0 
L 581 3500 
L 1159 3500 
L 1159 2956 
Q 1341 3275 1631 3429 
Q 1922 3584 2338 3584 
Q 2397 3584 2469 3576 
Q 2541 3569 2628 3553 
L 2631 2963 
z
" transform="scale(0.015625)"/>
       <path id="DejaVuSans-63" d="M 3122 3366 
L 3122 2828 
Q 2878 2963 2633 3030 
Q 2388 3097 2138 3097 
Q 1578 3097 1268 2742 
Q 959 2388 959 1747 
Q 959 1106 1268 751 
Q 1578 397 2138 397 
Q 2388 397 2633 464 
Q 2878 531 3122 666 
L 3122 134 
Q 2881 22 2623 -34 
Q 2366 -91 2075 -91 
Q 1284 -91 818 406 
Q 353 903 353 1747 
Q 353 2603 823 3093 
Q 1294 3584 2113 3584 
Q 2378 3584 2631 3529 
Q 2884 3475 3122 3366 
z
" transform="scale(0.015625)"/>
       <path id="DejaVuSans-65" d="M 3597 1894 
L 3597 1613 
L 953 1613 
Q 991 1019 1311 708 
Q 1631 397 2203 397 
Q 2534 397 2845 478 
Q 3156 559 3463 722 
L 3463 178 
Q 3153 47 2828 -22 
Q 2503 -91 2169 -91 
Q 1331 -91 842 396 
Q 353 884 353 1716 
Q 353 2575 817 3079 
Q 1281 3584 2069 3584 
Q 2775 3584 3186 3129 
Q 3597 2675 3597 1894 
z
M 3022 2063 
Q 3016 2534 2758 2815 
Q 2500 3097 2075 3097 
Q 1594 3097 1305 2825 
Q 1016 2553 972 2059 
L 3022 2063 
z
" transform="scale(0.015625)"/>
       <path id="DejaVuSans-20" transform="scale(0.015625)"/>
       <path id="DejaVuSans-55" d="M 556 4666 
L 1191 4666 
L 1191 1831 
Q 1191 1081 1462 751 
Q 1734 422 2344 422 
Q 2950 422 3222 751 
Q 3494 1081 3494 1831 
L 3494 4666 
L 4128 4666 
L 4128 1753 
Q 4128 841 3676 375 
Q 3225 -91 2344 -91 
Q 1459 -91 1007 375 
Q 556 841 556 1753 
L 556 4666 
z
" transform="scale(0.015625)"/>
       <path id="DejaVuSans-6e" d="M 3513 2113 
L 3513 0 
L 2938 0 
L 2938 2094 
Q 2938 2591 2744 2837 
Q 2550 3084 2163 3084 
Q 1697 3084 1428 2787 
Q 1159 2491 1159 1978 
L 1159 0 
L 581 0 
L 581 3500 
L 1159 3500 
L 1159 2956 
Q 1366 3272 1645 3428 
Q 1925 3584 2291 3584 
Q 2894 3584 3203 3211 
Q 3513 2838 3513 2113 
z
" transform="scale(0.015625)"/>
       <path id="DejaVuSans-74" d="M 1172 4494 
L 1172 3500 
L 2356 3500 
L 2356 3053 
L 1172 3053 
L 1172 1153 
Q 1172 725 1289 603 
Q 1406 481 1766 481 
L 2356 481 
L 2356 0 
L 1766 0 
Q 1100 0 847 248 
Q 594 497 594 1153 
L 594 3053 
L 172 3053 
L 172 3500 
L 594 3500 
L 594 4494 
L 1172 4494 
z
" transform="scale(0.015625)"/>
       <path id="DejaVuSans-61" d="M 2194 1759 
Q 1497 1759 1228 1600 
Q 959 1441 959 1056 
Q 959 750 1161 570 
Q 1363 391 1709 391 
Q 2188 391 2477 730 
Q 2766 1069 2766 1631 
L 2766 1759 
L 2194 1759 
z
M 3341 1997 
L 3341 0 
L 2766 0 
L 2766 531 
Q 2569 213 2275 61 
Q 1981 -91 1556 -91 
Q 1019 -91 701 211 
Q 384 513 384 1019 
Q 384 1609 779 1909 
Q 1175 2209 1959 2209 
L 2766 2209 
L 2766 2266 
Q 2766 2663 2505 2880 
Q 2244 3097 1772 3097 
Q 1472 3097 1187 3025 
Q 903 2953 641 2809 
L 641 3341 
Q 956 3463 1253 3523 
Q 1550 3584 1831 3584 
Q 2591 3584 2966 3190 
Q 3341 2797 3341 1997 
z
" transform="scale(0.015625)"/>
       <path id="DejaVuSans-69" d="M 603 3500 
L 1178 3500 
L 1178 0 
L 603 0 
L 603 3500 
z
M 603 4863 
L 1178 4863 
L 1178 4134 
L 603 4134 
L 603 4863 
z
" transform="scale(0.015625)"/>
       <path id="DejaVuSans-73" d="M 2834 3397 
L 2834 2853 
Q 2591 2978 2328 3040 
Q 2066 3103 1784 3103 
Q 1356 3103 1142 2972 
Q 928 2841 928 2578 
Q 928 2378 1081 2264 
Q 1234 2150 1697 2047 
L 1894 2003 
Q 2506 1872 2764 1633 
Q 3022 1394 3022 966 
Q 3022 478 2636 193 
Q 2250 -91 1575 -91 
Q 1294 -91 989 -36 
Q 684 19 347 128 
L 347 722 
Q 666 556 975 473 
Q 1284 391 1588 391 
Q 1994 391 2212 530 
Q 2431 669 2431 922 
Q 2431 1156 2273 1281 
Q 2116 1406 1581 1522 
L 1381 1569 
Q 847 1681 609 1914 
Q 372 2147 372 2553 
Q 372 3047 722 3315 
Q 1072 3584 1716 3584 
Q 2034 3584 2315 3537 
Q 2597 3491 2834 3397 
z
" transform="scale(0.015625)"/>
      </defs>
      <use xlink:href="#DejaVuSans-46"/>
      <use xlink:href="#DejaVuSans-6f" x="53.894531"/>
      <use xlink:href="#DejaVuSans-72" x="115.076172"/>
      <use xlink:href="#DejaVuSans-63" x="153.939453"/>
      <use xlink:href="#DejaVuSans-65" x="208.919922"/>
      <use xlink:href="#DejaVuSans-20" x="270.443359"/>
      <use xlink:href="#DejaVuSans-55" x="302.230469"/>
      <use xlink:href="#DejaVuSans-6e" x="375.423828"/>
      <use xlink:href="#DejaVuSans-63" x="438.802734"/>
      <use xlink:href="#DejaVuSans-65" x="493.783203"/>
      <use xlink:href="#DejaVuSans-72" x="555.306641"/>
      <use xlink:href="#DejaVuSans-74" x="596.419922"/>
      <use xlink:href="#DejaVuSans-61" x="635.628906"/>
      <use xlink:href="#DejaVuSans-69" x="696.908203"/>
      <use xlink:href="#DejaVuSans-6e" x="724.691406"/>
      <use xlink:href="#DejaVuSans-74" x="788.070312"/>
      <use xlink:href="#DejaVuSans-69" x="827.279297"/>
      <use xlink:href="#DejaVuSans-65" x="855.0625"/>
      <use xlink:href="#DejaVuSans-73" x="916.585938"/>
     </g>
    </g>
   </g>
   <g id="matplotlib.axis_2">
    <g id="ytick_1">
     <g id="line2d_9">
      <defs>
       <path id="ma75ade1bd6" d="M 0 0 
L -3.5 0 
" style="stroke: #000000; stroke-width: 0.8"/>
      </defs>
      <g>
       <use xlink:href="#ma75ade1bd6" x="83.72" y="496.075647" style="stroke: #000000; stroke-width: 0.8"/>
      </g>
     </g>
     <g id="text_10">
      <!-- 0 -->
      <g transform="translate(62.7225 504.433928) scale(0.22 -0.22)">
       <use xlink:href="#DejaVuSans-30"/>
      </g>
     </g>
    </g>
    <g id="ytick_2">
     <g id="line2d_10">
      <g>
       <use xlink:href="#ma75ade1bd6" x="83.72" y="429.954079" style="stroke: #000000; stroke-width: 0.8"/>
      </g>
     </g>
     <g id="text_11">
      <!-- 10 -->
      <g transform="translate(48.725 438.31236) scale(0.22 -0.22)">
       <use xlink:href="#DejaVuSans-31"/>
       <use xlink:href="#DejaVuSans-30" x="63.623047"/>
      </g>
     </g>
    </g>
    <g id="ytick_3">
     <g id="line2d_11">
      <g>
       <use xlink:href="#ma75ade1bd6" x="83.72" y="363.83251" style="stroke: #000000; stroke-width: 0.8"/>
      </g>
     </g>
     <g id="text_12">
      <!-- 20 -->
      <g transform="translate(48.725 372.190792) scale(0.22 -0.22)">
       <use xlink:href="#DejaVuSans-32"/>
       <use xlink:href="#DejaVuSans-30" x="63.623047"/>
      </g>
     </g>
    </g>
    <g id="ytick_4">
     <g id="line2d_12">
      <g>
       <use xlink:href="#ma75ade1bd6" x="83.72" y="297.710942" style="stroke: #000000; stroke-width: 0.8"/>
      </g>
     </g>
     <g id="text_13">
      <!-- 30 -->
      <g transform="translate(48.725 306.069223) scale(0.22 -0.22)">
       <use xlink:href="#DejaVuSans-33"/>
       <use xlink:href="#DejaVuSans-30" x="63.623047"/>
      </g>
     </g>
    </g>
    <g id="ytick_5">
     <g id="line2d_13">
      <g>
       <use xlink:href="#ma75ade1bd6" x="83.72" y="231.589374" style="stroke: #000000; stroke-width: 0.8"/>
      </g>
     </g>
     <g id="text_14">
      <!-- 40 -->
      <g transform="translate(48.725 239.947655) scale(0.22 -0.22)">
       <use xlink:href="#DejaVuSans-34"/>
       <use xlink:href="#DejaVuSans-30" x="63.623047"/>
      </g>
     </g>
    </g>
    <g id="ytick_6">
     <g id="line2d_14">
      <g>
       <use xlink:href="#ma75ade1bd6" x="83.72" y="165.467805" style="stroke: #000000; stroke-width: 0.8"/>
      </g>
     </g>
     <g id="text_15">
      <!-- 50 -->
      <g transform="translate(48.725 173.826086) scale(0.22 -0.22)">
       <use xlink:href="#DejaVuSans-35"/>
       <use xlink:href="#DejaVuSans-30" x="63.623047"/>
      </g>
     </g>
    </g>
    <g id="ytick_7">
     <g id="line2d_15">
      <g>
       <use xlink:href="#ma75ade1bd6" x="83.72" y="99.346237" style="stroke: #000000; stroke-width: 0.8"/>
      </g>
     </g>
     <g id="text_16">
      <!-- 60 -->
      <g transform="translate(48.725 107.704518) scale(0.22 -0.22)">
       <use xlink:href="#DejaVuSans-36"/>
       <use xlink:href="#DejaVuSans-30" x="63.623047"/>
      </g>
     </g>
    </g>
    <g id="ytick_8">
     <g id="line2d_16">
      <g>
       <use xlink:href="#ma75ade1bd6" x="83.72" y="33.224668" style="stroke: #000000; stroke-width: 0.8"/>
      </g>
     </g>
     <g id="text_17">
      <!-- 70 -->
      <g transform="translate(48.725 41.58295) scale(0.22 -0.22)">
       <use xlink:href="#DejaVuSans-37"/>
       <use xlink:href="#DejaVuSans-30" x="63.623047"/>
      </g>
     </g>
    </g>
    <g id="text_18">
     <!-- Force Errors [kJ/(mol*A)] -->
     <g transform="translate(40.149688 394.9125) rotate(-90) scale(0.22 -0.22)">
      <defs>
       <path id="DejaVuSans-45" d="M 628 4666 
L 3578 4666 
L 3578 4134 
L 1259 4134 
L 1259 2753 
L 3481 2753 
L 3481 2222 
L 1259 2222 
L 1259 531 
L 3634 531 
L 3634 0 
L 628 0 
L 628 4666 
z
" transform="scale(0.015625)"/>
       <path id="DejaVuSans-5b" d="M 550 4863 
L 1875 4863 
L 1875 4416 
L 1125 4416 
L 1125 -397 
L 1875 -397 
L 1875 -844 
L 550 -844 
L 550 4863 
z
" transform="scale(0.015625)"/>
       <path id="DejaVuSans-6b" d="M 581 4863 
L 1159 4863 
L 1159 1991 
L 2875 3500 
L 3609 3500 
L 1753 1863 
L 3688 0 
L 2938 0 
L 1159 1709 
L 1159 0 
L 581 0 
L 581 4863 
z
" transform="scale(0.015625)"/>
       <path id="DejaVuSans-4a" d="M 628 4666 
L 1259 4666 
L 1259 325 
Q 1259 -519 939 -900 
Q 619 -1281 -91 -1281 
L -331 -1281 
L -331 -750 
L -134 -750 
Q 284 -750 456 -515 
Q 628 -281 628 325 
L 628 4666 
z
" transform="scale(0.015625)"/>
       <path id="DejaVuSans-2f" d="M 1625 4666 
L 2156 4666 
L 531 -594 
L 0 -594 
L 1625 4666 
z
" transform="scale(0.015625)"/>
       <path id="DejaVuSans-28" d="M 1984 4856 
Q 1566 4138 1362 3434 
Q 1159 2731 1159 2009 
Q 1159 1288 1364 580 
Q 1569 -128 1984 -844 
L 1484 -844 
Q 1016 -109 783 600 
Q 550 1309 550 2009 
Q 550 2706 781 3412 
Q 1013 4119 1484 4856 
L 1984 4856 
z
" transform="scale(0.015625)"/>
       <path id="DejaVuSans-6d" d="M 3328 2828 
Q 3544 3216 3844 3400 
Q 4144 3584 4550 3584 
Q 5097 3584 5394 3201 
Q 5691 2819 5691 2113 
L 5691 0 
L 5113 0 
L 5113 2094 
Q 5113 2597 4934 2840 
Q 4756 3084 4391 3084 
Q 3944 3084 3684 2787 
Q 3425 2491 3425 1978 
L 3425 0 
L 2847 0 
L 2847 2094 
Q 2847 2600 2669 2842 
Q 2491 3084 2119 3084 
Q 1678 3084 1418 2786 
Q 1159 2488 1159 1978 
L 1159 0 
L 581 0 
L 581 3500 
L 1159 3500 
L 1159 2956 
Q 1356 3278 1631 3431 
Q 1906 3584 2284 3584 
Q 2666 3584 2933 3390 
Q 3200 3197 3328 2828 
z
" transform="scale(0.015625)"/>
       <path id="DejaVuSans-6c" d="M 603 4863 
L 1178 4863 
L 1178 0 
L 603 0 
L 603 4863 
z
" transform="scale(0.015625)"/>
       <path id="DejaVuSans-2a" d="M 3009 3897 
L 1888 3291 
L 3009 2681 
L 2828 2375 
L 1778 3009 
L 1778 1831 
L 1422 1831 
L 1422 3009 
L 372 2375 
L 191 2681 
L 1313 3291 
L 191 3897 
L 372 4206 
L 1422 3572 
L 1422 4750 
L 1778 4750 
L 1778 3572 
L 2828 4206 
L 3009 3897 
z
" transform="scale(0.015625)"/>
       <path id="DejaVuSans-41" d="M 2188 4044 
L 1331 1722 
L 3047 1722 
L 2188 4044 
z
M 1831 4666 
L 2547 4666 
L 4325 0 
L 3669 0 
L 3244 1197 
L 1141 1197 
L 716 0 
L 50 0 
L 1831 4666 
z
" transform="scale(0.015625)"/>
       <path id="DejaVuSans-29" d="M 513 4856 
L 1013 4856 
Q 1481 4119 1714 3412 
Q 1947 2706 1947 2009 
Q 1947 1309 1714 600 
Q 1481 -109 1013 -844 
L 513 -844 
Q 928 -128 1133 580 
Q 1338 1288 1338 2009 
Q 1338 2731 1133 3434 
Q 928 4138 513 4856 
z
" transform="scale(0.015625)"/>
       <path id="DejaVuSans-5d" d="M 1947 4863 
L 1947 -844 
L 622 -844 
L 622 -397 
L 1369 -397 
L 1369 4416 
L 622 4416 
L 622 4863 
L 1947 4863 
z
" transform="scale(0.015625)"/>
      </defs>
      <use xlink:href="#DejaVuSans-46"/>
      <use xlink:href="#DejaVuSans-6f" x="53.894531"/>
      <use xlink:href="#DejaVuSans-72" x="115.076172"/>
      <use xlink:href="#DejaVuSans-63" x="153.939453"/>
      <use xlink:href="#DejaVuSans-65" x="208.919922"/>
      <use xlink:href="#DejaVuSans-20" x="270.443359"/>
      <use xlink:href="#DejaVuSans-45" x="302.230469"/>
      <use xlink:href="#DejaVuSans-72" x="365.414062"/>
      <use xlink:href="#DejaVuSans-72" x="404.777344"/>
      <use xlink:href="#DejaVuSans-6f" x="443.640625"/>
      <use xlink:href="#DejaVuSans-72" x="504.822266"/>
      <use xlink:href="#DejaVuSans-73" x="545.935547"/>
      <use xlink:href="#DejaVuSans-20" x="598.035156"/>
      <use xlink:href="#DejaVuSans-5b" x="629.822266"/>
      <use xlink:href="#DejaVuSans-6b" x="668.835938"/>
      <use xlink:href="#DejaVuSans-4a" x="726.746094"/>
      <use xlink:href="#DejaVuSans-2f" x="756.238281"/>
      <use xlink:href="#DejaVuSans-28" x="789.929688"/>
      <use xlink:href="#DejaVuSans-6d" x="828.943359"/>
      <use xlink:href="#DejaVuSans-6f" x="926.355469"/>
      <use xlink:href="#DejaVuSans-6c" x="987.537109"/>
      <use xlink:href="#DejaVuSans-2a" x="1015.320312"/>
      <use xlink:href="#DejaVuSans-41" x="1065.320312"/>
      <use xlink:href="#DejaVuSans-29" x="1133.728516"/>
      <use xlink:href="#DejaVuSans-5d" x="1172.742188"/>
     </g>
    </g>
   </g>
   <g id="line2d_17">
    <path d="M 83.72 499.48 
L 693.301667 23.76 
" clip-path="url(#pd495614257)" style="fill: none; stroke-dasharray: 5.55,2.4; stroke-dashoffset: 0; stroke: #ff0000; stroke-width: 1.5"/>
   </g>
   <g id="patch_3">
    <path d="M 83.72 499.48 
L 83.72 23.76 
" style="fill: none; stroke: #000000; stroke-width: 0.8; stroke-linejoin: miter; stroke-linecap: square"/>
   </g>
   <g id="patch_4">
    <path d="M 693.301667 499.48 
L 693.301667 23.76 
" style="fill: none; stroke: #000000; stroke-width: 0.8; stroke-linejoin: miter; stroke-linecap: square"/>
   </g>
   <g id="patch_5">
    <path d="M 83.72 499.48 
L 693.301667 499.48 
" style="fill: none; stroke: #000000; stroke-width: 0.8; stroke-linejoin: miter; stroke-linecap: square"/>
   </g>
   <g id="patch_6">
    <path d="M 83.72 23.76 
L 693.301667 23.76 
" style="fill: none; stroke: #000000; stroke-width: 0.8; stroke-linejoin: miter; stroke-linecap: square"/>
   </g>
   <g id="text_19">
    <!-- Correlation in: 0.617 -->
    <g transform="translate(144.678167 71.332) scale(0.22 -0.22)">
     <defs>
      <path id="DejaVuSans-43" d="M 4122 4306 
L 4122 3641 
Q 3803 3938 3442 4084 
Q 3081 4231 2675 4231 
Q 1875 4231 1450 3742 
Q 1025 3253 1025 2328 
Q 1025 1406 1450 917 
Q 1875 428 2675 428 
Q 3081 428 3442 575 
Q 3803 722 4122 1019 
L 4122 359 
Q 3791 134 3420 21 
Q 3050 -91 2638 -91 
Q 1578 -91 968 557 
Q 359 1206 359 2328 
Q 359 3453 968 4101 
Q 1578 4750 2638 4750 
Q 3056 4750 3426 4639 
Q 3797 4528 4122 4306 
z
" transform="scale(0.015625)"/>
      <path id="DejaVuSans-3a" d="M 750 794 
L 1409 794 
L 1409 0 
L 750 0 
L 750 794 
z
M 750 3309 
L 1409 3309 
L 1409 2516 
L 750 2516 
L 750 3309 
z
" transform="scale(0.015625)"/>
      <path id="DejaVuSans-2e" d="M 684 794 
L 1344 794 
L 1344 0 
L 684 0 
L 684 794 
z
" transform="scale(0.015625)"/>
     </defs>
     <use xlink:href="#DejaVuSans-43"/>
     <use xlink:href="#DejaVuSans-6f" x="69.824219"/>
     <use xlink:href="#DejaVuSans-72" x="131.005859"/>
     <use xlink:href="#DejaVuSans-72" x="170.369141"/>
     <use xlink:href="#DejaVuSans-65" x="209.232422"/>
     <use xlink:href="#DejaVuSans-6c" x="270.755859"/>
     <use xlink:href="#DejaVuSans-61" x="298.539062"/>
     <use xlink:href="#DejaVuSans-74" x="359.818359"/>
     <use xlink:href="#DejaVuSans-69" x="399.027344"/>
     <use xlink:href="#DejaVuSans-6f" x="426.810547"/>
     <use xlink:href="#DejaVuSans-6e" x="487.992188"/>
     <use xlink:href="#DejaVuSans-20" x="551.371094"/>
     <use xlink:href="#DejaVuSans-69" x="583.158203"/>
     <use xlink:href="#DejaVuSans-6e" x="610.941406"/>
     <use xlink:href="#DejaVuSans-3a" x="674.320312"/>
     <use xlink:href="#DejaVuSans-20" x="708.011719"/>
     <use xlink:href="#DejaVuSans-30" x="739.798828"/>
     <use xlink:href="#DejaVuSans-2e" x="803.421875"/>
     <use xlink:href="#DejaVuSans-36" x="835.208984"/>
     <use xlink:href="#DejaVuSans-31" x="898.832031"/>
     <use xlink:href="#DejaVuSans-37" x="962.455078"/>
    </g>
   </g>
  </g>
 </g>
 <defs>
  <clipPath id="pd495614257">
   <rect x="83.72" y="23.76" width="609.581667" height="475.72"/>
  </clipPath>
 </defs>
</svg>
