<?xml version="1.0" encoding="utf-8" standalone="no"?>
<!DOCTYPE svg PUBLIC "-//W3C//DTD SVG 1.1//EN"
  "http://www.w3.org/Graphics/SVG/1.1/DTD/svg11.dtd">
<svg xmlns:xlink="http://www.w3.org/1999/xlink" width="720pt" height="576pt" viewBox="0 0 720 576" xmlns="http://www.w3.org/2000/svg" version="1.1">
 <metadata>
  <rdf:RDF xmlns:dc="http://purl.org/dc/elements/1.1/" xmlns:cc="http://creativecommons.org/ns#" xmlns:rdf="http://www.w3.org/1999/02/22-rdf-syntax-ns#">
   <cc:Work>
    <dc:type rdf:resource="http://purl.org/dc/dcmitype/StillImage"/>
    <dc:date>2024-12-07T21:04:35.041983</dc:date>
    <dc:format>image/svg+xml</dc:format>
    <dc:creator>
     <cc:Agent>
      <dc:title>Matplotlib v3.8.4, https://matplotlib.org/</dc:title>
     </cc:Agent>
    </dc:creator>
   </cc:Work>
  </rdf:RDF>
 </metadata>
 <defs>
  <style type="text/css">*{stroke-linejoin: round; stroke-linecap: butt}</style>
 </defs>
 <g id="figure_1">
  <g id="patch_1">
   <path d="M 0 576 
L 720 576 
L 720 0 
L 0 0 
z
" style="fill: #ffffff"/>
  </g>
  <g id="axes_1">
   <g id="patch_2">
    <path d="M 83.72 499.48 
L 696.24 499.48 
L 696.24 23.76 
L 83.72 23.76 
z
" style="fill: #ffffff"/>
   </g>
   <g id="QuadContourSet_1">
    <path d="M 100.451364 484.946653 
L 103.375151 485.685384 
L 106.298938 486.12426 
L 109.222724 486.252366 
L 112.146511 486.130819 
L 115.070297 485.767632 
L 117.994084 485.08423 
L 119.853824 484.386739 
L 120.91787 484.177967 
L 123.841657 483.427878 
L 126.765443 482.162564 
L 127.249677 481.925813 
L 129.68923 481.214012 
L 132.613016 479.867231 
L 133.381599 479.464887 
L 135.536803 478.694902 
L 138.460589 477.107411 
L 138.641483 477.003961 
L 141.384376 475.785706 
L 143.409682 474.543035 
L 144.308162 474.04789 
L 147.231949 472.091227 
L 147.245137 472.08211 
L 150.155735 470.036748 
L 150.702198 469.621184 
L 153.079522 467.467279 
L 153.434307 467.160258 
L 155.560666 464.699332 
L 156.003308 463.734011 
L 156.931395 462.238406 
L 157.463658 459.77748 
L 157.209639 457.316555 
L 156.170124 454.855629 
L 156.003308 454.634154 
L 153.973439 452.394703 
L 153.079522 451.859416 
L 150.155735 450.944546 
L 147.231949 450.641899 
L 144.308162 450.522266 
L 141.384376 450.452019 
L 138.460589 450.486326 
L 135.536803 450.720814 
L 132.613016 451.12724 
L 129.68923 451.57239 
L 126.765443 451.77341 
L 123.841657 451.584197 
L 120.91787 451.465599 
L 117.994084 451.714679 
L 115.070297 452.394703 
L 115.070297 452.394703 
L 112.146511 452.994128 
L 109.222724 453.908713 
L 107.195995 454.855629 
L 106.298938 455.132942 
L 103.375151 456.289161 
L 101.598101 457.316555 
L 100.451364 457.802133 
L 97.527578 459.584375 
L 97.252614 459.77748 
L 94.603791 461.282241 
L 93.362731 462.238406 
L 91.680005 463.3836 
L 90.080059 464.699332 
L 88.756218 465.769383 
L 87.156372 467.160258 
L 85.832432 468.441397 
L 84.556483 469.621184 
L 82.908645 471.574183 
L 82.402544 472.08211 
L 80.608475 474.543035 
L 79.984859 476.268619 
L 79.578153 477.003961 
L 79.576925 479.464887 
L 79.984859 480.189708 
L 81.109816 481.925813 
L 82.908645 483.115836 
L 85.832432 483.938691 
L 88.756218 484.145116 
L 91.680005 484.167068 
L 94.603791 484.181664 
L 97.527578 484.324745 
L 97.982261 484.386739 
z
M 108.087836 481.925813 
L 106.298938 481.433547 
L 103.375151 480.485091 
L 100.451364 479.956913 
L 97.527578 479.840076 
L 94.603791 479.853075 
L 91.680005 479.711023 
L 90.535975 479.464887 
L 88.756218 478.884131 
L 86.837136 477.003961 
L 86.684513 474.543035 
L 87.766732 472.08211 
L 88.756218 470.937271 
L 89.717592 469.621184 
L 91.680005 467.80273 
L 92.342564 467.160258 
L 94.603791 465.371485 
L 95.519781 464.699332 
L 97.527578 463.29366 
L 99.355233 462.238406 
L 100.451364 461.545949 
L 103.375151 460.090881 
L 104.159942 459.77748 
L 106.298938 458.730111 
L 109.222724 457.754947 
L 111.134513 457.316555 
L 112.146511 456.998095 
L 115.070297 456.578873 
L 117.994084 456.627194 
L 120.91787 456.85475 
L 123.841657 456.748019 
L 126.765443 456.321968 
L 129.68923 455.816185 
L 132.613016 455.376859 
L 135.536803 455.070522 
L 138.460589 454.878747 
L 139.159812 454.855629 
L 141.384376 454.733183 
L 144.109305 454.855629 
L 144.308162 454.862918 
L 147.231949 455.545351 
L 149.584469 457.316555 
L 150.155735 459.042143 
L 150.384266 459.77748 
L 150.155735 461.076689 
L 150.020363 462.238406 
L 149.009986 464.699332 
L 147.231949 466.824373 
L 146.998508 467.160258 
L 144.308162 469.621184 
L 144.308162 469.621184 
L 141.384376 471.843753 
L 141.051858 472.08211 
L 138.460589 473.801989 
L 137.118183 474.543035 
L 135.536803 475.489451 
L 132.613016 476.854014 
L 132.259666 477.003961 
L 129.68923 478.368388 
L 126.765443 479.390949 
L 126.520449 479.464887 
L 123.841657 480.626288 
L 120.91787 481.424648 
L 118.163105 481.925813 
L 117.994084 481.976507 
L 115.070297 482.465025 
L 112.146511 482.554133 
L 109.222724 482.221208 
z
" clip-path="url(#p14631ca41e)" style="fill: #edf4fc"/>
    <path d="M 109.222724 482.221208 
L 112.146511 482.554133 
L 115.070297 482.465025 
L 117.994084 481.976507 
L 118.163105 481.925813 
L 120.91787 481.424648 
L 123.841657 480.626288 
L 126.520449 479.464887 
L 126.765443 479.390949 
L 129.68923 478.368388 
L 132.259666 477.003961 
L 132.613016 476.854014 
L 135.536803 475.489451 
L 137.118183 474.543035 
L 138.460589 473.801989 
L 141.051858 472.08211 
L 141.384376 471.843753 
L 144.308162 469.621184 
L 144.308162 469.621184 
L 146.998508 467.160258 
L 147.231949 466.824373 
L 149.009986 464.699332 
L 150.020363 462.238406 
L 150.155735 461.076689 
L 150.384266 459.77748 
L 150.155735 459.042143 
L 149.584469 457.316555 
L 147.231949 455.545351 
L 144.308162 454.862918 
L 144.109305 454.855629 
L 141.384376 454.733183 
L 139.159812 454.855629 
L 138.460589 454.878747 
L 135.536803 455.070522 
L 132.613016 455.376859 
L 129.68923 455.816185 
L 126.765443 456.321968 
L 123.841657 456.748019 
L 120.91787 456.85475 
L 117.994084 456.627194 
L 115.070297 456.578873 
L 112.146511 456.998095 
L 111.134513 457.316555 
L 109.222724 457.754947 
L 106.298938 458.730111 
L 104.159942 459.77748 
L 103.375151 460.090881 
L 100.451364 461.545949 
L 99.355233 462.238406 
L 97.527578 463.29366 
L 95.519781 464.699332 
L 94.603791 465.371485 
L 92.342564 467.160258 
L 91.680005 467.80273 
L 89.717592 469.621184 
L 88.756218 470.937271 
L 87.766732 472.08211 
L 86.684513 474.543035 
L 86.837136 477.003961 
L 88.756218 478.884131 
L 90.535975 479.464887 
L 91.680005 479.711023 
L 94.603791 479.853075 
L 97.527578 479.840076 
L 100.451364 479.956913 
L 103.375151 480.485091 
L 106.298938 481.433547 
L 108.087836 481.925813 
z
M 109.325972 479.464887 
L 109.222724 479.422761 
L 106.298938 478.048976 
L 103.375151 477.272276 
L 100.451364 477.105618 
L 97.527578 477.144237 
L 94.603791 477.020011 
L 94.532348 477.003961 
L 91.680005 475.636089 
L 90.921025 474.543035 
L 91.340326 472.08211 
L 91.680005 471.630819 
L 92.988329 469.621184 
L 94.603791 468.08708 
L 95.556637 467.160258 
L 97.527578 465.671997 
L 98.944497 464.699332 
L 100.451364 463.741304 
L 103.373876 462.238406 
L 103.375151 462.237701 
L 106.298938 460.952424 
L 109.222724 460.087931 
L 111.196634 459.77748 
L 112.146511 459.599281 
L 115.070297 459.641887 
L 116.64457 459.77748 
L 117.994084 459.875172 
L 120.91787 459.77748 
L 120.91787 459.77748 
L 123.841657 459.272761 
L 126.765443 458.638554 
L 129.68923 458.042149 
L 132.613016 457.57487 
L 134.79308 457.316555 
L 135.536803 457.188417 
L 138.460589 456.887282 
L 141.384376 456.930624 
L 143.257915 457.316555 
L 144.308162 457.633695 
L 146.609934 459.77748 
L 146.764289 462.238406 
L 145.846931 464.699332 
L 144.308162 466.613036 
L 143.940777 467.160258 
L 141.384376 469.538799 
L 141.300931 469.621184 
L 138.460589 471.780042 
L 138.036838 472.08211 
L 135.536803 473.717294 
L 134.010887 474.543035 
L 132.613016 475.357014 
L 129.68923 476.705302 
L 128.912795 477.003961 
L 126.765443 478.02732 
L 123.841657 478.991281 
L 121.829322 479.464887 
L 120.91787 479.770012 
L 117.994084 480.347592 
L 115.070297 480.53636 
L 112.146511 480.29245 
z
" clip-path="url(#p14631ca41e)" style="fill: #d7e6f5"/>
    <path d="M 112.146511 480.29245 
L 115.070297 480.53636 
L 117.994084 480.347592 
L 120.91787 479.770012 
L 121.829322 479.464887 
L 123.841657 478.991281 
L 126.765443 478.02732 
L 128.912795 477.003961 
L 129.68923 476.705302 
L 132.613016 475.357014 
L 134.010887 474.543035 
L 135.536803 473.717294 
L 138.036838 472.08211 
L 138.460589 471.780042 
L 141.300931 469.621184 
L 141.384376 469.538799 
L 143.940777 467.160258 
L 144.308162 466.613036 
L 145.846931 464.699332 
L 146.764289 462.238406 
L 146.609934 459.77748 
L 144.308162 457.633695 
L 143.257915 457.316555 
L 141.384376 456.930624 
L 138.460589 456.887282 
L 135.536803 457.188417 
L 134.79308 457.316555 
L 132.613016 457.57487 
L 129.68923 458.042149 
L 126.765443 458.638554 
L 123.841657 459.272761 
L 120.91787 459.77748 
L 120.91787 459.77748 
L 117.994084 459.875172 
L 116.64457 459.77748 
L 115.070297 459.641887 
L 112.146511 459.599281 
L 111.196634 459.77748 
L 109.222724 460.087931 
L 106.298938 460.952424 
L 103.375151 462.237701 
L 103.373876 462.238406 
L 100.451364 463.741304 
L 98.944497 464.699332 
L 97.527578 465.671997 
L 95.556637 467.160258 
L 94.603791 468.08708 
L 92.988329 469.621184 
L 91.680005 471.630819 
L 91.340326 472.08211 
L 90.921025 474.543035 
L 91.680005 475.636089 
L 94.532348 477.003961 
L 94.603791 477.020011 
L 97.527578 477.144237 
L 100.451364 477.105618 
L 103.375151 477.272276 
L 106.298938 478.048976 
L 109.222724 479.422761 
L 109.325972 479.464887 
z
M 109.646451 477.003961 
L 109.222724 476.646186 
L 106.298938 475.214174 
L 103.375151 474.87678 
L 100.451364 474.922211 
L 97.527578 474.859743 
L 96.222703 474.543035 
L 94.603791 472.815138 
L 94.381992 472.08211 
L 94.603791 471.706132 
L 95.714367 469.621184 
L 97.527578 467.849203 
L 98.246081 467.160258 
L 100.451364 465.63357 
L 102.000791 464.699332 
L 103.375151 463.959873 
L 106.298938 462.804607 
L 108.536199 462.238406 
L 109.222724 462.061748 
L 112.146511 461.9752 
L 115.070297 462.238406 
L 115.070297 462.238406 
L 115.070297 462.238406 
L 117.994084 462.188703 
L 120.91787 461.684051 
L 123.841657 460.966739 
L 126.765443 460.252855 
L 129.002864 459.77748 
L 129.68923 459.597781 
L 132.613016 458.929993 
L 135.536803 458.515484 
L 138.460589 458.397479 
L 141.384376 458.800936 
L 143.322295 459.77748 
L 144.308162 461.940319 
L 144.396351 462.238406 
L 144.308162 462.476548 
L 143.688434 464.699332 
L 141.971379 467.160258 
L 141.384376 467.706421 
L 139.44498 469.621184 
L 138.460589 470.36939 
L 136.057922 472.08211 
L 135.536803 472.422955 
L 132.613016 474.142088 
L 131.817395 474.543035 
L 129.68923 475.6813 
L 126.765443 476.832383 
L 126.216335 477.003961 
L 123.841657 477.909014 
L 120.91787 478.610355 
L 117.994084 478.980738 
L 115.070297 478.965022 
L 112.146511 478.303154 
z
" clip-path="url(#p14631ca41e)" style="fill: #c1d9ed"/>
    <path d="M 112.146511 478.303154 
L 115.070297 478.965022 
L 117.994084 478.980738 
L 120.91787 478.610355 
L 123.841657 477.909014 
L 126.216335 477.003961 
L 126.765443 476.832383 
L 129.68923 475.6813 
L 131.817395 474.543035 
L 132.613016 474.142088 
L 135.536803 472.422955 
L 136.057922 472.08211 
L 138.460589 470.36939 
L 139.44498 469.621184 
L 141.384376 467.706421 
L 141.971379 467.160258 
L 143.688434 464.699332 
L 144.308162 462.476548 
L 144.396351 462.238406 
L 144.308162 461.940319 
L 143.322295 459.77748 
L 141.384376 458.800936 
L 138.460589 458.397479 
L 135.536803 458.515484 
L 132.613016 458.929993 
L 129.68923 459.597781 
L 129.002864 459.77748 
L 126.765443 460.252855 
L 123.841657 460.966739 
L 120.91787 461.684051 
L 117.994084 462.188703 
L 115.070297 462.238406 
L 115.070297 462.238406 
L 115.070297 462.238406 
L 112.146511 461.9752 
L 109.222724 462.061748 
L 108.536199 462.238406 
L 106.298938 462.804607 
L 103.375151 463.959873 
L 102.000791 464.699332 
L 100.451364 465.63357 
L 98.246081 467.160258 
L 97.527578 467.849203 
L 95.714367 469.621184 
L 94.603791 471.706132 
L 94.381992 472.08211 
L 94.603791 472.815138 
L 96.222703 474.543035 
L 97.527578 474.859743 
L 100.451364 474.922211 
L 103.375151 474.87678 
L 106.298938 475.214174 
L 109.222724 476.646186 
L 109.646451 477.003961 
z
M 112.884522 477.003961 
L 112.146511 476.463952 
L 109.871083 474.543035 
L 109.222724 473.815364 
L 106.298938 472.857786 
L 103.375151 472.857156 
L 100.451364 472.886641 
L 97.607391 472.08211 
L 98.129082 469.621184 
L 100.451364 467.270127 
L 100.571279 467.160258 
L 103.375151 465.6135 
L 105.460639 464.699332 
L 106.298938 464.395083 
L 109.222724 464.059531 
L 112.146511 464.285636 
L 115.070297 464.35104 
L 117.994084 463.859109 
L 120.91787 463.060658 
L 123.841657 462.238406 
L 123.841657 462.238406 
L 126.765443 461.287159 
L 129.68923 460.531743 
L 132.613016 459.975375 
L 134.193322 459.77748 
L 135.536803 459.566091 
L 138.460589 459.547195 
L 139.521571 459.77748 
L 141.384376 460.60856 
L 142.610762 462.238406 
L 142.227801 464.699332 
L 141.384376 465.870219 
L 140.597188 467.160258 
L 138.460589 469.203862 
L 138.043393 469.621184 
L 135.536803 471.485105 
L 134.668358 472.08211 
L 132.613016 473.351614 
L 130.248812 474.543035 
L 129.68923 474.842332 
L 126.765443 476.105419 
L 123.889798 477.003961 
L 123.841657 477.022309 
L 120.91787 477.737162 
L 117.994084 478.013291 
L 115.070297 477.763678 
z
" clip-path="url(#p14631ca41e)" style="fill: #a4cce3"/>
    <path d="M 115.070297 477.763678 
L 117.994084 478.013291 
L 120.91787 477.737162 
L 123.841657 477.022309 
L 123.889798 477.003961 
L 126.765443 476.105419 
L 129.68923 474.842332 
L 130.248812 474.543035 
L 132.613016 473.351614 
L 134.668358 472.08211 
L 135.536803 471.485105 
L 138.043393 469.621184 
L 138.460589 469.203862 
L 140.597188 467.160258 
L 141.384376 465.870219 
L 142.227801 464.699332 
L 142.610762 462.238406 
L 141.384376 460.60856 
L 139.521571 459.77748 
L 138.460589 459.547195 
L 135.536803 459.566091 
L 134.193322 459.77748 
L 132.613016 459.975375 
L 129.68923 460.531743 
L 126.765443 461.287159 
L 123.841657 462.238406 
L 123.841657 462.238406 
L 120.91787 463.060658 
L 117.994084 463.859109 
L 115.070297 464.35104 
L 112.146511 464.285636 
L 109.222724 464.059531 
L 106.298938 464.395083 
L 105.460639 464.699332 
L 103.375151 465.6135 
L 100.571279 467.160258 
L 100.451364 467.270127 
L 98.129082 469.621184 
L 97.607391 472.08211 
L 100.451364 472.886641 
L 103.375151 472.857156 
L 106.298938 472.857786 
L 109.222724 473.815364 
L 109.871083 474.543035 
L 112.146511 476.463952 
L 112.884522 477.003961 
z
M 116.299993 477.003961 
L 115.070297 476.709661 
L 112.247825 474.543035 
L 112.146511 474.276448 
L 110.495278 472.08211 
L 109.222724 470.464174 
L 106.298938 470.36978 
L 103.375151 470.58005 
L 101.039448 469.621184 
L 103.375151 467.160258 
L 103.375151 467.160258 
L 106.298938 466.473761 
L 109.222724 466.660404 
L 112.146511 466.875012 
L 115.070297 466.217124 
L 117.994084 465.18011 
L 119.118831 464.699332 
L 120.91787 464.086965 
L 123.841657 463.02858 
L 126.401474 462.238406 
L 126.765443 462.11999 
L 129.68923 461.238767 
L 132.613016 460.648644 
L 135.536803 460.349117 
L 138.460589 460.574011 
L 141.139496 462.238406 
L 141.071868 464.699332 
L 139.600883 467.160258 
L 138.460589 468.250921 
L 137.090736 469.621184 
L 135.536803 470.776702 
L 133.637864 472.08211 
L 132.613016 472.715118 
L 129.68923 474.227985 
L 128.957708 474.543035 
L 126.765443 475.520062 
L 123.841657 476.42899 
L 121.040928 477.003961 
L 120.91787 477.03406 
L 117.994084 477.234295 
z
" clip-path="url(#p14631ca41e)" style="fill: #87bddc"/>
    <path d="M 117.994084 477.234295 
L 120.91787 477.03406 
L 121.040928 477.003961 
L 123.841657 476.42899 
L 126.765443 475.520062 
L 128.957708 474.543035 
L 129.68923 474.227985 
L 132.613016 472.715118 
L 133.637864 472.08211 
L 135.536803 470.776702 
L 137.090736 469.621184 
L 138.460589 468.250921 
L 139.600883 467.160258 
L 141.071868 464.699332 
L 141.139496 462.238406 
L 138.460589 460.574011 
L 135.536803 460.349117 
L 132.613016 460.648644 
L 129.68923 461.238767 
L 126.765443 462.11999 
L 126.401474 462.238406 
L 123.841657 463.02858 
L 120.91787 464.086965 
L 119.118831 464.699332 
L 117.994084 465.18011 
L 115.070297 466.217124 
L 112.146511 466.875012 
L 109.222724 466.660404 
L 106.298938 466.473761 
L 103.375151 467.160258 
L 103.375151 467.160258 
L 101.039448 469.621184 
L 103.375151 470.58005 
L 106.298938 470.36978 
L 109.222724 470.464174 
L 110.495278 472.08211 
L 112.146511 474.276448 
L 112.247825 474.543035 
L 115.070297 476.709661 
L 116.299993 477.003961 
z
M 114.929869 474.543035 
L 114.073064 472.08211 
L 115.070297 469.621184 
L 115.070297 469.621184 
L 117.896086 467.160258 
L 117.994084 467.115235 
L 120.91787 465.524787 
L 122.660863 464.699332 
L 123.841657 464.214994 
L 126.765443 463.129995 
L 129.68923 462.294188 
L 129.959542 462.238406 
L 132.613016 461.659531 
L 135.536803 461.493321 
L 138.460589 462.165973 
L 138.577173 462.238406 
L 139.413095 464.699332 
L 138.460589 466.439736 
L 138.118039 467.160258 
L 135.660361 469.621184 
L 135.536803 469.713063 
L 132.613016 471.748789 
L 132.083481 472.08211 
L 129.68923 473.378661 
L 126.985642 474.543035 
L 126.765443 474.641171 
L 123.841657 475.542923 
L 120.91787 476.014236 
L 117.994084 475.92065 
L 115.070297 474.650832 
z
" clip-path="url(#p14631ca41e)" style="fill: #65aad4"/>
    <path d="M 115.070297 474.650832 
L 117.994084 475.92065 
L 120.91787 476.014236 
L 123.841657 475.542923 
L 126.765443 474.641171 
L 126.985642 474.543035 
L 129.68923 473.378661 
L 132.083481 472.08211 
L 132.613016 471.748789 
L 135.536803 469.713063 
L 135.660361 469.621184 
L 138.118039 467.160258 
L 138.460589 466.439736 
L 139.413095 464.699332 
L 138.577173 462.238406 
L 138.460589 462.165973 
L 135.536803 461.493321 
L 132.613016 461.659531 
L 129.959542 462.238406 
L 129.68923 462.294188 
L 126.765443 463.129995 
L 123.841657 464.214994 
L 122.660863 464.699332 
L 120.91787 465.524787 
L 117.994084 467.115235 
L 117.896086 467.160258 
L 115.070297 469.621184 
L 115.070297 469.621184 
L 114.073064 472.08211 
L 114.929869 474.543035 
z
M 119.188204 474.543035 
L 117.994084 473.937928 
L 116.861172 472.08211 
L 117.994084 469.667705 
L 118.014009 469.621184 
L 120.91787 467.160258 
L 120.91787 467.160258 
L 123.841657 465.572047 
L 125.779858 464.699332 
L 126.765443 464.30585 
L 129.68923 463.435853 
L 132.613016 462.953806 
L 135.536803 463.226079 
L 137.192907 464.699332 
L 136.397641 467.160258 
L 135.536803 468.022554 
L 133.971465 469.621184 
L 132.613016 470.570088 
L 130.210919 472.08211 
L 129.68923 472.364618 
L 126.765443 473.576176 
L 123.841657 474.470634 
L 123.235073 474.543035 
L 120.91787 474.797883 
z
" clip-path="url(#p14631ca41e)" style="fill: #4191c6"/>
    <path d="M 120.91787 474.797883 
L 123.235073 474.543035 
L 123.841657 474.470634 
L 126.765443 473.576176 
L 129.68923 472.364618 
L 130.210919 472.08211 
L 132.613016 470.570088 
L 133.971465 469.621184 
L 135.536803 468.022554 
L 136.397641 467.160258 
L 137.192907 464.699332 
L 135.536803 463.226079 
L 132.613016 462.953806 
L 129.68923 463.435853 
L 126.765443 464.30585 
L 125.779858 464.699332 
L 123.841657 465.572047 
L 120.91787 467.160258 
L 120.91787 467.160258 
L 118.014009 469.621184 
L 117.994084 469.667705 
L 116.861172 472.08211 
L 117.994084 473.937928 
L 119.188204 474.543035 
z
M 120.446422 472.08211 
L 120.91787 469.944103 
L 120.98498 469.621184 
L 123.841657 467.322544 
L 124.05993 467.160258 
L 126.765443 465.957765 
L 129.68923 465.002046 
L 132.613016 464.699332 
L 133.842661 467.160258 
L 132.613016 468.503471 
L 131.568279 469.621184 
L 129.68923 470.746981 
L 127.106961 472.08211 
L 126.765443 472.221917 
L 123.841657 472.794542 
L 120.91787 472.402716 
z
" clip-path="url(#p14631ca41e)" style="fill: #1f6eb3"/>
    <path d="M 120.91787 472.402716 
L 123.841657 472.794542 
L 126.765443 472.221917 
L 127.106961 472.08211 
L 129.68923 470.746981 
L 131.568279 469.621184 
L 132.613016 468.503471 
L 133.842661 467.160258 
L 132.613016 464.699332 
L 129.68923 465.002046 
L 126.765443 465.957765 
L 124.05993 467.160258 
L 123.841657 467.322544 
L 120.98498 469.621184 
L 120.91787 469.944103 
L 120.446422 472.08211 
z
" clip-path="url(#p14631ca41e)" style="fill: #08458a"/>
   </g>
   <g id="matplotlib.axis_1">
    <g id="xtick_1">
     <g id="line2d_1">
      <defs>
       <path id="me25971aea0" d="M 0 0 
L 0 3.5 
" style="stroke: #000000; stroke-width: 0.8"/>
      </defs>
      <g>
       <use xlink:href="#me25971aea0" x="104.464561" y="499.48" style="stroke: #000000; stroke-width: 0.8"/>
      </g>
     </g>
     <g id="text_1">
      <!-- 0 -->
      <g transform="translate(97.465811 523.196563) scale(0.22 -0.22)">
       <defs>
        <path id="DejaVuSans-30" d="M 2034 4250 
Q 1547 4250 1301 3770 
Q 1056 3291 1056 2328 
Q 1056 1369 1301 889 
Q 1547 409 2034 409 
Q 2525 409 2770 889 
Q 3016 1369 3016 2328 
Q 3016 3291 2770 3770 
Q 2525 4250 2034 4250 
z
M 2034 4750 
Q 2819 4750 3233 4129 
Q 3647 3509 3647 2328 
Q 3647 1150 3233 529 
Q 2819 -91 2034 -91 
Q 1250 -91 836 529 
Q 422 1150 422 2328 
Q 422 3509 836 4129 
Q 1250 4750 2034 4750 
z
" transform="scale(0.015625)"/>
       </defs>
       <use xlink:href="#DejaVuSans-30"/>
      </g>
     </g>
    </g>
    <g id="xtick_2">
     <g id="line2d_2">
      <g>
       <use xlink:href="#me25971aea0" x="189.547249" y="499.48" style="stroke: #000000; stroke-width: 0.8"/>
      </g>
     </g>
     <g id="text_2">
      <!-- 10 -->
      <g transform="translate(175.549749 523.196563) scale(0.22 -0.22)">
       <defs>
        <path id="DejaVuSans-31" d="M 794 531 
L 1825 531 
L 1825 4091 
L 703 3866 
L 703 4441 
L 1819 4666 
L 2450 4666 
L 2450 531 
L 3481 531 
L 3481 0 
L 794 0 
L 794 531 
z
" transform="scale(0.015625)"/>
       </defs>
       <use xlink:href="#DejaVuSans-31"/>
       <use xlink:href="#DejaVuSans-30" x="63.623047"/>
      </g>
     </g>
    </g>
    <g id="xtick_3">
     <g id="line2d_3">
      <g>
       <use xlink:href="#me25971aea0" x="274.629937" y="499.48" style="stroke: #000000; stroke-width: 0.8"/>
      </g>
     </g>
     <g id="text_3">
      <!-- 20 -->
      <g transform="translate(260.632437 523.196563) scale(0.22 -0.22)">
       <defs>
        <path id="DejaVuSans-32" d="M 1228 531 
L 3431 531 
L 3431 0 
L 469 0 
L 469 531 
Q 828 903 1448 1529 
Q 2069 2156 2228 2338 
Q 2531 2678 2651 2914 
Q 2772 3150 2772 3378 
Q 2772 3750 2511 3984 
Q 2250 4219 1831 4219 
Q 1534 4219 1204 4116 
Q 875 4013 500 3803 
L 500 4441 
Q 881 4594 1212 4672 
Q 1544 4750 1819 4750 
Q 2544 4750 2975 4387 
Q 3406 4025 3406 3419 
Q 3406 3131 3298 2873 
Q 3191 2616 2906 2266 
Q 2828 2175 2409 1742 
Q 1991 1309 1228 531 
z
" transform="scale(0.015625)"/>
       </defs>
       <use xlink:href="#DejaVuSans-32"/>
       <use xlink:href="#DejaVuSans-30" x="63.623047"/>
      </g>
     </g>
    </g>
    <g id="xtick_4">
     <g id="line2d_4">
      <g>
       <use xlink:href="#me25971aea0" x="359.712626" y="499.48" style="stroke: #000000; stroke-width: 0.8"/>
      </g>
     </g>
     <g id="text_4">
      <!-- 30 -->
      <g transform="translate(345.715126 523.196563) scale(0.22 -0.22)">
       <defs>
        <path id="DejaVuSans-33" d="M 2597 2516 
Q 3050 2419 3304 2112 
Q 3559 1806 3559 1356 
Q 3559 666 3084 287 
Q 2609 -91 1734 -91 
Q 1441 -91 1130 -33 
Q 819 25 488 141 
L 488 750 
Q 750 597 1062 519 
Q 1375 441 1716 441 
Q 2309 441 2620 675 
Q 2931 909 2931 1356 
Q 2931 1769 2642 2001 
Q 2353 2234 1838 2234 
L 1294 2234 
L 1294 2753 
L 1863 2753 
Q 2328 2753 2575 2939 
Q 2822 3125 2822 3475 
Q 2822 3834 2567 4026 
Q 2313 4219 1838 4219 
Q 1578 4219 1281 4162 
Q 984 4106 628 3988 
L 628 4550 
Q 988 4650 1302 4700 
Q 1616 4750 1894 4750 
Q 2613 4750 3031 4423 
Q 3450 4097 3450 3541 
Q 3450 3153 3228 2886 
Q 3006 2619 2597 2516 
z
" transform="scale(0.015625)"/>
       </defs>
       <use xlink:href="#DejaVuSans-33"/>
       <use xlink:href="#DejaVuSans-30" x="63.623047"/>
      </g>
     </g>
    </g>
    <g id="xtick_5">
     <g id="line2d_5">
      <g>
       <use xlink:href="#me25971aea0" x="444.795314" y="499.48" style="stroke: #000000; stroke-width: 0.8"/>
      </g>
     </g>
     <g id="text_5">
      <!-- 40 -->
      <g transform="translate(430.797814 523.196563) scale(0.22 -0.22)">
       <defs>
        <path id="DejaVuSans-34" d="M 2419 4116 
L 825 1625 
L 2419 1625 
L 2419 4116 
z
M 2253 4666 
L 3047 4666 
L 3047 1625 
L 3713 1625 
L 3713 1100 
L 3047 1100 
L 3047 0 
L 2419 0 
L 2419 1100 
L 313 1100 
L 313 1709 
L 2253 4666 
z
" transform="scale(0.015625)"/>
       </defs>
       <use xlink:href="#DejaVuSans-34"/>
       <use xlink:href="#DejaVuSans-30" x="63.623047"/>
      </g>
     </g>
    </g>
    <g id="xtick_6">
     <g id="line2d_6">
      <g>
       <use xlink:href="#me25971aea0" x="529.878002" y="499.48" style="stroke: #000000; stroke-width: 0.8"/>
      </g>
     </g>
     <g id="text_6">
      <!-- 50 -->
      <g transform="translate(515.880502 523.196563) scale(0.22 -0.22)">
       <defs>
        <path id="DejaVuSans-35" d="M 691 4666 
L 3169 4666 
L 3169 4134 
L 1269 4134 
L 1269 2991 
Q 1406 3038 1543 3061 
Q 1681 3084 1819 3084 
Q 2600 3084 3056 2656 
Q 3513 2228 3513 1497 
Q 3513 744 3044 326 
Q 2575 -91 1722 -91 
Q 1428 -91 1123 -41 
Q 819 9 494 109 
L 494 744 
Q 775 591 1075 516 
Q 1375 441 1709 441 
Q 2250 441 2565 725 
Q 2881 1009 2881 1497 
Q 2881 1984 2565 2268 
Q 2250 2553 1709 2553 
Q 1456 2553 1204 2497 
Q 953 2441 691 2322 
L 691 4666 
z
" transform="scale(0.015625)"/>
       </defs>
       <use xlink:href="#DejaVuSans-35"/>
       <use xlink:href="#DejaVuSans-30" x="63.623047"/>
      </g>
     </g>
    </g>
    <g id="xtick_7">
     <g id="line2d_7">
      <g>
       <use xlink:href="#me25971aea0" x="614.960691" y="499.48" style="stroke: #000000; stroke-width: 0.8"/>
      </g>
     </g>
     <g id="text_7">
      <!-- 60 -->
      <g transform="translate(600.963191 523.196563) scale(0.22 -0.22)">
       <defs>
        <path id="DejaVuSans-36" d="M 2113 2584 
Q 1688 2584 1439 2293 
Q 1191 2003 1191 1497 
Q 1191 994 1439 701 
Q 1688 409 2113 409 
Q 2538 409 2786 701 
Q 3034 994 3034 1497 
Q 3034 2003 2786 2293 
Q 2538 2584 2113 2584 
z
M 3366 4563 
L 3366 3988 
Q 3128 4100 2886 4159 
Q 2644 4219 2406 4219 
Q 1781 4219 1451 3797 
Q 1122 3375 1075 2522 
Q 1259 2794 1537 2939 
Q 1816 3084 2150 3084 
Q 2853 3084 3261 2657 
Q 3669 2231 3669 1497 
Q 3669 778 3244 343 
Q 2819 -91 2113 -91 
Q 1303 -91 875 529 
Q 447 1150 447 2328 
Q 447 3434 972 4092 
Q 1497 4750 2381 4750 
Q 2619 4750 2861 4703 
Q 3103 4656 3366 4563 
z
" transform="scale(0.015625)"/>
       </defs>
       <use xlink:href="#DejaVuSans-36"/>
       <use xlink:href="#DejaVuSans-30" x="63.623047"/>
      </g>
     </g>
    </g>
    <g id="text_8">
     <!-- Force Uncertainties -->
     <g transform="translate(283.426094 548.488438) scale(0.22 -0.22)">
      <defs>
       <path id="DejaVuSans-46" d="M 628 4666 
L 3309 4666 
L 3309 4134 
L 1259 4134 
L 1259 2759 
L 3109 2759 
L 3109 2228 
L 1259 2228 
L 1259 0 
L 628 0 
L 628 4666 
z
" transform="scale(0.015625)"/>
       <path id="DejaVuSans-6f" d="M 1959 3097 
Q 1497 3097 1228 2736 
Q 959 2375 959 1747 
Q 959 1119 1226 758 
Q 1494 397 1959 397 
Q 2419 397 2687 759 
Q 2956 1122 2956 1747 
Q 2956 2369 2687 2733 
Q 2419 3097 1959 3097 
z
M 1959 3584 
Q 2709 3584 3137 3096 
Q 3566 2609 3566 1747 
Q 3566 888 3137 398 
Q 2709 -91 1959 -91 
Q 1206 -91 779 398 
Q 353 888 353 1747 
Q 353 2609 779 3096 
Q 1206 3584 1959 3584 
z
" transform="scale(0.015625)"/>
       <path id="DejaVuSans-72" d="M 2631 2963 
Q 2534 3019 2420 3045 
Q 2306 3072 2169 3072 
Q 1681 3072 1420 2755 
Q 1159 2438 1159 1844 
L 1159 0 
L 581 0 
L 581 3500 
L 1159 3500 
L 1159 2956 
Q 1341 3275 1631 3429 
Q 1922 3584 2338 3584 
Q 2397 3584 2469 3576 
Q 2541 3569 2628 3553 
L 2631 2963 
z
" transform="scale(0.015625)"/>
       <path id="DejaVuSans-63" d="M 3122 3366 
L 3122 2828 
Q 2878 2963 2633 3030 
Q 2388 3097 2138 3097 
Q 1578 3097 1268 2742 
Q 959 2388 959 1747 
Q 959 1106 1268 751 
Q 1578 397 2138 397 
Q 2388 397 2633 464 
Q 2878 531 3122 666 
L 3122 134 
Q 2881 22 2623 -34 
Q 2366 -91 2075 -91 
Q 1284 -91 818 406 
Q 353 903 353 1747 
Q 353 2603 823 3093 
Q 1294 3584 2113 3584 
Q 2378 3584 2631 3529 
Q 2884 3475 3122 3366 
z
" transform="scale(0.015625)"/>
       <path id="DejaVuSans-65" d="M 3597 1894 
L 3597 1613 
L 953 1613 
Q 991 1019 1311 708 
Q 1631 397 2203 397 
Q 2534 397 2845 478 
Q 3156 559 3463 722 
L 3463 178 
Q 3153 47 2828 -22 
Q 2503 -91 2169 -91 
Q 1331 -91 842 396 
Q 353 884 353 1716 
Q 353 2575 817 3079 
Q 1281 3584 2069 3584 
Q 2775 3584 3186 3129 
Q 3597 2675 3597 1894 
z
M 3022 2063 
Q 3016 2534 2758 2815 
Q 2500 3097 2075 3097 
Q 1594 3097 1305 2825 
Q 1016 2553 972 2059 
L 3022 2063 
z
" transform="scale(0.015625)"/>
       <path id="DejaVuSans-20" transform="scale(0.015625)"/>
       <path id="DejaVuSans-55" d="M 556 4666 
L 1191 4666 
L 1191 1831 
Q 1191 1081 1462 751 
Q 1734 422 2344 422 
Q 2950 422 3222 751 
Q 3494 1081 3494 1831 
L 3494 4666 
L 4128 4666 
L 4128 1753 
Q 4128 841 3676 375 
Q 3225 -91 2344 -91 
Q 1459 -91 1007 375 
Q 556 841 556 1753 
L 556 4666 
z
" transform="scale(0.015625)"/>
       <path id="DejaVuSans-6e" d="M 3513 2113 
L 3513 0 
L 2938 0 
L 2938 2094 
Q 2938 2591 2744 2837 
Q 2550 3084 2163 3084 
Q 1697 3084 1428 2787 
Q 1159 2491 1159 1978 
L 1159 0 
L 581 0 
L 581 3500 
L 1159 3500 
L 1159 2956 
Q 1366 3272 1645 3428 
Q 1925 3584 2291 3584 
Q 2894 3584 3203 3211 
Q 3513 2838 3513 2113 
z
" transform="scale(0.015625)"/>
       <path id="DejaVuSans-74" d="M 1172 4494 
L 1172 3500 
L 2356 3500 
L 2356 3053 
L 1172 3053 
L 1172 1153 
Q 1172 725 1289 603 
Q 1406 481 1766 481 
L 2356 481 
L 2356 0 
L 1766 0 
Q 1100 0 847 248 
Q 594 497 594 1153 
L 594 3053 
L 172 3053 
L 172 3500 
L 594 3500 
L 594 4494 
L 1172 4494 
z
" transform="scale(0.015625)"/>
       <path id="DejaVuSans-61" d="M 2194 1759 
Q 1497 1759 1228 1600 
Q 959 1441 959 1056 
Q 959 750 1161 570 
Q 1363 391 1709 391 
Q 2188 391 2477 730 
Q 2766 1069 2766 1631 
L 2766 1759 
L 2194 1759 
z
M 3341 1997 
L 3341 0 
L 2766 0 
L 2766 531 
Q 2569 213 2275 61 
Q 1981 -91 1556 -91 
Q 1019 -91 701 211 
Q 384 513 384 1019 
Q 384 1609 779 1909 
Q 1175 2209 1959 2209 
L 2766 2209 
L 2766 2266 
Q 2766 2663 2505 2880 
Q 2244 3097 1772 3097 
Q 1472 3097 1187 3025 
Q 903 2953 641 2809 
L 641 3341 
Q 956 3463 1253 3523 
Q 1550 3584 1831 3584 
Q 2591 3584 2966 3190 
Q 3341 2797 3341 1997 
z
" transform="scale(0.015625)"/>
       <path id="DejaVuSans-69" d="M 603 3500 
L 1178 3500 
L 1178 0 
L 603 0 
L 603 3500 
z
M 603 4863 
L 1178 4863 
L 1178 4134 
L 603 4134 
L 603 4863 
z
" transform="scale(0.015625)"/>
       <path id="DejaVuSans-73" d="M 2834 3397 
L 2834 2853 
Q 2591 2978 2328 3040 
Q 2066 3103 1784 3103 
Q 1356 3103 1142 2972 
Q 928 2841 928 2578 
Q 928 2378 1081 2264 
Q 1234 2150 1697 2047 
L 1894 2003 
Q 2506 1872 2764 1633 
Q 3022 1394 3022 966 
Q 3022 478 2636 193 
Q 2250 -91 1575 -91 
Q 1294 -91 989 -36 
Q 684 19 347 128 
L 347 722 
Q 666 556 975 473 
Q 1284 391 1588 391 
Q 1994 391 2212 530 
Q 2431 669 2431 922 
Q 2431 1156 2273 1281 
Q 2116 1406 1581 1522 
L 1381 1569 
Q 847 1681 609 1914 
Q 372 2147 372 2553 
Q 372 3047 722 3315 
Q 1072 3584 1716 3584 
Q 2034 3584 2315 3537 
Q 2597 3491 2834 3397 
z
" transform="scale(0.015625)"/>
      </defs>
      <use xlink:href="#DejaVuSans-46"/>
      <use xlink:href="#DejaVuSans-6f" x="53.894531"/>
      <use xlink:href="#DejaVuSans-72" x="115.076172"/>
      <use xlink:href="#DejaVuSans-63" x="153.939453"/>
      <use xlink:href="#DejaVuSans-65" x="208.919922"/>
      <use xlink:href="#DejaVuSans-20" x="270.443359"/>
      <use xlink:href="#DejaVuSans-55" x="302.230469"/>
      <use xlink:href="#DejaVuSans-6e" x="375.423828"/>
      <use xlink:href="#DejaVuSans-63" x="438.802734"/>
      <use xlink:href="#DejaVuSans-65" x="493.783203"/>
      <use xlink:href="#DejaVuSans-72" x="555.306641"/>
      <use xlink:href="#DejaVuSans-74" x="596.419922"/>
      <use xlink:href="#DejaVuSans-61" x="635.628906"/>
      <use xlink:href="#DejaVuSans-69" x="696.908203"/>
      <use xlink:href="#DejaVuSans-6e" x="724.691406"/>
      <use xlink:href="#DejaVuSans-74" x="788.070312"/>
      <use xlink:href="#DejaVuSans-69" x="827.279297"/>
      <use xlink:href="#DejaVuSans-65" x="855.0625"/>
      <use xlink:href="#DejaVuSans-73" x="916.585938"/>
     </g>
    </g>
   </g>
   <g id="matplotlib.axis_2">
    <g id="ytick_1">
     <g id="line2d_8">
      <defs>
       <path id="m08876afeba" d="M 0 0 
L -3.5 0 
" style="stroke: #000000; stroke-width: 0.8"/>
      </defs>
      <g>
       <use xlink:href="#m08876afeba" x="83.72" y="483.368522" style="stroke: #000000; stroke-width: 0.8"/>
      </g>
     </g>
     <g id="text_9">
      <!-- 0 -->
      <g transform="translate(62.7225 491.726803) scale(0.22 -0.22)">
       <use xlink:href="#DejaVuSans-30"/>
      </g>
     </g>
    </g>
    <g id="ytick_2">
     <g id="line2d_9">
      <g>
       <use xlink:href="#m08876afeba" x="83.72" y="417.288171" style="stroke: #000000; stroke-width: 0.8"/>
      </g>
     </g>
     <g id="text_10">
      <!-- 10 -->
      <g transform="translate(48.725 425.646452) scale(0.22 -0.22)">
       <use xlink:href="#DejaVuSans-31"/>
       <use xlink:href="#DejaVuSans-30" x="63.623047"/>
      </g>
     </g>
    </g>
    <g id="ytick_3">
     <g id="line2d_10">
      <g>
       <use xlink:href="#m08876afeba" x="83.72" y="351.20782" style="stroke: #000000; stroke-width: 0.8"/>
      </g>
     </g>
     <g id="text_11">
      <!-- 20 -->
      <g transform="translate(48.725 359.566102) scale(0.22 -0.22)">
       <use xlink:href="#DejaVuSans-32"/>
       <use xlink:href="#DejaVuSans-30" x="63.623047"/>
      </g>
     </g>
    </g>
    <g id="ytick_4">
     <g id="line2d_11">
      <g>
       <use xlink:href="#m08876afeba" x="83.72" y="285.12747" style="stroke: #000000; stroke-width: 0.8"/>
      </g>
     </g>
     <g id="text_12">
      <!-- 30 -->
      <g transform="translate(48.725 293.485751) scale(0.22 -0.22)">
       <use xlink:href="#DejaVuSans-33"/>
       <use xlink:href="#DejaVuSans-30" x="63.623047"/>
      </g>
     </g>
    </g>
    <g id="ytick_5">
     <g id="line2d_12">
      <g>
       <use xlink:href="#m08876afeba" x="83.72" y="219.047119" style="stroke: #000000; stroke-width: 0.8"/>
      </g>
     </g>
     <g id="text_13">
      <!-- 40 -->
      <g transform="translate(48.725 227.4054) scale(0.22 -0.22)">
       <use xlink:href="#DejaVuSans-34"/>
       <use xlink:href="#DejaVuSans-30" x="63.623047"/>
      </g>
     </g>
    </g>
    <g id="ytick_6">
     <g id="line2d_13">
      <g>
       <use xlink:href="#m08876afeba" x="83.72" y="152.966768" style="stroke: #000000; stroke-width: 0.8"/>
      </g>
     </g>
     <g id="text_14">
      <!-- 50 -->
      <g transform="translate(48.725 161.325049) scale(0.22 -0.22)">
       <use xlink:href="#DejaVuSans-35"/>
       <use xlink:href="#DejaVuSans-30" x="63.623047"/>
      </g>
     </g>
    </g>
    <g id="ytick_7">
     <g id="line2d_14">
      <g>
       <use xlink:href="#m08876afeba" x="83.72" y="86.886417" style="stroke: #000000; stroke-width: 0.8"/>
      </g>
     </g>
     <g id="text_15">
      <!-- 60 -->
      <g transform="translate(48.725 95.244698) scale(0.22 -0.22)">
       <use xlink:href="#DejaVuSans-36"/>
       <use xlink:href="#DejaVuSans-30" x="63.623047"/>
      </g>
     </g>
    </g>
    <g id="text_16">
     <!-- Force Errors [kJ/(mol*A)] -->
     <g transform="translate(40.149688 394.9125) rotate(-90) scale(0.22 -0.22)">
      <defs>
       <path id="DejaVuSans-45" d="M 628 4666 
L 3578 4666 
L 3578 4134 
L 1259 4134 
L 1259 2753 
L 3481 2753 
L 3481 2222 
L 1259 2222 
L 1259 531 
L 3634 531 
L 3634 0 
L 628 0 
L 628 4666 
z
" transform="scale(0.015625)"/>
       <path id="DejaVuSans-5b" d="M 550 4863 
L 1875 4863 
L 1875 4416 
L 1125 4416 
L 1125 -397 
L 1875 -397 
L 1875 -844 
L 550 -844 
L 550 4863 
z
" transform="scale(0.015625)"/>
       <path id="DejaVuSans-6b" d="M 581 4863 
L 1159 4863 
L 1159 1991 
L 2875 3500 
L 3609 3500 
L 1753 1863 
L 3688 0 
L 2938 0 
L 1159 1709 
L 1159 0 
L 581 0 
L 581 4863 
z
" transform="scale(0.015625)"/>
       <path id="DejaVuSans-4a" d="M 628 4666 
L 1259 4666 
L 1259 325 
Q 1259 -519 939 -900 
Q 619 -1281 -91 -1281 
L -331 -1281 
L -331 -750 
L -134 -750 
Q 284 -750 456 -515 
Q 628 -281 628 325 
L 628 4666 
z
" transform="scale(0.015625)"/>
       <path id="DejaVuSans-2f" d="M 1625 4666 
L 2156 4666 
L 531 -594 
L 0 -594 
L 1625 4666 
z
" transform="scale(0.015625)"/>
       <path id="DejaVuSans-28" d="M 1984 4856 
Q 1566 4138 1362 3434 
Q 1159 2731 1159 2009 
Q 1159 1288 1364 580 
Q 1569 -128 1984 -844 
L 1484 -844 
Q 1016 -109 783 600 
Q 550 1309 550 2009 
Q 550 2706 781 3412 
Q 1013 4119 1484 4856 
L 1984 4856 
z
" transform="scale(0.015625)"/>
       <path id="DejaVuSans-6d" d="M 3328 2828 
Q 3544 3216 3844 3400 
Q 4144 3584 4550 3584 
Q 5097 3584 5394 3201 
Q 5691 2819 5691 2113 
L 5691 0 
L 5113 0 
L 5113 2094 
Q 5113 2597 4934 2840 
Q 4756 3084 4391 3084 
Q 3944 3084 3684 2787 
Q 3425 2491 3425 1978 
L 3425 0 
L 2847 0 
L 2847 2094 
Q 2847 2600 2669 2842 
Q 2491 3084 2119 3084 
Q 1678 3084 1418 2786 
Q 1159 2488 1159 1978 
L 1159 0 
L 581 0 
L 581 3500 
L 1159 3500 
L 1159 2956 
Q 1356 3278 1631 3431 
Q 1906 3584 2284 3584 
Q 2666 3584 2933 3390 
Q 3200 3197 3328 2828 
z
" transform="scale(0.015625)"/>
       <path id="DejaVuSans-6c" d="M 603 4863 
L 1178 4863 
L 1178 0 
L 603 0 
L 603 4863 
z
" transform="scale(0.015625)"/>
       <path id="DejaVuSans-2a" d="M 3009 3897 
L 1888 3291 
L 3009 2681 
L 2828 2375 
L 1778 3009 
L 1778 1831 
L 1422 1831 
L 1422 3009 
L 372 2375 
L 191 2681 
L 1313 3291 
L 191 3897 
L 372 4206 
L 1422 3572 
L 1422 4750 
L 1778 4750 
L 1778 3572 
L 2828 4206 
L 3009 3897 
z
" transform="scale(0.015625)"/>
       <path id="DejaVuSans-41" d="M 2188 4044 
L 1331 1722 
L 3047 1722 
L 2188 4044 
z
M 1831 4666 
L 2547 4666 
L 4325 0 
L 3669 0 
L 3244 1197 
L 1141 1197 
L 716 0 
L 50 0 
L 1831 4666 
z
" transform="scale(0.015625)"/>
       <path id="DejaVuSans-29" d="M 513 4856 
L 1013 4856 
Q 1481 4119 1714 3412 
Q 1947 2706 1947 2009 
Q 1947 1309 1714 600 
Q 1481 -109 1013 -844 
L 513 -844 
Q 928 -128 1133 580 
Q 1338 1288 1338 2009 
Q 1338 2731 1133 3434 
Q 928 4138 513 4856 
z
" transform="scale(0.015625)"/>
       <path id="DejaVuSans-5d" d="M 1947 4863 
L 1947 -844 
L 622 -844 
L 622 -397 
L 1369 -397 
L 1369 4416 
L 622 4416 
L 622 4863 
L 1947 4863 
z
" transform="scale(0.015625)"/>
      </defs>
      <use xlink:href="#DejaVuSans-46"/>
      <use xlink:href="#DejaVuSans-6f" x="53.894531"/>
      <use xlink:href="#DejaVuSans-72" x="115.076172"/>
      <use xlink:href="#DejaVuSans-63" x="153.939453"/>
      <use xlink:href="#DejaVuSans-65" x="208.919922"/>
      <use xlink:href="#DejaVuSans-20" x="270.443359"/>
      <use xlink:href="#DejaVuSans-45" x="302.230469"/>
      <use xlink:href="#DejaVuSans-72" x="365.414062"/>
      <use xlink:href="#DejaVuSans-72" x="404.777344"/>
      <use xlink:href="#DejaVuSans-6f" x="443.640625"/>
      <use xlink:href="#DejaVuSans-72" x="504.822266"/>
      <use xlink:href="#DejaVuSans-73" x="545.935547"/>
      <use xlink:href="#DejaVuSans-20" x="598.035156"/>
      <use xlink:href="#DejaVuSans-5b" x="629.822266"/>
      <use xlink:href="#DejaVuSans-6b" x="668.835938"/>
      <use xlink:href="#DejaVuSans-4a" x="726.746094"/>
      <use xlink:href="#DejaVuSans-2f" x="756.238281"/>
      <use xlink:href="#DejaVuSans-28" x="789.929688"/>
      <use xlink:href="#DejaVuSans-6d" x="828.943359"/>
      <use xlink:href="#DejaVuSans-6f" x="926.355469"/>
      <use xlink:href="#DejaVuSans-6c" x="987.537109"/>
      <use xlink:href="#DejaVuSans-2a" x="1015.320312"/>
      <use xlink:href="#DejaVuSans-41" x="1065.320312"/>
      <use xlink:href="#DejaVuSans-29" x="1133.728516"/>
      <use xlink:href="#DejaVuSans-5d" x="1172.742188"/>
     </g>
    </g>
   </g>
   <g id="line2d_15">
    <path d="M 83.72 499.48 
L 696.24 23.76 
" clip-path="url(#p14631ca41e)" style="fill: none; stroke-dasharray: 5.55,2.4; stroke-dashoffset: 0; stroke: #ff0000; stroke-width: 1.5"/>
   </g>
   <g id="patch_3">
    <path d="M 83.72 499.48 
L 83.72 23.76 
" style="fill: none; stroke: #000000; stroke-width: 0.8; stroke-linejoin: miter; stroke-linecap: square"/>
   </g>
   <g id="patch_4">
    <path d="M 696.24 499.48 
L 696.24 23.76 
" style="fill: none; stroke: #000000; stroke-width: 0.8; stroke-linejoin: miter; stroke-linecap: square"/>
   </g>
   <g id="patch_5">
    <path d="M 83.72 499.48 
L 696.24 499.48 
" style="fill: none; stroke: #000000; stroke-width: 0.8; stroke-linejoin: miter; stroke-linecap: square"/>
   </g>
   <g id="patch_6">
    <path d="M 83.72 23.76 
L 696.24 23.76 
" style="fill: none; stroke: #000000; stroke-width: 0.8; stroke-linejoin: miter; stroke-linecap: square"/>
   </g>
   <g id="text_17">
    <!-- Correlation in: 0.855 -->
    <g transform="translate(144.972 71.332) scale(0.22 -0.22)">
     <defs>
      <path id="DejaVuSans-43" d="M 4122 4306 
L 4122 3641 
Q 3803 3938 3442 4084 
Q 3081 4231 2675 4231 
Q 1875 4231 1450 3742 
Q 1025 3253 1025 2328 
Q 1025 1406 1450 917 
Q 1875 428 2675 428 
Q 3081 428 3442 575 
Q 3803 722 4122 1019 
L 4122 359 
Q 3791 134 3420 21 
Q 3050 -91 2638 -91 
Q 1578 -91 968 557 
Q 359 1206 359 2328 
Q 359 3453 968 4101 
Q 1578 4750 2638 4750 
Q 3056 4750 3426 4639 
Q 3797 4528 4122 4306 
z
" transform="scale(0.015625)"/>
      <path id="DejaVuSans-3a" d="M 750 794 
L 1409 794 
L 1409 0 
L 750 0 
L 750 794 
z
M 750 3309 
L 1409 3309 
L 1409 2516 
L 750 2516 
L 750 3309 
z
" transform="scale(0.015625)"/>
      <path id="DejaVuSans-2e" d="M 684 794 
L 1344 794 
L 1344 0 
L 684 0 
L 684 794 
z
" transform="scale(0.015625)"/>
      <path id="DejaVuSans-38" d="M 2034 2216 
Q 1584 2216 1326 1975 
Q 1069 1734 1069 1313 
Q 1069 891 1326 650 
Q 1584 409 2034 409 
Q 2484 409 2743 651 
Q 3003 894 3003 1313 
Q 3003 1734 2745 1975 
Q 2488 2216 2034 2216 
z
M 1403 2484 
Q 997 2584 770 2862 
Q 544 3141 544 3541 
Q 544 4100 942 4425 
Q 1341 4750 2034 4750 
Q 2731 4750 3128 4425 
Q 3525 4100 3525 3541 
Q 3525 3141 3298 2862 
Q 3072 2584 2669 2484 
Q 3125 2378 3379 2068 
Q 3634 1759 3634 1313 
Q 3634 634 3220 271 
Q 2806 -91 2034 -91 
Q 1263 -91 848 271 
Q 434 634 434 1313 
Q 434 1759 690 2068 
Q 947 2378 1403 2484 
z
M 1172 3481 
Q 1172 3119 1398 2916 
Q 1625 2713 2034 2713 
Q 2441 2713 2670 2916 
Q 2900 3119 2900 3481 
Q 2900 3844 2670 4047 
Q 2441 4250 2034 4250 
Q 1625 4250 1398 4047 
Q 1172 3844 1172 3481 
z
" transform="scale(0.015625)"/>
     </defs>
     <use xlink:href="#DejaVuSans-43"/>
     <use xlink:href="#DejaVuSans-6f" x="69.824219"/>
     <use xlink:href="#DejaVuSans-72" x="131.005859"/>
     <use xlink:href="#DejaVuSans-72" x="170.369141"/>
     <use xlink:href="#DejaVuSans-65" x="209.232422"/>
     <use xlink:href="#DejaVuSans-6c" x="270.755859"/>
     <use xlink:href="#DejaVuSans-61" x="298.539062"/>
     <use xlink:href="#DejaVuSans-74" x="359.818359"/>
     <use xlink:href="#DejaVuSans-69" x="399.027344"/>
     <use xlink:href="#DejaVuSans-6f" x="426.810547"/>
     <use xlink:href="#DejaVuSans-6e" x="487.992188"/>
     <use xlink:href="#DejaVuSans-20" x="551.371094"/>
     <use xlink:href="#DejaVuSans-69" x="583.158203"/>
     <use xlink:href="#DejaVuSans-6e" x="610.941406"/>
     <use xlink:href="#DejaVuSans-3a" x="674.320312"/>
     <use xlink:href="#DejaVuSans-20" x="708.011719"/>
     <use xlink:href="#DejaVuSans-30" x="739.798828"/>
     <use xlink:href="#DejaVuSans-2e" x="803.421875"/>
     <use xlink:href="#DejaVuSans-38" x="835.208984"/>
     <use xlink:href="#DejaVuSans-35" x="898.832031"/>
     <use xlink:href="#DejaVuSans-35" x="962.455078"/>
    </g>
   </g>
  </g>
 </g>
 <defs>
  <clipPath id="p14631ca41e">
   <rect x="83.72" y="23.76" width="612.52" height="475.72"/>
  </clipPath>
 </defs>
</svg>
