<?xml version="1.0" encoding="utf-8" standalone="no"?>
<!DOCTYPE svg PUBLIC "-//W3C//DTD SVG 1.1//EN"
  "http://www.w3.org/Graphics/SVG/1.1/DTD/svg11.dtd">
<svg xmlns:xlink="http://www.w3.org/1999/xlink" width="720pt" height="576pt" viewBox="0 0 720 576" xmlns="http://www.w3.org/2000/svg" version="1.1">
 <metadata>
  <rdf:RDF xmlns:dc="http://purl.org/dc/elements/1.1/" xmlns:cc="http://creativecommons.org/ns#" xmlns:rdf="http://www.w3.org/1999/02/22-rdf-syntax-ns#">
   <cc:Work>
    <dc:type rdf:resource="http://purl.org/dc/dcmitype/StillImage"/>
    <dc:date>2024-12-07T23:38:12.587758</dc:date>
    <dc:format>image/svg+xml</dc:format>
    <dc:creator>
     <cc:Agent>
      <dc:title>Matplotlib v3.8.4, https://matplotlib.org/</dc:title>
     </cc:Agent>
    </dc:creator>
   </cc:Work>
  </rdf:RDF>
 </metadata>
 <defs>
  <style type="text/css">*{stroke-linejoin: round; stroke-linecap: butt}</style>
 </defs>
 <g id="figure_1">
  <g id="patch_1">
   <path d="M 0 576 
L 720 576 
L 720 0 
L 0 0 
z
" style="fill: #ffffff"/>
  </g>
  <g id="axes_1">
   <g id="patch_2">
    <path d="M 97.76 499.48 
L 696.24 499.48 
L 696.24 23.76 
L 97.76 23.76 
z
" style="fill: #ffffff"/>
   </g>
   <g id="QuadContourSet_1">
    <path d="M 111.659701 490.505929 
L 112.821596 490.498959 
L 113.471049 490.417903 
L 113.983491 490.38243 
L 115.145386 490.215995 
L 116.307281 489.940136 
L 117.469176 489.54327 
L 118.572268 489.05973 
L 118.63107 489.04314 
L 119.792965 488.705932 
L 120.95486 488.332759 
L 122.116755 487.948371 
L 122.901503 487.701556 
L 123.27865 487.624638 
L 124.440545 487.405454 
L 125.602439 487.173433 
L 126.764334 486.910033 
L 127.926229 486.595052 
L 128.726105 486.343382 
L 129.088124 486.260727 
L 130.250019 485.978801 
L 131.411913 485.685658 
L 132.573808 485.424971 
L 133.735703 485.238025 
L 134.897598 485.127771 
L 136.059493 485.042186 
L 136.554529 484.985209 
L 137.221388 484.929616 
L 138.383282 484.765633 
L 139.545177 484.523522 
L 140.707072 484.205121 
L 141.868967 483.82258 
L 142.451655 483.627035 
L 143.030862 483.462755 
L 144.192757 483.140865 
L 145.354651 482.803982 
L 146.516546 482.439433 
L 147.008657 482.268861 
L 147.678441 482.041282 
L 148.840336 481.580366 
L 150.002231 481.039533 
L 150.254563 480.910687 
L 151.164125 480.378889 
L 152.32602 479.632951 
L 152.446093 479.552514 
L 153.487915 478.585089 
L 153.916688 478.19434 
L 154.648729 476.836166 
L 154.466637 475.477993 
L 153.487915 474.119819 
L 153.487915 474.119819 
L 152.471463 472.761645 
L 152.32602 472.580702 
L 151.398199 471.403472 
L 151.164125 471.143009 
L 150.002231 470.208941 
L 149.627156 470.045298 
L 148.840336 469.747109 
L 147.678441 469.571399 
L 146.516546 469.532685 
L 145.354651 469.517946 
L 144.192757 469.435814 
L 143.030862 469.239782 
L 141.868967 468.965572 
L 140.707072 468.695495 
L 140.666998 468.687124 
L 139.545177 468.440279 
L 138.383282 468.219172 
L 137.221388 468.004678 
L 136.059493 467.78708 
L 134.897598 467.579939 
L 133.735703 467.401873 
L 133.168771 467.32895 
L 132.573808 467.227137 
L 131.411913 467.061632 
L 130.250019 466.920937 
L 129.088124 466.757172 
L 127.926229 466.486379 
L 126.764334 466.021202 
L 126.683132 465.970777 
L 125.602439 464.992987 
L 125.195038 464.612603 
L 124.440545 463.789616 
L 123.771471 463.254429 
L 123.27865 462.856985 
L 122.116755 462.259173 
L 120.95486 461.95499 
L 120.480286 461.896256 
L 119.792965 461.787884 
L 118.63107 461.752154 
L 117.469176 461.84201 
L 117.167555 461.896256 
L 116.307281 462.010537 
L 115.145386 462.272188 
L 113.983491 462.682158 
L 112.915636 463.254429 
L 112.821596 463.299119 
L 111.659701 464.033826 
L 110.996428 464.612603 
L 110.497807 465.064452 
L 109.695209 465.970777 
L 109.335912 466.420772 
L 108.691485 467.32895 
L 108.174017 468.147863 
L 107.844111 468.687124 
L 107.062927 470.045298 
L 107.012122 470.123506 
L 106.180383 471.403472 
L 105.850227 471.967167 
L 105.344199 472.761645 
L 104.688333 474.039448 
L 104.63911 474.119819 
L 103.858803 475.477993 
L 103.526438 476.368153 
L 103.283126 476.836166 
L 102.764985 478.19434 
L 102.475779 479.552514 
L 102.364543 480.612181 
L 102.308179 480.910687 
L 102.28361 482.268861 
L 102.364543 482.789931 
L 102.450005 483.627035 
L 102.792083 484.985209 
L 103.5032 486.343382 
L 103.526438 486.377847 
L 104.51179 487.701556 
L 104.688333 487.887276 
L 105.850227 488.846645 
L 106.256807 489.05973 
L 107.012122 489.527196 
L 108.174017 489.986922 
L 109.335912 490.250582 
L 110.497807 490.39656 
L 110.872828 490.417903 
z
M 109.299995 487.701556 
L 108.174017 487.352362 
L 107.012122 486.653708 
L 106.653224 486.343382 
L 105.850227 485.504686 
L 105.461824 484.985209 
L 104.812503 483.627035 
L 104.688333 483.120871 
L 104.441509 482.268861 
L 104.313697 480.910687 
L 104.421823 479.552514 
L 104.688333 478.514543 
L 104.743024 478.19434 
L 105.143126 476.836166 
L 105.830642 475.477993 
L 105.850227 475.445421 
L 106.529962 474.119819 
L 107.012122 473.41278 
L 107.436738 472.761645 
L 108.174017 471.7869 
L 108.484099 471.403472 
L 109.335912 470.371897 
L 109.657287 470.045298 
L 110.497807 469.109706 
L 111.000539 468.687124 
L 111.659701 468.026948 
L 112.683052 467.32895 
L 112.821596 467.211368 
L 113.983491 466.444553 
L 115.145386 466.00382 
L 115.27608 465.970777 
L 116.307281 465.586565 
L 117.469176 465.355525 
L 118.63107 465.296672 
L 119.792965 465.419302 
L 120.95486 465.785513 
L 121.296339 465.970777 
L 122.116755 466.34825 
L 123.27865 467.238016 
L 123.381258 467.32895 
L 124.440545 468.159796 
L 125.146809 468.687124 
L 125.602439 468.962277 
L 126.764334 469.44495 
L 127.926229 469.760115 
L 129.088124 469.996525 
L 129.326936 470.045298 
L 130.250019 470.214096 
L 131.411913 470.520014 
L 132.573808 470.988151 
L 133.344202 471.403472 
L 133.735703 471.697155 
L 134.897598 472.718624 
L 134.948171 472.761645 
L 135.914082 474.119819 
L 136.059493 474.511302 
L 136.628524 475.477993 
L 137.221388 476.69436 
L 137.453004 476.836166 
L 138.383282 477.698233 
L 139.545177 477.774626 
L 140.707072 478.19434 
L 139.545177 478.495566 
L 138.383282 478.579632 
L 137.221388 478.765854 
L 136.059493 479.325406 
L 135.798149 479.552514 
L 134.897598 479.899416 
L 133.735703 480.548807 
L 133.192573 480.910687 
L 132.573808 481.216508 
L 131.411913 481.848453 
L 130.587246 482.268861 
L 130.250019 482.429881 
L 129.088124 482.970082 
L 127.926229 483.414114 
L 127.280567 483.627035 
L 126.764334 483.820093 
L 125.602439 484.214703 
L 124.440545 484.554723 
L 123.27865 484.859993 
L 122.808897 484.985209 
L 122.116755 485.225883 
L 120.95486 485.63696 
L 119.792965 486.023971 
L 118.738342 486.343382 
L 118.63107 486.389277 
L 117.469176 486.889144 
L 116.307281 487.282202 
L 115.145386 487.569603 
L 114.390305 487.701556 
L 113.983491 487.816311 
L 112.821596 488.019181 
L 111.659701 488.079537 
L 110.497807 487.990969 
L 109.335912 487.715706 
z
" clip-path="url(#p604b85c66e)" style="fill: #ebebf3"/>
    <path d="M 109.335912 487.715706 
L 110.497807 487.990969 
L 111.659701 488.079537 
L 112.821596 488.019181 
L 113.983491 487.816311 
L 114.390305 487.701556 
L 115.145386 487.569603 
L 116.307281 487.282202 
L 117.469176 486.889144 
L 118.63107 486.389277 
L 118.738342 486.343382 
L 119.792965 486.023971 
L 120.95486 485.63696 
L 122.116755 485.225883 
L 122.808897 484.985209 
L 123.27865 484.859993 
L 124.440545 484.554723 
L 125.602439 484.214703 
L 126.764334 483.820093 
L 127.280567 483.627035 
L 127.926229 483.414114 
L 129.088124 482.970082 
L 130.250019 482.429881 
L 130.587246 482.268861 
L 131.411913 481.848453 
L 132.573808 481.216508 
L 133.192573 480.910687 
L 133.735703 480.548807 
L 134.897598 479.899416 
L 135.798149 479.552514 
L 136.059493 479.325406 
L 137.221388 478.765854 
L 138.383282 478.579632 
L 139.545177 478.495566 
L 140.707072 478.19434 
L 139.545177 477.774626 
L 138.383282 477.698233 
L 137.453004 476.836166 
L 137.221388 476.69436 
L 136.628524 475.477993 
L 136.059493 474.511302 
L 135.914082 474.119819 
L 134.948171 472.761645 
L 134.897598 472.718624 
L 133.735703 471.697155 
L 133.344202 471.403472 
L 132.573808 470.988151 
L 131.411913 470.520014 
L 130.250019 470.214096 
L 129.326936 470.045298 
L 129.088124 469.996525 
L 127.926229 469.760115 
L 126.764334 469.44495 
L 125.602439 468.962277 
L 125.146809 468.687124 
L 124.440545 468.159796 
L 123.381258 467.32895 
L 123.27865 467.238016 
L 122.116755 466.34825 
L 121.296339 465.970777 
L 120.95486 465.785513 
L 119.792965 465.419302 
L 118.63107 465.296672 
L 117.469176 465.355525 
L 116.307281 465.586565 
L 115.27608 465.970777 
L 115.145386 466.00382 
L 113.983491 466.444553 
L 112.821596 467.211368 
L 112.683052 467.32895 
L 111.659701 468.026948 
L 111.000539 468.687124 
L 110.497807 469.109706 
L 109.657287 470.045298 
L 109.335912 470.371897 
L 108.484099 471.403472 
L 108.174017 471.7869 
L 107.436738 472.761645 
L 107.012122 473.41278 
L 106.529962 474.119819 
L 105.850227 475.445421 
L 105.830642 475.477993 
L 105.143126 476.836166 
L 104.743024 478.19434 
L 104.688333 478.514543 
L 104.421823 479.552514 
L 104.313697 480.910687 
L 104.441509 482.268861 
L 104.688333 483.120871 
L 104.812503 483.627035 
L 105.461824 484.985209 
L 105.850227 485.504686 
L 106.653224 486.343382 
L 107.012122 486.653708 
L 108.174017 487.352362 
L 109.299995 487.701556 
z
M 111.32872 486.343382 
L 110.497807 486.260196 
L 109.335912 485.943229 
L 108.174017 485.281892 
L 107.826314 484.985209 
L 107.012122 484.075615 
L 106.701805 483.627035 
L 106.129218 482.268861 
L 105.908344 480.910687 
L 105.91877 479.552514 
L 106.124321 478.19434 
L 106.547935 476.836166 
L 107.012122 475.915538 
L 107.199303 475.477993 
L 108.020358 474.119819 
L 108.174017 473.906769 
L 109.012556 472.761645 
L 109.335912 472.37025 
L 110.247138 471.403472 
L 110.497807 471.134691 
L 111.659701 470.127138 
L 111.779611 470.045298 
L 112.821596 469.2089 
L 113.834192 468.687124 
L 113.983491 468.586404 
L 115.145386 468.002305 
L 116.307281 467.666193 
L 117.469176 467.503896 
L 118.63107 467.50579 
L 119.792965 467.713052 
L 120.95486 468.213043 
L 121.634036 468.687124 
L 122.116755 469.026807 
L 123.270676 470.045298 
L 123.27865 470.05244 
L 124.440545 470.953005 
L 125.173321 471.403472 
L 125.602439 471.652709 
L 126.764334 472.118476 
L 127.926229 472.508691 
L 128.610411 472.761645 
L 129.088124 472.996593 
L 130.250019 473.850096 
L 130.514982 474.119819 
L 131.053602 475.477993 
L 130.970542 476.836166 
L 130.368454 478.19434 
L 130.250019 478.340396 
L 129.212531 479.552514 
L 129.088124 479.653572 
L 127.926229 480.524351 
L 127.323875 480.910687 
L 126.764334 481.219588 
L 125.602439 481.786549 
L 124.440545 482.268861 
L 124.440545 482.268861 
L 123.27865 482.765627 
L 122.116755 483.225824 
L 121.053749 483.627035 
L 120.95486 483.669486 
L 119.792965 484.211225 
L 118.63107 484.690808 
L 117.820947 484.985209 
L 117.469176 485.147931 
L 116.307281 485.630044 
L 115.145386 485.981274 
L 113.983491 486.217344 
L 112.874179 486.343382 
L 112.821596 486.352537 
L 111.659701 486.388115 
z
" clip-path="url(#p604b85c66e)" style="fill: #dbdbf4"/>
    <path d="M 111.659701 486.388115 
L 112.821596 486.352537 
L 112.874179 486.343382 
L 113.983491 486.217344 
L 115.145386 485.981274 
L 116.307281 485.630044 
L 117.469176 485.147931 
L 117.820947 484.985209 
L 118.63107 484.690808 
L 119.792965 484.211225 
L 120.95486 483.669486 
L 121.053749 483.627035 
L 122.116755 483.225824 
L 123.27865 482.765627 
L 124.440545 482.268861 
L 124.440545 482.268861 
L 125.602439 481.786549 
L 126.764334 481.219588 
L 127.323875 480.910687 
L 127.926229 480.524351 
L 129.088124 479.653572 
L 129.212531 479.552514 
L 130.250019 478.340396 
L 130.368454 478.19434 
L 130.970542 476.836166 
L 131.053602 475.477993 
L 130.514982 474.119819 
L 130.250019 473.850096 
L 129.088124 472.996593 
L 128.610411 472.761645 
L 127.926229 472.508691 
L 126.764334 472.118476 
L 125.602439 471.652709 
L 125.173321 471.403472 
L 124.440545 470.953005 
L 123.27865 470.05244 
L 123.270676 470.045298 
L 122.116755 469.026807 
L 121.634036 468.687124 
L 120.95486 468.213043 
L 119.792965 467.713052 
L 118.63107 467.50579 
L 117.469176 467.503896 
L 116.307281 467.666193 
L 115.145386 468.002305 
L 113.983491 468.586404 
L 113.834192 468.687124 
L 112.821596 469.2089 
L 111.779611 470.045298 
L 111.659701 470.127138 
L 110.497807 471.134691 
L 110.247138 471.403472 
L 109.335912 472.37025 
L 109.012556 472.761645 
L 108.174017 473.906769 
L 108.020358 474.119819 
L 107.199303 475.477993 
L 107.012122 475.915538 
L 106.547935 476.836166 
L 106.124321 478.19434 
L 105.91877 479.552514 
L 105.908344 480.910687 
L 106.129218 482.268861 
L 106.701805 483.627035 
L 107.012122 484.075615 
L 107.826314 484.985209 
L 108.174017 485.281892 
L 109.335912 485.943229 
L 110.497807 486.260196 
L 111.32872 486.343382 
z
M 110.650227 484.985209 
L 110.497807 484.955289 
L 109.335912 484.451103 
L 108.365518 483.627035 
L 108.174017 483.390405 
L 107.484076 482.268861 
L 107.113056 480.910687 
L 107.04881 479.552514 
L 107.216653 478.19434 
L 107.615624 476.836166 
L 108.174017 475.720706 
L 108.283635 475.477993 
L 109.137987 474.119819 
L 109.335912 473.862669 
L 110.249638 472.761645 
L 110.497807 472.48976 
L 111.659701 471.432783 
L 111.699107 471.403472 
L 112.821596 470.512556 
L 113.69194 470.045298 
L 113.983491 469.855816 
L 115.145386 469.319631 
L 116.307281 469.01549 
L 117.469176 468.900846 
L 118.63107 468.99431 
L 119.792965 469.36386 
L 120.873135 470.045298 
L 120.95486 470.101279 
L 122.116755 471.116204 
L 122.42221 471.403472 
L 123.27865 472.272787 
L 123.850533 472.761645 
L 124.440545 473.336567 
L 125.526418 474.119819 
L 125.602439 474.199161 
L 126.764334 475.213171 
L 127.037517 475.477993 
L 127.353207 476.836166 
L 126.764334 478.19434 
L 126.764334 478.19434 
L 125.602439 479.350505 
L 125.400632 479.552514 
L 124.440545 480.186313 
L 123.278722 480.910687 
L 123.27865 480.910725 
L 122.116755 481.566584 
L 120.95486 482.184156 
L 120.806599 482.268861 
L 119.792965 482.828155 
L 118.63107 483.399705 
L 118.122701 483.627035 
L 117.469176 483.95627 
L 116.307281 484.447442 
L 115.145386 484.803703 
L 114.269252 484.985209 
L 113.983491 485.064888 
L 112.821596 485.229676 
L 111.659701 485.205584 
z
" clip-path="url(#p604b85c66e)" style="fill: #c6c6f5"/>
    <path d="M 111.659701 485.205584 
L 112.821596 485.229676 
L 113.983491 485.064888 
L 114.269252 484.985209 
L 115.145386 484.803703 
L 116.307281 484.447442 
L 117.469176 483.95627 
L 118.122701 483.627035 
L 118.63107 483.399705 
L 119.792965 482.828155 
L 120.806599 482.268861 
L 120.95486 482.184156 
L 122.116755 481.566584 
L 123.27865 480.910725 
L 123.278722 480.910687 
L 124.440545 480.186313 
L 125.400632 479.552514 
L 125.602439 479.350505 
L 126.764334 478.19434 
L 126.764334 478.19434 
L 127.353207 476.836166 
L 127.037517 475.477993 
L 126.764334 475.213171 
L 125.602439 474.199161 
L 125.526418 474.119819 
L 124.440545 473.336567 
L 123.850533 472.761645 
L 123.27865 472.272787 
L 122.42221 471.403472 
L 122.116755 471.116204 
L 120.95486 470.101279 
L 120.873135 470.045298 
L 119.792965 469.36386 
L 118.63107 468.99431 
L 117.469176 468.900846 
L 116.307281 469.01549 
L 115.145386 469.319631 
L 113.983491 469.855816 
L 113.69194 470.045298 
L 112.821596 470.512556 
L 111.699107 471.403472 
L 111.659701 471.432783 
L 110.497807 472.48976 
L 110.249638 472.761645 
L 109.335912 473.862669 
L 109.137987 474.119819 
L 108.283635 475.477993 
L 108.174017 475.720706 
L 107.615624 476.836166 
L 107.216653 478.19434 
L 107.04881 479.552514 
L 107.113056 480.910687 
L 107.484076 482.268861 
L 108.174017 483.390405 
L 108.365518 483.627035 
L 109.335912 484.451103 
L 110.497807 484.955289 
L 110.650227 484.985209 
z
M 110.479863 483.627035 
L 109.335912 482.771168 
L 108.92245 482.268861 
L 108.319606 480.910687 
L 108.174017 479.759629 
L 108.147462 479.552514 
L 108.174017 479.313009 
L 108.274326 478.19434 
L 108.654743 476.836166 
L 109.335912 475.480582 
L 109.337169 475.477993 
L 110.25163 474.119819 
L 110.497807 473.825546 
L 111.521721 472.761645 
L 111.659701 472.628098 
L 112.821596 471.701833 
L 113.338521 471.403472 
L 113.983491 470.995885 
L 115.145386 470.511187 
L 116.307281 470.251563 
L 117.469176 470.211481 
L 118.63107 470.441229 
L 119.792965 471.030072 
L 120.271773 471.403472 
L 120.95486 472.03759 
L 121.625213 472.761645 
L 122.116755 473.454381 
L 122.648538 474.119819 
L 123.27865 475.333765 
L 123.380534 475.477993 
L 123.718282 476.836166 
L 123.27865 478.19434 
L 123.27865 478.19434 
L 122.187326 479.552514 
L 122.116755 479.606525 
L 120.95486 480.583247 
L 120.567225 480.910687 
L 119.792965 481.436988 
L 118.63107 482.155131 
L 118.433932 482.268861 
L 117.469176 482.814665 
L 116.307281 483.331543 
L 115.409523 483.627035 
L 115.145386 483.728692 
L 113.983491 484.025954 
L 112.821596 484.136752 
L 111.659701 484.034213 
L 110.497807 483.637555 
z
" clip-path="url(#p604b85c66e)" style="fill: #adadf6"/>
    <path d="M 110.497807 483.637555 
L 111.659701 484.034213 
L 112.821596 484.136752 
L 113.983491 484.025954 
L 115.145386 483.728692 
L 115.409523 483.627035 
L 116.307281 483.331543 
L 117.469176 482.814665 
L 118.433932 482.268861 
L 118.63107 482.155131 
L 119.792965 481.436988 
L 120.567225 480.910687 
L 120.95486 480.583247 
L 122.116755 479.606525 
L 122.187326 479.552514 
L 123.27865 478.19434 
L 123.27865 478.19434 
L 123.718282 476.836166 
L 123.380534 475.477993 
L 123.27865 475.333765 
L 122.648538 474.119819 
L 122.116755 473.454381 
L 121.625213 472.761645 
L 120.95486 472.03759 
L 120.271773 471.403472 
L 119.792965 471.030072 
L 118.63107 470.441229 
L 117.469176 470.211481 
L 116.307281 470.251563 
L 115.145386 470.511187 
L 113.983491 470.995885 
L 113.338521 471.403472 
L 112.821596 471.701833 
L 111.659701 472.628098 
L 111.521721 472.761645 
L 110.497807 473.825546 
L 110.25163 474.119819 
L 109.337169 475.477993 
L 109.335912 475.480582 
L 108.654743 476.836166 
L 108.274326 478.19434 
L 108.174017 479.313009 
L 108.147462 479.552514 
L 108.174017 479.759629 
L 108.319606 480.910687 
L 108.92245 482.268861 
L 109.335912 482.771168 
L 110.479863 483.627035 
z
M 110.497807 482.268861 
L 110.497807 482.268861 
L 109.501978 480.910687 
L 109.335912 480.273213 
L 109.17398 479.552514 
L 109.243194 478.19434 
L 109.335912 477.883021 
L 109.622926 476.836166 
L 110.308064 475.477993 
L 110.497807 475.208557 
L 111.337436 474.119819 
L 111.659701 473.776949 
L 112.821596 472.779616 
L 112.849384 472.761645 
L 113.983491 472.044706 
L 115.145386 471.585966 
L 116.134919 471.403472 
L 116.307281 471.366747 
L 117.009015 471.403472 
L 117.469176 471.428451 
L 118.63107 471.842513 
L 119.792965 472.711299 
L 119.844709 472.761645 
L 120.885191 474.119819 
L 120.95486 474.281714 
L 121.50597 475.477993 
L 121.653228 476.836166 
L 121.252273 478.19434 
L 120.95486 478.592522 
L 120.289481 479.552514 
L 119.792965 480.001748 
L 118.730815 480.910687 
L 118.63107 480.980242 
L 117.469176 481.741177 
L 116.426215 482.268861 
L 116.307281 482.329026 
L 115.145386 482.783765 
L 113.983491 483.045124 
L 112.821596 483.101314 
L 111.659701 482.89077 
z
" clip-path="url(#p604b85c66e)" style="fill: #9090f8"/>
    <path d="M 111.659701 482.89077 
L 112.821596 483.101314 
L 113.983491 483.045124 
L 115.145386 482.783765 
L 116.307281 482.329026 
L 116.426215 482.268861 
L 117.469176 481.741177 
L 118.63107 480.980242 
L 118.730815 480.910687 
L 119.792965 480.001748 
L 120.289481 479.552514 
L 120.95486 478.592522 
L 121.252273 478.19434 
L 121.653228 476.836166 
L 121.50597 475.477993 
L 120.95486 474.281714 
L 120.885191 474.119819 
L 119.844709 472.761645 
L 119.792965 472.711299 
L 118.63107 471.842513 
L 117.469176 471.428451 
L 117.009015 471.403472 
L 116.307281 471.366747 
L 116.134919 471.403472 
L 115.145386 471.585966 
L 113.983491 472.044706 
L 112.849384 472.761645 
L 112.821596 472.779616 
L 111.659701 473.776949 
L 111.337436 474.119819 
L 110.497807 475.208557 
L 110.308064 475.477993 
L 109.622926 476.836166 
L 109.335912 477.883021 
L 109.243194 478.19434 
L 109.17398 479.552514 
L 109.335912 480.273213 
L 109.501978 480.910687 
L 110.497807 482.268861 
L 110.497807 482.268861 
z
M 110.773204 480.910687 
L 110.497807 480.378062 
L 110.198596 479.552514 
L 110.179061 478.19434 
L 110.497807 477.019453 
L 110.547922 476.836166 
L 111.284809 475.477993 
L 111.659701 474.998157 
L 112.482767 474.119819 
L 112.821596 473.817511 
L 113.983491 473.054355 
L 114.710902 472.761645 
L 115.145386 472.586369 
L 116.307281 472.431589 
L 117.469176 472.627309 
L 117.74951 472.761645 
L 118.63107 473.317542 
L 119.392232 474.119819 
L 119.792965 474.879197 
L 120.076229 475.477993 
L 120.214888 476.836166 
L 119.792965 478.19434 
L 119.792965 478.19434 
L 118.828155 479.552514 
L 118.63107 479.731221 
L 117.469176 480.688964 
L 117.140406 480.910687 
L 116.307281 481.386996 
L 115.145386 481.852397 
L 113.983491 482.103622 
L 112.821596 482.093275 
L 111.659701 481.687388 
z
" clip-path="url(#p604b85c66e)" style="fill: #7171f9"/>
    <path d="M 111.659701 481.687388 
L 112.821596 482.093275 
L 113.983491 482.103622 
L 115.145386 481.852397 
L 116.307281 481.386996 
L 117.140406 480.910687 
L 117.469176 480.688964 
L 118.63107 479.731221 
L 118.828155 479.552514 
L 119.792965 478.19434 
L 119.792965 478.19434 
L 120.214888 476.836166 
L 120.076229 475.477993 
L 119.792965 474.879197 
L 119.392232 474.119819 
L 118.63107 473.317542 
L 117.74951 472.761645 
L 117.469176 472.627309 
L 116.307281 472.431589 
L 115.145386 472.586369 
L 114.710902 472.761645 
L 113.983491 473.054355 
L 112.821596 473.817511 
L 112.482767 474.119819 
L 111.659701 474.998157 
L 111.284809 475.477993 
L 110.547922 476.836166 
L 110.497807 477.019453 
L 110.179061 478.19434 
L 110.198596 479.552514 
L 110.497807 480.378062 
L 110.773204 480.910687 
z
M 112.787376 480.910687 
L 111.659701 479.951871 
L 111.4232 479.552514 
L 111.254121 478.19434 
L 111.589659 476.836166 
L 111.659701 476.70931 
L 112.453087 475.477993 
L 112.821596 475.082643 
L 113.983491 474.173448 
L 114.106861 474.119819 
L 115.145386 473.728973 
L 116.307281 473.671891 
L 117.469176 474.076054 
L 117.529902 474.119819 
L 118.63107 475.477993 
L 118.63107 475.477993 
L 118.846757 476.836166 
L 118.63107 477.554729 
L 118.433317 478.19434 
L 117.469176 479.421331 
L 117.344743 479.552514 
L 116.307281 480.279876 
L 115.145386 480.837802 
L 114.80245 480.910687 
L 113.983491 481.063031 
L 112.821596 480.926674 
z
" clip-path="url(#p604b85c66e)" style="fill: #5050fb"/>
    <path d="M 112.821596 480.926674 
L 113.983491 481.063031 
L 114.80245 480.910687 
L 115.145386 480.837802 
L 116.307281 480.279876 
L 117.344743 479.552514 
L 117.469176 479.421331 
L 118.433317 478.19434 
L 118.63107 477.554729 
L 118.846757 476.836166 
L 118.63107 475.477993 
L 118.63107 475.477993 
L 117.529902 474.119819 
L 117.469176 474.076054 
L 116.307281 473.671891 
L 115.145386 473.728973 
L 114.106861 474.119819 
L 113.983491 474.173448 
L 112.821596 475.082643 
L 112.453087 475.477993 
L 111.659701 476.70931 
L 111.589659 476.836166 
L 111.254121 478.19434 
L 111.4232 479.552514 
L 111.659701 479.951871 
L 112.787376 480.910687 
z
M 113.225329 479.552514 
L 112.821596 479.129596 
L 112.490024 478.19434 
L 112.782268 476.836166 
L 112.821596 476.774694 
L 113.96188 475.477993 
L 113.983491 475.461205 
L 115.145386 475.027623 
L 116.307281 475.140163 
L 116.816274 475.477993 
L 117.469176 476.836166 
L 117.009203 478.19434 
L 116.307281 478.932086 
L 115.4261 479.552514 
L 115.145386 479.683295 
L 113.983491 479.821352 
z
" clip-path="url(#p604b85c66e)" style="fill: #2d2dfd"/>
    <path d="M 113.983491 479.821352 
L 115.145386 479.683295 
L 115.4261 479.552514 
L 116.307281 478.932086 
L 117.009203 478.19434 
L 117.469176 476.836166 
L 116.816274 475.477993 
L 116.307281 475.140163 
L 115.145386 475.027623 
L 113.983491 475.461205 
L 113.96188 475.477993 
L 112.821596 476.774694 
L 112.782268 476.836166 
L 112.490024 478.19434 
L 112.821596 479.129596 
L 113.225329 479.552514 
z
" clip-path="url(#p604b85c66e)" style="fill: #0e0efe"/>
   </g>
   <g id="QuadContourSet_2">
    <path d="M 111.809534 499.776141 
L 114.892674 500.993746 
L 117.975814 501.302534 
L 121.058954 501.306968 
L 124.142094 501.122334 
L 127.225234 500.699598 
L 130.308375 499.968211 
L 131.441563 499.583039 
L 133.391515 499.044203 
L 136.302249 497.761927 
L 136.474655 497.687353 
L 139.557795 496.400003 
L 140.713603 495.940814 
L 142.640935 495.155507 
L 144.664365 494.119702 
L 145.724075 493.465894 
L 147.479167 492.298589 
L 148.807216 491.054604 
L 149.757746 490.477477 
L 151.857126 488.656364 
L 151.890356 488.613543 
L 154.019305 486.835252 
L 154.973496 485.534687 
L 155.2794 485.014139 
L 155.965968 483.193027 
L 156.366167 481.371914 
L 156.583408 479.550802 
L 156.673272 477.729689 
L 156.666992 475.908577 
L 156.588805 474.087465 
L 156.463419 472.266352 
L 156.314977 470.44524 
L 156.162504 468.624127 
L 156.015934 466.803015 
L 155.874864 464.981902 
L 155.730481 463.16079 
L 155.569435 461.339677 
L 155.378102 459.518565 
L 155.146627 457.697452 
L 154.973496 456.546169 
L 154.877233 455.87634 
L 154.59104 454.055228 
L 154.299813 452.234115 
L 154.020654 450.413003 
L 153.774377 448.59189 
L 153.584938 446.770778 
L 153.467419 444.949665 
L 153.412947 443.128553 
L 153.384092 441.30744 
L 153.32183 439.486328 
L 153.157667 437.665215 
L 152.834952 435.844103 
L 152.34969 434.02299 
L 151.890356 432.518679 
L 151.843129 432.201878 
L 151.625534 430.380766 
L 151.467492 428.559653 
L 151.360162 426.738541 
L 151.3045 424.917428 
L 151.308096 423.096316 
L 151.366068 421.275203 
L 151.436044 419.454091 
L 151.443237 417.632978 
L 151.331871 415.811866 
L 151.103794 413.990753 
L 150.798588 412.169641 
L 150.453827 410.348528 
L 150.08598 408.527416 
L 149.690102 406.706304 
L 149.243956 404.885191 
L 148.807216 403.369753 
L 148.723633 403.064079 
L 148.16071 401.242966 
L 147.531725 399.421854 
L 146.9245 397.600741 
L 146.417179 395.779629 
L 146.014054 393.958516 
L 145.724075 392.476267 
L 145.632918 392.137404 
L 144.968424 390.316291 
L 143.811715 388.495179 
L 142.640935 387.305911 
L 141.896919 386.674066 
L 140.045295 384.852954 
L 139.557795 384.196272 
L 139.202712 383.031842 
L 138.653002 381.210729 
L 138.020242 379.389617 
L 137.181583 377.568504 
L 136.474655 376.399421 
L 136.207901 375.747392 
L 135.332382 373.926279 
L 134.275208 372.105167 
L 133.391515 370.815469 
L 133.127178 370.284054 
L 132.115663 368.462942 
L 131.024898 366.641829 
L 130.308375 365.322311 
L 130.060892 364.820717 
L 129.431495 362.999605 
L 128.917877 361.178492 
L 128.266525 359.35738 
L 127.225234 357.609844 
L 126.90341 357.536267 
L 124.142094 357.031695 
L 121.058954 356.724131 
L 117.975814 357.536267 
L 117.975814 357.536267 
L 117.180953 359.35738 
L 116.507571 361.178492 
L 115.943289 362.999605 
L 115.456094 364.820717 
L 114.993098 366.641829 
L 114.892674 366.976273 
L 114.414536 368.462942 
L 113.732497 370.284054 
L 113.052062 372.105167 
L 112.439934 373.926279 
L 111.918688 375.747392 
L 111.809534 376.163437 
L 111.436338 377.568504 
L 111.00647 379.389617 
L 110.619627 381.210729 
L 110.259653 383.031842 
L 109.919843 384.852954 
L 109.601794 386.674066 
L 109.312595 388.495179 
L 109.061487 390.316291 
L 108.856557 392.137404 
L 108.726393 393.655339 
L 108.681492 393.958516 
L 108.483448 395.779629 
L 108.351994 397.600741 
L 108.260755 399.421854 
L 108.177366 401.242966 
L 108.070065 403.064079 
L 107.917387 404.885191 
L 107.715124 406.706304 
L 107.475514 408.527416 
L 107.22006 410.348528 
L 106.971179 412.169641 
L 106.746505 413.990753 
L 106.55688 415.811866 
L 106.407231 417.632978 
L 106.298466 419.454091 
L 106.228537 421.275203 
L 106.191911 423.096316 
L 106.178501 424.917428 
L 106.17451 426.738541 
L 106.166359 428.559653 
L 106.145303 430.380766 
L 106.109181 432.201878 
L 106.06061 434.02299 
L 106.003761 435.844103 
L 105.941956 437.665215 
L 105.876915 439.486328 
L 105.80923 441.30744 
L 105.739168 443.128553 
L 105.667315 444.949665 
L 105.643253 445.531827 
L 105.503066 446.770778 
L 105.297815 448.59189 
L 105.105638 450.413003 
L 104.932603 452.234115 
L 104.778415 454.055228 
L 104.634615 455.87634 
L 104.486368 457.697452 
L 104.31728 459.518565 
L 104.115784 461.339677 
L 103.881384 463.16079 
L 103.627503 464.981902 
L 103.376986 466.803015 
L 103.151569 468.624127 
L 102.963681 470.44524 
L 102.816192 472.266352 
L 102.707212 474.087465 
L 102.634725 475.908577 
L 102.599123 477.729689 
L 102.604211 479.550802 
L 102.657637 481.371914 
L 102.771286 483.193027 
L 102.962183 485.014139 
L 103.255515 486.835252 
L 103.693192 488.656364 
L 104.353761 490.477477 
L 105.39383 492.298589 
L 105.643253 492.65766 
L 106.152085 494.119702 
L 107.233384 495.940814 
L 108.726393 497.402725 
L 109.063918 497.761927 
L 111.505 499.583039 
z
M 113.309587 495.940814 
L 111.809534 495.013389 
L 110.820561 494.119702 
L 109.398959 492.298589 
L 108.726393 490.912219 
L 108.432653 490.477477 
L 107.442602 488.656364 
L 106.791002 486.835252 
L 106.347096 485.014139 
L 106.044934 483.193027 
L 105.850483 481.371914 
L 105.744947 479.550802 
L 105.717283 477.729689 
L 105.761363 475.908577 
L 105.874645 474.087465 
L 106.056543 472.266352 
L 106.30589 470.44524 
L 106.617679 468.624127 
L 106.979953 466.803015 
L 107.371971 464.981902 
L 107.765129 463.16079 
L 108.128288 461.339677 
L 108.437759 459.518565 
L 108.687751 457.697452 
L 108.726393 457.34343 
L 108.807247 455.87634 
L 108.902109 454.055228 
L 109.00657 452.234115 
L 109.129745 450.413003 
L 109.273393 448.59189 
L 109.432561 446.770778 
L 109.598624 444.949665 
L 109.762948 443.128553 
L 109.919085 441.30744 
L 110.06296 439.486328 
L 110.192446 437.665215 
L 110.307806 435.844103 
L 110.412224 434.02299 
L 110.510378 432.201878 
L 110.604926 430.380766 
L 110.6937 428.559653 
L 110.77063 426.738541 
L 110.83107 424.917428 
L 110.878812 423.096316 
L 110.929764 421.275203 
L 111.00907 419.454091 
L 111.143625 417.632978 
L 111.354929 415.811866 
L 111.655052 413.990753 
L 111.809534 413.241593 
L 112.002228 412.169641 
L 112.373715 410.348528 
L 112.773839 408.527416 
L 113.18286 406.706304 
L 113.584005 404.885191 
L 113.964786 403.064079 
L 114.321841 401.242966 
L 114.667693 399.421854 
L 114.892674 398.274322 
L 115.045217 397.600741 
L 115.525524 395.779629 
L 116.158479 393.958516 
L 116.992237 392.137404 
L 117.975814 390.405871 
L 118.071998 390.316291 
L 120.105577 388.495179 
L 121.058954 387.669047 
L 124.142094 388.313069 
L 124.366814 388.495179 
L 126.500928 390.316291 
L 127.225234 390.987497 
L 128.221876 392.137404 
L 129.681382 393.958516 
L 130.308375 394.849417 
L 130.748945 395.779629 
L 131.509849 397.600741 
L 132.174808 399.421854 
L 132.779258 401.242966 
L 133.342394 403.064079 
L 133.391515 403.226689 
L 133.950367 404.885191 
L 134.543357 406.706304 
L 135.117118 408.527416 
L 135.663597 410.348528 
L 136.163096 412.169641 
L 136.474655 413.474344 
L 136.623784 413.990753 
L 137.072171 415.811866 
L 137.421855 417.632978 
L 137.673494 419.454091 
L 137.840186 421.275203 
L 137.948886 423.096316 
L 138.034803 424.917428 
L 138.131047 426.738541 
L 138.258665 428.559653 
L 138.422 430.380766 
L 138.610563 432.201878 
L 138.805296 434.02299 
L 138.987061 435.844103 
L 139.145426 437.665215 
L 139.283861 439.486328 
L 139.417038 441.30744 
L 139.557795 443.084741 
L 139.563758 443.128553 
L 139.838008 444.949665 
L 140.096862 446.770778 
L 140.300964 448.59189 
L 140.431971 450.413003 
L 140.496988 452.234115 
L 140.52004 454.055228 
L 140.534104 455.87634 
L 140.576667 457.697452 
L 140.683461 459.518565 
L 140.875121 461.339677 
L 141.142097 463.16079 
L 141.445392 464.981902 
L 141.740173 466.803015 
L 142.00104 468.624127 
L 142.22633 470.44524 
L 142.424878 472.266352 
L 142.601654 474.087465 
L 142.640935 474.558606 
L 142.821748 475.908577 
L 142.990952 477.729689 
L 143.050065 479.550802 
L 142.956028 481.371914 
L 142.640935 483.193027 
L 142.640935 483.193027 
L 142.205149 485.014139 
L 141.393209 486.835252 
L 139.947699 488.656364 
L 139.557795 489.004273 
L 138.27113 490.477477 
L 136.474655 491.83957 
L 135.94734 492.298589 
L 133.391515 493.94722 
L 133.071463 494.119702 
L 130.308375 495.430733 
L 128.604386 495.940814 
L 127.225234 496.387098 
L 124.142094 497.043322 
L 121.058954 497.341755 
L 117.975814 497.32967 
L 114.892674 496.778731 
z
" clip-path="url(#p604b85c66e)" style="fill: #e4f0e4; fill-opacity: 0.5"/>
    <path d="M 114.892674 496.778731 
L 117.975814 497.32967 
L 121.058954 497.341755 
L 124.142094 497.043322 
L 127.225234 496.387098 
L 128.604386 495.940814 
L 130.308375 495.430733 
L 133.071463 494.119702 
L 133.391515 493.94722 
L 135.94734 492.298589 
L 136.474655 491.83957 
L 138.27113 490.477477 
L 139.557795 489.004273 
L 139.947699 488.656364 
L 141.393209 486.835252 
L 142.205149 485.014139 
L 142.640935 483.193027 
L 142.640935 483.193027 
L 142.956028 481.371914 
L 143.050065 479.550802 
L 142.990952 477.729689 
L 142.821748 475.908577 
L 142.640935 474.558606 
L 142.601654 474.087465 
L 142.424878 472.266352 
L 142.22633 470.44524 
L 142.00104 468.624127 
L 141.740173 466.803015 
L 141.445392 464.981902 
L 141.142097 463.16079 
L 140.875121 461.339677 
L 140.683461 459.518565 
L 140.576667 457.697452 
L 140.534104 455.87634 
L 140.52004 454.055228 
L 140.496988 452.234115 
L 140.431971 450.413003 
L 140.300964 448.59189 
L 140.096862 446.770778 
L 139.838008 444.949665 
L 139.563758 443.128553 
L 139.557795 443.084741 
L 139.417038 441.30744 
L 139.283861 439.486328 
L 139.145426 437.665215 
L 138.987061 435.844103 
L 138.805296 434.02299 
L 138.610563 432.201878 
L 138.422 430.380766 
L 138.258665 428.559653 
L 138.131047 426.738541 
L 138.034803 424.917428 
L 137.948886 423.096316 
L 137.840186 421.275203 
L 137.673494 419.454091 
L 137.421855 417.632978 
L 137.072171 415.811866 
L 136.623784 413.990753 
L 136.474655 413.474344 
L 136.163096 412.169641 
L 135.663597 410.348528 
L 135.117118 408.527416 
L 134.543357 406.706304 
L 133.950367 404.885191 
L 133.391515 403.226689 
L 133.342394 403.064079 
L 132.779258 401.242966 
L 132.174808 399.421854 
L 131.509849 397.600741 
L 130.748945 395.779629 
L 130.308375 394.849417 
L 129.681382 393.958516 
L 128.221876 392.137404 
L 127.225234 390.987497 
L 126.500928 390.316291 
L 124.366814 388.495179 
L 124.142094 388.313069 
L 121.058954 387.669047 
L 120.105577 388.495179 
L 118.071998 390.316291 
L 117.975814 390.405871 
L 116.992237 392.137404 
L 116.158479 393.958516 
L 115.525524 395.779629 
L 115.045217 397.600741 
L 114.892674 398.274322 
L 114.667693 399.421854 
L 114.321841 401.242966 
L 113.964786 403.064079 
L 113.584005 404.885191 
L 113.18286 406.706304 
L 112.773839 408.527416 
L 112.373715 410.348528 
L 112.002228 412.169641 
L 111.809534 413.241593 
L 111.655052 413.990753 
L 111.354929 415.811866 
L 111.143625 417.632978 
L 111.00907 419.454091 
L 110.929764 421.275203 
L 110.878812 423.096316 
L 110.83107 424.917428 
L 110.77063 426.738541 
L 110.6937 428.559653 
L 110.604926 430.380766 
L 110.510378 432.201878 
L 110.412224 434.02299 
L 110.307806 435.844103 
L 110.192446 437.665215 
L 110.06296 439.486328 
L 109.919085 441.30744 
L 109.762948 443.128553 
L 109.598624 444.949665 
L 109.432561 446.770778 
L 109.273393 448.59189 
L 109.129745 450.413003 
L 109.00657 452.234115 
L 108.902109 454.055228 
L 108.807247 455.87634 
L 108.726393 457.34343 
L 108.687751 457.697452 
L 108.437759 459.518565 
L 108.128288 461.339677 
L 107.765129 463.16079 
L 107.371971 464.981902 
L 106.979953 466.803015 
L 106.617679 468.624127 
L 106.30589 470.44524 
L 106.056543 472.266352 
L 105.874645 474.087465 
L 105.761363 475.908577 
L 105.717283 477.729689 
L 105.744947 479.550802 
L 105.850483 481.371914 
L 106.044934 483.193027 
L 106.347096 485.014139 
L 106.791002 486.835252 
L 107.442602 488.656364 
L 108.432653 490.477477 
L 108.726393 490.912219 
L 109.398959 492.298589 
L 110.820561 494.119702 
L 111.809534 495.013389 
L 113.309587 495.940814 
z
M 114.540714 494.119702 
L 112.079114 492.298589 
L 111.809534 492.032308 
L 110.534225 490.477477 
L 109.56063 488.656364 
L 108.921798 486.835252 
L 108.726393 486.100709 
L 108.267641 485.014139 
L 107.703907 483.193027 
L 107.33974 481.371914 
L 107.138078 479.550802 
L 107.078343 477.729689 
L 107.150294 475.908577 
L 107.350941 474.087465 
L 107.681344 472.266352 
L 108.141948 470.44524 
L 108.726393 468.624127 
L 108.726393 468.624127 
L 109.069135 466.803015 
L 109.427691 464.981902 
L 109.77823 463.16079 
L 110.101405 461.339677 
L 110.385742 459.518565 
L 110.629858 457.697452 
L 110.843433 455.87634 
L 111.044921 454.055228 
L 111.255229 452.234115 
L 111.490035 450.413003 
L 111.7547 448.59189 
L 111.809534 448.23234 
L 111.980846 446.770778 
L 112.198087 444.949665 
L 112.413568 443.128553 
L 112.622177 441.30744 
L 112.819344 439.486328 
L 113.000374 437.665215 
L 113.162647 435.844103 
L 113.308851 434.02299 
L 113.447196 432.201878 
L 113.587062 430.380766 
L 113.733309 428.559653 
L 113.884014 426.738541 
L 114.033828 424.917428 
L 114.181333 423.096316 
L 114.335832 421.275203 
L 114.518688 419.454091 
L 114.757598 417.632978 
L 114.892674 416.844362 
L 115.11179 415.811866 
L 115.598788 413.990753 
L 116.181168 412.169641 
L 116.833026 410.348528 
L 117.525611 408.527416 
L 117.975814 407.355242 
L 118.443607 406.706304 
L 119.648983 404.885191 
L 120.777814 403.064079 
L 121.058954 402.603896 
L 122.46073 403.064079 
L 124.142094 403.666914 
L 125.049011 404.885191 
L 126.523014 406.706304 
L 127.225234 407.492319 
L 127.796945 408.527416 
L 128.757838 410.348528 
L 129.625371 412.169641 
L 130.308375 413.78827 
L 130.377139 413.990753 
L 130.93687 415.811866 
L 131.401481 417.632978 
L 131.764088 419.454091 
L 132.030988 421.275203 
L 132.225617 423.096316 
L 132.384734 424.917428 
L 132.547662 426.738541 
L 132.742043 428.559653 
L 132.972444 430.380766 
L 133.22018 432.201878 
L 133.391515 433.506271 
L 133.465887 434.02299 
L 133.700654 435.844103 
L 133.897707 437.665215 
L 134.066634 439.486328 
L 134.220831 441.30744 
L 134.370115 443.128553 
L 134.519454 444.949665 
L 134.672815 446.770778 
L 134.836754 448.59189 
L 135.018592 450.413003 
L 135.2195 452.234115 
L 135.429819 454.055228 
L 135.634754 455.87634 
L 135.827576 457.697452 
L 136.017406 459.518565 
L 136.224383 461.339677 
L 136.466945 463.16079 
L 136.474655 463.207374 
L 136.83999 464.981902 
L 137.259006 466.803015 
L 137.676468 468.624127 
L 138.051353 470.44524 
L 138.360069 472.266352 
L 138.593555 474.087465 
L 138.747785 475.908577 
L 138.815749 477.729689 
L 138.78167 479.550802 
L 138.614812 481.371914 
L 138.260572 483.193027 
L 137.626852 485.014139 
L 136.560172 486.835252 
L 136.474655 486.941019 
L 135.38977 488.656364 
L 133.519917 490.477477 
L 133.391515 490.576768 
L 130.936563 492.298589 
L 130.308375 492.646999 
L 127.225234 493.886791 
L 126.306382 494.119702 
L 124.142094 494.697896 
L 121.058954 495.108918 
L 117.975814 495.098807 
L 114.892674 494.333468 
z
" clip-path="url(#p604b85c66e)" style="fill: #d5e9d5; fill-opacity: 0.5"/>
    <path d="M 114.892674 494.333468 
L 117.975814 495.098807 
L 121.058954 495.108918 
L 124.142094 494.697896 
L 126.306382 494.119702 
L 127.225234 493.886791 
L 130.308375 492.646999 
L 130.936563 492.298589 
L 133.391515 490.576768 
L 133.519917 490.477477 
L 135.38977 488.656364 
L 136.474655 486.941019 
L 136.560172 486.835252 
L 137.626852 485.014139 
L 138.260572 483.193027 
L 138.614812 481.371914 
L 138.78167 479.550802 
L 138.815749 477.729689 
L 138.747785 475.908577 
L 138.593555 474.087465 
L 138.360069 472.266352 
L 138.051353 470.44524 
L 137.676468 468.624127 
L 137.259006 466.803015 
L 136.83999 464.981902 
L 136.474655 463.207374 
L 136.466945 463.16079 
L 136.224383 461.339677 
L 136.017406 459.518565 
L 135.827576 457.697452 
L 135.634754 455.87634 
L 135.429819 454.055228 
L 135.2195 452.234115 
L 135.018592 450.413003 
L 134.836754 448.59189 
L 134.672815 446.770778 
L 134.519454 444.949665 
L 134.370115 443.128553 
L 134.220831 441.30744 
L 134.066634 439.486328 
L 133.897707 437.665215 
L 133.700654 435.844103 
L 133.465887 434.02299 
L 133.391515 433.506271 
L 133.22018 432.201878 
L 132.972444 430.380766 
L 132.742043 428.559653 
L 132.547662 426.738541 
L 132.384734 424.917428 
L 132.225617 423.096316 
L 132.030988 421.275203 
L 131.764088 419.454091 
L 131.401481 417.632978 
L 130.93687 415.811866 
L 130.377139 413.990753 
L 130.308375 413.78827 
L 129.625371 412.169641 
L 128.757838 410.348528 
L 127.796945 408.527416 
L 127.225234 407.492319 
L 126.523014 406.706304 
L 125.049011 404.885191 
L 124.142094 403.666914 
L 122.46073 403.064079 
L 121.058954 402.603896 
L 120.777814 403.064079 
L 119.648983 404.885191 
L 118.443607 406.706304 
L 117.975814 407.355242 
L 117.525611 408.527416 
L 116.833026 410.348528 
L 116.181168 412.169641 
L 115.598788 413.990753 
L 115.11179 415.811866 
L 114.892674 416.844362 
L 114.757598 417.632978 
L 114.518688 419.454091 
L 114.335832 421.275203 
L 114.181333 423.096316 
L 114.033828 424.917428 
L 113.884014 426.738541 
L 113.733309 428.559653 
L 113.587062 430.380766 
L 113.447196 432.201878 
L 113.308851 434.02299 
L 113.162647 435.844103 
L 113.000374 437.665215 
L 112.819344 439.486328 
L 112.622177 441.30744 
L 112.413568 443.128553 
L 112.198087 444.949665 
L 111.980846 446.770778 
L 111.809534 448.23234 
L 111.7547 448.59189 
L 111.490035 450.413003 
L 111.255229 452.234115 
L 111.044921 454.055228 
L 110.843433 455.87634 
L 110.629858 457.697452 
L 110.385742 459.518565 
L 110.101405 461.339677 
L 109.77823 463.16079 
L 109.427691 464.981902 
L 109.069135 466.803015 
L 108.726393 468.624127 
L 108.726393 468.624127 
L 108.141948 470.44524 
L 107.681344 472.266352 
L 107.350941 474.087465 
L 107.150294 475.908577 
L 107.078343 477.729689 
L 107.138078 479.550802 
L 107.33974 481.371914 
L 107.703907 483.193027 
L 108.267641 485.014139 
L 108.726393 486.100709 
L 108.921798 486.835252 
L 109.56063 488.656364 
L 110.534225 490.477477 
L 111.809534 492.032308 
L 112.079114 492.298589 
L 114.540714 494.119702 
z
M 114.301409 492.298589 
L 112.275324 490.477477 
L 111.809534 489.900817 
L 110.940784 488.656364 
L 110.03328 486.835252 
L 109.416927 485.014139 
L 108.993984 483.193027 
L 108.726393 481.444819 
L 108.707627 481.371914 
L 108.417673 479.550802 
L 108.32848 477.729689 
L 108.426032 475.908577 
L 108.706924 474.087465 
L 108.726393 474.004219 
L 108.962539 472.266352 
L 109.299307 470.44524 
L 109.713524 468.624127 
L 110.182543 466.803015 
L 110.676619 464.981902 
L 111.16537 463.16079 
L 111.623625 461.339677 
L 111.809534 460.480455 
L 111.985742 459.518565 
L 112.261939 457.697452 
L 112.501392 455.87634 
L 112.723282 454.055228 
L 112.947988 452.234115 
L 113.189598 450.413003 
L 113.452374 448.59189 
L 113.732498 446.770778 
L 114.022849 444.949665 
L 114.316631 443.128553 
L 114.60753 441.30744 
L 114.88791 439.486328 
L 114.892674 439.451825 
L 115.176875 437.665215 
L 115.430247 435.844103 
L 115.658766 434.02299 
L 115.881348 432.201878 
L 116.117849 430.380766 
L 116.381382 428.559653 
L 116.674611 426.738541 
L 116.992496 424.917428 
L 117.329904 423.096316 
L 117.689976 421.275203 
L 117.975814 419.948629 
L 118.227246 419.454091 
L 119.253272 417.632978 
L 120.426018 415.811866 
L 121.058954 414.917129 
L 123.216641 415.811866 
L 124.142094 416.166423 
L 125.294857 417.632978 
L 126.456692 419.454091 
L 127.225234 421.004993 
L 127.30496 421.275203 
L 127.762599 423.096316 
L 128.134898 424.917428 
L 128.457181 426.738541 
L 128.762996 428.559653 
L 129.075948 430.380766 
L 129.403858 432.201878 
L 129.735872 434.02299 
L 130.046299 435.844103 
L 130.308375 437.665215 
L 130.308375 437.665215 
L 130.504879 439.486328 
L 130.663795 441.30744 
L 130.812669 443.128553 
L 130.972171 444.949665 
L 131.151019 446.770778 
L 131.349434 448.59189 
L 131.566385 450.413003 
L 131.802558 452.234115 
L 132.057662 454.055228 
L 132.327772 455.87634 
L 132.607511 457.697452 
L 132.895358 459.518565 
L 133.196014 461.339677 
L 133.391515 462.420497 
L 133.560093 463.16079 
L 134.02868 464.981902 
L 134.526226 466.803015 
L 135.021733 468.624127 
L 135.472995 470.44524 
L 135.843614 472.266352 
L 136.113049 474.087465 
L 136.27466 475.908577 
L 136.326869 477.729689 
L 136.263606 479.550802 
L 136.065705 481.371914 
L 135.691698 483.193027 
L 135.065063 485.014139 
L 134.052558 486.835252 
L 133.391515 487.653755 
L 132.613636 488.656364 
L 130.4543 490.477477 
L 130.308375 490.574922 
L 127.225234 492.143019 
L 126.749539 492.298589 
L 124.142094 493.108016 
L 121.058954 493.584532 
L 117.975814 493.583392 
L 114.892674 492.716196 
z
" clip-path="url(#p604b85c66e)" style="fill: #c7e1c7; fill-opacity: 0.5"/>
    <path d="M 114.892674 492.716196 
L 117.975814 493.583392 
L 121.058954 493.584532 
L 124.142094 493.108016 
L 126.749539 492.298589 
L 127.225234 492.143019 
L 130.308375 490.574922 
L 130.4543 490.477477 
L 132.613636 488.656364 
L 133.391515 487.653755 
L 134.052558 486.835252 
L 135.065063 485.014139 
L 135.691698 483.193027 
L 136.065705 481.371914 
L 136.263606 479.550802 
L 136.326869 477.729689 
L 136.27466 475.908577 
L 136.113049 474.087465 
L 135.843614 472.266352 
L 135.472995 470.44524 
L 135.021733 468.624127 
L 134.526226 466.803015 
L 134.02868 464.981902 
L 133.560093 463.16079 
L 133.391515 462.420497 
L 133.196014 461.339677 
L 132.895358 459.518565 
L 132.607511 457.697452 
L 132.327772 455.87634 
L 132.057662 454.055228 
L 131.802558 452.234115 
L 131.566385 450.413003 
L 131.349434 448.59189 
L 131.151019 446.770778 
L 130.972171 444.949665 
L 130.812669 443.128553 
L 130.663795 441.30744 
L 130.504879 439.486328 
L 130.308375 437.665215 
L 130.308375 437.665215 
L 130.046299 435.844103 
L 129.735872 434.02299 
L 129.403858 432.201878 
L 129.075948 430.380766 
L 128.762996 428.559653 
L 128.457181 426.738541 
L 128.134898 424.917428 
L 127.762599 423.096316 
L 127.30496 421.275203 
L 127.225234 421.004993 
L 126.456692 419.454091 
L 125.294857 417.632978 
L 124.142094 416.166423 
L 123.216641 415.811866 
L 121.058954 414.917129 
L 120.426018 415.811866 
L 119.253272 417.632978 
L 118.227246 419.454091 
L 117.975814 419.948629 
L 117.689976 421.275203 
L 117.329904 423.096316 
L 116.992496 424.917428 
L 116.674611 426.738541 
L 116.381382 428.559653 
L 116.117849 430.380766 
L 115.881348 432.201878 
L 115.658766 434.02299 
L 115.430247 435.844103 
L 115.176875 437.665215 
L 114.892674 439.451825 
L 114.88791 439.486328 
L 114.60753 441.30744 
L 114.316631 443.128553 
L 114.022849 444.949665 
L 113.732498 446.770778 
L 113.452374 448.59189 
L 113.189598 450.413003 
L 112.947988 452.234115 
L 112.723282 454.055228 
L 112.501392 455.87634 
L 112.261939 457.697452 
L 111.985742 459.518565 
L 111.809534 460.480455 
L 111.623625 461.339677 
L 111.16537 463.16079 
L 110.676619 464.981902 
L 110.182543 466.803015 
L 109.713524 468.624127 
L 109.299307 470.44524 
L 108.962539 472.266352 
L 108.726393 474.004219 
L 108.706924 474.087465 
L 108.426032 475.908577 
L 108.32848 477.729689 
L 108.417673 479.550802 
L 108.707627 481.371914 
L 108.726393 481.444819 
L 108.993984 483.193027 
L 109.416927 485.014139 
L 110.03328 486.835252 
L 110.940784 488.656364 
L 111.809534 489.900817 
L 112.275324 490.477477 
L 114.301409 492.298589 
z
M 113.955578 490.477477 
L 112.325992 488.656364 
L 111.809534 487.861602 
L 111.202766 486.835252 
L 110.398857 485.014139 
L 109.849834 483.193027 
L 109.489999 481.371914 
L 109.286276 479.550802 
L 109.22142 477.729689 
L 109.286521 475.908577 
L 109.477474 474.087465 
L 109.791476 472.266352 
L 110.221825 470.44524 
L 110.75217 468.624127 
L 111.354056 466.803015 
L 111.809534 465.458663 
L 111.955159 464.981902 
L 112.460414 463.16079 
L 112.928769 461.339677 
L 113.3418 459.518565 
L 113.696909 457.697452 
L 114.007205 455.87634 
L 114.295504 454.055228 
L 114.585259 452.234115 
L 114.892674 450.413003 
L 114.892674 450.413003 
L 115.323987 448.59189 
L 115.763783 446.770778 
L 116.197308 444.949665 
L 116.612342 443.128553 
L 117.000896 441.30744 
L 117.358391 439.486328 
L 117.684455 437.665215 
L 117.975814 435.902222 
L 117.999412 435.844103 
L 118.67634 434.02299 
L 119.346274 432.201878 
L 120.069365 430.380766 
L 120.884248 428.559653 
L 121.058954 428.205985 
L 122.12214 428.559653 
L 124.142094 429.425302 
L 124.446191 430.380766 
L 124.95285 432.201878 
L 125.406814 434.02299 
L 125.823465 435.844103 
L 126.20896 437.665215 
L 126.568862 439.486328 
L 126.914388 441.30744 
L 127.225234 442.935637 
L 127.252491 443.128553 
L 127.534251 444.949665 
L 127.834962 446.770778 
L 128.151021 448.59189 
L 128.477884 450.413003 
L 128.814529 452.234115 
L 129.163392 454.055228 
L 129.527647 455.87634 
L 129.909525 457.697452 
L 130.308375 459.507641 
L 130.310841 459.518565 
L 130.766543 461.339677 
L 131.25003 463.16079 
L 131.760862 464.981902 
L 132.285141 466.803015 
L 132.795723 468.624127 
L 133.259597 470.44524 
L 133.391515 471.03488 
L 133.747473 472.266352 
L 134.146906 474.087465 
L 134.390417 475.908577 
L 134.473636 477.729689 
L 134.390573 479.550802 
L 134.12111 481.371914 
L 133.616936 483.193027 
L 133.391515 483.720049 
L 132.912482 485.014139 
L 131.843372 486.835252 
L 130.308375 488.479477 
L 130.114885 488.656364 
L 127.300202 490.477477 
L 127.225234 490.516171 
L 124.142094 491.660845 
L 121.058954 492.221163 
L 117.975814 492.232896 
L 114.892674 491.255847 
z
" clip-path="url(#p604b85c66e)" style="fill: #b7dab7; fill-opacity: 0.5"/>
    <path d="M 114.892674 491.255847 
L 117.975814 492.232896 
L 121.058954 492.221163 
L 124.142094 491.660845 
L 127.225234 490.516171 
L 127.300202 490.477477 
L 130.114885 488.656364 
L 130.308375 488.479477 
L 131.843372 486.835252 
L 132.912482 485.014139 
L 133.391515 483.720049 
L 133.616936 483.193027 
L 134.12111 481.371914 
L 134.390573 479.550802 
L 134.473636 477.729689 
L 134.390417 475.908577 
L 134.146906 474.087465 
L 133.747473 472.266352 
L 133.391515 471.03488 
L 133.259597 470.44524 
L 132.795723 468.624127 
L 132.285141 466.803015 
L 131.760862 464.981902 
L 131.25003 463.16079 
L 130.766543 461.339677 
L 130.310841 459.518565 
L 130.308375 459.507641 
L 129.909525 457.697452 
L 129.527647 455.87634 
L 129.163392 454.055228 
L 128.814529 452.234115 
L 128.477884 450.413003 
L 128.151021 448.59189 
L 127.834962 446.770778 
L 127.534251 444.949665 
L 127.252491 443.128553 
L 127.225234 442.935637 
L 126.914388 441.30744 
L 126.568862 439.486328 
L 126.20896 437.665215 
L 125.823465 435.844103 
L 125.406814 434.02299 
L 124.95285 432.201878 
L 124.446191 430.380766 
L 124.142094 429.425302 
L 122.12214 428.559653 
L 121.058954 428.205985 
L 120.884248 428.559653 
L 120.069365 430.380766 
L 119.346274 432.201878 
L 118.67634 434.02299 
L 117.999412 435.844103 
L 117.975814 435.902222 
L 117.684455 437.665215 
L 117.358391 439.486328 
L 117.000896 441.30744 
L 116.612342 443.128553 
L 116.197308 444.949665 
L 115.763783 446.770778 
L 115.323987 448.59189 
L 114.892674 450.413003 
L 114.892674 450.413003 
L 114.585259 452.234115 
L 114.295504 454.055228 
L 114.007205 455.87634 
L 113.696909 457.697452 
L 113.3418 459.518565 
L 112.928769 461.339677 
L 112.460414 463.16079 
L 111.955159 464.981902 
L 111.809534 465.458663 
L 111.354056 466.803015 
L 110.75217 468.624127 
L 110.221825 470.44524 
L 109.791476 472.266352 
L 109.477474 474.087465 
L 109.286521 475.908577 
L 109.22142 477.729689 
L 109.286276 479.550802 
L 109.489999 481.371914 
L 109.849834 483.193027 
L 110.398857 485.014139 
L 111.202766 486.835252 
L 111.809534 487.861602 
L 112.325992 488.656364 
L 113.955578 490.477477 
z
M 116.675176 490.477477 
L 114.892674 489.768849 
L 113.762694 488.656364 
L 112.430007 486.835252 
L 111.809534 485.647108 
L 111.496295 485.014139 
L 110.806359 483.193027 
L 110.354703 481.371914 
L 110.098189 479.550802 
L 110.01463 477.729689 
L 110.093 475.908577 
L 110.328519 474.087465 
L 110.717922 472.266352 
L 111.252861 470.44524 
L 111.809534 468.882153 
L 111.893611 468.624127 
L 112.499262 466.803015 
L 113.135562 464.981902 
L 113.762561 463.16079 
L 114.343923 461.339677 
L 114.857375 459.518565 
L 114.892674 459.365824 
L 115.457754 457.697452 
L 115.984855 455.87634 
L 116.465549 454.055228 
L 116.935877 452.234115 
L 117.415291 450.413003 
L 117.904317 448.59189 
L 117.975814 448.320407 
L 119.505974 446.770778 
L 121.058954 444.949665 
L 122.62774 446.770778 
L 124.004498 448.59189 
L 124.142094 448.785967 
L 124.684551 450.413003 
L 125.271777 452.234115 
L 125.851934 454.055228 
L 126.444745 455.87634 
L 127.062943 457.697452 
L 127.225234 458.13233 
L 127.63412 459.518565 
L 128.221484 461.339677 
L 128.850514 463.16079 
L 129.504229 464.981902 
L 130.151125 466.803015 
L 130.308375 467.241543 
L 130.821959 468.624127 
L 131.446332 470.44524 
L 131.963766 472.266352 
L 132.346813 474.087465 
L 132.5807 475.908577 
L 132.65766 477.729689 
L 132.5679 479.550802 
L 132.288156 481.371914 
L 131.76714 483.193027 
L 130.90569 485.014139 
L 130.308375 485.86719 
L 129.56669 486.835252 
L 127.398953 488.656364 
L 127.225234 488.768079 
L 124.142094 490.180592 
L 122.933143 490.477477 
L 121.058954 490.905711 
L 117.975814 490.947399 
z
" clip-path="url(#p604b85c66e)" style="fill: #a7d2a7; fill-opacity: 0.5"/>
    <path d="M 117.975814 490.947399 
L 121.058954 490.905711 
L 122.933143 490.477477 
L 124.142094 490.180592 
L 127.225234 488.768079 
L 127.398953 488.656364 
L 129.56669 486.835252 
L 130.308375 485.86719 
L 130.90569 485.014139 
L 131.76714 483.193027 
L 132.288156 481.371914 
L 132.5679 479.550802 
L 132.65766 477.729689 
L 132.5807 475.908577 
L 132.346813 474.087465 
L 131.963766 472.266352 
L 131.446332 470.44524 
L 130.821959 468.624127 
L 130.308375 467.241543 
L 130.151125 466.803015 
L 129.504229 464.981902 
L 128.850514 463.16079 
L 128.221484 461.339677 
L 127.63412 459.518565 
L 127.225234 458.13233 
L 127.062943 457.697452 
L 126.444745 455.87634 
L 125.851934 454.055228 
L 125.271777 452.234115 
L 124.684551 450.413003 
L 124.142094 448.785967 
L 124.004498 448.59189 
L 122.62774 446.770778 
L 121.058954 444.949665 
L 119.505974 446.770778 
L 117.975814 448.320407 
L 117.904317 448.59189 
L 117.415291 450.413003 
L 116.935877 452.234115 
L 116.465549 454.055228 
L 115.984855 455.87634 
L 115.457754 457.697452 
L 114.892674 459.365824 
L 114.857375 459.518565 
L 114.343923 461.339677 
L 113.762561 463.16079 
L 113.135562 464.981902 
L 112.499262 466.803015 
L 111.893611 468.624127 
L 111.809534 468.882153 
L 111.252861 470.44524 
L 110.717922 472.266352 
L 110.328519 474.087465 
L 110.093 475.908577 
L 110.01463 477.729689 
L 110.098189 479.550802 
L 110.354703 481.371914 
L 110.806359 483.193027 
L 111.496295 485.014139 
L 111.809534 485.647108 
L 112.430007 486.835252 
L 113.762694 488.656364 
L 114.892674 489.768849 
L 116.675176 490.477477 
z
M 116.727844 488.656364 
L 114.892674 487.733463 
L 114.127283 486.835252 
L 112.959583 485.014139 
L 112.164006 483.193027 
L 111.809534 481.995161 
L 111.622005 481.371914 
L 111.288119 479.550802 
L 111.17715 477.729689 
L 111.274965 475.908577 
L 111.575801 474.087465 
L 111.809534 473.197438 
L 112.030832 472.266352 
L 112.592438 470.44524 
L 113.276182 468.624127 
L 114.049357 466.803015 
L 114.865548 464.981902 
L 114.892674 464.914477 
L 116.02051 463.16079 
L 117.065852 461.339677 
L 117.960243 459.518565 
L 117.975814 459.479267 
L 121.058954 457.952837 
L 122.448962 459.518565 
L 124.142094 461.339677 
L 124.142094 461.339677 
L 125.247238 463.16079 
L 126.340904 464.981902 
L 127.225234 466.524202 
L 127.358718 466.803015 
L 128.245666 468.624127 
L 129.012923 470.44524 
L 129.624458 472.266352 
L 130.061815 474.087465 
L 130.308375 475.836844 
L 130.320084 475.908577 
L 130.405467 477.729689 
L 130.308375 478.945382 
L 130.266208 479.550802 
L 129.913925 481.371914 
L 129.257705 483.193027 
L 128.153039 485.014139 
L 127.225234 486.029191 
L 126.267476 486.835252 
L 124.142094 488.102248 
L 122.543049 488.656364 
L 121.058954 489.093071 
L 117.975814 489.194822 
z
" clip-path="url(#p604b85c66e)" style="fill: #91c791; fill-opacity: 0.5"/>
    <path d="M 117.975814 489.194822 
L 121.058954 489.093071 
L 122.543049 488.656364 
L 124.142094 488.102248 
L 126.267476 486.835252 
L 127.225234 486.029191 
L 128.153039 485.014139 
L 129.257705 483.193027 
L 129.913925 481.371914 
L 130.266208 479.550802 
L 130.308375 478.945382 
L 130.405467 477.729689 
L 130.320084 475.908577 
L 130.308375 475.836844 
L 130.061815 474.087465 
L 129.624458 472.266352 
L 129.012923 470.44524 
L 128.245666 468.624127 
L 127.358718 466.803015 
L 127.225234 466.524202 
L 126.340904 464.981902 
L 125.247238 463.16079 
L 124.142094 461.339677 
L 124.142094 461.339677 
L 122.448962 459.518565 
L 121.058954 457.952837 
L 117.975814 459.479267 
L 117.960243 459.518565 
L 117.065852 461.339677 
L 116.02051 463.16079 
L 114.892674 464.914477 
L 114.865548 464.981902 
L 114.049357 466.803015 
L 113.276182 468.624127 
L 112.592438 470.44524 
L 112.030832 472.266352 
L 111.809534 473.197438 
L 111.575801 474.087465 
L 111.274965 475.908577 
L 111.17715 477.729689 
L 111.288119 479.550802 
L 111.622005 481.371914 
L 111.809534 481.995161 
L 112.164006 483.193027 
L 112.959583 485.014139 
L 114.127283 486.835252 
L 114.892674 487.733463 
L 116.727844 488.656364 
z
M 117.75517 486.835252 
L 114.892674 485.014139 
L 114.892674 485.014139 
L 113.85099 483.193027 
L 113.165358 481.371914 
L 112.770038 479.550802 
L 112.63035 477.729689 
L 112.724923 475.908577 
L 113.038609 474.087465 
L 113.55876 472.266352 
L 114.27019 470.44524 
L 114.892674 469.113091 
L 115.286482 468.624127 
L 116.785277 466.803015 
L 117.975814 465.354333 
L 121.058954 465.088503 
L 123.16665 466.803015 
L 124.142094 467.711736 
L 124.794636 468.624127 
L 125.941421 470.44524 
L 126.816066 472.266352 
L 127.225234 473.479642 
L 127.419865 474.087465 
L 127.761063 475.908577 
L 127.829045 477.729689 
L 127.607799 479.550802 
L 127.225234 480.837418 
L 127.052821 481.371914 
L 126.036913 483.193027 
L 124.32224 485.014139 
L 124.142094 485.154823 
L 121.058954 486.715676 
L 119.556136 486.835252 
L 117.975814 486.949598 
z
" clip-path="url(#p604b85c66e)" style="fill: #74b974; fill-opacity: 0.5"/>
    <path d="M 117.975814 486.949598 
L 119.556136 486.835252 
L 121.058954 486.715676 
L 124.142094 485.154823 
L 124.32224 485.014139 
L 126.036913 483.193027 
L 127.052821 481.371914 
L 127.225234 480.837418 
L 127.607799 479.550802 
L 127.829045 477.729689 
L 127.761063 475.908577 
L 127.419865 474.087465 
L 127.225234 473.479642 
L 126.816066 472.266352 
L 125.941421 470.44524 
L 124.794636 468.624127 
L 124.142094 467.711736 
L 123.16665 466.803015 
L 121.058954 465.088503 
L 117.975814 465.354333 
L 116.785277 466.803015 
L 115.286482 468.624127 
L 114.892674 469.113091 
L 114.27019 470.44524 
L 113.55876 472.266352 
L 113.038609 474.087465 
L 112.724923 475.908577 
L 112.63035 477.729689 
L 112.770038 479.550802 
L 113.165358 481.371914 
L 113.85099 483.193027 
L 114.892674 485.014139 
L 114.892674 485.014139 
L 117.75517 486.835252 
z
M 117.396414 483.193027 
L 115.694169 481.371914 
L 114.892674 479.908318 
L 114.79236 479.550802 
L 114.584399 477.729689 
L 114.68237 475.908577 
L 114.892674 474.903484 
L 115.190308 474.087465 
L 116.267272 472.266352 
L 117.696746 470.44524 
L 117.975814 470.126485 
L 121.058954 470.44524 
L 121.058954 470.44524 
L 122.658685 472.266352 
L 123.67884 474.087465 
L 124.142094 475.702353 
L 124.192874 475.908577 
L 124.243697 477.729689 
L 124.142094 478.222474 
L 123.821894 479.550802 
L 122.783743 481.371914 
L 121.058954 483.043076 
L 120.436174 483.193027 
L 117.975814 483.645529 
z
" clip-path="url(#p604b85c66e)" style="fill: #4ba54a; fill-opacity: 0.5"/>
    <path d="M 117.975814 483.645529 
L 120.436174 483.193027 
L 121.058954 483.043076 
L 122.783743 481.371914 
L 123.821894 479.550802 
L 124.142094 478.222474 
L 124.243697 477.729689 
L 124.192874 475.908577 
L 124.142094 475.702353 
L 123.67884 474.087465 
L 122.658685 472.266352 
L 121.058954 470.44524 
L 121.058954 470.44524 
L 117.975814 470.126485 
L 117.696746 470.44524 
L 116.267272 472.266352 
L 115.190308 474.087465 
L 114.892674 474.903484 
L 114.68237 475.908577 
L 114.584399 477.729689 
L 114.79236 479.550802 
L 114.892674 479.908318 
L 115.694169 481.371914 
L 117.396414 483.193027 
z
" clip-path="url(#p604b85c66e)" style="fill: #198c19; fill-opacity: 0.5"/>
   </g>
   <g id="matplotlib.axis_1">
    <g id="xtick_1">
     <g id="line2d_1">
      <defs>
       <path id="mf598fec825" d="M 0 0 
L 0 3.5 
" style="stroke: #000000; stroke-width: 0.8"/>
      </defs>
      <g>
       <use xlink:href="#mf598fec825" x="108.471241" y="499.48" style="stroke: #000000; stroke-width: 0.8"/>
      </g>
     </g>
     <g id="text_1">
      <!-- 0 -->
      <g transform="translate(101.472491 523.196563) scale(0.22 -0.22)">
       <defs>
        <path id="DejaVuSans-30" d="M 2034 4250 
Q 1547 4250 1301 3770 
Q 1056 3291 1056 2328 
Q 1056 1369 1301 889 
Q 1547 409 2034 409 
Q 2525 409 2770 889 
Q 3016 1369 3016 2328 
Q 3016 3291 2770 3770 
Q 2525 4250 2034 4250 
z
M 2034 4750 
Q 2819 4750 3233 4129 
Q 3647 3509 3647 2328 
Q 3647 1150 3233 529 
Q 2819 -91 2034 -91 
Q 1250 -91 836 529 
Q 422 1150 422 2328 
Q 422 3509 836 4129 
Q 1250 4750 2034 4750 
z
" transform="scale(0.015625)"/>
       </defs>
       <use xlink:href="#DejaVuSans-30"/>
      </g>
     </g>
    </g>
    <g id="xtick_2">
     <g id="line2d_2">
      <g>
       <use xlink:href="#mf598fec825" x="212.122856" y="499.48" style="stroke: #000000; stroke-width: 0.8"/>
      </g>
     </g>
     <g id="text_2">
      <!-- 20 -->
      <g transform="translate(198.125356 523.196563) scale(0.22 -0.22)">
       <defs>
        <path id="DejaVuSans-32" d="M 1228 531 
L 3431 531 
L 3431 0 
L 469 0 
L 469 531 
Q 828 903 1448 1529 
Q 2069 2156 2228 2338 
Q 2531 2678 2651 2914 
Q 2772 3150 2772 3378 
Q 2772 3750 2511 3984 
Q 2250 4219 1831 4219 
Q 1534 4219 1204 4116 
Q 875 4013 500 3803 
L 500 4441 
Q 881 4594 1212 4672 
Q 1544 4750 1819 4750 
Q 2544 4750 2975 4387 
Q 3406 4025 3406 3419 
Q 3406 3131 3298 2873 
Q 3191 2616 2906 2266 
Q 2828 2175 2409 1742 
Q 1991 1309 1228 531 
z
" transform="scale(0.015625)"/>
       </defs>
       <use xlink:href="#DejaVuSans-32"/>
       <use xlink:href="#DejaVuSans-30" x="63.623047"/>
      </g>
     </g>
    </g>
    <g id="xtick_3">
     <g id="line2d_3">
      <g>
       <use xlink:href="#mf598fec825" x="315.774471" y="499.48" style="stroke: #000000; stroke-width: 0.8"/>
      </g>
     </g>
     <g id="text_3">
      <!-- 40 -->
      <g transform="translate(301.776971 523.196563) scale(0.22 -0.22)">
       <defs>
        <path id="DejaVuSans-34" d="M 2419 4116 
L 825 1625 
L 2419 1625 
L 2419 4116 
z
M 2253 4666 
L 3047 4666 
L 3047 1625 
L 3713 1625 
L 3713 1100 
L 3047 1100 
L 3047 0 
L 2419 0 
L 2419 1100 
L 313 1100 
L 313 1709 
L 2253 4666 
z
" transform="scale(0.015625)"/>
       </defs>
       <use xlink:href="#DejaVuSans-34"/>
       <use xlink:href="#DejaVuSans-30" x="63.623047"/>
      </g>
     </g>
    </g>
    <g id="xtick_4">
     <g id="line2d_4">
      <g>
       <use xlink:href="#mf598fec825" x="419.426086" y="499.48" style="stroke: #000000; stroke-width: 0.8"/>
      </g>
     </g>
     <g id="text_4">
      <!-- 60 -->
      <g transform="translate(405.428586 523.196563) scale(0.22 -0.22)">
       <defs>
        <path id="DejaVuSans-36" d="M 2113 2584 
Q 1688 2584 1439 2293 
Q 1191 2003 1191 1497 
Q 1191 994 1439 701 
Q 1688 409 2113 409 
Q 2538 409 2786 701 
Q 3034 994 3034 1497 
Q 3034 2003 2786 2293 
Q 2538 2584 2113 2584 
z
M 3366 4563 
L 3366 3988 
Q 3128 4100 2886 4159 
Q 2644 4219 2406 4219 
Q 1781 4219 1451 3797 
Q 1122 3375 1075 2522 
Q 1259 2794 1537 2939 
Q 1816 3084 2150 3084 
Q 2853 3084 3261 2657 
Q 3669 2231 3669 1497 
Q 3669 778 3244 343 
Q 2819 -91 2113 -91 
Q 1303 -91 875 529 
Q 447 1150 447 2328 
Q 447 3434 972 4092 
Q 1497 4750 2381 4750 
Q 2619 4750 2861 4703 
Q 3103 4656 3366 4563 
z
" transform="scale(0.015625)"/>
       </defs>
       <use xlink:href="#DejaVuSans-36"/>
       <use xlink:href="#DejaVuSans-30" x="63.623047"/>
      </g>
     </g>
    </g>
    <g id="xtick_5">
     <g id="line2d_5">
      <g>
       <use xlink:href="#mf598fec825" x="523.077701" y="499.48" style="stroke: #000000; stroke-width: 0.8"/>
      </g>
     </g>
     <g id="text_5">
      <!-- 80 -->
      <g transform="translate(509.080201 523.196563) scale(0.22 -0.22)">
       <defs>
        <path id="DejaVuSans-38" d="M 2034 2216 
Q 1584 2216 1326 1975 
Q 1069 1734 1069 1313 
Q 1069 891 1326 650 
Q 1584 409 2034 409 
Q 2484 409 2743 651 
Q 3003 894 3003 1313 
Q 3003 1734 2745 1975 
Q 2488 2216 2034 2216 
z
M 1403 2484 
Q 997 2584 770 2862 
Q 544 3141 544 3541 
Q 544 4100 942 4425 
Q 1341 4750 2034 4750 
Q 2731 4750 3128 4425 
Q 3525 4100 3525 3541 
Q 3525 3141 3298 2862 
Q 3072 2584 2669 2484 
Q 3125 2378 3379 2068 
Q 3634 1759 3634 1313 
Q 3634 634 3220 271 
Q 2806 -91 2034 -91 
Q 1263 -91 848 271 
Q 434 634 434 1313 
Q 434 1759 690 2068 
Q 947 2378 1403 2484 
z
M 1172 3481 
Q 1172 3119 1398 2916 
Q 1625 2713 2034 2713 
Q 2441 2713 2670 2916 
Q 2900 3119 2900 3481 
Q 2900 3844 2670 4047 
Q 2441 4250 2034 4250 
Q 1625 4250 1398 4047 
Q 1172 3844 1172 3481 
z
" transform="scale(0.015625)"/>
       </defs>
       <use xlink:href="#DejaVuSans-38"/>
       <use xlink:href="#DejaVuSans-30" x="63.623047"/>
      </g>
     </g>
    </g>
    <g id="xtick_6">
     <g id="line2d_6">
      <g>
       <use xlink:href="#mf598fec825" x="626.729316" y="499.48" style="stroke: #000000; stroke-width: 0.8"/>
      </g>
     </g>
     <g id="text_6">
      <!-- 100 -->
      <g transform="translate(605.733066 523.196563) scale(0.22 -0.22)">
       <defs>
        <path id="DejaVuSans-31" d="M 794 531 
L 1825 531 
L 1825 4091 
L 703 3866 
L 703 4441 
L 1819 4666 
L 2450 4666 
L 2450 531 
L 3481 531 
L 3481 0 
L 794 0 
L 794 531 
z
" transform="scale(0.015625)"/>
       </defs>
       <use xlink:href="#DejaVuSans-31"/>
       <use xlink:href="#DejaVuSans-30" x="63.623047"/>
       <use xlink:href="#DejaVuSans-30" x="127.246094"/>
      </g>
     </g>
    </g>
    <g id="text_7">
     <!-- Force Uncertainties -->
     <g transform="translate(290.446094 548.488438) scale(0.22 -0.22)">
      <defs>
       <path id="DejaVuSans-46" d="M 628 4666 
L 3309 4666 
L 3309 4134 
L 1259 4134 
L 1259 2759 
L 3109 2759 
L 3109 2228 
L 1259 2228 
L 1259 0 
L 628 0 
L 628 4666 
z
" transform="scale(0.015625)"/>
       <path id="DejaVuSans-6f" d="M 1959 3097 
Q 1497 3097 1228 2736 
Q 959 2375 959 1747 
Q 959 1119 1226 758 
Q 1494 397 1959 397 
Q 2419 397 2687 759 
Q 2956 1122 2956 1747 
Q 2956 2369 2687 2733 
Q 2419 3097 1959 3097 
z
M 1959 3584 
Q 2709 3584 3137 3096 
Q 3566 2609 3566 1747 
Q 3566 888 3137 398 
Q 2709 -91 1959 -91 
Q 1206 -91 779 398 
Q 353 888 353 1747 
Q 353 2609 779 3096 
Q 1206 3584 1959 3584 
z
" transform="scale(0.015625)"/>
       <path id="DejaVuSans-72" d="M 2631 2963 
Q 2534 3019 2420 3045 
Q 2306 3072 2169 3072 
Q 1681 3072 1420 2755 
Q 1159 2438 1159 1844 
L 1159 0 
L 581 0 
L 581 3500 
L 1159 3500 
L 1159 2956 
Q 1341 3275 1631 3429 
Q 1922 3584 2338 3584 
Q 2397 3584 2469 3576 
Q 2541 3569 2628 3553 
L 2631 2963 
z
" transform="scale(0.015625)"/>
       <path id="DejaVuSans-63" d="M 3122 3366 
L 3122 2828 
Q 2878 2963 2633 3030 
Q 2388 3097 2138 3097 
Q 1578 3097 1268 2742 
Q 959 2388 959 1747 
Q 959 1106 1268 751 
Q 1578 397 2138 397 
Q 2388 397 2633 464 
Q 2878 531 3122 666 
L 3122 134 
Q 2881 22 2623 -34 
Q 2366 -91 2075 -91 
Q 1284 -91 818 406 
Q 353 903 353 1747 
Q 353 2603 823 3093 
Q 1294 3584 2113 3584 
Q 2378 3584 2631 3529 
Q 2884 3475 3122 3366 
z
" transform="scale(0.015625)"/>
       <path id="DejaVuSans-65" d="M 3597 1894 
L 3597 1613 
L 953 1613 
Q 991 1019 1311 708 
Q 1631 397 2203 397 
Q 2534 397 2845 478 
Q 3156 559 3463 722 
L 3463 178 
Q 3153 47 2828 -22 
Q 2503 -91 2169 -91 
Q 1331 -91 842 396 
Q 353 884 353 1716 
Q 353 2575 817 3079 
Q 1281 3584 2069 3584 
Q 2775 3584 3186 3129 
Q 3597 2675 3597 1894 
z
M 3022 2063 
Q 3016 2534 2758 2815 
Q 2500 3097 2075 3097 
Q 1594 3097 1305 2825 
Q 1016 2553 972 2059 
L 3022 2063 
z
" transform="scale(0.015625)"/>
       <path id="DejaVuSans-20" transform="scale(0.015625)"/>
       <path id="DejaVuSans-55" d="M 556 4666 
L 1191 4666 
L 1191 1831 
Q 1191 1081 1462 751 
Q 1734 422 2344 422 
Q 2950 422 3222 751 
Q 3494 1081 3494 1831 
L 3494 4666 
L 4128 4666 
L 4128 1753 
Q 4128 841 3676 375 
Q 3225 -91 2344 -91 
Q 1459 -91 1007 375 
Q 556 841 556 1753 
L 556 4666 
z
" transform="scale(0.015625)"/>
       <path id="DejaVuSans-6e" d="M 3513 2113 
L 3513 0 
L 2938 0 
L 2938 2094 
Q 2938 2591 2744 2837 
Q 2550 3084 2163 3084 
Q 1697 3084 1428 2787 
Q 1159 2491 1159 1978 
L 1159 0 
L 581 0 
L 581 3500 
L 1159 3500 
L 1159 2956 
Q 1366 3272 1645 3428 
Q 1925 3584 2291 3584 
Q 2894 3584 3203 3211 
Q 3513 2838 3513 2113 
z
" transform="scale(0.015625)"/>
       <path id="DejaVuSans-74" d="M 1172 4494 
L 1172 3500 
L 2356 3500 
L 2356 3053 
L 1172 3053 
L 1172 1153 
Q 1172 725 1289 603 
Q 1406 481 1766 481 
L 2356 481 
L 2356 0 
L 1766 0 
Q 1100 0 847 248 
Q 594 497 594 1153 
L 594 3053 
L 172 3053 
L 172 3500 
L 594 3500 
L 594 4494 
L 1172 4494 
z
" transform="scale(0.015625)"/>
       <path id="DejaVuSans-61" d="M 2194 1759 
Q 1497 1759 1228 1600 
Q 959 1441 959 1056 
Q 959 750 1161 570 
Q 1363 391 1709 391 
Q 2188 391 2477 730 
Q 2766 1069 2766 1631 
L 2766 1759 
L 2194 1759 
z
M 3341 1997 
L 3341 0 
L 2766 0 
L 2766 531 
Q 2569 213 2275 61 
Q 1981 -91 1556 -91 
Q 1019 -91 701 211 
Q 384 513 384 1019 
Q 384 1609 779 1909 
Q 1175 2209 1959 2209 
L 2766 2209 
L 2766 2266 
Q 2766 2663 2505 2880 
Q 2244 3097 1772 3097 
Q 1472 3097 1187 3025 
Q 903 2953 641 2809 
L 641 3341 
Q 956 3463 1253 3523 
Q 1550 3584 1831 3584 
Q 2591 3584 2966 3190 
Q 3341 2797 3341 1997 
z
" transform="scale(0.015625)"/>
       <path id="DejaVuSans-69" d="M 603 3500 
L 1178 3500 
L 1178 0 
L 603 0 
L 603 3500 
z
M 603 4863 
L 1178 4863 
L 1178 4134 
L 603 4134 
L 603 4863 
z
" transform="scale(0.015625)"/>
       <path id="DejaVuSans-73" d="M 2834 3397 
L 2834 2853 
Q 2591 2978 2328 3040 
Q 2066 3103 1784 3103 
Q 1356 3103 1142 2972 
Q 928 2841 928 2578 
Q 928 2378 1081 2264 
Q 1234 2150 1697 2047 
L 1894 2003 
Q 2506 1872 2764 1633 
Q 3022 1394 3022 966 
Q 3022 478 2636 193 
Q 2250 -91 1575 -91 
Q 1294 -91 989 -36 
Q 684 19 347 128 
L 347 722 
Q 666 556 975 473 
Q 1284 391 1588 391 
Q 1994 391 2212 530 
Q 2431 669 2431 922 
Q 2431 1156 2273 1281 
Q 2116 1406 1581 1522 
L 1381 1569 
Q 847 1681 609 1914 
Q 372 2147 372 2553 
Q 372 3047 722 3315 
Q 1072 3584 1716 3584 
Q 2034 3584 2315 3537 
Q 2597 3491 2834 3397 
z
" transform="scale(0.015625)"/>
      </defs>
      <use xlink:href="#DejaVuSans-46"/>
      <use xlink:href="#DejaVuSans-6f" x="53.894531"/>
      <use xlink:href="#DejaVuSans-72" x="115.076172"/>
      <use xlink:href="#DejaVuSans-63" x="153.939453"/>
      <use xlink:href="#DejaVuSans-65" x="208.919922"/>
      <use xlink:href="#DejaVuSans-20" x="270.443359"/>
      <use xlink:href="#DejaVuSans-55" x="302.230469"/>
      <use xlink:href="#DejaVuSans-6e" x="375.423828"/>
      <use xlink:href="#DejaVuSans-63" x="438.802734"/>
      <use xlink:href="#DejaVuSans-65" x="493.783203"/>
      <use xlink:href="#DejaVuSans-72" x="555.306641"/>
      <use xlink:href="#DejaVuSans-74" x="596.419922"/>
      <use xlink:href="#DejaVuSans-61" x="635.628906"/>
      <use xlink:href="#DejaVuSans-69" x="696.908203"/>
      <use xlink:href="#DejaVuSans-6e" x="724.691406"/>
      <use xlink:href="#DejaVuSans-74" x="788.070312"/>
      <use xlink:href="#DejaVuSans-69" x="827.279297"/>
      <use xlink:href="#DejaVuSans-65" x="855.0625"/>
      <use xlink:href="#DejaVuSans-73" x="916.585938"/>
     </g>
    </g>
   </g>
   <g id="matplotlib.axis_2">
    <g id="ytick_1">
     <g id="line2d_7">
      <defs>
       <path id="m99de5e2284" d="M 0 0 
L -3.5 0 
" style="stroke: #000000; stroke-width: 0.8"/>
      </defs>
      <g>
       <use xlink:href="#m99de5e2284" x="97.76" y="490.965845" style="stroke: #000000; stroke-width: 0.8"/>
      </g>
     </g>
     <g id="text_8">
      <!-- 0 -->
      <g transform="translate(76.7625 499.324126) scale(0.22 -0.22)">
       <use xlink:href="#DejaVuSans-30"/>
      </g>
     </g>
    </g>
    <g id="ytick_2">
     <g id="line2d_8">
      <g>
       <use xlink:href="#m99de5e2284" x="97.76" y="408.575211" style="stroke: #000000; stroke-width: 0.8"/>
      </g>
     </g>
     <g id="text_9">
      <!-- 20 -->
      <g transform="translate(62.765 416.933493) scale(0.22 -0.22)">
       <use xlink:href="#DejaVuSans-32"/>
       <use xlink:href="#DejaVuSans-30" x="63.623047"/>
      </g>
     </g>
    </g>
    <g id="ytick_3">
     <g id="line2d_9">
      <g>
       <use xlink:href="#m99de5e2284" x="97.76" y="326.184578" style="stroke: #000000; stroke-width: 0.8"/>
      </g>
     </g>
     <g id="text_10">
      <!-- 40 -->
      <g transform="translate(62.765 334.542859) scale(0.22 -0.22)">
       <use xlink:href="#DejaVuSans-34"/>
       <use xlink:href="#DejaVuSans-30" x="63.623047"/>
      </g>
     </g>
    </g>
    <g id="ytick_4">
     <g id="line2d_10">
      <g>
       <use xlink:href="#m99de5e2284" x="97.76" y="243.793945" style="stroke: #000000; stroke-width: 0.8"/>
      </g>
     </g>
     <g id="text_11">
      <!-- 60 -->
      <g transform="translate(62.765 252.152226) scale(0.22 -0.22)">
       <use xlink:href="#DejaVuSans-36"/>
       <use xlink:href="#DejaVuSans-30" x="63.623047"/>
      </g>
     </g>
    </g>
    <g id="ytick_5">
     <g id="line2d_11">
      <g>
       <use xlink:href="#m99de5e2284" x="97.76" y="161.403311" style="stroke: #000000; stroke-width: 0.8"/>
      </g>
     </g>
     <g id="text_12">
      <!-- 80 -->
      <g transform="translate(62.765 169.761593) scale(0.22 -0.22)">
       <use xlink:href="#DejaVuSans-38"/>
       <use xlink:href="#DejaVuSans-30" x="63.623047"/>
      </g>
     </g>
    </g>
    <g id="ytick_6">
     <g id="line2d_12">
      <g>
       <use xlink:href="#m99de5e2284" x="97.76" y="79.012678" style="stroke: #000000; stroke-width: 0.8"/>
      </g>
     </g>
     <g id="text_13">
      <!-- 100 -->
      <g transform="translate(48.7675 87.370959) scale(0.22 -0.22)">
       <use xlink:href="#DejaVuSans-31"/>
       <use xlink:href="#DejaVuSans-30" x="63.623047"/>
       <use xlink:href="#DejaVuSans-30" x="127.246094"/>
      </g>
     </g>
    </g>
    <g id="text_14">
     <!-- Energy Errors[kJ/mol] -->
     <g transform="translate(40.192188 378.572344) rotate(-90) scale(0.22 -0.22)">
      <defs>
       <path id="DejaVuSans-45" d="M 628 4666 
L 3578 4666 
L 3578 4134 
L 1259 4134 
L 1259 2753 
L 3481 2753 
L 3481 2222 
L 1259 2222 
L 1259 531 
L 3634 531 
L 3634 0 
L 628 0 
L 628 4666 
z
" transform="scale(0.015625)"/>
       <path id="DejaVuSans-67" d="M 2906 1791 
Q 2906 2416 2648 2759 
Q 2391 3103 1925 3103 
Q 1463 3103 1205 2759 
Q 947 2416 947 1791 
Q 947 1169 1205 825 
Q 1463 481 1925 481 
Q 2391 481 2648 825 
Q 2906 1169 2906 1791 
z
M 3481 434 
Q 3481 -459 3084 -895 
Q 2688 -1331 1869 -1331 
Q 1566 -1331 1297 -1286 
Q 1028 -1241 775 -1147 
L 775 -588 
Q 1028 -725 1275 -790 
Q 1522 -856 1778 -856 
Q 2344 -856 2625 -561 
Q 2906 -266 2906 331 
L 2906 616 
Q 2728 306 2450 153 
Q 2172 0 1784 0 
Q 1141 0 747 490 
Q 353 981 353 1791 
Q 353 2603 747 3093 
Q 1141 3584 1784 3584 
Q 2172 3584 2450 3431 
Q 2728 3278 2906 2969 
L 2906 3500 
L 3481 3500 
L 3481 434 
z
" transform="scale(0.015625)"/>
       <path id="DejaVuSans-79" d="M 2059 -325 
Q 1816 -950 1584 -1140 
Q 1353 -1331 966 -1331 
L 506 -1331 
L 506 -850 
L 844 -850 
Q 1081 -850 1212 -737 
Q 1344 -625 1503 -206 
L 1606 56 
L 191 3500 
L 800 3500 
L 1894 763 
L 2988 3500 
L 3597 3500 
L 2059 -325 
z
" transform="scale(0.015625)"/>
       <path id="DejaVuSans-5b" d="M 550 4863 
L 1875 4863 
L 1875 4416 
L 1125 4416 
L 1125 -397 
L 1875 -397 
L 1875 -844 
L 550 -844 
L 550 4863 
z
" transform="scale(0.015625)"/>
       <path id="DejaVuSans-6b" d="M 581 4863 
L 1159 4863 
L 1159 1991 
L 2875 3500 
L 3609 3500 
L 1753 1863 
L 3688 0 
L 2938 0 
L 1159 1709 
L 1159 0 
L 581 0 
L 581 4863 
z
" transform="scale(0.015625)"/>
       <path id="DejaVuSans-4a" d="M 628 4666 
L 1259 4666 
L 1259 325 
Q 1259 -519 939 -900 
Q 619 -1281 -91 -1281 
L -331 -1281 
L -331 -750 
L -134 -750 
Q 284 -750 456 -515 
Q 628 -281 628 325 
L 628 4666 
z
" transform="scale(0.015625)"/>
       <path id="DejaVuSans-2f" d="M 1625 4666 
L 2156 4666 
L 531 -594 
L 0 -594 
L 1625 4666 
z
" transform="scale(0.015625)"/>
       <path id="DejaVuSans-6d" d="M 3328 2828 
Q 3544 3216 3844 3400 
Q 4144 3584 4550 3584 
Q 5097 3584 5394 3201 
Q 5691 2819 5691 2113 
L 5691 0 
L 5113 0 
L 5113 2094 
Q 5113 2597 4934 2840 
Q 4756 3084 4391 3084 
Q 3944 3084 3684 2787 
Q 3425 2491 3425 1978 
L 3425 0 
L 2847 0 
L 2847 2094 
Q 2847 2600 2669 2842 
Q 2491 3084 2119 3084 
Q 1678 3084 1418 2786 
Q 1159 2488 1159 1978 
L 1159 0 
L 581 0 
L 581 3500 
L 1159 3500 
L 1159 2956 
Q 1356 3278 1631 3431 
Q 1906 3584 2284 3584 
Q 2666 3584 2933 3390 
Q 3200 3197 3328 2828 
z
" transform="scale(0.015625)"/>
       <path id="DejaVuSans-6c" d="M 603 4863 
L 1178 4863 
L 1178 0 
L 603 0 
L 603 4863 
z
" transform="scale(0.015625)"/>
       <path id="DejaVuSans-5d" d="M 1947 4863 
L 1947 -844 
L 622 -844 
L 622 -397 
L 1369 -397 
L 1369 4416 
L 622 4416 
L 622 4863 
L 1947 4863 
z
" transform="scale(0.015625)"/>
      </defs>
      <use xlink:href="#DejaVuSans-45"/>
      <use xlink:href="#DejaVuSans-6e" x="63.183594"/>
      <use xlink:href="#DejaVuSans-65" x="126.5625"/>
      <use xlink:href="#DejaVuSans-72" x="188.085938"/>
      <use xlink:href="#DejaVuSans-67" x="227.449219"/>
      <use xlink:href="#DejaVuSans-79" x="290.925781"/>
      <use xlink:href="#DejaVuSans-20" x="350.105469"/>
      <use xlink:href="#DejaVuSans-45" x="381.892578"/>
      <use xlink:href="#DejaVuSans-72" x="445.076172"/>
      <use xlink:href="#DejaVuSans-72" x="484.439453"/>
      <use xlink:href="#DejaVuSans-6f" x="523.302734"/>
      <use xlink:href="#DejaVuSans-72" x="584.484375"/>
      <use xlink:href="#DejaVuSans-73" x="625.597656"/>
      <use xlink:href="#DejaVuSans-5b" x="677.697266"/>
      <use xlink:href="#DejaVuSans-6b" x="716.710938"/>
      <use xlink:href="#DejaVuSans-4a" x="774.621094"/>
      <use xlink:href="#DejaVuSans-2f" x="804.113281"/>
      <use xlink:href="#DejaVuSans-6d" x="837.804688"/>
      <use xlink:href="#DejaVuSans-6f" x="935.216797"/>
      <use xlink:href="#DejaVuSans-6c" x="996.398438"/>
      <use xlink:href="#DejaVuSans-5d" x="1024.181641"/>
     </g>
    </g>
   </g>
   <g id="line2d_13">
    <path d="M 97.76 499.48 
L 696.24 23.76 
" clip-path="url(#p604b85c66e)" style="fill: none; stroke-dasharray: 5.55,2.4; stroke-dashoffset: 0; stroke: #ff0000; stroke-width: 1.5"/>
   </g>
   <g id="patch_3">
    <path d="M 97.76 499.48 
L 97.76 23.76 
" style="fill: none; stroke: #000000; stroke-width: 0.8; stroke-linejoin: miter; stroke-linecap: square"/>
   </g>
   <g id="patch_4">
    <path d="M 696.24 499.48 
L 696.24 23.76 
" style="fill: none; stroke: #000000; stroke-width: 0.8; stroke-linejoin: miter; stroke-linecap: square"/>
   </g>
   <g id="patch_5">
    <path d="M 97.76 499.48 
L 696.24 499.48 
" style="fill: none; stroke: #000000; stroke-width: 0.8; stroke-linejoin: miter; stroke-linecap: square"/>
   </g>
   <g id="patch_6">
    <path d="M 97.76 23.76 
L 696.24 23.76 
" style="fill: none; stroke: #000000; stroke-width: 0.8; stroke-linejoin: miter; stroke-linecap: square"/>
   </g>
   <g id="text_15">
    <!-- Correlation in: 0.541 -->
    <g transform="translate(145.6384 46.696812) scale(0.22 -0.22)">
     <defs>
      <path id="DejaVuSans-43" d="M 4122 4306 
L 4122 3641 
Q 3803 3938 3442 4084 
Q 3081 4231 2675 4231 
Q 1875 4231 1450 3742 
Q 1025 3253 1025 2328 
Q 1025 1406 1450 917 
Q 1875 428 2675 428 
Q 3081 428 3442 575 
Q 3803 722 4122 1019 
L 4122 359 
Q 3791 134 3420 21 
Q 3050 -91 2638 -91 
Q 1578 -91 968 557 
Q 359 1206 359 2328 
Q 359 3453 968 4101 
Q 1578 4750 2638 4750 
Q 3056 4750 3426 4639 
Q 3797 4528 4122 4306 
z
" transform="scale(0.015625)"/>
      <path id="DejaVuSans-3a" d="M 750 794 
L 1409 794 
L 1409 0 
L 750 0 
L 750 794 
z
M 750 3309 
L 1409 3309 
L 1409 2516 
L 750 2516 
L 750 3309 
z
" transform="scale(0.015625)"/>
      <path id="DejaVuSans-2e" d="M 684 794 
L 1344 794 
L 1344 0 
L 684 0 
L 684 794 
z
" transform="scale(0.015625)"/>
      <path id="DejaVuSans-35" d="M 691 4666 
L 3169 4666 
L 3169 4134 
L 1269 4134 
L 1269 2991 
Q 1406 3038 1543 3061 
Q 1681 3084 1819 3084 
Q 2600 3084 3056 2656 
Q 3513 2228 3513 1497 
Q 3513 744 3044 326 
Q 2575 -91 1722 -91 
Q 1428 -91 1123 -41 
Q 819 9 494 109 
L 494 744 
Q 775 591 1075 516 
Q 1375 441 1709 441 
Q 2250 441 2565 725 
Q 2881 1009 2881 1497 
Q 2881 1984 2565 2268 
Q 2250 2553 1709 2553 
Q 1456 2553 1204 2497 
Q 953 2441 691 2322 
L 691 4666 
z
" transform="scale(0.015625)"/>
     </defs>
     <use xlink:href="#DejaVuSans-43"/>
     <use xlink:href="#DejaVuSans-6f" x="69.824219"/>
     <use xlink:href="#DejaVuSans-72" x="131.005859"/>
     <use xlink:href="#DejaVuSans-72" x="170.369141"/>
     <use xlink:href="#DejaVuSans-65" x="209.232422"/>
     <use xlink:href="#DejaVuSans-6c" x="270.755859"/>
     <use xlink:href="#DejaVuSans-61" x="298.539062"/>
     <use xlink:href="#DejaVuSans-74" x="359.818359"/>
     <use xlink:href="#DejaVuSans-69" x="399.027344"/>
     <use xlink:href="#DejaVuSans-6f" x="426.810547"/>
     <use xlink:href="#DejaVuSans-6e" x="487.992188"/>
     <use xlink:href="#DejaVuSans-20" x="551.371094"/>
     <use xlink:href="#DejaVuSans-69" x="583.158203"/>
     <use xlink:href="#DejaVuSans-6e" x="610.941406"/>
     <use xlink:href="#DejaVuSans-3a" x="674.320312"/>
     <use xlink:href="#DejaVuSans-20" x="708.011719"/>
     <use xlink:href="#DejaVuSans-30" x="739.798828"/>
     <use xlink:href="#DejaVuSans-2e" x="803.421875"/>
     <use xlink:href="#DejaVuSans-35" x="835.208984"/>
     <use xlink:href="#DejaVuSans-34" x="898.832031"/>
     <use xlink:href="#DejaVuSans-31" x="962.455078"/>
    </g>
    <!-- Correlation Out: 0.141 -->
    <g transform="translate(145.6384 71.332) scale(0.22 -0.22)">
     <defs>
      <path id="DejaVuSans-4f" d="M 2522 4238 
Q 1834 4238 1429 3725 
Q 1025 3213 1025 2328 
Q 1025 1447 1429 934 
Q 1834 422 2522 422 
Q 3209 422 3611 934 
Q 4013 1447 4013 2328 
Q 4013 3213 3611 3725 
Q 3209 4238 2522 4238 
z
M 2522 4750 
Q 3503 4750 4090 4092 
Q 4678 3434 4678 2328 
Q 4678 1225 4090 567 
Q 3503 -91 2522 -91 
Q 1538 -91 948 565 
Q 359 1222 359 2328 
Q 359 3434 948 4092 
Q 1538 4750 2522 4750 
z
" transform="scale(0.015625)"/>
      <path id="DejaVuSans-75" d="M 544 1381 
L 544 3500 
L 1119 3500 
L 1119 1403 
Q 1119 906 1312 657 
Q 1506 409 1894 409 
Q 2359 409 2629 706 
Q 2900 1003 2900 1516 
L 2900 3500 
L 3475 3500 
L 3475 0 
L 2900 0 
L 2900 538 
Q 2691 219 2414 64 
Q 2138 -91 1772 -91 
Q 1169 -91 856 284 
Q 544 659 544 1381 
z
M 1991 3584 
L 1991 3584 
z
" transform="scale(0.015625)"/>
     </defs>
     <use xlink:href="#DejaVuSans-43"/>
     <use xlink:href="#DejaVuSans-6f" x="69.824219"/>
     <use xlink:href="#DejaVuSans-72" x="131.005859"/>
     <use xlink:href="#DejaVuSans-72" x="170.369141"/>
     <use xlink:href="#DejaVuSans-65" x="209.232422"/>
     <use xlink:href="#DejaVuSans-6c" x="270.755859"/>
     <use xlink:href="#DejaVuSans-61" x="298.539062"/>
     <use xlink:href="#DejaVuSans-74" x="359.818359"/>
     <use xlink:href="#DejaVuSans-69" x="399.027344"/>
     <use xlink:href="#DejaVuSans-6f" x="426.810547"/>
     <use xlink:href="#DejaVuSans-6e" x="487.992188"/>
     <use xlink:href="#DejaVuSans-20" x="551.371094"/>
     <use xlink:href="#DejaVuSans-4f" x="583.158203"/>
     <use xlink:href="#DejaVuSans-75" x="661.869141"/>
     <use xlink:href="#DejaVuSans-74" x="725.248047"/>
     <use xlink:href="#DejaVuSans-3a" x="764.457031"/>
     <use xlink:href="#DejaVuSans-20" x="798.148438"/>
     <use xlink:href="#DejaVuSans-30" x="829.935547"/>
     <use xlink:href="#DejaVuSans-2e" x="893.558594"/>
     <use xlink:href="#DejaVuSans-31" x="925.345703"/>
     <use xlink:href="#DejaVuSans-34" x="988.96875"/>
     <use xlink:href="#DejaVuSans-31" x="1052.591797"/>
    </g>
   </g>
   <g id="legend_1">
    <g id="patch_7">
     <path d="M 407.0225 105.94375 
L 680.84 105.94375 
Q 685.24 105.94375 685.24 101.54375 
L 685.24 39.16 
Q 685.24 34.76 680.84 34.76 
L 407.0225 34.76 
Q 402.6225 34.76 402.6225 39.16 
L 402.6225 101.54375 
Q 402.6225 105.94375 407.0225 105.94375 
z
" style="fill: #ffffff; opacity: 0.8; stroke: #cccccc; stroke-linejoin: miter"/>
    </g>
    <g id="line2d_14">
     <defs>
      <path id="mfb3e84612f" d="M 0 2.5 
C 0.663008 2.5 1.29895 2.236584 1.767767 1.767767 
C 2.236584 1.29895 2.5 0.663008 2.5 0 
C 2.5 -0.663008 2.236584 -1.29895 1.767767 -1.767767 
C 1.29895 -2.236584 0.663008 -2.5 0 -2.5 
C -0.663008 -2.5 -1.29895 -2.236584 -1.767767 -1.767767 
C -2.236584 -1.29895 -2.5 -0.663008 -2.5 0 
C -2.5 0.663008 -2.236584 1.29895 -1.767767 1.767767 
C -1.29895 2.236584 -0.663008 2.5 0 2.5 
z
" style="stroke: #ffffff"/>
     </defs>
     <g>
      <use xlink:href="#mfb3e84612f" x="433.4225" y="52.576562" style="fill: #0000ff; stroke: #ffffff"/>
     </g>
    </g>
    <g id="text_16">
     <!-- In Distribution -->
     <g transform="translate(473.0225 60.276562) scale(0.22 -0.22)">
      <defs>
       <path id="DejaVuSans-49" d="M 628 4666 
L 1259 4666 
L 1259 0 
L 628 0 
L 628 4666 
z
" transform="scale(0.015625)"/>
       <path id="DejaVuSans-44" d="M 1259 4147 
L 1259 519 
L 2022 519 
Q 2988 519 3436 956 
Q 3884 1394 3884 2338 
Q 3884 3275 3436 3711 
Q 2988 4147 2022 4147 
L 1259 4147 
z
M 628 4666 
L 1925 4666 
Q 3281 4666 3915 4102 
Q 4550 3538 4550 2338 
Q 4550 1131 3912 565 
Q 3275 0 1925 0 
L 628 0 
L 628 4666 
z
" transform="scale(0.015625)"/>
       <path id="DejaVuSans-62" d="M 3116 1747 
Q 3116 2381 2855 2742 
Q 2594 3103 2138 3103 
Q 1681 3103 1420 2742 
Q 1159 2381 1159 1747 
Q 1159 1113 1420 752 
Q 1681 391 2138 391 
Q 2594 391 2855 752 
Q 3116 1113 3116 1747 
z
M 1159 2969 
Q 1341 3281 1617 3432 
Q 1894 3584 2278 3584 
Q 2916 3584 3314 3078 
Q 3713 2572 3713 1747 
Q 3713 922 3314 415 
Q 2916 -91 2278 -91 
Q 1894 -91 1617 61 
Q 1341 213 1159 525 
L 1159 0 
L 581 0 
L 581 4863 
L 1159 4863 
L 1159 2969 
z
" transform="scale(0.015625)"/>
      </defs>
      <use xlink:href="#DejaVuSans-49"/>
      <use xlink:href="#DejaVuSans-6e" x="29.492188"/>
      <use xlink:href="#DejaVuSans-20" x="92.871094"/>
      <use xlink:href="#DejaVuSans-44" x="124.658203"/>
      <use xlink:href="#DejaVuSans-69" x="201.660156"/>
      <use xlink:href="#DejaVuSans-73" x="229.443359"/>
      <use xlink:href="#DejaVuSans-74" x="281.542969"/>
      <use xlink:href="#DejaVuSans-72" x="320.751953"/>
      <use xlink:href="#DejaVuSans-69" x="361.865234"/>
      <use xlink:href="#DejaVuSans-62" x="389.648438"/>
      <use xlink:href="#DejaVuSans-75" x="453.125"/>
      <use xlink:href="#DejaVuSans-74" x="516.503906"/>
      <use xlink:href="#DejaVuSans-69" x="555.712891"/>
      <use xlink:href="#DejaVuSans-6f" x="583.496094"/>
      <use xlink:href="#DejaVuSans-6e" x="644.677734"/>
     </g>
    </g>
    <g id="line2d_15">
     <defs>
      <path id="m403078af79" d="M 0 2.5 
C 0.663008 2.5 1.29895 2.236584 1.767767 1.767767 
C 2.236584 1.29895 2.5 0.663008 2.5 0 
C 2.5 -0.663008 2.236584 -1.29895 1.767767 -1.767767 
C 1.29895 -2.236584 0.663008 -2.5 0 -2.5 
C -0.663008 -2.5 -1.29895 -2.236584 -1.767767 -1.767767 
C -2.236584 -1.29895 -2.5 -0.663008 -2.5 0 
C -2.5 0.663008 -2.236584 1.29895 -1.767767 1.767767 
C -1.29895 2.236584 -0.663008 2.5 0 2.5 
z
" style="stroke: #ffffff"/>
     </defs>
     <g>
      <use xlink:href="#m403078af79" x="433.4225" y="84.868437" style="fill: #008000; stroke: #ffffff"/>
     </g>
    </g>
    <g id="text_17">
     <!-- Out of Distribution -->
     <g transform="translate(473.0225 92.568437) scale(0.22 -0.22)">
      <defs>
       <path id="DejaVuSans-66" d="M 2375 4863 
L 2375 4384 
L 1825 4384 
Q 1516 4384 1395 4259 
Q 1275 4134 1275 3809 
L 1275 3500 
L 2222 3500 
L 2222 3053 
L 1275 3053 
L 1275 0 
L 697 0 
L 697 3053 
L 147 3053 
L 147 3500 
L 697 3500 
L 697 3744 
Q 697 4328 969 4595 
Q 1241 4863 1831 4863 
L 2375 4863 
z
" transform="scale(0.015625)"/>
      </defs>
      <use xlink:href="#DejaVuSans-4f"/>
      <use xlink:href="#DejaVuSans-75" x="78.710938"/>
      <use xlink:href="#DejaVuSans-74" x="142.089844"/>
      <use xlink:href="#DejaVuSans-20" x="181.298828"/>
      <use xlink:href="#DejaVuSans-6f" x="213.085938"/>
      <use xlink:href="#DejaVuSans-66" x="274.267578"/>
      <use xlink:href="#DejaVuSans-20" x="309.472656"/>
      <use xlink:href="#DejaVuSans-44" x="341.259766"/>
      <use xlink:href="#DejaVuSans-69" x="418.261719"/>
      <use xlink:href="#DejaVuSans-73" x="446.044922"/>
      <use xlink:href="#DejaVuSans-74" x="498.144531"/>
      <use xlink:href="#DejaVuSans-72" x="537.353516"/>
      <use xlink:href="#DejaVuSans-69" x="578.466797"/>
      <use xlink:href="#DejaVuSans-62" x="606.25"/>
      <use xlink:href="#DejaVuSans-75" x="669.726562"/>
      <use xlink:href="#DejaVuSans-74" x="733.105469"/>
      <use xlink:href="#DejaVuSans-69" x="772.314453"/>
      <use xlink:href="#DejaVuSans-6f" x="800.097656"/>
      <use xlink:href="#DejaVuSans-6e" x="861.279297"/>
     </g>
    </g>
   </g>
  </g>
 </g>
 <defs>
  <clipPath id="p604b85c66e">
   <rect x="97.76" y="23.76" width="598.48" height="475.72"/>
  </clipPath>
 </defs>
</svg>
