<?xml version="1.0" encoding="utf-8" standalone="no"?>
<!DOCTYPE svg PUBLIC "-//W3C//DTD SVG 1.1//EN"
  "http://www.w3.org/Graphics/SVG/1.1/DTD/svg11.dtd">
<svg xmlns:xlink="http://www.w3.org/1999/xlink" width="720pt" height="576pt" viewBox="0 0 720 576" xmlns="http://www.w3.org/2000/svg" version="1.1">
 <metadata>
  <rdf:RDF xmlns:dc="http://purl.org/dc/elements/1.1/" xmlns:cc="http://creativecommons.org/ns#" xmlns:rdf="http://www.w3.org/1999/02/22-rdf-syntax-ns#">
   <cc:Work>
    <dc:type rdf:resource="http://purl.org/dc/dcmitype/StillImage"/>
    <dc:date>2024-12-07T22:11:12.379350</dc:date>
    <dc:format>image/svg+xml</dc:format>
    <dc:creator>
     <cc:Agent>
      <dc:title>Matplotlib v3.8.4, https://matplotlib.org/</dc:title>
     </cc:Agent>
    </dc:creator>
   </cc:Work>
  </rdf:RDF>
 </metadata>
 <defs>
  <style type="text/css">*{stroke-linejoin: round; stroke-linecap: butt}</style>
 </defs>
 <g id="figure_1">
  <g id="patch_1">
   <path d="M 0 576 
L 720 576 
L 720 0 
L 0 0 
z
" style="fill: #ffffff"/>
  </g>
  <g id="axes_1">
   <g id="patch_2">
    <path d="M 83.72 499.48 
L 696.24 499.48 
L 696.24 23.76 
L 83.72 23.76 
z
" style="fill: #ffffff"/>
   </g>
   <g id="QuadContourSet_1">
    <path d="M 100.175013 493.638261 
L 101.597669 493.846485 
L 103.020325 494.083635 
L 104.442981 494.3204 
L 105.865637 494.528072 
L 107.288293 494.685709 
L 108.710949 494.782284 
L 110.133605 494.815142 
L 111.556261 494.787045 
L 112.978917 494.703374 
L 114.401573 494.569884 
L 115.824229 494.390572 
L 117.246885 494.165207 
L 118.669541 493.88685 
L 119.918447 493.585708 
L 120.092197 493.563977 
L 121.514853 493.357992 
L 122.937509 493.104226 
L 124.360165 492.791147 
L 125.782821 492.40549 
L 127.205477 491.933316 
L 128.628133 491.362265 
L 129.28123 491.077736 
L 130.050789 490.87757 
L 131.473445 490.477873 
L 132.896101 490.017378 
L 134.318757 489.485687 
L 135.741413 488.863176 
L 136.350971 488.569764 
L 137.164069 488.29658 
L 138.586725 487.739832 
L 140.009381 487.0288 
L 141.432037 486.091256 
L 141.472133 486.061793 
L 142.854693 485.233825 
L 144.277349 484.110835 
L 144.872433 483.553821 
L 145.700005 482.825094 
L 147.122661 481.32236 
L 147.363534 481.045849 
L 148.545317 479.591775 
L 149.327642 478.537877 
L 149.967973 477.4456 
L 150.813756 476.029905 
L 151.390629 474.500254 
L 151.80681 473.521934 
L 152.205861 471.013962 
L 151.761888 468.50599 
L 151.390629 467.847563 
L 150.091094 465.998018 
L 149.967973 465.874529 
L 148.545317 464.545658 
L 147.122661 463.490046 
L 147.122661 463.490046 
L 145.700005 462.580651 
L 144.277349 461.9102 
L 142.854693 461.413539 
L 141.432037 461.027019 
L 141.252956 460.982075 
L 140.009381 460.571467 
L 138.586725 460.13447 
L 137.164069 459.731171 
L 135.741413 459.36657 
L 134.318757 459.048358 
L 132.896101 458.784978 
L 131.473445 458.584696 
L 130.293828 458.474103 
L 130.050789 458.437044 
L 128.628133 458.323163 
L 127.205477 458.317731 
L 125.782821 458.415007 
L 125.350869 458.474103 
L 124.360165 458.545446 
L 122.937509 458.69265 
L 121.514853 458.881361 
L 120.092197 459.106589 
L 118.669541 459.356567 
L 117.246885 459.607354 
L 115.824229 459.820113 
L 114.401573 459.949121 
L 112.978917 459.966927 
L 111.556261 459.892533 
L 110.133605 459.789558 
L 108.710949 459.730253 
L 107.288293 459.763656 
L 105.865637 459.911826 
L 104.442981 460.182618 
L 103.020325 460.58253 
L 101.946201 460.982075 
L 101.597669 461.054793 
L 100.175013 461.406171 
L 98.752357 461.848438 
L 97.329701 462.419768 
L 95.907045 463.179846 
L 95.420577 463.490046 
L 94.484389 463.875935 
L 93.061733 464.632158 
L 91.639077 465.698414 
L 91.296337 465.998018 
L 90.216421 466.710165 
L 88.793765 467.983817 
L 88.302777 468.50599 
L 87.371109 469.372637 
L 86.024427 471.013962 
L 85.948453 471.108225 
L 84.525797 473.019893 
L 84.192871 473.521934 
L 83.103141 475.508026 
L 82.820983 476.029905 
L 81.855384 478.537877 
L 81.680485 479.398392 
L 81.263879 481.045849 
L 81.126506 483.553821 
L 81.554032 486.061793 
L 81.680485 486.374723 
L 82.665152 488.569764 
L 83.103141 489.162257 
L 84.525797 490.636137 
L 85.150907 491.077736 
L 85.948453 491.638867 
L 87.371109 492.351041 
L 88.793765 492.799554 
L 90.216421 493.077158 
L 91.639077 493.244304 
L 93.061733 493.341577 
L 94.484389 493.397799 
L 95.907045 493.43552 
L 97.329701 493.474105 
L 98.752357 493.529913 
L 99.697666 493.585708 
z
M 91.198408 488.569764 
L 90.216421 488.22441 
L 88.793765 487.408152 
L 87.388231 486.061793 
L 87.371109 486.034802 
L 86.167126 483.553821 
L 85.948453 481.098663 
L 85.94362 481.045849 
L 85.948453 481.020406 
L 86.345572 478.537877 
L 87.371109 476.029905 
L 87.371109 476.029905 
L 88.793765 473.725769 
L 88.930513 473.521934 
L 90.216421 471.949783 
L 91.159014 471.013962 
L 91.639077 470.540025 
L 93.061733 469.344314 
L 94.381329 468.50599 
L 94.484389 468.42886 
L 95.907045 467.494172 
L 97.329701 466.794675 
L 98.752357 466.258862 
L 99.616181 465.998018 
L 100.175013 465.7639 
L 101.597669 465.29565 
L 103.020325 464.959377 
L 104.442981 464.736612 
L 105.865637 464.615377 
L 107.288293 464.579613 
L 108.710949 464.597779 
L 110.133605 464.619103 
L 111.556261 464.588452 
L 112.978917 464.474076 
L 114.401573 464.281694 
L 115.824229 464.042289 
L 117.246885 463.79091 
L 118.669541 463.554504 
L 119.109642 463.490046 
L 120.092197 463.265368 
L 121.514853 463.016952 
L 122.937509 462.855288 
L 124.360165 462.781865 
L 125.782821 462.798732 
L 127.205477 462.909241 
L 128.628133 463.116541 
L 130.050789 463.421364 
L 130.311123 463.490046 
L 131.473445 463.726088 
L 132.896101 464.082297 
L 134.318757 464.516687 
L 135.741413 465.041677 
L 137.164069 465.673468 
L 137.815174 465.998018 
L 138.586725 466.402942 
L 140.009381 467.303625 
L 141.432037 468.484951 
L 141.45503 468.50599 
L 142.854693 470.499397 
L 143.173006 471.013962 
L 143.757133 473.521934 
L 143.356054 476.029905 
L 142.854693 476.967499 
L 142.027746 478.537877 
L 141.432037 479.227934 
L 140.009381 480.747044 
L 139.71359 481.045849 
L 138.586725 481.964027 
L 137.164069 482.972122 
L 136.246317 483.553821 
L 135.741413 483.87368 
L 134.318757 484.728323 
L 132.896101 485.46299 
L 131.563067 486.061793 
L 131.473445 486.110135 
L 130.050789 486.863213 
L 128.628133 487.494128 
L 127.205477 488.019698 
L 125.782821 488.456865 
L 125.366202 488.569764 
L 124.360165 488.95438 
L 122.937509 489.402621 
L 121.514853 489.763409 
L 120.092197 490.057982 
L 118.669541 490.301962 
L 117.246885 490.504795 
L 115.824229 490.66988 
L 114.401573 490.795456 
L 112.978917 490.875923 
L 111.556261 490.903384 
L 110.133605 490.869676 
L 108.710949 490.769334 
L 107.288293 490.603616 
L 105.865637 490.384818 
L 104.442981 490.138687 
L 103.020325 489.901252 
L 101.597669 489.707433 
L 100.175013 489.575623 
L 98.752357 489.499152 
L 97.329701 489.450606 
L 95.907045 489.392515 
L 94.484389 489.284395 
L 93.061733 489.082302 
L 91.639077 488.732159 
z
" clip-path="url(#pc0f2f077db)" style="fill: #ebf3fb"/>
    <path d="M 91.639077 488.732159 
L 93.061733 489.082302 
L 94.484389 489.284395 
L 95.907045 489.392515 
L 97.329701 489.450606 
L 98.752357 489.499152 
L 100.175013 489.575623 
L 101.597669 489.707433 
L 103.020325 489.901252 
L 104.442981 490.138687 
L 105.865637 490.384818 
L 107.288293 490.603616 
L 108.710949 490.769334 
L 110.133605 490.869676 
L 111.556261 490.903384 
L 112.978917 490.875923 
L 114.401573 490.795456 
L 115.824229 490.66988 
L 117.246885 490.504795 
L 118.669541 490.301962 
L 120.092197 490.057982 
L 121.514853 489.763409 
L 122.937509 489.402621 
L 124.360165 488.95438 
L 125.366202 488.569764 
L 125.782821 488.456865 
L 127.205477 488.019698 
L 128.628133 487.494128 
L 130.050789 486.863213 
L 131.473445 486.110135 
L 131.563067 486.061793 
L 132.896101 485.46299 
L 134.318757 484.728323 
L 135.741413 483.87368 
L 136.246317 483.553821 
L 137.164069 482.972122 
L 138.586725 481.964027 
L 139.71359 481.045849 
L 140.009381 480.747044 
L 141.432037 479.227934 
L 142.027746 478.537877 
L 142.854693 476.967499 
L 143.356054 476.029905 
L 143.757133 473.521934 
L 143.173006 471.013962 
L 142.854693 470.499397 
L 141.45503 468.50599 
L 141.432037 468.484951 
L 140.009381 467.303625 
L 138.586725 466.402942 
L 137.815174 465.998018 
L 137.164069 465.673468 
L 135.741413 465.041677 
L 134.318757 464.516687 
L 132.896101 464.082297 
L 131.473445 463.726088 
L 130.311123 463.490046 
L 130.050789 463.421364 
L 128.628133 463.116541 
L 127.205477 462.909241 
L 125.782821 462.798732 
L 124.360165 462.781865 
L 122.937509 462.855288 
L 121.514853 463.016952 
L 120.092197 463.265368 
L 119.109642 463.490046 
L 118.669541 463.554504 
L 117.246885 463.79091 
L 115.824229 464.042289 
L 114.401573 464.281694 
L 112.978917 464.474076 
L 111.556261 464.588452 
L 110.133605 464.619103 
L 108.710949 464.597779 
L 107.288293 464.579613 
L 105.865637 464.615377 
L 104.442981 464.736612 
L 103.020325 464.959377 
L 101.597669 465.29565 
L 100.175013 465.7639 
L 99.616181 465.998018 
L 98.752357 466.258862 
L 97.329701 466.794675 
L 95.907045 467.494172 
L 94.484389 468.42886 
L 94.381329 468.50599 
L 93.061733 469.344314 
L 91.639077 470.540025 
L 91.159014 471.013962 
L 90.216421 471.949783 
L 88.930513 473.521934 
L 88.793765 473.725769 
L 87.371109 476.029905 
L 87.371109 476.029905 
L 86.345572 478.537877 
L 85.948453 481.020406 
L 85.94362 481.045849 
L 85.948453 481.098663 
L 86.167126 483.553821 
L 87.371109 486.034802 
L 87.388231 486.061793 
L 88.793765 487.408152 
L 90.216421 488.22441 
L 91.198408 488.569764 
z
M 109.335361 488.569764 
L 108.710949 488.491308 
L 107.288293 488.242204 
L 105.865637 487.943469 
L 104.442981 487.640957 
L 103.020325 487.385535 
L 101.597669 487.209897 
L 100.175013 487.112635 
L 98.752357 487.062072 
L 97.329701 487.011577 
L 95.907045 486.91064 
L 94.484389 486.705426 
L 93.061733 486.330613 
L 92.414258 486.061793 
L 91.639077 485.674683 
L 90.216421 484.492038 
L 89.476746 483.553821 
L 88.793765 481.068136 
L 88.788557 481.045849 
L 88.793765 481.003925 
L 89.059354 478.537877 
L 90.084186 476.029905 
L 90.216421 475.826385 
L 91.639077 473.797632 
L 91.853154 473.521934 
L 93.061733 472.267714 
L 94.484389 471.098136 
L 94.601467 471.013962 
L 95.907045 470.08172 
L 97.329701 469.300905 
L 98.752357 468.697303 
L 99.318292 468.50599 
L 100.175013 468.162365 
L 101.597669 467.740657 
L 103.020325 467.455404 
L 104.442981 467.287908 
L 105.865637 467.218816 
L 107.288293 467.215547 
L 108.710949 467.225483 
L 110.133605 467.187686 
L 111.556261 467.061884 
L 112.978917 466.847758 
L 114.401573 466.575606 
L 115.824229 466.283672 
L 117.246885 466.003497 
L 117.277655 465.998018 
L 118.669541 465.659658 
L 120.092197 465.396474 
L 121.514853 465.224632 
L 122.937509 465.148108 
L 124.360165 465.170065 
L 125.782821 465.293712 
L 127.205477 465.52117 
L 128.628133 465.852028 
L 129.134268 465.998018 
L 130.050789 466.2327 
L 131.473445 466.677847 
L 132.896101 467.232401 
L 134.318757 467.928003 
L 135.296265 468.50599 
L 135.741413 468.840746 
L 137.164069 470.137934 
L 137.945414 471.013962 
L 138.586725 472.722654 
L 138.870808 473.521934 
L 138.61865 476.029905 
L 138.586725 476.090614 
L 137.326883 478.537877 
L 137.164069 478.717414 
L 135.741413 480.261889 
L 134.961662 481.045849 
L 134.318757 481.55652 
L 132.896101 482.611387 
L 131.473445 483.520719 
L 131.420136 483.553821 
L 130.050789 484.391478 
L 128.628133 485.122527 
L 127.205477 485.734566 
L 126.325885 486.061793 
L 125.782821 486.301179 
L 124.360165 486.839577 
L 122.937509 487.276604 
L 121.514853 487.636137 
L 120.092197 487.936314 
L 118.669541 488.189164 
L 117.246885 488.400424 
L 115.824229 488.569764 
L 115.824229 488.569764 
L 114.401573 488.740675 
L 112.978917 488.825141 
L 111.556261 488.812054 
L 110.133605 488.693322 
z
" clip-path="url(#pc0f2f077db)" style="fill: #d4e4f4"/>
    <path d="M 110.133605 488.693322 
L 111.556261 488.812054 
L 112.978917 488.825141 
L 114.401573 488.740675 
L 115.824229 488.569764 
L 115.824229 488.569764 
L 117.246885 488.400424 
L 118.669541 488.189164 
L 120.092197 487.936314 
L 121.514853 487.636137 
L 122.937509 487.276604 
L 124.360165 486.839577 
L 125.782821 486.301179 
L 126.325885 486.061793 
L 127.205477 485.734566 
L 128.628133 485.122527 
L 130.050789 484.391478 
L 131.420136 483.553821 
L 131.473445 483.520719 
L 132.896101 482.611387 
L 134.318757 481.55652 
L 134.961662 481.045849 
L 135.741413 480.261889 
L 137.164069 478.717414 
L 137.326883 478.537877 
L 138.586725 476.090614 
L 138.61865 476.029905 
L 138.870808 473.521934 
L 138.586725 472.722654 
L 137.945414 471.013962 
L 137.164069 470.137934 
L 135.741413 468.840746 
L 135.296265 468.50599 
L 134.318757 467.928003 
L 132.896101 467.232401 
L 131.473445 466.677847 
L 130.050789 466.2327 
L 129.134268 465.998018 
L 128.628133 465.852028 
L 127.205477 465.52117 
L 125.782821 465.293712 
L 124.360165 465.170065 
L 122.937509 465.148108 
L 121.514853 465.224632 
L 120.092197 465.396474 
L 118.669541 465.659658 
L 117.277655 465.998018 
L 117.246885 466.003497 
L 115.824229 466.283672 
L 114.401573 466.575606 
L 112.978917 466.847758 
L 111.556261 467.061884 
L 110.133605 467.187686 
L 108.710949 467.225483 
L 107.288293 467.215547 
L 105.865637 467.218816 
L 104.442981 467.287908 
L 103.020325 467.455404 
L 101.597669 467.740657 
L 100.175013 468.162365 
L 99.318292 468.50599 
L 98.752357 468.697303 
L 97.329701 469.300905 
L 95.907045 470.08172 
L 94.601467 471.013962 
L 94.484389 471.098136 
L 93.061733 472.267714 
L 91.853154 473.521934 
L 91.639077 473.797632 
L 90.216421 475.826385 
L 90.084186 476.029905 
L 89.059354 478.537877 
L 88.793765 481.003925 
L 88.788557 481.045849 
L 88.793765 481.068136 
L 89.476746 483.553821 
L 90.216421 484.492038 
L 91.639077 485.674683 
L 92.414258 486.061793 
L 93.061733 486.330613 
L 94.484389 486.705426 
L 95.907045 486.91064 
L 97.329701 487.011577 
L 98.752357 487.062072 
L 100.175013 487.112635 
L 101.597669 487.209897 
L 103.020325 487.385535 
L 104.442981 487.640957 
L 105.865637 487.943469 
L 107.288293 488.242204 
L 108.710949 488.491308 
L 109.335361 488.569764 
z
M 105.701234 486.061793 
L 104.442981 485.744799 
L 103.020325 485.48318 
L 101.597669 485.332649 
L 100.175013 485.262856 
L 98.752357 485.219302 
L 97.329701 485.140375 
L 95.907045 484.95974 
L 94.484389 484.596375 
L 93.061733 483.934607 
L 92.527565 483.553821 
L 91.639077 482.305333 
L 91.042429 481.045849 
L 91.115317 478.537877 
L 91.639077 477.274931 
L 92.157235 476.029905 
L 93.061733 474.81741 
L 94.16553 473.521934 
L 94.484389 473.224888 
L 95.907045 472.092553 
L 97.329701 471.199098 
L 97.689018 471.013962 
L 98.752357 470.476779 
L 100.175013 469.938254 
L 101.597669 469.556634 
L 103.020325 469.310528 
L 104.442981 469.182863 
L 105.865637 469.146669 
L 107.288293 469.152341 
L 108.710949 469.132148 
L 110.133605 469.029581 
L 111.556261 468.827784 
L 112.978917 468.547637 
L 113.151739 468.50599 
L 114.401573 468.156081 
L 115.824229 467.758569 
L 117.246885 467.405832 
L 118.669541 467.121554 
L 120.092197 466.919309 
L 121.514853 466.808017 
L 122.937509 466.795121 
L 124.360165 466.887357 
L 125.782821 467.089332 
L 127.205477 467.401578 
L 128.628133 467.821723 
L 130.050789 468.351305 
L 130.412065 468.50599 
L 131.473445 469.013185 
L 132.896101 469.872829 
L 134.318757 471.013962 
L 134.318757 471.013962 
L 135.688606 473.521934 
L 135.611711 476.029905 
L 134.362798 478.537877 
L 134.318757 478.586401 
L 132.896101 480.134635 
L 131.982105 481.045849 
L 131.473445 481.439053 
L 130.050789 482.451377 
L 128.628133 483.315178 
L 128.193143 483.553821 
L 127.205477 484.08006 
L 125.782821 484.720777 
L 124.360165 485.249573 
L 122.937509 485.689671 
L 121.514853 486.059691 
L 121.505808 486.061793 
L 120.092197 486.444952 
L 118.669541 486.769399 
L 117.246885 487.034746 
L 115.824229 487.235332 
L 114.401573 487.360832 
L 112.978917 487.398592 
L 111.556261 487.335978 
L 110.133605 487.164218 
L 108.710949 486.884659 
L 107.288293 486.516896 
L 105.865637 486.10511 
z
" clip-path="url(#pc0f2f077db)" style="fill: #bad6eb"/>
    <path d="M 105.865637 486.10511 
L 107.288293 486.516896 
L 108.710949 486.884659 
L 110.133605 487.164218 
L 111.556261 487.335978 
L 112.978917 487.398592 
L 114.401573 487.360832 
L 115.824229 487.235332 
L 117.246885 487.034746 
L 118.669541 486.769399 
L 120.092197 486.444952 
L 121.505808 486.061793 
L 121.514853 486.059691 
L 122.937509 485.689671 
L 124.360165 485.249573 
L 125.782821 484.720777 
L 127.205477 484.08006 
L 128.193143 483.553821 
L 128.628133 483.315178 
L 130.050789 482.451377 
L 131.473445 481.439053 
L 131.982105 481.045849 
L 132.896101 480.134635 
L 134.318757 478.586401 
L 134.362798 478.537877 
L 135.611711 476.029905 
L 135.688606 473.521934 
L 134.318757 471.013962 
L 134.318757 471.013962 
L 132.896101 469.872829 
L 131.473445 469.013185 
L 130.412065 468.50599 
L 130.050789 468.351305 
L 128.628133 467.821723 
L 127.205477 467.401578 
L 125.782821 467.089332 
L 124.360165 466.887357 
L 122.937509 466.795121 
L 121.514853 466.808017 
L 120.092197 466.919309 
L 118.669541 467.121554 
L 117.246885 467.405832 
L 115.824229 467.758569 
L 114.401573 468.156081 
L 113.151739 468.50599 
L 112.978917 468.547637 
L 111.556261 468.827784 
L 110.133605 469.029581 
L 108.710949 469.132148 
L 107.288293 469.152341 
L 105.865637 469.146669 
L 104.442981 469.182863 
L 103.020325 469.310528 
L 101.597669 469.556634 
L 100.175013 469.938254 
L 98.752357 470.476779 
L 97.689018 471.013962 
L 97.329701 471.199098 
L 95.907045 472.092553 
L 94.484389 473.224888 
L 94.16553 473.521934 
L 93.061733 474.81741 
L 92.157235 476.029905 
L 91.639077 477.274931 
L 91.115317 478.537877 
L 91.042429 481.045849 
L 91.639077 482.305333 
L 92.527565 483.553821 
L 93.061733 483.934607 
L 94.484389 484.596375 
L 95.907045 484.95974 
L 97.329701 485.140375 
L 98.752357 485.219302 
L 100.175013 485.262856 
L 101.597669 485.332649 
L 103.020325 485.48318 
L 104.442981 485.744799 
L 105.701234 486.061793 
z
M 100.73487 483.553821 
L 100.175013 483.533281 
L 98.752357 483.475644 
L 97.329701 483.314198 
L 95.907045 482.923026 
L 94.484389 482.107539 
L 93.461756 481.045849 
L 93.14813 478.537877 
L 94.208032 476.029905 
L 94.484389 475.693597 
L 95.907045 474.178761 
L 96.629803 473.521934 
L 97.329701 473.040203 
L 98.752357 472.269866 
L 100.175013 471.693249 
L 101.597669 471.286529 
L 103.020325 471.038442 
L 103.356798 471.013962 
L 104.442981 470.940361 
L 105.865637 470.93111 
L 107.288293 470.931457 
L 108.710949 470.855459 
L 110.133605 470.651121 
L 111.556261 470.325815 
L 112.978917 469.927667 
L 114.401573 469.510997 
L 115.824229 469.117746 
L 117.246885 468.77619 
L 118.669541 468.50599 
L 118.669541 468.50599 
L 120.092197 468.300294 
L 121.514853 468.218771 
L 122.937509 468.267142 
L 124.360165 468.449661 
L 124.627669 468.50599 
L 125.782821 468.759372 
L 127.205477 469.200745 
L 128.628133 469.774027 
L 130.050789 470.495118 
L 130.89497 471.013962 
L 131.473445 471.582499 
L 132.896101 473.420649 
L 132.961376 473.521934 
L 133.125402 476.029905 
L 132.896101 476.502194 
L 131.937422 478.537877 
L 131.473445 479.033085 
L 130.050789 480.455414 
L 129.410089 481.045849 
L 128.628133 481.587 
L 127.205477 482.448876 
L 125.782821 483.178633 
L 124.939058 483.553821 
L 124.360165 483.799485 
L 122.937509 484.32155 
L 121.514853 484.762822 
L 120.092197 485.139044 
L 118.669541 485.457036 
L 117.246885 485.715793 
L 115.824229 485.907285 
L 114.401573 486.01707 
L 112.978917 486.025814 
L 111.556261 485.913277 
L 110.133605 485.66631 
L 108.710949 485.291418 
L 107.288293 484.828686 
L 105.865637 484.355228 
L 104.442981 483.961647 
L 103.020325 483.705907 
L 101.597669 483.582829 
z
" clip-path="url(#pc0f2f077db)" style="fill: #95c5df"/>
    <path d="M 101.597669 483.582829 
L 103.020325 483.705907 
L 104.442981 483.961647 
L 105.865637 484.355228 
L 107.288293 484.828686 
L 108.710949 485.291418 
L 110.133605 485.66631 
L 111.556261 485.913277 
L 112.978917 486.025814 
L 114.401573 486.01707 
L 115.824229 485.907285 
L 117.246885 485.715793 
L 118.669541 485.457036 
L 120.092197 485.139044 
L 121.514853 484.762822 
L 122.937509 484.32155 
L 124.360165 483.799485 
L 124.939058 483.553821 
L 125.782821 483.178633 
L 127.205477 482.448876 
L 128.628133 481.587 
L 129.410089 481.045849 
L 130.050789 480.455414 
L 131.473445 479.033085 
L 131.937422 478.537877 
L 132.896101 476.502194 
L 133.125402 476.029905 
L 132.961376 473.521934 
L 132.896101 473.420649 
L 131.473445 471.582499 
L 130.89497 471.013962 
L 130.050789 470.495118 
L 128.628133 469.774027 
L 127.205477 469.200745 
L 125.782821 468.759372 
L 124.627669 468.50599 
L 124.360165 468.449661 
L 122.937509 468.267142 
L 121.514853 468.218771 
L 120.092197 468.300294 
L 118.669541 468.50599 
L 118.669541 468.50599 
L 117.246885 468.77619 
L 115.824229 469.117746 
L 114.401573 469.510997 
L 112.978917 469.927667 
L 111.556261 470.325815 
L 110.133605 470.651121 
L 108.710949 470.855459 
L 107.288293 470.931457 
L 105.865637 470.93111 
L 104.442981 470.940361 
L 103.356798 471.013962 
L 103.020325 471.038442 
L 101.597669 471.286529 
L 100.175013 471.693249 
L 98.752357 472.269866 
L 97.329701 473.040203 
L 96.629803 473.521934 
L 95.907045 474.178761 
L 94.484389 475.693597 
L 94.208032 476.029905 
L 93.14813 478.537877 
L 93.461756 481.045849 
L 94.484389 482.107539 
L 95.907045 482.923026 
L 97.329701 483.314198 
L 98.752357 483.475644 
L 100.175013 483.533281 
L 100.73487 483.553821 
z
M 108.504888 483.553821 
L 107.288293 482.925521 
L 105.865637 482.276537 
L 104.442981 481.836319 
L 103.020325 481.618039 
L 101.597669 481.542427 
L 100.175013 481.49818 
L 98.752357 481.372749 
L 97.329701 481.045849 
L 97.329701 481.045849 
L 95.907045 479.208034 
L 95.641566 478.537877 
L 95.907045 477.89844 
L 96.727147 476.029905 
L 97.329701 475.484295 
L 98.752357 474.449722 
L 100.175013 473.637257 
L 100.476043 473.521934 
L 101.597669 473.232839 
L 103.020325 473.04969 
L 104.442981 473.000017 
L 105.865637 472.997437 
L 107.288293 472.930803 
L 108.710949 472.720719 
L 110.133605 472.361045 
L 111.556261 471.898771 
L 112.978917 471.390638 
L 114.016886 471.013962 
L 114.401573 470.88119 
L 115.824229 470.42062 
L 117.246885 470.046838 
L 118.669541 469.778818 
L 120.092197 469.631437 
L 121.514853 469.61882 
L 122.937509 469.754087 
L 124.360165 470.045777 
L 125.782821 470.493917 
L 127.032115 471.013962 
L 127.205477 471.116405 
L 128.628133 472.115281 
L 130.050789 473.427952 
L 130.136544 473.521934 
L 130.669664 476.029905 
L 130.050789 477.376522 
L 129.522573 478.537877 
L 128.628133 479.399351 
L 127.205477 480.636425 
L 126.686258 481.045849 
L 125.782821 481.559196 
L 124.360165 482.25929 
L 122.937509 482.859384 
L 121.514853 483.378111 
L 120.972843 483.553821 
L 120.092197 483.822003 
L 118.669541 484.189947 
L 117.246885 484.477074 
L 115.824229 484.669884 
L 114.401573 484.750518 
L 112.978917 484.698548 
L 111.556261 484.495456 
L 110.133605 484.134025 
L 108.710949 483.633089 
z
" clip-path="url(#pc0f2f077db)" style="fill: #68acd5"/>
    <path d="M 108.710949 483.633089 
L 110.133605 484.134025 
L 111.556261 484.495456 
L 112.978917 484.698548 
L 114.401573 484.750518 
L 115.824229 484.669884 
L 117.246885 484.477074 
L 118.669541 484.189947 
L 120.092197 483.822003 
L 120.972843 483.553821 
L 121.514853 483.378111 
L 122.937509 482.859384 
L 124.360165 482.25929 
L 125.782821 481.559196 
L 126.686258 481.045849 
L 127.205477 480.636425 
L 128.628133 479.399351 
L 129.522573 478.537877 
L 130.050789 477.376522 
L 130.669664 476.029905 
L 130.136544 473.521934 
L 130.050789 473.427952 
L 128.628133 472.115281 
L 127.205477 471.116405 
L 127.032115 471.013962 
L 125.782821 470.493917 
L 124.360165 470.045777 
L 122.937509 469.754087 
L 121.514853 469.61882 
L 120.092197 469.631437 
L 118.669541 469.778818 
L 117.246885 470.046838 
L 115.824229 470.42062 
L 114.401573 470.88119 
L 114.016886 471.013962 
L 112.978917 471.390638 
L 111.556261 471.898771 
L 110.133605 472.361045 
L 108.710949 472.720719 
L 107.288293 472.930803 
L 105.865637 472.997437 
L 104.442981 473.000017 
L 103.020325 473.04969 
L 101.597669 473.232839 
L 100.476043 473.521934 
L 100.175013 473.637257 
L 98.752357 474.449722 
L 97.329701 475.484295 
L 96.727147 476.029905 
L 95.907045 477.89844 
L 95.641566 478.537877 
L 95.907045 479.208034 
L 97.329701 481.045849 
L 97.329701 481.045849 
L 98.752357 481.372749 
L 100.175013 481.49818 
L 101.597669 481.542427 
L 103.020325 481.618039 
L 104.442981 481.836319 
L 105.865637 482.276537 
L 107.288293 482.925521 
L 108.504888 483.553821 
z
M 112.138638 483.553821 
L 111.556261 483.409669 
L 110.133605 482.835403 
L 108.710949 482.072429 
L 107.288293 481.266166 
L 106.811763 481.045849 
L 105.865637 480.208154 
L 104.442981 479.592357 
L 103.020325 479.394837 
L 101.597669 479.335047 
L 100.175013 479.17945 
L 98.752357 478.664181 
L 98.589586 478.537877 
L 98.752357 478.130256 
L 99.696237 476.029905 
L 100.175013 475.793382 
L 101.597669 475.391044 
L 103.020325 475.228634 
L 104.442981 475.199893 
L 105.865637 475.117658 
L 107.288293 474.832733 
L 108.710949 474.328409 
L 110.133605 473.667107 
L 110.386321 473.521934 
L 111.556261 473.057778 
L 112.978917 472.464418 
L 114.401573 471.902137 
L 115.824229 471.403234 
L 117.173373 471.013962 
L 117.246885 470.993889 
L 118.669541 470.727494 
L 120.092197 470.606536 
L 121.514853 470.644092 
L 122.937509 470.851381 
L 123.570358 471.013962 
L 124.360165 471.292274 
L 125.782821 472.007077 
L 127.205477 472.951617 
L 127.914704 473.521934 
L 128.628133 475.437978 
L 128.809603 476.029905 
L 128.628133 476.433026 
L 127.680596 478.537877 
L 127.205477 478.961397 
L 125.782821 480.113676 
L 124.490052 481.045849 
L 124.360165 481.112089 
L 122.937509 481.766277 
L 121.514853 482.333127 
L 120.092197 482.821061 
L 118.669541 483.230687 
L 117.246885 483.553821 
L 117.246885 483.553821 
L 115.824229 483.747612 
L 114.401573 483.806519 
L 112.978917 483.709298 
z
" clip-path="url(#pc0f2f077db)" style="fill: #4896c8"/>
    <path d="M 112.978917 483.709298 
L 114.401573 483.806519 
L 115.824229 483.747612 
L 117.246885 483.553821 
L 117.246885 483.553821 
L 118.669541 483.230687 
L 120.092197 482.821061 
L 121.514853 482.333127 
L 122.937509 481.766277 
L 124.360165 481.112089 
L 124.490052 481.045849 
L 125.782821 480.113676 
L 127.205477 478.961397 
L 127.680596 478.537877 
L 128.628133 476.433026 
L 128.809603 476.029905 
L 128.628133 475.437978 
L 127.914704 473.521934 
L 127.205477 472.951617 
L 125.782821 472.007077 
L 124.360165 471.292274 
L 123.570358 471.013962 
L 122.937509 470.851381 
L 121.514853 470.644092 
L 120.092197 470.606536 
L 118.669541 470.727494 
L 117.246885 470.993889 
L 117.173373 471.013962 
L 115.824229 471.403234 
L 114.401573 471.902137 
L 112.978917 472.464418 
L 111.556261 473.057778 
L 110.386321 473.521934 
L 110.133605 473.667107 
L 108.710949 474.328409 
L 107.288293 474.832733 
L 105.865637 475.117658 
L 104.442981 475.199893 
L 103.020325 475.228634 
L 101.597669 475.391044 
L 100.175013 475.793382 
L 99.696237 476.029905 
L 98.752357 478.130256 
L 98.589586 478.537877 
L 98.752357 478.664181 
L 100.175013 479.17945 
L 101.597669 479.335047 
L 103.020325 479.394837 
L 104.442981 479.592357 
L 105.865637 480.208154 
L 106.811763 481.045849 
L 107.288293 481.266166 
L 108.710949 482.072429 
L 110.133605 482.835403 
L 111.556261 483.409669 
L 112.138638 483.553821 
z
M 109.1352 481.045849 
L 108.710949 480.399534 
L 107.288293 478.597239 
L 107.212173 478.537877 
L 107.288293 478.391346 
L 108.400361 476.029905 
L 108.710949 475.887326 
L 110.133605 475.044201 
L 111.556261 474.164368 
L 112.579013 473.521934 
L 112.978917 473.345548 
L 114.401573 472.739876 
L 115.824229 472.224435 
L 117.246885 471.823323 
L 118.669541 471.561425 
L 120.092197 471.468992 
L 121.514853 471.581004 
L 122.937509 471.92894 
L 124.360165 472.527334 
L 125.782821 473.37044 
L 125.99866 473.521934 
L 127.205477 476.029905 
L 126.081567 478.537877 
L 125.782821 478.782661 
L 124.360165 479.84966 
L 122.937509 480.801054 
L 122.536338 481.045849 
L 121.514853 481.475627 
L 120.092197 481.993745 
L 118.669541 482.418365 
L 117.246885 482.736163 
L 115.824229 482.923743 
L 114.401573 482.945912 
L 112.978917 482.758829 
L 111.556261 482.323728 
L 110.133605 481.6371 
z
" clip-path="url(#pc0f2f077db)" style="fill: #3282be"/>
    <path d="M 110.133605 481.6371 
L 111.556261 482.323728 
L 112.978917 482.758829 
L 114.401573 482.945912 
L 115.824229 482.923743 
L 117.246885 482.736163 
L 118.669541 482.418365 
L 120.092197 481.993745 
L 121.514853 481.475627 
L 122.536338 481.045849 
L 122.937509 480.801054 
L 124.360165 479.84966 
L 125.782821 478.782661 
L 126.081567 478.537877 
L 127.205477 476.029905 
L 125.99866 473.521934 
L 125.782821 473.37044 
L 124.360165 472.527334 
L 122.937509 471.92894 
L 121.514853 471.581004 
L 120.092197 471.468992 
L 118.669541 471.561425 
L 117.246885 471.823323 
L 115.824229 472.224435 
L 114.401573 472.739876 
L 112.978917 473.345548 
L 112.579013 473.521934 
L 111.556261 474.164368 
L 110.133605 475.044201 
L 108.710949 475.887326 
L 108.400361 476.029905 
L 107.288293 478.391346 
L 107.212173 478.537877 
L 107.288293 478.597239 
L 108.710949 480.399534 
L 109.1352 481.045849 
z
M 114.161318 481.045849 
L 112.978917 480.396335 
L 111.556261 478.811162 
L 111.369034 478.537877 
L 111.556261 478.13703 
L 112.527867 476.029905 
L 112.978917 475.721115 
L 114.401573 474.839648 
L 115.824229 474.095806 
L 117.246885 473.521934 
L 117.246885 473.521934 
L 118.669541 473.332413 
L 120.092197 473.364424 
L 120.907961 473.521934 
L 121.514853 473.789813 
L 122.937509 475.075123 
L 123.642466 476.029905 
L 122.937509 477.605639 
L 122.510442 478.537877 
L 121.514853 479.173412 
L 120.092197 479.957524 
L 118.669541 480.601685 
L 117.33264 481.045849 
L 117.246885 481.064462 
L 115.824229 481.19215 
L 114.401573 481.101301 
z
" clip-path="url(#pc0f2f077db)" style="fill: #1865ac"/>
    <path d="M 114.401573 481.101301 
L 115.824229 481.19215 
L 117.246885 481.064462 
L 117.33264 481.045849 
L 118.669541 480.601685 
L 120.092197 479.957524 
L 121.514853 479.173412 
L 122.510442 478.537877 
L 122.937509 477.605639 
L 123.642466 476.029905 
L 122.937509 475.075123 
L 121.514853 473.789813 
L 120.907961 473.521934 
L 120.092197 473.364424 
L 118.669541 473.332413 
L 117.246885 473.521934 
L 117.246885 473.521934 
L 115.824229 474.095806 
L 114.401573 474.839648 
L 112.978917 475.721115 
L 112.527867 476.029905 
L 111.556261 478.13703 
L 111.369034 478.537877 
L 111.556261 478.811162 
L 112.978917 480.396335 
L 114.161318 481.045849 
z
" clip-path="url(#pc0f2f077db)" style="fill: #084285"/>
   </g>
   <g id="matplotlib.axis_1">
    <g id="xtick_1">
     <g id="line2d_1">
      <defs>
       <path id="m3cac0c51d8" d="M 0 0 
L 0 3.5 
" style="stroke: #000000; stroke-width: 0.8"/>
      </defs>
      <g>
       <use xlink:href="#m3cac0c51d8" x="92.837588" y="499.48" style="stroke: #000000; stroke-width: 0.8"/>
      </g>
     </g>
     <g id="text_1">
      <!-- 0 -->
      <g transform="translate(85.838838 523.196563) scale(0.22 -0.22)">
       <defs>
        <path id="DejaVuSans-30" d="M 2034 4250 
Q 1547 4250 1301 3770 
Q 1056 3291 1056 2328 
Q 1056 1369 1301 889 
Q 1547 409 2034 409 
Q 2525 409 2770 889 
Q 3016 1369 3016 2328 
Q 3016 3291 2770 3770 
Q 2525 4250 2034 4250 
z
M 2034 4750 
Q 2819 4750 3233 4129 
Q 3647 3509 3647 2328 
Q 3647 1150 3233 529 
Q 2819 -91 2034 -91 
Q 1250 -91 836 529 
Q 422 1150 422 2328 
Q 422 3509 836 4129 
Q 1250 4750 2034 4750 
z
" transform="scale(0.015625)"/>
       </defs>
       <use xlink:href="#DejaVuSans-30"/>
      </g>
     </g>
    </g>
    <g id="xtick_2">
     <g id="line2d_2">
      <g>
       <use xlink:href="#m3cac0c51d8" x="184.446647" y="499.48" style="stroke: #000000; stroke-width: 0.8"/>
      </g>
     </g>
     <g id="text_2">
      <!-- 10 -->
      <g transform="translate(170.449147 523.196563) scale(0.22 -0.22)">
       <defs>
        <path id="DejaVuSans-31" d="M 794 531 
L 1825 531 
L 1825 4091 
L 703 3866 
L 703 4441 
L 1819 4666 
L 2450 4666 
L 2450 531 
L 3481 531 
L 3481 0 
L 794 0 
L 794 531 
z
" transform="scale(0.015625)"/>
       </defs>
       <use xlink:href="#DejaVuSans-31"/>
       <use xlink:href="#DejaVuSans-30" x="63.623047"/>
      </g>
     </g>
    </g>
    <g id="xtick_3">
     <g id="line2d_3">
      <g>
       <use xlink:href="#m3cac0c51d8" x="276.055707" y="499.48" style="stroke: #000000; stroke-width: 0.8"/>
      </g>
     </g>
     <g id="text_3">
      <!-- 20 -->
      <g transform="translate(262.058207 523.196563) scale(0.22 -0.22)">
       <defs>
        <path id="DejaVuSans-32" d="M 1228 531 
L 3431 531 
L 3431 0 
L 469 0 
L 469 531 
Q 828 903 1448 1529 
Q 2069 2156 2228 2338 
Q 2531 2678 2651 2914 
Q 2772 3150 2772 3378 
Q 2772 3750 2511 3984 
Q 2250 4219 1831 4219 
Q 1534 4219 1204 4116 
Q 875 4013 500 3803 
L 500 4441 
Q 881 4594 1212 4672 
Q 1544 4750 1819 4750 
Q 2544 4750 2975 4387 
Q 3406 4025 3406 3419 
Q 3406 3131 3298 2873 
Q 3191 2616 2906 2266 
Q 2828 2175 2409 1742 
Q 1991 1309 1228 531 
z
" transform="scale(0.015625)"/>
       </defs>
       <use xlink:href="#DejaVuSans-32"/>
       <use xlink:href="#DejaVuSans-30" x="63.623047"/>
      </g>
     </g>
    </g>
    <g id="xtick_4">
     <g id="line2d_4">
      <g>
       <use xlink:href="#m3cac0c51d8" x="367.664767" y="499.48" style="stroke: #000000; stroke-width: 0.8"/>
      </g>
     </g>
     <g id="text_4">
      <!-- 30 -->
      <g transform="translate(353.667267 523.196563) scale(0.22 -0.22)">
       <defs>
        <path id="DejaVuSans-33" d="M 2597 2516 
Q 3050 2419 3304 2112 
Q 3559 1806 3559 1356 
Q 3559 666 3084 287 
Q 2609 -91 1734 -91 
Q 1441 -91 1130 -33 
Q 819 25 488 141 
L 488 750 
Q 750 597 1062 519 
Q 1375 441 1716 441 
Q 2309 441 2620 675 
Q 2931 909 2931 1356 
Q 2931 1769 2642 2001 
Q 2353 2234 1838 2234 
L 1294 2234 
L 1294 2753 
L 1863 2753 
Q 2328 2753 2575 2939 
Q 2822 3125 2822 3475 
Q 2822 3834 2567 4026 
Q 2313 4219 1838 4219 
Q 1578 4219 1281 4162 
Q 984 4106 628 3988 
L 628 4550 
Q 988 4650 1302 4700 
Q 1616 4750 1894 4750 
Q 2613 4750 3031 4423 
Q 3450 4097 3450 3541 
Q 3450 3153 3228 2886 
Q 3006 2619 2597 2516 
z
" transform="scale(0.015625)"/>
       </defs>
       <use xlink:href="#DejaVuSans-33"/>
       <use xlink:href="#DejaVuSans-30" x="63.623047"/>
      </g>
     </g>
    </g>
    <g id="xtick_5">
     <g id="line2d_5">
      <g>
       <use xlink:href="#m3cac0c51d8" x="459.273826" y="499.48" style="stroke: #000000; stroke-width: 0.8"/>
      </g>
     </g>
     <g id="text_5">
      <!-- 40 -->
      <g transform="translate(445.276326 523.196563) scale(0.22 -0.22)">
       <defs>
        <path id="DejaVuSans-34" d="M 2419 4116 
L 825 1625 
L 2419 1625 
L 2419 4116 
z
M 2253 4666 
L 3047 4666 
L 3047 1625 
L 3713 1625 
L 3713 1100 
L 3047 1100 
L 3047 0 
L 2419 0 
L 2419 1100 
L 313 1100 
L 313 1709 
L 2253 4666 
z
" transform="scale(0.015625)"/>
       </defs>
       <use xlink:href="#DejaVuSans-34"/>
       <use xlink:href="#DejaVuSans-30" x="63.623047"/>
      </g>
     </g>
    </g>
    <g id="xtick_6">
     <g id="line2d_6">
      <g>
       <use xlink:href="#m3cac0c51d8" x="550.882886" y="499.48" style="stroke: #000000; stroke-width: 0.8"/>
      </g>
     </g>
     <g id="text_6">
      <!-- 50 -->
      <g transform="translate(536.885386 523.196563) scale(0.22 -0.22)">
       <defs>
        <path id="DejaVuSans-35" d="M 691 4666 
L 3169 4666 
L 3169 4134 
L 1269 4134 
L 1269 2991 
Q 1406 3038 1543 3061 
Q 1681 3084 1819 3084 
Q 2600 3084 3056 2656 
Q 3513 2228 3513 1497 
Q 3513 744 3044 326 
Q 2575 -91 1722 -91 
Q 1428 -91 1123 -41 
Q 819 9 494 109 
L 494 744 
Q 775 591 1075 516 
Q 1375 441 1709 441 
Q 2250 441 2565 725 
Q 2881 1009 2881 1497 
Q 2881 1984 2565 2268 
Q 2250 2553 1709 2553 
Q 1456 2553 1204 2497 
Q 953 2441 691 2322 
L 691 4666 
z
" transform="scale(0.015625)"/>
       </defs>
       <use xlink:href="#DejaVuSans-35"/>
       <use xlink:href="#DejaVuSans-30" x="63.623047"/>
      </g>
     </g>
    </g>
    <g id="xtick_7">
     <g id="line2d_7">
      <g>
       <use xlink:href="#m3cac0c51d8" x="642.491946" y="499.48" style="stroke: #000000; stroke-width: 0.8"/>
      </g>
     </g>
     <g id="text_7">
      <!-- 60 -->
      <g transform="translate(628.494446 523.196563) scale(0.22 -0.22)">
       <defs>
        <path id="DejaVuSans-36" d="M 2113 2584 
Q 1688 2584 1439 2293 
Q 1191 2003 1191 1497 
Q 1191 994 1439 701 
Q 1688 409 2113 409 
Q 2538 409 2786 701 
Q 3034 994 3034 1497 
Q 3034 2003 2786 2293 
Q 2538 2584 2113 2584 
z
M 3366 4563 
L 3366 3988 
Q 3128 4100 2886 4159 
Q 2644 4219 2406 4219 
Q 1781 4219 1451 3797 
Q 1122 3375 1075 2522 
Q 1259 2794 1537 2939 
Q 1816 3084 2150 3084 
Q 2853 3084 3261 2657 
Q 3669 2231 3669 1497 
Q 3669 778 3244 343 
Q 2819 -91 2113 -91 
Q 1303 -91 875 529 
Q 447 1150 447 2328 
Q 447 3434 972 4092 
Q 1497 4750 2381 4750 
Q 2619 4750 2861 4703 
Q 3103 4656 3366 4563 
z
" transform="scale(0.015625)"/>
       </defs>
       <use xlink:href="#DejaVuSans-36"/>
       <use xlink:href="#DejaVuSans-30" x="63.623047"/>
      </g>
     </g>
    </g>
    <g id="text_8">
     <!-- Force Uncertainties -->
     <g transform="translate(283.426094 548.488438) scale(0.22 -0.22)">
      <defs>
       <path id="DejaVuSans-46" d="M 628 4666 
L 3309 4666 
L 3309 4134 
L 1259 4134 
L 1259 2759 
L 3109 2759 
L 3109 2228 
L 1259 2228 
L 1259 0 
L 628 0 
L 628 4666 
z
" transform="scale(0.015625)"/>
       <path id="DejaVuSans-6f" d="M 1959 3097 
Q 1497 3097 1228 2736 
Q 959 2375 959 1747 
Q 959 1119 1226 758 
Q 1494 397 1959 397 
Q 2419 397 2687 759 
Q 2956 1122 2956 1747 
Q 2956 2369 2687 2733 
Q 2419 3097 1959 3097 
z
M 1959 3584 
Q 2709 3584 3137 3096 
Q 3566 2609 3566 1747 
Q 3566 888 3137 398 
Q 2709 -91 1959 -91 
Q 1206 -91 779 398 
Q 353 888 353 1747 
Q 353 2609 779 3096 
Q 1206 3584 1959 3584 
z
" transform="scale(0.015625)"/>
       <path id="DejaVuSans-72" d="M 2631 2963 
Q 2534 3019 2420 3045 
Q 2306 3072 2169 3072 
Q 1681 3072 1420 2755 
Q 1159 2438 1159 1844 
L 1159 0 
L 581 0 
L 581 3500 
L 1159 3500 
L 1159 2956 
Q 1341 3275 1631 3429 
Q 1922 3584 2338 3584 
Q 2397 3584 2469 3576 
Q 2541 3569 2628 3553 
L 2631 2963 
z
" transform="scale(0.015625)"/>
       <path id="DejaVuSans-63" d="M 3122 3366 
L 3122 2828 
Q 2878 2963 2633 3030 
Q 2388 3097 2138 3097 
Q 1578 3097 1268 2742 
Q 959 2388 959 1747 
Q 959 1106 1268 751 
Q 1578 397 2138 397 
Q 2388 397 2633 464 
Q 2878 531 3122 666 
L 3122 134 
Q 2881 22 2623 -34 
Q 2366 -91 2075 -91 
Q 1284 -91 818 406 
Q 353 903 353 1747 
Q 353 2603 823 3093 
Q 1294 3584 2113 3584 
Q 2378 3584 2631 3529 
Q 2884 3475 3122 3366 
z
" transform="scale(0.015625)"/>
       <path id="DejaVuSans-65" d="M 3597 1894 
L 3597 1613 
L 953 1613 
Q 991 1019 1311 708 
Q 1631 397 2203 397 
Q 2534 397 2845 478 
Q 3156 559 3463 722 
L 3463 178 
Q 3153 47 2828 -22 
Q 2503 -91 2169 -91 
Q 1331 -91 842 396 
Q 353 884 353 1716 
Q 353 2575 817 3079 
Q 1281 3584 2069 3584 
Q 2775 3584 3186 3129 
Q 3597 2675 3597 1894 
z
M 3022 2063 
Q 3016 2534 2758 2815 
Q 2500 3097 2075 3097 
Q 1594 3097 1305 2825 
Q 1016 2553 972 2059 
L 3022 2063 
z
" transform="scale(0.015625)"/>
       <path id="DejaVuSans-20" transform="scale(0.015625)"/>
       <path id="DejaVuSans-55" d="M 556 4666 
L 1191 4666 
L 1191 1831 
Q 1191 1081 1462 751 
Q 1734 422 2344 422 
Q 2950 422 3222 751 
Q 3494 1081 3494 1831 
L 3494 4666 
L 4128 4666 
L 4128 1753 
Q 4128 841 3676 375 
Q 3225 -91 2344 -91 
Q 1459 -91 1007 375 
Q 556 841 556 1753 
L 556 4666 
z
" transform="scale(0.015625)"/>
       <path id="DejaVuSans-6e" d="M 3513 2113 
L 3513 0 
L 2938 0 
L 2938 2094 
Q 2938 2591 2744 2837 
Q 2550 3084 2163 3084 
Q 1697 3084 1428 2787 
Q 1159 2491 1159 1978 
L 1159 0 
L 581 0 
L 581 3500 
L 1159 3500 
L 1159 2956 
Q 1366 3272 1645 3428 
Q 1925 3584 2291 3584 
Q 2894 3584 3203 3211 
Q 3513 2838 3513 2113 
z
" transform="scale(0.015625)"/>
       <path id="DejaVuSans-74" d="M 1172 4494 
L 1172 3500 
L 2356 3500 
L 2356 3053 
L 1172 3053 
L 1172 1153 
Q 1172 725 1289 603 
Q 1406 481 1766 481 
L 2356 481 
L 2356 0 
L 1766 0 
Q 1100 0 847 248 
Q 594 497 594 1153 
L 594 3053 
L 172 3053 
L 172 3500 
L 594 3500 
L 594 4494 
L 1172 4494 
z
" transform="scale(0.015625)"/>
       <path id="DejaVuSans-61" d="M 2194 1759 
Q 1497 1759 1228 1600 
Q 959 1441 959 1056 
Q 959 750 1161 570 
Q 1363 391 1709 391 
Q 2188 391 2477 730 
Q 2766 1069 2766 1631 
L 2766 1759 
L 2194 1759 
z
M 3341 1997 
L 3341 0 
L 2766 0 
L 2766 531 
Q 2569 213 2275 61 
Q 1981 -91 1556 -91 
Q 1019 -91 701 211 
Q 384 513 384 1019 
Q 384 1609 779 1909 
Q 1175 2209 1959 2209 
L 2766 2209 
L 2766 2266 
Q 2766 2663 2505 2880 
Q 2244 3097 1772 3097 
Q 1472 3097 1187 3025 
Q 903 2953 641 2809 
L 641 3341 
Q 956 3463 1253 3523 
Q 1550 3584 1831 3584 
Q 2591 3584 2966 3190 
Q 3341 2797 3341 1997 
z
" transform="scale(0.015625)"/>
       <path id="DejaVuSans-69" d="M 603 3500 
L 1178 3500 
L 1178 0 
L 603 0 
L 603 3500 
z
M 603 4863 
L 1178 4863 
L 1178 4134 
L 603 4134 
L 603 4863 
z
" transform="scale(0.015625)"/>
       <path id="DejaVuSans-73" d="M 2834 3397 
L 2834 2853 
Q 2591 2978 2328 3040 
Q 2066 3103 1784 3103 
Q 1356 3103 1142 2972 
Q 928 2841 928 2578 
Q 928 2378 1081 2264 
Q 1234 2150 1697 2047 
L 1894 2003 
Q 2506 1872 2764 1633 
Q 3022 1394 3022 966 
Q 3022 478 2636 193 
Q 2250 -91 1575 -91 
Q 1294 -91 989 -36 
Q 684 19 347 128 
L 347 722 
Q 666 556 975 473 
Q 1284 391 1588 391 
Q 1994 391 2212 530 
Q 2431 669 2431 922 
Q 2431 1156 2273 1281 
Q 2116 1406 1581 1522 
L 1381 1569 
Q 847 1681 609 1914 
Q 372 2147 372 2553 
Q 372 3047 722 3315 
Q 1072 3584 1716 3584 
Q 2034 3584 2315 3537 
Q 2597 3491 2834 3397 
z
" transform="scale(0.015625)"/>
      </defs>
      <use xlink:href="#DejaVuSans-46"/>
      <use xlink:href="#DejaVuSans-6f" x="53.894531"/>
      <use xlink:href="#DejaVuSans-72" x="115.076172"/>
      <use xlink:href="#DejaVuSans-63" x="153.939453"/>
      <use xlink:href="#DejaVuSans-65" x="208.919922"/>
      <use xlink:href="#DejaVuSans-20" x="270.443359"/>
      <use xlink:href="#DejaVuSans-55" x="302.230469"/>
      <use xlink:href="#DejaVuSans-6e" x="375.423828"/>
      <use xlink:href="#DejaVuSans-63" x="438.802734"/>
      <use xlink:href="#DejaVuSans-65" x="493.783203"/>
      <use xlink:href="#DejaVuSans-72" x="555.306641"/>
      <use xlink:href="#DejaVuSans-74" x="596.419922"/>
      <use xlink:href="#DejaVuSans-61" x="635.628906"/>
      <use xlink:href="#DejaVuSans-69" x="696.908203"/>
      <use xlink:href="#DejaVuSans-6e" x="724.691406"/>
      <use xlink:href="#DejaVuSans-74" x="788.070312"/>
      <use xlink:href="#DejaVuSans-69" x="827.279297"/>
      <use xlink:href="#DejaVuSans-65" x="855.0625"/>
      <use xlink:href="#DejaVuSans-73" x="916.585938"/>
     </g>
    </g>
   </g>
   <g id="matplotlib.axis_2">
    <g id="ytick_1">
     <g id="line2d_8">
      <defs>
       <path id="mcb48b42275" d="M 0 0 
L -3.5 0 
" style="stroke: #000000; stroke-width: 0.8"/>
      </defs>
      <g>
       <use xlink:href="#mcb48b42275" x="83.72" y="492.398731" style="stroke: #000000; stroke-width: 0.8"/>
      </g>
     </g>
     <g id="text_9">
      <!-- 0 -->
      <g transform="translate(62.7225 500.757012) scale(0.22 -0.22)">
       <use xlink:href="#DejaVuSans-30"/>
      </g>
     </g>
    </g>
    <g id="ytick_2">
     <g id="line2d_9">
      <g>
       <use xlink:href="#mcb48b42275" x="83.72" y="421.249606" style="stroke: #000000; stroke-width: 0.8"/>
      </g>
     </g>
     <g id="text_10">
      <!-- 10 -->
      <g transform="translate(48.725 429.607888) scale(0.22 -0.22)">
       <use xlink:href="#DejaVuSans-31"/>
       <use xlink:href="#DejaVuSans-30" x="63.623047"/>
      </g>
     </g>
    </g>
    <g id="ytick_3">
     <g id="line2d_10">
      <g>
       <use xlink:href="#mcb48b42275" x="83.72" y="350.100482" style="stroke: #000000; stroke-width: 0.8"/>
      </g>
     </g>
     <g id="text_11">
      <!-- 20 -->
      <g transform="translate(48.725 358.458763) scale(0.22 -0.22)">
       <use xlink:href="#DejaVuSans-32"/>
       <use xlink:href="#DejaVuSans-30" x="63.623047"/>
      </g>
     </g>
    </g>
    <g id="ytick_4">
     <g id="line2d_11">
      <g>
       <use xlink:href="#mcb48b42275" x="83.72" y="278.951357" style="stroke: #000000; stroke-width: 0.8"/>
      </g>
     </g>
     <g id="text_12">
      <!-- 30 -->
      <g transform="translate(48.725 287.309638) scale(0.22 -0.22)">
       <use xlink:href="#DejaVuSans-33"/>
       <use xlink:href="#DejaVuSans-30" x="63.623047"/>
      </g>
     </g>
    </g>
    <g id="ytick_5">
     <g id="line2d_12">
      <g>
       <use xlink:href="#mcb48b42275" x="83.72" y="207.802232" style="stroke: #000000; stroke-width: 0.8"/>
      </g>
     </g>
     <g id="text_13">
      <!-- 40 -->
      <g transform="translate(48.725 216.160513) scale(0.22 -0.22)">
       <use xlink:href="#DejaVuSans-34"/>
       <use xlink:href="#DejaVuSans-30" x="63.623047"/>
      </g>
     </g>
    </g>
    <g id="ytick_6">
     <g id="line2d_13">
      <g>
       <use xlink:href="#mcb48b42275" x="83.72" y="136.653107" style="stroke: #000000; stroke-width: 0.8"/>
      </g>
     </g>
     <g id="text_14">
      <!-- 50 -->
      <g transform="translate(48.725 145.011389) scale(0.22 -0.22)">
       <use xlink:href="#DejaVuSans-35"/>
       <use xlink:href="#DejaVuSans-30" x="63.623047"/>
      </g>
     </g>
    </g>
    <g id="ytick_7">
     <g id="line2d_14">
      <g>
       <use xlink:href="#mcb48b42275" x="83.72" y="65.503983" style="stroke: #000000; stroke-width: 0.8"/>
      </g>
     </g>
     <g id="text_15">
      <!-- 60 -->
      <g transform="translate(48.725 73.862264) scale(0.22 -0.22)">
       <use xlink:href="#DejaVuSans-36"/>
       <use xlink:href="#DejaVuSans-30" x="63.623047"/>
      </g>
     </g>
    </g>
    <g id="text_16">
     <!-- Force Errors [kJ/(mol*A)] -->
     <g transform="translate(40.149688 394.9125) rotate(-90) scale(0.22 -0.22)">
      <defs>
       <path id="DejaVuSans-45" d="M 628 4666 
L 3578 4666 
L 3578 4134 
L 1259 4134 
L 1259 2753 
L 3481 2753 
L 3481 2222 
L 1259 2222 
L 1259 531 
L 3634 531 
L 3634 0 
L 628 0 
L 628 4666 
z
" transform="scale(0.015625)"/>
       <path id="DejaVuSans-5b" d="M 550 4863 
L 1875 4863 
L 1875 4416 
L 1125 4416 
L 1125 -397 
L 1875 -397 
L 1875 -844 
L 550 -844 
L 550 4863 
z
" transform="scale(0.015625)"/>
       <path id="DejaVuSans-6b" d="M 581 4863 
L 1159 4863 
L 1159 1991 
L 2875 3500 
L 3609 3500 
L 1753 1863 
L 3688 0 
L 2938 0 
L 1159 1709 
L 1159 0 
L 581 0 
L 581 4863 
z
" transform="scale(0.015625)"/>
       <path id="DejaVuSans-4a" d="M 628 4666 
L 1259 4666 
L 1259 325 
Q 1259 -519 939 -900 
Q 619 -1281 -91 -1281 
L -331 -1281 
L -331 -750 
L -134 -750 
Q 284 -750 456 -515 
Q 628 -281 628 325 
L 628 4666 
z
" transform="scale(0.015625)"/>
       <path id="DejaVuSans-2f" d="M 1625 4666 
L 2156 4666 
L 531 -594 
L 0 -594 
L 1625 4666 
z
" transform="scale(0.015625)"/>
       <path id="DejaVuSans-28" d="M 1984 4856 
Q 1566 4138 1362 3434 
Q 1159 2731 1159 2009 
Q 1159 1288 1364 580 
Q 1569 -128 1984 -844 
L 1484 -844 
Q 1016 -109 783 600 
Q 550 1309 550 2009 
Q 550 2706 781 3412 
Q 1013 4119 1484 4856 
L 1984 4856 
z
" transform="scale(0.015625)"/>
       <path id="DejaVuSans-6d" d="M 3328 2828 
Q 3544 3216 3844 3400 
Q 4144 3584 4550 3584 
Q 5097 3584 5394 3201 
Q 5691 2819 5691 2113 
L 5691 0 
L 5113 0 
L 5113 2094 
Q 5113 2597 4934 2840 
Q 4756 3084 4391 3084 
Q 3944 3084 3684 2787 
Q 3425 2491 3425 1978 
L 3425 0 
L 2847 0 
L 2847 2094 
Q 2847 2600 2669 2842 
Q 2491 3084 2119 3084 
Q 1678 3084 1418 2786 
Q 1159 2488 1159 1978 
L 1159 0 
L 581 0 
L 581 3500 
L 1159 3500 
L 1159 2956 
Q 1356 3278 1631 3431 
Q 1906 3584 2284 3584 
Q 2666 3584 2933 3390 
Q 3200 3197 3328 2828 
z
" transform="scale(0.015625)"/>
       <path id="DejaVuSans-6c" d="M 603 4863 
L 1178 4863 
L 1178 0 
L 603 0 
L 603 4863 
z
" transform="scale(0.015625)"/>
       <path id="DejaVuSans-2a" d="M 3009 3897 
L 1888 3291 
L 3009 2681 
L 2828 2375 
L 1778 3009 
L 1778 1831 
L 1422 1831 
L 1422 3009 
L 372 2375 
L 191 2681 
L 1313 3291 
L 191 3897 
L 372 4206 
L 1422 3572 
L 1422 4750 
L 1778 4750 
L 1778 3572 
L 2828 4206 
L 3009 3897 
z
" transform="scale(0.015625)"/>
       <path id="DejaVuSans-41" d="M 2188 4044 
L 1331 1722 
L 3047 1722 
L 2188 4044 
z
M 1831 4666 
L 2547 4666 
L 4325 0 
L 3669 0 
L 3244 1197 
L 1141 1197 
L 716 0 
L 50 0 
L 1831 4666 
z
" transform="scale(0.015625)"/>
       <path id="DejaVuSans-29" d="M 513 4856 
L 1013 4856 
Q 1481 4119 1714 3412 
Q 1947 2706 1947 2009 
Q 1947 1309 1714 600 
Q 1481 -109 1013 -844 
L 513 -844 
Q 928 -128 1133 580 
Q 1338 1288 1338 2009 
Q 1338 2731 1133 3434 
Q 928 4138 513 4856 
z
" transform="scale(0.015625)"/>
       <path id="DejaVuSans-5d" d="M 1947 4863 
L 1947 -844 
L 622 -844 
L 622 -397 
L 1369 -397 
L 1369 4416 
L 622 4416 
L 622 4863 
L 1947 4863 
z
" transform="scale(0.015625)"/>
      </defs>
      <use xlink:href="#DejaVuSans-46"/>
      <use xlink:href="#DejaVuSans-6f" x="53.894531"/>
      <use xlink:href="#DejaVuSans-72" x="115.076172"/>
      <use xlink:href="#DejaVuSans-63" x="153.939453"/>
      <use xlink:href="#DejaVuSans-65" x="208.919922"/>
      <use xlink:href="#DejaVuSans-20" x="270.443359"/>
      <use xlink:href="#DejaVuSans-45" x="302.230469"/>
      <use xlink:href="#DejaVuSans-72" x="365.414062"/>
      <use xlink:href="#DejaVuSans-72" x="404.777344"/>
      <use xlink:href="#DejaVuSans-6f" x="443.640625"/>
      <use xlink:href="#DejaVuSans-72" x="504.822266"/>
      <use xlink:href="#DejaVuSans-73" x="545.935547"/>
      <use xlink:href="#DejaVuSans-20" x="598.035156"/>
      <use xlink:href="#DejaVuSans-5b" x="629.822266"/>
      <use xlink:href="#DejaVuSans-6b" x="668.835938"/>
      <use xlink:href="#DejaVuSans-4a" x="726.746094"/>
      <use xlink:href="#DejaVuSans-2f" x="756.238281"/>
      <use xlink:href="#DejaVuSans-28" x="789.929688"/>
      <use xlink:href="#DejaVuSans-6d" x="828.943359"/>
      <use xlink:href="#DejaVuSans-6f" x="926.355469"/>
      <use xlink:href="#DejaVuSans-6c" x="987.537109"/>
      <use xlink:href="#DejaVuSans-2a" x="1015.320312"/>
      <use xlink:href="#DejaVuSans-41" x="1065.320312"/>
      <use xlink:href="#DejaVuSans-29" x="1133.728516"/>
      <use xlink:href="#DejaVuSans-5d" x="1172.742188"/>
     </g>
    </g>
   </g>
   <g id="line2d_15">
    <path d="M 83.72 499.48 
L 696.24 23.76 
" clip-path="url(#pc0f2f077db)" style="fill: none; stroke-dasharray: 5.55,2.4; stroke-dashoffset: 0; stroke: #ff0000; stroke-width: 1.5"/>
   </g>
   <g id="patch_3">
    <path d="M 83.72 499.48 
L 83.72 23.76 
" style="fill: none; stroke: #000000; stroke-width: 0.8; stroke-linejoin: miter; stroke-linecap: square"/>
   </g>
   <g id="patch_4">
    <path d="M 696.24 499.48 
L 696.24 23.76 
" style="fill: none; stroke: #000000; stroke-width: 0.8; stroke-linejoin: miter; stroke-linecap: square"/>
   </g>
   <g id="patch_5">
    <path d="M 83.72 499.48 
L 696.24 499.48 
" style="fill: none; stroke: #000000; stroke-width: 0.8; stroke-linejoin: miter; stroke-linecap: square"/>
   </g>
   <g id="patch_6">
    <path d="M 83.72 23.76 
L 696.24 23.76 
" style="fill: none; stroke: #000000; stroke-width: 0.8; stroke-linejoin: miter; stroke-linecap: square"/>
   </g>
   <g id="text_17">
    <!-- Correlation in: 0.541 -->
    <g transform="translate(144.972 71.332) scale(0.22 -0.22)">
     <defs>
      <path id="DejaVuSans-43" d="M 4122 4306 
L 4122 3641 
Q 3803 3938 3442 4084 
Q 3081 4231 2675 4231 
Q 1875 4231 1450 3742 
Q 1025 3253 1025 2328 
Q 1025 1406 1450 917 
Q 1875 428 2675 428 
Q 3081 428 3442 575 
Q 3803 722 4122 1019 
L 4122 359 
Q 3791 134 3420 21 
Q 3050 -91 2638 -91 
Q 1578 -91 968 557 
Q 359 1206 359 2328 
Q 359 3453 968 4101 
Q 1578 4750 2638 4750 
Q 3056 4750 3426 4639 
Q 3797 4528 4122 4306 
z
" transform="scale(0.015625)"/>
      <path id="DejaVuSans-3a" d="M 750 794 
L 1409 794 
L 1409 0 
L 750 0 
L 750 794 
z
M 750 3309 
L 1409 3309 
L 1409 2516 
L 750 2516 
L 750 3309 
z
" transform="scale(0.015625)"/>
      <path id="DejaVuSans-2e" d="M 684 794 
L 1344 794 
L 1344 0 
L 684 0 
L 684 794 
z
" transform="scale(0.015625)"/>
     </defs>
     <use xlink:href="#DejaVuSans-43"/>
     <use xlink:href="#DejaVuSans-6f" x="69.824219"/>
     <use xlink:href="#DejaVuSans-72" x="131.005859"/>
     <use xlink:href="#DejaVuSans-72" x="170.369141"/>
     <use xlink:href="#DejaVuSans-65" x="209.232422"/>
     <use xlink:href="#DejaVuSans-6c" x="270.755859"/>
     <use xlink:href="#DejaVuSans-61" x="298.539062"/>
     <use xlink:href="#DejaVuSans-74" x="359.818359"/>
     <use xlink:href="#DejaVuSans-69" x="399.027344"/>
     <use xlink:href="#DejaVuSans-6f" x="426.810547"/>
     <use xlink:href="#DejaVuSans-6e" x="487.992188"/>
     <use xlink:href="#DejaVuSans-20" x="551.371094"/>
     <use xlink:href="#DejaVuSans-69" x="583.158203"/>
     <use xlink:href="#DejaVuSans-6e" x="610.941406"/>
     <use xlink:href="#DejaVuSans-3a" x="674.320312"/>
     <use xlink:href="#DejaVuSans-20" x="708.011719"/>
     <use xlink:href="#DejaVuSans-30" x="739.798828"/>
     <use xlink:href="#DejaVuSans-2e" x="803.421875"/>
     <use xlink:href="#DejaVuSans-35" x="835.208984"/>
     <use xlink:href="#DejaVuSans-34" x="898.832031"/>
     <use xlink:href="#DejaVuSans-31" x="962.455078"/>
    </g>
   </g>
  </g>
 </g>
 <defs>
  <clipPath id="pc0f2f077db">
   <rect x="83.72" y="23.76" width="612.52" height="475.72"/>
  </clipPath>
 </defs>
</svg>
