<?xml version="1.0" encoding="utf-8" standalone="no"?>
<!DOCTYPE svg PUBLIC "-//W3C//DTD SVG 1.1//EN"
  "http://www.w3.org/Graphics/SVG/1.1/DTD/svg11.dtd">
<svg xmlns:xlink="http://www.w3.org/1999/xlink" width="720pt" height="576pt" viewBox="0 0 720 576" xmlns="http://www.w3.org/2000/svg" version="1.1">
 <metadata>
  <rdf:RDF xmlns:dc="http://purl.org/dc/elements/1.1/" xmlns:cc="http://creativecommons.org/ns#" xmlns:rdf="http://www.w3.org/1999/02/22-rdf-syntax-ns#">
   <cc:Work>
    <dc:type rdf:resource="http://purl.org/dc/dcmitype/StillImage"/>
    <dc:date>2024-12-08T03:47:09.564322</dc:date>
    <dc:format>image/svg+xml</dc:format>
    <dc:creator>
     <cc:Agent>
      <dc:title>Matplotlib v3.8.4, https://matplotlib.org/</dc:title>
     </cc:Agent>
    </dc:creator>
   </cc:Work>
  </rdf:RDF>
 </metadata>
 <defs>
  <style type="text/css">*{stroke-linejoin: round; stroke-linecap: butt}</style>
 </defs>
 <g id="figure_1">
  <g id="patch_1">
   <path d="M 0 576 
L 720 576 
L 720 0 
L 0 0 
z
" style="fill: #ffffff"/>
  </g>
  <g id="axes_1">
   <g id="patch_2">
    <path d="M 83.72 499.48 
L 696.24 499.48 
L 696.24 23.76 
L 83.72 23.76 
z
" style="fill: #ffffff"/>
   </g>
   <g id="QuadContourSet_1">
    <path d="M 83.35258 477.413317 
L 84.966608 477.854859 
L 86.580636 478.170368 
L 88.194664 478.397489 
L 89.808692 478.562243 
L 91.422719 478.682941 
L 93.036747 478.772558 
L 94.650775 478.84016 
L 96.264803 478.891771 
L 97.878831 478.930974 
L 99.492859 478.959442 
L 101.106887 478.977483 
L 102.720915 478.984606 
L 104.334943 478.980044 
L 105.94897 478.963175 
L 107.562998 478.933843 
L 109.177026 478.892601 
L 110.791054 478.840923 
L 112.405082 478.781404 
L 114.01911 478.71788 
L 115.633138 478.655359 
L 117.247166 478.599585 
L 118.861193 478.556157 
L 120.475221 478.529322 
L 122.089249 478.520847 
L 123.703277 478.529489 
L 125.317305 478.551323 
L 126.931333 478.580788 
L 128.545361 478.611944 
L 130.159389 478.639486 
L 131.773417 478.659257 
L 133.387444 478.668337 
L 135.001472 478.664826 
L 136.6155 478.647519 
L 138.229528 478.615566 
L 139.843556 478.568176 
L 141.457584 478.504374 
L 143.071612 478.422807 
L 144.68564 478.32158 
L 146.299667 478.198105 
L 147.913695 478.048941 
L 149.527723 477.869616 
L 151.141751 477.654414 
L 152.755779 477.396117 
L 154.369807 477.085683 
L 154.984837 476.952012 
L 155.983835 476.84859 
L 157.597863 476.658046 
L 159.211891 476.43261 
L 160.825918 476.164851 
L 162.439946 475.845668 
L 164.053974 475.463975 
L 165.668002 475.006434 
L 167.035617 474.552406 
L 167.28203 474.504114 
L 168.896058 474.172794 
L 170.510086 473.781386 
L 172.124114 473.31908 
L 173.738142 472.775807 
L 175.334044 472.1528 
L 175.352169 472.147493 
L 176.966197 471.68675 
L 178.580225 471.168881 
L 180.194253 470.600696 
L 181.808281 469.996022 
L 182.483744 469.753193 
L 183.422309 469.423528 
L 185.036337 468.871548 
L 186.650365 468.315104 
L 188.264392 467.755469 
L 189.420994 467.353587 
L 189.87842 467.127195 
L 191.492448 466.32565 
L 193.106476 465.456767 
L 193.975489 464.953981 
L 194.720504 463.132501 
L 194.955257 462.554375 
L 194.720504 462.295307 
L 193.106476 460.61032 
L 192.663918 460.154769 
L 191.492448 459.543976 
L 189.87842 458.675784 
L 188.264392 457.755162 
L 188.264392 457.755162 
L 186.650365 456.920217 
L 185.036337 456.123645 
L 183.422309 455.407774 
L 183.300765 455.355556 
L 181.808281 454.734034 
L 180.194253 454.170559 
L 178.580225 453.710966 
L 176.966197 453.338825 
L 175.352169 453.037859 
L 174.848076 452.95595 
L 173.738142 452.694128 
L 172.124114 452.361021 
L 170.510086 452.077883 
L 168.896058 451.838312 
L 167.28203 451.636635 
L 165.668002 451.467437 
L 164.053974 451.325608 
L 162.439946 451.20677 
L 160.825918 451.107804 
L 159.211891 451.027193 
L 157.597863 450.964941 
L 155.983835 450.921986 
L 154.369807 450.899267 
L 152.755779 450.896736 
L 151.141751 450.91262 
L 149.527723 450.943088 
L 147.913695 450.982275 
L 146.299667 451.02263 
L 144.68564 451.055566 
L 143.071612 451.072542 
L 141.457584 451.066614 
L 139.843556 451.034224 
L 138.229528 450.97654 
L 136.6155 450.899492 
L 135.001472 450.812183 
L 133.387444 450.724267 
L 131.773417 450.643548 
L 130.159389 450.574707 
L 129.642231 450.556344 
L 128.545361 450.483146 
L 126.931333 450.396655 
L 125.317305 450.329456 
L 123.703277 450.277782 
L 122.089249 450.238412 
L 120.475221 450.209377 
L 118.861193 450.1904 
L 117.247166 450.183096 
L 115.633138 450.190992 
L 114.01911 450.219412 
L 112.405082 450.275309 
L 110.791054 450.367119 
L 109.177026 450.504702 
L 108.733493 450.556344 
L 107.562998 450.62001 
L 105.94897 450.736005 
L 104.334943 450.886898 
L 102.720915 451.080015 
L 101.106887 451.325222 
L 99.492859 451.636377 
L 97.878831 452.033431 
L 96.264803 452.545498 
L 95.214754 452.95595 
L 94.650775 453.071061 
L 93.036747 453.45739 
L 91.422719 453.966553 
L 89.808692 454.655123 
L 88.553117 455.355556 
L 88.194664 455.477623 
L 86.580636 456.110683 
L 84.966608 457.000218 
L 83.90637 457.755162 
L 83.35258 458.045074 
L 81.738552 459.051983 
L 80.44273 460.154769 
L 80.124524 460.402163 
L 78.510496 461.81939 
L 77.810539 462.554375 
L 76.896468 463.691694 
L 75.9567 464.953981 
L 75.282441 466.497777 
L 74.865186 467.353587 
L 74.546613 469.753193 
L 75.262024 472.1528 
L 75.282441 472.181932 
L 76.896468 474.196494 
L 77.275406 474.552406 
L 78.510496 475.466072 
L 80.124524 476.304491 
L 81.738552 476.855231 
L 82.105165 476.952012 
z
M 89.477265 474.552406 
L 88.194664 474.30211 
L 86.580636 473.85588 
L 84.966608 473.201773 
L 83.35258 472.233884 
L 83.239096 472.1528 
L 81.738552 470.34915 
L 81.349506 469.753193 
L 81.177733 467.353587 
L 81.738552 466.099038 
L 82.210381 464.953981 
L 83.35258 463.588244 
L 84.31291 462.554375 
L 84.966608 461.989106 
L 86.580636 460.787567 
L 87.620369 460.154769 
L 88.194664 459.779226 
L 89.808692 458.873937 
L 91.422719 458.183017 
L 92.658039 457.755162 
L 93.036747 457.57813 
L 94.650775 456.925145 
L 96.264803 456.419039 
L 97.878831 456.019849 
L 99.492859 455.700351 
L 101.106887 455.441878 
L 101.749356 455.355556 
L 102.720915 455.144823 
L 104.334943 454.862348 
L 105.94897 454.64158 
L 107.562998 454.470642 
L 109.177026 454.340554 
L 110.791054 454.244421 
L 112.405082 454.176968 
L 114.01911 454.134323 
L 115.633138 454.113928 
L 117.247166 454.114515 
L 118.861193 454.136039 
L 120.475221 454.179548 
L 122.089249 454.246913 
L 123.703277 454.340393 
L 125.317305 454.461952 
L 126.931333 454.612293 
L 128.545361 454.789641 
L 130.159389 454.9885 
L 131.773417 455.198864 
L 133.002967 455.355556 
L 133.387444 455.388609 
L 135.001472 455.507877 
L 136.6155 455.601765 
L 138.229528 455.666355 
L 139.843556 455.702198 
L 141.457584 455.713475 
L 143.071612 455.70665 
L 144.68564 455.689116 
L 146.299667 455.668097 
L 147.913695 455.649889 
L 149.527723 455.639424 
L 151.141751 455.640166 
L 152.755779 455.654309 
L 154.369807 455.683274 
L 155.983835 455.728398 
L 157.597863 455.791689 
L 159.211891 455.876503 
L 160.825918 455.98802 
L 162.439946 456.133509 
L 164.053974 456.32242 
L 165.668002 456.566413 
L 167.28203 456.879505 
L 168.896058 457.278514 
L 170.427038 457.755162 
L 170.510086 457.783994 
L 172.124114 458.445767 
L 173.738142 459.33326 
L 174.918995 460.154769 
L 175.352169 460.928775 
L 176.171437 462.554375 
L 175.352169 464.953981 
L 175.352169 464.953981 
L 173.738142 466.481874 
L 172.747884 467.353587 
L 172.124114 467.730155 
L 170.510086 468.639509 
L 168.896058 469.420029 
L 168.148253 469.753193 
L 167.28203 470.131792 
L 165.668002 470.764758 
L 164.053974 471.300524 
L 162.439946 471.757491 
L 160.825918 472.150534 
L 160.816055 472.1528 
L 159.211891 472.624097 
L 157.597863 473.023047 
L 155.983835 473.359699 
L 154.369807 473.644698 
L 152.755779 473.886576 
L 151.141751 474.09215 
L 149.527723 474.266823 
L 147.913695 474.414826 
L 146.299667 474.539412 
L 146.100865 474.552406 
L 144.68564 474.698755 
L 143.071612 474.831369 
L 141.457584 474.932599 
L 139.843556 475.005174 
L 138.229528 475.051162 
L 136.6155 475.072282 
L 135.001472 475.070315 
L 133.387444 475.047634 
L 131.773417 475.007813 
L 130.159389 474.956212 
L 128.545361 474.900346 
L 126.931333 474.849732 
L 125.317305 474.814949 
L 123.703277 474.805833 
L 122.089249 474.829205 
L 120.475221 474.886978 
L 118.861193 474.975537 
L 117.247166 475.086725 
L 115.633138 475.209924 
L 114.01911 475.334314 
L 112.405082 475.450534 
L 110.791054 475.551485 
L 109.177026 475.632436 
L 107.562998 475.690748 
L 105.94897 475.725455 
L 104.334943 475.736828 
L 102.720915 475.725897 
L 101.106887 475.693882 
L 99.492859 475.641459 
L 97.878831 475.567874 
L 96.264803 475.469972 
L 94.650775 475.341237 
L 93.036747 475.170817 
L 91.422719 474.942389 
L 89.808692 474.632508 
z
" clip-path="url(#p803ab19bbe)" style="fill: #eaf2fb"/>
    <path d="M 89.808692 474.632508 
L 91.422719 474.942389 
L 93.036747 475.170817 
L 94.650775 475.341237 
L 96.264803 475.469972 
L 97.878831 475.567874 
L 99.492859 475.641459 
L 101.106887 475.693882 
L 102.720915 475.725897 
L 104.334943 475.736828 
L 105.94897 475.725455 
L 107.562998 475.690748 
L 109.177026 475.632436 
L 110.791054 475.551485 
L 112.405082 475.450534 
L 114.01911 475.334314 
L 115.633138 475.209924 
L 117.247166 475.086725 
L 118.861193 474.975537 
L 120.475221 474.886978 
L 122.089249 474.829205 
L 123.703277 474.805833 
L 125.317305 474.814949 
L 126.931333 474.849732 
L 128.545361 474.900346 
L 130.159389 474.956212 
L 131.773417 475.007813 
L 133.387444 475.047634 
L 135.001472 475.070315 
L 136.6155 475.072282 
L 138.229528 475.051162 
L 139.843556 475.005174 
L 141.457584 474.932599 
L 143.071612 474.831369 
L 144.68564 474.698755 
L 146.100865 474.552406 
L 146.299667 474.539412 
L 147.913695 474.414826 
L 149.527723 474.266823 
L 151.141751 474.09215 
L 152.755779 473.886576 
L 154.369807 473.644698 
L 155.983835 473.359699 
L 157.597863 473.023047 
L 159.211891 472.624097 
L 160.816055 472.1528 
L 160.825918 472.150534 
L 162.439946 471.757491 
L 164.053974 471.300524 
L 165.668002 470.764758 
L 167.28203 470.131792 
L 168.148253 469.753193 
L 168.896058 469.420029 
L 170.510086 468.639509 
L 172.124114 467.730155 
L 172.747884 467.353587 
L 173.738142 466.481874 
L 175.352169 464.953981 
L 175.352169 464.953981 
L 176.171437 462.554375 
L 175.352169 460.928775 
L 174.918995 460.154769 
L 173.738142 459.33326 
L 172.124114 458.445767 
L 170.510086 457.783994 
L 170.427038 457.755162 
L 168.896058 457.278514 
L 167.28203 456.879505 
L 165.668002 456.566413 
L 164.053974 456.32242 
L 162.439946 456.133509 
L 160.825918 455.98802 
L 159.211891 455.876503 
L 157.597863 455.791689 
L 155.983835 455.728398 
L 154.369807 455.683274 
L 152.755779 455.654309 
L 151.141751 455.640166 
L 149.527723 455.639424 
L 147.913695 455.649889 
L 146.299667 455.668097 
L 144.68564 455.689116 
L 143.071612 455.70665 
L 141.457584 455.713475 
L 139.843556 455.702198 
L 138.229528 455.666355 
L 136.6155 455.601765 
L 135.001472 455.507877 
L 133.387444 455.388609 
L 133.002967 455.355556 
L 131.773417 455.198864 
L 130.159389 454.9885 
L 128.545361 454.789641 
L 126.931333 454.612293 
L 125.317305 454.461952 
L 123.703277 454.340393 
L 122.089249 454.246913 
L 120.475221 454.179548 
L 118.861193 454.136039 
L 117.247166 454.114515 
L 115.633138 454.113928 
L 114.01911 454.134323 
L 112.405082 454.176968 
L 110.791054 454.244421 
L 109.177026 454.340554 
L 107.562998 454.470642 
L 105.94897 454.64158 
L 104.334943 454.862348 
L 102.720915 455.144823 
L 101.749356 455.355556 
L 101.106887 455.441878 
L 99.492859 455.700351 
L 97.878831 456.019849 
L 96.264803 456.419039 
L 94.650775 456.925145 
L 93.036747 457.57813 
L 92.658039 457.755162 
L 91.422719 458.183017 
L 89.808692 458.873937 
L 88.194664 459.779226 
L 87.620369 460.154769 
L 86.580636 460.787567 
L 84.966608 461.989106 
L 84.31291 462.554375 
L 83.35258 463.588244 
L 82.210381 464.953981 
L 81.738552 466.099038 
L 81.177733 467.353587 
L 81.349506 469.753193 
L 81.738552 470.34915 
L 83.239096 472.1528 
L 83.35258 472.233884 
L 84.966608 473.201773 
L 86.580636 473.85588 
L 88.194664 474.30211 
L 89.477265 474.552406 
z
M 88.371398 472.1528 
L 88.194664 472.077067 
L 86.580636 471.160516 
L 84.985095 469.753193 
L 84.966608 469.689488 
L 84.370441 467.353587 
L 84.966608 465.905835 
L 85.332128 464.953981 
L 86.580636 463.585393 
L 87.63628 462.554375 
L 88.194664 462.13314 
L 89.808692 461.070969 
L 91.422719 460.225342 
L 91.572381 460.154769 
L 93.036747 459.432543 
L 94.650775 458.801723 
L 96.264803 458.299087 
L 97.878831 457.892164 
L 98.519495 457.755162 
L 99.492859 457.480595 
L 101.106887 457.109612 
L 102.720915 456.815844 
L 104.334943 456.583192 
L 105.94897 456.399901 
L 107.562998 456.257232 
L 109.177026 456.148605 
L 110.791054 456.06912 
L 112.405082 456.015317 
L 114.01911 455.985105 
L 115.633138 455.977721 
L 117.247166 455.993667 
L 118.861193 456.034516 
L 120.475221 456.102546 
L 122.089249 456.200136 
L 123.703277 456.328859 
L 125.317305 456.488315 
L 126.931333 456.674847 
L 128.545361 456.880578 
L 130.159389 457.093354 
L 131.773417 457.298091 
L 133.387444 457.4795 
L 135.001472 457.625335 
L 136.6155 457.728922 
L 137.308202 457.755162 
L 138.229528 457.781067 
L 139.843556 457.798511 
L 141.457584 457.795102 
L 143.071612 457.778664 
L 144.68564 457.756661 
L 144.800879 457.755162 
L 146.299667 457.728845 
L 147.913695 457.709466 
L 149.527723 457.704734 
L 151.141751 457.718863 
L 152.755779 457.755162 
L 152.755779 457.755162 
L 154.369807 457.802778 
L 155.983835 457.87475 
L 157.597863 457.977022 
L 159.211891 458.118061 
L 160.825918 458.309497 
L 162.439946 458.566728 
L 164.053974 458.909592 
L 165.668002 459.363297 
L 167.28203 459.959872 
L 167.725789 460.154769 
L 168.896058 461.101825 
L 170.235311 462.554375 
L 169.824637 464.953981 
L 168.896058 465.818537 
L 167.28203 467.240517 
L 167.151793 467.353587 
L 165.668002 468.149231 
L 164.053974 468.904586 
L 162.439946 469.566019 
L 161.94883 469.753193 
L 160.825918 470.152678 
L 159.211891 470.655148 
L 157.597863 471.08438 
L 155.983835 471.452994 
L 154.369807 471.770991 
L 152.755779 472.046223 
L 152.048387 472.1528 
L 151.141751 472.319491 
L 149.527723 472.572157 
L 147.913695 472.780693 
L 146.299667 472.950777 
L 144.68564 473.086844 
L 143.071612 473.192296 
L 141.457584 473.269687 
L 139.843556 473.320927 
L 138.229528 473.347546 
L 136.6155 473.351067 
L 135.001472 473.333508 
L 133.387444 473.297991 
L 131.773417 473.249373 
L 130.159389 473.194695 
L 128.545361 473.143143 
L 126.931333 473.105243 
L 125.317305 473.091169 
L 123.703277 473.108512 
L 122.089249 473.160318 
L 120.475221 473.244266 
L 118.861193 473.353379 
L 117.247166 473.477872 
L 115.633138 473.607279 
L 114.01911 473.732105 
L 112.405082 473.844712 
L 110.791054 473.939547 
L 109.177026 474.012986 
L 107.562998 474.063044 
L 105.94897 474.089059 
L 104.334943 474.091351 
L 102.720915 474.07077 
L 101.106887 474.028044 
L 99.492859 473.962887 
L 97.878831 473.872924 
L 96.264803 473.752521 
L 94.650775 473.591547 
L 93.036747 473.373931 
L 91.422719 473.07569 
L 89.808692 472.66185 
z
" clip-path="url(#p803ab19bbe)" style="fill: #d1e2f3"/>
    <path d="M 89.808692 472.66185 
L 91.422719 473.07569 
L 93.036747 473.373931 
L 94.650775 473.591547 
L 96.264803 473.752521 
L 97.878831 473.872924 
L 99.492859 473.962887 
L 101.106887 474.028044 
L 102.720915 474.07077 
L 104.334943 474.091351 
L 105.94897 474.089059 
L 107.562998 474.063044 
L 109.177026 474.012986 
L 110.791054 473.939547 
L 112.405082 473.844712 
L 114.01911 473.732105 
L 115.633138 473.607279 
L 117.247166 473.477872 
L 118.861193 473.353379 
L 120.475221 473.244266 
L 122.089249 473.160318 
L 123.703277 473.108512 
L 125.317305 473.091169 
L 126.931333 473.105243 
L 128.545361 473.143143 
L 130.159389 473.194695 
L 131.773417 473.249373 
L 133.387444 473.297991 
L 135.001472 473.333508 
L 136.6155 473.351067 
L 138.229528 473.347546 
L 139.843556 473.320927 
L 141.457584 473.269687 
L 143.071612 473.192296 
L 144.68564 473.086844 
L 146.299667 472.950777 
L 147.913695 472.780693 
L 149.527723 472.572157 
L 151.141751 472.319491 
L 152.048387 472.1528 
L 152.755779 472.046223 
L 154.369807 471.770991 
L 155.983835 471.452994 
L 157.597863 471.08438 
L 159.211891 470.655148 
L 160.825918 470.152678 
L 161.94883 469.753193 
L 162.439946 469.566019 
L 164.053974 468.904586 
L 165.668002 468.149231 
L 167.151793 467.353587 
L 167.28203 467.240517 
L 168.896058 465.818537 
L 169.824637 464.953981 
L 170.235311 462.554375 
L 168.896058 461.101825 
L 167.725789 460.154769 
L 167.28203 459.959872 
L 165.668002 459.363297 
L 164.053974 458.909592 
L 162.439946 458.566728 
L 160.825918 458.309497 
L 159.211891 458.118061 
L 157.597863 457.977022 
L 155.983835 457.87475 
L 154.369807 457.802778 
L 152.755779 457.755162 
L 152.755779 457.755162 
L 151.141751 457.718863 
L 149.527723 457.704734 
L 147.913695 457.709466 
L 146.299667 457.728845 
L 144.800879 457.755162 
L 144.68564 457.756661 
L 143.071612 457.778664 
L 141.457584 457.795102 
L 139.843556 457.798511 
L 138.229528 457.781067 
L 137.308202 457.755162 
L 136.6155 457.728922 
L 135.001472 457.625335 
L 133.387444 457.4795 
L 131.773417 457.298091 
L 130.159389 457.093354 
L 128.545361 456.880578 
L 126.931333 456.674847 
L 125.317305 456.488315 
L 123.703277 456.328859 
L 122.089249 456.200136 
L 120.475221 456.102546 
L 118.861193 456.034516 
L 117.247166 455.993667 
L 115.633138 455.977721 
L 114.01911 455.985105 
L 112.405082 456.015317 
L 110.791054 456.06912 
L 109.177026 456.148605 
L 107.562998 456.257232 
L 105.94897 456.399901 
L 104.334943 456.583192 
L 102.720915 456.815844 
L 101.106887 457.109612 
L 99.492859 457.480595 
L 98.519495 457.755162 
L 97.878831 457.892164 
L 96.264803 458.299087 
L 94.650775 458.801723 
L 93.036747 459.432543 
L 91.572381 460.154769 
L 91.422719 460.225342 
L 89.808692 461.070969 
L 88.194664 462.13314 
L 87.63628 462.554375 
L 86.580636 463.585393 
L 85.332128 464.953981 
L 84.966608 465.905835 
L 84.370441 467.353587 
L 84.966608 469.689488 
L 84.985095 469.753193 
L 86.580636 471.160516 
L 88.194664 472.077067 
L 88.371398 472.1528 
z
M 95.658226 472.1528 
L 94.650775 472.004488 
L 93.036747 471.679719 
L 91.422719 471.215069 
L 89.808692 470.540229 
L 88.486752 469.753193 
L 88.194664 469.301054 
L 87.235722 467.353587 
L 88.09182 464.953981 
L 88.194664 464.847147 
L 89.808692 463.281966 
L 90.651133 462.554375 
L 91.422719 462.065111 
L 93.036747 461.190921 
L 94.650775 460.477799 
L 95.505291 460.154769 
L 96.264803 459.861303 
L 97.878831 459.341619 
L 99.492859 458.92581 
L 101.106887 458.591108 
L 102.720915 458.321336 
L 104.334943 458.104731 
L 105.94897 457.932475 
L 107.562998 457.797759 
L 108.231994 457.755162 
L 109.177026 457.678409 
L 110.791054 457.585093 
L 112.405082 457.526409 
L 114.01911 457.500595 
L 115.633138 457.507796 
L 117.247166 457.549679 
L 118.861193 457.62891 
L 120.475221 457.748444 
L 120.544629 457.755162 
L 122.089249 457.887533 
L 123.703277 458.063095 
L 125.317305 458.270694 
L 126.931333 458.499131 
L 128.545361 458.732281 
L 130.159389 458.951886 
L 131.773417 459.141507 
L 133.387444 459.290004 
L 135.001472 459.393149 
L 136.6155 459.453137 
L 138.229528 459.476742 
L 139.843556 459.473165 
L 141.457584 459.452276 
L 143.071612 459.423489 
L 144.68564 459.395178 
L 146.299667 459.37448 
L 147.913695 459.36737 
L 149.527723 459.378923 
L 151.141751 459.41377 
L 152.755779 459.476712 
L 154.369807 459.573469 
L 155.983835 459.711495 
L 157.597863 459.900804 
L 159.211891 460.154769 
L 159.211891 460.154769 
L 160.825918 460.577107 
L 162.439946 461.173472 
L 164.053974 462.009883 
L 164.868943 462.554375 
L 165.055235 464.953981 
L 164.053974 465.838061 
L 162.439946 467.206474 
L 162.262856 467.353587 
L 160.825918 468.006818 
L 159.211891 468.653256 
L 157.597863 469.223828 
L 155.983835 469.731994 
L 155.910495 469.753193 
L 154.369807 470.141164 
L 152.755779 470.486126 
L 151.141751 470.777575 
L 149.527723 471.022528 
L 147.913695 471.226399 
L 146.299667 471.393296 
L 144.68564 471.526279 
L 143.071612 471.627564 
L 141.457584 471.698742 
L 139.843556 471.741031 
L 138.229528 471.755642 
L 136.6155 471.744321 
L 135.001472 471.710061 
L 133.387444 471.657896 
L 131.773417 471.595515 
L 130.159389 471.533329 
L 128.545361 471.483589 
L 126.931333 471.458476 
L 125.317305 471.467556 
L 123.703277 471.515555 
L 122.089249 471.601396 
L 120.475221 471.718847 
L 118.861193 471.858347 
L 117.247166 472.009109 
L 115.721139 472.1528 
L 115.633138 472.162691 
L 114.01911 472.33938 
L 112.405082 472.494201 
L 110.791054 472.620293 
L 109.177026 472.713671 
L 107.562998 472.772655 
L 105.94897 472.797269 
L 104.334943 472.788608 
L 102.720915 472.748067 
L 101.106887 472.676343 
L 99.492859 472.572188 
L 97.878831 472.431005 
L 96.264803 472.243375 
z
" clip-path="url(#p803ab19bbe)" style="fill: #b0d2e7"/>
    <path d="M 96.264803 472.243375 
L 97.878831 472.431005 
L 99.492859 472.572188 
L 101.106887 472.676343 
L 102.720915 472.748067 
L 104.334943 472.788608 
L 105.94897 472.797269 
L 107.562998 472.772655 
L 109.177026 472.713671 
L 110.791054 472.620293 
L 112.405082 472.494201 
L 114.01911 472.33938 
L 115.633138 472.162691 
L 115.721139 472.1528 
L 117.247166 472.009109 
L 118.861193 471.858347 
L 120.475221 471.718847 
L 122.089249 471.601396 
L 123.703277 471.515555 
L 125.317305 471.467556 
L 126.931333 471.458476 
L 128.545361 471.483589 
L 130.159389 471.533329 
L 131.773417 471.595515 
L 133.387444 471.657896 
L 135.001472 471.710061 
L 136.6155 471.744321 
L 138.229528 471.755642 
L 139.843556 471.741031 
L 141.457584 471.698742 
L 143.071612 471.627564 
L 144.68564 471.526279 
L 146.299667 471.393296 
L 147.913695 471.226399 
L 149.527723 471.022528 
L 151.141751 470.777575 
L 152.755779 470.486126 
L 154.369807 470.141164 
L 155.910495 469.753193 
L 155.983835 469.731994 
L 157.597863 469.223828 
L 159.211891 468.653256 
L 160.825918 468.006818 
L 162.262856 467.353587 
L 162.439946 467.206474 
L 164.053974 465.838061 
L 165.055235 464.953981 
L 164.868943 462.554375 
L 164.053974 462.009883 
L 162.439946 461.173472 
L 160.825918 460.577107 
L 159.211891 460.154769 
L 159.211891 460.154769 
L 157.597863 459.900804 
L 155.983835 459.711495 
L 154.369807 459.573469 
L 152.755779 459.476712 
L 151.141751 459.41377 
L 149.527723 459.378923 
L 147.913695 459.36737 
L 146.299667 459.37448 
L 144.68564 459.395178 
L 143.071612 459.423489 
L 141.457584 459.452276 
L 139.843556 459.473165 
L 138.229528 459.476742 
L 136.6155 459.453137 
L 135.001472 459.393149 
L 133.387444 459.290004 
L 131.773417 459.141507 
L 130.159389 458.951886 
L 128.545361 458.732281 
L 126.931333 458.499131 
L 125.317305 458.270694 
L 123.703277 458.063095 
L 122.089249 457.887533 
L 120.544629 457.755162 
L 120.475221 457.748444 
L 118.861193 457.62891 
L 117.247166 457.549679 
L 115.633138 457.507796 
L 114.01911 457.500595 
L 112.405082 457.526409 
L 110.791054 457.585093 
L 109.177026 457.678409 
L 108.231994 457.755162 
L 107.562998 457.797759 
L 105.94897 457.932475 
L 104.334943 458.104731 
L 102.720915 458.321336 
L 101.106887 458.591108 
L 99.492859 458.92581 
L 97.878831 459.341619 
L 96.264803 459.861303 
L 95.505291 460.154769 
L 94.650775 460.477799 
L 93.036747 461.190921 
L 91.422719 462.065111 
L 90.651133 462.554375 
L 89.808692 463.281966 
L 88.194664 464.847147 
L 88.09182 464.953981 
L 87.235722 467.353587 
L 88.194664 469.301054 
L 88.486752 469.753193 
L 89.808692 470.540229 
L 91.422719 471.215069 
L 93.036747 471.679719 
L 94.650775 472.004488 
L 95.658226 472.1528 
z
M 91.422719 469.753193 
L 91.422719 469.753193 
L 89.808692 467.993662 
L 89.391083 467.353587 
L 89.808692 466.0287 
L 90.12843 464.953981 
L 91.422719 463.778743 
L 92.949656 462.554375 
L 93.036747 462.504607 
L 94.650775 461.688282 
L 96.264803 461.022029 
L 97.878831 460.471304 
L 98.981663 460.154769 
L 99.492859 460.008413 
L 101.106887 459.62624 
L 102.720915 459.322328 
L 104.334943 459.081552 
L 105.94897 458.892729 
L 107.562998 458.74759 
L 109.177026 458.640211 
L 110.791054 458.566765 
L 112.405082 458.525416 
L 114.01911 458.516239 
L 115.633138 458.541018 
L 117.247166 458.602828 
L 118.861193 458.705277 
L 120.475221 458.851303 
L 122.089249 459.041508 
L 123.703277 459.272217 
L 125.317305 459.533844 
L 126.931333 459.810523 
L 128.545361 460.081838 
L 129.032425 460.154769 
L 130.159389 460.340722 
L 131.773417 460.546933 
L 133.387444 460.68892 
L 135.001472 460.772501 
L 136.6155 460.808501 
L 138.229528 460.809466 
L 139.843556 460.78766 
L 141.457584 460.754168 
L 143.071612 460.718658 
L 144.68564 460.689496 
L 146.299667 460.674031 
L 147.913695 460.679007 
L 149.527723 460.711151 
L 151.141751 460.777962 
L 152.755779 460.88876 
L 154.369807 461.055991 
L 155.983835 461.296822 
L 157.597863 461.635082 
L 159.211891 462.103687 
L 160.376953 462.554375 
L 160.825918 463.406202 
L 161.424462 464.953981 
L 160.825918 465.453682 
L 159.211891 466.759345 
L 158.462241 467.353587 
L 157.597863 467.690179 
L 155.983835 468.250304 
L 154.369807 468.741308 
L 152.755779 469.172877 
L 151.141751 469.551935 
L 150.15976 469.753193 
L 149.527723 469.859368 
L 147.913695 470.083991 
L 146.299667 470.263276 
L 144.68564 470.401468 
L 143.071612 470.501802 
L 141.457584 470.566765 
L 139.843556 470.598441 
L 138.229528 470.599013 
L 136.6155 470.571461 
L 135.001472 470.520431 
L 133.387444 470.453113 
L 131.773417 470.379799 
L 130.159389 470.313672 
L 128.545361 470.269433 
L 126.931333 470.260763 
L 125.317305 470.297261 
L 123.703277 470.382039 
L 122.089249 470.511051 
L 120.475221 470.674393 
L 118.861193 470.858867 
L 117.247166 471.05064 
L 115.633138 471.237183 
L 114.01911 471.408222 
L 112.405082 471.555932 
L 110.791054 471.674737 
L 109.177026 471.761013 
L 107.562998 471.812823 
L 105.94897 471.829629 
L 104.334943 471.811837 
L 102.720915 471.759977 
L 101.106887 471.67344 
L 99.492859 471.548797 
L 97.878831 471.377832 
L 96.264803 471.145294 
L 94.650775 470.826138 
L 93.036747 470.381628 
z
" clip-path="url(#p803ab19bbe)" style="fill: #87bddc"/>
    <path d="M 93.036747 470.381628 
L 94.650775 470.826138 
L 96.264803 471.145294 
L 97.878831 471.377832 
L 99.492859 471.548797 
L 101.106887 471.67344 
L 102.720915 471.759977 
L 104.334943 471.811837 
L 105.94897 471.829629 
L 107.562998 471.812823 
L 109.177026 471.761013 
L 110.791054 471.674737 
L 112.405082 471.555932 
L 114.01911 471.408222 
L 115.633138 471.237183 
L 117.247166 471.05064 
L 118.861193 470.858867 
L 120.475221 470.674393 
L 122.089249 470.511051 
L 123.703277 470.382039 
L 125.317305 470.297261 
L 126.931333 470.260763 
L 128.545361 470.269433 
L 130.159389 470.313672 
L 131.773417 470.379799 
L 133.387444 470.453113 
L 135.001472 470.520431 
L 136.6155 470.571461 
L 138.229528 470.599013 
L 139.843556 470.598441 
L 141.457584 470.566765 
L 143.071612 470.501802 
L 144.68564 470.401468 
L 146.299667 470.263276 
L 147.913695 470.083991 
L 149.527723 469.859368 
L 150.15976 469.753193 
L 151.141751 469.551935 
L 152.755779 469.172877 
L 154.369807 468.741308 
L 155.983835 468.250304 
L 157.597863 467.690179 
L 158.462241 467.353587 
L 159.211891 466.759345 
L 160.825918 465.453682 
L 161.424462 464.953981 
L 160.825918 463.406202 
L 160.376953 462.554375 
L 159.211891 462.103687 
L 157.597863 461.635082 
L 155.983835 461.296822 
L 154.369807 461.055991 
L 152.755779 460.88876 
L 151.141751 460.777962 
L 149.527723 460.711151 
L 147.913695 460.679007 
L 146.299667 460.674031 
L 144.68564 460.689496 
L 143.071612 460.718658 
L 141.457584 460.754168 
L 139.843556 460.78766 
L 138.229528 460.809466 
L 136.6155 460.808501 
L 135.001472 460.772501 
L 133.387444 460.68892 
L 131.773417 460.546933 
L 130.159389 460.340722 
L 129.032425 460.154769 
L 128.545361 460.081838 
L 126.931333 459.810523 
L 125.317305 459.533844 
L 123.703277 459.272217 
L 122.089249 459.041508 
L 120.475221 458.851303 
L 118.861193 458.705277 
L 117.247166 458.602828 
L 115.633138 458.541018 
L 114.01911 458.516239 
L 112.405082 458.525416 
L 110.791054 458.566765 
L 109.177026 458.640211 
L 107.562998 458.74759 
L 105.94897 458.892729 
L 104.334943 459.081552 
L 102.720915 459.322328 
L 101.106887 459.62624 
L 99.492859 460.008413 
L 98.981663 460.154769 
L 97.878831 460.471304 
L 96.264803 461.022029 
L 94.650775 461.688282 
L 93.036747 462.504607 
L 92.949656 462.554375 
L 91.422719 463.778743 
L 90.12843 464.953981 
L 89.808692 466.0287 
L 89.391083 467.353587 
L 89.808692 467.993662 
L 91.422719 469.753193 
L 91.422719 469.753193 
z
M 95.66455 469.753193 
L 94.650775 469.329952 
L 93.036747 468.341869 
L 91.944726 467.353587 
L 92.479975 464.953981 
L 93.036747 464.489123 
L 94.650775 463.279488 
L 95.736251 462.554375 
L 96.264803 462.318961 
L 97.878831 461.709362 
L 99.492859 461.210436 
L 101.106887 460.801354 
L 102.720915 460.467224 
L 104.334943 460.196893 
L 104.649733 460.154769 
L 105.94897 459.988121 
L 107.562998 459.831091 
L 109.177026 459.718098 
L 110.791054 459.645369 
L 112.405082 459.611704 
L 114.01911 459.618127 
L 115.633138 459.667395 
L 117.247166 459.763283 
L 118.861193 459.909502 
L 120.475221 460.108181 
L 120.787847 460.154769 
L 122.089249 460.39709 
L 123.703277 460.744691 
L 125.317305 461.115272 
L 126.931333 461.474479 
L 128.545361 461.789396 
L 130.159389 462.037203 
L 131.773417 462.209282 
L 133.387444 462.309781 
L 135.001472 462.350985 
L 136.6155 462.348489 
L 138.229528 462.317843 
L 139.843556 462.272903 
L 141.457584 462.225391 
L 143.071612 462.185129 
L 144.68564 462.160544 
L 146.299667 462.159285 
L 147.913695 462.188894 
L 149.527723 462.257594 
L 151.141751 462.375218 
L 152.755779 462.554375 
L 152.755779 462.554375 
L 154.369807 463.170987 
L 155.983835 464.189551 
L 156.79116 464.953981 
L 155.983835 465.54594 
L 154.369807 466.698871 
L 153.443082 467.353587 
L 152.755779 467.545619 
L 151.141751 467.933149 
L 149.527723 468.260206 
L 147.913695 468.531338 
L 146.299667 468.749466 
L 144.68564 468.916317 
L 143.071612 469.032858 
L 141.457584 469.099828 
L 139.843556 469.118487 
L 138.229528 469.091733 
L 136.6155 469.025581 
L 135.001472 468.930676 
L 133.387444 468.823121 
L 131.773417 468.723709 
L 130.159389 468.655007 
L 128.545361 468.636857 
L 126.931333 468.681974 
L 125.317305 468.793566 
L 123.703277 468.965836 
L 122.089249 469.186675 
L 120.475221 469.441 
L 118.861193 469.713442 
L 118.63625 469.753193 
L 117.247166 469.957284 
L 115.633138 470.183602 
L 114.01911 470.385936 
L 112.405082 470.555852 
L 110.791054 470.687814 
L 109.177026 470.778674 
L 107.562998 470.827179 
L 105.94897 470.833464 
L 104.334943 470.798324 
L 102.720915 470.722123 
L 101.106887 470.603235 
L 99.492859 470.436113 
L 97.878831 470.209074 
L 96.264803 469.901766 
z
" clip-path="url(#p803ab19bbe)" style="fill: #5fa6d1"/>
    <path d="M 96.264803 469.901766 
L 97.878831 470.209074 
L 99.492859 470.436113 
L 101.106887 470.603235 
L 102.720915 470.722123 
L 104.334943 470.798324 
L 105.94897 470.833464 
L 107.562998 470.827179 
L 109.177026 470.778674 
L 110.791054 470.687814 
L 112.405082 470.555852 
L 114.01911 470.385936 
L 115.633138 470.183602 
L 117.247166 469.957284 
L 118.63625 469.753193 
L 118.861193 469.713442 
L 120.475221 469.441 
L 122.089249 469.186675 
L 123.703277 468.965836 
L 125.317305 468.793566 
L 126.931333 468.681974 
L 128.545361 468.636857 
L 130.159389 468.655007 
L 131.773417 468.723709 
L 133.387444 468.823121 
L 135.001472 468.930676 
L 136.6155 469.025581 
L 138.229528 469.091733 
L 139.843556 469.118487 
L 141.457584 469.099828 
L 143.071612 469.032858 
L 144.68564 468.916317 
L 146.299667 468.749466 
L 147.913695 468.531338 
L 149.527723 468.260206 
L 151.141751 467.933149 
L 152.755779 467.545619 
L 153.443082 467.353587 
L 154.369807 466.698871 
L 155.983835 465.54594 
L 156.79116 464.953981 
L 155.983835 464.189551 
L 154.369807 463.170987 
L 152.755779 462.554375 
L 152.755779 462.554375 
L 151.141751 462.375218 
L 149.527723 462.257594 
L 147.913695 462.188894 
L 146.299667 462.159285 
L 144.68564 462.160544 
L 143.071612 462.185129 
L 141.457584 462.225391 
L 139.843556 462.272903 
L 138.229528 462.317843 
L 136.6155 462.348489 
L 135.001472 462.350985 
L 133.387444 462.309781 
L 131.773417 462.209282 
L 130.159389 462.037203 
L 128.545361 461.789396 
L 126.931333 461.474479 
L 125.317305 461.115272 
L 123.703277 460.744691 
L 122.089249 460.39709 
L 120.787847 460.154769 
L 120.475221 460.108181 
L 118.861193 459.909502 
L 117.247166 459.763283 
L 115.633138 459.667395 
L 114.01911 459.618127 
L 112.405082 459.611704 
L 110.791054 459.645369 
L 109.177026 459.718098 
L 107.562998 459.831091 
L 105.94897 459.988121 
L 104.649733 460.154769 
L 104.334943 460.196893 
L 102.720915 460.467224 
L 101.106887 460.801354 
L 99.492859 461.210436 
L 97.878831 461.709362 
L 96.264803 462.318961 
L 95.736251 462.554375 
L 94.650775 463.279488 
L 93.036747 464.489123 
L 92.479975 464.953981 
L 91.944726 467.353587 
L 93.036747 468.341869 
L 94.650775 469.329952 
L 95.66455 469.753193 
z
M 99.637887 469.753193 
L 99.492859 469.72807 
L 97.878831 469.351262 
L 96.264803 468.808514 
L 94.650775 468.008581 
L 93.715996 467.353587 
L 94.057949 464.953981 
L 94.650775 464.504906 
L 96.264803 463.417045 
L 97.709536 462.554375 
L 97.878831 462.489314 
L 99.492859 461.964896 
L 101.106887 461.538746 
L 102.720915 461.193626 
L 104.334943 460.91683 
L 105.94897 460.698785 
L 107.562998 460.532404 
L 109.177026 460.412991 
L 110.791054 460.338481 
L 112.405082 460.309724 
L 114.01911 460.330543 
L 115.633138 460.407296 
L 117.247166 460.547624 
L 118.861193 460.758037 
L 120.475221 461.040189 
L 122.089249 461.386453 
L 123.703277 461.776632 
L 125.317305 462.178572 
L 126.931333 462.554375 
L 126.931333 462.554375 
L 128.545361 463.206797 
L 130.159389 463.614481 
L 131.773417 463.826703 
L 133.387444 463.900592 
L 135.001472 463.885293 
L 136.6155 463.818296 
L 138.229528 463.727061 
L 139.843556 463.631995 
L 141.457584 463.54926 
L 143.071612 463.493092 
L 144.68564 463.477811 
L 146.299667 463.519906 
L 147.913695 463.640718 
L 149.527723 463.870437 
L 151.141751 464.254567 
L 152.755779 464.864958 
L 152.925973 464.953981 
L 152.755779 465.062596 
L 151.141751 466.007963 
L 149.527723 466.95742 
L 148.810812 467.353587 
L 147.913695 467.499732 
L 146.299667 467.703078 
L 144.68564 467.850721 
L 143.071612 467.944768 
L 141.457584 467.987227 
L 139.843556 467.980924 
L 138.229528 467.930786 
L 136.6155 467.84541 
L 135.001472 467.73846 
L 133.387444 467.629108 
L 131.773417 467.540573 
L 130.159389 467.496454 
L 128.545361 467.515701 
L 126.931333 467.608232 
L 125.317305 467.77316 
L 123.703277 468.000193 
L 122.089249 468.273168 
L 120.475221 468.573892 
L 118.861193 468.884972 
L 117.247166 469.191196 
L 115.633138 469.479739 
L 114.01911 469.739782 
L 113.922166 469.753193 
L 112.405082 469.925821 
L 110.791054 470.066073 
L 109.177026 470.15982 
L 107.562998 470.206244 
L 105.94897 470.2059 
L 104.334943 470.159832 
L 102.720915 470.068296 
L 101.106887 469.929027 
z
" clip-path="url(#p803ab19bbe)" style="fill: #4090c5"/>
    <path d="M 101.106887 469.929027 
L 102.720915 470.068296 
L 104.334943 470.159832 
L 105.94897 470.2059 
L 107.562998 470.206244 
L 109.177026 470.15982 
L 110.791054 470.066073 
L 112.405082 469.925821 
L 113.922166 469.753193 
L 114.01911 469.739782 
L 115.633138 469.479739 
L 117.247166 469.191196 
L 118.861193 468.884972 
L 120.475221 468.573892 
L 122.089249 468.273168 
L 123.703277 468.000193 
L 125.317305 467.77316 
L 126.931333 467.608232 
L 128.545361 467.515701 
L 130.159389 467.496454 
L 131.773417 467.540573 
L 133.387444 467.629108 
L 135.001472 467.73846 
L 136.6155 467.84541 
L 138.229528 467.930786 
L 139.843556 467.980924 
L 141.457584 467.987227 
L 143.071612 467.944768 
L 144.68564 467.850721 
L 146.299667 467.703078 
L 147.913695 467.499732 
L 148.810812 467.353587 
L 149.527723 466.95742 
L 151.141751 466.007963 
L 152.755779 465.062596 
L 152.925973 464.953981 
L 152.755779 464.864958 
L 151.141751 464.254567 
L 149.527723 463.870437 
L 147.913695 463.640718 
L 146.299667 463.519906 
L 144.68564 463.477811 
L 143.071612 463.493092 
L 141.457584 463.54926 
L 139.843556 463.631995 
L 138.229528 463.727061 
L 136.6155 463.818296 
L 135.001472 463.885293 
L 133.387444 463.900592 
L 131.773417 463.826703 
L 130.159389 463.614481 
L 128.545361 463.206797 
L 126.931333 462.554375 
L 126.931333 462.554375 
L 125.317305 462.178572 
L 123.703277 461.776632 
L 122.089249 461.386453 
L 120.475221 461.040189 
L 118.861193 460.758037 
L 117.247166 460.547624 
L 115.633138 460.407296 
L 114.01911 460.330543 
L 112.405082 460.309724 
L 110.791054 460.338481 
L 109.177026 460.412991 
L 107.562998 460.532404 
L 105.94897 460.698785 
L 104.334943 460.91683 
L 102.720915 461.193626 
L 101.106887 461.538746 
L 99.492859 461.964896 
L 97.878831 462.489314 
L 97.709536 462.554375 
L 96.264803 463.417045 
L 94.650775 464.504906 
L 94.057949 464.953981 
L 93.715996 467.353587 
L 94.650775 468.008581 
L 96.264803 468.808514 
L 97.878831 469.351262 
L 99.492859 469.72807 
L 99.637887 469.753193 
z
M 95.184318 467.353587 
L 95.327179 464.953981 
L 96.264803 464.319128 
L 97.878831 463.356901 
L 99.407446 462.554375 
L 99.492859 462.526511 
L 101.106887 462.087655 
L 102.720915 461.734355 
L 104.334943 461.452745 
L 105.94897 461.232678 
L 107.562998 461.06703 
L 109.177026 460.951518 
L 110.791054 460.884779 
L 112.405082 460.868472 
L 114.01911 460.907138 
L 115.633138 461.007548 
L 117.247166 461.177205 
L 118.861193 461.42165 
L 120.475221 461.740492 
L 122.089249 462.122928 
L 123.703277 462.5448 
L 123.740693 462.554375 
L 125.317305 463.555797 
L 126.931333 464.349607 
L 128.545361 464.868099 
L 129.020359 464.953981 
L 128.545361 465.098653 
L 126.931333 465.747486 
L 125.317305 466.444019 
L 123.703277 467.172786 
L 123.345163 467.353587 
L 122.089249 467.59316 
L 120.475221 467.928423 
L 118.861193 468.268266 
L 117.247166 468.596697 
L 115.633138 468.900684 
L 114.01911 469.169605 
L 112.405082 469.394648 
L 110.791054 469.568507 
L 109.177026 469.68544 
L 107.562998 469.741506 
L 105.94897 469.734488 
L 104.334943 469.662952 
L 102.720915 469.523997 
L 101.106887 469.309614 
L 99.492859 469.001726 
L 97.878831 468.565652 
L 96.264803 467.940724 
z
M 137.37192 464.953981 
L 138.229528 464.8893 
L 139.843556 464.779306 
L 141.457584 464.697369 
L 143.071612 464.657101 
L 144.68564 464.673221 
L 146.299667 464.763928 
L 147.913695 464.953981 
L 146.299667 465.474646 
L 144.68564 465.880719 
L 143.071612 466.11936 
L 141.457584 466.123888 
L 139.843556 465.841986 
L 138.229528 465.298384 
z
" clip-path="url(#p803ab19bbe)" style="fill: #3080bd"/>
    <path d="M 96.264803 467.940724 
L 97.878831 468.565652 
L 99.492859 469.001726 
L 101.106887 469.309614 
L 102.720915 469.523997 
L 104.334943 469.662952 
L 105.94897 469.734488 
L 107.562998 469.741506 
L 109.177026 469.68544 
L 110.791054 469.568507 
L 112.405082 469.394648 
L 114.01911 469.169605 
L 115.633138 468.900684 
L 117.247166 468.596697 
L 118.861193 468.268266 
L 120.475221 467.928423 
L 122.089249 467.59316 
L 123.345163 467.353587 
L 123.703277 467.172786 
L 125.317305 466.444019 
L 126.931333 465.747486 
L 128.545361 465.098653 
L 129.020359 464.953981 
L 128.545361 464.868099 
L 126.931333 464.349607 
L 125.317305 463.555797 
L 123.740693 462.554375 
L 123.703277 462.5448 
L 122.089249 462.122928 
L 120.475221 461.740492 
L 118.861193 461.42165 
L 117.247166 461.177205 
L 115.633138 461.007548 
L 114.01911 460.907138 
L 112.405082 460.868472 
L 110.791054 460.884779 
L 109.177026 460.951518 
L 107.562998 461.06703 
L 105.94897 461.232678 
L 104.334943 461.452745 
L 102.720915 461.734355 
L 101.106887 462.087655 
L 99.492859 462.526511 
L 99.407446 462.554375 
L 97.878831 463.356901 
L 96.264803 464.319128 
L 95.327179 464.953981 
L 95.184318 467.353587 
z
M 100.32714 467.353587 
L 99.492859 465.538626 
L 99.316781 464.953981 
L 99.492859 464.863376 
L 101.106887 464.15748 
L 102.720915 463.557878 
L 104.334943 463.058419 
L 105.94897 462.654859 
L 106.482899 462.554375 
L 107.562998 462.444739 
L 109.177026 462.339278 
L 110.791054 462.292565 
L 112.405082 462.308343 
L 114.01911 462.393001 
L 115.633138 462.554375 
L 115.633138 462.554375 
L 117.247166 463.168416 
L 118.861193 464.060059 
L 120.152523 464.953981 
L 118.861193 465.723703 
L 117.247166 466.633187 
L 115.896619 467.353587 
L 115.633138 467.408483 
L 114.01911 467.70028 
L 112.405082 467.932496 
L 110.791054 468.099455 
L 109.177026 468.197163 
L 107.562998 468.223135 
L 105.94897 468.175796 
L 104.334943 468.052931 
L 102.720915 467.848824 
L 101.106887 467.55006 
z
M 138.229528 465.298384 
L 139.843556 465.841986 
L 141.457584 466.123888 
L 143.071612 466.11936 
L 144.68564 465.880719 
L 146.299667 465.474646 
L 147.913695 464.953981 
L 146.299667 464.763928 
L 144.68564 464.673221 
L 143.071612 464.657101 
L 141.457584 464.697369 
L 139.843556 464.779306 
L 138.229528 464.8893 
L 137.37192 464.953981 
z
" clip-path="url(#p803ab19bbe)" style="fill: #1967ad"/>
    <path d="M 101.106887 467.55006 
L 102.720915 467.848824 
L 104.334943 468.052931 
L 105.94897 468.175796 
L 107.562998 468.223135 
L 109.177026 468.197163 
L 110.791054 468.099455 
L 112.405082 467.932496 
L 114.01911 467.70028 
L 115.633138 467.408483 
L 115.896619 467.353587 
L 117.247166 466.633187 
L 118.861193 465.723703 
L 120.152523 464.953981 
L 118.861193 464.060059 
L 117.247166 463.168416 
L 115.633138 462.554375 
L 115.633138 462.554375 
L 114.01911 462.393001 
L 112.405082 462.308343 
L 110.791054 462.292565 
L 109.177026 462.339278 
L 107.562998 462.444739 
L 106.482899 462.554375 
L 105.94897 462.654859 
L 104.334943 463.058419 
L 102.720915 463.557878 
L 101.106887 464.15748 
L 99.492859 464.863376 
L 99.316781 464.953981 
L 99.492859 465.538626 
L 100.32714 467.353587 
z
" clip-path="url(#p803ab19bbe)" style="fill: #084387"/>
   </g>
   <g id="matplotlib.axis_1">
    <g id="xtick_1">
     <g id="line2d_1">
      <defs>
       <path id="m7a7ff5b5be" d="M 0 0 
L 0 3.5 
" style="stroke: #000000; stroke-width: 0.8"/>
      </defs>
      <g>
       <use xlink:href="#m7a7ff5b5be" x="112.069894" y="499.48" style="stroke: #000000; stroke-width: 0.8"/>
      </g>
     </g>
     <g id="text_1">
      <!-- 0 -->
      <g transform="translate(105.071144 523.196563) scale(0.22 -0.22)">
       <defs>
        <path id="DejaVuSans-30" d="M 2034 4250 
Q 1547 4250 1301 3770 
Q 1056 3291 1056 2328 
Q 1056 1369 1301 889 
Q 1547 409 2034 409 
Q 2525 409 2770 889 
Q 3016 1369 3016 2328 
Q 3016 3291 2770 3770 
Q 2525 4250 2034 4250 
z
M 2034 4750 
Q 2819 4750 3233 4129 
Q 3647 3509 3647 2328 
Q 3647 1150 3233 529 
Q 2819 -91 2034 -91 
Q 1250 -91 836 529 
Q 422 1150 422 2328 
Q 422 3509 836 4129 
Q 1250 4750 2034 4750 
z
" transform="scale(0.015625)"/>
       </defs>
       <use xlink:href="#DejaVuSans-30"/>
      </g>
     </g>
    </g>
    <g id="xtick_2">
     <g id="line2d_2">
      <g>
       <use xlink:href="#m7a7ff5b5be" x="197.520733" y="499.48" style="stroke: #000000; stroke-width: 0.8"/>
      </g>
     </g>
     <g id="text_2">
      <!-- 10 -->
      <g transform="translate(183.523233 523.196563) scale(0.22 -0.22)">
       <defs>
        <path id="DejaVuSans-31" d="M 794 531 
L 1825 531 
L 1825 4091 
L 703 3866 
L 703 4441 
L 1819 4666 
L 2450 4666 
L 2450 531 
L 3481 531 
L 3481 0 
L 794 0 
L 794 531 
z
" transform="scale(0.015625)"/>
       </defs>
       <use xlink:href="#DejaVuSans-31"/>
       <use xlink:href="#DejaVuSans-30" x="63.623047"/>
      </g>
     </g>
    </g>
    <g id="xtick_3">
     <g id="line2d_3">
      <g>
       <use xlink:href="#m7a7ff5b5be" x="282.971572" y="499.48" style="stroke: #000000; stroke-width: 0.8"/>
      </g>
     </g>
     <g id="text_3">
      <!-- 20 -->
      <g transform="translate(268.974072 523.196563) scale(0.22 -0.22)">
       <defs>
        <path id="DejaVuSans-32" d="M 1228 531 
L 3431 531 
L 3431 0 
L 469 0 
L 469 531 
Q 828 903 1448 1529 
Q 2069 2156 2228 2338 
Q 2531 2678 2651 2914 
Q 2772 3150 2772 3378 
Q 2772 3750 2511 3984 
Q 2250 4219 1831 4219 
Q 1534 4219 1204 4116 
Q 875 4013 500 3803 
L 500 4441 
Q 881 4594 1212 4672 
Q 1544 4750 1819 4750 
Q 2544 4750 2975 4387 
Q 3406 4025 3406 3419 
Q 3406 3131 3298 2873 
Q 3191 2616 2906 2266 
Q 2828 2175 2409 1742 
Q 1991 1309 1228 531 
z
" transform="scale(0.015625)"/>
       </defs>
       <use xlink:href="#DejaVuSans-32"/>
       <use xlink:href="#DejaVuSans-30" x="63.623047"/>
      </g>
     </g>
    </g>
    <g id="xtick_4">
     <g id="line2d_4">
      <g>
       <use xlink:href="#m7a7ff5b5be" x="368.422412" y="499.48" style="stroke: #000000; stroke-width: 0.8"/>
      </g>
     </g>
     <g id="text_4">
      <!-- 30 -->
      <g transform="translate(354.424912 523.196563) scale(0.22 -0.22)">
       <defs>
        <path id="DejaVuSans-33" d="M 2597 2516 
Q 3050 2419 3304 2112 
Q 3559 1806 3559 1356 
Q 3559 666 3084 287 
Q 2609 -91 1734 -91 
Q 1441 -91 1130 -33 
Q 819 25 488 141 
L 488 750 
Q 750 597 1062 519 
Q 1375 441 1716 441 
Q 2309 441 2620 675 
Q 2931 909 2931 1356 
Q 2931 1769 2642 2001 
Q 2353 2234 1838 2234 
L 1294 2234 
L 1294 2753 
L 1863 2753 
Q 2328 2753 2575 2939 
Q 2822 3125 2822 3475 
Q 2822 3834 2567 4026 
Q 2313 4219 1838 4219 
Q 1578 4219 1281 4162 
Q 984 4106 628 3988 
L 628 4550 
Q 988 4650 1302 4700 
Q 1616 4750 1894 4750 
Q 2613 4750 3031 4423 
Q 3450 4097 3450 3541 
Q 3450 3153 3228 2886 
Q 3006 2619 2597 2516 
z
" transform="scale(0.015625)"/>
       </defs>
       <use xlink:href="#DejaVuSans-33"/>
       <use xlink:href="#DejaVuSans-30" x="63.623047"/>
      </g>
     </g>
    </g>
    <g id="xtick_5">
     <g id="line2d_5">
      <g>
       <use xlink:href="#m7a7ff5b5be" x="453.873251" y="499.48" style="stroke: #000000; stroke-width: 0.8"/>
      </g>
     </g>
     <g id="text_5">
      <!-- 40 -->
      <g transform="translate(439.875751 523.196563) scale(0.22 -0.22)">
       <defs>
        <path id="DejaVuSans-34" d="M 2419 4116 
L 825 1625 
L 2419 1625 
L 2419 4116 
z
M 2253 4666 
L 3047 4666 
L 3047 1625 
L 3713 1625 
L 3713 1100 
L 3047 1100 
L 3047 0 
L 2419 0 
L 2419 1100 
L 313 1100 
L 313 1709 
L 2253 4666 
z
" transform="scale(0.015625)"/>
       </defs>
       <use xlink:href="#DejaVuSans-34"/>
       <use xlink:href="#DejaVuSans-30" x="63.623047"/>
      </g>
     </g>
    </g>
    <g id="xtick_6">
     <g id="line2d_6">
      <g>
       <use xlink:href="#m7a7ff5b5be" x="539.32409" y="499.48" style="stroke: #000000; stroke-width: 0.8"/>
      </g>
     </g>
     <g id="text_6">
      <!-- 50 -->
      <g transform="translate(525.32659 523.196563) scale(0.22 -0.22)">
       <defs>
        <path id="DejaVuSans-35" d="M 691 4666 
L 3169 4666 
L 3169 4134 
L 1269 4134 
L 1269 2991 
Q 1406 3038 1543 3061 
Q 1681 3084 1819 3084 
Q 2600 3084 3056 2656 
Q 3513 2228 3513 1497 
Q 3513 744 3044 326 
Q 2575 -91 1722 -91 
Q 1428 -91 1123 -41 
Q 819 9 494 109 
L 494 744 
Q 775 591 1075 516 
Q 1375 441 1709 441 
Q 2250 441 2565 725 
Q 2881 1009 2881 1497 
Q 2881 1984 2565 2268 
Q 2250 2553 1709 2553 
Q 1456 2553 1204 2497 
Q 953 2441 691 2322 
L 691 4666 
z
" transform="scale(0.015625)"/>
       </defs>
       <use xlink:href="#DejaVuSans-35"/>
       <use xlink:href="#DejaVuSans-30" x="63.623047"/>
      </g>
     </g>
    </g>
    <g id="xtick_7">
     <g id="line2d_7">
      <g>
       <use xlink:href="#m7a7ff5b5be" x="624.774929" y="499.48" style="stroke: #000000; stroke-width: 0.8"/>
      </g>
     </g>
     <g id="text_7">
      <!-- 60 -->
      <g transform="translate(610.777429 523.196563) scale(0.22 -0.22)">
       <defs>
        <path id="DejaVuSans-36" d="M 2113 2584 
Q 1688 2584 1439 2293 
Q 1191 2003 1191 1497 
Q 1191 994 1439 701 
Q 1688 409 2113 409 
Q 2538 409 2786 701 
Q 3034 994 3034 1497 
Q 3034 2003 2786 2293 
Q 2538 2584 2113 2584 
z
M 3366 4563 
L 3366 3988 
Q 3128 4100 2886 4159 
Q 2644 4219 2406 4219 
Q 1781 4219 1451 3797 
Q 1122 3375 1075 2522 
Q 1259 2794 1537 2939 
Q 1816 3084 2150 3084 
Q 2853 3084 3261 2657 
Q 3669 2231 3669 1497 
Q 3669 778 3244 343 
Q 2819 -91 2113 -91 
Q 1303 -91 875 529 
Q 447 1150 447 2328 
Q 447 3434 972 4092 
Q 1497 4750 2381 4750 
Q 2619 4750 2861 4703 
Q 3103 4656 3366 4563 
z
" transform="scale(0.015625)"/>
       </defs>
       <use xlink:href="#DejaVuSans-36"/>
       <use xlink:href="#DejaVuSans-30" x="63.623047"/>
      </g>
     </g>
    </g>
    <g id="text_8">
     <!-- Force Uncertainties -->
     <g transform="translate(283.426094 548.488438) scale(0.22 -0.22)">
      <defs>
       <path id="DejaVuSans-46" d="M 628 4666 
L 3309 4666 
L 3309 4134 
L 1259 4134 
L 1259 2759 
L 3109 2759 
L 3109 2228 
L 1259 2228 
L 1259 0 
L 628 0 
L 628 4666 
z
" transform="scale(0.015625)"/>
       <path id="DejaVuSans-6f" d="M 1959 3097 
Q 1497 3097 1228 2736 
Q 959 2375 959 1747 
Q 959 1119 1226 758 
Q 1494 397 1959 397 
Q 2419 397 2687 759 
Q 2956 1122 2956 1747 
Q 2956 2369 2687 2733 
Q 2419 3097 1959 3097 
z
M 1959 3584 
Q 2709 3584 3137 3096 
Q 3566 2609 3566 1747 
Q 3566 888 3137 398 
Q 2709 -91 1959 -91 
Q 1206 -91 779 398 
Q 353 888 353 1747 
Q 353 2609 779 3096 
Q 1206 3584 1959 3584 
z
" transform="scale(0.015625)"/>
       <path id="DejaVuSans-72" d="M 2631 2963 
Q 2534 3019 2420 3045 
Q 2306 3072 2169 3072 
Q 1681 3072 1420 2755 
Q 1159 2438 1159 1844 
L 1159 0 
L 581 0 
L 581 3500 
L 1159 3500 
L 1159 2956 
Q 1341 3275 1631 3429 
Q 1922 3584 2338 3584 
Q 2397 3584 2469 3576 
Q 2541 3569 2628 3553 
L 2631 2963 
z
" transform="scale(0.015625)"/>
       <path id="DejaVuSans-63" d="M 3122 3366 
L 3122 2828 
Q 2878 2963 2633 3030 
Q 2388 3097 2138 3097 
Q 1578 3097 1268 2742 
Q 959 2388 959 1747 
Q 959 1106 1268 751 
Q 1578 397 2138 397 
Q 2388 397 2633 464 
Q 2878 531 3122 666 
L 3122 134 
Q 2881 22 2623 -34 
Q 2366 -91 2075 -91 
Q 1284 -91 818 406 
Q 353 903 353 1747 
Q 353 2603 823 3093 
Q 1294 3584 2113 3584 
Q 2378 3584 2631 3529 
Q 2884 3475 3122 3366 
z
" transform="scale(0.015625)"/>
       <path id="DejaVuSans-65" d="M 3597 1894 
L 3597 1613 
L 953 1613 
Q 991 1019 1311 708 
Q 1631 397 2203 397 
Q 2534 397 2845 478 
Q 3156 559 3463 722 
L 3463 178 
Q 3153 47 2828 -22 
Q 2503 -91 2169 -91 
Q 1331 -91 842 396 
Q 353 884 353 1716 
Q 353 2575 817 3079 
Q 1281 3584 2069 3584 
Q 2775 3584 3186 3129 
Q 3597 2675 3597 1894 
z
M 3022 2063 
Q 3016 2534 2758 2815 
Q 2500 3097 2075 3097 
Q 1594 3097 1305 2825 
Q 1016 2553 972 2059 
L 3022 2063 
z
" transform="scale(0.015625)"/>
       <path id="DejaVuSans-20" transform="scale(0.015625)"/>
       <path id="DejaVuSans-55" d="M 556 4666 
L 1191 4666 
L 1191 1831 
Q 1191 1081 1462 751 
Q 1734 422 2344 422 
Q 2950 422 3222 751 
Q 3494 1081 3494 1831 
L 3494 4666 
L 4128 4666 
L 4128 1753 
Q 4128 841 3676 375 
Q 3225 -91 2344 -91 
Q 1459 -91 1007 375 
Q 556 841 556 1753 
L 556 4666 
z
" transform="scale(0.015625)"/>
       <path id="DejaVuSans-6e" d="M 3513 2113 
L 3513 0 
L 2938 0 
L 2938 2094 
Q 2938 2591 2744 2837 
Q 2550 3084 2163 3084 
Q 1697 3084 1428 2787 
Q 1159 2491 1159 1978 
L 1159 0 
L 581 0 
L 581 3500 
L 1159 3500 
L 1159 2956 
Q 1366 3272 1645 3428 
Q 1925 3584 2291 3584 
Q 2894 3584 3203 3211 
Q 3513 2838 3513 2113 
z
" transform="scale(0.015625)"/>
       <path id="DejaVuSans-74" d="M 1172 4494 
L 1172 3500 
L 2356 3500 
L 2356 3053 
L 1172 3053 
L 1172 1153 
Q 1172 725 1289 603 
Q 1406 481 1766 481 
L 2356 481 
L 2356 0 
L 1766 0 
Q 1100 0 847 248 
Q 594 497 594 1153 
L 594 3053 
L 172 3053 
L 172 3500 
L 594 3500 
L 594 4494 
L 1172 4494 
z
" transform="scale(0.015625)"/>
       <path id="DejaVuSans-61" d="M 2194 1759 
Q 1497 1759 1228 1600 
Q 959 1441 959 1056 
Q 959 750 1161 570 
Q 1363 391 1709 391 
Q 2188 391 2477 730 
Q 2766 1069 2766 1631 
L 2766 1759 
L 2194 1759 
z
M 3341 1997 
L 3341 0 
L 2766 0 
L 2766 531 
Q 2569 213 2275 61 
Q 1981 -91 1556 -91 
Q 1019 -91 701 211 
Q 384 513 384 1019 
Q 384 1609 779 1909 
Q 1175 2209 1959 2209 
L 2766 2209 
L 2766 2266 
Q 2766 2663 2505 2880 
Q 2244 3097 1772 3097 
Q 1472 3097 1187 3025 
Q 903 2953 641 2809 
L 641 3341 
Q 956 3463 1253 3523 
Q 1550 3584 1831 3584 
Q 2591 3584 2966 3190 
Q 3341 2797 3341 1997 
z
" transform="scale(0.015625)"/>
       <path id="DejaVuSans-69" d="M 603 3500 
L 1178 3500 
L 1178 0 
L 603 0 
L 603 3500 
z
M 603 4863 
L 1178 4863 
L 1178 4134 
L 603 4134 
L 603 4863 
z
" transform="scale(0.015625)"/>
       <path id="DejaVuSans-73" d="M 2834 3397 
L 2834 2853 
Q 2591 2978 2328 3040 
Q 2066 3103 1784 3103 
Q 1356 3103 1142 2972 
Q 928 2841 928 2578 
Q 928 2378 1081 2264 
Q 1234 2150 1697 2047 
L 1894 2003 
Q 2506 1872 2764 1633 
Q 3022 1394 3022 966 
Q 3022 478 2636 193 
Q 2250 -91 1575 -91 
Q 1294 -91 989 -36 
Q 684 19 347 128 
L 347 722 
Q 666 556 975 473 
Q 1284 391 1588 391 
Q 1994 391 2212 530 
Q 2431 669 2431 922 
Q 2431 1156 2273 1281 
Q 2116 1406 1581 1522 
L 1381 1569 
Q 847 1681 609 1914 
Q 372 2147 372 2553 
Q 372 3047 722 3315 
Q 1072 3584 1716 3584 
Q 2034 3584 2315 3537 
Q 2597 3491 2834 3397 
z
" transform="scale(0.015625)"/>
      </defs>
      <use xlink:href="#DejaVuSans-46"/>
      <use xlink:href="#DejaVuSans-6f" x="53.894531"/>
      <use xlink:href="#DejaVuSans-72" x="115.076172"/>
      <use xlink:href="#DejaVuSans-63" x="153.939453"/>
      <use xlink:href="#DejaVuSans-65" x="208.919922"/>
      <use xlink:href="#DejaVuSans-20" x="270.443359"/>
      <use xlink:href="#DejaVuSans-55" x="302.230469"/>
      <use xlink:href="#DejaVuSans-6e" x="375.423828"/>
      <use xlink:href="#DejaVuSans-63" x="438.802734"/>
      <use xlink:href="#DejaVuSans-65" x="493.783203"/>
      <use xlink:href="#DejaVuSans-72" x="555.306641"/>
      <use xlink:href="#DejaVuSans-74" x="596.419922"/>
      <use xlink:href="#DejaVuSans-61" x="635.628906"/>
      <use xlink:href="#DejaVuSans-69" x="696.908203"/>
      <use xlink:href="#DejaVuSans-6e" x="724.691406"/>
      <use xlink:href="#DejaVuSans-74" x="788.070312"/>
      <use xlink:href="#DejaVuSans-69" x="827.279297"/>
      <use xlink:href="#DejaVuSans-65" x="855.0625"/>
      <use xlink:href="#DejaVuSans-73" x="916.585938"/>
     </g>
    </g>
   </g>
   <g id="matplotlib.axis_2">
    <g id="ytick_1">
     <g id="line2d_8">
      <defs>
       <path id="m462ed5ba7c" d="M 0 0 
L -3.5 0 
" style="stroke: #000000; stroke-width: 0.8"/>
      </defs>
      <g>
       <use xlink:href="#m462ed5ba7c" x="83.72" y="477.461761" style="stroke: #000000; stroke-width: 0.8"/>
      </g>
     </g>
     <g id="text_9">
      <!-- 0 -->
      <g transform="translate(62.7225 485.820043) scale(0.22 -0.22)">
       <use xlink:href="#DejaVuSans-30"/>
      </g>
     </g>
    </g>
    <g id="ytick_2">
     <g id="line2d_9">
      <g>
       <use xlink:href="#m462ed5ba7c" x="83.72" y="411.095482" style="stroke: #000000; stroke-width: 0.8"/>
      </g>
     </g>
     <g id="text_10">
      <!-- 10 -->
      <g transform="translate(48.725 419.453764) scale(0.22 -0.22)">
       <use xlink:href="#DejaVuSans-31"/>
       <use xlink:href="#DejaVuSans-30" x="63.623047"/>
      </g>
     </g>
    </g>
    <g id="ytick_3">
     <g id="line2d_10">
      <g>
       <use xlink:href="#m462ed5ba7c" x="83.72" y="344.729203" style="stroke: #000000; stroke-width: 0.8"/>
      </g>
     </g>
     <g id="text_11">
      <!-- 20 -->
      <g transform="translate(48.725 353.087485) scale(0.22 -0.22)">
       <use xlink:href="#DejaVuSans-32"/>
       <use xlink:href="#DejaVuSans-30" x="63.623047"/>
      </g>
     </g>
    </g>
    <g id="ytick_4">
     <g id="line2d_11">
      <g>
       <use xlink:href="#m462ed5ba7c" x="83.72" y="278.362924" style="stroke: #000000; stroke-width: 0.8"/>
      </g>
     </g>
     <g id="text_12">
      <!-- 30 -->
      <g transform="translate(48.725 286.721205) scale(0.22 -0.22)">
       <use xlink:href="#DejaVuSans-33"/>
       <use xlink:href="#DejaVuSans-30" x="63.623047"/>
      </g>
     </g>
    </g>
    <g id="ytick_5">
     <g id="line2d_12">
      <g>
       <use xlink:href="#m462ed5ba7c" x="83.72" y="211.996645" style="stroke: #000000; stroke-width: 0.8"/>
      </g>
     </g>
     <g id="text_13">
      <!-- 40 -->
      <g transform="translate(48.725 220.354926) scale(0.22 -0.22)">
       <use xlink:href="#DejaVuSans-34"/>
       <use xlink:href="#DejaVuSans-30" x="63.623047"/>
      </g>
     </g>
    </g>
    <g id="ytick_6">
     <g id="line2d_13">
      <g>
       <use xlink:href="#m462ed5ba7c" x="83.72" y="145.630366" style="stroke: #000000; stroke-width: 0.8"/>
      </g>
     </g>
     <g id="text_14">
      <!-- 50 -->
      <g transform="translate(48.725 153.988647) scale(0.22 -0.22)">
       <use xlink:href="#DejaVuSans-35"/>
       <use xlink:href="#DejaVuSans-30" x="63.623047"/>
      </g>
     </g>
    </g>
    <g id="ytick_7">
     <g id="line2d_14">
      <g>
       <use xlink:href="#m462ed5ba7c" x="83.72" y="79.264087" style="stroke: #000000; stroke-width: 0.8"/>
      </g>
     </g>
     <g id="text_15">
      <!-- 60 -->
      <g transform="translate(48.725 87.622368) scale(0.22 -0.22)">
       <use xlink:href="#DejaVuSans-36"/>
       <use xlink:href="#DejaVuSans-30" x="63.623047"/>
      </g>
     </g>
    </g>
    <g id="text_16">
     <!-- Force Errors [kJ/(mol*A)] -->
     <g transform="translate(40.149688 394.9125) rotate(-90) scale(0.22 -0.22)">
      <defs>
       <path id="DejaVuSans-45" d="M 628 4666 
L 3578 4666 
L 3578 4134 
L 1259 4134 
L 1259 2753 
L 3481 2753 
L 3481 2222 
L 1259 2222 
L 1259 531 
L 3634 531 
L 3634 0 
L 628 0 
L 628 4666 
z
" transform="scale(0.015625)"/>
       <path id="DejaVuSans-5b" d="M 550 4863 
L 1875 4863 
L 1875 4416 
L 1125 4416 
L 1125 -397 
L 1875 -397 
L 1875 -844 
L 550 -844 
L 550 4863 
z
" transform="scale(0.015625)"/>
       <path id="DejaVuSans-6b" d="M 581 4863 
L 1159 4863 
L 1159 1991 
L 2875 3500 
L 3609 3500 
L 1753 1863 
L 3688 0 
L 2938 0 
L 1159 1709 
L 1159 0 
L 581 0 
L 581 4863 
z
" transform="scale(0.015625)"/>
       <path id="DejaVuSans-4a" d="M 628 4666 
L 1259 4666 
L 1259 325 
Q 1259 -519 939 -900 
Q 619 -1281 -91 -1281 
L -331 -1281 
L -331 -750 
L -134 -750 
Q 284 -750 456 -515 
Q 628 -281 628 325 
L 628 4666 
z
" transform="scale(0.015625)"/>
       <path id="DejaVuSans-2f" d="M 1625 4666 
L 2156 4666 
L 531 -594 
L 0 -594 
L 1625 4666 
z
" transform="scale(0.015625)"/>
       <path id="DejaVuSans-28" d="M 1984 4856 
Q 1566 4138 1362 3434 
Q 1159 2731 1159 2009 
Q 1159 1288 1364 580 
Q 1569 -128 1984 -844 
L 1484 -844 
Q 1016 -109 783 600 
Q 550 1309 550 2009 
Q 550 2706 781 3412 
Q 1013 4119 1484 4856 
L 1984 4856 
z
" transform="scale(0.015625)"/>
       <path id="DejaVuSans-6d" d="M 3328 2828 
Q 3544 3216 3844 3400 
Q 4144 3584 4550 3584 
Q 5097 3584 5394 3201 
Q 5691 2819 5691 2113 
L 5691 0 
L 5113 0 
L 5113 2094 
Q 5113 2597 4934 2840 
Q 4756 3084 4391 3084 
Q 3944 3084 3684 2787 
Q 3425 2491 3425 1978 
L 3425 0 
L 2847 0 
L 2847 2094 
Q 2847 2600 2669 2842 
Q 2491 3084 2119 3084 
Q 1678 3084 1418 2786 
Q 1159 2488 1159 1978 
L 1159 0 
L 581 0 
L 581 3500 
L 1159 3500 
L 1159 2956 
Q 1356 3278 1631 3431 
Q 1906 3584 2284 3584 
Q 2666 3584 2933 3390 
Q 3200 3197 3328 2828 
z
" transform="scale(0.015625)"/>
       <path id="DejaVuSans-6c" d="M 603 4863 
L 1178 4863 
L 1178 0 
L 603 0 
L 603 4863 
z
" transform="scale(0.015625)"/>
       <path id="DejaVuSans-2a" d="M 3009 3897 
L 1888 3291 
L 3009 2681 
L 2828 2375 
L 1778 3009 
L 1778 1831 
L 1422 1831 
L 1422 3009 
L 372 2375 
L 191 2681 
L 1313 3291 
L 191 3897 
L 372 4206 
L 1422 3572 
L 1422 4750 
L 1778 4750 
L 1778 3572 
L 2828 4206 
L 3009 3897 
z
" transform="scale(0.015625)"/>
       <path id="DejaVuSans-41" d="M 2188 4044 
L 1331 1722 
L 3047 1722 
L 2188 4044 
z
M 1831 4666 
L 2547 4666 
L 4325 0 
L 3669 0 
L 3244 1197 
L 1141 1197 
L 716 0 
L 50 0 
L 1831 4666 
z
" transform="scale(0.015625)"/>
       <path id="DejaVuSans-29" d="M 513 4856 
L 1013 4856 
Q 1481 4119 1714 3412 
Q 1947 2706 1947 2009 
Q 1947 1309 1714 600 
Q 1481 -109 1013 -844 
L 513 -844 
Q 928 -128 1133 580 
Q 1338 1288 1338 2009 
Q 1338 2731 1133 3434 
Q 928 4138 513 4856 
z
" transform="scale(0.015625)"/>
       <path id="DejaVuSans-5d" d="M 1947 4863 
L 1947 -844 
L 622 -844 
L 622 -397 
L 1369 -397 
L 1369 4416 
L 622 4416 
L 622 4863 
L 1947 4863 
z
" transform="scale(0.015625)"/>
      </defs>
      <use xlink:href="#DejaVuSans-46"/>
      <use xlink:href="#DejaVuSans-6f" x="53.894531"/>
      <use xlink:href="#DejaVuSans-72" x="115.076172"/>
      <use xlink:href="#DejaVuSans-63" x="153.939453"/>
      <use xlink:href="#DejaVuSans-65" x="208.919922"/>
      <use xlink:href="#DejaVuSans-20" x="270.443359"/>
      <use xlink:href="#DejaVuSans-45" x="302.230469"/>
      <use xlink:href="#DejaVuSans-72" x="365.414062"/>
      <use xlink:href="#DejaVuSans-72" x="404.777344"/>
      <use xlink:href="#DejaVuSans-6f" x="443.640625"/>
      <use xlink:href="#DejaVuSans-72" x="504.822266"/>
      <use xlink:href="#DejaVuSans-73" x="545.935547"/>
      <use xlink:href="#DejaVuSans-20" x="598.035156"/>
      <use xlink:href="#DejaVuSans-5b" x="629.822266"/>
      <use xlink:href="#DejaVuSans-6b" x="668.835938"/>
      <use xlink:href="#DejaVuSans-4a" x="726.746094"/>
      <use xlink:href="#DejaVuSans-2f" x="756.238281"/>
      <use xlink:href="#DejaVuSans-28" x="789.929688"/>
      <use xlink:href="#DejaVuSans-6d" x="828.943359"/>
      <use xlink:href="#DejaVuSans-6f" x="926.355469"/>
      <use xlink:href="#DejaVuSans-6c" x="987.537109"/>
      <use xlink:href="#DejaVuSans-2a" x="1015.320312"/>
      <use xlink:href="#DejaVuSans-41" x="1065.320312"/>
      <use xlink:href="#DejaVuSans-29" x="1133.728516"/>
      <use xlink:href="#DejaVuSans-5d" x="1172.742188"/>
     </g>
    </g>
   </g>
   <g id="line2d_15">
    <path d="M 83.72 499.48 
L 696.24 23.76 
" clip-path="url(#p803ab19bbe)" style="fill: none; stroke-dasharray: 5.55,2.4; stroke-dashoffset: 0; stroke: #ff0000; stroke-width: 1.5"/>
   </g>
   <g id="patch_3">
    <path d="M 83.72 499.48 
L 83.72 23.76 
" style="fill: none; stroke: #000000; stroke-width: 0.8; stroke-linejoin: miter; stroke-linecap: square"/>
   </g>
   <g id="patch_4">
    <path d="M 696.24 499.48 
L 696.24 23.76 
" style="fill: none; stroke: #000000; stroke-width: 0.8; stroke-linejoin: miter; stroke-linecap: square"/>
   </g>
   <g id="patch_5">
    <path d="M 83.72 499.48 
L 696.24 499.48 
" style="fill: none; stroke: #000000; stroke-width: 0.8; stroke-linejoin: miter; stroke-linecap: square"/>
   </g>
   <g id="patch_6">
    <path d="M 83.72 23.76 
L 696.24 23.76 
" style="fill: none; stroke: #000000; stroke-width: 0.8; stroke-linejoin: miter; stroke-linecap: square"/>
   </g>
   <g id="text_17">
    <!-- Correlation in: 0.336 -->
    <g transform="translate(144.972 71.332) scale(0.22 -0.22)">
     <defs>
      <path id="DejaVuSans-43" d="M 4122 4306 
L 4122 3641 
Q 3803 3938 3442 4084 
Q 3081 4231 2675 4231 
Q 1875 4231 1450 3742 
Q 1025 3253 1025 2328 
Q 1025 1406 1450 917 
Q 1875 428 2675 428 
Q 3081 428 3442 575 
Q 3803 722 4122 1019 
L 4122 359 
Q 3791 134 3420 21 
Q 3050 -91 2638 -91 
Q 1578 -91 968 557 
Q 359 1206 359 2328 
Q 359 3453 968 4101 
Q 1578 4750 2638 4750 
Q 3056 4750 3426 4639 
Q 3797 4528 4122 4306 
z
" transform="scale(0.015625)"/>
      <path id="DejaVuSans-3a" d="M 750 794 
L 1409 794 
L 1409 0 
L 750 0 
L 750 794 
z
M 750 3309 
L 1409 3309 
L 1409 2516 
L 750 2516 
L 750 3309 
z
" transform="scale(0.015625)"/>
      <path id="DejaVuSans-2e" d="M 684 794 
L 1344 794 
L 1344 0 
L 684 0 
L 684 794 
z
" transform="scale(0.015625)"/>
     </defs>
     <use xlink:href="#DejaVuSans-43"/>
     <use xlink:href="#DejaVuSans-6f" x="69.824219"/>
     <use xlink:href="#DejaVuSans-72" x="131.005859"/>
     <use xlink:href="#DejaVuSans-72" x="170.369141"/>
     <use xlink:href="#DejaVuSans-65" x="209.232422"/>
     <use xlink:href="#DejaVuSans-6c" x="270.755859"/>
     <use xlink:href="#DejaVuSans-61" x="298.539062"/>
     <use xlink:href="#DejaVuSans-74" x="359.818359"/>
     <use xlink:href="#DejaVuSans-69" x="399.027344"/>
     <use xlink:href="#DejaVuSans-6f" x="426.810547"/>
     <use xlink:href="#DejaVuSans-6e" x="487.992188"/>
     <use xlink:href="#DejaVuSans-20" x="551.371094"/>
     <use xlink:href="#DejaVuSans-69" x="583.158203"/>
     <use xlink:href="#DejaVuSans-6e" x="610.941406"/>
     <use xlink:href="#DejaVuSans-3a" x="674.320312"/>
     <use xlink:href="#DejaVuSans-20" x="708.011719"/>
     <use xlink:href="#DejaVuSans-30" x="739.798828"/>
     <use xlink:href="#DejaVuSans-2e" x="803.421875"/>
     <use xlink:href="#DejaVuSans-33" x="835.208984"/>
     <use xlink:href="#DejaVuSans-33" x="898.832031"/>
     <use xlink:href="#DejaVuSans-36" x="962.455078"/>
    </g>
   </g>
  </g>
 </g>
 <defs>
  <clipPath id="p803ab19bbe">
   <rect x="83.72" y="23.76" width="612.52" height="475.72"/>
  </clipPath>
 </defs>
</svg>
