<?xml version="1.0" encoding="utf-8" standalone="no"?>
<!DOCTYPE svg PUBLIC "-//W3C//DTD SVG 1.1//EN"
  "http://www.w3.org/Graphics/SVG/1.1/DTD/svg11.dtd">
<svg xmlns:xlink="http://www.w3.org/1999/xlink" width="720pt" height="576pt" viewBox="0 0 720 576" xmlns="http://www.w3.org/2000/svg" version="1.1">
 <metadata>
  <rdf:RDF xmlns:dc="http://purl.org/dc/elements/1.1/" xmlns:cc="http://creativecommons.org/ns#" xmlns:rdf="http://www.w3.org/1999/02/22-rdf-syntax-ns#">
   <cc:Work>
    <dc:type rdf:resource="http://purl.org/dc/dcmitype/StillImage"/>
    <dc:date>2024-12-07T21:13:11.670027</dc:date>
    <dc:format>image/svg+xml</dc:format>
    <dc:creator>
     <cc:Agent>
      <dc:title>Matplotlib v3.8.4, https://matplotlib.org/</dc:title>
     </cc:Agent>
    </dc:creator>
   </cc:Work>
  </rdf:RDF>
 </metadata>
 <defs>
  <style type="text/css">*{stroke-linejoin: round; stroke-linecap: butt}</style>
 </defs>
 <g id="figure_1">
  <g id="patch_1">
   <path d="M 0 576 
L 720 576 
L 720 0 
L 0 0 
z
" style="fill: #ffffff"/>
  </g>
  <g id="axes_1">
   <g id="patch_2">
    <path d="M 83.72 499.48 
L 696.24 499.48 
L 696.24 23.76 
L 83.72 23.76 
z
" style="fill: #ffffff"/>
   </g>
   <g id="QuadContourSet_1">
    <path d="M 103.884495 486.05518 
L 105.149433 485.5897 
L 105.149433 485.5897 
L 106.414372 484.638388 
L 107.262143 483.771615 
L 107.67931 483.394787 
L 108.944249 482.016409 
L 108.999021 481.953531 
L 110.209188 480.62424 
L 110.626826 480.135446 
L 111.474126 479.141259 
L 112.126579 478.317361 
L 112.739065 477.499299 
L 113.427908 476.499277 
L 114.004003 475.558344 
L 114.508218 474.681192 
L 115.268942 473.08161 
L 115.372873 472.863107 
L 116.142702 471.045023 
L 116.533881 469.864667 
L 116.769707 469.226938 
L 117.32 467.408853 
L 117.711608 465.590769 
L 117.798819 464.973762 
L 118.023909 463.772684 
L 118.184328 461.9546 
L 118.185101 460.136515 
L 118.052882 458.31843 
L 117.798819 456.605168 
L 117.787882 456.500346 
L 117.467089 454.682261 
L 116.90003 452.864176 
L 116.533881 452.044251 
L 116.091449 451.046092 
L 115.268942 449.777558 
L 114.795735 449.228007 
L 114.004003 448.473708 
L 112.739065 447.684874 
L 112.099711 447.409922 
L 111.474126 447.061135 
L 110.209188 446.501126 
L 108.944249 446.102131 
L 107.67931 445.834165 
L 106.414372 445.699574 
L 105.149433 445.731105 
L 103.884495 445.970884 
L 102.619556 446.477968 
L 101.357678 447.409922 
L 101.354617 447.411512 
L 100.089679 448.245627 
L 99.098751 449.228007 
L 98.82474 449.447727 
L 97.559801 450.685475 
L 97.251873 451.046092 
L 96.294863 452.071037 
L 95.683302 452.864176 
L 95.029924 453.74249 
L 94.39366 454.682261 
L 93.764986 455.782144 
L 93.344303 456.500346 
L 92.546328 458.31843 
L 92.500047 458.456553 
L 91.80814 460.136515 
L 91.358736 461.9546 
L 91.235108 462.730701 
L 90.990954 463.772684 
L 90.742109 465.590769 
L 90.636867 467.408853 
L 90.660444 469.226938 
L 90.82909 471.045023 
L 91.175088 472.863107 
L 91.235108 473.086428 
L 91.573464 474.681192 
L 92.239827 476.499277 
L 92.500047 477.015698 
L 93.24793 478.317361 
L 93.764986 479.023869 
L 94.877914 480.135446 
L 95.029924 480.291741 
L 96.294863 481.284422 
L 97.559801 481.816469 
L 98.046783 481.953531 
L 98.82474 482.319705 
L 100.089679 483.045075 
L 101.04602 483.771615 
L 101.354617 484.175229 
L 102.619556 485.586303 
L 102.62707 485.5897 
z
M 96.542943 476.499277 
L 96.294863 476.292624 
L 95.029924 474.681192 
L 95.029924 474.681192 
L 94.1438 472.863107 
L 93.764986 471.438713 
L 93.656422 471.045023 
L 93.35752 469.226938 
L 93.253076 467.408853 
L 93.310615 465.590769 
L 93.535766 463.772684 
L 93.764986 462.756632 
L 93.906532 461.9546 
L 94.41646 460.136515 
L 95.029924 458.7192 
L 95.189132 458.31843 
L 96.180266 456.500346 
L 96.294863 456.324893 
L 97.440578 454.682261 
L 97.559801 454.529621 
L 98.82474 453.058262 
L 99.023248 452.864176 
L 100.089679 451.781058 
L 101.097029 451.046092 
L 101.354617 450.825942 
L 102.619556 450.023209 
L 103.884495 449.579547 
L 105.149433 449.401083 
L 106.414372 449.416609 
L 107.67931 449.576429 
L 108.944249 449.864234 
L 110.209188 450.323662 
L 111.393789 451.046092 
L 111.474126 451.09414 
L 112.739065 452.299781 
L 113.14887 452.864176 
L 113.991574 454.682261 
L 114.004003 454.728165 
L 114.546317 456.500346 
L 114.813697 458.31843 
L 114.889731 460.136515 
L 114.815916 461.9546 
L 114.597921 463.772684 
L 114.210345 465.590769 
L 114.004003 466.284894 
L 113.698764 467.408853 
L 112.98202 469.226938 
L 112.739065 469.728614 
L 112.073046 471.045023 
L 111.474126 472.024236 
L 110.900185 472.863107 
L 110.209188 473.794571 
L 109.411664 474.681192 
L 108.944249 475.209325 
L 107.67931 476.3153 
L 107.38587 476.499277 
L 106.414372 477.211164 
L 105.149433 477.767413 
L 103.884495 478.027416 
L 102.619556 478.106335 
L 101.354617 478.097762 
L 100.089679 478.030192 
L 98.82474 477.822682 
L 97.559801 477.302017 
z
" clip-path="url(#pe795cb909d)" style="fill: #e6e6f3"/>
    <path d="M 97.559801 477.302017 
L 98.82474 477.822682 
L 100.089679 478.030192 
L 101.354617 478.097762 
L 102.619556 478.106335 
L 103.884495 478.027416 
L 105.149433 477.767413 
L 106.414372 477.211164 
L 107.38587 476.499277 
L 107.67931 476.3153 
L 108.944249 475.209325 
L 109.411664 474.681192 
L 110.209188 473.794571 
L 110.900185 472.863107 
L 111.474126 472.024236 
L 112.073046 471.045023 
L 112.739065 469.728614 
L 112.98202 469.226938 
L 113.698764 467.408853 
L 114.004003 466.284894 
L 114.210345 465.590769 
L 114.597921 463.772684 
L 114.815916 461.9546 
L 114.889731 460.136515 
L 114.813697 458.31843 
L 114.546317 456.500346 
L 114.004003 454.728165 
L 113.991574 454.682261 
L 113.14887 452.864176 
L 112.739065 452.299781 
L 111.474126 451.09414 
L 111.393789 451.046092 
L 110.209188 450.323662 
L 108.944249 449.864234 
L 107.67931 449.576429 
L 106.414372 449.416609 
L 105.149433 449.401083 
L 103.884495 449.579547 
L 102.619556 450.023209 
L 101.354617 450.825942 
L 101.097029 451.046092 
L 100.089679 451.781058 
L 99.023248 452.864176 
L 98.82474 453.058262 
L 97.559801 454.529621 
L 97.440578 454.682261 
L 96.294863 456.324893 
L 96.180266 456.500346 
L 95.189132 458.31843 
L 95.029924 458.7192 
L 94.41646 460.136515 
L 93.906532 461.9546 
L 93.764986 462.756632 
L 93.535766 463.772684 
L 93.310615 465.590769 
L 93.253076 467.408853 
L 93.35752 469.226938 
L 93.656422 471.045023 
L 93.764986 471.438713 
L 94.1438 472.863107 
L 95.029924 474.681192 
L 95.029924 474.681192 
L 96.294863 476.292624 
L 96.542943 476.499277 
z
M 98.135588 474.681192 
L 97.559801 474.241858 
L 96.448095 472.863107 
L 96.294863 472.605014 
L 95.557927 471.045023 
L 95.109829 469.226938 
L 95.029924 468.378604 
L 94.927914 467.408853 
L 94.965552 465.590769 
L 95.029924 465.114274 
L 95.168887 463.772684 
L 95.536621 461.9546 
L 96.166203 460.136515 
L 96.294863 459.857514 
L 96.967642 458.31843 
L 97.559801 457.328243 
L 98.080399 456.500346 
L 98.82474 455.503512 
L 99.552216 454.682261 
L 100.089679 454.098109 
L 101.354617 453.052129 
L 101.687179 452.864176 
L 102.619556 452.253398 
L 103.884495 451.787423 
L 105.149433 451.608092 
L 106.414372 451.636675 
L 107.67931 451.824941 
L 108.944249 452.187186 
L 110.209188 452.864176 
L 110.209188 452.864176 
L 111.474126 454.118116 
L 111.843935 454.682261 
L 112.541502 456.500346 
L 112.739065 457.719974 
L 112.852603 458.31843 
L 112.931705 460.136515 
L 112.784204 461.9546 
L 112.739065 462.197739 
L 112.501827 463.772684 
L 112.023224 465.590769 
L 111.474126 466.959535 
L 111.30599 467.408853 
L 110.380384 469.226938 
L 110.209188 469.505145 
L 109.185084 471.045023 
L 108.944249 471.361887 
L 107.67931 472.771762 
L 107.577142 472.863107 
L 106.414372 473.930597 
L 105.149433 474.651269 
L 105.072282 474.681192 
L 103.884495 475.239676 
L 102.619556 475.556827 
L 101.354617 475.6762 
L 100.089679 475.583275 
L 98.82474 475.154729 
z
" clip-path="url(#pe795cb909d)" style="fill: #cecef4"/>
    <path d="M 98.82474 475.154729 
L 100.089679 475.583275 
L 101.354617 475.6762 
L 102.619556 475.556827 
L 103.884495 475.239676 
L 105.072282 474.681192 
L 105.149433 474.651269 
L 106.414372 473.930597 
L 107.577142 472.863107 
L 107.67931 472.771762 
L 108.944249 471.361887 
L 109.185084 471.045023 
L 110.209188 469.505145 
L 110.380384 469.226938 
L 111.30599 467.408853 
L 111.474126 466.959535 
L 112.023224 465.590769 
L 112.501827 463.772684 
L 112.739065 462.197739 
L 112.784204 461.9546 
L 112.931705 460.136515 
L 112.852603 458.31843 
L 112.739065 457.719974 
L 112.541502 456.500346 
L 111.843935 454.682261 
L 111.474126 454.118116 
L 110.209188 452.864176 
L 110.209188 452.864176 
L 108.944249 452.187186 
L 107.67931 451.824941 
L 106.414372 451.636675 
L 105.149433 451.608092 
L 103.884495 451.787423 
L 102.619556 452.253398 
L 101.687179 452.864176 
L 101.354617 453.052129 
L 100.089679 454.098109 
L 99.552216 454.682261 
L 98.82474 455.503512 
L 98.080399 456.500346 
L 97.559801 457.328243 
L 96.967642 458.31843 
L 96.294863 459.857514 
L 96.166203 460.136515 
L 95.536621 461.9546 
L 95.168887 463.772684 
L 95.029924 465.114274 
L 94.965552 465.590769 
L 94.927914 467.408853 
L 95.029924 468.378604 
L 95.109829 469.226938 
L 95.557927 471.045023 
L 96.294863 472.605014 
L 96.448095 472.863107 
L 97.559801 474.241858 
L 98.135588 474.681192 
z
M 98.640385 472.863107 
L 97.559801 471.625242 
L 97.200764 471.045023 
L 96.463903 469.226938 
L 96.294863 468.32914 
L 96.134 467.408853 
L 96.102759 465.590769 
L 96.294863 464.070565 
L 96.325773 463.772684 
L 96.716562 461.9546 
L 97.379389 460.136515 
L 97.559801 459.770326 
L 98.279334 458.31843 
L 98.82474 457.47346 
L 99.546028 456.500346 
L 100.089679 455.84845 
L 101.354617 454.711179 
L 101.400845 454.682261 
L 102.619556 453.864499 
L 103.884495 453.408004 
L 105.149433 453.237546 
L 106.414372 453.275553 
L 107.67931 453.486015 
L 108.944249 453.9473 
L 109.932179 454.682261 
L 110.209188 454.963412 
L 111.108648 456.500346 
L 111.474126 458.029138 
L 111.541859 458.31843 
L 111.645782 460.136515 
L 111.474126 461.9546 
L 111.474126 461.9546 
L 111.151587 463.772684 
L 110.586479 465.590769 
L 110.209188 466.440632 
L 109.794992 467.408853 
L 108.944249 468.869858 
L 108.71899 469.226938 
L 107.67931 470.618137 
L 107.280185 471.045023 
L 106.414372 471.931394 
L 105.149433 472.809299 
L 105.036991 472.863107 
L 103.884495 473.485146 
L 102.619556 473.851127 
L 101.354617 473.952937 
L 100.089679 473.73455 
L 98.82474 473.03098 
z
" clip-path="url(#pe795cb909d)" style="fill: #b4b4f6"/>
    <path d="M 98.82474 473.03098 
L 100.089679 473.73455 
L 101.354617 473.952937 
L 102.619556 473.851127 
L 103.884495 473.485146 
L 105.036991 472.863107 
L 105.149433 472.809299 
L 106.414372 471.931394 
L 107.280185 471.045023 
L 107.67931 470.618137 
L 108.71899 469.226938 
L 108.944249 468.869858 
L 109.794992 467.408853 
L 110.209188 466.440632 
L 110.586479 465.590769 
L 111.151587 463.772684 
L 111.474126 461.9546 
L 111.474126 461.9546 
L 111.645782 460.136515 
L 111.541859 458.31843 
L 111.474126 458.029138 
L 111.108648 456.500346 
L 110.209188 454.963412 
L 109.932179 454.682261 
L 108.944249 453.9473 
L 107.67931 453.486015 
L 106.414372 453.275553 
L 105.149433 453.237546 
L 103.884495 453.408004 
L 102.619556 453.864499 
L 101.400845 454.682261 
L 101.354617 454.711179 
L 100.089679 455.84845 
L 99.546028 456.500346 
L 98.82474 457.47346 
L 98.279334 458.31843 
L 97.559801 459.770326 
L 97.379389 460.136515 
L 96.716562 461.9546 
L 96.325773 463.772684 
L 96.294863 464.070565 
L 96.102759 465.590769 
L 96.134 467.408853 
L 96.294863 468.32914 
L 96.463903 469.226938 
L 97.200764 471.045023 
L 97.559801 471.625242 
L 98.640385 472.863107 
z
M 98.971908 471.045023 
L 98.82474 470.87952 
L 97.830853 469.226938 
L 97.559801 468.418926 
L 97.283441 467.408853 
L 97.140234 465.590769 
L 97.30864 463.772684 
L 97.559801 462.768457 
L 97.749115 461.9546 
L 98.439051 460.136515 
L 98.82474 459.414032 
L 99.473237 458.31843 
L 100.089679 457.475446 
L 101.017728 456.500346 
L 101.354617 456.16872 
L 102.619556 455.311086 
L 103.884495 454.849359 
L 105.149433 454.682261 
L 106.414372 454.731483 
L 107.67931 454.993494 
L 108.944249 455.675659 
L 109.671212 456.500346 
L 110.209188 457.715526 
L 110.407588 458.31843 
L 110.588916 460.136515 
L 110.44342 461.9546 
L 110.209188 462.97391 
L 110.04823 463.772684 
L 109.445774 465.590769 
L 108.944249 466.628296 
L 108.553147 467.408853 
L 107.67931 468.760442 
L 107.318952 469.226938 
L 106.414372 470.267892 
L 105.463544 471.045023 
L 105.149433 471.303049 
L 103.884495 472.011987 
L 102.619556 472.370047 
L 101.354617 472.397277 
L 100.089679 471.975626 
z
" clip-path="url(#pe795cb909d)" style="fill: #9a9af7"/>
    <path d="M 100.089679 471.975626 
L 101.354617 472.397277 
L 102.619556 472.370047 
L 103.884495 472.011987 
L 105.149433 471.303049 
L 105.463544 471.045023 
L 106.414372 470.267892 
L 107.318952 469.226938 
L 107.67931 468.760442 
L 108.553147 467.408853 
L 108.944249 466.628296 
L 109.445774 465.590769 
L 110.04823 463.772684 
L 110.209188 462.97391 
L 110.44342 461.9546 
L 110.588916 460.136515 
L 110.407588 458.31843 
L 110.209188 457.715526 
L 109.671212 456.500346 
L 108.944249 455.675659 
L 107.67931 454.993494 
L 106.414372 454.731483 
L 105.149433 454.682261 
L 103.884495 454.849359 
L 102.619556 455.311086 
L 101.354617 456.16872 
L 101.017728 456.500346 
L 100.089679 457.475446 
L 99.473237 458.31843 
L 98.82474 459.414032 
L 98.439051 460.136515 
L 97.749115 461.9546 
L 97.559801 462.768457 
L 97.30864 463.772684 
L 97.140234 465.590769 
L 97.283441 467.408853 
L 97.559801 468.418926 
L 97.830853 469.226938 
L 98.82474 470.87952 
L 98.971908 471.045023 
z
M 99.384161 469.226938 
L 98.82474 468.173231 
L 98.521326 467.408853 
L 98.216556 465.590769 
L 98.307296 463.772684 
L 98.735275 461.9546 
L 98.82474 461.732396 
L 99.512852 460.136515 
L 100.089679 459.185276 
L 100.751155 458.31843 
L 101.354617 457.654365 
L 102.619556 456.726659 
L 103.178948 456.500346 
L 103.884495 456.217558 
L 105.149433 456.038259 
L 106.414372 456.112209 
L 107.67931 456.500346 
L 107.67931 456.500346 
L 108.944249 457.779231 
L 109.220306 458.31843 
L 109.567113 460.136515 
L 109.47965 461.9546 
L 109.073188 463.772684 
L 108.944249 464.121053 
L 108.401378 465.590769 
L 107.67931 466.941344 
L 107.391061 467.408853 
L 106.414372 468.699001 
L 105.872748 469.226938 
L 105.149433 469.883612 
L 103.884495 470.609139 
L 102.619556 470.945613 
L 101.354617 470.833105 
L 100.089679 470.065947 
z
" clip-path="url(#pe795cb909d)" style="fill: #7d7df9"/>
    <path d="M 100.089679 470.065947 
L 101.354617 470.833105 
L 102.619556 470.945613 
L 103.884495 470.609139 
L 105.149433 469.883612 
L 105.872748 469.226938 
L 106.414372 468.699001 
L 107.391061 467.408853 
L 107.67931 466.941344 
L 108.401378 465.590769 
L 108.944249 464.121053 
L 109.073188 463.772684 
L 109.47965 461.9546 
L 109.567113 460.136515 
L 109.220306 458.31843 
L 108.944249 457.779231 
L 107.67931 456.500346 
L 107.67931 456.500346 
L 106.414372 456.112209 
L 105.149433 456.038259 
L 103.884495 456.217558 
L 103.178948 456.500346 
L 102.619556 456.726659 
L 101.354617 457.654365 
L 100.751155 458.31843 
L 100.089679 459.185276 
L 99.512852 460.136515 
L 98.82474 461.732396 
L 98.735275 461.9546 
L 98.307296 463.772684 
L 98.216556 465.590769 
L 98.521326 467.408853 
L 98.82474 468.173231 
L 99.384161 469.226938 
z
M 101.354617 469.226938 
L 101.354617 469.226938 
L 100.089679 467.824145 
L 99.857298 467.408853 
L 99.336029 465.590769 
L 99.32648 463.772684 
L 99.744054 461.9546 
L 100.089679 461.171611 
L 100.644997 460.136515 
L 101.354617 459.200669 
L 102.336424 458.31843 
L 102.619556 458.102507 
L 103.884495 457.567909 
L 105.149433 457.380357 
L 106.414372 457.508224 
L 107.67931 458.163727 
L 107.816312 458.31843 
L 108.550618 460.136515 
L 108.559637 461.9546 
L 108.172914 463.772684 
L 107.67931 465.01819 
L 107.424181 465.590769 
L 106.414372 467.206668 
L 106.246026 467.408853 
L 105.149433 468.520891 
L 104.011462 469.226938 
L 103.884495 469.303088 
L 102.619556 469.561922 
z
" clip-path="url(#pe795cb909d)" style="fill: #5f5ffa"/>
    <path d="M 102.619556 469.561922 
L 103.884495 469.303088 
L 104.011462 469.226938 
L 105.149433 468.520891 
L 106.246026 467.408853 
L 106.414372 467.206668 
L 107.424181 465.590769 
L 107.67931 465.01819 
L 108.172914 463.772684 
L 108.559637 461.9546 
L 108.550618 460.136515 
L 107.816312 458.31843 
L 107.67931 458.163727 
L 106.414372 457.508224 
L 105.149433 457.380357 
L 103.884495 457.567909 
L 102.619556 458.102507 
L 102.336424 458.31843 
L 101.354617 459.200669 
L 100.644997 460.136515 
L 100.089679 461.171611 
L 99.744054 461.9546 
L 99.32648 463.772684 
L 99.336029 465.590769 
L 99.857298 467.408853 
L 100.089679 467.824145 
L 101.354617 469.226938 
L 101.354617 469.226938 
z
M 101.152134 467.408853 
L 100.335798 465.590769 
L 100.207549 463.772684 
L 100.666161 461.9546 
L 101.354617 460.665304 
L 101.751307 460.136515 
L 102.619556 459.348146 
L 103.884495 458.703486 
L 105.149433 458.480487 
L 106.414372 458.732012 
L 107.67931 460.136515 
L 107.67931 460.136515 
L 107.82131 461.9546 
L 107.67931 462.651788 
L 107.426527 463.772684 
L 106.620795 465.590769 
L 106.414372 465.921088 
L 105.175615 467.408853 
L 105.149433 467.435404 
L 103.884495 468.186045 
L 102.619556 468.324914 
L 101.354617 467.64638 
z
" clip-path="url(#pe795cb909d)" style="fill: #4545fb"/>
    <path d="M 101.354617 467.64638 
L 102.619556 468.324914 
L 103.884495 468.186045 
L 105.149433 467.435404 
L 105.175615 467.408853 
L 106.414372 465.921088 
L 106.620795 465.590769 
L 107.426527 463.772684 
L 107.67931 462.651788 
L 107.82131 461.9546 
L 107.67931 460.136515 
L 107.67931 460.136515 
L 106.414372 458.732012 
L 105.149433 458.480487 
L 103.884495 458.703486 
L 102.619556 459.348146 
L 101.751307 460.136515 
L 101.354617 460.665304 
L 100.666161 461.9546 
L 100.207549 463.772684 
L 100.335798 465.590769 
L 101.152134 467.408853 
z
M 101.951919 465.590769 
L 101.590586 463.772684 
L 102.136096 461.9546 
L 102.619556 461.310373 
L 103.884495 460.320114 
L 104.666924 460.136515 
L 105.149433 460.059877 
L 105.372082 460.136515 
L 106.414372 461.064565 
L 106.673728 461.9546 
L 106.414372 463.772684 
L 106.414372 463.772684 
L 105.340023 465.590769 
L 105.149433 465.818809 
L 103.884495 466.573656 
L 102.619556 466.376937 
z
" clip-path="url(#pe795cb909d)" style="fill: #2929fd"/>
    <path d="M 102.619556 466.376937 
L 103.884495 466.573656 
L 105.149433 465.818809 
L 105.340023 465.590769 
L 106.414372 463.772684 
L 106.414372 463.772684 
L 106.673728 461.9546 
L 106.414372 461.064565 
L 105.372082 460.136515 
L 105.149433 460.059877 
L 104.666924 460.136515 
L 103.884495 460.320114 
L 102.619556 461.310373 
L 102.136096 461.9546 
L 101.590586 463.772684 
L 101.951919 465.590769 
z
" clip-path="url(#pe795cb909d)" style="fill: #0d0dfe"/>
   </g>
   <g id="QuadContourSet_2">
    <path d="M 102.575538 510.711163 
L 105.60763 510.79145 
L 107.095431 510.630036 
L 108.639722 510.526443 
L 111.671814 509.990196 
L 114.703906 509.088416 
L 117.266138 507.995299 
L 117.735998 507.834066 
L 120.76809 506.563169 
L 122.855593 505.360563 
L 123.800182 504.851025 
L 126.832274 502.799309 
L 126.965228 502.725826 
L 129.864366 501.082367 
L 131.663833 500.091089 
L 132.896458 499.35286 
L 135.0316 497.456353 
L 135.92855 496.459037 
L 137.150111 494.821616 
L 138.608293 492.186879 
L 138.960642 491.378711 
L 140.206152 489.552143 
L 141.445918 486.917406 
L 141.992734 485.220653 
L 142.406815 484.282669 
L 143.257999 481.647933 
L 143.857806 479.013196 
L 144.331938 476.378459 
L 144.744691 473.743723 
L 145.024826 471.822381 
L 145.228827 471.108986 
L 145.970848 468.474249 
L 146.623906 465.839513 
L 147.142775 463.204776 
L 147.504546 460.570039 
L 147.719282 457.935303 
L 147.821946 455.300566 
L 147.855737 452.665829 
L 147.857928 450.031093 
L 147.85328 447.396356 
L 147.854798 444.761619 
L 147.869185 442.126883 
L 147.903863 439.492146 
L 147.972753 436.857409 
L 148.056918 435.062674 
L 148.136261 434.222673 
L 148.522813 431.587936 
L 149.062938 428.953199 
L 149.695948 426.318463 
L 150.285126 423.683726 
L 150.689311 421.048989 
L 150.843219 418.414253 
L 150.768544 415.779516 
L 150.536416 413.144779 
L 150.232973 410.510043 
L 149.93928 407.875306 
L 149.714482 405.240569 
L 149.579067 402.605833 
L 149.508764 399.971096 
L 149.451133 397.336359 
L 149.361434 394.701623 
L 149.233751 392.066886 
L 149.101174 389.432149 
L 149.006587 386.797413 
L 148.973211 384.162676 
L 148.996305 381.527939 
L 149.051388 378.893203 
L 149.105327 376.258466 
L 149.123635 373.623729 
L 149.073936 370.988993 
L 148.926032 368.354256 
L 148.64705 365.719519 
L 148.190908 363.084782 
L 148.056918 362.513607 
L 147.451931 360.450046 
L 146.604028 357.815309 
L 145.78825 355.180572 
L 145.103552 352.545836 
L 145.024826 352.145623 
L 144.826556 349.911099 
L 144.631916 347.276362 
L 144.448858 344.641626 
L 144.229831 342.006889 
L 143.909779 339.372152 
L 143.424361 336.737416 
L 142.752153 334.102679 
L 141.992734 331.575275 
L 141.970477 331.467942 
L 141.467822 328.833206 
L 140.998997 326.198469 
L 140.525837 323.563732 
L 139.993257 320.928996 
L 139.347694 318.294259 
L 138.960642 316.960755 
L 138.685353 315.659522 
L 138.063388 313.024786 
L 137.404071 310.390049 
L 136.726562 307.755312 
L 135.995426 305.120576 
L 135.92855 304.896893 
L 135.317988 302.485839 
L 134.558718 299.851102 
L 133.710318 297.216366 
L 132.896458 294.874812 
L 132.754013 294.581629 
L 131.181564 291.946892 
L 129.864366 290.409158 
L 126.832274 290.205777 
L 126.065391 289.312156 
L 124.189408 286.677419 
L 123.800182 286.030289 
L 122.781704 284.042682 
L 121.33641 281.407946 
L 120.76809 280.441158 
L 119.375465 278.773209 
L 117.735998 276.855379 
L 117.036792 276.138472 
L 114.703906 274.110648 
L 111.671814 273.503736 
L 108.639722 274.432346 
L 105.60763 275.645254 
L 105.022207 276.138472 
L 102.575538 278.193658 
L 102.297538 278.773209 
L 101.058515 281.407946 
L 99.909122 284.042682 
L 99.543446 284.883004 
L 98.847624 286.677419 
L 97.98298 289.312156 
L 97.295877 291.946892 
L 96.74813 294.581629 
L 96.511354 295.915964 
L 96.21455 297.216366 
L 95.704578 299.851102 
L 95.290267 302.485839 
L 94.940164 305.120576 
L 94.628419 307.755312 
L 94.333365 310.390049 
L 94.036789 313.024786 
L 93.724953 315.659522 
L 93.479262 317.585543 
L 93.351004 318.294259 
L 92.878914 320.928996 
L 92.45701 323.563732 
L 92.093191 326.198469 
L 91.791122 328.833206 
L 91.550168 331.467942 
L 91.366133 334.102679 
L 91.231654 336.737416 
L 91.136246 339.372152 
L 91.067153 342.006889 
L 91.011825 344.641626 
L 90.960993 347.276362 
L 90.910082 349.911099 
L 90.858059 352.545836 
L 90.805088 355.180572 
L 90.751023 357.815309 
L 90.695467 360.450046 
L 90.638561 363.084782 
L 90.581233 365.719519 
L 90.524577 368.354256 
L 90.469056 370.988993 
L 90.44717 372.03196 
L 90.371463 373.623729 
L 90.251088 376.258466 
L 90.139415 378.893203 
L 90.038932 381.527939 
L 89.950786 384.162676 
L 89.872858 386.797413 
L 89.799924 389.432149 
L 89.726266 392.066886 
L 89.64927 394.701623 
L 89.571568 397.336359 
L 89.500059 399.971096 
L 89.442181 402.605833 
L 89.40147 405.240569 
L 89.374686 407.875306 
L 89.351998 410.510043 
L 89.320544 413.144779 
L 89.270168 415.779516 
L 89.198273 418.414253 
L 89.110444 421.048989 
L 89.016205 423.683726 
L 88.922808 426.318463 
L 88.83067 428.953199 
L 88.732216 431.587936 
L 88.614253 434.222673 
L 88.463408 436.857409 
L 88.273018 439.492146 
L 88.047808 442.126883 
L 87.802812 444.761619 
L 87.557202 447.396356 
L 87.415077 448.928474 
L 87.146612 450.031093 
L 86.551527 452.665829 
L 86.084193 455.300566 
L 85.733941 457.935303 
L 85.485684 460.570039 
L 85.325745 463.204776 
L 85.243865 465.839513 
L 85.233024 468.474249 
L 85.28821 471.108986 
L 85.404863 473.743723 
L 85.577707 476.378459 
L 85.800992 479.013196 
L 86.071211 481.647933 
L 86.392631 484.282669 
L 86.784678 486.917406 
L 87.29014 489.552143 
L 87.415077 490.096583 
L 87.637585 492.186879 
L 88.037162 494.821616 
L 88.655077 497.456353 
L 89.652805 500.091089 
L 90.44717 501.576994 
L 90.945443 502.725826 
L 92.658342 505.360563 
L 93.479262 506.308188 
L 95.560993 507.995299 
L 96.511354 508.700918 
L 99.543446 510.124509 
L 102.266159 510.630036 
z
M 99.540923 502.725826 
L 96.511354 500.484116 
L 96.152678 500.091089 
L 94.204709 497.456353 
L 93.479262 495.977548 
L 92.922798 494.821616 
L 91.968059 492.186879 
L 91.323237 489.552143 
L 90.860461 486.917406 
L 90.506521 484.282669 
L 90.44717 483.78607 
L 90.019807 481.647933 
L 89.577731 479.013196 
L 89.221583 476.378459 
L 88.949541 473.743723 
L 88.763101 471.108986 
L 88.664559 468.474249 
L 88.65715 465.839513 
L 88.746085 463.204776 
L 88.939406 460.570039 
L 89.248113 457.935303 
L 89.685094 455.300566 
L 90.262097 452.665829 
L 90.44717 451.910388 
L 90.715283 450.031093 
L 91.129452 447.396356 
L 91.570958 444.761619 
L 92.007786 442.126883 
L 92.410211 439.492146 
L 92.760443 436.857409 
L 93.057008 434.222673 
L 93.311919 431.587936 
L 93.479262 429.655702 
L 93.522094 428.953199 
L 93.669843 426.318463 
L 93.814839 423.683726 
L 93.957693 421.048989 
L 94.09609 418.414253 
L 94.227461 415.779516 
L 94.35068 413.144779 
L 94.465942 410.510043 
L 94.573278 407.875306 
L 94.67111 405.240569 
L 94.756387 402.605833 
L 94.826712 399.971096 
L 94.883056 397.336359 
L 94.930756 394.701623 
L 94.977977 392.066886 
L 95.033001 389.432149 
L 95.101994 386.797413 
L 95.187703 384.162676 
L 95.288921 381.527939 
L 95.400765 378.893203 
L 95.516283 376.258466 
L 95.629512 373.623729 
L 95.73894 370.988993 
L 95.849313 368.354256 
L 95.970504 365.719519 
L 96.114281 363.084782 
L 96.291173 360.450046 
L 96.508883 357.815309 
L 96.511354 357.789256 
L 96.721936 355.180572 
L 96.969576 352.545836 
L 97.251829 349.911099 
L 97.56686 347.276362 
L 97.910932 344.641626 
L 98.27967 342.006889 
L 98.671142 339.372152 
L 99.089031 336.737416 
L 99.543446 334.102679 
L 99.543446 334.102679 
L 99.932903 331.467942 
L 100.38083 328.833206 
L 100.90525 326.198469 
L 101.516882 323.563732 
L 102.214304 320.928996 
L 102.575538 319.62066 
L 103.050826 318.294259 
L 104.06772 315.659522 
L 105.249756 313.024786 
L 105.60763 312.266487 
L 108.54802 310.390049 
L 108.639722 310.337883 
L 108.786922 310.390049 
L 111.671814 311.276164 
L 114.064739 313.024786 
L 114.703906 313.498357 
L 116.567777 315.659522 
L 117.735998 317.12696 
L 118.64936 318.294259 
L 120.618193 320.928996 
L 120.76809 321.137105 
L 122.07465 323.563732 
L 123.186444 326.198469 
L 123.800182 328.05036 
L 124.025119 328.833206 
L 124.710005 331.467942 
L 125.338483 334.102679 
L 125.946517 336.737416 
L 126.543238 339.372152 
L 126.832274 340.669482 
L 127.262503 342.006889 
L 128.00788 344.641626 
L 128.609001 347.276362 
L 129.082433 349.911099 
L 129.451295 352.545836 
L 129.738685 355.180572 
L 129.864366 356.607659 
L 130.013382 357.815309 
L 130.311544 360.450046 
L 130.595279 363.084782 
L 130.863757 365.719519 
L 131.105845 368.354256 
L 131.305656 370.988993 
L 131.452051 373.623729 
L 131.545471 376.258466 
L 131.597872 378.893203 
L 131.627441 381.527939 
L 131.65187 384.162676 
L 131.682901 386.797413 
L 131.724044 389.432149 
L 131.772217 392.066886 
L 131.821887 394.701623 
L 131.868998 397.336359 
L 131.912903 399.971096 
L 131.956228 402.605833 
L 132.003395 405.240569 
L 132.058542 407.875306 
L 132.123498 410.510043 
L 132.196395 413.144779 
L 132.271465 415.779516 
L 132.340585 418.414253 
L 132.396955 421.048989 
L 132.440176 423.683726 
L 132.479987 426.318463 
L 132.535128 428.953199 
L 132.626457 431.587936 
L 132.768322 434.222673 
L 132.896458 435.932283 
L 133.002431 436.857409 
L 133.385094 439.492146 
L 133.818556 442.126883 
L 134.272306 444.761619 
L 134.716194 447.396356 
L 135.122357 450.031093 
L 135.466503 452.665829 
L 135.728172 455.300566 
L 135.890075 457.935303 
L 135.92855 460.070347 
L 135.93904 460.570039 
L 135.92855 460.844502 
L 135.855784 463.204776 
L 135.632824 465.839513 
L 135.256006 468.474249 
L 134.716058 471.108986 
L 134.010631 473.743723 
L 133.14579 476.378459 
L 132.896458 477.067798 
L 132.346368 479.013196 
L 131.483498 481.647933 
L 130.391741 484.282669 
L 129.864366 485.305936 
L 129.271788 486.917406 
L 127.948129 489.552143 
L 126.832274 491.133334 
L 126.23251 492.186879 
L 124.191489 494.821616 
L 123.800182 495.230708 
L 121.429635 497.456353 
L 120.76809 497.983052 
L 117.735998 500.052587 
L 117.669095 500.091089 
L 114.703906 501.765236 
L 112.189309 502.725826 
L 111.671814 502.946213 
L 108.639722 503.820061 
L 105.60763 504.152202 
L 102.575538 503.964212 
L 99.543446 502.727538 
z
" clip-path="url(#pe795cb909d)" style="fill: #e4f0e4; fill-opacity: 0.5"/>
    <path d="M 99.543446 502.727538 
L 102.575538 503.964212 
L 105.60763 504.152202 
L 108.639722 503.820061 
L 111.671814 502.946213 
L 112.189309 502.725826 
L 114.703906 501.765236 
L 117.669095 500.091089 
L 117.735998 500.052587 
L 120.76809 497.983052 
L 121.429635 497.456353 
L 123.800182 495.230708 
L 124.191489 494.821616 
L 126.23251 492.186879 
L 126.832274 491.133334 
L 127.948129 489.552143 
L 129.271788 486.917406 
L 129.864366 485.305936 
L 130.391741 484.282669 
L 131.483498 481.647933 
L 132.346368 479.013196 
L 132.896458 477.067798 
L 133.14579 476.378459 
L 134.010631 473.743723 
L 134.716058 471.108986 
L 135.256006 468.474249 
L 135.632824 465.839513 
L 135.855784 463.204776 
L 135.92855 460.844502 
L 135.93904 460.570039 
L 135.92855 460.070347 
L 135.890075 457.935303 
L 135.728172 455.300566 
L 135.466503 452.665829 
L 135.122357 450.031093 
L 134.716194 447.396356 
L 134.272306 444.761619 
L 133.818556 442.126883 
L 133.385094 439.492146 
L 133.002431 436.857409 
L 132.896458 435.932283 
L 132.768322 434.222673 
L 132.626457 431.587936 
L 132.535128 428.953199 
L 132.479987 426.318463 
L 132.440176 423.683726 
L 132.396955 421.048989 
L 132.340585 418.414253 
L 132.271465 415.779516 
L 132.196395 413.144779 
L 132.123498 410.510043 
L 132.058542 407.875306 
L 132.003395 405.240569 
L 131.956228 402.605833 
L 131.912903 399.971096 
L 131.868998 397.336359 
L 131.821887 394.701623 
L 131.772217 392.066886 
L 131.724044 389.432149 
L 131.682901 386.797413 
L 131.65187 384.162676 
L 131.627441 381.527939 
L 131.597872 378.893203 
L 131.545471 376.258466 
L 131.452051 373.623729 
L 131.305656 370.988993 
L 131.105845 368.354256 
L 130.863757 365.719519 
L 130.595279 363.084782 
L 130.311544 360.450046 
L 130.013382 357.815309 
L 129.864366 356.607659 
L 129.738685 355.180572 
L 129.451295 352.545836 
L 129.082433 349.911099 
L 128.609001 347.276362 
L 128.00788 344.641626 
L 127.262503 342.006889 
L 126.832274 340.669482 
L 126.543238 339.372152 
L 125.946517 336.737416 
L 125.338483 334.102679 
L 124.710005 331.467942 
L 124.025119 328.833206 
L 123.800182 328.05036 
L 123.186444 326.198469 
L 122.07465 323.563732 
L 120.76809 321.137105 
L 120.618193 320.928996 
L 118.64936 318.294259 
L 117.735998 317.12696 
L 116.567777 315.659522 
L 114.703906 313.498357 
L 114.064739 313.024786 
L 111.671814 311.276164 
L 108.786922 310.390049 
L 108.639722 310.337883 
L 108.54802 310.390049 
L 105.60763 312.266487 
L 105.249756 313.024786 
L 104.06772 315.659522 
L 103.050826 318.294259 
L 102.575538 319.62066 
L 102.214304 320.928996 
L 101.516882 323.563732 
L 100.90525 326.198469 
L 100.38083 328.833206 
L 99.932903 331.467942 
L 99.543446 334.102679 
L 99.543446 334.102679 
L 99.089031 336.737416 
L 98.671142 339.372152 
L 98.27967 342.006889 
L 97.910932 344.641626 
L 97.56686 347.276362 
L 97.251829 349.911099 
L 96.969576 352.545836 
L 96.721936 355.180572 
L 96.511354 357.789256 
L 96.508883 357.815309 
L 96.291173 360.450046 
L 96.114281 363.084782 
L 95.970504 365.719519 
L 95.849313 368.354256 
L 95.73894 370.988993 
L 95.629512 373.623729 
L 95.516283 376.258466 
L 95.400765 378.893203 
L 95.288921 381.527939 
L 95.187703 384.162676 
L 95.101994 386.797413 
L 95.033001 389.432149 
L 94.977977 392.066886 
L 94.930756 394.701623 
L 94.883056 397.336359 
L 94.826712 399.971096 
L 94.756387 402.605833 
L 94.67111 405.240569 
L 94.573278 407.875306 
L 94.465942 410.510043 
L 94.35068 413.144779 
L 94.227461 415.779516 
L 94.09609 418.414253 
L 93.957693 421.048989 
L 93.814839 423.683726 
L 93.669843 426.318463 
L 93.522094 428.953199 
L 93.479262 429.655702 
L 93.311919 431.587936 
L 93.057008 434.222673 
L 92.760443 436.857409 
L 92.410211 439.492146 
L 92.007786 442.126883 
L 91.570958 444.761619 
L 91.129452 447.396356 
L 90.715283 450.031093 
L 90.44717 451.910388 
L 90.262097 452.665829 
L 89.685094 455.300566 
L 89.248113 457.935303 
L 88.939406 460.570039 
L 88.746085 463.204776 
L 88.65715 465.839513 
L 88.664559 468.474249 
L 88.763101 471.108986 
L 88.949541 473.743723 
L 89.221583 476.378459 
L 89.577731 479.013196 
L 90.019807 481.647933 
L 90.44717 483.78607 
L 90.506521 484.282669 
L 90.860461 486.917406 
L 91.323237 489.552143 
L 91.968059 492.186879 
L 92.922798 494.821616 
L 93.479262 495.977548 
L 94.204709 497.456353 
L 96.152678 500.091089 
L 96.511354 500.484116 
L 99.540923 502.725826 
z
M 102.731455 500.091089 
L 102.575538 500.076197 
L 99.543446 498.581025 
L 98.303221 497.456353 
L 96.511354 495.37617 
L 96.147112 494.821616 
L 94.777516 492.186879 
L 93.87736 489.552143 
L 93.479262 487.990984 
L 93.162761 486.917406 
L 92.511126 484.282669 
L 91.98886 481.647933 
L 91.560979 479.013196 
L 91.215613 476.378459 
L 90.951365 473.743723 
L 90.769471 471.108986 
L 90.671044 468.474249 
L 90.657574 465.839513 
L 90.732429 463.204776 
L 90.90188 460.570039 
L 91.174843 457.935303 
L 91.560722 455.300566 
L 92.064849 452.665829 
L 92.681835 450.031093 
L 93.389157 447.396356 
L 93.479262 447.044614 
L 93.939714 444.761619 
L 94.457583 442.126883 
L 94.936415 439.492146 
L 95.354935 436.857409 
L 95.709267 434.222673 
L 96.009892 431.587936 
L 96.27408 428.953199 
L 96.511354 426.390994 
L 96.517499 426.318463 
L 96.725392 423.683726 
L 96.927231 421.048989 
L 97.121454 418.414253 
L 97.307684 415.779516 
L 97.488395 413.144779 
L 97.66747 410.510043 
L 97.846702 407.875306 
L 98.022337 405.240569 
L 98.183843 402.605833 
L 98.316646 399.971096 
L 98.409101 397.336359 
L 98.460356 394.701623 
L 98.483105 392.066886 
L 98.498534 389.432149 
L 98.527679 386.797413 
L 98.585288 384.162676 
L 98.678086 381.527939 
L 98.805723 378.893203 
L 98.962559 376.258466 
L 99.139867 373.623729 
L 99.328977 370.988993 
L 99.525429 368.354256 
L 99.543446 368.1182 
L 99.72239 365.719519 
L 99.934718 363.084782 
L 100.17804 360.450046 
L 100.464764 357.815309 
L 100.802049 355.180572 
L 101.191891 352.545836 
L 101.632506 349.911099 
L 102.119303 347.276362 
L 102.575538 344.976727 
L 102.661269 344.641626 
L 103.332765 342.006889 
L 104.027126 339.372152 
L 104.761391 336.737416 
L 105.558159 334.102679 
L 105.60763 333.947664 
L 107.820949 331.467942 
L 108.639722 330.639693 
L 111.671814 331.159077 
L 112.002111 331.467942 
L 114.703906 333.992977 
L 114.779081 334.102679 
L 116.430237 336.737416 
L 117.735998 339.372152 
L 117.735998 339.372152 
L 118.776929 342.006889 
L 119.650171 344.641626 
L 120.416581 347.276362 
L 120.76809 348.580916 
L 121.095194 349.911099 
L 121.70018 352.545836 
L 122.245007 355.180572 
L 122.715939 357.815309 
L 123.100086 360.450046 
L 123.392547 363.084782 
L 123.600282 365.719519 
L 123.7409 368.354256 
L 123.800182 369.948801 
L 123.8392 370.988993 
L 123.920162 373.623729 
L 124.002488 376.258466 
L 124.098101 378.893203 
L 124.20893 381.527939 
L 124.329399 384.162676 
L 124.452302 386.797413 
L 124.574174 389.432149 
L 124.697228 392.066886 
L 124.827713 394.701623 
L 124.972059 397.336359 
L 125.132605 399.971096 
L 125.304936 402.605833 
L 125.478377 405.240569 
L 125.6394 407.875306 
L 125.776127 410.510043 
L 125.882014 413.144779 
L 125.957654 415.779516 
L 126.010327 418.414253 
L 126.051685 421.048989 
L 126.094814 423.683726 
L 126.152069 426.318463 
L 126.234333 428.953199 
L 126.351036 431.587936 
L 126.50964 434.222673 
L 126.71378 436.857409 
L 126.832274 438.102606 
L 127.012269 439.492146 
L 127.404249 442.126883 
L 127.826825 444.761619 
L 128.266579 447.396356 
L 128.708323 450.031093 
L 129.129739 452.665829 
L 129.499565 455.300566 
L 129.78114 457.935303 
L 129.864366 459.311303 
L 129.961075 460.570039 
L 129.970194 463.204776 
L 129.864366 464.570814 
L 129.788817 465.839513 
L 129.472439 468.474249 
L 129.017603 471.108986 
L 128.451233 473.743723 
L 127.789895 476.378459 
L 127.021653 479.013196 
L 126.832274 479.579152 
L 126.292892 481.647933 
L 125.439352 484.282669 
L 124.305097 486.917406 
L 123.800182 487.834926 
L 122.898888 489.552143 
L 120.919472 492.186879 
L 120.76809 492.351441 
L 118.434625 494.821616 
L 117.735998 495.413141 
L 114.830354 497.456353 
L 114.703906 497.537317 
L 111.671814 499.103941 
L 108.639722 499.999069 
L 107.867524 500.091089 
L 105.60763 500.408878 
z
" clip-path="url(#pe795cb909d)" style="fill: #d5e9d5; fill-opacity: 0.5"/>
    <path d="M 105.60763 500.408878 
L 107.867524 500.091089 
L 108.639722 499.999069 
L 111.671814 499.103941 
L 114.703906 497.537317 
L 114.830354 497.456353 
L 117.735998 495.413141 
L 118.434625 494.821616 
L 120.76809 492.351441 
L 120.919472 492.186879 
L 122.898888 489.552143 
L 123.800182 487.834926 
L 124.305097 486.917406 
L 125.439352 484.282669 
L 126.292892 481.647933 
L 126.832274 479.579152 
L 127.021653 479.013196 
L 127.789895 476.378459 
L 128.451233 473.743723 
L 129.017603 471.108986 
L 129.472439 468.474249 
L 129.788817 465.839513 
L 129.864366 464.570814 
L 129.970194 463.204776 
L 129.961075 460.570039 
L 129.864366 459.311303 
L 129.78114 457.935303 
L 129.499565 455.300566 
L 129.129739 452.665829 
L 128.708323 450.031093 
L 128.266579 447.396356 
L 127.826825 444.761619 
L 127.404249 442.126883 
L 127.012269 439.492146 
L 126.832274 438.102606 
L 126.71378 436.857409 
L 126.50964 434.222673 
L 126.351036 431.587936 
L 126.234333 428.953199 
L 126.152069 426.318463 
L 126.094814 423.683726 
L 126.051685 421.048989 
L 126.010327 418.414253 
L 125.957654 415.779516 
L 125.882014 413.144779 
L 125.776127 410.510043 
L 125.6394 407.875306 
L 125.478377 405.240569 
L 125.304936 402.605833 
L 125.132605 399.971096 
L 124.972059 397.336359 
L 124.827713 394.701623 
L 124.697228 392.066886 
L 124.574174 389.432149 
L 124.452302 386.797413 
L 124.329399 384.162676 
L 124.20893 381.527939 
L 124.098101 378.893203 
L 124.002488 376.258466 
L 123.920162 373.623729 
L 123.8392 370.988993 
L 123.800182 369.948801 
L 123.7409 368.354256 
L 123.600282 365.719519 
L 123.392547 363.084782 
L 123.100086 360.450046 
L 122.715939 357.815309 
L 122.245007 355.180572 
L 121.70018 352.545836 
L 121.095194 349.911099 
L 120.76809 348.580916 
L 120.416581 347.276362 
L 119.650171 344.641626 
L 118.776929 342.006889 
L 117.735998 339.372152 
L 117.735998 339.372152 
L 116.430237 336.737416 
L 114.779081 334.102679 
L 114.703906 333.992977 
L 112.002111 331.467942 
L 111.671814 331.159077 
L 108.639722 330.639693 
L 107.820949 331.467942 
L 105.60763 333.947664 
L 105.558159 334.102679 
L 104.761391 336.737416 
L 104.027126 339.372152 
L 103.332765 342.006889 
L 102.661269 344.641626 
L 102.575538 344.976727 
L 102.119303 347.276362 
L 101.632506 349.911099 
L 101.191891 352.545836 
L 100.802049 355.180572 
L 100.464764 357.815309 
L 100.17804 360.450046 
L 99.934718 363.084782 
L 99.72239 365.719519 
L 99.543446 368.1182 
L 99.525429 368.354256 
L 99.328977 370.988993 
L 99.139867 373.623729 
L 98.962559 376.258466 
L 98.805723 378.893203 
L 98.678086 381.527939 
L 98.585288 384.162676 
L 98.527679 386.797413 
L 98.498534 389.432149 
L 98.483105 392.066886 
L 98.460356 394.701623 
L 98.409101 397.336359 
L 98.316646 399.971096 
L 98.183843 402.605833 
L 98.022337 405.240569 
L 97.846702 407.875306 
L 97.66747 410.510043 
L 97.488395 413.144779 
L 97.307684 415.779516 
L 97.121454 418.414253 
L 96.927231 421.048989 
L 96.725392 423.683726 
L 96.517499 426.318463 
L 96.511354 426.390994 
L 96.27408 428.953199 
L 96.009892 431.587936 
L 95.709267 434.222673 
L 95.354935 436.857409 
L 94.936415 439.492146 
L 94.457583 442.126883 
L 93.939714 444.761619 
L 93.479262 447.044614 
L 93.389157 447.396356 
L 92.681835 450.031093 
L 92.064849 452.665829 
L 91.560722 455.300566 
L 91.174843 457.935303 
L 90.90188 460.570039 
L 90.732429 463.204776 
L 90.657574 465.839513 
L 90.671044 468.474249 
L 90.769471 471.108986 
L 90.951365 473.743723 
L 91.215613 476.378459 
L 91.560979 479.013196 
L 91.98886 481.647933 
L 92.511126 484.282669 
L 93.162761 486.917406 
L 93.479262 487.990984 
L 93.87736 489.552143 
L 94.777516 492.186879 
L 96.147112 494.821616 
L 96.511354 495.37617 
L 98.303221 497.456353 
L 99.543446 498.581025 
L 102.575538 500.076197 
L 102.731455 500.091089 
z
M 103.320543 497.456353 
L 102.575538 497.352658 
L 99.543446 495.410444 
L 98.993131 494.821616 
L 97.043383 492.186879 
L 96.511354 491.219879 
L 95.743255 489.552143 
L 94.826898 486.917406 
L 94.142674 484.282669 
L 93.599639 481.647933 
L 93.479262 480.993965 
L 93.034147 479.013196 
L 92.540804 476.378459 
L 92.161924 473.743723 
L 91.899115 471.108986 
L 91.753944 468.474249 
L 91.728468 465.839513 
L 91.827269 463.204776 
L 92.058868 460.570039 
L 92.435381 457.935303 
L 92.969543 455.300566 
L 93.479262 453.313684 
L 93.611305 452.665829 
L 94.205658 450.031093 
L 94.883698 447.396356 
L 95.6067 444.761619 
L 96.324565 442.126883 
L 96.511354 441.335708 
L 96.922809 439.492146 
L 97.425137 436.857409 
L 97.85885 434.222673 
L 98.236213 431.587936 
L 98.571799 428.953199 
L 98.876641 426.318463 
L 99.156134 423.683726 
L 99.411833 421.048989 
L 99.543446 419.55696 
L 99.654688 418.414253 
L 99.892494 415.779516 
L 100.118012 413.144779 
L 100.335596 410.510043 
L 100.54837 407.875306 
L 100.755449 405.240569 
L 100.951295 402.605833 
L 101.127058 399.971096 
L 101.273178 397.336359 
L 101.383047 394.701623 
L 101.457247 392.066886 
L 101.506504 389.432149 
L 101.550564 386.797413 
L 101.61212 384.162676 
L 101.708891 381.527939 
L 101.848524 378.893203 
L 102.028385 376.258466 
L 102.23902 373.623729 
L 102.469218 370.988993 
L 102.575538 369.820915 
L 102.796924 368.354256 
L 103.192964 365.719519 
L 103.595655 363.084782 
L 104.024188 360.450046 
L 104.496552 357.815309 
L 105.023206 355.180572 
L 105.60763 352.545836 
L 105.60763 352.545836 
L 107.428039 349.911099 
L 108.639722 348.026225 
L 111.333413 347.276362 
L 111.671814 347.191329 
L 111.732656 347.276362 
L 113.32815 349.911099 
L 114.703906 352.49812 
L 114.716697 352.545836 
L 115.378762 355.180572 
L 116.055972 357.815309 
L 116.76443 360.450046 
L 117.468567 363.084782 
L 117.735998 364.190998 
L 118.022449 365.719519 
L 118.406875 368.354256 
L 118.680451 370.988993 
L 118.868856 373.623729 
L 119.004398 376.258466 
L 119.118573 378.893203 
L 119.236359 381.527939 
L 119.372024 384.162676 
L 119.527065 386.797413 
L 119.692016 389.432149 
L 119.853083 392.066886 
L 120.000734 394.701623 
L 120.134574 397.336359 
L 120.261648 399.971096 
L 120.390889 402.605833 
L 120.528454 405.240569 
L 120.67639 407.875306 
L 120.76809 409.396028 
L 120.84583 410.510043 
L 121.041835 413.144779 
L 121.244224 415.779516 
L 121.450901 418.414253 
L 121.663001 421.048989 
L 121.883907 423.683726 
L 122.117042 426.318463 
L 122.363918 428.953199 
L 122.624018 431.587936 
L 122.89658 434.222673 
L 123.182204 436.857409 
L 123.482237 439.492146 
L 123.795966 442.126883 
L 123.800182 442.158848 
L 124.236131 444.761619 
L 124.700475 447.396356 
L 125.160253 450.031093 
L 125.58536 452.665829 
L 125.94609 455.300566 
L 126.215779 457.935303 
L 126.373262 460.570039 
L 126.404272 463.204776 
L 126.301516 465.839513 
L 126.064233 468.474249 
L 125.697768 471.108986 
L 125.211692 473.743723 
L 124.613409 476.378459 
L 123.895392 479.013196 
L 123.800182 479.315549 
L 123.213327 481.647933 
L 122.307019 484.282669 
L 121.016434 486.917406 
L 120.76809 487.317895 
L 119.499065 489.552143 
L 117.735998 491.709016 
L 117.297701 492.186879 
L 114.703906 494.444892 
L 114.122872 494.821616 
L 111.671814 496.271233 
L 108.639722 497.334085 
L 107.777823 497.456353 
L 105.60763 497.795158 
z
" clip-path="url(#pe795cb909d)" style="fill: #c8e2c8; fill-opacity: 0.5"/>
    <path d="M 105.60763 497.795158 
L 107.777823 497.456353 
L 108.639722 497.334085 
L 111.671814 496.271233 
L 114.122872 494.821616 
L 114.703906 494.444892 
L 117.297701 492.186879 
L 117.735998 491.709016 
L 119.499065 489.552143 
L 120.76809 487.317895 
L 121.016434 486.917406 
L 122.307019 484.282669 
L 123.213327 481.647933 
L 123.800182 479.315549 
L 123.895392 479.013196 
L 124.613409 476.378459 
L 125.211692 473.743723 
L 125.697768 471.108986 
L 126.064233 468.474249 
L 126.301516 465.839513 
L 126.404272 463.204776 
L 126.373262 460.570039 
L 126.215779 457.935303 
L 125.94609 455.300566 
L 125.58536 452.665829 
L 125.160253 450.031093 
L 124.700475 447.396356 
L 124.236131 444.761619 
L 123.800182 442.158848 
L 123.795966 442.126883 
L 123.482237 439.492146 
L 123.182204 436.857409 
L 122.89658 434.222673 
L 122.624018 431.587936 
L 122.363918 428.953199 
L 122.117042 426.318463 
L 121.883907 423.683726 
L 121.663001 421.048989 
L 121.450901 418.414253 
L 121.244224 415.779516 
L 121.041835 413.144779 
L 120.84583 410.510043 
L 120.76809 409.396028 
L 120.67639 407.875306 
L 120.528454 405.240569 
L 120.390889 402.605833 
L 120.261648 399.971096 
L 120.134574 397.336359 
L 120.000734 394.701623 
L 119.853083 392.066886 
L 119.692016 389.432149 
L 119.527065 386.797413 
L 119.372024 384.162676 
L 119.236359 381.527939 
L 119.118573 378.893203 
L 119.004398 376.258466 
L 118.868856 373.623729 
L 118.680451 370.988993 
L 118.406875 368.354256 
L 118.022449 365.719519 
L 117.735998 364.190998 
L 117.468567 363.084782 
L 116.76443 360.450046 
L 116.055972 357.815309 
L 115.378762 355.180572 
L 114.716697 352.545836 
L 114.703906 352.49812 
L 113.32815 349.911099 
L 111.732656 347.276362 
L 111.671814 347.191329 
L 111.333413 347.276362 
L 108.639722 348.026225 
L 107.428039 349.911099 
L 105.60763 352.545836 
L 105.60763 352.545836 
L 105.023206 355.180572 
L 104.496552 357.815309 
L 104.024188 360.450046 
L 103.595655 363.084782 
L 103.192964 365.719519 
L 102.796924 368.354256 
L 102.575538 369.820915 
L 102.469218 370.988993 
L 102.23902 373.623729 
L 102.028385 376.258466 
L 101.848524 378.893203 
L 101.708891 381.527939 
L 101.61212 384.162676 
L 101.550564 386.797413 
L 101.506504 389.432149 
L 101.457247 392.066886 
L 101.383047 394.701623 
L 101.273178 397.336359 
L 101.127058 399.971096 
L 100.951295 402.605833 
L 100.755449 405.240569 
L 100.54837 407.875306 
L 100.335596 410.510043 
L 100.118012 413.144779 
L 99.892494 415.779516 
L 99.654688 418.414253 
L 99.543446 419.55696 
L 99.411833 421.048989 
L 99.156134 423.683726 
L 98.876641 426.318463 
L 98.571799 428.953199 
L 98.236213 431.587936 
L 97.85885 434.222673 
L 97.425137 436.857409 
L 96.922809 439.492146 
L 96.511354 441.335708 
L 96.324565 442.126883 
L 95.6067 444.761619 
L 94.883698 447.396356 
L 94.205658 450.031093 
L 93.611305 452.665829 
L 93.479262 453.313684 
L 92.969543 455.300566 
L 92.435381 457.935303 
L 92.058868 460.570039 
L 91.827269 463.204776 
L 91.728468 465.839513 
L 91.753944 468.474249 
L 91.899115 471.108986 
L 92.161924 473.743723 
L 92.540804 476.378459 
L 93.034147 479.013196 
L 93.479262 480.993965 
L 93.599639 481.647933 
L 94.142674 484.282669 
L 94.826898 486.917406 
L 95.743255 489.552143 
L 96.511354 491.219879 
L 97.043383 492.186879 
L 98.993131 494.821616 
L 99.543446 495.410444 
L 102.575538 497.352658 
L 103.320543 497.456353 
z
M 102.199293 494.821616 
L 99.543446 492.678056 
L 99.157933 492.186879 
L 97.491829 489.552143 
L 96.511354 487.391663 
L 96.325176 486.917406 
L 95.44151 484.282669 
L 94.744402 481.647933 
L 94.175232 479.013196 
L 93.712822 476.378459 
L 93.479262 474.711164 
L 93.310334 473.743723 
L 92.970764 471.108986 
L 92.781248 468.474249 
L 92.744384 465.839513 
L 92.865901 463.204776 
L 93.156457 460.570039 
L 93.479262 458.730175 
L 93.586677 457.935303 
L 94.059623 455.300566 
L 94.67312 452.665829 
L 95.420528 450.031093 
L 96.275253 447.396356 
L 96.511354 446.648331 
L 97.101663 444.761619 
L 97.879476 442.126883 
L 98.597128 439.492146 
L 99.235807 436.857409 
L 99.543446 435.366087 
L 99.803712 434.222673 
L 100.30592 431.587936 
L 100.756495 428.953199 
L 101.175389 426.318463 
L 101.569638 423.683726 
L 101.933936 421.048989 
L 102.255954 418.414253 
L 102.525689 415.779516 
L 102.575538 415.180903 
L 102.798526 413.144779 
L 103.05038 410.510043 
L 103.28738 407.875306 
L 103.524441 405.240569 
L 103.766808 402.605833 
L 104.012607 399.971096 
L 104.258113 397.336359 
L 104.501514 394.701623 
L 104.744444 392.066886 
L 104.992382 389.432149 
L 105.254449 386.797413 
L 105.54179 384.162676 
L 105.60763 383.599376 
L 106.09607 381.527939 
L 106.927533 378.893203 
L 108.092667 376.258466 
L 108.639722 375.243398 
L 111.460235 373.623729 
L 111.671814 373.514405 
L 111.75484 373.623729 
L 113.505635 376.258466 
L 114.703906 378.893203 
L 114.703906 378.893203 
L 115.039705 381.527939 
L 115.305247 384.162676 
L 115.521878 386.797413 
L 115.703734 389.432149 
L 115.860514 392.066886 
L 116.001101 394.701623 
L 116.13627 397.336359 
L 116.278984 399.971096 
L 116.441774 402.605833 
L 116.632393 405.240569 
L 116.850501 407.875306 
L 117.087969 410.510043 
L 117.332994 413.144779 
L 117.575619 415.779516 
L 117.735998 417.545329 
L 117.808851 418.414253 
L 118.042815 421.048989 
L 118.301393 423.683726 
L 118.601157 426.318463 
L 118.957123 428.953199 
L 119.374036 431.587936 
L 119.840157 434.222673 
L 120.33086 436.857409 
L 120.76809 439.185634 
L 120.822383 439.492146 
L 121.327349 442.126883 
L 121.834314 444.761619 
L 122.330243 447.396356 
L 122.795116 450.031093 
L 123.20585 452.665829 
L 123.540977 455.300566 
L 123.783831 457.935303 
L 123.800182 458.232605 
L 123.994278 460.570039 
L 124.046483 463.204776 
L 123.924118 465.839513 
L 123.800182 466.963882 
L 123.692417 468.474249 
L 123.398654 471.108986 
L 122.993036 473.743723 
L 122.462787 476.378459 
L 121.778342 479.013196 
L 120.882114 481.647933 
L 120.76809 481.925351 
L 119.946693 484.282669 
L 118.649069 486.917406 
L 117.735998 488.288865 
L 116.813965 489.552143 
L 114.703906 491.748149 
L 114.149157 492.186879 
L 111.671814 493.880413 
L 109.415369 494.821616 
L 108.639722 495.134255 
L 105.60763 495.653514 
L 102.575538 495.078006 
z
" clip-path="url(#pe795cb909d)" style="fill: #badbba; fill-opacity: 0.5"/>
    <path d="M 102.575538 495.078006 
L 105.60763 495.653514 
L 108.639722 495.134255 
L 109.415369 494.821616 
L 111.671814 493.880413 
L 114.149157 492.186879 
L 114.703906 491.748149 
L 116.813965 489.552143 
L 117.735998 488.288865 
L 118.649069 486.917406 
L 119.946693 484.282669 
L 120.76809 481.925351 
L 120.882114 481.647933 
L 121.778342 479.013196 
L 122.462787 476.378459 
L 122.993036 473.743723 
L 123.398654 471.108986 
L 123.692417 468.474249 
L 123.800182 466.963882 
L 123.924118 465.839513 
L 124.046483 463.204776 
L 123.994278 460.570039 
L 123.800182 458.232605 
L 123.783831 457.935303 
L 123.540977 455.300566 
L 123.20585 452.665829 
L 122.795116 450.031093 
L 122.330243 447.396356 
L 121.834314 444.761619 
L 121.327349 442.126883 
L 120.822383 439.492146 
L 120.76809 439.185634 
L 120.33086 436.857409 
L 119.840157 434.222673 
L 119.374036 431.587936 
L 118.957123 428.953199 
L 118.601157 426.318463 
L 118.301393 423.683726 
L 118.042815 421.048989 
L 117.808851 418.414253 
L 117.735998 417.545329 
L 117.575619 415.779516 
L 117.332994 413.144779 
L 117.087969 410.510043 
L 116.850501 407.875306 
L 116.632393 405.240569 
L 116.441774 402.605833 
L 116.278984 399.971096 
L 116.13627 397.336359 
L 116.001101 394.701623 
L 115.860514 392.066886 
L 115.703734 389.432149 
L 115.521878 386.797413 
L 115.305247 384.162676 
L 115.039705 381.527939 
L 114.703906 378.893203 
L 114.703906 378.893203 
L 113.505635 376.258466 
L 111.75484 373.623729 
L 111.671814 373.514405 
L 111.460235 373.623729 
L 108.639722 375.243398 
L 108.092667 376.258466 
L 106.927533 378.893203 
L 106.09607 381.527939 
L 105.60763 383.599376 
L 105.54179 384.162676 
L 105.254449 386.797413 
L 104.992382 389.432149 
L 104.744444 392.066886 
L 104.501514 394.701623 
L 104.258113 397.336359 
L 104.012607 399.971096 
L 103.766808 402.605833 
L 103.524441 405.240569 
L 103.28738 407.875306 
L 103.05038 410.510043 
L 102.798526 413.144779 
L 102.575538 415.180903 
L 102.525689 415.779516 
L 102.255954 418.414253 
L 101.933936 421.048989 
L 101.569638 423.683726 
L 101.175389 426.318463 
L 100.756495 428.953199 
L 100.30592 431.587936 
L 99.803712 434.222673 
L 99.543446 435.366087 
L 99.235807 436.857409 
L 98.597128 439.492146 
L 97.879476 442.126883 
L 97.101663 444.761619 
L 96.511354 446.648331 
L 96.275253 447.396356 
L 95.420528 450.031093 
L 94.67312 452.665829 
L 94.059623 455.300566 
L 93.586677 457.935303 
L 93.479262 458.730175 
L 93.156457 460.570039 
L 92.865901 463.204776 
L 92.744384 465.839513 
L 92.781248 468.474249 
L 92.970764 471.108986 
L 93.310334 473.743723 
L 93.479262 474.711164 
L 93.712822 476.378459 
L 94.175232 479.013196 
L 94.744402 481.647933 
L 95.44151 484.282669 
L 96.325176 486.917406 
L 96.511354 487.391663 
L 97.491829 489.552143 
L 99.157933 492.186879 
L 99.543446 492.678056 
L 102.199293 494.821616 
z
M 101.751188 492.186879 
L 99.543446 489.941214 
L 99.287115 489.552143 
L 97.850566 486.917406 
L 96.78312 484.282669 
L 96.511354 483.503752 
L 95.930943 481.647933 
L 95.233736 479.013196 
L 94.667758 476.378459 
L 94.22875 473.743723 
L 93.920553 471.108986 
L 93.746849 468.474249 
L 93.7098 465.839513 
L 93.81222 463.204776 
L 94.060028 460.570039 
L 94.462921 457.935303 
L 95.032025 455.300566 
L 95.773686 452.665829 
L 96.511354 450.469311 
L 96.662713 450.031093 
L 97.578211 447.396356 
L 98.531416 444.761619 
L 99.464714 442.126883 
L 99.543446 441.867439 
L 100.389244 439.492146 
L 101.187967 436.857409 
L 101.874574 434.222673 
L 102.484071 431.587936 
L 102.575538 431.142214 
L 103.20756 428.953199 
L 103.885159 426.318463 
L 104.504714 423.683726 
L 105.073026 421.048989 
L 105.584466 418.414253 
L 105.60763 418.272343 
L 106.331739 415.779516 
L 106.958196 413.144779 
L 107.476848 410.510043 
L 107.912381 407.875306 
L 108.289943 405.240569 
L 108.639722 402.605833 
L 111.635504 405.240569 
L 111.671814 405.277124 
L 111.931172 407.875306 
L 112.282895 410.510043 
L 112.719545 413.144779 
L 113.213711 415.779516 
L 113.728392 418.414253 
L 114.232723 421.048989 
L 114.703906 423.625727 
L 114.711797 423.683726 
L 115.091969 426.318463 
L 115.51471 428.953199 
L 116.021603 431.587936 
L 116.645393 434.222673 
L 117.38647 436.857409 
L 117.735998 437.944255 
L 118.161062 439.492146 
L 118.89666 442.126883 
L 119.58878 444.761619 
L 120.221615 447.396356 
L 120.76809 449.958548 
L 120.784275 450.031093 
L 121.347916 452.665829 
L 121.810605 455.300566 
L 122.150694 457.935303 
L 122.354307 460.570039 
L 122.41443 463.204776 
L 122.328799 465.839513 
L 122.097355 468.474249 
L 121.719584 471.108986 
L 121.191259 473.743723 
L 120.76809 475.408029 
L 120.568744 476.378459 
L 119.913143 479.013196 
L 119.058444 481.647933 
L 117.898257 484.282669 
L 117.735998 484.581846 
L 116.37078 486.917406 
L 114.703906 489.010139 
L 114.145278 489.552143 
L 111.671814 491.539087 
L 110.403634 492.186879 
L 108.639722 493.010807 
L 105.60763 493.584438 
L 102.575538 492.863081 
z
" clip-path="url(#pe795cb909d)" style="fill: #acd4ac; fill-opacity: 0.5"/>
    <path d="M 102.575538 492.863081 
L 105.60763 493.584438 
L 108.639722 493.010807 
L 110.403634 492.186879 
L 111.671814 491.539087 
L 114.145278 489.552143 
L 114.703906 489.010139 
L 116.37078 486.917406 
L 117.735998 484.581846 
L 117.898257 484.282669 
L 119.058444 481.647933 
L 119.913143 479.013196 
L 120.568744 476.378459 
L 120.76809 475.408029 
L 121.191259 473.743723 
L 121.719584 471.108986 
L 122.097355 468.474249 
L 122.328799 465.839513 
L 122.41443 463.204776 
L 122.354307 460.570039 
L 122.150694 457.935303 
L 121.810605 455.300566 
L 121.347916 452.665829 
L 120.784275 450.031093 
L 120.76809 449.958548 
L 120.221615 447.396356 
L 119.58878 444.761619 
L 118.89666 442.126883 
L 118.161062 439.492146 
L 117.735998 437.944255 
L 117.38647 436.857409 
L 116.645393 434.222673 
L 116.021603 431.587936 
L 115.51471 428.953199 
L 115.091969 426.318463 
L 114.711797 423.683726 
L 114.703906 423.625727 
L 114.232723 421.048989 
L 113.728392 418.414253 
L 113.213711 415.779516 
L 112.719545 413.144779 
L 112.282895 410.510043 
L 111.931172 407.875306 
L 111.671814 405.277124 
L 111.635504 405.240569 
L 108.639722 402.605833 
L 108.289943 405.240569 
L 107.912381 407.875306 
L 107.476848 410.510043 
L 106.958196 413.144779 
L 106.331739 415.779516 
L 105.60763 418.272343 
L 105.584466 418.414253 
L 105.073026 421.048989 
L 104.504714 423.683726 
L 103.885159 426.318463 
L 103.20756 428.953199 
L 102.575538 431.142214 
L 102.484071 431.587936 
L 101.874574 434.222673 
L 101.187967 436.857409 
L 100.389244 439.492146 
L 99.543446 441.867439 
L 99.464714 442.126883 
L 98.531416 444.761619 
L 97.578211 447.396356 
L 96.662713 450.031093 
L 96.511354 450.469311 
L 95.773686 452.665829 
L 95.032025 455.300566 
L 94.462921 457.935303 
L 94.060028 460.570039 
L 93.81222 463.204776 
L 93.7098 465.839513 
L 93.746849 468.474249 
L 93.920553 471.108986 
L 94.22875 473.743723 
L 94.667758 476.378459 
L 95.233736 479.013196 
L 95.930943 481.647933 
L 96.511354 483.503752 
L 96.78312 484.282669 
L 97.850566 486.917406 
L 99.287115 489.552143 
L 99.543446 489.941214 
L 101.751188 492.186879 
z
M 103.664498 489.552143 
L 102.575538 489.150836 
L 100.665398 486.917406 
L 99.543446 485.273269 
L 99.059315 484.282669 
L 97.955068 481.647933 
L 97.051728 479.013196 
L 96.511354 477.146829 
L 96.309841 476.378459 
L 95.730705 473.743723 
L 95.32008 471.108986 
L 95.082656 468.474249 
L 95.022016 465.839513 
L 95.142958 463.204776 
L 95.454329 460.570039 
L 95.969689 457.935303 
L 96.511354 455.940387 
L 96.690981 455.300566 
L 97.56783 452.665829 
L 98.609105 450.031093 
L 99.543446 447.86595 
L 99.808617 447.396356 
L 101.178412 444.761619 
L 102.455555 442.126883 
L 102.575538 441.831171 
L 104.123449 439.492146 
L 105.537672 436.857409 
L 105.60763 436.693691 
L 108.639722 434.222673 
L 111.554548 436.857409 
L 111.671814 436.951332 
L 112.989571 439.492146 
L 114.471593 442.126883 
L 114.703906 442.510007 
L 115.756432 444.761619 
L 116.878307 447.396356 
L 117.735998 449.786649 
L 117.811358 450.031093 
L 118.567528 452.665829 
L 119.169779 455.300566 
L 119.60753 457.935303 
L 119.875772 460.570039 
L 119.974832 463.204776 
L 119.90888 465.839513 
L 119.683745 468.474249 
L 119.304044 471.108986 
L 118.768978 473.743723 
L 118.065617 476.378459 
L 117.735998 477.394748 
L 117.193389 479.013196 
L 116.083585 481.647933 
L 114.703906 484.127587 
L 114.596172 484.282669 
L 112.361121 486.917406 
L 111.671814 487.574722 
L 108.639722 489.491359 
L 108.388659 489.552143 
L 105.60763 490.197016 
z
" clip-path="url(#pe795cb909d)" style="fill: #9acb9a; fill-opacity: 0.5"/>
    <path d="M 105.60763 490.197016 
L 108.388659 489.552143 
L 108.639722 489.491359 
L 111.671814 487.574722 
L 112.361121 486.917406 
L 114.596172 484.282669 
L 114.703906 484.127587 
L 116.083585 481.647933 
L 117.193389 479.013196 
L 117.735998 477.394748 
L 118.065617 476.378459 
L 118.768978 473.743723 
L 119.304044 471.108986 
L 119.683745 468.474249 
L 119.90888 465.839513 
L 119.974832 463.204776 
L 119.875772 460.570039 
L 119.60753 457.935303 
L 119.169779 455.300566 
L 118.567528 452.665829 
L 117.811358 450.031093 
L 117.735998 449.786649 
L 116.878307 447.396356 
L 115.756432 444.761619 
L 114.703906 442.510007 
L 114.471593 442.126883 
L 112.989571 439.492146 
L 111.671814 436.951332 
L 111.554548 436.857409 
L 108.639722 434.222673 
L 105.60763 436.693691 
L 105.537672 436.857409 
L 104.123449 439.492146 
L 102.575538 441.831171 
L 102.455555 442.126883 
L 101.178412 444.761619 
L 99.808617 447.396356 
L 99.543446 447.86595 
L 98.609105 450.031093 
L 97.56783 452.665829 
L 96.690981 455.300566 
L 96.511354 455.940387 
L 95.969689 457.935303 
L 95.454329 460.570039 
L 95.142958 463.204776 
L 95.022016 465.839513 
L 95.082656 468.474249 
L 95.32008 471.108986 
L 95.730705 473.743723 
L 96.309841 476.378459 
L 96.511354 477.146829 
L 97.051728 479.013196 
L 97.955068 481.647933 
L 99.059315 484.282669 
L 99.543446 485.273269 
L 100.665398 486.917406 
L 102.575538 489.150836 
L 103.664498 489.552143 
z
M 101.949665 481.647933 
L 100.400325 479.013196 
L 99.543446 477.337405 
L 99.190164 476.378459 
L 98.372183 473.743723 
L 97.778773 471.108986 
L 97.423144 468.474249 
L 97.313499 465.839513 
L 97.453552 463.204776 
L 97.846738 460.570039 
L 98.49897 457.935303 
L 99.416407 455.300566 
L 99.543446 454.989109 
L 100.831999 452.665829 
L 102.488859 450.031093 
L 102.575538 449.890562 
L 105.3783 447.396356 
L 105.60763 447.167164 
L 108.639722 446.579647 
L 109.761219 447.396356 
L 111.671814 448.861939 
L 112.462633 450.031093 
L 113.954849 452.665829 
L 114.703906 454.445624 
L 115.019954 455.300566 
L 115.764361 457.935303 
L 116.228181 460.570039 
L 116.436658 463.204776 
L 116.405987 465.839513 
L 116.143958 468.474249 
L 115.651458 471.108986 
L 114.922487 473.743723 
L 114.703906 474.368899 
L 113.907264 476.378459 
L 112.526004 479.013196 
L 111.671814 480.328112 
L 110.463109 481.647933 
L 108.639722 483.321265 
L 105.60763 484.282669 
L 102.575538 482.592371 
z
" clip-path="url(#pe795cb909d)" style="fill: #78bb78; fill-opacity: 0.5"/>
    <path d="M 102.575538 482.592371 
L 105.60763 484.282669 
L 108.639722 483.321265 
L 110.463109 481.647933 
L 111.671814 480.328112 
L 112.526004 479.013196 
L 113.907264 476.378459 
L 114.703906 474.368899 
L 114.922487 473.743723 
L 115.651458 471.108986 
L 116.143958 468.474249 
L 116.405987 465.839513 
L 116.436658 463.204776 
L 116.228181 460.570039 
L 115.764361 457.935303 
L 115.019954 455.300566 
L 114.703906 454.445624 
L 113.954849 452.665829 
L 112.462633 450.031093 
L 111.671814 448.861939 
L 109.761219 447.396356 
L 108.639722 446.579647 
L 105.60763 447.167164 
L 105.3783 447.396356 
L 102.575538 449.890562 
L 102.488859 450.031093 
L 100.831999 452.665829 
L 99.543446 454.989109 
L 99.416407 455.300566 
L 98.49897 457.935303 
L 97.846738 460.570039 
L 97.453552 463.204776 
L 97.313499 465.839513 
L 97.423144 468.474249 
L 97.778773 471.108986 
L 98.372183 473.743723 
L 99.190164 476.378459 
L 99.543446 477.337405 
L 100.400325 479.013196 
L 101.949665 481.647933 
z
M 103.92458 476.378459 
L 102.575538 475.282838 
L 101.814125 473.743723 
L 100.798489 471.108986 
L 100.153886 468.474249 
L 99.916314 465.839513 
L 100.102225 463.204776 
L 100.71091 460.570039 
L 101.730644 457.935303 
L 102.575538 456.316987 
L 103.631574 455.300566 
L 105.60763 453.603798 
L 108.639722 453.580169 
L 110.222388 455.300566 
L 111.671814 457.592599 
L 111.81156 457.935303 
L 112.535021 460.570039 
L 112.86839 463.204776 
L 112.852917 465.839513 
L 112.499724 468.474249 
L 111.796189 471.108986 
L 111.671814 471.436567 
L 110.490785 473.743723 
L 108.639722 476.378459 
L 108.639722 476.378459 
L 105.60763 477.587682 
z
" clip-path="url(#pe795cb909d)" style="fill: #4da64d; fill-opacity: 0.5"/>
    <path d="M 105.60763 477.587682 
L 108.639722 476.378459 
L 108.639722 476.378459 
L 110.490785 473.743723 
L 111.671814 471.436567 
L 111.796189 471.108986 
L 112.499724 468.474249 
L 112.852917 465.839513 
L 112.86839 463.204776 
L 112.535021 460.570039 
L 111.81156 457.935303 
L 111.671814 457.592599 
L 110.222388 455.300566 
L 108.639722 453.580169 
L 105.60763 453.603798 
L 103.631574 455.300566 
L 102.575538 456.316987 
L 101.730644 457.935303 
L 100.71091 460.570039 
L 100.102225 463.204776 
L 99.916314 465.839513 
L 100.153886 468.474249 
L 100.798489 471.108986 
L 101.814125 473.743723 
L 102.575538 475.282838 
L 103.92458 476.378459 
z
" clip-path="url(#pe795cb909d)" style="fill: #1b8d1b; fill-opacity: 0.5"/>
   </g>
   <g id="matplotlib.axis_1">
    <g id="xtick_1">
     <g id="line2d_1">
      <defs>
       <path id="m6a7f33fc14" d="M 0 0 
L 0 3.5 
" style="stroke: #000000; stroke-width: 0.8"/>
      </defs>
      <g>
       <use xlink:href="#m6a7f33fc14" x="90.431107" y="499.48" style="stroke: #000000; stroke-width: 0.8"/>
      </g>
     </g>
     <g id="text_1">
      <!-- 0 -->
      <g transform="translate(83.432357 523.196563) scale(0.22 -0.22)">
       <defs>
        <path id="DejaVuSans-30" d="M 2034 4250 
Q 1547 4250 1301 3770 
Q 1056 3291 1056 2328 
Q 1056 1369 1301 889 
Q 1547 409 2034 409 
Q 2525 409 2770 889 
Q 3016 1369 3016 2328 
Q 3016 3291 2770 3770 
Q 2525 4250 2034 4250 
z
M 2034 4750 
Q 2819 4750 3233 4129 
Q 3647 3509 3647 2328 
Q 3647 1150 3233 529 
Q 2819 -91 2034 -91 
Q 1250 -91 836 529 
Q 422 1150 422 2328 
Q 422 3509 836 4129 
Q 1250 4750 2034 4750 
z
" transform="scale(0.015625)"/>
       </defs>
       <use xlink:href="#DejaVuSans-30"/>
      </g>
     </g>
    </g>
    <g id="xtick_2">
     <g id="line2d_2">
      <g>
       <use xlink:href="#m6a7f33fc14" x="166.264325" y="499.48" style="stroke: #000000; stroke-width: 0.8"/>
      </g>
     </g>
     <g id="text_2">
      <!-- 10 -->
      <g transform="translate(152.266825 523.196563) scale(0.22 -0.22)">
       <defs>
        <path id="DejaVuSans-31" d="M 794 531 
L 1825 531 
L 1825 4091 
L 703 3866 
L 703 4441 
L 1819 4666 
L 2450 4666 
L 2450 531 
L 3481 531 
L 3481 0 
L 794 0 
L 794 531 
z
" transform="scale(0.015625)"/>
       </defs>
       <use xlink:href="#DejaVuSans-31"/>
       <use xlink:href="#DejaVuSans-30" x="63.623047"/>
      </g>
     </g>
    </g>
    <g id="xtick_3">
     <g id="line2d_3">
      <g>
       <use xlink:href="#m6a7f33fc14" x="242.097543" y="499.48" style="stroke: #000000; stroke-width: 0.8"/>
      </g>
     </g>
     <g id="text_3">
      <!-- 20 -->
      <g transform="translate(228.100043 523.196563) scale(0.22 -0.22)">
       <defs>
        <path id="DejaVuSans-32" d="M 1228 531 
L 3431 531 
L 3431 0 
L 469 0 
L 469 531 
Q 828 903 1448 1529 
Q 2069 2156 2228 2338 
Q 2531 2678 2651 2914 
Q 2772 3150 2772 3378 
Q 2772 3750 2511 3984 
Q 2250 4219 1831 4219 
Q 1534 4219 1204 4116 
Q 875 4013 500 3803 
L 500 4441 
Q 881 4594 1212 4672 
Q 1544 4750 1819 4750 
Q 2544 4750 2975 4387 
Q 3406 4025 3406 3419 
Q 3406 3131 3298 2873 
Q 3191 2616 2906 2266 
Q 2828 2175 2409 1742 
Q 1991 1309 1228 531 
z
" transform="scale(0.015625)"/>
       </defs>
       <use xlink:href="#DejaVuSans-32"/>
       <use xlink:href="#DejaVuSans-30" x="63.623047"/>
      </g>
     </g>
    </g>
    <g id="xtick_4">
     <g id="line2d_4">
      <g>
       <use xlink:href="#m6a7f33fc14" x="317.93076" y="499.48" style="stroke: #000000; stroke-width: 0.8"/>
      </g>
     </g>
     <g id="text_4">
      <!-- 30 -->
      <g transform="translate(303.93326 523.196563) scale(0.22 -0.22)">
       <defs>
        <path id="DejaVuSans-33" d="M 2597 2516 
Q 3050 2419 3304 2112 
Q 3559 1806 3559 1356 
Q 3559 666 3084 287 
Q 2609 -91 1734 -91 
Q 1441 -91 1130 -33 
Q 819 25 488 141 
L 488 750 
Q 750 597 1062 519 
Q 1375 441 1716 441 
Q 2309 441 2620 675 
Q 2931 909 2931 1356 
Q 2931 1769 2642 2001 
Q 2353 2234 1838 2234 
L 1294 2234 
L 1294 2753 
L 1863 2753 
Q 2328 2753 2575 2939 
Q 2822 3125 2822 3475 
Q 2822 3834 2567 4026 
Q 2313 4219 1838 4219 
Q 1578 4219 1281 4162 
Q 984 4106 628 3988 
L 628 4550 
Q 988 4650 1302 4700 
Q 1616 4750 1894 4750 
Q 2613 4750 3031 4423 
Q 3450 4097 3450 3541 
Q 3450 3153 3228 2886 
Q 3006 2619 2597 2516 
z
" transform="scale(0.015625)"/>
       </defs>
       <use xlink:href="#DejaVuSans-33"/>
       <use xlink:href="#DejaVuSans-30" x="63.623047"/>
      </g>
     </g>
    </g>
    <g id="xtick_5">
     <g id="line2d_5">
      <g>
       <use xlink:href="#m6a7f33fc14" x="393.763978" y="499.48" style="stroke: #000000; stroke-width: 0.8"/>
      </g>
     </g>
     <g id="text_5">
      <!-- 40 -->
      <g transform="translate(379.766478 523.196563) scale(0.22 -0.22)">
       <defs>
        <path id="DejaVuSans-34" d="M 2419 4116 
L 825 1625 
L 2419 1625 
L 2419 4116 
z
M 2253 4666 
L 3047 4666 
L 3047 1625 
L 3713 1625 
L 3713 1100 
L 3047 1100 
L 3047 0 
L 2419 0 
L 2419 1100 
L 313 1100 
L 313 1709 
L 2253 4666 
z
" transform="scale(0.015625)"/>
       </defs>
       <use xlink:href="#DejaVuSans-34"/>
       <use xlink:href="#DejaVuSans-30" x="63.623047"/>
      </g>
     </g>
    </g>
    <g id="xtick_6">
     <g id="line2d_6">
      <g>
       <use xlink:href="#m6a7f33fc14" x="469.597196" y="499.48" style="stroke: #000000; stroke-width: 0.8"/>
      </g>
     </g>
     <g id="text_6">
      <!-- 50 -->
      <g transform="translate(455.599696 523.196563) scale(0.22 -0.22)">
       <defs>
        <path id="DejaVuSans-35" d="M 691 4666 
L 3169 4666 
L 3169 4134 
L 1269 4134 
L 1269 2991 
Q 1406 3038 1543 3061 
Q 1681 3084 1819 3084 
Q 2600 3084 3056 2656 
Q 3513 2228 3513 1497 
Q 3513 744 3044 326 
Q 2575 -91 1722 -91 
Q 1428 -91 1123 -41 
Q 819 9 494 109 
L 494 744 
Q 775 591 1075 516 
Q 1375 441 1709 441 
Q 2250 441 2565 725 
Q 2881 1009 2881 1497 
Q 2881 1984 2565 2268 
Q 2250 2553 1709 2553 
Q 1456 2553 1204 2497 
Q 953 2441 691 2322 
L 691 4666 
z
" transform="scale(0.015625)"/>
       </defs>
       <use xlink:href="#DejaVuSans-35"/>
       <use xlink:href="#DejaVuSans-30" x="63.623047"/>
      </g>
     </g>
    </g>
    <g id="xtick_7">
     <g id="line2d_7">
      <g>
       <use xlink:href="#m6a7f33fc14" x="545.430414" y="499.48" style="stroke: #000000; stroke-width: 0.8"/>
      </g>
     </g>
     <g id="text_7">
      <!-- 60 -->
      <g transform="translate(531.432914 523.196563) scale(0.22 -0.22)">
       <defs>
        <path id="DejaVuSans-36" d="M 2113 2584 
Q 1688 2584 1439 2293 
Q 1191 2003 1191 1497 
Q 1191 994 1439 701 
Q 1688 409 2113 409 
Q 2538 409 2786 701 
Q 3034 994 3034 1497 
Q 3034 2003 2786 2293 
Q 2538 2584 2113 2584 
z
M 3366 4563 
L 3366 3988 
Q 3128 4100 2886 4159 
Q 2644 4219 2406 4219 
Q 1781 4219 1451 3797 
Q 1122 3375 1075 2522 
Q 1259 2794 1537 2939 
Q 1816 3084 2150 3084 
Q 2853 3084 3261 2657 
Q 3669 2231 3669 1497 
Q 3669 778 3244 343 
Q 2819 -91 2113 -91 
Q 1303 -91 875 529 
Q 447 1150 447 2328 
Q 447 3434 972 4092 
Q 1497 4750 2381 4750 
Q 2619 4750 2861 4703 
Q 3103 4656 3366 4563 
z
" transform="scale(0.015625)"/>
       </defs>
       <use xlink:href="#DejaVuSans-36"/>
       <use xlink:href="#DejaVuSans-30" x="63.623047"/>
      </g>
     </g>
    </g>
    <g id="xtick_8">
     <g id="line2d_8">
      <g>
       <use xlink:href="#m6a7f33fc14" x="621.263632" y="499.48" style="stroke: #000000; stroke-width: 0.8"/>
      </g>
     </g>
     <g id="text_8">
      <!-- 70 -->
      <g transform="translate(607.266132 523.196563) scale(0.22 -0.22)">
       <defs>
        <path id="DejaVuSans-37" d="M 525 4666 
L 3525 4666 
L 3525 4397 
L 1831 0 
L 1172 0 
L 2766 4134 
L 525 4134 
L 525 4666 
z
" transform="scale(0.015625)"/>
       </defs>
       <use xlink:href="#DejaVuSans-37"/>
       <use xlink:href="#DejaVuSans-30" x="63.623047"/>
      </g>
     </g>
    </g>
    <g id="text_9">
     <!-- Force Uncertainties -->
     <g transform="translate(283.426094 548.488438) scale(0.22 -0.22)">
      <defs>
       <path id="DejaVuSans-46" d="M 628 4666 
L 3309 4666 
L 3309 4134 
L 1259 4134 
L 1259 2759 
L 3109 2759 
L 3109 2228 
L 1259 2228 
L 1259 0 
L 628 0 
L 628 4666 
z
" transform="scale(0.015625)"/>
       <path id="DejaVuSans-6f" d="M 1959 3097 
Q 1497 3097 1228 2736 
Q 959 2375 959 1747 
Q 959 1119 1226 758 
Q 1494 397 1959 397 
Q 2419 397 2687 759 
Q 2956 1122 2956 1747 
Q 2956 2369 2687 2733 
Q 2419 3097 1959 3097 
z
M 1959 3584 
Q 2709 3584 3137 3096 
Q 3566 2609 3566 1747 
Q 3566 888 3137 398 
Q 2709 -91 1959 -91 
Q 1206 -91 779 398 
Q 353 888 353 1747 
Q 353 2609 779 3096 
Q 1206 3584 1959 3584 
z
" transform="scale(0.015625)"/>
       <path id="DejaVuSans-72" d="M 2631 2963 
Q 2534 3019 2420 3045 
Q 2306 3072 2169 3072 
Q 1681 3072 1420 2755 
Q 1159 2438 1159 1844 
L 1159 0 
L 581 0 
L 581 3500 
L 1159 3500 
L 1159 2956 
Q 1341 3275 1631 3429 
Q 1922 3584 2338 3584 
Q 2397 3584 2469 3576 
Q 2541 3569 2628 3553 
L 2631 2963 
z
" transform="scale(0.015625)"/>
       <path id="DejaVuSans-63" d="M 3122 3366 
L 3122 2828 
Q 2878 2963 2633 3030 
Q 2388 3097 2138 3097 
Q 1578 3097 1268 2742 
Q 959 2388 959 1747 
Q 959 1106 1268 751 
Q 1578 397 2138 397 
Q 2388 397 2633 464 
Q 2878 531 3122 666 
L 3122 134 
Q 2881 22 2623 -34 
Q 2366 -91 2075 -91 
Q 1284 -91 818 406 
Q 353 903 353 1747 
Q 353 2603 823 3093 
Q 1294 3584 2113 3584 
Q 2378 3584 2631 3529 
Q 2884 3475 3122 3366 
z
" transform="scale(0.015625)"/>
       <path id="DejaVuSans-65" d="M 3597 1894 
L 3597 1613 
L 953 1613 
Q 991 1019 1311 708 
Q 1631 397 2203 397 
Q 2534 397 2845 478 
Q 3156 559 3463 722 
L 3463 178 
Q 3153 47 2828 -22 
Q 2503 -91 2169 -91 
Q 1331 -91 842 396 
Q 353 884 353 1716 
Q 353 2575 817 3079 
Q 1281 3584 2069 3584 
Q 2775 3584 3186 3129 
Q 3597 2675 3597 1894 
z
M 3022 2063 
Q 3016 2534 2758 2815 
Q 2500 3097 2075 3097 
Q 1594 3097 1305 2825 
Q 1016 2553 972 2059 
L 3022 2063 
z
" transform="scale(0.015625)"/>
       <path id="DejaVuSans-20" transform="scale(0.015625)"/>
       <path id="DejaVuSans-55" d="M 556 4666 
L 1191 4666 
L 1191 1831 
Q 1191 1081 1462 751 
Q 1734 422 2344 422 
Q 2950 422 3222 751 
Q 3494 1081 3494 1831 
L 3494 4666 
L 4128 4666 
L 4128 1753 
Q 4128 841 3676 375 
Q 3225 -91 2344 -91 
Q 1459 -91 1007 375 
Q 556 841 556 1753 
L 556 4666 
z
" transform="scale(0.015625)"/>
       <path id="DejaVuSans-6e" d="M 3513 2113 
L 3513 0 
L 2938 0 
L 2938 2094 
Q 2938 2591 2744 2837 
Q 2550 3084 2163 3084 
Q 1697 3084 1428 2787 
Q 1159 2491 1159 1978 
L 1159 0 
L 581 0 
L 581 3500 
L 1159 3500 
L 1159 2956 
Q 1366 3272 1645 3428 
Q 1925 3584 2291 3584 
Q 2894 3584 3203 3211 
Q 3513 2838 3513 2113 
z
" transform="scale(0.015625)"/>
       <path id="DejaVuSans-74" d="M 1172 4494 
L 1172 3500 
L 2356 3500 
L 2356 3053 
L 1172 3053 
L 1172 1153 
Q 1172 725 1289 603 
Q 1406 481 1766 481 
L 2356 481 
L 2356 0 
L 1766 0 
Q 1100 0 847 248 
Q 594 497 594 1153 
L 594 3053 
L 172 3053 
L 172 3500 
L 594 3500 
L 594 4494 
L 1172 4494 
z
" transform="scale(0.015625)"/>
       <path id="DejaVuSans-61" d="M 2194 1759 
Q 1497 1759 1228 1600 
Q 959 1441 959 1056 
Q 959 750 1161 570 
Q 1363 391 1709 391 
Q 2188 391 2477 730 
Q 2766 1069 2766 1631 
L 2766 1759 
L 2194 1759 
z
M 3341 1997 
L 3341 0 
L 2766 0 
L 2766 531 
Q 2569 213 2275 61 
Q 1981 -91 1556 -91 
Q 1019 -91 701 211 
Q 384 513 384 1019 
Q 384 1609 779 1909 
Q 1175 2209 1959 2209 
L 2766 2209 
L 2766 2266 
Q 2766 2663 2505 2880 
Q 2244 3097 1772 3097 
Q 1472 3097 1187 3025 
Q 903 2953 641 2809 
L 641 3341 
Q 956 3463 1253 3523 
Q 1550 3584 1831 3584 
Q 2591 3584 2966 3190 
Q 3341 2797 3341 1997 
z
" transform="scale(0.015625)"/>
       <path id="DejaVuSans-69" d="M 603 3500 
L 1178 3500 
L 1178 0 
L 603 0 
L 603 3500 
z
M 603 4863 
L 1178 4863 
L 1178 4134 
L 603 4134 
L 603 4863 
z
" transform="scale(0.015625)"/>
       <path id="DejaVuSans-73" d="M 2834 3397 
L 2834 2853 
Q 2591 2978 2328 3040 
Q 2066 3103 1784 3103 
Q 1356 3103 1142 2972 
Q 928 2841 928 2578 
Q 928 2378 1081 2264 
Q 1234 2150 1697 2047 
L 1894 2003 
Q 2506 1872 2764 1633 
Q 3022 1394 3022 966 
Q 3022 478 2636 193 
Q 2250 -91 1575 -91 
Q 1294 -91 989 -36 
Q 684 19 347 128 
L 347 722 
Q 666 556 975 473 
Q 1284 391 1588 391 
Q 1994 391 2212 530 
Q 2431 669 2431 922 
Q 2431 1156 2273 1281 
Q 2116 1406 1581 1522 
L 1381 1569 
Q 847 1681 609 1914 
Q 372 2147 372 2553 
Q 372 3047 722 3315 
Q 1072 3584 1716 3584 
Q 2034 3584 2315 3537 
Q 2597 3491 2834 3397 
z
" transform="scale(0.015625)"/>
      </defs>
      <use xlink:href="#DejaVuSans-46"/>
      <use xlink:href="#DejaVuSans-6f" x="53.894531"/>
      <use xlink:href="#DejaVuSans-72" x="115.076172"/>
      <use xlink:href="#DejaVuSans-63" x="153.939453"/>
      <use xlink:href="#DejaVuSans-65" x="208.919922"/>
      <use xlink:href="#DejaVuSans-20" x="270.443359"/>
      <use xlink:href="#DejaVuSans-55" x="302.230469"/>
      <use xlink:href="#DejaVuSans-6e" x="375.423828"/>
      <use xlink:href="#DejaVuSans-63" x="438.802734"/>
      <use xlink:href="#DejaVuSans-65" x="493.783203"/>
      <use xlink:href="#DejaVuSans-72" x="555.306641"/>
      <use xlink:href="#DejaVuSans-74" x="596.419922"/>
      <use xlink:href="#DejaVuSans-61" x="635.628906"/>
      <use xlink:href="#DejaVuSans-69" x="696.908203"/>
      <use xlink:href="#DejaVuSans-6e" x="724.691406"/>
      <use xlink:href="#DejaVuSans-74" x="788.070312"/>
      <use xlink:href="#DejaVuSans-69" x="827.279297"/>
      <use xlink:href="#DejaVuSans-65" x="855.0625"/>
      <use xlink:href="#DejaVuSans-73" x="916.585938"/>
     </g>
    </g>
   </g>
   <g id="matplotlib.axis_2">
    <g id="ytick_1">
     <g id="line2d_9">
      <defs>
       <path id="m2409199b3c" d="M 0 0 
L -3.5 0 
" style="stroke: #000000; stroke-width: 0.8"/>
      </defs>
      <g>
       <use xlink:href="#m2409199b3c" x="83.72" y="494.267749" style="stroke: #000000; stroke-width: 0.8"/>
      </g>
     </g>
     <g id="text_10">
      <!-- 0 -->
      <g transform="translate(62.7225 502.626031) scale(0.22 -0.22)">
       <use xlink:href="#DejaVuSans-30"/>
      </g>
     </g>
    </g>
    <g id="ytick_2">
     <g id="line2d_10">
      <g>
       <use xlink:href="#m2409199b3c" x="83.72" y="435.371096" style="stroke: #000000; stroke-width: 0.8"/>
      </g>
     </g>
     <g id="text_11">
      <!-- 10 -->
      <g transform="translate(48.725 443.729377) scale(0.22 -0.22)">
       <use xlink:href="#DejaVuSans-31"/>
       <use xlink:href="#DejaVuSans-30" x="63.623047"/>
      </g>
     </g>
    </g>
    <g id="ytick_3">
     <g id="line2d_11">
      <g>
       <use xlink:href="#m2409199b3c" x="83.72" y="376.474442" style="stroke: #000000; stroke-width: 0.8"/>
      </g>
     </g>
     <g id="text_12">
      <!-- 20 -->
      <g transform="translate(48.725 384.832723) scale(0.22 -0.22)">
       <use xlink:href="#DejaVuSans-32"/>
       <use xlink:href="#DejaVuSans-30" x="63.623047"/>
      </g>
     </g>
    </g>
    <g id="ytick_4">
     <g id="line2d_12">
      <g>
       <use xlink:href="#m2409199b3c" x="83.72" y="317.577788" style="stroke: #000000; stroke-width: 0.8"/>
      </g>
     </g>
     <g id="text_13">
      <!-- 30 -->
      <g transform="translate(48.725 325.936069) scale(0.22 -0.22)">
       <use xlink:href="#DejaVuSans-33"/>
       <use xlink:href="#DejaVuSans-30" x="63.623047"/>
      </g>
     </g>
    </g>
    <g id="ytick_5">
     <g id="line2d_13">
      <g>
       <use xlink:href="#m2409199b3c" x="83.72" y="258.681134" style="stroke: #000000; stroke-width: 0.8"/>
      </g>
     </g>
     <g id="text_14">
      <!-- 40 -->
      <g transform="translate(48.725 267.039415) scale(0.22 -0.22)">
       <use xlink:href="#DejaVuSans-34"/>
       <use xlink:href="#DejaVuSans-30" x="63.623047"/>
      </g>
     </g>
    </g>
    <g id="ytick_6">
     <g id="line2d_14">
      <g>
       <use xlink:href="#m2409199b3c" x="83.72" y="199.78448" style="stroke: #000000; stroke-width: 0.8"/>
      </g>
     </g>
     <g id="text_15">
      <!-- 50 -->
      <g transform="translate(48.725 208.142762) scale(0.22 -0.22)">
       <use xlink:href="#DejaVuSans-35"/>
       <use xlink:href="#DejaVuSans-30" x="63.623047"/>
      </g>
     </g>
    </g>
    <g id="ytick_7">
     <g id="line2d_15">
      <g>
       <use xlink:href="#m2409199b3c" x="83.72" y="140.887826" style="stroke: #000000; stroke-width: 0.8"/>
      </g>
     </g>
     <g id="text_16">
      <!-- 60 -->
      <g transform="translate(48.725 149.246108) scale(0.22 -0.22)">
       <use xlink:href="#DejaVuSans-36"/>
       <use xlink:href="#DejaVuSans-30" x="63.623047"/>
      </g>
     </g>
    </g>
    <g id="ytick_8">
     <g id="line2d_16">
      <g>
       <use xlink:href="#m2409199b3c" x="83.72" y="81.991173" style="stroke: #000000; stroke-width: 0.8"/>
      </g>
     </g>
     <g id="text_17">
      <!-- 70 -->
      <g transform="translate(48.725 90.349454) scale(0.22 -0.22)">
       <use xlink:href="#DejaVuSans-37"/>
       <use xlink:href="#DejaVuSans-30" x="63.623047"/>
      </g>
     </g>
    </g>
    <g id="text_18">
     <!-- Energy Errors[kJ/mol] -->
     <g transform="translate(40.149688 378.572344) rotate(-90) scale(0.22 -0.22)">
      <defs>
       <path id="DejaVuSans-45" d="M 628 4666 
L 3578 4666 
L 3578 4134 
L 1259 4134 
L 1259 2753 
L 3481 2753 
L 3481 2222 
L 1259 2222 
L 1259 531 
L 3634 531 
L 3634 0 
L 628 0 
L 628 4666 
z
" transform="scale(0.015625)"/>
       <path id="DejaVuSans-67" d="M 2906 1791 
Q 2906 2416 2648 2759 
Q 2391 3103 1925 3103 
Q 1463 3103 1205 2759 
Q 947 2416 947 1791 
Q 947 1169 1205 825 
Q 1463 481 1925 481 
Q 2391 481 2648 825 
Q 2906 1169 2906 1791 
z
M 3481 434 
Q 3481 -459 3084 -895 
Q 2688 -1331 1869 -1331 
Q 1566 -1331 1297 -1286 
Q 1028 -1241 775 -1147 
L 775 -588 
Q 1028 -725 1275 -790 
Q 1522 -856 1778 -856 
Q 2344 -856 2625 -561 
Q 2906 -266 2906 331 
L 2906 616 
Q 2728 306 2450 153 
Q 2172 0 1784 0 
Q 1141 0 747 490 
Q 353 981 353 1791 
Q 353 2603 747 3093 
Q 1141 3584 1784 3584 
Q 2172 3584 2450 3431 
Q 2728 3278 2906 2969 
L 2906 3500 
L 3481 3500 
L 3481 434 
z
" transform="scale(0.015625)"/>
       <path id="DejaVuSans-79" d="M 2059 -325 
Q 1816 -950 1584 -1140 
Q 1353 -1331 966 -1331 
L 506 -1331 
L 506 -850 
L 844 -850 
Q 1081 -850 1212 -737 
Q 1344 -625 1503 -206 
L 1606 56 
L 191 3500 
L 800 3500 
L 1894 763 
L 2988 3500 
L 3597 3500 
L 2059 -325 
z
" transform="scale(0.015625)"/>
       <path id="DejaVuSans-5b" d="M 550 4863 
L 1875 4863 
L 1875 4416 
L 1125 4416 
L 1125 -397 
L 1875 -397 
L 1875 -844 
L 550 -844 
L 550 4863 
z
" transform="scale(0.015625)"/>
       <path id="DejaVuSans-6b" d="M 581 4863 
L 1159 4863 
L 1159 1991 
L 2875 3500 
L 3609 3500 
L 1753 1863 
L 3688 0 
L 2938 0 
L 1159 1709 
L 1159 0 
L 581 0 
L 581 4863 
z
" transform="scale(0.015625)"/>
       <path id="DejaVuSans-4a" d="M 628 4666 
L 1259 4666 
L 1259 325 
Q 1259 -519 939 -900 
Q 619 -1281 -91 -1281 
L -331 -1281 
L -331 -750 
L -134 -750 
Q 284 -750 456 -515 
Q 628 -281 628 325 
L 628 4666 
z
" transform="scale(0.015625)"/>
       <path id="DejaVuSans-2f" d="M 1625 4666 
L 2156 4666 
L 531 -594 
L 0 -594 
L 1625 4666 
z
" transform="scale(0.015625)"/>
       <path id="DejaVuSans-6d" d="M 3328 2828 
Q 3544 3216 3844 3400 
Q 4144 3584 4550 3584 
Q 5097 3584 5394 3201 
Q 5691 2819 5691 2113 
L 5691 0 
L 5113 0 
L 5113 2094 
Q 5113 2597 4934 2840 
Q 4756 3084 4391 3084 
Q 3944 3084 3684 2787 
Q 3425 2491 3425 1978 
L 3425 0 
L 2847 0 
L 2847 2094 
Q 2847 2600 2669 2842 
Q 2491 3084 2119 3084 
Q 1678 3084 1418 2786 
Q 1159 2488 1159 1978 
L 1159 0 
L 581 0 
L 581 3500 
L 1159 3500 
L 1159 2956 
Q 1356 3278 1631 3431 
Q 1906 3584 2284 3584 
Q 2666 3584 2933 3390 
Q 3200 3197 3328 2828 
z
" transform="scale(0.015625)"/>
       <path id="DejaVuSans-6c" d="M 603 4863 
L 1178 4863 
L 1178 0 
L 603 0 
L 603 4863 
z
" transform="scale(0.015625)"/>
       <path id="DejaVuSans-5d" d="M 1947 4863 
L 1947 -844 
L 622 -844 
L 622 -397 
L 1369 -397 
L 1369 4416 
L 622 4416 
L 622 4863 
L 1947 4863 
z
" transform="scale(0.015625)"/>
      </defs>
      <use xlink:href="#DejaVuSans-45"/>
      <use xlink:href="#DejaVuSans-6e" x="63.183594"/>
      <use xlink:href="#DejaVuSans-65" x="126.5625"/>
      <use xlink:href="#DejaVuSans-72" x="188.085938"/>
      <use xlink:href="#DejaVuSans-67" x="227.449219"/>
      <use xlink:href="#DejaVuSans-79" x="290.925781"/>
      <use xlink:href="#DejaVuSans-20" x="350.105469"/>
      <use xlink:href="#DejaVuSans-45" x="381.892578"/>
      <use xlink:href="#DejaVuSans-72" x="445.076172"/>
      <use xlink:href="#DejaVuSans-72" x="484.439453"/>
      <use xlink:href="#DejaVuSans-6f" x="523.302734"/>
      <use xlink:href="#DejaVuSans-72" x="584.484375"/>
      <use xlink:href="#DejaVuSans-73" x="625.597656"/>
      <use xlink:href="#DejaVuSans-5b" x="677.697266"/>
      <use xlink:href="#DejaVuSans-6b" x="716.710938"/>
      <use xlink:href="#DejaVuSans-4a" x="774.621094"/>
      <use xlink:href="#DejaVuSans-2f" x="804.113281"/>
      <use xlink:href="#DejaVuSans-6d" x="837.804688"/>
      <use xlink:href="#DejaVuSans-6f" x="935.216797"/>
      <use xlink:href="#DejaVuSans-6c" x="996.398438"/>
      <use xlink:href="#DejaVuSans-5d" x="1024.181641"/>
     </g>
    </g>
   </g>
   <g id="line2d_17">
    <path d="M 83.72 499.48 
L 696.24 23.76 
" clip-path="url(#pe795cb909d)" style="fill: none; stroke-dasharray: 5.55,2.4; stroke-dashoffset: 0; stroke: #ff0000; stroke-width: 1.5"/>
   </g>
   <g id="patch_3">
    <path d="M 83.72 499.48 
L 83.72 23.76 
" style="fill: none; stroke: #000000; stroke-width: 0.8; stroke-linejoin: miter; stroke-linecap: square"/>
   </g>
   <g id="patch_4">
    <path d="M 696.24 499.48 
L 696.24 23.76 
" style="fill: none; stroke: #000000; stroke-width: 0.8; stroke-linejoin: miter; stroke-linecap: square"/>
   </g>
   <g id="patch_5">
    <path d="M 83.72 499.48 
L 696.24 499.48 
" style="fill: none; stroke: #000000; stroke-width: 0.8; stroke-linejoin: miter; stroke-linecap: square"/>
   </g>
   <g id="patch_6">
    <path d="M 83.72 23.76 
L 696.24 23.76 
" style="fill: none; stroke: #000000; stroke-width: 0.8; stroke-linejoin: miter; stroke-linecap: square"/>
   </g>
   <g id="text_19">
    <!-- Correlation in: 0.678 -->
    <g transform="translate(132.7216 46.696812) scale(0.22 -0.22)">
     <defs>
      <path id="DejaVuSans-43" d="M 4122 4306 
L 4122 3641 
Q 3803 3938 3442 4084 
Q 3081 4231 2675 4231 
Q 1875 4231 1450 3742 
Q 1025 3253 1025 2328 
Q 1025 1406 1450 917 
Q 1875 428 2675 428 
Q 3081 428 3442 575 
Q 3803 722 4122 1019 
L 4122 359 
Q 3791 134 3420 21 
Q 3050 -91 2638 -91 
Q 1578 -91 968 557 
Q 359 1206 359 2328 
Q 359 3453 968 4101 
Q 1578 4750 2638 4750 
Q 3056 4750 3426 4639 
Q 3797 4528 4122 4306 
z
" transform="scale(0.015625)"/>
      <path id="DejaVuSans-3a" d="M 750 794 
L 1409 794 
L 1409 0 
L 750 0 
L 750 794 
z
M 750 3309 
L 1409 3309 
L 1409 2516 
L 750 2516 
L 750 3309 
z
" transform="scale(0.015625)"/>
      <path id="DejaVuSans-2e" d="M 684 794 
L 1344 794 
L 1344 0 
L 684 0 
L 684 794 
z
" transform="scale(0.015625)"/>
      <path id="DejaVuSans-38" d="M 2034 2216 
Q 1584 2216 1326 1975 
Q 1069 1734 1069 1313 
Q 1069 891 1326 650 
Q 1584 409 2034 409 
Q 2484 409 2743 651 
Q 3003 894 3003 1313 
Q 3003 1734 2745 1975 
Q 2488 2216 2034 2216 
z
M 1403 2484 
Q 997 2584 770 2862 
Q 544 3141 544 3541 
Q 544 4100 942 4425 
Q 1341 4750 2034 4750 
Q 2731 4750 3128 4425 
Q 3525 4100 3525 3541 
Q 3525 3141 3298 2862 
Q 3072 2584 2669 2484 
Q 3125 2378 3379 2068 
Q 3634 1759 3634 1313 
Q 3634 634 3220 271 
Q 2806 -91 2034 -91 
Q 1263 -91 848 271 
Q 434 634 434 1313 
Q 434 1759 690 2068 
Q 947 2378 1403 2484 
z
M 1172 3481 
Q 1172 3119 1398 2916 
Q 1625 2713 2034 2713 
Q 2441 2713 2670 2916 
Q 2900 3119 2900 3481 
Q 2900 3844 2670 4047 
Q 2441 4250 2034 4250 
Q 1625 4250 1398 4047 
Q 1172 3844 1172 3481 
z
" transform="scale(0.015625)"/>
     </defs>
     <use xlink:href="#DejaVuSans-43"/>
     <use xlink:href="#DejaVuSans-6f" x="69.824219"/>
     <use xlink:href="#DejaVuSans-72" x="131.005859"/>
     <use xlink:href="#DejaVuSans-72" x="170.369141"/>
     <use xlink:href="#DejaVuSans-65" x="209.232422"/>
     <use xlink:href="#DejaVuSans-6c" x="270.755859"/>
     <use xlink:href="#DejaVuSans-61" x="298.539062"/>
     <use xlink:href="#DejaVuSans-74" x="359.818359"/>
     <use xlink:href="#DejaVuSans-69" x="399.027344"/>
     <use xlink:href="#DejaVuSans-6f" x="426.810547"/>
     <use xlink:href="#DejaVuSans-6e" x="487.992188"/>
     <use xlink:href="#DejaVuSans-20" x="551.371094"/>
     <use xlink:href="#DejaVuSans-69" x="583.158203"/>
     <use xlink:href="#DejaVuSans-6e" x="610.941406"/>
     <use xlink:href="#DejaVuSans-3a" x="674.320312"/>
     <use xlink:href="#DejaVuSans-20" x="708.011719"/>
     <use xlink:href="#DejaVuSans-30" x="739.798828"/>
     <use xlink:href="#DejaVuSans-2e" x="803.421875"/>
     <use xlink:href="#DejaVuSans-36" x="835.208984"/>
     <use xlink:href="#DejaVuSans-37" x="898.832031"/>
     <use xlink:href="#DejaVuSans-38" x="962.455078"/>
    </g>
    <!-- Correlation Out: 0.218 -->
    <g transform="translate(132.7216 71.332) scale(0.22 -0.22)">
     <defs>
      <path id="DejaVuSans-4f" d="M 2522 4238 
Q 1834 4238 1429 3725 
Q 1025 3213 1025 2328 
Q 1025 1447 1429 934 
Q 1834 422 2522 422 
Q 3209 422 3611 934 
Q 4013 1447 4013 2328 
Q 4013 3213 3611 3725 
Q 3209 4238 2522 4238 
z
M 2522 4750 
Q 3503 4750 4090 4092 
Q 4678 3434 4678 2328 
Q 4678 1225 4090 567 
Q 3503 -91 2522 -91 
Q 1538 -91 948 565 
Q 359 1222 359 2328 
Q 359 3434 948 4092 
Q 1538 4750 2522 4750 
z
" transform="scale(0.015625)"/>
      <path id="DejaVuSans-75" d="M 544 1381 
L 544 3500 
L 1119 3500 
L 1119 1403 
Q 1119 906 1312 657 
Q 1506 409 1894 409 
Q 2359 409 2629 706 
Q 2900 1003 2900 1516 
L 2900 3500 
L 3475 3500 
L 3475 0 
L 2900 0 
L 2900 538 
Q 2691 219 2414 64 
Q 2138 -91 1772 -91 
Q 1169 -91 856 284 
Q 544 659 544 1381 
z
M 1991 3584 
L 1991 3584 
z
" transform="scale(0.015625)"/>
     </defs>
     <use xlink:href="#DejaVuSans-43"/>
     <use xlink:href="#DejaVuSans-6f" x="69.824219"/>
     <use xlink:href="#DejaVuSans-72" x="131.005859"/>
     <use xlink:href="#DejaVuSans-72" x="170.369141"/>
     <use xlink:href="#DejaVuSans-65" x="209.232422"/>
     <use xlink:href="#DejaVuSans-6c" x="270.755859"/>
     <use xlink:href="#DejaVuSans-61" x="298.539062"/>
     <use xlink:href="#DejaVuSans-74" x="359.818359"/>
     <use xlink:href="#DejaVuSans-69" x="399.027344"/>
     <use xlink:href="#DejaVuSans-6f" x="426.810547"/>
     <use xlink:href="#DejaVuSans-6e" x="487.992188"/>
     <use xlink:href="#DejaVuSans-20" x="551.371094"/>
     <use xlink:href="#DejaVuSans-4f" x="583.158203"/>
     <use xlink:href="#DejaVuSans-75" x="661.869141"/>
     <use xlink:href="#DejaVuSans-74" x="725.248047"/>
     <use xlink:href="#DejaVuSans-3a" x="764.457031"/>
     <use xlink:href="#DejaVuSans-20" x="798.148438"/>
     <use xlink:href="#DejaVuSans-30" x="829.935547"/>
     <use xlink:href="#DejaVuSans-2e" x="893.558594"/>
     <use xlink:href="#DejaVuSans-32" x="925.345703"/>
     <use xlink:href="#DejaVuSans-31" x="988.96875"/>
     <use xlink:href="#DejaVuSans-38" x="1052.591797"/>
    </g>
   </g>
   <g id="legend_1">
    <g id="patch_7">
     <path d="M 407.0225 105.94375 
L 680.84 105.94375 
Q 685.24 105.94375 685.24 101.54375 
L 685.24 39.16 
Q 685.24 34.76 680.84 34.76 
L 407.0225 34.76 
Q 402.6225 34.76 402.6225 39.16 
L 402.6225 101.54375 
Q 402.6225 105.94375 407.0225 105.94375 
z
" style="fill: #ffffff; opacity: 0.8; stroke: #cccccc; stroke-linejoin: miter"/>
    </g>
    <g id="line2d_18">
     <defs>
      <path id="m621e4b2581" d="M 0 2.5 
C 0.663008 2.5 1.29895 2.236584 1.767767 1.767767 
C 2.236584 1.29895 2.5 0.663008 2.5 0 
C 2.5 -0.663008 2.236584 -1.29895 1.767767 -1.767767 
C 1.29895 -2.236584 0.663008 -2.5 0 -2.5 
C -0.663008 -2.5 -1.29895 -2.236584 -1.767767 -1.767767 
C -2.236584 -1.29895 -2.5 -0.663008 -2.5 0 
C -2.5 0.663008 -2.236584 1.29895 -1.767767 1.767767 
C -1.29895 2.236584 -0.663008 2.5 0 2.5 
z
" style="stroke: #ffffff"/>
     </defs>
     <g>
      <use xlink:href="#m621e4b2581" x="433.4225" y="52.576562" style="fill: #0000ff; stroke: #ffffff"/>
     </g>
    </g>
    <g id="text_20">
     <!-- In Distribution -->
     <g transform="translate(473.0225 60.276562) scale(0.22 -0.22)">
      <defs>
       <path id="DejaVuSans-49" d="M 628 4666 
L 1259 4666 
L 1259 0 
L 628 0 
L 628 4666 
z
" transform="scale(0.015625)"/>
       <path id="DejaVuSans-44" d="M 1259 4147 
L 1259 519 
L 2022 519 
Q 2988 519 3436 956 
Q 3884 1394 3884 2338 
Q 3884 3275 3436 3711 
Q 2988 4147 2022 4147 
L 1259 4147 
z
M 628 4666 
L 1925 4666 
Q 3281 4666 3915 4102 
Q 4550 3538 4550 2338 
Q 4550 1131 3912 565 
Q 3275 0 1925 0 
L 628 0 
L 628 4666 
z
" transform="scale(0.015625)"/>
       <path id="DejaVuSans-62" d="M 3116 1747 
Q 3116 2381 2855 2742 
Q 2594 3103 2138 3103 
Q 1681 3103 1420 2742 
Q 1159 2381 1159 1747 
Q 1159 1113 1420 752 
Q 1681 391 2138 391 
Q 2594 391 2855 752 
Q 3116 1113 3116 1747 
z
M 1159 2969 
Q 1341 3281 1617 3432 
Q 1894 3584 2278 3584 
Q 2916 3584 3314 3078 
Q 3713 2572 3713 1747 
Q 3713 922 3314 415 
Q 2916 -91 2278 -91 
Q 1894 -91 1617 61 
Q 1341 213 1159 525 
L 1159 0 
L 581 0 
L 581 4863 
L 1159 4863 
L 1159 2969 
z
" transform="scale(0.015625)"/>
      </defs>
      <use xlink:href="#DejaVuSans-49"/>
      <use xlink:href="#DejaVuSans-6e" x="29.492188"/>
      <use xlink:href="#DejaVuSans-20" x="92.871094"/>
      <use xlink:href="#DejaVuSans-44" x="124.658203"/>
      <use xlink:href="#DejaVuSans-69" x="201.660156"/>
      <use xlink:href="#DejaVuSans-73" x="229.443359"/>
      <use xlink:href="#DejaVuSans-74" x="281.542969"/>
      <use xlink:href="#DejaVuSans-72" x="320.751953"/>
      <use xlink:href="#DejaVuSans-69" x="361.865234"/>
      <use xlink:href="#DejaVuSans-62" x="389.648438"/>
      <use xlink:href="#DejaVuSans-75" x="453.125"/>
      <use xlink:href="#DejaVuSans-74" x="516.503906"/>
      <use xlink:href="#DejaVuSans-69" x="555.712891"/>
      <use xlink:href="#DejaVuSans-6f" x="583.496094"/>
      <use xlink:href="#DejaVuSans-6e" x="644.677734"/>
     </g>
    </g>
    <g id="line2d_19">
     <defs>
      <path id="m5b1b5260b8" d="M 0 2.5 
C 0.663008 2.5 1.29895 2.236584 1.767767 1.767767 
C 2.236584 1.29895 2.5 0.663008 2.5 0 
C 2.5 -0.663008 2.236584 -1.29895 1.767767 -1.767767 
C 1.29895 -2.236584 0.663008 -2.5 0 -2.5 
C -0.663008 -2.5 -1.29895 -2.236584 -1.767767 -1.767767 
C -2.236584 -1.29895 -2.5 -0.663008 -2.5 0 
C -2.5 0.663008 -2.236584 1.29895 -1.767767 1.767767 
C -1.29895 2.236584 -0.663008 2.5 0 2.5 
z
" style="stroke: #ffffff"/>
     </defs>
     <g>
      <use xlink:href="#m5b1b5260b8" x="433.4225" y="84.868437" style="fill: #008000; stroke: #ffffff"/>
     </g>
    </g>
    <g id="text_21">
     <!-- Out of Distribution -->
     <g transform="translate(473.0225 92.568437) scale(0.22 -0.22)">
      <defs>
       <path id="DejaVuSans-66" d="M 2375 4863 
L 2375 4384 
L 1825 4384 
Q 1516 4384 1395 4259 
Q 1275 4134 1275 3809 
L 1275 3500 
L 2222 3500 
L 2222 3053 
L 1275 3053 
L 1275 0 
L 697 0 
L 697 3053 
L 147 3053 
L 147 3500 
L 697 3500 
L 697 3744 
Q 697 4328 969 4595 
Q 1241 4863 1831 4863 
L 2375 4863 
z
" transform="scale(0.015625)"/>
      </defs>
      <use xlink:href="#DejaVuSans-4f"/>
      <use xlink:href="#DejaVuSans-75" x="78.710938"/>
      <use xlink:href="#DejaVuSans-74" x="142.089844"/>
      <use xlink:href="#DejaVuSans-20" x="181.298828"/>
      <use xlink:href="#DejaVuSans-6f" x="213.085938"/>
      <use xlink:href="#DejaVuSans-66" x="274.267578"/>
      <use xlink:href="#DejaVuSans-20" x="309.472656"/>
      <use xlink:href="#DejaVuSans-44" x="341.259766"/>
      <use xlink:href="#DejaVuSans-69" x="418.261719"/>
      <use xlink:href="#DejaVuSans-73" x="446.044922"/>
      <use xlink:href="#DejaVuSans-74" x="498.144531"/>
      <use xlink:href="#DejaVuSans-72" x="537.353516"/>
      <use xlink:href="#DejaVuSans-69" x="578.466797"/>
      <use xlink:href="#DejaVuSans-62" x="606.25"/>
      <use xlink:href="#DejaVuSans-75" x="669.726562"/>
      <use xlink:href="#DejaVuSans-74" x="733.105469"/>
      <use xlink:href="#DejaVuSans-69" x="772.314453"/>
      <use xlink:href="#DejaVuSans-6f" x="800.097656"/>
      <use xlink:href="#DejaVuSans-6e" x="861.279297"/>
     </g>
    </g>
   </g>
  </g>
 </g>
 <defs>
  <clipPath id="pe795cb909d">
   <rect x="83.72" y="23.76" width="612.52" height="475.72"/>
  </clipPath>
 </defs>
</svg>
