<?xml version="1.0" encoding="utf-8" standalone="no"?>
<!DOCTYPE svg PUBLIC "-//W3C//DTD SVG 1.1//EN"
  "http://www.w3.org/Graphics/SVG/1.1/DTD/svg11.dtd">
<svg xmlns:xlink="http://www.w3.org/1999/xlink" width="720pt" height="576pt" viewBox="0 0 720 576" xmlns="http://www.w3.org/2000/svg" version="1.1">
 <metadata>
  <rdf:RDF xmlns:dc="http://purl.org/dc/elements/1.1/" xmlns:cc="http://creativecommons.org/ns#" xmlns:rdf="http://www.w3.org/1999/02/22-rdf-syntax-ns#">
   <cc:Work>
    <dc:type rdf:resource="http://purl.org/dc/dcmitype/StillImage"/>
    <dc:date>2024-12-07T16:00:44.244895</dc:date>
    <dc:format>image/svg+xml</dc:format>
    <dc:creator>
     <cc:Agent>
      <dc:title>Matplotlib v3.8.4, https://matplotlib.org/</dc:title>
     </cc:Agent>
    </dc:creator>
   </cc:Work>
  </rdf:RDF>
 </metadata>
 <defs>
  <style type="text/css">*{stroke-linejoin: round; stroke-linecap: butt}</style>
 </defs>
 <g id="figure_1">
  <g id="patch_1">
   <path d="M 0 576 
L 720 576 
L 720 0 
L 0 0 
z
" style="fill: #ffffff"/>
  </g>
  <g id="axes_1">
   <g id="patch_2">
    <path d="M 102.17 499.48 
L 682.2 499.48 
L 682.2 32.04 
L 102.17 32.04 
z
" style="fill: #ffffff"/>
   </g>
   <g id="QuadContourSet_1">
    <path d="M 225.425309 399.274663 
L 229.343547 396.630672 
L 235.001303 393.97914 
L 241.676561 389.455669 
L 244.577298 388.061903 
L 253.054857 382.280666 
L 254.153292 381.740093 
L 263.729286 375.286101 
L 263.970328 375.105664 
L 273.30528 369.917361 
L 275.959764 367.930661 
L 282.881274 363.971953 
L 287.179438 360.755658 
L 292.457268 357.658921 
L 297.90822 353.580655 
L 302.033262 351.103133 
L 308.312663 346.405653 
L 311.609256 344.3812 
L 318.495026 339.23065 
L 321.18525 337.541506 
L 328.520071 332.055647 
L 330.761244 330.615645 
L 338.430318 324.880644 
L 340.337238 323.624998 
L 348.254776 317.705641 
L 349.913232 316.584532 
L 358.013894 310.530639 
L 359.489226 309.504951 
L 367.722312 303.355636 
L 369.06522 302.393909 
L 377.39035 296.180633 
L 378.641214 295.256641 
L 387.024776 289.00563 
L 388.217208 288.096227 
L 396.62909 281.830628 
L 397.793203 280.913562 
L 406.20345 274.655625 
L 407.369197 273.707024 
L 415.744178 267.480622 
L 416.945191 266.471766 
L 425.242719 260.305619 
L 426.521185 259.19843 
L 434.68383 253.130616 
L 436.097179 251.870991 
L 444.042711 245.955614 
L 445.673173 244.463316 
L 453.280918 238.780611 
L 455.249167 236.933878 
L 462.340995 231.605608 
L 464.825161 229.217943 
L 471.139736 224.430605 
L 474.401155 221.216112 
L 479.559109 217.255603 
L 483.977149 212.777158 
L 487.4318 210.0806 
L 493.553143 203.671723 
L 494.515698 202.905597 
L 502.817986 195.730594 
L 503.129137 195.425568 
L 511.852195 188.555591 
L 512.705131 187.717121 
L 520.75634 181.380589 
L 522.281125 179.88749 
L 529.518008 174.205586 
L 531.857119 171.939493 
L 538.135926 167.030583 
L 541.433113 163.886102 
L 546.617399 159.85558 
L 551.009107 155.738643 
L 554.967096 152.680578 
L 560.585102 147.491104 
L 563.170466 145.505575 
L 570.161096 139.108602 
L 571.179551 138.330572 
L 571.565615 131.155569 
L 570.161096 130.991508 
L 569.917396 131.155569 
L 560.585102 136.110075 
L 557.43872 138.330572 
L 551.009107 141.854317 
L 546.00356 145.505575 
L 541.433113 148.069103 
L 535.228144 152.680578 
L 531.857119 154.606471 
L 524.847373 159.85558 
L 522.281125 161.346186 
L 514.696079 167.030583 
L 512.705131 168.205846 
L 504.680796 174.205586 
L 503.129137 175.136345 
L 494.752839 181.380589 
L 493.553143 182.111714 
L 484.888714 188.555591 
L 483.977149 189.119892 
L 475.077938 195.730594 
L 474.401155 196.156246 
L 465.316005 202.905597 
L 464.825161 203.219497 
L 455.600435 210.0806 
L 455.249167 210.309373 
L 445.928704 217.255603 
L 445.673173 217.425443 
L 436.297397 224.430605 
L 436.097179 224.566733 
L 426.702215 231.605608 
L 426.521185 231.731795 
L 417.13846 238.780611 
L 416.945191 238.918984 
L 407.601674 245.955614 
L 407.369197 246.1268 
L 398.088246 253.130616 
L 397.793203 253.354221 
L 388.595865 260.305619 
L 388.217208 260.601006 
L 379.12386 267.480622 
L 378.641214 267.867989 
L 369.673482 274.655625 
L 369.06522 275.157423 
L 360.248254 281.830628 
L 359.489226 282.473452 
L 350.854501 289.00563 
L 349.913232 289.822829 
L 341.502226 296.180633 
L 340.337238 297.216069 
L 332.206556 303.355636 
L 330.761244 304.669274 
L 322.990084 310.530639 
L 321.18525 312.207082 
L 313.886669 317.705641 
L 311.609256 319.867401 
L 304.947667 324.880644 
L 302.033262 327.709232 
L 296.252282 332.055647 
L 292.457268 335.825811 
L 287.925097 339.23065 
L 282.881274 344.367284 
L 280.166344 346.405653 
L 273.30528 353.580655 
L 273.30528 353.580655 
L 264.14074 360.755658 
L 263.729286 361.183048 
L 255.10613 367.930661 
L 254.153292 368.940043 
L 246.265522 375.105664 
L 244.577298 376.927592 
L 237.717681 382.280666 
L 235.001303 385.269003 
L 229.624615 389.455669 
L 225.425309 394.176788 
L 222.265875 396.630672 
z
M 261.665658 367.930661 
L 263.729286 366.315874 
L 266.219973 367.930661 
L 263.729286 369.657031 
z
M 269.08219 360.755658 
L 273.30528 357.449362 
L 277.112146 353.580655 
L 282.881274 349.063357 
L 285.561494 346.405653 
L 292.457268 341.00657 
L 294.297317 339.23065 
L 302.033262 333.174363 
L 303.226469 332.055647 
L 311.609256 325.493002 
L 312.282498 324.880644 
L 321.18525 317.909995 
L 321.417035 317.705641 
L 329.945538 310.530639 
L 330.761244 309.915396 
L 337.978526 303.355636 
L 340.337238 301.574546 
L 346.40603 296.180633 
L 349.913232 293.529571 
L 355.124009 289.00563 
L 359.489226 285.703339 
L 364.062009 281.830628 
L 369.06522 278.043899 
L 373.172364 274.655625 
L 378.641214 270.516277 
L 382.423535 267.480622 
L 388.217208 263.097391 
L 391.795987 260.305619 
L 397.793203 255.772891 
L 401.279649 253.130616 
L 407.369197 248.535174 
L 410.872342 245.955614 
L 416.945191 241.382133 
L 420.57881 238.780611 
L 426.521185 234.316374 
L 430.41011 231.605608 
L 436.097179 227.344754 
L 440.383325 224.430605 
L 445.673173 220.478267 
L 450.521786 217.255603 
L 455.249167 213.732443 
L 460.856368 210.0806 
L 464.825161 207.128718 
L 471.428828 202.905597 
L 474.401155 200.697457 
L 482.298431 195.730594 
L 483.977149 194.483573 
L 493.553143 188.555591 
L 496.55347 195.730594 
L 493.553143 198.092202 
L 488.60404 202.905597 
L 483.977149 206.54317 
L 480.299291 210.0806 
L 474.401155 214.711611 
L 471.722242 217.255603 
L 464.825161 222.664646 
L 462.940136 224.430605 
L 455.249167 230.455414 
L 454.00357 231.605608 
L 445.673173 238.121836 
L 444.948287 238.780611 
L 436.097179 245.688829 
L 435.798197 245.955614 
L 426.752031 253.130616 
L 426.521185 253.302219 
L 418.434399 260.305619 
L 416.945191 261.412295 
L 409.721028 267.480622 
L 407.369197 269.229097 
L 400.700477 274.655625 
L 397.793203 276.818883 
L 391.431356 281.830628 
L 388.217208 284.224689 
L 381.948316 289.00563 
L 378.641214 291.471495 
L 372.266167 296.180633 
L 369.06522 298.569589 
L 362.382214 303.355636 
L 359.489226 305.516417 
L 352.27685 310.530639 
L 349.913232 312.297049 
L 341.912305 317.705641 
L 340.337238 318.883202 
L 331.229062 324.880644 
L 330.761244 325.230482 
L 321.18525 331.883517 
L 320.903368 332.055647 
L 311.609256 338.727753 
L 310.756044 339.23065 
L 302.033262 345.456511 
L 300.36593 346.405653 
L 292.457268 352.015313 
L 289.613603 353.580655 
L 282.881274 358.322841 
L 278.319681 360.755658 
L 273.30528 364.260477 
z
M 493.553143 188.555591 
L 503.129137 185.947664 
L 504.054486 188.555591 
L 503.129137 189.284364 
z
" clip-path="url(#pba08a5c18e)" style="fill: #edf4fc"/>
    <path d="M 263.729286 369.657031 
L 266.219973 367.930661 
L 263.729286 366.315874 
L 261.665658 367.930661 
z
M 273.30528 364.260477 
L 278.319681 360.755658 
L 282.881274 358.322841 
L 289.613603 353.580655 
L 292.457268 352.015313 
L 300.36593 346.405653 
L 302.033262 345.456511 
L 310.756044 339.23065 
L 311.609256 338.727753 
L 320.903368 332.055647 
L 321.18525 331.883517 
L 330.761244 325.230482 
L 331.229062 324.880644 
L 340.337238 318.883202 
L 341.912305 317.705641 
L 349.913232 312.297049 
L 352.27685 310.530639 
L 359.489226 305.516417 
L 362.382214 303.355636 
L 369.06522 298.569589 
L 372.266167 296.180633 
L 378.641214 291.471495 
L 381.948316 289.00563 
L 388.217208 284.224689 
L 391.431356 281.830628 
L 397.793203 276.818883 
L 400.700477 274.655625 
L 407.369197 269.229097 
L 409.721028 267.480622 
L 416.945191 261.412295 
L 418.434399 260.305619 
L 426.521185 253.302219 
L 426.752031 253.130616 
L 435.798197 245.955614 
L 436.097179 245.688829 
L 444.948287 238.780611 
L 445.673173 238.121836 
L 454.00357 231.605608 
L 455.249167 230.455414 
L 462.940136 224.430605 
L 464.825161 222.664646 
L 471.722242 217.255603 
L 474.401155 214.711611 
L 480.299291 210.0806 
L 483.977149 206.54317 
L 488.60404 202.905597 
L 493.553143 198.092202 
L 496.55347 195.730594 
L 493.553143 188.555591 
L 483.977149 194.483573 
L 482.298431 195.730594 
L 474.401155 200.697457 
L 471.428828 202.905597 
L 464.825161 207.128718 
L 460.856368 210.0806 
L 455.249167 213.732443 
L 450.521786 217.255603 
L 445.673173 220.478267 
L 440.383325 224.430605 
L 436.097179 227.344754 
L 430.41011 231.605608 
L 426.521185 234.316374 
L 420.57881 238.780611 
L 416.945191 241.382133 
L 410.872342 245.955614 
L 407.369197 248.535174 
L 401.279649 253.130616 
L 397.793203 255.772891 
L 391.795987 260.305619 
L 388.217208 263.097391 
L 382.423535 267.480622 
L 378.641214 270.516277 
L 373.172364 274.655625 
L 369.06522 278.043899 
L 364.062009 281.830628 
L 359.489226 285.703339 
L 355.124009 289.00563 
L 349.913232 293.529571 
L 346.40603 296.180633 
L 340.337238 301.574546 
L 337.978526 303.355636 
L 330.761244 309.915396 
L 329.945538 310.530639 
L 321.417035 317.705641 
L 321.18525 317.909995 
L 312.282498 324.880644 
L 311.609256 325.493002 
L 303.226469 332.055647 
L 302.033262 333.174363 
L 294.297317 339.23065 
L 292.457268 341.00657 
L 285.561494 346.405653 
L 282.881274 349.063357 
L 277.112146 353.580655 
L 273.30528 357.449362 
L 269.08219 360.755658 
z
M 272.137857 360.755658 
L 273.30528 359.841672 
L 274.691451 360.755658 
L 273.30528 361.724523 
z
M 279.466216 353.580655 
L 282.881274 350.906623 
L 286.866502 353.580655 
L 282.881274 356.387811 
z
M 287.420376 346.405653 
L 292.457268 342.461991 
L 295.805294 339.23065 
L 302.033262 334.354922 
L 304.485638 332.055647 
L 311.609256 326.478769 
L 313.366277 324.880644 
L 321.18525 318.758569 
L 322.379514 317.705641 
L 330.761244 311.141455 
L 331.476405 310.530639 
L 340.337238 303.590086 
L 340.620767 303.355636 
L 349.438418 296.180633 
L 349.913232 295.821725 
L 357.764164 289.00563 
L 359.489226 287.700619 
L 366.420338 281.830628 
L 369.06522 279.828823 
L 375.335985 274.655625 
L 378.641214 272.153912 
L 384.463971 267.480622 
L 388.217208 264.641093 
L 393.774862 260.305619 
L 397.793203 257.268535 
L 403.253131 253.130616 
L 407.369197 250.024451 
L 412.89484 245.955614 
L 416.945191 242.905283 
L 422.706235 238.780611 
L 426.521185 235.914612 
L 432.702978 231.605608 
L 436.097179 229.062612 
L 442.90996 224.430605 
L 445.673173 222.366056 
L 453.362032 217.255603 
L 455.249167 215.849184 
L 464.106503 210.0806 
L 464.825161 209.546082 
L 474.401155 203.91736 
L 477.736677 210.0806 
L 474.401155 212.699536 
L 469.603455 217.255603 
L 464.825161 221.002986 
L 461.166441 224.430605 
L 455.249167 229.06597 
L 452.498877 231.605608 
L 445.673173 236.944831 
L 443.653164 238.780611 
L 436.097179 244.677996 
L 434.665371 245.955614 
L 426.521185 252.290879 
L 425.559801 253.130616 
L 416.945191 259.80078 
L 416.3528 260.305619 
L 407.369197 267.220582 
L 407.055473 267.480622 
L 397.793203 274.560855 
L 397.675347 274.655625 
L 388.217208 281.830628 
L 388.217208 281.830628 
L 378.809161 289.00563 
L 378.641214 289.130856 
L 369.097502 296.180633 
L 369.06522 296.204725 
L 359.489226 303.281419 
L 359.38365 303.355636 
L 349.913232 310.321486 
L 349.605154 310.530639 
L 340.337238 317.302059 
L 339.721531 317.705641 
L 330.761244 324.212004 
L 329.704459 324.880644 
L 321.18525 331.03102 
L 319.50731 332.055647 
L 311.609256 337.725543 
L 309.055702 339.23065 
L 302.033262 344.242896 
L 298.234005 346.405653 
L 292.457268 350.503127 
z
M 477.368711 202.905597 
L 483.977149 199.801484 
L 485.468925 202.905597 
L 483.977149 204.078402 
z
M 503.129137 189.284364 
L 504.054486 188.555591 
L 503.129137 185.947664 
L 493.553143 188.555591 
z
" clip-path="url(#pba08a5c18e)" style="fill: #dbe9f6"/>
    <path d="M 273.30528 361.724523 
L 274.691451 360.755658 
L 273.30528 359.841672 
L 272.137857 360.755658 
z
M 282.881274 356.387811 
L 286.866502 353.580655 
L 282.881274 350.906623 
L 279.466216 353.580655 
z
M 282.530296 353.580655 
L 282.881274 353.305835 
L 283.290851 353.580655 
L 282.881274 353.869157 
z
M 292.457268 350.503127 
L 298.234005 346.405653 
L 302.033262 344.242896 
L 309.055702 339.23065 
L 311.609256 337.725543 
L 319.50731 332.055647 
L 321.18525 331.03102 
L 329.704459 324.880644 
L 330.761244 324.212004 
L 339.721531 317.705641 
L 340.337238 317.302059 
L 349.605154 310.530639 
L 349.913232 310.321486 
L 359.38365 303.355636 
L 359.489226 303.281419 
L 369.06522 296.204725 
L 369.097502 296.180633 
L 378.641214 289.130856 
L 378.809161 289.00563 
L 388.217208 281.830628 
L 388.217208 281.830628 
L 397.675347 274.655625 
L 397.793203 274.560855 
L 407.055473 267.480622 
L 407.369197 267.220582 
L 416.3528 260.305619 
L 416.945191 259.80078 
L 425.559801 253.130616 
L 426.521185 252.290879 
L 434.665371 245.955614 
L 436.097179 244.677996 
L 443.653164 238.780611 
L 445.673173 236.944831 
L 452.498877 231.605608 
L 455.249167 229.06597 
L 461.166441 224.430605 
L 464.825161 221.002986 
L 469.603455 217.255603 
L 474.401155 212.699536 
L 477.736677 210.0806 
L 474.401155 203.91736 
L 464.825161 209.546082 
L 464.106503 210.0806 
L 455.249167 215.849184 
L 453.362032 217.255603 
L 445.673173 222.366056 
L 442.90996 224.430605 
L 436.097179 229.062612 
L 432.702978 231.605608 
L 426.521185 235.914612 
L 422.706235 238.780611 
L 416.945191 242.905283 
L 412.89484 245.955614 
L 407.369197 250.024451 
L 403.253131 253.130616 
L 397.793203 257.268535 
L 393.774862 260.305619 
L 388.217208 264.641093 
L 384.463971 267.480622 
L 378.641214 272.153912 
L 375.335985 274.655625 
L 369.06522 279.828823 
L 366.420338 281.830628 
L 359.489226 287.700619 
L 357.764164 289.00563 
L 349.913232 295.821725 
L 349.438418 296.180633 
L 340.620767 303.355636 
L 340.337238 303.590086 
L 331.476405 310.530639 
L 330.761244 311.141455 
L 322.379514 317.705641 
L 321.18525 318.758569 
L 313.366277 324.880644 
L 311.609256 326.478769 
L 304.485638 332.055647 
L 302.033262 334.354922 
L 295.805294 339.23065 
L 292.457268 342.461991 
L 287.420376 346.405653 
z
M 289.839914 346.405653 
L 292.457268 344.356381 
L 295.459073 346.405653 
L 292.457268 348.534851 
z
M 297.768091 339.23065 
L 302.033262 335.891549 
L 306.124584 332.055647 
L 311.609256 327.761854 
L 314.776934 324.880644 
L 321.18525 319.863081 
L 323.632286 317.705641 
L 330.761244 312.122568 
L 332.62512 310.530639 
L 340.337238 304.489857 
L 341.708894 303.355636 
L 349.913232 296.930298 
L 350.850456 296.180633 
L 359.489226 289.420804 
L 360.026497 289.00563 
L 369.06522 281.9472 
L 369.221652 281.830628 
L 378.152173 274.655625 
L 378.641214 274.285472 
L 387.119821 267.480622 
L 388.217208 266.650389 
L 396.350583 260.305619 
L 397.793203 259.215279 
L 405.821835 253.130616 
L 407.369197 251.962908 
L 415.527342 245.955614 
L 416.945191 244.887828 
L 425.475312 238.780611 
L 426.521185 237.994894 
L 435.687396 231.605608 
L 436.097179 231.298592 
L 445.673173 224.864058 
L 446.561278 224.430605 
L 455.249167 218.966791 
L 458.857784 224.430605 
L 455.249167 227.257457 
L 450.540356 231.605608 
L 445.673173 235.41283 
L 441.967421 238.780611 
L 436.097179 243.362287 
L 433.190875 245.955614 
L 426.521185 251.143886 
L 424.246651 253.130616 
L 416.945191 258.784028 
L 415.159717 260.305619 
L 407.369197 266.302229 
L 405.947531 267.480622 
L 397.793203 273.713926 
L 396.622112 274.655625 
L 388.217208 281.031637 
L 387.191052 281.830628 
L 378.641214 288.265103 
L 377.657787 289.00563 
L 369.06522 295.420917 
L 368.021235 296.180633 
L 359.489226 302.501847 
L 358.274686 303.355636 
L 349.913232 309.505801 
L 348.403665 310.530639 
L 340.337238 316.424215 
L 338.382285 317.705641 
L 330.761244 323.239533 
L 328.16747 324.880644 
L 321.18525 329.921403 
L 317.690187 332.055647 
L 311.609256 336.421058 
L 306.84252 339.23065 
L 302.033262 342.663244 
z
M 459.084812 217.255603 
L 464.825161 213.891911 
L 466.845623 217.255603 
L 464.825161 218.840153 
z
M 483.977149 204.078402 
L 485.468925 202.905597 
L 483.977149 199.801484 
L 477.368711 202.905597 
z
" clip-path="url(#pba08a5c18e)" style="fill: #ccdff1"/>
    <path d="M 282.881274 353.869157 
L 283.290851 353.580655 
L 282.881274 353.305835 
L 282.530296 353.580655 
z
M 292.457268 348.534851 
L 295.459073 346.405653 
L 292.457268 344.356381 
L 289.839914 346.405653 
z
M 291.612533 346.405653 
L 292.457268 345.744262 
L 293.426082 346.405653 
L 292.457268 347.092838 
z
M 302.033262 342.663244 
L 306.84252 339.23065 
L 311.609256 336.421058 
L 317.690187 332.055647 
L 321.18525 329.921403 
L 328.16747 324.880644 
L 330.761244 323.239533 
L 338.382285 317.705641 
L 340.337238 316.424215 
L 348.403665 310.530639 
L 349.913232 309.505801 
L 358.274686 303.355636 
L 359.489226 302.501847 
L 368.021235 296.180633 
L 369.06522 295.420917 
L 377.657787 289.00563 
L 378.641214 288.265103 
L 387.191052 281.830628 
L 388.217208 281.031637 
L 396.622112 274.655625 
L 397.793203 273.713926 
L 405.947531 267.480622 
L 407.369197 266.302229 
L 415.159717 260.305619 
L 416.945191 258.784028 
L 424.246651 253.130616 
L 426.521185 251.143886 
L 433.190875 245.955614 
L 436.097179 243.362287 
L 441.967421 238.780611 
L 445.673173 235.41283 
L 450.540356 231.605608 
L 455.249167 227.257457 
L 458.857784 224.430605 
L 455.249167 218.966791 
L 446.561278 224.430605 
L 445.673173 224.864058 
L 436.097179 231.298592 
L 435.687396 231.605608 
L 426.521185 237.994894 
L 425.475312 238.780611 
L 416.945191 244.887828 
L 415.527342 245.955614 
L 407.369197 251.962908 
L 405.821835 253.130616 
L 397.793203 259.215279 
L 396.350583 260.305619 
L 388.217208 266.650389 
L 387.119821 267.480622 
L 378.641214 274.285472 
L 378.152173 274.655625 
L 369.221652 281.830628 
L 369.06522 281.9472 
L 360.026497 289.00563 
L 359.489226 289.420804 
L 350.850456 296.180633 
L 349.913232 296.930298 
L 341.708894 303.355636 
L 340.337238 304.489857 
L 332.62512 310.530639 
L 330.761244 312.122568 
L 323.632286 317.705641 
L 321.18525 319.863081 
L 314.776934 324.880644 
L 311.609256 327.761854 
L 306.124584 332.055647 
L 302.033262 335.891549 
L 297.768091 339.23065 
z
M 299.206089 339.23065 
L 302.033262 337.017324 
L 305.221083 339.23065 
L 302.033262 341.505948 
z
M 307.325321 332.055647 
L 311.609256 328.701876 
L 315.810419 324.880644 
L 321.18525 320.672276 
L 324.550101 317.705641 
L 330.761244 312.841359 
L 333.4667 310.530639 
L 340.337238 305.149053 
L 342.506084 303.355636 
L 349.913232 297.554629 
L 351.630988 296.180633 
L 359.489226 290.03157 
L 360.81688 289.00563 
L 369.06522 282.564418 
L 370.049918 281.830628 
L 378.641214 275.14723 
L 379.326896 274.655625 
L 388.217208 267.78351 
L 388.657543 267.480622 
L 397.793203 260.487683 
L 398.069981 260.305619 
L 407.369197 253.288267 
L 407.620745 253.130616 
L 416.945191 246.232851 
L 417.411482 245.955614 
L 426.521185 239.394895 
L 427.615952 238.780611 
L 436.097179 232.882573 
L 438.52529 231.605608 
L 445.673173 226.851495 
L 449.10549 231.605608 
L 445.673173 234.290445 
L 440.732399 238.780611 
L 436.097179 242.398363 
L 432.110619 245.955614 
L 426.521185 250.303568 
L 423.284602 253.130616 
L 416.945191 258.039128 
L 414.285632 260.305619 
L 407.369197 265.629418 
L 405.135823 267.480622 
L 397.793203 273.093443 
L 395.850483 274.655625 
L 388.217208 280.446274 
L 386.439261 281.830628 
L 378.641214 287.699318 
L 376.906418 289.00563 
L 369.06522 294.859938 
L 367.250349 296.180633 
L 359.489226 301.930711 
L 357.462229 303.355636 
L 349.913232 308.908208 
L 347.523422 310.530639 
L 340.337238 315.781082 
L 337.401117 317.705641 
L 330.761244 322.527075 
L 327.04143 324.880644 
L 321.18525 329.108467 
L 316.358914 332.055647 
L 311.609256 335.465357 
z
M 450.633355 224.430605 
L 455.249167 221.527721 
L 457.166399 224.430605 
L 455.249167 225.932491 
z
M 464.825161 218.840153 
L 466.845623 217.255603 
L 464.825161 213.891911 
L 459.084812 217.255603 
z
" clip-path="url(#pba08a5c18e)" style="fill: #b8d5ea"/>
    <path d="M 292.457268 347.092838 
L 293.426082 346.405653 
L 292.457268 345.744262 
L 291.612533 346.405653 
z
M 302.033262 341.505948 
L 305.221083 339.23065 
L 302.033262 337.017324 
L 299.206089 339.23065 
z
M 311.609256 335.465357 
L 316.358914 332.055647 
L 321.18525 329.108467 
L 327.04143 324.880644 
L 330.761244 322.527075 
L 337.401117 317.705641 
L 340.337238 315.781082 
L 347.523422 310.530639 
L 349.913232 308.908208 
L 357.462229 303.355636 
L 359.489226 301.930711 
L 367.250349 296.180633 
L 369.06522 294.859938 
L 376.906418 289.00563 
L 378.641214 287.699318 
L 386.439261 281.830628 
L 388.217208 280.446274 
L 395.850483 274.655625 
L 397.793203 273.093443 
L 405.135823 267.480622 
L 407.369197 265.629418 
L 414.285632 260.305619 
L 416.945191 258.039128 
L 423.284602 253.130616 
L 426.521185 250.303568 
L 432.110619 245.955614 
L 436.097179 242.398363 
L 440.732399 238.780611 
L 445.673173 234.290445 
L 449.10549 231.605608 
L 445.673173 226.851495 
L 438.52529 231.605608 
L 436.097179 232.882573 
L 427.615952 238.780611 
L 426.521185 239.394895 
L 417.411482 245.955614 
L 416.945191 246.232851 
L 407.620745 253.130616 
L 407.369197 253.288267 
L 398.069981 260.305619 
L 397.793203 260.487683 
L 388.657543 267.480622 
L 388.217208 267.78351 
L 379.326896 274.655625 
L 378.641214 275.14723 
L 370.049918 281.830628 
L 369.06522 282.564418 
L 360.81688 289.00563 
L 359.489226 290.03157 
L 351.630988 296.180633 
L 349.913232 297.554629 
L 342.506084 303.355636 
L 340.337238 305.149053 
L 333.4667 310.530639 
L 330.761244 312.841359 
L 324.550101 317.705641 
L 321.18525 320.672276 
L 315.810419 324.880644 
L 311.609256 328.701876 
L 307.325321 332.055647 
z
M 319.689245 324.880644 
L 321.18525 323.709306 
L 322.815232 324.880644 
L 321.18525 326.057397 
z
M 327.994797 317.705641 
L 330.761244 315.539087 
L 333.718647 317.705641 
L 330.761244 319.85311 
z
M 336.625276 310.530639 
L 340.337238 307.623116 
L 344.219735 310.530639 
L 340.337238 313.367308 
z
M 345.498061 303.355636 
L 349.913232 299.897836 
L 354.412955 303.355636 
L 349.913232 306.665352 
z
M 354.560441 296.180633 
L 359.489226 292.323864 
L 363.783306 289.00563 
L 369.06522 284.88093 
L 373.158523 281.830628 
L 378.641214 277.565497 
L 382.69985 274.655625 
L 388.217208 270.390767 
L 392.44794 267.480622 
L 397.793203 263.389063 
L 402.08936 267.480622 
L 397.793203 270.764676 
L 392.954445 274.655625 
L 388.217208 278.249322 
L 383.617679 281.830628 
L 378.641214 285.575838 
L 374.086416 289.00563 
L 369.06522 292.7545 
L 364.357099 296.180633 
L 359.489226 299.787154 
z
M 402.480741 260.305619 
L 407.369197 256.616704 
L 411.005061 260.305619 
L 407.369197 263.104259 
z
M 412.931634 253.130616 
L 416.945191 250.161585 
L 419.673887 253.130616 
L 416.945191 255.243405 
z
M 424.019314 245.955614 
L 426.521185 244.153791 
L 428.056255 245.955614 
L 426.521185 247.149727 
z
M 455.249167 225.932491 
L 457.166399 224.430605 
L 455.249167 221.527721 
L 450.633355 224.430605 
z
" clip-path="url(#pba08a5c18e)" style="fill: #7fb9da"/>
    <path d="M 321.18525 326.057397 
L 322.815232 324.880644 
L 321.18525 323.709306 
L 319.689245 324.880644 
z
M 330.761244 319.85311 
L 333.718647 317.705641 
L 330.761244 315.539087 
L 327.994797 317.705641 
z
M 340.337238 313.367308 
L 344.219735 310.530639 
L 340.337238 307.623116 
L 336.625276 310.530639 
z
M 339.161938 310.530639 
L 340.337238 309.610044 
L 341.566534 310.530639 
L 340.337238 311.428799 
z
M 349.913232 306.665352 
L 354.412955 303.355636 
L 349.913232 299.897836 
L 345.498061 303.355636 
z
M 347.900927 303.355636 
L 349.913232 301.779672 
L 351.964073 303.355636 
L 349.913232 304.864107 
z
M 359.489226 299.787154 
L 364.357099 296.180633 
L 369.06522 292.7545 
L 374.086416 289.00563 
L 378.641214 285.575838 
L 383.617679 281.830628 
L 388.217208 278.249322 
L 392.954445 274.655625 
L 397.793203 270.764676 
L 402.08936 267.480622 
L 397.793203 263.389063 
L 392.44794 267.480622 
L 388.217208 270.390767 
L 382.69985 274.655625 
L 378.641214 277.565497 
L 373.158523 281.830628 
L 369.06522 284.88093 
L 363.783306 289.00563 
L 359.489226 292.323864 
L 354.560441 296.180633 
z
M 356.913094 296.180633 
L 359.489226 294.164813 
L 362.033521 296.180633 
L 359.489226 298.065656 
z
M 366.165653 289.00563 
L 369.06522 286.741328 
L 371.821664 289.00563 
L 369.06522 291.063616 
z
M 375.655054 281.830628 
L 378.641214 279.507614 
L 381.351658 281.830628 
L 378.641214 283.870465 
z
M 385.40868 274.655625 
L 388.217208 272.484663 
L 390.628628 274.655625 
L 388.217208 276.484942 
z
M 395.49202 267.480622 
L 397.793203 265.719169 
L 399.642737 267.480622 
L 397.793203 268.894436 
z
M 407.369197 263.104259 
L 411.005061 260.305619 
L 407.369197 256.616704 
L 402.480741 260.305619 
z
M 406.023036 260.305619 
L 407.369197 259.289783 
L 408.370424 260.305619 
L 407.369197 261.076296 
z
M 416.945191 255.243405 
L 419.673887 253.130616 
L 416.945191 250.161585 
L 412.931634 253.130616 
z
M 426.521185 247.149727 
L 428.056255 245.955614 
L 426.521185 244.153791 
L 424.019314 245.955614 
z
" clip-path="url(#pba08a5c18e)" style="fill: #3787c0"/>
    <path d="M 340.337238 311.428799 
L 341.566534 310.530639 
L 340.337238 309.610044 
L 339.161938 310.530639 
z
M 349.913232 304.864107 
L 351.964073 303.355636 
L 349.913232 301.779672 
L 347.900927 303.355636 
z
M 349.717383 303.355636 
L 349.913232 303.202254 
L 350.112832 303.355636 
L 349.913232 303.502449 
z
M 359.489226 298.065656 
L 362.033521 296.180633 
L 359.489226 294.164813 
L 356.913094 296.180633 
z
M 358.691591 296.180633 
L 359.489226 295.556484 
L 360.277004 296.180633 
L 359.489226 296.764284 
z
M 369.06522 291.063616 
L 371.821664 289.00563 
L 369.06522 286.741328 
L 366.165653 289.00563 
z
M 367.966596 289.00563 
L 369.06522 288.147703 
L 370.109616 289.00563 
L 369.06522 289.785386 
z
M 378.641214 283.870465 
L 381.351658 281.830628 
L 378.641214 279.507614 
L 375.655054 281.830628 
z
M 377.542315 281.830628 
L 378.641214 280.975764 
L 379.63865 281.830628 
L 378.641214 282.581283 
z
M 388.217208 276.484942 
L 390.628628 274.655625 
L 388.217208 272.484663 
L 385.40868 274.655625 
z
M 387.456429 274.655625 
L 388.217208 274.067551 
L 388.870418 274.655625 
L 388.217208 275.151153 
z
M 397.793203 268.894436 
L 399.642737 267.480622 
L 397.793203 265.719169 
L 395.49202 267.480622 
z
M 407.369197 261.076296 
L 408.370424 260.305619 
L 407.369197 259.289783 
L 406.023036 260.305619 
z
" clip-path="url(#pba08a5c18e)" style="fill: #0f5aa3"/>
    <path d="M 349.913232 303.502449 
L 350.112832 303.355636 
L 349.913232 303.202254 
L 349.717383 303.355636 
z
M 359.489226 296.764284 
L 360.277004 296.180633 
L 359.489226 295.556484 
L 358.691591 296.180633 
z
M 369.06522 289.785386 
L 370.109616 289.00563 
L 369.06522 288.147703 
L 367.966596 289.00563 
z
M 368.774298 289.00563 
L 369.06522 288.778446 
L 369.341782 289.00563 
L 369.06522 289.212114 
z
M 378.641214 282.581283 
L 379.63865 281.830628 
L 378.641214 280.975764 
L 377.542315 281.830628 
z
M 378.38873 281.830628 
L 378.641214 281.634213 
L 378.870387 281.830628 
L 378.641214 282.003099 
z
M 388.217208 275.151153 
L 388.870418 274.655625 
L 388.217208 274.067551 
L 387.456429 274.655625 
z
" clip-path="url(#pba08a5c18e)" style="fill: #083e81"/>
    <path d="M 369.06522 289.212114 
L 369.341782 289.00563 
L 369.06522 288.778446 
L 368.774298 289.00563 
z
M 378.641214 282.003099 
L 378.870387 281.830628 
L 378.641214 281.634213 
L 378.38873 281.830628 
z
" clip-path="url(#pba08a5c18e)" style="fill: #083370"/>
   </g>
   <g id="matplotlib.axis_1">
    <g id="xtick_1">
     <g id="line2d_1">
      <defs>
       <path id="m8164f2706d" d="M 0 0 
L 0 3.5 
" style="stroke: #000000; stroke-width: 0.8"/>
      </defs>
      <g>
       <use xlink:href="#m8164f2706d" x="102.17" y="499.48" style="stroke: #000000; stroke-width: 0.8"/>
      </g>
     </g>
     <g id="text_1">
      <!-- −80 -->
      <g transform="translate(78.954844 523.196563) scale(0.22 -0.22)">
       <defs>
        <path id="DejaVuSans-2212" d="M 678 2272 
L 4684 2272 
L 4684 1741 
L 678 1741 
L 678 2272 
z
" transform="scale(0.015625)"/>
        <path id="DejaVuSans-38" d="M 2034 2216 
Q 1584 2216 1326 1975 
Q 1069 1734 1069 1313 
Q 1069 891 1326 650 
Q 1584 409 2034 409 
Q 2484 409 2743 651 
Q 3003 894 3003 1313 
Q 3003 1734 2745 1975 
Q 2488 2216 2034 2216 
z
M 1403 2484 
Q 997 2584 770 2862 
Q 544 3141 544 3541 
Q 544 4100 942 4425 
Q 1341 4750 2034 4750 
Q 2731 4750 3128 4425 
Q 3525 4100 3525 3541 
Q 3525 3141 3298 2862 
Q 3072 2584 2669 2484 
Q 3125 2378 3379 2068 
Q 3634 1759 3634 1313 
Q 3634 634 3220 271 
Q 2806 -91 2034 -91 
Q 1263 -91 848 271 
Q 434 634 434 1313 
Q 434 1759 690 2068 
Q 947 2378 1403 2484 
z
M 1172 3481 
Q 1172 3119 1398 2916 
Q 1625 2713 2034 2713 
Q 2441 2713 2670 2916 
Q 2900 3119 2900 3481 
Q 2900 3844 2670 4047 
Q 2441 4250 2034 4250 
Q 1625 4250 1398 4047 
Q 1172 3844 1172 3481 
z
" transform="scale(0.015625)"/>
        <path id="DejaVuSans-30" d="M 2034 4250 
Q 1547 4250 1301 3770 
Q 1056 3291 1056 2328 
Q 1056 1369 1301 889 
Q 1547 409 2034 409 
Q 2525 409 2770 889 
Q 3016 1369 3016 2328 
Q 3016 3291 2770 3770 
Q 2525 4250 2034 4250 
z
M 2034 4750 
Q 2819 4750 3233 4129 
Q 3647 3509 3647 2328 
Q 3647 1150 3233 529 
Q 2819 -91 2034 -91 
Q 1250 -91 836 529 
Q 422 1150 422 2328 
Q 422 3509 836 4129 
Q 1250 4750 2034 4750 
z
" transform="scale(0.015625)"/>
       </defs>
       <use xlink:href="#DejaVuSans-2212"/>
       <use xlink:href="#DejaVuSans-38" x="83.789062"/>
       <use xlink:href="#DejaVuSans-30" x="147.412109"/>
      </g>
     </g>
    </g>
    <g id="xtick_2">
     <g id="line2d_2">
      <g>
       <use xlink:href="#m8164f2706d" x="174.67375" y="499.48" style="stroke: #000000; stroke-width: 0.8"/>
      </g>
     </g>
     <g id="text_2">
      <!-- −60 -->
      <g transform="translate(151.458594 523.196563) scale(0.22 -0.22)">
       <defs>
        <path id="DejaVuSans-36" d="M 2113 2584 
Q 1688 2584 1439 2293 
Q 1191 2003 1191 1497 
Q 1191 994 1439 701 
Q 1688 409 2113 409 
Q 2538 409 2786 701 
Q 3034 994 3034 1497 
Q 3034 2003 2786 2293 
Q 2538 2584 2113 2584 
z
M 3366 4563 
L 3366 3988 
Q 3128 4100 2886 4159 
Q 2644 4219 2406 4219 
Q 1781 4219 1451 3797 
Q 1122 3375 1075 2522 
Q 1259 2794 1537 2939 
Q 1816 3084 2150 3084 
Q 2853 3084 3261 2657 
Q 3669 2231 3669 1497 
Q 3669 778 3244 343 
Q 2819 -91 2113 -91 
Q 1303 -91 875 529 
Q 447 1150 447 2328 
Q 447 3434 972 4092 
Q 1497 4750 2381 4750 
Q 2619 4750 2861 4703 
Q 3103 4656 3366 4563 
z
" transform="scale(0.015625)"/>
       </defs>
       <use xlink:href="#DejaVuSans-2212"/>
       <use xlink:href="#DejaVuSans-36" x="83.789062"/>
       <use xlink:href="#DejaVuSans-30" x="147.412109"/>
      </g>
     </g>
    </g>
    <g id="xtick_3">
     <g id="line2d_3">
      <g>
       <use xlink:href="#m8164f2706d" x="247.1775" y="499.48" style="stroke: #000000; stroke-width: 0.8"/>
      </g>
     </g>
     <g id="text_3">
      <!-- −40 -->
      <g transform="translate(223.962344 523.196563) scale(0.22 -0.22)">
       <defs>
        <path id="DejaVuSans-34" d="M 2419 4116 
L 825 1625 
L 2419 1625 
L 2419 4116 
z
M 2253 4666 
L 3047 4666 
L 3047 1625 
L 3713 1625 
L 3713 1100 
L 3047 1100 
L 3047 0 
L 2419 0 
L 2419 1100 
L 313 1100 
L 313 1709 
L 2253 4666 
z
" transform="scale(0.015625)"/>
       </defs>
       <use xlink:href="#DejaVuSans-2212"/>
       <use xlink:href="#DejaVuSans-34" x="83.789062"/>
       <use xlink:href="#DejaVuSans-30" x="147.412109"/>
      </g>
     </g>
    </g>
    <g id="xtick_4">
     <g id="line2d_4">
      <g>
       <use xlink:href="#m8164f2706d" x="319.68125" y="499.48" style="stroke: #000000; stroke-width: 0.8"/>
      </g>
     </g>
     <g id="text_4">
      <!-- −20 -->
      <g transform="translate(296.466094 523.196563) scale(0.22 -0.22)">
       <defs>
        <path id="DejaVuSans-32" d="M 1228 531 
L 3431 531 
L 3431 0 
L 469 0 
L 469 531 
Q 828 903 1448 1529 
Q 2069 2156 2228 2338 
Q 2531 2678 2651 2914 
Q 2772 3150 2772 3378 
Q 2772 3750 2511 3984 
Q 2250 4219 1831 4219 
Q 1534 4219 1204 4116 
Q 875 4013 500 3803 
L 500 4441 
Q 881 4594 1212 4672 
Q 1544 4750 1819 4750 
Q 2544 4750 2975 4387 
Q 3406 4025 3406 3419 
Q 3406 3131 3298 2873 
Q 3191 2616 2906 2266 
Q 2828 2175 2409 1742 
Q 1991 1309 1228 531 
z
" transform="scale(0.015625)"/>
       </defs>
       <use xlink:href="#DejaVuSans-2212"/>
       <use xlink:href="#DejaVuSans-32" x="83.789062"/>
       <use xlink:href="#DejaVuSans-30" x="147.412109"/>
      </g>
     </g>
    </g>
    <g id="xtick_5">
     <g id="line2d_5">
      <g>
       <use xlink:href="#m8164f2706d" x="392.185" y="499.48" style="stroke: #000000; stroke-width: 0.8"/>
      </g>
     </g>
     <g id="text_5">
      <!-- 0 -->
      <g transform="translate(385.18625 523.196563) scale(0.22 -0.22)">
       <use xlink:href="#DejaVuSans-30"/>
      </g>
     </g>
    </g>
    <g id="xtick_6">
     <g id="line2d_6">
      <g>
       <use xlink:href="#m8164f2706d" x="464.68875" y="499.48" style="stroke: #000000; stroke-width: 0.8"/>
      </g>
     </g>
     <g id="text_6">
      <!-- 20 -->
      <g transform="translate(450.69125 523.196563) scale(0.22 -0.22)">
       <use xlink:href="#DejaVuSans-32"/>
       <use xlink:href="#DejaVuSans-30" x="63.623047"/>
      </g>
     </g>
    </g>
    <g id="xtick_7">
     <g id="line2d_7">
      <g>
       <use xlink:href="#m8164f2706d" x="537.1925" y="499.48" style="stroke: #000000; stroke-width: 0.8"/>
      </g>
     </g>
     <g id="text_7">
      <!-- 40 -->
      <g transform="translate(523.195 523.196563) scale(0.22 -0.22)">
       <use xlink:href="#DejaVuSans-34"/>
       <use xlink:href="#DejaVuSans-30" x="63.623047"/>
      </g>
     </g>
    </g>
    <g id="xtick_8">
     <g id="line2d_8">
      <g>
       <use xlink:href="#m8164f2706d" x="609.69625" y="499.48" style="stroke: #000000; stroke-width: 0.8"/>
      </g>
     </g>
     <g id="text_8">
      <!-- 60 -->
      <g transform="translate(595.69875 523.196563) scale(0.22 -0.22)">
       <use xlink:href="#DejaVuSans-36"/>
       <use xlink:href="#DejaVuSans-30" x="63.623047"/>
      </g>
     </g>
    </g>
    <g id="xtick_9">
     <g id="line2d_9">
      <g>
       <use xlink:href="#m8164f2706d" x="682.2" y="499.48" style="stroke: #000000; stroke-width: 0.8"/>
      </g>
     </g>
     <g id="text_9">
      <!-- 80 -->
      <g transform="translate(668.2025 523.196563) scale(0.22 -0.22)">
       <use xlink:href="#DejaVuSans-38"/>
       <use xlink:href="#DejaVuSans-30" x="63.623047"/>
      </g>
     </g>
    </g>
    <g id="text_10">
     <!-- Ground Truth Energy [kJ/mol] -->
     <g transform="translate(232.45125 548.488438) scale(0.22 -0.22)">
      <defs>
       <path id="DejaVuSans-47" d="M 3809 666 
L 3809 1919 
L 2778 1919 
L 2778 2438 
L 4434 2438 
L 4434 434 
Q 4069 175 3628 42 
Q 3188 -91 2688 -91 
Q 1594 -91 976 548 
Q 359 1188 359 2328 
Q 359 3472 976 4111 
Q 1594 4750 2688 4750 
Q 3144 4750 3555 4637 
Q 3966 4525 4313 4306 
L 4313 3634 
Q 3963 3931 3569 4081 
Q 3175 4231 2741 4231 
Q 1884 4231 1454 3753 
Q 1025 3275 1025 2328 
Q 1025 1384 1454 906 
Q 1884 428 2741 428 
Q 3075 428 3337 486 
Q 3600 544 3809 666 
z
" transform="scale(0.015625)"/>
       <path id="DejaVuSans-72" d="M 2631 2963 
Q 2534 3019 2420 3045 
Q 2306 3072 2169 3072 
Q 1681 3072 1420 2755 
Q 1159 2438 1159 1844 
L 1159 0 
L 581 0 
L 581 3500 
L 1159 3500 
L 1159 2956 
Q 1341 3275 1631 3429 
Q 1922 3584 2338 3584 
Q 2397 3584 2469 3576 
Q 2541 3569 2628 3553 
L 2631 2963 
z
" transform="scale(0.015625)"/>
       <path id="DejaVuSans-6f" d="M 1959 3097 
Q 1497 3097 1228 2736 
Q 959 2375 959 1747 
Q 959 1119 1226 758 
Q 1494 397 1959 397 
Q 2419 397 2687 759 
Q 2956 1122 2956 1747 
Q 2956 2369 2687 2733 
Q 2419 3097 1959 3097 
z
M 1959 3584 
Q 2709 3584 3137 3096 
Q 3566 2609 3566 1747 
Q 3566 888 3137 398 
Q 2709 -91 1959 -91 
Q 1206 -91 779 398 
Q 353 888 353 1747 
Q 353 2609 779 3096 
Q 1206 3584 1959 3584 
z
" transform="scale(0.015625)"/>
       <path id="DejaVuSans-75" d="M 544 1381 
L 544 3500 
L 1119 3500 
L 1119 1403 
Q 1119 906 1312 657 
Q 1506 409 1894 409 
Q 2359 409 2629 706 
Q 2900 1003 2900 1516 
L 2900 3500 
L 3475 3500 
L 3475 0 
L 2900 0 
L 2900 538 
Q 2691 219 2414 64 
Q 2138 -91 1772 -91 
Q 1169 -91 856 284 
Q 544 659 544 1381 
z
M 1991 3584 
L 1991 3584 
z
" transform="scale(0.015625)"/>
       <path id="DejaVuSans-6e" d="M 3513 2113 
L 3513 0 
L 2938 0 
L 2938 2094 
Q 2938 2591 2744 2837 
Q 2550 3084 2163 3084 
Q 1697 3084 1428 2787 
Q 1159 2491 1159 1978 
L 1159 0 
L 581 0 
L 581 3500 
L 1159 3500 
L 1159 2956 
Q 1366 3272 1645 3428 
Q 1925 3584 2291 3584 
Q 2894 3584 3203 3211 
Q 3513 2838 3513 2113 
z
" transform="scale(0.015625)"/>
       <path id="DejaVuSans-64" d="M 2906 2969 
L 2906 4863 
L 3481 4863 
L 3481 0 
L 2906 0 
L 2906 525 
Q 2725 213 2448 61 
Q 2172 -91 1784 -91 
Q 1150 -91 751 415 
Q 353 922 353 1747 
Q 353 2572 751 3078 
Q 1150 3584 1784 3584 
Q 2172 3584 2448 3432 
Q 2725 3281 2906 2969 
z
M 947 1747 
Q 947 1113 1208 752 
Q 1469 391 1925 391 
Q 2381 391 2643 752 
Q 2906 1113 2906 1747 
Q 2906 2381 2643 2742 
Q 2381 3103 1925 3103 
Q 1469 3103 1208 2742 
Q 947 2381 947 1747 
z
" transform="scale(0.015625)"/>
       <path id="DejaVuSans-20" transform="scale(0.015625)"/>
       <path id="DejaVuSans-54" d="M -19 4666 
L 3928 4666 
L 3928 4134 
L 2272 4134 
L 2272 0 
L 1638 0 
L 1638 4134 
L -19 4134 
L -19 4666 
z
" transform="scale(0.015625)"/>
       <path id="DejaVuSans-74" d="M 1172 4494 
L 1172 3500 
L 2356 3500 
L 2356 3053 
L 1172 3053 
L 1172 1153 
Q 1172 725 1289 603 
Q 1406 481 1766 481 
L 2356 481 
L 2356 0 
L 1766 0 
Q 1100 0 847 248 
Q 594 497 594 1153 
L 594 3053 
L 172 3053 
L 172 3500 
L 594 3500 
L 594 4494 
L 1172 4494 
z
" transform="scale(0.015625)"/>
       <path id="DejaVuSans-68" d="M 3513 2113 
L 3513 0 
L 2938 0 
L 2938 2094 
Q 2938 2591 2744 2837 
Q 2550 3084 2163 3084 
Q 1697 3084 1428 2787 
Q 1159 2491 1159 1978 
L 1159 0 
L 581 0 
L 581 4863 
L 1159 4863 
L 1159 2956 
Q 1366 3272 1645 3428 
Q 1925 3584 2291 3584 
Q 2894 3584 3203 3211 
Q 3513 2838 3513 2113 
z
" transform="scale(0.015625)"/>
       <path id="DejaVuSans-45" d="M 628 4666 
L 3578 4666 
L 3578 4134 
L 1259 4134 
L 1259 2753 
L 3481 2753 
L 3481 2222 
L 1259 2222 
L 1259 531 
L 3634 531 
L 3634 0 
L 628 0 
L 628 4666 
z
" transform="scale(0.015625)"/>
       <path id="DejaVuSans-65" d="M 3597 1894 
L 3597 1613 
L 953 1613 
Q 991 1019 1311 708 
Q 1631 397 2203 397 
Q 2534 397 2845 478 
Q 3156 559 3463 722 
L 3463 178 
Q 3153 47 2828 -22 
Q 2503 -91 2169 -91 
Q 1331 -91 842 396 
Q 353 884 353 1716 
Q 353 2575 817 3079 
Q 1281 3584 2069 3584 
Q 2775 3584 3186 3129 
Q 3597 2675 3597 1894 
z
M 3022 2063 
Q 3016 2534 2758 2815 
Q 2500 3097 2075 3097 
Q 1594 3097 1305 2825 
Q 1016 2553 972 2059 
L 3022 2063 
z
" transform="scale(0.015625)"/>
       <path id="DejaVuSans-67" d="M 2906 1791 
Q 2906 2416 2648 2759 
Q 2391 3103 1925 3103 
Q 1463 3103 1205 2759 
Q 947 2416 947 1791 
Q 947 1169 1205 825 
Q 1463 481 1925 481 
Q 2391 481 2648 825 
Q 2906 1169 2906 1791 
z
M 3481 434 
Q 3481 -459 3084 -895 
Q 2688 -1331 1869 -1331 
Q 1566 -1331 1297 -1286 
Q 1028 -1241 775 -1147 
L 775 -588 
Q 1028 -725 1275 -790 
Q 1522 -856 1778 -856 
Q 2344 -856 2625 -561 
Q 2906 -266 2906 331 
L 2906 616 
Q 2728 306 2450 153 
Q 2172 0 1784 0 
Q 1141 0 747 490 
Q 353 981 353 1791 
Q 353 2603 747 3093 
Q 1141 3584 1784 3584 
Q 2172 3584 2450 3431 
Q 2728 3278 2906 2969 
L 2906 3500 
L 3481 3500 
L 3481 434 
z
" transform="scale(0.015625)"/>
       <path id="DejaVuSans-79" d="M 2059 -325 
Q 1816 -950 1584 -1140 
Q 1353 -1331 966 -1331 
L 506 -1331 
L 506 -850 
L 844 -850 
Q 1081 -850 1212 -737 
Q 1344 -625 1503 -206 
L 1606 56 
L 191 3500 
L 800 3500 
L 1894 763 
L 2988 3500 
L 3597 3500 
L 2059 -325 
z
" transform="scale(0.015625)"/>
       <path id="DejaVuSans-5b" d="M 550 4863 
L 1875 4863 
L 1875 4416 
L 1125 4416 
L 1125 -397 
L 1875 -397 
L 1875 -844 
L 550 -844 
L 550 4863 
z
" transform="scale(0.015625)"/>
       <path id="DejaVuSans-6b" d="M 581 4863 
L 1159 4863 
L 1159 1991 
L 2875 3500 
L 3609 3500 
L 1753 1863 
L 3688 0 
L 2938 0 
L 1159 1709 
L 1159 0 
L 581 0 
L 581 4863 
z
" transform="scale(0.015625)"/>
       <path id="DejaVuSans-4a" d="M 628 4666 
L 1259 4666 
L 1259 325 
Q 1259 -519 939 -900 
Q 619 -1281 -91 -1281 
L -331 -1281 
L -331 -750 
L -134 -750 
Q 284 -750 456 -515 
Q 628 -281 628 325 
L 628 4666 
z
" transform="scale(0.015625)"/>
       <path id="DejaVuSans-2f" d="M 1625 4666 
L 2156 4666 
L 531 -594 
L 0 -594 
L 1625 4666 
z
" transform="scale(0.015625)"/>
       <path id="DejaVuSans-6d" d="M 3328 2828 
Q 3544 3216 3844 3400 
Q 4144 3584 4550 3584 
Q 5097 3584 5394 3201 
Q 5691 2819 5691 2113 
L 5691 0 
L 5113 0 
L 5113 2094 
Q 5113 2597 4934 2840 
Q 4756 3084 4391 3084 
Q 3944 3084 3684 2787 
Q 3425 2491 3425 1978 
L 3425 0 
L 2847 0 
L 2847 2094 
Q 2847 2600 2669 2842 
Q 2491 3084 2119 3084 
Q 1678 3084 1418 2786 
Q 1159 2488 1159 1978 
L 1159 0 
L 581 0 
L 581 3500 
L 1159 3500 
L 1159 2956 
Q 1356 3278 1631 3431 
Q 1906 3584 2284 3584 
Q 2666 3584 2933 3390 
Q 3200 3197 3328 2828 
z
" transform="scale(0.015625)"/>
       <path id="DejaVuSans-6c" d="M 603 4863 
L 1178 4863 
L 1178 0 
L 603 0 
L 603 4863 
z
" transform="scale(0.015625)"/>
       <path id="DejaVuSans-5d" d="M 1947 4863 
L 1947 -844 
L 622 -844 
L 622 -397 
L 1369 -397 
L 1369 4416 
L 622 4416 
L 622 4863 
L 1947 4863 
z
" transform="scale(0.015625)"/>
      </defs>
      <use xlink:href="#DejaVuSans-47"/>
      <use xlink:href="#DejaVuSans-72" x="77.490234"/>
      <use xlink:href="#DejaVuSans-6f" x="116.353516"/>
      <use xlink:href="#DejaVuSans-75" x="177.535156"/>
      <use xlink:href="#DejaVuSans-6e" x="240.914062"/>
      <use xlink:href="#DejaVuSans-64" x="304.292969"/>
      <use xlink:href="#DejaVuSans-20" x="367.769531"/>
      <use xlink:href="#DejaVuSans-54" x="399.556641"/>
      <use xlink:href="#DejaVuSans-72" x="445.890625"/>
      <use xlink:href="#DejaVuSans-75" x="487.003906"/>
      <use xlink:href="#DejaVuSans-74" x="550.382812"/>
      <use xlink:href="#DejaVuSans-68" x="589.591797"/>
      <use xlink:href="#DejaVuSans-20" x="652.970703"/>
      <use xlink:href="#DejaVuSans-45" x="684.757812"/>
      <use xlink:href="#DejaVuSans-6e" x="747.941406"/>
      <use xlink:href="#DejaVuSans-65" x="811.320312"/>
      <use xlink:href="#DejaVuSans-72" x="872.84375"/>
      <use xlink:href="#DejaVuSans-67" x="912.207031"/>
      <use xlink:href="#DejaVuSans-79" x="975.683594"/>
      <use xlink:href="#DejaVuSans-20" x="1034.863281"/>
      <use xlink:href="#DejaVuSans-5b" x="1066.650391"/>
      <use xlink:href="#DejaVuSans-6b" x="1105.664062"/>
      <use xlink:href="#DejaVuSans-4a" x="1163.574219"/>
      <use xlink:href="#DejaVuSans-2f" x="1193.066406"/>
      <use xlink:href="#DejaVuSans-6d" x="1226.757812"/>
      <use xlink:href="#DejaVuSans-6f" x="1324.169922"/>
      <use xlink:href="#DejaVuSans-6c" x="1385.351562"/>
      <use xlink:href="#DejaVuSans-5d" x="1413.134766"/>
     </g>
    </g>
   </g>
   <g id="matplotlib.axis_2">
    <g id="ytick_1">
     <g id="line2d_10">
      <defs>
       <path id="m0e270bd3ba" d="M 0 0 
L -3.5 0 
" style="stroke: #000000; stroke-width: 0.8"/>
      </defs>
      <g>
       <use xlink:href="#m0e270bd3ba" x="102.17" y="499.48" style="stroke: #000000; stroke-width: 0.8"/>
      </g>
     </g>
     <g id="text_11">
      <!-- −80 -->
      <g transform="translate(48.739688 507.838281) scale(0.22 -0.22)">
       <use xlink:href="#DejaVuSans-2212"/>
       <use xlink:href="#DejaVuSans-38" x="83.789062"/>
       <use xlink:href="#DejaVuSans-30" x="147.412109"/>
      </g>
     </g>
    </g>
    <g id="ytick_2">
     <g id="line2d_11">
      <g>
       <use xlink:href="#m0e270bd3ba" x="102.17" y="441.05" style="stroke: #000000; stroke-width: 0.8"/>
      </g>
     </g>
     <g id="text_12">
      <!-- −60 -->
      <g transform="translate(48.739688 449.408281) scale(0.22 -0.22)">
       <use xlink:href="#DejaVuSans-2212"/>
       <use xlink:href="#DejaVuSans-36" x="83.789062"/>
       <use xlink:href="#DejaVuSans-30" x="147.412109"/>
      </g>
     </g>
    </g>
    <g id="ytick_3">
     <g id="line2d_12">
      <g>
       <use xlink:href="#m0e270bd3ba" x="102.17" y="382.62" style="stroke: #000000; stroke-width: 0.8"/>
      </g>
     </g>
     <g id="text_13">
      <!-- −40 -->
      <g transform="translate(48.739688 390.978281) scale(0.22 -0.22)">
       <use xlink:href="#DejaVuSans-2212"/>
       <use xlink:href="#DejaVuSans-34" x="83.789062"/>
       <use xlink:href="#DejaVuSans-30" x="147.412109"/>
      </g>
     </g>
    </g>
    <g id="ytick_4">
     <g id="line2d_13">
      <g>
       <use xlink:href="#m0e270bd3ba" x="102.17" y="324.19" style="stroke: #000000; stroke-width: 0.8"/>
      </g>
     </g>
     <g id="text_14">
      <!-- −20 -->
      <g transform="translate(48.739688 332.548281) scale(0.22 -0.22)">
       <use xlink:href="#DejaVuSans-2212"/>
       <use xlink:href="#DejaVuSans-32" x="83.789062"/>
       <use xlink:href="#DejaVuSans-30" x="147.412109"/>
      </g>
     </g>
    </g>
    <g id="ytick_5">
     <g id="line2d_14">
      <g>
       <use xlink:href="#m0e270bd3ba" x="102.17" y="265.76" style="stroke: #000000; stroke-width: 0.8"/>
      </g>
     </g>
     <g id="text_15">
      <!-- 0 -->
      <g transform="translate(81.1725 274.118281) scale(0.22 -0.22)">
       <use xlink:href="#DejaVuSans-30"/>
      </g>
     </g>
    </g>
    <g id="ytick_6">
     <g id="line2d_15">
      <g>
       <use xlink:href="#m0e270bd3ba" x="102.17" y="207.33" style="stroke: #000000; stroke-width: 0.8"/>
      </g>
     </g>
     <g id="text_16">
      <!-- 20 -->
      <g transform="translate(67.175 215.688281) scale(0.22 -0.22)">
       <use xlink:href="#DejaVuSans-32"/>
       <use xlink:href="#DejaVuSans-30" x="63.623047"/>
      </g>
     </g>
    </g>
    <g id="ytick_7">
     <g id="line2d_16">
      <g>
       <use xlink:href="#m0e270bd3ba" x="102.17" y="148.9" style="stroke: #000000; stroke-width: 0.8"/>
      </g>
     </g>
     <g id="text_17">
      <!-- 40 -->
      <g transform="translate(67.175 157.258281) scale(0.22 -0.22)">
       <use xlink:href="#DejaVuSans-34"/>
       <use xlink:href="#DejaVuSans-30" x="63.623047"/>
      </g>
     </g>
    </g>
    <g id="ytick_8">
     <g id="line2d_17">
      <g>
       <use xlink:href="#m0e270bd3ba" x="102.17" y="90.47" style="stroke: #000000; stroke-width: 0.8"/>
      </g>
     </g>
     <g id="text_18">
      <!-- 60 -->
      <g transform="translate(67.175 98.828281) scale(0.22 -0.22)">
       <use xlink:href="#DejaVuSans-36"/>
       <use xlink:href="#DejaVuSans-30" x="63.623047"/>
      </g>
     </g>
    </g>
    <g id="ytick_9">
     <g id="line2d_18">
      <g>
       <use xlink:href="#m0e270bd3ba" x="102.17" y="32.04" style="stroke: #000000; stroke-width: 0.8"/>
      </g>
     </g>
     <g id="text_19">
      <!-- 80 -->
      <g transform="translate(67.175 40.398281) scale(0.22 -0.22)">
       <use xlink:href="#DejaVuSans-38"/>
       <use xlink:href="#DejaVuSans-30" x="63.623047"/>
      </g>
     </g>
    </g>
    <g id="text_20">
     <!-- Predicted Energy [kJ/mol] -->
     <g transform="translate(40.164375 405.305313) rotate(-90) scale(0.22 -0.22)">
      <defs>
       <path id="DejaVuSans-50" d="M 1259 4147 
L 1259 2394 
L 2053 2394 
Q 2494 2394 2734 2622 
Q 2975 2850 2975 3272 
Q 2975 3691 2734 3919 
Q 2494 4147 2053 4147 
L 1259 4147 
z
M 628 4666 
L 2053 4666 
Q 2838 4666 3239 4311 
Q 3641 3956 3641 3272 
Q 3641 2581 3239 2228 
Q 2838 1875 2053 1875 
L 1259 1875 
L 1259 0 
L 628 0 
L 628 4666 
z
" transform="scale(0.015625)"/>
       <path id="DejaVuSans-69" d="M 603 3500 
L 1178 3500 
L 1178 0 
L 603 0 
L 603 3500 
z
M 603 4863 
L 1178 4863 
L 1178 4134 
L 603 4134 
L 603 4863 
z
" transform="scale(0.015625)"/>
       <path id="DejaVuSans-63" d="M 3122 3366 
L 3122 2828 
Q 2878 2963 2633 3030 
Q 2388 3097 2138 3097 
Q 1578 3097 1268 2742 
Q 959 2388 959 1747 
Q 959 1106 1268 751 
Q 1578 397 2138 397 
Q 2388 397 2633 464 
Q 2878 531 3122 666 
L 3122 134 
Q 2881 22 2623 -34 
Q 2366 -91 2075 -91 
Q 1284 -91 818 406 
Q 353 903 353 1747 
Q 353 2603 823 3093 
Q 1294 3584 2113 3584 
Q 2378 3584 2631 3529 
Q 2884 3475 3122 3366 
z
" transform="scale(0.015625)"/>
      </defs>
      <use xlink:href="#DejaVuSans-50"/>
      <use xlink:href="#DejaVuSans-72" x="58.552734"/>
      <use xlink:href="#DejaVuSans-65" x="97.416016"/>
      <use xlink:href="#DejaVuSans-64" x="158.939453"/>
      <use xlink:href="#DejaVuSans-69" x="222.416016"/>
      <use xlink:href="#DejaVuSans-63" x="250.199219"/>
      <use xlink:href="#DejaVuSans-74" x="305.179688"/>
      <use xlink:href="#DejaVuSans-65" x="344.388672"/>
      <use xlink:href="#DejaVuSans-64" x="405.912109"/>
      <use xlink:href="#DejaVuSans-20" x="469.388672"/>
      <use xlink:href="#DejaVuSans-45" x="501.175781"/>
      <use xlink:href="#DejaVuSans-6e" x="564.359375"/>
      <use xlink:href="#DejaVuSans-65" x="627.738281"/>
      <use xlink:href="#DejaVuSans-72" x="689.261719"/>
      <use xlink:href="#DejaVuSans-67" x="728.625"/>
      <use xlink:href="#DejaVuSans-79" x="792.101562"/>
      <use xlink:href="#DejaVuSans-20" x="851.28125"/>
      <use xlink:href="#DejaVuSans-5b" x="883.068359"/>
      <use xlink:href="#DejaVuSans-6b" x="922.082031"/>
      <use xlink:href="#DejaVuSans-4a" x="979.992188"/>
      <use xlink:href="#DejaVuSans-2f" x="1009.484375"/>
      <use xlink:href="#DejaVuSans-6d" x="1043.175781"/>
      <use xlink:href="#DejaVuSans-6f" x="1140.587891"/>
      <use xlink:href="#DejaVuSans-6c" x="1201.769531"/>
      <use xlink:href="#DejaVuSans-5d" x="1229.552734"/>
     </g>
    </g>
   </g>
   <g id="line2d_19">
    <path d="M 102.17 499.48 
L 682.2 32.04 
" clip-path="url(#pba08a5c18e)" style="fill: none; stroke-dasharray: 5.55,2.4; stroke-dashoffset: 0; stroke: #ff0000; stroke-width: 1.5"/>
   </g>
   <g id="patch_3">
    <path d="M 102.17 499.48 
L 102.17 32.04 
" style="fill: none; stroke: #000000; stroke-width: 0.8; stroke-linejoin: miter; stroke-linecap: square"/>
   </g>
   <g id="patch_4">
    <path d="M 682.2 499.48 
L 682.2 32.04 
" style="fill: none; stroke: #000000; stroke-width: 0.8; stroke-linejoin: miter; stroke-linecap: square"/>
   </g>
   <g id="patch_5">
    <path d="M 102.17 499.48 
L 682.2 499.48 
" style="fill: none; stroke: #000000; stroke-width: 0.8; stroke-linejoin: miter; stroke-linecap: square"/>
   </g>
   <g id="patch_6">
    <path d="M 102.17 32.04 
L 682.2 32.04 
" style="fill: none; stroke: #000000; stroke-width: 0.8; stroke-linejoin: miter; stroke-linecap: square"/>
   </g>
   <g id="text_21">
    <!-- R2 Score: 0.983 -->
    <g transform="translate(160.173 78.784) scale(0.22 -0.22)">
     <defs>
      <path id="DejaVuSans-52" d="M 2841 2188 
Q 3044 2119 3236 1894 
Q 3428 1669 3622 1275 
L 4263 0 
L 3584 0 
L 2988 1197 
Q 2756 1666 2539 1819 
Q 2322 1972 1947 1972 
L 1259 1972 
L 1259 0 
L 628 0 
L 628 4666 
L 2053 4666 
Q 2853 4666 3247 4331 
Q 3641 3997 3641 3322 
Q 3641 2881 3436 2590 
Q 3231 2300 2841 2188 
z
M 1259 4147 
L 1259 2491 
L 2053 2491 
Q 2509 2491 2742 2702 
Q 2975 2913 2975 3322 
Q 2975 3731 2742 3939 
Q 2509 4147 2053 4147 
L 1259 4147 
z
" transform="scale(0.015625)"/>
      <path id="DejaVuSans-53" d="M 3425 4513 
L 3425 3897 
Q 3066 4069 2747 4153 
Q 2428 4238 2131 4238 
Q 1616 4238 1336 4038 
Q 1056 3838 1056 3469 
Q 1056 3159 1242 3001 
Q 1428 2844 1947 2747 
L 2328 2669 
Q 3034 2534 3370 2195 
Q 3706 1856 3706 1288 
Q 3706 609 3251 259 
Q 2797 -91 1919 -91 
Q 1588 -91 1214 -16 
Q 841 59 441 206 
L 441 856 
Q 825 641 1194 531 
Q 1563 422 1919 422 
Q 2459 422 2753 634 
Q 3047 847 3047 1241 
Q 3047 1584 2836 1778 
Q 2625 1972 2144 2069 
L 1759 2144 
Q 1053 2284 737 2584 
Q 422 2884 422 3419 
Q 422 4038 858 4394 
Q 1294 4750 2059 4750 
Q 2388 4750 2728 4690 
Q 3069 4631 3425 4513 
z
" transform="scale(0.015625)"/>
      <path id="DejaVuSans-3a" d="M 750 794 
L 1409 794 
L 1409 0 
L 750 0 
L 750 794 
z
M 750 3309 
L 1409 3309 
L 1409 2516 
L 750 2516 
L 750 3309 
z
" transform="scale(0.015625)"/>
      <path id="DejaVuSans-2e" d="M 684 794 
L 1344 794 
L 1344 0 
L 684 0 
L 684 794 
z
" transform="scale(0.015625)"/>
      <path id="DejaVuSans-39" d="M 703 97 
L 703 672 
Q 941 559 1184 500 
Q 1428 441 1663 441 
Q 2288 441 2617 861 
Q 2947 1281 2994 2138 
Q 2813 1869 2534 1725 
Q 2256 1581 1919 1581 
Q 1219 1581 811 2004 
Q 403 2428 403 3163 
Q 403 3881 828 4315 
Q 1253 4750 1959 4750 
Q 2769 4750 3195 4129 
Q 3622 3509 3622 2328 
Q 3622 1225 3098 567 
Q 2575 -91 1691 -91 
Q 1453 -91 1209 -44 
Q 966 3 703 97 
z
M 1959 2075 
Q 2384 2075 2632 2365 
Q 2881 2656 2881 3163 
Q 2881 3666 2632 3958 
Q 2384 4250 1959 4250 
Q 1534 4250 1286 3958 
Q 1038 3666 1038 3163 
Q 1038 2656 1286 2365 
Q 1534 2075 1959 2075 
z
" transform="scale(0.015625)"/>
      <path id="DejaVuSans-33" d="M 2597 2516 
Q 3050 2419 3304 2112 
Q 3559 1806 3559 1356 
Q 3559 666 3084 287 
Q 2609 -91 1734 -91 
Q 1441 -91 1130 -33 
Q 819 25 488 141 
L 488 750 
Q 750 597 1062 519 
Q 1375 441 1716 441 
Q 2309 441 2620 675 
Q 2931 909 2931 1356 
Q 2931 1769 2642 2001 
Q 2353 2234 1838 2234 
L 1294 2234 
L 1294 2753 
L 1863 2753 
Q 2328 2753 2575 2939 
Q 2822 3125 2822 3475 
Q 2822 3834 2567 4026 
Q 2313 4219 1838 4219 
Q 1578 4219 1281 4162 
Q 984 4106 628 3988 
L 628 4550 
Q 988 4650 1302 4700 
Q 1616 4750 1894 4750 
Q 2613 4750 3031 4423 
Q 3450 4097 3450 3541 
Q 3450 3153 3228 2886 
Q 3006 2619 2597 2516 
z
" transform="scale(0.015625)"/>
     </defs>
     <use xlink:href="#DejaVuSans-52"/>
     <use xlink:href="#DejaVuSans-32" x="69.482422"/>
     <use xlink:href="#DejaVuSans-20" x="133.105469"/>
     <use xlink:href="#DejaVuSans-53" x="164.892578"/>
     <use xlink:href="#DejaVuSans-63" x="228.369141"/>
     <use xlink:href="#DejaVuSans-6f" x="283.349609"/>
     <use xlink:href="#DejaVuSans-72" x="344.53125"/>
     <use xlink:href="#DejaVuSans-65" x="383.394531"/>
     <use xlink:href="#DejaVuSans-3a" x="444.917969"/>
     <use xlink:href="#DejaVuSans-20" x="478.609375"/>
     <use xlink:href="#DejaVuSans-30" x="510.396484"/>
     <use xlink:href="#DejaVuSans-2e" x="574.019531"/>
     <use xlink:href="#DejaVuSans-39" x="605.806641"/>
     <use xlink:href="#DejaVuSans-38" x="669.429688"/>
     <use xlink:href="#DejaVuSans-33" x="733.052734"/>
    </g>
   </g>
  </g>
 </g>
 <defs>
  <clipPath id="pba08a5c18e">
   <rect x="102.17" y="32.04" width="580.03" height="467.44"/>
  </clipPath>
 </defs>
</svg>
