<?xml version="1.0" encoding="utf-8" standalone="no"?>
<!DOCTYPE svg PUBLIC "-//W3C//DTD SVG 1.1//EN"
  "http://www.w3.org/Graphics/SVG/1.1/DTD/svg11.dtd">
<svg xmlns:xlink="http://www.w3.org/1999/xlink" width="720pt" height="576pt" viewBox="0 0 720 576" xmlns="http://www.w3.org/2000/svg" version="1.1">
 <metadata>
  <rdf:RDF xmlns:dc="http://purl.org/dc/elements/1.1/" xmlns:cc="http://creativecommons.org/ns#" xmlns:rdf="http://www.w3.org/1999/02/22-rdf-syntax-ns#">
   <cc:Work>
    <dc:type rdf:resource="http://purl.org/dc/dcmitype/StillImage"/>
    <dc:date>2024-12-07T23:19:43.437968</dc:date>
    <dc:format>image/svg+xml</dc:format>
    <dc:creator>
     <cc:Agent>
      <dc:title>Matplotlib v3.8.4, https://matplotlib.org/</dc:title>
     </cc:Agent>
    </dc:creator>
   </cc:Work>
  </rdf:RDF>
 </metadata>
 <defs>
  <style type="text/css">*{stroke-linejoin: round; stroke-linecap: butt}</style>
 </defs>
 <g id="figure_1">
  <g id="patch_1">
   <path d="M 0 576 
L 720 576 
L 720 0 
L 0 0 
z
" style="fill: #ffffff"/>
  </g>
  <g id="axes_1">
   <g id="patch_2">
    <path d="M 83.72 499.48 
L 696.24 499.48 
L 696.24 23.76 
L 83.72 23.76 
z
" style="fill: #ffffff"/>
   </g>
   <g id="QuadContourSet_1">
    <path d="M 100.929695 501.908636 
L 102.654007 502.253711 
L 104.37832 502.540076 
L 106.102632 502.790593 
L 107.826945 503.032247 
L 109.551257 503.26951 
L 111.27557 503.481085 
L 112.999883 503.641858 
L 114.724195 503.733393 
L 116.448508 503.740214 
L 118.17282 503.649953 
L 119.897133 503.452621 
L 121.621445 503.131313 
L 123.345758 502.648491 
L 125.070071 501.92712 
L 125.658769 501.611578 
L 126.794383 501.300605 
L 128.518696 500.670735 
L 130.243008 499.708196 
L 131.104775 499.070902 
L 131.967321 498.687501 
L 133.691633 497.675211 
L 135.011478 496.530227 
L 135.415946 496.279968 
L 137.140258 495.021279 
L 138.179618 493.989552 
L 138.864571 493.417097 
L 140.588884 491.597341 
L 140.72197 491.448876 
L 142.313196 489.698025 
L 142.949508 488.908201 
L 144.037509 487.2793 
L 144.666382 486.367526 
L 145.761821 483.940109 
L 145.8232 483.82685 
L 146.514477 481.286175 
L 146.276136 478.7455 
L 145.761821 477.756075 
L 144.881859 476.204824 
L 144.037509 475.207911 
L 142.536285 473.664149 
L 142.313196 473.442671 
L 140.588884 472.111298 
L 138.864571 471.481628 
L 137.140258 471.200362 
L 136.383356 471.123474 
L 135.415946 470.946273 
L 133.691633 470.584758 
L 131.967321 470.16844 
L 130.243008 469.839369 
L 128.518696 469.725233 
L 126.794383 469.839168 
L 125.070071 470.13234 
L 123.345758 470.543197 
L 121.621445 471.010036 
L 121.217614 471.123474 
L 119.897133 471.323567 
L 118.17282 471.636811 
L 116.448508 472.029225 
L 114.724195 472.511203 
L 112.999883 473.08868 
L 111.506082 473.664149 
L 111.27557 473.715342 
L 109.551257 474.107624 
L 107.826945 474.596496 
L 106.102632 475.247969 
L 104.37832 476.151717 
L 104.288107 476.204824 
L 102.654007 476.804614 
L 100.929695 477.629056 
L 99.205382 478.7455 
L 99.205382 478.7455 
L 97.481069 479.559284 
L 95.756757 480.644863 
L 94.894119 481.286175 
L 94.032444 481.827119 
L 92.308132 483.142379 
L 91.561658 483.82685 
L 90.583819 484.756095 
L 89.198529 486.367526 
L 88.859507 486.890503 
L 87.597261 488.908201 
L 87.135194 490.296505 
L 86.696516 491.448876 
L 86.510046 493.989552 
L 87.135194 495.960581 
L 87.328818 496.530227 
L 88.859507 498.346573 
L 89.821738 499.070902 
L 90.583819 499.531633 
L 92.308132 500.22961 
L 94.032444 500.661072 
L 95.756757 500.987338 
L 97.481069 501.279548 
L 99.205382 501.546971 
L 99.648113 501.611578 
z
M 108.764007 499.070902 
L 107.826945 498.910612 
L 106.102632 498.600488 
L 104.37832 498.246496 
L 102.654007 497.840828 
L 100.929695 497.379333 
L 99.205382 496.859614 
L 98.187395 496.530227 
L 97.481069 496.296176 
L 95.756757 495.5761 
L 94.032444 494.334553 
L 93.702857 493.989552 
L 92.998832 491.448876 
L 93.699109 488.908201 
L 94.032444 488.421936 
L 95.446953 486.367526 
L 95.756757 486.055398 
L 97.481069 484.432075 
L 98.19359 483.82685 
L 99.205382 483.047734 
L 100.929695 481.923026 
L 102.080923 481.286175 
L 102.654007 480.932612 
L 104.37832 480.029056 
L 106.102632 479.321981 
L 107.826945 478.7455 
L 107.826945 478.7455 
L 109.551257 478.057324 
L 111.27557 477.470013 
L 112.999883 476.964376 
L 114.724195 476.53758 
L 116.374996 476.204824 
L 116.448508 476.183026 
L 118.17282 475.741287 
L 119.897133 475.344284 
L 121.621445 474.969749 
L 123.345758 474.640515 
L 125.070071 474.398819 
L 126.794383 474.285233 
L 128.518696 474.311898 
L 130.243008 474.438021 
L 131.967321 474.601445 
L 133.691633 474.794356 
L 135.415946 475.103564 
L 137.140258 475.721332 
L 137.923925 476.204824 
L 138.864571 476.897669 
L 140.421199 478.7455 
L 140.588884 479.11738 
L 141.493698 481.286175 
L 141.467941 483.82685 
L 140.588884 486.162767 
L 140.527439 486.367526 
L 138.965133 488.908201 
L 138.864571 489.031687 
L 137.140258 491.088561 
L 136.813285 491.448876 
L 135.415946 492.858445 
L 133.96393 493.989552 
L 133.691633 494.230343 
L 131.967321 495.566719 
L 130.243008 496.492406 
L 130.163394 496.530227 
L 128.518696 497.577694 
L 126.794383 498.341129 
L 125.070071 498.892988 
L 124.361023 499.070902 
L 123.345758 499.477394 
L 121.621445 499.961 
L 119.897133 500.252528 
L 118.17282 500.38103 
L 116.448508 500.364411 
L 114.724195 500.220622 
L 112.999883 499.969586 
L 111.27557 499.635098 
L 109.551257 499.249796 
z
" clip-path="url(#p3dac4a6cff)" style="fill: #ecf4fb"/>
    <path d="M 109.551257 499.249796 
L 111.27557 499.635098 
L 112.999883 499.969586 
L 114.724195 500.220622 
L 116.448508 500.364411 
L 118.17282 500.38103 
L 119.897133 500.252528 
L 121.621445 499.961 
L 123.345758 499.477394 
L 124.361023 499.070902 
L 125.070071 498.892988 
L 126.794383 498.341129 
L 128.518696 497.577694 
L 130.163394 496.530227 
L 130.243008 496.492406 
L 131.967321 495.566719 
L 133.691633 494.230343 
L 133.96393 493.989552 
L 135.415946 492.858445 
L 136.813285 491.448876 
L 137.140258 491.088561 
L 138.864571 489.031687 
L 138.965133 488.908201 
L 140.527439 486.367526 
L 140.588884 486.162767 
L 141.467941 483.82685 
L 141.493698 481.286175 
L 140.588884 479.11738 
L 140.421199 478.7455 
L 138.864571 476.897669 
L 137.923925 476.204824 
L 137.140258 475.721332 
L 135.415946 475.103564 
L 133.691633 474.794356 
L 131.967321 474.601445 
L 130.243008 474.438021 
L 128.518696 474.311898 
L 126.794383 474.285233 
L 125.070071 474.398819 
L 123.345758 474.640515 
L 121.621445 474.969749 
L 119.897133 475.344284 
L 118.17282 475.741287 
L 116.448508 476.183026 
L 116.374996 476.204824 
L 114.724195 476.53758 
L 112.999883 476.964376 
L 111.27557 477.470013 
L 109.551257 478.057324 
L 107.826945 478.7455 
L 107.826945 478.7455 
L 106.102632 479.321981 
L 104.37832 480.029056 
L 102.654007 480.932612 
L 102.080923 481.286175 
L 100.929695 481.923026 
L 99.205382 483.047734 
L 98.19359 483.82685 
L 97.481069 484.432075 
L 95.756757 486.055398 
L 95.446953 486.367526 
L 94.032444 488.421936 
L 93.699109 488.908201 
L 92.998832 491.448876 
L 93.702857 493.989552 
L 94.032444 494.334553 
L 95.756757 495.5761 
L 97.481069 496.296176 
L 98.187395 496.530227 
L 99.205382 496.859614 
L 100.929695 497.379333 
L 102.654007 497.840828 
L 104.37832 498.246496 
L 106.102632 498.600488 
L 107.826945 498.910612 
L 108.764007 499.070902 
z
M 107.492035 496.530227 
L 106.102632 496.145164 
L 104.37832 495.616257 
L 102.654007 495.017918 
L 100.929695 494.335186 
L 100.124576 493.989552 
L 99.205382 493.39886 
L 97.481069 491.826382 
L 97.200742 491.448876 
L 97.365569 488.908201 
L 97.481069 488.739025 
L 99.071586 486.367526 
L 99.205382 486.243596 
L 100.929695 484.76429 
L 102.146153 483.82685 
L 102.654007 483.496294 
L 104.37832 482.525295 
L 106.102632 481.708022 
L 107.094729 481.286175 
L 107.826945 480.964929 
L 109.551257 480.27138 
L 111.27557 479.663587 
L 112.999883 479.137476 
L 114.5229 478.7455 
L 114.724195 478.681373 
L 116.448508 478.202291 
L 118.17282 477.778306 
L 119.897133 477.382709 
L 121.621445 477.023096 
L 123.345758 476.72929 
L 125.070071 476.538759 
L 126.794383 476.473185 
L 128.518696 476.512448 
L 130.243008 476.610111 
L 131.967321 476.753996 
L 133.691633 477.014508 
L 135.415946 477.571778 
L 137.140258 478.7455 
L 137.140258 478.7455 
L 138.759685 481.286175 
L 138.864571 482.127156 
L 139.074708 483.82685 
L 138.864571 484.513077 
L 138.406421 486.367526 
L 137.140258 488.485422 
L 136.901711 488.908201 
L 135.415946 490.666232 
L 134.684147 491.448876 
L 133.691633 492.389856 
L 131.967321 493.713669 
L 131.553882 493.989552 
L 130.243008 494.942426 
L 128.518696 495.885025 
L 126.958823 496.530227 
L 126.794383 496.620196 
L 125.070071 497.391465 
L 123.345758 497.927204 
L 121.621445 498.283021 
L 119.897133 498.482704 
L 118.17282 498.534718 
L 116.448508 498.447742 
L 114.724195 498.237133 
L 112.999883 497.923197 
L 111.27557 497.534132 
L 109.551257 497.099433 
L 107.826945 496.625729 
z
" clip-path="url(#p3dac4a6cff)" style="fill: #d6e5f4"/>
    <path d="M 107.826945 496.625729 
L 109.551257 497.099433 
L 111.27557 497.534132 
L 112.999883 497.923197 
L 114.724195 498.237133 
L 116.448508 498.447742 
L 118.17282 498.534718 
L 119.897133 498.482704 
L 121.621445 498.283021 
L 123.345758 497.927204 
L 125.070071 497.391465 
L 126.794383 496.620196 
L 126.958823 496.530227 
L 128.518696 495.885025 
L 130.243008 494.942426 
L 131.553882 493.989552 
L 131.967321 493.713669 
L 133.691633 492.389856 
L 134.684147 491.448876 
L 135.415946 490.666232 
L 136.901711 488.908201 
L 137.140258 488.485422 
L 138.406421 486.367526 
L 138.864571 484.513077 
L 139.074708 483.82685 
L 138.864571 482.127156 
L 138.759685 481.286175 
L 137.140258 478.7455 
L 137.140258 478.7455 
L 135.415946 477.571778 
L 133.691633 477.014508 
L 131.967321 476.753996 
L 130.243008 476.610111 
L 128.518696 476.512448 
L 126.794383 476.473185 
L 125.070071 476.538759 
L 123.345758 476.72929 
L 121.621445 477.023096 
L 119.897133 477.382709 
L 118.17282 477.778306 
L 116.448508 478.202291 
L 114.724195 478.681373 
L 114.5229 478.7455 
L 112.999883 479.137476 
L 111.27557 479.663587 
L 109.551257 480.27138 
L 107.826945 480.964929 
L 107.094729 481.286175 
L 106.102632 481.708022 
L 104.37832 482.525295 
L 102.654007 483.496294 
L 102.146153 483.82685 
L 100.929695 484.76429 
L 99.205382 486.243596 
L 99.071586 486.367526 
L 97.481069 488.739025 
L 97.365569 488.908201 
L 97.200742 491.448876 
L 97.481069 491.826382 
L 99.205382 493.39886 
L 100.124576 493.989552 
L 100.929695 494.335186 
L 102.654007 495.017918 
L 104.37832 495.616257 
L 106.102632 496.145164 
L 107.492035 496.530227 
z
M 114.476652 496.530227 
L 112.999883 496.180126 
L 111.27557 495.697602 
L 109.551257 495.158639 
L 107.826945 494.559991 
L 106.333445 493.989552 
L 106.102632 493.872578 
L 104.37832 492.959692 
L 102.654007 491.889556 
L 102.011089 491.448876 
L 101.082454 488.908201 
L 102.637471 486.367526 
L 102.654007 486.354446 
L 104.37832 485.083332 
L 106.102632 483.904517 
L 106.218147 483.82685 
L 107.826945 483.01751 
L 109.551257 482.231701 
L 111.27557 481.527244 
L 111.929633 481.286175 
L 112.999883 480.894035 
L 114.724195 480.347274 
L 116.448508 479.869057 
L 118.17282 479.433499 
L 119.897133 479.030455 
L 121.259469 478.7455 
L 121.621445 478.651258 
L 123.345758 478.299412 
L 125.070071 478.095414 
L 126.794383 478.032496 
L 128.518696 478.072466 
L 130.243008 478.18547 
L 131.967321 478.408204 
L 133.250485 478.7455 
L 133.691633 478.875975 
L 135.415946 479.958279 
L 136.542044 481.286175 
L 137.140258 483.669584 
L 137.174934 483.82685 
L 137.140258 483.97613 
L 136.681521 486.367526 
L 135.415946 488.56808 
L 135.228172 488.908201 
L 133.691633 490.654341 
L 132.909293 491.448876 
L 131.967321 492.270566 
L 130.243008 493.503447 
L 129.425106 493.989552 
L 128.518696 494.565494 
L 126.794383 495.426138 
L 125.070071 496.062172 
L 123.345758 496.530227 
L 123.345758 496.530227 
L 121.621445 496.935558 
L 119.897133 497.122122 
L 118.17282 497.112531 
L 116.448508 496.928086 
L 114.724195 496.591754 
z
" clip-path="url(#p3dac4a6cff)" style="fill: #bdd7ec"/>
    <path d="M 114.724195 496.591754 
L 116.448508 496.928086 
L 118.17282 497.112531 
L 119.897133 497.122122 
L 121.621445 496.935558 
L 123.345758 496.530227 
L 123.345758 496.530227 
L 125.070071 496.062172 
L 126.794383 495.426138 
L 128.518696 494.565494 
L 129.425106 493.989552 
L 130.243008 493.503447 
L 131.967321 492.270566 
L 132.909293 491.448876 
L 133.691633 490.654341 
L 135.228172 488.908201 
L 135.415946 488.56808 
L 136.681521 486.367526 
L 137.140258 483.97613 
L 137.174934 483.82685 
L 137.140258 483.669584 
L 136.542044 481.286175 
L 135.415946 479.958279 
L 133.691633 478.875975 
L 133.250485 478.7455 
L 131.967321 478.408204 
L 130.243008 478.18547 
L 128.518696 478.072466 
L 126.794383 478.032496 
L 125.070071 478.095414 
L 123.345758 478.299412 
L 121.621445 478.651258 
L 121.259469 478.7455 
L 119.897133 479.030455 
L 118.17282 479.433499 
L 116.448508 479.869057 
L 114.724195 480.347274 
L 112.999883 480.894035 
L 111.929633 481.286175 
L 111.27557 481.527244 
L 109.551257 482.231701 
L 107.826945 483.01751 
L 106.218147 483.82685 
L 106.102632 483.904517 
L 104.37832 485.083332 
L 102.654007 486.354446 
L 102.637471 486.367526 
L 101.082454 488.908201 
L 102.011089 491.448876 
L 102.654007 491.889556 
L 104.37832 492.959692 
L 106.102632 493.872578 
L 106.333445 493.989552 
L 107.826945 494.559991 
L 109.551257 495.158639 
L 111.27557 495.697602 
L 112.999883 496.180126 
L 114.476652 496.530227 
z
M 110.596251 493.989552 
L 109.551257 493.475099 
L 107.826945 492.565565 
L 106.102632 491.554535 
L 105.930922 491.448876 
L 104.51344 488.908201 
L 105.868309 486.367526 
L 106.102632 486.199213 
L 107.826945 484.976055 
L 109.551257 483.82685 
L 109.551257 483.82685 
L 111.27557 483.029455 
L 112.999883 482.330894 
L 114.724195 481.720936 
L 116.08454 481.286175 
L 116.448508 481.170928 
L 118.17282 480.629704 
L 119.897133 480.142524 
L 121.621445 479.736135 
L 123.345758 479.439464 
L 125.070071 479.271384 
L 126.794383 479.221073 
L 128.518696 479.258925 
L 130.243008 479.389686 
L 131.967321 479.709291 
L 133.691633 480.458345 
L 134.694808 481.286175 
L 135.415946 482.836608 
L 135.755897 483.82685 
L 135.415946 486.056943 
L 135.375742 486.367526 
L 133.971242 488.908201 
L 133.691633 489.225952 
L 131.967321 491.032644 
L 131.525297 491.448876 
L 130.243008 492.454157 
L 128.518696 493.531352 
L 127.624362 493.989552 
L 126.794383 494.43647 
L 125.070071 495.146286 
L 123.345758 495.639547 
L 121.621445 495.943921 
L 119.897133 496.06303 
L 118.17282 495.996755 
L 116.448508 495.756359 
L 114.724195 495.362714 
L 112.999883 494.845896 
L 111.27557 494.241365 
z
" clip-path="url(#p3dac4a6cff)" style="fill: #9dcae1"/>
    <path d="M 111.27557 494.241365 
L 112.999883 494.845896 
L 114.724195 495.362714 
L 116.448508 495.756359 
L 118.17282 495.996755 
L 119.897133 496.06303 
L 121.621445 495.943921 
L 123.345758 495.639547 
L 125.070071 495.146286 
L 126.794383 494.43647 
L 127.624362 493.989552 
L 128.518696 493.531352 
L 130.243008 492.454157 
L 131.525297 491.448876 
L 131.967321 491.032644 
L 133.691633 489.225952 
L 133.971242 488.908201 
L 135.375742 486.367526 
L 135.415946 486.056943 
L 135.755897 483.82685 
L 135.415946 482.836608 
L 134.694808 481.286175 
L 133.691633 480.458345 
L 131.967321 479.709291 
L 130.243008 479.389686 
L 128.518696 479.258925 
L 126.794383 479.221073 
L 125.070071 479.271384 
L 123.345758 479.439464 
L 121.621445 479.736135 
L 119.897133 480.142524 
L 118.17282 480.629704 
L 116.448508 481.170928 
L 116.08454 481.286175 
L 114.724195 481.720936 
L 112.999883 482.330894 
L 111.27557 483.029455 
L 109.551257 483.82685 
L 109.551257 483.82685 
L 107.826945 484.976055 
L 106.102632 486.199213 
L 105.868309 486.367526 
L 104.51344 488.908201 
L 105.930922 491.448876 
L 106.102632 491.554535 
L 107.826945 492.565565 
L 109.551257 493.475099 
L 110.596251 493.989552 
z
M 115.248595 493.989552 
L 114.724195 493.787129 
L 112.999883 492.99234 
L 111.27557 492.06743 
L 110.207049 491.448876 
L 109.551257 490.488149 
L 108.48861 488.908201 
L 109.551257 486.636267 
L 109.67353 486.367526 
L 111.27557 485.279114 
L 112.999883 484.208271 
L 113.652895 483.82685 
L 114.724195 483.380503 
L 116.448508 482.699393 
L 118.17282 482.081151 
L 119.897133 481.534285 
L 120.838271 481.286175 
L 121.621445 481.078679 
L 123.345758 480.755823 
L 125.070071 480.576811 
L 126.794383 480.520711 
L 128.518696 480.575457 
L 130.243008 480.787955 
L 131.896596 481.286175 
L 131.967321 481.320531 
L 133.691633 483.211834 
L 134.015226 483.82685 
L 133.857833 486.367526 
L 133.691633 486.665574 
L 132.465413 488.908201 
L 131.967321 489.440889 
L 130.243008 491.092622 
L 129.823572 491.448876 
L 128.518696 492.342095 
L 126.794383 493.270296 
L 125.070071 493.989552 
L 125.070071 493.989552 
L 123.345758 494.514648 
L 121.621445 494.797966 
L 119.897133 494.854638 
L 118.17282 494.697056 
L 116.448508 494.344074 
z
" clip-path="url(#p3dac4a6cff)" style="fill: #72b2d8"/>
    <path d="M 116.448508 494.344074 
L 118.17282 494.697056 
L 119.897133 494.854638 
L 121.621445 494.797966 
L 123.345758 494.514648 
L 125.070071 493.989552 
L 125.070071 493.989552 
L 126.794383 493.270296 
L 128.518696 492.342095 
L 129.823572 491.448876 
L 130.243008 491.092622 
L 131.967321 489.440889 
L 132.465413 488.908201 
L 133.691633 486.665574 
L 133.857833 486.367526 
L 134.015226 483.82685 
L 133.691633 483.211834 
L 131.967321 481.320531 
L 131.896596 481.286175 
L 130.243008 480.787955 
L 128.518696 480.575457 
L 126.794383 480.520711 
L 125.070071 480.576811 
L 123.345758 480.755823 
L 121.621445 481.078679 
L 120.838271 481.286175 
L 119.897133 481.534285 
L 118.17282 482.081151 
L 116.448508 482.699393 
L 114.724195 483.380503 
L 113.652895 483.82685 
L 112.999883 484.208271 
L 111.27557 485.279114 
L 109.67353 486.367526 
L 109.551257 486.636267 
L 108.48861 488.908201 
L 109.551257 490.488149 
L 110.207049 491.448876 
L 111.27557 492.06743 
L 112.999883 492.99234 
L 114.724195 493.787129 
L 115.248595 493.989552 
z
M 112.963711 491.448876 
L 111.27557 488.988512 
L 111.220774 488.908201 
L 111.27557 488.789985 
L 112.381539 486.367526 
L 112.999883 485.955693 
L 114.724195 484.849232 
L 116.448508 483.84482 
L 116.480236 483.82685 
L 118.17282 483.137057 
L 119.897133 482.537631 
L 121.621445 482.06275 
L 123.345758 481.733811 
L 125.070071 481.552322 
L 126.794383 481.498901 
L 128.518696 481.587842 
L 130.243008 481.958484 
L 131.967321 483.013747 
L 132.639906 483.82685 
L 132.726435 486.367526 
L 131.967321 487.759481 
L 131.340577 488.908201 
L 130.243008 489.984304 
L 128.518696 491.448876 
L 128.518696 491.448876 
L 126.794383 492.429421 
L 125.070071 493.155173 
L 123.345758 493.659808 
L 121.621445 493.932276 
L 119.897133 493.941024 
L 118.17282 493.675241 
L 116.448508 493.151528 
L 114.724195 492.401311 
L 112.999883 491.469441 
z
" clip-path="url(#p3dac4a6cff)" style="fill: #4f9bcb"/>
    <path d="M 112.999883 491.469441 
L 114.724195 492.401311 
L 116.448508 493.151528 
L 118.17282 493.675241 
L 119.897133 493.941024 
L 121.621445 493.932276 
L 123.345758 493.659808 
L 125.070071 493.155173 
L 126.794383 492.429421 
L 128.518696 491.448876 
L 128.518696 491.448876 
L 130.243008 489.984304 
L 131.340577 488.908201 
L 131.967321 487.759481 
L 132.726435 486.367526 
L 132.639906 483.82685 
L 131.967321 483.013747 
L 130.243008 481.958484 
L 128.518696 481.587842 
L 126.794383 481.498901 
L 125.070071 481.552322 
L 123.345758 481.733811 
L 121.621445 482.06275 
L 119.897133 482.537631 
L 118.17282 483.137057 
L 116.480236 483.82685 
L 116.448508 483.84482 
L 114.724195 484.849232 
L 112.999883 485.955693 
L 112.381539 486.367526 
L 111.27557 488.789985 
L 111.220774 488.908201 
L 111.27557 488.988512 
L 112.963711 491.448876 
z
M 117.507435 491.448876 
L 116.448508 490.425838 
L 115.239527 488.908201 
L 116.448508 486.367526 
L 116.448508 486.367526 
L 118.17282 485.312186 
L 119.897133 484.418493 
L 121.339203 483.82685 
L 121.621445 483.743742 
L 123.345758 483.393889 
L 125.070071 483.207101 
L 126.794383 483.193509 
L 128.518696 483.43191 
L 129.531688 483.82685 
L 130.243008 484.912576 
L 130.671627 486.367526 
L 130.243008 487.171622 
L 129.301573 488.908201 
L 128.518696 489.583387 
L 126.794383 490.820384 
L 125.709262 491.448876 
L 125.070071 491.720716 
L 123.345758 492.162057 
L 121.621445 492.311239 
L 119.897133 492.159538 
L 118.17282 491.711882 
z
" clip-path="url(#p3dac4a6cff)" style="fill: #2d7dbb"/>
    <path d="M 118.17282 491.711882 
L 119.897133 492.159538 
L 121.621445 492.311239 
L 123.345758 492.162057 
L 125.070071 491.720716 
L 125.709262 491.448876 
L 126.794383 490.820384 
L 128.518696 489.583387 
L 129.301573 488.908201 
L 130.243008 487.171622 
L 130.671627 486.367526 
L 130.243008 484.912576 
L 129.531688 483.82685 
L 128.518696 483.43191 
L 126.794383 483.193509 
L 125.070071 483.207101 
L 123.345758 483.393889 
L 121.621445 483.743742 
L 121.339203 483.82685 
L 119.897133 484.418493 
L 118.17282 485.312186 
L 116.448508 486.367526 
L 116.448508 486.367526 
L 115.239527 488.908201 
L 116.448508 490.425838 
L 117.507435 491.448876 
z
M 117.323917 488.908201 
L 118.17282 487.140399 
L 118.575518 486.367526 
L 119.897133 485.664492 
L 121.621445 484.951995 
L 123.345758 484.467868 
L 125.070071 484.222032 
L 126.794383 484.292326 
L 128.518696 485.116783 
L 129.350756 486.367526 
L 128.518696 488.004753 
L 128.043379 488.908201 
L 126.794383 489.781122 
L 125.070071 490.697176 
L 123.345758 491.304323 
L 121.621445 491.448876 
L 119.897133 490.966941 
L 118.17282 489.783501 
z
" clip-path="url(#p3dac4a6cff)" style="fill: #125ea6"/>
    <path d="M 118.17282 489.783501 
L 119.897133 490.966941 
L 121.621445 491.448876 
L 123.345758 491.304323 
L 125.070071 490.697176 
L 126.794383 489.781122 
L 128.043379 488.908201 
L 128.518696 488.004753 
L 129.350756 486.367526 
L 128.518696 485.116783 
L 126.794383 484.292326 
L 125.070071 484.222032 
L 123.345758 484.467868 
L 121.621445 484.951995 
L 119.897133 485.664492 
L 118.575518 486.367526 
L 118.17282 487.140399 
L 117.323917 488.908201 
z
" clip-path="url(#p3dac4a6cff)" style="fill: #084285"/>
   </g>
   <g id="matplotlib.axis_1">
    <g id="xtick_1">
     <g id="line2d_1">
      <defs>
       <path id="mb90406bef5" d="M 0 0 
L 0 3.5 
" style="stroke: #000000; stroke-width: 0.8"/>
      </defs>
      <g>
       <use xlink:href="#mb90406bef5" x="163.760981" y="499.48" style="stroke: #000000; stroke-width: 0.8"/>
      </g>
     </g>
     <g id="text_1">
      <!-- 10 -->
      <g transform="translate(149.763481 523.196563) scale(0.22 -0.22)">
       <defs>
        <path id="DejaVuSans-31" d="M 794 531 
L 1825 531 
L 1825 4091 
L 703 3866 
L 703 4441 
L 1819 4666 
L 2450 4666 
L 2450 531 
L 3481 531 
L 3481 0 
L 794 0 
L 794 531 
z
" transform="scale(0.015625)"/>
        <path id="DejaVuSans-30" d="M 2034 4250 
Q 1547 4250 1301 3770 
Q 1056 3291 1056 2328 
Q 1056 1369 1301 889 
Q 1547 409 2034 409 
Q 2525 409 2770 889 
Q 3016 1369 3016 2328 
Q 3016 3291 2770 3770 
Q 2525 4250 2034 4250 
z
M 2034 4750 
Q 2819 4750 3233 4129 
Q 3647 3509 3647 2328 
Q 3647 1150 3233 529 
Q 2819 -91 2034 -91 
Q 1250 -91 836 529 
Q 422 1150 422 2328 
Q 422 3509 836 4129 
Q 1250 4750 2034 4750 
z
" transform="scale(0.015625)"/>
       </defs>
       <use xlink:href="#DejaVuSans-31"/>
       <use xlink:href="#DejaVuSans-30" x="63.623047"/>
      </g>
     </g>
    </g>
    <g id="xtick_2">
     <g id="line2d_2">
      <g>
       <use xlink:href="#mb90406bef5" x="246.674516" y="499.48" style="stroke: #000000; stroke-width: 0.8"/>
      </g>
     </g>
     <g id="text_2">
      <!-- 20 -->
      <g transform="translate(232.677016 523.196563) scale(0.22 -0.22)">
       <defs>
        <path id="DejaVuSans-32" d="M 1228 531 
L 3431 531 
L 3431 0 
L 469 0 
L 469 531 
Q 828 903 1448 1529 
Q 2069 2156 2228 2338 
Q 2531 2678 2651 2914 
Q 2772 3150 2772 3378 
Q 2772 3750 2511 3984 
Q 2250 4219 1831 4219 
Q 1534 4219 1204 4116 
Q 875 4013 500 3803 
L 500 4441 
Q 881 4594 1212 4672 
Q 1544 4750 1819 4750 
Q 2544 4750 2975 4387 
Q 3406 4025 3406 3419 
Q 3406 3131 3298 2873 
Q 3191 2616 2906 2266 
Q 2828 2175 2409 1742 
Q 1991 1309 1228 531 
z
" transform="scale(0.015625)"/>
       </defs>
       <use xlink:href="#DejaVuSans-32"/>
       <use xlink:href="#DejaVuSans-30" x="63.623047"/>
      </g>
     </g>
    </g>
    <g id="xtick_3">
     <g id="line2d_3">
      <g>
       <use xlink:href="#mb90406bef5" x="329.588051" y="499.48" style="stroke: #000000; stroke-width: 0.8"/>
      </g>
     </g>
     <g id="text_3">
      <!-- 30 -->
      <g transform="translate(315.590551 523.196563) scale(0.22 -0.22)">
       <defs>
        <path id="DejaVuSans-33" d="M 2597 2516 
Q 3050 2419 3304 2112 
Q 3559 1806 3559 1356 
Q 3559 666 3084 287 
Q 2609 -91 1734 -91 
Q 1441 -91 1130 -33 
Q 819 25 488 141 
L 488 750 
Q 750 597 1062 519 
Q 1375 441 1716 441 
Q 2309 441 2620 675 
Q 2931 909 2931 1356 
Q 2931 1769 2642 2001 
Q 2353 2234 1838 2234 
L 1294 2234 
L 1294 2753 
L 1863 2753 
Q 2328 2753 2575 2939 
Q 2822 3125 2822 3475 
Q 2822 3834 2567 4026 
Q 2313 4219 1838 4219 
Q 1578 4219 1281 4162 
Q 984 4106 628 3988 
L 628 4550 
Q 988 4650 1302 4700 
Q 1616 4750 1894 4750 
Q 2613 4750 3031 4423 
Q 3450 4097 3450 3541 
Q 3450 3153 3228 2886 
Q 3006 2619 2597 2516 
z
" transform="scale(0.015625)"/>
       </defs>
       <use xlink:href="#DejaVuSans-33"/>
       <use xlink:href="#DejaVuSans-30" x="63.623047"/>
      </g>
     </g>
    </g>
    <g id="xtick_4">
     <g id="line2d_4">
      <g>
       <use xlink:href="#mb90406bef5" x="412.501586" y="499.48" style="stroke: #000000; stroke-width: 0.8"/>
      </g>
     </g>
     <g id="text_4">
      <!-- 40 -->
      <g transform="translate(398.504086 523.196563) scale(0.22 -0.22)">
       <defs>
        <path id="DejaVuSans-34" d="M 2419 4116 
L 825 1625 
L 2419 1625 
L 2419 4116 
z
M 2253 4666 
L 3047 4666 
L 3047 1625 
L 3713 1625 
L 3713 1100 
L 3047 1100 
L 3047 0 
L 2419 0 
L 2419 1100 
L 313 1100 
L 313 1709 
L 2253 4666 
z
" transform="scale(0.015625)"/>
       </defs>
       <use xlink:href="#DejaVuSans-34"/>
       <use xlink:href="#DejaVuSans-30" x="63.623047"/>
      </g>
     </g>
    </g>
    <g id="xtick_5">
     <g id="line2d_5">
      <g>
       <use xlink:href="#mb90406bef5" x="495.415121" y="499.48" style="stroke: #000000; stroke-width: 0.8"/>
      </g>
     </g>
     <g id="text_5">
      <!-- 50 -->
      <g transform="translate(481.417621 523.196563) scale(0.22 -0.22)">
       <defs>
        <path id="DejaVuSans-35" d="M 691 4666 
L 3169 4666 
L 3169 4134 
L 1269 4134 
L 1269 2991 
Q 1406 3038 1543 3061 
Q 1681 3084 1819 3084 
Q 2600 3084 3056 2656 
Q 3513 2228 3513 1497 
Q 3513 744 3044 326 
Q 2575 -91 1722 -91 
Q 1428 -91 1123 -41 
Q 819 9 494 109 
L 494 744 
Q 775 591 1075 516 
Q 1375 441 1709 441 
Q 2250 441 2565 725 
Q 2881 1009 2881 1497 
Q 2881 1984 2565 2268 
Q 2250 2553 1709 2553 
Q 1456 2553 1204 2497 
Q 953 2441 691 2322 
L 691 4666 
z
" transform="scale(0.015625)"/>
       </defs>
       <use xlink:href="#DejaVuSans-35"/>
       <use xlink:href="#DejaVuSans-30" x="63.623047"/>
      </g>
     </g>
    </g>
    <g id="xtick_6">
     <g id="line2d_6">
      <g>
       <use xlink:href="#mb90406bef5" x="578.328656" y="499.48" style="stroke: #000000; stroke-width: 0.8"/>
      </g>
     </g>
     <g id="text_6">
      <!-- 60 -->
      <g transform="translate(564.331156 523.196563) scale(0.22 -0.22)">
       <defs>
        <path id="DejaVuSans-36" d="M 2113 2584 
Q 1688 2584 1439 2293 
Q 1191 2003 1191 1497 
Q 1191 994 1439 701 
Q 1688 409 2113 409 
Q 2538 409 2786 701 
Q 3034 994 3034 1497 
Q 3034 2003 2786 2293 
Q 2538 2584 2113 2584 
z
M 3366 4563 
L 3366 3988 
Q 3128 4100 2886 4159 
Q 2644 4219 2406 4219 
Q 1781 4219 1451 3797 
Q 1122 3375 1075 2522 
Q 1259 2794 1537 2939 
Q 1816 3084 2150 3084 
Q 2853 3084 3261 2657 
Q 3669 2231 3669 1497 
Q 3669 778 3244 343 
Q 2819 -91 2113 -91 
Q 1303 -91 875 529 
Q 447 1150 447 2328 
Q 447 3434 972 4092 
Q 1497 4750 2381 4750 
Q 2619 4750 2861 4703 
Q 3103 4656 3366 4563 
z
" transform="scale(0.015625)"/>
       </defs>
       <use xlink:href="#DejaVuSans-36"/>
       <use xlink:href="#DejaVuSans-30" x="63.623047"/>
      </g>
     </g>
    </g>
    <g id="xtick_7">
     <g id="line2d_7">
      <g>
       <use xlink:href="#mb90406bef5" x="661.242191" y="499.48" style="stroke: #000000; stroke-width: 0.8"/>
      </g>
     </g>
     <g id="text_7">
      <!-- 70 -->
      <g transform="translate(647.244691 523.196563) scale(0.22 -0.22)">
       <defs>
        <path id="DejaVuSans-37" d="M 525 4666 
L 3525 4666 
L 3525 4397 
L 1831 0 
L 1172 0 
L 2766 4134 
L 525 4134 
L 525 4666 
z
" transform="scale(0.015625)"/>
       </defs>
       <use xlink:href="#DejaVuSans-37"/>
       <use xlink:href="#DejaVuSans-30" x="63.623047"/>
      </g>
     </g>
    </g>
    <g id="text_8">
     <!-- Force Uncertainties -->
     <g transform="translate(283.426094 548.488438) scale(0.22 -0.22)">
      <defs>
       <path id="DejaVuSans-46" d="M 628 4666 
L 3309 4666 
L 3309 4134 
L 1259 4134 
L 1259 2759 
L 3109 2759 
L 3109 2228 
L 1259 2228 
L 1259 0 
L 628 0 
L 628 4666 
z
" transform="scale(0.015625)"/>
       <path id="DejaVuSans-6f" d="M 1959 3097 
Q 1497 3097 1228 2736 
Q 959 2375 959 1747 
Q 959 1119 1226 758 
Q 1494 397 1959 397 
Q 2419 397 2687 759 
Q 2956 1122 2956 1747 
Q 2956 2369 2687 2733 
Q 2419 3097 1959 3097 
z
M 1959 3584 
Q 2709 3584 3137 3096 
Q 3566 2609 3566 1747 
Q 3566 888 3137 398 
Q 2709 -91 1959 -91 
Q 1206 -91 779 398 
Q 353 888 353 1747 
Q 353 2609 779 3096 
Q 1206 3584 1959 3584 
z
" transform="scale(0.015625)"/>
       <path id="DejaVuSans-72" d="M 2631 2963 
Q 2534 3019 2420 3045 
Q 2306 3072 2169 3072 
Q 1681 3072 1420 2755 
Q 1159 2438 1159 1844 
L 1159 0 
L 581 0 
L 581 3500 
L 1159 3500 
L 1159 2956 
Q 1341 3275 1631 3429 
Q 1922 3584 2338 3584 
Q 2397 3584 2469 3576 
Q 2541 3569 2628 3553 
L 2631 2963 
z
" transform="scale(0.015625)"/>
       <path id="DejaVuSans-63" d="M 3122 3366 
L 3122 2828 
Q 2878 2963 2633 3030 
Q 2388 3097 2138 3097 
Q 1578 3097 1268 2742 
Q 959 2388 959 1747 
Q 959 1106 1268 751 
Q 1578 397 2138 397 
Q 2388 397 2633 464 
Q 2878 531 3122 666 
L 3122 134 
Q 2881 22 2623 -34 
Q 2366 -91 2075 -91 
Q 1284 -91 818 406 
Q 353 903 353 1747 
Q 353 2603 823 3093 
Q 1294 3584 2113 3584 
Q 2378 3584 2631 3529 
Q 2884 3475 3122 3366 
z
" transform="scale(0.015625)"/>
       <path id="DejaVuSans-65" d="M 3597 1894 
L 3597 1613 
L 953 1613 
Q 991 1019 1311 708 
Q 1631 397 2203 397 
Q 2534 397 2845 478 
Q 3156 559 3463 722 
L 3463 178 
Q 3153 47 2828 -22 
Q 2503 -91 2169 -91 
Q 1331 -91 842 396 
Q 353 884 353 1716 
Q 353 2575 817 3079 
Q 1281 3584 2069 3584 
Q 2775 3584 3186 3129 
Q 3597 2675 3597 1894 
z
M 3022 2063 
Q 3016 2534 2758 2815 
Q 2500 3097 2075 3097 
Q 1594 3097 1305 2825 
Q 1016 2553 972 2059 
L 3022 2063 
z
" transform="scale(0.015625)"/>
       <path id="DejaVuSans-20" transform="scale(0.015625)"/>
       <path id="DejaVuSans-55" d="M 556 4666 
L 1191 4666 
L 1191 1831 
Q 1191 1081 1462 751 
Q 1734 422 2344 422 
Q 2950 422 3222 751 
Q 3494 1081 3494 1831 
L 3494 4666 
L 4128 4666 
L 4128 1753 
Q 4128 841 3676 375 
Q 3225 -91 2344 -91 
Q 1459 -91 1007 375 
Q 556 841 556 1753 
L 556 4666 
z
" transform="scale(0.015625)"/>
       <path id="DejaVuSans-6e" d="M 3513 2113 
L 3513 0 
L 2938 0 
L 2938 2094 
Q 2938 2591 2744 2837 
Q 2550 3084 2163 3084 
Q 1697 3084 1428 2787 
Q 1159 2491 1159 1978 
L 1159 0 
L 581 0 
L 581 3500 
L 1159 3500 
L 1159 2956 
Q 1366 3272 1645 3428 
Q 1925 3584 2291 3584 
Q 2894 3584 3203 3211 
Q 3513 2838 3513 2113 
z
" transform="scale(0.015625)"/>
       <path id="DejaVuSans-74" d="M 1172 4494 
L 1172 3500 
L 2356 3500 
L 2356 3053 
L 1172 3053 
L 1172 1153 
Q 1172 725 1289 603 
Q 1406 481 1766 481 
L 2356 481 
L 2356 0 
L 1766 0 
Q 1100 0 847 248 
Q 594 497 594 1153 
L 594 3053 
L 172 3053 
L 172 3500 
L 594 3500 
L 594 4494 
L 1172 4494 
z
" transform="scale(0.015625)"/>
       <path id="DejaVuSans-61" d="M 2194 1759 
Q 1497 1759 1228 1600 
Q 959 1441 959 1056 
Q 959 750 1161 570 
Q 1363 391 1709 391 
Q 2188 391 2477 730 
Q 2766 1069 2766 1631 
L 2766 1759 
L 2194 1759 
z
M 3341 1997 
L 3341 0 
L 2766 0 
L 2766 531 
Q 2569 213 2275 61 
Q 1981 -91 1556 -91 
Q 1019 -91 701 211 
Q 384 513 384 1019 
Q 384 1609 779 1909 
Q 1175 2209 1959 2209 
L 2766 2209 
L 2766 2266 
Q 2766 2663 2505 2880 
Q 2244 3097 1772 3097 
Q 1472 3097 1187 3025 
Q 903 2953 641 2809 
L 641 3341 
Q 956 3463 1253 3523 
Q 1550 3584 1831 3584 
Q 2591 3584 2966 3190 
Q 3341 2797 3341 1997 
z
" transform="scale(0.015625)"/>
       <path id="DejaVuSans-69" d="M 603 3500 
L 1178 3500 
L 1178 0 
L 603 0 
L 603 3500 
z
M 603 4863 
L 1178 4863 
L 1178 4134 
L 603 4134 
L 603 4863 
z
" transform="scale(0.015625)"/>
       <path id="DejaVuSans-73" d="M 2834 3397 
L 2834 2853 
Q 2591 2978 2328 3040 
Q 2066 3103 1784 3103 
Q 1356 3103 1142 2972 
Q 928 2841 928 2578 
Q 928 2378 1081 2264 
Q 1234 2150 1697 2047 
L 1894 2003 
Q 2506 1872 2764 1633 
Q 3022 1394 3022 966 
Q 3022 478 2636 193 
Q 2250 -91 1575 -91 
Q 1294 -91 989 -36 
Q 684 19 347 128 
L 347 722 
Q 666 556 975 473 
Q 1284 391 1588 391 
Q 1994 391 2212 530 
Q 2431 669 2431 922 
Q 2431 1156 2273 1281 
Q 2116 1406 1581 1522 
L 1381 1569 
Q 847 1681 609 1914 
Q 372 2147 372 2553 
Q 372 3047 722 3315 
Q 1072 3584 1716 3584 
Q 2034 3584 2315 3537 
Q 2597 3491 2834 3397 
z
" transform="scale(0.015625)"/>
      </defs>
      <use xlink:href="#DejaVuSans-46"/>
      <use xlink:href="#DejaVuSans-6f" x="53.894531"/>
      <use xlink:href="#DejaVuSans-72" x="115.076172"/>
      <use xlink:href="#DejaVuSans-63" x="153.939453"/>
      <use xlink:href="#DejaVuSans-65" x="208.919922"/>
      <use xlink:href="#DejaVuSans-20" x="270.443359"/>
      <use xlink:href="#DejaVuSans-55" x="302.230469"/>
      <use xlink:href="#DejaVuSans-6e" x="375.423828"/>
      <use xlink:href="#DejaVuSans-63" x="438.802734"/>
      <use xlink:href="#DejaVuSans-65" x="493.783203"/>
      <use xlink:href="#DejaVuSans-72" x="555.306641"/>
      <use xlink:href="#DejaVuSans-74" x="596.419922"/>
      <use xlink:href="#DejaVuSans-61" x="635.628906"/>
      <use xlink:href="#DejaVuSans-69" x="696.908203"/>
      <use xlink:href="#DejaVuSans-6e" x="724.691406"/>
      <use xlink:href="#DejaVuSans-74" x="788.070312"/>
      <use xlink:href="#DejaVuSans-69" x="827.279297"/>
      <use xlink:href="#DejaVuSans-65" x="855.0625"/>
      <use xlink:href="#DejaVuSans-73" x="916.585938"/>
     </g>
    </g>
   </g>
   <g id="matplotlib.axis_2">
    <g id="ytick_1">
     <g id="line2d_8">
      <defs>
       <path id="m60d182c42a" d="M 0 0 
L -3.5 0 
" style="stroke: #000000; stroke-width: 0.8"/>
      </defs>
      <g>
       <use xlink:href="#m60d182c42a" x="83.72" y="437.315344" style="stroke: #000000; stroke-width: 0.8"/>
      </g>
     </g>
     <g id="text_9">
      <!-- 10 -->
      <g transform="translate(48.725 445.673625) scale(0.22 -0.22)">
       <use xlink:href="#DejaVuSans-31"/>
       <use xlink:href="#DejaVuSans-30" x="63.623047"/>
      </g>
     </g>
    </g>
    <g id="ytick_2">
     <g id="line2d_9">
      <g>
       <use xlink:href="#m60d182c42a" x="83.72" y="372.919688" style="stroke: #000000; stroke-width: 0.8"/>
      </g>
     </g>
     <g id="text_10">
      <!-- 20 -->
      <g transform="translate(48.725 381.277969) scale(0.22 -0.22)">
       <use xlink:href="#DejaVuSans-32"/>
       <use xlink:href="#DejaVuSans-30" x="63.623047"/>
      </g>
     </g>
    </g>
    <g id="ytick_3">
     <g id="line2d_10">
      <g>
       <use xlink:href="#m60d182c42a" x="83.72" y="308.524033" style="stroke: #000000; stroke-width: 0.8"/>
      </g>
     </g>
     <g id="text_11">
      <!-- 30 -->
      <g transform="translate(48.725 316.882314) scale(0.22 -0.22)">
       <use xlink:href="#DejaVuSans-33"/>
       <use xlink:href="#DejaVuSans-30" x="63.623047"/>
      </g>
     </g>
    </g>
    <g id="ytick_4">
     <g id="line2d_11">
      <g>
       <use xlink:href="#m60d182c42a" x="83.72" y="244.128377" style="stroke: #000000; stroke-width: 0.8"/>
      </g>
     </g>
     <g id="text_12">
      <!-- 40 -->
      <g transform="translate(48.725 252.486658) scale(0.22 -0.22)">
       <use xlink:href="#DejaVuSans-34"/>
       <use xlink:href="#DejaVuSans-30" x="63.623047"/>
      </g>
     </g>
    </g>
    <g id="ytick_5">
     <g id="line2d_12">
      <g>
       <use xlink:href="#m60d182c42a" x="83.72" y="179.732722" style="stroke: #000000; stroke-width: 0.8"/>
      </g>
     </g>
     <g id="text_13">
      <!-- 50 -->
      <g transform="translate(48.725 188.091003) scale(0.22 -0.22)">
       <use xlink:href="#DejaVuSans-35"/>
       <use xlink:href="#DejaVuSans-30" x="63.623047"/>
      </g>
     </g>
    </g>
    <g id="ytick_6">
     <g id="line2d_13">
      <g>
       <use xlink:href="#m60d182c42a" x="83.72" y="115.337066" style="stroke: #000000; stroke-width: 0.8"/>
      </g>
     </g>
     <g id="text_14">
      <!-- 60 -->
      <g transform="translate(48.725 123.695347) scale(0.22 -0.22)">
       <use xlink:href="#DejaVuSans-36"/>
       <use xlink:href="#DejaVuSans-30" x="63.623047"/>
      </g>
     </g>
    </g>
    <g id="ytick_7">
     <g id="line2d_14">
      <g>
       <use xlink:href="#m60d182c42a" x="83.72" y="50.941411" style="stroke: #000000; stroke-width: 0.8"/>
      </g>
     </g>
     <g id="text_15">
      <!-- 70 -->
      <g transform="translate(48.725 59.299692) scale(0.22 -0.22)">
       <use xlink:href="#DejaVuSans-37"/>
       <use xlink:href="#DejaVuSans-30" x="63.623047"/>
      </g>
     </g>
    </g>
    <g id="text_16">
     <!-- Force Errors [kJ/(mol*A)] -->
     <g transform="translate(40.149688 394.9125) rotate(-90) scale(0.22 -0.22)">
      <defs>
       <path id="DejaVuSans-45" d="M 628 4666 
L 3578 4666 
L 3578 4134 
L 1259 4134 
L 1259 2753 
L 3481 2753 
L 3481 2222 
L 1259 2222 
L 1259 531 
L 3634 531 
L 3634 0 
L 628 0 
L 628 4666 
z
" transform="scale(0.015625)"/>
       <path id="DejaVuSans-5b" d="M 550 4863 
L 1875 4863 
L 1875 4416 
L 1125 4416 
L 1125 -397 
L 1875 -397 
L 1875 -844 
L 550 -844 
L 550 4863 
z
" transform="scale(0.015625)"/>
       <path id="DejaVuSans-6b" d="M 581 4863 
L 1159 4863 
L 1159 1991 
L 2875 3500 
L 3609 3500 
L 1753 1863 
L 3688 0 
L 2938 0 
L 1159 1709 
L 1159 0 
L 581 0 
L 581 4863 
z
" transform="scale(0.015625)"/>
       <path id="DejaVuSans-4a" d="M 628 4666 
L 1259 4666 
L 1259 325 
Q 1259 -519 939 -900 
Q 619 -1281 -91 -1281 
L -331 -1281 
L -331 -750 
L -134 -750 
Q 284 -750 456 -515 
Q 628 -281 628 325 
L 628 4666 
z
" transform="scale(0.015625)"/>
       <path id="DejaVuSans-2f" d="M 1625 4666 
L 2156 4666 
L 531 -594 
L 0 -594 
L 1625 4666 
z
" transform="scale(0.015625)"/>
       <path id="DejaVuSans-28" d="M 1984 4856 
Q 1566 4138 1362 3434 
Q 1159 2731 1159 2009 
Q 1159 1288 1364 580 
Q 1569 -128 1984 -844 
L 1484 -844 
Q 1016 -109 783 600 
Q 550 1309 550 2009 
Q 550 2706 781 3412 
Q 1013 4119 1484 4856 
L 1984 4856 
z
" transform="scale(0.015625)"/>
       <path id="DejaVuSans-6d" d="M 3328 2828 
Q 3544 3216 3844 3400 
Q 4144 3584 4550 3584 
Q 5097 3584 5394 3201 
Q 5691 2819 5691 2113 
L 5691 0 
L 5113 0 
L 5113 2094 
Q 5113 2597 4934 2840 
Q 4756 3084 4391 3084 
Q 3944 3084 3684 2787 
Q 3425 2491 3425 1978 
L 3425 0 
L 2847 0 
L 2847 2094 
Q 2847 2600 2669 2842 
Q 2491 3084 2119 3084 
Q 1678 3084 1418 2786 
Q 1159 2488 1159 1978 
L 1159 0 
L 581 0 
L 581 3500 
L 1159 3500 
L 1159 2956 
Q 1356 3278 1631 3431 
Q 1906 3584 2284 3584 
Q 2666 3584 2933 3390 
Q 3200 3197 3328 2828 
z
" transform="scale(0.015625)"/>
       <path id="DejaVuSans-6c" d="M 603 4863 
L 1178 4863 
L 1178 0 
L 603 0 
L 603 4863 
z
" transform="scale(0.015625)"/>
       <path id="DejaVuSans-2a" d="M 3009 3897 
L 1888 3291 
L 3009 2681 
L 2828 2375 
L 1778 3009 
L 1778 1831 
L 1422 1831 
L 1422 3009 
L 372 2375 
L 191 2681 
L 1313 3291 
L 191 3897 
L 372 4206 
L 1422 3572 
L 1422 4750 
L 1778 4750 
L 1778 3572 
L 2828 4206 
L 3009 3897 
z
" transform="scale(0.015625)"/>
       <path id="DejaVuSans-41" d="M 2188 4044 
L 1331 1722 
L 3047 1722 
L 2188 4044 
z
M 1831 4666 
L 2547 4666 
L 4325 0 
L 3669 0 
L 3244 1197 
L 1141 1197 
L 716 0 
L 50 0 
L 1831 4666 
z
" transform="scale(0.015625)"/>
       <path id="DejaVuSans-29" d="M 513 4856 
L 1013 4856 
Q 1481 4119 1714 3412 
Q 1947 2706 1947 2009 
Q 1947 1309 1714 600 
Q 1481 -109 1013 -844 
L 513 -844 
Q 928 -128 1133 580 
Q 1338 1288 1338 2009 
Q 1338 2731 1133 3434 
Q 928 4138 513 4856 
z
" transform="scale(0.015625)"/>
       <path id="DejaVuSans-5d" d="M 1947 4863 
L 1947 -844 
L 622 -844 
L 622 -397 
L 1369 -397 
L 1369 4416 
L 622 4416 
L 622 4863 
L 1947 4863 
z
" transform="scale(0.015625)"/>
      </defs>
      <use xlink:href="#DejaVuSans-46"/>
      <use xlink:href="#DejaVuSans-6f" x="53.894531"/>
      <use xlink:href="#DejaVuSans-72" x="115.076172"/>
      <use xlink:href="#DejaVuSans-63" x="153.939453"/>
      <use xlink:href="#DejaVuSans-65" x="208.919922"/>
      <use xlink:href="#DejaVuSans-20" x="270.443359"/>
      <use xlink:href="#DejaVuSans-45" x="302.230469"/>
      <use xlink:href="#DejaVuSans-72" x="365.414062"/>
      <use xlink:href="#DejaVuSans-72" x="404.777344"/>
      <use xlink:href="#DejaVuSans-6f" x="443.640625"/>
      <use xlink:href="#DejaVuSans-72" x="504.822266"/>
      <use xlink:href="#DejaVuSans-73" x="545.935547"/>
      <use xlink:href="#DejaVuSans-20" x="598.035156"/>
      <use xlink:href="#DejaVuSans-5b" x="629.822266"/>
      <use xlink:href="#DejaVuSans-6b" x="668.835938"/>
      <use xlink:href="#DejaVuSans-4a" x="726.746094"/>
      <use xlink:href="#DejaVuSans-2f" x="756.238281"/>
      <use xlink:href="#DejaVuSans-28" x="789.929688"/>
      <use xlink:href="#DejaVuSans-6d" x="828.943359"/>
      <use xlink:href="#DejaVuSans-6f" x="926.355469"/>
      <use xlink:href="#DejaVuSans-6c" x="987.537109"/>
      <use xlink:href="#DejaVuSans-2a" x="1015.320312"/>
      <use xlink:href="#DejaVuSans-41" x="1065.320312"/>
      <use xlink:href="#DejaVuSans-29" x="1133.728516"/>
      <use xlink:href="#DejaVuSans-5d" x="1172.742188"/>
     </g>
    </g>
   </g>
   <g id="line2d_15">
    <path d="M 83.72 499.48 
L 696.24 23.76 
" clip-path="url(#p3dac4a6cff)" style="fill: none; stroke-dasharray: 5.55,2.4; stroke-dashoffset: 0; stroke: #ff0000; stroke-width: 1.5"/>
   </g>
   <g id="patch_3">
    <path d="M 83.72 499.48 
L 83.72 23.76 
" style="fill: none; stroke: #000000; stroke-width: 0.8; stroke-linejoin: miter; stroke-linecap: square"/>
   </g>
   <g id="patch_4">
    <path d="M 696.24 499.48 
L 696.24 23.76 
" style="fill: none; stroke: #000000; stroke-width: 0.8; stroke-linejoin: miter; stroke-linecap: square"/>
   </g>
   <g id="patch_5">
    <path d="M 83.72 499.48 
L 696.24 499.48 
" style="fill: none; stroke: #000000; stroke-width: 0.8; stroke-linejoin: miter; stroke-linecap: square"/>
   </g>
   <g id="patch_6">
    <path d="M 83.72 23.76 
L 696.24 23.76 
" style="fill: none; stroke: #000000; stroke-width: 0.8; stroke-linejoin: miter; stroke-linecap: square"/>
   </g>
   <g id="text_17">
    <!-- Correlation in: 0.704 -->
    <g transform="translate(144.972 71.332) scale(0.22 -0.22)">
     <defs>
      <path id="DejaVuSans-43" d="M 4122 4306 
L 4122 3641 
Q 3803 3938 3442 4084 
Q 3081 4231 2675 4231 
Q 1875 4231 1450 3742 
Q 1025 3253 1025 2328 
Q 1025 1406 1450 917 
Q 1875 428 2675 428 
Q 3081 428 3442 575 
Q 3803 722 4122 1019 
L 4122 359 
Q 3791 134 3420 21 
Q 3050 -91 2638 -91 
Q 1578 -91 968 557 
Q 359 1206 359 2328 
Q 359 3453 968 4101 
Q 1578 4750 2638 4750 
Q 3056 4750 3426 4639 
Q 3797 4528 4122 4306 
z
" transform="scale(0.015625)"/>
      <path id="DejaVuSans-3a" d="M 750 794 
L 1409 794 
L 1409 0 
L 750 0 
L 750 794 
z
M 750 3309 
L 1409 3309 
L 1409 2516 
L 750 2516 
L 750 3309 
z
" transform="scale(0.015625)"/>
      <path id="DejaVuSans-2e" d="M 684 794 
L 1344 794 
L 1344 0 
L 684 0 
L 684 794 
z
" transform="scale(0.015625)"/>
     </defs>
     <use xlink:href="#DejaVuSans-43"/>
     <use xlink:href="#DejaVuSans-6f" x="69.824219"/>
     <use xlink:href="#DejaVuSans-72" x="131.005859"/>
     <use xlink:href="#DejaVuSans-72" x="170.369141"/>
     <use xlink:href="#DejaVuSans-65" x="209.232422"/>
     <use xlink:href="#DejaVuSans-6c" x="270.755859"/>
     <use xlink:href="#DejaVuSans-61" x="298.539062"/>
     <use xlink:href="#DejaVuSans-74" x="359.818359"/>
     <use xlink:href="#DejaVuSans-69" x="399.027344"/>
     <use xlink:href="#DejaVuSans-6f" x="426.810547"/>
     <use xlink:href="#DejaVuSans-6e" x="487.992188"/>
     <use xlink:href="#DejaVuSans-20" x="551.371094"/>
     <use xlink:href="#DejaVuSans-69" x="583.158203"/>
     <use xlink:href="#DejaVuSans-6e" x="610.941406"/>
     <use xlink:href="#DejaVuSans-3a" x="674.320312"/>
     <use xlink:href="#DejaVuSans-20" x="708.011719"/>
     <use xlink:href="#DejaVuSans-30" x="739.798828"/>
     <use xlink:href="#DejaVuSans-2e" x="803.421875"/>
     <use xlink:href="#DejaVuSans-37" x="835.208984"/>
     <use xlink:href="#DejaVuSans-30" x="898.832031"/>
     <use xlink:href="#DejaVuSans-34" x="962.455078"/>
    </g>
   </g>
  </g>
 </g>
 <defs>
  <clipPath id="p3dac4a6cff">
   <rect x="83.72" y="23.76" width="612.52" height="475.72"/>
  </clipPath>
 </defs>
</svg>
