<?xml version="1.0" encoding="utf-8" standalone="no"?>
<!DOCTYPE svg PUBLIC "-//W3C//DTD SVG 1.1//EN"
  "http://www.w3.org/Graphics/SVG/1.1/DTD/svg11.dtd">
<svg xmlns:xlink="http://www.w3.org/1999/xlink" width="720pt" height="576pt" viewBox="0 0 720 576" xmlns="http://www.w3.org/2000/svg" version="1.1">
 <metadata>
  <rdf:RDF xmlns:dc="http://purl.org/dc/elements/1.1/" xmlns:cc="http://creativecommons.org/ns#" xmlns:rdf="http://www.w3.org/1999/02/22-rdf-syntax-ns#">
   <cc:Work>
    <dc:type rdf:resource="http://purl.org/dc/dcmitype/StillImage"/>
    <dc:date>2024-12-07T23:49:07.766953</dc:date>
    <dc:format>image/svg+xml</dc:format>
    <dc:creator>
     <cc:Agent>
      <dc:title>Matplotlib v3.8.4, https://matplotlib.org/</dc:title>
     </cc:Agent>
    </dc:creator>
   </cc:Work>
  </rdf:RDF>
 </metadata>
 <defs>
  <style type="text/css">*{stroke-linejoin: round; stroke-linecap: butt}</style>
 </defs>
 <g id="figure_1">
  <g id="patch_1">
   <path d="M 0 576 
L 720 576 
L 720 0 
L 0 0 
z
" style="fill: #ffffff"/>
  </g>
  <g id="axes_1">
   <g id="patch_2">
    <path d="M 83.72 499.48 
L 696.24 499.48 
L 696.24 23.76 
L 83.72 23.76 
z
" style="fill: #ffffff"/>
   </g>
   <g id="QuadContourSet_1">
    <path d="M 87.597986 502.768859 
L 88.624881 503.451303 
L 89.651777 503.812843 
L 90.678672 504.01394 
L 91.705567 504.116119 
L 92.732462 504.137603 
L 93.759357 504.074808 
L 94.786253 503.893017 
L 95.813148 503.529196 
L 96.840043 502.889269 
L 97.297575 502.50121 
L 97.866938 502.273054 
L 98.893834 501.783845 
L 99.920729 501.128314 
L 100.947624 500.245318 
L 101.229113 499.95769 
L 101.974519 499.520009 
L 103.001414 498.68255 
L 104.017889 497.414171 
L 104.02831 497.405062 
L 105.055205 496.48062 
L 106.0821 495.125482 
L 106.273167 494.870651 
L 107.108995 493.916366 
L 108.135891 492.330603 
L 108.138237 492.327132 
L 109.162786 490.682581 
L 109.638566 489.783613 
L 110.189681 488.290129 
L 110.575319 487.240093 
L 111.061605 484.696574 
L 111.216576 482.37154 
L 111.235402 482.153055 
L 111.295962 479.609535 
L 111.216576 478.622813 
L 111.091016 477.066016 
L 110.189681 475.119143 
L 109.644187 474.522497 
L 109.162786 474.090223 
L 108.135891 473.163238 
L 107.108995 472.362531 
L 106.405373 471.978977 
L 106.0821 471.744376 
L 105.055205 471.398169 
L 104.02831 471.311811 
L 103.001414 471.195936 
L 101.974519 470.897813 
L 100.947624 470.584245 
L 99.920729 470.527416 
L 98.893834 470.780921 
L 97.866938 471.356549 
L 97.213497 471.978977 
L 96.840043 472.178604 
L 95.813148 472.967555 
L 94.786253 474.288318 
L 94.639313 474.522497 
L 93.759357 475.369975 
L 92.732462 477.066016 
L 92.732462 477.066016 
L 91.705567 478.257389 
L 90.976538 479.609535 
L 90.678672 480.025005 
L 89.651777 481.900058 
L 89.52753 482.153055 
L 88.624881 483.723567 
L 88.172744 484.696574 
L 87.597986 485.964761 
L 87.05572 487.240093 
L 86.571091 488.668436 
L 86.158304 489.783613 
L 85.558087 492.327132 
L 85.544196 492.429994 
L 85.060544 494.870651 
L 84.962622 497.414171 
L 85.484664 499.95769 
L 85.544196 500.088282 
L 86.571091 501.797011 
L 87.326229 502.50121 
z
M 90.678672 499.95769 
L 90.678672 499.95769 
L 89.651777 499.471401 
L 88.624881 498.424166 
L 88.030141 497.414171 
L 87.597986 495.71341 
L 87.435522 494.870651 
L 87.597986 492.741308 
L 87.61943 492.327132 
L 88.165423 489.783613 
L 88.624881 488.505931 
L 89.045096 487.240093 
L 89.651777 485.841241 
L 90.180178 484.696574 
L 90.678672 483.687897 
L 91.602228 482.153055 
L 91.705567 481.962532 
L 92.732462 480.308138 
L 93.322601 479.609535 
L 93.759357 478.947062 
L 94.786253 477.79893 
L 95.752254 477.066016 
L 95.813148 476.998224 
L 96.840043 476.154458 
L 97.866938 475.60848 
L 98.893834 475.293015 
L 99.920729 475.164339 
L 100.947624 475.143122 
L 101.974519 475.153901 
L 103.001414 475.198049 
L 104.02831 475.379719 
L 105.055205 475.883611 
L 106.0821 476.857042 
L 106.257233 477.066016 
L 107.108995 478.355987 
L 107.717123 479.609535 
L 108.093884 482.153055 
L 107.905343 484.696574 
L 107.293765 487.240093 
L 107.108995 487.713673 
L 106.304562 489.783613 
L 106.0821 490.217125 
L 105.055205 492.049626 
L 104.882741 492.327132 
L 104.02831 493.633935 
L 103.001414 494.792383 
L 102.925028 494.870651 
L 101.974519 496.017509 
L 100.947624 496.93129 
L 100.273564 497.414171 
L 99.920729 497.779336 
L 98.893834 498.718836 
L 97.866938 499.368503 
L 96.840043 499.823684 
L 96.379185 499.95769 
L 95.813148 500.241988 
L 94.786253 500.505638 
L 93.759357 500.587627 
L 92.732462 500.523148 
L 91.705567 500.318982 
z
" clip-path="url(#p4f4902f68d)" style="fill: #ecf4fb"/>
    <path d="M 91.705567 500.318982 
L 92.732462 500.523148 
L 93.759357 500.587627 
L 94.786253 500.505638 
L 95.813148 500.241988 
L 96.379185 499.95769 
L 96.840043 499.823684 
L 97.866938 499.368503 
L 98.893834 498.718836 
L 99.920729 497.779336 
L 100.273564 497.414171 
L 100.947624 496.93129 
L 101.974519 496.017509 
L 102.925028 494.870651 
L 103.001414 494.792383 
L 104.02831 493.633935 
L 104.882741 492.327132 
L 105.055205 492.049626 
L 106.0821 490.217125 
L 106.304562 489.783613 
L 107.108995 487.713673 
L 107.293765 487.240093 
L 107.905343 484.696574 
L 108.093884 482.153055 
L 107.717123 479.609535 
L 107.108995 478.355987 
L 106.257233 477.066016 
L 106.0821 476.857042 
L 105.055205 475.883611 
L 104.02831 475.379719 
L 103.001414 475.198049 
L 101.974519 475.153901 
L 100.947624 475.143122 
L 99.920729 475.164339 
L 98.893834 475.293015 
L 97.866938 475.60848 
L 96.840043 476.154458 
L 95.813148 476.998224 
L 95.752254 477.066016 
L 94.786253 477.79893 
L 93.759357 478.947062 
L 93.322601 479.609535 
L 92.732462 480.308138 
L 91.705567 481.962532 
L 91.602228 482.153055 
L 90.678672 483.687897 
L 90.180178 484.696574 
L 89.651777 485.841241 
L 89.045096 487.240093 
L 88.624881 488.505931 
L 88.165423 489.783613 
L 87.61943 492.327132 
L 87.597986 492.741308 
L 87.435522 494.870651 
L 87.597986 495.71341 
L 88.030141 497.414171 
L 88.624881 498.424166 
L 89.651777 499.471401 
L 90.678672 499.95769 
L 90.678672 499.95769 
z
M 90.678672 497.414171 
L 90.678672 497.414171 
L 89.651777 496.051788 
L 89.145303 494.870651 
L 88.936899 492.327132 
L 89.362237 489.783613 
L 89.651777 488.944488 
L 90.199621 487.240093 
L 90.678672 486.163959 
L 91.384532 484.696574 
L 91.705567 484.090257 
L 92.732462 482.467641 
L 92.973995 482.153055 
L 93.759357 481.049437 
L 94.786253 480.00686 
L 95.317798 479.609535 
L 95.813148 479.134544 
L 96.840043 478.405047 
L 97.866938 477.917898 
L 98.893834 477.623352 
L 99.920729 477.467177 
L 100.947624 477.396696 
L 101.974519 477.40167 
L 103.001414 477.557966 
L 104.02831 478.044032 
L 105.055205 479.074689 
L 105.418381 479.609535 
L 106.0821 481.619335 
L 106.225943 482.153055 
L 106.209095 484.696574 
L 106.0821 485.242464 
L 105.683043 487.240093 
L 105.055205 488.821713 
L 104.669121 489.783613 
L 104.02831 490.950307 
L 103.126543 492.327132 
L 103.001414 492.507755 
L 101.974519 493.900922 
L 101.009045 494.870651 
L 100.947624 494.943212 
L 99.920729 496.090712 
L 98.893834 496.89976 
L 98.024004 497.414171 
L 97.866938 497.54619 
L 96.840043 498.139597 
L 95.813148 498.465839 
L 94.786253 498.596173 
L 93.759357 498.56396 
L 92.732462 498.379724 
L 91.705567 498.031626 
z
" clip-path="url(#p4f4902f68d)" style="fill: #d5e5f4"/>
    <path d="M 91.705567 498.031626 
L 92.732462 498.379724 
L 93.759357 498.56396 
L 94.786253 498.596173 
L 95.813148 498.465839 
L 96.840043 498.139597 
L 97.866938 497.54619 
L 98.024004 497.414171 
L 98.893834 496.89976 
L 99.920729 496.090712 
L 100.947624 494.943212 
L 101.009045 494.870651 
L 101.974519 493.900922 
L 103.001414 492.507755 
L 103.126543 492.327132 
L 104.02831 490.950307 
L 104.669121 489.783613 
L 105.055205 488.821713 
L 105.683043 487.240093 
L 106.0821 485.242464 
L 106.209095 484.696574 
L 106.225943 482.153055 
L 106.0821 481.619335 
L 105.418381 479.609535 
L 105.055205 479.074689 
L 104.02831 478.044032 
L 103.001414 477.557966 
L 101.974519 477.40167 
L 100.947624 477.396696 
L 99.920729 477.467177 
L 98.893834 477.623352 
L 97.866938 477.917898 
L 96.840043 478.405047 
L 95.813148 479.134544 
L 95.317798 479.609535 
L 94.786253 480.00686 
L 93.759357 481.049437 
L 92.973995 482.153055 
L 92.732462 482.467641 
L 91.705567 484.090257 
L 91.384532 484.696574 
L 90.678672 486.163959 
L 90.199621 487.240093 
L 89.651777 488.944488 
L 89.362237 489.783613 
L 88.936899 492.327132 
L 89.145303 494.870651 
L 89.651777 496.051788 
L 90.678672 497.414171 
L 90.678672 497.414171 
z
M 90.600377 494.870651 
L 90.029498 492.327132 
L 90.297989 489.783613 
L 90.678672 488.610213 
L 91.1029 487.240093 
L 91.705567 485.956509 
L 92.364259 484.696574 
L 92.732462 484.080023 
L 93.759357 482.677125 
L 94.248548 482.153055 
L 94.786253 481.537827 
L 95.813148 480.637645 
L 96.840043 479.998258 
L 97.722456 479.609535 
L 97.866938 479.526442 
L 98.893834 479.134314 
L 99.920729 478.924526 
L 100.947624 478.854436 
L 101.974519 478.948609 
L 103.001414 479.334957 
L 103.364015 479.609535 
L 104.02831 480.301404 
L 104.933121 482.153055 
L 105.055205 484.441544 
L 105.06789 484.696574 
L 105.055205 484.754794 
L 104.595209 487.240093 
L 104.02831 488.650541 
L 103.571636 489.783613 
L 103.001414 490.792064 
L 101.974519 492.327132 
L 101.974519 492.327132 
L 100.947624 493.706913 
L 99.920729 494.72893 
L 99.753854 494.870651 
L 98.893834 495.705966 
L 97.866938 496.383497 
L 96.840043 496.816631 
L 95.813148 497.049123 
L 94.786253 497.107559 
L 93.759357 496.993605 
L 92.732462 496.698024 
L 91.705567 496.142167 
L 90.678672 495.001695 
z
" clip-path="url(#p4f4902f68d)" style="fill: #b9d6ea"/>
    <path d="M 90.678672 495.001695 
L 91.705567 496.142167 
L 92.732462 496.698024 
L 93.759357 496.993605 
L 94.786253 497.107559 
L 95.813148 497.049123 
L 96.840043 496.816631 
L 97.866938 496.383497 
L 98.893834 495.705966 
L 99.753854 494.870651 
L 99.920729 494.72893 
L 100.947624 493.706913 
L 101.974519 492.327132 
L 101.974519 492.327132 
L 103.001414 490.792064 
L 103.571636 489.783613 
L 104.02831 488.650541 
L 104.595209 487.240093 
L 105.055205 484.754794 
L 105.06789 484.696574 
L 105.055205 484.441544 
L 104.933121 482.153055 
L 104.02831 480.301404 
L 103.364015 479.609535 
L 103.001414 479.334957 
L 101.974519 478.948609 
L 100.947624 478.854436 
L 99.920729 478.924526 
L 98.893834 479.134314 
L 97.866938 479.526442 
L 97.722456 479.609535 
L 96.840043 479.998258 
L 95.813148 480.637645 
L 94.786253 481.537827 
L 94.248548 482.153055 
L 93.759357 482.677125 
L 92.732462 484.080023 
L 92.364259 484.696574 
L 91.705567 485.956509 
L 91.1029 487.240093 
L 90.678672 488.610213 
L 90.297989 489.783613 
L 90.029498 492.327132 
L 90.600377 494.870651 
z
M 92.582388 494.870651 
L 91.705567 493.681263 
L 91.201885 492.327132 
L 91.29398 489.783613 
L 91.705567 488.44607 
L 92.070857 487.240093 
L 92.732462 485.945686 
L 93.467917 484.696574 
L 93.759357 484.279004 
L 94.786253 483.066951 
L 95.813148 482.153055 
L 95.813148 482.153055 
L 96.840043 481.375122 
L 97.866938 480.854481 
L 98.893834 480.530958 
L 99.920729 480.365545 
L 100.947624 480.36122 
L 101.974519 480.613626 
L 103.001414 481.363494 
L 103.562504 482.153055 
L 104.02831 484.586 
L 104.043273 484.696574 
L 104.02831 484.774401 
L 103.627657 487.240093 
L 103.001414 488.793397 
L 102.604178 489.783613 
L 101.974519 490.858916 
L 100.967165 492.327132 
L 100.947624 492.353388 
L 99.920729 493.562452 
L 98.893834 494.452097 
L 98.237749 494.870651 
L 97.866938 495.13455 
L 96.840043 495.573992 
L 95.813148 495.761727 
L 94.786253 495.723763 
L 93.759357 495.469496 
L 92.732462 494.982033 
z
" clip-path="url(#p4f4902f68d)" style="fill: #8fc2de"/>
    <path d="M 92.732462 494.982033 
L 93.759357 495.469496 
L 94.786253 495.723763 
L 95.813148 495.761727 
L 96.840043 495.573992 
L 97.866938 495.13455 
L 98.237749 494.870651 
L 98.893834 494.452097 
L 99.920729 493.562452 
L 100.947624 492.353388 
L 100.967165 492.327132 
L 101.974519 490.858916 
L 102.604178 489.783613 
L 103.001414 488.793397 
L 103.627657 487.240093 
L 104.02831 484.774401 
L 104.043273 484.696574 
L 104.02831 484.586 
L 103.562504 482.153055 
L 103.001414 481.363494 
L 101.974519 480.613626 
L 100.947624 480.36122 
L 99.920729 480.365545 
L 98.893834 480.530958 
L 97.866938 480.854481 
L 96.840043 481.375122 
L 95.813148 482.153055 
L 95.813148 482.153055 
L 94.786253 483.066951 
L 93.759357 484.279004 
L 93.467917 484.696574 
L 92.732462 485.945686 
L 92.070857 487.240093 
L 91.705567 488.44607 
L 91.29398 489.783613 
L 91.201885 492.327132 
L 91.705567 493.681263 
L 92.582388 494.870651 
z
M 92.086624 492.327132 
L 92.010923 489.783613 
L 92.732462 487.382632 
L 92.775293 487.240093 
L 93.759357 485.508043 
L 94.300174 484.696574 
L 94.786253 484.101282 
L 95.813148 483.106248 
L 96.840043 482.357898 
L 97.221758 482.153055 
L 97.866938 481.800536 
L 98.893834 481.460379 
L 99.920729 481.311291 
L 100.947624 481.376773 
L 101.974519 481.791845 
L 102.382652 482.153055 
L 103.001414 483.4156 
L 103.335067 484.696574 
L 103.001414 487.240093 
L 103.001414 487.240093 
L 101.981053 489.783613 
L 101.974519 489.79477 
L 100.947624 491.402007 
L 100.250866 492.327132 
L 99.920729 492.717002 
L 98.893834 493.640646 
L 97.866938 494.283062 
L 96.840043 494.676785 
L 95.813148 494.826523 
L 94.786253 494.705294 
L 93.759357 494.285585 
L 92.732462 493.419393 
z
" clip-path="url(#p4f4902f68d)" style="fill: #64a9d3"/>
    <path d="M 92.732462 493.419393 
L 93.759357 494.285585 
L 94.786253 494.705294 
L 95.813148 494.826523 
L 96.840043 494.676785 
L 97.866938 494.283062 
L 98.893834 493.640646 
L 99.920729 492.717002 
L 100.250866 492.327132 
L 100.947624 491.402007 
L 101.974519 489.79477 
L 101.981053 489.783613 
L 103.001414 487.240093 
L 103.001414 487.240093 
L 103.335067 484.696574 
L 103.001414 483.4156 
L 102.382652 482.153055 
L 101.974519 481.791845 
L 100.947624 481.376773 
L 99.920729 481.311291 
L 98.893834 481.460379 
L 97.866938 481.800536 
L 97.221758 482.153055 
L 96.840043 482.357898 
L 95.813148 483.106248 
L 94.786253 484.101282 
L 94.300174 484.696574 
L 93.759357 485.508043 
L 92.775293 487.240093 
L 92.732462 487.382632 
L 92.010923 489.783613 
L 92.086624 492.327132 
z
M 93.759357 492.327132 
L 93.759357 492.327132 
L 93.157589 489.783613 
L 93.759357 487.700329 
L 93.891975 487.240093 
L 94.786253 485.869189 
L 95.685665 484.696574 
L 95.813148 484.567249 
L 96.840043 483.782089 
L 97.866938 483.244791 
L 98.893834 482.926005 
L 99.920729 482.847571 
L 100.947624 483.154721 
L 101.974519 484.303718 
L 102.153491 484.696574 
L 102.074035 487.240093 
L 101.974519 487.488118 
L 101.050683 489.783613 
L 100.947624 489.945034 
L 99.920729 491.297579 
L 98.970106 492.327132 
L 98.893834 492.3969 
L 97.866938 493.011842 
L 96.840043 493.320406 
L 95.813148 493.324309 
L 94.786253 493.008886 
z
" clip-path="url(#p4f4902f68d)" style="fill: #3e8ec4"/>
    <path d="M 94.786253 493.008886 
L 95.813148 493.324309 
L 96.840043 493.320406 
L 97.866938 493.011842 
L 98.893834 492.3969 
L 98.970106 492.327132 
L 99.920729 491.297579 
L 100.947624 489.945034 
L 101.050683 489.783613 
L 101.974519 487.488118 
L 102.074035 487.240093 
L 102.153491 484.696574 
L 101.974519 484.303718 
L 100.947624 483.154721 
L 99.920729 482.847571 
L 98.893834 482.926005 
L 97.866938 483.244791 
L 96.840043 483.782089 
L 95.813148 484.567249 
L 95.685665 484.696574 
L 94.786253 485.869189 
L 93.891975 487.240093 
L 93.759357 487.700329 
L 93.157589 489.783613 
L 93.759357 492.327132 
L 93.759357 492.327132 
z
M 95.813148 492.327132 
L 95.813148 492.327132 
L 94.786253 491.427367 
L 94.032851 489.783613 
L 94.705036 487.240093 
L 94.786253 487.11559 
L 95.813148 485.825737 
L 96.840043 484.742923 
L 96.901185 484.696574 
L 97.866938 484.202257 
L 98.893834 483.924692 
L 99.920729 483.947062 
L 100.947624 484.481117 
L 101.124645 484.696574 
L 101.371748 487.240093 
L 100.947624 488.294481 
L 100.32854 489.783613 
L 99.920729 490.320062 
L 98.893834 491.354247 
L 97.866938 492.097123 
L 97.203204 492.327132 
L 96.840043 492.420034 
z
" clip-path="url(#p4f4902f68d)" style="fill: #206fb4"/>
    <path d="M 96.840043 492.420034 
L 97.203204 492.327132 
L 97.866938 492.097123 
L 98.893834 491.354247 
L 99.920729 490.320062 
L 100.32854 489.783613 
L 100.947624 488.294481 
L 101.371748 487.240093 
L 101.124645 484.696574 
L 100.947624 484.481117 
L 99.920729 483.947062 
L 98.893834 483.924692 
L 97.866938 484.202257 
L 96.901185 484.696574 
L 96.840043 484.742923 
L 95.813148 485.825737 
L 94.786253 487.11559 
L 94.705036 487.240093 
L 94.032851 489.783613 
L 94.786253 491.427367 
L 95.813148 492.327132 
L 95.813148 492.327132 
z
M 95.324092 489.783613 
L 95.813148 487.240093 
L 95.813148 487.240093 
L 96.840043 486.282262 
L 97.866938 485.595648 
L 98.893834 485.292171 
L 99.920729 485.814192 
L 100.444124 487.240093 
L 99.920729 488.485858 
L 99.327539 489.783613 
L 98.893834 490.200656 
L 97.866938 490.773102 
L 96.840043 490.886826 
L 95.813148 490.378797 
z
" clip-path="url(#p4f4902f68d)" style="fill: #0c56a0"/>
    <path d="M 95.813148 490.378797 
L 96.840043 490.886826 
L 97.866938 490.773102 
L 98.893834 490.200656 
L 99.327539 489.783613 
L 99.920729 488.485858 
L 100.444124 487.240093 
L 99.920729 485.814192 
L 98.893834 485.292171 
L 97.866938 485.595648 
L 96.840043 486.282262 
L 95.813148 487.240093 
L 95.813148 487.240093 
L 95.324092 489.783613 
z
" clip-path="url(#p4f4902f68d)" style="fill: #083c7d"/>
   </g>
   <g id="matplotlib.axis_1">
    <g id="xtick_1">
     <g id="line2d_1">
      <defs>
       <path id="m369a31c216" d="M 0 0 
L 0 3.5 
" style="stroke: #000000; stroke-width: 0.8"/>
      </defs>
      <g>
       <use xlink:href="#m369a31c216" x="166.81165" y="499.48" style="stroke: #000000; stroke-width: 0.8"/>
      </g>
     </g>
     <g id="text_1">
      <!-- 10 -->
      <g transform="translate(152.81415 523.196563) scale(0.22 -0.22)">
       <defs>
        <path id="DejaVuSans-31" d="M 794 531 
L 1825 531 
L 1825 4091 
L 703 3866 
L 703 4441 
L 1819 4666 
L 2450 4666 
L 2450 531 
L 3481 531 
L 3481 0 
L 794 0 
L 794 531 
z
" transform="scale(0.015625)"/>
        <path id="DejaVuSans-30" d="M 2034 4250 
Q 1547 4250 1301 3770 
Q 1056 3291 1056 2328 
Q 1056 1369 1301 889 
Q 1547 409 2034 409 
Q 2525 409 2770 889 
Q 3016 1369 3016 2328 
Q 3016 3291 2770 3770 
Q 2525 4250 2034 4250 
z
M 2034 4750 
Q 2819 4750 3233 4129 
Q 3647 3509 3647 2328 
Q 3647 1150 3233 529 
Q 2819 -91 2034 -91 
Q 1250 -91 836 529 
Q 422 1150 422 2328 
Q 422 3509 836 4129 
Q 1250 4750 2034 4750 
z
" transform="scale(0.015625)"/>
       </defs>
       <use xlink:href="#DejaVuSans-31"/>
       <use xlink:href="#DejaVuSans-30" x="63.623047"/>
      </g>
     </g>
    </g>
    <g id="xtick_2">
     <g id="line2d_2">
      <g>
       <use xlink:href="#m369a31c216" x="251.973471" y="499.48" style="stroke: #000000; stroke-width: 0.8"/>
      </g>
     </g>
     <g id="text_2">
      <!-- 20 -->
      <g transform="translate(237.975971 523.196563) scale(0.22 -0.22)">
       <defs>
        <path id="DejaVuSans-32" d="M 1228 531 
L 3431 531 
L 3431 0 
L 469 0 
L 469 531 
Q 828 903 1448 1529 
Q 2069 2156 2228 2338 
Q 2531 2678 2651 2914 
Q 2772 3150 2772 3378 
Q 2772 3750 2511 3984 
Q 2250 4219 1831 4219 
Q 1534 4219 1204 4116 
Q 875 4013 500 3803 
L 500 4441 
Q 881 4594 1212 4672 
Q 1544 4750 1819 4750 
Q 2544 4750 2975 4387 
Q 3406 4025 3406 3419 
Q 3406 3131 3298 2873 
Q 3191 2616 2906 2266 
Q 2828 2175 2409 1742 
Q 1991 1309 1228 531 
z
" transform="scale(0.015625)"/>
       </defs>
       <use xlink:href="#DejaVuSans-32"/>
       <use xlink:href="#DejaVuSans-30" x="63.623047"/>
      </g>
     </g>
    </g>
    <g id="xtick_3">
     <g id="line2d_3">
      <g>
       <use xlink:href="#m369a31c216" x="337.135292" y="499.48" style="stroke: #000000; stroke-width: 0.8"/>
      </g>
     </g>
     <g id="text_3">
      <!-- 30 -->
      <g transform="translate(323.137792 523.196563) scale(0.22 -0.22)">
       <defs>
        <path id="DejaVuSans-33" d="M 2597 2516 
Q 3050 2419 3304 2112 
Q 3559 1806 3559 1356 
Q 3559 666 3084 287 
Q 2609 -91 1734 -91 
Q 1441 -91 1130 -33 
Q 819 25 488 141 
L 488 750 
Q 750 597 1062 519 
Q 1375 441 1716 441 
Q 2309 441 2620 675 
Q 2931 909 2931 1356 
Q 2931 1769 2642 2001 
Q 2353 2234 1838 2234 
L 1294 2234 
L 1294 2753 
L 1863 2753 
Q 2328 2753 2575 2939 
Q 2822 3125 2822 3475 
Q 2822 3834 2567 4026 
Q 2313 4219 1838 4219 
Q 1578 4219 1281 4162 
Q 984 4106 628 3988 
L 628 4550 
Q 988 4650 1302 4700 
Q 1616 4750 1894 4750 
Q 2613 4750 3031 4423 
Q 3450 4097 3450 3541 
Q 3450 3153 3228 2886 
Q 3006 2619 2597 2516 
z
" transform="scale(0.015625)"/>
       </defs>
       <use xlink:href="#DejaVuSans-33"/>
       <use xlink:href="#DejaVuSans-30" x="63.623047"/>
      </g>
     </g>
    </g>
    <g id="xtick_4">
     <g id="line2d_4">
      <g>
       <use xlink:href="#m369a31c216" x="422.297113" y="499.48" style="stroke: #000000; stroke-width: 0.8"/>
      </g>
     </g>
     <g id="text_4">
      <!-- 40 -->
      <g transform="translate(408.299613 523.196563) scale(0.22 -0.22)">
       <defs>
        <path id="DejaVuSans-34" d="M 2419 4116 
L 825 1625 
L 2419 1625 
L 2419 4116 
z
M 2253 4666 
L 3047 4666 
L 3047 1625 
L 3713 1625 
L 3713 1100 
L 3047 1100 
L 3047 0 
L 2419 0 
L 2419 1100 
L 313 1100 
L 313 1709 
L 2253 4666 
z
" transform="scale(0.015625)"/>
       </defs>
       <use xlink:href="#DejaVuSans-34"/>
       <use xlink:href="#DejaVuSans-30" x="63.623047"/>
      </g>
     </g>
    </g>
    <g id="xtick_5">
     <g id="line2d_5">
      <g>
       <use xlink:href="#m369a31c216" x="507.458934" y="499.48" style="stroke: #000000; stroke-width: 0.8"/>
      </g>
     </g>
     <g id="text_5">
      <!-- 50 -->
      <g transform="translate(493.461434 523.196563) scale(0.22 -0.22)">
       <defs>
        <path id="DejaVuSans-35" d="M 691 4666 
L 3169 4666 
L 3169 4134 
L 1269 4134 
L 1269 2991 
Q 1406 3038 1543 3061 
Q 1681 3084 1819 3084 
Q 2600 3084 3056 2656 
Q 3513 2228 3513 1497 
Q 3513 744 3044 326 
Q 2575 -91 1722 -91 
Q 1428 -91 1123 -41 
Q 819 9 494 109 
L 494 744 
Q 775 591 1075 516 
Q 1375 441 1709 441 
Q 2250 441 2565 725 
Q 2881 1009 2881 1497 
Q 2881 1984 2565 2268 
Q 2250 2553 1709 2553 
Q 1456 2553 1204 2497 
Q 953 2441 691 2322 
L 691 4666 
z
" transform="scale(0.015625)"/>
       </defs>
       <use xlink:href="#DejaVuSans-35"/>
       <use xlink:href="#DejaVuSans-30" x="63.623047"/>
      </g>
     </g>
    </g>
    <g id="xtick_6">
     <g id="line2d_6">
      <g>
       <use xlink:href="#m369a31c216" x="592.620755" y="499.48" style="stroke: #000000; stroke-width: 0.8"/>
      </g>
     </g>
     <g id="text_6">
      <!-- 60 -->
      <g transform="translate(578.623255 523.196563) scale(0.22 -0.22)">
       <defs>
        <path id="DejaVuSans-36" d="M 2113 2584 
Q 1688 2584 1439 2293 
Q 1191 2003 1191 1497 
Q 1191 994 1439 701 
Q 1688 409 2113 409 
Q 2538 409 2786 701 
Q 3034 994 3034 1497 
Q 3034 2003 2786 2293 
Q 2538 2584 2113 2584 
z
M 3366 4563 
L 3366 3988 
Q 3128 4100 2886 4159 
Q 2644 4219 2406 4219 
Q 1781 4219 1451 3797 
Q 1122 3375 1075 2522 
Q 1259 2794 1537 2939 
Q 1816 3084 2150 3084 
Q 2853 3084 3261 2657 
Q 3669 2231 3669 1497 
Q 3669 778 3244 343 
Q 2819 -91 2113 -91 
Q 1303 -91 875 529 
Q 447 1150 447 2328 
Q 447 3434 972 4092 
Q 1497 4750 2381 4750 
Q 2619 4750 2861 4703 
Q 3103 4656 3366 4563 
z
" transform="scale(0.015625)"/>
       </defs>
       <use xlink:href="#DejaVuSans-36"/>
       <use xlink:href="#DejaVuSans-30" x="63.623047"/>
      </g>
     </g>
    </g>
    <g id="xtick_7">
     <g id="line2d_7">
      <g>
       <use xlink:href="#m369a31c216" x="677.782576" y="499.48" style="stroke: #000000; stroke-width: 0.8"/>
      </g>
     </g>
     <g id="text_7">
      <!-- 70 -->
      <g transform="translate(663.785076 523.196563) scale(0.22 -0.22)">
       <defs>
        <path id="DejaVuSans-37" d="M 525 4666 
L 3525 4666 
L 3525 4397 
L 1831 0 
L 1172 0 
L 2766 4134 
L 525 4134 
L 525 4666 
z
" transform="scale(0.015625)"/>
       </defs>
       <use xlink:href="#DejaVuSans-37"/>
       <use xlink:href="#DejaVuSans-30" x="63.623047"/>
      </g>
     </g>
    </g>
    <g id="text_8">
     <!-- Force Uncertainties -->
     <g transform="translate(283.426094 548.488438) scale(0.22 -0.22)">
      <defs>
       <path id="DejaVuSans-46" d="M 628 4666 
L 3309 4666 
L 3309 4134 
L 1259 4134 
L 1259 2759 
L 3109 2759 
L 3109 2228 
L 1259 2228 
L 1259 0 
L 628 0 
L 628 4666 
z
" transform="scale(0.015625)"/>
       <path id="DejaVuSans-6f" d="M 1959 3097 
Q 1497 3097 1228 2736 
Q 959 2375 959 1747 
Q 959 1119 1226 758 
Q 1494 397 1959 397 
Q 2419 397 2687 759 
Q 2956 1122 2956 1747 
Q 2956 2369 2687 2733 
Q 2419 3097 1959 3097 
z
M 1959 3584 
Q 2709 3584 3137 3096 
Q 3566 2609 3566 1747 
Q 3566 888 3137 398 
Q 2709 -91 1959 -91 
Q 1206 -91 779 398 
Q 353 888 353 1747 
Q 353 2609 779 3096 
Q 1206 3584 1959 3584 
z
" transform="scale(0.015625)"/>
       <path id="DejaVuSans-72" d="M 2631 2963 
Q 2534 3019 2420 3045 
Q 2306 3072 2169 3072 
Q 1681 3072 1420 2755 
Q 1159 2438 1159 1844 
L 1159 0 
L 581 0 
L 581 3500 
L 1159 3500 
L 1159 2956 
Q 1341 3275 1631 3429 
Q 1922 3584 2338 3584 
Q 2397 3584 2469 3576 
Q 2541 3569 2628 3553 
L 2631 2963 
z
" transform="scale(0.015625)"/>
       <path id="DejaVuSans-63" d="M 3122 3366 
L 3122 2828 
Q 2878 2963 2633 3030 
Q 2388 3097 2138 3097 
Q 1578 3097 1268 2742 
Q 959 2388 959 1747 
Q 959 1106 1268 751 
Q 1578 397 2138 397 
Q 2388 397 2633 464 
Q 2878 531 3122 666 
L 3122 134 
Q 2881 22 2623 -34 
Q 2366 -91 2075 -91 
Q 1284 -91 818 406 
Q 353 903 353 1747 
Q 353 2603 823 3093 
Q 1294 3584 2113 3584 
Q 2378 3584 2631 3529 
Q 2884 3475 3122 3366 
z
" transform="scale(0.015625)"/>
       <path id="DejaVuSans-65" d="M 3597 1894 
L 3597 1613 
L 953 1613 
Q 991 1019 1311 708 
Q 1631 397 2203 397 
Q 2534 397 2845 478 
Q 3156 559 3463 722 
L 3463 178 
Q 3153 47 2828 -22 
Q 2503 -91 2169 -91 
Q 1331 -91 842 396 
Q 353 884 353 1716 
Q 353 2575 817 3079 
Q 1281 3584 2069 3584 
Q 2775 3584 3186 3129 
Q 3597 2675 3597 1894 
z
M 3022 2063 
Q 3016 2534 2758 2815 
Q 2500 3097 2075 3097 
Q 1594 3097 1305 2825 
Q 1016 2553 972 2059 
L 3022 2063 
z
" transform="scale(0.015625)"/>
       <path id="DejaVuSans-20" transform="scale(0.015625)"/>
       <path id="DejaVuSans-55" d="M 556 4666 
L 1191 4666 
L 1191 1831 
Q 1191 1081 1462 751 
Q 1734 422 2344 422 
Q 2950 422 3222 751 
Q 3494 1081 3494 1831 
L 3494 4666 
L 4128 4666 
L 4128 1753 
Q 4128 841 3676 375 
Q 3225 -91 2344 -91 
Q 1459 -91 1007 375 
Q 556 841 556 1753 
L 556 4666 
z
" transform="scale(0.015625)"/>
       <path id="DejaVuSans-6e" d="M 3513 2113 
L 3513 0 
L 2938 0 
L 2938 2094 
Q 2938 2591 2744 2837 
Q 2550 3084 2163 3084 
Q 1697 3084 1428 2787 
Q 1159 2491 1159 1978 
L 1159 0 
L 581 0 
L 581 3500 
L 1159 3500 
L 1159 2956 
Q 1366 3272 1645 3428 
Q 1925 3584 2291 3584 
Q 2894 3584 3203 3211 
Q 3513 2838 3513 2113 
z
" transform="scale(0.015625)"/>
       <path id="DejaVuSans-74" d="M 1172 4494 
L 1172 3500 
L 2356 3500 
L 2356 3053 
L 1172 3053 
L 1172 1153 
Q 1172 725 1289 603 
Q 1406 481 1766 481 
L 2356 481 
L 2356 0 
L 1766 0 
Q 1100 0 847 248 
Q 594 497 594 1153 
L 594 3053 
L 172 3053 
L 172 3500 
L 594 3500 
L 594 4494 
L 1172 4494 
z
" transform="scale(0.015625)"/>
       <path id="DejaVuSans-61" d="M 2194 1759 
Q 1497 1759 1228 1600 
Q 959 1441 959 1056 
Q 959 750 1161 570 
Q 1363 391 1709 391 
Q 2188 391 2477 730 
Q 2766 1069 2766 1631 
L 2766 1759 
L 2194 1759 
z
M 3341 1997 
L 3341 0 
L 2766 0 
L 2766 531 
Q 2569 213 2275 61 
Q 1981 -91 1556 -91 
Q 1019 -91 701 211 
Q 384 513 384 1019 
Q 384 1609 779 1909 
Q 1175 2209 1959 2209 
L 2766 2209 
L 2766 2266 
Q 2766 2663 2505 2880 
Q 2244 3097 1772 3097 
Q 1472 3097 1187 3025 
Q 903 2953 641 2809 
L 641 3341 
Q 956 3463 1253 3523 
Q 1550 3584 1831 3584 
Q 2591 3584 2966 3190 
Q 3341 2797 3341 1997 
z
" transform="scale(0.015625)"/>
       <path id="DejaVuSans-69" d="M 603 3500 
L 1178 3500 
L 1178 0 
L 603 0 
L 603 3500 
z
M 603 4863 
L 1178 4863 
L 1178 4134 
L 603 4134 
L 603 4863 
z
" transform="scale(0.015625)"/>
       <path id="DejaVuSans-73" d="M 2834 3397 
L 2834 2853 
Q 2591 2978 2328 3040 
Q 2066 3103 1784 3103 
Q 1356 3103 1142 2972 
Q 928 2841 928 2578 
Q 928 2378 1081 2264 
Q 1234 2150 1697 2047 
L 1894 2003 
Q 2506 1872 2764 1633 
Q 3022 1394 3022 966 
Q 3022 478 2636 193 
Q 2250 -91 1575 -91 
Q 1294 -91 989 -36 
Q 684 19 347 128 
L 347 722 
Q 666 556 975 473 
Q 1284 391 1588 391 
Q 1994 391 2212 530 
Q 2431 669 2431 922 
Q 2431 1156 2273 1281 
Q 2116 1406 1581 1522 
L 1381 1569 
Q 847 1681 609 1914 
Q 372 2147 372 2553 
Q 372 3047 722 3315 
Q 1072 3584 1716 3584 
Q 2034 3584 2315 3537 
Q 2597 3491 2834 3397 
z
" transform="scale(0.015625)"/>
      </defs>
      <use xlink:href="#DejaVuSans-46"/>
      <use xlink:href="#DejaVuSans-6f" x="53.894531"/>
      <use xlink:href="#DejaVuSans-72" x="115.076172"/>
      <use xlink:href="#DejaVuSans-63" x="153.939453"/>
      <use xlink:href="#DejaVuSans-65" x="208.919922"/>
      <use xlink:href="#DejaVuSans-20" x="270.443359"/>
      <use xlink:href="#DejaVuSans-55" x="302.230469"/>
      <use xlink:href="#DejaVuSans-6e" x="375.423828"/>
      <use xlink:href="#DejaVuSans-63" x="438.802734"/>
      <use xlink:href="#DejaVuSans-65" x="493.783203"/>
      <use xlink:href="#DejaVuSans-72" x="555.306641"/>
      <use xlink:href="#DejaVuSans-74" x="596.419922"/>
      <use xlink:href="#DejaVuSans-61" x="635.628906"/>
      <use xlink:href="#DejaVuSans-69" x="696.908203"/>
      <use xlink:href="#DejaVuSans-6e" x="724.691406"/>
      <use xlink:href="#DejaVuSans-74" x="788.070312"/>
      <use xlink:href="#DejaVuSans-69" x="827.279297"/>
      <use xlink:href="#DejaVuSans-65" x="855.0625"/>
      <use xlink:href="#DejaVuSans-73" x="916.585938"/>
     </g>
    </g>
   </g>
   <g id="matplotlib.axis_2">
    <g id="ytick_1">
     <g id="line2d_8">
      <defs>
       <path id="m1cd8d61132" d="M 0 0 
L -3.5 0 
" style="stroke: #000000; stroke-width: 0.8"/>
      </defs>
      <g>
       <use xlink:href="#m1cd8d61132" x="83.72" y="434.94601" style="stroke: #000000; stroke-width: 0.8"/>
      </g>
     </g>
     <g id="text_9">
      <!-- 10 -->
      <g transform="translate(48.725 443.304291) scale(0.22 -0.22)">
       <use xlink:href="#DejaVuSans-31"/>
       <use xlink:href="#DejaVuSans-30" x="63.623047"/>
      </g>
     </g>
    </g>
    <g id="ytick_2">
     <g id="line2d_9">
      <g>
       <use xlink:href="#m1cd8d61132" x="83.72" y="368.8042" style="stroke: #000000; stroke-width: 0.8"/>
      </g>
     </g>
     <g id="text_10">
      <!-- 20 -->
      <g transform="translate(48.725 377.162481) scale(0.22 -0.22)">
       <use xlink:href="#DejaVuSans-32"/>
       <use xlink:href="#DejaVuSans-30" x="63.623047"/>
      </g>
     </g>
    </g>
    <g id="ytick_3">
     <g id="line2d_10">
      <g>
       <use xlink:href="#m1cd8d61132" x="83.72" y="302.66239" style="stroke: #000000; stroke-width: 0.8"/>
      </g>
     </g>
     <g id="text_11">
      <!-- 30 -->
      <g transform="translate(48.725 311.020671) scale(0.22 -0.22)">
       <use xlink:href="#DejaVuSans-33"/>
       <use xlink:href="#DejaVuSans-30" x="63.623047"/>
      </g>
     </g>
    </g>
    <g id="ytick_4">
     <g id="line2d_11">
      <g>
       <use xlink:href="#m1cd8d61132" x="83.72" y="236.52058" style="stroke: #000000; stroke-width: 0.8"/>
      </g>
     </g>
     <g id="text_12">
      <!-- 40 -->
      <g transform="translate(48.725 244.878861) scale(0.22 -0.22)">
       <use xlink:href="#DejaVuSans-34"/>
       <use xlink:href="#DejaVuSans-30" x="63.623047"/>
      </g>
     </g>
    </g>
    <g id="ytick_5">
     <g id="line2d_12">
      <g>
       <use xlink:href="#m1cd8d61132" x="83.72" y="170.37877" style="stroke: #000000; stroke-width: 0.8"/>
      </g>
     </g>
     <g id="text_13">
      <!-- 50 -->
      <g transform="translate(48.725 178.737051) scale(0.22 -0.22)">
       <use xlink:href="#DejaVuSans-35"/>
       <use xlink:href="#DejaVuSans-30" x="63.623047"/>
      </g>
     </g>
    </g>
    <g id="ytick_6">
     <g id="line2d_13">
      <g>
       <use xlink:href="#m1cd8d61132" x="83.72" y="104.236959" style="stroke: #000000; stroke-width: 0.8"/>
      </g>
     </g>
     <g id="text_14">
      <!-- 60 -->
      <g transform="translate(48.725 112.595241) scale(0.22 -0.22)">
       <use xlink:href="#DejaVuSans-36"/>
       <use xlink:href="#DejaVuSans-30" x="63.623047"/>
      </g>
     </g>
    </g>
    <g id="ytick_7">
     <g id="line2d_14">
      <g>
       <use xlink:href="#m1cd8d61132" x="83.72" y="38.095149" style="stroke: #000000; stroke-width: 0.8"/>
      </g>
     </g>
     <g id="text_15">
      <!-- 70 -->
      <g transform="translate(48.725 46.453431) scale(0.22 -0.22)">
       <use xlink:href="#DejaVuSans-37"/>
       <use xlink:href="#DejaVuSans-30" x="63.623047"/>
      </g>
     </g>
    </g>
    <g id="text_16">
     <!-- Force Errors [kJ/(mol*A)] -->
     <g transform="translate(40.149688 394.9125) rotate(-90) scale(0.22 -0.22)">
      <defs>
       <path id="DejaVuSans-45" d="M 628 4666 
L 3578 4666 
L 3578 4134 
L 1259 4134 
L 1259 2753 
L 3481 2753 
L 3481 2222 
L 1259 2222 
L 1259 531 
L 3634 531 
L 3634 0 
L 628 0 
L 628 4666 
z
" transform="scale(0.015625)"/>
       <path id="DejaVuSans-5b" d="M 550 4863 
L 1875 4863 
L 1875 4416 
L 1125 4416 
L 1125 -397 
L 1875 -397 
L 1875 -844 
L 550 -844 
L 550 4863 
z
" transform="scale(0.015625)"/>
       <path id="DejaVuSans-6b" d="M 581 4863 
L 1159 4863 
L 1159 1991 
L 2875 3500 
L 3609 3500 
L 1753 1863 
L 3688 0 
L 2938 0 
L 1159 1709 
L 1159 0 
L 581 0 
L 581 4863 
z
" transform="scale(0.015625)"/>
       <path id="DejaVuSans-4a" d="M 628 4666 
L 1259 4666 
L 1259 325 
Q 1259 -519 939 -900 
Q 619 -1281 -91 -1281 
L -331 -1281 
L -331 -750 
L -134 -750 
Q 284 -750 456 -515 
Q 628 -281 628 325 
L 628 4666 
z
" transform="scale(0.015625)"/>
       <path id="DejaVuSans-2f" d="M 1625 4666 
L 2156 4666 
L 531 -594 
L 0 -594 
L 1625 4666 
z
" transform="scale(0.015625)"/>
       <path id="DejaVuSans-28" d="M 1984 4856 
Q 1566 4138 1362 3434 
Q 1159 2731 1159 2009 
Q 1159 1288 1364 580 
Q 1569 -128 1984 -844 
L 1484 -844 
Q 1016 -109 783 600 
Q 550 1309 550 2009 
Q 550 2706 781 3412 
Q 1013 4119 1484 4856 
L 1984 4856 
z
" transform="scale(0.015625)"/>
       <path id="DejaVuSans-6d" d="M 3328 2828 
Q 3544 3216 3844 3400 
Q 4144 3584 4550 3584 
Q 5097 3584 5394 3201 
Q 5691 2819 5691 2113 
L 5691 0 
L 5113 0 
L 5113 2094 
Q 5113 2597 4934 2840 
Q 4756 3084 4391 3084 
Q 3944 3084 3684 2787 
Q 3425 2491 3425 1978 
L 3425 0 
L 2847 0 
L 2847 2094 
Q 2847 2600 2669 2842 
Q 2491 3084 2119 3084 
Q 1678 3084 1418 2786 
Q 1159 2488 1159 1978 
L 1159 0 
L 581 0 
L 581 3500 
L 1159 3500 
L 1159 2956 
Q 1356 3278 1631 3431 
Q 1906 3584 2284 3584 
Q 2666 3584 2933 3390 
Q 3200 3197 3328 2828 
z
" transform="scale(0.015625)"/>
       <path id="DejaVuSans-6c" d="M 603 4863 
L 1178 4863 
L 1178 0 
L 603 0 
L 603 4863 
z
" transform="scale(0.015625)"/>
       <path id="DejaVuSans-2a" d="M 3009 3897 
L 1888 3291 
L 3009 2681 
L 2828 2375 
L 1778 3009 
L 1778 1831 
L 1422 1831 
L 1422 3009 
L 372 2375 
L 191 2681 
L 1313 3291 
L 191 3897 
L 372 4206 
L 1422 3572 
L 1422 4750 
L 1778 4750 
L 1778 3572 
L 2828 4206 
L 3009 3897 
z
" transform="scale(0.015625)"/>
       <path id="DejaVuSans-41" d="M 2188 4044 
L 1331 1722 
L 3047 1722 
L 2188 4044 
z
M 1831 4666 
L 2547 4666 
L 4325 0 
L 3669 0 
L 3244 1197 
L 1141 1197 
L 716 0 
L 50 0 
L 1831 4666 
z
" transform="scale(0.015625)"/>
       <path id="DejaVuSans-29" d="M 513 4856 
L 1013 4856 
Q 1481 4119 1714 3412 
Q 1947 2706 1947 2009 
Q 1947 1309 1714 600 
Q 1481 -109 1013 -844 
L 513 -844 
Q 928 -128 1133 580 
Q 1338 1288 1338 2009 
Q 1338 2731 1133 3434 
Q 928 4138 513 4856 
z
" transform="scale(0.015625)"/>
       <path id="DejaVuSans-5d" d="M 1947 4863 
L 1947 -844 
L 622 -844 
L 622 -397 
L 1369 -397 
L 1369 4416 
L 622 4416 
L 622 4863 
L 1947 4863 
z
" transform="scale(0.015625)"/>
      </defs>
      <use xlink:href="#DejaVuSans-46"/>
      <use xlink:href="#DejaVuSans-6f" x="53.894531"/>
      <use xlink:href="#DejaVuSans-72" x="115.076172"/>
      <use xlink:href="#DejaVuSans-63" x="153.939453"/>
      <use xlink:href="#DejaVuSans-65" x="208.919922"/>
      <use xlink:href="#DejaVuSans-20" x="270.443359"/>
      <use xlink:href="#DejaVuSans-45" x="302.230469"/>
      <use xlink:href="#DejaVuSans-72" x="365.414062"/>
      <use xlink:href="#DejaVuSans-72" x="404.777344"/>
      <use xlink:href="#DejaVuSans-6f" x="443.640625"/>
      <use xlink:href="#DejaVuSans-72" x="504.822266"/>
      <use xlink:href="#DejaVuSans-73" x="545.935547"/>
      <use xlink:href="#DejaVuSans-20" x="598.035156"/>
      <use xlink:href="#DejaVuSans-5b" x="629.822266"/>
      <use xlink:href="#DejaVuSans-6b" x="668.835938"/>
      <use xlink:href="#DejaVuSans-4a" x="726.746094"/>
      <use xlink:href="#DejaVuSans-2f" x="756.238281"/>
      <use xlink:href="#DejaVuSans-28" x="789.929688"/>
      <use xlink:href="#DejaVuSans-6d" x="828.943359"/>
      <use xlink:href="#DejaVuSans-6f" x="926.355469"/>
      <use xlink:href="#DejaVuSans-6c" x="987.537109"/>
      <use xlink:href="#DejaVuSans-2a" x="1015.320312"/>
      <use xlink:href="#DejaVuSans-41" x="1065.320312"/>
      <use xlink:href="#DejaVuSans-29" x="1133.728516"/>
      <use xlink:href="#DejaVuSans-5d" x="1172.742188"/>
     </g>
    </g>
   </g>
   <g id="line2d_15">
    <path d="M 83.72 499.48 
L 696.24 23.76 
" clip-path="url(#p4f4902f68d)" style="fill: none; stroke-dasharray: 5.55,2.4; stroke-dashoffset: 0; stroke: #ff0000; stroke-width: 1.5"/>
   </g>
   <g id="patch_3">
    <path d="M 83.72 499.48 
L 83.72 23.76 
" style="fill: none; stroke: #000000; stroke-width: 0.8; stroke-linejoin: miter; stroke-linecap: square"/>
   </g>
   <g id="patch_4">
    <path d="M 696.24 499.48 
L 696.24 23.76 
" style="fill: none; stroke: #000000; stroke-width: 0.8; stroke-linejoin: miter; stroke-linecap: square"/>
   </g>
   <g id="patch_5">
    <path d="M 83.72 499.48 
L 696.24 499.48 
" style="fill: none; stroke: #000000; stroke-width: 0.8; stroke-linejoin: miter; stroke-linecap: square"/>
   </g>
   <g id="patch_6">
    <path d="M 83.72 23.76 
L 696.24 23.76 
" style="fill: none; stroke: #000000; stroke-width: 0.8; stroke-linejoin: miter; stroke-linecap: square"/>
   </g>
   <g id="text_17">
    <!-- Correlation in: 0.835 -->
    <g transform="translate(144.972 71.332) scale(0.22 -0.22)">
     <defs>
      <path id="DejaVuSans-43" d="M 4122 4306 
L 4122 3641 
Q 3803 3938 3442 4084 
Q 3081 4231 2675 4231 
Q 1875 4231 1450 3742 
Q 1025 3253 1025 2328 
Q 1025 1406 1450 917 
Q 1875 428 2675 428 
Q 3081 428 3442 575 
Q 3803 722 4122 1019 
L 4122 359 
Q 3791 134 3420 21 
Q 3050 -91 2638 -91 
Q 1578 -91 968 557 
Q 359 1206 359 2328 
Q 359 3453 968 4101 
Q 1578 4750 2638 4750 
Q 3056 4750 3426 4639 
Q 3797 4528 4122 4306 
z
" transform="scale(0.015625)"/>
      <path id="DejaVuSans-3a" d="M 750 794 
L 1409 794 
L 1409 0 
L 750 0 
L 750 794 
z
M 750 3309 
L 1409 3309 
L 1409 2516 
L 750 2516 
L 750 3309 
z
" transform="scale(0.015625)"/>
      <path id="DejaVuSans-2e" d="M 684 794 
L 1344 794 
L 1344 0 
L 684 0 
L 684 794 
z
" transform="scale(0.015625)"/>
      <path id="DejaVuSans-38" d="M 2034 2216 
Q 1584 2216 1326 1975 
Q 1069 1734 1069 1313 
Q 1069 891 1326 650 
Q 1584 409 2034 409 
Q 2484 409 2743 651 
Q 3003 894 3003 1313 
Q 3003 1734 2745 1975 
Q 2488 2216 2034 2216 
z
M 1403 2484 
Q 997 2584 770 2862 
Q 544 3141 544 3541 
Q 544 4100 942 4425 
Q 1341 4750 2034 4750 
Q 2731 4750 3128 4425 
Q 3525 4100 3525 3541 
Q 3525 3141 3298 2862 
Q 3072 2584 2669 2484 
Q 3125 2378 3379 2068 
Q 3634 1759 3634 1313 
Q 3634 634 3220 271 
Q 2806 -91 2034 -91 
Q 1263 -91 848 271 
Q 434 634 434 1313 
Q 434 1759 690 2068 
Q 947 2378 1403 2484 
z
M 1172 3481 
Q 1172 3119 1398 2916 
Q 1625 2713 2034 2713 
Q 2441 2713 2670 2916 
Q 2900 3119 2900 3481 
Q 2900 3844 2670 4047 
Q 2441 4250 2034 4250 
Q 1625 4250 1398 4047 
Q 1172 3844 1172 3481 
z
" transform="scale(0.015625)"/>
     </defs>
     <use xlink:href="#DejaVuSans-43"/>
     <use xlink:href="#DejaVuSans-6f" x="69.824219"/>
     <use xlink:href="#DejaVuSans-72" x="131.005859"/>
     <use xlink:href="#DejaVuSans-72" x="170.369141"/>
     <use xlink:href="#DejaVuSans-65" x="209.232422"/>
     <use xlink:href="#DejaVuSans-6c" x="270.755859"/>
     <use xlink:href="#DejaVuSans-61" x="298.539062"/>
     <use xlink:href="#DejaVuSans-74" x="359.818359"/>
     <use xlink:href="#DejaVuSans-69" x="399.027344"/>
     <use xlink:href="#DejaVuSans-6f" x="426.810547"/>
     <use xlink:href="#DejaVuSans-6e" x="487.992188"/>
     <use xlink:href="#DejaVuSans-20" x="551.371094"/>
     <use xlink:href="#DejaVuSans-69" x="583.158203"/>
     <use xlink:href="#DejaVuSans-6e" x="610.941406"/>
     <use xlink:href="#DejaVuSans-3a" x="674.320312"/>
     <use xlink:href="#DejaVuSans-20" x="708.011719"/>
     <use xlink:href="#DejaVuSans-30" x="739.798828"/>
     <use xlink:href="#DejaVuSans-2e" x="803.421875"/>
     <use xlink:href="#DejaVuSans-38" x="835.208984"/>
     <use xlink:href="#DejaVuSans-33" x="898.832031"/>
     <use xlink:href="#DejaVuSans-35" x="962.455078"/>
    </g>
   </g>
  </g>
 </g>
 <defs>
  <clipPath id="p4f4902f68d">
   <rect x="83.72" y="23.76" width="612.52" height="475.72"/>
  </clipPath>
 </defs>
</svg>
