<?xml version="1.0" encoding="utf-8" standalone="no"?>
<!DOCTYPE svg PUBLIC "-//W3C//DTD SVG 1.1//EN"
  "http://www.w3.org/Graphics/SVG/1.1/DTD/svg11.dtd">
<svg xmlns:xlink="http://www.w3.org/1999/xlink" width="720pt" height="576pt" viewBox="0 0 720 576" xmlns="http://www.w3.org/2000/svg" version="1.1">
 <metadata>
  <rdf:RDF xmlns:dc="http://purl.org/dc/elements/1.1/" xmlns:cc="http://creativecommons.org/ns#" xmlns:rdf="http://www.w3.org/1999/02/22-rdf-syntax-ns#">
   <cc:Work>
    <dc:type rdf:resource="http://purl.org/dc/dcmitype/StillImage"/>
    <dc:date>2024-12-07T17:24:52.314473</dc:date>
    <dc:format>image/svg+xml</dc:format>
    <dc:creator>
     <cc:Agent>
      <dc:title>Matplotlib v3.8.4, https://matplotlib.org/</dc:title>
     </cc:Agent>
    </dc:creator>
   </cc:Work>
  </rdf:RDF>
 </metadata>
 <defs>
  <style type="text/css">*{stroke-linejoin: round; stroke-linecap: butt}</style>
 </defs>
 <g id="figure_1">
  <g id="patch_1">
   <path d="M 0 576 
L 720 576 
L 720 0 
L 0 0 
z
" style="fill: #ffffff"/>
  </g>
  <g id="axes_1">
   <g id="patch_2">
    <path d="M 83.72 499.48 
L 696.24 499.48 
L 696.24 23.76 
L 83.72 23.76 
z
" style="fill: #ffffff"/>
   </g>
   <g id="QuadContourSet_1">
    <path d="M 83.565967 500.121279 
L 85.363396 500.594825 
L 87.160826 500.867064 
L 88.958256 500.98357 
L 90.755686 500.967667 
L 92.553116 500.826595 
L 94.350545 500.553737 
L 96.147975 500.127784 
L 96.707412 499.950396 
L 97.945405 499.736026 
L 99.742835 499.332476 
L 101.540265 498.794043 
L 103.337694 498.065905 
L 104.660818 497.375037 
L 105.135124 497.226832 
L 106.932554 496.583486 
L 108.729984 495.712644 
L 110.180696 494.799679 
L 110.527414 494.657252 
L 112.324843 493.852125 
L 114.122273 492.761361 
L 114.914416 492.22432 
L 115.919703 491.73931 
L 117.717133 490.74358 
L 119.358413 489.648961 
L 119.514563 489.568053 
L 121.311992 488.741928 
L 123.109422 487.883572 
L 124.906852 487.175165 
L 125.509544 487.073603 
L 126.704282 486.901198 
L 128.501712 487.026287 
L 128.670335 487.073603 
L 130.299141 487.662804 
L 132.096571 488.610852 
L 133.894001 489.62675 
L 133.935705 489.648961 
L 135.691431 490.550924 
L 137.488861 491.129024 
L 139.28629 491.379142 
L 141.08372 491.366217 
L 142.88115 491.148662 
L 144.67858 490.757361 
L 146.47601 490.194453 
L 147.816374 489.648961 
L 148.273439 489.501565 
L 150.070869 488.8396 
L 151.868299 488.031834 
L 153.622911 487.073603 
L 153.665729 487.052957 
L 155.463159 486.167038 
L 157.260588 485.087435 
L 158.155057 484.498244 
L 159.058018 483.89345 
L 160.855448 482.511495 
L 161.546336 481.922886 
L 162.652878 480.816109 
L 163.967355 479.347527 
L 164.450308 478.601221 
L 165.592246 476.772168 
L 166.247737 474.912717 
L 166.509997 474.19681 
L 166.907141 471.621451 
L 166.910572 469.046093 
L 166.621431 466.470734 
L 166.247737 465.046247 
L 165.940636 463.895375 
L 164.450308 461.320017 
L 164.450308 461.320017 
L 162.652878 459.729792 
L 160.855448 458.862352 
L 160.430771 458.744658 
L 159.058018 458.340256 
L 157.260588 458.099281 
L 155.463159 458.059767 
L 153.665729 458.148409 
L 151.868299 458.311888 
L 150.070869 458.514613 
L 148.273439 458.73827 
L 148.224445 458.744658 
L 146.47601 458.93297 
L 144.67858 459.136097 
L 142.88115 459.317071 
L 141.08372 459.396763 
L 139.28629 459.235021 
L 137.790259 458.744658 
L 137.488861 458.629825 
L 135.691431 457.409367 
L 134.245525 456.1693 
L 133.894001 455.87654 
L 132.096571 454.309245 
L 131.161586 453.593941 
L 130.299141 452.924829 
L 128.501712 451.731329 
L 127.1158 451.018582 
L 126.704282 450.767745 
L 124.906852 449.812041 
L 123.109422 449.112167 
L 121.311992 448.637785 
L 120.052337 448.443224 
L 119.514563 448.325802 
L 117.717133 448.184705 
L 115.919703 448.295645 
L 115.144997 448.443224 
L 114.122273 448.557678 
L 112.324843 448.87397 
L 110.527414 449.304885 
L 108.729984 449.868866 
L 106.932554 450.603828 
L 106.047352 451.018582 
L 105.135124 451.282271 
L 103.337694 451.865908 
L 101.540265 452.61671 
L 99.7488 453.593941 
L 99.742835 453.596079 
L 97.945405 454.283795 
L 96.147975 455.238126 
L 94.791472 456.1693 
L 94.350545 456.38902 
L 92.553116 457.463755 
L 90.974755 458.744658 
L 90.755686 458.886058 
L 88.958256 460.225549 
L 87.812344 461.320017 
L 87.160826 461.862372 
L 85.363396 463.687797 
L 85.177063 463.895375 
L 83.565967 465.609204 
L 82.862783 466.470734 
L 81.768537 467.85652 
L 80.898755 469.046093 
L 79.971107 470.471408 
L 79.229384 471.621451 
L 78.173677 473.628638 
L 77.856063 474.19681 
L 76.701201 476.772168 
L 76.376247 477.784511 
L 75.776968 479.347527 
L 75.105739 481.922886 
L 74.714168 484.498244 
L 74.578818 486.563232 
L 74.531005 487.073603 
L 74.578818 488.441548 
L 74.609931 489.648961 
L 75.018206 492.22432 
L 76.076333 494.799679 
L 76.376247 495.253102 
L 78.173677 497.36 
L 78.190909 497.375037 
L 79.971107 498.736032 
L 81.768537 499.563572 
L 83.104402 499.950396 
z
M 83.193408 494.799679 
L 81.768537 493.658176 
L 80.579797 492.22432 
L 79.971107 490.925237 
L 79.441912 489.648961 
L 79.031407 487.073603 
L 79.099154 484.498244 
L 79.53415 481.922886 
L 79.971107 480.467275 
L 80.249078 479.347527 
L 81.206316 476.772168 
L 81.768537 475.650828 
L 82.456883 474.19681 
L 83.565967 472.379983 
L 84.035892 471.621451 
L 85.363396 469.788033 
L 85.948503 469.046093 
L 87.160826 467.60703 
L 88.277783 466.470734 
L 88.958256 465.76572 
L 90.755686 464.176058 
L 91.118158 463.895375 
L 92.553116 462.647248 
L 94.350545 461.45317 
L 94.570063 461.320017 
L 96.147975 460.143223 
L 97.945405 459.11858 
L 98.709914 458.744658 
L 99.742835 458.071145 
L 101.540265 457.083945 
L 103.337694 456.327126 
L 103.755007 456.1693 
L 105.135124 455.421882 
L 106.932554 454.653134 
L 108.729984 454.068953 
L 110.527414 453.627604 
L 110.71759 453.593941 
L 112.324843 453.158169 
L 114.122273 452.895016 
L 115.919703 452.853733 
L 117.717133 453.047838 
L 119.514563 453.500311 
L 119.768705 453.593941 
L 121.311992 454.057896 
L 123.109422 454.842914 
L 124.906852 455.948938 
L 125.213599 456.1693 
L 126.704282 457.27342 
L 128.209708 458.744658 
L 128.501712 459.109647 
L 130.071224 461.320017 
L 130.299141 461.85723 
L 131.264235 463.895375 
L 131.907835 466.470734 
L 132.096571 468.354795 
L 132.233221 469.046093 
L 132.096571 471.358959 
L 132.084902 471.621451 
L 131.239158 474.19681 
L 130.299141 475.22233 
L 129.080409 476.772168 
L 128.501712 477.240742 
L 126.704282 478.960414 
L 126.339608 479.347527 
L 124.906852 480.617659 
L 123.3485 481.922886 
L 123.109422 482.113519 
L 121.311992 483.668202 
L 120.226858 484.498244 
L 119.514563 485.080128 
L 117.717133 486.457623 
L 116.791564 487.073603 
L 115.919703 487.755975 
L 114.122273 488.987781 
L 112.939724 489.648961 
L 112.324843 490.09112 
L 110.527414 491.236332 
L 108.729984 492.091771 
L 108.421302 492.22432 
L 106.932554 493.120082 
L 105.135124 493.954751 
L 103.337694 494.587873 
L 102.616376 494.799679 
L 101.540265 495.28317 
L 99.742835 495.914046 
L 97.945405 496.373415 
L 96.147975 496.698041 
L 94.350545 496.907905 
L 92.553116 497.009778 
L 90.755686 496.998267 
L 88.958256 496.854067 
L 87.160826 496.538244 
L 85.363396 495.980203 
L 83.565967 495.055189 
z
M 141.153993 481.922886 
L 141.08372 481.856533 
L 139.28629 479.610835 
L 139.084035 479.347527 
L 138.184261 476.772168 
L 138.569457 474.19681 
L 139.28629 473.394817 
L 141.08372 471.621451 
L 141.08372 471.621451 
L 142.88115 470.622943 
L 144.67858 469.783947 
L 146.47601 469.099001 
L 146.646071 469.046093 
L 148.273439 468.611091 
L 150.070869 468.273273 
L 151.868299 468.115417 
L 153.665729 468.210866 
L 155.463159 468.72302 
L 155.977429 469.046093 
L 157.260588 471.236698 
L 157.377489 471.621451 
L 157.260588 472.270248 
L 156.929756 474.19681 
L 155.568949 476.772168 
L 155.463159 476.901292 
L 153.665729 478.913335 
L 153.239555 479.347527 
L 151.868299 480.417327 
L 150.070869 481.587257 
L 149.419397 481.922886 
L 148.273439 482.436613 
L 146.47601 482.937617 
L 144.67858 483.092231 
L 142.88115 482.782433 
z
" clip-path="url(#p46175595bc)" style="fill: #f2f8fd"/>
    <path d="M 83.565967 495.055189 
L 85.363396 495.980203 
L 87.160826 496.538244 
L 88.958256 496.854067 
L 90.755686 496.998267 
L 92.553116 497.009778 
L 94.350545 496.907905 
L 96.147975 496.698041 
L 97.945405 496.373415 
L 99.742835 495.914046 
L 101.540265 495.28317 
L 102.616376 494.799679 
L 103.337694 494.587873 
L 105.135124 493.954751 
L 106.932554 493.120082 
L 108.421302 492.22432 
L 108.729984 492.091771 
L 110.527414 491.236332 
L 112.324843 490.09112 
L 112.939724 489.648961 
L 114.122273 488.987781 
L 115.919703 487.755975 
L 116.791564 487.073603 
L 117.717133 486.457623 
L 119.514563 485.080128 
L 120.226858 484.498244 
L 121.311992 483.668202 
L 123.109422 482.113519 
L 123.3485 481.922886 
L 124.906852 480.617659 
L 126.339608 479.347527 
L 126.704282 478.960414 
L 128.501712 477.240742 
L 129.080409 476.772168 
L 130.299141 475.22233 
L 131.239158 474.19681 
L 132.084902 471.621451 
L 132.096571 471.358959 
L 132.233221 469.046093 
L 132.096571 468.354795 
L 131.907835 466.470734 
L 131.264235 463.895375 
L 130.299141 461.85723 
L 130.071224 461.320017 
L 128.501712 459.109647 
L 128.209708 458.744658 
L 126.704282 457.27342 
L 125.213599 456.1693 
L 124.906852 455.948938 
L 123.109422 454.842914 
L 121.311992 454.057896 
L 119.768705 453.593941 
L 119.514563 453.500311 
L 117.717133 453.047838 
L 115.919703 452.853733 
L 114.122273 452.895016 
L 112.324843 453.158169 
L 110.71759 453.593941 
L 110.527414 453.627604 
L 108.729984 454.068953 
L 106.932554 454.653134 
L 105.135124 455.421882 
L 103.755007 456.1693 
L 103.337694 456.327126 
L 101.540265 457.083945 
L 99.742835 458.071145 
L 98.709914 458.744658 
L 97.945405 459.11858 
L 96.147975 460.143223 
L 94.570063 461.320017 
L 94.350545 461.45317 
L 92.553116 462.647248 
L 91.118158 463.895375 
L 90.755686 464.176058 
L 88.958256 465.76572 
L 88.277783 466.470734 
L 87.160826 467.60703 
L 85.948503 469.046093 
L 85.363396 469.788033 
L 84.035892 471.621451 
L 83.565967 472.379983 
L 82.456883 474.19681 
L 81.768537 475.650828 
L 81.206316 476.772168 
L 80.249078 479.347527 
L 79.971107 480.467275 
L 79.53415 481.922886 
L 79.099154 484.498244 
L 79.031407 487.073603 
L 79.441912 489.648961 
L 79.971107 490.925237 
L 80.579797 492.22432 
L 81.768537 493.658176 
L 83.193408 494.799679 
z
M 86.384789 492.22432 
L 85.363396 491.490742 
L 83.761861 489.648961 
L 83.565967 489.211809 
L 82.756227 487.073603 
L 82.554384 484.498244 
L 82.86708 481.922886 
L 83.565967 479.572185 
L 83.622227 479.347527 
L 84.620844 476.772168 
L 85.363396 475.416761 
L 86.012653 474.19681 
L 87.160826 472.487007 
L 87.76831 471.621451 
L 88.958256 470.129827 
L 89.928774 469.046093 
L 90.755686 468.154518 
L 92.553116 466.525714 
L 92.617793 466.470734 
L 94.350545 464.90663 
L 95.802382 463.895375 
L 96.147975 463.61834 
L 97.945405 462.304053 
L 99.727971 461.320017 
L 99.742835 461.309774 
L 101.540265 460.150569 
L 103.337694 459.270343 
L 104.665354 458.744658 
L 105.135124 458.494452 
L 106.932554 457.702971 
L 108.729984 457.126934 
L 110.527414 456.729934 
L 112.324843 456.502766 
L 114.122273 456.45506 
L 115.919703 456.607829 
L 117.717133 456.990222 
L 119.514563 457.643647 
L 121.311992 458.632455 
L 121.479392 458.744658 
L 123.109422 459.941118 
L 124.474866 461.320017 
L 124.906852 461.947507 
L 126.057727 463.895375 
L 126.68923 466.470734 
L 126.678654 469.046093 
L 126.155831 471.621451 
L 125.015852 474.19681 
L 124.906852 474.365352 
L 123.452484 476.772168 
L 123.109422 477.198886 
L 121.363964 479.347527 
L 121.311992 479.402703 
L 119.514563 481.336289 
L 118.918355 481.922886 
L 117.717133 483.063645 
L 115.919703 484.498244 
L 115.919703 484.498244 
L 114.122273 485.995712 
L 112.449928 487.073603 
L 112.324843 487.167993 
L 110.527414 488.437817 
L 108.729984 489.405324 
L 108.21466 489.648961 
L 106.932554 490.422349 
L 105.135124 491.2879 
L 103.337694 491.954768 
L 102.448164 492.22432 
L 101.540265 492.608212 
L 99.742835 493.196662 
L 97.945405 493.612876 
L 96.147975 493.882674 
L 94.350545 494.014745 
L 92.553116 494.001813 
L 90.755686 493.818142 
L 88.958256 493.411562 
L 87.160826 492.686469 
z
M 142.88115 482.782433 
L 144.67858 483.092231 
L 146.47601 482.937617 
L 148.273439 482.436613 
L 149.419397 481.922886 
L 150.070869 481.587257 
L 151.868299 480.417327 
L 153.239555 479.347527 
L 153.665729 478.913335 
L 155.463159 476.901292 
L 155.568949 476.772168 
L 156.929756 474.19681 
L 157.260588 472.270248 
L 157.377489 471.621451 
L 157.260588 471.236698 
L 155.977429 469.046093 
L 155.463159 468.72302 
L 153.665729 468.210866 
L 151.868299 468.115417 
L 150.070869 468.273273 
L 148.273439 468.611091 
L 146.646071 469.046093 
L 146.47601 469.099001 
L 144.67858 469.783947 
L 142.88115 470.622943 
L 141.08372 471.621451 
L 141.08372 471.621451 
L 139.28629 473.394817 
L 138.569457 474.19681 
L 138.184261 476.772168 
L 139.084035 479.347527 
L 139.28629 479.610835 
L 141.08372 481.856533 
L 141.153993 481.922886 
z
" clip-path="url(#p46175595bc)" style="fill: #e5eff9"/>
    <path d="M 87.160826 492.686469 
L 88.958256 493.411562 
L 90.755686 493.818142 
L 92.553116 494.001813 
L 94.350545 494.014745 
L 96.147975 493.882674 
L 97.945405 493.612876 
L 99.742835 493.196662 
L 101.540265 492.608212 
L 102.448164 492.22432 
L 103.337694 491.954768 
L 105.135124 491.2879 
L 106.932554 490.422349 
L 108.21466 489.648961 
L 108.729984 489.405324 
L 110.527414 488.437817 
L 112.324843 487.167993 
L 112.449928 487.073603 
L 114.122273 485.995712 
L 115.919703 484.498244 
L 115.919703 484.498244 
L 117.717133 483.063645 
L 118.918355 481.922886 
L 119.514563 481.336289 
L 121.311992 479.402703 
L 121.363964 479.347527 
L 123.109422 477.198886 
L 123.452484 476.772168 
L 124.906852 474.365352 
L 125.015852 474.19681 
L 126.155831 471.621451 
L 126.678654 469.046093 
L 126.68923 466.470734 
L 126.057727 463.895375 
L 124.906852 461.947507 
L 124.474866 461.320017 
L 123.109422 459.941118 
L 121.479392 458.744658 
L 121.311992 458.632455 
L 119.514563 457.643647 
L 117.717133 456.990222 
L 115.919703 456.607829 
L 114.122273 456.45506 
L 112.324843 456.502766 
L 110.527414 456.729934 
L 108.729984 457.126934 
L 106.932554 457.702971 
L 105.135124 458.494452 
L 104.665354 458.744658 
L 103.337694 459.270343 
L 101.540265 460.150569 
L 99.742835 461.309774 
L 99.727971 461.320017 
L 97.945405 462.304053 
L 96.147975 463.61834 
L 95.802382 463.895375 
L 94.350545 464.90663 
L 92.617793 466.470734 
L 92.553116 466.525714 
L 90.755686 468.154518 
L 89.928774 469.046093 
L 88.958256 470.129827 
L 87.76831 471.621451 
L 87.160826 472.487007 
L 86.012653 474.19681 
L 85.363396 475.416761 
L 84.620844 476.772168 
L 83.622227 479.347527 
L 83.565967 479.572185 
L 82.86708 481.922886 
L 82.554384 484.498244 
L 82.756227 487.073603 
L 83.565967 489.211809 
L 83.761861 489.648961 
L 85.363396 491.490742 
L 86.384789 492.22432 
z
M 89.262825 489.648961 
L 88.958256 489.461067 
L 87.160826 487.671127 
L 86.749457 487.073603 
L 85.98516 484.498244 
L 86.04446 481.922886 
L 86.663903 479.347527 
L 87.160826 478.197508 
L 87.724116 476.772168 
L 88.958256 474.650818 
L 89.218561 474.19681 
L 90.755686 472.087771 
L 91.115997 471.621451 
L 92.553116 469.977863 
L 93.480312 469.046093 
L 94.350545 468.192294 
L 96.147975 466.693045 
L 96.442575 466.470734 
L 97.945405 465.258988 
L 99.742835 464.111524 
L 100.127303 463.895375 
L 101.540265 462.972713 
L 103.337694 462.045253 
L 105.135124 461.320017 
L 105.135124 461.320017 
L 106.932554 460.589053 
L 108.729984 460.089058 
L 110.527414 459.798344 
L 112.324843 459.721169 
L 114.122273 459.880384 
L 115.919703 460.315482 
L 117.717133 461.088189 
L 118.111003 461.320017 
L 119.514563 462.287731 
L 121.093692 463.895375 
L 121.311992 464.2641 
L 122.399671 466.470734 
L 122.717205 469.046093 
L 122.336143 471.621451 
L 121.311992 474.194306 
L 121.31111 474.19681 
L 119.823724 476.772168 
L 119.514563 477.171793 
L 117.789783 479.347527 
L 117.717133 479.425968 
L 115.919703 481.31545 
L 115.28255 481.922886 
L 114.122273 482.974816 
L 112.324843 484.359005 
L 112.130418 484.498244 
L 110.527414 485.702348 
L 108.729984 486.783196 
L 108.178995 487.073603 
L 106.932554 487.831713 
L 105.135124 488.714978 
L 103.337694 489.406295 
L 102.556682 489.648961 
L 101.540265 490.048581 
L 99.742835 490.571898 
L 97.945405 490.916697 
L 96.147975 491.093135 
L 94.350545 491.091071 
L 92.553116 490.876319 
L 90.755686 490.379382 
z
" clip-path="url(#p46175595bc)" style="fill: #d1e2f3"/>
    <path d="M 90.755686 490.379382 
L 92.553116 490.876319 
L 94.350545 491.091071 
L 96.147975 491.093135 
L 97.945405 490.916697 
L 99.742835 490.571898 
L 101.540265 490.048581 
L 102.556682 489.648961 
L 103.337694 489.406295 
L 105.135124 488.714978 
L 106.932554 487.831713 
L 108.178995 487.073603 
L 108.729984 486.783196 
L 110.527414 485.702348 
L 112.130418 484.498244 
L 112.324843 484.359005 
L 114.122273 482.974816 
L 115.28255 481.922886 
L 115.919703 481.31545 
L 117.717133 479.425968 
L 117.789783 479.347527 
L 119.514563 477.171793 
L 119.823724 476.772168 
L 121.31111 474.19681 
L 121.311992 474.194306 
L 122.336143 471.621451 
L 122.717205 469.046093 
L 122.399671 466.470734 
L 121.311992 464.2641 
L 121.093692 463.895375 
L 119.514563 462.287731 
L 118.111003 461.320017 
L 117.717133 461.088189 
L 115.919703 460.315482 
L 114.122273 459.880384 
L 112.324843 459.721169 
L 110.527414 459.798344 
L 108.729984 460.089058 
L 106.932554 460.589053 
L 105.135124 461.320017 
L 105.135124 461.320017 
L 103.337694 462.045253 
L 101.540265 462.972713 
L 100.127303 463.895375 
L 99.742835 464.111524 
L 97.945405 465.258988 
L 96.442575 466.470734 
L 96.147975 466.693045 
L 94.350545 468.192294 
L 93.480312 469.046093 
L 92.553116 469.977863 
L 91.115997 471.621451 
L 90.755686 472.087771 
L 89.218561 474.19681 
L 88.958256 474.650818 
L 87.724116 476.772168 
L 87.160826 478.197508 
L 86.663903 479.347527 
L 86.04446 481.922886 
L 85.98516 484.498244 
L 86.749457 487.073603 
L 87.160826 487.671127 
L 88.958256 489.461067 
L 89.262825 489.648961 
z
M 90.8668 487.073603 
L 90.755686 486.978539 
L 89.024977 484.498244 
L 88.958256 484.054658 
L 88.687822 481.922886 
L 88.958256 480.491375 
L 89.143992 479.347527 
L 90.145837 476.772168 
L 90.755686 475.74059 
L 91.660827 474.19681 
L 92.553116 473.019402 
L 93.683164 471.621451 
L 94.350545 470.896973 
L 96.147975 469.171291 
L 96.289797 469.046093 
L 97.945405 467.629975 
L 99.617353 466.470734 
L 99.742835 466.377936 
L 101.540265 465.209741 
L 103.337694 464.297936 
L 104.330898 463.895375 
L 105.135124 463.517694 
L 106.932554 462.901883 
L 108.729984 462.515591 
L 110.527414 462.360472 
L 112.324843 462.463435 
L 114.122273 462.876172 
L 115.919703 463.683371 
L 116.249616 463.895375 
L 117.717133 465.194969 
L 118.708432 466.470734 
L 119.514563 469.046093 
L 119.385331 471.621451 
L 118.558665 474.19681 
L 117.717133 475.652919 
L 117.09665 476.772168 
L 115.919703 478.276741 
L 115.053446 479.347527 
L 114.122273 480.302501 
L 112.358536 481.922886 
L 112.324843 481.951991 
L 110.527414 483.40254 
L 108.882133 484.498244 
L 108.729984 484.603669 
L 106.932554 485.711838 
L 105.135124 486.591548 
L 103.925602 487.073603 
L 103.337694 487.34129 
L 101.540265 487.975053 
L 99.742835 488.41287 
L 97.945405 488.665307 
L 96.147975 488.718922 
L 94.350545 488.530884 
L 92.553116 488.013455 
z
" clip-path="url(#p46175595bc)" style="fill: #b2d2e8"/>
    <path d="M 92.553116 488.013455 
L 94.350545 488.530884 
L 96.147975 488.718922 
L 97.945405 488.665307 
L 99.742835 488.41287 
L 101.540265 487.975053 
L 103.337694 487.34129 
L 103.925602 487.073603 
L 105.135124 486.591548 
L 106.932554 485.711838 
L 108.729984 484.603669 
L 108.882133 484.498244 
L 110.527414 483.40254 
L 112.324843 481.951991 
L 112.358536 481.922886 
L 114.122273 480.302501 
L 115.053446 479.347527 
L 115.919703 478.276741 
L 117.09665 476.772168 
L 117.717133 475.652919 
L 118.558665 474.19681 
L 119.385331 471.621451 
L 119.514563 469.046093 
L 118.708432 466.470734 
L 117.717133 465.194969 
L 116.249616 463.895375 
L 115.919703 463.683371 
L 114.122273 462.876172 
L 112.324843 462.463435 
L 110.527414 462.360472 
L 108.729984 462.515591 
L 106.932554 462.901883 
L 105.135124 463.517694 
L 104.330898 463.895375 
L 103.337694 464.297936 
L 101.540265 465.209741 
L 99.742835 466.377936 
L 99.617353 466.470734 
L 97.945405 467.629975 
L 96.289797 469.046093 
L 96.147975 469.171291 
L 94.350545 470.896973 
L 93.683164 471.621451 
L 92.553116 473.019402 
L 91.660827 474.19681 
L 90.755686 475.74059 
L 90.145837 476.772168 
L 89.143992 479.347527 
L 88.958256 480.491375 
L 88.687822 481.922886 
L 88.958256 484.054658 
L 89.024977 484.498244 
L 90.755686 486.978539 
L 90.8668 487.073603 
z
M 91.670357 484.498244 
L 90.755686 481.922886 
L 90.997056 479.347527 
L 91.936079 476.772168 
L 92.553116 475.738062 
L 93.472148 474.19681 
L 94.350545 473.08741 
L 95.597997 471.621451 
L 96.147975 471.061604 
L 97.945405 469.434147 
L 98.429176 469.046093 
L 99.742835 468.034743 
L 101.540265 466.899705 
L 102.361989 466.470734 
L 103.337694 465.932854 
L 105.135124 465.179445 
L 106.932554 464.65651 
L 108.729984 464.365039 
L 110.527414 464.337571 
L 112.324843 464.640437 
L 114.122273 465.388198 
L 115.585273 466.470734 
L 115.919703 466.910502 
L 117.059334 469.046093 
L 117.213969 471.621451 
L 116.508936 474.19681 
L 115.919703 475.245816 
L 115.091629 476.772168 
L 114.122273 477.989411 
L 112.996152 479.347527 
L 112.324843 480.005186 
L 110.527414 481.601749 
L 110.130769 481.922886 
L 108.729984 482.96114 
L 106.932554 484.075081 
L 106.129084 484.498244 
L 105.135124 485.033534 
L 103.337694 485.799715 
L 101.540265 486.367854 
L 99.742835 486.749093 
L 97.945405 486.926968 
L 96.147975 486.849527 
L 94.350545 486.407191 
L 92.553116 485.377712 
z
" clip-path="url(#p46175595bc)" style="fill: #85bcdc"/>
    <path d="M 92.553116 485.377712 
L 94.350545 486.407191 
L 96.147975 486.849527 
L 97.945405 486.926968 
L 99.742835 486.749093 
L 101.540265 486.367854 
L 103.337694 485.799715 
L 105.135124 485.033534 
L 106.129084 484.498244 
L 106.932554 484.075081 
L 108.729984 482.96114 
L 110.130769 481.922886 
L 110.527414 481.601749 
L 112.324843 480.005186 
L 112.996152 479.347527 
L 114.122273 477.989411 
L 115.091629 476.772168 
L 115.919703 475.245816 
L 116.508936 474.19681 
L 117.213969 471.621451 
L 117.059334 469.046093 
L 115.919703 466.910502 
L 115.585273 466.470734 
L 114.122273 465.388198 
L 112.324843 464.640437 
L 110.527414 464.337571 
L 108.729984 464.365039 
L 106.932554 464.65651 
L 105.135124 465.179445 
L 103.337694 465.932854 
L 102.361989 466.470734 
L 101.540265 466.899705 
L 99.742835 468.034743 
L 98.429176 469.046093 
L 97.945405 469.434147 
L 96.147975 471.061604 
L 95.597997 471.621451 
L 94.350545 473.08741 
L 93.472148 474.19681 
L 92.553116 475.738062 
L 91.936079 476.772168 
L 90.997056 479.347527 
L 90.755686 481.922886 
L 91.670357 484.498244 
z
M 96.275799 484.498244 
L 96.147975 484.462172 
L 94.350545 483.187634 
L 93.457998 481.922886 
L 93.248103 479.347527 
L 94.046459 476.772168 
L 94.350545 476.265144 
L 95.602774 474.19681 
L 96.147975 473.545251 
L 97.896147 471.621451 
L 97.945405 471.575394 
L 99.742835 470.084989 
L 101.225803 469.046093 
L 101.540265 468.83741 
L 103.337694 467.882837 
L 105.135124 467.176407 
L 106.932554 466.717657 
L 108.729984 466.550428 
L 110.527414 466.772863 
L 112.324843 467.571622 
L 113.911825 469.046093 
L 114.122273 469.651389 
L 114.613783 471.621451 
L 114.122273 474.19681 
L 114.122273 474.19681 
L 112.755165 476.772168 
L 112.324843 477.297247 
L 110.557698 479.347527 
L 110.527414 479.375373 
L 108.729984 480.884628 
L 107.305829 481.922886 
L 106.932554 482.168098 
L 105.135124 483.152934 
L 103.337694 483.922746 
L 101.540265 484.491197 
L 101.499743 484.498244 
L 99.742835 484.798639 
L 97.945405 484.817197 
z
" clip-path="url(#p46175595bc)" style="fill: #57a0ce"/>
    <path d="M 97.945405 484.817197 
L 99.742835 484.798639 
L 101.499743 484.498244 
L 101.540265 484.491197 
L 103.337694 483.922746 
L 105.135124 483.152934 
L 106.932554 482.168098 
L 107.305829 481.922886 
L 108.729984 480.884628 
L 110.527414 479.375373 
L 110.557698 479.347527 
L 112.324843 477.297247 
L 112.755165 476.772168 
L 114.122273 474.19681 
L 114.122273 474.19681 
L 114.613783 471.621451 
L 114.122273 469.651389 
L 113.911825 469.046093 
L 112.324843 467.571622 
L 110.527414 466.772863 
L 108.729984 466.550428 
L 106.932554 466.717657 
L 105.135124 467.176407 
L 103.337694 467.882837 
L 101.540265 468.83741 
L 101.225803 469.046093 
L 99.742835 470.084989 
L 97.945405 471.575394 
L 97.896147 471.621451 
L 96.147975 473.545251 
L 95.602774 474.19681 
L 94.350545 476.265144 
L 94.046459 476.772168 
L 93.248103 479.347527 
L 93.457998 481.922886 
L 94.350545 483.187634 
L 96.147975 484.462172 
L 96.275799 484.498244 
z
M 96.835597 481.922886 
L 96.147975 480.965296 
L 95.563451 479.347527 
L 96.102742 476.772168 
L 96.147975 476.697057 
L 97.68958 474.19681 
L 97.945405 473.91368 
L 99.742835 472.130386 
L 100.325989 471.621451 
L 101.540265 470.775806 
L 103.337694 469.787287 
L 105.135124 469.054358 
L 105.17649 469.046093 
L 106.932554 468.735518 
L 108.729984 468.806983 
L 109.522217 469.046093 
L 110.527414 469.620778 
L 111.968095 471.621451 
L 111.81873 474.19681 
L 110.527414 476.772168 
L 110.527414 476.772168 
L 108.729984 478.717642 
L 108.095948 479.347527 
L 106.932554 480.202914 
L 105.135124 481.302039 
L 103.858749 481.922886 
L 103.337694 482.141531 
L 101.540265 482.609232 
L 99.742835 482.75673 
L 97.945405 482.471684 
z
" clip-path="url(#p46175595bc)" style="fill: #3080bd"/>
    <path d="M 97.945405 482.471684 
L 99.742835 482.75673 
L 101.540265 482.609232 
L 103.337694 482.141531 
L 103.858749 481.922886 
L 105.135124 481.302039 
L 106.932554 480.202914 
L 108.095948 479.347527 
L 108.729984 478.717642 
L 110.527414 476.772168 
L 110.527414 476.772168 
L 111.81873 474.19681 
L 111.968095 471.621451 
L 110.527414 469.620778 
L 109.522217 469.046093 
L 108.729984 468.806983 
L 106.932554 468.735518 
L 105.17649 469.046093 
L 105.135124 469.054358 
L 103.337694 469.787287 
L 101.540265 470.775806 
L 100.325989 471.621451 
L 99.742835 472.130386 
L 97.945405 473.91368 
L 97.68958 474.19681 
L 96.147975 476.697057 
L 96.102742 476.772168 
L 95.563451 479.347527 
L 96.147975 480.965296 
L 96.835597 481.922886 
z
M 98.30981 479.347527 
L 98.308103 476.772168 
L 99.742835 474.45486 
L 99.915863 474.19681 
L 101.540265 472.87809 
L 103.337694 471.642201 
L 103.38693 471.621451 
L 105.135124 471.099031 
L 106.932554 471.015192 
L 108.729984 471.621451 
L 108.729984 471.621451 
L 109.422278 474.19681 
L 108.729984 475.67422 
L 108.194551 476.772168 
L 106.932554 477.973569 
L 105.308086 479.347527 
L 105.135124 479.450189 
L 103.337694 480.178304 
L 101.540265 480.537563 
L 99.742835 480.327764 
z
" clip-path="url(#p46175595bc)" style="fill: #135fa7"/>
    <path d="M 99.742835 480.327764 
L 101.540265 480.537563 
L 103.337694 480.178304 
L 105.135124 479.450189 
L 105.308086 479.347527 
L 106.932554 477.973569 
L 108.194551 476.772168 
L 108.729984 475.67422 
L 109.422278 474.19681 
L 108.729984 471.621451 
L 108.729984 471.621451 
L 106.932554 471.015192 
L 105.135124 471.099031 
L 103.38693 471.621451 
L 103.337694 471.642201 
L 101.540265 472.87809 
L 99.915863 474.19681 
L 99.742835 474.45486 
L 98.308103 476.772168 
L 98.30981 479.347527 
z
" clip-path="url(#p46175595bc)" style="fill: #084082"/>
   </g>
   <g id="matplotlib.axis_1">
    <g id="xtick_1">
     <g id="line2d_1">
      <defs>
       <path id="mb5abf31d16" d="M 0 0 
L 0 3.5 
" style="stroke: #000000; stroke-width: 0.8"/>
      </defs>
      <g>
       <use xlink:href="#mb5abf31d16" x="90.339627" y="499.48" style="stroke: #000000; stroke-width: 0.8"/>
      </g>
     </g>
     <g id="text_1">
      <!-- 0 -->
      <g transform="translate(83.340877 523.196563) scale(0.22 -0.22)">
       <defs>
        <path id="DejaVuSans-30" d="M 2034 4250 
Q 1547 4250 1301 3770 
Q 1056 3291 1056 2328 
Q 1056 1369 1301 889 
Q 1547 409 2034 409 
Q 2525 409 2770 889 
Q 3016 1369 3016 2328 
Q 3016 3291 2770 3770 
Q 2525 4250 2034 4250 
z
M 2034 4750 
Q 2819 4750 3233 4129 
Q 3647 3509 3647 2328 
Q 3647 1150 3233 529 
Q 2819 -91 2034 -91 
Q 1250 -91 836 529 
Q 422 1150 422 2328 
Q 422 3509 836 4129 
Q 1250 4750 2034 4750 
z
" transform="scale(0.015625)"/>
       </defs>
       <use xlink:href="#DejaVuSans-30"/>
      </g>
     </g>
    </g>
    <g id="xtick_2">
     <g id="line2d_2">
      <g>
       <use xlink:href="#mb5abf31d16" x="188.495581" y="499.48" style="stroke: #000000; stroke-width: 0.8"/>
      </g>
     </g>
     <g id="text_2">
      <!-- 10 -->
      <g transform="translate(174.498081 523.196563) scale(0.22 -0.22)">
       <defs>
        <path id="DejaVuSans-31" d="M 794 531 
L 1825 531 
L 1825 4091 
L 703 3866 
L 703 4441 
L 1819 4666 
L 2450 4666 
L 2450 531 
L 3481 531 
L 3481 0 
L 794 0 
L 794 531 
z
" transform="scale(0.015625)"/>
       </defs>
       <use xlink:href="#DejaVuSans-31"/>
       <use xlink:href="#DejaVuSans-30" x="63.623047"/>
      </g>
     </g>
    </g>
    <g id="xtick_3">
     <g id="line2d_3">
      <g>
       <use xlink:href="#mb5abf31d16" x="286.651534" y="499.48" style="stroke: #000000; stroke-width: 0.8"/>
      </g>
     </g>
     <g id="text_3">
      <!-- 20 -->
      <g transform="translate(272.654034 523.196563) scale(0.22 -0.22)">
       <defs>
        <path id="DejaVuSans-32" d="M 1228 531 
L 3431 531 
L 3431 0 
L 469 0 
L 469 531 
Q 828 903 1448 1529 
Q 2069 2156 2228 2338 
Q 2531 2678 2651 2914 
Q 2772 3150 2772 3378 
Q 2772 3750 2511 3984 
Q 2250 4219 1831 4219 
Q 1534 4219 1204 4116 
Q 875 4013 500 3803 
L 500 4441 
Q 881 4594 1212 4672 
Q 1544 4750 1819 4750 
Q 2544 4750 2975 4387 
Q 3406 4025 3406 3419 
Q 3406 3131 3298 2873 
Q 3191 2616 2906 2266 
Q 2828 2175 2409 1742 
Q 1991 1309 1228 531 
z
" transform="scale(0.015625)"/>
       </defs>
       <use xlink:href="#DejaVuSans-32"/>
       <use xlink:href="#DejaVuSans-30" x="63.623047"/>
      </g>
     </g>
    </g>
    <g id="xtick_4">
     <g id="line2d_4">
      <g>
       <use xlink:href="#mb5abf31d16" x="384.807488" y="499.48" style="stroke: #000000; stroke-width: 0.8"/>
      </g>
     </g>
     <g id="text_4">
      <!-- 30 -->
      <g transform="translate(370.809988 523.196563) scale(0.22 -0.22)">
       <defs>
        <path id="DejaVuSans-33" d="M 2597 2516 
Q 3050 2419 3304 2112 
Q 3559 1806 3559 1356 
Q 3559 666 3084 287 
Q 2609 -91 1734 -91 
Q 1441 -91 1130 -33 
Q 819 25 488 141 
L 488 750 
Q 750 597 1062 519 
Q 1375 441 1716 441 
Q 2309 441 2620 675 
Q 2931 909 2931 1356 
Q 2931 1769 2642 2001 
Q 2353 2234 1838 2234 
L 1294 2234 
L 1294 2753 
L 1863 2753 
Q 2328 2753 2575 2939 
Q 2822 3125 2822 3475 
Q 2822 3834 2567 4026 
Q 2313 4219 1838 4219 
Q 1578 4219 1281 4162 
Q 984 4106 628 3988 
L 628 4550 
Q 988 4650 1302 4700 
Q 1616 4750 1894 4750 
Q 2613 4750 3031 4423 
Q 3450 4097 3450 3541 
Q 3450 3153 3228 2886 
Q 3006 2619 2597 2516 
z
" transform="scale(0.015625)"/>
       </defs>
       <use xlink:href="#DejaVuSans-33"/>
       <use xlink:href="#DejaVuSans-30" x="63.623047"/>
      </g>
     </g>
    </g>
    <g id="xtick_5">
     <g id="line2d_5">
      <g>
       <use xlink:href="#mb5abf31d16" x="482.963442" y="499.48" style="stroke: #000000; stroke-width: 0.8"/>
      </g>
     </g>
     <g id="text_5">
      <!-- 40 -->
      <g transform="translate(468.965942 523.196563) scale(0.22 -0.22)">
       <defs>
        <path id="DejaVuSans-34" d="M 2419 4116 
L 825 1625 
L 2419 1625 
L 2419 4116 
z
M 2253 4666 
L 3047 4666 
L 3047 1625 
L 3713 1625 
L 3713 1100 
L 3047 1100 
L 3047 0 
L 2419 0 
L 2419 1100 
L 313 1100 
L 313 1709 
L 2253 4666 
z
" transform="scale(0.015625)"/>
       </defs>
       <use xlink:href="#DejaVuSans-34"/>
       <use xlink:href="#DejaVuSans-30" x="63.623047"/>
      </g>
     </g>
    </g>
    <g id="xtick_6">
     <g id="line2d_6">
      <g>
       <use xlink:href="#mb5abf31d16" x="581.119396" y="499.48" style="stroke: #000000; stroke-width: 0.8"/>
      </g>
     </g>
     <g id="text_6">
      <!-- 50 -->
      <g transform="translate(567.121896 523.196563) scale(0.22 -0.22)">
       <defs>
        <path id="DejaVuSans-35" d="M 691 4666 
L 3169 4666 
L 3169 4134 
L 1269 4134 
L 1269 2991 
Q 1406 3038 1543 3061 
Q 1681 3084 1819 3084 
Q 2600 3084 3056 2656 
Q 3513 2228 3513 1497 
Q 3513 744 3044 326 
Q 2575 -91 1722 -91 
Q 1428 -91 1123 -41 
Q 819 9 494 109 
L 494 744 
Q 775 591 1075 516 
Q 1375 441 1709 441 
Q 2250 441 2565 725 
Q 2881 1009 2881 1497 
Q 2881 1984 2565 2268 
Q 2250 2553 1709 2553 
Q 1456 2553 1204 2497 
Q 953 2441 691 2322 
L 691 4666 
z
" transform="scale(0.015625)"/>
       </defs>
       <use xlink:href="#DejaVuSans-35"/>
       <use xlink:href="#DejaVuSans-30" x="63.623047"/>
      </g>
     </g>
    </g>
    <g id="xtick_7">
     <g id="line2d_7">
      <g>
       <use xlink:href="#mb5abf31d16" x="679.27535" y="499.48" style="stroke: #000000; stroke-width: 0.8"/>
      </g>
     </g>
     <g id="text_7">
      <!-- 60 -->
      <g transform="translate(665.27785 523.196563) scale(0.22 -0.22)">
       <defs>
        <path id="DejaVuSans-36" d="M 2113 2584 
Q 1688 2584 1439 2293 
Q 1191 2003 1191 1497 
Q 1191 994 1439 701 
Q 1688 409 2113 409 
Q 2538 409 2786 701 
Q 3034 994 3034 1497 
Q 3034 2003 2786 2293 
Q 2538 2584 2113 2584 
z
M 3366 4563 
L 3366 3988 
Q 3128 4100 2886 4159 
Q 2644 4219 2406 4219 
Q 1781 4219 1451 3797 
Q 1122 3375 1075 2522 
Q 1259 2794 1537 2939 
Q 1816 3084 2150 3084 
Q 2853 3084 3261 2657 
Q 3669 2231 3669 1497 
Q 3669 778 3244 343 
Q 2819 -91 2113 -91 
Q 1303 -91 875 529 
Q 447 1150 447 2328 
Q 447 3434 972 4092 
Q 1497 4750 2381 4750 
Q 2619 4750 2861 4703 
Q 3103 4656 3366 4563 
z
" transform="scale(0.015625)"/>
       </defs>
       <use xlink:href="#DejaVuSans-36"/>
       <use xlink:href="#DejaVuSans-30" x="63.623047"/>
      </g>
     </g>
    </g>
    <g id="text_8">
     <!-- Force Uncertainties -->
     <g transform="translate(283.426094 548.488438) scale(0.22 -0.22)">
      <defs>
       <path id="DejaVuSans-46" d="M 628 4666 
L 3309 4666 
L 3309 4134 
L 1259 4134 
L 1259 2759 
L 3109 2759 
L 3109 2228 
L 1259 2228 
L 1259 0 
L 628 0 
L 628 4666 
z
" transform="scale(0.015625)"/>
       <path id="DejaVuSans-6f" d="M 1959 3097 
Q 1497 3097 1228 2736 
Q 959 2375 959 1747 
Q 959 1119 1226 758 
Q 1494 397 1959 397 
Q 2419 397 2687 759 
Q 2956 1122 2956 1747 
Q 2956 2369 2687 2733 
Q 2419 3097 1959 3097 
z
M 1959 3584 
Q 2709 3584 3137 3096 
Q 3566 2609 3566 1747 
Q 3566 888 3137 398 
Q 2709 -91 1959 -91 
Q 1206 -91 779 398 
Q 353 888 353 1747 
Q 353 2609 779 3096 
Q 1206 3584 1959 3584 
z
" transform="scale(0.015625)"/>
       <path id="DejaVuSans-72" d="M 2631 2963 
Q 2534 3019 2420 3045 
Q 2306 3072 2169 3072 
Q 1681 3072 1420 2755 
Q 1159 2438 1159 1844 
L 1159 0 
L 581 0 
L 581 3500 
L 1159 3500 
L 1159 2956 
Q 1341 3275 1631 3429 
Q 1922 3584 2338 3584 
Q 2397 3584 2469 3576 
Q 2541 3569 2628 3553 
L 2631 2963 
z
" transform="scale(0.015625)"/>
       <path id="DejaVuSans-63" d="M 3122 3366 
L 3122 2828 
Q 2878 2963 2633 3030 
Q 2388 3097 2138 3097 
Q 1578 3097 1268 2742 
Q 959 2388 959 1747 
Q 959 1106 1268 751 
Q 1578 397 2138 397 
Q 2388 397 2633 464 
Q 2878 531 3122 666 
L 3122 134 
Q 2881 22 2623 -34 
Q 2366 -91 2075 -91 
Q 1284 -91 818 406 
Q 353 903 353 1747 
Q 353 2603 823 3093 
Q 1294 3584 2113 3584 
Q 2378 3584 2631 3529 
Q 2884 3475 3122 3366 
z
" transform="scale(0.015625)"/>
       <path id="DejaVuSans-65" d="M 3597 1894 
L 3597 1613 
L 953 1613 
Q 991 1019 1311 708 
Q 1631 397 2203 397 
Q 2534 397 2845 478 
Q 3156 559 3463 722 
L 3463 178 
Q 3153 47 2828 -22 
Q 2503 -91 2169 -91 
Q 1331 -91 842 396 
Q 353 884 353 1716 
Q 353 2575 817 3079 
Q 1281 3584 2069 3584 
Q 2775 3584 3186 3129 
Q 3597 2675 3597 1894 
z
M 3022 2063 
Q 3016 2534 2758 2815 
Q 2500 3097 2075 3097 
Q 1594 3097 1305 2825 
Q 1016 2553 972 2059 
L 3022 2063 
z
" transform="scale(0.015625)"/>
       <path id="DejaVuSans-20" transform="scale(0.015625)"/>
       <path id="DejaVuSans-55" d="M 556 4666 
L 1191 4666 
L 1191 1831 
Q 1191 1081 1462 751 
Q 1734 422 2344 422 
Q 2950 422 3222 751 
Q 3494 1081 3494 1831 
L 3494 4666 
L 4128 4666 
L 4128 1753 
Q 4128 841 3676 375 
Q 3225 -91 2344 -91 
Q 1459 -91 1007 375 
Q 556 841 556 1753 
L 556 4666 
z
" transform="scale(0.015625)"/>
       <path id="DejaVuSans-6e" d="M 3513 2113 
L 3513 0 
L 2938 0 
L 2938 2094 
Q 2938 2591 2744 2837 
Q 2550 3084 2163 3084 
Q 1697 3084 1428 2787 
Q 1159 2491 1159 1978 
L 1159 0 
L 581 0 
L 581 3500 
L 1159 3500 
L 1159 2956 
Q 1366 3272 1645 3428 
Q 1925 3584 2291 3584 
Q 2894 3584 3203 3211 
Q 3513 2838 3513 2113 
z
" transform="scale(0.015625)"/>
       <path id="DejaVuSans-74" d="M 1172 4494 
L 1172 3500 
L 2356 3500 
L 2356 3053 
L 1172 3053 
L 1172 1153 
Q 1172 725 1289 603 
Q 1406 481 1766 481 
L 2356 481 
L 2356 0 
L 1766 0 
Q 1100 0 847 248 
Q 594 497 594 1153 
L 594 3053 
L 172 3053 
L 172 3500 
L 594 3500 
L 594 4494 
L 1172 4494 
z
" transform="scale(0.015625)"/>
       <path id="DejaVuSans-61" d="M 2194 1759 
Q 1497 1759 1228 1600 
Q 959 1441 959 1056 
Q 959 750 1161 570 
Q 1363 391 1709 391 
Q 2188 391 2477 730 
Q 2766 1069 2766 1631 
L 2766 1759 
L 2194 1759 
z
M 3341 1997 
L 3341 0 
L 2766 0 
L 2766 531 
Q 2569 213 2275 61 
Q 1981 -91 1556 -91 
Q 1019 -91 701 211 
Q 384 513 384 1019 
Q 384 1609 779 1909 
Q 1175 2209 1959 2209 
L 2766 2209 
L 2766 2266 
Q 2766 2663 2505 2880 
Q 2244 3097 1772 3097 
Q 1472 3097 1187 3025 
Q 903 2953 641 2809 
L 641 3341 
Q 956 3463 1253 3523 
Q 1550 3584 1831 3584 
Q 2591 3584 2966 3190 
Q 3341 2797 3341 1997 
z
" transform="scale(0.015625)"/>
       <path id="DejaVuSans-69" d="M 603 3500 
L 1178 3500 
L 1178 0 
L 603 0 
L 603 3500 
z
M 603 4863 
L 1178 4863 
L 1178 4134 
L 603 4134 
L 603 4863 
z
" transform="scale(0.015625)"/>
       <path id="DejaVuSans-73" d="M 2834 3397 
L 2834 2853 
Q 2591 2978 2328 3040 
Q 2066 3103 1784 3103 
Q 1356 3103 1142 2972 
Q 928 2841 928 2578 
Q 928 2378 1081 2264 
Q 1234 2150 1697 2047 
L 1894 2003 
Q 2506 1872 2764 1633 
Q 3022 1394 3022 966 
Q 3022 478 2636 193 
Q 2250 -91 1575 -91 
Q 1294 -91 989 -36 
Q 684 19 347 128 
L 347 722 
Q 666 556 975 473 
Q 1284 391 1588 391 
Q 1994 391 2212 530 
Q 2431 669 2431 922 
Q 2431 1156 2273 1281 
Q 2116 1406 1581 1522 
L 1381 1569 
Q 847 1681 609 1914 
Q 372 2147 372 2553 
Q 372 3047 722 3315 
Q 1072 3584 1716 3584 
Q 2034 3584 2315 3537 
Q 2597 3491 2834 3397 
z
" transform="scale(0.015625)"/>
      </defs>
      <use xlink:href="#DejaVuSans-46"/>
      <use xlink:href="#DejaVuSans-6f" x="53.894531"/>
      <use xlink:href="#DejaVuSans-72" x="115.076172"/>
      <use xlink:href="#DejaVuSans-63" x="153.939453"/>
      <use xlink:href="#DejaVuSans-65" x="208.919922"/>
      <use xlink:href="#DejaVuSans-20" x="270.443359"/>
      <use xlink:href="#DejaVuSans-55" x="302.230469"/>
      <use xlink:href="#DejaVuSans-6e" x="375.423828"/>
      <use xlink:href="#DejaVuSans-63" x="438.802734"/>
      <use xlink:href="#DejaVuSans-65" x="493.783203"/>
      <use xlink:href="#DejaVuSans-72" x="555.306641"/>
      <use xlink:href="#DejaVuSans-74" x="596.419922"/>
      <use xlink:href="#DejaVuSans-61" x="635.628906"/>
      <use xlink:href="#DejaVuSans-69" x="696.908203"/>
      <use xlink:href="#DejaVuSans-6e" x="724.691406"/>
      <use xlink:href="#DejaVuSans-74" x="788.070312"/>
      <use xlink:href="#DejaVuSans-69" x="827.279297"/>
      <use xlink:href="#DejaVuSans-65" x="855.0625"/>
      <use xlink:href="#DejaVuSans-73" x="916.585938"/>
     </g>
    </g>
   </g>
   <g id="matplotlib.axis_2">
    <g id="ytick_1">
     <g id="line2d_8">
      <defs>
       <path id="me0240d1fca" d="M 0 0 
L -3.5 0 
" style="stroke: #000000; stroke-width: 0.8"/>
      </defs>
      <g>
       <use xlink:href="#me0240d1fca" x="83.72" y="494.338798" style="stroke: #000000; stroke-width: 0.8"/>
      </g>
     </g>
     <g id="text_9">
      <!-- 0 -->
      <g transform="translate(62.7225 502.69708) scale(0.22 -0.22)">
       <use xlink:href="#DejaVuSans-30"/>
      </g>
     </g>
    </g>
    <g id="ytick_2">
     <g id="line2d_9">
      <g>
       <use xlink:href="#me0240d1fca" x="83.72" y="418.104961" style="stroke: #000000; stroke-width: 0.8"/>
      </g>
     </g>
     <g id="text_10">
      <!-- 10 -->
      <g transform="translate(48.725 426.463242) scale(0.22 -0.22)">
       <use xlink:href="#DejaVuSans-31"/>
       <use xlink:href="#DejaVuSans-30" x="63.623047"/>
      </g>
     </g>
    </g>
    <g id="ytick_3">
     <g id="line2d_10">
      <g>
       <use xlink:href="#me0240d1fca" x="83.72" y="341.871123" style="stroke: #000000; stroke-width: 0.8"/>
      </g>
     </g>
     <g id="text_11">
      <!-- 20 -->
      <g transform="translate(48.725 350.229404) scale(0.22 -0.22)">
       <use xlink:href="#DejaVuSans-32"/>
       <use xlink:href="#DejaVuSans-30" x="63.623047"/>
      </g>
     </g>
    </g>
    <g id="ytick_4">
     <g id="line2d_11">
      <g>
       <use xlink:href="#me0240d1fca" x="83.72" y="265.637285" style="stroke: #000000; stroke-width: 0.8"/>
      </g>
     </g>
     <g id="text_12">
      <!-- 30 -->
      <g transform="translate(48.725 273.995566) scale(0.22 -0.22)">
       <use xlink:href="#DejaVuSans-33"/>
       <use xlink:href="#DejaVuSans-30" x="63.623047"/>
      </g>
     </g>
    </g>
    <g id="ytick_5">
     <g id="line2d_12">
      <g>
       <use xlink:href="#me0240d1fca" x="83.72" y="189.403447" style="stroke: #000000; stroke-width: 0.8"/>
      </g>
     </g>
     <g id="text_13">
      <!-- 40 -->
      <g transform="translate(48.725 197.761728) scale(0.22 -0.22)">
       <use xlink:href="#DejaVuSans-34"/>
       <use xlink:href="#DejaVuSans-30" x="63.623047"/>
      </g>
     </g>
    </g>
    <g id="ytick_6">
     <g id="line2d_13">
      <g>
       <use xlink:href="#me0240d1fca" x="83.72" y="113.169609" style="stroke: #000000; stroke-width: 0.8"/>
      </g>
     </g>
     <g id="text_14">
      <!-- 50 -->
      <g transform="translate(48.725 121.52789) scale(0.22 -0.22)">
       <use xlink:href="#DejaVuSans-35"/>
       <use xlink:href="#DejaVuSans-30" x="63.623047"/>
      </g>
     </g>
    </g>
    <g id="ytick_7">
     <g id="line2d_14">
      <g>
       <use xlink:href="#me0240d1fca" x="83.72" y="36.935771" style="stroke: #000000; stroke-width: 0.8"/>
      </g>
     </g>
     <g id="text_15">
      <!-- 60 -->
      <g transform="translate(48.725 45.294052) scale(0.22 -0.22)">
       <use xlink:href="#DejaVuSans-36"/>
       <use xlink:href="#DejaVuSans-30" x="63.623047"/>
      </g>
     </g>
    </g>
    <g id="text_16">
     <!-- Force Errors [kJ/(mol*A)] -->
     <g transform="translate(40.149688 394.9125) rotate(-90) scale(0.22 -0.22)">
      <defs>
       <path id="DejaVuSans-45" d="M 628 4666 
L 3578 4666 
L 3578 4134 
L 1259 4134 
L 1259 2753 
L 3481 2753 
L 3481 2222 
L 1259 2222 
L 1259 531 
L 3634 531 
L 3634 0 
L 628 0 
L 628 4666 
z
" transform="scale(0.015625)"/>
       <path id="DejaVuSans-5b" d="M 550 4863 
L 1875 4863 
L 1875 4416 
L 1125 4416 
L 1125 -397 
L 1875 -397 
L 1875 -844 
L 550 -844 
L 550 4863 
z
" transform="scale(0.015625)"/>
       <path id="DejaVuSans-6b" d="M 581 4863 
L 1159 4863 
L 1159 1991 
L 2875 3500 
L 3609 3500 
L 1753 1863 
L 3688 0 
L 2938 0 
L 1159 1709 
L 1159 0 
L 581 0 
L 581 4863 
z
" transform="scale(0.015625)"/>
       <path id="DejaVuSans-4a" d="M 628 4666 
L 1259 4666 
L 1259 325 
Q 1259 -519 939 -900 
Q 619 -1281 -91 -1281 
L -331 -1281 
L -331 -750 
L -134 -750 
Q 284 -750 456 -515 
Q 628 -281 628 325 
L 628 4666 
z
" transform="scale(0.015625)"/>
       <path id="DejaVuSans-2f" d="M 1625 4666 
L 2156 4666 
L 531 -594 
L 0 -594 
L 1625 4666 
z
" transform="scale(0.015625)"/>
       <path id="DejaVuSans-28" d="M 1984 4856 
Q 1566 4138 1362 3434 
Q 1159 2731 1159 2009 
Q 1159 1288 1364 580 
Q 1569 -128 1984 -844 
L 1484 -844 
Q 1016 -109 783 600 
Q 550 1309 550 2009 
Q 550 2706 781 3412 
Q 1013 4119 1484 4856 
L 1984 4856 
z
" transform="scale(0.015625)"/>
       <path id="DejaVuSans-6d" d="M 3328 2828 
Q 3544 3216 3844 3400 
Q 4144 3584 4550 3584 
Q 5097 3584 5394 3201 
Q 5691 2819 5691 2113 
L 5691 0 
L 5113 0 
L 5113 2094 
Q 5113 2597 4934 2840 
Q 4756 3084 4391 3084 
Q 3944 3084 3684 2787 
Q 3425 2491 3425 1978 
L 3425 0 
L 2847 0 
L 2847 2094 
Q 2847 2600 2669 2842 
Q 2491 3084 2119 3084 
Q 1678 3084 1418 2786 
Q 1159 2488 1159 1978 
L 1159 0 
L 581 0 
L 581 3500 
L 1159 3500 
L 1159 2956 
Q 1356 3278 1631 3431 
Q 1906 3584 2284 3584 
Q 2666 3584 2933 3390 
Q 3200 3197 3328 2828 
z
" transform="scale(0.015625)"/>
       <path id="DejaVuSans-6c" d="M 603 4863 
L 1178 4863 
L 1178 0 
L 603 0 
L 603 4863 
z
" transform="scale(0.015625)"/>
       <path id="DejaVuSans-2a" d="M 3009 3897 
L 1888 3291 
L 3009 2681 
L 2828 2375 
L 1778 3009 
L 1778 1831 
L 1422 1831 
L 1422 3009 
L 372 2375 
L 191 2681 
L 1313 3291 
L 191 3897 
L 372 4206 
L 1422 3572 
L 1422 4750 
L 1778 4750 
L 1778 3572 
L 2828 4206 
L 3009 3897 
z
" transform="scale(0.015625)"/>
       <path id="DejaVuSans-41" d="M 2188 4044 
L 1331 1722 
L 3047 1722 
L 2188 4044 
z
M 1831 4666 
L 2547 4666 
L 4325 0 
L 3669 0 
L 3244 1197 
L 1141 1197 
L 716 0 
L 50 0 
L 1831 4666 
z
" transform="scale(0.015625)"/>
       <path id="DejaVuSans-29" d="M 513 4856 
L 1013 4856 
Q 1481 4119 1714 3412 
Q 1947 2706 1947 2009 
Q 1947 1309 1714 600 
Q 1481 -109 1013 -844 
L 513 -844 
Q 928 -128 1133 580 
Q 1338 1288 1338 2009 
Q 1338 2731 1133 3434 
Q 928 4138 513 4856 
z
" transform="scale(0.015625)"/>
       <path id="DejaVuSans-5d" d="M 1947 4863 
L 1947 -844 
L 622 -844 
L 622 -397 
L 1369 -397 
L 1369 4416 
L 622 4416 
L 622 4863 
L 1947 4863 
z
" transform="scale(0.015625)"/>
      </defs>
      <use xlink:href="#DejaVuSans-46"/>
      <use xlink:href="#DejaVuSans-6f" x="53.894531"/>
      <use xlink:href="#DejaVuSans-72" x="115.076172"/>
      <use xlink:href="#DejaVuSans-63" x="153.939453"/>
      <use xlink:href="#DejaVuSans-65" x="208.919922"/>
      <use xlink:href="#DejaVuSans-20" x="270.443359"/>
      <use xlink:href="#DejaVuSans-45" x="302.230469"/>
      <use xlink:href="#DejaVuSans-72" x="365.414062"/>
      <use xlink:href="#DejaVuSans-72" x="404.777344"/>
      <use xlink:href="#DejaVuSans-6f" x="443.640625"/>
      <use xlink:href="#DejaVuSans-72" x="504.822266"/>
      <use xlink:href="#DejaVuSans-73" x="545.935547"/>
      <use xlink:href="#DejaVuSans-20" x="598.035156"/>
      <use xlink:href="#DejaVuSans-5b" x="629.822266"/>
      <use xlink:href="#DejaVuSans-6b" x="668.835938"/>
      <use xlink:href="#DejaVuSans-4a" x="726.746094"/>
      <use xlink:href="#DejaVuSans-2f" x="756.238281"/>
      <use xlink:href="#DejaVuSans-28" x="789.929688"/>
      <use xlink:href="#DejaVuSans-6d" x="828.943359"/>
      <use xlink:href="#DejaVuSans-6f" x="926.355469"/>
      <use xlink:href="#DejaVuSans-6c" x="987.537109"/>
      <use xlink:href="#DejaVuSans-2a" x="1015.320312"/>
      <use xlink:href="#DejaVuSans-41" x="1065.320312"/>
      <use xlink:href="#DejaVuSans-29" x="1133.728516"/>
      <use xlink:href="#DejaVuSans-5d" x="1172.742188"/>
     </g>
    </g>
   </g>
   <g id="line2d_15">
    <path d="M 83.72 499.48 
L 696.24 23.76 
" clip-path="url(#p46175595bc)" style="fill: none; stroke-dasharray: 5.55,2.4; stroke-dashoffset: 0; stroke: #ff0000; stroke-width: 1.5"/>
   </g>
   <g id="patch_3">
    <path d="M 83.72 499.48 
L 83.72 23.76 
" style="fill: none; stroke: #000000; stroke-width: 0.8; stroke-linejoin: miter; stroke-linecap: square"/>
   </g>
   <g id="patch_4">
    <path d="M 696.24 499.48 
L 696.24 23.76 
" style="fill: none; stroke: #000000; stroke-width: 0.8; stroke-linejoin: miter; stroke-linecap: square"/>
   </g>
   <g id="patch_5">
    <path d="M 83.72 499.48 
L 696.24 499.48 
" style="fill: none; stroke: #000000; stroke-width: 0.8; stroke-linejoin: miter; stroke-linecap: square"/>
   </g>
   <g id="patch_6">
    <path d="M 83.72 23.76 
L 696.24 23.76 
" style="fill: none; stroke: #000000; stroke-width: 0.8; stroke-linejoin: miter; stroke-linecap: square"/>
   </g>
   <g id="text_17">
    <!-- Correlation in: 0.694 -->
    <g transform="translate(144.972 71.332) scale(0.22 -0.22)">
     <defs>
      <path id="DejaVuSans-43" d="M 4122 4306 
L 4122 3641 
Q 3803 3938 3442 4084 
Q 3081 4231 2675 4231 
Q 1875 4231 1450 3742 
Q 1025 3253 1025 2328 
Q 1025 1406 1450 917 
Q 1875 428 2675 428 
Q 3081 428 3442 575 
Q 3803 722 4122 1019 
L 4122 359 
Q 3791 134 3420 21 
Q 3050 -91 2638 -91 
Q 1578 -91 968 557 
Q 359 1206 359 2328 
Q 359 3453 968 4101 
Q 1578 4750 2638 4750 
Q 3056 4750 3426 4639 
Q 3797 4528 4122 4306 
z
" transform="scale(0.015625)"/>
      <path id="DejaVuSans-3a" d="M 750 794 
L 1409 794 
L 1409 0 
L 750 0 
L 750 794 
z
M 750 3309 
L 1409 3309 
L 1409 2516 
L 750 2516 
L 750 3309 
z
" transform="scale(0.015625)"/>
      <path id="DejaVuSans-2e" d="M 684 794 
L 1344 794 
L 1344 0 
L 684 0 
L 684 794 
z
" transform="scale(0.015625)"/>
      <path id="DejaVuSans-39" d="M 703 97 
L 703 672 
Q 941 559 1184 500 
Q 1428 441 1663 441 
Q 2288 441 2617 861 
Q 2947 1281 2994 2138 
Q 2813 1869 2534 1725 
Q 2256 1581 1919 1581 
Q 1219 1581 811 2004 
Q 403 2428 403 3163 
Q 403 3881 828 4315 
Q 1253 4750 1959 4750 
Q 2769 4750 3195 4129 
Q 3622 3509 3622 2328 
Q 3622 1225 3098 567 
Q 2575 -91 1691 -91 
Q 1453 -91 1209 -44 
Q 966 3 703 97 
z
M 1959 2075 
Q 2384 2075 2632 2365 
Q 2881 2656 2881 3163 
Q 2881 3666 2632 3958 
Q 2384 4250 1959 4250 
Q 1534 4250 1286 3958 
Q 1038 3666 1038 3163 
Q 1038 2656 1286 2365 
Q 1534 2075 1959 2075 
z
" transform="scale(0.015625)"/>
     </defs>
     <use xlink:href="#DejaVuSans-43"/>
     <use xlink:href="#DejaVuSans-6f" x="69.824219"/>
     <use xlink:href="#DejaVuSans-72" x="131.005859"/>
     <use xlink:href="#DejaVuSans-72" x="170.369141"/>
     <use xlink:href="#DejaVuSans-65" x="209.232422"/>
     <use xlink:href="#DejaVuSans-6c" x="270.755859"/>
     <use xlink:href="#DejaVuSans-61" x="298.539062"/>
     <use xlink:href="#DejaVuSans-74" x="359.818359"/>
     <use xlink:href="#DejaVuSans-69" x="399.027344"/>
     <use xlink:href="#DejaVuSans-6f" x="426.810547"/>
     <use xlink:href="#DejaVuSans-6e" x="487.992188"/>
     <use xlink:href="#DejaVuSans-20" x="551.371094"/>
     <use xlink:href="#DejaVuSans-69" x="583.158203"/>
     <use xlink:href="#DejaVuSans-6e" x="610.941406"/>
     <use xlink:href="#DejaVuSans-3a" x="674.320312"/>
     <use xlink:href="#DejaVuSans-20" x="708.011719"/>
     <use xlink:href="#DejaVuSans-30" x="739.798828"/>
     <use xlink:href="#DejaVuSans-2e" x="803.421875"/>
     <use xlink:href="#DejaVuSans-36" x="835.208984"/>
     <use xlink:href="#DejaVuSans-39" x="898.832031"/>
     <use xlink:href="#DejaVuSans-34" x="962.455078"/>
    </g>
   </g>
  </g>
 </g>
 <defs>
  <clipPath id="p46175595bc">
   <rect x="83.72" y="23.76" width="612.52" height="475.72"/>
  </clipPath>
 </defs>
</svg>
