<?xml version="1.0" encoding="utf-8" standalone="no"?>
<!DOCTYPE svg PUBLIC "-//W3C//DTD SVG 1.1//EN"
  "http://www.w3.org/Graphics/SVG/1.1/DTD/svg11.dtd">
<svg xmlns:xlink="http://www.w3.org/1999/xlink" width="720pt" height="576pt" viewBox="0 0 720 576" xmlns="http://www.w3.org/2000/svg" version="1.1">
 <metadata>
  <rdf:RDF xmlns:dc="http://purl.org/dc/elements/1.1/" xmlns:cc="http://creativecommons.org/ns#" xmlns:rdf="http://www.w3.org/1999/02/22-rdf-syntax-ns#">
   <cc:Work>
    <dc:type rdf:resource="http://purl.org/dc/dcmitype/StillImage"/>
    <dc:date>2024-12-07T16:57:45.237072</dc:date>
    <dc:format>image/svg+xml</dc:format>
    <dc:creator>
     <cc:Agent>
      <dc:title>Matplotlib v3.8.4, https://matplotlib.org/</dc:title>
     </cc:Agent>
    </dc:creator>
   </cc:Work>
  </rdf:RDF>
 </metadata>
 <defs>
  <style type="text/css">*{stroke-linejoin: round; stroke-linecap: butt}</style>
 </defs>
 <g id="figure_1">
  <g id="patch_1">
   <path d="M 0 576 
L 720 576 
L 720 0 
L 0 0 
z
" style="fill: #ffffff"/>
  </g>
  <g id="axes_1">
   <g id="patch_2">
    <path d="M 83.72 499.48 
L 696.24 499.48 
L 696.24 23.76 
L 83.72 23.76 
z
" style="fill: #ffffff"/>
   </g>
   <g id="QuadContourSet_1">
    <path d="M 94.786757 495.014525 
L 95.869932 495.444887 
L 96.953107 495.509968 
L 98.036282 495.366241 
L 99.119457 495.069036 
L 100.202632 494.625394 
L 100.639419 494.392237 
L 101.285807 494.190189 
L 102.368982 493.735505 
L 103.452157 493.074009 
L 104.286982 492.326167 
L 104.535332 492.185885 
L 105.618507 491.431254 
L 106.691092 490.260096 
L 106.701681 490.252228 
L 107.784856 489.381149 
L 108.745802 488.194026 
L 108.868031 488.08352 
L 109.951206 486.98686 
L 110.573029 486.127956 
L 111.034381 485.62909 
L 112.109218 484.061885 
L 112.117556 484.051629 
L 113.200731 482.621931 
L 113.581354 481.995815 
L 114.283906 480.951748 
L 114.873425 479.929744 
L 115.367081 479.098687 
L 116.041406 477.863674 
L 116.450256 477.083017 
L 117.1131 475.797604 
L 117.533431 474.886319 
L 118.094624 473.731533 
L 118.616606 472.445135 
L 118.972934 471.665463 
L 119.699781 469.6264 
L 119.711362 469.599393 
L 120.458644 467.533322 
L 120.782956 466.189671 
L 121.017205 465.467252 
L 121.414425 463.401182 
L 121.505137 461.335111 
L 121.082884 459.269041 
L 120.782956 458.555171 
L 120.212919 457.20297 
L 119.699781 456.222222 
L 119.067495 455.1369 
L 118.616606 454.422131 
L 117.533431 453.32085 
L 116.65592 453.07083 
L 116.450256 453.010757 
L 115.367081 453.07083 
L 115.367081 453.07083 
L 114.283906 453.199329 
L 113.200731 453.405307 
L 112.117556 453.771186 
L 111.034381 454.324027 
L 109.951206 455.13019 
L 109.942536 455.1369 
L 108.868031 455.680037 
L 107.784856 456.23611 
L 106.701681 456.691159 
L 105.618507 456.826247 
L 104.535332 456.933827 
L 103.882129 457.20297 
L 103.452157 457.318659 
L 102.368982 457.862507 
L 101.285807 458.743993 
L 100.817925 459.269041 
L 100.202632 459.795261 
L 99.119457 461.135462 
L 98.988893 461.335111 
L 98.036282 462.537341 
L 97.501257 463.401182 
L 96.953107 464.153784 
L 96.173696 465.467252 
L 95.869932 465.923011 
L 94.952048 467.533322 
L 94.786757 467.807011 
L 93.809757 469.599393 
L 93.703582 469.79605 
L 92.738254 471.665463 
L 92.620407 471.913581 
L 91.742416 473.731533 
L 91.537232 474.231595 
L 90.840812 475.797604 
L 90.454057 476.91142 
L 90.07126 477.863674 
L 89.478955 479.929744 
L 89.370882 480.608866 
L 89.079713 481.995815 
L 89.029617 484.061885 
L 89.370882 485.624097 
L 89.504014 486.127956 
L 90.454057 487.948442 
L 90.569295 488.194026 
L 91.520975 490.260096 
L 91.537232 490.293012 
L 92.605416 492.326167 
L 92.620407 492.349871 
L 93.703582 493.983757 
L 94.088052 494.392237 
z
M 96.392829 490.260096 
L 95.869932 489.41987 
L 95.28577 488.194026 
L 94.786757 486.700891 
L 94.579312 486.127956 
L 94.074466 484.061885 
L 93.733836 481.995815 
L 93.703582 481.715308 
L 93.467954 479.929744 
L 93.595622 477.863674 
L 93.703582 477.451722 
L 94.08313 475.797604 
L 94.786757 473.940268 
L 94.86114 473.731533 
L 95.869932 471.665463 
L 95.869932 471.665463 
L 96.953107 469.835967 
L 97.105946 469.599393 
L 98.036282 468.256818 
L 98.628302 467.533322 
L 99.119457 466.915861 
L 100.202632 465.818103 
L 100.640357 465.467252 
L 101.285807 464.888026 
L 102.368982 464.10932 
L 103.452157 463.489978 
L 103.590113 463.401182 
L 104.535332 462.671777 
L 105.618507 461.908795 
L 106.510903 461.335111 
L 106.701681 461.178814 
L 107.784856 460.340893 
L 108.868031 459.685248 
L 109.768696 459.269041 
L 109.951206 459.153756 
L 111.034381 458.612948 
L 112.117556 458.208265 
L 113.200731 457.953995 
L 114.283906 457.927764 
L 115.367081 458.384248 
L 116.169152 459.269041 
L 116.450256 459.659415 
L 117.321997 461.335111 
L 117.533431 462.020551 
L 117.925731 463.401182 
L 118.134684 465.467252 
L 117.971545 467.533322 
L 117.533431 469.37822 
L 117.492804 469.599393 
L 116.853774 471.665463 
L 116.450256 472.616755 
L 116.02756 473.731533 
L 115.367081 475.108442 
L 115.051921 475.797604 
L 114.283906 477.237424 
L 113.943804 477.863674 
L 113.200731 479.133419 
L 112.693404 479.929744 
L 112.117556 480.836678 
L 111.259901 481.995815 
L 111.034381 482.326289 
L 109.951206 483.73585 
L 109.659465 484.061885 
L 108.868031 485.087143 
L 107.792821 486.127956 
L 107.784856 486.137636 
L 106.701681 487.315951 
L 105.618507 488.136889 
L 105.527032 488.194026 
L 104.535332 489.030471 
L 103.452157 489.680885 
L 102.368982 490.157709 
L 102.081216 490.260096 
L 101.285807 490.672223 
L 100.202632 491.077003 
L 99.119457 491.302731 
L 98.036282 491.287339 
L 96.953107 490.832584 
z
" clip-path="url(#pda7c195afa)" style="fill: #e5e5f3"/>
    <path d="M 96.953107 490.832584 
L 98.036282 491.287339 
L 99.119457 491.302731 
L 100.202632 491.077003 
L 101.285807 490.672223 
L 102.081216 490.260096 
L 102.368982 490.157709 
L 103.452157 489.680885 
L 104.535332 489.030471 
L 105.527032 488.194026 
L 105.618507 488.136889 
L 106.701681 487.315951 
L 107.784856 486.137636 
L 107.792821 486.127956 
L 108.868031 485.087143 
L 109.659465 484.061885 
L 109.951206 483.73585 
L 111.034381 482.326289 
L 111.259901 481.995815 
L 112.117556 480.836678 
L 112.693404 479.929744 
L 113.200731 479.133419 
L 113.943804 477.863674 
L 114.283906 477.237424 
L 115.051921 475.797604 
L 115.367081 475.108442 
L 116.02756 473.731533 
L 116.450256 472.616755 
L 116.853774 471.665463 
L 117.492804 469.599393 
L 117.533431 469.37822 
L 117.971545 467.533322 
L 118.134684 465.467252 
L 117.925731 463.401182 
L 117.533431 462.020551 
L 117.321997 461.335111 
L 116.450256 459.659415 
L 116.169152 459.269041 
L 115.367081 458.384248 
L 114.283906 457.927764 
L 113.200731 457.953995 
L 112.117556 458.208265 
L 111.034381 458.612948 
L 109.951206 459.153756 
L 109.768696 459.269041 
L 108.868031 459.685248 
L 107.784856 460.340893 
L 106.701681 461.178814 
L 106.510903 461.335111 
L 105.618507 461.908795 
L 104.535332 462.671777 
L 103.590113 463.401182 
L 103.452157 463.489978 
L 102.368982 464.10932 
L 101.285807 464.888026 
L 100.640357 465.467252 
L 100.202632 465.818103 
L 99.119457 466.915861 
L 98.628302 467.533322 
L 98.036282 468.256818 
L 97.105946 469.599393 
L 96.953107 469.835967 
L 95.869932 471.665463 
L 95.869932 471.665463 
L 94.86114 473.731533 
L 94.786757 473.940268 
L 94.08313 475.797604 
L 93.703582 477.451722 
L 93.595622 477.863674 
L 93.467954 479.929744 
L 93.703582 481.715308 
L 93.733836 481.995815 
L 94.074466 484.061885 
L 94.579312 486.127956 
L 94.786757 486.700891 
L 95.28577 488.194026 
L 95.869932 489.41987 
L 96.392829 490.260096 
z
M 97.869924 488.194026 
L 96.953107 486.243325 
L 96.909944 486.127956 
L 96.403449 484.061885 
L 96.141507 481.995815 
L 96.110375 479.929744 
L 96.273504 477.863674 
L 96.699954 475.797604 
L 96.953107 475.07454 
L 97.412828 473.731533 
L 98.036282 472.518597 
L 98.498175 471.665463 
L 99.119457 470.753433 
L 100.012472 469.599393 
L 100.202632 469.37708 
L 101.285807 468.157488 
L 101.920777 467.533322 
L 102.368982 467.088303 
L 103.452157 466.063001 
L 104.15602 465.467252 
L 104.535332 465.11305 
L 105.618507 464.177577 
L 106.701681 463.410077 
L 106.715996 463.401182 
L 107.784856 462.597197 
L 108.868031 461.954506 
L 109.951206 461.461927 
L 110.289873 461.335111 
L 111.034381 460.965126 
L 112.117556 460.636068 
L 113.200731 460.641761 
L 114.283906 461.239861 
L 114.37299 461.335111 
L 115.367081 462.796784 
L 115.65208 463.401182 
L 116.168233 465.467252 
L 116.245201 467.533322 
L 116.000021 469.599393 
L 115.447958 471.665463 
L 115.367081 471.868498 
L 114.713799 473.731533 
L 114.283906 474.645018 
L 113.773193 475.797604 
L 113.200731 476.861249 
L 112.656669 477.863674 
L 112.117556 478.759628 
L 111.356291 479.929744 
L 111.034381 480.416289 
L 109.951206 481.863469 
L 109.842855 481.995815 
L 108.868031 483.256089 
L 108.082405 484.061885 
L 107.784856 484.413353 
L 106.701681 485.472324 
L 105.819604 486.127956 
L 105.618507 486.314004 
L 104.535332 487.124768 
L 103.452157 487.729276 
L 102.368982 488.194026 
L 102.368982 488.194026 
L 101.285807 488.682724 
L 100.202632 488.956717 
L 99.119457 488.939602 
L 98.036282 488.380071 
z
" clip-path="url(#pda7c195afa)" style="fill: #cecef5"/>
    <path d="M 98.036282 488.380071 
L 99.119457 488.939602 
L 100.202632 488.956717 
L 101.285807 488.682724 
L 102.368982 488.194026 
L 102.368982 488.194026 
L 103.452157 487.729276 
L 104.535332 487.124768 
L 105.618507 486.314004 
L 105.819604 486.127956 
L 106.701681 485.472324 
L 107.784856 484.413353 
L 108.082405 484.061885 
L 108.868031 483.256089 
L 109.842855 481.995815 
L 109.951206 481.863469 
L 111.034381 480.416289 
L 111.356291 479.929744 
L 112.117556 478.759628 
L 112.656669 477.863674 
L 113.200731 476.861249 
L 113.773193 475.797604 
L 114.283906 474.645018 
L 114.713799 473.731533 
L 115.367081 471.868498 
L 115.447958 471.665463 
L 116.000021 469.599393 
L 116.245201 467.533322 
L 116.168233 465.467252 
L 115.65208 463.401182 
L 115.367081 462.796784 
L 114.37299 461.335111 
L 114.283906 461.239861 
L 113.200731 460.641761 
L 112.117556 460.636068 
L 111.034381 460.965126 
L 110.289873 461.335111 
L 109.951206 461.461927 
L 108.868031 461.954506 
L 107.784856 462.597197 
L 106.715996 463.401182 
L 106.701681 463.410077 
L 105.618507 464.177577 
L 104.535332 465.11305 
L 104.15602 465.467252 
L 103.452157 466.063001 
L 102.368982 467.088303 
L 101.920777 467.533322 
L 101.285807 468.157488 
L 100.202632 469.37708 
L 100.012472 469.599393 
L 99.119457 470.753433 
L 98.498175 471.665463 
L 98.036282 472.518597 
L 97.412828 473.731533 
L 96.953107 475.07454 
L 96.699954 475.797604 
L 96.273504 477.863674 
L 96.110375 479.929744 
L 96.141507 481.995815 
L 96.403449 484.061885 
L 96.909944 486.127956 
L 96.953107 486.243325 
L 97.869924 488.194026 
z
M 98.679553 486.127956 
L 98.036282 484.102235 
L 98.025707 484.061885 
L 97.776636 481.995815 
L 97.766504 479.929744 
L 98.036282 477.863674 
L 98.036282 477.863674 
L 98.536649 475.797604 
L 99.119457 474.367836 
L 99.374625 473.731533 
L 100.202632 472.235259 
L 100.53236 471.665463 
L 101.285807 470.584283 
L 102.046351 469.599393 
L 102.368982 469.212718 
L 103.452157 468.004253 
L 103.923647 467.533322 
L 104.535332 466.907645 
L 105.618507 465.944827 
L 106.258037 465.467252 
L 106.701681 465.093897 
L 107.784856 464.303294 
L 108.868031 463.684179 
L 109.472313 463.401182 
L 109.951206 463.122434 
L 111.034381 462.70975 
L 112.117556 462.640451 
L 113.200731 463.158419 
L 113.429286 463.401182 
L 114.283906 464.831985 
L 114.538831 465.467252 
L 114.870378 467.533322 
L 114.767835 469.599393 
L 114.326088 471.665463 
L 114.283906 471.781284 
L 113.658107 473.731533 
L 113.200731 474.738434 
L 112.745807 475.797604 
L 112.117556 476.962722 
L 111.624219 477.863674 
L 111.034381 478.814648 
L 110.279731 479.929744 
L 109.951206 480.400305 
L 108.868031 481.760562 
L 108.653757 481.995815 
L 107.784856 482.99716 
L 106.701681 483.977148 
L 106.590699 484.061885 
L 105.618507 484.904772 
L 104.535332 485.626628 
L 103.580268 486.127956 
L 103.452157 486.210712 
L 102.368982 486.765798 
L 101.285807 487.107974 
L 100.202632 487.16892 
L 99.119457 486.679609 
z
" clip-path="url(#pda7c195afa)" style="fill: #b5b5f6"/>
    <path d="M 99.119457 486.679609 
L 100.202632 487.16892 
L 101.285807 487.107974 
L 102.368982 486.765798 
L 103.452157 486.210712 
L 103.580268 486.127956 
L 104.535332 485.626628 
L 105.618507 484.904772 
L 106.590699 484.061885 
L 106.701681 483.977148 
L 107.784856 482.99716 
L 108.653757 481.995815 
L 108.868031 481.760562 
L 109.951206 480.400305 
L 110.279731 479.929744 
L 111.034381 478.814648 
L 111.624219 477.863674 
L 112.117556 476.962722 
L 112.745807 475.797604 
L 113.200731 474.738434 
L 113.658107 473.731533 
L 114.283906 471.781284 
L 114.326088 471.665463 
L 114.767835 469.599393 
L 114.870378 467.533322 
L 114.538831 465.467252 
L 114.283906 464.831985 
L 113.429286 463.401182 
L 113.200731 463.158419 
L 112.117556 462.640451 
L 111.034381 462.70975 
L 109.951206 463.122434 
L 109.472313 463.401182 
L 108.868031 463.684179 
L 107.784856 464.303294 
L 106.701681 465.093897 
L 106.258037 465.467252 
L 105.618507 465.944827 
L 104.535332 466.907645 
L 103.923647 467.533322 
L 103.452157 468.004253 
L 102.368982 469.212718 
L 102.046351 469.599393 
L 101.285807 470.584283 
L 100.53236 471.665463 
L 100.202632 472.235259 
L 99.374625 473.731533 
L 99.119457 474.367836 
L 98.536649 475.797604 
L 98.036282 477.863674 
L 98.036282 477.863674 
L 97.766504 479.929744 
L 97.776636 481.995815 
L 98.025707 484.061885 
L 98.036282 484.102235 
L 98.679553 486.127956 
z
M 99.119457 484.061885 
L 99.119457 484.061885 
L 98.834392 481.995815 
L 98.863821 479.929744 
L 99.119457 478.112725 
L 99.150406 477.863674 
L 99.683464 475.797604 
L 100.202632 474.565291 
L 100.550929 473.731533 
L 101.285807 472.436302 
L 101.74676 471.665463 
L 102.368982 470.790443 
L 103.314898 469.599393 
L 103.452157 469.43777 
L 104.535332 468.241419 
L 105.301937 467.533322 
L 105.618507 467.229028 
L 106.701681 466.295637 
L 107.784856 465.557599 
L 107.937963 465.467252 
L 108.868031 464.832479 
L 109.951206 464.32121 
L 111.034381 464.085688 
L 112.117556 464.351282 
L 113.13751 465.467252 
L 113.200731 465.602988 
L 113.7925 467.533322 
L 113.840802 469.599393 
L 113.503506 471.665463 
L 113.200731 472.594003 
L 112.866371 473.731533 
L 112.117556 475.448055 
L 111.970006 475.797604 
L 111.034381 477.514668 
L 110.8368 477.863674 
L 109.951206 479.220284 
L 109.434521 479.929744 
L 108.868031 480.674762 
L 107.784856 481.875649 
L 107.659696 481.995815 
L 106.701681 482.950195 
L 105.618507 483.800668 
L 105.219519 484.061885 
L 104.535332 484.566029 
L 103.452157 485.189097 
L 102.368982 485.631522 
L 101.285807 485.861414 
L 100.202632 485.643394 
z
" clip-path="url(#pda7c195afa)" style="fill: #9e9ef7"/>
    <path d="M 100.202632 485.643394 
L 101.285807 485.861414 
L 102.368982 485.631522 
L 103.452157 485.189097 
L 104.535332 484.566029 
L 105.219519 484.061885 
L 105.618507 483.800668 
L 106.701681 482.950195 
L 107.659696 481.995815 
L 107.784856 481.875649 
L 108.868031 480.674762 
L 109.434521 479.929744 
L 109.951206 479.220284 
L 110.8368 477.863674 
L 111.034381 477.514668 
L 111.970006 475.797604 
L 112.117556 475.448055 
L 112.866371 473.731533 
L 113.200731 472.594003 
L 113.503506 471.665463 
L 113.840802 469.599393 
L 113.7925 467.533322 
L 113.200731 465.602988 
L 113.13751 465.467252 
L 112.117556 464.351282 
L 111.034381 464.085688 
L 109.951206 464.32121 
L 108.868031 464.832479 
L 107.937963 465.467252 
L 107.784856 465.557599 
L 106.701681 466.295637 
L 105.618507 467.229028 
L 105.301937 467.533322 
L 104.535332 468.241419 
L 103.452157 469.43777 
L 103.314898 469.599393 
L 102.368982 470.790443 
L 101.74676 471.665463 
L 101.285807 472.436302 
L 100.550929 473.731533 
L 100.202632 474.565291 
L 99.683464 475.797604 
L 99.150406 477.863674 
L 99.119457 478.112725 
L 98.863821 479.929744 
L 98.834392 481.995815 
L 99.119457 484.061885 
L 99.119457 484.061885 
z
M 100.967611 484.061885 
L 100.202632 482.748075 
L 100.008884 481.995815 
L 100.016646 479.929744 
L 100.202632 478.778665 
L 100.335561 477.863674 
L 100.916488 475.797604 
L 101.285807 474.946914 
L 101.819402 473.731533 
L 102.368982 472.790661 
L 103.07822 471.665463 
L 103.452157 471.157387 
L 104.535332 469.830791 
L 104.745578 469.599393 
L 105.618507 468.667364 
L 106.701681 467.723745 
L 106.953489 467.533322 
L 107.784856 466.861716 
L 108.868031 466.22194 
L 109.951206 465.832948 
L 111.034381 465.913026 
L 112.117556 467.049612 
L 112.351467 467.533322 
L 112.68281 469.599393 
L 112.480991 471.665463 
L 112.117556 472.938926 
L 111.908119 473.731533 
L 111.034381 475.797604 
L 111.034381 475.797604 
L 109.951206 477.718449 
L 109.864252 477.863674 
L 108.868031 479.270496 
L 108.337102 479.929744 
L 107.784856 480.575615 
L 106.701681 481.641991 
L 106.27958 481.995815 
L 105.618507 482.562851 
L 104.535332 483.308684 
L 103.452157 483.884213 
L 102.933009 484.061885 
L 102.368982 484.274128 
L 101.285807 484.260419 
z
" clip-path="url(#pda7c195afa)" style="fill: #8585f8"/>
    <path d="M 101.285807 484.260419 
L 102.368982 484.274128 
L 102.933009 484.061885 
L 103.452157 483.884213 
L 104.535332 483.308684 
L 105.618507 482.562851 
L 106.27958 481.995815 
L 106.701681 481.641991 
L 107.784856 480.575615 
L 108.337102 479.929744 
L 108.868031 479.270496 
L 109.864252 477.863674 
L 109.951206 477.718449 
L 111.034381 475.797604 
L 111.034381 475.797604 
L 111.908119 473.731533 
L 112.117556 472.938926 
L 112.480991 471.665463 
L 112.68281 469.599393 
L 112.351467 467.533322 
L 112.117556 467.049612 
L 111.034381 465.913026 
L 109.951206 465.832948 
L 108.868031 466.22194 
L 107.784856 466.861716 
L 106.953489 467.533322 
L 106.701681 467.723745 
L 105.618507 468.667364 
L 104.745578 469.599393 
L 104.535332 469.830791 
L 103.452157 471.157387 
L 103.07822 471.665463 
L 102.368982 472.790661 
L 101.819402 473.731533 
L 101.285807 474.946914 
L 100.916488 475.797604 
L 100.335561 477.863674 
L 100.202632 478.778665 
L 100.016646 479.929744 
L 100.008884 481.995815 
L 100.202632 482.748075 
L 100.967611 484.061885 
z
M 101.285807 481.995815 
L 101.285807 481.995815 
L 101.042051 479.929744 
L 101.285807 478.350062 
L 101.354601 477.863674 
L 101.970051 475.797604 
L 102.368982 474.91916 
L 102.927139 473.731533 
L 103.452157 472.867964 
L 104.261692 471.665463 
L 104.535332 471.309391 
L 105.618507 470.053048 
L 106.074319 469.599393 
L 106.701681 468.989328 
L 107.784856 468.17503 
L 108.868031 467.57882 
L 109.213247 467.533322 
L 109.951206 467.433287 
L 110.162601 467.533322 
L 111.034381 468.474776 
L 111.433152 469.599393 
L 111.429657 471.665463 
L 111.034381 473.322516 
L 110.942647 473.731533 
L 110.080114 475.797604 
L 109.951206 476.026202 
L 108.868031 477.835624 
L 108.85008 477.863674 
L 107.784856 479.220976 
L 107.148301 479.929744 
L 106.701681 480.387949 
L 105.618507 481.318374 
L 104.660504 481.995815 
L 104.535332 482.085047 
L 103.452157 482.604397 
L 102.368982 482.739797 
z
" clip-path="url(#pda7c195afa)" style="fill: #6969fa"/>
    <path d="M 102.368982 482.739797 
L 103.452157 482.604397 
L 104.535332 482.085047 
L 104.660504 481.995815 
L 105.618507 481.318374 
L 106.701681 480.387949 
L 107.148301 479.929744 
L 107.784856 479.220976 
L 108.85008 477.863674 
L 108.868031 477.835624 
L 109.951206 476.026202 
L 110.080114 475.797604 
L 110.942647 473.731533 
L 111.034381 473.322516 
L 111.429657 471.665463 
L 111.433152 469.599393 
L 111.034381 468.474776 
L 110.162601 467.533322 
L 109.951206 467.433287 
L 109.213247 467.533322 
L 108.868031 467.57882 
L 107.784856 468.17503 
L 106.701681 468.989328 
L 106.074319 469.599393 
L 105.618507 470.053048 
L 104.535332 471.309391 
L 104.261692 471.665463 
L 103.452157 472.867964 
L 102.927139 473.731533 
L 102.368982 474.91916 
L 101.970051 475.797604 
L 101.354601 477.863674 
L 101.285807 478.350062 
L 101.042051 479.929744 
L 101.285807 481.995815 
L 101.285807 481.995815 
z
M 102.26047 479.929744 
L 102.368982 477.863674 
L 102.368982 477.863674 
L 103.003618 475.797604 
L 103.452157 474.856083 
L 104.017666 473.731533 
L 104.535332 472.934461 
L 105.466292 471.665463 
L 105.618507 471.482711 
L 106.701681 470.424553 
L 107.76221 469.599393 
L 107.784856 469.582465 
L 108.868031 469.296148 
L 109.523644 469.599393 
L 109.951206 470.395718 
L 110.186578 471.665463 
L 109.951206 473.018839 
L 109.833251 473.731533 
L 108.985081 475.797604 
L 108.868031 475.993472 
L 107.784856 477.679192 
L 107.656389 477.863674 
L 106.701681 478.932297 
L 105.674584 479.929744 
L 105.618507 479.978676 
L 104.535332 480.656011 
L 103.452157 480.949856 
L 102.368982 480.204047 
z
" clip-path="url(#pda7c195afa)" style="fill: #4a4afb"/>
    <path d="M 102.368982 480.204047 
L 103.452157 480.949856 
L 104.535332 480.656011 
L 105.618507 479.978676 
L 105.674584 479.929744 
L 106.701681 478.932297 
L 107.656389 477.863674 
L 107.784856 477.679192 
L 108.868031 475.993472 
L 108.985081 475.797604 
L 109.833251 473.731533 
L 109.951206 473.018839 
L 110.186578 471.665463 
L 109.951206 470.395718 
L 109.523644 469.599393 
L 108.868031 469.296148 
L 107.784856 469.582465 
L 107.76221 469.599393 
L 106.701681 470.424553 
L 105.618507 471.482711 
L 105.466292 471.665463 
L 104.535332 472.934461 
L 104.017666 473.731533 
L 103.452157 474.856083 
L 103.003618 475.797604 
L 102.368982 477.863674 
L 102.368982 477.863674 
L 102.26047 479.929744 
z
M 103.349894 477.863674 
L 103.452157 477.48317 
L 103.910292 475.797604 
L 104.535332 474.547891 
L 104.978963 473.731533 
L 105.618507 472.880327 
L 106.68286 471.665463 
L 106.701681 471.647154 
L 107.784856 471.154167 
L 108.868031 471.665463 
L 108.796963 473.731533 
L 107.968901 475.797604 
L 107.784856 476.082749 
L 106.701681 477.59203 
L 106.474809 477.863674 
L 105.618507 478.603173 
L 104.535332 479.159756 
L 103.452157 478.354199 
z
" clip-path="url(#pda7c195afa)" style="fill: #2b2bfd"/>
    <path d="M 103.452157 478.354199 
L 104.535332 479.159756 
L 105.618507 478.603173 
L 106.474809 477.863674 
L 106.701681 477.59203 
L 107.784856 476.082749 
L 107.968901 475.797604 
L 108.796963 473.731533 
L 108.868031 471.665463 
L 107.784856 471.154167 
L 106.701681 471.647154 
L 106.68286 471.665463 
L 105.618507 472.880327 
L 104.978963 473.731533 
L 104.535332 474.547891 
L 103.910292 475.797604 
L 103.452157 477.48317 
L 103.349894 477.863674 
z
" clip-path="url(#pda7c195afa)" style="fill: #0f0ffe"/>
   </g>
   <g id="QuadContourSet_2">
    <path d="M 98.719193 489.611844 
L 101.633174 490.576735 
L 104.547154 491.016617 
L 107.461134 491.054658 
L 110.375114 490.713472 
L 113.289095 489.99219 
L 115.930193 488.903032 
L 116.203075 488.82467 
L 119.117055 487.787293 
L 121.673517 486.409018 
L 122.031036 486.241207 
L 124.945016 484.555991 
L 125.817415 483.915004 
L 127.858996 482.273673 
L 128.831503 481.42099 
L 130.772977 479.344004 
L 131.203364 478.926977 
L 133.348775 476.432963 
L 133.686957 475.914643 
L 135.309785 473.938949 
L 136.600937 471.60432 
L 136.713016 471.444935 
L 138.131997 468.950921 
L 139.192434 466.456907 
L 139.514917 465.575682 
L 140.236798 463.962894 
L 141.24713 461.46888 
L 142.250872 458.974866 
L 142.428898 458.545399 
L 143.419423 456.480852 
L 144.549828 453.986838 
L 145.342878 452.087175 
L 145.669157 451.492824 
L 146.89673 448.998811 
L 147.967832 446.504797 
L 148.256858 445.805146 
L 149.174869 444.010783 
L 150.387922 441.516769 
L 151.170839 439.781285 
L 151.663918 439.022755 
L 152.974442 436.528741 
L 153.866749 434.034728 
L 154.084819 433.232605 
L 154.571269 431.540714 
L 155.078205 429.0467 
L 155.42731 426.552686 
L 155.691987 424.058672 
L 155.957193 421.564658 
L 156.323688 419.070645 
L 156.894895 416.576631 
L 156.998799 416.23993 
L 157.649505 414.082617 
L 158.365872 411.588603 
L 158.987419 409.094589 
L 159.446565 406.600575 
L 159.631083 404.106562 
L 159.378601 401.612548 
L 158.567604 399.118534 
L 157.422302 396.62452 
L 156.998799 395.444249 
L 156.733473 394.130506 
L 156.473052 391.636492 
L 156.298098 389.142479 
L 156.009045 386.648465 
L 155.403737 384.154451 
L 154.360139 381.660437 
L 154.084819 381.083526 
L 152.95688 379.166423 
L 151.369078 376.672409 
L 151.170839 376.393677 
L 150.338983 374.178395 
L 149.161095 371.684382 
L 148.256858 370.014638 
L 147.934162 369.190368 
L 146.887897 366.696354 
L 145.759264 364.20234 
L 145.342878 363.262119 
L 144.258945 361.708326 
L 142.428898 359.35372 
L 142.305525 359.214312 
L 139.514917 356.720299 
L 139.514917 356.720299 
L 137.047925 354.226285 
L 136.600937 353.818242 
L 134.615377 351.732271 
L 133.686957 350.498972 
L 132.986406 349.238257 
L 131.637354 346.744243 
L 130.772977 345.240155 
L 130.272823 344.250229 
L 128.799515 341.756216 
L 127.858996 340.43611 
L 126.380939 339.262202 
L 124.945016 338.25259 
L 122.98553 336.768188 
L 122.031036 336.041094 
L 120.069362 334.274174 
L 119.117055 333.567956 
L 116.360852 331.78016 
L 116.203075 331.688432 
L 113.445839 329.286146 
L 113.289095 329.143173 
L 110.375114 327.087731 
L 107.461134 327.298052 
L 104.94108 329.286146 
L 104.547154 329.59637 
L 102.44169 331.78016 
L 101.633174 332.717555 
L 100.474264 334.274174 
L 98.88425 336.768188 
L 98.719193 337.050943 
L 97.526171 339.262202 
L 96.398623 341.756216 
L 95.805213 343.278226 
L 95.387607 344.250229 
L 94.420698 346.744243 
L 93.634596 349.238257 
L 93.022138 351.732271 
L 92.891233 352.447056 
L 92.481376 354.226285 
L 92.111626 356.720299 
L 91.896129 359.214312 
L 91.762078 361.708326 
L 91.660015 364.20234 
L 91.580685 366.696354 
L 91.539607 369.190368 
L 91.54737 371.684382 
L 91.594883 374.178395 
L 91.661335 376.672409 
L 91.730506 379.166423 
L 91.800364 381.660437 
L 91.88202 384.154451 
L 91.991187 386.648465 
L 92.13733 389.142479 
L 92.314684 391.636492 
L 92.497394 394.130506 
L 92.645441 396.62452 
L 92.729862 399.118534 
L 92.760437 401.612548 
L 92.781523 404.106562 
L 92.840002 406.600575 
L 92.891233 407.704009 
L 92.921719 409.094589 
L 92.993212 411.588603 
L 93.065989 414.082617 
L 93.128366 416.576631 
L 93.172165 419.070645 
L 93.189875 421.564658 
L 93.1753 424.058672 
L 93.126639 426.552686 
L 93.047723 429.0467 
L 92.946544 431.540714 
L 92.891233 432.739132 
L 92.7627 434.034728 
L 92.51769 436.528741 
L 92.286547 439.022755 
L 92.059345 441.516769 
L 91.820482 444.010783 
L 91.556891 446.504797 
L 91.263081 448.998811 
L 90.942851 451.492824 
L 90.608992 453.986838 
L 90.280171 456.480852 
L 89.977252 458.953496 
L 89.971753 458.974866 
L 89.30315 461.46888 
L 88.7652 463.962894 
L 88.363796 466.456907 
L 88.09439 468.950921 
L 87.95424 471.444935 
L 87.952443 473.938949 
L 88.123481 476.432963 
L 88.553557 478.926977 
L 89.440088 481.42099 
L 89.977252 482.400012 
L 90.67521 483.915004 
L 92.891233 486.375338 
L 92.936153 486.409018 
L 95.805213 488.335884 
L 97.25274 488.903032 
z
M 103.552355 486.409018 
L 101.633174 485.982998 
L 98.719193 484.700551 
L 97.467989 483.915004 
L 95.805213 482.746649 
L 94.448823 481.42099 
L 92.910624 478.926977 
L 92.891233 478.874442 
L 91.958518 476.432963 
L 91.537214 473.938949 
L 91.441604 471.444935 
L 91.580378 468.950921 
L 91.921881 466.456907 
L 92.464881 463.962894 
L 92.891233 462.453811 
L 93.091148 461.46888 
L 93.659095 458.974866 
L 94.307634 456.480852 
L 94.998638 453.986838 
L 95.672478 451.492824 
L 95.805213 450.884012 
L 96.101437 448.998811 
L 96.383237 446.504797 
L 96.566393 444.010783 
L 96.680745 441.516769 
L 96.767132 439.022755 
L 96.857912 436.528741 
L 96.967615 434.034728 
L 97.094727 431.540714 
L 97.228364 429.0467 
L 97.35455 426.552686 
L 97.45993 424.058672 
L 97.534909 421.564658 
L 97.578148 419.070645 
L 97.598728 416.576631 
L 97.611022 414.082617 
L 97.625274 411.588603 
L 97.642418 409.094589 
L 97.655923 406.600575 
L 97.65604 404.106562 
L 97.632258 401.612548 
L 97.575138 399.118534 
L 97.481269 396.62452 
L 97.360412 394.130506 
L 97.237006 391.636492 
L 97.140901 389.142479 
L 97.093594 386.648465 
L 97.100821 384.154451 
L 97.154862 381.660437 
L 97.242847 379.166423 
L 97.356028 376.672409 
L 97.4947 374.178395 
L 97.665594 371.684382 
L 97.875198 369.190368 
L 98.12624 366.696354 
L 98.421647 364.20234 
L 98.719193 362.083809 
L 98.768217 361.708326 
L 99.150028 359.214312 
L 99.63721 356.720299 
L 100.278016 354.226285 
L 101.132869 351.732271 
L 101.633174 350.575441 
L 102.403922 349.238257 
L 104.055979 346.744243 
L 104.547154 346.080622 
L 107.461134 344.84602 
L 110.375114 345.639142 
L 111.89968 346.744243 
L 113.289095 347.840028 
L 114.409024 349.238257 
L 116.203075 351.584678 
L 116.313081 351.732271 
L 118.038448 354.226285 
L 119.117055 356.076319 
L 119.520009 356.720299 
L 120.86767 359.214312 
L 122.031036 361.708326 
L 122.031036 361.708326 
L 123.429083 364.20234 
L 124.90896 366.696354 
L 124.945016 366.752397 
L 126.560598 369.190368 
L 127.858996 371.371167 
L 128.123172 371.684382 
L 130.117097 374.178395 
L 130.772977 375.105284 
L 132.098135 376.672409 
L 133.470213 379.166423 
L 133.686957 379.672846 
L 134.449826 381.660437 
L 135.431756 384.154451 
L 136.34117 386.648465 
L 136.600937 387.488514 
L 137.172907 389.142479 
L 137.852479 391.636492 
L 138.393337 394.130506 
L 138.844492 396.62452 
L 139.215239 399.118534 
L 139.492751 401.612548 
L 139.514917 401.898866 
L 139.760652 404.106562 
L 139.93318 406.600575 
L 140.025913 409.094589 
L 140.072833 411.588603 
L 140.086824 414.082617 
L 140.056822 416.576631 
L 139.960464 419.070645 
L 139.772584 421.564658 
L 139.514917 423.694822 
L 139.474503 424.058672 
L 139.109431 426.552686 
L 138.656216 429.0467 
L 138.122054 431.540714 
L 137.514322 434.034728 
L 136.812877 436.528741 
L 136.600937 437.167182 
L 136.108781 439.022755 
L 135.143212 441.516769 
L 133.78728 444.010783 
L 133.686957 444.178373 
L 132.882163 446.504797 
L 132.068617 448.998811 
L 131.411379 451.492824 
L 130.950646 453.986838 
L 130.772977 455.481939 
L 130.706007 456.480852 
L 130.600295 458.974866 
L 130.514585 461.46888 
L 130.389683 463.962894 
L 130.146596 466.456907 
L 129.681176 468.950921 
L 128.852487 471.444935 
L 127.858996 473.292197 
L 127.609524 473.938949 
L 126.165101 476.432963 
L 124.945016 477.833477 
L 124.024939 478.926977 
L 122.031036 480.679593 
L 121.077788 481.42099 
L 119.117055 482.767422 
L 116.984998 483.915004 
L 116.203075 484.354802 
L 113.289095 485.65076 
L 110.375114 486.379186 
L 110.120045 486.409018 
L 107.461134 486.883084 
L 104.547154 486.696234 
z
" clip-path="url(#pda7c195afa)" style="fill: #e1eee1; fill-opacity: 0.5"/>
    <path d="M 104.547154 486.696234 
L 107.461134 486.883084 
L 110.120045 486.409018 
L 110.375114 486.379186 
L 113.289095 485.65076 
L 116.203075 484.354802 
L 116.984998 483.915004 
L 119.117055 482.767422 
L 121.077788 481.42099 
L 122.031036 480.679593 
L 124.024939 478.926977 
L 124.945016 477.833477 
L 126.165101 476.432963 
L 127.609524 473.938949 
L 127.858996 473.292197 
L 128.852487 471.444935 
L 129.681176 468.950921 
L 130.146596 466.456907 
L 130.389683 463.962894 
L 130.514585 461.46888 
L 130.600295 458.974866 
L 130.706007 456.480852 
L 130.772977 455.481939 
L 130.950646 453.986838 
L 131.411379 451.492824 
L 132.068617 448.998811 
L 132.882163 446.504797 
L 133.686957 444.178373 
L 133.78728 444.010783 
L 135.143212 441.516769 
L 136.108781 439.022755 
L 136.600937 437.167182 
L 136.812877 436.528741 
L 137.514322 434.034728 
L 138.122054 431.540714 
L 138.656216 429.0467 
L 139.109431 426.552686 
L 139.474503 424.058672 
L 139.514917 423.694822 
L 139.772584 421.564658 
L 139.960464 419.070645 
L 140.056822 416.576631 
L 140.086824 414.082617 
L 140.072833 411.588603 
L 140.025913 409.094589 
L 139.93318 406.600575 
L 139.760652 404.106562 
L 139.514917 401.898866 
L 139.492751 401.612548 
L 139.215239 399.118534 
L 138.844492 396.62452 
L 138.393337 394.130506 
L 137.852479 391.636492 
L 137.172907 389.142479 
L 136.600937 387.488514 
L 136.34117 386.648465 
L 135.431756 384.154451 
L 134.449826 381.660437 
L 133.686957 379.672846 
L 133.470213 379.166423 
L 132.098135 376.672409 
L 130.772977 375.105284 
L 130.117097 374.178395 
L 128.123172 371.684382 
L 127.858996 371.371167 
L 126.560598 369.190368 
L 124.945016 366.752397 
L 124.90896 366.696354 
L 123.429083 364.20234 
L 122.031036 361.708326 
L 122.031036 361.708326 
L 120.86767 359.214312 
L 119.520009 356.720299 
L 119.117055 356.076319 
L 118.038448 354.226285 
L 116.313081 351.732271 
L 116.203075 351.584678 
L 114.409024 349.238257 
L 113.289095 347.840028 
L 111.89968 346.744243 
L 110.375114 345.639142 
L 107.461134 344.84602 
L 104.547154 346.080622 
L 104.055979 346.744243 
L 102.403922 349.238257 
L 101.633174 350.575441 
L 101.132869 351.732271 
L 100.278016 354.226285 
L 99.63721 356.720299 
L 99.150028 359.214312 
L 98.768217 361.708326 
L 98.719193 362.083809 
L 98.421647 364.20234 
L 98.12624 366.696354 
L 97.875198 369.190368 
L 97.665594 371.684382 
L 97.4947 374.178395 
L 97.356028 376.672409 
L 97.242847 379.166423 
L 97.154862 381.660437 
L 97.100821 384.154451 
L 97.093594 386.648465 
L 97.140901 389.142479 
L 97.237006 391.636492 
L 97.360412 394.130506 
L 97.481269 396.62452 
L 97.575138 399.118534 
L 97.632258 401.612548 
L 97.65604 404.106562 
L 97.655923 406.600575 
L 97.642418 409.094589 
L 97.625274 411.588603 
L 97.611022 414.082617 
L 97.598728 416.576631 
L 97.578148 419.070645 
L 97.534909 421.564658 
L 97.45993 424.058672 
L 97.35455 426.552686 
L 97.228364 429.0467 
L 97.094727 431.540714 
L 96.967615 434.034728 
L 96.857912 436.528741 
L 96.767132 439.022755 
L 96.680745 441.516769 
L 96.566393 444.010783 
L 96.383237 446.504797 
L 96.101437 448.998811 
L 95.805213 450.884012 
L 95.672478 451.492824 
L 94.998638 453.986838 
L 94.307634 456.480852 
L 93.659095 458.974866 
L 93.091148 461.46888 
L 92.891233 462.453811 
L 92.464881 463.962894 
L 91.921881 466.456907 
L 91.580378 468.950921 
L 91.441604 471.444935 
L 91.537214 473.938949 
L 91.958518 476.432963 
L 92.891233 478.874442 
L 92.910624 478.926977 
L 94.448823 481.42099 
L 95.805213 482.746649 
L 97.467989 483.915004 
L 98.719193 484.700551 
L 101.633174 485.982998 
L 103.552355 486.409018 
z
M 102.908008 483.915004 
L 101.633174 483.520212 
L 98.719193 481.842139 
L 98.161016 481.42099 
L 95.805213 479.04179 
L 95.714607 478.926977 
L 94.338495 476.432963 
L 93.718584 473.938949 
L 93.535449 471.444935 
L 93.64305 468.950921 
L 93.97873 466.456907 
L 94.520369 463.962894 
L 95.2611 461.46888 
L 95.805213 459.916632 
L 96.095522 458.974866 
L 96.86836 456.480852 
L 97.639705 453.986838 
L 98.347662 451.492824 
L 98.719193 449.864779 
L 98.878684 448.998811 
L 99.182345 446.504797 
L 99.354415 444.010783 
L 99.436558 441.516769 
L 99.484581 439.022755 
L 99.543971 436.528741 
L 99.635939 434.034728 
L 99.759485 431.540714 
L 99.900641 429.0467 
L 100.040661 426.552686 
L 100.162181 424.058672 
L 100.253822 421.564658 
L 100.312099 419.070645 
L 100.340816 416.576631 
L 100.349793 414.082617 
L 100.353059 411.588603 
L 100.365065 409.094589 
L 100.395417 406.600575 
L 100.44433 404.106562 
L 100.500152 401.612548 
L 100.540701 399.118534 
L 100.541816 396.62452 
L 100.493558 394.130506 
L 100.414451 391.636492 
L 100.348367 389.142479 
L 100.341638 386.648465 
L 100.419332 384.154451 
L 100.578708 381.660437 
L 100.798674 379.166423 
L 101.0559 376.672409 
L 101.339309 374.178395 
L 101.633174 371.840299 
L 101.655788 371.684382 
L 102.058165 369.190368 
L 102.546411 366.696354 
L 103.144488 364.20234 
L 103.877283 361.708326 
L 104.547154 359.807947 
L 104.994382 359.214312 
L 107.461134 356.720299 
L 110.375114 357.495105 
L 112.070097 359.214312 
L 113.289095 360.402443 
L 114.197581 361.708326 
L 115.672826 364.20234 
L 116.203075 365.282139 
L 116.834565 366.696354 
L 117.943315 369.190368 
L 119.117055 371.496935 
L 119.241454 371.684382 
L 121.064885 374.178395 
L 122.031036 375.532939 
L 122.744481 376.672409 
L 124.097392 379.166423 
L 124.945016 380.897616 
L 125.374874 381.660437 
L 126.778718 384.154451 
L 127.858996 386.327878 
L 128.026334 386.648465 
L 129.133888 389.142479 
L 129.940542 391.636492 
L 130.543946 394.130506 
L 130.772977 395.230508 
L 131.141754 396.62452 
L 131.780687 399.118534 
L 132.388496 401.612548 
L 132.887243 404.106562 
L 133.198157 406.600575 
L 133.304218 409.094589 
L 133.246055 411.588603 
L 133.092525 414.082617 
L 132.916848 416.576631 
L 132.771742 419.070645 
L 132.662956 421.564658 
L 132.547378 424.058672 
L 132.364804 426.552686 
L 132.069667 429.0467 
L 131.636148 431.540714 
L 131.044418 434.034728 
L 130.772977 434.949404 
L 130.445646 436.528741 
L 129.851501 439.022755 
L 129.182986 441.516769 
L 128.470824 444.010783 
L 127.858996 446.23292 
L 127.799842 446.504797 
L 127.369405 448.998811 
L 127.086793 451.492824 
L 126.960657 453.986838 
L 126.954482 456.480852 
L 127.002109 458.974866 
L 127.031887 461.46888 
L 126.979665 463.962894 
L 126.781293 466.456907 
L 126.352071 468.950921 
L 125.557236 471.444935 
L 124.945016 472.644919 
L 124.404134 473.938949 
L 122.733312 476.432963 
L 122.031036 477.182547 
L 120.350678 478.926977 
L 119.117055 479.918653 
L 116.949567 481.42099 
L 116.203075 481.895828 
L 113.289095 483.357291 
L 111.393623 483.915004 
L 110.375114 484.279786 
L 107.461134 484.742846 
L 104.547154 484.475984 
z
" clip-path="url(#pda7c195afa)" style="fill: #cfe5cf; fill-opacity: 0.5"/>
    <path d="M 104.547154 484.475984 
L 107.461134 484.742846 
L 110.375114 484.279786 
L 111.393623 483.915004 
L 113.289095 483.357291 
L 116.203075 481.895828 
L 116.949567 481.42099 
L 119.117055 479.918653 
L 120.350678 478.926977 
L 122.031036 477.182547 
L 122.733312 476.432963 
L 124.404134 473.938949 
L 124.945016 472.644919 
L 125.557236 471.444935 
L 126.352071 468.950921 
L 126.781293 466.456907 
L 126.979665 463.962894 
L 127.031887 461.46888 
L 127.002109 458.974866 
L 126.954482 456.480852 
L 126.960657 453.986838 
L 127.086793 451.492824 
L 127.369405 448.998811 
L 127.799842 446.504797 
L 127.858996 446.23292 
L 128.470824 444.010783 
L 129.182986 441.516769 
L 129.851501 439.022755 
L 130.445646 436.528741 
L 130.772977 434.949404 
L 131.044418 434.034728 
L 131.636148 431.540714 
L 132.069667 429.0467 
L 132.364804 426.552686 
L 132.547378 424.058672 
L 132.662956 421.564658 
L 132.771742 419.070645 
L 132.916848 416.576631 
L 133.092525 414.082617 
L 133.246055 411.588603 
L 133.304218 409.094589 
L 133.198157 406.600575 
L 132.887243 404.106562 
L 132.388496 401.612548 
L 131.780687 399.118534 
L 131.141754 396.62452 
L 130.772977 395.230508 
L 130.543946 394.130506 
L 129.940542 391.636492 
L 129.133888 389.142479 
L 128.026334 386.648465 
L 127.858996 386.327878 
L 126.778718 384.154451 
L 125.374874 381.660437 
L 124.945016 380.897616 
L 124.097392 379.166423 
L 122.744481 376.672409 
L 122.031036 375.532939 
L 121.064885 374.178395 
L 119.241454 371.684382 
L 119.117055 371.496935 
L 117.943315 369.190368 
L 116.834565 366.696354 
L 116.203075 365.282139 
L 115.672826 364.20234 
L 114.197581 361.708326 
L 113.289095 360.402443 
L 112.070097 359.214312 
L 110.375114 357.495105 
L 107.461134 356.720299 
L 104.994382 359.214312 
L 104.547154 359.807947 
L 103.877283 361.708326 
L 103.144488 364.20234 
L 102.546411 366.696354 
L 102.058165 369.190368 
L 101.655788 371.684382 
L 101.633174 371.840299 
L 101.339309 374.178395 
L 101.0559 376.672409 
L 100.798674 379.166423 
L 100.578708 381.660437 
L 100.419332 384.154451 
L 100.341638 386.648465 
L 100.348367 389.142479 
L 100.414451 391.636492 
L 100.493558 394.130506 
L 100.541816 396.62452 
L 100.540701 399.118534 
L 100.500152 401.612548 
L 100.44433 404.106562 
L 100.395417 406.600575 
L 100.365065 409.094589 
L 100.353059 411.588603 
L 100.349793 414.082617 
L 100.340816 416.576631 
L 100.312099 419.070645 
L 100.253822 421.564658 
L 100.162181 424.058672 
L 100.040661 426.552686 
L 99.900641 429.0467 
L 99.759485 431.540714 
L 99.635939 434.034728 
L 99.543971 436.528741 
L 99.484581 439.022755 
L 99.436558 441.516769 
L 99.354415 444.010783 
L 99.182345 446.504797 
L 98.878684 448.998811 
L 98.719193 449.864779 
L 98.347662 451.492824 
L 97.639705 453.986838 
L 96.86836 456.480852 
L 96.095522 458.974866 
L 95.805213 459.916632 
L 95.2611 461.46888 
L 94.520369 463.962894 
L 93.97873 466.456907 
L 93.64305 468.950921 
L 93.535449 471.444935 
L 93.718584 473.938949 
L 94.338495 476.432963 
L 95.714607 478.926977 
L 95.805213 479.04179 
L 98.161016 481.42099 
L 98.719193 481.842139 
L 101.633174 483.520212 
L 102.908008 483.915004 
z
M 101.466023 481.42099 
L 98.719193 479.371862 
L 98.253912 478.926977 
L 96.463039 476.432963 
L 95.805213 474.568616 
L 95.58937 473.938949 
L 95.251894 471.444935 
L 95.342601 468.950921 
L 95.770156 466.456907 
L 95.805213 466.3254 
L 96.368825 463.962894 
L 97.154857 461.46888 
L 98.088823 458.974866 
L 98.719193 457.366187 
L 99.024983 456.480852 
L 99.822795 453.986838 
L 100.536854 451.492824 
L 101.096992 448.998811 
L 101.470312 446.504797 
L 101.633174 444.467838 
L 101.666423 444.010783 
L 101.737251 441.516769 
L 101.764597 439.022755 
L 101.807686 436.528741 
L 101.899484 434.034728 
L 102.03942 431.540714 
L 102.202859 429.0467 
L 102.35903 426.552686 
L 102.486012 424.058672 
L 102.576584 421.564658 
L 102.634025 419.070645 
L 102.664021 416.576631 
L 102.672211 414.082617 
L 102.669409 411.588603 
L 102.67545 409.094589 
L 102.712749 406.600575 
L 102.793978 404.106562 
L 102.915149 401.612548 
L 103.058176 399.118534 
L 103.199816 396.62452 
L 103.322935 394.130506 
L 103.427107 391.636492 
L 103.534909 389.142479 
L 103.686477 386.648465 
L 103.917416 384.154451 
L 104.235233 381.660437 
L 104.547154 379.62917 
L 104.65128 379.166423 
L 105.262482 376.672409 
L 105.943473 374.178395 
L 106.76739 371.684382 
L 107.461134 370.038786 
L 109.679818 369.190368 
L 110.375114 368.979899 
L 110.564124 369.190368 
L 112.498103 371.684382 
L 113.289095 372.767606 
L 113.92042 374.178395 
L 115.306585 376.672409 
L 116.203075 377.85222 
L 117.332219 379.166423 
L 119.117055 381.039748 
L 119.536118 381.660437 
L 121.076246 384.154451 
L 122.031036 385.816993 
L 122.492209 386.648465 
L 123.824087 389.142479 
L 124.945016 391.598766 
L 124.961432 391.636492 
L 125.816007 394.130506 
L 126.442648 396.62452 
L 126.967158 399.118534 
L 127.481841 401.612548 
L 127.858996 403.409147 
L 128.020386 404.106562 
L 128.508278 406.600575 
L 128.804284 409.094589 
L 128.894711 411.588603 
L 128.840036 414.082617 
L 128.726609 416.576631 
L 128.622429 419.070645 
L 128.551956 421.564658 
L 128.491414 424.058672 
L 128.387049 426.552686 
L 128.186448 429.0467 
L 127.858996 431.540714 
L 127.858996 431.540714 
L 127.482097 434.034728 
L 127.007826 436.528741 
L 126.437802 439.022755 
L 125.788074 441.516769 
L 125.107841 444.010783 
L 124.945016 444.672773 
L 124.518593 446.504797 
L 124.113688 448.998811 
L 123.921239 451.492824 
L 123.921474 453.986838 
L 124.059117 456.480852 
L 124.256494 458.974866 
L 124.424935 461.46888 
L 124.48343 463.962894 
L 124.364803 466.456907 
L 123.995327 468.950921 
L 123.255585 471.444935 
L 122.031036 473.762244 
L 121.949176 473.938949 
L 120.203615 476.432963 
L 119.117055 477.496807 
L 117.566179 478.926977 
L 116.203075 479.937858 
L 113.537276 481.42099 
L 113.289095 481.555714 
L 110.375114 482.656184 
L 107.461134 483.055126 
L 104.547154 482.726235 
L 101.633174 481.524013 
z
" clip-path="url(#pda7c195afa)" style="fill: #bddcbd; fill-opacity: 0.5"/>
    <path d="M 101.633174 481.524013 
L 104.547154 482.726235 
L 107.461134 483.055126 
L 110.375114 482.656184 
L 113.289095 481.555714 
L 113.537276 481.42099 
L 116.203075 479.937858 
L 117.566179 478.926977 
L 119.117055 477.496807 
L 120.203615 476.432963 
L 121.949176 473.938949 
L 122.031036 473.762244 
L 123.255585 471.444935 
L 123.995327 468.950921 
L 124.364803 466.456907 
L 124.48343 463.962894 
L 124.424935 461.46888 
L 124.256494 458.974866 
L 124.059117 456.480852 
L 123.921474 453.986838 
L 123.921239 451.492824 
L 124.113688 448.998811 
L 124.518593 446.504797 
L 124.945016 444.672773 
L 125.107841 444.010783 
L 125.788074 441.516769 
L 126.437802 439.022755 
L 127.007826 436.528741 
L 127.482097 434.034728 
L 127.858996 431.540714 
L 127.858996 431.540714 
L 128.186448 429.0467 
L 128.387049 426.552686 
L 128.491414 424.058672 
L 128.551956 421.564658 
L 128.622429 419.070645 
L 128.726609 416.576631 
L 128.840036 414.082617 
L 128.894711 411.588603 
L 128.804284 409.094589 
L 128.508278 406.600575 
L 128.020386 404.106562 
L 127.858996 403.409147 
L 127.481841 401.612548 
L 126.967158 399.118534 
L 126.442648 396.62452 
L 125.816007 394.130506 
L 124.961432 391.636492 
L 124.945016 391.598766 
L 123.824087 389.142479 
L 122.492209 386.648465 
L 122.031036 385.816993 
L 121.076246 384.154451 
L 119.536118 381.660437 
L 119.117055 381.039748 
L 117.332219 379.166423 
L 116.203075 377.85222 
L 115.306585 376.672409 
L 113.92042 374.178395 
L 113.289095 372.767606 
L 112.498103 371.684382 
L 110.564124 369.190368 
L 110.375114 368.979899 
L 109.679818 369.190368 
L 107.461134 370.038786 
L 106.76739 371.684382 
L 105.943473 374.178395 
L 105.262482 376.672409 
L 104.65128 379.166423 
L 104.547154 379.62917 
L 104.235233 381.660437 
L 103.917416 384.154451 
L 103.686477 386.648465 
L 103.534909 389.142479 
L 103.427107 391.636492 
L 103.322935 394.130506 
L 103.199816 396.62452 
L 103.058176 399.118534 
L 102.915149 401.612548 
L 102.793978 404.106562 
L 102.712749 406.600575 
L 102.67545 409.094589 
L 102.669409 411.588603 
L 102.672211 414.082617 
L 102.664021 416.576631 
L 102.634025 419.070645 
L 102.576584 421.564658 
L 102.486012 424.058672 
L 102.35903 426.552686 
L 102.202859 429.0467 
L 102.03942 431.540714 
L 101.899484 434.034728 
L 101.807686 436.528741 
L 101.764597 439.022755 
L 101.737251 441.516769 
L 101.666423 444.010783 
L 101.633174 444.467838 
L 101.470312 446.504797 
L 101.096992 448.998811 
L 100.536854 451.492824 
L 99.822795 453.986838 
L 99.024983 456.480852 
L 98.719193 457.366187 
L 98.088823 458.974866 
L 97.154857 461.46888 
L 96.368825 463.962894 
L 95.805213 466.3254 
L 95.770156 466.456907 
L 95.342601 468.950921 
L 95.251894 471.444935 
L 95.58937 473.938949 
L 95.805213 474.568616 
L 96.463039 476.432963 
L 98.253912 478.926977 
L 98.719193 479.371862 
L 101.466023 481.42099 
z
M 105.661616 481.42099 
L 104.547154 481.260763 
L 101.633174 479.900368 
L 100.381793 478.926977 
L 98.719193 477.023132 
L 98.269216 476.432963 
L 97.131798 473.938949 
L 96.709351 471.444935 
L 96.761375 468.950921 
L 97.170187 466.456907 
L 97.872545 463.962894 
L 98.719193 461.71228 
L 98.799843 461.46888 
L 99.696966 458.974866 
L 100.67292 456.480852 
L 101.633174 454.012831 
L 101.642878 453.986838 
L 102.403984 451.492824 
L 103.011423 448.998811 
L 103.412352 446.504797 
L 103.619009 444.010783 
L 103.698172 441.516769 
L 103.730184 439.022755 
L 103.778665 436.528741 
L 103.876175 434.034728 
L 104.02154 431.540714 
L 104.188801 429.0467 
L 104.344297 426.552686 
L 104.464831 424.058672 
L 104.547154 421.564658 
L 104.547154 421.564658 
L 104.600372 419.070645 
L 104.633984 416.576631 
L 104.650568 414.082617 
L 104.654946 411.588603 
L 104.666676 409.094589 
L 104.719368 406.600575 
L 104.84358 404.106562 
L 105.049612 401.612548 
L 105.32598 399.118534 
L 105.652471 396.62452 
L 106.017973 394.130506 
L 106.433695 391.636492 
L 106.933451 389.142479 
L 107.461134 386.979803 
L 107.630657 386.648465 
L 109.257347 384.154451 
L 110.375114 382.885459 
L 113.289095 383.484126 
L 114.114972 384.154451 
L 116.203075 385.618057 
L 117.155826 386.648465 
L 119.117055 389.058487 
L 119.165266 389.142479 
L 120.488503 391.636492 
L 121.617277 394.130506 
L 122.031036 395.262814 
L 122.475164 396.62452 
L 123.123919 399.118534 
L 123.684092 401.612548 
L 124.209052 404.106562 
L 124.692403 406.600575 
L 124.945016 408.189422 
L 125.092199 409.094589 
L 125.357027 411.588603 
L 125.475334 414.082617 
L 125.500452 416.576631 
L 125.49185 419.070645 
L 125.483612 421.564658 
L 125.475356 424.058672 
L 125.438476 426.552686 
L 125.331946 429.0467 
L 125.118693 431.540714 
L 124.945016 432.785274 
L 124.764744 434.034728 
L 124.25814 436.528741 
L 123.625887 439.022755 
L 122.91547 441.516769 
L 122.219091 444.010783 
L 122.031036 444.845698 
L 121.718316 446.504797 
L 121.450881 448.998811 
L 121.40096 451.492824 
L 121.532038 453.986838 
L 121.781149 456.480852 
L 122.031036 458.563788 
L 122.088226 458.974866 
L 122.421891 461.46888 
L 122.610838 463.962894 
L 122.558495 466.456907 
L 122.163042 468.950921 
L 122.031036 469.345484 
L 121.453337 471.444935 
L 120.208318 473.938949 
L 119.117055 475.31899 
L 118.254005 476.432963 
L 116.203075 478.285578 
L 115.330849 478.926977 
L 113.289095 480.20967 
L 110.375114 481.27625 
L 109.256245 481.42099 
L 107.461134 481.699175 
z
" clip-path="url(#pda7c195afa)" style="fill: #a9d3a9; fill-opacity: 0.5"/>
    <path d="M 107.461134 481.699175 
L 109.256245 481.42099 
L 110.375114 481.27625 
L 113.289095 480.20967 
L 115.330849 478.926977 
L 116.203075 478.285578 
L 118.254005 476.432963 
L 119.117055 475.31899 
L 120.208318 473.938949 
L 121.453337 471.444935 
L 122.031036 469.345484 
L 122.163042 468.950921 
L 122.558495 466.456907 
L 122.610838 463.962894 
L 122.421891 461.46888 
L 122.088226 458.974866 
L 122.031036 458.563788 
L 121.781149 456.480852 
L 121.532038 453.986838 
L 121.40096 451.492824 
L 121.450881 448.998811 
L 121.718316 446.504797 
L 122.031036 444.845698 
L 122.219091 444.010783 
L 122.91547 441.516769 
L 123.625887 439.022755 
L 124.25814 436.528741 
L 124.764744 434.034728 
L 124.945016 432.785274 
L 125.118693 431.540714 
L 125.331946 429.0467 
L 125.438476 426.552686 
L 125.475356 424.058672 
L 125.483612 421.564658 
L 125.49185 419.070645 
L 125.500452 416.576631 
L 125.475334 414.082617 
L 125.357027 411.588603 
L 125.092199 409.094589 
L 124.945016 408.189422 
L 124.692403 406.600575 
L 124.209052 404.106562 
L 123.684092 401.612548 
L 123.123919 399.118534 
L 122.475164 396.62452 
L 122.031036 395.262814 
L 121.617277 394.130506 
L 120.488503 391.636492 
L 119.165266 389.142479 
L 119.117055 389.058487 
L 117.155826 386.648465 
L 116.203075 385.618057 
L 114.114972 384.154451 
L 113.289095 383.484126 
L 110.375114 382.885459 
L 109.257347 384.154451 
L 107.630657 386.648465 
L 107.461134 386.979803 
L 106.933451 389.142479 
L 106.433695 391.636492 
L 106.017973 394.130506 
L 105.652471 396.62452 
L 105.32598 399.118534 
L 105.049612 401.612548 
L 104.84358 404.106562 
L 104.719368 406.600575 
L 104.666676 409.094589 
L 104.654946 411.588603 
L 104.650568 414.082617 
L 104.633984 416.576631 
L 104.600372 419.070645 
L 104.547154 421.564658 
L 104.547154 421.564658 
L 104.464831 424.058672 
L 104.344297 426.552686 
L 104.188801 429.0467 
L 104.02154 431.540714 
L 103.876175 434.034728 
L 103.778665 436.528741 
L 103.730184 439.022755 
L 103.698172 441.516769 
L 103.619009 444.010783 
L 103.412352 446.504797 
L 103.011423 448.998811 
L 102.403984 451.492824 
L 101.642878 453.986838 
L 101.633174 454.012831 
L 100.67292 456.480852 
L 99.696966 458.974866 
L 98.799843 461.46888 
L 98.719193 461.71228 
L 97.872545 463.962894 
L 97.170187 466.456907 
L 96.761375 468.950921 
L 96.709351 471.444935 
L 97.131798 473.938949 
L 98.269216 476.432963 
L 98.719193 477.023132 
L 100.381793 478.926977 
L 101.633174 479.900368 
L 104.547154 481.260763 
L 105.661616 481.42099 
z
M 102.817359 478.926977 
L 101.633174 478.09273 
L 100.063023 476.432963 
L 98.798767 473.938949 
L 98.719193 473.562967 
L 98.240076 471.444935 
L 98.258198 468.950921 
L 98.719193 466.456907 
L 98.719193 466.456907 
L 99.381828 463.962894 
L 100.27155 461.46888 
L 101.336068 458.974866 
L 101.633174 458.286627 
L 102.385058 456.480852 
L 103.400008 453.986838 
L 104.33357 451.492824 
L 104.547154 450.739197 
L 105.111892 448.998811 
L 105.630728 446.504797 
L 105.893757 444.010783 
L 105.984302 441.516769 
L 106.009916 439.022755 
L 106.052548 436.528741 
L 106.147923 434.034728 
L 106.289501 431.540714 
L 106.444789 429.0467 
L 106.577533 426.552686 
L 106.667056 424.058672 
L 106.716408 421.564658 
L 106.745538 419.070645 
L 106.774626 416.576631 
L 106.812777 414.082617 
L 106.862938 411.588603 
L 106.93681 409.094589 
L 107.062169 406.600575 
L 107.272188 404.106562 
L 107.461134 402.585552 
L 107.627617 401.612548 
L 108.200081 399.118534 
L 108.955309 396.62452 
L 109.946544 394.130506 
L 110.375114 393.240592 
L 113.211501 391.636492 
L 113.289095 391.600342 
L 113.340224 391.636492 
L 116.203075 393.959116 
L 116.31039 394.130506 
L 117.600244 396.62452 
L 118.612307 399.118534 
L 119.117055 400.540317 
L 119.450595 401.612548 
L 120.151108 404.106562 
L 120.748606 406.600575 
L 121.236366 409.094589 
L 121.613529 411.588603 
L 121.887491 414.082617 
L 122.031036 416.021557 
L 122.069703 416.576631 
L 122.169809 419.070645 
L 122.217534 421.564658 
L 122.228043 424.058672 
L 122.200419 426.552686 
L 122.11495 429.0467 
L 122.031036 430.199082 
L 121.926637 431.540714 
L 121.599236 434.034728 
L 121.138098 436.528741 
L 120.576637 439.022755 
L 119.979841 441.516769 
L 119.434716 444.010783 
L 119.117055 446.002209 
L 119.042563 446.504797 
L 118.896812 448.998811 
L 118.985443 451.492824 
L 119.117055 452.674073 
L 119.271509 453.986838 
L 119.703601 456.480852 
L 120.17355 458.974866 
L 120.589342 461.46888 
L 120.855666 463.962894 
L 120.879803 466.456907 
L 120.565779 468.950921 
L 119.77885 471.444935 
L 119.117055 472.630981 
L 118.451409 473.938949 
L 116.358784 476.432963 
L 116.203075 476.573616 
L 113.289095 478.76348 
L 112.927424 478.926977 
L 110.375114 480.018532 
L 107.461134 480.409658 
L 104.547154 479.859528 
z
" clip-path="url(#pda7c195afa)" style="fill: #96c996; fill-opacity: 0.5"/>
    <path d="M 104.547154 479.859528 
L 107.461134 480.409658 
L 110.375114 480.018532 
L 112.927424 478.926977 
L 113.289095 478.76348 
L 116.203075 476.573616 
L 116.358784 476.432963 
L 118.451409 473.938949 
L 119.117055 472.630981 
L 119.77885 471.444935 
L 120.565779 468.950921 
L 120.879803 466.456907 
L 120.855666 463.962894 
L 120.589342 461.46888 
L 120.17355 458.974866 
L 119.703601 456.480852 
L 119.271509 453.986838 
L 119.117055 452.674073 
L 118.985443 451.492824 
L 118.896812 448.998811 
L 119.042563 446.504797 
L 119.117055 446.002209 
L 119.434716 444.010783 
L 119.979841 441.516769 
L 120.576637 439.022755 
L 121.138098 436.528741 
L 121.599236 434.034728 
L 121.926637 431.540714 
L 122.031036 430.199082 
L 122.11495 429.0467 
L 122.200419 426.552686 
L 122.228043 424.058672 
L 122.217534 421.564658 
L 122.169809 419.070645 
L 122.069703 416.576631 
L 122.031036 416.021557 
L 121.887491 414.082617 
L 121.613529 411.588603 
L 121.236366 409.094589 
L 120.748606 406.600575 
L 120.151108 404.106562 
L 119.450595 401.612548 
L 119.117055 400.540317 
L 118.612307 399.118534 
L 117.600244 396.62452 
L 116.31039 394.130506 
L 116.203075 393.959116 
L 113.340224 391.636492 
L 113.289095 391.600342 
L 113.211501 391.636492 
L 110.375114 393.240592 
L 109.946544 394.130506 
L 108.955309 396.62452 
L 108.200081 399.118534 
L 107.627617 401.612548 
L 107.461134 402.585552 
L 107.272188 404.106562 
L 107.062169 406.600575 
L 106.93681 409.094589 
L 106.862938 411.588603 
L 106.812777 414.082617 
L 106.774626 416.576631 
L 106.745538 419.070645 
L 106.716408 421.564658 
L 106.667056 424.058672 
L 106.577533 426.552686 
L 106.444789 429.0467 
L 106.289501 431.540714 
L 106.147923 434.034728 
L 106.052548 436.528741 
L 106.009916 439.022755 
L 105.984302 441.516769 
L 105.893757 444.010783 
L 105.630728 446.504797 
L 105.111892 448.998811 
L 104.547154 450.739197 
L 104.33357 451.492824 
L 103.400008 453.986838 
L 102.385058 456.480852 
L 101.633174 458.286627 
L 101.336068 458.974866 
L 100.27155 461.46888 
L 99.381828 463.962894 
L 98.719193 466.456907 
L 98.719193 466.456907 
L 98.258198 468.950921 
L 98.240076 471.444935 
L 98.719193 473.562967 
L 98.798767 473.938949 
L 100.063023 476.432963 
L 101.633174 478.09273 
L 102.817359 478.926977 
z
M 105.404184 478.926977 
L 104.547154 478.709123 
L 101.633174 476.588759 
L 101.48579 476.432963 
L 99.975084 473.938949 
L 99.372848 471.444935 
L 99.355014 468.950921 
L 99.756229 466.456907 
L 100.485167 463.962894 
L 101.480348 461.46888 
L 101.633174 461.120754 
L 102.547464 458.974866 
L 103.683592 456.480852 
L 104.547154 454.574829 
L 104.874953 453.986838 
L 106.024018 451.492824 
L 106.926521 448.998811 
L 107.461134 446.765058 
L 107.569366 446.504797 
L 108.054102 444.010783 
L 108.173312 441.516769 
L 108.146146 439.022755 
L 108.136651 436.528741 
L 108.20434 434.034728 
L 108.340166 431.540714 
L 108.511923 429.0467 
L 108.684191 426.552686 
L 108.824422 424.058672 
L 108.911775 421.564658 
L 108.950477 419.070645 
L 108.969893 416.576631 
L 109.003853 414.082617 
L 109.076479 411.588603 
L 109.210747 409.094589 
L 109.441402 406.600575 
L 109.814106 404.106562 
L 110.375114 401.612548 
L 110.375114 401.612548 
L 112.791441 399.118534 
L 113.289095 398.688482 
L 113.642368 399.118534 
L 115.300349 401.612548 
L 116.203075 403.215736 
L 116.514699 404.106562 
L 117.287754 406.600575 
L 117.944824 409.094589 
L 118.463711 411.588603 
L 118.830933 414.082617 
L 119.05423 416.576631 
L 119.117055 417.996806 
L 119.15192 419.070645 
L 119.183648 421.564658 
L 119.193414 424.058672 
L 119.192942 426.552686 
L 119.170882 429.0467 
L 119.117055 430.69417 
L 119.086557 431.540714 
L 118.87472 434.034728 
L 118.512483 436.528741 
L 118.030504 439.022755 
L 117.530013 441.516769 
L 117.135681 444.010783 
L 116.937417 446.504797 
L 116.971455 448.998811 
L 117.227173 451.492824 
L 117.653482 453.986838 
L 118.171445 456.480852 
L 118.695843 458.974866 
L 119.117055 461.290279 
L 119.152949 461.46888 
L 119.517337 463.962894 
L 119.597148 466.456907 
L 119.278835 468.950921 
L 119.117055 469.437355 
L 118.544821 471.444935 
L 117.197002 473.938949 
L 116.203075 475.106651 
L 114.913911 476.432963 
L 113.289095 477.671541 
L 110.511945 478.926977 
L 110.375114 478.985495 
L 107.461134 479.390892 
z
" clip-path="url(#pda7c195afa)" style="fill: #84c084; fill-opacity: 0.5"/>
    <path d="M 107.461134 479.390892 
L 110.375114 478.985495 
L 110.511945 478.926977 
L 113.289095 477.671541 
L 114.913911 476.432963 
L 116.203075 475.106651 
L 117.197002 473.938949 
L 118.544821 471.444935 
L 119.117055 469.437355 
L 119.278835 468.950921 
L 119.597148 466.456907 
L 119.517337 463.962894 
L 119.152949 461.46888 
L 119.117055 461.290279 
L 118.695843 458.974866 
L 118.171445 456.480852 
L 117.653482 453.986838 
L 117.227173 451.492824 
L 116.971455 448.998811 
L 116.937417 446.504797 
L 117.135681 444.010783 
L 117.530013 441.516769 
L 118.030504 439.022755 
L 118.512483 436.528741 
L 118.87472 434.034728 
L 119.086557 431.540714 
L 119.117055 430.69417 
L 119.170882 429.0467 
L 119.192942 426.552686 
L 119.193414 424.058672 
L 119.183648 421.564658 
L 119.15192 419.070645 
L 119.117055 417.996806 
L 119.05423 416.576631 
L 118.830933 414.082617 
L 118.463711 411.588603 
L 117.944824 409.094589 
L 117.287754 406.600575 
L 116.514699 404.106562 
L 116.203075 403.215736 
L 115.300349 401.612548 
L 113.642368 399.118534 
L 113.289095 398.688482 
L 112.791441 399.118534 
L 110.375114 401.612548 
L 110.375114 401.612548 
L 109.814106 404.106562 
L 109.441402 406.600575 
L 109.210747 409.094589 
L 109.076479 411.588603 
L 109.003853 414.082617 
L 108.969893 416.576631 
L 108.950477 419.070645 
L 108.911775 421.564658 
L 108.824422 424.058672 
L 108.684191 426.552686 
L 108.511923 429.0467 
L 108.340166 431.540714 
L 108.20434 434.034728 
L 108.136651 436.528741 
L 108.146146 439.022755 
L 108.173312 441.516769 
L 108.054102 444.010783 
L 107.569366 446.504797 
L 107.461134 446.765058 
L 106.926521 448.998811 
L 106.024018 451.492824 
L 104.874953 453.986838 
L 104.547154 454.574829 
L 103.683592 456.480852 
L 102.547464 458.974866 
L 101.633174 461.120754 
L 101.480348 461.46888 
L 100.485167 463.962894 
L 99.756229 466.456907 
L 99.355014 468.950921 
L 99.372848 471.444935 
L 99.975084 473.938949 
L 101.48579 476.432963 
L 101.633174 476.588759 
L 104.547154 478.709123 
L 105.404184 478.926977 
z
M 102.767185 476.432963 
L 101.633174 475.036721 
L 100.95698 473.938949 
L 100.254409 471.444935 
L 100.204143 468.950921 
L 100.621865 466.456907 
L 101.406148 463.962894 
L 101.633174 463.401468 
L 102.395828 461.46888 
L 103.526756 458.974866 
L 104.547154 456.888005 
L 104.802314 456.480852 
L 106.208679 453.986838 
L 107.448793 451.492824 
L 107.461134 451.45988 
L 109.145328 448.998811 
L 110.201268 446.504797 
L 110.375114 445.58552 
L 111.735556 444.010783 
L 111.592029 441.516769 
L 110.781791 439.022755 
L 110.375114 437.554901 
L 110.300843 436.528741 
L 110.229495 434.034728 
L 110.288072 431.540714 
L 110.375114 430.159169 
L 110.565941 429.0467 
L 111.113575 426.552686 
L 111.657196 424.058672 
L 112.111538 421.564658 
L 112.411581 419.070645 
L 112.543894 416.576631 
L 112.609725 414.082617 
L 112.798779 411.588603 
L 113.289095 409.094589 
L 113.82631 411.588603 
L 114.172129 414.082617 
L 114.418033 416.576631 
L 114.728478 419.070645 
L 115.167044 421.564658 
L 115.64116 424.058672 
L 116.066154 426.552686 
L 116.203075 427.531108 
L 116.294351 429.0467 
L 116.368088 431.540714 
L 116.303726 434.034728 
L 116.203075 435.140029 
L 115.913105 436.528741 
L 115.056556 439.022755 
L 114.222473 441.516769 
L 113.873397 444.010783 
L 114.118253 446.504797 
L 114.744775 448.998811 
L 115.535054 451.492824 
L 116.203075 453.42211 
L 116.320958 453.986838 
L 116.968707 456.480852 
L 117.610521 458.974866 
L 118.158883 461.46888 
L 118.529535 463.962894 
L 118.634871 466.456907 
L 118.376942 468.950921 
L 117.62416 471.444935 
L 116.203075 473.859539 
L 116.152944 473.938949 
L 113.718216 476.432963 
L 113.289095 476.760077 
L 110.375114 478.175132 
L 107.461134 478.552855 
L 104.547154 477.750671 
z
" clip-path="url(#pda7c195afa)" style="fill: #74b974; fill-opacity: 0.5"/>
    <path d="M 104.547154 477.750671 
L 107.461134 478.552855 
L 110.375114 478.175132 
L 113.289095 476.760077 
L 113.718216 476.432963 
L 116.152944 473.938949 
L 116.203075 473.859539 
L 117.62416 471.444935 
L 118.376942 468.950921 
L 118.634871 466.456907 
L 118.529535 463.962894 
L 118.158883 461.46888 
L 117.610521 458.974866 
L 116.968707 456.480852 
L 116.320958 453.986838 
L 116.203075 453.42211 
L 115.535054 451.492824 
L 114.744775 448.998811 
L 114.118253 446.504797 
L 113.873397 444.010783 
L 114.222473 441.516769 
L 115.056556 439.022755 
L 115.913105 436.528741 
L 116.203075 435.140029 
L 116.303726 434.034728 
L 116.368088 431.540714 
L 116.294351 429.0467 
L 116.203075 427.531108 
L 116.066154 426.552686 
L 115.64116 424.058672 
L 115.167044 421.564658 
L 114.728478 419.070645 
L 114.418033 416.576631 
L 114.172129 414.082617 
L 113.82631 411.588603 
L 113.289095 409.094589 
L 112.798779 411.588603 
L 112.609725 414.082617 
L 112.543894 416.576631 
L 112.411581 419.070645 
L 112.111538 421.564658 
L 111.657196 424.058672 
L 111.113575 426.552686 
L 110.565941 429.0467 
L 110.375114 430.159169 
L 110.288072 431.540714 
L 110.229495 434.034728 
L 110.300843 436.528741 
L 110.375114 437.554901 
L 110.781791 439.022755 
L 111.592029 441.516769 
L 111.735556 444.010783 
L 110.375114 445.58552 
L 110.201268 446.504797 
L 109.145328 448.998811 
L 107.461134 451.45988 
L 107.448793 451.492824 
L 106.208679 453.986838 
L 104.802314 456.480852 
L 104.547154 456.888005 
L 103.526756 458.974866 
L 102.395828 461.46888 
L 101.633174 463.401468 
L 101.406148 463.962894 
L 100.621865 466.456907 
L 100.204143 468.950921 
L 100.254409 471.444935 
L 100.95698 473.938949 
L 101.633174 475.036721 
L 102.767185 476.432963 
z
M 107.020371 476.432963 
L 104.547154 475.243664 
L 103.393326 473.938949 
L 102.375303 471.444935 
L 102.224646 468.950921 
L 102.638231 466.456907 
L 103.446979 463.962894 
L 104.547154 461.46888 
L 104.547154 461.46888 
L 106.159152 458.974866 
L 107.461134 456.983052 
L 108.216768 456.480852 
L 110.375114 454.75484 
L 113.289095 455.879516 
L 113.606281 456.480852 
L 114.835363 458.974866 
L 115.75765 461.46888 
L 116.203075 463.307618 
L 116.337999 463.962894 
L 116.542471 466.456907 
L 116.29132 468.950921 
L 116.203075 469.216428 
L 115.447377 471.444935 
L 113.789189 473.938949 
L 113.289095 474.43597 
L 110.375114 476.22273 
L 108.735327 476.432963 
L 107.461134 476.582423 
z
" clip-path="url(#pda7c195afa)" style="fill: #5dae5d; fill-opacity: 0.5"/>
    <path d="M 107.461134 476.582423 
L 108.735327 476.432963 
L 110.375114 476.22273 
L 113.289095 474.43597 
L 113.789189 473.938949 
L 115.447377 471.444935 
L 116.203075 469.216428 
L 116.29132 468.950921 
L 116.542471 466.456907 
L 116.337999 463.962894 
L 116.203075 463.307618 
L 115.75765 461.46888 
L 114.835363 458.974866 
L 113.606281 456.480852 
L 113.289095 455.879516 
L 110.375114 454.75484 
L 108.216768 456.480852 
L 107.461134 456.983052 
L 106.159152 458.974866 
L 104.547154 461.46888 
L 104.547154 461.46888 
L 103.446979 463.962894 
L 102.638231 466.456907 
L 102.224646 468.950921 
L 102.375303 471.444935 
L 103.393326 473.938949 
L 104.547154 475.243664 
L 107.020371 476.432963 
z
" clip-path="url(#pda7c195afa)" style="fill: #269226; fill-opacity: 0.5"/>
   </g>
   <g id="matplotlib.axis_1">
    <g id="xtick_1">
     <g id="line2d_1">
      <defs>
       <path id="m1ba2e47ca0" d="M 0 0 
L 0 3.5 
" style="stroke: #000000; stroke-width: 0.8"/>
      </defs>
      <g>
       <use xlink:href="#m1ba2e47ca0" x="93.941043" y="499.48" style="stroke: #000000; stroke-width: 0.8"/>
      </g>
     </g>
     <g id="text_1">
      <!-- 0 -->
      <g transform="translate(86.942293 523.196563) scale(0.22 -0.22)">
       <defs>
        <path id="DejaVuSans-30" d="M 2034 4250 
Q 1547 4250 1301 3770 
Q 1056 3291 1056 2328 
Q 1056 1369 1301 889 
Q 1547 409 2034 409 
Q 2525 409 2770 889 
Q 3016 1369 3016 2328 
Q 3016 3291 2770 3770 
Q 2525 4250 2034 4250 
z
M 2034 4750 
Q 2819 4750 3233 4129 
Q 3647 3509 3647 2328 
Q 3647 1150 3233 529 
Q 2819 -91 2034 -91 
Q 1250 -91 836 529 
Q 422 1150 422 2328 
Q 422 3509 836 4129 
Q 1250 4750 2034 4750 
z
" transform="scale(0.015625)"/>
       </defs>
       <use xlink:href="#DejaVuSans-30"/>
      </g>
     </g>
    </g>
    <g id="xtick_2">
     <g id="line2d_2">
      <g>
       <use xlink:href="#m1ba2e47ca0" x="175.869513" y="499.48" style="stroke: #000000; stroke-width: 0.8"/>
      </g>
     </g>
     <g id="text_2">
      <!-- 10 -->
      <g transform="translate(161.872013 523.196563) scale(0.22 -0.22)">
       <defs>
        <path id="DejaVuSans-31" d="M 794 531 
L 1825 531 
L 1825 4091 
L 703 3866 
L 703 4441 
L 1819 4666 
L 2450 4666 
L 2450 531 
L 3481 531 
L 3481 0 
L 794 0 
L 794 531 
z
" transform="scale(0.015625)"/>
       </defs>
       <use xlink:href="#DejaVuSans-31"/>
       <use xlink:href="#DejaVuSans-30" x="63.623047"/>
      </g>
     </g>
    </g>
    <g id="xtick_3">
     <g id="line2d_3">
      <g>
       <use xlink:href="#m1ba2e47ca0" x="257.797984" y="499.48" style="stroke: #000000; stroke-width: 0.8"/>
      </g>
     </g>
     <g id="text_3">
      <!-- 20 -->
      <g transform="translate(243.800484 523.196563) scale(0.22 -0.22)">
       <defs>
        <path id="DejaVuSans-32" d="M 1228 531 
L 3431 531 
L 3431 0 
L 469 0 
L 469 531 
Q 828 903 1448 1529 
Q 2069 2156 2228 2338 
Q 2531 2678 2651 2914 
Q 2772 3150 2772 3378 
Q 2772 3750 2511 3984 
Q 2250 4219 1831 4219 
Q 1534 4219 1204 4116 
Q 875 4013 500 3803 
L 500 4441 
Q 881 4594 1212 4672 
Q 1544 4750 1819 4750 
Q 2544 4750 2975 4387 
Q 3406 4025 3406 3419 
Q 3406 3131 3298 2873 
Q 3191 2616 2906 2266 
Q 2828 2175 2409 1742 
Q 1991 1309 1228 531 
z
" transform="scale(0.015625)"/>
       </defs>
       <use xlink:href="#DejaVuSans-32"/>
       <use xlink:href="#DejaVuSans-30" x="63.623047"/>
      </g>
     </g>
    </g>
    <g id="xtick_4">
     <g id="line2d_4">
      <g>
       <use xlink:href="#m1ba2e47ca0" x="339.726454" y="499.48" style="stroke: #000000; stroke-width: 0.8"/>
      </g>
     </g>
     <g id="text_4">
      <!-- 30 -->
      <g transform="translate(325.728954 523.196563) scale(0.22 -0.22)">
       <defs>
        <path id="DejaVuSans-33" d="M 2597 2516 
Q 3050 2419 3304 2112 
Q 3559 1806 3559 1356 
Q 3559 666 3084 287 
Q 2609 -91 1734 -91 
Q 1441 -91 1130 -33 
Q 819 25 488 141 
L 488 750 
Q 750 597 1062 519 
Q 1375 441 1716 441 
Q 2309 441 2620 675 
Q 2931 909 2931 1356 
Q 2931 1769 2642 2001 
Q 2353 2234 1838 2234 
L 1294 2234 
L 1294 2753 
L 1863 2753 
Q 2328 2753 2575 2939 
Q 2822 3125 2822 3475 
Q 2822 3834 2567 4026 
Q 2313 4219 1838 4219 
Q 1578 4219 1281 4162 
Q 984 4106 628 3988 
L 628 4550 
Q 988 4650 1302 4700 
Q 1616 4750 1894 4750 
Q 2613 4750 3031 4423 
Q 3450 4097 3450 3541 
Q 3450 3153 3228 2886 
Q 3006 2619 2597 2516 
z
" transform="scale(0.015625)"/>
       </defs>
       <use xlink:href="#DejaVuSans-33"/>
       <use xlink:href="#DejaVuSans-30" x="63.623047"/>
      </g>
     </g>
    </g>
    <g id="xtick_5">
     <g id="line2d_5">
      <g>
       <use xlink:href="#m1ba2e47ca0" x="421.654924" y="499.48" style="stroke: #000000; stroke-width: 0.8"/>
      </g>
     </g>
     <g id="text_5">
      <!-- 40 -->
      <g transform="translate(407.657424 523.196563) scale(0.22 -0.22)">
       <defs>
        <path id="DejaVuSans-34" d="M 2419 4116 
L 825 1625 
L 2419 1625 
L 2419 4116 
z
M 2253 4666 
L 3047 4666 
L 3047 1625 
L 3713 1625 
L 3713 1100 
L 3047 1100 
L 3047 0 
L 2419 0 
L 2419 1100 
L 313 1100 
L 313 1709 
L 2253 4666 
z
" transform="scale(0.015625)"/>
       </defs>
       <use xlink:href="#DejaVuSans-34"/>
       <use xlink:href="#DejaVuSans-30" x="63.623047"/>
      </g>
     </g>
    </g>
    <g id="xtick_6">
     <g id="line2d_6">
      <g>
       <use xlink:href="#m1ba2e47ca0" x="503.583394" y="499.48" style="stroke: #000000; stroke-width: 0.8"/>
      </g>
     </g>
     <g id="text_6">
      <!-- 50 -->
      <g transform="translate(489.585894 523.196563) scale(0.22 -0.22)">
       <defs>
        <path id="DejaVuSans-35" d="M 691 4666 
L 3169 4666 
L 3169 4134 
L 1269 4134 
L 1269 2991 
Q 1406 3038 1543 3061 
Q 1681 3084 1819 3084 
Q 2600 3084 3056 2656 
Q 3513 2228 3513 1497 
Q 3513 744 3044 326 
Q 2575 -91 1722 -91 
Q 1428 -91 1123 -41 
Q 819 9 494 109 
L 494 744 
Q 775 591 1075 516 
Q 1375 441 1709 441 
Q 2250 441 2565 725 
Q 2881 1009 2881 1497 
Q 2881 1984 2565 2268 
Q 2250 2553 1709 2553 
Q 1456 2553 1204 2497 
Q 953 2441 691 2322 
L 691 4666 
z
" transform="scale(0.015625)"/>
       </defs>
       <use xlink:href="#DejaVuSans-35"/>
       <use xlink:href="#DejaVuSans-30" x="63.623047"/>
      </g>
     </g>
    </g>
    <g id="xtick_7">
     <g id="line2d_7">
      <g>
       <use xlink:href="#m1ba2e47ca0" x="585.511865" y="499.48" style="stroke: #000000; stroke-width: 0.8"/>
      </g>
     </g>
     <g id="text_7">
      <!-- 60 -->
      <g transform="translate(571.514365 523.196563) scale(0.22 -0.22)">
       <defs>
        <path id="DejaVuSans-36" d="M 2113 2584 
Q 1688 2584 1439 2293 
Q 1191 2003 1191 1497 
Q 1191 994 1439 701 
Q 1688 409 2113 409 
Q 2538 409 2786 701 
Q 3034 994 3034 1497 
Q 3034 2003 2786 2293 
Q 2538 2584 2113 2584 
z
M 3366 4563 
L 3366 3988 
Q 3128 4100 2886 4159 
Q 2644 4219 2406 4219 
Q 1781 4219 1451 3797 
Q 1122 3375 1075 2522 
Q 1259 2794 1537 2939 
Q 1816 3084 2150 3084 
Q 2853 3084 3261 2657 
Q 3669 2231 3669 1497 
Q 3669 778 3244 343 
Q 2819 -91 2113 -91 
Q 1303 -91 875 529 
Q 447 1150 447 2328 
Q 447 3434 972 4092 
Q 1497 4750 2381 4750 
Q 2619 4750 2861 4703 
Q 3103 4656 3366 4563 
z
" transform="scale(0.015625)"/>
       </defs>
       <use xlink:href="#DejaVuSans-36"/>
       <use xlink:href="#DejaVuSans-30" x="63.623047"/>
      </g>
     </g>
    </g>
    <g id="xtick_8">
     <g id="line2d_8">
      <g>
       <use xlink:href="#m1ba2e47ca0" x="667.440335" y="499.48" style="stroke: #000000; stroke-width: 0.8"/>
      </g>
     </g>
     <g id="text_8">
      <!-- 70 -->
      <g transform="translate(653.442835 523.196563) scale(0.22 -0.22)">
       <defs>
        <path id="DejaVuSans-37" d="M 525 4666 
L 3525 4666 
L 3525 4397 
L 1831 0 
L 1172 0 
L 2766 4134 
L 525 4134 
L 525 4666 
z
" transform="scale(0.015625)"/>
       </defs>
       <use xlink:href="#DejaVuSans-37"/>
       <use xlink:href="#DejaVuSans-30" x="63.623047"/>
      </g>
     </g>
    </g>
    <g id="text_9">
     <!-- Force Uncertainties -->
     <g transform="translate(283.426094 548.488438) scale(0.22 -0.22)">
      <defs>
       <path id="DejaVuSans-46" d="M 628 4666 
L 3309 4666 
L 3309 4134 
L 1259 4134 
L 1259 2759 
L 3109 2759 
L 3109 2228 
L 1259 2228 
L 1259 0 
L 628 0 
L 628 4666 
z
" transform="scale(0.015625)"/>
       <path id="DejaVuSans-6f" d="M 1959 3097 
Q 1497 3097 1228 2736 
Q 959 2375 959 1747 
Q 959 1119 1226 758 
Q 1494 397 1959 397 
Q 2419 397 2687 759 
Q 2956 1122 2956 1747 
Q 2956 2369 2687 2733 
Q 2419 3097 1959 3097 
z
M 1959 3584 
Q 2709 3584 3137 3096 
Q 3566 2609 3566 1747 
Q 3566 888 3137 398 
Q 2709 -91 1959 -91 
Q 1206 -91 779 398 
Q 353 888 353 1747 
Q 353 2609 779 3096 
Q 1206 3584 1959 3584 
z
" transform="scale(0.015625)"/>
       <path id="DejaVuSans-72" d="M 2631 2963 
Q 2534 3019 2420 3045 
Q 2306 3072 2169 3072 
Q 1681 3072 1420 2755 
Q 1159 2438 1159 1844 
L 1159 0 
L 581 0 
L 581 3500 
L 1159 3500 
L 1159 2956 
Q 1341 3275 1631 3429 
Q 1922 3584 2338 3584 
Q 2397 3584 2469 3576 
Q 2541 3569 2628 3553 
L 2631 2963 
z
" transform="scale(0.015625)"/>
       <path id="DejaVuSans-63" d="M 3122 3366 
L 3122 2828 
Q 2878 2963 2633 3030 
Q 2388 3097 2138 3097 
Q 1578 3097 1268 2742 
Q 959 2388 959 1747 
Q 959 1106 1268 751 
Q 1578 397 2138 397 
Q 2388 397 2633 464 
Q 2878 531 3122 666 
L 3122 134 
Q 2881 22 2623 -34 
Q 2366 -91 2075 -91 
Q 1284 -91 818 406 
Q 353 903 353 1747 
Q 353 2603 823 3093 
Q 1294 3584 2113 3584 
Q 2378 3584 2631 3529 
Q 2884 3475 3122 3366 
z
" transform="scale(0.015625)"/>
       <path id="DejaVuSans-65" d="M 3597 1894 
L 3597 1613 
L 953 1613 
Q 991 1019 1311 708 
Q 1631 397 2203 397 
Q 2534 397 2845 478 
Q 3156 559 3463 722 
L 3463 178 
Q 3153 47 2828 -22 
Q 2503 -91 2169 -91 
Q 1331 -91 842 396 
Q 353 884 353 1716 
Q 353 2575 817 3079 
Q 1281 3584 2069 3584 
Q 2775 3584 3186 3129 
Q 3597 2675 3597 1894 
z
M 3022 2063 
Q 3016 2534 2758 2815 
Q 2500 3097 2075 3097 
Q 1594 3097 1305 2825 
Q 1016 2553 972 2059 
L 3022 2063 
z
" transform="scale(0.015625)"/>
       <path id="DejaVuSans-20" transform="scale(0.015625)"/>
       <path id="DejaVuSans-55" d="M 556 4666 
L 1191 4666 
L 1191 1831 
Q 1191 1081 1462 751 
Q 1734 422 2344 422 
Q 2950 422 3222 751 
Q 3494 1081 3494 1831 
L 3494 4666 
L 4128 4666 
L 4128 1753 
Q 4128 841 3676 375 
Q 3225 -91 2344 -91 
Q 1459 -91 1007 375 
Q 556 841 556 1753 
L 556 4666 
z
" transform="scale(0.015625)"/>
       <path id="DejaVuSans-6e" d="M 3513 2113 
L 3513 0 
L 2938 0 
L 2938 2094 
Q 2938 2591 2744 2837 
Q 2550 3084 2163 3084 
Q 1697 3084 1428 2787 
Q 1159 2491 1159 1978 
L 1159 0 
L 581 0 
L 581 3500 
L 1159 3500 
L 1159 2956 
Q 1366 3272 1645 3428 
Q 1925 3584 2291 3584 
Q 2894 3584 3203 3211 
Q 3513 2838 3513 2113 
z
" transform="scale(0.015625)"/>
       <path id="DejaVuSans-74" d="M 1172 4494 
L 1172 3500 
L 2356 3500 
L 2356 3053 
L 1172 3053 
L 1172 1153 
Q 1172 725 1289 603 
Q 1406 481 1766 481 
L 2356 481 
L 2356 0 
L 1766 0 
Q 1100 0 847 248 
Q 594 497 594 1153 
L 594 3053 
L 172 3053 
L 172 3500 
L 594 3500 
L 594 4494 
L 1172 4494 
z
" transform="scale(0.015625)"/>
       <path id="DejaVuSans-61" d="M 2194 1759 
Q 1497 1759 1228 1600 
Q 959 1441 959 1056 
Q 959 750 1161 570 
Q 1363 391 1709 391 
Q 2188 391 2477 730 
Q 2766 1069 2766 1631 
L 2766 1759 
L 2194 1759 
z
M 3341 1997 
L 3341 0 
L 2766 0 
L 2766 531 
Q 2569 213 2275 61 
Q 1981 -91 1556 -91 
Q 1019 -91 701 211 
Q 384 513 384 1019 
Q 384 1609 779 1909 
Q 1175 2209 1959 2209 
L 2766 2209 
L 2766 2266 
Q 2766 2663 2505 2880 
Q 2244 3097 1772 3097 
Q 1472 3097 1187 3025 
Q 903 2953 641 2809 
L 641 3341 
Q 956 3463 1253 3523 
Q 1550 3584 1831 3584 
Q 2591 3584 2966 3190 
Q 3341 2797 3341 1997 
z
" transform="scale(0.015625)"/>
       <path id="DejaVuSans-69" d="M 603 3500 
L 1178 3500 
L 1178 0 
L 603 0 
L 603 3500 
z
M 603 4863 
L 1178 4863 
L 1178 4134 
L 603 4134 
L 603 4863 
z
" transform="scale(0.015625)"/>
       <path id="DejaVuSans-73" d="M 2834 3397 
L 2834 2853 
Q 2591 2978 2328 3040 
Q 2066 3103 1784 3103 
Q 1356 3103 1142 2972 
Q 928 2841 928 2578 
Q 928 2378 1081 2264 
Q 1234 2150 1697 2047 
L 1894 2003 
Q 2506 1872 2764 1633 
Q 3022 1394 3022 966 
Q 3022 478 2636 193 
Q 2250 -91 1575 -91 
Q 1294 -91 989 -36 
Q 684 19 347 128 
L 347 722 
Q 666 556 975 473 
Q 1284 391 1588 391 
Q 1994 391 2212 530 
Q 2431 669 2431 922 
Q 2431 1156 2273 1281 
Q 2116 1406 1581 1522 
L 1381 1569 
Q 847 1681 609 1914 
Q 372 2147 372 2553 
Q 372 3047 722 3315 
Q 1072 3584 1716 3584 
Q 2034 3584 2315 3537 
Q 2597 3491 2834 3397 
z
" transform="scale(0.015625)"/>
      </defs>
      <use xlink:href="#DejaVuSans-46"/>
      <use xlink:href="#DejaVuSans-6f" x="53.894531"/>
      <use xlink:href="#DejaVuSans-72" x="115.076172"/>
      <use xlink:href="#DejaVuSans-63" x="153.939453"/>
      <use xlink:href="#DejaVuSans-65" x="208.919922"/>
      <use xlink:href="#DejaVuSans-20" x="270.443359"/>
      <use xlink:href="#DejaVuSans-55" x="302.230469"/>
      <use xlink:href="#DejaVuSans-6e" x="375.423828"/>
      <use xlink:href="#DejaVuSans-63" x="438.802734"/>
      <use xlink:href="#DejaVuSans-65" x="493.783203"/>
      <use xlink:href="#DejaVuSans-72" x="555.306641"/>
      <use xlink:href="#DejaVuSans-74" x="596.419922"/>
      <use xlink:href="#DejaVuSans-61" x="635.628906"/>
      <use xlink:href="#DejaVuSans-69" x="696.908203"/>
      <use xlink:href="#DejaVuSans-6e" x="724.691406"/>
      <use xlink:href="#DejaVuSans-74" x="788.070312"/>
      <use xlink:href="#DejaVuSans-69" x="827.279297"/>
      <use xlink:href="#DejaVuSans-65" x="855.0625"/>
      <use xlink:href="#DejaVuSans-73" x="916.585938"/>
     </g>
    </g>
   </g>
   <g id="matplotlib.axis_2">
    <g id="ytick_1">
     <g id="line2d_9">
      <defs>
       <path id="mcef801950a" d="M 0 0 
L -3.5 0 
" style="stroke: #000000; stroke-width: 0.8"/>
      </defs>
      <g>
       <use xlink:href="#mcef801950a" x="83.72" y="491.541721" style="stroke: #000000; stroke-width: 0.8"/>
      </g>
     </g>
     <g id="text_10">
      <!-- 0 -->
      <g transform="translate(62.7225 499.900002) scale(0.22 -0.22)">
       <use xlink:href="#DejaVuSans-30"/>
      </g>
     </g>
    </g>
    <g id="ytick_2">
     <g id="line2d_10">
      <g>
       <use xlink:href="#mcef801950a" x="83.72" y="427.911126" style="stroke: #000000; stroke-width: 0.8"/>
      </g>
     </g>
     <g id="text_11">
      <!-- 10 -->
      <g transform="translate(48.725 436.269408) scale(0.22 -0.22)">
       <use xlink:href="#DejaVuSans-31"/>
       <use xlink:href="#DejaVuSans-30" x="63.623047"/>
      </g>
     </g>
    </g>
    <g id="ytick_3">
     <g id="line2d_11">
      <g>
       <use xlink:href="#mcef801950a" x="83.72" y="364.280532" style="stroke: #000000; stroke-width: 0.8"/>
      </g>
     </g>
     <g id="text_12">
      <!-- 20 -->
      <g transform="translate(48.725 372.638813) scale(0.22 -0.22)">
       <use xlink:href="#DejaVuSans-32"/>
       <use xlink:href="#DejaVuSans-30" x="63.623047"/>
      </g>
     </g>
    </g>
    <g id="ytick_4">
     <g id="line2d_12">
      <g>
       <use xlink:href="#mcef801950a" x="83.72" y="300.649937" style="stroke: #000000; stroke-width: 0.8"/>
      </g>
     </g>
     <g id="text_13">
      <!-- 30 -->
      <g transform="translate(48.725 309.008218) scale(0.22 -0.22)">
       <use xlink:href="#DejaVuSans-33"/>
       <use xlink:href="#DejaVuSans-30" x="63.623047"/>
      </g>
     </g>
    </g>
    <g id="ytick_5">
     <g id="line2d_13">
      <g>
       <use xlink:href="#mcef801950a" x="83.72" y="237.019342" style="stroke: #000000; stroke-width: 0.8"/>
      </g>
     </g>
     <g id="text_14">
      <!-- 40 -->
      <g transform="translate(48.725 245.377623) scale(0.22 -0.22)">
       <use xlink:href="#DejaVuSans-34"/>
       <use xlink:href="#DejaVuSans-30" x="63.623047"/>
      </g>
     </g>
    </g>
    <g id="ytick_6">
     <g id="line2d_14">
      <g>
       <use xlink:href="#mcef801950a" x="83.72" y="173.388747" style="stroke: #000000; stroke-width: 0.8"/>
      </g>
     </g>
     <g id="text_15">
      <!-- 50 -->
      <g transform="translate(48.725 181.747029) scale(0.22 -0.22)">
       <use xlink:href="#DejaVuSans-35"/>
       <use xlink:href="#DejaVuSans-30" x="63.623047"/>
      </g>
     </g>
    </g>
    <g id="ytick_7">
     <g id="line2d_15">
      <g>
       <use xlink:href="#mcef801950a" x="83.72" y="109.758153" style="stroke: #000000; stroke-width: 0.8"/>
      </g>
     </g>
     <g id="text_16">
      <!-- 60 -->
      <g transform="translate(48.725 118.116434) scale(0.22 -0.22)">
       <use xlink:href="#DejaVuSans-36"/>
       <use xlink:href="#DejaVuSans-30" x="63.623047"/>
      </g>
     </g>
    </g>
    <g id="ytick_8">
     <g id="line2d_16">
      <g>
       <use xlink:href="#mcef801950a" x="83.72" y="46.127558" style="stroke: #000000; stroke-width: 0.8"/>
      </g>
     </g>
     <g id="text_17">
      <!-- 70 -->
      <g transform="translate(48.725 54.485839) scale(0.22 -0.22)">
       <use xlink:href="#DejaVuSans-37"/>
       <use xlink:href="#DejaVuSans-30" x="63.623047"/>
      </g>
     </g>
    </g>
    <g id="text_18">
     <!-- Force Errors [kJ/(mol*A)] -->
     <g transform="translate(40.149688 394.9125) rotate(-90) scale(0.22 -0.22)">
      <defs>
       <path id="DejaVuSans-45" d="M 628 4666 
L 3578 4666 
L 3578 4134 
L 1259 4134 
L 1259 2753 
L 3481 2753 
L 3481 2222 
L 1259 2222 
L 1259 531 
L 3634 531 
L 3634 0 
L 628 0 
L 628 4666 
z
" transform="scale(0.015625)"/>
       <path id="DejaVuSans-5b" d="M 550 4863 
L 1875 4863 
L 1875 4416 
L 1125 4416 
L 1125 -397 
L 1875 -397 
L 1875 -844 
L 550 -844 
L 550 4863 
z
" transform="scale(0.015625)"/>
       <path id="DejaVuSans-6b" d="M 581 4863 
L 1159 4863 
L 1159 1991 
L 2875 3500 
L 3609 3500 
L 1753 1863 
L 3688 0 
L 2938 0 
L 1159 1709 
L 1159 0 
L 581 0 
L 581 4863 
z
" transform="scale(0.015625)"/>
       <path id="DejaVuSans-4a" d="M 628 4666 
L 1259 4666 
L 1259 325 
Q 1259 -519 939 -900 
Q 619 -1281 -91 -1281 
L -331 -1281 
L -331 -750 
L -134 -750 
Q 284 -750 456 -515 
Q 628 -281 628 325 
L 628 4666 
z
" transform="scale(0.015625)"/>
       <path id="DejaVuSans-2f" d="M 1625 4666 
L 2156 4666 
L 531 -594 
L 0 -594 
L 1625 4666 
z
" transform="scale(0.015625)"/>
       <path id="DejaVuSans-28" d="M 1984 4856 
Q 1566 4138 1362 3434 
Q 1159 2731 1159 2009 
Q 1159 1288 1364 580 
Q 1569 -128 1984 -844 
L 1484 -844 
Q 1016 -109 783 600 
Q 550 1309 550 2009 
Q 550 2706 781 3412 
Q 1013 4119 1484 4856 
L 1984 4856 
z
" transform="scale(0.015625)"/>
       <path id="DejaVuSans-6d" d="M 3328 2828 
Q 3544 3216 3844 3400 
Q 4144 3584 4550 3584 
Q 5097 3584 5394 3201 
Q 5691 2819 5691 2113 
L 5691 0 
L 5113 0 
L 5113 2094 
Q 5113 2597 4934 2840 
Q 4756 3084 4391 3084 
Q 3944 3084 3684 2787 
Q 3425 2491 3425 1978 
L 3425 0 
L 2847 0 
L 2847 2094 
Q 2847 2600 2669 2842 
Q 2491 3084 2119 3084 
Q 1678 3084 1418 2786 
Q 1159 2488 1159 1978 
L 1159 0 
L 581 0 
L 581 3500 
L 1159 3500 
L 1159 2956 
Q 1356 3278 1631 3431 
Q 1906 3584 2284 3584 
Q 2666 3584 2933 3390 
Q 3200 3197 3328 2828 
z
" transform="scale(0.015625)"/>
       <path id="DejaVuSans-6c" d="M 603 4863 
L 1178 4863 
L 1178 0 
L 603 0 
L 603 4863 
z
" transform="scale(0.015625)"/>
       <path id="DejaVuSans-2a" d="M 3009 3897 
L 1888 3291 
L 3009 2681 
L 2828 2375 
L 1778 3009 
L 1778 1831 
L 1422 1831 
L 1422 3009 
L 372 2375 
L 191 2681 
L 1313 3291 
L 191 3897 
L 372 4206 
L 1422 3572 
L 1422 4750 
L 1778 4750 
L 1778 3572 
L 2828 4206 
L 3009 3897 
z
" transform="scale(0.015625)"/>
       <path id="DejaVuSans-41" d="M 2188 4044 
L 1331 1722 
L 3047 1722 
L 2188 4044 
z
M 1831 4666 
L 2547 4666 
L 4325 0 
L 3669 0 
L 3244 1197 
L 1141 1197 
L 716 0 
L 50 0 
L 1831 4666 
z
" transform="scale(0.015625)"/>
       <path id="DejaVuSans-29" d="M 513 4856 
L 1013 4856 
Q 1481 4119 1714 3412 
Q 1947 2706 1947 2009 
Q 1947 1309 1714 600 
Q 1481 -109 1013 -844 
L 513 -844 
Q 928 -128 1133 580 
Q 1338 1288 1338 2009 
Q 1338 2731 1133 3434 
Q 928 4138 513 4856 
z
" transform="scale(0.015625)"/>
       <path id="DejaVuSans-5d" d="M 1947 4863 
L 1947 -844 
L 622 -844 
L 622 -397 
L 1369 -397 
L 1369 4416 
L 622 4416 
L 622 4863 
L 1947 4863 
z
" transform="scale(0.015625)"/>
      </defs>
      <use xlink:href="#DejaVuSans-46"/>
      <use xlink:href="#DejaVuSans-6f" x="53.894531"/>
      <use xlink:href="#DejaVuSans-72" x="115.076172"/>
      <use xlink:href="#DejaVuSans-63" x="153.939453"/>
      <use xlink:href="#DejaVuSans-65" x="208.919922"/>
      <use xlink:href="#DejaVuSans-20" x="270.443359"/>
      <use xlink:href="#DejaVuSans-45" x="302.230469"/>
      <use xlink:href="#DejaVuSans-72" x="365.414062"/>
      <use xlink:href="#DejaVuSans-72" x="404.777344"/>
      <use xlink:href="#DejaVuSans-6f" x="443.640625"/>
      <use xlink:href="#DejaVuSans-72" x="504.822266"/>
      <use xlink:href="#DejaVuSans-73" x="545.935547"/>
      <use xlink:href="#DejaVuSans-20" x="598.035156"/>
      <use xlink:href="#DejaVuSans-5b" x="629.822266"/>
      <use xlink:href="#DejaVuSans-6b" x="668.835938"/>
      <use xlink:href="#DejaVuSans-4a" x="726.746094"/>
      <use xlink:href="#DejaVuSans-2f" x="756.238281"/>
      <use xlink:href="#DejaVuSans-28" x="789.929688"/>
      <use xlink:href="#DejaVuSans-6d" x="828.943359"/>
      <use xlink:href="#DejaVuSans-6f" x="926.355469"/>
      <use xlink:href="#DejaVuSans-6c" x="987.537109"/>
      <use xlink:href="#DejaVuSans-2a" x="1015.320312"/>
      <use xlink:href="#DejaVuSans-41" x="1065.320312"/>
      <use xlink:href="#DejaVuSans-29" x="1133.728516"/>
      <use xlink:href="#DejaVuSans-5d" x="1172.742188"/>
     </g>
    </g>
   </g>
   <g id="line2d_17">
    <path d="M 83.72 499.48 
L 696.24 23.76 
" clip-path="url(#pda7c195afa)" style="fill: none; stroke-dasharray: 5.55,2.4; stroke-dashoffset: 0; stroke: #ff0000; stroke-width: 1.5"/>
   </g>
   <g id="patch_3">
    <path d="M 83.72 499.48 
L 83.72 23.76 
" style="fill: none; stroke: #000000; stroke-width: 0.8; stroke-linejoin: miter; stroke-linecap: square"/>
   </g>
   <g id="patch_4">
    <path d="M 696.24 499.48 
L 696.24 23.76 
" style="fill: none; stroke: #000000; stroke-width: 0.8; stroke-linejoin: miter; stroke-linecap: square"/>
   </g>
   <g id="patch_5">
    <path d="M 83.72 499.48 
L 696.24 499.48 
" style="fill: none; stroke: #000000; stroke-width: 0.8; stroke-linejoin: miter; stroke-linecap: square"/>
   </g>
   <g id="patch_6">
    <path d="M 83.72 23.76 
L 696.24 23.76 
" style="fill: none; stroke: #000000; stroke-width: 0.8; stroke-linejoin: miter; stroke-linecap: square"/>
   </g>
   <g id="text_19">
    <!-- Correlation in: 0.897 -->
    <g transform="translate(132.7216 46.696812) scale(0.22 -0.22)">
     <defs>
      <path id="DejaVuSans-43" d="M 4122 4306 
L 4122 3641 
Q 3803 3938 3442 4084 
Q 3081 4231 2675 4231 
Q 1875 4231 1450 3742 
Q 1025 3253 1025 2328 
Q 1025 1406 1450 917 
Q 1875 428 2675 428 
Q 3081 428 3442 575 
Q 3803 722 4122 1019 
L 4122 359 
Q 3791 134 3420 21 
Q 3050 -91 2638 -91 
Q 1578 -91 968 557 
Q 359 1206 359 2328 
Q 359 3453 968 4101 
Q 1578 4750 2638 4750 
Q 3056 4750 3426 4639 
Q 3797 4528 4122 4306 
z
" transform="scale(0.015625)"/>
      <path id="DejaVuSans-3a" d="M 750 794 
L 1409 794 
L 1409 0 
L 750 0 
L 750 794 
z
M 750 3309 
L 1409 3309 
L 1409 2516 
L 750 2516 
L 750 3309 
z
" transform="scale(0.015625)"/>
      <path id="DejaVuSans-2e" d="M 684 794 
L 1344 794 
L 1344 0 
L 684 0 
L 684 794 
z
" transform="scale(0.015625)"/>
      <path id="DejaVuSans-38" d="M 2034 2216 
Q 1584 2216 1326 1975 
Q 1069 1734 1069 1313 
Q 1069 891 1326 650 
Q 1584 409 2034 409 
Q 2484 409 2743 651 
Q 3003 894 3003 1313 
Q 3003 1734 2745 1975 
Q 2488 2216 2034 2216 
z
M 1403 2484 
Q 997 2584 770 2862 
Q 544 3141 544 3541 
Q 544 4100 942 4425 
Q 1341 4750 2034 4750 
Q 2731 4750 3128 4425 
Q 3525 4100 3525 3541 
Q 3525 3141 3298 2862 
Q 3072 2584 2669 2484 
Q 3125 2378 3379 2068 
Q 3634 1759 3634 1313 
Q 3634 634 3220 271 
Q 2806 -91 2034 -91 
Q 1263 -91 848 271 
Q 434 634 434 1313 
Q 434 1759 690 2068 
Q 947 2378 1403 2484 
z
M 1172 3481 
Q 1172 3119 1398 2916 
Q 1625 2713 2034 2713 
Q 2441 2713 2670 2916 
Q 2900 3119 2900 3481 
Q 2900 3844 2670 4047 
Q 2441 4250 2034 4250 
Q 1625 4250 1398 4047 
Q 1172 3844 1172 3481 
z
" transform="scale(0.015625)"/>
      <path id="DejaVuSans-39" d="M 703 97 
L 703 672 
Q 941 559 1184 500 
Q 1428 441 1663 441 
Q 2288 441 2617 861 
Q 2947 1281 2994 2138 
Q 2813 1869 2534 1725 
Q 2256 1581 1919 1581 
Q 1219 1581 811 2004 
Q 403 2428 403 3163 
Q 403 3881 828 4315 
Q 1253 4750 1959 4750 
Q 2769 4750 3195 4129 
Q 3622 3509 3622 2328 
Q 3622 1225 3098 567 
Q 2575 -91 1691 -91 
Q 1453 -91 1209 -44 
Q 966 3 703 97 
z
M 1959 2075 
Q 2384 2075 2632 2365 
Q 2881 2656 2881 3163 
Q 2881 3666 2632 3958 
Q 2384 4250 1959 4250 
Q 1534 4250 1286 3958 
Q 1038 3666 1038 3163 
Q 1038 2656 1286 2365 
Q 1534 2075 1959 2075 
z
" transform="scale(0.015625)"/>
     </defs>
     <use xlink:href="#DejaVuSans-43"/>
     <use xlink:href="#DejaVuSans-6f" x="69.824219"/>
     <use xlink:href="#DejaVuSans-72" x="131.005859"/>
     <use xlink:href="#DejaVuSans-72" x="170.369141"/>
     <use xlink:href="#DejaVuSans-65" x="209.232422"/>
     <use xlink:href="#DejaVuSans-6c" x="270.755859"/>
     <use xlink:href="#DejaVuSans-61" x="298.539062"/>
     <use xlink:href="#DejaVuSans-74" x="359.818359"/>
     <use xlink:href="#DejaVuSans-69" x="399.027344"/>
     <use xlink:href="#DejaVuSans-6f" x="426.810547"/>
     <use xlink:href="#DejaVuSans-6e" x="487.992188"/>
     <use xlink:href="#DejaVuSans-20" x="551.371094"/>
     <use xlink:href="#DejaVuSans-69" x="583.158203"/>
     <use xlink:href="#DejaVuSans-6e" x="610.941406"/>
     <use xlink:href="#DejaVuSans-3a" x="674.320312"/>
     <use xlink:href="#DejaVuSans-20" x="708.011719"/>
     <use xlink:href="#DejaVuSans-30" x="739.798828"/>
     <use xlink:href="#DejaVuSans-2e" x="803.421875"/>
     <use xlink:href="#DejaVuSans-38" x="835.208984"/>
     <use xlink:href="#DejaVuSans-39" x="898.832031"/>
     <use xlink:href="#DejaVuSans-37" x="962.455078"/>
    </g>
    <!-- Correlation Out: 0.214 -->
    <g transform="translate(132.7216 71.332) scale(0.22 -0.22)">
     <defs>
      <path id="DejaVuSans-4f" d="M 2522 4238 
Q 1834 4238 1429 3725 
Q 1025 3213 1025 2328 
Q 1025 1447 1429 934 
Q 1834 422 2522 422 
Q 3209 422 3611 934 
Q 4013 1447 4013 2328 
Q 4013 3213 3611 3725 
Q 3209 4238 2522 4238 
z
M 2522 4750 
Q 3503 4750 4090 4092 
Q 4678 3434 4678 2328 
Q 4678 1225 4090 567 
Q 3503 -91 2522 -91 
Q 1538 -91 948 565 
Q 359 1222 359 2328 
Q 359 3434 948 4092 
Q 1538 4750 2522 4750 
z
" transform="scale(0.015625)"/>
      <path id="DejaVuSans-75" d="M 544 1381 
L 544 3500 
L 1119 3500 
L 1119 1403 
Q 1119 906 1312 657 
Q 1506 409 1894 409 
Q 2359 409 2629 706 
Q 2900 1003 2900 1516 
L 2900 3500 
L 3475 3500 
L 3475 0 
L 2900 0 
L 2900 538 
Q 2691 219 2414 64 
Q 2138 -91 1772 -91 
Q 1169 -91 856 284 
Q 544 659 544 1381 
z
M 1991 3584 
L 1991 3584 
z
" transform="scale(0.015625)"/>
     </defs>
     <use xlink:href="#DejaVuSans-43"/>
     <use xlink:href="#DejaVuSans-6f" x="69.824219"/>
     <use xlink:href="#DejaVuSans-72" x="131.005859"/>
     <use xlink:href="#DejaVuSans-72" x="170.369141"/>
     <use xlink:href="#DejaVuSans-65" x="209.232422"/>
     <use xlink:href="#DejaVuSans-6c" x="270.755859"/>
     <use xlink:href="#DejaVuSans-61" x="298.539062"/>
     <use xlink:href="#DejaVuSans-74" x="359.818359"/>
     <use xlink:href="#DejaVuSans-69" x="399.027344"/>
     <use xlink:href="#DejaVuSans-6f" x="426.810547"/>
     <use xlink:href="#DejaVuSans-6e" x="487.992188"/>
     <use xlink:href="#DejaVuSans-20" x="551.371094"/>
     <use xlink:href="#DejaVuSans-4f" x="583.158203"/>
     <use xlink:href="#DejaVuSans-75" x="661.869141"/>
     <use xlink:href="#DejaVuSans-74" x="725.248047"/>
     <use xlink:href="#DejaVuSans-3a" x="764.457031"/>
     <use xlink:href="#DejaVuSans-20" x="798.148438"/>
     <use xlink:href="#DejaVuSans-30" x="829.935547"/>
     <use xlink:href="#DejaVuSans-2e" x="893.558594"/>
     <use xlink:href="#DejaVuSans-32" x="925.345703"/>
     <use xlink:href="#DejaVuSans-31" x="988.96875"/>
     <use xlink:href="#DejaVuSans-34" x="1052.591797"/>
    </g>
   </g>
   <g id="legend_1">
    <g id="patch_7">
     <path d="M 407.0225 105.94375 
L 680.84 105.94375 
Q 685.24 105.94375 685.24 101.54375 
L 685.24 39.16 
Q 685.24 34.76 680.84 34.76 
L 407.0225 34.76 
Q 402.6225 34.76 402.6225 39.16 
L 402.6225 101.54375 
Q 402.6225 105.94375 407.0225 105.94375 
z
" style="fill: #ffffff; opacity: 0.8; stroke: #cccccc; stroke-linejoin: miter"/>
    </g>
    <g id="line2d_18">
     <defs>
      <path id="mb230594714" d="M 0 2.5 
C 0.663008 2.5 1.29895 2.236584 1.767767 1.767767 
C 2.236584 1.29895 2.5 0.663008 2.5 0 
C 2.5 -0.663008 2.236584 -1.29895 1.767767 -1.767767 
C 1.29895 -2.236584 0.663008 -2.5 0 -2.5 
C -0.663008 -2.5 -1.29895 -2.236584 -1.767767 -1.767767 
C -2.236584 -1.29895 -2.5 -0.663008 -2.5 0 
C -2.5 0.663008 -2.236584 1.29895 -1.767767 1.767767 
C -1.29895 2.236584 -0.663008 2.5 0 2.5 
z
" style="stroke: #ffffff"/>
     </defs>
     <g>
      <use xlink:href="#mb230594714" x="433.4225" y="52.576562" style="fill: #0000ff; stroke: #ffffff"/>
     </g>
    </g>
    <g id="text_20">
     <!-- In Distribution -->
     <g transform="translate(473.0225 60.276562) scale(0.22 -0.22)">
      <defs>
       <path id="DejaVuSans-49" d="M 628 4666 
L 1259 4666 
L 1259 0 
L 628 0 
L 628 4666 
z
" transform="scale(0.015625)"/>
       <path id="DejaVuSans-44" d="M 1259 4147 
L 1259 519 
L 2022 519 
Q 2988 519 3436 956 
Q 3884 1394 3884 2338 
Q 3884 3275 3436 3711 
Q 2988 4147 2022 4147 
L 1259 4147 
z
M 628 4666 
L 1925 4666 
Q 3281 4666 3915 4102 
Q 4550 3538 4550 2338 
Q 4550 1131 3912 565 
Q 3275 0 1925 0 
L 628 0 
L 628 4666 
z
" transform="scale(0.015625)"/>
       <path id="DejaVuSans-62" d="M 3116 1747 
Q 3116 2381 2855 2742 
Q 2594 3103 2138 3103 
Q 1681 3103 1420 2742 
Q 1159 2381 1159 1747 
Q 1159 1113 1420 752 
Q 1681 391 2138 391 
Q 2594 391 2855 752 
Q 3116 1113 3116 1747 
z
M 1159 2969 
Q 1341 3281 1617 3432 
Q 1894 3584 2278 3584 
Q 2916 3584 3314 3078 
Q 3713 2572 3713 1747 
Q 3713 922 3314 415 
Q 2916 -91 2278 -91 
Q 1894 -91 1617 61 
Q 1341 213 1159 525 
L 1159 0 
L 581 0 
L 581 4863 
L 1159 4863 
L 1159 2969 
z
" transform="scale(0.015625)"/>
      </defs>
      <use xlink:href="#DejaVuSans-49"/>
      <use xlink:href="#DejaVuSans-6e" x="29.492188"/>
      <use xlink:href="#DejaVuSans-20" x="92.871094"/>
      <use xlink:href="#DejaVuSans-44" x="124.658203"/>
      <use xlink:href="#DejaVuSans-69" x="201.660156"/>
      <use xlink:href="#DejaVuSans-73" x="229.443359"/>
      <use xlink:href="#DejaVuSans-74" x="281.542969"/>
      <use xlink:href="#DejaVuSans-72" x="320.751953"/>
      <use xlink:href="#DejaVuSans-69" x="361.865234"/>
      <use xlink:href="#DejaVuSans-62" x="389.648438"/>
      <use xlink:href="#DejaVuSans-75" x="453.125"/>
      <use xlink:href="#DejaVuSans-74" x="516.503906"/>
      <use xlink:href="#DejaVuSans-69" x="555.712891"/>
      <use xlink:href="#DejaVuSans-6f" x="583.496094"/>
      <use xlink:href="#DejaVuSans-6e" x="644.677734"/>
     </g>
    </g>
    <g id="line2d_19">
     <defs>
      <path id="m7bedf521fb" d="M 0 2.5 
C 0.663008 2.5 1.29895 2.236584 1.767767 1.767767 
C 2.236584 1.29895 2.5 0.663008 2.5 0 
C 2.5 -0.663008 2.236584 -1.29895 1.767767 -1.767767 
C 1.29895 -2.236584 0.663008 -2.5 0 -2.5 
C -0.663008 -2.5 -1.29895 -2.236584 -1.767767 -1.767767 
C -2.236584 -1.29895 -2.5 -0.663008 -2.5 0 
C -2.5 0.663008 -2.236584 1.29895 -1.767767 1.767767 
C -1.29895 2.236584 -0.663008 2.5 0 2.5 
z
" style="stroke: #ffffff"/>
     </defs>
     <g>
      <use xlink:href="#m7bedf521fb" x="433.4225" y="84.868437" style="fill: #008000; stroke: #ffffff"/>
     </g>
    </g>
    <g id="text_21">
     <!-- Out of Distribution -->
     <g transform="translate(473.0225 92.568437) scale(0.22 -0.22)">
      <defs>
       <path id="DejaVuSans-66" d="M 2375 4863 
L 2375 4384 
L 1825 4384 
Q 1516 4384 1395 4259 
Q 1275 4134 1275 3809 
L 1275 3500 
L 2222 3500 
L 2222 3053 
L 1275 3053 
L 1275 0 
L 697 0 
L 697 3053 
L 147 3053 
L 147 3500 
L 697 3500 
L 697 3744 
Q 697 4328 969 4595 
Q 1241 4863 1831 4863 
L 2375 4863 
z
" transform="scale(0.015625)"/>
      </defs>
      <use xlink:href="#DejaVuSans-4f"/>
      <use xlink:href="#DejaVuSans-75" x="78.710938"/>
      <use xlink:href="#DejaVuSans-74" x="142.089844"/>
      <use xlink:href="#DejaVuSans-20" x="181.298828"/>
      <use xlink:href="#DejaVuSans-6f" x="213.085938"/>
      <use xlink:href="#DejaVuSans-66" x="274.267578"/>
      <use xlink:href="#DejaVuSans-20" x="309.472656"/>
      <use xlink:href="#DejaVuSans-44" x="341.259766"/>
      <use xlink:href="#DejaVuSans-69" x="418.261719"/>
      <use xlink:href="#DejaVuSans-73" x="446.044922"/>
      <use xlink:href="#DejaVuSans-74" x="498.144531"/>
      <use xlink:href="#DejaVuSans-72" x="537.353516"/>
      <use xlink:href="#DejaVuSans-69" x="578.466797"/>
      <use xlink:href="#DejaVuSans-62" x="606.25"/>
      <use xlink:href="#DejaVuSans-75" x="669.726562"/>
      <use xlink:href="#DejaVuSans-74" x="733.105469"/>
      <use xlink:href="#DejaVuSans-69" x="772.314453"/>
      <use xlink:href="#DejaVuSans-6f" x="800.097656"/>
      <use xlink:href="#DejaVuSans-6e" x="861.279297"/>
     </g>
    </g>
   </g>
  </g>
 </g>
 <defs>
  <clipPath id="pda7c195afa">
   <rect x="83.72" y="23.76" width="612.52" height="475.72"/>
  </clipPath>
 </defs>
</svg>
