<?xml version="1.0" encoding="utf-8" standalone="no"?>
<!DOCTYPE svg PUBLIC "-//W3C//DTD SVG 1.1//EN"
  "http://www.w3.org/Graphics/SVG/1.1/DTD/svg11.dtd">
<svg xmlns:xlink="http://www.w3.org/1999/xlink" width="720pt" height="576pt" viewBox="0 0 720 576" xmlns="http://www.w3.org/2000/svg" version="1.1">
 <metadata>
  <rdf:RDF xmlns:dc="http://purl.org/dc/elements/1.1/" xmlns:cc="http://creativecommons.org/ns#" xmlns:rdf="http://www.w3.org/1999/02/22-rdf-syntax-ns#">
   <cc:Work>
    <dc:type rdf:resource="http://purl.org/dc/dcmitype/StillImage"/>
    <dc:date>2024-12-07T22:56:32.554745</dc:date>
    <dc:format>image/svg+xml</dc:format>
    <dc:creator>
     <cc:Agent>
      <dc:title>Matplotlib v3.8.4, https://matplotlib.org/</dc:title>
     </cc:Agent>
    </dc:creator>
   </cc:Work>
  </rdf:RDF>
 </metadata>
 <defs>
  <style type="text/css">*{stroke-linejoin: round; stroke-linecap: butt}</style>
 </defs>
 <g id="figure_1">
  <g id="patch_1">
   <path d="M 0 576 
L 720 576 
L 720 0 
L 0 0 
z
" style="fill: #ffffff"/>
  </g>
  <g id="axes_1">
   <g id="patch_2">
    <path d="M 102.17 499.48 
L 682.2 499.48 
L 682.2 32.04 
L 102.17 32.04 
z
" style="fill: #ffffff"/>
   </g>
   <g id="QuadContourSet_1">
    <path d="M 243.676159 385.758496 
L 244.139519 385.430564 
L 243.676159 385.067277 
L 243.211386 385.430564 
z
M 252.980643 381.070297 
L 256.012887 378.926972 
L 252.980643 376.08141 
L 249.66009 378.926972 
z
M 262.285127 375.49866 
L 266.64821 372.423381 
L 271.589612 369.461889 
L 276.628908 365.91979 
L 280.894096 363.138449 
L 286.201062 359.416198 
L 290.19858 356.59725 
L 295.459641 352.912607 
L 299.503065 349.844992 
L 304.413559 346.409016 
L 308.807549 342.837725 
L 313.000423 339.905424 
L 318.112033 335.470228 
L 321.070449 333.401833 
L 327.416518 327.542462 
L 328.338072 326.898242 
L 336.616523 320.394651 
L 336.721002 320.328196 
L 345.81574 313.891059 
L 346.025486 313.745901 
L 355.03999 307.387468 
L 355.32997 307.170355 
L 364.264149 300.883877 
L 364.634455 300.585435 
L 373.467875 294.380285 
L 373.938939 293.973582 
L 382.628027 287.876694 
L 383.243423 287.310302 
L 391.711169 281.373103 
L 392.547908 280.556771 
L 400.663154 274.869512 
L 401.852392 273.648401 
L 409.392794 268.36592 
L 411.156876 266.476447 
L 417.745407 261.862329 
L 420.461361 258.856071 
L 425.456954 255.358738 
L 429.765845 250.46081 
L 432.060206 248.855146 
L 438.955129 242.351555 
L 439.070329 242.243641 
L 447.978967 235.847964 
L 448.374814 235.457303 
L 456.92414 229.344372 
L 457.679298 228.565016 
L 465.711428 222.840781 
L 466.983782 221.47727 
L 474.219222 216.33719 
L 476.288266 214.046623 
L 482.238101 209.833599 
L 485.592751 206.004172 
L 489.381393 203.330007 
L 494.897235 196.826416 
L 494.897235 196.826416 
L 503.356312 190.322825 
L 504.201719 189.469138 
L 511.689261 183.819233 
L 513.506204 181.935415 
L 519.721206 177.315642 
L 522.810688 174.093095 
L 527.284868 170.812051 
L 532.115172 165.864874 
L 534.264927 164.30846 
L 540.293774 157.804868 
L 541.419657 156.489478 
L 545.949515 151.301277 
L 541.419657 149.065177 
L 538.312278 151.301277 
L 532.115172 154.68243 
L 527.827471 157.804868 
L 522.810688 160.823892 
L 518.047213 164.30846 
L 513.506204 167.298521 
L 508.699333 170.812051 
L 504.201719 174.018922 
L 499.67098 177.315642 
L 494.897235 180.960949 
L 490.942027 183.819233 
L 485.592751 188.144395 
L 482.554557 190.322825 
L 476.288266 195.618549 
L 474.590683 196.826416 
L 467.001529 203.330007 
L 466.983782 203.340419 
L 457.884615 209.833599 
L 457.679298 209.963694 
L 448.678151 216.33719 
L 448.374814 216.544426 
L 439.433948 222.840781 
L 439.070329 223.108645 
L 430.187357 229.344372 
L 429.765845 229.679364 
L 420.972338 235.847964 
L 420.461361 236.286353 
L 411.833949 242.351555 
L 411.156876 242.979273 
L 402.844529 248.855146 
L 401.852392 249.850984 
L 394.131951 255.358738 
L 392.547908 257.085643 
L 385.938277 261.862329 
L 383.243423 265.068335 
L 378.754573 268.36592 
L 373.938939 274.654606 
L 373.651935 274.869512 
L 364.82398 281.373103 
L 364.634455 281.538497 
L 355.706637 287.876694 
L 355.32997 288.233022 
L 346.631044 294.380285 
L 346.025486 295.002621 
L 337.675064 300.883877 
L 336.721002 301.951408 
L 328.984087 307.387468 
L 327.416518 309.301008 
L 320.872549 313.891059 
L 318.112033 317.57347 
L 314.085149 320.394651 
L 308.901873 326.898242 
L 308.807549 326.985225 
L 299.987939 333.401833 
L 299.503065 333.888041 
L 291.11505 339.905424 
L 290.19858 340.905866 
L 282.456473 346.409016 
L 280.894096 348.267935 
L 274.320321 352.912607 
L 271.589612 356.458064 
L 267.38644 359.416198 
L 263.027974 365.91979 
L 262.285127 366.603769 
L 256.788666 372.423381 
z
M 287.120772 346.409016 
L 290.19858 344.221286 
L 294.152191 339.905424 
L 299.503065 336.066822 
L 302.16074 333.401833 
L 308.807549 328.566022 
L 310.616083 326.898242 
L 318.112033 321.325485 
L 319.209035 320.394651 
L 327.416518 314.082588 
L 327.662303 313.891059 
L 333.491688 307.387468 
L 336.721002 305.118509 
L 340.505529 300.883877 
L 346.025486 296.996135 
L 348.570816 294.380285 
L 355.32997 289.603799 
L 357.155659 287.876694 
L 364.634455 282.567212 
L 366.002788 281.373103 
L 373.938939 275.703096 
L 374.97263 274.869512 
L 383.243423 268.908524 
L 383.971101 268.36592 
L 392.547908 262.108588 
L 392.905652 261.862329 
L 400.7146 255.358738 
L 401.852392 254.547038 
L 407.523137 248.855146 
L 411.156876 246.286511 
L 415.401218 242.351555 
L 420.461361 238.794197 
L 423.895427 235.847964 
L 429.765845 231.729896 
L 432.767493 229.344372 
L 439.070329 224.919866 
L 441.892633 222.840781 
L 448.374814 218.275886 
L 451.21254 216.33719 
L 457.679298 211.758234 
L 460.716768 209.833599 
L 466.983782 205.361447 
L 470.446558 203.330007 
L 476.288266 199.118104 
L 480.535709 196.826416 
L 485.592751 193.132471 
L 490.463324 196.826416 
L 485.592751 200.67141 
L 482.714359 203.330007 
L 476.288266 208.619352 
L 474.896316 209.833599 
L 467.988016 216.33719 
L 466.983782 217.050601 
L 461.580701 222.840781 
L 457.679298 225.621183 
L 454.071713 229.344372 
L 448.374814 233.417763 
L 445.912356 235.847964 
L 439.070329 240.759982 
L 437.371295 242.351555 
L 429.765845 247.843746 
L 428.620676 248.855146 
L 420.461361 254.801202 
L 419.787773 255.358738 
L 411.156876 261.738716 
L 410.996502 261.862329 
L 404.344467 268.36592 
L 401.852392 270.111761 
L 397.218827 274.869512 
L 392.547908 278.142946 
L 389.237005 281.373103 
L 383.243423 285.57553 
L 380.743163 287.876694 
L 373.938939 292.651026 
L 371.936024 294.380285 
L 364.634455 299.509367 
L 362.928967 300.883877 
L 355.32997 306.230863 
L 353.785188 307.387468 
L 346.025486 312.860818 
L 344.536843 313.891059 
L 336.721002 319.423009 
L 335.193412 320.394651 
L 327.416518 325.925515 
L 325.739989 326.898242 
L 318.112033 332.359043 
L 316.116839 333.401833 
L 308.807549 338.680536 
L 306.135364 339.905424 
L 299.503065 344.74643 
L 295.052337 346.409016 
L 290.19858 349.981986 
z
M 491.362473 190.322825 
L 494.897235 187.702401 
L 497.761203 190.322825 
L 494.897235 192.524729 
z
M 550.724141 145.596042 
L 551.491059 144.797686 
L 550.724141 144.328366 
L 550.05663 144.797686 
z
" clip-path="url(#p3804141653)" style="fill: #edf4fc"/>
    <path d="M 290.19858 349.981986 
L 295.052337 346.409016 
L 299.503065 344.74643 
L 306.135364 339.905424 
L 308.807549 338.680536 
L 316.116839 333.401833 
L 318.112033 332.359043 
L 325.739989 326.898242 
L 327.416518 325.925515 
L 335.193412 320.394651 
L 336.721002 319.423009 
L 344.536843 313.891059 
L 346.025486 312.860818 
L 353.785188 307.387468 
L 355.32997 306.230863 
L 362.928967 300.883877 
L 364.634455 299.509367 
L 371.936024 294.380285 
L 373.938939 292.651026 
L 380.743163 287.876694 
L 383.243423 285.57553 
L 389.237005 281.373103 
L 392.547908 278.142946 
L 397.218827 274.869512 
L 401.852392 270.111761 
L 404.344467 268.36592 
L 410.996502 261.862329 
L 411.156876 261.738716 
L 419.787773 255.358738 
L 420.461361 254.801202 
L 428.620676 248.855146 
L 429.765845 247.843746 
L 437.371295 242.351555 
L 439.070329 240.759982 
L 445.912356 235.847964 
L 448.374814 233.417763 
L 454.071713 229.344372 
L 457.679298 225.621183 
L 461.580701 222.840781 
L 466.983782 217.050601 
L 467.988016 216.33719 
L 474.896316 209.833599 
L 476.288266 208.619352 
L 482.714359 203.330007 
L 485.592751 200.67141 
L 490.463324 196.826416 
L 485.592751 193.132471 
L 480.535709 196.826416 
L 476.288266 199.118104 
L 470.446558 203.330007 
L 466.983782 205.361447 
L 460.716768 209.833599 
L 457.679298 211.758234 
L 451.21254 216.33719 
L 448.374814 218.275886 
L 441.892633 222.840781 
L 439.070329 224.919866 
L 432.767493 229.344372 
L 429.765845 231.729896 
L 423.895427 235.847964 
L 420.461361 238.794197 
L 415.401218 242.351555 
L 411.156876 246.286511 
L 407.523137 248.855146 
L 401.852392 254.547038 
L 400.7146 255.358738 
L 392.905652 261.862329 
L 392.547908 262.108588 
L 383.971101 268.36592 
L 383.243423 268.908524 
L 374.97263 274.869512 
L 373.938939 275.703096 
L 366.002788 281.373103 
L 364.634455 282.567212 
L 357.155659 287.876694 
L 355.32997 289.603799 
L 348.570816 294.380285 
L 346.025486 296.996135 
L 340.505529 300.883877 
L 336.721002 305.118509 
L 333.491688 307.387468 
L 327.662303 313.891059 
L 327.416518 314.082588 
L 319.209035 320.394651 
L 318.112033 321.325485 
L 310.616083 326.898242 
L 308.807549 328.566022 
L 302.16074 333.401833 
L 299.503065 336.066822 
L 294.152191 339.905424 
L 290.19858 344.221286 
L 287.120772 346.409016 
z
M 298.460351 339.905424 
L 299.503065 339.157404 
L 300.795486 339.905424 
L 299.503065 340.848781 
z
M 305.242843 333.401833 
L 308.807549 330.808371 
L 312.727546 333.401833 
L 308.807549 336.23282 
z
M 313.047677 326.898242 
L 318.112033 323.133218 
L 321.339477 320.394651 
L 327.416518 315.721029 
L 329.764883 313.891059 
L 336.721002 308.233815 
L 337.915764 307.387468 
L 344.520522 300.883877 
L 346.025486 299.823921 
L 351.322367 294.380285 
L 355.32997 291.548236 
L 359.211085 287.876694 
L 364.634455 284.026438 
L 367.674918 281.373103 
L 373.938939 276.897754 
L 376.454073 274.869512 
L 383.243423 269.976241 
L 385.403 268.36592 
L 392.547908 263.153251 
L 394.423249 261.862329 
L 401.852392 256.347935 
L 403.41927 255.358738 
L 411.156876 249.469614 
L 412.237971 248.855146 
L 420.461361 242.351555 
L 420.461361 242.351555 
L 428.041807 235.847964 
L 429.765845 234.63856 
L 436.427395 229.344372 
L 439.070329 227.489068 
L 445.380258 222.840781 
L 448.374814 220.731949 
L 455.07261 222.840781 
L 450.025568 229.344372 
L 448.374814 230.524693 
L 442.980884 235.847964 
L 439.070329 238.655424 
L 435.124639 242.351555 
L 429.765845 246.221348 
L 426.783699 248.855146 
L 420.461361 253.462515 
L 418.170439 255.358738 
L 411.156876 260.543179 
L 409.445426 261.862329 
L 401.852392 267.601534 
L 400.777122 268.36592 
L 392.547908 274.812701 
L 392.459484 274.869512 
L 385.727421 281.373103 
L 383.243423 283.11477 
L 378.069498 287.876694 
L 373.938939 290.774991 
L 369.763106 294.380285 
L 364.634455 297.982972 
L 361.035022 300.883877 
L 355.32997 304.8982 
L 352.00526 307.387468 
L 346.025486 311.605336 
L 342.722738 313.891059 
L 336.721002 318.139009 
L 333.17474 320.394651 
L 327.416518 324.489851 
L 323.265574 326.898242 
L 318.112033 330.587627 
z
M 454.80755 216.33719 
L 457.679298 214.303774 
L 462.089789 216.33719 
L 457.679298 220.922594 
z
M 464.734155 209.833599 
L 466.983782 208.228261 
L 469.824091 209.833599 
L 466.983782 212.351533 
z
M 475.333305 203.330007 
L 476.288266 202.641475 
L 477.338759 203.330007 
L 476.288266 204.194672 
z
M 494.897235 192.524729 
L 497.761203 190.322825 
L 494.897235 187.702401 
L 491.362473 190.322825 
z
" clip-path="url(#p3804141653)" style="fill: #d3e4f3"/>
    <path d="M 299.503065 340.848781 
L 300.795486 339.905424 
L 299.503065 339.157404 
L 298.460351 339.905424 
z
M 308.807549 336.23282 
L 312.727546 333.401833 
L 308.807549 330.808371 
L 305.242843 333.401833 
z
M 307.42428 333.401833 
L 308.807549 332.395451 
L 310.328687 333.401833 
L 308.807549 334.500385 
z
M 318.112033 330.587627 
L 323.265574 326.898242 
L 327.416518 324.489851 
L 333.17474 320.394651 
L 336.721002 318.139009 
L 342.722738 313.891059 
L 346.025486 311.605336 
L 352.00526 307.387468 
L 355.32997 304.8982 
L 361.035022 300.883877 
L 364.634455 297.982972 
L 369.763106 294.380285 
L 373.938939 290.774991 
L 378.069498 287.876694 
L 383.243423 283.11477 
L 385.727421 281.373103 
L 392.459484 274.869512 
L 392.547908 274.812701 
L 400.777122 268.36592 
L 401.852392 267.601534 
L 409.445426 261.862329 
L 411.156876 260.543179 
L 418.170439 255.358738 
L 420.461361 253.462515 
L 426.783699 248.855146 
L 429.765845 246.221348 
L 435.124639 242.351555 
L 439.070329 238.655424 
L 442.980884 235.847964 
L 448.374814 230.524693 
L 450.025568 229.344372 
L 455.07261 222.840781 
L 448.374814 220.731949 
L 445.380258 222.840781 
L 439.070329 227.489068 
L 436.427395 229.344372 
L 429.765845 234.63856 
L 428.041807 235.847964 
L 420.461361 242.351555 
L 420.461361 242.351555 
L 412.237971 248.855146 
L 411.156876 249.469614 
L 403.41927 255.358738 
L 401.852392 256.347935 
L 394.423249 261.862329 
L 392.547908 263.153251 
L 385.403 268.36592 
L 383.243423 269.976241 
L 376.454073 274.869512 
L 373.938939 276.897754 
L 367.674918 281.373103 
L 364.634455 284.026438 
L 359.211085 287.876694 
L 355.32997 291.548236 
L 351.322367 294.380285 
L 346.025486 299.823921 
L 344.520522 300.883877 
L 337.915764 307.387468 
L 336.721002 308.233815 
L 329.764883 313.891059 
L 327.416518 315.721029 
L 321.339477 320.394651 
L 318.112033 323.133218 
L 313.047677 326.898242 
z
M 314.7687 326.898242 
L 318.112033 324.412688 
L 321.514244 326.898242 
L 318.112033 329.333861 
z
M 322.847351 320.394651 
L 327.416518 316.880679 
L 331.253039 313.891059 
L 336.721002 309.444096 
L 339.624282 307.387468 
L 346.025486 301.609339 
L 347.200055 300.883877 
L 353.269849 294.380285 
L 355.32997 292.924461 
L 360.665866 287.876694 
L 364.634455 285.059242 
L 368.858412 281.373103 
L 373.938939 277.743305 
L 377.502603 274.869512 
L 383.243423 270.731945 
L 386.416463 268.36592 
L 392.547908 263.892637 
L 395.497368 261.862329 
L 401.852392 257.145216 
L 404.682153 255.358738 
L 411.156876 250.4308 
L 413.929084 248.855146 
L 420.461361 243.688997 
L 423.222304 242.351555 
L 429.765845 236.812164 
L 433.534511 242.351555 
L 429.765845 245.073055 
L 425.483531 248.855146 
L 420.461361 252.515025 
L 417.025729 255.358738 
L 411.156876 259.697007 
L 408.347612 261.862329 
L 401.852392 266.771749 
L 399.609856 268.36592 
L 392.547908 273.898263 
L 391.036179 274.869512 
L 383.243423 281.373103 
L 383.243423 281.373103 
L 376.177143 287.876694 
L 373.938939 289.447179 
L 368.225167 294.380285 
L 364.634455 296.902627 
L 359.694533 300.883877 
L 355.32997 303.954974 
L 350.74547 307.387468 
L 346.025486 310.716736 
L 341.438758 313.891059 
L 336.721002 317.230225 
L 331.745972 320.394651 
L 327.416518 323.473724 
z
M 432.724627 235.847964 
L 439.017786 229.344372 
L 439.070329 229.307487 
L 439.495542 229.344372 
L 440.906059 235.847964 
L 439.070329 237.165869 
z
M 447.848715 222.840781 
L 448.374814 222.470291 
L 449.551516 222.840781 
L 448.374814 225.017787 
z
M 457.679298 220.922594 
L 462.089789 216.33719 
L 457.679298 214.303774 
L 454.80755 216.33719 
z
M 457.352012 216.33719 
L 457.679298 216.105446 
L 458.181951 216.33719 
L 457.679298 216.859777 
z
M 466.983782 212.351533 
L 469.824091 209.833599 
L 466.983782 208.228261 
L 464.734155 209.833599 
z
M 476.288266 204.194672 
L 477.338759 203.330007 
L 476.288266 202.641475 
L 475.333305 203.330007 
z
" clip-path="url(#p3804141653)" style="fill: #b4d3e9"/>
    <path d="M 308.807549 334.500385 
L 310.328687 333.401833 
L 308.807549 332.395451 
L 307.42428 333.401833 
z
M 318.112033 329.333861 
L 321.514244 326.898242 
L 318.112033 324.412688 
L 314.7687 326.898242 
z
M 316.589265 326.898242 
L 318.112033 325.766162 
L 319.661618 326.898242 
L 318.112033 328.007579 
z
M 327.416518 323.473724 
L 331.745972 320.394651 
L 336.721002 317.230225 
L 341.438758 313.891059 
L 346.025486 310.716736 
L 350.74547 307.387468 
L 355.32997 303.954974 
L 359.694533 300.883877 
L 364.634455 296.902627 
L 368.225167 294.380285 
L 373.938939 289.447179 
L 376.177143 287.876694 
L 383.243423 281.373103 
L 383.243423 281.373103 
L 391.036179 274.869512 
L 392.547908 273.898263 
L 399.609856 268.36592 
L 401.852392 266.771749 
L 408.347612 261.862329 
L 411.156876 259.697007 
L 417.025729 255.358738 
L 420.461361 252.515025 
L 425.483531 248.855146 
L 429.765845 245.073055 
L 433.534511 242.351555 
L 429.765845 236.812164 
L 423.222304 242.351555 
L 420.461361 243.688997 
L 413.929084 248.855146 
L 411.156876 250.4308 
L 404.682153 255.358738 
L 401.852392 257.145216 
L 395.497368 261.862329 
L 392.547908 263.892637 
L 386.416463 268.36592 
L 383.243423 270.731945 
L 377.502603 274.869512 
L 373.938939 277.743305 
L 368.858412 281.373103 
L 364.634455 285.059242 
L 360.665866 287.876694 
L 355.32997 292.924461 
L 353.269849 294.380285 
L 347.200055 300.883877 
L 346.025486 301.609339 
L 339.624282 307.387468 
L 336.721002 309.444096 
L 331.253039 313.891059 
L 327.416518 316.880679 
L 322.847351 320.394651 
z
M 324.44244 320.394651 
L 327.416518 318.1074 
L 330.234567 320.394651 
L 327.416518 322.398824 
z
M 332.827267 313.891059 
L 336.721002 310.724378 
L 340.080514 313.891059 
L 336.721002 316.268878 
z
M 341.431617 307.387468 
L 346.025486 303.240754 
L 349.412815 307.387468 
L 346.025486 309.77674 
z
M 349.841417 300.883877 
L 355.32997 294.380285 
L 358.276512 300.883877 
L 355.32997 302.957192 
z
M 355.32997 294.380285 
L 362.20479 287.876694 
L 364.634455 286.151782 
L 370.110357 281.373103 
L 373.938939 278.637761 
L 378.611778 274.869512 
L 383.243423 271.531358 
L 387.488544 268.36592 
L 392.547908 264.674789 
L 396.633612 261.862329 
L 401.852392 257.98861 
L 406.018081 255.358738 
L 411.156876 251.44758 
L 415.718008 248.855146 
L 420.461361 245.103794 
L 424.108164 248.855146 
L 420.461361 251.512734 
L 415.814811 255.358738 
L 411.156876 258.801893 
L 407.186302 261.862329 
L 401.852392 265.893972 
L 398.375077 268.36592 
L 392.547908 272.930935 
L 389.530553 274.869512 
L 383.243423 280.116554 
L 380.95061 281.373103 
L 374.175336 287.876694 
L 373.938939 288.042567 
L 366.598275 294.380285 
L 364.634455 295.759796 
z
M 426.142936 242.351555 
L 429.765845 239.284606 
L 431.852411 242.351555 
L 429.765845 243.858346 
z
M 439.070329 237.165869 
L 440.906059 235.847964 
L 439.495542 229.344372 
L 439.070329 229.307487 
L 439.017786 229.344372 
L 432.724627 235.847964 
z
M 448.374814 225.017787 
L 449.551516 222.840781 
L 448.374814 222.470291 
L 447.848715 222.840781 
z
M 457.679298 216.859777 
L 458.181951 216.33719 
L 457.679298 216.105446 
L 457.352012 216.33719 
z
" clip-path="url(#p3804141653)" style="fill: #8dc1dd"/>
    <path d="M 318.112033 328.007579 
L 319.661618 326.898242 
L 318.112033 325.766162 
L 316.589265 326.898242 
z
M 327.416518 322.398824 
L 330.234567 320.394651 
L 327.416518 318.1074 
L 324.44244 320.394651 
z
M 326.421073 320.394651 
L 327.416518 319.629092 
L 328.359739 320.394651 
L 327.416518 321.065462 
z
M 336.721002 316.268878 
L 340.080514 313.891059 
L 336.721002 310.724378 
L 332.827267 313.891059 
z
M 334.780025 313.891059 
L 336.721002 312.312509 
L 338.395676 313.891059 
L 336.721002 315.076372 
z
M 346.025486 309.77674 
L 349.412815 307.387468 
L 346.025486 303.240754 
L 341.431617 307.387468 
z
M 343.673533 307.387468 
L 346.025486 305.264448 
L 347.759719 307.387468 
L 346.025486 308.610719 
z
M 355.32997 302.957192 
L 358.276512 300.883877 
L 355.32997 294.380285 
L 349.841417 300.883877 
z
M 353.117904 300.883877 
L 355.32997 298.262717 
L 356.517523 300.883877 
L 355.32997 301.719491 
z
M 364.634455 295.759796 
L 366.598275 294.380285 
L 373.938939 288.042567 
L 374.175336 287.876694 
L 380.95061 281.373103 
L 383.243423 280.116554 
L 389.530553 274.869512 
L 392.547908 272.930935 
L 398.375077 268.36592 
L 401.852392 265.893972 
L 407.186302 261.862329 
L 411.156876 258.801893 
L 415.814811 255.358738 
L 420.461361 251.512734 
L 424.108164 248.855146 
L 420.461361 245.103794 
L 415.718008 248.855146 
L 411.156876 251.44758 
L 406.018081 255.358738 
L 401.852392 257.98861 
L 396.633612 261.862329 
L 392.547908 264.674789 
L 387.488544 268.36592 
L 383.243423 271.531358 
L 378.611778 274.869512 
L 373.938939 278.637761 
L 370.110357 281.373103 
L 364.634455 286.151782 
L 362.20479 287.876694 
L 355.32997 294.380285 
z
M 364.113753 287.876694 
L 364.634455 287.507028 
L 366.789709 287.876694 
L 364.634455 293.796713 
z
M 371.663336 281.373103 
L 373.938939 279.747292 
L 378.106481 281.373103 
L 373.938939 285.393924 
z
M 379.987659 274.869512 
L 383.243423 272.522993 
L 387.662893 274.869512 
L 383.243423 278.557863 
z
M 388.81841 268.36592 
L 392.547908 265.645012 
L 396.843391 268.36592 
L 392.547908 271.73101 
z
M 398.04307 261.862329 
L 401.852392 259.034802 
L 405.74575 261.862329 
L 401.852392 264.805129 
z
M 407.675237 255.358738 
L 411.156876 252.708848 
L 414.312723 255.358738 
L 411.156876 257.691546 
z
M 417.937085 248.855146 
L 420.461361 246.858785 
L 422.402084 248.855146 
L 420.461361 250.269438 
z
M 429.765845 243.858346 
L 431.852411 242.351555 
L 429.765845 239.284606 
L 426.142936 242.351555 
z
" clip-path="url(#p3804141653)" style="fill: #5da5d1"/>
    <path d="M 327.416518 321.065462 
L 328.359739 320.394651 
L 327.416518 319.629092 
L 326.421073 320.394651 
z
M 336.721002 315.076372 
L 338.395676 313.891059 
L 336.721002 312.312509 
L 334.780025 313.891059 
z
M 336.098397 313.891059 
L 336.721002 313.38471 
L 337.258185 313.891059 
L 336.721002 314.271271 
z
M 346.025486 308.610719 
L 347.759719 307.387468 
L 346.025486 305.264448 
L 343.673533 307.387468 
z
M 345.187126 307.387468 
L 346.025486 306.630712 
L 346.643658 307.387468 
L 346.025486 307.823499 
z
M 355.32997 301.719491 
L 356.517523 300.883877 
L 355.32997 298.262717 
L 353.117904 300.883877 
z
M 364.634455 293.796713 
L 366.789709 287.876694 
L 364.634455 287.507028 
L 364.113753 287.876694 
z
M 373.938939 285.393924 
L 378.106481 281.373103 
L 373.938939 279.747292 
L 371.663336 281.373103 
z
M 372.711805 281.373103 
L 373.938939 280.496373 
L 376.186314 281.373103 
L 373.938939 283.541357 
z
M 383.243423 278.557863 
L 387.662893 274.869512 
L 383.243423 272.522993 
L 379.987659 274.869512 
z
M 380.916562 274.869512 
L 383.243423 273.192479 
L 386.401973 274.869512 
L 383.243423 277.505539 
z
M 392.547908 271.73101 
L 396.843391 268.36592 
L 392.547908 265.645012 
L 388.81841 268.36592 
z
M 389.716248 268.36592 
L 392.547908 266.300042 
L 395.809298 268.36592 
L 392.547908 270.9209 
z
M 401.852392 264.805129 
L 405.74575 261.862329 
L 401.852392 259.034802 
L 398.04307 261.862329 
z
M 398.994642 261.862329 
L 401.852392 259.741121 
L 404.773186 261.862329 
L 401.852392 264.070015 
z
M 411.156876 257.691546 
L 414.312723 255.358738 
L 411.156876 252.708848 
L 407.675237 255.358738 
z
M 408.794039 255.358738 
L 411.156876 253.560372 
L 413.298612 255.358738 
L 411.156876 256.941914 
z
M 420.461361 250.269438 
L 422.402084 248.855146 
L 420.461361 246.858785 
L 417.937085 248.855146 
z
M 419.435259 248.855146 
L 420.461361 248.043639 
L 421.250252 248.855146 
L 420.461361 249.430047 
z
" clip-path="url(#p3804141653)" style="fill: #3989c1"/>
    <path d="M 336.721002 314.271271 
L 337.258185 313.891059 
L 336.721002 313.38471 
L 336.098397 313.891059 
z
M 346.025486 307.823499 
L 346.643658 307.387468 
L 346.025486 306.630712 
L 345.187126 307.387468 
z
M 373.938939 283.541357 
L 376.186314 281.373103 
L 373.938939 280.496373 
L 372.711805 281.373103 
z
M 373.429903 281.373103 
L 373.938939 281.009421 
L 374.871188 281.373103 
L 373.938939 282.272532 
z
M 383.243423 277.505539 
L 386.401973 274.869512 
L 383.243423 273.192479 
L 380.916562 274.869512 
z
M 381.552769 274.869512 
L 383.243423 273.65101 
L 385.538367 274.869512 
L 383.243423 276.7848 
z
M 392.547908 270.9209 
L 395.809298 268.36592 
L 392.547908 266.300042 
L 389.716248 268.36592 
z
M 390.331178 268.36592 
L 392.547908 266.748673 
L 395.101047 268.36592 
L 392.547908 270.366054 
z
M 401.852392 264.070015 
L 404.773186 261.862329 
L 401.852392 259.741121 
L 398.994642 261.862329 
z
M 399.646375 261.862329 
L 401.852392 260.22488 
L 404.107075 261.862329 
L 401.852392 263.566534 
z
M 411.156876 256.941914 
L 413.298612 255.358738 
L 411.156876 253.560372 
L 408.794039 255.358738 
z
M 409.560307 255.358738 
L 411.156876 254.143583 
L 412.604047 255.358738 
L 411.156876 256.428489 
z
M 420.461361 249.430047 
L 421.250252 248.855146 
L 420.461361 248.043639 
L 419.435259 248.855146 
z
" clip-path="url(#p3804141653)" style="fill: #2474b7"/>
    <path d="M 373.938939 282.272532 
L 374.871188 281.373103 
L 373.938939 281.009421 
L 373.429903 281.373103 
z
M 383.243423 276.7848 
L 385.538367 274.869512 
L 383.243423 273.65101 
L 381.552769 274.869512 
z
M 392.547908 270.366054 
L 395.101047 268.36592 
L 392.547908 266.748673 
L 390.331178 268.36592 
z
M 391.965292 268.36592 
L 392.547908 267.940864 
L 393.218941 268.36592 
L 392.547908 268.891609 
z
M 401.852392 263.566534 
L 404.107075 261.862329 
L 401.852392 260.22488 
L 399.646375 261.862329 
z
M 401.378289 261.862329 
L 401.852392 261.510419 
L 402.336954 261.862329 
L 401.852392 262.228585 
z
M 411.156876 256.428489 
L 412.604047 255.358738 
L 411.156876 254.143583 
L 409.560307 255.358738 
z
" clip-path="url(#p3804141653)" style="fill: #0c56a0"/>
    <path d="M 392.547908 268.891609 
L 393.218941 268.36592 
L 392.547908 267.940864 
L 391.965292 268.36592 
z
M 401.852392 262.228585 
L 402.336954 261.862329 
L 401.852392 261.510419 
L 401.378289 261.862329 
z
" clip-path="url(#p3804141653)" style="fill: #083776"/>
   </g>
   <g id="matplotlib.axis_1">
    <g id="xtick_1">
     <g id="line2d_1">
      <defs>
       <path id="m72fecdc838" d="M 0 0 
L 0 3.5 
" style="stroke: #000000; stroke-width: 0.8"/>
      </defs>
      <g>
       <use xlink:href="#m72fecdc838" x="102.17" y="499.48" style="stroke: #000000; stroke-width: 0.8"/>
      </g>
     </g>
     <g id="text_1">
      <!-- −80 -->
      <g transform="translate(78.954844 523.196563) scale(0.22 -0.22)">
       <defs>
        <path id="DejaVuSans-2212" d="M 678 2272 
L 4684 2272 
L 4684 1741 
L 678 1741 
L 678 2272 
z
" transform="scale(0.015625)"/>
        <path id="DejaVuSans-38" d="M 2034 2216 
Q 1584 2216 1326 1975 
Q 1069 1734 1069 1313 
Q 1069 891 1326 650 
Q 1584 409 2034 409 
Q 2484 409 2743 651 
Q 3003 894 3003 1313 
Q 3003 1734 2745 1975 
Q 2488 2216 2034 2216 
z
M 1403 2484 
Q 997 2584 770 2862 
Q 544 3141 544 3541 
Q 544 4100 942 4425 
Q 1341 4750 2034 4750 
Q 2731 4750 3128 4425 
Q 3525 4100 3525 3541 
Q 3525 3141 3298 2862 
Q 3072 2584 2669 2484 
Q 3125 2378 3379 2068 
Q 3634 1759 3634 1313 
Q 3634 634 3220 271 
Q 2806 -91 2034 -91 
Q 1263 -91 848 271 
Q 434 634 434 1313 
Q 434 1759 690 2068 
Q 947 2378 1403 2484 
z
M 1172 3481 
Q 1172 3119 1398 2916 
Q 1625 2713 2034 2713 
Q 2441 2713 2670 2916 
Q 2900 3119 2900 3481 
Q 2900 3844 2670 4047 
Q 2441 4250 2034 4250 
Q 1625 4250 1398 4047 
Q 1172 3844 1172 3481 
z
" transform="scale(0.015625)"/>
        <path id="DejaVuSans-30" d="M 2034 4250 
Q 1547 4250 1301 3770 
Q 1056 3291 1056 2328 
Q 1056 1369 1301 889 
Q 1547 409 2034 409 
Q 2525 409 2770 889 
Q 3016 1369 3016 2328 
Q 3016 3291 2770 3770 
Q 2525 4250 2034 4250 
z
M 2034 4750 
Q 2819 4750 3233 4129 
Q 3647 3509 3647 2328 
Q 3647 1150 3233 529 
Q 2819 -91 2034 -91 
Q 1250 -91 836 529 
Q 422 1150 422 2328 
Q 422 3509 836 4129 
Q 1250 4750 2034 4750 
z
" transform="scale(0.015625)"/>
       </defs>
       <use xlink:href="#DejaVuSans-2212"/>
       <use xlink:href="#DejaVuSans-38" x="83.789062"/>
       <use xlink:href="#DejaVuSans-30" x="147.412109"/>
      </g>
     </g>
    </g>
    <g id="xtick_2">
     <g id="line2d_2">
      <g>
       <use xlink:href="#m72fecdc838" x="174.67375" y="499.48" style="stroke: #000000; stroke-width: 0.8"/>
      </g>
     </g>
     <g id="text_2">
      <!-- −60 -->
      <g transform="translate(151.458594 523.196563) scale(0.22 -0.22)">
       <defs>
        <path id="DejaVuSans-36" d="M 2113 2584 
Q 1688 2584 1439 2293 
Q 1191 2003 1191 1497 
Q 1191 994 1439 701 
Q 1688 409 2113 409 
Q 2538 409 2786 701 
Q 3034 994 3034 1497 
Q 3034 2003 2786 2293 
Q 2538 2584 2113 2584 
z
M 3366 4563 
L 3366 3988 
Q 3128 4100 2886 4159 
Q 2644 4219 2406 4219 
Q 1781 4219 1451 3797 
Q 1122 3375 1075 2522 
Q 1259 2794 1537 2939 
Q 1816 3084 2150 3084 
Q 2853 3084 3261 2657 
Q 3669 2231 3669 1497 
Q 3669 778 3244 343 
Q 2819 -91 2113 -91 
Q 1303 -91 875 529 
Q 447 1150 447 2328 
Q 447 3434 972 4092 
Q 1497 4750 2381 4750 
Q 2619 4750 2861 4703 
Q 3103 4656 3366 4563 
z
" transform="scale(0.015625)"/>
       </defs>
       <use xlink:href="#DejaVuSans-2212"/>
       <use xlink:href="#DejaVuSans-36" x="83.789062"/>
       <use xlink:href="#DejaVuSans-30" x="147.412109"/>
      </g>
     </g>
    </g>
    <g id="xtick_3">
     <g id="line2d_3">
      <g>
       <use xlink:href="#m72fecdc838" x="247.1775" y="499.48" style="stroke: #000000; stroke-width: 0.8"/>
      </g>
     </g>
     <g id="text_3">
      <!-- −40 -->
      <g transform="translate(223.962344 523.196563) scale(0.22 -0.22)">
       <defs>
        <path id="DejaVuSans-34" d="M 2419 4116 
L 825 1625 
L 2419 1625 
L 2419 4116 
z
M 2253 4666 
L 3047 4666 
L 3047 1625 
L 3713 1625 
L 3713 1100 
L 3047 1100 
L 3047 0 
L 2419 0 
L 2419 1100 
L 313 1100 
L 313 1709 
L 2253 4666 
z
" transform="scale(0.015625)"/>
       </defs>
       <use xlink:href="#DejaVuSans-2212"/>
       <use xlink:href="#DejaVuSans-34" x="83.789062"/>
       <use xlink:href="#DejaVuSans-30" x="147.412109"/>
      </g>
     </g>
    </g>
    <g id="xtick_4">
     <g id="line2d_4">
      <g>
       <use xlink:href="#m72fecdc838" x="319.68125" y="499.48" style="stroke: #000000; stroke-width: 0.8"/>
      </g>
     </g>
     <g id="text_4">
      <!-- −20 -->
      <g transform="translate(296.466094 523.196563) scale(0.22 -0.22)">
       <defs>
        <path id="DejaVuSans-32" d="M 1228 531 
L 3431 531 
L 3431 0 
L 469 0 
L 469 531 
Q 828 903 1448 1529 
Q 2069 2156 2228 2338 
Q 2531 2678 2651 2914 
Q 2772 3150 2772 3378 
Q 2772 3750 2511 3984 
Q 2250 4219 1831 4219 
Q 1534 4219 1204 4116 
Q 875 4013 500 3803 
L 500 4441 
Q 881 4594 1212 4672 
Q 1544 4750 1819 4750 
Q 2544 4750 2975 4387 
Q 3406 4025 3406 3419 
Q 3406 3131 3298 2873 
Q 3191 2616 2906 2266 
Q 2828 2175 2409 1742 
Q 1991 1309 1228 531 
z
" transform="scale(0.015625)"/>
       </defs>
       <use xlink:href="#DejaVuSans-2212"/>
       <use xlink:href="#DejaVuSans-32" x="83.789062"/>
       <use xlink:href="#DejaVuSans-30" x="147.412109"/>
      </g>
     </g>
    </g>
    <g id="xtick_5">
     <g id="line2d_5">
      <g>
       <use xlink:href="#m72fecdc838" x="392.185" y="499.48" style="stroke: #000000; stroke-width: 0.8"/>
      </g>
     </g>
     <g id="text_5">
      <!-- 0 -->
      <g transform="translate(385.18625 523.196563) scale(0.22 -0.22)">
       <use xlink:href="#DejaVuSans-30"/>
      </g>
     </g>
    </g>
    <g id="xtick_6">
     <g id="line2d_6">
      <g>
       <use xlink:href="#m72fecdc838" x="464.68875" y="499.48" style="stroke: #000000; stroke-width: 0.8"/>
      </g>
     </g>
     <g id="text_6">
      <!-- 20 -->
      <g transform="translate(450.69125 523.196563) scale(0.22 -0.22)">
       <use xlink:href="#DejaVuSans-32"/>
       <use xlink:href="#DejaVuSans-30" x="63.623047"/>
      </g>
     </g>
    </g>
    <g id="xtick_7">
     <g id="line2d_7">
      <g>
       <use xlink:href="#m72fecdc838" x="537.1925" y="499.48" style="stroke: #000000; stroke-width: 0.8"/>
      </g>
     </g>
     <g id="text_7">
      <!-- 40 -->
      <g transform="translate(523.195 523.196563) scale(0.22 -0.22)">
       <use xlink:href="#DejaVuSans-34"/>
       <use xlink:href="#DejaVuSans-30" x="63.623047"/>
      </g>
     </g>
    </g>
    <g id="xtick_8">
     <g id="line2d_8">
      <g>
       <use xlink:href="#m72fecdc838" x="609.69625" y="499.48" style="stroke: #000000; stroke-width: 0.8"/>
      </g>
     </g>
     <g id="text_8">
      <!-- 60 -->
      <g transform="translate(595.69875 523.196563) scale(0.22 -0.22)">
       <use xlink:href="#DejaVuSans-36"/>
       <use xlink:href="#DejaVuSans-30" x="63.623047"/>
      </g>
     </g>
    </g>
    <g id="xtick_9">
     <g id="line2d_9">
      <g>
       <use xlink:href="#m72fecdc838" x="682.2" y="499.48" style="stroke: #000000; stroke-width: 0.8"/>
      </g>
     </g>
     <g id="text_9">
      <!-- 80 -->
      <g transform="translate(668.2025 523.196563) scale(0.22 -0.22)">
       <use xlink:href="#DejaVuSans-38"/>
       <use xlink:href="#DejaVuSans-30" x="63.623047"/>
      </g>
     </g>
    </g>
    <g id="text_10">
     <!-- Ground Truth Energy [kJ/mol] -->
     <g transform="translate(232.45125 548.488438) scale(0.22 -0.22)">
      <defs>
       <path id="DejaVuSans-47" d="M 3809 666 
L 3809 1919 
L 2778 1919 
L 2778 2438 
L 4434 2438 
L 4434 434 
Q 4069 175 3628 42 
Q 3188 -91 2688 -91 
Q 1594 -91 976 548 
Q 359 1188 359 2328 
Q 359 3472 976 4111 
Q 1594 4750 2688 4750 
Q 3144 4750 3555 4637 
Q 3966 4525 4313 4306 
L 4313 3634 
Q 3963 3931 3569 4081 
Q 3175 4231 2741 4231 
Q 1884 4231 1454 3753 
Q 1025 3275 1025 2328 
Q 1025 1384 1454 906 
Q 1884 428 2741 428 
Q 3075 428 3337 486 
Q 3600 544 3809 666 
z
" transform="scale(0.015625)"/>
       <path id="DejaVuSans-72" d="M 2631 2963 
Q 2534 3019 2420 3045 
Q 2306 3072 2169 3072 
Q 1681 3072 1420 2755 
Q 1159 2438 1159 1844 
L 1159 0 
L 581 0 
L 581 3500 
L 1159 3500 
L 1159 2956 
Q 1341 3275 1631 3429 
Q 1922 3584 2338 3584 
Q 2397 3584 2469 3576 
Q 2541 3569 2628 3553 
L 2631 2963 
z
" transform="scale(0.015625)"/>
       <path id="DejaVuSans-6f" d="M 1959 3097 
Q 1497 3097 1228 2736 
Q 959 2375 959 1747 
Q 959 1119 1226 758 
Q 1494 397 1959 397 
Q 2419 397 2687 759 
Q 2956 1122 2956 1747 
Q 2956 2369 2687 2733 
Q 2419 3097 1959 3097 
z
M 1959 3584 
Q 2709 3584 3137 3096 
Q 3566 2609 3566 1747 
Q 3566 888 3137 398 
Q 2709 -91 1959 -91 
Q 1206 -91 779 398 
Q 353 888 353 1747 
Q 353 2609 779 3096 
Q 1206 3584 1959 3584 
z
" transform="scale(0.015625)"/>
       <path id="DejaVuSans-75" d="M 544 1381 
L 544 3500 
L 1119 3500 
L 1119 1403 
Q 1119 906 1312 657 
Q 1506 409 1894 409 
Q 2359 409 2629 706 
Q 2900 1003 2900 1516 
L 2900 3500 
L 3475 3500 
L 3475 0 
L 2900 0 
L 2900 538 
Q 2691 219 2414 64 
Q 2138 -91 1772 -91 
Q 1169 -91 856 284 
Q 544 659 544 1381 
z
M 1991 3584 
L 1991 3584 
z
" transform="scale(0.015625)"/>
       <path id="DejaVuSans-6e" d="M 3513 2113 
L 3513 0 
L 2938 0 
L 2938 2094 
Q 2938 2591 2744 2837 
Q 2550 3084 2163 3084 
Q 1697 3084 1428 2787 
Q 1159 2491 1159 1978 
L 1159 0 
L 581 0 
L 581 3500 
L 1159 3500 
L 1159 2956 
Q 1366 3272 1645 3428 
Q 1925 3584 2291 3584 
Q 2894 3584 3203 3211 
Q 3513 2838 3513 2113 
z
" transform="scale(0.015625)"/>
       <path id="DejaVuSans-64" d="M 2906 2969 
L 2906 4863 
L 3481 4863 
L 3481 0 
L 2906 0 
L 2906 525 
Q 2725 213 2448 61 
Q 2172 -91 1784 -91 
Q 1150 -91 751 415 
Q 353 922 353 1747 
Q 353 2572 751 3078 
Q 1150 3584 1784 3584 
Q 2172 3584 2448 3432 
Q 2725 3281 2906 2969 
z
M 947 1747 
Q 947 1113 1208 752 
Q 1469 391 1925 391 
Q 2381 391 2643 752 
Q 2906 1113 2906 1747 
Q 2906 2381 2643 2742 
Q 2381 3103 1925 3103 
Q 1469 3103 1208 2742 
Q 947 2381 947 1747 
z
" transform="scale(0.015625)"/>
       <path id="DejaVuSans-20" transform="scale(0.015625)"/>
       <path id="DejaVuSans-54" d="M -19 4666 
L 3928 4666 
L 3928 4134 
L 2272 4134 
L 2272 0 
L 1638 0 
L 1638 4134 
L -19 4134 
L -19 4666 
z
" transform="scale(0.015625)"/>
       <path id="DejaVuSans-74" d="M 1172 4494 
L 1172 3500 
L 2356 3500 
L 2356 3053 
L 1172 3053 
L 1172 1153 
Q 1172 725 1289 603 
Q 1406 481 1766 481 
L 2356 481 
L 2356 0 
L 1766 0 
Q 1100 0 847 248 
Q 594 497 594 1153 
L 594 3053 
L 172 3053 
L 172 3500 
L 594 3500 
L 594 4494 
L 1172 4494 
z
" transform="scale(0.015625)"/>
       <path id="DejaVuSans-68" d="M 3513 2113 
L 3513 0 
L 2938 0 
L 2938 2094 
Q 2938 2591 2744 2837 
Q 2550 3084 2163 3084 
Q 1697 3084 1428 2787 
Q 1159 2491 1159 1978 
L 1159 0 
L 581 0 
L 581 4863 
L 1159 4863 
L 1159 2956 
Q 1366 3272 1645 3428 
Q 1925 3584 2291 3584 
Q 2894 3584 3203 3211 
Q 3513 2838 3513 2113 
z
" transform="scale(0.015625)"/>
       <path id="DejaVuSans-45" d="M 628 4666 
L 3578 4666 
L 3578 4134 
L 1259 4134 
L 1259 2753 
L 3481 2753 
L 3481 2222 
L 1259 2222 
L 1259 531 
L 3634 531 
L 3634 0 
L 628 0 
L 628 4666 
z
" transform="scale(0.015625)"/>
       <path id="DejaVuSans-65" d="M 3597 1894 
L 3597 1613 
L 953 1613 
Q 991 1019 1311 708 
Q 1631 397 2203 397 
Q 2534 397 2845 478 
Q 3156 559 3463 722 
L 3463 178 
Q 3153 47 2828 -22 
Q 2503 -91 2169 -91 
Q 1331 -91 842 396 
Q 353 884 353 1716 
Q 353 2575 817 3079 
Q 1281 3584 2069 3584 
Q 2775 3584 3186 3129 
Q 3597 2675 3597 1894 
z
M 3022 2063 
Q 3016 2534 2758 2815 
Q 2500 3097 2075 3097 
Q 1594 3097 1305 2825 
Q 1016 2553 972 2059 
L 3022 2063 
z
" transform="scale(0.015625)"/>
       <path id="DejaVuSans-67" d="M 2906 1791 
Q 2906 2416 2648 2759 
Q 2391 3103 1925 3103 
Q 1463 3103 1205 2759 
Q 947 2416 947 1791 
Q 947 1169 1205 825 
Q 1463 481 1925 481 
Q 2391 481 2648 825 
Q 2906 1169 2906 1791 
z
M 3481 434 
Q 3481 -459 3084 -895 
Q 2688 -1331 1869 -1331 
Q 1566 -1331 1297 -1286 
Q 1028 -1241 775 -1147 
L 775 -588 
Q 1028 -725 1275 -790 
Q 1522 -856 1778 -856 
Q 2344 -856 2625 -561 
Q 2906 -266 2906 331 
L 2906 616 
Q 2728 306 2450 153 
Q 2172 0 1784 0 
Q 1141 0 747 490 
Q 353 981 353 1791 
Q 353 2603 747 3093 
Q 1141 3584 1784 3584 
Q 2172 3584 2450 3431 
Q 2728 3278 2906 2969 
L 2906 3500 
L 3481 3500 
L 3481 434 
z
" transform="scale(0.015625)"/>
       <path id="DejaVuSans-79" d="M 2059 -325 
Q 1816 -950 1584 -1140 
Q 1353 -1331 966 -1331 
L 506 -1331 
L 506 -850 
L 844 -850 
Q 1081 -850 1212 -737 
Q 1344 -625 1503 -206 
L 1606 56 
L 191 3500 
L 800 3500 
L 1894 763 
L 2988 3500 
L 3597 3500 
L 2059 -325 
z
" transform="scale(0.015625)"/>
       <path id="DejaVuSans-5b" d="M 550 4863 
L 1875 4863 
L 1875 4416 
L 1125 4416 
L 1125 -397 
L 1875 -397 
L 1875 -844 
L 550 -844 
L 550 4863 
z
" transform="scale(0.015625)"/>
       <path id="DejaVuSans-6b" d="M 581 4863 
L 1159 4863 
L 1159 1991 
L 2875 3500 
L 3609 3500 
L 1753 1863 
L 3688 0 
L 2938 0 
L 1159 1709 
L 1159 0 
L 581 0 
L 581 4863 
z
" transform="scale(0.015625)"/>
       <path id="DejaVuSans-4a" d="M 628 4666 
L 1259 4666 
L 1259 325 
Q 1259 -519 939 -900 
Q 619 -1281 -91 -1281 
L -331 -1281 
L -331 -750 
L -134 -750 
Q 284 -750 456 -515 
Q 628 -281 628 325 
L 628 4666 
z
" transform="scale(0.015625)"/>
       <path id="DejaVuSans-2f" d="M 1625 4666 
L 2156 4666 
L 531 -594 
L 0 -594 
L 1625 4666 
z
" transform="scale(0.015625)"/>
       <path id="DejaVuSans-6d" d="M 3328 2828 
Q 3544 3216 3844 3400 
Q 4144 3584 4550 3584 
Q 5097 3584 5394 3201 
Q 5691 2819 5691 2113 
L 5691 0 
L 5113 0 
L 5113 2094 
Q 5113 2597 4934 2840 
Q 4756 3084 4391 3084 
Q 3944 3084 3684 2787 
Q 3425 2491 3425 1978 
L 3425 0 
L 2847 0 
L 2847 2094 
Q 2847 2600 2669 2842 
Q 2491 3084 2119 3084 
Q 1678 3084 1418 2786 
Q 1159 2488 1159 1978 
L 1159 0 
L 581 0 
L 581 3500 
L 1159 3500 
L 1159 2956 
Q 1356 3278 1631 3431 
Q 1906 3584 2284 3584 
Q 2666 3584 2933 3390 
Q 3200 3197 3328 2828 
z
" transform="scale(0.015625)"/>
       <path id="DejaVuSans-6c" d="M 603 4863 
L 1178 4863 
L 1178 0 
L 603 0 
L 603 4863 
z
" transform="scale(0.015625)"/>
       <path id="DejaVuSans-5d" d="M 1947 4863 
L 1947 -844 
L 622 -844 
L 622 -397 
L 1369 -397 
L 1369 4416 
L 622 4416 
L 622 4863 
L 1947 4863 
z
" transform="scale(0.015625)"/>
      </defs>
      <use xlink:href="#DejaVuSans-47"/>
      <use xlink:href="#DejaVuSans-72" x="77.490234"/>
      <use xlink:href="#DejaVuSans-6f" x="116.353516"/>
      <use xlink:href="#DejaVuSans-75" x="177.535156"/>
      <use xlink:href="#DejaVuSans-6e" x="240.914062"/>
      <use xlink:href="#DejaVuSans-64" x="304.292969"/>
      <use xlink:href="#DejaVuSans-20" x="367.769531"/>
      <use xlink:href="#DejaVuSans-54" x="399.556641"/>
      <use xlink:href="#DejaVuSans-72" x="445.890625"/>
      <use xlink:href="#DejaVuSans-75" x="487.003906"/>
      <use xlink:href="#DejaVuSans-74" x="550.382812"/>
      <use xlink:href="#DejaVuSans-68" x="589.591797"/>
      <use xlink:href="#DejaVuSans-20" x="652.970703"/>
      <use xlink:href="#DejaVuSans-45" x="684.757812"/>
      <use xlink:href="#DejaVuSans-6e" x="747.941406"/>
      <use xlink:href="#DejaVuSans-65" x="811.320312"/>
      <use xlink:href="#DejaVuSans-72" x="872.84375"/>
      <use xlink:href="#DejaVuSans-67" x="912.207031"/>
      <use xlink:href="#DejaVuSans-79" x="975.683594"/>
      <use xlink:href="#DejaVuSans-20" x="1034.863281"/>
      <use xlink:href="#DejaVuSans-5b" x="1066.650391"/>
      <use xlink:href="#DejaVuSans-6b" x="1105.664062"/>
      <use xlink:href="#DejaVuSans-4a" x="1163.574219"/>
      <use xlink:href="#DejaVuSans-2f" x="1193.066406"/>
      <use xlink:href="#DejaVuSans-6d" x="1226.757812"/>
      <use xlink:href="#DejaVuSans-6f" x="1324.169922"/>
      <use xlink:href="#DejaVuSans-6c" x="1385.351562"/>
      <use xlink:href="#DejaVuSans-5d" x="1413.134766"/>
     </g>
    </g>
   </g>
   <g id="matplotlib.axis_2">
    <g id="ytick_1">
     <g id="line2d_10">
      <defs>
       <path id="m8edb6654cd" d="M 0 0 
L -3.5 0 
" style="stroke: #000000; stroke-width: 0.8"/>
      </defs>
      <g>
       <use xlink:href="#m8edb6654cd" x="102.17" y="499.48" style="stroke: #000000; stroke-width: 0.8"/>
      </g>
     </g>
     <g id="text_11">
      <!-- −80 -->
      <g transform="translate(48.739688 507.838281) scale(0.22 -0.22)">
       <use xlink:href="#DejaVuSans-2212"/>
       <use xlink:href="#DejaVuSans-38" x="83.789062"/>
       <use xlink:href="#DejaVuSans-30" x="147.412109"/>
      </g>
     </g>
    </g>
    <g id="ytick_2">
     <g id="line2d_11">
      <g>
       <use xlink:href="#m8edb6654cd" x="102.17" y="441.05" style="stroke: #000000; stroke-width: 0.8"/>
      </g>
     </g>
     <g id="text_12">
      <!-- −60 -->
      <g transform="translate(48.739688 449.408281) scale(0.22 -0.22)">
       <use xlink:href="#DejaVuSans-2212"/>
       <use xlink:href="#DejaVuSans-36" x="83.789062"/>
       <use xlink:href="#DejaVuSans-30" x="147.412109"/>
      </g>
     </g>
    </g>
    <g id="ytick_3">
     <g id="line2d_12">
      <g>
       <use xlink:href="#m8edb6654cd" x="102.17" y="382.62" style="stroke: #000000; stroke-width: 0.8"/>
      </g>
     </g>
     <g id="text_13">
      <!-- −40 -->
      <g transform="translate(48.739688 390.978281) scale(0.22 -0.22)">
       <use xlink:href="#DejaVuSans-2212"/>
       <use xlink:href="#DejaVuSans-34" x="83.789062"/>
       <use xlink:href="#DejaVuSans-30" x="147.412109"/>
      </g>
     </g>
    </g>
    <g id="ytick_4">
     <g id="line2d_13">
      <g>
       <use xlink:href="#m8edb6654cd" x="102.17" y="324.19" style="stroke: #000000; stroke-width: 0.8"/>
      </g>
     </g>
     <g id="text_14">
      <!-- −20 -->
      <g transform="translate(48.739688 332.548281) scale(0.22 -0.22)">
       <use xlink:href="#DejaVuSans-2212"/>
       <use xlink:href="#DejaVuSans-32" x="83.789062"/>
       <use xlink:href="#DejaVuSans-30" x="147.412109"/>
      </g>
     </g>
    </g>
    <g id="ytick_5">
     <g id="line2d_14">
      <g>
       <use xlink:href="#m8edb6654cd" x="102.17" y="265.76" style="stroke: #000000; stroke-width: 0.8"/>
      </g>
     </g>
     <g id="text_15">
      <!-- 0 -->
      <g transform="translate(81.1725 274.118281) scale(0.22 -0.22)">
       <use xlink:href="#DejaVuSans-30"/>
      </g>
     </g>
    </g>
    <g id="ytick_6">
     <g id="line2d_15">
      <g>
       <use xlink:href="#m8edb6654cd" x="102.17" y="207.33" style="stroke: #000000; stroke-width: 0.8"/>
      </g>
     </g>
     <g id="text_16">
      <!-- 20 -->
      <g transform="translate(67.175 215.688281) scale(0.22 -0.22)">
       <use xlink:href="#DejaVuSans-32"/>
       <use xlink:href="#DejaVuSans-30" x="63.623047"/>
      </g>
     </g>
    </g>
    <g id="ytick_7">
     <g id="line2d_16">
      <g>
       <use xlink:href="#m8edb6654cd" x="102.17" y="148.9" style="stroke: #000000; stroke-width: 0.8"/>
      </g>
     </g>
     <g id="text_17">
      <!-- 40 -->
      <g transform="translate(67.175 157.258281) scale(0.22 -0.22)">
       <use xlink:href="#DejaVuSans-34"/>
       <use xlink:href="#DejaVuSans-30" x="63.623047"/>
      </g>
     </g>
    </g>
    <g id="ytick_8">
     <g id="line2d_17">
      <g>
       <use xlink:href="#m8edb6654cd" x="102.17" y="90.47" style="stroke: #000000; stroke-width: 0.8"/>
      </g>
     </g>
     <g id="text_18">
      <!-- 60 -->
      <g transform="translate(67.175 98.828281) scale(0.22 -0.22)">
       <use xlink:href="#DejaVuSans-36"/>
       <use xlink:href="#DejaVuSans-30" x="63.623047"/>
      </g>
     </g>
    </g>
    <g id="ytick_9">
     <g id="line2d_18">
      <g>
       <use xlink:href="#m8edb6654cd" x="102.17" y="32.04" style="stroke: #000000; stroke-width: 0.8"/>
      </g>
     </g>
     <g id="text_19">
      <!-- 80 -->
      <g transform="translate(67.175 40.398281) scale(0.22 -0.22)">
       <use xlink:href="#DejaVuSans-38"/>
       <use xlink:href="#DejaVuSans-30" x="63.623047"/>
      </g>
     </g>
    </g>
    <g id="text_20">
     <!-- Predicted Energy [kJ/mol] -->
     <g transform="translate(40.164375 405.305313) rotate(-90) scale(0.22 -0.22)">
      <defs>
       <path id="DejaVuSans-50" d="M 1259 4147 
L 1259 2394 
L 2053 2394 
Q 2494 2394 2734 2622 
Q 2975 2850 2975 3272 
Q 2975 3691 2734 3919 
Q 2494 4147 2053 4147 
L 1259 4147 
z
M 628 4666 
L 2053 4666 
Q 2838 4666 3239 4311 
Q 3641 3956 3641 3272 
Q 3641 2581 3239 2228 
Q 2838 1875 2053 1875 
L 1259 1875 
L 1259 0 
L 628 0 
L 628 4666 
z
" transform="scale(0.015625)"/>
       <path id="DejaVuSans-69" d="M 603 3500 
L 1178 3500 
L 1178 0 
L 603 0 
L 603 3500 
z
M 603 4863 
L 1178 4863 
L 1178 4134 
L 603 4134 
L 603 4863 
z
" transform="scale(0.015625)"/>
       <path id="DejaVuSans-63" d="M 3122 3366 
L 3122 2828 
Q 2878 2963 2633 3030 
Q 2388 3097 2138 3097 
Q 1578 3097 1268 2742 
Q 959 2388 959 1747 
Q 959 1106 1268 751 
Q 1578 397 2138 397 
Q 2388 397 2633 464 
Q 2878 531 3122 666 
L 3122 134 
Q 2881 22 2623 -34 
Q 2366 -91 2075 -91 
Q 1284 -91 818 406 
Q 353 903 353 1747 
Q 353 2603 823 3093 
Q 1294 3584 2113 3584 
Q 2378 3584 2631 3529 
Q 2884 3475 3122 3366 
z
" transform="scale(0.015625)"/>
      </defs>
      <use xlink:href="#DejaVuSans-50"/>
      <use xlink:href="#DejaVuSans-72" x="58.552734"/>
      <use xlink:href="#DejaVuSans-65" x="97.416016"/>
      <use xlink:href="#DejaVuSans-64" x="158.939453"/>
      <use xlink:href="#DejaVuSans-69" x="222.416016"/>
      <use xlink:href="#DejaVuSans-63" x="250.199219"/>
      <use xlink:href="#DejaVuSans-74" x="305.179688"/>
      <use xlink:href="#DejaVuSans-65" x="344.388672"/>
      <use xlink:href="#DejaVuSans-64" x="405.912109"/>
      <use xlink:href="#DejaVuSans-20" x="469.388672"/>
      <use xlink:href="#DejaVuSans-45" x="501.175781"/>
      <use xlink:href="#DejaVuSans-6e" x="564.359375"/>
      <use xlink:href="#DejaVuSans-65" x="627.738281"/>
      <use xlink:href="#DejaVuSans-72" x="689.261719"/>
      <use xlink:href="#DejaVuSans-67" x="728.625"/>
      <use xlink:href="#DejaVuSans-79" x="792.101562"/>
      <use xlink:href="#DejaVuSans-20" x="851.28125"/>
      <use xlink:href="#DejaVuSans-5b" x="883.068359"/>
      <use xlink:href="#DejaVuSans-6b" x="922.082031"/>
      <use xlink:href="#DejaVuSans-4a" x="979.992188"/>
      <use xlink:href="#DejaVuSans-2f" x="1009.484375"/>
      <use xlink:href="#DejaVuSans-6d" x="1043.175781"/>
      <use xlink:href="#DejaVuSans-6f" x="1140.587891"/>
      <use xlink:href="#DejaVuSans-6c" x="1201.769531"/>
      <use xlink:href="#DejaVuSans-5d" x="1229.552734"/>
     </g>
    </g>
   </g>
   <g id="line2d_19">
    <path d="M 102.17 499.48 
L 682.2 32.04 
" clip-path="url(#p3804141653)" style="fill: none; stroke-dasharray: 5.55,2.4; stroke-dashoffset: 0; stroke: #ff0000; stroke-width: 1.5"/>
   </g>
   <g id="patch_3">
    <path d="M 102.17 499.48 
L 102.17 32.04 
" style="fill: none; stroke: #000000; stroke-width: 0.8; stroke-linejoin: miter; stroke-linecap: square"/>
   </g>
   <g id="patch_4">
    <path d="M 682.2 499.48 
L 682.2 32.04 
" style="fill: none; stroke: #000000; stroke-width: 0.8; stroke-linejoin: miter; stroke-linecap: square"/>
   </g>
   <g id="patch_5">
    <path d="M 102.17 499.48 
L 682.2 499.48 
" style="fill: none; stroke: #000000; stroke-width: 0.8; stroke-linejoin: miter; stroke-linecap: square"/>
   </g>
   <g id="patch_6">
    <path d="M 102.17 32.04 
L 682.2 32.04 
" style="fill: none; stroke: #000000; stroke-width: 0.8; stroke-linejoin: miter; stroke-linecap: square"/>
   </g>
   <g id="text_21">
    <!-- R2 Score: 0.979 -->
    <g transform="translate(160.173 78.784) scale(0.22 -0.22)">
     <defs>
      <path id="DejaVuSans-52" d="M 2841 2188 
Q 3044 2119 3236 1894 
Q 3428 1669 3622 1275 
L 4263 0 
L 3584 0 
L 2988 1197 
Q 2756 1666 2539 1819 
Q 2322 1972 1947 1972 
L 1259 1972 
L 1259 0 
L 628 0 
L 628 4666 
L 2053 4666 
Q 2853 4666 3247 4331 
Q 3641 3997 3641 3322 
Q 3641 2881 3436 2590 
Q 3231 2300 2841 2188 
z
M 1259 4147 
L 1259 2491 
L 2053 2491 
Q 2509 2491 2742 2702 
Q 2975 2913 2975 3322 
Q 2975 3731 2742 3939 
Q 2509 4147 2053 4147 
L 1259 4147 
z
" transform="scale(0.015625)"/>
      <path id="DejaVuSans-53" d="M 3425 4513 
L 3425 3897 
Q 3066 4069 2747 4153 
Q 2428 4238 2131 4238 
Q 1616 4238 1336 4038 
Q 1056 3838 1056 3469 
Q 1056 3159 1242 3001 
Q 1428 2844 1947 2747 
L 2328 2669 
Q 3034 2534 3370 2195 
Q 3706 1856 3706 1288 
Q 3706 609 3251 259 
Q 2797 -91 1919 -91 
Q 1588 -91 1214 -16 
Q 841 59 441 206 
L 441 856 
Q 825 641 1194 531 
Q 1563 422 1919 422 
Q 2459 422 2753 634 
Q 3047 847 3047 1241 
Q 3047 1584 2836 1778 
Q 2625 1972 2144 2069 
L 1759 2144 
Q 1053 2284 737 2584 
Q 422 2884 422 3419 
Q 422 4038 858 4394 
Q 1294 4750 2059 4750 
Q 2388 4750 2728 4690 
Q 3069 4631 3425 4513 
z
" transform="scale(0.015625)"/>
      <path id="DejaVuSans-3a" d="M 750 794 
L 1409 794 
L 1409 0 
L 750 0 
L 750 794 
z
M 750 3309 
L 1409 3309 
L 1409 2516 
L 750 2516 
L 750 3309 
z
" transform="scale(0.015625)"/>
      <path id="DejaVuSans-2e" d="M 684 794 
L 1344 794 
L 1344 0 
L 684 0 
L 684 794 
z
" transform="scale(0.015625)"/>
      <path id="DejaVuSans-39" d="M 703 97 
L 703 672 
Q 941 559 1184 500 
Q 1428 441 1663 441 
Q 2288 441 2617 861 
Q 2947 1281 2994 2138 
Q 2813 1869 2534 1725 
Q 2256 1581 1919 1581 
Q 1219 1581 811 2004 
Q 403 2428 403 3163 
Q 403 3881 828 4315 
Q 1253 4750 1959 4750 
Q 2769 4750 3195 4129 
Q 3622 3509 3622 2328 
Q 3622 1225 3098 567 
Q 2575 -91 1691 -91 
Q 1453 -91 1209 -44 
Q 966 3 703 97 
z
M 1959 2075 
Q 2384 2075 2632 2365 
Q 2881 2656 2881 3163 
Q 2881 3666 2632 3958 
Q 2384 4250 1959 4250 
Q 1534 4250 1286 3958 
Q 1038 3666 1038 3163 
Q 1038 2656 1286 2365 
Q 1534 2075 1959 2075 
z
" transform="scale(0.015625)"/>
      <path id="DejaVuSans-37" d="M 525 4666 
L 3525 4666 
L 3525 4397 
L 1831 0 
L 1172 0 
L 2766 4134 
L 525 4134 
L 525 4666 
z
" transform="scale(0.015625)"/>
     </defs>
     <use xlink:href="#DejaVuSans-52"/>
     <use xlink:href="#DejaVuSans-32" x="69.482422"/>
     <use xlink:href="#DejaVuSans-20" x="133.105469"/>
     <use xlink:href="#DejaVuSans-53" x="164.892578"/>
     <use xlink:href="#DejaVuSans-63" x="228.369141"/>
     <use xlink:href="#DejaVuSans-6f" x="283.349609"/>
     <use xlink:href="#DejaVuSans-72" x="344.53125"/>
     <use xlink:href="#DejaVuSans-65" x="383.394531"/>
     <use xlink:href="#DejaVuSans-3a" x="444.917969"/>
     <use xlink:href="#DejaVuSans-20" x="478.609375"/>
     <use xlink:href="#DejaVuSans-30" x="510.396484"/>
     <use xlink:href="#DejaVuSans-2e" x="574.019531"/>
     <use xlink:href="#DejaVuSans-39" x="605.806641"/>
     <use xlink:href="#DejaVuSans-37" x="669.429688"/>
     <use xlink:href="#DejaVuSans-39" x="733.052734"/>
    </g>
   </g>
  </g>
 </g>
 <defs>
  <clipPath id="p3804141653">
   <rect x="102.17" y="32.04" width="580.03" height="467.44"/>
  </clipPath>
 </defs>
</svg>
