<?xml version="1.0" encoding="utf-8" standalone="no"?>
<!DOCTYPE svg PUBLIC "-//W3C//DTD SVG 1.1//EN"
  "http://www.w3.org/Graphics/SVG/1.1/DTD/svg11.dtd">
<svg xmlns:xlink="http://www.w3.org/1999/xlink" width="720pt" height="576pt" viewBox="0 0 720 576" xmlns="http://www.w3.org/2000/svg" version="1.1">
 <metadata>
  <rdf:RDF xmlns:dc="http://purl.org/dc/elements/1.1/" xmlns:cc="http://creativecommons.org/ns#" xmlns:rdf="http://www.w3.org/1999/02/22-rdf-syntax-ns#">
   <cc:Work>
    <dc:type rdf:resource="http://purl.org/dc/dcmitype/StillImage"/>
    <dc:date>2024-12-07T17:10:47.234388</dc:date>
    <dc:format>image/svg+xml</dc:format>
    <dc:creator>
     <cc:Agent>
      <dc:title>Matplotlib v3.8.4, https://matplotlib.org/</dc:title>
     </cc:Agent>
    </dc:creator>
   </cc:Work>
  </rdf:RDF>
 </metadata>
 <defs>
  <style type="text/css">*{stroke-linejoin: round; stroke-linecap: butt}</style>
 </defs>
 <g id="figure_1">
  <g id="patch_1">
   <path d="M 0 576 
L 720 576 
L 720 0 
L 0 0 
z
" style="fill: #ffffff"/>
  </g>
  <g id="axes_1">
   <g id="patch_2">
    <path d="M 83.72 499.48 
L 696.24 499.48 
L 696.24 23.76 
L 83.72 23.76 
z
" style="fill: #ffffff"/>
   </g>
   <g id="QuadContourSet_1">
    <path d="M 87.205069 499.06155 
L 87.507127 499.392194 
L 87.809186 499.475744 
L 88.111245 499.352871 
L 88.413303 499.07103 
L 88.584899 498.821006 
L 88.715362 498.686907 
L 89.017421 498.240547 
L 89.308369 497.701496 
L 89.319479 497.685606 
L 89.621538 497.408703 
L 89.923597 497.181583 
L 90.225655 496.7835 
L 90.31877 496.581986 
L 90.527714 496.211808 
L 90.81636 495.462476 
L 90.829773 495.430773 
L 91.131831 494.724493 
L 91.285663 494.342966 
L 91.43389 494.005037 
L 91.715748 493.223456 
L 91.735949 493.167869 
L 92.027492 492.103946 
L 92.038007 492.056944 
L 92.246671 490.984437 
L 92.340066 490.186383 
L 92.383572 489.864927 
L 92.495786 488.745417 
L 92.568258 487.625907 
L 92.623092 486.506397 
L 92.642124 486.122446 
L 92.708211 485.386887 
L 92.811791 484.267377 
L 92.909089 483.147867 
L 92.944183 482.748559 
L 93.053826 482.028357 
L 93.189774 480.908847 
L 93.246242 480.301193 
L 93.312983 479.789337 
L 93.421488 478.669827 
L 93.491666 477.550317 
L 93.538869 476.430807 
L 93.5483 476.114408 
L 93.583973 475.311297 
L 93.615185 474.191787 
L 93.63564 473.072277 
L 93.653948 471.952767 
L 93.680291 470.833258 
L 93.724082 469.713748 
L 93.787679 468.594238 
L 93.850359 467.638456 
L 93.859362 467.474728 
L 93.905351 466.355218 
L 93.92438 465.235708 
L 93.903442 464.116198 
L 93.850359 463.246704 
L 93.828299 462.996688 
L 93.707009 461.877178 
L 93.610056 460.757668 
L 93.548322 459.638158 
L 93.5483 459.637611 
L 93.523563 458.518648 
L 93.49913 457.399138 
L 93.467693 456.279628 
L 93.425421 455.160118 
L 93.376706 454.040608 
L 93.33398 452.921098 
L 93.304847 451.801588 
L 93.28171 450.682078 
L 93.246242 449.592267 
L 93.244367 449.562569 
L 93.074608 448.443059 
L 92.944183 448.024754 
L 92.723238 447.323549 
L 92.642124 447.075691 
L 92.524407 446.204039 
L 92.37659 445.084529 
L 92.340066 444.795338 
L 92.260617 443.965019 
L 92.151729 442.845509 
L 92.040478 441.725999 
L 92.038007 441.698841 
L 91.942977 440.606489 
L 91.827145 439.486979 
L 91.735949 438.843252 
L 91.61498 438.367469 
L 91.43389 437.825635 
L 91.268388 437.247959 
L 91.131831 436.798192 
L 91.025201 436.128449 
L 90.858103 435.008939 
L 90.829773 434.807817 
L 90.73367 433.889429 
L 90.60182 432.769919 
L 90.527714 432.248268 
L 90.314816 431.650409 
L 90.225655 431.450148 
L 90.057201 431.650409 
L 89.923597 431.791063 
L 89.621538 432.617723 
L 89.563405 432.769919 
L 89.319479 433.592326 
L 89.171801 433.889429 
L 89.017421 434.323851 
L 88.715362 434.706983 
L 88.594598 435.008939 
L 88.413303 435.640143 
L 88.346489 436.128449 
L 88.253899 437.247959 
L 88.187939 438.367469 
L 88.116151 439.486979 
L 88.111245 439.546205 
L 88.054136 440.606489 
L 87.980153 441.725999 
L 87.888011 442.845509 
L 87.809186 443.636151 
L 87.787672 443.965019 
L 87.713575 445.084529 
L 87.625859 446.204039 
L 87.516719 447.323549 
L 87.507127 447.410024 
L 87.416318 448.443059 
L 87.309221 449.562569 
L 87.205069 450.682078 
L 87.205069 450.682078 
L 87.099774 451.801588 
L 86.995313 452.921098 
L 86.90301 453.895021 
L 86.888303 454.040608 
L 86.76531 455.160118 
L 86.648679 456.279628 
L 86.600951 456.78623 
L 86.538058 457.399138 
L 86.444651 458.518648 
L 86.379789 459.638158 
L 86.341891 460.757668 
L 86.319737 461.877178 
L 86.298893 462.853202 
L 86.29491 462.996688 
L 86.239431 464.116198 
L 86.166932 465.235708 
L 86.089825 466.355218 
L 86.016402 467.474728 
L 85.996834 467.775882 
L 85.923219 468.594238 
L 85.837811 469.713748 
L 85.768368 470.833258 
L 85.710984 471.952767 
L 85.694775 472.322115 
L 85.649209 473.072277 
L 85.595205 474.191787 
L 85.553032 475.311297 
L 85.519682 476.430807 
L 85.492162 477.550317 
L 85.467226 478.669827 
L 85.442076 479.789337 
L 85.415491 480.908847 
L 85.392717 481.861808 
L 85.38619 482.028357 
L 85.350369 483.147867 
L 85.330717 484.267377 
L 85.33763 485.386887 
L 85.386343 486.506397 
L 85.392717 486.579545 
L 85.468941 487.625907 
L 85.601392 488.745417 
L 85.694775 489.403387 
L 85.724229 489.864927 
L 85.790801 490.984437 
L 85.854783 492.103946 
L 85.924737 493.223456 
L 85.996834 494.126237 
L 86.010148 494.342966 
L 86.112334 495.462476 
L 86.298893 496.564252 
L 86.302349 496.581986 
L 86.599007 497.701496 
L 86.600951 497.707705 
L 86.90301 498.529776 
L 87.079002 498.821006 
z
M 87.434934 494.342966 
L 87.205069 493.82503 
L 87.051917 493.223456 
L 86.90301 492.40814 
L 86.85763 492.103946 
L 86.734459 490.984437 
L 86.659502 489.864927 
L 86.614144 488.745417 
L 86.600951 488.216531 
L 86.580315 487.625907 
L 86.555759 486.506397 
L 86.541362 485.386887 
L 86.533288 484.267377 
L 86.529271 483.147867 
L 86.528944 482.028357 
L 86.533694 480.908847 
L 86.545844 479.789337 
L 86.567726 478.669827 
L 86.600951 477.550317 
L 86.600951 477.550317 
L 86.628198 476.430807 
L 86.662793 475.311297 
L 86.703484 474.191787 
L 86.748579 473.072277 
L 86.797487 471.952767 
L 86.852587 470.833258 
L 86.90301 469.978594 
L 86.916013 469.713748 
L 86.985838 468.594238 
L 87.077334 467.474728 
L 87.190303 466.355218 
L 87.205069 466.219418 
L 87.298226 465.235708 
L 87.416004 464.116198 
L 87.507127 463.296472 
L 87.537069 462.996688 
L 87.654371 461.877178 
L 87.793797 460.757668 
L 87.809186 460.634998 
L 87.944727 459.638158 
L 88.111245 458.624272 
L 88.128092 458.518648 
L 88.305426 457.399138 
L 88.413303 456.751608 
L 88.479553 456.279628 
L 88.64505 455.160118 
L 88.715362 454.722582 
L 88.82084 454.040608 
L 89.017421 452.943237 
L 89.022037 452.921098 
L 89.264576 451.801588 
L 89.319479 451.560627 
L 89.616656 450.682078 
L 89.621538 450.667615 
L 89.923597 450.435316 
L 90.043176 450.682078 
L 90.225655 451.088124 
L 90.425877 451.801588 
L 90.527714 452.13718 
L 90.829773 452.659921 
L 91.005382 452.921098 
L 91.131831 453.108099 
L 91.347065 454.040608 
L 91.43389 454.554874 
L 91.501457 455.160118 
L 91.6072 456.279628 
L 91.698471 457.399138 
L 91.735949 457.896186 
L 91.791286 458.518648 
L 91.880711 459.638158 
L 91.95602 460.757668 
L 92.01725 461.877178 
L 92.038007 462.332178 
L 92.070082 462.996688 
L 92.113617 464.116198 
L 92.146702 465.235708 
L 92.171163 466.355218 
L 92.18891 467.474728 
L 92.20236 468.594238 
L 92.214347 469.713748 
L 92.227569 470.833258 
L 92.243728 471.952767 
L 92.262626 473.072277 
L 92.281481 474.191787 
L 92.294808 475.311297 
L 92.295338 476.430807 
L 92.276142 477.550317 
L 92.233363 478.669827 
L 92.168046 479.789337 
L 92.08555 480.908847 
L 92.038007 481.492639 
L 92.002001 482.028357 
L 91.920072 483.147867 
L 91.828767 484.267377 
L 91.735949 485.257723 
L 91.724867 485.386887 
L 91.60858 486.506397 
L 91.438889 487.625907 
L 91.43389 487.653234 
L 91.236509 488.745417 
L 91.131831 489.185828 
L 90.982184 489.864927 
L 90.829773 490.439972 
L 90.680313 490.984437 
L 90.527714 491.486401 
L 90.286052 492.103946 
L 90.225655 492.257741 
L 89.923597 492.855498 
L 89.687438 493.223456 
L 89.621538 493.338918 
L 89.319479 493.903012 
L 89.044099 494.342966 
L 89.017421 494.394213 
L 88.715362 494.831466 
L 88.413303 495.037066 
L 88.111245 495.047436 
L 87.809186 494.876107 
L 87.507127 494.49662 
z
" clip-path="url(#p4eb78901f1)" style="fill: #e7e7f3"/>
    <path d="M 87.507127 494.49662 
L 87.809186 494.876107 
L 88.111245 495.047436 
L 88.413303 495.037066 
L 88.715362 494.831466 
L 89.017421 494.394213 
L 89.044099 494.342966 
L 89.319479 493.903012 
L 89.621538 493.338918 
L 89.687438 493.223456 
L 89.923597 492.855498 
L 90.225655 492.257741 
L 90.286052 492.103946 
L 90.527714 491.486401 
L 90.680313 490.984437 
L 90.829773 490.439972 
L 90.982184 489.864927 
L 91.131831 489.185828 
L 91.236509 488.745417 
L 91.43389 487.653234 
L 91.438889 487.625907 
L 91.60858 486.506397 
L 91.724867 485.386887 
L 91.735949 485.257723 
L 91.828767 484.267377 
L 91.920072 483.147867 
L 92.002001 482.028357 
L 92.038007 481.492639 
L 92.08555 480.908847 
L 92.168046 479.789337 
L 92.233363 478.669827 
L 92.276142 477.550317 
L 92.295338 476.430807 
L 92.294808 475.311297 
L 92.281481 474.191787 
L 92.262626 473.072277 
L 92.243728 471.952767 
L 92.227569 470.833258 
L 92.214347 469.713748 
L 92.20236 468.594238 
L 92.18891 467.474728 
L 92.171163 466.355218 
L 92.146702 465.235708 
L 92.113617 464.116198 
L 92.070082 462.996688 
L 92.038007 462.332178 
L 92.01725 461.877178 
L 91.95602 460.757668 
L 91.880711 459.638158 
L 91.791286 458.518648 
L 91.735949 457.896186 
L 91.698471 457.399138 
L 91.6072 456.279628 
L 91.501457 455.160118 
L 91.43389 454.554874 
L 91.347065 454.040608 
L 91.131831 453.108099 
L 91.005382 452.921098 
L 90.829773 452.659921 
L 90.527714 452.13718 
L 90.425877 451.801588 
L 90.225655 451.088124 
L 90.043176 450.682078 
L 89.923597 450.435316 
L 89.621538 450.667615 
L 89.616656 450.682078 
L 89.319479 451.560627 
L 89.264576 451.801588 
L 89.022037 452.921098 
L 89.017421 452.943237 
L 88.82084 454.040608 
L 88.715362 454.722582 
L 88.64505 455.160118 
L 88.479553 456.279628 
L 88.413303 456.751608 
L 88.305426 457.399138 
L 88.128092 458.518648 
L 88.111245 458.624272 
L 87.944727 459.638158 
L 87.809186 460.634998 
L 87.793797 460.757668 
L 87.654371 461.877178 
L 87.537069 462.996688 
L 87.507127 463.296472 
L 87.416004 464.116198 
L 87.298226 465.235708 
L 87.205069 466.219418 
L 87.190303 466.355218 
L 87.077334 467.474728 
L 86.985838 468.594238 
L 86.916013 469.713748 
L 86.90301 469.978594 
L 86.852587 470.833258 
L 86.797487 471.952767 
L 86.748579 473.072277 
L 86.703484 474.191787 
L 86.662793 475.311297 
L 86.628198 476.430807 
L 86.600951 477.550317 
L 86.600951 477.550317 
L 86.567726 478.669827 
L 86.545844 479.789337 
L 86.533694 480.908847 
L 86.528944 482.028357 
L 86.529271 483.147867 
L 86.533288 484.267377 
L 86.541362 485.386887 
L 86.555759 486.506397 
L 86.580315 487.625907 
L 86.600951 488.216531 
L 86.614144 488.745417 
L 86.659502 489.864927 
L 86.734459 490.984437 
L 86.85763 492.103946 
L 86.90301 492.40814 
L 87.051917 493.223456 
L 87.205069 493.82503 
L 87.434934 494.342966 
z
M 87.672791 492.103946 
L 87.507127 491.746171 
L 87.318461 490.984437 
L 87.205069 490.313127 
L 87.148001 489.864927 
L 87.049391 488.745417 
L 86.990935 487.625907 
L 86.958191 486.506397 
L 86.941829 485.386887 
L 86.935557 484.267377 
L 86.935428 483.147867 
L 86.939694 482.028357 
L 86.948648 480.908847 
L 86.964126 479.789337 
L 86.98871 478.669827 
L 87.024841 477.550317 
L 87.074156 476.430807 
L 87.13723 475.311297 
L 87.205069 474.304907 
L 87.211446 474.191787 
L 87.275856 473.072277 
L 87.347056 471.952767 
L 87.427522 470.833258 
L 87.507127 469.867369 
L 87.517489 469.713748 
L 87.597408 468.594238 
L 87.693085 467.474728 
L 87.809186 466.355218 
L 87.809186 466.355218 
L 87.917342 465.235708 
L 88.052558 464.116198 
L 88.111245 463.695875 
L 88.207888 462.996688 
L 88.392126 461.877178 
L 88.413303 461.757613 
L 88.590593 460.757668 
L 88.715362 460.086159 
L 88.809939 459.638158 
L 89.017421 458.600513 
L 89.043605 458.518648 
L 89.319479 457.51636 
L 89.429854 457.399138 
L 89.621538 457.137729 
L 89.831067 457.399138 
L 89.923597 457.503081 
L 90.225655 457.882045 
L 90.527714 458.09165 
L 90.74486 458.518648 
L 90.829773 458.736033 
L 90.970549 459.638158 
L 91.092892 460.757668 
L 91.131831 461.172143 
L 91.192924 461.877178 
L 91.295245 462.996688 
L 91.400185 464.116198 
L 91.43389 464.467451 
L 91.503266 465.235708 
L 91.589457 466.355218 
L 91.653611 467.474728 
L 91.698408 468.594238 
L 91.72853 469.713748 
L 91.735949 470.110036 
L 91.752574 470.833258 
L 91.770683 471.952767 
L 91.781795 473.072277 
L 91.784993 474.191787 
L 91.777388 475.311297 
L 91.754686 476.430807 
L 91.735949 476.94619 
L 91.719982 477.550317 
L 91.676034 478.669827 
L 91.615681 479.789337 
L 91.538522 480.908847 
L 91.443936 482.028357 
L 91.43389 482.13767 
L 91.359852 483.147867 
L 91.256479 484.267377 
L 91.131831 485.288347 
L 91.121866 485.386887 
L 90.984433 486.506397 
L 90.829773 487.405763 
L 90.794864 487.625907 
L 90.569323 488.745417 
L 90.527714 488.917938 
L 90.266238 489.864927 
L 90.225655 489.994661 
L 89.923597 490.77709 
L 89.823493 490.984437 
L 89.621538 491.417593 
L 89.319479 491.972172 
L 89.230647 492.103946 
L 89.017421 492.470263 
L 88.715362 492.773508 
L 88.413303 492.839367 
L 88.111245 492.699823 
L 87.809186 492.369788 
z
" clip-path="url(#p4eb78901f1)" style="fill: #d2d2f4"/>
    <path d="M 87.809186 492.369788 
L 88.111245 492.699823 
L 88.413303 492.839367 
L 88.715362 492.773508 
L 89.017421 492.470263 
L 89.230647 492.103946 
L 89.319479 491.972172 
L 89.621538 491.417593 
L 89.823493 490.984437 
L 89.923597 490.77709 
L 90.225655 489.994661 
L 90.266238 489.864927 
L 90.527714 488.917938 
L 90.569323 488.745417 
L 90.794864 487.625907 
L 90.829773 487.405763 
L 90.984433 486.506397 
L 91.121866 485.386887 
L 91.131831 485.288347 
L 91.256479 484.267377 
L 91.359852 483.147867 
L 91.43389 482.13767 
L 91.443936 482.028357 
L 91.538522 480.908847 
L 91.615681 479.789337 
L 91.676034 478.669827 
L 91.719982 477.550317 
L 91.735949 476.94619 
L 91.754686 476.430807 
L 91.777388 475.311297 
L 91.784993 474.191787 
L 91.781795 473.072277 
L 91.770683 471.952767 
L 91.752574 470.833258 
L 91.735949 470.110036 
L 91.72853 469.713748 
L 91.698408 468.594238 
L 91.653611 467.474728 
L 91.589457 466.355218 
L 91.503266 465.235708 
L 91.43389 464.467451 
L 91.400185 464.116198 
L 91.295245 462.996688 
L 91.192924 461.877178 
L 91.131831 461.172143 
L 91.092892 460.757668 
L 90.970549 459.638158 
L 90.829773 458.736033 
L 90.74486 458.518648 
L 90.527714 458.09165 
L 90.225655 457.882045 
L 89.923597 457.503081 
L 89.831067 457.399138 
L 89.621538 457.137729 
L 89.429854 457.399138 
L 89.319479 457.51636 
L 89.043605 458.518648 
L 89.017421 458.600513 
L 88.809939 459.638158 
L 88.715362 460.086159 
L 88.590593 460.757668 
L 88.413303 461.757613 
L 88.392126 461.877178 
L 88.207888 462.996688 
L 88.111245 463.695875 
L 88.052558 464.116198 
L 87.917342 465.235708 
L 87.809186 466.355218 
L 87.809186 466.355218 
L 87.693085 467.474728 
L 87.597408 468.594238 
L 87.517489 469.713748 
L 87.507127 469.867369 
L 87.427522 470.833258 
L 87.347056 471.952767 
L 87.275856 473.072277 
L 87.211446 474.191787 
L 87.205069 474.304907 
L 87.13723 475.311297 
L 87.074156 476.430807 
L 87.024841 477.550317 
L 86.98871 478.669827 
L 86.964126 479.789337 
L 86.948648 480.908847 
L 86.939694 482.028357 
L 86.935428 483.147867 
L 86.935557 484.267377 
L 86.941829 485.386887 
L 86.958191 486.506397 
L 86.990935 487.625907 
L 87.049391 488.745417 
L 87.148001 489.864927 
L 87.205069 490.313127 
L 87.318461 490.984437 
L 87.507127 491.746171 
L 87.672791 492.103946 
z
M 88.636971 490.984437 
L 88.413303 490.947027 
L 88.111245 490.689115 
L 87.809186 490.153592 
L 87.718854 489.864927 
L 87.507127 488.926958 
L 87.480633 488.745417 
L 87.36446 487.625907 
L 87.296994 486.506397 
L 87.259786 485.386887 
L 87.241781 484.267377 
L 87.236486 483.147867 
L 87.240663 482.028357 
L 87.253605 480.908847 
L 87.276419 479.789337 
L 87.311134 478.669827 
L 87.359723 477.550317 
L 87.423329 476.430807 
L 87.502055 475.311297 
L 87.507127 475.244734 
L 87.579958 474.191787 
L 87.663753 473.072277 
L 87.754202 471.952767 
L 87.809186 471.306402 
L 87.845783 470.833258 
L 87.934647 469.713748 
L 88.032795 468.594238 
L 88.111245 467.797314 
L 88.143461 467.474728 
L 88.266311 466.355218 
L 88.412534 465.235708 
L 88.413303 465.230324 
L 88.5974 464.116198 
L 88.715362 463.459545 
L 88.827922 462.996688 
L 89.017421 462.200202 
L 89.167945 461.877178 
L 89.319479 461.523368 
L 89.621538 461.467001 
L 89.923597 461.680842 
L 90.111124 461.877178 
L 90.225655 462.000359 
L 90.527714 462.929138 
L 90.539211 462.996688 
L 90.718016 464.116198 
L 90.829773 464.86034 
L 90.88032 465.235708 
L 91.034183 466.355218 
L 91.131831 467.138067 
L 91.169189 467.474728 
L 91.273597 468.594238 
L 91.346422 469.713748 
L 91.393611 470.833258 
L 91.421188 471.952767 
L 91.433733 473.072277 
L 91.43389 474.191787 
L 91.422433 475.311297 
L 91.398729 476.430807 
L 91.361429 477.550317 
L 91.309121 478.669827 
L 91.240518 479.789337 
L 91.153952 480.908847 
L 91.131831 481.159642 
L 91.070917 482.028357 
L 90.976512 483.147867 
L 90.854913 484.267377 
L 90.829773 484.464617 
L 90.727366 485.386887 
L 90.55804 486.506397 
L 90.527714 486.67364 
L 90.345268 487.625907 
L 90.225655 488.126334 
L 90.041379 488.745417 
L 89.923597 489.102203 
L 89.621538 489.809498 
L 89.591547 489.864927 
L 89.319479 490.400204 
L 89.017421 490.809524 
L 88.734096 490.984437 
L 88.715362 490.997948 
z
" clip-path="url(#p4eb78901f1)" style="fill: #b9b9f6"/>
    <path d="M 88.715362 490.997948 
L 88.734096 490.984437 
L 89.017421 490.809524 
L 89.319479 490.400204 
L 89.591547 489.864927 
L 89.621538 489.809498 
L 89.923597 489.102203 
L 90.041379 488.745417 
L 90.225655 488.126334 
L 90.345268 487.625907 
L 90.527714 486.67364 
L 90.55804 486.506397 
L 90.727366 485.386887 
L 90.829773 484.464617 
L 90.854913 484.267377 
L 90.976512 483.147867 
L 91.070917 482.028357 
L 91.131831 481.159642 
L 91.153952 480.908847 
L 91.240518 479.789337 
L 91.309121 478.669827 
L 91.361429 477.550317 
L 91.398729 476.430807 
L 91.422433 475.311297 
L 91.43389 474.191787 
L 91.433733 473.072277 
L 91.421188 471.952767 
L 91.393611 470.833258 
L 91.346422 469.713748 
L 91.273597 468.594238 
L 91.169189 467.474728 
L 91.131831 467.138067 
L 91.034183 466.355218 
L 90.88032 465.235708 
L 90.829773 464.86034 
L 90.718016 464.116198 
L 90.539211 462.996688 
L 90.527714 462.929138 
L 90.225655 462.000359 
L 90.111124 461.877178 
L 89.923597 461.680842 
L 89.621538 461.467001 
L 89.319479 461.523368 
L 89.167945 461.877178 
L 89.017421 462.200202 
L 88.827922 462.996688 
L 88.715362 463.459545 
L 88.5974 464.116198 
L 88.413303 465.230324 
L 88.412534 465.235708 
L 88.266311 466.355218 
L 88.143461 467.474728 
L 88.111245 467.797314 
L 88.032795 468.594238 
L 87.934647 469.713748 
L 87.845783 470.833258 
L 87.809186 471.306402 
L 87.754202 471.952767 
L 87.663753 473.072277 
L 87.579958 474.191787 
L 87.507127 475.244734 
L 87.502055 475.311297 
L 87.423329 476.430807 
L 87.359723 477.550317 
L 87.311134 478.669827 
L 87.276419 479.789337 
L 87.253605 480.908847 
L 87.240663 482.028357 
L 87.236486 483.147867 
L 87.241781 484.267377 
L 87.259786 485.386887 
L 87.296994 486.506397 
L 87.36446 487.625907 
L 87.480633 488.745417 
L 87.507127 488.926958 
L 87.718854 489.864927 
L 87.809186 490.153592 
L 88.111245 490.689115 
L 88.413303 490.947027 
L 88.636971 490.984437 
z
M 88.07115 488.745417 
L 87.809186 487.861094 
L 87.768214 487.625907 
L 87.635288 486.506397 
L 87.560982 485.386887 
L 87.522114 484.267377 
L 87.507127 483.215366 
L 87.506221 483.147867 
L 87.507127 482.028357 
L 87.507127 482.028357 
L 87.522458 480.908847 
L 87.551849 479.789337 
L 87.595653 478.669827 
L 87.654064 477.550317 
L 87.726704 476.430807 
L 87.809186 475.353079 
L 87.812314 475.311297 
L 87.900261 474.191787 
L 87.993511 473.072277 
L 88.092034 471.952767 
L 88.111245 471.737039 
L 88.193387 470.833258 
L 88.301653 469.713748 
L 88.413303 468.662826 
L 88.42211 468.594238 
L 88.575701 467.474728 
L 88.715362 466.570181 
L 88.764 466.355218 
L 89.017421 465.296534 
L 89.045417 465.235708 
L 89.319479 464.647601 
L 89.621538 464.498356 
L 89.923597 464.676546 
L 90.189589 465.235708 
L 90.225655 465.314788 
L 90.468082 466.355218 
L 90.527714 466.621971 
L 90.673738 467.474728 
L 90.829773 468.480727 
L 90.844758 468.594238 
L 90.972181 469.713748 
L 91.061776 470.833258 
L 91.118166 471.952767 
L 91.131831 472.451458 
L 91.148022 473.072277 
L 91.156869 474.191787 
L 91.14658 475.311297 
L 91.131831 475.882388 
L 91.11973 476.430807 
L 91.080915 477.550317 
L 91.028618 478.669827 
L 90.962299 479.789337 
L 90.88006 480.908847 
L 90.829773 481.483774 
L 90.789038 482.028357 
L 90.691049 483.147867 
L 90.565772 484.267377 
L 90.527714 484.550699 
L 90.413723 485.386887 
L 90.225655 486.441597 
L 90.211507 486.506397 
L 89.923773 487.625907 
L 89.923597 487.626511 
L 89.621538 488.433985 
L 89.451873 488.745417 
L 89.319479 488.998736 
L 89.017421 489.33937 
L 88.715362 489.427146 
L 88.413303 489.27157 
L 88.111245 488.847118 
z
" clip-path="url(#p4eb78901f1)" style="fill: #9d9df7"/>
    <path d="M 88.111245 488.847118 
L 88.413303 489.27157 
L 88.715362 489.427146 
L 89.017421 489.33937 
L 89.319479 488.998736 
L 89.451873 488.745417 
L 89.621538 488.433985 
L 89.923597 487.626511 
L 89.923773 487.625907 
L 90.211507 486.506397 
L 90.225655 486.441597 
L 90.413723 485.386887 
L 90.527714 484.550699 
L 90.565772 484.267377 
L 90.691049 483.147867 
L 90.789038 482.028357 
L 90.829773 481.483774 
L 90.88006 480.908847 
L 90.962299 479.789337 
L 91.028618 478.669827 
L 91.080915 477.550317 
L 91.11973 476.430807 
L 91.131831 475.882388 
L 91.14658 475.311297 
L 91.156869 474.191787 
L 91.148022 473.072277 
L 91.131831 472.451458 
L 91.118166 471.952767 
L 91.061776 470.833258 
L 90.972181 469.713748 
L 90.844758 468.594238 
L 90.829773 468.480727 
L 90.673738 467.474728 
L 90.527714 466.621971 
L 90.468082 466.355218 
L 90.225655 465.314788 
L 90.189589 465.235708 
L 89.923597 464.676546 
L 89.621538 464.498356 
L 89.319479 464.647601 
L 89.045417 465.235708 
L 89.017421 465.296534 
L 88.764 466.355218 
L 88.715362 466.570181 
L 88.575701 467.474728 
L 88.42211 468.594238 
L 88.413303 468.662826 
L 88.301653 469.713748 
L 88.193387 470.833258 
L 88.111245 471.737039 
L 88.092034 471.952767 
L 87.993511 473.072277 
L 87.900261 474.191787 
L 87.812314 475.311297 
L 87.809186 475.353079 
L 87.726704 476.430807 
L 87.654064 477.550317 
L 87.595653 478.669827 
L 87.551849 479.789337 
L 87.522458 480.908847 
L 87.507127 482.028357 
L 87.507127 482.028357 
L 87.506221 483.147867 
L 87.507127 483.215366 
L 87.522114 484.267377 
L 87.560982 485.386887 
L 87.635288 486.506397 
L 87.768214 487.625907 
L 87.809186 487.861094 
L 88.07115 488.745417 
z
M 88.493358 487.625907 
L 88.413303 487.540498 
L 88.111245 486.756887 
L 88.059348 486.506397 
L 87.908371 485.386887 
L 87.830051 484.267377 
L 87.809186 483.624089 
L 87.796122 483.147867 
L 87.789461 482.028357 
L 87.803023 480.908847 
L 87.809186 480.691426 
L 87.835938 479.789337 
L 87.88612 478.669827 
L 87.951266 477.550317 
L 88.029277 476.430807 
L 88.111245 475.400452 
L 88.118561 475.311297 
L 88.216566 474.191787 
L 88.320776 473.072277 
L 88.413303 472.136115 
L 88.434022 471.952767 
L 88.566588 470.833258 
L 88.715362 469.714879 
L 88.715566 469.713748 
L 88.934516 468.594238 
L 89.017421 468.213409 
L 89.295553 467.474728 
L 89.319479 467.414514 
L 89.621538 467.128996 
L 89.923597 467.345068 
L 89.974367 467.474728 
L 90.225655 468.142612 
L 90.32516 468.594238 
L 90.527714 469.608043 
L 90.543828 469.713748 
L 90.690338 470.833258 
L 90.794185 471.952767 
L 90.829773 472.549325 
L 90.855443 473.072277 
L 90.883448 474.191787 
L 90.886549 475.311297 
L 90.868051 476.430807 
L 90.829773 477.550317 
L 90.829773 477.550317 
L 90.779035 478.669827 
L 90.715818 479.789337 
L 90.638994 480.908847 
L 90.544463 482.028357 
L 90.527714 482.196204 
L 90.432575 483.147867 
L 90.293015 484.267377 
L 90.225655 484.70825 
L 90.098685 485.386887 
L 89.923597 486.166134 
L 89.814181 486.506397 
L 89.621538 487.061435 
L 89.319479 487.6055 
L 89.293337 487.625907 
L 89.017421 487.853827 
L 88.715362 487.831318 
z
" clip-path="url(#p4eb78901f1)" style="fill: #8181f8"/>
    <path d="M 88.715362 487.831318 
L 89.017421 487.853827 
L 89.293337 487.625907 
L 89.319479 487.6055 
L 89.621538 487.061435 
L 89.814181 486.506397 
L 89.923597 486.166134 
L 90.098685 485.386887 
L 90.225655 484.70825 
L 90.293015 484.267377 
L 90.432575 483.147867 
L 90.527714 482.196204 
L 90.544463 482.028357 
L 90.638994 480.908847 
L 90.715818 479.789337 
L 90.779035 478.669827 
L 90.829773 477.550317 
L 90.829773 477.550317 
L 90.868051 476.430807 
L 90.886549 475.311297 
L 90.883448 474.191787 
L 90.855443 473.072277 
L 90.829773 472.549325 
L 90.794185 471.952767 
L 90.690338 470.833258 
L 90.543828 469.713748 
L 90.527714 469.608043 
L 90.32516 468.594238 
L 90.225655 468.142612 
L 89.974367 467.474728 
L 89.923597 467.345068 
L 89.621538 467.128996 
L 89.319479 467.414514 
L 89.295553 467.474728 
L 89.017421 468.213409 
L 88.934516 468.594238 
L 88.715566 469.713748 
L 88.715362 469.714879 
L 88.566588 470.833258 
L 88.434022 471.952767 
L 88.413303 472.136115 
L 88.320776 473.072277 
L 88.216566 474.191787 
L 88.118561 475.311297 
L 88.111245 475.400452 
L 88.029277 476.430807 
L 87.951266 477.550317 
L 87.88612 478.669827 
L 87.835938 479.789337 
L 87.809186 480.691426 
L 87.803023 480.908847 
L 87.789461 482.028357 
L 87.796122 483.147867 
L 87.809186 483.624089 
L 87.830051 484.267377 
L 87.908371 485.386887 
L 88.059348 486.506397 
L 88.111245 486.756887 
L 88.413303 487.540498 
L 88.493358 487.625907 
z
M 88.337911 485.386887 
L 88.169688 484.267377 
L 88.111245 483.4202 
L 88.097382 483.147867 
L 88.077054 482.028357 
L 88.085605 480.908847 
L 88.111245 479.989569 
L 88.117128 479.789337 
L 88.169715 478.669827 
L 88.238482 477.550317 
L 88.320516 476.430807 
L 88.413303 475.313725 
L 88.413529 475.311297 
L 88.527576 474.191787 
L 88.65146 473.072277 
L 88.715362 472.538367 
L 88.805017 471.952767 
L 88.99715 470.833258 
L 89.017421 470.725587 
L 89.319479 469.713748 
L 89.319479 469.713748 
L 89.621538 469.3539 
L 89.923597 469.631293 
L 89.951205 469.713748 
L 90.225655 470.614604 
L 90.26606 470.833258 
L 90.439083 471.952767 
L 90.527714 472.754784 
L 90.553579 473.072277 
L 90.612049 474.191787 
L 90.636493 475.311297 
L 90.633259 476.430807 
L 90.607523 477.550317 
L 90.562659 478.669827 
L 90.527714 479.292167 
L 90.499558 479.789337 
L 90.419863 480.908847 
L 90.3218 482.028357 
L 90.225655 482.909352 
L 90.193771 483.147867 
L 90.013624 484.267377 
L 89.923597 484.730792 
L 89.73425 485.386887 
L 89.621538 485.740359 
L 89.319479 486.261315 
L 89.017421 486.414804 
L 88.715362 486.255788 
L 88.413303 485.689029 
z
" clip-path="url(#p4eb78901f1)" style="fill: #6464fa"/>
    <path d="M 88.413303 485.689029 
L 88.715362 486.255788 
L 89.017421 486.414804 
L 89.319479 486.261315 
L 89.621538 485.740359 
L 89.73425 485.386887 
L 89.923597 484.730792 
L 90.013624 484.267377 
L 90.193771 483.147867 
L 90.225655 482.909352 
L 90.3218 482.028357 
L 90.419863 480.908847 
L 90.499558 479.789337 
L 90.527714 479.292167 
L 90.562659 478.669827 
L 90.607523 477.550317 
L 90.633259 476.430807 
L 90.636493 475.311297 
L 90.612049 474.191787 
L 90.553579 473.072277 
L 90.527714 472.754784 
L 90.439083 471.952767 
L 90.26606 470.833258 
L 90.225655 470.614604 
L 89.951205 469.713748 
L 89.923597 469.631293 
L 89.621538 469.3539 
L 89.319479 469.713748 
L 89.319479 469.713748 
L 89.017421 470.725587 
L 88.99715 470.833258 
L 88.805017 471.952767 
L 88.715362 472.538367 
L 88.65146 473.072277 
L 88.527576 474.191787 
L 88.413529 475.311297 
L 88.413303 475.313725 
L 88.320516 476.430807 
L 88.238482 477.550317 
L 88.169715 478.669827 
L 88.117128 479.789337 
L 88.111245 479.989569 
L 88.085605 480.908847 
L 88.077054 482.028357 
L 88.097382 483.147867 
L 88.111245 483.4202 
L 88.169688 484.267377 
L 88.337911 485.386887 
z
M 88.663853 484.267377 
L 88.460844 483.147867 
L 88.413303 482.463804 
L 88.393555 482.028357 
L 88.387241 480.908847 
L 88.413303 479.789337 
L 88.413303 479.789337 
L 88.469092 478.669827 
L 88.544314 477.550317 
L 88.6357 476.430807 
L 88.715362 475.577956 
L 88.746044 475.311297 
L 88.890157 474.191787 
L 89.017421 473.304218 
L 89.066533 473.072277 
L 89.319479 472.013744 
L 89.358375 471.952767 
L 89.621538 471.575992 
L 89.923597 471.934914 
L 89.928311 471.952767 
L 90.176569 473.072277 
L 90.225655 473.373272 
L 90.303624 474.191787 
L 90.365018 475.311297 
L 90.385997 476.430807 
L 90.375345 477.550317 
L 90.339732 478.669827 
L 90.282715 479.789337 
L 90.225655 480.604295 
L 90.199743 480.908847 
L 90.077425 482.028357 
L 89.923826 483.147867 
L 89.923597 483.149258 
L 89.639359 484.267377 
L 89.621538 484.329214 
L 89.319479 484.815438 
L 89.017421 484.834618 
L 88.715362 484.430372 
z
" clip-path="url(#p4eb78901f1)" style="fill: #4848fb"/>
    <path d="M 88.715362 484.430372 
L 89.017421 484.834618 
L 89.319479 484.815438 
L 89.621538 484.329214 
L 89.639359 484.267377 
L 89.923597 483.149258 
L 89.923826 483.147867 
L 90.077425 482.028357 
L 90.199743 480.908847 
L 90.225655 480.604295 
L 90.282715 479.789337 
L 90.339732 478.669827 
L 90.375345 477.550317 
L 90.385997 476.430807 
L 90.365018 475.311297 
L 90.303624 474.191787 
L 90.225655 473.373272 
L 90.176569 473.072277 
L 89.928311 471.952767 
L 89.923597 471.934914 
L 89.621538 471.575992 
L 89.358375 471.952767 
L 89.319479 472.013744 
L 89.066533 473.072277 
L 89.017421 473.304218 
L 88.890157 474.191787 
L 88.746044 475.311297 
L 88.715362 475.577956 
L 88.6357 476.430807 
L 88.544314 477.550317 
L 88.469092 478.669827 
L 88.413303 479.789337 
L 88.413303 479.789337 
L 88.387241 480.908847 
L 88.393555 482.028357 
L 88.413303 482.463804 
L 88.460844 483.147867 
L 88.663853 484.267377 
z
M 89.127804 483.147867 
L 89.017421 483.037387 
L 88.790206 482.028357 
L 88.715362 480.908847 
L 88.727337 479.789337 
L 88.784887 478.669827 
L 88.87231 477.550317 
L 88.983474 476.430807 
L 89.017421 476.138795 
L 89.153462 475.311297 
L 89.319479 474.43843 
L 89.435344 474.191787 
L 89.621538 473.840903 
L 89.834079 474.191787 
L 89.923597 474.37731 
L 90.042997 475.311297 
L 90.116559 476.430807 
L 90.132957 477.550317 
L 90.107068 478.669827 
L 90.047855 479.789337 
L 89.958237 480.908847 
L 89.923597 481.226749 
L 89.781497 482.028357 
L 89.621538 482.769541 
L 89.3993 483.147867 
L 89.319479 483.269886 
z
" clip-path="url(#p4eb78901f1)" style="fill: #2c2cfd"/>
    <path d="M 89.319479 483.269886 
L 89.3993 483.147867 
L 89.621538 482.769541 
L 89.781497 482.028357 
L 89.923597 481.226749 
L 89.958237 480.908847 
L 90.047855 479.789337 
L 90.107068 478.669827 
L 90.132957 477.550317 
L 90.116559 476.430807 
L 90.042997 475.311297 
L 89.923597 474.37731 
L 89.834079 474.191787 
L 89.621538 473.840903 
L 89.435344 474.191787 
L 89.319479 474.43843 
L 89.153462 475.311297 
L 89.017421 476.138795 
L 88.983474 476.430807 
L 88.87231 477.550317 
L 88.784887 478.669827 
L 88.727337 479.789337 
L 88.715362 480.908847 
L 88.790206 482.028357 
L 89.017421 483.037387 
L 89.127804 483.147867 
z
" clip-path="url(#p4eb78901f1)" style="fill: #0f0ffe"/>
   </g>
   <g id="QuadContourSet_2">
    <path d="M 49.206024 536.586012 
L 55.325458 538.495987 
L 61.444892 537.977598 
L 67.564326 535.459238 
L 68.836501 534.573113 
L 73.68376 532.363642 
L 79.427367 527.567064 
L 79.803194 527.335572 
L 85.922628 522.184027 
L 87.425251 520.561015 
L 92.042062 515.930046 
L 94.076534 513.554966 
L 98.161496 508.566359 
L 99.779527 506.548918 
L 104.280929 499.937569 
L 104.580131 499.542869 
L 109.572774 492.53682 
L 110.400363 491.033885 
L 114.229632 485.530771 
L 116.519797 480.586604 
L 117.887555 478.524722 
L 121.626542 471.518673 
L 122.639231 468.793515 
L 125.216181 464.512625 
L 128.022951 457.506576 
L 128.758665 455.029285 
L 131.210336 450.500527 
L 133.74712 443.494478 
L 134.878099 438.805988 
L 136.011747 436.488429 
L 138.739134 429.48238 
L 140.432676 422.476332 
L 140.997533 419.560955 
L 142.706926 415.470283 
L 144.922453 408.464234 
L 146.484942 401.458185 
L 147.116967 398.046924 
L 148.539991 394.452136 
L 150.774368 387.446087 
L 152.446189 380.440038 
L 153.236401 376.419773 
L 154.38192 373.43399 
L 156.585255 366.427941 
L 158.298089 359.421892 
L 159.355835 354.339296 
L 160.023793 352.415843 
L 162.202077 345.409794 
L 164.212492 338.403745 
L 165.475269 334.186557 
L 166.624061 331.397697 
L 169.723832 324.391648 
L 171.594703 320.749427 
L 173.632729 317.385599 
L 177.714136 311.446666 
L 178.519519 310.37955 
L 183.83357 303.790684 
L 184.192316 303.373501 
L 189.953004 296.6419 
L 190.200334 296.367452 
L 196.035883 289.361404 
L 196.072438 289.310132 
L 201.392631 282.355355 
L 202.191872 281.021855 
L 206.131268 275.349306 
L 208.311306 271.071371 
L 210.174455 268.343257 
L 213.572296 261.337208 
L 214.43074 258.295275 
L 216.921521 254.331159 
L 219.669398 247.325111 
L 220.550174 240.319062 
L 220.550174 240.319062 
L 220.550174 240.319062 
L 223.802159 247.325111 
L 226.669608 248.227955 
L 232.789042 250.568416 
L 238.908476 250.575845 
L 245.02791 248.840533 
L 247.54049 247.325111 
L 251.147343 245.02602 
L 255.81893 240.319062 
L 257.266777 238.670651 
L 260.711588 233.313013 
L 263.386211 228.153105 
L 264.205691 226.306964 
L 266.579781 219.300915 
L 268.370857 212.294866 
L 269.505645 207.15344 
L 269.897111 205.288818 
L 271.204422 198.282769 
L 272.639219 191.27672 
L 274.792545 184.270671 
L 275.625079 182.439193 
L 277.800102 177.264622 
L 281.744513 171.039706 
L 282.245403 170.258573 
L 287.399806 163.252525 
L 287.863947 162.667427 
L 292.524205 156.246476 
L 293.983381 153.977226 
L 296.76016 149.240427 
L 299.553873 142.234378 
L 300.102815 138.784046 
L 300.591217 135.228329 
L 300.102815 132.195389 
L 298.501438 128.22228 
L 293.983381 125.443547 
L 287.863947 126.754849 
L 285.108822 128.22228 
L 281.744513 130.273631 
L 275.625079 134.291355 
L 273.001024 135.228329 
L 269.505645 137.295492 
L 267.249687 135.228329 
L 264.798183 128.22228 
L 263.831643 121.216232 
L 263.386211 118.622248 
L 262.200082 114.210183 
L 257.266777 108.614294 
L 251.147343 110.514379 
L 246.145028 114.210183 
L 245.02791 114.941985 
L 238.908476 119.60101 
L 236.142999 121.216232 
L 232.789042 123.139295 
L 227.223082 121.216232 
L 226.973016 114.210183 
L 229.018497 107.204134 
L 231.60789 100.198085 
L 232.789042 97.549079 
L 234.859056 93.192036 
L 237.938026 86.185987 
L 238.908476 83.514943 
L 240.501205 79.179939 
L 239.841923 72.17389 
L 238.908476 71.702773 
L 238.001891 72.17389 
L 232.789042 74.766321 
L 226.669608 78.729502 
L 226.138835 79.179939 
L 220.550174 84.036637 
L 218.095099 86.185987 
L 214.43074 89.522748 
L 210.0845 93.192036 
L 208.311306 94.733373 
L 202.191872 99.141685 
L 200.320054 100.198085 
L 196.072438 102.484142 
L 189.953004 105.108447 
L 184.599473 107.204134 
L 183.83357 107.465115 
L 177.714136 108.918529 
L 171.594703 107.949089 
L 170.749295 107.204134 
L 165.475269 101.081322 
L 164.910946 100.198085 
L 160.503793 93.192036 
L 159.355835 91.462526 
L 153.236401 88.586142 
L 147.116967 89.789592 
L 140.997533 91.929236 
L 137.021912 93.192036 
L 134.878099 93.772103 
L 128.758665 94.913157 
L 122.639231 96.327685 
L 116.519797 99.305614 
L 115.505139 100.198085 
L 110.400363 103.851587 
L 107.340265 107.204134 
L 104.280929 110.130509 
L 101.130954 114.210183 
L 98.161496 117.84591 
L 95.902253 121.216232 
L 92.042062 127.147403 
L 91.406354 128.22228 
L 87.416325 135.228329 
L 85.922628 138.104883 
L 83.807668 142.234378 
L 80.705106 149.240427 
L 79.803194 151.4735 
L 77.702145 156.246476 
L 75.097938 163.252525 
L 73.68376 167.728989 
L 72.709158 170.258573 
L 70.24257 177.264622 
L 68.29539 184.270671 
L 67.564326 187.191286 
L 66.166395 191.27672 
L 64.085516 198.282769 
L 62.44563 205.288818 
L 61.444892 210.394621 
L 60.872841 212.294866 
L 58.958663 219.300915 
L 57.462244 226.306964 
L 56.280361 233.313013 
L 55.337495 240.319062 
L 55.325458 240.418043 
L 53.874617 247.325111 
L 52.743624 254.331159 
L 51.881814 261.337208 
L 51.229616 268.343257 
L 50.736152 275.349306 
L 50.353579 282.355355 
L 50.035498 289.361404 
L 49.742728 296.367452 
L 49.452908 303.373501 
L 49.206024 309.325427 
L 49.119256 310.37955 
L 48.556725 317.385599 
L 48.086763 324.391648 
L 47.720587 331.397697 
L 47.412883 338.403745 
L 47.064968 345.409794 
L 46.57363 352.415843 
L 45.908885 359.421892 
L 45.134904 366.427941 
L 44.349049 373.43399 
L 43.62198 380.440038 
L 43.08659 386.158276 
L 42.821169 387.446087 
L 41.415239 394.452136 
L 40.25783 401.458185 
L 39.31355 408.464234 
L 38.546383 415.470283 
L 37.923986 422.476332 
L 37.418868 429.48238 
L 37.008621 436.488429 
L 36.967156 437.300237 
L 36.182146 443.494478 
L 35.485571 450.500527 
L 34.96117 457.506576 
L 34.593071 464.512625 
L 34.375788 471.518673 
L 34.311192 478.524722 
L 34.408499 485.530771 
L 34.689933 492.53682 
L 35.205448 499.542869 
L 36.060886 506.548918 
L 36.967156 511.324559 
L 37.224062 513.554966 
L 38.560482 520.561015 
L 41.262375 527.567064 
L 43.08659 530.582891 
L 46.784166 534.573113 
z
M 59.501348 513.554966 
L 55.325458 510.003316 
L 53.242789 506.548918 
L 50.693876 499.542869 
L 49.402055 492.53682 
L 49.206024 490.781498 
L 48.400251 485.530771 
L 47.740482 478.524722 
L 47.389343 471.518673 
L 47.279554 464.512625 
L 47.380316 457.506576 
L 47.677857 450.500527 
L 48.168413 443.494478 
L 48.858388 436.488429 
L 49.206024 433.678373 
L 49.477658 429.48238 
L 50.026014 422.476332 
L 50.701539 415.470283 
L 51.533701 408.464234 
L 52.560057 401.458185 
L 53.825886 394.452136 
L 55.325458 387.665863 
L 55.35416 387.446087 
L 56.30412 380.440038 
L 57.434743 373.43399 
L 58.766044 366.427941 
L 60.294488 359.421892 
L 61.444892 354.347583 
L 61.738791 352.415843 
L 62.700139 345.409794 
L 63.586942 338.403745 
L 64.299394 331.397697 
L 64.801917 324.391648 
L 65.172626 317.385599 
L 65.548177 310.37955 
L 66.031672 303.373501 
L 66.659333 296.367452 
L 67.41484 289.361404 
L 67.564326 288.048959 
L 68.048478 282.355355 
L 68.671957 275.349306 
L 69.343962 268.343257 
L 70.103794 261.337208 
L 71.010012 254.331159 
L 72.132784 247.325111 
L 73.5515 240.319062 
L 73.68376 239.760216 
L 75.008831 233.313013 
L 76.76461 226.306964 
L 78.916901 219.300915 
L 79.803194 216.745319 
L 81.355323 212.294866 
L 84.136865 205.288818 
L 85.922628 201.275307 
L 87.492652 198.282769 
L 91.439048 191.27672 
L 92.042062 190.235316 
L 96.8908 184.270671 
L 98.161496 182.684709 
L 104.280929 178.445187 
L 110.400363 177.447285 
L 116.519797 179.457096 
L 122.639231 184.236223 
L 122.67552 184.270671 
L 128.758665 189.652246 
L 130.59201 191.27672 
L 134.878099 195.475525 
L 137.642201 198.282769 
L 140.997533 203.31162 
L 142.312955 205.288818 
L 145.051247 212.294866 
L 146.245499 219.300915 
L 146.587476 226.306964 
L 146.455271 233.313013 
L 146.073173 240.319062 
L 145.562134 247.325111 
L 144.955079 254.331159 
L 144.208479 261.337208 
L 143.24728 268.343257 
L 142.041505 275.349306 
L 140.997533 280.41989 
L 140.722622 282.355355 
L 139.607573 289.361404 
L 138.578024 296.367452 
L 137.750217 303.373501 
L 137.207227 310.37955 
L 136.990232 317.385599 
L 137.077529 324.391648 
L 137.379504 331.397697 
L 137.762499 338.403745 
L 138.089588 345.409794 
L 138.256872 352.415843 
L 138.207291 359.421892 
L 137.919297 366.427941 
L 137.384318 373.43399 
L 136.587242 380.440038 
L 135.492345 387.446087 
L 134.878099 390.547296 
L 134.461668 394.452136 
L 133.55758 401.458185 
L 132.408162 408.464234 
L 130.886034 415.470283 
L 128.758665 422.476332 
L 128.758665 422.476332 
L 127.367296 429.48238 
L 125.413111 436.488429 
L 122.639231 443.133506 
L 122.544338 443.494478 
L 120.457851 450.500527 
L 117.173645 457.506576 
L 116.519797 458.700739 
L 114.282085 464.512625 
L 110.400363 471.121532 
L 110.213677 471.518673 
L 106.59723 478.524722 
L 104.280929 481.943763 
L 102.076237 485.530771 
L 98.161496 490.818349 
L 96.837908 492.53682 
L 92.042062 498.353094 
L 90.863077 499.542869 
L 85.922628 504.785976 
L 83.588969 506.548918 
L 79.803194 509.936376 
L 73.68376 513.251214 
L 72.469533 513.554966 
L 67.564326 515.386367 
L 61.444892 514.822189 
z
M 232.645417 205.288818 
L 232.789042 204.805006 
L 233.02224 205.288818 
L 232.789042 206.33229 
z
" clip-path="url(#p4eb78901f1)" style="fill: #e5f0e5; fill-opacity: 0.5"/>
    <path d="M 61.444892 514.822189 
L 67.564326 515.386367 
L 72.469533 513.554966 
L 73.68376 513.251214 
L 79.803194 509.936376 
L 83.588969 506.548918 
L 85.922628 504.785976 
L 90.863077 499.542869 
L 92.042062 498.353094 
L 96.837908 492.53682 
L 98.161496 490.818349 
L 102.076237 485.530771 
L 104.280929 481.943763 
L 106.59723 478.524722 
L 110.213677 471.518673 
L 110.400363 471.121532 
L 114.282085 464.512625 
L 116.519797 458.700739 
L 117.173645 457.506576 
L 120.457851 450.500527 
L 122.544338 443.494478 
L 122.639231 443.133506 
L 125.413111 436.488429 
L 127.367296 429.48238 
L 128.758665 422.476332 
L 128.758665 422.476332 
L 130.886034 415.470283 
L 132.408162 408.464234 
L 133.55758 401.458185 
L 134.461668 394.452136 
L 134.878099 390.547296 
L 135.492345 387.446087 
L 136.587242 380.440038 
L 137.384318 373.43399 
L 137.919297 366.427941 
L 138.207291 359.421892 
L 138.256872 352.415843 
L 138.089588 345.409794 
L 137.762499 338.403745 
L 137.379504 331.397697 
L 137.077529 324.391648 
L 136.990232 317.385599 
L 137.207227 310.37955 
L 137.750217 303.373501 
L 138.578024 296.367452 
L 139.607573 289.361404 
L 140.722622 282.355355 
L 140.997533 280.41989 
L 142.041505 275.349306 
L 143.24728 268.343257 
L 144.208479 261.337208 
L 144.955079 254.331159 
L 145.562134 247.325111 
L 146.073173 240.319062 
L 146.455271 233.313013 
L 146.587476 226.306964 
L 146.245499 219.300915 
L 145.051247 212.294866 
L 142.312955 205.288818 
L 140.997533 203.31162 
L 137.642201 198.282769 
L 134.878099 195.475525 
L 130.59201 191.27672 
L 128.758665 189.652246 
L 122.67552 184.270671 
L 122.639231 184.236223 
L 116.519797 179.457096 
L 110.400363 177.447285 
L 104.280929 178.445187 
L 98.161496 182.684709 
L 96.8908 184.270671 
L 92.042062 190.235316 
L 91.439048 191.27672 
L 87.492652 198.282769 
L 85.922628 201.275307 
L 84.136865 205.288818 
L 81.355323 212.294866 
L 79.803194 216.745319 
L 78.916901 219.300915 
L 76.76461 226.306964 
L 75.008831 233.313013 
L 73.68376 239.760216 
L 73.5515 240.319062 
L 72.132784 247.325111 
L 71.010012 254.331159 
L 70.103794 261.337208 
L 69.343962 268.343257 
L 68.671957 275.349306 
L 68.048478 282.355355 
L 67.564326 288.048959 
L 67.41484 289.361404 
L 66.659333 296.367452 
L 66.031672 303.373501 
L 65.548177 310.37955 
L 65.172626 317.385599 
L 64.801917 324.391648 
L 64.299394 331.397697 
L 63.586942 338.403745 
L 62.700139 345.409794 
L 61.738791 352.415843 
L 61.444892 354.347583 
L 60.294488 359.421892 
L 58.766044 366.427941 
L 57.434743 373.43399 
L 56.30412 380.440038 
L 55.35416 387.446087 
L 55.325458 387.665863 
L 53.825886 394.452136 
L 52.560057 401.458185 
L 51.533701 408.464234 
L 50.701539 415.470283 
L 50.026014 422.476332 
L 49.477658 429.48238 
L 49.206024 433.678373 
L 48.858388 436.488429 
L 48.168413 443.494478 
L 47.677857 450.500527 
L 47.380316 457.506576 
L 47.279554 464.512625 
L 47.389343 471.518673 
L 47.740482 478.524722 
L 48.400251 485.530771 
L 49.206024 490.781498 
L 49.402055 492.53682 
L 50.693876 499.542869 
L 53.242789 506.548918 
L 55.325458 510.003316 
L 59.501348 513.554966 
z
M 63.226645 499.542869 
L 61.444892 497.850419 
L 58.645344 492.53682 
L 56.631009 485.530771 
L 55.571582 478.524722 
L 55.325458 475.715372 
L 54.853378 471.518673 
L 54.417411 464.512625 
L 54.277885 457.506576 
L 54.394703 450.500527 
L 54.749255 443.494478 
L 55.325458 436.603587 
L 55.331271 436.488429 
L 55.798598 429.48238 
L 56.390555 422.476332 
L 57.12559 415.470283 
L 58.032629 408.464234 
L 59.151617 401.458185 
L 60.534038 394.452136 
L 61.444892 390.468864 
L 61.914377 387.446087 
L 63.125237 380.440038 
L 64.573296 373.43399 
L 66.300714 366.427941 
L 67.564326 361.814172 
L 68.072806 359.421892 
L 69.60439 352.415843 
L 71.302525 345.409794 
L 73.093437 338.403745 
L 73.68376 335.757452 
L 74.560648 331.397697 
L 75.734051 324.391648 
L 76.63529 317.385599 
L 77.244432 310.37955 
L 77.70207 303.373501 
L 78.208909 296.367452 
L 78.895796 289.361404 
L 79.803194 282.355355 
L 79.803194 282.355355 
L 80.883023 275.349306 
L 82.079671 268.343257 
L 83.409153 261.337208 
L 84.909446 254.331159 
L 85.922628 250.109121 
L 86.7294 247.325111 
L 89.023025 240.319062 
L 91.754277 233.313013 
L 92.042062 232.651414 
L 96.277174 226.306964 
L 98.161496 223.756214 
L 104.280929 220.31197 
L 110.400363 221.269618 
L 115.752375 226.306964 
L 116.519797 227.317419 
L 119.074006 233.313013 
L 120.810801 240.319062 
L 121.686562 247.325111 
L 121.970573 254.331159 
L 121.868747 261.337208 
L 121.587587 268.343257 
L 121.345712 275.349306 
L 121.357172 282.355355 
L 121.755706 289.361404 
L 122.493059 296.367452 
L 122.639231 297.414538 
L 123.402537 303.373501 
L 124.328863 310.37955 
L 125.244041 317.385599 
L 126.139804 324.391648 
L 126.988731 331.397697 
L 127.752116 338.403745 
L 128.392921 345.409794 
L 128.758665 350.567149 
L 128.934279 352.415843 
L 129.388201 359.421892 
L 129.553656 366.427941 
L 129.415292 373.43399 
L 128.968734 380.440038 
L 128.758665 382.400541 
L 128.431122 387.446087 
L 127.809692 394.452136 
L 127.005867 401.458185 
L 125.973475 408.464234 
L 124.623611 415.470283 
L 122.794986 422.476332 
L 122.639231 422.97474 
L 121.32991 429.48238 
L 119.457987 436.488429 
L 116.7808 443.494478 
L 116.519797 444.080125 
L 114.474476 450.500527 
L 111.296211 457.506576 
L 110.400363 459.166583 
L 108.069865 464.512625 
L 104.280929 470.878191 
L 103.927071 471.518673 
L 99.670274 478.524722 
L 98.161496 480.650463 
L 94.505041 485.530771 
L 92.042062 488.582033 
L 88.11516 492.53682 
L 85.922628 494.843248 
L 79.803194 499.292119 
L 79.143666 499.542869 
L 73.68376 502.274023 
L 67.564326 502.413345 
z
" clip-path="url(#p4eb78901f1)" style="fill: #d7e9d7; fill-opacity: 0.5"/>
    <path d="M 67.564326 502.413345 
L 73.68376 502.274023 
L 79.143666 499.542869 
L 79.803194 499.292119 
L 85.922628 494.843248 
L 88.11516 492.53682 
L 92.042062 488.582033 
L 94.505041 485.530771 
L 98.161496 480.650463 
L 99.670274 478.524722 
L 103.927071 471.518673 
L 104.280929 470.878191 
L 108.069865 464.512625 
L 110.400363 459.166583 
L 111.296211 457.506576 
L 114.474476 450.500527 
L 116.519797 444.080125 
L 116.7808 443.494478 
L 119.457987 436.488429 
L 121.32991 429.48238 
L 122.639231 422.97474 
L 122.794986 422.476332 
L 124.623611 415.470283 
L 125.973475 408.464234 
L 127.005867 401.458185 
L 127.809692 394.452136 
L 128.431122 387.446087 
L 128.758665 382.400541 
L 128.968734 380.440038 
L 129.415292 373.43399 
L 129.553656 366.427941 
L 129.388201 359.421892 
L 128.934279 352.415843 
L 128.758665 350.567149 
L 128.392921 345.409794 
L 127.752116 338.403745 
L 126.988731 331.397697 
L 126.139804 324.391648 
L 125.244041 317.385599 
L 124.328863 310.37955 
L 123.402537 303.373501 
L 122.639231 297.414538 
L 122.493059 296.367452 
L 121.755706 289.361404 
L 121.357172 282.355355 
L 121.345712 275.349306 
L 121.587587 268.343257 
L 121.868747 261.337208 
L 121.970573 254.331159 
L 121.686562 247.325111 
L 120.810801 240.319062 
L 119.074006 233.313013 
L 116.519797 227.317419 
L 115.752375 226.306964 
L 110.400363 221.269618 
L 104.280929 220.31197 
L 98.161496 223.756214 
L 96.277174 226.306964 
L 92.042062 232.651414 
L 91.754277 233.313013 
L 89.023025 240.319062 
L 86.7294 247.325111 
L 85.922628 250.109121 
L 84.909446 254.331159 
L 83.409153 261.337208 
L 82.079671 268.343257 
L 80.883023 275.349306 
L 79.803194 282.355355 
L 79.803194 282.355355 
L 78.895796 289.361404 
L 78.208909 296.367452 
L 77.70207 303.373501 
L 77.244432 310.37955 
L 76.63529 317.385599 
L 75.734051 324.391648 
L 74.560648 331.397697 
L 73.68376 335.757452 
L 73.093437 338.403745 
L 71.302525 345.409794 
L 69.60439 352.415843 
L 68.072806 359.421892 
L 67.564326 361.814172 
L 66.300714 366.427941 
L 64.573296 373.43399 
L 63.125237 380.440038 
L 61.914377 387.446087 
L 61.444892 390.468864 
L 60.534038 394.452136 
L 59.151617 401.458185 
L 58.032629 408.464234 
L 57.12559 415.470283 
L 56.390555 422.476332 
L 55.798598 429.48238 
L 55.331271 436.488429 
L 55.325458 436.603587 
L 54.749255 443.494478 
L 54.394703 450.500527 
L 54.277885 457.506576 
L 54.417411 464.512625 
L 54.853378 471.518673 
L 55.325458 475.715372 
L 55.571582 478.524722 
L 56.631009 485.530771 
L 58.645344 492.53682 
L 61.444892 497.850419 
L 63.226645 499.542869 
z
M 67.700638 492.53682 
L 67.564326 492.481966 
L 62.929603 485.530771 
L 61.444892 480.998513 
L 60.77614 478.524722 
L 59.539718 471.518673 
L 58.839771 464.512625 
L 58.500143 457.506576 
L 58.437793 450.500527 
L 58.611309 443.494478 
L 58.999292 436.488429 
L 59.594058 429.48238 
L 60.401739 422.476332 
L 61.444892 415.470283 
L 61.444892 415.470283 
L 62.274025 408.464234 
L 63.277376 401.458185 
L 64.495549 394.452136 
L 65.980772 387.446087 
L 67.564326 381.231179 
L 67.722584 380.440038 
L 69.206072 373.43399 
L 70.959462 366.427941 
L 73.030353 359.421892 
L 73.68376 357.295896 
L 75.039921 352.415843 
L 77.14349 345.409794 
L 79.471569 338.403745 
L 79.803194 337.317554 
L 81.742295 331.397697 
L 84.001428 324.391648 
L 85.922628 317.895133 
L 86.129478 317.385599 
L 88.203282 310.37955 
L 89.766539 303.373501 
L 90.736758 296.367452 
L 91.40643 289.361404 
L 92.042062 283.871139 
L 92.457335 282.355355 
L 94.893164 275.349306 
L 97.450165 268.343257 
L 98.161496 266.680553 
L 104.280929 268.082503 
L 104.344114 268.343257 
L 105.048813 275.349306 
L 105.245617 282.355355 
L 105.691689 289.361404 
L 107.270287 296.367452 
L 110.400363 302.735718 
L 110.602791 303.373501 
L 113.460368 310.37955 
L 116.206745 317.385599 
L 116.519797 318.18672 
L 118.273386 324.391648 
L 119.983057 331.397697 
L 121.379623 338.403745 
L 122.477574 345.409794 
L 122.639231 346.654032 
L 123.467189 352.415843 
L 124.214757 359.421892 
L 124.671457 366.427941 
L 124.832066 373.43399 
L 124.703055 380.440038 
L 124.294738 387.446087 
L 123.60807 394.452136 
L 122.639231 401.331128 
L 122.627131 401.458185 
L 121.785006 408.464234 
L 120.716587 415.470283 
L 119.334443 422.476332 
L 117.484525 429.48238 
L 116.519797 432.372378 
L 115.512368 436.488429 
L 113.362705 443.494478 
L 110.400363 450.403399 
L 110.365775 450.500527 
L 107.570939 457.506576 
L 104.280929 463.555473 
L 103.789006 464.512625 
L 99.768634 471.518673 
L 98.161496 473.908827 
L 94.817094 478.524722 
L 92.042062 482.060671 
L 88.577244 485.530771 
L 85.922628 488.291267 
L 79.803194 492.397532 
L 79.259403 492.53682 
L 73.68376 494.40441 
z
" clip-path="url(#p4eb78901f1)" style="fill: #c6e1c6; fill-opacity: 0.5"/>
    <path d="M 73.68376 494.40441 
L 79.259403 492.53682 
L 79.803194 492.397532 
L 85.922628 488.291267 
L 88.577244 485.530771 
L 92.042062 482.060671 
L 94.817094 478.524722 
L 98.161496 473.908827 
L 99.768634 471.518673 
L 103.789006 464.512625 
L 104.280929 463.555473 
L 107.570939 457.506576 
L 110.365775 450.500527 
L 110.400363 450.403399 
L 113.362705 443.494478 
L 115.512368 436.488429 
L 116.519797 432.372378 
L 117.484525 429.48238 
L 119.334443 422.476332 
L 120.716587 415.470283 
L 121.785006 408.464234 
L 122.627131 401.458185 
L 122.639231 401.331128 
L 123.60807 394.452136 
L 124.294738 387.446087 
L 124.703055 380.440038 
L 124.832066 373.43399 
L 124.671457 366.427941 
L 124.214757 359.421892 
L 123.467189 352.415843 
L 122.639231 346.654032 
L 122.477574 345.409794 
L 121.379623 338.403745 
L 119.983057 331.397697 
L 118.273386 324.391648 
L 116.519797 318.18672 
L 116.206745 317.385599 
L 113.460368 310.37955 
L 110.602791 303.373501 
L 110.400363 302.735718 
L 107.270287 296.367452 
L 105.691689 289.361404 
L 105.245617 282.355355 
L 105.048813 275.349306 
L 104.344114 268.343257 
L 104.280929 268.082503 
L 98.161496 266.680553 
L 97.450165 268.343257 
L 94.893164 275.349306 
L 92.457335 282.355355 
L 92.042062 283.871139 
L 91.40643 289.361404 
L 90.736758 296.367452 
L 89.766539 303.373501 
L 88.203282 310.37955 
L 86.129478 317.385599 
L 85.922628 317.895133 
L 84.001428 324.391648 
L 81.742295 331.397697 
L 79.803194 337.317554 
L 79.471569 338.403745 
L 77.14349 345.409794 
L 75.039921 352.415843 
L 73.68376 357.295896 
L 73.030353 359.421892 
L 70.959462 366.427941 
L 69.206072 373.43399 
L 67.722584 380.440038 
L 67.564326 381.231179 
L 65.980772 387.446087 
L 64.495549 394.452136 
L 63.277376 401.458185 
L 62.274025 408.464234 
L 61.444892 415.470283 
L 61.444892 415.470283 
L 60.401739 422.476332 
L 59.594058 429.48238 
L 58.999292 436.488429 
L 58.611309 443.494478 
L 58.437793 450.500527 
L 58.500143 457.506576 
L 58.839771 464.512625 
L 59.539718 471.518673 
L 60.77614 478.524722 
L 61.444892 480.998513 
L 62.929603 485.530771 
L 67.564326 492.481966 
L 67.700638 492.53682 
z
M 67.218529 478.524722 
L 65.012554 471.518673 
L 63.807812 464.512625 
L 63.170684 457.506576 
L 62.908986 450.500527 
L 62.93162 443.494478 
L 63.189626 436.488429 
L 63.655719 429.48238 
L 64.319815 422.476332 
L 65.188554 415.470283 
L 66.285584 408.464234 
L 67.564326 401.877769 
L 67.62949 401.458185 
L 68.84492 394.452136 
L 70.29365 387.446087 
L 72.033622 380.440038 
L 73.68376 374.78705 
L 74.04713 373.43399 
L 76.04045 366.427941 
L 78.368675 359.421892 
L 79.803194 355.466473 
L 81.003003 352.415843 
L 83.886126 345.409794 
L 85.922628 340.767193 
L 87.320687 338.403745 
L 91.425702 331.397697 
L 92.042062 330.285895 
L 98.161496 324.646635 
L 104.280929 324.531595 
L 110.400363 330.907262 
L 110.626161 331.397697 
L 113.620508 338.403745 
L 115.850522 345.409794 
L 116.519797 348.075749 
L 117.454227 352.415843 
L 118.630761 359.421892 
L 119.440355 366.427941 
L 119.906091 373.43399 
L 120.049753 380.440038 
L 119.898074 387.446087 
L 119.475322 394.452136 
L 118.790433 401.458185 
L 117.824982 408.464234 
L 116.519797 415.470283 
L 116.519797 415.470283 
L 115.297161 422.476332 
L 113.743678 429.48238 
L 111.705003 436.488429 
L 110.400363 440.022867 
L 109.316764 443.494478 
L 106.657194 450.500527 
L 104.280929 455.38659 
L 103.284513 457.506576 
L 99.483125 464.512625 
L 98.161496 466.619341 
L 94.755806 471.518673 
L 92.042062 475.108119 
L 88.593599 478.524722 
L 85.922628 481.258857 
L 79.803194 484.891869 
L 73.68376 485.339856 
L 67.564326 479.269202 
z
" clip-path="url(#p4eb78901f1)" style="fill: #b1d7b1; fill-opacity: 0.5"/>
    <path d="M 67.564326 479.269202 
L 73.68376 485.339856 
L 79.803194 484.891869 
L 85.922628 481.258857 
L 88.593599 478.524722 
L 92.042062 475.108119 
L 94.755806 471.518673 
L 98.161496 466.619341 
L 99.483125 464.512625 
L 103.284513 457.506576 
L 104.280929 455.38659 
L 106.657194 450.500527 
L 109.316764 443.494478 
L 110.400363 440.022867 
L 111.705003 436.488429 
L 113.743678 429.48238 
L 115.297161 422.476332 
L 116.519797 415.470283 
L 116.519797 415.470283 
L 117.824982 408.464234 
L 118.790433 401.458185 
L 119.475322 394.452136 
L 119.898074 387.446087 
L 120.049753 380.440038 
L 119.906091 373.43399 
L 119.440355 366.427941 
L 118.630761 359.421892 
L 117.454227 352.415843 
L 116.519797 348.075749 
L 115.850522 345.409794 
L 113.620508 338.403745 
L 110.626161 331.397697 
L 110.400363 330.907262 
L 104.280929 324.531595 
L 98.161496 324.646635 
L 92.042062 330.285895 
L 91.425702 331.397697 
L 87.320687 338.403745 
L 85.922628 340.767193 
L 83.886126 345.409794 
L 81.003003 352.415843 
L 79.803194 355.466473 
L 78.368675 359.421892 
L 76.04045 366.427941 
L 74.04713 373.43399 
L 73.68376 374.78705 
L 72.033622 380.440038 
L 70.29365 387.446087 
L 68.84492 394.452136 
L 67.62949 401.458185 
L 67.564326 401.877769 
L 66.285584 408.464234 
L 65.188554 415.470283 
L 64.319815 422.476332 
L 63.655719 429.48238 
L 63.189626 436.488429 
L 62.93162 443.494478 
L 62.908986 450.500527 
L 63.170684 457.506576 
L 63.807812 464.512625 
L 65.012554 471.518673 
L 67.218529 478.524722 
z
M 73.019902 471.518673 
L 70.195952 464.512625 
L 68.767598 457.506576 
L 68.076972 450.500527 
L 67.853528 443.494478 
L 67.970139 436.488429 
L 68.355768 429.48238 
L 68.970048 422.476332 
L 69.798003 415.470283 
L 70.84702 408.464234 
L 72.143889 401.458185 
L 73.68376 394.660895 
L 73.72859 394.452136 
L 75.387427 387.446087 
L 77.328235 380.440038 
L 79.626726 373.43399 
L 79.803194 372.927722 
L 82.313052 366.427941 
L 85.375812 359.421892 
L 85.922628 358.21493 
L 89.575401 352.415843 
L 92.042062 348.584989 
L 96.461818 345.409794 
L 98.161496 344.061183 
L 104.280929 345.409794 
L 104.280929 345.409794 
L 108.847381 352.415843 
L 110.400363 355.747718 
L 111.471597 359.421892 
L 113.016056 366.427941 
L 114.029371 373.43399 
L 114.585468 380.440038 
L 114.743303 387.446087 
L 114.558401 394.452136 
L 114.0747 401.458185 
L 113.311147 408.464234 
L 112.252124 415.470283 
L 110.838298 422.476332 
L 110.400363 424.191498 
L 109.211945 429.48238 
L 107.271719 436.488429 
L 104.787546 443.494478 
L 104.280929 444.688377 
L 101.832567 450.500527 
L 98.242413 457.506576 
L 98.161496 457.647496 
L 93.630788 464.512625 
L 92.042062 466.720737 
L 87.106987 471.518673 
L 85.922628 472.704134 
L 79.803194 475.32462 
L 73.68376 472.570897 
z
" clip-path="url(#p4eb78901f1)" style="fill: #94c994; fill-opacity: 0.5"/>
    <path d="M 73.68376 472.570897 
L 79.803194 475.32462 
L 85.922628 472.704134 
L 87.106987 471.518673 
L 92.042062 466.720737 
L 93.630788 464.512625 
L 98.161496 457.647496 
L 98.242413 457.506576 
L 101.832567 450.500527 
L 104.280929 444.688377 
L 104.787546 443.494478 
L 107.271719 436.488429 
L 109.211945 429.48238 
L 110.400363 424.191498 
L 110.838298 422.476332 
L 112.252124 415.470283 
L 113.311147 408.464234 
L 114.0747 401.458185 
L 114.558401 394.452136 
L 114.743303 387.446087 
L 114.585468 380.440038 
L 114.029371 373.43399 
L 113.016056 366.427941 
L 111.471597 359.421892 
L 110.400363 355.747718 
L 108.847381 352.415843 
L 104.280929 345.409794 
L 104.280929 345.409794 
L 98.161496 344.061183 
L 96.461818 345.409794 
L 92.042062 348.584989 
L 89.575401 352.415843 
L 85.922628 358.21493 
L 85.375812 359.421892 
L 82.313052 366.427941 
L 79.803194 372.927722 
L 79.626726 373.43399 
L 77.328235 380.440038 
L 75.387427 387.446087 
L 73.72859 394.452136 
L 73.68376 394.660895 
L 72.143889 401.458185 
L 70.84702 408.464234 
L 69.798003 415.470283 
L 68.970048 422.476332 
L 68.355768 429.48238 
L 67.970139 436.488429 
L 67.853528 443.494478 
L 68.076972 450.500527 
L 68.767598 457.506576 
L 70.195952 464.512625 
L 73.019902 471.518673 
z
M 78.498664 464.512625 
L 74.251336 457.506576 
L 73.68376 455.602911 
L 72.751776 450.500527 
L 72.115316 443.494478 
L 71.972867 436.488429 
L 72.224091 429.48238 
L 72.814335 422.476332 
L 73.68376 415.733712 
L 73.717313 415.470283 
L 74.8515 408.464234 
L 76.218271 401.458185 
L 77.851248 394.452136 
L 79.803194 387.446087 
L 79.803194 387.446087 
L 82.26482 380.440038 
L 85.049221 373.43399 
L 85.922628 371.400802 
L 89.065646 366.427941 
L 92.042062 361.842379 
L 96.200126 359.421892 
L 98.161496 358.169531 
L 100.468526 359.421892 
L 104.280929 362.004815 
L 106.226769 366.427941 
L 108.372993 373.43399 
L 109.659294 380.440038 
L 110.272146 387.446087 
L 110.351971 394.452136 
L 110.015248 401.458185 
L 109.343679 408.464234 
L 108.372242 415.470283 
L 107.08835 422.476332 
L 105.433076 429.48238 
L 104.280929 433.335943 
L 103.285465 436.488429 
L 100.677673 443.494478 
L 98.161496 449.112519 
L 97.370782 450.500527 
L 93.035284 457.506576 
L 92.042062 458.979976 
L 86.167896 464.512625 
L 85.922628 464.750047 
L 79.803194 465.718926 
z
" clip-path="url(#p4eb78901f1)" style="fill: #74b974; fill-opacity: 0.5"/>
    <path d="M 79.803194 465.718926 
L 85.922628 464.750047 
L 86.167896 464.512625 
L 92.042062 458.979976 
L 93.035284 457.506576 
L 97.370782 450.500527 
L 98.161496 449.112519 
L 100.677673 443.494478 
L 103.285465 436.488429 
L 104.280929 433.335943 
L 105.433076 429.48238 
L 107.08835 422.476332 
L 108.372242 415.470283 
L 109.343679 408.464234 
L 110.015248 401.458185 
L 110.351971 394.452136 
L 110.272146 387.446087 
L 109.659294 380.440038 
L 108.372993 373.43399 
L 106.226769 366.427941 
L 104.280929 362.004815 
L 100.468526 359.421892 
L 98.161496 358.169531 
L 96.200126 359.421892 
L 92.042062 361.842379 
L 89.065646 366.427941 
L 85.922628 371.400802 
L 85.049221 373.43399 
L 82.26482 380.440038 
L 79.803194 387.446087 
L 79.803194 387.446087 
L 77.851248 394.452136 
L 76.218271 401.458185 
L 74.8515 408.464234 
L 73.717313 415.470283 
L 73.68376 415.733712 
L 72.814335 422.476332 
L 72.224091 429.48238 
L 71.972867 436.488429 
L 72.115316 443.494478 
L 72.751776 450.500527 
L 73.68376 455.602911 
L 74.251336 457.506576 
L 78.498664 464.512625 
z
M 79.326708 450.500527 
L 77.5902 443.494478 
L 76.863862 436.488429 
L 76.79748 429.48238 
L 77.214527 422.476332 
L 78.020395 415.470283 
L 79.172282 408.464234 
L 79.803194 405.453252 
L 80.831425 401.458185 
L 82.899572 394.452136 
L 85.263576 387.446087 
L 85.922628 385.692607 
L 89.102036 380.440038 
L 92.042062 375.71023 
L 98.161496 373.43399 
L 102.815657 380.440038 
L 104.280929 384.481117 
L 104.809771 387.446087 
L 105.439106 394.452136 
L 105.486239 401.458185 
L 105.051351 408.464234 
L 104.280929 414.717945 
L 104.172753 415.470283 
L 102.733919 422.476332 
L 100.948838 429.48238 
L 98.762864 436.488429 
L 98.161496 438.072008 
L 95.370891 443.494478 
L 92.042062 449.475296 
L 90.78894 450.500527 
L 85.922628 454.607394 
L 79.803194 451.640835 
z
" clip-path="url(#p4eb78901f1)" style="fill: #52a852; fill-opacity: 0.5"/>
    <path d="M 79.803194 451.640835 
L 85.922628 454.607394 
L 90.78894 450.500527 
L 92.042062 449.475296 
L 95.370891 443.494478 
L 98.161496 438.072008 
L 98.762864 436.488429 
L 100.948838 429.48238 
L 102.733919 422.476332 
L 104.172753 415.470283 
L 104.280929 414.717945 
L 105.051351 408.464234 
L 105.486239 401.458185 
L 105.439106 394.452136 
L 104.809771 387.446087 
L 104.280929 384.481117 
L 102.815657 380.440038 
L 98.161496 373.43399 
L 92.042062 375.71023 
L 89.102036 380.440038 
L 85.922628 385.692607 
L 85.263576 387.446087 
L 82.899572 394.452136 
L 80.831425 401.458185 
L 79.803194 405.453252 
L 79.172282 408.464234 
L 78.020395 415.470283 
L 77.214527 422.476332 
L 76.79748 429.48238 
L 76.863862 436.488429 
L 77.5902 443.494478 
L 79.326708 450.500527 
z
M 82.467904 436.488429 
L 81.423151 429.48238 
L 81.555229 422.476332 
L 82.378538 415.470283 
L 83.679168 408.464234 
L 85.375383 401.458185 
L 85.922628 399.610114 
L 88.740171 394.452136 
L 92.042062 388.5447 
L 98.161496 389.2411 
L 99.716129 394.452136 
L 100.589784 401.458185 
L 100.558634 408.464234 
L 99.883455 415.470283 
L 98.698646 422.476332 
L 98.161496 424.702315 
L 96.346099 429.48238 
L 93.367807 436.488429 
L 92.042062 439.219656 
L 85.922628 443.494478 
z
" clip-path="url(#p4eb78901f1)" style="fill: #309730; fill-opacity: 0.5"/>
    <path d="M 85.922628 443.494478 
L 92.042062 439.219656 
L 93.367807 436.488429 
L 96.346099 429.48238 
L 98.161496 424.702315 
L 98.698646 422.476332 
L 99.883455 415.470283 
L 100.558634 408.464234 
L 100.589784 401.458185 
L 99.716129 394.452136 
L 98.161496 389.2411 
L 92.042062 388.5447 
L 88.740171 394.452136 
L 85.922628 399.610114 
L 85.375383 401.458185 
L 83.679168 408.464234 
L 82.378538 415.470283 
L 81.555229 422.476332 
L 81.423151 429.48238 
L 82.467904 436.488429 
z
" clip-path="url(#p4eb78901f1)" style="fill: #108810; fill-opacity: 0.5"/>
   </g>
   <g id="matplotlib.axis_1">
    <g id="xtick_1">
     <g id="line2d_1">
      <defs>
       <path id="mab655fa0cc" d="M 0 0 
L 0 3.5 
" style="stroke: #000000; stroke-width: 0.8"/>
      </defs>
      <g>
       <use xlink:href="#mab655fa0cc" x="143.910969" y="499.48" style="stroke: #000000; stroke-width: 0.8"/>
      </g>
     </g>
     <g id="text_1">
      <!-- 5 -->
      <g transform="translate(136.912219 523.196563) scale(0.22 -0.22)">
       <defs>
        <path id="DejaVuSans-35" d="M 691 4666 
L 3169 4666 
L 3169 4134 
L 1269 4134 
L 1269 2991 
Q 1406 3038 1543 3061 
Q 1681 3084 1819 3084 
Q 2600 3084 3056 2656 
Q 3513 2228 3513 1497 
Q 3513 744 3044 326 
Q 2575 -91 1722 -91 
Q 1428 -91 1123 -41 
Q 819 9 494 109 
L 494 744 
Q 775 591 1075 516 
Q 1375 441 1709 441 
Q 2250 441 2565 725 
Q 2881 1009 2881 1497 
Q 2881 1984 2565 2268 
Q 2250 2553 1709 2553 
Q 1456 2553 1204 2497 
Q 953 2441 691 2322 
L 691 4666 
z
" transform="scale(0.015625)"/>
       </defs>
       <use xlink:href="#DejaVuSans-35"/>
      </g>
     </g>
    </g>
    <g id="xtick_2">
     <g id="line2d_2">
      <g>
       <use xlink:href="#mab655fa0cc" x="226.323561" y="499.48" style="stroke: #000000; stroke-width: 0.8"/>
      </g>
     </g>
     <g id="text_2">
      <!-- 10 -->
      <g transform="translate(212.326061 523.196563) scale(0.22 -0.22)">
       <defs>
        <path id="DejaVuSans-31" d="M 794 531 
L 1825 531 
L 1825 4091 
L 703 3866 
L 703 4441 
L 1819 4666 
L 2450 4666 
L 2450 531 
L 3481 531 
L 3481 0 
L 794 0 
L 794 531 
z
" transform="scale(0.015625)"/>
        <path id="DejaVuSans-30" d="M 2034 4250 
Q 1547 4250 1301 3770 
Q 1056 3291 1056 2328 
Q 1056 1369 1301 889 
Q 1547 409 2034 409 
Q 2525 409 2770 889 
Q 3016 1369 3016 2328 
Q 3016 3291 2770 3770 
Q 2525 4250 2034 4250 
z
M 2034 4750 
Q 2819 4750 3233 4129 
Q 3647 3509 3647 2328 
Q 3647 1150 3233 529 
Q 2819 -91 2034 -91 
Q 1250 -91 836 529 
Q 422 1150 422 2328 
Q 422 3509 836 4129 
Q 1250 4750 2034 4750 
z
" transform="scale(0.015625)"/>
       </defs>
       <use xlink:href="#DejaVuSans-31"/>
       <use xlink:href="#DejaVuSans-30" x="63.623047"/>
      </g>
     </g>
    </g>
    <g id="xtick_3">
     <g id="line2d_3">
      <g>
       <use xlink:href="#mab655fa0cc" x="308.736153" y="499.48" style="stroke: #000000; stroke-width: 0.8"/>
      </g>
     </g>
     <g id="text_3">
      <!-- 15 -->
      <g transform="translate(294.738653 523.196563) scale(0.22 -0.22)">
       <use xlink:href="#DejaVuSans-31"/>
       <use xlink:href="#DejaVuSans-35" x="63.623047"/>
      </g>
     </g>
    </g>
    <g id="xtick_4">
     <g id="line2d_4">
      <g>
       <use xlink:href="#mab655fa0cc" x="391.148745" y="499.48" style="stroke: #000000; stroke-width: 0.8"/>
      </g>
     </g>
     <g id="text_4">
      <!-- 20 -->
      <g transform="translate(377.151245 523.196563) scale(0.22 -0.22)">
       <defs>
        <path id="DejaVuSans-32" d="M 1228 531 
L 3431 531 
L 3431 0 
L 469 0 
L 469 531 
Q 828 903 1448 1529 
Q 2069 2156 2228 2338 
Q 2531 2678 2651 2914 
Q 2772 3150 2772 3378 
Q 2772 3750 2511 3984 
Q 2250 4219 1831 4219 
Q 1534 4219 1204 4116 
Q 875 4013 500 3803 
L 500 4441 
Q 881 4594 1212 4672 
Q 1544 4750 1819 4750 
Q 2544 4750 2975 4387 
Q 3406 4025 3406 3419 
Q 3406 3131 3298 2873 
Q 3191 2616 2906 2266 
Q 2828 2175 2409 1742 
Q 1991 1309 1228 531 
z
" transform="scale(0.015625)"/>
       </defs>
       <use xlink:href="#DejaVuSans-32"/>
       <use xlink:href="#DejaVuSans-30" x="63.623047"/>
      </g>
     </g>
    </g>
    <g id="xtick_5">
     <g id="line2d_5">
      <g>
       <use xlink:href="#mab655fa0cc" x="473.561337" y="499.48" style="stroke: #000000; stroke-width: 0.8"/>
      </g>
     </g>
     <g id="text_5">
      <!-- 25 -->
      <g transform="translate(459.563837 523.196563) scale(0.22 -0.22)">
       <use xlink:href="#DejaVuSans-32"/>
       <use xlink:href="#DejaVuSans-35" x="63.623047"/>
      </g>
     </g>
    </g>
    <g id="xtick_6">
     <g id="line2d_6">
      <g>
       <use xlink:href="#mab655fa0cc" x="555.973929" y="499.48" style="stroke: #000000; stroke-width: 0.8"/>
      </g>
     </g>
     <g id="text_6">
      <!-- 30 -->
      <g transform="translate(541.976429 523.196563) scale(0.22 -0.22)">
       <defs>
        <path id="DejaVuSans-33" d="M 2597 2516 
Q 3050 2419 3304 2112 
Q 3559 1806 3559 1356 
Q 3559 666 3084 287 
Q 2609 -91 1734 -91 
Q 1441 -91 1130 -33 
Q 819 25 488 141 
L 488 750 
Q 750 597 1062 519 
Q 1375 441 1716 441 
Q 2309 441 2620 675 
Q 2931 909 2931 1356 
Q 2931 1769 2642 2001 
Q 2353 2234 1838 2234 
L 1294 2234 
L 1294 2753 
L 1863 2753 
Q 2328 2753 2575 2939 
Q 2822 3125 2822 3475 
Q 2822 3834 2567 4026 
Q 2313 4219 1838 4219 
Q 1578 4219 1281 4162 
Q 984 4106 628 3988 
L 628 4550 
Q 988 4650 1302 4700 
Q 1616 4750 1894 4750 
Q 2613 4750 3031 4423 
Q 3450 4097 3450 3541 
Q 3450 3153 3228 2886 
Q 3006 2619 2597 2516 
z
" transform="scale(0.015625)"/>
       </defs>
       <use xlink:href="#DejaVuSans-33"/>
       <use xlink:href="#DejaVuSans-30" x="63.623047"/>
      </g>
     </g>
    </g>
    <g id="xtick_7">
     <g id="line2d_7">
      <g>
       <use xlink:href="#mab655fa0cc" x="638.386521" y="499.48" style="stroke: #000000; stroke-width: 0.8"/>
      </g>
     </g>
     <g id="text_7">
      <!-- 35 -->
      <g transform="translate(624.389021 523.196563) scale(0.22 -0.22)">
       <use xlink:href="#DejaVuSans-33"/>
       <use xlink:href="#DejaVuSans-35" x="63.623047"/>
      </g>
     </g>
    </g>
    <g id="text_8">
     <!-- Energy Uncertainties -->
     <g transform="translate(274.662188 548.488438) scale(0.22 -0.22)">
      <defs>
       <path id="DejaVuSans-45" d="M 628 4666 
L 3578 4666 
L 3578 4134 
L 1259 4134 
L 1259 2753 
L 3481 2753 
L 3481 2222 
L 1259 2222 
L 1259 531 
L 3634 531 
L 3634 0 
L 628 0 
L 628 4666 
z
" transform="scale(0.015625)"/>
       <path id="DejaVuSans-6e" d="M 3513 2113 
L 3513 0 
L 2938 0 
L 2938 2094 
Q 2938 2591 2744 2837 
Q 2550 3084 2163 3084 
Q 1697 3084 1428 2787 
Q 1159 2491 1159 1978 
L 1159 0 
L 581 0 
L 581 3500 
L 1159 3500 
L 1159 2956 
Q 1366 3272 1645 3428 
Q 1925 3584 2291 3584 
Q 2894 3584 3203 3211 
Q 3513 2838 3513 2113 
z
" transform="scale(0.015625)"/>
       <path id="DejaVuSans-65" d="M 3597 1894 
L 3597 1613 
L 953 1613 
Q 991 1019 1311 708 
Q 1631 397 2203 397 
Q 2534 397 2845 478 
Q 3156 559 3463 722 
L 3463 178 
Q 3153 47 2828 -22 
Q 2503 -91 2169 -91 
Q 1331 -91 842 396 
Q 353 884 353 1716 
Q 353 2575 817 3079 
Q 1281 3584 2069 3584 
Q 2775 3584 3186 3129 
Q 3597 2675 3597 1894 
z
M 3022 2063 
Q 3016 2534 2758 2815 
Q 2500 3097 2075 3097 
Q 1594 3097 1305 2825 
Q 1016 2553 972 2059 
L 3022 2063 
z
" transform="scale(0.015625)"/>
       <path id="DejaVuSans-72" d="M 2631 2963 
Q 2534 3019 2420 3045 
Q 2306 3072 2169 3072 
Q 1681 3072 1420 2755 
Q 1159 2438 1159 1844 
L 1159 0 
L 581 0 
L 581 3500 
L 1159 3500 
L 1159 2956 
Q 1341 3275 1631 3429 
Q 1922 3584 2338 3584 
Q 2397 3584 2469 3576 
Q 2541 3569 2628 3553 
L 2631 2963 
z
" transform="scale(0.015625)"/>
       <path id="DejaVuSans-67" d="M 2906 1791 
Q 2906 2416 2648 2759 
Q 2391 3103 1925 3103 
Q 1463 3103 1205 2759 
Q 947 2416 947 1791 
Q 947 1169 1205 825 
Q 1463 481 1925 481 
Q 2391 481 2648 825 
Q 2906 1169 2906 1791 
z
M 3481 434 
Q 3481 -459 3084 -895 
Q 2688 -1331 1869 -1331 
Q 1566 -1331 1297 -1286 
Q 1028 -1241 775 -1147 
L 775 -588 
Q 1028 -725 1275 -790 
Q 1522 -856 1778 -856 
Q 2344 -856 2625 -561 
Q 2906 -266 2906 331 
L 2906 616 
Q 2728 306 2450 153 
Q 2172 0 1784 0 
Q 1141 0 747 490 
Q 353 981 353 1791 
Q 353 2603 747 3093 
Q 1141 3584 1784 3584 
Q 2172 3584 2450 3431 
Q 2728 3278 2906 2969 
L 2906 3500 
L 3481 3500 
L 3481 434 
z
" transform="scale(0.015625)"/>
       <path id="DejaVuSans-79" d="M 2059 -325 
Q 1816 -950 1584 -1140 
Q 1353 -1331 966 -1331 
L 506 -1331 
L 506 -850 
L 844 -850 
Q 1081 -850 1212 -737 
Q 1344 -625 1503 -206 
L 1606 56 
L 191 3500 
L 800 3500 
L 1894 763 
L 2988 3500 
L 3597 3500 
L 2059 -325 
z
" transform="scale(0.015625)"/>
       <path id="DejaVuSans-20" transform="scale(0.015625)"/>
       <path id="DejaVuSans-55" d="M 556 4666 
L 1191 4666 
L 1191 1831 
Q 1191 1081 1462 751 
Q 1734 422 2344 422 
Q 2950 422 3222 751 
Q 3494 1081 3494 1831 
L 3494 4666 
L 4128 4666 
L 4128 1753 
Q 4128 841 3676 375 
Q 3225 -91 2344 -91 
Q 1459 -91 1007 375 
Q 556 841 556 1753 
L 556 4666 
z
" transform="scale(0.015625)"/>
       <path id="DejaVuSans-63" d="M 3122 3366 
L 3122 2828 
Q 2878 2963 2633 3030 
Q 2388 3097 2138 3097 
Q 1578 3097 1268 2742 
Q 959 2388 959 1747 
Q 959 1106 1268 751 
Q 1578 397 2138 397 
Q 2388 397 2633 464 
Q 2878 531 3122 666 
L 3122 134 
Q 2881 22 2623 -34 
Q 2366 -91 2075 -91 
Q 1284 -91 818 406 
Q 353 903 353 1747 
Q 353 2603 823 3093 
Q 1294 3584 2113 3584 
Q 2378 3584 2631 3529 
Q 2884 3475 3122 3366 
z
" transform="scale(0.015625)"/>
       <path id="DejaVuSans-74" d="M 1172 4494 
L 1172 3500 
L 2356 3500 
L 2356 3053 
L 1172 3053 
L 1172 1153 
Q 1172 725 1289 603 
Q 1406 481 1766 481 
L 2356 481 
L 2356 0 
L 1766 0 
Q 1100 0 847 248 
Q 594 497 594 1153 
L 594 3053 
L 172 3053 
L 172 3500 
L 594 3500 
L 594 4494 
L 1172 4494 
z
" transform="scale(0.015625)"/>
       <path id="DejaVuSans-61" d="M 2194 1759 
Q 1497 1759 1228 1600 
Q 959 1441 959 1056 
Q 959 750 1161 570 
Q 1363 391 1709 391 
Q 2188 391 2477 730 
Q 2766 1069 2766 1631 
L 2766 1759 
L 2194 1759 
z
M 3341 1997 
L 3341 0 
L 2766 0 
L 2766 531 
Q 2569 213 2275 61 
Q 1981 -91 1556 -91 
Q 1019 -91 701 211 
Q 384 513 384 1019 
Q 384 1609 779 1909 
Q 1175 2209 1959 2209 
L 2766 2209 
L 2766 2266 
Q 2766 2663 2505 2880 
Q 2244 3097 1772 3097 
Q 1472 3097 1187 3025 
Q 903 2953 641 2809 
L 641 3341 
Q 956 3463 1253 3523 
Q 1550 3584 1831 3584 
Q 2591 3584 2966 3190 
Q 3341 2797 3341 1997 
z
" transform="scale(0.015625)"/>
       <path id="DejaVuSans-69" d="M 603 3500 
L 1178 3500 
L 1178 0 
L 603 0 
L 603 3500 
z
M 603 4863 
L 1178 4863 
L 1178 4134 
L 603 4134 
L 603 4863 
z
" transform="scale(0.015625)"/>
       <path id="DejaVuSans-73" d="M 2834 3397 
L 2834 2853 
Q 2591 2978 2328 3040 
Q 2066 3103 1784 3103 
Q 1356 3103 1142 2972 
Q 928 2841 928 2578 
Q 928 2378 1081 2264 
Q 1234 2150 1697 2047 
L 1894 2003 
Q 2506 1872 2764 1633 
Q 3022 1394 3022 966 
Q 3022 478 2636 193 
Q 2250 -91 1575 -91 
Q 1294 -91 989 -36 
Q 684 19 347 128 
L 347 722 
Q 666 556 975 473 
Q 1284 391 1588 391 
Q 1994 391 2212 530 
Q 2431 669 2431 922 
Q 2431 1156 2273 1281 
Q 2116 1406 1581 1522 
L 1381 1569 
Q 847 1681 609 1914 
Q 372 2147 372 2553 
Q 372 3047 722 3315 
Q 1072 3584 1716 3584 
Q 2034 3584 2315 3537 
Q 2597 3491 2834 3397 
z
" transform="scale(0.015625)"/>
      </defs>
      <use xlink:href="#DejaVuSans-45"/>
      <use xlink:href="#DejaVuSans-6e" x="63.183594"/>
      <use xlink:href="#DejaVuSans-65" x="126.5625"/>
      <use xlink:href="#DejaVuSans-72" x="188.085938"/>
      <use xlink:href="#DejaVuSans-67" x="227.449219"/>
      <use xlink:href="#DejaVuSans-79" x="290.925781"/>
      <use xlink:href="#DejaVuSans-20" x="350.105469"/>
      <use xlink:href="#DejaVuSans-55" x="381.892578"/>
      <use xlink:href="#DejaVuSans-6e" x="455.085938"/>
      <use xlink:href="#DejaVuSans-63" x="518.464844"/>
      <use xlink:href="#DejaVuSans-65" x="573.445312"/>
      <use xlink:href="#DejaVuSans-72" x="634.96875"/>
      <use xlink:href="#DejaVuSans-74" x="676.082031"/>
      <use xlink:href="#DejaVuSans-61" x="715.291016"/>
      <use xlink:href="#DejaVuSans-69" x="776.570312"/>
      <use xlink:href="#DejaVuSans-6e" x="804.353516"/>
      <use xlink:href="#DejaVuSans-74" x="867.732422"/>
      <use xlink:href="#DejaVuSans-69" x="906.941406"/>
      <use xlink:href="#DejaVuSans-65" x="934.724609"/>
      <use xlink:href="#DejaVuSans-73" x="996.248047"/>
     </g>
    </g>
   </g>
   <g id="matplotlib.axis_2">
    <g id="ytick_1">
     <g id="line2d_8">
      <defs>
       <path id="madb7d25911" d="M 0 0 
L -3.5 0 
" style="stroke: #000000; stroke-width: 0.8"/>
      </defs>
      <g>
       <use xlink:href="#madb7d25911" x="83.72" y="452.73206" style="stroke: #000000; stroke-width: 0.8"/>
      </g>
     </g>
     <g id="text_9">
      <!-- 5 -->
      <g transform="translate(62.7225 461.090342) scale(0.22 -0.22)">
       <use xlink:href="#DejaVuSans-35"/>
      </g>
     </g>
    </g>
    <g id="ytick_2">
     <g id="line2d_9">
      <g>
       <use xlink:href="#madb7d25911" x="83.72" y="388.725468" style="stroke: #000000; stroke-width: 0.8"/>
      </g>
     </g>
     <g id="text_10">
      <!-- 10 -->
      <g transform="translate(48.725 397.083749) scale(0.22 -0.22)">
       <use xlink:href="#DejaVuSans-31"/>
       <use xlink:href="#DejaVuSans-30" x="63.623047"/>
      </g>
     </g>
    </g>
    <g id="ytick_3">
     <g id="line2d_10">
      <g>
       <use xlink:href="#madb7d25911" x="83.72" y="324.718875" style="stroke: #000000; stroke-width: 0.8"/>
      </g>
     </g>
     <g id="text_11">
      <!-- 15 -->
      <g transform="translate(48.725 333.077156) scale(0.22 -0.22)">
       <use xlink:href="#DejaVuSans-31"/>
       <use xlink:href="#DejaVuSans-35" x="63.623047"/>
      </g>
     </g>
    </g>
    <g id="ytick_4">
     <g id="line2d_11">
      <g>
       <use xlink:href="#madb7d25911" x="83.72" y="260.712282" style="stroke: #000000; stroke-width: 0.8"/>
      </g>
     </g>
     <g id="text_12">
      <!-- 20 -->
      <g transform="translate(48.725 269.070563) scale(0.22 -0.22)">
       <use xlink:href="#DejaVuSans-32"/>
       <use xlink:href="#DejaVuSans-30" x="63.623047"/>
      </g>
     </g>
    </g>
    <g id="ytick_5">
     <g id="line2d_12">
      <g>
       <use xlink:href="#madb7d25911" x="83.72" y="196.705689" style="stroke: #000000; stroke-width: 0.8"/>
      </g>
     </g>
     <g id="text_13">
      <!-- 25 -->
      <g transform="translate(48.725 205.06397) scale(0.22 -0.22)">
       <use xlink:href="#DejaVuSans-32"/>
       <use xlink:href="#DejaVuSans-35" x="63.623047"/>
      </g>
     </g>
    </g>
    <g id="ytick_6">
     <g id="line2d_13">
      <g>
       <use xlink:href="#madb7d25911" x="83.72" y="132.699096" style="stroke: #000000; stroke-width: 0.8"/>
      </g>
     </g>
     <g id="text_14">
      <!-- 30 -->
      <g transform="translate(48.725 141.057378) scale(0.22 -0.22)">
       <use xlink:href="#DejaVuSans-33"/>
       <use xlink:href="#DejaVuSans-30" x="63.623047"/>
      </g>
     </g>
    </g>
    <g id="ytick_7">
     <g id="line2d_14">
      <g>
       <use xlink:href="#madb7d25911" x="83.72" y="68.692504" style="stroke: #000000; stroke-width: 0.8"/>
      </g>
     </g>
     <g id="text_15">
      <!-- 35 -->
      <g transform="translate(48.725 77.050785) scale(0.22 -0.22)">
       <use xlink:href="#DejaVuSans-33"/>
       <use xlink:href="#DejaVuSans-35" x="63.623047"/>
      </g>
     </g>
    </g>
    <g id="text_16">
     <!-- Force Errors [kJ/(mol*A)] -->
     <g transform="translate(40.149688 394.9125) rotate(-90) scale(0.22 -0.22)">
      <defs>
       <path id="DejaVuSans-46" d="M 628 4666 
L 3309 4666 
L 3309 4134 
L 1259 4134 
L 1259 2759 
L 3109 2759 
L 3109 2228 
L 1259 2228 
L 1259 0 
L 628 0 
L 628 4666 
z
" transform="scale(0.015625)"/>
       <path id="DejaVuSans-6f" d="M 1959 3097 
Q 1497 3097 1228 2736 
Q 959 2375 959 1747 
Q 959 1119 1226 758 
Q 1494 397 1959 397 
Q 2419 397 2687 759 
Q 2956 1122 2956 1747 
Q 2956 2369 2687 2733 
Q 2419 3097 1959 3097 
z
M 1959 3584 
Q 2709 3584 3137 3096 
Q 3566 2609 3566 1747 
Q 3566 888 3137 398 
Q 2709 -91 1959 -91 
Q 1206 -91 779 398 
Q 353 888 353 1747 
Q 353 2609 779 3096 
Q 1206 3584 1959 3584 
z
" transform="scale(0.015625)"/>
       <path id="DejaVuSans-5b" d="M 550 4863 
L 1875 4863 
L 1875 4416 
L 1125 4416 
L 1125 -397 
L 1875 -397 
L 1875 -844 
L 550 -844 
L 550 4863 
z
" transform="scale(0.015625)"/>
       <path id="DejaVuSans-6b" d="M 581 4863 
L 1159 4863 
L 1159 1991 
L 2875 3500 
L 3609 3500 
L 1753 1863 
L 3688 0 
L 2938 0 
L 1159 1709 
L 1159 0 
L 581 0 
L 581 4863 
z
" transform="scale(0.015625)"/>
       <path id="DejaVuSans-4a" d="M 628 4666 
L 1259 4666 
L 1259 325 
Q 1259 -519 939 -900 
Q 619 -1281 -91 -1281 
L -331 -1281 
L -331 -750 
L -134 -750 
Q 284 -750 456 -515 
Q 628 -281 628 325 
L 628 4666 
z
" transform="scale(0.015625)"/>
       <path id="DejaVuSans-2f" d="M 1625 4666 
L 2156 4666 
L 531 -594 
L 0 -594 
L 1625 4666 
z
" transform="scale(0.015625)"/>
       <path id="DejaVuSans-28" d="M 1984 4856 
Q 1566 4138 1362 3434 
Q 1159 2731 1159 2009 
Q 1159 1288 1364 580 
Q 1569 -128 1984 -844 
L 1484 -844 
Q 1016 -109 783 600 
Q 550 1309 550 2009 
Q 550 2706 781 3412 
Q 1013 4119 1484 4856 
L 1984 4856 
z
" transform="scale(0.015625)"/>
       <path id="DejaVuSans-6d" d="M 3328 2828 
Q 3544 3216 3844 3400 
Q 4144 3584 4550 3584 
Q 5097 3584 5394 3201 
Q 5691 2819 5691 2113 
L 5691 0 
L 5113 0 
L 5113 2094 
Q 5113 2597 4934 2840 
Q 4756 3084 4391 3084 
Q 3944 3084 3684 2787 
Q 3425 2491 3425 1978 
L 3425 0 
L 2847 0 
L 2847 2094 
Q 2847 2600 2669 2842 
Q 2491 3084 2119 3084 
Q 1678 3084 1418 2786 
Q 1159 2488 1159 1978 
L 1159 0 
L 581 0 
L 581 3500 
L 1159 3500 
L 1159 2956 
Q 1356 3278 1631 3431 
Q 1906 3584 2284 3584 
Q 2666 3584 2933 3390 
Q 3200 3197 3328 2828 
z
" transform="scale(0.015625)"/>
       <path id="DejaVuSans-6c" d="M 603 4863 
L 1178 4863 
L 1178 0 
L 603 0 
L 603 4863 
z
" transform="scale(0.015625)"/>
       <path id="DejaVuSans-2a" d="M 3009 3897 
L 1888 3291 
L 3009 2681 
L 2828 2375 
L 1778 3009 
L 1778 1831 
L 1422 1831 
L 1422 3009 
L 372 2375 
L 191 2681 
L 1313 3291 
L 191 3897 
L 372 4206 
L 1422 3572 
L 1422 4750 
L 1778 4750 
L 1778 3572 
L 2828 4206 
L 3009 3897 
z
" transform="scale(0.015625)"/>
       <path id="DejaVuSans-41" d="M 2188 4044 
L 1331 1722 
L 3047 1722 
L 2188 4044 
z
M 1831 4666 
L 2547 4666 
L 4325 0 
L 3669 0 
L 3244 1197 
L 1141 1197 
L 716 0 
L 50 0 
L 1831 4666 
z
" transform="scale(0.015625)"/>
       <path id="DejaVuSans-29" d="M 513 4856 
L 1013 4856 
Q 1481 4119 1714 3412 
Q 1947 2706 1947 2009 
Q 1947 1309 1714 600 
Q 1481 -109 1013 -844 
L 513 -844 
Q 928 -128 1133 580 
Q 1338 1288 1338 2009 
Q 1338 2731 1133 3434 
Q 928 4138 513 4856 
z
" transform="scale(0.015625)"/>
       <path id="DejaVuSans-5d" d="M 1947 4863 
L 1947 -844 
L 622 -844 
L 622 -397 
L 1369 -397 
L 1369 4416 
L 622 4416 
L 622 4863 
L 1947 4863 
z
" transform="scale(0.015625)"/>
      </defs>
      <use xlink:href="#DejaVuSans-46"/>
      <use xlink:href="#DejaVuSans-6f" x="53.894531"/>
      <use xlink:href="#DejaVuSans-72" x="115.076172"/>
      <use xlink:href="#DejaVuSans-63" x="153.939453"/>
      <use xlink:href="#DejaVuSans-65" x="208.919922"/>
      <use xlink:href="#DejaVuSans-20" x="270.443359"/>
      <use xlink:href="#DejaVuSans-45" x="302.230469"/>
      <use xlink:href="#DejaVuSans-72" x="365.414062"/>
      <use xlink:href="#DejaVuSans-72" x="404.777344"/>
      <use xlink:href="#DejaVuSans-6f" x="443.640625"/>
      <use xlink:href="#DejaVuSans-72" x="504.822266"/>
      <use xlink:href="#DejaVuSans-73" x="545.935547"/>
      <use xlink:href="#DejaVuSans-20" x="598.035156"/>
      <use xlink:href="#DejaVuSans-5b" x="629.822266"/>
      <use xlink:href="#DejaVuSans-6b" x="668.835938"/>
      <use xlink:href="#DejaVuSans-4a" x="726.746094"/>
      <use xlink:href="#DejaVuSans-2f" x="756.238281"/>
      <use xlink:href="#DejaVuSans-28" x="789.929688"/>
      <use xlink:href="#DejaVuSans-6d" x="828.943359"/>
      <use xlink:href="#DejaVuSans-6f" x="926.355469"/>
      <use xlink:href="#DejaVuSans-6c" x="987.537109"/>
      <use xlink:href="#DejaVuSans-2a" x="1015.320312"/>
      <use xlink:href="#DejaVuSans-41" x="1065.320312"/>
      <use xlink:href="#DejaVuSans-29" x="1133.728516"/>
      <use xlink:href="#DejaVuSans-5d" x="1172.742188"/>
     </g>
    </g>
   </g>
   <g id="line2d_15">
    <path d="M 83.72 499.48 
L 696.24 23.76 
" clip-path="url(#p4eb78901f1)" style="fill: none; stroke-dasharray: 5.55,2.4; stroke-dashoffset: 0; stroke: #ff0000; stroke-width: 1.5"/>
   </g>
   <g id="patch_3">
    <path d="M 83.72 499.48 
L 83.72 23.76 
" style="fill: none; stroke: #000000; stroke-width: 0.8; stroke-linejoin: miter; stroke-linecap: square"/>
   </g>
   <g id="patch_4">
    <path d="M 696.24 499.48 
L 696.24 23.76 
" style="fill: none; stroke: #000000; stroke-width: 0.8; stroke-linejoin: miter; stroke-linecap: square"/>
   </g>
   <g id="patch_5">
    <path d="M 83.72 499.48 
L 696.24 499.48 
" style="fill: none; stroke: #000000; stroke-width: 0.8; stroke-linejoin: miter; stroke-linecap: square"/>
   </g>
   <g id="patch_6">
    <path d="M 83.72 23.76 
L 696.24 23.76 
" style="fill: none; stroke: #000000; stroke-width: 0.8; stroke-linejoin: miter; stroke-linecap: square"/>
   </g>
   <g id="text_17">
    <!-- Correlation in: 0.294 -->
    <g transform="translate(132.7216 46.696812) scale(0.22 -0.22)">
     <defs>
      <path id="DejaVuSans-43" d="M 4122 4306 
L 4122 3641 
Q 3803 3938 3442 4084 
Q 3081 4231 2675 4231 
Q 1875 4231 1450 3742 
Q 1025 3253 1025 2328 
Q 1025 1406 1450 917 
Q 1875 428 2675 428 
Q 3081 428 3442 575 
Q 3803 722 4122 1019 
L 4122 359 
Q 3791 134 3420 21 
Q 3050 -91 2638 -91 
Q 1578 -91 968 557 
Q 359 1206 359 2328 
Q 359 3453 968 4101 
Q 1578 4750 2638 4750 
Q 3056 4750 3426 4639 
Q 3797 4528 4122 4306 
z
" transform="scale(0.015625)"/>
      <path id="DejaVuSans-3a" d="M 750 794 
L 1409 794 
L 1409 0 
L 750 0 
L 750 794 
z
M 750 3309 
L 1409 3309 
L 1409 2516 
L 750 2516 
L 750 3309 
z
" transform="scale(0.015625)"/>
      <path id="DejaVuSans-2e" d="M 684 794 
L 1344 794 
L 1344 0 
L 684 0 
L 684 794 
z
" transform="scale(0.015625)"/>
      <path id="DejaVuSans-39" d="M 703 97 
L 703 672 
Q 941 559 1184 500 
Q 1428 441 1663 441 
Q 2288 441 2617 861 
Q 2947 1281 2994 2138 
Q 2813 1869 2534 1725 
Q 2256 1581 1919 1581 
Q 1219 1581 811 2004 
Q 403 2428 403 3163 
Q 403 3881 828 4315 
Q 1253 4750 1959 4750 
Q 2769 4750 3195 4129 
Q 3622 3509 3622 2328 
Q 3622 1225 3098 567 
Q 2575 -91 1691 -91 
Q 1453 -91 1209 -44 
Q 966 3 703 97 
z
M 1959 2075 
Q 2384 2075 2632 2365 
Q 2881 2656 2881 3163 
Q 2881 3666 2632 3958 
Q 2384 4250 1959 4250 
Q 1534 4250 1286 3958 
Q 1038 3666 1038 3163 
Q 1038 2656 1286 2365 
Q 1534 2075 1959 2075 
z
" transform="scale(0.015625)"/>
      <path id="DejaVuSans-34" d="M 2419 4116 
L 825 1625 
L 2419 1625 
L 2419 4116 
z
M 2253 4666 
L 3047 4666 
L 3047 1625 
L 3713 1625 
L 3713 1100 
L 3047 1100 
L 3047 0 
L 2419 0 
L 2419 1100 
L 313 1100 
L 313 1709 
L 2253 4666 
z
" transform="scale(0.015625)"/>
     </defs>
     <use xlink:href="#DejaVuSans-43"/>
     <use xlink:href="#DejaVuSans-6f" x="69.824219"/>
     <use xlink:href="#DejaVuSans-72" x="131.005859"/>
     <use xlink:href="#DejaVuSans-72" x="170.369141"/>
     <use xlink:href="#DejaVuSans-65" x="209.232422"/>
     <use xlink:href="#DejaVuSans-6c" x="270.755859"/>
     <use xlink:href="#DejaVuSans-61" x="298.539062"/>
     <use xlink:href="#DejaVuSans-74" x="359.818359"/>
     <use xlink:href="#DejaVuSans-69" x="399.027344"/>
     <use xlink:href="#DejaVuSans-6f" x="426.810547"/>
     <use xlink:href="#DejaVuSans-6e" x="487.992188"/>
     <use xlink:href="#DejaVuSans-20" x="551.371094"/>
     <use xlink:href="#DejaVuSans-69" x="583.158203"/>
     <use xlink:href="#DejaVuSans-6e" x="610.941406"/>
     <use xlink:href="#DejaVuSans-3a" x="674.320312"/>
     <use xlink:href="#DejaVuSans-20" x="708.011719"/>
     <use xlink:href="#DejaVuSans-30" x="739.798828"/>
     <use xlink:href="#DejaVuSans-2e" x="803.421875"/>
     <use xlink:href="#DejaVuSans-32" x="835.208984"/>
     <use xlink:href="#DejaVuSans-39" x="898.832031"/>
     <use xlink:href="#DejaVuSans-34" x="962.455078"/>
    </g>
    <!-- Correlation Out: 0.705 -->
    <g transform="translate(132.7216 71.332) scale(0.22 -0.22)">
     <defs>
      <path id="DejaVuSans-4f" d="M 2522 4238 
Q 1834 4238 1429 3725 
Q 1025 3213 1025 2328 
Q 1025 1447 1429 934 
Q 1834 422 2522 422 
Q 3209 422 3611 934 
Q 4013 1447 4013 2328 
Q 4013 3213 3611 3725 
Q 3209 4238 2522 4238 
z
M 2522 4750 
Q 3503 4750 4090 4092 
Q 4678 3434 4678 2328 
Q 4678 1225 4090 567 
Q 3503 -91 2522 -91 
Q 1538 -91 948 565 
Q 359 1222 359 2328 
Q 359 3434 948 4092 
Q 1538 4750 2522 4750 
z
" transform="scale(0.015625)"/>
      <path id="DejaVuSans-75" d="M 544 1381 
L 544 3500 
L 1119 3500 
L 1119 1403 
Q 1119 906 1312 657 
Q 1506 409 1894 409 
Q 2359 409 2629 706 
Q 2900 1003 2900 1516 
L 2900 3500 
L 3475 3500 
L 3475 0 
L 2900 0 
L 2900 538 
Q 2691 219 2414 64 
Q 2138 -91 1772 -91 
Q 1169 -91 856 284 
Q 544 659 544 1381 
z
M 1991 3584 
L 1991 3584 
z
" transform="scale(0.015625)"/>
      <path id="DejaVuSans-37" d="M 525 4666 
L 3525 4666 
L 3525 4397 
L 1831 0 
L 1172 0 
L 2766 4134 
L 525 4134 
L 525 4666 
z
" transform="scale(0.015625)"/>
     </defs>
     <use xlink:href="#DejaVuSans-43"/>
     <use xlink:href="#DejaVuSans-6f" x="69.824219"/>
     <use xlink:href="#DejaVuSans-72" x="131.005859"/>
     <use xlink:href="#DejaVuSans-72" x="170.369141"/>
     <use xlink:href="#DejaVuSans-65" x="209.232422"/>
     <use xlink:href="#DejaVuSans-6c" x="270.755859"/>
     <use xlink:href="#DejaVuSans-61" x="298.539062"/>
     <use xlink:href="#DejaVuSans-74" x="359.818359"/>
     <use xlink:href="#DejaVuSans-69" x="399.027344"/>
     <use xlink:href="#DejaVuSans-6f" x="426.810547"/>
     <use xlink:href="#DejaVuSans-6e" x="487.992188"/>
     <use xlink:href="#DejaVuSans-20" x="551.371094"/>
     <use xlink:href="#DejaVuSans-4f" x="583.158203"/>
     <use xlink:href="#DejaVuSans-75" x="661.869141"/>
     <use xlink:href="#DejaVuSans-74" x="725.248047"/>
     <use xlink:href="#DejaVuSans-3a" x="764.457031"/>
     <use xlink:href="#DejaVuSans-20" x="798.148438"/>
     <use xlink:href="#DejaVuSans-30" x="829.935547"/>
     <use xlink:href="#DejaVuSans-2e" x="893.558594"/>
     <use xlink:href="#DejaVuSans-37" x="925.345703"/>
     <use xlink:href="#DejaVuSans-30" x="988.96875"/>
     <use xlink:href="#DejaVuSans-35" x="1052.591797"/>
    </g>
   </g>
   <g id="legend_1">
    <g id="patch_7">
     <path d="M 407.0225 105.94375 
L 680.84 105.94375 
Q 685.24 105.94375 685.24 101.54375 
L 685.24 39.16 
Q 685.24 34.76 680.84 34.76 
L 407.0225 34.76 
Q 402.6225 34.76 402.6225 39.16 
L 402.6225 101.54375 
Q 402.6225 105.94375 407.0225 105.94375 
z
" style="fill: #ffffff; opacity: 0.8; stroke: #cccccc; stroke-linejoin: miter"/>
    </g>
    <g id="line2d_16">
     <defs>
      <path id="m5a82364f87" d="M 0 2.5 
C 0.663008 2.5 1.29895 2.236584 1.767767 1.767767 
C 2.236584 1.29895 2.5 0.663008 2.5 0 
C 2.5 -0.663008 2.236584 -1.29895 1.767767 -1.767767 
C 1.29895 -2.236584 0.663008 -2.5 0 -2.5 
C -0.663008 -2.5 -1.29895 -2.236584 -1.767767 -1.767767 
C -2.236584 -1.29895 -2.5 -0.663008 -2.5 0 
C -2.5 0.663008 -2.236584 1.29895 -1.767767 1.767767 
C -1.29895 2.236584 -0.663008 2.5 0 2.5 
z
" style="stroke: #ffffff"/>
     </defs>
     <g>
      <use xlink:href="#m5a82364f87" x="433.4225" y="52.576562" style="fill: #0000ff; stroke: #ffffff"/>
     </g>
    </g>
    <g id="text_18">
     <!-- In Distribution -->
     <g transform="translate(473.0225 60.276562) scale(0.22 -0.22)">
      <defs>
       <path id="DejaVuSans-49" d="M 628 4666 
L 1259 4666 
L 1259 0 
L 628 0 
L 628 4666 
z
" transform="scale(0.015625)"/>
       <path id="DejaVuSans-44" d="M 1259 4147 
L 1259 519 
L 2022 519 
Q 2988 519 3436 956 
Q 3884 1394 3884 2338 
Q 3884 3275 3436 3711 
Q 2988 4147 2022 4147 
L 1259 4147 
z
M 628 4666 
L 1925 4666 
Q 3281 4666 3915 4102 
Q 4550 3538 4550 2338 
Q 4550 1131 3912 565 
Q 3275 0 1925 0 
L 628 0 
L 628 4666 
z
" transform="scale(0.015625)"/>
       <path id="DejaVuSans-62" d="M 3116 1747 
Q 3116 2381 2855 2742 
Q 2594 3103 2138 3103 
Q 1681 3103 1420 2742 
Q 1159 2381 1159 1747 
Q 1159 1113 1420 752 
Q 1681 391 2138 391 
Q 2594 391 2855 752 
Q 3116 1113 3116 1747 
z
M 1159 2969 
Q 1341 3281 1617 3432 
Q 1894 3584 2278 3584 
Q 2916 3584 3314 3078 
Q 3713 2572 3713 1747 
Q 3713 922 3314 415 
Q 2916 -91 2278 -91 
Q 1894 -91 1617 61 
Q 1341 213 1159 525 
L 1159 0 
L 581 0 
L 581 4863 
L 1159 4863 
L 1159 2969 
z
" transform="scale(0.015625)"/>
      </defs>
      <use xlink:href="#DejaVuSans-49"/>
      <use xlink:href="#DejaVuSans-6e" x="29.492188"/>
      <use xlink:href="#DejaVuSans-20" x="92.871094"/>
      <use xlink:href="#DejaVuSans-44" x="124.658203"/>
      <use xlink:href="#DejaVuSans-69" x="201.660156"/>
      <use xlink:href="#DejaVuSans-73" x="229.443359"/>
      <use xlink:href="#DejaVuSans-74" x="281.542969"/>
      <use xlink:href="#DejaVuSans-72" x="320.751953"/>
      <use xlink:href="#DejaVuSans-69" x="361.865234"/>
      <use xlink:href="#DejaVuSans-62" x="389.648438"/>
      <use xlink:href="#DejaVuSans-75" x="453.125"/>
      <use xlink:href="#DejaVuSans-74" x="516.503906"/>
      <use xlink:href="#DejaVuSans-69" x="555.712891"/>
      <use xlink:href="#DejaVuSans-6f" x="583.496094"/>
      <use xlink:href="#DejaVuSans-6e" x="644.677734"/>
     </g>
    </g>
    <g id="line2d_17">
     <defs>
      <path id="m51c2ca4326" d="M 0 2.5 
C 0.663008 2.5 1.29895 2.236584 1.767767 1.767767 
C 2.236584 1.29895 2.5 0.663008 2.5 0 
C 2.5 -0.663008 2.236584 -1.29895 1.767767 -1.767767 
C 1.29895 -2.236584 0.663008 -2.5 0 -2.5 
C -0.663008 -2.5 -1.29895 -2.236584 -1.767767 -1.767767 
C -2.236584 -1.29895 -2.5 -0.663008 -2.5 0 
C -2.5 0.663008 -2.236584 1.29895 -1.767767 1.767767 
C -1.29895 2.236584 -0.663008 2.5 0 2.5 
z
" style="stroke: #ffffff"/>
     </defs>
     <g>
      <use xlink:href="#m51c2ca4326" x="433.4225" y="84.868437" style="fill: #008000; stroke: #ffffff"/>
     </g>
    </g>
    <g id="text_19">
     <!-- Out of Distribution -->
     <g transform="translate(473.0225 92.568437) scale(0.22 -0.22)">
      <defs>
       <path id="DejaVuSans-66" d="M 2375 4863 
L 2375 4384 
L 1825 4384 
Q 1516 4384 1395 4259 
Q 1275 4134 1275 3809 
L 1275 3500 
L 2222 3500 
L 2222 3053 
L 1275 3053 
L 1275 0 
L 697 0 
L 697 3053 
L 147 3053 
L 147 3500 
L 697 3500 
L 697 3744 
Q 697 4328 969 4595 
Q 1241 4863 1831 4863 
L 2375 4863 
z
" transform="scale(0.015625)"/>
      </defs>
      <use xlink:href="#DejaVuSans-4f"/>
      <use xlink:href="#DejaVuSans-75" x="78.710938"/>
      <use xlink:href="#DejaVuSans-74" x="142.089844"/>
      <use xlink:href="#DejaVuSans-20" x="181.298828"/>
      <use xlink:href="#DejaVuSans-6f" x="213.085938"/>
      <use xlink:href="#DejaVuSans-66" x="274.267578"/>
      <use xlink:href="#DejaVuSans-20" x="309.472656"/>
      <use xlink:href="#DejaVuSans-44" x="341.259766"/>
      <use xlink:href="#DejaVuSans-69" x="418.261719"/>
      <use xlink:href="#DejaVuSans-73" x="446.044922"/>
      <use xlink:href="#DejaVuSans-74" x="498.144531"/>
      <use xlink:href="#DejaVuSans-72" x="537.353516"/>
      <use xlink:href="#DejaVuSans-69" x="578.466797"/>
      <use xlink:href="#DejaVuSans-62" x="606.25"/>
      <use xlink:href="#DejaVuSans-75" x="669.726562"/>
      <use xlink:href="#DejaVuSans-74" x="733.105469"/>
      <use xlink:href="#DejaVuSans-69" x="772.314453"/>
      <use xlink:href="#DejaVuSans-6f" x="800.097656"/>
      <use xlink:href="#DejaVuSans-6e" x="861.279297"/>
     </g>
    </g>
   </g>
  </g>
 </g>
 <defs>
  <clipPath id="p4eb78901f1">
   <rect x="83.72" y="23.76" width="612.52" height="475.72"/>
  </clipPath>
 </defs>
</svg>
