<?xml version="1.0" encoding="utf-8" standalone="no"?>
<!DOCTYPE svg PUBLIC "-//W3C//DTD SVG 1.1//EN"
  "http://www.w3.org/Graphics/SVG/1.1/DTD/svg11.dtd">
<svg xmlns:xlink="http://www.w3.org/1999/xlink" width="720pt" height="576pt" viewBox="0 0 720 576" xmlns="http://www.w3.org/2000/svg" version="1.1">
 <metadata>
  <rdf:RDF xmlns:dc="http://purl.org/dc/elements/1.1/" xmlns:cc="http://creativecommons.org/ns#" xmlns:rdf="http://www.w3.org/1999/02/22-rdf-syntax-ns#">
   <cc:Work>
    <dc:type rdf:resource="http://purl.org/dc/dcmitype/StillImage"/>
    <dc:date>2024-12-07T17:10:01.230669</dc:date>
    <dc:format>image/svg+xml</dc:format>
    <dc:creator>
     <cc:Agent>
      <dc:title>Matplotlib v3.8.4, https://matplotlib.org/</dc:title>
     </cc:Agent>
    </dc:creator>
   </cc:Work>
  </rdf:RDF>
 </metadata>
 <defs>
  <style type="text/css">*{stroke-linejoin: round; stroke-linecap: butt}</style>
 </defs>
 <g id="figure_1">
  <g id="patch_1">
   <path d="M 0 576 
L 720 576 
L 720 0 
L 0 0 
z
" style="fill: #ffffff"/>
  </g>
  <g id="axes_1">
   <g id="patch_2">
    <path d="M 69.68 499.48 
L 696.24 499.48 
L 696.24 23.76 
L 69.68 23.76 
z
" style="fill: #ffffff"/>
   </g>
   <g id="QuadContourSet_1">
    <path d="M 79.073952 491.19798 
L 79.452223 491.822521 
L 79.830495 492.265373 
L 80.208767 492.602769 
L 80.587038 492.880195 
L 80.96531 493.107855 
L 81.343582 493.268497 
L 81.721853 493.334109 
L 82.100125 493.282155 
L 82.478397 493.104338 
L 82.856668 492.80734 
L 83.23494 492.408646 
L 83.613212 491.930231 
L 83.991483 491.390901 
L 84.369755 490.796947 
L 84.385724 490.77023 
L 84.748027 490.40655 
L 85.126298 489.948571 
L 85.50457 489.364479 
L 85.882842 488.603069 
L 86.261113 487.624701 
L 86.639385 486.416173 
L 87.017657 484.998964 
L 87.395928 483.42989 
L 87.77261 481.80168 
L 87.7742 481.797179 
L 88.152472 480.83557 
L 88.530743 479.93985 
L 88.909015 479.099606 
L 89.287287 478.262447 
L 89.665558 477.33827 
L 90.04383 476.21108 
L 90.422102 474.752629 
L 90.800137 472.83313 
L 90.800373 472.832255 
L 91.178645 471.164973 
L 91.556917 469.070589 
L 91.935189 466.532833 
L 92.281414 463.86458 
L 92.31346 463.667317 
L 92.691732 461.404428 
L 93.070004 459.087995 
L 93.448275 456.88767 
L 93.826547 454.991356 
L 93.853679 454.896029 
L 94.204819 453.778928 
L 94.58309 452.872751 
L 94.961362 452.20064 
L 95.339634 451.630619 
L 95.717905 450.97099 
L 96.096177 450.004486 
L 96.474449 448.525684 
L 96.85272 446.376229 
L 96.9161 445.927479 
L 97.230992 442.611669 
L 97.609264 437.688414 
L 97.661638 436.958929 
L 97.987535 429.729328 
L 98.066412 427.990379 
L 98.365807 420.048861 
L 98.404611 419.021829 
L 98.744079 411.28276 
L 98.79164 410.053279 
L 99.12235 402.581833 
L 99.175672 401.084729 
L 99.486017 392.116179 
L 99.500622 391.64119 
L 99.728632 383.147629 
L 99.878894 376.277817 
L 99.924838 374.179079 
L 100.115577 365.210529 
L 100.257165 357.925571 
L 100.297241 356.241979 
L 100.487632 347.273429 
L 100.625136 338.304879 
L 100.635437 337.036451 
L 100.71842 329.336329 
L 100.758825 320.367779 
L 100.799143 311.399229 
L 100.883153 302.430678 
L 101.013709 294.033211 
L 101.024123 293.462128 
L 101.225931 284.493578 
L 101.39198 276.958512 
L 101.425378 275.525028 
L 101.582738 266.556478 
L 101.663978 257.587928 
L 101.627928 248.619378 
L 101.417354 239.650828 
L 101.39198 239.007789 
L 101.013709 231.788305 
L 100.942627 230.682278 
L 100.635437 226.482344 
L 100.305592 221.713728 
L 100.257165 221.099535 
L 99.878894 214.676894 
L 99.798818 212.745178 
L 99.500622 207.556609 
L 99.328786 203.776628 
L 99.12235 200.228155 
L 98.848525 194.808078 
L 98.744079 192.653877 
L 98.447705 185.839528 
L 98.365807 182.679353 
L 98.227054 176.870978 
L 98.211833 167.902428 
L 98.309288 158.933878 
L 98.361308 149.965327 
L 98.184159 140.996777 
L 97.987535 137.870554 
L 97.609264 133.748245 
L 97.380811 132.028227 
L 97.230992 131.035359 
L 96.85272 128.58995 
L 96.474449 125.372942 
L 96.286827 123.059677 
L 96.096177 119.359406 
L 95.876402 114.091127 
L 95.717905 110.499639 
L 95.410568 105.122577 
L 95.339634 104.372339 
L 94.961362 101.868225 
L 94.58309 100.724849 
L 94.204819 100.397211 
L 93.826547 100.417252 
L 93.448275 100.375431 
L 93.070004 99.941263 
L 92.691732 98.969695 
L 92.31346 97.644557 
L 91.935189 96.467442 
L 91.697175 96.154027 
L 91.556917 95.93843 
L 91.407251 96.154027 
L 91.178645 96.41694 
L 90.800373 97.702125 
L 90.422102 99.549637 
L 90.04383 101.642546 
L 89.665558 103.679247 
L 89.331755 105.122577 
L 89.287287 105.285305 
L 88.909015 105.895504 
L 88.530743 105.331628 
L 88.493087 105.122577 
L 88.152472 102.285462 
L 87.7742 96.733288 
L 87.740195 96.154027 
L 87.395928 90.925708 
L 87.050902 87.185477 
L 87.017657 86.867178 
L 86.639385 84.437872 
L 86.261113 83.234521 
L 85.882842 83.007878 
L 85.50457 83.639628 
L 85.126298 85.087933 
L 84.770132 87.185477 
L 84.748027 87.305985 
L 84.369755 90.030202 
L 83.991483 93.341973 
L 83.693331 96.154027 
L 83.613212 96.94383 
L 83.23494 100.480471 
L 82.856668 103.468368 
L 82.551165 105.122577 
L 82.478397 105.565869 
L 82.100125 106.863605 
L 81.721853 107.526053 
L 81.343582 108.091486 
L 80.96531 109.004715 
L 80.587038 110.469602 
L 80.208767 112.505115 
L 79.978245 114.091127 
L 79.830495 115.354236 
L 79.452223 118.97155 
L 79.073952 122.682194 
L 79.038529 123.059677 
L 78.69568 128.187562 
L 78.422854 132.028227 
L 78.317408 134.965766 
L 78.082813 140.996777 
L 78.102734 149.965327 
L 78.317408 153.803145 
L 78.69568 158.117155 
L 78.782262 158.933878 
L 79.073952 163.322418 
L 79.222454 167.902428 
L 79.114948 176.870978 
L 79.073952 177.883179 
L 78.801707 185.839528 
L 78.69568 187.630694 
L 78.317408 194.765374 
L 78.315417 194.808078 
L 77.939137 199.516819 
L 77.652412 203.776628 
L 77.560865 204.734176 
L 77.182593 209.244888 
L 76.936062 212.745178 
L 76.804322 214.276128 
L 76.42605 219.183796 
L 76.246604 221.713728 
L 76.047778 224.301352 
L 75.669507 229.517983 
L 75.581244 230.682278 
L 75.291235 234.650421 
L 74.950508 239.650828 
L 74.912963 240.293786 
L 74.534692 246.901573 
L 74.446043 248.619378 
L 74.15642 257.587928 
L 74.15642 257.587928 
L 73.983966 266.556478 
L 73.893839 275.525028 
L 73.825362 284.493578 
L 73.778148 288.886915 
L 73.720793 293.462128 
L 73.536683 302.430678 
L 73.399877 307.443592 
L 73.284154 311.399229 
L 73.025577 320.367779 
L 73.021605 320.527502 
L 72.798782 329.336329 
L 72.653401 338.304879 
L 72.643333 339.182529 
L 72.540428 347.273429 
L 72.46066 356.241979 
L 72.402483 365.210529 
L 72.364535 374.179079 
L 72.351106 383.147629 
L 72.361464 392.116179 
L 72.385991 401.084729 
L 72.419082 410.053279 
L 72.474082 419.021829 
L 72.58599 427.990379 
L 72.643333 430.54969 
L 72.783084 436.958929 
L 73.021605 443.379139 
L 73.127225 445.927479 
L 73.399877 451.034977 
L 73.651695 454.896029 
L 73.778148 456.776325 
L 74.15642 461.638185 
L 74.364494 463.86458 
L 74.534692 465.899768 
L 74.912963 469.78986 
L 75.286872 472.83313 
L 75.291235 472.874588 
L 75.669507 476.210811 
L 76.047778 478.87263 
L 76.42605 481.038055 
L 76.575952 481.80168 
L 76.804322 483.307895 
L 77.182593 485.481748 
L 77.560865 487.250329 
L 77.939137 488.648511 
L 78.317408 489.71171 
L 78.69568 490.485472 
L 78.888938 490.77023 
z
M 78.147333 463.86458 
L 77.939137 462.721515 
L 77.560865 460.19956 
L 77.182593 457.082558 
L 76.950732 454.896029 
L 76.804322 453.500232 
L 76.42605 449.589091 
L 76.109742 445.927479 
L 76.047778 445.16039 
L 75.669507 440.348374 
L 75.427282 436.958929 
L 75.291235 434.607069 
L 74.950704 427.990379 
L 74.912963 426.794194 
L 74.688866 419.021829 
L 74.591558 410.053279 
L 74.587999 401.084729 
L 74.62243 392.116179 
L 74.658866 383.147629 
L 74.684376 374.179079 
L 74.711193 365.210529 
L 74.769153 356.241979 
L 74.890775 347.273429 
L 74.912963 346.272761 
L 75.087331 338.304879 
L 75.291235 331.909062 
L 75.375249 329.336329 
L 75.669507 321.913251 
L 75.733896 320.367779 
L 76.047778 313.016614 
L 76.121265 311.399229 
L 76.42605 303.753635 
L 76.482138 302.430678 
L 76.780093 293.462128 
L 76.804322 292.521302 
L 77.025205 284.493578 
L 77.182593 278.911531 
L 77.286821 275.525028 
L 77.560865 268.486757 
L 77.646021 266.556478 
L 77.939137 261.343571 
L 78.189605 257.587928 
L 78.317408 255.956038 
L 78.69568 251.600535 
L 78.998951 248.619378 
L 79.073952 247.912389 
L 79.452223 244.476505 
L 79.830495 241.396785 
L 80.060138 239.650828 
L 80.208767 238.437954 
L 80.587038 235.506923 
L 80.96531 232.855457 
L 81.306142 230.682278 
L 81.343582 230.408384 
L 81.721853 227.740104 
L 82.100125 225.24051 
L 82.478397 222.825849 
L 82.646972 221.713728 
L 82.856668 220.05755 
L 83.23494 217.058587 
L 83.613212 214.250398 
L 83.82831 212.745178 
L 83.991483 211.383216 
L 84.369755 208.581953 
L 84.748027 206.328643 
L 85.126298 204.538411 
L 85.324121 203.776628 
L 85.50457 202.92307 
L 85.882842 201.458695 
L 86.261113 200.190611 
L 86.639385 198.953908 
L 87.017657 197.620752 
L 87.395928 196.129197 
L 87.707689 194.808078 
L 87.7742 194.473611 
L 88.152472 192.735824 
L 88.530743 191.330986 
L 88.909015 190.495273 
L 89.287287 190.528387 
L 89.665558 191.81661 
L 90.04383 194.808078 
L 90.04383 194.808078 
L 90.422102 198.913029 
L 90.770289 203.776628 
L 90.800373 204.131958 
L 91.178645 208.823391 
L 91.483164 212.745178 
L 91.556917 213.465256 
L 91.935189 216.970397 
L 92.31346 220.198415 
L 92.522647 221.713728 
L 92.691732 222.670703 
L 93.070004 224.341528 
L 93.448275 225.509905 
L 93.826547 226.222588 
L 94.204819 226.688084 
L 94.58309 227.306093 
L 94.961362 228.727417 
L 95.204195 230.682278 
L 95.339634 232.40128 
L 95.62549 239.650828 
L 95.717905 245.227162 
L 95.758152 248.619378 
L 95.821909 257.587928 
L 95.887809 266.556478 
L 95.987448 275.525028 
L 96.096177 282.239087 
L 96.136579 284.493578 
L 96.336244 293.462128 
L 96.474449 300.083791 
L 96.531957 302.430678 
L 96.668763 311.399229 
L 96.6978 320.367779 
L 96.629753 329.336329 
L 96.486948 338.304879 
L 96.474449 338.927819 
L 96.308296 347.273429 
L 96.096177 355.420391 
L 96.076072 356.241979 
L 95.803359 365.210529 
L 95.717905 367.349788 
L 95.482299 374.179079 
L 95.339634 377.486116 
L 95.128195 383.147629 
L 94.961362 386.908365 
L 94.752016 392.116179 
L 94.58309 395.763305 
L 94.344222 401.084729 
L 94.204819 403.813434 
L 93.872744 410.053279 
L 93.826547 410.826406 
L 93.448275 416.866204 
L 93.300511 419.021829 
L 93.070004 422.126271 
L 92.691732 426.684768 
L 92.574513 427.990379 
L 92.31346 430.873066 
L 91.935189 434.592002 
L 91.661176 436.958929 
L 91.556917 437.912541 
L 91.178645 441.099289 
L 90.800373 443.803907 
L 90.451827 445.927479 
L 90.422102 446.130267 
L 90.04383 448.541893 
L 89.665558 450.599842 
L 89.287287 452.365503 
L 88.909015 453.895233 
L 88.633376 454.896029 
L 88.530743 455.359352 
L 88.152472 456.986366 
L 87.7742 458.476327 
L 87.395928 459.868364 
L 87.017657 461.188498 
L 86.639385 462.447957 
L 86.261113 463.645386 
L 86.191438 463.86458 
L 85.882842 465.171551 
L 85.50457 466.65546 
L 85.126298 467.977064 
L 84.748027 469.123986 
L 84.369755 470.092902 
L 83.991483 470.88575 
L 83.613212 471.5058 
L 83.23494 471.955406 
L 82.856668 472.236208 
L 82.478397 472.351978 
L 82.100125 472.313161 
L 81.721853 472.140427 
L 81.343582 471.863257 
L 80.96531 471.511118 
L 80.587038 471.099539 
L 80.208767 470.617657 
L 79.830495 470.023234 
L 79.452223 469.246194 
L 79.073952 468.197564 
L 78.69568 466.780008 
L 78.317408 464.897454 
z
" clip-path="url(#p9e2aea0852)" style="fill: #f0f6fd"/>
    <path d="M 78.317408 464.897454 
L 78.69568 466.780008 
L 79.073952 468.197564 
L 79.452223 469.246194 
L 79.830495 470.023234 
L 80.208767 470.617657 
L 80.587038 471.099539 
L 80.96531 471.511118 
L 81.343582 471.863257 
L 81.721853 472.140427 
L 82.100125 472.313161 
L 82.478397 472.351978 
L 82.856668 472.236208 
L 83.23494 471.955406 
L 83.613212 471.5058 
L 83.991483 470.88575 
L 84.369755 470.092902 
L 84.748027 469.123986 
L 85.126298 467.977064 
L 85.50457 466.65546 
L 85.882842 465.171551 
L 86.191438 463.86458 
L 86.261113 463.645386 
L 86.639385 462.447957 
L 87.017657 461.188498 
L 87.395928 459.868364 
L 87.7742 458.476327 
L 88.152472 456.986366 
L 88.530743 455.359352 
L 88.633376 454.896029 
L 88.909015 453.895233 
L 89.287287 452.365503 
L 89.665558 450.599842 
L 90.04383 448.541893 
L 90.422102 446.130267 
L 90.451827 445.927479 
L 90.800373 443.803907 
L 91.178645 441.099289 
L 91.556917 437.912541 
L 91.661176 436.958929 
L 91.935189 434.592002 
L 92.31346 430.873066 
L 92.574513 427.990379 
L 92.691732 426.684768 
L 93.070004 422.126271 
L 93.300511 419.021829 
L 93.448275 416.866204 
L 93.826547 410.826406 
L 93.872744 410.053279 
L 94.204819 403.813434 
L 94.344222 401.084729 
L 94.58309 395.763305 
L 94.752016 392.116179 
L 94.961362 386.908365 
L 95.128195 383.147629 
L 95.339634 377.486116 
L 95.482299 374.179079 
L 95.717905 367.349788 
L 95.803359 365.210529 
L 96.076072 356.241979 
L 96.096177 355.420391 
L 96.308296 347.273429 
L 96.474449 338.927819 
L 96.486948 338.304879 
L 96.629753 329.336329 
L 96.6978 320.367779 
L 96.668763 311.399229 
L 96.531957 302.430678 
L 96.474449 300.083791 
L 96.336244 293.462128 
L 96.136579 284.493578 
L 96.096177 282.239087 
L 95.987448 275.525028 
L 95.887809 266.556478 
L 95.821909 257.587928 
L 95.758152 248.619378 
L 95.717905 245.227162 
L 95.62549 239.650828 
L 95.339634 232.40128 
L 95.204195 230.682278 
L 94.961362 228.727417 
L 94.58309 227.306093 
L 94.204819 226.688084 
L 93.826547 226.222588 
L 93.448275 225.509905 
L 93.070004 224.341528 
L 92.691732 222.670703 
L 92.522647 221.713728 
L 92.31346 220.198415 
L 91.935189 216.970397 
L 91.556917 213.465256 
L 91.483164 212.745178 
L 91.178645 208.823391 
L 90.800373 204.131958 
L 90.770289 203.776628 
L 90.422102 198.913029 
L 90.04383 194.808078 
L 90.04383 194.808078 
L 89.665558 191.81661 
L 89.287287 190.528387 
L 88.909015 190.495273 
L 88.530743 191.330986 
L 88.152472 192.735824 
L 87.7742 194.473611 
L 87.707689 194.808078 
L 87.395928 196.129197 
L 87.017657 197.620752 
L 86.639385 198.953908 
L 86.261113 200.190611 
L 85.882842 201.458695 
L 85.50457 202.92307 
L 85.324121 203.776628 
L 85.126298 204.538411 
L 84.748027 206.328643 
L 84.369755 208.581953 
L 83.991483 211.383216 
L 83.82831 212.745178 
L 83.613212 214.250398 
L 83.23494 217.058587 
L 82.856668 220.05755 
L 82.646972 221.713728 
L 82.478397 222.825849 
L 82.100125 225.24051 
L 81.721853 227.740104 
L 81.343582 230.408384 
L 81.306142 230.682278 
L 80.96531 232.855457 
L 80.587038 235.506923 
L 80.208767 238.437954 
L 80.060138 239.650828 
L 79.830495 241.396785 
L 79.452223 244.476505 
L 79.073952 247.912389 
L 78.998951 248.619378 
L 78.69568 251.600535 
L 78.317408 255.956038 
L 78.189605 257.587928 
L 77.939137 261.343571 
L 77.646021 266.556478 
L 77.560865 268.486757 
L 77.286821 275.525028 
L 77.182593 278.911531 
L 77.025205 284.493578 
L 76.804322 292.521302 
L 76.780093 293.462128 
L 76.482138 302.430678 
L 76.42605 303.753635 
L 76.121265 311.399229 
L 76.047778 313.016614 
L 75.733896 320.367779 
L 75.669507 321.913251 
L 75.375249 329.336329 
L 75.291235 331.909062 
L 75.087331 338.304879 
L 74.912963 346.272761 
L 74.890775 347.273429 
L 74.769153 356.241979 
L 74.711193 365.210529 
L 74.684376 374.179079 
L 74.658866 383.147629 
L 74.62243 392.116179 
L 74.587999 401.084729 
L 74.591558 410.053279 
L 74.688866 419.021829 
L 74.912963 426.794194 
L 74.950704 427.990379 
L 75.291235 434.607069 
L 75.427282 436.958929 
L 75.669507 440.348374 
L 76.047778 445.16039 
L 76.109742 445.927479 
L 76.42605 449.589091 
L 76.804322 453.500232 
L 76.950732 454.896029 
L 77.182593 457.082558 
L 77.560865 460.19956 
L 77.939137 462.721515 
L 78.147333 463.86458 
z
M 79.988854 454.896029 
L 79.830495 454.473894 
L 79.452223 453.164041 
L 79.073952 451.389767 
L 78.69568 449.019341 
L 78.317408 445.927479 
L 78.317408 445.927479 
L 77.939137 442.193285 
L 77.560865 437.576837 
L 77.513566 436.958929 
L 77.182593 431.957318 
L 76.944478 427.990379 
L 76.804322 424.956671 
L 76.543475 419.021829 
L 76.42605 414.671728 
L 76.303461 410.053279 
L 76.195511 401.084729 
L 76.175883 392.116179 
L 76.206136 383.147629 
L 76.267303 374.179079 
L 76.356538 365.210529 
L 76.42605 360.214798 
L 76.480113 356.241979 
L 76.661185 347.273429 
L 76.804322 342.472874 
L 76.932178 338.304879 
L 77.182593 332.187888 
L 77.306326 329.336329 
L 77.560865 324.264069 
L 77.773193 320.367779 
L 77.939137 317.319343 
L 78.294804 311.399229 
L 78.317408 310.968402 
L 78.69568 304.274771 
L 78.813968 302.430678 
L 79.073952 297.435262 
L 79.315736 293.462128 
L 79.452223 290.811179 
L 79.830495 284.581365 
L 79.836525 284.493578 
L 80.208767 278.827159 
L 80.460534 275.525028 
L 80.587038 273.98817 
L 80.96531 269.532126 
L 81.23488 266.556478 
L 81.343582 265.446283 
L 81.721853 261.508668 
L 82.100125 257.790171 
L 82.120496 257.587928 
L 82.478397 254.129182 
L 82.856668 250.626083 
L 83.078713 248.619378 
L 83.23494 247.200409 
L 83.613212 243.851991 
L 83.991483 240.733809 
L 84.136711 239.650828 
L 84.369755 237.855802 
L 84.748027 235.436969 
L 85.126298 233.619294 
L 85.50457 232.45506 
L 85.882842 231.941693 
L 86.261113 232.003832 
L 86.639385 232.503417 
L 87.017657 233.281312 
L 87.395928 234.21058 
L 87.7742 235.231933 
L 88.152472 236.354886 
L 88.530743 237.627962 
L 88.909015 239.093006 
L 89.038828 239.650828 
L 89.287287 240.501474 
L 89.665558 241.914503 
L 90.04383 243.437567 
L 90.422102 245.084662 
L 90.800373 246.93024 
L 91.096851 248.619378 
L 91.178645 249.083234 
L 91.556917 251.754248 
L 91.935189 255.236441 
L 92.149197 257.587928 
L 92.31346 259.844205 
L 92.691732 265.697165 
L 92.745905 266.556478 
L 93.070004 272.351593 
L 93.244868 275.525028 
L 93.448275 279.240548 
L 93.707387 284.493578 
L 93.826547 287.109198 
L 94.063865 293.462128 
L 94.204819 298.567308 
L 94.295568 302.430678 
L 94.414071 311.399229 
L 94.42794 320.367779 
L 94.352416 329.336329 
L 94.209259 338.304879 
L 94.204819 338.520607 
L 94.042845 347.273429 
L 93.84975 356.241979 
L 93.826547 357.222639 
L 93.650566 365.210529 
L 93.448275 372.944661 
L 93.417284 374.179079 
L 93.149017 383.147629 
L 93.070004 385.301202 
L 92.816212 392.116179 
L 92.691732 394.836526 
L 92.387266 401.084729 
L 92.31346 402.364121 
L 91.935189 408.43793 
L 91.824258 410.053279 
L 91.556917 413.579884 
L 91.178645 417.971935 
L 91.081509 419.021829 
L 90.800373 421.963017 
L 90.422102 425.522644 
L 90.133904 427.990379 
L 90.04383 428.766814 
L 89.665558 431.849174 
L 89.287287 434.549911 
L 88.909015 436.899064 
L 88.898701 436.958929 
L 88.530743 439.211384 
L 88.152472 441.211817 
L 87.7742 442.957431 
L 87.395928 444.514917 
L 87.023182 445.927479 
L 87.017657 445.952348 
L 86.639385 447.670408 
L 86.261113 449.321864 
L 85.882842 450.903406 
L 85.50457 452.393648 
L 85.126298 453.763018 
L 84.775741 454.896029 
L 84.748027 455.006923 
L 84.369755 456.332291 
L 83.991483 457.378219 
L 83.613212 458.14586 
L 83.23494 458.642565 
L 82.856668 458.881318 
L 82.478397 458.882909 
L 82.100125 458.678059 
L 81.721853 458.305323 
L 81.343582 457.801814 
L 80.96531 457.188302 
L 80.587038 456.454773 
L 80.208767 455.552837 
z
" clip-path="url(#p9e2aea0852)" style="fill: #dfecf7"/>
    <path d="M 80.208767 455.552837 
L 80.587038 456.454773 
L 80.96531 457.188302 
L 81.343582 457.801814 
L 81.721853 458.305323 
L 82.100125 458.678059 
L 82.478397 458.882909 
L 82.856668 458.881318 
L 83.23494 458.642565 
L 83.613212 458.14586 
L 83.991483 457.378219 
L 84.369755 456.332291 
L 84.748027 455.006923 
L 84.775741 454.896029 
L 85.126298 453.763018 
L 85.50457 452.393648 
L 85.882842 450.903406 
L 86.261113 449.321864 
L 86.639385 447.670408 
L 87.017657 445.952348 
L 87.023182 445.927479 
L 87.395928 444.514917 
L 87.7742 442.957431 
L 88.152472 441.211817 
L 88.530743 439.211384 
L 88.898701 436.958929 
L 88.909015 436.899064 
L 89.287287 434.549911 
L 89.665558 431.849174 
L 90.04383 428.766814 
L 90.133904 427.990379 
L 90.422102 425.522644 
L 90.800373 421.963017 
L 91.081509 419.021829 
L 91.178645 417.971935 
L 91.556917 413.579884 
L 91.824258 410.053279 
L 91.935189 408.43793 
L 92.31346 402.364121 
L 92.387266 401.084729 
L 92.691732 394.836526 
L 92.816212 392.116179 
L 93.070004 385.301202 
L 93.149017 383.147629 
L 93.417284 374.179079 
L 93.448275 372.944661 
L 93.650566 365.210529 
L 93.826547 357.222639 
L 93.84975 356.241979 
L 94.042845 347.273429 
L 94.204819 338.520607 
L 94.209259 338.304879 
L 94.352416 329.336329 
L 94.42794 320.367779 
L 94.414071 311.399229 
L 94.295568 302.430678 
L 94.204819 298.567308 
L 94.063865 293.462128 
L 93.826547 287.109198 
L 93.707387 284.493578 
L 93.448275 279.240548 
L 93.244868 275.525028 
L 93.070004 272.351593 
L 92.745905 266.556478 
L 92.691732 265.697165 
L 92.31346 259.844205 
L 92.149197 257.587928 
L 91.935189 255.236441 
L 91.556917 251.754248 
L 91.178645 249.083234 
L 91.096851 248.619378 
L 90.800373 246.93024 
L 90.422102 245.084662 
L 90.04383 243.437567 
L 89.665558 241.914503 
L 89.287287 240.501474 
L 89.038828 239.650828 
L 88.909015 239.093006 
L 88.530743 237.627962 
L 88.152472 236.354886 
L 87.7742 235.231933 
L 87.395928 234.21058 
L 87.017657 233.281312 
L 86.639385 232.503417 
L 86.261113 232.003832 
L 85.882842 231.941693 
L 85.50457 232.45506 
L 85.126298 233.619294 
L 84.748027 235.436969 
L 84.369755 237.855802 
L 84.136711 239.650828 
L 83.991483 240.733809 
L 83.613212 243.851991 
L 83.23494 247.200409 
L 83.078713 248.619378 
L 82.856668 250.626083 
L 82.478397 254.129182 
L 82.120496 257.587928 
L 82.100125 257.790171 
L 81.721853 261.508668 
L 81.343582 265.446283 
L 81.23488 266.556478 
L 80.96531 269.532126 
L 80.587038 273.98817 
L 80.460534 275.525028 
L 80.208767 278.827159 
L 79.836525 284.493578 
L 79.830495 284.581365 
L 79.452223 290.811179 
L 79.315736 293.462128 
L 79.073952 297.435262 
L 78.813968 302.430678 
L 78.69568 304.274771 
L 78.317408 310.968402 
L 78.294804 311.399229 
L 77.939137 317.319343 
L 77.773193 320.367779 
L 77.560865 324.264069 
L 77.306326 329.336329 
L 77.182593 332.187888 
L 76.932178 338.304879 
L 76.804322 342.472874 
L 76.661185 347.273429 
L 76.480113 356.241979 
L 76.42605 360.214798 
L 76.356538 365.210529 
L 76.267303 374.179079 
L 76.206136 383.147629 
L 76.175883 392.116179 
L 76.195511 401.084729 
L 76.303461 410.053279 
L 76.42605 414.671728 
L 76.543475 419.021829 
L 76.804322 424.956671 
L 76.944478 427.990379 
L 77.182593 431.957318 
L 77.513566 436.958929 
L 77.560865 437.576837 
L 77.939137 442.193285 
L 78.317408 445.927479 
L 78.317408 445.927479 
L 78.69568 449.019341 
L 79.073952 451.389767 
L 79.452223 453.164041 
L 79.830495 454.473894 
L 79.988854 454.896029 
z
M 81.047091 445.927479 
L 80.96531 445.758901 
L 80.587038 444.799936 
L 80.208767 443.549681 
L 79.830495 441.884448 
L 79.452223 439.655023 
L 79.104366 436.958929 
L 79.073952 436.698212 
L 78.69568 432.83502 
L 78.323084 427.990379 
L 78.317408 427.901486 
L 77.939137 421.277102 
L 77.824877 419.021829 
L 77.560865 411.632267 
L 77.507711 410.053279 
L 77.331367 401.084729 
L 77.269118 392.116179 
L 77.28658 383.147629 
L 77.365675 374.179079 
L 77.502346 365.210529 
L 77.560865 362.439621 
L 77.692906 356.241979 
L 77.939137 347.949905 
L 77.96002 347.273429 
L 78.317353 338.304879 
L 78.317408 338.303728 
L 78.69568 330.81637 
L 78.77592 329.336329 
L 79.073952 324.339337 
L 79.332693 320.367779 
L 79.452223 318.537012 
L 79.830495 313.132643 
L 79.960473 311.399229 
L 80.208767 307.831113 
L 80.587038 303.019896 
L 80.635476 302.430678 
L 80.96531 297.858594 
L 81.334209 293.462128 
L 81.343582 293.33116 
L 81.721853 288.31552 
L 82.061222 284.493578 
L 82.100125 283.989368 
L 82.478397 279.470936 
L 82.856668 275.658248 
L 82.871368 275.525028 
L 83.23494 271.779124 
L 83.613212 268.424844 
L 83.85779 266.556478 
L 83.991483 265.419735 
L 84.369755 262.666388 
L 84.748027 260.479097 
L 85.126298 258.909857 
L 85.50457 257.944575 
L 85.798173 257.587928 
L 85.882842 257.472737 
L 86.261113 257.378037 
L 86.639385 257.587928 
L 86.639385 257.587928 
L 87.017657 257.954741 
L 87.395928 258.499429 
L 87.7742 259.249991 
L 88.152472 260.246495 
L 88.530743 261.5151 
L 88.909015 263.055125 
L 89.287287 264.850977 
L 89.603689 266.556478 
L 89.665558 266.90733 
L 90.04383 269.343511 
L 90.422102 272.458231 
L 90.709254 275.525028 
L 90.800373 276.666011 
L 91.178645 282.423862 
L 91.295078 284.493578 
L 91.556917 289.333881 
L 91.769567 293.462128 
L 91.935189 296.660295 
L 92.229686 302.430678 
L 92.31346 304.299682 
L 92.610027 311.399229 
L 92.691732 314.508857 
L 92.827304 320.367779 
L 92.891161 329.336329 
L 92.846587 338.304879 
L 92.73197 347.273429 
L 92.691732 349.472022 
L 92.571423 356.241979 
L 92.372553 365.210529 
L 92.31346 367.402671 
L 92.128781 374.179079 
L 91.935189 379.8983 
L 91.821115 383.147629 
L 91.556917 389.152429 
L 91.417949 392.116179 
L 91.178645 396.282071 
L 90.878284 401.084729 
L 90.800373 402.15681 
L 90.422102 407.088681 
L 90.180503 410.053279 
L 90.04383 411.576498 
L 89.665558 415.644459 
L 89.326665 419.021829 
L 89.287287 419.389954 
L 88.909015 422.802033 
L 88.530743 425.80179 
L 88.21523 427.990379 
L 88.152472 428.420099 
L 87.7742 430.823251 
L 87.395928 432.92418 
L 87.017657 434.801244 
L 86.639385 436.528113 
L 86.543142 436.958929 
L 86.261113 438.354471 
L 85.882842 440.145983 
L 85.50457 441.821189 
L 85.126298 443.354414 
L 84.748027 444.712448 
L 84.369755 445.862071 
L 84.342874 445.927479 
L 83.991483 446.911455 
L 83.613212 447.657464 
L 83.23494 448.095783 
L 82.856668 448.244307 
L 82.478397 448.131949 
L 82.100125 447.796096 
L 81.721853 447.274254 
L 81.343582 446.590132 
z
" clip-path="url(#p9e2aea0852)" style="fill: #cddff1"/>
    <path d="M 81.343582 446.590132 
L 81.721853 447.274254 
L 82.100125 447.796096 
L 82.478397 448.131949 
L 82.856668 448.244307 
L 83.23494 448.095783 
L 83.613212 447.657464 
L 83.991483 446.911455 
L 84.342874 445.927479 
L 84.369755 445.862071 
L 84.748027 444.712448 
L 85.126298 443.354414 
L 85.50457 441.821189 
L 85.882842 440.145983 
L 86.261113 438.354471 
L 86.543142 436.958929 
L 86.639385 436.528113 
L 87.017657 434.801244 
L 87.395928 432.92418 
L 87.7742 430.823251 
L 88.152472 428.420099 
L 88.21523 427.990379 
L 88.530743 425.80179 
L 88.909015 422.802033 
L 89.287287 419.389954 
L 89.326665 419.021829 
L 89.665558 415.644459 
L 90.04383 411.576498 
L 90.180503 410.053279 
L 90.422102 407.088681 
L 90.800373 402.15681 
L 90.878284 401.084729 
L 91.178645 396.282071 
L 91.417949 392.116179 
L 91.556917 389.152429 
L 91.821115 383.147629 
L 91.935189 379.8983 
L 92.128781 374.179079 
L 92.31346 367.402671 
L 92.372553 365.210529 
L 92.571423 356.241979 
L 92.691732 349.472022 
L 92.73197 347.273429 
L 92.846587 338.304879 
L 92.891161 329.336329 
L 92.827304 320.367779 
L 92.691732 314.508857 
L 92.610027 311.399229 
L 92.31346 304.299682 
L 92.229686 302.430678 
L 91.935189 296.660295 
L 91.769567 293.462128 
L 91.556917 289.333881 
L 91.295078 284.493578 
L 91.178645 282.423862 
L 90.800373 276.666011 
L 90.709254 275.525028 
L 90.422102 272.458231 
L 90.04383 269.343511 
L 89.665558 266.90733 
L 89.603689 266.556478 
L 89.287287 264.850977 
L 88.909015 263.055125 
L 88.530743 261.5151 
L 88.152472 260.246495 
L 87.7742 259.249991 
L 87.395928 258.499429 
L 87.017657 257.954741 
L 86.639385 257.587928 
L 86.639385 257.587928 
L 86.261113 257.378037 
L 85.882842 257.472737 
L 85.798173 257.587928 
L 85.50457 257.944575 
L 85.126298 258.909857 
L 84.748027 260.479097 
L 84.369755 262.666388 
L 83.991483 265.419735 
L 83.85779 266.556478 
L 83.613212 268.424844 
L 83.23494 271.779124 
L 82.871368 275.525028 
L 82.856668 275.658248 
L 82.478397 279.470936 
L 82.100125 283.989368 
L 82.061222 284.493578 
L 81.721853 288.31552 
L 81.343582 293.33116 
L 81.334209 293.462128 
L 80.96531 297.858594 
L 80.635476 302.430678 
L 80.587038 303.019896 
L 80.208767 307.831113 
L 79.960473 311.399229 
L 79.830495 313.132643 
L 79.452223 318.537012 
L 79.332693 320.367779 
L 79.073952 324.339337 
L 78.77592 329.336329 
L 78.69568 330.81637 
L 78.317408 338.303728 
L 78.317353 338.304879 
L 77.96002 347.273429 
L 77.939137 347.949905 
L 77.692906 356.241979 
L 77.560865 362.439621 
L 77.502346 365.210529 
L 77.365675 374.179079 
L 77.28658 383.147629 
L 77.269118 392.116179 
L 77.331367 401.084729 
L 77.507711 410.053279 
L 77.560865 411.632267 
L 77.824877 419.021829 
L 77.939137 421.277102 
L 78.317408 427.901486 
L 78.323084 427.990379 
L 78.69568 432.83502 
L 79.073952 436.698212 
L 79.104366 436.958929 
L 79.452223 439.655023 
L 79.830495 441.884448 
L 80.208767 443.549681 
L 80.587038 444.799936 
L 80.96531 445.758901 
L 81.047091 445.927479 
z
M 81.70192 436.958929 
L 81.343582 436.132141 
L 80.96531 434.992792 
L 80.587038 433.493323 
L 80.208767 431.502626 
L 79.830495 428.859932 
L 79.728983 427.990379 
L 79.452223 425.213381 
L 79.073952 420.420894 
L 78.97952 419.021829 
L 78.69568 413.514665 
L 78.540804 410.053279 
L 78.317408 401.964937 
L 78.294907 401.084729 
L 78.192655 392.116179 
L 78.201691 383.147629 
L 78.298604 374.179079 
L 78.317408 373.171262 
L 78.466531 365.210529 
L 78.69568 356.79783 
L 78.711147 356.241979 
L 79.032334 347.273429 
L 79.073952 346.330878 
L 79.443513 338.304879 
L 79.452223 338.143325 
L 79.830495 331.296516 
L 79.944437 329.336329 
L 80.208767 325.20304 
L 80.543918 320.367779 
L 80.587038 319.75957 
L 80.96531 314.678336 
L 81.23645 311.399229 
L 81.343582 310.033426 
L 81.721853 305.601321 
L 82.028029 302.430678 
L 82.100125 301.595411 
L 82.478397 297.655344 
L 82.856668 294.274563 
L 82.959886 293.462128 
L 83.23494 290.974734 
L 83.613212 288.051063 
L 83.991483 285.563564 
L 84.18054 284.493578 
L 84.369755 283.254272 
L 84.748027 281.182224 
L 85.126298 279.520831 
L 85.50457 278.239402 
L 85.882842 277.307016 
L 86.261113 276.702099 
L 86.639385 276.426071 
L 87.017657 276.511976 
L 87.395928 277.021125 
L 87.7742 278.026294 
L 88.152472 279.588085 
L 88.530743 281.739206 
L 88.909015 284.493578 
L 88.909015 284.493578 
L 89.287287 288.061303 
L 89.665558 292.391769 
L 89.748295 293.462128 
L 90.04383 297.690955 
L 90.335609 302.430678 
L 90.422102 303.963832 
L 90.800373 311.221936 
L 90.809157 311.399229 
L 91.170333 320.367779 
L 91.178645 320.697821 
L 91.384265 329.336329 
L 91.448369 338.304879 
L 91.39609 347.273429 
L 91.262269 356.241979 
L 91.178645 360.066451 
L 91.069055 365.210529 
L 90.811027 374.179079 
L 90.800373 374.460328 
L 90.471071 383.147629 
L 90.422102 384.12669 
L 90.04383 391.632864 
L 90.019792 392.116179 
L 89.665558 397.764912 
L 89.451727 401.084729 
L 89.287287 403.252628 
L 88.909015 408.069379 
L 88.743137 410.053279 
L 88.530743 412.319241 
L 88.152472 415.986331 
L 87.788418 419.021829 
L 87.7742 419.13339 
L 87.395928 421.897377 
L 87.017657 424.299898 
L 86.639385 426.440377 
L 86.343265 427.990379 
L 86.261113 428.433389 
L 85.882842 430.381938 
L 85.50457 432.172004 
L 85.126298 433.791458 
L 84.748027 435.211548 
L 84.369755 436.396654 
L 84.137609 436.958929 
L 83.991483 437.341099 
L 83.613212 438.007471 
L 83.23494 438.351994 
L 82.856668 438.394294 
L 82.478397 438.164241 
L 82.100125 437.694078 
L 81.721853 437.005557 
z
" clip-path="url(#p9e2aea0852)" style="fill: #aed1e7"/>
    <path d="M 81.721853 437.005557 
L 82.100125 437.694078 
L 82.478397 438.164241 
L 82.856668 438.394294 
L 83.23494 438.351994 
L 83.613212 438.007471 
L 83.991483 437.341099 
L 84.137609 436.958929 
L 84.369755 436.396654 
L 84.748027 435.211548 
L 85.126298 433.791458 
L 85.50457 432.172004 
L 85.882842 430.381938 
L 86.261113 428.433389 
L 86.343265 427.990379 
L 86.639385 426.440377 
L 87.017657 424.299898 
L 87.395928 421.897377 
L 87.7742 419.13339 
L 87.788418 419.021829 
L 88.152472 415.986331 
L 88.530743 412.319241 
L 88.743137 410.053279 
L 88.909015 408.069379 
L 89.287287 403.252628 
L 89.451727 401.084729 
L 89.665558 397.764912 
L 90.019792 392.116179 
L 90.04383 391.632864 
L 90.422102 384.12669 
L 90.471071 383.147629 
L 90.800373 374.460328 
L 90.811027 374.179079 
L 91.069055 365.210529 
L 91.178645 360.066451 
L 91.262269 356.241979 
L 91.39609 347.273429 
L 91.448369 338.304879 
L 91.384265 329.336329 
L 91.178645 320.697821 
L 91.170333 320.367779 
L 90.809157 311.399229 
L 90.800373 311.221936 
L 90.422102 303.963832 
L 90.335609 302.430678 
L 90.04383 297.690955 
L 89.748295 293.462128 
L 89.665558 292.391769 
L 89.287287 288.061303 
L 88.909015 284.493578 
L 88.909015 284.493578 
L 88.530743 281.739206 
L 88.152472 279.588085 
L 87.7742 278.026294 
L 87.395928 277.021125 
L 87.017657 276.511976 
L 86.639385 276.426071 
L 86.261113 276.702099 
L 85.882842 277.307016 
L 85.50457 278.239402 
L 85.126298 279.520831 
L 84.748027 281.182224 
L 84.369755 283.254272 
L 84.18054 284.493578 
L 83.991483 285.563564 
L 83.613212 288.051063 
L 83.23494 290.974734 
L 82.959886 293.462128 
L 82.856668 294.274563 
L 82.478397 297.655344 
L 82.100125 301.595411 
L 82.028029 302.430678 
L 81.721853 305.601321 
L 81.343582 310.033426 
L 81.23645 311.399229 
L 80.96531 314.678336 
L 80.587038 319.75957 
L 80.543918 320.367779 
L 80.208767 325.20304 
L 79.944437 329.336329 
L 79.830495 331.296516 
L 79.452223 338.143325 
L 79.443513 338.304879 
L 79.073952 346.330878 
L 79.032334 347.273429 
L 78.711147 356.241979 
L 78.69568 356.79783 
L 78.466531 365.210529 
L 78.317408 373.171262 
L 78.298604 374.179079 
L 78.201691 383.147629 
L 78.192655 392.116179 
L 78.294907 401.084729 
L 78.317408 401.964937 
L 78.540804 410.053279 
L 78.69568 413.514665 
L 78.97952 419.021829 
L 79.073952 420.420894 
L 79.452223 425.213381 
L 79.728983 427.990379 
L 79.830495 428.859932 
L 80.208767 431.502626 
L 80.587038 433.493323 
L 80.96531 434.992792 
L 81.343582 436.132141 
L 81.70192 436.958929 
z
M 82.02399 427.990379 
L 81.721853 427.240623 
L 81.343582 425.962417 
L 80.96531 424.240243 
L 80.587038 421.936202 
L 80.224568 419.021829 
L 80.208767 418.863024 
L 79.830495 414.246776 
L 79.556176 410.053279 
L 79.452223 407.695964 
L 79.200248 401.084729 
L 79.073952 394.004406 
L 79.043022 392.116179 
L 79.033482 383.147629 
L 79.073952 379.59092 
L 79.135001 374.179079 
L 79.324365 365.210529 
L 79.452223 360.91483 
L 79.592049 356.241979 
L 79.830495 350.046118 
L 79.938598 347.273429 
L 80.208767 341.625413 
L 80.373735 338.304879 
L 80.587038 334.636901 
L 80.91852 329.336329 
L 80.96531 328.655614 
L 81.343582 323.512154 
L 81.602796 320.367779 
L 81.721853 318.944938 
L 82.100125 314.874734 
L 82.470896 311.399229 
L 82.478397 311.324762 
L 82.856668 307.992041 
L 83.23494 305.123749 
L 83.613212 302.645929 
L 83.651105 302.430678 
L 83.991483 300.29802 
L 84.369755 298.285312 
L 84.748027 296.595585 
L 85.126298 295.213334 
L 85.50457 294.140039 
L 85.848219 293.462128 
L 85.882842 293.387496 
L 86.261113 292.981681 
L 86.639385 293.020909 
L 86.938956 293.462128 
L 87.017657 293.580467 
L 87.395928 294.762755 
L 87.7742 296.709982 
L 88.152472 299.525311 
L 88.451288 302.430678 
L 88.530743 303.266387 
L 88.909015 308.007057 
L 89.140177 311.399229 
L 89.287287 313.896956 
L 89.627134 320.367779 
L 89.665558 321.362968 
L 89.948447 329.336329 
L 90.04383 334.740956 
L 90.103237 338.304879 
L 90.121334 347.273429 
L 90.04383 355.734728 
L 90.039748 356.241979 
L 89.893276 365.210529 
L 89.665558 374.179079 
L 89.665558 374.179079 
L 89.353052 383.147629 
L 89.287287 384.516212 
L 88.920097 392.116179 
L 88.909015 392.297065 
L 88.530743 398.349196 
L 88.34447 401.084729 
L 88.152472 403.477212 
L 87.7742 407.702411 
L 87.534882 410.053279 
L 87.395928 411.282842 
L 87.017657 414.272888 
L 86.639385 416.879295 
L 86.293591 419.021829 
L 86.261113 419.215871 
L 85.882842 421.31628 
L 85.50457 423.208149 
L 85.126298 424.894551 
L 84.748027 426.352584 
L 84.369755 427.545794 
L 84.180377 427.990379 
L 83.991483 428.439605 
L 83.613212 429.004848 
L 83.23494 429.241889 
L 82.856668 429.168068 
L 82.478397 428.805784 
L 82.100125 428.170439 
z
" clip-path="url(#p9e2aea0852)" style="fill: #84bcdb"/>
    <path d="M 82.100125 428.170439 
L 82.478397 428.805784 
L 82.856668 429.168068 
L 83.23494 429.241889 
L 83.613212 429.004848 
L 83.991483 428.439605 
L 84.180377 427.990379 
L 84.369755 427.545794 
L 84.748027 426.352584 
L 85.126298 424.894551 
L 85.50457 423.208149 
L 85.882842 421.31628 
L 86.261113 419.215871 
L 86.293591 419.021829 
L 86.639385 416.879295 
L 87.017657 414.272888 
L 87.395928 411.282842 
L 87.534882 410.053279 
L 87.7742 407.702411 
L 88.152472 403.477212 
L 88.34447 401.084729 
L 88.530743 398.349196 
L 88.909015 392.297065 
L 88.920097 392.116179 
L 89.287287 384.516212 
L 89.353052 383.147629 
L 89.665558 374.179079 
L 89.665558 374.179079 
L 89.893276 365.210529 
L 90.039748 356.241979 
L 90.04383 355.734728 
L 90.121334 347.273429 
L 90.103237 338.304879 
L 90.04383 334.740956 
L 89.948447 329.336329 
L 89.665558 321.362968 
L 89.627134 320.367779 
L 89.287287 313.896956 
L 89.140177 311.399229 
L 88.909015 308.007057 
L 88.530743 303.266387 
L 88.451288 302.430678 
L 88.152472 299.525311 
L 87.7742 296.709982 
L 87.395928 294.762755 
L 87.017657 293.580467 
L 86.938956 293.462128 
L 86.639385 293.020909 
L 86.261113 292.981681 
L 85.882842 293.387496 
L 85.848219 293.462128 
L 85.50457 294.140039 
L 85.126298 295.213334 
L 84.748027 296.595585 
L 84.369755 298.285312 
L 83.991483 300.29802 
L 83.651105 302.430678 
L 83.613212 302.645929 
L 83.23494 305.123749 
L 82.856668 307.992041 
L 82.478397 311.324762 
L 82.470896 311.399229 
L 82.100125 314.874734 
L 81.721853 318.944938 
L 81.602796 320.367779 
L 81.343582 323.512154 
L 80.96531 328.655614 
L 80.91852 329.336329 
L 80.587038 334.636901 
L 80.373735 338.304879 
L 80.208767 341.625413 
L 79.938598 347.273429 
L 79.830495 350.046118 
L 79.592049 356.241979 
L 79.452223 360.91483 
L 79.324365 365.210529 
L 79.135001 374.179079 
L 79.073952 379.59092 
L 79.033482 383.147629 
L 79.043022 392.116179 
L 79.073952 394.004406 
L 79.200248 401.084729 
L 79.452223 407.695964 
L 79.556176 410.053279 
L 79.830495 414.246776 
L 80.208767 418.863024 
L 80.224568 419.021829 
L 80.587038 421.936202 
L 80.96531 424.240243 
L 81.343582 425.962417 
L 81.721853 427.240623 
L 82.02399 427.990379 
z
M 82.621654 419.021829 
L 82.478397 418.796427 
L 82.100125 417.823588 
L 81.721853 416.389881 
L 81.343582 414.372041 
L 80.96531 411.605457 
L 80.799131 410.053279 
L 80.587038 407.283423 
L 80.21823 401.084729 
L 80.208767 400.79214 
L 79.966983 392.116179 
L 79.912414 383.147629 
L 79.99713 374.179079 
L 80.183636 365.210529 
L 80.208767 364.383252 
L 80.454729 356.241979 
L 80.587038 352.920693 
L 80.818306 347.273429 
L 80.96531 344.405321 
L 81.302067 338.304879 
L 81.343582 337.664422 
L 81.721853 332.335735 
L 81.96554 329.336329 
L 82.100125 327.80058 
L 82.478397 324.020867 
L 82.856668 320.795361 
L 82.915154 320.367779 
L 83.23494 317.999463 
L 83.613212 315.623525 
L 83.991483 313.621655 
L 84.369755 311.959535 
L 84.530292 311.399229 
L 84.748027 310.585406 
L 85.126298 309.538881 
L 85.50457 308.866928 
L 85.882842 308.602909 
L 86.261113 308.804315 
L 86.639385 309.562951 
L 87.017657 311.010686 
L 87.085385 311.399229 
L 87.395928 313.280373 
L 87.7742 316.624705 
L 88.086192 320.367779 
L 88.152472 321.344614 
L 88.530743 328.180983 
L 88.585973 329.336329 
L 88.867466 338.304879 
L 88.909015 341.112439 
L 88.992908 347.273429 
L 88.9997 356.241979 
L 88.909015 365.210529 
L 88.909015 365.210529 
L 88.720971 374.179079 
L 88.530743 379.708864 
L 88.410535 383.147629 
L 88.152472 388.261941 
L 87.943229 392.116179 
L 87.7742 394.531632 
L 87.395928 399.364705 
L 87.245133 401.084729 
L 87.017657 403.266884 
L 86.639385 406.453009 
L 86.261113 409.272819 
L 86.145187 410.053279 
L 85.882842 411.639964 
L 85.50457 413.670395 
L 85.126298 415.447608 
L 84.748027 416.95259 
L 84.369755 418.148722 
L 83.991483 419.000688 
L 83.974918 419.021829 
L 83.613212 419.459984 
L 83.23494 419.576655 
L 82.856668 419.35983 
z
" clip-path="url(#p9e2aea0852)" style="fill: #58a1cf"/>
    <path d="M 82.856668 419.35983 
L 83.23494 419.576655 
L 83.613212 419.459984 
L 83.974918 419.021829 
L 83.991483 419.000688 
L 84.369755 418.148722 
L 84.748027 416.95259 
L 85.126298 415.447608 
L 85.50457 413.670395 
L 85.882842 411.639964 
L 86.145187 410.053279 
L 86.261113 409.272819 
L 86.639385 406.453009 
L 87.017657 403.266884 
L 87.245133 401.084729 
L 87.395928 399.364705 
L 87.7742 394.531632 
L 87.943229 392.116179 
L 88.152472 388.261941 
L 88.410535 383.147629 
L 88.530743 379.708864 
L 88.720971 374.179079 
L 88.909015 365.210529 
L 88.909015 365.210529 
L 88.9997 356.241979 
L 88.992908 347.273429 
L 88.909015 341.112439 
L 88.867466 338.304879 
L 88.585973 329.336329 
L 88.530743 328.180983 
L 88.152472 321.344614 
L 88.086192 320.367779 
L 87.7742 316.624705 
L 87.395928 313.280373 
L 87.085385 311.399229 
L 87.017657 311.010686 
L 86.639385 309.562951 
L 86.261113 308.804315 
L 85.882842 308.602909 
L 85.50457 308.866928 
L 85.126298 309.538881 
L 84.748027 310.585406 
L 84.530292 311.399229 
L 84.369755 311.959535 
L 83.991483 313.621655 
L 83.613212 315.623525 
L 83.23494 317.999463 
L 82.915154 320.367779 
L 82.856668 320.795361 
L 82.478397 324.020867 
L 82.100125 327.80058 
L 81.96554 329.336329 
L 81.721853 332.335735 
L 81.343582 337.664422 
L 81.302067 338.304879 
L 80.96531 344.405321 
L 80.818306 347.273429 
L 80.587038 352.920693 
L 80.454729 356.241979 
L 80.208767 364.383252 
L 80.183636 365.210529 
L 79.99713 374.179079 
L 79.912414 383.147629 
L 79.966983 392.116179 
L 80.208767 400.79214 
L 80.21823 401.084729 
L 80.587038 407.283423 
L 80.799131 410.053279 
L 80.96531 411.605457 
L 81.343582 414.372041 
L 81.721853 416.389881 
L 82.100125 417.823588 
L 82.478397 418.796427 
L 82.621654 419.021829 
z
M 81.453641 401.084729 
L 81.343582 399.501372 
L 80.971389 392.116179 
L 80.96531 391.7974 
L 80.827282 383.147629 
L 80.865068 374.179079 
L 80.96531 368.772056 
L 81.030547 365.210529 
L 81.307855 356.241979 
L 81.343582 355.41142 
L 81.721853 347.273429 
L 81.721853 347.273429 
L 82.100125 341.573138 
L 82.354618 338.304879 
L 82.478397 336.931643 
L 82.856668 333.373884 
L 83.23494 330.423871 
L 83.404399 329.336329 
L 83.613212 328.054624 
L 83.991483 326.178925 
L 84.369755 324.70438 
L 84.748027 323.61459 
L 85.126298 322.91929 
L 85.50457 322.655531 
L 85.882842 322.895073 
L 86.261113 323.758566 
L 86.639385 325.430607 
L 87.017657 328.165316 
L 87.133326 329.336329 
L 87.395928 332.972836 
L 87.679114 338.304879 
L 87.7742 341.415892 
L 87.926294 347.273429 
L 88.012902 356.241979 
L 87.972011 365.210529 
L 87.798403 374.179079 
L 87.7742 374.841575 
L 87.449043 383.147629 
L 87.395928 384.05193 
L 87.017657 389.849767 
L 86.852195 392.116179 
L 86.639385 394.319202 
L 86.261113 397.776645 
L 85.882842 400.853533 
L 85.850366 401.084729 
L 85.50457 403.119501 
L 85.126298 405.034907 
L 84.748027 406.623755 
L 84.369755 407.85042 
L 83.991483 408.681933 
L 83.613212 409.098483 
L 83.23494 409.086978 
L 82.856668 408.620762 
L 82.478397 407.63489 
L 82.100125 406.005665 
L 81.721853 403.540725 
z
" clip-path="url(#p9e2aea0852)" style="fill: #3383be"/>
    <path d="M 81.721853 403.540725 
L 82.100125 406.005665 
L 82.478397 407.63489 
L 82.856668 408.620762 
L 83.23494 409.086978 
L 83.613212 409.098483 
L 83.991483 408.681933 
L 84.369755 407.85042 
L 84.748027 406.623755 
L 85.126298 405.034907 
L 85.50457 403.119501 
L 85.850366 401.084729 
L 85.882842 400.853533 
L 86.261113 397.776645 
L 86.639385 394.319202 
L 86.852195 392.116179 
L 87.017657 389.849767 
L 87.395928 384.05193 
L 87.449043 383.147629 
L 87.7742 374.841575 
L 87.798403 374.179079 
L 87.972011 365.210529 
L 88.012902 356.241979 
L 87.926294 347.273429 
L 87.7742 341.415892 
L 87.679114 338.304879 
L 87.395928 332.972836 
L 87.133326 329.336329 
L 87.017657 328.165316 
L 86.639385 325.430607 
L 86.261113 323.758566 
L 85.882842 322.895073 
L 85.50457 322.655531 
L 85.126298 322.91929 
L 84.748027 323.61459 
L 84.369755 324.70438 
L 83.991483 326.178925 
L 83.613212 328.054624 
L 83.404399 329.336329 
L 83.23494 330.423871 
L 82.856668 333.373884 
L 82.478397 336.931643 
L 82.354618 338.304879 
L 82.100125 341.573138 
L 81.721853 347.273429 
L 81.721853 347.273429 
L 81.343582 355.41142 
L 81.307855 356.241979 
L 81.030547 365.210529 
L 80.96531 368.772056 
L 80.865068 374.179079 
L 80.827282 383.147629 
L 80.96531 391.7974 
L 80.971389 392.116179 
L 81.343582 399.501372 
L 81.453641 401.084729 
z
M 82.478397 392.116179 
L 82.478397 392.116179 
L 82.100125 386.390024 
L 81.963304 383.147629 
L 81.888203 374.179079 
L 82.029214 365.210529 
L 82.100125 363.182251 
L 82.373533 356.241979 
L 82.478397 354.477401 
L 82.856668 349.168134 
L 83.023057 347.273429 
L 83.23494 345.395711 
L 83.613212 342.783275 
L 83.991483 340.795794 
L 84.369755 339.366265 
L 84.748027 338.485103 
L 85.012587 338.304879 
L 85.126298 338.239756 
L 85.18978 338.304879 
L 85.50457 338.75349 
L 85.882842 340.400456 
L 86.261113 343.649644 
L 86.52041 347.273429 
L 86.639385 351.139397 
L 86.757845 356.241979 
L 86.748387 365.210529 
L 86.639385 369.832763 
L 86.522768 374.179079 
L 86.261113 378.977579 
L 86.000344 383.147629 
L 85.882842 384.376847 
L 85.50457 387.800722 
L 85.126298 390.718719 
L 84.904224 392.116179 
L 84.748027 392.857031 
L 84.369755 394.220485 
L 83.991483 395.112524 
L 83.613212 395.470911 
L 83.23494 395.205368 
L 82.856668 394.167875 
z
" clip-path="url(#p9e2aea0852)" style="fill: #1562a9"/>
    <path d="M 82.856668 394.167875 
L 83.23494 395.205368 
L 83.613212 395.470911 
L 83.991483 395.112524 
L 84.369755 394.220485 
L 84.748027 392.857031 
L 84.904224 392.116179 
L 85.126298 390.718719 
L 85.50457 387.800722 
L 85.882842 384.376847 
L 86.000344 383.147629 
L 86.261113 378.977579 
L 86.522768 374.179079 
L 86.639385 369.832763 
L 86.748387 365.210529 
L 86.757845 356.241979 
L 86.639385 351.139397 
L 86.52041 347.273429 
L 86.261113 343.649644 
L 85.882842 340.400456 
L 85.50457 338.75349 
L 85.18978 338.304879 
L 85.126298 338.239756 
L 85.012587 338.304879 
L 84.748027 338.485103 
L 84.369755 339.366265 
L 83.991483 340.795794 
L 83.613212 342.783275 
L 83.23494 345.395711 
L 83.023057 347.273429 
L 82.856668 349.168134 
L 82.478397 354.477401 
L 82.373533 356.241979 
L 82.100125 363.182251 
L 82.029214 365.210529 
L 81.888203 374.179079 
L 81.963304 383.147629 
L 82.100125 386.390024 
L 82.478397 392.116179 
L 82.478397 392.116179 
z
" clip-path="url(#p9e2aea0852)" style="fill: #084082"/>
   </g>
   <g id="matplotlib.axis_1">
    <g id="xtick_1">
     <g id="line2d_1">
      <defs>
       <path id="m31684f2af9" d="M 0 0 
L 0 3.5 
" style="stroke: #000000; stroke-width: 0.8"/>
      </defs>
      <g>
       <use xlink:href="#m31684f2af9" x="163.066769" y="499.48" style="stroke: #000000; stroke-width: 0.8"/>
      </g>
     </g>
     <g id="text_1">
      <!-- 2 -->
      <g transform="translate(156.068019 523.196563) scale(0.22 -0.22)">
       <defs>
        <path id="DejaVuSans-32" d="M 1228 531 
L 3431 531 
L 3431 0 
L 469 0 
L 469 531 
Q 828 903 1448 1529 
Q 2069 2156 2228 2338 
Q 2531 2678 2651 2914 
Q 2772 3150 2772 3378 
Q 2772 3750 2511 3984 
Q 2250 4219 1831 4219 
Q 1534 4219 1204 4116 
Q 875 4013 500 3803 
L 500 4441 
Q 881 4594 1212 4672 
Q 1544 4750 1819 4750 
Q 2544 4750 2975 4387 
Q 3406 4025 3406 3419 
Q 3406 3131 3298 2873 
Q 3191 2616 2906 2266 
Q 2828 2175 2409 1742 
Q 1991 1309 1228 531 
z
" transform="scale(0.015625)"/>
       </defs>
       <use xlink:href="#DejaVuSans-32"/>
      </g>
     </g>
    </g>
    <g id="xtick_2">
     <g id="line2d_2">
      <g>
       <use xlink:href="#m31684f2af9" x="280.645182" y="499.48" style="stroke: #000000; stroke-width: 0.8"/>
      </g>
     </g>
     <g id="text_2">
      <!-- 3 -->
      <g transform="translate(273.646432 523.196563) scale(0.22 -0.22)">
       <defs>
        <path id="DejaVuSans-33" d="M 2597 2516 
Q 3050 2419 3304 2112 
Q 3559 1806 3559 1356 
Q 3559 666 3084 287 
Q 2609 -91 1734 -91 
Q 1441 -91 1130 -33 
Q 819 25 488 141 
L 488 750 
Q 750 597 1062 519 
Q 1375 441 1716 441 
Q 2309 441 2620 675 
Q 2931 909 2931 1356 
Q 2931 1769 2642 2001 
Q 2353 2234 1838 2234 
L 1294 2234 
L 1294 2753 
L 1863 2753 
Q 2328 2753 2575 2939 
Q 2822 3125 2822 3475 
Q 2822 3834 2567 4026 
Q 2313 4219 1838 4219 
Q 1578 4219 1281 4162 
Q 984 4106 628 3988 
L 628 4550 
Q 988 4650 1302 4700 
Q 1616 4750 1894 4750 
Q 2613 4750 3031 4423 
Q 3450 4097 3450 3541 
Q 3450 3153 3228 2886 
Q 3006 2619 2597 2516 
z
" transform="scale(0.015625)"/>
       </defs>
       <use xlink:href="#DejaVuSans-33"/>
      </g>
     </g>
    </g>
    <g id="xtick_3">
     <g id="line2d_3">
      <g>
       <use xlink:href="#m31684f2af9" x="398.223596" y="499.48" style="stroke: #000000; stroke-width: 0.8"/>
      </g>
     </g>
     <g id="text_3">
      <!-- 4 -->
      <g transform="translate(391.224846 523.196563) scale(0.22 -0.22)">
       <defs>
        <path id="DejaVuSans-34" d="M 2419 4116 
L 825 1625 
L 2419 1625 
L 2419 4116 
z
M 2253 4666 
L 3047 4666 
L 3047 1625 
L 3713 1625 
L 3713 1100 
L 3047 1100 
L 3047 0 
L 2419 0 
L 2419 1100 
L 313 1100 
L 313 1709 
L 2253 4666 
z
" transform="scale(0.015625)"/>
       </defs>
       <use xlink:href="#DejaVuSans-34"/>
      </g>
     </g>
    </g>
    <g id="xtick_4">
     <g id="line2d_4">
      <g>
       <use xlink:href="#m31684f2af9" x="515.80201" y="499.48" style="stroke: #000000; stroke-width: 0.8"/>
      </g>
     </g>
     <g id="text_4">
      <!-- 5 -->
      <g transform="translate(508.80326 523.196563) scale(0.22 -0.22)">
       <defs>
        <path id="DejaVuSans-35" d="M 691 4666 
L 3169 4666 
L 3169 4134 
L 1269 4134 
L 1269 2991 
Q 1406 3038 1543 3061 
Q 1681 3084 1819 3084 
Q 2600 3084 3056 2656 
Q 3513 2228 3513 1497 
Q 3513 744 3044 326 
Q 2575 -91 1722 -91 
Q 1428 -91 1123 -41 
Q 819 9 494 109 
L 494 744 
Q 775 591 1075 516 
Q 1375 441 1709 441 
Q 2250 441 2565 725 
Q 2881 1009 2881 1497 
Q 2881 1984 2565 2268 
Q 2250 2553 1709 2553 
Q 1456 2553 1204 2497 
Q 953 2441 691 2322 
L 691 4666 
z
" transform="scale(0.015625)"/>
       </defs>
       <use xlink:href="#DejaVuSans-35"/>
      </g>
     </g>
    </g>
    <g id="xtick_5">
     <g id="line2d_5">
      <g>
       <use xlink:href="#m31684f2af9" x="633.380424" y="499.48" style="stroke: #000000; stroke-width: 0.8"/>
      </g>
     </g>
     <g id="text_5">
      <!-- 6 -->
      <g transform="translate(626.381674 523.196563) scale(0.22 -0.22)">
       <defs>
        <path id="DejaVuSans-36" d="M 2113 2584 
Q 1688 2584 1439 2293 
Q 1191 2003 1191 1497 
Q 1191 994 1439 701 
Q 1688 409 2113 409 
Q 2538 409 2786 701 
Q 3034 994 3034 1497 
Q 3034 2003 2786 2293 
Q 2538 2584 2113 2584 
z
M 3366 4563 
L 3366 3988 
Q 3128 4100 2886 4159 
Q 2644 4219 2406 4219 
Q 1781 4219 1451 3797 
Q 1122 3375 1075 2522 
Q 1259 2794 1537 2939 
Q 1816 3084 2150 3084 
Q 2853 3084 3261 2657 
Q 3669 2231 3669 1497 
Q 3669 778 3244 343 
Q 2819 -91 2113 -91 
Q 1303 -91 875 529 
Q 447 1150 447 2328 
Q 447 3434 972 4092 
Q 1497 4750 2381 4750 
Q 2619 4750 2861 4703 
Q 3103 4656 3366 4563 
z
" transform="scale(0.015625)"/>
       </defs>
       <use xlink:href="#DejaVuSans-36"/>
      </g>
     </g>
    </g>
    <g id="text_6">
     <!-- Force Uncertainties -->
     <g transform="translate(276.406094 548.488438) scale(0.22 -0.22)">
      <defs>
       <path id="DejaVuSans-46" d="M 628 4666 
L 3309 4666 
L 3309 4134 
L 1259 4134 
L 1259 2759 
L 3109 2759 
L 3109 2228 
L 1259 2228 
L 1259 0 
L 628 0 
L 628 4666 
z
" transform="scale(0.015625)"/>
       <path id="DejaVuSans-6f" d="M 1959 3097 
Q 1497 3097 1228 2736 
Q 959 2375 959 1747 
Q 959 1119 1226 758 
Q 1494 397 1959 397 
Q 2419 397 2687 759 
Q 2956 1122 2956 1747 
Q 2956 2369 2687 2733 
Q 2419 3097 1959 3097 
z
M 1959 3584 
Q 2709 3584 3137 3096 
Q 3566 2609 3566 1747 
Q 3566 888 3137 398 
Q 2709 -91 1959 -91 
Q 1206 -91 779 398 
Q 353 888 353 1747 
Q 353 2609 779 3096 
Q 1206 3584 1959 3584 
z
" transform="scale(0.015625)"/>
       <path id="DejaVuSans-72" d="M 2631 2963 
Q 2534 3019 2420 3045 
Q 2306 3072 2169 3072 
Q 1681 3072 1420 2755 
Q 1159 2438 1159 1844 
L 1159 0 
L 581 0 
L 581 3500 
L 1159 3500 
L 1159 2956 
Q 1341 3275 1631 3429 
Q 1922 3584 2338 3584 
Q 2397 3584 2469 3576 
Q 2541 3569 2628 3553 
L 2631 2963 
z
" transform="scale(0.015625)"/>
       <path id="DejaVuSans-63" d="M 3122 3366 
L 3122 2828 
Q 2878 2963 2633 3030 
Q 2388 3097 2138 3097 
Q 1578 3097 1268 2742 
Q 959 2388 959 1747 
Q 959 1106 1268 751 
Q 1578 397 2138 397 
Q 2388 397 2633 464 
Q 2878 531 3122 666 
L 3122 134 
Q 2881 22 2623 -34 
Q 2366 -91 2075 -91 
Q 1284 -91 818 406 
Q 353 903 353 1747 
Q 353 2603 823 3093 
Q 1294 3584 2113 3584 
Q 2378 3584 2631 3529 
Q 2884 3475 3122 3366 
z
" transform="scale(0.015625)"/>
       <path id="DejaVuSans-65" d="M 3597 1894 
L 3597 1613 
L 953 1613 
Q 991 1019 1311 708 
Q 1631 397 2203 397 
Q 2534 397 2845 478 
Q 3156 559 3463 722 
L 3463 178 
Q 3153 47 2828 -22 
Q 2503 -91 2169 -91 
Q 1331 -91 842 396 
Q 353 884 353 1716 
Q 353 2575 817 3079 
Q 1281 3584 2069 3584 
Q 2775 3584 3186 3129 
Q 3597 2675 3597 1894 
z
M 3022 2063 
Q 3016 2534 2758 2815 
Q 2500 3097 2075 3097 
Q 1594 3097 1305 2825 
Q 1016 2553 972 2059 
L 3022 2063 
z
" transform="scale(0.015625)"/>
       <path id="DejaVuSans-20" transform="scale(0.015625)"/>
       <path id="DejaVuSans-55" d="M 556 4666 
L 1191 4666 
L 1191 1831 
Q 1191 1081 1462 751 
Q 1734 422 2344 422 
Q 2950 422 3222 751 
Q 3494 1081 3494 1831 
L 3494 4666 
L 4128 4666 
L 4128 1753 
Q 4128 841 3676 375 
Q 3225 -91 2344 -91 
Q 1459 -91 1007 375 
Q 556 841 556 1753 
L 556 4666 
z
" transform="scale(0.015625)"/>
       <path id="DejaVuSans-6e" d="M 3513 2113 
L 3513 0 
L 2938 0 
L 2938 2094 
Q 2938 2591 2744 2837 
Q 2550 3084 2163 3084 
Q 1697 3084 1428 2787 
Q 1159 2491 1159 1978 
L 1159 0 
L 581 0 
L 581 3500 
L 1159 3500 
L 1159 2956 
Q 1366 3272 1645 3428 
Q 1925 3584 2291 3584 
Q 2894 3584 3203 3211 
Q 3513 2838 3513 2113 
z
" transform="scale(0.015625)"/>
       <path id="DejaVuSans-74" d="M 1172 4494 
L 1172 3500 
L 2356 3500 
L 2356 3053 
L 1172 3053 
L 1172 1153 
Q 1172 725 1289 603 
Q 1406 481 1766 481 
L 2356 481 
L 2356 0 
L 1766 0 
Q 1100 0 847 248 
Q 594 497 594 1153 
L 594 3053 
L 172 3053 
L 172 3500 
L 594 3500 
L 594 4494 
L 1172 4494 
z
" transform="scale(0.015625)"/>
       <path id="DejaVuSans-61" d="M 2194 1759 
Q 1497 1759 1228 1600 
Q 959 1441 959 1056 
Q 959 750 1161 570 
Q 1363 391 1709 391 
Q 2188 391 2477 730 
Q 2766 1069 2766 1631 
L 2766 1759 
L 2194 1759 
z
M 3341 1997 
L 3341 0 
L 2766 0 
L 2766 531 
Q 2569 213 2275 61 
Q 1981 -91 1556 -91 
Q 1019 -91 701 211 
Q 384 513 384 1019 
Q 384 1609 779 1909 
Q 1175 2209 1959 2209 
L 2766 2209 
L 2766 2266 
Q 2766 2663 2505 2880 
Q 2244 3097 1772 3097 
Q 1472 3097 1187 3025 
Q 903 2953 641 2809 
L 641 3341 
Q 956 3463 1253 3523 
Q 1550 3584 1831 3584 
Q 2591 3584 2966 3190 
Q 3341 2797 3341 1997 
z
" transform="scale(0.015625)"/>
       <path id="DejaVuSans-69" d="M 603 3500 
L 1178 3500 
L 1178 0 
L 603 0 
L 603 3500 
z
M 603 4863 
L 1178 4863 
L 1178 4134 
L 603 4134 
L 603 4863 
z
" transform="scale(0.015625)"/>
       <path id="DejaVuSans-73" d="M 2834 3397 
L 2834 2853 
Q 2591 2978 2328 3040 
Q 2066 3103 1784 3103 
Q 1356 3103 1142 2972 
Q 928 2841 928 2578 
Q 928 2378 1081 2264 
Q 1234 2150 1697 2047 
L 1894 2003 
Q 2506 1872 2764 1633 
Q 3022 1394 3022 966 
Q 3022 478 2636 193 
Q 2250 -91 1575 -91 
Q 1294 -91 989 -36 
Q 684 19 347 128 
L 347 722 
Q 666 556 975 473 
Q 1284 391 1588 391 
Q 1994 391 2212 530 
Q 2431 669 2431 922 
Q 2431 1156 2273 1281 
Q 2116 1406 1581 1522 
L 1381 1569 
Q 847 1681 609 1914 
Q 372 2147 372 2553 
Q 372 3047 722 3315 
Q 1072 3584 1716 3584 
Q 2034 3584 2315 3537 
Q 2597 3491 2834 3397 
z
" transform="scale(0.015625)"/>
      </defs>
      <use xlink:href="#DejaVuSans-46"/>
      <use xlink:href="#DejaVuSans-6f" x="53.894531"/>
      <use xlink:href="#DejaVuSans-72" x="115.076172"/>
      <use xlink:href="#DejaVuSans-63" x="153.939453"/>
      <use xlink:href="#DejaVuSans-65" x="208.919922"/>
      <use xlink:href="#DejaVuSans-20" x="270.443359"/>
      <use xlink:href="#DejaVuSans-55" x="302.230469"/>
      <use xlink:href="#DejaVuSans-6e" x="375.423828"/>
      <use xlink:href="#DejaVuSans-63" x="438.802734"/>
      <use xlink:href="#DejaVuSans-65" x="493.783203"/>
      <use xlink:href="#DejaVuSans-72" x="555.306641"/>
      <use xlink:href="#DejaVuSans-74" x="596.419922"/>
      <use xlink:href="#DejaVuSans-61" x="635.628906"/>
      <use xlink:href="#DejaVuSans-69" x="696.908203"/>
      <use xlink:href="#DejaVuSans-6e" x="724.691406"/>
      <use xlink:href="#DejaVuSans-74" x="788.070312"/>
      <use xlink:href="#DejaVuSans-69" x="827.279297"/>
      <use xlink:href="#DejaVuSans-65" x="855.0625"/>
      <use xlink:href="#DejaVuSans-73" x="916.585938"/>
     </g>
    </g>
   </g>
   <g id="matplotlib.axis_2">
    <g id="ytick_1">
     <g id="line2d_6">
      <defs>
       <path id="m039563095e" d="M 0 0 
L -3.5 0 
" style="stroke: #000000; stroke-width: 0.8"/>
      </defs>
      <g>
       <use xlink:href="#m039563095e" x="69.68" y="428.575452" style="stroke: #000000; stroke-width: 0.8"/>
      </g>
     </g>
     <g id="text_7">
      <!-- 2 -->
      <g transform="translate(48.6825 436.933733) scale(0.22 -0.22)">
       <use xlink:href="#DejaVuSans-32"/>
      </g>
     </g>
    </g>
    <g id="ytick_2">
     <g id="line2d_7">
      <g>
       <use xlink:href="#m039563095e" x="69.68" y="339.303231" style="stroke: #000000; stroke-width: 0.8"/>
      </g>
     </g>
     <g id="text_8">
      <!-- 3 -->
      <g transform="translate(48.6825 347.661512) scale(0.22 -0.22)">
       <use xlink:href="#DejaVuSans-33"/>
      </g>
     </g>
    </g>
    <g id="ytick_3">
     <g id="line2d_8">
      <g>
       <use xlink:href="#m039563095e" x="69.68" y="250.031009" style="stroke: #000000; stroke-width: 0.8"/>
      </g>
     </g>
     <g id="text_9">
      <!-- 4 -->
      <g transform="translate(48.6825 258.389291) scale(0.22 -0.22)">
       <use xlink:href="#DejaVuSans-34"/>
      </g>
     </g>
    </g>
    <g id="ytick_4">
     <g id="line2d_9">
      <g>
       <use xlink:href="#m039563095e" x="69.68" y="160.758788" style="stroke: #000000; stroke-width: 0.8"/>
      </g>
     </g>
     <g id="text_10">
      <!-- 5 -->
      <g transform="translate(48.6825 169.117069) scale(0.22 -0.22)">
       <use xlink:href="#DejaVuSans-35"/>
      </g>
     </g>
    </g>
    <g id="ytick_5">
     <g id="line2d_10">
      <g>
       <use xlink:href="#m039563095e" x="69.68" y="71.486567" style="stroke: #000000; stroke-width: 0.8"/>
      </g>
     </g>
     <g id="text_11">
      <!-- 6 -->
      <g transform="translate(48.6825 79.844848) scale(0.22 -0.22)">
       <use xlink:href="#DejaVuSans-36"/>
      </g>
     </g>
    </g>
    <g id="text_12">
     <!-- Force Errors [kJ/(mol*A)] -->
     <g transform="translate(40.107187 394.9125) rotate(-90) scale(0.22 -0.22)">
      <defs>
       <path id="DejaVuSans-45" d="M 628 4666 
L 3578 4666 
L 3578 4134 
L 1259 4134 
L 1259 2753 
L 3481 2753 
L 3481 2222 
L 1259 2222 
L 1259 531 
L 3634 531 
L 3634 0 
L 628 0 
L 628 4666 
z
" transform="scale(0.015625)"/>
       <path id="DejaVuSans-5b" d="M 550 4863 
L 1875 4863 
L 1875 4416 
L 1125 4416 
L 1125 -397 
L 1875 -397 
L 1875 -844 
L 550 -844 
L 550 4863 
z
" transform="scale(0.015625)"/>
       <path id="DejaVuSans-6b" d="M 581 4863 
L 1159 4863 
L 1159 1991 
L 2875 3500 
L 3609 3500 
L 1753 1863 
L 3688 0 
L 2938 0 
L 1159 1709 
L 1159 0 
L 581 0 
L 581 4863 
z
" transform="scale(0.015625)"/>
       <path id="DejaVuSans-4a" d="M 628 4666 
L 1259 4666 
L 1259 325 
Q 1259 -519 939 -900 
Q 619 -1281 -91 -1281 
L -331 -1281 
L -331 -750 
L -134 -750 
Q 284 -750 456 -515 
Q 628 -281 628 325 
L 628 4666 
z
" transform="scale(0.015625)"/>
       <path id="DejaVuSans-2f" d="M 1625 4666 
L 2156 4666 
L 531 -594 
L 0 -594 
L 1625 4666 
z
" transform="scale(0.015625)"/>
       <path id="DejaVuSans-28" d="M 1984 4856 
Q 1566 4138 1362 3434 
Q 1159 2731 1159 2009 
Q 1159 1288 1364 580 
Q 1569 -128 1984 -844 
L 1484 -844 
Q 1016 -109 783 600 
Q 550 1309 550 2009 
Q 550 2706 781 3412 
Q 1013 4119 1484 4856 
L 1984 4856 
z
" transform="scale(0.015625)"/>
       <path id="DejaVuSans-6d" d="M 3328 2828 
Q 3544 3216 3844 3400 
Q 4144 3584 4550 3584 
Q 5097 3584 5394 3201 
Q 5691 2819 5691 2113 
L 5691 0 
L 5113 0 
L 5113 2094 
Q 5113 2597 4934 2840 
Q 4756 3084 4391 3084 
Q 3944 3084 3684 2787 
Q 3425 2491 3425 1978 
L 3425 0 
L 2847 0 
L 2847 2094 
Q 2847 2600 2669 2842 
Q 2491 3084 2119 3084 
Q 1678 3084 1418 2786 
Q 1159 2488 1159 1978 
L 1159 0 
L 581 0 
L 581 3500 
L 1159 3500 
L 1159 2956 
Q 1356 3278 1631 3431 
Q 1906 3584 2284 3584 
Q 2666 3584 2933 3390 
Q 3200 3197 3328 2828 
z
" transform="scale(0.015625)"/>
       <path id="DejaVuSans-6c" d="M 603 4863 
L 1178 4863 
L 1178 0 
L 603 0 
L 603 4863 
z
" transform="scale(0.015625)"/>
       <path id="DejaVuSans-2a" d="M 3009 3897 
L 1888 3291 
L 3009 2681 
L 2828 2375 
L 1778 3009 
L 1778 1831 
L 1422 1831 
L 1422 3009 
L 372 2375 
L 191 2681 
L 1313 3291 
L 191 3897 
L 372 4206 
L 1422 3572 
L 1422 4750 
L 1778 4750 
L 1778 3572 
L 2828 4206 
L 3009 3897 
z
" transform="scale(0.015625)"/>
       <path id="DejaVuSans-41" d="M 2188 4044 
L 1331 1722 
L 3047 1722 
L 2188 4044 
z
M 1831 4666 
L 2547 4666 
L 4325 0 
L 3669 0 
L 3244 1197 
L 1141 1197 
L 716 0 
L 50 0 
L 1831 4666 
z
" transform="scale(0.015625)"/>
       <path id="DejaVuSans-29" d="M 513 4856 
L 1013 4856 
Q 1481 4119 1714 3412 
Q 1947 2706 1947 2009 
Q 1947 1309 1714 600 
Q 1481 -109 1013 -844 
L 513 -844 
Q 928 -128 1133 580 
Q 1338 1288 1338 2009 
Q 1338 2731 1133 3434 
Q 928 4138 513 4856 
z
" transform="scale(0.015625)"/>
       <path id="DejaVuSans-5d" d="M 1947 4863 
L 1947 -844 
L 622 -844 
L 622 -397 
L 1369 -397 
L 1369 4416 
L 622 4416 
L 622 4863 
L 1947 4863 
z
" transform="scale(0.015625)"/>
      </defs>
      <use xlink:href="#DejaVuSans-46"/>
      <use xlink:href="#DejaVuSans-6f" x="53.894531"/>
      <use xlink:href="#DejaVuSans-72" x="115.076172"/>
      <use xlink:href="#DejaVuSans-63" x="153.939453"/>
      <use xlink:href="#DejaVuSans-65" x="208.919922"/>
      <use xlink:href="#DejaVuSans-20" x="270.443359"/>
      <use xlink:href="#DejaVuSans-45" x="302.230469"/>
      <use xlink:href="#DejaVuSans-72" x="365.414062"/>
      <use xlink:href="#DejaVuSans-72" x="404.777344"/>
      <use xlink:href="#DejaVuSans-6f" x="443.640625"/>
      <use xlink:href="#DejaVuSans-72" x="504.822266"/>
      <use xlink:href="#DejaVuSans-73" x="545.935547"/>
      <use xlink:href="#DejaVuSans-20" x="598.035156"/>
      <use xlink:href="#DejaVuSans-5b" x="629.822266"/>
      <use xlink:href="#DejaVuSans-6b" x="668.835938"/>
      <use xlink:href="#DejaVuSans-4a" x="726.746094"/>
      <use xlink:href="#DejaVuSans-2f" x="756.238281"/>
      <use xlink:href="#DejaVuSans-28" x="789.929688"/>
      <use xlink:href="#DejaVuSans-6d" x="828.943359"/>
      <use xlink:href="#DejaVuSans-6f" x="926.355469"/>
      <use xlink:href="#DejaVuSans-6c" x="987.537109"/>
      <use xlink:href="#DejaVuSans-2a" x="1015.320312"/>
      <use xlink:href="#DejaVuSans-41" x="1065.320312"/>
      <use xlink:href="#DejaVuSans-29" x="1133.728516"/>
      <use xlink:href="#DejaVuSans-5d" x="1172.742188"/>
     </g>
    </g>
   </g>
   <g id="line2d_11">
    <path d="M 69.68 499.48 
L 696.24 23.76 
" clip-path="url(#p9e2aea0852)" style="fill: none; stroke-dasharray: 5.55,2.4; stroke-dashoffset: 0; stroke: #ff0000; stroke-width: 1.5"/>
   </g>
   <g id="patch_3">
    <path d="M 69.68 499.48 
L 69.68 23.76 
" style="fill: none; stroke: #000000; stroke-width: 0.8; stroke-linejoin: miter; stroke-linecap: square"/>
   </g>
   <g id="patch_4">
    <path d="M 696.24 499.48 
L 696.24 23.76 
" style="fill: none; stroke: #000000; stroke-width: 0.8; stroke-linejoin: miter; stroke-linecap: square"/>
   </g>
   <g id="patch_5">
    <path d="M 69.68 499.48 
L 696.24 499.48 
" style="fill: none; stroke: #000000; stroke-width: 0.8; stroke-linejoin: miter; stroke-linecap: square"/>
   </g>
   <g id="patch_6">
    <path d="M 69.68 23.76 
L 696.24 23.76 
" style="fill: none; stroke: #000000; stroke-width: 0.8; stroke-linejoin: miter; stroke-linecap: square"/>
   </g>
   <g id="text_13">
    <!-- Correlation in: 0.271 -->
    <g transform="translate(132.336 71.332) scale(0.22 -0.22)">
     <defs>
      <path id="DejaVuSans-43" d="M 4122 4306 
L 4122 3641 
Q 3803 3938 3442 4084 
Q 3081 4231 2675 4231 
Q 1875 4231 1450 3742 
Q 1025 3253 1025 2328 
Q 1025 1406 1450 917 
Q 1875 428 2675 428 
Q 3081 428 3442 575 
Q 3803 722 4122 1019 
L 4122 359 
Q 3791 134 3420 21 
Q 3050 -91 2638 -91 
Q 1578 -91 968 557 
Q 359 1206 359 2328 
Q 359 3453 968 4101 
Q 1578 4750 2638 4750 
Q 3056 4750 3426 4639 
Q 3797 4528 4122 4306 
z
" transform="scale(0.015625)"/>
      <path id="DejaVuSans-3a" d="M 750 794 
L 1409 794 
L 1409 0 
L 750 0 
L 750 794 
z
M 750 3309 
L 1409 3309 
L 1409 2516 
L 750 2516 
L 750 3309 
z
" transform="scale(0.015625)"/>
      <path id="DejaVuSans-30" d="M 2034 4250 
Q 1547 4250 1301 3770 
Q 1056 3291 1056 2328 
Q 1056 1369 1301 889 
Q 1547 409 2034 409 
Q 2525 409 2770 889 
Q 3016 1369 3016 2328 
Q 3016 3291 2770 3770 
Q 2525 4250 2034 4250 
z
M 2034 4750 
Q 2819 4750 3233 4129 
Q 3647 3509 3647 2328 
Q 3647 1150 3233 529 
Q 2819 -91 2034 -91 
Q 1250 -91 836 529 
Q 422 1150 422 2328 
Q 422 3509 836 4129 
Q 1250 4750 2034 4750 
z
" transform="scale(0.015625)"/>
      <path id="DejaVuSans-2e" d="M 684 794 
L 1344 794 
L 1344 0 
L 684 0 
L 684 794 
z
" transform="scale(0.015625)"/>
      <path id="DejaVuSans-37" d="M 525 4666 
L 3525 4666 
L 3525 4397 
L 1831 0 
L 1172 0 
L 2766 4134 
L 525 4134 
L 525 4666 
z
" transform="scale(0.015625)"/>
      <path id="DejaVuSans-31" d="M 794 531 
L 1825 531 
L 1825 4091 
L 703 3866 
L 703 4441 
L 1819 4666 
L 2450 4666 
L 2450 531 
L 3481 531 
L 3481 0 
L 794 0 
L 794 531 
z
" transform="scale(0.015625)"/>
     </defs>
     <use xlink:href="#DejaVuSans-43"/>
     <use xlink:href="#DejaVuSans-6f" x="69.824219"/>
     <use xlink:href="#DejaVuSans-72" x="131.005859"/>
     <use xlink:href="#DejaVuSans-72" x="170.369141"/>
     <use xlink:href="#DejaVuSans-65" x="209.232422"/>
     <use xlink:href="#DejaVuSans-6c" x="270.755859"/>
     <use xlink:href="#DejaVuSans-61" x="298.539062"/>
     <use xlink:href="#DejaVuSans-74" x="359.818359"/>
     <use xlink:href="#DejaVuSans-69" x="399.027344"/>
     <use xlink:href="#DejaVuSans-6f" x="426.810547"/>
     <use xlink:href="#DejaVuSans-6e" x="487.992188"/>
     <use xlink:href="#DejaVuSans-20" x="551.371094"/>
     <use xlink:href="#DejaVuSans-69" x="583.158203"/>
     <use xlink:href="#DejaVuSans-6e" x="610.941406"/>
     <use xlink:href="#DejaVuSans-3a" x="674.320312"/>
     <use xlink:href="#DejaVuSans-20" x="708.011719"/>
     <use xlink:href="#DejaVuSans-30" x="739.798828"/>
     <use xlink:href="#DejaVuSans-2e" x="803.421875"/>
     <use xlink:href="#DejaVuSans-32" x="835.208984"/>
     <use xlink:href="#DejaVuSans-37" x="898.832031"/>
     <use xlink:href="#DejaVuSans-31" x="962.455078"/>
    </g>
   </g>
  </g>
 </g>
 <defs>
  <clipPath id="p9e2aea0852">
   <rect x="69.68" y="23.76" width="626.56" height="475.72"/>
  </clipPath>
 </defs>
</svg>
