<?xml version="1.0" encoding="utf-8" standalone="no"?>
<!DOCTYPE svg PUBLIC "-//W3C//DTD SVG 1.1//EN"
  "http://www.w3.org/Graphics/SVG/1.1/DTD/svg11.dtd">
<svg xmlns:xlink="http://www.w3.org/1999/xlink" width="720pt" height="576pt" viewBox="0 0 720 576" xmlns="http://www.w3.org/2000/svg" version="1.1">
 <metadata>
  <rdf:RDF xmlns:dc="http://purl.org/dc/elements/1.1/" xmlns:cc="http://creativecommons.org/ns#" xmlns:rdf="http://www.w3.org/1999/02/22-rdf-syntax-ns#">
   <cc:Work>
    <dc:type rdf:resource="http://purl.org/dc/dcmitype/StillImage"/>
    <dc:date>2024-12-07T17:08:16.785885</dc:date>
    <dc:format>image/svg+xml</dc:format>
    <dc:creator>
     <cc:Agent>
      <dc:title>Matplotlib v3.8.4, https://matplotlib.org/</dc:title>
     </cc:Agent>
    </dc:creator>
   </cc:Work>
  </rdf:RDF>
 </metadata>
 <defs>
  <style type="text/css">*{stroke-linejoin: round; stroke-linecap: butt}</style>
 </defs>
 <g id="figure_1">
  <g id="patch_1">
   <path d="M 0 576 
L 720 576 
L 720 0 
L 0 0 
z
" style="fill: #ffffff"/>
  </g>
  <g id="axes_1">
   <g id="patch_2">
    <path d="M 104.69 499.48 
L 696.24 499.48 
L 696.24 23.76 
L 104.69 23.76 
z
" style="fill: #ffffff"/>
   </g>
   <g id="QuadContourSet_1">
    <path d="M 107.312916 494.872448 
L 108.299454 495.180939 
L 109.17913 493.821629 
L 109.285991 493.666796 
L 109.901074 492.190402 
L 110.272529 490.811217 
L 110.359891 490.559175 
L 110.851223 488.927948 
L 111.142807 487.296721 
L 111.259067 486.423474 
L 111.459299 485.665495 
L 111.809783 484.034268 
L 112.047761 482.403041 
L 112.215511 480.771814 
L 112.245604 480.442811 
L 112.540163 479.140587 
L 112.809899 477.50936 
L 112.996884 475.878134 
L 113.129127 474.246907 
L 113.225616 472.61568 
L 113.232142 472.494088 
L 113.437778 470.984453 
L 113.612072 469.353226 
L 113.750523 467.721999 
L 113.864582 466.090773 
L 113.962261 464.459546 
L 114.048387 462.828319 
L 114.124696 461.197092 
L 114.190507 459.565865 
L 114.21868 458.742055 
L 114.296872 457.934639 
L 114.418457 456.303412 
L 114.505743 454.672185 
L 114.569964 453.040958 
L 114.621026 451.409731 
L 114.665988 449.778504 
L 114.707512 448.147278 
L 114.743278 446.516051 
L 114.767291 444.884824 
L 114.772764 443.253597 
L 114.754992 441.62237 
L 114.712645 439.991143 
L 114.647089 438.359917 
L 114.560797 436.72869 
L 114.456774 435.097463 
L 114.339963 433.466236 
L 114.21868 431.835009 
L 114.21868 431.835009 
L 114.176961 430.203783 
L 114.132459 428.572556 
L 114.081005 426.941329 
L 114.016484 425.310102 
L 113.931874 423.678875 
L 113.82049 422.047648 
L 113.676664 420.416422 
L 113.495245 418.785195 
L 113.270229 417.153968 
L 113.232142 416.893912 
L 113.019602 415.522741 
L 112.769676 413.891514 
L 112.521305 412.260287 
L 112.265694 410.629061 
L 112.245604 410.500317 
L 112.101572 408.997834 
L 111.934243 407.366607 
L 111.76057 405.73538 
L 111.581684 404.104153 
L 111.383921 402.472927 
L 111.259067 401.603436 
L 110.272529 401.212784 
L 109.975045 402.472927 
L 109.598236 404.104153 
L 109.285991 405.367893 
L 109.187272 405.73538 
L 108.761321 407.366607 
L 108.423888 408.997834 
L 108.299454 409.690694 
L 108.132507 410.629061 
L 107.839219 412.260287 
L 107.569867 413.891514 
L 107.341892 415.522741 
L 107.312916 415.751877 
L 107.111855 417.153968 
L 106.916863 418.785195 
L 106.766044 420.416422 
L 106.654063 422.047648 
L 106.570007 423.678875 
L 106.501269 425.310102 
L 106.438308 426.941329 
L 106.376759 428.572556 
L 106.326378 429.886427 
L 106.298253 430.203783 
L 106.135744 431.835009 
L 105.982562 433.466236 
L 105.846798 435.097463 
L 105.731161 436.72869 
L 105.63499 438.359917 
L 105.556521 439.991143 
L 105.494354 441.62237 
L 105.447814 443.253597 
L 105.416234 444.884824 
L 105.397642 446.516051 
L 105.387957 448.147278 
L 105.381805 449.778504 
L 105.374497 451.409731 
L 105.363504 453.040958 
L 105.348555 454.672185 
L 105.339841 455.433758 
L 105.301808 456.303412 
L 105.222146 457.934639 
L 105.144799 459.565865 
L 105.074294 461.197092 
L 105.012858 462.828319 
L 104.961432 464.459546 
L 104.920296 466.090773 
L 104.889416 467.721999 
L 104.868685 469.353226 
L 104.858193 470.984453 
L 104.858594 472.61568 
L 104.871592 474.246907 
L 104.900567 475.878134 
L 104.951315 477.50936 
L 105.032972 479.140587 
L 105.159231 480.771814 
L 105.339841 482.330107 
L 105.342494 482.403041 
L 105.414083 484.034268 
L 105.513274 485.665495 
L 105.650401 487.296721 
L 105.842584 488.927948 
L 106.119739 490.559175 
L 106.326378 491.50533 
L 106.455609 492.190402 
L 106.891882 493.821629 
z
M 107.768858 488.927948 
L 107.312916 488.283603 
L 107.052917 487.296721 
L 106.729783 485.665495 
L 106.511997 484.034268 
L 106.361704 482.403041 
L 106.326378 481.919247 
L 106.185584 480.771814 
L 106.034447 479.140587 
L 105.927317 477.50936 
L 105.853161 475.878134 
L 105.804224 474.246907 
L 105.775192 472.61568 
L 105.762608 470.984453 
L 105.764388 469.353226 
L 105.779375 467.721999 
L 105.806957 466.090773 
L 105.846754 464.459546 
L 105.898423 462.828319 
L 105.96159 461.197092 
L 106.03592 459.565865 
L 106.121279 457.934639 
L 106.217899 456.303412 
L 106.326378 454.672185 
L 106.326378 454.672185 
L 106.376362 453.040958 
L 106.428856 451.409731 
L 106.484205 449.778504 
L 106.543514 448.147278 
L 106.608609 446.516051 
L 106.681768 444.884824 
L 106.76526 443.253597 
L 106.860978 441.62237 
L 106.970535 439.991143 
L 107.095988 438.359917 
L 107.24079 436.72869 
L 107.312916 435.998257 
L 107.389288 435.097463 
L 107.540723 433.466236 
L 107.708845 431.835009 
L 107.896449 430.203783 
L 108.10884 428.572556 
L 108.299454 427.25985 
L 108.366961 426.941329 
L 108.690849 425.310102 
L 109.014862 423.678875 
L 109.285991 422.350827 
L 110.272529 422.18363 
L 110.684397 423.678875 
L 111.095906 425.310102 
L 111.259067 425.965713 
L 111.482742 426.941329 
L 111.865198 428.572556 
L 112.220235 430.203783 
L 112.245604 430.33332 
L 112.443568 431.835009 
L 112.600352 433.466236 
L 112.715905 435.097463 
L 112.804016 436.72869 
L 112.873839 438.359917 
L 112.931445 439.991143 
L 112.980896 441.62237 
L 113.024795 443.253597 
L 113.064483 444.884824 
L 113.099984 446.516051 
L 113.129886 448.147278 
L 113.151563 449.778504 
L 113.162014 451.409731 
L 113.159014 453.040958 
L 113.141855 454.672185 
L 113.111223 456.303412 
L 113.068466 457.934639 
L 113.014749 459.565865 
L 112.950374 461.197092 
L 112.87421 462.828319 
L 112.783121 464.459546 
L 112.67138 466.090773 
L 112.530097 467.721999 
L 112.346501 469.353226 
L 112.245604 470.096002 
L 112.187082 470.984453 
L 112.061403 472.61568 
L 111.904462 474.246907 
L 111.705617 475.878134 
L 111.448276 477.50936 
L 111.259067 478.500473 
L 111.195873 479.140587 
L 111.013696 480.771814 
L 110.772448 482.403041 
L 110.435046 484.034268 
L 110.272529 484.681837 
L 110.059916 485.665495 
L 109.618476 487.296721 
L 109.285991 488.269609 
L 108.777089 488.927948 
L 108.299454 489.592604 
z
" clip-path="url(#pc86025d507)" style="fill: #e6e6f3"/>
    <path d="M 108.299454 489.592604 
L 108.777089 488.927948 
L 109.285991 488.269609 
L 109.618476 487.296721 
L 110.059916 485.665495 
L 110.272529 484.681837 
L 110.435046 484.034268 
L 110.772448 482.403041 
L 111.013696 480.771814 
L 111.195873 479.140587 
L 111.259067 478.500473 
L 111.448276 477.50936 
L 111.705617 475.878134 
L 111.904462 474.246907 
L 112.061403 472.61568 
L 112.187082 470.984453 
L 112.245604 470.096002 
L 112.346501 469.353226 
L 112.530097 467.721999 
L 112.67138 466.090773 
L 112.783121 464.459546 
L 112.87421 462.828319 
L 112.950374 461.197092 
L 113.014749 459.565865 
L 113.068466 457.934639 
L 113.111223 456.303412 
L 113.141855 454.672185 
L 113.159014 453.040958 
L 113.162014 451.409731 
L 113.151563 449.778504 
L 113.129886 448.147278 
L 113.099984 446.516051 
L 113.064483 444.884824 
L 113.024795 443.253597 
L 112.980896 441.62237 
L 112.931445 439.991143 
L 112.873839 438.359917 
L 112.804016 436.72869 
L 112.715905 435.097463 
L 112.600352 433.466236 
L 112.443568 431.835009 
L 112.245604 430.33332 
L 112.220235 430.203783 
L 111.865198 428.572556 
L 111.482742 426.941329 
L 111.259067 425.965713 
L 111.095906 425.310102 
L 110.684397 423.678875 
L 110.272529 422.18363 
L 109.285991 422.350827 
L 109.014862 423.678875 
L 108.690849 425.310102 
L 108.366961 426.941329 
L 108.299454 427.25985 
L 108.10884 428.572556 
L 107.896449 430.203783 
L 107.708845 431.835009 
L 107.540723 433.466236 
L 107.389288 435.097463 
L 107.312916 435.998257 
L 107.24079 436.72869 
L 107.095988 438.359917 
L 106.970535 439.991143 
L 106.860978 441.62237 
L 106.76526 443.253597 
L 106.681768 444.884824 
L 106.608609 446.516051 
L 106.543514 448.147278 
L 106.484205 449.778504 
L 106.428856 451.409731 
L 106.376362 453.040958 
L 106.326378 454.672185 
L 106.326378 454.672185 
L 106.217899 456.303412 
L 106.121279 457.934639 
L 106.03592 459.565865 
L 105.96159 461.197092 
L 105.898423 462.828319 
L 105.846754 464.459546 
L 105.806957 466.090773 
L 105.779375 467.721999 
L 105.764388 469.353226 
L 105.762608 470.984453 
L 105.775192 472.61568 
L 105.804224 474.246907 
L 105.853161 475.878134 
L 105.927317 477.50936 
L 106.034447 479.140587 
L 106.185584 480.771814 
L 106.326378 481.919247 
L 106.361704 482.403041 
L 106.511997 484.034268 
L 106.729783 485.665495 
L 107.052917 487.296721 
L 107.312916 488.283603 
L 107.768858 488.927948 
z
M 107.769417 485.665495 
L 107.312916 484.645754 
L 107.184752 484.034268 
L 106.910405 482.403041 
L 106.718734 480.771814 
L 106.582846 479.140587 
L 106.485758 477.50936 
L 106.416886 475.878134 
L 106.369764 474.246907 
L 106.340444 472.61568 
L 106.326378 470.984453 
L 106.326378 470.984453 
L 106.325089 469.353226 
L 106.326378 469.261681 
L 106.337106 467.721999 
L 106.359355 466.090773 
L 106.391603 464.459546 
L 106.43313 462.828319 
L 106.483262 461.197092 
L 106.541255 459.565865 
L 106.606265 457.934639 
L 106.677519 456.303412 
L 106.754734 454.672185 
L 106.838617 453.040958 
L 106.931146 451.409731 
L 107.035336 449.778504 
L 107.154441 448.147278 
L 107.290699 446.516051 
L 107.312916 446.256438 
L 107.398235 444.884824 
L 107.512339 443.253597 
L 107.647156 441.62237 
L 107.807416 439.991143 
L 107.992705 438.359917 
L 108.197214 436.72869 
L 108.299454 435.928686 
L 108.515297 435.097463 
L 108.952147 433.466236 
L 109.285991 432.16534 
L 110.272529 432.299313 
L 110.73508 433.466236 
L 111.259067 434.694614 
L 111.343425 435.097463 
L 111.631388 436.72869 
L 111.83789 438.359917 
L 111.987235 439.991143 
L 112.098945 441.62237 
L 112.18683 443.253597 
L 112.245604 444.538539 
L 112.263919 444.884824 
L 112.348377 446.516051 
L 112.424872 448.147278 
L 112.48937 449.778504 
L 112.536887 451.409731 
L 112.562997 453.040958 
L 112.564955 454.672185 
L 112.541919 456.303412 
L 112.494381 457.934639 
L 112.423253 459.565865 
L 112.328836 461.197092 
L 112.245604 462.358202 
L 112.227559 462.828319 
L 112.157081 464.459546 
L 112.073624 466.090773 
L 111.971271 467.721999 
L 111.843215 469.353226 
L 111.681583 470.984453 
L 111.476573 472.61568 
L 111.259067 474.006892 
L 111.237609 474.246907 
L 111.083807 475.878134 
L 110.899871 477.50936 
L 110.670509 479.140587 
L 110.371317 480.771814 
L 110.272529 481.239423 
L 110.050777 482.403041 
L 109.667222 484.034268 
L 109.285991 485.307058 
L 109.000657 485.665495 
L 108.299454 486.586536 
z
" clip-path="url(#pc86025d507)" style="fill: #d1d1f4"/>
    <path d="M 108.299454 486.586536 
L 109.000657 485.665495 
L 109.285991 485.307058 
L 109.667222 484.034268 
L 110.050777 482.403041 
L 110.272529 481.239423 
L 110.371317 480.771814 
L 110.670509 479.140587 
L 110.899871 477.50936 
L 111.083807 475.878134 
L 111.237609 474.246907 
L 111.259067 474.006892 
L 111.476573 472.61568 
L 111.681583 470.984453 
L 111.843215 469.353226 
L 111.971271 467.721999 
L 112.073624 466.090773 
L 112.157081 464.459546 
L 112.227559 462.828319 
L 112.245604 462.358202 
L 112.328836 461.197092 
L 112.423253 459.565865 
L 112.494381 457.934639 
L 112.541919 456.303412 
L 112.564955 454.672185 
L 112.562997 453.040958 
L 112.536887 451.409731 
L 112.48937 449.778504 
L 112.424872 448.147278 
L 112.348377 446.516051 
L 112.263919 444.884824 
L 112.245604 444.538539 
L 112.18683 443.253597 
L 112.098945 441.62237 
L 111.987235 439.991143 
L 111.83789 438.359917 
L 111.631388 436.72869 
L 111.343425 435.097463 
L 111.259067 434.694614 
L 110.73508 433.466236 
L 110.272529 432.299313 
L 109.285991 432.16534 
L 108.952147 433.466236 
L 108.515297 435.097463 
L 108.299454 435.928686 
L 108.197214 436.72869 
L 107.992705 438.359917 
L 107.807416 439.991143 
L 107.647156 441.62237 
L 107.512339 443.253597 
L 107.398235 444.884824 
L 107.312916 446.256438 
L 107.290699 446.516051 
L 107.154441 448.147278 
L 107.035336 449.778504 
L 106.931146 451.409731 
L 106.838617 453.040958 
L 106.754734 454.672185 
L 106.677519 456.303412 
L 106.606265 457.934639 
L 106.541255 459.565865 
L 106.483262 461.197092 
L 106.43313 462.828319 
L 106.391603 464.459546 
L 106.359355 466.090773 
L 106.337106 467.721999 
L 106.326378 469.261681 
L 106.325089 469.353226 
L 106.326378 470.984453 
L 106.326378 470.984453 
L 106.340444 472.61568 
L 106.369764 474.246907 
L 106.416886 475.878134 
L 106.485758 477.50936 
L 106.582846 479.140587 
L 106.718734 480.771814 
L 106.910405 482.403041 
L 107.184752 484.034268 
L 107.312916 484.645754 
L 107.769417 485.665495 
z
M 107.747473 482.403041 
L 107.312916 480.771814 
L 107.312916 480.771814 
L 107.10031 479.140587 
L 106.949007 477.50936 
L 106.841322 475.878134 
L 106.766195 474.246907 
L 106.716965 472.61568 
L 106.689752 470.984453 
L 106.682284 469.353226 
L 106.693127 467.721999 
L 106.721226 466.090773 
L 106.765644 464.459546 
L 106.825367 462.828319 
L 106.899141 461.197092 
L 106.985389 459.565865 
L 107.082355 457.934639 
L 107.188682 456.303412 
L 107.304381 454.672185 
L 107.312916 454.554861 
L 107.397443 453.040958 
L 107.496392 451.409731 
L 107.605267 449.778504 
L 107.727222 448.147278 
L 107.867673 446.516051 
L 108.034404 444.884824 
L 108.236369 443.253597 
L 108.299454 442.786367 
L 108.572024 441.62237 
L 109.018065 439.991143 
L 109.285991 439.129428 
L 110.272529 439.047114 
L 110.605851 439.991143 
L 111.02973 441.62237 
L 111.259067 442.902432 
L 111.298426 443.253597 
L 111.461361 444.884824 
L 111.596202 446.516051 
L 111.708823 448.147278 
L 111.801989 449.778504 
L 111.875806 451.409731 
L 111.928493 453.040958 
L 111.958154 454.672185 
L 111.964664 456.303412 
L 111.950035 457.934639 
L 111.917029 459.565865 
L 111.867343 461.197092 
L 111.80051 462.828319 
L 111.713632 464.459546 
L 111.601579 466.090773 
L 111.457247 467.721999 
L 111.271558 469.353226 
L 111.259067 469.449442 
L 111.135751 470.984453 
L 110.985167 472.61568 
L 110.808493 474.246907 
L 110.596266 475.878134 
L 110.333482 477.50936 
L 110.272529 477.848748 
L 110.055107 479.140587 
L 109.727261 480.771814 
L 109.307234 482.403041 
L 109.285991 482.479044 
L 108.299454 483.741318 
z
" clip-path="url(#pc86025d507)" style="fill: #b9b9f6"/>
    <path d="M 108.299454 483.741318 
L 109.285991 482.479044 
L 109.307234 482.403041 
L 109.727261 480.771814 
L 110.055107 479.140587 
L 110.272529 477.848748 
L 110.333482 477.50936 
L 110.596266 475.878134 
L 110.808493 474.246907 
L 110.985167 472.61568 
L 111.135751 470.984453 
L 111.259067 469.449442 
L 111.271558 469.353226 
L 111.457247 467.721999 
L 111.601579 466.090773 
L 111.713632 464.459546 
L 111.80051 462.828319 
L 111.867343 461.197092 
L 111.917029 459.565865 
L 111.950035 457.934639 
L 111.964664 456.303412 
L 111.958154 454.672185 
L 111.928493 453.040958 
L 111.875806 451.409731 
L 111.801989 449.778504 
L 111.708823 448.147278 
L 111.596202 446.516051 
L 111.461361 444.884824 
L 111.298426 443.253597 
L 111.259067 442.902432 
L 111.02973 441.62237 
L 110.605851 439.991143 
L 110.272529 439.047114 
L 109.285991 439.129428 
L 109.018065 439.991143 
L 108.572024 441.62237 
L 108.299454 442.786367 
L 108.236369 443.253597 
L 108.034404 444.884824 
L 107.867673 446.516051 
L 107.727222 448.147278 
L 107.605267 449.778504 
L 107.496392 451.409731 
L 107.397443 453.040958 
L 107.312916 454.554861 
L 107.304381 454.672185 
L 107.188682 456.303412 
L 107.082355 457.934639 
L 106.985389 459.565865 
L 106.899141 461.197092 
L 106.825367 462.828319 
L 106.765644 464.459546 
L 106.721226 466.090773 
L 106.693127 467.721999 
L 106.682284 469.353226 
L 106.689752 470.984453 
L 106.716965 472.61568 
L 106.766195 474.246907 
L 106.841322 475.878134 
L 106.949007 477.50936 
L 107.10031 479.140587 
L 107.312916 480.771814 
L 107.312916 480.771814 
L 107.747473 482.403041 
z
M 108.097917 480.771814 
L 107.683769 479.140587 
L 107.423707 477.50936 
L 107.312916 476.460221 
L 107.263609 475.878134 
L 107.160619 474.246907 
L 107.09158 472.61568 
L 107.051286 470.984453 
L 107.037024 469.353226 
L 107.047345 467.721999 
L 107.081265 466.090773 
L 107.137792 464.459546 
L 107.215618 462.828319 
L 107.312916 461.197092 
L 107.312916 461.197092 
L 107.395937 459.565865 
L 107.488315 457.934639 
L 107.589652 456.303412 
L 107.699363 454.672185 
L 107.817172 453.040958 
L 107.944182 451.409731 
L 108.084077 449.778504 
L 108.243877 448.147278 
L 108.299454 447.638879 
L 108.510925 446.516051 
L 108.868628 444.884824 
L 109.285991 443.289154 
L 110.272529 443.651417 
L 110.550394 444.884824 
L 110.82898 446.516051 
L 111.033193 448.147278 
L 111.184039 449.778504 
L 111.259067 450.830883 
L 111.298091 451.409731 
L 111.389155 453.040958 
L 111.455164 454.672185 
L 111.494387 456.303412 
L 111.506005 457.934639 
L 111.490216 459.565865 
L 111.447143 461.197092 
L 111.375621 462.828319 
L 111.272427 464.459546 
L 111.259067 464.62366 
L 111.175912 466.090773 
L 111.066367 467.721999 
L 110.936956 469.353226 
L 110.783804 470.984453 
L 110.60143 472.61568 
L 110.381548 474.246907 
L 110.272529 474.955352 
L 110.131568 475.878134 
L 109.857037 477.50936 
L 109.52702 479.140587 
L 109.285991 480.146001 
L 108.767768 480.771814 
L 108.299454 481.361725 
z
" clip-path="url(#pc86025d507)" style="fill: #9d9df7"/>
    <path d="M 108.299454 481.361725 
L 108.767768 480.771814 
L 109.285991 480.146001 
L 109.52702 479.140587 
L 109.857037 477.50936 
L 110.131568 475.878134 
L 110.272529 474.955352 
L 110.381548 474.246907 
L 110.60143 472.61568 
L 110.783804 470.984453 
L 110.936956 469.353226 
L 111.066367 467.721999 
L 111.175912 466.090773 
L 111.259067 464.62366 
L 111.272427 464.459546 
L 111.375621 462.828319 
L 111.447143 461.197092 
L 111.490216 459.565865 
L 111.506005 457.934639 
L 111.494387 456.303412 
L 111.455164 454.672185 
L 111.389155 453.040958 
L 111.298091 451.409731 
L 111.259067 450.830883 
L 111.184039 449.778504 
L 111.033193 448.147278 
L 110.82898 446.516051 
L 110.550394 444.884824 
L 110.272529 443.651417 
L 109.285991 443.289154 
L 108.868628 444.884824 
L 108.510925 446.516051 
L 108.299454 447.638879 
L 108.243877 448.147278 
L 108.084077 449.778504 
L 107.944182 451.409731 
L 107.817172 453.040958 
L 107.699363 454.672185 
L 107.589652 456.303412 
L 107.488315 457.934639 
L 107.395937 459.565865 
L 107.312916 461.197092 
L 107.312916 461.197092 
L 107.215618 462.828319 
L 107.137792 464.459546 
L 107.081265 466.090773 
L 107.047345 467.721999 
L 107.037024 469.353226 
L 107.051286 470.984453 
L 107.09158 472.61568 
L 107.160619 474.246907 
L 107.263609 475.878134 
L 107.312916 476.460221 
L 107.423707 477.50936 
L 107.683769 479.140587 
L 108.097917 480.771814 
z
M 108.120074 479.140587 
L 107.787306 477.50936 
L 107.573085 475.878134 
L 107.435191 474.246907 
L 107.349228 472.61568 
L 107.312916 471.389815 
L 107.300982 470.984453 
L 107.282028 469.353226 
L 107.291988 467.721999 
L 107.312916 466.815672 
L 107.326714 466.090773 
L 107.376737 464.459546 
L 107.442787 462.828319 
L 107.523348 461.197092 
L 107.617494 459.565865 
L 107.724337 457.934639 
L 107.842563 456.303412 
L 107.970498 454.672185 
L 108.10706 453.040958 
L 108.253451 451.409731 
L 108.299454 450.921976 
L 108.477738 449.778504 
L 108.773063 448.147278 
L 109.125699 446.516051 
L 109.285991 445.855232 
L 110.272529 446.516051 
L 110.272529 446.516051 
L 110.552809 448.147278 
L 110.762097 449.778504 
L 110.919454 451.409731 
L 111.037781 453.040958 
L 111.124172 454.672185 
L 111.180955 456.303412 
L 111.208284 457.934639 
L 111.206923 459.565865 
L 111.179268 461.197092 
L 111.128375 462.828319 
L 111.056408 464.459546 
L 110.963767 466.090773 
L 110.849075 467.721999 
L 110.709493 469.353226 
L 110.540728 470.984453 
L 110.336399 472.61568 
L 110.272529 473.066871 
L 110.099426 474.246907 
L 109.838861 475.878134 
L 109.535271 477.50936 
L 109.285991 478.643911 
L 108.840045 479.140587 
L 108.299454 479.78581 
z
" clip-path="url(#pc86025d507)" style="fill: #8787f8"/>
    <path d="M 108.299454 479.78581 
L 108.840045 479.140587 
L 109.285991 478.643911 
L 109.535271 477.50936 
L 109.838861 475.878134 
L 110.099426 474.246907 
L 110.272529 473.066871 
L 110.336399 472.61568 
L 110.540728 470.984453 
L 110.709493 469.353226 
L 110.849075 467.721999 
L 110.963767 466.090773 
L 111.056408 464.459546 
L 111.128375 462.828319 
L 111.179268 461.197092 
L 111.206923 459.565865 
L 111.208284 457.934639 
L 111.180955 456.303412 
L 111.124172 454.672185 
L 111.037781 453.040958 
L 110.919454 451.409731 
L 110.762097 449.778504 
L 110.552809 448.147278 
L 110.272529 446.516051 
L 110.272529 446.516051 
L 109.285991 445.855232 
L 109.125699 446.516051 
L 108.773063 448.147278 
L 108.477738 449.778504 
L 108.299454 450.921976 
L 108.253451 451.409731 
L 108.10706 453.040958 
L 107.970498 454.672185 
L 107.842563 456.303412 
L 107.724337 457.934639 
L 107.617494 459.565865 
L 107.523348 461.197092 
L 107.442787 462.828319 
L 107.376737 464.459546 
L 107.326714 466.090773 
L 107.312916 466.815672 
L 107.291988 467.721999 
L 107.282028 469.353226 
L 107.300982 470.984453 
L 107.312916 471.389815 
L 107.349228 472.61568 
L 107.435191 474.246907 
L 107.573085 475.878134 
L 107.787306 477.50936 
L 108.120074 479.140587 
z
M 108.164474 475.878134 
L 107.958981 474.246907 
L 107.823771 472.61568 
L 107.739681 470.984453 
L 107.696148 469.353226 
L 107.686916 467.721999 
L 107.707644 466.090773 
L 107.755034 464.459546 
L 107.826664 462.828319 
L 107.920814 461.197092 
L 108.035975 459.565865 
L 108.170139 457.934639 
L 108.299454 456.516393 
L 108.330666 456.303412 
L 108.568881 454.672185 
L 108.823948 453.040958 
L 109.11071 451.409731 
L 109.285991 450.512978 
L 109.965063 451.409731 
L 110.272529 451.931777 
L 110.395512 453.040958 
L 110.539144 454.672185 
L 110.645412 456.303412 
L 110.71584 457.934639 
L 110.750663 459.565865 
L 110.750999 461.197092 
L 110.718877 462.828319 
L 110.656071 464.459546 
L 110.563064 466.090773 
L 110.438652 467.721999 
L 110.279858 469.353226 
L 110.272529 469.41751 
L 110.065259 470.984453 
L 109.835046 472.61568 
L 109.580677 474.246907 
L 109.285991 475.878134 
L 109.285991 475.878134 
L 108.299454 476.649754 
z
" clip-path="url(#pc86025d507)" style="fill: #6b6bfa"/>
    <path d="M 108.299454 476.649754 
L 109.285991 475.878134 
L 109.285991 475.878134 
L 109.580677 474.246907 
L 109.835046 472.61568 
L 110.065259 470.984453 
L 110.272529 469.41751 
L 110.279858 469.353226 
L 110.438652 467.721999 
L 110.563064 466.090773 
L 110.656071 464.459546 
L 110.718877 462.828319 
L 110.750999 461.197092 
L 110.750663 459.565865 
L 110.71584 457.934639 
L 110.645412 456.303412 
L 110.539144 454.672185 
L 110.395512 453.040958 
L 110.272529 451.931777 
L 109.965063 451.409731 
L 109.285991 450.512978 
L 109.11071 451.409731 
L 108.823948 453.040958 
L 108.568881 454.672185 
L 108.330666 456.303412 
L 108.299454 456.516393 
L 108.170139 457.934639 
L 108.035975 459.565865 
L 107.920814 461.197092 
L 107.826664 462.828319 
L 107.755034 464.459546 
L 107.707644 466.090773 
L 107.686916 467.721999 
L 107.696148 469.353226 
L 107.739681 470.984453 
L 107.823771 472.61568 
L 107.958981 474.246907 
L 108.164474 475.878134 
z
M 108.250966 472.61568 
L 108.13384 470.984453 
L 108.065818 469.353226 
L 108.039572 467.721999 
L 108.050566 466.090773 
L 108.095586 464.459546 
L 108.172241 462.828319 
L 108.278623 461.197092 
L 108.299454 460.932436 
L 108.490007 459.565865 
L 108.726237 457.934639 
L 108.975697 456.303412 
L 109.247026 454.672185 
L 109.285991 454.450468 
L 109.388827 454.672185 
L 109.956666 456.303412 
L 110.272529 457.934639 
L 110.272529 457.934639 
L 110.339927 459.565865 
L 110.36546 461.197092 
L 110.350237 462.828319 
L 110.295677 464.459546 
L 110.272529 464.864383 
L 110.172417 466.090773 
L 110.008901 467.721999 
L 109.823455 469.353226 
L 109.616559 470.984453 
L 109.383615 472.61568 
L 109.285991 473.218459 
L 108.299454 473.088669 
z
" clip-path="url(#pc86025d507)" style="fill: #4a4afb"/>
    <path d="M 108.299454 473.088669 
L 109.285991 473.218459 
L 109.383615 472.61568 
L 109.616559 470.984453 
L 109.823455 469.353226 
L 110.008901 467.721999 
L 110.172417 466.090773 
L 110.272529 464.864383 
L 110.295677 464.459546 
L 110.350237 462.828319 
L 110.36546 461.197092 
L 110.339927 459.565865 
L 110.272529 457.934639 
L 110.272529 457.934639 
L 109.956666 456.303412 
L 109.388827 454.672185 
L 109.285991 454.450468 
L 109.247026 454.672185 
L 108.975697 456.303412 
L 108.726237 457.934639 
L 108.490007 459.565865 
L 108.299454 460.932436 
L 108.278623 461.197092 
L 108.172241 462.828319 
L 108.095586 464.459546 
L 108.050566 466.090773 
L 108.039572 467.721999 
L 108.065818 469.353226 
L 108.13384 470.984453 
L 108.250966 472.61568 
z
M 108.959655 470.984453 
L 108.299454 469.353226 
L 108.299454 469.353226 
L 108.262454 467.721999 
L 108.267296 466.090773 
L 108.299454 464.887718 
L 108.326843 464.459546 
L 108.489299 462.828319 
L 108.678976 461.197092 
L 108.890632 459.565865 
L 109.1242 457.934639 
L 109.285991 456.907104 
L 109.571139 457.934639 
L 109.849653 459.565865 
L 109.977805 461.197092 
L 110.000691 462.828319 
L 109.949968 464.459546 
L 109.847239 466.090773 
L 109.706171 467.721999 
L 109.534153 469.353226 
L 109.332976 470.984453 
L 109.285991 471.312636 
z
" clip-path="url(#pc86025d507)" style="fill: #2f2ffd"/>
    <path d="M 109.285991 471.312636 
L 109.332976 470.984453 
L 109.534153 469.353226 
L 109.706171 467.721999 
L 109.847239 466.090773 
L 109.949968 464.459546 
L 110.000691 462.828319 
L 109.977805 461.197092 
L 109.849653 459.565865 
L 109.571139 457.934639 
L 109.285991 456.907104 
L 109.1242 457.934639 
L 108.890632 459.565865 
L 108.678976 461.197092 
L 108.489299 462.828319 
L 108.326843 464.459546 
L 108.299454 464.887718 
L 108.267296 466.090773 
L 108.262454 467.721999 
L 108.299454 469.353226 
L 108.299454 469.353226 
L 108.959655 470.984453 
z
" clip-path="url(#pc86025d507)" style="fill: #1212fe"/>
   </g>
   <g id="QuadContourSet_2">
    <path d="M 76.191724 544.64346 
L 84.817704 565.50352 
L 93.443684 559.747325 
L 100.775771 538.79076 
L 102.069664 536.918356 
L 110.528199 509.140314 
L 110.695644 508.694284 
L 118.916584 479.489868 
L 119.321624 477.634045 
L 126.809078 449.839421 
L 127.947605 441.388382 
L 133.571596 420.188975 
L 136.523623 390.538529 
L 136.573585 389.891619 
L 143.318178 360.888083 
L 145.191739 331.237637 
L 145.199565 331.065154 
L 150.64405 301.587191 
L 152.540065 271.936744 
L 153.825545 242.286298 
L 153.825545 242.286298 
L 156.02607 212.635852 
L 154.118404 182.985406 
L 153.825545 180.470936 
L 152.745983 153.33496 
L 151.515008 123.684514 
L 149.339875 94.034067 
L 145.199565 68.158412 
L 144.371058 64.383621 
L 138.312898 34.733175 
L 136.573585 22.278947 
L 127.947605 6.075483 
L 119.321624 17.992357 
L 115.373067 34.733175 
L 110.695644 57.964873 
L 109.661461 64.383621 
L 105.470473 94.034067 
L 102.641927 123.684514 
L 102.069664 129.866449 
L 99.170415 153.33496 
L 95.678898 182.985406 
L 93.534166 212.635852 
L 93.443684 213.903033 
L 89.067554 242.286298 
L 86.670166 271.936744 
L 85.29908 301.587191 
L 84.817704 315.493262 
L 82.985987 331.237637 
L 80.185654 360.888083 
L 78.144567 390.538529 
L 76.940504 420.188975 
L 76.2131 449.839421 
L 76.191724 451.118339 
L 73.895131 479.489868 
L 73.375102 509.140314 
L 75.191634 538.79076 
z
M 86.392206 509.140314 
L 84.817704 497.452651 
L 83.431479 479.489868 
L 83.953532 449.839421 
L 84.817704 439.268301 
L 85.356127 420.188975 
L 86.673416 390.538529 
L 88.893389 360.888083 
L 92.618828 331.237637 
L 93.443684 324.356825 
L 94.845022 301.587191 
L 97.260012 271.936744 
L 100.9336 242.286298 
L 102.069664 234.759927 
L 104.813541 212.635852 
L 109.998324 182.985406 
L 110.695644 179.398663 
L 117.952229 153.33496 
L 119.321624 148.282066 
L 127.947605 143.1942 
L 131.00029 153.33496 
L 136.458676 182.985406 
L 136.573585 183.889814 
L 139.497579 212.635852 
L 141.104433 242.286298 
L 141.168185 271.936744 
L 139.815357 301.587191 
L 136.573585 328.88423 
L 136.465373 331.237637 
L 134.587482 360.888083 
L 130.465719 390.538529 
L 127.947605 401.405061 
L 125.693548 420.188975 
L 119.321624 446.450767 
L 118.621124 449.839421 
L 110.695644 479.489868 
L 110.695644 479.489868 
L 102.069664 506.33341 
L 99.449574 509.140314 
L 93.443684 521.77583 
z
" clip-path="url(#pc86025d507)" style="fill: #e0eee0; fill-opacity: 0.5"/>
    <path d="M 93.443684 521.77583 
L 99.449574 509.140314 
L 102.069664 506.33341 
L 110.695644 479.489868 
L 110.695644 479.489868 
L 118.621124 449.839421 
L 119.321624 446.450767 
L 125.693548 420.188975 
L 127.947605 401.405061 
L 130.465719 390.538529 
L 134.587482 360.888083 
L 136.465373 331.237637 
L 136.573585 328.88423 
L 139.815357 301.587191 
L 141.168185 271.936744 
L 141.104433 242.286298 
L 139.497579 212.635852 
L 136.573585 183.889814 
L 136.458676 182.985406 
L 131.00029 153.33496 
L 127.947605 143.1942 
L 119.321624 148.282066 
L 117.952229 153.33496 
L 110.695644 179.398663 
L 109.998324 182.985406 
L 104.813541 212.635852 
L 102.069664 234.759927 
L 100.9336 242.286298 
L 97.260012 271.936744 
L 94.845022 301.587191 
L 93.443684 324.356825 
L 92.618828 331.237637 
L 88.893389 360.888083 
L 86.673416 390.538529 
L 85.356127 420.188975 
L 84.817704 439.268301 
L 83.953532 449.839421 
L 83.431479 479.489868 
L 84.817704 497.452651 
L 86.392206 509.140314 
z
M 87.528762 479.489868 
L 86.798359 449.839421 
L 87.534295 420.188975 
L 89.327164 390.538529 
L 92.916628 360.888083 
L 93.443684 357.031061 
L 95.321826 331.237637 
L 98.261985 301.587191 
L 102.069664 272.586762 
L 102.147762 271.936744 
L 105.669989 242.286298 
L 110.695644 212.635852 
L 110.695644 212.635852 
L 119.321624 183.205446 
L 127.947605 187.308858 
L 132.532595 212.635852 
L 135.60825 242.286298 
L 136.40822 271.936744 
L 135.803933 301.587191 
L 134.470107 331.237637 
L 132.018626 360.888083 
L 127.947605 383.53514 
L 127.245242 390.538529 
L 123.13637 420.188975 
L 119.321624 435.911394 
L 116.442433 449.839421 
L 110.695644 471.339048 
L 107.477848 479.489868 
L 102.069664 496.319819 
L 93.443684 503.990606 
z
" clip-path="url(#pc86025d507)" style="fill: #cde5cd; fill-opacity: 0.5"/>
    <path d="M 93.443684 503.990606 
L 102.069664 496.319819 
L 107.477848 479.489868 
L 110.695644 471.339048 
L 116.442433 449.839421 
L 119.321624 435.911394 
L 123.13637 420.188975 
L 127.245242 390.538529 
L 127.947605 383.53514 
L 132.018626 360.888083 
L 134.470107 331.237637 
L 135.803933 301.587191 
L 136.40822 271.936744 
L 135.60825 242.286298 
L 132.532595 212.635852 
L 127.947605 187.308858 
L 119.321624 183.205446 
L 110.695644 212.635852 
L 110.695644 212.635852 
L 105.669989 242.286298 
L 102.147762 271.936744 
L 102.069664 272.586762 
L 98.261985 301.587191 
L 95.321826 331.237637 
L 93.443684 357.031061 
L 92.916628 360.888083 
L 89.327164 390.538529 
L 87.534295 420.188975 
L 86.798359 449.839421 
L 87.528762 479.489868 
z
M 93.374181 479.489868 
L 90.655544 449.839421 
L 91.195164 420.188975 
L 93.443684 393.843539 
L 93.614265 390.538529 
L 95.747882 360.888083 
L 98.92499 331.237637 
L 102.069664 309.846525 
L 103.228466 301.587191 
L 107.40302 271.936744 
L 110.695644 251.913987 
L 114.042703 242.286298 
L 119.321624 225.249772 
L 127.947605 238.605204 
L 128.529267 242.286298 
L 131.789007 271.936744 
L 132.31671 301.587191 
L 131.11664 331.237637 
L 127.947605 359.198898 
L 127.826835 360.888083 
L 124.836478 390.538529 
L 119.321624 418.801304 
L 119.060097 420.188975 
L 112.780684 449.839421 
L 110.695644 457.639876 
L 102.069664 479.489868 
L 102.069664 479.489868 
L 93.443684 479.777763 
z
" clip-path="url(#pc86025d507)" style="fill: #b5d9b5; fill-opacity: 0.5"/>
    <path d="M 93.443684 479.777763 
L 102.069664 479.489868 
L 102.069664 479.489868 
L 110.695644 457.639876 
L 112.780684 449.839421 
L 119.060097 420.188975 
L 119.321624 418.801304 
L 124.836478 390.538529 
L 127.826835 360.888083 
L 127.947605 359.198898 
L 131.11664 331.237637 
L 132.31671 301.587191 
L 131.789007 271.936744 
L 128.529267 242.286298 
L 127.947605 238.605204 
L 119.321624 225.249772 
L 114.042703 242.286298 
L 110.695644 251.913987 
L 107.40302 271.936744 
L 103.228466 301.587191 
L 102.069664 309.846525 
L 98.92499 331.237637 
L 95.747882 360.888083 
L 93.614265 390.538529 
L 93.443684 393.843539 
L 91.195164 420.188975 
L 90.655544 449.839421 
L 93.374181 479.489868 
z
M 93.443684 449.839421 
L 93.728081 420.188975 
L 95.214542 390.538529 
L 97.554254 360.888083 
L 101.529513 331.237637 
L 102.069664 327.56335 
L 105.714175 301.587191 
L 110.695644 273.785044 
L 111.446235 271.936744 
L 119.321624 248.123703 
L 127.947605 267.633439 
L 128.450039 271.936744 
L 129.795993 301.587191 
L 128.692608 331.237637 
L 127.947605 337.81101 
L 126.297695 360.888083 
L 123.095319 390.538529 
L 119.321624 409.878133 
L 117.378391 420.188975 
L 110.695644 448.335933 
L 109.982193 449.839421 
L 102.069664 470.649799 
z
" clip-path="url(#pc86025d507)" style="fill: #9ccd9c; fill-opacity: 0.5"/>
    <path d="M 102.069664 470.649799 
L 109.982193 449.839421 
L 110.695644 448.335933 
L 117.378391 420.188975 
L 119.321624 409.878133 
L 123.095319 390.538529 
L 126.297695 360.888083 
L 127.947605 337.81101 
L 128.692608 331.237637 
L 129.795993 301.587191 
L 128.450039 271.936744 
L 127.947605 267.633439 
L 119.321624 248.123703 
L 111.446235 271.936744 
L 110.695644 273.785044 
L 105.714175 301.587191 
L 102.069664 327.56335 
L 101.529513 331.237637 
L 97.554254 360.888083 
L 95.214542 390.538529 
L 93.728081 420.188975 
L 93.443684 449.839421 
z
M 100.786985 449.839421 
L 97.520253 420.188975 
L 98.421567 390.538529 
L 101.174303 360.888083 
L 102.069664 354.476778 
L 105.434514 331.237637 
L 110.695644 301.587191 
L 110.695644 301.587191 
L 119.321624 280.281646 
L 124.058274 301.587191 
L 124.808365 331.237637 
L 123.233231 360.888083 
L 119.60596 390.538529 
L 119.321624 391.995705 
L 114.008179 420.188975 
L 110.695644 434.140987 
L 103.246253 449.839421 
L 102.069664 452.933913 
z
" clip-path="url(#pc86025d507)" style="fill: #7cbd7c; fill-opacity: 0.5"/>
    <path d="M 102.069664 452.933913 
L 103.246253 449.839421 
L 110.695644 434.140987 
L 114.008179 420.188975 
L 119.321624 391.995705 
L 119.60596 390.538529 
L 123.233231 360.888083 
L 124.808365 331.237637 
L 124.058274 301.587191 
L 119.321624 280.281646 
L 110.695644 301.587191 
L 110.695644 301.587191 
L 105.434514 331.237637 
L 102.069664 354.476778 
L 101.174303 360.888083 
L 98.421567 390.538529 
L 97.520253 420.188975 
L 100.786985 449.839421 
z
M 100.448733 420.188975 
L 100.898172 390.538529 
L 102.069664 378.371595 
L 104.152975 360.888083 
L 108.332945 331.237637 
L 110.695644 317.922037 
L 119.321624 301.587191 
L 121.944977 331.237637 
L 120.866719 360.888083 
L 119.321624 373.398748 
L 116.7019 390.538529 
L 111.405554 420.188975 
L 110.695644 423.179031 
L 102.069664 432.553544 
z
" clip-path="url(#pc86025d507)" style="fill: #56aa56; fill-opacity: 0.5"/>
    <path d="M 102.069664 432.553544 
L 110.695644 423.179031 
L 111.405554 420.188975 
L 116.7019 390.538529 
L 119.321624 373.398748 
L 120.866719 360.888083 
L 121.944977 331.237637 
L 119.321624 301.587191 
L 110.695644 317.922037 
L 108.332945 331.237637 
L 104.152975 360.888083 
L 102.069664 378.371595 
L 100.898172 390.538529 
L 100.448733 420.188975 
z
M 102.509681 390.538529 
L 105.849444 360.888083 
L 109.937243 331.237637 
L 110.695644 326.96347 
L 119.321624 319.500549 
L 120.360075 331.237637 
L 119.55684 360.888083 
L 119.321624 362.79263 
L 115.080811 390.538529 
L 110.695644 415.507323 
z
" clip-path="url(#pc86025d507)" style="fill: #3d9e3d; fill-opacity: 0.5"/>
    <path d="M 110.695644 415.507323 
L 115.080811 390.538529 
L 119.321624 362.79263 
L 119.55684 360.888083 
L 120.360075 331.237637 
L 119.321624 319.500549 
L 110.695644 326.96347 
L 109.937243 331.237637 
L 105.849444 360.888083 
L 102.509681 390.538529 
z
M 104.492458 390.538529 
L 106.960994 360.888083 
L 110.695644 333.507317 
L 117.789018 360.888083 
L 114.01865 390.538529 
L 110.695644 409.459464 
z
" clip-path="url(#pc86025d507)" style="fill: #2e972e; fill-opacity: 0.5"/>
    <path d="M 110.695644 409.459464 
L 114.01865 390.538529 
L 117.789018 360.888083 
L 110.695644 333.507317 
L 106.960994 360.888083 
L 104.492458 390.538529 
z
" clip-path="url(#pc86025d507)" style="fill: #138913; fill-opacity: 0.5"/>
   </g>
   <g id="matplotlib.axis_1">
    <g id="xtick_1">
     <g id="line2d_1">
      <defs>
       <path id="m242ce32db5" d="M 0 0 
L 0 3.5 
" style="stroke: #000000; stroke-width: 0.8"/>
      </defs>
      <g>
       <use xlink:href="#m242ce32db5" x="211.301152" y="499.48" style="stroke: #000000; stroke-width: 0.8"/>
      </g>
     </g>
     <g id="text_1">
      <!-- 5 -->
      <g transform="translate(204.302402 523.196563) scale(0.22 -0.22)">
       <defs>
        <path id="DejaVuSans-35" d="M 691 4666 
L 3169 4666 
L 3169 4134 
L 1269 4134 
L 1269 2991 
Q 1406 3038 1543 3061 
Q 1681 3084 1819 3084 
Q 2600 3084 3056 2656 
Q 3513 2228 3513 1497 
Q 3513 744 3044 326 
Q 2575 -91 1722 -91 
Q 1428 -91 1123 -41 
Q 819 9 494 109 
L 494 744 
Q 775 591 1075 516 
Q 1375 441 1709 441 
Q 2250 441 2565 725 
Q 2881 1009 2881 1497 
Q 2881 1984 2565 2268 
Q 2250 2553 1709 2553 
Q 1456 2553 1204 2497 
Q 953 2441 691 2322 
L 691 4666 
z
" transform="scale(0.015625)"/>
       </defs>
       <use xlink:href="#DejaVuSans-35"/>
      </g>
     </g>
    </g>
    <g id="xtick_2">
     <g id="line2d_2">
      <g>
       <use xlink:href="#m242ce32db5" x="351.803035" y="499.48" style="stroke: #000000; stroke-width: 0.8"/>
      </g>
     </g>
     <g id="text_2">
      <!-- 10 -->
      <g transform="translate(337.805535 523.196563) scale(0.22 -0.22)">
       <defs>
        <path id="DejaVuSans-31" d="M 794 531 
L 1825 531 
L 1825 4091 
L 703 3866 
L 703 4441 
L 1819 4666 
L 2450 4666 
L 2450 531 
L 3481 531 
L 3481 0 
L 794 0 
L 794 531 
z
" transform="scale(0.015625)"/>
        <path id="DejaVuSans-30" d="M 2034 4250 
Q 1547 4250 1301 3770 
Q 1056 3291 1056 2328 
Q 1056 1369 1301 889 
Q 1547 409 2034 409 
Q 2525 409 2770 889 
Q 3016 1369 3016 2328 
Q 3016 3291 2770 3770 
Q 2525 4250 2034 4250 
z
M 2034 4750 
Q 2819 4750 3233 4129 
Q 3647 3509 3647 2328 
Q 3647 1150 3233 529 
Q 2819 -91 2034 -91 
Q 1250 -91 836 529 
Q 422 1150 422 2328 
Q 422 3509 836 4129 
Q 1250 4750 2034 4750 
z
" transform="scale(0.015625)"/>
       </defs>
       <use xlink:href="#DejaVuSans-31"/>
       <use xlink:href="#DejaVuSans-30" x="63.623047"/>
      </g>
     </g>
    </g>
    <g id="xtick_3">
     <g id="line2d_3">
      <g>
       <use xlink:href="#m242ce32db5" x="492.304918" y="499.48" style="stroke: #000000; stroke-width: 0.8"/>
      </g>
     </g>
     <g id="text_3">
      <!-- 15 -->
      <g transform="translate(478.307418 523.196563) scale(0.22 -0.22)">
       <use xlink:href="#DejaVuSans-31"/>
       <use xlink:href="#DejaVuSans-35" x="63.623047"/>
      </g>
     </g>
    </g>
    <g id="xtick_4">
     <g id="line2d_4">
      <g>
       <use xlink:href="#m242ce32db5" x="632.806801" y="499.48" style="stroke: #000000; stroke-width: 0.8"/>
      </g>
     </g>
     <g id="text_4">
      <!-- 20 -->
      <g transform="translate(618.809301 523.196563) scale(0.22 -0.22)">
       <defs>
        <path id="DejaVuSans-32" d="M 1228 531 
L 3431 531 
L 3431 0 
L 469 0 
L 469 531 
Q 828 903 1448 1529 
Q 2069 2156 2228 2338 
Q 2531 2678 2651 2914 
Q 2772 3150 2772 3378 
Q 2772 3750 2511 3984 
Q 2250 4219 1831 4219 
Q 1534 4219 1204 4116 
Q 875 4013 500 3803 
L 500 4441 
Q 881 4594 1212 4672 
Q 1544 4750 1819 4750 
Q 2544 4750 2975 4387 
Q 3406 4025 3406 3419 
Q 3406 3131 3298 2873 
Q 3191 2616 2906 2266 
Q 2828 2175 2409 1742 
Q 1991 1309 1228 531 
z
" transform="scale(0.015625)"/>
       </defs>
       <use xlink:href="#DejaVuSans-32"/>
       <use xlink:href="#DejaVuSans-30" x="63.623047"/>
      </g>
     </g>
    </g>
    <g id="text_5">
     <!-- Energy Uncertainties -->
     <g transform="translate(285.147187 548.488438) scale(0.22 -0.22)">
      <defs>
       <path id="DejaVuSans-45" d="M 628 4666 
L 3578 4666 
L 3578 4134 
L 1259 4134 
L 1259 2753 
L 3481 2753 
L 3481 2222 
L 1259 2222 
L 1259 531 
L 3634 531 
L 3634 0 
L 628 0 
L 628 4666 
z
" transform="scale(0.015625)"/>
       <path id="DejaVuSans-6e" d="M 3513 2113 
L 3513 0 
L 2938 0 
L 2938 2094 
Q 2938 2591 2744 2837 
Q 2550 3084 2163 3084 
Q 1697 3084 1428 2787 
Q 1159 2491 1159 1978 
L 1159 0 
L 581 0 
L 581 3500 
L 1159 3500 
L 1159 2956 
Q 1366 3272 1645 3428 
Q 1925 3584 2291 3584 
Q 2894 3584 3203 3211 
Q 3513 2838 3513 2113 
z
" transform="scale(0.015625)"/>
       <path id="DejaVuSans-65" d="M 3597 1894 
L 3597 1613 
L 953 1613 
Q 991 1019 1311 708 
Q 1631 397 2203 397 
Q 2534 397 2845 478 
Q 3156 559 3463 722 
L 3463 178 
Q 3153 47 2828 -22 
Q 2503 -91 2169 -91 
Q 1331 -91 842 396 
Q 353 884 353 1716 
Q 353 2575 817 3079 
Q 1281 3584 2069 3584 
Q 2775 3584 3186 3129 
Q 3597 2675 3597 1894 
z
M 3022 2063 
Q 3016 2534 2758 2815 
Q 2500 3097 2075 3097 
Q 1594 3097 1305 2825 
Q 1016 2553 972 2059 
L 3022 2063 
z
" transform="scale(0.015625)"/>
       <path id="DejaVuSans-72" d="M 2631 2963 
Q 2534 3019 2420 3045 
Q 2306 3072 2169 3072 
Q 1681 3072 1420 2755 
Q 1159 2438 1159 1844 
L 1159 0 
L 581 0 
L 581 3500 
L 1159 3500 
L 1159 2956 
Q 1341 3275 1631 3429 
Q 1922 3584 2338 3584 
Q 2397 3584 2469 3576 
Q 2541 3569 2628 3553 
L 2631 2963 
z
" transform="scale(0.015625)"/>
       <path id="DejaVuSans-67" d="M 2906 1791 
Q 2906 2416 2648 2759 
Q 2391 3103 1925 3103 
Q 1463 3103 1205 2759 
Q 947 2416 947 1791 
Q 947 1169 1205 825 
Q 1463 481 1925 481 
Q 2391 481 2648 825 
Q 2906 1169 2906 1791 
z
M 3481 434 
Q 3481 -459 3084 -895 
Q 2688 -1331 1869 -1331 
Q 1566 -1331 1297 -1286 
Q 1028 -1241 775 -1147 
L 775 -588 
Q 1028 -725 1275 -790 
Q 1522 -856 1778 -856 
Q 2344 -856 2625 -561 
Q 2906 -266 2906 331 
L 2906 616 
Q 2728 306 2450 153 
Q 2172 0 1784 0 
Q 1141 0 747 490 
Q 353 981 353 1791 
Q 353 2603 747 3093 
Q 1141 3584 1784 3584 
Q 2172 3584 2450 3431 
Q 2728 3278 2906 2969 
L 2906 3500 
L 3481 3500 
L 3481 434 
z
" transform="scale(0.015625)"/>
       <path id="DejaVuSans-79" d="M 2059 -325 
Q 1816 -950 1584 -1140 
Q 1353 -1331 966 -1331 
L 506 -1331 
L 506 -850 
L 844 -850 
Q 1081 -850 1212 -737 
Q 1344 -625 1503 -206 
L 1606 56 
L 191 3500 
L 800 3500 
L 1894 763 
L 2988 3500 
L 3597 3500 
L 2059 -325 
z
" transform="scale(0.015625)"/>
       <path id="DejaVuSans-20" transform="scale(0.015625)"/>
       <path id="DejaVuSans-55" d="M 556 4666 
L 1191 4666 
L 1191 1831 
Q 1191 1081 1462 751 
Q 1734 422 2344 422 
Q 2950 422 3222 751 
Q 3494 1081 3494 1831 
L 3494 4666 
L 4128 4666 
L 4128 1753 
Q 4128 841 3676 375 
Q 3225 -91 2344 -91 
Q 1459 -91 1007 375 
Q 556 841 556 1753 
L 556 4666 
z
" transform="scale(0.015625)"/>
       <path id="DejaVuSans-63" d="M 3122 3366 
L 3122 2828 
Q 2878 2963 2633 3030 
Q 2388 3097 2138 3097 
Q 1578 3097 1268 2742 
Q 959 2388 959 1747 
Q 959 1106 1268 751 
Q 1578 397 2138 397 
Q 2388 397 2633 464 
Q 2878 531 3122 666 
L 3122 134 
Q 2881 22 2623 -34 
Q 2366 -91 2075 -91 
Q 1284 -91 818 406 
Q 353 903 353 1747 
Q 353 2603 823 3093 
Q 1294 3584 2113 3584 
Q 2378 3584 2631 3529 
Q 2884 3475 3122 3366 
z
" transform="scale(0.015625)"/>
       <path id="DejaVuSans-74" d="M 1172 4494 
L 1172 3500 
L 2356 3500 
L 2356 3053 
L 1172 3053 
L 1172 1153 
Q 1172 725 1289 603 
Q 1406 481 1766 481 
L 2356 481 
L 2356 0 
L 1766 0 
Q 1100 0 847 248 
Q 594 497 594 1153 
L 594 3053 
L 172 3053 
L 172 3500 
L 594 3500 
L 594 4494 
L 1172 4494 
z
" transform="scale(0.015625)"/>
       <path id="DejaVuSans-61" d="M 2194 1759 
Q 1497 1759 1228 1600 
Q 959 1441 959 1056 
Q 959 750 1161 570 
Q 1363 391 1709 391 
Q 2188 391 2477 730 
Q 2766 1069 2766 1631 
L 2766 1759 
L 2194 1759 
z
M 3341 1997 
L 3341 0 
L 2766 0 
L 2766 531 
Q 2569 213 2275 61 
Q 1981 -91 1556 -91 
Q 1019 -91 701 211 
Q 384 513 384 1019 
Q 384 1609 779 1909 
Q 1175 2209 1959 2209 
L 2766 2209 
L 2766 2266 
Q 2766 2663 2505 2880 
Q 2244 3097 1772 3097 
Q 1472 3097 1187 3025 
Q 903 2953 641 2809 
L 641 3341 
Q 956 3463 1253 3523 
Q 1550 3584 1831 3584 
Q 2591 3584 2966 3190 
Q 3341 2797 3341 1997 
z
" transform="scale(0.015625)"/>
       <path id="DejaVuSans-69" d="M 603 3500 
L 1178 3500 
L 1178 0 
L 603 0 
L 603 3500 
z
M 603 4863 
L 1178 4863 
L 1178 4134 
L 603 4134 
L 603 4863 
z
" transform="scale(0.015625)"/>
       <path id="DejaVuSans-73" d="M 2834 3397 
L 2834 2853 
Q 2591 2978 2328 3040 
Q 2066 3103 1784 3103 
Q 1356 3103 1142 2972 
Q 928 2841 928 2578 
Q 928 2378 1081 2264 
Q 1234 2150 1697 2047 
L 1894 2003 
Q 2506 1872 2764 1633 
Q 3022 1394 3022 966 
Q 3022 478 2636 193 
Q 2250 -91 1575 -91 
Q 1294 -91 989 -36 
Q 684 19 347 128 
L 347 722 
Q 666 556 975 473 
Q 1284 391 1588 391 
Q 1994 391 2212 530 
Q 2431 669 2431 922 
Q 2431 1156 2273 1281 
Q 2116 1406 1581 1522 
L 1381 1569 
Q 847 1681 609 1914 
Q 372 2147 372 2553 
Q 372 3047 722 3315 
Q 1072 3584 1716 3584 
Q 2034 3584 2315 3537 
Q 2597 3491 2834 3397 
z
" transform="scale(0.015625)"/>
      </defs>
      <use xlink:href="#DejaVuSans-45"/>
      <use xlink:href="#DejaVuSans-6e" x="63.183594"/>
      <use xlink:href="#DejaVuSans-65" x="126.5625"/>
      <use xlink:href="#DejaVuSans-72" x="188.085938"/>
      <use xlink:href="#DejaVuSans-67" x="227.449219"/>
      <use xlink:href="#DejaVuSans-79" x="290.925781"/>
      <use xlink:href="#DejaVuSans-20" x="350.105469"/>
      <use xlink:href="#DejaVuSans-55" x="381.892578"/>
      <use xlink:href="#DejaVuSans-6e" x="455.085938"/>
      <use xlink:href="#DejaVuSans-63" x="518.464844"/>
      <use xlink:href="#DejaVuSans-65" x="573.445312"/>
      <use xlink:href="#DejaVuSans-72" x="634.96875"/>
      <use xlink:href="#DejaVuSans-74" x="676.082031"/>
      <use xlink:href="#DejaVuSans-61" x="715.291016"/>
      <use xlink:href="#DejaVuSans-69" x="776.570312"/>
      <use xlink:href="#DejaVuSans-6e" x="804.353516"/>
      <use xlink:href="#DejaVuSans-74" x="867.732422"/>
      <use xlink:href="#DejaVuSans-69" x="906.941406"/>
      <use xlink:href="#DejaVuSans-65" x="934.724609"/>
      <use xlink:href="#DejaVuSans-73" x="996.248047"/>
     </g>
    </g>
   </g>
   <g id="matplotlib.axis_2">
    <g id="ytick_1">
     <g id="line2d_5">
      <defs>
       <path id="mfeb5acf92c" d="M 0 0 
L -3.5 0 
" style="stroke: #000000; stroke-width: 0.8"/>
      </defs>
      <g>
       <use xlink:href="#mfeb5acf92c" x="104.69" y="470.239396" style="stroke: #000000; stroke-width: 0.8"/>
      </g>
     </g>
     <g id="text_6">
      <!-- 2.5 -->
      <g transform="translate(62.703125 478.597678) scale(0.22 -0.22)">
       <defs>
        <path id="DejaVuSans-2e" d="M 684 794 
L 1344 794 
L 1344 0 
L 684 0 
L 684 794 
z
" transform="scale(0.015625)"/>
       </defs>
       <use xlink:href="#DejaVuSans-32"/>
       <use xlink:href="#DejaVuSans-2e" x="63.623047"/>
       <use xlink:href="#DejaVuSans-35" x="95.410156"/>
      </g>
     </g>
    </g>
    <g id="ytick_2">
     <g id="line2d_6">
      <g>
       <use xlink:href="#mfeb5acf92c" x="104.69" y="413.744125" style="stroke: #000000; stroke-width: 0.8"/>
      </g>
     </g>
     <g id="text_7">
      <!-- 5.0 -->
      <g transform="translate(62.703125 422.102406) scale(0.22 -0.22)">
       <use xlink:href="#DejaVuSans-35"/>
       <use xlink:href="#DejaVuSans-2e" x="63.623047"/>
       <use xlink:href="#DejaVuSans-30" x="95.410156"/>
      </g>
     </g>
    </g>
    <g id="ytick_3">
     <g id="line2d_7">
      <g>
       <use xlink:href="#mfeb5acf92c" x="104.69" y="357.248853" style="stroke: #000000; stroke-width: 0.8"/>
      </g>
     </g>
     <g id="text_8">
      <!-- 7.5 -->
      <g transform="translate(62.703125 365.607134) scale(0.22 -0.22)">
       <defs>
        <path id="DejaVuSans-37" d="M 525 4666 
L 3525 4666 
L 3525 4397 
L 1831 0 
L 1172 0 
L 2766 4134 
L 525 4134 
L 525 4666 
z
" transform="scale(0.015625)"/>
       </defs>
       <use xlink:href="#DejaVuSans-37"/>
       <use xlink:href="#DejaVuSans-2e" x="63.623047"/>
       <use xlink:href="#DejaVuSans-35" x="95.410156"/>
      </g>
     </g>
    </g>
    <g id="ytick_4">
     <g id="line2d_8">
      <g>
       <use xlink:href="#mfeb5acf92c" x="104.69" y="300.753582" style="stroke: #000000; stroke-width: 0.8"/>
      </g>
     </g>
     <g id="text_9">
      <!-- 10.0 -->
      <g transform="translate(48.705625 309.111863) scale(0.22 -0.22)">
       <use xlink:href="#DejaVuSans-31"/>
       <use xlink:href="#DejaVuSans-30" x="63.623047"/>
       <use xlink:href="#DejaVuSans-2e" x="127.246094"/>
       <use xlink:href="#DejaVuSans-30" x="159.033203"/>
      </g>
     </g>
    </g>
    <g id="ytick_5">
     <g id="line2d_9">
      <g>
       <use xlink:href="#mfeb5acf92c" x="104.69" y="244.25831" style="stroke: #000000; stroke-width: 0.8"/>
      </g>
     </g>
     <g id="text_10">
      <!-- 12.5 -->
      <g transform="translate(48.705625 252.616591) scale(0.22 -0.22)">
       <use xlink:href="#DejaVuSans-31"/>
       <use xlink:href="#DejaVuSans-32" x="63.623047"/>
       <use xlink:href="#DejaVuSans-2e" x="127.246094"/>
       <use xlink:href="#DejaVuSans-35" x="159.033203"/>
      </g>
     </g>
    </g>
    <g id="ytick_6">
     <g id="line2d_10">
      <g>
       <use xlink:href="#mfeb5acf92c" x="104.69" y="187.763038" style="stroke: #000000; stroke-width: 0.8"/>
      </g>
     </g>
     <g id="text_11">
      <!-- 15.0 -->
      <g transform="translate(48.705625 196.121319) scale(0.22 -0.22)">
       <use xlink:href="#DejaVuSans-31"/>
       <use xlink:href="#DejaVuSans-35" x="63.623047"/>
       <use xlink:href="#DejaVuSans-2e" x="127.246094"/>
       <use xlink:href="#DejaVuSans-30" x="159.033203"/>
      </g>
     </g>
    </g>
    <g id="ytick_7">
     <g id="line2d_11">
      <g>
       <use xlink:href="#mfeb5acf92c" x="104.69" y="131.267767" style="stroke: #000000; stroke-width: 0.8"/>
      </g>
     </g>
     <g id="text_12">
      <!-- 17.5 -->
      <g transform="translate(48.705625 139.626048) scale(0.22 -0.22)">
       <use xlink:href="#DejaVuSans-31"/>
       <use xlink:href="#DejaVuSans-37" x="63.623047"/>
       <use xlink:href="#DejaVuSans-2e" x="127.246094"/>
       <use xlink:href="#DejaVuSans-35" x="159.033203"/>
      </g>
     </g>
    </g>
    <g id="ytick_8">
     <g id="line2d_12">
      <g>
       <use xlink:href="#mfeb5acf92c" x="104.69" y="74.772495" style="stroke: #000000; stroke-width: 0.8"/>
      </g>
     </g>
     <g id="text_13">
      <!-- 20.0 -->
      <g transform="translate(48.705625 83.130776) scale(0.22 -0.22)">
       <use xlink:href="#DejaVuSans-32"/>
       <use xlink:href="#DejaVuSans-30" x="63.623047"/>
       <use xlink:href="#DejaVuSans-2e" x="127.246094"/>
       <use xlink:href="#DejaVuSans-30" x="159.033203"/>
      </g>
     </g>
    </g>
    <g id="text_14">
     <!-- Force Errors [kJ/(mol*A)] -->
     <g transform="translate(40.130313 394.9125) rotate(-90) scale(0.22 -0.22)">
      <defs>
       <path id="DejaVuSans-46" d="M 628 4666 
L 3309 4666 
L 3309 4134 
L 1259 4134 
L 1259 2759 
L 3109 2759 
L 3109 2228 
L 1259 2228 
L 1259 0 
L 628 0 
L 628 4666 
z
" transform="scale(0.015625)"/>
       <path id="DejaVuSans-6f" d="M 1959 3097 
Q 1497 3097 1228 2736 
Q 959 2375 959 1747 
Q 959 1119 1226 758 
Q 1494 397 1959 397 
Q 2419 397 2687 759 
Q 2956 1122 2956 1747 
Q 2956 2369 2687 2733 
Q 2419 3097 1959 3097 
z
M 1959 3584 
Q 2709 3584 3137 3096 
Q 3566 2609 3566 1747 
Q 3566 888 3137 398 
Q 2709 -91 1959 -91 
Q 1206 -91 779 398 
Q 353 888 353 1747 
Q 353 2609 779 3096 
Q 1206 3584 1959 3584 
z
" transform="scale(0.015625)"/>
       <path id="DejaVuSans-5b" d="M 550 4863 
L 1875 4863 
L 1875 4416 
L 1125 4416 
L 1125 -397 
L 1875 -397 
L 1875 -844 
L 550 -844 
L 550 4863 
z
" transform="scale(0.015625)"/>
       <path id="DejaVuSans-6b" d="M 581 4863 
L 1159 4863 
L 1159 1991 
L 2875 3500 
L 3609 3500 
L 1753 1863 
L 3688 0 
L 2938 0 
L 1159 1709 
L 1159 0 
L 581 0 
L 581 4863 
z
" transform="scale(0.015625)"/>
       <path id="DejaVuSans-4a" d="M 628 4666 
L 1259 4666 
L 1259 325 
Q 1259 -519 939 -900 
Q 619 -1281 -91 -1281 
L -331 -1281 
L -331 -750 
L -134 -750 
Q 284 -750 456 -515 
Q 628 -281 628 325 
L 628 4666 
z
" transform="scale(0.015625)"/>
       <path id="DejaVuSans-2f" d="M 1625 4666 
L 2156 4666 
L 531 -594 
L 0 -594 
L 1625 4666 
z
" transform="scale(0.015625)"/>
       <path id="DejaVuSans-28" d="M 1984 4856 
Q 1566 4138 1362 3434 
Q 1159 2731 1159 2009 
Q 1159 1288 1364 580 
Q 1569 -128 1984 -844 
L 1484 -844 
Q 1016 -109 783 600 
Q 550 1309 550 2009 
Q 550 2706 781 3412 
Q 1013 4119 1484 4856 
L 1984 4856 
z
" transform="scale(0.015625)"/>
       <path id="DejaVuSans-6d" d="M 3328 2828 
Q 3544 3216 3844 3400 
Q 4144 3584 4550 3584 
Q 5097 3584 5394 3201 
Q 5691 2819 5691 2113 
L 5691 0 
L 5113 0 
L 5113 2094 
Q 5113 2597 4934 2840 
Q 4756 3084 4391 3084 
Q 3944 3084 3684 2787 
Q 3425 2491 3425 1978 
L 3425 0 
L 2847 0 
L 2847 2094 
Q 2847 2600 2669 2842 
Q 2491 3084 2119 3084 
Q 1678 3084 1418 2786 
Q 1159 2488 1159 1978 
L 1159 0 
L 581 0 
L 581 3500 
L 1159 3500 
L 1159 2956 
Q 1356 3278 1631 3431 
Q 1906 3584 2284 3584 
Q 2666 3584 2933 3390 
Q 3200 3197 3328 2828 
z
" transform="scale(0.015625)"/>
       <path id="DejaVuSans-6c" d="M 603 4863 
L 1178 4863 
L 1178 0 
L 603 0 
L 603 4863 
z
" transform="scale(0.015625)"/>
       <path id="DejaVuSans-2a" d="M 3009 3897 
L 1888 3291 
L 3009 2681 
L 2828 2375 
L 1778 3009 
L 1778 1831 
L 1422 1831 
L 1422 3009 
L 372 2375 
L 191 2681 
L 1313 3291 
L 191 3897 
L 372 4206 
L 1422 3572 
L 1422 4750 
L 1778 4750 
L 1778 3572 
L 2828 4206 
L 3009 3897 
z
" transform="scale(0.015625)"/>
       <path id="DejaVuSans-41" d="M 2188 4044 
L 1331 1722 
L 3047 1722 
L 2188 4044 
z
M 1831 4666 
L 2547 4666 
L 4325 0 
L 3669 0 
L 3244 1197 
L 1141 1197 
L 716 0 
L 50 0 
L 1831 4666 
z
" transform="scale(0.015625)"/>
       <path id="DejaVuSans-29" d="M 513 4856 
L 1013 4856 
Q 1481 4119 1714 3412 
Q 1947 2706 1947 2009 
Q 1947 1309 1714 600 
Q 1481 -109 1013 -844 
L 513 -844 
Q 928 -128 1133 580 
Q 1338 1288 1338 2009 
Q 1338 2731 1133 3434 
Q 928 4138 513 4856 
z
" transform="scale(0.015625)"/>
       <path id="DejaVuSans-5d" d="M 1947 4863 
L 1947 -844 
L 622 -844 
L 622 -397 
L 1369 -397 
L 1369 4416 
L 622 4416 
L 622 4863 
L 1947 4863 
z
" transform="scale(0.015625)"/>
      </defs>
      <use xlink:href="#DejaVuSans-46"/>
      <use xlink:href="#DejaVuSans-6f" x="53.894531"/>
      <use xlink:href="#DejaVuSans-72" x="115.076172"/>
      <use xlink:href="#DejaVuSans-63" x="153.939453"/>
      <use xlink:href="#DejaVuSans-65" x="208.919922"/>
      <use xlink:href="#DejaVuSans-20" x="270.443359"/>
      <use xlink:href="#DejaVuSans-45" x="302.230469"/>
      <use xlink:href="#DejaVuSans-72" x="365.414062"/>
      <use xlink:href="#DejaVuSans-72" x="404.777344"/>
      <use xlink:href="#DejaVuSans-6f" x="443.640625"/>
      <use xlink:href="#DejaVuSans-72" x="504.822266"/>
      <use xlink:href="#DejaVuSans-73" x="545.935547"/>
      <use xlink:href="#DejaVuSans-20" x="598.035156"/>
      <use xlink:href="#DejaVuSans-5b" x="629.822266"/>
      <use xlink:href="#DejaVuSans-6b" x="668.835938"/>
      <use xlink:href="#DejaVuSans-4a" x="726.746094"/>
      <use xlink:href="#DejaVuSans-2f" x="756.238281"/>
      <use xlink:href="#DejaVuSans-28" x="789.929688"/>
      <use xlink:href="#DejaVuSans-6d" x="828.943359"/>
      <use xlink:href="#DejaVuSans-6f" x="926.355469"/>
      <use xlink:href="#DejaVuSans-6c" x="987.537109"/>
      <use xlink:href="#DejaVuSans-2a" x="1015.320312"/>
      <use xlink:href="#DejaVuSans-41" x="1065.320312"/>
      <use xlink:href="#DejaVuSans-29" x="1133.728516"/>
      <use xlink:href="#DejaVuSans-5d" x="1172.742188"/>
     </g>
    </g>
   </g>
   <g id="line2d_13">
    <path d="M 104.69 499.48 
L 696.24 23.76 
" clip-path="url(#pc86025d507)" style="fill: none; stroke-dasharray: 5.55,2.4; stroke-dashoffset: 0; stroke: #ff0000; stroke-width: 1.5"/>
   </g>
   <g id="patch_3">
    <path d="M 104.69 499.48 
L 104.69 23.76 
" style="fill: none; stroke: #000000; stroke-width: 0.8; stroke-linejoin: miter; stroke-linecap: square"/>
   </g>
   <g id="patch_4">
    <path d="M 696.24 499.48 
L 696.24 23.76 
" style="fill: none; stroke: #000000; stroke-width: 0.8; stroke-linejoin: miter; stroke-linecap: square"/>
   </g>
   <g id="patch_5">
    <path d="M 104.69 499.48 
L 696.24 499.48 
" style="fill: none; stroke: #000000; stroke-width: 0.8; stroke-linejoin: miter; stroke-linecap: square"/>
   </g>
   <g id="patch_6">
    <path d="M 104.69 23.76 
L 696.24 23.76 
" style="fill: none; stroke: #000000; stroke-width: 0.8; stroke-linejoin: miter; stroke-linecap: square"/>
   </g>
   <g id="text_15">
    <!-- Correlation in: 0.275 -->
    <g transform="translate(152.014 46.696812) scale(0.22 -0.22)">
     <defs>
      <path id="DejaVuSans-43" d="M 4122 4306 
L 4122 3641 
Q 3803 3938 3442 4084 
Q 3081 4231 2675 4231 
Q 1875 4231 1450 3742 
Q 1025 3253 1025 2328 
Q 1025 1406 1450 917 
Q 1875 428 2675 428 
Q 3081 428 3442 575 
Q 3803 722 4122 1019 
L 4122 359 
Q 3791 134 3420 21 
Q 3050 -91 2638 -91 
Q 1578 -91 968 557 
Q 359 1206 359 2328 
Q 359 3453 968 4101 
Q 1578 4750 2638 4750 
Q 3056 4750 3426 4639 
Q 3797 4528 4122 4306 
z
" transform="scale(0.015625)"/>
      <path id="DejaVuSans-3a" d="M 750 794 
L 1409 794 
L 1409 0 
L 750 0 
L 750 794 
z
M 750 3309 
L 1409 3309 
L 1409 2516 
L 750 2516 
L 750 3309 
z
" transform="scale(0.015625)"/>
     </defs>
     <use xlink:href="#DejaVuSans-43"/>
     <use xlink:href="#DejaVuSans-6f" x="69.824219"/>
     <use xlink:href="#DejaVuSans-72" x="131.005859"/>
     <use xlink:href="#DejaVuSans-72" x="170.369141"/>
     <use xlink:href="#DejaVuSans-65" x="209.232422"/>
     <use xlink:href="#DejaVuSans-6c" x="270.755859"/>
     <use xlink:href="#DejaVuSans-61" x="298.539062"/>
     <use xlink:href="#DejaVuSans-74" x="359.818359"/>
     <use xlink:href="#DejaVuSans-69" x="399.027344"/>
     <use xlink:href="#DejaVuSans-6f" x="426.810547"/>
     <use xlink:href="#DejaVuSans-6e" x="487.992188"/>
     <use xlink:href="#DejaVuSans-20" x="551.371094"/>
     <use xlink:href="#DejaVuSans-69" x="583.158203"/>
     <use xlink:href="#DejaVuSans-6e" x="610.941406"/>
     <use xlink:href="#DejaVuSans-3a" x="674.320312"/>
     <use xlink:href="#DejaVuSans-20" x="708.011719"/>
     <use xlink:href="#DejaVuSans-30" x="739.798828"/>
     <use xlink:href="#DejaVuSans-2e" x="803.421875"/>
     <use xlink:href="#DejaVuSans-32" x="835.208984"/>
     <use xlink:href="#DejaVuSans-37" x="898.832031"/>
     <use xlink:href="#DejaVuSans-35" x="962.455078"/>
    </g>
    <!-- Correlation Out: 0.827 -->
    <g transform="translate(152.014 71.332) scale(0.22 -0.22)">
     <defs>
      <path id="DejaVuSans-4f" d="M 2522 4238 
Q 1834 4238 1429 3725 
Q 1025 3213 1025 2328 
Q 1025 1447 1429 934 
Q 1834 422 2522 422 
Q 3209 422 3611 934 
Q 4013 1447 4013 2328 
Q 4013 3213 3611 3725 
Q 3209 4238 2522 4238 
z
M 2522 4750 
Q 3503 4750 4090 4092 
Q 4678 3434 4678 2328 
Q 4678 1225 4090 567 
Q 3503 -91 2522 -91 
Q 1538 -91 948 565 
Q 359 1222 359 2328 
Q 359 3434 948 4092 
Q 1538 4750 2522 4750 
z
" transform="scale(0.015625)"/>
      <path id="DejaVuSans-75" d="M 544 1381 
L 544 3500 
L 1119 3500 
L 1119 1403 
Q 1119 906 1312 657 
Q 1506 409 1894 409 
Q 2359 409 2629 706 
Q 2900 1003 2900 1516 
L 2900 3500 
L 3475 3500 
L 3475 0 
L 2900 0 
L 2900 538 
Q 2691 219 2414 64 
Q 2138 -91 1772 -91 
Q 1169 -91 856 284 
Q 544 659 544 1381 
z
M 1991 3584 
L 1991 3584 
z
" transform="scale(0.015625)"/>
      <path id="DejaVuSans-38" d="M 2034 2216 
Q 1584 2216 1326 1975 
Q 1069 1734 1069 1313 
Q 1069 891 1326 650 
Q 1584 409 2034 409 
Q 2484 409 2743 651 
Q 3003 894 3003 1313 
Q 3003 1734 2745 1975 
Q 2488 2216 2034 2216 
z
M 1403 2484 
Q 997 2584 770 2862 
Q 544 3141 544 3541 
Q 544 4100 942 4425 
Q 1341 4750 2034 4750 
Q 2731 4750 3128 4425 
Q 3525 4100 3525 3541 
Q 3525 3141 3298 2862 
Q 3072 2584 2669 2484 
Q 3125 2378 3379 2068 
Q 3634 1759 3634 1313 
Q 3634 634 3220 271 
Q 2806 -91 2034 -91 
Q 1263 -91 848 271 
Q 434 634 434 1313 
Q 434 1759 690 2068 
Q 947 2378 1403 2484 
z
M 1172 3481 
Q 1172 3119 1398 2916 
Q 1625 2713 2034 2713 
Q 2441 2713 2670 2916 
Q 2900 3119 2900 3481 
Q 2900 3844 2670 4047 
Q 2441 4250 2034 4250 
Q 1625 4250 1398 4047 
Q 1172 3844 1172 3481 
z
" transform="scale(0.015625)"/>
     </defs>
     <use xlink:href="#DejaVuSans-43"/>
     <use xlink:href="#DejaVuSans-6f" x="69.824219"/>
     <use xlink:href="#DejaVuSans-72" x="131.005859"/>
     <use xlink:href="#DejaVuSans-72" x="170.369141"/>
     <use xlink:href="#DejaVuSans-65" x="209.232422"/>
     <use xlink:href="#DejaVuSans-6c" x="270.755859"/>
     <use xlink:href="#DejaVuSans-61" x="298.539062"/>
     <use xlink:href="#DejaVuSans-74" x="359.818359"/>
     <use xlink:href="#DejaVuSans-69" x="399.027344"/>
     <use xlink:href="#DejaVuSans-6f" x="426.810547"/>
     <use xlink:href="#DejaVuSans-6e" x="487.992188"/>
     <use xlink:href="#DejaVuSans-20" x="551.371094"/>
     <use xlink:href="#DejaVuSans-4f" x="583.158203"/>
     <use xlink:href="#DejaVuSans-75" x="661.869141"/>
     <use xlink:href="#DejaVuSans-74" x="725.248047"/>
     <use xlink:href="#DejaVuSans-3a" x="764.457031"/>
     <use xlink:href="#DejaVuSans-20" x="798.148438"/>
     <use xlink:href="#DejaVuSans-30" x="829.935547"/>
     <use xlink:href="#DejaVuSans-2e" x="893.558594"/>
     <use xlink:href="#DejaVuSans-38" x="925.345703"/>
     <use xlink:href="#DejaVuSans-32" x="988.96875"/>
     <use xlink:href="#DejaVuSans-37" x="1052.591797"/>
    </g>
   </g>
   <g id="legend_1">
    <g id="patch_7">
     <path d="M 407.0225 105.94375 
L 680.84 105.94375 
Q 685.24 105.94375 685.24 101.54375 
L 685.24 39.16 
Q 685.24 34.76 680.84 34.76 
L 407.0225 34.76 
Q 402.6225 34.76 402.6225 39.16 
L 402.6225 101.54375 
Q 402.6225 105.94375 407.0225 105.94375 
z
" style="fill: #ffffff; opacity: 0.8; stroke: #cccccc; stroke-linejoin: miter"/>
    </g>
    <g id="line2d_14">
     <defs>
      <path id="mc005c580f5" d="M 0 2.5 
C 0.663008 2.5 1.29895 2.236584 1.767767 1.767767 
C 2.236584 1.29895 2.5 0.663008 2.5 0 
C 2.5 -0.663008 2.236584 -1.29895 1.767767 -1.767767 
C 1.29895 -2.236584 0.663008 -2.5 0 -2.5 
C -0.663008 -2.5 -1.29895 -2.236584 -1.767767 -1.767767 
C -2.236584 -1.29895 -2.5 -0.663008 -2.5 0 
C -2.5 0.663008 -2.236584 1.29895 -1.767767 1.767767 
C -1.29895 2.236584 -0.663008 2.5 0 2.5 
z
" style="stroke: #ffffff"/>
     </defs>
     <g>
      <use xlink:href="#mc005c580f5" x="433.4225" y="52.576562" style="fill: #0000ff; stroke: #ffffff"/>
     </g>
    </g>
    <g id="text_16">
     <!-- In Distribution -->
     <g transform="translate(473.0225 60.276562) scale(0.22 -0.22)">
      <defs>
       <path id="DejaVuSans-49" d="M 628 4666 
L 1259 4666 
L 1259 0 
L 628 0 
L 628 4666 
z
" transform="scale(0.015625)"/>
       <path id="DejaVuSans-44" d="M 1259 4147 
L 1259 519 
L 2022 519 
Q 2988 519 3436 956 
Q 3884 1394 3884 2338 
Q 3884 3275 3436 3711 
Q 2988 4147 2022 4147 
L 1259 4147 
z
M 628 4666 
L 1925 4666 
Q 3281 4666 3915 4102 
Q 4550 3538 4550 2338 
Q 4550 1131 3912 565 
Q 3275 0 1925 0 
L 628 0 
L 628 4666 
z
" transform="scale(0.015625)"/>
       <path id="DejaVuSans-62" d="M 3116 1747 
Q 3116 2381 2855 2742 
Q 2594 3103 2138 3103 
Q 1681 3103 1420 2742 
Q 1159 2381 1159 1747 
Q 1159 1113 1420 752 
Q 1681 391 2138 391 
Q 2594 391 2855 752 
Q 3116 1113 3116 1747 
z
M 1159 2969 
Q 1341 3281 1617 3432 
Q 1894 3584 2278 3584 
Q 2916 3584 3314 3078 
Q 3713 2572 3713 1747 
Q 3713 922 3314 415 
Q 2916 -91 2278 -91 
Q 1894 -91 1617 61 
Q 1341 213 1159 525 
L 1159 0 
L 581 0 
L 581 4863 
L 1159 4863 
L 1159 2969 
z
" transform="scale(0.015625)"/>
      </defs>
      <use xlink:href="#DejaVuSans-49"/>
      <use xlink:href="#DejaVuSans-6e" x="29.492188"/>
      <use xlink:href="#DejaVuSans-20" x="92.871094"/>
      <use xlink:href="#DejaVuSans-44" x="124.658203"/>
      <use xlink:href="#DejaVuSans-69" x="201.660156"/>
      <use xlink:href="#DejaVuSans-73" x="229.443359"/>
      <use xlink:href="#DejaVuSans-74" x="281.542969"/>
      <use xlink:href="#DejaVuSans-72" x="320.751953"/>
      <use xlink:href="#DejaVuSans-69" x="361.865234"/>
      <use xlink:href="#DejaVuSans-62" x="389.648438"/>
      <use xlink:href="#DejaVuSans-75" x="453.125"/>
      <use xlink:href="#DejaVuSans-74" x="516.503906"/>
      <use xlink:href="#DejaVuSans-69" x="555.712891"/>
      <use xlink:href="#DejaVuSans-6f" x="583.496094"/>
      <use xlink:href="#DejaVuSans-6e" x="644.677734"/>
     </g>
    </g>
    <g id="line2d_15">
     <defs>
      <path id="m09290569c9" d="M 0 2.5 
C 0.663008 2.5 1.29895 2.236584 1.767767 1.767767 
C 2.236584 1.29895 2.5 0.663008 2.5 0 
C 2.5 -0.663008 2.236584 -1.29895 1.767767 -1.767767 
C 1.29895 -2.236584 0.663008 -2.5 0 -2.5 
C -0.663008 -2.5 -1.29895 -2.236584 -1.767767 -1.767767 
C -2.236584 -1.29895 -2.5 -0.663008 -2.5 0 
C -2.5 0.663008 -2.236584 1.29895 -1.767767 1.767767 
C -1.29895 2.236584 -0.663008 2.5 0 2.5 
z
" style="stroke: #ffffff"/>
     </defs>
     <g>
      <use xlink:href="#m09290569c9" x="433.4225" y="84.868437" style="fill: #008000; stroke: #ffffff"/>
     </g>
    </g>
    <g id="text_17">
     <!-- Out of Distribution -->
     <g transform="translate(473.0225 92.568437) scale(0.22 -0.22)">
      <defs>
       <path id="DejaVuSans-66" d="M 2375 4863 
L 2375 4384 
L 1825 4384 
Q 1516 4384 1395 4259 
Q 1275 4134 1275 3809 
L 1275 3500 
L 2222 3500 
L 2222 3053 
L 1275 3053 
L 1275 0 
L 697 0 
L 697 3053 
L 147 3053 
L 147 3500 
L 697 3500 
L 697 3744 
Q 697 4328 969 4595 
Q 1241 4863 1831 4863 
L 2375 4863 
z
" transform="scale(0.015625)"/>
      </defs>
      <use xlink:href="#DejaVuSans-4f"/>
      <use xlink:href="#DejaVuSans-75" x="78.710938"/>
      <use xlink:href="#DejaVuSans-74" x="142.089844"/>
      <use xlink:href="#DejaVuSans-20" x="181.298828"/>
      <use xlink:href="#DejaVuSans-6f" x="213.085938"/>
      <use xlink:href="#DejaVuSans-66" x="274.267578"/>
      <use xlink:href="#DejaVuSans-20" x="309.472656"/>
      <use xlink:href="#DejaVuSans-44" x="341.259766"/>
      <use xlink:href="#DejaVuSans-69" x="418.261719"/>
      <use xlink:href="#DejaVuSans-73" x="446.044922"/>
      <use xlink:href="#DejaVuSans-74" x="498.144531"/>
      <use xlink:href="#DejaVuSans-72" x="537.353516"/>
      <use xlink:href="#DejaVuSans-69" x="578.466797"/>
      <use xlink:href="#DejaVuSans-62" x="606.25"/>
      <use xlink:href="#DejaVuSans-75" x="669.726562"/>
      <use xlink:href="#DejaVuSans-74" x="733.105469"/>
      <use xlink:href="#DejaVuSans-69" x="772.314453"/>
      <use xlink:href="#DejaVuSans-6f" x="800.097656"/>
      <use xlink:href="#DejaVuSans-6e" x="861.279297"/>
     </g>
    </g>
   </g>
  </g>
 </g>
 <defs>
  <clipPath id="pc86025d507">
   <rect x="104.69" y="23.76" width="591.55" height="475.72"/>
  </clipPath>
 </defs>
</svg>
