<?xml version="1.0" encoding="utf-8" standalone="no"?>
<!DOCTYPE svg PUBLIC "-//W3C//DTD SVG 1.1//EN"
  "http://www.w3.org/Graphics/SVG/1.1/DTD/svg11.dtd">
<svg xmlns:xlink="http://www.w3.org/1999/xlink" width="720pt" height="576pt" viewBox="0 0 720 576" xmlns="http://www.w3.org/2000/svg" version="1.1">
 <metadata>
  <rdf:RDF xmlns:dc="http://purl.org/dc/elements/1.1/" xmlns:cc="http://creativecommons.org/ns#" xmlns:rdf="http://www.w3.org/1999/02/22-rdf-syntax-ns#">
   <cc:Work>
    <dc:type rdf:resource="http://purl.org/dc/dcmitype/StillImage"/>
    <dc:date>2024-12-05T19:08:14.000836</dc:date>
    <dc:format>image/svg+xml</dc:format>
    <dc:creator>
     <cc:Agent>
      <dc:title>Matplotlib v3.8.4, https://matplotlib.org/</dc:title>
     </cc:Agent>
    </dc:creator>
   </cc:Work>
  </rdf:RDF>
 </metadata>
 <defs>
  <style type="text/css">*{stroke-linejoin: round; stroke-linecap: butt}</style>
 </defs>
 <g id="figure_1">
  <g id="patch_1">
   <path d="M 0 576 
L 720 576 
L 720 0 
L 0 0 
z
" style="fill: #ffffff"/>
  </g>
  <g id="axes_1">
   <g id="patch_2">
    <path d="M 44.66 534.04 
L 709.2 534.04 
L 709.2 25.44 
L 44.66 25.44 
z
" style="fill: #ffffff"/>
   </g>
   <g id="QuadContourSet_1">
    <path d="M 86.551846 535.230601 
L 87.556825 535.254311 
L 88.561804 534.348526 
L 88.76103 534.069052 
L 89.566783 532.817115 
L 89.677723 532.601593 
L 90.333581 531.134134 
L 90.571762 530.362738 
L 90.84067 529.666675 
L 91.270332 528.199216 
L 91.535354 526.731757 
L 91.576741 526.440195 
L 91.879043 525.264298 
L 92.143359 523.796839 
L 92.330611 522.32938 
L 92.477523 520.861921 
L 92.58172 519.704453 
L 92.645789 519.394461 
L 92.955837 517.927002 
L 93.207713 516.459543 
L 93.405043 514.992084 
L 93.55723 513.524625 
L 93.586699 513.202648 
L 93.818639 512.057166 
L 94.045853 510.589707 
L 94.215228 509.122248 
L 94.341797 507.654789 
L 94.434316 506.18733 
L 94.500121 504.719871 
L 94.547547 503.252412 
L 94.585887 501.784952 
L 94.591678 501.56646 
L 94.666401 500.317493 
L 94.760194 498.850034 
L 94.857817 497.382575 
L 94.949282 495.915116 
L 95.020845 494.447657 
L 95.058699 492.980198 
L 95.051887 491.512739 
L 94.998012 490.04528 
L 94.912931 488.577821 
L 94.833391 487.110362 
L 94.796293 485.642903 
L 94.810434 484.175443 
L 94.856205 482.707984 
L 94.90555 481.240525 
L 94.933781 479.773066 
L 94.918455 478.305607 
L 94.832598 476.838148 
L 94.635782 475.370689 
L 94.591678 475.153462 
L 94.390704 473.90323 
L 94.070054 472.435771 
L 93.661058 470.968312 
L 93.586699 470.710411 
L 93.366226 469.500853 
L 93.101036 468.033394 
L 92.837934 466.565934 
L 92.58172 465.143244 
L 92.575486 465.098475 
L 92.375119 463.631016 
L 92.102891 462.163557 
L 91.703406 460.696098 
L 91.576741 460.309335 
L 91.340894 459.228639 
L 90.979212 457.76118 
L 90.571762 456.355753 
L 90.530467 456.293721 
L 89.566783 455.099983 
L 88.561804 455.050044 
L 87.556825 454.909754 
L 86.829546 456.293721 
L 86.551846 456.989257 
L 86.250771 457.76118 
L 85.546867 459.228639 
L 85.546867 459.228639 
L 85.040983 460.696098 
L 84.594669 462.163557 
L 84.541888 462.379742 
L 84.390234 463.631016 
L 84.252946 465.098475 
L 84.142882 466.565934 
L 84.044142 468.033394 
L 83.941319 469.500853 
L 83.827962 470.968312 
L 83.716556 472.435771 
L 83.624974 473.90323 
L 83.553233 475.370689 
L 83.536909 475.680042 
L 83.45552 476.838148 
L 83.325485 478.305607 
L 83.175112 479.773066 
L 83.017612 481.240525 
L 82.868889 482.707984 
L 82.740231 484.175443 
L 82.635315 485.642903 
L 82.552026 487.110362 
L 82.53193 487.523543 
L 82.425184 488.577821 
L 82.301758 490.04528 
L 82.199246 491.512739 
L 82.1102 492.980198 
L 82.029371 494.447657 
L 81.954296 495.915116 
L 81.885354 497.382575 
L 81.824765 498.850034 
L 81.775247 500.317493 
L 81.739463 501.784952 
L 81.720082 503.252412 
L 81.719503 504.719871 
L 81.738619 506.18733 
L 81.775098 507.654789 
L 81.822958 509.122248 
L 81.87492 510.589707 
L 81.926139 512.057166 
L 81.976096 513.524625 
L 82.027873 514.992084 
L 82.086916 516.459543 
L 82.161051 517.927002 
L 82.261718 519.394461 
L 82.405702 520.861921 
L 82.53193 521.790077 
L 82.568125 522.32938 
L 82.69979 523.796839 
L 82.887419 525.264298 
L 83.149873 526.731757 
L 83.518958 528.199216 
L 83.536909 528.264512 
L 83.804729 529.666675 
L 84.243311 531.134134 
L 84.541888 531.876426 
L 84.807478 532.601593 
L 85.546867 534.00715 
L 85.596588 534.069052 
z
M 86.267216 529.666675 
L 85.546867 528.212145 
L 85.541996 528.199216 
L 85.05258 526.731757 
L 84.71923 525.264298 
L 84.541888 524.234292 
L 84.438203 523.796839 
L 84.145628 522.32938 
L 83.936699 520.861921 
L 83.790968 519.394461 
L 83.691686 517.927002 
L 83.624289 516.459543 
L 83.576701 514.992084 
L 83.539889 513.524625 
L 83.536909 513.392595 
L 83.468829 512.057166 
L 83.400563 510.589707 
L 83.338715 509.122248 
L 83.28519 507.654789 
L 83.24417 506.18733 
L 83.222194 504.719871 
L 83.226825 503.252412 
L 83.264045 501.784952 
L 83.336079 500.317493 
L 83.440513 498.850034 
L 83.536909 497.736995 
L 83.55531 497.382575 
L 83.63557 495.915116 
L 83.718115 494.447657 
L 83.801026 492.980198 
L 83.889382 491.512739 
L 83.994221 490.04528 
L 84.129367 488.577821 
L 84.308281 487.110362 
L 84.541888 485.642903 
L 84.541888 485.642903 
L 84.77101 484.175443 
L 85.035673 482.707984 
L 85.327839 481.240525 
L 85.546867 480.202859 
L 85.638775 479.773066 
L 85.957781 478.305607 
L 86.314598 476.838148 
L 86.551846 475.944741 
L 86.755678 475.370689 
L 87.279484 473.90323 
L 87.556825 473.111725 
L 88.050327 472.435771 
L 88.561804 471.611142 
L 89.566783 472.30769 
L 89.617591 472.435771 
L 90.222329 473.90323 
L 90.571762 474.829358 
L 90.707354 475.370689 
L 91.035064 476.838148 
L 91.300702 478.305607 
L 91.518498 479.773066 
L 91.576741 480.205513 
L 91.744319 481.240525 
L 91.962477 482.707984 
L 92.157917 484.175443 
L 92.32917 485.642903 
L 92.475145 487.110362 
L 92.58172 488.371473 
L 92.603283 488.577821 
L 92.747171 490.04528 
L 92.864807 491.512739 
L 92.949883 492.980198 
L 92.999965 494.447657 
L 93.019047 495.915116 
L 93.015551 497.382575 
L 92.998166 498.850034 
L 92.972183 500.317493 
L 92.937652 501.784952 
L 92.88957 503.252412 
L 92.819486 504.719871 
L 92.717337 506.18733 
L 92.58172 507.567396 
L 92.576733 507.654789 
L 92.473819 509.122248 
L 92.345863 510.589707 
L 92.189124 512.057166 
L 91.998848 513.524625 
L 91.768587 514.992084 
L 91.576741 516.042553 
L 91.533971 516.459543 
L 91.374588 517.927002 
L 91.186849 519.394461 
L 90.956013 520.861921 
L 90.6575 522.32938 
L 90.571762 522.699577 
L 90.401434 523.796839 
L 90.099561 525.264298 
L 89.654925 526.731757 
L 89.566783 526.981509 
L 89.115705 528.199216 
L 88.561804 529.307976 
L 88.224001 529.666675 
L 87.556825 530.392318 
L 86.551846 530.127257 
z
" clip-path="url(#pea9571446a)" style="fill: #e6e6f3"/>
    <path d="M 86.551846 530.127257 
L 87.556825 530.392318 
L 88.224001 529.666675 
L 88.561804 529.307976 
L 89.115705 528.199216 
L 89.566783 526.981509 
L 89.654925 526.731757 
L 90.099561 525.264298 
L 90.401434 523.796839 
L 90.571762 522.699577 
L 90.6575 522.32938 
L 90.956013 520.861921 
L 91.186849 519.394461 
L 91.374588 517.927002 
L 91.533971 516.459543 
L 91.576741 516.042553 
L 91.768587 514.992084 
L 91.998848 513.524625 
L 92.189124 512.057166 
L 92.345863 510.589707 
L 92.473819 509.122248 
L 92.576733 507.654789 
L 92.58172 507.567396 
L 92.717337 506.18733 
L 92.819486 504.719871 
L 92.88957 503.252412 
L 92.937652 501.784952 
L 92.972183 500.317493 
L 92.998166 498.850034 
L 93.015551 497.382575 
L 93.019047 495.915116 
L 92.999965 494.447657 
L 92.949883 492.980198 
L 92.864807 491.512739 
L 92.747171 490.04528 
L 92.603283 488.577821 
L 92.58172 488.371473 
L 92.475145 487.110362 
L 92.32917 485.642903 
L 92.157917 484.175443 
L 91.962477 482.707984 
L 91.744319 481.240525 
L 91.576741 480.205513 
L 91.518498 479.773066 
L 91.300702 478.305607 
L 91.035064 476.838148 
L 90.707354 475.370689 
L 90.571762 474.829358 
L 90.222329 473.90323 
L 89.617591 472.435771 
L 89.566783 472.30769 
L 88.561804 471.611142 
L 88.050327 472.435771 
L 87.556825 473.111725 
L 87.279484 473.90323 
L 86.755678 475.370689 
L 86.551846 475.944741 
L 86.314598 476.838148 
L 85.957781 478.305607 
L 85.638775 479.773066 
L 85.546867 480.202859 
L 85.327839 481.240525 
L 85.035673 482.707984 
L 84.77101 484.175443 
L 84.541888 485.642903 
L 84.541888 485.642903 
L 84.308281 487.110362 
L 84.129367 488.577821 
L 83.994221 490.04528 
L 83.889382 491.512739 
L 83.801026 492.980198 
L 83.718115 494.447657 
L 83.63557 495.915116 
L 83.55531 497.382575 
L 83.536909 497.736995 
L 83.440513 498.850034 
L 83.336079 500.317493 
L 83.264045 501.784952 
L 83.226825 503.252412 
L 83.222194 504.719871 
L 83.24417 506.18733 
L 83.28519 507.654789 
L 83.338715 509.122248 
L 83.400563 510.589707 
L 83.468829 512.057166 
L 83.536909 513.392595 
L 83.539889 513.524625 
L 83.576701 514.992084 
L 83.624289 516.459543 
L 83.691686 517.927002 
L 83.790968 519.394461 
L 83.936699 520.861921 
L 84.145628 522.32938 
L 84.438203 523.796839 
L 84.541888 524.234292 
L 84.71923 525.264298 
L 85.05258 526.731757 
L 85.541996 528.199216 
L 85.546867 528.212145 
L 86.267216 529.666675 
z
M 86.354396 526.731757 
L 85.770281 525.264298 
L 85.546867 524.545183 
L 85.347095 523.796839 
L 85.027661 522.32938 
L 84.788788 520.861921 
L 84.610762 519.394461 
L 84.541888 518.663307 
L 84.443862 517.927002 
L 84.296009 516.459543 
L 84.191683 514.992084 
L 84.116474 513.524625 
L 84.060096 512.057166 
L 84.016357 510.589707 
L 83.982653 509.122248 
L 83.959098 507.654789 
L 83.947795 506.18733 
L 83.952532 504.719871 
L 83.97853 503.252412 
L 84.03141 501.784952 
L 84.115125 500.317493 
L 84.229611 498.850034 
L 84.369466 497.382575 
L 84.524957 495.915116 
L 84.541888 495.748996 
L 84.643554 494.447657 
L 84.766657 492.980198 
L 84.905874 491.512739 
L 85.073968 490.04528 
L 85.286621 488.577821 
L 85.546867 487.16063 
L 85.556782 487.110362 
L 85.875017 485.642903 
L 86.242763 484.175443 
L 86.551846 483.031692 
L 86.683481 482.707984 
L 87.258307 481.240525 
L 87.556825 480.473949 
L 88.561804 479.773066 
L 89.566783 480.763257 
L 89.716185 481.240525 
L 90.147926 482.707984 
L 90.522196 484.175443 
L 90.571762 484.370949 
L 90.832218 485.642903 
L 91.100267 487.110362 
L 91.320368 488.577821 
L 91.492102 490.04528 
L 91.576741 490.967931 
L 91.641914 491.512739 
L 91.781457 492.980198 
L 91.881147 494.447657 
L 91.948117 495.915116 
L 91.990148 497.382575 
L 92.014319 498.850034 
L 92.024945 500.317493 
L 92.022246 501.784952 
L 92.002569 503.252412 
L 91.959873 504.719871 
L 91.887467 506.18733 
L 91.779052 507.654789 
L 91.6289 509.122248 
L 91.576741 509.532847 
L 91.492321 510.589707 
L 91.357189 512.057166 
L 91.201842 513.524625 
L 91.022339 514.992084 
L 90.811467 516.459543 
L 90.571762 517.853528 
L 90.563514 517.927002 
L 90.38541 519.394461 
L 90.163988 520.861921 
L 89.87538 522.32938 
L 89.566783 523.527357 
L 89.495075 523.796839 
L 89.045033 525.264298 
L 88.561804 526.444854 
L 88.319688 526.731757 
L 87.556825 527.62959 
L 86.551846 527.14066 
z
" clip-path="url(#pea9571446a)" style="fill: #d0d0f4"/>
    <path d="M 86.551846 527.14066 
L 87.556825 527.62959 
L 88.319688 526.731757 
L 88.561804 526.444854 
L 89.045033 525.264298 
L 89.495075 523.796839 
L 89.566783 523.527357 
L 89.87538 522.32938 
L 90.163988 520.861921 
L 90.38541 519.394461 
L 90.563514 517.927002 
L 90.571762 517.853528 
L 90.811467 516.459543 
L 91.022339 514.992084 
L 91.201842 513.524625 
L 91.357189 512.057166 
L 91.492321 510.589707 
L 91.576741 509.532847 
L 91.6289 509.122248 
L 91.779052 507.654789 
L 91.887467 506.18733 
L 91.959873 504.719871 
L 92.002569 503.252412 
L 92.022246 501.784952 
L 92.024945 500.317493 
L 92.014319 498.850034 
L 91.990148 497.382575 
L 91.948117 495.915116 
L 91.881147 494.447657 
L 91.781457 492.980198 
L 91.641914 491.512739 
L 91.576741 490.967931 
L 91.492102 490.04528 
L 91.320368 488.577821 
L 91.100267 487.110362 
L 90.832218 485.642903 
L 90.571762 484.370949 
L 90.522196 484.175443 
L 90.147926 482.707984 
L 89.716185 481.240525 
L 89.566783 480.763257 
L 88.561804 479.773066 
L 87.556825 480.473949 
L 87.258307 481.240525 
L 86.683481 482.707984 
L 86.551846 483.031692 
L 86.242763 484.175443 
L 85.875017 485.642903 
L 85.556782 487.110362 
L 85.546867 487.16063 
L 85.286621 488.577821 
L 85.073968 490.04528 
L 84.905874 491.512739 
L 84.766657 492.980198 
L 84.643554 494.447657 
L 84.541888 495.748996 
L 84.524957 495.915116 
L 84.369466 497.382575 
L 84.229611 498.850034 
L 84.115125 500.317493 
L 84.03141 501.784952 
L 83.97853 503.252412 
L 83.952532 504.719871 
L 83.947795 506.18733 
L 83.959098 507.654789 
L 83.982653 509.122248 
L 84.016357 510.589707 
L 84.060096 512.057166 
L 84.116474 513.524625 
L 84.191683 514.992084 
L 84.296009 516.459543 
L 84.443862 517.927002 
L 84.541888 518.663307 
L 84.610762 519.394461 
L 84.788788 520.861921 
L 85.027661 522.32938 
L 85.347095 523.796839 
L 85.546867 524.545183 
L 85.770281 525.264298 
L 86.354396 526.731757 
z
M 87.288835 525.264298 
L 86.551846 524.730101 
L 86.19859 523.796839 
L 85.757337 522.32938 
L 85.546867 521.46541 
L 85.416796 520.861921 
L 85.153525 519.394461 
L 84.957184 517.927002 
L 84.814106 516.459543 
L 84.712364 514.992084 
L 84.641067 513.524625 
L 84.591066 512.057166 
L 84.5559 510.589707 
L 84.541888 509.723108 
L 84.52597 509.122248 
L 84.50535 507.654789 
L 84.505648 506.18733 
L 84.531202 504.719871 
L 84.541888 504.430222 
L 84.570332 503.252412 
L 84.629143 501.784952 
L 84.715762 500.317493 
L 84.832415 498.850034 
L 84.978122 497.382575 
L 85.148639 495.915116 
L 85.338784 494.447657 
L 85.546867 492.980198 
L 85.546867 492.980198 
L 85.760984 491.512739 
L 86.020099 490.04528 
L 86.340232 488.577821 
L 86.551846 487.736708 
L 86.802174 487.110362 
L 87.44628 485.642903 
L 87.556825 485.393798 
L 88.561804 484.859368 
L 89.273675 485.642903 
L 89.566783 485.959341 
L 89.926534 487.110362 
L 90.310924 488.577821 
L 90.571762 489.85281 
L 90.605614 490.04528 
L 90.821669 491.512739 
L 90.980341 492.980198 
L 91.095781 494.447657 
L 91.179896 495.915116 
L 91.241716 497.382575 
L 91.287211 498.850034 
L 91.319063 500.317493 
L 91.336661 501.784952 
L 91.336728 503.252412 
L 91.314717 504.719871 
L 91.266561 506.18733 
L 91.189976 507.654789 
L 91.084533 509.122248 
L 90.950501 510.589707 
L 90.78722 512.057166 
L 90.591753 513.524625 
L 90.571762 513.660196 
L 90.441517 514.992084 
L 90.277555 516.459543 
L 90.08252 517.927002 
L 89.841487 519.394461 
L 89.566783 520.717176 
L 89.535347 520.861921 
L 89.17761 522.32938 
L 88.712618 523.796839 
L 88.561804 524.204771 
L 87.70608 525.264298 
L 87.556825 525.446068 
z
" clip-path="url(#pea9571446a)" style="fill: #babaf6"/>
    <path d="M 87.556825 525.446068 
L 87.70608 525.264298 
L 88.561804 524.204771 
L 88.712618 523.796839 
L 89.17761 522.32938 
L 89.535347 520.861921 
L 89.566783 520.717176 
L 89.841487 519.394461 
L 90.08252 517.927002 
L 90.277555 516.459543 
L 90.441517 514.992084 
L 90.571762 513.660196 
L 90.591753 513.524625 
L 90.78722 512.057166 
L 90.950501 510.589707 
L 91.084533 509.122248 
L 91.189976 507.654789 
L 91.266561 506.18733 
L 91.314717 504.719871 
L 91.336728 503.252412 
L 91.336661 501.784952 
L 91.319063 500.317493 
L 91.287211 498.850034 
L 91.241716 497.382575 
L 91.179896 495.915116 
L 91.095781 494.447657 
L 90.980341 492.980198 
L 90.821669 491.512739 
L 90.605614 490.04528 
L 90.571762 489.85281 
L 90.310924 488.577821 
L 89.926534 487.110362 
L 89.566783 485.959341 
L 89.273675 485.642903 
L 88.561804 484.859368 
L 87.556825 485.393798 
L 87.44628 485.642903 
L 86.802174 487.110362 
L 86.551846 487.736708 
L 86.340232 488.577821 
L 86.020099 490.04528 
L 85.760984 491.512739 
L 85.546867 492.980198 
L 85.546867 492.980198 
L 85.338784 494.447657 
L 85.148639 495.915116 
L 84.978122 497.382575 
L 84.832415 498.850034 
L 84.715762 500.317493 
L 84.629143 501.784952 
L 84.570332 503.252412 
L 84.541888 504.430222 
L 84.531202 504.719871 
L 84.505648 506.18733 
L 84.50535 507.654789 
L 84.52597 509.122248 
L 84.541888 509.723108 
L 84.5559 510.589707 
L 84.591066 512.057166 
L 84.641067 513.524625 
L 84.712364 514.992084 
L 84.814106 516.459543 
L 84.957184 517.927002 
L 85.153525 519.394461 
L 85.416796 520.861921 
L 85.546867 521.46541 
L 85.757337 522.32938 
L 86.19859 523.796839 
L 86.551846 524.730101 
L 87.288835 525.264298 
z
M 86.703292 522.32938 
L 86.551846 522.164871 
L 86.155848 520.861921 
L 85.803808 519.394461 
L 85.546867 518.034274 
L 85.528985 517.927002 
L 85.324046 516.459543 
L 85.175947 514.992084 
L 85.071783 513.524625 
L 85.000568 512.057166 
L 84.954096 510.589707 
L 84.92751 509.122248 
L 84.919239 507.654789 
L 84.930419 506.18733 
L 84.964203 504.719871 
L 85.02522 503.252412 
L 85.119007 501.784952 
L 85.250929 500.317493 
L 85.424435 498.850034 
L 85.546867 497.974464 
L 85.630103 497.382575 
L 85.854407 495.915116 
L 86.107588 494.447657 
L 86.39497 492.980198 
L 86.551846 492.241481 
L 86.79632 491.512739 
L 87.341861 490.04528 
L 87.556825 489.523509 
L 88.561804 488.837935 
L 89.472051 490.04528 
L 89.566783 490.194676 
L 89.869938 491.512739 
L 90.117818 492.980198 
L 90.293175 494.447657 
L 90.417283 495.915116 
L 90.507174 497.382575 
L 90.571762 498.800853 
L 90.574333 498.850034 
L 90.637407 500.317493 
L 90.681247 501.784952 
L 90.701361 503.252412 
L 90.69254 504.719871 
L 90.650313 506.18733 
L 90.571762 507.654789 
L 90.571762 507.654789 
L 90.491382 509.122248 
L 90.389134 510.589707 
L 90.2668 512.057166 
L 90.123744 513.524625 
L 89.955637 514.992084 
L 89.753877 516.459543 
L 89.566783 517.588434 
L 89.507487 517.927002 
L 89.214681 519.394461 
L 88.852259 520.861921 
L 88.561804 521.830235 
L 88.195954 522.32938 
L 87.556825 523.164779 
z
" clip-path="url(#pea9571446a)" style="fill: #9f9ff7"/>
    <path d="M 87.556825 523.164779 
L 88.195954 522.32938 
L 88.561804 521.830235 
L 88.852259 520.861921 
L 89.214681 519.394461 
L 89.507487 517.927002 
L 89.566783 517.588434 
L 89.753877 516.459543 
L 89.955637 514.992084 
L 90.123744 513.524625 
L 90.2668 512.057166 
L 90.389134 510.589707 
L 90.491382 509.122248 
L 90.571762 507.654789 
L 90.571762 507.654789 
L 90.650313 506.18733 
L 90.69254 504.719871 
L 90.701361 503.252412 
L 90.681247 501.784952 
L 90.637407 500.317493 
L 90.574333 498.850034 
L 90.571762 498.800853 
L 90.507174 497.382575 
L 90.417283 495.915116 
L 90.293175 494.447657 
L 90.117818 492.980198 
L 89.869938 491.512739 
L 89.566783 490.194676 
L 89.472051 490.04528 
L 88.561804 488.837935 
L 87.556825 489.523509 
L 87.341861 490.04528 
L 86.79632 491.512739 
L 86.551846 492.241481 
L 86.39497 492.980198 
L 86.107588 494.447657 
L 85.854407 495.915116 
L 85.630103 497.382575 
L 85.546867 497.974464 
L 85.424435 498.850034 
L 85.250929 500.317493 
L 85.119007 501.784952 
L 85.02522 503.252412 
L 84.964203 504.719871 
L 84.930419 506.18733 
L 84.919239 507.654789 
L 84.92751 509.122248 
L 84.954096 510.589707 
L 85.000568 512.057166 
L 85.071783 513.524625 
L 85.175947 514.992084 
L 85.324046 516.459543 
L 85.528985 517.927002 
L 85.546867 518.034274 
L 85.803808 519.394461 
L 86.155848 520.861921 
L 86.551846 522.164871 
L 86.703292 522.32938 
z
M 87.554932 520.861921 
L 86.551846 519.58497 
L 86.500001 519.394461 
L 86.151977 517.927002 
L 85.882654 516.459543 
L 85.679789 514.992084 
L 85.546867 513.663094 
L 85.534557 513.524625 
L 85.44055 512.057166 
L 85.38193 510.589707 
L 85.352196 509.122248 
L 85.34859 507.654789 
L 85.371743 506.18733 
L 85.425037 504.719871 
L 85.513966 503.252412 
L 85.546867 502.864093 
L 85.63977 501.784952 
L 85.805967 500.317493 
L 86.016001 498.850034 
L 86.269809 497.382575 
L 86.551846 495.982813 
L 86.574691 495.915116 
L 87.070259 494.447657 
L 87.556825 493.118769 
L 87.786403 492.980198 
L 88.561804 492.459703 
L 88.836933 492.980198 
L 89.410282 494.447657 
L 89.566783 495.031903 
L 89.683612 495.915116 
L 89.839862 497.382575 
L 89.962566 498.850034 
L 90.057186 500.317493 
L 90.124682 501.784952 
L 90.164047 503.252412 
L 90.173915 504.719871 
L 90.153494 506.18733 
L 90.103183 507.654789 
L 90.024606 509.122248 
L 89.919624 510.589707 
L 89.78862 512.057166 
L 89.628877 513.524625 
L 89.566783 514.008409 
L 89.432768 514.992084 
L 89.197465 516.459543 
L 88.912895 517.927002 
L 88.561804 519.394461 
L 88.561804 519.394461 
L 87.55839 520.861921 
L 87.556825 520.864066 
z
" clip-path="url(#pea9571446a)" style="fill: #8282f8"/>
    <path d="M 87.556825 520.864066 
L 87.55839 520.861921 
L 88.561804 519.394461 
L 88.561804 519.394461 
L 88.912895 517.927002 
L 89.197465 516.459543 
L 89.432768 514.992084 
L 89.566783 514.008409 
L 89.628877 513.524625 
L 89.78862 512.057166 
L 89.919624 510.589707 
L 90.024606 509.122248 
L 90.103183 507.654789 
L 90.153494 506.18733 
L 90.173915 504.719871 
L 90.164047 503.252412 
L 90.124682 501.784952 
L 90.057186 500.317493 
L 89.962566 498.850034 
L 89.839862 497.382575 
L 89.683612 495.915116 
L 89.566783 495.031903 
L 89.410282 494.447657 
L 88.836933 492.980198 
L 88.561804 492.459703 
L 87.786403 492.980198 
L 87.556825 493.118769 
L 87.070259 494.447657 
L 86.574691 495.915116 
L 86.551846 495.982813 
L 86.269809 497.382575 
L 86.016001 498.850034 
L 85.805967 500.317493 
L 85.63977 501.784952 
L 85.546867 502.864093 
L 85.513966 503.252412 
L 85.425037 504.719871 
L 85.371743 506.18733 
L 85.34859 507.654789 
L 85.352196 509.122248 
L 85.38193 510.589707 
L 85.44055 512.057166 
L 85.534557 513.524625 
L 85.546867 513.663094 
L 85.679789 514.992084 
L 85.882654 516.459543 
L 86.151977 517.927002 
L 86.500001 519.394461 
L 86.551846 519.58497 
L 87.554932 520.861921 
z
M 86.906763 517.927002 
L 86.551846 517.313748 
L 86.373675 516.459543 
L 86.131488 514.992084 
L 85.954949 513.524625 
L 85.834043 512.057166 
L 85.759358 510.589707 
L 85.723193 509.122248 
L 85.720878 507.654789 
L 85.751336 506.18733 
L 85.816708 504.719871 
L 85.921373 503.252412 
L 86.070618 501.784952 
L 86.269154 500.317493 
L 86.520038 498.850034 
L 86.551846 498.683158 
L 86.980252 497.382575 
L 87.504248 495.915116 
L 87.556825 495.770433 
L 88.561804 495.455375 
L 88.722952 495.915116 
L 89.120115 497.382575 
L 89.386405 498.850034 
L 89.566783 500.317493 
L 89.566783 500.317493 
L 89.665383 501.784952 
L 89.727421 503.252412 
L 89.752625 504.719871 
L 89.741755 506.18733 
L 89.696643 507.654789 
L 89.619629 509.122248 
L 89.566783 509.846768 
L 89.509107 510.589707 
L 89.365369 512.057166 
L 89.189885 513.524625 
L 88.977033 514.992084 
L 88.71742 516.459543 
L 88.561804 517.198686 
L 88.158808 517.927002 
L 87.556825 518.886826 
z
" clip-path="url(#pea9571446a)" style="fill: #6666fa"/>
    <path d="M 87.556825 518.886826 
L 88.158808 517.927002 
L 88.561804 517.198686 
L 88.71742 516.459543 
L 88.977033 514.992084 
L 89.189885 513.524625 
L 89.365369 512.057166 
L 89.509107 510.589707 
L 89.566783 509.846768 
L 89.619629 509.122248 
L 89.696643 507.654789 
L 89.741755 506.18733 
L 89.752625 504.719871 
L 89.727421 503.252412 
L 89.665383 501.784952 
L 89.566783 500.317493 
L 89.566783 500.317493 
L 89.386405 498.850034 
L 89.120115 497.382575 
L 88.722952 495.915116 
L 88.561804 495.455375 
L 87.556825 495.770433 
L 87.504248 495.915116 
L 86.980252 497.382575 
L 86.551846 498.683158 
L 86.520038 498.850034 
L 86.269154 500.317493 
L 86.070618 501.784952 
L 85.921373 503.252412 
L 85.816708 504.719871 
L 85.751336 506.18733 
L 85.720878 507.654789 
L 85.723193 509.122248 
L 85.759358 510.589707 
L 85.834043 512.057166 
L 85.954949 513.524625 
L 86.131488 514.992084 
L 86.373675 516.459543 
L 86.551846 517.313748 
L 86.906763 517.927002 
z
M 87.548618 516.459543 
L 86.819278 514.992084 
L 86.551846 514.301944 
L 86.443195 513.524625 
L 86.295666 512.057166 
L 86.202867 510.589707 
L 86.156757 509.122248 
L 86.152355 507.654789 
L 86.188347 506.18733 
L 86.266807 504.719871 
L 86.392246 503.252412 
L 86.551846 501.929121 
L 86.585097 501.784952 
L 86.988796 500.317493 
L 87.458789 498.850034 
L 87.556825 498.567802 
L 88.561804 498.850034 
L 88.561804 498.850034 
L 88.85195 500.317493 
L 89.04657 501.784952 
L 89.166772 503.252412 
L 89.225699 504.719871 
L 89.232819 506.18733 
L 89.195678 507.654789 
L 89.120038 509.122248 
L 89.009217 510.589707 
L 88.863332 512.057166 
L 88.678869 513.524625 
L 88.561804 514.282667 
L 88.278042 514.992084 
L 87.564656 516.459543 
L 87.556825 516.473515 
z
" clip-path="url(#pea9571446a)" style="fill: #4a4afb"/>
    <path d="M 87.556825 516.473515 
L 87.564656 516.459543 
L 88.278042 514.992084 
L 88.561804 514.282667 
L 88.678869 513.524625 
L 88.863332 512.057166 
L 89.009217 510.589707 
L 89.120038 509.122248 
L 89.195678 507.654789 
L 89.232819 506.18733 
L 89.225699 504.719871 
L 89.166772 503.252412 
L 89.04657 501.784952 
L 88.85195 500.317493 
L 88.561804 498.850034 
L 88.561804 498.850034 
L 87.556825 498.567802 
L 87.458789 498.850034 
L 86.988796 500.317493 
L 86.585097 501.784952 
L 86.551846 501.929121 
L 86.392246 503.252412 
L 86.266807 504.719871 
L 86.188347 506.18733 
L 86.152355 507.654789 
L 86.156757 509.122248 
L 86.202867 510.589707 
L 86.295666 512.057166 
L 86.443195 513.524625 
L 86.551846 514.301944 
L 86.819278 514.992084 
L 87.548618 516.459543 
z
M 87.448119 513.524625 
L 86.9978 512.057166 
L 86.709173 510.589707 
L 86.567371 509.122248 
L 86.551846 507.654789 
L 86.640878 506.18733 
L 86.818469 504.719871 
L 87.077751 503.252412 
L 87.418799 501.784952 
L 87.556825 501.299417 
L 88.038549 501.784952 
L 88.561804 502.679152 
L 88.62434 503.252412 
L 88.716047 504.719871 
L 88.744785 506.18733 
L 88.721474 507.654789 
L 88.653969 509.122248 
L 88.561804 510.378105 
L 88.522048 510.589707 
L 88.148147 512.057166 
L 87.666442 513.524625 
L 87.556825 513.793095 
z
" clip-path="url(#pea9571446a)" style="fill: #2c2cfd"/>
    <path d="M 87.556825 513.793095 
L 87.666442 513.524625 
L 88.148147 512.057166 
L 88.522048 510.589707 
L 88.561804 510.378105 
L 88.653969 509.122248 
L 88.721474 507.654789 
L 88.744785 506.18733 
L 88.716047 504.719871 
L 88.62434 503.252412 
L 88.561804 502.679152 
L 88.038549 501.784952 
L 87.556825 501.299417 
L 87.418799 501.784952 
L 87.077751 503.252412 
L 86.818469 504.719871 
L 86.640878 506.18733 
L 86.551846 507.654789 
L 86.567371 509.122248 
L 86.709173 510.589707 
L 86.9978 512.057166 
L 87.448119 513.524625 
z
" clip-path="url(#pea9571446a)" style="fill: #0f0ffe"/>
   </g>
   <g id="QuadContourSet_2">
    <path d="M 86.184538 546.878582 
L 89.460489 544.605914 
L 93.903185 540.508811 
L 94.838934 539.461317 
L 97.548636 536.411708 
L 100.063442 532.314606 
L 101.633579 528.217503 
L 102.645203 524.1204 
L 103.319072 520.023297 
L 103.493331 518.753454 
L 105.228753 515.926194 
L 107.161984 511.829091 
L 108.525398 507.731988 
L 109.503472 503.634885 
L 110.217824 499.537782 
L 110.749511 495.440679 
L 111.153321 491.343576 
L 111.466963 487.246473 
L 111.71696 483.14937 
L 111.922446 479.052267 
L 112.097581 474.955164 
L 112.147727 473.705845 
L 113.594584 470.858061 
L 115.399112 466.760958 
L 116.909588 462.663855 
L 118.172234 458.566752 
L 119.218529 454.469649 
L 120.071798 450.372546 
L 120.753247 446.275443 
L 120.802124 445.932572 
L 122.511201 442.17834 
L 123.996021 438.081238 
L 125.132428 433.984135 
L 125.985386 429.887032 
L 126.63009 425.789929 
L 127.14076 421.692826 
L 127.581219 417.595723 
L 127.999436 413.49862 
L 128.426158 409.401517 
L 128.876487 405.304414 
L 129.353066 401.207311 
L 129.45652 400.375476 
L 130.359989 397.110208 
L 131.639256 393.013105 
L 133.029299 388.916002 
L 134.468856 384.818899 
L 135.872522 380.721796 
L 137.129615 376.624693 
L 138.110917 372.52759 
L 138.110917 372.52759 
L 139.113614 368.430487 
L 139.164747 364.333384 
L 138.30111 360.236281 
L 138.110917 359.78001 
L 137.131354 356.139178 
L 135.522427 352.042075 
L 133.537694 347.944972 
L 131.378418 343.84787 
L 129.45652 340.089239 
L 129.369014 339.750767 
L 128.441493 335.653664 
L 127.719558 331.556561 
L 127.197401 327.459458 
L 126.81747 323.362355 
L 126.503406 319.265252 
L 126.177899 315.168149 
L 125.768415 311.071046 
L 125.208688 306.973943 
L 124.442538 302.87684 
L 123.433595 298.779737 
L 122.178926 294.682634 
L 120.802124 290.807586 
L 120.769027 290.585531 
L 120.174096 286.488428 
L 119.555115 282.391325 
L 118.867356 278.294222 
L 118.021787 274.197119 
L 116.873188 270.100016 
L 115.196821 266.002913 
L 112.652474 261.90581 
L 112.147727 261.258636 
L 111.718944 257.808707 
L 111.157893 253.711605 
L 110.563786 249.614502 
L 109.965634 245.517399 
L 109.390395 241.420296 
L 108.858226 237.323193 
L 108.379609 233.22609 
L 107.954684 229.128987 
L 107.574484 225.031884 
L 107.223351 220.934781 
L 106.881643 216.837678 
L 106.527921 212.740575 
L 106.140037 208.643472 
L 105.694926 204.546369 
L 105.167282 200.449266 
L 104.527718 196.352163 
L 103.741371 192.25506 
L 103.493331 191.139613 
L 103.240484 188.157957 
L 102.833706 184.060854 
L 102.343704 179.963751 
L 101.752487 175.866648 
L 101.043913 171.769545 
L 100.205698 167.672442 
L 99.231864 163.575339 
L 98.125946 159.478237 
L 96.904709 155.381134 
L 95.600859 151.284031 
L 94.838934 148.874495 
L 94.27652 147.186928 
L 92.91552 143.089825 
L 91.518501 138.992722 
L 90.125932 134.895619 
L 88.751475 130.798516 
L 87.371294 126.701413 
L 86.184538 123.287052 
L 84.604879 126.701413 
L 82.166233 130.798516 
L 78.913148 134.895619 
L 77.530141 136.278241 
L 76.659874 138.992722 
L 75.379932 143.089825 
L 74.194698 147.186928 
L 73.118395 151.284031 
L 72.158493 155.381134 
L 71.315504 159.478237 
L 70.584778 163.575339 
L 69.958999 167.672442 
L 69.430215 171.769545 
L 68.990849 175.866648 
L 68.875745 177.145112 
L 68.447329 179.963751 
L 67.95781 184.060854 
L 67.587796 188.157957 
L 67.308591 192.25506 
L 67.089254 196.352163 
L 66.897577 200.449266 
L 66.70224 204.546369 
L 66.476334 208.643472 
L 66.201599 212.740575 
L 65.871878 216.837678 
L 65.494007 220.934781 
L 65.085304 225.031884 
L 64.668452 229.128987 
L 64.265862 233.22609 
L 63.895557 237.323193 
L 63.569488 241.420296 
L 63.293886 245.517399 
L 63.070627 249.614502 
L 62.898682 253.711605 
L 62.775109 257.808707 
L 62.695485 261.90581 
L 62.653917 266.002913 
L 62.642934 270.100016 
L 62.653577 274.197119 
L 62.675934 278.294222 
L 62.700157 282.391325 
L 62.717745 286.488428 
L 62.722667 290.585531 
L 62.71189 294.682634 
L 62.685147 298.779737 
L 62.644092 302.87684 
L 62.591191 306.973943 
L 62.52873 311.071046 
L 62.458171 315.168149 
L 62.379962 319.265252 
L 62.293752 323.362355 
L 62.198912 327.459458 
L 62.095178 331.556561 
L 61.983202 335.653664 
L 61.864822 339.750767 
L 61.742959 343.84787 
L 61.621188 347.944972 
L 61.503167 352.042075 
L 61.392097 356.139178 
L 61.290364 360.236281 
L 61.199384 364.333384 
L 61.119615 368.430487 
L 61.050674 372.52759 
L 60.991507 376.624693 
L 60.940587 380.721796 
L 60.896135 384.818899 
L 60.856353 388.916002 
L 60.819659 393.013105 
L 60.784884 397.110208 
L 60.751405 401.207311 
L 60.719167 405.304414 
L 60.688615 409.401517 
L 60.660536 413.49862 
L 60.635877 417.595723 
L 60.615561 421.692826 
L 60.60035 425.789929 
L 60.590773 429.887032 
L 60.587114 433.984135 
L 60.589471 438.081238 
L 60.597855 442.17834 
L 60.612311 446.275443 
L 60.633037 450.372546 
L 60.660485 454.469649 
L 60.695434 458.566752 
L 60.739051 462.663855 
L 60.792955 466.760958 
L 60.859307 470.858061 
L 60.940968 474.955164 
L 61.041732 479.052267 
L 61.166689 483.14937 
L 61.32275 487.246473 
L 61.519413 491.343576 
L 61.769885 495.440679 
L 62.092755 499.537782 
L 62.514543 503.634885 
L 63.073657 507.731988 
L 63.826636 511.829091 
L 64.858194 515.926194 
L 66.297681 520.023297 
L 68.346546 524.1204 
L 68.875745 525.043052 
L 69.422167 528.217503 
L 70.437999 532.314606 
L 72.032018 536.411708 
L 74.595489 540.508811 
L 77.530141 543.693859 
L 79.986015 544.605914 
z
M 81.718518 524.1204 
L 77.530141 520.729874 
L 77.078577 520.023297 
L 74.777862 515.926194 
L 73.156595 511.829091 
L 71.991708 507.731988 
L 71.139455 503.634885 
L 70.505355 499.537782 
L 70.026132 495.440679 
L 69.658669 491.343576 
L 69.373127 487.246473 
L 69.148592 483.14937 
L 68.970262 479.052267 
L 68.875745 476.399335 
L 68.647117 474.955164 
L 68.108911 470.858061 
L 67.685856 466.760958 
L 67.357813 462.663855 
L 67.109476 458.566752 
L 66.929082 454.469649 
L 66.807531 450.372546 
L 66.737796 446.275443 
L 66.714516 442.17834 
L 66.733661 438.081238 
L 66.792193 433.984135 
L 66.887673 429.887032 
L 67.017818 425.789929 
L 67.180049 421.692826 
L 67.37112 417.595723 
L 67.586936 413.49862 
L 67.822655 409.401517 
L 68.073141 405.304414 
L 68.333769 401.207311 
L 68.601459 397.110208 
L 68.875745 393.013105 
L 68.875745 393.013105 
L 68.946356 388.916002 
L 69.021389 384.818899 
L 69.103076 380.721796 
L 69.194174 376.624693 
L 69.297641 372.52759 
L 69.416279 368.430487 
L 69.552416 364.333384 
L 69.707658 360.236281 
L 69.882688 356.139178 
L 70.077136 352.042075 
L 70.289509 347.944972 
L 70.517241 343.84787 
L 70.756915 339.750767 
L 71.004713 335.653664 
L 71.257085 331.556561 
L 71.51152 327.459458 
L 71.767197 323.362355 
L 72.02532 319.265252 
L 72.289028 315.168149 
L 72.562913 311.071046 
L 72.852337 306.973943 
L 73.162732 302.87684 
L 73.499058 298.779737 
L 73.865499 294.682634 
L 74.265448 290.585531 
L 74.701783 286.488428 
L 75.177463 282.391325 
L 75.696378 278.294222 
L 76.26437 274.197119 
L 76.890186 270.100016 
L 77.530141 266.31025 
L 77.613929 266.002913 
L 78.864257 261.90581 
L 80.450882 257.808707 
L 82.442994 253.711605 
L 84.885828 249.614502 
L 86.184538 247.653243 
L 87.285095 249.614502 
L 89.584613 253.711605 
L 91.80782 257.808707 
L 93.945879 261.90581 
L 94.838934 263.642048 
L 95.528886 266.002913 
L 96.642809 270.100016 
L 97.62949 274.197119 
L 98.492532 278.294222 
L 99.239476 282.391325 
L 99.88208 286.488428 
L 100.4352 290.585531 
L 100.914866 294.682634 
L 101.336318 298.779737 
L 101.712521 302.87684 
L 102.053406 306.973943 
L 102.365839 311.071046 
L 102.654159 315.168149 
L 102.921023 319.265252 
L 103.168277 323.362355 
L 103.3976 327.459458 
L 103.493331 329.229975 
L 103.822558 331.556561 
L 104.386742 335.653664 
L 104.924168 339.750767 
L 105.438172 343.84787 
L 105.930183 347.944972 
L 106.399618 352.042075 
L 106.844077 356.139178 
L 107.259711 360.236281 
L 107.64172 364.333384 
L 107.984979 368.430487 
L 108.284768 372.52759 
L 108.537519 376.624693 
L 108.741415 380.721796 
L 108.896677 384.818899 
L 109.005416 388.916002 
L 109.07108 393.013105 
L 109.097652 397.110208 
L 109.088865 401.207311 
L 109.047655 405.304414 
L 108.976018 409.401517 
L 108.875271 413.49862 
L 108.746614 417.595723 
L 108.591756 421.692826 
L 108.413371 425.789929 
L 108.215107 429.887032 
L 108.001035 433.984135 
L 107.774547 438.081238 
L 107.536985 442.17834 
L 107.286359 446.275443 
L 107.016478 450.372546 
L 106.71658 454.469649 
L 106.371273 458.566752 
L 105.96045 462.663855 
L 105.458792 466.760958 
L 104.834569 470.858061 
L 104.047443 474.955164 
L 103.493331 477.318296 
L 103.400489 479.052267 
L 103.143126 483.14937 
L 102.824645 487.246473 
L 102.42505 491.343576 
L 101.915778 495.440679 
L 101.255355 499.537782 
L 100.382556 503.634885 
L 99.205436 507.731988 
L 97.583352 511.829091 
L 95.296954 515.926194 
L 94.838934 516.651199 
L 92.690686 520.023297 
L 89.183572 524.1204 
L 86.184538 526.838948 
z
" clip-path="url(#pea9571446a)" style="fill: #e2efe2; fill-opacity: 0.5"/>
    <path d="M 86.184538 526.838948 
L 89.183572 524.1204 
L 92.690686 520.023297 
L 94.838934 516.651199 
L 95.296954 515.926194 
L 97.583352 511.829091 
L 99.205436 507.731988 
L 100.382556 503.634885 
L 101.255355 499.537782 
L 101.915778 495.440679 
L 102.42505 491.343576 
L 102.824645 487.246473 
L 103.143126 483.14937 
L 103.400489 479.052267 
L 103.493331 477.318296 
L 104.047443 474.955164 
L 104.834569 470.858061 
L 105.458792 466.760958 
L 105.96045 462.663855 
L 106.371273 458.566752 
L 106.71658 454.469649 
L 107.016478 450.372546 
L 107.286359 446.275443 
L 107.536985 442.17834 
L 107.774547 438.081238 
L 108.001035 433.984135 
L 108.215107 429.887032 
L 108.413371 425.789929 
L 108.591756 421.692826 
L 108.746614 417.595723 
L 108.875271 413.49862 
L 108.976018 409.401517 
L 109.047655 405.304414 
L 109.088865 401.207311 
L 109.097652 397.110208 
L 109.07108 393.013105 
L 109.005416 388.916002 
L 108.896677 384.818899 
L 108.741415 380.721796 
L 108.537519 376.624693 
L 108.284768 372.52759 
L 107.984979 368.430487 
L 107.64172 364.333384 
L 107.259711 360.236281 
L 106.844077 356.139178 
L 106.399618 352.042075 
L 105.930183 347.944972 
L 105.438172 343.84787 
L 104.924168 339.750767 
L 104.386742 335.653664 
L 103.822558 331.556561 
L 103.493331 329.229975 
L 103.3976 327.459458 
L 103.168277 323.362355 
L 102.921023 319.265252 
L 102.654159 315.168149 
L 102.365839 311.071046 
L 102.053406 306.973943 
L 101.712521 302.87684 
L 101.336318 298.779737 
L 100.914866 294.682634 
L 100.4352 290.585531 
L 99.88208 286.488428 
L 99.239476 282.391325 
L 98.492532 278.294222 
L 97.62949 274.197119 
L 96.642809 270.100016 
L 95.528886 266.002913 
L 94.838934 263.642048 
L 93.945879 261.90581 
L 91.80782 257.808707 
L 89.584613 253.711605 
L 87.285095 249.614502 
L 86.184538 247.653243 
L 84.885828 249.614502 
L 82.442994 253.711605 
L 80.450882 257.808707 
L 78.864257 261.90581 
L 77.613929 266.002913 
L 77.530141 266.31025 
L 76.890186 270.100016 
L 76.26437 274.197119 
L 75.696378 278.294222 
L 75.177463 282.391325 
L 74.701783 286.488428 
L 74.265448 290.585531 
L 73.865499 294.682634 
L 73.499058 298.779737 
L 73.162732 302.87684 
L 72.852337 306.973943 
L 72.562913 311.071046 
L 72.289028 315.168149 
L 72.02532 319.265252 
L 71.767197 323.362355 
L 71.51152 327.459458 
L 71.257085 331.556561 
L 71.004713 335.653664 
L 70.756915 339.750767 
L 70.517241 343.84787 
L 70.289509 347.944972 
L 70.077136 352.042075 
L 69.882688 356.139178 
L 69.707658 360.236281 
L 69.552416 364.333384 
L 69.416279 368.430487 
L 69.297641 372.52759 
L 69.194174 376.624693 
L 69.103076 380.721796 
L 69.021389 384.818899 
L 68.946356 388.916002 
L 68.875745 393.013105 
L 68.875745 393.013105 
L 68.601459 397.110208 
L 68.333769 401.207311 
L 68.073141 405.304414 
L 67.822655 409.401517 
L 67.586936 413.49862 
L 67.37112 417.595723 
L 67.180049 421.692826 
L 67.017818 425.789929 
L 66.887673 429.887032 
L 66.792193 433.984135 
L 66.733661 438.081238 
L 66.714516 442.17834 
L 66.737796 446.275443 
L 66.807531 450.372546 
L 66.929082 454.469649 
L 67.109476 458.566752 
L 67.357813 462.663855 
L 67.685856 466.760958 
L 68.108911 470.858061 
L 68.647117 474.955164 
L 68.875745 476.399335 
L 68.970262 479.052267 
L 69.148592 483.14937 
L 69.373127 487.246473 
L 69.658669 491.343576 
L 70.026132 495.440679 
L 70.505355 499.537782 
L 71.139455 503.634885 
L 71.991708 507.731988 
L 73.156595 511.829091 
L 74.777862 515.926194 
L 77.078577 520.023297 
L 77.530141 520.729874 
L 81.718518 524.1204 
z
M 83.236281 515.926194 
L 79.04517 511.829091 
L 77.530141 509.885256 
L 76.481659 507.731988 
L 74.859697 503.634885 
L 73.653767 499.537782 
L 72.744169 495.440679 
L 72.04931 491.343576 
L 71.512672 487.246473 
L 71.094546 483.14937 
L 70.766698 479.052267 
L 70.508862 474.955164 
L 70.306384 470.858061 
L 70.14861 466.760958 
L 70.027739 462.663855 
L 69.938023 458.566752 
L 69.875184 454.469649 
L 69.836019 450.372546 
L 69.81813 446.275443 
L 69.81974 442.17834 
L 69.83955 438.081238 
L 69.876613 433.984135 
L 69.930171 429.887032 
L 69.999483 425.789929 
L 70.083628 421.692826 
L 70.181349 417.595723 
L 70.290959 413.49862 
L 70.410368 409.401517 
L 70.537262 405.304414 
L 70.669431 401.207311 
L 70.805198 397.110208 
L 70.943875 393.013105 
L 71.086133 388.916002 
L 71.234191 384.818899 
L 71.39176 380.721796 
L 71.563752 376.624693 
L 71.75581 372.52759 
L 71.973746 368.430487 
L 72.222965 364.333384 
L 72.507922 360.236281 
L 72.831618 356.139178 
L 73.195163 352.042075 
L 73.597431 347.944972 
L 74.034941 343.84787 
L 74.502107 339.750767 
L 74.992004 335.653664 
L 75.497672 331.556561 
L 76.013752 327.459458 
L 76.53803 323.362355 
L 77.072427 319.265252 
L 77.530141 315.828868 
L 77.625937 315.168149 
L 78.230598 311.071046 
L 78.895155 306.973943 
L 79.638168 302.87684 
L 80.481351 298.779737 
L 81.45025 294.682634 
L 82.575397 290.585531 
L 83.893951 286.488428 
L 85.451758 282.391325 
L 86.184538 280.658492 
L 87.221674 282.391325 
L 89.516749 286.488428 
L 91.536959 290.585531 
L 93.299603 294.682634 
L 94.838934 298.779737 
L 94.838934 298.779737 
L 95.630952 302.87684 
L 96.348781 306.973943 
L 97.009726 311.071046 
L 97.626367 315.168149 
L 98.206678 319.265252 
L 98.754737 323.362355 
L 99.271799 327.459458 
L 99.757501 331.556561 
L 100.210914 335.653664 
L 100.631311 339.750767 
L 101.018583 343.84787 
L 101.373346 347.944972 
L 101.696817 352.042075 
L 101.990563 356.139178 
L 102.256213 360.236281 
L 102.495201 364.333384 
L 102.708601 368.430487 
L 102.897075 372.52759 
L 103.06094 376.624693 
L 103.200294 380.721796 
L 103.315194 384.818899 
L 103.405805 388.916002 
L 103.472518 393.013105 
L 103.493331 394.940799 
L 103.560449 397.110208 
L 103.625998 401.207311 
L 103.631271 405.304414 
L 103.578199 409.401517 
L 103.493331 412.593276 
L 103.485913 413.49862 
L 103.438067 417.595723 
L 103.379758 421.692826 
L 103.314124 425.789929 
L 103.244029 429.887032 
L 103.171663 433.984135 
L 103.09812 438.081238 
L 103.023071 442.17834 
L 102.94458 446.275443 
L 102.859121 450.372546 
L 102.761741 454.469649 
L 102.64628 458.566752 
L 102.505516 462.663855 
L 102.331112 466.760958 
L 102.113278 470.858061 
L 101.840087 474.955164 
L 101.496363 479.052267 
L 101.062025 483.14937 
L 100.509674 487.246473 
L 99.801027 491.343576 
L 98.881559 495.440679 
L 97.672248 499.537782 
L 96.056609 503.634885 
L 94.838934 506.116954 
L 94.02581 507.731988 
L 91.598664 511.829091 
L 88.336182 515.926194 
L 86.184538 518.142602 
z
" clip-path="url(#pea9571446a)" style="fill: #d0e6d0; fill-opacity: 0.5"/>
    <path d="M 86.184538 518.142602 
L 88.336182 515.926194 
L 91.598664 511.829091 
L 94.02581 507.731988 
L 94.838934 506.116954 
L 96.056609 503.634885 
L 97.672248 499.537782 
L 98.881559 495.440679 
L 99.801027 491.343576 
L 100.509674 487.246473 
L 101.062025 483.14937 
L 101.496363 479.052267 
L 101.840087 474.955164 
L 102.113278 470.858061 
L 102.331112 466.760958 
L 102.505516 462.663855 
L 102.64628 458.566752 
L 102.761741 454.469649 
L 102.859121 450.372546 
L 102.94458 446.275443 
L 103.023071 442.17834 
L 103.09812 438.081238 
L 103.171663 433.984135 
L 103.244029 429.887032 
L 103.314124 425.789929 
L 103.379758 421.692826 
L 103.438067 417.595723 
L 103.485913 413.49862 
L 103.493331 412.593276 
L 103.578199 409.401517 
L 103.631271 405.304414 
L 103.625998 401.207311 
L 103.560449 397.110208 
L 103.493331 394.940799 
L 103.472518 393.013105 
L 103.405805 388.916002 
L 103.315194 384.818899 
L 103.200294 380.721796 
L 103.06094 376.624693 
L 102.897075 372.52759 
L 102.708601 368.430487 
L 102.495201 364.333384 
L 102.256213 360.236281 
L 101.990563 356.139178 
L 101.696817 352.042075 
L 101.373346 347.944972 
L 101.018583 343.84787 
L 100.631311 339.750767 
L 100.210914 335.653664 
L 99.757501 331.556561 
L 99.271799 327.459458 
L 98.754737 323.362355 
L 98.206678 319.265252 
L 97.626367 315.168149 
L 97.009726 311.071046 
L 96.348781 306.973943 
L 95.630952 302.87684 
L 94.838934 298.779737 
L 94.838934 298.779737 
L 93.299603 294.682634 
L 91.536959 290.585531 
L 89.516749 286.488428 
L 87.221674 282.391325 
L 86.184538 280.658492 
L 85.451758 282.391325 
L 83.893951 286.488428 
L 82.575397 290.585531 
L 81.45025 294.682634 
L 80.481351 298.779737 
L 79.638168 302.87684 
L 78.895155 306.973943 
L 78.230598 311.071046 
L 77.625937 315.168149 
L 77.530141 315.828868 
L 77.072427 319.265252 
L 76.53803 323.362355 
L 76.013752 327.459458 
L 75.497672 331.556561 
L 74.992004 335.653664 
L 74.502107 339.750767 
L 74.034941 343.84787 
L 73.597431 347.944972 
L 73.195163 352.042075 
L 72.831618 356.139178 
L 72.507922 360.236281 
L 72.222965 364.333384 
L 71.973746 368.430487 
L 71.75581 372.52759 
L 71.563752 376.624693 
L 71.39176 380.721796 
L 71.234191 384.818899 
L 71.086133 388.916002 
L 70.943875 393.013105 
L 70.805198 397.110208 
L 70.669431 401.207311 
L 70.537262 405.304414 
L 70.410368 409.401517 
L 70.290959 413.49862 
L 70.181349 417.595723 
L 70.083628 421.692826 
L 69.999483 425.789929 
L 69.930171 429.887032 
L 69.876613 433.984135 
L 69.83955 438.081238 
L 69.81974 442.17834 
L 69.81813 446.275443 
L 69.836019 450.372546 
L 69.875184 454.469649 
L 69.938023 458.566752 
L 70.027739 462.663855 
L 70.14861 466.760958 
L 70.306384 470.858061 
L 70.508862 474.955164 
L 70.766698 479.052267 
L 71.094546 483.14937 
L 71.512672 487.246473 
L 72.04931 491.343576 
L 72.744169 495.440679 
L 73.653767 499.537782 
L 74.859697 503.634885 
L 76.481659 507.731988 
L 77.530141 509.885256 
L 79.04517 511.829091 
L 83.236281 515.926194 
z
M 83.180215 503.634885 
L 80.267816 499.537782 
L 78.160463 495.440679 
L 77.530141 493.915002 
L 76.732219 491.343576 
L 75.703722 487.246473 
L 74.90638 483.14937 
L 74.28565 479.052267 
L 73.80222 474.955164 
L 73.427505 470.858061 
L 73.14057 466.760958 
L 72.925993 462.663855 
L 72.77235 458.566752 
L 72.671137 454.469649 
L 72.616 450.372546 
L 72.602189 446.275443 
L 72.626161 442.17834 
L 72.685276 438.081238 
L 72.777511 433.984135 
L 72.901174 429.887032 
L 73.054581 425.789929 
L 73.235734 421.692826 
L 73.442041 417.595723 
L 73.670159 413.49862 
L 73.916039 409.401517 
L 74.175224 405.304414 
L 74.443415 401.207311 
L 74.717231 397.110208 
L 74.995033 393.013105 
L 75.277637 388.916002 
L 75.568741 384.818899 
L 75.874953 380.721796 
L 76.205403 376.624693 
L 76.570996 372.52759 
L 76.983442 368.430487 
L 77.454171 364.333384 
L 77.530141 363.732035 
L 77.985818 360.236281 
L 78.584628 356.139178 
L 79.255116 352.042075 
L 79.998856 347.944972 
L 80.815436 343.84787 
L 81.702721 339.750767 
L 82.657323 335.653664 
L 83.675463 331.556561 
L 84.754386 327.459458 
L 85.894359 323.362355 
L 86.184538 322.323801 
L 86.648784 323.362355 
L 88.489741 327.459458 
L 90.248334 331.556561 
L 91.906391 335.653664 
L 93.442358 339.750767 
L 94.838934 343.84787 
L 94.838934 343.84787 
L 95.560771 347.944972 
L 96.206303 352.042075 
L 96.779796 356.139178 
L 97.286988 360.236281 
L 97.734364 364.333384 
L 98.128565 368.430487 
L 98.475981 372.52759 
L 98.782465 376.624693 
L 99.053147 380.721796 
L 99.292263 384.818899 
L 99.503001 388.916002 
L 99.687407 393.013105 
L 99.846429 397.110208 
L 99.980166 401.207311 
L 100.088308 405.304414 
L 100.170679 409.401517 
L 100.227743 413.49862 
L 100.26092 417.595723 
L 100.272632 421.692826 
L 100.266035 425.789929 
L 100.244485 429.887032 
L 100.210806 433.984135 
L 100.166501 438.081238 
L 100.111057 442.17834 
L 100.041478 446.275443 
L 99.952124 450.372546 
L 99.834786 454.469649 
L 99.67889 458.566752 
L 99.471588 462.663855 
L 99.197564 466.760958 
L 98.838365 470.858061 
L 98.371117 474.955164 
L 97.766464 479.052267 
L 96.98546 483.14937 
L 95.974991 487.246473 
L 94.838934 490.846077 
L 94.67336 491.343576 
L 93.11627 495.440679 
L 91.150346 499.537782 
L 88.627998 503.634885 
L 86.184538 506.80628 
z
" clip-path="url(#pea9571446a)" style="fill: #b5d9b5; fill-opacity: 0.5"/>
    <path d="M 86.184538 506.80628 
L 88.627998 503.634885 
L 91.150346 499.537782 
L 93.11627 495.440679 
L 94.67336 491.343576 
L 94.838934 490.846077 
L 95.974991 487.246473 
L 96.98546 483.14937 
L 97.766464 479.052267 
L 98.371117 474.955164 
L 98.838365 470.858061 
L 99.197564 466.760958 
L 99.471588 462.663855 
L 99.67889 458.566752 
L 99.834786 454.469649 
L 99.952124 450.372546 
L 100.041478 446.275443 
L 100.111057 442.17834 
L 100.166501 438.081238 
L 100.210806 433.984135 
L 100.244485 429.887032 
L 100.266035 425.789929 
L 100.272632 421.692826 
L 100.26092 417.595723 
L 100.227743 413.49862 
L 100.170679 409.401517 
L 100.088308 405.304414 
L 99.980166 401.207311 
L 99.846429 397.110208 
L 99.687407 393.013105 
L 99.503001 388.916002 
L 99.292263 384.818899 
L 99.053147 380.721796 
L 98.782465 376.624693 
L 98.475981 372.52759 
L 98.128565 368.430487 
L 97.734364 364.333384 
L 97.286988 360.236281 
L 96.779796 356.139178 
L 96.206303 352.042075 
L 95.560771 347.944972 
L 94.838934 343.84787 
L 94.838934 343.84787 
L 93.442358 339.750767 
L 91.906391 335.653664 
L 90.248334 331.556561 
L 88.489741 327.459458 
L 86.648784 323.362355 
L 86.184538 322.323801 
L 85.894359 323.362355 
L 84.754386 327.459458 
L 83.675463 331.556561 
L 82.657323 335.653664 
L 81.702721 339.750767 
L 80.815436 343.84787 
L 79.998856 347.944972 
L 79.255116 352.042075 
L 78.584628 356.139178 
L 77.985818 360.236281 
L 77.530141 363.732035 
L 77.454171 364.333384 
L 76.983442 368.430487 
L 76.570996 372.52759 
L 76.205403 376.624693 
L 75.874953 380.721796 
L 75.568741 384.818899 
L 75.277637 388.916002 
L 74.995033 393.013105 
L 74.717231 397.110208 
L 74.443415 401.207311 
L 74.175224 405.304414 
L 73.916039 409.401517 
L 73.670159 413.49862 
L 73.442041 417.595723 
L 73.235734 421.692826 
L 73.054581 425.789929 
L 72.901174 429.887032 
L 72.777511 433.984135 
L 72.685276 438.081238 
L 72.626161 442.17834 
L 72.602189 446.275443 
L 72.616 450.372546 
L 72.671137 454.469649 
L 72.77235 458.566752 
L 72.925993 462.663855 
L 73.14057 466.760958 
L 73.427505 470.858061 
L 73.80222 474.955164 
L 74.28565 479.052267 
L 74.90638 483.14937 
L 75.703722 487.246473 
L 76.732219 491.343576 
L 77.530141 493.915002 
L 78.160463 495.440679 
L 80.267816 499.537782 
L 83.180215 503.634885 
z
M 83.165891 495.440679 
L 80.940641 491.343576 
L 79.27824 487.246473 
L 78.0213 483.14937 
L 77.530141 481.142099 
L 77.110692 479.052267 
L 76.446154 474.955164 
L 75.933165 470.858061 
L 75.542539 466.760958 
L 75.252734 462.663855 
L 75.04777 458.566752 
L 74.91575 454.469649 
L 74.847791 450.372546 
L 74.837253 446.275443 
L 74.879179 442.17834 
L 74.969847 438.081238 
L 75.106376 433.984135 
L 75.286319 429.887032 
L 75.507238 425.789929 
L 75.76627 421.692826 
L 76.05975 417.595723 
L 76.383008 413.49862 
L 76.73042 409.401517 
L 77.095809 405.304414 
L 77.4732 401.207311 
L 77.530141 400.581991 
L 77.864963 397.110208 
L 78.260036 393.013105 
L 78.658426 388.916002 
L 79.065234 384.818899 
L 79.489136 380.721796 
L 79.941808 376.624693 
L 80.436924 372.52759 
L 80.988962 368.430487 
L 81.612057 364.333384 
L 82.319071 360.236281 
L 83.120946 356.139178 
L 84.026261 352.042075 
L 85.040912 347.944972 
L 86.16784 343.84787 
L 86.184538 343.78908 
L 86.211452 343.84787 
L 88.015444 347.944972 
L 89.612211 352.042075 
L 91.009361 356.139178 
L 92.223451 360.236281 
L 93.275891 364.333384 
L 94.189374 368.430487 
L 94.838934 371.748638 
L 94.92669 372.52759 
L 95.347671 376.624693 
L 95.723784 380.721796 
L 96.062622 384.818899 
L 96.369799 388.916002 
L 96.648688 393.013105 
L 96.900437 397.110208 
L 97.124364 401.207311 
L 97.31872 405.304414 
L 97.481644 409.401517 
L 97.612058 413.49862 
L 97.710281 417.595723 
L 97.778206 421.692826 
L 97.819005 425.789929 
L 97.836427 429.887032 
L 97.833807 433.984135 
L 97.812974 438.081238 
L 97.773268 442.17834 
L 97.710845 446.275443 
L 97.618363 450.372546 
L 97.485004 454.469649 
L 97.296645 458.566752 
L 97.035926 462.663855 
L 96.681927 466.760958 
L 96.209239 470.858061 
L 95.586201 474.955164 
L 94.838934 478.737508 
L 94.772531 479.052267 
L 93.741767 483.14937 
L 92.451818 487.246473 
L 90.83441 491.343576 
L 88.792246 495.440679 
L 86.184538 499.537782 
z
" clip-path="url(#pea9571446a)" style="fill: #94c994; fill-opacity: 0.5"/>
    <path d="M 86.184538 499.537782 
L 88.792246 495.440679 
L 90.83441 491.343576 
L 92.451818 487.246473 
L 93.741767 483.14937 
L 94.772531 479.052267 
L 94.838934 478.737508 
L 95.586201 474.955164 
L 96.209239 470.858061 
L 96.681927 466.760958 
L 97.035926 462.663855 
L 97.296645 458.566752 
L 97.485004 454.469649 
L 97.618363 450.372546 
L 97.710845 446.275443 
L 97.773268 442.17834 
L 97.812974 438.081238 
L 97.833807 433.984135 
L 97.836427 429.887032 
L 97.819005 425.789929 
L 97.778206 421.692826 
L 97.710281 417.595723 
L 97.612058 413.49862 
L 97.481644 409.401517 
L 97.31872 405.304414 
L 97.124364 401.207311 
L 96.900437 397.110208 
L 96.648688 393.013105 
L 96.369799 388.916002 
L 96.062622 384.818899 
L 95.723784 380.721796 
L 95.347671 376.624693 
L 94.92669 372.52759 
L 94.838934 371.748638 
L 94.189374 368.430487 
L 93.275891 364.333384 
L 92.223451 360.236281 
L 91.009361 356.139178 
L 89.612211 352.042075 
L 88.015444 347.944972 
L 86.211452 343.84787 
L 86.184538 343.78908 
L 86.16784 343.84787 
L 85.040912 347.944972 
L 84.026261 352.042075 
L 83.120946 356.139178 
L 82.319071 360.236281 
L 81.612057 364.333384 
L 80.988962 368.430487 
L 80.436924 372.52759 
L 79.941808 376.624693 
L 79.489136 380.721796 
L 79.065234 384.818899 
L 78.658426 388.916002 
L 78.260036 393.013105 
L 77.864963 397.110208 
L 77.530141 400.581991 
L 77.4732 401.207311 
L 77.095809 405.304414 
L 76.73042 409.401517 
L 76.383008 413.49862 
L 76.05975 417.595723 
L 75.76627 421.692826 
L 75.507238 425.789929 
L 75.286319 429.887032 
L 75.106376 433.984135 
L 74.969847 438.081238 
L 74.879179 442.17834 
L 74.837253 446.275443 
L 74.847791 450.372546 
L 74.91575 454.469649 
L 75.04777 458.566752 
L 75.252734 462.663855 
L 75.542539 466.760958 
L 75.933165 470.858061 
L 76.446154 474.955164 
L 77.110692 479.052267 
L 77.530141 481.142099 
L 78.0213 483.14937 
L 79.27824 487.246473 
L 80.940641 491.343576 
L 83.165891 495.440679 
z
M 83.970189 491.343576 
L 81.953975 487.246473 
L 80.431348 483.14937 
L 79.271763 479.052267 
L 78.384039 474.955164 
L 77.704319 470.858061 
L 77.530141 469.513102 
L 77.223354 466.760958 
L 76.880906 462.663855 
L 76.64003 458.566752 
L 76.486453 454.469649 
L 76.409521 450.372546 
L 76.401274 446.275443 
L 76.455763 442.17834 
L 76.568511 438.081238 
L 76.736034 433.984135 
L 76.95536 429.887032 
L 77.223523 425.789929 
L 77.530141 421.780402 
L 77.53752 421.692826 
L 77.912229 417.595723 
L 78.317174 413.49862 
L 78.745842 409.401517 
L 79.191561 405.304414 
L 79.648056 401.207311 
L 80.1104 397.110208 
L 80.576185 393.013105 
L 81.046594 388.916002 
L 81.527038 384.818899 
L 82.027176 380.721796 
L 82.560293 376.624693 
L 83.142226 372.52759 
L 83.790091 368.430487 
L 84.521062 364.333384 
L 85.35133 360.236281 
L 86.184538 356.600834 
L 87.486235 360.236281 
L 88.764384 364.333384 
L 89.873668 368.430487 
L 90.842933 372.52759 
L 91.698407 376.624693 
L 92.462084 380.721796 
L 93.15057 384.818899 
L 93.774333 388.916002 
L 94.337556 393.013105 
L 94.838934 397.110208 
L 94.838934 397.110208 
L 95.125972 401.207311 
L 95.380659 405.304414 
L 95.59995 409.401517 
L 95.781692 413.49862 
L 95.925432 417.595723 
L 96.032693 421.692826 
L 96.106658 425.789929 
L 96.151352 429.887032 
L 96.170465 433.984135 
L 96.166058 438.081238 
L 96.137365 442.17834 
L 96.079949 446.275443 
L 95.985279 450.372546 
L 95.840708 454.469649 
L 95.629633 458.566752 
L 95.331534 462.663855 
L 94.921572 466.760958 
L 94.838934 467.397569 
L 94.358636 470.858061 
L 93.626089 474.955164 
L 92.691597 479.052267 
L 91.510633 483.14937 
L 90.02366 487.246473 
L 88.148046 491.343576 
L 86.184538 494.789286 
z
" clip-path="url(#pea9571446a)" style="fill: #7cbd7c; fill-opacity: 0.5"/>
    <path d="M 86.184538 494.789286 
L 88.148046 491.343576 
L 90.02366 487.246473 
L 91.510633 483.14937 
L 92.691597 479.052267 
L 93.626089 474.955164 
L 94.358636 470.858061 
L 94.838934 467.397569 
L 94.921572 466.760958 
L 95.331534 462.663855 
L 95.629633 458.566752 
L 95.840708 454.469649 
L 95.985279 450.372546 
L 96.079949 446.275443 
L 96.137365 442.17834 
L 96.166058 438.081238 
L 96.170465 433.984135 
L 96.151352 429.887032 
L 96.106658 425.789929 
L 96.032693 421.692826 
L 95.925432 417.595723 
L 95.781692 413.49862 
L 95.59995 409.401517 
L 95.380659 405.304414 
L 95.125972 401.207311 
L 94.838934 397.110208 
L 94.838934 397.110208 
L 94.337556 393.013105 
L 93.774333 388.916002 
L 93.15057 384.818899 
L 92.462084 380.721796 
L 91.698407 376.624693 
L 90.842933 372.52759 
L 89.873668 368.430487 
L 88.764384 364.333384 
L 87.486235 360.236281 
L 86.184538 356.600834 
L 85.35133 360.236281 
L 84.521062 364.333384 
L 83.790091 368.430487 
L 83.142226 372.52759 
L 82.560293 376.624693 
L 82.027176 380.721796 
L 81.527038 384.818899 
L 81.046594 388.916002 
L 80.576185 393.013105 
L 80.1104 397.110208 
L 79.648056 401.207311 
L 79.191561 405.304414 
L 78.745842 409.401517 
L 78.317174 413.49862 
L 77.912229 417.595723 
L 77.53752 421.692826 
L 77.530141 421.780402 
L 77.223523 425.789929 
L 76.95536 429.887032 
L 76.736034 433.984135 
L 76.568511 438.081238 
L 76.455763 442.17834 
L 76.401274 446.275443 
L 76.409521 450.372546 
L 76.486453 454.469649 
L 76.64003 458.566752 
L 76.880906 462.663855 
L 77.223354 466.760958 
L 77.530141 469.513102 
L 77.704319 470.858061 
L 78.384039 474.955164 
L 79.271763 479.052267 
L 80.431348 483.14937 
L 81.953975 487.246473 
L 83.970189 491.343576 
z
M 85.98324 491.343576 
L 83.731927 487.246473 
L 82.032757 483.14937 
L 80.740699 479.052267 
L 79.754208 474.955164 
L 79.00184 470.858061 
L 78.433364 466.760958 
L 78.013652 462.663855 
L 77.718265 458.566752 
L 77.530141 454.469649 
L 77.530141 454.469649 
L 77.447247 450.372546 
L 77.440522 446.275443 
L 77.503359 442.17834 
L 77.530141 441.30767 
L 77.641854 438.081238 
L 77.848067 433.984135 
L 78.112734 429.887032 
L 78.429989 425.789929 
L 78.794082 421.692826 
L 79.199105 417.595723 
L 79.638706 413.49862 
L 80.10594 409.401517 
L 80.593461 405.304414 
L 81.094191 401.207311 
L 81.60243 397.110208 
L 82.115202 393.013105 
L 82.633465 388.916002 
L 83.162838 384.818899 
L 83.713634 380.721796 
L 84.300204 376.624693 
L 84.939823 372.52759 
L 85.651364 368.430487 
L 86.184538 365.674609 
L 87.006 368.430487 
L 88.090447 372.52759 
L 89.051334 376.624693 
L 89.915561 380.721796 
L 90.70397 384.818899 
L 91.4302 388.916002 
L 92.100244 393.013105 
L 92.713098 397.110208 
L 93.262739 401.207311 
L 93.741232 405.304414 
L 94.142127 409.401517 
L 94.463129 413.49862 
L 94.707231 417.595723 
L 94.838934 420.633809 
L 94.872848 421.692826 
L 94.968851 425.789929 
L 95.031666 429.887032 
L 95.065221 433.984135 
L 95.071727 438.081238 
L 95.050353 442.17834 
L 94.996264 446.275443 
L 94.900139 450.372546 
L 94.838934 452.02883 
L 94.742633 454.469649 
L 94.505519 458.566752 
L 94.171158 462.663855 
L 93.71463 466.760958 
L 93.107954 470.858061 
L 92.31897 474.955164 
L 91.308873 479.052267 
L 90.028106 483.14937 
L 88.410216 487.246473 
L 86.363032 491.343576 
L 86.184538 491.656811 
z
" clip-path="url(#pea9571446a)" style="fill: #6bb46b; fill-opacity: 0.5"/>
    <path d="M 86.184538 491.656811 
L 86.363032 491.343576 
L 88.410216 487.246473 
L 90.028106 483.14937 
L 91.308873 479.052267 
L 92.31897 474.955164 
L 93.107954 470.858061 
L 93.71463 466.760958 
L 94.171158 462.663855 
L 94.505519 458.566752 
L 94.742633 454.469649 
L 94.838934 452.02883 
L 94.900139 450.372546 
L 94.996264 446.275443 
L 95.050353 442.17834 
L 95.071727 438.081238 
L 95.065221 433.984135 
L 95.031666 429.887032 
L 94.968851 425.789929 
L 94.872848 421.692826 
L 94.838934 420.633809 
L 94.707231 417.595723 
L 94.463129 413.49862 
L 94.142127 409.401517 
L 93.741232 405.304414 
L 93.262739 401.207311 
L 92.713098 397.110208 
L 92.100244 393.013105 
L 91.4302 388.916002 
L 90.70397 384.818899 
L 89.915561 380.721796 
L 89.051334 376.624693 
L 88.090447 372.52759 
L 87.006 368.430487 
L 86.184538 365.674609 
L 85.651364 368.430487 
L 84.939823 372.52759 
L 84.300204 376.624693 
L 83.713634 380.721796 
L 83.162838 384.818899 
L 82.633465 388.916002 
L 82.115202 393.013105 
L 81.60243 397.110208 
L 81.094191 401.207311 
L 80.593461 405.304414 
L 80.10594 409.401517 
L 79.638706 413.49862 
L 79.199105 417.595723 
L 78.794082 421.692826 
L 78.429989 425.789929 
L 78.112734 429.887032 
L 77.848067 433.984135 
L 77.641854 438.081238 
L 77.530141 441.30767 
L 77.503359 442.17834 
L 77.440522 446.275443 
L 77.447247 450.372546 
L 77.530141 454.469649 
L 77.530141 454.469649 
L 77.718265 458.566752 
L 78.013652 462.663855 
L 78.433364 466.760958 
L 79.00184 470.858061 
L 79.754208 474.955164 
L 80.740699 479.052267 
L 82.032757 483.14937 
L 83.731927 487.246473 
L 85.98324 491.343576 
z
M 84.990929 483.14937 
L 83.454162 479.052267 
L 82.285225 474.955164 
L 81.398658 470.858061 
L 80.733702 466.760958 
L 80.247109 462.663855 
L 79.90805 458.566752 
L 79.694386 454.469649 
L 79.589898 450.372546 
L 79.582267 446.275443 
L 79.661698 442.17834 
L 79.820067 438.081238 
L 80.050437 433.984135 
L 80.346743 429.887032 
L 80.703473 425.789929 
L 81.115239 421.692826 
L 81.576259 417.595723 
L 82.07988 413.49862 
L 82.618353 409.401517 
L 83.183091 405.304414 
L 83.765534 401.207311 
L 84.358553 397.110208 
L 84.958119 393.013105 
L 85.56478 388.916002 
L 86.184538 384.818899 
L 87.100047 388.916002 
L 87.967417 393.013105 
L 88.78619 397.110208 
L 89.548197 401.207311 
L 90.241182 405.304414 
L 90.853087 409.401517 
L 91.375747 413.49862 
L 91.806944 417.595723 
L 92.150464 421.692826 
L 92.414534 425.789929 
L 92.609379 429.887032 
L 92.744662 433.984135 
L 92.827291 438.081238 
L 92.859842 442.17834 
L 92.83963 446.275443 
L 92.758393 450.372546 
L 92.602471 454.469649 
L 92.353314 458.566752 
L 91.988069 462.663855 
L 91.479904 466.760958 
L 90.797656 470.858061 
L 89.90442 474.955164 
L 88.754666 479.052267 
L 87.289538 483.14937 
L 86.184538 485.666657 
z
" clip-path="url(#pea9571446a)" style="fill: #58ab58; fill-opacity: 0.5"/>
    <path d="M 86.184538 485.666657 
L 87.289538 483.14937 
L 88.754666 479.052267 
L 89.90442 474.955164 
L 90.797656 470.858061 
L 91.479904 466.760958 
L 91.988069 462.663855 
L 92.353314 458.566752 
L 92.602471 454.469649 
L 92.758393 450.372546 
L 92.83963 446.275443 
L 92.859842 442.17834 
L 92.827291 438.081238 
L 92.744662 433.984135 
L 92.609379 429.887032 
L 92.414534 425.789929 
L 92.150464 421.692826 
L 91.806944 417.595723 
L 91.375747 413.49862 
L 90.853087 409.401517 
L 90.241182 405.304414 
L 89.548197 401.207311 
L 88.78619 397.110208 
L 87.967417 393.013105 
L 87.100047 388.916002 
L 86.184538 384.818899 
L 85.56478 388.916002 
L 84.958119 393.013105 
L 84.358553 397.110208 
L 83.765534 401.207311 
L 83.183091 405.304414 
L 82.618353 409.401517 
L 82.07988 413.49862 
L 81.576259 417.595723 
L 81.115239 421.692826 
L 80.703473 425.789929 
L 80.346743 429.887032 
L 80.050437 433.984135 
L 79.820067 438.081238 
L 79.661698 442.17834 
L 79.582267 446.275443 
L 79.589898 450.372546 
L 79.694386 454.469649 
L 79.90805 458.566752 
L 80.247109 462.663855 
L 80.733702 466.760958 
L 81.398658 470.858061 
L 82.285225 474.955164 
L 83.454162 479.052267 
L 84.990929 483.14937 
z
M 85.75753 466.760958 
L 85.124873 462.663855 
L 84.690436 458.566752 
L 84.420995 454.469649 
L 84.29163 450.372546 
L 84.283483 446.275443 
L 84.38225 442.17834 
L 84.57718 438.081238 
L 84.860307 433.984135 
L 85.225712 429.887032 
L 85.668653 425.789929 
L 86.184538 421.692826 
L 86.770912 425.789929 
L 87.239782 429.887032 
L 87.600738 433.984135 
L 87.862176 438.081238 
L 88.028952 442.17834 
L 88.100802 446.275443 
L 88.071479 450.372546 
L 87.928457 454.469649 
L 87.652999 458.566752 
L 87.220306 462.663855 
L 86.599366 466.760958 
L 86.184538 468.800932 
z
" clip-path="url(#pea9571446a)" style="fill: #319831; fill-opacity: 0.5"/>
    <path d="M 86.184538 468.800932 
L 86.599366 466.760958 
L 87.220306 462.663855 
L 87.652999 458.566752 
L 87.928457 454.469649 
L 88.071479 450.372546 
L 88.100802 446.275443 
L 88.028952 442.17834 
L 87.862176 438.081238 
L 87.600738 433.984135 
L 87.239782 429.887032 
L 86.770912 425.789929 
L 86.184538 421.692826 
L 85.668653 425.789929 
L 85.225712 429.887032 
L 84.860307 433.984135 
L 84.57718 438.081238 
L 84.38225 442.17834 
L 84.283483 446.275443 
L 84.29163 450.372546 
L 84.420995 454.469649 
L 84.690436 458.566752 
L 85.124873 462.663855 
L 85.75753 466.760958 
z
" clip-path="url(#pea9571446a)" style="fill: #0a850a; fill-opacity: 0.5"/>
   </g>
   <g id="matplotlib.axis_1">
    <g id="xtick_1">
     <g id="line2d_1">
      <defs>
       <path id="m0c670760dd" d="M 0 0 
L 0 3.5 
" style="stroke: #000000; stroke-width: 0.8"/>
      </defs>
      <g>
       <use xlink:href="#m0c670760dd" x="123.599981" y="534.04" style="stroke: #000000; stroke-width: 0.8"/>
      </g>
     </g>
     <g id="text_1">
      <!-- 5 -->
      <g transform="translate(120.418731 548.638438) scale(0.1 -0.1)">
       <defs>
        <path id="DejaVuSans-35" d="M 691 4666 
L 3169 4666 
L 3169 4134 
L 1269 4134 
L 1269 2991 
Q 1406 3038 1543 3061 
Q 1681 3084 1819 3084 
Q 2600 3084 3056 2656 
Q 3513 2228 3513 1497 
Q 3513 744 3044 326 
Q 2575 -91 1722 -91 
Q 1428 -91 1123 -41 
Q 819 9 494 109 
L 494 744 
Q 775 591 1075 516 
Q 1375 441 1709 441 
Q 2250 441 2565 725 
Q 2881 1009 2881 1497 
Q 2881 1984 2565 2268 
Q 2250 2553 1709 2553 
Q 1456 2553 1204 2497 
Q 953 2441 691 2322 
L 691 4666 
z
" transform="scale(0.015625)"/>
       </defs>
       <use xlink:href="#DejaVuSans-35"/>
      </g>
     </g>
    </g>
    <g id="xtick_2">
     <g id="line2d_2">
      <g>
       <use xlink:href="#m0c670760dd" x="237.423633" y="534.04" style="stroke: #000000; stroke-width: 0.8"/>
      </g>
     </g>
     <g id="text_2">
      <!-- 10 -->
      <g transform="translate(231.061133 548.638438) scale(0.1 -0.1)">
       <defs>
        <path id="DejaVuSans-31" d="M 794 531 
L 1825 531 
L 1825 4091 
L 703 3866 
L 703 4441 
L 1819 4666 
L 2450 4666 
L 2450 531 
L 3481 531 
L 3481 0 
L 794 0 
L 794 531 
z
" transform="scale(0.015625)"/>
        <path id="DejaVuSans-30" d="M 2034 4250 
Q 1547 4250 1301 3770 
Q 1056 3291 1056 2328 
Q 1056 1369 1301 889 
Q 1547 409 2034 409 
Q 2525 409 2770 889 
Q 3016 1369 3016 2328 
Q 3016 3291 2770 3770 
Q 2525 4250 2034 4250 
z
M 2034 4750 
Q 2819 4750 3233 4129 
Q 3647 3509 3647 2328 
Q 3647 1150 3233 529 
Q 2819 -91 2034 -91 
Q 1250 -91 836 529 
Q 422 1150 422 2328 
Q 422 3509 836 4129 
Q 1250 4750 2034 4750 
z
" transform="scale(0.015625)"/>
       </defs>
       <use xlink:href="#DejaVuSans-31"/>
       <use xlink:href="#DejaVuSans-30" x="63.623047"/>
      </g>
     </g>
    </g>
    <g id="xtick_3">
     <g id="line2d_3">
      <g>
       <use xlink:href="#m0c670760dd" x="351.247286" y="534.04" style="stroke: #000000; stroke-width: 0.8"/>
      </g>
     </g>
     <g id="text_3">
      <!-- 15 -->
      <g transform="translate(344.884786 548.638438) scale(0.1 -0.1)">
       <use xlink:href="#DejaVuSans-31"/>
       <use xlink:href="#DejaVuSans-35" x="63.623047"/>
      </g>
     </g>
    </g>
    <g id="xtick_4">
     <g id="line2d_4">
      <g>
       <use xlink:href="#m0c670760dd" x="465.070938" y="534.04" style="stroke: #000000; stroke-width: 0.8"/>
      </g>
     </g>
     <g id="text_4">
      <!-- 20 -->
      <g transform="translate(458.708438 548.638438) scale(0.1 -0.1)">
       <defs>
        <path id="DejaVuSans-32" d="M 1228 531 
L 3431 531 
L 3431 0 
L 469 0 
L 469 531 
Q 828 903 1448 1529 
Q 2069 2156 2228 2338 
Q 2531 2678 2651 2914 
Q 2772 3150 2772 3378 
Q 2772 3750 2511 3984 
Q 2250 4219 1831 4219 
Q 1534 4219 1204 4116 
Q 875 4013 500 3803 
L 500 4441 
Q 881 4594 1212 4672 
Q 1544 4750 1819 4750 
Q 2544 4750 2975 4387 
Q 3406 4025 3406 3419 
Q 3406 3131 3298 2873 
Q 3191 2616 2906 2266 
Q 2828 2175 2409 1742 
Q 1991 1309 1228 531 
z
" transform="scale(0.015625)"/>
       </defs>
       <use xlink:href="#DejaVuSans-32"/>
       <use xlink:href="#DejaVuSans-30" x="63.623047"/>
      </g>
     </g>
    </g>
    <g id="xtick_5">
     <g id="line2d_5">
      <g>
       <use xlink:href="#m0c670760dd" x="578.89459" y="534.04" style="stroke: #000000; stroke-width: 0.8"/>
      </g>
     </g>
     <g id="text_5">
      <!-- 25 -->
      <g transform="translate(572.53209 548.638438) scale(0.1 -0.1)">
       <use xlink:href="#DejaVuSans-32"/>
       <use xlink:href="#DejaVuSans-35" x="63.623047"/>
      </g>
     </g>
    </g>
    <g id="xtick_6">
     <g id="line2d_6">
      <g>
       <use xlink:href="#m0c670760dd" x="692.718243" y="534.04" style="stroke: #000000; stroke-width: 0.8"/>
      </g>
     </g>
     <g id="text_6">
      <!-- 30 -->
      <g transform="translate(686.355743 548.638438) scale(0.1 -0.1)">
       <defs>
        <path id="DejaVuSans-33" d="M 2597 2516 
Q 3050 2419 3304 2112 
Q 3559 1806 3559 1356 
Q 3559 666 3084 287 
Q 2609 -91 1734 -91 
Q 1441 -91 1130 -33 
Q 819 25 488 141 
L 488 750 
Q 750 597 1062 519 
Q 1375 441 1716 441 
Q 2309 441 2620 675 
Q 2931 909 2931 1356 
Q 2931 1769 2642 2001 
Q 2353 2234 1838 2234 
L 1294 2234 
L 1294 2753 
L 1863 2753 
Q 2328 2753 2575 2939 
Q 2822 3125 2822 3475 
Q 2822 3834 2567 4026 
Q 2313 4219 1838 4219 
Q 1578 4219 1281 4162 
Q 984 4106 628 3988 
L 628 4550 
Q 988 4650 1302 4700 
Q 1616 4750 1894 4750 
Q 2613 4750 3031 4423 
Q 3450 4097 3450 3541 
Q 3450 3153 3228 2886 
Q 3006 2619 2597 2516 
z
" transform="scale(0.015625)"/>
       </defs>
       <use xlink:href="#DejaVuSans-33"/>
       <use xlink:href="#DejaVuSans-30" x="63.623047"/>
      </g>
     </g>
    </g>
    <g id="text_7">
     <!-- Energy Uncertainties -->
     <g transform="translate(324.512812 562.316563) scale(0.1 -0.1)">
      <defs>
       <path id="DejaVuSans-45" d="M 628 4666 
L 3578 4666 
L 3578 4134 
L 1259 4134 
L 1259 2753 
L 3481 2753 
L 3481 2222 
L 1259 2222 
L 1259 531 
L 3634 531 
L 3634 0 
L 628 0 
L 628 4666 
z
" transform="scale(0.015625)"/>
       <path id="DejaVuSans-6e" d="M 3513 2113 
L 3513 0 
L 2938 0 
L 2938 2094 
Q 2938 2591 2744 2837 
Q 2550 3084 2163 3084 
Q 1697 3084 1428 2787 
Q 1159 2491 1159 1978 
L 1159 0 
L 581 0 
L 581 3500 
L 1159 3500 
L 1159 2956 
Q 1366 3272 1645 3428 
Q 1925 3584 2291 3584 
Q 2894 3584 3203 3211 
Q 3513 2838 3513 2113 
z
" transform="scale(0.015625)"/>
       <path id="DejaVuSans-65" d="M 3597 1894 
L 3597 1613 
L 953 1613 
Q 991 1019 1311 708 
Q 1631 397 2203 397 
Q 2534 397 2845 478 
Q 3156 559 3463 722 
L 3463 178 
Q 3153 47 2828 -22 
Q 2503 -91 2169 -91 
Q 1331 -91 842 396 
Q 353 884 353 1716 
Q 353 2575 817 3079 
Q 1281 3584 2069 3584 
Q 2775 3584 3186 3129 
Q 3597 2675 3597 1894 
z
M 3022 2063 
Q 3016 2534 2758 2815 
Q 2500 3097 2075 3097 
Q 1594 3097 1305 2825 
Q 1016 2553 972 2059 
L 3022 2063 
z
" transform="scale(0.015625)"/>
       <path id="DejaVuSans-72" d="M 2631 2963 
Q 2534 3019 2420 3045 
Q 2306 3072 2169 3072 
Q 1681 3072 1420 2755 
Q 1159 2438 1159 1844 
L 1159 0 
L 581 0 
L 581 3500 
L 1159 3500 
L 1159 2956 
Q 1341 3275 1631 3429 
Q 1922 3584 2338 3584 
Q 2397 3584 2469 3576 
Q 2541 3569 2628 3553 
L 2631 2963 
z
" transform="scale(0.015625)"/>
       <path id="DejaVuSans-67" d="M 2906 1791 
Q 2906 2416 2648 2759 
Q 2391 3103 1925 3103 
Q 1463 3103 1205 2759 
Q 947 2416 947 1791 
Q 947 1169 1205 825 
Q 1463 481 1925 481 
Q 2391 481 2648 825 
Q 2906 1169 2906 1791 
z
M 3481 434 
Q 3481 -459 3084 -895 
Q 2688 -1331 1869 -1331 
Q 1566 -1331 1297 -1286 
Q 1028 -1241 775 -1147 
L 775 -588 
Q 1028 -725 1275 -790 
Q 1522 -856 1778 -856 
Q 2344 -856 2625 -561 
Q 2906 -266 2906 331 
L 2906 616 
Q 2728 306 2450 153 
Q 2172 0 1784 0 
Q 1141 0 747 490 
Q 353 981 353 1791 
Q 353 2603 747 3093 
Q 1141 3584 1784 3584 
Q 2172 3584 2450 3431 
Q 2728 3278 2906 2969 
L 2906 3500 
L 3481 3500 
L 3481 434 
z
" transform="scale(0.015625)"/>
       <path id="DejaVuSans-79" d="M 2059 -325 
Q 1816 -950 1584 -1140 
Q 1353 -1331 966 -1331 
L 506 -1331 
L 506 -850 
L 844 -850 
Q 1081 -850 1212 -737 
Q 1344 -625 1503 -206 
L 1606 56 
L 191 3500 
L 800 3500 
L 1894 763 
L 2988 3500 
L 3597 3500 
L 2059 -325 
z
" transform="scale(0.015625)"/>
       <path id="DejaVuSans-20" transform="scale(0.015625)"/>
       <path id="DejaVuSans-55" d="M 556 4666 
L 1191 4666 
L 1191 1831 
Q 1191 1081 1462 751 
Q 1734 422 2344 422 
Q 2950 422 3222 751 
Q 3494 1081 3494 1831 
L 3494 4666 
L 4128 4666 
L 4128 1753 
Q 4128 841 3676 375 
Q 3225 -91 2344 -91 
Q 1459 -91 1007 375 
Q 556 841 556 1753 
L 556 4666 
z
" transform="scale(0.015625)"/>
       <path id="DejaVuSans-63" d="M 3122 3366 
L 3122 2828 
Q 2878 2963 2633 3030 
Q 2388 3097 2138 3097 
Q 1578 3097 1268 2742 
Q 959 2388 959 1747 
Q 959 1106 1268 751 
Q 1578 397 2138 397 
Q 2388 397 2633 464 
Q 2878 531 3122 666 
L 3122 134 
Q 2881 22 2623 -34 
Q 2366 -91 2075 -91 
Q 1284 -91 818 406 
Q 353 903 353 1747 
Q 353 2603 823 3093 
Q 1294 3584 2113 3584 
Q 2378 3584 2631 3529 
Q 2884 3475 3122 3366 
z
" transform="scale(0.015625)"/>
       <path id="DejaVuSans-74" d="M 1172 4494 
L 1172 3500 
L 2356 3500 
L 2356 3053 
L 1172 3053 
L 1172 1153 
Q 1172 725 1289 603 
Q 1406 481 1766 481 
L 2356 481 
L 2356 0 
L 1766 0 
Q 1100 0 847 248 
Q 594 497 594 1153 
L 594 3053 
L 172 3053 
L 172 3500 
L 594 3500 
L 594 4494 
L 1172 4494 
z
" transform="scale(0.015625)"/>
       <path id="DejaVuSans-61" d="M 2194 1759 
Q 1497 1759 1228 1600 
Q 959 1441 959 1056 
Q 959 750 1161 570 
Q 1363 391 1709 391 
Q 2188 391 2477 730 
Q 2766 1069 2766 1631 
L 2766 1759 
L 2194 1759 
z
M 3341 1997 
L 3341 0 
L 2766 0 
L 2766 531 
Q 2569 213 2275 61 
Q 1981 -91 1556 -91 
Q 1019 -91 701 211 
Q 384 513 384 1019 
Q 384 1609 779 1909 
Q 1175 2209 1959 2209 
L 2766 2209 
L 2766 2266 
Q 2766 2663 2505 2880 
Q 2244 3097 1772 3097 
Q 1472 3097 1187 3025 
Q 903 2953 641 2809 
L 641 3341 
Q 956 3463 1253 3523 
Q 1550 3584 1831 3584 
Q 2591 3584 2966 3190 
Q 3341 2797 3341 1997 
z
" transform="scale(0.015625)"/>
       <path id="DejaVuSans-69" d="M 603 3500 
L 1178 3500 
L 1178 0 
L 603 0 
L 603 3500 
z
M 603 4863 
L 1178 4863 
L 1178 4134 
L 603 4134 
L 603 4863 
z
" transform="scale(0.015625)"/>
       <path id="DejaVuSans-73" d="M 2834 3397 
L 2834 2853 
Q 2591 2978 2328 3040 
Q 2066 3103 1784 3103 
Q 1356 3103 1142 2972 
Q 928 2841 928 2578 
Q 928 2378 1081 2264 
Q 1234 2150 1697 2047 
L 1894 2003 
Q 2506 1872 2764 1633 
Q 3022 1394 3022 966 
Q 3022 478 2636 193 
Q 2250 -91 1575 -91 
Q 1294 -91 989 -36 
Q 684 19 347 128 
L 347 722 
Q 666 556 975 473 
Q 1284 391 1588 391 
Q 1994 391 2212 530 
Q 2431 669 2431 922 
Q 2431 1156 2273 1281 
Q 2116 1406 1581 1522 
L 1381 1569 
Q 847 1681 609 1914 
Q 372 2147 372 2553 
Q 372 3047 722 3315 
Q 1072 3584 1716 3584 
Q 2034 3584 2315 3537 
Q 2597 3491 2834 3397 
z
" transform="scale(0.015625)"/>
      </defs>
      <use xlink:href="#DejaVuSans-45"/>
      <use xlink:href="#DejaVuSans-6e" x="63.183594"/>
      <use xlink:href="#DejaVuSans-65" x="126.5625"/>
      <use xlink:href="#DejaVuSans-72" x="188.085938"/>
      <use xlink:href="#DejaVuSans-67" x="227.449219"/>
      <use xlink:href="#DejaVuSans-79" x="290.925781"/>
      <use xlink:href="#DejaVuSans-20" x="350.105469"/>
      <use xlink:href="#DejaVuSans-55" x="381.892578"/>
      <use xlink:href="#DejaVuSans-6e" x="455.085938"/>
      <use xlink:href="#DejaVuSans-63" x="518.464844"/>
      <use xlink:href="#DejaVuSans-65" x="573.445312"/>
      <use xlink:href="#DejaVuSans-72" x="634.96875"/>
      <use xlink:href="#DejaVuSans-74" x="676.082031"/>
      <use xlink:href="#DejaVuSans-61" x="715.291016"/>
      <use xlink:href="#DejaVuSans-69" x="776.570312"/>
      <use xlink:href="#DejaVuSans-6e" x="804.353516"/>
      <use xlink:href="#DejaVuSans-74" x="867.732422"/>
      <use xlink:href="#DejaVuSans-69" x="906.941406"/>
      <use xlink:href="#DejaVuSans-65" x="934.724609"/>
      <use xlink:href="#DejaVuSans-73" x="996.248047"/>
     </g>
    </g>
   </g>
   <g id="matplotlib.axis_2">
    <g id="ytick_1">
     <g id="line2d_7">
      <defs>
       <path id="m58fccf78a6" d="M 0 0 
L -3.5 0 
" style="stroke: #000000; stroke-width: 0.8"/>
      </defs>
      <g>
       <use xlink:href="#m58fccf78a6" x="44.66" y="473.623962" style="stroke: #000000; stroke-width: 0.8"/>
      </g>
     </g>
     <g id="text_8">
      <!-- 5 -->
      <g transform="translate(31.2975 477.42318) scale(0.1 -0.1)">
       <use xlink:href="#DejaVuSans-35"/>
      </g>
     </g>
    </g>
    <g id="ytick_2">
     <g id="line2d_8">
      <g>
       <use xlink:href="#m58fccf78a6" x="44.66" y="386.510004" style="stroke: #000000; stroke-width: 0.8"/>
      </g>
     </g>
     <g id="text_9">
      <!-- 10 -->
      <g transform="translate(24.935 390.309222) scale(0.1 -0.1)">
       <use xlink:href="#DejaVuSans-31"/>
       <use xlink:href="#DejaVuSans-30" x="63.623047"/>
      </g>
     </g>
    </g>
    <g id="ytick_3">
     <g id="line2d_9">
      <g>
       <use xlink:href="#m58fccf78a6" x="44.66" y="299.396046" style="stroke: #000000; stroke-width: 0.8"/>
      </g>
     </g>
     <g id="text_10">
      <!-- 15 -->
      <g transform="translate(24.935 303.195264) scale(0.1 -0.1)">
       <use xlink:href="#DejaVuSans-31"/>
       <use xlink:href="#DejaVuSans-35" x="63.623047"/>
      </g>
     </g>
    </g>
    <g id="ytick_4">
     <g id="line2d_10">
      <g>
       <use xlink:href="#m58fccf78a6" x="44.66" y="212.282088" style="stroke: #000000; stroke-width: 0.8"/>
      </g>
     </g>
     <g id="text_11">
      <!-- 20 -->
      <g transform="translate(24.935 216.081306) scale(0.1 -0.1)">
       <use xlink:href="#DejaVuSans-32"/>
       <use xlink:href="#DejaVuSans-30" x="63.623047"/>
      </g>
     </g>
    </g>
    <g id="ytick_5">
     <g id="line2d_11">
      <g>
       <use xlink:href="#m58fccf78a6" x="44.66" y="125.16813" style="stroke: #000000; stroke-width: 0.8"/>
      </g>
     </g>
     <g id="text_12">
      <!-- 25 -->
      <g transform="translate(24.935 128.967348) scale(0.1 -0.1)">
       <use xlink:href="#DejaVuSans-32"/>
       <use xlink:href="#DejaVuSans-35" x="63.623047"/>
      </g>
     </g>
    </g>
    <g id="ytick_6">
     <g id="line2d_12">
      <g>
       <use xlink:href="#m58fccf78a6" x="44.66" y="38.054172" style="stroke: #000000; stroke-width: 0.8"/>
      </g>
     </g>
     <g id="text_13">
      <!-- 30 -->
      <g transform="translate(24.935 41.85339) scale(0.1 -0.1)">
       <use xlink:href="#DejaVuSans-33"/>
       <use xlink:href="#DejaVuSans-30" x="63.623047"/>
      </g>
     </g>
    </g>
    <g id="text_14">
     <!-- Force Errors -->
     <g transform="translate(18.855313 309.641563) rotate(-90) scale(0.1 -0.1)">
      <defs>
       <path id="DejaVuSans-46" d="M 628 4666 
L 3309 4666 
L 3309 4134 
L 1259 4134 
L 1259 2759 
L 3109 2759 
L 3109 2228 
L 1259 2228 
L 1259 0 
L 628 0 
L 628 4666 
z
" transform="scale(0.015625)"/>
       <path id="DejaVuSans-6f" d="M 1959 3097 
Q 1497 3097 1228 2736 
Q 959 2375 959 1747 
Q 959 1119 1226 758 
Q 1494 397 1959 397 
Q 2419 397 2687 759 
Q 2956 1122 2956 1747 
Q 2956 2369 2687 2733 
Q 2419 3097 1959 3097 
z
M 1959 3584 
Q 2709 3584 3137 3096 
Q 3566 2609 3566 1747 
Q 3566 888 3137 398 
Q 2709 -91 1959 -91 
Q 1206 -91 779 398 
Q 353 888 353 1747 
Q 353 2609 779 3096 
Q 1206 3584 1959 3584 
z
" transform="scale(0.015625)"/>
      </defs>
      <use xlink:href="#DejaVuSans-46"/>
      <use xlink:href="#DejaVuSans-6f" x="53.894531"/>
      <use xlink:href="#DejaVuSans-72" x="115.076172"/>
      <use xlink:href="#DejaVuSans-63" x="153.939453"/>
      <use xlink:href="#DejaVuSans-65" x="208.919922"/>
      <use xlink:href="#DejaVuSans-20" x="270.443359"/>
      <use xlink:href="#DejaVuSans-45" x="302.230469"/>
      <use xlink:href="#DejaVuSans-72" x="365.414062"/>
      <use xlink:href="#DejaVuSans-72" x="404.777344"/>
      <use xlink:href="#DejaVuSans-6f" x="443.640625"/>
      <use xlink:href="#DejaVuSans-72" x="504.822266"/>
      <use xlink:href="#DejaVuSans-73" x="545.935547"/>
     </g>
    </g>
   </g>
   <g id="line2d_13">
    <path d="M 44.66 534.04 
L 709.2 25.44 
" clip-path="url(#pea9571446a)" style="fill: none; stroke-dasharray: 5.55,2.4; stroke-dashoffset: 0; stroke: #ff0000; stroke-width: 1.5"/>
   </g>
   <g id="patch_3">
    <path d="M 44.66 534.04 
L 44.66 25.44 
" style="fill: none; stroke: #000000; stroke-width: 0.8; stroke-linejoin: miter; stroke-linecap: square"/>
   </g>
   <g id="patch_4">
    <path d="M 709.2 534.04 
L 709.2 25.44 
" style="fill: none; stroke: #000000; stroke-width: 0.8; stroke-linejoin: miter; stroke-linecap: square"/>
   </g>
   <g id="patch_5">
    <path d="M 44.66 534.04 
L 709.2 534.04 
" style="fill: none; stroke: #000000; stroke-width: 0.8; stroke-linejoin: miter; stroke-linecap: square"/>
   </g>
   <g id="patch_6">
    <path d="M 44.66 25.44 
L 709.2 25.44 
" style="fill: none; stroke: #000000; stroke-width: 0.8; stroke-linejoin: miter; stroke-linecap: square"/>
   </g>
   <g id="text_15">
    <!-- Correlation in: 0.2075365765925798 -->
    <g transform="translate(111.114 65.102187) scale(0.1 -0.1)">
     <defs>
      <path id="DejaVuSans-43" d="M 4122 4306 
L 4122 3641 
Q 3803 3938 3442 4084 
Q 3081 4231 2675 4231 
Q 1875 4231 1450 3742 
Q 1025 3253 1025 2328 
Q 1025 1406 1450 917 
Q 1875 428 2675 428 
Q 3081 428 3442 575 
Q 3803 722 4122 1019 
L 4122 359 
Q 3791 134 3420 21 
Q 3050 -91 2638 -91 
Q 1578 -91 968 557 
Q 359 1206 359 2328 
Q 359 3453 968 4101 
Q 1578 4750 2638 4750 
Q 3056 4750 3426 4639 
Q 3797 4528 4122 4306 
z
" transform="scale(0.015625)"/>
      <path id="DejaVuSans-6c" d="M 603 4863 
L 1178 4863 
L 1178 0 
L 603 0 
L 603 4863 
z
" transform="scale(0.015625)"/>
      <path id="DejaVuSans-3a" d="M 750 794 
L 1409 794 
L 1409 0 
L 750 0 
L 750 794 
z
M 750 3309 
L 1409 3309 
L 1409 2516 
L 750 2516 
L 750 3309 
z
" transform="scale(0.015625)"/>
      <path id="DejaVuSans-2e" d="M 684 794 
L 1344 794 
L 1344 0 
L 684 0 
L 684 794 
z
" transform="scale(0.015625)"/>
      <path id="DejaVuSans-37" d="M 525 4666 
L 3525 4666 
L 3525 4397 
L 1831 0 
L 1172 0 
L 2766 4134 
L 525 4134 
L 525 4666 
z
" transform="scale(0.015625)"/>
      <path id="DejaVuSans-36" d="M 2113 2584 
Q 1688 2584 1439 2293 
Q 1191 2003 1191 1497 
Q 1191 994 1439 701 
Q 1688 409 2113 409 
Q 2538 409 2786 701 
Q 3034 994 3034 1497 
Q 3034 2003 2786 2293 
Q 2538 2584 2113 2584 
z
M 3366 4563 
L 3366 3988 
Q 3128 4100 2886 4159 
Q 2644 4219 2406 4219 
Q 1781 4219 1451 3797 
Q 1122 3375 1075 2522 
Q 1259 2794 1537 2939 
Q 1816 3084 2150 3084 
Q 2853 3084 3261 2657 
Q 3669 2231 3669 1497 
Q 3669 778 3244 343 
Q 2819 -91 2113 -91 
Q 1303 -91 875 529 
Q 447 1150 447 2328 
Q 447 3434 972 4092 
Q 1497 4750 2381 4750 
Q 2619 4750 2861 4703 
Q 3103 4656 3366 4563 
z
" transform="scale(0.015625)"/>
      <path id="DejaVuSans-39" d="M 703 97 
L 703 672 
Q 941 559 1184 500 
Q 1428 441 1663 441 
Q 2288 441 2617 861 
Q 2947 1281 2994 2138 
Q 2813 1869 2534 1725 
Q 2256 1581 1919 1581 
Q 1219 1581 811 2004 
Q 403 2428 403 3163 
Q 403 3881 828 4315 
Q 1253 4750 1959 4750 
Q 2769 4750 3195 4129 
Q 3622 3509 3622 2328 
Q 3622 1225 3098 567 
Q 2575 -91 1691 -91 
Q 1453 -91 1209 -44 
Q 966 3 703 97 
z
M 1959 2075 
Q 2384 2075 2632 2365 
Q 2881 2656 2881 3163 
Q 2881 3666 2632 3958 
Q 2384 4250 1959 4250 
Q 1534 4250 1286 3958 
Q 1038 3666 1038 3163 
Q 1038 2656 1286 2365 
Q 1534 2075 1959 2075 
z
" transform="scale(0.015625)"/>
      <path id="DejaVuSans-38" d="M 2034 2216 
Q 1584 2216 1326 1975 
Q 1069 1734 1069 1313 
Q 1069 891 1326 650 
Q 1584 409 2034 409 
Q 2484 409 2743 651 
Q 3003 894 3003 1313 
Q 3003 1734 2745 1975 
Q 2488 2216 2034 2216 
z
M 1403 2484 
Q 997 2584 770 2862 
Q 544 3141 544 3541 
Q 544 4100 942 4425 
Q 1341 4750 2034 4750 
Q 2731 4750 3128 4425 
Q 3525 4100 3525 3541 
Q 3525 3141 3298 2862 
Q 3072 2584 2669 2484 
Q 3125 2378 3379 2068 
Q 3634 1759 3634 1313 
Q 3634 634 3220 271 
Q 2806 -91 2034 -91 
Q 1263 -91 848 271 
Q 434 634 434 1313 
Q 434 1759 690 2068 
Q 947 2378 1403 2484 
z
M 1172 3481 
Q 1172 3119 1398 2916 
Q 1625 2713 2034 2713 
Q 2441 2713 2670 2916 
Q 2900 3119 2900 3481 
Q 2900 3844 2670 4047 
Q 2441 4250 2034 4250 
Q 1625 4250 1398 4047 
Q 1172 3844 1172 3481 
z
" transform="scale(0.015625)"/>
     </defs>
     <use xlink:href="#DejaVuSans-43"/>
     <use xlink:href="#DejaVuSans-6f" x="69.824219"/>
     <use xlink:href="#DejaVuSans-72" x="131.005859"/>
     <use xlink:href="#DejaVuSans-72" x="170.369141"/>
     <use xlink:href="#DejaVuSans-65" x="209.232422"/>
     <use xlink:href="#DejaVuSans-6c" x="270.755859"/>
     <use xlink:href="#DejaVuSans-61" x="298.539062"/>
     <use xlink:href="#DejaVuSans-74" x="359.818359"/>
     <use xlink:href="#DejaVuSans-69" x="399.027344"/>
     <use xlink:href="#DejaVuSans-6f" x="426.810547"/>
     <use xlink:href="#DejaVuSans-6e" x="487.992188"/>
     <use xlink:href="#DejaVuSans-20" x="551.371094"/>
     <use xlink:href="#DejaVuSans-69" x="583.158203"/>
     <use xlink:href="#DejaVuSans-6e" x="610.941406"/>
     <use xlink:href="#DejaVuSans-3a" x="674.320312"/>
     <use xlink:href="#DejaVuSans-20" x="708.011719"/>
     <use xlink:href="#DejaVuSans-30" x="739.798828"/>
     <use xlink:href="#DejaVuSans-2e" x="803.421875"/>
     <use xlink:href="#DejaVuSans-32" x="835.208984"/>
     <use xlink:href="#DejaVuSans-30" x="898.832031"/>
     <use xlink:href="#DejaVuSans-37" x="962.455078"/>
     <use xlink:href="#DejaVuSans-35" x="1026.078125"/>
     <use xlink:href="#DejaVuSans-33" x="1089.701172"/>
     <use xlink:href="#DejaVuSans-36" x="1153.324219"/>
     <use xlink:href="#DejaVuSans-35" x="1216.947266"/>
     <use xlink:href="#DejaVuSans-37" x="1280.570312"/>
     <use xlink:href="#DejaVuSans-36" x="1344.193359"/>
     <use xlink:href="#DejaVuSans-35" x="1407.816406"/>
     <use xlink:href="#DejaVuSans-39" x="1471.439453"/>
     <use xlink:href="#DejaVuSans-32" x="1535.0625"/>
     <use xlink:href="#DejaVuSans-35" x="1598.685547"/>
     <use xlink:href="#DejaVuSans-37" x="1662.308594"/>
     <use xlink:href="#DejaVuSans-39" x="1725.931641"/>
     <use xlink:href="#DejaVuSans-38" x="1789.554688"/>
    </g>
    <!-- Correlation Out: 0.16812195279845563 -->
    <g transform="translate(111.114 76.3) scale(0.1 -0.1)">
     <defs>
      <path id="DejaVuSans-4f" d="M 2522 4238 
Q 1834 4238 1429 3725 
Q 1025 3213 1025 2328 
Q 1025 1447 1429 934 
Q 1834 422 2522 422 
Q 3209 422 3611 934 
Q 4013 1447 4013 2328 
Q 4013 3213 3611 3725 
Q 3209 4238 2522 4238 
z
M 2522 4750 
Q 3503 4750 4090 4092 
Q 4678 3434 4678 2328 
Q 4678 1225 4090 567 
Q 3503 -91 2522 -91 
Q 1538 -91 948 565 
Q 359 1222 359 2328 
Q 359 3434 948 4092 
Q 1538 4750 2522 4750 
z
" transform="scale(0.015625)"/>
      <path id="DejaVuSans-75" d="M 544 1381 
L 544 3500 
L 1119 3500 
L 1119 1403 
Q 1119 906 1312 657 
Q 1506 409 1894 409 
Q 2359 409 2629 706 
Q 2900 1003 2900 1516 
L 2900 3500 
L 3475 3500 
L 3475 0 
L 2900 0 
L 2900 538 
Q 2691 219 2414 64 
Q 2138 -91 1772 -91 
Q 1169 -91 856 284 
Q 544 659 544 1381 
z
M 1991 3584 
L 1991 3584 
z
" transform="scale(0.015625)"/>
      <path id="DejaVuSans-34" d="M 2419 4116 
L 825 1625 
L 2419 1625 
L 2419 4116 
z
M 2253 4666 
L 3047 4666 
L 3047 1625 
L 3713 1625 
L 3713 1100 
L 3047 1100 
L 3047 0 
L 2419 0 
L 2419 1100 
L 313 1100 
L 313 1709 
L 2253 4666 
z
" transform="scale(0.015625)"/>
     </defs>
     <use xlink:href="#DejaVuSans-43"/>
     <use xlink:href="#DejaVuSans-6f" x="69.824219"/>
     <use xlink:href="#DejaVuSans-72" x="131.005859"/>
     <use xlink:href="#DejaVuSans-72" x="170.369141"/>
     <use xlink:href="#DejaVuSans-65" x="209.232422"/>
     <use xlink:href="#DejaVuSans-6c" x="270.755859"/>
     <use xlink:href="#DejaVuSans-61" x="298.539062"/>
     <use xlink:href="#DejaVuSans-74" x="359.818359"/>
     <use xlink:href="#DejaVuSans-69" x="399.027344"/>
     <use xlink:href="#DejaVuSans-6f" x="426.810547"/>
     <use xlink:href="#DejaVuSans-6e" x="487.992188"/>
     <use xlink:href="#DejaVuSans-20" x="551.371094"/>
     <use xlink:href="#DejaVuSans-4f" x="583.158203"/>
     <use xlink:href="#DejaVuSans-75" x="661.869141"/>
     <use xlink:href="#DejaVuSans-74" x="725.248047"/>
     <use xlink:href="#DejaVuSans-3a" x="764.457031"/>
     <use xlink:href="#DejaVuSans-20" x="798.148438"/>
     <use xlink:href="#DejaVuSans-30" x="829.935547"/>
     <use xlink:href="#DejaVuSans-2e" x="893.558594"/>
     <use xlink:href="#DejaVuSans-31" x="925.345703"/>
     <use xlink:href="#DejaVuSans-36" x="988.96875"/>
     <use xlink:href="#DejaVuSans-38" x="1052.591797"/>
     <use xlink:href="#DejaVuSans-31" x="1116.214844"/>
     <use xlink:href="#DejaVuSans-32" x="1179.837891"/>
     <use xlink:href="#DejaVuSans-31" x="1243.460938"/>
     <use xlink:href="#DejaVuSans-39" x="1307.083984"/>
     <use xlink:href="#DejaVuSans-35" x="1370.707031"/>
     <use xlink:href="#DejaVuSans-32" x="1434.330078"/>
     <use xlink:href="#DejaVuSans-37" x="1497.953125"/>
     <use xlink:href="#DejaVuSans-39" x="1561.576172"/>
     <use xlink:href="#DejaVuSans-38" x="1625.199219"/>
     <use xlink:href="#DejaVuSans-34" x="1688.822266"/>
     <use xlink:href="#DejaVuSans-35" x="1752.445312"/>
     <use xlink:href="#DejaVuSans-35" x="1816.068359"/>
     <use xlink:href="#DejaVuSans-36" x="1879.691406"/>
     <use xlink:href="#DejaVuSans-33" x="1943.314453"/>
    </g>
   </g>
   <g id="text_16">
    <!-- MVE -->
    <g transform="translate(363.8575 19.44) scale(0.12 -0.12)">
     <defs>
      <path id="DejaVuSans-4d" d="M 628 4666 
L 1569 4666 
L 2759 1491 
L 3956 4666 
L 4897 4666 
L 4897 0 
L 4281 0 
L 4281 4097 
L 3078 897 
L 2444 897 
L 1241 4097 
L 1241 0 
L 628 0 
L 628 4666 
z
" transform="scale(0.015625)"/>
      <path id="DejaVuSans-56" d="M 1831 0 
L 50 4666 
L 709 4666 
L 2188 738 
L 3669 4666 
L 4325 4666 
L 2547 0 
L 1831 0 
z
" transform="scale(0.015625)"/>
     </defs>
     <use xlink:href="#DejaVuSans-4d"/>
     <use xlink:href="#DejaVuSans-56" x="86.279297"/>
     <use xlink:href="#DejaVuSans-45" x="154.6875"/>
    </g>
   </g>
   <g id="legend_1">
    <g id="patch_7">
     <path d="M 577.7375 62.79625 
L 702.2 62.79625 
Q 704.2 62.79625 704.2 60.79625 
L 704.2 32.44 
Q 704.2 30.44 702.2 30.44 
L 577.7375 30.44 
Q 575.7375 30.44 575.7375 32.44 
L 575.7375 60.79625 
Q 575.7375 62.79625 577.7375 62.79625 
z
" style="fill: #ffffff; opacity: 0.8; stroke: #cccccc; stroke-linejoin: miter"/>
    </g>
    <g id="line2d_14">
     <defs>
      <path id="mc10b89f7e2" d="M 0 2.5 
C 0.663008 2.5 1.29895 2.236584 1.767767 1.767767 
C 2.236584 1.29895 2.5 0.663008 2.5 0 
C 2.5 -0.663008 2.236584 -1.29895 1.767767 -1.767767 
C 1.29895 -2.236584 0.663008 -2.5 0 -2.5 
C -0.663008 -2.5 -1.29895 -2.236584 -1.767767 -1.767767 
C -2.236584 -1.29895 -2.5 -0.663008 -2.5 0 
C -2.5 0.663008 -2.236584 1.29895 -1.767767 1.767767 
C -1.29895 2.236584 -0.663008 2.5 0 2.5 
z
" style="stroke: #ffffff"/>
     </defs>
     <g>
      <use xlink:href="#mc10b89f7e2" x="589.7375" y="38.538437" style="fill: #0000ff; stroke: #ffffff"/>
     </g>
    </g>
    <g id="text_17">
     <!-- In Distribution -->
     <g transform="translate(607.7375 42.038437) scale(0.1 -0.1)">
      <defs>
       <path id="DejaVuSans-49" d="M 628 4666 
L 1259 4666 
L 1259 0 
L 628 0 
L 628 4666 
z
" transform="scale(0.015625)"/>
       <path id="DejaVuSans-44" d="M 1259 4147 
L 1259 519 
L 2022 519 
Q 2988 519 3436 956 
Q 3884 1394 3884 2338 
Q 3884 3275 3436 3711 
Q 2988 4147 2022 4147 
L 1259 4147 
z
M 628 4666 
L 1925 4666 
Q 3281 4666 3915 4102 
Q 4550 3538 4550 2338 
Q 4550 1131 3912 565 
Q 3275 0 1925 0 
L 628 0 
L 628 4666 
z
" transform="scale(0.015625)"/>
       <path id="DejaVuSans-62" d="M 3116 1747 
Q 3116 2381 2855 2742 
Q 2594 3103 2138 3103 
Q 1681 3103 1420 2742 
Q 1159 2381 1159 1747 
Q 1159 1113 1420 752 
Q 1681 391 2138 391 
Q 2594 391 2855 752 
Q 3116 1113 3116 1747 
z
M 1159 2969 
Q 1341 3281 1617 3432 
Q 1894 3584 2278 3584 
Q 2916 3584 3314 3078 
Q 3713 2572 3713 1747 
Q 3713 922 3314 415 
Q 2916 -91 2278 -91 
Q 1894 -91 1617 61 
Q 1341 213 1159 525 
L 1159 0 
L 581 0 
L 581 4863 
L 1159 4863 
L 1159 2969 
z
" transform="scale(0.015625)"/>
      </defs>
      <use xlink:href="#DejaVuSans-49"/>
      <use xlink:href="#DejaVuSans-6e" x="29.492188"/>
      <use xlink:href="#DejaVuSans-20" x="92.871094"/>
      <use xlink:href="#DejaVuSans-44" x="124.658203"/>
      <use xlink:href="#DejaVuSans-69" x="201.660156"/>
      <use xlink:href="#DejaVuSans-73" x="229.443359"/>
      <use xlink:href="#DejaVuSans-74" x="281.542969"/>
      <use xlink:href="#DejaVuSans-72" x="320.751953"/>
      <use xlink:href="#DejaVuSans-69" x="361.865234"/>
      <use xlink:href="#DejaVuSans-62" x="389.648438"/>
      <use xlink:href="#DejaVuSans-75" x="453.125"/>
      <use xlink:href="#DejaVuSans-74" x="516.503906"/>
      <use xlink:href="#DejaVuSans-69" x="555.712891"/>
      <use xlink:href="#DejaVuSans-6f" x="583.496094"/>
      <use xlink:href="#DejaVuSans-6e" x="644.677734"/>
     </g>
    </g>
    <g id="line2d_15">
     <defs>
      <path id="mee56286ad1" d="M 0 2.5 
C 0.663008 2.5 1.29895 2.236584 1.767767 1.767767 
C 2.236584 1.29895 2.5 0.663008 2.5 0 
C 2.5 -0.663008 2.236584 -1.29895 1.767767 -1.767767 
C 1.29895 -2.236584 0.663008 -2.5 0 -2.5 
C -0.663008 -2.5 -1.29895 -2.236584 -1.767767 -1.767767 
C -2.236584 -1.29895 -2.5 -0.663008 -2.5 0 
C -2.5 0.663008 -2.236584 1.29895 -1.767767 1.767767 
C -1.29895 2.236584 -0.663008 2.5 0 2.5 
z
" style="stroke: #ffffff"/>
     </defs>
     <g>
      <use xlink:href="#mee56286ad1" x="589.7375" y="53.216563" style="fill: #008000; stroke: #ffffff"/>
     </g>
    </g>
    <g id="text_18">
     <!-- Out of Distribution -->
     <g transform="translate(607.7375 56.716563) scale(0.1 -0.1)">
      <defs>
       <path id="DejaVuSans-66" d="M 2375 4863 
L 2375 4384 
L 1825 4384 
Q 1516 4384 1395 4259 
Q 1275 4134 1275 3809 
L 1275 3500 
L 2222 3500 
L 2222 3053 
L 1275 3053 
L 1275 0 
L 697 0 
L 697 3053 
L 147 3053 
L 147 3500 
L 697 3500 
L 697 3744 
Q 697 4328 969 4595 
Q 1241 4863 1831 4863 
L 2375 4863 
z
" transform="scale(0.015625)"/>
      </defs>
      <use xlink:href="#DejaVuSans-4f"/>
      <use xlink:href="#DejaVuSans-75" x="78.710938"/>
      <use xlink:href="#DejaVuSans-74" x="142.089844"/>
      <use xlink:href="#DejaVuSans-20" x="181.298828"/>
      <use xlink:href="#DejaVuSans-6f" x="213.085938"/>
      <use xlink:href="#DejaVuSans-66" x="274.267578"/>
      <use xlink:href="#DejaVuSans-20" x="309.472656"/>
      <use xlink:href="#DejaVuSans-44" x="341.259766"/>
      <use xlink:href="#DejaVuSans-69" x="418.261719"/>
      <use xlink:href="#DejaVuSans-73" x="446.044922"/>
      <use xlink:href="#DejaVuSans-74" x="498.144531"/>
      <use xlink:href="#DejaVuSans-72" x="537.353516"/>
      <use xlink:href="#DejaVuSans-69" x="578.466797"/>
      <use xlink:href="#DejaVuSans-62" x="606.25"/>
      <use xlink:href="#DejaVuSans-75" x="669.726562"/>
      <use xlink:href="#DejaVuSans-74" x="733.105469"/>
      <use xlink:href="#DejaVuSans-69" x="772.314453"/>
      <use xlink:href="#DejaVuSans-6f" x="800.097656"/>
      <use xlink:href="#DejaVuSans-6e" x="861.279297"/>
     </g>
    </g>
   </g>
  </g>
 </g>
 <defs>
  <clipPath id="pea9571446a">
   <rect x="44.66" y="25.44" width="664.54" height="508.6"/>
  </clipPath>
 </defs>
</svg>
