<?xml version="1.0" encoding="utf-8" standalone="no"?>
<!DOCTYPE svg PUBLIC "-//W3C//DTD SVG 1.1//EN"
  "http://www.w3.org/Graphics/SVG/1.1/DTD/svg11.dtd">
<svg xmlns:xlink="http://www.w3.org/1999/xlink" width="720pt" height="576pt" viewBox="0 0 720 576" xmlns="http://www.w3.org/2000/svg" version="1.1">
 <metadata>
  <rdf:RDF xmlns:dc="http://purl.org/dc/elements/1.1/" xmlns:cc="http://creativecommons.org/ns#" xmlns:rdf="http://www.w3.org/1999/02/22-rdf-syntax-ns#">
   <cc:Work>
    <dc:type rdf:resource="http://purl.org/dc/dcmitype/StillImage"/>
    <dc:date>2024-12-09T08:28:31.912204</dc:date>
    <dc:format>image/svg+xml</dc:format>
    <dc:creator>
     <cc:Agent>
      <dc:title>Matplotlib v3.8.4, https://matplotlib.org/</dc:title>
     </cc:Agent>
    </dc:creator>
   </cc:Work>
  </rdf:RDF>
 </metadata>
 <defs>
  <style type="text/css">*{stroke-linejoin: round; stroke-linecap: butt}</style>
 </defs>
 <g id="figure_1">
  <g id="patch_1">
   <path d="M 0 576 
L 720 576 
L 720 0 
L 0 0 
z
" style="fill: #ffffff"/>
  </g>
  <g id="axes_1">
   <g id="patch_2">
    <path d="M 83.72 499.48 
L 696.24 499.48 
L 696.24 23.76 
L 83.72 23.76 
z
" style="fill: #ffffff"/>
   </g>
   <g id="QuadContourSet_1">
    <path d="M 98.973534 485.661737 
L 107.664034 485.936073 
L 116.354535 483.720985 
L 120.530142 481.654897 
L 125.045035 480.261535 
L 133.735535 476.480594 
L 136.802473 474.751917 
L 142.426035 472.679181 
L 150.861231 467.848936 
L 151.116535 467.748003 
L 159.807035 464.323949 
L 165.777842 460.945956 
L 168.497535 459.834207 
L 177.188035 455.580563 
L 180.0424 454.042976 
L 185.878535 451.700009 
L 194.163703 447.139995 
L 194.569035 446.964815 
L 203.259535 442.653155 
L 206.852401 440.237015 
L 211.950035 437.537733 
L 218.023139 433.334034 
L 220.640535 431.833206 
L 228.217815 426.431054 
L 229.331035 425.739349 
L 237.785092 419.528073 
L 238.021535 419.368786 
L 246.712035 412.936398 
L 247.107357 412.625093 
L 255.402535 406.2506 
L 256.067808 405.722112 
L 264.093035 399.16862 
L 264.529175 398.819132 
L 272.627912 391.916151 
L 272.783535 391.770809 
L 280.668803 385.013171 
L 281.474035 384.196844 
L 288.360699 378.11019 
L 290.164535 376.125126 
L 295.56061 371.20721 
L 298.855035 367.271813 
L 302.013211 364.304229 
L 307.252245 357.401249 
L 307.545535 356.522882 
L 310.329764 350.498268 
L 307.737253 343.595288 
L 307.545535 343.353428 
L 302.992239 336.692308 
L 298.855035 334.48884 
L 290.164535 333.9389 
L 281.474035 335.958816 
L 279.887925 336.692308 
L 272.783535 338.746561 
L 264.093035 342.424626 
L 261.866988 343.595288 
L 255.402535 345.758722 
L 246.712035 350.498268 
L 246.712035 350.498268 
L 238.021535 352.819237 
L 229.331035 356.490706 
L 227.693285 357.401249 
L 220.640535 360.292261 
L 213.828284 364.304229 
L 211.950035 365.16353 
L 203.259535 370.436062 
L 202.232764 371.20721 
L 194.569035 375.993819 
L 191.78913 378.11019 
L 185.878535 382.051812 
L 182.040887 385.013171 
L 177.188035 388.468395 
L 172.779701 391.916151 
L 168.497535 395.171279 
L 163.895399 398.819132 
L 159.807035 402.137164 
L 155.344299 405.722112 
L 151.116535 409.385492 
L 147.137218 412.625093 
L 142.426035 416.983901 
L 139.342459 419.528073 
L 133.735535 425.067554 
L 132.10498 426.431054 
L 125.450238 433.334034 
L 125.045035 433.860928 
L 118.888734 440.237015 
L 116.354535 443.895136 
L 113.377493 447.139995 
L 108.71735 454.042976 
L 107.664034 456.117311 
L 104.161745 460.945956 
L 100.251363 467.848936 
L 98.973534 470.696475 
L 96.09701 474.751917 
L 94.933114 481.654897 
z
M 113.56897 467.848936 
L 115.542252 460.945956 
L 116.354535 459.966993 
L 119.815899 454.042976 
L 125.045035 448.163152 
L 125.721033 447.139995 
L 130.904782 440.237015 
L 133.735535 437.118277 
L 136.568965 433.334034 
L 142.426035 427.315747 
L 143.17647 426.431054 
L 150.039096 419.528073 
L 151.116535 418.567274 
L 157.346598 412.625093 
L 159.807035 410.53704 
L 165.402912 405.722112 
L 168.497535 403.223301 
L 174.172771 398.819132 
L 177.188035 396.503571 
L 183.745607 391.916151 
L 185.878535 390.359384 
L 194.362367 385.013171 
L 194.569035 384.869935 
L 203.259535 379.444715 
L 206.005091 378.11019 
L 211.950035 374.658445 
L 220.104704 371.20721 
L 220.640535 370.921403 
L 229.331035 365.753358 
L 232.640798 364.304229 
L 238.021535 361.133443 
L 246.712035 357.592585 
L 247.251848 357.401249 
L 255.402535 353.424435 
L 264.093035 350.583691 
L 264.619344 350.498268 
L 272.783535 348.646612 
L 281.474035 350.458008 
L 281.52814 350.498268 
L 283.681187 357.401249 
L 282.520553 364.304229 
L 281.474035 368.221621 
L 280.888942 371.20721 
L 276.374798 378.11019 
L 272.783535 382.012425 
L 270.373426 385.013171 
L 264.093035 391.07225 
L 263.293883 391.916151 
L 255.402535 398.773682 
L 255.352536 398.819132 
L 246.712035 405.669153 
L 246.645237 405.722112 
L 238.021535 412.031765 
L 237.173572 412.625093 
L 229.331035 417.977407 
L 226.846727 419.528073 
L 220.640535 423.51787 
L 215.459593 426.431054 
L 211.950035 428.575755 
L 203.259535 433.14582 
L 202.916941 433.334034 
L 194.569035 438.405239 
L 190.951644 440.237015 
L 185.878535 443.24616 
L 177.585771 447.139995 
L 177.188035 447.371452 
L 168.497535 452.538917 
L 165.211023 454.042976 
L 159.807035 457.253708 
L 151.116535 460.945956 
L 151.116535 460.945956 
L 142.426035 465.596504 
L 136.217071 467.848936 
L 133.735535 469.140324 
L 125.045035 471.663779 
L 116.354535 471.241509 
z
" clip-path="url(#p435256de9a)" style="fill: #e6e6f3"/>
    <path d="M 116.354535 471.241509 
L 125.045035 471.663779 
L 133.735535 469.140324 
L 136.217071 467.848936 
L 142.426035 465.596504 
L 151.116535 460.945956 
L 151.116535 460.945956 
L 159.807035 457.253708 
L 165.211023 454.042976 
L 168.497535 452.538917 
L 177.188035 447.371452 
L 177.585771 447.139995 
L 185.878535 443.24616 
L 190.951644 440.237015 
L 194.569035 438.405239 
L 202.916941 433.334034 
L 203.259535 433.14582 
L 211.950035 428.575755 
L 215.459593 426.431054 
L 220.640535 423.51787 
L 226.846727 419.528073 
L 229.331035 417.977407 
L 237.173572 412.625093 
L 238.021535 412.031765 
L 246.645237 405.722112 
L 246.712035 405.669153 
L 255.352536 398.819132 
L 255.402535 398.773682 
L 263.293883 391.916151 
L 264.093035 391.07225 
L 270.373426 385.013171 
L 272.783535 382.012425 
L 276.374798 378.11019 
L 280.888942 371.20721 
L 281.474035 368.221621 
L 282.520553 364.304229 
L 283.681187 357.401249 
L 281.52814 350.498268 
L 281.474035 350.458008 
L 272.783535 348.646612 
L 264.619344 350.498268 
L 264.093035 350.583691 
L 255.402535 353.424435 
L 247.251848 357.401249 
L 246.712035 357.592585 
L 238.021535 361.133443 
L 232.640798 364.304229 
L 229.331035 365.753358 
L 220.640535 370.921403 
L 220.104704 371.20721 
L 211.950035 374.658445 
L 206.005091 378.11019 
L 203.259535 379.444715 
L 194.569035 384.869935 
L 194.362367 385.013171 
L 185.878535 390.359384 
L 183.745607 391.916151 
L 177.188035 396.503571 
L 174.172771 398.819132 
L 168.497535 403.223301 
L 165.402912 405.722112 
L 159.807035 410.53704 
L 157.346598 412.625093 
L 151.116535 418.567274 
L 150.039096 419.528073 
L 143.17647 426.431054 
L 142.426035 427.315747 
L 136.568965 433.334034 
L 133.735535 437.118277 
L 130.904782 440.237015 
L 125.721033 447.139995 
L 125.045035 448.163152 
L 119.815899 454.042976 
L 116.354535 459.966993 
L 115.542252 460.945956 
L 113.56897 467.848936 
z
M 123.523274 460.945956 
L 125.045035 456.925549 
L 125.820446 454.042976 
L 130.226947 447.139995 
L 133.735535 443.441675 
L 136.118321 440.237015 
L 142.426035 433.979164 
L 142.963676 433.334034 
L 149.433601 426.431054 
L 151.116535 424.816225 
L 156.19297 419.528073 
L 159.807035 416.287824 
L 163.784942 412.625093 
L 168.497535 408.677518 
L 172.130282 405.722112 
L 177.188035 401.76676 
L 181.293447 398.819132 
L 185.878535 395.476483 
L 191.508208 391.916151 
L 194.569035 389.840662 
L 203.259535 385.013171 
L 203.259535 385.013171 
L 211.950035 379.210537 
L 214.032666 378.11019 
L 220.640535 373.88254 
L 226.207146 371.20721 
L 229.331035 369.29011 
L 238.021535 365.198785 
L 240.341757 364.304229 
L 246.712035 361.09424 
L 255.402535 358.171585 
L 259.789618 357.401249 
L 264.093035 356.402579 
L 268.201901 357.401249 
L 271.419505 364.304229 
L 269.365074 371.20721 
L 265.185408 378.11019 
L 264.093035 379.53439 
L 260.708802 385.013171 
L 255.402535 390.528314 
L 254.274517 391.916151 
L 246.712035 398.636091 
L 246.529366 398.819132 
L 238.021535 405.567633 
L 237.840129 405.722112 
L 229.331035 411.924048 
L 228.389437 412.625093 
L 220.640535 417.921633 
L 218.221242 419.528073 
L 211.950035 423.607962 
L 207.251026 426.431054 
L 203.259535 428.929987 
L 195.243149 433.334034 
L 194.569035 433.743547 
L 185.878535 439.121184 
L 183.797119 440.237015 
L 177.188035 444.351988 
L 171.548924 447.139995 
L 168.497535 448.993072 
L 159.807035 453.328955 
L 158.148208 454.042976 
L 151.116535 457.921538 
L 143.451845 460.945956 
L 142.426035 461.494898 
L 133.735535 464.132796 
L 125.045035 463.072714 
z
" clip-path="url(#p435256de9a)" style="fill: #d1d1f4"/>
    <path d="M 125.045035 463.072714 
L 133.735535 464.132796 
L 142.426035 461.494898 
L 143.451845 460.945956 
L 151.116535 457.921538 
L 158.148208 454.042976 
L 159.807035 453.328955 
L 168.497535 448.993072 
L 171.548924 447.139995 
L 177.188035 444.351988 
L 183.797119 440.237015 
L 185.878535 439.121184 
L 194.569035 433.743547 
L 195.243149 433.334034 
L 203.259535 428.929987 
L 207.251026 426.431054 
L 211.950035 423.607962 
L 218.221242 419.528073 
L 220.640535 417.921633 
L 228.389437 412.625093 
L 229.331035 411.924048 
L 237.840129 405.722112 
L 238.021535 405.567633 
L 246.529366 398.819132 
L 246.712035 398.636091 
L 254.274517 391.916151 
L 255.402535 390.528314 
L 260.708802 385.013171 
L 264.093035 379.53439 
L 265.185408 378.11019 
L 269.365074 371.20721 
L 271.419505 364.304229 
L 268.201901 357.401249 
L 264.093035 356.402579 
L 259.789618 357.401249 
L 255.402535 358.171585 
L 246.712035 361.09424 
L 240.341757 364.304229 
L 238.021535 365.198785 
L 229.331035 369.29011 
L 226.207146 371.20721 
L 220.640535 373.88254 
L 214.032666 378.11019 
L 211.950035 379.210537 
L 203.259535 385.013171 
L 203.259535 385.013171 
L 194.569035 389.840662 
L 191.508208 391.916151 
L 185.878535 395.476483 
L 181.293447 398.819132 
L 177.188035 401.76676 
L 172.130282 405.722112 
L 168.497535 408.677518 
L 163.784942 412.625093 
L 159.807035 416.287824 
L 156.19297 419.528073 
L 151.116535 424.816225 
L 149.433601 426.431054 
L 142.963676 433.334034 
L 142.426035 433.979164 
L 136.118321 440.237015 
L 133.735535 443.441675 
L 130.226947 447.139995 
L 125.820446 454.042976 
L 125.045035 456.925549 
L 123.523274 460.945956 
z
M 133.035991 454.042976 
L 133.735535 452.67692 
L 135.859587 447.139995 
L 140.648225 440.237015 
L 142.426035 438.473258 
L 146.708985 433.334034 
L 151.116535 429.204399 
L 153.698158 426.431054 
L 159.807035 421.009826 
L 161.343145 419.528073 
L 168.497535 413.499614 
L 169.504619 412.625093 
L 177.188035 406.464758 
L 178.135936 405.722112 
L 185.878535 399.804597 
L 187.269974 398.819132 
L 194.569035 393.493166 
L 197.027983 391.916151 
L 203.259535 387.569119 
L 207.653656 385.013171 
L 211.950035 382.144485 
L 219.585763 378.11019 
L 220.640535 377.435358 
L 229.331035 372.807965 
L 233.116106 371.20721 
L 238.021535 368.635445 
L 246.712035 365.596538 
L 253.392069 364.304229 
L 255.402535 363.819223 
L 257.130717 364.304229 
L 260.288185 371.20721 
L 257.043852 378.11019 
L 255.402535 380.094965 
L 252.177075 385.013171 
L 246.712035 390.608098 
L 245.646451 391.916151 
L 238.031508 398.819132 
L 238.021535 398.827043 
L 229.924654 405.722112 
L 229.331035 406.154777 
L 220.640535 412.625093 
L 220.640535 412.625093 
L 211.950035 418.912705 
L 211.079867 419.528073 
L 203.259535 424.921253 
L 200.900941 426.431054 
L 194.569035 430.6272 
L 189.934305 433.334034 
L 185.878535 435.93294 
L 177.849922 440.237015 
L 177.188035 440.649122 
L 168.497535 445.657444 
L 165.351446 447.139995 
L 159.807035 450.301553 
L 151.116535 454.042112 
L 151.11317 454.042976 
L 142.426035 456.826762 
L 133.735535 455.206609 
z
" clip-path="url(#p435256de9a)" style="fill: #bbbbf5"/>
    <path d="M 133.735535 455.206609 
L 142.426035 456.826762 
L 151.11317 454.042976 
L 151.116535 454.042112 
L 159.807035 450.301553 
L 165.351446 447.139995 
L 168.497535 445.657444 
L 177.188035 440.649122 
L 177.849922 440.237015 
L 185.878535 435.93294 
L 189.934305 433.334034 
L 194.569035 430.6272 
L 200.900941 426.431054 
L 203.259535 424.921253 
L 211.079867 419.528073 
L 211.950035 418.912705 
L 220.640535 412.625093 
L 220.640535 412.625093 
L 229.331035 406.154777 
L 229.924654 405.722112 
L 238.021535 398.827043 
L 238.031508 398.819132 
L 245.646451 391.916151 
L 246.712035 390.608098 
L 252.177075 385.013171 
L 255.402535 380.094965 
L 257.043852 378.11019 
L 260.288185 371.20721 
L 257.130717 364.304229 
L 255.402535 363.819223 
L 253.392069 364.304229 
L 246.712035 365.596538 
L 238.021535 368.635445 
L 233.116106 371.20721 
L 229.331035 372.807965 
L 220.640535 377.435358 
L 219.585763 378.11019 
L 211.950035 382.144485 
L 207.653656 385.013171 
L 203.259535 387.569119 
L 197.027983 391.916151 
L 194.569035 393.493166 
L 187.269974 398.819132 
L 185.878535 399.804597 
L 178.135936 405.722112 
L 177.188035 406.464758 
L 169.504619 412.625093 
L 168.497535 413.499614 
L 161.343145 419.528073 
L 159.807035 421.009826 
L 153.698158 426.431054 
L 151.116535 429.204399 
L 146.708985 433.334034 
L 142.426035 438.473258 
L 140.648225 440.237015 
L 135.859587 447.139995 
L 133.735535 452.67692 
L 133.035991 454.042976 
z
M 142.426035 447.139995 
L 145.935265 440.237015 
L 151.116535 433.543521 
L 151.251413 433.334034 
L 157.666441 426.431054 
L 159.807035 424.531417 
L 164.993924 419.528073 
L 168.497535 416.575847 
L 173.047159 412.625093 
L 177.188035 409.305062 
L 181.761255 405.722112 
L 185.878535 402.575357 
L 191.182184 398.819132 
L 194.569035 396.347821 
L 201.47908 391.916151 
L 203.259535 390.674134 
L 211.950035 385.516567 
L 212.914178 385.013171 
L 220.640535 380.529198 
L 225.81084 378.11019 
L 229.331035 376.175752 
L 238.021535 373.008374 
L 246.286631 371.20721 
L 246.712035 371.098468 
L 247.046921 371.20721 
L 249.497465 378.11019 
L 246.712035 382.25949 
L 245.265393 385.013171 
L 239.506339 391.916151 
L 238.021535 393.261419 
L 232.639759 398.819132 
L 229.331035 401.550168 
L 224.664696 405.722112 
L 220.640535 408.809485 
L 215.807662 412.625093 
L 211.950035 415.416102 
L 206.135463 419.528073 
L 203.259535 421.511416 
L 195.574133 426.431054 
L 194.569035 427.097131 
L 185.878535 432.519927 
L 184.458605 433.334034 
L 177.188035 437.818699 
L 172.521879 440.237015 
L 168.497535 442.618135 
L 159.807035 446.604085 
L 158.021102 447.139995 
L 151.116535 449.567837 
z
" clip-path="url(#p435256de9a)" style="fill: #9f9ff7"/>
    <path d="M 151.116535 449.567837 
L 158.021102 447.139995 
L 159.807035 446.604085 
L 168.497535 442.618135 
L 172.521879 440.237015 
L 177.188035 437.818699 
L 184.458605 433.334034 
L 185.878535 432.519927 
L 194.569035 427.097131 
L 195.574133 426.431054 
L 203.259535 421.511416 
L 206.135463 419.528073 
L 211.950035 415.416102 
L 215.807662 412.625093 
L 220.640535 408.809485 
L 224.664696 405.722112 
L 229.331035 401.550168 
L 232.639759 398.819132 
L 238.021535 393.261419 
L 239.506339 391.916151 
L 245.265393 385.013171 
L 246.712035 382.25949 
L 249.497465 378.11019 
L 247.046921 371.20721 
L 246.712035 371.098468 
L 246.286631 371.20721 
L 238.021535 373.008374 
L 229.331035 376.175752 
L 225.81084 378.11019 
L 220.640535 380.529198 
L 212.914178 385.013171 
L 211.950035 385.516567 
L 203.259535 390.674134 
L 201.47908 391.916151 
L 194.569035 396.347821 
L 191.182184 398.819132 
L 185.878535 402.575357 
L 181.761255 405.722112 
L 177.188035 409.305062 
L 173.047159 412.625093 
L 168.497535 416.575847 
L 164.993924 419.528073 
L 159.807035 424.531417 
L 157.666441 426.431054 
L 151.251413 433.334034 
L 151.116535 433.543521 
L 145.935265 440.237015 
L 142.426035 447.139995 
z
M 150.07314 440.237015 
L 151.116535 438.889091 
L 154.693158 433.334034 
L 159.807035 427.667469 
L 160.784561 426.431054 
L 167.907998 419.528073 
L 168.497535 419.031315 
L 175.874836 412.625093 
L 177.188035 411.572209 
L 184.655007 405.722112 
L 185.878535 404.786994 
L 194.304933 398.819132 
L 194.569035 398.626422 
L 203.259535 392.89396 
L 204.922624 391.916151 
L 211.950035 387.575642 
L 216.85788 385.013171 
L 220.640535 382.817916 
L 229.331035 379.065596 
L 233.120448 378.11019 
L 238.021535 376.752414 
L 241.618531 378.11019 
L 240.7845 385.013171 
L 238.021535 388.253328 
L 235.449416 391.916151 
L 229.331035 397.976581 
L 228.593503 398.819132 
L 220.694929 405.722112 
L 220.640535 405.763844 
L 211.950035 412.625093 
L 211.950035 412.625093 
L 203.259535 418.970858 
L 202.485264 419.528073 
L 194.569035 424.940924 
L 192.237512 426.431054 
L 185.878535 430.544731 
L 181.013553 433.334034 
L 177.188035 435.693707 
L 168.497535 440.185601 
L 168.352402 440.237015 
L 159.807035 443.556325 
L 151.116535 443.2782 
z
" clip-path="url(#p435256de9a)" style="fill: #8383f8"/>
    <path d="M 151.116535 443.2782 
L 159.807035 443.556325 
L 168.352402 440.237015 
L 168.497535 440.185601 
L 177.188035 435.693707 
L 181.013553 433.334034 
L 185.878535 430.544731 
L 192.237512 426.431054 
L 194.569035 424.940924 
L 202.485264 419.528073 
L 203.259535 418.970858 
L 211.950035 412.625093 
L 211.950035 412.625093 
L 220.640535 405.763844 
L 220.694929 405.722112 
L 228.593503 398.819132 
L 229.331035 397.976581 
L 235.449416 391.916151 
L 238.021535 388.253328 
L 240.7845 385.013171 
L 241.618531 378.11019 
L 238.021535 376.752414 
L 233.120448 378.11019 
L 229.331035 379.065596 
L 220.640535 382.817916 
L 216.85788 385.013171 
L 211.950035 387.575642 
L 204.922624 391.916151 
L 203.259535 392.89396 
L 194.569035 398.626422 
L 194.304933 398.819132 
L 185.878535 404.786994 
L 184.655007 405.722112 
L 177.188035 411.572209 
L 175.874836 412.625093 
L 168.497535 419.031315 
L 167.907998 419.528073 
L 160.784561 426.431054 
L 159.807035 427.667469 
L 154.693158 433.334034 
L 151.116535 438.889091 
L 150.07314 440.237015 
z
M 158.441557 433.334034 
L 159.807035 431.820981 
L 164.06838 426.431054 
L 168.497535 422.126614 
L 170.963763 419.528073 
L 177.188035 414.131399 
L 178.874365 412.625093 
L 185.878535 407.132547 
L 187.714797 405.722112 
L 194.569035 400.805125 
L 197.539968 398.819132 
L 203.259535 395.028636 
L 208.553354 391.916151 
L 211.950035 389.818177 
L 220.640535 385.445832 
L 222.076565 385.013171 
L 229.331035 382.776566 
L 234.38419 385.013171 
L 231.430608 391.916151 
L 229.331035 393.995838 
L 225.108934 398.819132 
L 220.640535 402.719091 
L 217.497889 405.722112 
L 211.950035 410.108636 
L 208.886647 412.625093 
L 203.259535 416.733986 
L 199.377048 419.528073 
L 194.569035 422.81563 
L 188.912185 426.431054 
L 185.878535 428.393548 
L 177.261553 433.334034 
L 177.188035 433.379382 
L 168.497535 437.158392 
L 159.807035 440.237015 
z
" clip-path="url(#p435256de9a)" style="fill: #6a6afa"/>
    <path d="M 159.807035 440.237015 
L 168.497535 437.158392 
L 177.188035 433.379382 
L 177.261553 433.334034 
L 185.878535 428.393548 
L 188.912185 426.431054 
L 194.569035 422.81563 
L 199.377048 419.528073 
L 203.259535 416.733986 
L 208.886647 412.625093 
L 211.950035 410.108636 
L 217.497889 405.722112 
L 220.640535 402.719091 
L 225.108934 398.819132 
L 229.331035 393.995838 
L 231.430608 391.916151 
L 234.38419 385.013171 
L 229.331035 382.776566 
L 222.076565 385.013171 
L 220.640535 385.445832 
L 211.950035 389.818177 
L 208.553354 391.916151 
L 203.259535 395.028636 
L 197.539968 398.819132 
L 194.569035 400.805125 
L 187.714797 405.722112 
L 185.878535 407.132547 
L 178.874365 412.625093 
L 177.188035 414.131399 
L 170.963763 419.528073 
L 168.497535 422.126614 
L 164.06838 426.431054 
L 159.807035 431.820981 
L 158.441557 433.334034 
z
M 168.497535 426.431054 
L 175.049029 419.528073 
L 177.188035 417.673477 
L 182.839767 412.625093 
L 185.878535 410.242145 
L 191.763219 405.722112 
L 194.569035 403.70932 
L 201.884478 398.819132 
L 203.259535 397.907848 
L 211.950035 393.502906 
L 216.18188 391.916151 
L 220.640535 390.337196 
L 223.639402 391.916151 
L 220.640535 397.905189 
L 220.242583 398.819132 
L 213.205139 405.722112 
L 211.950035 406.714486 
L 204.754807 412.625093 
L 203.259535 413.716934 
L 195.184744 419.528073 
L 194.569035 419.949074 
L 185.878535 425.063504 
L 183.238841 426.431054 
L 177.188035 429.395672 
z
" clip-path="url(#p435256de9a)" style="fill: #4a4afb"/>
    <path d="M 177.188035 429.395672 
L 183.238841 426.431054 
L 185.878535 425.063504 
L 194.569035 419.949074 
L 195.184744 419.528073 
L 203.259535 413.716934 
L 204.754807 412.625093 
L 211.950035 406.714486 
L 213.205139 405.722112 
L 220.242583 398.819132 
L 220.640535 397.905189 
L 223.639402 391.916151 
L 220.640535 390.337196 
L 216.18188 391.916151 
L 211.950035 393.502906 
L 203.259535 397.907848 
L 201.884478 398.819132 
L 194.569035 403.70932 
L 191.763219 405.722112 
L 185.878535 410.242145 
L 182.839767 412.625093 
L 177.188035 417.673477 
L 175.049029 419.528073 
L 168.497535 426.431054 
z
M 176.616868 426.431054 
L 177.188035 424.888853 
L 177.585712 426.431054 
L 177.188035 426.625897 
z
M 179.061044 419.528073 
L 185.588044 412.625093 
L 185.878535 412.397295 
L 194.569035 405.722112 
L 194.569035 405.722112 
L 203.259535 401.090175 
L 207.868694 398.819132 
L 211.950035 397.092267 
L 214.643696 398.819132 
L 211.950035 401.954452 
L 208.970524 405.722112 
L 203.259535 410.545302 
L 200.860124 412.625093 
L 194.569035 416.862567 
L 190.487785 419.528073 
L 185.878535 422.134779 
z
" clip-path="url(#p435256de9a)" style="fill: #2b2bfd"/>
    <path d="M 177.188035 426.625897 
L 177.585712 426.431054 
L 177.188035 424.888853 
L 176.616868 426.431054 
z
M 185.878535 422.134779 
L 190.487785 419.528073 
L 194.569035 416.862567 
L 200.860124 412.625093 
L 203.259535 410.545302 
L 208.970524 405.722112 
L 211.950035 401.954452 
L 214.643696 398.819132 
L 211.950035 397.092267 
L 207.868694 398.819132 
L 203.259535 401.090175 
L 194.569035 405.722112 
L 194.569035 405.722112 
L 185.878535 412.397295 
L 185.588044 412.625093 
L 179.061044 419.528073 
z
" clip-path="url(#p435256de9a)" style="fill: #0f0ffe"/>
   </g>
   <g id="QuadContourSet_2">
    <path d="M 158.065785 446.54073 
L 178.143079 444.97074 
L 186.742724 442.638351 
L 198.220373 440.327509 
L 209.567843 436.791271 
L 218.297667 432.469237 
L 222.976423 430.944191 
L 236.308216 425.097111 
L 238.374961 423.12772 
L 249.465083 419.250032 
L 257.185902 413.402952 
L 258.452256 411.785589 
L 270.11769 407.555872 
L 277.569542 401.708792 
L 278.52955 400.590183 
L 291.545569 395.861713 
L 298.606844 390.516277 
L 300.367902 390.014633 
L 314.915105 384.167553 
L 318.684138 381.371071 
L 324.679807 378.320473 
L 332.481564 372.473394 
L 338.271336 366.626314 
L 338.761432 366.112346 
L 344.705754 360.779234 
L 351.207133 354.932154 
L 358.838726 349.085075 
L 358.838726 349.085075 
L 372.864843 343.237995 
L 378.91602 339.98369 
L 385.586703 337.390915 
L 398.993314 331.612969 
L 399.207082 331.543835 
L 414.383717 325.696756 
L 419.070609 323.454044 
L 429.418921 319.849676 
L 439.147903 315.411384 
L 442.530724 314.002596 
L 454.614517 308.155516 
L 459.225197 305.043594 
L 464.91736 302.308437 
L 471.054543 296.461357 
L 470.405826 290.614277 
L 459.635468 284.767197 
L 459.225197 284.59704 
L 453.590607 278.920118 
L 451.156392 273.073038 
L 450.29357 267.225958 
L 448.817046 261.378878 
L 444.289641 255.531799 
L 439.147903 251.868395 
L 435.243196 249.684719 
L 423.248985 243.837639 
L 419.070609 242.040004 
L 413.006628 237.990559 
L 405.663785 232.14348 
L 399.552744 226.2964 
L 398.993314 225.810237 
L 378.91602 220.574716 
L 378.20995 220.44932 
L 358.838726 215.761286 
L 355.134016 214.60224 
L 351.928782 208.755161 
L 347.547896 202.908081 
L 338.761432 200.148613 
L 335.931164 197.061001 
L 333.345769 191.213921 
L 318.684138 185.958906 
L 309.134731 191.213921 
L 301.986516 197.061001 
L 298.606844 199.25242 
L 293.922056 202.908081 
L 287.937886 208.755161 
L 283.5077 214.60224 
L 278.52955 219.562771 
L 276.83257 220.44932 
L 267.276995 226.2964 
L 258.814307 232.14348 
L 258.452256 232.362889 
L 251.73015 237.990559 
L 246.70068 243.837639 
L 240.69364 249.684719 
L 238.374961 251.375568 
L 231.412804 255.531799 
L 218.297667 261.207408 
L 217.58101 261.378878 
L 198.220373 264.960307 
L 188.506012 267.225958 
L 178.143079 269.272582 
L 163.196842 273.073038 
L 158.065785 274.366399 
L 144.730531 278.920118 
L 137.988491 281.469765 
L 129.943085 284.767197 
L 119.095715 290.614277 
L 117.911197 291.371435 
L 110.084925 296.461357 
L 104.173485 302.308437 
L 100.242031 308.155516 
L 97.833903 313.724154 
L 97.61015 314.002596 
L 95.247416 319.849676 
L 95.144533 325.696756 
L 96.551428 331.543835 
L 97.833903 334.618109 
L 98.320029 337.390915 
L 100.368516 343.237995 
L 105.212981 349.085075 
L 115.746079 354.932154 
L 117.911197 355.860003 
L 125.80952 360.779234 
L 133.378541 366.626314 
L 134.87603 372.473394 
L 131.193235 378.320473 
L 125.939843 384.167553 
L 121.816165 390.014633 
L 119.298878 395.861713 
L 117.949694 401.708792 
L 117.911197 402.044039 
L 114.509904 407.555872 
L 114.315664 413.402952 
L 117.825754 419.250032 
L 117.911197 419.325738 
L 118.980268 425.097111 
L 121.201084 430.944191 
L 126.732732 436.791271 
L 137.988491 441.60707 
L 141.238188 442.638351 
z
M 144.519889 430.944191 
L 139.628018 425.097111 
L 138.08994 419.250032 
L 137.988491 417.807052 
L 136.613986 413.402952 
L 137.988491 407.857472 
L 138.004566 407.555872 
L 139.043937 401.708792 
L 141.185243 395.861713 
L 144.873998 390.014633 
L 150.311345 384.167553 
L 157.306854 378.320473 
L 158.065785 377.579782 
L 160.350523 372.473394 
L 162.370481 366.626314 
L 163.451425 360.779234 
L 163.283589 354.932154 
L 161.881132 349.085075 
L 159.720583 343.237995 
L 158.065785 338.88329 
L 156.793287 337.390915 
L 153.042199 331.543835 
L 150.93681 325.696756 
L 151.838181 319.849676 
L 156.581373 314.002596 
L 158.065785 312.916384 
L 164.247973 308.155516 
L 178.143079 302.828394 
L 179.236019 302.308437 
L 198.170648 296.461357 
L 198.220373 296.449451 
L 218.297667 290.953397 
L 219.567319 290.614277 
L 238.374961 285.732178 
L 243.975758 284.767197 
L 258.452256 281.722642 
L 278.353162 278.920118 
L 278.52955 278.887421 
L 298.606844 275.772091 
L 317.725368 273.073038 
L 318.684138 272.901106 
L 338.761432 272.763341 
L 340.234267 273.073038 
L 358.838726 278.920118 
L 358.838726 278.920118 
L 367.740719 284.767197 
L 371.31643 290.614277 
L 371.582836 296.461357 
L 369.676425 302.308437 
L 365.798879 308.155516 
L 359.42049 314.002596 
L 358.838726 314.392236 
L 353.217723 319.849676 
L 343.373814 325.696756 
L 338.761432 327.780889 
L 333.716514 331.543835 
L 322.363898 337.390915 
L 318.684138 338.973056 
L 312.255714 343.237995 
L 300.171186 349.085075 
L 298.606844 349.828431 
L 292.680106 354.932154 
L 285.164294 360.779234 
L 278.52955 366.159395 
L 278.281535 366.626314 
L 276.350104 372.473394 
L 274.637486 378.320473 
L 272.310359 384.167553 
L 268.245395 390.014633 
L 260.151991 395.861713 
L 258.452256 396.729564 
L 255.581165 401.708792 
L 249.562621 407.555872 
L 238.374961 412.512191 
L 237.607905 413.402952 
L 231.040694 419.250032 
L 218.297667 424.058378 
L 216.409329 425.097111 
L 201.375318 430.944191 
L 198.220373 431.962116 
L 178.143079 436.389065 
L 158.065785 436.13818 
z
" clip-path="url(#p435256de9a)" style="fill: #e6f1e6; fill-opacity: 0.5"/>
    <path d="M 158.065785 436.13818 
L 178.143079 436.389065 
L 198.220373 431.962116 
L 201.375318 430.944191 
L 216.409329 425.097111 
L 218.297667 424.058378 
L 231.040694 419.250032 
L 237.607905 413.402952 
L 238.374961 412.512191 
L 249.562621 407.555872 
L 255.581165 401.708792 
L 258.452256 396.729564 
L 260.151991 395.861713 
L 268.245395 390.014633 
L 272.310359 384.167553 
L 274.637486 378.320473 
L 276.350104 372.473394 
L 278.281535 366.626314 
L 278.52955 366.159395 
L 285.164294 360.779234 
L 292.680106 354.932154 
L 298.606844 349.828431 
L 300.171186 349.085075 
L 312.255714 343.237995 
L 318.684138 338.973056 
L 322.363898 337.390915 
L 333.716514 331.543835 
L 338.761432 327.780889 
L 343.373814 325.696756 
L 353.217723 319.849676 
L 358.838726 314.392236 
L 359.42049 314.002596 
L 365.798879 308.155516 
L 369.676425 302.308437 
L 371.582836 296.461357 
L 371.31643 290.614277 
L 367.740719 284.767197 
L 358.838726 278.920118 
L 358.838726 278.920118 
L 340.234267 273.073038 
L 338.761432 272.763341 
L 318.684138 272.901106 
L 317.725368 273.073038 
L 298.606844 275.772091 
L 278.52955 278.887421 
L 278.353162 278.920118 
L 258.452256 281.722642 
L 243.975758 284.767197 
L 238.374961 285.732178 
L 219.567319 290.614277 
L 218.297667 290.953397 
L 198.220373 296.449451 
L 198.170648 296.461357 
L 179.236019 302.308437 
L 178.143079 302.828394 
L 164.247973 308.155516 
L 158.065785 312.916384 
L 156.581373 314.002596 
L 151.838181 319.849676 
L 150.93681 325.696756 
L 153.042199 331.543835 
L 156.793287 337.390915 
L 158.065785 338.88329 
L 159.720583 343.237995 
L 161.881132 349.085075 
L 163.283589 354.932154 
L 163.451425 360.779234 
L 162.370481 366.626314 
L 160.350523 372.473394 
L 158.065785 377.579782 
L 157.306854 378.320473 
L 150.311345 384.167553 
L 144.873998 390.014633 
L 141.185243 395.861713 
L 139.043937 401.708792 
L 138.004566 407.555872 
L 137.988491 407.857472 
L 136.613986 413.402952 
L 137.988491 417.807052 
L 138.08994 419.250032 
L 139.628018 425.097111 
L 144.519889 430.944191 
z
M 160.292913 430.944191 
L 158.065785 430.644694 
L 147.542531 425.097111 
L 143.720464 419.250032 
L 142.730771 413.402952 
L 143.379464 407.555872 
L 145.700277 401.708792 
L 150.324197 395.861713 
L 158.065785 390.014633 
L 158.065785 390.014633 
L 162.030019 384.167553 
L 166.963549 378.320473 
L 172.041434 372.473394 
L 176.746803 366.626314 
L 178.143079 364.351357 
L 179.673063 360.779234 
L 181.105624 354.932154 
L 181.878928 349.085075 
L 182.435425 343.237995 
L 183.172262 337.390915 
L 184.445035 331.543835 
L 186.741009 325.696756 
L 190.926198 319.849676 
L 198.220373 314.37641 
L 198.570313 314.002596 
L 206.361036 308.155516 
L 218.297667 303.104107 
L 220.423771 302.308437 
L 238.374961 296.825983 
L 240.341281 296.461357 
L 258.452256 292.958006 
L 278.52955 290.817838 
L 280.953126 290.614277 
L 298.606844 288.725387 
L 318.684138 287.64976 
L 330.471544 290.614277 
L 337.813488 296.461357 
L 338.404319 302.308437 
L 336.553566 308.155516 
L 333.023841 314.002596 
L 327.562835 319.849676 
L 319.07945 325.696756 
L 318.684138 325.911919 
L 311.452287 331.543835 
L 301.234369 337.390915 
L 298.606844 338.670354 
L 292.385336 343.237995 
L 282.978983 349.085075 
L 278.52955 351.603665 
L 275.024062 354.932154 
L 269.707135 360.779234 
L 265.249807 366.626314 
L 262.10098 372.473394 
L 259.732452 378.320473 
L 258.452256 380.603156 
L 257.660947 384.167553 
L 255.761299 390.014633 
L 252.85838 395.861713 
L 247.652341 401.708792 
L 238.374961 406.814655 
L 237.833271 407.555872 
L 232.46659 413.402952 
L 219.75969 419.250032 
L 218.297667 419.801699 
L 208.671008 425.097111 
L 198.220373 428.665175 
L 186.176122 430.944191 
L 178.143079 432.932709 
z
" clip-path="url(#p435256de9a)" style="fill: #d9ead9; fill-opacity: 0.5"/>
    <path d="M 178.143079 432.932709 
L 186.176122 430.944191 
L 198.220373 428.665175 
L 208.671008 425.097111 
L 218.297667 419.801699 
L 219.75969 419.250032 
L 232.46659 413.402952 
L 237.833271 407.555872 
L 238.374961 406.814655 
L 247.652341 401.708792 
L 252.85838 395.861713 
L 255.761299 390.014633 
L 257.660947 384.167553 
L 258.452256 380.603156 
L 259.732452 378.320473 
L 262.10098 372.473394 
L 265.249807 366.626314 
L 269.707135 360.779234 
L 275.024062 354.932154 
L 278.52955 351.603665 
L 282.978983 349.085075 
L 292.385336 343.237995 
L 298.606844 338.670354 
L 301.234369 337.390915 
L 311.452287 331.543835 
L 318.684138 325.911919 
L 319.07945 325.696756 
L 327.562835 319.849676 
L 333.023841 314.002596 
L 336.553566 308.155516 
L 338.404319 302.308437 
L 337.813488 296.461357 
L 330.471544 290.614277 
L 318.684138 287.64976 
L 298.606844 288.725387 
L 280.953126 290.614277 
L 278.52955 290.817838 
L 258.452256 292.958006 
L 240.341281 296.461357 
L 238.374961 296.825983 
L 220.423771 302.308437 
L 218.297667 303.104107 
L 206.361036 308.155516 
L 198.570313 314.002596 
L 198.220373 314.37641 
L 190.926198 319.849676 
L 186.741009 325.696756 
L 184.445035 331.543835 
L 183.172262 337.390915 
L 182.435425 343.237995 
L 181.878928 349.085075 
L 181.105624 354.932154 
L 179.673063 360.779234 
L 178.143079 364.351357 
L 176.746803 366.626314 
L 172.041434 372.473394 
L 166.963549 378.320473 
L 162.030019 384.167553 
L 158.065785 390.014633 
L 158.065785 390.014633 
L 150.324197 395.861713 
L 145.700277 401.708792 
L 143.379464 407.555872 
L 142.730771 413.402952 
L 143.720464 419.250032 
L 147.542531 425.097111 
L 158.065785 430.644694 
L 160.292913 430.944191 
z
M 157.204773 425.097111 
L 150.594353 419.250032 
L 148.85717 413.402952 
L 149.941277 407.555872 
L 153.826509 401.708792 
L 158.065785 398.023997 
L 159.301724 395.861713 
L 163.744572 390.014633 
L 170.199485 384.167553 
L 178.143079 378.320473 
L 178.143079 378.320473 
L 183.914121 372.473394 
L 188.624356 366.626314 
L 191.921022 360.779234 
L 194.303227 354.932154 
L 196.422952 349.085075 
L 198.220373 344.638836 
L 198.617397 343.237995 
L 200.256141 337.390915 
L 202.321018 331.543835 
L 205.571125 325.696756 
L 210.880631 319.849676 
L 218.297667 314.642704 
L 219.256138 314.002596 
L 231.66304 308.155516 
L 238.374961 305.810242 
L 255.297771 302.308437 
L 258.452256 301.670095 
L 278.52955 299.932981 
L 298.606844 299.718626 
L 309.45331 302.308437 
L 314.423979 308.155516 
L 312.844206 314.002596 
L 308.836146 319.849676 
L 302.462523 325.696756 
L 298.606844 328.213612 
L 294.655636 331.543835 
L 286.778135 337.390915 
L 278.52955 342.377594 
L 277.450206 343.237995 
L 270.343052 349.085075 
L 263.189322 354.932154 
L 258.452256 358.936515 
L 256.505629 360.779234 
L 252.678764 366.626314 
L 251.066203 372.473394 
L 250.787278 378.320473 
L 250.457912 384.167553 
L 249.025404 390.014633 
L 245.569187 395.861713 
L 238.374961 401.472504 
L 238.241396 401.708792 
L 233.940018 407.555872 
L 226.189939 413.402952 
L 218.297667 416.820569 
L 214.26202 419.250032 
L 199.223865 425.097111 
L 198.220373 425.439724 
L 178.143079 429.783413 
L 158.065785 425.551014 
z
" clip-path="url(#p435256de9a)" style="fill: #c9e3c9; fill-opacity: 0.5"/>
    <path d="M 158.065785 425.551014 
L 178.143079 429.783413 
L 198.220373 425.439724 
L 199.223865 425.097111 
L 214.26202 419.250032 
L 218.297667 416.820569 
L 226.189939 413.402952 
L 233.940018 407.555872 
L 238.241396 401.708792 
L 238.374961 401.472504 
L 245.569187 395.861713 
L 249.025404 390.014633 
L 250.457912 384.167553 
L 250.787278 378.320473 
L 251.066203 372.473394 
L 252.678764 366.626314 
L 256.505629 360.779234 
L 258.452256 358.936515 
L 263.189322 354.932154 
L 270.343052 349.085075 
L 277.450206 343.237995 
L 278.52955 342.377594 
L 286.778135 337.390915 
L 294.655636 331.543835 
L 298.606844 328.213612 
L 302.462523 325.696756 
L 308.836146 319.849676 
L 312.844206 314.002596 
L 314.423979 308.155516 
L 309.45331 302.308437 
L 298.606844 299.718626 
L 278.52955 299.932981 
L 258.452256 301.670095 
L 255.297771 302.308437 
L 238.374961 305.810242 
L 231.66304 308.155516 
L 219.256138 314.002596 
L 218.297667 314.642704 
L 210.880631 319.849676 
L 205.571125 325.696756 
L 202.321018 331.543835 
L 200.256141 337.390915 
L 198.617397 343.237995 
L 198.220373 344.638836 
L 196.422952 349.085075 
L 194.303227 354.932154 
L 191.921022 360.779234 
L 188.624356 366.626314 
L 183.914121 372.473394 
L 178.143079 378.320473 
L 178.143079 378.320473 
L 170.199485 384.167553 
L 163.744572 390.014633 
L 159.301724 395.861713 
L 158.065785 398.023997 
L 153.826509 401.708792 
L 149.941277 407.555872 
L 148.85717 413.402952 
L 150.594353 419.250032 
L 157.204773 425.097111 
z
M 166.87844 425.097111 
L 158.065785 419.835771 
L 157.378686 419.250032 
L 154.903751 413.402952 
L 156.4176 407.555872 
L 158.065785 405.506023 
L 159.525297 401.708792 
L 163.286462 395.861713 
L 169.349373 390.014633 
L 178.143079 384.22224 
L 178.23316 384.167553 
L 186.145757 378.320473 
L 193.863361 372.473394 
L 198.220373 368.089572 
L 200.558434 366.626314 
L 204.894689 360.779234 
L 206.61598 354.932154 
L 207.561203 349.085075 
L 208.681139 343.237995 
L 210.564841 337.390915 
L 213.845573 331.543835 
L 218.297667 326.570706 
L 219.095556 325.696756 
L 225.794677 319.849676 
L 236.667564 314.002596 
L 238.374961 313.293562 
L 258.452256 308.693142 
L 278.52955 308.402781 
L 292.698684 314.002596 
L 292.276079 319.849676 
L 288.164677 325.696756 
L 282.069046 331.543835 
L 278.52955 334.057835 
L 274.625068 337.390915 
L 267.475809 343.237995 
L 259.929141 349.085075 
L 258.452256 350.211329 
L 251.765342 354.932154 
L 246.075 360.779234 
L 242.729545 366.626314 
L 241.841514 372.473394 
L 242.649648 378.320473 
L 243.348721 384.167553 
L 242.377268 390.014633 
L 238.374961 395.861713 
L 238.374961 395.861713 
L 235.069815 401.708792 
L 230.097488 407.555872 
L 219.995064 413.402952 
L 218.297667 414.137981 
L 209.805899 419.250032 
L 198.220373 423.603021 
L 189.50274 425.097111 
L 178.143079 427.616664 
z
" clip-path="url(#p435256de9a)" style="fill: #b9dbb9; fill-opacity: 0.5"/>
    <path d="M 178.143079 427.616664 
L 189.50274 425.097111 
L 198.220373 423.603021 
L 209.805899 419.250032 
L 218.297667 414.137981 
L 219.995064 413.402952 
L 230.097488 407.555872 
L 235.069815 401.708792 
L 238.374961 395.861713 
L 238.374961 395.861713 
L 242.377268 390.014633 
L 243.348721 384.167553 
L 242.649648 378.320473 
L 241.841514 372.473394 
L 242.729545 366.626314 
L 246.075 360.779234 
L 251.765342 354.932154 
L 258.452256 350.211329 
L 259.929141 349.085075 
L 267.475809 343.237995 
L 274.625068 337.390915 
L 278.52955 334.057835 
L 282.069046 331.543835 
L 288.164677 325.696756 
L 292.276079 319.849676 
L 292.698684 314.002596 
L 278.52955 308.402781 
L 258.452256 308.693142 
L 238.374961 313.293562 
L 236.667564 314.002596 
L 225.794677 319.849676 
L 219.095556 325.696756 
L 218.297667 326.570706 
L 213.845573 331.543835 
L 210.564841 337.390915 
L 208.681139 343.237995 
L 207.561203 349.085075 
L 206.61598 354.932154 
L 204.894689 360.779234 
L 200.558434 366.626314 
L 198.220373 368.089572 
L 193.863361 372.473394 
L 186.145757 378.320473 
L 178.23316 384.167553 
L 178.143079 384.22224 
L 169.349373 390.014633 
L 163.286462 395.861713 
L 159.525297 401.708792 
L 158.065785 405.506023 
L 156.4176 407.555872 
L 154.903751 413.402952 
L 157.378686 419.250032 
L 158.065785 419.835771 
L 166.87844 425.097111 
z
M 174.145134 425.097111 
L 160.98891 419.250032 
L 158.763136 413.402952 
L 159.442789 407.555872 
L 161.847603 401.708792 
L 166.275518 395.861713 
L 173.553681 390.014633 
L 178.143079 386.991607 
L 182.794881 384.167553 
L 192.148776 378.320473 
L 198.220373 374.17801 
L 203.762104 372.473394 
L 212.556826 366.626314 
L 215.349187 360.779234 
L 215.622119 354.932154 
L 215.570954 349.085075 
L 216.230215 343.237995 
L 218.297667 337.390915 
L 218.297667 337.390915 
L 222.546793 331.543835 
L 227.911708 325.696756 
L 235.978713 319.849676 
L 238.374961 318.604133 
L 258.088826 314.002596 
L 258.452256 313.918853 
L 259.431503 314.002596 
L 278.52955 319.084716 
L 279.147173 319.849676 
L 278.52955 322.377799 
L 277.731578 325.696756 
L 272.721414 331.543835 
L 266.769388 337.390915 
L 259.993752 343.237995 
L 258.452256 344.422547 
L 250.492036 349.085075 
L 243.327219 354.932154 
L 238.374961 360.625193 
L 237.304746 360.779234 
L 229.031107 366.626314 
L 232.076333 372.473394 
L 236.042393 378.320473 
L 238.04469 384.167553 
L 237.725046 390.014633 
L 235.846393 395.861713 
L 232.69073 401.708792 
L 227.215107 407.555872 
L 218.297667 412.407564 
L 216.864581 413.402952 
L 206.463245 419.250032 
L 198.220373 422.347097 
L 182.174748 425.097111 
L 178.143079 425.991328 
z
" clip-path="url(#p435256de9a)" style="fill: #aad3aa; fill-opacity: 0.5"/>
    <path d="M 178.143079 425.991328 
L 182.174748 425.097111 
L 198.220373 422.347097 
L 206.463245 419.250032 
L 216.864581 413.402952 
L 218.297667 412.407564 
L 227.215107 407.555872 
L 232.69073 401.708792 
L 235.846393 395.861713 
L 237.725046 390.014633 
L 238.04469 384.167553 
L 236.042393 378.320473 
L 232.076333 372.473394 
L 229.031107 366.626314 
L 237.304746 360.779234 
L 238.374961 360.625193 
L 243.327219 354.932154 
L 250.492036 349.085075 
L 258.452256 344.422547 
L 259.993752 343.237995 
L 266.769388 337.390915 
L 272.721414 331.543835 
L 277.731578 325.696756 
L 278.52955 322.377799 
L 279.147173 319.849676 
L 278.52955 319.084716 
L 259.431503 314.002596 
L 258.452256 313.918853 
L 258.088826 314.002596 
L 238.374961 318.604133 
L 235.978713 319.849676 
L 227.911708 325.696756 
L 222.546793 331.543835 
L 218.297667 337.390915 
L 218.297667 337.390915 
L 216.230215 343.237995 
L 215.570954 349.085075 
L 215.622119 354.932154 
L 215.349187 360.779234 
L 212.556826 366.626314 
L 203.762104 372.473394 
L 198.220373 374.17801 
L 192.148776 378.320473 
L 182.794881 384.167553 
L 178.143079 386.991607 
L 173.553681 390.014633 
L 166.275518 395.861713 
L 161.847603 401.708792 
L 159.442789 407.555872 
L 158.763136 413.402952 
L 160.98891 419.250032 
L 174.145134 425.097111 
z
M 164.67783 419.250032 
L 161.27662 413.402952 
L 161.717734 407.555872 
L 164.382618 401.708792 
L 169.538353 395.861713 
L 178.143079 390.014633 
L 178.143079 390.014633 
L 187.774428 384.167553 
L 198.220373 378.518255 
L 199.489115 378.320473 
L 218.296774 372.473394 
L 218.297667 372.472754 
L 218.298514 372.473394 
L 227.547056 378.320473 
L 232.689734 384.167553 
L 234.131879 390.014633 
L 233.086222 395.861713 
L 230.093734 401.708792 
L 224.068716 407.555872 
L 218.297667 410.695714 
L 214.399983 413.402952 
L 202.814425 419.250032 
L 198.220373 420.976139 
L 178.143079 424.397649 
z
M 235.167457 349.085075 
L 229.331335 343.237995 
L 229.287897 337.390915 
L 232.110307 331.543835 
L 237.535368 325.696756 
L 238.374961 325.111555 
L 258.452256 321.454105 
L 263.627331 325.696756 
L 262.579063 331.543835 
L 258.452256 336.988214 
L 257.747122 337.390915 
L 247.024233 343.237995 
L 239.77691 349.085075 
L 238.374961 350.374743 
z
" clip-path="url(#p435256de9a)" style="fill: #9ccd9c; fill-opacity: 0.5"/>
    <path d="M 178.143079 424.397649 
L 198.220373 420.976139 
L 202.814425 419.250032 
L 214.399983 413.402952 
L 218.297667 410.695714 
L 224.068716 407.555872 
L 230.093734 401.708792 
L 233.086222 395.861713 
L 234.131879 390.014633 
L 232.689734 384.167553 
L 227.547056 378.320473 
L 218.298514 372.473394 
L 218.297667 372.472754 
L 218.296774 372.473394 
L 199.489115 378.320473 
L 198.220373 378.518255 
L 187.774428 384.167553 
L 178.143079 390.014633 
L 178.143079 390.014633 
L 169.538353 395.861713 
L 164.382618 401.708792 
L 161.717734 407.555872 
L 161.27662 413.402952 
L 164.67783 419.250032 
z
M 172.416335 419.250032 
L 166.54933 413.402952 
L 166.490046 407.555872 
L 169.700498 401.708792 
L 176.383032 395.861713 
L 178.143079 394.665726 
L 186.317091 390.014633 
L 198.220373 384.167553 
L 198.220373 384.167553 
L 218.297667 382.010461 
L 221.456269 384.167553 
L 226.594242 390.014633 
L 227.29602 395.861713 
L 224.645834 401.708792 
L 218.297667 406.986736 
L 217.678933 407.555872 
L 209.229825 413.402952 
L 198.220373 418.325742 
L 191.178029 419.250032 
L 178.143079 421.439303 
z
M 238.374961 350.374743 
L 239.77691 349.085075 
L 247.024233 343.237995 
L 257.747122 337.390915 
L 258.452256 336.988214 
L 262.579063 331.543835 
L 263.627331 325.696756 
L 258.452256 321.454105 
L 238.374961 325.111555 
L 237.535368 325.696756 
L 232.110307 331.543835 
L 229.287897 337.390915 
L 229.331335 343.237995 
L 235.167457 349.085075 
z
" clip-path="url(#p435256de9a)" style="fill: #87c287; fill-opacity: 0.5"/>
    <path d="M 178.143079 421.439303 
L 191.178029 419.250032 
L 198.220373 418.325742 
L 209.229825 413.402952 
L 217.678933 407.555872 
L 218.297667 406.986736 
L 224.645834 401.708792 
L 227.29602 395.861713 
L 226.594242 390.014633 
L 221.456269 384.167553 
L 218.297667 382.010461 
L 198.220373 384.167553 
L 198.220373 384.167553 
L 186.317091 390.014633 
L 178.143079 394.665726 
L 176.383032 395.861713 
L 169.700498 401.708792 
L 166.490046 407.555872 
L 166.54933 413.402952 
L 172.416335 419.250032 
z
M 177.777158 413.402952 
L 176.652316 407.555872 
L 178.143079 405.417658 
L 182.320496 401.708792 
L 191.475454 395.861713 
L 198.220373 392.443797 
L 210.710669 395.861713 
L 211.901491 401.708792 
L 207.193267 407.555872 
L 198.220373 413.402952 
L 198.220373 413.402952 
L 178.143079 413.681115 
z
" clip-path="url(#p435256de9a)" style="fill: #5aac5a; fill-opacity: 0.5"/>
    <path d="M 178.143079 413.681115 
L 198.220373 413.402952 
L 198.220373 413.402952 
L 207.193267 407.555872 
L 211.901491 401.708792 
L 210.710669 395.861713 
L 198.220373 392.443797 
L 191.475454 395.861713 
L 182.320496 401.708792 
L 178.143079 405.417658 
L 176.652316 407.555872 
L 177.777158 413.402952 
z
" clip-path="url(#p435256de9a)" style="fill: #1d8e1d; fill-opacity: 0.5"/>
   </g>
   <g id="matplotlib.axis_1">
    <g id="xtick_1">
     <g id="line2d_1">
      <defs>
       <path id="mebb96a4d43" d="M 0 0 
L 0 3.5 
" style="stroke: #000000; stroke-width: 0.8"/>
      </defs>
      <g>
       <use xlink:href="#mebb96a4d43" x="173.149142" y="499.48" style="stroke: #000000; stroke-width: 0.8"/>
      </g>
     </g>
     <g id="text_1">
      <!-- 0 -->
      <g transform="translate(166.150392 523.196563) scale(0.22 -0.22)">
       <defs>
        <path id="DejaVuSans-30" d="M 2034 4250 
Q 1547 4250 1301 3770 
Q 1056 3291 1056 2328 
Q 1056 1369 1301 889 
Q 1547 409 2034 409 
Q 2525 409 2770 889 
Q 3016 1369 3016 2328 
Q 3016 3291 2770 3770 
Q 2525 4250 2034 4250 
z
M 2034 4750 
Q 2819 4750 3233 4129 
Q 3647 3509 3647 2328 
Q 3647 1150 3233 529 
Q 2819 -91 2034 -91 
Q 1250 -91 836 529 
Q 422 1150 422 2328 
Q 422 3509 836 4129 
Q 1250 4750 2034 4750 
z
" transform="scale(0.015625)"/>
       </defs>
       <use xlink:href="#DejaVuSans-30"/>
      </g>
     </g>
    </g>
    <g id="xtick_2">
     <g id="line2d_2">
      <g>
       <use xlink:href="#mebb96a4d43" x="284.886005" y="499.48" style="stroke: #000000; stroke-width: 0.8"/>
      </g>
     </g>
     <g id="text_2">
      <!-- 10 -->
      <g transform="translate(270.888505 523.196563) scale(0.22 -0.22)">
       <defs>
        <path id="DejaVuSans-31" d="M 794 531 
L 1825 531 
L 1825 4091 
L 703 3866 
L 703 4441 
L 1819 4666 
L 2450 4666 
L 2450 531 
L 3481 531 
L 3481 0 
L 794 0 
L 794 531 
z
" transform="scale(0.015625)"/>
       </defs>
       <use xlink:href="#DejaVuSans-31"/>
       <use xlink:href="#DejaVuSans-30" x="63.623047"/>
      </g>
     </g>
    </g>
    <g id="xtick_3">
     <g id="line2d_3">
      <g>
       <use xlink:href="#mebb96a4d43" x="396.622868" y="499.48" style="stroke: #000000; stroke-width: 0.8"/>
      </g>
     </g>
     <g id="text_3">
      <!-- 20 -->
      <g transform="translate(382.625368 523.196563) scale(0.22 -0.22)">
       <defs>
        <path id="DejaVuSans-32" d="M 1228 531 
L 3431 531 
L 3431 0 
L 469 0 
L 469 531 
Q 828 903 1448 1529 
Q 2069 2156 2228 2338 
Q 2531 2678 2651 2914 
Q 2772 3150 2772 3378 
Q 2772 3750 2511 3984 
Q 2250 4219 1831 4219 
Q 1534 4219 1204 4116 
Q 875 4013 500 3803 
L 500 4441 
Q 881 4594 1212 4672 
Q 1544 4750 1819 4750 
Q 2544 4750 2975 4387 
Q 3406 4025 3406 3419 
Q 3406 3131 3298 2873 
Q 3191 2616 2906 2266 
Q 2828 2175 2409 1742 
Q 1991 1309 1228 531 
z
" transform="scale(0.015625)"/>
       </defs>
       <use xlink:href="#DejaVuSans-32"/>
       <use xlink:href="#DejaVuSans-30" x="63.623047"/>
      </g>
     </g>
    </g>
    <g id="xtick_4">
     <g id="line2d_4">
      <g>
       <use xlink:href="#mebb96a4d43" x="508.359732" y="499.48" style="stroke: #000000; stroke-width: 0.8"/>
      </g>
     </g>
     <g id="text_4">
      <!-- 30 -->
      <g transform="translate(494.362232 523.196563) scale(0.22 -0.22)">
       <defs>
        <path id="DejaVuSans-33" d="M 2597 2516 
Q 3050 2419 3304 2112 
Q 3559 1806 3559 1356 
Q 3559 666 3084 287 
Q 2609 -91 1734 -91 
Q 1441 -91 1130 -33 
Q 819 25 488 141 
L 488 750 
Q 750 597 1062 519 
Q 1375 441 1716 441 
Q 2309 441 2620 675 
Q 2931 909 2931 1356 
Q 2931 1769 2642 2001 
Q 2353 2234 1838 2234 
L 1294 2234 
L 1294 2753 
L 1863 2753 
Q 2328 2753 2575 2939 
Q 2822 3125 2822 3475 
Q 2822 3834 2567 4026 
Q 2313 4219 1838 4219 
Q 1578 4219 1281 4162 
Q 984 4106 628 3988 
L 628 4550 
Q 988 4650 1302 4700 
Q 1616 4750 1894 4750 
Q 2613 4750 3031 4423 
Q 3450 4097 3450 3541 
Q 3450 3153 3228 2886 
Q 3006 2619 2597 2516 
z
" transform="scale(0.015625)"/>
       </defs>
       <use xlink:href="#DejaVuSans-33"/>
       <use xlink:href="#DejaVuSans-30" x="63.623047"/>
      </g>
     </g>
    </g>
    <g id="xtick_5">
     <g id="line2d_5">
      <g>
       <use xlink:href="#mebb96a4d43" x="620.096595" y="499.48" style="stroke: #000000; stroke-width: 0.8"/>
      </g>
     </g>
     <g id="text_5">
      <!-- 40 -->
      <g transform="translate(606.099095 523.196563) scale(0.22 -0.22)">
       <defs>
        <path id="DejaVuSans-34" d="M 2419 4116 
L 825 1625 
L 2419 1625 
L 2419 4116 
z
M 2253 4666 
L 3047 4666 
L 3047 1625 
L 3713 1625 
L 3713 1100 
L 3047 1100 
L 3047 0 
L 2419 0 
L 2419 1100 
L 313 1100 
L 313 1709 
L 2253 4666 
z
" transform="scale(0.015625)"/>
       </defs>
       <use xlink:href="#DejaVuSans-34"/>
       <use xlink:href="#DejaVuSans-30" x="63.623047"/>
      </g>
     </g>
    </g>
    <g id="text_6">
     <!-- Force Uncertainties -->
     <g transform="translate(283.426094 548.488438) scale(0.22 -0.22)">
      <defs>
       <path id="DejaVuSans-46" d="M 628 4666 
L 3309 4666 
L 3309 4134 
L 1259 4134 
L 1259 2759 
L 3109 2759 
L 3109 2228 
L 1259 2228 
L 1259 0 
L 628 0 
L 628 4666 
z
" transform="scale(0.015625)"/>
       <path id="DejaVuSans-6f" d="M 1959 3097 
Q 1497 3097 1228 2736 
Q 959 2375 959 1747 
Q 959 1119 1226 758 
Q 1494 397 1959 397 
Q 2419 397 2687 759 
Q 2956 1122 2956 1747 
Q 2956 2369 2687 2733 
Q 2419 3097 1959 3097 
z
M 1959 3584 
Q 2709 3584 3137 3096 
Q 3566 2609 3566 1747 
Q 3566 888 3137 398 
Q 2709 -91 1959 -91 
Q 1206 -91 779 398 
Q 353 888 353 1747 
Q 353 2609 779 3096 
Q 1206 3584 1959 3584 
z
" transform="scale(0.015625)"/>
       <path id="DejaVuSans-72" d="M 2631 2963 
Q 2534 3019 2420 3045 
Q 2306 3072 2169 3072 
Q 1681 3072 1420 2755 
Q 1159 2438 1159 1844 
L 1159 0 
L 581 0 
L 581 3500 
L 1159 3500 
L 1159 2956 
Q 1341 3275 1631 3429 
Q 1922 3584 2338 3584 
Q 2397 3584 2469 3576 
Q 2541 3569 2628 3553 
L 2631 2963 
z
" transform="scale(0.015625)"/>
       <path id="DejaVuSans-63" d="M 3122 3366 
L 3122 2828 
Q 2878 2963 2633 3030 
Q 2388 3097 2138 3097 
Q 1578 3097 1268 2742 
Q 959 2388 959 1747 
Q 959 1106 1268 751 
Q 1578 397 2138 397 
Q 2388 397 2633 464 
Q 2878 531 3122 666 
L 3122 134 
Q 2881 22 2623 -34 
Q 2366 -91 2075 -91 
Q 1284 -91 818 406 
Q 353 903 353 1747 
Q 353 2603 823 3093 
Q 1294 3584 2113 3584 
Q 2378 3584 2631 3529 
Q 2884 3475 3122 3366 
z
" transform="scale(0.015625)"/>
       <path id="DejaVuSans-65" d="M 3597 1894 
L 3597 1613 
L 953 1613 
Q 991 1019 1311 708 
Q 1631 397 2203 397 
Q 2534 397 2845 478 
Q 3156 559 3463 722 
L 3463 178 
Q 3153 47 2828 -22 
Q 2503 -91 2169 -91 
Q 1331 -91 842 396 
Q 353 884 353 1716 
Q 353 2575 817 3079 
Q 1281 3584 2069 3584 
Q 2775 3584 3186 3129 
Q 3597 2675 3597 1894 
z
M 3022 2063 
Q 3016 2534 2758 2815 
Q 2500 3097 2075 3097 
Q 1594 3097 1305 2825 
Q 1016 2553 972 2059 
L 3022 2063 
z
" transform="scale(0.015625)"/>
       <path id="DejaVuSans-20" transform="scale(0.015625)"/>
       <path id="DejaVuSans-55" d="M 556 4666 
L 1191 4666 
L 1191 1831 
Q 1191 1081 1462 751 
Q 1734 422 2344 422 
Q 2950 422 3222 751 
Q 3494 1081 3494 1831 
L 3494 4666 
L 4128 4666 
L 4128 1753 
Q 4128 841 3676 375 
Q 3225 -91 2344 -91 
Q 1459 -91 1007 375 
Q 556 841 556 1753 
L 556 4666 
z
" transform="scale(0.015625)"/>
       <path id="DejaVuSans-6e" d="M 3513 2113 
L 3513 0 
L 2938 0 
L 2938 2094 
Q 2938 2591 2744 2837 
Q 2550 3084 2163 3084 
Q 1697 3084 1428 2787 
Q 1159 2491 1159 1978 
L 1159 0 
L 581 0 
L 581 3500 
L 1159 3500 
L 1159 2956 
Q 1366 3272 1645 3428 
Q 1925 3584 2291 3584 
Q 2894 3584 3203 3211 
Q 3513 2838 3513 2113 
z
" transform="scale(0.015625)"/>
       <path id="DejaVuSans-74" d="M 1172 4494 
L 1172 3500 
L 2356 3500 
L 2356 3053 
L 1172 3053 
L 1172 1153 
Q 1172 725 1289 603 
Q 1406 481 1766 481 
L 2356 481 
L 2356 0 
L 1766 0 
Q 1100 0 847 248 
Q 594 497 594 1153 
L 594 3053 
L 172 3053 
L 172 3500 
L 594 3500 
L 594 4494 
L 1172 4494 
z
" transform="scale(0.015625)"/>
       <path id="DejaVuSans-61" d="M 2194 1759 
Q 1497 1759 1228 1600 
Q 959 1441 959 1056 
Q 959 750 1161 570 
Q 1363 391 1709 391 
Q 2188 391 2477 730 
Q 2766 1069 2766 1631 
L 2766 1759 
L 2194 1759 
z
M 3341 1997 
L 3341 0 
L 2766 0 
L 2766 531 
Q 2569 213 2275 61 
Q 1981 -91 1556 -91 
Q 1019 -91 701 211 
Q 384 513 384 1019 
Q 384 1609 779 1909 
Q 1175 2209 1959 2209 
L 2766 2209 
L 2766 2266 
Q 2766 2663 2505 2880 
Q 2244 3097 1772 3097 
Q 1472 3097 1187 3025 
Q 903 2953 641 2809 
L 641 3341 
Q 956 3463 1253 3523 
Q 1550 3584 1831 3584 
Q 2591 3584 2966 3190 
Q 3341 2797 3341 1997 
z
" transform="scale(0.015625)"/>
       <path id="DejaVuSans-69" d="M 603 3500 
L 1178 3500 
L 1178 0 
L 603 0 
L 603 3500 
z
M 603 4863 
L 1178 4863 
L 1178 4134 
L 603 4134 
L 603 4863 
z
" transform="scale(0.015625)"/>
       <path id="DejaVuSans-73" d="M 2834 3397 
L 2834 2853 
Q 2591 2978 2328 3040 
Q 2066 3103 1784 3103 
Q 1356 3103 1142 2972 
Q 928 2841 928 2578 
Q 928 2378 1081 2264 
Q 1234 2150 1697 2047 
L 1894 2003 
Q 2506 1872 2764 1633 
Q 3022 1394 3022 966 
Q 3022 478 2636 193 
Q 2250 -91 1575 -91 
Q 1294 -91 989 -36 
Q 684 19 347 128 
L 347 722 
Q 666 556 975 473 
Q 1284 391 1588 391 
Q 1994 391 2212 530 
Q 2431 669 2431 922 
Q 2431 1156 2273 1281 
Q 2116 1406 1581 1522 
L 1381 1569 
Q 847 1681 609 1914 
Q 372 2147 372 2553 
Q 372 3047 722 3315 
Q 1072 3584 1716 3584 
Q 2034 3584 2315 3537 
Q 2597 3491 2834 3397 
z
" transform="scale(0.015625)"/>
      </defs>
      <use xlink:href="#DejaVuSans-46"/>
      <use xlink:href="#DejaVuSans-6f" x="53.894531"/>
      <use xlink:href="#DejaVuSans-72" x="115.076172"/>
      <use xlink:href="#DejaVuSans-63" x="153.939453"/>
      <use xlink:href="#DejaVuSans-65" x="208.919922"/>
      <use xlink:href="#DejaVuSans-20" x="270.443359"/>
      <use xlink:href="#DejaVuSans-55" x="302.230469"/>
      <use xlink:href="#DejaVuSans-6e" x="375.423828"/>
      <use xlink:href="#DejaVuSans-63" x="438.802734"/>
      <use xlink:href="#DejaVuSans-65" x="493.783203"/>
      <use xlink:href="#DejaVuSans-72" x="555.306641"/>
      <use xlink:href="#DejaVuSans-74" x="596.419922"/>
      <use xlink:href="#DejaVuSans-61" x="635.628906"/>
      <use xlink:href="#DejaVuSans-69" x="696.908203"/>
      <use xlink:href="#DejaVuSans-6e" x="724.691406"/>
      <use xlink:href="#DejaVuSans-74" x="788.070312"/>
      <use xlink:href="#DejaVuSans-69" x="827.279297"/>
      <use xlink:href="#DejaVuSans-65" x="855.0625"/>
      <use xlink:href="#DejaVuSans-73" x="916.585938"/>
     </g>
    </g>
   </g>
   <g id="matplotlib.axis_2">
    <g id="ytick_1">
     <g id="line2d_6">
      <defs>
       <path id="m98da92d24c" d="M 0 0 
L -3.5 0 
" style="stroke: #000000; stroke-width: 0.8"/>
      </defs>
      <g>
       <use xlink:href="#m98da92d24c" x="83.72" y="430.023931" style="stroke: #000000; stroke-width: 0.8"/>
      </g>
     </g>
     <g id="text_7">
      <!-- 0 -->
      <g transform="translate(62.7225 438.382212) scale(0.22 -0.22)">
       <use xlink:href="#DejaVuSans-30"/>
      </g>
     </g>
    </g>
    <g id="ytick_2">
     <g id="line2d_7">
      <g>
       <use xlink:href="#m98da92d24c" x="83.72" y="343.242339" style="stroke: #000000; stroke-width: 0.8"/>
      </g>
     </g>
     <g id="text_8">
      <!-- 10 -->
      <g transform="translate(48.725 351.60062) scale(0.22 -0.22)">
       <use xlink:href="#DejaVuSans-31"/>
       <use xlink:href="#DejaVuSans-30" x="63.623047"/>
      </g>
     </g>
    </g>
    <g id="ytick_3">
     <g id="line2d_8">
      <g>
       <use xlink:href="#m98da92d24c" x="83.72" y="256.460747" style="stroke: #000000; stroke-width: 0.8"/>
      </g>
     </g>
     <g id="text_9">
      <!-- 20 -->
      <g transform="translate(48.725 264.819029) scale(0.22 -0.22)">
       <use xlink:href="#DejaVuSans-32"/>
       <use xlink:href="#DejaVuSans-30" x="63.623047"/>
      </g>
     </g>
    </g>
    <g id="ytick_4">
     <g id="line2d_9">
      <g>
       <use xlink:href="#m98da92d24c" x="83.72" y="169.679156" style="stroke: #000000; stroke-width: 0.8"/>
      </g>
     </g>
     <g id="text_10">
      <!-- 30 -->
      <g transform="translate(48.725 178.037437) scale(0.22 -0.22)">
       <use xlink:href="#DejaVuSans-33"/>
       <use xlink:href="#DejaVuSans-30" x="63.623047"/>
      </g>
     </g>
    </g>
    <g id="ytick_5">
     <g id="line2d_10">
      <g>
       <use xlink:href="#m98da92d24c" x="83.72" y="82.897564" style="stroke: #000000; stroke-width: 0.8"/>
      </g>
     </g>
     <g id="text_11">
      <!-- 40 -->
      <g transform="translate(48.725 91.255845) scale(0.22 -0.22)">
       <use xlink:href="#DejaVuSans-34"/>
       <use xlink:href="#DejaVuSans-30" x="63.623047"/>
      </g>
     </g>
    </g>
    <g id="text_12">
     <!-- Force Errors [kJ/(mol*A)] -->
     <g transform="translate(40.149688 394.9125) rotate(-90) scale(0.22 -0.22)">
      <defs>
       <path id="DejaVuSans-45" d="M 628 4666 
L 3578 4666 
L 3578 4134 
L 1259 4134 
L 1259 2753 
L 3481 2753 
L 3481 2222 
L 1259 2222 
L 1259 531 
L 3634 531 
L 3634 0 
L 628 0 
L 628 4666 
z
" transform="scale(0.015625)"/>
       <path id="DejaVuSans-5b" d="M 550 4863 
L 1875 4863 
L 1875 4416 
L 1125 4416 
L 1125 -397 
L 1875 -397 
L 1875 -844 
L 550 -844 
L 550 4863 
z
" transform="scale(0.015625)"/>
       <path id="DejaVuSans-6b" d="M 581 4863 
L 1159 4863 
L 1159 1991 
L 2875 3500 
L 3609 3500 
L 1753 1863 
L 3688 0 
L 2938 0 
L 1159 1709 
L 1159 0 
L 581 0 
L 581 4863 
z
" transform="scale(0.015625)"/>
       <path id="DejaVuSans-4a" d="M 628 4666 
L 1259 4666 
L 1259 325 
Q 1259 -519 939 -900 
Q 619 -1281 -91 -1281 
L -331 -1281 
L -331 -750 
L -134 -750 
Q 284 -750 456 -515 
Q 628 -281 628 325 
L 628 4666 
z
" transform="scale(0.015625)"/>
       <path id="DejaVuSans-2f" d="M 1625 4666 
L 2156 4666 
L 531 -594 
L 0 -594 
L 1625 4666 
z
" transform="scale(0.015625)"/>
       <path id="DejaVuSans-28" d="M 1984 4856 
Q 1566 4138 1362 3434 
Q 1159 2731 1159 2009 
Q 1159 1288 1364 580 
Q 1569 -128 1984 -844 
L 1484 -844 
Q 1016 -109 783 600 
Q 550 1309 550 2009 
Q 550 2706 781 3412 
Q 1013 4119 1484 4856 
L 1984 4856 
z
" transform="scale(0.015625)"/>
       <path id="DejaVuSans-6d" d="M 3328 2828 
Q 3544 3216 3844 3400 
Q 4144 3584 4550 3584 
Q 5097 3584 5394 3201 
Q 5691 2819 5691 2113 
L 5691 0 
L 5113 0 
L 5113 2094 
Q 5113 2597 4934 2840 
Q 4756 3084 4391 3084 
Q 3944 3084 3684 2787 
Q 3425 2491 3425 1978 
L 3425 0 
L 2847 0 
L 2847 2094 
Q 2847 2600 2669 2842 
Q 2491 3084 2119 3084 
Q 1678 3084 1418 2786 
Q 1159 2488 1159 1978 
L 1159 0 
L 581 0 
L 581 3500 
L 1159 3500 
L 1159 2956 
Q 1356 3278 1631 3431 
Q 1906 3584 2284 3584 
Q 2666 3584 2933 3390 
Q 3200 3197 3328 2828 
z
" transform="scale(0.015625)"/>
       <path id="DejaVuSans-6c" d="M 603 4863 
L 1178 4863 
L 1178 0 
L 603 0 
L 603 4863 
z
" transform="scale(0.015625)"/>
       <path id="DejaVuSans-2a" d="M 3009 3897 
L 1888 3291 
L 3009 2681 
L 2828 2375 
L 1778 3009 
L 1778 1831 
L 1422 1831 
L 1422 3009 
L 372 2375 
L 191 2681 
L 1313 3291 
L 191 3897 
L 372 4206 
L 1422 3572 
L 1422 4750 
L 1778 4750 
L 1778 3572 
L 2828 4206 
L 3009 3897 
z
" transform="scale(0.015625)"/>
       <path id="DejaVuSans-41" d="M 2188 4044 
L 1331 1722 
L 3047 1722 
L 2188 4044 
z
M 1831 4666 
L 2547 4666 
L 4325 0 
L 3669 0 
L 3244 1197 
L 1141 1197 
L 716 0 
L 50 0 
L 1831 4666 
z
" transform="scale(0.015625)"/>
       <path id="DejaVuSans-29" d="M 513 4856 
L 1013 4856 
Q 1481 4119 1714 3412 
Q 1947 2706 1947 2009 
Q 1947 1309 1714 600 
Q 1481 -109 1013 -844 
L 513 -844 
Q 928 -128 1133 580 
Q 1338 1288 1338 2009 
Q 1338 2731 1133 3434 
Q 928 4138 513 4856 
z
" transform="scale(0.015625)"/>
       <path id="DejaVuSans-5d" d="M 1947 4863 
L 1947 -844 
L 622 -844 
L 622 -397 
L 1369 -397 
L 1369 4416 
L 622 4416 
L 622 4863 
L 1947 4863 
z
" transform="scale(0.015625)"/>
      </defs>
      <use xlink:href="#DejaVuSans-46"/>
      <use xlink:href="#DejaVuSans-6f" x="53.894531"/>
      <use xlink:href="#DejaVuSans-72" x="115.076172"/>
      <use xlink:href="#DejaVuSans-63" x="153.939453"/>
      <use xlink:href="#DejaVuSans-65" x="208.919922"/>
      <use xlink:href="#DejaVuSans-20" x="270.443359"/>
      <use xlink:href="#DejaVuSans-45" x="302.230469"/>
      <use xlink:href="#DejaVuSans-72" x="365.414062"/>
      <use xlink:href="#DejaVuSans-72" x="404.777344"/>
      <use xlink:href="#DejaVuSans-6f" x="443.640625"/>
      <use xlink:href="#DejaVuSans-72" x="504.822266"/>
      <use xlink:href="#DejaVuSans-73" x="545.935547"/>
      <use xlink:href="#DejaVuSans-20" x="598.035156"/>
      <use xlink:href="#DejaVuSans-5b" x="629.822266"/>
      <use xlink:href="#DejaVuSans-6b" x="668.835938"/>
      <use xlink:href="#DejaVuSans-4a" x="726.746094"/>
      <use xlink:href="#DejaVuSans-2f" x="756.238281"/>
      <use xlink:href="#DejaVuSans-28" x="789.929688"/>
      <use xlink:href="#DejaVuSans-6d" x="828.943359"/>
      <use xlink:href="#DejaVuSans-6f" x="926.355469"/>
      <use xlink:href="#DejaVuSans-6c" x="987.537109"/>
      <use xlink:href="#DejaVuSans-2a" x="1015.320312"/>
      <use xlink:href="#DejaVuSans-41" x="1065.320312"/>
      <use xlink:href="#DejaVuSans-29" x="1133.728516"/>
      <use xlink:href="#DejaVuSans-5d" x="1172.742188"/>
     </g>
    </g>
   </g>
   <g id="line2d_11">
    <path d="M 83.72 499.48 
L 696.24 23.76 
" clip-path="url(#p435256de9a)" style="fill: none; stroke-dasharray: 5.55,2.4; stroke-dashoffset: 0; stroke: #ff0000; stroke-width: 1.5"/>
   </g>
   <g id="patch_3">
    <path d="M 83.72 499.48 
L 83.72 23.76 
" style="fill: none; stroke: #000000; stroke-width: 0.8; stroke-linejoin: miter; stroke-linecap: square"/>
   </g>
   <g id="patch_4">
    <path d="M 696.24 499.48 
L 696.24 23.76 
" style="fill: none; stroke: #000000; stroke-width: 0.8; stroke-linejoin: miter; stroke-linecap: square"/>
   </g>
   <g id="patch_5">
    <path d="M 83.72 499.48 
L 696.24 499.48 
" style="fill: none; stroke: #000000; stroke-width: 0.8; stroke-linejoin: miter; stroke-linecap: square"/>
   </g>
   <g id="patch_6">
    <path d="M 83.72 23.76 
L 696.24 23.76 
" style="fill: none; stroke: #000000; stroke-width: 0.8; stroke-linejoin: miter; stroke-linecap: square"/>
   </g>
   <g id="text_13">
    <!-- Correlation in: 0.982 -->
    <g transform="translate(132.7216 46.696812) scale(0.22 -0.22)">
     <defs>
      <path id="DejaVuSans-43" d="M 4122 4306 
L 4122 3641 
Q 3803 3938 3442 4084 
Q 3081 4231 2675 4231 
Q 1875 4231 1450 3742 
Q 1025 3253 1025 2328 
Q 1025 1406 1450 917 
Q 1875 428 2675 428 
Q 3081 428 3442 575 
Q 3803 722 4122 1019 
L 4122 359 
Q 3791 134 3420 21 
Q 3050 -91 2638 -91 
Q 1578 -91 968 557 
Q 359 1206 359 2328 
Q 359 3453 968 4101 
Q 1578 4750 2638 4750 
Q 3056 4750 3426 4639 
Q 3797 4528 4122 4306 
z
" transform="scale(0.015625)"/>
      <path id="DejaVuSans-3a" d="M 750 794 
L 1409 794 
L 1409 0 
L 750 0 
L 750 794 
z
M 750 3309 
L 1409 3309 
L 1409 2516 
L 750 2516 
L 750 3309 
z
" transform="scale(0.015625)"/>
      <path id="DejaVuSans-2e" d="M 684 794 
L 1344 794 
L 1344 0 
L 684 0 
L 684 794 
z
" transform="scale(0.015625)"/>
      <path id="DejaVuSans-39" d="M 703 97 
L 703 672 
Q 941 559 1184 500 
Q 1428 441 1663 441 
Q 2288 441 2617 861 
Q 2947 1281 2994 2138 
Q 2813 1869 2534 1725 
Q 2256 1581 1919 1581 
Q 1219 1581 811 2004 
Q 403 2428 403 3163 
Q 403 3881 828 4315 
Q 1253 4750 1959 4750 
Q 2769 4750 3195 4129 
Q 3622 3509 3622 2328 
Q 3622 1225 3098 567 
Q 2575 -91 1691 -91 
Q 1453 -91 1209 -44 
Q 966 3 703 97 
z
M 1959 2075 
Q 2384 2075 2632 2365 
Q 2881 2656 2881 3163 
Q 2881 3666 2632 3958 
Q 2384 4250 1959 4250 
Q 1534 4250 1286 3958 
Q 1038 3666 1038 3163 
Q 1038 2656 1286 2365 
Q 1534 2075 1959 2075 
z
" transform="scale(0.015625)"/>
      <path id="DejaVuSans-38" d="M 2034 2216 
Q 1584 2216 1326 1975 
Q 1069 1734 1069 1313 
Q 1069 891 1326 650 
Q 1584 409 2034 409 
Q 2484 409 2743 651 
Q 3003 894 3003 1313 
Q 3003 1734 2745 1975 
Q 2488 2216 2034 2216 
z
M 1403 2484 
Q 997 2584 770 2862 
Q 544 3141 544 3541 
Q 544 4100 942 4425 
Q 1341 4750 2034 4750 
Q 2731 4750 3128 4425 
Q 3525 4100 3525 3541 
Q 3525 3141 3298 2862 
Q 3072 2584 2669 2484 
Q 3125 2378 3379 2068 
Q 3634 1759 3634 1313 
Q 3634 634 3220 271 
Q 2806 -91 2034 -91 
Q 1263 -91 848 271 
Q 434 634 434 1313 
Q 434 1759 690 2068 
Q 947 2378 1403 2484 
z
M 1172 3481 
Q 1172 3119 1398 2916 
Q 1625 2713 2034 2713 
Q 2441 2713 2670 2916 
Q 2900 3119 2900 3481 
Q 2900 3844 2670 4047 
Q 2441 4250 2034 4250 
Q 1625 4250 1398 4047 
Q 1172 3844 1172 3481 
z
" transform="scale(0.015625)"/>
     </defs>
     <use xlink:href="#DejaVuSans-43"/>
     <use xlink:href="#DejaVuSans-6f" x="69.824219"/>
     <use xlink:href="#DejaVuSans-72" x="131.005859"/>
     <use xlink:href="#DejaVuSans-72" x="170.369141"/>
     <use xlink:href="#DejaVuSans-65" x="209.232422"/>
     <use xlink:href="#DejaVuSans-6c" x="270.755859"/>
     <use xlink:href="#DejaVuSans-61" x="298.539062"/>
     <use xlink:href="#DejaVuSans-74" x="359.818359"/>
     <use xlink:href="#DejaVuSans-69" x="399.027344"/>
     <use xlink:href="#DejaVuSans-6f" x="426.810547"/>
     <use xlink:href="#DejaVuSans-6e" x="487.992188"/>
     <use xlink:href="#DejaVuSans-20" x="551.371094"/>
     <use xlink:href="#DejaVuSans-69" x="583.158203"/>
     <use xlink:href="#DejaVuSans-6e" x="610.941406"/>
     <use xlink:href="#DejaVuSans-3a" x="674.320312"/>
     <use xlink:href="#DejaVuSans-20" x="708.011719"/>
     <use xlink:href="#DejaVuSans-30" x="739.798828"/>
     <use xlink:href="#DejaVuSans-2e" x="803.421875"/>
     <use xlink:href="#DejaVuSans-39" x="835.208984"/>
     <use xlink:href="#DejaVuSans-38" x="898.832031"/>
     <use xlink:href="#DejaVuSans-32" x="962.455078"/>
    </g>
    <!-- Correlation Out: 0.659 -->
    <g transform="translate(132.7216 71.332) scale(0.22 -0.22)">
     <defs>
      <path id="DejaVuSans-4f" d="M 2522 4238 
Q 1834 4238 1429 3725 
Q 1025 3213 1025 2328 
Q 1025 1447 1429 934 
Q 1834 422 2522 422 
Q 3209 422 3611 934 
Q 4013 1447 4013 2328 
Q 4013 3213 3611 3725 
Q 3209 4238 2522 4238 
z
M 2522 4750 
Q 3503 4750 4090 4092 
Q 4678 3434 4678 2328 
Q 4678 1225 4090 567 
Q 3503 -91 2522 -91 
Q 1538 -91 948 565 
Q 359 1222 359 2328 
Q 359 3434 948 4092 
Q 1538 4750 2522 4750 
z
" transform="scale(0.015625)"/>
      <path id="DejaVuSans-75" d="M 544 1381 
L 544 3500 
L 1119 3500 
L 1119 1403 
Q 1119 906 1312 657 
Q 1506 409 1894 409 
Q 2359 409 2629 706 
Q 2900 1003 2900 1516 
L 2900 3500 
L 3475 3500 
L 3475 0 
L 2900 0 
L 2900 538 
Q 2691 219 2414 64 
Q 2138 -91 1772 -91 
Q 1169 -91 856 284 
Q 544 659 544 1381 
z
M 1991 3584 
L 1991 3584 
z
" transform="scale(0.015625)"/>
      <path id="DejaVuSans-36" d="M 2113 2584 
Q 1688 2584 1439 2293 
Q 1191 2003 1191 1497 
Q 1191 994 1439 701 
Q 1688 409 2113 409 
Q 2538 409 2786 701 
Q 3034 994 3034 1497 
Q 3034 2003 2786 2293 
Q 2538 2584 2113 2584 
z
M 3366 4563 
L 3366 3988 
Q 3128 4100 2886 4159 
Q 2644 4219 2406 4219 
Q 1781 4219 1451 3797 
Q 1122 3375 1075 2522 
Q 1259 2794 1537 2939 
Q 1816 3084 2150 3084 
Q 2853 3084 3261 2657 
Q 3669 2231 3669 1497 
Q 3669 778 3244 343 
Q 2819 -91 2113 -91 
Q 1303 -91 875 529 
Q 447 1150 447 2328 
Q 447 3434 972 4092 
Q 1497 4750 2381 4750 
Q 2619 4750 2861 4703 
Q 3103 4656 3366 4563 
z
" transform="scale(0.015625)"/>
      <path id="DejaVuSans-35" d="M 691 4666 
L 3169 4666 
L 3169 4134 
L 1269 4134 
L 1269 2991 
Q 1406 3038 1543 3061 
Q 1681 3084 1819 3084 
Q 2600 3084 3056 2656 
Q 3513 2228 3513 1497 
Q 3513 744 3044 326 
Q 2575 -91 1722 -91 
Q 1428 -91 1123 -41 
Q 819 9 494 109 
L 494 744 
Q 775 591 1075 516 
Q 1375 441 1709 441 
Q 2250 441 2565 725 
Q 2881 1009 2881 1497 
Q 2881 1984 2565 2268 
Q 2250 2553 1709 2553 
Q 1456 2553 1204 2497 
Q 953 2441 691 2322 
L 691 4666 
z
" transform="scale(0.015625)"/>
     </defs>
     <use xlink:href="#DejaVuSans-43"/>
     <use xlink:href="#DejaVuSans-6f" x="69.824219"/>
     <use xlink:href="#DejaVuSans-72" x="131.005859"/>
     <use xlink:href="#DejaVuSans-72" x="170.369141"/>
     <use xlink:href="#DejaVuSans-65" x="209.232422"/>
     <use xlink:href="#DejaVuSans-6c" x="270.755859"/>
     <use xlink:href="#DejaVuSans-61" x="298.539062"/>
     <use xlink:href="#DejaVuSans-74" x="359.818359"/>
     <use xlink:href="#DejaVuSans-69" x="399.027344"/>
     <use xlink:href="#DejaVuSans-6f" x="426.810547"/>
     <use xlink:href="#DejaVuSans-6e" x="487.992188"/>
     <use xlink:href="#DejaVuSans-20" x="551.371094"/>
     <use xlink:href="#DejaVuSans-4f" x="583.158203"/>
     <use xlink:href="#DejaVuSans-75" x="661.869141"/>
     <use xlink:href="#DejaVuSans-74" x="725.248047"/>
     <use xlink:href="#DejaVuSans-3a" x="764.457031"/>
     <use xlink:href="#DejaVuSans-20" x="798.148438"/>
     <use xlink:href="#DejaVuSans-30" x="829.935547"/>
     <use xlink:href="#DejaVuSans-2e" x="893.558594"/>
     <use xlink:href="#DejaVuSans-36" x="925.345703"/>
     <use xlink:href="#DejaVuSans-35" x="988.96875"/>
     <use xlink:href="#DejaVuSans-39" x="1052.591797"/>
    </g>
   </g>
   <g id="legend_1">
    <g id="patch_7">
     <path d="M 407.0225 105.94375 
L 680.84 105.94375 
Q 685.24 105.94375 685.24 101.54375 
L 685.24 39.16 
Q 685.24 34.76 680.84 34.76 
L 407.0225 34.76 
Q 402.6225 34.76 402.6225 39.16 
L 402.6225 101.54375 
Q 402.6225 105.94375 407.0225 105.94375 
z
" style="fill: #ffffff; opacity: 0.8; stroke: #cccccc; stroke-linejoin: miter"/>
    </g>
    <g id="line2d_12">
     <defs>
      <path id="m27e059a81b" d="M 0 2.5 
C 0.663008 2.5 1.29895 2.236584 1.767767 1.767767 
C 2.236584 1.29895 2.5 0.663008 2.5 0 
C 2.5 -0.663008 2.236584 -1.29895 1.767767 -1.767767 
C 1.29895 -2.236584 0.663008 -2.5 0 -2.5 
C -0.663008 -2.5 -1.29895 -2.236584 -1.767767 -1.767767 
C -2.236584 -1.29895 -2.5 -0.663008 -2.5 0 
C -2.5 0.663008 -2.236584 1.29895 -1.767767 1.767767 
C -1.29895 2.236584 -0.663008 2.5 0 2.5 
z
" style="stroke: #ffffff"/>
     </defs>
     <g>
      <use xlink:href="#m27e059a81b" x="433.4225" y="52.576562" style="fill: #0000ff; stroke: #ffffff"/>
     </g>
    </g>
    <g id="text_14">
     <!-- In Distribution -->
     <g transform="translate(473.0225 60.276562) scale(0.22 -0.22)">
      <defs>
       <path id="DejaVuSans-49" d="M 628 4666 
L 1259 4666 
L 1259 0 
L 628 0 
L 628 4666 
z
" transform="scale(0.015625)"/>
       <path id="DejaVuSans-44" d="M 1259 4147 
L 1259 519 
L 2022 519 
Q 2988 519 3436 956 
Q 3884 1394 3884 2338 
Q 3884 3275 3436 3711 
Q 2988 4147 2022 4147 
L 1259 4147 
z
M 628 4666 
L 1925 4666 
Q 3281 4666 3915 4102 
Q 4550 3538 4550 2338 
Q 4550 1131 3912 565 
Q 3275 0 1925 0 
L 628 0 
L 628 4666 
z
" transform="scale(0.015625)"/>
       <path id="DejaVuSans-62" d="M 3116 1747 
Q 3116 2381 2855 2742 
Q 2594 3103 2138 3103 
Q 1681 3103 1420 2742 
Q 1159 2381 1159 1747 
Q 1159 1113 1420 752 
Q 1681 391 2138 391 
Q 2594 391 2855 752 
Q 3116 1113 3116 1747 
z
M 1159 2969 
Q 1341 3281 1617 3432 
Q 1894 3584 2278 3584 
Q 2916 3584 3314 3078 
Q 3713 2572 3713 1747 
Q 3713 922 3314 415 
Q 2916 -91 2278 -91 
Q 1894 -91 1617 61 
Q 1341 213 1159 525 
L 1159 0 
L 581 0 
L 581 4863 
L 1159 4863 
L 1159 2969 
z
" transform="scale(0.015625)"/>
      </defs>
      <use xlink:href="#DejaVuSans-49"/>
      <use xlink:href="#DejaVuSans-6e" x="29.492188"/>
      <use xlink:href="#DejaVuSans-20" x="92.871094"/>
      <use xlink:href="#DejaVuSans-44" x="124.658203"/>
      <use xlink:href="#DejaVuSans-69" x="201.660156"/>
      <use xlink:href="#DejaVuSans-73" x="229.443359"/>
      <use xlink:href="#DejaVuSans-74" x="281.542969"/>
      <use xlink:href="#DejaVuSans-72" x="320.751953"/>
      <use xlink:href="#DejaVuSans-69" x="361.865234"/>
      <use xlink:href="#DejaVuSans-62" x="389.648438"/>
      <use xlink:href="#DejaVuSans-75" x="453.125"/>
      <use xlink:href="#DejaVuSans-74" x="516.503906"/>
      <use xlink:href="#DejaVuSans-69" x="555.712891"/>
      <use xlink:href="#DejaVuSans-6f" x="583.496094"/>
      <use xlink:href="#DejaVuSans-6e" x="644.677734"/>
     </g>
    </g>
    <g id="line2d_13">
     <defs>
      <path id="mefa89846e2" d="M 0 2.5 
C 0.663008 2.5 1.29895 2.236584 1.767767 1.767767 
C 2.236584 1.29895 2.5 0.663008 2.5 0 
C 2.5 -0.663008 2.236584 -1.29895 1.767767 -1.767767 
C 1.29895 -2.236584 0.663008 -2.5 0 -2.5 
C -0.663008 -2.5 -1.29895 -2.236584 -1.767767 -1.767767 
C -2.236584 -1.29895 -2.5 -0.663008 -2.5 0 
C -2.5 0.663008 -2.236584 1.29895 -1.767767 1.767767 
C -1.29895 2.236584 -0.663008 2.5 0 2.5 
z
" style="stroke: #ffffff"/>
     </defs>
     <g>
      <use xlink:href="#mefa89846e2" x="433.4225" y="84.868437" style="fill: #008000; stroke: #ffffff"/>
     </g>
    </g>
    <g id="text_15">
     <!-- Out of Distribution -->
     <g transform="translate(473.0225 92.568437) scale(0.22 -0.22)">
      <defs>
       <path id="DejaVuSans-66" d="M 2375 4863 
L 2375 4384 
L 1825 4384 
Q 1516 4384 1395 4259 
Q 1275 4134 1275 3809 
L 1275 3500 
L 2222 3500 
L 2222 3053 
L 1275 3053 
L 1275 0 
L 697 0 
L 697 3053 
L 147 3053 
L 147 3500 
L 697 3500 
L 697 3744 
Q 697 4328 969 4595 
Q 1241 4863 1831 4863 
L 2375 4863 
z
" transform="scale(0.015625)"/>
      </defs>
      <use xlink:href="#DejaVuSans-4f"/>
      <use xlink:href="#DejaVuSans-75" x="78.710938"/>
      <use xlink:href="#DejaVuSans-74" x="142.089844"/>
      <use xlink:href="#DejaVuSans-20" x="181.298828"/>
      <use xlink:href="#DejaVuSans-6f" x="213.085938"/>
      <use xlink:href="#DejaVuSans-66" x="274.267578"/>
      <use xlink:href="#DejaVuSans-20" x="309.472656"/>
      <use xlink:href="#DejaVuSans-44" x="341.259766"/>
      <use xlink:href="#DejaVuSans-69" x="418.261719"/>
      <use xlink:href="#DejaVuSans-73" x="446.044922"/>
      <use xlink:href="#DejaVuSans-74" x="498.144531"/>
      <use xlink:href="#DejaVuSans-72" x="537.353516"/>
      <use xlink:href="#DejaVuSans-69" x="578.466797"/>
      <use xlink:href="#DejaVuSans-62" x="606.25"/>
      <use xlink:href="#DejaVuSans-75" x="669.726562"/>
      <use xlink:href="#DejaVuSans-74" x="733.105469"/>
      <use xlink:href="#DejaVuSans-69" x="772.314453"/>
      <use xlink:href="#DejaVuSans-6f" x="800.097656"/>
      <use xlink:href="#DejaVuSans-6e" x="861.279297"/>
     </g>
    </g>
   </g>
  </g>
 </g>
 <defs>
  <clipPath id="p435256de9a">
   <rect x="83.72" y="23.76" width="612.52" height="475.72"/>
  </clipPath>
 </defs>
</svg>
