<?xml version="1.0" encoding="utf-8" standalone="no"?>
<!DOCTYPE svg PUBLIC "-//W3C//DTD SVG 1.1//EN"
  "http://www.w3.org/Graphics/SVG/1.1/DTD/svg11.dtd">
<svg xmlns:xlink="http://www.w3.org/1999/xlink" width="720pt" height="576pt" viewBox="0 0 720 576" xmlns="http://www.w3.org/2000/svg" version="1.1">
 <metadata>
  <rdf:RDF xmlns:dc="http://purl.org/dc/elements/1.1/" xmlns:cc="http://creativecommons.org/ns#" xmlns:rdf="http://www.w3.org/1999/02/22-rdf-syntax-ns#">
   <cc:Work>
    <dc:type rdf:resource="http://purl.org/dc/dcmitype/StillImage"/>
    <dc:date>2024-12-09T09:33:31.329055</dc:date>
    <dc:format>image/svg+xml</dc:format>
    <dc:creator>
     <cc:Agent>
      <dc:title>Matplotlib v3.8.4, https://matplotlib.org/</dc:title>
     </cc:Agent>
    </dc:creator>
   </cc:Work>
  </rdf:RDF>
 </metadata>
 <defs>
  <style type="text/css">*{stroke-linejoin: round; stroke-linecap: butt}</style>
 </defs>
 <g id="figure_1">
  <g id="patch_1">
   <path d="M 0 576 
L 720 576 
L 720 0 
L 0 0 
z
" style="fill: #ffffff"/>
  </g>
  <g id="axes_1">
   <g id="patch_2">
    <path d="M 88.13 499.48 
L 696.24 499.48 
L 696.24 23.76 
L 88.13 23.76 
z
" style="fill: #ffffff"/>
   </g>
   <g id="QuadContourSet_1">
    <path d="M -164.575734 704.654489 
L -112.858994 700.282627 
L -61.142254 685.459549 
L -41.501011 677.108189 
L -9.425514 668.748679 
L 42.291226 649.582612 
L 67.066327 635.897903 
L 94.007965 626.484194 
L 145.724705 598.744772 
L 151.82444 594.687617 
L 197.441445 574.351833 
L 228.640641 553.477331 
L 249.158185 543.687714 
L 295.774262 512.267045 
L 300.874924 509.658217 
L 352.591664 479.264824 
L 363.85052 471.056759 
L 404.308404 448.694531 
L 429.859981 429.846473 
L 456.025144 414.356776 
L 490.439114 388.636187 
L 507.741883 377.649438 
L 547.60187 347.425901 
L 559.458623 339.339171 
L 602.465454 306.215615 
L 611.175363 299.82592 
L 655.633734 265.005329 
L 662.892103 259.27007 
L 707.386169 223.795043 
L 714.608842 217.640035 
L 757.758048 182.584757 
L 766.325582 174.700617 
L 806.546267 141.374471 
L 818.042322 129.936408 
L 853.242466 100.164185 
L 869.759062 82.374918 
L 896.863542 58.953899 
L 921.475802 30.222939 
L 935.599915 17.743613 
L 966.673153 -23.466673 
L 973.192541 -42.915272 
L 984.341372 -64.676959 
L 985.785491 -105.887245 
L 973.192541 -124.922908 
L 921.475802 -146.488992 
L 869.759062 -142.30416 
L 818.042322 -134.091357 
L 766.325582 -119.595887 
L 738.6627 -105.887245 
L 714.608842 -98.472694 
L 662.892103 -77.424619 
L 637.417219 -64.676959 
L 611.175363 -56.004914 
L 559.458623 -32.355322 
L 542.715563 -23.466673 
L 507.741883 -10.180348 
L 458.392297 17.743613 
L 456.025144 18.758105 
L 404.308404 46.320756 
L 386.346441 58.953899 
L 352.591664 78.393201 
L 322.599192 100.164185 
L 300.874924 113.879028 
L 264.149679 141.374471 
L 249.158185 151.744895 
L 209.201323 182.584757 
L 197.441445 191.496108 
L 156.838379 223.795043 
L 145.724705 233.019978 
L 106.70999 265.005329 
L 94.007965 276.55645 
L 58.912954 306.215615 
L 42.291226 322.783555 
L 14.019059 347.425901 
L -9.425514 373.058608 
L -26.740475 388.636187 
L -61.093343 429.846473 
L -61.142254 429.915793 
L -99.08104 471.056759 
L -112.858994 493.084818 
L -129.551877 512.267045 
L -156.989673 553.477331 
L -164.575734 568.889104 
L -184.163238 594.687617 
L -204.377894 635.897903 
L -216.292473 677.108189 
z
M -97.751626 594.687617 
L -88.584021 553.477331 
L -61.142254 516.436099 
L -58.972226 512.267045 
L -31.435917 471.056759 
L -9.425514 447.63959 
L 3.677426 429.846473 
L 42.291226 391.278437 
L 44.498421 388.636187 
L 83.325846 347.425901 
L 94.007965 337.640579 
L 125.656101 306.215615 
L 145.724705 288.838941 
L 172.742409 265.005329 
L 197.441445 244.806796 
L 224.264374 223.795043 
L 249.158185 204.588831 
L 280.811798 182.584757 
L 300.874924 168.000423 
L 344.0694 141.374471 
L 352.591664 135.545781 
L 404.308404 103.878571 
L 411.461108 100.164185 
L 456.025144 72.132928 
L 484.51845 58.953899 
L 507.741883 45.168958 
L 559.458623 21.132328 
L 567.765197 17.743613 
L 611.175363 -6.446416 
L 657.18949 -23.466673 
L 662.892103 -26.512973 
L 714.608842 -42.241628 
L 766.325582 -50.448544 
L 818.042322 -48.215366 
L 848.77938 -23.466673 
L 845.278494 17.743613 
L 821.174371 58.953899 
L 818.042322 62.396774 
L 791.859862 100.164185 
L 766.325582 125.244764 
L 753.148042 141.374471 
L 714.608842 176.007185 
L 708.41899 182.584757 
L 662.892103 220.718125 
L 659.615286 223.795043 
L 611.175363 262.178985 
L 607.816006 265.005329 
L 559.458623 301.690737 
L 553.521267 306.215615 
L 507.741883 339.78371 
L 496.765957 347.425901 
L 456.025144 376.520232 
L 437.105179 388.636187 
L 404.308404 411.583528 
L 373.459763 429.846473 
L 352.591664 444.219132 
L 303.748152 471.056759 
L 300.874924 473.01174 
L 249.158185 504.397577 
L 232.042841 512.267045 
L 197.441445 533.087127 
L 148.750044 553.477331 
L 145.724705 555.243595 
L 94.007965 578.634465 
L 42.291226 594.687617 
L 42.291226 594.687617 
L -9.425514 612.061438 
L -61.142254 616.177314 
z
" clip-path="url(#pf180f4cd8b)" style="fill: #ecf4fb"/>
    <path d="M -61.142254 616.177314 
L -9.425514 612.061438 
L 42.291226 594.687617 
L 42.291226 594.687617 
L 94.007965 578.634465 
L 145.724705 555.243595 
L 148.750044 553.477331 
L 197.441445 533.087127 
L 232.042841 512.267045 
L 249.158185 504.397577 
L 300.874924 473.01174 
L 303.748152 471.056759 
L 352.591664 444.219132 
L 373.459763 429.846473 
L 404.308404 411.583528 
L 437.105179 388.636187 
L 456.025144 376.520232 
L 496.765957 347.425901 
L 507.741883 339.78371 
L 553.521267 306.215615 
L 559.458623 301.690737 
L 607.816006 265.005329 
L 611.175363 262.178985 
L 659.615286 223.795043 
L 662.892103 220.718125 
L 708.41899 182.584757 
L 714.608842 176.007185 
L 753.148042 141.374471 
L 766.325582 125.244764 
L 791.859862 100.164185 
L 818.042322 62.396774 
L 821.174371 58.953899 
L 845.278494 17.743613 
L 848.77938 -23.466673 
L 818.042322 -48.215366 
L 766.325582 -50.448544 
L 714.608842 -42.241628 
L 662.892103 -26.512973 
L 657.18949 -23.466673 
L 611.175363 -6.446416 
L 567.765197 17.743613 
L 559.458623 21.132328 
L 507.741883 45.168958 
L 484.51845 58.953899 
L 456.025144 72.132928 
L 411.461108 100.164185 
L 404.308404 103.878571 
L 352.591664 135.545781 
L 344.0694 141.374471 
L 300.874924 168.000423 
L 280.811798 182.584757 
L 249.158185 204.588831 
L 224.264374 223.795043 
L 197.441445 244.806796 
L 172.742409 265.005329 
L 145.724705 288.838941 
L 125.656101 306.215615 
L 94.007965 337.640579 
L 83.325846 347.425901 
L 44.498421 388.636187 
L 42.291226 391.278437 
L 3.677426 429.846473 
L -9.425514 447.63959 
L -31.435917 471.056759 
L -58.972226 512.267045 
L -61.142254 516.436099 
L -88.584021 553.477331 
L -97.751626 594.687617 
z
M -22.064434 553.477331 
L -22.84514 512.267045 
L -9.425514 495.935264 
L 5.855606 471.056759 
L 42.291226 430.679806 
L 42.889171 429.846473 
L 77.638928 388.636187 
L 94.007965 373.248504 
L 118.411825 347.425901 
L 145.724705 323.217481 
L 163.865799 306.215615 
L 197.441445 278.122876 
L 213.220086 265.005329 
L 249.158185 236.600582 
L 266.503576 223.795043 
L 300.874924 198.126468 
L 324.561429 182.584757 
L 352.591664 162.80818 
L 389.322598 141.374471 
L 404.308404 131.388994 
L 456.025144 102.570394 
L 460.810527 100.164185 
L 507.741883 71.449111 
L 535.390071 58.953899 
L 559.458623 44.920773 
L 611.175363 24.89236 
L 640.692947 17.743613 
L 662.892103 10.717739 
L 714.608842 4.498683 
L 763.702556 17.743613 
L 766.325582 58.953899 
L 743.384534 100.164185 
L 714.608842 132.568011 
L 708.447504 141.374471 
L 667.933418 182.584757 
L 662.892103 186.807368 
L 623.501444 223.795043 
L 611.175363 233.562267 
L 573.802542 265.005329 
L 559.458623 275.88707 
L 519.662775 306.215615 
L 507.741883 314.956702 
L 461.108721 347.425901 
L 456.025144 351.056248 
L 404.308404 385.805591 
L 399.741417 388.636187 
L 352.591664 420.15833 
L 335.257984 429.846473 
L 300.874924 451.972067 
L 263.167295 471.056759 
L 249.158185 479.762689 
L 197.441445 504.553456 
L 177.114317 512.267045 
L 145.724705 527.217466 
L 94.007965 545.514457 
L 64.385674 553.477331 
L 42.291226 561.294989 
L -9.425514 561.419977 
z
" clip-path="url(#pf180f4cd8b)" style="fill: #d5e5f4"/>
    <path d="M -9.425514 561.419977 
L 42.291226 561.294989 
L 64.385674 553.477331 
L 94.007965 545.514457 
L 145.724705 527.217466 
L 177.114317 512.267045 
L 197.441445 504.553456 
L 249.158185 479.762689 
L 263.167295 471.056759 
L 300.874924 451.972067 
L 335.257984 429.846473 
L 352.591664 420.15833 
L 399.741417 388.636187 
L 404.308404 385.805591 
L 456.025144 351.056248 
L 461.108721 347.425901 
L 507.741883 314.956702 
L 519.662775 306.215615 
L 559.458623 275.88707 
L 573.802542 265.005329 
L 611.175363 233.562267 
L 623.501444 223.795043 
L 662.892103 186.807368 
L 667.933418 182.584757 
L 708.447504 141.374471 
L 714.608842 132.568011 
L 743.384534 100.164185 
L 766.325582 58.953899 
L 763.702556 17.743613 
L 714.608842 4.498683 
L 662.892103 10.717739 
L 640.692947 17.743613 
L 611.175363 24.89236 
L 559.458623 44.920773 
L 535.390071 58.953899 
L 507.741883 71.449111 
L 460.810527 100.164185 
L 456.025144 102.570394 
L 404.308404 131.388994 
L 389.322598 141.374471 
L 352.591664 162.80818 
L 324.561429 182.584757 
L 300.874924 198.126468 
L 266.503576 223.795043 
L 249.158185 236.600582 
L 213.220086 265.005329 
L 197.441445 278.122876 
L 163.865799 306.215615 
L 145.724705 323.217481 
L 118.411825 347.425901 
L 94.007965 373.248504 
L 77.638928 388.636187 
L 42.889171 429.846473 
L 42.291226 430.679806 
L 5.855606 471.056759 
L -9.425514 495.935264 
L -22.84514 512.267045 
L -22.064434 553.477331 
z
M 24.416789 512.267045 
L 30.908434 471.056759 
L 42.291226 458.442662 
L 62.809968 429.846473 
L 94.007965 398.110984 
L 101.883999 388.636187 
L 145.724705 347.425901 
L 145.724705 347.425901 
L 189.696327 306.215615 
L 197.441445 299.735276 
L 239.21689 265.005329 
L 249.158185 257.14793 
L 294.33542 223.795043 
L 300.874924 218.911331 
L 352.591664 183.894137 
L 354.668805 182.584757 
L 404.308404 148.8401 
L 417.596798 141.374471 
L 456.025144 116.627895 
L 488.767588 100.164185 
L 507.741883 88.554712 
L 559.458623 66.656549 
L 587.288745 58.953899 
L 611.175363 50.843858 
L 662.892103 44.420096 
L 707.868283 58.953899 
L 705.060094 100.164185 
L 679.13444 141.374471 
L 662.892103 157.456622 
L 641.709379 182.584757 
L 611.175363 209.939994 
L 597.487484 223.795043 
L 559.458623 255.239327 
L 548.365485 265.005329 
L 507.741883 296.44791 
L 495.157162 306.215615 
L 456.025144 334.860658 
L 437.842642 347.425901 
L 404.308404 370.818657 
L 375.56095 388.636187 
L 352.591664 403.992388 
L 306.334457 429.846473 
L 300.874924 433.359697 
L 249.158185 460.396636 
L 224.088525 471.056759 
L 197.441445 484.350437 
L 145.724705 504.373847 
L 119.938266 512.267045 
L 94.007965 521.979792 
L 42.291226 524.528964 
z
" clip-path="url(#pf180f4cd8b)" style="fill: #b9d6ea"/>
    <path d="M 42.291226 524.528964 
L 94.007965 521.979792 
L 119.938266 512.267045 
L 145.724705 504.373847 
L 197.441445 484.350437 
L 224.088525 471.056759 
L 249.158185 460.396636 
L 300.874924 433.359697 
L 306.334457 429.846473 
L 352.591664 403.992388 
L 375.56095 388.636187 
L 404.308404 370.818657 
L 437.842642 347.425901 
L 456.025144 334.860658 
L 495.157162 306.215615 
L 507.741883 296.44791 
L 548.365485 265.005329 
L 559.458623 255.239327 
L 597.487484 223.795043 
L 611.175363 209.939994 
L 641.709379 182.584757 
L 662.892103 157.456622 
L 679.13444 141.374471 
L 705.060094 100.164185 
L 707.868283 58.953899 
L 662.892103 44.420096 
L 611.175363 50.843858 
L 587.288745 58.953899 
L 559.458623 66.656549 
L 507.741883 88.554712 
L 488.767588 100.164185 
L 456.025144 116.627895 
L 417.596798 141.374471 
L 404.308404 148.8401 
L 354.668805 182.584757 
L 352.591664 183.894137 
L 300.874924 218.911331 
L 294.33542 223.795043 
L 249.158185 257.14793 
L 239.21689 265.005329 
L 197.441445 299.735276 
L 189.696327 306.215615 
L 145.724705 347.425901 
L 145.724705 347.425901 
L 101.883999 388.636187 
L 94.007965 398.110984 
L 62.809968 429.846473 
L 42.291226 458.442662 
L 30.908434 471.056759 
L 24.416789 512.267045 
z
M 66.100497 471.056759 
L 82.743637 429.846473 
L 94.007965 418.388078 
L 118.739567 388.636187 
L 145.724705 363.270144 
L 160.876274 347.425901 
L 197.441445 315.485023 
L 207.577333 306.215615 
L 249.158185 272.298962 
L 258.229335 265.005329 
L 300.874924 232.387746 
L 312.971504 223.795043 
L 352.591664 195.274135 
L 372.721514 182.584757 
L 404.308404 161.112207 
L 439.440449 141.374471 
L 456.025144 130.69448 
L 507.741883 106.097569 
L 526.136058 100.164185 
L 559.458623 87.825516 
L 611.175363 79.464101 
L 662.892103 100.164185 
L 647.784319 141.374471 
L 617.226702 182.584757 
L 611.175363 188.006114 
L 575.81825 223.795043 
L 559.458623 237.322052 
L 528.013369 265.005329 
L 507.741883 280.695415 
L 474.86163 306.215615 
L 456.025144 320.004118 
L 416.344527 347.425901 
L 404.308404 355.822039 
L 352.591664 387.854176 
L 351.180723 388.636187 
L 300.874924 417.080133 
L 274.389712 429.846473 
L 249.158185 443.165455 
L 197.441445 465.245824 
L 180.947169 471.056759 
L 145.724705 485.128949 
L 94.007965 492.540606 
z
" clip-path="url(#pf180f4cd8b)" style="fill: #92c4de"/>
    <path d="M 94.007965 492.540606 
L 145.724705 485.128949 
L 180.947169 471.056759 
L 197.441445 465.245824 
L 249.158185 443.165455 
L 274.389712 429.846473 
L 300.874924 417.080133 
L 351.180723 388.636187 
L 352.591664 387.854176 
L 404.308404 355.822039 
L 416.344527 347.425901 
L 456.025144 320.004118 
L 474.86163 306.215615 
L 507.741883 280.695415 
L 528.013369 265.005329 
L 559.458623 237.322052 
L 575.81825 223.795043 
L 611.175363 188.006114 
L 617.226702 182.584757 
L 647.784319 141.374471 
L 662.892103 100.164185 
L 611.175363 79.464101 
L 559.458623 87.825516 
L 526.136058 100.164185 
L 507.741883 106.097569 
L 456.025144 130.69448 
L 439.440449 141.374471 
L 404.308404 161.112207 
L 372.721514 182.584757 
L 352.591664 195.274135 
L 312.971504 223.795043 
L 300.874924 232.387746 
L 258.229335 265.005329 
L 249.158185 272.298962 
L 207.577333 306.215615 
L 197.441445 315.485023 
L 160.876274 347.425901 
L 145.724705 363.270144 
L 118.739567 388.636187 
L 94.007965 418.388078 
L 82.743637 429.846473 
L 66.100497 471.056759 
z
M 107.00049 429.846473 
L 134.383389 388.636187 
L 145.724705 377.975344 
L 174.938596 347.425901 
L 197.441445 327.768923 
L 221.009499 306.215615 
L 249.158185 283.255306 
L 271.855827 265.005329 
L 300.874924 242.810002 
L 327.643679 223.795043 
L 352.591664 205.836024 
L 389.476414 182.584757 
L 404.308404 172.502072 
L 456.025144 144.284958 
L 463.594924 141.374471 
L 507.741883 123.21314 
L 559.458623 110.176806 
L 611.175363 125.067514 
L 616.3638 141.374471 
L 611.175363 148.945559 
L 591.669005 182.584757 
L 559.458623 218.296164 
L 555.033306 223.795043 
L 509.124366 265.005329 
L 507.741883 266.075367 
L 456.025144 306.215615 
L 456.025144 306.215615 
L 404.308404 341.431503 
L 395.069665 347.425901 
L 352.591664 373.539481 
L 325.353475 388.636187 
L 300.874924 402.476869 
L 249.158185 427.329207 
L 243.047105 429.846473 
L 197.441445 449.495632 
L 145.724705 464.712084 
z
" clip-path="url(#pf180f4cd8b)" style="fill: #66abd4"/>
    <path d="M 145.724705 464.712084 
L 197.441445 449.495632 
L 243.047105 429.846473 
L 249.158185 427.329207 
L 300.874924 402.476869 
L 325.353475 388.636187 
L 352.591664 373.539481 
L 395.069665 347.425901 
L 404.308404 341.431503 
L 456.025144 306.215615 
L 456.025144 306.215615 
L 507.741883 266.075367 
L 509.124366 265.005329 
L 555.033306 223.795043 
L 559.458623 218.296164 
L 591.669005 182.584757 
L 611.175363 148.945559 
L 616.3638 141.374471 
L 611.175363 125.067514 
L 559.458623 110.176806 
L 507.741883 123.21314 
L 463.594924 141.374471 
L 456.025144 144.284958 
L 404.308404 172.502072 
L 389.476414 182.584757 
L 352.591664 205.836024 
L 327.643679 223.795043 
L 300.874924 242.810002 
L 271.855827 265.005329 
L 249.158185 283.255306 
L 221.009499 306.215615 
L 197.441445 327.768923 
L 174.938596 347.425901 
L 145.724705 377.975344 
L 134.383389 388.636187 
L 107.00049 429.846473 
z
M 174.650691 429.846473 
L 159.808908 388.636187 
L 191.975366 347.425901 
L 197.441445 342.651101 
L 237.282823 306.215615 
L 249.158185 296.529125 
L 288.364581 265.005329 
L 300.874924 255.436762 
L 345.419297 223.795043 
L 352.591664 218.631954 
L 404.308404 187.84567 
L 415.490809 182.584757 
L 456.025144 163.665106 
L 507.741883 145.796407 
L 559.458623 182.584757 
L 526.293939 223.795043 
L 507.741883 240.577649 
L 482.323498 265.005329 
L 456.025144 285.319137 
L 429.144772 306.215615 
L 404.308404 323.127639 
L 366.85922 347.425901 
L 352.591664 356.196958 
L 300.874924 384.488097 
L 292.464654 388.636187 
L 249.158185 409.085967 
L 198.75862 429.846473 
L 197.441445 430.413977 
z
" clip-path="url(#pf180f4cd8b)" style="fill: #4090c5"/>
    <path d="M 197.441445 430.413977 
L 198.75862 429.846473 
L 249.158185 409.085967 
L 292.464654 388.636187 
L 300.874924 384.488097 
L 352.591664 356.196958 
L 366.85922 347.425901 
L 404.308404 323.127639 
L 429.144772 306.215615 
L 456.025144 285.319137 
L 482.323498 265.005329 
L 507.741883 240.577649 
L 526.293939 223.795043 
L 559.458623 182.584757 
L 507.741883 145.796407 
L 456.025144 163.665106 
L 415.490809 182.584757 
L 404.308404 187.84567 
L 352.591664 218.631954 
L 345.419297 223.795043 
L 300.874924 255.436762 
L 288.364581 265.005329 
L 249.158185 296.529125 
L 237.282823 306.215615 
L 197.441445 342.651101 
L 191.975366 347.425901 
L 159.808908 388.636187 
L 174.650691 429.846473 
z
M 192.212236 388.636187 
L 197.441445 380.467427 
L 216.99411 347.425901 
L 249.158185 312.962108 
L 255.32452 306.215615 
L 300.874924 269.2828 
L 306.340619 265.005329 
L 352.591664 234.928387 
L 371.324863 223.795043 
L 404.308404 205.894365 
L 453.854451 182.584757 
L 456.025144 181.571573 
L 507.741883 178.703742 
L 513.19778 182.584757 
L 507.741883 194.176535 
L 496.021037 223.795043 
L 457.327923 265.005329 
L 456.025144 266.011643 
L 404.308404 306.215615 
L 404.308404 306.215615 
L 352.591664 338.212998 
L 337.564553 347.425901 
L 300.874924 366.882242 
L 256.768708 388.636187 
L 249.158185 392.229958 
L 197.441445 394.525774 
z
" clip-path="url(#pf180f4cd8b)" style="fill: #206fb4"/>
    <path d="M 197.441445 394.525774 
L 249.158185 392.229958 
L 256.768708 388.636187 
L 300.874924 366.882242 
L 337.564553 347.425901 
L 352.591664 338.212998 
L 404.308404 306.215615 
L 404.308404 306.215615 
L 456.025144 266.011643 
L 457.327923 265.005329 
L 496.021037 223.795043 
L 507.741883 194.176535 
L 513.19778 182.584757 
L 507.741883 178.703742 
L 456.025144 181.571573 
L 453.854451 182.584757 
L 404.308404 205.894365 
L 371.324863 223.795043 
L 352.591664 234.928387 
L 306.340619 265.005329 
L 300.874924 269.2828 
L 255.32452 306.215615 
L 249.158185 312.962108 
L 216.99411 347.425901 
L 197.441445 380.467427 
L 192.212236 388.636187 
z
M 247.796031 347.425901 
L 249.158185 345.966354 
L 285.490601 306.215615 
L 300.874924 293.741821 
L 337.59402 265.005329 
L 352.591664 255.252398 
L 404.308404 226.526165 
L 422.154541 265.005329 
L 404.308404 278.745492 
L 370.478635 306.215615 
L 352.591664 317.282366 
L 303.424721 347.425901 
L 300.874924 348.778046 
L 249.158185 349.603544 
z
" clip-path="url(#pf180f4cd8b)" style="fill: #08519c"/>
    <path d="M 249.158185 349.603544 
L 300.874924 348.778046 
L 303.424721 347.425901 
L 352.591664 317.282366 
L 370.478635 306.215615 
L 404.308404 278.745492 
L 422.154541 265.005329 
L 404.308404 226.526165 
L 352.591664 255.252398 
L 337.59402 265.005329 
L 300.874924 293.741821 
L 285.490601 306.215615 
L 249.158185 345.966354 
L 247.796031 347.425901 
z
" clip-path="url(#pf180f4cd8b)" style="fill: #083877"/>
   </g>
   <g id="matplotlib.axis_1">
    <g id="xtick_1">
     <g id="line2d_1">
      <defs>
       <path id="mc16b24edab" d="M 0 0 
L 0 3.5 
" style="stroke: #000000; stroke-width: 0.8"/>
      </defs>
      <g>
       <use xlink:href="#mc16b24edab" x="96.565915" y="499.48" style="stroke: #000000; stroke-width: 0.8"/>
      </g>
     </g>
     <g id="text_1">
      <!-- −1 -->
      <g transform="translate(80.349509 523.196563) scale(0.22 -0.22)">
       <defs>
        <path id="DejaVuSans-2212" d="M 678 2272 
L 4684 2272 
L 4684 1741 
L 678 1741 
L 678 2272 
z
" transform="scale(0.015625)"/>
        <path id="DejaVuSans-31" d="M 794 531 
L 1825 531 
L 1825 4091 
L 703 3866 
L 703 4441 
L 1819 4666 
L 2450 4666 
L 2450 531 
L 3481 531 
L 3481 0 
L 794 0 
L 794 531 
z
" transform="scale(0.015625)"/>
       </defs>
       <use xlink:href="#DejaVuSans-2212"/>
       <use xlink:href="#DejaVuSans-31" x="83.789062"/>
      </g>
     </g>
    </g>
    <g id="xtick_2">
     <g id="line2d_2">
      <g>
       <use xlink:href="#mc16b24edab" x="180.103768" y="499.48" style="stroke: #000000; stroke-width: 0.8"/>
      </g>
     </g>
     <g id="text_2">
      <!-- 0 -->
      <g transform="translate(173.105018 523.196563) scale(0.22 -0.22)">
       <defs>
        <path id="DejaVuSans-30" d="M 2034 4250 
Q 1547 4250 1301 3770 
Q 1056 3291 1056 2328 
Q 1056 1369 1301 889 
Q 1547 409 2034 409 
Q 2525 409 2770 889 
Q 3016 1369 3016 2328 
Q 3016 3291 2770 3770 
Q 2525 4250 2034 4250 
z
M 2034 4750 
Q 2819 4750 3233 4129 
Q 3647 3509 3647 2328 
Q 3647 1150 3233 529 
Q 2819 -91 2034 -91 
Q 1250 -91 836 529 
Q 422 1150 422 2328 
Q 422 3509 836 4129 
Q 1250 4750 2034 4750 
z
" transform="scale(0.015625)"/>
       </defs>
       <use xlink:href="#DejaVuSans-30"/>
      </g>
     </g>
    </g>
    <g id="xtick_3">
     <g id="line2d_3">
      <g>
       <use xlink:href="#mc16b24edab" x="263.641622" y="499.48" style="stroke: #000000; stroke-width: 0.8"/>
      </g>
     </g>
     <g id="text_3">
      <!-- 1 -->
      <g transform="translate(256.642872 523.196563) scale(0.22 -0.22)">
       <use xlink:href="#DejaVuSans-31"/>
      </g>
     </g>
    </g>
    <g id="xtick_4">
     <g id="line2d_4">
      <g>
       <use xlink:href="#mc16b24edab" x="347.179475" y="499.48" style="stroke: #000000; stroke-width: 0.8"/>
      </g>
     </g>
     <g id="text_4">
      <!-- 2 -->
      <g transform="translate(340.180725 523.196563) scale(0.22 -0.22)">
       <defs>
        <path id="DejaVuSans-32" d="M 1228 531 
L 3431 531 
L 3431 0 
L 469 0 
L 469 531 
Q 828 903 1448 1529 
Q 2069 2156 2228 2338 
Q 2531 2678 2651 2914 
Q 2772 3150 2772 3378 
Q 2772 3750 2511 3984 
Q 2250 4219 1831 4219 
Q 1534 4219 1204 4116 
Q 875 4013 500 3803 
L 500 4441 
Q 881 4594 1212 4672 
Q 1544 4750 1819 4750 
Q 2544 4750 2975 4387 
Q 3406 4025 3406 3419 
Q 3406 3131 3298 2873 
Q 3191 2616 2906 2266 
Q 2828 2175 2409 1742 
Q 1991 1309 1228 531 
z
" transform="scale(0.015625)"/>
       </defs>
       <use xlink:href="#DejaVuSans-32"/>
      </g>
     </g>
    </g>
    <g id="xtick_5">
     <g id="line2d_5">
      <g>
       <use xlink:href="#mc16b24edab" x="430.717329" y="499.48" style="stroke: #000000; stroke-width: 0.8"/>
      </g>
     </g>
     <g id="text_5">
      <!-- 3 -->
      <g transform="translate(423.718579 523.196563) scale(0.22 -0.22)">
       <defs>
        <path id="DejaVuSans-33" d="M 2597 2516 
Q 3050 2419 3304 2112 
Q 3559 1806 3559 1356 
Q 3559 666 3084 287 
Q 2609 -91 1734 -91 
Q 1441 -91 1130 -33 
Q 819 25 488 141 
L 488 750 
Q 750 597 1062 519 
Q 1375 441 1716 441 
Q 2309 441 2620 675 
Q 2931 909 2931 1356 
Q 2931 1769 2642 2001 
Q 2353 2234 1838 2234 
L 1294 2234 
L 1294 2753 
L 1863 2753 
Q 2328 2753 2575 2939 
Q 2822 3125 2822 3475 
Q 2822 3834 2567 4026 
Q 2313 4219 1838 4219 
Q 1578 4219 1281 4162 
Q 984 4106 628 3988 
L 628 4550 
Q 988 4650 1302 4700 
Q 1616 4750 1894 4750 
Q 2613 4750 3031 4423 
Q 3450 4097 3450 3541 
Q 3450 3153 3228 2886 
Q 3006 2619 2597 2516 
z
" transform="scale(0.015625)"/>
       </defs>
       <use xlink:href="#DejaVuSans-33"/>
      </g>
     </g>
    </g>
    <g id="xtick_6">
     <g id="line2d_6">
      <g>
       <use xlink:href="#mc16b24edab" x="514.255182" y="499.48" style="stroke: #000000; stroke-width: 0.8"/>
      </g>
     </g>
     <g id="text_6">
      <!-- 4 -->
      <g transform="translate(507.256432 523.196563) scale(0.22 -0.22)">
       <defs>
        <path id="DejaVuSans-34" d="M 2419 4116 
L 825 1625 
L 2419 1625 
L 2419 4116 
z
M 2253 4666 
L 3047 4666 
L 3047 1625 
L 3713 1625 
L 3713 1100 
L 3047 1100 
L 3047 0 
L 2419 0 
L 2419 1100 
L 313 1100 
L 313 1709 
L 2253 4666 
z
" transform="scale(0.015625)"/>
       </defs>
       <use xlink:href="#DejaVuSans-34"/>
      </g>
     </g>
    </g>
    <g id="xtick_7">
     <g id="line2d_7">
      <g>
       <use xlink:href="#mc16b24edab" x="597.793036" y="499.48" style="stroke: #000000; stroke-width: 0.8"/>
      </g>
     </g>
     <g id="text_7">
      <!-- 5 -->
      <g transform="translate(590.794286 523.196563) scale(0.22 -0.22)">
       <defs>
        <path id="DejaVuSans-35" d="M 691 4666 
L 3169 4666 
L 3169 4134 
L 1269 4134 
L 1269 2991 
Q 1406 3038 1543 3061 
Q 1681 3084 1819 3084 
Q 2600 3084 3056 2656 
Q 3513 2228 3513 1497 
Q 3513 744 3044 326 
Q 2575 -91 1722 -91 
Q 1428 -91 1123 -41 
Q 819 9 494 109 
L 494 744 
Q 775 591 1075 516 
Q 1375 441 1709 441 
Q 2250 441 2565 725 
Q 2881 1009 2881 1497 
Q 2881 1984 2565 2268 
Q 2250 2553 1709 2553 
Q 1456 2553 1204 2497 
Q 953 2441 691 2322 
L 691 4666 
z
" transform="scale(0.015625)"/>
       </defs>
       <use xlink:href="#DejaVuSans-35"/>
      </g>
     </g>
    </g>
    <g id="xtick_8">
     <g id="line2d_8">
      <g>
       <use xlink:href="#mc16b24edab" x="681.330889" y="499.48" style="stroke: #000000; stroke-width: 0.8"/>
      </g>
     </g>
     <g id="text_8">
      <!-- 6 -->
      <g transform="translate(674.332139 523.196563) scale(0.22 -0.22)">
       <defs>
        <path id="DejaVuSans-36" d="M 2113 2584 
Q 1688 2584 1439 2293 
Q 1191 2003 1191 1497 
Q 1191 994 1439 701 
Q 1688 409 2113 409 
Q 2538 409 2786 701 
Q 3034 994 3034 1497 
Q 3034 2003 2786 2293 
Q 2538 2584 2113 2584 
z
M 3366 4563 
L 3366 3988 
Q 3128 4100 2886 4159 
Q 2644 4219 2406 4219 
Q 1781 4219 1451 3797 
Q 1122 3375 1075 2522 
Q 1259 2794 1537 2939 
Q 1816 3084 2150 3084 
Q 2853 3084 3261 2657 
Q 3669 2231 3669 1497 
Q 3669 778 3244 343 
Q 2819 -91 2113 -91 
Q 1303 -91 875 529 
Q 447 1150 447 2328 
Q 447 3434 972 4092 
Q 1497 4750 2381 4750 
Q 2619 4750 2861 4703 
Q 3103 4656 3366 4563 
z
" transform="scale(0.015625)"/>
       </defs>
       <use xlink:href="#DejaVuSans-36"/>
      </g>
     </g>
    </g>
    <g id="text_9">
     <!-- Energy Uncertainties -->
     <g transform="translate(276.867187 548.488438) scale(0.22 -0.22)">
      <defs>
       <path id="DejaVuSans-45" d="M 628 4666 
L 3578 4666 
L 3578 4134 
L 1259 4134 
L 1259 2753 
L 3481 2753 
L 3481 2222 
L 1259 2222 
L 1259 531 
L 3634 531 
L 3634 0 
L 628 0 
L 628 4666 
z
" transform="scale(0.015625)"/>
       <path id="DejaVuSans-6e" d="M 3513 2113 
L 3513 0 
L 2938 0 
L 2938 2094 
Q 2938 2591 2744 2837 
Q 2550 3084 2163 3084 
Q 1697 3084 1428 2787 
Q 1159 2491 1159 1978 
L 1159 0 
L 581 0 
L 581 3500 
L 1159 3500 
L 1159 2956 
Q 1366 3272 1645 3428 
Q 1925 3584 2291 3584 
Q 2894 3584 3203 3211 
Q 3513 2838 3513 2113 
z
" transform="scale(0.015625)"/>
       <path id="DejaVuSans-65" d="M 3597 1894 
L 3597 1613 
L 953 1613 
Q 991 1019 1311 708 
Q 1631 397 2203 397 
Q 2534 397 2845 478 
Q 3156 559 3463 722 
L 3463 178 
Q 3153 47 2828 -22 
Q 2503 -91 2169 -91 
Q 1331 -91 842 396 
Q 353 884 353 1716 
Q 353 2575 817 3079 
Q 1281 3584 2069 3584 
Q 2775 3584 3186 3129 
Q 3597 2675 3597 1894 
z
M 3022 2063 
Q 3016 2534 2758 2815 
Q 2500 3097 2075 3097 
Q 1594 3097 1305 2825 
Q 1016 2553 972 2059 
L 3022 2063 
z
" transform="scale(0.015625)"/>
       <path id="DejaVuSans-72" d="M 2631 2963 
Q 2534 3019 2420 3045 
Q 2306 3072 2169 3072 
Q 1681 3072 1420 2755 
Q 1159 2438 1159 1844 
L 1159 0 
L 581 0 
L 581 3500 
L 1159 3500 
L 1159 2956 
Q 1341 3275 1631 3429 
Q 1922 3584 2338 3584 
Q 2397 3584 2469 3576 
Q 2541 3569 2628 3553 
L 2631 2963 
z
" transform="scale(0.015625)"/>
       <path id="DejaVuSans-67" d="M 2906 1791 
Q 2906 2416 2648 2759 
Q 2391 3103 1925 3103 
Q 1463 3103 1205 2759 
Q 947 2416 947 1791 
Q 947 1169 1205 825 
Q 1463 481 1925 481 
Q 2391 481 2648 825 
Q 2906 1169 2906 1791 
z
M 3481 434 
Q 3481 -459 3084 -895 
Q 2688 -1331 1869 -1331 
Q 1566 -1331 1297 -1286 
Q 1028 -1241 775 -1147 
L 775 -588 
Q 1028 -725 1275 -790 
Q 1522 -856 1778 -856 
Q 2344 -856 2625 -561 
Q 2906 -266 2906 331 
L 2906 616 
Q 2728 306 2450 153 
Q 2172 0 1784 0 
Q 1141 0 747 490 
Q 353 981 353 1791 
Q 353 2603 747 3093 
Q 1141 3584 1784 3584 
Q 2172 3584 2450 3431 
Q 2728 3278 2906 2969 
L 2906 3500 
L 3481 3500 
L 3481 434 
z
" transform="scale(0.015625)"/>
       <path id="DejaVuSans-79" d="M 2059 -325 
Q 1816 -950 1584 -1140 
Q 1353 -1331 966 -1331 
L 506 -1331 
L 506 -850 
L 844 -850 
Q 1081 -850 1212 -737 
Q 1344 -625 1503 -206 
L 1606 56 
L 191 3500 
L 800 3500 
L 1894 763 
L 2988 3500 
L 3597 3500 
L 2059 -325 
z
" transform="scale(0.015625)"/>
       <path id="DejaVuSans-20" transform="scale(0.015625)"/>
       <path id="DejaVuSans-55" d="M 556 4666 
L 1191 4666 
L 1191 1831 
Q 1191 1081 1462 751 
Q 1734 422 2344 422 
Q 2950 422 3222 751 
Q 3494 1081 3494 1831 
L 3494 4666 
L 4128 4666 
L 4128 1753 
Q 4128 841 3676 375 
Q 3225 -91 2344 -91 
Q 1459 -91 1007 375 
Q 556 841 556 1753 
L 556 4666 
z
" transform="scale(0.015625)"/>
       <path id="DejaVuSans-63" d="M 3122 3366 
L 3122 2828 
Q 2878 2963 2633 3030 
Q 2388 3097 2138 3097 
Q 1578 3097 1268 2742 
Q 959 2388 959 1747 
Q 959 1106 1268 751 
Q 1578 397 2138 397 
Q 2388 397 2633 464 
Q 2878 531 3122 666 
L 3122 134 
Q 2881 22 2623 -34 
Q 2366 -91 2075 -91 
Q 1284 -91 818 406 
Q 353 903 353 1747 
Q 353 2603 823 3093 
Q 1294 3584 2113 3584 
Q 2378 3584 2631 3529 
Q 2884 3475 3122 3366 
z
" transform="scale(0.015625)"/>
       <path id="DejaVuSans-74" d="M 1172 4494 
L 1172 3500 
L 2356 3500 
L 2356 3053 
L 1172 3053 
L 1172 1153 
Q 1172 725 1289 603 
Q 1406 481 1766 481 
L 2356 481 
L 2356 0 
L 1766 0 
Q 1100 0 847 248 
Q 594 497 594 1153 
L 594 3053 
L 172 3053 
L 172 3500 
L 594 3500 
L 594 4494 
L 1172 4494 
z
" transform="scale(0.015625)"/>
       <path id="DejaVuSans-61" d="M 2194 1759 
Q 1497 1759 1228 1600 
Q 959 1441 959 1056 
Q 959 750 1161 570 
Q 1363 391 1709 391 
Q 2188 391 2477 730 
Q 2766 1069 2766 1631 
L 2766 1759 
L 2194 1759 
z
M 3341 1997 
L 3341 0 
L 2766 0 
L 2766 531 
Q 2569 213 2275 61 
Q 1981 -91 1556 -91 
Q 1019 -91 701 211 
Q 384 513 384 1019 
Q 384 1609 779 1909 
Q 1175 2209 1959 2209 
L 2766 2209 
L 2766 2266 
Q 2766 2663 2505 2880 
Q 2244 3097 1772 3097 
Q 1472 3097 1187 3025 
Q 903 2953 641 2809 
L 641 3341 
Q 956 3463 1253 3523 
Q 1550 3584 1831 3584 
Q 2591 3584 2966 3190 
Q 3341 2797 3341 1997 
z
" transform="scale(0.015625)"/>
       <path id="DejaVuSans-69" d="M 603 3500 
L 1178 3500 
L 1178 0 
L 603 0 
L 603 3500 
z
M 603 4863 
L 1178 4863 
L 1178 4134 
L 603 4134 
L 603 4863 
z
" transform="scale(0.015625)"/>
       <path id="DejaVuSans-73" d="M 2834 3397 
L 2834 2853 
Q 2591 2978 2328 3040 
Q 2066 3103 1784 3103 
Q 1356 3103 1142 2972 
Q 928 2841 928 2578 
Q 928 2378 1081 2264 
Q 1234 2150 1697 2047 
L 1894 2003 
Q 2506 1872 2764 1633 
Q 3022 1394 3022 966 
Q 3022 478 2636 193 
Q 2250 -91 1575 -91 
Q 1294 -91 989 -36 
Q 684 19 347 128 
L 347 722 
Q 666 556 975 473 
Q 1284 391 1588 391 
Q 1994 391 2212 530 
Q 2431 669 2431 922 
Q 2431 1156 2273 1281 
Q 2116 1406 1581 1522 
L 1381 1569 
Q 847 1681 609 1914 
Q 372 2147 372 2553 
Q 372 3047 722 3315 
Q 1072 3584 1716 3584 
Q 2034 3584 2315 3537 
Q 2597 3491 2834 3397 
z
" transform="scale(0.015625)"/>
      </defs>
      <use xlink:href="#DejaVuSans-45"/>
      <use xlink:href="#DejaVuSans-6e" x="63.183594"/>
      <use xlink:href="#DejaVuSans-65" x="126.5625"/>
      <use xlink:href="#DejaVuSans-72" x="188.085938"/>
      <use xlink:href="#DejaVuSans-67" x="227.449219"/>
      <use xlink:href="#DejaVuSans-79" x="290.925781"/>
      <use xlink:href="#DejaVuSans-20" x="350.105469"/>
      <use xlink:href="#DejaVuSans-55" x="381.892578"/>
      <use xlink:href="#DejaVuSans-6e" x="455.085938"/>
      <use xlink:href="#DejaVuSans-63" x="518.464844"/>
      <use xlink:href="#DejaVuSans-65" x="573.445312"/>
      <use xlink:href="#DejaVuSans-72" x="634.96875"/>
      <use xlink:href="#DejaVuSans-74" x="676.082031"/>
      <use xlink:href="#DejaVuSans-61" x="715.291016"/>
      <use xlink:href="#DejaVuSans-69" x="776.570312"/>
      <use xlink:href="#DejaVuSans-6e" x="804.353516"/>
      <use xlink:href="#DejaVuSans-74" x="867.732422"/>
      <use xlink:href="#DejaVuSans-69" x="906.941406"/>
      <use xlink:href="#DejaVuSans-65" x="934.724609"/>
      <use xlink:href="#DejaVuSans-73" x="996.248047"/>
     </g>
    </g>
   </g>
   <g id="matplotlib.axis_2">
    <g id="ytick_1">
     <g id="line2d_9">
      <defs>
       <path id="m4c2f412b65" d="M 0 0 
L -3.5 0 
" style="stroke: #000000; stroke-width: 0.8"/>
      </defs>
      <g>
       <use xlink:href="#m4c2f412b65" x="88.13" y="492.880645" style="stroke: #000000; stroke-width: 0.8"/>
      </g>
     </g>
     <g id="text_10">
      <!-- −1 -->
      <g transform="translate(48.697188 501.238927) scale(0.22 -0.22)">
       <use xlink:href="#DejaVuSans-2212"/>
       <use xlink:href="#DejaVuSans-31" x="83.789062"/>
      </g>
     </g>
    </g>
    <g id="ytick_2">
     <g id="line2d_10">
      <g>
       <use xlink:href="#m4c2f412b65" x="88.13" y="427.529594" style="stroke: #000000; stroke-width: 0.8"/>
      </g>
     </g>
     <g id="text_11">
      <!-- 0 -->
      <g transform="translate(67.1325 435.887876) scale(0.22 -0.22)">
       <use xlink:href="#DejaVuSans-30"/>
      </g>
     </g>
    </g>
    <g id="ytick_3">
     <g id="line2d_11">
      <g>
       <use xlink:href="#m4c2f412b65" x="88.13" y="362.178543" style="stroke: #000000; stroke-width: 0.8"/>
      </g>
     </g>
     <g id="text_12">
      <!-- 1 -->
      <g transform="translate(67.1325 370.536825) scale(0.22 -0.22)">
       <use xlink:href="#DejaVuSans-31"/>
      </g>
     </g>
    </g>
    <g id="ytick_4">
     <g id="line2d_12">
      <g>
       <use xlink:href="#m4c2f412b65" x="88.13" y="296.827492" style="stroke: #000000; stroke-width: 0.8"/>
      </g>
     </g>
     <g id="text_13">
      <!-- 2 -->
      <g transform="translate(67.1325 305.185774) scale(0.22 -0.22)">
       <use xlink:href="#DejaVuSans-32"/>
      </g>
     </g>
    </g>
    <g id="ytick_5">
     <g id="line2d_13">
      <g>
       <use xlink:href="#m4c2f412b65" x="88.13" y="231.476441" style="stroke: #000000; stroke-width: 0.8"/>
      </g>
     </g>
     <g id="text_14">
      <!-- 3 -->
      <g transform="translate(67.1325 239.834723) scale(0.22 -0.22)">
       <use xlink:href="#DejaVuSans-33"/>
      </g>
     </g>
    </g>
    <g id="ytick_6">
     <g id="line2d_14">
      <g>
       <use xlink:href="#m4c2f412b65" x="88.13" y="166.12539" style="stroke: #000000; stroke-width: 0.8"/>
      </g>
     </g>
     <g id="text_15">
      <!-- 4 -->
      <g transform="translate(67.1325 174.483672) scale(0.22 -0.22)">
       <use xlink:href="#DejaVuSans-34"/>
      </g>
     </g>
    </g>
    <g id="ytick_7">
     <g id="line2d_15">
      <g>
       <use xlink:href="#m4c2f412b65" x="88.13" y="100.774339" style="stroke: #000000; stroke-width: 0.8"/>
      </g>
     </g>
     <g id="text_16">
      <!-- 5 -->
      <g transform="translate(67.1325 109.13262) scale(0.22 -0.22)">
       <use xlink:href="#DejaVuSans-35"/>
      </g>
     </g>
    </g>
    <g id="ytick_8">
     <g id="line2d_16">
      <g>
       <use xlink:href="#m4c2f412b65" x="88.13" y="35.423288" style="stroke: #000000; stroke-width: 0.8"/>
      </g>
     </g>
     <g id="text_17">
      <!-- 6 -->
      <g transform="translate(67.1325 43.781569) scale(0.22 -0.22)">
       <use xlink:href="#DejaVuSans-36"/>
      </g>
     </g>
    </g>
    <g id="text_18">
     <!-- Force Errors [kJ/(mol*A)] -->
     <g transform="translate(40.121875 394.9125) rotate(-90) scale(0.22 -0.22)">
      <defs>
       <path id="DejaVuSans-46" d="M 628 4666 
L 3309 4666 
L 3309 4134 
L 1259 4134 
L 1259 2759 
L 3109 2759 
L 3109 2228 
L 1259 2228 
L 1259 0 
L 628 0 
L 628 4666 
z
" transform="scale(0.015625)"/>
       <path id="DejaVuSans-6f" d="M 1959 3097 
Q 1497 3097 1228 2736 
Q 959 2375 959 1747 
Q 959 1119 1226 758 
Q 1494 397 1959 397 
Q 2419 397 2687 759 
Q 2956 1122 2956 1747 
Q 2956 2369 2687 2733 
Q 2419 3097 1959 3097 
z
M 1959 3584 
Q 2709 3584 3137 3096 
Q 3566 2609 3566 1747 
Q 3566 888 3137 398 
Q 2709 -91 1959 -91 
Q 1206 -91 779 398 
Q 353 888 353 1747 
Q 353 2609 779 3096 
Q 1206 3584 1959 3584 
z
" transform="scale(0.015625)"/>
       <path id="DejaVuSans-5b" d="M 550 4863 
L 1875 4863 
L 1875 4416 
L 1125 4416 
L 1125 -397 
L 1875 -397 
L 1875 -844 
L 550 -844 
L 550 4863 
z
" transform="scale(0.015625)"/>
       <path id="DejaVuSans-6b" d="M 581 4863 
L 1159 4863 
L 1159 1991 
L 2875 3500 
L 3609 3500 
L 1753 1863 
L 3688 0 
L 2938 0 
L 1159 1709 
L 1159 0 
L 581 0 
L 581 4863 
z
" transform="scale(0.015625)"/>
       <path id="DejaVuSans-4a" d="M 628 4666 
L 1259 4666 
L 1259 325 
Q 1259 -519 939 -900 
Q 619 -1281 -91 -1281 
L -331 -1281 
L -331 -750 
L -134 -750 
Q 284 -750 456 -515 
Q 628 -281 628 325 
L 628 4666 
z
" transform="scale(0.015625)"/>
       <path id="DejaVuSans-2f" d="M 1625 4666 
L 2156 4666 
L 531 -594 
L 0 -594 
L 1625 4666 
z
" transform="scale(0.015625)"/>
       <path id="DejaVuSans-28" d="M 1984 4856 
Q 1566 4138 1362 3434 
Q 1159 2731 1159 2009 
Q 1159 1288 1364 580 
Q 1569 -128 1984 -844 
L 1484 -844 
Q 1016 -109 783 600 
Q 550 1309 550 2009 
Q 550 2706 781 3412 
Q 1013 4119 1484 4856 
L 1984 4856 
z
" transform="scale(0.015625)"/>
       <path id="DejaVuSans-6d" d="M 3328 2828 
Q 3544 3216 3844 3400 
Q 4144 3584 4550 3584 
Q 5097 3584 5394 3201 
Q 5691 2819 5691 2113 
L 5691 0 
L 5113 0 
L 5113 2094 
Q 5113 2597 4934 2840 
Q 4756 3084 4391 3084 
Q 3944 3084 3684 2787 
Q 3425 2491 3425 1978 
L 3425 0 
L 2847 0 
L 2847 2094 
Q 2847 2600 2669 2842 
Q 2491 3084 2119 3084 
Q 1678 3084 1418 2786 
Q 1159 2488 1159 1978 
L 1159 0 
L 581 0 
L 581 3500 
L 1159 3500 
L 1159 2956 
Q 1356 3278 1631 3431 
Q 1906 3584 2284 3584 
Q 2666 3584 2933 3390 
Q 3200 3197 3328 2828 
z
" transform="scale(0.015625)"/>
       <path id="DejaVuSans-6c" d="M 603 4863 
L 1178 4863 
L 1178 0 
L 603 0 
L 603 4863 
z
" transform="scale(0.015625)"/>
       <path id="DejaVuSans-2a" d="M 3009 3897 
L 1888 3291 
L 3009 2681 
L 2828 2375 
L 1778 3009 
L 1778 1831 
L 1422 1831 
L 1422 3009 
L 372 2375 
L 191 2681 
L 1313 3291 
L 191 3897 
L 372 4206 
L 1422 3572 
L 1422 4750 
L 1778 4750 
L 1778 3572 
L 2828 4206 
L 3009 3897 
z
" transform="scale(0.015625)"/>
       <path id="DejaVuSans-41" d="M 2188 4044 
L 1331 1722 
L 3047 1722 
L 2188 4044 
z
M 1831 4666 
L 2547 4666 
L 4325 0 
L 3669 0 
L 3244 1197 
L 1141 1197 
L 716 0 
L 50 0 
L 1831 4666 
z
" transform="scale(0.015625)"/>
       <path id="DejaVuSans-29" d="M 513 4856 
L 1013 4856 
Q 1481 4119 1714 3412 
Q 1947 2706 1947 2009 
Q 1947 1309 1714 600 
Q 1481 -109 1013 -844 
L 513 -844 
Q 928 -128 1133 580 
Q 1338 1288 1338 2009 
Q 1338 2731 1133 3434 
Q 928 4138 513 4856 
z
" transform="scale(0.015625)"/>
       <path id="DejaVuSans-5d" d="M 1947 4863 
L 1947 -844 
L 622 -844 
L 622 -397 
L 1369 -397 
L 1369 4416 
L 622 4416 
L 622 4863 
L 1947 4863 
z
" transform="scale(0.015625)"/>
      </defs>
      <use xlink:href="#DejaVuSans-46"/>
      <use xlink:href="#DejaVuSans-6f" x="53.894531"/>
      <use xlink:href="#DejaVuSans-72" x="115.076172"/>
      <use xlink:href="#DejaVuSans-63" x="153.939453"/>
      <use xlink:href="#DejaVuSans-65" x="208.919922"/>
      <use xlink:href="#DejaVuSans-20" x="270.443359"/>
      <use xlink:href="#DejaVuSans-45" x="302.230469"/>
      <use xlink:href="#DejaVuSans-72" x="365.414062"/>
      <use xlink:href="#DejaVuSans-72" x="404.777344"/>
      <use xlink:href="#DejaVuSans-6f" x="443.640625"/>
      <use xlink:href="#DejaVuSans-72" x="504.822266"/>
      <use xlink:href="#DejaVuSans-73" x="545.935547"/>
      <use xlink:href="#DejaVuSans-20" x="598.035156"/>
      <use xlink:href="#DejaVuSans-5b" x="629.822266"/>
      <use xlink:href="#DejaVuSans-6b" x="668.835938"/>
      <use xlink:href="#DejaVuSans-4a" x="726.746094"/>
      <use xlink:href="#DejaVuSans-2f" x="756.238281"/>
      <use xlink:href="#DejaVuSans-28" x="789.929688"/>
      <use xlink:href="#DejaVuSans-6d" x="828.943359"/>
      <use xlink:href="#DejaVuSans-6f" x="926.355469"/>
      <use xlink:href="#DejaVuSans-6c" x="987.537109"/>
      <use xlink:href="#DejaVuSans-2a" x="1015.320312"/>
      <use xlink:href="#DejaVuSans-41" x="1065.320312"/>
      <use xlink:href="#DejaVuSans-29" x="1133.728516"/>
      <use xlink:href="#DejaVuSans-5d" x="1172.742188"/>
     </g>
    </g>
   </g>
   <g id="line2d_17">
    <path d="M 88.13 499.48 
L 696.24 23.76 
" clip-path="url(#pf180f4cd8b)" style="fill: none; stroke-dasharray: 5.55,2.4; stroke-dashoffset: 0; stroke: #ff0000; stroke-width: 1.5"/>
   </g>
   <g id="patch_3">
    <path d="M 88.13 499.48 
L 88.13 23.76 
" style="fill: none; stroke: #000000; stroke-width: 0.8; stroke-linejoin: miter; stroke-linecap: square"/>
   </g>
   <g id="patch_4">
    <path d="M 696.24 499.48 
L 696.24 23.76 
" style="fill: none; stroke: #000000; stroke-width: 0.8; stroke-linejoin: miter; stroke-linecap: square"/>
   </g>
   <g id="patch_5">
    <path d="M 88.13 499.48 
L 696.24 499.48 
" style="fill: none; stroke: #000000; stroke-width: 0.8; stroke-linejoin: miter; stroke-linecap: square"/>
   </g>
   <g id="patch_6">
    <path d="M 88.13 23.76 
L 696.24 23.76 
" style="fill: none; stroke: #000000; stroke-width: 0.8; stroke-linejoin: miter; stroke-linecap: square"/>
   </g>
   <g id="text_19">
    <!-- Correlation in: 0.981 -->
    <g transform="translate(148.941 71.332) scale(0.22 -0.22)">
     <defs>
      <path id="DejaVuSans-43" d="M 4122 4306 
L 4122 3641 
Q 3803 3938 3442 4084 
Q 3081 4231 2675 4231 
Q 1875 4231 1450 3742 
Q 1025 3253 1025 2328 
Q 1025 1406 1450 917 
Q 1875 428 2675 428 
Q 3081 428 3442 575 
Q 3803 722 4122 1019 
L 4122 359 
Q 3791 134 3420 21 
Q 3050 -91 2638 -91 
Q 1578 -91 968 557 
Q 359 1206 359 2328 
Q 359 3453 968 4101 
Q 1578 4750 2638 4750 
Q 3056 4750 3426 4639 
Q 3797 4528 4122 4306 
z
" transform="scale(0.015625)"/>
      <path id="DejaVuSans-3a" d="M 750 794 
L 1409 794 
L 1409 0 
L 750 0 
L 750 794 
z
M 750 3309 
L 1409 3309 
L 1409 2516 
L 750 2516 
L 750 3309 
z
" transform="scale(0.015625)"/>
      <path id="DejaVuSans-2e" d="M 684 794 
L 1344 794 
L 1344 0 
L 684 0 
L 684 794 
z
" transform="scale(0.015625)"/>
      <path id="DejaVuSans-39" d="M 703 97 
L 703 672 
Q 941 559 1184 500 
Q 1428 441 1663 441 
Q 2288 441 2617 861 
Q 2947 1281 2994 2138 
Q 2813 1869 2534 1725 
Q 2256 1581 1919 1581 
Q 1219 1581 811 2004 
Q 403 2428 403 3163 
Q 403 3881 828 4315 
Q 1253 4750 1959 4750 
Q 2769 4750 3195 4129 
Q 3622 3509 3622 2328 
Q 3622 1225 3098 567 
Q 2575 -91 1691 -91 
Q 1453 -91 1209 -44 
Q 966 3 703 97 
z
M 1959 2075 
Q 2384 2075 2632 2365 
Q 2881 2656 2881 3163 
Q 2881 3666 2632 3958 
Q 2384 4250 1959 4250 
Q 1534 4250 1286 3958 
Q 1038 3666 1038 3163 
Q 1038 2656 1286 2365 
Q 1534 2075 1959 2075 
z
" transform="scale(0.015625)"/>
      <path id="DejaVuSans-38" d="M 2034 2216 
Q 1584 2216 1326 1975 
Q 1069 1734 1069 1313 
Q 1069 891 1326 650 
Q 1584 409 2034 409 
Q 2484 409 2743 651 
Q 3003 894 3003 1313 
Q 3003 1734 2745 1975 
Q 2488 2216 2034 2216 
z
M 1403 2484 
Q 997 2584 770 2862 
Q 544 3141 544 3541 
Q 544 4100 942 4425 
Q 1341 4750 2034 4750 
Q 2731 4750 3128 4425 
Q 3525 4100 3525 3541 
Q 3525 3141 3298 2862 
Q 3072 2584 2669 2484 
Q 3125 2378 3379 2068 
Q 3634 1759 3634 1313 
Q 3634 634 3220 271 
Q 2806 -91 2034 -91 
Q 1263 -91 848 271 
Q 434 634 434 1313 
Q 434 1759 690 2068 
Q 947 2378 1403 2484 
z
M 1172 3481 
Q 1172 3119 1398 2916 
Q 1625 2713 2034 2713 
Q 2441 2713 2670 2916 
Q 2900 3119 2900 3481 
Q 2900 3844 2670 4047 
Q 2441 4250 2034 4250 
Q 1625 4250 1398 4047 
Q 1172 3844 1172 3481 
z
" transform="scale(0.015625)"/>
     </defs>
     <use xlink:href="#DejaVuSans-43"/>
     <use xlink:href="#DejaVuSans-6f" x="69.824219"/>
     <use xlink:href="#DejaVuSans-72" x="131.005859"/>
     <use xlink:href="#DejaVuSans-72" x="170.369141"/>
     <use xlink:href="#DejaVuSans-65" x="209.232422"/>
     <use xlink:href="#DejaVuSans-6c" x="270.755859"/>
     <use xlink:href="#DejaVuSans-61" x="298.539062"/>
     <use xlink:href="#DejaVuSans-74" x="359.818359"/>
     <use xlink:href="#DejaVuSans-69" x="399.027344"/>
     <use xlink:href="#DejaVuSans-6f" x="426.810547"/>
     <use xlink:href="#DejaVuSans-6e" x="487.992188"/>
     <use xlink:href="#DejaVuSans-20" x="551.371094"/>
     <use xlink:href="#DejaVuSans-69" x="583.158203"/>
     <use xlink:href="#DejaVuSans-6e" x="610.941406"/>
     <use xlink:href="#DejaVuSans-3a" x="674.320312"/>
     <use xlink:href="#DejaVuSans-20" x="708.011719"/>
     <use xlink:href="#DejaVuSans-30" x="739.798828"/>
     <use xlink:href="#DejaVuSans-2e" x="803.421875"/>
     <use xlink:href="#DejaVuSans-39" x="835.208984"/>
     <use xlink:href="#DejaVuSans-38" x="898.832031"/>
     <use xlink:href="#DejaVuSans-31" x="962.455078"/>
    </g>
   </g>
  </g>
 </g>
 <defs>
  <clipPath id="pf180f4cd8b">
   <rect x="88.13" y="23.76" width="608.11" height="475.72"/>
  </clipPath>
 </defs>
</svg>
