<?xml version="1.0" encoding="utf-8" standalone="no"?>
<!DOCTYPE svg PUBLIC "-//W3C//DTD SVG 1.1//EN"
  "http://www.w3.org/Graphics/SVG/1.1/DTD/svg11.dtd">
<svg xmlns:xlink="http://www.w3.org/1999/xlink" width="720pt" height="576pt" viewBox="0 0 720 576" xmlns="http://www.w3.org/2000/svg" version="1.1">
 <metadata>
  <rdf:RDF xmlns:dc="http://purl.org/dc/elements/1.1/" xmlns:cc="http://creativecommons.org/ns#" xmlns:rdf="http://www.w3.org/1999/02/22-rdf-syntax-ns#">
   <cc:Work>
    <dc:type rdf:resource="http://purl.org/dc/dcmitype/StillImage"/>
    <dc:date>2024-12-08T22:58:21.981510</dc:date>
    <dc:format>image/svg+xml</dc:format>
    <dc:creator>
     <cc:Agent>
      <dc:title>Matplotlib v3.8.4, https://matplotlib.org/</dc:title>
     </cc:Agent>
    </dc:creator>
   </cc:Work>
  </rdf:RDF>
 </metadata>
 <defs>
  <style type="text/css">*{stroke-linejoin: round; stroke-linecap: butt}</style>
 </defs>
 <g id="figure_1">
  <g id="patch_1">
   <path d="M 0 576 
L 720 576 
L 720 0 
L 0 0 
z
" style="fill: #ffffff"/>
  </g>
  <g id="axes_1">
   <g id="patch_2">
    <path d="M 83.72 499.48 
L 696.24 499.48 
L 696.24 23.76 
L 83.72 23.76 
z
" style="fill: #ffffff"/>
   </g>
   <g id="QuadContourSet_1">
    <path d="M 105.326556 519.102183 
L 105.590193 519.362924 
L 105.85383 519.570962 
L 106.117466 519.733606 
L 106.381103 519.85661 
L 106.64474 519.944458 
L 106.908377 520.0006 
L 107.172013 520.027682 
L 107.43565 520.027752 
L 107.699287 520.002458 
L 107.962923 519.953244 
L 108.22656 519.881545 
L 108.490197 519.788963 
L 108.753834 519.677416 
L 109.01747 519.549212 
L 109.281107 519.407005 
L 109.544744 519.253592 
L 109.808381 519.09153 
L 110.072017 518.92259 
L 110.260822 518.798501 
L 110.335654 518.76334 
L 110.599291 518.637267 
L 110.862928 518.502353 
L 111.126564 518.354289 
L 111.390201 518.187138 
L 111.653838 517.993381 
L 111.917475 517.763913 
L 112.181111 517.487881 
L 112.444748 517.152303 
L 112.44819 517.147345 
L 112.708385 516.85702 
L 112.972021 516.496337 
L 113.235658 516.052125 
L 113.499295 515.50287 
L 113.502208 515.49619 
L 113.762932 515.000489 
L 114.026568 514.379089 
L 114.215863 513.845034 
L 114.290205 513.662296 
L 114.553842 512.929532 
L 114.770872 512.193879 
L 114.817479 512.049487 
L 115.081115 511.148137 
L 115.232652 510.542724 
L 115.344752 510.114123 
L 115.608389 508.955901 
L 115.622254 508.891568 
L 115.872026 507.73231 
L 115.967787 507.240413 
L 116.135662 506.345049 
L 116.268131 505.589257 
L 116.399299 504.782684 
L 116.531969 503.938102 
L 116.662936 503.005119 
L 116.763447 502.286946 
L 116.926573 500.931974 
L 116.963235 500.635791 
L 117.140319 498.984635 
L 117.190209 498.417298 
L 117.293257 497.33348 
L 117.41703 495.682324 
L 117.453846 495.057506 
L 117.522419 494.031169 
L 117.604868 492.380013 
L 117.66126 490.728858 
L 117.694538 489.077702 
L 117.705666 487.426547 
L 117.693829 485.775391 
L 117.656408 484.124236 
L 117.588748 482.47308 
L 117.483683 480.821925 
L 117.453846 480.464327 
L 117.347122 479.17077 
L 117.190209 477.758758 
L 117.163064 477.519614 
L 116.933898 475.868459 
L 116.926573 475.822263 
L 116.662936 474.249873 
L 116.657195 474.217303 
L 116.399299 472.870121 
L 116.337271 472.566148 
L 116.135662 471.618643 
L 115.97406 470.914992 
L 115.872026 470.475499 
L 115.608389 469.4199 
L 115.567424 469.263837 
L 115.344752 468.401751 
L 115.10825 467.612681 
L 115.081115 467.518206 
L 114.817479 466.658531 
L 114.553842 465.961526 
L 114.553842 465.961526 
L 114.290205 465.264123 
L 114.026568 464.703992 
L 113.799259 464.31037 
L 113.762932 464.237603 
L 113.499295 463.767789 
L 113.235658 463.379843 
L 112.972021 463.051882 
L 112.708385 462.76587 
L 112.603912 462.659215 
L 112.444748 462.455501 
L 112.181111 462.13122 
L 111.917475 461.822114 
L 111.653838 461.526162 
L 111.390201 461.245591 
L 111.151057 461.008059 
L 111.126564 460.976467 
L 110.862928 460.651003 
L 110.599291 460.368498 
L 110.335654 460.133987 
L 110.072017 459.950175 
L 109.808381 459.817758 
L 109.544744 459.736022 
L 109.281107 459.703471 
L 109.01747 459.718354 
L 108.753834 459.779055 
L 108.490197 459.884361 
L 108.22656 460.033638 
L 107.962923 460.227004 
L 107.699287 460.465516 
L 107.43565 460.751467 
L 107.231601 461.008059 
L 107.172013 461.064877 
L 106.908377 461.344032 
L 106.64474 461.673619 
L 106.381103 462.064994 
L 106.117466 462.53343 
L 106.053624 462.659215 
L 105.85383 462.981657 
L 105.590193 463.49192 
L 105.326556 464.124644 
L 105.257658 464.31037 
L 105.062919 464.764996 
L 104.799283 465.513575 
L 104.663585 465.961526 
L 104.535646 466.341208 
L 104.272009 467.252766 
L 104.178787 467.612681 
L 104.008372 468.220623 
L 103.756384 469.263837 
L 103.744736 469.309015 
L 103.481099 470.364513 
L 103.354658 470.914992 
L 103.217462 471.478886 
L 102.968887 472.566148 
L 102.953825 472.628815 
L 102.690189 473.690653 
L 102.561714 474.217303 
L 102.426552 474.745684 
L 102.162915 475.781661 
L 102.13943 475.868459 
L 101.899279 476.722806 
L 101.680248 477.519614 
L 101.635642 477.679872 
L 101.372005 478.589282 
L 101.208517 479.17077 
L 101.108368 479.532759 
L 100.844732 480.512249 
L 100.764698 480.821925 
L 100.581095 481.570593 
L 100.376649 482.47308 
L 100.317458 482.760314 
L 100.054322 484.124236 
L 100.053821 484.127223 
L 99.790322 485.775391 
L 99.790185 485.776431 
L 99.578022 487.426547 
L 99.526548 487.944191 
L 99.413772 489.077702 
L 99.295888 490.728858 
L 99.262911 491.474727 
L 99.220873 492.380013 
L 99.191112 494.031169 
L 99.211067 495.682324 
L 99.262911 496.833227 
L 99.285613 497.33348 
L 99.419244 498.984635 
L 99.526548 499.877461 
L 99.61951 500.635791 
L 99.790185 501.709344 
L 99.881635 502.286946 
L 100.053821 503.202072 
L 100.188582 503.938102 
L 100.317458 504.56246 
L 100.522309 505.589257 
L 100.581095 505.859182 
L 100.844732 507.111753 
L 100.870573 507.240413 
L 101.108368 508.33397 
L 101.231854 508.891568 
L 101.372005 509.49123 
L 101.633712 510.542724 
L 101.635642 510.550307 
L 101.899279 511.588291 
L 102.072704 512.193879 
L 102.162915 512.513893 
L 102.426552 513.386688 
L 102.583642 513.845034 
L 102.690189 514.176794 
L 102.953825 514.926235 
L 103.194133 515.49619 
L 103.217462 515.558549 
L 103.481099 516.224492 
L 103.744736 516.772475 
L 103.959803 517.147345 
L 104.008372 517.249465 
L 104.272009 517.7549 
L 104.535646 518.169677 
L 104.799283 518.508959 
L 105.062919 518.785329 
L 105.077296 518.798501 
z
M 106.381103 512.193879 
L 106.381103 512.193879 
L 106.117466 511.984853 
L 105.85383 511.713138 
L 105.590193 511.367826 
L 105.326556 510.935142 
L 105.129178 510.542724 
L 105.062919 510.422501 
L 104.799283 509.869221 
L 104.535646 509.183684 
L 104.436959 508.891568 
L 104.272009 508.406528 
L 104.008372 507.48793 
L 103.944101 507.240413 
L 103.744736 506.419727 
L 103.567461 505.589257 
L 103.481099 505.127808 
L 103.274993 503.938102 
L 103.217462 503.5311 
L 103.046165 502.286946 
L 102.953825 501.393683 
L 102.873586 500.635791 
L 102.749676 498.984635 
L 102.690189 497.691885 
L 102.671826 497.33348 
L 102.630522 495.682324 
L 102.631648 494.031169 
L 102.674446 492.380013 
L 102.690189 492.068716 
L 102.749519 490.728858 
L 102.863596 489.077702 
L 102.953825 488.129669 
L 103.015234 487.426547 
L 103.202601 485.775391 
L 103.217462 485.664173 
L 103.414758 484.124236 
L 103.481099 483.68042 
L 103.658528 482.47308 
L 103.744736 481.948151 
L 103.931417 480.821925 
L 104.008372 480.391069 
L 104.234603 479.17077 
L 104.272009 478.97749 
L 104.535646 477.675252 
L 104.569013 477.519614 
L 104.799283 476.458073 
L 104.942494 475.868459 
L 105.062919 475.36446 
L 105.326556 474.384826 
L 105.375963 474.217303 
L 105.590193 473.453282 
L 105.85383 472.667253 
L 105.891144 472.566148 
L 106.117466 471.896646 
L 106.381103 471.247398 
L 106.538951 470.914992 
L 106.64474 470.66201 
L 106.908377 470.110137 
L 107.172013 469.657992 
L 107.43565 469.288971 
L 107.456745 469.263837 
L 107.699287 468.915622 
L 107.962923 468.617649 
L 108.22656 468.394115 
L 108.490197 468.239925 
L 108.753834 468.152338 
L 109.01747 468.130464 
L 109.281107 468.174774 
L 109.544744 468.286576 
L 109.808381 468.467427 
L 110.072017 468.718479 
L 110.335654 469.039809 
L 110.49119 469.263837 
L 110.599291 469.399433 
L 110.862928 469.7725 
L 111.126564 470.196801 
L 111.390201 470.668408 
L 111.521175 470.914992 
L 111.653838 471.143733 
L 111.917475 471.622202 
L 112.181111 472.147489 
L 112.374736 472.566148 
L 112.444748 472.711372 
L 112.708385 473.295141 
L 112.972021 473.971845 
L 113.058848 474.217303 
L 113.235658 474.723188 
L 113.499295 475.59845 
L 113.572547 475.868459 
L 113.762932 476.61048 
L 113.967582 477.519614 
L 114.026568 477.806098 
L 114.283336 479.17077 
L 114.290205 479.212005 
L 114.544457 480.821925 
L 114.553842 480.89154 
L 114.762251 482.47308 
L 114.817479 482.988617 
L 114.93929 484.124236 
L 115.073505 485.775391 
L 115.081115 485.904361 
L 115.174035 487.426547 
L 115.233376 489.077702 
L 115.253559 490.728858 
L 115.235623 492.380013 
L 115.17874 494.031169 
L 115.081115 495.661798 
L 115.079952 495.682324 
L 114.945802 497.33348 
L 114.817479 498.498079 
L 114.763865 498.984635 
L 114.553842 500.49196 
L 114.53309 500.635791 
L 114.290205 502.048462 
L 114.246155 502.286946 
L 114.026568 503.338988 
L 113.886935 503.938102 
L 113.762932 504.432806 
L 113.499295 505.362362 
L 113.427232 505.589257 
L 113.235658 506.18065 
L 112.972021 506.877399 
L 112.812765 507.240413 
L 112.708385 507.486331 
L 112.444748 508.03502 
L 112.181111 508.498129 
L 111.918078 508.891568 
L 111.917475 508.892556 
L 111.653838 509.292623 
L 111.390201 509.644456 
L 111.126564 509.959182 
L 110.862928 510.24527 
L 110.599291 510.508674 
L 110.564437 510.542724 
L 110.335654 510.803737 
L 110.072017 511.087126 
L 109.808381 511.350568 
L 109.544744 511.592669 
L 109.281107 511.811478 
L 109.01747 512.004963 
L 108.753834 512.171284 
L 108.711692 512.193879 
L 108.490197 512.34274 
L 108.22656 512.481756 
L 107.962923 512.580073 
L 107.699287 512.636128 
L 107.43565 512.648116 
L 107.172013 512.613688 
L 106.908377 512.52965 
L 106.64474 512.391659 
z
" clip-path="url(#p90a96ded84)" style="fill: #e5e5f3"/>
    <path d="M 106.64474 512.391659 
L 106.908377 512.52965 
L 107.172013 512.613688 
L 107.43565 512.648116 
L 107.699287 512.636128 
L 107.962923 512.580073 
L 108.22656 512.481756 
L 108.490197 512.34274 
L 108.711692 512.193879 
L 108.753834 512.171284 
L 109.01747 512.004963 
L 109.281107 511.811478 
L 109.544744 511.592669 
L 109.808381 511.350568 
L 110.072017 511.087126 
L 110.335654 510.803737 
L 110.564437 510.542724 
L 110.599291 510.508674 
L 110.862928 510.24527 
L 111.126564 509.959182 
L 111.390201 509.644456 
L 111.653838 509.292623 
L 111.917475 508.892556 
L 111.918078 508.891568 
L 112.181111 508.498129 
L 112.444748 508.03502 
L 112.708385 507.486331 
L 112.812765 507.240413 
L 112.972021 506.877399 
L 113.235658 506.18065 
L 113.427232 505.589257 
L 113.499295 505.362362 
L 113.762932 504.432806 
L 113.886935 503.938102 
L 114.026568 503.338988 
L 114.246155 502.286946 
L 114.290205 502.048462 
L 114.53309 500.635791 
L 114.553842 500.49196 
L 114.763865 498.984635 
L 114.817479 498.498079 
L 114.945802 497.33348 
L 115.079952 495.682324 
L 115.081115 495.661798 
L 115.17874 494.031169 
L 115.235623 492.380013 
L 115.253559 490.728858 
L 115.233376 489.077702 
L 115.174035 487.426547 
L 115.081115 485.904361 
L 115.073505 485.775391 
L 114.93929 484.124236 
L 114.817479 482.988617 
L 114.762251 482.47308 
L 114.553842 480.89154 
L 114.544457 480.821925 
L 114.290205 479.212005 
L 114.283336 479.17077 
L 114.026568 477.806098 
L 113.967582 477.519614 
L 113.762932 476.61048 
L 113.572547 475.868459 
L 113.499295 475.59845 
L 113.235658 474.723188 
L 113.058848 474.217303 
L 112.972021 473.971845 
L 112.708385 473.295141 
L 112.444748 472.711372 
L 112.374736 472.566148 
L 112.181111 472.147489 
L 111.917475 471.622202 
L 111.653838 471.143733 
L 111.521175 470.914992 
L 111.390201 470.668408 
L 111.126564 470.196801 
L 110.862928 469.7725 
L 110.599291 469.399433 
L 110.49119 469.263837 
L 110.335654 469.039809 
L 110.072017 468.718479 
L 109.808381 468.467427 
L 109.544744 468.286576 
L 109.281107 468.174774 
L 109.01747 468.130464 
L 108.753834 468.152338 
L 108.490197 468.239925 
L 108.22656 468.394115 
L 107.962923 468.617649 
L 107.699287 468.915622 
L 107.456745 469.263837 
L 107.43565 469.288971 
L 107.172013 469.657992 
L 106.908377 470.110137 
L 106.64474 470.66201 
L 106.538951 470.914992 
L 106.381103 471.247398 
L 106.117466 471.896646 
L 105.891144 472.566148 
L 105.85383 472.667253 
L 105.590193 473.453282 
L 105.375963 474.217303 
L 105.326556 474.384826 
L 105.062919 475.36446 
L 104.942494 475.868459 
L 104.799283 476.458073 
L 104.569013 477.519614 
L 104.535646 477.675252 
L 104.272009 478.97749 
L 104.234603 479.17077 
L 104.008372 480.391069 
L 103.931417 480.821925 
L 103.744736 481.948151 
L 103.658528 482.47308 
L 103.481099 483.68042 
L 103.414758 484.124236 
L 103.217462 485.664173 
L 103.202601 485.775391 
L 103.015234 487.426547 
L 102.953825 488.129669 
L 102.863596 489.077702 
L 102.749519 490.728858 
L 102.690189 492.068716 
L 102.674446 492.380013 
L 102.631648 494.031169 
L 102.630522 495.682324 
L 102.671826 497.33348 
L 102.690189 497.691885 
L 102.749676 498.984635 
L 102.873586 500.635791 
L 102.953825 501.393683 
L 103.046165 502.286946 
L 103.217462 503.5311 
L 103.274993 503.938102 
L 103.481099 505.127808 
L 103.567461 505.589257 
L 103.744736 506.419727 
L 103.944101 507.240413 
L 104.008372 507.48793 
L 104.272009 508.406528 
L 104.436959 508.891568 
L 104.535646 509.183684 
L 104.799283 509.869221 
L 105.062919 510.422501 
L 105.129178 510.542724 
L 105.326556 510.935142 
L 105.590193 511.367826 
L 105.85383 511.713138 
L 106.117466 511.984853 
L 106.381103 512.193879 
L 106.381103 512.193879 
z
M 106.64474 508.891568 
L 106.64474 508.891568 
L 106.381103 508.661742 
L 106.117466 508.355014 
L 105.85383 507.958125 
L 105.590193 507.454153 
L 105.495488 507.240413 
L 105.326556 506.866003 
L 105.062919 506.1562 
L 104.887389 505.589257 
L 104.799283 505.286373 
L 104.535646 504.2339 
L 104.469769 503.938102 
L 104.272009 502.90543 
L 104.165201 502.286946 
L 104.008372 501.136161 
L 103.943421 500.635791 
L 103.786885 498.984635 
L 103.744736 498.291669 
L 103.684183 497.33348 
L 103.629924 495.682324 
L 103.621599 494.031169 
L 103.655764 492.380013 
L 103.732607 490.728858 
L 103.744736 490.557169 
L 103.840507 489.077702 
L 103.991895 487.426547 
L 104.008372 487.280991 
L 104.172372 485.775391 
L 104.272009 485.027704 
L 104.39129 484.124236 
L 104.535646 483.183207 
L 104.646903 482.47308 
L 104.799283 481.598644 
L 104.941979 480.821925 
L 105.062919 480.206722 
L 105.284852 479.17077 
L 105.326556 478.982268 
L 105.590193 477.874399 
L 105.684777 477.519614 
L 105.85383 476.880981 
L 106.117466 476.02231 
L 106.170095 475.868459 
L 106.381103 475.221317 
L 106.64474 474.542332 
L 106.792781 474.217303 
L 106.908377 473.939641 
L 107.172013 473.397906 
L 107.43565 472.960747 
L 107.699287 472.613601 
L 107.744813 472.566148 
L 107.962923 472.302017 
L 108.22656 472.071449 
L 108.490197 471.926039 
L 108.753834 471.862953 
L 109.01747 471.881593 
L 109.281107 471.98299 
L 109.544744 472.169152 
L 109.808381 472.44238 
L 109.901845 472.566148 
L 110.072017 472.77106 
L 110.335654 473.16104 
L 110.599291 473.629718 
L 110.862928 474.1755 
L 110.882036 474.217303 
L 111.126564 474.735278 
L 111.390201 475.358971 
L 111.588121 475.868459 
L 111.653838 476.039478 
L 111.917475 476.756214 
L 112.169299 477.519614 
L 112.181111 477.557449 
L 112.444748 478.434434 
L 112.64241 479.17077 
L 112.708385 479.442513 
L 112.972021 480.616962 
L 113.014869 480.821925 
L 113.235658 482.043443 
L 113.308206 482.47308 
L 113.499295 483.842114 
L 113.537161 484.124236 
L 113.713937 485.775391 
L 113.762932 486.401892 
L 113.843603 487.426547 
L 113.92762 489.077702 
L 113.965746 490.728858 
L 113.957987 492.380013 
L 113.901779 494.031169 
L 113.791842 495.682324 
L 113.762932 495.973964 
L 113.625531 497.33348 
L 113.499295 498.242885 
L 113.390481 498.984635 
L 113.235658 499.823946 
L 113.071408 500.635791 
L 112.972021 501.054645 
L 112.708385 502.052111 
L 112.639626 502.286946 
L 112.444748 502.892621 
L 112.181111 503.60913 
L 112.045673 503.938102 
L 111.917475 504.2388 
L 111.653838 504.801701 
L 111.390201 505.299343 
L 111.222814 505.589257 
L 111.126564 505.76009 
L 110.862928 506.205317 
L 110.599291 506.612934 
L 110.335654 506.986849 
L 110.143613 507.240413 
L 110.072017 507.343219 
L 109.808381 507.705122 
L 109.544744 508.031398 
L 109.281107 508.320595 
L 109.01747 508.571354 
L 108.753834 508.78255 
L 108.58735 508.891568 
L 108.490197 508.966075 
L 108.22656 509.122028 
L 107.962923 509.226438 
L 107.699287 509.27776 
L 107.43565 509.273812 
L 107.172013 509.211423 
L 106.908377 509.086087 
z
" clip-path="url(#p90a96ded84)" style="fill: #cecef5"/>
    <path d="M 106.908377 509.086087 
L 107.172013 509.211423 
L 107.43565 509.273812 
L 107.699287 509.27776 
L 107.962923 509.226438 
L 108.22656 509.122028 
L 108.490197 508.966075 
L 108.58735 508.891568 
L 108.753834 508.78255 
L 109.01747 508.571354 
L 109.281107 508.320595 
L 109.544744 508.031398 
L 109.808381 507.705122 
L 110.072017 507.343219 
L 110.143613 507.240413 
L 110.335654 506.986849 
L 110.599291 506.612934 
L 110.862928 506.205317 
L 111.126564 505.76009 
L 111.222814 505.589257 
L 111.390201 505.299343 
L 111.653838 504.801701 
L 111.917475 504.2388 
L 112.045673 503.938102 
L 112.181111 503.60913 
L 112.444748 502.892621 
L 112.639626 502.286946 
L 112.708385 502.052111 
L 112.972021 501.054645 
L 113.071408 500.635791 
L 113.235658 499.823946 
L 113.390481 498.984635 
L 113.499295 498.242885 
L 113.625531 497.33348 
L 113.762932 495.973964 
L 113.791842 495.682324 
L 113.901779 494.031169 
L 113.957987 492.380013 
L 113.965746 490.728858 
L 113.92762 489.077702 
L 113.843603 487.426547 
L 113.762932 486.401892 
L 113.713937 485.775391 
L 113.537161 484.124236 
L 113.499295 483.842114 
L 113.308206 482.47308 
L 113.235658 482.043443 
L 113.014869 480.821925 
L 112.972021 480.616962 
L 112.708385 479.442513 
L 112.64241 479.17077 
L 112.444748 478.434434 
L 112.181111 477.557449 
L 112.169299 477.519614 
L 111.917475 476.756214 
L 111.653838 476.039478 
L 111.588121 475.868459 
L 111.390201 475.358971 
L 111.126564 474.735278 
L 110.882036 474.217303 
L 110.862928 474.1755 
L 110.599291 473.629718 
L 110.335654 473.16104 
L 110.072017 472.77106 
L 109.901845 472.566148 
L 109.808381 472.44238 
L 109.544744 472.169152 
L 109.281107 471.98299 
L 109.01747 471.881593 
L 108.753834 471.862953 
L 108.490197 471.926039 
L 108.22656 472.071449 
L 107.962923 472.302017 
L 107.744813 472.566148 
L 107.699287 472.613601 
L 107.43565 472.960747 
L 107.172013 473.397906 
L 106.908377 473.939641 
L 106.792781 474.217303 
L 106.64474 474.542332 
L 106.381103 475.221317 
L 106.170095 475.868459 
L 106.117466 476.02231 
L 105.85383 476.880981 
L 105.684777 477.519614 
L 105.590193 477.874399 
L 105.326556 478.982268 
L 105.284852 479.17077 
L 105.062919 480.206722 
L 104.941979 480.821925 
L 104.799283 481.598644 
L 104.646903 482.47308 
L 104.535646 483.183207 
L 104.39129 484.124236 
L 104.272009 485.027704 
L 104.172372 485.775391 
L 104.008372 487.280991 
L 103.991895 487.426547 
L 103.840507 489.077702 
L 103.744736 490.557169 
L 103.732607 490.728858 
L 103.655764 492.380013 
L 103.621599 494.031169 
L 103.629924 495.682324 
L 103.684183 497.33348 
L 103.744736 498.291669 
L 103.786885 498.984635 
L 103.943421 500.635791 
L 104.008372 501.136161 
L 104.165201 502.286946 
L 104.272009 502.90543 
L 104.469769 503.938102 
L 104.535646 504.2339 
L 104.799283 505.286373 
L 104.887389 505.589257 
L 105.062919 506.1562 
L 105.326556 506.866003 
L 105.495488 507.240413 
L 105.590193 507.454153 
L 105.85383 507.958125 
L 106.117466 508.355014 
L 106.381103 508.661742 
L 106.64474 508.891568 
L 106.64474 508.891568 
z
M 106.066476 505.589257 
L 105.85383 505.173467 
L 105.590193 504.523872 
L 105.396927 503.938102 
L 105.326556 503.706008 
L 105.062919 502.683508 
L 104.974651 502.286946 
L 104.799283 501.339321 
L 104.68343 500.635791 
L 104.535646 499.438612 
L 104.482805 498.984635 
L 104.350789 497.33348 
L 104.279768 495.682324 
L 104.272009 495.079209 
L 104.257627 494.031169 
L 104.272009 493.127884 
L 104.282645 492.380013 
L 104.348591 490.728858 
L 104.458413 489.077702 
L 104.535646 488.246292 
L 104.608816 487.426547 
L 104.799283 485.797887 
L 104.801892 485.775391 
L 105.032915 484.124236 
L 105.062919 483.938955 
L 105.311259 482.47308 
L 105.326556 482.391516 
L 105.590193 481.06173 
L 105.642057 480.821925 
L 105.85383 479.896232 
L 106.042885 479.17077 
L 106.117466 478.889391 
L 106.381103 477.998331 
L 106.546837 477.519614 
L 106.64474 477.229028 
L 106.908377 476.54942 
L 107.172013 475.994931 
L 107.243784 475.868459 
L 107.43565 475.502261 
L 107.699287 475.102724 
L 107.962923 474.802901 
L 108.22656 474.595216 
L 108.490197 474.475576 
L 108.753834 474.442687 
L 109.01747 474.497411 
L 109.281107 474.642145 
L 109.544744 474.880168 
L 109.808381 475.21495 
L 110.072017 475.649479 
L 110.184082 475.868459 
L 110.335654 476.159805 
L 110.599291 476.748137 
L 110.862928 477.43277 
L 110.894489 477.519614 
L 111.126564 478.183912 
L 111.390201 479.027296 
L 111.43336 479.17077 
L 111.653838 479.970137 
L 111.870061 480.821925 
L 111.917475 481.035318 
L 112.181111 482.274597 
L 112.22153 482.47308 
L 112.444748 483.792974 
L 112.498593 484.124236 
L 112.708385 485.775391 
L 112.708385 485.775391 
L 112.862308 487.426547 
L 112.958129 489.077702 
L 112.972021 489.619831 
L 113.001677 490.728858 
L 112.989067 492.380013 
L 112.972021 492.771012 
L 112.917597 494.031169 
L 112.778849 495.682324 
L 112.708385 496.237281 
L 112.562211 497.33348 
L 112.444748 497.985641 
L 112.249632 498.984635 
L 112.181111 499.269257 
L 111.917475 500.281074 
L 111.81655 500.635791 
L 111.653838 501.136893 
L 111.390201 501.877357 
L 111.231198 502.286946 
L 111.126564 502.539056 
L 110.862928 503.139896 
L 110.599291 503.683079 
L 110.467217 503.938102 
L 110.335654 504.191289 
L 110.072017 504.667819 
L 109.808381 505.095951 
L 109.544744 505.476064 
L 109.458035 505.589257 
L 109.281107 505.835277 
L 109.01747 506.154705 
L 108.753834 506.419952 
L 108.490197 506.630601 
L 108.22656 506.786114 
L 107.962923 506.885548 
L 107.699287 506.927235 
L 107.43565 506.908456 
L 107.172013 506.825079 
L 106.908377 506.671155 
L 106.64474 506.438463 
L 106.381103 506.115965 
L 106.117466 505.689159 
z
" clip-path="url(#p90a96ded84)" style="fill: #b6b6f6"/>
    <path d="M 106.117466 505.689159 
L 106.381103 506.115965 
L 106.64474 506.438463 
L 106.908377 506.671155 
L 107.172013 506.825079 
L 107.43565 506.908456 
L 107.699287 506.927235 
L 107.962923 506.885548 
L 108.22656 506.786114 
L 108.490197 506.630601 
L 108.753834 506.419952 
L 109.01747 506.154705 
L 109.281107 505.835277 
L 109.458035 505.589257 
L 109.544744 505.476064 
L 109.808381 505.095951 
L 110.072017 504.667819 
L 110.335654 504.191289 
L 110.467217 503.938102 
L 110.599291 503.683079 
L 110.862928 503.139896 
L 111.126564 502.539056 
L 111.231198 502.286946 
L 111.390201 501.877357 
L 111.653838 501.136893 
L 111.81655 500.635791 
L 111.917475 500.281074 
L 112.181111 499.269257 
L 112.249632 498.984635 
L 112.444748 497.985641 
L 112.562211 497.33348 
L 112.708385 496.237281 
L 112.778849 495.682324 
L 112.917597 494.031169 
L 112.972021 492.771012 
L 112.989067 492.380013 
L 113.001677 490.728858 
L 112.972021 489.619831 
L 112.958129 489.077702 
L 112.862308 487.426547 
L 112.708385 485.775391 
L 112.708385 485.775391 
L 112.498593 484.124236 
L 112.444748 483.792974 
L 112.22153 482.47308 
L 112.181111 482.274597 
L 111.917475 481.035318 
L 111.870061 480.821925 
L 111.653838 479.970137 
L 111.43336 479.17077 
L 111.390201 479.027296 
L 111.126564 478.183912 
L 110.894489 477.519614 
L 110.862928 477.43277 
L 110.599291 476.748137 
L 110.335654 476.159805 
L 110.184082 475.868459 
L 110.072017 475.649479 
L 109.808381 475.21495 
L 109.544744 474.880168 
L 109.281107 474.642145 
L 109.01747 474.497411 
L 108.753834 474.442687 
L 108.490197 474.475576 
L 108.22656 474.595216 
L 107.962923 474.802901 
L 107.699287 475.102724 
L 107.43565 475.502261 
L 107.243784 475.868459 
L 107.172013 475.994931 
L 106.908377 476.54942 
L 106.64474 477.229028 
L 106.546837 477.519614 
L 106.381103 477.998331 
L 106.117466 478.889391 
L 106.042885 479.17077 
L 105.85383 479.896232 
L 105.642057 480.821925 
L 105.590193 481.06173 
L 105.326556 482.391516 
L 105.311259 482.47308 
L 105.062919 483.938955 
L 105.032915 484.124236 
L 104.801892 485.775391 
L 104.799283 485.797887 
L 104.608816 487.426547 
L 104.535646 488.246292 
L 104.458413 489.077702 
L 104.348591 490.728858 
L 104.282645 492.380013 
L 104.272009 493.127884 
L 104.257627 494.031169 
L 104.272009 495.079209 
L 104.279768 495.682324 
L 104.350789 497.33348 
L 104.482805 498.984635 
L 104.535646 499.438612 
L 104.68343 500.635791 
L 104.799283 501.339321 
L 104.974651 502.286946 
L 105.062919 502.683508 
L 105.326556 503.706008 
L 105.396927 503.938102 
L 105.590193 504.523872 
L 105.85383 505.173467 
L 106.066476 505.589257 
z
M 106.465052 503.938102 
L 106.381103 503.804147 
L 106.117466 503.267719 
L 105.85383 502.570301 
L 105.76444 502.286946 
L 105.590193 501.659353 
L 105.358227 500.635791 
L 105.326556 500.461096 
L 105.093296 498.984635 
L 105.062919 498.710946 
L 104.921144 497.33348 
L 104.823135 495.682324 
L 104.799283 494.657044 
L 104.784457 494.031169 
L 104.799283 492.380013 
L 104.799283 492.380013 
L 104.860614 490.728858 
L 104.969476 489.077702 
L 105.062919 488.093189 
L 105.125178 487.426547 
L 105.326556 485.79042 
L 105.32844 485.775391 
L 105.58056 484.124236 
L 105.590193 484.069561 
L 105.85383 482.659742 
L 105.891899 482.47308 
L 106.117466 481.463361 
L 106.280405 480.821925 
L 106.381103 480.443311 
L 106.64474 479.572171 
L 106.78705 479.17077 
L 106.908377 478.82776 
L 107.172013 478.197361 
L 107.43565 477.691849 
L 107.548677 477.519614 
L 107.699287 477.276478 
L 107.962923 476.959271 
L 108.22656 476.749573 
L 108.490197 476.643535 
L 108.753834 476.640421 
L 109.01747 476.741902 
L 109.281107 476.951362 
L 109.544744 477.273158 
L 109.69654 477.519614 
L 109.808381 477.701817 
L 110.072017 478.234059 
L 110.335654 478.886679 
L 110.437124 479.17077 
L 110.599291 479.658284 
L 110.862928 480.55247 
L 110.937006 480.821925 
L 111.126564 481.60465 
L 111.321923 482.47308 
L 111.390201 482.837784 
L 111.622283 484.124236 
L 111.653838 484.349396 
L 111.852325 485.775391 
L 111.917475 486.437738 
L 112.016499 487.426547 
L 112.117549 489.077702 
L 112.156202 490.728858 
L 112.131636 492.380013 
L 112.036922 494.031169 
L 111.917475 495.162766 
L 111.86149 495.682324 
L 111.653838 496.977648 
L 111.593912 497.33348 
L 111.390201 498.257161 
L 111.216601 498.984635 
L 111.126564 499.299114 
L 110.862928 500.167131 
L 110.708261 500.635791 
L 110.599291 500.932557 
L 110.335654 501.607122 
L 110.072017 502.208604 
L 110.035422 502.286946 
L 109.808381 502.756106 
L 109.544744 503.239234 
L 109.281107 503.657 
L 109.073556 503.938102 
L 109.01747 504.016424 
L 108.753834 504.32965 
L 108.490197 504.574636 
L 108.22656 504.751242 
L 107.962923 504.858559 
L 107.699287 504.894537 
L 107.43565 504.855587 
L 107.172013 504.736142 
L 106.908377 504.528148 
L 106.64474 504.220464 
z
" clip-path="url(#p90a96ded84)" style="fill: #9d9df7"/>
    <path d="M 106.64474 504.220464 
L 106.908377 504.528148 
L 107.172013 504.736142 
L 107.43565 504.855587 
L 107.699287 504.894537 
L 107.962923 504.858559 
L 108.22656 504.751242 
L 108.490197 504.574636 
L 108.753834 504.32965 
L 109.01747 504.016424 
L 109.073556 503.938102 
L 109.281107 503.657 
L 109.544744 503.239234 
L 109.808381 502.756106 
L 110.035422 502.286946 
L 110.072017 502.208604 
L 110.335654 501.607122 
L 110.599291 500.932557 
L 110.708261 500.635791 
L 110.862928 500.167131 
L 111.126564 499.299114 
L 111.216601 498.984635 
L 111.390201 498.257161 
L 111.593912 497.33348 
L 111.653838 496.977648 
L 111.86149 495.682324 
L 111.917475 495.162766 
L 112.036922 494.031169 
L 112.131636 492.380013 
L 112.156202 490.728858 
L 112.117549 489.077702 
L 112.016499 487.426547 
L 111.917475 486.437738 
L 111.852325 485.775391 
L 111.653838 484.349396 
L 111.622283 484.124236 
L 111.390201 482.837784 
L 111.321923 482.47308 
L 111.126564 481.60465 
L 110.937006 480.821925 
L 110.862928 480.55247 
L 110.599291 479.658284 
L 110.437124 479.17077 
L 110.335654 478.886679 
L 110.072017 478.234059 
L 109.808381 477.701817 
L 109.69654 477.519614 
L 109.544744 477.273158 
L 109.281107 476.951362 
L 109.01747 476.741902 
L 108.753834 476.640421 
L 108.490197 476.643535 
L 108.22656 476.749573 
L 107.962923 476.959271 
L 107.699287 477.276478 
L 107.548677 477.519614 
L 107.43565 477.691849 
L 107.172013 478.197361 
L 106.908377 478.82776 
L 106.78705 479.17077 
L 106.64474 479.572171 
L 106.381103 480.443311 
L 106.280405 480.821925 
L 106.117466 481.463361 
L 105.891899 482.47308 
L 105.85383 482.659742 
L 105.590193 484.069561 
L 105.58056 484.124236 
L 105.32844 485.775391 
L 105.326556 485.79042 
L 105.125178 487.426547 
L 105.062919 488.093189 
L 104.969476 489.077702 
L 104.860614 490.728858 
L 104.799283 492.380013 
L 104.799283 492.380013 
L 104.784457 494.031169 
L 104.799283 494.657044 
L 104.823135 495.682324 
L 104.921144 497.33348 
L 105.062919 498.710946 
L 105.093296 498.984635 
L 105.326556 500.461096 
L 105.358227 500.635791 
L 105.590193 501.659353 
L 105.76444 502.286946 
L 105.85383 502.570301 
L 106.117466 503.267719 
L 106.381103 503.804147 
L 106.465052 503.938102 
z
M 106.824692 502.286946 
L 106.64474 502.007403 
L 106.381103 501.452844 
L 106.117466 500.715109 
L 106.093729 500.635791 
L 105.85383 499.676593 
L 105.71272 498.984635 
L 105.590193 498.175021 
L 105.4789 497.33348 
L 105.342924 495.682324 
L 105.326556 495.259236 
L 105.280728 494.031169 
L 105.281592 492.380013 
L 105.326556 491.106845 
L 105.339346 490.728858 
L 105.448693 489.077702 
L 105.590193 487.65342 
L 105.613044 487.426547 
L 105.832735 485.775391 
L 105.85383 485.644794 
L 106.117466 484.124236 
L 106.117466 484.124236 
L 106.381103 482.904174 
L 106.487277 482.47308 
L 106.64474 481.884209 
L 106.908377 481.042125 
L 106.989633 480.821925 
L 107.172013 480.341441 
L 107.43565 479.778826 
L 107.699287 479.345018 
L 107.844816 479.17077 
L 107.962923 479.024925 
L 108.22656 478.819477 
L 108.490197 478.734202 
L 108.753834 478.769395 
L 109.01747 478.927963 
L 109.242173 479.17077 
L 109.281107 479.213839 
L 109.544744 479.628114 
L 109.808381 480.182783 
L 110.05025 480.821925 
L 110.072017 480.885931 
L 110.335654 481.771125 
L 110.51704 482.47308 
L 110.599291 482.853453 
L 110.851341 484.124236 
L 110.862928 484.19972 
L 111.096386 485.775391 
L 111.126564 486.068781 
L 111.267225 487.426547 
L 111.36591 489.077702 
L 111.390201 490.399099 
L 111.396692 490.728858 
L 111.390201 490.992018 
L 111.357132 492.380013 
L 111.240158 494.031169 
L 111.126564 494.952831 
L 111.034427 495.682324 
L 110.862928 496.629288 
L 110.727774 497.33348 
L 110.599291 497.858939 
L 110.335654 498.852363 
L 110.298211 498.984635 
L 110.072017 499.672061 
L 109.808381 500.381868 
L 109.70362 500.635791 
L 109.544744 500.992457 
L 109.281107 501.511877 
L 109.01747 501.947128 
L 108.764392 502.286946 
L 108.753834 502.301065 
L 108.490197 502.582357 
L 108.22656 502.780077 
L 107.962923 502.893238 
L 107.699287 502.919149 
L 107.43565 502.852932 
L 107.172013 502.686969 
L 106.908377 502.410242 
z
" clip-path="url(#p90a96ded84)" style="fill: #8383f8"/>
    <path d="M 106.908377 502.410242 
L 107.172013 502.686969 
L 107.43565 502.852932 
L 107.699287 502.919149 
L 107.962923 502.893238 
L 108.22656 502.780077 
L 108.490197 502.582357 
L 108.753834 502.301065 
L 108.764392 502.286946 
L 109.01747 501.947128 
L 109.281107 501.511877 
L 109.544744 500.992457 
L 109.70362 500.635791 
L 109.808381 500.381868 
L 110.072017 499.672061 
L 110.298211 498.984635 
L 110.335654 498.852363 
L 110.599291 497.858939 
L 110.727774 497.33348 
L 110.862928 496.629288 
L 111.034427 495.682324 
L 111.126564 494.952831 
L 111.240158 494.031169 
L 111.357132 492.380013 
L 111.390201 490.992018 
L 111.396692 490.728858 
L 111.390201 490.399099 
L 111.36591 489.077702 
L 111.267225 487.426547 
L 111.126564 486.068781 
L 111.096386 485.775391 
L 110.862928 484.19972 
L 110.851341 484.124236 
L 110.599291 482.853453 
L 110.51704 482.47308 
L 110.335654 481.771125 
L 110.072017 480.885931 
L 110.05025 480.821925 
L 109.808381 480.182783 
L 109.544744 479.628114 
L 109.281107 479.213839 
L 109.242173 479.17077 
L 109.01747 478.927963 
L 108.753834 478.769395 
L 108.490197 478.734202 
L 108.22656 478.819477 
L 107.962923 479.024925 
L 107.844816 479.17077 
L 107.699287 479.345018 
L 107.43565 479.778826 
L 107.172013 480.341441 
L 106.989633 480.821925 
L 106.908377 481.042125 
L 106.64474 481.884209 
L 106.487277 482.47308 
L 106.381103 482.904174 
L 106.117466 484.124236 
L 106.117466 484.124236 
L 105.85383 485.644794 
L 105.832735 485.775391 
L 105.613044 487.426547 
L 105.590193 487.65342 
L 105.448693 489.077702 
L 105.339346 490.728858 
L 105.326556 491.106845 
L 105.281592 492.380013 
L 105.280728 494.031169 
L 105.326556 495.259236 
L 105.342924 495.682324 
L 105.4789 497.33348 
L 105.590193 498.175021 
L 105.71272 498.984635 
L 105.85383 499.676593 
L 106.093729 500.635791 
L 106.117466 500.715109 
L 106.381103 501.452844 
L 106.64474 502.007403 
L 106.824692 502.286946 
z
M 107.176933 500.635791 
L 107.172013 500.631173 
L 106.908377 500.242402 
L 106.64474 499.676586 
L 106.408398 498.984635 
L 106.381103 498.884971 
L 106.117466 497.672541 
L 106.057145 497.33348 
L 105.861089 495.682324 
L 105.85383 495.566694 
L 105.766672 494.031169 
L 105.749563 492.380013 
L 105.799661 490.728858 
L 105.85383 489.936659 
L 105.91328 489.077702 
L 106.090566 487.426547 
L 106.117466 487.237047 
L 106.340274 485.775391 
L 106.381103 485.556345 
L 106.64474 484.284096 
L 106.682494 484.124236 
L 106.908377 483.284952 
L 107.172013 482.47308 
L 107.172013 482.47308 
L 107.43565 481.847344 
L 107.699287 481.37104 
L 107.962923 481.035996 
L 108.22656 480.839061 
L 108.305757 480.821925 
L 108.490197 480.781881 
L 108.617383 480.821925 
L 108.753834 480.866905 
L 109.01747 481.102874 
L 109.281107 481.497557 
L 109.544744 482.059928 
L 109.696456 482.47308 
L 109.808381 482.830615 
L 110.072017 483.846246 
L 110.135473 484.124236 
L 110.335654 485.253317 
L 110.420618 485.775391 
L 110.599291 487.368103 
L 110.605669 487.426547 
L 110.709872 489.077702 
L 110.735513 490.728858 
L 110.681792 492.380013 
L 110.599291 493.363034 
L 110.542266 494.031169 
L 110.335654 495.481162 
L 110.305316 495.682324 
L 110.072017 496.800393 
L 109.94917 497.33348 
L 109.808381 497.82688 
L 109.544744 498.647681 
L 109.420615 498.984635 
L 109.281107 499.318907 
L 109.01747 499.856563 
L 108.753834 500.288328 
L 108.490197 500.616858 
L 108.468312 500.635791 
L 108.22656 500.837699 
L 107.962923 500.954755 
L 107.699287 500.964626 
L 107.43565 500.86041 
z
" clip-path="url(#p90a96ded84)" style="fill: #6868fa"/>
    <path d="M 107.43565 500.86041 
L 107.699287 500.964626 
L 107.962923 500.954755 
L 108.22656 500.837699 
L 108.468312 500.635791 
L 108.490197 500.616858 
L 108.753834 500.288328 
L 109.01747 499.856563 
L 109.281107 499.318907 
L 109.420615 498.984635 
L 109.544744 498.647681 
L 109.808381 497.82688 
L 109.94917 497.33348 
L 110.072017 496.800393 
L 110.305316 495.682324 
L 110.335654 495.481162 
L 110.542266 494.031169 
L 110.599291 493.363034 
L 110.681792 492.380013 
L 110.735513 490.728858 
L 110.709872 489.077702 
L 110.605669 487.426547 
L 110.599291 487.368103 
L 110.420618 485.775391 
L 110.335654 485.253317 
L 110.135473 484.124236 
L 110.072017 483.846246 
L 109.808381 482.830615 
L 109.696456 482.47308 
L 109.544744 482.059928 
L 109.281107 481.497557 
L 109.01747 481.102874 
L 108.753834 480.866905 
L 108.617383 480.821925 
L 108.490197 480.781881 
L 108.305757 480.821925 
L 108.22656 480.839061 
L 107.962923 481.035996 
L 107.699287 481.37104 
L 107.43565 481.847344 
L 107.172013 482.47308 
L 107.172013 482.47308 
L 106.908377 483.284952 
L 106.682494 484.124236 
L 106.64474 484.284096 
L 106.381103 485.556345 
L 106.340274 485.775391 
L 106.117466 487.237047 
L 106.090566 487.426547 
L 105.91328 489.077702 
L 105.85383 489.936659 
L 105.799661 490.728858 
L 105.749563 492.380013 
L 105.766672 494.031169 
L 105.85383 495.566694 
L 105.861089 495.682324 
L 106.057145 497.33348 
L 106.117466 497.672541 
L 106.381103 498.884971 
L 106.408398 498.984635 
L 106.64474 499.676586 
L 106.908377 500.242402 
L 107.172013 500.631173 
L 107.176933 500.635791 
z
M 106.761765 497.33348 
L 106.64474 496.844813 
L 106.434417 495.682324 
L 106.381103 495.172938 
L 106.281804 494.031169 
L 106.236793 492.380013 
L 106.277521 490.728858 
L 106.381103 489.280445 
L 106.396479 489.077702 
L 106.601139 487.426547 
L 106.64474 487.166432 
L 106.908377 485.775391 
L 106.908377 485.775391 
L 107.172013 484.801389 
L 107.399846 484.124236 
L 107.43565 484.030297 
L 107.699287 483.501045 
L 107.962923 483.141863 
L 108.22656 482.9522 
L 108.490197 482.936253 
L 108.753834 483.101985 
L 109.01747 483.460035 
L 109.281107 484.022501 
L 109.317426 484.124236 
L 109.544744 484.926686 
L 109.735238 485.775391 
L 109.808381 486.244071 
L 109.969814 487.426547 
L 110.072017 488.799714 
L 110.091573 489.077702 
L 110.117708 490.728858 
L 110.072017 491.876248 
L 110.05135 492.380013 
L 109.884342 494.031169 
L 109.808381 494.496779 
L 109.594656 495.682324 
L 109.544744 495.886647 
L 109.281107 496.839978 
L 109.118061 497.33348 
L 109.01747 497.586059 
L 108.753834 498.1252 
L 108.490197 498.528232 
L 108.22656 498.795781 
L 107.962923 498.924376 
L 107.699287 498.905657 
L 107.43565 498.725288 
L 107.172013 498.361487 
L 106.908377 497.783022 
z
" clip-path="url(#p90a96ded84)" style="fill: #4b4bfb"/>
    <path d="M 106.908377 497.783022 
L 107.172013 498.361487 
L 107.43565 498.725288 
L 107.699287 498.905657 
L 107.962923 498.924376 
L 108.22656 498.795781 
L 108.490197 498.528232 
L 108.753834 498.1252 
L 109.01747 497.586059 
L 109.118061 497.33348 
L 109.281107 496.839978 
L 109.544744 495.886647 
L 109.594656 495.682324 
L 109.808381 494.496779 
L 109.884342 494.031169 
L 110.05135 492.380013 
L 110.072017 491.876248 
L 110.117708 490.728858 
L 110.091573 489.077702 
L 110.072017 488.799714 
L 109.969814 487.426547 
L 109.808381 486.244071 
L 109.735238 485.775391 
L 109.544744 484.926686 
L 109.317426 484.124236 
L 109.281107 484.022501 
L 109.01747 483.460035 
L 108.753834 483.101985 
L 108.490197 482.936253 
L 108.22656 482.9522 
L 107.962923 483.141863 
L 107.699287 483.501045 
L 107.43565 484.030297 
L 107.399846 484.124236 
L 107.172013 484.801389 
L 106.908377 485.775391 
L 106.908377 485.775391 
L 106.64474 487.166432 
L 106.601139 487.426547 
L 106.396479 489.077702 
L 106.381103 489.280445 
L 106.277521 490.728858 
L 106.236793 492.380013 
L 106.281804 494.031169 
L 106.381103 495.172938 
L 106.434417 495.682324 
L 106.64474 496.844813 
L 106.761765 497.33348 
z
M 107.403063 495.682324 
L 107.172013 494.896897 
L 107.006924 494.031169 
L 106.908377 492.817039 
L 106.881454 492.380013 
L 106.901526 490.728858 
L 106.908377 490.643011 
L 107.050724 489.077702 
L 107.172013 488.318646 
L 107.345637 487.426547 
L 107.43565 487.094034 
L 107.699287 486.365829 
L 107.962923 485.890972 
L 108.113965 485.775391 
L 108.22656 485.705379 
L 108.490197 485.775391 
L 108.490197 485.775391 
L 108.753834 486.188003 
L 109.01747 486.955917 
L 109.129288 487.426547 
L 109.281107 488.559399 
L 109.336414 489.077702 
L 109.380601 490.728858 
L 109.295996 492.380013 
L 109.281107 492.496829 
L 109.053684 494.031169 
L 109.01747 494.185489 
L 108.753834 495.09503 
L 108.52313 495.682324 
L 108.490197 495.746066 
L 108.22656 496.068891 
L 107.962923 496.190881 
L 107.699287 496.095626 
L 107.43565 495.755752 
z
" clip-path="url(#p90a96ded84)" style="fill: #2c2cfd"/>
    <path d="M 107.43565 495.755752 
L 107.699287 496.095626 
L 107.962923 496.190881 
L 108.22656 496.068891 
L 108.490197 495.746066 
L 108.52313 495.682324 
L 108.753834 495.09503 
L 109.01747 494.185489 
L 109.053684 494.031169 
L 109.281107 492.496829 
L 109.295996 492.380013 
L 109.380601 490.728858 
L 109.336414 489.077702 
L 109.281107 488.559399 
L 109.129288 487.426547 
L 109.01747 486.955917 
L 108.753834 486.188003 
L 108.490197 485.775391 
L 108.490197 485.775391 
L 108.22656 485.705379 
L 108.113965 485.775391 
L 107.962923 485.890972 
L 107.699287 486.365829 
L 107.43565 487.094034 
L 107.345637 487.426547 
L 107.172013 488.318646 
L 107.050724 489.077702 
L 106.908377 490.643011 
L 106.901526 490.728858 
L 106.881454 492.380013 
L 106.908377 492.817039 
L 107.006924 494.031169 
L 107.172013 494.896897 
L 107.403063 495.682324 
z
" clip-path="url(#p90a96ded84)" style="fill: #0e0efe"/>
   </g>
   <g id="QuadContourSet_2">
    <path d="M 90.114434 545.141465 
L 99.11424 549.935186 
L 108.114047 548.479514 
L 113.831452 544.438911 
L 117.113853 542.570965 
L 123.710481 537.059861 
L 126.11366 534.401403 
L 132.026424 529.68081 
L 135.113466 526.443376 
L 141.404529 522.30176 
L 144.113273 520.377815 
L 153.113079 515.537883 
L 154.29417 514.922709 
L 162.112886 510.954482 
L 168.141415 507.543659 
L 171.112692 505.651834 
L 180.112499 500.16722 
L 180.117656 500.164608 
L 189.112306 494.629974 
L 193.036302 492.785557 
L 198.112112 489.301999 
L 206.525485 485.406507 
L 207.111919 484.890869 
L 211.81009 478.027456 
L 214.775251 470.648406 
L 216.111725 464.020457 
L 216.263879 463.269355 
L 217.622429 455.890304 
L 219.381304 448.511254 
L 221.037587 441.132203 
L 222.329082 433.753153 
L 223.359687 426.374102 
L 223.984022 418.995052 
L 223.888993 411.616001 
L 223.180567 404.23695 
L 222.276019 396.8579 
L 221.29779 389.478849 
L 219.986327 382.099799 
L 217.854423 374.720748 
L 216.111725 370.586149 
L 214.61681 367.341697 
L 210.482822 359.962647 
L 207.111919 354.642726 
L 206.497461 352.583596 
L 204.938278 345.204546 
L 203.960238 337.825495 
L 203.311219 330.446445 
L 202.854948 323.067394 
L 202.526167 315.688343 
L 202.289816 308.309293 
L 202.130197 300.930242 
L 201.967793 293.551192 
L 201.55327 286.172141 
L 200.481044 278.793091 
L 198.429216 271.41404 
L 198.112112 270.431266 
L 196.545854 264.034989 
L 195.117133 256.655939 
L 193.760846 249.276888 
L 191.820102 241.897838 
L 189.112306 235.201445 
L 188.936813 234.518787 
L 187.051196 227.139736 
L 185.574439 219.760686 
L 184.609427 212.381635 
L 183.983495 205.002585 
L 183.375183 197.623534 
L 182.405271 190.244484 
L 180.784858 182.865433 
L 180.112499 180.446759 
L 179.067053 175.486382 
L 177.67452 168.107332 
L 176.736327 160.728281 
L 176.130992 153.349231 
L 175.514911 145.97018 
L 174.62148 138.591129 
L 173.42924 131.212079 
L 172.182246 123.833028 
L 171.308754 116.453978 
L 171.112692 109.074927 
L 171.112692 109.074927 
L 171.112692 109.074927 
L 171.376225 101.695877 
L 171.509376 94.316826 
L 171.112692 89.286076 
L 170.839483 86.937775 
L 166.975843 79.558725 
L 162.112886 75.836146 
L 153.113079 75.911729 
L 146.980963 79.558725 
L 144.113273 81.022634 
L 135.113466 83.777171 
L 126.11366 82.330712 
L 117.113853 82.170663 
L 108.321459 86.937775 
L 108.114047 87.021171 
L 103.50575 94.316826 
L 99.532715 101.695877 
L 99.11424 102.499342 
L 96.628445 109.074927 
L 94.516416 116.453978 
L 92.946278 123.833028 
L 91.7835 131.212079 
L 90.932157 138.591129 
L 90.301226 145.97018 
L 90.114434 148.497343 
L 89.43125 153.349231 
L 88.430695 160.728281 
L 87.471961 168.107332 
L 86.602471 175.486382 
L 85.876723 182.865433 
L 85.314018 190.244484 
L 84.899444 197.623534 
L 84.604268 205.002585 
L 84.403783 212.381635 
L 84.281036 219.760686 
L 84.217573 227.139736 
L 84.183571 234.518787 
L 84.141917 241.897838 
L 84.06881 249.276888 
L 83.971296 256.655939 
L 83.88016 264.034989 
L 83.825866 271.41404 
L 83.820787 278.793091 
L 83.854564 286.172141 
L 83.896455 293.551192 
L 83.904623 300.930242 
L 83.84497 308.309293 
L 83.707398 315.688343 
L 83.504798 323.067394 
L 83.260755 330.446445 
L 82.998854 337.825495 
L 82.73631 345.204546 
L 82.481928 352.583596 
L 82.239472 359.962647 
L 82.012874 367.341697 
L 81.807207 374.720748 
L 81.625013 382.099799 
L 81.463338 389.478849 
L 81.315468 396.8579 
L 81.176176 404.23695 
L 81.114627 407.550537 
L 80.571296 411.616001 
L 79.6744 418.995052 
L 78.934879 426.374102 
L 78.335457 433.753153 
L 77.83551 441.132203 
L 77.387327 448.511254 
L 76.945549 455.890304 
L 76.473548 463.269355 
L 75.960422 470.648406 
L 75.443147 478.027456 
L 75.00023 485.406507 
L 74.714878 492.785557 
L 74.658242 500.164608 
L 74.922038 507.543659 
L 75.701448 514.922709 
L 77.477944 522.30176 
L 81.114627 529.226317 
L 81.183241 529.68081 
L 83.101739 537.059861 
L 89.389602 544.438911 
z
M 90.473138 529.68081 
L 90.114434 529.150466 
L 85.631108 522.30176 
L 83.547343 514.922709 
L 82.672205 507.543659 
L 82.349387 500.164608 
L 82.33003 492.785557 
L 82.517875 485.406507 
L 82.868758 478.027456 
L 83.337694 470.648406 
L 83.858408 463.269355 
L 84.365934 455.890304 
L 84.834042 448.511254 
L 85.27932 441.132203 
L 85.736843 433.753153 
L 86.239555 426.374102 
L 86.810822 418.995052 
L 87.46474 411.616001 
L 88.209371 404.23695 
L 89.051306 396.8579 
L 90.002277 389.478849 
L 90.114434 388.641785 
L 90.370764 382.099799 
L 90.693316 374.720748 
L 91.059343 367.341697 
L 91.470262 359.962647 
L 91.922133 352.583596 
L 92.410113 345.204546 
L 92.931756 337.825495 
L 93.483665 330.446445 
L 94.053294 323.067394 
L 94.614527 315.688343 
L 95.13256 308.309293 
L 95.575563 300.930242 
L 95.928184 293.551192 
L 96.202158 286.172141 
L 96.436532 278.793091 
L 96.684549 271.41404 
L 96.993828 264.034989 
L 97.38623 256.655939 
L 97.843813 249.276888 
L 98.315968 241.897838 
L 98.757465 234.518787 
L 99.11424 228.152013 
L 99.16787 227.139736 
L 99.606953 219.760686 
L 100.228679 212.381635 
L 101.142665 205.002585 
L 102.443262 197.623534 
L 104.190132 190.244484 
L 106.390588 182.865433 
L 108.114047 177.854496 
L 117.113853 177.119652 
L 121.265421 182.865433 
L 125.721366 190.244484 
L 126.11366 190.978631 
L 128.626296 197.623534 
L 130.653772 205.002585 
L 132.084686 212.381635 
L 133.242266 219.760686 
L 134.446013 227.139736 
L 135.113466 230.53173 
L 136.315564 234.518787 
L 138.486153 241.897838 
L 140.14456 249.276888 
L 141.35456 256.655939 
L 142.346434 264.034989 
L 143.269512 271.41404 
L 144.113273 278.618427 
L 144.152191 278.793091 
L 145.713352 286.172141 
L 147.091864 293.551192 
L 148.389027 300.930242 
L 149.596716 308.309293 
L 150.614746 315.688343 
L 151.389322 323.067394 
L 151.963316 330.446445 
L 152.413225 337.825495 
L 152.787241 345.204546 
L 153.113079 352.583596 
L 153.113079 352.583596 
L 153.751884 359.962647 
L 154.565635 367.341697 
L 155.596639 374.720748 
L 156.68679 382.099799 
L 157.573065 389.478849 
L 158.07759 396.8579 
L 158.17385 404.23695 
L 157.935821 411.616001 
L 157.470712 418.995052 
L 156.872059 426.374102 
L 156.198229 433.753153 
L 155.476724 441.132203 
L 154.718383 448.511254 
L 153.903268 455.890304 
L 153.113079 461.810258 
L 153.023378 463.269355 
L 152.345542 470.648406 
L 151.089781 478.027456 
L 148.635939 485.406507 
L 144.113273 492.391029 
L 144.008257 492.785557 
L 140.840571 500.164608 
L 135.113466 506.649581 
L 134.810093 507.543659 
L 130.947783 514.922709 
L 126.11366 519.825438 
L 124.693257 522.30176 
L 117.182913 529.68081 
L 117.113853 529.742704 
L 108.114047 536.35697 
L 99.11424 536.89158 
z
" clip-path="url(#p90a96ded84)" style="fill: #e8f2e8; fill-opacity: 0.5"/>
    <path d="M 99.11424 536.89158 
L 108.114047 536.35697 
L 117.113853 529.742704 
L 117.182913 529.68081 
L 124.693257 522.30176 
L 126.11366 519.825438 
L 130.947783 514.922709 
L 134.810093 507.543659 
L 135.113466 506.649581 
L 140.840571 500.164608 
L 144.008257 492.785557 
L 144.113273 492.391029 
L 148.635939 485.406507 
L 151.089781 478.027456 
L 152.345542 470.648406 
L 153.023378 463.269355 
L 153.113079 461.810258 
L 153.903268 455.890304 
L 154.718383 448.511254 
L 155.476724 441.132203 
L 156.198229 433.753153 
L 156.872059 426.374102 
L 157.470712 418.995052 
L 157.935821 411.616001 
L 158.17385 404.23695 
L 158.07759 396.8579 
L 157.573065 389.478849 
L 156.68679 382.099799 
L 155.596639 374.720748 
L 154.565635 367.341697 
L 153.751884 359.962647 
L 153.113079 352.583596 
L 153.113079 352.583596 
L 152.787241 345.204546 
L 152.413225 337.825495 
L 151.963316 330.446445 
L 151.389322 323.067394 
L 150.614746 315.688343 
L 149.596716 308.309293 
L 148.389027 300.930242 
L 147.091864 293.551192 
L 145.713352 286.172141 
L 144.152191 278.793091 
L 144.113273 278.618427 
L 143.269512 271.41404 
L 142.346434 264.034989 
L 141.35456 256.655939 
L 140.14456 249.276888 
L 138.486153 241.897838 
L 136.315564 234.518787 
L 135.113466 230.53173 
L 134.446013 227.139736 
L 133.242266 219.760686 
L 132.084686 212.381635 
L 130.653772 205.002585 
L 128.626296 197.623534 
L 126.11366 190.978631 
L 125.721366 190.244484 
L 121.265421 182.865433 
L 117.113853 177.119652 
L 108.114047 177.854496 
L 106.390588 182.865433 
L 104.190132 190.244484 
L 102.443262 197.623534 
L 101.142665 205.002585 
L 100.228679 212.381635 
L 99.606953 219.760686 
L 99.16787 227.139736 
L 99.11424 228.152013 
L 98.757465 234.518787 
L 98.315968 241.897838 
L 97.843813 249.276888 
L 97.38623 256.655939 
L 96.993828 264.034989 
L 96.684549 271.41404 
L 96.436532 278.793091 
L 96.202158 286.172141 
L 95.928184 293.551192 
L 95.575563 300.930242 
L 95.13256 308.309293 
L 94.614527 315.688343 
L 94.053294 323.067394 
L 93.483665 330.446445 
L 92.931756 337.825495 
L 92.410113 345.204546 
L 91.922133 352.583596 
L 91.470262 359.962647 
L 91.059343 367.341697 
L 90.693316 374.720748 
L 90.370764 382.099799 
L 90.114434 388.641785 
L 90.002277 389.478849 
L 89.051306 396.8579 
L 88.209371 404.23695 
L 87.46474 411.616001 
L 86.810822 418.995052 
L 86.239555 426.374102 
L 85.736843 433.753153 
L 85.27932 441.132203 
L 84.834042 448.511254 
L 84.365934 455.890304 
L 83.858408 463.269355 
L 83.337694 470.648406 
L 82.868758 478.027456 
L 82.517875 485.406507 
L 82.33003 492.785557 
L 82.349387 500.164608 
L 82.672205 507.543659 
L 83.547343 514.922709 
L 85.631108 522.30176 
L 90.114434 529.150466 
L 90.473138 529.68081 
z
M 91.917839 522.30176 
L 90.114434 517.529503 
L 88.786684 514.922709 
L 86.525834 507.543659 
L 85.634356 500.164608 
L 85.51537 492.785557 
L 85.939659 485.406507 
L 86.800713 478.027456 
L 87.981578 470.648406 
L 89.303014 463.269355 
L 90.114434 458.379271 
L 90.242579 455.890304 
L 90.572588 448.511254 
L 90.891071 441.132203 
L 91.213144 433.753153 
L 91.556337 426.374102 
L 91.932168 418.995052 
L 92.345439 411.616001 
L 92.798757 404.23695 
L 93.298066 396.8579 
L 93.855683 389.478849 
L 94.490535 382.099799 
L 95.226115 374.720748 
L 96.084219 367.341697 
L 97.074347 359.962647 
L 98.187048 352.583596 
L 99.11424 346.810766 
L 99.288499 345.204546 
L 100.072956 337.825495 
L 100.903545 330.446445 
L 101.77484 323.067394 
L 102.672464 315.688343 
L 103.578337 308.309293 
L 104.474609 300.930242 
L 105.345976 293.551192 
L 106.188014 286.172141 
L 107.019284 278.793091 
L 107.882691 271.41404 
L 108.114047 269.520494 
L 110.11145 264.034989 
L 113.67859 256.655939 
L 117.113853 251.147768 
L 119.471094 256.655939 
L 122.657537 264.034989 
L 125.778938 271.41404 
L 126.11366 272.194601 
L 127.728849 278.793091 
L 129.358909 286.172141 
L 130.801607 293.551192 
L 132.085026 300.930242 
L 133.267645 308.309293 
L 134.366437 315.688343 
L 135.113466 321.32426 
L 135.428364 323.067394 
L 136.5918 330.446445 
L 137.530878 337.825495 
L 138.309152 345.204546 
L 138.962963 352.583596 
L 139.505951 359.962647 
L 139.963774 367.341697 
L 140.384 374.720748 
L 140.813 382.099799 
L 141.262207 389.478849 
L 141.692407 396.8579 
L 142.037943 404.23695 
L 142.253164 411.616001 
L 142.334654 418.995052 
L 142.308048 426.374102 
L 142.206704 433.753153 
L 142.060224 441.132203 
L 141.886912 448.511254 
L 141.677933 455.890304 
L 141.372149 463.269355 
L 140.82807 470.648406 
L 139.782063 478.027456 
L 137.744382 485.406507 
L 135.113466 490.682228 
L 134.785332 492.785557 
L 132.916716 500.164608 
L 128.927735 507.543659 
L 126.11366 510.876873 
L 124.286303 514.922709 
L 117.986908 522.30176 
L 117.113853 523.154793 
L 108.114047 529.632953 
L 99.11424 529.68081 
z
" clip-path="url(#p90a96ded84)" style="fill: #e0eedf; fill-opacity: 0.5"/>
    <path d="M 99.11424 529.68081 
L 108.114047 529.632953 
L 117.113853 523.154793 
L 117.986908 522.30176 
L 124.286303 514.922709 
L 126.11366 510.876873 
L 128.927735 507.543659 
L 132.916716 500.164608 
L 134.785332 492.785557 
L 135.113466 490.682228 
L 137.744382 485.406507 
L 139.782063 478.027456 
L 140.82807 470.648406 
L 141.372149 463.269355 
L 141.677933 455.890304 
L 141.886912 448.511254 
L 142.060224 441.132203 
L 142.206704 433.753153 
L 142.308048 426.374102 
L 142.334654 418.995052 
L 142.253164 411.616001 
L 142.037943 404.23695 
L 141.692407 396.8579 
L 141.262207 389.478849 
L 140.813 382.099799 
L 140.384 374.720748 
L 139.963774 367.341697 
L 139.505951 359.962647 
L 138.962963 352.583596 
L 138.309152 345.204546 
L 137.530878 337.825495 
L 136.5918 330.446445 
L 135.428364 323.067394 
L 135.113466 321.32426 
L 134.366437 315.688343 
L 133.267645 308.309293 
L 132.085026 300.930242 
L 130.801607 293.551192 
L 129.358909 286.172141 
L 127.728849 278.793091 
L 126.11366 272.194601 
L 125.778938 271.41404 
L 122.657537 264.034989 
L 119.471094 256.655939 
L 117.113853 251.147768 
L 113.67859 256.655939 
L 110.11145 264.034989 
L 108.114047 269.520494 
L 107.882691 271.41404 
L 107.019284 278.793091 
L 106.188014 286.172141 
L 105.345976 293.551192 
L 104.474609 300.930242 
L 103.578337 308.309293 
L 102.672464 315.688343 
L 101.77484 323.067394 
L 100.903545 330.446445 
L 100.072956 337.825495 
L 99.288499 345.204546 
L 99.11424 346.810766 
L 98.187048 352.583596 
L 97.074347 359.962647 
L 96.084219 367.341697 
L 95.226115 374.720748 
L 94.490535 382.099799 
L 93.855683 389.478849 
L 93.298066 396.8579 
L 92.798757 404.23695 
L 92.345439 411.616001 
L 91.932168 418.995052 
L 91.556337 426.374102 
L 91.213144 433.753153 
L 90.891071 441.132203 
L 90.572588 448.511254 
L 90.242579 455.890304 
L 90.114434 458.379271 
L 89.303014 463.269355 
L 87.981578 470.648406 
L 86.800713 478.027456 
L 85.939659 485.406507 
L 85.51537 492.785557 
L 85.634356 500.164608 
L 86.525834 507.543659 
L 88.786684 514.922709 
L 90.114434 517.529503 
L 91.917839 522.30176 
z
M 96.660449 522.30176 
L 92.147643 514.922709 
L 90.506292 507.543659 
L 90.114434 502.61676 
L 89.642208 500.164608 
L 89.401668 492.785557 
L 90.114434 485.406507 
L 90.114434 485.406507 
L 90.496998 478.027456 
L 91.02289 470.648406 
L 91.648012 463.269355 
L 92.30369 455.890304 
L 92.929551 448.511254 
L 93.512263 441.132203 
L 94.079185 433.753153 
L 94.665706 426.374102 
L 95.294576 418.995052 
L 95.975668 411.616001 
L 96.717088 404.23695 
L 97.535229 396.8579 
L 98.456853 389.478849 
L 99.11424 384.750786 
L 99.380299 382.099799 
L 100.17424 374.720748 
L 101.072495 367.341697 
L 102.086685 359.962647 
L 103.215881 352.583596 
L 104.451534 345.204546 
L 105.784878 337.825495 
L 107.211024 330.446445 
L 108.114047 325.879779 
L 109.430097 323.067394 
L 112.681867 315.688343 
L 115.891876 308.309293 
L 117.113853 305.464051 
L 118.475269 308.309293 
L 121.78192 315.688343 
L 124.69699 323.067394 
L 126.11366 326.97794 
L 126.897072 330.446445 
L 128.421425 337.825495 
L 129.694416 345.204546 
L 130.734991 352.583596 
L 131.561387 359.962647 
L 132.19888 367.341697 
L 132.692897 374.720748 
L 133.103686 382.099799 
L 133.485943 389.478849 
L 133.863758 396.8579 
L 134.218775 404.23695 
L 134.5105 411.616001 
L 134.714393 418.995052 
L 134.838079 426.374102 
L 134.907587 433.753153 
L 134.947429 441.132203 
L 134.967897 448.511254 
L 134.95701 455.890304 
L 134.877474 463.269355 
L 134.668216 470.648406 
L 134.234781 478.027456 
L 133.405387 485.406507 
L 131.817893 492.785557 
L 128.634796 500.164608 
L 126.11366 503.795223 
L 124.811166 507.543659 
L 120.446805 514.922709 
L 117.113853 518.55939 
L 112.482367 522.30176 
L 108.114047 525.6541 
L 99.11424 524.81783 
z
" clip-path="url(#p90a96ded84)" style="fill: #d4e8d4; fill-opacity: 0.5"/>
    <path d="M 99.11424 524.81783 
L 108.114047 525.6541 
L 112.482367 522.30176 
L 117.113853 518.55939 
L 120.446805 514.922709 
L 124.811166 507.543659 
L 126.11366 503.795223 
L 128.634796 500.164608 
L 131.817893 492.785557 
L 133.405387 485.406507 
L 134.234781 478.027456 
L 134.668216 470.648406 
L 134.877474 463.269355 
L 134.95701 455.890304 
L 134.967897 448.511254 
L 134.947429 441.132203 
L 134.907587 433.753153 
L 134.838079 426.374102 
L 134.714393 418.995052 
L 134.5105 411.616001 
L 134.218775 404.23695 
L 133.863758 396.8579 
L 133.485943 389.478849 
L 133.103686 382.099799 
L 132.692897 374.720748 
L 132.19888 367.341697 
L 131.561387 359.962647 
L 130.734991 352.583596 
L 129.694416 345.204546 
L 128.421425 337.825495 
L 126.897072 330.446445 
L 126.11366 326.97794 
L 124.69699 323.067394 
L 121.78192 315.688343 
L 118.475269 308.309293 
L 117.113853 305.464051 
L 115.891876 308.309293 
L 112.681867 315.688343 
L 109.430097 323.067394 
L 108.114047 325.879779 
L 107.211024 330.446445 
L 105.784878 337.825495 
L 104.451534 345.204546 
L 103.215881 352.583596 
L 102.086685 359.962647 
L 101.072495 367.341697 
L 100.17424 374.720748 
L 99.380299 382.099799 
L 99.11424 384.750786 
L 98.456853 389.478849 
L 97.535229 396.8579 
L 96.717088 404.23695 
L 95.975668 411.616001 
L 95.294576 418.995052 
L 94.665706 426.374102 
L 94.079185 433.753153 
L 93.512263 441.132203 
L 92.929551 448.511254 
L 92.30369 455.890304 
L 91.648012 463.269355 
L 91.02289 470.648406 
L 90.496998 478.027456 
L 90.114434 485.406507 
L 90.114434 485.406507 
L 89.401668 492.785557 
L 89.642208 500.164608 
L 90.114434 502.61676 
L 90.506292 507.543659 
L 92.147643 514.922709 
L 96.660449 522.30176 
z
M 96.65602 514.922709 
L 93.414239 507.543659 
L 92.177224 500.164608 
L 91.863056 492.785557 
L 92.074928 485.406507 
L 92.670355 478.027456 
L 93.58236 470.648406 
L 94.717093 463.269355 
L 95.924646 455.890304 
L 97.070258 448.511254 
L 98.117168 441.132203 
L 99.11424 433.753153 
L 99.11424 433.753153 
L 99.865593 426.374102 
L 100.645919 418.995052 
L 101.458504 411.616001 
L 102.302087 404.23695 
L 103.187313 396.8579 
L 104.143984 389.478849 
L 105.215045 382.099799 
L 106.445598 374.720748 
L 107.874682 367.341697 
L 108.114047 366.189285 
L 112.168082 359.962647 
L 116.816841 352.583596 
L 117.113853 352.09433 
L 117.314409 352.583596 
L 120.02842 359.962647 
L 122.048489 367.341697 
L 123.498231 374.720748 
L 124.535162 382.099799 
L 125.327266 389.478849 
L 126.013535 396.8579 
L 126.11366 397.923191 
L 126.734837 404.23695 
L 127.446054 411.616001 
L 128.083312 418.995052 
L 128.62792 426.374102 
L 129.111306 433.753153 
L 129.587391 441.132203 
L 130.084866 448.511254 
L 130.562472 455.890304 
L 130.902253 463.269355 
L 130.943535 470.648406 
L 130.493739 478.027456 
L 129.252903 485.406507 
L 126.6047 492.785557 
L 126.11366 493.701244 
L 124.461308 500.164608 
L 121.046989 507.543659 
L 117.113853 512.515569 
L 114.525375 514.922709 
L 108.114047 520.136358 
L 99.11424 518.139564 
z
" clip-path="url(#p90a96ded84)" style="fill: #c4e0c4; fill-opacity: 0.5"/>
    <path d="M 99.11424 518.139564 
L 108.114047 520.136358 
L 114.525375 514.922709 
L 117.113853 512.515569 
L 121.046989 507.543659 
L 124.461308 500.164608 
L 126.11366 493.701244 
L 126.6047 492.785557 
L 129.252903 485.406507 
L 130.493739 478.027456 
L 130.943535 470.648406 
L 130.902253 463.269355 
L 130.562472 455.890304 
L 130.084866 448.511254 
L 129.587391 441.132203 
L 129.111306 433.753153 
L 128.62792 426.374102 
L 128.083312 418.995052 
L 127.446054 411.616001 
L 126.734837 404.23695 
L 126.11366 397.923191 
L 126.013535 396.8579 
L 125.327266 389.478849 
L 124.535162 382.099799 
L 123.498231 374.720748 
L 122.048489 367.341697 
L 120.02842 359.962647 
L 117.314409 352.583596 
L 117.113853 352.09433 
L 116.816841 352.583596 
L 112.168082 359.962647 
L 108.114047 366.189285 
L 107.874682 367.341697 
L 106.445598 374.720748 
L 105.215045 382.099799 
L 104.143984 389.478849 
L 103.187313 396.8579 
L 102.302087 404.23695 
L 101.458504 411.616001 
L 100.645919 418.995052 
L 99.865593 426.374102 
L 99.11424 433.753153 
L 99.11424 433.753153 
L 98.117168 441.132203 
L 97.070258 448.511254 
L 95.924646 455.890304 
L 94.717093 463.269355 
L 93.58236 470.648406 
L 92.670355 478.027456 
L 92.074928 485.406507 
L 91.863056 492.785557 
L 92.177224 500.164608 
L 93.414239 507.543659 
L 96.65602 514.922709 
z
M 104.29926 514.922709 
L 99.11424 512.796184 
L 96.185527 507.543659 
L 94.284397 500.164608 
L 93.723754 492.785557 
L 93.943289 485.406507 
L 94.741574 478.027456 
L 96.021548 470.648406 
L 97.641942 463.269355 
L 99.11424 456.854839 
L 99.305306 455.890304 
L 100.519222 448.511254 
L 101.639303 441.132203 
L 102.689464 433.753153 
L 103.723 426.374102 
L 104.776659 418.995052 
L 105.857418 411.616001 
L 106.963328 404.23695 
L 108.114047 396.8579 
L 108.114047 396.8579 
L 114.272865 389.478849 
L 117.113853 385.385677 
L 117.929807 389.478849 
L 119.200013 396.8579 
L 120.356848 404.23695 
L 121.452882 411.616001 
L 122.460283 418.995052 
L 123.347963 426.374102 
L 124.137936 433.753153 
L 124.889584 441.132203 
L 125.629419 448.511254 
L 126.11366 453.690652 
L 126.374457 455.890304 
L 127.113848 463.269355 
L 127.393895 470.648406 
L 126.928508 478.027456 
L 126.11366 481.901983 
L 125.772903 485.406507 
L 124.459714 492.785557 
L 122.092813 500.164608 
L 117.459711 507.543659 
L 117.113853 507.98086 
L 109.649052 514.922709 
L 108.114047 516.170965 
z
" clip-path="url(#p90a96ded84)" style="fill: #aed5ae; fill-opacity: 0.5"/>
    <path d="M 108.114047 516.170965 
L 109.649052 514.922709 
L 117.113853 507.98086 
L 117.459711 507.543659 
L 122.092813 500.164608 
L 124.459714 492.785557 
L 125.772903 485.406507 
L 126.11366 481.901983 
L 126.928508 478.027456 
L 127.393895 470.648406 
L 127.113848 463.269355 
L 126.374457 455.890304 
L 126.11366 453.690652 
L 125.629419 448.511254 
L 124.889584 441.132203 
L 124.137936 433.753153 
L 123.347963 426.374102 
L 122.460283 418.995052 
L 121.452882 411.616001 
L 120.356848 404.23695 
L 119.200013 396.8579 
L 117.929807 389.478849 
L 117.113853 385.385677 
L 114.272865 389.478849 
L 108.114047 396.8579 
L 108.114047 396.8579 
L 106.963328 404.23695 
L 105.857418 411.616001 
L 104.776659 418.995052 
L 103.723 426.374102 
L 102.689464 433.753153 
L 101.639303 441.132203 
L 100.519222 448.511254 
L 99.305306 455.890304 
L 99.11424 456.854839 
L 97.641942 463.269355 
L 96.021548 470.648406 
L 94.741574 478.027456 
L 93.943289 485.406507 
L 93.723754 492.785557 
L 94.284397 500.164608 
L 96.185527 507.543659 
L 99.11424 512.796184 
L 104.29926 514.922709 
z
M 99.533854 507.543659 
L 99.11424 507.056602 
L 96.683079 500.164608 
L 95.841863 492.785557 
L 96.070122 485.406507 
L 97.099328 478.027456 
L 98.798176 470.648406 
L 99.11424 469.397776 
L 100.477686 463.269355 
L 102.178785 455.890304 
L 103.837188 448.511254 
L 105.358751 441.132203 
L 106.759288 433.753153 
L 108.114047 426.374102 
L 108.114047 426.374102 
L 117.113853 422.33876 
L 117.874291 426.374102 
L 119.220156 433.753153 
L 120.534639 441.132203 
L 121.870058 448.511254 
L 123.140184 455.890304 
L 124.128269 463.269355 
L 124.63847 470.648406 
L 124.582747 478.027456 
L 123.89654 485.406507 
L 122.370464 492.785557 
L 119.396658 500.164608 
L 117.113853 503.710456 
L 113.65257 507.543659 
L 108.114047 512.482895 
z
" clip-path="url(#p90a96ded84)" style="fill: #98ca98; fill-opacity: 0.5"/>
    <path d="M 108.114047 512.482895 
L 113.65257 507.543659 
L 117.113853 503.710456 
L 119.396658 500.164608 
L 122.370464 492.785557 
L 123.89654 485.406507 
L 124.582747 478.027456 
L 124.63847 470.648406 
L 124.128269 463.269355 
L 123.140184 455.890304 
L 121.870058 448.511254 
L 120.534639 441.132203 
L 119.220156 433.753153 
L 117.874291 426.374102 
L 117.113853 422.33876 
L 108.114047 426.374102 
L 108.114047 426.374102 
L 106.759288 433.753153 
L 105.358751 441.132203 
L 103.837188 448.511254 
L 102.178785 455.890304 
L 100.477686 463.269355 
L 99.11424 469.397776 
L 98.798176 470.648406 
L 97.099328 478.027456 
L 96.070122 485.406507 
L 95.841863 492.785557 
L 96.683079 500.164608 
L 99.11424 507.056602 
L 99.533854 507.543659 
z
M 107.918849 507.543659 
L 100.500081 500.164608 
L 99.11424 494.363816 
L 98.873495 492.785557 
L 99.11424 485.406507 
L 99.11424 485.406507 
L 100.232649 478.027456 
L 101.896174 470.648406 
L 103.976241 463.269355 
L 106.291573 455.890304 
L 108.114047 449.863395 
L 117.113853 450.395291 
L 118.637981 455.890304 
L 120.428521 463.269355 
L 121.547815 470.648406 
L 121.8411 478.027456 
L 121.210917 485.406507 
L 119.380137 492.785557 
L 117.113853 497.580462 
L 115.286868 500.164608 
L 108.240047 507.543659 
L 108.114047 507.656025 
z
" clip-path="url(#p90a96ded84)" style="fill: #7bbc7b; fill-opacity: 0.5"/>
    <path d="M 108.114047 507.656025 
L 108.240047 507.543659 
L 115.286868 500.164608 
L 117.113853 497.580462 
L 119.380137 492.785557 
L 121.210917 485.406507 
L 121.8411 478.027456 
L 121.547815 470.648406 
L 120.428521 463.269355 
L 118.637981 455.890304 
L 117.113853 450.395291 
L 108.114047 449.863395 
L 106.291573 455.890304 
L 103.976241 463.269355 
L 101.896174 470.648406 
L 100.232649 478.027456 
L 99.11424 485.406507 
L 99.11424 485.406507 
L 98.873495 492.785557 
L 99.11424 494.363816 
L 100.500081 500.164608 
L 107.918849 507.543659 
z
M 107.743617 500.164608 
L 103.962244 492.785557 
L 103.440821 485.406507 
L 104.467172 478.027456 
L 106.506851 470.648406 
L 108.114047 466.161828 
L 115.79981 470.648406 
L 117.113853 472.965024 
L 117.65857 478.027456 
L 117.113853 485.406507 
L 117.113853 485.406507 
L 113.669949 492.785557 
L 108.463014 500.164608 
L 108.114047 500.528897 
z
" clip-path="url(#p90a96ded84)" style="fill: #51a851; fill-opacity: 0.5"/>
    <path d="M 108.114047 500.528897 
L 108.463014 500.164608 
L 113.669949 492.785557 
L 117.113853 485.406507 
L 117.113853 485.406507 
L 117.65857 478.027456 
L 117.113853 472.965024 
L 115.79981 470.648406 
L 108.114047 466.161828 
L 106.506851 470.648406 
L 104.467172 478.027456 
L 103.440821 485.406507 
L 103.962244 492.785557 
L 107.743617 500.164608 
z
" clip-path="url(#p90a96ded84)" style="fill: #1c8e1c; fill-opacity: 0.5"/>
   </g>
   <g id="matplotlib.axis_1">
    <g id="xtick_1">
     <g id="line2d_1">
      <defs>
       <path id="mc28614efdb" d="M 0 0 
L 0 3.5 
" style="stroke: #000000; stroke-width: 0.8"/>
      </defs>
      <g>
       <use xlink:href="#mc28614efdb" x="193.117657" y="499.48" style="stroke: #000000; stroke-width: 0.8"/>
      </g>
     </g>
     <g id="text_1">
      <!-- 10 -->
      <g transform="translate(179.120157 523.196563) scale(0.22 -0.22)">
       <defs>
        <path id="DejaVuSans-31" d="M 794 531 
L 1825 531 
L 1825 4091 
L 703 3866 
L 703 4441 
L 1819 4666 
L 2450 4666 
L 2450 531 
L 3481 531 
L 3481 0 
L 794 0 
L 794 531 
z
" transform="scale(0.015625)"/>
        <path id="DejaVuSans-30" d="M 2034 4250 
Q 1547 4250 1301 3770 
Q 1056 3291 1056 2328 
Q 1056 1369 1301 889 
Q 1547 409 2034 409 
Q 2525 409 2770 889 
Q 3016 1369 3016 2328 
Q 3016 3291 2770 3770 
Q 2525 4250 2034 4250 
z
M 2034 4750 
Q 2819 4750 3233 4129 
Q 3647 3509 3647 2328 
Q 3647 1150 3233 529 
Q 2819 -91 2034 -91 
Q 1250 -91 836 529 
Q 422 1150 422 2328 
Q 422 3509 836 4129 
Q 1250 4750 2034 4750 
z
" transform="scale(0.015625)"/>
       </defs>
       <use xlink:href="#DejaVuSans-31"/>
       <use xlink:href="#DejaVuSans-30" x="63.623047"/>
      </g>
     </g>
    </g>
    <g id="xtick_2">
     <g id="line2d_2">
      <g>
       <use xlink:href="#mc28614efdb" x="302.515867" y="499.48" style="stroke: #000000; stroke-width: 0.8"/>
      </g>
     </g>
     <g id="text_2">
      <!-- 20 -->
      <g transform="translate(288.518367 523.196563) scale(0.22 -0.22)">
       <defs>
        <path id="DejaVuSans-32" d="M 1228 531 
L 3431 531 
L 3431 0 
L 469 0 
L 469 531 
Q 828 903 1448 1529 
Q 2069 2156 2228 2338 
Q 2531 2678 2651 2914 
Q 2772 3150 2772 3378 
Q 2772 3750 2511 3984 
Q 2250 4219 1831 4219 
Q 1534 4219 1204 4116 
Q 875 4013 500 3803 
L 500 4441 
Q 881 4594 1212 4672 
Q 1544 4750 1819 4750 
Q 2544 4750 2975 4387 
Q 3406 4025 3406 3419 
Q 3406 3131 3298 2873 
Q 3191 2616 2906 2266 
Q 2828 2175 2409 1742 
Q 1991 1309 1228 531 
z
" transform="scale(0.015625)"/>
       </defs>
       <use xlink:href="#DejaVuSans-32"/>
       <use xlink:href="#DejaVuSans-30" x="63.623047"/>
      </g>
     </g>
    </g>
    <g id="xtick_3">
     <g id="line2d_3">
      <g>
       <use xlink:href="#mc28614efdb" x="411.914077" y="499.48" style="stroke: #000000; stroke-width: 0.8"/>
      </g>
     </g>
     <g id="text_3">
      <!-- 30 -->
      <g transform="translate(397.916577 523.196563) scale(0.22 -0.22)">
       <defs>
        <path id="DejaVuSans-33" d="M 2597 2516 
Q 3050 2419 3304 2112 
Q 3559 1806 3559 1356 
Q 3559 666 3084 287 
Q 2609 -91 1734 -91 
Q 1441 -91 1130 -33 
Q 819 25 488 141 
L 488 750 
Q 750 597 1062 519 
Q 1375 441 1716 441 
Q 2309 441 2620 675 
Q 2931 909 2931 1356 
Q 2931 1769 2642 2001 
Q 2353 2234 1838 2234 
L 1294 2234 
L 1294 2753 
L 1863 2753 
Q 2328 2753 2575 2939 
Q 2822 3125 2822 3475 
Q 2822 3834 2567 4026 
Q 2313 4219 1838 4219 
Q 1578 4219 1281 4162 
Q 984 4106 628 3988 
L 628 4550 
Q 988 4650 1302 4700 
Q 1616 4750 1894 4750 
Q 2613 4750 3031 4423 
Q 3450 4097 3450 3541 
Q 3450 3153 3228 2886 
Q 3006 2619 2597 2516 
z
" transform="scale(0.015625)"/>
       </defs>
       <use xlink:href="#DejaVuSans-33"/>
       <use xlink:href="#DejaVuSans-30" x="63.623047"/>
      </g>
     </g>
    </g>
    <g id="xtick_4">
     <g id="line2d_4">
      <g>
       <use xlink:href="#mc28614efdb" x="521.312287" y="499.48" style="stroke: #000000; stroke-width: 0.8"/>
      </g>
     </g>
     <g id="text_4">
      <!-- 40 -->
      <g transform="translate(507.314787 523.196563) scale(0.22 -0.22)">
       <defs>
        <path id="DejaVuSans-34" d="M 2419 4116 
L 825 1625 
L 2419 1625 
L 2419 4116 
z
M 2253 4666 
L 3047 4666 
L 3047 1625 
L 3713 1625 
L 3713 1100 
L 3047 1100 
L 3047 0 
L 2419 0 
L 2419 1100 
L 313 1100 
L 313 1709 
L 2253 4666 
z
" transform="scale(0.015625)"/>
       </defs>
       <use xlink:href="#DejaVuSans-34"/>
       <use xlink:href="#DejaVuSans-30" x="63.623047"/>
      </g>
     </g>
    </g>
    <g id="xtick_5">
     <g id="line2d_5">
      <g>
       <use xlink:href="#mc28614efdb" x="630.710497" y="499.48" style="stroke: #000000; stroke-width: 0.8"/>
      </g>
     </g>
     <g id="text_5">
      <!-- 50 -->
      <g transform="translate(616.712997 523.196563) scale(0.22 -0.22)">
       <defs>
        <path id="DejaVuSans-35" d="M 691 4666 
L 3169 4666 
L 3169 4134 
L 1269 4134 
L 1269 2991 
Q 1406 3038 1543 3061 
Q 1681 3084 1819 3084 
Q 2600 3084 3056 2656 
Q 3513 2228 3513 1497 
Q 3513 744 3044 326 
Q 2575 -91 1722 -91 
Q 1428 -91 1123 -41 
Q 819 9 494 109 
L 494 744 
Q 775 591 1075 516 
Q 1375 441 1709 441 
Q 2250 441 2565 725 
Q 2881 1009 2881 1497 
Q 2881 1984 2565 2268 
Q 2250 2553 1709 2553 
Q 1456 2553 1204 2497 
Q 953 2441 691 2322 
L 691 4666 
z
" transform="scale(0.015625)"/>
       </defs>
       <use xlink:href="#DejaVuSans-35"/>
       <use xlink:href="#DejaVuSans-30" x="63.623047"/>
      </g>
     </g>
    </g>
    <g id="text_6">
     <!-- Energy Uncertainties -->
     <g transform="translate(274.662188 548.488438) scale(0.22 -0.22)">
      <defs>
       <path id="DejaVuSans-45" d="M 628 4666 
L 3578 4666 
L 3578 4134 
L 1259 4134 
L 1259 2753 
L 3481 2753 
L 3481 2222 
L 1259 2222 
L 1259 531 
L 3634 531 
L 3634 0 
L 628 0 
L 628 4666 
z
" transform="scale(0.015625)"/>
       <path id="DejaVuSans-6e" d="M 3513 2113 
L 3513 0 
L 2938 0 
L 2938 2094 
Q 2938 2591 2744 2837 
Q 2550 3084 2163 3084 
Q 1697 3084 1428 2787 
Q 1159 2491 1159 1978 
L 1159 0 
L 581 0 
L 581 3500 
L 1159 3500 
L 1159 2956 
Q 1366 3272 1645 3428 
Q 1925 3584 2291 3584 
Q 2894 3584 3203 3211 
Q 3513 2838 3513 2113 
z
" transform="scale(0.015625)"/>
       <path id="DejaVuSans-65" d="M 3597 1894 
L 3597 1613 
L 953 1613 
Q 991 1019 1311 708 
Q 1631 397 2203 397 
Q 2534 397 2845 478 
Q 3156 559 3463 722 
L 3463 178 
Q 3153 47 2828 -22 
Q 2503 -91 2169 -91 
Q 1331 -91 842 396 
Q 353 884 353 1716 
Q 353 2575 817 3079 
Q 1281 3584 2069 3584 
Q 2775 3584 3186 3129 
Q 3597 2675 3597 1894 
z
M 3022 2063 
Q 3016 2534 2758 2815 
Q 2500 3097 2075 3097 
Q 1594 3097 1305 2825 
Q 1016 2553 972 2059 
L 3022 2063 
z
" transform="scale(0.015625)"/>
       <path id="DejaVuSans-72" d="M 2631 2963 
Q 2534 3019 2420 3045 
Q 2306 3072 2169 3072 
Q 1681 3072 1420 2755 
Q 1159 2438 1159 1844 
L 1159 0 
L 581 0 
L 581 3500 
L 1159 3500 
L 1159 2956 
Q 1341 3275 1631 3429 
Q 1922 3584 2338 3584 
Q 2397 3584 2469 3576 
Q 2541 3569 2628 3553 
L 2631 2963 
z
" transform="scale(0.015625)"/>
       <path id="DejaVuSans-67" d="M 2906 1791 
Q 2906 2416 2648 2759 
Q 2391 3103 1925 3103 
Q 1463 3103 1205 2759 
Q 947 2416 947 1791 
Q 947 1169 1205 825 
Q 1463 481 1925 481 
Q 2391 481 2648 825 
Q 2906 1169 2906 1791 
z
M 3481 434 
Q 3481 -459 3084 -895 
Q 2688 -1331 1869 -1331 
Q 1566 -1331 1297 -1286 
Q 1028 -1241 775 -1147 
L 775 -588 
Q 1028 -725 1275 -790 
Q 1522 -856 1778 -856 
Q 2344 -856 2625 -561 
Q 2906 -266 2906 331 
L 2906 616 
Q 2728 306 2450 153 
Q 2172 0 1784 0 
Q 1141 0 747 490 
Q 353 981 353 1791 
Q 353 2603 747 3093 
Q 1141 3584 1784 3584 
Q 2172 3584 2450 3431 
Q 2728 3278 2906 2969 
L 2906 3500 
L 3481 3500 
L 3481 434 
z
" transform="scale(0.015625)"/>
       <path id="DejaVuSans-79" d="M 2059 -325 
Q 1816 -950 1584 -1140 
Q 1353 -1331 966 -1331 
L 506 -1331 
L 506 -850 
L 844 -850 
Q 1081 -850 1212 -737 
Q 1344 -625 1503 -206 
L 1606 56 
L 191 3500 
L 800 3500 
L 1894 763 
L 2988 3500 
L 3597 3500 
L 2059 -325 
z
" transform="scale(0.015625)"/>
       <path id="DejaVuSans-20" transform="scale(0.015625)"/>
       <path id="DejaVuSans-55" d="M 556 4666 
L 1191 4666 
L 1191 1831 
Q 1191 1081 1462 751 
Q 1734 422 2344 422 
Q 2950 422 3222 751 
Q 3494 1081 3494 1831 
L 3494 4666 
L 4128 4666 
L 4128 1753 
Q 4128 841 3676 375 
Q 3225 -91 2344 -91 
Q 1459 -91 1007 375 
Q 556 841 556 1753 
L 556 4666 
z
" transform="scale(0.015625)"/>
       <path id="DejaVuSans-63" d="M 3122 3366 
L 3122 2828 
Q 2878 2963 2633 3030 
Q 2388 3097 2138 3097 
Q 1578 3097 1268 2742 
Q 959 2388 959 1747 
Q 959 1106 1268 751 
Q 1578 397 2138 397 
Q 2388 397 2633 464 
Q 2878 531 3122 666 
L 3122 134 
Q 2881 22 2623 -34 
Q 2366 -91 2075 -91 
Q 1284 -91 818 406 
Q 353 903 353 1747 
Q 353 2603 823 3093 
Q 1294 3584 2113 3584 
Q 2378 3584 2631 3529 
Q 2884 3475 3122 3366 
z
" transform="scale(0.015625)"/>
       <path id="DejaVuSans-74" d="M 1172 4494 
L 1172 3500 
L 2356 3500 
L 2356 3053 
L 1172 3053 
L 1172 1153 
Q 1172 725 1289 603 
Q 1406 481 1766 481 
L 2356 481 
L 2356 0 
L 1766 0 
Q 1100 0 847 248 
Q 594 497 594 1153 
L 594 3053 
L 172 3053 
L 172 3500 
L 594 3500 
L 594 4494 
L 1172 4494 
z
" transform="scale(0.015625)"/>
       <path id="DejaVuSans-61" d="M 2194 1759 
Q 1497 1759 1228 1600 
Q 959 1441 959 1056 
Q 959 750 1161 570 
Q 1363 391 1709 391 
Q 2188 391 2477 730 
Q 2766 1069 2766 1631 
L 2766 1759 
L 2194 1759 
z
M 3341 1997 
L 3341 0 
L 2766 0 
L 2766 531 
Q 2569 213 2275 61 
Q 1981 -91 1556 -91 
Q 1019 -91 701 211 
Q 384 513 384 1019 
Q 384 1609 779 1909 
Q 1175 2209 1959 2209 
L 2766 2209 
L 2766 2266 
Q 2766 2663 2505 2880 
Q 2244 3097 1772 3097 
Q 1472 3097 1187 3025 
Q 903 2953 641 2809 
L 641 3341 
Q 956 3463 1253 3523 
Q 1550 3584 1831 3584 
Q 2591 3584 2966 3190 
Q 3341 2797 3341 1997 
z
" transform="scale(0.015625)"/>
       <path id="DejaVuSans-69" d="M 603 3500 
L 1178 3500 
L 1178 0 
L 603 0 
L 603 3500 
z
M 603 4863 
L 1178 4863 
L 1178 4134 
L 603 4134 
L 603 4863 
z
" transform="scale(0.015625)"/>
       <path id="DejaVuSans-73" d="M 2834 3397 
L 2834 2853 
Q 2591 2978 2328 3040 
Q 2066 3103 1784 3103 
Q 1356 3103 1142 2972 
Q 928 2841 928 2578 
Q 928 2378 1081 2264 
Q 1234 2150 1697 2047 
L 1894 2003 
Q 2506 1872 2764 1633 
Q 3022 1394 3022 966 
Q 3022 478 2636 193 
Q 2250 -91 1575 -91 
Q 1294 -91 989 -36 
Q 684 19 347 128 
L 347 722 
Q 666 556 975 473 
Q 1284 391 1588 391 
Q 1994 391 2212 530 
Q 2431 669 2431 922 
Q 2431 1156 2273 1281 
Q 2116 1406 1581 1522 
L 1381 1569 
Q 847 1681 609 1914 
Q 372 2147 372 2553 
Q 372 3047 722 3315 
Q 1072 3584 1716 3584 
Q 2034 3584 2315 3537 
Q 2597 3491 2834 3397 
z
" transform="scale(0.015625)"/>
      </defs>
      <use xlink:href="#DejaVuSans-45"/>
      <use xlink:href="#DejaVuSans-6e" x="63.183594"/>
      <use xlink:href="#DejaVuSans-65" x="126.5625"/>
      <use xlink:href="#DejaVuSans-72" x="188.085938"/>
      <use xlink:href="#DejaVuSans-67" x="227.449219"/>
      <use xlink:href="#DejaVuSans-79" x="290.925781"/>
      <use xlink:href="#DejaVuSans-20" x="350.105469"/>
      <use xlink:href="#DejaVuSans-55" x="381.892578"/>
      <use xlink:href="#DejaVuSans-6e" x="455.085938"/>
      <use xlink:href="#DejaVuSans-63" x="518.464844"/>
      <use xlink:href="#DejaVuSans-65" x="573.445312"/>
      <use xlink:href="#DejaVuSans-72" x="634.96875"/>
      <use xlink:href="#DejaVuSans-74" x="676.082031"/>
      <use xlink:href="#DejaVuSans-61" x="715.291016"/>
      <use xlink:href="#DejaVuSans-69" x="776.570312"/>
      <use xlink:href="#DejaVuSans-6e" x="804.353516"/>
      <use xlink:href="#DejaVuSans-74" x="867.732422"/>
      <use xlink:href="#DejaVuSans-69" x="906.941406"/>
      <use xlink:href="#DejaVuSans-65" x="934.724609"/>
      <use xlink:href="#DejaVuSans-73" x="996.248047"/>
     </g>
    </g>
   </g>
   <g id="matplotlib.axis_2">
    <g id="ytick_1">
     <g id="line2d_6">
      <defs>
       <path id="m924539d0b7" d="M 0 0 
L -3.5 0 
" style="stroke: #000000; stroke-width: 0.8"/>
      </defs>
      <g>
       <use xlink:href="#m924539d0b7" x="83.72" y="414.515177" style="stroke: #000000; stroke-width: 0.8"/>
      </g>
     </g>
     <g id="text_7">
      <!-- 10 -->
      <g transform="translate(48.725 422.873458) scale(0.22 -0.22)">
       <use xlink:href="#DejaVuSans-31"/>
       <use xlink:href="#DejaVuSans-30" x="63.623047"/>
      </g>
     </g>
    </g>
    <g id="ytick_2">
     <g id="line2d_7">
      <g>
       <use xlink:href="#m924539d0b7" x="83.72" y="329.549924" style="stroke: #000000; stroke-width: 0.8"/>
      </g>
     </g>
     <g id="text_8">
      <!-- 20 -->
      <g transform="translate(48.725 337.908206) scale(0.22 -0.22)">
       <use xlink:href="#DejaVuSans-32"/>
       <use xlink:href="#DejaVuSans-30" x="63.623047"/>
      </g>
     </g>
    </g>
    <g id="ytick_3">
     <g id="line2d_8">
      <g>
       <use xlink:href="#m924539d0b7" x="83.72" y="244.584672" style="stroke: #000000; stroke-width: 0.8"/>
      </g>
     </g>
     <g id="text_9">
      <!-- 30 -->
      <g transform="translate(48.725 252.942953) scale(0.22 -0.22)">
       <use xlink:href="#DejaVuSans-33"/>
       <use xlink:href="#DejaVuSans-30" x="63.623047"/>
      </g>
     </g>
    </g>
    <g id="ytick_4">
     <g id="line2d_9">
      <g>
       <use xlink:href="#m924539d0b7" x="83.72" y="159.619419" style="stroke: #000000; stroke-width: 0.8"/>
      </g>
     </g>
     <g id="text_10">
      <!-- 40 -->
      <g transform="translate(48.725 167.9777) scale(0.22 -0.22)">
       <use xlink:href="#DejaVuSans-34"/>
       <use xlink:href="#DejaVuSans-30" x="63.623047"/>
      </g>
     </g>
    </g>
    <g id="ytick_5">
     <g id="line2d_10">
      <g>
       <use xlink:href="#m924539d0b7" x="83.72" y="74.654167" style="stroke: #000000; stroke-width: 0.8"/>
      </g>
     </g>
     <g id="text_11">
      <!-- 50 -->
      <g transform="translate(48.725 83.012448) scale(0.22 -0.22)">
       <use xlink:href="#DejaVuSans-35"/>
       <use xlink:href="#DejaVuSans-30" x="63.623047"/>
      </g>
     </g>
    </g>
    <g id="text_12">
     <!-- Energy Errors [kJ/mol] -->
     <g transform="translate(40.149688 382.068281) rotate(-90) scale(0.22 -0.22)">
      <defs>
       <path id="DejaVuSans-6f" d="M 1959 3097 
Q 1497 3097 1228 2736 
Q 959 2375 959 1747 
Q 959 1119 1226 758 
Q 1494 397 1959 397 
Q 2419 397 2687 759 
Q 2956 1122 2956 1747 
Q 2956 2369 2687 2733 
Q 2419 3097 1959 3097 
z
M 1959 3584 
Q 2709 3584 3137 3096 
Q 3566 2609 3566 1747 
Q 3566 888 3137 398 
Q 2709 -91 1959 -91 
Q 1206 -91 779 398 
Q 353 888 353 1747 
Q 353 2609 779 3096 
Q 1206 3584 1959 3584 
z
" transform="scale(0.015625)"/>
       <path id="DejaVuSans-5b" d="M 550 4863 
L 1875 4863 
L 1875 4416 
L 1125 4416 
L 1125 -397 
L 1875 -397 
L 1875 -844 
L 550 -844 
L 550 4863 
z
" transform="scale(0.015625)"/>
       <path id="DejaVuSans-6b" d="M 581 4863 
L 1159 4863 
L 1159 1991 
L 2875 3500 
L 3609 3500 
L 1753 1863 
L 3688 0 
L 2938 0 
L 1159 1709 
L 1159 0 
L 581 0 
L 581 4863 
z
" transform="scale(0.015625)"/>
       <path id="DejaVuSans-4a" d="M 628 4666 
L 1259 4666 
L 1259 325 
Q 1259 -519 939 -900 
Q 619 -1281 -91 -1281 
L -331 -1281 
L -331 -750 
L -134 -750 
Q 284 -750 456 -515 
Q 628 -281 628 325 
L 628 4666 
z
" transform="scale(0.015625)"/>
       <path id="DejaVuSans-2f" d="M 1625 4666 
L 2156 4666 
L 531 -594 
L 0 -594 
L 1625 4666 
z
" transform="scale(0.015625)"/>
       <path id="DejaVuSans-6d" d="M 3328 2828 
Q 3544 3216 3844 3400 
Q 4144 3584 4550 3584 
Q 5097 3584 5394 3201 
Q 5691 2819 5691 2113 
L 5691 0 
L 5113 0 
L 5113 2094 
Q 5113 2597 4934 2840 
Q 4756 3084 4391 3084 
Q 3944 3084 3684 2787 
Q 3425 2491 3425 1978 
L 3425 0 
L 2847 0 
L 2847 2094 
Q 2847 2600 2669 2842 
Q 2491 3084 2119 3084 
Q 1678 3084 1418 2786 
Q 1159 2488 1159 1978 
L 1159 0 
L 581 0 
L 581 3500 
L 1159 3500 
L 1159 2956 
Q 1356 3278 1631 3431 
Q 1906 3584 2284 3584 
Q 2666 3584 2933 3390 
Q 3200 3197 3328 2828 
z
" transform="scale(0.015625)"/>
       <path id="DejaVuSans-6c" d="M 603 4863 
L 1178 4863 
L 1178 0 
L 603 0 
L 603 4863 
z
" transform="scale(0.015625)"/>
       <path id="DejaVuSans-5d" d="M 1947 4863 
L 1947 -844 
L 622 -844 
L 622 -397 
L 1369 -397 
L 1369 4416 
L 622 4416 
L 622 4863 
L 1947 4863 
z
" transform="scale(0.015625)"/>
      </defs>
      <use xlink:href="#DejaVuSans-45"/>
      <use xlink:href="#DejaVuSans-6e" x="63.183594"/>
      <use xlink:href="#DejaVuSans-65" x="126.5625"/>
      <use xlink:href="#DejaVuSans-72" x="188.085938"/>
      <use xlink:href="#DejaVuSans-67" x="227.449219"/>
      <use xlink:href="#DejaVuSans-79" x="290.925781"/>
      <use xlink:href="#DejaVuSans-20" x="350.105469"/>
      <use xlink:href="#DejaVuSans-45" x="381.892578"/>
      <use xlink:href="#DejaVuSans-72" x="445.076172"/>
      <use xlink:href="#DejaVuSans-72" x="484.439453"/>
      <use xlink:href="#DejaVuSans-6f" x="523.302734"/>
      <use xlink:href="#DejaVuSans-72" x="584.484375"/>
      <use xlink:href="#DejaVuSans-73" x="625.597656"/>
      <use xlink:href="#DejaVuSans-20" x="677.697266"/>
      <use xlink:href="#DejaVuSans-5b" x="709.484375"/>
      <use xlink:href="#DejaVuSans-6b" x="748.498047"/>
      <use xlink:href="#DejaVuSans-4a" x="806.408203"/>
      <use xlink:href="#DejaVuSans-2f" x="835.900391"/>
      <use xlink:href="#DejaVuSans-6d" x="869.591797"/>
      <use xlink:href="#DejaVuSans-6f" x="967.003906"/>
      <use xlink:href="#DejaVuSans-6c" x="1028.185547"/>
      <use xlink:href="#DejaVuSans-5d" x="1055.96875"/>
     </g>
    </g>
   </g>
   <g id="line2d_11">
    <path d="M 83.72 499.48 
L 696.24 23.76 
" clip-path="url(#p90a96ded84)" style="fill: none; stroke-dasharray: 5.55,2.4; stroke-dashoffset: 0; stroke: #ff0000; stroke-width: 1.5"/>
   </g>
   <g id="patch_3">
    <path d="M 83.72 499.48 
L 83.72 23.76 
" style="fill: none; stroke: #000000; stroke-width: 0.8; stroke-linejoin: miter; stroke-linecap: square"/>
   </g>
   <g id="patch_4">
    <path d="M 696.24 499.48 
L 696.24 23.76 
" style="fill: none; stroke: #000000; stroke-width: 0.8; stroke-linejoin: miter; stroke-linecap: square"/>
   </g>
   <g id="patch_5">
    <path d="M 83.72 499.48 
L 696.24 499.48 
" style="fill: none; stroke: #000000; stroke-width: 0.8; stroke-linejoin: miter; stroke-linecap: square"/>
   </g>
   <g id="patch_6">
    <path d="M 83.72 23.76 
L 696.24 23.76 
" style="fill: none; stroke: #000000; stroke-width: 0.8; stroke-linejoin: miter; stroke-linecap: square"/>
   </g>
   <g id="text_13">
    <!-- Correlation in: 0.195 -->
    <g transform="translate(132.7216 46.696812) scale(0.22 -0.22)">
     <defs>
      <path id="DejaVuSans-43" d="M 4122 4306 
L 4122 3641 
Q 3803 3938 3442 4084 
Q 3081 4231 2675 4231 
Q 1875 4231 1450 3742 
Q 1025 3253 1025 2328 
Q 1025 1406 1450 917 
Q 1875 428 2675 428 
Q 3081 428 3442 575 
Q 3803 722 4122 1019 
L 4122 359 
Q 3791 134 3420 21 
Q 3050 -91 2638 -91 
Q 1578 -91 968 557 
Q 359 1206 359 2328 
Q 359 3453 968 4101 
Q 1578 4750 2638 4750 
Q 3056 4750 3426 4639 
Q 3797 4528 4122 4306 
z
" transform="scale(0.015625)"/>
      <path id="DejaVuSans-3a" d="M 750 794 
L 1409 794 
L 1409 0 
L 750 0 
L 750 794 
z
M 750 3309 
L 1409 3309 
L 1409 2516 
L 750 2516 
L 750 3309 
z
" transform="scale(0.015625)"/>
      <path id="DejaVuSans-2e" d="M 684 794 
L 1344 794 
L 1344 0 
L 684 0 
L 684 794 
z
" transform="scale(0.015625)"/>
      <path id="DejaVuSans-39" d="M 703 97 
L 703 672 
Q 941 559 1184 500 
Q 1428 441 1663 441 
Q 2288 441 2617 861 
Q 2947 1281 2994 2138 
Q 2813 1869 2534 1725 
Q 2256 1581 1919 1581 
Q 1219 1581 811 2004 
Q 403 2428 403 3163 
Q 403 3881 828 4315 
Q 1253 4750 1959 4750 
Q 2769 4750 3195 4129 
Q 3622 3509 3622 2328 
Q 3622 1225 3098 567 
Q 2575 -91 1691 -91 
Q 1453 -91 1209 -44 
Q 966 3 703 97 
z
M 1959 2075 
Q 2384 2075 2632 2365 
Q 2881 2656 2881 3163 
Q 2881 3666 2632 3958 
Q 2384 4250 1959 4250 
Q 1534 4250 1286 3958 
Q 1038 3666 1038 3163 
Q 1038 2656 1286 2365 
Q 1534 2075 1959 2075 
z
" transform="scale(0.015625)"/>
     </defs>
     <use xlink:href="#DejaVuSans-43"/>
     <use xlink:href="#DejaVuSans-6f" x="69.824219"/>
     <use xlink:href="#DejaVuSans-72" x="131.005859"/>
     <use xlink:href="#DejaVuSans-72" x="170.369141"/>
     <use xlink:href="#DejaVuSans-65" x="209.232422"/>
     <use xlink:href="#DejaVuSans-6c" x="270.755859"/>
     <use xlink:href="#DejaVuSans-61" x="298.539062"/>
     <use xlink:href="#DejaVuSans-74" x="359.818359"/>
     <use xlink:href="#DejaVuSans-69" x="399.027344"/>
     <use xlink:href="#DejaVuSans-6f" x="426.810547"/>
     <use xlink:href="#DejaVuSans-6e" x="487.992188"/>
     <use xlink:href="#DejaVuSans-20" x="551.371094"/>
     <use xlink:href="#DejaVuSans-69" x="583.158203"/>
     <use xlink:href="#DejaVuSans-6e" x="610.941406"/>
     <use xlink:href="#DejaVuSans-3a" x="674.320312"/>
     <use xlink:href="#DejaVuSans-20" x="708.011719"/>
     <use xlink:href="#DejaVuSans-30" x="739.798828"/>
     <use xlink:href="#DejaVuSans-2e" x="803.421875"/>
     <use xlink:href="#DejaVuSans-31" x="835.208984"/>
     <use xlink:href="#DejaVuSans-39" x="898.832031"/>
     <use xlink:href="#DejaVuSans-35" x="962.455078"/>
    </g>
    <!-- Correlation Out: 0.323 -->
    <g transform="translate(132.7216 71.332) scale(0.22 -0.22)">
     <defs>
      <path id="DejaVuSans-4f" d="M 2522 4238 
Q 1834 4238 1429 3725 
Q 1025 3213 1025 2328 
Q 1025 1447 1429 934 
Q 1834 422 2522 422 
Q 3209 422 3611 934 
Q 4013 1447 4013 2328 
Q 4013 3213 3611 3725 
Q 3209 4238 2522 4238 
z
M 2522 4750 
Q 3503 4750 4090 4092 
Q 4678 3434 4678 2328 
Q 4678 1225 4090 567 
Q 3503 -91 2522 -91 
Q 1538 -91 948 565 
Q 359 1222 359 2328 
Q 359 3434 948 4092 
Q 1538 4750 2522 4750 
z
" transform="scale(0.015625)"/>
      <path id="DejaVuSans-75" d="M 544 1381 
L 544 3500 
L 1119 3500 
L 1119 1403 
Q 1119 906 1312 657 
Q 1506 409 1894 409 
Q 2359 409 2629 706 
Q 2900 1003 2900 1516 
L 2900 3500 
L 3475 3500 
L 3475 0 
L 2900 0 
L 2900 538 
Q 2691 219 2414 64 
Q 2138 -91 1772 -91 
Q 1169 -91 856 284 
Q 544 659 544 1381 
z
M 1991 3584 
L 1991 3584 
z
" transform="scale(0.015625)"/>
     </defs>
     <use xlink:href="#DejaVuSans-43"/>
     <use xlink:href="#DejaVuSans-6f" x="69.824219"/>
     <use xlink:href="#DejaVuSans-72" x="131.005859"/>
     <use xlink:href="#DejaVuSans-72" x="170.369141"/>
     <use xlink:href="#DejaVuSans-65" x="209.232422"/>
     <use xlink:href="#DejaVuSans-6c" x="270.755859"/>
     <use xlink:href="#DejaVuSans-61" x="298.539062"/>
     <use xlink:href="#DejaVuSans-74" x="359.818359"/>
     <use xlink:href="#DejaVuSans-69" x="399.027344"/>
     <use xlink:href="#DejaVuSans-6f" x="426.810547"/>
     <use xlink:href="#DejaVuSans-6e" x="487.992188"/>
     <use xlink:href="#DejaVuSans-20" x="551.371094"/>
     <use xlink:href="#DejaVuSans-4f" x="583.158203"/>
     <use xlink:href="#DejaVuSans-75" x="661.869141"/>
     <use xlink:href="#DejaVuSans-74" x="725.248047"/>
     <use xlink:href="#DejaVuSans-3a" x="764.457031"/>
     <use xlink:href="#DejaVuSans-20" x="798.148438"/>
     <use xlink:href="#DejaVuSans-30" x="829.935547"/>
     <use xlink:href="#DejaVuSans-2e" x="893.558594"/>
     <use xlink:href="#DejaVuSans-33" x="925.345703"/>
     <use xlink:href="#DejaVuSans-32" x="988.96875"/>
     <use xlink:href="#DejaVuSans-33" x="1052.591797"/>
    </g>
   </g>
   <g id="legend_1">
    <g id="patch_7">
     <path d="M 407.0225 105.94375 
L 680.84 105.94375 
Q 685.24 105.94375 685.24 101.54375 
L 685.24 39.16 
Q 685.24 34.76 680.84 34.76 
L 407.0225 34.76 
Q 402.6225 34.76 402.6225 39.16 
L 402.6225 101.54375 
Q 402.6225 105.94375 407.0225 105.94375 
z
" style="fill: #ffffff; opacity: 0.8; stroke: #cccccc; stroke-linejoin: miter"/>
    </g>
    <g id="line2d_12">
     <defs>
      <path id="mc19694fff6" d="M 0 2.5 
C 0.663008 2.5 1.29895 2.236584 1.767767 1.767767 
C 2.236584 1.29895 2.5 0.663008 2.5 0 
C 2.5 -0.663008 2.236584 -1.29895 1.767767 -1.767767 
C 1.29895 -2.236584 0.663008 -2.5 0 -2.5 
C -0.663008 -2.5 -1.29895 -2.236584 -1.767767 -1.767767 
C -2.236584 -1.29895 -2.5 -0.663008 -2.5 0 
C -2.5 0.663008 -2.236584 1.29895 -1.767767 1.767767 
C -1.29895 2.236584 -0.663008 2.5 0 2.5 
z
" style="stroke: #ffffff"/>
     </defs>
     <g>
      <use xlink:href="#mc19694fff6" x="433.4225" y="52.576562" style="fill: #0000ff; stroke: #ffffff"/>
     </g>
    </g>
    <g id="text_14">
     <!-- In Distribution -->
     <g transform="translate(473.0225 60.276562) scale(0.22 -0.22)">
      <defs>
       <path id="DejaVuSans-49" d="M 628 4666 
L 1259 4666 
L 1259 0 
L 628 0 
L 628 4666 
z
" transform="scale(0.015625)"/>
       <path id="DejaVuSans-44" d="M 1259 4147 
L 1259 519 
L 2022 519 
Q 2988 519 3436 956 
Q 3884 1394 3884 2338 
Q 3884 3275 3436 3711 
Q 2988 4147 2022 4147 
L 1259 4147 
z
M 628 4666 
L 1925 4666 
Q 3281 4666 3915 4102 
Q 4550 3538 4550 2338 
Q 4550 1131 3912 565 
Q 3275 0 1925 0 
L 628 0 
L 628 4666 
z
" transform="scale(0.015625)"/>
       <path id="DejaVuSans-62" d="M 3116 1747 
Q 3116 2381 2855 2742 
Q 2594 3103 2138 3103 
Q 1681 3103 1420 2742 
Q 1159 2381 1159 1747 
Q 1159 1113 1420 752 
Q 1681 391 2138 391 
Q 2594 391 2855 752 
Q 3116 1113 3116 1747 
z
M 1159 2969 
Q 1341 3281 1617 3432 
Q 1894 3584 2278 3584 
Q 2916 3584 3314 3078 
Q 3713 2572 3713 1747 
Q 3713 922 3314 415 
Q 2916 -91 2278 -91 
Q 1894 -91 1617 61 
Q 1341 213 1159 525 
L 1159 0 
L 581 0 
L 581 4863 
L 1159 4863 
L 1159 2969 
z
" transform="scale(0.015625)"/>
      </defs>
      <use xlink:href="#DejaVuSans-49"/>
      <use xlink:href="#DejaVuSans-6e" x="29.492188"/>
      <use xlink:href="#DejaVuSans-20" x="92.871094"/>
      <use xlink:href="#DejaVuSans-44" x="124.658203"/>
      <use xlink:href="#DejaVuSans-69" x="201.660156"/>
      <use xlink:href="#DejaVuSans-73" x="229.443359"/>
      <use xlink:href="#DejaVuSans-74" x="281.542969"/>
      <use xlink:href="#DejaVuSans-72" x="320.751953"/>
      <use xlink:href="#DejaVuSans-69" x="361.865234"/>
      <use xlink:href="#DejaVuSans-62" x="389.648438"/>
      <use xlink:href="#DejaVuSans-75" x="453.125"/>
      <use xlink:href="#DejaVuSans-74" x="516.503906"/>
      <use xlink:href="#DejaVuSans-69" x="555.712891"/>
      <use xlink:href="#DejaVuSans-6f" x="583.496094"/>
      <use xlink:href="#DejaVuSans-6e" x="644.677734"/>
     </g>
    </g>
    <g id="line2d_13">
     <defs>
      <path id="m4c53e762b1" d="M 0 2.5 
C 0.663008 2.5 1.29895 2.236584 1.767767 1.767767 
C 2.236584 1.29895 2.5 0.663008 2.5 0 
C 2.5 -0.663008 2.236584 -1.29895 1.767767 -1.767767 
C 1.29895 -2.236584 0.663008 -2.5 0 -2.5 
C -0.663008 -2.5 -1.29895 -2.236584 -1.767767 -1.767767 
C -2.236584 -1.29895 -2.5 -0.663008 -2.5 0 
C -2.5 0.663008 -2.236584 1.29895 -1.767767 1.767767 
C -1.29895 2.236584 -0.663008 2.5 0 2.5 
z
" style="stroke: #ffffff"/>
     </defs>
     <g>
      <use xlink:href="#m4c53e762b1" x="433.4225" y="84.868437" style="fill: #008000; stroke: #ffffff"/>
     </g>
    </g>
    <g id="text_15">
     <!-- Out of Distribution -->
     <g transform="translate(473.0225 92.568437) scale(0.22 -0.22)">
      <defs>
       <path id="DejaVuSans-66" d="M 2375 4863 
L 2375 4384 
L 1825 4384 
Q 1516 4384 1395 4259 
Q 1275 4134 1275 3809 
L 1275 3500 
L 2222 3500 
L 2222 3053 
L 1275 3053 
L 1275 0 
L 697 0 
L 697 3053 
L 147 3053 
L 147 3500 
L 697 3500 
L 697 3744 
Q 697 4328 969 4595 
Q 1241 4863 1831 4863 
L 2375 4863 
z
" transform="scale(0.015625)"/>
      </defs>
      <use xlink:href="#DejaVuSans-4f"/>
      <use xlink:href="#DejaVuSans-75" x="78.710938"/>
      <use xlink:href="#DejaVuSans-74" x="142.089844"/>
      <use xlink:href="#DejaVuSans-20" x="181.298828"/>
      <use xlink:href="#DejaVuSans-6f" x="213.085938"/>
      <use xlink:href="#DejaVuSans-66" x="274.267578"/>
      <use xlink:href="#DejaVuSans-20" x="309.472656"/>
      <use xlink:href="#DejaVuSans-44" x="341.259766"/>
      <use xlink:href="#DejaVuSans-69" x="418.261719"/>
      <use xlink:href="#DejaVuSans-73" x="446.044922"/>
      <use xlink:href="#DejaVuSans-74" x="498.144531"/>
      <use xlink:href="#DejaVuSans-72" x="537.353516"/>
      <use xlink:href="#DejaVuSans-69" x="578.466797"/>
      <use xlink:href="#DejaVuSans-62" x="606.25"/>
      <use xlink:href="#DejaVuSans-75" x="669.726562"/>
      <use xlink:href="#DejaVuSans-74" x="733.105469"/>
      <use xlink:href="#DejaVuSans-69" x="772.314453"/>
      <use xlink:href="#DejaVuSans-6f" x="800.097656"/>
      <use xlink:href="#DejaVuSans-6e" x="861.279297"/>
     </g>
    </g>
   </g>
  </g>
 </g>
 <defs>
  <clipPath id="p90a96ded84">
   <rect x="83.72" y="23.76" width="612.52" height="475.72"/>
  </clipPath>
 </defs>
</svg>
