<?xml version="1.0" encoding="utf-8" standalone="no"?>
<!DOCTYPE svg PUBLIC "-//W3C//DTD SVG 1.1//EN"
  "http://www.w3.org/Graphics/SVG/1.1/DTD/svg11.dtd">
<svg xmlns:xlink="http://www.w3.org/1999/xlink" width="720pt" height="576pt" viewBox="0 0 720 576" xmlns="http://www.w3.org/2000/svg" version="1.1">
 <metadata>
  <rdf:RDF xmlns:dc="http://purl.org/dc/elements/1.1/" xmlns:cc="http://creativecommons.org/ns#" xmlns:rdf="http://www.w3.org/1999/02/22-rdf-syntax-ns#">
   <cc:Work>
    <dc:type rdf:resource="http://purl.org/dc/dcmitype/StillImage"/>
    <dc:date>2024-12-09T08:55:36.601228</dc:date>
    <dc:format>image/svg+xml</dc:format>
    <dc:creator>
     <cc:Agent>
      <dc:title>Matplotlib v3.8.4, https://matplotlib.org/</dc:title>
     </cc:Agent>
    </dc:creator>
   </cc:Work>
  </rdf:RDF>
 </metadata>
 <defs>
  <style type="text/css">*{stroke-linejoin: round; stroke-linecap: butt}</style>
 </defs>
 <g id="figure_1">
  <g id="patch_1">
   <path d="M 0 576 
L 720 576 
L 720 0 
L 0 0 
z
" style="fill: #ffffff"/>
  </g>
  <g id="axes_1">
   <g id="patch_2">
    <path d="M 88.13 499.48 
L 696.24 499.48 
L 696.24 23.76 
L 88.13 23.76 
z
" style="fill: #ffffff"/>
   </g>
   <g id="QuadContourSet_1">
    <path d="M -189.77855 722.345978 
L -138.079167 718.691933 
L -86.379784 701.692942 
L -81.369182 699.396911 
L -34.680401 686.277291 
L 17.018982 664.084302 
L 28.809125 658.030085 
L 68.718365 644.931599 
L 120.417748 618.115558 
L 122.858841 616.663259 
L 172.117131 596.855586 
L 207.858548 575.296432 
L 223.816514 568.396962 
L 275.515897 539.271489 
L 283.83581 533.929606 
L 327.21528 513.402957 
L 359.088541 492.56278 
L 378.914663 482.475219 
L 425.718754 451.195954 
L 430.614046 448.508241 
L 482.313428 415.803677 
L 490.256224 409.829128 
L 534.012811 382.175371 
L 551.949571 368.462302 
L 585.712194 345.536567 
L 609.440994 327.095476 
L 637.411577 306.68568 
L 663.937554 285.728649 
L 689.11096 265.987588 
L 716.036705 244.361823 
L 740.810343 223.482159 
L 765.903735 202.994997 
L 792.509726 178.895392 
L 813.317588 161.628171 
L 844.209109 131.557617 
L 857.603647 120.261345 
L 895.908492 80.193919 
L 897.424816 78.894519 
L 937.458259 37.527693 
L 947.607875 22.728718 
L 971.998947 -3.839134 
L 996.144784 -45.20596 
L 998.868673 -86.572786 
L 981.733359 -127.939612 
L 947.607875 -149.499136 
L 895.908492 -152.701403 
L 844.209109 -145.106213 
L 792.509726 -129.916303 
L 788.067063 -127.939612 
L 740.810343 -114.906585 
L 689.11096 -93.544985 
L 675.098553 -86.572786 
L 637.411577 -74.492985 
L 585.712194 -49.06309 
L 578.484536 -45.20596 
L 534.012811 -28.826604 
L 489.778463 -3.839134 
L 482.313428 -0.760215 
L 430.614046 25.676626 
L 412.836026 37.527693 
L 378.914663 55.309922 
L 344.90727 78.894519 
L 327.21528 89.099401 
L 283.962443 120.261345 
L 275.515897 125.615564 
L 227.33943 161.628171 
L 223.816514 164.079826 
L 173.588838 202.994997 
L 172.117131 204.118488 
L 121.96205 244.361823 
L 120.417748 245.654313 
L 72.164116 285.728649 
L 68.718365 288.889408 
L 24.258118 327.095476 
L 17.018982 334.373076 
L -21.320717 368.462302 
L -34.680401 383.185185 
L -63.635002 409.829128 
L -86.379784 437.320614 
L -100.941812 451.195954 
L -133.999935 492.56278 
L -138.079167 499.229559 
L -167.588981 533.929606 
L -189.77855 575.296432 
L -189.77855 575.296432 
L -219.049636 616.663259 
L -234.806196 658.030085 
L -237.073263 699.396911 
z
M -114.212949 616.663259 
L -115.797588 575.296432 
L -93.998709 533.929606 
L -86.379784 524.844972 
L -66.46078 492.56278 
L -34.680401 457.424497 
L -30.286705 451.195954 
L 5.093276 409.829128 
L 17.018982 398.252267 
L 43.32709 368.462302 
L 68.718365 345.192457 
L 86.665072 327.095476 
L 120.417748 297.834045 
L 133.871203 285.728649 
L 172.117131 254.317485 
L 184.498198 244.361823 
L 223.816514 213.740663 
L 238.755581 202.994997 
L 275.515897 175.833432 
L 297.580734 161.628171 
L 327.21528 140.851988 
L 362.943597 120.261345 
L 378.914663 109.640125 
L 430.614046 81.149614 
L 435.210306 78.894519 
L 482.313428 50.174129 
L 511.055445 37.527693 
L 534.012811 24.243127 
L 585.712194 1.497265 
L 600.572269 -3.839134 
L 637.411577 -22.025942 
L 689.11096 -38.840096 
L 718.074712 -45.20596 
L 740.810343 -52.242161 
L 792.509726 -58.640818 
L 844.209109 -45.817754 
L 844.94273 -45.20596 
L 853.05313 -3.839134 
L 844.209109 22.841826 
L 840.832188 37.527693 
L 820.168704 78.894519 
L 792.509726 112.893359 
L 787.772873 120.261345 
L 748.198003 161.628171 
L 740.810343 168.039674 
L 703.669244 202.994997 
L 689.11096 215.031844 
L 654.677417 244.361823 
L 637.411577 258.009514 
L 601.596307 285.728649 
L 585.712194 297.775917 
L 544.185318 327.095476 
L 534.012811 334.526618 
L 482.313428 368.137683 
L 481.815979 368.462302 
L 430.614046 402.999785 
L 419.133119 409.829128 
L 378.914663 436.123947 
L 351.299363 451.195954 
L 327.21528 466.543959 
L 275.515897 492.56278 
L 275.515897 492.56278 
L 223.816514 522.809551 
L 197.989448 533.929606 
L 172.117131 548.530471 
L 120.417748 570.724174 
L 107.850007 575.296432 
L 68.718365 594.674386 
L 17.018982 612.370264 
L 0.26807 616.663259 
L -34.680401 629.408467 
L -86.379784 631.786186 
z
" clip-path="url(#p94f2c54453)" style="fill: #edf4fc"/>
    <path d="M -86.379784 631.786186 
L -34.680401 629.408467 
L 0.26807 616.663259 
L 17.018982 612.370264 
L 68.718365 594.674386 
L 107.850007 575.296432 
L 120.417748 570.724174 
L 172.117131 548.530471 
L 197.989448 533.929606 
L 223.816514 522.809551 
L 275.515897 492.56278 
L 275.515897 492.56278 
L 327.21528 466.543959 
L 351.299363 451.195954 
L 378.914663 436.123947 
L 419.133119 409.829128 
L 430.614046 402.999785 
L 481.815979 368.462302 
L 482.313428 368.137683 
L 534.012811 334.526618 
L 544.185318 327.095476 
L 585.712194 297.775917 
L 601.596307 285.728649 
L 637.411577 258.009514 
L 654.677417 244.361823 
L 689.11096 215.031844 
L 703.669244 202.994997 
L 740.810343 168.039674 
L 748.198003 161.628171 
L 787.772873 120.261345 
L 792.509726 112.893359 
L 820.168704 78.894519 
L 840.832188 37.527693 
L 844.209109 22.841826 
L 853.05313 -3.839134 
L 844.94273 -45.20596 
L 844.209109 -45.817754 
L 792.509726 -58.640818 
L 740.810343 -52.242161 
L 718.074712 -45.20596 
L 689.11096 -38.840096 
L 637.411577 -22.025942 
L 600.572269 -3.839134 
L 585.712194 1.497265 
L 534.012811 24.243127 
L 511.055445 37.527693 
L 482.313428 50.174129 
L 435.210306 78.894519 
L 430.614046 81.149614 
L 378.914663 109.640125 
L 362.943597 120.261345 
L 327.21528 140.851988 
L 297.580734 161.628171 
L 275.515897 175.833432 
L 238.755581 202.994997 
L 223.816514 213.740663 
L 184.498198 244.361823 
L 172.117131 254.317485 
L 133.871203 285.728649 
L 120.417748 297.834045 
L 86.665072 327.095476 
L 68.718365 345.192457 
L 43.32709 368.462302 
L 17.018982 398.252267 
L 5.093276 409.829128 
L -30.286705 451.195954 
L -34.680401 457.424497 
L -66.46078 492.56278 
L -86.379784 524.844972 
L -93.998709 533.929606 
L -115.797588 575.296432 
L -114.212949 616.663259 
z
M -48.933938 575.296432 
L -53.362108 533.929606 
L -34.680401 504.367858 
L -29.103204 492.56278 
L 0.459513 451.195954 
L 17.018982 434.136909 
L 36.527416 409.829128 
L 68.718365 378.809674 
L 78.128635 368.462302 
L 120.417748 330.222236 
L 123.629341 327.095476 
L 172.117131 285.842699 
L 172.24907 285.728649 
L 223.816514 244.361823 
L 223.816514 244.361823 
L 275.515897 205.191158 
L 278.71794 202.994997 
L 327.21528 168.242624 
L 338.013774 161.628171 
L 378.914663 133.8783 
L 403.770389 120.261345 
L 430.614046 103.002466 
L 479.750076 78.894519 
L 482.313428 77.331555 
L 534.012811 49.555685 
L 564.22614 37.527693 
L 585.712194 26.403641 
L 637.411577 8.341158 
L 687.699924 -3.839134 
L 689.11096 -4.293594 
L 740.810343 -9.238337 
L 759.359093 -3.839134 
L 779.674377 37.527693 
L 765.006108 78.894519 
L 740.810343 112.384819 
L 736.408899 120.261345 
L 702.594614 161.628171 
L 689.11096 174.120027 
L 661.920411 202.994997 
L 637.411577 223.628625 
L 614.809789 244.361823 
L 585.712194 267.078991 
L 562.628377 285.728649 
L 534.012811 306.771061 
L 505.864519 327.095476 
L 482.313428 343.604767 
L 444.221485 368.462302 
L 430.614046 377.640993 
L 378.914663 408.891828 
L 377.302183 409.829128 
L 327.21528 441.635585 
L 308.956289 451.195954 
L 275.515897 471.540111 
L 231.15569 492.56278 
L 223.816514 496.856572 
L 172.117131 523.231438 
L 145.385995 533.929606 
L 120.417748 546.724654 
L 68.718365 566.386248 
L 37.622972 575.296432 
L 17.018982 583.167921 
L -34.680401 583.647881 
z
" clip-path="url(#p94f2c54453)" style="fill: #d8e7f5"/>
    <path d="M -34.680401 583.647881 
L 17.018982 583.167921 
L 37.622972 575.296432 
L 68.718365 566.386248 
L 120.417748 546.724654 
L 145.385995 533.929606 
L 172.117131 523.231438 
L 223.816514 496.856572 
L 231.15569 492.56278 
L 275.515897 471.540111 
L 308.956289 451.195954 
L 327.21528 441.635585 
L 377.302183 409.829128 
L 378.914663 408.891828 
L 430.614046 377.640993 
L 444.221485 368.462302 
L 482.313428 343.604767 
L 505.864519 327.095476 
L 534.012811 306.771061 
L 562.628377 285.728649 
L 585.712194 267.078991 
L 614.809789 244.361823 
L 637.411577 223.628625 
L 661.920411 202.994997 
L 689.11096 174.120027 
L 702.594614 161.628171 
L 736.408899 120.261345 
L 740.810343 112.384819 
L 765.006108 78.894519 
L 779.674377 37.527693 
L 759.359093 -3.839134 
L 740.810343 -9.238337 
L 689.11096 -4.293594 
L 687.699924 -3.839134 
L 637.411577 8.341158 
L 585.712194 26.403641 
L 564.22614 37.527693 
L 534.012811 49.555685 
L 482.313428 77.331555 
L 479.750076 78.894519 
L 430.614046 103.002466 
L 403.770389 120.261345 
L 378.914663 133.8783 
L 338.013774 161.628171 
L 327.21528 168.242624 
L 278.71794 202.994997 
L 275.515897 205.191158 
L 223.816514 244.361823 
L 223.816514 244.361823 
L 172.24907 285.728649 
L 172.117131 285.842699 
L 123.629341 327.095476 
L 120.417748 330.222236 
L 78.128635 368.462302 
L 68.718365 378.809674 
L 36.527416 409.829128 
L 17.018982 434.136909 
L 0.459513 451.195954 
L -29.103204 492.56278 
L -34.680401 504.367858 
L -53.362108 533.929606 
L -48.933938 575.296432 
z
M 10.381934 533.929606 
L 7.098978 492.56278 
L 17.018982 479.162977 
L 33.415268 451.195954 
L 68.508488 409.829128 
L 68.718365 409.626889 
L 106.154911 368.462302 
L 120.417748 355.565086 
L 149.659783 327.095476 
L 172.117131 307.989058 
L 197.869438 285.728649 
L 223.816514 264.914196 
L 250.534515 244.361823 
L 275.515897 225.434377 
L 308.232928 202.994997 
L 327.21528 189.392565 
L 372.542332 161.628171 
L 378.914663 157.30476 
L 430.614046 126.553434 
L 443.21001 120.261345 
L 482.313428 97.603923 
L 524.410463 78.894519 
L 534.012811 73.650007 
L 585.712194 54.35195 
L 637.411577 41.332463 
L 689.11096 37.527693 
L 711.582939 78.894519 
L 691.16439 120.261345 
L 689.11096 122.596237 
L 661.052368 161.628171 
L 637.411577 184.896017 
L 621.519899 202.994997 
L 585.712194 234.523423 
L 575.499664 244.361823 
L 534.012811 277.774263 
L 524.463243 285.728649 
L 482.313428 317.266448 
L 468.874118 327.095476 
L 430.614046 353.992927 
L 408.330839 368.462302 
L 378.914663 388.055239 
L 341.45606 409.829128 
L 327.21528 418.872386 
L 275.515897 447.195683 
L 267.41972 451.195954 
L 223.816514 475.54819 
L 185.409614 492.56278 
L 172.117131 499.650744 
L 120.417748 521.197126 
L 80.910846 533.929606 
L 68.718365 538.830087 
L 17.018982 538.200564 
z
" clip-path="url(#p94f2c54453)" style="fill: #bfd8ed"/>
    <path d="M 17.018982 538.200564 
L 68.718365 538.830087 
L 80.910846 533.929606 
L 120.417748 521.197126 
L 172.117131 499.650744 
L 185.409614 492.56278 
L 223.816514 475.54819 
L 267.41972 451.195954 
L 275.515897 447.195683 
L 327.21528 418.872386 
L 341.45606 409.829128 
L 378.914663 388.055239 
L 408.330839 368.462302 
L 430.614046 353.992927 
L 468.874118 327.095476 
L 482.313428 317.266448 
L 524.463243 285.728649 
L 534.012811 277.774263 
L 575.499664 244.361823 
L 585.712194 234.523423 
L 621.519899 202.994997 
L 637.411577 184.896017 
L 661.052368 161.628171 
L 689.11096 122.596237 
L 691.16439 120.261345 
L 711.582939 78.894519 
L 689.11096 37.527693 
L 637.411577 41.332463 
L 585.712194 54.35195 
L 534.012811 73.650007 
L 524.410463 78.894519 
L 482.313428 97.603923 
L 443.21001 120.261345 
L 430.614046 126.553434 
L 378.914663 157.30476 
L 372.542332 161.628171 
L 327.21528 189.392565 
L 308.232928 202.994997 
L 275.515897 225.434377 
L 250.534515 244.361823 
L 223.816514 264.914196 
L 197.869438 285.728649 
L 172.117131 307.989058 
L 149.659783 327.095476 
L 120.417748 355.565086 
L 106.154911 368.462302 
L 68.718365 409.626889 
L 68.508488 409.829128 
L 33.415268 451.195954 
L 17.018982 479.162977 
L 7.098978 492.56278 
L 10.381934 533.929606 
z
M 54.170752 492.56278 
L 60.37363 451.195954 
L 68.718365 441.365521 
L 91.170994 409.829128 
L 120.417748 379.293009 
L 129.629551 368.462302 
L 172.117131 328.647822 
L 173.674137 327.095476 
L 221.96063 285.728649 
L 223.816514 284.23988 
L 275.515897 244.444177 
L 275.627362 244.361823 
L 327.21528 207.455903 
L 334.143112 202.994997 
L 378.914663 173.309989 
L 399.582315 161.628171 
L 430.614046 142.447541 
L 475.027999 120.261345 
L 482.313428 116.039999 
L 534.012811 94.899692 
L 585.670951 78.894519 
L 585.712194 78.879469 
L 637.411577 74.75524 
L 647.347738 78.894519 
L 654.44194 120.261345 
L 637.411577 144.813387 
L 627.857099 161.628171 
L 591.467344 202.994997 
L 585.712194 208.062365 
L 548.032357 244.361823 
L 534.012811 255.652804 
L 497.905521 285.728649 
L 482.313428 297.395137 
L 441.703912 327.095476 
L 430.614046 334.891832 
L 378.914663 368.462302 
L 378.914663 368.462302 
L 327.21528 400.950206 
L 311.251774 409.829128 
L 275.515897 430.898394 
L 234.435517 451.195954 
L 223.816514 457.12663 
L 172.117131 480.417063 
L 138.88818 492.56278 
L 120.417748 500.420017 
L 68.718365 503.108952 
z
" clip-path="url(#p94f2c54453)" style="fill: #95c5df"/>
    <path d="M 68.718365 503.108952 
L 120.417748 500.420017 
L 138.88818 492.56278 
L 172.117131 480.417063 
L 223.816514 457.12663 
L 234.435517 451.195954 
L 275.515897 430.898394 
L 311.251774 409.829128 
L 327.21528 400.950206 
L 378.914663 368.462302 
L 378.914663 368.462302 
L 430.614046 334.891832 
L 441.703912 327.095476 
L 482.313428 297.395137 
L 497.905521 285.728649 
L 534.012811 255.652804 
L 548.032357 244.361823 
L 585.712194 208.062365 
L 591.467344 202.994997 
L 627.857099 161.628171 
L 637.411577 144.813387 
L 654.44194 120.261345 
L 647.347738 78.894519 
L 637.411577 74.75524 
L 585.712194 78.879469 
L 585.670951 78.894519 
L 534.012811 94.899692 
L 482.313428 116.039999 
L 475.027999 120.261345 
L 430.614046 142.447541 
L 399.582315 161.628171 
L 378.914663 173.309989 
L 334.143112 202.994997 
L 327.21528 207.455903 
L 275.627362 244.361823 
L 275.515897 244.444177 
L 223.816514 284.23988 
L 221.96063 285.728649 
L 173.674137 327.095476 
L 172.117131 328.647822 
L 129.629551 368.462302 
L 120.417748 379.293009 
L 91.170994 409.829128 
L 68.718365 441.365521 
L 60.37363 451.195954 
L 54.170752 492.56278 
z
M 77.193057 451.195954 
L 102.711549 409.829128 
L 120.417748 391.342338 
L 139.877825 368.462302 
L 172.117131 338.251327 
L 183.306473 327.095476 
L 223.816514 292.677299 
L 231.948996 285.728649 
L 275.515897 251.884706 
L 285.698047 244.361823 
L 327.21528 214.660456 
L 345.331857 202.994997 
L 378.914663 180.728494 
L 412.70725 161.628171 
L 430.614046 150.560028 
L 482.313428 125.57343 
L 497.028111 120.261345 
L 534.012811 105.529473 
L 585.712194 94.619227 
L 634.875071 120.261345 
L 612.62628 161.628171 
L 585.712194 192.189217 
L 577.493356 202.994997 
L 534.012811 244.361823 
L 534.012811 244.361823 
L 484.350235 285.728649 
L 482.313428 287.252651 
L 430.614046 325.384006 
L 428.27629 327.095476 
L 378.914663 360.552439 
L 366.426921 368.462302 
L 327.21528 393.102907 
L 297.143032 409.829128 
L 275.515897 422.580119 
L 223.816514 448.087641 
L 216.406182 451.195954 
L 172.117131 471.305 
L 120.417748 487.833696 
z
" clip-path="url(#p94f2c54453)" style="fill: #71b1d7"/>
    <path d="M 120.417748 487.833696 
L 172.117131 471.305 
L 216.406182 451.195954 
L 223.816514 448.087641 
L 275.515897 422.580119 
L 297.143032 409.829128 
L 327.21528 393.102907 
L 366.426921 368.462302 
L 378.914663 360.552439 
L 428.27629 327.095476 
L 430.614046 325.384006 
L 482.313428 287.252651 
L 484.350235 285.728649 
L 534.012811 244.361823 
L 534.012811 244.361823 
L 577.493356 202.994997 
L 585.712194 192.189217 
L 612.62628 161.628171 
L 634.875071 120.261345 
L 585.712194 94.619227 
L 534.012811 105.529473 
L 497.028111 120.261345 
L 482.313428 125.57343 
L 430.614046 150.560028 
L 412.70725 161.628171 
L 378.914663 180.728494 
L 345.331857 202.994997 
L 327.21528 214.660456 
L 285.698047 244.361823 
L 275.515897 251.884706 
L 231.948996 285.728649 
L 223.816514 292.677299 
L 183.306473 327.095476 
L 172.117131 338.251327 
L 139.877825 368.462302 
L 120.417748 391.342338 
L 102.711549 409.829128 
L 77.193057 451.195954 
z
M 149.86219 409.829128 
L 172.057514 368.462302 
L 172.117131 368.406436 
L 213.552109 327.095476 
L 223.816514 318.374624 
L 262.024342 285.728649 
L 275.515897 275.248046 
L 317.320106 244.361823 
L 327.21528 237.282831 
L 378.914663 204.352907 
L 381.488246 202.994997 
L 430.614046 178.246752 
L 469.216087 161.628171 
L 482.313428 155.824012 
L 534.012811 148.327043 
L 553.510931 161.628171 
L 536.188863 202.994997 
L 534.012811 205.065265 
L 496.392556 244.361823 
L 482.313428 256.033545 
L 447.898049 285.728649 
L 430.614046 298.556942 
L 391.632278 327.095476 
L 378.914663 335.715386 
L 327.21528 368.462302 
L 327.21528 368.462302 
L 275.515897 396.323278 
L 247.930121 409.829128 
L 223.816514 421.655038 
L 172.117131 433.215206 
z
" clip-path="url(#p94f2c54453)" style="fill: #4695c8"/>
    <path d="M 172.117131 433.215206 
L 223.816514 421.655038 
L 247.930121 409.829128 
L 275.515897 396.323278 
L 327.21528 368.462302 
L 327.21528 368.462302 
L 378.914663 335.715386 
L 391.632278 327.095476 
L 430.614046 298.556942 
L 447.898049 285.728649 
L 482.313428 256.033545 
L 496.392556 244.361823 
L 534.012811 205.065265 
L 536.188863 202.994997 
L 553.510931 161.628171 
L 534.012811 148.327043 
L 482.313428 155.824012 
L 469.216087 161.628171 
L 430.614046 178.246752 
L 381.488246 202.994997 
L 378.914663 204.352907 
L 327.21528 237.282831 
L 317.320106 244.361823 
L 275.515897 275.248046 
L 262.024342 285.728649 
L 223.816514 318.374624 
L 213.552109 327.095476 
L 172.117131 368.406436 
L 172.057514 368.462302 
L 149.86219 409.829128 
z
M 171.410343 409.829128 
L 172.117131 408.509044 
L 191.423091 368.462302 
L 223.816514 329.282314 
L 225.536413 327.095476 
L 273.279838 285.728649 
L 275.515897 283.991619 
L 327.21528 246.511709 
L 330.4276 244.361823 
L 378.914663 215.871866 
L 403.319588 202.994997 
L 430.614046 189.24479 
L 482.313428 172.166287 
L 514.570945 202.994997 
L 482.313428 244.361823 
L 482.313428 244.361823 
L 434.371013 285.728649 
L 430.614046 288.517094 
L 378.914663 326.158337 
L 377.630503 327.095476 
L 327.21528 357.722615 
L 308.890138 368.462302 
L 275.515897 386.447796 
L 227.759393 409.829128 
L 223.816514 411.762814 
L 172.117131 410.571839 
z
" clip-path="url(#p94f2c54453)" style="fill: #2373b6"/>
    <path d="M 172.117131 410.571839 
L 223.816514 411.762814 
L 227.759393 409.829128 
L 275.515897 386.447796 
L 308.890138 368.462302 
L 327.21528 357.722615 
L 377.630503 327.095476 
L 378.914663 326.158337 
L 430.614046 288.517094 
L 434.371013 285.728649 
L 482.313428 244.361823 
L 482.313428 244.361823 
L 514.570945 202.994997 
L 482.313428 172.166287 
L 430.614046 189.24479 
L 403.319588 202.994997 
L 378.914663 215.871866 
L 330.4276 244.361823 
L 327.21528 246.511709 
L 275.515897 283.991619 
L 273.279838 285.728649 
L 225.536413 327.095476 
L 223.816514 329.282314 
L 191.423091 368.462302 
L 172.117131 408.509044 
L 171.410343 409.829128 
z
M 259.149214 327.095476 
L 275.515897 312.476711 
L 305.578459 285.728649 
L 327.21528 270.406746 
L 366.131145 244.361823 
L 378.914663 236.850503 
L 430.614046 220.117758 
L 446.508234 244.361823 
L 430.614046 258.581227 
L 402.674201 285.728649 
L 378.914663 302.662245 
L 345.433833 327.095476 
L 327.21528 338.163208 
L 275.515897 368.462302 
z
" clip-path="url(#p94f2c54453)" style="fill: #0e59a2"/>
    <path d="M 275.515897 368.462302 
L 327.21528 338.163208 
L 345.433833 327.095476 
L 378.914663 302.662245 
L 402.674201 285.728649 
L 430.614046 258.581227 
L 446.508234 244.361823 
L 430.614046 220.117758 
L 378.914663 236.850503 
L 366.131145 244.361823 
L 327.21528 270.406746 
L 305.578459 285.728649 
L 275.515897 312.476711 
L 259.149214 327.095476 
z
" clip-path="url(#p94f2c54453)" style="fill: #083b7c"/>
   </g>
   <g id="matplotlib.axis_1">
    <g id="xtick_1">
     <g id="line2d_1">
      <defs>
       <path id="m5c6ec0a8a9" d="M 0 0 
L 0 3.5 
" style="stroke: #000000; stroke-width: 0.8"/>
      </defs>
      <g>
       <use xlink:href="#m5c6ec0a8a9" x="122.551855" y="499.48" style="stroke: #000000; stroke-width: 0.8"/>
      </g>
     </g>
     <g id="text_1">
      <!-- −1 -->
      <g transform="translate(106.335449 523.196563) scale(0.22 -0.22)">
       <defs>
        <path id="DejaVuSans-2212" d="M 678 2272 
L 4684 2272 
L 4684 1741 
L 678 1741 
L 678 2272 
z
" transform="scale(0.015625)"/>
        <path id="DejaVuSans-31" d="M 794 531 
L 1825 531 
L 1825 4091 
L 703 3866 
L 703 4441 
L 1819 4666 
L 2450 4666 
L 2450 531 
L 3481 531 
L 3481 0 
L 794 0 
L 794 531 
z
" transform="scale(0.015625)"/>
       </defs>
       <use xlink:href="#DejaVuSans-2212"/>
       <use xlink:href="#DejaVuSans-31" x="83.789062"/>
      </g>
     </g>
    </g>
    <g id="xtick_2">
     <g id="line2d_2">
      <g>
       <use xlink:href="#m5c6ec0a8a9" x="195.45149" y="499.48" style="stroke: #000000; stroke-width: 0.8"/>
      </g>
     </g>
     <g id="text_2">
      <!-- 0 -->
      <g transform="translate(188.45274 523.196563) scale(0.22 -0.22)">
       <defs>
        <path id="DejaVuSans-30" d="M 2034 4250 
Q 1547 4250 1301 3770 
Q 1056 3291 1056 2328 
Q 1056 1369 1301 889 
Q 1547 409 2034 409 
Q 2525 409 2770 889 
Q 3016 1369 3016 2328 
Q 3016 3291 2770 3770 
Q 2525 4250 2034 4250 
z
M 2034 4750 
Q 2819 4750 3233 4129 
Q 3647 3509 3647 2328 
Q 3647 1150 3233 529 
Q 2819 -91 2034 -91 
Q 1250 -91 836 529 
Q 422 1150 422 2328 
Q 422 3509 836 4129 
Q 1250 4750 2034 4750 
z
" transform="scale(0.015625)"/>
       </defs>
       <use xlink:href="#DejaVuSans-30"/>
      </g>
     </g>
    </g>
    <g id="xtick_3">
     <g id="line2d_3">
      <g>
       <use xlink:href="#m5c6ec0a8a9" x="268.351126" y="499.48" style="stroke: #000000; stroke-width: 0.8"/>
      </g>
     </g>
     <g id="text_3">
      <!-- 1 -->
      <g transform="translate(261.352376 523.196563) scale(0.22 -0.22)">
       <use xlink:href="#DejaVuSans-31"/>
      </g>
     </g>
    </g>
    <g id="xtick_4">
     <g id="line2d_4">
      <g>
       <use xlink:href="#m5c6ec0a8a9" x="341.250761" y="499.48" style="stroke: #000000; stroke-width: 0.8"/>
      </g>
     </g>
     <g id="text_4">
      <!-- 2 -->
      <g transform="translate(334.252011 523.196563) scale(0.22 -0.22)">
       <defs>
        <path id="DejaVuSans-32" d="M 1228 531 
L 3431 531 
L 3431 0 
L 469 0 
L 469 531 
Q 828 903 1448 1529 
Q 2069 2156 2228 2338 
Q 2531 2678 2651 2914 
Q 2772 3150 2772 3378 
Q 2772 3750 2511 3984 
Q 2250 4219 1831 4219 
Q 1534 4219 1204 4116 
Q 875 4013 500 3803 
L 500 4441 
Q 881 4594 1212 4672 
Q 1544 4750 1819 4750 
Q 2544 4750 2975 4387 
Q 3406 4025 3406 3419 
Q 3406 3131 3298 2873 
Q 3191 2616 2906 2266 
Q 2828 2175 2409 1742 
Q 1991 1309 1228 531 
z
" transform="scale(0.015625)"/>
       </defs>
       <use xlink:href="#DejaVuSans-32"/>
      </g>
     </g>
    </g>
    <g id="xtick_5">
     <g id="line2d_5">
      <g>
       <use xlink:href="#m5c6ec0a8a9" x="414.150396" y="499.48" style="stroke: #000000; stroke-width: 0.8"/>
      </g>
     </g>
     <g id="text_5">
      <!-- 3 -->
      <g transform="translate(407.151646 523.196563) scale(0.22 -0.22)">
       <defs>
        <path id="DejaVuSans-33" d="M 2597 2516 
Q 3050 2419 3304 2112 
Q 3559 1806 3559 1356 
Q 3559 666 3084 287 
Q 2609 -91 1734 -91 
Q 1441 -91 1130 -33 
Q 819 25 488 141 
L 488 750 
Q 750 597 1062 519 
Q 1375 441 1716 441 
Q 2309 441 2620 675 
Q 2931 909 2931 1356 
Q 2931 1769 2642 2001 
Q 2353 2234 1838 2234 
L 1294 2234 
L 1294 2753 
L 1863 2753 
Q 2328 2753 2575 2939 
Q 2822 3125 2822 3475 
Q 2822 3834 2567 4026 
Q 2313 4219 1838 4219 
Q 1578 4219 1281 4162 
Q 984 4106 628 3988 
L 628 4550 
Q 988 4650 1302 4700 
Q 1616 4750 1894 4750 
Q 2613 4750 3031 4423 
Q 3450 4097 3450 3541 
Q 3450 3153 3228 2886 
Q 3006 2619 2597 2516 
z
" transform="scale(0.015625)"/>
       </defs>
       <use xlink:href="#DejaVuSans-33"/>
      </g>
     </g>
    </g>
    <g id="xtick_6">
     <g id="line2d_6">
      <g>
       <use xlink:href="#m5c6ec0a8a9" x="487.050032" y="499.48" style="stroke: #000000; stroke-width: 0.8"/>
      </g>
     </g>
     <g id="text_6">
      <!-- 4 -->
      <g transform="translate(480.051282 523.196563) scale(0.22 -0.22)">
       <defs>
        <path id="DejaVuSans-34" d="M 2419 4116 
L 825 1625 
L 2419 1625 
L 2419 4116 
z
M 2253 4666 
L 3047 4666 
L 3047 1625 
L 3713 1625 
L 3713 1100 
L 3047 1100 
L 3047 0 
L 2419 0 
L 2419 1100 
L 313 1100 
L 313 1709 
L 2253 4666 
z
" transform="scale(0.015625)"/>
       </defs>
       <use xlink:href="#DejaVuSans-34"/>
      </g>
     </g>
    </g>
    <g id="xtick_7">
     <g id="line2d_7">
      <g>
       <use xlink:href="#m5c6ec0a8a9" x="559.949667" y="499.48" style="stroke: #000000; stroke-width: 0.8"/>
      </g>
     </g>
     <g id="text_7">
      <!-- 5 -->
      <g transform="translate(552.950917 523.196563) scale(0.22 -0.22)">
       <defs>
        <path id="DejaVuSans-35" d="M 691 4666 
L 3169 4666 
L 3169 4134 
L 1269 4134 
L 1269 2991 
Q 1406 3038 1543 3061 
Q 1681 3084 1819 3084 
Q 2600 3084 3056 2656 
Q 3513 2228 3513 1497 
Q 3513 744 3044 326 
Q 2575 -91 1722 -91 
Q 1428 -91 1123 -41 
Q 819 9 494 109 
L 494 744 
Q 775 591 1075 516 
Q 1375 441 1709 441 
Q 2250 441 2565 725 
Q 2881 1009 2881 1497 
Q 2881 1984 2565 2268 
Q 2250 2553 1709 2553 
Q 1456 2553 1204 2497 
Q 953 2441 691 2322 
L 691 4666 
z
" transform="scale(0.015625)"/>
       </defs>
       <use xlink:href="#DejaVuSans-35"/>
      </g>
     </g>
    </g>
    <g id="xtick_8">
     <g id="line2d_8">
      <g>
       <use xlink:href="#m5c6ec0a8a9" x="632.849302" y="499.48" style="stroke: #000000; stroke-width: 0.8"/>
      </g>
     </g>
     <g id="text_8">
      <!-- 6 -->
      <g transform="translate(625.850552 523.196563) scale(0.22 -0.22)">
       <defs>
        <path id="DejaVuSans-36" d="M 2113 2584 
Q 1688 2584 1439 2293 
Q 1191 2003 1191 1497 
Q 1191 994 1439 701 
Q 1688 409 2113 409 
Q 2538 409 2786 701 
Q 3034 994 3034 1497 
Q 3034 2003 2786 2293 
Q 2538 2584 2113 2584 
z
M 3366 4563 
L 3366 3988 
Q 3128 4100 2886 4159 
Q 2644 4219 2406 4219 
Q 1781 4219 1451 3797 
Q 1122 3375 1075 2522 
Q 1259 2794 1537 2939 
Q 1816 3084 2150 3084 
Q 2853 3084 3261 2657 
Q 3669 2231 3669 1497 
Q 3669 778 3244 343 
Q 2819 -91 2113 -91 
Q 1303 -91 875 529 
Q 447 1150 447 2328 
Q 447 3434 972 4092 
Q 1497 4750 2381 4750 
Q 2619 4750 2861 4703 
Q 3103 4656 3366 4563 
z
" transform="scale(0.015625)"/>
       </defs>
       <use xlink:href="#DejaVuSans-36"/>
      </g>
     </g>
    </g>
    <g id="text_9">
     <!-- Force Uncertainties -->
     <g transform="translate(285.631094 548.488438) scale(0.22 -0.22)">
      <defs>
       <path id="DejaVuSans-46" d="M 628 4666 
L 3309 4666 
L 3309 4134 
L 1259 4134 
L 1259 2759 
L 3109 2759 
L 3109 2228 
L 1259 2228 
L 1259 0 
L 628 0 
L 628 4666 
z
" transform="scale(0.015625)"/>
       <path id="DejaVuSans-6f" d="M 1959 3097 
Q 1497 3097 1228 2736 
Q 959 2375 959 1747 
Q 959 1119 1226 758 
Q 1494 397 1959 397 
Q 2419 397 2687 759 
Q 2956 1122 2956 1747 
Q 2956 2369 2687 2733 
Q 2419 3097 1959 3097 
z
M 1959 3584 
Q 2709 3584 3137 3096 
Q 3566 2609 3566 1747 
Q 3566 888 3137 398 
Q 2709 -91 1959 -91 
Q 1206 -91 779 398 
Q 353 888 353 1747 
Q 353 2609 779 3096 
Q 1206 3584 1959 3584 
z
" transform="scale(0.015625)"/>
       <path id="DejaVuSans-72" d="M 2631 2963 
Q 2534 3019 2420 3045 
Q 2306 3072 2169 3072 
Q 1681 3072 1420 2755 
Q 1159 2438 1159 1844 
L 1159 0 
L 581 0 
L 581 3500 
L 1159 3500 
L 1159 2956 
Q 1341 3275 1631 3429 
Q 1922 3584 2338 3584 
Q 2397 3584 2469 3576 
Q 2541 3569 2628 3553 
L 2631 2963 
z
" transform="scale(0.015625)"/>
       <path id="DejaVuSans-63" d="M 3122 3366 
L 3122 2828 
Q 2878 2963 2633 3030 
Q 2388 3097 2138 3097 
Q 1578 3097 1268 2742 
Q 959 2388 959 1747 
Q 959 1106 1268 751 
Q 1578 397 2138 397 
Q 2388 397 2633 464 
Q 2878 531 3122 666 
L 3122 134 
Q 2881 22 2623 -34 
Q 2366 -91 2075 -91 
Q 1284 -91 818 406 
Q 353 903 353 1747 
Q 353 2603 823 3093 
Q 1294 3584 2113 3584 
Q 2378 3584 2631 3529 
Q 2884 3475 3122 3366 
z
" transform="scale(0.015625)"/>
       <path id="DejaVuSans-65" d="M 3597 1894 
L 3597 1613 
L 953 1613 
Q 991 1019 1311 708 
Q 1631 397 2203 397 
Q 2534 397 2845 478 
Q 3156 559 3463 722 
L 3463 178 
Q 3153 47 2828 -22 
Q 2503 -91 2169 -91 
Q 1331 -91 842 396 
Q 353 884 353 1716 
Q 353 2575 817 3079 
Q 1281 3584 2069 3584 
Q 2775 3584 3186 3129 
Q 3597 2675 3597 1894 
z
M 3022 2063 
Q 3016 2534 2758 2815 
Q 2500 3097 2075 3097 
Q 1594 3097 1305 2825 
Q 1016 2553 972 2059 
L 3022 2063 
z
" transform="scale(0.015625)"/>
       <path id="DejaVuSans-20" transform="scale(0.015625)"/>
       <path id="DejaVuSans-55" d="M 556 4666 
L 1191 4666 
L 1191 1831 
Q 1191 1081 1462 751 
Q 1734 422 2344 422 
Q 2950 422 3222 751 
Q 3494 1081 3494 1831 
L 3494 4666 
L 4128 4666 
L 4128 1753 
Q 4128 841 3676 375 
Q 3225 -91 2344 -91 
Q 1459 -91 1007 375 
Q 556 841 556 1753 
L 556 4666 
z
" transform="scale(0.015625)"/>
       <path id="DejaVuSans-6e" d="M 3513 2113 
L 3513 0 
L 2938 0 
L 2938 2094 
Q 2938 2591 2744 2837 
Q 2550 3084 2163 3084 
Q 1697 3084 1428 2787 
Q 1159 2491 1159 1978 
L 1159 0 
L 581 0 
L 581 3500 
L 1159 3500 
L 1159 2956 
Q 1366 3272 1645 3428 
Q 1925 3584 2291 3584 
Q 2894 3584 3203 3211 
Q 3513 2838 3513 2113 
z
" transform="scale(0.015625)"/>
       <path id="DejaVuSans-74" d="M 1172 4494 
L 1172 3500 
L 2356 3500 
L 2356 3053 
L 1172 3053 
L 1172 1153 
Q 1172 725 1289 603 
Q 1406 481 1766 481 
L 2356 481 
L 2356 0 
L 1766 0 
Q 1100 0 847 248 
Q 594 497 594 1153 
L 594 3053 
L 172 3053 
L 172 3500 
L 594 3500 
L 594 4494 
L 1172 4494 
z
" transform="scale(0.015625)"/>
       <path id="DejaVuSans-61" d="M 2194 1759 
Q 1497 1759 1228 1600 
Q 959 1441 959 1056 
Q 959 750 1161 570 
Q 1363 391 1709 391 
Q 2188 391 2477 730 
Q 2766 1069 2766 1631 
L 2766 1759 
L 2194 1759 
z
M 3341 1997 
L 3341 0 
L 2766 0 
L 2766 531 
Q 2569 213 2275 61 
Q 1981 -91 1556 -91 
Q 1019 -91 701 211 
Q 384 513 384 1019 
Q 384 1609 779 1909 
Q 1175 2209 1959 2209 
L 2766 2209 
L 2766 2266 
Q 2766 2663 2505 2880 
Q 2244 3097 1772 3097 
Q 1472 3097 1187 3025 
Q 903 2953 641 2809 
L 641 3341 
Q 956 3463 1253 3523 
Q 1550 3584 1831 3584 
Q 2591 3584 2966 3190 
Q 3341 2797 3341 1997 
z
" transform="scale(0.015625)"/>
       <path id="DejaVuSans-69" d="M 603 3500 
L 1178 3500 
L 1178 0 
L 603 0 
L 603 3500 
z
M 603 4863 
L 1178 4863 
L 1178 4134 
L 603 4134 
L 603 4863 
z
" transform="scale(0.015625)"/>
       <path id="DejaVuSans-73" d="M 2834 3397 
L 2834 2853 
Q 2591 2978 2328 3040 
Q 2066 3103 1784 3103 
Q 1356 3103 1142 2972 
Q 928 2841 928 2578 
Q 928 2378 1081 2264 
Q 1234 2150 1697 2047 
L 1894 2003 
Q 2506 1872 2764 1633 
Q 3022 1394 3022 966 
Q 3022 478 2636 193 
Q 2250 -91 1575 -91 
Q 1294 -91 989 -36 
Q 684 19 347 128 
L 347 722 
Q 666 556 975 473 
Q 1284 391 1588 391 
Q 1994 391 2212 530 
Q 2431 669 2431 922 
Q 2431 1156 2273 1281 
Q 2116 1406 1581 1522 
L 1381 1569 
Q 847 1681 609 1914 
Q 372 2147 372 2553 
Q 372 3047 722 3315 
Q 1072 3584 1716 3584 
Q 2034 3584 2315 3537 
Q 2597 3491 2834 3397 
z
" transform="scale(0.015625)"/>
      </defs>
      <use xlink:href="#DejaVuSans-46"/>
      <use xlink:href="#DejaVuSans-6f" x="53.894531"/>
      <use xlink:href="#DejaVuSans-72" x="115.076172"/>
      <use xlink:href="#DejaVuSans-63" x="153.939453"/>
      <use xlink:href="#DejaVuSans-65" x="208.919922"/>
      <use xlink:href="#DejaVuSans-20" x="270.443359"/>
      <use xlink:href="#DejaVuSans-55" x="302.230469"/>
      <use xlink:href="#DejaVuSans-6e" x="375.423828"/>
      <use xlink:href="#DejaVuSans-63" x="438.802734"/>
      <use xlink:href="#DejaVuSans-65" x="493.783203"/>
      <use xlink:href="#DejaVuSans-72" x="555.306641"/>
      <use xlink:href="#DejaVuSans-74" x="596.419922"/>
      <use xlink:href="#DejaVuSans-61" x="635.628906"/>
      <use xlink:href="#DejaVuSans-69" x="696.908203"/>
      <use xlink:href="#DejaVuSans-6e" x="724.691406"/>
      <use xlink:href="#DejaVuSans-74" x="788.070312"/>
      <use xlink:href="#DejaVuSans-69" x="827.279297"/>
      <use xlink:href="#DejaVuSans-65" x="855.0625"/>
      <use xlink:href="#DejaVuSans-73" x="916.585938"/>
     </g>
    </g>
   </g>
   <g id="matplotlib.axis_2">
    <g id="ytick_1">
     <g id="line2d_9">
      <defs>
       <path id="m9f3e6a8dca" d="M 0 0 
L -3.5 0 
" style="stroke: #000000; stroke-width: 0.8"/>
      </defs>
      <g>
       <use xlink:href="#m9f3e6a8dca" x="88.13" y="472.552035" style="stroke: #000000; stroke-width: 0.8"/>
      </g>
     </g>
     <g id="text_10">
      <!-- −1 -->
      <g transform="translate(48.697188 480.910316) scale(0.22 -0.22)">
       <use xlink:href="#DejaVuSans-2212"/>
       <use xlink:href="#DejaVuSans-31" x="83.789062"/>
      </g>
     </g>
    </g>
    <g id="ytick_2">
     <g id="line2d_10">
      <g>
       <use xlink:href="#m9f3e6a8dca" x="88.13" y="415.523184" style="stroke: #000000; stroke-width: 0.8"/>
      </g>
     </g>
     <g id="text_11">
      <!-- 0 -->
      <g transform="translate(67.1325 423.881465) scale(0.22 -0.22)">
       <use xlink:href="#DejaVuSans-30"/>
      </g>
     </g>
    </g>
    <g id="ytick_3">
     <g id="line2d_11">
      <g>
       <use xlink:href="#m9f3e6a8dca" x="88.13" y="358.494333" style="stroke: #000000; stroke-width: 0.8"/>
      </g>
     </g>
     <g id="text_12">
      <!-- 1 -->
      <g transform="translate(67.1325 366.852614) scale(0.22 -0.22)">
       <use xlink:href="#DejaVuSans-31"/>
      </g>
     </g>
    </g>
    <g id="ytick_4">
     <g id="line2d_12">
      <g>
       <use xlink:href="#m9f3e6a8dca" x="88.13" y="301.465482" style="stroke: #000000; stroke-width: 0.8"/>
      </g>
     </g>
     <g id="text_13">
      <!-- 2 -->
      <g transform="translate(67.1325 309.823764) scale(0.22 -0.22)">
       <use xlink:href="#DejaVuSans-32"/>
      </g>
     </g>
    </g>
    <g id="ytick_5">
     <g id="line2d_13">
      <g>
       <use xlink:href="#m9f3e6a8dca" x="88.13" y="244.436631" style="stroke: #000000; stroke-width: 0.8"/>
      </g>
     </g>
     <g id="text_14">
      <!-- 3 -->
      <g transform="translate(67.1325 252.794913) scale(0.22 -0.22)">
       <use xlink:href="#DejaVuSans-33"/>
      </g>
     </g>
    </g>
    <g id="ytick_6">
     <g id="line2d_14">
      <g>
       <use xlink:href="#m9f3e6a8dca" x="88.13" y="187.40778" style="stroke: #000000; stroke-width: 0.8"/>
      </g>
     </g>
     <g id="text_15">
      <!-- 4 -->
      <g transform="translate(67.1325 195.766062) scale(0.22 -0.22)">
       <use xlink:href="#DejaVuSans-34"/>
      </g>
     </g>
    </g>
    <g id="ytick_7">
     <g id="line2d_15">
      <g>
       <use xlink:href="#m9f3e6a8dca" x="88.13" y="130.378929" style="stroke: #000000; stroke-width: 0.8"/>
      </g>
     </g>
     <g id="text_16">
      <!-- 5 -->
      <g transform="translate(67.1325 138.737211) scale(0.22 -0.22)">
       <use xlink:href="#DejaVuSans-35"/>
      </g>
     </g>
    </g>
    <g id="ytick_8">
     <g id="line2d_16">
      <g>
       <use xlink:href="#m9f3e6a8dca" x="88.13" y="73.350079" style="stroke: #000000; stroke-width: 0.8"/>
      </g>
     </g>
     <g id="text_17">
      <!-- 6 -->
      <g transform="translate(67.1325 81.70836) scale(0.22 -0.22)">
       <use xlink:href="#DejaVuSans-36"/>
      </g>
     </g>
    </g>
    <g id="text_18">
     <!-- Force Errors [kJ/(mol*A)] -->
     <g transform="translate(40.121875 394.9125) rotate(-90) scale(0.22 -0.22)">
      <defs>
       <path id="DejaVuSans-45" d="M 628 4666 
L 3578 4666 
L 3578 4134 
L 1259 4134 
L 1259 2753 
L 3481 2753 
L 3481 2222 
L 1259 2222 
L 1259 531 
L 3634 531 
L 3634 0 
L 628 0 
L 628 4666 
z
" transform="scale(0.015625)"/>
       <path id="DejaVuSans-5b" d="M 550 4863 
L 1875 4863 
L 1875 4416 
L 1125 4416 
L 1125 -397 
L 1875 -397 
L 1875 -844 
L 550 -844 
L 550 4863 
z
" transform="scale(0.015625)"/>
       <path id="DejaVuSans-6b" d="M 581 4863 
L 1159 4863 
L 1159 1991 
L 2875 3500 
L 3609 3500 
L 1753 1863 
L 3688 0 
L 2938 0 
L 1159 1709 
L 1159 0 
L 581 0 
L 581 4863 
z
" transform="scale(0.015625)"/>
       <path id="DejaVuSans-4a" d="M 628 4666 
L 1259 4666 
L 1259 325 
Q 1259 -519 939 -900 
Q 619 -1281 -91 -1281 
L -331 -1281 
L -331 -750 
L -134 -750 
Q 284 -750 456 -515 
Q 628 -281 628 325 
L 628 4666 
z
" transform="scale(0.015625)"/>
       <path id="DejaVuSans-2f" d="M 1625 4666 
L 2156 4666 
L 531 -594 
L 0 -594 
L 1625 4666 
z
" transform="scale(0.015625)"/>
       <path id="DejaVuSans-28" d="M 1984 4856 
Q 1566 4138 1362 3434 
Q 1159 2731 1159 2009 
Q 1159 1288 1364 580 
Q 1569 -128 1984 -844 
L 1484 -844 
Q 1016 -109 783 600 
Q 550 1309 550 2009 
Q 550 2706 781 3412 
Q 1013 4119 1484 4856 
L 1984 4856 
z
" transform="scale(0.015625)"/>
       <path id="DejaVuSans-6d" d="M 3328 2828 
Q 3544 3216 3844 3400 
Q 4144 3584 4550 3584 
Q 5097 3584 5394 3201 
Q 5691 2819 5691 2113 
L 5691 0 
L 5113 0 
L 5113 2094 
Q 5113 2597 4934 2840 
Q 4756 3084 4391 3084 
Q 3944 3084 3684 2787 
Q 3425 2491 3425 1978 
L 3425 0 
L 2847 0 
L 2847 2094 
Q 2847 2600 2669 2842 
Q 2491 3084 2119 3084 
Q 1678 3084 1418 2786 
Q 1159 2488 1159 1978 
L 1159 0 
L 581 0 
L 581 3500 
L 1159 3500 
L 1159 2956 
Q 1356 3278 1631 3431 
Q 1906 3584 2284 3584 
Q 2666 3584 2933 3390 
Q 3200 3197 3328 2828 
z
" transform="scale(0.015625)"/>
       <path id="DejaVuSans-6c" d="M 603 4863 
L 1178 4863 
L 1178 0 
L 603 0 
L 603 4863 
z
" transform="scale(0.015625)"/>
       <path id="DejaVuSans-2a" d="M 3009 3897 
L 1888 3291 
L 3009 2681 
L 2828 2375 
L 1778 3009 
L 1778 1831 
L 1422 1831 
L 1422 3009 
L 372 2375 
L 191 2681 
L 1313 3291 
L 191 3897 
L 372 4206 
L 1422 3572 
L 1422 4750 
L 1778 4750 
L 1778 3572 
L 2828 4206 
L 3009 3897 
z
" transform="scale(0.015625)"/>
       <path id="DejaVuSans-41" d="M 2188 4044 
L 1331 1722 
L 3047 1722 
L 2188 4044 
z
M 1831 4666 
L 2547 4666 
L 4325 0 
L 3669 0 
L 3244 1197 
L 1141 1197 
L 716 0 
L 50 0 
L 1831 4666 
z
" transform="scale(0.015625)"/>
       <path id="DejaVuSans-29" d="M 513 4856 
L 1013 4856 
Q 1481 4119 1714 3412 
Q 1947 2706 1947 2009 
Q 1947 1309 1714 600 
Q 1481 -109 1013 -844 
L 513 -844 
Q 928 -128 1133 580 
Q 1338 1288 1338 2009 
Q 1338 2731 1133 3434 
Q 928 4138 513 4856 
z
" transform="scale(0.015625)"/>
       <path id="DejaVuSans-5d" d="M 1947 4863 
L 1947 -844 
L 622 -844 
L 622 -397 
L 1369 -397 
L 1369 4416 
L 622 4416 
L 622 4863 
L 1947 4863 
z
" transform="scale(0.015625)"/>
      </defs>
      <use xlink:href="#DejaVuSans-46"/>
      <use xlink:href="#DejaVuSans-6f" x="53.894531"/>
      <use xlink:href="#DejaVuSans-72" x="115.076172"/>
      <use xlink:href="#DejaVuSans-63" x="153.939453"/>
      <use xlink:href="#DejaVuSans-65" x="208.919922"/>
      <use xlink:href="#DejaVuSans-20" x="270.443359"/>
      <use xlink:href="#DejaVuSans-45" x="302.230469"/>
      <use xlink:href="#DejaVuSans-72" x="365.414062"/>
      <use xlink:href="#DejaVuSans-72" x="404.777344"/>
      <use xlink:href="#DejaVuSans-6f" x="443.640625"/>
      <use xlink:href="#DejaVuSans-72" x="504.822266"/>
      <use xlink:href="#DejaVuSans-73" x="545.935547"/>
      <use xlink:href="#DejaVuSans-20" x="598.035156"/>
      <use xlink:href="#DejaVuSans-5b" x="629.822266"/>
      <use xlink:href="#DejaVuSans-6b" x="668.835938"/>
      <use xlink:href="#DejaVuSans-4a" x="726.746094"/>
      <use xlink:href="#DejaVuSans-2f" x="756.238281"/>
      <use xlink:href="#DejaVuSans-28" x="789.929688"/>
      <use xlink:href="#DejaVuSans-6d" x="828.943359"/>
      <use xlink:href="#DejaVuSans-6f" x="926.355469"/>
      <use xlink:href="#DejaVuSans-6c" x="987.537109"/>
      <use xlink:href="#DejaVuSans-2a" x="1015.320312"/>
      <use xlink:href="#DejaVuSans-41" x="1065.320312"/>
      <use xlink:href="#DejaVuSans-29" x="1133.728516"/>
      <use xlink:href="#DejaVuSans-5d" x="1172.742188"/>
     </g>
    </g>
   </g>
   <g id="line2d_17">
    <path d="M 88.13 499.48 
L 696.24 23.76 
" clip-path="url(#p94f2c54453)" style="fill: none; stroke-dasharray: 5.55,2.4; stroke-dashoffset: 0; stroke: #ff0000; stroke-width: 1.5"/>
   </g>
   <g id="patch_3">
    <path d="M 88.13 499.48 
L 88.13 23.76 
" style="fill: none; stroke: #000000; stroke-width: 0.8; stroke-linejoin: miter; stroke-linecap: square"/>
   </g>
   <g id="patch_4">
    <path d="M 696.24 499.48 
L 696.24 23.76 
" style="fill: none; stroke: #000000; stroke-width: 0.8; stroke-linejoin: miter; stroke-linecap: square"/>
   </g>
   <g id="patch_5">
    <path d="M 88.13 499.48 
L 696.24 499.48 
" style="fill: none; stroke: #000000; stroke-width: 0.8; stroke-linejoin: miter; stroke-linecap: square"/>
   </g>
   <g id="patch_6">
    <path d="M 88.13 23.76 
L 696.24 23.76 
" style="fill: none; stroke: #000000; stroke-width: 0.8; stroke-linejoin: miter; stroke-linecap: square"/>
   </g>
   <g id="text_19">
    <!-- Correlation in: 0.980 -->
    <g transform="translate(148.941 71.332) scale(0.22 -0.22)">
     <defs>
      <path id="DejaVuSans-43" d="M 4122 4306 
L 4122 3641 
Q 3803 3938 3442 4084 
Q 3081 4231 2675 4231 
Q 1875 4231 1450 3742 
Q 1025 3253 1025 2328 
Q 1025 1406 1450 917 
Q 1875 428 2675 428 
Q 3081 428 3442 575 
Q 3803 722 4122 1019 
L 4122 359 
Q 3791 134 3420 21 
Q 3050 -91 2638 -91 
Q 1578 -91 968 557 
Q 359 1206 359 2328 
Q 359 3453 968 4101 
Q 1578 4750 2638 4750 
Q 3056 4750 3426 4639 
Q 3797 4528 4122 4306 
z
" transform="scale(0.015625)"/>
      <path id="DejaVuSans-3a" d="M 750 794 
L 1409 794 
L 1409 0 
L 750 0 
L 750 794 
z
M 750 3309 
L 1409 3309 
L 1409 2516 
L 750 2516 
L 750 3309 
z
" transform="scale(0.015625)"/>
      <path id="DejaVuSans-2e" d="M 684 794 
L 1344 794 
L 1344 0 
L 684 0 
L 684 794 
z
" transform="scale(0.015625)"/>
      <path id="DejaVuSans-39" d="M 703 97 
L 703 672 
Q 941 559 1184 500 
Q 1428 441 1663 441 
Q 2288 441 2617 861 
Q 2947 1281 2994 2138 
Q 2813 1869 2534 1725 
Q 2256 1581 1919 1581 
Q 1219 1581 811 2004 
Q 403 2428 403 3163 
Q 403 3881 828 4315 
Q 1253 4750 1959 4750 
Q 2769 4750 3195 4129 
Q 3622 3509 3622 2328 
Q 3622 1225 3098 567 
Q 2575 -91 1691 -91 
Q 1453 -91 1209 -44 
Q 966 3 703 97 
z
M 1959 2075 
Q 2384 2075 2632 2365 
Q 2881 2656 2881 3163 
Q 2881 3666 2632 3958 
Q 2384 4250 1959 4250 
Q 1534 4250 1286 3958 
Q 1038 3666 1038 3163 
Q 1038 2656 1286 2365 
Q 1534 2075 1959 2075 
z
" transform="scale(0.015625)"/>
      <path id="DejaVuSans-38" d="M 2034 2216 
Q 1584 2216 1326 1975 
Q 1069 1734 1069 1313 
Q 1069 891 1326 650 
Q 1584 409 2034 409 
Q 2484 409 2743 651 
Q 3003 894 3003 1313 
Q 3003 1734 2745 1975 
Q 2488 2216 2034 2216 
z
M 1403 2484 
Q 997 2584 770 2862 
Q 544 3141 544 3541 
Q 544 4100 942 4425 
Q 1341 4750 2034 4750 
Q 2731 4750 3128 4425 
Q 3525 4100 3525 3541 
Q 3525 3141 3298 2862 
Q 3072 2584 2669 2484 
Q 3125 2378 3379 2068 
Q 3634 1759 3634 1313 
Q 3634 634 3220 271 
Q 2806 -91 2034 -91 
Q 1263 -91 848 271 
Q 434 634 434 1313 
Q 434 1759 690 2068 
Q 947 2378 1403 2484 
z
M 1172 3481 
Q 1172 3119 1398 2916 
Q 1625 2713 2034 2713 
Q 2441 2713 2670 2916 
Q 2900 3119 2900 3481 
Q 2900 3844 2670 4047 
Q 2441 4250 2034 4250 
Q 1625 4250 1398 4047 
Q 1172 3844 1172 3481 
z
" transform="scale(0.015625)"/>
     </defs>
     <use xlink:href="#DejaVuSans-43"/>
     <use xlink:href="#DejaVuSans-6f" x="69.824219"/>
     <use xlink:href="#DejaVuSans-72" x="131.005859"/>
     <use xlink:href="#DejaVuSans-72" x="170.369141"/>
     <use xlink:href="#DejaVuSans-65" x="209.232422"/>
     <use xlink:href="#DejaVuSans-6c" x="270.755859"/>
     <use xlink:href="#DejaVuSans-61" x="298.539062"/>
     <use xlink:href="#DejaVuSans-74" x="359.818359"/>
     <use xlink:href="#DejaVuSans-69" x="399.027344"/>
     <use xlink:href="#DejaVuSans-6f" x="426.810547"/>
     <use xlink:href="#DejaVuSans-6e" x="487.992188"/>
     <use xlink:href="#DejaVuSans-20" x="551.371094"/>
     <use xlink:href="#DejaVuSans-69" x="583.158203"/>
     <use xlink:href="#DejaVuSans-6e" x="610.941406"/>
     <use xlink:href="#DejaVuSans-3a" x="674.320312"/>
     <use xlink:href="#DejaVuSans-20" x="708.011719"/>
     <use xlink:href="#DejaVuSans-30" x="739.798828"/>
     <use xlink:href="#DejaVuSans-2e" x="803.421875"/>
     <use xlink:href="#DejaVuSans-39" x="835.208984"/>
     <use xlink:href="#DejaVuSans-38" x="898.832031"/>
     <use xlink:href="#DejaVuSans-30" x="962.455078"/>
    </g>
   </g>
  </g>
 </g>
 <defs>
  <clipPath id="p94f2c54453">
   <rect x="88.13" y="23.76" width="608.11" height="475.72"/>
  </clipPath>
 </defs>
</svg>
