<?xml version="1.0" encoding="utf-8" standalone="no"?>
<!DOCTYPE svg PUBLIC "-//W3C//DTD SVG 1.1//EN"
  "http://www.w3.org/Graphics/SVG/1.1/DTD/svg11.dtd">
<svg xmlns:xlink="http://www.w3.org/1999/xlink" width="720pt" height="576pt" viewBox="0 0 720 576" xmlns="http://www.w3.org/2000/svg" version="1.1">
 <metadata>
  <rdf:RDF xmlns:dc="http://purl.org/dc/elements/1.1/" xmlns:cc="http://creativecommons.org/ns#" xmlns:rdf="http://www.w3.org/1999/02/22-rdf-syntax-ns#">
   <cc:Work>
    <dc:type rdf:resource="http://purl.org/dc/dcmitype/StillImage"/>
    <dc:date>2024-12-08T10:17:41.363984</dc:date>
    <dc:format>image/svg+xml</dc:format>
    <dc:creator>
     <cc:Agent>
      <dc:title>Matplotlib v3.8.4, https://matplotlib.org/</dc:title>
     </cc:Agent>
    </dc:creator>
   </cc:Work>
  </rdf:RDF>
 </metadata>
 <defs>
  <style type="text/css">*{stroke-linejoin: round; stroke-linecap: butt}</style>
 </defs>
 <g id="figure_1">
  <g id="patch_1">
   <path d="M 0 576 
L 720 576 
L 720 0 
L 0 0 
z
" style="fill: #ffffff"/>
  </g>
  <g id="axes_1">
   <g id="patch_2">
    <path d="M 83.72 499.48 
L 696.24 499.48 
L 696.24 23.76 
L 83.72 23.76 
z
" style="fill: #ffffff"/>
   </g>
   <g id="QuadContourSet_1">
    <path d="M 116.571296 482.984351 
L 117.962391 483.410868 
L 119.353486 483.543645 
L 120.74458 483.572203 
L 122.135675 483.550686 
L 123.52677 483.441938 
L 124.917864 483.150963 
L 126.308959 482.465902 
L 127.066655 481.856684 
L 127.700054 481.526496 
L 129.091148 480.29956 
L 129.255047 480.138188 
L 130.482243 479.047607 
L 131.075356 478.419692 
L 131.873338 477.567205 
L 132.710068 476.701197 
L 133.264432 476.085869 
L 134.338734 474.982701 
L 134.655527 474.58777 
L 135.918299 473.264205 
L 136.046622 473.082583 
L 137.437716 471.571594 
L 137.467156 471.545709 
L 138.608466 469.827213 
L 138.828811 468.429365 
L 138.899903 468.108717 
L 138.828811 467.714144 
L 138.691206 466.390222 
L 138.165814 464.671726 
L 137.65309 462.95323 
L 137.544405 461.234734 
L 137.437716 460.238352 
L 137.384467 459.516238 
L 136.769197 457.797743 
L 136.046622 456.612413 
L 135.759011 456.079247 
L 135.028268 454.360751 
L 134.655527 453.314689 
L 134.361392 452.642255 
L 133.264432 451.033371 
L 133.176471 450.923759 
L 131.873338 449.441284 
L 131.666975 449.205264 
L 130.482243 447.885611 
L 129.770945 447.486768 
L 129.091148 447.120685 
L 127.700054 446.711305 
L 126.308959 446.426412 
L 124.917864 446.397517 
L 123.52677 446.752939 
L 122.135675 447.292053 
L 120.74458 447.39152 
L 119.353486 447.360617 
L 119.148075 447.486768 
L 117.962391 448.187009 
L 117.241424 449.205264 
L 116.571296 450.173238 
L 116.143957 450.923759 
L 115.22035 452.642255 
L 115.180202 452.733543 
L 114.471188 454.360751 
L 113.935756 456.079247 
L 113.789107 456.635199 
L 113.442867 457.797743 
L 112.952419 459.516238 
L 112.498258 461.234734 
L 112.398012 461.625983 
L 111.891141 462.95323 
L 111.346972 464.671726 
L 111.006918 466.390222 
L 111.006918 466.390222 
L 110.881571 468.108717 
L 111.006918 468.758741 
L 111.104001 469.827213 
L 111.341993 471.545709 
L 111.512587 473.264205 
L 111.638065 474.982701 
L 111.909908 476.701197 
L 112.398012 477.894947 
L 112.558024 478.419692 
L 113.619853 480.138188 
L 113.789107 480.350316 
L 115.180202 481.852191 
L 115.18578 481.856684 
z
M 118.420717 480.138188 
L 117.962391 479.915928 
L 116.571296 478.492968 
L 116.51378 478.419692 
L 115.533029 476.701197 
L 115.180202 475.207247 
L 115.106483 474.982701 
L 114.876425 473.264205 
L 114.930757 471.545709 
L 115.180202 470.082345 
L 115.206539 469.827213 
L 115.495576 468.108717 
L 115.931948 466.390222 
L 116.571296 464.671726 
L 116.571296 464.671726 
L 117.225473 462.95323 
L 117.962391 461.714879 
L 118.277495 461.234734 
L 119.353486 459.829725 
L 119.626778 459.516238 
L 120.74458 458.231101 
L 121.278514 457.797743 
L 122.135675 457.023862 
L 123.52677 456.324962 
L 124.703522 456.079247 
L 124.917864 456.009645 
L 125.508061 456.079247 
L 126.308959 456.143274 
L 127.700054 456.718462 
L 129.091148 457.786762 
L 129.102251 457.797743 
L 130.482243 458.967647 
L 130.935505 459.516238 
L 131.873338 460.953401 
L 132.035042 461.234734 
L 132.690317 462.95323 
L 132.958111 464.671726 
L 133.006992 466.390222 
L 132.881477 468.108717 
L 132.552763 469.827213 
L 131.877768 471.545709 
L 131.873338 471.553641 
L 131.196669 473.264205 
L 130.482243 474.369827 
L 130.176514 474.982701 
L 129.091148 476.492361 
L 128.951019 476.701197 
L 127.700054 478.173295 
L 127.43955 478.419692 
L 126.308959 479.481407 
L 125.032501 480.138188 
L 124.917864 480.218613 
L 123.52677 480.847369 
L 122.135675 481.038121 
L 120.74458 480.966669 
L 119.353486 480.638407 
z
" clip-path="url(#p7f6872f84b)" style="fill: #e8e8f3"/>
    <path d="M 119.353486 480.638407 
L 120.74458 480.966669 
L 122.135675 481.038121 
L 123.52677 480.847369 
L 124.917864 480.218613 
L 125.032501 480.138188 
L 126.308959 479.481407 
L 127.43955 478.419692 
L 127.700054 478.173295 
L 128.951019 476.701197 
L 129.091148 476.492361 
L 130.176514 474.982701 
L 130.482243 474.369827 
L 131.196669 473.264205 
L 131.873338 471.553641 
L 131.877768 471.545709 
L 132.552763 469.827213 
L 132.881477 468.108717 
L 133.006992 466.390222 
L 132.958111 464.671726 
L 132.690317 462.95323 
L 132.035042 461.234734 
L 131.873338 460.953401 
L 130.935505 459.516238 
L 130.482243 458.967647 
L 129.102251 457.797743 
L 129.091148 457.786762 
L 127.700054 456.718462 
L 126.308959 456.143274 
L 125.508061 456.079247 
L 124.917864 456.009645 
L 124.703522 456.079247 
L 123.52677 456.324962 
L 122.135675 457.023862 
L 121.278514 457.797743 
L 120.74458 458.231101 
L 119.626778 459.516238 
L 119.353486 459.829725 
L 118.277495 461.234734 
L 117.962391 461.714879 
L 117.225473 462.95323 
L 116.571296 464.671726 
L 116.571296 464.671726 
L 115.931948 466.390222 
L 115.495576 468.108717 
L 115.206539 469.827213 
L 115.180202 470.082345 
L 114.930757 471.545709 
L 114.876425 473.264205 
L 115.106483 474.982701 
L 115.180202 475.207247 
L 115.533029 476.701197 
L 116.51378 478.419692 
L 116.571296 478.492968 
L 117.962391 479.915928 
L 118.420717 480.138188 
z
M 118.726516 478.419692 
L 117.962391 477.684112 
L 117.280125 476.701197 
L 116.697017 474.982701 
L 116.571296 473.875854 
L 116.472145 473.264205 
L 116.52807 471.545709 
L 116.571296 471.308631 
L 116.754311 469.827213 
L 117.148697 468.108717 
L 117.793809 466.390222 
L 117.962391 466.025244 
L 118.590161 464.671726 
L 119.353486 463.478704 
L 119.749387 462.95323 
L 120.74458 461.737359 
L 121.305142 461.234734 
L 122.135675 460.443369 
L 123.52677 459.727242 
L 124.917864 459.516238 
L 126.308959 459.650957 
L 127.700054 460.13184 
L 129.091148 461.177105 
L 129.144171 461.234734 
L 130.331231 462.95323 
L 130.482243 463.394387 
L 130.894328 464.671726 
L 131.086977 466.390222 
L 131.027321 468.108717 
L 130.729235 469.827213 
L 130.482243 470.542577 
L 130.244574 471.545709 
L 129.559379 473.264205 
L 129.091148 474.048147 
L 128.623587 474.982701 
L 127.700054 476.257276 
L 127.350889 476.701197 
L 126.308959 477.807252 
L 125.421655 478.419692 
L 124.917864 478.801157 
L 123.52677 479.398456 
L 122.135675 479.560086 
L 120.74458 479.414049 
L 119.353486 478.889374 
z
" clip-path="url(#p7f6872f84b)" style="fill: #d3d3f4"/>
    <path d="M 119.353486 478.889374 
L 120.74458 479.414049 
L 122.135675 479.560086 
L 123.52677 479.398456 
L 124.917864 478.801157 
L 125.421655 478.419692 
L 126.308959 477.807252 
L 127.350889 476.701197 
L 127.700054 476.257276 
L 128.623587 474.982701 
L 129.091148 474.048147 
L 129.559379 473.264205 
L 130.244574 471.545709 
L 130.482243 470.542577 
L 130.729235 469.827213 
L 131.027321 468.108717 
L 131.086977 466.390222 
L 130.894328 464.671726 
L 130.482243 463.394387 
L 130.331231 462.95323 
L 129.144171 461.234734 
L 129.091148 461.177105 
L 127.700054 460.13184 
L 126.308959 459.650957 
L 124.917864 459.516238 
L 123.52677 459.727242 
L 122.135675 460.443369 
L 121.305142 461.234734 
L 120.74458 461.737359 
L 119.749387 462.95323 
L 119.353486 463.478704 
L 118.590161 464.671726 
L 117.962391 466.025244 
L 117.793809 466.390222 
L 117.148697 468.108717 
L 116.754311 469.827213 
L 116.571296 471.308631 
L 116.52807 471.545709 
L 116.472145 473.264205 
L 116.571296 473.875854 
L 116.697017 474.982701 
L 117.280125 476.701197 
L 117.962391 477.684112 
L 118.726516 478.419692 
z
M 118.658228 476.701197 
L 117.962391 475.291816 
L 117.825927 474.982701 
L 117.504253 473.264205 
L 117.543576 471.545709 
L 117.864138 469.827213 
L 117.962391 469.512996 
L 118.340604 468.108717 
L 119.099499 466.390222 
L 119.353486 465.941335 
L 120.186606 464.671726 
L 120.74458 463.947611 
L 121.793791 462.95323 
L 122.135675 462.618976 
L 123.52677 461.782062 
L 124.917864 461.508713 
L 126.308959 461.67549 
L 127.700054 462.375858 
L 128.287878 462.95323 
L 129.091148 464.204572 
L 129.306951 464.671726 
L 129.69898 466.390222 
L 129.761117 468.108717 
L 129.574479 469.827213 
L 129.091148 471.545709 
L 129.091148 471.545709 
L 128.490533 473.264205 
L 127.700054 474.62593 
L 127.498467 474.982701 
L 126.308959 476.480347 
L 126.073364 476.701197 
L 124.917864 477.680219 
L 123.52677 478.255121 
L 122.135675 478.400709 
L 120.74458 478.185556 
L 119.353486 477.443393 
z
" clip-path="url(#p7f6872f84b)" style="fill: #babaf6"/>
    <path d="M 119.353486 477.443393 
L 120.74458 478.185556 
L 122.135675 478.400709 
L 123.52677 478.255121 
L 124.917864 477.680219 
L 126.073364 476.701197 
L 126.308959 476.480347 
L 127.498467 474.982701 
L 127.700054 474.62593 
L 128.490533 473.264205 
L 129.091148 471.545709 
L 129.091148 471.545709 
L 129.574479 469.827213 
L 129.761117 468.108717 
L 129.69898 466.390222 
L 129.306951 464.671726 
L 129.091148 464.204572 
L 128.287878 462.95323 
L 127.700054 462.375858 
L 126.308959 461.67549 
L 124.917864 461.508713 
L 123.52677 461.782062 
L 122.135675 462.618976 
L 121.793791 462.95323 
L 120.74458 463.947611 
L 120.186606 464.671726 
L 119.353486 465.941335 
L 119.099499 466.390222 
L 118.340604 468.108717 
L 117.962391 469.512996 
L 117.864138 469.827213 
L 117.543576 471.545709 
L 117.504253 473.264205 
L 117.825927 474.982701 
L 117.962391 475.291816 
L 118.658228 476.701197 
z
M 119.990319 476.701197 
L 119.353486 476.040367 
L 118.730644 474.982701 
L 118.356715 473.264205 
L 118.376945 471.545709 
L 118.678632 469.827213 
L 119.288783 468.108717 
L 119.353486 467.973058 
L 120.19158 466.390222 
L 120.74458 465.597789 
L 121.627374 464.671726 
L 122.135675 464.157231 
L 123.52677 463.312117 
L 124.917864 463.029374 
L 126.308959 463.29322 
L 127.700054 464.415723 
L 127.877854 464.671726 
L 128.556728 466.390222 
L 128.757279 468.108717 
L 128.66968 469.827213 
L 128.317648 471.545709 
L 127.700054 473.063367 
L 127.627002 473.264205 
L 126.63815 474.982701 
L 126.308959 475.397167 
L 124.917864 476.701197 
L 124.917864 476.701197 
L 123.52677 477.423742 
L 122.135675 477.568437 
L 120.74458 477.213373 
z
" clip-path="url(#p7f6872f84b)" style="fill: #9f9ff7"/>
    <path d="M 120.74458 477.213373 
L 122.135675 477.568437 
L 123.52677 477.423742 
L 124.917864 476.701197 
L 124.917864 476.701197 
L 126.308959 475.397167 
L 126.63815 474.982701 
L 127.627002 473.264205 
L 127.700054 473.063367 
L 128.317648 471.545709 
L 128.66968 469.827213 
L 128.757279 468.108717 
L 128.556728 466.390222 
L 127.877854 464.671726 
L 127.700054 464.415723 
L 126.308959 463.29322 
L 124.917864 463.029374 
L 123.52677 463.312117 
L 122.135675 464.157231 
L 121.627374 464.671726 
L 120.74458 465.597789 
L 120.19158 466.390222 
L 119.353486 467.973058 
L 119.288783 468.108717 
L 118.678632 469.827213 
L 118.376945 471.545709 
L 118.356715 473.264205 
L 118.730644 474.982701 
L 119.353486 476.040367 
L 119.990319 476.701197 
z
M 119.6577 474.982701 
L 119.353486 474.098344 
L 119.124174 473.264205 
L 119.125358 471.545709 
L 119.353486 470.457346 
L 119.48252 469.827213 
L 120.155018 468.108717 
L 120.74458 467.110367 
L 121.319905 466.390222 
L 122.135675 465.504325 
L 123.488768 464.671726 
L 123.52677 464.646955 
L 124.917864 464.37458 
L 125.815665 464.671726 
L 126.308959 464.875496 
L 127.418639 466.390222 
L 127.700054 467.390209 
L 127.849317 468.108717 
L 127.859519 469.827213 
L 127.700054 470.612783 
L 127.540687 471.545709 
L 126.906576 473.264205 
L 126.308959 474.239057 
L 125.755604 474.982701 
L 124.917864 475.823517 
L 123.52677 476.567885 
L 122.135675 476.701197 
L 120.74458 476.178722 
z
" clip-path="url(#p7f6872f84b)" style="fill: #8484f8"/>
    <path d="M 120.74458 476.178722 
L 122.135675 476.701197 
L 123.52677 476.567885 
L 124.917864 475.823517 
L 125.755604 474.982701 
L 126.308959 474.239057 
L 126.906576 473.264205 
L 127.540687 471.545709 
L 127.700054 470.612783 
L 127.859519 469.827213 
L 127.849317 468.108717 
L 127.700054 467.390209 
L 127.418639 466.390222 
L 126.308959 464.875496 
L 125.815665 464.671726 
L 124.917864 464.37458 
L 123.52677 464.646955 
L 123.488768 464.671726 
L 122.135675 465.504325 
L 121.319905 466.390222 
L 120.74458 467.110367 
L 120.155018 468.108717 
L 119.48252 469.827213 
L 119.353486 470.457346 
L 119.125358 471.545709 
L 119.124174 473.264205 
L 119.353486 474.098344 
L 119.6577 474.982701 
z
M 120.577691 474.982701 
L 119.849734 473.264205 
L 119.806725 471.545709 
L 120.182964 469.827213 
L 120.74458 468.556436 
L 121.006847 468.108717 
L 122.135675 466.69882 
L 122.592629 466.390222 
L 123.52677 465.777018 
L 124.917864 465.621279 
L 126.190024 466.390222 
L 126.308959 466.51049 
L 126.980938 468.108717 
L 127.136213 469.827213 
L 126.88755 471.545709 
L 126.308959 473.038268 
L 126.209971 473.264205 
L 124.917864 474.982701 
L 124.917864 474.982701 
L 123.52677 475.798303 
L 122.135675 475.883339 
L 120.74458 475.166348 
z
" clip-path="url(#p7f6872f84b)" style="fill: #6a6afa"/>
    <path d="M 120.74458 475.166348 
L 122.135675 475.883339 
L 123.52677 475.798303 
L 124.917864 474.982701 
L 124.917864 474.982701 
L 126.209971 473.264205 
L 126.308959 473.038268 
L 126.88755 471.545709 
L 127.136213 469.827213 
L 126.980938 468.108717 
L 126.308959 466.51049 
L 126.190024 466.390222 
L 124.917864 465.621279 
L 123.52677 465.777018 
L 122.592629 466.390222 
L 122.135675 466.69882 
L 121.006847 468.108717 
L 120.74458 468.556436 
L 120.182964 469.827213 
L 119.806725 471.545709 
L 119.849734 473.264205 
L 120.577691 474.982701 
z
M 120.690436 473.264205 
L 120.581643 471.545709 
L 120.74458 470.854094 
L 121.053414 469.827213 
L 122.089123 468.108717 
L 122.135675 468.050574 
L 123.52677 467.104403 
L 124.917864 467.136011 
L 125.813418 468.108717 
L 126.308959 469.827213 
L 126.094842 471.545709 
L 125.349457 473.264205 
L 124.917864 473.838221 
L 123.52677 474.876815 
L 122.135675 474.906887 
L 120.74458 473.38599 
z
" clip-path="url(#p7f6872f84b)" style="fill: #4c4cfb"/>
    <path d="M 120.74458 473.38599 
L 122.135675 474.906887 
L 123.52677 474.876815 
L 124.917864 473.838221 
L 125.349457 473.264205 
L 126.094842 471.545709 
L 126.308959 469.827213 
L 125.813418 468.108717 
L 124.917864 467.136011 
L 123.52677 467.104403 
L 122.135675 468.050574 
L 122.089123 468.108717 
L 121.053414 469.827213 
L 120.74458 470.854094 
L 120.581643 471.545709 
L 120.690436 473.264205 
z
M 122.135675 473.264205 
L 122.135675 473.264205 
L 121.75344 471.545709 
L 122.135675 470.203611 
L 122.369901 469.827213 
L 123.52677 468.905995 
L 124.917864 469.570524 
L 125.028834 469.827213 
L 125.025415 471.545709 
L 124.917864 471.799011 
L 123.818185 473.264205 
L 123.52677 473.479596 
z
" clip-path="url(#p7f6872f84b)" style="fill: #2a2afd"/>
    <path d="M 123.52677 473.479596 
L 123.818185 473.264205 
L 124.917864 471.799011 
L 125.025415 471.545709 
L 125.028834 469.827213 
L 124.917864 469.570524 
L 123.52677 468.905995 
L 122.369901 469.827213 
L 122.135675 470.203611 
L 121.75344 471.545709 
L 122.135675 473.264205 
L 122.135675 473.264205 
z
" clip-path="url(#p7f6872f84b)" style="fill: #0c0cfe"/>
   </g>
   <g id="QuadContourSet_2">
    <path d="M 76.980381 522.104948 
L 171.439485 517.197444 
L 195.701869 515.718957 
L 232.453614 511.966004 
L 266.719683 506.734564 
L 286.692248 501.503123 
L 298.77153 496.271683 
L 306.350897 491.040242 
L 311.284783 485.808802 
L 314.423357 480.970967 
L 316.830356 480.577361 
L 344.952882 475.345921 
L 363.87838 470.11448 
L 376.856631 464.88304 
L 385.875782 459.651599 
L 392.179367 454.420159 
L 396.560645 449.188718 
L 399.534248 443.957278 
L 401.43875 438.725837 
L 402.499595 433.494397 
L 402.868913 428.262956 
L 402.651676 423.031516 
L 401.923625 417.800075 
L 400.743957 412.568635 
L 399.164167 407.337194 
L 397.233436 402.105754 
L 395.000434 396.874313 
L 392.511588 391.642873 
L 389.806695 386.411432 
L 386.913772 381.179992 
L 383.845602 375.948551 
L 380.599742 370.717111 
L 377.16216 365.48567 
L 373.512709 360.25423 
L 369.62955 355.022789 
L 365.489909 349.791349 
L 361.066105 344.559908 
L 356.318255 339.328468 
L 351.187161 334.097027 
L 345.591694 328.865587 
L 339.433576 323.634146 
L 332.609464 318.402706 
L 325.026922 313.171265 
L 316.618845 307.939825 
L 314.423357 306.627572 
L 312.914874 302.708385 
L 310.684379 297.476944 
L 308.192838 292.245504 
L 305.445281 287.014063 
L 302.444056 281.782623 
L 299.184106 276.551182 
L 295.651232 271.319742 
L 291.824598 266.088301 
L 287.68355 260.856861 
L 283.217791 255.62542 
L 278.439234 250.39398 
L 273.393083 245.162539 
L 268.164647 239.931099 
L 262.877602 234.699658 
L 257.680518 229.468218 
L 252.723079 224.236777 
L 248.130239 219.005337 
L 243.986579 213.773896 
L 240.339108 208.542456 
L 237.215918 203.311015 
L 234.648025 198.079575 
L 232.679459 192.848134 
L 231.356885 187.616694 
L 230.701081 182.385253 
L 230.673502 177.153813 
L 231.156063 171.922372 
L 231.956755 166.690932 
L 232.84023 161.459491 
L 233.570509 156.228051 
L 233.950881 150.99661 
L 233.852541 145.76517 
L 233.230813 140.533729 
L 232.130012 135.302289 
L 230.675366 130.070848 
L 229.047962 124.839408 
L 227.441743 119.607967 
L 226.011203 114.376527 
L 224.827574 109.145086 
L 223.860373 103.913646 
L 222.988429 98.682206 
L 222.03002 93.450765 
L 220.776355 88.219325 
L 219.017667 82.987884 
L 216.559674 77.756444 
L 213.23403 72.525003 
L 208.907708 67.293563 
L 203.494282 62.062122 
L 196.966855 56.830682 
L 195.701869 55.919649 
L 191.042998 56.830682 
L 166.037983 62.062122 
L 142.879593 67.293563 
L 120.785716 72.525003 
L 99.008447 77.756444 
L 76.980381 82.987884 
L 76.980381 82.987884 
L 73.012309 88.219325 
L 69.874716 93.450765 
L 67.502308 98.682206 
L 65.777764 103.913646 
L 64.537466 109.145086 
L 63.593525 114.376527 
L 62.770926 119.607967 
L 61.949843 124.839408 
L 61.096595 130.070848 
L 60.268593 135.302289 
L 59.590193 140.533729 
L 59.209629 145.76517 
L 59.252871 150.99661 
L 59.786852 156.228051 
L 60.797813 161.459491 
L 62.186311 166.690932 
L 63.779314 171.922372 
L 65.358347 177.153813 
L 66.697802 182.385253 
L 67.600762 187.616694 
L 67.917224 192.848134 
L 67.536915 198.079575 
L 66.363761 203.311015 
L 64.292083 208.542456 
L 61.206693 213.773896 
L 57.017381 219.005337 
L 51.716751 224.236777 
L 45.429941 229.468218 
L 38.421762 234.699658 
L 31.049396 239.931099 
L 23.682213 245.162539 
L 16.62698 250.39398 
L 10.085876 255.62542 
L 4.151349 260.856861 
L -1.174095 266.088301 
L -5.947936 271.319742 
L -10.257522 276.551182 
L -14.194674 281.782623 
L -17.837161 287.014063 
L -21.238362 292.245504 
L -24.425611 297.476944 
L -27.405925 302.708385 
L -30.17582 307.939825 
L -32.731064 313.171265 
L -35.073304 318.402706 
L -37.212473 323.634146 
L -39.165726 328.865587 
L -40.954387 334.097027 
L -41.741107 336.469954 
L -48.165024 339.328468 
L -59.45676 344.559908 
L -69.816397 349.791349 
L -79.31929 355.022789 
L -88.016292 360.25423 
L -95.946758 365.48567 
L -103.149067 370.717111 
L -109.665275 375.948551 
L -115.540042 381.179992 
L -120.816437 386.411432 
L -125.531801 391.642873 
L -129.715935 396.874313 
L -133.392229 402.105754 
L -136.580751 407.337194 
L -139.301546 412.568635 
L -141.57658 417.800075 
L -143.429615 423.031516 
L -144.884176 428.262956 
L -145.96023 433.494397 
L -146.670159 438.725837 
L -147.014229 443.957278 
L -146.975281 449.188718 
L -146.511806 454.420159 
L -145.547997 459.651599 
L -143.958394 464.88304 
L -141.543296 470.11448 
L -137.988316 475.345921 
L -132.79648 480.577361 
L -125.17184 485.808802 
L -113.815573 491.040242 
L -96.560324 496.271683 
L -69.698096 501.503123 
L -41.741107 505.326342 
L -37.73284 506.734564 
L -17.952306 511.966004 
L 17.702874 517.197444 
z
M 58.33648 506.734564 
L 14.527837 501.503123 
L -11.71556 496.271683 
L -27.814611 491.040242 
L -37.878442 485.808802 
L -41.741107 482.967833 
L -52.943087 480.577361 
L -71.991236 475.345921 
L -85.084717 470.11448 
L -94.029044 464.88304 
L -99.966444 459.651599 
L -103.622481 454.420159 
L -105.452936 449.188718 
L -105.733128 443.957278 
L -104.61363 438.725837 
L -102.156449 433.494397 
L -98.360171 428.262956 
L -93.179326 423.031516 
L -86.540947 417.800075 
L -78.359335 412.568635 
L -68.548264 407.337194 
L -57.028476 402.105754 
L -43.728136 396.874313 
L -41.741107 396.113503 
L -39.808468 391.642873 
L -37.358229 386.411432 
L -34.673779 381.179992 
L -31.73926 375.948551 
L -28.535674 370.717111 
L -25.041967 365.48567 
L -21.236403 360.25423 
L -17.097193 355.022789 
L -12.601271 349.791349 
L -7.720764 344.559908 
L -2.417852 339.328468 
L 3.359933 334.097027 
L 9.681234 328.865587 
L 16.626954 323.634146 
L 24.280261 318.402706 
L 32.712234 313.171265 
L 41.967355 307.939825 
L 52.055188 302.708385 
L 62.95512 297.476944 
L 74.638403 292.245504 
L 76.980381 291.188574 
L 134.532306 287.014063 
L 195.701869 282.643698 
L 205.908625 287.014063 
L 217.420055 292.245504 
L 228.05062 297.476944 
L 237.792899 302.708385 
L 246.641293 307.939825 
L 254.610497 313.171265 
L 261.743172 318.402706 
L 268.107049 323.634146 
L 273.784992 328.865587 
L 278.862679 334.097027 
L 283.418106 339.328468 
L 287.515626 344.559908 
L 291.205215 349.791349 
L 294.525759 355.022789 
L 297.509922 360.25423 
L 300.188113 365.48567 
L 302.590051 370.717111 
L 304.743805 375.948551 
L 306.673332 381.179992 
L 308.396023 386.411432 
L 309.921558 391.642873 
L 311.2526 396.874313 
L 312.386969 402.105754 
L 313.320303 407.337194 
L 314.048125 412.568635 
L 314.423357 416.284113 
L 315.676411 417.800075 
L 318.462891 423.031516 
L 319.382773 428.262956 
L 318.162827 433.494397 
L 314.423357 438.725837 
L 314.423357 438.725837 
L 313.749777 443.957278 
L 312.741332 449.188718 
L 311.31445 454.420159 
L 309.339733 459.651599 
L 306.617158 464.88304 
L 302.835193 470.11448 
L 297.501828 475.345921 
L 289.825522 480.577361 
L 278.504869 485.808802 
L 261.347793 491.040242 
L 234.564348 496.271683 
L 195.701869 501.141375 
L 190.514953 501.503123 
L 109.366986 506.734564 
L 76.980381 508.524119 
z
" clip-path="url(#p7f6872f84b)" style="fill: #e5f0e5; fill-opacity: 0.5"/>
    <path d="M 76.980381 508.524119 
L 109.366986 506.734564 
L 190.514953 501.503123 
L 195.701869 501.141375 
L 234.564348 496.271683 
L 261.347793 491.040242 
L 278.504869 485.808802 
L 289.825522 480.577361 
L 297.501828 475.345921 
L 302.835193 470.11448 
L 306.617158 464.88304 
L 309.339733 459.651599 
L 311.31445 454.420159 
L 312.741332 449.188718 
L 313.749777 443.957278 
L 314.423357 438.725837 
L 314.423357 438.725837 
L 318.162827 433.494397 
L 319.382773 428.262956 
L 318.462891 423.031516 
L 315.676411 417.800075 
L 314.423357 416.284113 
L 314.048125 412.568635 
L 313.320303 407.337194 
L 312.386969 402.105754 
L 311.2526 396.874313 
L 309.921558 391.642873 
L 308.396023 386.411432 
L 306.673332 381.179992 
L 304.743805 375.948551 
L 302.590051 370.717111 
L 300.188113 365.48567 
L 297.509922 360.25423 
L 294.525759 355.022789 
L 291.205215 349.791349 
L 287.515626 344.559908 
L 283.418106 339.328468 
L 278.862679 334.097027 
L 273.784992 328.865587 
L 268.107049 323.634146 
L 261.743172 318.402706 
L 254.610497 313.171265 
L 246.641293 307.939825 
L 237.792899 302.708385 
L 228.05062 297.476944 
L 217.420055 292.245504 
L 205.908625 287.014063 
L 195.701869 282.643698 
L 134.532306 287.014063 
L 76.980381 291.188574 
L 74.638403 292.245504 
L 62.95512 297.476944 
L 52.055188 302.708385 
L 41.967355 307.939825 
L 32.712234 313.171265 
L 24.280261 318.402706 
L 16.626954 323.634146 
L 9.681234 328.865587 
L 3.359933 334.097027 
L -2.417852 339.328468 
L -7.720764 344.559908 
L -12.601271 349.791349 
L -17.097193 355.022789 
L -21.236403 360.25423 
L -25.041967 365.48567 
L -28.535674 370.717111 
L -31.73926 375.948551 
L -34.673779 381.179992 
L -37.358229 386.411432 
L -39.808468 391.642873 
L -41.741107 396.113503 
L -43.728136 396.874313 
L -57.028476 402.105754 
L -68.548264 407.337194 
L -78.359335 412.568635 
L -86.540947 417.800075 
L -93.179326 423.031516 
L -98.360171 428.262956 
L -102.156449 433.494397 
L -104.61363 438.725837 
L -105.733128 443.957278 
L -105.452936 449.188718 
L -103.622481 454.420159 
L -99.966444 459.651599 
L -94.029044 464.88304 
L -85.084717 470.11448 
L -71.991236 475.345921 
L -52.943087 480.577361 
L -41.741107 482.967833 
L -37.878442 485.808802 
L -27.814611 491.040242 
L -11.71556 496.271683 
L 14.527837 501.503123 
L 58.33648 506.734564 
z
M 60.756863 496.271683 
L 23.997806 491.040242 
L 0.612369 485.808802 
L -14.562434 480.577361 
L -24.548568 475.345921 
L -31.159428 470.11448 
L -35.507831 464.88304 
L -38.289759 459.651599 
L -39.946681 454.420159 
L -40.76055 449.188718 
L -40.910669 443.957278 
L -40.50854 438.725837 
L -39.619836 433.494397 
L -38.27881 428.262956 
L -36.498299 423.031516 
L -34.277153 417.800075 
L -31.606082 412.568635 
L -28.472232 407.337194 
L -24.862265 402.105754 
L -20.763549 396.874313 
L -16.163171 391.642873 
L -11.045143 386.411432 
L -5.386988 381.179992 
L 0.842648 375.948551 
L 7.683983 370.717111 
L 15.183485 365.48567 
L 23.390028 360.25423 
L 32.352445 355.022789 
L 42.121319 349.791349 
L 52.756434 344.559908 
L 64.338478 339.328468 
L 76.980381 334.097027 
L 76.980381 334.097027 
L 189.509087 328.865587 
L 195.701869 328.554651 
L 196.428517 328.865587 
L 208.476345 334.097027 
L 219.367405 339.328468 
L 229.237424 344.559908 
L 238.192335 349.791349 
L 246.315318 355.022789 
L 253.676811 360.25423 
L 260.342429 365.48567 
L 266.375864 370.717111 
L 271.836722 375.948551 
L 276.775506 381.179992 
L 281.228825 386.411432 
L 285.217373 391.642873 
L 288.747652 396.874313 
L 291.816578 402.105754 
L 294.416929 407.337194 
L 296.54145 412.568635 
L 298.184226 417.800075 
L 299.339027 423.031516 
L 299.995032 428.262956 
L 300.130481 433.494397 
L 299.704371 438.725837 
L 298.645627 443.957278 
L 296.838118 449.188718 
L 294.098636 454.420159 
L 290.142796 459.651599 
L 284.530364 464.88304 
L 276.575164 470.11448 
L 265.19308 475.345921 
L 248.639707 480.577361 
L 224.046806 485.808802 
L 195.701869 490.047084 
L 183.05055 491.040242 
L 107.900463 496.271683 
L 76.980381 498.126284 
z
" clip-path="url(#p7f6872f84b)" style="fill: #d4e8d4; fill-opacity: 0.5"/>
    <path d="M 76.980381 498.126284 
L 107.900463 496.271683 
L 183.05055 491.040242 
L 195.701869 490.047084 
L 224.046806 485.808802 
L 248.639707 480.577361 
L 265.19308 475.345921 
L 276.575164 470.11448 
L 284.530364 464.88304 
L 290.142796 459.651599 
L 294.098636 454.420159 
L 296.838118 449.188718 
L 298.645627 443.957278 
L 299.704371 438.725837 
L 300.130481 433.494397 
L 299.995032 428.262956 
L 299.339027 423.031516 
L 298.184226 417.800075 
L 296.54145 412.568635 
L 294.416929 407.337194 
L 291.816578 402.105754 
L 288.747652 396.874313 
L 285.217373 391.642873 
L 281.228825 386.411432 
L 276.775506 381.179992 
L 271.836722 375.948551 
L 266.375864 370.717111 
L 260.342429 365.48567 
L 253.676811 360.25423 
L 246.315318 355.022789 
L 238.192335 349.791349 
L 229.237424 344.559908 
L 219.367405 339.328468 
L 208.476345 334.097027 
L 196.428517 328.865587 
L 195.701869 328.554651 
L 189.509087 328.865587 
L 76.980381 334.097027 
L 76.980381 334.097027 
L 64.338478 339.328468 
L 52.756434 344.559908 
L 42.121319 349.791349 
L 32.352445 355.022789 
L 23.390028 360.25423 
L 15.183485 365.48567 
L 7.683983 370.717111 
L 0.842648 375.948551 
L -5.386988 381.179992 
L -11.045143 386.411432 
L -16.163171 391.642873 
L -20.763549 396.874313 
L -24.862265 402.105754 
L -28.472232 407.337194 
L -31.606082 412.568635 
L -34.277153 417.800075 
L -36.498299 423.031516 
L -38.27881 428.262956 
L -39.619836 433.494397 
L -40.50854 438.725837 
L -40.910669 443.957278 
L -40.76055 449.188718 
L -39.946681 454.420159 
L -38.289759 459.651599 
L -35.507831 464.88304 
L -31.159428 470.11448 
L -24.548568 475.345921 
L -14.562434 480.577361 
L 0.612369 485.808802 
L 23.997806 491.040242 
L 60.756863 496.271683 
z
M 75.729323 485.808802 
L 43.37006 480.577361 
L 21.787696 475.345921 
L 7.232333 470.11448 
L -2.598224 464.88304 
L -9.144678 459.651599 
L -13.321543 454.420159 
L -15.713343 449.188718 
L -16.69202 443.957278 
L -16.488869 438.725837 
L -15.239915 433.494397 
L -13.015752 428.262956 
L -9.842376 423.031516 
L -5.716875 417.800075 
L -0.61995 412.568635 
L 5.474155 407.337194 
L 12.590877 402.105754 
L 20.752791 396.874313 
L 29.981938 391.642873 
L 40.306305 386.411432 
L 51.76781 381.179992 
L 64.428048 375.948551 
L 76.980381 371.190492 
L 195.701869 370.717111 
L 207.616725 375.948551 
L 218.428241 381.179992 
L 228.210529 386.411432 
L 237.005784 391.642873 
L 244.827995 396.874313 
L 251.672317 402.105754 
L 257.525947 407.337194 
L 262.376201 412.568635 
L 266.213064 417.800075 
L 269.025616 423.031516 
L 270.793184 428.262956 
L 271.472269 433.494397 
L 270.979454 438.725837 
L 269.16904 443.957278 
L 265.802114 449.188718 
L 260.501021 454.420159 
L 252.678909 459.651599 
L 241.426761 464.88304 
L 225.32726 470.11448 
L 202.140765 475.345921 
L 195.701869 476.550519 
L 151.722578 480.577361 
L 79.61694 485.808802 
L 76.980381 485.985651 
z
" clip-path="url(#p7f6872f84b)" style="fill: #b4d8b4; fill-opacity: 0.5"/>
    <path d="M 76.980381 485.985651 
L 79.61694 485.808802 
L 151.722578 480.577361 
L 195.701869 476.550519 
L 202.140765 475.345921 
L 225.32726 470.11448 
L 241.426761 464.88304 
L 252.678909 459.651599 
L 260.501021 454.420159 
L 265.802114 449.188718 
L 269.16904 443.957278 
L 270.979454 438.725837 
L 271.472269 433.494397 
L 270.793184 428.262956 
L 269.025616 423.031516 
L 266.213064 417.800075 
L 262.376201 412.568635 
L 257.525947 407.337194 
L 251.672317 402.105754 
L 244.827995 396.874313 
L 237.005784 391.642873 
L 228.210529 386.411432 
L 218.428241 381.179992 
L 207.616725 375.948551 
L 195.701869 370.717111 
L 76.980381 371.190492 
L 64.428048 375.948551 
L 51.76781 381.179992 
L 40.306305 386.411432 
L 29.981938 391.642873 
L 20.752791 396.874313 
L 12.590877 402.105754 
L 5.474155 407.337194 
L -0.61995 412.568635 
L -5.716875 417.800075 
L -9.842376 423.031516 
L -13.015752 428.262956 
L -15.239915 433.494397 
L -16.488869 438.725837 
L -16.69202 443.957278 
L -15.713343 449.188718 
L -13.321543 454.420159 
L -9.144678 459.651599 
L -2.598224 464.88304 
L 7.232333 470.11448 
L 21.787696 475.345921 
L 43.37006 480.577361 
L 75.729323 485.808802 
z
M 61.484978 475.345921 
L 40.123388 470.11448 
L 25.59615 464.88304 
L 15.824544 459.651599 
L 9.48879 454.420159 
L 5.745143 449.188718 
L 4.056623 443.957278 
L 4.089305 438.725837 
L 5.646891 433.494397 
L 8.627658 428.262956 
L 12.994331 423.031516 
L 18.751335 417.800075 
L 25.926543 412.568635 
L 34.55676 407.337194 
L 44.677797 402.105754 
L 56.32074 396.874313 
L 69.515454 391.642873 
L 76.980381 388.861887 
L 195.701869 391.642873 
L 195.701869 391.642873 
L 207.201073 396.874313 
L 217.279858 402.105754 
L 225.920642 407.337194 
L 233.106092 412.568635 
L 238.822677 417.800075 
L 243.055459 423.031516 
L 245.775327 428.262956 
L 246.920156 433.494397 
L 246.370193 438.725837 
L 243.915808 443.957278 
L 239.212896 449.188718 
L 231.717215 454.420159 
L 220.582784 459.651599 
L 204.498969 464.88304 
L 195.701869 467.094808 
L 168.995094 470.11448 
L 113.437121 475.345921 
L 76.980381 478.209328 
z
" clip-path="url(#p7f6872f84b)" style="fill: #8fc68f; fill-opacity: 0.5"/>
    <path d="M 76.980381 478.209328 
L 113.437121 475.345921 
L 168.995094 470.11448 
L 195.701869 467.094808 
L 204.498969 464.88304 
L 220.582784 459.651599 
L 231.717215 454.420159 
L 239.212896 449.188718 
L 243.915808 443.957278 
L 246.370193 438.725837 
L 246.920156 433.494397 
L 245.775327 428.262956 
L 243.055459 423.031516 
L 238.822677 417.800075 
L 233.106092 412.568635 
L 225.920642 407.337194 
L 217.279858 402.105754 
L 207.201073 396.874313 
L 195.701869 391.642873 
L 195.701869 391.642873 
L 76.980381 388.861887 
L 69.515454 391.642873 
L 56.32074 396.874313 
L 44.677797 402.105754 
L 34.55676 407.337194 
L 25.926543 412.568635 
L 18.751335 417.800075 
L 12.994331 423.031516 
L 8.627658 428.262956 
L 5.646891 433.494397 
L 4.089305 438.725837 
L 4.056623 443.957278 
L 5.745143 449.188718 
L 9.48879 454.420159 
L 15.824544 459.651599 
L 25.59615 464.88304 
L 40.123388 470.11448 
L 61.484978 475.345921 
z
M 73.235513 470.11448 
L 53.980027 464.88304 
L 40.961592 459.651599 
L 32.452438 454.420159 
L 27.347857 449.188718 
L 24.944723 443.957278 
L 24.805791 438.725837 
L 26.674084 433.494397 
L 30.416539 428.262956 
L 35.984531 423.031516 
L 43.384003 417.800075 
L 52.651461 412.568635 
L 63.834838 407.337194 
L 76.980381 402.105754 
L 183.751375 407.337194 
L 195.701869 408.159731 
L 203.63925 412.568635 
L 211.248191 417.800075 
L 216.910749 423.031516 
L 220.589317 428.262956 
L 222.203023 433.494397 
L 221.595527 438.725837 
L 218.492842 443.957278 
L 212.444965 449.188718 
L 202.739946 454.420159 
L 195.701869 457.107277 
L 179.28266 459.651599 
L 138.112693 464.88304 
L 86.329571 470.11448 
L 76.980381 470.930151 
z
" clip-path="url(#p7f6872f84b)" style="fill: #6bb46b; fill-opacity: 0.5"/>
    <path d="M 76.980381 470.930151 
L 86.329571 470.11448 
L 138.112693 464.88304 
L 179.28266 459.651599 
L 195.701869 457.107277 
L 202.739946 454.420159 
L 212.444965 449.188718 
L 218.492842 443.957278 
L 221.595527 438.725837 
L 222.203023 433.494397 
L 220.589317 428.262956 
L 216.910749 423.031516 
L 211.248191 417.800075 
L 203.63925 412.568635 
L 195.701869 408.159731 
L 183.751375 407.337194 
L 76.980381 402.105754 
L 63.834838 407.337194 
L 52.651461 412.568635 
L 43.384003 417.800075 
L 35.984531 423.031516 
L 30.416539 428.262956 
L 26.674084 433.494397 
L 24.805791 438.725837 
L 24.944723 443.957278 
L 27.347857 449.188718 
L 32.452438 454.420159 
L 40.961592 459.651599 
L 53.980027 464.88304 
L 73.235513 470.11448 
z
M 71.733881 464.88304 
L 56.684584 459.651599 
L 46.815988 454.420159 
L 40.860156 449.188718 
L 38.010037 443.957278 
L 37.763762 438.725837 
L 39.8264 433.494397 
L 44.045285 428.262956 
L 50.364689 423.031516 
L 58.79151 417.800075 
L 69.367652 412.568635 
L 76.980381 409.33859 
L 129.740923 412.568635 
L 186.547065 417.800075 
L 195.701869 419.104611 
L 200.557473 423.031516 
L 204.8357 428.262956 
L 206.742683 433.494397 
L 206.099201 438.725837 
L 202.591011 443.957278 
L 195.701869 449.188718 
L 195.701869 449.188718 
L 168.921799 454.420159 
L 134.625469 459.651599 
L 90.92498 464.88304 
L 76.980381 466.269923 
z
" clip-path="url(#p7f6872f84b)" style="fill: #4ea64e; fill-opacity: 0.5"/>
    <path d="M 76.980381 466.269923 
L 90.92498 464.88304 
L 134.625469 459.651599 
L 168.921799 454.420159 
L 195.701869 449.188718 
L 195.701869 449.188718 
L 202.591011 443.957278 
L 206.099201 438.725837 
L 206.742683 433.494397 
L 204.8357 428.262956 
L 200.557473 423.031516 
L 195.701869 419.104611 
L 186.547065 417.800075 
L 129.740923 412.568635 
L 76.980381 409.33859 
L 69.367652 412.568635 
L 58.79151 417.800075 
L 50.364689 423.031516 
L 44.045285 428.262956 
L 39.8264 433.494397 
L 37.763762 438.725837 
L 38.010037 443.957278 
L 40.860156 449.188718 
L 46.815988 454.420159 
L 56.684584 459.651599 
L 71.733881 464.88304 
z
M 67.233999 459.651599 
L 56.453279 454.420159 
L 49.926296 449.188718 
L 46.77627 443.957278 
L 46.457973 438.725837 
L 48.651007 433.494397 
L 53.189554 428.262956 
L 60.013123 423.031516 
L 69.129248 417.800075 
L 76.980381 414.123719 
L 124.27428 417.800075 
L 167.125514 423.031516 
L 189.809608 428.262956 
L 195.701869 431.812832 
L 196.369496 433.494397 
L 195.701869 438.725837 
L 195.701869 438.725837 
L 184.631836 443.957278 
L 165.902897 449.188718 
L 139.547226 454.420159 
L 104.662521 459.651599 
L 76.980381 462.90971 
z
" clip-path="url(#p7f6872f84b)" style="fill: #3c9d3c; fill-opacity: 0.5"/>
    <path d="M 76.980381 462.90971 
L 104.662521 459.651599 
L 139.547226 454.420159 
L 165.902897 449.188718 
L 184.631836 443.957278 
L 195.701869 438.725837 
L 195.701869 438.725837 
L 196.369496 433.494397 
L 195.701869 431.812832 
L 189.809608 428.262956 
L 167.125514 423.031516 
L 124.27428 417.800075 
L 76.980381 414.123719 
L 69.129248 417.800075 
L 60.013123 423.031516 
L 53.189554 428.262956 
L 48.651007 433.494397 
L 46.457973 438.725837 
L 46.77627 443.957278 
L 49.926296 449.188718 
L 56.453279 454.420159 
L 67.233999 459.651599 
z
M 73.513851 449.188718 
L 69.583553 443.957278 
L 69.077873 438.725837 
L 71.610162 433.494397 
L 76.980381 428.262956 
L 99.946084 433.494397 
L 107.718373 438.725837 
L 103.343658 443.957278 
L 88.374321 449.188718 
L 76.980381 451.530671 
z
" clip-path="url(#p7f6872f84b)" style="fill: #209020; fill-opacity: 0.5"/>
    <path d="M 76.980381 451.530671 
L 88.374321 449.188718 
L 103.343658 443.957278 
L 107.718373 438.725837 
L 99.946084 433.494397 
L 76.980381 428.262956 
L 71.610162 433.494397 
L 69.077873 438.725837 
L 69.583553 443.957278 
L 73.513851 449.188718 
z
" clip-path="url(#p7f6872f84b)" style="fill: #068306; fill-opacity: 0.5"/>
   </g>
   <g id="matplotlib.axis_1">
    <g id="xtick_1">
     <g id="line2d_1">
      <defs>
       <path id="maa37d24815" d="M 0 0 
L 0 3.5 
" style="stroke: #000000; stroke-width: 0.8"/>
      </defs>
      <g>
       <use xlink:href="#maa37d24815" x="94.105871" y="499.48" style="stroke: #000000; stroke-width: 0.8"/>
      </g>
     </g>
     <g id="text_1">
      <!-- 0 -->
      <g transform="translate(87.107121 523.196563) scale(0.22 -0.22)">
       <defs>
        <path id="DejaVuSans-30" d="M 2034 4250 
Q 1547 4250 1301 3770 
Q 1056 3291 1056 2328 
Q 1056 1369 1301 889 
Q 1547 409 2034 409 
Q 2525 409 2770 889 
Q 3016 1369 3016 2328 
Q 3016 3291 2770 3770 
Q 2525 4250 2034 4250 
z
M 2034 4750 
Q 2819 4750 3233 4129 
Q 3647 3509 3647 2328 
Q 3647 1150 3233 529 
Q 2819 -91 2034 -91 
Q 1250 -91 836 529 
Q 422 1150 422 2328 
Q 422 3509 836 4129 
Q 1250 4750 2034 4750 
z
" transform="scale(0.015625)"/>
       </defs>
       <use xlink:href="#DejaVuSans-30"/>
      </g>
     </g>
    </g>
    <g id="xtick_2">
     <g id="line2d_2">
      <g>
       <use xlink:href="#maa37d24815" x="181.705537" y="499.48" style="stroke: #000000; stroke-width: 0.8"/>
      </g>
     </g>
     <g id="text_2">
      <!-- 10 -->
      <g transform="translate(167.708037 523.196563) scale(0.22 -0.22)">
       <defs>
        <path id="DejaVuSans-31" d="M 794 531 
L 1825 531 
L 1825 4091 
L 703 3866 
L 703 4441 
L 1819 4666 
L 2450 4666 
L 2450 531 
L 3481 531 
L 3481 0 
L 794 0 
L 794 531 
z
" transform="scale(0.015625)"/>
       </defs>
       <use xlink:href="#DejaVuSans-31"/>
       <use xlink:href="#DejaVuSans-30" x="63.623047"/>
      </g>
     </g>
    </g>
    <g id="xtick_3">
     <g id="line2d_3">
      <g>
       <use xlink:href="#maa37d24815" x="269.305203" y="499.48" style="stroke: #000000; stroke-width: 0.8"/>
      </g>
     </g>
     <g id="text_3">
      <!-- 20 -->
      <g transform="translate(255.307703 523.196563) scale(0.22 -0.22)">
       <defs>
        <path id="DejaVuSans-32" d="M 1228 531 
L 3431 531 
L 3431 0 
L 469 0 
L 469 531 
Q 828 903 1448 1529 
Q 2069 2156 2228 2338 
Q 2531 2678 2651 2914 
Q 2772 3150 2772 3378 
Q 2772 3750 2511 3984 
Q 2250 4219 1831 4219 
Q 1534 4219 1204 4116 
Q 875 4013 500 3803 
L 500 4441 
Q 881 4594 1212 4672 
Q 1544 4750 1819 4750 
Q 2544 4750 2975 4387 
Q 3406 4025 3406 3419 
Q 3406 3131 3298 2873 
Q 3191 2616 2906 2266 
Q 2828 2175 2409 1742 
Q 1991 1309 1228 531 
z
" transform="scale(0.015625)"/>
       </defs>
       <use xlink:href="#DejaVuSans-32"/>
       <use xlink:href="#DejaVuSans-30" x="63.623047"/>
      </g>
     </g>
    </g>
    <g id="xtick_4">
     <g id="line2d_4">
      <g>
       <use xlink:href="#maa37d24815" x="356.904868" y="499.48" style="stroke: #000000; stroke-width: 0.8"/>
      </g>
     </g>
     <g id="text_4">
      <!-- 30 -->
      <g transform="translate(342.907368 523.196563) scale(0.22 -0.22)">
       <defs>
        <path id="DejaVuSans-33" d="M 2597 2516 
Q 3050 2419 3304 2112 
Q 3559 1806 3559 1356 
Q 3559 666 3084 287 
Q 2609 -91 1734 -91 
Q 1441 -91 1130 -33 
Q 819 25 488 141 
L 488 750 
Q 750 597 1062 519 
Q 1375 441 1716 441 
Q 2309 441 2620 675 
Q 2931 909 2931 1356 
Q 2931 1769 2642 2001 
Q 2353 2234 1838 2234 
L 1294 2234 
L 1294 2753 
L 1863 2753 
Q 2328 2753 2575 2939 
Q 2822 3125 2822 3475 
Q 2822 3834 2567 4026 
Q 2313 4219 1838 4219 
Q 1578 4219 1281 4162 
Q 984 4106 628 3988 
L 628 4550 
Q 988 4650 1302 4700 
Q 1616 4750 1894 4750 
Q 2613 4750 3031 4423 
Q 3450 4097 3450 3541 
Q 3450 3153 3228 2886 
Q 3006 2619 2597 2516 
z
" transform="scale(0.015625)"/>
       </defs>
       <use xlink:href="#DejaVuSans-33"/>
       <use xlink:href="#DejaVuSans-30" x="63.623047"/>
      </g>
     </g>
    </g>
    <g id="xtick_5">
     <g id="line2d_5">
      <g>
       <use xlink:href="#maa37d24815" x="444.504534" y="499.48" style="stroke: #000000; stroke-width: 0.8"/>
      </g>
     </g>
     <g id="text_5">
      <!-- 40 -->
      <g transform="translate(430.507034 523.196563) scale(0.22 -0.22)">
       <defs>
        <path id="DejaVuSans-34" d="M 2419 4116 
L 825 1625 
L 2419 1625 
L 2419 4116 
z
M 2253 4666 
L 3047 4666 
L 3047 1625 
L 3713 1625 
L 3713 1100 
L 3047 1100 
L 3047 0 
L 2419 0 
L 2419 1100 
L 313 1100 
L 313 1709 
L 2253 4666 
z
" transform="scale(0.015625)"/>
       </defs>
       <use xlink:href="#DejaVuSans-34"/>
       <use xlink:href="#DejaVuSans-30" x="63.623047"/>
      </g>
     </g>
    </g>
    <g id="xtick_6">
     <g id="line2d_6">
      <g>
       <use xlink:href="#maa37d24815" x="532.1042" y="499.48" style="stroke: #000000; stroke-width: 0.8"/>
      </g>
     </g>
     <g id="text_6">
      <!-- 50 -->
      <g transform="translate(518.1067 523.196563) scale(0.22 -0.22)">
       <defs>
        <path id="DejaVuSans-35" d="M 691 4666 
L 3169 4666 
L 3169 4134 
L 1269 4134 
L 1269 2991 
Q 1406 3038 1543 3061 
Q 1681 3084 1819 3084 
Q 2600 3084 3056 2656 
Q 3513 2228 3513 1497 
Q 3513 744 3044 326 
Q 2575 -91 1722 -91 
Q 1428 -91 1123 -41 
Q 819 9 494 109 
L 494 744 
Q 775 591 1075 516 
Q 1375 441 1709 441 
Q 2250 441 2565 725 
Q 2881 1009 2881 1497 
Q 2881 1984 2565 2268 
Q 2250 2553 1709 2553 
Q 1456 2553 1204 2497 
Q 953 2441 691 2322 
L 691 4666 
z
" transform="scale(0.015625)"/>
       </defs>
       <use xlink:href="#DejaVuSans-35"/>
       <use xlink:href="#DejaVuSans-30" x="63.623047"/>
      </g>
     </g>
    </g>
    <g id="xtick_7">
     <g id="line2d_7">
      <g>
       <use xlink:href="#maa37d24815" x="619.703866" y="499.48" style="stroke: #000000; stroke-width: 0.8"/>
      </g>
     </g>
     <g id="text_7">
      <!-- 60 -->
      <g transform="translate(605.706366 523.196563) scale(0.22 -0.22)">
       <defs>
        <path id="DejaVuSans-36" d="M 2113 2584 
Q 1688 2584 1439 2293 
Q 1191 2003 1191 1497 
Q 1191 994 1439 701 
Q 1688 409 2113 409 
Q 2538 409 2786 701 
Q 3034 994 3034 1497 
Q 3034 2003 2786 2293 
Q 2538 2584 2113 2584 
z
M 3366 4563 
L 3366 3988 
Q 3128 4100 2886 4159 
Q 2644 4219 2406 4219 
Q 1781 4219 1451 3797 
Q 1122 3375 1075 2522 
Q 1259 2794 1537 2939 
Q 1816 3084 2150 3084 
Q 2853 3084 3261 2657 
Q 3669 2231 3669 1497 
Q 3669 778 3244 343 
Q 2819 -91 2113 -91 
Q 1303 -91 875 529 
Q 447 1150 447 2328 
Q 447 3434 972 4092 
Q 1497 4750 2381 4750 
Q 2619 4750 2861 4703 
Q 3103 4656 3366 4563 
z
" transform="scale(0.015625)"/>
       </defs>
       <use xlink:href="#DejaVuSans-36"/>
       <use xlink:href="#DejaVuSans-30" x="63.623047"/>
      </g>
     </g>
    </g>
    <g id="text_8">
     <!-- Energy Uncertainties -->
     <g transform="translate(274.662188 548.488438) scale(0.22 -0.22)">
      <defs>
       <path id="DejaVuSans-45" d="M 628 4666 
L 3578 4666 
L 3578 4134 
L 1259 4134 
L 1259 2753 
L 3481 2753 
L 3481 2222 
L 1259 2222 
L 1259 531 
L 3634 531 
L 3634 0 
L 628 0 
L 628 4666 
z
" transform="scale(0.015625)"/>
       <path id="DejaVuSans-6e" d="M 3513 2113 
L 3513 0 
L 2938 0 
L 2938 2094 
Q 2938 2591 2744 2837 
Q 2550 3084 2163 3084 
Q 1697 3084 1428 2787 
Q 1159 2491 1159 1978 
L 1159 0 
L 581 0 
L 581 3500 
L 1159 3500 
L 1159 2956 
Q 1366 3272 1645 3428 
Q 1925 3584 2291 3584 
Q 2894 3584 3203 3211 
Q 3513 2838 3513 2113 
z
" transform="scale(0.015625)"/>
       <path id="DejaVuSans-65" d="M 3597 1894 
L 3597 1613 
L 953 1613 
Q 991 1019 1311 708 
Q 1631 397 2203 397 
Q 2534 397 2845 478 
Q 3156 559 3463 722 
L 3463 178 
Q 3153 47 2828 -22 
Q 2503 -91 2169 -91 
Q 1331 -91 842 396 
Q 353 884 353 1716 
Q 353 2575 817 3079 
Q 1281 3584 2069 3584 
Q 2775 3584 3186 3129 
Q 3597 2675 3597 1894 
z
M 3022 2063 
Q 3016 2534 2758 2815 
Q 2500 3097 2075 3097 
Q 1594 3097 1305 2825 
Q 1016 2553 972 2059 
L 3022 2063 
z
" transform="scale(0.015625)"/>
       <path id="DejaVuSans-72" d="M 2631 2963 
Q 2534 3019 2420 3045 
Q 2306 3072 2169 3072 
Q 1681 3072 1420 2755 
Q 1159 2438 1159 1844 
L 1159 0 
L 581 0 
L 581 3500 
L 1159 3500 
L 1159 2956 
Q 1341 3275 1631 3429 
Q 1922 3584 2338 3584 
Q 2397 3584 2469 3576 
Q 2541 3569 2628 3553 
L 2631 2963 
z
" transform="scale(0.015625)"/>
       <path id="DejaVuSans-67" d="M 2906 1791 
Q 2906 2416 2648 2759 
Q 2391 3103 1925 3103 
Q 1463 3103 1205 2759 
Q 947 2416 947 1791 
Q 947 1169 1205 825 
Q 1463 481 1925 481 
Q 2391 481 2648 825 
Q 2906 1169 2906 1791 
z
M 3481 434 
Q 3481 -459 3084 -895 
Q 2688 -1331 1869 -1331 
Q 1566 -1331 1297 -1286 
Q 1028 -1241 775 -1147 
L 775 -588 
Q 1028 -725 1275 -790 
Q 1522 -856 1778 -856 
Q 2344 -856 2625 -561 
Q 2906 -266 2906 331 
L 2906 616 
Q 2728 306 2450 153 
Q 2172 0 1784 0 
Q 1141 0 747 490 
Q 353 981 353 1791 
Q 353 2603 747 3093 
Q 1141 3584 1784 3584 
Q 2172 3584 2450 3431 
Q 2728 3278 2906 2969 
L 2906 3500 
L 3481 3500 
L 3481 434 
z
" transform="scale(0.015625)"/>
       <path id="DejaVuSans-79" d="M 2059 -325 
Q 1816 -950 1584 -1140 
Q 1353 -1331 966 -1331 
L 506 -1331 
L 506 -850 
L 844 -850 
Q 1081 -850 1212 -737 
Q 1344 -625 1503 -206 
L 1606 56 
L 191 3500 
L 800 3500 
L 1894 763 
L 2988 3500 
L 3597 3500 
L 2059 -325 
z
" transform="scale(0.015625)"/>
       <path id="DejaVuSans-20" transform="scale(0.015625)"/>
       <path id="DejaVuSans-55" d="M 556 4666 
L 1191 4666 
L 1191 1831 
Q 1191 1081 1462 751 
Q 1734 422 2344 422 
Q 2950 422 3222 751 
Q 3494 1081 3494 1831 
L 3494 4666 
L 4128 4666 
L 4128 1753 
Q 4128 841 3676 375 
Q 3225 -91 2344 -91 
Q 1459 -91 1007 375 
Q 556 841 556 1753 
L 556 4666 
z
" transform="scale(0.015625)"/>
       <path id="DejaVuSans-63" d="M 3122 3366 
L 3122 2828 
Q 2878 2963 2633 3030 
Q 2388 3097 2138 3097 
Q 1578 3097 1268 2742 
Q 959 2388 959 1747 
Q 959 1106 1268 751 
Q 1578 397 2138 397 
Q 2388 397 2633 464 
Q 2878 531 3122 666 
L 3122 134 
Q 2881 22 2623 -34 
Q 2366 -91 2075 -91 
Q 1284 -91 818 406 
Q 353 903 353 1747 
Q 353 2603 823 3093 
Q 1294 3584 2113 3584 
Q 2378 3584 2631 3529 
Q 2884 3475 3122 3366 
z
" transform="scale(0.015625)"/>
       <path id="DejaVuSans-74" d="M 1172 4494 
L 1172 3500 
L 2356 3500 
L 2356 3053 
L 1172 3053 
L 1172 1153 
Q 1172 725 1289 603 
Q 1406 481 1766 481 
L 2356 481 
L 2356 0 
L 1766 0 
Q 1100 0 847 248 
Q 594 497 594 1153 
L 594 3053 
L 172 3053 
L 172 3500 
L 594 3500 
L 594 4494 
L 1172 4494 
z
" transform="scale(0.015625)"/>
       <path id="DejaVuSans-61" d="M 2194 1759 
Q 1497 1759 1228 1600 
Q 959 1441 959 1056 
Q 959 750 1161 570 
Q 1363 391 1709 391 
Q 2188 391 2477 730 
Q 2766 1069 2766 1631 
L 2766 1759 
L 2194 1759 
z
M 3341 1997 
L 3341 0 
L 2766 0 
L 2766 531 
Q 2569 213 2275 61 
Q 1981 -91 1556 -91 
Q 1019 -91 701 211 
Q 384 513 384 1019 
Q 384 1609 779 1909 
Q 1175 2209 1959 2209 
L 2766 2209 
L 2766 2266 
Q 2766 2663 2505 2880 
Q 2244 3097 1772 3097 
Q 1472 3097 1187 3025 
Q 903 2953 641 2809 
L 641 3341 
Q 956 3463 1253 3523 
Q 1550 3584 1831 3584 
Q 2591 3584 2966 3190 
Q 3341 2797 3341 1997 
z
" transform="scale(0.015625)"/>
       <path id="DejaVuSans-69" d="M 603 3500 
L 1178 3500 
L 1178 0 
L 603 0 
L 603 3500 
z
M 603 4863 
L 1178 4863 
L 1178 4134 
L 603 4134 
L 603 4863 
z
" transform="scale(0.015625)"/>
       <path id="DejaVuSans-73" d="M 2834 3397 
L 2834 2853 
Q 2591 2978 2328 3040 
Q 2066 3103 1784 3103 
Q 1356 3103 1142 2972 
Q 928 2841 928 2578 
Q 928 2378 1081 2264 
Q 1234 2150 1697 2047 
L 1894 2003 
Q 2506 1872 2764 1633 
Q 3022 1394 3022 966 
Q 3022 478 2636 193 
Q 2250 -91 1575 -91 
Q 1294 -91 989 -36 
Q 684 19 347 128 
L 347 722 
Q 666 556 975 473 
Q 1284 391 1588 391 
Q 1994 391 2212 530 
Q 2431 669 2431 922 
Q 2431 1156 2273 1281 
Q 2116 1406 1581 1522 
L 1381 1569 
Q 847 1681 609 1914 
Q 372 2147 372 2553 
Q 372 3047 722 3315 
Q 1072 3584 1716 3584 
Q 2034 3584 2315 3537 
Q 2597 3491 2834 3397 
z
" transform="scale(0.015625)"/>
      </defs>
      <use xlink:href="#DejaVuSans-45"/>
      <use xlink:href="#DejaVuSans-6e" x="63.183594"/>
      <use xlink:href="#DejaVuSans-65" x="126.5625"/>
      <use xlink:href="#DejaVuSans-72" x="188.085938"/>
      <use xlink:href="#DejaVuSans-67" x="227.449219"/>
      <use xlink:href="#DejaVuSans-79" x="290.925781"/>
      <use xlink:href="#DejaVuSans-20" x="350.105469"/>
      <use xlink:href="#DejaVuSans-55" x="381.892578"/>
      <use xlink:href="#DejaVuSans-6e" x="455.085938"/>
      <use xlink:href="#DejaVuSans-63" x="518.464844"/>
      <use xlink:href="#DejaVuSans-65" x="573.445312"/>
      <use xlink:href="#DejaVuSans-72" x="634.96875"/>
      <use xlink:href="#DejaVuSans-74" x="676.082031"/>
      <use xlink:href="#DejaVuSans-61" x="715.291016"/>
      <use xlink:href="#DejaVuSans-69" x="776.570312"/>
      <use xlink:href="#DejaVuSans-6e" x="804.353516"/>
      <use xlink:href="#DejaVuSans-74" x="867.732422"/>
      <use xlink:href="#DejaVuSans-69" x="906.941406"/>
      <use xlink:href="#DejaVuSans-65" x="934.724609"/>
      <use xlink:href="#DejaVuSans-73" x="996.248047"/>
     </g>
    </g>
   </g>
   <g id="matplotlib.axis_2">
    <g id="ytick_1">
     <g id="line2d_8">
      <defs>
       <path id="m4e53502c7d" d="M 0 0 
L -3.5 0 
" style="stroke: #000000; stroke-width: 0.8"/>
      </defs>
      <g>
       <use xlink:href="#m4e53502c7d" x="83.72" y="491.413706" style="stroke: #000000; stroke-width: 0.8"/>
      </g>
     </g>
     <g id="text_9">
      <!-- 0 -->
      <g transform="translate(62.7225 499.771987) scale(0.22 -0.22)">
       <use xlink:href="#DejaVuSans-30"/>
      </g>
     </g>
    </g>
    <g id="ytick_2">
     <g id="line2d_9">
      <g>
       <use xlink:href="#m4e53502c7d" x="83.72" y="423.378518" style="stroke: #000000; stroke-width: 0.8"/>
      </g>
     </g>
     <g id="text_10">
      <!-- 10 -->
      <g transform="translate(48.725 431.7368) scale(0.22 -0.22)">
       <use xlink:href="#DejaVuSans-31"/>
       <use xlink:href="#DejaVuSans-30" x="63.623047"/>
      </g>
     </g>
    </g>
    <g id="ytick_3">
     <g id="line2d_10">
      <g>
       <use xlink:href="#m4e53502c7d" x="83.72" y="355.343331" style="stroke: #000000; stroke-width: 0.8"/>
      </g>
     </g>
     <g id="text_11">
      <!-- 20 -->
      <g transform="translate(48.725 363.701612) scale(0.22 -0.22)">
       <use xlink:href="#DejaVuSans-32"/>
       <use xlink:href="#DejaVuSans-30" x="63.623047"/>
      </g>
     </g>
    </g>
    <g id="ytick_4">
     <g id="line2d_11">
      <g>
       <use xlink:href="#m4e53502c7d" x="83.72" y="287.308143" style="stroke: #000000; stroke-width: 0.8"/>
      </g>
     </g>
     <g id="text_12">
      <!-- 30 -->
      <g transform="translate(48.725 295.666425) scale(0.22 -0.22)">
       <use xlink:href="#DejaVuSans-33"/>
       <use xlink:href="#DejaVuSans-30" x="63.623047"/>
      </g>
     </g>
    </g>
    <g id="ytick_5">
     <g id="line2d_12">
      <g>
       <use xlink:href="#m4e53502c7d" x="83.72" y="219.272956" style="stroke: #000000; stroke-width: 0.8"/>
      </g>
     </g>
     <g id="text_13">
      <!-- 40 -->
      <g transform="translate(48.725 227.631237) scale(0.22 -0.22)">
       <use xlink:href="#DejaVuSans-34"/>
       <use xlink:href="#DejaVuSans-30" x="63.623047"/>
      </g>
     </g>
    </g>
    <g id="ytick_6">
     <g id="line2d_13">
      <g>
       <use xlink:href="#m4e53502c7d" x="83.72" y="151.237768" style="stroke: #000000; stroke-width: 0.8"/>
      </g>
     </g>
     <g id="text_14">
      <!-- 50 -->
      <g transform="translate(48.725 159.59605) scale(0.22 -0.22)">
       <use xlink:href="#DejaVuSans-35"/>
       <use xlink:href="#DejaVuSans-30" x="63.623047"/>
      </g>
     </g>
    </g>
    <g id="ytick_7">
     <g id="line2d_14">
      <g>
       <use xlink:href="#m4e53502c7d" x="83.72" y="83.202581" style="stroke: #000000; stroke-width: 0.8"/>
      </g>
     </g>
     <g id="text_15">
      <!-- 60 -->
      <g transform="translate(48.725 91.560862) scale(0.22 -0.22)">
       <use xlink:href="#DejaVuSans-36"/>
       <use xlink:href="#DejaVuSans-30" x="63.623047"/>
      </g>
     </g>
    </g>
    <g id="text_16">
     <!-- Force Errors [kJ/(mol*A)] -->
     <g transform="translate(40.149688 394.9125) rotate(-90) scale(0.22 -0.22)">
      <defs>
       <path id="DejaVuSans-46" d="M 628 4666 
L 3309 4666 
L 3309 4134 
L 1259 4134 
L 1259 2759 
L 3109 2759 
L 3109 2228 
L 1259 2228 
L 1259 0 
L 628 0 
L 628 4666 
z
" transform="scale(0.015625)"/>
       <path id="DejaVuSans-6f" d="M 1959 3097 
Q 1497 3097 1228 2736 
Q 959 2375 959 1747 
Q 959 1119 1226 758 
Q 1494 397 1959 397 
Q 2419 397 2687 759 
Q 2956 1122 2956 1747 
Q 2956 2369 2687 2733 
Q 2419 3097 1959 3097 
z
M 1959 3584 
Q 2709 3584 3137 3096 
Q 3566 2609 3566 1747 
Q 3566 888 3137 398 
Q 2709 -91 1959 -91 
Q 1206 -91 779 398 
Q 353 888 353 1747 
Q 353 2609 779 3096 
Q 1206 3584 1959 3584 
z
" transform="scale(0.015625)"/>
       <path id="DejaVuSans-5b" d="M 550 4863 
L 1875 4863 
L 1875 4416 
L 1125 4416 
L 1125 -397 
L 1875 -397 
L 1875 -844 
L 550 -844 
L 550 4863 
z
" transform="scale(0.015625)"/>
       <path id="DejaVuSans-6b" d="M 581 4863 
L 1159 4863 
L 1159 1991 
L 2875 3500 
L 3609 3500 
L 1753 1863 
L 3688 0 
L 2938 0 
L 1159 1709 
L 1159 0 
L 581 0 
L 581 4863 
z
" transform="scale(0.015625)"/>
       <path id="DejaVuSans-4a" d="M 628 4666 
L 1259 4666 
L 1259 325 
Q 1259 -519 939 -900 
Q 619 -1281 -91 -1281 
L -331 -1281 
L -331 -750 
L -134 -750 
Q 284 -750 456 -515 
Q 628 -281 628 325 
L 628 4666 
z
" transform="scale(0.015625)"/>
       <path id="DejaVuSans-2f" d="M 1625 4666 
L 2156 4666 
L 531 -594 
L 0 -594 
L 1625 4666 
z
" transform="scale(0.015625)"/>
       <path id="DejaVuSans-28" d="M 1984 4856 
Q 1566 4138 1362 3434 
Q 1159 2731 1159 2009 
Q 1159 1288 1364 580 
Q 1569 -128 1984 -844 
L 1484 -844 
Q 1016 -109 783 600 
Q 550 1309 550 2009 
Q 550 2706 781 3412 
Q 1013 4119 1484 4856 
L 1984 4856 
z
" transform="scale(0.015625)"/>
       <path id="DejaVuSans-6d" d="M 3328 2828 
Q 3544 3216 3844 3400 
Q 4144 3584 4550 3584 
Q 5097 3584 5394 3201 
Q 5691 2819 5691 2113 
L 5691 0 
L 5113 0 
L 5113 2094 
Q 5113 2597 4934 2840 
Q 4756 3084 4391 3084 
Q 3944 3084 3684 2787 
Q 3425 2491 3425 1978 
L 3425 0 
L 2847 0 
L 2847 2094 
Q 2847 2600 2669 2842 
Q 2491 3084 2119 3084 
Q 1678 3084 1418 2786 
Q 1159 2488 1159 1978 
L 1159 0 
L 581 0 
L 581 3500 
L 1159 3500 
L 1159 2956 
Q 1356 3278 1631 3431 
Q 1906 3584 2284 3584 
Q 2666 3584 2933 3390 
Q 3200 3197 3328 2828 
z
" transform="scale(0.015625)"/>
       <path id="DejaVuSans-6c" d="M 603 4863 
L 1178 4863 
L 1178 0 
L 603 0 
L 603 4863 
z
" transform="scale(0.015625)"/>
       <path id="DejaVuSans-2a" d="M 3009 3897 
L 1888 3291 
L 3009 2681 
L 2828 2375 
L 1778 3009 
L 1778 1831 
L 1422 1831 
L 1422 3009 
L 372 2375 
L 191 2681 
L 1313 3291 
L 191 3897 
L 372 4206 
L 1422 3572 
L 1422 4750 
L 1778 4750 
L 1778 3572 
L 2828 4206 
L 3009 3897 
z
" transform="scale(0.015625)"/>
       <path id="DejaVuSans-41" d="M 2188 4044 
L 1331 1722 
L 3047 1722 
L 2188 4044 
z
M 1831 4666 
L 2547 4666 
L 4325 0 
L 3669 0 
L 3244 1197 
L 1141 1197 
L 716 0 
L 50 0 
L 1831 4666 
z
" transform="scale(0.015625)"/>
       <path id="DejaVuSans-29" d="M 513 4856 
L 1013 4856 
Q 1481 4119 1714 3412 
Q 1947 2706 1947 2009 
Q 1947 1309 1714 600 
Q 1481 -109 1013 -844 
L 513 -844 
Q 928 -128 1133 580 
Q 1338 1288 1338 2009 
Q 1338 2731 1133 3434 
Q 928 4138 513 4856 
z
" transform="scale(0.015625)"/>
       <path id="DejaVuSans-5d" d="M 1947 4863 
L 1947 -844 
L 622 -844 
L 622 -397 
L 1369 -397 
L 1369 4416 
L 622 4416 
L 622 4863 
L 1947 4863 
z
" transform="scale(0.015625)"/>
      </defs>
      <use xlink:href="#DejaVuSans-46"/>
      <use xlink:href="#DejaVuSans-6f" x="53.894531"/>
      <use xlink:href="#DejaVuSans-72" x="115.076172"/>
      <use xlink:href="#DejaVuSans-63" x="153.939453"/>
      <use xlink:href="#DejaVuSans-65" x="208.919922"/>
      <use xlink:href="#DejaVuSans-20" x="270.443359"/>
      <use xlink:href="#DejaVuSans-45" x="302.230469"/>
      <use xlink:href="#DejaVuSans-72" x="365.414062"/>
      <use xlink:href="#DejaVuSans-72" x="404.777344"/>
      <use xlink:href="#DejaVuSans-6f" x="443.640625"/>
      <use xlink:href="#DejaVuSans-72" x="504.822266"/>
      <use xlink:href="#DejaVuSans-73" x="545.935547"/>
      <use xlink:href="#DejaVuSans-20" x="598.035156"/>
      <use xlink:href="#DejaVuSans-5b" x="629.822266"/>
      <use xlink:href="#DejaVuSans-6b" x="668.835938"/>
      <use xlink:href="#DejaVuSans-4a" x="726.746094"/>
      <use xlink:href="#DejaVuSans-2f" x="756.238281"/>
      <use xlink:href="#DejaVuSans-28" x="789.929688"/>
      <use xlink:href="#DejaVuSans-6d" x="828.943359"/>
      <use xlink:href="#DejaVuSans-6f" x="926.355469"/>
      <use xlink:href="#DejaVuSans-6c" x="987.537109"/>
      <use xlink:href="#DejaVuSans-2a" x="1015.320312"/>
      <use xlink:href="#DejaVuSans-41" x="1065.320312"/>
      <use xlink:href="#DejaVuSans-29" x="1133.728516"/>
      <use xlink:href="#DejaVuSans-5d" x="1172.742188"/>
     </g>
    </g>
   </g>
   <g id="line2d_15">
    <path d="M 83.72 499.48 
L 696.24 23.76 
" clip-path="url(#p7f6872f84b)" style="fill: none; stroke-dasharray: 5.55,2.4; stroke-dashoffset: 0; stroke: #ff0000; stroke-width: 1.5"/>
   </g>
   <g id="patch_3">
    <path d="M 83.72 499.48 
L 83.72 23.76 
" style="fill: none; stroke: #000000; stroke-width: 0.8; stroke-linejoin: miter; stroke-linecap: square"/>
   </g>
   <g id="patch_4">
    <path d="M 696.24 499.48 
L 696.24 23.76 
" style="fill: none; stroke: #000000; stroke-width: 0.8; stroke-linejoin: miter; stroke-linecap: square"/>
   </g>
   <g id="patch_5">
    <path d="M 83.72 499.48 
L 696.24 499.48 
" style="fill: none; stroke: #000000; stroke-width: 0.8; stroke-linejoin: miter; stroke-linecap: square"/>
   </g>
   <g id="patch_6">
    <path d="M 83.72 23.76 
L 696.24 23.76 
" style="fill: none; stroke: #000000; stroke-width: 0.8; stroke-linejoin: miter; stroke-linecap: square"/>
   </g>
   <g id="text_17">
    <!-- Correlation in: 0.129 -->
    <g transform="translate(132.7216 46.696813) scale(0.22 -0.22)">
     <defs>
      <path id="DejaVuSans-43" d="M 4122 4306 
L 4122 3641 
Q 3803 3938 3442 4084 
Q 3081 4231 2675 4231 
Q 1875 4231 1450 3742 
Q 1025 3253 1025 2328 
Q 1025 1406 1450 917 
Q 1875 428 2675 428 
Q 3081 428 3442 575 
Q 3803 722 4122 1019 
L 4122 359 
Q 3791 134 3420 21 
Q 3050 -91 2638 -91 
Q 1578 -91 968 557 
Q 359 1206 359 2328 
Q 359 3453 968 4101 
Q 1578 4750 2638 4750 
Q 3056 4750 3426 4639 
Q 3797 4528 4122 4306 
z
" transform="scale(0.015625)"/>
      <path id="DejaVuSans-3a" d="M 750 794 
L 1409 794 
L 1409 0 
L 750 0 
L 750 794 
z
M 750 3309 
L 1409 3309 
L 1409 2516 
L 750 2516 
L 750 3309 
z
" transform="scale(0.015625)"/>
      <path id="DejaVuSans-2e" d="M 684 794 
L 1344 794 
L 1344 0 
L 684 0 
L 684 794 
z
" transform="scale(0.015625)"/>
      <path id="DejaVuSans-39" d="M 703 97 
L 703 672 
Q 941 559 1184 500 
Q 1428 441 1663 441 
Q 2288 441 2617 861 
Q 2947 1281 2994 2138 
Q 2813 1869 2534 1725 
Q 2256 1581 1919 1581 
Q 1219 1581 811 2004 
Q 403 2428 403 3163 
Q 403 3881 828 4315 
Q 1253 4750 1959 4750 
Q 2769 4750 3195 4129 
Q 3622 3509 3622 2328 
Q 3622 1225 3098 567 
Q 2575 -91 1691 -91 
Q 1453 -91 1209 -44 
Q 966 3 703 97 
z
M 1959 2075 
Q 2384 2075 2632 2365 
Q 2881 2656 2881 3163 
Q 2881 3666 2632 3958 
Q 2384 4250 1959 4250 
Q 1534 4250 1286 3958 
Q 1038 3666 1038 3163 
Q 1038 2656 1286 2365 
Q 1534 2075 1959 2075 
z
" transform="scale(0.015625)"/>
     </defs>
     <use xlink:href="#DejaVuSans-43"/>
     <use xlink:href="#DejaVuSans-6f" x="69.824219"/>
     <use xlink:href="#DejaVuSans-72" x="131.005859"/>
     <use xlink:href="#DejaVuSans-72" x="170.369141"/>
     <use xlink:href="#DejaVuSans-65" x="209.232422"/>
     <use xlink:href="#DejaVuSans-6c" x="270.755859"/>
     <use xlink:href="#DejaVuSans-61" x="298.539062"/>
     <use xlink:href="#DejaVuSans-74" x="359.818359"/>
     <use xlink:href="#DejaVuSans-69" x="399.027344"/>
     <use xlink:href="#DejaVuSans-6f" x="426.810547"/>
     <use xlink:href="#DejaVuSans-6e" x="487.992188"/>
     <use xlink:href="#DejaVuSans-20" x="551.371094"/>
     <use xlink:href="#DejaVuSans-69" x="583.158203"/>
     <use xlink:href="#DejaVuSans-6e" x="610.941406"/>
     <use xlink:href="#DejaVuSans-3a" x="674.320312"/>
     <use xlink:href="#DejaVuSans-20" x="708.011719"/>
     <use xlink:href="#DejaVuSans-30" x="739.798828"/>
     <use xlink:href="#DejaVuSans-2e" x="803.421875"/>
     <use xlink:href="#DejaVuSans-31" x="835.208984"/>
     <use xlink:href="#DejaVuSans-32" x="898.832031"/>
     <use xlink:href="#DejaVuSans-39" x="962.455078"/>
    </g>
    <!-- Correlation Out: 0.110 -->
    <g transform="translate(132.7216 71.332) scale(0.22 -0.22)">
     <defs>
      <path id="DejaVuSans-4f" d="M 2522 4238 
Q 1834 4238 1429 3725 
Q 1025 3213 1025 2328 
Q 1025 1447 1429 934 
Q 1834 422 2522 422 
Q 3209 422 3611 934 
Q 4013 1447 4013 2328 
Q 4013 3213 3611 3725 
Q 3209 4238 2522 4238 
z
M 2522 4750 
Q 3503 4750 4090 4092 
Q 4678 3434 4678 2328 
Q 4678 1225 4090 567 
Q 3503 -91 2522 -91 
Q 1538 -91 948 565 
Q 359 1222 359 2328 
Q 359 3434 948 4092 
Q 1538 4750 2522 4750 
z
" transform="scale(0.015625)"/>
      <path id="DejaVuSans-75" d="M 544 1381 
L 544 3500 
L 1119 3500 
L 1119 1403 
Q 1119 906 1312 657 
Q 1506 409 1894 409 
Q 2359 409 2629 706 
Q 2900 1003 2900 1516 
L 2900 3500 
L 3475 3500 
L 3475 0 
L 2900 0 
L 2900 538 
Q 2691 219 2414 64 
Q 2138 -91 1772 -91 
Q 1169 -91 856 284 
Q 544 659 544 1381 
z
M 1991 3584 
L 1991 3584 
z
" transform="scale(0.015625)"/>
     </defs>
     <use xlink:href="#DejaVuSans-43"/>
     <use xlink:href="#DejaVuSans-6f" x="69.824219"/>
     <use xlink:href="#DejaVuSans-72" x="131.005859"/>
     <use xlink:href="#DejaVuSans-72" x="170.369141"/>
     <use xlink:href="#DejaVuSans-65" x="209.232422"/>
     <use xlink:href="#DejaVuSans-6c" x="270.755859"/>
     <use xlink:href="#DejaVuSans-61" x="298.539062"/>
     <use xlink:href="#DejaVuSans-74" x="359.818359"/>
     <use xlink:href="#DejaVuSans-69" x="399.027344"/>
     <use xlink:href="#DejaVuSans-6f" x="426.810547"/>
     <use xlink:href="#DejaVuSans-6e" x="487.992188"/>
     <use xlink:href="#DejaVuSans-20" x="551.371094"/>
     <use xlink:href="#DejaVuSans-4f" x="583.158203"/>
     <use xlink:href="#DejaVuSans-75" x="661.869141"/>
     <use xlink:href="#DejaVuSans-74" x="725.248047"/>
     <use xlink:href="#DejaVuSans-3a" x="764.457031"/>
     <use xlink:href="#DejaVuSans-20" x="798.148438"/>
     <use xlink:href="#DejaVuSans-30" x="829.935547"/>
     <use xlink:href="#DejaVuSans-2e" x="893.558594"/>
     <use xlink:href="#DejaVuSans-31" x="925.345703"/>
     <use xlink:href="#DejaVuSans-31" x="988.96875"/>
     <use xlink:href="#DejaVuSans-30" x="1052.591797"/>
    </g>
   </g>
   <g id="legend_1">
    <g id="patch_7">
     <path d="M 407.0225 105.94375 
L 680.84 105.94375 
Q 685.24 105.94375 685.24 101.54375 
L 685.24 39.16 
Q 685.24 34.76 680.84 34.76 
L 407.0225 34.76 
Q 402.6225 34.76 402.6225 39.16 
L 402.6225 101.54375 
Q 402.6225 105.94375 407.0225 105.94375 
z
" style="fill: #ffffff; opacity: 0.8; stroke: #cccccc; stroke-linejoin: miter"/>
    </g>
    <g id="line2d_16">
     <defs>
      <path id="m3f51e3cba7" d="M 0 2.5 
C 0.663008 2.5 1.29895 2.236584 1.767767 1.767767 
C 2.236584 1.29895 2.5 0.663008 2.5 0 
C 2.5 -0.663008 2.236584 -1.29895 1.767767 -1.767767 
C 1.29895 -2.236584 0.663008 -2.5 0 -2.5 
C -0.663008 -2.5 -1.29895 -2.236584 -1.767767 -1.767767 
C -2.236584 -1.29895 -2.5 -0.663008 -2.5 0 
C -2.5 0.663008 -2.236584 1.29895 -1.767767 1.767767 
C -1.29895 2.236584 -0.663008 2.5 0 2.5 
z
" style="stroke: #ffffff"/>
     </defs>
     <g>
      <use xlink:href="#m3f51e3cba7" x="433.4225" y="52.576563" style="fill: #0000ff; stroke: #ffffff"/>
     </g>
    </g>
    <g id="text_18">
     <!-- In Distribution -->
     <g transform="translate(473.0225 60.276563) scale(0.22 -0.22)">
      <defs>
       <path id="DejaVuSans-49" d="M 628 4666 
L 1259 4666 
L 1259 0 
L 628 0 
L 628 4666 
z
" transform="scale(0.015625)"/>
       <path id="DejaVuSans-44" d="M 1259 4147 
L 1259 519 
L 2022 519 
Q 2988 519 3436 956 
Q 3884 1394 3884 2338 
Q 3884 3275 3436 3711 
Q 2988 4147 2022 4147 
L 1259 4147 
z
M 628 4666 
L 1925 4666 
Q 3281 4666 3915 4102 
Q 4550 3538 4550 2338 
Q 4550 1131 3912 565 
Q 3275 0 1925 0 
L 628 0 
L 628 4666 
z
" transform="scale(0.015625)"/>
       <path id="DejaVuSans-62" d="M 3116 1747 
Q 3116 2381 2855 2742 
Q 2594 3103 2138 3103 
Q 1681 3103 1420 2742 
Q 1159 2381 1159 1747 
Q 1159 1113 1420 752 
Q 1681 391 2138 391 
Q 2594 391 2855 752 
Q 3116 1113 3116 1747 
z
M 1159 2969 
Q 1341 3281 1617 3432 
Q 1894 3584 2278 3584 
Q 2916 3584 3314 3078 
Q 3713 2572 3713 1747 
Q 3713 922 3314 415 
Q 2916 -91 2278 -91 
Q 1894 -91 1617 61 
Q 1341 213 1159 525 
L 1159 0 
L 581 0 
L 581 4863 
L 1159 4863 
L 1159 2969 
z
" transform="scale(0.015625)"/>
      </defs>
      <use xlink:href="#DejaVuSans-49"/>
      <use xlink:href="#DejaVuSans-6e" x="29.492188"/>
      <use xlink:href="#DejaVuSans-20" x="92.871094"/>
      <use xlink:href="#DejaVuSans-44" x="124.658203"/>
      <use xlink:href="#DejaVuSans-69" x="201.660156"/>
      <use xlink:href="#DejaVuSans-73" x="229.443359"/>
      <use xlink:href="#DejaVuSans-74" x="281.542969"/>
      <use xlink:href="#DejaVuSans-72" x="320.751953"/>
      <use xlink:href="#DejaVuSans-69" x="361.865234"/>
      <use xlink:href="#DejaVuSans-62" x="389.648438"/>
      <use xlink:href="#DejaVuSans-75" x="453.125"/>
      <use xlink:href="#DejaVuSans-74" x="516.503906"/>
      <use xlink:href="#DejaVuSans-69" x="555.712891"/>
      <use xlink:href="#DejaVuSans-6f" x="583.496094"/>
      <use xlink:href="#DejaVuSans-6e" x="644.677734"/>
     </g>
    </g>
    <g id="line2d_17">
     <defs>
      <path id="me4a24dd090" d="M 0 2.5 
C 0.663008 2.5 1.29895 2.236584 1.767767 1.767767 
C 2.236584 1.29895 2.5 0.663008 2.5 0 
C 2.5 -0.663008 2.236584 -1.29895 1.767767 -1.767767 
C 1.29895 -2.236584 0.663008 -2.5 0 -2.5 
C -0.663008 -2.5 -1.29895 -2.236584 -1.767767 -1.767767 
C -2.236584 -1.29895 -2.5 -0.663008 -2.5 0 
C -2.5 0.663008 -2.236584 1.29895 -1.767767 1.767767 
C -1.29895 2.236584 -0.663008 2.5 0 2.5 
z
" style="stroke: #ffffff"/>
     </defs>
     <g>
      <use xlink:href="#me4a24dd090" x="433.4225" y="84.868438" style="fill: #008000; stroke: #ffffff"/>
     </g>
    </g>
    <g id="text_19">
     <!-- Out of Distribution -->
     <g transform="translate(473.0225 92.568438) scale(0.22 -0.22)">
      <defs>
       <path id="DejaVuSans-66" d="M 2375 4863 
L 2375 4384 
L 1825 4384 
Q 1516 4384 1395 4259 
Q 1275 4134 1275 3809 
L 1275 3500 
L 2222 3500 
L 2222 3053 
L 1275 3053 
L 1275 0 
L 697 0 
L 697 3053 
L 147 3053 
L 147 3500 
L 697 3500 
L 697 3744 
Q 697 4328 969 4595 
Q 1241 4863 1831 4863 
L 2375 4863 
z
" transform="scale(0.015625)"/>
      </defs>
      <use xlink:href="#DejaVuSans-4f"/>
      <use xlink:href="#DejaVuSans-75" x="78.710938"/>
      <use xlink:href="#DejaVuSans-74" x="142.089844"/>
      <use xlink:href="#DejaVuSans-20" x="181.298828"/>
      <use xlink:href="#DejaVuSans-6f" x="213.085938"/>
      <use xlink:href="#DejaVuSans-66" x="274.267578"/>
      <use xlink:href="#DejaVuSans-20" x="309.472656"/>
      <use xlink:href="#DejaVuSans-44" x="341.259766"/>
      <use xlink:href="#DejaVuSans-69" x="418.261719"/>
      <use xlink:href="#DejaVuSans-73" x="446.044922"/>
      <use xlink:href="#DejaVuSans-74" x="498.144531"/>
      <use xlink:href="#DejaVuSans-72" x="537.353516"/>
      <use xlink:href="#DejaVuSans-69" x="578.466797"/>
      <use xlink:href="#DejaVuSans-62" x="606.25"/>
      <use xlink:href="#DejaVuSans-75" x="669.726562"/>
      <use xlink:href="#DejaVuSans-74" x="733.105469"/>
      <use xlink:href="#DejaVuSans-69" x="772.314453"/>
      <use xlink:href="#DejaVuSans-6f" x="800.097656"/>
      <use xlink:href="#DejaVuSans-6e" x="861.279297"/>
     </g>
    </g>
   </g>
  </g>
 </g>
 <defs>
  <clipPath id="p7f6872f84b">
   <rect x="83.72" y="23.76" width="612.52" height="475.72"/>
  </clipPath>
 </defs>
</svg>
