<?xml version="1.0" encoding="utf-8" standalone="no"?>
<!DOCTYPE svg PUBLIC "-//W3C//DTD SVG 1.1//EN"
  "http://www.w3.org/Graphics/SVG/1.1/DTD/svg11.dtd">
<svg xmlns:xlink="http://www.w3.org/1999/xlink" width="720pt" height="576pt" viewBox="0 0 720 576" xmlns="http://www.w3.org/2000/svg" version="1.1">
 <metadata>
  <rdf:RDF xmlns:dc="http://purl.org/dc/elements/1.1/" xmlns:cc="http://creativecommons.org/ns#" xmlns:rdf="http://www.w3.org/1999/02/22-rdf-syntax-ns#">
   <cc:Work>
    <dc:type rdf:resource="http://purl.org/dc/dcmitype/StillImage"/>
    <dc:date>2024-12-08T12:36:50.196254</dc:date>
    <dc:format>image/svg+xml</dc:format>
    <dc:creator>
     <cc:Agent>
      <dc:title>Matplotlib v3.8.4, https://matplotlib.org/</dc:title>
     </cc:Agent>
    </dc:creator>
   </cc:Work>
  </rdf:RDF>
 </metadata>
 <defs>
  <style type="text/css">*{stroke-linejoin: round; stroke-linecap: butt}</style>
 </defs>
 <g id="figure_1">
  <g id="patch_1">
   <path d="M 0 576 
L 720 576 
L 720 0 
L 0 0 
z
" style="fill: #ffffff"/>
  </g>
  <g id="axes_1">
   <g id="patch_2">
    <path d="M 69.68 499.48 
L 685.081969 499.48 
L 685.081969 23.76 
L 69.68 23.76 
z
" style="fill: #ffffff"/>
   </g>
   <g id="QuadContourSet_1">
    <path d="M 145.81215 494.098584 
L 149.686496 494.873799 
L 153.029192 493.857791 
L 153.560842 493.743035 
L 157.435188 491.559002 
L 161.309534 487.784175 
L 162.108476 486.81342 
L 165.183881 483.686519 
L 168.143285 479.769048 
L 169.058227 478.678374 
L 172.932573 472.925555 
L 173.058696 472.724676 
L 176.806919 466.207035 
L 177.10283 465.680305 
L 180.471977 458.635933 
L 180.681265 458.093682 
L 183.772321 451.591562 
L 184.555611 449.351101 
L 187.022781 444.54719 
L 188.429957 440.840491 
L 190.199324 437.502818 
L 192.304303 432.499621 
L 193.19896 430.458447 
L 195.975586 423.414075 
L 196.178649 422.841625 
L 198.503005 416.369703 
L 200.052996 411.240262 
L 200.68337 409.325332 
L 202.622521 402.28096 
L 203.927342 395.374187 
L 203.963487 395.236588 
L 205.299351 388.192217 
L 206.113567 381.147845 
L 206.657938 374.103473 
L 207.09001 367.059102 
L 207.470462 360.01473 
L 207.801688 352.970359 
L 207.801688 352.970359 
L 208.214482 345.925987 
L 208.455431 338.881615 
L 208.524158 331.837244 
L 208.432826 324.792872 
L 208.198414 317.7485 
L 207.8285 310.704129 
L 207.801688 310.320538 
L 207.482339 303.659757 
L 207.065081 296.615385 
L 206.590301 289.571014 
L 206.102387 282.526642 
L 205.656091 275.48227 
L 205.288796 268.437899 
L 204.999342 261.393527 
L 204.75549 254.349155 
L 204.519688 247.304784 
L 204.2631 240.260412 
L 203.958598 233.216041 
L 203.927342 232.639076 
L 203.707355 226.171669 
L 203.383596 219.127297 
L 202.948693 212.082926 
L 202.389533 205.038554 
L 201.710369 197.994182 
L 200.923974 190.949811 
L 200.052996 184.049777 
L 200.039443 183.905439 
L 199.320958 176.861067 
L 198.448299 169.816696 
L 197.376379 162.772324 
L 196.178649 156.189016 
L 196.096304 155.727952 
L 194.820556 148.683581 
L 193.521693 141.639209 
L 192.366844 134.594838 
L 192.304303 134.108663 
L 191.616839 127.550466 
L 191.011141 120.506094 
L 190.390893 113.461723 
L 189.60991 106.417351 
L 188.521165 99.372979 
L 188.429957 98.88629 
L 187.124173 92.328608 
L 185.018944 85.284236 
L 184.555611 83.999245 
L 182.228233 78.239864 
L 180.681265 74.768349 
L 179.033778 71.195493 
L 176.806919 65.81979 
L 176.052177 64.151121 
L 173.372188 57.106749 
L 172.932573 55.812406 
L 169.856133 50.062378 
L 169.058227 48.750428 
L 165.183881 45.5918 
L 161.309534 43.356928 
L 160.838962 43.018006 
L 157.435188 40.320886 
L 153.560842 37.921986 
L 149.686496 39.147462 
L 147.523227 43.018006 
L 145.81215 45.880948 
L 144.5069 50.062378 
L 142.540134 57.106749 
L 141.937804 59.625117 
L 141.101666 64.151121 
L 140.062589 71.195493 
L 139.273127 78.239864 
L 138.678674 85.284236 
L 138.219345 92.328608 
L 138.063458 95.022031 
L 137.787602 99.372979 
L 137.311803 106.417351 
L 136.758422 113.461723 
L 136.106691 120.506094 
L 135.365989 127.550466 
L 134.571589 134.594838 
L 134.189112 137.894303 
L 133.663024 141.639209 
L 132.731609 148.683581 
L 131.926275 155.727952 
L 131.248894 162.772324 
L 130.671896 169.816696 
L 130.314766 174.473673 
L 130.059915 176.861067 
L 129.283864 183.905439 
L 128.552593 190.949811 
L 127.881746 197.994182 
L 127.290062 205.038554 
L 126.791248 212.082926 
L 126.44042 218.161187 
L 126.349363 219.127297 
L 125.786168 226.171669 
L 125.35719 233.216041 
L 125.028365 240.260412 
L 124.763351 247.304784 
L 124.527702 254.349155 
L 124.29492 261.393527 
L 124.051011 268.437899 
L 123.793514 275.48227 
L 123.526343 282.526642 
L 123.255522 289.571014 
L 122.988291 296.615385 
L 122.733684 303.659757 
L 122.566073 308.615437 
L 122.410286 310.704129 
L 121.927047 317.7485 
L 121.53346 324.792872 
L 121.226812 331.837244 
L 120.996276 338.881615 
L 120.828525 345.925987 
L 120.712707 352.970359 
L 120.642912 360.01473 
L 120.617681 367.059102 
L 120.637923 374.103473 
L 120.705458 381.147845 
L 120.823602 388.192217 
L 120.999525 395.236588 
L 121.24691 402.28096 
L 121.587764 409.325332 
L 122.053723 416.369703 
L 122.566073 422.17626 
L 122.618204 423.414075 
L 122.99015 430.458447 
L 123.512205 437.502818 
L 124.259951 444.54719 
L 125.359399 451.591562 
L 126.44042 456.595042 
L 126.763486 458.635933 
L 128.216737 465.680305 
L 130.314766 472.182352 
L 130.492714 472.724676 
L 133.232295 479.769048 
L 134.189112 481.808011 
L 137.366385 486.81342 
L 138.063458 487.906387 
L 141.937804 492.043121 
L 145.459942 493.857791 
z
M 141.060816 458.635933 
L 138.063458 454.053624 
L 137.02318 451.591562 
L 134.646827 444.54719 
L 134.189112 442.814001 
L 132.893581 437.502818 
L 131.640345 430.458447 
L 130.765444 423.414075 
L 130.314766 418.476663 
L 130.058117 416.369703 
L 129.376277 409.325332 
L 128.888321 402.28096 
L 128.546546 395.236588 
L 128.316878 388.192217 
L 128.175282 381.147845 
L 128.105459 374.103473 
L 128.096776 367.059102 
L 128.142609 360.01473 
L 128.239788 352.970359 
L 128.389349 345.925987 
L 128.597647 338.881615 
L 128.876185 331.837244 
L 129.239023 324.792872 
L 129.698116 317.7485 
L 130.258486 310.704129 
L 130.314766 310.051104 
L 130.674318 303.659757 
L 131.114298 296.615385 
L 131.596868 289.571014 
L 132.125768 282.526642 
L 132.712679 275.48227 
L 133.371636 268.437899 
L 134.111063 261.393527 
L 134.189112 260.65086 
L 134.708145 254.349155 
L 135.340374 247.304784 
L 136.041051 240.260412 
L 136.833878 233.216041 
L 137.758168 226.171669 
L 138.063458 224.055889 
L 138.754243 219.127297 
L 139.918265 212.082926 
L 141.318754 205.038554 
L 141.937804 202.181954 
L 142.949368 197.994182 
L 144.803959 190.949811 
L 145.81215 187.365921 
L 146.972921 183.905439 
L 149.512455 176.861067 
L 149.686496 176.389838 
L 152.7052 169.816696 
L 153.560842 167.989581 
L 156.794996 162.772324 
L 157.435188 161.65665 
L 161.309534 157.432556 
L 165.183881 156.770506 
L 169.058227 161.299902 
L 169.625752 162.772324 
L 172.605453 169.816696 
L 172.932573 170.529771 
L 175.233167 176.861067 
L 176.806919 181.148062 
L 177.774924 183.905439 
L 180.111102 190.949811 
L 180.681265 192.831298 
L 182.184716 197.994182 
L 183.837453 205.038554 
L 184.555611 208.857359 
L 185.165376 212.082926 
L 186.255414 219.127297 
L 187.073932 226.171669 
L 187.679446 233.216041 
L 188.118441 240.260412 
L 188.429957 247.304784 
L 188.429957 247.304784 
L 188.738953 254.349155 
L 188.98327 261.393527 
L 189.207752 268.437899 
L 189.443979 275.48227 
L 189.694392 282.526642 
L 189.928974 289.571014 
L 190.100834 296.615385 
L 190.169614 303.659757 
L 190.116771 310.704129 
L 189.946774 317.7485 
L 189.677546 324.792872 
L 189.326028 331.837244 
L 188.894893 338.881615 
L 188.429957 345.129157 
L 188.392377 345.925987 
L 188.00435 352.970359 
L 187.517637 360.01473 
L 186.905299 367.059102 
L 186.133911 374.103473 
L 185.152573 381.147845 
L 184.555611 384.646885 
L 184.156077 388.192217 
L 183.176834 395.236588 
L 181.89771 402.28096 
L 180.681265 407.592989 
L 180.383272 409.325332 
L 178.982045 416.369703 
L 177.131631 423.414075 
L 176.806919 424.509992 
L 175.230117 430.458447 
L 172.932573 436.989189 
L 172.740786 437.502818 
L 169.717963 444.54719 
L 169.058227 445.88298 
L 165.517173 451.591562 
L 165.183881 452.107011 
L 161.309534 456.797457 
L 159.05606 458.635933 
L 157.435188 460.127388 
L 153.560842 462.44451 
L 149.686496 463.391172 
L 145.81215 462.764908 
L 141.937804 459.892709 
z
" clip-path="url(#pf00f65c150)" style="fill: #eef5fc"/>
    <path d="M 141.937804 459.892709 
L 145.81215 462.764908 
L 149.686496 463.391172 
L 153.560842 462.44451 
L 157.435188 460.127388 
L 159.05606 458.635933 
L 161.309534 456.797457 
L 165.183881 452.107011 
L 165.517173 451.591562 
L 169.058227 445.88298 
L 169.717963 444.54719 
L 172.740786 437.502818 
L 172.932573 436.989189 
L 175.230117 430.458447 
L 176.806919 424.509992 
L 177.131631 423.414075 
L 178.982045 416.369703 
L 180.383272 409.325332 
L 180.681265 407.592989 
L 181.89771 402.28096 
L 183.176834 395.236588 
L 184.156077 388.192217 
L 184.555611 384.646885 
L 185.152573 381.147845 
L 186.133911 374.103473 
L 186.905299 367.059102 
L 187.517637 360.01473 
L 188.00435 352.970359 
L 188.392377 345.925987 
L 188.429957 345.129157 
L 188.894893 338.881615 
L 189.326028 331.837244 
L 189.677546 324.792872 
L 189.946774 317.7485 
L 190.116771 310.704129 
L 190.169614 303.659757 
L 190.100834 296.615385 
L 189.928974 289.571014 
L 189.694392 282.526642 
L 189.443979 275.48227 
L 189.207752 268.437899 
L 188.98327 261.393527 
L 188.738953 254.349155 
L 188.429957 247.304784 
L 188.429957 247.304784 
L 188.118441 240.260412 
L 187.679446 233.216041 
L 187.073932 226.171669 
L 186.255414 219.127297 
L 185.165376 212.082926 
L 184.555611 208.857359 
L 183.837453 205.038554 
L 182.184716 197.994182 
L 180.681265 192.831298 
L 180.111102 190.949811 
L 177.774924 183.905439 
L 176.806919 181.148062 
L 175.233167 176.861067 
L 172.932573 170.529771 
L 172.605453 169.816696 
L 169.625752 162.772324 
L 169.058227 161.299902 
L 165.183881 156.770506 
L 161.309534 157.432556 
L 157.435188 161.65665 
L 156.794996 162.772324 
L 153.560842 167.989581 
L 152.7052 169.816696 
L 149.686496 176.389838 
L 149.512455 176.861067 
L 146.972921 183.905439 
L 145.81215 187.365921 
L 144.803959 190.949811 
L 142.949368 197.994182 
L 141.937804 202.181954 
L 141.318754 205.038554 
L 139.918265 212.082926 
L 138.754243 219.127297 
L 138.063458 224.055889 
L 137.758168 226.171669 
L 136.833878 233.216041 
L 136.041051 240.260412 
L 135.340374 247.304784 
L 134.708145 254.349155 
L 134.189112 260.65086 
L 134.111063 261.393527 
L 133.371636 268.437899 
L 132.712679 275.48227 
L 132.125768 282.526642 
L 131.596868 289.571014 
L 131.114298 296.615385 
L 130.674318 303.659757 
L 130.314766 310.051104 
L 130.258486 310.704129 
L 129.698116 317.7485 
L 129.239023 324.792872 
L 128.876185 331.837244 
L 128.597647 338.881615 
L 128.389349 345.925987 
L 128.239788 352.970359 
L 128.142609 360.01473 
L 128.096776 367.059102 
L 128.105459 374.103473 
L 128.175282 381.147845 
L 128.316878 388.192217 
L 128.546546 395.236588 
L 128.888321 402.28096 
L 129.376277 409.325332 
L 130.058117 416.369703 
L 130.314766 418.476663 
L 130.765444 423.414075 
L 131.640345 430.458447 
L 132.893581 437.502818 
L 134.189112 442.814001 
L 134.646827 444.54719 
L 137.02318 451.591562 
L 138.063458 454.053624 
L 141.060816 458.635933 
z
M 143.916635 444.54719 
L 141.937804 442.506966 
L 139.521064 437.502818 
L 138.063458 433.7076 
L 137.146285 430.458447 
L 135.591887 423.414075 
L 134.503794 416.369703 
L 134.189112 413.686606 
L 133.633439 409.325332 
L 132.963107 402.28096 
L 132.496913 395.236588 
L 132.187095 388.192217 
L 131.999358 381.147845 
L 131.909325 374.103473 
L 131.899941 367.059102 
L 131.959644 360.01473 
L 132.081729 352.970359 
L 132.264982 345.925987 
L 132.514629 338.881615 
L 132.841963 331.837244 
L 133.261439 324.792872 
L 133.785589 317.7485 
L 134.189112 313.147345 
L 134.357747 310.704129 
L 134.892506 303.659757 
L 135.488047 296.615385 
L 136.141802 289.571014 
L 136.863276 282.526642 
L 137.675473 275.48227 
L 138.063458 272.383779 
L 138.524698 268.437899 
L 139.431573 261.393527 
L 140.470009 254.349155 
L 141.652983 247.304784 
L 141.937804 245.664813 
L 142.985138 240.260412 
L 144.5019 233.216041 
L 145.81215 227.821889 
L 146.314847 226.171669 
L 148.587696 219.127297 
L 149.686496 215.97896 
L 151.45836 212.082926 
L 153.560842 207.550756 
L 155.166143 205.038554 
L 157.435188 201.385624 
L 161.309534 197.994182 
L 165.183881 198.075077 
L 169.058227 201.988881 
L 170.622905 205.038554 
L 172.932573 209.703908 
L 173.788701 212.082926 
L 176.039719 219.127297 
L 176.806919 221.932403 
L 177.796432 226.171669 
L 179.140346 233.216041 
L 180.171238 240.260412 
L 180.681265 244.720821 
L 180.978569 247.304784 
L 181.629085 254.349155 
L 182.128713 261.393527 
L 182.53698 268.437899 
L 182.900905 275.48227 
L 183.239229 282.526642 
L 183.536978 289.571014 
L 183.758263 296.615385 
L 183.868885 303.659757 
L 183.852652 310.704129 
L 183.714181 317.7485 
L 183.472197 324.792872 
L 183.150133 331.837244 
L 182.767925 338.881615 
L 182.335769 345.925987 
L 181.849524 352.970359 
L 181.28797 360.01473 
L 180.681265 366.375125 
L 180.634684 367.059102 
L 180.068611 374.103473 
L 179.348421 381.147845 
L 178.418307 388.192217 
L 177.214147 395.236588 
L 176.806919 397.261562 
L 175.946806 402.28096 
L 174.46008 409.325332 
L 172.932573 415.10862 
L 172.59796 416.369703 
L 170.446844 423.414075 
L 169.058227 427.147685 
L 167.588547 430.458447 
L 165.183881 435.187351 
L 163.576644 437.502818 
L 161.309534 440.643341 
L 157.435188 444.21641 
L 156.857029 444.54719 
L 153.560842 446.616226 
L 149.686496 447.508 
L 145.81215 446.436147 
z
" clip-path="url(#pf00f65c150)" style="fill: #d9e8f5"/>
    <path d="M 145.81215 446.436147 
L 149.686496 447.508 
L 153.560842 446.616226 
L 156.857029 444.54719 
L 157.435188 444.21641 
L 161.309534 440.643341 
L 163.576644 437.502818 
L 165.183881 435.187351 
L 167.588547 430.458447 
L 169.058227 427.147685 
L 170.446844 423.414075 
L 172.59796 416.369703 
L 172.932573 415.10862 
L 174.46008 409.325332 
L 175.946806 402.28096 
L 176.806919 397.261562 
L 177.214147 395.236588 
L 178.418307 388.192217 
L 179.348421 381.147845 
L 180.068611 374.103473 
L 180.634684 367.059102 
L 180.681265 366.375125 
L 181.28797 360.01473 
L 181.849524 352.970359 
L 182.335769 345.925987 
L 182.767925 338.881615 
L 183.150133 331.837244 
L 183.472197 324.792872 
L 183.714181 317.7485 
L 183.852652 310.704129 
L 183.868885 303.659757 
L 183.758263 296.615385 
L 183.536978 289.571014 
L 183.239229 282.526642 
L 182.900905 275.48227 
L 182.53698 268.437899 
L 182.128713 261.393527 
L 181.629085 254.349155 
L 180.978569 247.304784 
L 180.681265 244.720821 
L 180.171238 240.260412 
L 179.140346 233.216041 
L 177.796432 226.171669 
L 176.806919 221.932403 
L 176.039719 219.127297 
L 173.788701 212.082926 
L 172.932573 209.703908 
L 170.622905 205.038554 
L 169.058227 201.988881 
L 165.183881 198.075077 
L 161.309534 197.994182 
L 157.435188 201.385624 
L 155.166143 205.038554 
L 153.560842 207.550756 
L 151.45836 212.082926 
L 149.686496 215.97896 
L 148.587696 219.127297 
L 146.314847 226.171669 
L 145.81215 227.821889 
L 144.5019 233.216041 
L 142.985138 240.260412 
L 141.937804 245.664813 
L 141.652983 247.304784 
L 140.470009 254.349155 
L 139.431573 261.393527 
L 138.524698 268.437899 
L 138.063458 272.383779 
L 137.675473 275.48227 
L 136.863276 282.526642 
L 136.141802 289.571014 
L 135.488047 296.615385 
L 134.892506 303.659757 
L 134.357747 310.704129 
L 134.189112 313.147345 
L 133.785589 317.7485 
L 133.261439 324.792872 
L 132.841963 331.837244 
L 132.514629 338.881615 
L 132.264982 345.925987 
L 132.081729 352.970359 
L 131.959644 360.01473 
L 131.899941 367.059102 
L 131.909325 374.103473 
L 131.999358 381.147845 
L 132.187095 388.192217 
L 132.496913 395.236588 
L 132.963107 402.28096 
L 133.633439 409.325332 
L 134.189112 413.686606 
L 134.503794 416.369703 
L 135.591887 423.414075 
L 137.146285 430.458447 
L 138.063458 433.7076 
L 139.521064 437.502818 
L 141.937804 442.506966 
L 143.916635 444.54719 
z
M 143.092579 430.458447 
L 141.937804 428.684904 
L 140.046841 423.414075 
L 138.205192 416.369703 
L 138.063458 415.6827 
L 136.970092 409.325332 
L 136.103178 402.28096 
L 135.505557 395.236588 
L 135.112026 388.192217 
L 134.875562 381.147845 
L 134.762258 374.103473 
L 134.747956 367.059102 
L 134.815867 360.01473 
L 134.955415 352.970359 
L 135.162382 345.925987 
L 135.439524 338.881615 
L 135.796043 331.837244 
L 136.244658 324.792872 
L 136.796587 317.7485 
L 137.456476 310.704129 
L 138.063458 305.026927 
L 138.201702 303.659757 
L 138.949941 296.615385 
L 139.766742 289.571014 
L 140.666467 282.526642 
L 141.680501 275.48227 
L 141.937804 273.820003 
L 142.869795 268.437899 
L 144.242538 261.393527 
L 145.81215 254.377178 
L 145.82031 254.349155 
L 147.905171 247.304784 
L 149.686496 241.760855 
L 150.361556 240.260412 
L 153.560842 233.216041 
L 153.560842 233.216041 
L 157.435188 227.310367 
L 158.83765 226.171669 
L 161.309534 224.055704 
L 165.183881 224.213665 
L 166.908003 226.171669 
L 169.058227 228.722043 
L 170.897166 233.216041 
L 172.932573 239.025334 
L 173.236836 240.260412 
L 174.73889 247.304784 
L 175.905173 254.349155 
L 176.806879 261.393527 
L 176.806919 261.393888 
L 177.511913 268.437899 
L 178.118922 275.48227 
L 178.663687 282.526642 
L 179.140499 289.571014 
L 179.514479 296.615385 
L 179.748463 303.659757 
L 179.824835 310.704129 
L 179.751097 317.7485 
L 179.552814 324.792872 
L 179.262533 331.837244 
L 178.909563 338.881615 
L 178.511404 345.925987 
L 178.067042 352.970359 
L 177.553761 360.01473 
L 176.928713 367.059102 
L 176.806919 368.194194 
L 176.285381 374.103473 
L 175.49609 381.147845 
L 174.478074 388.192217 
L 173.169643 395.236588 
L 172.932573 396.341929 
L 171.678757 402.28096 
L 169.831722 409.325332 
L 169.058227 411.860777 
L 167.464315 416.369703 
L 165.183881 421.812175 
L 164.288036 423.414075 
L 161.309534 428.279423 
L 159.298494 430.458447 
L 157.435188 432.450266 
L 153.560842 434.932136 
L 149.686496 435.685974 
L 145.81215 434.120389 
z
" clip-path="url(#pf00f65c150)" style="fill: #c2d9ee"/>
    <path d="M 145.81215 434.120389 
L 149.686496 435.685974 
L 153.560842 434.932136 
L 157.435188 432.450266 
L 159.298494 430.458447 
L 161.309534 428.279423 
L 164.288036 423.414075 
L 165.183881 421.812175 
L 167.464315 416.369703 
L 169.058227 411.860777 
L 169.831722 409.325332 
L 171.678757 402.28096 
L 172.932573 396.341929 
L 173.169643 395.236588 
L 174.478074 388.192217 
L 175.49609 381.147845 
L 176.285381 374.103473 
L 176.806919 368.194194 
L 176.928713 367.059102 
L 177.553761 360.01473 
L 178.067042 352.970359 
L 178.511404 345.925987 
L 178.909563 338.881615 
L 179.262533 331.837244 
L 179.552814 324.792872 
L 179.751097 317.7485 
L 179.824835 310.704129 
L 179.748463 303.659757 
L 179.514479 296.615385 
L 179.140499 289.571014 
L 178.663687 282.526642 
L 178.118922 275.48227 
L 177.511913 268.437899 
L 176.806919 261.393888 
L 176.806879 261.393527 
L 175.905173 254.349155 
L 174.73889 247.304784 
L 173.236836 240.260412 
L 172.932573 239.025334 
L 170.897166 233.216041 
L 169.058227 228.722043 
L 166.908003 226.171669 
L 165.183881 224.213665 
L 161.309534 224.055704 
L 158.83765 226.171669 
L 157.435188 227.310367 
L 153.560842 233.216041 
L 153.560842 233.216041 
L 150.361556 240.260412 
L 149.686496 241.760855 
L 147.905171 247.304784 
L 145.82031 254.349155 
L 145.81215 254.377178 
L 144.242538 261.393527 
L 142.869795 268.437899 
L 141.937804 273.820003 
L 141.680501 275.48227 
L 140.666467 282.526642 
L 139.766742 289.571014 
L 138.949941 296.615385 
L 138.201702 303.659757 
L 138.063458 305.026927 
L 137.456476 310.704129 
L 136.796587 317.7485 
L 136.244658 324.792872 
L 135.796043 331.837244 
L 135.439524 338.881615 
L 135.162382 345.925987 
L 134.955415 352.970359 
L 134.815867 360.01473 
L 134.747956 367.059102 
L 134.762258 374.103473 
L 134.875562 381.147845 
L 135.112026 388.192217 
L 135.505557 395.236588 
L 136.103178 402.28096 
L 136.970092 409.325332 
L 138.063458 415.6827 
L 138.205192 416.369703 
L 140.046841 423.414075 
L 141.937804 428.684904 
L 143.092579 430.458447 
z
M 146.79856 423.414075 
L 145.81215 422.798777 
L 142.39853 416.369703 
L 141.937804 415.272987 
L 140.423269 409.325332 
L 139.143393 402.28096 
L 138.274536 395.236588 
L 138.063458 392.725318 
L 137.705671 388.192217 
L 137.357956 381.147845 
L 137.186234 374.103473 
L 137.156547 367.059102 
L 137.243621 360.01473 
L 137.429712 352.970359 
L 137.705424 345.925987 
L 138.063458 339.027474 
L 138.07073 338.881615 
L 138.500366 331.837244 
L 139.028827 324.792872 
L 139.665822 317.7485 
L 140.415106 310.704129 
L 141.272839 303.659757 
L 141.937804 298.677422 
L 142.24956 296.615385 
L 143.359301 289.571014 
L 144.57477 282.526642 
L 145.81215 276.084004 
L 145.966925 275.48227 
L 147.87448 268.437899 
L 149.686496 262.408201 
L 150.147871 261.393527 
L 153.392555 254.349155 
L 153.560842 253.983488 
L 157.435188 248.672675 
L 159.635291 247.304784 
L 161.309534 246.181391 
L 164.834909 247.304784 
L 165.183881 247.423609 
L 169.058227 254.349155 
L 169.058227 254.349155 
L 170.873999 261.393527 
L 172.320633 268.437899 
L 172.932573 271.877602 
L 173.418925 275.48227 
L 174.290716 282.526642 
L 175.051939 289.571014 
L 175.668117 296.615385 
L 176.097275 303.659757 
L 176.320455 310.704129 
L 176.351208 317.7485 
L 176.226553 324.792872 
L 175.991625 331.837244 
L 175.685828 338.881615 
L 175.332184 345.925987 
L 174.930423 352.970359 
L 174.455491 360.01473 
L 173.861874 367.059102 
L 173.090974 374.103473 
L 172.932573 375.268932 
L 172.163414 381.147845 
L 170.992678 388.192217 
L 169.501412 395.236588 
L 169.058227 397.031937 
L 167.584093 402.28096 
L 165.183881 409.293252 
L 165.169497 409.325332 
L 161.638888 416.369703 
L 161.309534 416.96 
L 157.435188 421.750581 
L 155.050895 423.414075 
L 153.560842 424.458353 
L 149.686496 425.112879 
z
" clip-path="url(#pf00f65c150)" style="fill: #9cc9e1"/>
    <path d="M 149.686496 425.112879 
L 153.560842 424.458353 
L 155.050895 423.414075 
L 157.435188 421.750581 
L 161.309534 416.96 
L 161.638888 416.369703 
L 165.169497 409.325332 
L 165.183881 409.293252 
L 167.584093 402.28096 
L 169.058227 397.031937 
L 169.501412 395.236588 
L 170.992678 388.192217 
L 172.163414 381.147845 
L 172.932573 375.268932 
L 173.090974 374.103473 
L 173.861874 367.059102 
L 174.455491 360.01473 
L 174.930423 352.970359 
L 175.332184 345.925987 
L 175.685828 338.881615 
L 175.991625 331.837244 
L 176.226553 324.792872 
L 176.351208 317.7485 
L 176.320455 310.704129 
L 176.097275 303.659757 
L 175.668117 296.615385 
L 175.051939 289.571014 
L 174.290716 282.526642 
L 173.418925 275.48227 
L 172.932573 271.877602 
L 172.320633 268.437899 
L 170.873999 261.393527 
L 169.058227 254.349155 
L 169.058227 254.349155 
L 165.183881 247.423609 
L 164.834909 247.304784 
L 161.309534 246.181391 
L 159.635291 247.304784 
L 157.435188 248.672675 
L 153.560842 253.983488 
L 153.392555 254.349155 
L 150.147871 261.393527 
L 149.686496 262.408201 
L 147.87448 268.437899 
L 145.966925 275.48227 
L 145.81215 276.084004 
L 144.57477 282.526642 
L 143.359301 289.571014 
L 142.24956 296.615385 
L 141.937804 298.677422 
L 141.272839 303.659757 
L 140.415106 310.704129 
L 139.665822 317.7485 
L 139.028827 324.792872 
L 138.500366 331.837244 
L 138.07073 338.881615 
L 138.063458 339.027474 
L 137.705424 345.925987 
L 137.429712 352.970359 
L 137.243621 360.01473 
L 137.156547 367.059102 
L 137.186234 374.103473 
L 137.357956 381.147845 
L 137.705671 388.192217 
L 138.063458 392.725318 
L 138.274536 395.236588 
L 139.143393 402.28096 
L 140.423269 409.325332 
L 141.937804 415.272987 
L 142.39853 416.369703 
L 145.81215 422.798777 
L 146.79856 423.414075 
z
M 144.786422 409.325332 
L 142.406798 402.28096 
L 141.937804 400.363601 
L 141.102963 395.236588 
L 140.319747 388.192217 
L 139.841459 381.147845 
L 139.599438 374.103473 
L 139.542875 367.059102 
L 139.634088 360.01473 
L 139.845788 352.970359 
L 140.160652 345.925987 
L 140.572431 338.881615 
L 141.086278 331.837244 
L 141.715744 324.792872 
L 141.937804 322.669653 
L 142.532671 317.7485 
L 143.503586 310.704129 
L 144.598394 303.659757 
L 145.81215 296.615385 
L 145.81215 296.615385 
L 147.516285 289.571014 
L 149.362636 282.526642 
L 149.686496 281.346629 
L 152.258324 275.48227 
L 153.560842 272.592219 
L 157.114928 268.437899 
L 157.435188 268.04693 
L 161.309534 266.96887 
L 163.020309 268.437899 
L 165.183881 270.508114 
L 167.070707 275.48227 
L 169.058227 281.565231 
L 169.250453 282.526642 
L 170.568947 289.571014 
L 171.653995 296.615385 
L 172.455671 303.659757 
L 172.932573 310.414661 
L 172.949575 310.704129 
L 173.14792 317.7485 
L 173.143699 324.792872 
L 172.987635 331.837244 
L 172.932573 333.30234 
L 172.725888 338.881615 
L 172.398744 345.925987 
L 172.009926 352.970359 
L 171.531793 360.01473 
L 170.914737 367.059102 
L 170.097445 374.103473 
L 169.058227 380.878115 
L 169.011846 381.147845 
L 167.534112 388.192217 
L 165.676025 395.236588 
L 165.183881 396.843046 
L 163.01442 402.28096 
L 161.309534 405.999086 
L 159.048973 409.325332 
L 157.435188 411.525777 
L 153.560842 414.512819 
L 149.686496 414.973184 
L 145.81215 411.651719 
z
" clip-path="url(#pf00f65c150)" style="fill: #6caed6"/>
    <path d="M 145.81215 411.651719 
L 149.686496 414.973184 
L 153.560842 414.512819 
L 157.435188 411.525777 
L 159.048973 409.325332 
L 161.309534 405.999086 
L 163.01442 402.28096 
L 165.183881 396.843046 
L 165.676025 395.236588 
L 167.534112 388.192217 
L 169.011846 381.147845 
L 169.058227 380.878115 
L 170.097445 374.103473 
L 170.914737 367.059102 
L 171.531793 360.01473 
L 172.009926 352.970359 
L 172.398744 345.925987 
L 172.725888 338.881615 
L 172.932573 333.30234 
L 172.987635 331.837244 
L 173.143699 324.792872 
L 173.14792 317.7485 
L 172.949575 310.704129 
L 172.932573 310.414661 
L 172.455671 303.659757 
L 171.653995 296.615385 
L 170.568947 289.571014 
L 169.250453 282.526642 
L 169.058227 281.565231 
L 167.070707 275.48227 
L 165.183881 270.508114 
L 163.020309 268.437899 
L 161.309534 266.96887 
L 157.435188 268.04693 
L 157.114928 268.437899 
L 153.560842 272.592219 
L 152.258324 275.48227 
L 149.686496 281.346629 
L 149.362636 282.526642 
L 147.516285 289.571014 
L 145.81215 296.615385 
L 145.81215 296.615385 
L 144.598394 303.659757 
L 143.503586 310.704129 
L 142.532671 317.7485 
L 141.937804 322.669653 
L 141.715744 324.792872 
L 141.086278 331.837244 
L 140.572431 338.881615 
L 140.160652 345.925987 
L 139.845788 352.970359 
L 139.634088 360.01473 
L 139.542875 367.059102 
L 139.599438 374.103473 
L 139.841459 381.147845 
L 140.319747 388.192217 
L 141.102963 395.236588 
L 141.937804 400.363601 
L 142.406798 402.28096 
L 144.786422 409.325332 
z
M 147.207168 402.28096 
L 145.81215 400.201238 
L 144.413545 395.236588 
L 143.072319 388.192217 
L 142.26789 381.147845 
L 141.937804 375.481515 
L 141.876206 374.103473 
L 141.785372 367.059102 
L 141.880124 360.01473 
L 141.937804 358.329509 
L 142.157433 352.970359 
L 142.583995 345.925987 
L 143.129732 338.881615 
L 143.791623 331.837244 
L 144.5796 324.792872 
L 145.509132 317.7485 
L 145.81215 315.724733 
L 146.85191 310.704129 
L 148.458739 303.659757 
L 149.686496 298.695701 
L 150.544711 296.615385 
L 153.560842 289.571014 
L 153.560842 289.571014 
L 157.435188 285.529725 
L 161.309534 285.787173 
L 164.023022 289.571014 
L 165.183881 291.367922 
L 166.747458 296.615385 
L 168.389115 303.659757 
L 169.058227 307.757145 
L 169.379662 310.704129 
L 169.851446 317.7485 
L 170.045693 324.792872 
L 170.036183 331.837244 
L 169.887926 338.881615 
L 169.639394 345.925987 
L 169.293472 352.970359 
L 169.058227 356.4575 
L 168.788409 360.01473 
L 168.066591 367.059102 
L 167.097036 374.103473 
L 165.810841 381.147845 
L 165.183881 383.885944 
L 163.905281 388.192217 
L 161.365258 395.236588 
L 161.309534 395.372163 
L 157.435188 401.771658 
L 156.862939 402.28096 
L 153.560842 405.045466 
L 149.686496 405.189488 
z
" clip-path="url(#pf00f65c150)" style="fill: #4493c7"/>
    <path d="M 149.686496 405.189488 
L 153.560842 405.045466 
L 156.862939 402.28096 
L 157.435188 401.771658 
L 161.309534 395.372163 
L 161.365258 395.236588 
L 163.905281 388.192217 
L 165.183881 383.885944 
L 165.810841 381.147845 
L 167.097036 374.103473 
L 168.066591 367.059102 
L 168.788409 360.01473 
L 169.058227 356.4575 
L 169.293472 352.970359 
L 169.639394 345.925987 
L 169.887926 338.881615 
L 170.036183 331.837244 
L 170.045693 324.792872 
L 169.851446 317.7485 
L 169.379662 310.704129 
L 169.058227 307.757145 
L 168.389115 303.659757 
L 166.747458 296.615385 
L 165.183881 291.367922 
L 164.023022 289.571014 
L 161.309534 285.787173 
L 157.435188 285.529725 
L 153.560842 289.571014 
L 153.560842 289.571014 
L 150.544711 296.615385 
L 149.686496 298.695701 
L 148.458739 303.659757 
L 146.85191 310.704129 
L 145.81215 315.724733 
L 145.509132 317.7485 
L 144.5796 324.792872 
L 143.791623 331.837244 
L 143.129732 338.881615 
L 142.583995 345.925987 
L 142.157433 352.970359 
L 141.937804 358.329509 
L 141.880124 360.01473 
L 141.785372 367.059102 
L 141.876206 374.103473 
L 141.937804 375.481515 
L 142.26789 381.147845 
L 143.072319 388.192217 
L 144.413545 395.236588 
L 145.81215 400.201238 
L 147.207168 402.28096 
z
M 146.585964 388.192217 
L 145.81215 385.557724 
L 145.174944 381.147845 
L 144.610581 374.103473 
L 144.414128 367.059102 
L 144.49707 360.01473 
L 144.792284 352.970359 
L 145.250567 345.925987 
L 145.81215 339.23121 
L 145.855684 338.881615 
L 146.875246 331.837244 
L 148.037468 324.792872 
L 149.36604 317.7485 
L 149.686496 316.242865 
L 151.691903 310.704129 
L 153.560842 305.944312 
L 155.787251 303.659757 
L 157.435188 302.023501 
L 161.309534 303.359554 
L 161.470907 303.659757 
L 164.463759 310.704129 
L 165.183881 313.255075 
L 165.833007 317.7485 
L 166.421644 324.792872 
L 166.67058 331.837244 
L 166.690782 338.881615 
L 166.549645 345.925987 
L 166.261808 352.970359 
L 165.795989 360.01473 
L 165.183881 366.132289 
L 165.061733 367.059102 
L 163.760048 374.103473 
L 162.044578 381.147845 
L 161.309534 383.551408 
L 159.188438 388.192217 
L 157.435188 391.464743 
L 153.560842 395.236588 
L 149.686496 394.70928 
z
" clip-path="url(#pf00f65c150)" style="fill: #2474b7"/>
    <path d="M 149.686496 394.70928 
L 153.560842 395.236588 
L 157.435188 391.464743 
L 159.188438 388.192217 
L 161.309534 383.551408 
L 162.044578 381.147845 
L 163.760048 374.103473 
L 165.061733 367.059102 
L 165.183881 366.132289 
L 165.795989 360.01473 
L 166.261808 352.970359 
L 166.549645 345.925987 
L 166.690782 338.881615 
L 166.67058 331.837244 
L 166.421644 324.792872 
L 165.833007 317.7485 
L 165.183881 313.255075 
L 164.463759 310.704129 
L 161.470907 303.659757 
L 161.309534 303.359554 
L 157.435188 302.023501 
L 155.787251 303.659757 
L 153.560842 305.944312 
L 151.691903 310.704129 
L 149.686496 316.242865 
L 149.36604 317.7485 
L 148.037468 324.792872 
L 146.875246 331.837244 
L 145.855684 338.881615 
L 145.81215 339.23121 
L 145.250567 345.925987 
L 144.792284 352.970359 
L 144.49707 360.01473 
L 144.414128 367.059102 
L 144.610581 374.103473 
L 145.174944 381.147845 
L 145.81215 385.557724 
L 146.585964 388.192217 
z
M 149.686496 381.147845 
L 149.686496 381.147845 
L 148.291887 374.103473 
L 147.735457 367.059102 
L 147.752773 360.01473 
L 148.160776 352.970359 
L 148.832085 345.925987 
L 149.68587 338.881615 
L 149.686496 338.877234 
L 151.567826 331.837244 
L 153.559179 324.792872 
L 153.560842 324.787686 
L 157.435188 320.86487 
L 160.413539 324.792872 
L 161.309534 326.798278 
L 162.002188 331.837244 
L 162.496289 338.881615 
L 162.643351 345.925987 
L 162.502839 352.970359 
L 162.057326 360.01473 
L 161.309534 366.504218 
L 161.207188 367.059102 
L 159.252577 374.103473 
L 157.435188 379.09465 
L 155.799138 381.147845 
L 153.560842 383.458959 
z
" clip-path="url(#pf00f65c150)" style="fill: #0d57a1"/>
    <path d="M 153.560842 383.458959 
L 155.799138 381.147845 
L 157.435188 379.09465 
L 159.252577 374.103473 
L 161.207188 367.059102 
L 161.309534 366.504218 
L 162.057326 360.01473 
L 162.502839 352.970359 
L 162.643351 345.925987 
L 162.496289 338.881615 
L 162.002188 331.837244 
L 161.309534 326.798278 
L 160.413539 324.792872 
L 157.435188 320.86487 
L 153.560842 324.787686 
L 153.559179 324.792872 
L 151.567826 331.837244 
L 149.686496 338.877234 
L 149.68587 338.881615 
L 148.832085 345.925987 
L 148.160776 352.970359 
L 147.752773 360.01473 
L 147.735457 367.059102 
L 148.291887 374.103473 
L 149.686496 381.147845 
L 149.686496 381.147845 
z
" clip-path="url(#pf00f65c150)" style="fill: #083c7d"/>
   </g>
   <g id="matplotlib.axis_1">
    <g id="xtick_1">
     <g id="line2d_1">
      <defs>
       <path id="m3e34bed250" d="M 0 0 
L 0 3.5 
" style="stroke: #000000; stroke-width: 0.8"/>
      </defs>
      <g>
       <use xlink:href="#m3e34bed250" x="75.548805" y="499.48" style="stroke: #000000; stroke-width: 0.8"/>
      </g>
     </g>
     <g id="text_1">
      <!-- 3.0 -->
      <g transform="translate(58.055367 523.196563) scale(0.22 -0.22)">
       <defs>
        <path id="DejaVuSans-33" d="M 2597 2516 
Q 3050 2419 3304 2112 
Q 3559 1806 3559 1356 
Q 3559 666 3084 287 
Q 2609 -91 1734 -91 
Q 1441 -91 1130 -33 
Q 819 25 488 141 
L 488 750 
Q 750 597 1062 519 
Q 1375 441 1716 441 
Q 2309 441 2620 675 
Q 2931 909 2931 1356 
Q 2931 1769 2642 2001 
Q 2353 2234 1838 2234 
L 1294 2234 
L 1294 2753 
L 1863 2753 
Q 2328 2753 2575 2939 
Q 2822 3125 2822 3475 
Q 2822 3834 2567 4026 
Q 2313 4219 1838 4219 
Q 1578 4219 1281 4162 
Q 984 4106 628 3988 
L 628 4550 
Q 988 4650 1302 4700 
Q 1616 4750 1894 4750 
Q 2613 4750 3031 4423 
Q 3450 4097 3450 3541 
Q 3450 3153 3228 2886 
Q 3006 2619 2597 2516 
z
" transform="scale(0.015625)"/>
        <path id="DejaVuSans-2e" d="M 684 794 
L 1344 794 
L 1344 0 
L 684 0 
L 684 794 
z
" transform="scale(0.015625)"/>
        <path id="DejaVuSans-30" d="M 2034 4250 
Q 1547 4250 1301 3770 
Q 1056 3291 1056 2328 
Q 1056 1369 1301 889 
Q 1547 409 2034 409 
Q 2525 409 2770 889 
Q 3016 1369 3016 2328 
Q 3016 3291 2770 3770 
Q 2525 4250 2034 4250 
z
M 2034 4750 
Q 2819 4750 3233 4129 
Q 3647 3509 3647 2328 
Q 3647 1150 3233 529 
Q 2819 -91 2034 -91 
Q 1250 -91 836 529 
Q 422 1150 422 2328 
Q 422 3509 836 4129 
Q 1250 4750 2034 4750 
z
" transform="scale(0.015625)"/>
       </defs>
       <use xlink:href="#DejaVuSans-33"/>
       <use xlink:href="#DejaVuSans-2e" x="63.623047"/>
       <use xlink:href="#DejaVuSans-30" x="95.410156"/>
      </g>
     </g>
    </g>
    <g id="xtick_2">
     <g id="line2d_2">
      <g>
       <use xlink:href="#m3e34bed250" x="161.624987" y="499.48" style="stroke: #000000; stroke-width: 0.8"/>
      </g>
     </g>
     <g id="text_2">
      <!-- 3.5 -->
      <g transform="translate(144.131549 523.196563) scale(0.22 -0.22)">
       <defs>
        <path id="DejaVuSans-35" d="M 691 4666 
L 3169 4666 
L 3169 4134 
L 1269 4134 
L 1269 2991 
Q 1406 3038 1543 3061 
Q 1681 3084 1819 3084 
Q 2600 3084 3056 2656 
Q 3513 2228 3513 1497 
Q 3513 744 3044 326 
Q 2575 -91 1722 -91 
Q 1428 -91 1123 -41 
Q 819 9 494 109 
L 494 744 
Q 775 591 1075 516 
Q 1375 441 1709 441 
Q 2250 441 2565 725 
Q 2881 1009 2881 1497 
Q 2881 1984 2565 2268 
Q 2250 2553 1709 2553 
Q 1456 2553 1204 2497 
Q 953 2441 691 2322 
L 691 4666 
z
" transform="scale(0.015625)"/>
       </defs>
       <use xlink:href="#DejaVuSans-33"/>
       <use xlink:href="#DejaVuSans-2e" x="63.623047"/>
       <use xlink:href="#DejaVuSans-35" x="95.410156"/>
      </g>
     </g>
    </g>
    <g id="xtick_3">
     <g id="line2d_3">
      <g>
       <use xlink:href="#m3e34bed250" x="247.701169" y="499.48" style="stroke: #000000; stroke-width: 0.8"/>
      </g>
     </g>
     <g id="text_3">
      <!-- 4.0 -->
      <g transform="translate(230.207732 523.196563) scale(0.22 -0.22)">
       <defs>
        <path id="DejaVuSans-34" d="M 2419 4116 
L 825 1625 
L 2419 1625 
L 2419 4116 
z
M 2253 4666 
L 3047 4666 
L 3047 1625 
L 3713 1625 
L 3713 1100 
L 3047 1100 
L 3047 0 
L 2419 0 
L 2419 1100 
L 313 1100 
L 313 1709 
L 2253 4666 
z
" transform="scale(0.015625)"/>
       </defs>
       <use xlink:href="#DejaVuSans-34"/>
       <use xlink:href="#DejaVuSans-2e" x="63.623047"/>
       <use xlink:href="#DejaVuSans-30" x="95.410156"/>
      </g>
     </g>
    </g>
    <g id="xtick_4">
     <g id="line2d_4">
      <g>
       <use xlink:href="#m3e34bed250" x="333.777352" y="499.48" style="stroke: #000000; stroke-width: 0.8"/>
      </g>
     </g>
     <g id="text_4">
      <!-- 4.5 -->
      <g transform="translate(316.283914 523.196563) scale(0.22 -0.22)">
       <use xlink:href="#DejaVuSans-34"/>
       <use xlink:href="#DejaVuSans-2e" x="63.623047"/>
       <use xlink:href="#DejaVuSans-35" x="95.410156"/>
      </g>
     </g>
    </g>
    <g id="xtick_5">
     <g id="line2d_5">
      <g>
       <use xlink:href="#m3e34bed250" x="419.853534" y="499.48" style="stroke: #000000; stroke-width: 0.8"/>
      </g>
     </g>
     <g id="text_5">
      <!-- 5.0 -->
      <g transform="translate(402.360097 523.196563) scale(0.22 -0.22)">
       <use xlink:href="#DejaVuSans-35"/>
       <use xlink:href="#DejaVuSans-2e" x="63.623047"/>
       <use xlink:href="#DejaVuSans-30" x="95.410156"/>
      </g>
     </g>
    </g>
    <g id="xtick_6">
     <g id="line2d_6">
      <g>
       <use xlink:href="#m3e34bed250" x="505.929717" y="499.48" style="stroke: #000000; stroke-width: 0.8"/>
      </g>
     </g>
     <g id="text_6">
      <!-- 5.5 -->
      <g transform="translate(488.436279 523.196563) scale(0.22 -0.22)">
       <use xlink:href="#DejaVuSans-35"/>
       <use xlink:href="#DejaVuSans-2e" x="63.623047"/>
       <use xlink:href="#DejaVuSans-35" x="95.410156"/>
      </g>
     </g>
    </g>
    <g id="xtick_7">
     <g id="line2d_7">
      <g>
       <use xlink:href="#m3e34bed250" x="592.005899" y="499.48" style="stroke: #000000; stroke-width: 0.8"/>
      </g>
     </g>
     <g id="text_7">
      <!-- 6.0 -->
      <g transform="translate(574.512462 523.196563) scale(0.22 -0.22)">
       <defs>
        <path id="DejaVuSans-36" d="M 2113 2584 
Q 1688 2584 1439 2293 
Q 1191 2003 1191 1497 
Q 1191 994 1439 701 
Q 1688 409 2113 409 
Q 2538 409 2786 701 
Q 3034 994 3034 1497 
Q 3034 2003 2786 2293 
Q 2538 2584 2113 2584 
z
M 3366 4563 
L 3366 3988 
Q 3128 4100 2886 4159 
Q 2644 4219 2406 4219 
Q 1781 4219 1451 3797 
Q 1122 3375 1075 2522 
Q 1259 2794 1537 2939 
Q 1816 3084 2150 3084 
Q 2853 3084 3261 2657 
Q 3669 2231 3669 1497 
Q 3669 778 3244 343 
Q 2819 -91 2113 -91 
Q 1303 -91 875 529 
Q 447 1150 447 2328 
Q 447 3434 972 4092 
Q 1497 4750 2381 4750 
Q 2619 4750 2861 4703 
Q 3103 4656 3366 4563 
z
" transform="scale(0.015625)"/>
       </defs>
       <use xlink:href="#DejaVuSans-36"/>
       <use xlink:href="#DejaVuSans-2e" x="63.623047"/>
       <use xlink:href="#DejaVuSans-30" x="95.410156"/>
      </g>
     </g>
    </g>
    <g id="xtick_8">
     <g id="line2d_8">
      <g>
       <use xlink:href="#m3e34bed250" x="678.082082" y="499.48" style="stroke: #000000; stroke-width: 0.8"/>
      </g>
     </g>
     <g id="text_8">
      <!-- 6.5 -->
      <g transform="translate(660.588644 523.196563) scale(0.22 -0.22)">
       <use xlink:href="#DejaVuSans-36"/>
       <use xlink:href="#DejaVuSans-2e" x="63.623047"/>
       <use xlink:href="#DejaVuSans-35" x="95.410156"/>
      </g>
     </g>
    </g>
    <g id="text_9">
     <!-- Force Uncertainties -->
     <g transform="translate(270.827078 548.488438) scale(0.22 -0.22)">
      <defs>
       <path id="DejaVuSans-46" d="M 628 4666 
L 3309 4666 
L 3309 4134 
L 1259 4134 
L 1259 2759 
L 3109 2759 
L 3109 2228 
L 1259 2228 
L 1259 0 
L 628 0 
L 628 4666 
z
" transform="scale(0.015625)"/>
       <path id="DejaVuSans-6f" d="M 1959 3097 
Q 1497 3097 1228 2736 
Q 959 2375 959 1747 
Q 959 1119 1226 758 
Q 1494 397 1959 397 
Q 2419 397 2687 759 
Q 2956 1122 2956 1747 
Q 2956 2369 2687 2733 
Q 2419 3097 1959 3097 
z
M 1959 3584 
Q 2709 3584 3137 3096 
Q 3566 2609 3566 1747 
Q 3566 888 3137 398 
Q 2709 -91 1959 -91 
Q 1206 -91 779 398 
Q 353 888 353 1747 
Q 353 2609 779 3096 
Q 1206 3584 1959 3584 
z
" transform="scale(0.015625)"/>
       <path id="DejaVuSans-72" d="M 2631 2963 
Q 2534 3019 2420 3045 
Q 2306 3072 2169 3072 
Q 1681 3072 1420 2755 
Q 1159 2438 1159 1844 
L 1159 0 
L 581 0 
L 581 3500 
L 1159 3500 
L 1159 2956 
Q 1341 3275 1631 3429 
Q 1922 3584 2338 3584 
Q 2397 3584 2469 3576 
Q 2541 3569 2628 3553 
L 2631 2963 
z
" transform="scale(0.015625)"/>
       <path id="DejaVuSans-63" d="M 3122 3366 
L 3122 2828 
Q 2878 2963 2633 3030 
Q 2388 3097 2138 3097 
Q 1578 3097 1268 2742 
Q 959 2388 959 1747 
Q 959 1106 1268 751 
Q 1578 397 2138 397 
Q 2388 397 2633 464 
Q 2878 531 3122 666 
L 3122 134 
Q 2881 22 2623 -34 
Q 2366 -91 2075 -91 
Q 1284 -91 818 406 
Q 353 903 353 1747 
Q 353 2603 823 3093 
Q 1294 3584 2113 3584 
Q 2378 3584 2631 3529 
Q 2884 3475 3122 3366 
z
" transform="scale(0.015625)"/>
       <path id="DejaVuSans-65" d="M 3597 1894 
L 3597 1613 
L 953 1613 
Q 991 1019 1311 708 
Q 1631 397 2203 397 
Q 2534 397 2845 478 
Q 3156 559 3463 722 
L 3463 178 
Q 3153 47 2828 -22 
Q 2503 -91 2169 -91 
Q 1331 -91 842 396 
Q 353 884 353 1716 
Q 353 2575 817 3079 
Q 1281 3584 2069 3584 
Q 2775 3584 3186 3129 
Q 3597 2675 3597 1894 
z
M 3022 2063 
Q 3016 2534 2758 2815 
Q 2500 3097 2075 3097 
Q 1594 3097 1305 2825 
Q 1016 2553 972 2059 
L 3022 2063 
z
" transform="scale(0.015625)"/>
       <path id="DejaVuSans-20" transform="scale(0.015625)"/>
       <path id="DejaVuSans-55" d="M 556 4666 
L 1191 4666 
L 1191 1831 
Q 1191 1081 1462 751 
Q 1734 422 2344 422 
Q 2950 422 3222 751 
Q 3494 1081 3494 1831 
L 3494 4666 
L 4128 4666 
L 4128 1753 
Q 4128 841 3676 375 
Q 3225 -91 2344 -91 
Q 1459 -91 1007 375 
Q 556 841 556 1753 
L 556 4666 
z
" transform="scale(0.015625)"/>
       <path id="DejaVuSans-6e" d="M 3513 2113 
L 3513 0 
L 2938 0 
L 2938 2094 
Q 2938 2591 2744 2837 
Q 2550 3084 2163 3084 
Q 1697 3084 1428 2787 
Q 1159 2491 1159 1978 
L 1159 0 
L 581 0 
L 581 3500 
L 1159 3500 
L 1159 2956 
Q 1366 3272 1645 3428 
Q 1925 3584 2291 3584 
Q 2894 3584 3203 3211 
Q 3513 2838 3513 2113 
z
" transform="scale(0.015625)"/>
       <path id="DejaVuSans-74" d="M 1172 4494 
L 1172 3500 
L 2356 3500 
L 2356 3053 
L 1172 3053 
L 1172 1153 
Q 1172 725 1289 603 
Q 1406 481 1766 481 
L 2356 481 
L 2356 0 
L 1766 0 
Q 1100 0 847 248 
Q 594 497 594 1153 
L 594 3053 
L 172 3053 
L 172 3500 
L 594 3500 
L 594 4494 
L 1172 4494 
z
" transform="scale(0.015625)"/>
       <path id="DejaVuSans-61" d="M 2194 1759 
Q 1497 1759 1228 1600 
Q 959 1441 959 1056 
Q 959 750 1161 570 
Q 1363 391 1709 391 
Q 2188 391 2477 730 
Q 2766 1069 2766 1631 
L 2766 1759 
L 2194 1759 
z
M 3341 1997 
L 3341 0 
L 2766 0 
L 2766 531 
Q 2569 213 2275 61 
Q 1981 -91 1556 -91 
Q 1019 -91 701 211 
Q 384 513 384 1019 
Q 384 1609 779 1909 
Q 1175 2209 1959 2209 
L 2766 2209 
L 2766 2266 
Q 2766 2663 2505 2880 
Q 2244 3097 1772 3097 
Q 1472 3097 1187 3025 
Q 903 2953 641 2809 
L 641 3341 
Q 956 3463 1253 3523 
Q 1550 3584 1831 3584 
Q 2591 3584 2966 3190 
Q 3341 2797 3341 1997 
z
" transform="scale(0.015625)"/>
       <path id="DejaVuSans-69" d="M 603 3500 
L 1178 3500 
L 1178 0 
L 603 0 
L 603 3500 
z
M 603 4863 
L 1178 4863 
L 1178 4134 
L 603 4134 
L 603 4863 
z
" transform="scale(0.015625)"/>
       <path id="DejaVuSans-73" d="M 2834 3397 
L 2834 2853 
Q 2591 2978 2328 3040 
Q 2066 3103 1784 3103 
Q 1356 3103 1142 2972 
Q 928 2841 928 2578 
Q 928 2378 1081 2264 
Q 1234 2150 1697 2047 
L 1894 2003 
Q 2506 1872 2764 1633 
Q 3022 1394 3022 966 
Q 3022 478 2636 193 
Q 2250 -91 1575 -91 
Q 1294 -91 989 -36 
Q 684 19 347 128 
L 347 722 
Q 666 556 975 473 
Q 1284 391 1588 391 
Q 1994 391 2212 530 
Q 2431 669 2431 922 
Q 2431 1156 2273 1281 
Q 2116 1406 1581 1522 
L 1381 1569 
Q 847 1681 609 1914 
Q 372 2147 372 2553 
Q 372 3047 722 3315 
Q 1072 3584 1716 3584 
Q 2034 3584 2315 3537 
Q 2597 3491 2834 3397 
z
" transform="scale(0.015625)"/>
      </defs>
      <use xlink:href="#DejaVuSans-46"/>
      <use xlink:href="#DejaVuSans-6f" x="53.894531"/>
      <use xlink:href="#DejaVuSans-72" x="115.076172"/>
      <use xlink:href="#DejaVuSans-63" x="153.939453"/>
      <use xlink:href="#DejaVuSans-65" x="208.919922"/>
      <use xlink:href="#DejaVuSans-20" x="270.443359"/>
      <use xlink:href="#DejaVuSans-55" x="302.230469"/>
      <use xlink:href="#DejaVuSans-6e" x="375.423828"/>
      <use xlink:href="#DejaVuSans-63" x="438.802734"/>
      <use xlink:href="#DejaVuSans-65" x="493.783203"/>
      <use xlink:href="#DejaVuSans-72" x="555.306641"/>
      <use xlink:href="#DejaVuSans-74" x="596.419922"/>
      <use xlink:href="#DejaVuSans-61" x="635.628906"/>
      <use xlink:href="#DejaVuSans-69" x="696.908203"/>
      <use xlink:href="#DejaVuSans-6e" x="724.691406"/>
      <use xlink:href="#DejaVuSans-74" x="788.070312"/>
      <use xlink:href="#DejaVuSans-69" x="827.279297"/>
      <use xlink:href="#DejaVuSans-65" x="855.0625"/>
      <use xlink:href="#DejaVuSans-73" x="916.585938"/>
     </g>
    </g>
   </g>
   <g id="matplotlib.axis_2">
    <g id="ytick_1">
     <g id="line2d_9">
      <defs>
       <path id="m504a611461" d="M 0 0 
L -3.5 0 
" style="stroke: #000000; stroke-width: 0.8"/>
      </defs>
      <g>
       <use xlink:href="#m504a611461" x="69.68" y="451.618944" style="stroke: #000000; stroke-width: 0.8"/>
      </g>
     </g>
     <g id="text_10">
      <!-- 2 -->
      <g transform="translate(48.6825 459.977225) scale(0.22 -0.22)">
       <defs>
        <path id="DejaVuSans-32" d="M 1228 531 
L 3431 531 
L 3431 0 
L 469 0 
L 469 531 
Q 828 903 1448 1529 
Q 2069 2156 2228 2338 
Q 2531 2678 2651 2914 
Q 2772 3150 2772 3378 
Q 2772 3750 2511 3984 
Q 2250 4219 1831 4219 
Q 1534 4219 1204 4116 
Q 875 4013 500 3803 
L 500 4441 
Q 881 4594 1212 4672 
Q 1544 4750 1819 4750 
Q 2544 4750 2975 4387 
Q 3406 4025 3406 3419 
Q 3406 3131 3298 2873 
Q 3191 2616 2906 2266 
Q 2828 2175 2409 1742 
Q 1991 1309 1228 531 
z
" transform="scale(0.015625)"/>
       </defs>
       <use xlink:href="#DejaVuSans-32"/>
      </g>
     </g>
    </g>
    <g id="ytick_2">
     <g id="line2d_10">
      <g>
       <use xlink:href="#m504a611461" x="69.68" y="357.390605" style="stroke: #000000; stroke-width: 0.8"/>
      </g>
     </g>
     <g id="text_11">
      <!-- 3 -->
      <g transform="translate(48.6825 365.748886) scale(0.22 -0.22)">
       <use xlink:href="#DejaVuSans-33"/>
      </g>
     </g>
    </g>
    <g id="ytick_3">
     <g id="line2d_11">
      <g>
       <use xlink:href="#m504a611461" x="69.68" y="263.162266" style="stroke: #000000; stroke-width: 0.8"/>
      </g>
     </g>
     <g id="text_12">
      <!-- 4 -->
      <g transform="translate(48.6825 271.520547) scale(0.22 -0.22)">
       <use xlink:href="#DejaVuSans-34"/>
      </g>
     </g>
    </g>
    <g id="ytick_4">
     <g id="line2d_12">
      <g>
       <use xlink:href="#m504a611461" x="69.68" y="168.933927" style="stroke: #000000; stroke-width: 0.8"/>
      </g>
     </g>
     <g id="text_13">
      <!-- 5 -->
      <g transform="translate(48.6825 177.292208) scale(0.22 -0.22)">
       <use xlink:href="#DejaVuSans-35"/>
      </g>
     </g>
    </g>
    <g id="ytick_5">
     <g id="line2d_13">
      <g>
       <use xlink:href="#m504a611461" x="69.68" y="74.705588" style="stroke: #000000; stroke-width: 0.8"/>
      </g>
     </g>
     <g id="text_14">
      <!-- 6 -->
      <g transform="translate(48.6825 83.063869) scale(0.22 -0.22)">
       <use xlink:href="#DejaVuSans-36"/>
      </g>
     </g>
    </g>
    <g id="text_15">
     <!-- Force Errors [kJ/(mol*A)] -->
     <g transform="translate(40.107187 394.9125) rotate(-90) scale(0.22 -0.22)">
      <defs>
       <path id="DejaVuSans-45" d="M 628 4666 
L 3578 4666 
L 3578 4134 
L 1259 4134 
L 1259 2753 
L 3481 2753 
L 3481 2222 
L 1259 2222 
L 1259 531 
L 3634 531 
L 3634 0 
L 628 0 
L 628 4666 
z
" transform="scale(0.015625)"/>
       <path id="DejaVuSans-5b" d="M 550 4863 
L 1875 4863 
L 1875 4416 
L 1125 4416 
L 1125 -397 
L 1875 -397 
L 1875 -844 
L 550 -844 
L 550 4863 
z
" transform="scale(0.015625)"/>
       <path id="DejaVuSans-6b" d="M 581 4863 
L 1159 4863 
L 1159 1991 
L 2875 3500 
L 3609 3500 
L 1753 1863 
L 3688 0 
L 2938 0 
L 1159 1709 
L 1159 0 
L 581 0 
L 581 4863 
z
" transform="scale(0.015625)"/>
       <path id="DejaVuSans-4a" d="M 628 4666 
L 1259 4666 
L 1259 325 
Q 1259 -519 939 -900 
Q 619 -1281 -91 -1281 
L -331 -1281 
L -331 -750 
L -134 -750 
Q 284 -750 456 -515 
Q 628 -281 628 325 
L 628 4666 
z
" transform="scale(0.015625)"/>
       <path id="DejaVuSans-2f" d="M 1625 4666 
L 2156 4666 
L 531 -594 
L 0 -594 
L 1625 4666 
z
" transform="scale(0.015625)"/>
       <path id="DejaVuSans-28" d="M 1984 4856 
Q 1566 4138 1362 3434 
Q 1159 2731 1159 2009 
Q 1159 1288 1364 580 
Q 1569 -128 1984 -844 
L 1484 -844 
Q 1016 -109 783 600 
Q 550 1309 550 2009 
Q 550 2706 781 3412 
Q 1013 4119 1484 4856 
L 1984 4856 
z
" transform="scale(0.015625)"/>
       <path id="DejaVuSans-6d" d="M 3328 2828 
Q 3544 3216 3844 3400 
Q 4144 3584 4550 3584 
Q 5097 3584 5394 3201 
Q 5691 2819 5691 2113 
L 5691 0 
L 5113 0 
L 5113 2094 
Q 5113 2597 4934 2840 
Q 4756 3084 4391 3084 
Q 3944 3084 3684 2787 
Q 3425 2491 3425 1978 
L 3425 0 
L 2847 0 
L 2847 2094 
Q 2847 2600 2669 2842 
Q 2491 3084 2119 3084 
Q 1678 3084 1418 2786 
Q 1159 2488 1159 1978 
L 1159 0 
L 581 0 
L 581 3500 
L 1159 3500 
L 1159 2956 
Q 1356 3278 1631 3431 
Q 1906 3584 2284 3584 
Q 2666 3584 2933 3390 
Q 3200 3197 3328 2828 
z
" transform="scale(0.015625)"/>
       <path id="DejaVuSans-6c" d="M 603 4863 
L 1178 4863 
L 1178 0 
L 603 0 
L 603 4863 
z
" transform="scale(0.015625)"/>
       <path id="DejaVuSans-2a" d="M 3009 3897 
L 1888 3291 
L 3009 2681 
L 2828 2375 
L 1778 3009 
L 1778 1831 
L 1422 1831 
L 1422 3009 
L 372 2375 
L 191 2681 
L 1313 3291 
L 191 3897 
L 372 4206 
L 1422 3572 
L 1422 4750 
L 1778 4750 
L 1778 3572 
L 2828 4206 
L 3009 3897 
z
" transform="scale(0.015625)"/>
       <path id="DejaVuSans-41" d="M 2188 4044 
L 1331 1722 
L 3047 1722 
L 2188 4044 
z
M 1831 4666 
L 2547 4666 
L 4325 0 
L 3669 0 
L 3244 1197 
L 1141 1197 
L 716 0 
L 50 0 
L 1831 4666 
z
" transform="scale(0.015625)"/>
       <path id="DejaVuSans-29" d="M 513 4856 
L 1013 4856 
Q 1481 4119 1714 3412 
Q 1947 2706 1947 2009 
Q 1947 1309 1714 600 
Q 1481 -109 1013 -844 
L 513 -844 
Q 928 -128 1133 580 
Q 1338 1288 1338 2009 
Q 1338 2731 1133 3434 
Q 928 4138 513 4856 
z
" transform="scale(0.015625)"/>
       <path id="DejaVuSans-5d" d="M 1947 4863 
L 1947 -844 
L 622 -844 
L 622 -397 
L 1369 -397 
L 1369 4416 
L 622 4416 
L 622 4863 
L 1947 4863 
z
" transform="scale(0.015625)"/>
      </defs>
      <use xlink:href="#DejaVuSans-46"/>
      <use xlink:href="#DejaVuSans-6f" x="53.894531"/>
      <use xlink:href="#DejaVuSans-72" x="115.076172"/>
      <use xlink:href="#DejaVuSans-63" x="153.939453"/>
      <use xlink:href="#DejaVuSans-65" x="208.919922"/>
      <use xlink:href="#DejaVuSans-20" x="270.443359"/>
      <use xlink:href="#DejaVuSans-45" x="302.230469"/>
      <use xlink:href="#DejaVuSans-72" x="365.414062"/>
      <use xlink:href="#DejaVuSans-72" x="404.777344"/>
      <use xlink:href="#DejaVuSans-6f" x="443.640625"/>
      <use xlink:href="#DejaVuSans-72" x="504.822266"/>
      <use xlink:href="#DejaVuSans-73" x="545.935547"/>
      <use xlink:href="#DejaVuSans-20" x="598.035156"/>
      <use xlink:href="#DejaVuSans-5b" x="629.822266"/>
      <use xlink:href="#DejaVuSans-6b" x="668.835938"/>
      <use xlink:href="#DejaVuSans-4a" x="726.746094"/>
      <use xlink:href="#DejaVuSans-2f" x="756.238281"/>
      <use xlink:href="#DejaVuSans-28" x="789.929688"/>
      <use xlink:href="#DejaVuSans-6d" x="828.943359"/>
      <use xlink:href="#DejaVuSans-6f" x="926.355469"/>
      <use xlink:href="#DejaVuSans-6c" x="987.537109"/>
      <use xlink:href="#DejaVuSans-2a" x="1015.320312"/>
      <use xlink:href="#DejaVuSans-41" x="1065.320312"/>
      <use xlink:href="#DejaVuSans-29" x="1133.728516"/>
      <use xlink:href="#DejaVuSans-5d" x="1172.742188"/>
     </g>
    </g>
   </g>
   <g id="line2d_14">
    <path d="M 69.68 499.48 
L 685.081969 23.76 
" clip-path="url(#pf00f65c150)" style="fill: none; stroke-dasharray: 5.55,2.4; stroke-dashoffset: 0; stroke: #ff0000; stroke-width: 1.5"/>
   </g>
   <g id="patch_3">
    <path d="M 69.68 499.48 
L 69.68 23.76 
" style="fill: none; stroke: #000000; stroke-width: 0.8; stroke-linejoin: miter; stroke-linecap: square"/>
   </g>
   <g id="patch_4">
    <path d="M 685.081969 499.48 
L 685.081969 23.76 
" style="fill: none; stroke: #000000; stroke-width: 0.8; stroke-linejoin: miter; stroke-linecap: square"/>
   </g>
   <g id="patch_5">
    <path d="M 69.68 499.48 
L 685.081969 499.48 
" style="fill: none; stroke: #000000; stroke-width: 0.8; stroke-linejoin: miter; stroke-linecap: square"/>
   </g>
   <g id="patch_6">
    <path d="M 69.68 23.76 
L 685.081969 23.76 
" style="fill: none; stroke: #000000; stroke-width: 0.8; stroke-linejoin: miter; stroke-linecap: square"/>
   </g>
   <g id="text_16">
    <!-- Correlation in: 0.106 -->
    <g transform="translate(131.220197 71.332) scale(0.22 -0.22)">
     <defs>
      <path id="DejaVuSans-43" d="M 4122 4306 
L 4122 3641 
Q 3803 3938 3442 4084 
Q 3081 4231 2675 4231 
Q 1875 4231 1450 3742 
Q 1025 3253 1025 2328 
Q 1025 1406 1450 917 
Q 1875 428 2675 428 
Q 3081 428 3442 575 
Q 3803 722 4122 1019 
L 4122 359 
Q 3791 134 3420 21 
Q 3050 -91 2638 -91 
Q 1578 -91 968 557 
Q 359 1206 359 2328 
Q 359 3453 968 4101 
Q 1578 4750 2638 4750 
Q 3056 4750 3426 4639 
Q 3797 4528 4122 4306 
z
" transform="scale(0.015625)"/>
      <path id="DejaVuSans-3a" d="M 750 794 
L 1409 794 
L 1409 0 
L 750 0 
L 750 794 
z
M 750 3309 
L 1409 3309 
L 1409 2516 
L 750 2516 
L 750 3309 
z
" transform="scale(0.015625)"/>
      <path id="DejaVuSans-31" d="M 794 531 
L 1825 531 
L 1825 4091 
L 703 3866 
L 703 4441 
L 1819 4666 
L 2450 4666 
L 2450 531 
L 3481 531 
L 3481 0 
L 794 0 
L 794 531 
z
" transform="scale(0.015625)"/>
     </defs>
     <use xlink:href="#DejaVuSans-43"/>
     <use xlink:href="#DejaVuSans-6f" x="69.824219"/>
     <use xlink:href="#DejaVuSans-72" x="131.005859"/>
     <use xlink:href="#DejaVuSans-72" x="170.369141"/>
     <use xlink:href="#DejaVuSans-65" x="209.232422"/>
     <use xlink:href="#DejaVuSans-6c" x="270.755859"/>
     <use xlink:href="#DejaVuSans-61" x="298.539062"/>
     <use xlink:href="#DejaVuSans-74" x="359.818359"/>
     <use xlink:href="#DejaVuSans-69" x="399.027344"/>
     <use xlink:href="#DejaVuSans-6f" x="426.810547"/>
     <use xlink:href="#DejaVuSans-6e" x="487.992188"/>
     <use xlink:href="#DejaVuSans-20" x="551.371094"/>
     <use xlink:href="#DejaVuSans-69" x="583.158203"/>
     <use xlink:href="#DejaVuSans-6e" x="610.941406"/>
     <use xlink:href="#DejaVuSans-3a" x="674.320312"/>
     <use xlink:href="#DejaVuSans-20" x="708.011719"/>
     <use xlink:href="#DejaVuSans-30" x="739.798828"/>
     <use xlink:href="#DejaVuSans-2e" x="803.421875"/>
     <use xlink:href="#DejaVuSans-31" x="835.208984"/>
     <use xlink:href="#DejaVuSans-30" x="898.832031"/>
     <use xlink:href="#DejaVuSans-36" x="962.455078"/>
    </g>
   </g>
  </g>
 </g>
 <defs>
  <clipPath id="pf00f65c150">
   <rect x="69.68" y="23.76" width="615.401969" height="475.72"/>
  </clipPath>
 </defs>
</svg>
