<?xml version="1.0" encoding="utf-8" standalone="no"?>
<!DOCTYPE svg PUBLIC "-//W3C//DTD SVG 1.1//EN"
  "http://www.w3.org/Graphics/SVG/1.1/DTD/svg11.dtd">
<svg xmlns:xlink="http://www.w3.org/1999/xlink" width="720pt" height="576pt" viewBox="0 0 720 576" xmlns="http://www.w3.org/2000/svg" version="1.1">
 <metadata>
  <rdf:RDF xmlns:dc="http://purl.org/dc/elements/1.1/" xmlns:cc="http://creativecommons.org/ns#" xmlns:rdf="http://www.w3.org/1999/02/22-rdf-syntax-ns#">
   <cc:Work>
    <dc:type rdf:resource="http://purl.org/dc/dcmitype/StillImage"/>
    <dc:date>2024-12-08T10:17:45.687901</dc:date>
    <dc:format>image/svg+xml</dc:format>
    <dc:creator>
     <cc:Agent>
      <dc:title>Matplotlib v3.8.4, https://matplotlib.org/</dc:title>
     </cc:Agent>
    </dc:creator>
   </cc:Work>
  </rdf:RDF>
 </metadata>
 <defs>
  <style type="text/css">*{stroke-linejoin: round; stroke-linecap: butt}</style>
 </defs>
 <g id="figure_1">
  <g id="patch_1">
   <path d="M 0 576 
L 720 576 
L 720 0 
L 0 0 
z
" style="fill: #ffffff"/>
  </g>
  <g id="axes_1">
   <g id="patch_2">
    <path d="M 69.68 499.48 
L 696.24 499.48 
L 696.24 23.76 
L 69.68 23.76 
z
" style="fill: #ffffff"/>
   </g>
   <g id="QuadContourSet_1">
    <path d="M 166.552658 522.020728 
L 183.154312 526.907308 
L 199.755966 528.428532 
L 216.35762 528.755718 
L 232.959274 528.509196 
L 249.560928 527.263279 
L 266.162582 523.92959 
L 282.764236 516.080886 
L 291.806758 509.101104 
L 299.36589 505.318154 
L 315.967544 491.261217 
L 317.923546 489.412384 
L 332.569198 476.917646 
L 339.647547 469.723663 
L 349.170852 459.956764 
L 359.156585 450.034943 
L 365.772506 442.985168 
L 378.593479 430.346222 
L 382.37416 425.821521 
L 397.444386 410.657502 
L 398.975814 408.576667 
L 415.577468 391.265348 
L 415.928808 390.968781 
L 429.549472 371.28006 
L 432.179122 355.264982 
L 433.027549 351.59134 
L 432.179122 347.070733 
L 430.536916 331.902619 
L 424.266763 312.213899 
L 418.14779 292.525178 
L 416.850714 272.836458 
L 415.577468 261.420958 
L 414.941972 253.147737 
L 407.599194 233.459017 
L 398.975814 219.878753 
L 395.543401 213.770296 
L 386.822544 194.081576 
L 382.37416 182.096893 
L 378.863879 174.392855 
L 365.772506 155.95995 
L 364.722756 154.704135 
L 349.170852 137.719484 
L 346.708067 135.015414 
L 332.569198 119.89622 
L 324.080397 115.326694 
L 315.967544 111.132504 
L 299.36589 106.442257 
L 282.764236 103.178249 
L 266.162582 102.847196 
L 249.560928 106.919251 
L 232.959274 113.095859 
L 216.35762 114.235442 
L 199.755966 113.88139 
L 197.304551 115.326694 
L 183.154312 123.349328 
L 174.550123 135.015414 
L 166.552658 146.105453 
L 161.452687 154.704135 
L 150.430147 174.392855 
L 149.951004 175.438733 
L 141.48947 194.081576 
L 135.09949 213.770296 
L 133.34935 220.139812 
L 129.217239 233.459017 
L 123.364118 253.147737 
L 117.944047 272.836458 
L 116.747696 277.318979 
L 110.698578 292.525178 
L 104.204327 312.213899 
L 100.146042 331.902619 
L 100.146042 331.902619 
L 98.650128 351.59134 
L 100.146042 359.038623 
L 101.304657 371.28006 
L 104.144913 390.968781 
L 106.180816 410.657502 
L 107.678299 430.346222 
L 110.922542 450.034943 
L 116.747696 463.711687 
L 118.657315 469.723663 
L 131.32943 489.412384 
L 133.34935 491.842727 
L 149.951004 509.049634 
L 150.017575 509.101104 
z
M 188.624081 489.412384 
L 183.154312 486.865956 
L 166.552658 470.563174 
L 165.866244 469.723663 
L 154.161733 450.034943 
L 149.951004 432.918837 
L 149.07123 430.346222 
L 146.325666 410.657502 
L 146.974073 390.968781 
L 149.951004 374.203087 
L 150.265326 371.28006 
L 153.714753 351.59134 
L 158.922526 331.902619 
L 166.552658 312.213899 
L 166.552658 312.213899 
L 174.35976 292.525178 
L 183.154312 278.337448 
L 186.914839 272.836458 
L 199.755966 256.739335 
L 203.017506 253.147737 
L 216.35762 238.423982 
L 222.729715 233.459017 
L 232.959274 224.592706 
L 249.560928 216.585448 
L 263.604572 213.770296 
L 266.162582 212.972877 
L 273.206134 213.770296 
L 282.764236 214.503855 
L 299.36589 221.09375 
L 315.967544 233.33321 
L 316.100044 233.459017 
L 332.569198 246.862558 
L 337.978532 253.147737 
L 349.170852 269.613235 
L 351.100673 272.836458 
L 358.92088 292.525178 
L 362.116791 312.213899 
L 362.700149 331.902619 
L 361.20223 351.59134 
L 357.279278 371.28006 
L 349.223722 390.968781 
L 349.170852 391.059654 
L 341.095333 410.657502 
L 332.569198 423.324561 
L 328.92056 430.346222 
L 315.967544 447.642322 
L 314.295206 450.034943 
L 299.36589 466.900705 
L 296.256978 469.723663 
L 282.764236 481.887669 
L 267.530679 489.412384 
L 266.162582 490.33381 
L 249.560928 497.537436 
L 232.959274 499.722871 
L 216.35762 498.904252 
L 199.755966 495.143364 
z
" clip-path="url(#p425f29d21f)" style="fill: #f0f6fd"/>
    <path d="M 199.755966 495.143364 
L 216.35762 498.904252 
L 232.959274 499.722871 
L 249.560928 497.537436 
L 266.162582 490.33381 
L 267.530679 489.412384 
L 282.764236 481.887669 
L 296.256978 469.723663 
L 299.36589 466.900705 
L 314.295206 450.034943 
L 315.967544 447.642322 
L 328.92056 430.346222 
L 332.569198 423.324561 
L 341.095333 410.657502 
L 349.170852 391.059654 
L 349.223722 390.968781 
L 357.279278 371.28006 
L 361.20223 351.59134 
L 362.700149 331.902619 
L 362.116791 312.213899 
L 358.92088 292.525178 
L 351.100673 272.836458 
L 349.170852 269.613235 
L 337.978532 253.147737 
L 332.569198 246.862558 
L 316.100044 233.459017 
L 315.967544 233.33321 
L 299.36589 221.09375 
L 282.764236 214.503855 
L 273.206134 213.770296 
L 266.162582 212.972877 
L 263.604572 213.770296 
L 249.560928 216.585448 
L 232.959274 224.592706 
L 222.729715 233.459017 
L 216.35762 238.423982 
L 203.017506 253.147737 
L 199.755966 256.739335 
L 186.914839 272.836458 
L 183.154312 278.337448 
L 174.35976 292.525178 
L 166.552658 312.213899 
L 166.552658 312.213899 
L 158.922526 331.902619 
L 153.714753 351.59134 
L 150.265326 371.28006 
L 149.951004 374.203087 
L 146.974073 390.968781 
L 146.325666 410.657502 
L 149.07123 430.346222 
L 149.951004 432.918837 
L 154.161733 450.034943 
L 165.866244 469.723663 
L 166.552658 470.563174 
L 183.154312 486.865956 
L 188.624081 489.412384 
z
M 192.273558 469.723663 
L 183.154312 461.296161 
L 175.011984 450.034943 
L 168.053036 430.346222 
L 166.552658 417.665138 
L 165.369364 410.657502 
L 166.036787 390.968781 
L 166.552658 388.252584 
L 168.736805 371.28006 
L 173.443496 351.59134 
L 181.142419 331.902619 
L 183.154312 327.721086 
L 190.64627 312.213899 
L 199.755966 298.545507 
L 204.480747 292.525178 
L 216.35762 278.595 
L 223.047493 272.836458 
L 232.959274 263.769827 
L 249.560928 255.565198 
L 266.162582 253.147737 
L 282.764236 254.691201 
L 299.36589 260.200653 
L 315.967544 272.176204 
L 316.600325 272.836458 
L 330.766987 292.525178 
L 332.569198 297.579491 
L 337.487119 312.213899 
L 339.786237 331.902619 
L 339.07429 351.59134 
L 335.516859 371.28006 
L 332.569198 379.475948 
L 329.7328 390.968781 
L 321.55552 410.657502 
L 315.967544 419.639089 
L 310.387552 430.346222 
L 299.36589 444.948972 
L 295.198881 450.034943 
L 282.764236 462.70696 
L 272.174941 469.723663 
L 266.162582 474.094087 
L 249.560928 480.937314 
L 232.959274 482.789093 
L 216.35762 481.115959 
L 199.755966 475.104785 
z
" clip-path="url(#p425f29d21f)" style="fill: #dfebf7"/>
    <path d="M 199.755966 475.104785 
L 216.35762 481.115959 
L 232.959274 482.789093 
L 249.560928 480.937314 
L 266.162582 474.094087 
L 272.174941 469.723663 
L 282.764236 462.70696 
L 295.198881 450.034943 
L 299.36589 444.948972 
L 310.387552 430.346222 
L 315.967544 419.639089 
L 321.55552 410.657502 
L 329.7328 390.968781 
L 332.569198 379.475948 
L 335.516859 371.28006 
L 339.07429 351.59134 
L 339.786237 331.902619 
L 337.487119 312.213899 
L 332.569198 297.579491 
L 330.766987 292.525178 
L 316.600325 272.836458 
L 315.967544 272.176204 
L 299.36589 260.200653 
L 282.764236 254.691201 
L 266.162582 253.147737 
L 249.560928 255.565198 
L 232.959274 263.769827 
L 223.047493 272.836458 
L 216.35762 278.595 
L 204.480747 292.525178 
L 199.755966 298.545507 
L 190.64627 312.213899 
L 183.154312 327.721086 
L 181.142419 331.902619 
L 173.443496 351.59134 
L 168.736805 371.28006 
L 166.552658 388.252584 
L 166.036787 390.968781 
L 165.369364 410.657502 
L 166.552658 417.665138 
L 168.053036 430.346222 
L 175.011984 450.034943 
L 183.154312 461.296161 
L 192.273558 469.723663 
z
M 191.458593 450.034943 
L 183.154312 433.887735 
L 181.525718 430.346222 
L 177.686787 410.657502 
L 178.156074 390.968781 
L 181.981744 371.28006 
L 183.154312 367.680086 
L 187.668 351.59134 
L 196.72483 331.902619 
L 199.755966 326.759742 
L 209.698626 312.213899 
L 216.35762 303.917746 
L 228.879146 292.525178 
L 232.959274 288.695648 
L 249.560928 279.107169 
L 266.162582 275.975423 
L 282.764236 277.886174 
L 299.36589 285.910252 
L 306.381122 292.525178 
L 315.967544 306.861736 
L 318.542981 312.213899 
L 323.221548 331.902619 
L 323.963113 351.59134 
L 321.735732 371.28006 
L 315.967544 390.968781 
L 315.967544 390.968781 
L 308.799658 410.657502 
L 299.36589 426.258712 
L 296.96011 430.346222 
L 282.764236 447.504675 
L 279.952585 450.034943 
L 266.162582 461.251555 
L 249.560928 467.838182 
L 232.959274 469.506174 
L 216.35762 467.041176 
L 199.755966 458.538246 
z
" clip-path="url(#p425f29d21f)" style="fill: #cadef0"/>
    <path d="M 199.755966 458.538246 
L 216.35762 467.041176 
L 232.959274 469.506174 
L 249.560928 467.838182 
L 266.162582 461.251555 
L 279.952585 450.034943 
L 282.764236 447.504675 
L 296.96011 430.346222 
L 299.36589 426.258712 
L 308.799658 410.657502 
L 315.967544 390.968781 
L 315.967544 390.968781 
L 321.735732 371.28006 
L 323.963113 351.59134 
L 323.221548 331.902619 
L 318.542981 312.213899 
L 315.967544 306.861736 
L 306.381122 292.525178 
L 299.36589 285.910252 
L 282.764236 277.886174 
L 266.162582 275.975423 
L 249.560928 279.107169 
L 232.959274 288.695648 
L 228.879146 292.525178 
L 216.35762 303.917746 
L 209.698626 312.213899 
L 199.755966 326.759742 
L 196.72483 331.902619 
L 187.668 351.59134 
L 183.154312 367.680086 
L 181.981744 371.28006 
L 178.156074 390.968781 
L 177.686787 410.657502 
L 181.525718 430.346222 
L 183.154312 433.887735 
L 191.458593 450.034943 
z
M 207.356081 450.034943 
L 199.755966 442.463846 
L 192.322821 430.346222 
L 187.860274 410.657502 
L 188.1017 390.968781 
L 191.702104 371.28006 
L 198.983784 351.59134 
L 199.755966 350.037098 
L 209.757986 331.902619 
L 216.35762 322.823756 
L 226.893085 312.213899 
L 232.959274 306.319352 
L 249.560928 296.636928 
L 266.162582 293.397561 
L 282.764236 296.420431 
L 299.36589 309.280888 
L 301.487796 312.213899 
L 309.589648 331.902619 
L 311.983069 351.59134 
L 310.937644 371.28006 
L 306.736404 390.968781 
L 299.36589 408.356507 
L 298.494073 410.657502 
L 286.692878 430.346222 
L 282.764236 435.094744 
L 266.162582 450.034943 
L 266.162582 450.034943 
L 249.560928 458.313108 
L 232.959274 459.970869 
L 216.35762 455.902917 
z
" clip-path="url(#p425f29d21f)" style="fill: #aacfe5"/>
    <path d="M 216.35762 455.902917 
L 232.959274 459.970869 
L 249.560928 458.313108 
L 266.162582 450.034943 
L 266.162582 450.034943 
L 282.764236 435.094744 
L 286.692878 430.346222 
L 298.494073 410.657502 
L 299.36589 408.356507 
L 306.736404 390.968781 
L 310.937644 371.28006 
L 311.983069 351.59134 
L 309.589648 331.902619 
L 301.487796 312.213899 
L 299.36589 309.280888 
L 282.764236 296.420431 
L 266.162582 293.397561 
L 249.560928 296.636928 
L 232.959274 306.319352 
L 226.893085 312.213899 
L 216.35762 322.823756 
L 209.757986 331.902619 
L 199.755966 350.037098 
L 198.983784 351.59134 
L 191.702104 371.28006 
L 188.1017 390.968781 
L 187.860274 410.657502 
L 192.322821 430.346222 
L 199.755966 442.463846 
L 207.356081 450.034943 
z
M 203.386532 430.346222 
L 199.755966 420.214188 
L 197.019306 410.657502 
L 197.033432 390.968781 
L 199.755966 378.499455 
L 201.295889 371.28006 
L 209.321649 351.59134 
L 216.35762 340.153286 
L 223.223685 331.902619 
L 232.959274 321.752945 
L 249.107402 312.213899 
L 249.560928 311.930097 
L 266.162582 308.809516 
L 276.877149 312.213899 
L 282.764236 314.548485 
L 296.007422 331.902619 
L 299.36589 343.359422 
L 301.147236 351.59134 
L 301.268988 371.28006 
L 299.36589 380.280293 
L 297.463971 390.968781 
L 289.896337 410.657502 
L 282.764236 421.826338 
L 276.16037 430.346222 
L 266.162582 439.979408 
L 249.560928 448.507598 
L 232.959274 450.034943 
L 216.35762 444.048982 
z
" clip-path="url(#p425f29d21f)" style="fill: #7fb9da"/>
    <path d="M 216.35762 444.048982 
L 232.959274 450.034943 
L 249.560928 448.507598 
L 266.162582 439.979408 
L 276.16037 430.346222 
L 282.764236 421.826338 
L 289.896337 410.657502 
L 297.463971 390.968781 
L 299.36589 380.280293 
L 301.268988 371.28006 
L 301.147236 351.59134 
L 299.36589 343.359422 
L 296.007422 331.902619 
L 282.764236 314.548485 
L 276.877149 312.213899 
L 266.162582 308.809516 
L 249.560928 311.930097 
L 249.107402 312.213899 
L 232.959274 321.752945 
L 223.223685 331.902619 
L 216.35762 340.153286 
L 209.321649 351.59134 
L 201.295889 371.28006 
L 199.755966 378.499455 
L 197.033432 390.968781 
L 197.019306 410.657502 
L 199.755966 420.214188 
L 203.386532 430.346222 
z
M 214.365929 430.346222 
L 205.678317 410.657502 
L 205.165031 390.968781 
L 209.655156 371.28006 
L 216.35762 356.720833 
L 219.487569 351.59134 
L 232.959274 335.43821 
L 238.412671 331.902619 
L 249.560928 324.87717 
L 266.162582 323.09288 
L 281.344833 331.902619 
L 282.764236 333.28053 
L 290.783793 351.59134 
L 292.636887 371.28006 
L 289.669273 390.968781 
L 282.764236 408.068949 
L 281.582888 410.657502 
L 266.162582 430.346222 
L 266.162582 430.346222 
L 249.560928 439.690536 
L 232.959274 440.664794 
L 216.35762 432.45026 
z
" clip-path="url(#p425f29d21f)" style="fill: #57a0ce"/>
    <path d="M 216.35762 432.45026 
L 232.959274 440.664794 
L 249.560928 439.690536 
L 266.162582 430.346222 
L 266.162582 430.346222 
L 281.582888 410.657502 
L 282.764236 408.068949 
L 289.669273 390.968781 
L 292.636887 371.28006 
L 290.783793 351.59134 
L 282.764236 333.28053 
L 281.344833 331.902619 
L 266.162582 323.09288 
L 249.560928 324.87717 
L 238.412671 331.902619 
L 232.959274 335.43821 
L 219.487569 351.59134 
L 216.35762 356.720833 
L 209.655156 371.28006 
L 205.165031 390.968781 
L 205.678317 410.657502 
L 214.365929 430.346222 
z
M 215.711451 410.657502 
L 214.413089 390.968781 
L 216.35762 383.044976 
L 220.043316 371.28006 
L 232.403708 351.59134 
L 232.959274 350.925194 
L 249.560928 340.084954 
L 266.162582 340.447089 
L 276.850334 351.59134 
L 282.764236 371.28006 
L 280.208913 390.968781 
L 271.313309 410.657502 
L 266.162582 417.233975 
L 249.560928 429.133096 
L 232.959274 429.47763 
L 216.35762 412.052787 
z
" clip-path="url(#p425f29d21f)" style="fill: #3383be"/>
    <path d="M 216.35762 412.052787 
L 232.959274 429.47763 
L 249.560928 429.133096 
L 266.162582 417.233975 
L 271.313309 410.657502 
L 280.208913 390.968781 
L 282.764236 371.28006 
L 276.850334 351.59134 
L 266.162582 340.447089 
L 249.560928 340.084954 
L 232.959274 350.925194 
L 232.403708 351.59134 
L 220.043316 371.28006 
L 216.35762 383.044976 
L 214.413089 390.968781 
L 215.711451 410.657502 
z
M 232.959274 410.657502 
L 232.959274 410.657502 
L 228.397588 390.968781 
L 232.959274 375.592432 
L 235.754588 371.28006 
L 249.560928 360.725711 
L 266.162582 368.339179 
L 267.486916 371.28006 
L 267.446115 390.968781 
L 266.162582 393.87085 
L 253.038746 410.657502 
L 249.560928 413.125227 
z
" clip-path="url(#p425f29d21f)" style="fill: #125ea6"/>
    <path d="M 249.560928 413.125227 
L 253.038746 410.657502 
L 266.162582 393.87085 
L 267.446115 390.968781 
L 267.486916 371.28006 
L 266.162582 368.339179 
L 249.560928 360.725711 
L 235.754588 371.28006 
L 232.959274 375.592432 
L 228.397588 390.968781 
L 232.959274 410.657502 
L 232.959274 410.657502 
z
" clip-path="url(#p425f29d21f)" style="fill: #083d7f"/>
   </g>
   <g id="matplotlib.axis_1">
    <g id="xtick_1">
     <g id="line2d_1">
      <defs>
       <path id="mdcf6f172df" d="M 0 0 
L 0 3.5 
" style="stroke: #000000; stroke-width: 0.8"/>
      </defs>
      <g>
       <use xlink:href="#mdcf6f172df" x="107.531982" y="499.48" style="stroke: #000000; stroke-width: 0.8"/>
      </g>
     </g>
     <g id="text_1">
      <!-- 2 -->
      <g transform="translate(100.533232 523.196563) scale(0.22 -0.22)">
       <defs>
        <path id="DejaVuSans-32" d="M 1228 531 
L 3431 531 
L 3431 0 
L 469 0 
L 469 531 
Q 828 903 1448 1529 
Q 2069 2156 2228 2338 
Q 2531 2678 2651 2914 
Q 2772 3150 2772 3378 
Q 2772 3750 2511 3984 
Q 2250 4219 1831 4219 
Q 1534 4219 1204 4116 
Q 875 4013 500 3803 
L 500 4441 
Q 881 4594 1212 4672 
Q 1544 4750 1819 4750 
Q 2544 4750 2975 4387 
Q 3406 4025 3406 3419 
Q 3406 3131 3298 2873 
Q 3191 2616 2906 2266 
Q 2828 2175 2409 1742 
Q 1991 1309 1228 531 
z
" transform="scale(0.015625)"/>
       </defs>
       <use xlink:href="#DejaVuSans-32"/>
      </g>
     </g>
    </g>
    <g id="xtick_2">
     <g id="line2d_2">
      <g>
       <use xlink:href="#mdcf6f172df" x="212.075502" y="499.48" style="stroke: #000000; stroke-width: 0.8"/>
      </g>
     </g>
     <g id="text_2">
      <!-- 3 -->
      <g transform="translate(205.076752 523.196563) scale(0.22 -0.22)">
       <defs>
        <path id="DejaVuSans-33" d="M 2597 2516 
Q 3050 2419 3304 2112 
Q 3559 1806 3559 1356 
Q 3559 666 3084 287 
Q 2609 -91 1734 -91 
Q 1441 -91 1130 -33 
Q 819 25 488 141 
L 488 750 
Q 750 597 1062 519 
Q 1375 441 1716 441 
Q 2309 441 2620 675 
Q 2931 909 2931 1356 
Q 2931 1769 2642 2001 
Q 2353 2234 1838 2234 
L 1294 2234 
L 1294 2753 
L 1863 2753 
Q 2328 2753 2575 2939 
Q 2822 3125 2822 3475 
Q 2822 3834 2567 4026 
Q 2313 4219 1838 4219 
Q 1578 4219 1281 4162 
Q 984 4106 628 3988 
L 628 4550 
Q 988 4650 1302 4700 
Q 1616 4750 1894 4750 
Q 2613 4750 3031 4423 
Q 3450 4097 3450 3541 
Q 3450 3153 3228 2886 
Q 3006 2619 2597 2516 
z
" transform="scale(0.015625)"/>
       </defs>
       <use xlink:href="#DejaVuSans-33"/>
      </g>
     </g>
    </g>
    <g id="xtick_3">
     <g id="line2d_3">
      <g>
       <use xlink:href="#mdcf6f172df" x="316.619023" y="499.48" style="stroke: #000000; stroke-width: 0.8"/>
      </g>
     </g>
     <g id="text_3">
      <!-- 4 -->
      <g transform="translate(309.620273 523.196563) scale(0.22 -0.22)">
       <defs>
        <path id="DejaVuSans-34" d="M 2419 4116 
L 825 1625 
L 2419 1625 
L 2419 4116 
z
M 2253 4666 
L 3047 4666 
L 3047 1625 
L 3713 1625 
L 3713 1100 
L 3047 1100 
L 3047 0 
L 2419 0 
L 2419 1100 
L 313 1100 
L 313 1709 
L 2253 4666 
z
" transform="scale(0.015625)"/>
       </defs>
       <use xlink:href="#DejaVuSans-34"/>
      </g>
     </g>
    </g>
    <g id="xtick_4">
     <g id="line2d_4">
      <g>
       <use xlink:href="#mdcf6f172df" x="421.162543" y="499.48" style="stroke: #000000; stroke-width: 0.8"/>
      </g>
     </g>
     <g id="text_4">
      <!-- 5 -->
      <g transform="translate(414.163793 523.196563) scale(0.22 -0.22)">
       <defs>
        <path id="DejaVuSans-35" d="M 691 4666 
L 3169 4666 
L 3169 4134 
L 1269 4134 
L 1269 2991 
Q 1406 3038 1543 3061 
Q 1681 3084 1819 3084 
Q 2600 3084 3056 2656 
Q 3513 2228 3513 1497 
Q 3513 744 3044 326 
Q 2575 -91 1722 -91 
Q 1428 -91 1123 -41 
Q 819 9 494 109 
L 494 744 
Q 775 591 1075 516 
Q 1375 441 1709 441 
Q 2250 441 2565 725 
Q 2881 1009 2881 1497 
Q 2881 1984 2565 2268 
Q 2250 2553 1709 2553 
Q 1456 2553 1204 2497 
Q 953 2441 691 2322 
L 691 4666 
z
" transform="scale(0.015625)"/>
       </defs>
       <use xlink:href="#DejaVuSans-35"/>
      </g>
     </g>
    </g>
    <g id="xtick_5">
     <g id="line2d_5">
      <g>
       <use xlink:href="#mdcf6f172df" x="525.706064" y="499.48" style="stroke: #000000; stroke-width: 0.8"/>
      </g>
     </g>
     <g id="text_5">
      <!-- 6 -->
      <g transform="translate(518.707314 523.196563) scale(0.22 -0.22)">
       <defs>
        <path id="DejaVuSans-36" d="M 2113 2584 
Q 1688 2584 1439 2293 
Q 1191 2003 1191 1497 
Q 1191 994 1439 701 
Q 1688 409 2113 409 
Q 2538 409 2786 701 
Q 3034 994 3034 1497 
Q 3034 2003 2786 2293 
Q 2538 2584 2113 2584 
z
M 3366 4563 
L 3366 3988 
Q 3128 4100 2886 4159 
Q 2644 4219 2406 4219 
Q 1781 4219 1451 3797 
Q 1122 3375 1075 2522 
Q 1259 2794 1537 2939 
Q 1816 3084 2150 3084 
Q 2853 3084 3261 2657 
Q 3669 2231 3669 1497 
Q 3669 778 3244 343 
Q 2819 -91 2113 -91 
Q 1303 -91 875 529 
Q 447 1150 447 2328 
Q 447 3434 972 4092 
Q 1497 4750 2381 4750 
Q 2619 4750 2861 4703 
Q 3103 4656 3366 4563 
z
" transform="scale(0.015625)"/>
       </defs>
       <use xlink:href="#DejaVuSans-36"/>
      </g>
     </g>
    </g>
    <g id="xtick_6">
     <g id="line2d_6">
      <g>
       <use xlink:href="#mdcf6f172df" x="630.249584" y="499.48" style="stroke: #000000; stroke-width: 0.8"/>
      </g>
     </g>
     <g id="text_6">
      <!-- 7 -->
      <g transform="translate(623.250834 523.196563) scale(0.22 -0.22)">
       <defs>
        <path id="DejaVuSans-37" d="M 525 4666 
L 3525 4666 
L 3525 4397 
L 1831 0 
L 1172 0 
L 2766 4134 
L 525 4134 
L 525 4666 
z
" transform="scale(0.015625)"/>
       </defs>
       <use xlink:href="#DejaVuSans-37"/>
      </g>
     </g>
    </g>
    <g id="text_7">
     <!-- Force Uncertainties -->
     <g transform="translate(276.406094 548.488438) scale(0.22 -0.22)">
      <defs>
       <path id="DejaVuSans-46" d="M 628 4666 
L 3309 4666 
L 3309 4134 
L 1259 4134 
L 1259 2759 
L 3109 2759 
L 3109 2228 
L 1259 2228 
L 1259 0 
L 628 0 
L 628 4666 
z
" transform="scale(0.015625)"/>
       <path id="DejaVuSans-6f" d="M 1959 3097 
Q 1497 3097 1228 2736 
Q 959 2375 959 1747 
Q 959 1119 1226 758 
Q 1494 397 1959 397 
Q 2419 397 2687 759 
Q 2956 1122 2956 1747 
Q 2956 2369 2687 2733 
Q 2419 3097 1959 3097 
z
M 1959 3584 
Q 2709 3584 3137 3096 
Q 3566 2609 3566 1747 
Q 3566 888 3137 398 
Q 2709 -91 1959 -91 
Q 1206 -91 779 398 
Q 353 888 353 1747 
Q 353 2609 779 3096 
Q 1206 3584 1959 3584 
z
" transform="scale(0.015625)"/>
       <path id="DejaVuSans-72" d="M 2631 2963 
Q 2534 3019 2420 3045 
Q 2306 3072 2169 3072 
Q 1681 3072 1420 2755 
Q 1159 2438 1159 1844 
L 1159 0 
L 581 0 
L 581 3500 
L 1159 3500 
L 1159 2956 
Q 1341 3275 1631 3429 
Q 1922 3584 2338 3584 
Q 2397 3584 2469 3576 
Q 2541 3569 2628 3553 
L 2631 2963 
z
" transform="scale(0.015625)"/>
       <path id="DejaVuSans-63" d="M 3122 3366 
L 3122 2828 
Q 2878 2963 2633 3030 
Q 2388 3097 2138 3097 
Q 1578 3097 1268 2742 
Q 959 2388 959 1747 
Q 959 1106 1268 751 
Q 1578 397 2138 397 
Q 2388 397 2633 464 
Q 2878 531 3122 666 
L 3122 134 
Q 2881 22 2623 -34 
Q 2366 -91 2075 -91 
Q 1284 -91 818 406 
Q 353 903 353 1747 
Q 353 2603 823 3093 
Q 1294 3584 2113 3584 
Q 2378 3584 2631 3529 
Q 2884 3475 3122 3366 
z
" transform="scale(0.015625)"/>
       <path id="DejaVuSans-65" d="M 3597 1894 
L 3597 1613 
L 953 1613 
Q 991 1019 1311 708 
Q 1631 397 2203 397 
Q 2534 397 2845 478 
Q 3156 559 3463 722 
L 3463 178 
Q 3153 47 2828 -22 
Q 2503 -91 2169 -91 
Q 1331 -91 842 396 
Q 353 884 353 1716 
Q 353 2575 817 3079 
Q 1281 3584 2069 3584 
Q 2775 3584 3186 3129 
Q 3597 2675 3597 1894 
z
M 3022 2063 
Q 3016 2534 2758 2815 
Q 2500 3097 2075 3097 
Q 1594 3097 1305 2825 
Q 1016 2553 972 2059 
L 3022 2063 
z
" transform="scale(0.015625)"/>
       <path id="DejaVuSans-20" transform="scale(0.015625)"/>
       <path id="DejaVuSans-55" d="M 556 4666 
L 1191 4666 
L 1191 1831 
Q 1191 1081 1462 751 
Q 1734 422 2344 422 
Q 2950 422 3222 751 
Q 3494 1081 3494 1831 
L 3494 4666 
L 4128 4666 
L 4128 1753 
Q 4128 841 3676 375 
Q 3225 -91 2344 -91 
Q 1459 -91 1007 375 
Q 556 841 556 1753 
L 556 4666 
z
" transform="scale(0.015625)"/>
       <path id="DejaVuSans-6e" d="M 3513 2113 
L 3513 0 
L 2938 0 
L 2938 2094 
Q 2938 2591 2744 2837 
Q 2550 3084 2163 3084 
Q 1697 3084 1428 2787 
Q 1159 2491 1159 1978 
L 1159 0 
L 581 0 
L 581 3500 
L 1159 3500 
L 1159 2956 
Q 1366 3272 1645 3428 
Q 1925 3584 2291 3584 
Q 2894 3584 3203 3211 
Q 3513 2838 3513 2113 
z
" transform="scale(0.015625)"/>
       <path id="DejaVuSans-74" d="M 1172 4494 
L 1172 3500 
L 2356 3500 
L 2356 3053 
L 1172 3053 
L 1172 1153 
Q 1172 725 1289 603 
Q 1406 481 1766 481 
L 2356 481 
L 2356 0 
L 1766 0 
Q 1100 0 847 248 
Q 594 497 594 1153 
L 594 3053 
L 172 3053 
L 172 3500 
L 594 3500 
L 594 4494 
L 1172 4494 
z
" transform="scale(0.015625)"/>
       <path id="DejaVuSans-61" d="M 2194 1759 
Q 1497 1759 1228 1600 
Q 959 1441 959 1056 
Q 959 750 1161 570 
Q 1363 391 1709 391 
Q 2188 391 2477 730 
Q 2766 1069 2766 1631 
L 2766 1759 
L 2194 1759 
z
M 3341 1997 
L 3341 0 
L 2766 0 
L 2766 531 
Q 2569 213 2275 61 
Q 1981 -91 1556 -91 
Q 1019 -91 701 211 
Q 384 513 384 1019 
Q 384 1609 779 1909 
Q 1175 2209 1959 2209 
L 2766 2209 
L 2766 2266 
Q 2766 2663 2505 2880 
Q 2244 3097 1772 3097 
Q 1472 3097 1187 3025 
Q 903 2953 641 2809 
L 641 3341 
Q 956 3463 1253 3523 
Q 1550 3584 1831 3584 
Q 2591 3584 2966 3190 
Q 3341 2797 3341 1997 
z
" transform="scale(0.015625)"/>
       <path id="DejaVuSans-69" d="M 603 3500 
L 1178 3500 
L 1178 0 
L 603 0 
L 603 3500 
z
M 603 4863 
L 1178 4863 
L 1178 4134 
L 603 4134 
L 603 4863 
z
" transform="scale(0.015625)"/>
       <path id="DejaVuSans-73" d="M 2834 3397 
L 2834 2853 
Q 2591 2978 2328 3040 
Q 2066 3103 1784 3103 
Q 1356 3103 1142 2972 
Q 928 2841 928 2578 
Q 928 2378 1081 2264 
Q 1234 2150 1697 2047 
L 1894 2003 
Q 2506 1872 2764 1633 
Q 3022 1394 3022 966 
Q 3022 478 2636 193 
Q 2250 -91 1575 -91 
Q 1294 -91 989 -36 
Q 684 19 347 128 
L 347 722 
Q 666 556 975 473 
Q 1284 391 1588 391 
Q 1994 391 2212 530 
Q 2431 669 2431 922 
Q 2431 1156 2273 1281 
Q 2116 1406 1581 1522 
L 1381 1569 
Q 847 1681 609 1914 
Q 372 2147 372 2553 
Q 372 3047 722 3315 
Q 1072 3584 1716 3584 
Q 2034 3584 2315 3537 
Q 2597 3491 2834 3397 
z
" transform="scale(0.015625)"/>
      </defs>
      <use xlink:href="#DejaVuSans-46"/>
      <use xlink:href="#DejaVuSans-6f" x="53.894531"/>
      <use xlink:href="#DejaVuSans-72" x="115.076172"/>
      <use xlink:href="#DejaVuSans-63" x="153.939453"/>
      <use xlink:href="#DejaVuSans-65" x="208.919922"/>
      <use xlink:href="#DejaVuSans-20" x="270.443359"/>
      <use xlink:href="#DejaVuSans-55" x="302.230469"/>
      <use xlink:href="#DejaVuSans-6e" x="375.423828"/>
      <use xlink:href="#DejaVuSans-63" x="438.802734"/>
      <use xlink:href="#DejaVuSans-65" x="493.783203"/>
      <use xlink:href="#DejaVuSans-72" x="555.306641"/>
      <use xlink:href="#DejaVuSans-74" x="596.419922"/>
      <use xlink:href="#DejaVuSans-61" x="635.628906"/>
      <use xlink:href="#DejaVuSans-69" x="696.908203"/>
      <use xlink:href="#DejaVuSans-6e" x="724.691406"/>
      <use xlink:href="#DejaVuSans-74" x="788.070312"/>
      <use xlink:href="#DejaVuSans-69" x="827.279297"/>
      <use xlink:href="#DejaVuSans-65" x="855.0625"/>
      <use xlink:href="#DejaVuSans-73" x="916.585938"/>
     </g>
    </g>
   </g>
   <g id="matplotlib.axis_2">
    <g id="ytick_1">
     <g id="line2d_7">
      <defs>
       <path id="m5f6f9ce87d" d="M 0 0 
L -3.5 0 
" style="stroke: #000000; stroke-width: 0.8"/>
      </defs>
      <g>
       <use xlink:href="#m5f6f9ce87d" x="69.68" y="462.700276" style="stroke: #000000; stroke-width: 0.8"/>
      </g>
     </g>
     <g id="text_8">
      <!-- 2 -->
      <g transform="translate(48.6825 471.058558) scale(0.22 -0.22)">
       <use xlink:href="#DejaVuSans-32"/>
      </g>
     </g>
    </g>
    <g id="ytick_2">
     <g id="line2d_8">
      <g>
       <use xlink:href="#m5f6f9ce87d" x="69.68" y="384.752702" style="stroke: #000000; stroke-width: 0.8"/>
      </g>
     </g>
     <g id="text_9">
      <!-- 3 -->
      <g transform="translate(48.6825 393.110984) scale(0.22 -0.22)">
       <use xlink:href="#DejaVuSans-33"/>
      </g>
     </g>
    </g>
    <g id="ytick_3">
     <g id="line2d_9">
      <g>
       <use xlink:href="#m5f6f9ce87d" x="69.68" y="306.805129" style="stroke: #000000; stroke-width: 0.8"/>
      </g>
     </g>
     <g id="text_10">
      <!-- 4 -->
      <g transform="translate(48.6825 315.16341) scale(0.22 -0.22)">
       <use xlink:href="#DejaVuSans-34"/>
      </g>
     </g>
    </g>
    <g id="ytick_4">
     <g id="line2d_10">
      <g>
       <use xlink:href="#m5f6f9ce87d" x="69.68" y="228.857555" style="stroke: #000000; stroke-width: 0.8"/>
      </g>
     </g>
     <g id="text_11">
      <!-- 5 -->
      <g transform="translate(48.6825 237.215836) scale(0.22 -0.22)">
       <use xlink:href="#DejaVuSans-35"/>
      </g>
     </g>
    </g>
    <g id="ytick_5">
     <g id="line2d_11">
      <g>
       <use xlink:href="#m5f6f9ce87d" x="69.68" y="150.909981" style="stroke: #000000; stroke-width: 0.8"/>
      </g>
     </g>
     <g id="text_12">
      <!-- 6 -->
      <g transform="translate(48.6825 159.268262) scale(0.22 -0.22)">
       <use xlink:href="#DejaVuSans-36"/>
      </g>
     </g>
    </g>
    <g id="ytick_6">
     <g id="line2d_12">
      <g>
       <use xlink:href="#m5f6f9ce87d" x="69.68" y="72.962407" style="stroke: #000000; stroke-width: 0.8"/>
      </g>
     </g>
     <g id="text_13">
      <!-- 7 -->
      <g transform="translate(48.6825 81.320688) scale(0.22 -0.22)">
       <use xlink:href="#DejaVuSans-37"/>
      </g>
     </g>
    </g>
    <g id="text_14">
     <!-- Force Errors [kJ/(mol*A)] -->
     <g transform="translate(40.107187 394.9125) rotate(-90) scale(0.22 -0.22)">
      <defs>
       <path id="DejaVuSans-45" d="M 628 4666 
L 3578 4666 
L 3578 4134 
L 1259 4134 
L 1259 2753 
L 3481 2753 
L 3481 2222 
L 1259 2222 
L 1259 531 
L 3634 531 
L 3634 0 
L 628 0 
L 628 4666 
z
" transform="scale(0.015625)"/>
       <path id="DejaVuSans-5b" d="M 550 4863 
L 1875 4863 
L 1875 4416 
L 1125 4416 
L 1125 -397 
L 1875 -397 
L 1875 -844 
L 550 -844 
L 550 4863 
z
" transform="scale(0.015625)"/>
       <path id="DejaVuSans-6b" d="M 581 4863 
L 1159 4863 
L 1159 1991 
L 2875 3500 
L 3609 3500 
L 1753 1863 
L 3688 0 
L 2938 0 
L 1159 1709 
L 1159 0 
L 581 0 
L 581 4863 
z
" transform="scale(0.015625)"/>
       <path id="DejaVuSans-4a" d="M 628 4666 
L 1259 4666 
L 1259 325 
Q 1259 -519 939 -900 
Q 619 -1281 -91 -1281 
L -331 -1281 
L -331 -750 
L -134 -750 
Q 284 -750 456 -515 
Q 628 -281 628 325 
L 628 4666 
z
" transform="scale(0.015625)"/>
       <path id="DejaVuSans-2f" d="M 1625 4666 
L 2156 4666 
L 531 -594 
L 0 -594 
L 1625 4666 
z
" transform="scale(0.015625)"/>
       <path id="DejaVuSans-28" d="M 1984 4856 
Q 1566 4138 1362 3434 
Q 1159 2731 1159 2009 
Q 1159 1288 1364 580 
Q 1569 -128 1984 -844 
L 1484 -844 
Q 1016 -109 783 600 
Q 550 1309 550 2009 
Q 550 2706 781 3412 
Q 1013 4119 1484 4856 
L 1984 4856 
z
" transform="scale(0.015625)"/>
       <path id="DejaVuSans-6d" d="M 3328 2828 
Q 3544 3216 3844 3400 
Q 4144 3584 4550 3584 
Q 5097 3584 5394 3201 
Q 5691 2819 5691 2113 
L 5691 0 
L 5113 0 
L 5113 2094 
Q 5113 2597 4934 2840 
Q 4756 3084 4391 3084 
Q 3944 3084 3684 2787 
Q 3425 2491 3425 1978 
L 3425 0 
L 2847 0 
L 2847 2094 
Q 2847 2600 2669 2842 
Q 2491 3084 2119 3084 
Q 1678 3084 1418 2786 
Q 1159 2488 1159 1978 
L 1159 0 
L 581 0 
L 581 3500 
L 1159 3500 
L 1159 2956 
Q 1356 3278 1631 3431 
Q 1906 3584 2284 3584 
Q 2666 3584 2933 3390 
Q 3200 3197 3328 2828 
z
" transform="scale(0.015625)"/>
       <path id="DejaVuSans-6c" d="M 603 4863 
L 1178 4863 
L 1178 0 
L 603 0 
L 603 4863 
z
" transform="scale(0.015625)"/>
       <path id="DejaVuSans-2a" d="M 3009 3897 
L 1888 3291 
L 3009 2681 
L 2828 2375 
L 1778 3009 
L 1778 1831 
L 1422 1831 
L 1422 3009 
L 372 2375 
L 191 2681 
L 1313 3291 
L 191 3897 
L 372 4206 
L 1422 3572 
L 1422 4750 
L 1778 4750 
L 1778 3572 
L 2828 4206 
L 3009 3897 
z
" transform="scale(0.015625)"/>
       <path id="DejaVuSans-41" d="M 2188 4044 
L 1331 1722 
L 3047 1722 
L 2188 4044 
z
M 1831 4666 
L 2547 4666 
L 4325 0 
L 3669 0 
L 3244 1197 
L 1141 1197 
L 716 0 
L 50 0 
L 1831 4666 
z
" transform="scale(0.015625)"/>
       <path id="DejaVuSans-29" d="M 513 4856 
L 1013 4856 
Q 1481 4119 1714 3412 
Q 1947 2706 1947 2009 
Q 1947 1309 1714 600 
Q 1481 -109 1013 -844 
L 513 -844 
Q 928 -128 1133 580 
Q 1338 1288 1338 2009 
Q 1338 2731 1133 3434 
Q 928 4138 513 4856 
z
" transform="scale(0.015625)"/>
       <path id="DejaVuSans-5d" d="M 1947 4863 
L 1947 -844 
L 622 -844 
L 622 -397 
L 1369 -397 
L 1369 4416 
L 622 4416 
L 622 4863 
L 1947 4863 
z
" transform="scale(0.015625)"/>
      </defs>
      <use xlink:href="#DejaVuSans-46"/>
      <use xlink:href="#DejaVuSans-6f" x="53.894531"/>
      <use xlink:href="#DejaVuSans-72" x="115.076172"/>
      <use xlink:href="#DejaVuSans-63" x="153.939453"/>
      <use xlink:href="#DejaVuSans-65" x="208.919922"/>
      <use xlink:href="#DejaVuSans-20" x="270.443359"/>
      <use xlink:href="#DejaVuSans-45" x="302.230469"/>
      <use xlink:href="#DejaVuSans-72" x="365.414062"/>
      <use xlink:href="#DejaVuSans-72" x="404.777344"/>
      <use xlink:href="#DejaVuSans-6f" x="443.640625"/>
      <use xlink:href="#DejaVuSans-72" x="504.822266"/>
      <use xlink:href="#DejaVuSans-73" x="545.935547"/>
      <use xlink:href="#DejaVuSans-20" x="598.035156"/>
      <use xlink:href="#DejaVuSans-5b" x="629.822266"/>
      <use xlink:href="#DejaVuSans-6b" x="668.835938"/>
      <use xlink:href="#DejaVuSans-4a" x="726.746094"/>
      <use xlink:href="#DejaVuSans-2f" x="756.238281"/>
      <use xlink:href="#DejaVuSans-28" x="789.929688"/>
      <use xlink:href="#DejaVuSans-6d" x="828.943359"/>
      <use xlink:href="#DejaVuSans-6f" x="926.355469"/>
      <use xlink:href="#DejaVuSans-6c" x="987.537109"/>
      <use xlink:href="#DejaVuSans-2a" x="1015.320312"/>
      <use xlink:href="#DejaVuSans-41" x="1065.320312"/>
      <use xlink:href="#DejaVuSans-29" x="1133.728516"/>
      <use xlink:href="#DejaVuSans-5d" x="1172.742188"/>
     </g>
    </g>
   </g>
   <g id="line2d_13">
    <path d="M 69.68 499.48 
L 696.24 23.76 
" clip-path="url(#p425f29d21f)" style="fill: none; stroke-dasharray: 5.55,2.4; stroke-dashoffset: 0; stroke: #ff0000; stroke-width: 1.5"/>
   </g>
   <g id="patch_3">
    <path d="M 69.68 499.48 
L 69.68 23.76 
" style="fill: none; stroke: #000000; stroke-width: 0.8; stroke-linejoin: miter; stroke-linecap: square"/>
   </g>
   <g id="patch_4">
    <path d="M 696.24 499.48 
L 696.24 23.76 
" style="fill: none; stroke: #000000; stroke-width: 0.8; stroke-linejoin: miter; stroke-linecap: square"/>
   </g>
   <g id="patch_5">
    <path d="M 69.68 499.48 
L 696.24 499.48 
" style="fill: none; stroke: #000000; stroke-width: 0.8; stroke-linejoin: miter; stroke-linecap: square"/>
   </g>
   <g id="patch_6">
    <path d="M 69.68 23.76 
L 696.24 23.76 
" style="fill: none; stroke: #000000; stroke-width: 0.8; stroke-linejoin: miter; stroke-linecap: square"/>
   </g>
   <g id="text_15">
    <!-- Correlation in: 0.129 -->
    <g transform="translate(132.336 71.332) scale(0.22 -0.22)">
     <defs>
      <path id="DejaVuSans-43" d="M 4122 4306 
L 4122 3641 
Q 3803 3938 3442 4084 
Q 3081 4231 2675 4231 
Q 1875 4231 1450 3742 
Q 1025 3253 1025 2328 
Q 1025 1406 1450 917 
Q 1875 428 2675 428 
Q 3081 428 3442 575 
Q 3803 722 4122 1019 
L 4122 359 
Q 3791 134 3420 21 
Q 3050 -91 2638 -91 
Q 1578 -91 968 557 
Q 359 1206 359 2328 
Q 359 3453 968 4101 
Q 1578 4750 2638 4750 
Q 3056 4750 3426 4639 
Q 3797 4528 4122 4306 
z
" transform="scale(0.015625)"/>
      <path id="DejaVuSans-3a" d="M 750 794 
L 1409 794 
L 1409 0 
L 750 0 
L 750 794 
z
M 750 3309 
L 1409 3309 
L 1409 2516 
L 750 2516 
L 750 3309 
z
" transform="scale(0.015625)"/>
      <path id="DejaVuSans-30" d="M 2034 4250 
Q 1547 4250 1301 3770 
Q 1056 3291 1056 2328 
Q 1056 1369 1301 889 
Q 1547 409 2034 409 
Q 2525 409 2770 889 
Q 3016 1369 3016 2328 
Q 3016 3291 2770 3770 
Q 2525 4250 2034 4250 
z
M 2034 4750 
Q 2819 4750 3233 4129 
Q 3647 3509 3647 2328 
Q 3647 1150 3233 529 
Q 2819 -91 2034 -91 
Q 1250 -91 836 529 
Q 422 1150 422 2328 
Q 422 3509 836 4129 
Q 1250 4750 2034 4750 
z
" transform="scale(0.015625)"/>
      <path id="DejaVuSans-2e" d="M 684 794 
L 1344 794 
L 1344 0 
L 684 0 
L 684 794 
z
" transform="scale(0.015625)"/>
      <path id="DejaVuSans-31" d="M 794 531 
L 1825 531 
L 1825 4091 
L 703 3866 
L 703 4441 
L 1819 4666 
L 2450 4666 
L 2450 531 
L 3481 531 
L 3481 0 
L 794 0 
L 794 531 
z
" transform="scale(0.015625)"/>
      <path id="DejaVuSans-39" d="M 703 97 
L 703 672 
Q 941 559 1184 500 
Q 1428 441 1663 441 
Q 2288 441 2617 861 
Q 2947 1281 2994 2138 
Q 2813 1869 2534 1725 
Q 2256 1581 1919 1581 
Q 1219 1581 811 2004 
Q 403 2428 403 3163 
Q 403 3881 828 4315 
Q 1253 4750 1959 4750 
Q 2769 4750 3195 4129 
Q 3622 3509 3622 2328 
Q 3622 1225 3098 567 
Q 2575 -91 1691 -91 
Q 1453 -91 1209 -44 
Q 966 3 703 97 
z
M 1959 2075 
Q 2384 2075 2632 2365 
Q 2881 2656 2881 3163 
Q 2881 3666 2632 3958 
Q 2384 4250 1959 4250 
Q 1534 4250 1286 3958 
Q 1038 3666 1038 3163 
Q 1038 2656 1286 2365 
Q 1534 2075 1959 2075 
z
" transform="scale(0.015625)"/>
     </defs>
     <use xlink:href="#DejaVuSans-43"/>
     <use xlink:href="#DejaVuSans-6f" x="69.824219"/>
     <use xlink:href="#DejaVuSans-72" x="131.005859"/>
     <use xlink:href="#DejaVuSans-72" x="170.369141"/>
     <use xlink:href="#DejaVuSans-65" x="209.232422"/>
     <use xlink:href="#DejaVuSans-6c" x="270.755859"/>
     <use xlink:href="#DejaVuSans-61" x="298.539062"/>
     <use xlink:href="#DejaVuSans-74" x="359.818359"/>
     <use xlink:href="#DejaVuSans-69" x="399.027344"/>
     <use xlink:href="#DejaVuSans-6f" x="426.810547"/>
     <use xlink:href="#DejaVuSans-6e" x="487.992188"/>
     <use xlink:href="#DejaVuSans-20" x="551.371094"/>
     <use xlink:href="#DejaVuSans-69" x="583.158203"/>
     <use xlink:href="#DejaVuSans-6e" x="610.941406"/>
     <use xlink:href="#DejaVuSans-3a" x="674.320312"/>
     <use xlink:href="#DejaVuSans-20" x="708.011719"/>
     <use xlink:href="#DejaVuSans-30" x="739.798828"/>
     <use xlink:href="#DejaVuSans-2e" x="803.421875"/>
     <use xlink:href="#DejaVuSans-31" x="835.208984"/>
     <use xlink:href="#DejaVuSans-32" x="898.832031"/>
     <use xlink:href="#DejaVuSans-39" x="962.455078"/>
    </g>
   </g>
  </g>
 </g>
 <defs>
  <clipPath id="p425f29d21f">
   <rect x="69.68" y="23.76" width="626.56" height="475.72"/>
  </clipPath>
 </defs>
</svg>
