<?xml version="1.0" encoding="utf-8" standalone="no"?>
<!DOCTYPE svg PUBLIC "-//W3C//DTD SVG 1.1//EN"
  "http://www.w3.org/Graphics/SVG/1.1/DTD/svg11.dtd">
<svg xmlns:xlink="http://www.w3.org/1999/xlink" width="720pt" height="576pt" viewBox="0 0 720 576" xmlns="http://www.w3.org/2000/svg" version="1.1">
 <metadata>
  <rdf:RDF xmlns:dc="http://purl.org/dc/elements/1.1/" xmlns:cc="http://creativecommons.org/ns#" xmlns:rdf="http://www.w3.org/1999/02/22-rdf-syntax-ns#">
   <cc:Work>
    <dc:type rdf:resource="http://purl.org/dc/dcmitype/StillImage"/>
    <dc:date>2024-12-07T11:37:28.543529</dc:date>
    <dc:format>image/svg+xml</dc:format>
    <dc:creator>
     <cc:Agent>
      <dc:title>Matplotlib v3.8.4, https://matplotlib.org/</dc:title>
     </cc:Agent>
    </dc:creator>
   </cc:Work>
  </rdf:RDF>
 </metadata>
 <defs>
  <style type="text/css">*{stroke-linejoin: round; stroke-linecap: butt}</style>
 </defs>
 <g id="figure_1">
  <g id="patch_1">
   <path d="M 0 576 
L 720 576 
L 720 0 
L 0 0 
z
" style="fill: #ffffff"/>
  </g>
  <g id="axes_1">
   <g id="patch_2">
    <path d="M 104.69 499.48 
L 696.24 499.48 
L 696.24 23.76 
L 104.69 23.76 
z
" style="fill: #ffffff"/>
   </g>
   <g id="QuadContourSet_1">
    <path d="M 436.120575 496.807539 
L 437.830986 496.916391 
L 439.541397 496.956747 
L 441.251808 496.93793 
L 442.96222 496.865934 
L 444.672631 496.745306 
L 445.627111 496.654521 
L 446.383042 496.599359 
L 448.093453 496.4506 
L 449.803864 496.282947 
L 451.514275 496.09975 
L 453.224686 495.89872 
L 454.935097 495.668513 
L 456.645509 495.387585 
L 456.683833 495.380082 
L 458.35592 495.114881 
L 460.066331 494.762514 
L 461.776742 494.309469 
L 462.446824 494.105642 
L 463.487153 493.836573 
L 465.197564 493.353195 
L 466.907975 492.85019 
L 466.986571 492.831203 
L 468.618386 492.498324 
L 470.328798 492.231208 
L 472.039209 492.060607 
L 473.74962 491.9621 
L 475.460031 491.876302 
L 477.170442 491.732143 
L 478.334005 491.556763 
L 478.880853 491.48692 
L 480.591264 491.147944 
L 482.301675 490.666997 
L 483.404779 490.282324 
L 484.012087 490.090151 
L 485.722498 489.484102 
L 486.959878 489.007884 
L 487.432909 488.838573 
L 489.14332 488.227672 
L 490.462596 487.733444 
L 490.853731 487.596153 
L 492.564142 486.980365 
L 493.826392 486.459005 
L 494.274553 486.283652 
L 495.984964 485.515625 
L 496.609384 485.184565 
L 497.695376 484.624088 
L 498.860057 483.910126 
L 499.405787 483.578789 
L 500.764542 482.635686 
L 501.116198 482.389793 
L 502.460027 481.361247 
L 502.826609 481.074365 
L 504.033101 480.086807 
L 504.53702 479.660434 
L 505.540331 478.812368 
L 506.247431 478.190296 
L 507.023645 477.537928 
L 507.957842 476.716702 
L 508.519894 476.263489 
L 509.668253 475.288579 
L 510.065394 474.989049 
L 511.378665 473.934539 
L 511.692209 473.714609 
L 513.089076 472.653539 
L 513.409022 472.44017 
L 514.799487 471.412844 
L 515.169803 471.16573 
L 516.509898 470.147678 
L 516.868663 469.891291 
L 518.220309 468.759338 
L 518.395506 468.616851 
L 519.708388 467.342412 
L 519.93072 467.069509 
L 520.79381 466.067972 
L 521.641131 464.793533 
L 521.641131 464.793533 
L 522.339615 463.519093 
L 522.851444 462.244654 
L 523.202812 460.970214 
L 523.351542 460.223134 
L 523.482073 459.695774 
L 523.748965 458.421335 
L 523.968913 457.146895 
L 524.148583 455.872456 
L 524.30032 454.598016 
L 524.448282 453.323577 
L 524.628786 452.049137 
L 524.881342 450.774698 
L 525.061954 450.1222 
L 525.283981 449.500258 
L 525.843806 448.225819 
L 526.4352 446.951379 
L 526.772365 446.166445 
L 527.019761 445.676939 
L 527.509636 444.4025 
L 527.784981 443.12806 
L 527.864946 441.853621 
L 527.812227 440.579181 
L 527.710887 439.304742 
L 527.637429 438.030302 
L 527.638187 436.755863 
L 527.720019 435.481423 
L 527.851279 434.206984 
L 527.966835 432.932544 
L 527.973116 431.658104 
L 527.751534 430.383665 
L 527.161622 429.109225 
L 526.772365 428.624671 
L 525.982058 427.834786 
L 525.061954 427.190439 
L 523.904317 426.560346 
L 523.351542 426.291824 
L 521.641131 425.49179 
L 521.259786 425.285907 
L 519.93072 424.439961 
L 519.408683 424.011467 
L 518.334954 422.737028 
L 518.220309 422.496815 
L 517.803616 421.462588 
L 517.583876 420.188149 
L 517.541949 418.913709 
L 517.574163 417.639269 
L 517.598981 416.36483 
L 517.543481 415.09039 
L 517.311135 413.815951 
L 516.72188 412.541511 
L 516.509898 412.29069 
L 514.799487 411.32275 
L 514.443966 411.267072 
L 513.089076 411.110343 
L 511.378665 411.136675 
L 509.668253 411.216317 
L 507.957842 411.231053 
L 506.247431 411.09483 
L 504.53702 410.747275 
L 502.826609 410.148024 
L 502.513165 409.992632 
L 501.116198 409.12767 
L 500.59708 408.718193 
L 499.405787 407.473749 
L 499.381096 407.443753 
L 498.676483 406.169314 
L 498.314974 404.894874 
L 498.22191 403.620434 
L 498.283421 402.345995 
L 498.339607 401.071555 
L 498.102593 399.797116 
L 497.695376 399.259452 
L 496.217474 398.522676 
L 495.984964 398.465194 
L 494.274553 398.475303 
L 494.037287 398.522676 
L 492.564142 398.790976 
L 490.853731 399.223714 
L 489.14332 399.660998 
L 488.517348 399.797116 
L 487.432909 400.020044 
L 485.722498 400.226277 
L 484.012087 400.232656 
L 482.301675 400.010183 
L 481.484278 399.797116 
L 480.591264 399.560831 
L 478.880853 398.93416 
L 477.925221 398.522676 
L 477.170442 398.197621 
L 475.460031 397.426705 
L 475.041139 397.248237 
L 473.74962 396.667995 
L 472.039209 396.040307 
L 471.711592 395.973797 
L 470.328798 395.672657 
L 468.618386 395.724991 
L 467.783948 395.973797 
L 466.907975 396.22346 
L 465.197564 397.116555 
L 465.011523 397.248237 
L 463.487153 398.288569 
L 463.191256 398.522676 
L 461.776742 399.579478 
L 461.497207 399.797116 
L 460.066331 400.824499 
L 459.713535 401.071555 
L 458.35592 401.941865 
L 457.695662 402.345995 
L 456.645509 402.943241 
L 455.423874 403.620434 
L 454.935097 403.879629 
L 453.224686 404.792442 
L 453.03568 404.894874 
L 451.514275 405.705852 
L 450.649185 406.169314 
L 449.803864 406.619076 
L 448.174009 407.443753 
L 448.093453 407.48434 
L 446.383042 408.24436 
L 445.137386 408.718193 
L 444.672631 408.895084 
L 442.96222 409.443594 
L 441.251808 409.965718 
L 441.167971 409.992632 
L 439.541397 410.558049 
L 438.041649 411.267072 
L 437.830986 411.382786 
L 436.288724 412.541511 
L 436.120575 412.697237 
L 435.170545 413.815951 
L 434.410164 414.944984 
L 434.325687 415.09039 
L 433.65962 416.36483 
L 433.05555 417.639269 
L 432.699753 418.398665 
L 432.465056 418.913709 
L 431.849102 420.188149 
L 431.171012 421.462588 
L 430.989342 421.764158 
L 430.402377 422.737028 
L 429.550618 424.011467 
L 429.27893 424.379061 
L 428.620528 425.285907 
L 427.655735 426.560346 
L 427.568519 426.667807 
L 426.647479 427.834786 
L 425.858108 428.821701 
L 425.630611 429.109225 
L 424.565341 430.383665 
L 424.147697 430.861471 
L 423.448503 431.658104 
L 422.437286 432.785251 
L 422.303135 432.932544 
L 421.103024 434.206984 
L 420.726875 434.614485 
L 419.914272 435.481423 
L 419.016464 436.513363 
L 418.800174 436.755863 
L 417.743093 438.030302 
L 417.306053 438.623093 
L 416.776796 439.304742 
L 415.88883 440.579181 
L 415.595641 441.029181 
L 415.011614 441.853621 
L 414.133279 443.12806 
L 413.88523 443.47183 
L 413.151412 444.4025 
L 412.174819 445.589068 
L 412.096897 445.676939 
L 410.885391 446.951379 
L 410.464408 447.382594 
L 409.618512 448.225819 
L 408.753997 449.112341 
L 408.371436 449.500258 
L 407.194873 450.774698 
L 407.043586 450.951877 
L 406.092826 452.049137 
L 405.333175 453.094796 
L 405.15962 453.323577 
L 404.310637 454.598016 
L 403.642312 455.872456 
L 403.622764 455.916692 
L 403.02132 457.146895 
L 402.544264 458.421335 
L 402.184596 459.695774 
L 401.923013 460.970214 
L 401.912352 461.053297 
L 401.733277 462.244654 
L 401.652211 463.519093 
L 401.683784 464.793533 
L 401.838529 466.067972 
L 401.912352 466.422791 
L 402.107761 467.342412 
L 402.453241 468.616851 
L 402.799671 469.891291 
L 403.0659 471.16573 
L 403.219219 472.44017 
L 403.280723 473.714609 
L 403.297965 474.989049 
L 403.322087 476.263489 
L 403.399988 477.537928 
L 403.574583 478.812368 
L 403.622764 479.016745 
L 403.836491 480.086807 
L 404.248941 481.361247 
L 404.857925 482.635686 
L 405.333175 483.409361 
L 405.665638 483.910126 
L 406.6745 485.184565 
L 407.043586 485.601305 
L 407.892712 486.459005 
L 408.753997 487.254988 
L 409.294772 487.733444 
L 410.464408 488.684107 
L 410.856711 489.007884 
L 412.174819 489.960041 
L 412.629714 490.282324 
L 413.88523 491.040234 
L 414.858777 491.556763 
L 415.595641 491.904897 
L 417.306053 492.581912 
L 418.088239 492.831203 
L 419.016464 493.137001 
L 420.726875 493.614064 
L 422.437286 494.011785 
L 422.889537 494.105642 
L 424.147697 494.435568 
L 425.858108 494.847785 
L 427.568519 495.231701 
L 428.259447 495.380082 
L 429.27893 495.649345 
L 430.989342 496.051333 
L 432.699753 496.379187 
L 434.410164 496.622756 
L 434.71802 496.654521 
z
M 440.337291 490.282324 
L 439.541397 490.101212 
L 437.830986 489.637855 
L 436.120575 489.14189 
L 435.605952 489.007884 
L 434.410164 488.736534 
L 432.699753 488.424723 
L 430.989342 488.177872 
L 429.27893 487.956119 
L 427.780456 487.733444 
L 427.568519 487.703525 
L 425.858108 487.36953 
L 424.147697 486.84017 
L 423.301366 486.459005 
L 422.437286 485.994395 
L 421.32479 485.184565 
L 420.726875 484.619633 
L 420.05879 483.910126 
L 419.095105 482.635686 
L 419.016464 482.51978 
L 418.128003 481.361247 
L 417.306053 480.280379 
L 417.124482 480.086807 
L 415.912406 478.812368 
L 415.595641 478.456104 
L 414.725287 477.537928 
L 413.88523 476.313338 
L 413.854737 476.263489 
L 413.374943 474.989049 
L 413.192287 473.714609 
L 413.211355 472.44017 
L 413.356341 471.16573 
L 413.569925 469.891291 
L 413.807241 468.616851 
L 413.88523 468.165425 
L 414.017052 467.342412 
L 414.171254 466.067972 
L 414.258251 464.793533 
L 414.274969 463.519093 
L 414.239452 462.244654 
L 414.195265 460.970214 
L 414.206722 459.695774 
L 414.343267 458.421335 
L 414.661024 457.146895 
L 415.193413 455.872456 
L 415.595641 455.191728 
L 415.920803 454.598016 
L 416.816948 453.323577 
L 417.306053 452.744619 
L 417.856345 452.049137 
L 419.012675 450.774698 
L 419.016464 450.7708 
L 420.190948 449.500258 
L 420.726875 448.949589 
L 421.409494 448.225819 
L 422.437286 447.155341 
L 422.630973 446.951379 
L 423.807389 445.676939 
L 424.147697 445.292607 
L 424.9417 444.4025 
L 425.858108 443.340968 
L 426.045605 443.12806 
L 427.111937 441.853621 
L 427.568519 441.308355 
L 428.193245 440.579181 
L 429.27893 439.365394 
L 429.334763 439.304742 
L 430.556023 438.030302 
L 430.989342 437.61137 
L 431.906135 436.755863 
L 432.699753 436.065285 
L 433.406453 435.481423 
L 434.410164 434.696097 
L 435.082003 434.206984 
L 436.120575 433.476516 
L 436.968279 432.932544 
L 437.830986 432.38394 
L 439.100333 431.658104 
L 439.541397 431.400217 
L 441.251808 430.498378 
L 441.487802 430.383665 
L 442.96222 429.630235 
L 444.099231 429.109225 
L 444.672631 428.825629 
L 446.383042 428.046774 
L 446.871759 427.834786 
L 448.093453 427.26141 
L 449.694816 426.560346 
L 449.803864 426.508164 
L 451.514275 425.667525 
L 452.294948 425.285907 
L 453.224686 424.783554 
L 454.648247 424.011467 
L 454.935097 423.837651 
L 456.645509 422.80064 
L 456.75531 422.737028 
L 458.35592 421.69073 
L 458.747364 421.462588 
L 460.066331 420.607327 
L 460.848282 420.188149 
L 461.776742 419.650885 
L 463.477571 418.913709 
L 463.487153 418.909396 
L 465.197564 418.364195 
L 466.907975 418.042556 
L 468.618386 417.893146 
L 470.328798 417.876936 
L 472.039209 417.967135 
L 473.74962 418.152347 
L 475.460031 418.442277 
L 477.170442 418.870305 
L 477.300087 418.913709 
L 478.880853 419.503846 
L 480.253386 420.188149 
L 480.591264 420.360035 
L 482.301675 421.335564 
L 482.517478 421.462588 
L 484.012087 422.185722 
L 485.265455 422.737028 
L 485.722498 422.892687 
L 487.432909 423.393429 
L 489.14332 423.799184 
L 490.247607 424.011467 
L 490.853731 424.117029 
L 492.564142 424.410874 
L 494.274553 424.808499 
L 495.532783 425.285907 
L 495.984964 425.516869 
L 497.260996 426.560346 
L 497.695376 427.113487 
L 498.155999 427.834786 
L 498.797582 429.109225 
L 499.397423 430.383665 
L 499.405787 430.39942 
L 500.146704 431.658104 
L 501.017536 432.932544 
L 501.116198 433.062599 
L 502.09917 434.206984 
L 502.826609 435.076009 
L 503.201828 435.481423 
L 504.257137 436.755863 
L 504.53702 437.152978 
L 505.18939 438.030302 
L 505.973783 439.304742 
L 506.247431 439.812029 
L 506.67909 440.579181 
L 507.341663 441.853621 
L 507.955245 443.12806 
L 507.957842 443.133676 
L 508.541075 444.4025 
L 509.033561 445.676939 
L 509.415758 446.951379 
L 509.668253 448.12438 
L 509.689367 448.225819 
L 509.875794 449.500258 
L 509.98682 450.774698 
L 510.039899 452.049137 
L 510.041318 453.323577 
L 509.98193 454.598016 
L 509.837968 455.872456 
L 509.668253 456.703341 
L 509.58178 457.146895 
L 509.19369 458.421335 
L 508.65258 459.695774 
L 507.957842 460.970214 
L 507.957842 460.970214 
L 507.156642 462.244654 
L 506.247431 463.511025 
L 506.241777 463.519093 
L 505.287529 464.793533 
L 504.53702 465.745456 
L 504.288604 466.067972 
L 503.29662 467.342412 
L 502.826609 467.94062 
L 502.306335 468.616851 
L 501.299789 469.891291 
L 501.116198 470.117546 
L 500.266689 471.16573 
L 499.405787 472.135608 
L 499.129539 472.44017 
L 497.843256 473.714609 
L 497.695376 473.847207 
L 496.342975 474.989049 
L 495.984964 475.260071 
L 494.564969 476.263489 
L 494.274553 476.451176 
L 492.564142 477.498267 
L 492.498445 477.537928 
L 490.853731 478.471612 
L 490.247528 478.812368 
L 489.14332 479.404993 
L 487.865343 480.086807 
L 487.432909 480.309715 
L 485.722498 481.185122 
L 485.366533 481.361247 
L 484.012087 482.016768 
L 482.588564 482.635686 
L 482.301675 482.75984 
L 480.591264 483.424018 
L 479.058658 483.910126 
L 478.880853 483.967608 
L 477.170442 484.443749 
L 475.460031 484.834252 
L 473.74962 485.177543 
L 473.716038 485.184565 
L 472.039209 485.553554 
L 470.328798 485.949329 
L 468.618386 486.37932 
L 468.340206 486.459005 
L 466.907975 486.896727 
L 465.197564 487.43674 
L 464.255098 487.733444 
L 463.487153 487.993337 
L 461.776742 488.538964 
L 460.066331 489.006313 
L 460.059828 489.007884 
L 458.35592 489.458732 
L 456.645509 489.824303 
L 454.935097 490.120305 
L 453.812454 490.282324 
L 453.224686 490.379121 
L 451.514275 490.616843 
L 449.803864 490.802787 
L 448.093453 490.929614 
L 446.383042 490.983044 
L 444.672631 490.943709 
L 442.96222 490.789649 
L 441.251808 490.50146 
z
" clip-path="url(#p461fa2cec1)" style="fill: #eef5fc"/>
    <path d="M 441.251808 490.50146 
L 442.96222 490.789649 
L 444.672631 490.943709 
L 446.383042 490.983044 
L 448.093453 490.929614 
L 449.803864 490.802787 
L 451.514275 490.616843 
L 453.224686 490.379121 
L 453.812454 490.282324 
L 454.935097 490.120305 
L 456.645509 489.824303 
L 458.35592 489.458732 
L 460.059828 489.007884 
L 460.066331 489.006313 
L 461.776742 488.538964 
L 463.487153 487.993337 
L 464.255098 487.733444 
L 465.197564 487.43674 
L 466.907975 486.896727 
L 468.340206 486.459005 
L 468.618386 486.37932 
L 470.328798 485.949329 
L 472.039209 485.553554 
L 473.716038 485.184565 
L 473.74962 485.177543 
L 475.460031 484.834252 
L 477.170442 484.443749 
L 478.880853 483.967608 
L 479.058658 483.910126 
L 480.591264 483.424018 
L 482.301675 482.75984 
L 482.588564 482.635686 
L 484.012087 482.016768 
L 485.366533 481.361247 
L 485.722498 481.185122 
L 487.432909 480.309715 
L 487.865343 480.086807 
L 489.14332 479.404993 
L 490.247528 478.812368 
L 490.853731 478.471612 
L 492.498445 477.537928 
L 492.564142 477.498267 
L 494.274553 476.451176 
L 494.564969 476.263489 
L 495.984964 475.260071 
L 496.342975 474.989049 
L 497.695376 473.847207 
L 497.843256 473.714609 
L 499.129539 472.44017 
L 499.405787 472.135608 
L 500.266689 471.16573 
L 501.116198 470.117546 
L 501.299789 469.891291 
L 502.306335 468.616851 
L 502.826609 467.94062 
L 503.29662 467.342412 
L 504.288604 466.067972 
L 504.53702 465.745456 
L 505.287529 464.793533 
L 506.241777 463.519093 
L 506.247431 463.511025 
L 507.156642 462.244654 
L 507.957842 460.970214 
L 507.957842 460.970214 
L 508.65258 459.695774 
L 509.19369 458.421335 
L 509.58178 457.146895 
L 509.668253 456.703341 
L 509.837968 455.872456 
L 509.98193 454.598016 
L 510.041318 453.323577 
L 510.039899 452.049137 
L 509.98682 450.774698 
L 509.875794 449.500258 
L 509.689367 448.225819 
L 509.668253 448.12438 
L 509.415758 446.951379 
L 509.033561 445.676939 
L 508.541075 444.4025 
L 507.957842 443.133676 
L 507.955245 443.12806 
L 507.341663 441.853621 
L 506.67909 440.579181 
L 506.247431 439.812029 
L 505.973783 439.304742 
L 505.18939 438.030302 
L 504.53702 437.152978 
L 504.257137 436.755863 
L 503.201828 435.481423 
L 502.826609 435.076009 
L 502.09917 434.206984 
L 501.116198 433.062599 
L 501.017536 432.932544 
L 500.146704 431.658104 
L 499.405787 430.39942 
L 499.397423 430.383665 
L 498.797582 429.109225 
L 498.155999 427.834786 
L 497.695376 427.113487 
L 497.260996 426.560346 
L 495.984964 425.516869 
L 495.532783 425.285907 
L 494.274553 424.808499 
L 492.564142 424.410874 
L 490.853731 424.117029 
L 490.247607 424.011467 
L 489.14332 423.799184 
L 487.432909 423.393429 
L 485.722498 422.892687 
L 485.265455 422.737028 
L 484.012087 422.185722 
L 482.517478 421.462588 
L 482.301675 421.335564 
L 480.591264 420.360035 
L 480.253386 420.188149 
L 478.880853 419.503846 
L 477.300087 418.913709 
L 477.170442 418.870305 
L 475.460031 418.442277 
L 473.74962 418.152347 
L 472.039209 417.967135 
L 470.328798 417.876936 
L 468.618386 417.893146 
L 466.907975 418.042556 
L 465.197564 418.364195 
L 463.487153 418.909396 
L 463.477571 418.913709 
L 461.776742 419.650885 
L 460.848282 420.188149 
L 460.066331 420.607327 
L 458.747364 421.462588 
L 458.35592 421.69073 
L 456.75531 422.737028 
L 456.645509 422.80064 
L 454.935097 423.837651 
L 454.648247 424.011467 
L 453.224686 424.783554 
L 452.294948 425.285907 
L 451.514275 425.667525 
L 449.803864 426.508164 
L 449.694816 426.560346 
L 448.093453 427.26141 
L 446.871759 427.834786 
L 446.383042 428.046774 
L 444.672631 428.825629 
L 444.099231 429.109225 
L 442.96222 429.630235 
L 441.487802 430.383665 
L 441.251808 430.498378 
L 439.541397 431.400217 
L 439.100333 431.658104 
L 437.830986 432.38394 
L 436.968279 432.932544 
L 436.120575 433.476516 
L 435.082003 434.206984 
L 434.410164 434.696097 
L 433.406453 435.481423 
L 432.699753 436.065285 
L 431.906135 436.755863 
L 430.989342 437.61137 
L 430.556023 438.030302 
L 429.334763 439.304742 
L 429.27893 439.365394 
L 428.193245 440.579181 
L 427.568519 441.308355 
L 427.111937 441.853621 
L 426.045605 443.12806 
L 425.858108 443.340968 
L 424.9417 444.4025 
L 424.147697 445.292607 
L 423.807389 445.676939 
L 422.630973 446.951379 
L 422.437286 447.155341 
L 421.409494 448.225819 
L 420.726875 448.949589 
L 420.190948 449.500258 
L 419.016464 450.7708 
L 419.012675 450.774698 
L 417.856345 452.049137 
L 417.306053 452.744619 
L 416.816948 453.323577 
L 415.920803 454.598016 
L 415.595641 455.191728 
L 415.193413 455.872456 
L 414.661024 457.146895 
L 414.343267 458.421335 
L 414.206722 459.695774 
L 414.195265 460.970214 
L 414.239452 462.244654 
L 414.274969 463.519093 
L 414.258251 464.793533 
L 414.171254 466.067972 
L 414.017052 467.342412 
L 413.88523 468.165425 
L 413.807241 468.616851 
L 413.569925 469.891291 
L 413.356341 471.16573 
L 413.211355 472.44017 
L 413.192287 473.714609 
L 413.374943 474.989049 
L 413.854737 476.263489 
L 413.88523 476.313338 
L 414.725287 477.537928 
L 415.595641 478.456104 
L 415.912406 478.812368 
L 417.124482 480.086807 
L 417.306053 480.280379 
L 418.128003 481.361247 
L 419.016464 482.51978 
L 419.095105 482.635686 
L 420.05879 483.910126 
L 420.726875 484.619633 
L 421.32479 485.184565 
L 422.437286 485.994395 
L 423.301366 486.459005 
L 424.147697 486.84017 
L 425.858108 487.36953 
L 427.568519 487.703525 
L 427.780456 487.733444 
L 429.27893 487.956119 
L 430.989342 488.177872 
L 432.699753 488.424723 
L 434.410164 488.736534 
L 435.605952 489.007884 
L 436.120575 489.14189 
L 437.830986 489.637855 
L 439.541397 490.101212 
L 440.337291 490.282324 
z
M 441.287051 486.459005 
L 441.251808 486.449778 
L 439.541397 485.956228 
L 437.830986 485.450423 
L 436.843601 485.184565 
L 436.120575 485.001421 
L 434.410164 484.632046 
L 432.699753 484.301739 
L 430.989342 483.961022 
L 430.771257 483.910126 
L 429.27893 483.537474 
L 427.568519 482.896568 
L 427.07872 482.635686 
L 425.858108 481.819611 
L 425.345769 481.361247 
L 424.273815 480.086807 
L 424.147697 479.892626 
L 423.479881 478.812368 
L 422.842211 477.537928 
L 422.437286 476.577223 
L 422.284553 476.263489 
L 421.74035 474.989049 
L 421.293223 473.714609 
L 420.960724 472.44017 
L 420.749149 471.16573 
L 420.726875 470.883449 
L 420.639857 469.891291 
L 420.634442 468.616851 
L 420.706904 467.342412 
L 420.726875 467.142938 
L 420.825897 466.067972 
L 420.980735 464.793533 
L 421.164384 463.519093 
L 421.375062 462.244654 
L 421.619276 460.970214 
L 421.912435 459.695774 
L 422.277087 458.421335 
L 422.437286 457.967633 
L 422.726388 457.146895 
L 423.289163 455.872456 
L 423.985918 454.598016 
L 424.147697 454.34833 
L 424.805097 453.323577 
L 425.760402 452.049137 
L 425.858108 451.933241 
L 426.827783 450.774698 
L 427.568519 449.975152 
L 428.006395 449.500258 
L 429.27893 448.225819 
L 429.27893 448.225819 
L 430.613274 446.951379 
L 430.989342 446.600379 
L 431.999546 445.676939 
L 432.699753 445.040488 
L 433.423363 444.4025 
L 434.410164 443.527941 
L 434.879215 443.12806 
L 436.120575 442.061835 
L 436.373775 441.853621 
L 437.830986 440.65451 
L 437.926616 440.579181 
L 439.541397 439.324088 
L 439.567303 439.304742 
L 441.251808 438.084418 
L 441.329105 438.030302 
L 442.96222 436.937307 
L 443.241063 436.755863 
L 444.672631 435.872418 
L 445.321041 435.481423 
L 446.383042 434.873913 
L 447.572406 434.206984 
L 448.093453 433.927649 
L 449.803864 433.021304 
L 449.971168 432.932544 
L 451.514275 432.136557 
L 452.465865 431.658104 
L 453.224686 431.280569 
L 454.935097 430.45766 
L 455.094594 430.383665 
L 456.645509 429.652512 
L 457.925665 429.109225 
L 458.35592 428.917742 
L 460.066331 428.250175 
L 461.398832 427.834786 
L 461.776742 427.705414 
L 463.487153 427.27037 
L 465.197564 426.999343 
L 466.907975 426.885655 
L 468.618386 426.921793 
L 470.328798 427.099977 
L 472.039209 427.40823 
L 473.74962 427.821541 
L 473.799423 427.834786 
L 475.460031 428.254711 
L 477.170442 428.686126 
L 478.880853 429.077878 
L 479.033866 429.109225 
L 480.591264 429.416844 
L 482.301675 429.753556 
L 484.012087 430.145536 
L 484.826778 430.383665 
L 485.722498 430.679673 
L 487.432909 431.477969 
L 487.72239 431.658104 
L 489.14332 432.738004 
L 489.349336 432.932544 
L 490.591726 434.206984 
L 490.853731 434.47587 
L 491.762355 435.481423 
L 492.564142 436.347229 
L 492.92722 436.755863 
L 494.025381 438.030302 
L 494.274553 438.351967 
L 494.98488 439.304742 
L 495.747256 440.579181 
L 495.984964 441.088801 
L 496.352235 441.853621 
L 496.835485 443.12806 
L 497.239649 444.4025 
L 497.62522 445.676939 
L 497.695376 445.897017 
L 498.088269 446.951379 
L 498.615277 448.225819 
L 499.17346 449.500258 
L 499.405787 450.059578 
L 499.709243 450.774698 
L 500.133384 452.049137 
L 500.401113 453.323577 
L 500.506621 454.598016 
L 500.456822 455.872456 
L 500.259525 457.146895 
L 499.918128 458.421335 
L 499.432431 459.695774 
L 499.405787 459.750618 
L 498.852948 460.970214 
L 498.156222 462.244654 
L 497.695376 462.975638 
L 497.376514 463.519093 
L 496.541388 464.793533 
L 495.984964 465.561959 
L 495.638461 466.067972 
L 494.674774 467.342412 
L 494.274553 467.821471 
L 493.623317 468.616851 
L 492.564142 469.750471 
L 492.432409 469.891291 
L 491.097586 471.16573 
L 490.853731 471.375149 
L 489.586886 472.44017 
L 489.14332 472.780763 
L 487.903907 473.714609 
L 487.432909 474.047465 
L 486.077056 474.989049 
L 485.722498 475.224279 
L 484.111666 476.263489 
L 484.012087 476.325318 
L 482.301675 477.350104 
L 481.964244 477.537928 
L 480.591264 478.274502 
L 479.459848 478.812368 
L 478.880853 479.078851 
L 477.170442 479.78044 
L 476.320925 480.086807 
L 475.460031 480.392792 
L 473.74962 480.947566 
L 472.379146 481.361247 
L 472.039209 481.464663 
L 470.328798 482.0013 
L 468.618386 482.541249 
L 468.339966 482.635686 
L 466.907975 483.1345 
L 465.197564 483.736952 
L 464.712638 483.910126 
L 463.487153 484.36168 
L 461.776742 484.955317 
L 461.059512 485.184565 
L 460.066331 485.514094 
L 458.35592 486.01151 
L 456.645509 486.42568 
L 456.484038 486.459005 
L 454.935097 486.798851 
L 453.224686 487.096835 
L 451.514275 487.319053 
L 449.803864 487.460383 
L 448.093453 487.507533 
L 446.383042 487.441983 
L 444.672631 487.245843 
L 442.96222 486.910809 
z
" clip-path="url(#p461fa2cec1)" style="fill: #dae8f6"/>
    <path d="M 442.96222 486.910809 
L 444.672631 487.245843 
L 446.383042 487.441983 
L 448.093453 487.507533 
L 449.803864 487.460383 
L 451.514275 487.319053 
L 453.224686 487.096835 
L 454.935097 486.798851 
L 456.484038 486.459005 
L 456.645509 486.42568 
L 458.35592 486.01151 
L 460.066331 485.514094 
L 461.059512 485.184565 
L 461.776742 484.955317 
L 463.487153 484.36168 
L 464.712638 483.910126 
L 465.197564 483.736952 
L 466.907975 483.1345 
L 468.339966 482.635686 
L 468.618386 482.541249 
L 470.328798 482.0013 
L 472.039209 481.464663 
L 472.379146 481.361247 
L 473.74962 480.947566 
L 475.460031 480.392792 
L 476.320925 480.086807 
L 477.170442 479.78044 
L 478.880853 479.078851 
L 479.459848 478.812368 
L 480.591264 478.274502 
L 481.964244 477.537928 
L 482.301675 477.350104 
L 484.012087 476.325318 
L 484.111666 476.263489 
L 485.722498 475.224279 
L 486.077056 474.989049 
L 487.432909 474.047465 
L 487.903907 473.714609 
L 489.14332 472.780763 
L 489.586886 472.44017 
L 490.853731 471.375149 
L 491.097586 471.16573 
L 492.432409 469.891291 
L 492.564142 469.750471 
L 493.623317 468.616851 
L 494.274553 467.821471 
L 494.674774 467.342412 
L 495.638461 466.067972 
L 495.984964 465.561959 
L 496.541388 464.793533 
L 497.376514 463.519093 
L 497.695376 462.975638 
L 498.156222 462.244654 
L 498.852948 460.970214 
L 499.405787 459.750618 
L 499.432431 459.695774 
L 499.918128 458.421335 
L 500.259525 457.146895 
L 500.456822 455.872456 
L 500.506621 454.598016 
L 500.401113 453.323577 
L 500.133384 452.049137 
L 499.709243 450.774698 
L 499.405787 450.059578 
L 499.17346 449.500258 
L 498.615277 448.225819 
L 498.088269 446.951379 
L 497.695376 445.897017 
L 497.62522 445.676939 
L 497.239649 444.4025 
L 496.835485 443.12806 
L 496.352235 441.853621 
L 495.984964 441.088801 
L 495.747256 440.579181 
L 494.98488 439.304742 
L 494.274553 438.351967 
L 494.025381 438.030302 
L 492.92722 436.755863 
L 492.564142 436.347229 
L 491.762355 435.481423 
L 490.853731 434.47587 
L 490.591726 434.206984 
L 489.349336 432.932544 
L 489.14332 432.738004 
L 487.72239 431.658104 
L 487.432909 431.477969 
L 485.722498 430.679673 
L 484.826778 430.383665 
L 484.012087 430.145536 
L 482.301675 429.753556 
L 480.591264 429.416844 
L 479.033866 429.109225 
L 478.880853 429.077878 
L 477.170442 428.686126 
L 475.460031 428.254711 
L 473.799423 427.834786 
L 473.74962 427.821541 
L 472.039209 427.40823 
L 470.328798 427.099977 
L 468.618386 426.921793 
L 466.907975 426.885655 
L 465.197564 426.999343 
L 463.487153 427.27037 
L 461.776742 427.705414 
L 461.398832 427.834786 
L 460.066331 428.250175 
L 458.35592 428.917742 
L 457.925665 429.109225 
L 456.645509 429.652512 
L 455.094594 430.383665 
L 454.935097 430.45766 
L 453.224686 431.280569 
L 452.465865 431.658104 
L 451.514275 432.136557 
L 449.971168 432.932544 
L 449.803864 433.021304 
L 448.093453 433.927649 
L 447.572406 434.206984 
L 446.383042 434.873913 
L 445.321041 435.481423 
L 444.672631 435.872418 
L 443.241063 436.755863 
L 442.96222 436.937307 
L 441.329105 438.030302 
L 441.251808 438.084418 
L 439.567303 439.304742 
L 439.541397 439.324088 
L 437.926616 440.579181 
L 437.830986 440.65451 
L 436.373775 441.853621 
L 436.120575 442.061835 
L 434.879215 443.12806 
L 434.410164 443.527941 
L 433.423363 444.4025 
L 432.699753 445.040488 
L 431.999546 445.676939 
L 430.989342 446.600379 
L 430.613274 446.951379 
L 429.27893 448.225819 
L 429.27893 448.225819 
L 428.006395 449.500258 
L 427.568519 449.975152 
L 426.827783 450.774698 
L 425.858108 451.933241 
L 425.760402 452.049137 
L 424.805097 453.323577 
L 424.147697 454.34833 
L 423.985918 454.598016 
L 423.289163 455.872456 
L 422.726388 457.146895 
L 422.437286 457.967633 
L 422.277087 458.421335 
L 421.912435 459.695774 
L 421.619276 460.970214 
L 421.375062 462.244654 
L 421.164384 463.519093 
L 420.980735 464.793533 
L 420.825897 466.067972 
L 420.726875 467.142938 
L 420.706904 467.342412 
L 420.634442 468.616851 
L 420.639857 469.891291 
L 420.726875 470.883449 
L 420.749149 471.16573 
L 420.960724 472.44017 
L 421.293223 473.714609 
L 421.74035 474.989049 
L 422.284553 476.263489 
L 422.437286 476.577223 
L 422.842211 477.537928 
L 423.479881 478.812368 
L 424.147697 479.892626 
L 424.273815 480.086807 
L 425.345769 481.361247 
L 425.858108 481.819611 
L 427.07872 482.635686 
L 427.568519 482.896568 
L 429.27893 483.537474 
L 430.771257 483.910126 
L 430.989342 483.961022 
L 432.699753 484.301739 
L 434.410164 484.632046 
L 436.120575 485.001421 
L 436.843601 485.184565 
L 437.830986 485.450423 
L 439.541397 485.956228 
L 441.251808 486.449778 
L 441.287051 486.459005 
z
M 443.656519 483.910126 
L 442.96222 483.729117 
L 441.251808 483.211654 
L 439.541397 482.663561 
L 439.4496 482.635686 
L 437.830986 482.151323 
L 436.120575 481.674829 
L 434.936823 481.361247 
L 434.410164 481.216859 
L 432.699753 480.716521 
L 431.045171 480.086807 
L 430.989342 480.061897 
L 429.27893 479.017519 
L 429.03375 478.812368 
L 427.883887 477.537928 
L 427.568519 477.040779 
L 427.134495 476.263489 
L 426.618158 474.989049 
L 426.259271 473.714609 
L 426.020878 472.44017 
L 425.881259 471.16573 
L 425.858108 470.61087 
L 425.824146 469.891291 
L 425.85165 468.616851 
L 425.858108 468.539515 
L 425.951597 467.342412 
L 426.124401 466.067972 
L 426.37105 464.793533 
L 426.692592 463.519093 
L 427.090744 462.244654 
L 427.568519 460.970214 
L 427.568519 460.970214 
L 428.076146 459.695774 
L 428.659766 458.421335 
L 429.27893 457.240287 
L 429.32511 457.146895 
L 430.010749 455.872456 
L 430.811441 454.598016 
L 430.989342 454.343561 
L 431.667622 453.323577 
L 432.668145 452.049137 
L 432.699753 452.012721 
L 433.745447 450.774698 
L 434.410164 450.087903 
L 434.973514 449.500258 
L 436.120575 448.426601 
L 436.336473 448.225819 
L 437.814545 446.951379 
L 437.830986 446.937747 
L 439.37782 445.676939 
L 439.541397 445.547504 
L 441.017789 444.4025 
L 441.251808 444.223385 
L 442.715225 443.12806 
L 442.96222 442.944081 
L 444.465775 441.853621 
L 444.672631 441.70402 
L 446.280081 440.579181 
L 446.383042 440.507452 
L 448.093453 439.357123 
L 448.174901 439.304742 
L 449.803864 438.253477 
L 450.164865 438.030302 
L 451.514275 437.198338 
L 452.257761 436.755863 
L 453.224686 436.18745 
L 454.46899 435.481423 
L 454.935097 435.222828 
L 456.645509 434.321433 
L 456.881731 434.206984 
L 458.35592 433.513544 
L 459.795741 432.932544 
L 460.066331 432.825648 
L 461.776742 432.298188 
L 463.487153 431.949496 
L 465.197564 431.799137 
L 466.907975 431.859558 
L 468.618386 432.132306 
L 470.328798 432.601143 
L 471.272461 432.932544 
L 472.039209 433.227504 
L 473.74962 433.928716 
L 474.476929 434.206984 
L 475.460031 434.599257 
L 477.170442 435.181763 
L 478.175114 435.481423 
L 478.880853 435.688329 
L 480.591264 436.198074 
L 482.11478 436.755863 
L 482.301675 436.821201 
L 484.012087 437.594428 
L 484.755113 438.030302 
L 485.722498 438.585174 
L 486.727565 439.304742 
L 487.432909 439.839908 
L 488.243002 440.579181 
L 489.14332 441.573074 
L 489.364301 441.853621 
L 490.141456 443.12806 
L 490.655205 444.4025 
L 490.853731 445.182963 
L 490.98053 445.676939 
L 491.192752 446.951379 
L 491.342498 448.225819 
L 491.485209 449.500258 
L 491.666701 450.774698 
L 491.910692 452.049137 
L 492.203699 453.323577 
L 492.492891 454.598016 
L 492.564142 455.015062 
L 492.726346 455.872456 
L 492.818851 457.146895 
L 492.738388 458.421335 
L 492.564142 459.299237 
L 492.494609 459.695774 
L 492.120943 460.970214 
L 491.610883 462.244654 
L 490.968247 463.519093 
L 490.853731 463.709901 
L 490.241626 464.793533 
L 489.37346 466.067972 
L 489.14332 466.359734 
L 488.388725 467.342412 
L 487.432909 468.392034 
L 487.231326 468.616851 
L 485.918247 469.891291 
L 485.722498 470.061006 
L 484.446743 471.16573 
L 484.012087 471.506715 
L 482.806405 472.44017 
L 482.301675 472.802237 
L 480.982953 473.714609 
L 480.591264 473.969828 
L 478.915693 474.989049 
L 478.880853 475.009253 
L 477.170442 475.938461 
L 476.50186 476.263489 
L 475.460031 476.75413 
L 473.74962 477.472303 
L 473.585829 477.537928 
L 472.039209 478.152916 
L 470.328798 478.784485 
L 470.25473 478.812368 
L 468.618386 479.437288 
L 466.907975 480.076376 
L 466.880996 480.086807 
L 465.197564 480.753545 
L 463.613887 481.361247 
L 463.487153 481.411024 
L 461.776742 482.070609 
L 460.167653 482.635686 
L 460.066331 482.671969 
L 458.35592 483.230454 
L 456.645509 483.702125 
L 455.732857 483.910126 
L 454.935097 484.096966 
L 453.224686 484.405384 
L 451.514275 484.611634 
L 449.803864 484.70525 
L 448.093453 484.671064 
L 446.383042 484.495246 
L 444.672631 484.17384 
z
" clip-path="url(#p461fa2cec1)" style="fill: #c6dbef"/>
    <path d="M 444.672631 484.17384 
L 446.383042 484.495246 
L 448.093453 484.671064 
L 449.803864 484.70525 
L 451.514275 484.611634 
L 453.224686 484.405384 
L 454.935097 484.096966 
L 455.732857 483.910126 
L 456.645509 483.702125 
L 458.35592 483.230454 
L 460.066331 482.671969 
L 460.167653 482.635686 
L 461.776742 482.070609 
L 463.487153 481.411024 
L 463.613887 481.361247 
L 465.197564 480.753545 
L 466.880996 480.086807 
L 466.907975 480.076376 
L 468.618386 479.437288 
L 470.25473 478.812368 
L 470.328798 478.784485 
L 472.039209 478.152916 
L 473.585829 477.537928 
L 473.74962 477.472303 
L 475.460031 476.75413 
L 476.50186 476.263489 
L 477.170442 475.938461 
L 478.880853 475.009253 
L 478.915693 474.989049 
L 480.591264 473.969828 
L 480.982953 473.714609 
L 482.301675 472.802237 
L 482.806405 472.44017 
L 484.012087 471.506715 
L 484.446743 471.16573 
L 485.722498 470.061006 
L 485.918247 469.891291 
L 487.231326 468.616851 
L 487.432909 468.392034 
L 488.388725 467.342412 
L 489.14332 466.359734 
L 489.37346 466.067972 
L 490.241626 464.793533 
L 490.853731 463.709901 
L 490.968247 463.519093 
L 491.610883 462.244654 
L 492.120943 460.970214 
L 492.494609 459.695774 
L 492.564142 459.299237 
L 492.738388 458.421335 
L 492.818851 457.146895 
L 492.726346 455.872456 
L 492.564142 455.015062 
L 492.492891 454.598016 
L 492.203699 453.323577 
L 491.910692 452.049137 
L 491.666701 450.774698 
L 491.485209 449.500258 
L 491.342498 448.225819 
L 491.192752 446.951379 
L 490.98053 445.676939 
L 490.853731 445.182963 
L 490.655205 444.4025 
L 490.141456 443.12806 
L 489.364301 441.853621 
L 489.14332 441.573074 
L 488.243002 440.579181 
L 487.432909 439.839908 
L 486.727565 439.304742 
L 485.722498 438.585174 
L 484.755113 438.030302 
L 484.012087 437.594428 
L 482.301675 436.821201 
L 482.11478 436.755863 
L 480.591264 436.198074 
L 478.880853 435.688329 
L 478.175114 435.481423 
L 477.170442 435.181763 
L 475.460031 434.599257 
L 474.476929 434.206984 
L 473.74962 433.928716 
L 472.039209 433.227504 
L 471.272461 432.932544 
L 470.328798 432.601143 
L 468.618386 432.132306 
L 466.907975 431.859558 
L 465.197564 431.799137 
L 463.487153 431.949496 
L 461.776742 432.298188 
L 460.066331 432.825648 
L 459.795741 432.932544 
L 458.35592 433.513544 
L 456.881731 434.206984 
L 456.645509 434.321433 
L 454.935097 435.222828 
L 454.46899 435.481423 
L 453.224686 436.18745 
L 452.257761 436.755863 
L 451.514275 437.198338 
L 450.164865 438.030302 
L 449.803864 438.253477 
L 448.174901 439.304742 
L 448.093453 439.357123 
L 446.383042 440.507452 
L 446.280081 440.579181 
L 444.672631 441.70402 
L 444.465775 441.853621 
L 442.96222 442.944081 
L 442.715225 443.12806 
L 441.251808 444.223385 
L 441.017789 444.4025 
L 439.541397 445.547504 
L 439.37782 445.676939 
L 437.830986 446.937747 
L 437.814545 446.951379 
L 436.336473 448.225819 
L 436.120575 448.426601 
L 434.973514 449.500258 
L 434.410164 450.087903 
L 433.745447 450.774698 
L 432.699753 452.012721 
L 432.668145 452.049137 
L 431.667622 453.323577 
L 430.989342 454.343561 
L 430.811441 454.598016 
L 430.010749 455.872456 
L 429.32511 457.146895 
L 429.27893 457.240287 
L 428.659766 458.421335 
L 428.076146 459.695774 
L 427.568519 460.970214 
L 427.568519 460.970214 
L 427.090744 462.244654 
L 426.692592 463.519093 
L 426.37105 464.793533 
L 426.124401 466.067972 
L 425.951597 467.342412 
L 425.858108 468.539515 
L 425.85165 468.616851 
L 425.824146 469.891291 
L 425.858108 470.61087 
L 425.881259 471.16573 
L 426.020878 472.44017 
L 426.259271 473.714609 
L 426.618158 474.989049 
L 427.134495 476.263489 
L 427.568519 477.040779 
L 427.883887 477.537928 
L 429.03375 478.812368 
L 429.27893 479.017519 
L 430.989342 480.061897 
L 431.045171 480.086807 
L 432.699753 480.716521 
L 434.410164 481.216859 
L 434.936823 481.361247 
L 436.120575 481.674829 
L 437.830986 482.151323 
L 439.4496 482.635686 
L 439.541397 482.663561 
L 441.251808 483.211654 
L 442.96222 483.729117 
L 443.656519 483.910126 
z
M 444.996399 481.361247 
L 444.672631 481.280975 
L 442.96222 480.764785 
L 441.251808 480.1948 
L 440.930175 480.086807 
L 439.541397 479.615243 
L 437.830986 479.041359 
L 437.145439 478.812368 
L 436.120575 478.444353 
L 434.410164 477.751669 
L 433.973044 477.537928 
L 432.699753 476.761032 
L 432.083309 476.263489 
L 430.989342 474.989049 
L 430.989342 474.989049 
L 430.375822 473.714609 
L 430.025548 472.44017 
L 429.869633 471.16573 
L 429.863116 469.891291 
L 429.975572 468.616851 
L 430.185311 467.342412 
L 430.476311 466.067972 
L 430.837484 464.793533 
L 430.989342 464.3308 
L 431.245964 463.519093 
L 431.698232 462.244654 
L 432.207641 460.970214 
L 432.699753 459.882126 
L 432.77828 459.695774 
L 433.374509 458.421335 
L 434.058004 457.146895 
L 434.410164 456.567211 
L 434.81144 455.872456 
L 435.65734 454.598016 
L 436.120575 453.988276 
L 436.619312 453.323577 
L 437.723442 452.049137 
L 437.830986 451.936119 
L 438.959006 450.774698 
L 439.541397 450.233424 
L 440.36244 449.500258 
L 441.251808 448.756168 
L 441.920551 448.225819 
L 442.96222 447.424245 
L 443.617395 446.951379 
L 444.672631 446.190642 
L 445.44058 445.676939 
L 446.383042 445.033495 
L 447.389744 444.4025 
L 448.093453 443.945701 
L 449.47327 443.12806 
L 449.803864 442.923392 
L 451.514275 441.950038 
L 451.698356 441.853621 
L 453.224686 441.004674 
L 454.041367 440.579181 
L 454.935097 440.088218 
L 456.447637 439.304742 
L 456.645509 439.19854 
L 458.35592 438.355983 
L 459.130554 438.030302 
L 460.066331 437.631472 
L 461.776742 437.084924 
L 463.487153 436.779985 
L 465.197564 436.756194 
L 466.907975 437.028517 
L 468.618386 437.57699 
L 469.66011 438.030302 
L 470.328798 438.305303 
L 472.039209 439.0518 
L 472.665422 439.304742 
L 473.74962 439.683685 
L 475.460031 440.198328 
L 476.855333 440.579181 
L 477.170442 440.656757 
L 478.880853 441.100736 
L 480.591264 441.661765 
L 481.045599 441.853621 
L 482.301675 442.424338 
L 483.420442 443.12806 
L 484.012087 443.587811 
L 484.823165 444.4025 
L 485.682947 445.676939 
L 485.722498 445.765121 
L 486.196797 446.951379 
L 486.497257 448.225819 
L 486.668499 449.500258 
L 486.777615 450.774698 
L 486.875369 452.049137 
L 486.993151 453.323577 
L 487.137268 454.598016 
L 487.286036 455.872456 
L 487.396439 457.146895 
L 487.420106 458.421335 
L 487.318782 459.695774 
L 487.069611 460.970214 
L 486.66029 462.244654 
L 486.080853 463.519093 
L 485.722498 464.132148 
L 485.35679 464.793533 
L 484.478286 466.067972 
L 484.012087 466.631603 
L 483.438649 467.342412 
L 482.301675 468.526266 
L 482.215432 468.616851 
L 480.8341 469.891291 
L 480.591264 470.090961 
L 479.252289 471.16573 
L 478.880853 471.435725 
L 477.42445 472.44017 
L 477.170442 472.602018 
L 475.460031 473.61763 
L 475.28419 473.714609 
L 473.74962 474.518348 
L 472.758043 474.989049 
L 472.039209 475.32117 
L 470.328798 476.060375 
L 469.83827 476.263489 
L 468.618386 476.771849 
L 466.907975 477.454998 
L 466.698351 477.537928 
L 465.197564 478.147602 
L 463.504494 478.812368 
L 463.487153 478.819364 
L 461.776742 479.489407 
L 460.139282 480.086807 
L 460.066331 480.113888 
L 458.35592 480.689575 
L 456.645509 481.184334 
L 455.894599 481.361247 
L 454.935097 481.588399 
L 453.224686 481.882695 
L 451.514275 482.05368 
L 449.803864 482.086281 
L 448.093453 481.967606 
L 446.383042 481.694628 
z
" clip-path="url(#p461fa2cec1)" style="fill: #a1cbe2"/>
    <path d="M 446.383042 481.694628 
L 448.093453 481.967606 
L 449.803864 482.086281 
L 451.514275 482.05368 
L 453.224686 481.882695 
L 454.935097 481.588399 
L 455.894599 481.361247 
L 456.645509 481.184334 
L 458.35592 480.689575 
L 460.066331 480.113888 
L 460.139282 480.086807 
L 461.776742 479.489407 
L 463.487153 478.819364 
L 463.504494 478.812368 
L 465.197564 478.147602 
L 466.698351 477.537928 
L 466.907975 477.454998 
L 468.618386 476.771849 
L 469.83827 476.263489 
L 470.328798 476.060375 
L 472.039209 475.32117 
L 472.758043 474.989049 
L 473.74962 474.518348 
L 475.28419 473.714609 
L 475.460031 473.61763 
L 477.170442 472.602018 
L 477.42445 472.44017 
L 478.880853 471.435725 
L 479.252289 471.16573 
L 480.591264 470.090961 
L 480.8341 469.891291 
L 482.215432 468.616851 
L 482.301675 468.526266 
L 483.438649 467.342412 
L 484.012087 466.631603 
L 484.478286 466.067972 
L 485.35679 464.793533 
L 485.722498 464.132148 
L 486.080853 463.519093 
L 486.66029 462.244654 
L 487.069611 460.970214 
L 487.318782 459.695774 
L 487.420106 458.421335 
L 487.396439 457.146895 
L 487.286036 455.872456 
L 487.137268 454.598016 
L 486.993151 453.323577 
L 486.875369 452.049137 
L 486.777615 450.774698 
L 486.668499 449.500258 
L 486.497257 448.225819 
L 486.196797 446.951379 
L 485.722498 445.765121 
L 485.682947 445.676939 
L 484.823165 444.4025 
L 484.012087 443.587811 
L 483.420442 443.12806 
L 482.301675 442.424338 
L 481.045599 441.853621 
L 480.591264 441.661765 
L 478.880853 441.100736 
L 477.170442 440.656757 
L 476.855333 440.579181 
L 475.460031 440.198328 
L 473.74962 439.683685 
L 472.665422 439.304742 
L 472.039209 439.0518 
L 470.328798 438.305303 
L 469.66011 438.030302 
L 468.618386 437.57699 
L 466.907975 437.028517 
L 465.197564 436.756194 
L 463.487153 436.779985 
L 461.776742 437.084924 
L 460.066331 437.631472 
L 459.130554 438.030302 
L 458.35592 438.355983 
L 456.645509 439.19854 
L 456.447637 439.304742 
L 454.935097 440.088218 
L 454.041367 440.579181 
L 453.224686 441.004674 
L 451.698356 441.853621 
L 451.514275 441.950038 
L 449.803864 442.923392 
L 449.47327 443.12806 
L 448.093453 443.945701 
L 447.389744 444.4025 
L 446.383042 445.033495 
L 445.44058 445.676939 
L 444.672631 446.190642 
L 443.617395 446.951379 
L 442.96222 447.424245 
L 441.920551 448.225819 
L 441.251808 448.756168 
L 440.36244 449.500258 
L 439.541397 450.233424 
L 438.959006 450.774698 
L 437.830986 451.936119 
L 437.723442 452.049137 
L 436.619312 453.323577 
L 436.120575 453.988276 
L 435.65734 454.598016 
L 434.81144 455.872456 
L 434.410164 456.567211 
L 434.058004 457.146895 
L 433.374509 458.421335 
L 432.77828 459.695774 
L 432.699753 459.882126 
L 432.207641 460.970214 
L 431.698232 462.244654 
L 431.245964 463.519093 
L 430.989342 464.3308 
L 430.837484 464.793533 
L 430.476311 466.067972 
L 430.185311 467.342412 
L 429.975572 468.616851 
L 429.863116 469.891291 
L 429.869633 471.16573 
L 430.025548 472.44017 
L 430.375822 473.714609 
L 430.989342 474.989049 
L 430.989342 474.989049 
L 432.083309 476.263489 
L 432.699753 476.761032 
L 433.973044 477.537928 
L 434.410164 477.751669 
L 436.120575 478.444353 
L 437.145439 478.812368 
L 437.830986 479.041359 
L 439.541397 479.615243 
L 440.930175 480.086807 
L 441.251808 480.1948 
L 442.96222 480.764785 
L 444.672631 481.280975 
L 444.996399 481.361247 
z
M 447.546492 478.812368 
L 446.383042 478.566524 
L 444.672631 478.088479 
L 442.989293 477.537928 
L 442.96222 477.52887 
L 441.251808 476.904221 
L 439.627299 476.263489 
L 439.541397 476.226072 
L 437.830986 475.405488 
L 437.089094 474.989049 
L 436.120575 474.27049 
L 435.510035 473.714609 
L 434.629506 472.44017 
L 434.410164 471.817062 
L 434.211221 471.16573 
L 434.096391 469.891291 
L 434.187932 468.616851 
L 434.410164 467.41561 
L 434.423606 467.342412 
L 434.747779 466.067972 
L 435.117442 464.793533 
L 435.510769 463.519093 
L 435.925568 462.244654 
L 436.120575 461.697268 
L 436.366288 460.970214 
L 436.854467 459.695774 
L 437.427606 458.421335 
L 437.830986 457.670501 
L 438.106141 457.146895 
L 438.904075 455.872456 
L 439.541397 455.016544 
L 439.859975 454.598016 
L 440.984039 453.323577 
L 441.251808 453.053008 
L 442.304112 452.049137 
L 442.96222 451.478698 
L 443.839347 450.774698 
L 444.672631 450.143259 
L 445.603187 449.500258 
L 446.383042 448.973487 
L 447.614136 448.225819 
L 448.093453 447.932605 
L 449.803864 447.000119 
L 449.903208 446.951379 
L 451.514275 446.130102 
L 452.518259 445.676939 
L 453.224686 445.337784 
L 454.935097 444.593646 
L 455.417743 444.4025 
L 456.645509 443.871217 
L 458.35592 443.217133 
L 458.63447 443.12806 
L 460.066331 442.620064 
L 461.776742 442.18218 
L 463.487153 441.957069 
L 465.197564 441.973993 
L 466.907975 442.215469 
L 468.618386 442.604783 
L 470.328798 443.044379 
L 470.655493 443.12806 
L 472.039209 443.446972 
L 473.74962 443.83305 
L 475.460031 444.246733 
L 476.005446 444.4025 
L 477.170442 444.755689 
L 478.880853 445.469387 
L 479.248836 445.676939 
L 480.591264 446.644158 
L 480.906198 446.951379 
L 481.827751 448.225819 
L 482.301675 449.307012 
L 482.373634 449.500258 
L 482.682693 450.774698 
L 482.873612 452.049137 
L 483.007557 453.323577 
L 483.119761 454.598016 
L 483.218451 455.872456 
L 483.28606 457.146895 
L 483.286752 458.421335 
L 483.179313 459.695774 
L 482.928532 460.970214 
L 482.508678 462.244654 
L 482.301675 462.68716 
L 481.928767 463.519093 
L 481.177046 464.793533 
L 480.591264 465.586463 
L 480.241005 466.067972 
L 479.127502 467.342412 
L 478.880853 467.586409 
L 477.82318 468.616851 
L 477.170442 469.17088 
L 476.284504 469.891291 
L 475.460031 470.490406 
L 474.462505 471.16573 
L 473.74962 471.608532 
L 472.282011 472.44017 
L 472.039209 472.570069 
L 470.328798 473.416409 
L 469.668852 473.714609 
L 468.618386 474.182164 
L 466.907975 474.887333 
L 466.646197 474.989049 
L 465.197564 475.562024 
L 463.487153 476.207056 
L 463.328745 476.263489 
L 461.776742 476.832005 
L 460.066331 477.423753 
L 459.701317 477.537928 
L 458.35592 477.965204 
L 456.645509 478.434582 
L 454.935097 478.812368 
L 454.935097 478.812368 
L 453.224686 479.061572 
L 451.514275 479.172 
L 449.803864 479.127788 
L 448.093453 478.923894 
z
" clip-path="url(#p461fa2cec1)" style="fill: #71b1d7"/>
    <path d="M 448.093453 478.923894 
L 449.803864 479.127788 
L 451.514275 479.172 
L 453.224686 479.061572 
L 454.935097 478.812368 
L 454.935097 478.812368 
L 456.645509 478.434582 
L 458.35592 477.965204 
L 459.701317 477.537928 
L 460.066331 477.423753 
L 461.776742 476.832005 
L 463.328745 476.263489 
L 463.487153 476.207056 
L 465.197564 475.562024 
L 466.646197 474.989049 
L 466.907975 474.887333 
L 468.618386 474.182164 
L 469.668852 473.714609 
L 470.328798 473.416409 
L 472.039209 472.570069 
L 472.282011 472.44017 
L 473.74962 471.608532 
L 474.462505 471.16573 
L 475.460031 470.490406 
L 476.284504 469.891291 
L 477.170442 469.17088 
L 477.82318 468.616851 
L 478.880853 467.586409 
L 479.127502 467.342412 
L 480.241005 466.067972 
L 480.591264 465.586463 
L 481.177046 464.793533 
L 481.928767 463.519093 
L 482.301675 462.68716 
L 482.508678 462.244654 
L 482.928532 460.970214 
L 483.179313 459.695774 
L 483.286752 458.421335 
L 483.28606 457.146895 
L 483.218451 455.872456 
L 483.119761 454.598016 
L 483.007557 453.323577 
L 482.873612 452.049137 
L 482.682693 450.774698 
L 482.373634 449.500258 
L 482.301675 449.307012 
L 481.827751 448.225819 
L 480.906198 446.951379 
L 480.591264 446.644158 
L 479.248836 445.676939 
L 478.880853 445.469387 
L 477.170442 444.755689 
L 476.005446 444.4025 
L 475.460031 444.246733 
L 473.74962 443.83305 
L 472.039209 443.446972 
L 470.655493 443.12806 
L 470.328798 443.044379 
L 468.618386 442.604783 
L 466.907975 442.215469 
L 465.197564 441.973993 
L 463.487153 441.957069 
L 461.776742 442.18218 
L 460.066331 442.620064 
L 458.63447 443.12806 
L 458.35592 443.217133 
L 456.645509 443.871217 
L 455.417743 444.4025 
L 454.935097 444.593646 
L 453.224686 445.337784 
L 452.518259 445.676939 
L 451.514275 446.130102 
L 449.903208 446.951379 
L 449.803864 447.000119 
L 448.093453 447.932605 
L 447.614136 448.225819 
L 446.383042 448.973487 
L 445.603187 449.500258 
L 444.672631 450.143259 
L 443.839347 450.774698 
L 442.96222 451.478698 
L 442.304112 452.049137 
L 441.251808 453.053008 
L 440.984039 453.323577 
L 439.859975 454.598016 
L 439.541397 455.016544 
L 438.904075 455.872456 
L 438.106141 457.146895 
L 437.830986 457.670501 
L 437.427606 458.421335 
L 436.854467 459.695774 
L 436.366288 460.970214 
L 436.120575 461.697268 
L 435.925568 462.244654 
L 435.510769 463.519093 
L 435.117442 464.793533 
L 434.747779 466.067972 
L 434.423606 467.342412 
L 434.410164 467.41561 
L 434.187932 468.616851 
L 434.096391 469.891291 
L 434.211221 471.16573 
L 434.410164 471.817062 
L 434.629506 472.44017 
L 435.510035 473.714609 
L 436.120575 474.27049 
L 437.089094 474.989049 
L 437.830986 475.405488 
L 439.541397 476.226072 
L 439.627299 476.263489 
L 441.251808 476.904221 
L 442.96222 477.52887 
L 442.989293 477.537928 
L 444.672631 478.088479 
L 446.383042 478.566524 
L 447.546492 478.812368 
z
M 445.859119 474.989049 
L 444.672631 474.612285 
L 442.96222 473.929744 
L 442.510445 473.714609 
L 441.251808 472.971656 
L 440.516692 472.44017 
L 439.541397 471.365715 
L 439.389718 471.16573 
L 438.865666 469.891291 
L 438.712943 468.616851 
L 438.797303 467.342412 
L 439.0169 466.067972 
L 439.300262 464.793533 
L 439.541397 463.795275 
L 439.607363 463.519093 
L 439.931116 462.244654 
L 440.287809 460.970214 
L 440.71407 459.695774 
L 441.251808 458.421335 
L 441.251808 458.421335 
L 441.958748 457.146895 
L 442.843003 455.872456 
L 442.96222 455.729794 
L 443.966679 454.598016 
L 444.672631 453.918631 
L 445.341457 453.323577 
L 446.383042 452.499476 
L 447.006906 452.049137 
L 448.093453 451.324684 
L 449.008167 450.774698 
L 449.803864 450.317402 
L 451.397749 449.500258 
L 451.514275 449.4413 
L 453.224686 448.666455 
L 454.326828 448.225819 
L 454.935097 447.977198 
L 456.645509 447.368949 
L 458.032956 446.951379 
L 458.35592 446.848243 
L 460.066331 446.432197 
L 461.776742 446.161445 
L 463.487153 446.057481 
L 465.197564 446.115882 
L 466.907975 446.296624 
L 468.618386 446.547952 
L 470.328798 446.840394 
L 470.887064 446.951379 
L 472.039209 447.194745 
L 473.74962 447.660384 
L 475.2409 448.225819 
L 475.460031 448.327761 
L 477.170442 449.482058 
L 477.189742 449.500258 
L 478.165722 450.774698 
L 478.770487 452.049137 
L 478.880853 452.404948 
L 479.114736 453.323577 
L 479.333477 454.598016 
L 479.482159 455.872456 
L 479.569831 457.146895 
L 479.579877 458.421335 
L 479.480906 459.695774 
L 479.239307 460.970214 
L 478.880853 462.078683 
L 478.826534 462.244654 
L 478.226008 463.519093 
L 477.435729 464.793533 
L 477.170442 465.137062 
L 476.430938 466.067972 
L 475.460031 467.087155 
L 475.202191 467.342412 
L 473.74962 468.582578 
L 473.705718 468.616851 
L 472.039209 469.773577 
L 471.84911 469.891291 
L 470.328798 470.755124 
L 469.510858 471.16573 
L 468.618386 471.590597 
L 466.907975 472.314862 
L 466.574819 472.44017 
L 465.197564 472.950806 
L 463.487153 473.534241 
L 462.906763 473.714609 
L 461.776742 474.068968 
L 460.066331 474.562599 
L 458.454327 474.989049 
L 458.35592 475.01537 
L 456.645509 475.390438 
L 454.935097 475.680492 
L 453.224686 475.857353 
L 451.514275 475.897636 
L 449.803864 475.789692 
L 448.093453 475.535277 
L 446.383042 475.145437 
z
" clip-path="url(#p461fa2cec1)" style="fill: #4594c7"/>
    <path d="M 446.383042 475.145437 
L 448.093453 475.535277 
L 449.803864 475.789692 
L 451.514275 475.897636 
L 453.224686 475.857353 
L 454.935097 475.680492 
L 456.645509 475.390438 
L 458.35592 475.01537 
L 458.454327 474.989049 
L 460.066331 474.562599 
L 461.776742 474.068968 
L 462.906763 473.714609 
L 463.487153 473.534241 
L 465.197564 472.950806 
L 466.574819 472.44017 
L 466.907975 472.314862 
L 468.618386 471.590597 
L 469.510858 471.16573 
L 470.328798 470.755124 
L 471.84911 469.891291 
L 472.039209 469.773577 
L 473.705718 468.616851 
L 473.74962 468.582578 
L 475.202191 467.342412 
L 475.460031 467.087155 
L 476.430938 466.067972 
L 477.170442 465.137062 
L 477.435729 464.793533 
L 478.226008 463.519093 
L 478.826534 462.244654 
L 478.880853 462.078683 
L 479.239307 460.970214 
L 479.480906 459.695774 
L 479.579877 458.421335 
L 479.569831 457.146895 
L 479.482159 455.872456 
L 479.333477 454.598016 
L 479.114736 453.323577 
L 478.880853 452.404948 
L 478.770487 452.049137 
L 478.165722 450.774698 
L 477.189742 449.500258 
L 477.170442 449.482058 
L 475.460031 448.327761 
L 475.2409 448.225819 
L 473.74962 447.660384 
L 472.039209 447.194745 
L 470.887064 446.951379 
L 470.328798 446.840394 
L 468.618386 446.547952 
L 466.907975 446.296624 
L 465.197564 446.115882 
L 463.487153 446.057481 
L 461.776742 446.161445 
L 460.066331 446.432197 
L 458.35592 446.848243 
L 458.032956 446.951379 
L 456.645509 447.368949 
L 454.935097 447.977198 
L 454.326828 448.225819 
L 453.224686 448.666455 
L 451.514275 449.4413 
L 451.397749 449.500258 
L 449.803864 450.317402 
L 449.008167 450.774698 
L 448.093453 451.324684 
L 447.006906 452.049137 
L 446.383042 452.499476 
L 445.341457 453.323577 
L 444.672631 453.918631 
L 443.966679 454.598016 
L 442.96222 455.729794 
L 442.843003 455.872456 
L 441.958748 457.146895 
L 441.251808 458.421335 
L 441.251808 458.421335 
L 440.71407 459.695774 
L 440.287809 460.970214 
L 439.931116 462.244654 
L 439.607363 463.519093 
L 439.541397 463.795275 
L 439.300262 464.793533 
L 439.0169 466.067972 
L 438.797303 467.342412 
L 438.712943 468.616851 
L 438.865666 469.891291 
L 439.389718 471.16573 
L 439.541397 471.365715 
L 440.516692 472.44017 
L 441.251808 472.971656 
L 442.510445 473.714609 
L 442.96222 473.929744 
L 444.672631 474.612285 
L 445.859119 474.989049 
z
M 451.282267 472.44017 
L 449.803864 472.299697 
L 448.093453 471.953293 
L 446.383042 471.372795 
L 445.961379 471.16573 
L 444.672631 470.276081 
L 444.273728 469.891291 
L 443.530127 468.616851 
L 443.257494 467.342412 
L 443.264252 466.067972 
L 443.418197 464.793533 
L 443.642113 463.519093 
L 443.905276 462.244654 
L 444.215745 460.970214 
L 444.609454 459.695774 
L 444.672631 459.545298 
L 445.185572 458.421335 
L 445.95436 457.146895 
L 446.383042 456.596261 
L 447.00288 455.872456 
L 448.093453 454.829479 
L 448.362451 454.598016 
L 449.803864 453.539185 
L 450.133171 453.323577 
L 451.514275 452.520851 
L 452.435769 452.049137 
L 453.224686 451.677033 
L 454.935097 450.986503 
L 455.579933 450.774698 
L 456.645509 450.439791 
L 458.35592 450.034805 
L 460.066331 449.77007 
L 461.776742 449.65963 
L 463.487153 449.697619 
L 465.197564 449.857803 
L 466.907975 450.112448 
L 468.618386 450.453728 
L 469.848432 450.774698 
L 470.328798 450.929422 
L 472.039209 451.679455 
L 472.635728 452.049137 
L 473.74962 452.989261 
L 474.028945 453.323577 
L 474.792428 454.598016 
L 475.309353 455.872456 
L 475.460031 456.426081 
L 475.609758 457.146895 
L 475.752101 458.421335 
L 475.752094 459.695774 
L 475.585604 460.970214 
L 475.460031 461.41043 
L 475.196785 462.244654 
L 474.57821 463.519093 
L 473.75426 464.793533 
L 473.74962 464.799085 
L 472.574862 466.067972 
L 472.039209 466.553906 
L 471.046765 467.342412 
L 470.328798 467.837092 
L 469.011106 468.616851 
L 468.618386 468.825043 
L 466.907975 469.58476 
L 466.092943 469.891291 
L 465.197564 470.202872 
L 463.487153 470.709623 
L 461.776742 471.16573 
L 461.776742 471.16573 
L 460.066331 471.535123 
L 458.35592 471.868253 
L 456.645509 472.15122 
L 454.935097 472.361369 
L 453.722869 472.44017 
L 453.224686 472.471148 
L 451.514275 472.460156 
z
" clip-path="url(#p461fa2cec1)" style="fill: #2373b6"/>
    <path d="M 451.514275 472.460156 
L 453.224686 472.471148 
L 453.722869 472.44017 
L 454.935097 472.361369 
L 456.645509 472.15122 
L 458.35592 471.868253 
L 460.066331 471.535123 
L 461.776742 471.16573 
L 461.776742 471.16573 
L 463.487153 470.709623 
L 465.197564 470.202872 
L 466.092943 469.891291 
L 466.907975 469.58476 
L 468.618386 468.825043 
L 469.011106 468.616851 
L 470.328798 467.837092 
L 471.046765 467.342412 
L 472.039209 466.553906 
L 472.574862 466.067972 
L 473.74962 464.799085 
L 473.75426 464.793533 
L 474.57821 463.519093 
L 475.196785 462.244654 
L 475.460031 461.41043 
L 475.585604 460.970214 
L 475.752094 459.695774 
L 475.752101 458.421335 
L 475.609758 457.146895 
L 475.460031 456.426081 
L 475.309353 455.872456 
L 474.792428 454.598016 
L 474.028945 453.323577 
L 473.74962 452.989261 
L 472.635728 452.049137 
L 472.039209 451.679455 
L 470.328798 450.929422 
L 469.848432 450.774698 
L 468.618386 450.453728 
L 466.907975 450.112448 
L 465.197564 449.857803 
L 463.487153 449.697619 
L 461.776742 449.65963 
L 460.066331 449.77007 
L 458.35592 450.034805 
L 456.645509 450.439791 
L 455.579933 450.774698 
L 454.935097 450.986503 
L 453.224686 451.677033 
L 452.435769 452.049137 
L 451.514275 452.520851 
L 450.133171 453.323577 
L 449.803864 453.539185 
L 448.362451 454.598016 
L 448.093453 454.829479 
L 447.00288 455.872456 
L 446.383042 456.596261 
L 445.95436 457.146895 
L 445.185572 458.421335 
L 444.672631 459.545298 
L 444.609454 459.695774 
L 444.215745 460.970214 
L 443.905276 462.244654 
L 443.642113 463.519093 
L 443.418197 464.793533 
L 443.264252 466.067972 
L 443.257494 467.342412 
L 443.530127 468.616851 
L 444.273728 469.891291 
L 444.672631 470.276081 
L 445.961379 471.16573 
L 446.383042 471.372795 
L 448.093453 471.953293 
L 449.803864 472.299697 
L 451.282267 472.44017 
z
M 451.514275 468.616851 
L 451.514275 468.616851 
L 449.803864 467.982648 
L 448.946456 467.342412 
L 448.148407 466.067972 
L 448.093453 465.765523 
L 447.970811 464.793533 
L 448.038037 463.519093 
L 448.093453 463.17724 
L 448.270503 462.244654 
L 448.628937 460.970214 
L 449.113448 459.695774 
L 449.7648 458.421335 
L 449.803864 458.365463 
L 450.809505 457.146895 
L 451.514275 456.475802 
L 452.277866 455.872456 
L 453.224686 455.263423 
L 454.509112 454.598016 
L 454.935097 454.411293 
L 456.645509 453.870983 
L 458.35592 453.536713 
L 460.066331 453.431677 
L 461.776742 453.559154 
L 463.487153 453.909604 
L 465.197564 454.468269 
L 465.508807 454.598016 
L 466.907975 455.405448 
L 467.597368 455.872456 
L 468.618386 456.786816 
L 468.962028 457.146895 
L 469.900303 458.421335 
L 470.328798 459.267122 
L 470.481484 459.695774 
L 470.642513 460.970214 
L 470.462169 462.244654 
L 470.328798 462.550674 
L 469.789652 463.519093 
L 468.688989 464.793533 
L 468.618386 464.851729 
L 466.907975 465.966585 
L 466.713293 466.067972 
L 465.197564 466.667927 
L 463.487153 467.245153 
L 463.150773 467.342412 
L 461.776742 467.65872 
L 460.066331 468.023363 
L 458.35592 468.355263 
L 456.717874 468.616851 
L 456.645509 468.626743 
L 454.935097 468.77277 
L 453.224686 468.790672 
z
" clip-path="url(#p461fa2cec1)" style="fill: #0b559f"/>
    <path d="M 453.224686 468.790672 
L 454.935097 468.77277 
L 456.645509 468.626743 
L 456.717874 468.616851 
L 458.35592 468.355263 
L 460.066331 468.023363 
L 461.776742 467.65872 
L 463.150773 467.342412 
L 463.487153 467.245153 
L 465.197564 466.667927 
L 466.713293 466.067972 
L 466.907975 465.966585 
L 468.618386 464.851729 
L 468.688989 464.793533 
L 469.789652 463.519093 
L 470.328798 462.550674 
L 470.462169 462.244654 
L 470.642513 460.970214 
L 470.481484 459.695774 
L 470.328798 459.267122 
L 469.900303 458.421335 
L 468.962028 457.146895 
L 468.618386 456.786816 
L 467.597368 455.872456 
L 466.907975 455.405448 
L 465.508807 454.598016 
L 465.197564 454.468269 
L 463.487153 453.909604 
L 461.776742 453.559154 
L 460.066331 453.431677 
L 458.35592 453.536713 
L 456.645509 453.870983 
L 454.935097 454.411293 
L 454.509112 454.598016 
L 453.224686 455.263423 
L 452.277866 455.872456 
L 451.514275 456.475802 
L 450.809505 457.146895 
L 449.803864 458.365463 
L 449.7648 458.421335 
L 449.113448 459.695774 
L 448.628937 460.970214 
L 448.270503 462.244654 
L 448.093453 463.17724 
L 448.038037 463.519093 
L 447.970811 464.793533 
L 448.093453 465.765523 
L 448.148407 466.067972 
L 448.946456 467.342412 
L 449.803864 467.982648 
L 451.514275 468.616851 
L 451.514275 468.616851 
z
" clip-path="url(#p461fa2cec1)" style="fill: #083b7c"/>
   </g>
   <g id="matplotlib.axis_1">
    <g id="xtick_1">
     <g id="line2d_1">
      <defs>
       <path id="mb87f108f7e" d="M 0 0 
L 0 3.5 
" style="stroke: #000000; stroke-width: 0.8"/>
      </defs>
      <g>
       <use xlink:href="#mb87f108f7e" x="197.68453" y="499.48" style="stroke: #000000; stroke-width: 0.8"/>
      </g>
     </g>
     <g id="text_1">
      <!-- 5 -->
      <g transform="translate(190.68578 523.196563) scale(0.22 -0.22)">
       <defs>
        <path id="DejaVuSans-35" d="M 691 4666 
L 3169 4666 
L 3169 4134 
L 1269 4134 
L 1269 2991 
Q 1406 3038 1543 3061 
Q 1681 3084 1819 3084 
Q 2600 3084 3056 2656 
Q 3513 2228 3513 1497 
Q 3513 744 3044 326 
Q 2575 -91 1722 -91 
Q 1428 -91 1123 -41 
Q 819 9 494 109 
L 494 744 
Q 775 591 1075 516 
Q 1375 441 1709 441 
Q 2250 441 2565 725 
Q 2881 1009 2881 1497 
Q 2881 1984 2565 2268 
Q 2250 2553 1709 2553 
Q 1456 2553 1204 2497 
Q 953 2441 691 2322 
L 691 4666 
z
" transform="scale(0.015625)"/>
       </defs>
       <use xlink:href="#DejaVuSans-35"/>
      </g>
     </g>
    </g>
    <g id="xtick_2">
     <g id="line2d_2">
      <g>
       <use xlink:href="#mb87f108f7e" x="341.94803" y="499.48" style="stroke: #000000; stroke-width: 0.8"/>
      </g>
     </g>
     <g id="text_2">
      <!-- 10 -->
      <g transform="translate(327.95053 523.196563) scale(0.22 -0.22)">
       <defs>
        <path id="DejaVuSans-31" d="M 794 531 
L 1825 531 
L 1825 4091 
L 703 3866 
L 703 4441 
L 1819 4666 
L 2450 4666 
L 2450 531 
L 3481 531 
L 3481 0 
L 794 0 
L 794 531 
z
" transform="scale(0.015625)"/>
        <path id="DejaVuSans-30" d="M 2034 4250 
Q 1547 4250 1301 3770 
Q 1056 3291 1056 2328 
Q 1056 1369 1301 889 
Q 1547 409 2034 409 
Q 2525 409 2770 889 
Q 3016 1369 3016 2328 
Q 3016 3291 2770 3770 
Q 2525 4250 2034 4250 
z
M 2034 4750 
Q 2819 4750 3233 4129 
Q 3647 3509 3647 2328 
Q 3647 1150 3233 529 
Q 2819 -91 2034 -91 
Q 1250 -91 836 529 
Q 422 1150 422 2328 
Q 422 3509 836 4129 
Q 1250 4750 2034 4750 
z
" transform="scale(0.015625)"/>
       </defs>
       <use xlink:href="#DejaVuSans-31"/>
       <use xlink:href="#DejaVuSans-30" x="63.623047"/>
      </g>
     </g>
    </g>
    <g id="xtick_3">
     <g id="line2d_3">
      <g>
       <use xlink:href="#mb87f108f7e" x="486.21153" y="499.48" style="stroke: #000000; stroke-width: 0.8"/>
      </g>
     </g>
     <g id="text_3">
      <!-- 15 -->
      <g transform="translate(472.21403 523.196563) scale(0.22 -0.22)">
       <use xlink:href="#DejaVuSans-31"/>
       <use xlink:href="#DejaVuSans-35" x="63.623047"/>
      </g>
     </g>
    </g>
    <g id="xtick_4">
     <g id="line2d_4">
      <g>
       <use xlink:href="#mb87f108f7e" x="630.47503" y="499.48" style="stroke: #000000; stroke-width: 0.8"/>
      </g>
     </g>
     <g id="text_4">
      <!-- 20 -->
      <g transform="translate(616.47753 523.196563) scale(0.22 -0.22)">
       <defs>
        <path id="DejaVuSans-32" d="M 1228 531 
L 3431 531 
L 3431 0 
L 469 0 
L 469 531 
Q 828 903 1448 1529 
Q 2069 2156 2228 2338 
Q 2531 2678 2651 2914 
Q 2772 3150 2772 3378 
Q 2772 3750 2511 3984 
Q 2250 4219 1831 4219 
Q 1534 4219 1204 4116 
Q 875 4013 500 3803 
L 500 4441 
Q 881 4594 1212 4672 
Q 1544 4750 1819 4750 
Q 2544 4750 2975 4387 
Q 3406 4025 3406 3419 
Q 3406 3131 3298 2873 
Q 3191 2616 2906 2266 
Q 2828 2175 2409 1742 
Q 1991 1309 1228 531 
z
" transform="scale(0.015625)"/>
       </defs>
       <use xlink:href="#DejaVuSans-32"/>
       <use xlink:href="#DejaVuSans-30" x="63.623047"/>
      </g>
     </g>
    </g>
    <g id="text_5">
     <!-- Force Uncertainties -->
     <g transform="translate(293.911094 548.488438) scale(0.22 -0.22)">
      <defs>
       <path id="DejaVuSans-46" d="M 628 4666 
L 3309 4666 
L 3309 4134 
L 1259 4134 
L 1259 2759 
L 3109 2759 
L 3109 2228 
L 1259 2228 
L 1259 0 
L 628 0 
L 628 4666 
z
" transform="scale(0.015625)"/>
       <path id="DejaVuSans-6f" d="M 1959 3097 
Q 1497 3097 1228 2736 
Q 959 2375 959 1747 
Q 959 1119 1226 758 
Q 1494 397 1959 397 
Q 2419 397 2687 759 
Q 2956 1122 2956 1747 
Q 2956 2369 2687 2733 
Q 2419 3097 1959 3097 
z
M 1959 3584 
Q 2709 3584 3137 3096 
Q 3566 2609 3566 1747 
Q 3566 888 3137 398 
Q 2709 -91 1959 -91 
Q 1206 -91 779 398 
Q 353 888 353 1747 
Q 353 2609 779 3096 
Q 1206 3584 1959 3584 
z
" transform="scale(0.015625)"/>
       <path id="DejaVuSans-72" d="M 2631 2963 
Q 2534 3019 2420 3045 
Q 2306 3072 2169 3072 
Q 1681 3072 1420 2755 
Q 1159 2438 1159 1844 
L 1159 0 
L 581 0 
L 581 3500 
L 1159 3500 
L 1159 2956 
Q 1341 3275 1631 3429 
Q 1922 3584 2338 3584 
Q 2397 3584 2469 3576 
Q 2541 3569 2628 3553 
L 2631 2963 
z
" transform="scale(0.015625)"/>
       <path id="DejaVuSans-63" d="M 3122 3366 
L 3122 2828 
Q 2878 2963 2633 3030 
Q 2388 3097 2138 3097 
Q 1578 3097 1268 2742 
Q 959 2388 959 1747 
Q 959 1106 1268 751 
Q 1578 397 2138 397 
Q 2388 397 2633 464 
Q 2878 531 3122 666 
L 3122 134 
Q 2881 22 2623 -34 
Q 2366 -91 2075 -91 
Q 1284 -91 818 406 
Q 353 903 353 1747 
Q 353 2603 823 3093 
Q 1294 3584 2113 3584 
Q 2378 3584 2631 3529 
Q 2884 3475 3122 3366 
z
" transform="scale(0.015625)"/>
       <path id="DejaVuSans-65" d="M 3597 1894 
L 3597 1613 
L 953 1613 
Q 991 1019 1311 708 
Q 1631 397 2203 397 
Q 2534 397 2845 478 
Q 3156 559 3463 722 
L 3463 178 
Q 3153 47 2828 -22 
Q 2503 -91 2169 -91 
Q 1331 -91 842 396 
Q 353 884 353 1716 
Q 353 2575 817 3079 
Q 1281 3584 2069 3584 
Q 2775 3584 3186 3129 
Q 3597 2675 3597 1894 
z
M 3022 2063 
Q 3016 2534 2758 2815 
Q 2500 3097 2075 3097 
Q 1594 3097 1305 2825 
Q 1016 2553 972 2059 
L 3022 2063 
z
" transform="scale(0.015625)"/>
       <path id="DejaVuSans-20" transform="scale(0.015625)"/>
       <path id="DejaVuSans-55" d="M 556 4666 
L 1191 4666 
L 1191 1831 
Q 1191 1081 1462 751 
Q 1734 422 2344 422 
Q 2950 422 3222 751 
Q 3494 1081 3494 1831 
L 3494 4666 
L 4128 4666 
L 4128 1753 
Q 4128 841 3676 375 
Q 3225 -91 2344 -91 
Q 1459 -91 1007 375 
Q 556 841 556 1753 
L 556 4666 
z
" transform="scale(0.015625)"/>
       <path id="DejaVuSans-6e" d="M 3513 2113 
L 3513 0 
L 2938 0 
L 2938 2094 
Q 2938 2591 2744 2837 
Q 2550 3084 2163 3084 
Q 1697 3084 1428 2787 
Q 1159 2491 1159 1978 
L 1159 0 
L 581 0 
L 581 3500 
L 1159 3500 
L 1159 2956 
Q 1366 3272 1645 3428 
Q 1925 3584 2291 3584 
Q 2894 3584 3203 3211 
Q 3513 2838 3513 2113 
z
" transform="scale(0.015625)"/>
       <path id="DejaVuSans-74" d="M 1172 4494 
L 1172 3500 
L 2356 3500 
L 2356 3053 
L 1172 3053 
L 1172 1153 
Q 1172 725 1289 603 
Q 1406 481 1766 481 
L 2356 481 
L 2356 0 
L 1766 0 
Q 1100 0 847 248 
Q 594 497 594 1153 
L 594 3053 
L 172 3053 
L 172 3500 
L 594 3500 
L 594 4494 
L 1172 4494 
z
" transform="scale(0.015625)"/>
       <path id="DejaVuSans-61" d="M 2194 1759 
Q 1497 1759 1228 1600 
Q 959 1441 959 1056 
Q 959 750 1161 570 
Q 1363 391 1709 391 
Q 2188 391 2477 730 
Q 2766 1069 2766 1631 
L 2766 1759 
L 2194 1759 
z
M 3341 1997 
L 3341 0 
L 2766 0 
L 2766 531 
Q 2569 213 2275 61 
Q 1981 -91 1556 -91 
Q 1019 -91 701 211 
Q 384 513 384 1019 
Q 384 1609 779 1909 
Q 1175 2209 1959 2209 
L 2766 2209 
L 2766 2266 
Q 2766 2663 2505 2880 
Q 2244 3097 1772 3097 
Q 1472 3097 1187 3025 
Q 903 2953 641 2809 
L 641 3341 
Q 956 3463 1253 3523 
Q 1550 3584 1831 3584 
Q 2591 3584 2966 3190 
Q 3341 2797 3341 1997 
z
" transform="scale(0.015625)"/>
       <path id="DejaVuSans-69" d="M 603 3500 
L 1178 3500 
L 1178 0 
L 603 0 
L 603 3500 
z
M 603 4863 
L 1178 4863 
L 1178 4134 
L 603 4134 
L 603 4863 
z
" transform="scale(0.015625)"/>
       <path id="DejaVuSans-73" d="M 2834 3397 
L 2834 2853 
Q 2591 2978 2328 3040 
Q 2066 3103 1784 3103 
Q 1356 3103 1142 2972 
Q 928 2841 928 2578 
Q 928 2378 1081 2264 
Q 1234 2150 1697 2047 
L 1894 2003 
Q 2506 1872 2764 1633 
Q 3022 1394 3022 966 
Q 3022 478 2636 193 
Q 2250 -91 1575 -91 
Q 1294 -91 989 -36 
Q 684 19 347 128 
L 347 722 
Q 666 556 975 473 
Q 1284 391 1588 391 
Q 1994 391 2212 530 
Q 2431 669 2431 922 
Q 2431 1156 2273 1281 
Q 2116 1406 1581 1522 
L 1381 1569 
Q 847 1681 609 1914 
Q 372 2147 372 2553 
Q 372 3047 722 3315 
Q 1072 3584 1716 3584 
Q 2034 3584 2315 3537 
Q 2597 3491 2834 3397 
z
" transform="scale(0.015625)"/>
      </defs>
      <use xlink:href="#DejaVuSans-46"/>
      <use xlink:href="#DejaVuSans-6f" x="53.894531"/>
      <use xlink:href="#DejaVuSans-72" x="115.076172"/>
      <use xlink:href="#DejaVuSans-63" x="153.939453"/>
      <use xlink:href="#DejaVuSans-65" x="208.919922"/>
      <use xlink:href="#DejaVuSans-20" x="270.443359"/>
      <use xlink:href="#DejaVuSans-55" x="302.230469"/>
      <use xlink:href="#DejaVuSans-6e" x="375.423828"/>
      <use xlink:href="#DejaVuSans-63" x="438.802734"/>
      <use xlink:href="#DejaVuSans-65" x="493.783203"/>
      <use xlink:href="#DejaVuSans-72" x="555.306641"/>
      <use xlink:href="#DejaVuSans-74" x="596.419922"/>
      <use xlink:href="#DejaVuSans-61" x="635.628906"/>
      <use xlink:href="#DejaVuSans-69" x="696.908203"/>
      <use xlink:href="#DejaVuSans-6e" x="724.691406"/>
      <use xlink:href="#DejaVuSans-74" x="788.070312"/>
      <use xlink:href="#DejaVuSans-69" x="827.279297"/>
      <use xlink:href="#DejaVuSans-65" x="855.0625"/>
      <use xlink:href="#DejaVuSans-73" x="916.585938"/>
     </g>
    </g>
   </g>
   <g id="matplotlib.axis_2">
    <g id="ytick_1">
     <g id="line2d_5">
      <defs>
       <path id="mcd2ba71bfe" d="M 0 0 
L -3.5 0 
" style="stroke: #000000; stroke-width: 0.8"/>
      </defs>
      <g>
       <use xlink:href="#mcd2ba71bfe" x="104.69" y="482.702311" style="stroke: #000000; stroke-width: 0.8"/>
      </g>
     </g>
     <g id="text_6">
      <!-- 2.5 -->
      <g transform="translate(62.703125 491.060592) scale(0.22 -0.22)">
       <defs>
        <path id="DejaVuSans-2e" d="M 684 794 
L 1344 794 
L 1344 0 
L 684 0 
L 684 794 
z
" transform="scale(0.015625)"/>
       </defs>
       <use xlink:href="#DejaVuSans-32"/>
       <use xlink:href="#DejaVuSans-2e" x="63.623047"/>
       <use xlink:href="#DejaVuSans-35" x="95.410156"/>
      </g>
     </g>
    </g>
    <g id="ytick_2">
     <g id="line2d_6">
      <g>
       <use xlink:href="#mcd2ba71bfe" x="104.69" y="424.694508" style="stroke: #000000; stroke-width: 0.8"/>
      </g>
     </g>
     <g id="text_7">
      <!-- 5.0 -->
      <g transform="translate(62.703125 433.052789) scale(0.22 -0.22)">
       <use xlink:href="#DejaVuSans-35"/>
       <use xlink:href="#DejaVuSans-2e" x="63.623047"/>
       <use xlink:href="#DejaVuSans-30" x="95.410156"/>
      </g>
     </g>
    </g>
    <g id="ytick_3">
     <g id="line2d_7">
      <g>
       <use xlink:href="#mcd2ba71bfe" x="104.69" y="366.686704" style="stroke: #000000; stroke-width: 0.8"/>
      </g>
     </g>
     <g id="text_8">
      <!-- 7.5 -->
      <g transform="translate(62.703125 375.044985) scale(0.22 -0.22)">
       <defs>
        <path id="DejaVuSans-37" d="M 525 4666 
L 3525 4666 
L 3525 4397 
L 1831 0 
L 1172 0 
L 2766 4134 
L 525 4134 
L 525 4666 
z
" transform="scale(0.015625)"/>
       </defs>
       <use xlink:href="#DejaVuSans-37"/>
       <use xlink:href="#DejaVuSans-2e" x="63.623047"/>
       <use xlink:href="#DejaVuSans-35" x="95.410156"/>
      </g>
     </g>
    </g>
    <g id="ytick_4">
     <g id="line2d_8">
      <g>
       <use xlink:href="#mcd2ba71bfe" x="104.69" y="308.678901" style="stroke: #000000; stroke-width: 0.8"/>
      </g>
     </g>
     <g id="text_9">
      <!-- 10.0 -->
      <g transform="translate(48.705625 317.037182) scale(0.22 -0.22)">
       <use xlink:href="#DejaVuSans-31"/>
       <use xlink:href="#DejaVuSans-30" x="63.623047"/>
       <use xlink:href="#DejaVuSans-2e" x="127.246094"/>
       <use xlink:href="#DejaVuSans-30" x="159.033203"/>
      </g>
     </g>
    </g>
    <g id="ytick_5">
     <g id="line2d_9">
      <g>
       <use xlink:href="#mcd2ba71bfe" x="104.69" y="250.671097" style="stroke: #000000; stroke-width: 0.8"/>
      </g>
     </g>
     <g id="text_10">
      <!-- 12.5 -->
      <g transform="translate(48.705625 259.029379) scale(0.22 -0.22)">
       <use xlink:href="#DejaVuSans-31"/>
       <use xlink:href="#DejaVuSans-32" x="63.623047"/>
       <use xlink:href="#DejaVuSans-2e" x="127.246094"/>
       <use xlink:href="#DejaVuSans-35" x="159.033203"/>
      </g>
     </g>
    </g>
    <g id="ytick_6">
     <g id="line2d_10">
      <g>
       <use xlink:href="#mcd2ba71bfe" x="104.69" y="192.663294" style="stroke: #000000; stroke-width: 0.8"/>
      </g>
     </g>
     <g id="text_11">
      <!-- 15.0 -->
      <g transform="translate(48.705625 201.021575) scale(0.22 -0.22)">
       <use xlink:href="#DejaVuSans-31"/>
       <use xlink:href="#DejaVuSans-35" x="63.623047"/>
       <use xlink:href="#DejaVuSans-2e" x="127.246094"/>
       <use xlink:href="#DejaVuSans-30" x="159.033203"/>
      </g>
     </g>
    </g>
    <g id="ytick_7">
     <g id="line2d_11">
      <g>
       <use xlink:href="#mcd2ba71bfe" x="104.69" y="134.655491" style="stroke: #000000; stroke-width: 0.8"/>
      </g>
     </g>
     <g id="text_12">
      <!-- 17.5 -->
      <g transform="translate(48.705625 143.013772) scale(0.22 -0.22)">
       <use xlink:href="#DejaVuSans-31"/>
       <use xlink:href="#DejaVuSans-37" x="63.623047"/>
       <use xlink:href="#DejaVuSans-2e" x="127.246094"/>
       <use xlink:href="#DejaVuSans-35" x="159.033203"/>
      </g>
     </g>
    </g>
    <g id="ytick_8">
     <g id="line2d_12">
      <g>
       <use xlink:href="#mcd2ba71bfe" x="104.69" y="76.647687" style="stroke: #000000; stroke-width: 0.8"/>
      </g>
     </g>
     <g id="text_13">
      <!-- 20.0 -->
      <g transform="translate(48.705625 85.005968) scale(0.22 -0.22)">
       <use xlink:href="#DejaVuSans-32"/>
       <use xlink:href="#DejaVuSans-30" x="63.623047"/>
       <use xlink:href="#DejaVuSans-2e" x="127.246094"/>
       <use xlink:href="#DejaVuSans-30" x="159.033203"/>
      </g>
     </g>
    </g>
    <g id="text_14">
     <!-- Force Errors [kJ/(mol*A)] -->
     <g transform="translate(40.130313 394.9125) rotate(-90) scale(0.22 -0.22)">
      <defs>
       <path id="DejaVuSans-45" d="M 628 4666 
L 3578 4666 
L 3578 4134 
L 1259 4134 
L 1259 2753 
L 3481 2753 
L 3481 2222 
L 1259 2222 
L 1259 531 
L 3634 531 
L 3634 0 
L 628 0 
L 628 4666 
z
" transform="scale(0.015625)"/>
       <path id="DejaVuSans-5b" d="M 550 4863 
L 1875 4863 
L 1875 4416 
L 1125 4416 
L 1125 -397 
L 1875 -397 
L 1875 -844 
L 550 -844 
L 550 4863 
z
" transform="scale(0.015625)"/>
       <path id="DejaVuSans-6b" d="M 581 4863 
L 1159 4863 
L 1159 1991 
L 2875 3500 
L 3609 3500 
L 1753 1863 
L 3688 0 
L 2938 0 
L 1159 1709 
L 1159 0 
L 581 0 
L 581 4863 
z
" transform="scale(0.015625)"/>
       <path id="DejaVuSans-4a" d="M 628 4666 
L 1259 4666 
L 1259 325 
Q 1259 -519 939 -900 
Q 619 -1281 -91 -1281 
L -331 -1281 
L -331 -750 
L -134 -750 
Q 284 -750 456 -515 
Q 628 -281 628 325 
L 628 4666 
z
" transform="scale(0.015625)"/>
       <path id="DejaVuSans-2f" d="M 1625 4666 
L 2156 4666 
L 531 -594 
L 0 -594 
L 1625 4666 
z
" transform="scale(0.015625)"/>
       <path id="DejaVuSans-28" d="M 1984 4856 
Q 1566 4138 1362 3434 
Q 1159 2731 1159 2009 
Q 1159 1288 1364 580 
Q 1569 -128 1984 -844 
L 1484 -844 
Q 1016 -109 783 600 
Q 550 1309 550 2009 
Q 550 2706 781 3412 
Q 1013 4119 1484 4856 
L 1984 4856 
z
" transform="scale(0.015625)"/>
       <path id="DejaVuSans-6d" d="M 3328 2828 
Q 3544 3216 3844 3400 
Q 4144 3584 4550 3584 
Q 5097 3584 5394 3201 
Q 5691 2819 5691 2113 
L 5691 0 
L 5113 0 
L 5113 2094 
Q 5113 2597 4934 2840 
Q 4756 3084 4391 3084 
Q 3944 3084 3684 2787 
Q 3425 2491 3425 1978 
L 3425 0 
L 2847 0 
L 2847 2094 
Q 2847 2600 2669 2842 
Q 2491 3084 2119 3084 
Q 1678 3084 1418 2786 
Q 1159 2488 1159 1978 
L 1159 0 
L 581 0 
L 581 3500 
L 1159 3500 
L 1159 2956 
Q 1356 3278 1631 3431 
Q 1906 3584 2284 3584 
Q 2666 3584 2933 3390 
Q 3200 3197 3328 2828 
z
" transform="scale(0.015625)"/>
       <path id="DejaVuSans-6c" d="M 603 4863 
L 1178 4863 
L 1178 0 
L 603 0 
L 603 4863 
z
" transform="scale(0.015625)"/>
       <path id="DejaVuSans-2a" d="M 3009 3897 
L 1888 3291 
L 3009 2681 
L 2828 2375 
L 1778 3009 
L 1778 1831 
L 1422 1831 
L 1422 3009 
L 372 2375 
L 191 2681 
L 1313 3291 
L 191 3897 
L 372 4206 
L 1422 3572 
L 1422 4750 
L 1778 4750 
L 1778 3572 
L 2828 4206 
L 3009 3897 
z
" transform="scale(0.015625)"/>
       <path id="DejaVuSans-41" d="M 2188 4044 
L 1331 1722 
L 3047 1722 
L 2188 4044 
z
M 1831 4666 
L 2547 4666 
L 4325 0 
L 3669 0 
L 3244 1197 
L 1141 1197 
L 716 0 
L 50 0 
L 1831 4666 
z
" transform="scale(0.015625)"/>
       <path id="DejaVuSans-29" d="M 513 4856 
L 1013 4856 
Q 1481 4119 1714 3412 
Q 1947 2706 1947 2009 
Q 1947 1309 1714 600 
Q 1481 -109 1013 -844 
L 513 -844 
Q 928 -128 1133 580 
Q 1338 1288 1338 2009 
Q 1338 2731 1133 3434 
Q 928 4138 513 4856 
z
" transform="scale(0.015625)"/>
       <path id="DejaVuSans-5d" d="M 1947 4863 
L 1947 -844 
L 622 -844 
L 622 -397 
L 1369 -397 
L 1369 4416 
L 622 4416 
L 622 4863 
L 1947 4863 
z
" transform="scale(0.015625)"/>
      </defs>
      <use xlink:href="#DejaVuSans-46"/>
      <use xlink:href="#DejaVuSans-6f" x="53.894531"/>
      <use xlink:href="#DejaVuSans-72" x="115.076172"/>
      <use xlink:href="#DejaVuSans-63" x="153.939453"/>
      <use xlink:href="#DejaVuSans-65" x="208.919922"/>
      <use xlink:href="#DejaVuSans-20" x="270.443359"/>
      <use xlink:href="#DejaVuSans-45" x="302.230469"/>
      <use xlink:href="#DejaVuSans-72" x="365.414062"/>
      <use xlink:href="#DejaVuSans-72" x="404.777344"/>
      <use xlink:href="#DejaVuSans-6f" x="443.640625"/>
      <use xlink:href="#DejaVuSans-72" x="504.822266"/>
      <use xlink:href="#DejaVuSans-73" x="545.935547"/>
      <use xlink:href="#DejaVuSans-20" x="598.035156"/>
      <use xlink:href="#DejaVuSans-5b" x="629.822266"/>
      <use xlink:href="#DejaVuSans-6b" x="668.835938"/>
      <use xlink:href="#DejaVuSans-4a" x="726.746094"/>
      <use xlink:href="#DejaVuSans-2f" x="756.238281"/>
      <use xlink:href="#DejaVuSans-28" x="789.929688"/>
      <use xlink:href="#DejaVuSans-6d" x="828.943359"/>
      <use xlink:href="#DejaVuSans-6f" x="926.355469"/>
      <use xlink:href="#DejaVuSans-6c" x="987.537109"/>
      <use xlink:href="#DejaVuSans-2a" x="1015.320312"/>
      <use xlink:href="#DejaVuSans-41" x="1065.320312"/>
      <use xlink:href="#DejaVuSans-29" x="1133.728516"/>
      <use xlink:href="#DejaVuSans-5d" x="1172.742188"/>
     </g>
    </g>
   </g>
   <g id="line2d_13">
    <path d="M 104.69 499.48 
L 696.24 23.76 
" clip-path="url(#p461fa2cec1)" style="fill: none; stroke-dasharray: 5.55,2.4; stroke-dashoffset: 0; stroke: #ff0000; stroke-width: 1.5"/>
   </g>
   <g id="patch_3">
    <path d="M 104.69 499.48 
L 104.69 23.76 
" style="fill: none; stroke: #000000; stroke-width: 0.8; stroke-linejoin: miter; stroke-linecap: square"/>
   </g>
   <g id="patch_4">
    <path d="M 696.24 499.48 
L 696.24 23.76 
" style="fill: none; stroke: #000000; stroke-width: 0.8; stroke-linejoin: miter; stroke-linecap: square"/>
   </g>
   <g id="patch_5">
    <path d="M 104.69 499.48 
L 696.24 499.48 
" style="fill: none; stroke: #000000; stroke-width: 0.8; stroke-linejoin: miter; stroke-linecap: square"/>
   </g>
   <g id="patch_6">
    <path d="M 104.69 23.76 
L 696.24 23.76 
" style="fill: none; stroke: #000000; stroke-width: 0.8; stroke-linejoin: miter; stroke-linecap: square"/>
   </g>
   <g id="text_15">
    <!-- Correlation in: 0.381 -->
    <g transform="translate(163.845 71.332) scale(0.22 -0.22)">
     <defs>
      <path id="DejaVuSans-43" d="M 4122 4306 
L 4122 3641 
Q 3803 3938 3442 4084 
Q 3081 4231 2675 4231 
Q 1875 4231 1450 3742 
Q 1025 3253 1025 2328 
Q 1025 1406 1450 917 
Q 1875 428 2675 428 
Q 3081 428 3442 575 
Q 3803 722 4122 1019 
L 4122 359 
Q 3791 134 3420 21 
Q 3050 -91 2638 -91 
Q 1578 -91 968 557 
Q 359 1206 359 2328 
Q 359 3453 968 4101 
Q 1578 4750 2638 4750 
Q 3056 4750 3426 4639 
Q 3797 4528 4122 4306 
z
" transform="scale(0.015625)"/>
      <path id="DejaVuSans-3a" d="M 750 794 
L 1409 794 
L 1409 0 
L 750 0 
L 750 794 
z
M 750 3309 
L 1409 3309 
L 1409 2516 
L 750 2516 
L 750 3309 
z
" transform="scale(0.015625)"/>
      <path id="DejaVuSans-33" d="M 2597 2516 
Q 3050 2419 3304 2112 
Q 3559 1806 3559 1356 
Q 3559 666 3084 287 
Q 2609 -91 1734 -91 
Q 1441 -91 1130 -33 
Q 819 25 488 141 
L 488 750 
Q 750 597 1062 519 
Q 1375 441 1716 441 
Q 2309 441 2620 675 
Q 2931 909 2931 1356 
Q 2931 1769 2642 2001 
Q 2353 2234 1838 2234 
L 1294 2234 
L 1294 2753 
L 1863 2753 
Q 2328 2753 2575 2939 
Q 2822 3125 2822 3475 
Q 2822 3834 2567 4026 
Q 2313 4219 1838 4219 
Q 1578 4219 1281 4162 
Q 984 4106 628 3988 
L 628 4550 
Q 988 4650 1302 4700 
Q 1616 4750 1894 4750 
Q 2613 4750 3031 4423 
Q 3450 4097 3450 3541 
Q 3450 3153 3228 2886 
Q 3006 2619 2597 2516 
z
" transform="scale(0.015625)"/>
      <path id="DejaVuSans-38" d="M 2034 2216 
Q 1584 2216 1326 1975 
Q 1069 1734 1069 1313 
Q 1069 891 1326 650 
Q 1584 409 2034 409 
Q 2484 409 2743 651 
Q 3003 894 3003 1313 
Q 3003 1734 2745 1975 
Q 2488 2216 2034 2216 
z
M 1403 2484 
Q 997 2584 770 2862 
Q 544 3141 544 3541 
Q 544 4100 942 4425 
Q 1341 4750 2034 4750 
Q 2731 4750 3128 4425 
Q 3525 4100 3525 3541 
Q 3525 3141 3298 2862 
Q 3072 2584 2669 2484 
Q 3125 2378 3379 2068 
Q 3634 1759 3634 1313 
Q 3634 634 3220 271 
Q 2806 -91 2034 -91 
Q 1263 -91 848 271 
Q 434 634 434 1313 
Q 434 1759 690 2068 
Q 947 2378 1403 2484 
z
M 1172 3481 
Q 1172 3119 1398 2916 
Q 1625 2713 2034 2713 
Q 2441 2713 2670 2916 
Q 2900 3119 2900 3481 
Q 2900 3844 2670 4047 
Q 2441 4250 2034 4250 
Q 1625 4250 1398 4047 
Q 1172 3844 1172 3481 
z
" transform="scale(0.015625)"/>
     </defs>
     <use xlink:href="#DejaVuSans-43"/>
     <use xlink:href="#DejaVuSans-6f" x="69.824219"/>
     <use xlink:href="#DejaVuSans-72" x="131.005859"/>
     <use xlink:href="#DejaVuSans-72" x="170.369141"/>
     <use xlink:href="#DejaVuSans-65" x="209.232422"/>
     <use xlink:href="#DejaVuSans-6c" x="270.755859"/>
     <use xlink:href="#DejaVuSans-61" x="298.539062"/>
     <use xlink:href="#DejaVuSans-74" x="359.818359"/>
     <use xlink:href="#DejaVuSans-69" x="399.027344"/>
     <use xlink:href="#DejaVuSans-6f" x="426.810547"/>
     <use xlink:href="#DejaVuSans-6e" x="487.992188"/>
     <use xlink:href="#DejaVuSans-20" x="551.371094"/>
     <use xlink:href="#DejaVuSans-69" x="583.158203"/>
     <use xlink:href="#DejaVuSans-6e" x="610.941406"/>
     <use xlink:href="#DejaVuSans-3a" x="674.320312"/>
     <use xlink:href="#DejaVuSans-20" x="708.011719"/>
     <use xlink:href="#DejaVuSans-30" x="739.798828"/>
     <use xlink:href="#DejaVuSans-2e" x="803.421875"/>
     <use xlink:href="#DejaVuSans-33" x="835.208984"/>
     <use xlink:href="#DejaVuSans-38" x="898.832031"/>
     <use xlink:href="#DejaVuSans-31" x="962.455078"/>
    </g>
   </g>
  </g>
 </g>
 <defs>
  <clipPath id="p461fa2cec1">
   <rect x="104.69" y="23.76" width="591.55" height="475.72"/>
  </clipPath>
 </defs>
</svg>
