<?xml version="1.0" encoding="utf-8" standalone="no"?>
<!DOCTYPE svg PUBLIC "-//W3C//DTD SVG 1.1//EN"
  "http://www.w3.org/Graphics/SVG/1.1/DTD/svg11.dtd">
<svg xmlns:xlink="http://www.w3.org/1999/xlink" width="720pt" height="576pt" viewBox="0 0 720 576" xmlns="http://www.w3.org/2000/svg" version="1.1">
 <metadata>
  <rdf:RDF xmlns:dc="http://purl.org/dc/elements/1.1/" xmlns:cc="http://creativecommons.org/ns#" xmlns:rdf="http://www.w3.org/1999/02/22-rdf-syntax-ns#">
   <cc:Work>
    <dc:type rdf:resource="http://purl.org/dc/dcmitype/StillImage"/>
    <dc:date>2024-12-08T17:04:43.192733</dc:date>
    <dc:format>image/svg+xml</dc:format>
    <dc:creator>
     <cc:Agent>
      <dc:title>Matplotlib v3.8.4, https://matplotlib.org/</dc:title>
     </cc:Agent>
    </dc:creator>
   </cc:Work>
  </rdf:RDF>
 </metadata>
 <defs>
  <style type="text/css">*{stroke-linejoin: round; stroke-linecap: butt}</style>
 </defs>
 <g id="figure_1">
  <g id="patch_1">
   <path d="M 0 576 
L 720 576 
L 720 0 
L 0 0 
z
" style="fill: #ffffff"/>
  </g>
  <g id="axes_1">
   <g id="patch_2">
    <path d="M 69.68 499.48 
L 696.24 499.48 
L 696.24 23.76 
L 69.68 23.76 
z
" style="fill: #ffffff"/>
   </g>
   <g id="QuadContourSet_1">
    <path d="M 200.90578 395.933176 
L 206.16533 398.92993 
L 211.424881 400.177466 
L 216.684432 400.457972 
L 221.943982 400.090947 
L 227.203533 399.123529 
L 232.463083 397.483449 
L 236.839957 395.558663 
L 237.722634 395.257759 
L 242.982184 393.211953 
L 248.241735 390.614722 
L 249.61155 389.827282 
L 253.501286 387.98966 
L 258.760836 384.298298 
L 258.992691 384.095902 
L 264.020387 379.652829 
L 265.156353 378.364521 
L 269.279937 372.862732 
L 269.445863 372.633141 
L 273.200192 366.90176 
L 274.539488 364.236813 
L 276.482998 361.170379 
L 279.468163 355.438999 
L 279.799038 354.739676 
L 283.342241 349.707618 
L 285.058589 346.786988 
L 287.356447 343.976238 
L 290.31814 339.493022 
L 291.254463 338.244857 
L 294.619832 332.513476 
L 295.57769 330.18022 
L 297.201439 326.782096 
L 299.189054 321.050715 
L 300.645477 315.319335 
L 300.837241 314.489782 
L 302.405946 309.587954 
L 304.135445 303.856573 
L 305.797336 298.125193 
L 306.096791 297.138286 
L 307.763646 292.393812 
L 309.463524 286.662431 
L 310.800906 280.931051 
L 311.356342 278.059548 
L 311.990203 275.19967 
L 313.002138 269.46829 
L 313.673566 263.736909 
L 314.042105 258.005528 
L 314.147221 252.274148 
L 314.033526 246.542767 
L 313.754774 240.811387 
L 313.371953 235.080006 
L 312.938337 229.348625 
L 312.476767 223.617245 
L 311.96927 217.885864 
L 311.373586 212.154483 
L 311.356342 212.010134 
L 310.857216 206.423103 
L 310.304133 200.691722 
L 309.777222 194.960342 
L 309.354611 189.228961 
L 309.073433 183.49758 
L 308.908314 177.7662 
L 308.794894 172.034819 
L 308.663926 166.303439 
L 308.455615 160.572058 
L 308.11228 154.840677 
L 307.559817 149.109297 
L 306.68696 143.377916 
L 306.096791 140.705034 
L 305.386207 137.646535 
L 303.427297 131.915155 
L 300.837241 126.641599 
L 300.531311 126.183774 
L 296.540108 120.452394 
L 295.57769 119.010928 
L 292.33972 114.721013 
L 290.31814 111.635698 
L 288.591806 108.989632 
L 285.058589 103.334196 
L 285.016332 103.258252 
L 281.927321 97.526871 
L 279.799038 93.757707 
L 278.915179 91.795491 
L 276.275207 86.06411 
L 274.539488 82.634714 
L 273.46138 80.332729 
L 270.294224 74.601349 
L 269.279937 73.025687 
L 265.905099 68.869968 
L 264.020387 66.733042 
L 259.059561 63.138587 
L 258.760836 62.8925 
L 253.501286 59.819178 
L 248.838507 57.407207 
L 248.241735 57.072372 
L 242.982184 54.264636 
L 237.722634 51.925128 
L 236.916976 51.675826 
L 232.463083 50.293481 
L 227.203533 49.983476 
L 223.548923 51.675826 
L 221.943982 52.545248 
L 218.412849 57.407207 
L 216.684432 60.392577 
L 215.547938 63.138587 
L 213.398824 68.869968 
L 211.463901 74.601349 
L 211.424881 74.721633 
L 209.704162 80.332729 
L 208.156238 86.06411 
L 206.780221 91.795491 
L 206.16533 94.304223 
L 205.410387 97.526871 
L 203.970493 103.258252 
L 202.464288 108.989632 
L 200.90578 114.721013 
L 200.90578 114.721013 
L 199.163635 120.452394 
L 197.550167 126.183774 
L 196.126759 131.915155 
L 195.646229 134.067203 
L 194.711921 137.646535 
L 193.455786 143.377916 
L 192.456342 149.109297 
L 191.635284 154.840677 
L 190.905419 160.572058 
L 190.386679 164.663982 
L 190.096236 166.303439 
L 189.016075 172.034819 
L 187.983845 177.7662 
L 187.041836 183.49758 
L 186.220411 189.228961 
L 185.532314 194.960342 
L 185.127128 199.032399 
L 184.870805 200.691722 
L 184.132535 206.423103 
L 183.566461 212.154483 
L 183.129075 217.885864 
L 182.776385 223.617245 
L 182.464601 229.348625 
L 182.155714 235.080006 
L 181.824655 240.811387 
L 181.463125 246.542767 
L 181.078047 252.274148 
L 180.686308 258.005528 
L 180.30885 263.736909 
L 179.966306 269.46829 
L 179.867577 271.343165 
L 179.441293 275.19967 
L 178.951382 280.931051 
L 178.633022 286.662431 
L 178.485684 292.393812 
L 178.495408 298.125193 
L 178.634616 303.856573 
L 178.865448 309.587954 
L 179.149483 315.319335 
L 179.462199 321.050715 
L 179.805633 326.782096 
L 179.867577 327.688486 
L 180.015607 332.513476 
L 180.247279 338.244857 
L 180.57715 343.976238 
L 181.057899 349.707618 
L 181.758641 355.438999 
L 182.776573 361.170379 
L 184.259658 366.90176 
L 185.127128 369.521853 
L 185.893905 372.633141 
L 187.851497 378.364521 
L 190.386679 383.312875 
L 190.804439 384.095902 
L 194.558 389.827282 
L 195.646229 391.222396 
L 200.484531 395.558663 
z
M 215.148627 378.364521 
L 211.424881 377.904916 
L 206.16533 375.835521 
L 202.382778 372.633141 
L 200.90578 371.281355 
L 197.871814 366.90176 
L 195.646229 362.57732 
L 195.019082 361.170379 
L 192.938106 355.438999 
L 191.525954 349.707618 
L 190.569962 343.976238 
L 190.386679 342.478661 
L 189.694139 338.244857 
L 189.033347 332.513476 
L 188.587055 326.782096 
L 188.289366 321.050715 
L 188.093178 315.319335 
L 187.968067 309.587954 
L 187.900364 303.856573 
L 187.892869 298.125193 
L 187.961348 292.393812 
L 188.127417 286.662431 
L 188.410876 280.931051 
L 188.824847 275.19967 
L 189.374282 269.46829 
L 190.05621 263.736909 
L 190.386679 261.273264 
L 190.68116 258.005528 
L 191.247682 252.274148 
L 191.874398 246.542767 
L 192.559411 240.811387 
L 193.30927 235.080006 
L 194.142775 229.348625 
L 195.091569 223.617245 
L 195.646229 220.577836 
L 196.05875 217.885864 
L 197.040579 212.154483 
L 198.205953 206.423103 
L 199.574021 200.691722 
L 200.90578 195.754272 
L 201.121044 194.960342 
L 202.744892 189.228961 
L 204.629513 183.49758 
L 206.16533 179.19676 
L 206.78376 177.7662 
L 209.337461 172.034819 
L 211.424881 167.632028 
L 212.284142 166.303439 
L 216.074871 160.572058 
L 216.684432 159.65454 
L 221.14101 154.840677 
L 221.943982 154.005243 
L 227.203533 149.220304 
L 227.318054 149.109297 
L 232.463083 144.239038 
L 233.378572 143.377916 
L 237.722634 139.192654 
L 239.661649 137.646535 
L 242.982184 134.691763 
L 248.241735 131.915155 
L 253.501286 131.923727 
L 258.760836 136.092288 
L 259.732941 137.646535 
L 263.505148 143.377916 
L 264.020387 144.107989 
L 267.045126 149.109297 
L 269.279937 152.691271 
L 270.759999 154.840677 
L 274.539488 160.492887 
L 274.601528 160.572058 
L 278.677102 166.303439 
L 279.799038 168.268878 
L 281.979113 172.034819 
L 284.399798 177.7662 
L 285.058589 179.781581 
L 286.164177 183.49758 
L 287.501618 189.228961 
L 288.528138 194.960342 
L 289.321757 200.691722 
L 289.903047 206.423103 
L 290.27188 212.154483 
L 290.31814 213.629034 
L 290.485372 217.885864 
L 290.529782 223.617245 
L 290.477653 229.348625 
L 290.423934 235.080006 
L 290.412979 240.811387 
L 290.384231 246.542767 
L 290.31814 248.362676 
L 290.219433 252.274148 
L 289.813978 258.005528 
L 289.040396 263.736909 
L 287.860731 269.46829 
L 286.305919 275.19967 
L 285.058589 279.170269 
L 284.68954 280.931051 
L 283.458929 286.662431 
L 282.202405 292.393812 
L 280.938641 298.125193 
L 279.799038 303.136348 
L 279.687149 303.856573 
L 278.750929 309.587954 
L 277.587361 315.319335 
L 276.04562 321.050715 
L 274.539488 325.327062 
L 274.161435 326.782096 
L 272.379781 332.513476 
L 270.070832 338.244857 
L 269.279937 339.968271 
L 267.730523 343.976238 
L 264.981677 349.707618 
L 264.020387 351.444653 
L 261.734768 355.438999 
L 258.760836 359.617459 
L 257.379281 361.170379 
L 253.501286 365.054836 
L 250.864082 366.90176 
L 248.241735 368.745217 
L 242.982184 371.46478 
L 240.136252 372.633141 
L 237.722634 373.764927 
L 232.463083 375.820345 
L 227.203533 377.354066 
L 221.943982 378.295166 
L 220.497603 378.364521 
L 216.684432 378.591191 
z
" clip-path="url(#pf44832e0a8)" style="fill: #eef5fc"/>
    <path d="M 216.684432 378.591191 
L 220.497603 378.364521 
L 221.943982 378.295166 
L 227.203533 377.354066 
L 232.463083 375.820345 
L 237.722634 373.764927 
L 240.136252 372.633141 
L 242.982184 371.46478 
L 248.241735 368.745217 
L 250.864082 366.90176 
L 253.501286 365.054836 
L 257.379281 361.170379 
L 258.760836 359.617459 
L 261.734768 355.438999 
L 264.020387 351.444653 
L 264.981677 349.707618 
L 267.730523 343.976238 
L 269.279937 339.968271 
L 270.070832 338.244857 
L 272.379781 332.513476 
L 274.161435 326.782096 
L 274.539488 325.327062 
L 276.04562 321.050715 
L 277.587361 315.319335 
L 278.750929 309.587954 
L 279.687149 303.856573 
L 279.799038 303.136348 
L 280.938641 298.125193 
L 282.202405 292.393812 
L 283.458929 286.662431 
L 284.68954 280.931051 
L 285.058589 279.170269 
L 286.305919 275.19967 
L 287.860731 269.46829 
L 289.040396 263.736909 
L 289.813978 258.005528 
L 290.219433 252.274148 
L 290.31814 248.362676 
L 290.384231 246.542767 
L 290.412979 240.811387 
L 290.423934 235.080006 
L 290.477653 229.348625 
L 290.529782 223.617245 
L 290.485372 217.885864 
L 290.31814 213.629034 
L 290.27188 212.154483 
L 289.903047 206.423103 
L 289.321757 200.691722 
L 288.528138 194.960342 
L 287.501618 189.228961 
L 286.164177 183.49758 
L 285.058589 179.781581 
L 284.399798 177.7662 
L 281.979113 172.034819 
L 279.799038 168.268878 
L 278.677102 166.303439 
L 274.601528 160.572058 
L 274.539488 160.492887 
L 270.759999 154.840677 
L 269.279937 152.691271 
L 267.045126 149.109297 
L 264.020387 144.107989 
L 263.505148 143.377916 
L 259.732941 137.646535 
L 258.760836 136.092288 
L 253.501286 131.923727 
L 248.241735 131.915155 
L 242.982184 134.691763 
L 239.661649 137.646535 
L 237.722634 139.192654 
L 233.378572 143.377916 
L 232.463083 144.239038 
L 227.318054 149.109297 
L 227.203533 149.220304 
L 221.943982 154.005243 
L 221.14101 154.840677 
L 216.684432 159.65454 
L 216.074871 160.572058 
L 212.284142 166.303439 
L 211.424881 167.632028 
L 209.337461 172.034819 
L 206.78376 177.7662 
L 206.16533 179.19676 
L 204.629513 183.49758 
L 202.744892 189.228961 
L 201.121044 194.960342 
L 200.90578 195.754272 
L 199.574021 200.691722 
L 198.205953 206.423103 
L 197.040579 212.154483 
L 196.05875 217.885864 
L 195.646229 220.577836 
L 195.091569 223.617245 
L 194.142775 229.348625 
L 193.30927 235.080006 
L 192.559411 240.811387 
L 191.874398 246.542767 
L 191.247682 252.274148 
L 190.68116 258.005528 
L 190.386679 261.273264 
L 190.05621 263.736909 
L 189.374282 269.46829 
L 188.824847 275.19967 
L 188.410876 280.931051 
L 188.127417 286.662431 
L 187.961348 292.393812 
L 187.892869 298.125193 
L 187.900364 303.856573 
L 187.968067 309.587954 
L 188.093178 315.319335 
L 188.289366 321.050715 
L 188.587055 326.782096 
L 189.033347 332.513476 
L 189.694139 338.244857 
L 190.386679 342.478661 
L 190.569962 343.976238 
L 191.525954 349.707618 
L 192.938106 355.438999 
L 195.019082 361.170379 
L 195.646229 362.57732 
L 197.871814 366.90176 
L 200.90578 371.281355 
L 202.382778 372.633141 
L 206.16533 375.835521 
L 211.424881 377.904916 
L 215.148627 378.364521 
z
M 206.155418 361.170379 
L 201.595367 355.438999 
L 200.90578 354.334202 
L 198.839924 349.707618 
L 197.026282 343.976238 
L 195.80641 338.244857 
L 195.646229 337.205548 
L 194.860092 332.513476 
L 194.209676 326.782096 
L 193.796438 321.050715 
L 193.553674 315.319335 
L 193.432583 309.587954 
L 193.400569 303.856573 
L 193.442425 298.125193 
L 193.560826 292.393812 
L 193.772662 286.662431 
L 194.101435 280.931051 
L 194.569543 275.19967 
L 195.193612 269.46829 
L 195.646229 266.091925 
L 195.898522 263.736909 
L 196.609182 258.005528 
L 197.436093 252.274148 
L 198.381052 246.542767 
L 199.450496 240.811387 
L 200.658547 235.080006 
L 200.90578 233.954719 
L 201.879679 229.348625 
L 203.240531 223.617245 
L 204.820713 217.885864 
L 206.16533 213.61926 
L 206.668742 212.154483 
L 208.812514 206.423103 
L 211.397421 200.691722 
L 211.424881 200.634007 
L 214.725234 194.960342 
L 216.684432 191.986626 
L 219.007803 189.228961 
L 221.943982 185.859295 
L 224.424308 183.49758 
L 227.203533 180.745945 
L 230.404988 177.7662 
L 232.463083 175.713088 
L 236.267609 172.034819 
L 237.722634 170.557585 
L 242.93874 166.303439 
L 242.982184 166.267429 
L 248.241735 164.215956 
L 253.501286 165.420002 
L 254.552383 166.303439 
L 258.760836 169.909575 
L 260.37286 172.034819 
L 264.020387 177.254098 
L 264.329107 177.7662 
L 267.465382 183.49758 
L 269.279937 187.340513 
L 270.157518 189.228961 
L 272.53202 194.960342 
L 274.539488 200.691722 
L 274.539488 200.691722 
L 276.335182 206.423103 
L 277.684009 212.154483 
L 278.611835 217.885864 
L 279.176415 223.617245 
L 279.46547 229.348625 
L 279.571796 235.080006 
L 279.565212 240.811387 
L 279.473869 246.542767 
L 279.281028 252.274148 
L 278.940547 258.005528 
L 278.405228 263.736909 
L 277.650995 269.46829 
L 276.684001 275.19967 
L 275.534035 280.931051 
L 274.539488 285.407594 
L 274.331564 286.662431 
L 273.377413 292.393812 
L 272.395072 298.125193 
L 271.347344 303.856573 
L 270.15085 309.587954 
L 269.279937 313.107962 
L 268.839062 315.319335 
L 267.456688 321.050715 
L 265.670916 326.782096 
L 264.020387 331.034447 
L 263.479819 332.513476 
L 261.030503 338.244857 
L 258.760836 342.519101 
L 257.881639 343.976238 
L 253.783948 349.707618 
L 253.501286 350.059041 
L 248.241735 354.932443 
L 247.436088 355.438999 
L 242.982184 358.244197 
L 237.722634 360.550209 
L 235.885906 361.170379 
L 232.463083 362.440959 
L 227.203533 363.942735 
L 221.943982 364.94559 
L 216.684432 365.222966 
L 211.424881 364.295142 
L 206.16533 361.181171 
z
" clip-path="url(#pf44832e0a8)" style="fill: #d8e7f5"/>
    <path d="M 206.16533 361.181171 
L 211.424881 364.295142 
L 216.684432 365.222966 
L 221.943982 364.94559 
L 227.203533 363.942735 
L 232.463083 362.440959 
L 235.885906 361.170379 
L 237.722634 360.550209 
L 242.982184 358.244197 
L 247.436088 355.438999 
L 248.241735 354.932443 
L 253.501286 350.059041 
L 253.783948 349.707618 
L 257.881639 343.976238 
L 258.760836 342.519101 
L 261.030503 338.244857 
L 263.479819 332.513476 
L 264.020387 331.034447 
L 265.670916 326.782096 
L 267.456688 321.050715 
L 268.839062 315.319335 
L 269.279937 313.107962 
L 270.15085 309.587954 
L 271.347344 303.856573 
L 272.395072 298.125193 
L 273.377413 292.393812 
L 274.331564 286.662431 
L 274.539488 285.407594 
L 275.534035 280.931051 
L 276.684001 275.19967 
L 277.650995 269.46829 
L 278.405228 263.736909 
L 278.940547 258.005528 
L 279.281028 252.274148 
L 279.473869 246.542767 
L 279.565212 240.811387 
L 279.571796 235.080006 
L 279.46547 229.348625 
L 279.176415 223.617245 
L 278.611835 217.885864 
L 277.684009 212.154483 
L 276.335182 206.423103 
L 274.539488 200.691722 
L 274.539488 200.691722 
L 272.53202 194.960342 
L 270.157518 189.228961 
L 269.279937 187.340513 
L 267.465382 183.49758 
L 264.329107 177.7662 
L 264.020387 177.254098 
L 260.37286 172.034819 
L 258.760836 169.909575 
L 254.552383 166.303439 
L 253.501286 165.420002 
L 248.241735 164.215956 
L 242.982184 166.267429 
L 242.93874 166.303439 
L 237.722634 170.557585 
L 236.267609 172.034819 
L 232.463083 175.713088 
L 230.404988 177.7662 
L 227.203533 180.745945 
L 224.424308 183.49758 
L 221.943982 185.859295 
L 219.007803 189.228961 
L 216.684432 191.986626 
L 214.725234 194.960342 
L 211.424881 200.634007 
L 211.397421 200.691722 
L 208.812514 206.423103 
L 206.668742 212.154483 
L 206.16533 213.61926 
L 204.820713 217.885864 
L 203.240531 223.617245 
L 201.879679 229.348625 
L 200.90578 233.954719 
L 200.658547 235.080006 
L 199.450496 240.811387 
L 198.381052 246.542767 
L 197.436093 252.274148 
L 196.609182 258.005528 
L 195.898522 263.736909 
L 195.646229 266.091925 
L 195.193612 269.46829 
L 194.569543 275.19967 
L 194.101435 280.931051 
L 193.772662 286.662431 
L 193.560826 292.393812 
L 193.442425 298.125193 
L 193.400569 303.856573 
L 193.432583 309.587954 
L 193.553674 315.319335 
L 193.796438 321.050715 
L 194.209676 326.782096 
L 194.860092 332.513476 
L 195.646229 337.205548 
L 195.80641 338.244857 
L 197.026282 343.976238 
L 198.839924 349.707618 
L 200.90578 354.334202 
L 201.595367 355.438999 
L 206.155418 361.170379 
z
M 206.602927 349.707618 
L 206.16533 349.308044 
L 203.113254 343.976238 
L 200.90578 338.309942 
L 200.885983 338.244857 
L 199.517219 332.513476 
L 198.613778 326.782096 
L 198.048154 321.050715 
L 197.72658 315.319335 
L 197.579136 309.587954 
L 197.555349 303.856573 
L 197.62428 298.125193 
L 197.776061 292.393812 
L 198.020329 286.662431 
L 198.379412 280.931051 
L 198.879094 275.19967 
L 199.541725 269.46829 
L 200.383696 263.736909 
L 200.90578 260.739477 
L 201.363551 258.005528 
L 202.445963 252.274148 
L 203.687846 246.542767 
L 205.10797 240.811387 
L 206.16533 236.948203 
L 206.730514 235.080006 
L 208.564116 229.348625 
L 210.6381 223.617245 
L 211.424881 221.579812 
L 213.170677 217.885864 
L 216.156276 212.154483 
L 216.684432 211.20487 
L 220.211847 206.423103 
L 221.943982 204.220254 
L 225.732291 200.691722 
L 227.203533 199.315907 
L 232.463083 195.397743 
L 233.162067 194.960342 
L 237.722634 191.771645 
L 242.169862 189.228961 
L 242.982184 188.708178 
L 248.241735 187.354057 
L 253.501286 189.228961 
L 253.501286 189.228961 
L 258.73636 194.960342 
L 258.760836 194.988049 
L 262.00368 200.691722 
L 264.020387 204.468716 
L 264.873068 206.423103 
L 267.197084 212.154483 
L 269.121026 217.885864 
L 269.279937 218.455544 
L 270.555652 223.617245 
L 271.541028 229.348625 
L 272.160775 235.080006 
L 272.508814 240.811387 
L 272.65711 246.542767 
L 272.638403 252.274148 
L 272.449216 258.005528 
L 272.068676 263.736909 
L 271.481079 269.46829 
L 270.689233 275.19967 
L 269.714795 280.931051 
L 269.279937 283.195501 
L 268.736286 286.662431 
L 267.789378 292.393812 
L 266.787319 298.125193 
L 265.689197 303.856573 
L 264.414444 309.587954 
L 264.020387 311.122942 
L 263.040466 315.319335 
L 261.385367 321.050715 
L 259.263744 326.782096 
L 258.760836 327.95009 
L 256.61894 332.513476 
L 253.501286 337.836683 
L 253.190707 338.244857 
L 248.241735 343.939642 
L 248.193433 343.976238 
L 242.982184 347.763904 
L 238.695465 349.707618 
L 237.722634 350.164327 
L 232.463083 351.906692 
L 227.203533 353.283506 
L 221.943982 354.353181 
L 216.684432 354.712034 
L 211.424881 353.531401 
z
" clip-path="url(#pf44832e0a8)" style="fill: #bcd7eb"/>
    <path d="M 211.424881 353.531401 
L 216.684432 354.712034 
L 221.943982 354.353181 
L 227.203533 353.283506 
L 232.463083 351.906692 
L 237.722634 350.164327 
L 238.695465 349.707618 
L 242.982184 347.763904 
L 248.193433 343.976238 
L 248.241735 343.939642 
L 253.190707 338.244857 
L 253.501286 337.836683 
L 256.61894 332.513476 
L 258.760836 327.95009 
L 259.263744 326.782096 
L 261.385367 321.050715 
L 263.040466 315.319335 
L 264.020387 311.122942 
L 264.414444 309.587954 
L 265.689197 303.856573 
L 266.787319 298.125193 
L 267.789378 292.393812 
L 268.736286 286.662431 
L 269.279937 283.195501 
L 269.714795 280.931051 
L 270.689233 275.19967 
L 271.481079 269.46829 
L 272.068676 263.736909 
L 272.449216 258.005528 
L 272.638403 252.274148 
L 272.65711 246.542767 
L 272.508814 240.811387 
L 272.160775 235.080006 
L 271.541028 229.348625 
L 270.555652 223.617245 
L 269.279937 218.455544 
L 269.121026 217.885864 
L 267.197084 212.154483 
L 264.873068 206.423103 
L 264.020387 204.468716 
L 262.00368 200.691722 
L 258.760836 194.988049 
L 258.73636 194.960342 
L 253.501286 189.228961 
L 253.501286 189.228961 
L 248.241735 187.354057 
L 242.982184 188.708178 
L 242.169862 189.228961 
L 237.722634 191.771645 
L 233.162067 194.960342 
L 232.463083 195.397743 
L 227.203533 199.315907 
L 225.732291 200.691722 
L 221.943982 204.220254 
L 220.211847 206.423103 
L 216.684432 211.20487 
L 216.156276 212.154483 
L 213.170677 217.885864 
L 211.424881 221.579812 
L 210.6381 223.617245 
L 208.564116 229.348625 
L 206.730514 235.080006 
L 206.16533 236.948203 
L 205.10797 240.811387 
L 203.687846 246.542767 
L 202.445963 252.274148 
L 201.363551 258.005528 
L 200.90578 260.739477 
L 200.383696 263.736909 
L 199.541725 269.46829 
L 198.879094 275.19967 
L 198.379412 280.931051 
L 198.020329 286.662431 
L 197.776061 292.393812 
L 197.62428 298.125193 
L 197.555349 303.856573 
L 197.579136 309.587954 
L 197.72658 315.319335 
L 198.048154 321.050715 
L 198.613778 326.782096 
L 199.517219 332.513476 
L 200.885983 338.244857 
L 200.90578 338.309942 
L 203.113254 343.976238 
L 206.16533 349.308044 
L 206.602927 349.707618 
z
M 211.114835 343.976238 
L 206.16533 338.244857 
L 206.16533 338.244857 
L 204.017963 332.513476 
L 202.620015 326.782096 
L 201.760504 321.050715 
L 201.28275 315.319335 
L 201.070365 309.587954 
L 201.039439 303.856573 
L 201.135797 298.125193 
L 201.334774 292.393812 
L 201.638635 286.662431 
L 202.067957 280.931051 
L 202.649054 275.19967 
L 203.404207 269.46829 
L 204.349295 263.736909 
L 205.497596 258.005528 
L 206.16533 255.111795 
L 206.905455 252.274148 
L 208.547927 246.542767 
L 210.406098 240.811387 
L 211.424881 237.93183 
L 212.68499 235.080006 
L 215.38998 229.348625 
L 216.684432 226.765908 
L 218.83729 223.617245 
L 221.943982 219.252904 
L 223.373956 217.885864 
L 227.203533 214.223153 
L 230.460624 212.154483 
L 232.463083 210.822973 
L 237.722634 208.396334 
L 242.982184 206.976575 
L 248.241735 207.100437 
L 253.501286 209.827093 
L 255.497827 212.154483 
L 258.760836 216.203969 
L 259.652087 217.885864 
L 262.343948 223.617245 
L 264.020387 228.232504 
L 264.344167 229.348625 
L 265.636887 235.080006 
L 266.494079 240.811387 
L 267.016179 246.542767 
L 267.276633 252.274148 
L 267.31056 258.005528 
L 267.125805 263.736909 
L 266.724254 269.46829 
L 266.118146 275.19967 
L 265.332919 280.931051 
L 264.39852 286.662431 
L 264.020387 288.73547 
L 263.418118 292.393812 
L 262.398679 298.125193 
L 261.255459 303.856573 
L 259.904589 309.587954 
L 258.760836 313.60625 
L 258.248862 315.319335 
L 256.199571 321.050715 
L 253.582466 326.782096 
L 253.501286 326.937833 
L 249.774922 332.513476 
L 248.241735 334.476923 
L 243.745815 338.244857 
L 242.982184 338.845761 
L 237.722634 341.38103 
L 232.463083 342.951146 
L 228.271128 343.976238 
L 227.203533 344.24774 
L 221.943982 345.450029 
L 216.684432 345.883036 
L 211.424881 344.268237 
z
" clip-path="url(#pf44832e0a8)" style="fill: #91c3de"/>
    <path d="M 211.424881 344.268237 
L 216.684432 345.883036 
L 221.943982 345.450029 
L 227.203533 344.24774 
L 228.271128 343.976238 
L 232.463083 342.951146 
L 237.722634 341.38103 
L 242.982184 338.845761 
L 243.745815 338.244857 
L 248.241735 334.476923 
L 249.774922 332.513476 
L 253.501286 326.937833 
L 253.582466 326.782096 
L 256.199571 321.050715 
L 258.248862 315.319335 
L 258.760836 313.60625 
L 259.904589 309.587954 
L 261.255459 303.856573 
L 262.398679 298.125193 
L 263.418118 292.393812 
L 264.020387 288.73547 
L 264.39852 286.662431 
L 265.332919 280.931051 
L 266.118146 275.19967 
L 266.724254 269.46829 
L 267.125805 263.736909 
L 267.31056 258.005528 
L 267.276633 252.274148 
L 267.016179 246.542767 
L 266.494079 240.811387 
L 265.636887 235.080006 
L 264.344167 229.348625 
L 264.020387 228.232504 
L 262.343948 223.617245 
L 259.652087 217.885864 
L 258.760836 216.203969 
L 255.497827 212.154483 
L 253.501286 209.827093 
L 248.241735 207.100437 
L 242.982184 206.976575 
L 237.722634 208.396334 
L 232.463083 210.822973 
L 230.460624 212.154483 
L 227.203533 214.223153 
L 223.373956 217.885864 
L 221.943982 219.252904 
L 218.83729 223.617245 
L 216.684432 226.765908 
L 215.38998 229.348625 
L 212.68499 235.080006 
L 211.424881 237.93183 
L 210.406098 240.811387 
L 208.547927 246.542767 
L 206.905455 252.274148 
L 206.16533 255.111795 
L 205.497596 258.005528 
L 204.349295 263.736909 
L 203.404207 269.46829 
L 202.649054 275.19967 
L 202.067957 280.931051 
L 201.638635 286.662431 
L 201.334774 292.393812 
L 201.135797 298.125193 
L 201.039439 303.856573 
L 201.070365 309.587954 
L 201.28275 315.319335 
L 201.760504 321.050715 
L 202.620015 326.782096 
L 204.017963 332.513476 
L 206.16533 338.244857 
L 206.16533 338.244857 
L 211.114835 343.976238 
z
M 210.144518 332.513476 
L 207.279376 326.782096 
L 206.16533 323.194344 
L 205.732479 321.050715 
L 205.023535 315.319335 
L 204.685435 309.587954 
L 204.609471 303.856573 
L 204.717837 298.125193 
L 204.964262 292.393812 
L 205.334851 286.662431 
L 205.843391 280.931051 
L 206.16533 278.168389 
L 206.584239 275.19967 
L 207.589833 269.46829 
L 208.799131 263.736909 
L 210.217858 258.005528 
L 211.424881 253.772004 
L 211.984334 252.274148 
L 214.293488 246.542767 
L 216.684432 241.157117 
L 216.89842 240.811387 
L 220.631197 235.080006 
L 221.943982 233.163191 
L 225.790143 229.348625 
L 227.203533 227.971514 
L 232.463083 224.614058 
L 235.021469 223.617245 
L 237.722634 222.53257 
L 242.982184 221.746772 
L 248.241735 222.844328 
L 249.32975 223.617245 
L 253.501286 226.957389 
L 255.077643 229.348625 
L 258.065755 235.080006 
L 258.760836 236.848261 
L 259.877301 240.811387 
L 261.013724 246.542767 
L 261.736726 252.274148 
L 262.125046 258.005528 
L 262.219667 263.736909 
L 262.044855 269.46829 
L 261.62802 275.19967 
L 261.004792 280.931051 
L 260.209531 286.662431 
L 259.260049 292.393812 
L 258.760836 294.990798 
L 258.139165 298.125193 
L 256.830967 303.856573 
L 255.256044 309.587954 
L 253.501286 314.738968 
L 253.25531 315.319335 
L 250.377358 321.050715 
L 248.241735 324.539559 
L 246.136434 326.782096 
L 242.982184 329.778328 
L 237.722634 332.513476 
L 237.722634 332.513476 
L 232.463083 334.024953 
L 227.203533 335.2763 
L 221.943982 336.515975 
L 216.684432 336.865129 
L 211.424881 334.353473 
z
" clip-path="url(#pf44832e0a8)" style="fill: #60a7d2"/>
    <path d="M 211.424881 334.353473 
L 216.684432 336.865129 
L 221.943982 336.515975 
L 227.203533 335.2763 
L 232.463083 334.024953 
L 237.722634 332.513476 
L 237.722634 332.513476 
L 242.982184 329.778328 
L 246.136434 326.782096 
L 248.241735 324.539559 
L 250.377358 321.050715 
L 253.25531 315.319335 
L 253.501286 314.738968 
L 255.256044 309.587954 
L 256.830967 303.856573 
L 258.139165 298.125193 
L 258.760836 294.990798 
L 259.260049 292.393812 
L 260.209531 286.662431 
L 261.004792 280.931051 
L 261.62802 275.19967 
L 262.044855 269.46829 
L 262.219667 263.736909 
L 262.125046 258.005528 
L 261.736726 252.274148 
L 261.013724 246.542767 
L 259.877301 240.811387 
L 258.760836 236.848261 
L 258.065755 235.080006 
L 255.077643 229.348625 
L 253.501286 226.957389 
L 249.32975 223.617245 
L 248.241735 222.844328 
L 242.982184 221.746772 
L 237.722634 222.53257 
L 235.021469 223.617245 
L 232.463083 224.614058 
L 227.203533 227.971514 
L 225.790143 229.348625 
L 221.943982 233.163191 
L 220.631197 235.080006 
L 216.89842 240.811387 
L 216.684432 241.157117 
L 214.293488 246.542767 
L 211.984334 252.274148 
L 211.424881 253.772004 
L 210.217858 258.005528 
L 208.799131 263.736909 
L 207.589833 269.46829 
L 206.584239 275.19967 
L 206.16533 278.168389 
L 205.843391 280.931051 
L 205.334851 286.662431 
L 204.964262 292.393812 
L 204.717837 298.125193 
L 204.609471 303.856573 
L 204.685435 309.587954 
L 205.023535 315.319335 
L 205.732479 321.050715 
L 206.16533 323.194344 
L 207.279376 326.782096 
L 210.144518 332.513476 
z
M 215.049564 326.782096 
L 211.424881 323.102386 
L 210.639727 321.050715 
L 209.27072 315.319335 
L 208.600053 309.587954 
L 208.400233 303.856573 
L 208.516272 298.125193 
L 208.852547 292.393812 
L 209.362142 286.662431 
L 210.035022 280.931051 
L 210.883192 275.19967 
L 211.424881 272.213733 
L 212.153386 269.46829 
L 213.876718 263.736909 
L 215.769942 258.005528 
L 216.684432 255.524686 
L 218.428918 252.274148 
L 221.691667 246.542767 
L 221.943982 246.13465 
L 226.784395 240.811387 
L 227.203533 240.378184 
L 232.463083 236.790065 
L 236.682258 235.080006 
L 237.722634 234.679098 
L 242.982184 234.350355 
L 244.802728 235.080006 
L 248.241735 236.714414 
L 251.484797 240.811387 
L 253.501286 244.210608 
L 254.332253 246.542767 
L 255.838573 252.274148 
L 256.823092 258.005528 
L 257.36866 263.736909 
L 257.524951 269.46829 
L 257.339338 275.19967 
L 256.867057 280.931051 
L 256.159097 286.662431 
L 255.242287 292.393812 
L 254.104807 298.125193 
L 253.501286 300.608724 
L 252.531812 303.856573 
L 250.452721 309.587954 
L 248.241735 314.488482 
L 247.669763 315.319335 
L 242.982184 321.050715 
L 242.982184 321.050715 
L 237.722634 324.104351 
L 232.463083 325.633492 
L 227.545834 326.782096 
L 227.203533 326.859322 
L 221.943982 328.011734 
L 216.684432 327.943774 
z
" clip-path="url(#pf44832e0a8)" style="fill: #3888c1"/>
    <path d="M 216.684432 327.943774 
L 221.943982 328.011734 
L 227.203533 326.859322 
L 227.545834 326.782096 
L 232.463083 325.633492 
L 237.722634 324.104351 
L 242.982184 321.050715 
L 242.982184 321.050715 
L 247.669763 315.319335 
L 248.241735 314.488482 
L 250.452721 309.587954 
L 252.531812 303.856573 
L 253.501286 300.608724 
L 254.104807 298.125193 
L 255.242287 292.393812 
L 256.159097 286.662431 
L 256.867057 280.931051 
L 257.339338 275.19967 
L 257.524951 269.46829 
L 257.36866 263.736909 
L 256.823092 258.005528 
L 255.838573 252.274148 
L 254.332253 246.542767 
L 253.501286 244.210608 
L 251.484797 240.811387 
L 248.241735 236.714414 
L 244.802728 235.080006 
L 242.982184 234.350355 
L 237.722634 234.679098 
L 236.682258 235.080006 
L 232.463083 236.790065 
L 227.203533 240.378184 
L 226.784395 240.811387 
L 221.943982 246.13465 
L 221.691667 246.542767 
L 218.428918 252.274148 
L 216.684432 255.524686 
L 215.769942 258.005528 
L 213.876718 263.736909 
L 212.153386 269.46829 
L 211.424881 272.213733 
L 210.883192 275.19967 
L 210.035022 280.931051 
L 209.362142 286.662431 
L 208.852547 292.393812 
L 208.516272 298.125193 
L 208.400233 303.856573 
L 208.600053 309.587954 
L 209.27072 315.319335 
L 210.639727 321.050715 
L 211.424881 323.102386 
L 215.049564 326.782096 
z
M 214.315769 315.319335 
L 212.531737 309.587954 
L 211.944397 303.856573 
L 212.057896 298.125193 
L 212.605445 292.393812 
L 213.450925 286.662431 
L 214.523423 280.931051 
L 215.778506 275.19967 
L 216.684432 271.552017 
L 217.552193 269.46829 
L 220.078402 263.736909 
L 221.943982 259.662165 
L 223.071381 258.005528 
L 227.203533 252.445515 
L 227.382724 252.274148 
L 232.463083 248.127873 
L 235.814003 246.542767 
L 237.722634 245.756352 
L 242.982184 245.905947 
L 243.903675 246.542767 
L 248.241735 250.309291 
L 249.215978 252.274148 
L 251.350634 258.005528 
L 252.751587 263.736909 
L 253.501286 269.46829 
L 253.501286 269.46829 
L 253.622117 275.19967 
L 253.501286 278.08868 
L 253.350968 280.931051 
L 252.645305 286.662431 
L 251.619062 292.393812 
L 250.278175 298.125193 
L 248.563423 303.856573 
L 248.241735 304.715609 
L 245.459934 309.587954 
L 242.982184 313.150209 
L 240.048306 315.319335 
L 237.722634 316.816937 
L 232.463083 318.333925 
L 227.203533 319.395817 
L 221.943982 320.338355 
L 216.684432 319.088489 
z
" clip-path="url(#pf44832e0a8)" style="fill: #1c6bb0"/>
    <path d="M 216.684432 319.088489 
L 221.943982 320.338355 
L 227.203533 319.395817 
L 232.463083 318.333925 
L 237.722634 316.816937 
L 240.048306 315.319335 
L 242.982184 313.150209 
L 245.459934 309.587954 
L 248.241735 304.715609 
L 248.563423 303.856573 
L 250.278175 298.125193 
L 251.619062 292.393812 
L 252.645305 286.662431 
L 253.350968 280.931051 
L 253.501286 278.08868 
L 253.622117 275.19967 
L 253.501286 269.46829 
L 253.501286 269.46829 
L 252.751587 263.736909 
L 251.350634 258.005528 
L 249.215978 252.274148 
L 248.241735 250.309291 
L 243.903675 246.542767 
L 242.982184 245.905947 
L 237.722634 245.756352 
L 235.814003 246.542767 
L 232.463083 248.127873 
L 227.382724 252.274148 
L 227.203533 252.445515 
L 223.071381 258.005528 
L 221.943982 259.662165 
L 220.078402 263.736909 
L 217.552193 269.46829 
L 216.684432 271.552017 
L 215.778506 275.19967 
L 214.523423 280.931051 
L 213.450925 286.662431 
L 212.605445 292.393812 
L 212.057896 298.125193 
L 211.944397 303.856573 
L 212.531737 309.587954 
L 214.315769 315.319335 
z
M 221.943982 309.587954 
L 221.943982 309.587954 
L 218.48701 303.856573 
L 218.009183 298.125193 
L 218.84481 292.393812 
L 220.357643 286.662431 
L 221.943982 281.798597 
L 222.390439 280.931051 
L 225.542907 275.19967 
L 227.203533 272.224549 
L 229.003062 269.46829 
L 232.463083 264.819626 
L 233.702277 263.736909 
L 237.722634 260.880237 
L 242.982184 261.458643 
L 244.569912 263.736909 
L 247.402176 269.46829 
L 248.241735 272.543959 
L 248.559083 275.19967 
L 248.714476 280.931051 
L 248.374438 286.662431 
L 248.241735 287.587398 
L 247.14205 292.393812 
L 245.242361 298.125193 
L 242.982184 303.286332 
L 242.454443 303.856573 
L 237.722634 307.923073 
L 232.463083 309.562279 
L 232.18389 309.587954 
L 227.203533 309.959266 
z
" clip-path="url(#pf44832e0a8)" style="fill: #0a539e"/>
    <path d="M 227.203533 309.959266 
L 232.18389 309.587954 
L 232.463083 309.562279 
L 237.722634 307.923073 
L 242.454443 303.856573 
L 242.982184 303.286332 
L 245.242361 298.125193 
L 247.14205 292.393812 
L 248.241735 287.587398 
L 248.374438 286.662431 
L 248.714476 280.931051 
L 248.559083 275.19967 
L 248.241735 272.543959 
L 247.402176 269.46829 
L 244.569912 263.736909 
L 242.982184 261.458643 
L 237.722634 260.880237 
L 233.702277 263.736909 
L 232.463083 264.819626 
L 229.003062 269.46829 
L 227.203533 272.224549 
L 225.542907 275.19967 
L 222.390439 280.931051 
L 221.943982 281.798597 
L 220.357643 286.662431 
L 218.84481 292.393812 
L 218.009183 298.125193 
L 218.48701 303.856573 
L 221.943982 309.587954 
L 221.943982 309.587954 
z
" clip-path="url(#pf44832e0a8)" style="fill: #083a7a"/>
   </g>
   <g id="matplotlib.axis_1">
    <g id="xtick_1">
     <g id="line2d_1">
      <defs>
       <path id="mc9dd61d6e6" d="M 0 0 
L 0 3.5 
" style="stroke: #000000; stroke-width: 0.8"/>
      </defs>
      <g>
       <use xlink:href="#mc9dd61d6e6" x="138.586567" y="499.48" style="stroke: #000000; stroke-width: 0.8"/>
      </g>
     </g>
     <g id="text_1">
      <!-- 1 -->
      <g transform="translate(131.587817 523.196563) scale(0.22 -0.22)">
       <defs>
        <path id="DejaVuSans-31" d="M 794 531 
L 1825 531 
L 1825 4091 
L 703 3866 
L 703 4441 
L 1819 4666 
L 2450 4666 
L 2450 531 
L 3481 531 
L 3481 0 
L 794 0 
L 794 531 
z
" transform="scale(0.015625)"/>
       </defs>
       <use xlink:href="#DejaVuSans-31"/>
      </g>
     </g>
    </g>
    <g id="xtick_2">
     <g id="line2d_2">
      <g>
       <use xlink:href="#mc9dd61d6e6" x="240.058509" y="499.48" style="stroke: #000000; stroke-width: 0.8"/>
      </g>
     </g>
     <g id="text_2">
      <!-- 2 -->
      <g transform="translate(233.059759 523.196563) scale(0.22 -0.22)">
       <defs>
        <path id="DejaVuSans-32" d="M 1228 531 
L 3431 531 
L 3431 0 
L 469 0 
L 469 531 
Q 828 903 1448 1529 
Q 2069 2156 2228 2338 
Q 2531 2678 2651 2914 
Q 2772 3150 2772 3378 
Q 2772 3750 2511 3984 
Q 2250 4219 1831 4219 
Q 1534 4219 1204 4116 
Q 875 4013 500 3803 
L 500 4441 
Q 881 4594 1212 4672 
Q 1544 4750 1819 4750 
Q 2544 4750 2975 4387 
Q 3406 4025 3406 3419 
Q 3406 3131 3298 2873 
Q 3191 2616 2906 2266 
Q 2828 2175 2409 1742 
Q 1991 1309 1228 531 
z
" transform="scale(0.015625)"/>
       </defs>
       <use xlink:href="#DejaVuSans-32"/>
      </g>
     </g>
    </g>
    <g id="xtick_3">
     <g id="line2d_3">
      <g>
       <use xlink:href="#mc9dd61d6e6" x="341.530451" y="499.48" style="stroke: #000000; stroke-width: 0.8"/>
      </g>
     </g>
     <g id="text_3">
      <!-- 3 -->
      <g transform="translate(334.531701 523.196563) scale(0.22 -0.22)">
       <defs>
        <path id="DejaVuSans-33" d="M 2597 2516 
Q 3050 2419 3304 2112 
Q 3559 1806 3559 1356 
Q 3559 666 3084 287 
Q 2609 -91 1734 -91 
Q 1441 -91 1130 -33 
Q 819 25 488 141 
L 488 750 
Q 750 597 1062 519 
Q 1375 441 1716 441 
Q 2309 441 2620 675 
Q 2931 909 2931 1356 
Q 2931 1769 2642 2001 
Q 2353 2234 1838 2234 
L 1294 2234 
L 1294 2753 
L 1863 2753 
Q 2328 2753 2575 2939 
Q 2822 3125 2822 3475 
Q 2822 3834 2567 4026 
Q 2313 4219 1838 4219 
Q 1578 4219 1281 4162 
Q 984 4106 628 3988 
L 628 4550 
Q 988 4650 1302 4700 
Q 1616 4750 1894 4750 
Q 2613 4750 3031 4423 
Q 3450 4097 3450 3541 
Q 3450 3153 3228 2886 
Q 3006 2619 2597 2516 
z
" transform="scale(0.015625)"/>
       </defs>
       <use xlink:href="#DejaVuSans-33"/>
      </g>
     </g>
    </g>
    <g id="xtick_4">
     <g id="line2d_4">
      <g>
       <use xlink:href="#mc9dd61d6e6" x="443.002394" y="499.48" style="stroke: #000000; stroke-width: 0.8"/>
      </g>
     </g>
     <g id="text_4">
      <!-- 4 -->
      <g transform="translate(436.003644 523.196563) scale(0.22 -0.22)">
       <defs>
        <path id="DejaVuSans-34" d="M 2419 4116 
L 825 1625 
L 2419 1625 
L 2419 4116 
z
M 2253 4666 
L 3047 4666 
L 3047 1625 
L 3713 1625 
L 3713 1100 
L 3047 1100 
L 3047 0 
L 2419 0 
L 2419 1100 
L 313 1100 
L 313 1709 
L 2253 4666 
z
" transform="scale(0.015625)"/>
       </defs>
       <use xlink:href="#DejaVuSans-34"/>
      </g>
     </g>
    </g>
    <g id="xtick_5">
     <g id="line2d_5">
      <g>
       <use xlink:href="#mc9dd61d6e6" x="544.474336" y="499.48" style="stroke: #000000; stroke-width: 0.8"/>
      </g>
     </g>
     <g id="text_5">
      <!-- 5 -->
      <g transform="translate(537.475586 523.196563) scale(0.22 -0.22)">
       <defs>
        <path id="DejaVuSans-35" d="M 691 4666 
L 3169 4666 
L 3169 4134 
L 1269 4134 
L 1269 2991 
Q 1406 3038 1543 3061 
Q 1681 3084 1819 3084 
Q 2600 3084 3056 2656 
Q 3513 2228 3513 1497 
Q 3513 744 3044 326 
Q 2575 -91 1722 -91 
Q 1428 -91 1123 -41 
Q 819 9 494 109 
L 494 744 
Q 775 591 1075 516 
Q 1375 441 1709 441 
Q 2250 441 2565 725 
Q 2881 1009 2881 1497 
Q 2881 1984 2565 2268 
Q 2250 2553 1709 2553 
Q 1456 2553 1204 2497 
Q 953 2441 691 2322 
L 691 4666 
z
" transform="scale(0.015625)"/>
       </defs>
       <use xlink:href="#DejaVuSans-35"/>
      </g>
     </g>
    </g>
    <g id="xtick_6">
     <g id="line2d_6">
      <g>
       <use xlink:href="#mc9dd61d6e6" x="645.946278" y="499.48" style="stroke: #000000; stroke-width: 0.8"/>
      </g>
     </g>
     <g id="text_6">
      <!-- 6 -->
      <g transform="translate(638.947528 523.196563) scale(0.22 -0.22)">
       <defs>
        <path id="DejaVuSans-36" d="M 2113 2584 
Q 1688 2584 1439 2293 
Q 1191 2003 1191 1497 
Q 1191 994 1439 701 
Q 1688 409 2113 409 
Q 2538 409 2786 701 
Q 3034 994 3034 1497 
Q 3034 2003 2786 2293 
Q 2538 2584 2113 2584 
z
M 3366 4563 
L 3366 3988 
Q 3128 4100 2886 4159 
Q 2644 4219 2406 4219 
Q 1781 4219 1451 3797 
Q 1122 3375 1075 2522 
Q 1259 2794 1537 2939 
Q 1816 3084 2150 3084 
Q 2853 3084 3261 2657 
Q 3669 2231 3669 1497 
Q 3669 778 3244 343 
Q 2819 -91 2113 -91 
Q 1303 -91 875 529 
Q 447 1150 447 2328 
Q 447 3434 972 4092 
Q 1497 4750 2381 4750 
Q 2619 4750 2861 4703 
Q 3103 4656 3366 4563 
z
" transform="scale(0.015625)"/>
       </defs>
       <use xlink:href="#DejaVuSans-36"/>
      </g>
     </g>
    </g>
    <g id="text_7">
     <!-- Energy Uncertainties -->
     <g transform="translate(267.642187 548.488438) scale(0.22 -0.22)">
      <defs>
       <path id="DejaVuSans-45" d="M 628 4666 
L 3578 4666 
L 3578 4134 
L 1259 4134 
L 1259 2753 
L 3481 2753 
L 3481 2222 
L 1259 2222 
L 1259 531 
L 3634 531 
L 3634 0 
L 628 0 
L 628 4666 
z
" transform="scale(0.015625)"/>
       <path id="DejaVuSans-6e" d="M 3513 2113 
L 3513 0 
L 2938 0 
L 2938 2094 
Q 2938 2591 2744 2837 
Q 2550 3084 2163 3084 
Q 1697 3084 1428 2787 
Q 1159 2491 1159 1978 
L 1159 0 
L 581 0 
L 581 3500 
L 1159 3500 
L 1159 2956 
Q 1366 3272 1645 3428 
Q 1925 3584 2291 3584 
Q 2894 3584 3203 3211 
Q 3513 2838 3513 2113 
z
" transform="scale(0.015625)"/>
       <path id="DejaVuSans-65" d="M 3597 1894 
L 3597 1613 
L 953 1613 
Q 991 1019 1311 708 
Q 1631 397 2203 397 
Q 2534 397 2845 478 
Q 3156 559 3463 722 
L 3463 178 
Q 3153 47 2828 -22 
Q 2503 -91 2169 -91 
Q 1331 -91 842 396 
Q 353 884 353 1716 
Q 353 2575 817 3079 
Q 1281 3584 2069 3584 
Q 2775 3584 3186 3129 
Q 3597 2675 3597 1894 
z
M 3022 2063 
Q 3016 2534 2758 2815 
Q 2500 3097 2075 3097 
Q 1594 3097 1305 2825 
Q 1016 2553 972 2059 
L 3022 2063 
z
" transform="scale(0.015625)"/>
       <path id="DejaVuSans-72" d="M 2631 2963 
Q 2534 3019 2420 3045 
Q 2306 3072 2169 3072 
Q 1681 3072 1420 2755 
Q 1159 2438 1159 1844 
L 1159 0 
L 581 0 
L 581 3500 
L 1159 3500 
L 1159 2956 
Q 1341 3275 1631 3429 
Q 1922 3584 2338 3584 
Q 2397 3584 2469 3576 
Q 2541 3569 2628 3553 
L 2631 2963 
z
" transform="scale(0.015625)"/>
       <path id="DejaVuSans-67" d="M 2906 1791 
Q 2906 2416 2648 2759 
Q 2391 3103 1925 3103 
Q 1463 3103 1205 2759 
Q 947 2416 947 1791 
Q 947 1169 1205 825 
Q 1463 481 1925 481 
Q 2391 481 2648 825 
Q 2906 1169 2906 1791 
z
M 3481 434 
Q 3481 -459 3084 -895 
Q 2688 -1331 1869 -1331 
Q 1566 -1331 1297 -1286 
Q 1028 -1241 775 -1147 
L 775 -588 
Q 1028 -725 1275 -790 
Q 1522 -856 1778 -856 
Q 2344 -856 2625 -561 
Q 2906 -266 2906 331 
L 2906 616 
Q 2728 306 2450 153 
Q 2172 0 1784 0 
Q 1141 0 747 490 
Q 353 981 353 1791 
Q 353 2603 747 3093 
Q 1141 3584 1784 3584 
Q 2172 3584 2450 3431 
Q 2728 3278 2906 2969 
L 2906 3500 
L 3481 3500 
L 3481 434 
z
" transform="scale(0.015625)"/>
       <path id="DejaVuSans-79" d="M 2059 -325 
Q 1816 -950 1584 -1140 
Q 1353 -1331 966 -1331 
L 506 -1331 
L 506 -850 
L 844 -850 
Q 1081 -850 1212 -737 
Q 1344 -625 1503 -206 
L 1606 56 
L 191 3500 
L 800 3500 
L 1894 763 
L 2988 3500 
L 3597 3500 
L 2059 -325 
z
" transform="scale(0.015625)"/>
       <path id="DejaVuSans-20" transform="scale(0.015625)"/>
       <path id="DejaVuSans-55" d="M 556 4666 
L 1191 4666 
L 1191 1831 
Q 1191 1081 1462 751 
Q 1734 422 2344 422 
Q 2950 422 3222 751 
Q 3494 1081 3494 1831 
L 3494 4666 
L 4128 4666 
L 4128 1753 
Q 4128 841 3676 375 
Q 3225 -91 2344 -91 
Q 1459 -91 1007 375 
Q 556 841 556 1753 
L 556 4666 
z
" transform="scale(0.015625)"/>
       <path id="DejaVuSans-63" d="M 3122 3366 
L 3122 2828 
Q 2878 2963 2633 3030 
Q 2388 3097 2138 3097 
Q 1578 3097 1268 2742 
Q 959 2388 959 1747 
Q 959 1106 1268 751 
Q 1578 397 2138 397 
Q 2388 397 2633 464 
Q 2878 531 3122 666 
L 3122 134 
Q 2881 22 2623 -34 
Q 2366 -91 2075 -91 
Q 1284 -91 818 406 
Q 353 903 353 1747 
Q 353 2603 823 3093 
Q 1294 3584 2113 3584 
Q 2378 3584 2631 3529 
Q 2884 3475 3122 3366 
z
" transform="scale(0.015625)"/>
       <path id="DejaVuSans-74" d="M 1172 4494 
L 1172 3500 
L 2356 3500 
L 2356 3053 
L 1172 3053 
L 1172 1153 
Q 1172 725 1289 603 
Q 1406 481 1766 481 
L 2356 481 
L 2356 0 
L 1766 0 
Q 1100 0 847 248 
Q 594 497 594 1153 
L 594 3053 
L 172 3053 
L 172 3500 
L 594 3500 
L 594 4494 
L 1172 4494 
z
" transform="scale(0.015625)"/>
       <path id="DejaVuSans-61" d="M 2194 1759 
Q 1497 1759 1228 1600 
Q 959 1441 959 1056 
Q 959 750 1161 570 
Q 1363 391 1709 391 
Q 2188 391 2477 730 
Q 2766 1069 2766 1631 
L 2766 1759 
L 2194 1759 
z
M 3341 1997 
L 3341 0 
L 2766 0 
L 2766 531 
Q 2569 213 2275 61 
Q 1981 -91 1556 -91 
Q 1019 -91 701 211 
Q 384 513 384 1019 
Q 384 1609 779 1909 
Q 1175 2209 1959 2209 
L 2766 2209 
L 2766 2266 
Q 2766 2663 2505 2880 
Q 2244 3097 1772 3097 
Q 1472 3097 1187 3025 
Q 903 2953 641 2809 
L 641 3341 
Q 956 3463 1253 3523 
Q 1550 3584 1831 3584 
Q 2591 3584 2966 3190 
Q 3341 2797 3341 1997 
z
" transform="scale(0.015625)"/>
       <path id="DejaVuSans-69" d="M 603 3500 
L 1178 3500 
L 1178 0 
L 603 0 
L 603 3500 
z
M 603 4863 
L 1178 4863 
L 1178 4134 
L 603 4134 
L 603 4863 
z
" transform="scale(0.015625)"/>
       <path id="DejaVuSans-73" d="M 2834 3397 
L 2834 2853 
Q 2591 2978 2328 3040 
Q 2066 3103 1784 3103 
Q 1356 3103 1142 2972 
Q 928 2841 928 2578 
Q 928 2378 1081 2264 
Q 1234 2150 1697 2047 
L 1894 2003 
Q 2506 1872 2764 1633 
Q 3022 1394 3022 966 
Q 3022 478 2636 193 
Q 2250 -91 1575 -91 
Q 1294 -91 989 -36 
Q 684 19 347 128 
L 347 722 
Q 666 556 975 473 
Q 1284 391 1588 391 
Q 1994 391 2212 530 
Q 2431 669 2431 922 
Q 2431 1156 2273 1281 
Q 2116 1406 1581 1522 
L 1381 1569 
Q 847 1681 609 1914 
Q 372 2147 372 2553 
Q 372 3047 722 3315 
Q 1072 3584 1716 3584 
Q 2034 3584 2315 3537 
Q 2597 3491 2834 3397 
z
" transform="scale(0.015625)"/>
      </defs>
      <use xlink:href="#DejaVuSans-45"/>
      <use xlink:href="#DejaVuSans-6e" x="63.183594"/>
      <use xlink:href="#DejaVuSans-65" x="126.5625"/>
      <use xlink:href="#DejaVuSans-72" x="188.085938"/>
      <use xlink:href="#DejaVuSans-67" x="227.449219"/>
      <use xlink:href="#DejaVuSans-79" x="290.925781"/>
      <use xlink:href="#DejaVuSans-20" x="350.105469"/>
      <use xlink:href="#DejaVuSans-55" x="381.892578"/>
      <use xlink:href="#DejaVuSans-6e" x="455.085938"/>
      <use xlink:href="#DejaVuSans-63" x="518.464844"/>
      <use xlink:href="#DejaVuSans-65" x="573.445312"/>
      <use xlink:href="#DejaVuSans-72" x="634.96875"/>
      <use xlink:href="#DejaVuSans-74" x="676.082031"/>
      <use xlink:href="#DejaVuSans-61" x="715.291016"/>
      <use xlink:href="#DejaVuSans-69" x="776.570312"/>
      <use xlink:href="#DejaVuSans-6e" x="804.353516"/>
      <use xlink:href="#DejaVuSans-74" x="867.732422"/>
      <use xlink:href="#DejaVuSans-69" x="906.941406"/>
      <use xlink:href="#DejaVuSans-65" x="934.724609"/>
      <use xlink:href="#DejaVuSans-73" x="996.248047"/>
     </g>
    </g>
   </g>
   <g id="matplotlib.axis_2">
    <g id="ytick_1">
     <g id="line2d_7">
      <defs>
       <path id="m4528209301" d="M 0 0 
L -3.5 0 
" style="stroke: #000000; stroke-width: 0.8"/>
      </defs>
      <g>
       <use xlink:href="#m4528209301" x="69.68" y="447.162214" style="stroke: #000000; stroke-width: 0.8"/>
      </g>
     </g>
     <g id="text_8">
      <!-- 1 -->
      <g transform="translate(48.6825 455.520495) scale(0.22 -0.22)">
       <use xlink:href="#DejaVuSans-31"/>
      </g>
     </g>
    </g>
    <g id="ytick_2">
     <g id="line2d_8">
      <g>
       <use xlink:href="#m4528209301" x="69.68" y="370.118942" style="stroke: #000000; stroke-width: 0.8"/>
      </g>
     </g>
     <g id="text_9">
      <!-- 2 -->
      <g transform="translate(48.6825 378.477224) scale(0.22 -0.22)">
       <use xlink:href="#DejaVuSans-32"/>
      </g>
     </g>
    </g>
    <g id="ytick_3">
     <g id="line2d_9">
      <g>
       <use xlink:href="#m4528209301" x="69.68" y="293.07567" style="stroke: #000000; stroke-width: 0.8"/>
      </g>
     </g>
     <g id="text_10">
      <!-- 3 -->
      <g transform="translate(48.6825 301.433952) scale(0.22 -0.22)">
       <use xlink:href="#DejaVuSans-33"/>
      </g>
     </g>
    </g>
    <g id="ytick_4">
     <g id="line2d_10">
      <g>
       <use xlink:href="#m4528209301" x="69.68" y="216.032399" style="stroke: #000000; stroke-width: 0.8"/>
      </g>
     </g>
     <g id="text_11">
      <!-- 4 -->
      <g transform="translate(48.6825 224.39068) scale(0.22 -0.22)">
       <use xlink:href="#DejaVuSans-34"/>
      </g>
     </g>
    </g>
    <g id="ytick_5">
     <g id="line2d_11">
      <g>
       <use xlink:href="#m4528209301" x="69.68" y="138.989127" style="stroke: #000000; stroke-width: 0.8"/>
      </g>
     </g>
     <g id="text_12">
      <!-- 5 -->
      <g transform="translate(48.6825 147.347408) scale(0.22 -0.22)">
       <use xlink:href="#DejaVuSans-35"/>
      </g>
     </g>
    </g>
    <g id="ytick_6">
     <g id="line2d_12">
      <g>
       <use xlink:href="#m4528209301" x="69.68" y="61.945855" style="stroke: #000000; stroke-width: 0.8"/>
      </g>
     </g>
     <g id="text_13">
      <!-- 6 -->
      <g transform="translate(48.6825 70.304136) scale(0.22 -0.22)">
       <use xlink:href="#DejaVuSans-36"/>
      </g>
     </g>
    </g>
    <g id="text_14">
     <!-- Force Errors [kJ/(mol*A)] -->
     <g transform="translate(40.107187 394.9125) rotate(-90) scale(0.22 -0.22)">
      <defs>
       <path id="DejaVuSans-46" d="M 628 4666 
L 3309 4666 
L 3309 4134 
L 1259 4134 
L 1259 2759 
L 3109 2759 
L 3109 2228 
L 1259 2228 
L 1259 0 
L 628 0 
L 628 4666 
z
" transform="scale(0.015625)"/>
       <path id="DejaVuSans-6f" d="M 1959 3097 
Q 1497 3097 1228 2736 
Q 959 2375 959 1747 
Q 959 1119 1226 758 
Q 1494 397 1959 397 
Q 2419 397 2687 759 
Q 2956 1122 2956 1747 
Q 2956 2369 2687 2733 
Q 2419 3097 1959 3097 
z
M 1959 3584 
Q 2709 3584 3137 3096 
Q 3566 2609 3566 1747 
Q 3566 888 3137 398 
Q 2709 -91 1959 -91 
Q 1206 -91 779 398 
Q 353 888 353 1747 
Q 353 2609 779 3096 
Q 1206 3584 1959 3584 
z
" transform="scale(0.015625)"/>
       <path id="DejaVuSans-5b" d="M 550 4863 
L 1875 4863 
L 1875 4416 
L 1125 4416 
L 1125 -397 
L 1875 -397 
L 1875 -844 
L 550 -844 
L 550 4863 
z
" transform="scale(0.015625)"/>
       <path id="DejaVuSans-6b" d="M 581 4863 
L 1159 4863 
L 1159 1991 
L 2875 3500 
L 3609 3500 
L 1753 1863 
L 3688 0 
L 2938 0 
L 1159 1709 
L 1159 0 
L 581 0 
L 581 4863 
z
" transform="scale(0.015625)"/>
       <path id="DejaVuSans-4a" d="M 628 4666 
L 1259 4666 
L 1259 325 
Q 1259 -519 939 -900 
Q 619 -1281 -91 -1281 
L -331 -1281 
L -331 -750 
L -134 -750 
Q 284 -750 456 -515 
Q 628 -281 628 325 
L 628 4666 
z
" transform="scale(0.015625)"/>
       <path id="DejaVuSans-2f" d="M 1625 4666 
L 2156 4666 
L 531 -594 
L 0 -594 
L 1625 4666 
z
" transform="scale(0.015625)"/>
       <path id="DejaVuSans-28" d="M 1984 4856 
Q 1566 4138 1362 3434 
Q 1159 2731 1159 2009 
Q 1159 1288 1364 580 
Q 1569 -128 1984 -844 
L 1484 -844 
Q 1016 -109 783 600 
Q 550 1309 550 2009 
Q 550 2706 781 3412 
Q 1013 4119 1484 4856 
L 1984 4856 
z
" transform="scale(0.015625)"/>
       <path id="DejaVuSans-6d" d="M 3328 2828 
Q 3544 3216 3844 3400 
Q 4144 3584 4550 3584 
Q 5097 3584 5394 3201 
Q 5691 2819 5691 2113 
L 5691 0 
L 5113 0 
L 5113 2094 
Q 5113 2597 4934 2840 
Q 4756 3084 4391 3084 
Q 3944 3084 3684 2787 
Q 3425 2491 3425 1978 
L 3425 0 
L 2847 0 
L 2847 2094 
Q 2847 2600 2669 2842 
Q 2491 3084 2119 3084 
Q 1678 3084 1418 2786 
Q 1159 2488 1159 1978 
L 1159 0 
L 581 0 
L 581 3500 
L 1159 3500 
L 1159 2956 
Q 1356 3278 1631 3431 
Q 1906 3584 2284 3584 
Q 2666 3584 2933 3390 
Q 3200 3197 3328 2828 
z
" transform="scale(0.015625)"/>
       <path id="DejaVuSans-6c" d="M 603 4863 
L 1178 4863 
L 1178 0 
L 603 0 
L 603 4863 
z
" transform="scale(0.015625)"/>
       <path id="DejaVuSans-2a" d="M 3009 3897 
L 1888 3291 
L 3009 2681 
L 2828 2375 
L 1778 3009 
L 1778 1831 
L 1422 1831 
L 1422 3009 
L 372 2375 
L 191 2681 
L 1313 3291 
L 191 3897 
L 372 4206 
L 1422 3572 
L 1422 4750 
L 1778 4750 
L 1778 3572 
L 2828 4206 
L 3009 3897 
z
" transform="scale(0.015625)"/>
       <path id="DejaVuSans-41" d="M 2188 4044 
L 1331 1722 
L 3047 1722 
L 2188 4044 
z
M 1831 4666 
L 2547 4666 
L 4325 0 
L 3669 0 
L 3244 1197 
L 1141 1197 
L 716 0 
L 50 0 
L 1831 4666 
z
" transform="scale(0.015625)"/>
       <path id="DejaVuSans-29" d="M 513 4856 
L 1013 4856 
Q 1481 4119 1714 3412 
Q 1947 2706 1947 2009 
Q 1947 1309 1714 600 
Q 1481 -109 1013 -844 
L 513 -844 
Q 928 -128 1133 580 
Q 1338 1288 1338 2009 
Q 1338 2731 1133 3434 
Q 928 4138 513 4856 
z
" transform="scale(0.015625)"/>
       <path id="DejaVuSans-5d" d="M 1947 4863 
L 1947 -844 
L 622 -844 
L 622 -397 
L 1369 -397 
L 1369 4416 
L 622 4416 
L 622 4863 
L 1947 4863 
z
" transform="scale(0.015625)"/>
      </defs>
      <use xlink:href="#DejaVuSans-46"/>
      <use xlink:href="#DejaVuSans-6f" x="53.894531"/>
      <use xlink:href="#DejaVuSans-72" x="115.076172"/>
      <use xlink:href="#DejaVuSans-63" x="153.939453"/>
      <use xlink:href="#DejaVuSans-65" x="208.919922"/>
      <use xlink:href="#DejaVuSans-20" x="270.443359"/>
      <use xlink:href="#DejaVuSans-45" x="302.230469"/>
      <use xlink:href="#DejaVuSans-72" x="365.414062"/>
      <use xlink:href="#DejaVuSans-72" x="404.777344"/>
      <use xlink:href="#DejaVuSans-6f" x="443.640625"/>
      <use xlink:href="#DejaVuSans-72" x="504.822266"/>
      <use xlink:href="#DejaVuSans-73" x="545.935547"/>
      <use xlink:href="#DejaVuSans-20" x="598.035156"/>
      <use xlink:href="#DejaVuSans-5b" x="629.822266"/>
      <use xlink:href="#DejaVuSans-6b" x="668.835938"/>
      <use xlink:href="#DejaVuSans-4a" x="726.746094"/>
      <use xlink:href="#DejaVuSans-2f" x="756.238281"/>
      <use xlink:href="#DejaVuSans-28" x="789.929688"/>
      <use xlink:href="#DejaVuSans-6d" x="828.943359"/>
      <use xlink:href="#DejaVuSans-6f" x="926.355469"/>
      <use xlink:href="#DejaVuSans-6c" x="987.537109"/>
      <use xlink:href="#DejaVuSans-2a" x="1015.320312"/>
      <use xlink:href="#DejaVuSans-41" x="1065.320312"/>
      <use xlink:href="#DejaVuSans-29" x="1133.728516"/>
      <use xlink:href="#DejaVuSans-5d" x="1172.742188"/>
     </g>
    </g>
   </g>
   <g id="line2d_13">
    <path d="M 69.68 499.48 
L 696.24 23.76 
" clip-path="url(#pf44832e0a8)" style="fill: none; stroke-dasharray: 5.55,2.4; stroke-dashoffset: 0; stroke: #ff0000; stroke-width: 1.5"/>
   </g>
   <g id="patch_3">
    <path d="M 69.68 499.48 
L 69.68 23.76 
" style="fill: none; stroke: #000000; stroke-width: 0.8; stroke-linejoin: miter; stroke-linecap: square"/>
   </g>
   <g id="patch_4">
    <path d="M 696.24 499.48 
L 696.24 23.76 
" style="fill: none; stroke: #000000; stroke-width: 0.8; stroke-linejoin: miter; stroke-linecap: square"/>
   </g>
   <g id="patch_5">
    <path d="M 69.68 499.48 
L 696.24 499.48 
" style="fill: none; stroke: #000000; stroke-width: 0.8; stroke-linejoin: miter; stroke-linecap: square"/>
   </g>
   <g id="patch_6">
    <path d="M 69.68 23.76 
L 696.24 23.76 
" style="fill: none; stroke: #000000; stroke-width: 0.8; stroke-linejoin: miter; stroke-linecap: square"/>
   </g>
   <g id="text_15">
    <!-- Correlation in: 0.146 -->
    <g transform="translate(132.336 71.332) scale(0.22 -0.22)">
     <defs>
      <path id="DejaVuSans-43" d="M 4122 4306 
L 4122 3641 
Q 3803 3938 3442 4084 
Q 3081 4231 2675 4231 
Q 1875 4231 1450 3742 
Q 1025 3253 1025 2328 
Q 1025 1406 1450 917 
Q 1875 428 2675 428 
Q 3081 428 3442 575 
Q 3803 722 4122 1019 
L 4122 359 
Q 3791 134 3420 21 
Q 3050 -91 2638 -91 
Q 1578 -91 968 557 
Q 359 1206 359 2328 
Q 359 3453 968 4101 
Q 1578 4750 2638 4750 
Q 3056 4750 3426 4639 
Q 3797 4528 4122 4306 
z
" transform="scale(0.015625)"/>
      <path id="DejaVuSans-3a" d="M 750 794 
L 1409 794 
L 1409 0 
L 750 0 
L 750 794 
z
M 750 3309 
L 1409 3309 
L 1409 2516 
L 750 2516 
L 750 3309 
z
" transform="scale(0.015625)"/>
      <path id="DejaVuSans-30" d="M 2034 4250 
Q 1547 4250 1301 3770 
Q 1056 3291 1056 2328 
Q 1056 1369 1301 889 
Q 1547 409 2034 409 
Q 2525 409 2770 889 
Q 3016 1369 3016 2328 
Q 3016 3291 2770 3770 
Q 2525 4250 2034 4250 
z
M 2034 4750 
Q 2819 4750 3233 4129 
Q 3647 3509 3647 2328 
Q 3647 1150 3233 529 
Q 2819 -91 2034 -91 
Q 1250 -91 836 529 
Q 422 1150 422 2328 
Q 422 3509 836 4129 
Q 1250 4750 2034 4750 
z
" transform="scale(0.015625)"/>
      <path id="DejaVuSans-2e" d="M 684 794 
L 1344 794 
L 1344 0 
L 684 0 
L 684 794 
z
" transform="scale(0.015625)"/>
     </defs>
     <use xlink:href="#DejaVuSans-43"/>
     <use xlink:href="#DejaVuSans-6f" x="69.824219"/>
     <use xlink:href="#DejaVuSans-72" x="131.005859"/>
     <use xlink:href="#DejaVuSans-72" x="170.369141"/>
     <use xlink:href="#DejaVuSans-65" x="209.232422"/>
     <use xlink:href="#DejaVuSans-6c" x="270.755859"/>
     <use xlink:href="#DejaVuSans-61" x="298.539062"/>
     <use xlink:href="#DejaVuSans-74" x="359.818359"/>
     <use xlink:href="#DejaVuSans-69" x="399.027344"/>
     <use xlink:href="#DejaVuSans-6f" x="426.810547"/>
     <use xlink:href="#DejaVuSans-6e" x="487.992188"/>
     <use xlink:href="#DejaVuSans-20" x="551.371094"/>
     <use xlink:href="#DejaVuSans-69" x="583.158203"/>
     <use xlink:href="#DejaVuSans-6e" x="610.941406"/>
     <use xlink:href="#DejaVuSans-3a" x="674.320312"/>
     <use xlink:href="#DejaVuSans-20" x="708.011719"/>
     <use xlink:href="#DejaVuSans-30" x="739.798828"/>
     <use xlink:href="#DejaVuSans-2e" x="803.421875"/>
     <use xlink:href="#DejaVuSans-31" x="835.208984"/>
     <use xlink:href="#DejaVuSans-34" x="898.832031"/>
     <use xlink:href="#DejaVuSans-36" x="962.455078"/>
    </g>
   </g>
  </g>
 </g>
 <defs>
  <clipPath id="pf44832e0a8">
   <rect x="69.68" y="23.76" width="626.56" height="475.72"/>
  </clipPath>
 </defs>
</svg>
