<?xml version="1.0" encoding="utf-8" standalone="no"?>
<!DOCTYPE svg PUBLIC "-//W3C//DTD SVG 1.1//EN"
  "http://www.w3.org/Graphics/SVG/1.1/DTD/svg11.dtd">
<svg xmlns:xlink="http://www.w3.org/1999/xlink" width="720pt" height="576pt" viewBox="0 0 720 576" xmlns="http://www.w3.org/2000/svg" version="1.1">
 <metadata>
  <rdf:RDF xmlns:dc="http://purl.org/dc/elements/1.1/" xmlns:cc="http://creativecommons.org/ns#" xmlns:rdf="http://www.w3.org/1999/02/22-rdf-syntax-ns#">
   <cc:Work>
    <dc:type rdf:resource="http://purl.org/dc/dcmitype/StillImage"/>
    <dc:date>2024-12-08T17:03:03.018648</dc:date>
    <dc:format>image/svg+xml</dc:format>
    <dc:creator>
     <cc:Agent>
      <dc:title>Matplotlib v3.8.4, https://matplotlib.org/</dc:title>
     </cc:Agent>
    </dc:creator>
   </cc:Work>
  </rdf:RDF>
 </metadata>
 <defs>
  <style type="text/css">*{stroke-linejoin: round; stroke-linecap: butt}</style>
 </defs>
 <g id="figure_1">
  <g id="patch_1">
   <path d="M 0 576 
L 720 576 
L 720 0 
L 0 0 
z
" style="fill: #ffffff"/>
  </g>
  <g id="axes_1">
   <g id="patch_2">
    <path d="M 69.68 499.48 
L 696.24 499.48 
L 696.24 23.76 
L 69.68 23.76 
z
" style="fill: #ffffff"/>
   </g>
   <g id="QuadContourSet_1">
    <path d="M 81.086397 399.509021 
L 81.522779 399.824396 
L 81.919951 399.474587 
L 81.959161 399.450784 
L 82.395544 398.665816 
L 82.831926 397.333581 
L 83.268308 395.434251 
L 83.557023 393.855552 
L 83.70469 393.259834 
L 84.141073 391.314403 
L 84.577455 389.113954 
L 84.75908 388.236516 
L 85.013837 387.300848 
L 85.450219 385.899178 
L 85.886601 384.772701 
L 86.322984 384.024594 
L 86.759366 383.531221 
L 87.195748 382.896998 
L 87.296206 382.617481 
L 87.63213 381.853471 
L 88.068512 380.00279 
L 88.493908 376.998445 
L 88.504895 376.925816 
L 88.941277 373.217394 
L 89.118047 371.379409 
L 89.377659 368.596855 
L 89.624997 365.760374 
L 89.814041 363.429796 
L 90.091022 360.141338 
L 90.250424 358.096489 
L 90.560759 354.522303 
L 90.686806 352.971221 
L 91.064815 348.903267 
L 91.123188 348.224539 
L 91.55957 343.789973 
L 91.615414 343.284232 
L 91.995952 339.31242 
L 92.154521 337.665196 
L 92.432335 334.249218 
L 92.606157 332.04616 
L 92.868717 328.291433 
L 92.997879 326.427125 
L 93.305099 321.933869 
L 93.385376 320.808089 
L 93.741481 316.042728 
L 93.811325 315.189054 
L 94.177864 310.682893 
L 94.277893 309.570018 
L 94.614246 305.201689 
L 94.714748 303.950982 
L 95.0181 298.331947 
L 95.050628 296.823372 
L 95.133215 292.712911 
L 95.083674 287.093876 
L 95.050628 285.7586 
L 94.928079 281.47484 
L 94.834643 275.855804 
L 94.865235 270.236769 
L 94.96735 264.617733 
L 95.050628 261.010979 
L 95.099171 258.998698 
L 95.248654 253.379662 
L 95.379931 247.760626 
L 95.48701 242.643132 
L 95.499228 242.141591 
L 95.643448 236.522555 
L 95.765309 230.90352 
L 95.866847 225.284484 
L 95.923392 221.671399 
L 95.964564 219.665449 
L 96.060767 214.046413 
L 96.135253 208.427377 
L 96.193777 202.808342 
L 96.238651 197.189306 
L 96.269362 191.570271 
L 96.283533 185.951235 
L 96.276403 180.332199 
L 96.231712 174.713164 
L 96.082642 169.094128 
L 95.923392 166.616445 
L 95.766028 163.475093 
L 95.48701 159.892218 
L 95.37385 157.856057 
L 95.050628 152.614459 
L 95.032446 152.237021 
L 94.797273 146.617986 
L 94.614246 142.29343 
L 94.560808 140.99895 
L 94.320181 135.379915 
L 94.177864 131.332758 
L 94.123593 129.760879 
L 94.092701 124.141844 
L 94.177864 119.646179 
L 94.197636 118.522808 
L 94.323166 112.903772 
L 94.374311 107.284737 
L 94.297246 101.665701 
L 94.177864 98.517849 
L 94.081266 96.046666 
L 93.801549 90.42763 
L 93.741481 89.139612 
L 93.495936 84.808594 
L 93.305099 81.561769 
L 93.010144 79.189559 
L 92.868717 78.268518 
L 92.432335 77.470343 
L 91.995952 77.516503 
L 91.55957 77.78023 
L 91.123188 78.047728 
L 90.686806 78.314299 
L 90.250424 78.642025 
L 89.814041 79.044058 
L 89.618261 79.189559 
L 89.377659 79.284567 
L 89.0415 79.189559 
L 88.941277 79.156029 
L 88.504895 78.280746 
L 88.068512 76.769508 
L 87.63213 74.973613 
L 87.237482 73.570523 
L 87.195748 73.410181 
L 86.759366 72.490837 
L 86.322984 72.617183 
L 85.886601 73.570523 
L 85.886601 73.570523 
L 85.450219 74.846138 
L 85.013837 76.680748 
L 84.621997 79.189559 
L 84.577455 79.450455 
L 84.141073 82.799862 
L 83.93442 84.808594 
L 83.70469 86.927965 
L 83.364608 90.42763 
L 83.268308 91.458774 
L 82.856837 96.046666 
L 82.831926 96.358846 
L 82.414354 101.665701 
L 82.395544 101.924597 
L 82.00892 107.284737 
L 81.959161 107.908513 
L 81.573852 112.903772 
L 81.522779 113.417785 
L 81.086397 118.313229 
L 81.071104 118.522808 
L 80.650015 122.941882 
L 80.558813 124.141844 
L 80.213633 128.085808 
L 80.090952 129.760879 
L 79.77725 134.01548 
L 79.685003 135.379915 
L 79.343911 140.99895 
L 79.340868 141.056104 
L 79.035342 146.617986 
L 78.904486 149.49408 
L 78.760597 152.237021 
L 78.499295 157.856057 
L 78.468104 158.512806 
L 78.172991 163.475093 
L 78.031721 165.710022 
L 77.751952 169.094128 
L 77.595339 170.849142 
L 77.176893 174.713164 
L 77.158957 174.876879 
L 76.722575 178.560766 
L 76.558581 180.332199 
L 76.286193 184.040297 
L 76.184326 185.951235 
L 75.954461 191.570271 
L 75.84981 195.092562 
L 75.793549 197.189306 
L 75.653087 202.808342 
L 75.523218 208.427377 
L 75.413428 212.919334 
L 75.382531 214.046413 
L 75.203653 219.665449 
L 75.009764 225.284484 
L 74.977046 226.166148 
L 74.77549 230.90352 
L 74.544741 236.522555 
L 74.540664 236.621081 
L 74.294445 242.141591 
L 74.104282 246.917421 
L 74.068943 247.760626 
L 73.840928 253.379662 
L 73.667899 258.442257 
L 73.647755 258.998698 
L 73.460901 264.617733 
L 73.319274 270.236769 
L 73.231517 275.060025 
L 73.214985 275.855804 
L 73.135398 281.47484 
L 73.098945 287.093876 
L 73.106378 292.712911 
L 73.164101 298.331947 
L 73.231517 301.630616 
L 73.274098 303.950982 
L 73.429048 309.570018 
L 73.627178 315.189054 
L 73.667899 316.482335 
L 73.759847 320.808089 
L 73.823433 326.427125 
L 73.843199 332.04616 
L 73.851383 337.665196 
L 73.881958 343.284232 
L 73.969523 348.903267 
L 74.104282 353.21816 
L 74.145855 354.522303 
L 74.422949 360.141338 
L 74.540664 361.973604 
L 74.803168 365.760374 
L 74.977046 368.07688 
L 75.210215 371.379409 
L 75.413428 374.228909 
L 75.590287 376.998445 
L 75.84981 380.901096 
L 75.966564 382.617481 
L 76.286193 386.788879 
L 76.445343 388.236516 
L 76.722575 390.48087 
L 77.158957 392.061184 
L 77.595339 392.286115 
L 78.031721 391.911519 
L 78.468104 391.589694 
L 78.904486 391.917367 
L 79.340868 393.161954 
L 79.504805 393.855552 
L 79.77725 395.343243 
L 80.213633 397.421766 
L 80.650015 398.772125 
L 81.070419 399.474587 
z
M 79.933281 371.379409 
L 79.77725 370.921385 
L 79.340868 369.893792 
L 78.904486 368.9899 
L 78.468104 367.911668 
L 78.031721 366.132261 
L 77.971928 365.760374 
L 77.595339 363.033797 
L 77.338099 360.141338 
L 77.158957 357.611357 
L 76.967575 354.522303 
L 76.722575 349.656781 
L 76.682178 348.903267 
L 76.407382 343.284232 
L 76.286193 340.478669 
L 76.153101 337.665196 
L 75.945696 332.04616 
L 75.84981 328.115726 
L 75.812006 326.427125 
L 75.73284 320.808089 
L 75.685175 315.189054 
L 75.64872 309.570018 
L 75.612853 303.950982 
L 75.576984 298.331947 
L 75.550745 292.712911 
L 75.550865 287.093876 
L 75.593809 281.47484 
L 75.690055 275.855804 
L 75.845221 270.236769 
L 75.84981 270.110398 
L 76.02977 264.617733 
L 76.27493 258.998698 
L 76.286193 258.770856 
L 76.526661 253.379662 
L 76.722575 249.569467 
L 76.805026 247.760626 
L 77.075976 242.141591 
L 77.158957 240.403002 
L 77.326412 236.522555 
L 77.578848 230.90352 
L 77.595339 230.518111 
L 77.807737 225.284484 
L 78.031721 220.450906 
L 78.06785 219.665449 
L 78.350595 214.046413 
L 78.468104 212.027427 
L 78.683745 208.427377 
L 78.904486 205.156429 
L 79.066556 202.808342 
L 79.340868 199.051857 
L 79.478033 197.189306 
L 79.77725 193.145968 
L 79.895191 191.570271 
L 80.213633 187.1819 
L 80.306443 185.951235 
L 80.650015 181.136986 
L 80.712343 180.332199 
L 81.086397 175.183521 
L 81.12541 174.713164 
L 81.522779 169.691007 
L 81.579549 169.094128 
L 81.959161 165.050126 
L 82.143888 163.475093 
L 82.395544 161.34082 
L 82.831926 158.340231 
L 82.911177 157.856057 
L 83.268308 155.617698 
L 83.70469 153.162372 
L 83.88187 152.237021 
L 84.141073 150.777163 
L 84.577455 148.618715 
L 85.013837 146.898006 
L 85.096913 146.617986 
L 85.450219 145.282279 
L 85.886601 143.920916 
L 86.322984 142.762094 
L 86.759366 141.76068 
L 87.195748 140.99895 
L 87.195748 140.99895 
L 87.63213 140.729269 
L 87.769272 140.99895 
L 88.068512 141.598972 
L 88.504895 144.32912 
L 88.70672 146.617986 
L 88.941277 149.638389 
L 89.101106 152.237021 
L 89.377659 156.900957 
L 89.438815 157.856057 
L 89.814041 162.930397 
L 89.86906 163.475093 
L 90.250424 166.919177 
L 90.52777 169.094128 
L 90.686806 170.582528 
L 91.06699 174.713164 
L 91.123188 175.605774 
L 91.408082 180.332199 
L 91.55957 183.914224 
L 91.649161 185.951235 
L 91.832241 191.570271 
L 91.968973 197.189306 
L 91.995952 198.469625 
L 92.075275 202.808342 
L 92.164192 208.427377 
L 92.226725 214.046413 
L 92.247346 219.665449 
L 92.2185 225.284484 
L 92.142411 230.90352 
L 92.028648 236.522555 
L 91.995952 237.856341 
L 91.91431 242.141591 
L 91.805512 247.760626 
L 91.703952 253.379662 
L 91.610931 258.998698 
L 91.55957 262.27921 
L 91.530924 264.617733 
L 91.463753 270.236769 
L 91.393767 275.855804 
L 91.314527 281.47484 
L 91.216163 287.093876 
L 91.123188 291.125456 
L 91.091703 292.712911 
L 90.943168 298.331947 
L 90.737152 303.950982 
L 90.686806 305.065491 
L 90.494482 309.570018 
L 90.250424 314.04519 
L 90.190319 315.189054 
L 89.843174 320.808089 
L 89.814041 321.242467 
L 89.475258 326.427125 
L 89.377659 327.828213 
L 89.091347 332.04616 
L 88.941277 334.207832 
L 88.699089 337.665196 
L 88.504895 340.422177 
L 88.287168 343.284232 
L 88.068512 346.118933 
L 87.816096 348.903267 
L 87.63213 350.869243 
L 87.197052 354.522303 
L 87.195748 354.532883 
L 86.759366 357.746518 
L 86.345495 360.141338 
L 86.322984 360.274276 
L 85.886601 362.854454 
L 85.450219 365.121077 
L 85.323756 365.760374 
L 85.013837 367.474366 
L 84.577455 369.661715 
L 84.178938 371.379409 
L 84.141073 371.568724 
L 83.70469 373.507144 
L 83.268308 375.02106 
L 82.831926 376.119889 
L 82.395544 376.787487 
L 81.959161 376.974009 
L 81.522779 376.605106 
L 81.086397 375.633324 
L 80.650015 374.140441 
L 80.213633 372.405293 
z
" clip-path="url(#pa0c87afbde)" style="fill: #eff6fc"/>
    <path d="M 80.213633 372.405293 
L 80.650015 374.140441 
L 81.086397 375.633324 
L 81.522779 376.605106 
L 81.959161 376.974009 
L 82.395544 376.787487 
L 82.831926 376.119889 
L 83.268308 375.02106 
L 83.70469 373.507144 
L 84.141073 371.568724 
L 84.178938 371.379409 
L 84.577455 369.661715 
L 85.013837 367.474366 
L 85.323756 365.760374 
L 85.450219 365.121077 
L 85.886601 362.854454 
L 86.322984 360.274276 
L 86.345495 360.141338 
L 86.759366 357.746518 
L 87.195748 354.532883 
L 87.197052 354.522303 
L 87.63213 350.869243 
L 87.816096 348.903267 
L 88.068512 346.118933 
L 88.287168 343.284232 
L 88.504895 340.422177 
L 88.699089 337.665196 
L 88.941277 334.207832 
L 89.091347 332.04616 
L 89.377659 327.828213 
L 89.475258 326.427125 
L 89.814041 321.242467 
L 89.843174 320.808089 
L 90.190319 315.189054 
L 90.250424 314.04519 
L 90.494482 309.570018 
L 90.686806 305.065491 
L 90.737152 303.950982 
L 90.943168 298.331947 
L 91.091703 292.712911 
L 91.123188 291.125456 
L 91.216163 287.093876 
L 91.314527 281.47484 
L 91.393767 275.855804 
L 91.463753 270.236769 
L 91.530924 264.617733 
L 91.55957 262.27921 
L 91.610931 258.998698 
L 91.703952 253.379662 
L 91.805512 247.760626 
L 91.91431 242.141591 
L 91.995952 237.856341 
L 92.028648 236.522555 
L 92.142411 230.90352 
L 92.2185 225.284484 
L 92.247346 219.665449 
L 92.226725 214.046413 
L 92.164192 208.427377 
L 92.075275 202.808342 
L 91.995952 198.469625 
L 91.968973 197.189306 
L 91.832241 191.570271 
L 91.649161 185.951235 
L 91.55957 183.914224 
L 91.408082 180.332199 
L 91.123188 175.605774 
L 91.06699 174.713164 
L 90.686806 170.582528 
L 90.52777 169.094128 
L 90.250424 166.919177 
L 89.86906 163.475093 
L 89.814041 162.930397 
L 89.438815 157.856057 
L 89.377659 156.900957 
L 89.101106 152.237021 
L 88.941277 149.638389 
L 88.70672 146.617986 
L 88.504895 144.32912 
L 88.068512 141.598972 
L 87.769272 140.99895 
L 87.63213 140.729269 
L 87.195748 140.99895 
L 87.195748 140.99895 
L 86.759366 141.76068 
L 86.322984 142.762094 
L 85.886601 143.920916 
L 85.450219 145.282279 
L 85.096913 146.617986 
L 85.013837 146.898006 
L 84.577455 148.618715 
L 84.141073 150.777163 
L 83.88187 152.237021 
L 83.70469 153.162372 
L 83.268308 155.617698 
L 82.911177 157.856057 
L 82.831926 158.340231 
L 82.395544 161.34082 
L 82.143888 163.475093 
L 81.959161 165.050126 
L 81.579549 169.094128 
L 81.522779 169.691007 
L 81.12541 174.713164 
L 81.086397 175.183521 
L 80.712343 180.332199 
L 80.650015 181.136986 
L 80.306443 185.951235 
L 80.213633 187.1819 
L 79.895191 191.570271 
L 79.77725 193.145968 
L 79.478033 197.189306 
L 79.340868 199.051857 
L 79.066556 202.808342 
L 78.904486 205.156429 
L 78.683745 208.427377 
L 78.468104 212.027427 
L 78.350595 214.046413 
L 78.06785 219.665449 
L 78.031721 220.450906 
L 77.807737 225.284484 
L 77.595339 230.518111 
L 77.578848 230.90352 
L 77.326412 236.522555 
L 77.158957 240.403002 
L 77.075976 242.141591 
L 76.805026 247.760626 
L 76.722575 249.569467 
L 76.526661 253.379662 
L 76.286193 258.770856 
L 76.27493 258.998698 
L 76.02977 264.617733 
L 75.84981 270.110398 
L 75.845221 270.236769 
L 75.690055 275.855804 
L 75.593809 281.47484 
L 75.550865 287.093876 
L 75.550745 292.712911 
L 75.576984 298.331947 
L 75.612853 303.950982 
L 75.64872 309.570018 
L 75.685175 315.189054 
L 75.73284 320.808089 
L 75.812006 326.427125 
L 75.84981 328.115726 
L 75.945696 332.04616 
L 76.153101 337.665196 
L 76.286193 340.478669 
L 76.407382 343.284232 
L 76.682178 348.903267 
L 76.722575 349.656781 
L 76.967575 354.522303 
L 77.158957 357.611357 
L 77.338099 360.141338 
L 77.595339 363.033797 
L 77.971928 365.760374 
L 78.031721 366.132261 
L 78.468104 367.911668 
L 78.904486 368.9899 
L 79.340868 369.893792 
L 79.77725 370.921385 
L 79.933281 371.379409 
z
M 80.58318 360.141338 
L 80.213633 359.058072 
L 79.77725 357.756406 
L 79.340868 356.238025 
L 78.979561 354.522303 
L 78.904486 354.132663 
L 78.468104 350.815527 
L 78.296175 348.903267 
L 78.031721 344.921319 
L 77.940534 343.284232 
L 77.704325 337.665196 
L 77.595339 334.190656 
L 77.519533 332.04616 
L 77.344533 326.427125 
L 77.186179 320.808089 
L 77.158957 319.751799 
L 77.030773 315.189054 
L 76.914837 309.570018 
L 76.84543 303.950982 
L 76.81866 298.331947 
L 76.828788 292.712911 
L 76.872042 287.093876 
L 76.94825 281.47484 
L 77.061009 275.855804 
L 77.158957 272.256123 
L 77.207121 270.236769 
L 77.375142 264.617733 
L 77.590593 258.998698 
L 77.595339 258.890991 
L 77.816183 253.379662 
L 78.031721 248.816192 
L 78.079836 247.760626 
L 78.353198 242.141591 
L 78.468104 239.916946 
L 78.647798 236.522555 
L 78.904486 231.918672 
L 78.965709 230.90352 
L 79.311793 225.284484 
L 79.340868 224.82229 
L 79.699397 219.665449 
L 79.77725 218.569183 
L 80.133568 214.046413 
L 80.213633 213.022192 
L 80.612272 208.427377 
L 80.650015 207.979119 
L 81.086397 203.356003 
L 81.146281 202.808342 
L 81.522779 199.188521 
L 81.773741 197.189306 
L 81.959161 195.597118 
L 82.395544 192.423606 
L 82.525876 191.570271 
L 82.831926 189.351443 
L 83.268308 186.377657 
L 83.328253 185.951235 
L 83.70469 183.022585 
L 84.051241 180.332199 
L 84.141073 179.598129 
L 84.577455 176.015909 
L 84.749925 174.713164 
L 85.013837 172.69353 
L 85.450219 169.954257 
L 85.646479 169.094128 
L 85.886601 168.022885 
L 86.322984 167.111973 
L 86.759366 167.385563 
L 87.195748 169.070085 
L 87.199236 169.094128 
L 87.63213 172.473325 
L 87.832201 174.713164 
L 88.068512 177.365259 
L 88.304852 180.332199 
L 88.504895 182.642879 
L 88.776037 185.951235 
L 88.941277 188.097263 
L 89.167553 191.570271 
L 89.377659 195.989812 
L 89.42633 197.189306 
L 89.610627 202.808342 
L 89.772445 208.427377 
L 89.814041 209.788332 
L 89.953097 214.046413 
L 90.128899 219.665449 
L 90.250424 224.627497 
L 90.268074 225.284484 
L 90.36455 230.90352 
L 90.400448 236.522555 
L 90.396716 242.141591 
L 90.374244 247.760626 
L 90.347328 253.379662 
L 90.319977 258.998698 
L 90.286765 264.617733 
L 90.250424 268.864424 
L 90.240135 270.236769 
L 90.178822 275.855804 
L 90.095911 281.47484 
L 89.988258 287.093876 
L 89.848483 292.712911 
L 89.814041 293.815656 
L 89.68326 298.331947 
L 89.470961 303.950982 
L 89.377659 305.923471 
L 89.216502 309.570018 
L 88.941277 314.597639 
L 88.910174 315.189054 
L 88.568046 320.808089 
L 88.504895 321.739735 
L 88.180137 326.427125 
L 88.068512 327.92978 
L 87.737219 332.04616 
L 87.63213 333.312613 
L 87.221971 337.665196 
L 87.195748 337.94164 
L 86.759366 342.0514 
L 86.611915 343.284232 
L 86.322984 345.693741 
L 85.886601 348.903267 
L 85.886601 348.903267 
L 85.450219 352.007401 
L 85.044025 354.522303 
L 85.013837 354.713977 
L 84.577455 357.288095 
L 84.141073 359.410973 
L 83.957749 360.141338 
L 83.70469 361.242632 
L 83.268308 362.67464 
L 82.831926 363.595266 
L 82.395544 363.977621 
L 81.959161 363.783822 
L 81.522779 363.020861 
L 81.086397 361.806564 
L 80.650015 360.362316 
z
" clip-path="url(#pa0c87afbde)" style="fill: #dce9f6"/>
    <path d="M 80.650015 360.362316 
L 81.086397 361.806564 
L 81.522779 363.020861 
L 81.959161 363.783822 
L 82.395544 363.977621 
L 82.831926 363.595266 
L 83.268308 362.67464 
L 83.70469 361.242632 
L 83.957749 360.141338 
L 84.141073 359.410973 
L 84.577455 357.288095 
L 85.013837 354.713977 
L 85.044025 354.522303 
L 85.450219 352.007401 
L 85.886601 348.903267 
L 85.886601 348.903267 
L 86.322984 345.693741 
L 86.611915 343.284232 
L 86.759366 342.0514 
L 87.195748 337.94164 
L 87.221971 337.665196 
L 87.63213 333.312613 
L 87.737219 332.04616 
L 88.068512 327.92978 
L 88.180137 326.427125 
L 88.504895 321.739735 
L 88.568046 320.808089 
L 88.910174 315.189054 
L 88.941277 314.597639 
L 89.216502 309.570018 
L 89.377659 305.923471 
L 89.470961 303.950982 
L 89.68326 298.331947 
L 89.814041 293.815656 
L 89.848483 292.712911 
L 89.988258 287.093876 
L 90.095911 281.47484 
L 90.178822 275.855804 
L 90.240135 270.236769 
L 90.250424 268.864424 
L 90.286765 264.617733 
L 90.319977 258.998698 
L 90.347328 253.379662 
L 90.374244 247.760626 
L 90.396716 242.141591 
L 90.400448 236.522555 
L 90.36455 230.90352 
L 90.268074 225.284484 
L 90.250424 224.627497 
L 90.128899 219.665449 
L 89.953097 214.046413 
L 89.814041 209.788332 
L 89.772445 208.427377 
L 89.610627 202.808342 
L 89.42633 197.189306 
L 89.377659 195.989812 
L 89.167553 191.570271 
L 88.941277 188.097263 
L 88.776037 185.951235 
L 88.504895 182.642879 
L 88.304852 180.332199 
L 88.068512 177.365259 
L 87.832201 174.713164 
L 87.63213 172.473325 
L 87.199236 169.094128 
L 87.195748 169.070085 
L 86.759366 167.385563 
L 86.322984 167.111973 
L 85.886601 168.022885 
L 85.646479 169.094128 
L 85.450219 169.954257 
L 85.013837 172.69353 
L 84.749925 174.713164 
L 84.577455 176.015909 
L 84.141073 179.598129 
L 84.051241 180.332199 
L 83.70469 183.022585 
L 83.328253 185.951235 
L 83.268308 186.377657 
L 82.831926 189.351443 
L 82.525876 191.570271 
L 82.395544 192.423606 
L 81.959161 195.597118 
L 81.773741 197.189306 
L 81.522779 199.188521 
L 81.146281 202.808342 
L 81.086397 203.356003 
L 80.650015 207.979119 
L 80.612272 208.427377 
L 80.213633 213.022192 
L 80.133568 214.046413 
L 79.77725 218.569183 
L 79.699397 219.665449 
L 79.340868 224.82229 
L 79.311793 225.284484 
L 78.965709 230.90352 
L 78.904486 231.918672 
L 78.647798 236.522555 
L 78.468104 239.916946 
L 78.353198 242.141591 
L 78.079836 247.760626 
L 78.031721 248.816192 
L 77.816183 253.379662 
L 77.595339 258.890991 
L 77.590593 258.998698 
L 77.375142 264.617733 
L 77.207121 270.236769 
L 77.158957 272.256123 
L 77.061009 275.855804 
L 76.94825 281.47484 
L 76.872042 287.093876 
L 76.828788 292.712911 
L 76.81866 298.331947 
L 76.84543 303.950982 
L 76.914837 309.570018 
L 77.030773 315.189054 
L 77.158957 319.751799 
L 77.186179 320.808089 
L 77.344533 326.427125 
L 77.519533 332.04616 
L 77.595339 334.190656 
L 77.704325 337.665196 
L 77.940534 343.284232 
L 78.031721 344.921319 
L 78.296175 348.903267 
L 78.468104 350.815527 
L 78.904486 354.132663 
L 78.979561 354.522303 
L 79.340868 356.238025 
L 79.77725 357.756406 
L 80.213633 359.058072 
L 80.58318 360.141338 
z
M 80.213633 348.903267 
L 80.213633 348.903267 
L 79.77725 347.166184 
L 79.340868 344.680063 
L 79.171414 343.284232 
L 78.904486 340.492413 
L 78.713051 337.665196 
L 78.468104 332.246543 
L 78.460116 332.04616 
L 78.293215 326.427125 
L 78.172856 320.808089 
L 78.072918 315.189054 
L 78.031721 312.693328 
L 77.968799 309.570018 
L 77.868682 303.950982 
L 77.796821 298.331947 
L 77.767602 292.712911 
L 77.784864 287.093876 
L 77.844732 281.47484 
L 77.942852 275.855804 
L 78.031721 272.174915 
L 78.07769 270.236769 
L 78.247103 264.617733 
L 78.454756 258.998698 
L 78.468104 258.688851 
L 78.704913 253.379662 
L 78.904486 249.418023 
L 78.995495 247.760626 
L 79.327699 242.141591 
L 79.340868 241.926747 
L 79.714383 236.522555 
L 79.77725 235.629117 
L 80.155087 230.90352 
L 80.213633 230.171207 
L 80.649152 225.284484 
L 80.650015 225.274718 
L 81.086397 220.686897 
L 81.190375 219.665449 
L 81.522779 216.435087 
L 81.796207 214.046413 
L 81.959161 212.626778 
L 82.395544 209.254571 
L 82.514713 208.427377 
L 82.831926 206.147612 
L 83.268308 203.312248 
L 83.349054 202.808342 
L 83.70469 200.391766 
L 84.141073 197.560155 
L 84.202837 197.189306 
L 84.577455 194.65775 
L 85.013837 192.146297 
L 85.159056 191.570271 
L 85.450219 190.235765 
L 85.886601 189.42914 
L 86.322984 190.050777 
L 86.650194 191.570271 
L 86.759366 192.06218 
L 87.195748 194.96208 
L 87.463044 197.189306 
L 87.63213 198.590748 
L 88.02672 202.808342 
L 88.068512 203.304247 
L 88.394787 208.427377 
L 88.504895 210.38722 
L 88.673384 214.046413 
L 88.918458 219.665449 
L 88.941277 220.207223 
L 89.131403 225.284484 
L 89.29455 230.90352 
L 89.377659 235.47564 
L 89.395818 236.522555 
L 89.443929 242.141591 
L 89.453482 247.760626 
L 89.441784 253.379662 
L 89.419838 258.998698 
L 89.389817 264.617733 
L 89.377659 266.193171 
L 89.349803 270.236769 
L 89.290877 275.855804 
L 89.205405 281.47484 
L 89.089877 287.093876 
L 88.941277 292.685378 
L 88.94059 292.712911 
L 88.770462 298.331947 
L 88.554192 303.950982 
L 88.504895 305.015327 
L 88.29523 309.570018 
L 88.068512 313.618404 
L 87.976116 315.189054 
L 87.63213 320.227897 
L 87.58871 320.808089 
L 87.195748 325.568835 
L 87.117267 326.427125 
L 86.759366 330.128592 
L 86.557658 332.04616 
L 86.322984 334.206522 
L 85.921269 337.665196 
L 85.886601 337.956364 
L 85.450219 341.489693 
L 85.20968 343.284232 
L 85.013837 344.708884 
L 84.577455 347.542497 
L 84.32958 348.903267 
L 84.141073 349.944347 
L 83.70469 351.868391 
L 83.268308 353.227358 
L 82.831926 354.006126 
L 82.395544 354.188558 
L 81.959161 353.797635 
L 81.522779 352.929966 
L 81.086397 351.745303 
L 80.650015 350.39246 
z
" clip-path="url(#pa0c87afbde)" style="fill: #c7dbef"/>
    <path d="M 80.650015 350.39246 
L 81.086397 351.745303 
L 81.522779 352.929966 
L 81.959161 353.797635 
L 82.395544 354.188558 
L 82.831926 354.006126 
L 83.268308 353.227358 
L 83.70469 351.868391 
L 84.141073 349.944347 
L 84.32958 348.903267 
L 84.577455 347.542497 
L 85.013837 344.708884 
L 85.20968 343.284232 
L 85.450219 341.489693 
L 85.886601 337.956364 
L 85.921269 337.665196 
L 86.322984 334.206522 
L 86.557658 332.04616 
L 86.759366 330.128592 
L 87.117267 326.427125 
L 87.195748 325.568835 
L 87.58871 320.808089 
L 87.63213 320.227897 
L 87.976116 315.189054 
L 88.068512 313.618404 
L 88.29523 309.570018 
L 88.504895 305.015327 
L 88.554192 303.950982 
L 88.770462 298.331947 
L 88.94059 292.712911 
L 88.941277 292.685378 
L 89.089877 287.093876 
L 89.205405 281.47484 
L 89.290877 275.855804 
L 89.349803 270.236769 
L 89.377659 266.193171 
L 89.389817 264.617733 
L 89.419838 258.998698 
L 89.441784 253.379662 
L 89.453482 247.760626 
L 89.443929 242.141591 
L 89.395818 236.522555 
L 89.377659 235.47564 
L 89.29455 230.90352 
L 89.131403 225.284484 
L 88.941277 220.207223 
L 88.918458 219.665449 
L 88.673384 214.046413 
L 88.504895 210.38722 
L 88.394787 208.427377 
L 88.068512 203.304247 
L 88.02672 202.808342 
L 87.63213 198.590748 
L 87.463044 197.189306 
L 87.195748 194.96208 
L 86.759366 192.06218 
L 86.650194 191.570271 
L 86.322984 190.050777 
L 85.886601 189.42914 
L 85.450219 190.235765 
L 85.159056 191.570271 
L 85.013837 192.146297 
L 84.577455 194.65775 
L 84.202837 197.189306 
L 84.141073 197.560155 
L 83.70469 200.391766 
L 83.349054 202.808342 
L 83.268308 203.312248 
L 82.831926 206.147612 
L 82.514713 208.427377 
L 82.395544 209.254571 
L 81.959161 212.626778 
L 81.796207 214.046413 
L 81.522779 216.435087 
L 81.190375 219.665449 
L 81.086397 220.686897 
L 80.650015 225.274718 
L 80.649152 225.284484 
L 80.213633 230.171207 
L 80.155087 230.90352 
L 79.77725 235.629117 
L 79.714383 236.522555 
L 79.340868 241.926747 
L 79.327699 242.141591 
L 78.995495 247.760626 
L 78.904486 249.418023 
L 78.704913 253.379662 
L 78.468104 258.688851 
L 78.454756 258.998698 
L 78.247103 264.617733 
L 78.07769 270.236769 
L 78.031721 272.174915 
L 77.942852 275.855804 
L 77.844732 281.47484 
L 77.784864 287.093876 
L 77.767602 292.712911 
L 77.796821 298.331947 
L 77.868682 303.950982 
L 77.968799 309.570018 
L 78.031721 312.693328 
L 78.072918 315.189054 
L 78.172856 320.808089 
L 78.293215 326.427125 
L 78.460116 332.04616 
L 78.468104 332.246543 
L 78.713051 337.665196 
L 78.904486 340.492413 
L 79.171414 343.284232 
L 79.340868 344.680063 
L 79.77725 347.166184 
L 80.213633 348.903267 
L 80.213633 348.903267 
z
M 81.214129 343.284232 
L 81.086397 342.898886 
L 80.650015 341.347758 
L 80.213633 339.455713 
L 79.903817 337.665196 
L 79.77725 336.805543 
L 79.340868 332.273798 
L 79.325416 332.04616 
L 79.056753 326.427125 
L 78.906228 320.808089 
L 78.904486 320.696806 
L 78.817694 315.189054 
L 78.759624 309.570018 
L 78.714409 303.950982 
L 78.675451 298.331947 
L 78.649108 292.712911 
L 78.65022 287.093876 
L 78.69174 281.47484 
L 78.779032 275.855804 
L 78.904486 270.559562 
L 78.912462 270.236769 
L 79.101587 264.617733 
L 79.340868 258.998698 
L 79.340868 258.998698 
L 79.651333 253.379662 
L 79.77725 251.358771 
L 80.025042 247.760626 
L 80.213633 245.237964 
L 80.459034 242.141591 
L 80.650015 239.869442 
L 80.935324 236.522555 
L 81.086397 234.835753 
L 81.44155 230.90352 
L 81.522779 230.045681 
L 81.959161 225.63683 
L 81.997278 225.284484 
L 82.395544 221.736536 
L 82.667916 219.665449 
L 82.831926 218.424867 
L 83.268308 215.570757 
L 83.535636 214.046413 
L 83.70469 213.030518 
L 84.141073 210.697322 
L 84.577455 208.698397 
L 84.662157 208.427377 
L 85.013837 207.17613 
L 85.450219 206.543766 
L 85.886601 207.080989 
L 86.224726 208.427377 
L 86.322984 208.844399 
L 86.759366 211.657549 
L 87.041843 214.046413 
L 87.195748 215.462995 
L 87.565496 219.665449 
L 87.63213 220.457879 
L 87.961933 225.284484 
L 88.068512 226.919342 
L 88.274186 230.90352 
L 88.504468 236.522555 
L 88.504895 236.537348 
L 88.632799 242.141591 
L 88.696525 247.760626 
L 88.715474 253.379662 
L 88.70662 258.998698 
L 88.679095 264.617733 
L 88.634021 270.236769 
L 88.56698 275.855804 
L 88.504895 279.548064 
L 88.473886 281.47484 
L 88.353941 287.093876 
L 88.198319 292.712911 
L 88.068512 296.465983 
L 88.002237 298.331947 
L 87.759778 303.950982 
L 87.63213 306.403733 
L 87.452245 309.570018 
L 87.195748 313.420566 
L 87.064408 315.189054 
L 86.759366 318.872224 
L 86.584531 320.808089 
L 86.322984 323.510341 
L 86.027107 326.427125 
L 85.886601 327.745578 
L 85.450219 331.716558 
L 85.412817 332.04616 
L 85.013837 335.374196 
L 84.709565 337.665196 
L 84.577455 338.613097 
L 84.141073 341.298035 
L 83.724184 343.284232 
L 83.70469 343.375544 
L 83.268308 344.813403 
L 82.831926 345.577937 
L 82.395544 345.683578 
L 81.959161 345.190443 
L 81.522779 344.211885 
z
" clip-path="url(#pa0c87afbde)" style="fill: #a4cce3"/>
    <path d="M 81.522779 344.211885 
L 81.959161 345.190443 
L 82.395544 345.683578 
L 82.831926 345.577937 
L 83.268308 344.813403 
L 83.70469 343.375544 
L 83.724184 343.284232 
L 84.141073 341.298035 
L 84.577455 338.613097 
L 84.709565 337.665196 
L 85.013837 335.374196 
L 85.412817 332.04616 
L 85.450219 331.716558 
L 85.886601 327.745578 
L 86.027107 326.427125 
L 86.322984 323.510341 
L 86.584531 320.808089 
L 86.759366 318.872224 
L 87.064408 315.189054 
L 87.195748 313.420566 
L 87.452245 309.570018 
L 87.63213 306.403733 
L 87.759778 303.950982 
L 88.002237 298.331947 
L 88.068512 296.465983 
L 88.198319 292.712911 
L 88.353941 287.093876 
L 88.473886 281.47484 
L 88.504895 279.548064 
L 88.56698 275.855804 
L 88.634021 270.236769 
L 88.679095 264.617733 
L 88.70662 258.998698 
L 88.715474 253.379662 
L 88.696525 247.760626 
L 88.632799 242.141591 
L 88.504895 236.537348 
L 88.504468 236.522555 
L 88.274186 230.90352 
L 88.068512 226.919342 
L 87.961933 225.284484 
L 87.63213 220.457879 
L 87.565496 219.665449 
L 87.195748 215.462995 
L 87.041843 214.046413 
L 86.759366 211.657549 
L 86.322984 208.844399 
L 86.224726 208.427377 
L 85.886601 207.080989 
L 85.450219 206.543766 
L 85.013837 207.17613 
L 84.662157 208.427377 
L 84.577455 208.698397 
L 84.141073 210.697322 
L 83.70469 213.030518 
L 83.535636 214.046413 
L 83.268308 215.570757 
L 82.831926 218.424867 
L 82.667916 219.665449 
L 82.395544 221.736536 
L 81.997278 225.284484 
L 81.959161 225.63683 
L 81.522779 230.045681 
L 81.44155 230.90352 
L 81.086397 234.835753 
L 80.935324 236.522555 
L 80.650015 239.869442 
L 80.459034 242.141591 
L 80.213633 245.237964 
L 80.025042 247.760626 
L 79.77725 251.358771 
L 79.651333 253.379662 
L 79.340868 258.998698 
L 79.340868 258.998698 
L 79.101587 264.617733 
L 78.912462 270.236769 
L 78.904486 270.559562 
L 78.779032 275.855804 
L 78.69174 281.47484 
L 78.65022 287.093876 
L 78.649108 292.712911 
L 78.675451 298.331947 
L 78.714409 303.950982 
L 78.759624 309.570018 
L 78.817694 315.189054 
L 78.904486 320.696806 
L 78.906228 320.808089 
L 79.056753 326.427125 
L 79.325416 332.04616 
L 79.340868 332.273798 
L 79.77725 336.805543 
L 79.903817 337.665196 
L 80.213633 339.455713 
L 80.650015 341.347758 
L 81.086397 342.898886 
L 81.214129 343.284232 
z
M 82.046297 337.665196 
L 81.959161 337.555424 
L 81.522779 336.439216 
L 81.086397 334.859577 
L 80.650015 332.863491 
L 80.506112 332.04616 
L 80.213633 330.068068 
L 79.854707 326.427125 
L 79.77725 325.257264 
L 79.571442 320.808089 
L 79.435474 315.189054 
L 79.376906 309.570018 
L 79.35958 303.950982 
L 79.362832 298.331947 
L 79.378949 292.712911 
L 79.412268 287.093876 
L 79.476221 281.47484 
L 79.586403 275.855804 
L 79.75455 270.236769 
L 79.77725 269.660131 
L 79.988562 264.617733 
L 80.213633 260.420296 
L 80.292937 258.998698 
L 80.650015 253.557569 
L 80.661685 253.379662 
L 81.071327 247.760626 
L 81.086397 247.570267 
L 81.509761 242.141591 
L 81.522779 241.985916 
L 81.959161 236.868972 
L 81.991565 236.522555 
L 82.395544 232.438786 
L 82.576204 230.90352 
L 82.831926 228.801607 
L 83.268308 225.898999 
L 83.384125 225.284484 
L 83.70469 223.545216 
L 84.141073 221.652204 
L 84.577455 220.255831 
L 84.978413 219.665449 
L 85.013837 219.609564 
L 85.068527 219.665449 
L 85.450219 220.110163 
L 85.886601 222.04008 
L 86.322984 225.284484 
L 86.322984 225.284484 
L 86.759366 229.417498 
L 86.899594 230.90352 
L 87.195748 234.072869 
L 87.386635 236.522555 
L 87.63213 240.089977 
L 87.73575 242.141591 
L 87.935274 247.760626 
L 88.037705 253.379662 
L 88.068512 258.387198 
L 88.07162 258.998698 
L 88.068512 260.892816 
L 88.062372 264.617733 
L 88.022212 270.236769 
L 87.954259 275.855804 
L 87.855403 281.47484 
L 87.720421 287.093876 
L 87.63213 289.945534 
L 87.539953 292.712911 
L 87.306841 298.331947 
L 87.195748 300.54847 
L 87.003491 303.950982 
L 86.759366 307.653145 
L 86.61763 309.570018 
L 86.322984 313.158177 
L 86.144694 315.189054 
L 85.886601 317.927998 
L 85.608693 320.808089 
L 85.450219 322.356418 
L 85.021662 326.427125 
L 85.013837 326.496974 
L 84.577455 330.139284 
L 84.313488 332.04616 
L 84.141073 333.209177 
L 83.70469 335.549095 
L 83.268308 337.14924 
L 83.002036 337.665196 
L 82.831926 337.988386 
L 82.395544 338.104147 
z
" clip-path="url(#pa0c87afbde)" style="fill: #7ab6d9"/>
    <path d="M 82.395544 338.104147 
L 82.831926 337.988386 
L 83.002036 337.665196 
L 83.268308 337.14924 
L 83.70469 335.549095 
L 84.141073 333.209177 
L 84.313488 332.04616 
L 84.577455 330.139284 
L 85.013837 326.496974 
L 85.021662 326.427125 
L 85.450219 322.356418 
L 85.608693 320.808089 
L 85.886601 317.927998 
L 86.144694 315.189054 
L 86.322984 313.158177 
L 86.61763 309.570018 
L 86.759366 307.653145 
L 87.003491 303.950982 
L 87.195748 300.54847 
L 87.306841 298.331947 
L 87.539953 292.712911 
L 87.63213 289.945534 
L 87.720421 287.093876 
L 87.855403 281.47484 
L 87.954259 275.855804 
L 88.022212 270.236769 
L 88.062372 264.617733 
L 88.068512 260.892816 
L 88.07162 258.998698 
L 88.068512 258.387198 
L 88.037705 253.379662 
L 87.935274 247.760626 
L 87.73575 242.141591 
L 87.63213 240.089977 
L 87.386635 236.522555 
L 87.195748 234.072869 
L 86.899594 230.90352 
L 86.759366 229.417498 
L 86.322984 225.284484 
L 86.322984 225.284484 
L 85.886601 222.04008 
L 85.450219 220.110163 
L 85.068527 219.665449 
L 85.013837 219.609564 
L 84.978413 219.665449 
L 84.577455 220.255831 
L 84.141073 221.652204 
L 83.70469 223.545216 
L 83.384125 225.284484 
L 83.268308 225.898999 
L 82.831926 228.801607 
L 82.576204 230.90352 
L 82.395544 232.438786 
L 81.991565 236.522555 
L 81.959161 236.868972 
L 81.522779 241.985916 
L 81.509761 242.141591 
L 81.086397 247.570267 
L 81.071327 247.760626 
L 80.661685 253.379662 
L 80.650015 253.557569 
L 80.292937 258.998698 
L 80.213633 260.420296 
L 79.988562 264.617733 
L 79.77725 269.660131 
L 79.75455 270.236769 
L 79.586403 275.855804 
L 79.476221 281.47484 
L 79.412268 287.093876 
L 79.378949 292.712911 
L 79.362832 298.331947 
L 79.35958 303.950982 
L 79.376906 309.570018 
L 79.435474 315.189054 
L 79.571442 320.808089 
L 79.77725 325.257264 
L 79.854707 326.427125 
L 80.213633 330.068068 
L 80.506112 332.04616 
L 80.650015 332.863491 
L 81.086397 334.859577 
L 81.522779 336.439216 
L 81.959161 337.555424 
L 82.046297 337.665196 
z
M 81.152036 326.427125 
L 81.086397 326.067026 
L 80.650015 322.905457 
L 80.446146 320.808089 
L 80.213633 317.020854 
L 80.134737 315.189054 
L 80.013962 309.570018 
L 79.982115 303.950982 
L 80.00267 298.331947 
L 80.05723 292.712911 
L 80.140645 287.093876 
L 80.213633 283.494984 
L 80.256476 281.47484 
L 80.414661 275.855804 
L 80.632257 270.236769 
L 80.650015 269.867008 
L 80.904742 264.617733 
L 81.086397 261.522411 
L 81.233867 258.998698 
L 81.522779 254.639807 
L 81.608477 253.379662 
L 81.959161 248.644109 
L 82.031421 247.760626 
L 82.395544 243.570718 
L 82.54629 242.141591 
L 82.831926 239.544417 
L 83.268308 236.522555 
L 83.268308 236.522555 
L 83.70469 234.437141 
L 84.141073 233.132131 
L 84.577455 232.692722 
L 85.013837 233.407296 
L 85.450219 235.507957 
L 85.588572 236.522555 
L 85.886601 238.771643 
L 86.265513 242.141591 
L 86.322984 242.649695 
L 86.759366 247.153731 
L 86.806436 247.760626 
L 87.144256 253.379662 
L 87.195748 254.785736 
L 87.305934 258.998698 
L 87.364069 264.617733 
L 87.355527 270.236769 
L 87.295561 275.855804 
L 87.195748 281.125892 
L 87.188467 281.47484 
L 87.01985 287.093876 
L 86.796884 292.712911 
L 86.759366 293.482825 
L 86.489605 298.331947 
L 86.322984 300.877577 
L 86.101404 303.950982 
L 85.886601 306.622774 
L 85.640739 309.570018 
L 85.450219 311.684095 
L 85.131072 315.189054 
L 85.013837 316.38859 
L 84.577455 320.671646 
L 84.562232 320.808089 
L 84.141073 324.257874 
L 83.813256 326.427125 
L 83.70469 327.087436 
L 83.268308 329.015684 
L 82.831926 330.074073 
L 82.395544 330.259687 
L 81.959161 329.603675 
L 81.522779 328.181445 
z
" clip-path="url(#pa0c87afbde)" style="fill: #549fcd"/>
    <path d="M 81.522779 328.181445 
L 81.959161 329.603675 
L 82.395544 330.259687 
L 82.831926 330.074073 
L 83.268308 329.015684 
L 83.70469 327.087436 
L 83.813256 326.427125 
L 84.141073 324.257874 
L 84.562232 320.808089 
L 84.577455 320.671646 
L 85.013837 316.38859 
L 85.131072 315.189054 
L 85.450219 311.684095 
L 85.640739 309.570018 
L 85.886601 306.622774 
L 86.101404 303.950982 
L 86.322984 300.877577 
L 86.489605 298.331947 
L 86.759366 293.482825 
L 86.796884 292.712911 
L 87.01985 287.093876 
L 87.188467 281.47484 
L 87.195748 281.125892 
L 87.295561 275.855804 
L 87.355527 270.236769 
L 87.364069 264.617733 
L 87.305934 258.998698 
L 87.195748 254.785736 
L 87.144256 253.379662 
L 86.806436 247.760626 
L 86.759366 247.153731 
L 86.322984 242.649695 
L 86.265513 242.141591 
L 85.886601 238.771643 
L 85.588572 236.522555 
L 85.450219 235.507957 
L 85.013837 233.407296 
L 84.577455 232.692722 
L 84.141073 233.132131 
L 83.70469 234.437141 
L 83.268308 236.522555 
L 83.268308 236.522555 
L 82.831926 239.544417 
L 82.54629 242.141591 
L 82.395544 243.570718 
L 82.031421 247.760626 
L 81.959161 248.644109 
L 81.608477 253.379662 
L 81.522779 254.639807 
L 81.233867 258.998698 
L 81.086397 261.522411 
L 80.904742 264.617733 
L 80.650015 269.867008 
L 80.632257 270.236769 
L 80.414661 275.855804 
L 80.256476 281.47484 
L 80.213633 283.494984 
L 80.140645 287.093876 
L 80.05723 292.712911 
L 80.00267 298.331947 
L 79.982115 303.950982 
L 80.013962 309.570018 
L 80.134737 315.189054 
L 80.213633 317.020854 
L 80.446146 320.808089 
L 80.650015 322.905457 
L 81.086397 326.067026 
L 81.152036 326.427125 
z
M 81.876123 320.808089 
L 81.522779 318.973254 
L 81.086397 315.358991 
L 81.071151 315.189054 
L 80.76199 309.570018 
L 80.650015 303.950982 
L 80.653926 298.331947 
L 80.724749 292.712911 
L 80.840501 287.093876 
L 80.997544 281.47484 
L 81.086397 278.943487 
L 81.197442 275.855804 
L 81.444656 270.236769 
L 81.522779 268.735887 
L 81.747138 264.617733 
L 81.959161 261.211504 
L 82.115301 258.998698 
L 82.395544 255.331847 
L 82.585082 253.379662 
L 82.831926 250.933284 
L 83.268308 247.938312 
L 83.317666 247.760626 
L 83.70469 246.338247 
L 84.141073 245.992349 
L 84.577455 246.859958 
L 84.784011 247.760626 
L 85.013837 248.805834 
L 85.450219 251.574549 
L 85.676338 253.379662 
L 85.886601 255.266139 
L 86.198869 258.998698 
L 86.322984 261.286596 
L 86.453227 264.617733 
L 86.534879 270.236769 
L 86.504592 275.855804 
L 86.387373 281.47484 
L 86.322984 283.343614 
L 86.18067 287.093876 
L 85.892071 292.712911 
L 85.886601 292.80016 
L 85.522354 298.331947 
L 85.450219 299.286712 
L 85.097058 303.950982 
L 85.013837 304.944419 
L 84.623125 309.570018 
L 84.577455 310.063076 
L 84.141073 314.482756 
L 84.060129 315.189054 
L 83.70469 317.987496 
L 83.268308 320.486427 
L 83.170636 320.808089 
L 82.831926 321.845433 
L 82.395544 322.069705 
L 81.959161 321.166108 
z
" clip-path="url(#pa0c87afbde)" style="fill: #3484bf"/>
    <path d="M 81.959161 321.166108 
L 82.395544 322.069705 
L 82.831926 321.845433 
L 83.170636 320.808089 
L 83.268308 320.486427 
L 83.70469 317.987496 
L 84.060129 315.189054 
L 84.141073 314.482756 
L 84.577455 310.063076 
L 84.623125 309.570018 
L 85.013837 304.944419 
L 85.097058 303.950982 
L 85.450219 299.286712 
L 85.522354 298.331947 
L 85.886601 292.80016 
L 85.892071 292.712911 
L 86.18067 287.093876 
L 86.322984 283.343614 
L 86.387373 281.47484 
L 86.504592 275.855804 
L 86.534879 270.236769 
L 86.453227 264.617733 
L 86.322984 261.286596 
L 86.198869 258.998698 
L 85.886601 255.266139 
L 85.676338 253.379662 
L 85.450219 251.574549 
L 85.013837 248.805834 
L 84.784011 247.760626 
L 84.577455 246.859958 
L 84.141073 245.992349 
L 83.70469 246.338247 
L 83.317666 247.760626 
L 83.268308 247.938312 
L 82.831926 250.933284 
L 82.585082 253.379662 
L 82.395544 255.331847 
L 82.115301 258.998698 
L 81.959161 261.211504 
L 81.747138 264.617733 
L 81.522779 268.735887 
L 81.444656 270.236769 
L 81.197442 275.855804 
L 81.086397 278.943487 
L 80.997544 281.47484 
L 80.840501 287.093876 
L 80.724749 292.712911 
L 80.653926 298.331947 
L 80.650015 303.950982 
L 80.76199 309.570018 
L 81.071151 315.189054 
L 81.086397 315.358991 
L 81.522779 318.973254 
L 81.876123 320.808089 
z
M 81.816884 309.570018 
L 81.522779 305.12271 
L 81.471762 303.950982 
L 81.389285 298.331947 
L 81.427635 292.712911 
L 81.522779 288.120952 
L 81.545307 287.093876 
L 81.72818 281.47484 
L 81.959161 275.8704 
L 81.959866 275.855804 
L 82.278768 270.236769 
L 82.395544 268.424504 
L 82.725677 264.617733 
L 82.831926 263.471234 
L 83.268308 260.642281 
L 83.70469 259.644249 
L 84.141073 260.225355 
L 84.577455 262.080956 
L 84.942958 264.617733 
L 85.013837 265.325836 
L 85.34225 270.236769 
L 85.450219 275.855804 
L 85.374672 281.47484 
L 85.179231 287.093876 
L 85.013837 290.277471 
L 84.892896 292.712911 
L 84.577455 297.657938 
L 84.534463 298.331947 
L 84.141073 303.448572 
L 84.098199 303.950982 
L 83.70469 307.925658 
L 83.4903 309.570018 
L 83.268308 311.081298 
L 82.831926 312.699243 
L 82.395544 312.695565 
L 81.959161 310.799173 
z
" clip-path="url(#pa0c87afbde)" style="fill: #1966ad"/>
    <path d="M 81.959161 310.799173 
L 82.395544 312.695565 
L 82.831926 312.699243 
L 83.268308 311.081298 
L 83.4903 309.570018 
L 83.70469 307.925658 
L 84.098199 303.950982 
L 84.141073 303.448572 
L 84.534463 298.331947 
L 84.577455 297.657938 
L 84.892896 292.712911 
L 85.013837 290.277471 
L 85.179231 287.093876 
L 85.374672 281.47484 
L 85.450219 275.855804 
L 85.34225 270.236769 
L 85.013837 265.325836 
L 84.942958 264.617733 
L 84.577455 262.080956 
L 84.141073 260.225355 
L 83.70469 259.644249 
L 83.268308 260.642281 
L 82.831926 263.471234 
L 82.725677 264.617733 
L 82.395544 268.424504 
L 82.278768 270.236769 
L 81.959866 275.855804 
L 81.959161 275.8704 
L 81.72818 281.47484 
L 81.545307 287.093876 
L 81.522779 288.120952 
L 81.427635 292.712911 
L 81.389285 298.331947 
L 81.471762 303.950982 
L 81.522779 305.12271 
L 81.816884 309.570018 
z
" clip-path="url(#pa0c87afbde)" style="fill: #084488"/>
   </g>
   <g id="matplotlib.axis_1">
    <g id="xtick_1">
     <g id="line2d_1">
      <defs>
       <path id="m9c62beccd7" d="M 0 0 
L 0 3.5 
" style="stroke: #000000; stroke-width: 0.8"/>
      </defs>
      <g>
       <use xlink:href="#m9c62beccd7" x="137.104708" y="499.48" style="stroke: #000000; stroke-width: 0.8"/>
      </g>
     </g>
     <g id="text_1">
      <!-- 1 -->
      <g transform="translate(130.105958 523.196563) scale(0.22 -0.22)">
       <defs>
        <path id="DejaVuSans-31" d="M 794 531 
L 1825 531 
L 1825 4091 
L 703 3866 
L 703 4441 
L 1819 4666 
L 2450 4666 
L 2450 531 
L 3481 531 
L 3481 0 
L 794 0 
L 794 531 
z
" transform="scale(0.015625)"/>
       </defs>
       <use xlink:href="#DejaVuSans-31"/>
      </g>
     </g>
    </g>
    <g id="xtick_2">
     <g id="line2d_2">
      <g>
       <use xlink:href="#m9c62beccd7" x="228.094689" y="499.48" style="stroke: #000000; stroke-width: 0.8"/>
      </g>
     </g>
     <g id="text_2">
      <!-- 2 -->
      <g transform="translate(221.095939 523.196563) scale(0.22 -0.22)">
       <defs>
        <path id="DejaVuSans-32" d="M 1228 531 
L 3431 531 
L 3431 0 
L 469 0 
L 469 531 
Q 828 903 1448 1529 
Q 2069 2156 2228 2338 
Q 2531 2678 2651 2914 
Q 2772 3150 2772 3378 
Q 2772 3750 2511 3984 
Q 2250 4219 1831 4219 
Q 1534 4219 1204 4116 
Q 875 4013 500 3803 
L 500 4441 
Q 881 4594 1212 4672 
Q 1544 4750 1819 4750 
Q 2544 4750 2975 4387 
Q 3406 4025 3406 3419 
Q 3406 3131 3298 2873 
Q 3191 2616 2906 2266 
Q 2828 2175 2409 1742 
Q 1991 1309 1228 531 
z
" transform="scale(0.015625)"/>
       </defs>
       <use xlink:href="#DejaVuSans-32"/>
      </g>
     </g>
    </g>
    <g id="xtick_3">
     <g id="line2d_3">
      <g>
       <use xlink:href="#m9c62beccd7" x="319.084669" y="499.48" style="stroke: #000000; stroke-width: 0.8"/>
      </g>
     </g>
     <g id="text_3">
      <!-- 3 -->
      <g transform="translate(312.085919 523.196563) scale(0.22 -0.22)">
       <defs>
        <path id="DejaVuSans-33" d="M 2597 2516 
Q 3050 2419 3304 2112 
Q 3559 1806 3559 1356 
Q 3559 666 3084 287 
Q 2609 -91 1734 -91 
Q 1441 -91 1130 -33 
Q 819 25 488 141 
L 488 750 
Q 750 597 1062 519 
Q 1375 441 1716 441 
Q 2309 441 2620 675 
Q 2931 909 2931 1356 
Q 2931 1769 2642 2001 
Q 2353 2234 1838 2234 
L 1294 2234 
L 1294 2753 
L 1863 2753 
Q 2328 2753 2575 2939 
Q 2822 3125 2822 3475 
Q 2822 3834 2567 4026 
Q 2313 4219 1838 4219 
Q 1578 4219 1281 4162 
Q 984 4106 628 3988 
L 628 4550 
Q 988 4650 1302 4700 
Q 1616 4750 1894 4750 
Q 2613 4750 3031 4423 
Q 3450 4097 3450 3541 
Q 3450 3153 3228 2886 
Q 3006 2619 2597 2516 
z
" transform="scale(0.015625)"/>
       </defs>
       <use xlink:href="#DejaVuSans-33"/>
      </g>
     </g>
    </g>
    <g id="xtick_4">
     <g id="line2d_4">
      <g>
       <use xlink:href="#m9c62beccd7" x="410.074649" y="499.48" style="stroke: #000000; stroke-width: 0.8"/>
      </g>
     </g>
     <g id="text_4">
      <!-- 4 -->
      <g transform="translate(403.075899 523.196563) scale(0.22 -0.22)">
       <defs>
        <path id="DejaVuSans-34" d="M 2419 4116 
L 825 1625 
L 2419 1625 
L 2419 4116 
z
M 2253 4666 
L 3047 4666 
L 3047 1625 
L 3713 1625 
L 3713 1100 
L 3047 1100 
L 3047 0 
L 2419 0 
L 2419 1100 
L 313 1100 
L 313 1709 
L 2253 4666 
z
" transform="scale(0.015625)"/>
       </defs>
       <use xlink:href="#DejaVuSans-34"/>
      </g>
     </g>
    </g>
    <g id="xtick_5">
     <g id="line2d_5">
      <g>
       <use xlink:href="#m9c62beccd7" x="501.064629" y="499.48" style="stroke: #000000; stroke-width: 0.8"/>
      </g>
     </g>
     <g id="text_5">
      <!-- 5 -->
      <g transform="translate(494.065879 523.196563) scale(0.22 -0.22)">
       <defs>
        <path id="DejaVuSans-35" d="M 691 4666 
L 3169 4666 
L 3169 4134 
L 1269 4134 
L 1269 2991 
Q 1406 3038 1543 3061 
Q 1681 3084 1819 3084 
Q 2600 3084 3056 2656 
Q 3513 2228 3513 1497 
Q 3513 744 3044 326 
Q 2575 -91 1722 -91 
Q 1428 -91 1123 -41 
Q 819 9 494 109 
L 494 744 
Q 775 591 1075 516 
Q 1375 441 1709 441 
Q 2250 441 2565 725 
Q 2881 1009 2881 1497 
Q 2881 1984 2565 2268 
Q 2250 2553 1709 2553 
Q 1456 2553 1204 2497 
Q 953 2441 691 2322 
L 691 4666 
z
" transform="scale(0.015625)"/>
       </defs>
       <use xlink:href="#DejaVuSans-35"/>
      </g>
     </g>
    </g>
    <g id="xtick_6">
     <g id="line2d_6">
      <g>
       <use xlink:href="#m9c62beccd7" x="592.054609" y="499.48" style="stroke: #000000; stroke-width: 0.8"/>
      </g>
     </g>
     <g id="text_6">
      <!-- 6 -->
      <g transform="translate(585.055859 523.196563) scale(0.22 -0.22)">
       <defs>
        <path id="DejaVuSans-36" d="M 2113 2584 
Q 1688 2584 1439 2293 
Q 1191 2003 1191 1497 
Q 1191 994 1439 701 
Q 1688 409 2113 409 
Q 2538 409 2786 701 
Q 3034 994 3034 1497 
Q 3034 2003 2786 2293 
Q 2538 2584 2113 2584 
z
M 3366 4563 
L 3366 3988 
Q 3128 4100 2886 4159 
Q 2644 4219 2406 4219 
Q 1781 4219 1451 3797 
Q 1122 3375 1075 2522 
Q 1259 2794 1537 2939 
Q 1816 3084 2150 3084 
Q 2853 3084 3261 2657 
Q 3669 2231 3669 1497 
Q 3669 778 3244 343 
Q 2819 -91 2113 -91 
Q 1303 -91 875 529 
Q 447 1150 447 2328 
Q 447 3434 972 4092 
Q 1497 4750 2381 4750 
Q 2619 4750 2861 4703 
Q 3103 4656 3366 4563 
z
" transform="scale(0.015625)"/>
       </defs>
       <use xlink:href="#DejaVuSans-36"/>
      </g>
     </g>
    </g>
    <g id="xtick_7">
     <g id="line2d_7">
      <g>
       <use xlink:href="#m9c62beccd7" x="683.044589" y="499.48" style="stroke: #000000; stroke-width: 0.8"/>
      </g>
     </g>
     <g id="text_7">
      <!-- 7 -->
      <g transform="translate(676.045839 523.196563) scale(0.22 -0.22)">
       <defs>
        <path id="DejaVuSans-37" d="M 525 4666 
L 3525 4666 
L 3525 4397 
L 1831 0 
L 1172 0 
L 2766 4134 
L 525 4134 
L 525 4666 
z
" transform="scale(0.015625)"/>
       </defs>
       <use xlink:href="#DejaVuSans-37"/>
      </g>
     </g>
    </g>
    <g id="text_8">
     <!-- Energy Uncertainties -->
     <g transform="translate(267.642187 548.488438) scale(0.22 -0.22)">
      <defs>
       <path id="DejaVuSans-45" d="M 628 4666 
L 3578 4666 
L 3578 4134 
L 1259 4134 
L 1259 2753 
L 3481 2753 
L 3481 2222 
L 1259 2222 
L 1259 531 
L 3634 531 
L 3634 0 
L 628 0 
L 628 4666 
z
" transform="scale(0.015625)"/>
       <path id="DejaVuSans-6e" d="M 3513 2113 
L 3513 0 
L 2938 0 
L 2938 2094 
Q 2938 2591 2744 2837 
Q 2550 3084 2163 3084 
Q 1697 3084 1428 2787 
Q 1159 2491 1159 1978 
L 1159 0 
L 581 0 
L 581 3500 
L 1159 3500 
L 1159 2956 
Q 1366 3272 1645 3428 
Q 1925 3584 2291 3584 
Q 2894 3584 3203 3211 
Q 3513 2838 3513 2113 
z
" transform="scale(0.015625)"/>
       <path id="DejaVuSans-65" d="M 3597 1894 
L 3597 1613 
L 953 1613 
Q 991 1019 1311 708 
Q 1631 397 2203 397 
Q 2534 397 2845 478 
Q 3156 559 3463 722 
L 3463 178 
Q 3153 47 2828 -22 
Q 2503 -91 2169 -91 
Q 1331 -91 842 396 
Q 353 884 353 1716 
Q 353 2575 817 3079 
Q 1281 3584 2069 3584 
Q 2775 3584 3186 3129 
Q 3597 2675 3597 1894 
z
M 3022 2063 
Q 3016 2534 2758 2815 
Q 2500 3097 2075 3097 
Q 1594 3097 1305 2825 
Q 1016 2553 972 2059 
L 3022 2063 
z
" transform="scale(0.015625)"/>
       <path id="DejaVuSans-72" d="M 2631 2963 
Q 2534 3019 2420 3045 
Q 2306 3072 2169 3072 
Q 1681 3072 1420 2755 
Q 1159 2438 1159 1844 
L 1159 0 
L 581 0 
L 581 3500 
L 1159 3500 
L 1159 2956 
Q 1341 3275 1631 3429 
Q 1922 3584 2338 3584 
Q 2397 3584 2469 3576 
Q 2541 3569 2628 3553 
L 2631 2963 
z
" transform="scale(0.015625)"/>
       <path id="DejaVuSans-67" d="M 2906 1791 
Q 2906 2416 2648 2759 
Q 2391 3103 1925 3103 
Q 1463 3103 1205 2759 
Q 947 2416 947 1791 
Q 947 1169 1205 825 
Q 1463 481 1925 481 
Q 2391 481 2648 825 
Q 2906 1169 2906 1791 
z
M 3481 434 
Q 3481 -459 3084 -895 
Q 2688 -1331 1869 -1331 
Q 1566 -1331 1297 -1286 
Q 1028 -1241 775 -1147 
L 775 -588 
Q 1028 -725 1275 -790 
Q 1522 -856 1778 -856 
Q 2344 -856 2625 -561 
Q 2906 -266 2906 331 
L 2906 616 
Q 2728 306 2450 153 
Q 2172 0 1784 0 
Q 1141 0 747 490 
Q 353 981 353 1791 
Q 353 2603 747 3093 
Q 1141 3584 1784 3584 
Q 2172 3584 2450 3431 
Q 2728 3278 2906 2969 
L 2906 3500 
L 3481 3500 
L 3481 434 
z
" transform="scale(0.015625)"/>
       <path id="DejaVuSans-79" d="M 2059 -325 
Q 1816 -950 1584 -1140 
Q 1353 -1331 966 -1331 
L 506 -1331 
L 506 -850 
L 844 -850 
Q 1081 -850 1212 -737 
Q 1344 -625 1503 -206 
L 1606 56 
L 191 3500 
L 800 3500 
L 1894 763 
L 2988 3500 
L 3597 3500 
L 2059 -325 
z
" transform="scale(0.015625)"/>
       <path id="DejaVuSans-20" transform="scale(0.015625)"/>
       <path id="DejaVuSans-55" d="M 556 4666 
L 1191 4666 
L 1191 1831 
Q 1191 1081 1462 751 
Q 1734 422 2344 422 
Q 2950 422 3222 751 
Q 3494 1081 3494 1831 
L 3494 4666 
L 4128 4666 
L 4128 1753 
Q 4128 841 3676 375 
Q 3225 -91 2344 -91 
Q 1459 -91 1007 375 
Q 556 841 556 1753 
L 556 4666 
z
" transform="scale(0.015625)"/>
       <path id="DejaVuSans-63" d="M 3122 3366 
L 3122 2828 
Q 2878 2963 2633 3030 
Q 2388 3097 2138 3097 
Q 1578 3097 1268 2742 
Q 959 2388 959 1747 
Q 959 1106 1268 751 
Q 1578 397 2138 397 
Q 2388 397 2633 464 
Q 2878 531 3122 666 
L 3122 134 
Q 2881 22 2623 -34 
Q 2366 -91 2075 -91 
Q 1284 -91 818 406 
Q 353 903 353 1747 
Q 353 2603 823 3093 
Q 1294 3584 2113 3584 
Q 2378 3584 2631 3529 
Q 2884 3475 3122 3366 
z
" transform="scale(0.015625)"/>
       <path id="DejaVuSans-74" d="M 1172 4494 
L 1172 3500 
L 2356 3500 
L 2356 3053 
L 1172 3053 
L 1172 1153 
Q 1172 725 1289 603 
Q 1406 481 1766 481 
L 2356 481 
L 2356 0 
L 1766 0 
Q 1100 0 847 248 
Q 594 497 594 1153 
L 594 3053 
L 172 3053 
L 172 3500 
L 594 3500 
L 594 4494 
L 1172 4494 
z
" transform="scale(0.015625)"/>
       <path id="DejaVuSans-61" d="M 2194 1759 
Q 1497 1759 1228 1600 
Q 959 1441 959 1056 
Q 959 750 1161 570 
Q 1363 391 1709 391 
Q 2188 391 2477 730 
Q 2766 1069 2766 1631 
L 2766 1759 
L 2194 1759 
z
M 3341 1997 
L 3341 0 
L 2766 0 
L 2766 531 
Q 2569 213 2275 61 
Q 1981 -91 1556 -91 
Q 1019 -91 701 211 
Q 384 513 384 1019 
Q 384 1609 779 1909 
Q 1175 2209 1959 2209 
L 2766 2209 
L 2766 2266 
Q 2766 2663 2505 2880 
Q 2244 3097 1772 3097 
Q 1472 3097 1187 3025 
Q 903 2953 641 2809 
L 641 3341 
Q 956 3463 1253 3523 
Q 1550 3584 1831 3584 
Q 2591 3584 2966 3190 
Q 3341 2797 3341 1997 
z
" transform="scale(0.015625)"/>
       <path id="DejaVuSans-69" d="M 603 3500 
L 1178 3500 
L 1178 0 
L 603 0 
L 603 3500 
z
M 603 4863 
L 1178 4863 
L 1178 4134 
L 603 4134 
L 603 4863 
z
" transform="scale(0.015625)"/>
       <path id="DejaVuSans-73" d="M 2834 3397 
L 2834 2853 
Q 2591 2978 2328 3040 
Q 2066 3103 1784 3103 
Q 1356 3103 1142 2972 
Q 928 2841 928 2578 
Q 928 2378 1081 2264 
Q 1234 2150 1697 2047 
L 1894 2003 
Q 2506 1872 2764 1633 
Q 3022 1394 3022 966 
Q 3022 478 2636 193 
Q 2250 -91 1575 -91 
Q 1294 -91 989 -36 
Q 684 19 347 128 
L 347 722 
Q 666 556 975 473 
Q 1284 391 1588 391 
Q 1994 391 2212 530 
Q 2431 669 2431 922 
Q 2431 1156 2273 1281 
Q 2116 1406 1581 1522 
L 1381 1569 
Q 847 1681 609 1914 
Q 372 2147 372 2553 
Q 372 3047 722 3315 
Q 1072 3584 1716 3584 
Q 2034 3584 2315 3537 
Q 2597 3491 2834 3397 
z
" transform="scale(0.015625)"/>
      </defs>
      <use xlink:href="#DejaVuSans-45"/>
      <use xlink:href="#DejaVuSans-6e" x="63.183594"/>
      <use xlink:href="#DejaVuSans-65" x="126.5625"/>
      <use xlink:href="#DejaVuSans-72" x="188.085938"/>
      <use xlink:href="#DejaVuSans-67" x="227.449219"/>
      <use xlink:href="#DejaVuSans-79" x="290.925781"/>
      <use xlink:href="#DejaVuSans-20" x="350.105469"/>
      <use xlink:href="#DejaVuSans-55" x="381.892578"/>
      <use xlink:href="#DejaVuSans-6e" x="455.085938"/>
      <use xlink:href="#DejaVuSans-63" x="518.464844"/>
      <use xlink:href="#DejaVuSans-65" x="573.445312"/>
      <use xlink:href="#DejaVuSans-72" x="634.96875"/>
      <use xlink:href="#DejaVuSans-74" x="676.082031"/>
      <use xlink:href="#DejaVuSans-61" x="715.291016"/>
      <use xlink:href="#DejaVuSans-69" x="776.570312"/>
      <use xlink:href="#DejaVuSans-6e" x="804.353516"/>
      <use xlink:href="#DejaVuSans-74" x="867.732422"/>
      <use xlink:href="#DejaVuSans-69" x="906.941406"/>
      <use xlink:href="#DejaVuSans-65" x="934.724609"/>
      <use xlink:href="#DejaVuSans-73" x="996.248047"/>
     </g>
    </g>
   </g>
   <g id="matplotlib.axis_2">
    <g id="ytick_1">
     <g id="line2d_8">
      <defs>
       <path id="maf9ffb89b3" d="M 0 0 
L -3.5 0 
" style="stroke: #000000; stroke-width: 0.8"/>
      </defs>
      <g>
       <use xlink:href="#maf9ffb89b3" x="69.68" y="448.287325" style="stroke: #000000; stroke-width: 0.8"/>
      </g>
     </g>
     <g id="text_9">
      <!-- 1 -->
      <g transform="translate(48.6825 456.645606) scale(0.22 -0.22)">
       <use xlink:href="#DejaVuSans-31"/>
      </g>
     </g>
    </g>
    <g id="ytick_2">
     <g id="line2d_9">
      <g>
       <use xlink:href="#maf9ffb89b3" x="69.68" y="379.202555" style="stroke: #000000; stroke-width: 0.8"/>
      </g>
     </g>
     <g id="text_10">
      <!-- 2 -->
      <g transform="translate(48.6825 387.560837) scale(0.22 -0.22)">
       <use xlink:href="#DejaVuSans-32"/>
      </g>
     </g>
    </g>
    <g id="ytick_3">
     <g id="line2d_10">
      <g>
       <use xlink:href="#maf9ffb89b3" x="69.68" y="310.117786" style="stroke: #000000; stroke-width: 0.8"/>
      </g>
     </g>
     <g id="text_11">
      <!-- 3 -->
      <g transform="translate(48.6825 318.476067) scale(0.22 -0.22)">
       <use xlink:href="#DejaVuSans-33"/>
      </g>
     </g>
    </g>
    <g id="ytick_4">
     <g id="line2d_11">
      <g>
       <use xlink:href="#maf9ffb89b3" x="69.68" y="241.033016" style="stroke: #000000; stroke-width: 0.8"/>
      </g>
     </g>
     <g id="text_12">
      <!-- 4 -->
      <g transform="translate(48.6825 249.391297) scale(0.22 -0.22)">
       <use xlink:href="#DejaVuSans-34"/>
      </g>
     </g>
    </g>
    <g id="ytick_5">
     <g id="line2d_12">
      <g>
       <use xlink:href="#maf9ffb89b3" x="69.68" y="171.948246" style="stroke: #000000; stroke-width: 0.8"/>
      </g>
     </g>
     <g id="text_13">
      <!-- 5 -->
      <g transform="translate(48.6825 180.306527) scale(0.22 -0.22)">
       <use xlink:href="#DejaVuSans-35"/>
      </g>
     </g>
    </g>
    <g id="ytick_6">
     <g id="line2d_13">
      <g>
       <use xlink:href="#maf9ffb89b3" x="69.68" y="102.863476" style="stroke: #000000; stroke-width: 0.8"/>
      </g>
     </g>
     <g id="text_14">
      <!-- 6 -->
      <g transform="translate(48.6825 111.221758) scale(0.22 -0.22)">
       <use xlink:href="#DejaVuSans-36"/>
      </g>
     </g>
    </g>
    <g id="ytick_7">
     <g id="line2d_14">
      <g>
       <use xlink:href="#maf9ffb89b3" x="69.68" y="33.778706" style="stroke: #000000; stroke-width: 0.8"/>
      </g>
     </g>
     <g id="text_15">
      <!-- 7 -->
      <g transform="translate(48.6825 42.136988) scale(0.22 -0.22)">
       <use xlink:href="#DejaVuSans-37"/>
      </g>
     </g>
    </g>
    <g id="text_16">
     <!-- Force Errors [kJ/(mol*A)] -->
     <g transform="translate(40.107187 394.9125) rotate(-90) scale(0.22 -0.22)">
      <defs>
       <path id="DejaVuSans-46" d="M 628 4666 
L 3309 4666 
L 3309 4134 
L 1259 4134 
L 1259 2759 
L 3109 2759 
L 3109 2228 
L 1259 2228 
L 1259 0 
L 628 0 
L 628 4666 
z
" transform="scale(0.015625)"/>
       <path id="DejaVuSans-6f" d="M 1959 3097 
Q 1497 3097 1228 2736 
Q 959 2375 959 1747 
Q 959 1119 1226 758 
Q 1494 397 1959 397 
Q 2419 397 2687 759 
Q 2956 1122 2956 1747 
Q 2956 2369 2687 2733 
Q 2419 3097 1959 3097 
z
M 1959 3584 
Q 2709 3584 3137 3096 
Q 3566 2609 3566 1747 
Q 3566 888 3137 398 
Q 2709 -91 1959 -91 
Q 1206 -91 779 398 
Q 353 888 353 1747 
Q 353 2609 779 3096 
Q 1206 3584 1959 3584 
z
" transform="scale(0.015625)"/>
       <path id="DejaVuSans-5b" d="M 550 4863 
L 1875 4863 
L 1875 4416 
L 1125 4416 
L 1125 -397 
L 1875 -397 
L 1875 -844 
L 550 -844 
L 550 4863 
z
" transform="scale(0.015625)"/>
       <path id="DejaVuSans-6b" d="M 581 4863 
L 1159 4863 
L 1159 1991 
L 2875 3500 
L 3609 3500 
L 1753 1863 
L 3688 0 
L 2938 0 
L 1159 1709 
L 1159 0 
L 581 0 
L 581 4863 
z
" transform="scale(0.015625)"/>
       <path id="DejaVuSans-4a" d="M 628 4666 
L 1259 4666 
L 1259 325 
Q 1259 -519 939 -900 
Q 619 -1281 -91 -1281 
L -331 -1281 
L -331 -750 
L -134 -750 
Q 284 -750 456 -515 
Q 628 -281 628 325 
L 628 4666 
z
" transform="scale(0.015625)"/>
       <path id="DejaVuSans-2f" d="M 1625 4666 
L 2156 4666 
L 531 -594 
L 0 -594 
L 1625 4666 
z
" transform="scale(0.015625)"/>
       <path id="DejaVuSans-28" d="M 1984 4856 
Q 1566 4138 1362 3434 
Q 1159 2731 1159 2009 
Q 1159 1288 1364 580 
Q 1569 -128 1984 -844 
L 1484 -844 
Q 1016 -109 783 600 
Q 550 1309 550 2009 
Q 550 2706 781 3412 
Q 1013 4119 1484 4856 
L 1984 4856 
z
" transform="scale(0.015625)"/>
       <path id="DejaVuSans-6d" d="M 3328 2828 
Q 3544 3216 3844 3400 
Q 4144 3584 4550 3584 
Q 5097 3584 5394 3201 
Q 5691 2819 5691 2113 
L 5691 0 
L 5113 0 
L 5113 2094 
Q 5113 2597 4934 2840 
Q 4756 3084 4391 3084 
Q 3944 3084 3684 2787 
Q 3425 2491 3425 1978 
L 3425 0 
L 2847 0 
L 2847 2094 
Q 2847 2600 2669 2842 
Q 2491 3084 2119 3084 
Q 1678 3084 1418 2786 
Q 1159 2488 1159 1978 
L 1159 0 
L 581 0 
L 581 3500 
L 1159 3500 
L 1159 2956 
Q 1356 3278 1631 3431 
Q 1906 3584 2284 3584 
Q 2666 3584 2933 3390 
Q 3200 3197 3328 2828 
z
" transform="scale(0.015625)"/>
       <path id="DejaVuSans-6c" d="M 603 4863 
L 1178 4863 
L 1178 0 
L 603 0 
L 603 4863 
z
" transform="scale(0.015625)"/>
       <path id="DejaVuSans-2a" d="M 3009 3897 
L 1888 3291 
L 3009 2681 
L 2828 2375 
L 1778 3009 
L 1778 1831 
L 1422 1831 
L 1422 3009 
L 372 2375 
L 191 2681 
L 1313 3291 
L 191 3897 
L 372 4206 
L 1422 3572 
L 1422 4750 
L 1778 4750 
L 1778 3572 
L 2828 4206 
L 3009 3897 
z
" transform="scale(0.015625)"/>
       <path id="DejaVuSans-41" d="M 2188 4044 
L 1331 1722 
L 3047 1722 
L 2188 4044 
z
M 1831 4666 
L 2547 4666 
L 4325 0 
L 3669 0 
L 3244 1197 
L 1141 1197 
L 716 0 
L 50 0 
L 1831 4666 
z
" transform="scale(0.015625)"/>
       <path id="DejaVuSans-29" d="M 513 4856 
L 1013 4856 
Q 1481 4119 1714 3412 
Q 1947 2706 1947 2009 
Q 1947 1309 1714 600 
Q 1481 -109 1013 -844 
L 513 -844 
Q 928 -128 1133 580 
Q 1338 1288 1338 2009 
Q 1338 2731 1133 3434 
Q 928 4138 513 4856 
z
" transform="scale(0.015625)"/>
       <path id="DejaVuSans-5d" d="M 1947 4863 
L 1947 -844 
L 622 -844 
L 622 -397 
L 1369 -397 
L 1369 4416 
L 622 4416 
L 622 4863 
L 1947 4863 
z
" transform="scale(0.015625)"/>
      </defs>
      <use xlink:href="#DejaVuSans-46"/>
      <use xlink:href="#DejaVuSans-6f" x="53.894531"/>
      <use xlink:href="#DejaVuSans-72" x="115.076172"/>
      <use xlink:href="#DejaVuSans-63" x="153.939453"/>
      <use xlink:href="#DejaVuSans-65" x="208.919922"/>
      <use xlink:href="#DejaVuSans-20" x="270.443359"/>
      <use xlink:href="#DejaVuSans-45" x="302.230469"/>
      <use xlink:href="#DejaVuSans-72" x="365.414062"/>
      <use xlink:href="#DejaVuSans-72" x="404.777344"/>
      <use xlink:href="#DejaVuSans-6f" x="443.640625"/>
      <use xlink:href="#DejaVuSans-72" x="504.822266"/>
      <use xlink:href="#DejaVuSans-73" x="545.935547"/>
      <use xlink:href="#DejaVuSans-20" x="598.035156"/>
      <use xlink:href="#DejaVuSans-5b" x="629.822266"/>
      <use xlink:href="#DejaVuSans-6b" x="668.835938"/>
      <use xlink:href="#DejaVuSans-4a" x="726.746094"/>
      <use xlink:href="#DejaVuSans-2f" x="756.238281"/>
      <use xlink:href="#DejaVuSans-28" x="789.929688"/>
      <use xlink:href="#DejaVuSans-6d" x="828.943359"/>
      <use xlink:href="#DejaVuSans-6f" x="926.355469"/>
      <use xlink:href="#DejaVuSans-6c" x="987.537109"/>
      <use xlink:href="#DejaVuSans-2a" x="1015.320312"/>
      <use xlink:href="#DejaVuSans-41" x="1065.320312"/>
      <use xlink:href="#DejaVuSans-29" x="1133.728516"/>
      <use xlink:href="#DejaVuSans-5d" x="1172.742188"/>
     </g>
    </g>
   </g>
   <g id="line2d_15">
    <path d="M 69.68 499.48 
L 696.24 23.76 
" clip-path="url(#pa0c87afbde)" style="fill: none; stroke-dasharray: 5.55,2.4; stroke-dashoffset: 0; stroke: #ff0000; stroke-width: 1.5"/>
   </g>
   <g id="patch_3">
    <path d="M 69.68 499.48 
L 69.68 23.76 
" style="fill: none; stroke: #000000; stroke-width: 0.8; stroke-linejoin: miter; stroke-linecap: square"/>
   </g>
   <g id="patch_4">
    <path d="M 696.24 499.48 
L 696.24 23.76 
" style="fill: none; stroke: #000000; stroke-width: 0.8; stroke-linejoin: miter; stroke-linecap: square"/>
   </g>
   <g id="patch_5">
    <path d="M 69.68 499.48 
L 696.24 499.48 
" style="fill: none; stroke: #000000; stroke-width: 0.8; stroke-linejoin: miter; stroke-linecap: square"/>
   </g>
   <g id="patch_6">
    <path d="M 69.68 23.76 
L 696.24 23.76 
" style="fill: none; stroke: #000000; stroke-width: 0.8; stroke-linejoin: miter; stroke-linecap: square"/>
   </g>
   <g id="text_17">
    <!-- Correlation in: 0.388 -->
    <g transform="translate(132.336 71.332) scale(0.22 -0.22)">
     <defs>
      <path id="DejaVuSans-43" d="M 4122 4306 
L 4122 3641 
Q 3803 3938 3442 4084 
Q 3081 4231 2675 4231 
Q 1875 4231 1450 3742 
Q 1025 3253 1025 2328 
Q 1025 1406 1450 917 
Q 1875 428 2675 428 
Q 3081 428 3442 575 
Q 3803 722 4122 1019 
L 4122 359 
Q 3791 134 3420 21 
Q 3050 -91 2638 -91 
Q 1578 -91 968 557 
Q 359 1206 359 2328 
Q 359 3453 968 4101 
Q 1578 4750 2638 4750 
Q 3056 4750 3426 4639 
Q 3797 4528 4122 4306 
z
" transform="scale(0.015625)"/>
      <path id="DejaVuSans-3a" d="M 750 794 
L 1409 794 
L 1409 0 
L 750 0 
L 750 794 
z
M 750 3309 
L 1409 3309 
L 1409 2516 
L 750 2516 
L 750 3309 
z
" transform="scale(0.015625)"/>
      <path id="DejaVuSans-30" d="M 2034 4250 
Q 1547 4250 1301 3770 
Q 1056 3291 1056 2328 
Q 1056 1369 1301 889 
Q 1547 409 2034 409 
Q 2525 409 2770 889 
Q 3016 1369 3016 2328 
Q 3016 3291 2770 3770 
Q 2525 4250 2034 4250 
z
M 2034 4750 
Q 2819 4750 3233 4129 
Q 3647 3509 3647 2328 
Q 3647 1150 3233 529 
Q 2819 -91 2034 -91 
Q 1250 -91 836 529 
Q 422 1150 422 2328 
Q 422 3509 836 4129 
Q 1250 4750 2034 4750 
z
" transform="scale(0.015625)"/>
      <path id="DejaVuSans-2e" d="M 684 794 
L 1344 794 
L 1344 0 
L 684 0 
L 684 794 
z
" transform="scale(0.015625)"/>
      <path id="DejaVuSans-38" d="M 2034 2216 
Q 1584 2216 1326 1975 
Q 1069 1734 1069 1313 
Q 1069 891 1326 650 
Q 1584 409 2034 409 
Q 2484 409 2743 651 
Q 3003 894 3003 1313 
Q 3003 1734 2745 1975 
Q 2488 2216 2034 2216 
z
M 1403 2484 
Q 997 2584 770 2862 
Q 544 3141 544 3541 
Q 544 4100 942 4425 
Q 1341 4750 2034 4750 
Q 2731 4750 3128 4425 
Q 3525 4100 3525 3541 
Q 3525 3141 3298 2862 
Q 3072 2584 2669 2484 
Q 3125 2378 3379 2068 
Q 3634 1759 3634 1313 
Q 3634 634 3220 271 
Q 2806 -91 2034 -91 
Q 1263 -91 848 271 
Q 434 634 434 1313 
Q 434 1759 690 2068 
Q 947 2378 1403 2484 
z
M 1172 3481 
Q 1172 3119 1398 2916 
Q 1625 2713 2034 2713 
Q 2441 2713 2670 2916 
Q 2900 3119 2900 3481 
Q 2900 3844 2670 4047 
Q 2441 4250 2034 4250 
Q 1625 4250 1398 4047 
Q 1172 3844 1172 3481 
z
" transform="scale(0.015625)"/>
     </defs>
     <use xlink:href="#DejaVuSans-43"/>
     <use xlink:href="#DejaVuSans-6f" x="69.824219"/>
     <use xlink:href="#DejaVuSans-72" x="131.005859"/>
     <use xlink:href="#DejaVuSans-72" x="170.369141"/>
     <use xlink:href="#DejaVuSans-65" x="209.232422"/>
     <use xlink:href="#DejaVuSans-6c" x="270.755859"/>
     <use xlink:href="#DejaVuSans-61" x="298.539062"/>
     <use xlink:href="#DejaVuSans-74" x="359.818359"/>
     <use xlink:href="#DejaVuSans-69" x="399.027344"/>
     <use xlink:href="#DejaVuSans-6f" x="426.810547"/>
     <use xlink:href="#DejaVuSans-6e" x="487.992188"/>
     <use xlink:href="#DejaVuSans-20" x="551.371094"/>
     <use xlink:href="#DejaVuSans-69" x="583.158203"/>
     <use xlink:href="#DejaVuSans-6e" x="610.941406"/>
     <use xlink:href="#DejaVuSans-3a" x="674.320312"/>
     <use xlink:href="#DejaVuSans-20" x="708.011719"/>
     <use xlink:href="#DejaVuSans-30" x="739.798828"/>
     <use xlink:href="#DejaVuSans-2e" x="803.421875"/>
     <use xlink:href="#DejaVuSans-33" x="835.208984"/>
     <use xlink:href="#DejaVuSans-38" x="898.832031"/>
     <use xlink:href="#DejaVuSans-38" x="962.455078"/>
    </g>
   </g>
  </g>
 </g>
 <defs>
  <clipPath id="pa0c87afbde">
   <rect x="69.68" y="23.76" width="626.56" height="475.72"/>
  </clipPath>
 </defs>
</svg>
