<?xml version="1.0" encoding="utf-8" standalone="no"?>
<!DOCTYPE svg PUBLIC "-//W3C//DTD SVG 1.1//EN"
  "http://www.w3.org/Graphics/SVG/1.1/DTD/svg11.dtd">
<svg xmlns:xlink="http://www.w3.org/1999/xlink" width="720pt" height="576pt" viewBox="0 0 720 576" xmlns="http://www.w3.org/2000/svg" version="1.1">
 <metadata>
  <rdf:RDF xmlns:dc="http://purl.org/dc/elements/1.1/" xmlns:cc="http://creativecommons.org/ns#" xmlns:rdf="http://www.w3.org/1999/02/22-rdf-syntax-ns#">
   <cc:Work>
    <dc:type rdf:resource="http://purl.org/dc/dcmitype/StillImage"/>
    <dc:date>2024-12-08T17:01:25.779570</dc:date>
    <dc:format>image/svg+xml</dc:format>
    <dc:creator>
     <cc:Agent>
      <dc:title>Matplotlib v3.8.4, https://matplotlib.org/</dc:title>
     </cc:Agent>
    </dc:creator>
   </cc:Work>
  </rdf:RDF>
 </metadata>
 <defs>
  <style type="text/css">*{stroke-linejoin: round; stroke-linecap: butt}</style>
 </defs>
 <g id="figure_1">
  <g id="patch_1">
   <path d="M 0 576 
L 720 576 
L 720 0 
L 0 0 
z
" style="fill: #ffffff"/>
  </g>
  <g id="axes_1">
   <g id="patch_2">
    <path d="M 69.68 499.48 
L 696.24 499.48 
L 696.24 23.76 
L 69.68 23.76 
z
" style="fill: #ffffff"/>
   </g>
   <g id="QuadContourSet_1">
    <path d="M 85.136354 449.593122 
L 86.493448 452.458844 
L 87.850542 454.199429 
L 89.207636 455.110252 
L 90.56473 455.187011 
L 91.921823 454.092382 
L 93.278917 451.194484 
L 94.270174 447.052211 
L 94.636011 446.376446 
L 95.993105 442.304529 
L 97.350199 434.494951 
L 97.859634 430.948543 
L 98.707292 427.064612 
L 100.064386 418.611077 
L 100.577374 414.844875 
L 101.42148 409.448649 
L 102.565265 398.741207 
L 102.778574 396.707413 
L 104.091661 382.637539 
L 104.135668 382.167905 
L 105.492761 369.911937 
L 105.925595 366.533871 
L 106.849855 359.584582 
L 108.134027 350.430202 
L 108.206949 349.762099 
L 109.564043 336.402728 
L 109.739193 334.326534 
L 110.470386 318.222866 
L 110.719866 302.119198 
L 110.82994 286.01553 
L 110.921136 275.336003 
L 110.986109 269.911862 
L 111.147655 253.808193 
L 111.091091 237.704525 
L 110.921136 227.195115 
L 110.859152 221.600857 
L 110.545846 205.497189 
L 109.90893 189.393521 
L 109.564043 182.900236 
L 109.032117 173.289853 
L 108.322699 157.186184 
L 108.206949 152.29194 
L 107.810274 141.082516 
L 107.229479 124.978848 
L 106.849855 117.88505 
L 106.148369 108.87518 
L 105.492761 103.105242 
L 104.135668 92.822249 
L 104.130115 92.771512 
L 102.778574 84.00629 
L 101.42148 80.319812 
L 100.064386 80.555497 
L 98.707292 81.503813 
L 97.350199 81.519587 
L 95.993105 81.019225 
L 94.636011 82.033027 
L 93.278917 86.291648 
L 91.979278 92.771512 
L 91.921823 93.057159 
L 90.56473 98.092242 
L 89.207636 102.442273 
L 87.850542 108.677241 
L 87.818235 108.87518 
L 86.493448 116.014664 
L 85.136354 123.301946 
L 84.674521 124.978848 
L 83.779261 128.595734 
L 82.422167 137.002369 
L 82.079236 141.082516 
L 81.55468 157.186184 
L 81.439828 173.289853 
L 81.065073 185.289861 
L 80.930904 189.393521 
L 79.742023 205.497189 
L 79.707979 205.889889 
L 78.549525 221.600857 
L 78.350886 225.887704 
L 77.809661 237.704525 
L 77.376881 253.808193 
L 76.993792 264.725891 
L 76.735227 269.911862 
L 75.636698 285.934386 
L 75.629975 286.01553 
L 74.569278 302.119198 
L 74.279604 312.314056 
L 74.115537 318.222866 
L 74.279604 334.326534 
L 74.279604 334.326534 
L 74.939524 350.430202 
L 75.636698 364.506981 
L 75.706748 366.533871 
L 76.269427 382.637539 
L 76.993792 396.768954 
L 77.073957 398.741207 
L 78.097754 414.844875 
L 78.350886 417.836698 
L 79.707979 429.617824 
L 79.941095 430.948543 
L 81.065073 437.787412 
L 82.422167 443.051111 
L 83.779261 446.244828 
L 84.250509 447.052211 
z
M 84.54326 414.844875 
L 83.779261 409.981501 
L 82.540181 398.741207 
L 82.422167 397.186502 
L 81.300342 382.637539 
L 81.065073 375.818094 
L 80.706044 366.533871 
L 80.518168 350.430202 
L 80.616168 334.326534 
L 81.013867 318.222866 
L 81.065073 316.959071 
L 81.500383 302.119198 
L 82.194327 286.01553 
L 82.422167 281.100294 
L 82.912973 269.911862 
L 83.779261 255.280957 
L 83.869393 253.808193 
L 84.958526 237.704525 
L 85.136354 235.202812 
L 86.071187 221.600857 
L 86.493448 216.018115 
L 87.412444 205.497189 
L 87.850542 201.220941 
L 89.207636 191.148041 
L 89.523011 189.393521 
L 90.56473 183.237333 
L 91.921823 177.395831 
L 93.278917 173.289853 
L 93.278917 173.289853 
L 94.636011 170.072231 
L 95.993105 170.09223 
L 97.071241 173.289853 
L 97.350199 173.839465 
L 98.707292 177.566786 
L 100.064386 184.021051 
L 100.782089 189.393521 
L 101.42148 193.344288 
L 102.778574 203.064311 
L 103.086539 205.497189 
L 104.135668 217.199406 
L 104.419186 221.600857 
L 105.114915 237.704525 
L 105.48255 253.808193 
L 105.492761 255.422211 
L 105.610642 269.911862 
L 105.492761 280.660398 
L 105.450897 286.01553 
L 105.114326 302.119198 
L 104.472589 318.222866 
L 104.135668 323.795668 
L 103.670162 334.326534 
L 102.778574 347.504789 
L 102.627635 350.430202 
L 101.432775 366.533871 
L 101.42148 366.665713 
L 100.087157 382.637539 
L 100.064386 382.871663 
L 98.707292 396.586711 
L 98.454491 398.741207 
L 97.350199 408.145724 
L 96.156279 414.844875 
L 95.993105 416.005656 
L 94.636011 423.585247 
L 93.278917 427.425591 
L 91.921823 429.156729 
L 90.56473 429.523461 
L 89.207636 428.87028 
L 87.850542 427.217069 
L 86.493448 424.106514 
L 85.136354 418.431484 
z
" clip-path="url(#p028e894665)" style="fill: #f1f7fd"/>
    <path d="M 85.136354 418.431484 
L 86.493448 424.106514 
L 87.850542 427.217069 
L 89.207636 428.87028 
L 90.56473 429.523461 
L 91.921823 429.156729 
L 93.278917 427.425591 
L 94.636011 423.585247 
L 95.993105 416.005656 
L 96.156279 414.844875 
L 97.350199 408.145724 
L 98.454491 398.741207 
L 98.707292 396.586711 
L 100.064386 382.871663 
L 100.087157 382.637539 
L 101.42148 366.665713 
L 101.432775 366.533871 
L 102.627635 350.430202 
L 102.778574 347.504789 
L 103.670162 334.326534 
L 104.135668 323.795668 
L 104.472589 318.222866 
L 105.114326 302.119198 
L 105.450897 286.01553 
L 105.492761 280.660398 
L 105.610642 269.911862 
L 105.492761 255.422211 
L 105.48255 253.808193 
L 105.114915 237.704525 
L 104.419186 221.600857 
L 104.135668 217.199406 
L 103.086539 205.497189 
L 102.778574 203.064311 
L 101.42148 193.344288 
L 100.782089 189.393521 
L 100.064386 184.021051 
L 98.707292 177.566786 
L 97.350199 173.839465 
L 97.071241 173.289853 
L 95.993105 170.09223 
L 94.636011 170.072231 
L 93.278917 173.289853 
L 93.278917 173.289853 
L 91.921823 177.395831 
L 90.56473 183.237333 
L 89.523011 189.393521 
L 89.207636 191.148041 
L 87.850542 201.220941 
L 87.412444 205.497189 
L 86.493448 216.018115 
L 86.071187 221.600857 
L 85.136354 235.202812 
L 84.958526 237.704525 
L 83.869393 253.808193 
L 83.779261 255.280957 
L 82.912973 269.911862 
L 82.422167 281.100294 
L 82.194327 286.01553 
L 81.500383 302.119198 
L 81.065073 316.959071 
L 81.013867 318.222866 
L 80.616168 334.326534 
L 80.518168 350.430202 
L 80.706044 366.533871 
L 81.065073 375.818094 
L 81.300342 382.637539 
L 82.422167 397.186502 
L 82.540181 398.741207 
L 83.779261 409.981501 
L 84.54326 414.844875 
z
M 89.959723 414.844875 
L 89.207636 414.196235 
L 87.850542 411.585114 
L 86.493448 406.533555 
L 85.326897 398.741207 
L 85.136354 397.08451 
L 83.899815 382.637539 
L 83.779261 379.969134 
L 83.113834 366.533871 
L 82.813471 350.430202 
L 82.844425 334.326534 
L 83.175778 318.222866 
L 83.779261 303.626973 
L 83.836867 302.119198 
L 84.667717 286.01553 
L 85.136354 278.676659 
L 85.702614 269.911862 
L 86.493448 259.047506 
L 86.883329 253.808193 
L 87.850542 241.612436 
L 88.223012 237.704525 
L 89.207636 227.403426 
L 90.048901 221.600857 
L 90.56473 217.782452 
L 91.921823 211.365742 
L 93.278917 208.111878 
L 94.636011 206.961815 
L 95.993105 207.390786 
L 97.350199 209.252152 
L 98.707292 213.427582 
L 100.064386 221.600857 
L 100.064386 221.600857 
L 101.42148 233.296896 
L 101.787493 237.704525 
L 102.668445 253.808193 
L 102.778574 258.845172 
L 103.030406 269.911862 
L 102.946544 286.01553 
L 102.778574 292.841907 
L 102.619798 302.119198 
L 102.205199 318.222866 
L 101.535958 334.326534 
L 101.42148 336.249288 
L 100.755256 350.430202 
L 100.064386 360.214033 
L 99.659242 366.533871 
L 98.707292 377.874878 
L 98.281939 382.637539 
L 97.350199 391.706674 
L 96.391817 398.741207 
L 95.993105 401.805587 
L 94.636011 409.390389 
L 93.278917 413.388917 
L 92.165534 414.844875 
L 91.921823 415.343838 
L 90.56473 415.619344 
z
" clip-path="url(#p028e894665)" style="fill: #e1edf8"/>
    <path d="M 90.56473 415.619344 
L 91.921823 415.343838 
L 92.165534 414.844875 
L 93.278917 413.388917 
L 94.636011 409.390389 
L 95.993105 401.805587 
L 96.391817 398.741207 
L 97.350199 391.706674 
L 98.281939 382.637539 
L 98.707292 377.874878 
L 99.659242 366.533871 
L 100.064386 360.214033 
L 100.755256 350.430202 
L 101.42148 336.249288 
L 101.535958 334.326534 
L 102.205199 318.222866 
L 102.619798 302.119198 
L 102.778574 292.841907 
L 102.946544 286.01553 
L 103.030406 269.911862 
L 102.778574 258.845172 
L 102.668445 253.808193 
L 101.787493 237.704525 
L 101.42148 233.296896 
L 100.064386 221.600857 
L 100.064386 221.600857 
L 98.707292 213.427582 
L 97.350199 209.252152 
L 95.993105 207.390786 
L 94.636011 206.961815 
L 93.278917 208.111878 
L 91.921823 211.365742 
L 90.56473 217.782452 
L 90.048901 221.600857 
L 89.207636 227.403426 
L 88.223012 237.704525 
L 87.850542 241.612436 
L 86.883329 253.808193 
L 86.493448 259.047506 
L 85.702614 269.911862 
L 85.136354 278.676659 
L 84.667717 286.01553 
L 83.836867 302.119198 
L 83.779261 303.626973 
L 83.175778 318.222866 
L 82.844425 334.326534 
L 82.813471 350.430202 
L 83.113834 366.533871 
L 83.779261 379.969134 
L 83.899815 382.637539 
L 85.136354 397.08451 
L 85.326897 398.741207 
L 86.493448 406.533555 
L 87.850542 411.585114 
L 89.207636 414.196235 
L 89.959723 414.844875 
z
M 88.225653 398.741207 
L 87.850542 397.434395 
L 86.493448 389.085657 
L 85.828878 382.637539 
L 85.136354 370.336129 
L 84.932317 366.533871 
L 84.547945 350.430202 
L 84.577922 334.326534 
L 84.997983 318.222866 
L 85.136354 315.225146 
L 85.704056 302.119198 
L 86.493448 289.521077 
L 86.70526 286.01553 
L 87.850542 270.278467 
L 87.880271 269.911862 
L 89.207636 254.813373 
L 89.331322 253.808193 
L 90.56473 243.491895 
L 91.735666 237.704525 
L 91.921823 236.665409 
L 93.278917 231.824291 
L 94.636011 229.690648 
L 95.993105 229.995063 
L 97.350199 233.100887 
L 98.276186 237.704525 
L 98.707292 240.032261 
L 100.064386 252.704653 
L 100.152018 253.808193 
L 100.914975 269.911862 
L 101.073737 286.01553 
L 100.940676 302.119198 
L 100.637456 318.222866 
L 100.064386 334.326534 
L 100.064386 334.326534 
L 99.32633 350.430202 
L 98.707292 359.3629 
L 98.220852 366.533871 
L 97.350199 376.459987 
L 96.7076 382.637539 
L 95.993105 388.796093 
L 94.636011 396.799709 
L 94.080034 398.741207 
L 93.278917 402.026336 
L 91.921823 404.438334 
L 90.56473 404.370173 
L 89.207636 402.131521 
z
" clip-path="url(#p028e894665)" style="fill: #cddff1"/>
    <path d="M 89.207636 402.131521 
L 90.56473 404.370173 
L 91.921823 404.438334 
L 93.278917 402.026336 
L 94.080034 398.741207 
L 94.636011 396.799709 
L 95.993105 388.796093 
L 96.7076 382.637539 
L 97.350199 376.459987 
L 98.220852 366.533871 
L 98.707292 359.3629 
L 99.32633 350.430202 
L 100.064386 334.326534 
L 100.064386 334.326534 
L 100.637456 318.222866 
L 100.940676 302.119198 
L 101.073737 286.01553 
L 100.914975 269.911862 
L 100.152018 253.808193 
L 100.064386 252.704653 
L 98.707292 240.032261 
L 98.276186 237.704525 
L 97.350199 233.100887 
L 95.993105 229.995063 
L 94.636011 229.690648 
L 93.278917 231.824291 
L 91.921823 236.665409 
L 91.735666 237.704525 
L 90.56473 243.491895 
L 89.331322 253.808193 
L 89.207636 254.813373 
L 87.880271 269.911862 
L 87.850542 270.278467 
L 86.70526 286.01553 
L 86.493448 289.521077 
L 85.704056 302.119198 
L 85.136354 315.225146 
L 84.997983 318.222866 
L 84.577922 334.326534 
L 84.547945 350.430202 
L 84.932317 366.533871 
L 85.136354 370.336129 
L 85.828878 382.637539 
L 86.493448 389.085657 
L 87.850542 397.434395 
L 88.225653 398.741207 
z
M 87.477928 382.637539 
L 86.493448 370.289407 
L 86.256791 366.533871 
L 85.834426 350.430202 
L 85.887572 334.326534 
L 86.353945 318.222866 
L 86.493448 315.397113 
L 87.108006 302.119198 
L 87.850542 290.608898 
L 88.166006 286.01553 
L 89.207636 273.274594 
L 89.576714 269.911862 
L 90.56473 261.223396 
L 91.921823 253.808193 
L 91.921823 253.808193 
L 93.278917 248.406868 
L 94.636011 245.899073 
L 95.993105 246.535609 
L 97.350199 251.328631 
L 97.71727 253.808193 
L 98.707292 263.259541 
L 99.16165 269.911862 
L 99.639574 286.01553 
L 99.6965 302.119198 
L 99.513573 318.222866 
L 99.046836 334.326534 
L 98.707292 340.932365 
L 98.259702 350.430202 
L 97.350199 363.220872 
L 97.09341 366.533871 
L 95.993105 377.669274 
L 95.313035 382.637539 
L 94.636011 387.234496 
L 93.278917 392.743632 
L 91.921823 394.966315 
L 90.56473 394.646183 
L 89.207636 391.812656 
L 87.850542 385.399884 
z
" clip-path="url(#p028e894665)" style="fill: #add0e6"/>
    <path d="M 87.850542 385.399884 
L 89.207636 391.812656 
L 90.56473 394.646183 
L 91.921823 394.966315 
L 93.278917 392.743632 
L 94.636011 387.234496 
L 95.313035 382.637539 
L 95.993105 377.669274 
L 97.09341 366.533871 
L 97.350199 363.220872 
L 98.259702 350.430202 
L 98.707292 340.932365 
L 99.046836 334.326534 
L 99.513573 318.222866 
L 99.6965 302.119198 
L 99.639574 286.01553 
L 99.16165 269.911862 
L 98.707292 263.259541 
L 97.71727 253.808193 
L 97.350199 251.328631 
L 95.993105 246.535609 
L 94.636011 245.899073 
L 93.278917 248.406868 
L 91.921823 253.808193 
L 91.921823 253.808193 
L 90.56473 261.223396 
L 89.576714 269.911862 
L 89.207636 273.274594 
L 88.166006 286.01553 
L 87.850542 290.608898 
L 87.108006 302.119198 
L 86.493448 315.397113 
L 86.353945 318.222866 
L 85.887572 334.326534 
L 85.834426 350.430202 
L 86.256791 366.533871 
L 86.493448 370.289407 
L 87.477928 382.637539 
z
M 89.287659 382.637539 
L 89.207636 382.343142 
L 87.850542 371.921446 
L 87.414088 366.533871 
L 86.91167 350.430202 
L 86.974915 334.326534 
L 87.452401 318.222866 
L 87.850542 310.361038 
L 88.276028 302.119198 
L 89.207636 289.007772 
L 89.478265 286.01553 
L 90.56473 275.643973 
L 91.500991 269.911862 
L 91.921823 267.300633 
L 93.278917 261.892763 
L 94.636011 259.49703 
L 95.993105 261.052945 
L 97.350199 268.915197 
L 97.448157 269.911862 
L 98.364839 286.01553 
L 98.644303 302.119198 
L 98.566118 318.222866 
L 98.159883 334.326534 
L 97.350199 350.430202 
L 97.350199 350.430202 
L 96.102014 366.533871 
L 95.993105 367.636058 
L 94.636011 378.301295 
L 93.693338 382.637539 
L 93.278917 384.479625 
L 91.921823 386.995988 
L 90.56473 386.327195 
z
" clip-path="url(#p028e894665)" style="fill: #82bbdb"/>
    <path d="M 90.56473 386.327195 
L 91.921823 386.995988 
L 93.278917 384.479625 
L 93.693338 382.637539 
L 94.636011 378.301295 
L 95.993105 367.636058 
L 96.102014 366.533871 
L 97.350199 350.430202 
L 97.350199 350.430202 
L 98.159883 334.326534 
L 98.566118 318.222866 
L 98.644303 302.119198 
L 98.364839 286.01553 
L 97.448157 269.911862 
L 97.350199 268.915197 
L 95.993105 261.052945 
L 94.636011 259.49703 
L 93.278917 261.892763 
L 91.921823 267.300633 
L 91.500991 269.911862 
L 90.56473 275.643973 
L 89.478265 286.01553 
L 89.207636 289.007772 
L 88.276028 302.119198 
L 87.850542 310.361038 
L 87.452401 318.222866 
L 86.974915 334.326534 
L 86.91167 350.430202 
L 87.414088 366.533871 
L 87.850542 371.921446 
L 89.207636 382.343142 
L 89.287659 382.637539 
z
M 88.571274 366.533871 
L 87.877408 350.430202 
L 87.939085 334.326534 
L 88.44269 318.222866 
L 89.207636 304.309809 
L 89.352437 302.119198 
L 90.56473 288.574338 
L 90.913243 286.01553 
L 91.921823 279.276567 
L 93.278917 273.931703 
L 94.636011 271.96274 
L 95.993105 275.413021 
L 97.071361 286.01553 
L 97.350199 291.684702 
L 97.671772 302.119198 
L 97.727435 318.222866 
L 97.350199 334.326534 
L 97.350199 334.326534 
L 96.523252 350.430202 
L 95.993105 357.185926 
L 95.068093 366.533871 
L 94.636011 369.981354 
L 93.278917 376.692428 
L 91.921823 379.239562 
L 90.56473 377.997657 
L 89.207636 372.037756 
z
" clip-path="url(#p028e894665)" style="fill: #5aa2cf"/>
    <path d="M 89.207636 372.037756 
L 90.56473 377.997657 
L 91.921823 379.239562 
L 93.278917 376.692428 
L 94.636011 369.981354 
L 95.068093 366.533871 
L 95.993105 357.185926 
L 96.523252 350.430202 
L 97.350199 334.326534 
L 97.350199 334.326534 
L 97.727435 318.222866 
L 97.671772 302.119198 
L 97.350199 291.684702 
L 97.071361 286.01553 
L 95.993105 275.413021 
L 94.636011 271.96274 
L 93.278917 273.931703 
L 91.921823 279.276567 
L 90.913243 286.01553 
L 90.56473 288.574338 
L 89.352437 302.119198 
L 89.207636 304.309809 
L 88.44269 318.222866 
L 87.939085 334.326534 
L 87.877408 350.430202 
L 88.571274 366.533871 
z
M 90.56473 366.533871 
L 90.56473 366.533871 
L 89.207636 351.173648 
L 89.169931 350.430202 
L 89.163764 334.326534 
L 89.207636 333.01779 
L 89.771496 318.222866 
L 90.56473 306.540947 
L 91.009806 302.119198 
L 91.921823 295.09509 
L 93.278917 289.576574 
L 94.636011 289.172123 
L 95.993105 298.579804 
L 96.200638 302.119198 
L 96.534803 318.222866 
L 96.254689 334.326534 
L 95.993105 339.373482 
L 95.319862 350.430202 
L 94.636011 357.426032 
L 93.278917 366.264814 
L 93.164068 366.533871 
L 91.921823 368.808196 
z
" clip-path="url(#p028e894665)" style="fill: #3484bf"/>
    <path d="M 91.921823 368.808196 
L 93.164068 366.533871 
L 93.278917 366.264814 
L 94.636011 357.426032 
L 95.319862 350.430202 
L 95.993105 339.373482 
L 96.254689 334.326534 
L 96.534803 318.222866 
L 96.200638 302.119198 
L 95.993105 298.579804 
L 94.636011 289.172123 
L 93.278917 289.576574 
L 91.921823 295.09509 
L 91.009806 302.119198 
L 90.56473 306.540947 
L 89.771496 318.222866 
L 89.207636 333.01779 
L 89.163764 334.326534 
L 89.169931 350.430202 
L 89.207636 351.173648 
L 90.56473 366.533871 
L 90.56473 366.533871 
z
M 90.56473 350.430202 
L 90.56473 350.430202 
L 90.367875 334.326534 
L 90.56473 329.196881 
L 91.164518 318.222866 
L 91.921823 310.643999 
L 93.278917 304.471218 
L 94.636011 308.057315 
L 95.23474 318.222866 
L 95.107256 334.326534 
L 94.636011 342.322849 
L 93.92619 350.430202 
L 93.278917 354.599836 
L 91.921823 356.789624 
z
" clip-path="url(#p028e894665)" style="fill: #1460a8"/>
    <path d="M 91.921823 356.789624 
L 93.278917 354.599836 
L 93.92619 350.430202 
L 94.636011 342.322849 
L 95.107256 334.326534 
L 95.23474 318.222866 
L 94.636011 308.057315 
L 93.278917 304.471218 
L 91.921823 310.643999 
L 91.164518 318.222866 
L 90.56473 329.196881 
L 90.367875 334.326534 
L 90.56473 350.430202 
L 90.56473 350.430202 
z
" clip-path="url(#p028e894665)" style="fill: #084082"/>
   </g>
   <g id="matplotlib.axis_1">
    <g id="xtick_1">
     <g id="line2d_1">
      <defs>
       <path id="m2e04c4783b" d="M 0 0 
L 0 3.5 
" style="stroke: #000000; stroke-width: 0.8"/>
      </defs>
      <g>
       <use xlink:href="#m2e04c4783b" x="110.091131" y="499.48" style="stroke: #000000; stroke-width: 0.8"/>
      </g>
     </g>
     <g id="text_1">
      <!-- 1 -->
      <g transform="translate(103.092381 523.196563) scale(0.22 -0.22)">
       <defs>
        <path id="DejaVuSans-31" d="M 794 531 
L 1825 531 
L 1825 4091 
L 703 3866 
L 703 4441 
L 1819 4666 
L 2450 4666 
L 2450 531 
L 3481 531 
L 3481 0 
L 794 0 
L 794 531 
z
" transform="scale(0.015625)"/>
       </defs>
       <use xlink:href="#DejaVuSans-31"/>
      </g>
     </g>
    </g>
    <g id="xtick_2">
     <g id="line2d_2">
      <g>
       <use xlink:href="#m2e04c4783b" x="203.904403" y="499.48" style="stroke: #000000; stroke-width: 0.8"/>
      </g>
     </g>
     <g id="text_2">
      <!-- 2 -->
      <g transform="translate(196.905653 523.196563) scale(0.22 -0.22)">
       <defs>
        <path id="DejaVuSans-32" d="M 1228 531 
L 3431 531 
L 3431 0 
L 469 0 
L 469 531 
Q 828 903 1448 1529 
Q 2069 2156 2228 2338 
Q 2531 2678 2651 2914 
Q 2772 3150 2772 3378 
Q 2772 3750 2511 3984 
Q 2250 4219 1831 4219 
Q 1534 4219 1204 4116 
Q 875 4013 500 3803 
L 500 4441 
Q 881 4594 1212 4672 
Q 1544 4750 1819 4750 
Q 2544 4750 2975 4387 
Q 3406 4025 3406 3419 
Q 3406 3131 3298 2873 
Q 3191 2616 2906 2266 
Q 2828 2175 2409 1742 
Q 1991 1309 1228 531 
z
" transform="scale(0.015625)"/>
       </defs>
       <use xlink:href="#DejaVuSans-32"/>
      </g>
     </g>
    </g>
    <g id="xtick_3">
     <g id="line2d_3">
      <g>
       <use xlink:href="#m2e04c4783b" x="297.717676" y="499.48" style="stroke: #000000; stroke-width: 0.8"/>
      </g>
     </g>
     <g id="text_3">
      <!-- 3 -->
      <g transform="translate(290.718926 523.196563) scale(0.22 -0.22)">
       <defs>
        <path id="DejaVuSans-33" d="M 2597 2516 
Q 3050 2419 3304 2112 
Q 3559 1806 3559 1356 
Q 3559 666 3084 287 
Q 2609 -91 1734 -91 
Q 1441 -91 1130 -33 
Q 819 25 488 141 
L 488 750 
Q 750 597 1062 519 
Q 1375 441 1716 441 
Q 2309 441 2620 675 
Q 2931 909 2931 1356 
Q 2931 1769 2642 2001 
Q 2353 2234 1838 2234 
L 1294 2234 
L 1294 2753 
L 1863 2753 
Q 2328 2753 2575 2939 
Q 2822 3125 2822 3475 
Q 2822 3834 2567 4026 
Q 2313 4219 1838 4219 
Q 1578 4219 1281 4162 
Q 984 4106 628 3988 
L 628 4550 
Q 988 4650 1302 4700 
Q 1616 4750 1894 4750 
Q 2613 4750 3031 4423 
Q 3450 4097 3450 3541 
Q 3450 3153 3228 2886 
Q 3006 2619 2597 2516 
z
" transform="scale(0.015625)"/>
       </defs>
       <use xlink:href="#DejaVuSans-33"/>
      </g>
     </g>
    </g>
    <g id="xtick_4">
     <g id="line2d_4">
      <g>
       <use xlink:href="#m2e04c4783b" x="391.530949" y="499.48" style="stroke: #000000; stroke-width: 0.8"/>
      </g>
     </g>
     <g id="text_4">
      <!-- 4 -->
      <g transform="translate(384.532199 523.196563) scale(0.22 -0.22)">
       <defs>
        <path id="DejaVuSans-34" d="M 2419 4116 
L 825 1625 
L 2419 1625 
L 2419 4116 
z
M 2253 4666 
L 3047 4666 
L 3047 1625 
L 3713 1625 
L 3713 1100 
L 3047 1100 
L 3047 0 
L 2419 0 
L 2419 1100 
L 313 1100 
L 313 1709 
L 2253 4666 
z
" transform="scale(0.015625)"/>
       </defs>
       <use xlink:href="#DejaVuSans-34"/>
      </g>
     </g>
    </g>
    <g id="xtick_5">
     <g id="line2d_5">
      <g>
       <use xlink:href="#m2e04c4783b" x="485.344221" y="499.48" style="stroke: #000000; stroke-width: 0.8"/>
      </g>
     </g>
     <g id="text_5">
      <!-- 5 -->
      <g transform="translate(478.345471 523.196563) scale(0.22 -0.22)">
       <defs>
        <path id="DejaVuSans-35" d="M 691 4666 
L 3169 4666 
L 3169 4134 
L 1269 4134 
L 1269 2991 
Q 1406 3038 1543 3061 
Q 1681 3084 1819 3084 
Q 2600 3084 3056 2656 
Q 3513 2228 3513 1497 
Q 3513 744 3044 326 
Q 2575 -91 1722 -91 
Q 1428 -91 1123 -41 
Q 819 9 494 109 
L 494 744 
Q 775 591 1075 516 
Q 1375 441 1709 441 
Q 2250 441 2565 725 
Q 2881 1009 2881 1497 
Q 2881 1984 2565 2268 
Q 2250 2553 1709 2553 
Q 1456 2553 1204 2497 
Q 953 2441 691 2322 
L 691 4666 
z
" transform="scale(0.015625)"/>
       </defs>
       <use xlink:href="#DejaVuSans-35"/>
      </g>
     </g>
    </g>
    <g id="xtick_6">
     <g id="line2d_6">
      <g>
       <use xlink:href="#m2e04c4783b" x="579.157494" y="499.48" style="stroke: #000000; stroke-width: 0.8"/>
      </g>
     </g>
     <g id="text_6">
      <!-- 6 -->
      <g transform="translate(572.158744 523.196563) scale(0.22 -0.22)">
       <defs>
        <path id="DejaVuSans-36" d="M 2113 2584 
Q 1688 2584 1439 2293 
Q 1191 2003 1191 1497 
Q 1191 994 1439 701 
Q 1688 409 2113 409 
Q 2538 409 2786 701 
Q 3034 994 3034 1497 
Q 3034 2003 2786 2293 
Q 2538 2584 2113 2584 
z
M 3366 4563 
L 3366 3988 
Q 3128 4100 2886 4159 
Q 2644 4219 2406 4219 
Q 1781 4219 1451 3797 
Q 1122 3375 1075 2522 
Q 1259 2794 1537 2939 
Q 1816 3084 2150 3084 
Q 2853 3084 3261 2657 
Q 3669 2231 3669 1497 
Q 3669 778 3244 343 
Q 2819 -91 2113 -91 
Q 1303 -91 875 529 
Q 447 1150 447 2328 
Q 447 3434 972 4092 
Q 1497 4750 2381 4750 
Q 2619 4750 2861 4703 
Q 3103 4656 3366 4563 
z
" transform="scale(0.015625)"/>
       </defs>
       <use xlink:href="#DejaVuSans-36"/>
      </g>
     </g>
    </g>
    <g id="xtick_7">
     <g id="line2d_7">
      <g>
       <use xlink:href="#m2e04c4783b" x="672.970767" y="499.48" style="stroke: #000000; stroke-width: 0.8"/>
      </g>
     </g>
     <g id="text_7">
      <!-- 7 -->
      <g transform="translate(665.972017 523.196563) scale(0.22 -0.22)">
       <defs>
        <path id="DejaVuSans-37" d="M 525 4666 
L 3525 4666 
L 3525 4397 
L 1831 0 
L 1172 0 
L 2766 4134 
L 525 4134 
L 525 4666 
z
" transform="scale(0.015625)"/>
       </defs>
       <use xlink:href="#DejaVuSans-37"/>
      </g>
     </g>
    </g>
    <g id="text_8">
     <!-- Energy Uncertainties -->
     <g transform="translate(267.642187 548.488438) scale(0.22 -0.22)">
      <defs>
       <path id="DejaVuSans-45" d="M 628 4666 
L 3578 4666 
L 3578 4134 
L 1259 4134 
L 1259 2753 
L 3481 2753 
L 3481 2222 
L 1259 2222 
L 1259 531 
L 3634 531 
L 3634 0 
L 628 0 
L 628 4666 
z
" transform="scale(0.015625)"/>
       <path id="DejaVuSans-6e" d="M 3513 2113 
L 3513 0 
L 2938 0 
L 2938 2094 
Q 2938 2591 2744 2837 
Q 2550 3084 2163 3084 
Q 1697 3084 1428 2787 
Q 1159 2491 1159 1978 
L 1159 0 
L 581 0 
L 581 3500 
L 1159 3500 
L 1159 2956 
Q 1366 3272 1645 3428 
Q 1925 3584 2291 3584 
Q 2894 3584 3203 3211 
Q 3513 2838 3513 2113 
z
" transform="scale(0.015625)"/>
       <path id="DejaVuSans-65" d="M 3597 1894 
L 3597 1613 
L 953 1613 
Q 991 1019 1311 708 
Q 1631 397 2203 397 
Q 2534 397 2845 478 
Q 3156 559 3463 722 
L 3463 178 
Q 3153 47 2828 -22 
Q 2503 -91 2169 -91 
Q 1331 -91 842 396 
Q 353 884 353 1716 
Q 353 2575 817 3079 
Q 1281 3584 2069 3584 
Q 2775 3584 3186 3129 
Q 3597 2675 3597 1894 
z
M 3022 2063 
Q 3016 2534 2758 2815 
Q 2500 3097 2075 3097 
Q 1594 3097 1305 2825 
Q 1016 2553 972 2059 
L 3022 2063 
z
" transform="scale(0.015625)"/>
       <path id="DejaVuSans-72" d="M 2631 2963 
Q 2534 3019 2420 3045 
Q 2306 3072 2169 3072 
Q 1681 3072 1420 2755 
Q 1159 2438 1159 1844 
L 1159 0 
L 581 0 
L 581 3500 
L 1159 3500 
L 1159 2956 
Q 1341 3275 1631 3429 
Q 1922 3584 2338 3584 
Q 2397 3584 2469 3576 
Q 2541 3569 2628 3553 
L 2631 2963 
z
" transform="scale(0.015625)"/>
       <path id="DejaVuSans-67" d="M 2906 1791 
Q 2906 2416 2648 2759 
Q 2391 3103 1925 3103 
Q 1463 3103 1205 2759 
Q 947 2416 947 1791 
Q 947 1169 1205 825 
Q 1463 481 1925 481 
Q 2391 481 2648 825 
Q 2906 1169 2906 1791 
z
M 3481 434 
Q 3481 -459 3084 -895 
Q 2688 -1331 1869 -1331 
Q 1566 -1331 1297 -1286 
Q 1028 -1241 775 -1147 
L 775 -588 
Q 1028 -725 1275 -790 
Q 1522 -856 1778 -856 
Q 2344 -856 2625 -561 
Q 2906 -266 2906 331 
L 2906 616 
Q 2728 306 2450 153 
Q 2172 0 1784 0 
Q 1141 0 747 490 
Q 353 981 353 1791 
Q 353 2603 747 3093 
Q 1141 3584 1784 3584 
Q 2172 3584 2450 3431 
Q 2728 3278 2906 2969 
L 2906 3500 
L 3481 3500 
L 3481 434 
z
" transform="scale(0.015625)"/>
       <path id="DejaVuSans-79" d="M 2059 -325 
Q 1816 -950 1584 -1140 
Q 1353 -1331 966 -1331 
L 506 -1331 
L 506 -850 
L 844 -850 
Q 1081 -850 1212 -737 
Q 1344 -625 1503 -206 
L 1606 56 
L 191 3500 
L 800 3500 
L 1894 763 
L 2988 3500 
L 3597 3500 
L 2059 -325 
z
" transform="scale(0.015625)"/>
       <path id="DejaVuSans-20" transform="scale(0.015625)"/>
       <path id="DejaVuSans-55" d="M 556 4666 
L 1191 4666 
L 1191 1831 
Q 1191 1081 1462 751 
Q 1734 422 2344 422 
Q 2950 422 3222 751 
Q 3494 1081 3494 1831 
L 3494 4666 
L 4128 4666 
L 4128 1753 
Q 4128 841 3676 375 
Q 3225 -91 2344 -91 
Q 1459 -91 1007 375 
Q 556 841 556 1753 
L 556 4666 
z
" transform="scale(0.015625)"/>
       <path id="DejaVuSans-63" d="M 3122 3366 
L 3122 2828 
Q 2878 2963 2633 3030 
Q 2388 3097 2138 3097 
Q 1578 3097 1268 2742 
Q 959 2388 959 1747 
Q 959 1106 1268 751 
Q 1578 397 2138 397 
Q 2388 397 2633 464 
Q 2878 531 3122 666 
L 3122 134 
Q 2881 22 2623 -34 
Q 2366 -91 2075 -91 
Q 1284 -91 818 406 
Q 353 903 353 1747 
Q 353 2603 823 3093 
Q 1294 3584 2113 3584 
Q 2378 3584 2631 3529 
Q 2884 3475 3122 3366 
z
" transform="scale(0.015625)"/>
       <path id="DejaVuSans-74" d="M 1172 4494 
L 1172 3500 
L 2356 3500 
L 2356 3053 
L 1172 3053 
L 1172 1153 
Q 1172 725 1289 603 
Q 1406 481 1766 481 
L 2356 481 
L 2356 0 
L 1766 0 
Q 1100 0 847 248 
Q 594 497 594 1153 
L 594 3053 
L 172 3053 
L 172 3500 
L 594 3500 
L 594 4494 
L 1172 4494 
z
" transform="scale(0.015625)"/>
       <path id="DejaVuSans-61" d="M 2194 1759 
Q 1497 1759 1228 1600 
Q 959 1441 959 1056 
Q 959 750 1161 570 
Q 1363 391 1709 391 
Q 2188 391 2477 730 
Q 2766 1069 2766 1631 
L 2766 1759 
L 2194 1759 
z
M 3341 1997 
L 3341 0 
L 2766 0 
L 2766 531 
Q 2569 213 2275 61 
Q 1981 -91 1556 -91 
Q 1019 -91 701 211 
Q 384 513 384 1019 
Q 384 1609 779 1909 
Q 1175 2209 1959 2209 
L 2766 2209 
L 2766 2266 
Q 2766 2663 2505 2880 
Q 2244 3097 1772 3097 
Q 1472 3097 1187 3025 
Q 903 2953 641 2809 
L 641 3341 
Q 956 3463 1253 3523 
Q 1550 3584 1831 3584 
Q 2591 3584 2966 3190 
Q 3341 2797 3341 1997 
z
" transform="scale(0.015625)"/>
       <path id="DejaVuSans-69" d="M 603 3500 
L 1178 3500 
L 1178 0 
L 603 0 
L 603 3500 
z
M 603 4863 
L 1178 4863 
L 1178 4134 
L 603 4134 
L 603 4863 
z
" transform="scale(0.015625)"/>
       <path id="DejaVuSans-73" d="M 2834 3397 
L 2834 2853 
Q 2591 2978 2328 3040 
Q 2066 3103 1784 3103 
Q 1356 3103 1142 2972 
Q 928 2841 928 2578 
Q 928 2378 1081 2264 
Q 1234 2150 1697 2047 
L 1894 2003 
Q 2506 1872 2764 1633 
Q 3022 1394 3022 966 
Q 3022 478 2636 193 
Q 2250 -91 1575 -91 
Q 1294 -91 989 -36 
Q 684 19 347 128 
L 347 722 
Q 666 556 975 473 
Q 1284 391 1588 391 
Q 1994 391 2212 530 
Q 2431 669 2431 922 
Q 2431 1156 2273 1281 
Q 2116 1406 1581 1522 
L 1381 1569 
Q 847 1681 609 1914 
Q 372 2147 372 2553 
Q 372 3047 722 3315 
Q 1072 3584 1716 3584 
Q 2034 3584 2315 3537 
Q 2597 3491 2834 3397 
z
" transform="scale(0.015625)"/>
      </defs>
      <use xlink:href="#DejaVuSans-45"/>
      <use xlink:href="#DejaVuSans-6e" x="63.183594"/>
      <use xlink:href="#DejaVuSans-65" x="126.5625"/>
      <use xlink:href="#DejaVuSans-72" x="188.085938"/>
      <use xlink:href="#DejaVuSans-67" x="227.449219"/>
      <use xlink:href="#DejaVuSans-79" x="290.925781"/>
      <use xlink:href="#DejaVuSans-20" x="350.105469"/>
      <use xlink:href="#DejaVuSans-55" x="381.892578"/>
      <use xlink:href="#DejaVuSans-6e" x="455.085938"/>
      <use xlink:href="#DejaVuSans-63" x="518.464844"/>
      <use xlink:href="#DejaVuSans-65" x="573.445312"/>
      <use xlink:href="#DejaVuSans-72" x="634.96875"/>
      <use xlink:href="#DejaVuSans-74" x="676.082031"/>
      <use xlink:href="#DejaVuSans-61" x="715.291016"/>
      <use xlink:href="#DejaVuSans-69" x="776.570312"/>
      <use xlink:href="#DejaVuSans-6e" x="804.353516"/>
      <use xlink:href="#DejaVuSans-74" x="867.732422"/>
      <use xlink:href="#DejaVuSans-69" x="906.941406"/>
      <use xlink:href="#DejaVuSans-65" x="934.724609"/>
      <use xlink:href="#DejaVuSans-73" x="996.248047"/>
     </g>
    </g>
   </g>
   <g id="matplotlib.axis_2">
    <g id="ytick_1">
     <g id="line2d_8">
      <defs>
       <path id="m6b12f95dfb" d="M 0 0 
L -3.5 0 
" style="stroke: #000000; stroke-width: 0.8"/>
      </defs>
      <g>
       <use xlink:href="#m6b12f95dfb" x="69.68" y="468.79757" style="stroke: #000000; stroke-width: 0.8"/>
      </g>
     </g>
     <g id="text_9">
      <!-- 1 -->
      <g transform="translate(48.6825 477.155852) scale(0.22 -0.22)">
       <use xlink:href="#DejaVuSans-31"/>
      </g>
     </g>
    </g>
    <g id="ytick_2">
     <g id="line2d_9">
      <g>
       <use xlink:href="#m6b12f95dfb" x="69.68" y="397.569196" style="stroke: #000000; stroke-width: 0.8"/>
      </g>
     </g>
     <g id="text_10">
      <!-- 2 -->
      <g transform="translate(48.6825 405.927478) scale(0.22 -0.22)">
       <use xlink:href="#DejaVuSans-32"/>
      </g>
     </g>
    </g>
    <g id="ytick_3">
     <g id="line2d_10">
      <g>
       <use xlink:href="#m6b12f95dfb" x="69.68" y="326.340822" style="stroke: #000000; stroke-width: 0.8"/>
      </g>
     </g>
     <g id="text_11">
      <!-- 3 -->
      <g transform="translate(48.6825 334.699103) scale(0.22 -0.22)">
       <use xlink:href="#DejaVuSans-33"/>
      </g>
     </g>
    </g>
    <g id="ytick_4">
     <g id="line2d_11">
      <g>
       <use xlink:href="#m6b12f95dfb" x="69.68" y="255.112448" style="stroke: #000000; stroke-width: 0.8"/>
      </g>
     </g>
     <g id="text_12">
      <!-- 4 -->
      <g transform="translate(48.6825 263.470729) scale(0.22 -0.22)">
       <use xlink:href="#DejaVuSans-34"/>
      </g>
     </g>
    </g>
    <g id="ytick_5">
     <g id="line2d_12">
      <g>
       <use xlink:href="#m6b12f95dfb" x="69.68" y="183.884074" style="stroke: #000000; stroke-width: 0.8"/>
      </g>
     </g>
     <g id="text_13">
      <!-- 5 -->
      <g transform="translate(48.6825 192.242355) scale(0.22 -0.22)">
       <use xlink:href="#DejaVuSans-35"/>
      </g>
     </g>
    </g>
    <g id="ytick_6">
     <g id="line2d_13">
      <g>
       <use xlink:href="#m6b12f95dfb" x="69.68" y="112.6557" style="stroke: #000000; stroke-width: 0.8"/>
      </g>
     </g>
     <g id="text_14">
      <!-- 6 -->
      <g transform="translate(48.6825 121.013981) scale(0.22 -0.22)">
       <use xlink:href="#DejaVuSans-36"/>
      </g>
     </g>
    </g>
    <g id="ytick_7">
     <g id="line2d_14">
      <g>
       <use xlink:href="#m6b12f95dfb" x="69.68" y="41.427326" style="stroke: #000000; stroke-width: 0.8"/>
      </g>
     </g>
     <g id="text_15">
      <!-- 7 -->
      <g transform="translate(48.6825 49.785607) scale(0.22 -0.22)">
       <use xlink:href="#DejaVuSans-37"/>
      </g>
     </g>
    </g>
    <g id="text_16">
     <!-- Force Errors [kJ/(mol*A)] -->
     <g transform="translate(40.107187 394.9125) rotate(-90) scale(0.22 -0.22)">
      <defs>
       <path id="DejaVuSans-46" d="M 628 4666 
L 3309 4666 
L 3309 4134 
L 1259 4134 
L 1259 2759 
L 3109 2759 
L 3109 2228 
L 1259 2228 
L 1259 0 
L 628 0 
L 628 4666 
z
" transform="scale(0.015625)"/>
       <path id="DejaVuSans-6f" d="M 1959 3097 
Q 1497 3097 1228 2736 
Q 959 2375 959 1747 
Q 959 1119 1226 758 
Q 1494 397 1959 397 
Q 2419 397 2687 759 
Q 2956 1122 2956 1747 
Q 2956 2369 2687 2733 
Q 2419 3097 1959 3097 
z
M 1959 3584 
Q 2709 3584 3137 3096 
Q 3566 2609 3566 1747 
Q 3566 888 3137 398 
Q 2709 -91 1959 -91 
Q 1206 -91 779 398 
Q 353 888 353 1747 
Q 353 2609 779 3096 
Q 1206 3584 1959 3584 
z
" transform="scale(0.015625)"/>
       <path id="DejaVuSans-5b" d="M 550 4863 
L 1875 4863 
L 1875 4416 
L 1125 4416 
L 1125 -397 
L 1875 -397 
L 1875 -844 
L 550 -844 
L 550 4863 
z
" transform="scale(0.015625)"/>
       <path id="DejaVuSans-6b" d="M 581 4863 
L 1159 4863 
L 1159 1991 
L 2875 3500 
L 3609 3500 
L 1753 1863 
L 3688 0 
L 2938 0 
L 1159 1709 
L 1159 0 
L 581 0 
L 581 4863 
z
" transform="scale(0.015625)"/>
       <path id="DejaVuSans-4a" d="M 628 4666 
L 1259 4666 
L 1259 325 
Q 1259 -519 939 -900 
Q 619 -1281 -91 -1281 
L -331 -1281 
L -331 -750 
L -134 -750 
Q 284 -750 456 -515 
Q 628 -281 628 325 
L 628 4666 
z
" transform="scale(0.015625)"/>
       <path id="DejaVuSans-2f" d="M 1625 4666 
L 2156 4666 
L 531 -594 
L 0 -594 
L 1625 4666 
z
" transform="scale(0.015625)"/>
       <path id="DejaVuSans-28" d="M 1984 4856 
Q 1566 4138 1362 3434 
Q 1159 2731 1159 2009 
Q 1159 1288 1364 580 
Q 1569 -128 1984 -844 
L 1484 -844 
Q 1016 -109 783 600 
Q 550 1309 550 2009 
Q 550 2706 781 3412 
Q 1013 4119 1484 4856 
L 1984 4856 
z
" transform="scale(0.015625)"/>
       <path id="DejaVuSans-6d" d="M 3328 2828 
Q 3544 3216 3844 3400 
Q 4144 3584 4550 3584 
Q 5097 3584 5394 3201 
Q 5691 2819 5691 2113 
L 5691 0 
L 5113 0 
L 5113 2094 
Q 5113 2597 4934 2840 
Q 4756 3084 4391 3084 
Q 3944 3084 3684 2787 
Q 3425 2491 3425 1978 
L 3425 0 
L 2847 0 
L 2847 2094 
Q 2847 2600 2669 2842 
Q 2491 3084 2119 3084 
Q 1678 3084 1418 2786 
Q 1159 2488 1159 1978 
L 1159 0 
L 581 0 
L 581 3500 
L 1159 3500 
L 1159 2956 
Q 1356 3278 1631 3431 
Q 1906 3584 2284 3584 
Q 2666 3584 2933 3390 
Q 3200 3197 3328 2828 
z
" transform="scale(0.015625)"/>
       <path id="DejaVuSans-6c" d="M 603 4863 
L 1178 4863 
L 1178 0 
L 603 0 
L 603 4863 
z
" transform="scale(0.015625)"/>
       <path id="DejaVuSans-2a" d="M 3009 3897 
L 1888 3291 
L 3009 2681 
L 2828 2375 
L 1778 3009 
L 1778 1831 
L 1422 1831 
L 1422 3009 
L 372 2375 
L 191 2681 
L 1313 3291 
L 191 3897 
L 372 4206 
L 1422 3572 
L 1422 4750 
L 1778 4750 
L 1778 3572 
L 2828 4206 
L 3009 3897 
z
" transform="scale(0.015625)"/>
       <path id="DejaVuSans-41" d="M 2188 4044 
L 1331 1722 
L 3047 1722 
L 2188 4044 
z
M 1831 4666 
L 2547 4666 
L 4325 0 
L 3669 0 
L 3244 1197 
L 1141 1197 
L 716 0 
L 50 0 
L 1831 4666 
z
" transform="scale(0.015625)"/>
       <path id="DejaVuSans-29" d="M 513 4856 
L 1013 4856 
Q 1481 4119 1714 3412 
Q 1947 2706 1947 2009 
Q 1947 1309 1714 600 
Q 1481 -109 1013 -844 
L 513 -844 
Q 928 -128 1133 580 
Q 1338 1288 1338 2009 
Q 1338 2731 1133 3434 
Q 928 4138 513 4856 
z
" transform="scale(0.015625)"/>
       <path id="DejaVuSans-5d" d="M 1947 4863 
L 1947 -844 
L 622 -844 
L 622 -397 
L 1369 -397 
L 1369 4416 
L 622 4416 
L 622 4863 
L 1947 4863 
z
" transform="scale(0.015625)"/>
      </defs>
      <use xlink:href="#DejaVuSans-46"/>
      <use xlink:href="#DejaVuSans-6f" x="53.894531"/>
      <use xlink:href="#DejaVuSans-72" x="115.076172"/>
      <use xlink:href="#DejaVuSans-63" x="153.939453"/>
      <use xlink:href="#DejaVuSans-65" x="208.919922"/>
      <use xlink:href="#DejaVuSans-20" x="270.443359"/>
      <use xlink:href="#DejaVuSans-45" x="302.230469"/>
      <use xlink:href="#DejaVuSans-72" x="365.414062"/>
      <use xlink:href="#DejaVuSans-72" x="404.777344"/>
      <use xlink:href="#DejaVuSans-6f" x="443.640625"/>
      <use xlink:href="#DejaVuSans-72" x="504.822266"/>
      <use xlink:href="#DejaVuSans-73" x="545.935547"/>
      <use xlink:href="#DejaVuSans-20" x="598.035156"/>
      <use xlink:href="#DejaVuSans-5b" x="629.822266"/>
      <use xlink:href="#DejaVuSans-6b" x="668.835938"/>
      <use xlink:href="#DejaVuSans-4a" x="726.746094"/>
      <use xlink:href="#DejaVuSans-2f" x="756.238281"/>
      <use xlink:href="#DejaVuSans-28" x="789.929688"/>
      <use xlink:href="#DejaVuSans-6d" x="828.943359"/>
      <use xlink:href="#DejaVuSans-6f" x="926.355469"/>
      <use xlink:href="#DejaVuSans-6c" x="987.537109"/>
      <use xlink:href="#DejaVuSans-2a" x="1015.320312"/>
      <use xlink:href="#DejaVuSans-41" x="1065.320312"/>
      <use xlink:href="#DejaVuSans-29" x="1133.728516"/>
      <use xlink:href="#DejaVuSans-5d" x="1172.742188"/>
     </g>
    </g>
   </g>
   <g id="line2d_15">
    <path d="M 69.68 499.48 
L 696.24 23.76 
" clip-path="url(#p028e894665)" style="fill: none; stroke-dasharray: 5.55,2.4; stroke-dashoffset: 0; stroke: #ff0000; stroke-width: 1.5"/>
   </g>
   <g id="patch_3">
    <path d="M 69.68 499.48 
L 69.68 23.76 
" style="fill: none; stroke: #000000; stroke-width: 0.8; stroke-linejoin: miter; stroke-linecap: square"/>
   </g>
   <g id="patch_4">
    <path d="M 696.24 499.48 
L 696.24 23.76 
" style="fill: none; stroke: #000000; stroke-width: 0.8; stroke-linejoin: miter; stroke-linecap: square"/>
   </g>
   <g id="patch_5">
    <path d="M 69.68 499.48 
L 696.24 499.48 
" style="fill: none; stroke: #000000; stroke-width: 0.8; stroke-linejoin: miter; stroke-linecap: square"/>
   </g>
   <g id="patch_6">
    <path d="M 69.68 23.76 
L 696.24 23.76 
" style="fill: none; stroke: #000000; stroke-width: 0.8; stroke-linejoin: miter; stroke-linecap: square"/>
   </g>
   <g id="text_17">
    <!-- Correlation in: 0.210 -->
    <g transform="translate(132.336 71.332) scale(0.22 -0.22)">
     <defs>
      <path id="DejaVuSans-43" d="M 4122 4306 
L 4122 3641 
Q 3803 3938 3442 4084 
Q 3081 4231 2675 4231 
Q 1875 4231 1450 3742 
Q 1025 3253 1025 2328 
Q 1025 1406 1450 917 
Q 1875 428 2675 428 
Q 3081 428 3442 575 
Q 3803 722 4122 1019 
L 4122 359 
Q 3791 134 3420 21 
Q 3050 -91 2638 -91 
Q 1578 -91 968 557 
Q 359 1206 359 2328 
Q 359 3453 968 4101 
Q 1578 4750 2638 4750 
Q 3056 4750 3426 4639 
Q 3797 4528 4122 4306 
z
" transform="scale(0.015625)"/>
      <path id="DejaVuSans-3a" d="M 750 794 
L 1409 794 
L 1409 0 
L 750 0 
L 750 794 
z
M 750 3309 
L 1409 3309 
L 1409 2516 
L 750 2516 
L 750 3309 
z
" transform="scale(0.015625)"/>
      <path id="DejaVuSans-30" d="M 2034 4250 
Q 1547 4250 1301 3770 
Q 1056 3291 1056 2328 
Q 1056 1369 1301 889 
Q 1547 409 2034 409 
Q 2525 409 2770 889 
Q 3016 1369 3016 2328 
Q 3016 3291 2770 3770 
Q 2525 4250 2034 4250 
z
M 2034 4750 
Q 2819 4750 3233 4129 
Q 3647 3509 3647 2328 
Q 3647 1150 3233 529 
Q 2819 -91 2034 -91 
Q 1250 -91 836 529 
Q 422 1150 422 2328 
Q 422 3509 836 4129 
Q 1250 4750 2034 4750 
z
" transform="scale(0.015625)"/>
      <path id="DejaVuSans-2e" d="M 684 794 
L 1344 794 
L 1344 0 
L 684 0 
L 684 794 
z
" transform="scale(0.015625)"/>
     </defs>
     <use xlink:href="#DejaVuSans-43"/>
     <use xlink:href="#DejaVuSans-6f" x="69.824219"/>
     <use xlink:href="#DejaVuSans-72" x="131.005859"/>
     <use xlink:href="#DejaVuSans-72" x="170.369141"/>
     <use xlink:href="#DejaVuSans-65" x="209.232422"/>
     <use xlink:href="#DejaVuSans-6c" x="270.755859"/>
     <use xlink:href="#DejaVuSans-61" x="298.539062"/>
     <use xlink:href="#DejaVuSans-74" x="359.818359"/>
     <use xlink:href="#DejaVuSans-69" x="399.027344"/>
     <use xlink:href="#DejaVuSans-6f" x="426.810547"/>
     <use xlink:href="#DejaVuSans-6e" x="487.992188"/>
     <use xlink:href="#DejaVuSans-20" x="551.371094"/>
     <use xlink:href="#DejaVuSans-69" x="583.158203"/>
     <use xlink:href="#DejaVuSans-6e" x="610.941406"/>
     <use xlink:href="#DejaVuSans-3a" x="674.320312"/>
     <use xlink:href="#DejaVuSans-20" x="708.011719"/>
     <use xlink:href="#DejaVuSans-30" x="739.798828"/>
     <use xlink:href="#DejaVuSans-2e" x="803.421875"/>
     <use xlink:href="#DejaVuSans-32" x="835.208984"/>
     <use xlink:href="#DejaVuSans-31" x="898.832031"/>
     <use xlink:href="#DejaVuSans-30" x="962.455078"/>
    </g>
   </g>
  </g>
 </g>
 <defs>
  <clipPath id="p028e894665">
   <rect x="69.68" y="23.76" width="626.56" height="475.72"/>
  </clipPath>
 </defs>
</svg>
