<?xml version="1.0" encoding="utf-8" standalone="no"?>
<!DOCTYPE svg PUBLIC "-//W3C//DTD SVG 1.1//EN"
  "http://www.w3.org/Graphics/SVG/1.1/DTD/svg11.dtd">
<svg xmlns:xlink="http://www.w3.org/1999/xlink" width="720pt" height="576pt" viewBox="0 0 720 576" xmlns="http://www.w3.org/2000/svg" version="1.1">
 <metadata>
  <rdf:RDF xmlns:dc="http://purl.org/dc/elements/1.1/" xmlns:cc="http://creativecommons.org/ns#" xmlns:rdf="http://www.w3.org/1999/02/22-rdf-syntax-ns#">
   <cc:Work>
    <dc:type rdf:resource="http://purl.org/dc/dcmitype/StillImage"/>
    <dc:date>2024-12-03T10:04:36.889716</dc:date>
    <dc:format>image/svg+xml</dc:format>
    <dc:creator>
     <cc:Agent>
      <dc:title>Matplotlib v3.8.4, https://matplotlib.org/</dc:title>
     </cc:Agent>
    </dc:creator>
   </cc:Work>
  </rdf:RDF>
 </metadata>
 <defs>
  <style type="text/css">*{stroke-linejoin: round; stroke-linecap: butt}</style>
 </defs>
 <g id="figure_1">
  <g id="patch_1">
   <path d="M 0 576 
L 720 576 
L 720 0 
L 0 0 
z
" style="fill: #ffffff"/>
  </g>
  <g id="axes_1">
   <g id="patch_2">
    <path d="M 54.2 534.04 
L 709.2 534.04 
L 709.2 25.44 
L 54.2 25.44 
z
" style="fill: #ffffff"/>
   </g>
   <g id="PathCollection_1">
    <defs>
     <path id="mc90c633ad3" d="M 0 3 
C 0.795609 3 1.55874 2.683901 2.12132 2.12132 
C 2.683901 1.55874 3 0.795609 3 0 
C 3 -0.795609 2.683901 -1.55874 2.12132 -2.12132 
C 1.55874 -2.683901 0.795609 -3 0 -3 
C -0.795609 -3 -1.55874 -2.683901 -2.12132 -2.12132 
C -2.683901 -1.55874 -3 -0.795609 -3 0 
C -3 0.795609 -2.683901 1.55874 -2.12132 2.12132 
C -1.55874 2.683901 -0.795609 3 0 3 
z
" style="stroke: #1f77b4"/>
    </defs>
    <g clip-path="url(#p2d848f7da9)">
     <use xlink:href="#mc90c633ad3" x="89.179538" y="353.499333" style="fill: #1f77b4; stroke: #1f77b4"/>
     <use xlink:href="#mc90c633ad3" x="90.587473" y="213.681372" style="fill: #1f77b4; stroke: #1f77b4"/>
     <use xlink:href="#mc90c633ad3" x="87.19538" y="410.844073" style="fill: #1f77b4; stroke: #1f77b4"/>
     <use xlink:href="#mc90c633ad3" x="88.878973" y="290.067221" style="fill: #1f77b4; stroke: #1f77b4"/>
     <use xlink:href="#mc90c633ad3" x="85.830813" y="443.746508" style="fill: #1f77b4; stroke: #1f77b4"/>
     <use xlink:href="#mc90c633ad3" x="86.518066" y="418.527451" style="fill: #1f77b4; stroke: #1f77b4"/>
     <use xlink:href="#mc90c633ad3" x="89.614624" y="269.34681" style="fill: #1f77b4; stroke: #1f77b4"/>
     <use xlink:href="#mc90c633ad3" x="85.404333" y="319.941538" style="fill: #1f77b4; stroke: #1f77b4"/>
     <use xlink:href="#mc90c633ad3" x="88.278166" y="428.653267" style="fill: #1f77b4; stroke: #1f77b4"/>
     <use xlink:href="#mc90c633ad3" x="88.451453" y="455.904887" style="fill: #1f77b4; stroke: #1f77b4"/>
     <use xlink:href="#mc90c633ad3" x="87.633628" y="444.910377" style="fill: #1f77b4; stroke: #1f77b4"/>
     <use xlink:href="#mc90c633ad3" x="86.546938" y="401.07214" style="fill: #1f77b4; stroke: #1f77b4"/>
     <use xlink:href="#mc90c633ad3" x="87.105419" y="368.225643" style="fill: #1f77b4; stroke: #1f77b4"/>
     <use xlink:href="#mc90c633ad3" x="86.827234" y="318.5782" style="fill: #1f77b4; stroke: #1f77b4"/>
     <use xlink:href="#mc90c633ad3" x="88.892388" y="263.57256" style="fill: #1f77b4; stroke: #1f77b4"/>
     <use xlink:href="#mc90c633ad3" x="89.604596" y="453.982817" style="fill: #1f77b4; stroke: #1f77b4"/>
     <use xlink:href="#mc90c633ad3" x="87.337818" y="358.915512" style="fill: #1f77b4; stroke: #1f77b4"/>
     <use xlink:href="#mc90c633ad3" x="87.904423" y="283.861721" style="fill: #1f77b4; stroke: #1f77b4"/>
     <use xlink:href="#mc90c633ad3" x="87.697503" y="341.57032" style="fill: #1f77b4; stroke: #1f77b4"/>
     <use xlink:href="#mc90c633ad3" x="88.258168" y="360.987609" style="fill: #1f77b4; stroke: #1f77b4"/>
     <use xlink:href="#mc90c633ad3" x="86.661279" y="314.272277" style="fill: #1f77b4; stroke: #1f77b4"/>
     <use xlink:href="#mc90c633ad3" x="86.993368" y="478.271862" style="fill: #1f77b4; stroke: #1f77b4"/>
     <use xlink:href="#mc90c633ad3" x="84.564807" y="295.046646" style="fill: #1f77b4; stroke: #1f77b4"/>
     <use xlink:href="#mc90c633ad3" x="85.999003" y="156.689166" style="fill: #1f77b4; stroke: #1f77b4"/>
     <use xlink:href="#mc90c633ad3" x="88.636757" y="330.252107" style="fill: #1f77b4; stroke: #1f77b4"/>
     <use xlink:href="#mc90c633ad3" x="85.552634" y="415.329547" style="fill: #1f77b4; stroke: #1f77b4"/>
     <use xlink:href="#mc90c633ad3" x="84.662021" y="469.281315" style="fill: #1f77b4; stroke: #1f77b4"/>
     <use xlink:href="#mc90c633ad3" x="88.054716" y="353.274513" style="fill: #1f77b4; stroke: #1f77b4"/>
     <use xlink:href="#mc90c633ad3" x="88.714447" y="274.710654" style="fill: #1f77b4; stroke: #1f77b4"/>
     <use xlink:href="#mc90c633ad3" x="86.81603" y="398.90542" style="fill: #1f77b4; stroke: #1f77b4"/>
     <use xlink:href="#mc90c633ad3" x="87.68102" y="442.857115" style="fill: #1f77b4; stroke: #1f77b4"/>
     <use xlink:href="#mc90c633ad3" x="87.566391" y="302.939081" style="fill: #1f77b4; stroke: #1f77b4"/>
     <use xlink:href="#mc90c633ad3" x="88.540288" y="335.822947" style="fill: #1f77b4; stroke: #1f77b4"/>
     <use xlink:href="#mc90c633ad3" x="89.788405" y="400.362333" style="fill: #1f77b4; stroke: #1f77b4"/>
     <use xlink:href="#mc90c633ad3" x="87.878787" y="370.290569" style="fill: #1f77b4; stroke: #1f77b4"/>
     <use xlink:href="#mc90c633ad3" x="88.929989" y="406.430373" style="fill: #1f77b4; stroke: #1f77b4"/>
     <use xlink:href="#mc90c633ad3" x="89.170109" y="402.736404" style="fill: #1f77b4; stroke: #1f77b4"/>
     <use xlink:href="#mc90c633ad3" x="89.388877" y="306.199049" style="fill: #1f77b4; stroke: #1f77b4"/>
     <use xlink:href="#mc90c633ad3" x="86.733137" y="299.594042" style="fill: #1f77b4; stroke: #1f77b4"/>
     <use xlink:href="#mc90c633ad3" x="101.928736" y="231.191912" style="fill: #1f77b4; stroke: #1f77b4"/>
     <use xlink:href="#mc90c633ad3" x="88.822068" y="385.972916" style="fill: #1f77b4; stroke: #1f77b4"/>
     <use xlink:href="#mc90c633ad3" x="87.684891" y="423.83848" style="fill: #1f77b4; stroke: #1f77b4"/>
     <use xlink:href="#mc90c633ad3" x="87.82306" y="324.276611" style="fill: #1f77b4; stroke: #1f77b4"/>
     <use xlink:href="#mc90c633ad3" x="88.363544" y="352.769625" style="fill: #1f77b4; stroke: #1f77b4"/>
     <use xlink:href="#mc90c633ad3" x="88.058572" y="408.043829" style="fill: #1f77b4; stroke: #1f77b4"/>
     <use xlink:href="#mc90c633ad3" x="87.947826" y="365.318422" style="fill: #1f77b4; stroke: #1f77b4"/>
     <use xlink:href="#mc90c633ad3" x="89.676583" y="274.954185" style="fill: #1f77b4; stroke: #1f77b4"/>
     <use xlink:href="#mc90c633ad3" x="86.344316" y="409.508518" style="fill: #1f77b4; stroke: #1f77b4"/>
     <use xlink:href="#mc90c633ad3" x="89.735946" y="395.148571" style="fill: #1f77b4; stroke: #1f77b4"/>
     <use xlink:href="#mc90c633ad3" x="84.341966" y="382.841762" style="fill: #1f77b4; stroke: #1f77b4"/>
     <use xlink:href="#mc90c633ad3" x="89.03333" y="229.483923" style="fill: #1f77b4; stroke: #1f77b4"/>
     <use xlink:href="#mc90c633ad3" x="89.866614" y="128.272808" style="fill: #1f77b4; stroke: #1f77b4"/>
     <use xlink:href="#mc90c633ad3" x="89.653371" y="266.324125" style="fill: #1f77b4; stroke: #1f77b4"/>
     <use xlink:href="#mc90c633ad3" x="87.022" y="451.212522" style="fill: #1f77b4; stroke: #1f77b4"/>
     <use xlink:href="#mc90c633ad3" x="86.618353" y="426.377191" style="fill: #1f77b4; stroke: #1f77b4"/>
     <use xlink:href="#mc90c633ad3" x="86.656355" y="451.218736" style="fill: #1f77b4; stroke: #1f77b4"/>
     <use xlink:href="#mc90c633ad3" x="87.381197" y="342.635341" style="fill: #1f77b4; stroke: #1f77b4"/>
     <use xlink:href="#mc90c633ad3" x="85.648943" y="249.548192" style="fill: #1f77b4; stroke: #1f77b4"/>
     <use xlink:href="#mc90c633ad3" x="86.642905" y="176.998175" style="fill: #1f77b4; stroke: #1f77b4"/>
     <use xlink:href="#mc90c633ad3" x="87.181969" y="194.293374" style="fill: #1f77b4; stroke: #1f77b4"/>
     <use xlink:href="#mc90c633ad3" x="85.900481" y="510.921818" style="fill: #1f77b4; stroke: #1f77b4"/>
     <use xlink:href="#mc90c633ad3" x="88.117218" y="363.302813" style="fill: #1f77b4; stroke: #1f77b4"/>
     <use xlink:href="#mc90c633ad3" x="85.227181" y="470.980251" style="fill: #1f77b4; stroke: #1f77b4"/>
     <use xlink:href="#mc90c633ad3" x="90.02213" y="380.494905" style="fill: #1f77b4; stroke: #1f77b4"/>
     <use xlink:href="#mc90c633ad3" x="88.210425" y="318.208198" style="fill: #1f77b4; stroke: #1f77b4"/>
     <use xlink:href="#mc90c633ad3" x="90.056762" y="308.614023" style="fill: #1f77b4; stroke: #1f77b4"/>
     <use xlink:href="#mc90c633ad3" x="85.748986" y="473.709039" style="fill: #1f77b4; stroke: #1f77b4"/>
     <use xlink:href="#mc90c633ad3" x="85.405586" y="351.009549" style="fill: #1f77b4; stroke: #1f77b4"/>
     <use xlink:href="#mc90c633ad3" x="88.155235" y="416.940784" style="fill: #1f77b4; stroke: #1f77b4"/>
     <use xlink:href="#mc90c633ad3" x="88.321106" y="357.84552" style="fill: #1f77b4; stroke: #1f77b4"/>
     <use xlink:href="#mc90c633ad3" x="87.573585" y="331.569111" style="fill: #1f77b4; stroke: #1f77b4"/>
     <use xlink:href="#mc90c633ad3" x="88.62478" y="330.560436" style="fill: #1f77b4; stroke: #1f77b4"/>
     <use xlink:href="#mc90c633ad3" x="86.475157" y="286.717921" style="fill: #1f77b4; stroke: #1f77b4"/>
     <use xlink:href="#mc90c633ad3" x="87.851505" y="337.314247" style="fill: #1f77b4; stroke: #1f77b4"/>
     <use xlink:href="#mc90c633ad3" x="87.728798" y="389.040232" style="fill: #1f77b4; stroke: #1f77b4"/>
     <use xlink:href="#mc90c633ad3" x="91.6125" y="387.081006" style="fill: #1f77b4; stroke: #1f77b4"/>
     <use xlink:href="#mc90c633ad3" x="118.278992" y="374.803364" style="fill: #1f77b4; stroke: #1f77b4"/>
     <use xlink:href="#mc90c633ad3" x="89.083144" y="307.256614" style="fill: #1f77b4; stroke: #1f77b4"/>
     <use xlink:href="#mc90c633ad3" x="88.773456" y="412.963411" style="fill: #1f77b4; stroke: #1f77b4"/>
     <use xlink:href="#mc90c633ad3" x="85.050491" y="419.460002" style="fill: #1f77b4; stroke: #1f77b4"/>
     <use xlink:href="#mc90c633ad3" x="84.801133" y="365.971544" style="fill: #1f77b4; stroke: #1f77b4"/>
     <use xlink:href="#mc90c633ad3" x="88.38242" y="402.557652" style="fill: #1f77b4; stroke: #1f77b4"/>
     <use xlink:href="#mc90c633ad3" x="85.521686" y="385.044733" style="fill: #1f77b4; stroke: #1f77b4"/>
     <use xlink:href="#mc90c633ad3" x="87.713925" y="384.096453" style="fill: #1f77b4; stroke: #1f77b4"/>
     <use xlink:href="#mc90c633ad3" x="90.449031" y="367.355795" style="fill: #1f77b4; stroke: #1f77b4"/>
     <use xlink:href="#mc90c633ad3" x="89.42901" y="321.801882" style="fill: #1f77b4; stroke: #1f77b4"/>
     <use xlink:href="#mc90c633ad3" x="85.867018" y="360.858441" style="fill: #1f77b4; stroke: #1f77b4"/>
     <use xlink:href="#mc90c633ad3" x="90.757721" y="307.207262" style="fill: #1f77b4; stroke: #1f77b4"/>
     <use xlink:href="#mc90c633ad3" x="91.451665" y="236.357564" style="fill: #1f77b4; stroke: #1f77b4"/>
     <use xlink:href="#mc90c633ad3" x="87.173207" y="329.164575" style="fill: #1f77b4; stroke: #1f77b4"/>
     <use xlink:href="#mc90c633ad3" x="90.027313" y="261.413793" style="fill: #1f77b4; stroke: #1f77b4"/>
     <use xlink:href="#mc90c633ad3" x="90.734099" y="326.911258" style="fill: #1f77b4; stroke: #1f77b4"/>
     <use xlink:href="#mc90c633ad3" x="86.377514" y="471.045936" style="fill: #1f77b4; stroke: #1f77b4"/>
     <use xlink:href="#mc90c633ad3" x="87.941036" y="456.142081" style="fill: #1f77b4; stroke: #1f77b4"/>
     <use xlink:href="#mc90c633ad3" x="86.781904" y="272.584836" style="fill: #1f77b4; stroke: #1f77b4"/>
     <use xlink:href="#mc90c633ad3" x="87.724531" y="364.964859" style="fill: #1f77b4; stroke: #1f77b4"/>
     <use xlink:href="#mc90c633ad3" x="86.026629" y="349.3894" style="fill: #1f77b4; stroke: #1f77b4"/>
     <use xlink:href="#mc90c633ad3" x="87.588615" y="397.533578" style="fill: #1f77b4; stroke: #1f77b4"/>
     <use xlink:href="#mc90c633ad3" x="86.521996" y="432.562293" style="fill: #1f77b4; stroke: #1f77b4"/>
     <use xlink:href="#mc90c633ad3" x="88.534084" y="349.729365" style="fill: #1f77b4; stroke: #1f77b4"/>
     <use xlink:href="#mc90c633ad3" x="87.618742" y="383.30715" style="fill: #1f77b4; stroke: #1f77b4"/>
     <use xlink:href="#mc90c633ad3" x="89.555398" y="438.792345" style="fill: #1f77b4; stroke: #1f77b4"/>
     <use xlink:href="#mc90c633ad3" x="87.332774" y="427.169442" style="fill: #1f77b4; stroke: #1f77b4"/>
     <use xlink:href="#mc90c633ad3" x="87.317908" y="498.840806" style="fill: #1f77b4; stroke: #1f77b4"/>
     <use xlink:href="#mc90c633ad3" x="89.968074" y="338.258692" style="fill: #1f77b4; stroke: #1f77b4"/>
     <use xlink:href="#mc90c633ad3" x="90.376126" y="205.366529" style="fill: #1f77b4; stroke: #1f77b4"/>
     <use xlink:href="#mc90c633ad3" x="90.458911" y="350.128233" style="fill: #1f77b4; stroke: #1f77b4"/>
     <use xlink:href="#mc90c633ad3" x="86.565633" y="363.730192" style="fill: #1f77b4; stroke: #1f77b4"/>
     <use xlink:href="#mc90c633ad3" x="88.326777" y="426.115853" style="fill: #1f77b4; stroke: #1f77b4"/>
     <use xlink:href="#mc90c633ad3" x="86.342796" y="328.726722" style="fill: #1f77b4; stroke: #1f77b4"/>
     <use xlink:href="#mc90c633ad3" x="87.35998" y="379.799726" style="fill: #1f77b4; stroke: #1f77b4"/>
     <use xlink:href="#mc90c633ad3" x="86.124935" y="465.64751" style="fill: #1f77b4; stroke: #1f77b4"/>
     <use xlink:href="#mc90c633ad3" x="87.799295" y="209.077558" style="fill: #1f77b4; stroke: #1f77b4"/>
     <use xlink:href="#mc90c633ad3" x="87.682738" y="372.370229" style="fill: #1f77b4; stroke: #1f77b4"/>
     <use xlink:href="#mc90c633ad3" x="86.42698" y="292.591303" style="fill: #1f77b4; stroke: #1f77b4"/>
     <use xlink:href="#mc90c633ad3" x="86.048931" y="158.132001" style="fill: #1f77b4; stroke: #1f77b4"/>
     <use xlink:href="#mc90c633ad3" x="90.738326" y="258.660026" style="fill: #1f77b4; stroke: #1f77b4"/>
     <use xlink:href="#mc90c633ad3" x="89.863099" y="505.249433" style="fill: #1f77b4; stroke: #1f77b4"/>
     <use xlink:href="#mc90c633ad3" x="679.427273" y="119.21267" style="fill: #1f77b4; stroke: #1f77b4"/>
     <use xlink:href="#mc90c633ad3" x="86.825038" y="433.393209" style="fill: #1f77b4; stroke: #1f77b4"/>
     <use xlink:href="#mc90c633ad3" x="83.972727" y="498.244208" style="fill: #1f77b4; stroke: #1f77b4"/>
     <use xlink:href="#mc90c633ad3" x="86.79899" y="396.647149" style="fill: #1f77b4; stroke: #1f77b4"/>
     <use xlink:href="#mc90c633ad3" x="85.248689" y="314.25172" style="fill: #1f77b4; stroke: #1f77b4"/>
     <use xlink:href="#mc90c633ad3" x="89.843706" y="303.277732" style="fill: #1f77b4; stroke: #1f77b4"/>
     <use xlink:href="#mc90c633ad3" x="88.982885" y="436.971537" style="fill: #1f77b4; stroke: #1f77b4"/>
     <use xlink:href="#mc90c633ad3" x="90.427112" y="281.402081" style="fill: #1f77b4; stroke: #1f77b4"/>
     <use xlink:href="#mc90c633ad3" x="88.745915" y="450.878327" style="fill: #1f77b4; stroke: #1f77b4"/>
     <use xlink:href="#mc90c633ad3" x="87.404914" y="308.621657" style="fill: #1f77b4; stroke: #1f77b4"/>
     <use xlink:href="#mc90c633ad3" x="87.648085" y="352.023905" style="fill: #1f77b4; stroke: #1f77b4"/>
     <use xlink:href="#mc90c633ad3" x="88.600267" y="395.766827" style="fill: #1f77b4; stroke: #1f77b4"/>
     <use xlink:href="#mc90c633ad3" x="90.35371" y="377.79255" style="fill: #1f77b4; stroke: #1f77b4"/>
     <use xlink:href="#mc90c633ad3" x="85.954606" y="464.64512" style="fill: #1f77b4; stroke: #1f77b4"/>
     <use xlink:href="#mc90c633ad3" x="84.916066" y="416.589103" style="fill: #1f77b4; stroke: #1f77b4"/>
     <use xlink:href="#mc90c633ad3" x="87.736767" y="457.525817" style="fill: #1f77b4; stroke: #1f77b4"/>
     <use xlink:href="#mc90c633ad3" x="86.747428" y="468.51564" style="fill: #1f77b4; stroke: #1f77b4"/>
     <use xlink:href="#mc90c633ad3" x="85.973921" y="385.748824" style="fill: #1f77b4; stroke: #1f77b4"/>
     <use xlink:href="#mc90c633ad3" x="86.477847" y="422.55313" style="fill: #1f77b4; stroke: #1f77b4"/>
     <use xlink:href="#mc90c633ad3" x="88.726822" y="340.020152" style="fill: #1f77b4; stroke: #1f77b4"/>
     <use xlink:href="#mc90c633ad3" x="85.20847" y="481.847136" style="fill: #1f77b4; stroke: #1f77b4"/>
     <use xlink:href="#mc90c633ad3" x="91.407339" y="302.077399" style="fill: #1f77b4; stroke: #1f77b4"/>
     <use xlink:href="#mc90c633ad3" x="88.154252" y="367.426735" style="fill: #1f77b4; stroke: #1f77b4"/>
     <use xlink:href="#mc90c633ad3" x="86.625888" y="353.270678" style="fill: #1f77b4; stroke: #1f77b4"/>
     <use xlink:href="#mc90c633ad3" x="87.173884" y="394.087526" style="fill: #1f77b4; stroke: #1f77b4"/>
     <use xlink:href="#mc90c633ad3" x="87.531141" y="422.699643" style="fill: #1f77b4; stroke: #1f77b4"/>
     <use xlink:href="#mc90c633ad3" x="87.531887" y="311.019978" style="fill: #1f77b4; stroke: #1f77b4"/>
     <use xlink:href="#mc90c633ad3" x="90.015606" y="305.805187" style="fill: #1f77b4; stroke: #1f77b4"/>
     <use xlink:href="#mc90c633ad3" x="88.891164" y="346.889675" style="fill: #1f77b4; stroke: #1f77b4"/>
     <use xlink:href="#mc90c633ad3" x="89.146208" y="347.80252" style="fill: #1f77b4; stroke: #1f77b4"/>
     <use xlink:href="#mc90c633ad3" x="90.614586" y="267.329426" style="fill: #1f77b4; stroke: #1f77b4"/>
     <use xlink:href="#mc90c633ad3" x="84.088707" y="435.873602" style="fill: #1f77b4; stroke: #1f77b4"/>
     <use xlink:href="#mc90c633ad3" x="89.529945" y="462.997756" style="fill: #1f77b4; stroke: #1f77b4"/>
     <use xlink:href="#mc90c633ad3" x="85.875774" y="239.285414" style="fill: #1f77b4; stroke: #1f77b4"/>
     <use xlink:href="#mc90c633ad3" x="88.61357" y="253.976645" style="fill: #1f77b4; stroke: #1f77b4"/>
     <use xlink:href="#mc90c633ad3" x="89.792351" y="298.481372" style="fill: #1f77b4; stroke: #1f77b4"/>
     <use xlink:href="#mc90c633ad3" x="86.774343" y="312.143619" style="fill: #1f77b4; stroke: #1f77b4"/>
     <use xlink:href="#mc90c633ad3" x="89.550387" y="381.50594" style="fill: #1f77b4; stroke: #1f77b4"/>
     <use xlink:href="#mc90c633ad3" x="88.271339" y="331.005675" style="fill: #1f77b4; stroke: #1f77b4"/>
     <use xlink:href="#mc90c633ad3" x="88.560554" y="422.224829" style="fill: #1f77b4; stroke: #1f77b4"/>
     <use xlink:href="#mc90c633ad3" x="89.212537" y="244.985636" style="fill: #1f77b4; stroke: #1f77b4"/>
     <use xlink:href="#mc90c633ad3" x="87.07492" y="384.090488" style="fill: #1f77b4; stroke: #1f77b4"/>
     <use xlink:href="#mc90c633ad3" x="87.042371" y="406.152294" style="fill: #1f77b4; stroke: #1f77b4"/>
     <use xlink:href="#mc90c633ad3" x="88.578056" y="417.552578" style="fill: #1f77b4; stroke: #1f77b4"/>
     <use xlink:href="#mc90c633ad3" x="86.953922" y="317.257611" style="fill: #1f77b4; stroke: #1f77b4"/>
     <use xlink:href="#mc90c633ad3" x="87.582101" y="374.279304" style="fill: #1f77b4; stroke: #1f77b4"/>
     <use xlink:href="#mc90c633ad3" x="87.642435" y="373.451406" style="fill: #1f77b4; stroke: #1f77b4"/>
     <use xlink:href="#mc90c633ad3" x="90.731576" y="325.820992" style="fill: #1f77b4; stroke: #1f77b4"/>
     <use xlink:href="#mc90c633ad3" x="87.292293" y="423.811727" style="fill: #1f77b4; stroke: #1f77b4"/>
     <use xlink:href="#mc90c633ad3" x="86.692303" y="450.827484" style="fill: #1f77b4; stroke: #1f77b4"/>
     <use xlink:href="#mc90c633ad3" x="86.704665" y="304.198921" style="fill: #1f77b4; stroke: #1f77b4"/>
     <use xlink:href="#mc90c633ad3" x="88.418771" y="359.091796" style="fill: #1f77b4; stroke: #1f77b4"/>
     <use xlink:href="#mc90c633ad3" x="87.800662" y="368.847876" style="fill: #1f77b4; stroke: #1f77b4"/>
     <use xlink:href="#mc90c633ad3" x="87.838478" y="407.644766" style="fill: #1f77b4; stroke: #1f77b4"/>
     <use xlink:href="#mc90c633ad3" x="86.626839" y="449.828059" style="fill: #1f77b4; stroke: #1f77b4"/>
     <use xlink:href="#mc90c633ad3" x="85.177986" y="325.033623" style="fill: #1f77b4; stroke: #1f77b4"/>
     <use xlink:href="#mc90c633ad3" x="86.149586" y="447.573765" style="fill: #1f77b4; stroke: #1f77b4"/>
     <use xlink:href="#mc90c633ad3" x="87.659937" y="379.80475" style="fill: #1f77b4; stroke: #1f77b4"/>
     <use xlink:href="#mc90c633ad3" x="86.377779" y="298.580787" style="fill: #1f77b4; stroke: #1f77b4"/>
     <use xlink:href="#mc90c633ad3" x="88.678295" y="264.641629" style="fill: #1f77b4; stroke: #1f77b4"/>
     <use xlink:href="#mc90c633ad3" x="87.586214" y="446.107319" style="fill: #1f77b4; stroke: #1f77b4"/>
     <use xlink:href="#mc90c633ad3" x="85.719989" y="391.738539" style="fill: #1f77b4; stroke: #1f77b4"/>
     <use xlink:href="#mc90c633ad3" x="86.676125" y="207.259786" style="fill: #1f77b4; stroke: #1f77b4"/>
     <use xlink:href="#mc90c633ad3" x="89.422352" y="357.802274" style="fill: #1f77b4; stroke: #1f77b4"/>
     <use xlink:href="#mc90c633ad3" x="88.209807" y="396.889847" style="fill: #1f77b4; stroke: #1f77b4"/>
     <use xlink:href="#mc90c633ad3" x="87.851776" y="478.690436" style="fill: #1f77b4; stroke: #1f77b4"/>
     <use xlink:href="#mc90c633ad3" x="87.135896" y="370.478996" style="fill: #1f77b4; stroke: #1f77b4"/>
     <use xlink:href="#mc90c633ad3" x="84.844895" y="442.788341" style="fill: #1f77b4; stroke: #1f77b4"/>
     <use xlink:href="#mc90c633ad3" x="89.837243" y="344.579762" style="fill: #1f77b4; stroke: #1f77b4"/>
     <use xlink:href="#mc90c633ad3" x="88.059593" y="475.112037" style="fill: #1f77b4; stroke: #1f77b4"/>
     <use xlink:href="#mc90c633ad3" x="86.320317" y="409.978344" style="fill: #1f77b4; stroke: #1f77b4"/>
     <use xlink:href="#mc90c633ad3" x="86.495283" y="400.451132" style="fill: #1f77b4; stroke: #1f77b4"/>
     <use xlink:href="#mc90c633ad3" x="87.737505" y="425.985601" style="fill: #1f77b4; stroke: #1f77b4"/>
     <use xlink:href="#mc90c633ad3" x="84.891013" y="361.167693" style="fill: #1f77b4; stroke: #1f77b4"/>
     <use xlink:href="#mc90c633ad3" x="89.278797" y="396.085684" style="fill: #1f77b4; stroke: #1f77b4"/>
     <use xlink:href="#mc90c633ad3" x="89.07837" y="376.992541" style="fill: #1f77b4; stroke: #1f77b4"/>
     <use xlink:href="#mc90c633ad3" x="87.660779" y="285.282081" style="fill: #1f77b4; stroke: #1f77b4"/>
     <use xlink:href="#mc90c633ad3" x="88.503877" y="229.404142" style="fill: #1f77b4; stroke: #1f77b4"/>
     <use xlink:href="#mc90c633ad3" x="84.979893" y="490.557084" style="fill: #1f77b4; stroke: #1f77b4"/>
     <use xlink:href="#mc90c633ad3" x="88.668242" y="405.492035" style="fill: #1f77b4; stroke: #1f77b4"/>
     <use xlink:href="#mc90c633ad3" x="85.37238" y="345.251454" style="fill: #1f77b4; stroke: #1f77b4"/>
     <use xlink:href="#mc90c633ad3" x="88.630782" y="48.558182" style="fill: #1f77b4; stroke: #1f77b4"/>
    </g>
   </g>
   <g id="matplotlib.axis_1">
    <g id="xtick_1">
     <g id="line2d_1">
      <defs>
       <path id="m87992b8599" d="M 0 0 
L 0 3.5 
" style="stroke: #000000; stroke-width: 0.8"/>
      </defs>
      <g>
       <use xlink:href="#m87992b8599" x="73.631949" y="534.04" style="stroke: #000000; stroke-width: 0.8"/>
      </g>
     </g>
     <g id="text_1">
      <!-- 0 -->
      <g transform="translate(70.450699 548.638438) scale(0.1 -0.1)">
       <defs>
        <path id="DejaVuSans-30" d="M 2034 4250 
Q 1547 4250 1301 3770 
Q 1056 3291 1056 2328 
Q 1056 1369 1301 889 
Q 1547 409 2034 409 
Q 2525 409 2770 889 
Q 3016 1369 3016 2328 
Q 3016 3291 2770 3770 
Q 2525 4250 2034 4250 
z
M 2034 4750 
Q 2819 4750 3233 4129 
Q 3647 3509 3647 2328 
Q 3647 1150 3233 529 
Q 2819 -91 2034 -91 
Q 1250 -91 836 529 
Q 422 1150 422 2328 
Q 422 3509 836 4129 
Q 1250 4750 2034 4750 
z
" transform="scale(0.015625)"/>
       </defs>
       <use xlink:href="#DejaVuSans-30"/>
      </g>
     </g>
    </g>
    <g id="xtick_2">
     <g id="line2d_2">
      <g>
       <use xlink:href="#m87992b8599" x="195.875187" y="534.04" style="stroke: #000000; stroke-width: 0.8"/>
      </g>
     </g>
     <g id="text_2">
      <!-- 1 -->
      <g transform="translate(192.693937 548.638438) scale(0.1 -0.1)">
       <defs>
        <path id="DejaVuSans-31" d="M 794 531 
L 1825 531 
L 1825 4091 
L 703 3866 
L 703 4441 
L 1819 4666 
L 2450 4666 
L 2450 531 
L 3481 531 
L 3481 0 
L 794 0 
L 794 531 
z
" transform="scale(0.015625)"/>
       </defs>
       <use xlink:href="#DejaVuSans-31"/>
      </g>
     </g>
    </g>
    <g id="xtick_3">
     <g id="line2d_3">
      <g>
       <use xlink:href="#m87992b8599" x="318.118424" y="534.04" style="stroke: #000000; stroke-width: 0.8"/>
      </g>
     </g>
     <g id="text_3">
      <!-- 2 -->
      <g transform="translate(314.937174 548.638438) scale(0.1 -0.1)">
       <defs>
        <path id="DejaVuSans-32" d="M 1228 531 
L 3431 531 
L 3431 0 
L 469 0 
L 469 531 
Q 828 903 1448 1529 
Q 2069 2156 2228 2338 
Q 2531 2678 2651 2914 
Q 2772 3150 2772 3378 
Q 2772 3750 2511 3984 
Q 2250 4219 1831 4219 
Q 1534 4219 1204 4116 
Q 875 4013 500 3803 
L 500 4441 
Q 881 4594 1212 4672 
Q 1544 4750 1819 4750 
Q 2544 4750 2975 4387 
Q 3406 4025 3406 3419 
Q 3406 3131 3298 2873 
Q 3191 2616 2906 2266 
Q 2828 2175 2409 1742 
Q 1991 1309 1228 531 
z
" transform="scale(0.015625)"/>
       </defs>
       <use xlink:href="#DejaVuSans-32"/>
      </g>
     </g>
    </g>
    <g id="xtick_4">
     <g id="line2d_4">
      <g>
       <use xlink:href="#m87992b8599" x="440.361662" y="534.04" style="stroke: #000000; stroke-width: 0.8"/>
      </g>
     </g>
     <g id="text_4">
      <!-- 3 -->
      <g transform="translate(437.180412 548.638438) scale(0.1 -0.1)">
       <defs>
        <path id="DejaVuSans-33" d="M 2597 2516 
Q 3050 2419 3304 2112 
Q 3559 1806 3559 1356 
Q 3559 666 3084 287 
Q 2609 -91 1734 -91 
Q 1441 -91 1130 -33 
Q 819 25 488 141 
L 488 750 
Q 750 597 1062 519 
Q 1375 441 1716 441 
Q 2309 441 2620 675 
Q 2931 909 2931 1356 
Q 2931 1769 2642 2001 
Q 2353 2234 1838 2234 
L 1294 2234 
L 1294 2753 
L 1863 2753 
Q 2328 2753 2575 2939 
Q 2822 3125 2822 3475 
Q 2822 3834 2567 4026 
Q 2313 4219 1838 4219 
Q 1578 4219 1281 4162 
Q 984 4106 628 3988 
L 628 4550 
Q 988 4650 1302 4700 
Q 1616 4750 1894 4750 
Q 2613 4750 3031 4423 
Q 3450 4097 3450 3541 
Q 3450 3153 3228 2886 
Q 3006 2619 2597 2516 
z
" transform="scale(0.015625)"/>
       </defs>
       <use xlink:href="#DejaVuSans-33"/>
      </g>
     </g>
    </g>
    <g id="xtick_5">
     <g id="line2d_5">
      <g>
       <use xlink:href="#m87992b8599" x="562.6049" y="534.04" style="stroke: #000000; stroke-width: 0.8"/>
      </g>
     </g>
     <g id="text_5">
      <!-- 4 -->
      <g transform="translate(559.42365 548.638438) scale(0.1 -0.1)">
       <defs>
        <path id="DejaVuSans-34" d="M 2419 4116 
L 825 1625 
L 2419 1625 
L 2419 4116 
z
M 2253 4666 
L 3047 4666 
L 3047 1625 
L 3713 1625 
L 3713 1100 
L 3047 1100 
L 3047 0 
L 2419 0 
L 2419 1100 
L 313 1100 
L 313 1709 
L 2253 4666 
z
" transform="scale(0.015625)"/>
       </defs>
       <use xlink:href="#DejaVuSans-34"/>
      </g>
     </g>
    </g>
    <g id="xtick_6">
     <g id="line2d_6">
      <g>
       <use xlink:href="#m87992b8599" x="684.848137" y="534.04" style="stroke: #000000; stroke-width: 0.8"/>
      </g>
     </g>
     <g id="text_6">
      <!-- 5 -->
      <g transform="translate(681.666887 548.638438) scale(0.1 -0.1)">
       <defs>
        <path id="DejaVuSans-35" d="M 691 4666 
L 3169 4666 
L 3169 4134 
L 1269 4134 
L 1269 2991 
Q 1406 3038 1543 3061 
Q 1681 3084 1819 3084 
Q 2600 3084 3056 2656 
Q 3513 2228 3513 1497 
Q 3513 744 3044 326 
Q 2575 -91 1722 -91 
Q 1428 -91 1123 -41 
Q 819 9 494 109 
L 494 744 
Q 775 591 1075 516 
Q 1375 441 1709 441 
Q 2250 441 2565 725 
Q 2881 1009 2881 1497 
Q 2881 1984 2565 2268 
Q 2250 2553 1709 2553 
Q 1456 2553 1204 2497 
Q 953 2441 691 2322 
L 691 4666 
z
" transform="scale(0.015625)"/>
       </defs>
       <use xlink:href="#DejaVuSans-35"/>
      </g>
     </g>
    </g>
    <g id="text_7">
     <!-- Uncertainties -->
     <g transform="translate(348.378125 562.316563) scale(0.1 -0.1)">
      <defs>
       <path id="DejaVuSans-55" d="M 556 4666 
L 1191 4666 
L 1191 1831 
Q 1191 1081 1462 751 
Q 1734 422 2344 422 
Q 2950 422 3222 751 
Q 3494 1081 3494 1831 
L 3494 4666 
L 4128 4666 
L 4128 1753 
Q 4128 841 3676 375 
Q 3225 -91 2344 -91 
Q 1459 -91 1007 375 
Q 556 841 556 1753 
L 556 4666 
z
" transform="scale(0.015625)"/>
       <path id="DejaVuSans-6e" d="M 3513 2113 
L 3513 0 
L 2938 0 
L 2938 2094 
Q 2938 2591 2744 2837 
Q 2550 3084 2163 3084 
Q 1697 3084 1428 2787 
Q 1159 2491 1159 1978 
L 1159 0 
L 581 0 
L 581 3500 
L 1159 3500 
L 1159 2956 
Q 1366 3272 1645 3428 
Q 1925 3584 2291 3584 
Q 2894 3584 3203 3211 
Q 3513 2838 3513 2113 
z
" transform="scale(0.015625)"/>
       <path id="DejaVuSans-63" d="M 3122 3366 
L 3122 2828 
Q 2878 2963 2633 3030 
Q 2388 3097 2138 3097 
Q 1578 3097 1268 2742 
Q 959 2388 959 1747 
Q 959 1106 1268 751 
Q 1578 397 2138 397 
Q 2388 397 2633 464 
Q 2878 531 3122 666 
L 3122 134 
Q 2881 22 2623 -34 
Q 2366 -91 2075 -91 
Q 1284 -91 818 406 
Q 353 903 353 1747 
Q 353 2603 823 3093 
Q 1294 3584 2113 3584 
Q 2378 3584 2631 3529 
Q 2884 3475 3122 3366 
z
" transform="scale(0.015625)"/>
       <path id="DejaVuSans-65" d="M 3597 1894 
L 3597 1613 
L 953 1613 
Q 991 1019 1311 708 
Q 1631 397 2203 397 
Q 2534 397 2845 478 
Q 3156 559 3463 722 
L 3463 178 
Q 3153 47 2828 -22 
Q 2503 -91 2169 -91 
Q 1331 -91 842 396 
Q 353 884 353 1716 
Q 353 2575 817 3079 
Q 1281 3584 2069 3584 
Q 2775 3584 3186 3129 
Q 3597 2675 3597 1894 
z
M 3022 2063 
Q 3016 2534 2758 2815 
Q 2500 3097 2075 3097 
Q 1594 3097 1305 2825 
Q 1016 2553 972 2059 
L 3022 2063 
z
" transform="scale(0.015625)"/>
       <path id="DejaVuSans-72" d="M 2631 2963 
Q 2534 3019 2420 3045 
Q 2306 3072 2169 3072 
Q 1681 3072 1420 2755 
Q 1159 2438 1159 1844 
L 1159 0 
L 581 0 
L 581 3500 
L 1159 3500 
L 1159 2956 
Q 1341 3275 1631 3429 
Q 1922 3584 2338 3584 
Q 2397 3584 2469 3576 
Q 2541 3569 2628 3553 
L 2631 2963 
z
" transform="scale(0.015625)"/>
       <path id="DejaVuSans-74" d="M 1172 4494 
L 1172 3500 
L 2356 3500 
L 2356 3053 
L 1172 3053 
L 1172 1153 
Q 1172 725 1289 603 
Q 1406 481 1766 481 
L 2356 481 
L 2356 0 
L 1766 0 
Q 1100 0 847 248 
Q 594 497 594 1153 
L 594 3053 
L 172 3053 
L 172 3500 
L 594 3500 
L 594 4494 
L 1172 4494 
z
" transform="scale(0.015625)"/>
       <path id="DejaVuSans-61" d="M 2194 1759 
Q 1497 1759 1228 1600 
Q 959 1441 959 1056 
Q 959 750 1161 570 
Q 1363 391 1709 391 
Q 2188 391 2477 730 
Q 2766 1069 2766 1631 
L 2766 1759 
L 2194 1759 
z
M 3341 1997 
L 3341 0 
L 2766 0 
L 2766 531 
Q 2569 213 2275 61 
Q 1981 -91 1556 -91 
Q 1019 -91 701 211 
Q 384 513 384 1019 
Q 384 1609 779 1909 
Q 1175 2209 1959 2209 
L 2766 2209 
L 2766 2266 
Q 2766 2663 2505 2880 
Q 2244 3097 1772 3097 
Q 1472 3097 1187 3025 
Q 903 2953 641 2809 
L 641 3341 
Q 956 3463 1253 3523 
Q 1550 3584 1831 3584 
Q 2591 3584 2966 3190 
Q 3341 2797 3341 1997 
z
" transform="scale(0.015625)"/>
       <path id="DejaVuSans-69" d="M 603 3500 
L 1178 3500 
L 1178 0 
L 603 0 
L 603 3500 
z
M 603 4863 
L 1178 4863 
L 1178 4134 
L 603 4134 
L 603 4863 
z
" transform="scale(0.015625)"/>
       <path id="DejaVuSans-73" d="M 2834 3397 
L 2834 2853 
Q 2591 2978 2328 3040 
Q 2066 3103 1784 3103 
Q 1356 3103 1142 2972 
Q 928 2841 928 2578 
Q 928 2378 1081 2264 
Q 1234 2150 1697 2047 
L 1894 2003 
Q 2506 1872 2764 1633 
Q 3022 1394 3022 966 
Q 3022 478 2636 193 
Q 2250 -91 1575 -91 
Q 1294 -91 989 -36 
Q 684 19 347 128 
L 347 722 
Q 666 556 975 473 
Q 1284 391 1588 391 
Q 1994 391 2212 530 
Q 2431 669 2431 922 
Q 2431 1156 2273 1281 
Q 2116 1406 1581 1522 
L 1381 1569 
Q 847 1681 609 1914 
Q 372 2147 372 2553 
Q 372 3047 722 3315 
Q 1072 3584 1716 3584 
Q 2034 3584 2315 3537 
Q 2597 3491 2834 3397 
z
" transform="scale(0.015625)"/>
      </defs>
      <use xlink:href="#DejaVuSans-55"/>
      <use xlink:href="#DejaVuSans-6e" x="73.193359"/>
      <use xlink:href="#DejaVuSans-63" x="136.572266"/>
      <use xlink:href="#DejaVuSans-65" x="191.552734"/>
      <use xlink:href="#DejaVuSans-72" x="253.076172"/>
      <use xlink:href="#DejaVuSans-74" x="294.189453"/>
      <use xlink:href="#DejaVuSans-61" x="333.398438"/>
      <use xlink:href="#DejaVuSans-69" x="394.677734"/>
      <use xlink:href="#DejaVuSans-6e" x="422.460938"/>
      <use xlink:href="#DejaVuSans-74" x="485.839844"/>
      <use xlink:href="#DejaVuSans-69" x="525.048828"/>
      <use xlink:href="#DejaVuSans-65" x="552.832031"/>
      <use xlink:href="#DejaVuSans-73" x="614.355469"/>
     </g>
    </g>
   </g>
   <g id="matplotlib.axis_2">
    <g id="ytick_1">
     <g id="line2d_7">
      <defs>
       <path id="ma944a8ab23" d="M 0 0 
L -3.5 0 
" style="stroke: #000000; stroke-width: 0.8"/>
      </defs>
      <g>
       <use xlink:href="#ma944a8ab23" x="54.2" y="492.580883" style="stroke: #000000; stroke-width: 0.8"/>
      </g>
     </g>
     <g id="text_8">
      <!-- 0.15 -->
      <g transform="translate(24.934375 496.380102) scale(0.1 -0.1)">
       <defs>
        <path id="DejaVuSans-2e" d="M 684 794 
L 1344 794 
L 1344 0 
L 684 0 
L 684 794 
z
" transform="scale(0.015625)"/>
       </defs>
       <use xlink:href="#DejaVuSans-30"/>
       <use xlink:href="#DejaVuSans-2e" x="63.623047"/>
       <use xlink:href="#DejaVuSans-31" x="95.410156"/>
       <use xlink:href="#DejaVuSans-35" x="159.033203"/>
      </g>
     </g>
    </g>
    <g id="ytick_2">
     <g id="line2d_8">
      <g>
       <use xlink:href="#ma944a8ab23" x="54.2" y="433.01263" style="stroke: #000000; stroke-width: 0.8"/>
      </g>
     </g>
     <g id="text_9">
      <!-- 0.20 -->
      <g transform="translate(24.934375 436.811848) scale(0.1 -0.1)">
       <use xlink:href="#DejaVuSans-30"/>
       <use xlink:href="#DejaVuSans-2e" x="63.623047"/>
       <use xlink:href="#DejaVuSans-32" x="95.410156"/>
       <use xlink:href="#DejaVuSans-30" x="159.033203"/>
      </g>
     </g>
    </g>
    <g id="ytick_3">
     <g id="line2d_9">
      <g>
       <use xlink:href="#ma944a8ab23" x="54.2" y="373.444376" style="stroke: #000000; stroke-width: 0.8"/>
      </g>
     </g>
     <g id="text_10">
      <!-- 0.25 -->
      <g transform="translate(24.934375 377.243594) scale(0.1 -0.1)">
       <use xlink:href="#DejaVuSans-30"/>
       <use xlink:href="#DejaVuSans-2e" x="63.623047"/>
       <use xlink:href="#DejaVuSans-32" x="95.410156"/>
       <use xlink:href="#DejaVuSans-35" x="159.033203"/>
      </g>
     </g>
    </g>
    <g id="ytick_4">
     <g id="line2d_10">
      <g>
       <use xlink:href="#ma944a8ab23" x="54.2" y="313.876122" style="stroke: #000000; stroke-width: 0.8"/>
      </g>
     </g>
     <g id="text_11">
      <!-- 0.30 -->
      <g transform="translate(24.934375 317.675341) scale(0.1 -0.1)">
       <use xlink:href="#DejaVuSans-30"/>
       <use xlink:href="#DejaVuSans-2e" x="63.623047"/>
       <use xlink:href="#DejaVuSans-33" x="95.410156"/>
       <use xlink:href="#DejaVuSans-30" x="159.033203"/>
      </g>
     </g>
    </g>
    <g id="ytick_5">
     <g id="line2d_11">
      <g>
       <use xlink:href="#ma944a8ab23" x="54.2" y="254.307868" style="stroke: #000000; stroke-width: 0.8"/>
      </g>
     </g>
     <g id="text_12">
      <!-- 0.35 -->
      <g transform="translate(24.934375 258.107087) scale(0.1 -0.1)">
       <use xlink:href="#DejaVuSans-30"/>
       <use xlink:href="#DejaVuSans-2e" x="63.623047"/>
       <use xlink:href="#DejaVuSans-33" x="95.410156"/>
       <use xlink:href="#DejaVuSans-35" x="159.033203"/>
      </g>
     </g>
    </g>
    <g id="ytick_6">
     <g id="line2d_12">
      <g>
       <use xlink:href="#ma944a8ab23" x="54.2" y="194.739614" style="stroke: #000000; stroke-width: 0.8"/>
      </g>
     </g>
     <g id="text_13">
      <!-- 0.40 -->
      <g transform="translate(24.934375 198.538833) scale(0.1 -0.1)">
       <use xlink:href="#DejaVuSans-30"/>
       <use xlink:href="#DejaVuSans-2e" x="63.623047"/>
       <use xlink:href="#DejaVuSans-34" x="95.410156"/>
       <use xlink:href="#DejaVuSans-30" x="159.033203"/>
      </g>
     </g>
    </g>
    <g id="ytick_7">
     <g id="line2d_13">
      <g>
       <use xlink:href="#ma944a8ab23" x="54.2" y="135.17136" style="stroke: #000000; stroke-width: 0.8"/>
      </g>
     </g>
     <g id="text_14">
      <!-- 0.45 -->
      <g transform="translate(24.934375 138.970579) scale(0.1 -0.1)">
       <use xlink:href="#DejaVuSans-30"/>
       <use xlink:href="#DejaVuSans-2e" x="63.623047"/>
       <use xlink:href="#DejaVuSans-34" x="95.410156"/>
       <use xlink:href="#DejaVuSans-35" x="159.033203"/>
      </g>
     </g>
    </g>
    <g id="ytick_8">
     <g id="line2d_14">
      <g>
       <use xlink:href="#ma944a8ab23" x="54.2" y="75.603106" style="stroke: #000000; stroke-width: 0.8"/>
      </g>
     </g>
     <g id="text_15">
      <!-- 0.50 -->
      <g transform="translate(24.934375 79.402325) scale(0.1 -0.1)">
       <use xlink:href="#DejaVuSans-30"/>
       <use xlink:href="#DejaVuSans-2e" x="63.623047"/>
       <use xlink:href="#DejaVuSans-35" x="95.410156"/>
       <use xlink:href="#DejaVuSans-30" x="159.033203"/>
      </g>
     </g>
    </g>
    <g id="text_16">
     <!-- Force Errors -->
     <g transform="translate(18.854688 309.641563) rotate(-90) scale(0.1 -0.1)">
      <defs>
       <path id="DejaVuSans-46" d="M 628 4666 
L 3309 4666 
L 3309 4134 
L 1259 4134 
L 1259 2759 
L 3109 2759 
L 3109 2228 
L 1259 2228 
L 1259 0 
L 628 0 
L 628 4666 
z
" transform="scale(0.015625)"/>
       <path id="DejaVuSans-6f" d="M 1959 3097 
Q 1497 3097 1228 2736 
Q 959 2375 959 1747 
Q 959 1119 1226 758 
Q 1494 397 1959 397 
Q 2419 397 2687 759 
Q 2956 1122 2956 1747 
Q 2956 2369 2687 2733 
Q 2419 3097 1959 3097 
z
M 1959 3584 
Q 2709 3584 3137 3096 
Q 3566 2609 3566 1747 
Q 3566 888 3137 398 
Q 2709 -91 1959 -91 
Q 1206 -91 779 398 
Q 353 888 353 1747 
Q 353 2609 779 3096 
Q 1206 3584 1959 3584 
z
" transform="scale(0.015625)"/>
       <path id="DejaVuSans-20" transform="scale(0.015625)"/>
       <path id="DejaVuSans-45" d="M 628 4666 
L 3578 4666 
L 3578 4134 
L 1259 4134 
L 1259 2753 
L 3481 2753 
L 3481 2222 
L 1259 2222 
L 1259 531 
L 3634 531 
L 3634 0 
L 628 0 
L 628 4666 
z
" transform="scale(0.015625)"/>
      </defs>
      <use xlink:href="#DejaVuSans-46"/>
      <use xlink:href="#DejaVuSans-6f" x="53.894531"/>
      <use xlink:href="#DejaVuSans-72" x="115.076172"/>
      <use xlink:href="#DejaVuSans-63" x="153.939453"/>
      <use xlink:href="#DejaVuSans-65" x="208.919922"/>
      <use xlink:href="#DejaVuSans-20" x="270.443359"/>
      <use xlink:href="#DejaVuSans-45" x="302.230469"/>
      <use xlink:href="#DejaVuSans-72" x="365.414062"/>
      <use xlink:href="#DejaVuSans-72" x="404.777344"/>
      <use xlink:href="#DejaVuSans-6f" x="443.640625"/>
      <use xlink:href="#DejaVuSans-72" x="504.822266"/>
      <use xlink:href="#DejaVuSans-73" x="545.935547"/>
     </g>
    </g>
   </g>
   <g id="line2d_15">
    <path d="M 89.179538 360.597369 
L 679.427273 106.423573 
L 83.972727 362.839538 
L 88.630782 360.833658 
" clip-path="url(#p2d848f7da9)" style="fill: none; stroke: #ff0000; stroke-width: 1.5; stroke-linecap: square"/>
   </g>
   <g id="patch_3">
    <path d="M 54.2 534.04 
L 54.2 25.44 
" style="fill: none; stroke: #000000; stroke-width: 0.8; stroke-linejoin: miter; stroke-linecap: square"/>
   </g>
   <g id="patch_4">
    <path d="M 709.2 534.04 
L 709.2 25.44 
" style="fill: none; stroke: #000000; stroke-width: 0.8; stroke-linejoin: miter; stroke-linecap: square"/>
   </g>
   <g id="patch_5">
    <path d="M 54.2 534.04 
L 709.2 534.04 
" style="fill: none; stroke: #000000; stroke-width: 0.8; stroke-linejoin: miter; stroke-linecap: square"/>
   </g>
   <g id="patch_6">
    <path d="M 54.2 25.44 
L 709.2 25.44 
" style="fill: none; stroke: #000000; stroke-width: 0.8; stroke-linejoin: miter; stroke-linecap: square"/>
   </g>
   <g id="text_17">
    <!-- Uncertainty Calibration -->
    <g transform="translate(312.094375 19.44) scale(0.12 -0.12)">
     <defs>
      <path id="DejaVuSans-79" d="M 2059 -325 
Q 1816 -950 1584 -1140 
Q 1353 -1331 966 -1331 
L 506 -1331 
L 506 -850 
L 844 -850 
Q 1081 -850 1212 -737 
Q 1344 -625 1503 -206 
L 1606 56 
L 191 3500 
L 800 3500 
L 1894 763 
L 2988 3500 
L 3597 3500 
L 2059 -325 
z
" transform="scale(0.015625)"/>
      <path id="DejaVuSans-43" d="M 4122 4306 
L 4122 3641 
Q 3803 3938 3442 4084 
Q 3081 4231 2675 4231 
Q 1875 4231 1450 3742 
Q 1025 3253 1025 2328 
Q 1025 1406 1450 917 
Q 1875 428 2675 428 
Q 3081 428 3442 575 
Q 3803 722 4122 1019 
L 4122 359 
Q 3791 134 3420 21 
Q 3050 -91 2638 -91 
Q 1578 -91 968 557 
Q 359 1206 359 2328 
Q 359 3453 968 4101 
Q 1578 4750 2638 4750 
Q 3056 4750 3426 4639 
Q 3797 4528 4122 4306 
z
" transform="scale(0.015625)"/>
      <path id="DejaVuSans-6c" d="M 603 4863 
L 1178 4863 
L 1178 0 
L 603 0 
L 603 4863 
z
" transform="scale(0.015625)"/>
      <path id="DejaVuSans-62" d="M 3116 1747 
Q 3116 2381 2855 2742 
Q 2594 3103 2138 3103 
Q 1681 3103 1420 2742 
Q 1159 2381 1159 1747 
Q 1159 1113 1420 752 
Q 1681 391 2138 391 
Q 2594 391 2855 752 
Q 3116 1113 3116 1747 
z
M 1159 2969 
Q 1341 3281 1617 3432 
Q 1894 3584 2278 3584 
Q 2916 3584 3314 3078 
Q 3713 2572 3713 1747 
Q 3713 922 3314 415 
Q 2916 -91 2278 -91 
Q 1894 -91 1617 61 
Q 1341 213 1159 525 
L 1159 0 
L 581 0 
L 581 4863 
L 1159 4863 
L 1159 2969 
z
" transform="scale(0.015625)"/>
     </defs>
     <use xlink:href="#DejaVuSans-55"/>
     <use xlink:href="#DejaVuSans-6e" x="73.193359"/>
     <use xlink:href="#DejaVuSans-63" x="136.572266"/>
     <use xlink:href="#DejaVuSans-65" x="191.552734"/>
     <use xlink:href="#DejaVuSans-72" x="253.076172"/>
     <use xlink:href="#DejaVuSans-74" x="294.189453"/>
     <use xlink:href="#DejaVuSans-61" x="333.398438"/>
     <use xlink:href="#DejaVuSans-69" x="394.677734"/>
     <use xlink:href="#DejaVuSans-6e" x="422.460938"/>
     <use xlink:href="#DejaVuSans-74" x="485.839844"/>
     <use xlink:href="#DejaVuSans-79" x="525.048828"/>
     <use xlink:href="#DejaVuSans-20" x="584.228516"/>
     <use xlink:href="#DejaVuSans-43" x="616.015625"/>
     <use xlink:href="#DejaVuSans-61" x="685.839844"/>
     <use xlink:href="#DejaVuSans-6c" x="747.119141"/>
     <use xlink:href="#DejaVuSans-69" x="774.902344"/>
     <use xlink:href="#DejaVuSans-62" x="802.685547"/>
     <use xlink:href="#DejaVuSans-72" x="866.162109"/>
     <use xlink:href="#DejaVuSans-61" x="907.275391"/>
     <use xlink:href="#DejaVuSans-74" x="968.554688"/>
     <use xlink:href="#DejaVuSans-69" x="1007.763672"/>
     <use xlink:href="#DejaVuSans-6f" x="1035.546875"/>
     <use xlink:href="#DejaVuSans-6e" x="1096.728516"/>
    </g>
   </g>
   <g id="legend_1">
    <g id="patch_7">
     <path d="M 591.489062 62.79625 
L 702.2 62.79625 
Q 704.2 62.79625 704.2 60.79625 
L 704.2 32.44 
Q 704.2 30.44 702.2 30.44 
L 591.489062 30.44 
Q 589.489062 30.44 589.489062 32.44 
L 589.489062 60.79625 
Q 589.489062 62.79625 591.489062 62.79625 
z
" style="fill: #ffffff; opacity: 0.8; stroke: #cccccc; stroke-linejoin: miter"/>
    </g>
    <g id="PathCollection_2">
     <g>
      <use xlink:href="#mc90c633ad3" x="603.489062" y="39.413437" style="fill: #1f77b4; stroke: #1f77b4"/>
     </g>
    </g>
    <g id="text_18">
     <!-- Data -->
     <g transform="translate(621.489062 42.038437) scale(0.1 -0.1)">
      <defs>
       <path id="DejaVuSans-44" d="M 1259 4147 
L 1259 519 
L 2022 519 
Q 2988 519 3436 956 
Q 3884 1394 3884 2338 
Q 3884 3275 3436 3711 
Q 2988 4147 2022 4147 
L 1259 4147 
z
M 628 4666 
L 1925 4666 
Q 3281 4666 3915 4102 
Q 4550 3538 4550 2338 
Q 4550 1131 3912 565 
Q 3275 0 1925 0 
L 628 0 
L 628 4666 
z
" transform="scale(0.015625)"/>
      </defs>
      <use xlink:href="#DejaVuSans-44"/>
      <use xlink:href="#DejaVuSans-61" x="77.001953"/>
      <use xlink:href="#DejaVuSans-74" x="138.28125"/>
      <use xlink:href="#DejaVuSans-61" x="177.490234"/>
     </g>
    </g>
    <g id="line2d_16">
     <path d="M 593.489062 53.216563 
L 603.489062 53.216563 
L 613.489062 53.216563 
" style="fill: none; stroke: #ff0000; stroke-width: 1.5; stroke-linecap: square"/>
    </g>
    <g id="text_19">
     <!-- Regression Line -->
     <g transform="translate(621.489062 56.716563) scale(0.1 -0.1)">
      <defs>
       <path id="DejaVuSans-52" d="M 2841 2188 
Q 3044 2119 3236 1894 
Q 3428 1669 3622 1275 
L 4263 0 
L 3584 0 
L 2988 1197 
Q 2756 1666 2539 1819 
Q 2322 1972 1947 1972 
L 1259 1972 
L 1259 0 
L 628 0 
L 628 4666 
L 2053 4666 
Q 2853 4666 3247 4331 
Q 3641 3997 3641 3322 
Q 3641 2881 3436 2590 
Q 3231 2300 2841 2188 
z
M 1259 4147 
L 1259 2491 
L 2053 2491 
Q 2509 2491 2742 2702 
Q 2975 2913 2975 3322 
Q 2975 3731 2742 3939 
Q 2509 4147 2053 4147 
L 1259 4147 
z
" transform="scale(0.015625)"/>
       <path id="DejaVuSans-67" d="M 2906 1791 
Q 2906 2416 2648 2759 
Q 2391 3103 1925 3103 
Q 1463 3103 1205 2759 
Q 947 2416 947 1791 
Q 947 1169 1205 825 
Q 1463 481 1925 481 
Q 2391 481 2648 825 
Q 2906 1169 2906 1791 
z
M 3481 434 
Q 3481 -459 3084 -895 
Q 2688 -1331 1869 -1331 
Q 1566 -1331 1297 -1286 
Q 1028 -1241 775 -1147 
L 775 -588 
Q 1028 -725 1275 -790 
Q 1522 -856 1778 -856 
Q 2344 -856 2625 -561 
Q 2906 -266 2906 331 
L 2906 616 
Q 2728 306 2450 153 
Q 2172 0 1784 0 
Q 1141 0 747 490 
Q 353 981 353 1791 
Q 353 2603 747 3093 
Q 1141 3584 1784 3584 
Q 2172 3584 2450 3431 
Q 2728 3278 2906 2969 
L 2906 3500 
L 3481 3500 
L 3481 434 
z
" transform="scale(0.015625)"/>
       <path id="DejaVuSans-4c" d="M 628 4666 
L 1259 4666 
L 1259 531 
L 3531 531 
L 3531 0 
L 628 0 
L 628 4666 
z
" transform="scale(0.015625)"/>
      </defs>
      <use xlink:href="#DejaVuSans-52"/>
      <use xlink:href="#DejaVuSans-65" x="64.982422"/>
      <use xlink:href="#DejaVuSans-67" x="126.505859"/>
      <use xlink:href="#DejaVuSans-72" x="189.982422"/>
      <use xlink:href="#DejaVuSans-65" x="228.845703"/>
      <use xlink:href="#DejaVuSans-73" x="290.369141"/>
      <use xlink:href="#DejaVuSans-73" x="342.46875"/>
      <use xlink:href="#DejaVuSans-69" x="394.568359"/>
      <use xlink:href="#DejaVuSans-6f" x="422.351562"/>
      <use xlink:href="#DejaVuSans-6e" x="483.533203"/>
      <use xlink:href="#DejaVuSans-20" x="546.912109"/>
      <use xlink:href="#DejaVuSans-4c" x="578.699219"/>
      <use xlink:href="#DejaVuSans-69" x="634.412109"/>
      <use xlink:href="#DejaVuSans-6e" x="662.195312"/>
      <use xlink:href="#DejaVuSans-65" x="725.574219"/>
     </g>
    </g>
   </g>
  </g>
 </g>
 <defs>
  <clipPath id="p2d848f7da9">
   <rect x="54.2" y="25.44" width="655" height="508.6"/>
  </clipPath>
 </defs>
</svg>
