<?xml version="1.0" encoding="utf-8" standalone="no"?>
<!DOCTYPE svg PUBLIC "-//W3C//DTD SVG 1.1//EN"
  "http://www.w3.org/Graphics/SVG/1.1/DTD/svg11.dtd">
<svg xmlns:xlink="http://www.w3.org/1999/xlink" width="720pt" height="576pt" viewBox="0 0 720 576" xmlns="http://www.w3.org/2000/svg" version="1.1">
 <metadata>
  <rdf:RDF xmlns:dc="http://purl.org/dc/elements/1.1/" xmlns:cc="http://creativecommons.org/ns#" xmlns:rdf="http://www.w3.org/1999/02/22-rdf-syntax-ns#">
   <cc:Work>
    <dc:type rdf:resource="http://purl.org/dc/dcmitype/StillImage"/>
    <dc:date>2024-12-07T13:04:19.761772</dc:date>
    <dc:format>image/svg+xml</dc:format>
    <dc:creator>
     <cc:Agent>
      <dc:title>Matplotlib v3.8.4, https://matplotlib.org/</dc:title>
     </cc:Agent>
    </dc:creator>
   </cc:Work>
  </rdf:RDF>
 </metadata>
 <defs>
  <style type="text/css">*{stroke-linejoin: round; stroke-linecap: butt}</style>
 </defs>
 <g id="figure_1">
  <g id="patch_1">
   <path d="M 0 576 
L 720 576 
L 720 0 
L 0 0 
z
" style="fill: #ffffff"/>
  </g>
  <g id="axes_1">
   <g id="patch_2">
    <path d="M 104.69 499.48 
L 696.24 499.48 
L 696.24 23.76 
L 104.69 23.76 
z
" style="fill: #ffffff"/>
   </g>
   <g id="QuadContourSet_1">
    <path d="M 416.600119 494.054292 
L 418.261262 494.197955 
L 419.922405 494.201212 
L 421.583549 494.195488 
L 423.244692 494.208788 
L 424.905835 494.177155 
L 426.566978 494.024067 
L 428.228122 493.72418 
L 428.490243 493.664897 
L 429.889265 493.401351 
L 431.550408 493.091878 
L 433.211551 492.859147 
L 434.872695 492.73428 
L 436.533838 492.6512 
L 438.194981 492.505187 
L 439.856124 492.256413 
L 440.005868 492.229173 
L 441.517268 492.001482 
L 443.178411 491.750076 
L 444.839554 491.492711 
L 446.500698 491.130735 
L 447.415736 490.79345 
L 448.161841 490.542076 
L 449.822984 489.628634 
L 450.180718 489.357726 
L 451.484127 488.361704 
L 451.958707 487.922002 
L 453.145271 486.759735 
L 453.4098 486.486278 
L 454.707485 485.050554 
L 454.806414 484.937868 
L 456.021325 483.61483 
L 456.467557 483.092133 
L 457.353856 482.179107 
L 458.1287 481.327416 
L 458.760464 480.743383 
L 459.789844 479.752721 
L 460.334599 479.307659 
L 461.450987 478.389301 
L 462.139247 477.871935 
L 463.11213 477.152724 
L 464.054181 476.436211 
L 464.773273 475.895534 
L 465.820932 475.000488 
L 466.434417 474.461673 
L 467.312718 473.564764 
L 468.09556 472.689768 
L 468.550647 472.12904 
L 469.578691 470.693316 
L 469.756703 470.420247 
L 470.51908 469.257592 
L 471.322753 467.821868 
L 471.417846 467.643518 
L 472.182453 466.386145 
L 472.972563 464.950421 
L 473.07899 464.7528 
L 473.912695 463.514697 
L 474.740133 462.193765 
L 474.829677 462.078973 
L 475.891636 460.643249 
L 476.401276 459.869728 
L 476.893402 459.207525 
L 477.804126 457.771802 
L 478.062419 457.293931 
L 478.602358 456.336078 
L 479.28212 454.900354 
L 479.723563 453.850716 
L 479.89735 453.46463 
L 480.519804 452.028906 
L 481.140299 450.593182 
L 481.384706 450.050657 
L 481.841476 449.157459 
L 482.576869 447.721735 
L 483.045849 446.776871 
L 483.321655 446.286011 
L 484.026975 444.850287 
L 484.580722 443.414563 
L 484.706992 442.949018 
L 484.977832 441.97884 
L 485.179157 440.543116 
L 485.205745 439.107392 
L 485.108341 437.671668 
L 484.966428 436.235944 
L 484.873035 434.80022 
L 484.894141 433.364497 
L 485.04224 431.928773 
L 485.289093 430.493049 
L 485.593847 429.057325 
L 485.918466 427.621601 
L 486.22774 426.185877 
L 486.368136 425.372717 
L 486.493495 424.750154 
L 486.665003 423.31443 
L 486.683306 421.878706 
L 486.505394 420.442982 
L 486.368136 419.912828 
L 486.140651 419.007258 
L 485.617243 417.571534 
L 484.925199 416.135811 
L 484.706992 415.748998 
L 484.09517 414.700087 
L 483.045849 413.264363 
L 483.045849 413.264363 
L 482.011562 411.828639 
L 481.384706 410.706546 
L 481.253472 410.392915 
L 480.965957 408.957192 
L 480.93671 407.521468 
L 481.058289 406.085744 
L 481.251027 404.65002 
L 481.384706 403.704958 
L 481.461254 403.214296 
L 481.625539 401.778572 
L 481.682055 400.342849 
L 481.570308 398.907125 
L 481.384706 398.148403 
L 481.188712 397.471401 
L 480.406956 396.035677 
L 479.723563 395.215424 
L 479.266346 394.599953 
L 478.062419 393.219175 
L 478.023961 393.164229 
L 476.98069 391.728506 
L 476.401276 390.916788 
L 475.972934 390.292782 
L 474.971028 388.857058 
L 474.740133 388.544675 
L 473.336682 387.421334 
L 473.07899 387.25713 
L 471.417846 387.042973 
L 469.756703 387.270791 
L 468.412822 387.421334 
L 468.09556 387.454528 
L 467.853515 387.421334 
L 466.434417 387.20583 
L 464.773273 386.321766 
L 464.377297 385.98561 
L 463.11213 384.622255 
L 463.055162 384.549886 
L 462.17729 383.114163 
L 461.450987 381.754651 
L 461.396948 381.678439 
L 460.264152 380.242715 
L 459.789844 379.781685 
L 458.1287 379.433512 
L 456.467557 379.969963 
L 456.015523 380.242715 
L 454.806414 380.907514 
L 453.513017 381.678439 
L 453.145271 381.882517 
L 451.484127 382.705639 
L 450.466962 383.114163 
L 449.822984 383.355288 
L 448.161841 383.941067 
L 446.696897 384.549886 
L 446.500698 384.630473 
L 444.839554 385.574073 
L 444.30198 385.98561 
L 443.178411 386.940695 
L 442.708182 387.421334 
L 441.517268 388.855759 
L 441.516205 388.857058 
L 440.458258 390.292782 
L 439.856124 391.239531 
L 439.485756 391.728506 
L 438.461401 393.164229 
L 438.194981 393.536917 
L 437.147811 394.599953 
L 436.533838 395.206064 
L 435.395333 396.035677 
L 434.872695 396.399707 
L 433.344373 397.471401 
L 433.211551 397.562995 
L 431.738157 398.907125 
L 431.550408 399.084779 
L 430.534265 400.342849 
L 429.889265 401.216052 
L 429.526482 401.778572 
L 428.628489 403.214296 
L 428.228122 403.86076 
L 427.738421 404.65002 
L 426.85151 406.085744 
L 426.566978 406.523734 
L 425.853956 407.521468 
L 424.905835 408.885046 
L 424.846796 408.957192 
L 423.631586 410.392915 
L 423.244692 410.87061 
L 422.330572 411.828639 
L 421.583549 412.672843 
L 420.986158 413.264363 
L 419.922405 414.433296 
L 419.66042 414.700087 
L 418.406216 416.135811 
L 418.261262 416.320028 
L 417.234704 417.571534 
L 416.600119 418.46256 
L 416.192389 419.007258 
L 415.21039 420.442982 
L 414.938976 420.850678 
L 414.221403 421.878706 
L 413.301458 423.31443 
L 413.277832 423.350622 
L 412.3464 424.750154 
L 411.616689 426.009572 
L 411.512307 426.185877 
L 410.729368 427.621601 
L 410.106233 429.057325 
L 409.955546 429.478591 
L 409.569845 430.493049 
L 409.15978 431.928773 
L 408.872728 433.364497 
L 408.681815 434.80022 
L 408.555155 436.235944 
L 408.455406 437.671668 
L 408.346629 439.107392 
L 408.294403 439.601624 
L 408.164011 440.543116 
L 407.886519 441.97884 
L 407.534089 443.414563 
L 407.119226 444.850287 
L 406.665706 446.286011 
L 406.633259 446.380611 
L 406.05803 447.721735 
L 405.492432 449.157459 
L 405.000843 450.593182 
L 404.972116 450.685617 
L 404.475168 452.028906 
L 404.032406 453.46463 
L 403.655489 454.900354 
L 403.32184 456.336078 
L 403.310973 456.38611 
L 402.941346 457.771802 
L 402.594373 459.207525 
L 402.286448 460.643249 
L 402.027306 462.078973 
L 401.828595 463.514697 
L 401.695412 464.950421 
L 401.64983 465.789446 
L 401.61177 466.386145 
L 401.555797 467.821868 
L 401.507864 469.257592 
L 401.458153 470.693316 
L 401.419228 472.12904 
L 401.420591 473.564764 
L 401.504291 475.000488 
L 401.64983 475.955644 
L 401.724086 476.436211 
L 402.177732 477.871935 
L 403.078116 479.307659 
L 403.310973 479.558272 
L 404.866038 480.743383 
L 404.972116 480.810026 
L 406.633259 481.988973 
L 406.815131 482.179107 
L 408.059272 483.61483 
L 408.294403 483.923371 
L 408.939453 485.050554 
L 409.748476 486.486278 
L 409.955546 486.877786 
L 410.481601 487.922002 
L 411.238978 489.357726 
L 411.616689 490.03778 
L 412.082747 490.79345 
L 413.167999 492.229173 
L 413.277832 492.349767 
L 414.938976 493.550417 
L 415.274341 493.664897 
z
M 424.823019 486.486278 
L 423.244692 486.062655 
L 421.583549 485.533685 
L 420.383435 485.050554 
L 419.922405 484.864236 
L 418.261262 483.992038 
L 417.71866 483.61483 
L 416.600119 482.840896 
L 415.880624 482.179107 
L 414.938976 481.226563 
L 414.561376 480.743383 
L 413.605031 479.307659 
L 413.277832 478.708769 
L 412.833064 477.871935 
L 412.162784 476.436211 
L 411.616689 475.122811 
L 411.556556 475.000488 
L 410.944358 473.564764 
L 410.483803 472.12904 
L 410.19752 470.693316 
L 410.06214 469.257592 
L 410.024247 467.821868 
L 410.026205 466.386145 
L 410.022077 464.950421 
L 409.985722 463.514697 
L 409.955546 462.894206 
L 409.909194 462.078973 
L 409.820467 460.643249 
L 409.772704 459.207525 
L 409.805342 457.771802 
L 409.942335 456.336078 
L 409.955546 456.261199 
L 410.152692 454.900354 
L 410.452389 453.46463 
L 410.842812 452.028906 
L 411.321894 450.593182 
L 411.616689 449.810391 
L 411.831068 449.157459 
L 412.326306 447.721735 
L 412.840613 446.286011 
L 413.277832 445.039414 
L 413.34046 444.850287 
L 413.768823 443.414563 
L 414.178246 441.97884 
L 414.576962 440.543116 
L 414.938976 439.271315 
L 414.987154 439.107392 
L 415.434135 437.671668 
L 415.959431 436.235944 
L 416.600119 434.80022 
L 416.600119 434.80022 
L 417.374118 433.364497 
L 418.261262 432.015805 
L 418.321455 431.928773 
L 419.416514 430.493049 
L 419.922405 429.894642 
L 420.641206 429.057325 
L 421.583549 428.018418 
L 421.934365 427.621601 
L 423.207673 426.185877 
L 423.244692 426.141181 
L 424.327151 424.750154 
L 424.905835 423.95914 
L 425.34543 423.31443 
L 426.254824 421.878706 
L 426.566978 421.351291 
L 427.084908 420.442982 
L 427.93888 419.007258 
L 428.228122 418.542494 
L 428.861802 417.571534 
L 429.889265 416.22171 
L 429.960892 416.135811 
L 431.317483 414.700087 
L 431.550408 414.475176 
L 433.009126 413.264363 
L 433.211551 413.106282 
L 434.872695 411.93144 
L 435.026776 411.828639 
L 436.533838 410.817726 
L 437.212762 410.392915 
L 438.194981 409.751695 
L 439.529288 408.957192 
L 439.856124 408.749385 
L 441.517268 407.817414 
L 442.168425 407.521468 
L 443.178411 407.01582 
L 444.839554 406.320032 
L 445.379023 406.085744 
L 446.500698 405.543444 
L 447.919364 404.65002 
L 448.161841 404.485863 
L 449.530829 403.214296 
L 449.822984 402.941183 
L 450.847997 401.778572 
L 451.484127 401.097865 
L 452.189371 400.342849 
L 453.145271 399.399801 
L 453.782853 398.907125 
L 454.806414 398.158778 
L 456.467557 397.518837 
L 458.1287 397.604947 
L 459.789844 398.511631 
L 460.226905 398.907125 
L 461.450987 400.165863 
L 461.600347 400.342849 
L 462.613176 401.778572 
L 463.11213 402.740007 
L 463.349309 403.214296 
L 463.874982 404.65002 
L 464.274868 406.085744 
L 464.654954 407.521468 
L 464.773273 407.90328 
L 465.227367 408.957192 
L 466.03176 410.392915 
L 466.434417 410.984993 
L 467.12565 411.828639 
L 468.09556 413.118194 
L 468.178015 413.264363 
L 468.863078 414.700087 
L 469.366676 416.135811 
L 469.756703 417.519826 
L 469.76954 417.571534 
L 470.150587 419.007258 
L 470.567518 420.442982 
L 471.031027 421.878706 
L 471.417846 422.99237 
L 471.553026 423.31443 
L 472.145171 424.750154 
L 472.655791 426.185877 
L 473.064255 427.621601 
L 473.07899 427.685285 
L 473.423023 429.057325 
L 473.675182 430.493049 
L 473.826966 431.928773 
L 473.88114 433.364497 
L 473.840506 434.80022 
L 473.711228 436.235944 
L 473.502629 437.671668 
L 473.225354 439.107392 
L 473.07899 439.753108 
L 472.930505 440.543116 
L 472.630837 441.97884 
L 472.300486 443.414563 
L 471.944321 444.850287 
L 471.567599 446.286011 
L 471.417846 446.844175 
L 471.210009 447.721735 
L 470.855262 449.157459 
L 470.479685 450.593182 
L 470.079431 452.028906 
L 469.756703 453.102344 
L 469.65519 453.46463 
L 469.220987 454.900354 
L 468.742449 456.336078 
L 468.207862 457.771802 
L 468.09556 458.045862 
L 467.619101 459.207525 
L 466.952328 460.643249 
L 466.434417 461.623936 
L 466.177297 462.078973 
L 465.256377 463.514697 
L 464.773273 464.173854 
L 464.162576 464.950421 
L 463.11213 466.118021 
L 462.878438 466.386145 
L 461.481587 467.821868 
L 461.450987 467.851067 
L 460.17118 469.257592 
L 459.789844 469.644172 
L 458.916253 470.693316 
L 458.1287 471.568521 
L 457.683314 472.12904 
L 456.467557 473.550285 
L 456.455786 473.564764 
L 455.260385 475.000488 
L 454.806414 475.517504 
L 453.979245 476.436211 
L 453.145271 477.332128 
L 452.589991 477.871935 
L 451.484127 478.935097 
L 451.026316 479.307659 
L 449.822984 480.292252 
L 449.136558 480.743383 
L 448.161841 481.392129 
L 446.639066 482.179107 
L 446.500698 482.251581 
L 444.839554 482.975948 
L 443.178411 483.548707 
L 442.960298 483.61483 
L 441.517268 484.063173 
L 439.856124 484.508719 
L 438.194981 484.906629 
L 437.597349 485.050554 
L 436.533838 485.32436 
L 434.872695 485.75365 
L 433.211551 486.163217 
L 431.763264 486.486278 
L 431.550408 486.540212 
L 429.889265 486.848655 
L 428.228122 486.968434 
L 426.566978 486.847949 
L 424.905835 486.50784 
z
" clip-path="url(#pa8257a8b0f)" style="fill: #eef5fc"/>
    <path d="M 424.905835 486.50784 
L 426.566978 486.847949 
L 428.228122 486.968434 
L 429.889265 486.848655 
L 431.550408 486.540212 
L 431.763264 486.486278 
L 433.211551 486.163217 
L 434.872695 485.75365 
L 436.533838 485.32436 
L 437.597349 485.050554 
L 438.194981 484.906629 
L 439.856124 484.508719 
L 441.517268 484.063173 
L 442.960298 483.61483 
L 443.178411 483.548707 
L 444.839554 482.975948 
L 446.500698 482.251581 
L 446.639066 482.179107 
L 448.161841 481.392129 
L 449.136558 480.743383 
L 449.822984 480.292252 
L 451.026316 479.307659 
L 451.484127 478.935097 
L 452.589991 477.871935 
L 453.145271 477.332128 
L 453.979245 476.436211 
L 454.806414 475.517504 
L 455.260385 475.000488 
L 456.455786 473.564764 
L 456.467557 473.550285 
L 457.683314 472.12904 
L 458.1287 471.568521 
L 458.916253 470.693316 
L 459.789844 469.644172 
L 460.17118 469.257592 
L 461.450987 467.851067 
L 461.481587 467.821868 
L 462.878438 466.386145 
L 463.11213 466.118021 
L 464.162576 464.950421 
L 464.773273 464.173854 
L 465.256377 463.514697 
L 466.177297 462.078973 
L 466.434417 461.623936 
L 466.952328 460.643249 
L 467.619101 459.207525 
L 468.09556 458.045862 
L 468.207862 457.771802 
L 468.742449 456.336078 
L 469.220987 454.900354 
L 469.65519 453.46463 
L 469.756703 453.102344 
L 470.079431 452.028906 
L 470.479685 450.593182 
L 470.855262 449.157459 
L 471.210009 447.721735 
L 471.417846 446.844175 
L 471.567599 446.286011 
L 471.944321 444.850287 
L 472.300486 443.414563 
L 472.630837 441.97884 
L 472.930505 440.543116 
L 473.07899 439.753108 
L 473.225354 439.107392 
L 473.502629 437.671668 
L 473.711228 436.235944 
L 473.840506 434.80022 
L 473.88114 433.364497 
L 473.826966 431.928773 
L 473.675182 430.493049 
L 473.423023 429.057325 
L 473.07899 427.685285 
L 473.064255 427.621601 
L 472.655791 426.185877 
L 472.145171 424.750154 
L 471.553026 423.31443 
L 471.417846 422.99237 
L 471.031027 421.878706 
L 470.567518 420.442982 
L 470.150587 419.007258 
L 469.76954 417.571534 
L 469.756703 417.519826 
L 469.366676 416.135811 
L 468.863078 414.700087 
L 468.178015 413.264363 
L 468.09556 413.118194 
L 467.12565 411.828639 
L 466.434417 410.984993 
L 466.03176 410.392915 
L 465.227367 408.957192 
L 464.773273 407.90328 
L 464.654954 407.521468 
L 464.274868 406.085744 
L 463.874982 404.65002 
L 463.349309 403.214296 
L 463.11213 402.740007 
L 462.613176 401.778572 
L 461.600347 400.342849 
L 461.450987 400.165863 
L 460.226905 398.907125 
L 459.789844 398.511631 
L 458.1287 397.604947 
L 456.467557 397.518837 
L 454.806414 398.158778 
L 453.782853 398.907125 
L 453.145271 399.399801 
L 452.189371 400.342849 
L 451.484127 401.097865 
L 450.847997 401.778572 
L 449.822984 402.941183 
L 449.530829 403.214296 
L 448.161841 404.485863 
L 447.919364 404.65002 
L 446.500698 405.543444 
L 445.379023 406.085744 
L 444.839554 406.320032 
L 443.178411 407.01582 
L 442.168425 407.521468 
L 441.517268 407.817414 
L 439.856124 408.749385 
L 439.529288 408.957192 
L 438.194981 409.751695 
L 437.212762 410.392915 
L 436.533838 410.817726 
L 435.026776 411.828639 
L 434.872695 411.93144 
L 433.211551 413.106282 
L 433.009126 413.264363 
L 431.550408 414.475176 
L 431.317483 414.700087 
L 429.960892 416.135811 
L 429.889265 416.22171 
L 428.861802 417.571534 
L 428.228122 418.542494 
L 427.93888 419.007258 
L 427.084908 420.442982 
L 426.566978 421.351291 
L 426.254824 421.878706 
L 425.34543 423.31443 
L 424.905835 423.95914 
L 424.327151 424.750154 
L 423.244692 426.141181 
L 423.207673 426.185877 
L 421.934365 427.621601 
L 421.583549 428.018418 
L 420.641206 429.057325 
L 419.922405 429.894642 
L 419.416514 430.493049 
L 418.321455 431.928773 
L 418.261262 432.015805 
L 417.374118 433.364497 
L 416.600119 434.80022 
L 416.600119 434.80022 
L 415.959431 436.235944 
L 415.434135 437.671668 
L 414.987154 439.107392 
L 414.938976 439.271315 
L 414.576962 440.543116 
L 414.178246 441.97884 
L 413.768823 443.414563 
L 413.34046 444.850287 
L 413.277832 445.039414 
L 412.840613 446.286011 
L 412.326306 447.721735 
L 411.831068 449.157459 
L 411.616689 449.810391 
L 411.321894 450.593182 
L 410.842812 452.028906 
L 410.452389 453.46463 
L 410.152692 454.900354 
L 409.955546 456.261199 
L 409.942335 456.336078 
L 409.805342 457.771802 
L 409.772704 459.207525 
L 409.820467 460.643249 
L 409.909194 462.078973 
L 409.955546 462.894206 
L 409.985722 463.514697 
L 410.022077 464.950421 
L 410.026205 466.386145 
L 410.024247 467.821868 
L 410.06214 469.257592 
L 410.19752 470.693316 
L 410.483803 472.12904 
L 410.944358 473.564764 
L 411.556556 475.000488 
L 411.616689 475.122811 
L 412.162784 476.436211 
L 412.833064 477.871935 
L 413.277832 478.708769 
L 413.605031 479.307659 
L 414.561376 480.743383 
L 414.938976 481.226563 
L 415.880624 482.179107 
L 416.600119 482.840896 
L 417.71866 483.61483 
L 418.261262 483.992038 
L 419.922405 484.864236 
L 420.383435 485.050554 
L 421.583549 485.533685 
L 423.244692 486.062655 
L 424.823019 486.486278 
z
M 429.053825 482.179107 
L 428.228122 482.01789 
L 426.566978 481.499486 
L 424.905835 480.840454 
L 424.680988 480.743383 
L 423.244692 480.122945 
L 421.650424 479.307659 
L 421.583549 479.270524 
L 419.922405 478.210088 
L 419.497039 477.871935 
L 418.261262 476.602528 
L 418.131674 476.436211 
L 417.274042 475.000488 
L 416.662579 473.564764 
L 416.600119 473.388876 
L 416.159031 472.12904 
L 415.699087 470.693316 
L 415.282451 469.257592 
L 414.938976 467.836091 
L 414.935675 467.821868 
L 414.668734 466.386145 
L 414.47757 464.950421 
L 414.330753 463.514697 
L 414.197438 462.078973 
L 414.06076 460.643249 
L 413.927796 459.207525 
L 413.830548 457.771802 
L 413.81224 456.336078 
L 413.906628 454.900354 
L 414.127284 453.46463 
L 414.471867 452.028906 
L 414.93157 450.593182 
L 414.938976 450.573615 
L 415.465107 449.157459 
L 416.074614 447.721735 
L 416.600119 446.585175 
L 416.741845 446.286011 
L 417.431633 444.850287 
L 418.153647 443.414563 
L 418.261262 443.190705 
L 418.853789 441.97884 
L 419.567909 440.543116 
L 419.922405 439.832871 
L 420.26904 439.107392 
L 420.987723 437.671668 
L 421.583549 436.610331 
L 421.777624 436.235944 
L 422.617383 434.80022 
L 423.244692 433.896374 
L 423.588637 433.364497 
L 424.669349 431.928773 
L 424.905835 431.646157 
L 425.817774 430.493049 
L 426.566978 429.628977 
L 427.035637 429.057325 
L 428.228122 427.660726 
L 428.259782 427.621601 
L 429.380543 426.185877 
L 429.889265 425.525217 
L 430.462493 424.750154 
L 431.522351 423.31443 
L 431.550408 423.275721 
L 432.574724 421.878706 
L 433.211551 421.07508 
L 433.749717 420.442982 
L 434.872695 419.243222 
L 435.121471 419.007258 
L 436.533838 417.77208 
L 436.798342 417.571534 
L 438.194981 416.562542 
L 438.885812 416.135811 
L 439.856124 415.541176 
L 441.517268 414.700087 
L 441.517268 414.700087 
L 443.178411 413.996845 
L 444.839554 413.49593 
L 445.909174 413.264363 
L 446.500698 413.119263 
L 448.161841 412.755041 
L 449.822984 412.295405 
L 451.153422 411.828639 
L 451.484127 411.683207 
L 453.145271 411.013896 
L 454.806414 410.683202 
L 456.467557 411.263375 
L 456.979264 411.828639 
L 458.1287 413.134583 
L 458.202927 413.264363 
L 459.104473 414.700087 
L 459.789844 415.743867 
L 460.018984 416.135811 
L 460.922469 417.571534 
L 461.450987 418.377424 
L 461.90687 419.007258 
L 462.974683 420.442982 
L 463.11213 420.627486 
L 464.02727 421.878706 
L 464.773273 423.027535 
L 464.929691 423.31443 
L 465.650998 424.750154 
L 466.3002 426.185877 
L 466.434417 426.497771 
L 466.8859 427.621601 
L 467.438716 429.057325 
L 467.950775 430.493049 
L 468.09556 430.951739 
L 468.384285 431.928773 
L 468.701899 433.364497 
L 468.88487 434.80022 
L 468.926567 436.235944 
L 468.834803 437.671668 
L 468.625283 439.107392 
L 468.314322 440.543116 
L 468.09556 441.338706 
L 467.925512 441.97884 
L 467.498738 443.414563 
L 467.038794 444.850287 
L 466.54958 446.286011 
L 466.434417 446.622698 
L 466.093112 447.721735 
L 465.642738 449.157459 
L 465.167656 450.593182 
L 464.773273 451.711352 
L 464.675211 452.028906 
L 464.20733 453.46463 
L 463.662845 454.900354 
L 463.11213 456.141847 
L 463.036996 456.336078 
L 462.416148 457.771802 
L 461.651409 459.207525 
L 461.450987 459.540993 
L 460.880412 460.643249 
L 459.992291 462.078973 
L 459.789844 462.373194 
L 459.119264 463.514697 
L 458.13731 464.950421 
L 458.1287 464.962213 
L 457.209865 466.386145 
L 456.467557 467.408194 
L 456.183835 467.821868 
L 455.120632 469.257592 
L 454.806414 469.655108 
L 453.967852 470.693316 
L 453.145271 471.641409 
L 452.679744 472.12904 
L 451.484127 473.324976 
L 451.203474 473.564764 
L 449.822984 474.722304 
L 449.421904 475.000488 
L 448.161841 475.876995 
L 447.203889 476.436211 
L 446.500698 476.851267 
L 444.839554 477.728798 
L 444.566927 477.871935 
L 443.178411 478.590023 
L 441.696086 479.307659 
L 441.517268 479.392399 
L 439.856124 480.174431 
L 438.441349 480.743383 
L 438.194981 480.843277 
L 436.533838 481.442336 
L 434.872695 481.904841 
L 433.47142 482.179107 
L 433.211551 482.23581 
L 431.550408 482.406005 
L 429.889265 482.34007 
z
" clip-path="url(#pa8257a8b0f)" style="fill: #dce9f6"/>
    <path d="M 429.889265 482.34007 
L 431.550408 482.406005 
L 433.211551 482.23581 
L 433.47142 482.179107 
L 434.872695 481.904841 
L 436.533838 481.442336 
L 438.194981 480.843277 
L 438.441349 480.743383 
L 439.856124 480.174431 
L 441.517268 479.392399 
L 441.696086 479.307659 
L 443.178411 478.590023 
L 444.566927 477.871935 
L 444.839554 477.728798 
L 446.500698 476.851267 
L 447.203889 476.436211 
L 448.161841 475.876995 
L 449.421904 475.000488 
L 449.822984 474.722304 
L 451.203474 473.564764 
L 451.484127 473.324976 
L 452.679744 472.12904 
L 453.145271 471.641409 
L 453.967852 470.693316 
L 454.806414 469.655108 
L 455.120632 469.257592 
L 456.183835 467.821868 
L 456.467557 467.408194 
L 457.209865 466.386145 
L 458.1287 464.962213 
L 458.13731 464.950421 
L 459.119264 463.514697 
L 459.789844 462.373194 
L 459.992291 462.078973 
L 460.880412 460.643249 
L 461.450987 459.540993 
L 461.651409 459.207525 
L 462.416148 457.771802 
L 463.036996 456.336078 
L 463.11213 456.141847 
L 463.662845 454.900354 
L 464.20733 453.46463 
L 464.675211 452.028906 
L 464.773273 451.711352 
L 465.167656 450.593182 
L 465.642738 449.157459 
L 466.093112 447.721735 
L 466.434417 446.622698 
L 466.54958 446.286011 
L 467.038794 444.850287 
L 467.498738 443.414563 
L 467.925512 441.97884 
L 468.09556 441.338706 
L 468.314322 440.543116 
L 468.625283 439.107392 
L 468.834803 437.671668 
L 468.926567 436.235944 
L 468.88487 434.80022 
L 468.701899 433.364497 
L 468.384285 431.928773 
L 468.09556 430.951739 
L 467.950775 430.493049 
L 467.438716 429.057325 
L 466.8859 427.621601 
L 466.434417 426.497771 
L 466.3002 426.185877 
L 465.650998 424.750154 
L 464.929691 423.31443 
L 464.773273 423.027535 
L 464.02727 421.878706 
L 463.11213 420.627486 
L 462.974683 420.442982 
L 461.90687 419.007258 
L 461.450987 418.377424 
L 460.922469 417.571534 
L 460.018984 416.135811 
L 459.789844 415.743867 
L 459.104473 414.700087 
L 458.202927 413.264363 
L 458.1287 413.134583 
L 456.979264 411.828639 
L 456.467557 411.263375 
L 454.806414 410.683202 
L 453.145271 411.013896 
L 451.484127 411.683207 
L 451.153422 411.828639 
L 449.822984 412.295405 
L 448.161841 412.755041 
L 446.500698 413.119263 
L 445.909174 413.264363 
L 444.839554 413.49593 
L 443.178411 413.996845 
L 441.517268 414.700087 
L 441.517268 414.700087 
L 439.856124 415.541176 
L 438.885812 416.135811 
L 438.194981 416.562542 
L 436.798342 417.571534 
L 436.533838 417.77208 
L 435.121471 419.007258 
L 434.872695 419.243222 
L 433.749717 420.442982 
L 433.211551 421.07508 
L 432.574724 421.878706 
L 431.550408 423.275721 
L 431.522351 423.31443 
L 430.462493 424.750154 
L 429.889265 425.525217 
L 429.380543 426.185877 
L 428.259782 427.621601 
L 428.228122 427.660726 
L 427.035637 429.057325 
L 426.566978 429.628977 
L 425.817774 430.493049 
L 424.905835 431.646157 
L 424.669349 431.928773 
L 423.588637 433.364497 
L 423.244692 433.896374 
L 422.617383 434.80022 
L 421.777624 436.235944 
L 421.583549 436.610331 
L 420.987723 437.671668 
L 420.26904 439.107392 
L 419.922405 439.832871 
L 419.567909 440.543116 
L 418.853789 441.97884 
L 418.261262 443.190705 
L 418.153647 443.414563 
L 417.431633 444.850287 
L 416.741845 446.286011 
L 416.600119 446.585175 
L 416.074614 447.721735 
L 415.465107 449.157459 
L 414.938976 450.573615 
L 414.93157 450.593182 
L 414.471867 452.028906 
L 414.127284 453.46463 
L 413.906628 454.900354 
L 413.81224 456.336078 
L 413.830548 457.771802 
L 413.927796 459.207525 
L 414.06076 460.643249 
L 414.197438 462.078973 
L 414.330753 463.514697 
L 414.47757 464.950421 
L 414.668734 466.386145 
L 414.935675 467.821868 
L 414.938976 467.836091 
L 415.282451 469.257592 
L 415.699087 470.693316 
L 416.159031 472.12904 
L 416.600119 473.388876 
L 416.662579 473.564764 
L 417.274042 475.000488 
L 418.131674 476.436211 
L 418.261262 476.602528 
L 419.497039 477.871935 
L 419.922405 478.210088 
L 421.583549 479.270524 
L 421.650424 479.307659 
L 423.244692 480.122945 
L 424.680988 480.743383 
L 424.905835 480.840454 
L 426.566978 481.499486 
L 428.228122 482.01789 
L 429.053825 482.179107 
z
M 427.95728 477.871935 
L 426.566978 477.313266 
L 424.948444 476.436211 
L 424.905835 476.409961 
L 423.244692 475.124673 
L 423.108616 475.000488 
L 421.910612 473.564764 
L 421.583549 473.005081 
L 421.094097 472.12904 
L 420.477281 470.693316 
L 419.95365 469.257592 
L 419.922405 469.171443 
L 419.400302 467.821868 
L 418.868275 466.386145 
L 418.399417 464.950421 
L 418.261262 464.440181 
L 418.022266 463.514697 
L 417.743359 462.078973 
L 417.541002 460.643249 
L 417.392436 459.207525 
L 417.29104 457.771802 
L 417.251107 456.336078 
L 417.302771 454.900354 
L 417.478339 453.46463 
L 417.798473 452.028906 
L 418.261262 450.61266 
L 418.267345 450.593182 
L 418.845685 449.157459 
L 419.550721 447.721735 
L 419.922405 447.046755 
L 420.321987 446.286011 
L 421.134398 444.850287 
L 421.583549 444.086873 
L 421.948719 443.414563 
L 422.735624 441.97884 
L 423.244692 441.067348 
L 423.512594 440.543116 
L 424.254226 439.107392 
L 424.905835 437.944101 
L 425.048747 437.671668 
L 425.851624 436.235944 
L 426.566978 435.130923 
L 426.774119 434.80022 
L 427.770442 433.364497 
L 428.228122 432.775551 
L 428.877365 431.928773 
L 429.889265 430.710105 
L 430.071626 430.493049 
L 431.289904 429.057325 
L 431.550408 428.748102 
L 432.522744 427.621601 
L 433.211551 426.802221 
L 433.762292 426.185877 
L 434.872695 424.90914 
L 435.02491 424.750154 
L 436.383288 423.31443 
L 436.533838 423.158087 
L 437.941179 421.878706 
L 438.194981 421.657838 
L 439.844762 420.442982 
L 439.856124 420.434943 
L 441.517268 419.485406 
L 442.741319 419.007258 
L 443.178411 418.834441 
L 444.839554 418.485784 
L 446.500698 418.402742 
L 448.161841 418.495412 
L 449.822984 418.690567 
L 451.484127 418.998172 
L 451.516085 419.007258 
L 453.145271 419.480593 
L 454.806414 420.374913 
L 454.889492 420.442982 
L 456.405999 421.878706 
L 456.467557 421.947893 
L 457.485408 423.31443 
L 458.1287 424.258352 
L 458.473835 424.750154 
L 459.502832 426.185877 
L 459.789844 426.582966 
L 460.545301 427.621601 
L 461.450987 429.057325 
L 461.450987 429.057325 
L 462.209764 430.493049 
L 462.800507 431.928773 
L 463.11213 432.90152 
L 463.271645 433.364497 
L 463.667133 434.80022 
L 463.946146 436.235944 
L 464.096327 437.671668 
L 464.110191 439.107392 
L 463.996453 440.543116 
L 463.780031 441.97884 
L 463.490491 443.414563 
L 463.149333 444.850287 
L 463.11213 444.985689 
L 462.796167 446.286011 
L 462.421867 447.721735 
L 462.016917 449.157459 
L 461.56356 450.593182 
L 461.450987 450.910979 
L 461.10409 452.028906 
L 460.60174 453.46463 
L 460.016054 454.900354 
L 459.789844 455.392428 
L 459.405302 456.336078 
L 458.744956 457.771802 
L 458.1287 458.936243 
L 457.998359 459.207525 
L 457.256677 460.643249 
L 456.467557 461.975838 
L 456.40987 462.078973 
L 455.560486 463.514697 
L 454.806414 464.64443 
L 454.601569 464.950421 
L 453.570188 466.386145 
L 453.145271 466.931607 
L 452.397053 467.821868 
L 451.484127 468.824518 
L 451.034097 469.257592 
L 449.822984 470.360349 
L 449.396653 470.693316 
L 448.161841 471.627313 
L 447.415208 472.12904 
L 446.500698 472.733734 
L 445.185384 473.564764 
L 444.839554 473.780631 
L 443.178411 474.839767 
L 442.929342 475.000488 
L 441.517268 475.895386 
L 440.590232 476.436211 
L 439.856124 476.85892 
L 438.194981 477.671953 
L 437.658102 477.871935 
L 436.533838 478.305024 
L 434.872695 478.716183 
L 433.211551 478.887545 
L 431.550408 478.808462 
L 429.889265 478.493281 
L 428.228122 477.979629 
z
" clip-path="url(#pa8257a8b0f)" style="fill: #c9ddf0"/>
    <path d="M 428.228122 477.979629 
L 429.889265 478.493281 
L 431.550408 478.808462 
L 433.211551 478.887545 
L 434.872695 478.716183 
L 436.533838 478.305024 
L 437.658102 477.871935 
L 438.194981 477.671953 
L 439.856124 476.85892 
L 440.590232 476.436211 
L 441.517268 475.895386 
L 442.929342 475.000488 
L 443.178411 474.839767 
L 444.839554 473.780631 
L 445.185384 473.564764 
L 446.500698 472.733734 
L 447.415208 472.12904 
L 448.161841 471.627313 
L 449.396653 470.693316 
L 449.822984 470.360349 
L 451.034097 469.257592 
L 451.484127 468.824518 
L 452.397053 467.821868 
L 453.145271 466.931607 
L 453.570188 466.386145 
L 454.601569 464.950421 
L 454.806414 464.64443 
L 455.560486 463.514697 
L 456.40987 462.078973 
L 456.467557 461.975838 
L 457.256677 460.643249 
L 457.998359 459.207525 
L 458.1287 458.936243 
L 458.744956 457.771802 
L 459.405302 456.336078 
L 459.789844 455.392428 
L 460.016054 454.900354 
L 460.60174 453.46463 
L 461.10409 452.028906 
L 461.450987 450.910979 
L 461.56356 450.593182 
L 462.016917 449.157459 
L 462.421867 447.721735 
L 462.796167 446.286011 
L 463.11213 444.985689 
L 463.149333 444.850287 
L 463.490491 443.414563 
L 463.780031 441.97884 
L 463.996453 440.543116 
L 464.110191 439.107392 
L 464.096327 437.671668 
L 463.946146 436.235944 
L 463.667133 434.80022 
L 463.271645 433.364497 
L 463.11213 432.90152 
L 462.800507 431.928773 
L 462.209764 430.493049 
L 461.450987 429.057325 
L 461.450987 429.057325 
L 460.545301 427.621601 
L 459.789844 426.582966 
L 459.502832 426.185877 
L 458.473835 424.750154 
L 458.1287 424.258352 
L 457.485408 423.31443 
L 456.467557 421.947893 
L 456.405999 421.878706 
L 454.889492 420.442982 
L 454.806414 420.374913 
L 453.145271 419.480593 
L 451.516085 419.007258 
L 451.484127 418.998172 
L 449.822984 418.690567 
L 448.161841 418.495412 
L 446.500698 418.402742 
L 444.839554 418.485784 
L 443.178411 418.834441 
L 442.741319 419.007258 
L 441.517268 419.485406 
L 439.856124 420.434943 
L 439.844762 420.442982 
L 438.194981 421.657838 
L 437.941179 421.878706 
L 436.533838 423.158087 
L 436.383288 423.31443 
L 435.02491 424.750154 
L 434.872695 424.90914 
L 433.762292 426.185877 
L 433.211551 426.802221 
L 432.522744 427.621601 
L 431.550408 428.748102 
L 431.289904 429.057325 
L 430.071626 430.493049 
L 429.889265 430.710105 
L 428.877365 431.928773 
L 428.228122 432.775551 
L 427.770442 433.364497 
L 426.774119 434.80022 
L 426.566978 435.130923 
L 425.851624 436.235944 
L 425.048747 437.671668 
L 424.905835 437.944101 
L 424.254226 439.107392 
L 423.512594 440.543116 
L 423.244692 441.067348 
L 422.735624 441.97884 
L 421.948719 443.414563 
L 421.583549 444.086873 
L 421.134398 444.850287 
L 420.321987 446.286011 
L 419.922405 447.046755 
L 419.550721 447.721735 
L 418.845685 449.157459 
L 418.267345 450.593182 
L 418.261262 450.61266 
L 417.798473 452.028906 
L 417.478339 453.46463 
L 417.302771 454.900354 
L 417.251107 456.336078 
L 417.29104 457.771802 
L 417.392436 459.207525 
L 417.541002 460.643249 
L 417.743359 462.078973 
L 418.022266 463.514697 
L 418.261262 464.440181 
L 418.399417 464.950421 
L 418.868275 466.386145 
L 419.400302 467.821868 
L 419.922405 469.171443 
L 419.95365 469.257592 
L 420.477281 470.693316 
L 421.094097 472.12904 
L 421.583549 473.005081 
L 421.910612 473.564764 
L 423.108616 475.000488 
L 423.244692 475.124673 
L 424.905835 476.409961 
L 424.948444 476.436211 
L 426.566978 477.313266 
L 427.95728 477.871935 
z
M 430.101777 475.000488 
L 429.889265 474.946654 
L 428.228122 474.293102 
L 427.035913 473.564764 
L 426.566978 473.212062 
L 425.519664 472.12904 
L 424.905835 471.235596 
L 424.578123 470.693316 
L 423.909007 469.257592 
L 423.367894 467.821868 
L 423.244692 467.474374 
L 422.82745 466.386145 
L 422.28029 464.950421 
L 421.752825 463.514697 
L 421.583549 463.006493 
L 421.274861 462.078973 
L 420.902626 460.643249 
L 420.647166 459.207525 
L 420.498456 457.771802 
L 420.45044 456.336078 
L 420.508572 454.900354 
L 420.688375 453.46463 
L 421.008004 452.028906 
L 421.480009 450.593182 
L 421.583549 450.349762 
L 422.055384 449.157459 
L 422.739521 447.721735 
L 423.244692 446.788355 
L 423.498394 446.286011 
L 424.2676 444.850287 
L 424.905835 443.714839 
L 425.066455 443.414563 
L 425.834015 441.97884 
L 426.566978 440.653989 
L 426.627652 440.543116 
L 427.41653 439.107392 
L 428.228122 437.737706 
L 428.268658 437.671668 
L 429.189491 436.235944 
L 429.889265 435.243635 
L 430.224805 434.80022 
L 431.375654 433.364497 
L 431.550408 433.156158 
L 432.66597 431.928773 
L 433.211551 431.334054 
L 434.057784 430.493049 
L 434.872695 429.662226 
L 435.524018 429.057325 
L 436.533838 428.083781 
L 437.06557 427.621601 
L 438.194981 426.611767 
L 438.748162 426.185877 
L 439.856124 425.322153 
L 440.800535 424.750154 
L 441.517268 424.313845 
L 443.178411 423.652575 
L 444.839554 423.345341 
L 446.500698 423.31443 
L 448.161841 423.477696 
L 449.822984 423.834106 
L 451.484127 424.506248 
L 451.858329 424.750154 
L 453.145271 425.757431 
L 453.540894 426.185877 
L 454.691345 427.621601 
L 454.806414 427.7723 
L 455.78361 429.057325 
L 456.467557 429.93208 
L 456.902755 430.493049 
L 457.922549 431.928773 
L 458.1287 432.276708 
L 458.698307 433.364497 
L 459.227803 434.80022 
L 459.563461 436.235944 
L 459.756892 437.671668 
L 459.789844 438.171907 
L 459.8603 439.107392 
L 459.88531 440.543116 
L 459.846636 441.97884 
L 459.789844 442.893954 
L 459.762609 443.414563 
L 459.646227 444.850287 
L 459.485939 446.286011 
L 459.275325 447.721735 
L 459.006664 449.157459 
L 458.671608 450.593182 
L 458.260203 452.028906 
L 458.1287 452.409551 
L 457.790118 453.46463 
L 457.252998 454.900354 
L 456.631614 456.336078 
L 456.467557 456.675222 
L 455.958572 457.771802 
L 455.217908 459.207525 
L 454.806414 459.931928 
L 454.401834 460.643249 
L 453.510793 462.078973 
L 453.145271 462.620367 
L 452.507678 463.514697 
L 451.484127 464.814701 
L 451.365955 464.950421 
L 450.023468 466.386145 
L 449.822984 466.586227 
L 448.417318 467.821868 
L 448.161841 468.034201 
L 446.539003 469.257592 
L 446.500698 469.28546 
L 444.839554 470.469448 
L 444.524922 470.693316 
L 443.178411 471.639582 
L 442.467448 472.12904 
L 441.517268 472.77928 
L 440.258448 473.564764 
L 439.856124 473.815466 
L 438.194981 474.663068 
L 437.240495 475.000488 
L 436.533838 475.256248 
L 434.872695 475.558966 
L 433.211551 475.579944 
L 431.550408 475.362954 
z
" clip-path="url(#pa8257a8b0f)" style="fill: #a8cee4"/>
    <path d="M 431.550408 475.362954 
L 433.211551 475.579944 
L 434.872695 475.558966 
L 436.533838 475.256248 
L 437.240495 475.000488 
L 438.194981 474.663068 
L 439.856124 473.815466 
L 440.258448 473.564764 
L 441.517268 472.77928 
L 442.467448 472.12904 
L 443.178411 471.639582 
L 444.524922 470.693316 
L 444.839554 470.469448 
L 446.500698 469.28546 
L 446.539003 469.257592 
L 448.161841 468.034201 
L 448.417318 467.821868 
L 449.822984 466.586227 
L 450.023468 466.386145 
L 451.365955 464.950421 
L 451.484127 464.814701 
L 452.507678 463.514697 
L 453.145271 462.620367 
L 453.510793 462.078973 
L 454.401834 460.643249 
L 454.806414 459.931928 
L 455.217908 459.207525 
L 455.958572 457.771802 
L 456.467557 456.675222 
L 456.631614 456.336078 
L 457.252998 454.900354 
L 457.790118 453.46463 
L 458.1287 452.409551 
L 458.260203 452.028906 
L 458.671608 450.593182 
L 459.006664 449.157459 
L 459.275325 447.721735 
L 459.485939 446.286011 
L 459.646227 444.850287 
L 459.762609 443.414563 
L 459.789844 442.893954 
L 459.846636 441.97884 
L 459.88531 440.543116 
L 459.8603 439.107392 
L 459.789844 438.171907 
L 459.756892 437.671668 
L 459.563461 436.235944 
L 459.227803 434.80022 
L 458.698307 433.364497 
L 458.1287 432.276708 
L 457.922549 431.928773 
L 456.902755 430.493049 
L 456.467557 429.93208 
L 455.78361 429.057325 
L 454.806414 427.7723 
L 454.691345 427.621601 
L 453.540894 426.185877 
L 453.145271 425.757431 
L 451.858329 424.750154 
L 451.484127 424.506248 
L 449.822984 423.834106 
L 448.161841 423.477696 
L 446.500698 423.31443 
L 444.839554 423.345341 
L 443.178411 423.652575 
L 441.517268 424.313845 
L 440.800535 424.750154 
L 439.856124 425.322153 
L 438.748162 426.185877 
L 438.194981 426.611767 
L 437.06557 427.621601 
L 436.533838 428.083781 
L 435.524018 429.057325 
L 434.872695 429.662226 
L 434.057784 430.493049 
L 433.211551 431.334054 
L 432.66597 431.928773 
L 431.550408 433.156158 
L 431.375654 433.364497 
L 430.224805 434.80022 
L 429.889265 435.243635 
L 429.189491 436.235944 
L 428.268658 437.671668 
L 428.228122 437.737706 
L 427.41653 439.107392 
L 426.627652 440.543116 
L 426.566978 440.653989 
L 425.834015 441.97884 
L 425.066455 443.414563 
L 424.905835 443.714839 
L 424.2676 444.850287 
L 423.498394 446.286011 
L 423.244692 446.788355 
L 422.739521 447.721735 
L 422.055384 449.157459 
L 421.583549 450.349762 
L 421.480009 450.593182 
L 421.008004 452.028906 
L 420.688375 453.46463 
L 420.508572 454.900354 
L 420.45044 456.336078 
L 420.498456 457.771802 
L 420.647166 459.207525 
L 420.902626 460.643249 
L 421.274861 462.078973 
L 421.583549 463.006493 
L 421.752825 463.514697 
L 422.28029 464.950421 
L 422.82745 466.386145 
L 423.244692 467.474374 
L 423.367894 467.821868 
L 423.909007 469.257592 
L 424.578123 470.693316 
L 424.905835 471.235596 
L 425.519664 472.12904 
L 426.566978 473.212062 
L 427.035913 473.564764 
L 428.228122 474.293102 
L 429.889265 474.946654 
L 430.101777 475.000488 
z
M 433.144877 472.12904 
L 431.550408 471.862333 
L 429.889265 471.258092 
L 429.038363 470.693316 
L 428.228122 469.989418 
L 427.662441 469.257592 
L 426.861727 467.821868 
L 426.566978 467.123571 
L 426.276947 466.386145 
L 425.772855 464.950421 
L 425.29127 463.514697 
L 424.905835 462.342634 
L 424.812814 462.078973 
L 424.347429 460.643249 
L 423.96682 459.207525 
L 423.701919 457.771802 
L 423.569251 456.336078 
L 423.575509 454.900354 
L 423.723226 453.46463 
L 424.012449 452.028906 
L 424.439354 450.593182 
L 424.905835 449.388691 
L 424.993566 449.157459 
L 425.63946 447.721735 
L 426.358114 446.286011 
L 426.566978 445.89621 
L 427.126253 444.850287 
L 427.922123 443.414563 
L 428.228122 442.873388 
L 428.756276 441.97884 
L 429.623942 440.543116 
L 429.889265 440.11371 
L 430.574818 439.107392 
L 431.550408 437.737818 
L 431.604569 437.671668 
L 432.816876 436.235944 
L 433.211551 435.784533 
L 434.205442 434.80022 
L 434.872695 434.146305 
L 435.770171 433.364497 
L 436.533838 432.691149 
L 437.478085 431.928773 
L 438.194981 431.337845 
L 439.33034 430.493049 
L 439.856124 430.096982 
L 441.517268 429.057325 
L 441.517268 429.057325 
L 443.178411 428.308635 
L 444.839554 427.889508 
L 446.500698 427.790007 
L 448.161841 428.050582 
L 449.822984 428.819183 
L 450.120818 429.057325 
L 451.484127 430.362036 
L 451.593757 430.493049 
L 452.779867 431.928773 
L 453.145271 432.347716 
L 454.006152 433.364497 
L 454.806414 434.342183 
L 455.120928 434.80022 
L 455.884677 436.235944 
L 456.361201 437.671668 
L 456.467557 438.248481 
L 456.606195 439.107392 
L 456.709365 440.543116 
L 456.724981 441.97884 
L 456.685967 443.414563 
L 456.611283 444.850287 
L 456.506021 446.286011 
L 456.467557 446.66905 
L 456.366876 447.721735 
L 456.176326 449.157459 
L 455.915524 450.593182 
L 455.571971 452.028906 
L 455.139504 453.46463 
L 454.806414 454.375669 
L 454.612216 454.900354 
L 453.992708 456.336078 
L 453.29016 457.771802 
L 453.145271 458.038075 
L 452.473039 459.207525 
L 451.562817 460.643249 
L 451.484127 460.757507 
L 450.482827 462.078973 
L 449.822984 462.875699 
L 449.228262 463.514697 
L 448.161841 464.575525 
L 447.743847 464.950421 
L 446.500698 466.000991 
L 446.015002 466.386145 
L 444.839554 467.283872 
L 444.111561 467.821868 
L 443.178411 468.500373 
L 442.086594 469.257592 
L 441.517268 469.652164 
L 439.856124 470.676903 
L 439.821484 470.693316 
L 438.194981 471.470913 
L 436.533838 471.982159 
L 435.351243 472.12904 
L 434.872695 472.18851 
L 433.211551 472.139808 
z
" clip-path="url(#pa8257a8b0f)" style="fill: #7cb7da"/>
    <path d="M 433.211551 472.139808 
L 434.872695 472.18851 
L 435.351243 472.12904 
L 436.533838 471.982159 
L 438.194981 471.470913 
L 439.821484 470.693316 
L 439.856124 470.676903 
L 441.517268 469.652164 
L 442.086594 469.257592 
L 443.178411 468.500373 
L 444.111561 467.821868 
L 444.839554 467.283872 
L 446.015002 466.386145 
L 446.500698 466.000991 
L 447.743847 464.950421 
L 448.161841 464.575525 
L 449.228262 463.514697 
L 449.822984 462.875699 
L 450.482827 462.078973 
L 451.484127 460.757507 
L 451.562817 460.643249 
L 452.473039 459.207525 
L 453.145271 458.038075 
L 453.29016 457.771802 
L 453.992708 456.336078 
L 454.612216 454.900354 
L 454.806414 454.375669 
L 455.139504 453.46463 
L 455.571971 452.028906 
L 455.915524 450.593182 
L 456.176326 449.157459 
L 456.366876 447.721735 
L 456.467557 446.66905 
L 456.506021 446.286011 
L 456.611283 444.850287 
L 456.685967 443.414563 
L 456.724981 441.97884 
L 456.709365 440.543116 
L 456.606195 439.107392 
L 456.467557 438.248481 
L 456.361201 437.671668 
L 455.884677 436.235944 
L 455.120928 434.80022 
L 454.806414 434.342183 
L 454.006152 433.364497 
L 453.145271 432.347716 
L 452.779867 431.928773 
L 451.593757 430.493049 
L 451.484127 430.362036 
L 450.120818 429.057325 
L 449.822984 428.819183 
L 448.161841 428.050582 
L 446.500698 427.790007 
L 444.839554 427.889508 
L 443.178411 428.308635 
L 441.517268 429.057325 
L 441.517268 429.057325 
L 439.856124 430.096982 
L 439.33034 430.493049 
L 438.194981 431.337845 
L 437.478085 431.928773 
L 436.533838 432.691149 
L 435.770171 433.364497 
L 434.872695 434.146305 
L 434.205442 434.80022 
L 433.211551 435.784533 
L 432.816876 436.235944 
L 431.604569 437.671668 
L 431.550408 437.737818 
L 430.574818 439.107392 
L 429.889265 440.11371 
L 429.623942 440.543116 
L 428.756276 441.97884 
L 428.228122 442.873388 
L 427.922123 443.414563 
L 427.126253 444.850287 
L 426.566978 445.89621 
L 426.358114 446.286011 
L 425.63946 447.721735 
L 424.993566 449.157459 
L 424.905835 449.388691 
L 424.439354 450.593182 
L 424.012449 452.028906 
L 423.723226 453.46463 
L 423.575509 454.900354 
L 423.569251 456.336078 
L 423.701919 457.771802 
L 423.96682 459.207525 
L 424.347429 460.643249 
L 424.812814 462.078973 
L 424.905835 462.342634 
L 425.29127 463.514697 
L 425.772855 464.950421 
L 426.276947 466.386145 
L 426.566978 467.123571 
L 426.861727 467.821868 
L 427.662441 469.257592 
L 428.228122 469.989418 
L 429.038363 470.693316 
L 429.889265 471.258092 
L 431.550408 471.862333 
L 433.144877 472.12904 
z
M 430.75164 467.821868 
L 429.889265 467.026317 
L 429.460056 466.386145 
L 428.745467 464.950421 
L 428.228122 463.569438 
L 428.209297 463.514697 
L 427.7644 462.078973 
L 427.357973 460.643249 
L 426.995277 459.207525 
L 426.6995 457.771802 
L 426.566978 456.8037 
L 426.502759 456.336078 
L 426.438088 454.900354 
L 426.520154 453.46463 
L 426.566978 453.179257 
L 426.757843 452.028906 
L 427.143004 450.593182 
L 427.653841 449.157459 
L 428.228122 447.816142 
L 428.269423 447.721735 
L 428.993516 446.286011 
L 429.780325 444.850287 
L 429.889265 444.663169 
L 430.665733 443.414563 
L 431.550408 442.076095 
L 431.621635 441.97884 
L 432.727852 440.543116 
L 433.211551 439.946299 
L 433.998621 439.107392 
L 434.872695 438.213056 
L 435.488172 437.671668 
L 436.533838 436.761496 
L 437.228551 436.235944 
L 438.194981 435.486407 
L 439.214786 434.80022 
L 439.856124 434.347797 
L 441.517268 433.378566 
L 441.552214 433.364497 
L 443.178411 432.677939 
L 444.839554 432.339902 
L 446.500698 432.503891 
L 448.161841 433.334168 
L 448.197421 433.364497 
L 449.822984 434.80022 
L 449.822984 434.80022 
L 451.308021 436.235944 
L 451.484127 436.402701 
L 452.53672 437.671668 
L 453.145271 438.653873 
L 453.343292 439.107392 
L 453.735678 440.543116 
L 453.925935 441.97884 
L 453.988271 443.414563 
L 453.972183 444.850287 
L 453.902974 446.286011 
L 453.786576 447.721735 
L 453.615506 449.157459 
L 453.37577 450.593182 
L 453.145271 451.61771 
L 453.047615 452.028906 
L 452.604907 453.46463 
L 452.060422 454.900354 
L 451.484127 456.189133 
L 451.412144 456.336078 
L 450.599533 457.771802 
L 449.822984 458.997315 
L 449.673615 459.207525 
L 448.541641 460.643249 
L 448.161841 461.083513 
L 447.200276 462.078973 
L 446.500698 462.749624 
L 445.629172 463.514697 
L 444.839554 464.169914 
L 443.832589 464.950421 
L 443.178411 465.441669 
L 441.811185 466.386145 
L 441.517268 466.587231 
L 439.856124 467.558634 
L 439.259266 467.821868 
L 438.194981 468.291793 
L 436.533838 468.750749 
L 434.872695 468.939374 
L 433.211551 468.85337 
L 431.550408 468.364092 
z
" clip-path="url(#pa8257a8b0f)" style="fill: #529dcc"/>
    <path d="M 431.550408 468.364092 
L 433.211551 468.85337 
L 434.872695 468.939374 
L 436.533838 468.750749 
L 438.194981 468.291793 
L 439.259266 467.821868 
L 439.856124 467.558634 
L 441.517268 466.587231 
L 441.811185 466.386145 
L 443.178411 465.441669 
L 443.832589 464.950421 
L 444.839554 464.169914 
L 445.629172 463.514697 
L 446.500698 462.749624 
L 447.200276 462.078973 
L 448.161841 461.083513 
L 448.541641 460.643249 
L 449.673615 459.207525 
L 449.822984 458.997315 
L 450.599533 457.771802 
L 451.412144 456.336078 
L 451.484127 456.189133 
L 452.060422 454.900354 
L 452.604907 453.46463 
L 453.047615 452.028906 
L 453.145271 451.61771 
L 453.37577 450.593182 
L 453.615506 449.157459 
L 453.786576 447.721735 
L 453.902974 446.286011 
L 453.972183 444.850287 
L 453.988271 443.414563 
L 453.925935 441.97884 
L 453.735678 440.543116 
L 453.343292 439.107392 
L 453.145271 438.653873 
L 452.53672 437.671668 
L 451.484127 436.402701 
L 451.308021 436.235944 
L 449.822984 434.80022 
L 449.822984 434.80022 
L 448.197421 433.364497 
L 448.161841 433.334168 
L 446.500698 432.503891 
L 444.839554 432.339902 
L 443.178411 432.677939 
L 441.552214 433.364497 
L 441.517268 433.378566 
L 439.856124 434.347797 
L 439.214786 434.80022 
L 438.194981 435.486407 
L 437.228551 436.235944 
L 436.533838 436.761496 
L 435.488172 437.671668 
L 434.872695 438.213056 
L 433.998621 439.107392 
L 433.211551 439.946299 
L 432.727852 440.543116 
L 431.621635 441.97884 
L 431.550408 442.076095 
L 430.665733 443.414563 
L 429.889265 444.663169 
L 429.780325 444.850287 
L 428.993516 446.286011 
L 428.269423 447.721735 
L 428.228122 447.816142 
L 427.653841 449.157459 
L 427.143004 450.593182 
L 426.757843 452.028906 
L 426.566978 453.179257 
L 426.520154 453.46463 
L 426.438088 454.900354 
L 426.502759 456.336078 
L 426.566978 456.8037 
L 426.6995 457.771802 
L 426.995277 459.207525 
L 427.357973 460.643249 
L 427.7644 462.078973 
L 428.209297 463.514697 
L 428.228122 463.569438 
L 428.745467 464.950421 
L 429.460056 466.386145 
L 429.889265 467.026317 
L 430.75164 467.821868 
z
M 432.659374 464.950421 
L 431.550408 463.938115 
L 431.285983 463.514697 
L 430.624048 462.078973 
L 430.15438 460.643249 
L 429.889265 459.541305 
L 429.812879 459.207525 
L 429.566866 457.771802 
L 429.408946 456.336078 
L 429.355076 454.900354 
L 429.422592 453.46463 
L 429.622778 452.028906 
L 429.889265 450.886617 
L 429.959815 450.593182 
L 430.446089 449.157459 
L 431.054008 447.721735 
L 431.550408 446.729924 
L 431.787118 446.286011 
L 432.667884 444.850287 
L 433.211551 444.056383 
L 433.708179 443.414563 
L 434.872695 442.041356 
L 434.93665 441.97884 
L 436.485248 440.543116 
L 436.533838 440.499569 
L 438.194981 439.305762 
L 438.579694 439.107392 
L 439.856124 438.407935 
L 441.517268 437.826102 
L 442.946143 437.671668 
L 443.178411 437.643386 
L 443.361345 437.671668 
L 444.839554 437.921456 
L 446.500698 438.595677 
L 447.376546 439.107392 
L 448.161841 439.566351 
L 449.309648 440.543116 
L 449.822984 441.111067 
L 450.326614 441.97884 
L 450.818532 443.414563 
L 451.043764 444.850287 
L 451.101248 446.286011 
L 451.044525 447.721735 
L 450.892843 449.157459 
L 450.644985 450.593182 
L 450.291202 452.028906 
L 449.822984 453.46463 
L 449.822984 453.46463 
L 449.186709 454.900354 
L 448.409875 456.336078 
L 448.161841 456.730318 
L 447.441089 457.771802 
L 446.500698 458.952673 
L 446.279071 459.207525 
L 444.880031 460.643249 
L 444.839554 460.681361 
L 443.218704 462.078973 
L 443.178411 462.111584 
L 441.517268 463.321009 
L 441.201305 463.514697 
L 439.856124 464.312832 
L 438.43503 464.950421 
L 438.194981 465.056599 
L 436.533838 465.520458 
L 434.872695 465.654879 
L 433.211551 465.307512 
z
" clip-path="url(#pa8257a8b0f)" style="fill: #3282be"/>
    <path d="M 433.211551 465.307512 
L 434.872695 465.654879 
L 436.533838 465.520458 
L 438.194981 465.056599 
L 438.43503 464.950421 
L 439.856124 464.312832 
L 441.201305 463.514697 
L 441.517268 463.321009 
L 443.178411 462.111584 
L 443.218704 462.078973 
L 444.839554 460.681361 
L 444.880031 460.643249 
L 446.279071 459.207525 
L 446.500698 458.952673 
L 447.441089 457.771802 
L 448.161841 456.730318 
L 448.409875 456.336078 
L 449.186709 454.900354 
L 449.822984 453.46463 
L 449.822984 453.46463 
L 450.291202 452.028906 
L 450.644985 450.593182 
L 450.892843 449.157459 
L 451.044525 447.721735 
L 451.101248 446.286011 
L 451.043764 444.850287 
L 450.818532 443.414563 
L 450.326614 441.97884 
L 449.822984 441.111067 
L 449.309648 440.543116 
L 448.161841 439.566351 
L 447.376546 439.107392 
L 446.500698 438.595677 
L 444.839554 437.921456 
L 443.361345 437.671668 
L 443.178411 437.643386 
L 442.946143 437.671668 
L 441.517268 437.826102 
L 439.856124 438.407935 
L 438.579694 439.107392 
L 438.194981 439.305762 
L 436.533838 440.499569 
L 436.485248 440.543116 
L 434.93665 441.97884 
L 434.872695 442.041356 
L 433.708179 443.414563 
L 433.211551 444.056383 
L 432.667884 444.850287 
L 431.787118 446.286011 
L 431.550408 446.729924 
L 431.054008 447.721735 
L 430.446089 449.157459 
L 429.959815 450.593182 
L 429.889265 450.886617 
L 429.622778 452.028906 
L 429.422592 453.46463 
L 429.355076 454.900354 
L 429.408946 456.336078 
L 429.566866 457.771802 
L 429.812879 459.207525 
L 429.889265 459.541305 
L 430.15438 460.643249 
L 430.624048 462.078973 
L 431.285983 463.514697 
L 431.550408 463.938115 
L 432.659374 464.950421 
z
M 434.001866 460.643249 
L 433.211551 459.379527 
L 433.145376 459.207525 
L 432.809666 457.771802 
L 432.658071 456.336078 
L 432.653381 454.900354 
L 432.777422 453.46463 
L 433.022049 452.028906 
L 433.211551 451.273981 
L 433.404787 450.593182 
L 433.948429 449.157459 
L 434.63075 447.721735 
L 434.872695 447.300713 
L 435.603505 446.286011 
L 436.533838 445.166584 
L 436.918469 444.850287 
L 438.194981 443.896765 
L 439.389833 443.414563 
L 439.856124 443.233479 
L 441.517268 443.079512 
L 443.178411 443.294162 
L 443.561712 443.414563 
L 444.839554 443.86184 
L 446.211848 444.850287 
L 446.500698 445.174396 
L 447.072527 446.286011 
L 447.395087 447.721735 
L 447.425257 449.157459 
L 447.243157 450.593182 
L 446.879144 452.028906 
L 446.500698 453.03036 
L 446.32527 453.46463 
L 445.565494 454.900354 
L 444.839554 456.002532 
L 444.599776 456.336078 
L 443.386351 457.771802 
L 443.178411 457.987387 
L 441.854388 459.207525 
L 441.517268 459.489536 
L 439.856124 460.643249 
L 439.856124 460.643249 
L 438.194981 461.416656 
L 436.533838 461.772475 
L 434.872695 461.432048 
z
" clip-path="url(#pa8257a8b0f)" style="fill: #1663aa"/>
    <path d="M 434.872695 461.432048 
L 436.533838 461.772475 
L 438.194981 461.416656 
L 439.856124 460.643249 
L 439.856124 460.643249 
L 441.517268 459.489536 
L 441.854388 459.207525 
L 443.178411 457.987387 
L 443.386351 457.771802 
L 444.599776 456.336078 
L 444.839554 456.002532 
L 445.565494 454.900354 
L 446.32527 453.46463 
L 446.500698 453.03036 
L 446.879144 452.028906 
L 447.243157 450.593182 
L 447.425257 449.157459 
L 447.395087 447.721735 
L 447.072527 446.286011 
L 446.500698 445.174396 
L 446.211848 444.850287 
L 444.839554 443.86184 
L 443.561712 443.414563 
L 443.178411 443.294162 
L 441.517268 443.079512 
L 439.856124 443.233479 
L 439.389833 443.414563 
L 438.194981 443.896765 
L 436.918469 444.850287 
L 436.533838 445.166584 
L 435.603505 446.286011 
L 434.872695 447.300713 
L 434.63075 447.721735 
L 433.948429 449.157459 
L 433.404787 450.593182 
L 433.211551 451.273981 
L 433.022049 452.028906 
L 432.777422 453.46463 
L 432.653381 454.900354 
L 432.658071 456.336078 
L 432.809666 457.771802 
L 433.145376 459.207525 
L 433.211551 459.379527 
L 434.001866 460.643249 
z
" clip-path="url(#pa8257a8b0f)" style="fill: #084285"/>
   </g>
   <g id="matplotlib.axis_1">
    <g id="xtick_1">
     <g id="line2d_1">
      <defs>
       <path id="m00bc3d1f08" d="M 0 0 
L 0 3.5 
" style="stroke: #000000; stroke-width: 0.8"/>
      </defs>
      <g>
       <use xlink:href="#m00bc3d1f08" x="123.416803" y="499.48" style="stroke: #000000; stroke-width: 0.8"/>
      </g>
     </g>
     <g id="text_1">
      <!-- 2.5 -->
      <g transform="translate(105.923366 523.196563) scale(0.22 -0.22)">
       <defs>
        <path id="DejaVuSans-32" d="M 1228 531 
L 3431 531 
L 3431 0 
L 469 0 
L 469 531 
Q 828 903 1448 1529 
Q 2069 2156 2228 2338 
Q 2531 2678 2651 2914 
Q 2772 3150 2772 3378 
Q 2772 3750 2511 3984 
Q 2250 4219 1831 4219 
Q 1534 4219 1204 4116 
Q 875 4013 500 3803 
L 500 4441 
Q 881 4594 1212 4672 
Q 1544 4750 1819 4750 
Q 2544 4750 2975 4387 
Q 3406 4025 3406 3419 
Q 3406 3131 3298 2873 
Q 3191 2616 2906 2266 
Q 2828 2175 2409 1742 
Q 1991 1309 1228 531 
z
" transform="scale(0.015625)"/>
        <path id="DejaVuSans-2e" d="M 684 794 
L 1344 794 
L 1344 0 
L 684 0 
L 684 794 
z
" transform="scale(0.015625)"/>
        <path id="DejaVuSans-35" d="M 691 4666 
L 3169 4666 
L 3169 4134 
L 1269 4134 
L 1269 2991 
Q 1406 3038 1543 3061 
Q 1681 3084 1819 3084 
Q 2600 3084 3056 2656 
Q 3513 2228 3513 1497 
Q 3513 744 3044 326 
Q 2575 -91 1722 -91 
Q 1428 -91 1123 -41 
Q 819 9 494 109 
L 494 744 
Q 775 591 1075 516 
Q 1375 441 1709 441 
Q 2250 441 2565 725 
Q 2881 1009 2881 1497 
Q 2881 1984 2565 2268 
Q 2250 2553 1709 2553 
Q 1456 2553 1204 2497 
Q 953 2441 691 2322 
L 691 4666 
z
" transform="scale(0.015625)"/>
       </defs>
       <use xlink:href="#DejaVuSans-32"/>
       <use xlink:href="#DejaVuSans-2e" x="63.623047"/>
       <use xlink:href="#DejaVuSans-35" x="95.410156"/>
      </g>
     </g>
    </g>
    <g id="xtick_2">
     <g id="line2d_2">
      <g>
       <use xlink:href="#m00bc3d1f08" x="198.834823" y="499.48" style="stroke: #000000; stroke-width: 0.8"/>
      </g>
     </g>
     <g id="text_2">
      <!-- 5.0 -->
      <g transform="translate(181.341385 523.196563) scale(0.22 -0.22)">
       <defs>
        <path id="DejaVuSans-30" d="M 2034 4250 
Q 1547 4250 1301 3770 
Q 1056 3291 1056 2328 
Q 1056 1369 1301 889 
Q 1547 409 2034 409 
Q 2525 409 2770 889 
Q 3016 1369 3016 2328 
Q 3016 3291 2770 3770 
Q 2525 4250 2034 4250 
z
M 2034 4750 
Q 2819 4750 3233 4129 
Q 3647 3509 3647 2328 
Q 3647 1150 3233 529 
Q 2819 -91 2034 -91 
Q 1250 -91 836 529 
Q 422 1150 422 2328 
Q 422 3509 836 4129 
Q 1250 4750 2034 4750 
z
" transform="scale(0.015625)"/>
       </defs>
       <use xlink:href="#DejaVuSans-35"/>
       <use xlink:href="#DejaVuSans-2e" x="63.623047"/>
       <use xlink:href="#DejaVuSans-30" x="95.410156"/>
      </g>
     </g>
    </g>
    <g id="xtick_3">
     <g id="line2d_3">
      <g>
       <use xlink:href="#m00bc3d1f08" x="274.252843" y="499.48" style="stroke: #000000; stroke-width: 0.8"/>
      </g>
     </g>
     <g id="text_3">
      <!-- 7.5 -->
      <g transform="translate(256.759405 523.196563) scale(0.22 -0.22)">
       <defs>
        <path id="DejaVuSans-37" d="M 525 4666 
L 3525 4666 
L 3525 4397 
L 1831 0 
L 1172 0 
L 2766 4134 
L 525 4134 
L 525 4666 
z
" transform="scale(0.015625)"/>
       </defs>
       <use xlink:href="#DejaVuSans-37"/>
       <use xlink:href="#DejaVuSans-2e" x="63.623047"/>
       <use xlink:href="#DejaVuSans-35" x="95.410156"/>
      </g>
     </g>
    </g>
    <g id="xtick_4">
     <g id="line2d_4">
      <g>
       <use xlink:href="#m00bc3d1f08" x="349.670862" y="499.48" style="stroke: #000000; stroke-width: 0.8"/>
      </g>
     </g>
     <g id="text_4">
      <!-- 10.0 -->
      <g transform="translate(325.178675 523.196563) scale(0.22 -0.22)">
       <defs>
        <path id="DejaVuSans-31" d="M 794 531 
L 1825 531 
L 1825 4091 
L 703 3866 
L 703 4441 
L 1819 4666 
L 2450 4666 
L 2450 531 
L 3481 531 
L 3481 0 
L 794 0 
L 794 531 
z
" transform="scale(0.015625)"/>
       </defs>
       <use xlink:href="#DejaVuSans-31"/>
       <use xlink:href="#DejaVuSans-30" x="63.623047"/>
       <use xlink:href="#DejaVuSans-2e" x="127.246094"/>
       <use xlink:href="#DejaVuSans-30" x="159.033203"/>
      </g>
     </g>
    </g>
    <g id="xtick_5">
     <g id="line2d_5">
      <g>
       <use xlink:href="#m00bc3d1f08" x="425.088882" y="499.48" style="stroke: #000000; stroke-width: 0.8"/>
      </g>
     </g>
     <g id="text_5">
      <!-- 12.5 -->
      <g transform="translate(400.596694 523.196563) scale(0.22 -0.22)">
       <use xlink:href="#DejaVuSans-31"/>
       <use xlink:href="#DejaVuSans-32" x="63.623047"/>
       <use xlink:href="#DejaVuSans-2e" x="127.246094"/>
       <use xlink:href="#DejaVuSans-35" x="159.033203"/>
      </g>
     </g>
    </g>
    <g id="xtick_6">
     <g id="line2d_6">
      <g>
       <use xlink:href="#m00bc3d1f08" x="500.506901" y="499.48" style="stroke: #000000; stroke-width: 0.8"/>
      </g>
     </g>
     <g id="text_6">
      <!-- 15.0 -->
      <g transform="translate(476.014714 523.196563) scale(0.22 -0.22)">
       <use xlink:href="#DejaVuSans-31"/>
       <use xlink:href="#DejaVuSans-35" x="63.623047"/>
       <use xlink:href="#DejaVuSans-2e" x="127.246094"/>
       <use xlink:href="#DejaVuSans-30" x="159.033203"/>
      </g>
     </g>
    </g>
    <g id="xtick_7">
     <g id="line2d_7">
      <g>
       <use xlink:href="#m00bc3d1f08" x="575.924921" y="499.48" style="stroke: #000000; stroke-width: 0.8"/>
      </g>
     </g>
     <g id="text_7">
      <!-- 17.5 -->
      <g transform="translate(551.432733 523.196563) scale(0.22 -0.22)">
       <use xlink:href="#DejaVuSans-31"/>
       <use xlink:href="#DejaVuSans-37" x="63.623047"/>
       <use xlink:href="#DejaVuSans-2e" x="127.246094"/>
       <use xlink:href="#DejaVuSans-35" x="159.033203"/>
      </g>
     </g>
    </g>
    <g id="xtick_8">
     <g id="line2d_8">
      <g>
       <use xlink:href="#m00bc3d1f08" x="651.34294" y="499.48" style="stroke: #000000; stroke-width: 0.8"/>
      </g>
     </g>
     <g id="text_8">
      <!-- 20.0 -->
      <g transform="translate(626.850753 523.196563) scale(0.22 -0.22)">
       <use xlink:href="#DejaVuSans-32"/>
       <use xlink:href="#DejaVuSans-30" x="63.623047"/>
       <use xlink:href="#DejaVuSans-2e" x="127.246094"/>
       <use xlink:href="#DejaVuSans-30" x="159.033203"/>
      </g>
     </g>
    </g>
    <g id="text_9">
     <!-- Force Uncertainties -->
     <g transform="translate(293.911094 548.488438) scale(0.22 -0.22)">
      <defs>
       <path id="DejaVuSans-46" d="M 628 4666 
L 3309 4666 
L 3309 4134 
L 1259 4134 
L 1259 2759 
L 3109 2759 
L 3109 2228 
L 1259 2228 
L 1259 0 
L 628 0 
L 628 4666 
z
" transform="scale(0.015625)"/>
       <path id="DejaVuSans-6f" d="M 1959 3097 
Q 1497 3097 1228 2736 
Q 959 2375 959 1747 
Q 959 1119 1226 758 
Q 1494 397 1959 397 
Q 2419 397 2687 759 
Q 2956 1122 2956 1747 
Q 2956 2369 2687 2733 
Q 2419 3097 1959 3097 
z
M 1959 3584 
Q 2709 3584 3137 3096 
Q 3566 2609 3566 1747 
Q 3566 888 3137 398 
Q 2709 -91 1959 -91 
Q 1206 -91 779 398 
Q 353 888 353 1747 
Q 353 2609 779 3096 
Q 1206 3584 1959 3584 
z
" transform="scale(0.015625)"/>
       <path id="DejaVuSans-72" d="M 2631 2963 
Q 2534 3019 2420 3045 
Q 2306 3072 2169 3072 
Q 1681 3072 1420 2755 
Q 1159 2438 1159 1844 
L 1159 0 
L 581 0 
L 581 3500 
L 1159 3500 
L 1159 2956 
Q 1341 3275 1631 3429 
Q 1922 3584 2338 3584 
Q 2397 3584 2469 3576 
Q 2541 3569 2628 3553 
L 2631 2963 
z
" transform="scale(0.015625)"/>
       <path id="DejaVuSans-63" d="M 3122 3366 
L 3122 2828 
Q 2878 2963 2633 3030 
Q 2388 3097 2138 3097 
Q 1578 3097 1268 2742 
Q 959 2388 959 1747 
Q 959 1106 1268 751 
Q 1578 397 2138 397 
Q 2388 397 2633 464 
Q 2878 531 3122 666 
L 3122 134 
Q 2881 22 2623 -34 
Q 2366 -91 2075 -91 
Q 1284 -91 818 406 
Q 353 903 353 1747 
Q 353 2603 823 3093 
Q 1294 3584 2113 3584 
Q 2378 3584 2631 3529 
Q 2884 3475 3122 3366 
z
" transform="scale(0.015625)"/>
       <path id="DejaVuSans-65" d="M 3597 1894 
L 3597 1613 
L 953 1613 
Q 991 1019 1311 708 
Q 1631 397 2203 397 
Q 2534 397 2845 478 
Q 3156 559 3463 722 
L 3463 178 
Q 3153 47 2828 -22 
Q 2503 -91 2169 -91 
Q 1331 -91 842 396 
Q 353 884 353 1716 
Q 353 2575 817 3079 
Q 1281 3584 2069 3584 
Q 2775 3584 3186 3129 
Q 3597 2675 3597 1894 
z
M 3022 2063 
Q 3016 2534 2758 2815 
Q 2500 3097 2075 3097 
Q 1594 3097 1305 2825 
Q 1016 2553 972 2059 
L 3022 2063 
z
" transform="scale(0.015625)"/>
       <path id="DejaVuSans-20" transform="scale(0.015625)"/>
       <path id="DejaVuSans-55" d="M 556 4666 
L 1191 4666 
L 1191 1831 
Q 1191 1081 1462 751 
Q 1734 422 2344 422 
Q 2950 422 3222 751 
Q 3494 1081 3494 1831 
L 3494 4666 
L 4128 4666 
L 4128 1753 
Q 4128 841 3676 375 
Q 3225 -91 2344 -91 
Q 1459 -91 1007 375 
Q 556 841 556 1753 
L 556 4666 
z
" transform="scale(0.015625)"/>
       <path id="DejaVuSans-6e" d="M 3513 2113 
L 3513 0 
L 2938 0 
L 2938 2094 
Q 2938 2591 2744 2837 
Q 2550 3084 2163 3084 
Q 1697 3084 1428 2787 
Q 1159 2491 1159 1978 
L 1159 0 
L 581 0 
L 581 3500 
L 1159 3500 
L 1159 2956 
Q 1366 3272 1645 3428 
Q 1925 3584 2291 3584 
Q 2894 3584 3203 3211 
Q 3513 2838 3513 2113 
z
" transform="scale(0.015625)"/>
       <path id="DejaVuSans-74" d="M 1172 4494 
L 1172 3500 
L 2356 3500 
L 2356 3053 
L 1172 3053 
L 1172 1153 
Q 1172 725 1289 603 
Q 1406 481 1766 481 
L 2356 481 
L 2356 0 
L 1766 0 
Q 1100 0 847 248 
Q 594 497 594 1153 
L 594 3053 
L 172 3053 
L 172 3500 
L 594 3500 
L 594 4494 
L 1172 4494 
z
" transform="scale(0.015625)"/>
       <path id="DejaVuSans-61" d="M 2194 1759 
Q 1497 1759 1228 1600 
Q 959 1441 959 1056 
Q 959 750 1161 570 
Q 1363 391 1709 391 
Q 2188 391 2477 730 
Q 2766 1069 2766 1631 
L 2766 1759 
L 2194 1759 
z
M 3341 1997 
L 3341 0 
L 2766 0 
L 2766 531 
Q 2569 213 2275 61 
Q 1981 -91 1556 -91 
Q 1019 -91 701 211 
Q 384 513 384 1019 
Q 384 1609 779 1909 
Q 1175 2209 1959 2209 
L 2766 2209 
L 2766 2266 
Q 2766 2663 2505 2880 
Q 2244 3097 1772 3097 
Q 1472 3097 1187 3025 
Q 903 2953 641 2809 
L 641 3341 
Q 956 3463 1253 3523 
Q 1550 3584 1831 3584 
Q 2591 3584 2966 3190 
Q 3341 2797 3341 1997 
z
" transform="scale(0.015625)"/>
       <path id="DejaVuSans-69" d="M 603 3500 
L 1178 3500 
L 1178 0 
L 603 0 
L 603 3500 
z
M 603 4863 
L 1178 4863 
L 1178 4134 
L 603 4134 
L 603 4863 
z
" transform="scale(0.015625)"/>
       <path id="DejaVuSans-73" d="M 2834 3397 
L 2834 2853 
Q 2591 2978 2328 3040 
Q 2066 3103 1784 3103 
Q 1356 3103 1142 2972 
Q 928 2841 928 2578 
Q 928 2378 1081 2264 
Q 1234 2150 1697 2047 
L 1894 2003 
Q 2506 1872 2764 1633 
Q 3022 1394 3022 966 
Q 3022 478 2636 193 
Q 2250 -91 1575 -91 
Q 1294 -91 989 -36 
Q 684 19 347 128 
L 347 722 
Q 666 556 975 473 
Q 1284 391 1588 391 
Q 1994 391 2212 530 
Q 2431 669 2431 922 
Q 2431 1156 2273 1281 
Q 2116 1406 1581 1522 
L 1381 1569 
Q 847 1681 609 1914 
Q 372 2147 372 2553 
Q 372 3047 722 3315 
Q 1072 3584 1716 3584 
Q 2034 3584 2315 3537 
Q 2597 3491 2834 3397 
z
" transform="scale(0.015625)"/>
      </defs>
      <use xlink:href="#DejaVuSans-46"/>
      <use xlink:href="#DejaVuSans-6f" x="53.894531"/>
      <use xlink:href="#DejaVuSans-72" x="115.076172"/>
      <use xlink:href="#DejaVuSans-63" x="153.939453"/>
      <use xlink:href="#DejaVuSans-65" x="208.919922"/>
      <use xlink:href="#DejaVuSans-20" x="270.443359"/>
      <use xlink:href="#DejaVuSans-55" x="302.230469"/>
      <use xlink:href="#DejaVuSans-6e" x="375.423828"/>
      <use xlink:href="#DejaVuSans-63" x="438.802734"/>
      <use xlink:href="#DejaVuSans-65" x="493.783203"/>
      <use xlink:href="#DejaVuSans-72" x="555.306641"/>
      <use xlink:href="#DejaVuSans-74" x="596.419922"/>
      <use xlink:href="#DejaVuSans-61" x="635.628906"/>
      <use xlink:href="#DejaVuSans-69" x="696.908203"/>
      <use xlink:href="#DejaVuSans-6e" x="724.691406"/>
      <use xlink:href="#DejaVuSans-74" x="788.070312"/>
      <use xlink:href="#DejaVuSans-69" x="827.279297"/>
      <use xlink:href="#DejaVuSans-65" x="855.0625"/>
      <use xlink:href="#DejaVuSans-73" x="916.585938"/>
     </g>
    </g>
   </g>
   <g id="matplotlib.axis_2">
    <g id="ytick_1">
     <g id="line2d_9">
      <defs>
       <path id="ma64b00b761" d="M 0 0 
L -3.5 0 
" style="stroke: #000000; stroke-width: 0.8"/>
      </defs>
      <g>
       <use xlink:href="#ma64b00b761" x="104.69" y="484.420047" style="stroke: #000000; stroke-width: 0.8"/>
      </g>
     </g>
     <g id="text_10">
      <!-- 2.5 -->
      <g transform="translate(62.703125 492.778329) scale(0.22 -0.22)">
       <use xlink:href="#DejaVuSans-32"/>
       <use xlink:href="#DejaVuSans-2e" x="63.623047"/>
       <use xlink:href="#DejaVuSans-35" x="95.410156"/>
      </g>
     </g>
    </g>
    <g id="ytick_2">
     <g id="line2d_10">
      <g>
       <use xlink:href="#ma64b00b761" x="104.69" y="423.769451" style="stroke: #000000; stroke-width: 0.8"/>
      </g>
     </g>
     <g id="text_11">
      <!-- 5.0 -->
      <g transform="translate(62.703125 432.127732) scale(0.22 -0.22)">
       <use xlink:href="#DejaVuSans-35"/>
       <use xlink:href="#DejaVuSans-2e" x="63.623047"/>
       <use xlink:href="#DejaVuSans-30" x="95.410156"/>
      </g>
     </g>
    </g>
    <g id="ytick_3">
     <g id="line2d_11">
      <g>
       <use xlink:href="#ma64b00b761" x="104.69" y="363.118855" style="stroke: #000000; stroke-width: 0.8"/>
      </g>
     </g>
     <g id="text_12">
      <!-- 7.5 -->
      <g transform="translate(62.703125 371.477136) scale(0.22 -0.22)">
       <use xlink:href="#DejaVuSans-37"/>
       <use xlink:href="#DejaVuSans-2e" x="63.623047"/>
       <use xlink:href="#DejaVuSans-35" x="95.410156"/>
      </g>
     </g>
    </g>
    <g id="ytick_4">
     <g id="line2d_12">
      <g>
       <use xlink:href="#ma64b00b761" x="104.69" y="302.468258" style="stroke: #000000; stroke-width: 0.8"/>
      </g>
     </g>
     <g id="text_13">
      <!-- 10.0 -->
      <g transform="translate(48.705625 310.82654) scale(0.22 -0.22)">
       <use xlink:href="#DejaVuSans-31"/>
       <use xlink:href="#DejaVuSans-30" x="63.623047"/>
       <use xlink:href="#DejaVuSans-2e" x="127.246094"/>
       <use xlink:href="#DejaVuSans-30" x="159.033203"/>
      </g>
     </g>
    </g>
    <g id="ytick_5">
     <g id="line2d_13">
      <g>
       <use xlink:href="#ma64b00b761" x="104.69" y="241.817662" style="stroke: #000000; stroke-width: 0.8"/>
      </g>
     </g>
     <g id="text_14">
      <!-- 12.5 -->
      <g transform="translate(48.705625 250.175943) scale(0.22 -0.22)">
       <use xlink:href="#DejaVuSans-31"/>
       <use xlink:href="#DejaVuSans-32" x="63.623047"/>
       <use xlink:href="#DejaVuSans-2e" x="127.246094"/>
       <use xlink:href="#DejaVuSans-35" x="159.033203"/>
      </g>
     </g>
    </g>
    <g id="ytick_6">
     <g id="line2d_14">
      <g>
       <use xlink:href="#ma64b00b761" x="104.69" y="181.167066" style="stroke: #000000; stroke-width: 0.8"/>
      </g>
     </g>
     <g id="text_15">
      <!-- 15.0 -->
      <g transform="translate(48.705625 189.525347) scale(0.22 -0.22)">
       <use xlink:href="#DejaVuSans-31"/>
       <use xlink:href="#DejaVuSans-35" x="63.623047"/>
       <use xlink:href="#DejaVuSans-2e" x="127.246094"/>
       <use xlink:href="#DejaVuSans-30" x="159.033203"/>
      </g>
     </g>
    </g>
    <g id="ytick_7">
     <g id="line2d_15">
      <g>
       <use xlink:href="#ma64b00b761" x="104.69" y="120.516469" style="stroke: #000000; stroke-width: 0.8"/>
      </g>
     </g>
     <g id="text_16">
      <!-- 17.5 -->
      <g transform="translate(48.705625 128.874751) scale(0.22 -0.22)">
       <use xlink:href="#DejaVuSans-31"/>
       <use xlink:href="#DejaVuSans-37" x="63.623047"/>
       <use xlink:href="#DejaVuSans-2e" x="127.246094"/>
       <use xlink:href="#DejaVuSans-35" x="159.033203"/>
      </g>
     </g>
    </g>
    <g id="ytick_8">
     <g id="line2d_16">
      <g>
       <use xlink:href="#ma64b00b761" x="104.69" y="59.865873" style="stroke: #000000; stroke-width: 0.8"/>
      </g>
     </g>
     <g id="text_17">
      <!-- 20.0 -->
      <g transform="translate(48.705625 68.224154) scale(0.22 -0.22)">
       <use xlink:href="#DejaVuSans-32"/>
       <use xlink:href="#DejaVuSans-30" x="63.623047"/>
       <use xlink:href="#DejaVuSans-2e" x="127.246094"/>
       <use xlink:href="#DejaVuSans-30" x="159.033203"/>
      </g>
     </g>
    </g>
    <g id="text_18">
     <!-- Force Errors [kJ/(mol*A)] -->
     <g transform="translate(40.130313 394.9125) rotate(-90) scale(0.22 -0.22)">
      <defs>
       <path id="DejaVuSans-45" d="M 628 4666 
L 3578 4666 
L 3578 4134 
L 1259 4134 
L 1259 2753 
L 3481 2753 
L 3481 2222 
L 1259 2222 
L 1259 531 
L 3634 531 
L 3634 0 
L 628 0 
L 628 4666 
z
" transform="scale(0.015625)"/>
       <path id="DejaVuSans-5b" d="M 550 4863 
L 1875 4863 
L 1875 4416 
L 1125 4416 
L 1125 -397 
L 1875 -397 
L 1875 -844 
L 550 -844 
L 550 4863 
z
" transform="scale(0.015625)"/>
       <path id="DejaVuSans-6b" d="M 581 4863 
L 1159 4863 
L 1159 1991 
L 2875 3500 
L 3609 3500 
L 1753 1863 
L 3688 0 
L 2938 0 
L 1159 1709 
L 1159 0 
L 581 0 
L 581 4863 
z
" transform="scale(0.015625)"/>
       <path id="DejaVuSans-4a" d="M 628 4666 
L 1259 4666 
L 1259 325 
Q 1259 -519 939 -900 
Q 619 -1281 -91 -1281 
L -331 -1281 
L -331 -750 
L -134 -750 
Q 284 -750 456 -515 
Q 628 -281 628 325 
L 628 4666 
z
" transform="scale(0.015625)"/>
       <path id="DejaVuSans-2f" d="M 1625 4666 
L 2156 4666 
L 531 -594 
L 0 -594 
L 1625 4666 
z
" transform="scale(0.015625)"/>
       <path id="DejaVuSans-28" d="M 1984 4856 
Q 1566 4138 1362 3434 
Q 1159 2731 1159 2009 
Q 1159 1288 1364 580 
Q 1569 -128 1984 -844 
L 1484 -844 
Q 1016 -109 783 600 
Q 550 1309 550 2009 
Q 550 2706 781 3412 
Q 1013 4119 1484 4856 
L 1984 4856 
z
" transform="scale(0.015625)"/>
       <path id="DejaVuSans-6d" d="M 3328 2828 
Q 3544 3216 3844 3400 
Q 4144 3584 4550 3584 
Q 5097 3584 5394 3201 
Q 5691 2819 5691 2113 
L 5691 0 
L 5113 0 
L 5113 2094 
Q 5113 2597 4934 2840 
Q 4756 3084 4391 3084 
Q 3944 3084 3684 2787 
Q 3425 2491 3425 1978 
L 3425 0 
L 2847 0 
L 2847 2094 
Q 2847 2600 2669 2842 
Q 2491 3084 2119 3084 
Q 1678 3084 1418 2786 
Q 1159 2488 1159 1978 
L 1159 0 
L 581 0 
L 581 3500 
L 1159 3500 
L 1159 2956 
Q 1356 3278 1631 3431 
Q 1906 3584 2284 3584 
Q 2666 3584 2933 3390 
Q 3200 3197 3328 2828 
z
" transform="scale(0.015625)"/>
       <path id="DejaVuSans-6c" d="M 603 4863 
L 1178 4863 
L 1178 0 
L 603 0 
L 603 4863 
z
" transform="scale(0.015625)"/>
       <path id="DejaVuSans-2a" d="M 3009 3897 
L 1888 3291 
L 3009 2681 
L 2828 2375 
L 1778 3009 
L 1778 1831 
L 1422 1831 
L 1422 3009 
L 372 2375 
L 191 2681 
L 1313 3291 
L 191 3897 
L 372 4206 
L 1422 3572 
L 1422 4750 
L 1778 4750 
L 1778 3572 
L 2828 4206 
L 3009 3897 
z
" transform="scale(0.015625)"/>
       <path id="DejaVuSans-41" d="M 2188 4044 
L 1331 1722 
L 3047 1722 
L 2188 4044 
z
M 1831 4666 
L 2547 4666 
L 4325 0 
L 3669 0 
L 3244 1197 
L 1141 1197 
L 716 0 
L 50 0 
L 1831 4666 
z
" transform="scale(0.015625)"/>
       <path id="DejaVuSans-29" d="M 513 4856 
L 1013 4856 
Q 1481 4119 1714 3412 
Q 1947 2706 1947 2009 
Q 1947 1309 1714 600 
Q 1481 -109 1013 -844 
L 513 -844 
Q 928 -128 1133 580 
Q 1338 1288 1338 2009 
Q 1338 2731 1133 3434 
Q 928 4138 513 4856 
z
" transform="scale(0.015625)"/>
       <path id="DejaVuSans-5d" d="M 1947 4863 
L 1947 -844 
L 622 -844 
L 622 -397 
L 1369 -397 
L 1369 4416 
L 622 4416 
L 622 4863 
L 1947 4863 
z
" transform="scale(0.015625)"/>
      </defs>
      <use xlink:href="#DejaVuSans-46"/>
      <use xlink:href="#DejaVuSans-6f" x="53.894531"/>
      <use xlink:href="#DejaVuSans-72" x="115.076172"/>
      <use xlink:href="#DejaVuSans-63" x="153.939453"/>
      <use xlink:href="#DejaVuSans-65" x="208.919922"/>
      <use xlink:href="#DejaVuSans-20" x="270.443359"/>
      <use xlink:href="#DejaVuSans-45" x="302.230469"/>
      <use xlink:href="#DejaVuSans-72" x="365.414062"/>
      <use xlink:href="#DejaVuSans-72" x="404.777344"/>
      <use xlink:href="#DejaVuSans-6f" x="443.640625"/>
      <use xlink:href="#DejaVuSans-72" x="504.822266"/>
      <use xlink:href="#DejaVuSans-73" x="545.935547"/>
      <use xlink:href="#DejaVuSans-20" x="598.035156"/>
      <use xlink:href="#DejaVuSans-5b" x="629.822266"/>
      <use xlink:href="#DejaVuSans-6b" x="668.835938"/>
      <use xlink:href="#DejaVuSans-4a" x="726.746094"/>
      <use xlink:href="#DejaVuSans-2f" x="756.238281"/>
      <use xlink:href="#DejaVuSans-28" x="789.929688"/>
      <use xlink:href="#DejaVuSans-6d" x="828.943359"/>
      <use xlink:href="#DejaVuSans-6f" x="926.355469"/>
      <use xlink:href="#DejaVuSans-6c" x="987.537109"/>
      <use xlink:href="#DejaVuSans-2a" x="1015.320312"/>
      <use xlink:href="#DejaVuSans-41" x="1065.320312"/>
      <use xlink:href="#DejaVuSans-29" x="1133.728516"/>
      <use xlink:href="#DejaVuSans-5d" x="1172.742188"/>
     </g>
    </g>
   </g>
   <g id="line2d_17">
    <path d="M 104.69 499.48 
L 696.24 23.76 
" clip-path="url(#pa8257a8b0f)" style="fill: none; stroke-dasharray: 5.55,2.4; stroke-dashoffset: 0; stroke: #ff0000; stroke-width: 1.5"/>
   </g>
   <g id="patch_3">
    <path d="M 104.69 499.48 
L 104.69 23.76 
" style="fill: none; stroke: #000000; stroke-width: 0.8; stroke-linejoin: miter; stroke-linecap: square"/>
   </g>
   <g id="patch_4">
    <path d="M 696.24 499.48 
L 696.24 23.76 
" style="fill: none; stroke: #000000; stroke-width: 0.8; stroke-linejoin: miter; stroke-linecap: square"/>
   </g>
   <g id="patch_5">
    <path d="M 104.69 499.48 
L 696.24 499.48 
" style="fill: none; stroke: #000000; stroke-width: 0.8; stroke-linejoin: miter; stroke-linecap: square"/>
   </g>
   <g id="patch_6">
    <path d="M 104.69 23.76 
L 696.24 23.76 
" style="fill: none; stroke: #000000; stroke-width: 0.8; stroke-linejoin: miter; stroke-linecap: square"/>
   </g>
   <g id="text_19">
    <!-- Correlation in: 0.442 -->
    <g transform="translate(163.845 71.332) scale(0.22 -0.22)">
     <defs>
      <path id="DejaVuSans-43" d="M 4122 4306 
L 4122 3641 
Q 3803 3938 3442 4084 
Q 3081 4231 2675 4231 
Q 1875 4231 1450 3742 
Q 1025 3253 1025 2328 
Q 1025 1406 1450 917 
Q 1875 428 2675 428 
Q 3081 428 3442 575 
Q 3803 722 4122 1019 
L 4122 359 
Q 3791 134 3420 21 
Q 3050 -91 2638 -91 
Q 1578 -91 968 557 
Q 359 1206 359 2328 
Q 359 3453 968 4101 
Q 1578 4750 2638 4750 
Q 3056 4750 3426 4639 
Q 3797 4528 4122 4306 
z
" transform="scale(0.015625)"/>
      <path id="DejaVuSans-3a" d="M 750 794 
L 1409 794 
L 1409 0 
L 750 0 
L 750 794 
z
M 750 3309 
L 1409 3309 
L 1409 2516 
L 750 2516 
L 750 3309 
z
" transform="scale(0.015625)"/>
      <path id="DejaVuSans-34" d="M 2419 4116 
L 825 1625 
L 2419 1625 
L 2419 4116 
z
M 2253 4666 
L 3047 4666 
L 3047 1625 
L 3713 1625 
L 3713 1100 
L 3047 1100 
L 3047 0 
L 2419 0 
L 2419 1100 
L 313 1100 
L 313 1709 
L 2253 4666 
z
" transform="scale(0.015625)"/>
     </defs>
     <use xlink:href="#DejaVuSans-43"/>
     <use xlink:href="#DejaVuSans-6f" x="69.824219"/>
     <use xlink:href="#DejaVuSans-72" x="131.005859"/>
     <use xlink:href="#DejaVuSans-72" x="170.369141"/>
     <use xlink:href="#DejaVuSans-65" x="209.232422"/>
     <use xlink:href="#DejaVuSans-6c" x="270.755859"/>
     <use xlink:href="#DejaVuSans-61" x="298.539062"/>
     <use xlink:href="#DejaVuSans-74" x="359.818359"/>
     <use xlink:href="#DejaVuSans-69" x="399.027344"/>
     <use xlink:href="#DejaVuSans-6f" x="426.810547"/>
     <use xlink:href="#DejaVuSans-6e" x="487.992188"/>
     <use xlink:href="#DejaVuSans-20" x="551.371094"/>
     <use xlink:href="#DejaVuSans-69" x="583.158203"/>
     <use xlink:href="#DejaVuSans-6e" x="610.941406"/>
     <use xlink:href="#DejaVuSans-3a" x="674.320312"/>
     <use xlink:href="#DejaVuSans-20" x="708.011719"/>
     <use xlink:href="#DejaVuSans-30" x="739.798828"/>
     <use xlink:href="#DejaVuSans-2e" x="803.421875"/>
     <use xlink:href="#DejaVuSans-34" x="835.208984"/>
     <use xlink:href="#DejaVuSans-34" x="898.832031"/>
     <use xlink:href="#DejaVuSans-32" x="962.455078"/>
    </g>
   </g>
  </g>
 </g>
 <defs>
  <clipPath id="pa8257a8b0f">
   <rect x="104.69" y="23.76" width="591.55" height="475.72"/>
  </clipPath>
 </defs>
</svg>
