<?xml version="1.0" encoding="utf-8" standalone="no"?>
<!DOCTYPE svg PUBLIC "-//W3C//DTD SVG 1.1//EN"
  "http://www.w3.org/Graphics/SVG/1.1/DTD/svg11.dtd">
<svg xmlns:xlink="http://www.w3.org/1999/xlink" width="720pt" height="576pt" viewBox="0 0 720 576" xmlns="http://www.w3.org/2000/svg" version="1.1">
 <metadata>
  <rdf:RDF xmlns:dc="http://purl.org/dc/elements/1.1/" xmlns:cc="http://creativecommons.org/ns#" xmlns:rdf="http://www.w3.org/1999/02/22-rdf-syntax-ns#">
   <cc:Work>
    <dc:type rdf:resource="http://purl.org/dc/dcmitype/StillImage"/>
    <dc:date>2024-12-07T12:47:21.997204</dc:date>
    <dc:format>image/svg+xml</dc:format>
    <dc:creator>
     <cc:Agent>
      <dc:title>Matplotlib v3.8.4, https://matplotlib.org/</dc:title>
     </cc:Agent>
    </dc:creator>
   </cc:Work>
  </rdf:RDF>
 </metadata>
 <defs>
  <style type="text/css">*{stroke-linejoin: round; stroke-linecap: butt}</style>
 </defs>
 <g id="figure_1">
  <g id="patch_1">
   <path d="M 0 576 
L 720 576 
L 720 0 
L 0 0 
z
" style="fill: #ffffff"/>
  </g>
  <g id="axes_1">
   <g id="patch_2">
    <path d="M 83.72 499.48 
L 696.24 499.48 
L 696.24 23.76 
L 83.72 23.76 
z
" style="fill: #ffffff"/>
   </g>
   <g id="QuadContourSet_1">
    <path d="M 368.894468 497.35599 
L 370.798486 497.503687 
L 372.702504 497.526163 
L 374.606522 497.4893 
L 376.51054 497.457188 
L 378.414558 497.414928 
L 380.318576 497.256642 
L 380.61039 497.200295 
L 382.222594 496.939997 
L 384.126612 496.400826 
L 384.724913 496.172035 
L 386.03063 495.720186 
L 387.392512 495.143776 
L 387.934648 494.935802 
L 389.826914 494.115516 
L 389.838667 494.11097 
L 391.742685 493.307023 
L 392.198336 493.087256 
L 393.646703 492.445413 
L 394.40572 492.058996 
L 395.550721 491.496837 
L 396.406845 491.030736 
L 397.454739 490.44663 
L 398.220976 490.002477 
L 399.358757 489.28593 
L 399.870111 488.974217 
L 401.262775 488.004472 
L 401.355898 487.945957 
L 402.862554 486.917697 
L 403.166793 486.676505 
L 404.35543 485.889437 
L 405.070811 485.329438 
L 405.858087 484.861178 
L 406.974829 484.107821 
L 407.556472 483.832918 
L 408.878847 483.170235 
L 409.885914 482.804658 
L 410.782865 482.476373 
L 412.686883 481.817956 
L 412.782892 481.776398 
L 414.590901 480.987999 
L 415.008415 480.748138 
L 416.494919 479.816609 
L 416.625591 479.719879 
L 417.848004 478.691619 
L 418.398937 478.121702 
L 418.833944 477.663359 
L 419.611648 476.635099 
L 420.197569 475.606839 
L 420.302955 475.363852 
L 420.70739 474.57858 
L 421.124685 473.55032 
L 421.480334 472.52206 
L 421.823502 471.4938 
L 422.190506 470.46554 
L 422.206973 470.424993 
L 422.719671 469.437281 
L 423.242196 468.409021 
L 423.742081 467.380761 
L 424.110991 466.573268 
L 424.232876 466.352501 
L 424.725711 465.324241 
L 425.122879 464.295982 
L 425.435129 463.267722 
L 425.6713 462.239462 
L 425.842796 461.211202 
L 425.961477 460.182942 
L 426.015009 459.464943 
L 426.04328 459.154683 
L 426.099477 458.126423 
L 426.137515 457.098163 
L 426.190295 456.069903 
L 426.29421 455.041643 
L 426.474748 454.013384 
L 426.736479 452.985124 
L 427.064181 451.956864 
L 427.430617 450.928604 
L 427.803428 449.900344 
L 427.919027 449.553427 
L 428.234573 448.872085 
L 428.604136 447.843825 
L 428.829028 446.815565 
L 428.88875 445.787305 
L 428.789431 444.759045 
L 428.569966 443.730786 
L 428.294664 442.702526 
L 428.034449 441.674266 
L 427.919027 441.0408 
L 427.85024 440.646006 
L 427.755285 439.617747 
L 427.741994 438.589487 
L 427.801251 437.561227 
L 427.907782 436.532967 
L 427.919027 436.249633 
L 427.943289 435.504707 
L 427.919027 435.336454 
L 427.445133 434.476448 
L 426.015009 433.954158 
L 425.088429 433.448188 
L 424.110991 432.648811 
L 424.036816 432.419928 
L 423.771903 431.391668 
L 423.493445 430.363408 
L 423.097502 429.335149 
L 422.487322 428.306889 
L 422.206973 427.959557 
L 421.611017 427.278629 
L 420.5712 426.250369 
L 420.302955 425.96583 
L 419.638925 425.222109 
L 418.940376 424.19385 
L 418.398937 423.16559 
L 418.398937 423.16559 
L 417.815251 422.13733 
L 417.082539 421.10907 
L 416.494919 420.522465 
L 415.643195 420.08081 
L 414.590901 419.626776 
L 413.744736 419.052551 
L 412.686883 418.256 
L 412.50047 418.024291 
L 411.601526 416.996031 
L 410.782865 416.2066 
L 410.44011 415.967771 
L 408.878847 415.180653 
L 406.974829 415.057604 
L 405.070811 415.474624 
L 403.923254 415.967771 
L 403.166793 416.27374 
L 401.772831 416.996031 
L 401.262775 417.248618 
L 399.692755 418.024291 
L 399.358757 418.185729 
L 397.454739 418.91181 
L 396.80855 419.052551 
L 395.550721 419.329734 
L 393.646703 419.520413 
L 391.742685 419.806237 
L 390.989156 420.08081 
L 389.838667 420.468584 
L 388.760485 421.10907 
L 387.934648 421.568344 
L 387.19113 422.13733 
L 386.03063 422.98841 
L 385.822167 423.16559 
L 384.548279 424.19385 
L 384.126612 424.526833 
L 383.259564 425.222109 
L 382.222594 426.070963 
L 381.986596 426.250369 
L 380.666077 427.278629 
L 380.318576 427.567304 
L 379.356443 428.306889 
L 378.414558 429.133005 
L 378.176254 429.335149 
L 377.095811 430.363408 
L 376.51054 431.035107 
L 376.198511 431.391668 
L 375.403106 432.419928 
L 374.747419 433.448188 
L 374.606522 433.679138 
L 374.087111 434.476448 
L 373.455148 435.504707 
L 372.856079 436.532967 
L 372.702504 436.775716 
L 372.121602 437.561227 
L 371.34628 438.589487 
L 370.798486 439.295871 
L 370.501082 439.617747 
L 369.516968 440.646006 
L 368.894468 441.324625 
L 368.535281 441.674266 
L 367.525551 442.702526 
L 366.99045 443.305289 
L 366.582362 443.730786 
L 365.681946 444.759045 
L 365.086432 445.546341 
L 364.880496 445.787305 
L 364.046543 446.815565 
L 363.350165 447.843825 
L 363.182414 448.10013 
L 362.579057 448.872085 
L 361.888705 449.900344 
L 361.299734 450.928604 
L 361.278396 450.967107 
L 360.594046 451.956864 
L 360.006687 452.985124 
L 359.499213 454.013384 
L 359.374378 454.281368 
L 358.916187 455.041643 
L 358.374888 456.069903 
L 357.887978 457.098163 
L 357.47036 458.030834 
L 357.414512 458.126423 
L 356.864356 459.154683 
L 356.371312 460.182942 
L 355.921292 461.211202 
L 355.566342 462.118754 
L 355.508462 462.239462 
L 355.084302 463.267722 
L 354.723145 464.295982 
L 354.421945 465.324241 
L 354.181903 466.352501 
L 354.004045 467.380761 
L 353.888834 468.409021 
L 353.835078 469.437281 
L 353.833343 470.46554 
L 353.857526 471.4938 
L 353.867539 472.52206 
L 353.828035 473.55032 
L 353.725175 474.57858 
L 353.662324 474.96099 
L 353.487872 475.606839 
L 353.152932 476.635099 
L 352.815551 477.663359 
L 352.498063 478.691619 
L 352.213483 479.719879 
L 351.973333 480.748138 
L 351.789296 481.776398 
L 351.758306 482.04341 
L 351.623639 482.804658 
L 351.536949 483.832918 
L 351.536574 484.861178 
L 351.615198 485.889437 
L 351.758306 486.839 
L 351.766349 486.917697 
L 351.926005 487.945957 
L 352.152495 488.974217 
L 352.456211 490.002477 
L 352.853891 491.030736 
L 353.385726 492.058996 
L 353.662324 492.478349 
L 354.094317 493.087256 
L 355.245524 494.115516 
L 355.566342 494.320427 
L 357.42308 495.143776 
L 357.47036 495.160755 
L 359.374378 495.722194 
L 361.278396 496.130445 
L 361.504999 496.172035 
L 363.182414 496.516039 
L 365.086432 496.837536 
L 366.99045 497.108243 
L 367.808204 497.200295 
z
M 369.03818 492.058996 
L 368.894468 492.046198 
L 366.99045 491.767098 
L 365.086432 491.263868 
L 364.471748 491.030736 
L 363.182414 490.45969 
L 362.352376 490.002477 
L 361.278396 489.282805 
L 360.885089 488.974217 
L 359.837871 487.945957 
L 359.374378 487.316732 
L 359.113522 486.917697 
L 358.622384 485.889437 
L 358.314474 484.861178 
L 358.138086 483.832918 
L 358.051556 482.804658 
L 358.024341 481.776398 
L 358.037465 480.748138 
L 358.082776 479.719879 
L 358.160549 478.691619 
L 358.275183 477.663359 
L 358.430308 476.635099 
L 358.625829 475.606839 
L 358.858106 474.57858 
L 359.121977 473.55032 
L 359.374378 472.652001 
L 359.402617 472.52206 
L 359.625496 471.4938 
L 359.854583 470.46554 
L 360.10217 469.437281 
L 360.388766 468.409021 
L 360.740699 467.380761 
L 361.18773 466.352501 
L 361.278396 466.172922 
L 361.603332 465.324241 
L 362.071626 464.295982 
L 362.636747 463.267722 
L 363.182414 462.415595 
L 363.272048 462.239462 
L 363.796006 461.211202 
L 364.380982 460.182942 
L 365.025131 459.154683 
L 365.086432 459.045223 
L 365.507053 458.126423 
L 365.990963 457.098163 
L 366.490515 456.069903 
L 366.988452 455.041643 
L 366.99045 455.03721 
L 367.397413 454.013384 
L 367.893908 452.985124 
L 368.490034 451.956864 
L 368.894468 451.35025 
L 369.156572 450.928604 
L 369.928417 449.900344 
L 370.798486 448.925985 
L 370.843669 448.872085 
L 371.818087 447.843825 
L 372.702504 447.034345 
L 372.929168 446.815565 
L 374.083859 445.787305 
L 374.606522 445.346038 
L 375.279381 444.759045 
L 376.51054 443.73084 
L 376.510605 443.730786 
L 377.708205 442.702526 
L 378.414558 442.091161 
L 378.93254 441.674266 
L 380.17624 440.646006 
L 380.318576 440.521397 
L 381.489967 439.617747 
L 382.222594 439.028992 
L 382.86784 438.589487 
L 384.126612 437.679503 
L 384.333484 437.561227 
L 386.011009 436.532967 
L 386.03063 436.520198 
L 387.934648 435.67549 
L 388.736209 435.504707 
L 389.838667 435.252041 
L 391.742685 435.271663 
L 392.61556 435.504707 
L 393.646703 435.800483 
L 395.184242 436.532967 
L 395.550721 436.677204 
L 397.454739 437.089085 
L 399.358757 437.031663 
L 401.262775 436.782297 
L 403.166793 436.532967 
L 403.166793 436.532967 
L 405.070811 436.435182 
L 405.706468 436.532967 
L 406.974829 436.75583 
L 408.510175 437.561227 
L 408.878847 437.813305 
L 409.675381 438.589487 
L 410.509031 439.617747 
L 410.782865 440.007766 
L 411.177585 440.646006 
L 411.740173 441.674266 
L 412.207547 442.702526 
L 412.576803 443.730786 
L 412.686883 444.113952 
L 412.91128 444.759045 
L 413.265666 445.787305 
L 413.704487 446.815565 
L 414.305316 447.843825 
L 414.590901 448.2478 
L 415.109748 448.872085 
L 415.813675 449.900344 
L 416.22019 450.928604 
L 416.335431 451.956864 
L 416.234386 452.985124 
L 415.992226 454.013384 
L 415.661645 455.041643 
L 415.274553 456.069903 
L 414.849536 457.098163 
L 414.590901 457.693982 
L 414.441945 458.126423 
L 414.104146 459.154683 
L 413.789883 460.182942 
L 413.497661 461.211202 
L 413.221033 462.239462 
L 412.945041 463.267722 
L 412.686883 464.156845 
L 412.656715 464.295982 
L 412.401145 465.324241 
L 412.095256 466.352501 
L 411.733329 467.380761 
L 411.309883 468.409021 
L 410.814136 469.437281 
L 410.782865 469.497909 
L 410.404051 470.46554 
L 409.954159 471.4938 
L 409.425349 472.52206 
L 408.878847 473.398037 
L 408.804603 473.55032 
L 408.244655 474.57858 
L 407.535553 475.606839 
L 406.974829 476.263067 
L 406.719353 476.635099 
L 405.902974 477.663359 
L 405.070811 478.521242 
L 404.929249 478.691619 
L 403.999776 479.719879 
L 403.166793 480.51381 
L 402.940058 480.748138 
L 401.882472 481.776398 
L 401.262775 482.321115 
L 400.717126 482.804658 
L 399.465644 483.832918 
L 399.358757 483.916616 
L 398.076284 484.861178 
L 397.454739 485.29266 
L 396.458786 485.889437 
L 395.550721 486.419852 
L 394.490256 486.917697 
L 393.646703 487.315045 
L 391.952433 487.945957 
L 391.742685 488.02617 
L 389.838667 488.687987 
L 389.043711 488.974217 
L 387.934648 489.378543 
L 386.28751 490.002477 
L 386.03063 490.10196 
L 384.126612 490.832244 
L 383.499325 491.030736 
L 382.222594 491.45761 
L 380.318576 491.90169 
L 379.22752 492.058996 
L 378.414558 492.192594 
L 376.51054 492.355455 
L 374.606522 492.398104 
L 372.702504 492.349108 
L 370.798486 492.2315 
z
" clip-path="url(#pa1e3faf7b0)" style="fill: #eff6fc"/>
    <path d="M 370.798486 492.2315 
L 372.702504 492.349108 
L 374.606522 492.398104 
L 376.51054 492.355455 
L 378.414558 492.192594 
L 379.22752 492.058996 
L 380.318576 491.90169 
L 382.222594 491.45761 
L 383.499325 491.030736 
L 384.126612 490.832244 
L 386.03063 490.10196 
L 386.28751 490.002477 
L 387.934648 489.378543 
L 389.043711 488.974217 
L 389.838667 488.687987 
L 391.742685 488.02617 
L 391.952433 487.945957 
L 393.646703 487.315045 
L 394.490256 486.917697 
L 395.550721 486.419852 
L 396.458786 485.889437 
L 397.454739 485.29266 
L 398.076284 484.861178 
L 399.358757 483.916616 
L 399.465644 483.832918 
L 400.717126 482.804658 
L 401.262775 482.321115 
L 401.882472 481.776398 
L 402.940058 480.748138 
L 403.166793 480.51381 
L 403.999776 479.719879 
L 404.929249 478.691619 
L 405.070811 478.521242 
L 405.902974 477.663359 
L 406.719353 476.635099 
L 406.974829 476.263067 
L 407.535553 475.606839 
L 408.244655 474.57858 
L 408.804603 473.55032 
L 408.878847 473.398037 
L 409.425349 472.52206 
L 409.954159 471.4938 
L 410.404051 470.46554 
L 410.782865 469.497909 
L 410.814136 469.437281 
L 411.309883 468.409021 
L 411.733329 467.380761 
L 412.095256 466.352501 
L 412.401145 465.324241 
L 412.656715 464.295982 
L 412.686883 464.156845 
L 412.945041 463.267722 
L 413.221033 462.239462 
L 413.497661 461.211202 
L 413.789883 460.182942 
L 414.104146 459.154683 
L 414.441945 458.126423 
L 414.590901 457.693982 
L 414.849536 457.098163 
L 415.274553 456.069903 
L 415.661645 455.041643 
L 415.992226 454.013384 
L 416.234386 452.985124 
L 416.335431 451.956864 
L 416.22019 450.928604 
L 415.813675 449.900344 
L 415.109748 448.872085 
L 414.590901 448.2478 
L 414.305316 447.843825 
L 413.704487 446.815565 
L 413.265666 445.787305 
L 412.91128 444.759045 
L 412.686883 444.113952 
L 412.576803 443.730786 
L 412.207547 442.702526 
L 411.740173 441.674266 
L 411.177585 440.646006 
L 410.782865 440.007766 
L 410.509031 439.617747 
L 409.675381 438.589487 
L 408.878847 437.813305 
L 408.510175 437.561227 
L 406.974829 436.75583 
L 405.706468 436.532967 
L 405.070811 436.435182 
L 403.166793 436.532967 
L 403.166793 436.532967 
L 401.262775 436.782297 
L 399.358757 437.031663 
L 397.454739 437.089085 
L 395.550721 436.677204 
L 395.184242 436.532967 
L 393.646703 435.800483 
L 392.61556 435.504707 
L 391.742685 435.271663 
L 389.838667 435.252041 
L 388.736209 435.504707 
L 387.934648 435.67549 
L 386.03063 436.520198 
L 386.011009 436.532967 
L 384.333484 437.561227 
L 384.126612 437.679503 
L 382.86784 438.589487 
L 382.222594 439.028992 
L 381.489967 439.617747 
L 380.318576 440.521397 
L 380.17624 440.646006 
L 378.93254 441.674266 
L 378.414558 442.091161 
L 377.708205 442.702526 
L 376.510605 443.730786 
L 376.51054 443.73084 
L 375.279381 444.759045 
L 374.606522 445.346038 
L 374.083859 445.787305 
L 372.929168 446.815565 
L 372.702504 447.034345 
L 371.818087 447.843825 
L 370.843669 448.872085 
L 370.798486 448.925985 
L 369.928417 449.900344 
L 369.156572 450.928604 
L 368.894468 451.35025 
L 368.490034 451.956864 
L 367.893908 452.985124 
L 367.397413 454.013384 
L 366.99045 455.03721 
L 366.988452 455.041643 
L 366.490515 456.069903 
L 365.990963 457.098163 
L 365.507053 458.126423 
L 365.086432 459.045223 
L 365.025131 459.154683 
L 364.380982 460.182942 
L 363.796006 461.211202 
L 363.272048 462.239462 
L 363.182414 462.415595 
L 362.636747 463.267722 
L 362.071626 464.295982 
L 361.603332 465.324241 
L 361.278396 466.172922 
L 361.18773 466.352501 
L 360.740699 467.380761 
L 360.388766 468.409021 
L 360.10217 469.437281 
L 359.854583 470.46554 
L 359.625496 471.4938 
L 359.402617 472.52206 
L 359.374378 472.652001 
L 359.121977 473.55032 
L 358.858106 474.57858 
L 358.625829 475.606839 
L 358.430308 476.635099 
L 358.275183 477.663359 
L 358.160549 478.691619 
L 358.082776 479.719879 
L 358.037465 480.748138 
L 358.024341 481.776398 
L 358.051556 482.804658 
L 358.138086 483.832918 
L 358.314474 484.861178 
L 358.622384 485.889437 
L 359.113522 486.917697 
L 359.374378 487.316732 
L 359.837871 487.945957 
L 360.885089 488.974217 
L 361.278396 489.282805 
L 362.352376 490.002477 
L 363.182414 490.45969 
L 364.471748 491.030736 
L 365.086432 491.263868 
L 366.99045 491.767098 
L 368.894468 492.046198 
L 369.03818 492.058996 
z
M 370.492967 488.974217 
L 368.894468 488.603834 
L 367.276271 487.945957 
L 366.99045 487.804592 
L 365.56062 486.917697 
L 365.086432 486.574615 
L 364.240993 485.889437 
L 363.235413 484.861178 
L 363.182414 484.793017 
L 362.547127 483.832918 
L 362.104606 482.804658 
L 361.841841 481.776398 
L 361.704634 480.748138 
L 361.653478 479.719879 
L 361.662541 478.691619 
L 361.71681 477.663359 
L 361.80882 476.635099 
L 361.9352 475.606839 
L 362.093553 474.57858 
L 362.280918 473.55032 
L 362.494483 472.52206 
L 362.733638 471.4938 
L 363.002017 470.46554 
L 363.182414 469.854097 
L 363.29096 469.437281 
L 363.590425 468.409021 
L 363.937234 467.380761 
L 364.349161 466.352501 
L 364.845751 465.324241 
L 365.086432 464.896707 
L 365.385779 464.295982 
L 365.96014 463.267722 
L 366.617369 462.239462 
L 366.99045 461.71062 
L 367.304576 461.211202 
L 367.983253 460.182942 
L 368.738919 459.154683 
L 368.894468 458.948306 
L 369.443258 458.126423 
L 370.172194 457.098163 
L 370.798486 456.287981 
L 370.952518 456.069903 
L 371.664636 455.041643 
L 372.458554 454.013384 
L 372.702504 453.706929 
L 373.240127 452.985124 
L 374.071103 451.956864 
L 374.606522 451.358466 
L 374.986881 450.928604 
L 375.966019 449.900344 
L 376.51054 449.387687 
L 377.080103 448.872085 
L 378.322237 447.843825 
L 378.414558 447.770758 
L 379.721225 446.815565 
L 380.318576 446.398608 
L 381.323248 445.787305 
L 382.222594 445.240074 
L 383.200268 444.759045 
L 384.126612 444.28382 
L 385.638744 443.730786 
L 386.03063 443.575028 
L 387.934648 443.160774 
L 389.838667 443.049568 
L 391.742685 443.042722 
L 393.646703 442.945486 
L 395.550721 442.760534 
L 396.288625 442.702526 
L 397.454739 442.601778 
L 399.358757 442.642524 
L 399.676902 442.702526 
L 401.262775 443.13895 
L 402.331113 443.730786 
L 403.166793 444.380945 
L 403.580794 444.759045 
L 404.543196 445.787305 
L 405.070811 446.439336 
L 405.307502 446.815565 
L 405.85311 447.843825 
L 406.279806 448.872085 
L 406.621211 449.900344 
L 406.909302 450.928604 
L 406.974829 451.16725 
L 407.21923 451.956864 
L 407.571408 452.985124 
L 407.948542 454.013384 
L 408.313889 455.041643 
L 408.614527 456.069903 
L 408.810822 457.098163 
L 408.878847 457.925506 
L 408.896674 458.126423 
L 408.878847 459.154683 
L 408.878847 459.154683 
L 408.788809 460.182942 
L 408.644362 461.211202 
L 408.459991 462.239462 
L 408.244164 463.267722 
L 408.00056 464.295982 
L 407.729559 465.324241 
L 407.42953 466.352501 
L 407.096905 467.380761 
L 406.974829 467.723326 
L 406.762706 468.409021 
L 406.396731 469.437281 
L 405.973792 470.46554 
L 405.487732 471.4938 
L 405.070811 472.264897 
L 404.940436 472.52206 
L 404.357447 473.55032 
L 403.690184 474.57858 
L 403.166793 475.295126 
L 402.936974 475.606839 
L 402.112666 476.635099 
L 401.262775 477.592401 
L 401.195076 477.663359 
L 400.166428 478.691619 
L 399.358757 479.449166 
L 399.037813 479.719879 
L 397.762565 480.748138 
L 397.454739 480.987447 
L 396.312069 481.776398 
L 395.550721 482.270712 
L 394.658265 482.804658 
L 393.646703 483.357549 
L 392.76256 483.832918 
L 391.742685 484.325567 
L 390.681068 484.861178 
L 389.838667 485.246396 
L 388.519622 485.889437 
L 387.934648 486.155211 
L 386.300224 486.917697 
L 386.03063 487.039019 
L 384.126612 487.852732 
L 383.86248 487.945957 
L 382.222594 488.538543 
L 380.463408 488.974217 
L 380.318576 489.012434 
L 378.414558 489.30975 
L 376.51054 489.419451 
L 374.606522 489.394396 
L 372.702504 489.271922 
L 370.798486 489.03722 
z
" clip-path="url(#pa1e3faf7b0)" style="fill: #dce9f6"/>
    <path d="M 370.798486 489.03722 
L 372.702504 489.271922 
L 374.606522 489.394396 
L 376.51054 489.419451 
L 378.414558 489.30975 
L 380.318576 489.012434 
L 380.463408 488.974217 
L 382.222594 488.538543 
L 383.86248 487.945957 
L 384.126612 487.852732 
L 386.03063 487.039019 
L 386.300224 486.917697 
L 387.934648 486.155211 
L 388.519622 485.889437 
L 389.838667 485.246396 
L 390.681068 484.861178 
L 391.742685 484.325567 
L 392.76256 483.832918 
L 393.646703 483.357549 
L 394.658265 482.804658 
L 395.550721 482.270712 
L 396.312069 481.776398 
L 397.454739 480.987447 
L 397.762565 480.748138 
L 399.037813 479.719879 
L 399.358757 479.449166 
L 400.166428 478.691619 
L 401.195076 477.663359 
L 401.262775 477.592401 
L 402.112666 476.635099 
L 402.936974 475.606839 
L 403.166793 475.295126 
L 403.690184 474.57858 
L 404.357447 473.55032 
L 404.940436 472.52206 
L 405.070811 472.264897 
L 405.487732 471.4938 
L 405.973792 470.46554 
L 406.396731 469.437281 
L 406.762706 468.409021 
L 406.974829 467.723326 
L 407.096905 467.380761 
L 407.42953 466.352501 
L 407.729559 465.324241 
L 408.00056 464.295982 
L 408.244164 463.267722 
L 408.459991 462.239462 
L 408.644362 461.211202 
L 408.788809 460.182942 
L 408.878847 459.154683 
L 408.878847 459.154683 
L 408.896674 458.126423 
L 408.878847 457.925506 
L 408.810822 457.098163 
L 408.614527 456.069903 
L 408.313889 455.041643 
L 407.948542 454.013384 
L 407.571408 452.985124 
L 407.21923 451.956864 
L 406.974829 451.16725 
L 406.909302 450.928604 
L 406.621211 449.900344 
L 406.279806 448.872085 
L 405.85311 447.843825 
L 405.307502 446.815565 
L 405.070811 446.439336 
L 404.543196 445.787305 
L 403.580794 444.759045 
L 403.166793 444.380945 
L 402.331113 443.730786 
L 401.262775 443.13895 
L 399.676902 442.702526 
L 399.358757 442.642524 
L 397.454739 442.601778 
L 396.288625 442.702526 
L 395.550721 442.760534 
L 393.646703 442.945486 
L 391.742685 443.042722 
L 389.838667 443.049568 
L 387.934648 443.160774 
L 386.03063 443.575028 
L 385.638744 443.730786 
L 384.126612 444.28382 
L 383.200268 444.759045 
L 382.222594 445.240074 
L 381.323248 445.787305 
L 380.318576 446.398608 
L 379.721225 446.815565 
L 378.414558 447.770758 
L 378.322237 447.843825 
L 377.080103 448.872085 
L 376.51054 449.387687 
L 375.966019 449.900344 
L 374.986881 450.928604 
L 374.606522 451.358466 
L 374.071103 451.956864 
L 373.240127 452.985124 
L 372.702504 453.706929 
L 372.458554 454.013384 
L 371.664636 455.041643 
L 370.952518 456.069903 
L 370.798486 456.287981 
L 370.172194 457.098163 
L 369.443258 458.126423 
L 368.894468 458.948306 
L 368.738919 459.154683 
L 367.983253 460.182942 
L 367.304576 461.211202 
L 366.99045 461.71062 
L 366.617369 462.239462 
L 365.96014 463.267722 
L 365.385779 464.295982 
L 365.086432 464.896707 
L 364.845751 465.324241 
L 364.349161 466.352501 
L 363.937234 467.380761 
L 363.590425 468.409021 
L 363.29096 469.437281 
L 363.182414 469.854097 
L 363.002017 470.46554 
L 362.733638 471.4938 
L 362.494483 472.52206 
L 362.280918 473.55032 
L 362.093553 474.57858 
L 361.9352 475.606839 
L 361.80882 476.635099 
L 361.71681 477.663359 
L 361.662541 478.691619 
L 361.653478 479.719879 
L 361.704634 480.748138 
L 361.841841 481.776398 
L 362.104606 482.804658 
L 362.547127 483.832918 
L 363.182414 484.793017 
L 363.235413 484.861178 
L 364.240993 485.889437 
L 365.086432 486.574615 
L 365.56062 486.917697 
L 366.99045 487.804592 
L 367.276271 487.945957 
L 368.894468 488.603834 
L 370.492967 488.974217 
z
M 374.257839 486.917697 
L 372.702504 486.674647 
L 370.798486 486.079992 
L 370.388289 485.889437 
L 368.894468 485.051837 
L 368.608136 484.861178 
L 367.216385 483.832918 
L 366.99045 483.644379 
L 366.136559 482.804658 
L 365.39527 481.776398 
L 365.086432 481.09797 
L 364.947484 480.748138 
L 364.70825 479.719879 
L 364.612034 478.691619 
L 364.616823 477.663359 
L 364.691202 476.635099 
L 364.810968 475.606839 
L 364.958071 474.57858 
L 365.086432 473.773741 
L 365.119035 473.55032 
L 365.286303 472.52206 
L 365.476653 471.4938 
L 365.695542 470.46554 
L 365.949942 469.437281 
L 366.24905 468.409021 
L 366.604242 467.380761 
L 366.99045 466.442862 
L 367.025887 466.352501 
L 367.493284 465.324241 
L 368.029755 464.295982 
L 368.637913 463.267722 
L 368.894468 462.874995 
L 369.290663 462.239462 
L 369.976647 461.211202 
L 370.718471 460.182942 
L 370.798486 460.076827 
L 371.472916 459.154683 
L 372.264184 458.126423 
L 372.702504 457.584064 
L 373.106463 457.098163 
L 373.976825 456.069903 
L 374.606522 455.356861 
L 374.915445 455.041643 
L 375.911173 454.013384 
L 376.51054 453.405504 
L 377.002981 452.985124 
L 378.178973 451.956864 
L 378.414558 451.749665 
L 379.571378 450.928604 
L 380.318576 450.383572 
L 381.194643 449.900344 
L 382.222594 449.305744 
L 383.288446 448.872085 
L 384.126612 448.514075 
L 386.03063 448.001534 
L 386.97426 447.843825 
L 387.934648 447.684583 
L 389.838667 447.417606 
L 391.742685 447.159019 
L 393.646703 447.01482 
L 395.550721 447.260655 
L 396.688952 447.843825 
L 397.454739 448.355304 
L 398.044112 448.872085 
L 399.299731 449.900344 
L 399.358757 449.941257 
L 400.820176 450.928604 
L 401.262775 451.228377 
L 402.055715 451.956864 
L 402.889389 452.985124 
L 403.166793 453.445421 
L 403.452229 454.013384 
L 403.897076 455.041643 
L 404.29582 456.069903 
L 404.663065 457.098163 
L 404.97945 458.126423 
L 405.070811 458.525752 
L 405.220608 459.154683 
L 405.341101 460.182942 
L 405.336587 461.211202 
L 405.223312 462.239462 
L 405.070811 463.00251 
L 405.023493 463.267722 
L 404.777421 464.295982 
L 404.484566 465.324241 
L 404.150527 466.352501 
L 403.775641 467.380761 
L 403.357215 468.409021 
L 403.166793 468.842613 
L 402.926041 469.437281 
L 402.459487 470.46554 
L 401.910475 471.4938 
L 401.262775 472.52206 
L 401.262775 472.52206 
L 400.559426 473.55032 
L 399.706208 474.57858 
L 399.358757 474.956157 
L 398.754294 475.606839 
L 397.639579 476.635099 
L 397.454739 476.795283 
L 396.467434 477.663359 
L 395.550721 478.372096 
L 395.166025 478.691619 
L 393.783011 479.719879 
L 393.646703 479.813882 
L 392.397346 480.748138 
L 391.742685 481.178695 
L 390.891084 481.776398 
L 389.838667 482.434026 
L 389.261256 482.804658 
L 387.934648 483.581945 
L 387.495261 483.832918 
L 386.03063 484.619184 
L 385.530881 484.861178 
L 384.126612 485.519531 
L 383.142756 485.889437 
L 382.222594 486.235246 
L 380.318576 486.728045 
L 378.94642 486.917697 
L 378.414558 486.99581 
L 376.51054 487.069542 
L 374.606522 486.967293 
z
" clip-path="url(#pa1e3faf7b0)" style="fill: #c7dcef"/>
    <path d="M 374.606522 486.967293 
L 376.51054 487.069542 
L 378.414558 486.99581 
L 378.94642 486.917697 
L 380.318576 486.728045 
L 382.222594 486.235246 
L 383.142756 485.889437 
L 384.126612 485.519531 
L 385.530881 484.861178 
L 386.03063 484.619184 
L 387.495261 483.832918 
L 387.934648 483.581945 
L 389.261256 482.804658 
L 389.838667 482.434026 
L 390.891084 481.776398 
L 391.742685 481.178695 
L 392.397346 480.748138 
L 393.646703 479.813882 
L 393.783011 479.719879 
L 395.166025 478.691619 
L 395.550721 478.372096 
L 396.467434 477.663359 
L 397.454739 476.795283 
L 397.639579 476.635099 
L 398.754294 475.606839 
L 399.358757 474.956157 
L 399.706208 474.57858 
L 400.559426 473.55032 
L 401.262775 472.52206 
L 401.262775 472.52206 
L 401.910475 471.4938 
L 402.459487 470.46554 
L 402.926041 469.437281 
L 403.166793 468.842613 
L 403.357215 468.409021 
L 403.775641 467.380761 
L 404.150527 466.352501 
L 404.484566 465.324241 
L 404.777421 464.295982 
L 405.023493 463.267722 
L 405.070811 463.00251 
L 405.223312 462.239462 
L 405.336587 461.211202 
L 405.341101 460.182942 
L 405.220608 459.154683 
L 405.070811 458.525752 
L 404.97945 458.126423 
L 404.663065 457.098163 
L 404.29582 456.069903 
L 403.897076 455.041643 
L 403.452229 454.013384 
L 403.166793 453.445421 
L 402.889389 452.985124 
L 402.055715 451.956864 
L 401.262775 451.228377 
L 400.820176 450.928604 
L 399.358757 449.941257 
L 399.299731 449.900344 
L 398.044112 448.872085 
L 397.454739 448.355304 
L 396.688952 447.843825 
L 395.550721 447.260655 
L 393.646703 447.01482 
L 391.742685 447.159019 
L 389.838667 447.417606 
L 387.934648 447.684583 
L 386.97426 447.843825 
L 386.03063 448.001534 
L 384.126612 448.514075 
L 383.288446 448.872085 
L 382.222594 449.305744 
L 381.194643 449.900344 
L 380.318576 450.383572 
L 379.571378 450.928604 
L 378.414558 451.749665 
L 378.178973 451.956864 
L 377.002981 452.985124 
L 376.51054 453.405504 
L 375.911173 454.013384 
L 374.915445 455.041643 
L 374.606522 455.356861 
L 373.976825 456.069903 
L 373.106463 457.098163 
L 372.702504 457.584064 
L 372.264184 458.126423 
L 371.472916 459.154683 
L 370.798486 460.076827 
L 370.718471 460.182942 
L 369.976647 461.211202 
L 369.290663 462.239462 
L 368.894468 462.874995 
L 368.637913 463.267722 
L 368.029755 464.295982 
L 367.493284 465.324241 
L 367.025887 466.352501 
L 366.99045 466.442862 
L 366.604242 467.380761 
L 366.24905 468.409021 
L 365.949942 469.437281 
L 365.695542 470.46554 
L 365.476653 471.4938 
L 365.286303 472.52206 
L 365.119035 473.55032 
L 365.086432 473.773741 
L 364.958071 474.57858 
L 364.810968 475.606839 
L 364.691202 476.635099 
L 364.616823 477.663359 
L 364.612034 478.691619 
L 364.70825 479.719879 
L 364.947484 480.748138 
L 365.086432 481.09797 
L 365.39527 481.776398 
L 366.136559 482.804658 
L 366.99045 483.644379 
L 367.216385 483.832918 
L 368.608136 484.861178 
L 368.894468 485.051837 
L 370.388289 485.889437 
L 370.798486 486.079992 
L 372.702504 486.674647 
L 374.257839 486.917697 
z
M 374.733005 484.861178 
L 374.606522 484.840628 
L 372.702504 484.180505 
L 372.034576 483.832918 
L 370.798486 483.081134 
L 370.396556 482.804658 
L 369.044695 481.776398 
L 368.894468 481.643258 
L 368.078564 480.748138 
L 367.478069 479.719879 
L 367.166523 478.691619 
L 367.058577 477.663359 
L 367.081287 476.635099 
L 367.182466 475.606839 
L 367.327655 474.57858 
L 367.495534 473.55032 
L 367.675372 472.52206 
L 367.866219 471.4938 
L 368.075654 470.46554 
L 368.316625 469.437281 
L 368.603483 468.409021 
L 368.894468 467.54292 
L 368.947258 467.380761 
L 369.347979 466.352501 
L 369.818843 465.324241 
L 370.358541 464.295982 
L 370.798486 463.546592 
L 370.962411 463.267722 
L 371.620489 462.239462 
L 372.327189 461.211202 
L 372.702504 460.69631 
L 373.098451 460.182942 
L 373.928108 459.154683 
L 374.606522 458.349748 
L 374.82452 458.126423 
L 375.849488 457.098163 
L 376.51054 456.444823 
L 376.996102 456.069903 
L 378.30126 455.041643 
L 378.414558 454.949432 
L 380.000539 454.013384 
L 380.318576 453.812198 
L 382.222594 452.985124 
L 382.222594 452.985124 
L 384.126612 452.364565 
L 385.701639 451.956864 
L 386.03063 451.869666 
L 387.934648 451.40221 
L 389.838667 451.021323 
L 390.956933 450.928604 
L 391.742685 450.857066 
L 392.224141 450.928604 
L 393.646703 451.149736 
L 395.46809 451.956864 
L 395.550721 451.990593 
L 397.454739 452.95935 
L 397.500839 452.985124 
L 399.265692 454.013384 
L 399.358757 454.077604 
L 400.326735 455.041643 
L 401.027327 456.069903 
L 401.262775 456.53518 
L 401.520389 457.098163 
L 401.916223 458.126423 
L 402.237776 459.154683 
L 402.469403 460.182942 
L 402.589155 461.211202 
L 402.58738 462.239462 
L 402.471562 463.267722 
L 402.259049 464.295982 
L 401.967245 465.324241 
L 401.607484 466.352501 
L 401.262775 467.192721 
L 401.189436 467.380761 
L 400.748701 468.409021 
L 400.254284 469.437281 
L 399.681175 470.46554 
L 399.358757 470.968762 
L 399.04342 471.4938 
L 398.326394 472.52206 
L 397.454739 473.536445 
L 397.44364 473.55032 
L 396.527728 474.57858 
L 395.550721 475.481888 
L 395.425132 475.606839 
L 394.302075 476.635099 
L 393.646703 477.166248 
L 393.069193 477.663359 
L 391.75131 478.691619 
L 391.742685 478.69807 
L 390.423012 479.719879 
L 389.838667 480.13675 
L 388.972145 480.748138 
L 387.934648 481.435352 
L 387.389347 481.776398 
L 386.03063 482.585915 
L 385.616038 482.804658 
L 384.126612 483.563632 
L 383.463 483.832918 
L 382.222594 484.328173 
L 380.318576 484.839596 
L 380.157911 484.861178 
L 378.414558 485.104437 
L 376.51054 485.112225 
z
" clip-path="url(#pa1e3faf7b0)" style="fill: #a4cce3"/>
    <path d="M 376.51054 485.112225 
L 378.414558 485.104437 
L 380.157911 484.861178 
L 380.318576 484.839596 
L 382.222594 484.328173 
L 383.463 483.832918 
L 384.126612 483.563632 
L 385.616038 482.804658 
L 386.03063 482.585915 
L 387.389347 481.776398 
L 387.934648 481.435352 
L 388.972145 480.748138 
L 389.838667 480.13675 
L 390.423012 479.719879 
L 391.742685 478.69807 
L 391.75131 478.691619 
L 393.069193 477.663359 
L 393.646703 477.166248 
L 394.302075 476.635099 
L 395.425132 475.606839 
L 395.550721 475.481888 
L 396.527728 474.57858 
L 397.44364 473.55032 
L 397.454739 473.536445 
L 398.326394 472.52206 
L 399.04342 471.4938 
L 399.358757 470.968762 
L 399.681175 470.46554 
L 400.254284 469.437281 
L 400.748701 468.409021 
L 401.189436 467.380761 
L 401.262775 467.192721 
L 401.607484 466.352501 
L 401.967245 465.324241 
L 402.259049 464.295982 
L 402.471562 463.267722 
L 402.58738 462.239462 
L 402.589155 461.211202 
L 402.469403 460.182942 
L 402.237776 459.154683 
L 401.916223 458.126423 
L 401.520389 457.098163 
L 401.262775 456.53518 
L 401.027327 456.069903 
L 400.326735 455.041643 
L 399.358757 454.077604 
L 399.265692 454.013384 
L 397.500839 452.985124 
L 397.454739 452.95935 
L 395.550721 451.990593 
L 395.46809 451.956864 
L 393.646703 451.149736 
L 392.224141 450.928604 
L 391.742685 450.857066 
L 390.956933 450.928604 
L 389.838667 451.021323 
L 387.934648 451.40221 
L 386.03063 451.869666 
L 385.701639 451.956864 
L 384.126612 452.364565 
L 382.222594 452.985124 
L 382.222594 452.985124 
L 380.318576 453.812198 
L 380.000539 454.013384 
L 378.414558 454.949432 
L 378.30126 455.041643 
L 376.996102 456.069903 
L 376.51054 456.444823 
L 375.849488 457.098163 
L 374.82452 458.126423 
L 374.606522 458.349748 
L 373.928108 459.154683 
L 373.098451 460.182942 
L 372.702504 460.69631 
L 372.327189 461.211202 
L 371.620489 462.239462 
L 370.962411 463.267722 
L 370.798486 463.546592 
L 370.358541 464.295982 
L 369.818843 465.324241 
L 369.347979 466.352501 
L 368.947258 467.380761 
L 368.894468 467.54292 
L 368.603483 468.409021 
L 368.316625 469.437281 
L 368.075654 470.46554 
L 367.866219 471.4938 
L 367.675372 472.52206 
L 367.495534 473.55032 
L 367.327655 474.57858 
L 367.182466 475.606839 
L 367.081287 476.635099 
L 367.058577 477.663359 
L 367.166523 478.691619 
L 367.478069 479.719879 
L 368.078564 480.748138 
L 368.894468 481.643258 
L 369.044695 481.776398 
L 370.396556 482.804658 
L 370.798486 483.081134 
L 372.034576 483.832918 
L 372.702504 484.180505 
L 374.606522 484.840628 
L 374.733005 484.861178 
z
M 376.037441 482.804658 
L 374.606522 482.278556 
L 373.713471 481.776398 
L 372.702504 481.124706 
L 372.17492 480.748138 
L 370.916315 479.719879 
L 370.798486 479.598317 
L 370.127505 478.691619 
L 369.705654 477.663359 
L 369.545696 476.635099 
L 369.558056 475.606839 
L 369.675265 474.57858 
L 369.852417 473.55032 
L 370.061702 472.52206 
L 370.288354 471.4938 
L 370.529229 470.46554 
L 370.791786 469.437281 
L 370.798486 469.413967 
L 371.085969 468.409021 
L 371.435464 467.380761 
L 371.851252 466.352501 
L 372.337369 465.324241 
L 372.702504 464.645764 
L 372.900849 464.295982 
L 373.548587 463.267722 
L 374.257855 462.239462 
L 374.606522 461.767514 
L 375.07689 461.211202 
L 376.007573 460.182942 
L 376.51054 459.655454 
L 377.117482 459.154683 
L 378.414558 458.141055 
L 378.440282 458.126423 
L 380.318576 457.098163 
L 380.318576 457.098163 
L 382.222594 456.354763 
L 383.142607 456.069903 
L 384.126612 455.760992 
L 386.03063 455.223614 
L 386.773931 455.041643 
L 387.934648 454.74242 
L 389.838667 454.428027 
L 391.742685 454.423595 
L 393.646703 454.782711 
L 394.404679 455.041643 
L 395.550721 455.424243 
L 396.769691 456.069903 
L 397.454739 456.525203 
L 398.01298 457.098163 
L 398.715822 458.126423 
L 399.1794 459.154683 
L 399.358757 459.742949 
L 399.48657 460.182942 
L 399.681285 461.211202 
L 399.764839 462.239462 
L 399.734373 463.267722 
L 399.594404 464.295982 
L 399.358757 465.31014 
L 399.355633 465.324241 
L 399.03906 466.352501 
L 398.65267 467.380761 
L 398.202209 468.409021 
L 397.679531 469.437281 
L 397.454739 469.819313 
L 397.095543 470.46554 
L 396.435841 471.4938 
L 395.64782 472.52206 
L 395.550721 472.63251 
L 394.787745 473.55032 
L 393.784307 474.57858 
L 393.646703 474.705688 
L 392.70258 475.606839 
L 391.742685 476.426403 
L 391.495389 476.635099 
L 390.212931 477.663359 
L 389.838667 477.948502 
L 388.822836 478.691619 
L 387.934648 479.315783 
L 387.312361 479.719879 
L 386.03063 480.530786 
L 385.637409 480.748138 
L 384.126612 481.568724 
L 383.640707 481.776398 
L 382.222594 482.378021 
L 380.680187 482.804658 
L 380.318576 482.905695 
L 378.414558 483.113076 
L 376.51054 482.944345 
z
" clip-path="url(#pa1e3faf7b0)" style="fill: #77b5d9"/>
    <path d="M 376.51054 482.944345 
L 378.414558 483.113076 
L 380.318576 482.905695 
L 380.680187 482.804658 
L 382.222594 482.378021 
L 383.640707 481.776398 
L 384.126612 481.568724 
L 385.637409 480.748138 
L 386.03063 480.530786 
L 387.312361 479.719879 
L 387.934648 479.315783 
L 388.822836 478.691619 
L 389.838667 477.948502 
L 390.212931 477.663359 
L 391.495389 476.635099 
L 391.742685 476.426403 
L 392.70258 475.606839 
L 393.646703 474.705688 
L 393.784307 474.57858 
L 394.787745 473.55032 
L 395.550721 472.63251 
L 395.64782 472.52206 
L 396.435841 471.4938 
L 397.095543 470.46554 
L 397.454739 469.819313 
L 397.679531 469.437281 
L 398.202209 468.409021 
L 398.65267 467.380761 
L 399.03906 466.352501 
L 399.355633 465.324241 
L 399.358757 465.31014 
L 399.594404 464.295982 
L 399.734373 463.267722 
L 399.764839 462.239462 
L 399.681285 461.211202 
L 399.48657 460.182942 
L 399.358757 459.742949 
L 399.1794 459.154683 
L 398.715822 458.126423 
L 398.01298 457.098163 
L 397.454739 456.525203 
L 396.769691 456.069903 
L 395.550721 455.424243 
L 394.404679 455.041643 
L 393.646703 454.782711 
L 391.742685 454.423595 
L 389.838667 454.428027 
L 387.934648 454.74242 
L 386.773931 455.041643 
L 386.03063 455.223614 
L 384.126612 455.760992 
L 383.142607 456.069903 
L 382.222594 456.354763 
L 380.318576 457.098163 
L 380.318576 457.098163 
L 378.440282 458.126423 
L 378.414558 458.141055 
L 377.117482 459.154683 
L 376.51054 459.655454 
L 376.007573 460.182942 
L 375.07689 461.211202 
L 374.606522 461.767514 
L 374.257855 462.239462 
L 373.548587 463.267722 
L 372.900849 464.295982 
L 372.702504 464.645764 
L 372.337369 465.324241 
L 371.851252 466.352501 
L 371.435464 467.380761 
L 371.085969 468.409021 
L 370.798486 469.413967 
L 370.791786 469.437281 
L 370.529229 470.46554 
L 370.288354 471.4938 
L 370.061702 472.52206 
L 369.852417 473.55032 
L 369.675265 474.57858 
L 369.558056 475.606839 
L 369.545696 476.635099 
L 369.705654 477.663359 
L 370.127505 478.691619 
L 370.798486 479.598317 
L 370.916315 479.719879 
L 372.17492 480.748138 
L 372.702504 481.124706 
L 373.713471 481.776398 
L 374.606522 482.278556 
L 376.037441 482.804658 
z
M 377.130151 480.748138 
L 376.51054 480.538369 
L 375.134306 479.719879 
L 374.606522 479.346863 
L 373.778632 478.691619 
L 372.737109 477.663359 
L 372.702504 477.614218 
L 372.199858 476.635099 
L 371.97653 475.606839 
L 371.964262 474.57858 
L 372.083456 473.55032 
L 372.280897 472.52206 
L 372.525151 471.4938 
L 372.702504 470.827745 
L 372.808199 470.46554 
L 373.127116 469.437281 
L 373.476519 468.409021 
L 373.873359 467.380761 
L 374.331559 466.352501 
L 374.606522 465.814968 
L 374.890699 465.324241 
L 375.561769 464.295982 
L 376.312456 463.267722 
L 376.51054 463.020397 
L 377.271688 462.239462 
L 378.381586 461.211202 
L 378.414558 461.182855 
L 379.939448 460.182942 
L 380.318576 459.954756 
L 382.083301 459.154683 
L 382.222594 459.09528 
L 384.126612 458.441867 
L 385.244005 458.126423 
L 386.03063 457.904724 
L 387.934648 457.488155 
L 389.838667 457.255165 
L 391.742685 457.280895 
L 393.646703 457.646905 
L 394.683502 458.126423 
L 395.550721 458.666411 
L 395.993537 459.154683 
L 396.610472 460.182942 
L 396.965363 461.211202 
L 397.139987 462.239462 
L 397.179302 463.267722 
L 397.106663 464.295982 
L 396.935263 465.324241 
L 396.674978 466.352501 
L 396.334232 467.380761 
L 395.917352 468.409021 
L 395.550721 469.166212 
L 395.423755 469.437281 
L 394.856726 470.46554 
L 394.192036 471.4938 
L 393.646703 472.209956 
L 393.40928 472.52206 
L 392.514919 473.55032 
L 391.742685 474.327294 
L 391.484011 474.57858 
L 390.328393 475.606839 
L 389.838667 476.010048 
L 389.030416 476.635099 
L 387.934648 477.442951 
L 387.604202 477.663359 
L 386.03063 478.691619 
L 386.03063 478.691619 
L 384.182374 479.719879 
L 384.126612 479.750673 
L 382.222594 480.560961 
L 381.464414 480.748138 
L 380.318576 481.040636 
L 378.414558 481.082769 
z
" clip-path="url(#pa1e3faf7b0)" style="fill: #4e9acb"/>
    <path d="M 378.414558 481.082769 
L 380.318576 481.040636 
L 381.464414 480.748138 
L 382.222594 480.560961 
L 384.126612 479.750673 
L 384.182374 479.719879 
L 386.03063 478.691619 
L 386.03063 478.691619 
L 387.604202 477.663359 
L 387.934648 477.442951 
L 389.030416 476.635099 
L 389.838667 476.010048 
L 390.328393 475.606839 
L 391.484011 474.57858 
L 391.742685 474.327294 
L 392.514919 473.55032 
L 393.40928 472.52206 
L 393.646703 472.209956 
L 394.192036 471.4938 
L 394.856726 470.46554 
L 395.423755 469.437281 
L 395.550721 469.166212 
L 395.917352 468.409021 
L 396.334232 467.380761 
L 396.674978 466.352501 
L 396.935263 465.324241 
L 397.106663 464.295982 
L 397.179302 463.267722 
L 397.139987 462.239462 
L 396.965363 461.211202 
L 396.610472 460.182942 
L 395.993537 459.154683 
L 395.550721 458.666411 
L 394.683502 458.126423 
L 393.646703 457.646905 
L 391.742685 457.280895 
L 389.838667 457.255165 
L 387.934648 457.488155 
L 386.03063 457.904724 
L 385.244005 458.126423 
L 384.126612 458.441867 
L 382.222594 459.09528 
L 382.083301 459.154683 
L 380.318576 459.954756 
L 379.939448 460.182942 
L 378.414558 461.182855 
L 378.381586 461.211202 
L 377.271688 462.239462 
L 376.51054 463.020397 
L 376.312456 463.267722 
L 375.561769 464.295982 
L 374.890699 465.324241 
L 374.606522 465.814968 
L 374.331559 466.352501 
L 373.873359 467.380761 
L 373.476519 468.409021 
L 373.127116 469.437281 
L 372.808199 470.46554 
L 372.702504 470.827745 
L 372.525151 471.4938 
L 372.280897 472.52206 
L 372.083456 473.55032 
L 371.964262 474.57858 
L 371.97653 475.606839 
L 372.199858 476.635099 
L 372.702504 477.614218 
L 372.737109 477.663359 
L 373.778632 478.691619 
L 374.606522 479.346863 
L 375.134306 479.719879 
L 376.51054 480.538369 
L 377.130151 480.748138 
z
M 379.163676 478.691619 
L 378.414558 478.496624 
L 377.126765 477.663359 
L 376.51054 477.125316 
L 376.028916 476.635099 
L 375.303791 475.606839 
L 374.909192 474.57858 
L 374.810727 473.55032 
L 374.923311 472.52206 
L 375.162815 471.4938 
L 375.474906 470.46554 
L 375.835921 469.437281 
L 376.24284 468.409021 
L 376.51054 467.811787 
L 376.747632 467.380761 
L 377.385459 466.352501 
L 378.104749 465.324241 
L 378.414558 464.933008 
L 379.049894 464.295982 
L 380.213037 463.267722 
L 380.318576 463.184487 
L 381.86721 462.239462 
L 382.222594 462.045671 
L 384.126612 461.234858 
L 384.196216 461.211202 
L 386.03063 460.638126 
L 387.934648 460.200377 
L 388.083089 460.182942 
L 389.838667 459.979372 
L 391.742685 460.113125 
L 391.929904 460.182942 
L 393.646703 461.122613 
L 393.720494 461.211202 
L 394.267441 462.239462 
L 394.522105 463.267722 
L 394.581233 464.295982 
L 394.49943 465.324241 
L 394.306921 466.352501 
L 394.020162 467.380761 
L 393.646703 468.409021 
L 393.646703 468.409021 
L 393.169944 469.437281 
L 392.607551 470.46554 
L 391.945154 471.4938 
L 391.742685 471.760173 
L 391.125547 472.52206 
L 390.18552 473.55032 
L 389.838667 473.886983 
L 389.054373 474.57858 
L 387.934648 475.50194 
L 387.787103 475.606839 
L 386.291442 476.635099 
L 386.03063 476.80949 
L 384.48668 477.663359 
L 384.126612 477.863758 
L 382.222594 478.610774 
L 381.669553 478.691619 
L 380.318576 478.89952 
z
" clip-path="url(#pa1e3faf7b0)" style="fill: #2d7dbb"/>
    <path d="M 380.318576 478.89952 
L 381.669553 478.691619 
L 382.222594 478.610774 
L 384.126612 477.863758 
L 384.48668 477.663359 
L 386.03063 476.80949 
L 386.291442 476.635099 
L 387.787103 475.606839 
L 387.934648 475.50194 
L 389.054373 474.57858 
L 389.838667 473.886983 
L 390.18552 473.55032 
L 391.125547 472.52206 
L 391.742685 471.760173 
L 391.945154 471.4938 
L 392.607551 470.46554 
L 393.169944 469.437281 
L 393.646703 468.409021 
L 393.646703 468.409021 
L 394.020162 467.380761 
L 394.306921 466.352501 
L 394.49943 465.324241 
L 394.581233 464.295982 
L 394.522105 463.267722 
L 394.267441 462.239462 
L 393.720494 461.211202 
L 393.646703 461.122613 
L 391.929904 460.182942 
L 391.742685 460.113125 
L 389.838667 459.979372 
L 388.083089 460.182942 
L 387.934648 460.200377 
L 386.03063 460.638126 
L 384.196216 461.211202 
L 384.126612 461.234858 
L 382.222594 462.045671 
L 381.86721 462.239462 
L 380.318576 463.184487 
L 380.213037 463.267722 
L 379.049894 464.295982 
L 378.414558 464.933008 
L 378.104749 465.324241 
L 377.385459 466.352501 
L 376.747632 467.380761 
L 376.51054 467.811787 
L 376.24284 468.409021 
L 375.835921 469.437281 
L 375.474906 470.46554 
L 375.162815 471.4938 
L 374.923311 472.52206 
L 374.810727 473.55032 
L 374.909192 474.57858 
L 375.303791 475.606839 
L 376.028916 476.635099 
L 376.51054 477.125316 
L 377.126765 477.663359 
L 378.414558 478.496624 
L 379.163676 478.691619 
z
M 379.857758 475.606839 
L 379.049633 474.57858 
L 378.638546 473.55032 
L 378.510677 472.52206 
L 378.606381 471.4938 
L 378.880206 470.46554 
L 379.296493 469.437281 
L 379.835308 468.409021 
L 380.318576 467.653335 
L 380.514272 467.380761 
L 381.420375 466.352501 
L 382.222594 465.607934 
L 382.57346 465.324241 
L 384.126612 464.295982 
L 384.126612 464.295982 
L 386.03063 463.41846 
L 386.533909 463.267722 
L 387.934648 462.880094 
L 389.838667 462.807852 
L 390.841985 463.267722 
L 391.742685 464.145443 
L 391.806725 464.295982 
L 391.978085 465.324241 
L 391.937048 466.352501 
L 391.745801 467.380761 
L 391.742685 467.390684 
L 391.367116 468.409021 
L 390.896429 469.437281 
L 390.33508 470.46554 
L 389.838667 471.230408 
L 389.628976 471.4938 
L 388.706656 472.52206 
L 387.934648 473.316035 
L 387.640301 473.55032 
L 386.301266 474.57858 
L 386.03063 474.776757 
L 384.487923 475.606839 
L 384.126612 475.805278 
L 382.222594 476.32181 
L 380.318576 475.958932 
z
" clip-path="url(#pa1e3faf7b0)" style="fill: #125ea6"/>
    <path d="M 380.318576 475.958932 
L 382.222594 476.32181 
L 384.126612 475.805278 
L 384.487923 475.606839 
L 386.03063 474.776757 
L 386.301266 474.57858 
L 387.640301 473.55032 
L 387.934648 473.316035 
L 388.706656 472.52206 
L 389.628976 471.4938 
L 389.838667 471.230408 
L 390.33508 470.46554 
L 390.896429 469.437281 
L 391.367116 468.409021 
L 391.742685 467.390684 
L 391.745801 467.380761 
L 391.937048 466.352501 
L 391.978085 465.324241 
L 391.806725 464.295982 
L 391.742685 464.145443 
L 390.841985 463.267722 
L 389.838667 462.807852 
L 387.934648 462.880094 
L 386.533909 463.267722 
L 386.03063 463.41846 
L 384.126612 464.295982 
L 384.126612 464.295982 
L 382.57346 465.324241 
L 382.222594 465.607934 
L 381.420375 466.352501 
L 380.514272 467.380761 
L 380.318576 467.653335 
L 379.835308 468.409021 
L 379.296493 469.437281 
L 378.880206 470.46554 
L 378.606381 471.4938 
L 378.510677 472.52206 
L 378.638546 473.55032 
L 379.049633 474.57858 
L 379.857758 475.606839 
z
" clip-path="url(#pa1e3faf7b0)" style="fill: #084082"/>
   </g>
   <g id="matplotlib.axis_1">
    <g id="xtick_1">
     <g id="line2d_1">
      <defs>
       <path id="m6c3cda9273" d="M 0 0 
L 0 3.5 
" style="stroke: #000000; stroke-width: 0.8"/>
      </defs>
      <g>
       <use xlink:href="#m6c3cda9273" x="161.410834" y="499.48" style="stroke: #000000; stroke-width: 0.8"/>
      </g>
     </g>
     <g id="text_1">
      <!-- 5 -->
      <g transform="translate(154.412084 523.196563) scale(0.22 -0.22)">
       <defs>
        <path id="DejaVuSans-35" d="M 691 4666 
L 3169 4666 
L 3169 4134 
L 1269 4134 
L 1269 2991 
Q 1406 3038 1543 3061 
Q 1681 3084 1819 3084 
Q 2600 3084 3056 2656 
Q 3513 2228 3513 1497 
Q 3513 744 3044 326 
Q 2575 -91 1722 -91 
Q 1428 -91 1123 -41 
Q 819 9 494 109 
L 494 744 
Q 775 591 1075 516 
Q 1375 441 1709 441 
Q 2250 441 2565 725 
Q 2881 1009 2881 1497 
Q 2881 1984 2565 2268 
Q 2250 2553 1709 2553 
Q 1456 2553 1204 2497 
Q 953 2441 691 2322 
L 691 4666 
z
" transform="scale(0.015625)"/>
       </defs>
       <use xlink:href="#DejaVuSans-35"/>
      </g>
     </g>
    </g>
    <g id="xtick_2">
     <g id="line2d_2">
      <g>
       <use xlink:href="#m6c3cda9273" x="281.933406" y="499.48" style="stroke: #000000; stroke-width: 0.8"/>
      </g>
     </g>
     <g id="text_2">
      <!-- 10 -->
      <g transform="translate(267.935906 523.196563) scale(0.22 -0.22)">
       <defs>
        <path id="DejaVuSans-31" d="M 794 531 
L 1825 531 
L 1825 4091 
L 703 3866 
L 703 4441 
L 1819 4666 
L 2450 4666 
L 2450 531 
L 3481 531 
L 3481 0 
L 794 0 
L 794 531 
z
" transform="scale(0.015625)"/>
        <path id="DejaVuSans-30" d="M 2034 4250 
Q 1547 4250 1301 3770 
Q 1056 3291 1056 2328 
Q 1056 1369 1301 889 
Q 1547 409 2034 409 
Q 2525 409 2770 889 
Q 3016 1369 3016 2328 
Q 3016 3291 2770 3770 
Q 2525 4250 2034 4250 
z
M 2034 4750 
Q 2819 4750 3233 4129 
Q 3647 3509 3647 2328 
Q 3647 1150 3233 529 
Q 2819 -91 2034 -91 
Q 1250 -91 836 529 
Q 422 1150 422 2328 
Q 422 3509 836 4129 
Q 1250 4750 2034 4750 
z
" transform="scale(0.015625)"/>
       </defs>
       <use xlink:href="#DejaVuSans-31"/>
       <use xlink:href="#DejaVuSans-30" x="63.623047"/>
      </g>
     </g>
    </g>
    <g id="xtick_3">
     <g id="line2d_3">
      <g>
       <use xlink:href="#m6c3cda9273" x="402.455978" y="499.48" style="stroke: #000000; stroke-width: 0.8"/>
      </g>
     </g>
     <g id="text_3">
      <!-- 15 -->
      <g transform="translate(388.458478 523.196563) scale(0.22 -0.22)">
       <use xlink:href="#DejaVuSans-31"/>
       <use xlink:href="#DejaVuSans-35" x="63.623047"/>
      </g>
     </g>
    </g>
    <g id="xtick_4">
     <g id="line2d_4">
      <g>
       <use xlink:href="#m6c3cda9273" x="522.97855" y="499.48" style="stroke: #000000; stroke-width: 0.8"/>
      </g>
     </g>
     <g id="text_4">
      <!-- 20 -->
      <g transform="translate(508.98105 523.196563) scale(0.22 -0.22)">
       <defs>
        <path id="DejaVuSans-32" d="M 1228 531 
L 3431 531 
L 3431 0 
L 469 0 
L 469 531 
Q 828 903 1448 1529 
Q 2069 2156 2228 2338 
Q 2531 2678 2651 2914 
Q 2772 3150 2772 3378 
Q 2772 3750 2511 3984 
Q 2250 4219 1831 4219 
Q 1534 4219 1204 4116 
Q 875 4013 500 3803 
L 500 4441 
Q 881 4594 1212 4672 
Q 1544 4750 1819 4750 
Q 2544 4750 2975 4387 
Q 3406 4025 3406 3419 
Q 3406 3131 3298 2873 
Q 3191 2616 2906 2266 
Q 2828 2175 2409 1742 
Q 1991 1309 1228 531 
z
" transform="scale(0.015625)"/>
       </defs>
       <use xlink:href="#DejaVuSans-32"/>
       <use xlink:href="#DejaVuSans-30" x="63.623047"/>
      </g>
     </g>
    </g>
    <g id="xtick_5">
     <g id="line2d_5">
      <g>
       <use xlink:href="#m6c3cda9273" x="643.501122" y="499.48" style="stroke: #000000; stroke-width: 0.8"/>
      </g>
     </g>
     <g id="text_5">
      <!-- 25 -->
      <g transform="translate(629.503622 523.196563) scale(0.22 -0.22)">
       <use xlink:href="#DejaVuSans-32"/>
       <use xlink:href="#DejaVuSans-35" x="63.623047"/>
      </g>
     </g>
    </g>
    <g id="text_6">
     <!-- Force Uncertainties -->
     <g transform="translate(283.426094 548.488438) scale(0.22 -0.22)">
      <defs>
       <path id="DejaVuSans-46" d="M 628 4666 
L 3309 4666 
L 3309 4134 
L 1259 4134 
L 1259 2759 
L 3109 2759 
L 3109 2228 
L 1259 2228 
L 1259 0 
L 628 0 
L 628 4666 
z
" transform="scale(0.015625)"/>
       <path id="DejaVuSans-6f" d="M 1959 3097 
Q 1497 3097 1228 2736 
Q 959 2375 959 1747 
Q 959 1119 1226 758 
Q 1494 397 1959 397 
Q 2419 397 2687 759 
Q 2956 1122 2956 1747 
Q 2956 2369 2687 2733 
Q 2419 3097 1959 3097 
z
M 1959 3584 
Q 2709 3584 3137 3096 
Q 3566 2609 3566 1747 
Q 3566 888 3137 398 
Q 2709 -91 1959 -91 
Q 1206 -91 779 398 
Q 353 888 353 1747 
Q 353 2609 779 3096 
Q 1206 3584 1959 3584 
z
" transform="scale(0.015625)"/>
       <path id="DejaVuSans-72" d="M 2631 2963 
Q 2534 3019 2420 3045 
Q 2306 3072 2169 3072 
Q 1681 3072 1420 2755 
Q 1159 2438 1159 1844 
L 1159 0 
L 581 0 
L 581 3500 
L 1159 3500 
L 1159 2956 
Q 1341 3275 1631 3429 
Q 1922 3584 2338 3584 
Q 2397 3584 2469 3576 
Q 2541 3569 2628 3553 
L 2631 2963 
z
" transform="scale(0.015625)"/>
       <path id="DejaVuSans-63" d="M 3122 3366 
L 3122 2828 
Q 2878 2963 2633 3030 
Q 2388 3097 2138 3097 
Q 1578 3097 1268 2742 
Q 959 2388 959 1747 
Q 959 1106 1268 751 
Q 1578 397 2138 397 
Q 2388 397 2633 464 
Q 2878 531 3122 666 
L 3122 134 
Q 2881 22 2623 -34 
Q 2366 -91 2075 -91 
Q 1284 -91 818 406 
Q 353 903 353 1747 
Q 353 2603 823 3093 
Q 1294 3584 2113 3584 
Q 2378 3584 2631 3529 
Q 2884 3475 3122 3366 
z
" transform="scale(0.015625)"/>
       <path id="DejaVuSans-65" d="M 3597 1894 
L 3597 1613 
L 953 1613 
Q 991 1019 1311 708 
Q 1631 397 2203 397 
Q 2534 397 2845 478 
Q 3156 559 3463 722 
L 3463 178 
Q 3153 47 2828 -22 
Q 2503 -91 2169 -91 
Q 1331 -91 842 396 
Q 353 884 353 1716 
Q 353 2575 817 3079 
Q 1281 3584 2069 3584 
Q 2775 3584 3186 3129 
Q 3597 2675 3597 1894 
z
M 3022 2063 
Q 3016 2534 2758 2815 
Q 2500 3097 2075 3097 
Q 1594 3097 1305 2825 
Q 1016 2553 972 2059 
L 3022 2063 
z
" transform="scale(0.015625)"/>
       <path id="DejaVuSans-20" transform="scale(0.015625)"/>
       <path id="DejaVuSans-55" d="M 556 4666 
L 1191 4666 
L 1191 1831 
Q 1191 1081 1462 751 
Q 1734 422 2344 422 
Q 2950 422 3222 751 
Q 3494 1081 3494 1831 
L 3494 4666 
L 4128 4666 
L 4128 1753 
Q 4128 841 3676 375 
Q 3225 -91 2344 -91 
Q 1459 -91 1007 375 
Q 556 841 556 1753 
L 556 4666 
z
" transform="scale(0.015625)"/>
       <path id="DejaVuSans-6e" d="M 3513 2113 
L 3513 0 
L 2938 0 
L 2938 2094 
Q 2938 2591 2744 2837 
Q 2550 3084 2163 3084 
Q 1697 3084 1428 2787 
Q 1159 2491 1159 1978 
L 1159 0 
L 581 0 
L 581 3500 
L 1159 3500 
L 1159 2956 
Q 1366 3272 1645 3428 
Q 1925 3584 2291 3584 
Q 2894 3584 3203 3211 
Q 3513 2838 3513 2113 
z
" transform="scale(0.015625)"/>
       <path id="DejaVuSans-74" d="M 1172 4494 
L 1172 3500 
L 2356 3500 
L 2356 3053 
L 1172 3053 
L 1172 1153 
Q 1172 725 1289 603 
Q 1406 481 1766 481 
L 2356 481 
L 2356 0 
L 1766 0 
Q 1100 0 847 248 
Q 594 497 594 1153 
L 594 3053 
L 172 3053 
L 172 3500 
L 594 3500 
L 594 4494 
L 1172 4494 
z
" transform="scale(0.015625)"/>
       <path id="DejaVuSans-61" d="M 2194 1759 
Q 1497 1759 1228 1600 
Q 959 1441 959 1056 
Q 959 750 1161 570 
Q 1363 391 1709 391 
Q 2188 391 2477 730 
Q 2766 1069 2766 1631 
L 2766 1759 
L 2194 1759 
z
M 3341 1997 
L 3341 0 
L 2766 0 
L 2766 531 
Q 2569 213 2275 61 
Q 1981 -91 1556 -91 
Q 1019 -91 701 211 
Q 384 513 384 1019 
Q 384 1609 779 1909 
Q 1175 2209 1959 2209 
L 2766 2209 
L 2766 2266 
Q 2766 2663 2505 2880 
Q 2244 3097 1772 3097 
Q 1472 3097 1187 3025 
Q 903 2953 641 2809 
L 641 3341 
Q 956 3463 1253 3523 
Q 1550 3584 1831 3584 
Q 2591 3584 2966 3190 
Q 3341 2797 3341 1997 
z
" transform="scale(0.015625)"/>
       <path id="DejaVuSans-69" d="M 603 3500 
L 1178 3500 
L 1178 0 
L 603 0 
L 603 3500 
z
M 603 4863 
L 1178 4863 
L 1178 4134 
L 603 4134 
L 603 4863 
z
" transform="scale(0.015625)"/>
       <path id="DejaVuSans-73" d="M 2834 3397 
L 2834 2853 
Q 2591 2978 2328 3040 
Q 2066 3103 1784 3103 
Q 1356 3103 1142 2972 
Q 928 2841 928 2578 
Q 928 2378 1081 2264 
Q 1234 2150 1697 2047 
L 1894 2003 
Q 2506 1872 2764 1633 
Q 3022 1394 3022 966 
Q 3022 478 2636 193 
Q 2250 -91 1575 -91 
Q 1294 -91 989 -36 
Q 684 19 347 128 
L 347 722 
Q 666 556 975 473 
Q 1284 391 1588 391 
Q 1994 391 2212 530 
Q 2431 669 2431 922 
Q 2431 1156 2273 1281 
Q 2116 1406 1581 1522 
L 1381 1569 
Q 847 1681 609 1914 
Q 372 2147 372 2553 
Q 372 3047 722 3315 
Q 1072 3584 1716 3584 
Q 2034 3584 2315 3537 
Q 2597 3491 2834 3397 
z
" transform="scale(0.015625)"/>
      </defs>
      <use xlink:href="#DejaVuSans-46"/>
      <use xlink:href="#DejaVuSans-6f" x="53.894531"/>
      <use xlink:href="#DejaVuSans-72" x="115.076172"/>
      <use xlink:href="#DejaVuSans-63" x="153.939453"/>
      <use xlink:href="#DejaVuSans-65" x="208.919922"/>
      <use xlink:href="#DejaVuSans-20" x="270.443359"/>
      <use xlink:href="#DejaVuSans-55" x="302.230469"/>
      <use xlink:href="#DejaVuSans-6e" x="375.423828"/>
      <use xlink:href="#DejaVuSans-63" x="438.802734"/>
      <use xlink:href="#DejaVuSans-65" x="493.783203"/>
      <use xlink:href="#DejaVuSans-72" x="555.306641"/>
      <use xlink:href="#DejaVuSans-74" x="596.419922"/>
      <use xlink:href="#DejaVuSans-61" x="635.628906"/>
      <use xlink:href="#DejaVuSans-69" x="696.908203"/>
      <use xlink:href="#DejaVuSans-6e" x="724.691406"/>
      <use xlink:href="#DejaVuSans-74" x="788.070312"/>
      <use xlink:href="#DejaVuSans-69" x="827.279297"/>
      <use xlink:href="#DejaVuSans-65" x="855.0625"/>
      <use xlink:href="#DejaVuSans-73" x="916.585938"/>
     </g>
    </g>
   </g>
   <g id="matplotlib.axis_2">
    <g id="ytick_1">
     <g id="line2d_6">
      <defs>
       <path id="m6de59efa32" d="M 0 0 
L -3.5 0 
" style="stroke: #000000; stroke-width: 0.8"/>
      </defs>
      <g>
       <use xlink:href="#m6de59efa32" x="83.72" y="439.140609" style="stroke: #000000; stroke-width: 0.8"/>
      </g>
     </g>
     <g id="text_7">
      <!-- 5 -->
      <g transform="translate(62.7225 447.498891) scale(0.22 -0.22)">
       <use xlink:href="#DejaVuSans-35"/>
      </g>
     </g>
    </g>
    <g id="ytick_2">
     <g id="line2d_7">
      <g>
       <use xlink:href="#m6de59efa32" x="83.72" y="345.535506" style="stroke: #000000; stroke-width: 0.8"/>
      </g>
     </g>
     <g id="text_8">
      <!-- 10 -->
      <g transform="translate(48.725 353.893787) scale(0.22 -0.22)">
       <use xlink:href="#DejaVuSans-31"/>
       <use xlink:href="#DejaVuSans-30" x="63.623047"/>
      </g>
     </g>
    </g>
    <g id="ytick_3">
     <g id="line2d_8">
      <g>
       <use xlink:href="#m6de59efa32" x="83.72" y="251.930403" style="stroke: #000000; stroke-width: 0.8"/>
      </g>
     </g>
     <g id="text_9">
      <!-- 15 -->
      <g transform="translate(48.725 260.288684) scale(0.22 -0.22)">
       <use xlink:href="#DejaVuSans-31"/>
       <use xlink:href="#DejaVuSans-35" x="63.623047"/>
      </g>
     </g>
    </g>
    <g id="ytick_4">
     <g id="line2d_9">
      <g>
       <use xlink:href="#m6de59efa32" x="83.72" y="158.325299" style="stroke: #000000; stroke-width: 0.8"/>
      </g>
     </g>
     <g id="text_10">
      <!-- 20 -->
      <g transform="translate(48.725 166.68358) scale(0.22 -0.22)">
       <use xlink:href="#DejaVuSans-32"/>
       <use xlink:href="#DejaVuSans-30" x="63.623047"/>
      </g>
     </g>
    </g>
    <g id="ytick_5">
     <g id="line2d_10">
      <g>
       <use xlink:href="#m6de59efa32" x="83.72" y="64.720196" style="stroke: #000000; stroke-width: 0.8"/>
      </g>
     </g>
     <g id="text_11">
      <!-- 25 -->
      <g transform="translate(48.725 73.078477) scale(0.22 -0.22)">
       <use xlink:href="#DejaVuSans-32"/>
       <use xlink:href="#DejaVuSans-35" x="63.623047"/>
      </g>
     </g>
    </g>
    <g id="text_12">
     <!-- Force Errors [kJ/(mol*A)] -->
     <g transform="translate(40.149688 394.9125) rotate(-90) scale(0.22 -0.22)">
      <defs>
       <path id="DejaVuSans-45" d="M 628 4666 
L 3578 4666 
L 3578 4134 
L 1259 4134 
L 1259 2753 
L 3481 2753 
L 3481 2222 
L 1259 2222 
L 1259 531 
L 3634 531 
L 3634 0 
L 628 0 
L 628 4666 
z
" transform="scale(0.015625)"/>
       <path id="DejaVuSans-5b" d="M 550 4863 
L 1875 4863 
L 1875 4416 
L 1125 4416 
L 1125 -397 
L 1875 -397 
L 1875 -844 
L 550 -844 
L 550 4863 
z
" transform="scale(0.015625)"/>
       <path id="DejaVuSans-6b" d="M 581 4863 
L 1159 4863 
L 1159 1991 
L 2875 3500 
L 3609 3500 
L 1753 1863 
L 3688 0 
L 2938 0 
L 1159 1709 
L 1159 0 
L 581 0 
L 581 4863 
z
" transform="scale(0.015625)"/>
       <path id="DejaVuSans-4a" d="M 628 4666 
L 1259 4666 
L 1259 325 
Q 1259 -519 939 -900 
Q 619 -1281 -91 -1281 
L -331 -1281 
L -331 -750 
L -134 -750 
Q 284 -750 456 -515 
Q 628 -281 628 325 
L 628 4666 
z
" transform="scale(0.015625)"/>
       <path id="DejaVuSans-2f" d="M 1625 4666 
L 2156 4666 
L 531 -594 
L 0 -594 
L 1625 4666 
z
" transform="scale(0.015625)"/>
       <path id="DejaVuSans-28" d="M 1984 4856 
Q 1566 4138 1362 3434 
Q 1159 2731 1159 2009 
Q 1159 1288 1364 580 
Q 1569 -128 1984 -844 
L 1484 -844 
Q 1016 -109 783 600 
Q 550 1309 550 2009 
Q 550 2706 781 3412 
Q 1013 4119 1484 4856 
L 1984 4856 
z
" transform="scale(0.015625)"/>
       <path id="DejaVuSans-6d" d="M 3328 2828 
Q 3544 3216 3844 3400 
Q 4144 3584 4550 3584 
Q 5097 3584 5394 3201 
Q 5691 2819 5691 2113 
L 5691 0 
L 5113 0 
L 5113 2094 
Q 5113 2597 4934 2840 
Q 4756 3084 4391 3084 
Q 3944 3084 3684 2787 
Q 3425 2491 3425 1978 
L 3425 0 
L 2847 0 
L 2847 2094 
Q 2847 2600 2669 2842 
Q 2491 3084 2119 3084 
Q 1678 3084 1418 2786 
Q 1159 2488 1159 1978 
L 1159 0 
L 581 0 
L 581 3500 
L 1159 3500 
L 1159 2956 
Q 1356 3278 1631 3431 
Q 1906 3584 2284 3584 
Q 2666 3584 2933 3390 
Q 3200 3197 3328 2828 
z
" transform="scale(0.015625)"/>
       <path id="DejaVuSans-6c" d="M 603 4863 
L 1178 4863 
L 1178 0 
L 603 0 
L 603 4863 
z
" transform="scale(0.015625)"/>
       <path id="DejaVuSans-2a" d="M 3009 3897 
L 1888 3291 
L 3009 2681 
L 2828 2375 
L 1778 3009 
L 1778 1831 
L 1422 1831 
L 1422 3009 
L 372 2375 
L 191 2681 
L 1313 3291 
L 191 3897 
L 372 4206 
L 1422 3572 
L 1422 4750 
L 1778 4750 
L 1778 3572 
L 2828 4206 
L 3009 3897 
z
" transform="scale(0.015625)"/>
       <path id="DejaVuSans-41" d="M 2188 4044 
L 1331 1722 
L 3047 1722 
L 2188 4044 
z
M 1831 4666 
L 2547 4666 
L 4325 0 
L 3669 0 
L 3244 1197 
L 1141 1197 
L 716 0 
L 50 0 
L 1831 4666 
z
" transform="scale(0.015625)"/>
       <path id="DejaVuSans-29" d="M 513 4856 
L 1013 4856 
Q 1481 4119 1714 3412 
Q 1947 2706 1947 2009 
Q 1947 1309 1714 600 
Q 1481 -109 1013 -844 
L 513 -844 
Q 928 -128 1133 580 
Q 1338 1288 1338 2009 
Q 1338 2731 1133 3434 
Q 928 4138 513 4856 
z
" transform="scale(0.015625)"/>
       <path id="DejaVuSans-5d" d="M 1947 4863 
L 1947 -844 
L 622 -844 
L 622 -397 
L 1369 -397 
L 1369 4416 
L 622 4416 
L 622 4863 
L 1947 4863 
z
" transform="scale(0.015625)"/>
      </defs>
      <use xlink:href="#DejaVuSans-46"/>
      <use xlink:href="#DejaVuSans-6f" x="53.894531"/>
      <use xlink:href="#DejaVuSans-72" x="115.076172"/>
      <use xlink:href="#DejaVuSans-63" x="153.939453"/>
      <use xlink:href="#DejaVuSans-65" x="208.919922"/>
      <use xlink:href="#DejaVuSans-20" x="270.443359"/>
      <use xlink:href="#DejaVuSans-45" x="302.230469"/>
      <use xlink:href="#DejaVuSans-72" x="365.414062"/>
      <use xlink:href="#DejaVuSans-72" x="404.777344"/>
      <use xlink:href="#DejaVuSans-6f" x="443.640625"/>
      <use xlink:href="#DejaVuSans-72" x="504.822266"/>
      <use xlink:href="#DejaVuSans-73" x="545.935547"/>
      <use xlink:href="#DejaVuSans-20" x="598.035156"/>
      <use xlink:href="#DejaVuSans-5b" x="629.822266"/>
      <use xlink:href="#DejaVuSans-6b" x="668.835938"/>
      <use xlink:href="#DejaVuSans-4a" x="726.746094"/>
      <use xlink:href="#DejaVuSans-2f" x="756.238281"/>
      <use xlink:href="#DejaVuSans-28" x="789.929688"/>
      <use xlink:href="#DejaVuSans-6d" x="828.943359"/>
      <use xlink:href="#DejaVuSans-6f" x="926.355469"/>
      <use xlink:href="#DejaVuSans-6c" x="987.537109"/>
      <use xlink:href="#DejaVuSans-2a" x="1015.320312"/>
      <use xlink:href="#DejaVuSans-41" x="1065.320312"/>
      <use xlink:href="#DejaVuSans-29" x="1133.728516"/>
      <use xlink:href="#DejaVuSans-5d" x="1172.742188"/>
     </g>
    </g>
   </g>
   <g id="line2d_11">
    <path d="M 83.72 499.48 
L 696.24 23.76 
" clip-path="url(#pa1e3faf7b0)" style="fill: none; stroke-dasharray: 5.55,2.4; stroke-dashoffset: 0; stroke: #ff0000; stroke-width: 1.5"/>
   </g>
   <g id="patch_3">
    <path d="M 83.72 499.48 
L 83.72 23.76 
" style="fill: none; stroke: #000000; stroke-width: 0.8; stroke-linejoin: miter; stroke-linecap: square"/>
   </g>
   <g id="patch_4">
    <path d="M 696.24 499.48 
L 696.24 23.76 
" style="fill: none; stroke: #000000; stroke-width: 0.8; stroke-linejoin: miter; stroke-linecap: square"/>
   </g>
   <g id="patch_5">
    <path d="M 83.72 499.48 
L 696.24 499.48 
" style="fill: none; stroke: #000000; stroke-width: 0.8; stroke-linejoin: miter; stroke-linecap: square"/>
   </g>
   <g id="patch_6">
    <path d="M 83.72 23.76 
L 696.24 23.76 
" style="fill: none; stroke: #000000; stroke-width: 0.8; stroke-linejoin: miter; stroke-linecap: square"/>
   </g>
   <g id="text_13">
    <!-- Correlation in: 0.509 -->
    <g transform="translate(144.972 71.332) scale(0.22 -0.22)">
     <defs>
      <path id="DejaVuSans-43" d="M 4122 4306 
L 4122 3641 
Q 3803 3938 3442 4084 
Q 3081 4231 2675 4231 
Q 1875 4231 1450 3742 
Q 1025 3253 1025 2328 
Q 1025 1406 1450 917 
Q 1875 428 2675 428 
Q 3081 428 3442 575 
Q 3803 722 4122 1019 
L 4122 359 
Q 3791 134 3420 21 
Q 3050 -91 2638 -91 
Q 1578 -91 968 557 
Q 359 1206 359 2328 
Q 359 3453 968 4101 
Q 1578 4750 2638 4750 
Q 3056 4750 3426 4639 
Q 3797 4528 4122 4306 
z
" transform="scale(0.015625)"/>
      <path id="DejaVuSans-3a" d="M 750 794 
L 1409 794 
L 1409 0 
L 750 0 
L 750 794 
z
M 750 3309 
L 1409 3309 
L 1409 2516 
L 750 2516 
L 750 3309 
z
" transform="scale(0.015625)"/>
      <path id="DejaVuSans-2e" d="M 684 794 
L 1344 794 
L 1344 0 
L 684 0 
L 684 794 
z
" transform="scale(0.015625)"/>
      <path id="DejaVuSans-39" d="M 703 97 
L 703 672 
Q 941 559 1184 500 
Q 1428 441 1663 441 
Q 2288 441 2617 861 
Q 2947 1281 2994 2138 
Q 2813 1869 2534 1725 
Q 2256 1581 1919 1581 
Q 1219 1581 811 2004 
Q 403 2428 403 3163 
Q 403 3881 828 4315 
Q 1253 4750 1959 4750 
Q 2769 4750 3195 4129 
Q 3622 3509 3622 2328 
Q 3622 1225 3098 567 
Q 2575 -91 1691 -91 
Q 1453 -91 1209 -44 
Q 966 3 703 97 
z
M 1959 2075 
Q 2384 2075 2632 2365 
Q 2881 2656 2881 3163 
Q 2881 3666 2632 3958 
Q 2384 4250 1959 4250 
Q 1534 4250 1286 3958 
Q 1038 3666 1038 3163 
Q 1038 2656 1286 2365 
Q 1534 2075 1959 2075 
z
" transform="scale(0.015625)"/>
     </defs>
     <use xlink:href="#DejaVuSans-43"/>
     <use xlink:href="#DejaVuSans-6f" x="69.824219"/>
     <use xlink:href="#DejaVuSans-72" x="131.005859"/>
     <use xlink:href="#DejaVuSans-72" x="170.369141"/>
     <use xlink:href="#DejaVuSans-65" x="209.232422"/>
     <use xlink:href="#DejaVuSans-6c" x="270.755859"/>
     <use xlink:href="#DejaVuSans-61" x="298.539062"/>
     <use xlink:href="#DejaVuSans-74" x="359.818359"/>
     <use xlink:href="#DejaVuSans-69" x="399.027344"/>
     <use xlink:href="#DejaVuSans-6f" x="426.810547"/>
     <use xlink:href="#DejaVuSans-6e" x="487.992188"/>
     <use xlink:href="#DejaVuSans-20" x="551.371094"/>
     <use xlink:href="#DejaVuSans-69" x="583.158203"/>
     <use xlink:href="#DejaVuSans-6e" x="610.941406"/>
     <use xlink:href="#DejaVuSans-3a" x="674.320312"/>
     <use xlink:href="#DejaVuSans-20" x="708.011719"/>
     <use xlink:href="#DejaVuSans-30" x="739.798828"/>
     <use xlink:href="#DejaVuSans-2e" x="803.421875"/>
     <use xlink:href="#DejaVuSans-35" x="835.208984"/>
     <use xlink:href="#DejaVuSans-30" x="898.832031"/>
     <use xlink:href="#DejaVuSans-39" x="962.455078"/>
    </g>
   </g>
  </g>
 </g>
 <defs>
  <clipPath id="pa1e3faf7b0">
   <rect x="83.72" y="23.76" width="612.52" height="475.72"/>
  </clipPath>
 </defs>
</svg>
